<?xml version="1.0" encoding="UTF-8"?>
<svg id="Layer_2" data-name="Layer 2" xmlns="http://www.w3.org/2000/svg" viewBox="0 0 368.54 709.7">
  <defs>
    <style>
      .cls-1 {
        fill-rule: evenodd;
      }

      .cls-1, .cls-2, .cls-3, .cls-4, .cls-5, .cls-6, .cls-7, .cls-8, .cls-9, .cls-10, .cls-11, .cls-12 {
        stroke-width: 0px;
      }

      .cls-1, .cls-7 {
        fill: #fff;
      }

      .cls-3 {
        fill: #f3ac5a;
      }

      .cls-4 {
        fill: #345135;
      }

      .cls-5 {
        fill: #da2710;
      }

      .cls-6 {
        fill: #fcf5e5;
      }

      .cls-8 {
        fill: #e92515;
      }

      .cls-9 {
        fill: #fcfade;
      }

      .cls-10 {
        fill: #ebf18d;
      }

      .cls-11 {
        fill: #e7ea65;
      }

      .cls-12 {
        fill: #010080;
      }
    </style>
  </defs>
  <g id="Layer_1-2" data-name="Layer 1">
    <path class="cls-2" d="m348.69,227.62v319.58c0,85.17-67.25,162.5-164.42,162.5S19.86,632.37,19.86,547.2V227.62h328.83Z"/>
    <g>
      <polygon class="cls-8" points="44.4 245.03 44.4 247.2 47.45 247.2 44.4 245.03"/>
      <path class="cls-8" d="m329.49,447.33h-38.34v-22.37l1.77-3.57-11.7-8.3v134.12c0,46.71-36.26,95.03-96.95,95.03s-96.95-48.32-96.95-95.03v-271.71l-12.61-8.95,2.69,5.41v22.37h-43.5v-22.37l9.12-18.37h-8.62v-12.12h4.95l-17.1-12.13h-.7v317.88c0,41.38,16.51,82.21,45.29,112,30.39,31.46,72.09,48.79,117.42,48.79s87.03-17.33,117.42-48.79c28.78-29.8,45.29-70.62,45.29-112v-87.46l-17.5-12.42Zm-295.59-22.37l9.12-18.37h-8.62v-12.12h10v5.75h4.38v-5.75h13.75v5.75h4.38v-5.75h10v12.12h-8.62l9.12,18.37v22.37h-43.5v-22.37Zm19.75,193.97l-8.63-20.64,1.33-20.47-7.96,3.33-4.68-11.19,9.23-3.86,2.22,5.3,4.04-1.69-2.22-5.3,12.68-5.31,2.22,5.3,4.04-1.69-2.22-5.3,9.23-3.86,4.68,11.19-7.96,3.33,15.51,13.43,8.64,20.64-40.13,16.79Zm151.75,83.4h-43.5v-22.37l9.12-18.37h-8.62v-12.12h10v5.75h4.38v-5.75h13.75v5.75h4.38v-5.75h10v12.12h-8.62l9.12,18.37v22.37Zm124.76-121.19l-7.96-3.33,1.33,20.47-8.63,20.64-40.13-16.79,8.63-20.64,15.51-13.43-7.96-3.33,4.68-11.19,9.23,3.86-2.22,5.3,4.04,1.69,2.22-5.3,12.69,5.31-2.22,5.3,4.04,1.69,2.22-5.3,9.22,3.86-4.68,11.19Z"/>
    </g>
    <g>
      <path class="cls-7" d="m89.02,276.7v270.51c0,29.12,14.36,58.87,40.08,76.72v-318.78l-40.08-28.44Z"/>
      <path class="cls-7" d="m167.77,332.58v306.69c5.27.83,10.77,1.27,16.5,1.27s11.23-.44,16.5-1.27v-283.27l-33-23.42Z"/>
      <path class="cls-7" d="m239.44,383.43v240.49c25.73-17.85,40.09-47.6,40.09-76.72v-135.33l-40.09-28.44Z"/>
    </g>
    <path class="cls-7" d="m344.15,452.17v-220.02H34.08c52.26,37.08,297.83,211.33,310.07,220.02Z"/>
    <g>
      <path class="cls-3" d="m35.6,275.03v17.6h13.8v-9.74c0-3.42,2.77-6.19,6.19-6.19s6.19,2.77,6.19,6.19v9.74h13.92v-17.6h-40.1Z"/>
      <path class="cls-3" d="m65.65,260.11v1.22h-3.5v7.12h-1.5v-9.5h3.37l-7.57-5.37h-11.52c-2.39,4.81-9.04,18.21-9.32,18.77v.98h40.1v-.98c-.14-.28-1.9-3.83-3.92-7.89l-6.13-4.35Zm-15,1.22h-3.5v7.12h-1.5v-9.5h5v2.37Z"/>
      <path class="cls-3" d="m49.85,248.9h-7.15v-5.08l-.95-.67h-5.65v8.72h17.94l-4.19-2.97Z"/>
    </g>
    <g>
      <path class="cls-3" d="m35.6,428.03v17.6h13.8v-9.74c0-3.42,2.77-6.19,6.19-6.19s6.19,2.77,6.19,6.19v9.74h13.92v-17.6h-40.1Z"/>
      <path class="cls-3" d="m44.92,406.58c-2.39,4.81-9.04,18.21-9.32,18.77v.98h40.1v-.98c-.28-.56-6.94-13.97-9.32-18.77h-21.45Zm5.73,7.75h-3.5v7.12h-1.5v-9.5h5v2.37Zm15,0h-3.5v7.12h-1.5v-9.5h5v2.37Z"/>
      <path class="cls-3" d="m65.53,404.88h9.67v-8.72h-6.6v5.75h-7.78v-5.75h-10.35v5.75h-7.78v-5.75h-6.6v8.72h29.43Z"/>
    </g>
    <g>
      <path class="cls-3" d="m47.77,600.46c1.93,4.61,5.95,14.21,6.79,16.23,1.07-.45,6.42-2.68,12.73-5.33l-3.76-8.98c-1.32-3.15.17-6.78,3.32-8.1,3.15-1.32,6.78.17,8.1,3.32l3.76,8.98c6.36-2.66,11.77-4.92,12.85-5.37-.85-2.02-4.86-11.62-6.79-16.23l-36.99,15.47Z"/>
      <path class="cls-3" d="m48.09,577.08c-.35,5.36-1.31,20.29-1.36,20.92.04.08.17.4.38.9l36.99-15.47c-.21-.5-.34-.82-.38-.9-.48-.41-11.79-10.21-15.85-13.72l-19.79,8.28Zm8.27,4.94l-3.23,1.35,2.75,6.57-1.38.58-3.67-8.76,4.61-1.93.92,2.19Zm13.84-5.79l-3.23,1.35,2.75,6.57-1.38.58-3.67-8.76,4.61-1.93.92,2.19Z"/>
      <path class="cls-3" d="m66.45,567.55l8.92-3.73c-.81-1.94-2.55-6.11-3.37-8.05-1.72.72-4.37,1.83-6.09,2.55.65,1.56,2.22,5.3,2.22,5.3l-7.17,3s-1.57-3.75-2.22-5.3c-2.07.87-7.48,3.13-9.55,3.99.65,1.56,2.22,5.3,2.22,5.3l-7.17,3s-1.57-3.75-2.22-5.31c-1.72.72-4.37,1.83-6.09,2.55.81,1.94,2.55,6.11,3.37,8.05l8.92-3.73,18.23-7.63Z"/>
    </g>
    <g>
      <path class="cls-3" d="m163.6,683.03v17.6h13.8v-9.74c0-3.42,2.77-6.19,6.19-6.19s6.19,2.77,6.19,6.19v9.74h13.92v-17.6h-40.1Z"/>
      <path class="cls-3" d="m172.92,661.58c-2.39,4.81-9.04,18.21-9.32,18.77v.98h40.1v-.98c-.28-.56-6.94-13.97-9.32-18.77h-21.45Zm5.73,7.75h-3.5v7.12h-1.5v-9.5h5v2.37Zm15,0h-3.5v7.12h-1.5v-9.5h5v2.37Z"/>
      <path class="cls-3" d="m193.53,659.88h9.67v-8.72h-6.6v5.75h-7.78v-5.75h-10.35v5.75h-7.78v-5.75h-6.6v8.72h29.43Z"/>
    </g>
    <g>
      <path class="cls-3" d="m320.78,600.46c-1.93,4.61-5.95,14.21-6.79,16.23-1.07-.45-6.42-2.68-12.73-5.33l3.76-8.98c1.32-3.15-.17-6.78-3.32-8.1-3.15-1.32-6.78.17-8.1,3.32l-3.76,8.98c-6.36-2.66-11.77-4.92-12.85-5.37.85-2.02,4.86-11.62,6.79-16.23l36.99,15.47Z"/>
      <path class="cls-3" d="m300.66,568.8c-4.06,3.51-15.37,13.31-15.85,13.72-.04.08-.17.4-.38.9l36.99,15.47c.21-.5.34-.82.38-.9-.04-.63-1.01-15.56-1.36-20.92l-19.79-8.28Zm12.43,11.03l4.61,1.93-3.67,8.76-1.38-.58,2.75-6.57-3.23-1.35.92-2.19Zm-13.84-5.79l4.61,1.93-3.67,8.76-1.38-.58,2.75-6.57-3.23-1.35.92-2.19Z"/>
      <path class="cls-3" d="m302.1,567.55l-8.92-3.73c.81-1.94,2.55-6.11,3.37-8.05,1.72.72,4.37,1.83,6.09,2.55-.65,1.56-2.22,5.3-2.22,5.3l7.17,3s1.57-3.75,2.22-5.3c2.07.87,7.48,3.13,9.55,3.99-.65,1.56-2.22,5.3-2.22,5.3l7.17,3s1.57-3.75,2.22-5.31c1.72.72,4.37,1.83,6.09,2.55-.81,1.94-2.55,6.11-3.37,8.05l-8.92-3.73-18.23-7.63Z"/>
    </g>
    <g>
      <path class="cls-3" d="m302.29,428.03h-9.44v17.6h13.92v-9.74c0-1.42.48-2.72,1.29-3.77l-5.77-4.09Z"/>
      <path class="cls-3" d="m319.15,439.99v5.64h7.94l-7.94-5.64Z"/>
      <path class="cls-3" d="m294.33,422.38c-.83,1.67-1.4,2.82-1.48,2.98v.98h7.04l-5.57-3.95Z"/>
    </g>
    <g>
      <path class="cls-1" d="m183.65,435.42c-33.23,0-60.17,26.93-60.17,60.16s26.94,60.17,60.17,60.17,60.18-26.94,60.18-60.17-26.94-60.16-60.18-60.16h0Z"/>
      <path class="cls-12" d="m236.18,466.1c-.15-.28-.29-.56-.45-.85,0,0-.01,0-.03,0-1.01-1.72-2.1-3.39-3.29-5.02-9.46-13.02-23.45-21.58-39.39-24.1-15.91-2.52-31.82,1.29-44.8,10.72-6.87,4.99-12.49,11.26-16.63,18.4h-.02c-.23.38-.47.81-.7,1.25-3.3,6.02-5.58,12.64-6.69,19.64-2.52,15.93,1.3,31.86,10.76,44.88,19.5,26.83,57.23,32.79,84.1,13.28,12.99-9.44,21.53-23.4,24.06-39.32,2.15-13.58-.32-27.14-6.93-38.87Zm-4.83-5.1c.98,1.35,1.89,2.74,2.74,4.15-3.04-.16-9.42-.44-11.62-.54-5.69-7.12-13.09-12.46-21.53-15.57l-4.27-10.86c13.99,3.15,26.19,11.14,34.68,22.82Zm-7.45,61.31c-3.74.63-17.65,2.97-17.65,2.98l-11.24-15.68,6.21-18.63,18.56-6.7,12,15.21c-.1,1.21-.23,2.42-.42,3.64-1.11,6.98-3.66,13.49-7.45,19.19Zm-39.22-64.57l15.63-7.51c8.36,3.05,15.68,8.34,21.27,15.42l-2.12,16.95-18.55,6.48-16.23-11.91v-19.43Zm-37.67,26.54l19.09,6.7,6.2,18.63-11.24,15.68-17.68-2.99c-4.57-6.88-7.25-14.68-7.9-22.78l11.53-15.25Zm-1.29-18.69c2.71-3.42,5.88-6.49,9.5-9.12,3.65-2.66,7.6-4.74,11.72-6.26l15.68,7.53v19.43l-16.23,11.91-18.55-6.48-2.12-17.01Zm27.91,45.04h20.06l11.35,16.21-9.51,15.57c-7.85,1.98-16.02,1.95-23.74,0l-9.51-15.58,11.35-16.21Zm-24.62-62.72c6.58-4.78,13.93-8.07,21.65-9.8l-4.28,10.9c-4.2,1.56-8.21,3.69-11.92,6.38-3.66,2.66-6.89,5.77-9.64,9.22l-11.64.56c4.01-6.68,9.35-12.55,15.84-17.26Zm-24.17,44.86c2.08,1.57,7.48,5.69,9.34,7.12.7,8.21,3.44,16.11,8.07,23.09l-3.15,11.1c-1.06-1.23-2.09-2.51-3.07-3.85-7.98-10.97-11.85-24.08-11.18-37.47Zm35.89,57.06l10.8-6.12c7.89,1.98,16.24,2.02,24.26,0l10.78,6.11c-14.83,6.26-31.41,6.07-45.84,0Zm81.08-45.07c-1.75,11.04-6.47,21.11-13.59,29.33l-3.16-11.11c3.87-5.85,6.48-12.52,7.62-19.67.18-1.13.31-2.27.41-3.4l9.4-7.15c.18,3.96-.04,7.98-.68,11.99Z"/>
    </g>
    <g>
      <path class="cls-2" d="m191.1,325.5v-79.86h-3.97v77.04c-5.47-3.88-10.93-7.75-16.36-11.61v4.87c6.75,4.79,13.55,9.61,20.33,14.43v-4.87s0,0,0,0Z"/>
      <path class="cls-2" d="m163.8,286.66v19.46c-32.32-22.94-63.08-44.76-86.03-61.04v4.87c23.98,17.01,55.58,39.44,88.5,62.8v-24.33l-2.47-1.75Z"/>
      <path class="cls-2" d="m76.35,239.2c6.39,4.53,61.59,43.7,84.43,59.91v-14.6c-5.41-3.84-10.73-7.61-15.94-11.31h25.94v3.37h-16.25l3.99,2.83h12.26v26.79c4.48,3.18,8.99,6.38,13.5,9.58v-76.58h-107.93Zm53.69,23.5c-4.1-2.91-8.1-5.75-11.98-8.5h52.71v8.5h-40.73Z"/>
      <polygon class="cls-2" points="127.15 257.2 131.14 260.04 166.65 260.04 166.65 257.2 127.15 257.2"/>
    </g>
    <g>
      <path class="cls-2" d="m250.27,239.2h-49v88.64c16.09,11.42,32.01,22.71,47,33.35,3.38,2.4,10-2.5,10-9.5v-100.5c0-6-5-12-8-12Zm-6.5,104.2c-9.16-6.5-18.55-13.16-28-19.87v-69.34h28v89.2Z"/>
      <polygon class="cls-2" points="238.65 257.58 217.77 257.58 217.77 321.58 220.61 321.58 220.61 260.41 238.65 260.41 238.65 257.58"/>
      <path class="cls-2" d="m265.43,351.7v-94.36h-3.97v94.41c-.02,5.9-3.6,10.38-7.14,12.21-2.78,1.43-5.72,2.33-7.89.79-13.55-9.61-27.82-19.74-42.32-30.03v4.87c11.99,8.51,40.03,28.4,40.03,28.4,2.38,1.69,5.3,1.81,8.26.99,1.26-.35,2.52-.86,3.75-1.49,2.06-1.06,3.86-2.6,5.32-4.45,2.48-3.14,3.96-7.18,3.97-11.31,0,0,0-.02,0-.03h0Z"/>
    </g>
    <g>
      <path class="cls-2" d="m325.77,266.7v-27.5h-51v140.8c15.08,10.7,28.43,20.17,39,27.67,4.39,3.12,8.31,5.9,11.67,8.28l.33.21v-33.42c-4.03-2.86-8.03-5.7-12-8.51v18.84l-.23-.17c-7.57-5.37-16.09-11.42-25.27-17.93v-120.78h25.5v12.5h12Z"/>
      <path class="cls-2" d="m329.41,423.64c-10.12-7.18-27.95-19.83-49.97-35.46v4.87c25.09,17.8,44.77,31.76,53.94,38.28v-43.17l-3.97-2.82v38.31Z"/>
      <path class="cls-2" d="m329.41,244.7v25.7h-14.52v3.97h18.49v-29.67h-3.97Z"/>
      <polygon class="cls-2" points="309.27 257.2 293.61 257.2 290.77 257.2 290.77 260.04 290.77 369.37 293.61 369.37 293.61 260.04 309.27 260.04 309.27 257.2"/>
    </g>
    <path class="cls-2" d="m285.55,182.65l-.08-.05-.08-.03c-2.07-.78-51.32-19.21-101.12-19.21s-99.04,18.42-101.12,19.21l-.08.03-.08.05c-2.62,1.59-3.03,4.44-2.08,6.43.84,1.77,2.87,3.13,5.51,2.19.09-.04,1.84-.69,4.92-1.73l5.63,17.11c-2.23.77-3.48,1.24-3.55,1.27l-.1.04-.09.06c-2.01,1.35-2.8,3.8-1.91,5.95.85,2.07,2.93,3.12,5.29,2.67l.09-.02.08-.03c.43-.17,43.36-16.6,87.49-16.6s87.06,16.44,87.48,16.6l.08.03.09.02c2.37.45,4.45-.6,5.29-2.67.88-2.15.1-4.6-1.91-5.95l-.09-.06-.1-.04c-.07-.03-1.32-.5-3.55-1.27l5.63-17.11c3.07,1.04,4.81,1.69,4.9,1.72,2.66.95,4.69-.42,5.53-2.18.95-1.99.54-4.84-2.08-6.43Z"/>
    <path class="cls-10" d="m184.27,199.04c44.83,0,87.83,16.67,87.83,16.67,4.42.83,6.12-4.54,2.66-6.87,0,0-44.81-17.16-90.5-17.16s-90.5,17.16-90.5,17.16c-3.46,2.33-1.75,7.71,2.66,6.87,0,0,43-16.67,87.83-16.67Z"/>
    <path class="cls-10" d="m184.27,171.7c48.83,0,98.17,18.67,98.17,18.67,4.27,1.52,6.66-4.43,2.61-6.89-2.07-.78-51.16-19.14-100.77-19.14s-98.71,18.36-100.77,19.14c-4.05,2.46-1.66,8.41,2.61,6.89,0,0,49.33-18.67,98.17-18.67Z"/>
    <path class="cls-10" d="m184.27,190.7c37.04,0,73.89,11.38,86.38,15.64l5.63-17.11c-14.45-4.83-53.6-16.57-92.01-16.57s-77.54,11.74-92.01,16.57l5.63,17.11c12.49-4.26,49.34-15.64,86.38-15.64Z"/>
    <polygon class="cls-2" points="88.68 193.11 82.1 201.62 93.71 204.43 104.66 194.29 89 192.69 88.68 193.11"/>
    <polygon class="cls-4" points="89.44 193.7 83.77 201.04 93.44 203.37 102.44 195.04 89.44 193.7"/>
    <polygon class="cls-2" points="279.87 193.11 286.44 201.62 274.83 204.43 263.89 194.29 279.54 192.69 279.87 193.11"/>
    <polygon class="cls-4" points="279.11 193.7 284.77 201.04 275.11 203.37 266.11 195.04 279.11 193.7"/>
    <path class="cls-2" d="m111.14,190.7c0,2,1.63,3.63,3.63,3.63s3.63-1.63,3.63-3.63-1.63-3.63-3.63-3.63-3.63,1.63-3.63,3.63Z"/>
    <path class="cls-5" d="m117.44,190.7c0,1.47-1.19,2.67-2.67,2.67s-2.67-1.19-2.67-2.67,1.19-2.67,2.67-2.67,2.67,1.19,2.67,2.67Z"/>
    <path class="cls-2" d="m156.81,182.7c0,2,1.63,3.63,3.63,3.63s3.63-1.63,3.63-3.63-1.63-3.63-3.63-3.63-3.63,1.63-3.63,3.63Z"/>
    <path class="cls-5" d="m163.11,182.7c0,1.47-1.19,2.67-2.67,2.67s-2.67-1.19-2.67-2.67,1.19-2.67,2.67-2.67,2.67,1.19,2.67,2.67Z"/>
    <path class="cls-2" d="m144.53,181.94l-16.39,3c-1.34.25-2.22,1.53-1.98,2.87.25,1.34,1.53,2.22,2.87,1.98l16.39-3c1.34-.25,2.22-1.53,1.98-2.87-.25-1.34-1.53-2.22-2.87-1.98Z"/>
    <path class="cls-4" d="m146.45,184.1c.15.81-.39,1.6-1.21,1.75l-16.39,3c-.81.15-1.6-.39-1.75-1.21h0c-.15-.81.39-1.6,1.21-1.75l16.39-3c.81-.15,1.6.39,1.75,1.21h0Z"/>
    <path class="cls-2" d="m257.4,190.7c0,2-1.63,3.63-3.63,3.63s-3.63-1.63-3.63-3.63,1.63-3.63,3.63-3.63,3.63,1.63,3.63,3.63Z"/>
    <path class="cls-5" d="m251.11,190.7c0,1.47,1.19,2.67,2.67,2.67s2.67-1.19,2.67-2.67-1.19-2.67-2.67-2.67-2.67,1.19-2.67,2.67Z"/>
    <path class="cls-2" d="m211.74,182.7c0,2-1.63,3.63-3.63,3.63s-3.63-1.63-3.63-3.63,1.63-3.63,3.63-3.63,3.63,1.63,3.63,3.63Z"/>
    <path class="cls-5" d="m205.44,182.7c0,1.47,1.19,2.67,2.67,2.67s2.67-1.19,2.67-2.67-1.19-2.67-2.67-2.67-2.67,1.19-2.67,2.67Z"/>
    <path class="cls-2" d="m224.02,181.94l16.39,3c1.34.25,2.22,1.53,1.98,2.87-.25,1.34-1.53,2.22-2.87,1.98l-16.39-3c-1.34-.25-2.22-1.53-1.98-2.87.25-1.34,1.53-2.22,2.87-1.98Z"/>
    <path class="cls-4" d="m222.1,184.1c-.15.81.39,1.6,1.21,1.75l16.39,3c.81.15,1.6-.39,1.75-1.21h0c.15-.81-.39-1.6-1.21-1.75l-16.39-3c-.81-.15-1.6.39-1.75,1.21h0Z"/>
    <polygon class="cls-2" points="183.81 175.19 172.59 181.28 184.27 189.2 195.96 181.28 184.27 174.94 183.81 175.19"/>
    <polygon class="cls-4" points="184.27 188.04 194.11 181.37 184.27 176.04 174.44 181.37 184.27 188.04"/>
    <path class="cls-2" d="m368.39,120.87c-.05-.3-1.47-7.46-15.95-7.46-4.06,0-7.39,1.02-10.07,2.4.26-.4.47-.74.6-1,.64-1.28.95-2.25.95-3.01,0-.4-.09-.75-.27-1.04-.18-.29-.61-.77-1.5-.77-.49,0-.91.22-1.31.52-.01-.02-.03-.06-.04-.08-.22-.28-.54-.44-.89-.44-.08,0-.18.04-.27.07.09-.14,1.67-2.57,1.67-2.57h-1.78c-11.36,0-18.09,15.26-18.71,16.72-.03.04-.06.07-.09.11,1.46-5.32,1.63-10.92,1.64-11.22-.03-3.07-.69-4.61-1.96-4.61-.05,0-.09,0-.14,0,.1-.25.16-.52.27-.76l.09-.19v-.21c0-2.08-1.7-2.84-2.84-2.84h-.19s.56-1.09.56-1.09l-.68-.48c-.1-.07-.99-.68-2.06-.68-7.11,0-14.46,9.09-16.64,12.02-1.24-1.19-3.63-3.71-4.44-6.11l-.22-.66h-.69c-3.09,0-4.45,5.95-4.69,7.15l-.07.33s3.44,6.61,5.14,9.88c-1.66-2.36-4.16-6.12-6.44-9.67l-.22-.34-.4-.08c-2.69-.54-3.3.06-3.5.26-.12.12-.2.27-.28.42-.92-.82-1.56-1.38-1.66-1.47l-.06-.06-.07-.04c-.21-.12-5.06-3.01-8.87-3.01h-2.22l1.52,1.62c.18.19,18.11,19.51,18.11,33.34,0,10.02-5.44,20.72-20.72,20.72-17.36,0-22.97-20.28-22.97-30.1v-6.28c.68-.38,1.62-1.09,1.62-2.22,0-1.54-1.62-2.9-2.9-2.9-1.02,0-2.16.52-2.99,1.34-.35.35-.48.77-.48,1.2,0,.64.28,1.28.54,1.75-1.81,3.15-13.55,22.53-28.76,22.53-9.83,0-23.66-9.2-23.66-29.66,0-15.31,12.38-30.91,24.54-30.91,1.63,0,7.93,1.78,10.22,2.46l3.14.94-2.13-2.49c-.18-.21-3.37-3.88-7.77-5.71v-1.16c3.81.83,8.3,6.13,9.91,8.43.58,2.41,1.42,3.65,2.5,3.65.69,0,2.53,0,2.53-2.53s-1.12-4.79-3.01-6.9l-.29-1.43c-1.77-8.75-10.7-11.03-16.59-11.56,2.29-.21,6.87-.62,6.87-.62l-1.7-1.48c-.21-.18-1.62-1.36-3.3-2.03,9.78,1.12,18.97,10.25,19.06,10.35l.68.69s1.92-1.92,2.28-2.28c2.62-.34,18.43-2.83,18.43-13.67,0-1.97-.85-2.93-1.56-3.31.45-1.15.72-2.37.72-3.68s-.55-2.43-.62-2.54l-.66-1.22-.91,1.05c-2.39,2.75-6.49,4.69-10.24,5.99,3.55-2.01,6.93-5.13,6.93-9.77v-1.12l-1.11.17c-.21.03-3.69.6-8.08,2.05,3.96-3.12,6.33-6.96,6.47-7.19l.78-1.31-1.51-.15c-.64-.06-15.66-1.5-18.51-1.5-1.71,0-3.38.27-5.01.71,2.44-1.94,4.09-4.22,4.09-7.15,0-.22-.01-.45-.03-.68.15-.69.24-1.39.24-2.04,0-1.8-.47-3.29-.91-3.59l-.9-.62-.5.97s-1.81,3.5-4.99,6.67l-.29.3c-.62.64-1.2,1.25-2.11,1.25,0,0-.02,0-.04,0,0-.2.14-.6.39-.85,5.03-5.03,6.67-10.26,6.74-10.48l.7-2.28-2.09,1.16c-.39.22-9.12,5.08-12.1,9.14-.06-.08-.12-.19-.17-.23-.25-.25-.56-.36-.87-.4,1.44-2.36,3.16-5.89,3.16-9.34l.04-.82c.02-.37.05-.75.05-1.11,0-.74-.1-1.41-.53-1.87l-1.07-.46c-.79,0-1.32.44-1.69.95-.47-1.75-2.26-3.25-2.49-3.44l-2.01-1.64.46,2.56c.11.63.4,2.43.4,3.25,0,2-.93,3.64-1.96,4.87.48-1.46.89-3.09.89-4.45,0-3.26-3.57-7.56-3.98-8.04,0,0-.66-.78-1.31-1.55-1.94-3.33-4.04-6.53-6.23-9.51l-.29-.39h-.49c-.67,0-1.16,0-3.76,7.14-.18.48-.48,1.33-.81,2.29-.06,0-.19,0-.19,0-1.16.02-2.55-.04-3.14-.15,0-.23.06-.57.15-.85l.04-.15s0-.26,0-.31c0-.62.07-1.29.17-1.67.12.05.22.08.4.2.4.27.9.61,1.58.61.26,0,.64-.09,1.01-.51,1.04-1.22,2.26-6.26,1.88-8.66l-.35-2.24-1.37,1.81c-3.37,4.46-6.44,6.11-8.91,7.43-1.69.91-3.17,1.74-4.16,3.2-.41.26-1.56,1.01-1.56,1.01-.04.03-.84.56-1.81,1.51.19-.99.39-2.01.39-2.01l-2.37,2.79c-.41.48-3.98,4.78-3.98,8.04,0,1.36.41,2.99.89,4.45-1.03-1.23-1.96-2.86-1.96-4.87,0-.82.29-2.62.4-3.25l.46-2.56-2.01,1.64c-.23.19-2.02,1.7-2.49,3.44-.37-.51-.91-.95-1.69-.95l-1.07.46c-.42.45-.53,1.13-.53,1.87,0,.36.03.74.05,1.11l.04.82c0,3.45,1.72,6.98,3.16,9.34-.32.04-.62.14-.87.4-.05.05-.11.15-.17.23-2.98-4.06-11.71-8.92-12.1-9.14l-2.09-1.16.7,2.28c.07.22,1.71,5.45,6.74,10.48.25.25.38.65.39.85-.02,0-.04,0-.04,0-.91,0-1.49-.61-2.11-1.25l-.29-.3c-3.18-3.18-4.97-6.64-4.99-6.67l-.92-1.8-.82,1.85c-.03.07-.57,1.33-.57,3.19,0,.61.09,1.31.24,2.03-.02.23-.03.46-.03.68,0,2.93,1.64,5.21,4.09,7.15-1.63-.44-3.3-.71-5.01-.71-2.85,0-17.87,1.44-18.51,1.5l-1.51.15.78,1.31c.14.23,2.51,4.07,6.47,7.19-4.39-1.45-7.87-2.02-8.08-2.05l-1.11-.17v1.12c0,4.64,3.38,7.76,6.93,9.77-3.75-1.3-7.85-3.24-10.24-5.99l-.91-1.05-.66,1.22c-.06.12-.62,1.17-.62,2.54s.28,2.54.72,3.68c-.71.39-1.56,1.35-1.56,3.31,0,10.84,15.81,13.33,18.44,13.67.36.36,2.28,2.28,2.28,2.28l.68-.69c.1-.1,9.28-9.23,19.06-10.35-1.68.67-3.09,1.85-3.3,2.03l-1.7,1.48s4.57.42,6.86.62c-5.89.54-14.81,2.81-16.59,11.56l-.29,1.43c-1.89,2.11-3.01,4.48-3.01,6.9s1.84,2.53,2.53,2.53c1.08,0,1.92-1.25,2.5-3.65,1.61-2.29,6.1-7.6,9.91-8.43v1.16c-4.4,1.82-7.59,5.5-7.77,5.71l-2.13,2.49,3.14-.94c2.29-.68,8.6-2.46,10.22-2.46,12.15,0,24.54,15.6,24.54,30.91,0,20.46-13.84,29.66-23.66,29.66-15.2,0-26.94-19.36-28.76-22.52.26-.47.54-1.11.54-1.75,0-.43-.13-.85-.48-1.2-.83-.83-1.98-1.34-2.99-1.34-1.28,0-2.9,1.37-2.9,2.9,0,1.13.94,1.84,1.62,2.22v6.28c0,5.1-1.39,12.86-5.29,19.35-2.95,4.9-8.41,10.75-17.68,10.75-15.28,0-20.72-10.71-20.72-20.72,0-13.83,17.93-33.15,18.11-33.34l1.52-1.62h-2.22c-3.81,0-8.67,2.89-8.87,3.01l-.07.04-.06.06c-.1.09-.74.64-1.66,1.47-.07-.15-.15-.29-.28-.42-.95-.95-3.65-.22-3.68-.21l-.28.12-.16.25c-2.28,3.55-4.78,7.31-6.44,9.67,1.7-3.27,5.14-9.88,5.14-9.88l-.07-.33c-.24-1.19-1.6-7.15-4.69-7.15h-.69l-.22.66c-.81,2.41-3.2,4.92-4.44,6.11-2.18-2.93-9.54-12.02-16.64-12.02-1.07,0-1.96.61-2.06.68l-.68.48s.54,1.07.56,1.09h-.19c-1.14,0-2.84.76-2.84,2.84v.21l.09.19c.11.24.17.51.27.76-.05,0-.1,0-.14,0-1.27,0-1.94,1.54-1.96,4.58,0,.32.18,5.92,1.64,11.25-.03-.04-.06-.07-.09-.11-.62-1.46-7.35-16.72-18.71-16.72h-1.78s1.56,2.4,1.64,2.52c-.1-.02-.18-.02-.24-.02-.31,0-.65.2-.89.55-.41-.31-.85-.55-1.36-.55-.89,0-1.32.48-1.5.77-.18.29-.27.63-.27,1.04,0,.75.31,1.73.95,3.01.13.27.34.6.6,1-2.68-1.38-6.01-2.4-10.07-2.4-14.48,0-15.9,7.16-15.95,7.46l-.16.89.88.21c.25.06,24.84,6.05,40.54,21.74l.04.04,2.04,1.58.58-.82c1.69-2.39,4.44-3.82,7.35-3.82,4.96,0,9,4.04,9,9,0,2.14-.77,4.21-2.17,5.85l-.66.77s1.63,1.26,1.8,1.4c1.09,1.49,14.48,19.28,33.03,19.28,27.88,0,36.77-18.75,38.77-24.22,3.22,2.94,13.02,10.88,25.23,10.88,15.48,0,25.04-14.41,27.83-19.28,2.79,4.87,12.35,19.28,27.83,19.28,12.21,0,22.02-7.94,25.23-10.88,2,5.47,10.89,24.22,38.77,24.22,18.55,0,31.94-17.79,33.03-19.28.17-.13,1.8-1.4,1.8-1.4l-.66-.77c-1.4-1.63-2.17-3.71-2.17-5.85,0-4.96,4.04-9,9-9,2.91,0,5.66,1.43,7.35,3.82l.58.82,2.04-1.58.04-.04c15.7-15.7,40.29-21.69,40.54-21.74l.88-.21-.16-.89ZM210.5,50.05c-4.41,3.56-7.84,7.69-9.68,10.15-.08-.85-.26-2.67-.26-2.67l-.91.03c-.26,0-.56-.01-.79-.05,1.9-3,6.79-5.28,11.64-7.47Zm-26.58-25.47c0-1.62.91-4.8,1.27-5.89.05-.2.24-.69.52-.96-.23.88-.4,1.65-.4,2.1v.12l.03.12c.46,1.78.59,3.51.59,4.91s-.12,2.42-.19,2.87c-.03.04-.07.08-.11.12,0-.05.04-.09.04-.15,0-1.22-.9-2.23-1.01-2.34l-.52-.56s-.11.06-.19.11c-.02-.12-.04-.23-.04-.46h0Zm-3.94-.91h.29c.19.23.41.55.41.91,0,.44-.29.81-.47.99-.08.03-.15.04-.23.08v-1.98Zm-1.22,4.13c.06.37.21.71.45,1.03-.39-.25-.67-.53-.67-.87.02-.02.13-.09.22-.16Zm-9.08,29.73c-.24.04-.53.06-.8.05l-.91-.03s-.18,1.81-.26,2.67c-1.85-2.46-5.27-6.59-9.68-10.15,4.85,2.19,9.74,4.47,11.64,7.47Z"/>
    <path class="cls-10" d="m307.14,149.7c0-5.5,4.47-9.97,9.97-9.97,3.36,0,6.33,1.68,8.14,4.23l1.19-.93c16.08-16.08,41-22,41-22,0,0-1.17-6.67-15-6.67-7.24,0-12.1,3.37-14.79,5.99,1.75-2.12,3.85-4.78,4.46-5.99,1.08-2.17,1.17-3.42.04-3.42s-2.25,2.25-2.25,2.25c0,0,.54-2.25,0-2.25-1.62,0-10.62,13.25-10.62,13.25l10.25-15.75c-11.17,0-17.88,16.25-17.88,16.25,0,0-2.42,3.19-3.19,3.19,2.73-5.94,2.94-14.81,2.94-14.81,0,0-.03-3.62-1-3.62s-2.12,11.37-2.12,11.37c0,0-1.08-8.12,1.38-13.5,0-1.87-1.88-1.87-1.88-1.87l-5,9.12-.94-.94,5.06-9.94s-.71-.5-1.5-.5c-7.88,0-16.5,12.5-16.5,12.5,0,0-4.29-3.67-5.5-7.25-2.46,0-3.75,6.37-3.75,6.37l6.38,12.25s-.29.94-.94.94-8.56-12.31-8.56-12.31c0,0-2.19-.44-2.62,0-.44.44,0,1.12,0,1.12,0,0,10.1,8.71,9.5,10.62-2.1-3.5-12.75-12.75-12.75-12.75,0,0-4.79-2.87-8.38-2.87,0,0,18.38,19.62,18.38,34,0,11.79-6.79,21.69-21.69,21.69-17.44,0-23.94-19.56-23.94-31.06v-6.87s1.62-.62,1.62-1.62-1.17-1.94-1.94-1.94-1.69.44-2.31,1.06.5,2.25.5,2.25c0,0-12.62,23.5-29.88,23.5-10.5,0-24.62-9.79-24.62-30.62,0-16.08,12.96-31.87,25.5-31.87,2.12,0,10.5,2.5,10.5,2.5,0,0-5.46-6.37-11.75-6.37h-2v-.87h5.75v-1.37c5.43,0,11.75,9.12,11.75,9.12,0,0,.71,3.12,1.62,3.12s1.56-.12,1.56-1.56c0-7.02-10.48-13.69-21.31-13.69-15.33,0-25.75,18.75-25.75,18.75,0,0-10.42-18.75-25.75-18.75-10.83,0-21.31,6.67-21.31,13.69,0,1.44.65,1.56,1.56,1.56s1.62-3.12,1.62-3.12c0,0,6.32-9.12,11.75-9.12v1.37h5.75v.87h-2c-6.29,0-11.75,6.37-11.75,6.37,0,0,8.38-2.5,10.5-2.5,12.54,0,25.5,15.79,25.5,31.87,0,20.83-14.12,30.62-24.62,30.62-17.25,0-29.88-23.5-29.88-23.5,0,0,1.12-1.62.5-2.25s-1.54-1.06-2.31-1.06-1.94.94-1.94,1.94,1.62,1.62,1.62,1.62v6.87c0,11.5-6.5,31.06-23.94,31.06-14.9,0-21.69-9.9-21.69-21.69,0-14.37,18.38-34,18.38-34-3.58,0-8.38,2.87-8.38,2.87,0,0-10.65,9.25-12.75,12.75-.6-1.92,9.5-10.62,9.5-10.62,0,0,.44-.69,0-1.12-.44-.44-2.62,0-2.62,0,0,0-7.92,12.31-8.56,12.31s-.94-.94-.94-.94l6.38-12.25s-1.29-6.37-3.75-6.37c-1.21,3.58-5.5,7.25-5.5,7.25,0,0-8.62-12.5-16.5-12.5-.79,0-1.5.5-1.5.5l5.06,9.94-.94.94-5-9.12s-1.88,0-1.88,1.87c2.46,5.37,1.38,13.5,1.38,13.5,0,0-1.16-11.37-2.12-11.37s-1,3.62-1,3.62c0,0,.21,8.87,2.94,14.81-.77,0-3.19-3.19-3.19-3.19,0,0-6.71-16.25-17.88-16.25l10.25,15.75s-9-13.25-10.62-13.25c-.54,0,0,2.25,0,2.25,0,0-1.12-2.25-2.25-2.25s-1.04,1.25.04,3.42c.6,1.21,2.71,3.87,4.46,5.99-2.69-2.62-7.55-5.99-14.79-5.99-13.83,0-15,6.67-15,6.67,0,0,24.92,5.92,41,22l1.19.93c1.81-2.55,4.78-4.23,8.14-4.23,5.5,0,9.97,4.47,9.97,9.97,0,2.47-.91,4.73-2.4,6.48l1.1.86s13.67,19,32.33,19c32.08,0,38.33-25,38.33-25,0,0,11.25,11.67,25.67,11.67,17.83,0,27.83-20.33,27.83-20.33,0,0,10,20.33,27.83,20.33,14.42,0,25.67-11.67,25.67-11.67,0,0,6.25,25,38.33,25,18.67,0,32.33-19,32.33-19l1.1-.86c-1.5-1.74-2.41-4-2.41-6.48Z"/>
    <path class="cls-2" d="m44.48,149.7c0,3.84,3.12,6.96,6.96,6.96s6.96-3.12,6.96-6.96-3.12-6.96-6.96-6.96-6.96,3.12-6.96,6.96Z"/>
    <circle class="cls-5" cx="51.44" cy="149.7" r="6"/>
    <path class="cls-2" d="m324.07,149.7c0,3.84-3.12,6.96-6.96,6.96s-6.96-3.12-6.96-6.96,3.12-6.96,6.96-6.96,6.96,3.12,6.96,6.96Z"/>
    <circle class="cls-5" cx="317.11" cy="149.7" r="6"/>
    <path class="cls-2" d="m109.28,84.74h0c-4.7,1.68-6.58,8.48-4.19,15.17,1.41,3.96,4.09,7.19,7.16,8.65,1.95.92,3.92,1.08,5.69.44,1.78-.63,3.2-2,4.13-3.95,1.45-3.07,1.48-7.26.07-11.22-2.39-6.69-8.15-10.77-12.85-9.09Z"/>
    <path class="cls-6" d="m121.22,94.15c2.21,6.2.6,12.44-3.61,13.94s-9.41-2.31-11.62-8.51c-2.21-6.2-.6-12.44,3.61-13.94,4.2-1.5,9.41,2.31,11.62,8.51Z"/>
    <path class="cls-2" d="m104.92,109.4c-1.11,1.05-1.73,2.52-1.78,4.26-.08,2.7,1.24,5.76,3.52,8.18,2.29,2.43,5.26,3.92,7.96,4,1.74.05,3.24-.48,4.36-1.52,1.11-1.05,1.73-2.52,1.78-4.26.08-2.7-1.24-5.76-3.52-8.18-3.88-4.11-9.4-5.22-12.32-2.48Z"/>
    <path class="cls-6" d="m116.54,112.54c3.52,3.73,4.32,8.69,1.79,11.08-2.53,2.39-7.44,1.3-10.95-2.44-3.52-3.73-4.32-8.69-1.79-11.08,2.53-2.39,7.44-1.3,10.95,2.44Z"/>
    <path class="cls-2" d="m120.29,110.78c-.23,3.32.68,6.53,2.45,8.57,1.14,1.31,2.55,2.06,4.07,2.17,1.52.11,3.02-.44,4.34-1.58,2.04-1.77,3.4-4.81,3.63-8.14.23-3.32-.68-6.53-2.45-8.57-1.14-1.31-2.55-2.06-4.07-2.17-4-.28-7.57,4.08-7.97,9.71Z"/>
    <path class="cls-6" d="m121.25,110.85c-.36,5.12,2.16,9.46,5.63,9.71,3.47.25,6.58-3.7,6.94-8.82.36-5.12-2.16-9.46-5.63-9.71-3.47-.25-6.58,3.7-6.94,8.82Z"/>
    <path class="cls-2" d="m119.93,122.74c0,1.52,1.24,2.76,2.76,2.76s2.76-1.24,2.76-2.76-1.24-2.76-2.76-2.76-2.76,1.24-2.76,2.76Z"/>
    <path class="cls-9" d="m124.48,122.74c0,.99-.8,1.79-1.79,1.79s-1.79-.8-1.79-1.79.8-1.79,1.79-1.79,1.79.8,1.79,1.79Z"/>
    <path class="cls-2" d="m259.27,84.74h0c4.7,1.68,6.58,8.48,4.19,15.17-1.41,3.96-4.09,7.19-7.16,8.65-1.95.92-3.92,1.08-5.69.44s-3.2-2-4.13-3.95c-1.45-3.07-1.48-7.26-.07-11.22,2.39-6.69,8.15-10.77,12.85-9.09Z"/>
    <path class="cls-6" d="m247.33,94.15c-2.21,6.2-.6,12.44,3.61,13.94,4.2,1.5,9.41-2.31,11.62-8.51,2.21-6.2.59-12.44-3.61-13.94-4.21-1.5-9.41,2.31-11.62,8.51Z"/>
    <path class="cls-2" d="m263.62,109.4c1.11,1.05,1.73,2.52,1.78,4.26.08,2.7-1.24,5.76-3.52,8.18-2.29,2.43-5.26,3.92-7.96,4-1.74.05-3.24-.48-4.36-1.52-1.11-1.05-1.73-2.52-1.78-4.26-.08-2.7,1.24-5.76,3.52-8.18,3.88-4.11,9.4-5.22,12.32-2.48Z"/>
    <path class="cls-6" d="m252.01,112.54c-3.52,3.73-4.32,8.69-1.79,11.08,2.53,2.39,7.44,1.3,10.95-2.44,3.52-3.73,4.32-8.69,1.79-11.08-2.53-2.39-7.44-1.3-10.95,2.44Z"/>
    <path class="cls-2" d="m248.25,110.78c.24,3.32-.68,6.53-2.45,8.57-1.14,1.31-2.55,2.06-4.07,2.17-1.52.11-3.02-.44-4.34-1.58-2.04-1.77-3.4-4.81-3.63-8.14-.24-3.32.68-6.53,2.45-8.57,1.14-1.31,2.55-2.06,4.07-2.17,4-.28,7.57,4.08,7.97,9.71Z"/>
    <path class="cls-6" d="m247.29,110.85c.36,5.12-2.16,9.46-5.63,9.71-3.47.25-6.58-3.7-6.94-8.82-.36-5.12,2.16-9.46,5.63-9.71,3.47-.25,6.58,3.7,6.94,8.82Z"/>
    <path class="cls-2" d="m248.61,122.74c0,1.52-1.24,2.76-2.76,2.76s-2.76-1.24-2.76-2.76,1.24-2.76,2.76-2.76,2.76,1.24,2.76,2.76Z"/>
    <path class="cls-9" d="m244.06,122.74c0,.99.8,1.79,1.79,1.79s1.79-.8,1.79-1.79-.8-1.79-1.79-1.79-1.79.8-1.79,1.79Z"/>
    <path class="cls-11" d="m217.36,85.34v1.16c2.74,1.13,5,2.98,6.37,4.27l1.46.39c-2.12-2.41-5.14-5.23-7.83-5.81Z"/>
    <path class="cls-11" d="m143.35,91.15l1.46-.39c1.37-1.29,3.64-3.14,6.37-4.27v-1.16c-2.69.58-5.72,3.4-7.83,5.81Z"/>
    <path class="cls-10" d="m132.69,78.7l1.83,1.83s10.67-10.75,21.67-10.75c3.92,0,5.33,1.25,5.33,1.25v1.25s-3-.92-5.17-.92-4.75,2.25-4.75,2.25l10.08.92-.33,1.33s-18.33-1.65-20.87,10.88c4.2-3.82,11-6.51,18.03-6.51,13.42,0,22.97,13.42,25.75,17.85,2.78-4.42,12.33-17.85,25.75-17.85,7.04,0,13.84,2.69,18.03,6.51-2.54-12.54-20.87-10.88-20.87-10.88l-.33-1.33,10.08-.92s-2.58-2.25-4.75-2.25-5.17.92-5.17.92v-1.25s1.42-1.25,5.33-1.25c11,0,21.67,10.75,21.67,10.75l1.83-1.83s17.92-1.92,17.92-12.75c0-2.25-1.25-2.58-1.25-2.58-3.29,8.37-18.67,12.17-18.67,12.17v-1s19.08-4.75,19.08-15.58c0-1.17-.5-2.08-.5-2.08-5.5,6.33-19.25,8.5-19.25,8.5v-1s14.25-3,14.25-11.92c0,0-7.58,1.17-14.58,4.75v-1.25c7.33-2.25,12-10.08,12-10.08,0,0-15.58-1.5-18.42-1.5-14.25,0-26.33,18.5-26.33,18.5l-.42-4.33s-2.08.08-2.08-.83c4.08-8.5,27.92-10.58,26.92-21.42.67-2.75-.25-4.83-.25-4.83,0,0-1.83,3.58-5.17,6.92-.75.75-1.58,1.83-3.08,1.83s-1.08-1.75-.33-2.5c4.92-4.92,6.5-10.08,6.5-10.08,0,0-10.08,5.58-12.25,9.58-.92,1.67-2.08,4-2.08,4,0,0,1.58-4.17.92-4.83-.67-.67-2.83,1.08-2.83,1.08,0,0,4.83-6,4.83-11.5,0-1.17.42-3.29-.54-3.29s-1.29,1.29-1.29,1.29l-3.92,9.33-1.08-.42s3.75-5.94,3.75-9.42c0-1.67-2.25-3.5-2.25-3.5,0,0,.42,2.33.42,3.42,0,5.17-5.25,8.17-5.25,8.17,0,0,2.25-4.75,2.25-7.75s-3.75-7.42-3.75-7.42c0,0,.83,4.33.83,8.08,0,5.67-7.08,11.83-7.08,11.83h-.18c1.76-1.91,6.3-7.68,6.3-11.83,0-3.61-.81-7.86-.82-7.9l-.31-1.62c-1.49-2.57-3.64-6.03-6.33-9.67-.62,0-5.25,12.5-5.25,14.56,1.12,4.37.38,8.44.38,8.44,0,0-1.81,2.44-3.62,2.44s-5.44-.62-5.44-2.75c0-.75,1.44-1.44,1.44-1.44v-6.87h.81v3.06h.87s.94.81.94,1.87-.88,1.81-.88,1.81c0,0-1.12.25-1.12,1.12s1.44,1.87,2.62,1.87,2.44-.69,2.44-1.56-.75-1.69-.75-1.69c0,0-1,.56-1-1.56s1.31-6.19,1.31-6.19c0,0,.45-1.81,1.81-1.81.62,0,.69-1.87.69-1.87,0,0-3.5.06-3.94-.37-.44-.44,0-1.87,0-1.87,0,0-.06-2.94.87-2.94s1.44.94,2.25.94,2.31-5.69,1.94-8.06c-7.75,10.25-14.19,6.31-14.19,15.31,0,3.31,1.75,7.69,1.75,7.69h-.75s-2.06-3.56-2.06-7.37c0-1.56.38-3.75.38-3.75,0,0-1.36.88-2.68,2.5-.16.91-.78,4.54-.78,7.68,0,4.12,4.37,9.88,6.14,11.83h-.02s-7.08-6.17-7.08-11.83c0-3.75.83-8.08.83-8.08,0,0-3.75,4.42-3.75,7.42s2.25,7.75,2.25,7.75c0,0-5.25-3-5.25-8.17,0-1.08.42-3.42.42-3.42,0,0-2.25,1.83-2.25,3.5,0,3.48,3.75,9.42,3.75,9.42l-1.08.42-3.92-9.33s-.33-1.29-1.29-1.29-.54,2.12-.54,3.29c0,5.5,4.83,11.5,4.83,11.5,0,0-2.17-1.75-2.83-1.08-.67.67.92,4.83.92,4.83,0,0-1.17-2.33-2.08-4-2.17-4-12.25-9.58-12.25-9.58,0,0,1.58,5.17,6.5,10.08.75.75,1.17,2.5-.33,2.5s-2.33-1.08-3.08-1.83c-3.33-3.33-5.17-6.92-5.17-6.92,0,0-.92,2.08-.25,4.83-1,10.83,22.83,12.92,26.92,21.42,0,.92-2.08.83-2.08.83l-.42,4.33s-12.08-18.5-26.33-18.5c-2.83,0-18.42,1.5-18.42,1.5,0,0,4.67,7.83,12,10.08v1.25c-7-3.58-14.58-4.75-14.58-4.75,0,8.92,14.25,11.92,14.25,11.92v1s-13.75-2.17-19.25-8.5c0,0-.5.92-.5,2.08,0,10.83,19.08,15.58,19.08,15.58v1s-15.38-3.79-18.67-12.17c0,0-1.25.33-1.25,2.58,0,10.83,17.92,12.75,17.92,12.75Z"/>
    <circle class="cls-2" cx="184.27" cy="67.33" r="8.59" transform="translate(-8.69 31.88) rotate(-9.66)"/>
    <circle class="cls-5" cx="184.27" cy="67.33" r="7.62"/>
    <path class="cls-2" d="m38.69,136.62c.86.64,1.48,1.66,2.34,2.42.38.34,1.62,1.69,1.99,1.67.83-.05.94-1.64,1.23-2.15.46-.82.62-.66,1.21-.21.56.42.66.67,1.56.6,1.11-.08,1.26-1.47,2.31-1.25.17,1.7.08,2.42,1.45.62.63-.83,1.26-1.9,2.24-2.38.98.67.11,2.1.26,2.99,1.51.6,1.59-1.26,2.63-1.04.12.96.01,1.56.55,2.38.58-.03,1.15.33,1.74.18.64-.16.75-.73,1.23-1.02.87-.54,1.74-.01,1.86.94.09.74-.2,1.56-.16,2.32,1.28.07,2.57-.44,2.33,1.27-.05.37-.26.66-.34.98-.05.21-.16.72-.08.92.15.39.3.14.43.34.22.34.54.34.41.86-.16.68-.33.09-.75.47-1,.92.38,1.38,1.15,1.51.36.79.6.54.27,1.26-.14.31-.72,1.03-.98,1.24.46.53,1.1,1.1.64,1.66-.35.43-.75.02-.92.75-.14.58.21.59-.16,1.16-.26.4-.79.61-.67,1.17.19.88,2.13.69,2.75.48.72-.25,2.45-2.19.76-2.26-.24-.95.5-1.12.89-1.7.47-.72.19-1.3,0-2.03-.46-1.7.68-2.26,1.71-3.32-.41-.43-1.36-.27-1.93-.44.2-.51,3.13-2.99.67-3.01-.04-.65,0-1.31-.02-1.96-.31,0-.62.12-.9.28-.13-.73-.39-1.38-.38-2.12-.44-.1-.69.19-1.04.36-.04-.74-.08-1.33-.27-2.02-.29-.02-.61-.01-.9-.04-.07-.88-.56-1.56-.61-2.47-.19.11-.48.18-.66.38.02-.75.17-1.73.06-2.44-.48.3-.79.39-1.16.79-.35.38-.47.99-.88,1.29-.44.32-1.09.32-1.52,0-.59-.43-.36-.95-.48-1.61-.23-1.19-.66-1.4-1.92-1.25-.96.11-1.06.64-1.54,1.4-.87.2-1.28-.88-1.23-1.57.07-.86.89-1.44,1.01-2.23.11-.71-.48-1.46-1.26-1.28-.6.14-1.04,1.02-1.39,1.44-.65.78-1.6,1.89-2.42.96-.37-.42-.76-1.91-1.27-.65-.25.62.02,1.73-.01,2.4-1.77.78-1.98-3.39-4.22-2.24-2.28,1.18,1.85,3.35.97,4.15-.34.3-1.62-.14-1.98-.21-1.49-.28-.26.65-1.17,1.14-.77.41-3.54-1.47-3.41.08"/>
    <path class="cls-2" d="m67.77,160.7c.74,1.04,2.17,3.51,3.86,2.01.01,2.44,3.72,1.49,3.53,3.59.66.19,1.41.4,2.09.41.15,1.22.94,1.52,2.16,1.75,1.12.21,1.42.16,2.32.98,1.02.93,1.33.79,2.54,1.13,1.2.34.64.93,1.3,1.75.98,1.2,3.83.08,5.04-.16,1.66-.33,2.88.46,4.51.56,1.31,3.32-3.42.97-4.7,1.13-1.17.15-2.01.6-3.31.6-1.69,0-2.35-.37-3.69-1.41-.59-.46-1.2-.83-1.87-1.1-.88-.35-1.04-.49-1.76-1-1.16-.83-2.15-1.11-3.56-1.5-1.41-.39-1.39-1.55-2.57-2.41-1.03-.75-2.36-.74-3.13-1.88-.62-.93-.39-1.36-1.53-1.74-1.12-.37-1.72-.32-2.27-1.56-.23-.51-.79-2.21-.07-2.63,1.07-.62.71,1.26,1.22,1.6"/>
    <path class="cls-2" d="m181.94,51.62c.72.88.88,1.34,1,2.5.08.7.83,1.62.49,2.33-.38.8-1.57.83-2.3.84-1.12,0-1.71.35-2.54.99-.7.55-1.12,1.1-1.65,1.79-.48.62-.69,1.3-1.15,1.92-.17.23-.49.36-.62.62-.21.4-.16.85-.33,1.28-.16.39-.39.56-.48,1-.08.37.08.79,0,1.16-.1.5-.49.89-.59,1.41-.14.74.12,1.48.42,2.14.48,1.08.11,2.38.75,3.47.69,1.18,2.58,1.94,3.02,3.14.32.87-.53,2.04-.43,3.06.72.19,1.09-.19,1.64-.66.59-.5,1-.72,1.93-.64.02,1.08-.51,1.79-.49,2.89.87,0,1.04.36,1.58-.49.31-.49.3-1.04.83-1.4.64-.43.76-.33.92.3.25.98-.29,1.63.92,2.26.78-.52,1.07-3.3,2.33-2.25.82.68.74,2.1,1.59,2.87.79-.62-.06-1.87.42-2.6.49-.75,1.52-.23,2.21-.45,1.2-.38.42-1.28.6-2.15.15-.74.82-1.23.68-2.06.59-.11,1.11-.54,1.72-.68.33-.07,1.63-.09,1.75-.44.17-.49-.91-.94-1.07-1.35-.23-.62.05-.83.36-1.27.46-.67.68-.68.14-1.52-.36-.58-.87-.95-.92-1.68-.03-.56.17-1.15.17-1.73,0-.85.09-.89.58-1.54-.27-.32-.56-.57-.89-.8-.29-.19-.45.07-.67-.35-.23-.43.08-1.52.05-2.03-.84-.12-1.29.1-1.74-.62-.38-.61-.15-1.74-.75-2.19-.83-.62-1.64.27-1.9-1.06-.19-.96.1-1.12.65-1.67.84-.83,1.42-3.62,3-3,.69.27.52.6.34,1.15-.16.5-.46.51-.66.78-.32.45-.63,1.04-.51,1.65.87-.38,1.56-.49,2.54-.49.04.73-.07,1.61.04,2.32.6.03,1.44-.81,1.5-1.4,1.36-.12,1.16,1.24.92,2.06.52.03,1.05,0,1.56.03.2.8-.68.8-1.1,1.13-.52.4-.93,1.17-.8,1.84.63.04,1.85-.22,2.32.12.62.45.49,1.27-.07,1.62-.58.36-1.45.03-1.74.85-.39,1.1,1.51.43,2.31.79.75.33,1.38,1.05.34,1.38-.68.22-1.92.07-2.64.15-.21.02-.81-.09-.94.09-.4.55.76,1.2,1.06,1.34.98.46,1.98.08,3.01.2.02,1.58-.62,1.84-2.08,1.97-.71.07-1.16-.1-1.25.76-.1.99,1.36,1.42,2.08,1.91-.19.23-.44.35-.74.34-.01.32-.11.82.09,1.07.36.45.71.09,1.16.27.62.25.98,1.11.39,1.63-.5.45-1.45.14-1.99,0-.53-.13-1.82-.94-2.42-.65-1.23.6.33,2.83.08,3.89-.11.47-.5,1.15-1.18.95-.55-.17-.84-1.06-1.21-1.48-.56.81-.17,1.5-.35,2.4-.18.92-.67,1.68-1.17,2.42-.29-.55.01-3.94-1.42-2.26-.71.83-.77,2.51-1.7,3.27-1.4,1.16-1.69-1.71-2.78-1.85-1.12-.14-1.77,1.06-2.45,1.72-.4-.48-.43-1.39-.82-1.79-.41-.42-.85-.15-1.42-.09-.83.07-1.85-.2-2.5.43-.25-.49-.32-.97-.42-1.52-.12-.68.09-.54-.5-.85-.76-.4-2.34-.03-2.9-.49-1.69-1.37,2.69-3.28-.43-4.1-1.53-.4-1.72-.7-2.67-1.85-.15-.18-.84-.64-.85-.87,0-.4.54-.54.7-.92.52-1.29-1.07-1.68-1.78-2.25-1.12-.9.65-1.05,1.26-1.68,1.72-1.78-4.03-2.07-2.48-3.88.92-1.07,2.74-.48,3.34-1.83.27-.61-.14-1.22-.03-1.67.2-.8,1.35-.59,1.67-1.27.62-1.3-1.24-2.29-.25-3.49.43.11.88.28,1.28.42.8.27.98.53,1.3-.1.21-.4.29-1.52.33-1.99.04-.41-.17-1.26.06-1.61.54-.8,1.27.07,1.85.3.51.2,1.28.31,1.66-.36.29-.51-.12-1.23.09-1.75.63-1.57,2.07-.24,2.25.83"/>
    <path class="cls-2" d="m188.77,50.79c-1.12.15-.18,1.38-.5,2-.61,1.17-2.2-1.49-3.26-.01-.78,1.08.6,5.12,2.01,3.91.68-.59.44-1.43,1-1.98.55-.54,1.27-.61,1.69-1.32.21-.35.85-1.49.8-1.87-.15-1.12-1.13-.65-1.82-.74"/>
    <path class="cls-2" d="m110.29,89.85c-.64.1-1.28.2-1.92.3-.28.04-.6.03-.8.23-.24.26.01.51-.12.73-.17.28-1.94.5-.94.97.47.22,1.98-.27,2.25.29.29.6-.93.72-1.24.82-.79.25-.52.59-.56,1.29-.04.83-.49.56-1.02,1.09-.65.65.22,1.81,1.05,1.57.84,1.04-.8.8-.54,1.78.34,1.28,2.63-.43,3.01.67.4,1.14-2.14.18-1.54,1.39.31.64,1.15.29,1.66.29.32,0,.91.15.35.46-.09.64.5.46.9.62.18.84-.53,2.57.8,2.28.15.71.12,1.51,1.12,1.13.44-.17.43-.42.96-.39.45.03.8.19.81.68.51.09,1.29-.04,1.7-.33-.09-.48.22-1.17-.17-1.53-.35-.32-1.27,0-1.61-.26-.27-.21-.13-.55-.24-.86-.17-.46-.06-.31-.57-.41-.56-.12-1.22.15-1.72-.06-.08-.58.52-.56.68-.85.3-.53-.32-.83-.86-.77-.07-.27-.27-.87-.2-1.16.13-.54.64-.18.85-.7.44-1.1-1.72-.52-2.1-.52-.19-.92-.16-1.84-1.33-1.63-.25-1.21-.14-1.16.97-1.4-.02-.22-.06-.45-.12-.66-.7.08-1.01.12-1.03-.72,1.16-.21.59-.5.72-1.39.1-.64.95-.8,1.46-1.2-.21-.22-.42-.48-.49-.77.76-.58.46-.69-.35-.97"/>
    <path class="cls-2" d="m108.65,113.52c-.08-.8-.79-.45-1.34-.32-.6.14-.93.2-1.21.7-.14.25,0,.36-.17.56-.24.26-.75.09-.74.56.01.41.21.25.42.39.3.2.64.35.96.55-.03.22.07.6-.04.8-.12.21-.54.08-.58.38-.05.36,1.4.16,1.63.09.24.25.75,1.06.56,1.45-.05.1-.77.46-.92.55.09.73.74.88,1.38.77.06.16.1.6.23.71.31.27.99-.05,1.32-.12.06.17.1.58.22.71.29.28.71.24.65-.19.41.03.78.2,1.2.12.16.44.27.9.41,1.34.47.03.87-.05,1.31-.17.12.33.16.83.44.98.38.2,1.13-.12,1.46-.32.89-.53.86-1.4-.3-1.04-.06-.15-.19-.7-.31-.8-.36-.29-.6-.03-1.03.02-.15-.41-.11-.7-.56-.77-.33-.06-.8.45-1.07.35-.26-.1-.13-.34-.27-.48-.09-.09-.32-.17-.39-.27-.19-.26-.24-.62-.38-.92-.4.07-.72.04-.92-.32-.18-.33.09-.62,0-.91-.26-.79-1.5-.1-1.61-.82.75-.27.81-.97.05-1.14-.44-.1-1.24.24-1.29-.34-.07-.75,2.32-1.09.98-2.03"/>
    <path class="cls-2" d="m128.42,104.79c-.95.15-2.23-1.07-3.19-.89-.54.1-.37.55-.6.93-.2.33-.39.32-.55.75-.15.4-.03.59-.38.86-.23.17-.63.05-.83.42-.38.72.33.42.57.84.17.29-.15,1.26-.25,1.52-.28,0-.97-.01-1.16.17-.56.52.23,1.19.75,1.24.05.86-.81.74-.96,1.51-.1.48.21.5.32.88.11.4-.04.29-.15.67-.12.42-.15.9.49.8,0,.63-.48,1.11.03,1.7.38.44.93.45,1.22.94.17.29.26.54.48.8.12.14.27.08.38.29.05.1-.16.32-.1.46.25.61,1.57.92,2.18.98.65-1.21-1.4-.81-1.37-1.98.01-.48.3-.96.32-1.44.06-1.1-.94-.94-1.68-1.4-.71-.43-.13-.5-.14-1.15,0-.42-.55-.82-.38-1.2.17-.38.77-.21.98-.51.28-.41-.13-.99-.45-1.25.6.07,1.73.21,1.9-.54.17-.75-.5-.72-.91-1.18-.28-.32-.28-.82-.14-1.22.47-1.34,1.44-.1,2.28-.48.76-.34-.16-.61-.4-.85-.34-.33-.45-.69-.27-1.18.51.13,1.2.51,1.72.49.58-.02.9-.77.21-.9"/>
    <path class="cls-2" d="m329.86,136.62c-.86.64-1.48,1.66-2.34,2.42-.38.34-1.62,1.69-1.99,1.67-.83-.05-.94-1.64-1.23-2.15-.46-.82-.62-.66-1.21-.21-.56.42-.66.67-1.56.6-1.11-.08-1.26-1.47-2.31-1.25-.17,1.7-.08,2.42-1.45.62-.63-.83-1.26-1.9-2.24-2.38-.98.67-.11,2.1-.26,2.99-1.51.6-1.59-1.26-2.63-1.04-.12.96-.01,1.56-.55,2.38-.58-.03-1.15.33-1.74.18-.64-.16-.75-.73-1.23-1.02-.87-.54-1.74-.01-1.86.94-.09.74.2,1.56.16,2.32-1.28.07-2.57-.44-2.33,1.27.05.37.26.66.34.98.05.21.16.72.08.92-.15.39-.3.14-.43.34-.22.34-.54.34-.41.86.16.68.33.09.75.47,1,.92-.38,1.38-1.15,1.51-.36.79-.6.54-.27,1.26.14.31.72,1.03.98,1.24-.46.53-1.1,1.1-.64,1.66.35.43.75.02.92.75.14.58-.21.59.16,1.16.26.4.79.61.67,1.17-.19.88-2.13.69-2.75.48-.72-.25-2.45-2.19-.76-2.26.24-.95-.5-1.12-.89-1.7-.47-.72-.19-1.3,0-2.03.46-1.7-.68-2.26-1.71-3.32.41-.43,1.36-.27,1.93-.44-.2-.51-3.13-2.99-.67-3.01.04-.65,0-1.31.02-1.96.31,0,.62.12.9.28.13-.73.39-1.38.38-2.12.44-.1.69.19,1.04.36.04-.74.08-1.33.27-2.02.29-.02.62-.01.9-.04.07-.88.56-1.56.61-2.47.19.11.48.18.66.38-.02-.75-.17-1.73-.06-2.44.48.3.79.39,1.16.79.35.38.47.99.88,1.29.44.32,1.09.32,1.52,0,.59-.43.35-.95.48-1.61.23-1.19.66-1.4,1.92-1.25.96.11,1.06.64,1.54,1.4.87.2,1.29-.88,1.23-1.57-.07-.86-.89-1.44-1.01-2.23-.11-.71.48-1.46,1.26-1.28.6.14,1.04,1.02,1.39,1.44.65.78,1.6,1.89,2.42.96.37-.42.76-1.91,1.27-.65.25.62-.02,1.73.01,2.4,1.77.78,1.98-3.39,4.22-2.24,2.28,1.18-1.85,3.35-.97,4.15.34.3,1.62-.14,1.98-.21,1.49-.28.25.65,1.17,1.14.77.41,3.54-1.47,3.41.08"/>
    <path class="cls-2" d="m300.77,160.7c-.74,1.04-2.17,3.51-3.86,2.01-.01,2.44-3.72,1.49-3.53,3.59-.66.19-1.41.4-2.09.41-.15,1.22-.94,1.52-2.16,1.75-1.12.21-1.42.16-2.32.98-1.02.93-1.33.79-2.54,1.13-1.21.34-.64.93-1.3,1.75-.98,1.2-3.83.08-5.04-.16-1.66-.33-2.88.46-4.51.56-1.31,3.32,3.42.97,4.7,1.13,1.17.15,2.01.6,3.31.6,1.69,0,2.35-.37,3.69-1.41.59-.46,1.2-.83,1.87-1.1.88-.35,1.04-.49,1.76-1,1.16-.83,2.16-1.11,3.56-1.5,1.41-.39,1.39-1.55,2.57-2.41,1.03-.75,2.36-.74,3.13-1.88.62-.93.39-1.36,1.53-1.74,1.12-.37,1.72-.32,2.28-1.56.23-.51.79-2.21.07-2.63-1.07-.62-.71,1.26-1.22,1.6"/>
    <path class="cls-2" d="m258.26,89.85c.64.1,1.28.2,1.92.3.28.04.6.03.8.23.24.26-.01.51.12.73.17.28,1.94.5.94.97-.47.22-1.98-.27-2.25.29-.29.6.93.72,1.24.82.79.25.52.59.56,1.29.04.83.49.56,1.02,1.09.65.65-.22,1.81-1.05,1.57-.84,1.04.8.8.54,1.78-.34,1.28-2.63-.43-3.01.67-.4,1.14,2.14.18,1.54,1.39-.31.64-1.15.29-1.66.29-.32,0-.91.15-.35.46.09.64-.5.46-.9.62-.18.84.53,2.57-.8,2.28-.15.71-.12,1.51-1.12,1.13-.44-.17-.43-.42-.96-.39-.45.03-.8.19-.81.68-.51.09-1.29-.04-1.7-.33.09-.48-.22-1.17.17-1.53.35-.32,1.27,0,1.61-.26.27-.21.13-.55.24-.86.17-.46.06-.31.57-.41.56-.12,1.22.15,1.72-.06.08-.58-.52-.56-.68-.85-.3-.53.32-.83.86-.77.07-.27.27-.87.2-1.16-.13-.54-.64-.18-.85-.7-.44-1.1,1.72-.52,2.1-.52.2-.92.16-1.84,1.33-1.63.25-1.21.14-1.16-.97-1.4.02-.22.06-.45.12-.66.7.08,1.01.12,1.03-.72-1.16-.21-.59-.5-.72-1.39-.1-.64-.95-.8-1.46-1.2.21-.22.42-.48.49-.77-.76-.58-.46-.69.35-.97"/>
    <path class="cls-2" d="m259.9,113.52c.08-.8.79-.45,1.34-.32.6.14.93.2,1.21.7.14.25,0,.36.17.56.24.26.75.09.74.56-.01.41-.21.25-.42.39-.3.2-.64.35-.96.55.03.22-.07.6.04.8.12.21.54.08.58.38.05.36-1.4.16-1.63.09-.24.25-.75,1.06-.56,1.45.05.1.77.46.92.55-.09.73-.74.88-1.38.77-.06.16-.1.6-.23.71-.31.27-.99-.05-1.32-.12-.06.17-.09.58-.22.71-.29.28-.71.24-.65-.19-.41.03-.78.2-1.2.12-.16.44-.27.9-.41,1.34-.46.03-.87-.05-1.31-.17-.12.33-.16.83-.44.98-.38.2-1.13-.12-1.46-.32-.89-.53-.86-1.4.3-1.04.06-.15.19-.7.31-.8.36-.29.6-.03,1.03.02.15-.41.11-.7.56-.77.33-.06.8.45,1.07.35.26-.1.13-.34.27-.48.08-.09.32-.17.39-.27.19-.26.24-.62.37-.92.4.07.72.04.92-.32.18-.33-.09-.62,0-.91.26-.79,1.5-.1,1.61-.82-.75-.27-.81-.97-.05-1.14.44-.1,1.24.24,1.29-.34.07-.75-2.32-1.09-.98-2.03"/>
    <path class="cls-2" d="m240.13,104.79c.95.15,2.23-1.07,3.19-.89.54.1.37.55.6.93.2.33.39.32.55.75.15.4.03.59.38.86.23.17.63.05.83.42.38.72-.33.42-.57.84-.17.29.15,1.26.25,1.52.28,0,.97-.01,1.17.17.56.52-.23,1.19-.75,1.24-.05.86.81.74.96,1.51.1.48-.21.5-.32.88-.11.4.04.29.15.67.12.42.15.9-.49.8,0,.63.48,1.11-.03,1.7-.38.44-.93.45-1.22.94-.17.29-.26.54-.48.8-.12.14-.27.08-.38.29-.05.1.16.32.1.46-.25.61-1.57.92-2.18.98-.65-1.21,1.4-.81,1.37-1.98-.01-.48-.3-.96-.32-1.44-.06-1.1.94-.94,1.68-1.4.71-.43.13-.5.14-1.15,0-.42.55-.82.38-1.2-.16-.38-.77-.21-.98-.51-.28-.41.13-.99.45-1.25-.6.07-1.73.21-1.9-.54-.17-.75.5-.72.91-1.18.28-.32.28-.82.14-1.22-.47-1.34-1.44-.1-2.28-.48-.76-.34.16-.61.4-.85.34-.33.45-.69.27-1.18-.51.13-1.2.51-1.72.49-.58-.02-.9-.77-.21-.9"/>
  </g>
</svg>