<?xml version="1.0" encoding="UTF-8"?>
<svg id="Layer_2" data-name="Layer 2" xmlns="http://www.w3.org/2000/svg" viewBox="0 0 400.04 487.22">
  <defs>
    <style>
      .cls-1 {
        fill: #020202;
      }

      .cls-1, .cls-2, .cls-3, .cls-4, .cls-5, .cls-6, .cls-7, .cls-8, .cls-9, .cls-10, .cls-11, .cls-12, .cls-13 {
        fill-rule: evenodd;
        stroke-width: 0px;
      }

      .cls-2 {
        fill: #1b1918;
      }

      .cls-3 {
        fill: #0a5193;
      }

      .cls-4 {
        fill: #2d2d2d;
      }

      .cls-5 {
        fill: #966232;
      }

      .cls-6 {
        fill: #cd9934;
      }

      .cls-7 {
        fill: #decead;
      }

      .cls-8 {
        fill: #cc6733;
      }

      .cls-9 {
        fill: #fff;
      }

      .cls-10 {
        fill: #999965;
      }

      .cls-11 {
        fill: #989663;
      }

      .cls-12 {
        fill: #996533;
      }

      .cls-13 {
        fill: #f9ce4b;
      }
    </style>
  </defs>
  <g id="Layer_1-2" data-name="Layer 1">
    <g>
      <path class="cls-1" d="m290.18,276.08v-1.52c.9,0,1.84-.06,2.81-.18.46-.07.78-.17.97-.31.19-.14.33-.4.43-.79.11-.53.21-2.49.28-5.86.05-2.41.07-4.85.07-7.35,0-4.91-.02-7.41-.05-7.51-.04-.09-.61-.14-1.7-.14-2.22,0-4.14.05-5.75.15-.93.06-1.45.12-1.57.18-.12.07-.21.17-.28.33-.06.16-.2,1.25-.41,3.29h-2.06c.04-2.4-.05-4.47-.24-6.2l.26-.15c5.04.18,9.94.27,14.69.27s10.06-.09,15.94-.27l.26.31c-.3,1.72-.52,3.73-.64,6.05h-2.01c-.15-2.1-.29-3.25-.43-3.42-.1-.14-.36-.24-.76-.29-1.27-.16-3.81-.25-7.61-.25-.32,0-.51.04-.57.12-.07.08-.09.41-.09.98l-.15,12.49c0,3.62.04,5.84.12,6.66.07.83.27,1.33.57,1.5.21.11,1.46.25,3.77.39v1.52c-2.34-.07-4.82-.11-7.45-.11-3.45,0-6.25.04-8.4.11h0Z"/>
      <path class="cls-1" d="m262.71,256.4l-5.05,9.56c1.47.05,3.09.08,4.86.08s3.61-.02,5.3-.08l-5.11-9.56Zm-15.68,18c1.5-.07,2.42-.18,2.77-.36.23-.12.61-.59,1.13-1.41.97-1.61,2.21-3.85,3.73-6.71l8.47-16.1h3.53l10.81,19.95c1.41,2.52,2.27,3.89,2.6,4.14.33.24,1.33.4,3.03.49v1.67c-2.61-.07-5.07-.11-7.39-.11-2.76,0-5.39.04-7.89.11v-1.67c1.91-.07,3-.14,3.3-.25.29-.1.44-.29.44-.55,0-.23-.34-1.02-1.01-2.36l-1.58-3.11c-1.98-.03-4.18-.04-6.61-.04-2.12,0-4.05.01-5.78.04l-1.05,2.09c-.29.57-.64,1.42-1.05,2.55-.1.25-.15.48-.15.69,0,.28.16.47.47.59.31.11,1.43.24,3.36.36v1.67c-1.56-.07-3.51-.11-5.84-.11s-3.97.04-5.28.11v-1.67Z"/>
      <path class="cls-1" d="m214.52,276.08v-1.52c1.86-.12,2.91-.24,3.19-.35.17-.08.3-.19.38-.36.16-.3.28-1.3.33-3.02.08-2.66.12-4.75.12-6.27,0-2.07-.03-4.69-.1-7.87-.07-2.37-.22-3.82-.45-4.36-.07-.16-.2-.29-.39-.37-.25-.13-1.28-.27-3.09-.42v-1.52c3.31.07,5.44.11,6.4.11l12.01-.11c2.6,0,4.5.2,5.69.58,1.19.39,2.13,1.02,2.83,1.87.7.86,1.04,1.87,1.04,3.03,0,1.49-.55,2.78-1.67,3.9-1.11,1.12-3.04,2.11-5.78,2.97l5.09,5.99,3.96,4.58c.76.75,1.33,1.21,1.69,1.36.37.16.97.24,1.81.25v1.41l-1.41.02c-4.06.02-6.66.05-7.83.09-1.39-1.72-3.47-4.22-6.24-7.49l-4.94-5.81c.15-.21.26-.43.36-.66.64.05,1.11.08,1.42.08,1.49,0,2.95-.46,4.39-1.39,1.45-.93,2.17-2.26,2.17-3.98,0-1.5-.57-2.66-1.72-3.5-1.15-.83-2.86-1.25-5.14-1.25-.73,0-1.71.04-2.95.11l-.15,5.5-.19,6.97c0,1.58.08,3.59.23,6.05.13,1.85.25,2.89.38,3.11.1.16.27.29.52.39.33.15,1.41.26,3.23.33v1.52c-2.86-.07-5.41-.11-7.61-.11-2.36,0-4.89.04-7.6.11h0Z"/>
      <path class="cls-1" d="m186.44,276.08v-1.52c1.89-.11,2.98-.23,3.24-.35.19-.08.34-.2.43-.4.16-.31.28-1.59.35-3.85.07-2.26.11-4.45.11-6.58,0-3.96-.05-6.79-.16-8.5-.1-1.7-.27-2.65-.51-2.85-.23-.2-.92-.32-2.07-.39l-1.39-.1v-1.52l2.71.06c1.68.03,3.01.05,4,.05,1.36,0,3.55-.02,6.57-.07,1.63-.03,2.82-.04,3.59-.04,2.86,0,4.97.21,6.34.63,1.37.42,2.41,1.06,3.12,1.91.71.85,1.06,1.91,1.06,3.18,0,2.29-1.05,4.21-3.15,5.77-2.1,1.55-4.77,2.32-8,2.32-.42,0-.85-.03-1.32-.08-.47-.04-.96-.11-1.49-.2-.27-.44-.55-.87-.86-1.29l.55-.46c.35.06.68.1.97.14.3.03.57.05.8.05,1.61,0,2.93-.43,3.95-1.3,1.02-.87,1.53-2.08,1.53-3.65,0-1.73-.53-3.04-1.59-3.89-1.05-.85-2.61-1.28-4.66-1.28-.83,0-1.81.09-2.93.27-.16,3.83-.24,7.07-.24,9.74,0,.9.06,3.75.19,8.57.05,1.9.13,2.99.25,3.28.07.21.23.35.45.44.35.14,1.71.26,4.07.37v1.52c-2.82-.07-5.2-.11-7.13-.11-.87,0-3.79.04-8.77.11h0Z"/>
      <path class="cls-1" d="m168.05,270.52c1.06,0,1.95.29,2.7.86.75.58,1.11,1.27,1.11,2.11s-.37,1.51-1.11,2.1c-.74.58-1.64.87-2.7.87s-1.96-.29-2.71-.87c-.75-.58-1.13-1.28-1.13-2.1s.37-1.52,1.11-2.1c.75-.58,1.65-.87,2.73-.87h0Z"/>
      <path class="cls-1" d="m136.3,276.08v-.95c.84-.3,1.62-.65,2.32-1.05.32-1.94.48-6.02.48-12.23,0-4.23-.06-7.04-.17-8.43-.04-.73-.21-1.2-.49-1.39-.28-.19-1.46-.36-3.56-.5v-1.52c3.77.07,6.75.11,8.93.11l13.2-.11c1.39,0,2.64.04,3.75.12l.17.21c-.34,1.34-.58,3.13-.74,5.37h-1.91c-.08-1.8-.17-2.77-.28-2.89-.11-.12-.47-.24-1.09-.35-1.33-.22-3.36-.34-6.1-.34-1.34,0-2.91.04-4.7.11-.2,3.86-.31,6.93-.34,9.21,1.71.07,3.31.11,4.81.11,2.21,0,3.55-.06,4-.16.27-.08.46-.25.57-.54.1-.22.2-1,.34-2.34h2.06c-.08,2.1-.12,3.47-.12,4.1l.12,4.19h-2.06c-.12-1.64-.25-2.57-.43-2.82-.1-.15-.31-.26-.65-.32-.8-.13-2.6-.2-5.39-.2-.88,0-1.91.04-3.09.11-.04.66-.05,1.32-.05,2.01,0,3.54.08,6.27.25,8.18l4.75.04c2.71,0,5.18-.12,7.42-.34.39-1.14.77-2.43,1.13-3.88h2.01c-.36,2.2-.57,4.32-.64,6.35-1.45.07-2.85.11-4.19.11-.88,0-2.61-.02-5.19-.06-2.41-.04-4.64-.05-6.66-.05-2.66,0-5.48.04-8.43.11h0Z"/>
      <path class="cls-1" d="m128.93,270.52c1.05,0,1.95.29,2.7.86.74.58,1.11,1.27,1.11,2.11s-.37,1.51-1.11,2.1c-.75.58-1.64.87-2.7.87s-1.96-.29-2.71-.87c-.75-.58-1.13-1.28-1.13-2.1s.37-1.52,1.11-2.1c.74-.58,1.65-.87,2.73-.87h0Z"/>
      <path class="cls-1" d="m102.92,256.4l-5.06,9.56c1.47.05,3.08.08,4.86.08s3.62-.02,5.31-.08l-5.11-9.56Zm-15.68,18c1.5-.07,2.42-.18,2.77-.36.24-.12.61-.59,1.13-1.41.97-1.61,2.21-3.85,3.73-6.71l8.46-16.1h3.54l10.81,19.95c1.41,2.52,2.27,3.89,2.6,4.14.32.24,1.33.4,3.02.49v1.67c-2.61-.07-5.07-.11-7.38-.11-2.77,0-5.4.04-7.89.11v-1.67c1.91-.07,3-.14,3.29-.25.3-.1.44-.29.44-.55,0-.23-.33-1.02-1-2.36l-1.58-3.11c-1.98-.03-4.18-.04-6.61-.04-2.12,0-4.05.01-5.79.04l-1.05,2.09c-.29.57-.64,1.42-1.05,2.55-.1.25-.15.48-.15.69,0,.28.16.47.46.59.31.11,1.43.24,3.36.36v1.67c-1.56-.07-3.51-.11-5.84-.11s-3.97.04-5.28.11v-1.67Z"/>
      <path class="cls-4" d="m85.35,80.02c10.43,9.25,27.69,16.36,47.16,21.09,22.01,5.34,46.65,7.56,67.48,6.35,3.03-.18,6.43-.36,9.88-.54,36.02-1.91,76.8-4.08,106.41-27.33l3.71-2.92,3.26,3.43,27.49,28.86,3.52,3.7-3.64,3.58-20.21,19.89-.23,248.47c-.01,12.91-6.73,24.25-17.31,32.39-10.5,8.09-24.91,13.03-40.2,13.07l-36.04.12c-5.51.02-10.87,1.25-15.95,3.27-6.1,2.43-11.8,6-16.89,9.97l-3.42,2.67-3.23-2.89c-5.8-5.2-11.93-8.39-17.93-10.28-6.05-1.9-12.02-2.49-17.4-2.49h-33.74v-.02h-.18c-11.4-.03-25.8-3.3-37.37-11.3-11.93-8.24-20.9-21.32-20.9-40.75h.02v-.19l.8-242.33-20.63-19.46-3.88-3.66,3.76-3.78,28.57-28.69,3.46-3.47,3.66,3.25Zm44.72,31.17c-18.85-4.58-35.97-11.4-47.79-20.3l-21.5,21.59,18.38,17.34,1.63,1.54v2.24s-.81,244.57-.81,244.57v.19h.02c0,15.43,7.04,25.75,16.39,32.22,9.7,6.7,21.84,9.44,31.48,9.47h.18v-.02h33.74c6.26,0,13.26.71,20.49,2.98,6.16,1.94,12.43,5.01,18.48,9.73,4.92-3.51,10.32-6.62,16.08-8.92,6.21-2.47,12.85-3.98,19.77-4.01l36.04-.11c12.96-.04,25.09-4.17,33.86-10.92,8.12-6.25,13.28-14.73,13.29-24.18l.23-250.65v-2.18s1.55-1.52,1.55-1.52l18.11-17.82-20.79-21.83c-31.68,22.61-72.39,24.77-108.51,26.69-3.22.17-6.4.34-9.84.54-21.75,1.26-47.5-1.05-70.49-6.63h0Z"/>
      <path class="cls-11" d="m273.87,65.93c7.36-2.15,14.36-6.32,20.6-10.69,7.79-5.45,15.14-11.72,22.37-17.89l5.06-4.32,78.13,80.17-5.07,4.95-32.12,31.43-.09,236.46c0,21.75-11.14,41.16-27.71,54.79-17.95,14.76-41.13,22.1-64.23,22.1h-33.24c-1.85,0-3.83.09-5.64.52-1.31.32-2.53.82-3.6,1.66l-28.54,22.11-25.49-21.04c-1.88-1.07-3.86-1.93-5.94-2.52-2.37-.67-4.81-.96-7.27-.96h-4.51s-25.5-.01-25.5-.01h0s-4.51.01-4.51.01c-19.96,0-41.46-7.25-57.46-19.14-19.14-14.22-29.93-34.14-31.15-57.6h-.13v-235.84L0,113.07,78.65,33.48l4.99,3.98c1.68,1.34,3.35,2.68,5.03,4.03,6.43,5.16,12.94,10.5,19.75,15.15,4.97,3.4,10.21,6.43,15.98,8.26.67.21,1.34.41,2.02.58,11.37,2.98,23.12,4.96,34.79,6.32,13.07,1.52,26.27,2.24,39.43,2.28,24.24.07,49.75-2.14,73.25-8.15h0Zm-194.11-13.35l-59.62,60.33,31.93,31.26v238.5c.34,20.32,9.15,37.32,25.52,49.49,13.59,10.09,32.04,16.32,48.99,16.32h4.21s25.8,0,25.8,0h0s4.51,0,4.51,0c3.77,0,7.49.48,11.11,1.5,3.44.97,6.69,2.4,9.76,4.22l.46.27.45.37,17.2,14.2,19.57-15.16c2.68-2.08,5.68-3.44,8.97-4.23,2.94-.71,5.95-.94,8.97-.94h33.24c19.8,0,39.8-6.18,55.2-18.85,13.25-10.89,22.52-26.36,22.53-43.82l.09-242.44,31.31-30.64-58.96-60.5c-5.95,5.02-12.02,9.96-18.39,14.41-7.59,5.32-15.9,10.12-24.85,12.72l-.09.03-.17.04c-24.79,6.14-51.39,8.69-76.92,8.62-25.55-.07-53.01-2.57-77.77-9.05-1.67-.44-3.32-.95-4.94-1.54-6.55-2.36-12.49-5.84-18.19-9.79-6.86-4.75-13.42-10.11-19.93-15.33h0Z"/>
      <path class="cls-4" d="m79.41,46.51L13.75,112.96l33.03,32.33.78.77v235.39h0c0,24.83,11.68,42.68,27.35,54.32,15.79,11.73,35.61,17.21,51.68,17.21h0s34.52.01,34.52.01h0c3.52-.01,6.79.45,9.89,1.32,3.09.87,5.96,2.14,8.7,3.76l.15.09.18.14,19.98,16.49,22.42-17.37c2.21-1.71,4.64-2.78,7.26-3.41,2.53-.61,5.16-.81,7.91-.81h33.23c22.82,0,43.26-7.69,58.07-19.87,14.97-12.31,24.17-29.2,24.18-47.3l.09-239.45v-1.1l.77-.75,32.4-31.7-65.04-66.74c-7.16,6.09-14.19,11.93-21.27,16.88-7.78,5.44-15.55,9.77-23.52,12.08l-.08.02c-22.93,5.89-49.62,8.56-75.82,8.49-27.74-.08-54.97-3.23-76.64-8.91-13.65-3.58-24.45-12.24-41.38-25.82-.95-.76-1.94-1.56-3.18-2.54h0ZM8.22,111.17L77.35,41.2l1.65-1.66,1.82,1.45c1.31,1.04,3.18,2.55,5.02,4.02,16.4,13.16,26.87,21.55,39.43,24.84,21.28,5.57,48.04,8.67,75.34,8.74,25.77.07,51.98-2.55,74.46-8.31,7.36-2.14,14.65-6.21,22-11.35,7.43-5.2,14.98-11.56,22.72-18.15l1.85-1.58,1.7,1.74,68.54,70.33,1.81,1.86-1.85,1.8-33.47,32.76-.09,238.36c0,19.72-9.93,38.03-26.06,51.3-15.71,12.92-37.32,21.07-61.37,21.07h-33.23c-2.42,0-4.67.16-6.69.65-1.93.47-3.72,1.24-5.31,2.48l-24.06,18.64-1.64,1.27-1.6-1.32-21.4-17.66c-2.31-1.36-4.73-2.42-7.31-3.14-2.62-.74-5.43-1.13-8.48-1.13h0s-34.52-.01-34.52-.01h0s0,.01,0,.01c-17.02,0-38.02-5.81-54.77-18.25-16.87-12.54-29.45-31.75-29.45-58.49h0v-233.22L8.25,114.84l-1.86-1.82,1.83-1.85Z"/>
      <path class="cls-5" d="m196.9,4.4c-10.07.42-19.58,2.97-28.11,7.21-6.64,20.1-10.09,40.66-10.02,61.72.07,21.13,3.69,42.79,11.2,65.05,8.32,3.93,17.53,6.28,27.25,6.64-11.55-21.99-17.31-44.62-17.41-67.89-.1-23.63,5.64-47.87,17.09-72.72h0Zm5.23,140.63c10.07-.32,19.6-2.76,28.17-6.91l-.19-35.43c-1.14,1.32-2.3,2.53-3.48,3.63-5.19,4.85-10.74,7.63-16.52,8.29l-1.87.21-.47-1.82c-3.04-11.73-4.67-23.89-4.71-36.64-.05-12.74,1.5-26.04,4.81-40.04l.56-2.35,2.28.82c5.54,1.99,10.74,5.14,15.48,9.79,1.25,1.23,2.47,2.56,3.66,4V11.06c-8.57-4.07-18.1-6.45-28.16-6.7-11.76,24.92-17.65,49.18-17.56,72.75.1,23.27,6.06,45.92,18,67.92h0Zm32.48-9.18c5.45-3.12,10.45-6.96,14.86-11.38,9.65-9.68,16.5-22.18,19.23-36.16l-28.93-.41c-1.74,3.42-3.56,6.52-5.45,9.29h.09l.21,38.66Zm-27.2-63.32l62.56-.43c-.07-1.96-.22-3.89-.45-5.81l-32.69-.22h-1.37s-.58-1.24-.58-1.24c-3.46-7.31-7.4-12.93-11.72-17.17-3.61-3.54-7.51-6.11-11.62-7.9-2.55,11.41-3.88,22.3-4.12,32.77h0Zm62.58,3.89l-62.61.43c.08,11.5,1.49,22.51,4.09,33.15,4.21-.89,8.3-3.18,12.21-6.84,4.58-4.28,8.89-10.43,12.82-18.41l.6-1.22,1.36.02,30.94.43c.32-2.49.52-5.02.59-7.58h0Zm-35.81-21.83c1.4,2.2,2.74,4.59,4.02,7.18l30.67.2c-2.61-14.33-9.54-27.14-19.39-37.03-4.52-4.54-9.66-8.46-15.29-11.63v41.27ZM163.28,14.66c-4.73,2.91-9.09,6.36-12.99,10.28-12.22,12.26-19.95,29.02-20.51,47.6h24.67c.01-19.72,3.04-39,8.83-57.88h0Zm-8.78,62.21h-24.72c.56,18.57,8.29,35.34,20.51,47.59,4.23,4.24,8.99,7.94,14.18,10.99-6.31-19.95-9.56-39.46-9.97-58.58h0Zm-7.28-54.99C160.7,8.36,179.32,0,199.88,0s39.18,8.36,52.66,21.89c13.48,13.52,21.81,32.2,21.81,52.82s-8.34,39.29-21.81,52.81c-13.48,13.52-32.1,21.89-52.66,21.89s-39.18-8.36-52.66-21.89c-13.48-13.52-21.81-32.19-21.81-52.81s8.34-39.3,21.81-52.82h0Z"/>
      <path class="cls-13" d="m154.45,72.54c.01-19.72,3.04-39,8.83-57.88-4.73,2.91-9.09,6.36-12.99,10.28-12.22,12.26-19.95,29.02-20.51,47.6h24.67Z"/>
      <path class="cls-13" d="m154.5,76.87h-24.72c.56,18.57,8.29,35.34,20.51,47.59,4.23,4.24,8.99,7.94,14.18,10.99-6.31-19.95-9.56-39.46-9.97-58.58h0Z"/>
      <path class="cls-13" d="m158.77,73.33c.07,21.13,3.69,42.79,11.2,65.05,8.32,3.93,17.53,6.28,27.25,6.64-11.55-21.99-17.31-44.62-17.41-67.89-.1-23.63,5.64-47.87,17.09-72.72-10.07.42-19.58,2.97-28.11,7.21-6.64,20.1-10.09,40.66-10.02,61.72h0Z"/>
      <path class="cls-13" d="m184.13,77.11c.1,23.27,6.06,45.92,18,67.92,10.07-.32,19.6-2.76,28.17-6.91l-.19-35.43c-1.14,1.32-2.3,2.53-3.48,3.63-5.19,4.85-10.74,7.63-16.52,8.29l-1.87.21-.47-1.82c-3.04-11.73-4.67-23.89-4.71-36.64-.05-12.74,1.5-26.04,4.81-40.04l.56-2.35,2.28.82c5.54,1.99,10.74,5.14,15.48,9.79,1.25,1.23,2.47,2.56,3.66,4V11.06c-8.57-4.07-18.1-6.45-28.16-6.7-11.76,24.92-17.65,49.18-17.56,72.75h0Z"/>
      <path class="cls-13" d="m207.41,72.53l62.56-.43c-.07-1.96-.22-3.89-.45-5.81l-32.69-.22h-1.37s-.58-1.24-.58-1.24c-3.46-7.31-7.4-12.93-11.72-17.17-3.61-3.54-7.51-6.11-11.62-7.9-2.55,11.41-3.88,22.3-4.12,32.77h0Z"/>
      <path class="cls-13" d="m269.99,76.42l-62.61.43c.08,11.5,1.49,22.51,4.09,33.15,4.21-.89,8.3-3.18,12.21-6.84,4.58-4.28,8.89-10.43,12.82-18.41l.6-1.22,1.36.02,30.94.43c.32-2.49.52-5.02.59-7.58h0Z"/>
      <path class="cls-13" d="m268.7,88.31l-28.93-.41c-1.74,3.42-3.56,6.52-5.45,9.29h.09l.21,38.66c5.45-3.12,10.45-6.96,14.86-11.38,9.65-9.68,16.5-22.18,19.23-36.16h0Z"/>
      <path class="cls-13" d="m238.2,61.76l30.67.2c-2.61-14.33-9.54-27.14-19.39-37.03-4.52-4.54-9.66-8.46-15.29-11.63v41.27c1.4,2.2,2.74,4.59,4.02,7.18h0Z"/>
      <path class="cls-12" d="m162.94,358.5c0-.73.05-1.4-.54-1.78-1.62-1.02-3.37-1.32-5.22-1.49-.66-.06-1.49.03-1.55.98-.65,11.07,3.55,18.16,10.62,22.5.86.53,1.27.71,1.95.11,1.11-.96,2.15-2.89,2.07-4.48-.04-.78-.67-1.13-1.03-1.49-3.39-3.38-6.26-8.11-6.28-14.34h0Z"/>
      <path class="cls-8" d="m269.06,351.94c4.82-.08,9.64-.15,14.46-.23,2.31,2.3,2.81,5.32,2.07,8.84-3.25.73-6.5,1.45-9.75,2.18-4.9,7.69-9.79,15.38-14.69,23.07.38,3.21.76,6.43,1.15,9.64-3.15,3.18-6.98,3.82-11.36,2.41-.58-4.32-1.15-8.64-1.72-12.97,6.62-10.98,13.24-21.96,19.86-32.94h0Z"/>
      <path class="cls-6" d="m261.55,385.15c14.44,5.37,28.86,10.8,43.32,16.11,1.58.58,3.1.44,4.36-.46,4.21-3,5.46-6.89,6.08-11.07.27-1.78-.03-3.16-1.49-3.96l-39.02-21.42-13.25,20.81Z"/>
      <path class="cls-7" d="m107.96,390.93c-3.9-8.01-2.83-16.57,2.38-19.11,5.21-2.54,12.6,1.91,16.5,9.93,3.9,8.02,2.83,16.57-2.38,19.11-5.21,2.54-12.61-1.91-16.5-9.93h0Zm35.15-7.86l18.43-8.13c-3.29-3.45-5.39-7.99-5.87-13.87l-18.87,8.12c-8.24-11.17-21.77-15.94-32.65-10.68-12.62,6.1-16.89,23.38-9.54,38.59,7.35,15.21,23.54,22.6,36.16,16.5,10.42-5.04,15.15-17.7,12.34-30.52h0Z"/>
      <path class="cls-7" d="m185.71,348.92l-22.76,9.35v.23c.02,5.75,2.46,10.21,5.49,13.52l35.61-15.44,49.71,20.75,8.79-14.57-38.8-14.72,92.1-39.94-4.59-10.65-12.76,5.23-3.1-7.1h-7.9l-1.76.86,2.07,4.59-1.1,6.52-6.98-2.3-3.26-7.34-9.55,4.36,4.91,11.25-66.73,27.44-106.88-40.57-14.51.09,9.27,9.74,92.73,38.71Z"/>
      <path class="cls-2" d="m74.98,229.34h250.1v10.41H74.98v-10.41Zm250.1,66.24H74.98v-10.41h250.1v10.41Z"/>
      <path class="cls-3" d="m287.49,295.58H80.26l-.27,82.59v.19h.02c0,15.43,7.04,25.75,16.39,32.22,9.7,6.7,21.84,9.44,31.48,9.47h.18v-.02h33.74c6.26,0,13.26.71,20.49,2.98,6.16,1.94,12.43,5.01,18.48,9.73,4.92-3.51,10.32-6.62,16.08-8.92,6.21-2.47,12.85-3.98,19.77-4.01l36.04-.11c12.96-.04,25.09-4.17,33.86-10.92,8.12-6.25,13.28-14.73,13.29-24.18l.08-89.02h-24.5l3.1,7.1,12.76-5.23,4.59,10.65-92.1,39.94,38.8,14.72,6.52-10.81,14.46-.23c2.31,2.3,2.81,5.32,2.07,8.84l-9.75,2.18-1.03,1.61,39.02,21.42c1.46.8,1.76,2.18,1.49,3.96-.62,4.18-1.87,8.07-6.08,11.07-1.27.9-2.78,1.04-4.36.46-14.46-5.31-28.88-10.74-43.32-16.11l-.41.64,1.15,9.64c-3.15,3.18-6.98,3.82-11.36,2.41l-1.72-12.97,4.55-7.55-49.71-20.75-35.61,15.44c.26.28.52.56.79.83.36.36.99.71,1.03,1.49.08,1.59-.95,3.51-2.07,4.48-.68.59-1.09.41-1.95-.11-1.76-1.08-3.34-2.32-4.71-3.76l-18.43,8.13c2.81,12.82-1.91,25.48-12.34,30.52-12.62,6.1-28.81-1.29-36.16-16.5-7.35-15.21-3.08-32.49,9.54-38.59,10.88-5.26,24.42-.49,32.65,10.68l18.87-8.12c-.12-1.53-.14-3.15-.04-4.87.06-.95.89-1.03,1.55-.98,1.86.17,3.61.47,5.22,1.49.54.34.55.92.54,1.55l22.76-9.35-92.73-38.71-9.27-9.74,14.51-.09,106.88,40.57,66.73-27.44-4.91-11.25,9.55-4.36,3.26,7.34,6.98,2.3,1.1-6.52-2.07-4.59,1.76-.86Z"/>
      <path class="cls-3" d="m126.84,381.75c-3.9-8.02-11.29-12.46-16.5-9.93-5.22,2.54-6.28,11.09-2.38,19.11,3.89,8.02,11.29,12.46,16.5,9.93,5.22-2.54,6.28-11.09,2.38-19.11h0Z"/>
      <path class="cls-9" d="m80.3,285.17h239.6l.04-45.42H80.44l-.15,45.42Zm26.56-35.33l10.81,19.95c1.41,2.52,2.27,3.89,2.6,4.14.32.24,1.33.4,3.02.49v1.67c-2.61-.07-5.07-.11-7.38-.11-2.77,0-5.4.04-7.89.11v-1.67c1.91-.07,3-.14,3.29-.25.3-.1.44-.29.44-.55,0-.23-.33-1.02-1-2.36l-1.58-3.11c-1.98-.03-4.18-.04-6.61-.04-2.12,0-4.05.01-5.79.04l-1.05,2.09c-.29.57-.64,1.42-1.05,2.55-.1.25-.15.48-.15.69,0,.28.16.47.46.59.31.11,1.43.24,3.36.36v1.67c-1.56-.07-3.51-.11-5.84-.11s-3.97.04-5.28.11v-1.67c1.5-.07,2.42-.18,2.77-.36.24-.12.61-.59,1.13-1.41.97-1.61,2.21-3.85,3.73-6.71l8.46-16.1h3.54Zm22.07,20.69c1.05,0,1.95.29,2.7.86.74.58,1.11,1.27,1.11,2.11s-.37,1.51-1.11,2.1c-.75.58-1.64.87-2.7.87s-1.96-.29-2.71-.87c-.75-.58-1.13-1.28-1.13-2.1s.37-1.52,1.11-2.1c.74-.58,1.65-.87,2.73-.87h0Zm7.37,5.56v-.95c.84-.3,1.62-.65,2.32-1.05.32-1.94.48-6.02.48-12.23,0-4.23-.06-7.04-.17-8.43-.04-.73-.21-1.2-.49-1.39-.28-.19-1.46-.36-3.56-.5v-1.52c3.77.07,6.75.11,8.93.11l13.2-.11c1.39,0,2.64.04,3.75.12l.17.21c-.34,1.34-.58,3.13-.74,5.37h-1.91c-.08-1.8-.17-2.77-.28-2.89-.11-.12-.47-.24-1.09-.35-1.33-.22-3.36-.34-6.1-.34-1.34,0-2.91.04-4.7.11-.2,3.86-.31,6.93-.34,9.21,1.71.07,3.31.11,4.81.11,2.21,0,3.55-.06,4-.16.27-.08.46-.25.57-.54.1-.22.2-1,.34-2.34h2.06c-.08,2.1-.12,3.47-.12,4.1l.12,4.19h-2.06c-.12-1.64-.25-2.57-.43-2.82-.1-.15-.31-.26-.65-.32-.8-.13-2.6-.2-5.39-.2-.88,0-1.91.04-3.09.11-.04.66-.05,1.32-.05,2.01,0,3.54.08,6.27.25,8.18l4.75.04c2.71,0,5.18-.12,7.42-.34.39-1.14.77-2.43,1.13-3.88h2.01c-.36,2.2-.57,4.32-.64,6.35-1.45.07-2.85.11-4.19.11-.88,0-2.61-.02-5.19-.06-2.41-.04-4.64-.05-6.66-.05-2.66,0-5.48.04-8.43.11h0Zm31.74-5.56c1.06,0,1.95.29,2.7.86.75.58,1.11,1.27,1.11,2.11s-.37,1.51-1.11,2.1c-.74.58-1.64.87-2.7.87s-1.96-.29-2.71-.87c-.75-.58-1.13-1.28-1.13-2.1s.37-1.52,1.11-2.1c.75-.58,1.65-.87,2.73-.87h0Zm18.39,5.56v-1.52c1.89-.11,2.98-.23,3.24-.35.19-.08.34-.2.43-.4.16-.31.28-1.59.35-3.85.07-2.26.11-4.45.11-6.58,0-3.96-.05-6.79-.16-8.5-.1-1.7-.27-2.65-.51-2.85-.23-.2-.92-.32-2.07-.39l-1.39-.1v-1.52l2.71.06c1.68.03,3.01.05,4,.05,1.36,0,3.55-.02,6.57-.07,1.63-.03,2.82-.04,3.59-.04,2.86,0,4.97.21,6.34.63,1.37.42,2.41,1.06,3.12,1.91.71.85,1.06,1.91,1.06,3.18,0,2.29-1.05,4.21-3.15,5.77-2.1,1.55-4.77,2.32-8,2.32-.42,0-.85-.03-1.32-.08-.47-.04-.96-.11-1.49-.2-.27-.44-.55-.87-.86-1.29l.55-.46.97.14c.3.03.57.05.8.05,1.61,0,2.93-.43,3.95-1.3,1.02-.87,1.53-2.08,1.53-3.65,0-1.73-.53-3.04-1.59-3.89-1.05-.85-2.61-1.28-4.66-1.28-.83,0-1.81.09-2.93.27-.16,3.83-.24,7.07-.24,9.74,0,.9.06,3.75.19,8.57.05,1.9.13,2.99.25,3.28.07.21.23.35.45.44.35.14,1.71.26,4.07.37v1.52c-2.82-.07-5.2-.11-7.13-.11-.87,0-3.79.04-8.77.11h0Zm28.08,0v-1.52c1.86-.12,2.91-.24,3.19-.35.17-.08.3-.19.38-.36.16-.3.28-1.3.33-3.02.08-2.66.12-4.75.12-6.27,0-2.07-.03-4.69-.1-7.87-.07-2.37-.22-3.82-.45-4.36-.07-.16-.2-.29-.39-.37-.25-.13-1.28-.27-3.09-.42v-1.52c3.31.07,5.44.11,6.4.11l12.01-.11c2.6,0,4.5.2,5.69.58,1.19.39,2.13,1.02,2.83,1.87.7.86,1.04,1.87,1.04,3.03,0,1.49-.55,2.78-1.67,3.9-1.11,1.12-3.04,2.11-5.78,2.97l5.09,5.99,3.96,4.58c.76.75,1.33,1.21,1.69,1.36.28.12.7.19,1.25.23v-.13c1.5-.07,2.42-.18,2.77-.36.23-.12.61-.59,1.13-1.41.97-1.61,2.21-3.85,3.73-6.71l8.47-16.1h3.53l10.81,19.95c1.41,2.52,2.27,3.89,2.6,4.14.33.24,1.33.4,3.03.49v1.67c-2.61-.07-5.07-.11-7.39-.11-2.76,0-5.39.04-7.89.11v-1.67c1.91-.07,3-.14,3.3-.25.29-.1.44-.29.44-.55,0-.23-.34-1.02-1.01-2.36l-1.58-3.11c-1.98-.03-4.18-.04-6.61-.04-2.12,0-4.05.01-5.78.04l-1.05,2.09c-.29.57-.64,1.42-1.05,2.55-.1.25-.15.48-.15.69,0,.28.16.47.47.59.31.11,1.43.24,3.36.36v1.67c-1.56-.07-3.51-.11-5.84-.11s-3.97.04-5.28.11v-.11h-.85c-4.06.03-6.66.06-7.83.11-1.39-1.72-3.47-4.22-6.24-7.49l-4.94-5.81c.15-.21.26-.43.36-.66.64.05,1.11.08,1.42.08,1.49,0,2.95-.46,4.39-1.39,1.45-.93,2.17-2.26,2.17-3.98,0-1.5-.57-2.66-1.72-3.5-1.15-.83-2.86-1.25-5.14-1.25-.73,0-1.71.04-2.95.11l-.15,5.5-.19,6.97c0,1.58.08,3.59.23,6.05.13,1.85.25,2.89.38,3.11.1.16.27.29.52.39.33.15,1.41.26,3.23.33v1.52c-2.86-.07-5.41-.11-7.61-.11-2.36,0-4.89.04-7.6.11h0Zm75.66,0v-1.52c.9,0,1.84-.06,2.81-.18.46-.07.78-.17.97-.31.19-.14.33-.4.43-.79.11-.53.21-2.49.28-5.86.05-2.41.07-4.85.07-7.35,0-4.91-.02-7.41-.05-7.51-.04-.09-.61-.14-1.7-.14-2.22,0-4.14.05-5.75.15-.93.06-1.45.12-1.57.18-.12.07-.21.17-.28.33-.06.16-.2,1.25-.41,3.29h-2.06c.04-2.4-.05-4.47-.24-6.2l.26-.15c5.04.18,9.94.27,14.69.27s10.06-.09,15.94-.27l.26.31c-.3,1.72-.52,3.73-.64,6.05h-2.01c-.15-2.1-.29-3.25-.43-3.42-.1-.14-.36-.24-.76-.29-1.27-.16-3.81-.25-7.61-.25-.32,0-.51.04-.57.12-.07.08-.09.41-.09.98l-.15,12.49c0,3.62.04,5.84.12,6.66.07.83.27,1.33.57,1.5.21.11,1.46.25,3.77.39v1.52c-2.34-.07-4.82-.11-7.45-.11-3.45,0-6.25.04-8.4.11h0Z"/>
      <path class="cls-9" d="m108.03,265.96l-5.11-9.56-5.06,9.56c1.47.05,3.08.08,4.86.08s3.62-.02,5.31-.08h0Z"/>
      <path class="cls-9" d="m262.71,256.4l-5.05,9.56c1.47.05,3.09.08,4.86.08s3.61-.02,5.3-.08l-5.11-9.56Z"/>
      <path class="cls-10" d="m54.43,78.29c-4.36,0-7.9,3.62-7.9,8.08s3.53,8.08,7.9,8.08,7.89-3.62,7.89-8.08-3.53-8.08-7.89-8.08h0Z"/>
      <path class="cls-10" d="m58.1,171.76c-4.36,0-7.89,3.62-7.89,8.08s3.53,8.08,7.89,8.08,7.89-3.62,7.89-8.08-3.54-8.08-7.89-8.08h0Z"/>
      <path class="cls-10" d="m54.43,78.29c-4.36,0-7.9,3.62-7.9,8.08s3.53,8.08,7.9,8.08,7.89-3.62,7.89-8.08-3.53-8.08-7.89-8.08h0Z"/>
      <path class="cls-10" d="m54.43,78.29c-4.36,0-7.9,3.62-7.9,8.08s3.53,8.08,7.9,8.08,7.89-3.62,7.89-8.08-3.53-8.08-7.89-8.08h0Z"/>
      <path class="cls-10" d="m57.91,255.31c-4.36,0-7.9,3.62-7.9,8.08s3.53,8.08,7.9,8.08,7.89-3.62,7.89-8.08-3.54-8.08-7.89-8.08h0Z"/>
      <path class="cls-10" d="m58.1,338.68c-4.36,0-7.9,3.62-7.9,8.08s3.53,8.08,7.9,8.08,7.89-3.62,7.89-8.08-3.54-8.08-7.89-8.08h0Z"/>
      <path class="cls-10" d="m92.62,426.45c-4.36,0-7.89,3.62-7.89,8.08s3.54,8.08,7.89,8.08,7.9-3.62,7.9-8.08-3.54-8.08-7.9-8.08h0Z"/>
      <path class="cls-10" d="m199.85,451.79c-4.36,0-7.89,3.62-7.89,8.08s3.54,8.08,7.89,8.08,7.9-3.62,7.9-8.08-3.54-8.08-7.9-8.08h0Z"/>
      <path class="cls-10" d="m307.83,426.27c-4.36,0-7.89,3.62-7.89,8.08s3.54,8.08,7.89,8.08,7.9-3.62,7.9-8.08-3.54-8.08-7.9-8.08h0Z"/>
      <path class="cls-10" d="m307.83,426.27c-4.36,0-7.89,3.62-7.89,8.08s3.54,8.08,7.89,8.08,7.9-3.62,7.9-8.08-3.54-8.08-7.9-8.08h0Z"/>
      <path class="cls-10" d="m342.35,338.9c-4.36,0-7.89,3.62-7.89,8.08s3.53,8.08,7.89,8.08,7.89-3.62,7.89-8.08-3.53-8.08-7.89-8.08h0Z"/>
      <path class="cls-10" d="m342.54,255.35c-4.36,0-7.89,3.62-7.89,8.08s3.54,8.08,7.89,8.08,7.89-3.62,7.89-8.08-3.53-8.08-7.89-8.08h0Z"/>
      <path class="cls-10" d="m342.54,171.62c-4.36,0-7.89,3.62-7.89,8.08s3.54,8.08,7.89,8.08,7.89-3.62,7.89-8.08-3.53-8.08-7.89-8.08h0Z"/>
      <path class="cls-10" d="m346.02,78.52c-4.36,0-7.89,3.62-7.89,8.08s3.54,8.08,7.89,8.08,7.9-3.62,7.9-8.08-3.53-8.08-7.9-8.08h0Z"/>
      <path class="cls-7" d="m123.96,74.87c-13.65-3.58-24.45-12.24-41.38-25.82l-3.18-2.54L13.75,112.96l33.03,32.33.78.77v235.39h0c0,24.83,11.68,42.68,27.35,54.32,15.79,11.73,35.61,17.21,51.68,17.21h0s34.52.01,34.52.01h0c3.52-.01,6.79.45,9.89,1.32,3.09.87,5.96,2.14,8.7,3.76l.15.09.18.14,19.98,16.49,22.42-17.37c2.21-1.71,4.64-2.78,7.26-3.41,2.53-.61,5.16-.81,7.91-.81h33.23c22.82,0,43.26-7.69,58.07-19.87,14.97-12.31,24.17-29.2,24.18-47.3l.09-239.45v-1.1l.77-.75,32.4-31.7-65.04-66.74c-7.16,6.09-14.19,11.93-21.27,16.88-7.78,5.44-15.55,9.77-23.52,12.08l-.08.02c-.69.17-1.39.35-2.09.52-.12,8.6-1.7,16.85-4.49,24.51,16.8-3.8,32.8-10.04,46.42-20.73l3.71-2.92,3.26,3.43,27.49,28.86,3.52,3.7-3.64,3.58-20.21,19.89-.23,248.47c-.01,12.91-6.73,24.25-17.31,32.39-10.5,8.09-24.91,13.03-40.2,13.07l-36.04.12c-5.51.02-10.87,1.25-15.95,3.27-6.1,2.43-11.8,6-16.89,9.97l-3.42,2.67-3.23-2.89c-5.8-5.2-11.93-8.39-17.93-10.28-6.05-1.9-12.02-2.49-17.4-2.49h-33.74v-.02h-.18c-11.4-.03-25.8-3.3-37.37-11.3-11.93-8.24-20.9-21.32-20.9-40.75h.02v-.19l.8-242.33-20.63-19.46-3.88-3.66,3.76-3.78,28.57-28.69,3.46-3.47,3.66,3.25c9.96,8.84,26.18,15.73,44.6,20.45-2.89-7.88-4.49-16.37-4.55-25.23-.48-.12-.96-.25-1.44-.37h0Zm214.16,11.73c0-4.46,3.54-8.08,7.89-8.08s7.9,3.62,7.9,8.08-3.53,8.08-7.9,8.08-7.89-3.62-7.89-8.08h0Zm-291.6-.23c0-4.46,3.53-8.08,7.9-8.08s7.89,3.62,7.89,8.08-3.53,8.08-7.89,8.08-7.9-3.62-7.9-8.08h0Zm38.2,348.16c0-4.46,3.54-8.08,7.89-8.08s7.9,3.62,7.9,8.08-3.54,8.08-7.9,8.08-7.89-3.62-7.89-8.08h0Zm107.24,25.34c0-4.46,3.54-8.08,7.89-8.08s7.9,3.62,7.9,8.08-3.54,8.08-7.9,8.08-7.89-3.62-7.89-8.08h0Zm107.97-25.53c0-4.46,3.54-8.08,7.89-8.08s7.9,3.62,7.9,8.08-3.54,8.08-7.9,8.08-7.89-3.62-7.89-8.08h0Zm34.71-254.65c0-4.46,3.54-8.08,7.89-8.08s7.89,3.62,7.89,8.08-3.53,8.08-7.89,8.08-7.89-3.62-7.89-8.08h0Zm0,83.73c0-4.46,3.54-8.08,7.89-8.08s7.89,3.62,7.89,8.08-3.53,8.08-7.89,8.08-7.89-3.62-7.89-8.08h0Zm-.18,83.55c0-4.46,3.53-8.08,7.89-8.08s7.89,3.62,7.89,8.08-3.53,8.08-7.89,8.08-7.89-3.62-7.89-8.08h0ZM57.91,255.31c4.36,0,7.89,3.62,7.89,8.08s-3.54,8.08-7.89,8.08-7.9-3.62-7.9-8.08,3.53-8.08,7.9-8.08h0Zm-7.72,91.45c0-4.46,3.53-8.08,7.9-8.08s7.89,3.62,7.89,8.08-3.54,8.08-7.89,8.08-7.9-3.62-7.9-8.08h0Zm0-166.91c0-4.46,3.53-8.08,7.89-8.08s7.89,3.62,7.89,8.08-3.54,8.08-7.89,8.08-7.89-3.62-7.89-8.08h0Z"/>
      <path class="cls-3" d="m313.14,229.34l-130.1-81.85c-13.8-3.2-26.14-10.25-35.82-19.97-1.86-1.87-3.63-3.84-5.29-5.9l-19.99-12.57c-15.6-4.46-29.57-10.55-39.66-18.15l-21.5,21.59,15.29,14.42,163.03,102.44h74.04Z"/>
      <path class="cls-9" d="m239.1,229.34L76.07,126.9l3.09,2.92,1.63,1.54v2.24s-.32,95.74-.32,95.74h158.62Z"/>
      <path class="cls-9" d="m121.94,109.04l19.99,12.57c-2.32-2.88-4.44-5.94-6.32-9.16-1.86-.4-3.71-.83-5.54-1.27-2.75-.67-5.46-1.38-8.13-2.15h0Z"/>
      <path class="cls-9" d="m252.53,127.52c-13.48,13.52-32.1,21.89-52.66,21.89-5.79,0-11.43-.66-16.84-1.92l130.1,81.85h6.81l.09-95.4v-2.18s1.55-1.52,1.55-1.52l18.11-17.82-20.79-21.83c-16.39,11.7-35.2,17.92-54.53,21.47-3.27,5.66-7.25,10.86-11.84,15.45h0Z"/>
    </g>
  </g>
</svg>