<?xml version="1.0" encoding="UTF-8"?>
<svg id="Layer_2" data-name="Layer 2" xmlns="http://www.w3.org/2000/svg" xmlns:xlink="http://www.w3.org/1999/xlink" viewBox="0 0 355.92 556.8">
  <defs>
    <style>
      .cls-1 {
        clip-path: url(#clippath);
      }

      .cls-2 {
        fill: none;
      }

      .cls-2, .cls-3, .cls-4, .cls-5, .cls-6, .cls-7, .cls-8, .cls-9 {
        stroke-width: 0px;
      }

      .cls-3 {
        fill: #132b83;
      }

      .cls-3, .cls-4, .cls-5, .cls-6, .cls-7, .cls-8, .cls-9 {
        fill-rule: evenodd;
      }

      .cls-4 {
        fill: #112a82;
      }

      .cls-5 {
        fill: #1b1918;
      }

      .cls-6 {
        fill: #e30017;
      }

      .cls-7 {
        fill: #e20016;
      }

      .cls-8 {
        fill: #fff;
      }
    </style>
    <clipPath id="clippath">
      <rect class="cls-2" width="355.92" height="556.8"/>
    </clipPath>
  </defs>
  <g id="Layer_1-2" data-name="Layer 1">
    <g>
      <path class="cls-8" d="m209.18,36.2c.07.01.13.02.2.04,1.02.23,2.23.57,3.27.58,1.69.01,3.5.71,4.1,2.45l.02.05v.05c.55,1.78-.51,3.35-1.88,4.36-.84.62-1.62,1.61-2.31,2.39-.05.05-.09.11-.14.16,2.9,4.66,1.18,12.08-.34,16.92l-.02.05c-.54,1.61-1.15,3.2-1.86,4.75-1.58,3.48-4.07,7.62-7.8,9.14.01.07.02.13.02.2.1,1.04.15,2.3.46,3.29.51,1.61.41,3.55-1.06,4.66l-.04.03-.05.04c-1.52,1.05-3.35.53-4.73-.45-.84-.61-2.03-1.04-2.98-1.46-.07-.03-.13-.06-.19-.09-3.53,4.2-11.13,4.85-16.2,4.9h-.05c-1.7-.02-3.41-.1-5.09-.29-3.89-.44-8.58-1.63-11.11-4.59-.05.03-.11.05-.17.08-.96.42-2.14.85-2.99,1.46-1.38.98-3.25,1.48-4.76.43l-.05-.03-.04-.04c-1.48-1.12-1.54-3.02-1.03-4.64.31-.99.36-2.25.46-3.29,0-.07.02-.14.02-.21-5.08-2.06-8.06-9.08-9.67-13.89l-.02-.05c-.51-1.62-.96-3.27-1.29-4.93-.78-3.83-1.1-8.66.93-11.99-.04-.04-.08-.09-.12-.13-.7-.78-1.47-1.77-2.31-2.39-1.36-1.01-2.41-2.63-1.88-4.39l.02-.05.02-.05c.61-1.75,2.4-2.4,4.09-2.41,1.04,0,2.25-.35,3.27-.58.07-.01.14-.03.21-.04.39-5.47,6.15-10.47,10.22-13.49l.04-.03c1.38-.98,2.81-1.92,4.29-2.75,3.41-1.93,7.9-3.72,11.7-2.82.03-.05.06-.11.09-.16.53-.9,1.23-1.95,1.56-2.93.54-1.61,1.76-3.11,3.6-3.15h.11c1.86.04,3.02,1.54,3.56,3.15.33.99,1.03,2.03,1.56,2.93.03.06.07.12.1.18,5.32-1.32,11.86,2.61,15.99,5.55l.04.03c1.36,1.01,2.69,2.08,3.94,3.23,2.82,2.59,5.99,6.22,6.28,10.25h0Z"/>
      <path class="cls-6" d="m177.63,57.12c-2.82,0-5.1-2.28-5.1-5.1,0-4.55,5.5-6.82,8.71-3.61,3.21,3.21.94,8.71-3.61,8.71h0Z"/>
      <path class="cls-6" d="m166.5,51.61c-.03-.91.88-1.94,1.21-2.8.33-.86.28-1.41.42-2.12.28-1,1.25-1.64,2.22-1.57.97.07,1.96.95,2.08,1.95.11,1-.7,1.92-1.04,2.83-.34.91-.15,1.84-.44,2.61-.29.78-1.5,1.45-2.54,1.25-1.05-.21-1.88-1.23-1.91-2.14h0Z"/>
      <path class="cls-6" d="m167.35,54.34c.23.23.17.44-.15.51-1.43.46-3.16.94-4.56.48-1.12-.37-1.8-1.52-2-2.44-.46-2.18-.07-4.38.77-6.72.73-2.03,1.72-4.11,3.7-5.38,1.2-.63,2.29-.53,3.27.22.99.75,1.88,1.61,2.4,2.58.13.23.06.41-.13.43-1.1.09-2.23.63-2.84,1.36-.65.79-.49,2.06-.84,3.08-.3.85-1.16,1.66-1.26,2.73-.11,1.06.18,2.34,1.64,3.16h0Z"/>
      <path class="cls-6" d="m173.81,62.48c-.88-.25-1.58-1.44-2.29-2.02-.71-.58-1.26-.7-1.89-1.05-.86-.57-1.17-1.7-.81-2.6.37-.9,1.51-1.58,2.5-1.37.99.2,1.61,1.25,2.37,1.86.76.61,1.7.71,2.35,1.23.65.52.92,1.87.4,2.8-.52.94-1.75,1.4-2.63,1.15h0Z"/>
      <path class="cls-6" d="m176.66,62.52c.29-.14.47-.02.44.3,0,1.5-.08,3.29-.96,4.48-.7.95-2.01,1.25-2.94,1.14-2.21-.23-4.18-1.29-6.15-2.8-1.71-1.32-3.38-2.91-3.97-5.18-.23-1.34.2-2.34,1.22-3.04,1.01-.71,2.11-1.29,3.19-1.49.25-.05.4.07.36.26-.25,1.07-.09,2.32.41,3.12.56.86,1.81,1.1,2.67,1.75.71.55,1.22,1.61,2.2,2.04.98.43,2.28.55,3.52-.59h0Z"/>
      <path class="cls-6" d="m186.41,58.9c-.51.76-1.85,1.05-2.63,1.55-.77.5-1.05.98-1.58,1.47-.81.64-1.98.59-2.72-.03-.74-.63-1.03-1.92-.53-2.8.5-.88,1.69-1.15,2.5-1.68.81-.53,1.2-1.39,1.89-1.85.7-.45,2.06-.29,2.79.49.73.78.8,2.1.28,2.85h0Z"/>
      <path class="cls-6" d="m187.32,56.19c-.05-.32.12-.46.42-.33,1.42.47,3.11,1.09,3.97,2.3.68.96.56,2.29.18,3.15-.91,2.03-2.52,3.58-4.57,4.98-1.78,1.21-3.81,2.32-6.15,2.18-1.34-.2-2.16-.92-2.52-2.1-.36-1.18-.57-2.41-.42-3.5.03-.26.19-.36.35-.27.94.57,2.18.8,3.1.57.99-.26,1.6-1.38,2.49-2,.74-.51,1.91-.66,2.62-1.46.71-.8,1.23-2,.53-3.53h0Z"/>
      <path class="cls-6" d="m186.89,45.8c.56.72.43,2.09.66,2.98.23.89.61,1.3.91,1.96.36.97-.05,2.07-.87,2.58-.82.51-2.14.39-2.82-.35-.68-.74-.57-1.96-.83-2.9-.26-.94-.96-1.57-1.18-2.37-.22-.8.35-2.05,1.33-2.5.97-.45,2.24-.11,2.8.62h0Z"/>
      <path class="cls-6" d="m184.6,44.1c-.31-.05-.39-.26-.18-.5.89-1.21,2-2.62,3.41-3.06,1.12-.36,2.35.17,3.05.8,1.65,1.49,2.62,3.5,3.32,5.88.61,2.07,1.02,4.34.17,6.52-.6,1.22-1.54,1.77-2.78,1.75-1.24-.03-2.46-.2-3.46-.67-.24-.11-.29-.29-.14-.42.84-.72,1.44-1.83,1.5-2.77.06-1.03-.82-1.95-1.13-2.99-.25-.86-.04-2.02-.58-2.95-.54-.92-1.52-1.79-3.19-1.59h0Z"/>
      <path class="cls-6" d="m174.59,41.3c.86-.31,2.12.24,3.04.29.92.05,1.43-.17,2.15-.25,1.04-.05,1.95.68,2.18,1.62.23.94-.29,2.16-1.21,2.57-.91.42-2.04-.06-3.02-.11-.97-.05-1.79.43-2.62.39-.83-.04-1.84-.97-1.97-2.04-.13-1.06.59-2.16,1.45-2.47h0Z"/>
      <path class="cls-6" d="m172.26,42.95c-.14.29-.37.3-.53.02-.88-1.22-1.87-2.71-1.86-4.19,0-1.18.89-2.19,1.7-2.66,1.93-1.11,4.15-1.41,6.62-1.34,2.16.06,4.45.37,6.26,1.85.97.95,1.21,2.01.8,3.18-.41,1.17-.95,2.28-1.71,3.08-.17.2-.36.18-.44,0-.43-1.02-1.29-1.93-2.16-2.28-.96-.38-2.11.17-3.2.15-.9-.02-1.94-.59-2.98-.36-1.04.23-2.17.89-2.5,2.54h0Z"/>
      <path class="cls-6" d="m177.63,72.77c.16,0,.66-.18.76-.66.15-.78.91-1.66.99-2.18.07-.48-.18-.84-.43-1.09-.22-.21-.61-.48-1.32-.82-.71.33-1.13.61-1.34.82-.25.24-.5.61-.43,1.09.08.53.84,1.4.99,2.18.09.48.61.66.78.66h0Z"/>
      <path class="cls-6" d="m177.65,76.65c1.39,0,2.75.22,4.19.45,1.18.19,2.37.61,3.6.36,2.39-.54,2.21-2.45,2.33-4.46.06-1.18-.4-3.07-1.17-3.55-.47-.3-.98-.08-1.46.14-1.36.51-2.75,1.03-4.16,1.19-.38.06-.64.22-.84.58-.72,1.26-1.34,3.13-2.46,3.12-1.12,0-1.84-1.87-2.56-3.12-.21-.36-.47-.52-.84-.58-1.41-.16-2.81-.69-4.16-1.19-.48-.22-.99-.44-1.46-.14-.77.48-1.23,2.38-1.17,3.55.12,2.02.94,4.03,2.33,4.46,1.23.25,2.3-.21,3.57-.44,1.43-.27,2.88-.36,4.27-.37h0Z"/>
      <path class="cls-6" d="m177.63,78.46c3.15.02,4.59.92,6.89.88,1.34-.03,3.06-.65,4.04-2.14.83-1.27.96-3.93.6-6.01-.07-.38-.19-.7-.07-1.05.1-.31.41-.11.56.11,1.74,2.46,3.31,5.31,3.3,7.95,0,6.07-8.88,7.25-15.33,7.31-6.45-.06-15.32-1.24-15.33-7.31,0-2.63,1.56-5.49,3.3-7.95.15-.22.46-.41.56-.11.12.36,0,.68-.07,1.05-.36,2.08-.24,4.74.6,6.01.98,1.5,2.7,2.12,4.04,2.14,2.3.04,3.74-.86,6.89-.88h0Z"/>
      <path class="cls-6" d="m197.37,58.43c.04-.16.03-.69-.39-.93-.7-.38-1.29-1.38-1.77-1.62-.43-.21-.86-.09-1.16.07-.27.14-.65.43-1.19,1,.1.78.23,1.26.36,1.53.15.32.43.67.9.75.53.09,1.59-.37,2.38-.27.48.06.81-.38.87-.54h0Z"/>
      <path class="cls-6" d="m201.07,59.62c.43-1.32,1.06-2.55,1.72-3.85.55-1.07,1.31-2.07,1.45-3.31.23-2.44-1.64-2.86-3.53-3.59-1.1-.42-3.04-.57-3.74.01-.43.36-.38.91-.32,1.43.06,1.45.13,2.94-.15,4.33-.06.38,0,.67.29.98.97,1.07,2.57,2.24,2.22,3.3-.34,1.06-2.35,1.18-3.77,1.47-.41.09-.64.29-.81.62-.59,1.29-1.52,2.46-2.42,3.59-.36.38-.72.8-.59,1.34.22.88,1.88,1.9,3.02,2.21,1.95.51,4.12.35,4.97-.84.62-1.09.52-2.25.68-3.53.19-1.44.55-2.85.97-4.17h0Z"/>
      <path class="cls-6" d="m202.78,60.19c.99-2.99,2.29-4.08,2.97-6.28.39-1.28.33-3.11-.79-4.51-.95-1.19-3.44-2.13-5.53-2.43-.38-.05-.72-.04-1.02-.26-.26-.19.01-.42.27-.5,2.87-.9,6.08-1.51,8.58-.69,5.77,1.88,4.15,10.68,2.22,16.84-2.05,6.11-5.91,14.19-11.69,12.32-2.5-.81-4.74-3.18-6.53-5.6-.16-.22-.25-.57.07-.57.38,0,.65.22.98.39,1.87.99,4.43,1.69,5.9,1.29,1.72-.47,2.85-1.92,3.29-3.18.75-2.17.34-3.83,1.29-6.82h0Z"/>
      <path class="cls-6" d="m189.84,35.23c-.14-.09-.65-.24-1,.09-.58.54-1.71.8-2.09,1.18-.34.34-.36.79-.29,1.13.05.29.2.75.58,1.44.77.15,1.27.17,1.57.13.35-.05.77-.2.99-.62.24-.48.14-1.63.48-2.35.21-.44-.11-.89-.24-1h0Z"/>
      <path class="cls-6" d="m192.1,32.08c-1.12-.82-2.1-1.79-3.13-2.83-.84-.85-1.56-1.88-2.7-2.41-2.25-.96-3.23.68-4.51,2.24-.74.92-1.48,2.72-1.14,3.56.21.51.75.64,1.27.74,1.39.39,2.84.78,4.07,1.48.34.18.64.2,1.02.03,1.32-.59,2.93-1.75,3.82-1.08.91.65.39,2.6.23,4.03-.04.42.07.7.34.97,1.04.96,1.87,2.21,2.67,3.42.25.46.54.93,1.1.97.9.06,2.39-1.2,3.03-2.18,1.09-1.7,1.61-3.82.74-4.98-.85-.92-1.99-1.19-3.15-1.74-1.31-.63-2.54-1.4-3.67-2.21h0Z"/>
      <path class="cls-6" d="m193.18,30.63c-2.54-1.86-3.17-3.45-5.06-4.76-1.1-.77-2.86-1.27-4.53-.64-1.42.54-3.09,2.61-4.02,4.51-.17.34-.26.68-.56.9-.26.19-.4-.15-.4-.41.03-3.01.45-6.25,2-8.37,3.58-4.91,11.45-.65,16.7,3.09,5.18,3.84,11.66,10.01,8.1,14.93-1.54,2.13-4.49,3.52-7.34,4.48-.25.09-.61.06-.51-.25.11-.36.4-.55.68-.81,1.52-1.47,2.98-3.69,3.05-5.21.09-1.78-.94-3.3-2.01-4.11-1.84-1.39-3.54-1.5-6.09-3.34h0Z"/>
      <path class="cls-6" d="m165.44,35.23c-.13.11-.43.54-.22.98.34.72.23,1.88.48,2.35.22.43.64.58.98.62.3.04.78.03,1.55-.11.38-.69.55-1.16.61-1.45.06-.34.05-.79-.29-1.13-.38-.38-1.5-.64-2.09-1.18-.36-.34-.88-.17-1.02-.08h0Z"/>
      <path class="cls-6" d="m163.14,32.1c-1.12.81-2.36,1.45-3.66,2.1-1.07.54-2.27.91-3.12,1.83-1.61,1.84-.35,3.28.74,4.98.64.98,2.13,2.25,3.03,2.18.55-.04.84-.51,1.1-.97.8-1.21,1.62-2.46,2.67-3.42.27-.27.39-.55.34-.97-.16-1.43-.75-3.32.15-3.97.9-.66,2.59.43,3.91,1.02.38.17.68.15,1.02-.03,1.23-.7,2.68-1.09,4.07-1.48.52-.1,1.06-.23,1.27-.74.34-.84-.41-2.65-1.14-3.56-1.28-1.56-3.13-2.7-4.51-2.24-1.14.52-1.74,1.52-2.63,2.46-1,1.06-2.12,1.98-3.24,2.8h0Z"/>
      <path class="cls-6" d="m162.09,30.63c-2.55,1.84-4.25,1.95-6.09,3.34-1.07.81-2.1,2.32-2.01,4.11.07,1.52,1.53,3.74,3.05,5.21.27.26.56.45.68.81.1.3-.26.33-.52.24-2.86-.96-5.81-2.35-7.34-4.48-3.57-4.92,2.92-11.09,8.1-14.92,5.25-3.74,13.12-8,16.7-3.09,1.55,2.12,1.96,5.36,2,8.37,0,.27-.13.6-.39.41-.3-.22-.39-.56-.56-.9-.93-1.9-2.59-3.97-4.01-4.51-1.67-.63-3.43-.13-4.53.64-1.89,1.31-2.52,2.9-5.06,4.76h0Z"/>
      <path class="cls-6" d="m157.89,58.43c.06.16.38.58.87.51.79-.1,1.85.36,2.38.27.47-.08.75-.43.9-.75.13-.27.27-.73.37-1.5-.54-.57-.93-.88-1.19-1.03-.31-.17-.74-.29-1.17-.07-.48.24-1.07,1.23-1.77,1.62-.43.24-.43.79-.39.95h0Z"/>
      <path class="cls-6" d="m154.21,59.65c.42,1.32.64,2.69.87,4.13.18,1.18.16,2.44.77,3.53,1.25,2.1,3.01,1.35,4.96.84,1.14-.3,2.8-1.33,3.02-2.21.14-.54-.23-.96-.59-1.34-.9-1.13-1.83-2.3-2.42-3.59-.17-.34-.4-.54-.81-.62-1.41-.29-3.39-.31-3.73-1.37-.35-1.06,1.21-2.34,2.18-3.4.28-.31.35-.61.29-.98-.28-1.39-.21-2.88-.15-4.33.06-.52.11-1.08-.32-1.43-.7-.58-2.64-.43-3.74-.01-1.88.73-3.54,2.14-3.53,3.59.14,1.25.91,2.13,1.52,3.26.7,1.28,1.23,2.63,1.67,3.95h0Z"/>
      <path class="cls-6" d="m152.49,60.19c.96,3,.54,4.65,1.29,6.82.44,1.26,1.56,2.71,3.29,3.18,1.46.4,4.03-.3,5.9-1.29.33-.18.6-.39.98-.39.32,0,.23.35.07.57-1.8,2.42-4.03,4.79-6.54,5.6-5.78,1.87-9.64-6.2-11.69-12.32-1.94-6.15-3.56-14.95,2.22-16.84,2.5-.82,5.7-.21,8.58.69.26.08.53.31.28.5-.3.22-.65.21-1.03.26-2.09.3-4.58,1.24-5.53,2.43-1.12,1.39-1.18,3.23-.79,4.51.67,2.2,1.98,3.29,2.97,6.28h0Z"/>
      <path class="cls-6" d="m177.63,21.69c.66,0,1.96-1.38,2.95-2.06.32-.21.15-.78-.14-1.27-.66-1.12-1.4-2.25-1.8-3.46-.18-.52-.54-1.25-1-1.26-.45.01-.86.74-1.03,1.26-.4,1.21-1.14,2.34-1.8,3.46-.29.49-.46,1.05-.14,1.27.98.68,2.29,2.06,2.96,2.06h0Z"/>
      <path class="cls-6" d="m148.78,42.65c.2-.63-.7-2.29-1.05-3.44-.1-.37-.69-.38-1.25-.26-1.27.28-2.57.63-3.85.64-.55,0-1.35.13-1.5.55-.13.44.43,1.04.87,1.37,1.02.76,1.87,1.81,2.73,2.78.38.43.86.77,1.16.53.96-.73,2.67-1.55,2.88-2.17h0Z"/>
      <path class="cls-6" d="m159.8,76.56c-.53-.39-2.39-.04-3.59-.06-.38-.01-.58.54-.63,1.11-.12,1.29-.19,2.64-.57,3.86-.17.52-.3,1.32.06,1.6.38.26,1.13-.09,1.58-.41,1.03-.74,2.3-1.22,3.49-1.74.52-.22.99-.58.86-.94-.39-1.13-.64-3.02-1.18-3.41h0Z"/>
      <path class="cls-6" d="m195.46,76.56c-.54.39-.78,2.27-1.17,3.4-.14.36.34.71.85.94,1.19.52,2.46,1,3.49,1.74.44.32,1.17.69,1.54.43.36-.27.26-1.1.09-1.62-.38-1.21-.45-2.56-.58-3.86-.05-.56-.25-1.12-.63-1.11-1.2.02-3.07-.32-3.61.07h0Z"/>
      <path class="cls-6" d="m206.48,42.64c.21.63,1.92,1.44,2.87,2.17.3.23.79-.11,1.16-.53.86-.97,1.71-2.03,2.73-2.78.44-.32,1.02-.9.89-1.33-.15-.43-.96-.59-1.52-.59-1.27-.01-2.58-.36-3.84-.64-.55-.12-1.15-.11-1.25.26-.34,1.15-1.25,2.82-1.05,3.45h0Z"/>
      <path class="cls-9" d="m253.5,257.83c-2.81.01-6.46-.19-10-1.12-3.55-.92-7-2.57-9.44-5.43-.33-.39-.51-1.04-.43-1.57l3-17.53,3.88-22.64c.15-.89.3-1.74.46-2.59.17-.85.36-1.71.59-2.6-3.13,0,2.84-7.75,4.83-9.5,1.71-1.5,4.55-3.1,6.29-5.88.22-.35.57-.99.87-1.11.26.09.68.82.87,1.11,1.47,2.3,3.67,4.06,6.29,5.88,2.6,1.8,7.54,9.5,4.75,9.5.25.87.45,1.69.63,2.5.29,1.27.29,1.48.5,2.7l6.86,40.16c.09.54-.1,1.19-.43,1.57-2.43,2.86-5.91,4.51-9.48,5.43-3.57.93-7.24,1.13-10.05,1.12h0Z"/>
      <path class="cls-8" d="m249.75,196.94l29.84-29.62,5.56,5.65-29.84,29.62-5.56-5.65Z"/>
      <path class="cls-5" d="m251.1,196.95l4.22,4.29,28.48-28.27-4.22-4.28-28.48,28.27Z"/>
      <path class="cls-5" d="m255.32,201.23l29.55-29.45,1.36,1.38-29.55,29.45-1.36-1.38Z"/>
      <path class="cls-8" d="m246.42,207.91l-29.62-29.83,5.64-5.56,29.62,29.83-5.64,5.56Z"/>
      <path class="cls-5" d="m246.43,206.55l4.28-4.22-28.27-28.48-4.28,4.22,28.27,28.48Z"/>
      <path class="cls-5" d="m250.71,202.34l-29.45-29.55,1.38-1.36,29.45,29.55-1.38,1.36Z"/>
      <path class="cls-8" d="m257.39,211.23l-29.84,29.61-5.56-5.64,29.84-29.62,5.56,5.65Z"/>
      <path class="cls-5" d="m256.04,211.23l-4.22-4.29-28.48,28.27,4.22,4.28,28.48-28.26Z"/>
      <path class="cls-5" d="m251.82,206.94l-29.55,29.45-1.36-1.38,29.55-29.45,1.36,1.38Z"/>
      <path class="cls-8" d="m260.71,200.27l29.62,29.83-5.65,5.56-29.61-29.83,5.65-5.56Z"/>
      <path class="cls-5" d="m260.71,201.61l-4.28,4.22,28.27,28.47,4.29-4.22-28.27-28.48Z"/>
      <path class="cls-5" d="m256.43,205.84l29.45,29.55-1.38,1.36-29.45-29.55,1.38-1.36Z"/>
      <path class="cls-8" d="m253.57,202.53c-.86,0-1.56.7-1.56,1.56s.7,1.56,1.56,1.56,1.56-.7,1.56-1.56-.7-1.56-1.56-1.56h0Z"/>
      <path class="cls-9" d="m260.71,201.61l-4.28,4.22,11.51,11.55,16.81,16.88,4.23-4.17-22.83-23-5.44-5.48Z"/>
      <path class="cls-9" d="m256.43,205.83l-.68.67-.7.69,13.46,13.51,15.99,16.04,1.38-1.36-1.12-1.12-16.81-16.88-11.51-11.55Z"/>
      <path class="cls-9" d="m256.04,211.23l-4.22-4.29-1.93,1.93-11.17,11.13-15.32,15.27,4.17,4.23,9.42-9.35,12.91-12.81,6.15-6.1Z"/>
      <path class="cls-9" d="m251.82,206.94l-.67-.68-.69-.7-.57.57-10.61,10.57-18.38,18.31,1.36,1.38.45-.45.68-.67,15.32-15.27,11.17-11.13,1.93-1.93Z"/>
      <path class="cls-9" d="m246.43,206.55l3.46-3.41.82-.81-.82-.82h0s-5.03-5.05-5.03-5.05l-22.47-22.55-4.23,4.16,23.2,23.38,5.07,5.1Z"/>
      <path class="cls-9" d="m222.39,173.91l22.47,22.55,4.99,5h.01s.02.04.02.04h0s.82.83.82.83l.68-.67.7-.69-2.21-2.21-3.71-3.72-23.53-23.62-1.38,1.36,1.12,1.12Z"/>
      <path class="cls-9" d="m279.57,168.68l-23.03,22.86-5.44,5.41,4.22,4.29,5.95-5.93,22.47-22.39-4.16-4.23Z"/>
      <path class="cls-9" d="m283.74,172.91l-22.47,22.39-5.95,5.93.67.68.69.7,5.93-5.91,23.62-23.53-1.36-1.38-.45.45-.68.68Z"/>
      <path class="cls-9" d="m75.73,408.26c22.5.47,45,.94,67.5,1.41-.27,2.62-2.41,6.99-3.83,6.96-.46-.02-.87-.04-1.32-.06-.35-.44-.7-.89-1.06-1.34-.49.43-.98.87-1.48,1.3-1.35,0-2.69,0-4.04,0-.35-.45-.7-.89-1.05-1.34-.49.43-.98.87-1.48,1.3-1.33,0-2.65,0-3.98,0-.35-.44-.7-.89-1.05-1.34-.49.43-.98.87-1.48,1.3-1.31,0-2.61,0-3.91,0-.35-.45-.7-.89-1.05-1.33-.49.43-1.03.89-1.52,1.33-1.29,0-2.53-.03-3.81-.02-.35-.44-.7-.89-1.05-1.34-.49.43-.98.87-1.48,1.3-1.27,0-2.53,0-3.8,0-.35-.45-.7-.89-1.06-1.34-.49.43-.98.87-1.48,1.3-1.25,0-2.49,0-3.74,0-.35-.45-.7-.89-1.05-1.34-.49.43-.98.87-1.48,1.3-1.23,0-2.45,0-3.68,0-.35-.44-.7-.89-1.05-1.33-.49.43-.98.87-1.48,1.3-.82-.01-1.64-.03-2.46-.05-2.5-2.46-4.73-4.92-6.71-7.59-1.98-.14-3.95-.28-5.92-.42h0Z"/>
      <path class="cls-9" d="m103.5,332.89c-6.84,23.9-12.71,47.99-14.85,72.73-.07.75.26,1.33.9,1.41,7.8.55,16,.3,23.4-.22.29-.02.41-.39.34-.62-6.34-21.4-18.59-27.89-9.79-73.29h0Z"/>
      <path class="cls-9" d="m104.63,329.07c-.02.75-.5.8-1.02.84v.11c.38,0,.98.17,1,.37-.59,23.95-.25,48.47,1.52,72.31,8.04.56,15.2.4,23.19.18-14.75-29.04-23.18-65.45-23.76-72.5,0-.2.71-.38.91-.4v-.1c-.44-.06-.92-.08-.94-.81h-.9Z"/>
      <path class="cls-9" d="m249.7,328.63c.16.09.15,3.34.15,5,.84,2.46,1.57,4.91,2.4,7.36v20.09c1.86.02,3.95.02,5.81.04.04,3.34.06,6.77.1,10.11,1.62,2.67,3.24,5.34,4.86,8.01.06.71.11,1.42.17,2.14,3.6,7.37,7.2,14.74,10.8,22.11-.02.41-.04.82-.05,1.24-.94,2.04-1.88,4.09-2.81,6.13-.24-.13-.49-.26-.73-.39-4.45-6.15-8.75-12.4-13.2-18.55-.16-.22-.68-.67-1.14-.18-.23.25-.16,2.33-.11,3.43,0,.53.23.89.64,1.35,4.03,5.48,8.18,11.52,12.21,16.99l.11,5.82c-4.55-1.54-9.42-2.94-13.98-4.47-1.16.04-2.52.08-3.68.12-.19.67-.57,1.1-1.25,1.26,0,3.46-.01,6.87-.02,10.34-.11.07-.21.09-.32.16-.11-.07-.22-.09-.33-.16,0-3.46-.02-6.87-.02-10.34-.6-.13-1.11-.6-1.25-1.27-1.16-.04-2.51-.07-3.67-.1-4.55,1.54-9.42,2.93-13.98,4.47l.11-5.82c4.03-5.47,8.17-11.51,12.2-16.99.42-.46.65-.82.65-1.35.05-1.1.11-3.19-.11-3.43-.47-.49-.99-.04-1.15.18-4.45,6.15-8.75,12.4-13.2,18.55-.24.13-.49.26-.73.39-.94-2.04-1.88-4.09-2.81-6.13-.02-.41-.04-.82-.06-1.24,3.6-7.37,7.2-14.74,10.8-22.11.06-.72.11-1.43.17-2.14,1.62-2.67,3.25-5.34,4.87-8.01.04-3.34.06-6.77.1-10.11,1.85-.02,3.95-.02,5.81-.04v-20.09c.83-2.46,1.57-4.91,2.4-7.36,0-1.66.09-4.91.25-5h0Z"/>
      <path class="cls-9" d="m69.6,218.23h5.79v12.26h-5.79v-12.26Zm12.23,12.26v-12.26h5.79v12.26h-5.79Zm12.22,0v-12.26h5.79v12.26h-5.79Zm24.45,6.02h5.79v12.26h-5.79v-12.26Zm-12.22,0h5.79v12.26h-5.79v-12.26Zm-12.23,0h5.79v12.26h-5.79v-12.26Zm-12.22,0h5.79v12.26h-5.79v-12.26Zm-12.23,0h5.79v12.26h-5.79v-12.26Zm48.9-18.28h5.79v12.26h-5.79v-12.26Zm-12.22,0h5.79v12.26h-5.79v-12.26Zm20-5.57h-62.77v44.77h69.75v-92.93h-6.98v48.15Z"/>
      <path class="cls-3" d="m177.63,480.41c-52.82,0-112.38-7.31-147.43-30.6l-.09,71.32c43.24,21.59,94.41,30.88,147.5,30.88s104.18-9.29,147.42-30.88l-.09-71.32c-35.05,23.29-94.5,30.6-147.32,30.6h0Z"/>
      <path class="cls-4" d="m310.17,428.13c-.12,1.75,12.09,7.28,16.93,11.88.86.81,2.03,1.77,2.02,2.66.19,20.06.04,40.11.23,60.17,6.84-1,14.06-2.23,21.09-3.94l-10.52-39.71,10.18-38.2c-12.36.93-39.78,5.16-39.94,7.13h0Z"/>
      <path class="cls-4" d="m28.09,440.02c4.84-4.6,16.89-9.58,16.71-11.81-.4-1.74-27.36-6.27-39.71-7.2l10.18,38.2-10.52,39.71c7.03,1.71,14.26,2.93,21.09,3.94.2-20.06.04-40.11.23-60.17,0-.89,1.16-1.85,2.02-2.66h0Z"/>
      <path class="cls-4" d="m5.71,194.11c12.72-1.2,32.44-3.25,39.23-7.45-5.8-4.83-13.92-8.25-18.69-13.47l-.07-60.53c-7.57.45-14.76,2.14-21.04,4.05l10.52,38.93-9.76,37.71-.2.76Z"/>
      <path class="cls-4" d="m329.31,112.66l-.07,60.53c-4.77,5.22-12.88,8.64-18.69,13.47,6.79,4.2,26.52,6.25,39.23,7.45l-.2-.76-9.76-37.71,10.52-38.93c-6.28-1.91-13.46-3.6-21.04-4.05h0Z"/>
      <path class="cls-9" d="m29.67,502.88c.18-19.29.06-38.59.21-57.89l-3.49-2.32-.08,64.11,3.32.49.04-4.39Z"/>
      <path class="cls-9" d="m30.73,442.79c-.22.21-.56.5-.84.78v1.43s2.43,1.63,2.43,1.63c5,3.32,10.45,6.27,16.23,8.9l.06-26.86c-.23,2.62-2.72,4.37-4.78,5.69-2.25,1.45-4.61,2.74-6.9,4.11-2.02,1.21-4.5,2.69-6.2,4.31h0Z"/>
      <path class="cls-9" d="m328.77,442.68l-3.46,2.3c.15,19.3.02,38.61.21,57.91l.04,4.39,3.28-.48-.08-64.11Zm21.67,56.23c-7.03,1.71-14.26,2.93-21.09,3.94-.19-20.06-.04-40.11-.23-60.17,0-.89-1.16-1.85-2.02-2.66-4.84-4.6-17.06-10.13-16.93-11.88.16-1.97,27.58-6.2,39.94-7.13l-10.18,38.2,10.52,39.71Zm-21.67-56.23l.08,64.11,1.06-.16c7.19-1.05,14.38-2.29,21.44-4l3.8-.92-11.26-42.51,11.3-42.41-5.37.4c-5.83.44-11.73,1.21-17.51,2.06-5.27.77-10.6,1.62-15.81,2.74-1.84.4-3.74.83-5.53,1.41-2.16.71-4.42,1.82-4.62,4.44v.67c.2,2.62,2.82,4.29,4.85,5.59,2.27,1.45,4.61,2.78,6.91,4.19,2.07,1.28,4.59,2.83,6.36,4.5.22.21.57.5.84.78,0,.47,0,.94.01,1.41l3.46-2.3Z"/>
      <path class="cls-9" d="m325.52,502.88c-.18-19.3-.05-38.61-.21-57.91l-2.48,1.65c-5.07,3.38-10.62,6.37-16.5,9.03-27.71,12.53-62.82,17.58-91.01,19.62-12.54.91-25.12,1.32-37.7,1.32s-25.39-.41-38.05-1.34c-28.2-2.05-63.35-7.14-91.04-19.72-5.78-2.63-11.23-5.58-16.23-8.9l-2.45-1.63c-.15,19.3-.02,38.59-.21,57.89l-.04,4.39-3.32-.49-.02,16.71,2.12,1.06c45.77,22.85,98.43,31.28,149.21,31.28s103.36-8.43,149.13-31.28l2.12-1.06-.02-16.71-3.28.48-.04-4.39Zm-147.89-22.47c52.82,0,112.27-7.31,147.32-30.6l.09,71.32c-43.23,21.59-94.32,30.88-147.42,30.88s-104.27-9.29-147.5-30.88l.09-71.32c35.05,23.29,94.61,30.6,147.43,30.6h0Zm132.53-52.28c.16-1.97,27.58-6.2,39.94-7.13l-10.18,38.2,10.52,39.71c-7.03,1.71-14.26,2.93-21.09,3.94-.19-20.06-.04-40.11-.23-60.17,0-.89-1.16-1.85-2.02-2.66-4.84-4.6-17.06-10.13-16.93-11.88h0Zm1.04,5.96c2.27,1.45,4.61,2.78,6.91,4.19,2.07,1.28,4.59,2.83,6.36,4.5.22.21.57.5.84.78,0,.47,0,.94.01,1.41l3.46-2.3.08,64.11,1.06-.16c7.19-1.05,14.38-2.29,21.44-4l3.8-.92-11.26-42.51,11.3-42.41-5.37.4c-5.83.44-11.73,1.21-17.51,2.06-5.27.77-10.6,1.62-15.81,2.74-1.84.4-3.74.83-5.53,1.41-2.16.71-4.42,1.82-4.62,4.44v.67c.2,2.62,2.82,4.29,4.85,5.59h0Zm-4.85-5.59v27.14c5.86-2.66,11.41-5.65,16.48-9.03l2.48-1.65c0-.47,0-.94-.01-1.41-.27-.28-.62-.57-.84-.78-1.77-1.68-4.28-3.23-6.36-4.5-2.29-1.41-4.64-2.74-6.91-4.19-2.03-1.3-4.65-2.96-4.85-5.59h0ZM15.27,459.2l-10.18-38.2c12.35.93,39.31,5.46,39.71,7.2.18,2.23-11.87,7.21-16.71,11.81-.86.81-2.03,1.77-2.02,2.66-.19,20.06-.04,40.11-.23,60.17-6.83-1-14.06-2.23-21.09-3.94l10.52-39.71Zm11.04,47.59l.08-64.11,3.49,2.32c0-.48,0-.95.01-1.43.28-.28.62-.57.84-.78,1.71-1.62,4.18-3.1,6.2-4.31,2.29-1.37,4.66-2.66,6.9-4.11,2.06-1.33,4.55-3.07,4.78-5.69v-.77s-.02-.28-.02-.28l-.06-.27c-.53-2.31-2.64-3.18-4.64-3.82-1.78-.56-3.65-.99-5.47-1.38-5.17-1.12-10.44-2.02-15.66-2.82-5.72-.88-11.6-1.7-17.38-2.14l-5.26-.4v.4l11.2,42L.11,501.47v.25l3.73.91c7.07,1.72,14.25,2.95,21.44,4l1.02.15Zm17.52-72.42c-2.25,1.45-4.61,2.74-6.9,4.11-2.02,1.21-4.5,2.69-6.2,4.31-.22.21-.56.5-.84.78v1.43s2.43,1.63,2.43,1.63c5,3.32,10.45,6.27,16.23,8.9l.06-26.86c-.23,2.62-2.72,4.37-4.78,5.69h0Zm-13.96,10.63l-3.49-2.32-.08,64.11,3.32.49.04-4.39c.18-19.29.06-38.59.21-57.89h0Z"/>
      <path class="cls-9" d="m44.95,186.66c-6.79,4.2-26.51,6.25-39.23,7.45l.2-.76,9.76-37.71-10.52-38.93c6.28-1.91,13.46-3.6,21.04-4.05l.07,60.53c4.77,5.22,12.88,8.64,18.69,13.47h0Zm2.45-2.95c-2.48-2.06-5.22-3.8-7.95-5.51-3.05-1.9-6.66-4.04-9.36-6.58v-.97l-3.65,1.45.02-5.66.23-57.64-.72.04c-7.46.45-14.79,2.04-21.93,4.21l-3.55,1.08.97,3.58,10.25,37.95-9.51,36.73-.19.76-1.37,5.29,5.43-.52c5.23-.5,10.46-1.03,15.67-1.71,6.98-.91,19.26-2.62,25.22-6.3l1.95-1.21v-3.73l-1.52-1.27Z"/>
      <path class="cls-4" d="m114.76,129.59l3.96-14.11,4.54,13.77-8.5.34Z"/>
      <path class="cls-7" d="m146.38,159.54l-.06,102.73-93.51-.08.05,63.07,93.42-.05-.09,133.56c10.66,4.28,21.32,7.81,31.44,10.55,10.19-2.76,20.92-6.32,31.66-10.64l-.08-133.5,93.16-.05.05-62.72-93.25-.08-.17-102.8c-20.82-.35-41.69-.35-62.62.02h0Z"/>
      <g class="cls-1">
        <path class="cls-3" d="m146.1,36.21c.39-5.47,6.15-10.47,10.22-13.49l.04-.03c1.38-.98,2.81-1.92,4.29-2.75,3.41-1.93,7.9-3.72,11.7-2.82l.09-.16c.53-.9,1.23-1.95,1.56-2.93.54-1.61,1.76-3.11,3.6-3.15h.11c1.86.04,3.02,1.54,3.56,3.15.33.99,1.03,2.03,1.56,2.93l.1.18c5.32-1.32,11.86,2.61,15.99,5.55l.04.03c1.36,1.01,2.69,2.08,3.94,3.23,2.82,2.59,5.99,6.22,6.28,10.25l.2.04c1.02.23,2.23.57,3.27.58,1.69.01,3.5.71,4.1,2.45l.02.05v.05c.55,1.78-.51,3.35-1.88,4.36-.84.62-1.62,1.61-2.31,2.39l-.14.16c2.9,4.66,1.18,12.08-.34,16.92l-.02.05c-.54,1.61-1.15,3.2-1.86,4.75-1.58,3.48-4.07,7.62-7.8,9.14l.02.2c.1,1.04.15,2.3.46,3.29.51,1.61.41,3.55-1.06,4.66l-.04.03-.05.04c-1.52,1.05-3.35.53-4.73-.45-.84-.61-2.03-1.04-2.98-1.46l-.19-.09c-3.53,4.2-11.13,4.85-16.2,4.9h-.05c-1.7-.02-3.41-.1-5.09-.29-3.89-.44-8.58-1.63-11.11-4.59l-.17.08c-.96.42-2.14.85-2.99,1.46-1.38.98-3.25,1.48-4.76.43l-.05-.03-.04-.04c-1.48-1.12-1.54-3.02-1.03-4.64.31-.99.36-2.25.46-3.29l.02-.21c-5.08-2.06-8.06-9.08-9.67-13.89l-.02-.05c-.51-1.62-.96-3.27-1.29-4.93-.78-3.83-1.1-8.66.93-11.99l-.12-.13c-.7-.78-1.47-1.77-2.31-2.39-1.36-1.01-2.41-2.63-1.88-4.39l.02-.05.02-.05c.61-1.75,2.4-2.4,4.09-2.41,1.04,0,2.25-.35,3.27-.58l.21-.04Zm-.73,106.23c-.1-3.38,2.28-5.91,5.4-6,3.23-.09,5.64,2.16,5.75,5.7.1,3.49-2.07,5.91-5.4,6-3.34.09-5.65-2.32-5.75-5.7h0Zm-115.09,24c21.8-8.67,85.46-11.1,147.35-11h0c61.89-.1,125.56,2.33,147.36,11l-.28-71.66c-36.82-6.64-74.35-9.24-111.76-10.18,6-8.07,12.97-15.72,13.04-32.7.07-16.98-13.88-48.49-48.46-48.07-34.58.42-48.15,31.34-48.15,48.15s7.02,24.41,12.73,32.62c-37.34.95-74.8,3.54-111.56,10.18l-.28,71.66Zm81.09-67.7l15.62-.71,17.26,49.09-15.4,1.02-2.21-8.21-15.31.73-2.71,8.63-14.39,1.11,17.13-51.65Zm97.84,24.48c.98-17.7,10.84-26.1,23.27-25.41,4.88.27,10.63.96,11.97,1.81l-1.08,12.58c-1.76-.68-4.59-1.41-7.66-1.57-6.94-.39-11.34,3.85-11.25,13.23.06,5.75,2.02,12,9.83,12.43,2.5.14,7.38-.22,9.1-.76l1.65,12.38c-1.73.68-6.76,1.29-11.51,1.13-17-.57-25.08-12.15-24.32-25.82h0Zm39.87,21.86c-.1-3.38,2.37-5.91,5.59-6,3.34-.09,5.84,2.15,5.95,5.7.11,3.49-2.14,5.91-5.59,6-3.45.09-5.85-2.31-5.95-5.7h0Zm-87.03-48.26l28.52.12-.06,11.8-14.77-.03v8.04s13.77.03,13.77.03l.15,11.61-13.77-.03-.13,18.8-13.76-.1.04-50.24Zm30.24,45.53c-.11-3.38,2.37-5.92,5.59-6,3.34-.09,5.84,2.16,5.95,5.7.11,3.49-2.14,5.91-5.59,6s-5.85-2.32-5.95-5.69h0Z"/>
        <path class="cls-9" d="m52.86,325.27l-.05-63.07-.08-96.84c35.78-4.6,77.08-5.91,116.12-6.07h.08c.84,0,1.68,0,2.53-.01h-.03c-27.39.05-54.96.51-82.27,2.23-11.6.73-23.31,1.69-34.82,3.34-1.82.26-3.63.54-5.45.85l.02,19.27,2.57,2.14-2.57,1.59.15,176.63c.02,20.05,11.6,40.44,25.74,54.09,26.5,25.59,66.56,44.05,101.83,53.59l1,.27,1-.27c35.26-9.54,75.29-28,101.79-53.59,14.14-13.65,25.72-34.03,25.73-54.09l.15-176.8-2.3-1.42,2.3-1.91.02-19.51c-1.79-.3-3.59-.58-5.39-.84-11.51-1.66-23.23-2.61-34.83-3.34-26.16-1.65-52.56-2.14-78.82-2.23,4.05.02,8.09.05,12.13.1h.1c3.15.04,6.31.08,9.48.13,32.04.55,64.56,2.12,93.5,5.84l-.08,97.05-.05,62.72-.03,40.2c-.04,19.76-11.98,39.19-24.57,51.34-18.39,17.75-43.45,31.95-68.48,42.01-10.73,4.32-21.47,7.88-31.66,10.64-10.12-2.74-20.77-6.27-31.44-10.55-25.11-10.07-50.29-24.3-68.73-42.11-12.59-12.16-24.53-31.58-24.57-51.34l-.04-40.06ZM325.48,112.65l-.07,58.08,3.43,1.37-.02-5.66-.23-57.65-3.11-.18v4.05Zm-17.38,71.06c2.48-2.06,5.22-3.8,7.95-5.51,3.04-1.9,6.66-4.04,9.36-6.58v-.89l-1.83-.73c-3.03-1.21-6.31-2.07-9.48-2.79-2.57-.58-5.17-1.08-7.77-1.52l-.02,19.51,1.79-1.49Zm-259.19,1.27l-.02-19.27c-2.59.44-5.16.93-7.72,1.51-3.18.72-6.45,1.58-9.48,2.79l-1.61.64v.97c2.7,2.55,6.31,4.68,9.36,6.58,2.73,1.71,5.47,3.45,7.95,5.51l1.52,1.27Zm0,3.73v-3.73s-1.52-1.27-1.52-1.27c-2.48-2.06-5.22-3.8-7.95-5.51-3.05-1.9-6.66-4.04-9.36-6.58v-.97l-3.65,1.45.02-5.66.23-57.64-.72.04c-7.46.45-14.79,2.04-21.93,4.21l-3.55,1.08.97,3.58,10.25,37.95-9.51,36.73-.19.76-1.37,5.29,5.43-.52c5.23-.5,10.46-1.03,15.67-1.71,6.98-.91,19.26-2.62,25.22-6.3l1.95-1.21Zm-22.73-76.05l.07,60.53c4.77,5.22,12.88,8.64,18.69,13.47-6.79,4.2-26.51,6.25-39.23,7.45l.2-.76,9.76-37.71-10.52-38.93c6.28-1.91,13.46-3.6,21.04-4.05h0Zm151.44,42.79c-61.89-.1-125.55,2.33-147.35,11l.28-71.66c36.75-6.63,74.22-9.23,111.56-10.18-5.71-8.21-12.73-15.81-12.73-32.62S142.96,4.27,177.54,3.84c34.58-.43,48.53,31.09,48.46,48.07-.07,16.98-7.04,24.63-13.04,32.7,37.41.94,74.95,3.54,111.76,10.18l.28,71.66c-21.8-8.67-85.47-11.1-147.36-11,14.6,0,29.2.14,43.78.51,27.16.7,54.61,2.14,81.57,5.61l3.34.43v3.7c2.61.44,5.2.94,7.77,1.52,3.17.72,6.45,1.58,9.48,2.79l1.83.73.07-58.08v-4.05s3.12.18,3.12.18l-.05-14.01v-3.19s-3.15-.56-3.15-.56c-34.64-6.25-69.83-8.94-104.99-10.04,1.73-2.42,3.34-4.91,4.72-7.68,3.36-6.77,4.66-13.85,4.69-21.38.05-11.4-5.09-24.06-12.05-32.94C207.77,6.23,193.67-.18,177.49.02c-16.07.19-30.09,6.69-40.01,19.41-6.88,8.82-11.92,21.28-11.92,32.57,0,7.49,1.3,14.47,4.62,21.22,1.37,2.8,2.98,5.31,4.69,7.77-35.16,1.1-70.35,3.79-104.98,10.04l-3.14.56v3.19s-.07,14.02-.07,14.02l3.33-.2v4.05s.07,57.99.07,57.99l1.61-.64c3.03-1.21,6.31-2.07,9.48-2.79,2.55-.58,5.13-1.07,7.72-1.51v-3.71l3.34-.43c26.89-3.46,54.28-4.89,81.37-5.6,14.67-.38,29.35-.52,44.02-.52h0Z"/>
      </g>
      <path class="cls-9" d="m30.09,170.65l-.07-57.99v-4.05s-3.34.2-3.34.2l-.23,57.64-.02,5.66,3.65-1.45Z"/>
      <path class="cls-9" d="m171.43,159.28h.03s-.02,0-.03,0h0Zm-37.82-3.31c-27.09.7-54.48,2.14-81.37,5.6l-3.34.43v3.71c1.82-.31,3.63-.59,5.45-.85,11.51-1.66,23.22-2.61,34.82-3.34,27.29-1.73,54.86-2.18,82.23-2.23h.06c5.28-.02,10.56-.02,15.84,0h.04c26.24.09,52.63.57,78.78,2.23,11.6.73,23.32,1.69,34.83,3.34,1.8.26,3.6.54,5.39.84v-3.7s-3.34-.43-3.34-.43c-26.96-3.47-54.41-4.9-81.57-5.61-14.59-.38-29.19-.51-43.78-.51h0c-14.68,0-29.35.14-44.02.52h0Z"/>
      <path class="cls-9" d="m5.91,193.35l9.76-37.71-10.52-38.93c6.28-1.91,13.46-3.6,21.04-4.05l.07,60.53c4.77,5.22,12.88,8.64,18.69,13.47-6.79,4.2-26.51,6.25-39.23,7.45l.2-.76Zm20.52-21.25l.02-5.66.23-57.64-.72.04c-7.46.45-14.79,2.04-21.93,4.21l-3.55,1.08.97,3.58,10.25,37.95-9.51,36.73-.19.76-1.37,5.29,5.43-.52c5.23-.5,10.46-1.03,15.67-1.71,6.98-.91,19.26-2.62,25.22-6.3l1.95-1.21v-3.73s-1.52-1.27-1.52-1.27c-2.48-2.06-5.22-3.8-7.95-5.51-3.05-1.9-6.66-4.04-9.36-6.58v-.97l-3.65,1.45Zm289.62,6.1c-2.73,1.71-5.47,3.45-7.95,5.51l-1.79,1.49v3.33s2.23,1.38,2.23,1.38c5.96,3.68,18.24,5.39,25.22,6.3,5.21.68,10.44,1.21,15.67,1.71l4.79.45.5-.51-1.22-4.71-.2-.76-9.5-36.73,10.25-37.95.97-3.58-3.55-1.08c-7.14-2.18-14.46-3.77-21.93-4.21l-.94-.05.23,57.65.02,5.66-3.43-1.37v.89c-2.69,2.55-6.31,4.68-9.36,6.58h0Zm13.18-5.02l.07-60.53c7.58.45,14.75,2.14,21.04,4.05l-10.52,38.93,9.76,37.71.2.76c-12.72-1.2-32.44-3.25-39.23-7.45,5.81-4.83,13.92-8.25,18.69-13.47h0Zm-160.39-13.89h.08-.08Zm18.41,0h.03-.03Zm-109.8,257.39c-12.59-12.16-24.53-31.58-24.57-51.34l-.04-40.06-.05-63.07-.08-96.84c35.78-4.6,77.08-5.91,116.12-6.07h.08c.82,0,1.64,0,2.47-.01h.23c5.22-.02,10.43-.02,15.64,0-3.19-.01-6.38-.02-9.57-.02,7.16,0,14.43.04,21.73.12h.18c3.12.04,6.26.08,9.4.13,32.04.55,64.56,2.12,93.5,5.84l-.08,97.05-.05,62.72-.03,40.2c-.04,19.76-11.98,39.19-24.57,51.34-18.39,17.75-43.45,31.95-68.48,42.01-10.73,4.32-21.47,7.88-31.66,10.64-10.12-2.74-20.77-6.27-31.44-10.55-25.11-10.07-50.29-24.3-68.73-42.11h0Zm228.87-250.98v-3.7s-3.34-.43-3.34-.43c-26.96-3.47-54.41-4.9-81.57-5.61-14.59-.38-29.19-.51-43.78-.51h0c-14.68,0-29.35.14-44.02.52-27.09.7-54.48,2.14-81.37,5.6l-3.34.43v3.71s.02,19.27.02,19.27l2.57,2.14-2.57,1.59.15,176.63c.02,20.05,11.6,40.44,25.74,54.09,26.5,25.59,66.56,44.05,101.83,53.59l1,.27,1-.27c35.27-9.54,75.29-28,101.8-53.59,14.14-13.65,25.72-34.03,25.73-54.09l.15-176.8-2.29-1.42,2.3-1.91.02-19.51Z"/>
      <path class="cls-9" d="m48.91,184.98v3.73s2.57-1.59,2.57-1.59l-2.57-2.14Z"/>
      <path class="cls-9" d="m304.02,187.11l2.3,1.42v-3.33l-2.3,1.91Z"/>
      <path class="cls-9" d="m30.09,170.65l-.07-57.99v-4.05s-3.34.2-3.34.2l-.23,57.64-.02,5.66,3.65-1.45Z"/>
      <path class="cls-9" d="m48.55,455.52c-5.78-2.63-11.23-5.58-16.23-8.9l-2.45-1.63c-.15,19.3-.02,38.59-.21,57.89l-.04,4.39-3.32-.49-.02,16.71,2.12,1.06c45.77,22.85,98.43,31.28,149.21,31.28s103.36-8.43,149.13-31.28l2.12-1.06-.02-16.71-3.28.48-.04-4.39c-.18-19.3-.05-38.61-.21-57.91l-2.48,1.65c-5.07,3.38-10.62,6.37-16.5,9.03-27.71,12.53-62.82,17.58-91.01,19.62-12.54.91-25.12,1.32-37.7,1.32s-25.39-.41-38.05-1.34c-28.2-2.05-63.35-7.14-91.04-19.72h0Zm129.09,24.89c52.82,0,112.27-7.31,147.32-30.6l.09,71.32c-43.23,21.59-94.32,30.88-147.42,30.88s-104.27-9.29-147.5-30.88l.09-71.32c35.05,23.29,94.61,30.6,147.43,30.6h0Z"/>
      <path class="cls-9" d="m325.32,444.97c.15,19.3.02,38.61.21,57.91l.04,4.39,3.28-.48-.08-64.11-3.46,2.3Z"/>
    </g>
  </g>
</svg>