<?xml version="1.0" encoding="UTF-8"?>
<svg id="Layer_2" data-name="Layer 2" xmlns="http://www.w3.org/2000/svg" viewBox="0 0 373.28 492.81">
  <defs>
    <style>
      .cls-1 {
        stroke: #231f20;
        stroke-miterlimit: 2.61;
        stroke-width: .26px;
      }

      .cls-1, .cls-2, .cls-3, .cls-4 {
        fill-rule: evenodd;
      }

      .cls-1, .cls-5 {
        fill: #231f20;
      }

      .cls-2 {
        fill: #fff200;
      }

      .cls-2, .cls-3, .cls-4, .cls-6, .cls-5 {
        stroke-width: 0px;
      }

      .cls-3 {
        fill: #fff;
      }

      .cls-4 {
        fill: #ed1c24;
      }

      .cls-6 {
        fill: #f58220;
      }
    </style>
  </defs>
  <g id="Layer_1-2" data-name="Layer 1">
    <g>
      <path class="cls-3" d="m186.84,490.6c97.29-39.01,139.4-133.09,164.65-225.97,23-84.52,21.79-171.42,15.48-262.25-60.02,0-120.12,0-180.13,0-60.01,0-120.12,0-180.13,0C-.73,92.43.23,173.11,18.73,255.66c21.79,96.81,85.7,204.2,168.11,234.94h0Z"/>
      <path class="cls-5" d="m186.81,488.06c47.69-19.35,81.94-52.14,107.38-91.53,25.69-39.76,42.45-86.28,55.02-132.53,11.46-42.09,16.88-84.77,18.66-128.23,1.75-42.81-.04-86.44-3.1-131.03H8.89c-3.59,44.17-5.13,86.07-3.54,127.01,1.62,41.6,6.46,82.27,15.68,123.4h0c11.48,50.98,34.7,104.92,66.19,148.92,27.65,38.64,61.65,69.57,99.59,84h0Zm111.37-88.97c-26.1,40.39-61.3,73.99-110.45,93.7l-.88-2.2-.82,2.21c-39.24-14.63-74.27-46.35-102.65-86.01-31.85-44.5-55.34-99.06-66.95-150.62h0C7.14,214.75,2.26,173.8.63,131.92c-1.63-41.88,0-84.65,3.72-129.74l.18-2.18h364.65s.15,2.21.15,2.21c3.16,45.47,5.04,89.97,3.25,133.75-1.79,43.83-7.26,86.86-18.81,129.28-12.68,46.63-29.61,93.59-55.61,133.85h0Z"/>
      <path class="cls-4" d="m134.36,300.8c-1.59,1.32-3.2,2.63-4.77,3.96-4.32-6.24-9.51-12.81-16.34-14.94-5.45-1.8-8.04-1.11-12.11.25-2.6-2.64-5.79-3.67-10.03-3.41-3.8,0-7.44,2.9-10.29,7.09,2.51-1.54,4.41-2.74,6.57-2.82,1.12,2.05-.26,4.7,1.21,6.23,2.42,1.37,5.1,1.37,7.7.86.26,2.13,1.04,4.44,3.72,4.78,3.72.43,6.92-1.45,10.29-1.37,3.98.6,5.88,5.38,7.52,8.71-1.9.86-4.32,1.2-6.66.86-3.46-2.73-7.78-3.67-12.54-3.67-3.46-.08-6.92,0-10.38,1.71-3.03-2.3-6.31-3.16-10.29-3.07-4.32.08-9.34,4.7-10.29,9.56,1.82-1.29,3.2-3.5,5.36-3.93,2.25,1.54.69,4.7,2.94,5.98,1.99,1.11,4.24.85,6.57,0,1.21,2.81,3.2,5.29,7.18,5.63,5.1-.08,10.03-4.44,14.62-4.52,2.16.26,3.98,1.2,5.71,1.96-6.57,3.84-10.89,6.49-14.61,11.61-3.81-.26-7.44.34-10.03,3.07-3.81,3.33-5.62,8.37-5.45,12.47,1.38-2.65,2.94-4.95,4.58-5.89,1.82.43,2.51,4.7,4.84,4.78,4.06.34,5.62-2.56,7.78-4.53,2.59,2.14,5.28,2.99,7.7,1.71,5.71-3.93,5.71-11.27,10.89-14.69,5.02-3.58,8.04-4.1,12.11-4.01-.43,2.56-1.04,4.36-2.85,5.97-3.46,1.45-6.31,3.16-7.78,6.49.09,3.67,1.21,5.98,3.98,7.6-1.47,1.28-2.6,2.99-2.85,5.12.17,2.39,3.55,2.39,4.06,4.27-1.47,1.2-2.6,2.05-3.2,3.67,4.15-1.02,8.91-3.42,9.51-5.98.43-2.65.35-5.21-.34-7.6,3.8-2.9,5.62-6.91,6.31-11.61.78-5.97,1.12-12.03,4.32-17.84,1.02-.51,2.07-1.01,3.12-1.52-2.59-4.31-5.18-8.62-7.78-12.93h0Z"/>
      <path class="cls-4" d="m236.04,300.8c1.59,1.32,3.2,2.63,4.76,3.96,4.32-6.24,9.51-12.81,16.34-14.94,5.45-1.8,8.04-1.11,12.11.25,2.59-2.64,5.79-3.67,10.03-3.41,3.8,0,7.44,2.9,10.29,7.09-2.51-1.54-4.41-2.74-6.57-2.82-1.12,2.05.17,4.7-1.21,6.23-2.42,1.37-5.1,1.37-7.7.86-.26,2.13-1.04,4.44-3.72,4.78-3.72.43-6.92-1.45-10.29-1.37-3.98.6-5.88,5.38-7.52,8.71,1.9.86,4.24,1.2,6.66.86,3.46-2.73,7.78-3.67,12.54-3.67,3.46-.08,6.92,0,10.38,1.71,3.02-2.3,6.31-3.16,10.29-3.07,4.32.08,9.34,4.7,10.29,9.56-1.81-1.29-3.2-3.5-5.45-3.93-2.25,1.54-.61,4.7-2.86,5.98-1.99,1.11-4.24.85-6.57,0-1.21,2.81-3.2,5.29-7.18,5.63-5.1-.08-10.03-4.44-14.61-4.52-2.16.26-3.98,1.2-5.71,1.96,6.57,3.84,10.89,6.49,14.62,11.61,3.81-.26,7.44.34,10.03,3.07,3.8,3.33,5.62,8.37,5.45,12.47-1.38-2.65-2.94-4.95-4.58-5.89-1.82.43-2.51,4.7-4.84,4.78-4.07.34-5.62-2.56-7.78-4.53-2.6,2.14-5.28,2.99-7.78,1.71-5.62-3.93-5.62-11.27-10.81-14.69-5.02-3.58-8.04-4.1-12.11-4.01.43,2.56,1.04,4.36,2.86,5.97,3.46,1.45,6.31,3.16,7.79,6.49-.09,3.67-1.21,5.98-3.98,7.6,1.47,1.28,2.6,2.99,2.85,5.12-.26,2.39-3.54,2.39-4.06,4.27,1.47,1.2,2.59,2.05,3.2,3.67-4.15-1.02-8.9-3.42-9.51-5.98-.43-2.65-.34-5.21.35-7.6-3.89-2.9-5.71-6.91-6.31-11.61-.78-5.97-1.21-12.03-4.33-17.84-1.02-.51-2.07-1.01-3.11-1.52,2.59-4.31,5.17-8.62,7.78-12.94h0Z"/>
      <path class="cls-1" d="m333.77,89.7c5.54-18.27,14.01-44.39.34-66.25-1.9,22.54-3.28,43.11-17.21,57.71,6.92-22.79,2.77-44.48-2.86-47.81-7.09,36.62-23.09,51.73-46.79,69.92-29.23,17.59-45.57,29.2-58.2,68.55-1.3-54.47,12.37-65.05,22.66-83.24,2.85-6.23,5.71-12.47,8.56-18.7,13.32,2.9,22.31,4.95,33.9,4.52-10.72-2.13-21.45-4.44-31.3-8.2,3.98-8.02,8.65-14.68,14.61-19.55.09-14.34-10.98-14.6-16.08-14.17-14.62,1.54-23.78,6.4-34.42,11.35-3.8.09-5.36-5.81-8.82-4.87,12.02,33.21-5.19,35.6-12.37,81.27l-.64,2.97-.66-2.97c-7.09-45.67-24.3-48.06-12.28-81.27-3.54-.94-5.02,4.95-8.82,4.87-10.64-4.95-19.8-9.82-34.42-11.35-5.1-.43-16.17-.17-16.09,14.17,5.97,4.87,10.64,11.52,14.61,19.55-9.86,3.76-20.58,6.06-31.3,8.2,11.59.43,20.58-1.62,33.9-4.52,2.85,6.23,5.71,12.46,8.56,18.7,10.29,18.18,23.95,28.77,22.66,83.24-12.63-39.36-28.97-50.97-58.2-68.55-23.69-18.18-39.69-33.29-46.78-69.92-5.62,3.33-9.77,25.01-2.85,47.81-13.92-14.6-15.31-35.17-17.21-57.71-13.66,21.85-5.19,47.98.26,66.25h0c-5.71-.68-10.29-4.18-15.48-7.94-.95,15.11,5.27,27.41,16.08,41.92-3.03,1.11-6.14-1.45-9.17-3.41-2.16,12.46,3.89,21.51,11.5,32.27-2.94-.51-5.79-1.96-8.65-3.42-2.25,13.15,5.79,19.72,17.21,26.63-2.16,4.27-6.4,5.72-10.9,5.12.61,9.65,4.32,14.17,13.75,18.7-2.68,2.05-6.23,1.62-9.69,1.11,1.21,9.73,7.35,14.94,16.6,19.81-1.99,1.88-3.72,3.24-6.92,4.01,2.42,10.93,10.55,17.93,21.79,19.21.6,2.56-1.64,4.87-3.37,6.83,5.01,7.85,15.3,10.67,22.91,10.07.26,1.54,0,3.59-1.73,5.12,6.83,7.17,16.17,5.04,24.13,3.67,2.94,1.96,5.62,5.12,6.31,9.39,18.25-.77,29.32-8.03,40.73-19.89.17,3.5-.26,7.6-1.47,11.95-9.08,9.91-17.3,17.5-27.85,26.64,5.01,8.28,9.95,16.56,14.96,24.84,8.56-5.38,16.34-13.57,22.4-24.59.95,1.62,1.56,4.35,1.13,6.49-7.44,15.03-15.48,27.23-25.86,39.1-2.07,7-2.16,12.8-1.12,19.21,9.94,1.11,17.3-4.95,24.65-11.27,1.82,1.71,2.16,3.16,2.33,5.04.43,4.18-2.51,8.37-4.06,12.46-8.22,2.13-15.82,3.07-24.65,2.9-7.44.26-14.61-1.2-22.4-3.42-1.64,5.38-1.64,10.42-1.64,15.28,4.32,4.44,8.73,7.43,14.87,9.05-2.85,7.68-6.57,12.46-1.73,22.11,6.23,7.6,29.06-9.9,41.86-20.41.61,6.83-6.57,14.43-6.83,32.27.26,13.32,5.19,26.04,18.85,32.27h.09c13.75-6.23,18.68-18.95,18.94-32.27-.26-17.84-7.44-25.44-6.83-32.27,12.8,10.5,35.63,28,41.85,20.4,4.84-9.65,1.12-14.43-1.73-22.11,6.14-1.62,10.55-4.61,14.88-9.05,0-4.87,0-9.9-1.64-15.28-7.78,2.22-14.96,3.67-22.4,3.42-8.82.17-16.43-.77-24.65-2.9-1.56-4.1-4.5-8.28-4.06-12.46.18-1.88.52-3.33,2.34-5.04,7.35,6.32,14.7,12.38,24.64,11.27,1.04-6.4.95-12.21-1.12-19.21-10.38-11.87-18.42-24.07-25.86-39.1-.43-2.13.18-4.87,1.12-6.49,6.05,11.01,13.84,19.21,22.4,24.58,5.01-8.28,9.94-16.56,14.96-24.84-10.55-9.14-18.77-16.73-27.85-26.64-1.3-4.35-1.64-8.45-1.47-11.95,11.41,11.87,22.48,19.12,40.73,19.89.69-4.27,3.37-7.43,6.31-9.39,7.96,1.36,17.3,3.5,24.12-3.67-1.73-1.54-1.99-3.59-1.73-5.12,7.61.6,17.9-2.22,22.92-10.07-1.73-1.96-3.98-4.27-3.37-6.83,11.24-1.28,19.37-8.28,21.79-19.21-3.2-.77-4.93-2.13-6.92-4.01,9.25-4.87,15.39-10.07,16.61-19.81-3.55.51-7,.94-9.69-1.11,9.43-4.53,13.14-9.05,13.75-18.7-4.49.6-8.73-.85-10.89-5.12,11.42-6.91,19.46-13.49,17.21-26.63-2.85,1.45-5.79,2.9-8.65,3.42,7.61-10.76,13.66-19.81,11.5-32.27-3.03,1.96-6.14,4.52-9.17,3.41,10.81-14.51,17.04-26.81,16.09-41.92-5.19,3.76-9.77,7.26-15.56,7.94h0Z"/>
      <path class="cls-2" d="m106.85,219.38c19.8,0,35.89-15.88,35.89-35.43s-16.09-35.34-35.89-35.34-35.8,15.88-35.8,35.34,16.09,35.43,35.8,35.43h0Z"/>
      <path class="cls-2" d="m106.85,170.12c3.37,0,6.48,1.19,8.91,3.16,3.2,2.56,5.19,6.4,5.19,10.67,0,1.71-.34,3.33-.86,4.78-1.99,5.29-7.18,9.13-13.23,9.13-6.49,0-12.02-4.44-13.58-10.41-.34-1.11-.43-2.31-.43-3.5,0-4.78,2.42-8.96,6.14-11.44,2.25-1.54,5.02-2.39,7.87-2.39h0Z"/>
      <path class="cls-6" d="m102.94,225.61v-3.3c-9.16-.91-17.41-4.99-23.6-11.12-4.31-4.26-7.62-9.52-9.54-15.39l-2.68.58-1.32-6.11,2.55-.56c-.29-1.89-.44-3.81-.44-5.78,0-10.6,4.38-20.22,11.45-27.2.21-.21.43-.41.64-.62l-1.92-2.08,4.6-4.23,2.21,2.4c6.26-4.25,13.83-6.74,21.96-6.74,9.08,0,17.45,3.08,24.08,8.23l3.08-2.93,4.3,4.52-2.76,2.62c6.4,6.86,10.31,16,10.31,26.02,0,3.92-.6,7.71-1.7,11.27l3.12,1.17-2.18,5.84-3.27-1.23c-1.9,3.8-4.42,7.24-7.43,10.21-6.54,6.46-15.39,10.64-25.21,11.22v3.17h-6.26Zm0-9.59v-15.47c-2.41-.57-4.64-1.64-6.55-3.11-2.16-1.66-3.92-3.82-5.09-6.31l-15.34,3.34c1.63,4.68,4.33,8.87,7.79,12.3,5.05,4.99,11.74,8.36,19.19,9.24h0Zm-28.46-27.62l15.25-3.32c-.02-.38-.03-.76-.03-1.12,0-2.87.72-5.58,2-7.96.78-1.46,1.78-2.79,2.94-3.96l-10.41-11.31c-.17.16-.33.32-.49.48-5.9,5.83-9.57,13.88-9.57,22.74,0,1.51.11,2.99.31,4.44h0Zm14.69-31.52l10.68,11.6c.63-.28,1.27-.52,1.94-.72,1.64-.5,3.35-.76,5.05-.76,2.01,0,3.95.35,5.76.99.78.28,1.54.61,2.26.99l11.47-10.9c-5.45-3.98-12.19-6.33-19.49-6.33-6.5,0-12.57,1.89-17.67,5.13h0Zm41.85,5.36l-11.19,10.64c1.03,1.16,1.89,2.44,2.57,3.83,1.08,2.21,1.67,4.67,1.67,7.25,0,.96-.1,1.95-.28,2.93-.04.22-.08.43-.13.65l14.63,5.49c.85-2.88,1.31-5.92,1.31-9.07,0-8.36-3.25-15.99-8.58-21.72h0Zm4.92,36.57l-14.71-5.52c-1.21,1.82-2.77,3.4-4.58,4.65-2.18,1.5-4.72,2.53-7.45,2.91v15.33c8.12-.57,15.42-4.05,20.83-9.4,2.36-2.33,4.36-5.02,5.92-7.97h0Zm-25.42-24.92c-1.14-.4-2.38-.63-3.68-.63-1.14,0-2.23.16-3.24.47-1.02.31-1.99.77-2.87,1.37l-.04.02c-1.46.97-2.66,2.29-3.49,3.83-.79,1.48-1.24,3.18-1.24,5,0,.53.02,1.02.06,1.44.05.41.12.8.22,1.14l.04.13c.61,2.33,2,4.36,3.89,5.8,1.85,1.42,4.17,2.26,6.67,2.26,2.33,0,4.49-.72,6.26-1.94,1.84-1.27,3.27-3.07,4.05-5.16h0c.21-.59.38-1.21.5-1.85.1-.55.16-1.16.16-1.83,0-1.63-.37-3.17-1.04-4.54-.7-1.44-1.71-2.7-2.97-3.7h-.02c-.95-.79-2.05-1.41-3.26-1.83h0Z"/>
      <path class="cls-6" d="m291.27,223.4l-8.55-11.29-8.71,11.83-4.13,5.61-4.26-5.48-9.6-12.36-8.86,11.7-8.39-6.33,10.57-13.96-11.05-14.22-2.52-3.24,2.54-3.24,11.15-14.21-10.7-14.12,8.39-6.33,9.02,11.91,8.95-11.39,4.1-5.23,4.14,5.23,8.95,11.3,8.95-11.81,8.39,6.33-10.59,13.99,11.03,13.92,2.49,3.14-2.37,3.21-11,14.94,10.44,13.79-8.39,6.33h0Zm-15.17-20.03l-6.89-9.1-6.62,8.74,7.07,9.1,6.43-8.74h0Zm-20.18-8.95l6.7-8.85-6.59-8.7-6.91,8.8,6.8,8.75h0Zm6.82-26.1l6.47,8.54,6.57-8.68-6.5-8.2-6.54,8.33h0Zm19.79,8.38l-6.72,8.88,6.79,8.97,6.78-9.2-6.85-8.64h0Z"/>
      <path class="cls-4" d="m86.88,62.3c-7.18-.17-8.39,4.86-10.38,4.27-.26-5.04-1.12-11.69,2.59-15.28,5.1-4.78,12.97-6.32,20.32-5.63,5.04.12,9.53.83,14.04,1.48,5.35,4.52,9.64,10.51,13.33,17.64-5.21,2.02-10.45,3.21-16.73,3.51-15.48-.6-15.22-5.72-23.17-5.97h0Z"/>
      <path class="cls-4" d="m117.23,94.06c-7.95-.08-19.46-5.21-19.8-13.32,3.29,2.9,6.31,3.84,9.77,3.67,7.8-.34,18.67-8.94,22.58-14.44l.34-.07,7.51,16.4c-6.55,4.05-13.11,7.83-20.4,7.76h0Z"/>
      <path class="cls-4" d="m136.43,57.26c1.9-1.79,3.63-4.01,4.32-6.23-2.85-1.02-5.88-1.79-9.51-.6-2.08,1.45-4.15,4.78-3.37,6.58,2.51,2.56,6.57,1.71,8.56.25h0Z"/>
      <path class="cls-4" d="m283.52,62.3c7.18-.17,8.3,4.86,10.38,4.27.26-5.04,1.12-11.69-2.6-15.28-5.1-4.78-12.97-6.32-20.41-5.63-4.98.12-9.45.83-13.95,1.48-5.34,4.52-9.64,10.51-13.33,17.64,5.21,2.02,10.45,3.21,16.73,3.5,15.48-.6,15.22-5.72,23.18-5.97h0Z"/>
      <path class="cls-4" d="m253.17,94.06c7.95-.08,19.46-5.21,19.8-13.32-3.28,2.9-6.31,3.84-9.77,3.67-7.79-.34-18.67-8.94-22.58-14.44l-.34-.07c-2.5,5.47-5.01,10.93-7.51,16.4,6.55,4.05,13.11,7.83,20.39,7.76h0Z"/>
      <path class="cls-4" d="m233.97,57.26c-1.9-1.79-3.63-4.01-4.32-6.23,2.85-1.02,5.88-1.79,9.51-.6,2.08,1.45,4.15,4.78,3.37,6.58-2.59,2.56-6.57,1.71-8.56.25h0Z"/>
    </g>
  </g>
</svg>