<?xml version="1.0" encoding="UTF-8"?>
<svg id="Layer_2" data-name="Layer 2" xmlns="http://www.w3.org/2000/svg" xmlns:xlink="http://www.w3.org/1999/xlink" viewBox="0 0 749.99 982.16">
  <defs>
    <style>
      .cls-1 {
        stroke-linecap: round;
        stroke-linejoin: round;
        stroke-width: .75px;
      }

      .cls-1, .cls-2, .cls-3, .cls-4, .cls-5 {
        stroke: #000;
      }

      .cls-6 {
        fill: url(#linear-gradient);
      }

      .cls-6, .cls-7 {
        stroke-width: 0px;
      }

      .cls-2, .cls-3 {
        stroke-miterlimit: 3;
      }

      .cls-2, .cls-4 {
        fill: #fff;
      }

      .cls-2, .cls-4, .cls-5 {
        stroke-width: .75px;
      }

      .cls-3 {
        fill: url(#radial-gradient);
        stroke-width: .75px;
      }

      .cls-4, .cls-5 {
        stroke-miterlimit: 11.34;
      }
    </style>
    <linearGradient id="linear-gradient" x1="-48.69" y1="890.4" x2="-48.46" y2="604.73" gradientTransform="translate(512.63 2648.67) scale(2.83 -2.83)" gradientUnits="userSpaceOnUse">
      <stop offset="0" stop-color="#e30713"/>
      <stop offset="1" stop-color="#a50f08"/>
    </linearGradient>
    <radialGradient id="radial-gradient" cx="470.07" cy="1564.46" fx="470.07" fy="1564.46" r="445.5" gradientTransform="translate(11.72 199.7) rotate(5.01) scale(.75 -.11)" gradientUnits="userSpaceOnUse">
      <stop offset="0" stop-color="#fde2c4"/>
      <stop offset="1" stop-color="#bea978"/>
    </radialGradient>
  </defs>
  <g id="Layer_1-2" data-name="Layer 1">
    <g>
      <path class="cls-5" d="m361.19,973.33c-78.97-50.85-150.58-117.37-205.11-190.55-39.53-53.05-72.58-112.14-97.14-173.68-21.87-54.79-37.9-112.45-47.56-171.03-4.2-25.49-6.61-45.75-9.55-80.25-.6-7.03-.95-55.26-1.16-157.62L.38,52.69l3.97-1.15c30.82-8.95,69.79-18.37,105.97-25.61C173.04,13.38,225.87,6.5,294.44,1.96c31.84-2.11,143.94-2.12,160.88-.01,1.24.15,5.79.48,10.13.72,59,3.3,138.73,14.79,203.63,29.36,23.74,5.33,63.11,15.38,79.34,20.25,1.29.39,1.33,6.64,1.08,147.91-.28,157.21-.16,151.18-3.96,188-11.13,107.82-44.41,215.41-94.97,306.97-57.65,104.41-137.05,191.64-240.24,263.94-10.17,7.13-34.54,22.72-35.47,22.69-.29,0-6.44-3.82-13.66-8.47h0Z"/>
      <path class="cls-6" d="m374.86,934.44C106.98,748.2,28.01,516.33,39.86,167.72c0,0,150.02-40.71,334.72-40.58,201.21.14,334.72,40.49,334.72,40.49-1.78,89.14,49.51,516.99-334.43,766.83v-.02Z"/>
      <path class="cls-7" d="m500.69,132.53l-74.69,326.95-7.82-8.59-217.66,180.94,239.83,270.56,196.44-211.24-17.43-19.15c17.32-32.41,32.81-67.67,46.65-108.16V156.88c-35.43-7.78-72.03-13.74-107.76-18.24l53.21,7.76v515.55l-54.17-60.04V138.53c-19.24-2.41-38.22-4.4-56.61-6.01h0Zm56.61,6.01c.32.04.64.08.96.12l-.96-.14v.02Zm-56.75,321.81v75.3l-57.12-63.48c21.97-.5,39.77-5.85,57.12-11.82h0Z"/>
      <g>
        <ellipse class="cls-1" cx="434.37" cy="305.69" rx="163.67" ry="162.95"/>
        <g>
          <g>
            <path class="cls-4" d="m386.61,926.9c19.2-13.4,54.75-39.58,54.43-40.61-.08-.25-29.15-33.72-63.92-73.69l-63.21-72.67,3.96-3.61,3.96-3.61,10.36.38c12.47.46,20.85-.39,28.1-2.86,12.01-4.09,18.05-8.76,21.78-16.84,1.56-3.39,2.01-5.67,2.26-11.65.18-4.21-.07-9.14-.57-11.38-2.31-10.32-11.83-16.52-30.03-19.54l-7.64-1.27-3.59-3.81c-8.37-8.88-20.3-22.52-20.12-22.98.27-.66,9.83-8.96,10.33-8.96.21,0,4.67,4.84,9.89,10.75l9.51,10.75,5.49.98c3.02.54,6.99,1.43,8.83,1.98,1.84.55,3.47.87,3.63.71s-6.07-7.43-13.84-16.16-14.23-16.13-14.35-16.46c-.12-.33,1.79-2.33,4.25-4.46l4.46-3.87,9.63,10.73c5.3,5.9,43.84,49.23,85.64,96.29l76.01,85.57,2.76-3.09c1.52-1.7,3.19-3.65,3.72-4.34.84-1.1-9.39-12.9-83.84-96.68-46.64-52.48-84.8-95.64-84.8-95.9,0-.59,8.23-7.55,8.93-7.55.39,0,76.46,85.36,166.35,186.67l2.4,2.7,3.01-3.37c1.66-1.86,3.21-3.95,3.46-4.66.33-.95-21.46-25.94-82.66-94.79-45.71-51.43-83.2-93.9-83.32-94.39-.12-.48.62-1.33,1.63-1.87,2.84-1.52,12.32.04,14.33,2.36,1.07,1.23,153.09,172.46,157.89,177.84.31.34,2.14-1.43,4.07-3.95l3.52-4.57-2.49-2.89c-1.37-1.59-35.39-39.91-75.61-85.15-40.22-45.25-73.21-82.51-73.32-82.82-.28-.79,14.15-2.62,14.81-1.87.3.34,32.86,37.01,72.34,81.49l71.79,80.88,3.31-4.7c2.83-4.03,3.17-4.87,2.31-5.87-.55-.65-31.94-36.02-69.74-78.61-37.81-42.59-68.74-77.77-68.74-78.19s.26-.76.58-.76,2.38-1.58,4.59-3.52c3.41-2.98,4.15-3.35,4.86-2.39,3.73,4.97,136.57,153.53,137.03,153.24.33-.2,1.82-2.37,3.3-4.82l2.7-4.45-69.41-78.08-69.41-78.08.56-5.39c.31-2.97.55-6.83.54-8.58-.01-1.75.19-3.19.44-3.19s32.83,36.43,72.39,80.96c71.26,80.21,71.95,80.95,73.22,79.31.71-.91,2.12-3.17,3.14-5.03l1.85-3.38-79.47-89.41-79.47-89.41.21-9.13.21-9.13,82.39,92.73c45.31,51,82.66,92.57,82.99,92.36.82-.51,5.25-8.41,5.25-9.37,0-.42-34.85-40-77.46-87.95-42.6-47.95-85.01-95.79-94.25-106.31l-16.79-19.13-4.19-.51c-22.31-2.71-38.41-7.15-55.42-15.27-16.2-7.74-30.33-17.39-42.73-29.19-8.3-7.9-7.36-8.01-17.2,2.07l-6.59,6.75-37.73-.95c-20.75-.52-37.91-.76-38.13-.54-.36.36-1.64,20.67-1.73,27.33l-.03,2.44h-12.41c-10.8,0-12.77.19-15.19,1.45-3.42,1.78-5.79,5.24-6.97,10.18-.49,2.06-1.01,4.17-1.14,4.69-.17.63-1.91.94-5.34.95-2.8,0-7.43.51-10.29,1.12-8.02,1.7-10.66,4.93-12.07,14.78l-.51,3.53-3.48.45c-17.86,2.3-26.35,5.34-30.85,11.07-5.03,6.39-7.6,17.85-6.13,27.32,1.2,7.69,3.13,11.24,16.22,29.86,33.26,47.27,57.79,87.47,61.8,101.25,4.76,16.37,8.63,47.85,10.57,85.88.43,8.46.93,18.34,1.11,21.97l.33,6.6,7.35,8.78c37.13,44.37,79.56,84.21,128.5,120.67,14.56,10.85,32.27,23.31,33.28,23.41.36.04,5.59-3.38,11.62-7.59h0Z"/>
            <path class="cls-4" d="m457.04,873.95l3.96-3.55-53.34-60.36c-29.34-33.2-53.76-60.79-54.26-61.32-.7-.73-2.58-.82-7.92-.38l-7,.59,29.55,33.41c16.25,18.37,41.85,47.31,56.88,64.31,15.03,17,27.52,30.89,27.75,30.87.23-.02,2.2-1.63,4.38-3.58h0Z"/>
            <path class="cls-4" d="m474.8,858.19c1.93-1.78,3.4-3.54,3.27-3.9-.13-.36-22.93-26.31-50.66-57.66l-50.43-57-3.94,1.84c-2.17,1.01-4.35,1.84-4.84,1.84-.49,0-1.1.33-1.34.73-.25.4,19.04,22.76,42.86,49.69,59.03,66.74,60.33,68.19,61,67.94.32-.12,2.16-1.68,4.09-3.47h0Z"/>
            <path class="cls-4" d="m495.45,838.43c.02-.79-100.47-114.25-101.18-114.25-.77,0-6.9,8.03-6.62,8.68.11.25,22.61,25.8,50,56.77l49.81,56.31,4-3.5c2.2-1.93,4-3.73,4-4h0Z"/>
            <path class="cls-4" d="m509.62,824l3.99-4.04-57.34-64.51-57.34-64.51.08,8.6.08,8.6,53.25,59.94c29.29,32.97,53.26,59.94,53.27,59.94.01,0,1.82-1.82,4.01-4.04h0Z"/>
          </g>
          <path class="cls-2" d="m384.48,167.3l-4.7,1.77c-16.75,6.31-34.76,18.19-49.24,32.48l-7.8,7.69.51,13.34c.28,7.34.66,15.53.83,18.21.17,2.68.5,9.26.71,14.62l.4,9.75-19.35,24.69-19.35,24.69.58,4.93c1.89,16.09,7.39,34.29,14.86,49.18l4.89,9.75,29.62,8.88,29.62,8.88,16.56,25.62,16.56,25.62,6.32,1.29c14.69,3,32.83,3.65,47.34,1.7,4.66-.63,10.23-1.55,12.37-2.06l3.89-.93,15.42-23.57c8.48-12.96,15.51-23.65,15.61-23.76.1-.1,12.99-3.61,28.65-7.79,15.65-4.18,28.71-7.76,29.01-7.95.92-.57,7.88-13.08,10.4-18.69,5.68-12.64,12.03-35.62,11.98-43.37-.01-1.95-3.41-6.78-18.81-26.75l-18.8-24.37.44-10.5c1.67-40.33,1.98-50.35,1.62-51.79-.52-2.07-12.72-13.78-20.67-19.82-3.33-2.54-8.83-6.33-12.22-8.44-7.56-4.69-22.12-11.81-24.17-11.8-.82,0-13.06,4.18-27.19,9.29l-25.69,9.29-25.11-10.05-25.11-10.05Zm49.13,77.19c.66-.52,54.78,39.33,59.12,43.54,1.36,1.31,1.09,2.31-9.56,36.3-6.03,19.22-10.96,35.12-10.96,35.33s-2.78.32-6.19.25c-3.4-.08-19.91-.33-36.69-.56-16.78-.23-30.66-.59-30.86-.8-.65-.68-23.3-71.22-22.96-71.53.18-.16,13.15-9.66,28.82-21.11,15.67-11.45,28.85-21.08,29.27-21.42h0Z"/>
        </g>
        <path class="cls-3" d="m386.42,37.55c-1.56.02-3.02.16-3.78.45-1.05.4-1.19,3.34-1.19,25.38,0,13.71.24,25.16.53,25.45.29.29,2.57.43,5.06.31l4.53-.22.2-14.81c.11-8.15.46-14.81.78-14.81s4.45,6.67,9.18,14.81l8.6,14.81,5.81.22,5.81.22v-51.06h-10.5v15.37c0,8.46-.25,15.37-.56,15.35s-4.38-6.71-9.04-14.89c-4.66-8.18-8.86-15.25-9.34-15.73-.57-.57-3.48-.89-6.09-.86h0Zm-35.3.09c-6.66,0-14.53.52-15.97,1.3l-1.69.91v49.51l5.81-.22,5.81-.22.21-9.19.21-9.19h5.87l5.04,9.37,5.03,9.37h5.88c4.48,0,5.88-.24,5.88-1.03,0-.57-2.37-5.37-5.27-10.68-3.08-5.64-4.92-9.77-4.43-9.93,1.87-.62,6.23-5.11,7.18-7.38.56-1.33,1.01-4.39,1.01-6.79,0-7.82-4.11-13.25-11.55-15.27-1.48-.4-5.04-.57-9.04-.57h0Zm-27.78,1.14l-5.23.19c-2.88.1-5.49.35-5.81.55-.32.2-.59,8.42-.59,18.27s-.32,18.76-.72,19.79c-1.61,4.23-9.52,5.66-13.3,2.4l-2.1-1.81-.37-19-.37-19-5.25.27c-2.89.15-5.5.42-5.81.61-.82.5-.68,31.36.17,36.56,1.19,7.25,4.92,11.51,11.64,13.29,3.03.8,12.1.27,16.16-.94,1.87-.56,4.64-2.28,6.43-4,5.04-4.84,5.6-7.93,5.36-29.27l-.2-17.89h0Zm122.29.37c-3.76-.06-4.82.3-7.13,1.52-5.73,3.02-6.06,4.33-6.04,23.86.01,16.08.09,17.03,1.69,19.85,1.77,3.12,5.1,5.5,9.05,6.46,1.3.32,6.42.52,11.37.45l9-.12.22-4.2.22-4.2-3.97-.48c-2.18-.26-6.08-.48-8.66-.48-6.46,0-7.69-1.28-7.69-7.97v-4.96l9.75.54,9.75.54v-9.03l-9.75-.54-9.75-.54v-4.26c0-6.9.39-7.13,11.18-6.52l9.15.52-.23-4.29c-.21-4.04-.35-4.32-2.48-4.93-1.24-.36-6.13-.83-10.87-1.05-2-.09-3.56-.16-4.81-.18h0Zm33.56,2.22c-.62,0-1.31.04-2.09.08l-3.78.22-.2,24.7c-.11,13.59.06,24.96.37,25.27.32.31,2.85.8,5.64,1.09l5.06.52v-15.52c0-9.84.27-15.36.73-15.07.4.25,2.14,3.16,3.87,6.48,3.39,6.51,4.9,7.65,9.57,7.26,2.41-.21,2.9-.7,6.01-6.04,1.86-3.2,3.65-5.81,3.98-5.81s.59,6.9.59,15.33v15.33l2.81.29c1.55.16,4.08.35,5.62.42l2.81.13v-24.56c-.02-13.51-.31-25.02-.67-25.58-.38-.61-2.61-1.17-5.5-1.41l-4.86-.39-5.92,10.33c-3.26,5.68-6.26,10.27-6.67,10.2-.41-.08-3.34-5.09-6.52-11.14-5.53-10.55-6.51-12.14-10.86-12.13h0Zm-222.81.79c-8.85-.14-16.26,4.07-20.06,11.5-2.23,4.37-2.26,4.54-2.26,16.47,0,11.19.13,12.31,1.79,15.65,1.9,3.82,5.37,6.97,8.85,8.01,3.38,1.01,11.69.85,15.53-.3h0c10.08-3.04,14.67-11.38,14.7-26.72.03-16.28-4.96-23.58-16.76-24.53-.6-.05-1.2-.08-1.79-.09h0Zm-46.13,4.84c-4.26,0-9.4.62-15.44,1.86-7.16,1.47-6.87.35-6.87,26.51,0,20.52.13,22.95,1.28,24.1,1.11,1.11,2.29,1.21,8.74.79,4.11-.27,9.61-.99,12.24-1.6,11.07-2.57,15.99-7.69,15.98-16.64,0-4.73-1.69-8.47-4.5-9.98l-1.58-.85,1.86-1.46c4.19-3.3,5.42-12.78,2.27-17.58-2.26-3.45-6.9-5.17-13.99-5.16h0Zm135.19.3h4.84c6.31,0,8.46,1.02,9.51,4.52.65,2.17.61,3.24-.19,4.92-1.41,2.95-3.96,4.04-9.46,4.05h-4.69s0-6.74,0-6.74v-6.75h0Zm200.62.39c-8.49-.03-14.1,4.09-16.2,11.9-.5,1.85-.71,7.39-.53,13.95.33,12.01,1.22,14.93,6.12,20.13,5.45,5.78,15.26,8.2,23.44,5.77,3.96-1.18,6.74-3.61,9.02-7.89,1.2-2.26,1.4-4.37,1.4-15,0-11.44-.13-12.67-1.79-16.34-3.56-7.88-11.44-12.48-21.46-12.51h0Zm-291.07,4.67c6.3-.1,7.93,3.12,7.93,15.56,0,9.6-.9,12.96-4.03,15.01-2.32,1.52-7,2.1-9.24,1.15-3.13-1.34-3.98-4.44-3.98-14.64,0-13.49,1.89-16.96,9.31-17.07h0Zm323.69.02v17.67c0,9.74.36,19.36.8,21.42,1.53,7.12,7.03,12.5,14.95,14.62,4.92,1.32,12.57,1.52,15.51.41,3.4-1.29,6.19-4.5,7.38-8.5.84-2.83,1.11-8.02,1.11-21.53v-17.8l-3.79-.81c-2.08-.45-4.61-.81-5.62-.81h-1.84v16.69c0,17.61-.57,21.76-3.14,23.14-2.48,1.33-8.61.42-10.76-1.6-2.9-2.72-3.34-5.91-3.34-24.11,0-19.26.71-17.38-6.94-18.28l-4.31-.51h0Zm-417.37,2.05l-6.08.16c-10.95.29-18.52,4.58-22.56,12.8-1.97,4.01-2.13,5.02-2.36,15.33-.2,8.68,0,11.82.96,14.68,1.26,3.79,4.7,7.75,7.93,9.12,2.65,1.12,14.67.43,18.94-1.09l3.56-1.26v-9.03l-2.06.44c-1.13.24-4.35.84-7.14,1.33-9.13,1.59-11.05-.87-11.04-14.13,0-9.62.74-12.71,3.7-15.54,1.91-1.83,3.18-2.24,9.19-2.98l6.98-.86v-8.95h0Zm46.95,1.84c4.63.04,6.68,1.75,6.68,5.36,0,4.09-2.38,6.4-7.22,7.02-2.01.26-4.58.61-5.72.79l-2.06.33v-12.52l2.81-.46c2.14-.35,3.97-.53,5.51-.52h0Zm340.04,1.53c6.9,0,9.53,3.81,9.99,14.43.59,13.66-1.16,17.83-7.51,17.82-1.83,0-4.22-.61-5.53-1.41h0c-3.57-2.18-4.44-5.21-4.44-15.46,0-12.58,1.36-15.37,7.49-15.37h0Zm76.88,2.08v4.52c0,4.34.08,4.54,2.06,4.92,1.13.22,4,.78,6.36,1.24l4.3.84.2,20.76.2,20.76,3.37.88c1.86.48,4.3.9,5.44.94l2.06.06v-20.62c0-11.34.25-20.61.56-20.6.31.01,2.76.51,5.44,1.1,7.06,1.55,6.75,1.71,6.75-3.32,0-3.59-.25-4.53-1.31-4.84-1.81-.54-27.49-5.46-31.87-6.1l-3.56-.53h0Zm-503.18.7l-5.4.5c-13.83,1.29-21.32,4.63-24.17,10.8-1.54,3.33-1.65,4.81-1.87,24.36l-.23,20.81,1.73-.07c.95-.04,3.42-.46,5.48-.94l3.75-.87.37-10.86.37-10.86,8.42-1.61c4.63-.89,8.93-1.81,9.56-2.05.83-.32,1.14-1.57,1.14-4.62v-4.18l-2.81.49c-1.55.27-5.11.96-7.92,1.53-2.81.57-5.97,1.04-7.03,1.04-1.88,0-1.91-.09-1.59-4.52.2-2.82.79-4.98,1.55-5.75.73-.73,4.68-1.87,9.7-2.81l8.47-1.59.23-4.4.23-4.4h0Zm548.04,7.89c-.19,0-.31.03-.36.08-.19.19-.34,11.58-.33,25.3.01,18.58.25,25.1.92,25.51.49.31,2.41.78,4.25,1.06,1.84.28,3.81.68,4.38.9.84.32,1.03-1.53,1.03-10.18,0-12.3-1.06-11.37,10.12-8.86l7.5,1.68.37,10.83.37,10.82,3.37.9c1.86.49,4.3.93,5.44.97l2.06.07v-24.66c0-18.84-.22-24.83-.94-25.39-1-.79-7.22-2.45-9.14-2.45-.99,0-1.17,1.39-1.17,9.37,0,10.99.9,10.33-10.5,7.64l-7.12-1.68-.21-9.91-.21-9.91-2.04-.46c-1.12-.25-3.34-.79-4.93-1.18-1.19-.3-2.31-.47-2.87-.46h0Zm-604.07,2.83c-5.3,0-11.02,3.01-13.12,6.92-.7,1.3-11.17,46.65-11.17,48.39,0,1.16,1.33,1.18,5.85.09h0c1.94-.47,3.93-1.22,4.43-1.69.5-.46,1.44-3.37,2.09-6.45.65-3.09,1.42-5.84,1.72-6.11.29-.27,3.07-1.05,6.16-1.73s6.18-1.4,6.86-1.61c1-.3,1.47.7,2.49,5.27.69,3.1,1.53,5.81,1.87,6.02.79.49,9.15-1.12,10.26-1.98.61-.47-.62-6.49-4.34-21.35-2.85-11.39-5.67-21.63-6.25-22.77-1.29-2.49-2.45-3-6.83-3h0Zm143.05,5.28c4.51.07,5.91,1.76,5.91,5.9,0,5.2-2.31,6.91-10.74,7.96l-4.26.53v-13.47l3.48-.48c2.26-.31,4.11-.47,5.61-.45h0Zm-146.27,4.55c.21.03.43.15.62.34.84.89,4.86,18.28,4.35,18.79-.36.36-8.46,2.45-9.72,2.51-.31.01-.56-.23-.56-.54,0-1.51,4.32-20.51,4.77-20.95.14-.14.34-.19.55-.15h0Z"/>
      </g>
    </g>
  </g>
</svg>