<?xml version="1.0" encoding="UTF-8"?>
<svg id="Layer_2" data-name="Layer 2" xmlns="http://www.w3.org/2000/svg" viewBox="0 0 8.75 19.6">
  <defs>
    <style>
      .cls-1 {
        fill: #fc0;
      }

      .cls-1, .cls-2, .cls-3, .cls-4, .cls-5, .cls-6, .cls-7, .cls-8 {
        stroke-width: 0px;
      }

      .cls-2 {
        fill: #fea;
      }

      .cls-3 {
        fill: #ffe680;
      }

      .cls-4 {
        fill: #fd5;
      }

      .cls-5 {
        fill: #025;
      }

      .cls-6 {
        fill: #003380;
      }

      .cls-7 {
        fill: #04a;
      }

      .cls-8 {
        fill: #06f;
      }
    </style>
  </defs>
  <g id="Layer_2-2" data-name="Layer 2">
    <g id="layer1">
      <g id="path2998">
        <path class="cls-7" d="m1.24,18.45l-.26.67c0,.62,6.77.61,6.77,0l-.26-.67c0,.56-6.25.55-6.25,0h0Z"/>
        <path class="cls-5" d="m4.34,19.6c-.88,0-1.71-.04-2.31-.11-.72-.09-1.07-.21-1.07-.37,0,0,0,0,0,0l.26-.67s.01-.02.03-.01c.01,0,.02.01.02.02,0,.05.09.19.97.29.58.07,1.35.1,2.17.1s1.57-.04,2.13-.1c.85-.1.94-.24.94-.29,0-.01,0-.02.02-.02.01,0,.02,0,.03.01l.26.67s0,0,0,0c0,.38-2.16.48-3.44.48Zm-3.34-.48c.01.18.72.28,1.03.32.61.07,1.43.11,2.31.11,1.92,0,3.37-.19,3.39-.43l-.24-.61c-.08.12-.4.2-.96.27-.56.07-1.32.1-2.13.1s-1.6-.04-2.17-.1c-.58-.07-.9-.16-.99-.27l-.24.61Z"/>
      </g>
      <g id="path3000">
        <path class="cls-6" d="m7.49,18.46c0,.21-1.4.38-3.12.38s-3.12-.17-3.12-.38,1.4-.38,3.12-.38,3.12.17,3.12.38Z"/>
        <path class="cls-5" d="m4.37,18.86c-.83,0-1.62-.04-2.21-.11-.62-.07-.93-.17-.93-.29s.31-.21.93-.29c.59-.07,1.38-.11,2.21-.11s1.62.04,2.21.11c.62.07.93.17.93.29s-.31.21-.93.29c-.59.07-1.38.11-2.21.11Zm0-.75c-.83,0-1.62.04-2.21.11-.66.08-.9.18-.9.25s.24.17.9.25c.59.07,1.37.11,2.21.11s1.62-.04,2.21-.11c.66-.08.9-.18.9-.25s-.24-.17-.9-.25c-.59-.07-1.37-.11-2.21-.11Z"/>
      </g>
      <g id="path3005">
        <path class="cls-4" d="m1.94,17.89l-.2.52c0,.48,5.27.47,5.27,0l-.2-.52c0,.44-4.86.43-4.86,0h0Z"/>
        <path class="cls-1" d="m4.35,18.77c-.69,0-1.33-.03-1.8-.09-.55-.07-.82-.16-.82-.28h0s.2-.52.2-.52h.02c0,.16.84.32,2.45.32,1.39,0,2.4-.13,2.4-.31h.02s.2.52.2.52c0,.25-1.38.37-2.66.37Zm-2.6-.36c0,.23,1.31.35,2.6.35.69,0,1.34-.03,1.82-.09.53-.06.82-.15.82-.26l-.19-.49c-.1.21-1.26.3-2.41.3-.64,0-1.24-.03-1.69-.08-.47-.05-.73-.13-.77-.22l-.19.49Z"/>
      </g>
      <g id="path3007">
        <path class="cls-7" d="m1.73,17.26l-.22.56c0,.52,5.72.51,5.72,0l-.22-.56c0,.48-5.28.46-5.28,0Z"/>
        <path class="cls-5" d="m4.35,18.23c-.75,0-1.44-.03-1.96-.1-.61-.07-.91-.18-.91-.31,0,0,0,0,0,0l.22-.56s.01-.02.03-.01c.01,0,.02.01.02.02,0,.03.06.15.82.24.49.06,1.14.09,1.83.09,1.48,0,2.59-.14,2.59-.33,0-.01,0-.02.02-.02.01,0,.02,0,.03.01l.22.56s0,0,0,0c0,.14-.3.24-.92.31-.53.06-1.23.1-1.98.1Zm-2.82-.41c.02.21,1.22.36,2.82.36.75,0,1.45-.03,1.98-.1.78-.09.88-.21.88-.26l-.2-.51c-.08.1-.34.17-.81.23-.47.06-1.11.09-1.8.09s-1.35-.03-1.84-.09c-.48-.06-.75-.13-.83-.23l-.2.51Z"/>
      </g>
      <g id="path3013">
        <path class="cls-8" d="m7.01,17.27c0,.18-1.18.32-2.64.32s-2.64-.14-2.64-.32,1.18-.32,2.64-.32,2.64.14,2.64.32Z"/>
        <path class="cls-5" d="m4.37,17.61c-.71,0-1.37-.03-1.87-.09-.79-.1-.79-.21-.79-.25s0-.15.79-.25c.5-.06,1.16-.09,1.87-.09s1.37.03,1.87.09c.79.1.79.21.79.25s0,.15-.79.25c-.5.06-1.16.09-1.87.09Zm0-.64c-.7,0-1.37.03-1.86.09-.73.09-.75.19-.75.2s.02.11.75.2c.5.06,1.16.09,1.86.09s1.37-.03,1.86-.09c.73-.09.75-.19.75-.2s-.02-.11-.75-.2c-.5-.06-1.16-.09-1.86-.09Z"/>
      </g>
      <g id="path3778">
        <path class="cls-4" d="m4.37,11.7l.32.02c0,1.88.11,3.84.32,5.73l-.64-.04v-5.72Z"/>
        <path class="cls-1" d="m5.03,17.47l-.67-.04v-5.74s.34.02.34.02h0c0,1.91.11,3.89.32,5.74h0Zm-.64-.06l.62.04c-.21-1.84-.32-3.82-.32-5.71l-.3-.02v5.69Z"/>
      </g>
      <g id="path3780">
        <path class="cls-4" d="m4.69,11.72l.19-.04c.06,1.9.26,3.82.51,5.7l-.39.07c-.24-1.91-.29-3.88-.32-5.73Z"/>
        <path class="cls-1" d="m5.01,17.47h0c-.25-1.98-.3-4-.32-5.75h0s.22-.05.22-.05h0c.05,1.67.22,3.48.51,5.71h0s-.41.09-.41.09Zm-.3-5.74c.03,1.73.07,3.75.32,5.71l.37-.07c-.3-2.21-.46-4.02-.51-5.67l-.17.03Z"/>
      </g>
      <g id="path3782">
        <path class="cls-4" d="m5.25,11.68h-.36c0,1.47.28,3.92.52,5.7h.72c-.33-1.79-.87-4.21-.87-5.7Z"/>
        <path class="cls-1" d="m5.39,17.39h0c-.19-1.47-.52-4.14-.52-5.71h0s.39-.02.39-.02h0c0,1.22.36,3.04.67,4.64.07.37.14.73.2,1.06h0s-.75.02-.75.02Zm-.49-5.7c0,1.56.32,4.22.51,5.67h.7c-.06-.34-.13-.69-.2-1.06-.31-1.6-.67-3.41-.67-4.62h-.34Z"/>
      </g>
      <g id="path3784">
        <path class="cls-4" d="m5.25,11.64l.28-.03c0,1.38.49,3.82,1.15,5.62l-.57.06c-.38-1.83-.87-4.3-.87-5.65h0Z"/>
        <path class="cls-1" d="m6.11,17.3h0c-.78-3.72-.87-5.01-.87-5.66h0s.31-.04.31-.04h0c0,1.43.51,3.9,1.15,5.63h0s-.59.07-.59.07Zm-.85-5.65c0,.65.09,1.95.86,5.63l.54-.05c-.64-1.73-1.14-4.19-1.15-5.6l-.26.03Z"/>
      </g>
      <g id="path3018">
        <path class="cls-4" d="m4.38,11.7l-.32.02c0,1.88-.11,3.84-.32,5.73l.64-.04v-5.72Z"/>
        <path class="cls-1" d="m3.72,17.47h0c.21-1.86.32-3.85.32-5.75h0s.34-.03.34-.03v5.74s-.67.04-.67.04Zm.34-5.74c0,1.89-.11,3.87-.32,5.71l.62-.04v-5.69s-.3.02-.3.02Z"/>
      </g>
      <g id="path3020">
        <path class="cls-4" d="m4.06,11.72l-.19-.04c-.06,1.9-.26,3.82-.51,5.7l.39.07c.24-1.91.29-3.88.32-5.73Z"/>
        <path class="cls-1" d="m3.75,17.47l-.41-.08h0c.3-2.24.46-4.04.51-5.71h0s.22.03.22.03h0c-.03,1.75-.07,3.77-.32,5.74h0Zm-.39-.1l.37.07c.25-1.96.29-3.98.32-5.71l-.17-.03c-.05,1.66-.22,3.46-.51,5.67Z"/>
      </g>
      <g id="path3022">
        <path class="cls-4" d="m3.5,11.68h.36c0,1.47-.28,3.92-.52,5.7h-.72c.33-1.79.87-4.21.87-5.7h0Z"/>
        <path class="cls-1" d="m3.36,17.39h-.75s0-.02,0-.02c.06-.33.13-.69.2-1.06.31-1.6.67-3.42.67-4.63h0s.39,0,.39,0h0c0,1.58-.32,4.25-.52,5.71h0Zm-.72-.03h.7c.19-1.45.51-4.1.51-5.67h-.34c0,1.2-.36,3.02-.67,4.62-.07.37-.14.72-.2,1.05Z"/>
      </g>
      <g id="path3024">
        <path class="cls-4" d="m3.5,11.64l-.28-.03c0,1.38-.49,3.82-1.15,5.62l.57.06c.38-1.83.87-4.3.87-5.65Z"/>
        <path class="cls-1" d="m2.65,17.3l-.59-.06h0c.64-1.75,1.15-4.22,1.15-5.63h0s.31.02.31.02h0c0,.66-.09,1.95-.87,5.66h0Zm-.56-.08l.54.05c.77-3.68.86-4.98.86-5.63l-.26-.03c0,1.41-.51,3.87-1.15,5.6Z"/>
      </g>
      <g id="path3806">
        <path class="cls-4" d="m2.87,11.6c-.17-.3-.18-.67,0-.98h3.05c.18.31.18.67,0,.98,0,.25-3.05.24-3.05,0Z"/>
        <path class="cls-1" d="m4.41,11.79c-.4,0-.78-.02-1.06-.05-.47-.05-.49-.12-.49-.15-.18-.31-.18-.68,0-.99h0s3.06,0,3.06,0h0c.18.32.18.69,0,1-.02.19-1.37.19-1.52.19Zm-1.53-1.17c-.17.3-.17.66,0,.97h0c0,.1.66.18,1.53.18s1.5-.07,1.5-.17h0s0,0,0,0c.17-.3.18-.66,0-.97h-3.03Z"/>
      </g>
      <g id="path3036">
        <path class="cls-4" d="m5.92,10.62c0-.1-.68-.18-1.52-.18s-1.52.08-1.52.18.68.18,1.52.18,1.52-.08,1.52-.18Z"/>
        <path class="cls-1" d="m4.39,10.81c-.74,0-1.53-.07-1.53-.19s.79-.19,1.53-.19,1.53.07,1.53.19-.79.19-1.53.19Zm0-.37c-.89,0-1.51.09-1.51.17s.62.17,1.51.17,1.51-.09,1.51-.17-.62-.17-1.51-.17Z"/>
      </g>
      <g id="path3796">
        <path class="cls-4" d="m4.37,4.66l1.21.07c-.57,1.7-.89,4.3-.89,5.99l-.32-.02v-6.05Z"/>
        <path class="cls-1" d="m4.71,10.74l-.34-.02v-6.07s1.23.07,1.23.07h0c-.58,1.74-.89,4.33-.89,6.01h0Zm-.32-.04l.3.02c0-1.67.3-4.25.88-5.97l-1.18-.07v6.02Z"/>
      </g>
      <g id="path3798">
        <path class="cls-4" d="m5.58,4.74l.73-.14c-.74,1.99-1.42,4.34-1.42,6.09l-.2.04c0-2.12.35-4.31.88-5.99Z"/>
        <path class="cls-1" d="m4.68,10.74h0c0-2.04.32-4.23.89-6.01h0s.76-.15.76-.15v.02c-.66,1.75-1.43,4.23-1.43,6.09h0s-.22.05-.22.05Zm.9-6c-.56,1.77-.88,3.95-.88,5.97l.17-.03c0-1.86.77-4.32,1.42-6.07l-.71.13Z"/>
      </g>
      <g id="path3802">
        <path class="cls-4" d="m8.72,4.31l-1.06.11c-1.16,2.14-2.41,4.49-2.41,6.23l.28-.03c0-1.72,1.76-4.21,3.19-6.3Z"/>
        <path class="cls-1" d="m5.24,10.66h0c0-1.79,1.34-4.26,2.41-6.24h0s1.09-.11,1.09-.11v.02c-.09.11-.17.23-.25.35-1.38,2.03-2.95,4.32-2.95,5.95h0s-.31.04-.31.04Zm2.43-6.23c-1.07,1.98-2.4,4.44-2.41,6.2l.26-.03c0-1.63,1.57-3.93,2.95-5.95.07-.11.15-.22.22-.33l-1.03.1Z"/>
      </g>
      <g id="path3800">
        <path class="cls-4" d="m6.31,4.6l1.37-.02c-1.29,1.94-2.42,4.53-2.42,6.11h-.36c0-1.58.69-4.21,1.42-6.09Z"/>
        <path class="cls-1" d="m4.88,10.7h0c0-1.63.71-4.3,1.42-6.11h0s1.4-.03,1.4-.03v.02c-1.67,2.5-2.43,4.92-2.43,6.1h0s-.39.02-.39.02Zm1.44-6.1c-.7,1.8-1.41,4.46-1.42,6.07h.34c0-.75.25-1.76.73-2.92.44-1.07,1.03-2.19,1.68-3.17l-1.34.02Z"/>
      </g>
      <g id="path3026">
        <path class="cls-4" d="m4.38,4.66l-1.21.07c.57,1.7.89,4.3.89,5.99l.32-.02v-6.05Z"/>
        <path class="cls-1" d="m4.05,10.74h0c0-1.68-.3-4.28-.89-6h0s1.23-.09,1.23-.09v6.07s-.34.02-.34.02Zm-.86-6c.58,1.72.88,4.3.88,5.97l.3-.02v-6.02s-1.18.07-1.18.07Z"/>
      </g>
      <g id="path3028">
        <path class="cls-4" d="m3.17,4.74l-.73-.14c.74,1.99,1.42,4.34,1.42,6.09l.2.04c0-2.12-.35-4.31-.88-5.99Z"/>
        <path class="cls-1" d="m4.07,10.74l-.22-.04h0c0-1.87-.77-4.35-1.42-6.1v-.02s.75.14.75.14h0c.56,1.79.89,3.97.89,6h0Zm-.2-.06l.17.03c0-2.02-.32-4.19-.88-5.97l-.71-.13c.65,1.75,1.41,4.21,1.42,6.07Z"/>
      </g>
      <g id="path3032">
        <path class="cls-4" d="m.03,4.31l1.06.11c1.16,2.14,2.41,4.49,2.41,6.23l-.28-.03C3.22,8.89,1.46,6.41.03,4.31Z"/>
        <path class="cls-1" d="m3.51,10.66l-.31-.03h0c0-1.64-1.57-3.93-2.95-5.96-.08-.12-.16-.23-.24-.35v-.02s1.08.11,1.08.11h0c1.07,1.99,2.41,4.46,2.41,6.24h0Zm-.28-.05l.26.03c0-1.77-1.34-4.23-2.41-6.2l-1.03-.1c.07.11.15.22.22.33,1.38,2.03,2.95,4.32,2.95,5.95Z"/>
      </g>
      <g id="path3030">
        <path class="cls-4" d="m2.44,4.6l-1.37-.02c1.29,1.94,2.42,4.53,2.42,6.11h.36c0-1.58-.69-4.21-1.42-6.09Z"/>
        <path class="cls-1" d="m3.87,10.7h-.39v-.02c0-1.19-.76-3.6-2.42-6.1v-.02s1.38.02,1.38.02h0c.71,1.81,1.42,4.49,1.42,6.11h0Zm-.36-.03h.34c0-1.61-.71-4.27-1.42-6.07l-1.34-.02c.65.98,1.25,2.11,1.68,3.17.47,1.16.73,2.17.73,2.92Z"/>
      </g>
      <g id="path3810">
        <path class="cls-4" d="m3.17,4.72l1.2-.07,1.2.07.73-.14,1.37-.02-.02-.16,1.06-.11-.75-.13.41-.15s-1.25-.07-1.25-.07c0,0-.35-.15-.35-.15l-1.35.03-1.02-.11-1.03.11-1.35-.03-.37.15-1.26.06.39.15-.77.13,1.07.11v.16s1.35.03,1.35.03l.73.13Z"/>
        <path class="cls-1" d="m5.58,4.75s0,0,0,0l-1.2-.07-1.2.07s0,0,0,0l-.73-.13-1.36-.03s-.01,0-.02,0c0,0,0-.01,0-.02v-.14s-1.04-.11-1.04-.11c-.01,0-.02-.01-.02-.02,0-.01,0-.02.02-.02l.69-.12-.32-.12s-.02-.01-.01-.02c0-.01.01-.02.02-.02l1.26-.06.37-.15s0,0,0,0l1.35.03,1.03-.11s0,0,0,0l1.01.11,1.35-.03s0,0,0,0c.26.11.33.14.34.15.06,0,.83.05,1.25.07.01,0,.02,0,.02.02,0,.01,0,.02-.01.02l-.33.12.67.12s.02.01.02.02c0,.01,0,.02-.02.02l-1.04.1v.14s.01.01,0,.02-.01,0-.02,0l-1.37.02-.73.14s0,0,0,0Zm-1.2-.12s0,0,0,0l1.2.07.73-.14s0,0,0,0l1.35-.02v-.14s-.01-.01,0-.02c0,0,0,0,.02,0l.9-.09-.59-.1s-.02-.01-.02-.02c0-.01,0-.02.01-.02l.3-.11c-1.04-.05-1.14-.06-1.15-.07h0s-.21-.09-.34-.15l-1.35.03s0,0,0,0l-1.01-.11-1.03.11s0,0,0,0l-1.35-.03-.37.15s0,0,0,0l-1.16.06.3.12s.02.01.01.02c0,.01,0,.02-.02.02l-.61.11.91.09s.02.01.02.02v.13s1.33.03,1.33.03c0,0,0,0,0,0l.73.13,1.2-.07s0,0,0,0Z"/>
      </g>
      <g id="path3814">
        <path class="cls-3" d="m.99,4.19C.23-1.37,8.5-1.39,7.74,4.19c-.1.36-6.66.34-6.75,0Z"/>
        <path class="cls-1" d="m4.44,4.46c-1.63,0-3.41-.08-3.46-.27h0c-.12-.84-.03-1.6.25-2.24.25-.57.66-1.06,1.19-1.4C2.99.19,3.66,0,4.37,0h0c.7,0,1.37.19,1.94.55.53.34.94.82,1.19,1.39.28.65.37,1.4.25,2.25-.04.13-.81.19-1.06.21-.59.04-1.39.06-2.25.06Zm-3.44-.28c.04.14,1.52.25,3.44.25,1.9,0,3.25-.1,3.29-.25.11-.84.03-1.59-.25-2.23-.25-.57-.66-1.05-1.18-1.38C5.74.21,5.07.02,4.37.02h0c-.7,0-1.37.19-1.93.55-.53.34-.94.82-1.18,1.39-.28.64-.37,1.39-.25,2.23Z"/>
      </g>
      <g id="path4087">
        <path class="cls-2" d="m3.05,3.66c0,.34.27.61.61.61s.61-.27.61-.61-.27-.61-.61-.61-.61.27-.61.61Z"/>
        <path class="cls-1" d="m3.66,4.27c-.34,0-.62-.28-.62-.62s.28-.62.62-.62.62.28.62.62-.28.62-.62.62Zm0-1.23c-.33,0-.61.27-.61.61s.27.61.61.61.61-.27.61-.61-.27-.61-.61-.61Z"/>
      </g>
      <g id="path4089">
        <path class="cls-2" d="m3.69,3.28l.09.23-.21.18-.22-.14.07-.25.27-.03Z"/>
        <path class="cls-1" d="m3.57,3.7h0s-.22-.14-.22-.14h0s.07-.25.07-.25h0s.27-.03.27-.03l.09.24h0s-.21.18-.21.18Zm-.22-.14l.22.13.2-.18-.08-.23-.27.03-.07.24Z"/>
      </g>
      <g id="path4091">
        <path class="cls-2" d="m3.69,3.04l.13.11c.08.02.16.05.23.09l.03-.04c-.11-.09-.25-.16-.39-.16Z"/>
        <path class="cls-1" d="m4.05,3.26h0c-.07-.04-.15-.07-.23-.09h0s-.14-.12-.14-.12h0c.13,0,.27.07.39.17h0s-.03.05-.03.05Zm-.23-.1c.08.02.16.05.23.09l.02-.04c-.11-.1-.25-.15-.37-.16l.12.11Z"/>
      </g>
      <g id="path4093">
        <path class="cls-2" d="m4.15,3.47l-.13.14.03.26h.14c.03-.07.06-.14.06-.22-.02-.07-.05-.13-.1-.18h0Z"/>
        <path class="cls-1" d="m4.19,3.88h-.14s0,0,0,0l-.03-.26h0s.13-.14.13-.14h0c.05.06.08.12.1.18h0s0,0,0,0c0,.08-.03.15-.06.22h0Zm-.14,0h.13s0,0,0,0c.03-.07.06-.14.06-.22-.02-.06-.05-.12-.1-.17l-.13.14.03.25Z"/>
      </g>
      <g id="path4095">
        <path class="cls-2" d="m3.47,3.07l-.15.14-.18.12c.07-.1.16-.21.33-.26h0Z"/>
        <path class="cls-1" d="m3.14,3.34h0c.07-.11.16-.21.34-.27h0s-.15.14-.15.14l-.18.12Zm.32-.26c-.15.05-.24.15-.31.24l.17-.11.14-.13Z"/>
      </g>
      <g id="path4097">
        <path class="cls-2" d="m3.06,3.55l.11.14c0,.09.02.16.04.24l-.07.03c-.05-.11-.11-.21-.08-.42h0Z"/>
        <path class="cls-1" d="m3.13,3.97v-.02c-.06-.1-.11-.21-.08-.4h0s.12.14.12.14h0c0,.06.01.12.03.18,0,.02,0,.04.01.06h0s-.08.04-.08.04Zm-.07-.41c-.03.19.02.29.07.39h0s.07-.01.07-.01c0-.02,0-.04-.01-.06-.01-.06-.03-.12-.03-.18l-.11-.13Z"/>
      </g>
      <g id="path4099">
        <path class="cls-2" d="m3.83,4.04l-.23-.09-.18.12c.02.05.06.1.12.14.1,0,.2,0,.26-.02l.04-.15Z"/>
        <path class="cls-1" d="m3.63,4.22s-.06,0-.1,0h0s0,0,0,0c-.04-.03-.1-.08-.12-.14h0s.19-.12.19-.12h0s.23.09.23.09l-.04.15h0s-.09.03-.16.03Zm-.09-.01c.12.01.2,0,.25-.02l.04-.14-.23-.09-.18.12c.02.06.07.1.11.14Z"/>
      </g>
      <g id="path4101">
        <path class="cls-2" d="m4.02,3.62l-.25-.1"/>
        <rect class="cls-1" x="3.89" y="3.43" width="0" height=".26" transform="translate(-.86 5.85) rotate(-68.13)"/>
      </g>
      <g id="path4103">
        <path class="cls-2" d="m4.05,3.25c.06.08.08.14.1.23"/>
        <path class="cls-1" d="m4.15,3.48c-.02-.09-.04-.14-.1-.22h0c.06.08.08.13.1.22h0Z"/>
      </g>
      <g id="path4105">
        <path class="cls-2" d="m3.82,3.16c-.07.05-.1.07-.14.13"/>
        <path class="cls-1" d="m3.69,3.29h0s.06-.07.11-.11c0,0,.02-.01.03-.02h0s-.02.02-.03.03c-.05.04-.08.06-.11.1Z"/>
      </g>
      <g id="path4107">
        <path class="cls-2" d="m3.42,3.31l-.09-.1"/>
        <rect class="cls-1" x="3.37" y="3.19" width="0" height=".14" transform="translate(-1.32 3.22) rotate(-43.56)"/>
      </g>
      <g id="path4109">
        <path class="cls-2" d="m3.35,3.56c-.07.04-.12.08-.18.14"/>
        <path class="cls-1" d="m3.17,3.7h0c.07-.07.11-.1.18-.14h0c-.07.05-.11.08-.18.14Z"/>
      </g>
      <g id="path4111">
        <path class="cls-2" d="m3.57,3.69l.04.26"/>
        <rect class="cls-1" x="3.58" y="3.69" width="0" height=".26" transform="translate(-.49 .53) rotate(-7.89)"/>
      </g>
      <g id="path4113">
        <path class="cls-2" d="m3.83,4.04c.1-.05.15-.09.22-.17"/>
        <path class="cls-1" d="m3.83,4.05h0c.1-.05.14-.09.21-.18h0c-.07.09-.12.13-.22.18Z"/>
      </g>
      <g id="path4115">
        <path class="cls-2" d="m4.25,3.65h.02"/>
        <rect class="cls-1" x="4.25" y="3.65" width=".02" height="0" transform="translate(-.55 .77) rotate(-9.7)"/>
      </g>
      <g id="path4117">
        <path class="cls-2" d="m4.18,3.88v.1"/>
        <rect class="cls-1" x="4.18" y="3.88" width="0" height=".1" transform="translate(-.12 .13) rotate(-1.78)"/>
      </g>
      <g id="path4119">
        <path class="cls-2" d="m3.79,4.19s.09.01.15.01"/>
        <path class="cls-1" d="m3.87,4.21s-.05,0-.08-.01h0s.08,0,.12,0c0,0,.02,0,.03,0h0s-.02,0-.03,0c-.02,0-.03,0-.05,0Z"/>
      </g>
      <g id="path4121">
        <path class="cls-2" d="m3.54,4.21l-.03.04"/>
        <rect class="cls-1" x="3.5" y="4.22" width=".05" height="0" transform="translate(-1.98 4.37) rotate(-51.71)"/>
      </g>
      <g id="path4123">
        <path class="cls-2" d="m3.42,4.07c-.09-.03-.14-.08-.21-.13"/>
        <path class="cls-1" d="m3.42,4.07c-.08-.03-.13-.07-.19-.12,0,0-.02-.01-.02-.02h0s.02,0,.02.01c.06.05.11.09.19.12h0Z"/>
      </g>
      <g id="path4277">
        <path class="cls-2" d="m1.6,3.58c0,.34.27.61.61.61s.61-.27.61-.61-.27-.61-.61-.61-.61.27-.61.61Z"/>
        <path class="cls-1" d="m2.21,4.2c-.34,0-.62-.28-.62-.62s.28-.62.62-.62.62.28.62.62-.28.62-.62.62Zm0-1.23c-.33,0-.61.27-.61.61s.27.61.61.61.61-.27.61-.61-.27-.61-.61-.61Z"/>
      </g>
      <g id="path4279">
        <path class="cls-2" d="m2.24,3.21l.09.23-.21.18-.22-.14.07-.25.27-.03Z"/>
        <path class="cls-1" d="m2.12,3.62h0s-.22-.14-.22-.14h0s.07-.25.07-.25h0s.27-.03.27-.03l.09.24h0s-.21.18-.21.18Zm-.22-.14l.22.13.2-.18-.08-.23-.27.03-.07.24Z"/>
      </g>
      <g id="path4281">
        <path class="cls-2" d="m2.24,2.97l.13.11c.08.02.16.05.23.09l.03-.04c-.11-.09-.25-.16-.39-.16Z"/>
        <path class="cls-1" d="m2.6,3.18h0c-.07-.04-.15-.07-.23-.09h0s-.14-.12-.14-.12h0c.13,0,.27.07.39.17h0s-.03.05-.03.05Zm-.23-.1c.08.02.16.05.23.09l.02-.04c-.11-.1-.25-.15-.37-.16l.12.11Z"/>
      </g>
      <g id="path4283">
        <path class="cls-2" d="m2.7,3.4l-.13.14.03.26h.14c.03-.07.06-.14.06-.22-.02-.07-.05-.13-.1-.18Z"/>
        <path class="cls-1" d="m2.74,3.8h-.14s0,0,0,0l-.03-.26h0s.13-.14.13-.14h0c.05.06.08.12.1.18h0s0,0,0,0c0,.08-.03.15-.06.22h0Zm-.14,0h.13s0,0,0,0c.03-.07.06-.14.06-.22-.02-.06-.05-.12-.1-.17l-.13.14.03.25Z"/>
      </g>
      <g id="path4285">
        <path class="cls-2" d="m2.02,3l-.15.14-.18.12c.07-.1.16-.21.33-.26Z"/>
        <path class="cls-1" d="m1.69,3.26h0c.07-.11.16-.21.34-.27h0s-.15.14-.15.14l-.18.12Zm.32-.26c-.15.05-.24.15-.31.24l.17-.11.14-.13Z"/>
      </g>
      <g id="path4287">
        <path class="cls-2" d="m1.61,3.47l.11.14c0,.09.02.16.04.24l-.07.03c-.05-.11-.11-.21-.08-.42Z"/>
        <path class="cls-1" d="m1.68,3.89v-.02c-.06-.1-.11-.21-.08-.4h0s.12.14.12.14h0c0,.06.01.12.03.18,0,.02,0,.04.01.06h0s-.08.04-.08.04Zm-.07-.41c-.03.19.02.29.07.39h0s.07-.01.07-.01c0-.02,0-.04-.01-.06-.01-.06-.03-.12-.03-.18l-.11-.13Z"/>
      </g>
      <g id="path4289">
        <path class="cls-2" d="m2.38,3.97l-.23-.09-.18.12c.02.05.06.1.12.14.1,0,.2,0,.26-.02l.04-.15Z"/>
        <path class="cls-1" d="m2.18,4.14s-.06,0-.1,0h0s0,0,0,0c-.04-.03-.1-.08-.12-.14h0s.19-.12.19-.12h0s.23.09.23.09l-.04.15h0s-.09.03-.16.03Zm-.09-.01c.12.01.2,0,.25-.02l.04-.14-.23-.09-.18.12c.02.06.07.1.11.14Z"/>
      </g>
      <g id="path4291">
        <path class="cls-2" d="m2.57,3.54l-.25-.1"/>
        <rect class="cls-1" x="2.44" y="3.36" width="0" height=".26" transform="translate(-1.7 4.46) rotate(-68.13)"/>
      </g>
      <g id="path4293">
        <path class="cls-2" d="m2.6,3.17c.06.08.08.14.1.23"/>
        <path class="cls-1" d="m2.7,3.4c-.02-.09-.04-.14-.1-.22h0c.06.08.08.13.1.22h0Z"/>
      </g>
      <g id="path4295">
        <path class="cls-2" d="m2.37,3.08c-.07.05-.1.07-.14.13"/>
        <path class="cls-1" d="m2.24,3.21h0s.06-.07.11-.11c0,0,.02-.01.03-.02h0s-.02.02-.03.03c-.05.04-.08.06-.11.1Z"/>
      </g>
      <g id="path4297">
        <path class="cls-2" d="m1.97,3.23l-.09-.1"/>
        <rect class="cls-1" x="1.92" y="3.12" width="0" height=".14" transform="translate(-1.67 2.2) rotate(-43.56)"/>
      </g>
      <g id="path4299">
        <path class="cls-2" d="m1.9,3.48c-.07.04-.12.08-.18.14"/>
        <path class="cls-1" d="m1.72,3.62h0c.07-.07.11-.1.18-.14h0c-.07.05-.11.08-.18.14Z"/>
      </g>
      <g id="path4301">
        <path class="cls-2" d="m2.12,3.62l.04.26"/>
        <rect class="cls-1" x="2.13" y="3.62" width="0" height=".26" transform="translate(-.49 .33) rotate(-7.89)"/>
      </g>
      <g id="path4303">
        <path class="cls-2" d="m2.38,3.97c.1-.05.15-.09.22-.17"/>
        <path class="cls-1" d="m2.38,3.97h0c.1-.05.14-.09.21-.18h0c-.07.09-.12.13-.22.18Z"/>
      </g>
      <g id="path4305">
        <path class="cls-2" d="m2.8,3.58h.02"/>
        <rect class="cls-1" x="2.8" y="3.57" width=".02" height="0" transform="translate(-.56 .52) rotate(-9.7)"/>
      </g>
      <g id="path4307">
        <path class="cls-2" d="m2.73,3.8v.1"/>
        <rect class="cls-1" x="2.73" y="3.8" width="0" height=".1" transform="translate(-.12 .09) rotate(-1.79)"/>
      </g>
      <g id="path4309">
        <path class="cls-2" d="m2.34,4.11s.09.01.15.01"/>
        <path class="cls-1" d="m2.42,4.13s-.05,0-.08-.01h0s.08,0,.12,0c0,0,.02,0,.03,0h0s-.02,0-.03,0c-.02,0-.03,0-.05,0Z"/>
      </g>
      <g id="path4311">
        <path class="cls-2" d="m2.09,4.13l-.03.04"/>
        <rect class="cls-1" x="2.05" y="4.15" width=".05" height="0" transform="translate(-2.47 3.21) rotate(-51.71)"/>
      </g>
      <g id="path4313">
        <path class="cls-2" d="m1.97,4c-.09-.03-.14-.08-.21-.13"/>
        <path class="cls-1" d="m1.97,4c-.08-.03-.13-.07-.19-.12,0,0-.02-.01-.02-.02h0s.02,0,.02.01c.06.05.11.09.19.12h0Z"/>
      </g>
      <g id="path4391">
        <path class="cls-2" d="m7.17,3.58c0,.34-.27.61-.61.61s-.61-.27-.61-.61.27-.61.61-.61.61.27.61.61Z"/>
        <path class="cls-1" d="m6.55,4.2c-.34,0-.62-.28-.62-.62s.28-.62.62-.62.62.28.62.62-.28.62-.62.62Zm0-1.23c-.33,0-.61.27-.61.61s.27.61.61.61.61-.27.61-.61-.27-.61-.61-.61Z"/>
      </g>
      <g id="path4393">
        <path class="cls-2" d="m6.53,3.21l-.09.23.21.18.22-.14-.07-.25-.27-.03Z"/>
        <path class="cls-1" d="m6.65,3.62h0s-.21-.18-.21-.18l.09-.24h0s.27.03.27.03l.07.25-.22.14Zm-.2-.18l.2.18.22-.13-.07-.24-.27-.03-.08.23Z"/>
      </g>
      <g id="path4395">
        <path class="cls-2" d="m6.52,2.97l-.13.11c-.08.02-.16.05-.23.09l-.03-.04c.11-.09.25-.16.39-.16h0Z"/>
        <path class="cls-1" d="m6.16,3.18l-.03-.05h0c.12-.1.26-.16.39-.17h0s-.14.12-.14.12c-.08.02-.16.05-.23.09h0Zm-.02-.05l.02.04c.07-.04.15-.07.23-.09l.12-.11c-.13,0-.26.07-.38.16Z"/>
      </g>
      <g id="path4397">
        <path class="cls-2" d="m6.07,3.4l.13.14-.03.26h-.14c-.03-.07-.06-.14-.06-.22.02-.07.05-.13.1-.18h0Z"/>
        <path class="cls-1" d="m6.03,3.8h0c-.03-.07-.06-.15-.06-.23h0s0,0,0,0c.02-.07.05-.13.1-.18h0s.14.14.14.14l-.03.26h-.14Zm-.06-.23c0,.08.03.15.06.22h0s.13,0,.13,0l.03-.25-.13-.14c-.04.05-.08.11-.1.17Z"/>
      </g>
      <g id="path4399">
        <path class="cls-2" d="m6.74,3l.15.14.18.12c-.07-.1-.16-.21-.33-.26Z"/>
        <path class="cls-1" d="m7.07,3.26l-.18-.12-.15-.14h0c.17.05.26.15.34.26h0Zm-.32-.26l.14.13.17.11c-.07-.09-.15-.19-.31-.24Z"/>
      </g>
      <g id="path4401">
        <path class="cls-2" d="m7.16,3.47l-.11.14c0,.09-.02.16-.04.24l.07.03c.05-.11.11-.21.08-.42h0Z"/>
        <path class="cls-1" d="m7.08,3.89l-.08-.03h0s0-.05.01-.07c.01-.06.03-.12.03-.18h0s.12-.15.12-.15h0c.03.2-.02.31-.07.41v.02Zm-.07-.04l.07.03h0c.05-.11.1-.22.07-.4l-.11.13c0,.06-.01.12-.03.18,0,.02,0,.04-.01.06Z"/>
      </g>
      <g id="path4403">
        <path class="cls-2" d="m6.38,3.97l.23-.09.18.12c-.02.05-.06.1-.12.14-.1,0-.2,0-.26-.02l-.04-.15Z"/>
        <path class="cls-1" d="m6.58,4.14c-.07,0-.12,0-.16-.03h0s-.04-.15-.04-.15l.24-.09h0s.18.12.18.12h0c-.02.06-.07.11-.12.14h0s0,0,0,0c-.04,0-.07,0-.1,0Zm-.16-.03c.05.03.14.03.25.02.04-.03.09-.08.11-.14l-.18-.12-.23.09.04.14Z"/>
      </g>
      <g id="path4405">
        <path class="cls-2" d="m6.2,3.54l.25-.1"/>
        <rect class="cls-1" x="6.19" y="3.49" width=".26" height="0" transform="translate(-.85 2.62) rotate(-22)"/>
      </g>
      <g id="path4407">
        <path class="cls-2" d="m6.16,3.17c-.06.08-.08.14-.1.23"/>
        <path class="cls-1" d="m6.07,3.4h0c.02-.09.04-.15.1-.23h0c-.06.08-.07.14-.1.23Z"/>
      </g>
      <g id="path4409">
        <path class="cls-2" d="m6.39,3.08c.07.05.1.07.14.13"/>
        <path class="cls-1" d="m6.53,3.21s-.06-.07-.11-.1c0,0-.02-.01-.03-.02h0s.02,0,.03.02c.05.04.08.06.11.11h0Z"/>
      </g>
      <g id="path4411">
        <path class="cls-2" d="m6.8,3.23l.09-.1"/>
        <rect class="cls-1" x="6.78" y="3.18" width=".14" height="0" transform="translate(-.18 5.95) rotate(-46.47)"/>
      </g>
      <g id="path4413">
        <path class="cls-2" d="m6.87,3.48c.07.04.12.08.18.14"/>
        <path class="cls-1" d="m7.04,3.62c-.07-.06-.11-.09-.18-.13h0c.07.04.11.07.18.13h0Z"/>
      </g>
      <g id="path4415">
        <path class="cls-2" d="m6.65,3.62l-.04.26"/>
        <rect class="cls-1" x="6.5" y="3.74" width=".26" height="0" transform="translate(2.01 9.8) rotate(-82.15)"/>
      </g>
      <g id="path4417">
        <path class="cls-2" d="m6.38,3.97c-.1-.05-.15-.09-.22-.17"/>
        <path class="cls-1" d="m6.38,3.97c-.1-.05-.15-.09-.22-.17h0c.07.08.12.12.21.16h0Z"/>
      </g>
      <g id="path4419">
        <path class="cls-2" d="m5.97,3.58h-.02"/>
        <rect class="cls-1" x="5.95" y="3.56" width="0" height=".02" transform="translate(1.42 8.84) rotate(-80.24)"/>
      </g>
      <g id="path4421">
        <path class="cls-2" d="m6.03,3.8v.1"/>
        <rect class="cls-1" x="5.98" y="3.85" width=".1" height="0" transform="translate(1.99 9.75) rotate(-88.18)"/>
      </g>
      <g id="path4423">
        <path class="cls-2" d="m6.42,4.11s-.09.01-.15.01"/>
        <path class="cls-1" d="m6.35,4.13s-.03,0-.05,0c0,0-.02,0-.03,0h0s.02,0,.03,0c.05,0,.09,0,.12-.01h0s-.05.02-.08.02Z"/>
      </g>
      <g id="path4425">
        <path class="cls-2" d="m6.68,4.13l.03.04"/>
        <rect class="cls-1" x="6.69" y="4.13" width="0" height=".05" transform="translate(-1.13 5.05) rotate(-38.35)"/>
      </g>
      <g id="path4427">
        <path class="cls-2" d="m6.79,4c.09-.03.14-.08.21-.13"/>
        <path class="cls-1" d="m6.79,4h0c.08-.03.13-.07.19-.12,0,0,.02-.01.02-.02h0s-.02.02-.02.02c-.06.05-.11.09-.19.12Z"/>
      </g>
      <g id="path4429">
        <path class="cls-2" d="m8.59,3.43c0,.34-.27.61-.61.61s-.61-.27-.61-.61.27-.61.61-.61.61.27.61.61Z"/>
        <path class="cls-1" d="m7.98,4.05c-.34,0-.62-.28-.62-.62s.28-.62.62-.62.62.28.62.62-.28.62-.62.62Zm0-1.23c-.33,0-.61.27-.61.61s.27.61.61.61.61-.27.61-.61-.27-.61-.61-.61Z"/>
      </g>
      <g id="path4431">
        <path class="cls-2" d="m7.95,3.06l-.09.23.21.18.22-.14-.07-.25-.27-.03Z"/>
        <path class="cls-1" d="m8.07,3.47h0s-.21-.18-.21-.18l.09-.24h0s.27.03.27.03l.07.25-.22.14Zm-.2-.18l.2.18.22-.13-.07-.24-.27-.03-.08.23Z"/>
      </g>
      <g id="path4433">
        <path class="cls-2" d="m7.95,2.82l-.13.11c-.08.02-.16.05-.23.09l-.03-.04c.11-.09.25-.16.39-.16h0Z"/>
        <path class="cls-1" d="m7.58,3.03l-.03-.05h0c.12-.1.26-.16.39-.17h0s-.14.12-.14.12c-.08.02-.16.05-.23.09h0Zm-.02-.05l.02.04c.07-.04.15-.07.23-.09l.12-.11c-.13,0-.26.07-.37.16Z"/>
      </g>
      <g id="path4435">
        <path class="cls-2" d="m7.49,3.25l.13.14-.03.26h-.14c-.03-.07-.06-.14-.06-.22.02-.07.05-.13.1-.18h0Z"/>
        <path class="cls-1" d="m7.45,3.65h0c-.03-.07-.06-.15-.06-.23h0s0,0,0,0c.02-.07.05-.13.1-.18h0s.14.14.14.14l-.03.26h-.14Zm-.06-.23c0,.08.03.15.06.22h0s.13,0,.13,0l.03-.25-.13-.14c-.04.05-.08.11-.1.17Z"/>
      </g>
      <g id="path4437">
        <path class="cls-2" d="m8.16,2.85l.15.14.18.12c-.07-.1-.16-.21-.33-.26Z"/>
        <path class="cls-1" d="m8.5,3.11l-.18-.12-.15-.14h0c.17.05.26.15.34.26h0Zm-.32-.26l.14.13.17.11c-.07-.09-.15-.19-.31-.24Z"/>
      </g>
      <g id="path4439">
        <path class="cls-2" d="m8.58,3.32l-.11.14c0,.09-.02.16-.04.24l.07.03c.05-.11.11-.21.08-.42h0Z"/>
        <path class="cls-1" d="m8.51,3.75l-.08-.03h0s0-.05.01-.07c.01-.06.03-.12.03-.18h0s.12-.15.12-.15h0c.03.2-.02.31-.07.41v.02Zm-.07-.04l.07.03h0c.05-.11.1-.22.07-.4l-.11.13c0,.06-.01.12-.03.18,0,.02,0,.04-.01.06Z"/>
      </g>
      <g id="path4441">
        <path class="cls-2" d="m7.8,3.82l.23-.09.18.12c-.02.05-.06.1-.12.14-.1,0-.2,0-.26-.02l-.04-.15Z"/>
        <path class="cls-1" d="m8.01,3.99c-.07,0-.12,0-.16-.03h0s-.04-.15-.04-.15l.24-.09h0s.18.12.18.12h0c-.02.06-.07.11-.12.14h0s0,0,0,0c-.04,0-.07,0-.1,0Zm-.16-.03c.05.03.14.03.25.02.04-.03.09-.08.11-.14l-.18-.12-.23.09.04.14Z"/>
      </g>
      <g id="path4443">
        <path class="cls-2" d="m7.62,3.39l.25-.1"/>
        <rect class="cls-1" x="7.61" y="3.34" width=".26" height="0" transform="translate(-.69 3.14) rotate(-22)"/>
      </g>
      <g id="path4445">
        <path class="cls-2" d="m7.58,3.02c-.06.08-.08.14-.1.23"/>
        <path class="cls-1" d="m7.49,3.25h0c.02-.09.04-.15.1-.23h0c-.06.08-.07.14-.1.23Z"/>
      </g>
      <g id="path4447">
        <path class="cls-2" d="m7.82,2.93c.07.05.1.07.14.13"/>
        <path class="cls-1" d="m7.95,3.06s-.06-.07-.11-.1c0,0-.02-.01-.03-.02h0s.02,0,.03.02c.05.04.08.06.11.11h0Z"/>
      </g>
      <g id="path4449">
        <path class="cls-2" d="m8.22,3.09l.09-.1"/>
        <rect class="cls-1" x="8.2" y="3.03" width=".14" height="0" transform="translate(.37 6.94) rotate(-46.47)"/>
      </g>
      <g id="path4451">
        <path class="cls-2" d="m8.29,3.33c.07.04.12.08.18.14"/>
        <path class="cls-1" d="m8.47,3.47c-.07-.06-.11-.09-.18-.13h0c.07.04.11.07.18.13h0Z"/>
      </g>
      <g id="path4453">
        <path class="cls-2" d="m8.07,3.47l-.04.26"/>
        <rect class="cls-1" x="7.92" y="3.6" width=".26" height="0" transform="translate(3.39 11.09) rotate(-82.15)"/>
      </g>
      <g id="path4455">
        <path class="cls-2" d="m7.81,3.82c-.1-.05-.15-.09-.22-.17"/>
        <path class="cls-1" d="m7.8,3.82c-.1-.05-.15-.09-.22-.17h0c.07.08.12.12.21.16h0Z"/>
      </g>
      <g id="path4457">
        <path class="cls-2" d="m7.39,3.43h-.02"/>
        <rect class="cls-1" x="7.37" y="3.41" width="0" height=".02" transform="translate(2.75 10.12) rotate(-80.28)"/>
      </g>
      <g id="path4459">
        <path class="cls-2" d="m7.45,3.65v.1"/>
        <rect class="cls-1" x="7.4" y="3.7" width=".1" height="0" transform="translate(3.52 11.03) rotate(-88.18)"/>
      </g>
      <g id="path4461">
        <path class="cls-2" d="m7.84,3.96s-.09.01-.15.01"/>
        <path class="cls-1" d="m7.77,3.98s-.03,0-.05,0c0,0-.02,0-.03,0h0s.02,0,.03,0c.05,0,.09,0,.12-.01h0s-.05.02-.08.02Z"/>
      </g>
      <g id="path4463">
        <path class="cls-2" d="m8.1,3.99l.03.04"/>
        <rect class="cls-1" x="8.11" y="3.98" width="0" height=".05" transform="translate(-.73 5.9) rotate(-38.35)"/>
      </g>
      <g id="path4465">
        <path class="cls-2" d="m8.22,3.85c.09-.03.14-.08.21-.13"/>
        <path class="cls-1" d="m8.22,3.85h0c.08-.03.13-.07.19-.12,0,0,.02-.01.02-.02h0s-.02.02-.02.02c-.06.05-.11.09-.19.12Z"/>
      </g>
      <g id="path4467">
        <path class="cls-4" d="m6.2,1.99h.16s.03.16.03.16l.04.14-.11.06-.02.12-.05.12-.1.08v.1s-.1.1-.1.1l-.13-.02v-.13s-.07-.11-.07-.11l.12-.12.03-.1-.04-.13.03-.14.13.07.06-.02v-.09s.03-.09.03-.09Z"/>
        <path class="cls-1" d="m6.06,2.88l-.15-.02v-.13s-.08-.12-.08-.12l.13-.12.03-.09-.04-.13.03-.16.13.08.05-.02v-.08s.03-.1.03-.1h.18s.03.17.03.17l.04.15-.11.06-.02.12-.06.12-.09.08v.1s-.1.11-.1.11Zm-.13-.04l.12.02.08-.1v-.1s.11-.08.11-.08l.05-.11.02-.12.11-.06-.04-.14-.03-.14h-.14s-.02.07-.02.07v.09s-.09.03-.09.03l-.12-.07-.03.12.04.13-.03.11-.12.11.08.11v.12Z"/>
      </g>
      <g id="path4469">
        <path class="cls-4" d="m5.89,1.26l-.23-.04-.14-.19-.17-.17-.16-.16-.11-.12-.16-.09-.08-.08h-.4s-.16.03-.16.03h-.43s-.09-.04-.09-.04l-.06-.04h-.17s-.05,0-.05,0l-.2.1-.19.04-.11.09-.14.07-.12.11-.16.09-.11.19.02.06-.04.07v.1s0,.1,0,.1h.09s.01.09.04.09.13.02.13.02h.08s.19.01.19.01l.14-.1.28-.11.23.05v.16s.08.13.08.13h.17s.17.18.17.18l.12.17-.07.22v.14s.09.16.09.16l.08.2.04.21.03.16.13.13.17-.03.13-.04.09.04.14-.07.04-.13.06-.18.12-.04.09-.19.06-.14.08-.04.09-.06.02-.12-.03-.07v-.1s.06-.05.06-.05v-.09s-.07-.05-.07-.05l-.03-.08.04-.09.06-.02.1-.11h.12s.19-.07.19-.07v-.08s-.03-.1-.03-.1l-.07-.04Z"/>
        <path class="cls-1" d="m4.47,3.23l-.14-.13-.03-.16-.04-.21-.08-.2-.08-.17-.02-.14.07-.22-.12-.17-.16-.17h-.17s-.08-.15-.08-.15v-.15s-.23-.05-.23-.05l-.28.11-.14.1h-.19l-.08-.02s-.11-.02-.13-.02c-.03,0-.04-.05-.05-.08h-.09s0-.12,0-.12v-.11s.04-.07.04-.07l-.02-.06.12-.19.16-.09.12-.11.14-.07.11-.09.18-.04.21-.1h.23s.06.03.06.03l.08.05h.2s.23,0,.23,0l.16-.04h0s.4.01.4.01l.08.08.16.09.11.12.16.16.17.17.14.19.23.04.07.04.04.11v.09s-.21.08-.21.08h-.12s-.1.1-.1.1l-.06.02-.04.08.03.08.06.05.02.1-.05.05v.09s.02.07.02.07l-.02.12-.09.06-.08.04-.06.14-.09.19-.12.04-.06.17-.04.13-.15.07-.09-.04-.13.04-.18.03Zm-.12-.14l.13.12.17-.03.13-.04.09.04.13-.07.04-.13.06-.18.12-.04.08-.18.06-.14.08-.05.08-.06.02-.11-.03-.07v-.1s.06-.05.06-.05v-.08s-.07-.05-.07-.05l-.03-.09.05-.1.06-.02.1-.11h.12s.18-.06.18-.06v-.07s-.03-.1-.03-.1l-.07-.04-.23-.04-.15-.2-.17-.17-.16-.16-.11-.11-.16-.09-.08-.08h-.39s-.16.03-.16.03h-.44s-.09-.05-.09-.05l-.05-.04h-.17s-.05,0-.05,0l-.2.1-.18.04-.11.09-.14.07-.12.11-.16.09-.11.18.02.06-.04.07v.1s0,.09,0,.09h.09s0,.02,0,.02c0,.03.02.07.03.07.03,0,.13.02.13.02h.08s.18.01.18.01l.14-.1.29-.11.25.05v.17s.08.13.08.13h.17s.17.19.17.19l.12.18-.07.23v.13s.09.16.09.16l.08.2.05.21.03.15Z"/>
      </g>
      <g id="path4471">
        <path class="cls-4" d="m7.39,1.76l-.16-.16s0-.07-.01-.07-.1-.08-.1-.08l-.07-.14-.1-.06-.07-.1-.08-.13.12.08.06.07s.07.09.08.1c0,0,.1.15.1.15l.08.09.02.09.07.07.06.11Z"/>
        <path class="cls-1" d="m7.38,1.77l-.16-.17h0s0-.07-.01-.07c0,0-.05-.04-.1-.08h0s-.07-.14-.07-.14l-.1-.06-.07-.1-.08-.13h.02s.12.07.12.07l.06.07s.07.09.08.1c0,0,0,0,.11.15l.08.09.02.09.07.07.06.11h-.02Zm-.14-.18l.11.11-.02-.04-.07-.07-.02-.09-.08-.09c-.04-.07-.1-.14-.1-.15,0,0,0,0-.08-.1l-.06-.07-.07-.05.05.09.07.1.1.06.07.14c.1.08.1.08.1.09,0,0,0,.05.01.07Z"/>
      </g>
      <g id="path4473">
        <path class="cls-4" d="m6.7.95l-.09-.07v-.09c-.23-.17-.46-.33-.71-.44l-.12-.03.11.1-.22-.11-.14-.06h.17s-.37-.11-.37-.11l-.31-.07-.32-.04-.12-.02-.06.02h-.16s-.12-.02-.12-.02l-.09.03h-.14s-.09.03-.09.03l-.14.04h.16s-.08.03-.08.03h-.13s-.08.03-.08.03v.06s.11.02.11.02l.09-.03h.1s.05-.04.05-.04l.11-.03.12-.02h.08l.13.06-.02.06.1-.04h.08s.02-.03.02-.03l-.16-.04s-.04-.01-.04-.01c0,0,.05-.01.05-.01h.06s.12.05.12.05l.03.04.08.05s.04.04.05.04.04-.01.04-.01v-.05l-.05-.03s-.05-.02-.04-.02c0,0,.07-.02.07-.02l.04.04h.05s-.01.04-.01.04l.06.04.08.04.06.03h.08s.13-.02.13-.02h.05s-.06.08-.06.08l.08.04-.06.06.04.06.13.04.02.08.14.03.07.03-.03.08.12.02h.08s.05.04.05.04l-.05.06h-.06s.02.06.02.06l.05.03h.07s.12.04.12.04h.06s.03-.02.03-.02v-.07s.08-.02.08-.02l.06.02h.04s0-.09,0-.09l-.06-.08-.06-.03-.1-.03h-.08s-.12-.07-.12-.07l-.07-.03-.02-.05h.1l.09.04.04.04.06.04.14.03.04.04.09.05h.07s0-.06,0-.06l.09.05.03.05.15.06Z"/>
        <path class="cls-1" d="m6.11,1.1h-.06s-.12-.04-.12-.04h-.08s-.05-.04-.05-.04l-.02-.07h.07s.04-.06.04-.06l-.04-.03h-.08s-.13-.03-.13-.03l.03-.08-.06-.03-.14-.03-.02-.08-.13-.04-.05-.07.05-.06-.08-.04.06-.06h-.03s-.13,0-.13,0h-.09s-.14-.06-.14-.06l-.06-.05v-.04s-.03,0-.03,0l-.03-.03s-.03,0-.04.01c0,0,.01,0,.02,0l.06.03v.07h0s-.03.01-.04.01c0,0-.01,0-.05-.04l-.08-.05-.02-.04-.12-.05h-.06s0,0-.02,0c0,0,0,0,0,0l.18.04-.03.05h-.09s-.12.04-.12.04l.02-.07-.12-.05h-.08l-.12.02-.1.03-.05.03h-.1s-.09.04-.09.04l-.13-.03v-.08s.1-.03.1-.03h.13s.03-.01.03-.01h-.1s0-.02,0-.02l.14-.04.09-.03h.14s.1-.03.1-.03l.12.03h.15s.06-.04.06-.04l.12.02.32.04.31.07.37.12v.02s-.11,0-.11,0l.08.03.14.07-.08-.07.16.03c.22.1.44.24.71.44h0s0,.09,0,.09l.09.07v.02s-.16-.06-.16-.06l-.03-.05-.07-.04v.04s-.07,0-.07,0l-.09-.05-.04-.04-.14-.04-.06-.04-.04-.04-.09-.04h-.08v.03s.2.09.2.09h.08s.1.04.1.04l.06.03.06.08v.09s-.05.01-.05.01l-.06-.02-.07.02v.06s-.04.03-.04.03Zm-.25-.06h.07s.12.04.12.04h.05s.03-.02.03-.02v-.07s.09-.03.09-.03l.06.02h.03s0-.08,0-.08l-.06-.08-.05-.03-.1-.03h-.08s-.19-.1-.19-.1l-.03-.07h.12s.09.05.09.05l.04.04.06.03.14.03.05.05.09.04h.05s0-.06,0-.06l.11.06.03.05.08.03-.04-.03v-.09c-.27-.2-.49-.34-.71-.44l-.08-.02.08.07v.02s-.23-.11-.23-.11l-.14-.06v-.02s.09,0,.09,0l-.29-.09-.31-.07-.32-.04-.12-.02-.06.02h-.16s-.12-.02-.12-.02l-.09.03h-.14s-.09.03-.09.03l-.07.02h.08s0,.02,0,.02l-.09.03h-.13s-.08.03-.08.03v.05s.1.02.1.02l.09-.03h.1s.05-.04.05-.04l.11-.03.13-.02h.08s.14.06.14.06l-.02.05.08-.03h.08s0-.02,0-.02l-.15-.03s-.05-.02-.05-.02h0s0-.01,0-.01c0,0,.05-.01.05-.01h.06s.13.05.13.05l.03.05.08.05s.04.03.04.04c0,0,.01,0,.03,0v-.04l-.04-.02s-.05-.02-.05-.03h0s0-.01,0-.01c0,0,.06-.02.07-.02h0s.04.03.04.03h.07s-.02.05-.02.05l.05.04.13.06h.08s.13-.02.13-.02l.07.02-.06.07.08.04-.06.07.04.05.14.04.02.08.14.03.08.04-.03.08.1.02h.09s.06.05.06.05l-.06.07h-.05s.01.04.01.04l.04.02Z"/>
      </g>
      <g id="path4475">
        <path class="cls-4" d="m1.21,2.07s.02.04.03.04.04.03.04.03c0,0-.01.05.01.04.03,0,.09-.02.09-.02l.02.07-.02.04.09.1v.09l-.09.06-.06.1-.07.15-.04.04v.15s.01.11.01.11l-.03.12-.23-.05v-.21s.07-.32.07-.32l.07-.23.07-.21.04-.1Z"/>
        <path class="cls-1" d="m1.21,3.21l-.25-.05v-.22s.07-.32.07-.32l.07-.23.07-.21.05-.13v.03s.02.03.03.04c0,0,.02,0,.05.04h0s0,.01,0,.01c0,.01,0,.03,0,.03,0,0,0,0,0,0,0,0,0,0,0,0,.03,0,.09-.02.09-.02h0s.02.08.02.08l-.02.03.08.1v.1l-.09.06-.06.1-.07.15-.03.04v.14s.02.11.02.11l-.03.13Zm-.23-.07l.21.04.02-.11-.03-.11.02-.15.04-.04.07-.15.07-.11.08-.06v-.08l-.09-.1.02-.04v-.05s-.08.01-.1.02c-.01,0-.02,0-.02,0-.01-.01,0-.03,0-.05-.01-.01-.03-.02-.03-.03,0,0-.01,0-.02-.02l-.03.08-.07.21-.07.23-.05.32v.2Z"/>
      </g>
      <g id="path4315">
        <path class="cls-2" d="m.18,3.43c0,.34.27.61.61.61s.61-.27.61-.61-.27-.61-.61-.61-.61.27-.61.61Z"/>
        <path class="cls-1" d="m.79,4.05c-.34,0-.62-.28-.62-.62s.28-.62.62-.62.62.28.62.62-.28.62-.62.62Zm0-1.23c-.33,0-.61.27-.61.61s.27.61.61.61.61-.27.61-.61-.27-.61-.61-.61Z"/>
      </g>
      <g id="path4317">
        <path class="cls-2" d="m.81,3.06l.09.23-.21.18-.22-.14.07-.25.27-.03Z"/>
        <path class="cls-1" d="m.69,3.47h0s-.22-.14-.22-.14h0s.07-.25.07-.25h0s.27-.03.27-.03l.09.24h0s-.21.18-.21.18Zm-.22-.14l.22.13.2-.18-.08-.23-.27.03-.07.24Z"/>
      </g>
      <g id="path4319">
        <path class="cls-2" d="m.82,2.82l.13.11c.08.02.16.05.23.09l.03-.04c-.11-.09-.25-.16-.39-.16Z"/>
        <path class="cls-1" d="m1.18,3.03h0c-.07-.04-.15-.07-.23-.09h0s-.14-.12-.14-.12h0c.13,0,.27.07.39.17h0s-.03.05-.03.05Zm-.23-.1c.08.02.16.05.23.09l.02-.04c-.11-.1-.25-.15-.37-.16l.12.11Z"/>
      </g>
      <g id="path4321">
        <path class="cls-2" d="m1.28,3.25l-.13.14.03.26h.14c.03-.07.06-.14.06-.22-.02-.07-.05-.13-.1-.18Z"/>
        <path class="cls-1" d="m1.32,3.65h-.14s0,0,0,0l-.03-.26h0s.13-.14.13-.14h0c.05.06.08.12.1.18h0s0,0,0,0c0,.08-.03.15-.06.22h0Zm-.14,0h.13s0,0,0,0c.03-.07.06-.14.06-.22-.02-.06-.05-.12-.1-.17l-.13.14.03.25Z"/>
      </g>
      <g id="path4323">
        <path class="cls-2" d="m.6,2.85l-.15.14-.18.12c.07-.1.16-.21.33-.26Z"/>
        <path class="cls-1" d="m.27,3.11h0c.07-.11.16-.21.34-.27h0s-.15.14-.15.14l-.18.12Zm.32-.26c-.15.05-.24.15-.31.24l.17-.11.14-.13Z"/>
      </g>
      <g id="path4325">
        <path class="cls-2" d="m.19,3.32l.11.14c0,.09.02.16.04.24l-.07.03c-.05-.11-.11-.21-.08-.42H.19Z"/>
        <path class="cls-1" d="m.26,3.75v-.02c-.06-.1-.11-.21-.08-.4h0s.12.14.12.14h0c0,.06.01.12.03.18,0,.02,0,.04.01.06h0s-.08.04-.08.04Zm-.07-.41c-.03.19.02.29.07.39h0s.07-.01.07-.01c0-.02,0-.04-.01-.06-.01-.06-.03-.12-.03-.18l-.11-.13Z"/>
      </g>
      <g id="path4327">
        <path class="cls-2" d="m.96,3.82l-.23-.09-.18.12c.02.05.06.1.12.14.1,0,.2,0,.26-.02l.04-.15Z"/>
        <path class="cls-1" d="m.76,3.99s-.06,0-.1,0h0s0,0,0,0c-.04-.03-.1-.08-.12-.14h0s.19-.12.19-.12h0s.23.09.23.09l-.04.15h0s-.09.03-.16.03Zm-.09-.01c.12.01.2,0,.25-.02l.04-.14-.23-.09-.18.12c.02.06.07.1.11.14Z"/>
      </g>
      <g id="path4329">
        <path class="cls-2" d="m1.15,3.39l-.25-.1"/>
        <rect class="cls-1" x="1.02" y="3.21" width="0" height=".26" transform="translate(-2.46 3.05) rotate(-68.13)"/>
      </g>
      <g id="path4331">
        <path class="cls-2" d="m1.18,3.02c.06.08.08.14.1.23"/>
        <path class="cls-1" d="m1.27,3.25c-.02-.09-.04-.14-.1-.22h0c.06.08.08.13.1.22h0Z"/>
      </g>
      <g id="path4333">
        <path class="cls-2" d="m.95,2.93c-.07.05-.1.07-.14.13"/>
        <path class="cls-1" d="m.82,3.06h0s.06-.07.11-.11c0,0,.02-.01.03-.02h0s-.02.02-.03.03c-.05.04-.08.06-.11.1Z"/>
      </g>
      <g id="path4335">
        <path class="cls-2" d="m.54,3.09l-.09-.1"/>
        <rect class="cls-1" x=".49" y="2.97" width="0" height=".14" transform="translate(-1.96 1.18) rotate(-43.56)"/>
      </g>
      <g id="path4337">
        <path class="cls-2" d="m.48,3.33c-.07.04-.12.08-.18.14"/>
        <path class="cls-1" d="m.3,3.47h0c.07-.07.11-.1.18-.14h0c-.07.05-.11.08-.18.14Z"/>
      </g>
      <g id="path4339">
        <path class="cls-2" d="m.69,3.47l.04.26"/>
        <rect class="cls-1" x=".71" y="3.47" width="0" height=".26" transform="translate(-.49 .13) rotate(-7.89)"/>
      </g>
      <g id="path4341">
        <path class="cls-2" d="m.96,3.82c.1-.05.15-.09.22-.17"/>
        <path class="cls-1" d="m.96,3.82h0c.1-.05.14-.09.21-.18h0c-.07.09-.12.13-.22.18Z"/>
      </g>
      <g id="path4343">
        <path class="cls-2" d="m1.38,3.43h.02"/>
        <rect class="cls-1" x="1.38" y="3.42" width=".02" height="0" transform="translate(-.56 .28) rotate(-9.7)"/>
      </g>
      <g id="path4345">
        <path class="cls-2" d="m1.31,3.65v.1"/>
        <rect class="cls-1" x="1.31" y="3.65" width="0" height=".1" transform="translate(-.11 .04) rotate(-1.79)"/>
      </g>
      <g id="path4347">
        <path class="cls-2" d="m.92,3.96s.09.01.15.01"/>
        <path class="cls-1" d="m1,3.98s-.05,0-.08-.01h0s.08,0,.12,0c0,0,.02,0,.03,0h0s-.02,0-.03,0c-.02,0-.03,0-.05,0Z"/>
      </g>
      <g id="path4349">
        <path class="cls-2" d="m.66,3.99l-.03.04"/>
        <rect class="cls-1" x=".63" y="4" width=".05" height="0" transform="translate(-2.9 2.03) rotate(-51.71)"/>
      </g>
      <g id="path4351">
        <path class="cls-2" d="m.55,3.85c-.09-.03-.14-.08-.21-.13"/>
        <path class="cls-1" d="m.55,3.85c-.08-.03-.13-.07-.19-.12,0,0-.02-.01-.02-.02h0s.02,0,.02.01c.06.05.11.09.19.12h0Z"/>
      </g>
      <g id="path4353">
        <path class="cls-2" d="m5.72,3.66c0,.34-.27.61-.61.61s-.61-.27-.61-.61.27-.61.61-.61.61.27.61.61Z"/>
        <path class="cls-1" d="m5.1,4.27c-.34,0-.62-.28-.62-.62s.28-.62.62-.62.62.28.62.62-.28.62-.62.62Zm0-1.23c-.33,0-.61.27-.61.61s.27.61.61.61.61-.27.61-.61-.27-.61-.61-.61Z"/>
      </g>
      <g id="path4355">
        <path class="cls-2" d="m5.08,3.28l-.09.23.21.18.22-.14-.07-.25-.27-.03Z"/>
        <path class="cls-1" d="m5.2,3.7h0s-.21-.18-.21-.18l.09-.24h0s.27.03.27.03l.07.25h0s-.22.14-.22.14Zm-.2-.18l.2.18.22-.13-.07-.24-.27-.03-.08.23Z"/>
      </g>
      <g id="path4357">
        <path class="cls-2" d="m5.07,3.04l-.13.11c-.08.02-.16.05-.23.09l-.03-.04c.11-.09.25-.16.39-.16Z"/>
        <path class="cls-1" d="m4.71,3.26l-.03-.05h0c.12-.1.26-.16.39-.17h0s-.14.12-.14.12c-.08.02-.16.05-.23.09h0Zm-.02-.05l.02.04c.07-.04.15-.07.23-.09l.12-.11c-.13,0-.26.07-.37.16Z"/>
      </g>
      <g id="path4359">
        <path class="cls-2" d="m4.62,3.47l.13.14-.03.26h-.14c-.03-.07-.06-.14-.06-.22.02-.07.05-.13.1-.18h0Z"/>
        <path class="cls-1" d="m4.58,3.88h0c-.03-.07-.06-.15-.06-.23h0s0,0,0,0c.02-.07.05-.13.1-.18h0s.14.14.14.14h0s-.03.26-.03.26h-.14Zm-.06-.23c0,.08.03.15.06.22h0s.13,0,.13,0l.03-.25-.13-.14c-.04.05-.08.11-.1.17Z"/>
      </g>
      <g id="path4361">
        <path class="cls-2" d="m5.29,3.07l.15.14.18.12c-.07-.1-.16-.21-.33-.26Z"/>
        <path class="cls-1" d="m5.62,3.34l-.18-.12-.15-.14h0c.17.05.26.15.34.26h0Zm-.32-.26l.14.13.17.11c-.07-.09-.15-.19-.31-.24Z"/>
      </g>
      <g id="path4363">
        <path class="cls-2" d="m5.71,3.55l-.11.14c0,.09-.02.16-.04.24l.07.03c.05-.11.11-.21.08-.42h0Z"/>
        <path class="cls-1" d="m5.63,3.97l-.08-.03h0s0-.05.01-.07c.01-.06.03-.12.03-.18h0s.12-.15.12-.15h0c.03.2-.02.31-.07.41v.02Zm-.07-.04l.07.03h0c.05-.11.1-.22.07-.4l-.11.13c0,.06-.01.12-.03.18,0,.02,0,.04-.01.06Z"/>
      </g>
      <g id="path4365">
        <path class="cls-2" d="m4.93,4.04l.23-.09.18.12c-.02.05-.06.1-.12.14-.1,0-.2,0-.26-.02l-.04-.15Z"/>
        <path class="cls-1" d="m5.13,4.22c-.07,0-.12,0-.16-.03h0s-.04-.15-.04-.15l.24-.09.19.12h0c-.02.06-.07.11-.12.14h0s0,0,0,0c-.04,0-.07,0-.1,0Zm-.16-.03c.05.03.14.03.25.02.04-.03.09-.08.11-.14l-.18-.12-.23.09.04.14Z"/>
      </g>
      <g id="path4367">
        <path class="cls-2" d="m4.75,3.62l.25-.1"/>
        <rect class="cls-1" x="4.74" y="3.56" width=".26" height="0" transform="translate(-.98 2.07) rotate(-21.84)"/>
      </g>
      <g id="path4369">
        <path class="cls-2" d="m4.71,3.25c-.06.08-.08.14-.1.23"/>
        <path class="cls-1" d="m4.62,3.48h0c.02-.09.04-.15.1-.23h0c-.06.08-.07.14-.1.23Z"/>
      </g>
      <g id="path4371">
        <path class="cls-2" d="m4.94,3.16c.07.05.1.07.14.13"/>
        <path class="cls-1" d="m5.08,3.29s-.06-.07-.11-.1c0,0-.02-.01-.03-.02h0s.02,0,.03.02c.05.04.08.06.11.11h0Z"/>
      </g>
      <g id="path4373">
        <path class="cls-2" d="m5.35,3.31l.09-.1"/>
        <rect class="cls-1" x="5.33" y="3.26" width=".14" height="0" transform="translate(-.68 4.93) rotate(-46.47)"/>
      </g>
      <g id="path4375">
        <path class="cls-2" d="m5.42,3.56c.07.04.12.08.18.14"/>
        <path class="cls-1" d="m5.59,3.7c-.07-.06-.11-.09-.18-.13h0c.07.04.11.07.18.13h0Z"/>
      </g>
      <g id="path4377">
        <path class="cls-2" d="m5.2,3.69l-.04.26"/>
        <rect class="cls-1" x="5.05" y="3.82" width=".26" height="0" transform="translate(.68 8.43) rotate(-82.13)"/>
      </g>
      <g id="path4379">
        <path class="cls-2" d="m4.93,4.04c-.1-.05-.15-.09-.22-.17"/>
        <path class="cls-1" d="m4.93,4.05c-.1-.05-.15-.09-.22-.17h0c.07.08.12.12.21.16h0Z"/>
      </g>
      <g id="path4381">
        <path class="cls-2" d="m4.52,3.65h-.02"/>
        <rect class="cls-1" x="4.5" y="3.64" width="0" height=".02" transform="translate(.14 7.47) rotate(-80.25)"/>
      </g>
      <g id="path4383">
        <path class="cls-2" d="m4.58,3.88v.1"/>
        <rect class="cls-1" x="4.53" y="3.92" width=".1" height="0" transform="translate(.51 8.38) rotate(-88.18)"/>
      </g>
      <g id="path4385">
        <path class="cls-2" d="m4.97,4.19s-.09.01-.15.01"/>
        <path class="cls-1" d="m4.9,4.21s-.03,0-.05,0c0,0-.02,0-.03,0h0s.02,0,.03,0c.05,0,.09,0,.12-.01h0s-.05.02-.08.02Z"/>
      </g>
      <g id="path4387">
        <path class="cls-2" d="m5.23,4.21l.03.04"/>
        <rect class="cls-1" x="5.24" y="4.21" width="0" height=".05" transform="translate(-1.49 4.17) rotate(-38.35)"/>
      </g>
      <g id="path4389">
        <path class="cls-2" d="m5.34,4.07c.09-.03.14-.08.21-.13"/>
        <path class="cls-1" d="m5.34,4.07h0c.08-.03.13-.07.19-.12,0,0,.02-.01.02-.02h0s-.02.02-.02.02c-.06.05-.11.09-.19.12Z"/>
      </g>
    </g>
  </g>
</svg>