<?xml version="1.0" encoding="UTF-8"?>
<svg id="Layer_2" data-name="Layer 2" xmlns="http://www.w3.org/2000/svg" viewBox="0 0 295.56 425.19">
  <defs>
    <style>
      .cls-1, .cls-2, .cls-3, .cls-4 {
        fill-rule: evenodd;
      }

      .cls-1, .cls-2, .cls-3, .cls-4, .cls-5 {
        stroke-width: 0px;
      }

      .cls-1, .cls-5 {
        fill: #007dbd;
      }

      .cls-2 {
        fill: #fff;
      }

      .cls-3 {
        fill: #f3b04a;
      }

      .cls-4 {
        fill: #f3af47;
      }
    </style>
  </defs>
  <g id="Layer_1-2" data-name="Layer 1">
    <g>
      <path class="cls-3" d="m147.78,0c81.61,0,147.78,95.2,147.78,212.6s-66.17,212.6-147.78,212.6S0,329.99,0,212.6,66.18,0,147.78,0h0Z"/>
      <path class="cls-2" d="m147.78,5.16c78.76,0,142.63,92.89,142.63,207.44s-63.87,207.44-142.63,207.44S5.16,327.15,5.16,212.6,69.02,5.16,147.78,5.16h0Z"/>
      <path class="cls-1" d="m147.78,8.94c76.67,0,138.85,91.2,138.85,203.66s-62.18,203.66-138.85,203.66S8.94,325.06,8.94,212.6,71.11,8.94,147.78,8.94h0Z"/>
      <path class="cls-2" d="m147.78,14.95c8.31,0,16.45,1.14,24.33,3.31v66.66c1.91-1.12,4.16-1.74,6.36-1.8,4.26-.11,7.91,2.09,10.74,5.12,3.53,3.78,5.39,8.89,7.07,13.73.6,1.71.09,2.72-.94,3.68-1.42,1.28-2.66,2.4-4.11,3.64-2.41,2.07-5.48,1.08-5.83-1.98-.06-.45-.13-.9-.19-1.35-.18-.98-.33-1.98-.57-2.95-.31-1.27-1.58-5.65-3.15-7.19-.79-.77-1.23-.7-1.49.34-.16.61-.25,1.34-.28,1.65-.23,2.4-.11,5.08-.02,7.48.08,2.01.16,4.02.23,6.03h1.02s14.26-.05,14.26-.05c2.49,0,3.84,1.16,3.92,4.89.02.81.04,1.59.06,2.33.05-.48.1-.97.15-1.46.91-9.46.51-18.82.14-28.3-.16-2.42,1.24-3.83,3.76-3.76,1.32.05,2.63.09,3.95.14,1.31.05,2.62.12,3.94.17,1.34.09,2.38.74,3.12,2.09,1.53,2.78,3.03,5.77,4.46,8.9v-50.8c20.52,19.33,37.24,46.79,48.11,79.34v30.79c1.19.84,1.98,2.14,2.06,3.9.05,1.04-.28,1.93-1.06,2.52,1.08.59,1.23,1.13,1.23,1.77v18.23c0,.96-.78,2.32-2.19,2.32h-.05v116.04c-10.87,32.55-27.59,60.02-48.11,79.34v-195.37h-6.1c-.68,0-.93-.31-1.11-.59-.3.57-.77.57-1.16.57h-6.57c-1.24,0-2.15-.11-2.96-1.97-1.92,1.56-4.81,2.38-7.39,2.38-7.39,0-11.62-4.2-11.62-11.59,0-3.25.88-6.29,3.01-8.78,1.97-2.3,5.13-3.72,8.15-3.72s5.89,1.2,7.3,2.74c.48-1.74,2.04-2.32,3.38-2.32,1.92,0,3.22-.12,5.12-.39,1.43-.12,2.09.38,2.43.83,2.32-1.24,5.39-1.18,7.53.34v-12.3h-.24c-1.99.07-2.91-1-3.45-2.85-.56-3.2-1.15-6.39-1.77-9.57-.93,0-1.87.01-2.8.02-.92.01-1.84.02-2.76.03-.56,3.28-1.14,6.56-1.73,9.83-.35,2.25-1.58,2.76-3.78,2.82-.87.02-1.57.04-2.3.05v.03h-1.47l-3.48.05c-.33.02-.67.04-1.13.04-1.83,0-2.44-.02-3.71-1.16-.3.19-.6.38-.91.55-1.95,1.09-4.08,1.7-6.33,1.7-3.16,0-6.16-.79-8.84-2.46-.66-.41-1.29-.88-1.88-1.37v7.81h11.34c2.33,0,3.68,1.36,3.68,3.62v1.5c0,1.65-1.24,3.21-3.06,3.21h-2.43v17.04c0,2.21-.18,3.9-3.5,3.9h-6.02v36.43c3.32-1.97,8.11-2.71,12.94-2.69,7.98.04,15.71,1.13,17.37,9.42.75,3.78-1.18,7.43-3.18,9.39l2.58,28.61c4.77,1.28,6.3,5.53,6.34,9.47.04,3.95-1.42,7.59-3.42,8.42.05,1.69-.72,3.65-1.7,5.14-.07,1.56-.75,3.21-1.56,4.17l-1.76,1.64c-1.79,2.25-4.35,4.3-7.79,3.91,1.51,2.62,2.72,5.11,3.12,7.38.22,1.25-.21,3.53-.71,5.88-1,4.8-2.86,10.57-4.17,12.57-.16,4.94-.44,9.05-1.14,14.04-.8,5.73-2.18,11.33-3.23,17.02-.29,1.56-.66,3.14-1,4.69-.47,2.25-.95,4.84-1.91,6.91-.29.61-.59,1.08-.9,1.57.05,1.41-.03,2.54,0,3.96,3.22.69,6.74,4.83,6.59,9.08-.09,2.55-1.51,6.01-5.11,7.03-2.1,2.73-4.76,4.42-11.37,6.19v12.37c-7.89,2.18-16.02,3.32-24.33,3.32s-16.89-1.22-24.98-3.51v-10.34c-7.5-1.12-14.36-3.24-18.04-7.24-3.28-1.5-4.63-4.65-4.51-7.43.17-3.81,3.51-6.58,8-9.74.1-1.49-.04-2.12.04-3.58-.82-2.42-1.5-5.44-1.89-8.04-1.4-1.55-2.08-6.04-3.39-11.11-1.02-3.94-2.15-7.94-2.62-11.34-.65-4.6,0-9.38-.68-13.82-.84-5.54-3.11-12.12-2.89-17.77.11-2.83,2.04-5.24,2.64-7.94-.33.01-.66.01-1,0-2.19-.1-4-1.09-5.22-2.55-3.23-1.03-4.75-5.4-4.49-8.42-1.12-.33-2.55-2.8-2.32-5.66-1.3-1.41-4.17-15.45,4.84-15.3l.95-1.98,2.82-27.96c-2.33-2.16-3.45-4.99-3.16-8.5.69-8.46,10.19-9.31,16.62-9.29,3.86.02,10.12.29,14.29,2.81v-37.15h-1.72c-.38,0-.95-.24-1.06-.43-.84.26-2.45.76-3.39.76-1.64,0-3.22-.38-4.6-1.28-3.5-2.28-4.24-6.78-4.24-10.64s.77-8.43,4.27-10.77c1.46-.98,3.16-1.4,4.91-1.4.25,0,.49.01.73.03v-2.54c0-1.71,1.11-3.34,4.55-3.08.18.01.37.02.55.03v-4.99h-2.16c-.76,0-2.86.01-3.32-2.54-.96-3.59-1.23-7.52-1.24-11.23,0-1.18-.03-2.36-.04-3.54,0-1.5-.02-3.01,0-4.52,0-.47,0-.96,0-1.46-.04,1.87-.07,3.75-.09,5.62-.04,4.44-.01,8.88.01,13.32.01,2.34-.57,4.23-3.43,4.35h-14.09l-11.38.04c-2.15.15-2.67-1.02-3.29-2.39-1.23-3.5-2.47-6.99-3.64-10.5-.04,3.11-.03,6.21-.01,9.32.11,1.69-.45,3.4-3.56,3.45-.39-.02-.79-.03-1.19-.05v6.79c1.3-.78,2.65-1.39,4.26-.89.66.21,1.75,1.07,1.8,2.87l.07,2.79c.79.08,1.2.3,1.61.77.34-.4.48-.57,1.86-.71-2.88-2.06-3.34-4.27-1.57-5.98,1.03-1,1.77-1.13,3.13-1.21,2.82-.18,5.47-.3,6.87,2.45l2.26,4.44c1.79.55,3.38,1.54,4.31,3.27.49.92.62,1.93.62,2.97v8c.07,2.24,2.41,1.18,2.56,4.78.16,3.69-4.65,4.32-7.4,4.32-1.47,0-2.91-.27-4.11-.91-1.26.67-2.7.99-4.24.99-2.21,0-4.09-.53-5.52-1.56-1.41.97-3.23,1.39-5.14,1.39-.47,0-.93-.03-1.38-.08v193.83c-20.43-19.82-36.98-47.78-47.55-80.79v-119.55c-1.02-2.2-1.51-4.86-1.51-7.85,0-2.62.45-5.15,1.51-7.44v-34.95c10.57-33.01,27.12-60.97,47.55-80.79v38.95c2.16-.28,5.84-.6,8.13-.53,1.12.03,5.05.6,3.45,5.31-.78,2.3-1.08,3.94-1.78,6.27,2.17-3.2,3.57-6.15,5.85-9.27,1.22-1.67,1.8-2.73,3.91-3.1,1.61-.29,3.02-.23,4.53-.28,2.72-.09,3.44,1.41,3.38,3.12l.06-.36c.24-2.3,1.67-2.72,3.16-2.84,2.31-.09,4.71-.18,7.02-.27,2.31-.09,4.62-.17,6.92-.26.95-.04,1.89,0,2.82.14V18.46c8.09-2.3,16.44-3.51,24.98-3.51h0Zm-49.79,117.97c.03-5.09.27-10.18.62-15.41.61-9.26,2.25-18.94,3.86-28.16-.37,1.28-.92,2.36-1.08,2.6-3.53,5.32-6.91,10.3-10.28,15.73,1.33,6.07,2.66,11.9,4.48,17.84.76,2.48,1.57,4.94,2.4,7.39h0Zm18.83-24.32c.96-1.68,1.27-4.81,1.36-6.06.1-1.61.16-3.63-.24-5.2-.01-.04-.03-.11-.05-.19-.22,2.05-.43,4.1-.62,6.15-.16,1.76-.31,3.53-.44,5.3h0Zm63.5,15.54c.08,1.85.2,3.7.37,5.54.2,2.19.46,4.64,1.01,6.77.12.45.62,2.09,1.09,2.43.38-.83.42-2.91.41-3.58-.07-3.73-.15-7.45-.21-11.18-.61,0-1.23.02-1.84.02h-.82Zm29.6-1.83c-.09.73-.19,1.47-.29,2.2h.82c-.17-.73-.35-1.47-.53-2.2h0Zm-15.19,54.07c.02.08.04.16.07.23,0-.08.01-.16.01-.23h-.08Z"/>
      <path class="cls-4" d="m91.78,273.14h5.88v-5.12h3.6v5.12h5.68v-5.12h3.61v5.12h6.02v-5.12h3.61v5.12h5.85v-5.12h3.6v5.12h6.36v-5.12h3.61v5.12h5.84v-5.12h3.6v5.12h5.5v-5.12h3.6v5.12h5.85v-5.12h3.6v5.12h5.85v-5.12h3.61v5.12h6.53v-5.12h3.6v5.12h5.33v-5.12h3.61v5.12h4.56v4.55h-108.91v-4.55Z"/>
      <path class="cls-4" d="m187.14,279.53c1.19.2,1.48.63,2.6.83,1.27.23,3.31.65,4.74,1.36.71.35,2.45.7,3.38,1.53,1.14-2.87-2.41-3.45-4.63-3.45l-6.09-.27Z"/>
      <path class="cls-4" d="m193.11,284.49c-2.21,4.67-9.14,9.59-15.24,12.53-1.54.75-1.83-.59-.63-1.25,3.84-2.11,10.66-7.06,12.87-10.76,1.1-1.85-6.33-4.72-10.67-5.18h-11.91c4.69,2.06,6.37,2.72,8.66,3.24,2.82.64,4.2.43,6.63.45.46,0,.68.75.3,1.02-5.71,4.13-10.5,7.36-11.53,14.7-.39,2.81-.94,6.71-.7,9.36.02.18-.01,1.7,1.34,3.13.11,2.13-.14,3.24.29,5.62.37,2.08-.02,3.77-1.33,5.99-1.8,3.04-2.38,5.57-2.6,9.05-.51,8.11,1.68,13.58,2.22,19.71.21,2.47-.7,4.8-1.2,6.86s-.5,3.19-.19,5.76c.49,4.1,1.22,7.95,1.3,14.31,2.05,1.26,3.55,1.68,5.4,2.26,1.74.55,2.72.77,5.07.37.09-.02.26-1.82-.43-2.16-2.77-1.33-5.34-2.39-5.43-3.86-.19-3.37-.18-6.67-.28-8.4-.07-1.32,1.05-2.23,1.59-3.39.54-1.17.99-3.38,1.42-5.45.43-2.06.86-3.97.96-4.52.98-5.27,2.4-11.1,3.19-16.72.58-4.13.6-11.02,1.27-15.35.43-2.74,2.86-4.04,4.19-12.2-5.45.02-8.65-3.72-9.69-5.25-.32-.49.38-1.18.91-.95,2.44,1.04,4.15,3.31,6.04,4.11.97.41,2.06.36,3.1-.05.16-.74.3-1.04,0-1.66-.54-1.14-1.99-3.87-2.52-5.39-1.32-3.79.58-6.58,3.41-8.86.8-.65,2.06-.7,3.78-.25.33.09.66-.25.52-.53-.18-.36-.5-.67-.18-1.14.12-.18.76-.06,1.3.04.19-.54.68-1.07.94-1.38.18-.21,1.02.53,1.07-.54.05-.83.34-2.08.46-2.83-.91-.23-2.27-.82-3.74-.46h0Z"/>
      <path class="cls-4" d="m106.84,279.82c-2.93,1.18-5.11,1.43-6.81,2.1-1.05.41-1.85.66-2.4,1.12-.87-.25-1.93-.58-3.64-.18-.12-1.85,2.41-3.07,4.63-3.06l8.23.02Z"/>
      <path class="cls-4" d="m99.41,284.49c2.21,4.67,8.17,10.07,14.27,13.02,1.54.75,2.44-1.32,1.21-1.93-5.38-2.69-10.88-6.55-12.67-10.47-.84-1.83,1.58-2.57,4.26-3.5,1.68-.58,3.78-1.23,5.92-1.78h11.91c-4.7,2.06-7.15,3.4-8.47,3.73-2.81.7-3.61.33-6.63.45-.46.02-.68.75-.3,1.02,1.23.89,2.37,1.22,3.5,2.12,1.21.96,1.21,1.56,2.91,3.06,1.51,1.33,4.01,4.23,4.4,5.93.38,1.64,1.39,8.47,1.13,12.46-.03.4-2.02,2.91-1.91,9.34.11,6.82,2.86,8.5,3.03,11.69.57,9.82-1.39,13.46-2.09,18.41-.29,2.04-.18,5.41-.25,7.48-.08,2.45.03,4.23.36,5.91.2,1,.68,2.11.5,3.59-.5,4.1-.83,6.41-1.11,14.12-2.05,1.26-3.69,2.27-5.54,2.85-1.75.55-3.79.77-6.14.37-.09-.02-.51-.36.04-.89,1.1-1.06,2.38-2.2,3.97-3.04.79-.42,1.92-.41,2.81-.53.61-3.32.76-8.22.86-9.95.07-1.32-.6-2.56-1.01-3.78-.53-1.57-.95-3.11-1.19-4.79-.26-1.83-1.86-3.81-2.21-5.68-.98-5.27-2.98-11.1-3.77-16.72-.58-4.13-.04-9.56-.69-13.89-.28-1.88-1.07-6.01-1.48-8.04-.32-1.58-.71-3.13-.68-4.55,2.45.5,5.93-.33,6.97-1.86.33-.48-.46-1.32-.91-.95-1.73,1.44-3.8,1.85-6.52,1.06-.16-.74-.23-1.45-.2-2.14.06-1.43.75-2.19,1-2.68.59-1.18.51-3.07,2.2-3.68.04-2.07-.05-3.87-.56-4.89-.99-2.02-1.5-1.72-2.24-2.39-.34-.3-.48-.76-.9-1.1-.8-.65-2.69-.26-4.42-.34-.34-.02-.42-.3-.27-.58.18-.36.59-.81.27-1.28-.12-.18-.37-.31-.91-.3l-2.2.03c-.28,0,.29-1.22.24-2.28-.05-.83-.74-1.4-.84-2.15,1.12-.1,1.93-.18,3.07,0,.28-.18.68-.34,1.29-.46h0Z"/>
      <path class="cls-4" d="m141.75,279.96c-1.16,1.36-2.62,2.82-3.69,3.78-1.42,0-4.46.16-4.17,1.55.51,2.48,4.79,6.55,7.75,9.11,1.39,1.21,3.16,1.92,4.67,2.05,3.26.27,5.58-.19,7.82-1.95.42-.33,1.51-1.75,2.11-2.2,1.96-1.48,3.65-3.82,5.41-5.94,1.37-1.66-1.39-2.23-4.56-2.72-1.33-1.1-3.43-3.17-4.95-4.07,4.47.32,11.87.83,15.13,1.94,1.07.36,1.1,1.66.68,2.71-.82,2.06-3.39,4.92-5.11,7.18-1.95,2.55-3.66,4.99-4.37,6.68-1.11,2.63-.41,3.64-1.77,6.13-.88.22-1.67.62-2.15.9-1.45.83-1.88,1.31-3.46,1.06-1.21-.19-3.01-1.35-3.22-3.77-.11-1.22-1.34-.7-1.37-.53-.51,3.45-3.6,4.1-5.94,3.54-1.59-.39-3.35-1.24-3.84-2.36-.65-1.19-.85-4.53-.91-5.9-3.55-4.18-6.12-6.9-8.98-10.49-.91-1.14-1.03-2.02.49-3.1,1.57-1.12,5.91-1.99,9.85-2.66,1.74-.29,3.2-.95,4.6-.93h0Z"/>
      <path class="cls-4" d="m136.23,304.52c.64,1.79,1.71,2.99,2.4,3.25,2.18.83,5.74.11,8.36-1.32,2.75,2.11,7.42,2.09,10.18-.29-.32,2.79-.92,5.6-1.55,8.17-.43,1.75-.93,3.25-1.15,5.16-.59,4.99.57,9.83.32,14.92-.48,9.85-3.9,19.24-5.13,29.34-.56,4.59-.7,5.84-.64,10.36,0,.59.67,2.29.89,4.05.17,1.37.12,2.89.07,3.22-.14,1.09-2.44.58-2.71-.48-.53-2.07-.74-3.65-.83-5.52-.03-.62.14-1.44.11-2.07-.48-12.03.23-23.96.23-36.03,1.04-1.55,1.77-2.45,2.04-4.85.09-.78-1.18-.84-1.36-.1-.46,1.98-1.23,3.23-1.94,3.98-.68-1.42-.86-3.22-2.04-4.27-.46-.41-1.43-.23-1.45,1.16-.04,1.5,2.29,3.49,3.1,4.26,0,8.34-.78,17.62-1.15,25.75-.2,4.26-.24,8.23-.21,11.95.02,2.11-1.36,4.76-2.42,6.3-.6.86-2.37.66-2.42-.39-.11-2.34.84-4.76,1.29-5.56.22-7.35-1.54-12.38-1.78-22.37-.13-5.74-3.13-9.76-3.19-19.28-.03-4.73,2.63-8.91,2.85-13.77.23-5.02-2.17-10.04-1.88-15.59h0Z"/>
      <path class="cls-4" d="m147.28,281.4c-2.02,2.29-4.12,3.37-6.16,4.03-.24.07-.43-.2-.29-.4,1.23-1.87,2.26-2.89,3.59-4.7,1.8.56,3.4.75,5.48.05,1.78,1.66,2.8,2.55,4.04,4.25.37.5-.04.86-.48.65-1.85-.88-4.13-2.33-6.18-3.89h0Z"/>
      <path class="cls-4" d="m141.65,287.27c2.36-1.2,3.6-2,5.67-3.44,1.49,1.42,3.39,2.48,5.52,3.58-.57,2.62-2.32,5.62-5.86,8.24-2.65-3.02-4.62-5.75-5.33-8.38h0Z"/>
      <path class="cls-4" d="m110.41,384.74c19.31,2.33,42.52,2.55,66.94.39-8.74,3.64-25,5.65-33.57,5.63-10.25-.02-25.06-1.81-33.37-6.02h0Z"/>
      <path class="cls-4" d="m121.46,378.72h15.76c-.15.86-.21,1.71-.17,2.46.14,2.93,4.28,3.67,5.87,1.37.73-1.06,1.46-2.37,1.99-3.74.14.84.32,1.68.54,2.55.58,2.28,4.16,3.43,5.79,1.63.34-.38.56-.85.62-1.37.11-.82.09-1.95,0-2.91h16.97l.02,1.28c2.95,1.65,4.75,1.97,7.36,2.79-9.98,1.16-19.79,1.69-29.99,1.76-9.88.07-21.12-.06-30.81-1.36,1.94-.82,4.2-1.88,5.98-2.98l.06-1.49Z"/>
      <path class="cls-4" d="m135.93,222.82l-4.59,48.95h3.28v-5.12h6.36v5.12h3.1v-5.12h6.35v5.12h2.75v-5.12h6.36v5.12h2.65l-4.33-49.05c-6.58-.97-13.79-1-21.93.1h0Z"/>
      <path class="cls-4" d="m135.16,210.6l1.65,4.46,3.72-.49-.24-4.79,4.37-.06.25,4.77,4.6.04.31-4.77,4.08.24.06,4.66,4.22.59,1.3-4.75c6.75,2.31,6.55,5.96.09,10.54-7.53-1.64-15.86-1.53-24.42-.07-7.76-3.92-6.69-8.16,0-10.37h0Z"/>
      <path class="cls-4" d="m178.14,234.91l-2.96,31.74h3.25v5.12h3.79v-5.12h6.35v5.12h2.58v-5.12h3.29l-2.84-31.61c-3.26-1.27-9.34-1.39-13.47-.13h0Z"/>
      <path class="cls-4" d="m177.67,226.19l1.02,2.74,2.29-.3-.14-2.94,2.68-.04.15,2.93,2.82.02.19-2.93,2.5.05.04,2.96,2.59.36.8-2.92c4.15,1.42,3.83,3.95-.14,6.77-4.33-1.49-9.84-1.33-14.22.05-4.77-2.41-4.69-5.4-.58-6.76h0Z"/>
      <path class="cls-4" d="m102.28,235.08l-3.03,31.57h3.38v5.12h2.93v-5.12h6.36v5.12h3.27v-5.12h3.85l-2.9-31.44c-3.36-1.27-9.61-1.39-13.86-.13h0Z"/>
      <path class="cls-4" d="m101.8,226.37l1.04,2.74,2.35-.3-.15-2.94,2.76-.04.16,2.93,2.91.02.2-2.93,2.58.05.04,2.96,2.67.36.82-2.92c4.26,1.42,3.94,3.95-.15,6.76-4.46-1.49-10.12-1.33-14.63.05-4.9-2.41-4.82-5.4-.6-6.76h0Z"/>
      <path class="cls-4" d="m45.69,172l2.86.74c.05.59.07,1.1.07,1.52,0,2.25-.81,4.04-2.43,5.38-1.62,1.34-3.8,2.02-6.53,2.02-6.84,0-10.26-3.85-10.26-11.55,0-3.65,1-6.61,3-8.88,1.99-2.27,4.59-3.41,7.79-3.41,4.99,0,7.49,2.4,7.49,7.2l-2.88,1.32c.04-.67.05-1.2.05-1.57,0-3.41-1.36-5.11-4.09-5.11-2.89,0-4.33,3.61-4.33,10.84,0,6.21,1.61,9.32,4.84,9.32,1.33,0,2.43-.53,3.32-1.59.88-1.06,1.33-2.38,1.33-3.98,0-.51-.07-1.26-.22-2.25h0Z"/>
      <path class="cls-4" d="m54.07,157.6c1.92,0,2.87.74,2.87,2.23s-.96,2.24-2.87,2.24-2.87-.75-2.87-2.24.96-2.23,2.87-2.23h0Zm-3.13,23.66v-17.03c1.93,0,3.98-.15,6.17-.46v17.48h-6.17Z"/>
      <path class="cls-4" d="m69.81,164.27v1.91h-2.74v12.06c0,.76.24,1.13.73,1.13.35,0,.56-.25.63-.76l1.76.17c-.49,1.78-2.03,2.67-4.63,2.67-3.1,0-4.65-1.32-4.65-3.95v-11.31h-2.07v-1.91h2.07v-3.01c2.13-.58,4.18-1.43,6.17-2.54v5.55h2.74Z"/>
      <path class="cls-4" d="m80.99,164.27v1.91h-2.74v12.06c0,.76.24,1.13.73,1.13.35,0,.56-.25.63-.76l1.76.17c-.48,1.78-2.03,2.67-4.63,2.67-3.1,0-4.65-1.32-4.65-3.95v-11.31h-2.07v-1.91h2.07v-3.01c2.13-.58,4.18-1.43,6.17-2.54v5.55h2.74Z"/>
      <path class="cls-4" d="m100.15,180.65c-1.5.59-2.98.88-4.41.88-2.12,0-3.43-.66-3.92-1.98-1.02,1.38-2.5,2.07-4.43,2.07-3.59,0-5.4-1.67-5.4-5,0-2.54,1.65-4.32,4.94-5.34,3.01-.95,4.53-2.09,4.53-3.42,0-1.75-.86-2.62-2.6-2.62-2.01,0-3.01.84-3.01,2.53,0,.53.16,1.23.47,2.09l-3.06-.59c-.08-.53-.12-1.03-.12-1.49,0-2.71,2.47-4.05,7.41-4.05s7.04,1.26,7.04,3.78v10.35c0,1.06.34,1.59,1.03,1.59.22,0,.53-.12.95-.36l.59,1.56Zm-8.74-9.64c-.38.44-.83.8-1.34,1.1-1.27.74-1.91,2-1.91,3.75,0,2.26.44,3.38,1.32,3.38,1.29,0,1.93-1.12,1.93-3.35v-4.88Zm-.25-8.82l-5.78-4.46h4.84l2.42,4.46h-1.47Z"/>
      <path class="cls-4" d="m126.95,157.82v23.44h-6.17v-1.47c-1.04,1.24-2.43,1.86-4.16,1.86-3.83,0-5.75-2.95-5.75-8.83s2.03-9.08,6.09-9.08c1.6,0,2.87.7,3.82,2.11v-7.68c1.86,0,3.92-.12,6.17-.36h0Zm-7.99,8.41c-1.04,0-1.56.95-1.56,2.86l-.12,3.62.07,3.29c0,2.11.59,3.16,1.76,3.16s1.71-1.03,1.71-3.1l.09-4.16-.14-2.84c-.18-1.88-.79-2.82-1.81-2.82h0Z"/>
      <path class="cls-4" d="m142.53,175.02l2.49.73c-.26,3.93-2.59,5.9-6.97,5.9-5.68,0-8.52-2.84-8.52-8.5,0-2.75.75-5,2.27-6.77,1.5-1.76,3.44-2.64,5.8-2.64,4.92,0,7.39,3.18,7.39,9.54h-9c0,4.46,1.14,6.7,3.4,6.7,2.12,0,3.18-1.27,3.18-3.79,0-.34-.01-.73-.04-1.17h0Zm-6.56-3.65h3.69c0-3.96-.59-5.95-1.79-5.95-1.09,0-1.69,1.47-1.83,4.41l-.07,1.54Z"/>
      <path class="cls-4" d="m150.82,157.6c1.91,0,2.88.74,2.88,2.23s-.96,2.24-2.88,2.24-2.88-.75-2.88-2.24.96-2.23,2.88-2.23h0Zm-3.13,23.66v-17.03c1.93,0,3.98-.15,6.17-.46v17.48h-6.17Z"/>
      <path class="cls-4" d="m184.21,158.18v2.31h-5.67v20.77h-7.1v-20.77h-5.7v-2.31h18.46Z"/>
      <path class="cls-4" d="m197.87,175.02l2.49.73c-.26,3.93-2.59,5.9-6.97,5.9-5.68,0-8.52-2.84-8.52-8.5,0-2.75.75-5,2.27-6.77,1.51-1.76,3.44-2.64,5.8-2.64,4.93,0,7.39,3.18,7.39,9.54h-9c0,4.46,1.14,6.7,3.4,6.7,2.12,0,3.18-1.27,3.18-3.79,0-.34-.01-.73-.04-1.17h0Zm-6.56-3.65h3.69c0-3.96-.59-5.95-1.79-5.95-1.09,0-1.69,1.47-1.83,4.41l-.07,1.54Z"/>
      <path class="cls-4" d="m227.94,181.26h-6.17v-12.8c0-1.11-.33-1.67-.98-1.67-1.51,0-2.27,1.6-2.27,4.82v9.66h-6.17v-12.53c0-1.28-.3-1.91-.88-1.91-1.54,0-2.3,1.6-2.3,4.8v9.64h-6.17v-17.1c2.08,0,4.14-.14,6.17-.42v2.95c1.46-1.95,3.25-2.93,5.38-2.93,1.78,0,3.1.92,3.97,2.75,1.38-1.86,3.09-2.79,5.16-2.79,2.84,0,4.26,1.43,4.26,4.31v13.23Z"/>
      <path class="cls-4" d="m231.35,187.03v-22.79c1.75,0,3.81-.14,6.17-.44v2.57c1.16-1.73,2.57-2.58,4.23-2.58,1.77,0,3.18.81,4.25,2.42,1.05,1.62,1.59,3.79,1.59,6.51,0,6.01-2,9.01-6,9.01-1.65,0-3-.62-4.06-1.86v7.17h-6.17Zm8.15-20.76c-1.37,0-2.05,2.12-2.05,6.35s.65,6.61,1.96,6.61c1.17,0,1.76-2.2,1.76-6.61s-.56-6.35-1.67-6.35h0Z"/>
      <path class="cls-4" d="m256.33,157.84v23.43h-6.17v-23.08c1.7,0,3.76-.12,6.17-.34h0Z"/>
      <path class="cls-4" d="m262.91,157.6c1.92,0,2.88.74,2.88,2.23s-.96,2.24-2.88,2.24-2.87-.75-2.87-2.24.96-2.23,2.87-2.23h0Zm-3.12,23.66v-17.03c1.93,0,3.98-.15,6.17-.46v17.48h-6.17Z"/>
      <path class="cls-4" d="m62.31,90.49c-2,9.29-3.15,18.52-2.94,27.74.21,9.29,1.71,18.62,4.08,28.08-1.82-.04-3.63-.08-5.44-.13-1.81-.04-3.62-.09-5.44-.14-1.08-4.04-1.91-8.06-2.55-12.06-1.84,0-3.67,0-5.5-.01-1.83,0-3.66-.01-5.5-.02-.88,3.9-1.63,7.81-2.25,11.7-1.41-.04-2.82-.07-4.24-.11,1.74-8.92,3.75-17.96,7.11-26.81,3.47-9.15,8.45-18.19,14.28-27.55,1.4-.12,2.8-.23,4.2-.35,1.4-.12,2.8-.23,4.2-.35h0Zm-21.88,38.06c1.5,0,2.99-.02,4.48-.03,1.49,0,2.99-.02,4.48-.04-.3-4.04-.54-8.07-.5-12.09.04-4.02.4-8.02.86-12.02-1.93,4.07-3.77,8.11-5.33,12.16-1.54,3.99-2.8,8.02-4,12.02h0Z"/>
      <path class="cls-4" d="m100.14,87.87c-2.39,3.21-4.69,6.39-6.84,9.57-2.12,3.14-4.1,6.3-6.03,9.42,1.41,6.54,3.03,13.12,5.04,19.67,2.04,6.62,4.43,13.25,6.78,19.93-2.01,0-4.03.02-6.04.05-2.02.03-4.03.06-6.05.09-1.49-4.23-2.98-8.45-4.35-12.68-1.36-4.2-2.57-8.41-3.7-12.61-.57.91-1.16,1.81-1.73,2.72-.23,3.75-.42,7.5-.5,11.26-.08,3.75-.06,7.52-.05,11.27-1.8-.07-3.6-.15-5.39-.23-1.8-.08-3.59-.15-5.39-.22.06-9.44.17-18.91,1.42-28.27,1.26-9.46,3.94-18.88,7.21-28.41,1.6-.1,3.21-.19,4.82-.3,1.6-.1,3.22-.2,4.82-.29-1.49,4.34-2.88,8.64-3.87,12.95-.98,4.26-1.6,8.55-2.17,12.83,2.59-4.33,5.22-8.71,8.07-13.08,2.91-4.46,6.1-8.9,9.41-13.41,1.51-.09,3.02-.18,4.54-.28h0Z"/>
      <path class="cls-4" d="m101.93,146.66c-.06-9.83-.16-19.68.49-29.49.65-9.85,2.11-19.68,3.86-29.56,2.3-.09,4.61-.18,6.92-.27,2.3-.09,4.62-.18,6.92-.27,1.8-.07,3.39.22,4.79.87,1.41.66,2.63,1.68,3.68,3.04,2.12,2.75,3.12,6.51,2.95,11.25-.26,7.27-2.91,12.07-8.11,14.35,2.64,1.6,4.36,3.36,5.14,5.31.78,1.95,1.29,5.75,1.54,11.4.3,6.76,1,11.2,2.05,13.37h-11.51c-.75-2.77-1.11-6.21-1.12-10.34,0-1.18-.03-2.36-.04-3.55,0-1.49-.02-2.97,0-4.45.08-6.88-1.51-10.28-4.86-10.22-.6.01-1.2.02-1.8.03-.15,4.75-.26,9.51-.31,14.27-.05,4.75-.02,9.52.01,14.27h-10.6Zm11.12-33.44c.7-.01,1.39-.03,2.09-.05,3.92-.08,6-3.56,6.46-10.4.46-6.87-1.08-10.22-4.75-10.09-.65.02-1.3.04-1.95.07-.39,3.41-.75,6.82-1.07,10.24-.31,3.41-.56,6.82-.79,10.23h0Z"/>
      <path class="cls-4" d="m152.81,86.84l11,59.82h-10.69l-2.27-13.48h-11.03l-2.24,13.48h-4.16l10.91-59.82h8.48Zm-11.99,40.85h9l-4.18-26.52-4.82,26.52Z"/>
      <path class="cls-4" d="m180.99,114.75c2.5-.03,4.99-.07,7.49-.09,2.5-.02,5-.04,7.5-.04.11,5.35.15,10.69.19,16.04.04,5.34.08,10.68.13,16.01h-3.28c-.39-1.36-.77-2.71-1.16-4.08-1.41,1.7-2.87,2.97-4.38,3.81-1.5.84-3.05,1.27-4.65,1.27-2.62,0-4.96-.65-7.02-1.94-2.06-1.29-3.84-3.24-5.38-5.84-1.54-2.61-2.79-5.74-3.7-9.41-.9-3.68-1.43-7.89-1.53-12.65-.09-4.62.12-8.8.63-12.54.51-3.74,1.36-7.04,2.55-9.93,1.18-2.86,2.55-5.03,4.16-6.51,1.58-1.46,3.39-2.24,5.54-2.3,2.83-.07,5.49,1.29,8.05,4.04,2.59,2.77,4.97,6.93,6.91,12.51-1.38,1.25-2.79,2.49-4.23,3.73-.07-.47-.14-.95-.21-1.43-.2-1.08-.36-2.15-.62-3.21-1.73-6.98-4.4-10.41-7.64-10.34-2.39.05-3.69,1.94-4.04,5.64-.18,1.86-.16,4.5-.03,7.95.14,3.44.31,7.68.42,12.7.11,4.7.28,8.66.58,11.85.29,3.19.67,5.63,1.1,7.31.88,3.37,2.38,5.04,4.55,5.04,2.55,0,3.8-2.37,3.71-7.12-.09-4.86-.19-9.73-.27-14.58-1.75.01-3.51.03-5.26.05-.03-1.97-.06-3.95-.11-5.93h0Z"/>
      <path class="cls-4" d="m210.99,88.72c4.12,9.64,8.4,19.11,11.57,28.76,3.09,9.38,4.99,18.97,6.73,28.44-1.82.04-3.63.07-5.45.11-1.81.03-3.63.07-5.44.1-.71-4.14-1.5-8.29-2.35-12.44-1.88.01-3.76.02-5.64.04-1.88.02-3.76.03-5.64.05-.71,4.21-1.44,8.43-2.2,12.63-1.41.03-2.83.05-4.24.07,1.7-9.73,3.78-19.39,4.72-29.12.93-9.63.44-19.32.06-28.96,1.32.05,2.63.09,3.94.14,1.32.05,2.63.12,3.94.17h0Zm-5.33,39.24c1.52-.01,3.04-.02,4.56-.02,1.52,0,3.04,0,4.56-.01-.97-4.25-1.94-8.53-3.23-12.77-1.31-4.29-2.83-8.55-4.33-12.83.09,4.27.17,8.53-.06,12.79-.23,4.28-.86,8.56-1.49,12.84h0Z"/>
      <path class="cls-4" d="m251.01,106.87c-1.46.39-2.92.81-4.38,1.23-.21-1.46-.45-2.67-.78-3.66-1.08-3.17-2.64-5.58-4.52-7.23-1.89-1.66-4.02-2.56-6.34-2.7-3.66-.22-4.62,1.89-3.28,6.39.99,3.33,3.83,6.35,8.89,8.86,4.82,2.4,8.71,5.12,11.58,8.42,2.86,3.28,4.86,7.09,5.44,11.43.68,5.05-.61,9.16-3.19,12.34-1.32,1.63-2.84,2.91-4.53,3.82-1.69.91-3.54,1.45-5.6,1.48-4.56.06-7.95-1.34-10.22-4.02-2.29-2.7-3.48-6.74-3.67-12.09-.03-.88-.06-1.96-.07-3.24,1.66-.54,3.32-1.07,4.96-1.6-.16,2.35-.17,4.4-.09,6.13.16,3.46.85,6.06,2.18,7.79,1.32,1.73,3.29,2.65,5.95,2.61,4.23-.06,6.45-2.7,6.31-7.57-.05-1.82-.88-3.49-2.28-5.03-1.43-1.57-3.49-3.06-6.17-4.5-3.87-2.07-6.94-4.76-9.34-8-2.43-3.29-4.11-7.15-5.12-11.57-1.15-5.04-1.11-9.02.05-11.99.57-1.46,1.27-2.56,2.29-3.26.99-.68,2.3-.99,3.96-.88,3.41.23,6.88,1.77,10.2,4.64,3.23,2.78,5.91,6.89,7.78,12.2h0Z"/>
      <path class="cls-1" d="m133.37,63.12h2.46v-17.64h-2.71v7.39c0,1.07-.01,2.15-.07,3.22-.03.56-.06,1.26-.2,1.81-.18.7-.51,1.33-1.03,1.85-.5.49-1.1.78-1.81.78-.58,0-1.1-.19-1.5-.61-.41-.43-.65-.97-.77-1.54-.11-.51-.13-1.16-.15-1.68-.04-1.04-.05-2.09-.05-3.13v-8.08h-2.71v11.25c0,1.26.07,2.75.45,3.96.26.82.68,1.57,1.38,2.12.62.48,1.31.73,2.1.73s1.55-.29,2.21-.77c.77-.57,1.33-1.34,1.74-2.19l.66-1.36v3.91Z"/>
      <rect class="cls-5" x="137.02" y="58.94" width="2.61" height="4.18"/>
      <path class="cls-1" d="m139.94,58.47c.28,1.34.81,2.64,1.79,3.64,1.02,1.04,2.35,1.42,3.79,1.42,1.56,0,2.98-.43,3.97-1.68.96-1.21,1.36-2.61,1.36-4.14,0-1.18-.2-2.45-.96-3.4-.82-1-2.32-1.65-3.52-2.05-.73-.24-2.71-.9-3.23-1.46-.29-.32-.42-.69-.42-1.11,0-.46.14-.89.48-1.23.54-.52,1.39-.63,2.11-.63s1.35.17,1.84.68c.39.4.63.92.77,1.45l2.45-.66c-.26-1.14-.71-2.32-1.56-3.15-.92-.9-2.32-1.13-3.57-1.13-1.42,0-2.8.35-3.7,1.5-.87,1.1-1.21,2.41-1.21,3.8s.34,2.85,1.38,3.9c.96.96,3.64,1.87,4.93,2.29.43.14,1,.39,1.28.77.21.33.29.72.29,1.11,0,.56-.14,1.1-.52,1.52-.57.61-1.37.81-2.18.81s-1.53-.25-2.07-.86c-.48-.54-.73-1.26-.87-1.96l-2.64.59Z"/>
      <rect class="cls-5" x="151.55" y="58.94" width="2.61" height="4.18"/>
      <path class="cls-1" d="m166.34,63.12v-24.67h-2.61v10.03l-.64-1.07c-.72-1.22-1.79-2.39-3.32-2.39s-2.69.98-3.48,2.27c-1.19,1.94-1.44,4.7-1.44,6.92s.29,4.94,1.48,6.94c.75,1.25,1.82,2.38,3.39,2.38.7,0,1.34-.29,1.89-.7.75-.55,1.3-1.39,1.7-2.22l.66-1.35v3.86h2.38Zm-8.81-9.24c0-1.36.14-3.06.84-4.27.5-.85,1.22-1.55,2.27-1.55s1.8.69,2.29,1.57c.71,1.28.82,3.29.82,4.72s-.14,3.17-.84,4.43c-.48.85-1.19,1.6-2.24,1.6-1.31,0-2.09-1.01-2.55-2.11-.52-1.23-.58-3.07-.58-4.39h0Z"/>
      <rect class="cls-5" x="167.88" y="58.94" width="2.61" height="4.18"/>
    </g>
  </g>
</svg>