<?xml version="1.0" encoding="UTF-8"?>
<svg id="Layer_2" data-name="Layer 2" xmlns="http://www.w3.org/2000/svg" xmlns:xlink="http://www.w3.org/1999/xlink" viewBox="0 0 426.96 426.72">
  <defs>
    <style>
      .cls-1 {
        clip-path: url(#clippath);
      }

      .cls-2 {
        fill: none;
      }

      .cls-2, .cls-3, .cls-4, .cls-5, .cls-6 {
        stroke-width: 0px;
      }

      .cls-3 {
        fill: #0232a0;
      }

      .cls-3, .cls-4, .cls-5, .cls-6 {
        fill-rule: evenodd;
      }

      .cls-4 {
        fill: #082e86;
      }

      .cls-5 {
        fill: #d9e0e7;
      }

      .cls-6 {
        fill: #fff;
      }
    </style>
    <clipPath id="clippath">
      <rect class="cls-2" width="426.96" height="426.72"/>
    </clipPath>
  </defs>
  <g id="Layer_1-2" data-name="Layer 1">
    <g>
      <g class="cls-1">
        <path class="cls-3" d="m213.13.56c117.71,0,213.13,95.18,213.13,212.6,0,85.99-51.93,163.51-131.57,196.41-79.64,32.91-171.31,14.72-232.27-46.08C1.47,302.69-16.77,211.25,16.22,131.81,49.21,52.36,126.93.56,213.13.56h0Z"/>
        <path class="cls-6" d="m213.13,6.21c55.03,0,107.8,21.8,146.71,60.62,38.91,38.81,60.77,91.45,60.77,146.34,0,83.71-50.55,159.17-128.08,191.2-77.53,32.03-166.77,14.33-226.11-44.86C7.08,300.31-10.68,211.3,21.44,133.97,53.55,56.63,129.21,6.21,213.13,6.21h0Z"/>
        <path class="cls-3" d="m213.23,11.86c111.28,0,201.49,90.05,201.49,201.14,0,81.35-49.09,154.69-124.38,185.83-75.29,31.13-161.95,13.93-219.57-43.6C13.14,297.7-4.1,211.18,27.08,136.02,58.27,60.86,131.74,11.86,213.23,11.86h0Z"/>
      </g>
      <path class="cls-6" d="m213.28,72.76c77.63,0,140.56,62.79,140.56,140.24,0,56.72-34.25,107.86-86.77,129.57-52.52,21.71-112.98,9.71-153.18-30.4-40.2-40.11-52.23-100.43-30.47-152.84,21.75-52.4,73.01-86.57,129.86-86.57h0Z"/>
      <path class="cls-3" d="m212.98,78.65c74.35,0,134.63,60.13,134.63,134.3,0,54.32-32.8,103.28-83.11,124.07-50.3,20.79-108.21,9.3-146.72-29.11-38.5-38.41-50.02-96.17-29.18-146.36,20.84-50.18,69.93-82.9,124.38-82.9h0Z"/>
      <path class="cls-6" d="m212.99,83.86c34.29,0,67.18,13.6,91.43,37.81,24.25,24.21,37.88,57.04,37.88,91.28,0,52.21-31.5,99.28-79.82,119.26-48.32,19.98-103.93,8.93-140.91-27.98-36.98-36.92-48.04-92.44-28.03-140.67,20.02-48.24,67.16-79.69,119.46-79.69h0Z"/>
      <path class="cls-6" d="m243.08,270.82c-16.89,5.34-33.1,12.56-48.11,22.03-18.78,11.84-33.28,24.24-45.8,42.84l-6.68,9.93L58.85,134.18l6.58-1.96c28.67-8.57,59.26-10.41,88.93-7.11,21.5,2.39,42.46,7.54,62.68,15.24l2.52.96,3.29,7.85c13.62,4.28,27.48,8.04,41.47,10.85,12.7,2.55,25.88,4.42,38.85,4.57,20.58.25,34.29-2.75,44.02-13.57,4.58-5.09,7.91-10.86,10.82-21.14,5.58,11.61,8.7,23.66,8.96,37.06.32,16.2-3.85,32.92-11.43,46.48-8.49,15.18-20.34,27.28-34.45,37.3-20.1,14.26-44.18,23.77-67.73,30.56l-5.48,1.58-4.81-12.03Z"/>
      <path class="cls-3" d="m67.24,138.25l76.7,193.93c13.37-19.88,28.59-32.62,47.66-44.66,16.1-10.16,34.41-18.38,55.18-24.4l4.83,12.1c26.24-7.57,48.41-17.28,65.83-29.64,13.98-9.92,24.86-21.4,32.6-35.23,9.93-17.75,14.09-42.76,7.39-63.67-8.77,17.88-28.39,24.52-54.33,24.21-24.37-.29-54.03-6.7-84.93-16.6l-3.38-8.04c-20.26-7.72-40.62-12.59-61.13-14.87-28.46-3.16-58.29-1.51-86.43,6.89h0Z"/>
      <path class="cls-6" d="m345.45,166.38c-4.18,3.74-9.6,6.02-16.31,7.62-7.87,1.88-17.09,2.63-26.11,2.52-13.72-.16-28.59-1.99-42.02-4.69-16.27-3.27-30.04-6.35-47.64-11.77l-3.8-9.64c-18.57-6.88-36.83-10.18-56.53-12.37-26.03-2.89-53.1-.32-75.38,5.74l15.25,38.2c13.17-4.89,28.82-7.91,46.96-9.34,22.68-1.79,49.15-1.04,79.63,2.88l3.28,8.38c33.07,3.59,61.67,4.07,83.7-.15,16.6-3.18,31.77-8.72,38.97-17.37h0Zm-223.79,87.62l24.64,61.73c11.7-14.11,22.66-23.37,40.37-34.54,20.16-12.72,44.6-22.02,64.1-26.55l4.49,11.25c21.02-5.46,40.25-12.45,57.82-24.92,12.66-8.98,24.2-20.1,31.81-33.71,3.18-5.69,5.84-11.86,7.59-18.48-12.15,13.29-27.35,22.85-43.09,29.97-20.07,9.09-42.12,14.43-66,17.19l-3.5-8.83c-26.3-.38-45.57,1.38-66.81,6.16-18.15,4.08-38.05,11.2-51.43,20.73h0Z"/>
      <path class="cls-5" d="m228.16,164.32c-4.7-1.26-9.57-2.66-14.78-4.26l9.43,23.84c4.83.53,9.57.98,14.21,1.37l-8.86-20.95Zm15.24,71.61l11.88,29.95c4.81-1.25,9.52-2.57,14.14-4.03l-11.8-27.91c-4.66.77-9.4,1.43-14.21,1.99h0Z"/>
      <path class="cls-4" d="m222.8,183.9l20.59,52.03c4.81-.56,9.55-1.22,14.21-1.99l-20.59-48.67c-4.64-.39-9.38-.84-14.21-1.37h0Z"/>
      <path class="cls-6" d="m397.36,203.13h-3.2l-5,1.64.77,3.19,3.46-.96v16.44h3.98v-20.31Z"/>
      <path class="cls-6" d="m35.82,203.02h-3.2l-5,1.64.77,3.19,3.46-.96v16.44h3.98v-20.31Z"/>
      <path class="cls-6" d="m57.02,212.74c0-2.95-.45-5.32-1.84-7.19-1.31-1.75-3.45-2.94-6.43-2.94-4.07,0-7.5,3.01-7.5,7.29s3.46,6.34,7.27,6.35c1.98,0,3.51-.75,4.45-1.74-.14,3.05-1.79,5.46-4.44,5.58-1.77.08-3.24-.65-4.67-2.04l-2.04,3.01c2.2,1.6,4.05,2.47,6.74,2.47,2.2,0,4.29-1.07,5.75-2.67,1.97-2.16,2.7-5.34,2.7-8.12h0Zm-7.95.32c-1.87-.08-3.77-1.15-3.87-3.28-.11-2.32,1.37-3.68,3.63-3.68,2.73-.01,4.1,1.66,4.02,3.5-.08,1.84-1.51,3.55-3.78,3.46h0Z"/>
      <path class="cls-6" d="m377.44,219.84c2.43-2.19,5.86-4.36,7.65-7.15.63-.99,1.13-2.27,1.12-3.44-.01-2.42-1.31-4.49-3.23-5.54-1.15-.63-2.6-.89-3.94-.86-1.3.02-2.79.53-3.95,1.23-1.27.77-2.21,1.9-3.12,3.31l2.77,2.1c1.11-1.63,2.43-3.12,4.41-3.11,1.69,0,3.02,1.24,3.04,3.08.01,1.57-1.07,2.93-2.18,3.87l-8.35,7.01v3h14.72v-3.49h-8.93Z"/>
      <path class="cls-6" d="m209.02,55.7l6.6.23.32-9.05,4.86.13,5.81,9.31,7.74.28-6.77-10.54c3.68-1,6.32-4.36,6.48-8.7.13-3.37-1.06-5.8-2.76-7.36-2.32-2.15-5.78-2.78-9.79-2.93l-11.45-.41-1.04,29.03Zm12.6-22.64c3.06.11,5.81.94,5.69,4.26-.12,3.34-2.92,3.96-5.98,3.85l-5.18-.19.29-8.11,5.18.19Z"/>
      <path class="cls-6" d="m143.6,72.54l6.09-2.55-3.37-8.05,3.26-1.41c5.21-2.25,7.25-4.45,8.19-6.88.94-2.43.81-4.98-.27-7.64-1.27-3.12-3.77-4.89-5.97-5.61-3-.98-6.11-.23-9.81,1.31l-9.37,3.92,11.25,26.9Zm1.47-25.63c2.83-1.18,5.13-.88,6.25,1.79,1.16,2.78-.12,4.68-3.14,5.94l-4.18,1.75-3.21-7.69,4.28-1.79Z"/>
      <path class="cls-6" d="m91.97,113.02l7.18-7.35c2.34-2.39,4.32-4.94,5.07-8.29,1.06-4.71.03-9.73-3.93-13.6-3.79-3.7-8.17-4.77-12.52-4.04-3.83.65-6.57,2.72-9.19,5.41l-7.39,7.57,20.78,20.3Zm-8.5-24.44c3.35-3.44,8.54-3.43,12.06,0,3.56,3.48,3.66,8.55.26,12.03l-3.45,3.53-12.32-12.04,3.46-3.54Z"/>
      <path class="cls-6" d="m179.52,29.77c8.59-2.05,16.69,2.96,18.63,11.07,1.94,8.11-3.08,16.2-11.61,18.3-8.52,2.1-16.7-2.96-18.63-11.07-1.94-8.11,3.02-16.24,11.61-18.3h0Zm1.43,5.99c4.82-1.15,9.21,1.89,10.35,6.67,1.14,4.77-1.44,9.45-6.21,10.63-4.78,1.17-9.21-1.89-10.35-6.67-1.14-4.78,1.4-9.48,6.22-10.63h0Z"/>
      <path class="cls-6" d="m347.88,81.16c5.7,6.75,4.86,16.24-1.51,21.62-6.37,5.38-15.85,4.53-21.56-2.14-5.71-6.67-4.87-16.24,1.5-21.62,6.37-5.38,15.86-4.61,21.57,2.14h0Zm-4.7,3.97c3.19,3.79,2.45,9.08-1.3,12.25-3.75,3.17-9.09,2.96-12.29-.77-3.2-3.73-2.45-9.07,1.3-12.24,3.75-3.17,9.09-3.01,12.29.77h0Z"/>
      <path class="cls-6" d="m270.05,34.8l-23.45-5.57-1.41,5.91,8.45,2.01-5.31,22.35,6.5,1.55,5.31-22.35,8.5,2.02,1.41-5.91Z"/>
      <path class="cls-6" d="m288.92,41.99l-6.11-2.5-10.98,26.89,6.11,2.5,10.98-26.89Z"/>
      <path class="cls-6" d="m119.46,52.45l-18.31,12.2,16.1,24.18,18.55-12.36-3.29-4.94-13.06,8.7-3.17-4.76,11.31-7.54-3.25-4.88-11.31,7.54-3.11-4.66,12.82-8.54-3.29-4.94Z"/>
      <path class="cls-6" d="m325.87,62.35l-6.17-3.78-16.7,13.2,4.12-20.91-6.26-3.84-5.28,30.96,5.04,3.09,25.25-18.72Z"/>
      <path class="cls-6" d="m292.17,348.65c-2.49,1.64-4.43,3.83-4.89,6.62-.31,1.91,0,4.09,1.42,6.34,1.24,1.97,3.12,3.11,5.16,3.44,1.72.28,3.45-.07,5.29-.47,2.37-.52,7.41-2.84,8.84-.36.92,1.59-.5,3.19-1.75,4.02-2.97,1.96-6.61,1.97-9.6,1.57l-1.07,5.89c5.78,1.17,11.01-.5,13.93-2.57,2.34-1.65,4.19-3.57,4.88-6.2.54-2.04.36-4.56-1.29-7.08-1.69-2.57-4.18-3.5-6.75-3.47-2.34.03-4.85.85-7.03,1.42-1.42.38-4.91,1.61-5.75-.82-.5-1.48.61-2.74,1.72-3.48,2.48-1.64,5.08-1.69,8.3-1.43l.38-5.95c-4.24-.67-8.72.48-11.8,2.52h0Z"/>
      <path class="cls-6" d="m276.79,357.27l-20.79,7.2,9.51,27.45,21.07-7.3-1.94-5.61-14.83,5.14-1.87-5.4,12.84-4.45-1.92-5.54-12.84,4.45-1.83-5.29,14.55-5.04-1.94-5.61Z"/>
      <path class="cls-6" d="m263.17,359.85l4.78-1.65,4.12-5.97-6.34-.36-2.56,7.99Z"/>
      <path class="cls-6" d="m248.79,366.57l-7.18.88-4.85,20.73-9.79-18.94-7.29.89,15.14,27.52,5.86-.72,8.11-30.37Z"/>
      <path class="cls-6" d="m211.97,399.11l-6.95-.66-1.97-6.6-11.91-1.14-3.24,6.1-6.74-.65,15.26-27.83,5.88.56,9.68,30.22Zm-10.72-13.29l-2.7-9.04-4.44,8.36,7.15.68Z"/>
      <path class="cls-6" d="m137.41,382.48l-6.09-3.42.87-6.83-10.43-5.87-5.43,4.26-5.9-3.32,25.22-19.27,5.15,2.9-3.39,31.55Zm-4.42-16.5l1.19-9.36-7.45,5.84,6.26,3.52Z"/>
      <path class="cls-6" d="m165.1,361.54l-6.29-1.98-8.73,27.71,20.01,6.3,1.78-5.66-13.72-4.32,6.95-22.05Z"/>
      <path class="cls-6" d="m129.43,189.86l4.95,12.47,7.22-1.72-2.77-7,4.38-.77c2.12-.39,4.62-.7,6.78-.37,2.32.36,4.38,1.19,6.02,2.27,4.3,2.83,7.66,8.97,6.09,14.17-.73,2.43-2.54,4.38-5.81,5.43l-8.21,2.63-3.13-7.91-7.09,2.03,5.48,13.81,15.79-4.79c5.18-1.57,9.69-5.9,9.8-11.64l.29-15.79,9.84,11.01-4.19.47v5.5l8.27-1.06,4.93,5.76,5.47-.73-24.53-27.44-5.05.48-.25,7.96c-2.54-3.6-6.09-5.52-10.34-6.47-6.63-1.49-15.07-.24-23.92,1.7h0Z"/>
    </g>
  </g>
</svg>