<?xml version="1.0" encoding="UTF-8"?>
<svg id="Livello_2" data-name="Livello 2" xmlns="http://www.w3.org/2000/svg" viewBox="0 0 278.6 286.36">
  <defs>
    <style>
      .cls-1 {
        fill: #212b6a;
      }

      .cls-1, .cls-2, .cls-3 {
        stroke-width: 0px;
      }

      .cls-2 {
        fill: #126d38;
        fill-rule: evenodd;
      }

      .cls-3 {
        fill: #f4c51f;
      }
    </style>
  </defs>
  <g id="_레이어_1" data-name="레이어 1">
    <path class="cls-3" d="m45.64,10.8v161.39c0,35.4,45.45,51.68,93.57,68.92l.09.03.09-.03c48.12-17.24,93.57-33.52,93.57-68.92V10.8H45.64Z"/>
    <path class="cls-1" d="m156.59,165.45v-41.7h-7.48c-.82,4.37-2.46,6.48-6.02,7.39v6.75h4.19v27.57h9.31Zm-78.34-33.62h13.74l3.38,33.62h18.82L97.49,24.41h-25.58l-15.23,141.03h18.61l2.96-33.62Zm6.35-72.31l5.7,55.82h-10.57l4.86-55.82Zm80.16,24.13v-29.21c0-14.38-1.05-18.82-5.5-23.47-4.44-4.44-10.36-6.56-18.82-6.56h-24.74v88.62h23.89c18.4,0,25.16-8.04,25.16-29.39m-30.23,12.48v-54.79h1.69c8.03.21,9.73,1.9,9.73,10.14v34.49c0,8.24-1.69,10.15-9.73,10.15h-1.69Zm48.48,69.32l2.96-33.62h13.74l3.38,33.62h18.82l-16.7-141.03h-25.58l-15.23,141.03h18.61Zm9.3-105.93l5.71,55.82h-10.57l4.86-55.82Zm-53.75,64.23h-21.25v8.39h11.4l-6.9,33.31h9.61l7.14-34.22v-7.48ZM34.84,0v172.19c0,19.62,10.63,35.85,32.5,49.61,18.59,11.69,42.7,20.33,68.24,29.48l3.72,1.33,3.73-1.33c25.53-9.15,49.64-17.79,68.23-29.48,21.87-13.76,32.5-29.99,32.5-49.61V0H34.84Zm198.11,172.19c0,35.4-45.45,51.69-93.57,68.92l-.09.03-.09-.03c-48.12-17.23-93.57-33.52-93.57-68.92V10.8h187.31v161.39Zm-99.05,32.88c1.32.22,2.17-.78,3.09-.99-1.64-.79-3.76-2.27-4.98-3.93-.84,2.5.22,4.64,1.89,4.92m7.71-.99c.92.21,1.76,1.21,3.09.99,1.67-.28,2.73-2.42,1.89-4.92-1.22,1.66-3.34,3.14-4.98,3.93m-43.8-2.84l-23.18-3.71c2.35,7.13,42.44,22.08,62.35,27.7,1.26-2.03,2.31-3.62,2.31-3.62,0,0,1.04,1.59,2.31,3.62,19.91-5.62,59.99-20.57,62.35-27.7l-23.17,3.71c24.41-8.55,37.79-11.7,42.29-27.79,0,0-27.34,7.06-63.6,16.35-6.26,1.6-7.78,5.3-8.78,10.67-.79,4.23-2.96,6.61-7.59,7.91-1.5,4.16-3.81,5.45-3.81,5.45,0,0-2.31-1.29-3.82-5.45-4.63-1.3-6.8-3.67-7.59-7.91-1-5.37-2.51-9.06-8.78-10.67-36.26-9.3-63.6-16.35-63.6-16.35,4.5,16.09,17.89,19.24,42.3,27.79"/>
    <path class="cls-2" d="m239.51,246.32c13.05-5.04,14.92-11.53,26.66-14.31-6.25-1.79-13.63-2.84-21.05-2.92,15.02-5.76,23.68-19.85,33.47-22.4-7.03-1.49-13.27-1.83-18.89-.85,9.86-6.99,18.19-19.77,15.84-35.73-3.5,7.24-10.17,11.67-15.51,16.21,5.33-9.11,10.46-23.93-3.36-35.01.19,5.4.06,9.79.06,18,0,15.44-3.59,26.27-10.31,37.19-6.88,11.17-17.36,20.31-33.93,29.77-10.86,6.2-23.2,10.59-35.4,15.01-12.92,4.69-26.05,9.29-37.82,16.36-11.75-7.06-24.89-11.66-37.81-16.36-12.19-4.42-24.54-8.81-35.39-15.01-16.57-9.46-27.05-18.6-33.93-29.77-6.72-10.91-10.31-21.75-10.31-37.19,0-8.21-.12-12.61.06-18-13.82,11.08-8.69,25.91-3.36,35.01-5.33-4.54-12.01-8.96-15.51-16.21-2.34,15.96,5.98,28.74,15.85,35.73-5.64-.98-11.87-.63-18.89.85,9.79,2.55,18.45,16.64,33.47,22.4-7.42.08-14.8,1.12-21.05,2.92,11.74,2.78,13.62,9.27,26.67,14.31,8.33,3.21,18.63,3.39,27.16,2.69-10.65,3-21.8,8.36-27.53,15.36,14.59-1.34,23.14.72,32.91,3.68,11.59,3.5,30.69,2.27,39.12-8.37,8.05,3.2,15.96,6.74,23.41,11.28-4.57,3.18-8.88,6.82-12.82,11.11l4.1,4.31c4.3-4.69,8.96-8.64,13.86-12.06,4.91,3.42,9.56,7.36,13.86,12.06l4.1-4.31c-3.93-4.29-8.25-7.92-12.81-11.11,7.45-4.53,15.36-8.08,23.41-11.28,8.42,10.64,27.53,11.87,39.11,8.37,9.78-2.95,18.33-5.01,32.91-3.68-5.73-7-16.88-12.36-27.53-15.36,8.54.71,18.83.53,27.16-2.69"/>
  </g>
</svg>