<?xml version="1.0" encoding="UTF-8"?>
<svg id="Layer_2" data-name="Layer 2" xmlns="http://www.w3.org/2000/svg" viewBox="0 0 60.14 132.86">
  <defs>
    <style>
      .cls-1 {
        fill: #c0a8a1;
      }

      .cls-1, .cls-2, .cls-3, .cls-4, .cls-5 {
        fill-rule: evenodd;
      }

      .cls-1, .cls-2, .cls-3, .cls-4, .cls-5, .cls-6, .cls-7, .cls-8, .cls-9, .cls-10, .cls-11, .cls-12, .cls-13, .cls-14, .cls-15, .cls-16, .cls-17, .cls-18, .cls-19, .cls-20, .cls-21, .cls-22, .cls-23, .cls-24, .cls-25, .cls-26, .cls-27, .cls-28, .cls-29, .cls-30, .cls-31, .cls-32, .cls-33, .cls-34, .cls-35, .cls-36, .cls-37, .cls-38, .cls-39, .cls-40, .cls-41, .cls-42, .cls-43, .cls-44, .cls-45, .cls-46, .cls-47, .cls-48 {
        stroke-width: 0px;
      }

      .cls-2 {
        fill: #d0c62e;
      }

      .cls-3 {
        fill: #dce7ee;
      }

      .cls-4 {
        fill: #eb2d2e;
      }

      .cls-5 {
        fill: #99b2d6;
      }

      .cls-6 {
        fill: #f4db90;
      }

      .cls-7 {
        fill: #f6f5f7;
      }

      .cls-8 {
        fill: #f6f8f9;
      }

      .cls-9 {
        fill: #231f20;
      }

      .cls-10 {
        fill: #d2d4da;
      }

      .cls-11 {
        fill: #d4524d;
      }

      .cls-12 {
        fill: #d2d6db;
      }

      .cls-13 {
        fill: #cbced4;
      }

      .cls-14 {
        fill: #dddfe4;
      }

      .cls-15 {
        fill: #dee0e4;
      }

      .cls-16 {
        fill: #d0d3d8;
      }

      .cls-17 {
        fill: #d0d3da;
      }

      .cls-18 {
        fill: #c9cdd4;
      }

      .cls-19 {
        fill: #cbd0d5;
      }

      .cls-20 {
        fill: #d7d9de;
      }

      .cls-21 {
        fill: #e1e3e7;
      }

      .cls-22 {
        fill: #df3e2e;
      }

      .cls-23 {
        fill: #d5d7dd;
      }

      .cls-24 {
        fill: #d5d9de;
      }

      .cls-25 {
        fill: #dee2e7;
      }

      .cls-26 {
        fill: #d6a03c;
      }

      .cls-27 {
        fill: #dfe2e5;
      }

      .cls-28 {
        fill: #dadce1;
      }

      .cls-29 {
        fill: #ced1d7;
      }

      .cls-30 {
        fill: #928583;
      }

      .cls-31 {
        fill: #f1f1f2;
      }

      .cls-32 {
        fill: #f1f2f3;
      }

      .cls-33 {
        fill: #fff;
      }

      .cls-34 {
        fill: #eece63;
      }

      .cls-35 {
        fill: #e3e5ea;
      }

      .cls-36 {
        fill: #e4e5e8;
      }

      .cls-37 {
        fill: #fafafc;
      }

      .cls-38 {
        fill: #e6ba30;
      }

      .cls-39 {
        fill: #eaeaeb;
      }

      .cls-40 {
        fill: #eeedef;
      }

      .cls-41 {
        fill: #eef0f2;
      }

      .cls-42 {
        fill: #ebecef;
      }

      .cls-43 {
        fill: #fafdff;
      }

      .cls-44 {
        fill: #e7e9eb;
      }

      .cls-45 {
        fill: #eaca4d;
      }

      .cls-46 {
        fill: #f4f4f7;
      }

      .cls-47 {
        fill: #f4f4f4;
      }

      .cls-48 {
        fill: #006daa;
      }
    </style>
  </defs>
  <g id="Layer_1-2" data-name="Layer 1">
    <g>
      <path class="cls-9" d="m30.07,18.17c4.08,0,2.84-1.36,5.31-1.36s8.53,5.68,8.53,10.01c2.97,0,13.72,6.67,13.72,15.2l.86,2.84s.62-5.93.62-8.16C59.11,10.63,41.11,2.35,40.45,2.35c0,2.51-.91,8.03-2.92,8.03-1.07,0-1.52-.7-1.52-.7-.64-.64-2.8-2.39-3.58-2.88,0,0-.76-.33-.76-.76s1.17-1.26,1.17-2V1.52s.5-.41.5-1.52c-.84.27-1.07.95-1.07.95h-1.52l-.66-.58-.66.58h-1.52s-.23-.68-1.07-.95c0,1.11.5,1.52.5,1.52v2.51c0,.74,1.17,1.57,1.17,2s-.76.76-.76.76c-.78.49-2.94,2.25-3.58,2.88,0,0-.45.7-1.52.7-2.02,0-2.92-5.52-2.92-8.03C19.03,2.35,1.03,10.63,1.03,36.7c0,2.22.62,8.16.62,8.16l.86-2.84c0-8.53,10.75-15.2,13.72-15.2,0-4.33,6.06-10.01,8.53-10.01s1.24,1.36,5.31,1.36h0Z"/>
      <polygon class="cls-9" points="60.14 44.86 30.08 132.86 30.06 132.86 0 44.86 60.14 44.86 60.14 44.86"/>
      <path class="cls-33" d="m1.38,45.85c.84,2.46,26.96,78.92,28.69,83.98,1.73-5.06,27.85-81.52,28.69-83.98H1.38Zm28.69,32.79c-5.34,0-9.68-4.34-9.68-9.68s4.34-9.68,9.68-9.68,9.68,4.34,9.68,9.68-4.34,9.68-9.68,9.68h0Z"/>
      <path class="cls-48" d="m10.59,46.83H2.76c.56,1.64,3.77,11.04,7.82,22.9v-22.9h0Z"/>
      <path class="cls-48" d="m49.55,69.73c4.05-11.85,7.26-21.26,7.82-22.9h-7.82v22.9h0Z"/>
      <path class="cls-48" d="m33.82,46.83v12.14c-1.17-.44-2.43-.69-3.75-.69s-2.58.25-3.75.69v-12.14h-9.31v41.71c3.41,10,6.79,19.89,9.31,27.25v-36.86c1.17.44,2.43.69,3.75.69s2.58-.25,3.75-.69v36.86c2.51-7.36,5.89-17.25,9.31-27.25v-41.71h-9.31Zm-3.75,31.8c-5.34,0-9.68-4.34-9.68-9.68s4.34-9.68,9.68-9.68,9.68,4.34,9.68,9.68-4.34,9.68-9.68,9.68h0Z"/>
      <path class="cls-9" d="m14.25,42.67l.64.22c-.1.4-.26.69-.49.88-.23.19-.52.29-.88.29-.44,0-.8-.16-1.08-.49-.28-.33-.42-.77-.42-1.34,0-.6.14-1.07.43-1.4.28-.33.66-.5,1.12-.5.4,0,.73.13.98.39.15.15.26.38.34.67l-.66.17c-.04-.19-.12-.33-.24-.44-.12-.11-.28-.16-.45-.16-.25,0-.44.1-.6.29-.15.19-.23.5-.23.93,0,.46.08.78.23.97.15.19.35.29.59.29.18,0,.33-.06.46-.18.13-.12.22-.32.28-.58h0Z"/>
      <polygon class="cls-9" points="15.47 44 15.47 43.31 16.11 43.31 16.11 44 15.47 44 15.47 44"/>
      <path class="cls-9" d="m16.79,40.39h1.21c.27,0,.48.02.62.07.19.06.36.17.49.33.14.16.24.35.31.59.07.23.11.52.11.85,0,.3-.03.55-.1.77-.08.26-.2.48-.35.64-.12.12-.27.22-.46.29-.15.05-.34.08-.59.08h-1.25v-3.61h0Zm.66.61v2.39h.49c.18,0,.32-.01.4-.03.11-.03.2-.08.27-.15.07-.07.13-.19.17-.35.04-.16.07-.38.07-.66s-.02-.49-.07-.64c-.04-.15-.11-.27-.19-.35-.08-.08-.18-.14-.31-.17-.09-.02-.27-.04-.54-.04h-.3Z"/>
      <polygon class="cls-9" points="20.12 44 20.12 43.31 20.76 43.31 20.76 44 20.12 44 20.12 44"/>
      <path class="cls-9" d="m25.55,44h-.72l-.28-.82h-1.32l-.27.82h-.71l1.26-3.61h.72l1.32,3.61h0Zm-1.22-1.43l-.46-1.34-.44,1.34h.9Z"/>
      <polygon class="cls-9" points="25.94 44 25.94 40.42 26.61 40.42 26.61 43.39 28.25 43.39 28.25 44 25.94 44 25.94 44"/>
      <path class="cls-9" d="m30.87,42.67l.64.22c-.1.4-.26.69-.5.88-.23.19-.52.29-.87.29-.44,0-.8-.16-1.08-.49-.28-.33-.42-.77-.42-1.34,0-.6.14-1.07.42-1.4.28-.33.66-.5,1.12-.5.4,0,.73.13.98.39.15.15.26.38.34.67l-.66.17c-.04-.19-.12-.33-.25-.44-.12-.11-.27-.16-.45-.16-.25,0-.44.1-.6.29-.15.19-.23.5-.23.93,0,.46.08.78.22.97.15.19.35.29.59.29.18,0,.33-.06.46-.18.13-.12.22-.32.27-.58h0Z"/>
      <path class="cls-9" d="m31.97,42.23c0-.37.05-.68.15-.93.07-.18.18-.35.31-.5s.27-.25.42-.33c.21-.1.44-.14.71-.14.48,0,.87.16,1.16.5.29.33.44.79.44,1.38s-.15,1.04-.43,1.37c-.29.33-.67.49-1.16.49s-.88-.16-1.17-.49c-.29-.33-.43-.78-.43-1.35h0Zm.69-.02c0,.41.09.72.26.93.17.21.39.32.65.32s.48-.1.65-.31c.17-.21.25-.52.25-.94s-.08-.72-.25-.93c-.17-.2-.38-.31-.66-.31s-.49.1-.66.31c-.17.21-.25.52-.25.93h0Z"/>
      <polygon class="cls-9" points="36.57 44 36.57 42.48 35.36 40.39 36.14 40.39 36.91 41.82 37.68 40.39 38.44 40.39 37.23 42.49 37.23 44 36.57 44 36.57 44"/>
      <path class="cls-9" d="m41.35,44h-.72l-.28-.82h-1.32l-.27.82h-.71l1.26-3.61h.72l1.32,3.61h0Zm-1.22-1.43l-.46-1.34-.44,1.34h.9Z"/>
      <polygon class="cls-9" points="41.73 44 41.73 40.39 42.38 40.39 43.73 42.8 43.73 40.39 44.34 40.39 44.34 44 43.68 44 42.35 41.64 42.35 44 41.73 44 41.73 44"/>
      <path class="cls-9" d="m44.94,42.23c0-.37.05-.68.15-.93.08-.18.18-.35.31-.5.13-.15.27-.25.42-.33.2-.1.44-.14.71-.14.48,0,.87.16,1.16.5.29.33.44.79.44,1.38s-.14,1.04-.43,1.37c-.29.33-.67.49-1.16.49s-.88-.16-1.17-.49c-.29-.33-.43-.78-.43-1.35h0Zm.69-.02c0,.41.09.72.26.93.17.21.39.32.65.32s.48-.1.65-.31c.17-.21.25-.52.25-.94s-.08-.72-.25-.93c-.17-.2-.38-.31-.66-.31s-.49.1-.66.31c-.17.21-.25.52-.25.93h0Z"/>
      <path class="cls-11" d="m27.71,27.17s-.11.05-.21.05-.09-.07-.26-.07-.24.19-.41.19-.22-.19-.46-.19-.34.48-.51.48-.36-.05-.36-.05v-.46s.19.05.36.05.27-.48.51-.48.29.19.46.19.25-.19.41-.19.16.07.26.07.21-.05.21-.05v.46h0Z"/>
      <path class="cls-6" d="m25.51,28.24s.19.05.36.05.27-.48.51-.48.29.19.46.19.25-.19.41-.19.16.07.26.07.21-.05.21-.05v-.67s-.11.05-.21.05-.09-.07-.26-.07-.24.19-.41.19-.22-.19-.46-.19-.34.48-.51.48-.36-.05-.36-.05v.67h0Z"/>
      <path class="cls-11" d="m27.71,28.3s-.11.05-.21.05-.09-.07-.26-.07-.24.19-.41.19-.22-.19-.46-.19-.34.48-.51.48-.36-.05-.36-.05v-.46s.19.05.36.05.27-.48.51-.48.29.19.46.19.25-.19.41-.19.16.07.26.07.21-.05.21-.05v.46h0Z"/>
      <path class="cls-11" d="m34.63,27.17s-.11.05-.21.05-.09-.07-.26-.07-.24.19-.41.19-.22-.19-.46-.19-.34.48-.51.48-.36-.05-.36-.05v-.46s.19.05.36.05.27-.48.51-.48.29.19.46.19.25-.19.41-.19.16.07.26.07.21-.05.21-.05v.46h0Z"/>
      <path class="cls-6" d="m32.43,28.24s.19.05.36.05.27-.48.51-.48.29.19.46.19.25-.19.41-.19.16.07.26.07.21-.05.21-.05v-.67s-.11.05-.21.05-.09-.07-.26-.07-.24.19-.41.19-.22-.19-.46-.19-.34.48-.51.48-.36-.05-.36-.05v.67h0Z"/>
      <path class="cls-11" d="m34.63,28.3s-.11.05-.21.05-.09-.07-.26-.07-.24.19-.41.19-.22-.19-.46-.19-.34.48-.51.48-.36-.05-.36-.05v-.46s.19.05.36.05.27-.48.51-.48.29.19.46.19.25-.19.41-.19.16.07.26.07.21-.05.21-.05v.46h0Z"/>
      <polygon class="cls-22" points="30.92 27.73 30.36 27.73 30.36 27.17 29.8 27.17 29.8 27.73 29.23 27.73 29.23 28.3 29.8 28.3 29.8 28.86 30.36 28.86 30.36 28.3 30.92 28.3 30.92 27.73 30.92 27.73"/>
      <path class="cls-33" d="m25.5,21.44c.32,0,.25.36.6.36l.22-.02c.25,0,1.35,1.45,1.51,1.45.1,0,.16-.04.16-.04.1.27.22,1.02.22,1.31s.67.91.67,1.36c0,.16.17.77.09.87-.07.1-.11-.07-.25-.07s-.13.36-.32.36c-.43,0-1.15-.93-1.77-2.09-.31-.58-.59-1.22-.8-1.82-.21-.61-.34-1.19-.34-1.65h0Z"/>
      <path class="cls-33" d="m25.5,21.44c.1,0,.16.04.21.09.11.11.15.27.39.27l.22-.02c.14,0,.54.44.89.83.06.07.12.14.18.21.21.23.37.4.43.41.09,0,.16-.04.16-.04.03.1.07.27.11.47.06.31.11.67.11.85,0,.3.68.92.68,1.36h0c0,.08.05.28.08.46.03.17.05.33.03.39,0,0,0,0,0,.01-.01.02-.02.02-.03.03-.05.02-.1-.1-.22-.1-.08,0-.12.13-.16.23-.03.07-.08.13-.15.13-.15,0-.35-.12-.56-.33-.33-.32-.7-.85-1.05-1.47-.05-.09-.11-.19-.16-.28-.28-.53-.54-1.11-.75-1.67-.02-.05-.04-.1-.05-.15-.21-.61-.33-1.18-.33-1.64h0Z"/>
      <path class="cls-43" d="m25.5,21.44c.1,0,.16.04.21.09.11.1.15.27.39.27l.22-.02c.14,0,.54.44.89.83.06.07.12.14.18.21.2.22.36.39.41.4.09,0,.15-.04.15-.04.03.1.07.27.11.47.06.31.11.67.12.85.01.3.69.93.69,1.36h0c0,.08.06.27.09.45.03.17.05.33.03.39,0,0,0,0,0,.01,0,.02-.02.02-.03.03-.05.02-.1-.09-.22-.09-.09,0-.12.12-.16.23-.03.07-.08.13-.15.13-.16,0-.35-.12-.57-.34-.33-.32-.7-.85-1.05-1.47-.05-.09-.1-.19-.16-.28-.28-.53-.54-1.11-.74-1.66-.02-.05-.04-.1-.05-.15-.21-.61-.33-1.18-.33-1.64h0Z"/>
      <path class="cls-37" d="m25.5,21.45c.1,0,.16.04.21.09.11.1.15.27.39.27l.22-.02c.14,0,.54.44.88.83.06.07.12.14.17.2.2.22.35.39.4.4.09,0,.15-.04.15-.03.03.1.07.28.11.47.06.31.11.67.12.85.02.31.7.93.7,1.36h0c0,.08.07.27.1.44.03.17.05.33.03.39,0,0,0,0,0,.01,0,.01-.02.02-.03.03-.05.02-.1-.09-.22-.09-.09,0-.12.12-.16.23-.03.07-.08.13-.15.13-.16,0-.35-.13-.57-.34-.33-.32-.7-.85-1.05-1.47-.05-.09-.1-.19-.16-.28-.28-.53-.54-1.1-.74-1.66-.02-.05-.04-.1-.05-.15-.2-.6-.33-1.18-.33-1.64h0Z"/>
      <path class="cls-8" d="m25.5,21.45c.1,0,.16.04.21.09.1.1.15.27.39.27l.22-.02c.14,0,.54.44.88.83.06.07.11.14.17.2.19.21.34.38.39.4.09,0,.14-.03.14-.03.03.1.07.28.1.47.05.31.11.67.12.85.03.32.71.94.71,1.36,0,0,0,0,0,0,0,.08.08.26.11.43.03.17.05.33.03.39,0,0,0,0,0,.01-.01.02-.02.02-.03.03-.05.02-.1-.09-.22-.09-.09,0-.12.12-.16.23-.03.07-.08.13-.15.13-.16,0-.36-.13-.58-.35-.33-.33-.7-.85-1.05-1.47-.05-.09-.1-.19-.16-.28-.28-.53-.54-1.1-.74-1.66-.02-.05-.04-.1-.05-.15-.2-.6-.33-1.17-.33-1.63h0Z"/>
      <path class="cls-8" d="m25.5,21.45c.1,0,.16.04.21.09.1.1.15.27.39.27l.22-.02c.14,0,.54.44.88.83.06.06.11.15.16.2.19.21.34.37.38.4.09,0,.14-.03.14-.03.03.1.06.28.1.47.05.31.11.66.13.85.04.33.71.95.72,1.36h0c0,.08.08.26.11.43.03.17.05.33.03.39,0,0,0,0,0,.01-.01.01-.02.02-.03.02-.05.02-.1-.09-.22-.09-.09,0-.12.12-.17.23-.03.07-.08.13-.15.13-.16,0-.36-.13-.58-.35-.33-.33-.7-.85-1.04-1.47-.05-.09-.1-.19-.16-.28-.28-.53-.54-1.1-.74-1.66-.02-.05-.04-.1-.05-.15-.2-.6-.33-1.17-.33-1.63h0Z"/>
      <path class="cls-7" d="m25.5,21.45c.1,0,.16.04.21.09.1.1.15.26.39.26l.22-.02c.14,0,.54.44.88.83.06.06.11.15.16.2.19.2.33.37.37.39.08,0,.14-.03.14-.02.03.11.06.28.1.48.05.31.11.66.13.86.04.34.72.96.73,1.36h0c0,.08.09.26.12.42.03.17.05.33.03.39,0,0,0,0,0,.01,0,.01-.02.02-.03.02-.05.02-.1-.09-.22-.09-.09,0-.12.12-.17.22-.03.07-.08.13-.15.13-.16,0-.36-.13-.58-.36-.32-.33-.69-.85-1.04-1.47-.05-.09-.1-.19-.15-.28-.28-.53-.54-1.1-.74-1.65-.02-.05-.04-.1-.05-.15-.2-.6-.33-1.17-.33-1.63h0Z"/>
      <path class="cls-46" d="m25.51,21.45c.1,0,.16.04.21.09.1.1.15.26.39.26l.22-.02c.14,0,.54.44.88.83.06.06.1.15.15.2.18.2.32.36.36.39.08,0,.13-.03.13-.02.03.11.06.28.09.48.05.31.11.66.14.86.05.35.73.96.74,1.36h0c0,.07.1.25.13.41.03.16.05.33.03.4,0,0,0,.01,0,.01,0,.01-.02.02-.03.02-.05.02-.1-.09-.22-.09-.09,0-.12.12-.17.22-.03.07-.08.13-.15.13-.16,0-.36-.13-.59-.36-.32-.33-.69-.85-1.04-1.47-.05-.09-.1-.19-.15-.28-.28-.52-.54-1.1-.73-1.65-.02-.05-.04-.1-.05-.15-.2-.6-.33-1.17-.33-1.62h0Z"/>
      <path class="cls-47" d="m25.51,21.46c.1,0,.16.04.21.09.1.1.15.26.39.26l.22-.02c.14,0,.54.44.88.83.05.06.1.15.15.2.18.2.31.35.35.39.08,0,.13-.02.13-.02.03.11.06.28.09.48.05.31.11.66.14.86.06.35.74.97.75,1.36,0,0,0,0,0,0,0,.07.11.25.13.4.03.16.05.33.03.4,0,0,0,0,0,.01,0,.01-.02.02-.03.02-.05.02-.1-.09-.21-.09-.09,0-.12.12-.17.22-.03.07-.08.13-.15.13-.16,0-.36-.14-.59-.37-.32-.33-.69-.85-1.04-1.46-.05-.09-.1-.19-.15-.28-.28-.52-.54-1.09-.73-1.65-.02-.05-.04-.1-.05-.15-.2-.6-.33-1.16-.33-1.62h0Z"/>
      <path class="cls-32" d="m25.51,21.46c.1,0,.16.04.21.09.1.1.15.26.39.26l.22-.02c.14,0,.54.44.88.83.05.06.09.15.14.2.17.19.3.35.33.39.08,0,.13-.02.13-.01.03.11.06.28.09.48.05.31.11.66.14.86.07.36.75.98.76,1.36,0,0,0,0,0,0,0,.07.12.24.14.4.03.16.05.33.03.4,0,0,0,.01,0,.01,0,.01-.02.02-.03.02-.05.01-.1-.09-.21-.09-.09,0-.12.12-.17.22-.03.07-.08.13-.15.13-.16,0-.37-.14-.59-.37-.32-.33-.69-.85-1.03-1.46-.05-.09-.1-.19-.15-.28-.28-.52-.53-1.09-.73-1.64-.02-.05-.04-.1-.05-.15-.2-.6-.33-1.16-.33-1.62h0Z"/>
      <path class="cls-32" d="m25.51,21.46c.1,0,.15.04.2.09.1.1.15.26.39.26l.22-.02c.14,0,.54.45.88.83.05.06.09.15.14.2.17.19.29.34.32.38.07,0,.12-.02.12,0,.02.11.05.28.08.48.05.31.11.66.15.86.07.37.76.99.77,1.36,0,0,0,0,0,0,0,.07.12.24.15.39.03.16.05.33.03.4,0,0,0,.01,0,.02,0,.01-.02.02-.03.02-.05.01-.1-.09-.21-.09-.09,0-.12.12-.17.22-.04.08-.08.13-.15.13-.16,0-.37-.14-.6-.38-.32-.33-.69-.85-1.03-1.46-.05-.09-.1-.18-.15-.28-.28-.52-.53-1.09-.73-1.64-.02-.05-.04-.1-.05-.15-.2-.59-.33-1.16-.33-1.61h0Z"/>
      <path class="cls-31" d="m25.51,21.46c.1,0,.15.04.2.1.1.1.15.26.39.26l.22-.02c.13,0,.54.45.88.83.05.06.09.15.13.2.17.18.28.33.31.38.07,0,.12-.02.12,0,.02.11.05.28.08.49.05.31.11.66.15.86.08.38.77,1,.78,1.36,0,0,0,0,0,0,0,.06.13.23.16.38.03.16.05.33.03.4,0,0,0,.01,0,.02,0,.01-.02.01-.03.02-.05.01-.1-.09-.21-.09-.09,0-.12.12-.17.22-.04.08-.08.13-.15.13-.16,0-.37-.14-.6-.38-.32-.33-.69-.85-1.03-1.46-.05-.09-.1-.18-.15-.28-.28-.52-.53-1.09-.73-1.64-.02-.05-.04-.1-.05-.15-.2-.59-.33-1.16-.33-1.61h0Z"/>
      <path class="cls-31" d="m25.51,21.46c.1,0,.15.04.2.1.1.1.15.26.39.26l.22-.02c.13,0,.54.45.88.83.05.05.09.15.13.2.16.18.27.32.3.38.07,0,.12-.01.12,0,.02.11.05.29.08.49.04.31.11.66.16.86.09.39.78,1,.79,1.36,0,0,0,0,0,0,0,.06.14.23.16.37.03.16.05.33.04.4,0,0,0,.01,0,.02,0,.01-.02.01-.03.02-.05.01-.1-.09-.21-.09-.09,0-.12.12-.17.22-.04.08-.08.13-.15.13-.16,0-.37-.14-.61-.39-.32-.33-.69-.85-1.03-1.46-.05-.09-.1-.18-.15-.28-.28-.52-.53-1.09-.73-1.63-.02-.05-.04-.1-.05-.15-.2-.59-.33-1.15-.33-1.61h0Z"/>
      <path class="cls-41" d="m25.51,21.47c.1,0,.15.04.2.1.1.1.15.26.39.26l.22-.02c.13,0,.54.45.88.83.05.05.08.15.12.2.16.17.26.32.29.38.07.01.11-.01.11,0,.02.11.04.29.07.49.04.31.11.65.16.86.1.39.79,1.01.8,1.36,0,0,0,0,0,0,0,.06.15.23.17.37.03.16.05.33.03.4,0,0,0,.01,0,.02,0,.01-.02.01-.03.02-.05,0-.1-.09-.21-.09-.09,0-.12.12-.17.22-.04.08-.08.13-.15.13-.16,0-.38-.15-.61-.39-.32-.33-.68-.86-1.02-1.46-.05-.09-.1-.18-.15-.28-.28-.52-.53-1.08-.72-1.63-.02-.05-.04-.1-.05-.15-.2-.59-.32-1.15-.33-1.6h0Z"/>
      <path class="cls-40" d="m25.52,21.47c.09,0,.15.05.2.1.1.1.15.25.39.25l.22-.02c.13,0,.54.45.88.82.05.05.08.15.12.2.15.17.25.31.28.37.07.01.11,0,.11,0,.02.11.04.29.07.49.04.31.11.65.16.86.1.4.8,1.02.82,1.36,0,0,0,0,0,0,0,.06.16.22.18.36.03.16.05.33.04.4,0,0,0,.01,0,.02,0,.01-.02.01-.03.01-.05,0-.1-.09-.21-.09-.09,0-.12.12-.17.22-.04.08-.07.14-.15.14-.16,0-.38-.15-.61-.4-.32-.33-.68-.85-1.02-1.46-.05-.09-.1-.18-.15-.28-.27-.52-.53-1.08-.72-1.63-.02-.05-.04-.1-.05-.15-.2-.59-.32-1.15-.33-1.6h0Z"/>
      <path class="cls-40" d="m25.52,21.47c.1,0,.15.05.2.1.1.1.15.25.39.25l.22-.02c.13,0,.54.45.88.82.04.05.07.16.12.2.15.16.25.3.27.37.06.01.11,0,.1,0,.02.11.04.29.07.5.04.31.11.65.17.86.11.41.81,1.03.83,1.36,0,0,0,0,0,0,0,.06.16.22.19.35.03.16.05.33.04.4,0,0,0,.01,0,.02,0,.01-.02.01-.03.01-.05,0-.1-.09-.21-.09-.09,0-.12.12-.17.22-.04.08-.07.14-.15.14-.17,0-.38-.15-.62-.4-.32-.33-.68-.85-1.02-1.46-.05-.09-.1-.18-.15-.28-.27-.52-.53-1.08-.72-1.62-.02-.05-.04-.1-.05-.15-.2-.59-.32-1.14-.33-1.59h0Z"/>
      <path class="cls-42" d="m25.52,21.47c.09,0,.15.05.2.1.09.1.15.25.38.25l.22-.02c.13,0,.54.45.87.82.04.05.07.16.11.2.15.16.24.3.25.37.06.01.1,0,.1.01.02.11.04.29.07.5.04.31.11.65.17.87.12.42.82,1.03.84,1.36,0,0,0,0,0,0,0,.06.17.22.19.35.03.16.05.33.04.4,0,0,0,.01,0,.02,0,.01-.03.01-.03.01-.05,0-.1-.09-.21-.09-.09,0-.12.12-.17.22-.04.08-.07.14-.15.14-.17,0-.38-.15-.62-.41-.32-.33-.68-.85-1.02-1.46-.05-.09-.1-.18-.15-.27-.27-.52-.53-1.08-.72-1.62-.02-.05-.04-.1-.05-.15-.2-.59-.32-1.14-.33-1.59h0Z"/>
      <path class="cls-42" d="m25.52,21.47c.09,0,.15.05.2.1.09.1.15.25.38.25l.22-.02c.13,0,.54.45.87.82.04.05.07.16.11.2.14.16.23.29.24.37.06.01.1,0,.1.01.02.11.04.29.06.5.04.31.11.65.17.87.13.43.83,1.04.85,1.36,0,0,0,0,0,0,0,.05.18.21.2.34.03.16.05.33.04.4,0,0,0,.01,0,.02,0,.01-.02,0-.03.01-.05,0-.1-.09-.21-.09-.09,0-.13.12-.17.22-.04.08-.07.14-.15.14-.17,0-.38-.15-.63-.41-.32-.34-.68-.85-1.01-1.45-.05-.09-.1-.18-.15-.27-.27-.52-.52-1.08-.72-1.62-.02-.05-.04-.1-.05-.15-.2-.58-.32-1.14-.33-1.59h0Z"/>
      <path class="cls-39" d="m25.52,21.48c.09,0,.15.05.2.1.09.1.15.25.38.25l.22-.02c.13,0,.54.45.87.82.04.05.07.16.1.2.14.15.22.28.23.36.06.01.1,0,.09.02.01.11.03.29.06.5.04.31.11.65.18.87.13.44.83,1.05.86,1.36,0,0,0,0,0,0,0,.05.19.21.21.33.03.16.05.33.04.4,0,0,0,.01,0,.02,0,.01-.03,0-.03.01-.05,0-.1-.09-.21-.09-.09,0-.13.12-.17.22-.04.08-.07.14-.15.14-.17,0-.39-.16-.63-.42-.32-.34-.68-.85-1.01-1.45-.05-.09-.1-.18-.15-.27-.27-.51-.52-1.07-.71-1.61-.02-.05-.04-.1-.05-.16-.2-.58-.32-1.14-.33-1.58h0Z"/>
      <path class="cls-39" d="m25.52,21.48c.09,0,.15.05.2.1.09.1.15.25.38.25l.22-.02c.13,0,.54.45.87.82.04.04.06.16.1.2.13.15.21.27.22.36.06.01.09,0,.09.02.01.12.03.29.06.5.04.3.11.65.18.87.14.44.84,1.06.87,1.36,0,0,0,0,0,0,0,.05.2.2.22.32.03.16.05.33.04.4,0,0,0,.01,0,.02,0,0-.03,0-.03,0-.05,0-.1-.09-.21-.09-.09,0-.13.12-.17.22-.04.08-.07.14-.15.14-.17,0-.39-.16-.63-.42-.32-.34-.67-.85-1.01-1.45-.05-.09-.1-.18-.15-.27-.27-.51-.52-1.07-.71-1.61-.02-.05-.04-.1-.05-.16-.2-.58-.32-1.13-.33-1.58h0Z"/>
      <path class="cls-39" d="m25.52,21.48c.09,0,.15.05.2.11.09.1.16.25.38.25l.22-.02c.13,0,.54.45.87.82.04.04.06.16.09.2.13.14.2.27.21.36.05.02.09,0,.09.02.01.12.03.29.05.51.03.3.11.65.18.87.15.45.85,1.06.88,1.36,0,0,0,0,0,0,0,.05.2.2.22.32.03.16.05.33.04.4,0,0,0,.01,0,.02,0,0-.03,0-.03,0-.05,0-.1-.09-.21-.09-.09,0-.13.12-.17.22-.04.08-.07.14-.15.14-.17,0-.39-.16-.64-.43-.31-.34-.67-.85-1.01-1.45-.05-.09-.1-.18-.15-.27-.27-.51-.52-1.07-.71-1.61-.02-.05-.04-.1-.05-.16-.2-.58-.32-1.13-.33-1.58h0Z"/>
      <path class="cls-44" d="m25.52,21.48c.09,0,.15.05.2.11.09.1.16.25.38.25l.22-.02c.13,0,.54.45.87.82.04.04.05.16.09.2.12.14.19.26.2.36.05.02.09,0,.08.03.01.12.03.29.05.51.03.3.11.65.19.87.16.46.86,1.07.89,1.36,0,0,0,0,0,0,0,.05.21.2.23.31.03.15.05.33.04.4,0,0,0,.01,0,.02,0,0-.03,0-.03,0-.05,0-.1-.09-.2-.09-.09,0-.13.12-.17.22-.04.08-.07.14-.14.14-.17,0-.39-.16-.64-.43-.31-.34-.67-.85-1-1.45-.05-.09-.1-.18-.15-.27-.27-.51-.52-1.07-.71-1.6-.02-.05-.04-.1-.05-.16-.19-.58-.32-1.13-.32-1.57h0Z"/>
      <path class="cls-44" d="m25.53,21.48c.09,0,.15.05.2.11.09.1.16.25.38.25l.22-.02c.13,0,.54.45.87.82.04.04.05.16.09.2.12.13.18.25.19.35.05.02.08,0,.08.03,0,.12.02.3.05.51.03.3.11.65.19.87.17.47.87,1.08.9,1.36,0,0,0,0,0,0,0,.05.22.19.24.3.03.15.05.33.04.4,0,0,0,.01,0,.02,0,0-.03,0-.03,0-.05,0-.1-.09-.2-.09-.09,0-.13.12-.17.22-.04.08-.07.14-.14.14-.17,0-.4-.16-.65-.44-.31-.34-.67-.86-1-1.45-.05-.09-.1-.18-.15-.27-.27-.51-.52-1.07-.71-1.6-.02-.05-.04-.1-.05-.15-.19-.58-.32-1.13-.32-1.57h0Z"/>
      <path class="cls-35" d="m25.53,21.48c.09,0,.15.05.2.11.09.1.16.24.38.24l.22-.02c.13,0,.54.46.87.82.04.04.05.16.08.2.12.13.17.24.17.35.05.02.08.01.08.03,0,.12.02.3.04.51.03.3.11.64.2.87.18.48.88,1.09.91,1.36,0,0,0,0,0,0,0,.05.23.19.25.29.03.15.05.33.04.4,0,0,0,.02,0,.02,0,0-.03,0-.03,0-.05,0-.1-.09-.2-.09-.09,0-.13.12-.17.22-.04.08-.07.14-.14.14-.17,0-.4-.17-.65-.44-.31-.34-.67-.85-1-1.45-.05-.09-.1-.18-.15-.27-.27-.51-.52-1.06-.71-1.6-.02-.05-.04-.1-.05-.16-.19-.57-.32-1.12-.32-1.57h0Z"/>
      <path class="cls-36" d="m25.53,21.49c.09,0,.15.05.2.11.09.1.16.24.38.24l.22-.02c.13,0,.54.46.87.82.03.04.04.16.08.2.11.12.17.24.16.35.05.02.08.01.07.04,0,.12.02.3.04.52.03.3.11.64.2.87.18.48.89,1.1.92,1.36h0s.24.19.25.29c.03.15.05.33.04.41,0,0,0,.02,0,.02,0,0-.03,0-.03,0-.05,0-.1-.09-.2-.09-.09,0-.13.12-.17.22-.04.08-.07.14-.14.14-.17,0-.4-.17-.66-.44-.31-.34-.67-.85-1-1.45-.05-.09-.1-.18-.15-.27-.27-.51-.51-1.06-.7-1.59-.02-.05-.04-.1-.05-.15-.19-.57-.32-1.12-.32-1.56h0Z"/>
      <path class="cls-36" d="m25.53,21.49c.09,0,.14.05.19.11.09.1.16.24.38.24l.22-.02c.13,0,.54.46.87.82.03.04.04.17.07.2.11.12.16.23.15.35.04.02.07.02.07.04,0,.12.02.3.04.52.03.3.11.64.2.88.19.49.9,1.1.93,1.36,0,0,0,0,0,0,0,.04.24.18.26.28.03.15.05.33.04.41,0,0,0,.02,0,.02,0,0-.03,0-.03,0-.05,0-.1-.09-.2-.09-.09,0-.13.12-.18.22-.04.08-.07.14-.14.14-.17,0-.4-.17-.66-.45-.31-.34-.66-.86-.99-1.44-.05-.09-.1-.18-.15-.27-.27-.51-.51-1.06-.7-1.59-.02-.05-.04-.1-.05-.16-.19-.57-.31-1.12-.32-1.56h0Z"/>
      <path class="cls-36" d="m25.53,21.49c.09,0,.14.05.19.11.09.1.16.24.38.24l.22-.02c.13,0,.54.46.87.82.03.04.04.17.07.2.11.12.15.22.14.34.04.02.07.02.06.04,0,.12.01.3.03.52.03.3.11.64.21.88.2.5.91,1.11.94,1.36,0,0,0,0,0,0,0,.04.25.18.27.27.03.15.05.33.04.41,0,0,0,.02,0,.02,0,0-.03,0-.03,0-.05,0-.1-.09-.2-.09-.09,0-.13.12-.18.21-.04.08-.07.14-.14.14-.18,0-.41-.17-.66-.45-.31-.34-.66-.86-.99-1.44-.05-.09-.1-.18-.15-.27-.27-.51-.51-1.06-.7-1.59-.02-.05-.04-.1-.05-.16-.19-.57-.31-1.11-.32-1.56h0Z"/>
      <path class="cls-21" d="m25.53,21.49c.09.01.14.05.19.11.09.1.16.24.38.24l.22-.02c.13,0,.54.46.87.82.03.03.03.17.06.2.1.11.14.22.13.34.04.02.07.02.06.05,0,.12.01.3.03.52.03.3.11.64.21.88.21.51.92,1.12.95,1.36,0,0,0,0,0,0,0,.04.26.17.28.26.03.15.06.33.04.41,0,0,0,.02,0,.02,0,0-.03,0-.03,0-.05,0-.1-.09-.2-.09-.09,0-.13.12-.18.21-.04.08-.07.14-.14.14-.18,0-.41-.17-.67-.46-.31-.34-.66-.86-.99-1.44-.05-.09-.1-.18-.15-.27-.27-.51-.51-1.05-.7-1.58-.02-.05-.04-.1-.05-.16-.19-.57-.31-1.11-.32-1.55h0Z"/>
      <path class="cls-21" d="m25.53,21.49c.09.01.14.06.19.11.09.1.16.24.38.24l.22-.02c.13,0,.54.46.87.82.03.03.03.17.06.2.1.11.13.21.12.34.04.02.06.02.06.05,0,.12,0,.3.03.52.02.3.11.64.21.88.22.51.93,1.12.96,1.36,0,0,0,0,0,0,0,.04.27.17.28.26.03.15.05.33.04.41,0,0,0,.02,0,.02,0,0-.03,0-.03,0-.05,0-.1-.09-.2-.09s-.13.12-.18.21c-.04.08-.07.14-.14.14-.18,0-.41-.18-.67-.46-.31-.34-.66-.86-.99-1.44-.05-.09-.1-.18-.15-.27-.27-.51-.51-1.05-.7-1.58-.02-.05-.04-.1-.05-.16-.19-.57-.31-1.11-.32-1.55h0Z"/>
      <path class="cls-25" d="m25.53,21.5c.09.01.14.06.19.11.09.1.16.24.38.24l.22-.02c.13,0,.54.46.87.82.03.03.03.17.05.2.09.1.12.2.11.34.04.02.06.03.05.05,0,.12,0,.3.03.53.02.3.11.64.22.88.23.52.94,1.13.97,1.36,0,0,0,0,0,0,0,.04.28.17.29.25.03.15.06.33.05.41,0,0,0,.02,0,.02,0,0-.03,0-.03,0-.04,0-.1-.08-.2-.08s-.13.12-.18.21c-.04.09-.07.14-.14.14-.18,0-.41-.18-.67-.47-.31-.34-.66-.86-.98-1.44-.05-.09-.1-.18-.14-.27-.26-.51-.51-1.05-.7-1.58-.02-.05-.04-.1-.05-.16-.19-.57-.31-1.11-.32-1.55h0Z"/>
      <path class="cls-25" d="m25.54,21.5c.09.01.14.06.19.12.08.1.16.24.38.24l.22-.02c.13,0,.54.46.86.82.03.03.02.17.05.2.09.1.11.2.1.33.03.02.05.03.05.06,0,.12,0,.3.02.53.02.3.11.64.22.88.24.53.95,1.14.98,1.36,0,0,0,0,0,0,0,.03.29.16.3.24.03.15.05.33.05.41,0,0,0,.02,0,.02,0,0-.03,0-.03,0-.04,0-.1-.08-.2-.08s-.14.12-.18.21c-.04.09-.07.14-.14.14-.18,0-.42-.18-.68-.47-.31-.34-.66-.86-.98-1.44-.05-.09-.1-.18-.14-.27-.26-.5-.51-1.05-.69-1.57-.02-.05-.04-.1-.05-.16-.19-.57-.31-1.1-.32-1.54h0Z"/>
      <path class="cls-27" d="m25.54,21.5c.09.01.14.06.19.12.08.1.16.23.38.23l.22-.02c.13,0,.54.46.86.82.03.03.02.17.04.2.08.09.1.19.08.33.03.02.05.03.04.06,0,.12,0,.31.02.53.02.3.12.63.23.88.24.54.96,1.15.99,1.36,0,0,0,0,0,0,0,.03.29.16.31.23.03.15.05.33.05.41,0,0,0,.02,0,.02,0,0-.03,0-.03,0-.04,0-.1-.08-.2-.08s-.14.12-.18.21c-.04.09-.07.14-.14.14-.18,0-.42-.18-.68-.48-.31-.35-.65-.86-.98-1.44-.05-.09-.1-.18-.14-.27-.26-.5-.5-1.05-.69-1.57-.02-.05-.04-.1-.05-.15-.19-.56-.31-1.1-.32-1.54h0Z"/>
      <path class="cls-15" d="m25.54,21.5c.09.01.14.06.19.12.08.1.16.23.38.23l.22-.02c.13,0,.54.46.86.82.02.03.02.17.04.2.08.09.09.18.07.33.03.02.05.03.04.06,0,.12,0,.31.02.53.02.3.12.63.23.88.25.55.96,1.16,1,1.36,0,0,0,0,0,0,0,.03.3.16.31.23.03.15.06.33.05.41,0,0,0,.02,0,.02,0,0-.03,0-.03,0-.04-.01-.1-.08-.19-.08s-.14.12-.18.21c-.04.09-.07.14-.14.14-.18,0-.42-.18-.69-.48-.31-.35-.65-.86-.97-1.44-.05-.09-.1-.18-.14-.27-.26-.5-.5-1.04-.69-1.57-.02-.05-.04-.1-.05-.16-.19-.56-.31-1.1-.32-1.54h0Z"/>
      <path class="cls-14" d="m25.54,21.5c.09.01.14.06.19.12.08.1.16.23.38.23l.22-.02c.12,0,.54.46.86.82.02.03.01.17.04.2.08.08.08.17.06.33.03.02.04.04.04.07,0,.13,0,.31.01.54.02.3.12.63.23.88.26.55.97,1.16,1.02,1.36,0,0,0,0,0,0,0,.03.31.15.32.22.03.15.06.33.05.41,0,0,0,.02,0,.02,0,0-.03,0-.03,0-.04-.01-.1-.08-.19-.08s-.14.12-.18.21c-.04.09-.07.14-.14.14-.18,0-.42-.19-.69-.49-.31-.35-.65-.86-.97-1.44-.05-.09-.1-.18-.14-.27-.26-.5-.5-1.04-.69-1.57-.02-.05-.04-.1-.05-.16-.19-.56-.31-1.09-.32-1.53h0Z"/>
      <path class="cls-14" d="m25.54,21.5c.09.01.14.06.19.12.08.1.16.23.37.23l.22-.02c.12,0,.54.46.86.82.02.03.01.17.03.2.07.08.07.17.05.32.03.02.04.04.04.07,0,.13,0,.31.01.54.02.3.12.63.24.88.27.56.98,1.17,1.03,1.36,0,0,0,0,0,0,0,.03.32.15.33.21.03.15.05.33.05.41,0,0,0,.02,0,.02,0,0-.03,0-.03,0-.04-.01-.1-.08-.19-.08s-.14.12-.18.21c-.04.09-.07.14-.14.14-.18,0-.43-.19-.69-.49-.31-.35-.65-.86-.97-1.43-.05-.09-.1-.18-.14-.27-.26-.5-.5-1.04-.69-1.56-.02-.05-.04-.1-.05-.16-.19-.56-.31-1.09-.32-1.53h0Z"/>
      <path class="cls-28" d="m25.54,21.51c.09.01.14.06.19.12.08.1.16.23.37.23l.22-.02c.12,0,.54.46.86.82.02.02,0,.18.03.2.07.08.07.16.04.32.02.03.04.04.03.07,0,.13,0,.31,0,.54.02.3.12.63.24.88.28.57.99,1.18,1.04,1.36,0,0,0,0,0,0,0,.03.32.14.33.21.03.15.06.33.05.41,0,0,0,.02,0,.02,0,0-.03,0-.03,0-.04-.01-.1-.08-.19-.08s-.14.12-.18.21c-.04.09-.07.15-.14.15-.18,0-.43-.19-.7-.5-.31-.35-.65-.86-.97-1.43-.05-.09-.1-.18-.14-.27-.26-.5-.5-1.04-.68-1.56-.02-.05-.04-.1-.05-.16-.19-.56-.31-1.09-.32-1.52h0Z"/>
      <path class="cls-28" d="m25.54,21.51c.09.01.14.06.19.12.08.1.16.23.37.23l.22-.02c.12,0,.54.47.86.82.02.02,0,.18.02.2.06.07.06.15.03.32.02.03.03.04.03.08,0,.13,0,.31,0,.54.02.3.12.63.24.89.29.58,1,1.19,1.05,1.36,0,0,0,0,0,0,0,.03.33.14.34.2.03.14.06.33.05.41,0,0,0,.02,0,.02,0,0-.03,0-.03,0-.04-.01-.1-.08-.19-.08s-.14.12-.18.21c-.04.09-.07.15-.14.15-.18,0-.43-.19-.7-.5-.31-.35-.65-.86-.96-1.43-.05-.09-.09-.18-.14-.27-.26-.5-.5-1.04-.68-1.56-.02-.05-.04-.1-.05-.16-.19-.56-.31-1.09-.32-1.52h0Z"/>
      <path class="cls-20" d="m25.54,21.51c.09.01.14.06.19.12.08.1.16.23.37.23l.22-.02c.12,0,.54.47.86.82.02.02,0,.18.02.2.06.07.05.15.02.32.02.03.03.05.02.08,0,.13-.01.31,0,.55.02.3.12.63.25.89.29.59,1.01,1.19,1.06,1.36h0s.34.14.35.19c.03.14.06.33.05.41,0,0,0,.02,0,.02,0,0-.03,0-.03,0-.04-.01-.1-.08-.19-.08s-.14.12-.18.21c-.04.09-.07.15-.14.15-.18,0-.43-.19-.71-.51-.31-.35-.65-.86-.96-1.43-.05-.09-.1-.17-.14-.26-.26-.5-.5-1.03-.68-1.55-.02-.05-.04-.1-.05-.16-.19-.56-.3-1.08-.32-1.52h0Z"/>
      <path class="cls-24" d="m25.55,21.51c.09.01.13.06.18.12.08.1.16.23.37.23l.22-.02c.12,0,.54.47.86.81.02.02,0,.18.01.2.06.06.04.14,0,.31.02.03.03.05.02.08,0,.13-.01.31,0,.55.01.3.12.62.25.89.3.59,1.02,1.2,1.07,1.36,0,0,0,0,0,0,0,.02.35.13.36.18.03.14.06.33.05.41,0,.01,0,.02,0,.03,0,0-.03-.01-.03,0-.04-.02-.1-.08-.19-.08-.1,0-.14.12-.18.21-.04.09-.07.15-.14.15-.19,0-.43-.19-.71-.51-.3-.35-.64-.86-.96-1.43-.05-.09-.09-.17-.14-.26-.26-.5-.5-1.03-.68-1.55-.02-.05-.04-.1-.05-.16-.19-.55-.3-1.08-.32-1.51h0Z"/>
      <path class="cls-23" d="m25.55,21.51c.09.01.13.06.18.12.08.1.16.22.37.22l.22-.02c.12,0,.54.47.86.81.02.02,0,.18,0,.2.05.06.03.13,0,.31.02.03.02.05.02.09,0,.13-.01.31,0,.55.01.3.12.62.26.89.31.6,1.03,1.21,1.08,1.36,0,0,0,0,0,0,0,.02.36.13.36.18.03.14.06.33.05.41,0,.01,0,.02,0,.03,0,0-.03-.01-.03-.01-.04-.02-.1-.08-.19-.08-.1,0-.14.12-.18.21-.04.09-.07.15-.14.15-.19,0-.44-.2-.71-.52-.3-.35-.64-.86-.96-1.43-.05-.09-.09-.17-.14-.26-.26-.5-.5-1.03-.68-1.55-.02-.05-.04-.1-.05-.16-.19-.55-.3-1.08-.32-1.51h0Z"/>
      <path class="cls-12" d="m25.55,21.52c.09.02.13.06.18.13.08.1.16.22.37.22l.22-.02c.12,0,.55.47.86.81.01.02,0,.18,0,.2.05.05.02.12-.02.31.01.03.02.05.01.09-.01.13-.02.32,0,.55.01.3.12.62.26.89.32.61,1.04,1.22,1.09,1.36,0,0,0,0,0,0,0,.02.36.13.37.17.03.14.06.33.05.41,0,.01,0,.02,0,.03,0,0-.03-.01-.03-.01-.04-.02-.1-.08-.19-.08-.1,0-.14.12-.18.21-.04.09-.07.15-.14.15-.19,0-.44-.2-.72-.52-.3-.35-.64-.86-.96-1.43-.05-.09-.09-.17-.14-.26-.26-.5-.49-1.03-.67-1.54-.02-.05-.04-.1-.05-.16-.18-.55-.3-1.08-.31-1.51h0Z"/>
      <path class="cls-12" d="m25.55,21.52c.09.02.13.07.18.13.08.1.16.22.37.22l.22-.02c.12,0,.55.47.86.81.01.01-.01.18,0,.19.04.05.01.12-.03.31.01.03.02.06,0,.09-.01.13-.02.32-.01.55.01.3.12.62.26.89.33.62,1.05,1.22,1.1,1.36,0,0,0,0,0,0,0,.02.37.12.38.16.03.14.06.33.05.42,0,.01,0,.02,0,.03,0,0-.03-.01-.03-.01-.04-.02-.1-.08-.19-.08-.1,0-.14.11-.18.21-.04.09-.07.15-.14.15-.19,0-.44-.2-.72-.53-.3-.35-.64-.86-.95-1.43-.05-.09-.09-.17-.14-.26-.26-.5-.49-1.03-.67-1.54-.02-.05-.04-.1-.05-.16-.18-.55-.3-1.07-.31-1.5h0Z"/>
      <path class="cls-10" d="m25.55,21.52c.08.02.13.07.18.13.08.1.16.22.37.22l.22-.02c.12,0,.55.47.85.81.01.01-.02.18,0,.19.04.04,0,.11-.04.3,0,.03.01.06,0,.1-.01.13-.02.32-.01.56,0,.3.12.62.27.89.34.62,1.06,1.23,1.11,1.36,0,0,0,0,0,0,0,.02.38.12.39.15.03.14.06.33.05.42,0,.01,0,.02,0,.03,0,0-.03-.01-.03-.01-.04-.02-.1-.08-.19-.08-.1,0-.14.11-.18.21-.04.09-.07.15-.13.15-.19,0-.45-.2-.73-.53-.3-.35-.64-.86-.95-1.42-.05-.09-.09-.17-.14-.26-.26-.49-.49-1.02-.67-1.54-.02-.05-.04-.1-.05-.16-.18-.55-.3-1.07-.31-1.5h0Z"/>
      <path class="cls-17" d="m25.55,21.52c.08.02.13.07.18.13.08.1.16.22.37.22l.22-.02c.12,0,.55.47.85.81.01.01-.02.18-.01.19.04.04,0,.1-.05.3,0,.03,0,.06,0,.1-.02.13-.02.32-.02.56,0,.3.12.62.27.89.35.63,1.07,1.24,1.12,1.36,0,0,0,0,0,0,0,.01.39.11.39.15.03.14.06.33.06.42,0,.01,0,.02,0,.03,0,0-.03-.02-.03-.01-.04-.02-.1-.08-.18-.08-.1,0-.14.11-.18.21-.04.09-.07.15-.13.15-.19,0-.45-.2-.73-.54-.3-.35-.64-.86-.95-1.42-.05-.09-.09-.17-.14-.26-.25-.49-.49-1.02-.67-1.53-.02-.05-.04-.1-.05-.16-.18-.55-.3-1.07-.31-1.5h0Z"/>
      <path class="cls-16" d="m25.55,21.52c.08.02.13.07.18.13.08.1.16.22.37.22l.22-.02c.12,0,.55.47.85.81,0,.01-.02.18-.01.19.03.04-.02.09-.06.3,0,.03,0,.06,0,.1-.02.13-.03.32-.02.56,0,.3.12.62.28.89.35.64,1.07,1.25,1.13,1.36,0,0,0,0,0,0,0,.01.4.11.4.14.03.14.06.34.06.42,0,.01,0,.02,0,.03,0,0-.03-.02-.03-.01-.04-.02-.1-.08-.18-.08-.1,0-.14.11-.18.21-.04.09-.07.15-.13.15-.19,0-.45-.21-.74-.54-.3-.35-.63-.86-.94-1.42-.05-.09-.09-.17-.14-.26-.25-.49-.49-1.02-.67-1.53-.02-.05-.04-.1-.05-.16-.18-.55-.3-1.07-.31-1.49h0Z"/>
      <path class="cls-16" d="m25.56,21.53c.08.02.13.07.18.13.08.1.16.22.37.22l.22-.02c.12,0,.55.47.85.81,0,0-.03.19-.02.19.03.03-.03.09-.08.3,0,.03,0,.07,0,.11-.02.13-.03.32-.02.56,0,.3.12.62.28.89.36.65,1.08,1.25,1.14,1.36,0,0,0,0,0,0,0,.01.4.11.41.13.03.14.06.33.06.42,0,.01,0,.02,0,.03,0,0-.03-.02-.03-.02-.04-.02-.09-.08-.18-.08-.1,0-.15.11-.18.21-.04.09-.07.15-.13.15-.19,0-.45-.21-.74-.55-.3-.35-.63-.86-.94-1.42-.05-.09-.09-.17-.14-.26-.25-.49-.49-1.02-.67-1.53-.02-.05-.04-.1-.05-.16-.18-.54-.3-1.06-.31-1.49h0Z"/>
      <path class="cls-16" d="m25.56,21.53c.08.02.13.07.18.13.07.09.16.22.37.22l.22-.02c.12,0,.55.47.85.81,0,0-.03.19-.02.19.02.03-.04.08-.09.29,0,.03,0,.07,0,.11-.02.14-.03.32-.03.57,0,.3.12.61.28.9.37.65,1.09,1.26,1.15,1.36,0,0,0,0,0,0,0,0,.41.1.42.13.03.14.06.33.06.42,0,.01,0,.02,0,.03,0,0-.03-.02-.03-.02-.04-.02-.09-.08-.18-.08-.1,0-.15.11-.19.21-.04.09-.07.15-.13.15-.19,0-.45-.21-.74-.55-.3-.35-.63-.86-.94-1.42-.05-.09-.09-.17-.14-.26-.25-.49-.48-1.02-.66-1.52-.02-.05-.04-.1-.05-.16-.18-.54-.3-1.06-.31-1.49h0Z"/>
      <path class="cls-29" d="m25.56,21.53c.08.02.13.07.18.13.07.09.16.21.37.21l.22-.02c.12,0,.55.47.85.81,0,0-.04.19-.03.19.02.02-.04.07-.1.29,0,.04,0,.07-.01.12-.02.14-.03.32-.03.57,0,.3.12.61.29.9.38.66,1.1,1.27,1.16,1.36,0,0,0,0,0,0,0,0,.42.1.42.12.03.14.06.33.06.42,0,.01,0,.02,0,.03,0,0-.03-.02-.03-.02-.04-.03-.09-.08-.18-.08-.1,0-.15.11-.19.2-.04.1-.07.15-.13.15-.19,0-.46-.21-.75-.56-.3-.36-.63-.86-.94-1.42-.05-.08-.09-.17-.14-.26-.25-.49-.48-1.01-.66-1.52-.02-.05-.04-.1-.05-.16-.18-.54-.3-1.06-.31-1.48h0Z"/>
      <path class="cls-29" d="m25.56,21.53c.08.02.13.07.18.13.07.09.16.21.37.21l.22-.02c.12,0,.55.48.85.81,0,0-.04.19-.03.19.02.02-.05.07-.11.29,0,.04,0,.07-.02.12-.02.14-.04.32-.03.57,0,.3.12.61.29.9.39.67,1.11,1.28,1.17,1.36,0,0,0,0,0,0,0,0,.43.1.43.11.03.14.06.33.06.42,0,.01,0,.02,0,.03,0,0-.03-.02-.03-.02-.04-.03-.1-.08-.18-.08-.1,0-.15.11-.19.2-.04.1-.07.15-.13.15-.19,0-.46-.21-.75-.56-.3-.36-.63-.86-.93-1.42-.04-.08-.09-.17-.14-.26-.25-.49-.48-1.01-.66-1.52-.02-.05-.04-.1-.05-.16-.18-.54-.3-1.05-.31-1.48h0Z"/>
      <path class="cls-19" d="m25.56,21.53c.08.02.13.07.18.14.07.09.16.21.37.21l.22-.02c.12,0,.55.48.85.81,0,0-.04.19-.04.19.01.01-.06.06-.12.29,0,.04,0,.08-.02.12-.02.14-.04.33-.04.57,0,.29.12.61.29.9.4.68,1.12,1.29,1.18,1.36,0,0,0,0,0,0,0,0,.44.09.44.1.02.14.06.34.06.42,0,.01,0,.02,0,.03,0,0-.03-.02-.03-.02-.04-.03-.09-.08-.18-.08-.1,0-.15.11-.19.2-.04.1-.07.15-.13.15-.19,0-.46-.21-.75-.56-.3-.36-.63-.86-.93-1.42-.05-.09-.09-.17-.14-.26-.25-.49-.48-1.01-.66-1.51-.02-.05-.04-.1-.05-.16-.18-.54-.29-1.05-.31-1.48h0Z"/>
      <path class="cls-13" d="m25.56,21.54c.08.02.13.07.18.14.07.09.16.21.37.21l.22-.02c.12,0,.55.48.85.81,0,0-.04.19-.04.19,0,0-.07.05-.13.28,0,.04-.01.08-.02.13-.02.14-.04.33-.04.57,0,.29.12.61.3.9.41.68,1.13,1.29,1.19,1.36,0,0,0,0,0,0,0,0,.44.09.45.1.03.14.06.34.06.42,0,.01,0,.02,0,.03,0,0-.03-.02-.03-.02-.04-.03-.09-.08-.18-.08-.1,0-.15.11-.19.2-.04.1-.07.15-.13.15-.2,0-.46-.22-.76-.57-.3-.36-.62-.86-.93-1.41-.04-.08-.09-.17-.14-.26-.25-.49-.48-1.01-.66-1.51-.02-.05-.04-.1-.05-.16-.18-.54-.29-1.05-.31-1.47h0Z"/>
      <path class="cls-13" d="m25.56,21.54c.08.02.13.07.18.14.07.09.16.21.37.21l.22-.02c.12,0,.55.48.85.81,0,0-.05.19-.05.19,0,0-.08.05-.15.28,0,.04-.02.08-.03.13-.02.14-.04.33-.04.58,0,.29.13.61.3.9.42.69,1.14,1.3,1.2,1.36,0,0,0,0,0,0,0,0,.45.08.45.09.03.13.06.34.06.42,0,.01,0,.02,0,.03l-.03-.02s-.09-.08-.18-.08c-.1,0-.15.11-.19.2-.04.1-.07.15-.13.15-.2,0-.47-.22-.76-.57-.3-.36-.62-.86-.93-1.41-.05-.08-.09-.17-.14-.26-.25-.49-.48-1-.66-1.51-.02-.05-.04-.1-.05-.16-.18-.54-.29-1.05-.31-1.47h0Z"/>
      <path class="cls-18" d="m28.94,26.62c0-.09-.04-.29-.06-.42l-.46-.08s-1.53-1.25-1.53-2.27c0-.89.23-.99.23-.99l.05-.19c-.3-.33-.73-.81-.85-.81l-.22.02c-.21,0-.3-.12-.37-.21-.05-.07-.09-.12-.17-.14.02.46.15,1.03.36,1.62.21.59.49,1.2.79,1.76.3.56.62,1.05.92,1.41.3.36.57.58.77.58.06,0,.09-.06.13-.15.04-.09.08-.2.19-.2.08,0,.14.05.18.08l.03.02s0-.02,0-.03h0Z"/>
      <path class="cls-33" d="m34.64,21.44c-.32,0-.25.36-.6.36l-.22-.02c-.25,0-1.35,1.45-1.51,1.45-.1,0-.16-.04-.16-.04-.1.27-.22,1.02-.22,1.31s-.67.91-.67,1.36c0,.16-.17.77-.1.87.07.1.11-.07.25-.07s.13.36.32.36c.42,0,1.15-.93,1.77-2.09.31-.58.59-1.22.8-1.82.21-.61.33-1.19.33-1.65h0Z"/>
      <path class="cls-33" d="m34.64,21.44c-.1,0-.16.04-.21.09-.11.11-.15.27-.39.27l-.22-.02c-.14,0-.54.44-.89.83-.06.07-.12.14-.18.21-.21.23-.37.4-.43.41-.09,0-.15-.04-.15-.04-.03.1-.07.27-.11.47-.06.31-.11.67-.11.85,0,.3-.68.92-.68,1.36h0c0,.08-.05.28-.08.46-.03.17-.05.33-.03.39,0,0,0,0,0,.01.01.02.02.02.03.03.05.02.1-.1.22-.1.09,0,.12.13.16.23.03.07.08.13.15.13.15,0,.35-.12.56-.33.33-.32.7-.85,1.05-1.47.05-.09.11-.19.16-.28.29-.53.55-1.11.75-1.67.02-.05.04-.1.05-.15.21-.61.33-1.18.33-1.64h0Z"/>
      <path class="cls-43" d="m34.64,21.44c-.1,0-.16.04-.21.09-.1.1-.15.27-.39.27l-.22-.02c-.14,0-.54.44-.89.83-.06.07-.12.14-.18.21-.2.22-.36.39-.41.4-.09,0-.15-.04-.15-.04-.03.1-.07.27-.11.47-.06.31-.11.67-.12.85-.01.3-.69.93-.69,1.36h0c0,.08-.06.27-.09.45-.03.17-.05.33-.03.39,0,0,0,0,0,.01.01.02.02.02.03.03.05.02.1-.09.22-.09.09,0,.12.12.17.23.03.07.08.13.15.13.16,0,.35-.12.57-.34.33-.32.7-.85,1.05-1.47.05-.09.1-.19.16-.28.28-.53.54-1.11.74-1.66.02-.05.04-.1.05-.15.2-.61.33-1.18.33-1.64h0Z"/>
      <path class="cls-37" d="m34.64,21.45c-.1,0-.16.04-.21.09-.1.1-.15.27-.39.27l-.22-.02c-.14,0-.54.44-.89.83-.06.07-.12.14-.17.2-.2.22-.35.39-.4.4-.09,0-.15-.04-.15-.03-.03.1-.07.28-.11.47-.06.31-.11.67-.12.85-.02.31-.7.93-.7,1.36h0c0,.08-.07.27-.1.44-.03.17-.05.33-.03.39,0,0,0,0,0,.01,0,.01.02.02.03.03.05.02.1-.09.22-.09.09,0,.12.12.17.23.03.07.08.13.15.13.16,0,.35-.13.57-.34.33-.32.7-.85,1.05-1.47.05-.09.1-.19.16-.28.28-.53.54-1.1.74-1.66.02-.05.04-.1.05-.15.2-.6.33-1.18.33-1.64h0Z"/>
      <path class="cls-8" d="m34.64,21.45c-.1,0-.16.04-.21.09-.1.1-.15.27-.39.27l-.22-.02c-.14,0-.54.44-.88.83-.06.07-.11.14-.17.2-.19.21-.34.38-.39.4-.09,0-.15-.03-.14-.03-.03.1-.07.28-.1.47-.05.31-.11.67-.12.85-.03.32-.71.94-.71,1.36,0,0,0,0,0,0,0,.08-.08.26-.11.43-.03.17-.05.33-.03.39,0,0,0,0,0,.01.01.02.02.02.03.03.05.02.1-.09.22-.09.09,0,.12.12.17.23.04.07.08.13.15.13.16,0,.36-.13.58-.35.33-.33.7-.85,1.05-1.47.05-.09.1-.19.16-.28.28-.53.54-1.1.74-1.66.02-.05.04-.1.05-.15.2-.6.33-1.17.33-1.63h0Z"/>
      <path class="cls-8" d="m34.64,21.45c-.1,0-.16.04-.21.09-.1.1-.15.27-.39.27l-.22-.02c-.14,0-.54.44-.88.83-.06.06-.11.15-.16.2-.19.21-.33.37-.38.4-.09,0-.14-.03-.14-.03-.03.1-.06.28-.1.47-.05.31-.11.66-.13.85-.04.33-.71.95-.72,1.36h0c0,.08-.08.26-.11.43-.03.17-.05.33-.03.39,0,0,0,0,0,.01,0,.01.02.02.03.02.05.02.1-.09.22-.09.09,0,.12.12.17.23.03.07.08.13.15.13.16,0,.36-.13.58-.35.32-.33.7-.85,1.04-1.47.05-.09.1-.19.16-.28.28-.53.54-1.1.74-1.66.02-.05.04-.1.05-.15.2-.6.33-1.17.33-1.63h0Z"/>
      <path class="cls-7" d="m34.63,21.45c-.1,0-.16.04-.21.09-.1.1-.15.26-.39.26l-.22-.02c-.14,0-.54.44-.88.83-.06.06-.11.15-.16.2-.19.2-.33.37-.37.39-.08,0-.14-.03-.14-.02-.03.11-.06.28-.1.48-.05.31-.11.66-.13.86-.04.34-.72.96-.73,1.36,0,0,0,0,0,0,0,.07-.09.25-.12.42-.03.17-.05.33-.03.39,0,0,0,0,0,.01,0,.01.02.02.03.02.05.02.1-.09.22-.09.09,0,.12.12.17.22.03.07.08.13.15.13.16,0,.36-.13.58-.36.32-.33.69-.85,1.04-1.47.05-.09.1-.19.15-.28.28-.53.54-1.1.74-1.65.02-.05.04-.1.05-.15.2-.6.33-1.17.33-1.63h0Z"/>
      <path class="cls-46" d="m34.63,21.45c-.1,0-.16.04-.21.09-.1.1-.15.26-.39.26l-.22-.02c-.14,0-.54.44-.88.83-.06.06-.1.15-.15.2-.18.2-.32.36-.36.39-.08,0-.13-.03-.13-.02-.03.11-.06.28-.09.48-.05.31-.11.66-.14.86-.05.35-.73.96-.74,1.36h0c0,.07-.1.25-.13.41-.03.16-.05.33-.03.4,0,0,0,.01,0,.01,0,.01.02.02.03.02.05.02.1-.09.22-.09.09,0,.12.12.17.22.03.07.08.13.15.13.16,0,.36-.13.59-.36.32-.33.69-.85,1.04-1.47.05-.09.1-.19.15-.28.28-.52.54-1.1.73-1.65.02-.05.04-.1.05-.15.2-.6.33-1.17.33-1.62h0Z"/>
      <path class="cls-47" d="m34.63,21.46c-.1,0-.16.04-.21.09-.1.1-.15.26-.39.26l-.22-.02c-.14,0-.54.44-.88.83-.05.06-.1.15-.15.2-.18.2-.31.35-.35.39-.08,0-.13-.02-.13-.02-.03.11-.06.28-.09.48-.05.31-.11.66-.14.86-.06.35-.74.97-.75,1.36,0,0,0,0,0,0,0,.07-.11.25-.13.4-.03.16-.05.33-.03.4,0,0,0,0,0,.01,0,.01.02.02.03.02.05.02.1-.09.22-.09.09,0,.12.12.17.22.03.07.08.13.15.13.16,0,.36-.14.59-.37.32-.33.69-.85,1.04-1.46.05-.09.1-.19.15-.28.28-.52.54-1.09.73-1.65.02-.05.04-.1.05-.15.2-.6.33-1.16.33-1.62h0Z"/>
      <path class="cls-32" d="m34.63,21.46c-.1,0-.16.04-.21.09-.1.1-.15.26-.39.26l-.22-.02c-.14,0-.54.44-.88.83-.05.06-.09.15-.14.2-.17.19-.3.35-.33.39-.08,0-.13-.02-.13-.01-.02.11-.05.28-.09.48-.05.31-.11.66-.14.86-.06.36-.75.98-.76,1.36h0c0,.07-.12.25-.14.4-.03.16-.05.33-.03.4,0,0,0,.01,0,.01,0,.01.02.02.03.02.05.01.1-.09.21-.09.09,0,.12.12.17.22.03.07.08.13.15.13.16,0,.37-.14.59-.37.32-.33.69-.85,1.03-1.46.05-.09.1-.19.15-.28.28-.52.53-1.09.73-1.64.02-.05.04-.1.05-.15.2-.6.33-1.16.33-1.62h0Z"/>
      <path class="cls-32" d="m34.63,21.46c-.1,0-.15.04-.2.09-.1.1-.15.26-.39.26l-.22-.02c-.14,0-.54.45-.88.83-.05.06-.09.15-.14.2-.17.19-.29.34-.32.38-.08,0-.12-.02-.12,0-.02.11-.05.28-.08.48-.05.31-.11.66-.15.86-.07.37-.76.99-.77,1.36,0,0,0,0,0,0,0,.07-.12.24-.15.39-.03.16-.05.33-.03.4,0,0,0,.01,0,.02,0,.01.02.02.03.02.05.01.1-.09.21-.09.09,0,.12.12.17.22.04.08.08.13.15.13.16,0,.37-.14.6-.38.32-.33.69-.85,1.03-1.46.05-.09.1-.18.15-.28.28-.52.53-1.09.73-1.64.02-.05.04-.1.05-.15.2-.59.33-1.16.33-1.61h0Z"/>
      <path class="cls-31" d="m34.63,21.46c-.1,0-.16.04-.21.1-.1.1-.15.26-.39.26l-.22-.02c-.14,0-.54.45-.88.83-.05.06-.09.15-.13.2-.17.18-.28.33-.31.38-.07,0-.12-.02-.12,0-.02.11-.05.28-.08.49-.04.31-.11.66-.15.86-.08.38-.77,1-.78,1.36,0,0,0,0,0,0,0,.06-.13.23-.16.38-.03.16-.05.33-.03.4,0,0,0,.01,0,.02,0,.01.02.01.03.02.05.01.1-.09.21-.09.09,0,.12.12.17.22.04.08.08.13.15.13.16,0,.37-.14.6-.38.32-.33.69-.85,1.03-1.46.05-.09.1-.18.15-.28.28-.52.53-1.09.73-1.64.02-.05.04-.1.05-.15.2-.59.33-1.16.33-1.61h0Z"/>
      <path class="cls-31" d="m34.63,21.46c-.1,0-.15.04-.2.1-.1.1-.15.26-.39.26l-.22-.02c-.13,0-.54.45-.88.83-.05.05-.08.15-.13.2-.16.18-.27.32-.3.38-.07,0-.12-.01-.12,0-.02.11-.05.29-.08.49-.04.31-.11.66-.16.86-.09.39-.78,1-.79,1.36,0,0,0,0,0,0,0,.06-.14.23-.16.37-.03.16-.05.33-.03.4,0,0,0,.01,0,.02,0,.01.02.01.03.02.05.01.1-.09.21-.09.09,0,.12.12.17.22.04.08.08.13.15.13.16,0,.37-.14.61-.39.32-.33.69-.85,1.03-1.46.05-.09.1-.18.15-.28.28-.52.53-1.09.72-1.63.02-.05.04-.1.05-.15.2-.59.33-1.15.33-1.61h0Z"/>
      <path class="cls-41" d="m34.62,21.47c-.1,0-.15.04-.2.1-.1.1-.15.26-.39.26l-.22-.02c-.13,0-.54.45-.88.83-.05.05-.08.15-.13.2-.16.17-.26.32-.29.38-.07.01-.11-.01-.11,0-.02.11-.04.29-.07.49-.04.31-.11.65-.16.86-.09.39-.79,1.01-.8,1.36h0c0,.06-.15.23-.17.37-.03.16-.05.33-.04.4,0,0,0,.01,0,.02,0,.01.02.01.03.02.05,0,.1-.09.21-.09.09,0,.12.12.17.22.04.08.07.13.15.13.16,0,.38-.15.61-.39.32-.33.68-.86,1.02-1.46.05-.09.1-.18.15-.28.28-.52.53-1.08.72-1.63.02-.05.04-.1.05-.15.2-.59.32-1.15.33-1.6h0Z"/>
      <path class="cls-40" d="m34.62,21.47c-.1,0-.15.05-.2.1-.1.1-.16.25-.39.25l-.22-.02c-.13,0-.54.45-.88.82-.05.05-.08.15-.12.2-.15.17-.25.31-.28.37-.07.01-.11,0-.11,0-.02.11-.04.29-.07.49-.04.31-.11.65-.16.86-.1.4-.8,1.02-.82,1.36,0,0,0,0,0,0,0,.06-.16.22-.18.36-.03.16-.05.33-.04.4,0,0,0,.01,0,.02,0,.01.02.01.03.01.05,0,.1-.09.21-.09.09,0,.12.12.17.22.04.08.07.14.15.14.16,0,.38-.15.62-.4.32-.33.68-.85,1.02-1.46.05-.09.1-.18.15-.28.27-.52.53-1.08.72-1.63.02-.05.04-.1.05-.15.2-.59.32-1.15.33-1.6h0Z"/>
      <path class="cls-40" d="m34.62,21.47c-.1,0-.15.05-.2.1-.1.1-.16.25-.39.25l-.22-.02c-.13,0-.54.45-.88.82-.04.05-.07.16-.12.2-.15.16-.25.3-.27.37-.07.01-.11,0-.11,0-.02.11-.04.29-.07.5-.04.31-.11.65-.17.86-.11.41-.81,1.03-.83,1.36,0,0,0,0,0,0,0,.06-.16.22-.19.35-.03.16-.05.33-.04.4,0,0,0,.01,0,.02,0,.01.03.01.03.01.05,0,.1-.09.21-.09.09,0,.12.12.17.22.04.08.07.14.15.14.17,0,.38-.15.62-.4.32-.33.68-.85,1.02-1.46.05-.09.1-.18.15-.28.27-.52.53-1.08.72-1.62.02-.05.04-.1.05-.15.2-.59.32-1.14.33-1.59h0Z"/>
      <path class="cls-42" d="m34.62,21.47c-.09,0-.15.05-.2.1-.09.1-.15.25-.38.25l-.22-.02c-.13,0-.54.45-.87.82-.04.05-.07.16-.11.2-.15.16-.24.3-.25.37-.06.01-.1,0-.1.01-.02.11-.04.29-.07.5-.04.31-.11.65-.17.87-.12.42-.82,1.03-.84,1.36,0,0,0,0,0,0,0,.06-.17.22-.19.35-.03.16-.05.33-.04.4,0,0,0,.01,0,.02,0,.01.02.01.03.01.05,0,.1-.09.21-.09.09,0,.13.12.17.22.04.08.08.14.15.14.17,0,.38-.15.62-.41.32-.33.68-.85,1.02-1.46.05-.09.1-.18.15-.27.27-.52.53-1.08.72-1.62.02-.05.04-.1.05-.15.2-.59.32-1.14.33-1.59h0Z"/>
      <path class="cls-42" d="m34.62,21.47c-.09,0-.15.05-.2.1-.09.1-.15.25-.38.25l-.22-.02c-.13,0-.54.45-.87.82-.04.05-.07.16-.11.2-.14.16-.23.29-.24.37-.06.01-.1,0-.1.01-.02.11-.04.29-.06.5-.04.31-.11.65-.17.87-.13.43-.83,1.04-.85,1.36,0,0,0,0,0,0,0,.05-.18.21-.2.34-.03.16-.05.33-.04.4,0,0,0,.01,0,.02,0,.01.03,0,.03.01.05,0,.1-.09.21-.09.09,0,.13.12.17.22.04.08.08.14.15.14.17,0,.38-.15.63-.41.32-.34.68-.85,1.01-1.45.05-.09.1-.18.15-.27.27-.52.52-1.08.72-1.62.02-.05.04-.1.05-.15.2-.58.32-1.14.33-1.59h0Z"/>
      <path class="cls-39" d="m34.62,21.48c-.09,0-.15.05-.2.1-.09.1-.15.25-.38.25l-.22-.02c-.13,0-.54.45-.87.82-.04.05-.06.16-.1.2-.14.15-.22.28-.23.36-.06.01-.1,0-.09.02-.01.11-.03.29-.06.5-.04.31-.11.65-.18.87-.14.44-.84,1.05-.86,1.36,0,0,0,0,0,0,0,.05-.19.21-.21.33-.03.16-.05.33-.04.4,0,0,0,.01,0,.02,0,.01.03,0,.03.01.05,0,.1-.09.21-.09.09,0,.13.12.17.22.04.08.07.14.15.14.17,0,.39-.16.63-.42.32-.34.68-.85,1.01-1.45.05-.09.1-.18.15-.27.27-.51.52-1.07.71-1.61.02-.05.04-.1.05-.16.2-.58.32-1.14.33-1.58h0Z"/>
      <path class="cls-39" d="m34.62,21.48c-.09,0-.15.05-.2.1-.09.1-.15.25-.38.25l-.22-.02c-.13,0-.54.45-.87.82-.04.04-.06.16-.1.2-.13.15-.21.27-.22.36-.06.01-.09,0-.09.02-.01.12-.03.29-.06.5-.04.3-.11.65-.18.87-.14.44-.84,1.06-.87,1.36,0,0,0,0,0,0,0,.05-.2.2-.22.32-.03.16-.05.33-.04.4,0,0,0,.01,0,.02,0,0,.02,0,.03,0,.05,0,.1-.09.21-.09.09,0,.13.12.17.22.04.08.08.14.15.14.17,0,.39-.16.63-.42.32-.34.67-.85,1.01-1.45.05-.09.1-.18.15-.27.27-.51.52-1.07.71-1.61.02-.05.04-.1.05-.16.2-.58.32-1.13.33-1.58h0Z"/>
      <path class="cls-39" d="m34.62,21.48c-.09,0-.15.05-.2.11-.09.1-.16.25-.38.25l-.22-.02c-.13,0-.54.45-.87.82-.04.04-.06.16-.09.2-.13.14-.2.27-.21.36-.05.02-.09,0-.08.02-.01.12-.03.29-.05.51-.04.3-.11.65-.19.87-.15.45-.85,1.06-.88,1.36,0,0,0,0,0,0,0,.05-.2.2-.22.32-.03.16-.05.33-.04.4,0,0,0,.01,0,.02,0,0,.03,0,.03,0,.05,0,.1-.09.21-.09.09,0,.13.12.17.22.04.08.07.14.15.14.17,0,.39-.16.64-.43.31-.34.67-.85,1-1.45.05-.09.1-.18.15-.27.27-.51.52-1.07.71-1.61.02-.05.04-.1.05-.16.2-.58.32-1.13.33-1.58h0Z"/>
      <path class="cls-44" d="m34.61,21.48c-.09,0-.15.05-.2.11-.09.1-.15.25-.38.25l-.22-.02c-.13,0-.54.45-.87.82-.04.04-.05.16-.09.2-.12.14-.19.26-.2.36-.05.02-.09,0-.08.03-.01.12-.03.29-.05.51-.03.3-.11.65-.19.87-.16.46-.86,1.07-.89,1.36,0,0,0,0,0,0,0,.05-.21.2-.23.31-.03.15-.05.33-.04.4,0,0,0,.01,0,.02,0,0,.03,0,.03,0,.05,0,.1-.09.2-.09.09,0,.13.12.17.22.04.08.07.14.14.14.17,0,.39-.16.64-.43.31-.34.67-.85,1-1.45.05-.09.1-.18.15-.27.27-.51.52-1.07.71-1.6.02-.05.04-.1.05-.16.2-.58.32-1.13.32-1.57h0Z"/>
      <path class="cls-44" d="m34.61,21.48c-.09,0-.15.05-.2.11-.09.1-.15.25-.38.25l-.22-.02c-.13,0-.54.45-.87.82-.04.04-.05.16-.09.2-.12.13-.18.25-.19.35-.05.02-.08,0-.08.03,0,.12-.02.3-.05.51-.03.3-.11.65-.19.87-.17.47-.87,1.08-.9,1.36,0,0,0,0,0,0,0,.05-.22.19-.24.3-.03.15-.05.33-.04.4,0,0,0,.01,0,.02,0,0,.03,0,.03,0,.05,0,.1-.09.2-.09.09,0,.13.12.17.22.04.08.07.14.14.14.17,0,.4-.16.65-.44.31-.34.67-.86,1-1.45.05-.09.1-.18.15-.27.27-.51.52-1.07.71-1.6.02-.05.04-.1.05-.15.19-.58.32-1.13.32-1.57h0Z"/>
      <path class="cls-35" d="m34.61,21.48c-.09,0-.15.05-.2.11-.09.1-.15.24-.38.24l-.22-.02c-.13,0-.54.46-.87.82-.04.04-.05.16-.08.2-.12.13-.17.24-.18.35-.05.02-.08.01-.07.03,0,.12-.02.3-.04.51-.03.3-.11.64-.2.87-.18.48-.88,1.09-.91,1.36,0,0,0,0,0,0,0,.05-.23.19-.25.29-.03.15-.05.33-.04.4,0,0,0,.02,0,.02,0,0,.03,0,.03,0,.05,0,.1-.09.2-.09.09,0,.13.12.17.22.04.08.07.14.14.14.17,0,.4-.17.65-.44.31-.34.67-.85,1-1.45.05-.09.1-.18.15-.27.27-.51.52-1.06.71-1.6.02-.05.04-.1.05-.16.19-.57.32-1.12.32-1.57h0Z"/>
      <path class="cls-36" d="m34.61,21.49c-.09,0-.15.05-.2.11-.09.1-.16.24-.38.24l-.22-.02c-.13,0-.54.46-.87.82-.03.04-.04.16-.08.2-.11.12-.17.24-.16.35-.05.02-.07.01-.07.04,0,.12-.02.3-.04.52-.03.3-.11.64-.2.87-.18.48-.89,1.1-.92,1.36,0,0,0,0,0,0,0,.04-.24.19-.25.29-.03.15-.05.33-.04.41,0,0,0,.02,0,.02,0,0,.03,0,.03,0,.05,0,.1-.09.2-.09.09,0,.13.12.17.22.04.08.07.14.14.14.17,0,.4-.17.65-.44.31-.34.67-.85,1-1.45.05-.09.1-.18.15-.27.27-.51.51-1.06.7-1.59.02-.05.04-.1.05-.15.19-.57.32-1.12.32-1.56h0Z"/>
      <path class="cls-36" d="m34.61,21.49c-.09,0-.14.05-.19.11-.09.1-.16.24-.38.24l-.22-.02c-.13,0-.54.46-.87.82-.03.04-.04.17-.07.2-.11.12-.16.23-.15.35-.04.02-.07.02-.07.04,0,.12-.02.3-.04.52-.03.3-.11.64-.2.88-.19.49-.9,1.1-.93,1.36,0,0,0,0,0,0,0,.04-.24.18-.26.28-.03.15-.05.33-.04.41,0,0,0,.02,0,.02,0,0,.03,0,.03,0,.05,0,.1-.09.2-.09.09,0,.13.12.17.22.04.08.07.14.14.14.17,0,.4-.17.66-.45.31-.34.66-.86.99-1.44.05-.09.1-.18.15-.27.27-.51.51-1.06.7-1.59.02-.05.04-.1.05-.16.19-.57.31-1.12.32-1.56h0Z"/>
      <path class="cls-36" d="m34.61,21.49c-.09,0-.14.05-.19.11-.09.1-.15.24-.38.24l-.22-.02c-.13,0-.54.46-.87.82-.03.04-.04.17-.07.2-.1.12-.15.22-.14.34-.04.02-.07.02-.06.04,0,.12-.01.3-.04.52-.03.3-.11.64-.21.88-.2.5-.91,1.11-.94,1.36,0,0,0,0,0,0,0,.04-.25.18-.27.27-.03.15-.05.33-.04.41,0,0,0,.02,0,.02,0,0,.03,0,.03,0,.05,0,.1-.09.2-.09.09,0,.13.12.18.21.04.08.07.14.14.14.18,0,.41-.17.66-.45.31-.34.66-.86.99-1.44.05-.09.1-.18.15-.27.27-.51.51-1.06.7-1.59.02-.05.04-.1.05-.16.19-.57.31-1.11.32-1.56h0Z"/>
      <path class="cls-21" d="m34.61,21.49c-.09.01-.14.05-.19.11-.09.1-.16.24-.38.24l-.22-.02c-.13,0-.54.46-.87.82-.03.03-.03.17-.06.2-.1.11-.14.22-.13.34-.04.02-.07.02-.06.05,0,.12-.01.3-.03.52-.03.3-.11.64-.21.88-.21.51-.92,1.12-.95,1.36,0,0,0,0,0,0,0,.04-.26.17-.28.26-.03.15-.05.33-.04.41,0,0,0,.02,0,.02,0,0,.03,0,.03,0,.05,0,.1-.09.2-.09.09,0,.13.12.18.21.04.08.07.14.14.14.18,0,.41-.17.67-.46.31-.34.66-.86.99-1.44.05-.09.1-.18.15-.27.27-.51.51-1.05.7-1.58.02-.05.04-.1.05-.16.19-.57.31-1.11.32-1.55h0Z"/>
      <path class="cls-21" d="m34.61,21.49c-.09.01-.14.06-.19.11-.09.1-.16.24-.38.24l-.22-.02c-.13,0-.54.46-.87.82-.03.03-.03.17-.06.2-.1.11-.13.21-.12.34-.04.02-.06.02-.06.05,0,.12,0,.3-.03.52-.03.3-.11.64-.21.88-.22.51-.93,1.12-.96,1.36,0,0,0,0,0,0,0,.04-.27.17-.28.26-.03.15-.06.33-.05.41,0,0,0,.02,0,.02,0,0,.03,0,.03,0,.04,0,.1-.09.2-.09s.13.12.18.21c.04.08.07.14.14.14.18,0,.41-.18.67-.46.31-.34.66-.86.99-1.44.05-.09.1-.18.15-.27.27-.51.51-1.05.7-1.58.02-.05.04-.1.05-.16.19-.57.31-1.11.32-1.55h0Z"/>
      <path class="cls-25" d="m34.61,21.5c-.09.01-.14.06-.19.11-.09.1-.16.24-.38.24l-.22-.02c-.13,0-.54.46-.87.82-.03.03-.03.17-.05.2-.09.1-.12.2-.11.34-.04.02-.06.03-.05.05,0,.12,0,.3-.03.53-.03.3-.11.64-.22.88-.23.52-.94,1.13-.97,1.36,0,0,0,0,0,0,0,.04-.28.17-.29.25-.03.15-.06.33-.05.41,0,0,0,.02,0,.02,0,0,.03,0,.03,0,.04,0,.1-.08.2-.08s.13.12.18.21c.04.09.07.14.14.14.18,0,.41-.18.68-.47.31-.34.66-.86.98-1.44.05-.09.1-.18.14-.27.26-.51.51-1.05.69-1.58.02-.05.04-.1.05-.16.19-.57.31-1.11.32-1.55h0Z"/>
      <path class="cls-25" d="m34.6,21.5c-.09.01-.14.06-.19.12-.08.1-.16.24-.38.24l-.22-.02c-.13,0-.54.46-.86.82-.03.03-.02.17-.05.2-.09.1-.11.2-.1.33-.03.02-.05.03-.05.06,0,.12,0,.3-.02.53-.02.3-.11.64-.22.88-.23.53-.95,1.14-.98,1.36,0,0,0,0,0,0,0,.03-.28.16-.3.24-.03.15-.05.33-.05.41,0,0,0,.02,0,.02,0,0,.03,0,.03,0,.04,0,.1-.08.2-.08s.13.12.18.21c.04.09.07.14.14.14.18,0,.42-.18.68-.47.31-.34.66-.86.98-1.44.05-.09.1-.18.14-.27.26-.5.51-1.05.69-1.57.02-.05.04-.1.05-.16.19-.57.31-1.1.32-1.54h0Z"/>
      <path class="cls-27" d="m34.6,21.5c-.09.01-.14.06-.19.12-.08.1-.16.23-.38.23l-.22-.02c-.13,0-.54.46-.86.82-.03.03-.02.17-.04.2-.08.09-.1.19-.08.33-.03.02-.05.03-.05.06,0,.12,0,.31-.02.53-.02.3-.12.63-.23.88-.24.54-.96,1.15-.99,1.36,0,0,0,0,0,0,0,.03-.29.16-.3.23-.03.15-.06.33-.05.41,0,0,0,.02,0,.02,0,0,.03,0,.03,0,.04,0,.1-.08.2-.08s.14.12.18.21c.04.09.07.14.14.14.18,0,.42-.18.68-.48.31-.35.66-.86.98-1.44.05-.09.1-.18.14-.27.26-.5.5-1.05.69-1.57.02-.05.04-.1.05-.15.19-.56.31-1.1.32-1.54h0Z"/>
      <path class="cls-15" d="m34.6,21.5c-.09.01-.14.06-.19.12-.08.1-.16.23-.38.23l-.22-.02c-.13,0-.54.46-.86.82-.02.03-.02.17-.04.2-.08.09-.09.18-.07.33-.03.02-.05.03-.04.06,0,.12,0,.31-.02.53-.02.3-.12.63-.23.88-.25.55-.96,1.16-1,1.36,0,0,0,0,0,0,0,.03-.3.16-.31.23-.03.15-.06.33-.05.41,0,0,0,.02,0,.02,0,0,.03,0,.03,0,.04-.01.1-.08.19-.08s.14.12.18.21c.04.09.07.14.14.14.18,0,.42-.18.69-.48.31-.35.65-.86.97-1.44.05-.09.1-.18.14-.27.26-.5.5-1.04.69-1.57.02-.05.04-.1.05-.16.19-.56.31-1.1.32-1.54h0Z"/>
      <path class="cls-14" d="m34.6,21.5c-.09.01-.14.06-.19.12-.08.1-.16.23-.38.23l-.22-.02c-.13,0-.54.46-.86.82-.02.03-.01.17-.04.2-.08.08-.08.17-.06.33-.03.02-.04.04-.04.07,0,.13,0,.31-.01.54-.02.3-.12.63-.23.88-.26.55-.97,1.16-1.02,1.36,0,0,0,0,0,0,0,.03-.31.15-.32.22-.03.15-.06.33-.05.41,0,0,0,.02,0,.02,0,0,.03,0,.03,0,.04-.01.1-.08.19-.08s.14.12.18.21c.04.09.07.14.14.14.18,0,.42-.19.69-.49.31-.35.65-.86.97-1.44.05-.09.1-.18.14-.27.26-.5.5-1.04.69-1.57.02-.05.04-.1.05-.16.19-.56.31-1.09.32-1.53h0Z"/>
      <path class="cls-14" d="m34.6,21.5c-.09.01-.14.06-.19.12-.08.1-.16.23-.38.23l-.22-.02c-.12,0-.54.46-.86.82-.02.03-.01.17-.03.2-.07.08-.07.17-.05.32-.03.02-.04.04-.03.07,0,.13,0,.31-.01.54-.02.3-.12.63-.24.88-.27.56-.98,1.17-1.03,1.36,0,0,0,0,0,0,0,.03-.32.15-.33.21-.03.15-.05.33-.05.41,0,0,0,.02,0,.02,0,0,.03,0,.03,0,.04-.01.1-.08.19-.08s.14.12.18.21c.04.09.07.14.14.14.18,0,.42-.19.7-.49.31-.35.65-.86.97-1.43.05-.09.1-.18.14-.27.26-.5.5-1.04.69-1.56.02-.05.04-.1.05-.16.19-.56.31-1.09.32-1.53h0Z"/>
      <path class="cls-28" d="m34.6,21.51c-.09.01-.14.06-.19.12-.08.1-.16.23-.37.23l-.22-.02c-.12,0-.54.46-.86.82-.02.02,0,.18-.03.2-.07.08-.06.16-.04.32-.02.03-.04.04-.03.07,0,.13,0,.31,0,.54-.02.3-.12.63-.24.88-.28.57-.99,1.18-1.04,1.36,0,0,0,0,0,0,0,.03-.33.14-.34.21-.03.15-.06.33-.05.41,0,0,0,.02,0,.02,0,0,.03,0,.03,0,.04-.01.1-.08.19-.08s.14.12.18.21c.04.09.07.15.14.15.18,0,.43-.19.7-.5.31-.35.65-.86.97-1.43.05-.09.09-.18.14-.27.26-.5.5-1.04.68-1.56.02-.05.04-.1.05-.16.19-.56.31-1.09.32-1.52h0Z"/>
      <path class="cls-28" d="m34.6,21.51c-.09.01-.14.06-.19.12-.08.1-.16.23-.37.23l-.22-.02c-.12,0-.54.47-.86.82-.02.02,0,.18-.02.2-.07.07-.06.15-.03.32-.02.03-.03.04-.03.08,0,.13,0,.31,0,.54-.02.3-.12.63-.25.89-.29.58-1,1.19-1.05,1.36,0,0,0,0,0,0,0,.03-.33.14-.34.2-.03.14-.06.33-.05.41,0,0,0,.02,0,.02,0,0,.03,0,.03,0,.04-.01.1-.08.19-.08s.14.12.18.21c.04.09.07.15.14.15.18,0,.43-.19.7-.5.31-.35.65-.86.96-1.43.05-.09.1-.18.14-.27.26-.5.5-1.04.68-1.56.02-.05.04-.1.05-.16.19-.56.31-1.09.32-1.52h0Z"/>
      <path class="cls-20" d="m34.59,21.51c-.09.01-.14.06-.19.12-.08.1-.16.23-.37.23l-.22-.02c-.12,0-.54.47-.86.82-.02.02,0,.18-.02.2-.06.07-.05.15-.01.32-.02.03-.03.05-.03.08,0,.13.01.31,0,.55-.01.3-.12.63-.25.89-.29.59-1.01,1.19-1.06,1.36,0,0,0,0,0,0,0,.02-.34.14-.35.19-.03.14-.06.33-.05.41,0,0,0,.02,0,.02,0,0,.03,0,.03,0,.04-.01.1-.08.19-.08s.14.12.18.21c.04.09.07.15.14.15.19,0,.43-.19.71-.51.31-.35.65-.86.96-1.43.05-.09.09-.17.14-.26.26-.5.5-1.03.68-1.55.02-.05.04-.1.05-.16.19-.56.31-1.08.32-1.52h0Z"/>
      <path class="cls-24" d="m34.59,21.51c-.09.01-.13.06-.18.12-.08.1-.16.23-.37.23l-.22-.02c-.12,0-.54.47-.86.81-.02.02,0,.18-.01.2-.06.06-.04.14,0,.31-.02.03-.03.05-.02.08,0,.13.01.31,0,.55-.01.3-.12.62-.25.89-.3.59-1.02,1.2-1.07,1.36,0,0,0,0,0,0,0,.02-.35.13-.36.18-.03.14-.06.33-.05.41,0,.01,0,.02,0,.03,0,0,.03-.01.03,0,.04-.02.1-.08.19-.08.1,0,.14.12.18.21.04.09.07.15.14.15.19,0,.43-.19.71-.51.3-.35.64-.86.96-1.43.05-.09.09-.17.14-.26.26-.5.49-1.03.68-1.55.02-.05.04-.1.05-.16.19-.55.3-1.08.32-1.51h0Z"/>
      <path class="cls-23" d="m34.59,21.51c-.09.01-.13.06-.18.12-.08.1-.16.22-.37.22l-.22-.02c-.12,0-.54.47-.86.81-.02.02,0,.18,0,.2-.05.06-.03.13,0,.31-.02.03-.02.05-.02.09.01.13.01.31,0,.55-.01.3-.12.62-.26.89-.31.6-1.03,1.21-1.08,1.36,0,0,0,0,0,0,0,.02-.36.13-.36.18-.03.14-.06.33-.05.41,0,.01,0,.02,0,.03,0,0,.03-.01.03-.01.04-.02.1-.08.19-.08.1,0,.14.12.18.21.04.09.07.15.14.15.19,0,.44-.2.71-.52.3-.35.64-.86.96-1.43.05-.09.09-.17.14-.26.26-.5.49-1.03.68-1.55.02-.05.04-.1.05-.16.19-.55.3-1.08.32-1.51h0Z"/>
      <path class="cls-12" d="m34.59,21.52c-.09.02-.13.06-.18.13-.08.1-.16.22-.37.22l-.22-.02c-.12,0-.54.47-.86.81-.02.02.01.18,0,.2-.05.05-.02.12.02.31-.01.03-.02.05-.01.09.01.13.02.32,0,.55-.01.3-.12.62-.26.89-.32.61-1.04,1.22-1.09,1.36,0,0,0,0,0,0,0,.02-.36.13-.37.17-.03.14-.06.33-.05.41,0,.01,0,.02,0,.03,0,0,.03-.01.03-.01.04-.02.1-.08.19-.08.1,0,.14.12.18.21.04.09.07.15.14.15.19,0,.44-.2.72-.52.3-.35.64-.86.96-1.43.05-.09.09-.17.14-.26.26-.5.49-1.03.68-1.54.02-.05.04-.1.05-.16.18-.55.3-1.08.31-1.51h0Z"/>
      <path class="cls-12" d="m34.59,21.52c-.09.02-.13.07-.18.13-.08.1-.16.22-.37.22l-.22-.02c-.12,0-.55.47-.86.81-.01.01.01.18,0,.19-.04.05-.01.12.03.31-.01.03-.02.06,0,.09.01.13.02.32.01.55-.01.3-.12.62-.26.89-.33.62-1.05,1.22-1.1,1.36,0,0,0,0,0,0,0,.02-.37.12-.38.16-.03.14-.06.33-.05.42,0,.01,0,.02,0,.03,0,0,.03-.01.03-.01.04-.02.1-.08.19-.08.1,0,.14.11.18.21.04.09.07.15.13.15.19,0,.44-.2.72-.53.3-.35.64-.86.95-1.43.05-.09.09-.17.14-.26.26-.5.49-1.03.67-1.54.02-.05.04-.1.05-.16.18-.55.3-1.07.31-1.5h0Z"/>
      <path class="cls-10" d="m34.59,21.52c-.08.02-.13.07-.18.13-.08.1-.16.22-.37.22l-.22-.02c-.12,0-.55.47-.85.81-.01.01.02.18,0,.19-.04.04,0,.11.04.3,0,.03-.01.06,0,.1.01.13.02.32.01.56,0,.3-.12.62-.27.89-.34.62-1.06,1.23-1.11,1.36,0,0,0,0,0,0,0,.02-.38.12-.39.15-.03.14-.06.33-.05.42,0,.01,0,.02,0,.03,0,0,.03-.01.03-.01.04-.02.1-.08.19-.08.1,0,.14.11.18.21.04.09.07.15.13.15.19,0,.45-.2.73-.53.3-.35.64-.86.95-1.42.05-.09.09-.17.14-.26.26-.49.49-1.02.67-1.54.02-.05.04-.1.05-.16.18-.55.3-1.07.31-1.5h0Z"/>
      <path class="cls-17" d="m34.59,21.52c-.08.02-.13.07-.18.13-.08.1-.16.22-.37.22l-.22-.02c-.12,0-.55.47-.85.81-.01.01.02.18,0,.19-.04.04,0,.1.05.3,0,.03,0,.06,0,.1.02.13.02.32.02.56,0,.3-.12.62-.27.89-.35.63-1.07,1.24-1.12,1.36,0,0,0,0,0,0,0,.01-.39.11-.39.15-.03.14-.06.33-.05.42,0,.01,0,.02,0,.03,0,0,.03-.02.03-.01.04-.02.1-.08.18-.08.1,0,.14.11.18.21.04.09.07.15.13.15.19,0,.45-.2.73-.54.3-.35.64-.86.95-1.42.05-.09.09-.17.14-.26.26-.49.49-1.02.67-1.53.02-.05.04-.1.05-.16.18-.55.3-1.07.31-1.5h0Z"/>
      <path class="cls-16" d="m34.59,21.52c-.08.02-.13.07-.18.13-.08.1-.16.22-.37.22l-.22-.02c-.12,0-.55.47-.85.81,0,.01.02.18.01.19-.03.04.02.09.07.3,0,.03,0,.06,0,.1.02.13.03.32.02.56,0,.3-.12.62-.28.89-.35.64-1.07,1.25-1.13,1.36,0,0,0,0,0,0,0,.01-.4.11-.4.14-.03.14-.06.34-.06.42,0,.01,0,.02,0,.03,0,0,.03-.02.03-.01.04-.02.09-.08.18-.08.1,0,.14.11.18.21.04.09.07.15.13.15.19,0,.45-.21.74-.54.3-.35.63-.86.94-1.42.05-.09.09-.17.14-.26.26-.49.49-1.02.67-1.53.02-.05.04-.1.05-.16.18-.55.3-1.07.31-1.49h0Z"/>
      <path class="cls-16" d="m34.58,21.53c-.08.02-.13.07-.18.13-.08.1-.16.22-.37.22l-.22-.02c-.12,0-.55.47-.85.81,0,0,.03.19.02.19-.03.03.03.09.08.3,0,.03,0,.07,0,.11.02.13.03.32.02.56,0,.3-.12.62-.28.89-.36.65-1.08,1.25-1.14,1.36,0,0,0,0,0,0,0,.01-.4.11-.41.13-.03.14-.06.33-.06.42,0,.01,0,.02,0,.03,0,0,.03-.02.03-.02.04-.02.09-.08.18-.08.1,0,.15.11.18.21.04.09.07.15.13.15.19,0,.45-.21.74-.55.3-.35.63-.86.94-1.42.05-.09.09-.17.14-.26.25-.49.49-1.02.67-1.53.02-.05.04-.1.05-.16.18-.54.3-1.06.31-1.49h0Z"/>
      <path class="cls-16" d="m34.58,21.53c-.08.02-.13.07-.18.13-.07.09-.16.22-.37.22l-.22-.02c-.12,0-.55.47-.85.81,0,0,.03.19.02.19-.02.03.03.08.09.29,0,.03,0,.07,0,.11.02.14.03.32.03.57,0,.3-.12.61-.28.9-.37.65-1.09,1.26-1.15,1.36,0,0,0,0,0,0,0,0-.41.1-.42.13-.03.14-.06.33-.06.42,0,.01,0,.02,0,.03,0,0,.03-.02.03-.02.04-.02.09-.08.18-.08.1,0,.15.11.19.21.04.09.07.15.13.15.19,0,.46-.21.74-.55.3-.35.63-.86.94-1.42.05-.09.09-.17.14-.26.25-.49.48-1.02.66-1.52.02-.05.04-.1.05-.16.18-.54.3-1.06.31-1.49h0Z"/>
      <path class="cls-29" d="m34.58,21.53c-.08.02-.13.07-.18.13-.07.09-.16.21-.37.21l-.22-.02c-.12,0-.55.47-.85.81,0,0,.03.19.03.19-.02.02.04.07.1.29,0,.04,0,.07.01.12.02.14.03.32.03.57,0,.3-.12.61-.29.9-.38.66-1.1,1.27-1.16,1.36,0,0,0,0,0,0,0,0-.42.1-.42.12-.03.14-.06.33-.06.42,0,.01,0,.02,0,.03,0,0,.03-.02.03-.02.04-.03.09-.08.18-.08.1,0,.15.11.19.2.04.1.07.15.13.15.19,0,.46-.21.75-.56.3-.36.63-.86.94-1.42.05-.08.09-.17.14-.26.25-.49.48-1.01.66-1.52.02-.05.04-.1.05-.16.18-.54.3-1.06.31-1.48h0Z"/>
      <path class="cls-29" d="m34.58,21.53c-.08.02-.13.07-.18.13-.07.09-.16.21-.37.21l-.22-.02c-.12,0-.55.48-.85.81,0,0,.04.19.03.19-.02.02.05.07.11.29,0,.04,0,.07.02.12.02.14.04.32.03.57,0,.3-.12.61-.29.9-.39.67-1.11,1.28-1.17,1.36,0,0,0,0,0,0,0,0-.43.1-.43.11-.03.14-.06.33-.06.42,0,.01,0,.02,0,.03,0,0,.03-.02.03-.02.04-.03.09-.08.18-.08.1,0,.15.11.19.2.04.1.07.15.13.15.19,0,.46-.21.75-.56.3-.36.63-.86.93-1.42.05-.08.09-.17.14-.26.25-.49.48-1.01.66-1.52.02-.05.04-.1.05-.16.18-.54.3-1.05.31-1.48h0Z"/>
      <path class="cls-19" d="m34.58,21.53c-.08.02-.13.07-.18.14-.07.09-.16.21-.37.21l-.22-.02c-.12,0-.55.48-.85.81,0,0,.04.19.04.19-.01.01.06.06.12.29,0,.04.01.08.02.12.02.14.04.33.04.57,0,.29-.12.61-.29.9-.4.68-1.12,1.29-1.18,1.36,0,0,0,0,0,0,0,0-.44.09-.44.1-.02.14-.06.34-.06.42,0,.01,0,.02,0,.03,0,0,.03-.02.03-.02.04-.03.09-.08.18-.08.1,0,.15.11.19.2.04.1.07.15.13.15.19,0,.46-.21.75-.56.3-.36.63-.86.93-1.42.05-.09.09-.17.14-.26.25-.49.48-1.01.66-1.51.02-.05.04-.1.05-.16.18-.54.29-1.05.31-1.48h0Z"/>
      <path class="cls-13" d="m34.58,21.54c-.08.02-.13.07-.18.14-.07.09-.16.21-.37.21l-.22-.02c-.12,0-.55.48-.85.81,0,0,.04.19.04.19,0,0,.07.05.13.28,0,.04.01.08.02.13.02.14.04.33.04.57,0,.29-.12.61-.3.9-.41.68-1.13,1.29-1.19,1.36,0,0,0,0,0,0,0,0-.44.09-.45.1-.03.14-.06.34-.06.42,0,.01,0,.02,0,.03,0,0,.03-.02.03-.02.04-.03.09-.08.18-.08.1,0,.15.11.19.2.04.1.07.15.13.15.2,0,.46-.22.76-.57.3-.36.62-.86.93-1.41.05-.08.09-.17.14-.26.25-.49.48-1.01.66-1.51.02-.05.04-.1.05-.16.18-.54.29-1.05.31-1.47h0Z"/>
      <path class="cls-13" d="m34.58,21.54c-.08.02-.12.07-.18.14-.07.09-.16.21-.37.21l-.22-.02c-.12,0-.55.48-.85.81,0,0,.05.19.05.19,0,0,.08.05.14.28,0,.04.02.08.03.13.02.14.04.33.04.58,0,.29-.13.61-.3.9-.42.69-1.14,1.3-1.21,1.36,0,0,0,0,0,0,0,0-.45.08-.45.09-.02.13-.06.34-.06.42,0,.01,0,.02,0,.03l.03-.02s.09-.08.18-.08c.1,0,.15.11.19.2.04.1.07.15.13.15.2,0,.47-.22.76-.57.3-.36.62-.86.93-1.41.05-.08.09-.17.14-.26.25-.49.48-1,.66-1.51.02-.05.04-.1.05-.16.18-.54.29-1.05.31-1.47h0Z"/>
      <path class="cls-18" d="m31.2,26.62c0-.09.04-.29.06-.42l.46-.08s1.53-1.25,1.53-2.27c0-.89-.23-.99-.23-.99l-.05-.19c.3-.33.73-.81.85-.81l.22.02c.21,0,.3-.12.37-.21.05-.07.09-.12.17-.14-.02.46-.15,1.03-.36,1.62-.21.59-.49,1.2-.79,1.76-.3.56-.63,1.05-.92,1.41-.3.36-.57.58-.77.58-.06,0-.09-.06-.13-.15-.04-.09-.08-.2-.19-.2-.08,0-.14.05-.18.08l-.03.02s0-.02,0-.03h0Z"/>
      <polygon class="cls-4" points="28.89 23.29 29.22 22.97 29.22 24.34 28.89 24.01 28.89 23.29 28.89 23.29"/>
      <polygon class="cls-2" points="28.53 23.65 28.89 23.29 28.89 24.01 28.53 23.65 28.53 23.65"/>
      <polygon class="cls-2" points="29.55 22.63 29.55 24.67 29.22 24.34 29.22 22.97 29.55 22.63 29.55 22.63"/>
      <polygon class="cls-4" points="29.88 22.31 29.88 25 29.55 24.67 29.55 22.63 29.88 22.31 29.88 22.31"/>
      <polygon class="cls-2" points="30.05 22.13 30.22 22.3 30.22 25.01 30.05 25.17 29.88 25 29.88 22.31 30.05 22.13 30.05 22.13"/>
      <polygon class="cls-4" points="30.54 22.62 30.54 24.68 30.22 25.01 30.22 22.3 30.54 22.62 30.54 22.62"/>
      <polygon class="cls-2" points="30.88 22.96 30.88 24.35 30.54 24.68 30.54 22.62 30.88 22.96 30.88 22.96"/>
      <polygon class="cls-4" points="31.2 23.29 31.2 24.02 30.88 24.35 30.88 22.96 31.2 23.29 31.2 23.29"/>
      <polygon class="cls-2" points="31.57 23.65 31.2 24.02 31.2 23.29 31.57 23.65 31.57 23.65"/>
      <path class="cls-30" d="m34.52,30.08v-.51h.27v-.73h-2.72v.72h.27v.22h-4.52v-.21h0s.27,0,.27,0v-.72h-2.72v.73h.27v.32h0v.04l-.56,3.09v.82h3.71v-1.23c0-.45.58-.82,1.29-.82s1.29.37,1.29.82v1.23h3.7v-.82s-.55-2.94-.55-2.94h0Z"/>
      <polygon class="cls-1" points="26.96 32.49 26.96 32.73 26.7 32.73 26.7 32.49 26.96 32.49 26.96 32.49"/>
      <polygon class="cls-1" points="27.78 32.4 27.31 32.4 27.31 32.16 27.78 32.16 27.78 32.4 27.78 32.4"/>
      <polygon class="cls-1" points="33.17 31.83 33.17 32.07 33.44 32.07 33.44 31.83 33.17 31.83 33.17 31.83"/>
      <polygon class="cls-1" points="32.37 32.4 32.85 32.4 32.85 32.16 32.37 32.16 32.37 32.4 32.37 32.4"/>
      <polygon class="cls-1" points="26.98 31.83 26.98 32.07 26.71 32.07 26.71 31.83 26.98 31.83 26.98 31.83"/>
      <polygon class="cls-1" points="27.69 31.49 27.69 31.75 27.31 31.75 27.31 31.49 27.69 31.49 27.69 31.49"/>
      <polygon class="cls-1" points="28.46 31.83 28.46 32.07 27.31 32.07 27.31 31.83 28.46 31.83 28.46 31.83"/>
      <polygon class="cls-1" points="28 31.49 29.22 31.49 29.23 31.75 28 31.75 28 31.49 28 31.49"/>
      <polygon class="cls-1" points="32.46 31.49 32.46 31.75 32.85 31.75 32.85 31.49 32.46 31.49 32.46 31.49"/>
      <polygon class="cls-1" points="32.15 31.49 30.92 31.49 30.93 31.75 32.15 31.75 32.15 31.49 32.15 31.49"/>
      <polygon class="cls-1" points="31.7 31.83 31.7 32.07 32.85 32.07 32.85 31.83 31.7 31.83 31.7 31.83"/>
      <polygon class="cls-1" points="29.5 31.09 29.5 30.85 30.65 30.85 30.65 31.09 29.5 31.09 29.5 31.09"/>
      <polygon class="cls-1" points="27.05 30.76 26.74 30.76 26.74 30.52 27.04 30.52 27.05 30.76 27.05 30.76"/>
      <polygon class="cls-1" points="26.97 32.83 26.97 33.05 25.39 33.05 25.36 32.83 26.97 32.83 26.97 32.83"/>
      <polygon class="cls-1" points="25.69 30.76 25.73 30.52 26.53 30.52 26.53 30.76 25.69 30.76 25.69 30.76"/>
      <polygon class="cls-1" points="26.47 31.18 26.47 31.4 25.58 31.4 25.62 31.18 26.47 31.18 26.47 31.18"/>
      <polygon class="cls-1" points="27.01 31.18 27.01 31.4 26.74 31.4 26.74 31.18 27.01 31.18 27.01 31.18"/>
      <path class="cls-1" d="m26.98,31.49s0,.19,0,.26h-1.45s.04-.26.04-.26h1.4Z"/>
      <polygon class="cls-1" points="26.51 32.07 25.48 32.07 25.52 31.83 26.51 31.83 26.51 32.07 26.51 32.07"/>
      <polygon class="cls-1" points="26.98 32.16 26.98 32.4 25.43 32.4 25.47 32.16 26.98 32.16 26.98 32.16"/>
      <polygon class="cls-1" points="26.98 33.13 26.98 33.37 25.34 33.37 25.34 33.13 26.98 33.13 26.98 33.13"/>
      <polygon class="cls-1" points="26.47 32.73 25.38 32.73 25.41 32.49 26.47 32.49 26.47 32.73 26.47 32.73"/>
      <polygon class="cls-1" points="26.96 33.45 26.96 33.69 26.7 33.69 26.7 33.45 26.96 33.45 26.96 33.45"/>
      <polygon class="cls-1" points="26.46 33.69 25.34 33.69 25.34 33.45 26.47 33.45 26.46 33.69 26.46 33.69"/>
      <polygon class="cls-1" points="29.95 31.4 28.72 31.4 28.72 31.18 29.95 31.18 29.95 31.4 29.95 31.4"/>
      <polygon class="cls-1" points="28.46 31.4 27.31 31.4 27.31 31.18 28.46 31.18 28.46 31.4 28.46 31.4"/>
      <polygon class="cls-1" points="30.2 31.4 31.43 31.4 31.43 31.18 30.2 31.18 30.2 31.4 30.2 31.4"/>
      <polygon class="cls-1" points="31.7 31.4 32.85 31.4 32.85 31.18 31.7 31.18 31.7 31.4 31.7 31.4"/>
      <polygon class="cls-1" points="33.18 32.49 33.18 32.73 33.46 32.73 33.46 32.49 33.18 32.49 33.18 32.49"/>
      <polygon class="cls-1" points="27.03 30.85 27.03 31.09 25.64 31.09 25.67 30.85 27.03 30.85 27.03 30.85"/>
      <polygon class="cls-1" points="27.31 30.85 27.68 30.85 27.68 31.08 27.31 31.08 27.31 30.85 27.31 30.85"/>
      <polygon class="cls-1" points="25.67 29.43 25.67 28.98 25.9 28.98 25.9 29.25 26.11 29.25 26.11 28.98 26.56 28.98 26.56 29.25 26.8 29.25 26.8 28.98 27.25 28.98 27.26 29.25 27.46 29.25 27.46 28.98 27.69 28.98 27.69 29.43 25.67 29.43 25.67 29.43"/>
      <polygon class="cls-1" points="27.19 29.74 27.39 29.74 27.39 29.56 27.19 29.56 27.19 29.74 27.19 29.74"/>
      <polygon class="cls-1" points="26.99 29.74 26.99 29.56 26.37 29.56 26.37 29.74 26.99 29.74 26.99 29.74"/>
      <polygon class="cls-1" points="26.17 29.74 25.97 29.74 25.97 29.56 26.17 29.56 26.17 29.74 26.17 29.74"/>
      <polygon class="cls-1" points="30 30.11 28.69 30.11 28.69 29.89 30 29.89 30 30.11 30 30.11"/>
      <polygon class="cls-1" points="30.16 30.11 31.46 30.11 31.46 29.89 30.16 29.89 30.16 30.11 30.16 30.11"/>
      <polygon class="cls-1" points="33.16 29.74 33.16 29.56 33.78 29.56 33.78 29.74 33.16 29.74 33.16 29.74"/>
      <polygon class="cls-1" points="33.98 29.74 34.18 29.74 34.18 29.56 33.98 29.56 33.98 29.74 33.98 29.74"/>
      <polygon class="cls-1" points="31.66 30.11 32.85 30.11 32.85 29.89 31.66 29.89 31.66 30.11 31.66 30.11"/>
      <polygon class="cls-1" points="33.07 30.11 33.41 30.11 33.41 29.89 33.07 29.89 33.07 30.11 33.07 30.11"/>
      <polygon class="cls-1" points="33.61 30.11 34.15 30.11 34.15 29.89 33.61 29.89 33.61 30.11 33.61 30.11"/>
      <polygon class="cls-1" points="27.08 30.11 26.74 30.11 26.74 29.89 27.08 29.89 27.08 30.11 27.08 30.11"/>
      <polygon class="cls-1" points="26.53 30.11 25.79 30.11 25.82 29.89 26.53 29.89 26.53 30.11 26.53 30.11"/>
      <polygon class="cls-1" points="28.49 30.11 27.35 30.11 27.35 29.89 28.49 29.89 28.49 30.11 28.49 30.11"/>
      <polygon class="cls-1" points="27.74 30.2 27.74 30.4 27.34 30.4 27.35 30.2 27.74 30.2 27.74 30.2"/>
      <polygon class="cls-1" points="27.08 30.41 25.74 30.41 25.78 30.2 27.08 30.2 27.08 30.41 27.08 30.41"/>
      <polygon class="cls-1" points="29.42 30.4 29.43 30.2 30.73 30.2 30.72 30.4 29.42 30.4 29.42 30.4"/>
      <polygon class="cls-1" points="32.41 30.2 32.41 30.4 32.85 30.4 32.85 30.2 32.41 30.2 32.41 30.2"/>
      <polygon class="cls-1" points="32.96 29.74 32.76 29.74 32.76 29.56 32.96 29.56 32.96 29.74 32.96 29.74"/>
      <polygon class="cls-1" points="34.48 29.43 34.48 28.98 34.25 28.98 34.25 29.25 34.05 29.25 34.05 28.98 33.59 28.98 33.59 29.25 33.35 29.25 33.35 28.98 32.9 28.98 32.9 29.25 32.69 29.25 32.7 28.98 32.46 28.98 32.46 29.43 34.48 29.43 34.48 29.43"/>
      <polygon class="cls-1" points="27.78 33.05 27.31 33.05 27.31 32.81 27.78 32.81 27.78 33.05 27.78 33.05"/>
      <polygon class="cls-1" points="32.37 33.05 32.85 33.05 32.85 32.81 32.37 32.81 32.37 33.05 32.37 33.05"/>
      <polygon class="cls-1" points="28.46 32.48 28.46 32.72 27.31 32.72 27.31 32.48 28.46 32.48 28.46 32.48"/>
      <polygon class="cls-1" points="31.7 32.48 31.7 32.72 32.85 32.72 32.85 32.48 31.7 32.48 31.7 32.48"/>
      <polygon class="cls-1" points="27.78 33.7 27.31 33.7 27.31 33.46 27.78 33.46 27.78 33.7 27.78 33.7"/>
      <polygon class="cls-1" points="32.37 33.7 32.85 33.7 32.85 33.46 32.37 33.46 32.37 33.7 32.37 33.7"/>
      <polygon class="cls-1" points="28.46 33.13 28.46 33.37 27.31 33.37 27.31 33.13 28.46 33.13 28.46 33.13"/>
      <polygon class="cls-1" points="31.7 33.13 31.7 33.37 32.85 33.37 32.85 33.13 31.7 33.13 31.7 33.13"/>
      <polygon class="cls-1" points="33.18 32.49 33.18 32.73 33.44 32.73 33.44 32.49 33.18 32.49 33.18 32.49"/>
      <polygon class="cls-1" points="33.1 30.76 33.4 30.76 33.4 30.52 33.1 30.52 33.1 30.76 33.1 30.76"/>
      <polygon class="cls-1" points="33.17 32.83 33.17 33.05 34.85 33.05 34.78 32.83 33.17 32.83 33.17 32.83"/>
      <polygon class="cls-1" points="34.45 30.76 34.41 30.52 33.61 30.52 33.61 30.76 34.45 30.76 34.45 30.76"/>
      <polygon class="cls-1" points="33.67 31.18 33.67 31.4 34.56 31.4 34.52 31.18 33.67 31.18 33.67 31.18"/>
      <polygon class="cls-1" points="33.13 31.18 33.13 31.4 33.4 31.4 33.4 31.18 33.13 31.18 33.13 31.18"/>
      <path class="cls-1" d="m33.16,31.49s0,.19,0,.26h1.45s-.04-.26-.04-.26h-1.4Z"/>
      <polygon class="cls-1" points="33.64 32.07 34.66 32.07 34.63 31.83 33.64 31.83 33.64 32.07 33.64 32.07"/>
      <polygon class="cls-1" points="33.16 32.16 33.16 32.4 34.71 32.4 34.68 32.16 33.16 32.16 33.16 32.16"/>
      <polygon class="cls-1" points="33.16 33.13 33.16 33.37 34.8 33.37 34.8 33.13 33.16 33.13 33.16 33.13"/>
      <polygon class="cls-1" points="33.67 32.73 34.77 32.73 34.73 32.49 33.67 32.49 33.67 32.73 33.67 32.73"/>
      <polygon class="cls-1" points="33.18 33.45 33.18 33.69 33.44 33.69 33.44 33.45 33.18 33.45 33.18 33.45"/>
      <polygon class="cls-1" points="33.68 33.69 34.8 33.69 34.8 33.45 33.67 33.45 33.68 33.69 33.68 33.69"/>
      <polygon class="cls-1" points="33.11 30.85 33.11 31.09 34.5 31.09 34.47 30.85 33.11 30.85 33.11 30.85"/>
      <polygon class="cls-1" points="32.83 30.85 32.47 30.85 32.47 31.08 32.83 31.08 32.83 30.85 32.83 30.85"/>
      <polygon class="cls-1" points="33.06 30.41 34.4 30.41 34.36 30.2 33.06 30.2 33.06 30.41 33.06 30.41"/>
      <path class="cls-1" d="m32.15,32.16h-.58c.06.08.09.16.09.24h.49v-.24h0Z"/>
      <polygon class="cls-1" points="31.66 33.7 32.15 33.7 32.15 33.46 31.66 33.46 31.66 33.66 31.66 33.7 31.66 33.7"/>
      <polygon class="cls-1" points="28.48 33.46 28 33.46 28 33.7 28.48 33.7 28.48 33.66 28.48 33.46 28.48 33.46"/>
      <path class="cls-1" d="m29.01,31.83h-.3v.18c.06-.05.12-.1.2-.14.03-.01.06-.03.09-.04h0Z"/>
      <path class="cls-1" d="m30.65,31.68v-.19h-1.15v.19c.18-.04.37-.06.57-.06s.4.02.58.06h0Z"/>
      <path class="cls-1" d="m31.43,32.02v-.18h-.3s.06.03.09.04c.08.04.15.09.21.14h0Z"/>
      <path class="cls-1" d="m28,32.16v.24h.48c0-.08.04-.16.09-.24h-.58Z"/>
      <polygon class="cls-1" points="28 32.81 28 33.05 28.48 33.05 28.48 32.81 28 32.81 28 32.81"/>
      <polygon class="cls-1" points="32.15 33.05 32.15 32.81 31.66 32.81 31.66 33.05 32.15 33.05 32.15 33.05"/>
      <path class="cls-1" d="m31.08,30.52h-.86v.24s.86,0,.86,0v-.23s0,0,0-.01h0Z"/>
      <polygon class="cls-1" points="32.83 30.76 32.83 30.54 32 30.54 32 30.76 32.83 30.76 32.83 30.76"/>
      <path class="cls-1" d="m31.54,30.3c.15,0,.28.04.37.1h.31v-.2h-1.25v.2h.21c.08-.06.21-.1.37-.1h0Z"/>
      <polygon class="cls-1" points="31.08 30.97 31.08 30.85 30.96 30.85 30.95 31.09 32.15 31.09 32.15 30.85 32 30.85 32 30.97 31.08 30.97 31.08 30.97"/>
      <path class="cls-1" d="m29.07,30.54v.23h.86v-.24h-.87s0,0,0,.01h0Z"/>
      <path class="cls-1" d="m28.61,30.3c.15,0,.28.04.37.1h.21v-.2h-1.25v.2h.31c.08-.06.21-.1.37-.1h0Z"/>
      <polygon class="cls-1" points="27.31 30.54 27.31 30.76 28.15 30.76 28.15 30.54 27.31 30.54 27.31 30.54"/>
      <polygon class="cls-1" points="28.15 30.97 28.15 30.85 28 30.85 28 31.09 29.19 31.09 29.19 30.85 29.07 30.85 29.07 30.97 28.15 30.97 28.15 30.97"/>
      <path class="cls-1" d="m31.73,30.45s-.12-.04-.19-.04-.14.02-.19.04c-.04.02-.07.05-.07.08v.33h.51v-.33s-.02-.06-.07-.08h0Z"/>
      <path class="cls-1" d="m28.8,30.45s-.12-.04-.19-.04-.14.02-.19.04c-.04.02-.07.05-.07.08v.33h.51v-.33s-.02-.06-.07-.08h0Z"/>
      <path class="cls-3" d="m34.23,35.23c-.46.14-.91.58-1.37.52-.46-.06-.9-.54-1.37-.51-.23.01-.45.14-.69.33-.23.18-.46.16-.7.22-.47.11-.91-.3-1.38-.49-.47-.19-.91.12-1.38.37-.47.24-.91.08-1.38-.2-.35-.21-.68-.25-1.02-.14h0c0,.27.02.51.07.74.32-.08.63-.03.96.16.47.28.91.45,1.38.2.47-.25.91-.55,1.38-.37.47.19.91.6,1.38.49.24-.06.46-.04.7-.22.24-.18.46-.31.69-.33.47-.02.91.45,1.37.51.46.06.9-.38,1.37-.52.28-.08.56.04.84.19.05-.22.08-.46.09-.71-.31-.17-.62-.33-.93-.24h0Z"/>
      <path class="cls-5" d="m34.23,35.99c-.46.13-.91.58-1.37.52-.46-.06-.9-.54-1.37-.51-.23.01-.45.14-.69.33-.23.18-.46.16-.7.22-.47.11-.91-.3-1.38-.49-.47-.19-.91.12-1.38.37-.47.24-.91.08-1.38-.2-.32-.19-.64-.24-.96-.16.05.26.12.5.21.72.25-.02.49.05.74.19.47.28.91.45,1.38.2.47-.25.91-.55,1.38-.37.47.19.91.6,1.38.49.24-.06.46-.04.7-.23.24-.18.46-.31.69-.33.47-.02.91.45,1.37.51.46.06.9-.38,1.37-.52.21-.06.42,0,.63.09.09-.2.16-.42.21-.65-.28-.15-.56-.27-.84-.19h0Z"/>
      <path class="cls-3" d="m34.23,36.74c-.46.14-.91.58-1.37.52-.46-.06-.9-.54-1.37-.51-.23.01-.45.14-.69.33-.23.18-.46.16-.7.23-.47.11-.91-.3-1.38-.49-.47-.19-.91.12-1.38.37-.47.24-.91.08-1.38-.2-.25-.15-.5-.21-.74-.19.13.32.3.6.49.83.08.03.17.07.25.12.47.28.91.45,1.38.2.47-.25.91-.55,1.38-.37.47.19.91.6,1.38.49.24-.06.46-.04.7-.22.24-.18.46-.31.69-.33.47-.02.91.45,1.37.51.46.06.9-.38,1.37-.52.09-.02.17-.02.26-.02.14-.19.27-.41.37-.65-.21-.09-.42-.15-.63-.09h0Z"/>
      <path class="cls-5" d="m34.23,37.5c-.46.14-.91.58-1.37.52-.46-.06-.9-.54-1.37-.51-.23.01-.45.14-.69.33-.23.18-.46.16-.7.22-.47.11-.91-.3-1.38-.49-.47-.19-.91.12-1.38.37-.47.24-.91.08-1.38-.2-.08-.05-.17-.09-.25-.12.44.53.96.81,1.3.81h.83c.29-.14.57-.21.87-.1.47.19.91.6,1.38.49.24-.06.46-.04.7-.22.24-.18.46-.31.69-.33.19,0,.37.06.55.16h1.05c.37,0,.95-.32,1.4-.93-.09,0-.17,0-.26.02h0Z"/>
      <path class="cls-3" d="m30.8,38.59c-.23.18-.46.16-.7.22-.47.11-.91-.3-1.38-.49-.29-.12-.58-.04-.87.1h.8c.61,0,1.4.73,1.4,1.41v-.14c.11-.64.82-1.27,1.39-1.27h.59c-.18-.09-.37-.16-.55-.16-.23.01-.45.14-.69.33h0Z"/>
      <path class="cls-5" d="m25.98,35.46c.47.28.91.45,1.38.2.47-.25.91-.55,1.38-.37.47.19.91.6,1.38.49.24-.06.46-.04.7-.22.24-.18.46-.31.69-.33.47-.02.91.45,1.37.51.46.06.9-.38,1.37-.52.31-.09.62.07.93.24,0-.05,0-.1,0-.15v-.6c-.31-.18-.62-.33-.94-.25-.46.14-.91.58-1.37.52-.46-.06-.9-.54-1.37-.52-.23.01-.45.14-.69.33-.23.18-.46.16-.7.22-.47.11-.91-.3-1.38-.49-.47-.19-.91.12-1.38.37-.47.24-.91.08-1.38-.2-.35-.21-.68-.25-1.02-.14v.76c.34-.11.68-.06,1.02.14h0Z"/>
      <path class="cls-34" d="m30.06,21.24c.46,0,.62.09.82.29.02,0,.03,0,.03-.03-.21-.21-.39-.3-.85-.3s-.64.09-.85.3c0,.03,0,.03.03.03.2-.2.36-.29.82-.29h0Z"/>
      <path class="cls-34" d="m30.06,21.52c.27,0,.51.06.69.18.02,0,.02-.01.02-.04-.2-.13-.46-.18-.71-.18s-.51.05-.71.18c0,.03,0,.03.03.04.18-.11.42-.18.69-.18h0Z"/>
      <path class="cls-38" d="m30.06,21.46c.27,0,.52.06.71.18l.09-.12c-.19-.19-.36-.27-.8-.27s-.61.08-.8.27l.09.12c.19-.11.44-.18.71-.18h0Z"/>
      <path class="cls-45" d="m28.86,21.22s.03.07,0,.09c-.02.01-.06,0-.08-.04-.02-.03-.03-.07,0-.09.02-.01.06,0,.08.04h0Z"/>
      <path class="cls-45" d="m31.26,21.22s-.03.07,0,.09c.02.01.06,0,.08-.04.02-.03.03-.07,0-.09-.02-.01-.06,0-.08.04h0Z"/>
      <path class="cls-45" d="m29.94,20.97s.08-.07.08-.15h0s-.03-.04-.03-.06c0-.04.03-.07.07-.07s.07.03.07.07c0,.02-.01.05-.03.06h0c0,.08.04.15.08.15s.08-.07.08-.15-.04-.15-.08-.15c-.01,0-.03,0-.04.02,0-.01,0-.03,0-.04,0-.1-.04-.18-.09-.18s-.09.08-.09.18c0,.01,0,.02,0,.04,0,0-.02-.01-.03-.01-.04,0-.08.07-.08.15s.04.15.08.15h0Z"/>
      <path class="cls-45" d="m31.48,20.99c-.11,0-.15.08-.15.08,0,0-.01.03-.02.03-.01,0-.02-.02-.02-.02,0-.02-.01-.03-.04-.03-.06,0-.14.09-.14.2,0,.02,0,.03,0,.04l-.02.03s-.08.02-.1,0c-.04-.04-.02-.11,0-.14,0,0,0,0,.01,0,.03,0,.06-.03.06-.06s-.03-.06-.06-.06c-.04,0-.06.03-.06.06,0,.01,0,.02,0,.03-.01.02-.08.12-.16.09-.1-.04-.03-.19-.03-.19,0,0,0,0,.01-.01h0c0,.05,0,.1.04.11.04.01.09-.03.12-.11.03-.07.02-.14-.02-.16,0,0-.02,0-.03,0,0-.01,0-.02.01-.03.03-.09.02-.17-.02-.19-.04-.02-.11.04-.14.13,0,.01,0,.03-.01.04,0-.01-.02-.02-.03-.03-.04-.01-.09.03-.12.11-.03.07-.02.15.02.16.03.01.07-.02.1-.07h0s-.08.19-.16.17c-.08-.03-.1-.15-.1-.18.03,0,.06-.03.06-.07,0-.04-.03-.07-.07-.07-.04,0-.07.03-.07.07,0,.02.01.04.03.06,0,.02-.07.13-.16.11-.05-.01-.1-.2-.11-.26,0,0-.02,0-.02,0s-.02,0-.02,0c-.01.06-.06.24-.11.26-.09.02-.15-.09-.16-.11.02-.01.03-.03.03-.06,0-.04-.03-.07-.07-.07s-.07.03-.07.07c0,.04.03.06.06.07,0,.02-.02.15-.1.18-.08.02-.16-.16-.16-.16,0,0,0,0,0,0h0s.07.08.1.07c.04-.01.05-.09.02-.16-.03-.07-.08-.12-.12-.11-.01,0-.02.01-.03.03,0-.01,0-.02-.01-.04-.03-.09-.09-.15-.14-.13-.04.02-.06.1-.02.19,0,.01,0,.02.01.03-.01,0-.02,0-.03,0-.04.01-.05.09-.02.16.03.07.08.12.12.11.03-.01.04-.06.04-.11h0s.01.01.01.01c0,0,.07.14-.03.19-.08.03-.15-.06-.16-.09,0,0,0-.02,0-.03,0-.04-.03-.06-.06-.06s-.06.03-.06.06.03.06.06.06c0,0,0,0,.01,0,.01.03.03.1,0,.14-.03.02-.08.01-.1,0l-.02-.03s0-.02,0-.04c0-.11-.08-.2-.14-.2-.02,0-.03.01-.04.03,0,0-.01.02-.02.02,0,0-.02-.03-.02-.03,0,0-.04-.08-.15-.08s-.15.05-.15.09.04.07.07.07.04-.03.09-.03c.06.02.09.03.12.06,0,0,0,0,0,0,.03-.02.07,0,.09.04.02.03.03.06.02.08.01,0,.02,0,.03,0,0,0,.01-.02.01-.02h.01s.05.07.06.08c.05.04.13.09.17.04.04-.04.03-.13.03-.13,0,0,.1.07.18.04.06-.03.07-.16.07-.16,0,0,.09.1.18.08.09-.03.12-.16.12-.16,0,0,.11.13.19.12.08-.02.12-.17.12-.17,0,0,.04.16.12.17.08.02.19-.12.19-.12,0,0,.03.13.12.16.09.03.18-.08.18-.08,0,0,0,.13.06.16.08.03.18-.04.18-.04,0,0,0,.09.03.13.04.05.12,0,.17-.04.01-.01.06-.06.06-.08h.01s0,.02.01.02c.01.01.02.01.03,0,0,0,0-.01,0-.02,0-.02,0-.04.02-.06.03-.04.07-.06.09-.04,0,0,0,0,0,0,.03-.02.07-.04.12-.06.05,0,.06.03.09.03s.07-.03.07-.07-.04-.09-.15-.09h0Zm-2.11.02s-.07-.03-.07-.07.03-.07.07-.07.07.03.07.07-.03.07-.07.07h0Zm1.3-.07s.03-.07.07-.07c.04,0,.07.03.07.07s-.03.07-.07.07c-.04,0-.07-.03-.07-.07h0Z"/>
      <path class="cls-45" d="m29.44,20.94s-.03.06-.06.06c-.04,0-.06-.03-.06-.06s.03-.06.06-.06c.03,0,.06.03.06.06h0Z"/>
      <path class="cls-45" d="m30.12,20.76s-.03.06-.06.06-.06-.03-.06-.06.03-.06.06-.06.06.03.06.06h0Z"/>
      <path class="cls-45" d="m30.68,20.94s.03.06.06.06c.04,0,.06-.03.06-.06s-.03-.06-.06-.06c-.03,0-.06.03-.06.06h0Z"/>
      <path class="cls-26" d="m30.25,60.12l.07-.34c-.08,0-.17-.01-.25-.01-.95,0-1.86.14-2.72.41h0s-2.5,1.45-2.5,7.45c0,2.25.28,3.55,2.44,3.55,1.61,0,2.04-.68,2.04-1.76,0-.74-.99-.77-.99-2.44,0-1.51,1.95-2.69,1.95-3s-.99-.68-.99-1.88c0-1.14.96-1.98.96-1.98h0Z"/>
      <path class="cls-26" d="m31.27,64.75l-.97-.02s-.08.08-.13.12c-.54.51-1.35,1.28-1.35,2.11s.26,1.12.52,1.42c.07.08.15.18.22.28h1.05c1.82,0,3.15,1.33,3.15,2.69,0,.83.09.8,1.51.8,1.27,0,1.91.68,1.91,1.48,0,.17.12.41.3.68.81-1.12,1.37-2.42,1.61-3.83-1.89-2.05-5.63-5.75-7.84-5.75h0Z"/>
      <path class="cls-26" d="m30.78,63.98c0,.1-.03.18-.07.27h.56c2.18,0,5.46,2.99,7.93,5.62.03-.3.05-.61.05-.92,0-4.81-3.72-8.76-8.43-9.15l-.08.41-.03.16-.12.11s-.79.71-.79,1.61c0,.59.31.9.58,1.17.2.2.41.4.41.71h0Z"/>
      <path class="cls-26" d="m24.82,70.46c-.4-.75-.46-1.76-.46-2.84,0-3.87,1.01-5.94,1.81-6.97-3.12,1.47-5.28,4.63-5.28,8.3,0,1.28.27,2.5.74,3.61.29.06.61.1.94.1,2.1,0,2.25-2.2,2.25-2.2h0Z"/>
      <path class="cls-26" d="m37.09,74.6c-.26-.39-.38-.69-.38-.95,0-.61-.54-.99-1.42-.99h-.15c-.41,0-.72,0-.96-.03-1.05,1.59-3.84,3.99-7.29,3.99-.61,0-1.34-.04-1.99-.08,1.47,1.01,3.25,1.6,5.17,1.6,2.87,0,5.43-1.33,7.11-3.4l-.09-.14h0Z"/>
      <path class="cls-26" d="m24.22,76.02l2.66.1c3.14,0,5.75-2.14,6.8-3.65-.05-.03-.09-.06-.13-.11-.27-.27-.27-.66-.27-1,0-1.06-1.07-2.19-2.66-2.19h-.84c.02.08.03.16.03.25,0,1.52-.83,2.25-2.53,2.25-.98,0-1.63-.25-2.06-.67-.23.94-.96,2.15-2.66,2.15l-.68-.07c.57,1.13,1.37,2.13,2.34,2.93h0Z"/>
    </g>
  </g>
</svg>