<?xml version="1.0" encoding="UTF-8"?>
<svg id="Layer_2" data-name="Layer 2" xmlns="http://www.w3.org/2000/svg" viewBox="0 0 380.3 380.3">
  <defs>
    <style>
      .cls-1 {
        fill: #0056a0;
      }

      .cls-1, .cls-2 {
        fill-rule: evenodd;
        stroke-width: 0px;
      }

      .cls-2 {
        fill: #fff;
      }
    </style>
  </defs>
  <g id="Layer_1-2" data-name="Layer 1">
    <g>
      <path class="cls-1" d="m380.3,190.15c0,105.02-85.13,190.15-190.15,190.15S0,295.17,0,190.15,85.13,0,190.15,0s190.15,85.13,190.15,190.15h0Z"/>
      <path class="cls-2" d="m190.15,322.1c-72.76,0-131.95-59.19-131.95-131.95S117.39,58.2,190.15,58.2c72.76,0,131.95,59.19,131.95,131.95s-59.19,131.95-131.95,131.95h0Zm0-269.72c-75.97,0-137.77,61.8-137.77,137.77s61.8,137.77,137.77,137.77,137.77-61.8,137.77-137.77S266.12,52.38,190.15,52.38h0Z"/>
      <path class="cls-2" d="m22.78,236.36c.02.08.11.09.19.07l18.19-5.44c-.44-1.49-.76-2.11-1-2.64-.28-.51-.59-.54-.96-.52l-4.01.39c-.28-1.36-.62-2.92-.87-4.2,2.7-.64,5.4-1.28,8.06-1.9.25.82.66,2.35,1.07,3.72.3,1.02,1.86,6.21,2.29,7.65.36,1.21,1.87,6.24,2.18,7.3.49,1.51.91,2.92,1.15,3.7-2.57.94-5.18,1.89-7.78,2.71-.53-1.2-1.1-2.69-1.63-4.02l3.56-1.75c.41-.2.56-.42.52-.96-.03-.54-.1-1.03-.62-2.79l-18.33,5.4.72,2.84c-1.09.33-2.23.67-3.37.97-.49-1.64-1.16-4.03-1.77-6.06-.56-1.87-1.29-4.16-1.87-6.12,1.13-.34,2.26-.68,3.37-.96l.91,2.62h0Z"/>
      <path class="cls-2" d="m30.74,259.75c.04.07.15.11.22.07l16.92-8.78-.92-2.05c.98-.5,2.1-1.09,3.09-1.56.75,1.45,1.86,3.58,2.7,5.21.9,1.73,1.93,3.72,2.68,5.17-.98.5-2.1,1.09-3.09,1.56l-1.2-2.04s-.07-.05-.22.02l-6.31,3.23c-.07.04-.09.09-.07.12l3.81,7.43,6.62-3.43-1.04-2.26c.98-.51,2.12-1.05,3.09-1.56.79,1.52,1.88,3.61,2.83,5.46.81,1.55,1.8,3.47,2.53,4.88-.94.48-2.13,1.11-3.09,1.56l-1.03-1.72c-.04-.07-.09-.09-.2-.03l-16.98,8.67.92,2.05c-1,.47-2.12,1.05-3.15,1.54-.73-1.41-1.75-3.45-2.53-4.97-.97-1.88-2.08-3.92-2.92-5.55,1.01-.52,2.13-1.11,3.13-1.58l1.31,2.26c.04.07.09.09.2.03l6.84-3.55c.07-.04.13-.11.09-.18l-3.9-7.34-7.09,3.58,1.07,2.33c-1.01.53-2.1,1.09-3.13,1.58-.75-1.45-1.78-3.53-2.7-5.3-.83-1.59-1.89-3.56-2.68-5.08,1.01-.53,2.12-1.05,3.13-1.58l1.07,1.79h0Z"/>
      <path class="cls-2" d="m47.63,289.57c.05.06.16.08.23.03l15.19-11.66-1.35-1.89c.94-.72,1.91-1.46,2.8-2.1.92,1.2,2.21,2.88,3.27,4.27.77,1,5.21,6.79,5.78,7.53,1.02,1.33,1.92,2.43,2.49,3.17-1.81,1.6-3.67,3.18-5.53,4.71-.82-.86-1.81-1.89-2.73-2.89l2.06-2.4c.24-.29.34-.56.05-1.07-.28-.5-.87-1.54-2.41-3.54-.05-.06-.17-.23-.25-.32l-6.11,4.69c.8.98,1.5,1.88,2.22,2.76.15.19.52.21.94-.05l1.35-.72c.83,1.01,1.61,2.1,2.3,3.06-1.06.76-2.22,1.65-3.39,2.55-1.19.86-2.35,1.75-3.19,2.4-.75-.91-1.63-1.93-2.43-2.96l1.19-1.12c.44-.44.5-.75.28-1.04-.66-.93-1.32-1.86-2.04-2.8l-5.72,4.39c-.61.47-.54.77.58,2.22.99,1.3,1.74,2,2.19,2.38.31.27.63.29,1.05.17l3.3-1.04c.68,1.22,1.33,2.47,1.85,3.61-2.17,1.05-4.38,2.13-6.61,3.17-1.23-1.67-4.65-6.13-8.1-10.63-1.14-1.49-2.38-3.1-3.4-4.43.87-.67,1.87-1.38,2.74-2.05l1.39,1.61h0Z"/>
      <path class="cls-2" d="m84.45,315.04c.1.14.32.32.73.66,2.1,1.74,4.58,1.36,6.3-.71,1.9-2.29,1.89-5.16.22-6.53-.5-.42-.84-.64-1.08-.74l-6.17,7.33h0Zm-.82-12.94c.79-.88,1.51-1.76,2.24-2.64,2.19,1.76,4.85,3.91,7.3,5.94,1.82,1.5,2.76,2.28,4.25,4.25,2.24,2.86,1.97,6.76.31,8.77-2.21,2.67-5.46,3.15-8.44,2.22l-.13.16c.87,1.83.14,4.24-.92,8.34-.28,1.04-.29,1.56.03,1.88l1.35,1.44c-.7.85-1.43,1.73-2.16,2.6-.62-.46-1.72-1.37-2.35-1.89-.69-.57-3.38-2.75-3.95-3.22.33-2.06,1.83-6.95,2.43-8.94.4-1.31.14-2.16-.55-2.73-.41-.34-.68-.51-.8-.56l-4.21,5.03,1.62,1.5c-.73.88-1.46,1.7-2.19,2.58-1.22-1.01-2.92-2.42-4.49-3.71-1.32-1.09-2.79-2.31-3.96-3.27.73-.88,1.43-1.73,2.16-2.6l1.65,1.2s.12,0,.14-.04l12.32-14.82-1.64-1.47h0Z"/>
      <path class="cls-2" d="m104.6,318.5c.58-.94,1.24-2.01,1.81-2.95,1.46.9,3.62,2.28,5.22,3.26,1.74,1.07,3.74,2.25,5.16,3.12-.58.94-1.24,2.02-1.85,2.93l-2.21-1.22c-.07-.04-.11.03-.18.13l-10.08,16.18,2.26,1.53c-.6.97-1.24,2.02-1.87,2.97-1.42-.88-3.45-2.17-5.22-3.25-1.56-.96-3.56-2.14-5.12-3.1.6-.97,1.24-2.01,1.89-3l2.06,1.17c.07.04.15,0,.19-.07l10-16.28-2.05-1.41h0Z"/>
      <path class="cls-2" d="m115.92,345.92c-.01.13,0,.31.07.44.42.76,1.21,1.39,2.14,1.8.89.4,2.07.66,2.9.41.76-.2,1.39-.72,1.79-1.61.83-1.86.07-2.65-2.31-5.01-3.12-3.1-5-6.67-3.37-10.31,1.03-2.3,2.98-3.75,5.01-4.4,2.3-.75,5.42-.43,8.95,1.16,2.12.95,3.96,2.13,4.66,2.94-.78,2.33-1.66,4.7-2.52,7-1.24-.33-2.68-.8-4.01-1.22l.7-3.84c.01-.13,0-.22-.03-.33-.28-.57-.89-1.11-1.63-1.45-.89-.4-1.7-.49-2.49-.31-.65.16-1.49.63-1.95,1.67-.83,1.86-.22,2.58,2.7,5.32,3.45,3.25,4.68,6.3,3.11,9.79-1.05,2.34-3,4.1-5.42,4.71-2.46.59-5.19.22-8.83-1.42-1.56-.7-4.08-2.05-5.35-3.3.75-2.47,1.53-4.9,2.29-7.28,1.31.27,2.87.66,4.2,1.08l-.61,4.15h0Z"/>
      <path class="cls-2" d="m139.44,335.89c.32-1.05.69-2.26,1.01-3.31,1.64.5,4.08,1.29,5.87,1.84,1.95.59,4.18,1.24,5.78,1.72-.32,1.05-.69,2.26-1.05,3.3l-2.45-.62c-.08-.02-.1.05-.14.17l-5.69,18.2,2.57.91c-.33,1.09-.69,2.26-1.06,3.34-1.6-.49-3.88-1.23-5.87-1.84-1.75-.53-3.99-1.18-5.74-1.71.33-1.09.69-2.26,1.08-3.38l2.28.61c.08.02.14-.04.16-.12l5.59-18.27-2.34-.84h0Z"/>
      <path class="cls-2" d="m153.34,360.19c.13-.02.17-.06.19-.14l2.81-18.94-2.32-.44c.17-1.12.35-2.33.56-3.42,2.26.34,5.4.82,7.73,1.17,2.4,4.86,6.27,13.35,8.93,19.23l.2.03c.66-4.64,1.37-9.36,1.99-14l-2.89-.52c.16-1.09.36-2.38.56-3.42,1.57.24,3.46.52,5.24.79,1.41.21,3.11.43,4.32.61-.16,1.09-.35,2.3-.6,3.41l-1.79-.14c-.08-.01-.13.02-.15.18l-3.52,22.01c-.87.28-2.98.33-4.99.03-2.18-3.58-5.85-10.11-9.44-17.7l-.28-.04c-.66,4.1-1.24,7.97-1.89,11.95l2.96.57c-.16,1.09-.39,2.33-.6,3.45-1.69-.26-3.82-.62-5.75-.91-1.29-.19-2.67-.36-3.79-.53.17-1.13.35-2.34.56-3.46l1.99.22h0Z"/>
      <path class="cls-2" d="m200.84,345.37c-.05-.21-.09-.37-.22-.48-.54-.39-1.41-.73-2.51-.69-1.26.04-2.8.46-4.14,1.76-1.78,1.73-2.85,4.95-2.73,8.61.11,3.46,1.01,5.84,2.48,7.34,1.65,1.78,3.46,2.21,5.12,2.15.69-.02.89-.19.92-.52l-.18-5.54-3.18.02c-.04-1.1-.04-2.49-.08-3.58,1.79-.06,4.36-.14,6.51-.22,1.71-.06,3.83-.12,5.38-.18.04,1.1.08,2.44.08,3.59l-1.71.14c-.08.04-.16.09-.16.17l.14,7.9c-1.36.86-4.15,1.61-7.85,1.73-4.56.15-7.93-.76-10.31-2.47-2.76-2.07-4.7-5.27-4.84-9.62-.19-5.82,2.61-9.7,5.72-12.09,2.82-2.13,6.83-3.03,10.09-3.14,2.56-.08,4.9.25,6.1.78.29,2.64.54,5.32.71,8.04-1.34.21-2.88.42-4.3.59l-1.04-4.29h0Z"/>
      <path class="cls-2" d="m232.54,348.82c.11.39.81.2,1.48.01.98-.27,1.87-.9,2.39-1.76.6-1.05.68-2.6.2-4.32-.8-2.91-3.22-4.77-5.46-4.16-.59.16-1.09.35-1.22.47l2.61,9.76h0Zm-11.3-7.23c-.29-1.06-.63-2.28-.88-3.35,2.82-.82,6.26-1.82,9.52-2.72,1.77-.49,3.57-.99,5.96-.92,3.46.14,6.43,2.78,7.36,6.12.86,3.1-.35,6.53-2.62,8.59-1.56,1.4-4.22,2.47-5.16,2.74-.51.14-1.57.43-1.86.47l1.47,5.47,3.6-.87c.28,1.02.61,2.2.86,3.27-1.96.54-4.67,1.29-7.07,1.95-1.69.47-3.5.96-5.03,1.39-.29-1.06-.58-2.25-.82-3.28l1.81-.63c.12-.03.15-.08.11-.2l-5.12-18.53-2.14.51h0Z"/>
      <path class="cls-2" d="m255.19,351.48c.07-.03.11-.14.08-.22l-8.29-17.17-2.07.86c-.48-.99-1.03-2.13-1.47-3.14,1.47-.71,3.63-1.75,5.28-2.55,1.76-.85,3.78-1.83,5.25-2.53.48.99,1.03,2.13,1.47,3.14l-2.07,1.14s-.06.07.02.22l3.05,6.4c.04.07.09.09.13.07l7.54-3.59-3.24-6.71-2.29.97c-.48-.99-.99-2.15-1.47-3.13,1.54-.75,3.67-1.77,5.54-2.68,1.58-.76,3.52-1.7,4.95-2.39.46.96,1.05,2.16,1.47,3.14l-1.75.98c-.07.03-.09.09-.04.2l8.18,17.22,2.07-.87c.44,1.01.99,2.15,1.45,3.19-1.43.69-3.5,1.65-5.04,2.39-1.91.92-3.98,1.97-5.63,2.77-.5-1.03-1.05-2.16-1.49-3.17l2.29-1.24c.07-.04.09-.09.04-.2l-3.35-6.93c-.04-.07-.11-.13-.18-.09l-7.45,3.69,3.38,7.19,2.36-1c.5,1.03,1.03,2.13,1.49,3.17-1.47.71-3.58,1.68-5.37,2.55-1.61.78-3.61,1.79-5.16,2.53-.5-1.03-.99-2.14-1.49-3.17l1.82-1.02h0Z"/>
      <path class="cls-2" d="m294.68,329.36c1.01-.76,1.77-1.58,1.79-3.38.02-2.35-1.38-5.03-3.41-7.73-2.01-2.67-4.32-4.6-6.23-5.51-1.57-.81-3.11-.62-4.32.28-1.34,1-1.88,2.18-1.95,3.65-.06,1.88.95,4.73,3.28,7.83,2.49,3.32,4.54,5.1,6.77,5.62,1.71.45,3.02.02,4.03-.74l.03-.02h0Zm1.33,3.33c-2.87,2.15-6.28,3.04-9.08,2.64-3.45-.52-6.36-2.36-8.97-5.85-3.2-4.27-3.65-9.34-2.2-12.97,1.07-2.79,2.72-4.79,5.23-6.67,2.09-1.56,4.37-2.46,6.87-2.66,3.71-.29,7.88,1.88,10.74,5.69,2.37,3.16,3.81,7.38,3.15,11.19-.62,3.37-2.55,6.24-5.71,8.62l-.03.02h0Z"/>
      <path class="cls-2" d="m311.25,314.74c.05-.06.05-.17,0-.23l-13.94-13.13-1.65,1.64c-.86-.81-1.75-1.65-2.52-2.43,1.03-1.1,2.49-2.64,3.69-3.91.87-.92,5.87-6.23,6.51-6.91,1.14-1.22,2.09-2.28,2.74-2.96,1.86,1.53,3.72,3.12,5.53,4.71-.72.94-1.58,2.1-2.41,3.16l-2.7-1.65c-.32-.19-.61-.24-1.06.12-.45.36-1.38,1.11-3.11,2.95-.06.06-.2.21-.28.3l5.6,5.28c.84-.95,1.62-1.78,2.37-2.63.17-.18.13-.55-.2-.92l-.93-1.21c.87-.98,1.82-1.93,2.66-2.76.92.92,1.99,1.93,3.05,2.94,1.04,1.04,2.11,2.04,2.88,2.77-.78.89-1.64,1.92-2.54,2.87l-1.3-1c-.5-.36-.82-.38-1.07-.12-.81.8-1.62,1.61-2.43,2.47l5.25,4.94c.56.53.85.41,2.11-.93,1.12-1.19,1.7-2.04,2-2.54.22-.35.18-.67,0-1.06l-1.56-3.1c1.1-.87,2.22-1.71,3.27-2.4,1.38,1.98,2.8,3.98,4.19,6.01-1.46,1.48-5.31,5.58-9.2,9.7-1.28,1.36-2.68,2.85-3.83,4.06-.8-.75-1.66-1.62-2.46-2.38l1.36-1.63h0Z"/>
      <path class="cls-2" d="m329.02,294.83c.03-.12.02-.18-.05-.23l-15.99-10.53-1.37,1.92c-.95-.63-1.97-1.3-2.87-1.94,1.26-1.9,3.01-4.55,4.32-6.52,5.41-.13,14.75-.07,21.2,0l.11-.17c-3.93-2.55-7.91-5.18-11.86-7.7l-1.68,2.4c-.92-.61-2.01-1.33-2.86-1.94.88-1.32,1.93-2.92,2.92-4.42.79-1.19,1.7-2.64,2.37-3.66.92.61,1.94,1.28,2.84,1.98l-.89,1.56c-.05.07-.03.12.1.21l18.47,12.47c-.11.9-.95,2.84-2.07,4.54-4.17.47-11.64,1.05-20.03,1.11l-.16.24c3.44,2.33,6.7,4.48,10.05,6.74l1.76-2.44c.92.61,1.95,1.34,2.88,2-.94,1.42-2.17,3.21-3.25,4.84-.72,1.09-1.45,2.26-2.08,3.22-.95-.63-1.97-1.3-2.9-1.97l1.04-1.71h0Z"/>
      <path class="cls-2" d="m327.33,260.74c-1-.47-2.14-1-3.13-1.47.72-1.55,1.85-3.86,2.65-5.56.86-1.84,1.81-3.96,2.52-5.48,1,.47,2.14,1,3.12,1.51l-.96,2.34c-.03.08.04.11.15.16l17.21,8.2,1.27-2.42c1.03.48,2.14,1,3.15,1.52-.71,1.51-1.77,3.67-2.65,5.55-.78,1.66-1.73,3.78-2.5,5.44-1.03-.48-2.14-1-3.19-1.54l.93-2.17c.03-.07-.02-.14-.1-.18l-17.3-8.11-1.17,2.2h0Z"/>
      <path class="cls-2" d="m352.87,251.83c.04-.12,0-.26-.09-.41-2.19-3.56-4.07-6.48-6.22-9.9l-.27-.08c-3.57,1.38-7.95,2.73-11.51,3.94-.05.03-.15.08-.19.2l-.68,1.97c-1.09-.33-2.3-.7-3.3-1.05.44-1.44,1.07-3.51,1.6-5.26.72-2.38,1.47-4.96,2.08-6.94,1.05.32,2.26.68,3.3,1.05l-.5,2.19c2.58-.66,4.87-1.29,6.5-1.77l.08-.27c-1.47-2.03-2.84-3.68-4.19-5.11-.07-.07-.18-.1-.23.06l-.67,1.93c-1.09-.33-2.34-.71-3.34-1.06.52-1.71,1.17-3.82,1.79-5.88.37-1.21.74-2.58,1.08-3.68,1.05.32,2.26.69,3.3,1.05l-.39,1.84c2.08,3.11,4.38,6.74,6.07,9.56l.23.07c3.51-1.32,8.75-3.13,12.29-4.39l.65-1.85c1.05.32,2.22.68,3.3,1.05-.43,1.4-1.1,3.46-1.59,5.09-.71,2.34-1.5,5.08-2.16,7.22-1.09-.33-2.3-.7-3.3-1.05l.54-2.18c0-.17-.08-.28-.19-.23-2.43.71-5.03,1.41-6.7,2l-.07.24c1.5,2.07,3.08,4.13,4.52,5.85l.82-2.26c1.05.32,2.26.69,3.34,1.06-.51,1.68-1.23,3.89-1.88,6.03-.38,1.25-.79,2.74-1.16,3.95-1.09-.33-2.22-.68-3.3-1.05l.45-1.91h0Z"/>
      <path class="cls-2" d="m19.7,191.38c3.29,1.08,6.79,2.16,9.81,3.2.18.05.27,0,.27-.08l.1-6.25c-2.96.84-6.63,1.86-10.18,2.87v.27h0Zm16.91,11.35c0-.14-.09-.23-.22-.27-7.18-2.84-17.65-6.89-24.88-9.73-.08-.81-.09-2.86-.03-6.16,7.54-2.42,18.26-5.77,25.52-8.11l.17-2.27c1.2.02,2.5.04,3.75.1-.02,1.47-.06,3.66-.09,5.35-.04,2.32-.08,5.13-.12,7.18-1.29-.02-2.54-.04-3.79-.11l-.05-2.19c-.04-.14-.13-.23-.27-.18-.67.21-2.11.64-2.78.85-.18.08-.23.17-.23.31l-.05,8.3c.98.19,2.22.61,3.15.81l.17-2.45c1.2.02,2.5.04,3.75.1-.03,1.78-.06,4.06-.1,6.25-.02,1.52-.05,3.03-.07,4.37-1.29-.02-2.54-.04-3.75-.11l-.1-2.05h0Z"/>
      <path class="cls-2" d="m16.61,168.15c-1.23-.23-2.54-.47-3.72-.74.34-1.8.78-4.17,1.16-6.23.37-1.97.82-4.43,1.22-6.58,1.14.21,2.54.52,3.71.78l-.38,2.79s.02.14.11.16l19.77,3.77c.83.16.96.18,1.33-1.79.33-1.75.36-2.93.35-3.57-.02-.37-.24-.68-.69-.94l-4.24-2.33c.54-1.44,1.13-2.92,1.69-4.22,2.75,1.1,5.48,2.25,8.21,3.43-.4,2.15-1.54,8.06-2.67,14.12-.38,2.02-.75,4.26-1.08,6.06-1.23-.23-2.54-.47-3.72-.74l.33-2.25c.02-.13-.05-.23-.13-.25l-20.7-3.85-.54,2.4h0Z"/>
      <path class="cls-2" d="m45.62,137.06c.54.21,1.04-.07,1.28-.69.62-1.58.96-3.51.14-5.7-.99-2.6-4.1-4.69-6.79-5.75-4.32-1.71-7.19-1.84-10.18-.48-1.93.87-2.97,2.42-3.42,3.54-.21.54-.34.97-.33,1.31l19.29,7.77h0Zm-2.3,7.39c.03-.08-.03-.16-.12-.19l-19.49-7.75-1.03,2.37c-1.2-.48-2.35-.98-3.51-1.44,1.13-3.1,2.53-6.77,3.9-10.21,1.71-4.32,3.58-6.98,5.52-8.62,3.35-2.76,8.55-3.77,13.03-2,5.89,2.33,9.08,6.76,9.99,11.01.71,3.06-.21,6.97-1.38,9.91-.54,1.37-1.36,3.44-1.92,4.86-.74,1.87-1.58,3.98-2.23,5.64-1.12-.44-2.37-.94-3.48-1.38l.73-2.21h0Z"/>
      <path class="cls-2" d="m56.31,114.91c.05-.08.02-.2-.05-.25l-17.67-11.29-1.45,2.09c-1.09-.7-2.22-1.42-3.21-2.1.89-1.39,2.14-3.35,3.17-4.96.74-1.17,5.04-7.9,5.6-8.76.99-1.54,1.79-2.88,2.34-3.75,2.31,1.27,4.64,2.6,6.91,3.94-.58,1.16-1.27,2.57-1.96,3.89l-3.24-1.22c-.39-.14-.71-.13-1.12.34-.41.48-1.26,1.47-2.75,3.8-.05.07-.17.26-.24.38l7.11,4.54c.71-1.19,1.38-2.24,2.02-3.32.15-.23.02-.62-.4-.95l-1.25-1.11c.73-1.23,1.56-2.44,2.3-3.51,1.18.81,2.53,1.67,3.89,2.54,1.33.9,2.68,1.77,3.66,2.39-.66,1.11-1.38,2.4-2.15,3.61l-1.6-.81c-.61-.28-.96-.24-1.17.1-.71,1.03-1.42,2.06-2.12,3.15l6.65,4.25c.72.46,1,.27,2.08-1.43.96-1.5,1.41-2.54,1.64-3.14.16-.42.06-.76-.22-1.15l-2.31-3.01c1-1.16,2.05-2.29,3.03-3.25,1.89,1.85,3.82,3.72,5.73,5.62-1.26,1.89-4.58,7.08-7.92,12.31-1.11,1.73-2.31,3.61-3.29,5.15-1.02-.65-2.12-1.41-3.13-2.06l1.14-2.03h0Z"/>
      <path class="cls-2" d="m68.89,79.41c.15-.1.37-.33.77-.75,2.05-2.18,1.8-4.92-.35-6.93-2.38-2.23-5.51-2.41-7.12-.69-.49.52-.76.88-.88,1.13l7.59,7.24h0Zm-14.2.01c-.91-.92-1.82-1.77-2.74-2.63,2.07-2.28,4.61-5.04,6.99-7.58,1.77-1.89,2.69-2.86,4.94-4.36,3.27-2.25,7.52-1.69,9.6.26,2.77,2.59,3.07,6.18,1.85,9.38l.16.15c2.06-.82,4.64.14,9.05,1.57,1.12.38,1.69.42,2.06.09l1.66-1.38c.88.82,1.79,1.68,2.7,2.53-.55.65-1.62,1.79-2.23,2.44-.67.72-3.23,3.51-3.78,4.1-2.23-.5-7.47-2.47-9.61-3.26-1.41-.52-2.35-.31-3.02.41-.4.42-.61.71-.67.84l5.21,4.95,1.75-1.67c.91.86,1.76,1.71,2.67,2.57-1.19,1.27-2.84,3.03-4.37,4.65-1.28,1.37-2.72,2.9-3.85,4.1-.91-.85-1.79-1.68-2.7-2.53l1.43-1.72s0-.13-.04-.16l-15.36-14.47-1.71,1.7h0Z"/>
      <path class="cls-2" d="m95.28,68.09c.11.08.29.17.45.16.95.02,1.98-.4,2.88-1.06.86-.63,1.75-1.61,1.96-2.54.22-.83.07-1.71-.56-2.58-1.32-1.8-2.48-1.5-6.02-.51-4.64,1.3-9.05,1.16-11.64-2.37-1.64-2.23-1.96-4.87-1.48-7.16.53-2.6,2.52-5.39,5.94-7.89,2.05-1.5,4.17-2.61,5.32-2.85,1.8,2,3.58,4.13,5.3,6.18-.98,1-2.21,2.12-3.33,3.16l-3.28-2.74c-.11-.08-.2-.13-.33-.15-.7-.04-1.54.24-2.26.77-.86.63-1.39,1.35-1.65,2.2-.2.7-.21,1.76.53,2.76,1.32,1.8,2.34,1.61,6.53.31,4.96-1.53,8.53-1.05,11,2.34,1.66,2.27,2.28,5.08,1.56,7.71-.76,2.66-2.6,5.06-6.13,7.64-1.51,1.11-4.16,2.77-6.04,3.32-1.95-2.06-3.84-4.1-5.7-6.12.97-1.1,2.19-2.38,3.3-3.42l3.62,2.83h0Z"/>
      <path class="cls-2" d="m114.13,56.33c.08-.04.12-.16.09-.24l-8.84-18.91-2.28.92c-.51-1.09-1.1-2.34-1.57-3.45,1.62-.76,4-1.87,5.82-2.72,1.94-.91,4.16-1.95,5.78-2.7.51,1.09,1.1,2.34,1.57,3.45l-2.29,1.22s-.06.08.01.24l3.25,7.05c.04.08.1.1.14.08l8.3-3.83-3.46-7.4-2.52,1.03c-.51-1.09-1.06-2.36-1.57-3.45,1.7-.79,4.04-1.89,6.1-2.86,1.74-.81,3.88-1.81,5.46-2.55.49,1.05,1.11,2.39,1.57,3.46l-1.92,1.05c-.08.04-.1.1-.05.22l8.72,18.97,2.28-.92c.47,1.11,1.05,2.36,1.54,3.51-1.58.74-3.86,1.76-5.56,2.55-2.1.98-4.39,2.1-6.21,2.95-.53-1.13-1.12-2.38-1.59-3.49l2.53-1.33c.08-.04.1-.1.05-.22l-3.57-7.64c-.04-.08-.12-.14-.2-.11l-8.21,3.94,3.6,7.92,2.6-1.07c.53,1.13,1.1,2.34,1.59,3.5-1.62.76-3.94,1.79-5.92,2.72-1.78.83-3.98,1.91-5.68,2.71-.53-1.13-1.06-2.36-1.59-3.5l2.01-1.09h0Z"/>
      <path class="cls-2" d="m157.77,40.8c1.35-.3,2.48-.77,3.32-2.55,1.09-2.34.92-5.63.13-9.25-.78-3.58-2.21-6.55-3.69-8.33-1.2-1.52-2.82-2.03-4.43-1.68-1.79.39-2.87,1.31-3.6,2.75-.92,1.85-1.21,5.15-.3,9.29.97,4.45,2.2,7.15,4.18,8.68,1.5,1.23,3,1.4,4.35,1.11h.04Zm-.19,3.92c-3.84.84-7.64.16-10.24-1.51-3.19-2.09-5.25-5.25-6.27-9.91-1.25-5.71.62-10.96,3.72-13.92,2.33-2.29,4.89-3.53,8.25-4.27,2.79-.61,5.47-.46,8.05.48,3.82,1.4,6.99,5.46,8.11,10.56.92,4.23.43,9.08-1.96,12.58-2.16,3.07-5.38,5.06-9.61,5.98h-.04Z"/>
      <path class="cls-2" d="m184.54,36.79c.09,0,.13-.09.13-.18l-.34-20.79c-1.7.03-2.45.17-3.08.27-.62.14-.75.46-.83.86l-.78,4.34c-1.52-.11-3.26-.21-4.69-.33.13-3.04.26-6.07.39-9.07.94-.01,2.68,0,4.24-.02,1.16-.02,7.09-.11,8.75-.14,1.38-.02,7.14-.12,8.34-.13,1.74-.07,3.35-.1,4.24-.11.23,2.99.45,6.02.55,9-1.42.2-3.16.36-4.72.52l-.79-4.27c-.1-.49-.28-.71-.86-.83-.58-.12-1.12-.2-3.13-.17l.25,20.93,3.21.08c.02,1.25.04,2.54.02,3.84-1.87.03-4.6.03-6.92.07-2.14.04-4.77.12-7,.16-.02-1.29-.04-2.59-.02-3.84l3.03-.18h0Z"/>
      <path class="cls-2" d="m225.05,40.67c.08.02.15-.05.17-.14l5.25-20.12c-1.64-.43-2.41-.49-3.04-.56-.64-.03-.84.24-1.03.61l-1.91,3.97c-1.44-.51-3.08-1.08-4.43-1.57.94-2.89,1.88-5.78,2.8-8.63.91.24,2.58.72,4.09,1.11,1.12.29,6.86,1.79,8.46,2.21,1.34.35,6.91,1.8,8.07,2.11,1.7.4,3.25.8,4.11,1.03-.58,2.94-1.17,5.92-1.89,8.82-1.43-.19-3.14-.5-4.69-.76l.39-4.33c.04-.5-.08-.76-.61-1.03-.53-.28-1.02-.5-2.96-1l-5.37,20.23,3.07.94c-.32,1.21-.64,2.46-1.01,3.7-1.81-.47-4.44-1.2-6.68-1.79-2.07-.54-4.63-1.16-6.79-1.72.33-1.25.65-2.5,1.01-3.7l2.97.64h0Z"/>
      <path class="cls-2" d="m257.74,53.12c1.24.61,2.42.94,4.19.08,2.31-1.15,4.23-3.83,5.87-7.16,1.62-3.28,2.36-6.5,2.31-8.81.01-1.93-.94-3.35-2.42-4.08-1.64-.81-3.06-.76-4.53-.1-1.87.87-4.15,3.28-6.03,7.08-2.01,4.08-2.74,6.96-2.14,9.39.41,1.89,1.47,2.96,2.71,3.58l.04.02h0Zm-2.6,2.95c-3.52-1.74-6.07-4.64-7.06-7.56-1.2-3.63-.84-7.38,1.27-11.66,2.59-5.24,7.32-8.18,11.59-8.56,3.25-.34,6.03.29,9.11,1.81,2.56,1.26,4.57,3.05,6,5.4,2.11,3.48,2.06,8.63-.25,13.31-1.91,3.88-5.33,7.37-9.37,8.61-3.61,1.06-7.36.6-11.24-1.32l-.04-.02h0Z"/>
      <path class="cls-2" d="m316.21,68.29c-3.5,2.42-6.48,4.58-9.47,6.67-3.79,2.7-8.14,5.57-12.18,8.29-.6-.39-2.48-1.97-4.9-4.01,2.15-5.25,3.86-9.29,6.59-15.16l-.17-.14c-4.96,3.11-9.96,6.14-14.18,8.65-.71-.48-2.92-2.35-4.87-3.99,2.35-4.73,4.41-8.77,6.71-13.08,1.69-3.18,3.49-6.57,5.36-9.9.09-.1.05-.19-.05-.28l-1.61-1.48c.81-.96,1.67-1.98,2.48-2.87,1.23,1.04,2.93,2.47,4.3,3.62,2.05,1.73,4.37,3.68,6.21,5.23-.78.92-1.7,1.95-2.48,2.87l-2.51-1.94c-1.32,1.92-3.01,4.47-4.3,6.41-1.79,2.81-3.55,5.53-5.43,8.38l.27.23c3.05-2.1,13.56-9.52,16.61-11.68.66.39,3.42,2.65,4.52,3.63-1.72,3.57-6.82,13.92-9.02,18.19l.31.26c2.33-2,4.63-3.97,6.22-5.38,1.73-1.57,4.68-4.17,6.88-6.22.12-.07.14-.17.04-.26l-2.16-1.94c.81-.96,1.7-2.01,2.48-2.87,1.64,1.38,3.54,2.93,5.35,4.45,1.02.86,2.25,1.83,3.2,2.64-.78.92-1.7,2.01-2.51,2.91l-1.69-1.25h0Z"/>
      <path class="cls-2" d="m306.99,90.17c.11.08.18.09.25.04l16.9-12.41-1.46-2.14c1.01-.74,2.09-1.53,3.09-2.2,1.48,2.02,3.53,4.83,5.06,6.92-1.92,5.61-5.55,15.17-8.08,21.77l.13.18c4.12-3.06,8.33-6.15,12.42-9.25l-1.82-2.65c.97-.71,2.13-1.55,3.09-2.2,1.03,1.4,2.26,3.1,3.42,4.68.92,1.26,2.06,2.75,2.85,3.83-.97.71-2.05,1.5-3.11,2.17l-1.27-1.51c-.05-.07-.11-.08-.26.02l-19.84,14.22c-.89-.46-2.55-2.06-3.87-3.86,1.11-4.46,3.36-12.35,6.49-20.99l-.19-.25c-3.7,2.65-7.16,5.18-10.75,7.75l1.84,2.75c-.97.71-2.12,1.49-3.15,2.19-1.11-1.51-2.46-3.45-3.73-5.18-.84-1.15-1.77-2.35-2.51-3.36,1.01-.74,2.09-1.53,3.12-2.23l1.36,1.71h0Z"/>
      <path class="cls-2" d="m350.09,119.32c1.17-.44,2.42-.91,3.57-1.29.58,1.54,1.4,3.72,2.07,5.51.47,1.25,3.35,8.8,3.71,9.76.64,1.71,1.23,3.16,1.59,4.12-2.51,1.18-5.02,2.36-7.61,3.48-.62-1.15-1.34-2.55-2.04-3.9l3.29-2.14c.35-.23.53-.48.4-1.1-.15-.66-.45-2.07-1.39-4.58-.05-.12-.09-.25-.17-.32l-9,3.33c.52,1.38.99,2.63,1.51,3.91.28.75.58.78,1.15.66l1.81-.39c.5,1.34.95,2.65,1.39,3.96-1.43.49-2.99,1.03-4.5,1.6-1.55.58-3.07,1.1-4.32,1.57-.51-1.24-1.04-2.52-1.56-3.9l1.86-.89c.55-.3.68-.59.42-1.3-.39-1.29-.82-2.55-1.32-3.89l-7.2,2.66,1.57,4.56c-1.17.44-2.42.91-3.62,1.27-.85-2.26-1.98-5.41-2.97-8.04-.74-1.96-1.56-4.03-2.21-5.75,1.17-.44,2.42-.91,3.57-1.29l.88,2.1c.03.08.14.14.23.1l19.67-7.39-.81-2.41h0Z"/>
      <path class="cls-2" d="m341.94,152.29c.56,2.25-.7,3.99-2.61,4.47-2.25.56-4.07-.64-4.63-2.89-.45-1.77.52-3.99,2.68-4.54,1.86-.47,3.96.57,4.55,2.91v.04h.01Z"/>
      <path class="cls-2" d="m350.33,161.84c6.3-.65,10.81,1.76,13.73,4.83,2.7,2.73,4.27,6.61,4.67,10.51.28,2.75.23,4.82-.06,5.93-2.99.62-5.98,1.15-8.99,1.64-.42-1.48-.76-3.06-1.1-4.64l4.51-1.49c.22-.07.43-.18.5-.37.31-.48.46-1.21.37-2.1-.15-1.42-.84-2.96-2.26-4.07-2.24-1.74-5.32-2.5-9.05-2.12-3.82.39-6.22,1.45-7.64,3.38-1.11,1.46-1.47,3.61-1.29,5.38.2,2,1.23,5.39,1.95,6.8-1.3.45-2.87.88-4.09,1.18-1.36-2.73-2.66-6.73-2.9-8.99-.35-3.46.05-7,1.65-9.77,1.75-3.01,5.3-5.61,9.96-6.09h.04Z"/>
      <path class="cls-2" d="m346.4,197.41c-.11,2.32-1.82,3.63-3.78,3.54-2.32-.11-3.71-1.78-3.61-4.09.08-1.83,1.64-3.68,3.87-3.58,1.92.09,3.63,1.68,3.52,4.09v.04h0Z"/>
      <path class="cls-2" d="m301.55,196.43s0,0,0,0c.02,0,.05-.03.07-.03.13-.08.26-.16.39-.23.72-.5,1.64-1.46,1.64-1.46.07-.08,6.94-7.81,6.94-21.33,0-3.92-.38-6.97-1.21-9.97-2.57,9.27-9,24.25-25,35.7-1.65.95-8.44,2.64-8.44,2.64,0,0,4.88-6.08,5.23-6.52.12-.12,12.26-12.11,12.26-37.72,0-12.95-3.01-23.03-5.88-29.78.16,3.81.28,8.08.28,11.96,0,24.27-9.83,35.65-19.03,44.42-1.11,1.1-7.71,4.54-7.71,4.54l3.92-7.82c.08-.12,8.22-11.91,8.22-33.74,0-30.85-16.89-51.27-30.28-61.18,6.32,12.56,11.86,29.34,11.86,44.01,0,23.59-11.34,33-23.34,42.97-12.81,10.63-27.33,22.69-31.65,55.57h-.01l-.39,2.61-2.88-1.38c-.83-.42-19.08-9.7-19.08-27,0-6.02,2.17-9.94,2.27-10.1l1.96-3.46,1.22,3.79c.56,1.74.83,1.79,1.96,1.99.31.05.71.16,1.1.26.51-4.66,2.19-8.51,3.64-11.66,1.02-2.2,1.89-4.1,1.89-5.41,0-1.93-1.01-4.54-1.4-5.39l-.54-1.18.97-.86c2.66-2.36,3.79-2.36,4.16-2.36h1.17l.44,1.09c.76,1.86,2.31,3.06,3.68,3.8-.33-2.18-.69-5.25-.69-8.53,0-5.4,3.01-10.03,5.47-10.03h.57l.46.33c1.34.97,3.08,1.44,4.62,1.69-1.7-2.69-3.79-6.56-3.79-9.27,0-2.54.79-4.8.82-4.9l.5-1.44,1.49.31c4.21.86,6.23-1.34,7.15-2.89-3.33-1.84-10.33-6.97-10.33-17.83,0-6.57,6.43-12.99,9.78-15.88-.62-.2-1.39-.37-2.51-.37-4.92,0-7.61,8-7.64,8.08l-3.33-1.06c.11-.34,2.18-6.68,6.76-9.34.37-1.05.76-2.04,1.16-2.95-4.5,2.54-11.02,5.4-17.83,5.4-4.18,0-6.78-.39-9.07-.73-2-.3-3.89-.59-6.65-.59-2.6,0-3.88.67-5.01,1.25-.86.45-1.75.91-2.91.91-3.68,0-5.07,1.36-5.99,2.25-.59.57-1.26,1.23-2.29,1.23-2.04,0-3.6.59-4.76,1.8-1.15,1.19-1.73,2.79-2.04,4.2,1.22-.46,2.67-.85,4.64-.85,1.68,0,3.03.42,4.02,1.26.92.77,1.44,1.87,1.44,3.01,0,3.82-3.68,5.85-6.97,6.75.9,1.35,2.33,2.91,4.38,2.91,1.53,0,3.11-.78,4.93-1.68,2.4-1.18,5.12-2.52,8.63-2.52,6.63,0,12.31,6.77,12.31,12.3,0,4.02-4.39,9.68-6.85,12.55.89.45,3.58,1.8,3.58,1.8l-1.13,1.65c-.17.25-4.31,6.14-11.99,6.14-2.25,0-4.12-.23-5.66-.48.64,1.49,1.34,3.3,1.83,5.27l.54,2.17h-2.24c-3.73,0-10.21,1.49-13.48,2.3.82,1.74,2.57,5.48,2.57,5.48l-1.47.78c-.3.16-30.14,16.26-30.14,45.62,0,18.26,11.12,31.56,17.69,37.84-1.29-4.36-2.7-10.43-2.7-16.48,0-12.3,5.2-20.62,10.23-28.68,4.61-7.39,8.97-14.36,8.97-24v-4.61l3.05,3.45c1.67,1.89,6.08,9.35,6.08,14.95,0,2.24-.83,5.4-1.79,9.06-1.24,4.72-2.65,10.06-2.65,14.7,0,13.66,9,23.97,16.24,32.26,2.81,3.22,5.29,6.13,7.01,8.91,4.78-13.31,14.17-21.49,22.59-28.74,9.98-8.59,18.59-16,18.59-29.91,0-11.19,7.72-20.2,14.94-24.89l3.82-2.48-1.18,4.4c-.57,2.1-.9,7.58-.9,11.67,0,5.26,1.18,11.38,2.22,16.77.8,4.16,1.5,7.75,1.5,10.23,0,3.11-.11,5.82-.2,7.7,3.3-2.07,6.65-3.99,9.93-5.86,8.26-4.72,16.07-9.18,21.5-15.05.49-.51,4.14-3.65,4.14-3.65,0,0-.94,4.35-1.23,5.48-3.72,9.42-9.23,16.32-14.1,22.41-5.65,7.07-10.54,13.18-10.54,20.97,0,.65.04,1.32.09,2,7.41-11.27,12-15.27,16.08-18.77,3.15-2.7,6.12-5.26,10.13-11.07,3.54-5.14,5.65-10.24,7.5-14.74,2.82-6.84,5.32-12.88,11.68-16.7h0Zm-182.19,22.84c0-14.26,6.28-25.44,13.28-33.47h0s.5-.75.5-1.9c0-4.73-2.89-7.81-6.89-12.06-6.86-7.31-16.27-17.31-16.27-42.42,0-10.66,3.41-21.4,6.26-28.58-8.83,7.03-22.56,21.06-22.56,40.38,0,7.56,2.67,11.42,2.7,11.46l.59.83-.14.99c0,.06-.88,6.46-.88,10.1,0,10.95,7.24,29.31,7.31,29.49l3.23,8.14-7.06-5.17c-18.17-13.29-22.63-39.47-23.68-53.86-1.96,5.17-3.87,12.63-3.87,22.31,0,32.39,19.78,42.72,20.62,43.14,0,0,3.02,2,7.56,4.02,0,0-5.32,1.13-8.89.75-.12,0-5.57-.55-12.05-3.96l1.04,4.05c.44,1.71,2.19,4.33,4.05,7.11,3.48,5.21,7.82,11.7,7.82,18.16,0,8.17,10.66,19.23,20.84,24.68-1.29-13.06-7.24-19.45-9.92-21.63-.7-1.14-3.88-3.73-3.88-3.73,0,0,3.55.06,5.25.55,8.65,2.22,13.76,7.45,18.7,12.51l5.65,5.45c3.22,2.76,5.79,4.19,8.77,5.84,2.12,1.17,4.46,2.52,7.2,4.4-.61-1.09-1.37-2.43-1.72-3.08-2.95-2.17-23.57-18.3-23.57-44.51h0Zm204.51-16.32c-7.14,1.44-8.6,5.87-11.01,13.2-1.37,4.14-2.91,8.85-5.87,14.02-3.16,5.52-6.48,9.79-9.99,14.32-4.32,5.57-8.79,11.33-13.63,20.2-1.49,1.88-4.73,6.88-4.73,6.88,0,0,.7-5.3,1.54-8.26,2.09-6.47,5.84-13.06,9.46-19.44,5.15-9.07,10.48-18.45,10.48-26.79,0-4.42,1.02-8.11,2-11.67.56-2.05,1.01-4.03,1.31-6.01-5.44,3.27-7.65,8.57-10.33,15.06-1.92,4.66-4.1,9.94-7.86,15.39-4.26,6.18-7.4,8.88-10.73,11.73-4.53,3.89-9.21,7.91-17.83,21.76l-2.01,3.23-1.14-3.63c-.55-1.75-.96-4.86-.96-7.23,0-9.01,5.24-15.56,11.3-23.15,3.25-4.06,6.76-8.55,9.8-13.84-4.7,3.53-10.04,6.66-15.65,9.87-13.43,7.67-27.21,15.54-33.11,30.73-.02.05-.04.09-.06.14-.1.26-.21.51-.32.74-4.5,10.29-4.87,20.01-4.87,20.01,0,0-1.55-7.58,1.01-18.85.05-.47.17-1.02.4-1.68,4.06-11.8,12.4-19.62,21.66-25.91h-.02s.36-4.53.36-10.06c0-2.14-.66-5.58-1.43-9.56-1.07-5.55-2.29-11.84-2.29-17.43,0-2.18.12-5.36.38-8.16-4.07,3.48-10.07,10.17-10.07,19.47,0,15.51-9.62,23.79-19.81,32.56-9.34,8.03-18.99,16.34-22.86,31.2l-1.67,6.42-1.7-6.42c-.86-3.24-4.3-7.17-8.28-11.73-7.62-8.72-17.1-19.58-17.1-34.55,0-5.09,1.47-10.67,2.76-15.59.86-3.29,1.68-6.39,1.68-8.17,0-2.55-1.28-5.82-2.62-8.45-1.28,7.98-5.18,14.34-9.03,20.5-4.77,7.63-9.7,15.53-9.7,26.83,0,9.85,4.17,20.35,4.51,21.2l6.03,10.75c1.16,1.85,1.43,5.55,1.43,5.55,0,0-3.09-2.55-4.08-3.34-5.92-5.1-9.92-7.33-13.46-9.29-3.02-1.68-5.87-3.26-9.35-6.24l-5.87-5.66c-3.16-3.24-6.28-6.27-10.17-8.59,2.98,4.46,5.91,11.31,6.28,21.38l.1,2.77-2.54-1.11c-12.11-5.28-25.65-18.92-25.65-29.27,0-5.4-4.01-11.4-7.23-16.22-.94-1.41-1.81-2.72-2.55-3.95-.19.9-.33,1.85-.33,2.89,0,1.71.45,3.24.92,4.86.49,1.69,1.01,3.45,1.01,5.45,0,3.13-1.04,6.14-2.04,9.05-.93,2.71-1.81,5.28-1.81,7.71,0,3.88,1.86,11.9,1.88,11.97l-3.4.79c-.08-.34-1.97-8.49-1.97-12.77,0-3.02,1.02-5.98,2-8.85.95-2.77,1.85-5.38,1.85-7.92,0-1.5-.42-2.95-.87-4.47-.52-1.78-1.06-3.63-1.06-5.84,0-3.84,1.37-7.1,1.96-8.32l1.89-3.91c-7.08-3.81-15.3-11.05-19.19-24.77-.51.51-1.26,1.26-1.26,1.26l-3.35-3.77,7.56-7.57.9,4.66c2.65,13.69,9.62,20.99,15.97,24.89-6.13-7.27-12.57-19.39-12.57-38.48,0-21.73,8.78-33.3,9.16-33.78l4.79-6.18-.28,7.81s-.02.51-.02,1.33c0,6.35.85,33.95,14.56,51.13-2.02-6.48-4.15-14.8-4.15-21.23,0-3.19.56-7.95.81-9.89-1.03-1.83-3.08-6.35-3.08-13.49,0-31.31,31.06-49.13,32.39-49.87l7.48-4.2-4.02,7.58c-.1.18-9.47,18.06-9.47,34.69,0,23.11,8.26,31.9,14.9,38.97,3.48,3.7,6.76,7.26,7.85,12.13,5.08-4.71,9.84-7.76,12.14-9.12-.77-1.65-2.96-6.3-2.96-6.3l2-.54c.39-.11,8.37-2.27,14.09-2.82-1.05-3.11-2.42-5.66-2.44-5.69l-2.18-3.91,4.25,1.4s3.44,1.11,8.21,1.11c3.65,0,6.26-1.76,7.72-3.11-.89-.45-3.88-1.96-3.88-1.96l1.61-1.7c2.88-3.04,7.44-8.96,7.44-11.88,0-3.48-3.95-8.81-8.81-8.81-2.69,0-4.92,1.1-7.08,2.16-2.03,1-4.13,2.04-6.48,2.04-5.92,0-8.59-6.71-8.71-6.99l-.81-2.1,2.23-.27c1.66-.2,6.38-1.32,6.38-3.79,0-.05-.02-.19-.2-.34-.33-.28-.98-.43-1.77-.43-3.74,0-5.37,1.65-5.44,1.72l-2.85,2.96-.18-4.07s0-.15,0-.33c0-1.33.22-6.27,3.33-9.52,1.72-1.8,4.04-2.69,6.8-2.8.09-.08.35-.32.35-.32,1.16-1.13,3.33-3.25,8.43-3.25.29,0,.67-.19,1.3-.52,1.26-.65,3.17-1.64,6.62-1.64,3.02,0,5.04.3,7.17.62,2.27.34,4.63.7,8.55.7,10.76,0,21.48-8.42,21.59-8.5l5.59-3.48s-2.65,5.22-3.09,5.88c-.02.03-1.68,2.35-3.23,5.97h.02c4.97,0,6.77,2.4,6.96,2.68l.95,1.39-1.35,1c-2.87,2.13-10.33,8.92-10.33,14.67,0,11.65,9.37,15.25,9.77,15.4l1.56.58-.49,1.58c-.83,2.7-4.02,7.21-10.2,6.77-.14.68-.28,1.53-.28,2.43,0,2.38,3.17,7.54,5.17,10.24l1.96,2.64-3.29.14c-.23.01-5.22.11-9.09-2.01-.73.77-2.08,2.92-2.08,6.27,0,5.61,1.15,10.85,1.16,10.9l.59,2.65-2.65-.56c-.24-.05-5.23-1.17-7.91-5.26-.06.04-.12.1-.19.15.51,1.35,1.21,3.52,1.21,5.56s-1.03,4.3-2.21,6.87c-1.58,3.42-3.55,7.68-3.55,12.81v3.48l-2.79-2.08c-.78-.58-1.43-.7-2.19-.83-.93-.17-1.8-.39-2.58-.98-.38,1.41-.73,3.16-.73,5.33,0,11.29,9.42,18.96,14.3,22.17,5.03-32.63,19.87-44.95,33.01-55.85,12.02-9.98,21.52-17.86,21.52-39.09,0-17.34-8.24-38.03-15.89-49.91l-4.88-7.58,8.11,3.94c14.24,6.93,41.18,30.64,41.18,70.71,0,8.52-1.16,15.55-2.64,21.14,4.19-6.78,7.16-15.55,7.16-28.53,0-10.01-.86-22.73-.86-22.86l-.56-8.32,5.08,6.61c.49.64,12.04,15.98,12.04,42.39,0,10.33-1.82,18.58-4.14,24.93,10.4-13.75,11.69-27.77,11.7-27.96l.7-8.72,4.05,7.75c3.63,6.94,4.85,11.94,4.85,19.85,0,15.58-7.94,24.37-8.27,24.74,0,0-.21.62-.31,1.18,0,0,0,.02,0,.02-.03.18-.06.36-.06.5,0,0-.02,0-.03.01-.33,2.24-.9,4.4-1.48,6.5-.92,3.34-1.88,6.8-1.88,10.75,0,7.79-3.94,15.95-8.39,23.98,3.07-3.97,6.01-7.84,8.75-12.63,2.79-4.87,4.27-9.39,5.59-13.38,2.52-7.65,4.51-13.69,13.64-15.53l.69,3.42h0Zm-176.01-77.1c3.57-2.83,9.65-5.97,12.52-7,1.03-1.03-1.33-1.56-1.99-1.56-2.89,1.62-9.44,5.25-14.08,9.3.31.07,1.86.21,3.55-.74h0Zm24.88-15.35c1.92,1.67,3.87,2.84,3.87,2.84,0,0-.49,3.09,1.67,3.33,2.16.24,2.79-1.47,2.79-1.47l5.05-.2.2-1.47-3.92-.78s-1.13-1.13-2.01-1.42c-.88-.29-2.55-.19-2.55-.19-1.71-.73-1.86-3.24-1.86-3.24,0,0-.88,1.91-3.23,2.6h0Zm-12.92,63.01c-.41.7-.84,1.43-.95,2.42-.15,1.4-.08,2.49.21,3.34.38,1.13,1.49,1.67,2.89,1.39,1.84-.36,3.81-2.01,3.69-3.79l-1.94.13c.04.56-1.01,1.53-2.13,1.75-.14.03-.6.1-.67-.1-.19-.57-.23-1.42-.12-2.52.06-.57.34-1.04.69-1.64l.33-.57-1.7-.93-.3.52h0Zm11.02,13.33l.05.87.87.05c3.84.22,7.46-2.13,9.02-5.83l-1.79-.75c-1.1,2.62-3.5,4.32-6.13,4.56.21-2.11,1.27-4.79,3.11-5.55l-.74-1.79c-3.22,1.33-4.52,5.83-4.39,8.45h0Zm-.63-13.86c-.41,1.59-.39,2.66.06,3.16.93,1.04,3.9.23,3.93.22,2.04-.67,5.24-2.72,5.11-5.36l-1.94.1c.07,1.33-2.16,2.89-3.78,3.42-.31.1-1.17.21-1.71.21.03-.38.11-.89.2-1.26.58-2.25,2.83-4.9,4.17-6.49l-1.48-1.25c-1.45,1.71-3.87,4.57-4.56,7.25h0Zm18.4-10.58l.03.81-.02,1.41c-.12.58-.46,1.07-.85,1.64l-.43.66-.51.89c-.48.87-1.21,2.17-1.96,2.76-.1-.5-.16-1.01-.31-1.5l-.4-1.57-.06-.46c-.07-.53-.16-1.22-.16-1.84,0-.45.05-.87.19-1.14l-1.72-.91c-.62,1.18-.4,2.89-.24,4.13l.06.44.47,1.92c.23.75.48,1.53.43,2.11l-.09,1.04,1.04.02c2.17.04,3.48-2.33,4.45-4.07l.46-.81.39-.59c.44-.64.94-1.38,1.14-2.32,0,0,.06-1.92.06-1.92l-.03-.7h-1.94Zm-8.98-5.41s-1.43,1.93-1.43,1.93c-.71,1.33-1.17,2.51-1.14,3.97l.02,1.14.87-.19,2.26-.42c.09-.03.71-.21.71-.21l1.72-.68-1.15-1.56-1.07.37-.77.23s-.23.06-.46.11c.15-.59.38-1.18.73-1.84l1.17-1.56s1.9-1.67,1.9-1.67l-1.18-1.54-2.16,1.91h0Zm11.52,2.17l.43.92.9-.48c2.59-1.37,4.43-3.05,5.47-5l-1.71-.92c-.71,1.31-2.05,2.49-3.71,3.55-.17-.6-.29-1.23-.29-1.86,0-.91.22-1.75.81-2.27l-1.28-1.46c-2.01,1.77-1.73,5.14-.62,7.52h0Zm4.74-12.85c0,3.5.86,5.58,2.56,6.24l.31.12.32-.09c3.54-1.03,4.89-5.56,4.95-5.76l-1.86-.54s-1.05,3.3-3.32,4.24c-.44-.39-1-1.4-1-4.15v-.02c.04-.1.39-.33.67-.44l-.69-1.81c-.32.12-1.92.79-1.92,2.2h0Zm-7.53,3.48l.35.37.53-.06c3.53-.54,4.72-3.45,4.86-4.91l-1.93-.19c-.03.24-.39,2.03-2.28,2.82,0-.18,0-.34,0-.57,0-1.44.07-3.64.18-5.58l-1.94-.1c-.4,7.55-.08,7.89.24,8.22h0Zm14.99-14.33l.21.08c0,1.43-.33,3.77-1.89,4.81-1.76-1.36-2-4.12-2-5.1,0-.21,0-.33,0-.34l-1.94-.13c-.01.23-.35,5.64,3.41,7.65l.4.21.42-.17c2.26-.92,3.5-3.39,3.5-6.93,0-1.32-1.14-1.92-1.91-2.01l-.23,1.93h0Zm-2.06-12.24s.52,1.49.52,2.81c0,1.05-.58,2.6-.99,3.17-1.97-.86-3.01-2.38-3.01-2.4l-1.65,1.02c.06.1,1.49,2.4,4.46,3.43l.15.05h.17c1.86,0,2.83-3.91,2.83-5.26,0-1.66-.61-3.39-.63-3.46l-1.83.65h0Zm-5.21,4.86c.04.24.87,5.9-2.49,8.25l-.43.3-.49-.2c-2.5-1.02-2.63-4.13-2.7-5.63,0,0,0-.15,0-.29,0-.09,0-.16.02-.17-.05-.03-.43-.29-.43-.29l.69-1.81,1.41,1.08.25,1.39c.06,1.37.24,2.8,1.02,3.54,1.07-1.16,1.33-3.02,1.33-4.36,0-.88-.09-1.51-.09-1.53l1.92-.29h0Z"/>
      <path class="cls-2" d="m155.55,292.62s-.05.03-.08.05c-.17.11-.28.17-.34.17-.24,0-.5-.16-.78-.49-.27-.33-.41-.65-.41-.96,0-.12.1-.25.3-.4h.02l8.44-5.85,1.4.75c-.06.62-.11,1.24-.14,1.88-.03.63-.05,1.31-.05,2.04v12.64c0,1.11.09,1.82.26,2.13.17.31.49.5.96.58l1.02.15c.29.04.48.12.56.25.08.12.12.43.12.91,0,.53-.05.84-.15.94-.1.09-.31.14-.66.14-.18,0-.82-.08-1.91-.24-1.09-.16-2.08-.24-2.98-.24-.64,0-1.48.08-2.53.22-1.05.15-1.77.22-2.16.22s-.61-.05-.7-.15c-.09-.1-.14-.4-.14-.9,0-.45.04-.75.13-.89.09-.14.28-.23.57-.27l1.14-.2c.4-.07.69-.3.86-.7.17-.4.25-1.06.25-1.99v-11.89s-3.01,2.11-3.01,2.11h0Z"/>
      <path class="cls-2" d="m180.3,287.58c-.9,0-1.58.36-2.05,1.09-.47.73-.71,1.78-.71,3.16s.23,2.45.71,3.18c.47.73,1.15,1.1,2.05,1.1s1.57-.36,2.03-1.09c.46-.72.7-1.78.7-3.19s-.23-2.43-.7-3.16c-.47-.72-1.14-1.09-2.03-1.09h0Zm2.52,9.66c-.61.73-1.3,1.28-2.08,1.66-.78.38-1.63.56-2.55.56-1.79,0-3.26-.61-4.41-1.85-1.15-1.23-1.72-2.81-1.72-4.73,0-2.26.77-4.12,2.3-5.58,1.53-1.45,3.49-2.18,5.88-2.18,2.58,0,4.59.77,6.03,2.31,1.44,1.54,2.16,3.68,2.16,6.42,0,4.15-1.3,7.51-3.91,10.09-2.61,2.58-5.99,3.86-10.15,3.86h-.94c-.41,0-.66-.04-.75-.13-.1-.09-.14-.27-.14-.55,0-.51.34-.81,1.02-.91.81-.1,1.53-.29,2.16-.56,1.8-.75,3.3-1.83,4.5-3.25,1.2-1.42,2.07-3.13,2.62-5.15h0Z"/>
      <path class="cls-2" d="m199.77,287.58c-.9,0-1.58.36-2.05,1.09-.47.73-.7,1.78-.7,3.16s.24,2.45.7,3.18c.47.73,1.15,1.1,2.05,1.1s1.57-.36,2.03-1.09c.46-.72.7-1.78.7-3.19s-.23-2.43-.7-3.16c-.46-.72-1.14-1.09-2.03-1.09h0Zm2.52,9.66c-.61.73-1.3,1.28-2.08,1.66-.78.38-1.63.56-2.55.56-1.79,0-3.26-.61-4.41-1.85-1.15-1.23-1.72-2.81-1.72-4.73,0-2.26.77-4.12,2.3-5.58,1.53-1.45,3.49-2.18,5.88-2.18,2.58,0,4.59.77,6.03,2.31,1.44,1.54,2.16,3.68,2.16,6.42,0,4.15-1.3,7.51-3.91,10.09-2.61,2.58-5.99,3.86-10.15,3.86h-.94c-.41,0-.66-.04-.75-.13-.1-.09-.14-.27-.14-.55,0-.51.34-.81,1.01-.91.81-.1,1.53-.29,2.16-.56,1.8-.75,3.3-1.83,4.5-3.25,1.2-1.42,2.07-3.13,2.62-5.15h0Z"/>
      <path class="cls-2" d="m215.71,303.41h6.66c.8,0,1.41-.12,1.84-.34.43-.23.77-.61,1.02-1.14l.31-.71s.03-.05.06-.11c.12-.28.31-.42.56-.42.07,0,.16,0,.26-.02.1,0,.18-.01.24-.01.28,0,.5.03.65.09.15.06.23.15.23.27,0,.09-.1.39-.3.91-.75,1.97-1.32,3.91-1.71,5.82-.92-.11-1.77-.19-2.53-.25-.76-.06-1.46-.08-2.09-.08h-6.49c-.53,0-1.11,0-1.74.02-.63.02-1.31.04-2.05.07l-.02-1.87c3.91-3.32,6.57-5.92,7.98-7.8,1.42-1.87,2.13-3.62,2.13-5.24,0-1.07-.34-1.94-1.01-2.6-.68-.66-1.57-.99-2.68-.99-.82,0-1.53.17-2.13.5-.6.33-1.06.82-1.37,1.45-.16.33-.29.72-.39,1.18-.1.52-.42.77-.97.77-.38,0-.61-.05-.7-.15-.09-.1-.14-.33-.14-.7,0-2.06.72-3.73,2.15-5.02,1.43-1.28,3.33-1.92,5.68-1.92,2.2,0,3.93.56,5.2,1.68,1.28,1.12,1.91,2.65,1.91,4.58s-.76,3.74-2.29,5.51c-1.52,1.77-4.28,3.94-8.26,6.51h0Z"/>
    </g>
  </g>
</svg>