<?xml version="1.0" encoding="UTF-8"?>
<svg id="Layer_2" data-name="Layer 2" xmlns="http://www.w3.org/2000/svg" viewBox="0 0 389.1 696.06">
  <defs>
    <style>
      .cls-1, .cls-2 {
        stroke-width: .36px;
      }

      .cls-1, .cls-2, .cls-3, .cls-4, .cls-5, .cls-6, .cls-7, .cls-8 {
        stroke: #000;
        stroke-miterlimit: 2.61;
      }

      .cls-1, .cls-4, .cls-6, .cls-7 {
        fill: #008837;
        fill-rule: evenodd;
      }

      .cls-2, .cls-3, .cls-5, .cls-8 {
        fill: none;
      }

      .cls-3, .cls-4 {
        stroke-width: .5px;
      }

      .cls-5, .cls-7 {
        stroke-width: .45px;
      }

      .cls-6, .cls-8 {
        stroke-width: .4px;
      }

      .cls-9, .cls-10, .cls-11, .cls-12, .cls-13 {
        stroke-width: 0px;
      }

      .cls-10 {
        fill: #a80e0e;
      }

      .cls-11 {
        fill: #fff;
      }

      .cls-12 {
        fill: #fcc12b;
      }

      .cls-13 {
        fill: red;
      }
    </style>
  </defs>
  <g id="Layer_1-2" data-name="Layer 1">
    <path class="cls-11" d="m14.73,168.16c2.65,7.45,168.43,472.39,179.82,504.34,11.39-31.95,177.17-496.89,179.82-504.34H14.73Z"/>
    <path class="cls-12" d="m384.9,155.91H4.2s-4.2.71-4.2,5.25c0,2.77,1.8,7.2,1.8,7.2l187.35,525.45s1.05,2.25,5.4,2.25,5.4-2.25,5.4-2.25L387.3,168.36s1.8-4.43,1.8-7.2c0-4.54-4.2-5.25-4.2-5.25Zm-190.35,516.58c-6.74-18.91-67.56-189.49-116.64-327.13h233.28c-49.08,137.64-109.9,308.22-116.64,327.13Zm118.78-333.13H75.77C42.89,247.13,15.79,171.13,14.73,168.16h359.64c-1.06,2.97-28.16,78.97-61.04,171.2Z"/>
    <path class="cls-13" d="m109.35,433.54c12.87,36.1,25.62,71.86,37.2,104.33v-192.51h-37.2v88.18Z"/>
    <path class="cls-13" d="m279.75,433.54v-88.18h-37.2v192.51c11.58-32.48,24.33-68.23,37.2-104.33Z"/>
    <path class="cls-13" d="m194.55,672.49c2-5.62,8.78-24.62,18.6-52.16v-274.97h-37.2v274.97c9.82,27.54,16.6,46.55,18.6,52.16Z"/>
    <path class="cls-13" d="m99.33,336.06h-4.42l-1.74-4.39h-8.09l-1.65,4.39h-4.41l7.75-19.35h4.44l8.12,19.35Zm-7.46-7.65l-2.86-7.2-2.7,7.2h5.57Z"/>
    <path class="cls-13" d="m101.89,336.06v-19.18h4.11v15.92h10.18v3.26h-14.29Z"/>
    <path class="cls-13" d="m128.68,328.97v-3.26h8.83v7.71c-.86.79-2.1,1.48-3.73,2.08-1.63.6-3.27.9-4.94.9-2.12,0-3.97-.42-5.54-1.27-1.58-.85-2.76-2.07-3.55-3.65-.79-1.58-1.19-3.3-1.19-5.16,0-2.02.44-3.81,1.33-5.38.88-1.57,2.18-2.77,3.88-3.61,1.3-.64,2.91-.96,4.85-.96,2.51,0,4.48.5,5.89,1.51,1.41,1.01,2.32,2.4,2.73,4.17l-4.05.73c-.29-.96-.82-1.71-1.61-2.26-.79-.55-1.77-.83-2.95-.83-1.79,0-3.21.54-4.26,1.63-1.05,1.09-1.58,2.7-1.58,4.84,0,2.31.54,4.04,1.61,5.19,1.07,1.15,2.48,1.73,4.21,1.73.86,0,1.72-.16,2.58-.48.86-.32,1.61-.71,2.23-1.17v-2.46h-4.73Z"/>
    <path class="cls-13" d="m141.54,336.06v-19.35h15.02v3.26h-10.91v4.27h10.12v3.26h-10.12v5.29h11.31v3.26h-15.41Z"/>
    <path class="cls-13" d="m173.64,328.97l3.99,1.18c-.61,2.11-1.63,3.68-3.05,4.71s-3.22,1.54-5.4,1.54c-2.7,0-4.92-.88-6.66-2.63-1.74-1.76-2.61-4.16-2.61-7.21,0-3.22.87-5.73,2.62-7.51,1.75-1.78,4.05-2.68,6.9-2.68,2.49,0,4.51.7,6.06,2.11.92.83,1.62,2.02,2.08,3.58l-4.05.9c-.24-1.01-.75-1.8-1.51-2.39-.77-.58-1.7-.88-2.79-.88-1.51,0-2.74.52-3.68,1.55-.94,1.03-1.41,2.71-1.41,5.02,0,2.46.46,4.21,1.39,5.25.92,1.04,2.13,1.56,3.61,1.56,1.09,0,2.03-.33,2.82-.99.79-.66,1.35-1.7,1.69-3.12Z"/>
    <path class="cls-13" d="m181.15,336.06v-19.35h4.11v19.35h-4.11Z"/>
    <path class="cls-13" d="m189.39,336.06v-19.35h8.59c2.16,0,3.73.17,4.71.52.98.35,1.76.96,2.35,1.85.59.89.88,1.9.88,3.04,0,1.45-.44,2.65-1.32,3.59-.88.94-2.2,1.54-3.95,1.79.87.49,1.59,1.04,2.15,1.63.57.59,1.33,1.64,2.29,3.15l2.46,3.78h-4.83l-2.91-4.25c-1.06-1.5-1.78-2.44-2.17-2.83-.39-.39-.8-.66-1.24-.8-.44-.14-1.13-.22-2.07-.22h-.83v8.1h-4.11Zm4.11-11.19h3.01c1.95,0,3.17-.08,3.65-.24.48-.16.86-.43,1.14-.82.27-.39.41-.87.41-1.45,0-.65-.18-1.17-.54-1.57-.36-.4-.87-.65-1.53-.76-.33-.04-1.32-.07-2.97-.07h-3.17v4.89Z"/>
    <path class="cls-13" d="m228.29,336.06h-4.42l-1.74-4.39h-8.09l-1.65,4.39h-4.41l7.75-19.35h4.44l8.12,19.35Zm-7.46-7.65l-2.86-7.2-2.7,7.2h5.57Z"/>
    <path class="cls-13" d="m229.67,329.82l3.99-.39c.24,1.26.72,2.18,1.45,2.77.73.59,1.72.88,2.96.88,1.31,0,2.31-.26,2.97-.79.67-.53,1-1.14,1-1.85,0-.45-.14-.84-.42-1.16-.28-.32-.77-.59-1.46-.83-.48-.16-1.56-.44-3.26-.85-2.18-.52-3.71-1.16-4.59-1.92-1.24-1.07-1.85-2.37-1.85-3.9,0-.99.29-1.91.87-2.77s1.43-1.51,2.52-1.96c1.1-.45,2.43-.67,3.98-.67,2.54,0,4.45.53,5.73,1.59,1.28,1.06,1.95,2.48,2.02,4.26l-4.11.17c-.17-1-.55-1.72-1.12-2.16-.57-.44-1.42-.66-2.56-.66s-2.1.23-2.76.7c-.43.3-.64.7-.64,1.21,0,.46.2.85.6,1.18.51.42,1.76.85,3.74,1.3,1.98.45,3.44.92,4.39,1.4.95.48,1.69,1.13,2.22,1.97.54.83.8,1.86.8,3.08,0,1.11-.32,2.15-.97,3.11-.64.97-1.56,1.69-2.74,2.16-1.18.47-2.65.71-4.41.71-2.56,0-4.53-.56-5.9-1.68-1.37-1.12-2.19-2.75-2.46-4.9Z"/>
    <path class="cls-13" d="m270.91,328.97l3.99,1.18c-.61,2.11-1.63,3.68-3.05,4.71-1.42,1.02-3.22,1.54-5.4,1.54-2.7,0-4.92-.88-6.66-2.63-1.74-1.76-2.61-4.16-2.61-7.21,0-3.22.87-5.73,2.62-7.51,1.75-1.78,4.05-2.68,6.9-2.68,2.49,0,4.51.7,6.06,2.11.92.83,1.62,2.02,2.08,3.58l-4.05.9c-.24-1.01-.75-1.8-1.51-2.39-.77-.58-1.69-.88-2.79-.88-1.51,0-2.74.52-3.68,1.55-.94,1.03-1.41,2.71-1.41,5.02,0,2.46.46,4.21,1.39,5.25.92,1.04,2.13,1.56,3.61,1.56,1.09,0,2.03-.33,2.82-.99.79-.66,1.35-1.7,1.69-3.12Z"/>
    <path class="cls-13" d="m278.54,336.06v-3.71h3.88v3.71h-3.88Z"/>
    <path class="cls-13" d="m286.67,336.06v-19.35h13.95v3.26h-9.84v4.61h8.49v3.26h-8.49v8.21h-4.11Z"/>
    <path class="cls-9" d="m359.84,47.78v-2c-.4-4.79-4.83-13.84-18.81-13.84-7.37,0-11.94,3.72-15.28,6.44-1.55,1.26-3.15,2.56-4.07,2.56-5.34,0-7.6-6.04-7.69-6.29l-2.37-6.54-3.22,6.15c-.31.6-3.05,5.97-3.05,10.42,0,10.14,4.46,13.09,7.72,15.24.66.43,1.14.79,1.58,1.14-8.3,1.61-13.8,14.89-13.8,27.49,0,1.17-.44,2.19-.74,2.51-2.19-.27-5.95-5.15-8.05-9.58l-2.86-6.01-2.75,6.21c-.08.17-1.98,4.07-11.69.9-1.14-.86-3.69-5.33-3.69-10.97,0-2.24.4-4.65,1.46-7.09,1.57-3.77,8.08-3.27,10.22-3.1,0,0,.16,0,.28.02.42.32,1.21,1.19,1.77,1.99l5.35-2.88c-.16-.42-.45-1.74.03-2.22.82-.77,5-2.12,8.93-2.88l7.08-1.37-5.92-4.16c-.25-.18-6.2-4.44-3.7-10.5l2.99-7.27-7.12,3.33c-1.95.91-4.13.62-5.98.05,2.07-2.08,4.12-4.98,4.12-8.39v-2.77s-2.93-.28-3.02-.29c-1.06-.28-3.26-4.21-4.41-8.66l-.45-1.75-10.74-2.76-1.23,1.18c-2.11,2.02-6.57,5.22-9.58,5.22h-3.06v3.06c0,3.15.33,5.81.69,7.87-1.91-.4-4.23-1.25-6.27-3.29l-5.23-5.22v7.39c0,5.01-8.56,7.12-8.64,7.14l-6.91,1.59,5.88,3.94c2.9,1.94,5.85,4.79,6.07,5.86,0,.49-.76,2.2-1.55,3.44l-5.5,8.62,9.34-4.17c.53-.24,2.19-.85,3.47-.85,1.31.13,6.84,3.01,6.84,7.96,0,7.8-5.99,14.49-10.89,14.49-4.53,0-8.68-5.96-9.89-8.26l-1.89-3.57-2.94,2.79c-.06.06-6.07,5.67-14.98,5.67-6.16,0-10.66-7.6-10.66-11.56,0-5.01,5.11-7.74,7.74-7.74,2.49,0,5.26,1.55,6.12,2.15l3.48,2.42,1.22-4.05c1.44-4.84,4.97-11.53,7.87-11.53v-6.12c-3.06,0-6.51-6.38-7.88-10.69l-1.18-3.7-3.33,2.01c-.93.56-3.89,2.03-6.29,2.03-.8,0-1.57-.13-2.29-.31,2.03-2.8,3.78-5.79,3.78-7.88,0-2.85-.75-5.64-.78-5.75l-.59-2.16s-2.26-.09-2.33-.09c-1.35-.17-5.26-3.78-8.19-7.58L201.46,0h-1.51s-10.8,0-10.8,0h-1.51l-.92,1.19c-2.93,3.8-6.83,7.42-8.19,7.58l-2.24.09-.68,2.16c-.03.12-.78,2.9-.78,5.75,0,2.1,1.75,5.08,3.78,7.88-.72.18-1.49.31-2.29.31-2.4,0-5.35-1.47-6.29-2.03l-3.32-2.01-1.19,3.7c-1.37,4.31-4.83,10.69-7.88,10.69v6.12c2.9,0,6.43,6.7,7.86,11.53l1.21,4.06,3.49-2.42c.86-.6,3.63-2.15,6.12-2.15,2.63,0,7.74,2.73,7.74,7.74,0,3.96-4.5,11.56-10.66,11.56-8.91,0-14.92-5.62-14.98-5.67l-2.93-2.78-1.9,3.57c-1.21,2.3-5.36,8.26-9.89,8.26-4.9,0-10.89-6.69-10.89-14.49,0-4.95,5.53-7.83,6.9-7.97,1.22,0,2.88.62,3.41.86l9.33,4.17-5.5-8.62c-.79-1.24-1.54-2.95-1.54-3.52.21-.99,3.16-3.84,6.06-5.78l5.89-3.94-6.91-1.59c-.09-.02-8.64-2.13-8.64-7.14v-7.39l-5.23,5.23c-2.04,2.04-4.35,2.89-6.27,3.29.37-2.06.69-4.73.69-7.87v-3.06h-3.06c-3.01,0-7.47-3.2-9.58-5.22l-1.23-1.18-1.65.42-9.08,2.33-.45,1.76c-1.14,4.45-3.35,8.38-4.41,8.66l-2.76.28-.26,2.78c0,3.42,2.06,6.32,4.13,8.4-1.85.57-4.03.86-5.98-.06l-7.12-3.33,2.99,7.27c2.49,6.06-3.45,10.33-3.7,10.5l-5.9,4.15,7.07,1.38c3.93.76,8.11,2.1,8.93,2.88.48.48.19,1.8.03,2.22l5.35,2.88c.56-.8,1.35-1.67,1.77-1.99.12,0,.28-.02.28-.02,2.14-.16,8.65-.66,10.2,3.07,1.06,2.45,1.47,4.88,1.47,7.13,0,5.65-2.55,10.1-3.69,10.96-9.72,3.18-11.62-.74-11.69-.91l-2.69-6.11-2.92,5.92c-2.11,4.43-5.86,9.31-8.05,9.58-.29-.32-.74-1.35-.74-2.51,0-12.6-5.5-25.89-13.8-27.49.44-.36.93-.71,1.59-1.14,3.26-2.15,7.72-5.1,7.72-15.24,0-4.45-2.74-9.82-3.05-10.42l-3.22-6.17-2.38,6.55c-.09.26-2.35,6.29-7.69,6.29-.92,0-2.52-1.3-4.07-2.56-3.34-2.72-7.91-6.44-15.28-6.44-13.98,0-18.41,9.05-18.8,13.84v.12s0,1,0,1.87c-2.43,1.12-5.4,3.1-5.4,6.13,0,3.69,3.02,5.96,5.17,7.12v7.86h8.46l.92-1.28c.17-.24,1.7-2.47,1.7-5.83,0-.45.07-.79.15-1.1.21.13.48.3.48.3,1.8,1.22,4.03,2.74,6.66,2.74s4.19-1.4,5.4-2.42c.82-.69,1.27-.98,1.73-1.08.34.85.39,2.81.39,3.86,0,.14,0,.86,0,.86,0,3.4,1.9,5.79,3.9,7.3-5.65,1.83-9.75,7.14-9.75,13.4,0,3.76,1.47,7.3,4.13,9.96,2.47,2.47,5.69,3.89,9.14,4.09-1.76,2.95-2.02,4.55-2.02,5.53,0,9.2,7.74,12.62,12.62,12.62,3.38,0,4.91.93,4.93.94l.74.47.97.06h.32c.25.87.69,1.72,1.32,2.47,1.1,1.31,2.55,2.12,4.05,2.33-.27.48-.47.83-.47.83l.85,2.37-14.01,13.02,17.09,8.55.38-.21c.19,1.23.68,2.41,1.32,3.33.6.87,1.34,1.53,2.13,1.99l-.07.69v1.25h204.12v-1.97c.77-.46,1.48-1.11,2.07-1.95.66-.94,1.14-2.11,1.33-3.32l.36.2,17.09-8.55-14.01-13.03,1.22-3.39c1.19-.35,2.32-1.08,3.21-2.15.63-.76,1.07-1.6,1.32-2.48l.09.02h1.1l.83-.52s1.54-.94,4.92-.94c4.88,0,12.62-3.43,12.62-12.62,0-.97-.26-2.57-2.02-5.53,3.45-.2,6.67-1.62,9.14-4.09,2.66-2.66,4.13-6.2,4.13-9.96,0-6.26-4.1-11.57-9.76-13.4,2.01-1.51,3.91-3.9,3.91-7.3,0,0,0-.72,0-.86,0-1.05.05-3,.38-3.86.46.1.91.39,1.73,1.08,1.21,1.02,2.87,2.42,5.4,2.42s4.87-1.52,6.66-2.74c0,0,.27-.17.48-.3.08.31.15.66.15,1.1,0,3.36,1.52,5.59,1.7,5.83l.92,1.28h8.46v-7.86c2.16-1.16,5.18-3.43,5.18-7.12,0-3.03-2.97-5.01-5.4-6.13Zm-287.01,12.97s.17.02.34.03c0,0,0,.03.02.04-.12,0-.23-.07-.36-.07Zm243.09.07s0-.03.01-.04c.17-.02.34-.03.34-.03-.12,0-.24.06-.36.07Z"/>
    <path class="cls-10" d="m292.74,154.51l-.39-.11-.35-.2c-.44-.26-44.37-25.68-97.45-25.68s-97.01,25.42-97.45,25.68l-.35.2-.39.11c-.27.07-.54.12-.81.15v1.25h198v-1.25c-.27-.03-.54-.08-.81-.15Z"/>
    <path class="cls-12" d="m194.55,125.46c54.6,0,99,26.1,99,26.1,2.25.62,4.39-3.49,3.1-5.28-1.87-1.1-46.48-26.94-102.1-26.94s-100.23,25.84-102.1,26.94c-1.29,1.79.85,5.9,3.1,5.28,0,0,44.4-26.1,99-26.1Z"/>
    <path class="cls-12" d="m194.55,90.96c69.3,0,107.7,30,107.7,30,2.3.82,5.21-2.29,3.77-4.83-1.64-1.28-40.87-31.3-111.47-31.3s-109.83,30.02-111.47,31.3c-1.44,2.53,1.47,5.64,3.77,4.83,0,0,38.4-30,107.7-30Z"/>
    <path class="cls-12" d="m289.89,116.82c-15.64-8.65-48.38-22.79-95.34-22.79s-79.7,14.14-95.34,22.79l18.5,9.34-2.83,6.19c18.95-7.54,47.49-16.06,79.67-16.06s60.71,8.53,79.67,16.07l-2.83-6.19,18.5-9.34Zm-78.38-2.69h-33.92l-17.89-9.47,18.49-7.68h32.72l18.49,7.68-17.89,9.47Z"/>
    <path class="cls-12" d="m92.95,120.51c-2.72,1.72-4.15,2.81-4.22,2.87l-.39.31-.46.16c-.07.02-.13.03-.2.05l.41,1.14,4.87-4.53Z"/>
    <path class="cls-12" d="m356.77,49.86v-3.83s-.9-11.02-15.75-11.02c-10.57,0-14.4,9-19.35,9-7.65,0-10.58-8.33-10.58-8.33,0,0-2.7,5.18-2.7,9,0,13.05,7.87,11.25,10.35,16.65,0,2.03-2.48,2.48-2.48,2.48-6.75,0-12.37,12.6-12.37,24.75,0,2.25-1.12,5.62-3.6,5.62-5.62,0-11.02-11.38-11.02-11.38,0,0-2.48,7.11-15.81,2.61-2.67-1.13-8.27-11.7-3.78-22.1,2.7-6.48,12.67-4.9,13.99-4.9s3.6,3.26,3.6,3.26c0,0-1.39-3.4.72-5.51,2.11-2.11,10.52-3.72,10.52-3.72,0,0-8.28-5.68-4.79-14.18-6.03,2.82-13.01-2.01-13.01-2.01,0,0,6.8-4.14,6.8-9.1-4.54,0-7.33-10.96-7.33-10.96l-7.33-1.88s-6.3,6.08-11.7,6.08c0,6.75,1.58,11.25,1.58,11.25,0,0-7.09.79-12.37-4.5,0,7.65-11.02,10.12-11.02,10.12,0,0,7.42,4.95,7.42,8.32,0,2.03-2.03,5.18-2.03,5.18,0,0,2.48-1.12,4.73-1.12s9.9,3.82,9.9,11.02c0,9.45-7.2,17.55-13.95,17.55-7.42,0-12.6-9.9-12.6-9.9,0,0-6.75,6.52-17.1,6.52-7.87,0-13.73-9-13.73-14.62,0-6.97,6.75-10.8,10.8-10.8s7.87,2.7,7.87,2.7c0,0,4.05-13.73,10.8-13.73-6.75,0-10.8-12.83-10.8-12.83,0,0-4.05,2.48-7.87,2.48s-7.2-2.02-7.2-2.02c0,0,5.62-6.75,5.62-9.23s-.68-4.95-.68-4.95c-3.82,0-10.57-8.77-10.57-8.77h-10.8s-6.75,8.77-10.58,8.77c0,0-.67,2.48-.67,4.95s5.62,9.23,5.62,9.23c0,0-3.37,2.02-7.2,2.02s-7.87-2.48-7.87-2.48c0,0-4.05,12.83-10.8,12.83,6.75,0,10.8,13.73,10.8,13.73,0,0,3.83-2.7,7.87-2.7s10.8,3.83,10.8,10.8c0,5.62-5.85,14.62-13.73,14.62-10.35,0-17.1-6.52-17.1-6.52,0,0-5.17,9.9-12.6,9.9-6.75,0-13.95-8.1-13.95-17.55,0-7.2,7.65-11.02,9.9-11.02s4.73,1.12,4.73,1.12c0,0-2.03-3.15-2.03-5.18,0-3.37,7.43-8.32,7.43-8.32,0,0-11.02-2.48-11.02-10.12-5.29,5.29-12.37,4.5-12.37,4.5,0,0,1.57-4.5,1.57-11.25-5.4,0-11.7-6.08-11.7-6.08l-7.33,1.88s-2.79,10.96-7.33,10.96c0,4.97,6.8,9.1,6.8,9.1,0,0-6.99,4.83-13.01,2.01,3.49,8.5-4.79,14.18-4.79,14.18,0,0,8.41,1.62,10.52,3.72,2.1,2.11.72,5.51.72,5.51,0,0,2.28-3.26,3.6-3.26s11.28-1.58,13.99,4.9c4.5,10.39-1.1,20.97-3.78,22.1-13.33,4.5-15.81-2.61-15.81-2.61,0,0-5.39,11.38-11.02,11.38-2.48,0-3.6-3.37-3.6-5.62,0-12.15-5.62-24.75-12.37-24.75,0,0-2.48-.45-2.48-2.48,2.48-5.4,10.35-3.6,10.35-16.65,0-3.82-2.7-9-2.7-9,0,0-2.93,8.33-10.58,8.33-4.95,0-8.77-9-19.35-9-14.85,0-15.75,11.02-15.75,11.02v3.83s-5.4,1.8-5.4,4.05c0,3.37,5.17,5.17,5.17,5.17v6.75h3.83s1.12-1.57,1.12-4.05,1.12-4.73,2.7-4.73,4.72,3.6,7.65,3.6,4.05-3.6,7.42-3.6,3.15,5.18,3.15,7.87c0,4.27,4.73,6.08,4.73,6.08l.09.56c.12,0,.24-.02.36-.02,7.77,0,14.09,6.32,14.09,14.09,0,3.76-1.46,7.3-4.13,9.96-1.94,1.94-4.35,3.24-6.97,3.8-1.06,1.54-2.77,4.27-2.77,5.81,0,7.87,7.2,9.56,9.56,9.56,4.61,0,6.64,1.46,6.64,1.46h.23c.13-.56.33-1.1.62-1.61l.3-.53.48-.37c1.67-1.3,41.71-31.95,113.35-31.95s111.68,30.64,113.35,31.95l.48.37.3.53c.29.51.49,1.06.62,1.61h.23s2.03-1.46,6.64-1.46c2.36,0,9.56-1.69,9.56-9.56,0-1.55-1.71-4.27-2.77-5.81-2.62-.56-5.03-1.86-6.97-3.8-2.66-2.66-4.13-6.2-4.13-9.96,0-7.77,6.32-14.09,14.09-14.09.12,0,.24.02.36.02l.09-.56s4.73-1.8,4.73-6.08c0-2.7-.23-7.87,3.15-7.87s4.5,3.6,7.43,3.6,6.07-3.6,7.65-3.6,2.7,2.25,2.7,4.73,1.12,4.05,1.12,4.05h3.83v-6.75s5.17-1.8,5.17-5.17c0-2.25-5.4-4.05-5.4-4.05Zm-236.59,4.64c-5.22,0-9.47-4.25-9.47-9.47s4.25-9.47,9.47-9.47,9.47,4.25,9.47,9.47-4.25,9.47-9.47,9.47Zm74.36-5.4c-5.72,0-10.37-4.65-10.37-10.37s4.65-10.37,10.37-10.37,10.38,4.65,10.38,10.37-4.66,10.37-10.38,10.37Zm64.89-4.07c0-5.22,4.25-9.47,9.47-9.47s9.47,4.25,9.47,9.47-4.25,9.47-9.47,9.47-9.47-4.25-9.47-9.47Z"/>
    <circle class="cls-11" cx="63.15" cy="85.64" r="11.02"/>
    <path class="cls-11" d="m126.6,45.02c0,3.54-2.87,6.41-6.41,6.41s-6.41-2.87-6.41-6.41,2.87-6.41,6.41-6.41,6.41,2.87,6.41,6.41Z"/>
    <path class="cls-11" d="m262.5,45.02c0,3.54,2.87,6.41,6.41,6.41s6.41-2.87,6.41-6.41-2.87-6.41-6.41-6.41-6.41,2.87-6.41,6.41Z"/>
    <circle class="cls-11" cx="194.55" cy="38.72" r="7.31"/>
    <polygon class="cls-13" points="98.25 119.76 76.95 139.56 88.65 145.41 111.3 132.81 113.7 127.56 98.25 119.76"/>
    <polygon class="cls-13" points="290.85 119.76 312.15 139.56 300.45 145.41 277.8 132.81 275.4 127.56 290.85 119.76"/>
    <polygon class="cls-13" points="210.75 111.06 222.22 104.99 210.3 100.04 178.8 100.04 166.87 104.99 178.35 111.06 210.75 111.06"/>
    <g>
      <path class="cls-4" d="m240,174.44c-2.27-4.08.7,9.35,4.68,15.36,3.98,6.01,8.91,9.95,12.13,10.03,1.08-3.16-.7-9.35-4.67-15.36-3.98-6.01-9.71-5.67-12.13-10.03h0Z"/>
      <path class="cls-3" d="m256.83,199.81s-5.28-5.91-7.79-10.02c-2.51-4.11-4.19-6.85-4.19-6.85"/>
      <path class="cls-4" d="m258.38,189.95c-.53-4.63-2.94,8.91-1.57,15.97,1.37,7.06,4.42,12.56,7.37,13.85,2.21-2.51,2.94-8.91,1.57-15.97-1.37-7.06-6.8-8.9-7.37-13.85h0Z"/>
      <path class="cls-3" d="m264.22,219.77s-2.62-7.46-3.37-12.21c-.75-4.75-1.25-7.91-1.25-7.91"/>
      <path class="cls-4" d="m250.03,196.63c2.55,3.32-.04,8.65,3.41,14.15,3.46,5.5,8.01,9.06,11.19,9.08,1.32-2.95.04-8.65-3.41-14.15-3.46-5.5-13.74-12.4-11.19-9.08h0Z"/>
      <path class="cls-3" d="m264.63,219.86s-2.25-6.28-4.4-9.71c-2.15-3.43-5.67-8.04-5.67-8.04"/>
      <path class="cls-4" d="m269.41,201.95c.8-4.59-5.35,7.73-6.04,14.88-.69,7.16.67,13.29,3.14,15.35,2.84-1.79,5.35-7.73,6.04-14.88.69-7.16-4-10.44-3.14-15.35h0Z"/>
      <path class="cls-3" d="m266.55,232.18s-.39-7.89.24-12.65c.63-4.76,1.05-7.94,1.05-7.94"/>
      <path class="cls-4" d="m253.88,212.72c2.31,3.49-.65,8.63,2.41,14.35,3.06,5.73,7.35,9.6,10.52,9.83,1.52-2.85.65-8.63-2.4-14.35-3.06-5.73-12.83-13.32-10.52-9.83h0Z"/>
      <path class="cls-3" d="m266.81,236.9s-1.8-6.42-3.71-9.99c-1.91-3.57-5.09-8.41-5.09-8.41"/>
      <path class="cls-4" d="m274.94,219.61c1.79-4.31-6.91,6.4-9.14,13.23-2.23,6.84-2.24,13.12-.29,15.66,3.16-1.14,6.91-6.4,9.14-13.24,2.23-6.84-1.63-11.05.28-15.66h0Z"/>
      <path class="cls-3" d="m265.54,248.51s1.34-7.79,2.99-12.3c1.65-4.51,2.76-7.52,2.76-7.52"/>
      <path class="cls-4" d="m260.91,232.2c.69,4.12-4.11,7.63-3.64,14.09.47,6.46,2.82,11.72,5.62,13.21,2.55-2,4.11-7.64,3.65-14.1-.47-6.46-6.32-17.32-5.62-13.2h0Z"/>
      <path class="cls-3" d="m262.89,259.5s.97-6.6.68-10.63c-.29-4.03-1.23-9.73-1.23-9.73"/>
      <path class="cls-4" d="m272.24,243.97c2.52-3.93-7.93,5.1-11.33,11.45-3.4,6.35-4.52,12.53-3.03,15.37,3.31-.58,7.93-5.1,11.33-11.45,3.4-6.35.34-11.16,3.03-15.37h0Z"/>
      <path class="cls-3" d="m257.91,270.81s2.69-7.43,5.11-11.6c2.42-4.16,4.04-6.93,4.04-6.93"/>
      <path class="cls-4" d="m257.53,250.17c-.2,4.17-5.64,6.6-6.56,13.02-.92,6.41.26,12.05,2.69,14.08,2.92-1.42,5.64-6.6,6.56-13.02.92-6.41-2.49-18.26-2.69-14.08h0Z"/>
      <path class="cls-3" d="m253.65,277.27s2.35-6.25,2.92-10.24c.57-4,.87-9.77.87-9.77"/>
      <path class="cls-4" d="m268.95,266.32c3.72-2.85-9.21,2.13-14.58,6.95-5.37,4.83-8.54,10.26-8.12,13.43,3.31.57,9.21-2.13,14.58-6.95,5.37-4.83,4.15-10.39,8.12-13.43h0Z"/>
      <path class="cls-3" d="m246.26,286.73s5.08-6.09,8.78-9.18c3.71-3.1,6.17-5.16,6.17-5.16"/>
      <path class="cls-4" d="m250.1,261.87c-.51,4.15-6.12,6.17-7.52,12.5-1.39,6.33-.64,12.04,1.62,14.24,3.02-1.2,6.12-6.17,7.52-12.5,1.39-6.33-1.12-18.39-1.63-14.24h0Z"/>
      <path class="cls-3" d="m244.21,288.61s2.81-6.06,3.68-10c.87-3.94,1.6-9.68,1.6-9.68"/>
      <path class="cls-4" d="m261.23,281.41c4.26-1.97-9.45.07-15.77,3.61-6.31,3.54-10.61,8.15-10.9,11.34,3.1,1.28,9.46-.07,15.77-3.61,6.31-3.54,6.35-9.23,10.9-11.34h0Z"/>
      <path class="cls-3" d="m234.58,296.39s6.3-4.83,10.6-7.05c4.3-2.21,7.17-3.69,7.17-3.69"/>
      <path class="cls-4" d="m243.84,272.98c-1.42,3.93-7.34,4.68-10.1,10.56-2.76,5.87-3.29,11.6-1.56,14.25,3.21-.51,7.34-4.69,10.1-10.56,2.76-5.87,2.98-18.18,1.57-14.25h0Z"/>
      <path class="cls-3" d="m232.17,297.78s4.08-5.3,5.8-8.96c1.72-3.66,3.7-9.09,3.7-9.09"/>
      <path class="cls-7" d="m249.29,295.23c4.15-.8-8.27-1.99-14.56-.26-6.29,1.72-11.06,4.82-12.01,7.53,2.43,1.79,8.27,1.99,14.56.26,6.29-1.72,7.58-6.68,12.01-7.53h0Z"/>
      <path class="cls-5" d="m222.72,302.53s6.57-2.85,10.81-3.86c4.24-1,7.07-1.67,7.07-1.67"/>
      <path class="cls-7" d="m235.96,284.09c-2.11,3.13-7.44,2.5-11.15,7.03-3.71,4.53-5.43,9.42-4.51,12.1,2.91.25,7.44-2.5,11.15-7.03,3.71-4.53,6.61-15.23,4.51-12.1h0Z"/>
      <path class="cls-5" d="m220.3,303.22s4.73-3.74,7.04-6.56c2.31-2.82,5.23-7.14,5.23-7.14"/>
      <path class="cls-6" d="m237.46,302.49c3.8-.27-7.17-2.66-12.98-1.8-5.81.86-10.41,3.12-11.56,5.44,1.97,1.86,7.17,2.66,12.98,1.8,5.81-.86,7.5-5.15,11.56-5.44h0Z"/>
      <path class="cls-8" d="m212.92,306.15s6.18-1.84,10.08-2.28c3.9-.44,6.5-.73,6.5-.73"/>
      <path class="cls-6" d="m226.77,291.11c-2.22,2.57-6.92,1.43-10.73,5.08-3.81,3.65-5.88,7.83-5.36,10.32,2.58.54,6.92-1.43,10.73-5.08,3.81-3.64,7.58-12.89,5.36-10.32h0Z"/>
      <path class="cls-8" d="m210.68,306.51s4.64-2.83,7.01-5.1c2.37-2.27,5.46-5.81,5.46-5.81"/>
      <path class="cls-1" d="m223.35,308.21c3.42.24-6.05-3.28-11.33-3.25-5.29.03-9.67,1.46-11,3.38,1.52,1.91,6.04,3.28,11.33,3.25,5.29-.03,7.35-3.64,11-3.38h0Z"/>
      <path class="cls-2" d="m201.02,308.37s5.74-.86,9.27-.76c3.53.1,5.88.17,5.88.17"/>
      <path class="cls-1" d="m215.3,296.72c-2.31,2.01-6.35.4-10.21,3.17-3.86,2.77-6.25,6.23-6.1,8.52,2.23.8,6.35-.4,10.21-3.17s8.41-10.53,6.1-8.52h0Z"/>
      <path class="cls-2" d="m198.99,308.4s4.5-1.94,6.9-3.66c2.41-1.73,5.61-4.49,5.61-4.49"/>
      <path class="cls-4" d="m149.15,174.44c2.27-4.08-.7,9.35-4.68,15.36-3.98,6.01-8.91,9.95-12.13,10.03-1.08-3.16.7-9.35,4.67-15.36,3.98-6.01,9.71-5.67,12.13-10.03h0Z"/>
      <path class="cls-3" d="m132.32,199.81s5.28-5.91,7.79-10.02c2.51-4.11,4.19-6.85,4.19-6.85"/>
      <path class="cls-4" d="m130.77,189.95c.53-4.63,2.94,8.91,1.57,15.97-1.37,7.06-4.42,12.56-7.37,13.85-2.21-2.51-2.94-8.91-1.57-15.97,1.37-7.06,6.8-8.9,7.37-13.85h0Z"/>
      <path class="cls-3" d="m124.93,219.77s2.62-7.46,3.37-12.21c.75-4.75,1.25-7.91,1.25-7.91"/>
      <path class="cls-4" d="m139.13,196.63c-2.55,3.32.04,8.65-3.41,14.15-3.46,5.5-8.01,9.06-11.19,9.08-1.32-2.95-.05-8.65,3.41-14.15,3.46-5.5,13.74-12.4,11.19-9.08h0Z"/>
      <path class="cls-3" d="m124.53,219.86s2.25-6.28,4.4-9.71c2.15-3.43,5.67-8.04,5.67-8.04"/>
      <path class="cls-4" d="m119.74,201.95c-.81-4.59,5.35,7.73,6.04,14.88.69,7.16-.67,13.29-3.14,15.35-2.84-1.79-5.35-7.73-6.04-14.88-.69-7.16,4-10.44,3.14-15.35h0Z"/>
      <path class="cls-3" d="m122.61,232.18s.39-7.89-.24-12.65c-.63-4.76-1.05-7.94-1.05-7.94"/>
      <path class="cls-4" d="m135.27,212.72c-2.31,3.49.66,8.63-2.41,14.35-3.06,5.73-7.35,9.6-10.52,9.83-1.52-2.85-.66-8.63,2.4-14.35,3.06-5.73,12.83-13.32,10.52-9.83h0Z"/>
      <path class="cls-3" d="m122.35,236.9s1.8-6.42,3.71-9.99c1.91-3.57,5.09-8.41,5.09-8.41"/>
      <path class="cls-4" d="m114.21,219.61c-1.79-4.31,6.91,6.4,9.14,13.23,2.23,6.84,2.24,13.12.28,15.66-3.16-1.14-6.91-6.4-9.14-13.24-2.23-6.84,1.63-11.05-.28-15.66h0Z"/>
      <path class="cls-3" d="m123.61,248.51s-1.34-7.79-2.99-12.3c-1.65-4.51-2.76-7.52-2.76-7.52"/>
      <path class="cls-4" d="m128.24,232.2c-.69,4.12,4.11,7.63,3.64,14.09-.47,6.46-2.82,11.72-5.62,13.21-2.55-2-4.11-7.64-3.64-14.1.47-6.46,6.32-17.32,5.62-13.2h0Z"/>
      <path class="cls-3" d="m126.26,259.5s-.97-6.6-.68-10.63c.29-4.03,1.23-9.73,1.23-9.73"/>
      <path class="cls-4" d="m116.91,243.97c-2.52-3.93,7.93,5.1,11.33,11.45,3.4,6.35,4.52,12.53,3.03,15.37-3.31-.58-7.93-5.1-11.33-11.45-3.4-6.35-.34-11.16-3.03-15.37h0Z"/>
      <path class="cls-3" d="m131.24,270.81s-2.69-7.43-5.11-11.6c-2.42-4.16-4.04-6.93-4.04-6.93"/>
      <path class="cls-4" d="m131.63,250.17c.2,4.17,5.64,6.6,6.56,13.02.92,6.41-.26,12.05-2.69,14.08-2.92-1.42-5.64-6.6-6.56-13.02-.92-6.41,2.49-18.26,2.69-14.08h0Z"/>
      <path class="cls-3" d="m135.5,277.27s-2.35-6.25-2.92-10.24c-.57-4-.87-9.77-.87-9.77"/>
      <path class="cls-4" d="m120.21,266.32c-3.72-2.85,9.21,2.13,14.58,6.95,5.37,4.83,8.54,10.26,8.12,13.43-3.31.57-9.21-2.13-14.58-6.95-5.37-4.83-4.15-10.39-8.12-13.43h0Z"/>
      <path class="cls-3" d="m142.89,286.73s-5.08-6.09-8.78-9.18c-3.7-3.1-6.17-5.16-6.17-5.16"/>
      <path class="cls-4" d="m139.05,261.87c.51,4.15,6.12,6.17,7.52,12.5,1.39,6.33.64,12.04-1.63,14.24-3.02-1.2-6.12-6.17-7.52-12.5-1.39-6.33,1.12-18.39,1.63-14.24h0Z"/>
      <path class="cls-3" d="m144.94,288.61s-2.81-6.06-3.68-10c-.87-3.94-1.59-9.68-1.59-9.68"/>
      <path class="cls-4" d="m127.92,281.41c-4.26-1.97,9.46.07,15.77,3.61,6.31,3.54,10.61,8.15,10.9,11.34-3.11,1.28-9.46-.07-15.77-3.61-6.31-3.54-6.35-9.23-10.9-11.34h0Z"/>
      <path class="cls-3" d="m154.57,296.39s-6.3-4.83-10.6-7.05c-4.3-2.21-7.17-3.69-7.17-3.69"/>
      <path class="cls-4" d="m145.32,272.98c1.42,3.93,7.34,4.68,10.1,10.56,2.76,5.87,3.29,11.6,1.57,14.25-3.21-.51-7.34-4.69-10.1-10.56s-2.98-18.18-1.57-14.25h0Z"/>
      <path class="cls-3" d="m156.98,297.78s-4.08-5.3-5.8-8.96c-1.72-3.66-3.7-9.09-3.7-9.09"/>
      <path class="cls-7" d="m139.87,295.23c-4.15-.8,8.27-1.99,14.56-.26,6.29,1.72,11.06,4.82,12.01,7.53-2.43,1.79-8.27,1.99-14.56.26-6.29-1.72-7.58-6.68-12.01-7.53h0Z"/>
      <path class="cls-5" d="m166.44,302.53s-6.57-2.85-10.81-3.86c-4.24-1-7.07-1.67-7.07-1.67"/>
      <path class="cls-7" d="m153.19,284.09c2.1,3.13,7.44,2.5,11.15,7.03,3.71,4.53,5.43,9.42,4.51,12.1-2.91.25-7.44-2.5-11.15-7.03-3.71-4.53-6.61-15.23-4.51-12.1h0Z"/>
      <path class="cls-5" d="m168.85,303.22s-4.73-3.74-7.04-6.56c-2.31-2.82-5.23-7.14-5.23-7.14"/>
      <path class="cls-6" d="m151.7,302.49c-3.8-.27,7.17-2.66,12.98-1.8,5.81.86,10.41,3.12,11.56,5.44-1.97,1.86-7.17,2.66-12.98,1.8-5.81-.86-7.5-5.15-11.56-5.44h0Z"/>
      <path class="cls-8" d="m176.24,306.15s-6.18-1.84-10.08-2.28c-3.9-.44-6.5-.73-6.5-.73"/>
      <path class="cls-6" d="m162.38,291.11c2.22,2.57,6.92,1.43,10.73,5.08,3.81,3.65,5.88,7.83,5.36,10.32-2.58.54-6.92-1.43-10.73-5.08-3.81-3.64-7.58-12.89-5.36-10.32h0Z"/>
      <path class="cls-8" d="m178.47,306.51s-4.64-2.83-7.01-5.1c-2.37-2.27-5.46-5.81-5.46-5.81"/>
      <path class="cls-1" d="m165.8,308.21c-3.42.24,6.05-3.28,11.33-3.25,5.29.03,9.67,1.46,11,3.38-1.52,1.91-6.05,3.28-11.33,3.25-5.29-.03-7.35-3.64-11-3.38h0Z"/>
      <path class="cls-2" d="m188.13,308.37s-5.74-.86-9.27-.76c-3.53.1-5.88.17-5.88.17"/>
      <path class="cls-1" d="m173.85,296.72c2.31,2.01,6.35.4,10.21,3.17,3.86,2.77,6.25,6.23,6.1,8.52-2.23.8-6.35-.4-10.21-3.17-3.86-2.77-8.41-10.53-6.1-8.52h0Z"/>
      <path class="cls-2" d="m190.17,308.4s-4.5-1.94-6.9-3.66c-2.41-1.73-5.61-4.49-5.61-4.49"/>
    </g>
    <path class="cls-9" d="m217.2,231.98v-32.9c1.05-.98,7.33-6.83,7.33-6.83v-14.95l-1.34-.46c-.25-.08-3.83-1.27-10.29-2.26v8.38c-1.36-.2-2.82-.4-4.36-.58v-8.37c-3.4-.37-7.33-.66-11.8-.73v8.79c-.72-.02-1.45-.03-2.18-.03s-1.46.01-2.18.03v-8.79c-4.46.07-8.41.35-11.8.72v8.34c-1.54.19-3,.4-4.36.62v-8.38c-6.47.98-10.04,2.18-10.29,2.26l-1.34.46v14.95s6.28,5.85,7.33,6.83v32.9c-.87,1.02-10.83,12.67-10.83,12.67v41.65l1.34.46c.46.16,11.43,3.88,32.15,3.88s31.69-3.72,32.15-3.88l1.34-.46v-41.65s-9.96-11.65-10.83-12.67Z"/>
    <g>
      <path class="cls-13" d="m186.38,288.44v-6.97h-6.94v6.43c2.12.22,4.42.4,6.94.53Z"/>
      <path class="cls-13" d="m177.45,281.47h-14.4v3.41s4.93,1.69,14.4,2.81v-6.22Z"/>
      <path class="cls-13" d="m202.7,281.47v6.97c2.52-.13,4.82-.32,6.95-.53v-6.44h-6.95Z"/>
      <path class="cls-13" d="m211.63,281.47v6.22c9.48-1.12,14.42-2.81,14.42-2.81v-3.41h-14.42Z"/>
      <rect class="cls-13" x="163.05" y="272.37" width="8.92" height="7.12"/>
      <rect class="cls-13" x="173.96" y="272.37" width="12.42" height="7.12"/>
      <rect class="cls-13" x="202.7" y="272.37" width="12.44" height="7.12"/>
      <rect class="cls-13" x="217.13" y="272.37" width="8.92" height="7.12"/>
      <rect class="cls-13" x="211.63" y="265.21" width="14.42" height="5.18"/>
      <rect class="cls-13" x="202.7" y="265.21" width="6.95" height="5.18"/>
      <rect class="cls-13" x="179.44" y="265.21" width="6.94" height="5.18"/>
      <rect class="cls-13" x="163.05" y="265.21" width="14.4" height="5.18"/>
      <rect class="cls-13" x="163.05" y="254.71" width="5.17" height="8.52"/>
      <rect class="cls-13" x="220.88" y="254.71" width="5.17" height="8.52"/>
      <rect class="cls-13" x="163.05" y="245.38" width="11.55" height="7.34"/>
      <path class="cls-13" d="m181.2,255.52c-1.12,2.11-1.77,4.52-1.77,7.07v.63h6.94v-.63c0-1.04.2-2.03.56-2.95l-5.74-4.12Z"/>
      <path class="cls-13" d="m187.33,249.33c-2.01,1.1-3.75,2.64-5.08,4.5l5.63,4.04c.59-.82,1.32-1.53,2.17-2.09l-2.73-6.46Z"/>
      <path class="cls-13" d="m201.2,257.89l5.64-4.05c-1.33-1.86-3.06-3.4-5.07-4.51l-2.72,6.46c.84.56,1.57,1.27,2.16,2.1Z"/>
      <path class="cls-13" d="m202.15,259.65c.36.91.55,1.91.55,2.94v.63h6.95v-.63c0-2.55-.64-4.95-1.76-7.06l-5.74,4.12Z"/>
      <path class="cls-13" d="m197.26,254.91l2.7-6.4c-1.69-.65-3.51-1.02-5.42-1.02s-3.73.36-5.41,1.01l2.71,6.41c.85-.3,1.75-.47,2.7-.47s1.87.17,2.72.48Z"/>
      <path class="cls-13" d="m194.54,245.5c5.75,0,10.83,2.86,13.93,7.22h4.05v-7.34h-35.93v7.34h4.03c3.1-4.36,8.18-7.22,13.92-7.22Z"/>
      <path class="cls-13" d="m209.69,254.71c1.23,2.36,1.94,5.04,1.94,7.89v.63h7.26v-8.52h-9.2Z"/>
      <path class="cls-13" d="m177.45,262.59c0-2.84.71-5.52,1.94-7.89h-9.19v8.52h7.25v-.63Z"/>
      <rect class="cls-13" x="214.5" y="245.38" width="11.55" height="7.34"/>
      <polygon class="cls-13" points="181.39 234.64 172.24 234.63 164.74 243.4 176.17 243.4 181.39 234.64"/>
      <polygon class="cls-13" points="212.93 243.4 224.35 243.4 216.9 234.69 207.73 234.68 212.93 243.4"/>
      <polygon class="cls-13" points="205.42 234.67 195.54 234.66 195.54 243.4 210.62 243.4 205.42 234.67"/>
      <polygon class="cls-13" points="193.56 234.66 183.7 234.65 178.48 243.4 193.56 243.4 193.56 234.66"/>
      <polygon class="cls-13" points="182.97 229.37 173.88 229.37 173.88 232.65 182.97 232.66 182.97 229.37"/>
      <polygon class="cls-13" points="206.13 229.37 206.13 232.69 215.22 232.7 215.22 229.37 206.13 229.37"/>
      <polygon class="cls-13" points="204.14 229.37 184.96 229.37 184.96 232.66 204.14 232.69 204.14 229.37"/>
      <rect class="cls-13" x="173.88" y="224.37" width="3.59" height="3.02"/>
      <rect class="cls-13" x="179.46" y="224.37" width="8.77" height="3.02"/>
      <rect class="cls-13" x="190.21" y="224.37" width="8.68" height="3.02"/>
      <rect class="cls-13" x="200.88" y="224.37" width="8.77" height="3.02"/>
      <rect class="cls-13" x="211.63" y="224.37" width="3.59" height="3.02"/>
      <rect class="cls-13" x="206.25" y="216.37" width="8.96" height="6.02"/>
      <rect class="cls-13" x="199.93" y="216.37" width="4.34" height="6.02"/>
      <rect class="cls-13" x="184.83" y="216.37" width="4.34" height="6.02"/>
      <rect class="cls-13" x="173.88" y="216.37" width="8.97" height="6.02"/>
      <rect class="cls-13" x="173.88" y="209.37" width="3.59" height="5.02"/>
      <rect class="cls-13" x="179.46" y="209.37" width="9.71" height="5.02"/>
      <rect class="cls-13" x="199.93" y="209.37" width="9.71" height="5.02"/>
      <rect class="cls-13" x="211.63" y="209.37" width="3.59" height="5.02"/>
      <path class="cls-13" d="m186.19,203.62c-.18.69-.28,1.4-.28,2.14v1.62h3.26v-1.62c0-.13.03-.24.04-.37l-3.02-1.77Z"/>
      <path class="cls-13" d="m189.46,198.82c-1.05.77-1.93,1.77-2.55,2.93l2.83,1.66c.29-.58.68-1.1,1.14-1.54l-1.42-3.05Z"/>
      <path class="cls-13" d="m196.54,200.78l1.38-2.97c-1.04-.44-2.17-.68-3.37-.68s-2.33.25-3.37.69l1.38,2.96c.61-.25,1.28-.4,1.98-.4s1.37.14,1.99.39Z"/>
      <path class="cls-13" d="m202.18,201.75c-.62-1.16-1.49-2.17-2.54-2.94l-1.42,3.05c.47.44.86.97,1.14,1.55l2.82-1.66Z"/>
      <path class="cls-13" d="m199.91,205.39c0,.13.02.25.02.38v1.62h3.26v-1.62c0-.74-.1-1.46-.28-2.15l-3.01,1.77Z"/>
      <path class="cls-13" d="m194.55,195.15c4.05,0,7.58,2.28,9.37,5.62,1.36.13,2.71.26,3.97.4v-5.25c-3.14-.91-7.5-1.66-13.34-1.66s-10.2.76-13.34,1.66v5.25c1.26-.14,2.61-.27,3.97-.4,1.79-3.34,5.32-5.62,9.37-5.62Z"/>
      <path class="cls-13" d="m215.08,204.03c-.08-.01-4.94-.67-10.33-1.19.27.93.42,1.91.42,2.92v1.62h10.04v-3.32l-.13-.04Z"/>
      <path class="cls-13" d="m183.93,205.77c0-1.02.15-1.99.42-2.92-5.39.52-10.25,1.18-10.33,1.19l-.13.04v3.32h10.04v-1.62Z"/>
      <path class="cls-13" d="m214.56,198.95s-1.43-1.22-4.68-2.4v4.83c2.73.31,4.79.59,5.34.66v-2.45l-.66-.64Z"/>
      <path class="cls-13" d="m179.22,196.55c-3.25,1.18-4.65,2.38-4.68,2.4l-.66.66v2.44c.55-.07,2.61-.35,5.34-.66v-4.83Z"/>
      <path class="cls-13" d="m215.96,197.52l6.55-6.1h-55.93l6.55,6.1.08-.04c.24-.21,5.95-5.21,21.33-5.21s21.1,5,21.33,5.21l.08.04Z"/>
      <path class="cls-13" d="m177.39,184.84c-6.28.55-10.62,1.17-10.7,1.18l-.14.05v3.35h10.84v-4.59Z"/>
      <path class="cls-13" d="m193.56,184.05c-5.02.03-9.95.3-14.18.63v4.75h14.18v-5.38Z"/>
      <path class="cls-13" d="m209.72,184.68c-4.23-.33-9.16-.6-14.18-.64v5.39h14.18v-4.75Z"/>
      <path class="cls-13" d="m222.4,186.03c-.08-.01-4.41-.64-10.7-1.18v4.58h10.84v-3.36l-.14-.04Z"/>
      <path class="cls-13" d="m174.22,176.92c-5,.89-7.67,1.8-7.67,1.8v5.33c.64-.09,3.51-.48,7.67-.9v-6.23Z"/>
      <path class="cls-13" d="m190.38,175.32c-2.84.09-5.47.26-7.83.48v6.67c2.48-.16,5.13-.28,7.83-.35v-6.8Z"/>
      <path class="cls-13" d="m206.55,175.8c-2.37-.22-4.99-.4-7.83-.49v6.8c2.71.07,5.35.2,7.83.36v-6.67Z"/>
      <path class="cls-13" d="m214.88,176.92v6.23c4.15.41,7.03.81,7.67.9v-5.33s-2.67-.91-7.67-1.79Z"/>
    </g>
  </g>
</svg>