<?xml version="1.0" encoding="UTF-8"?>
<svg id="Layer_2" data-name="Layer 2" xmlns="http://www.w3.org/2000/svg" viewBox="0 0 425.19 385.46">
  <defs>
    <style>
      .cls-1 {
        fill: #636a67;
      }

      .cls-1, .cls-2, .cls-3, .cls-4, .cls-5, .cls-6, .cls-7, .cls-8 {
        fill-rule: evenodd;
        stroke-width: 0px;
      }

      .cls-2 {
        fill: #2e312d;
      }

      .cls-3 {
        fill: #5a2d22;
      }

      .cls-4 {
        fill: #626a67;
      }

      .cls-5 {
        fill: #b0b0b0;
      }

      .cls-6 {
        fill: #d29c45;
      }

      .cls-7 {
        fill: #fce300;
      }

      .cls-8 {
        fill: #fff;
      }
    </style>
  </defs>
  <g id="Layer_1-2" data-name="Layer 1">
    <g>
      <path class="cls-6" d="m88.16,119.92c-3.22-2.09-5.15-4.68-6.74-7.93-6.57-2.39-11.63-6.11-14.59-11.89-3.79-1.84-7.57-4.72-9.69-8.21-3.55-1.12-6.23-2.66-9.07-5.09-2.76-2.36-4-4.32-5.12-6.81-8.51-4.37-15.75-10.8-18.96-19.56-7.26-4.55-12.58-11.2-13.48-19.18C4.26,35.86.12,29.16,0,19.62.41,9.45,8.03,4.91,17.23,4.56c2.99-.11,5.9.47,9.22,1.43,4.83,1.39,8.29,3.93,12.68,5.91,1.92.87,3.87,1.71,5.84,2.52,2.63-1.52,5.84-2.4,9.41-2.46,4.12-.07,8.93.71,12.71,2.33,6.75,2.88,12.98,7,19.05,11.11,1,.68,2.27,1.42,3.4,2.19,4.44-3.58,9.59-2.97,14.41-.98,13.04,5.4,24.41,14.56,37.12,20.12,8.4,3.68,17.76,6.41,26.24,10.62,5.09,2.53,9.67,5.86,13.72,9.88,1.05-3.74,1.96-7.44,3.87-10.85,5.22-9.32,12.76-15.49,22.29-19.95,9.64-4.52,20.62-6.26,30.97-8.23,10.34-1.97,20.73-3.62,31.06-5.7,2.04-.41,4.62-.84,6.56-1.6,3.65-1.43,6.68-3.66,10.71-5.14,5.53-2.02,12.09-2.64,17.02,2.16,4.6-1.63,11.95-4.3,16.48-6,3.51-1.32,6.93-2.73,10.51-3.87,4.79-1.42,12.54-.53,16.6,6.52,5.61-.73,11.88-1.83,17.44-2.87,9.16-1.72,18.43-4.19,27.41-6.69,6.32-1.76,14.24-4.39,20.7-4.95,5.33-.38,9.64,1.17,12.57,4.27l-10.27,29.54c-.88,2.53-1.01,2.96-3.01,4.62-2.91,8.42-9.27,16.04-16.71,20.68-.86.53-2.11,1.17-3.3,1.84-1.14,4-2.93,7.08-6.81,10.2-3.66,2.94-8.26,4.97-12.84,6.71-4.12,7.42-11.46,12.26-19.66,15.1-3.35,5.61-8.25,9.35-14.88,11.52-2.01,5.56-7.27,9.11-18.06,10.69-2.81,4.84-8.4,6.3-13.42,7.76,4.43,3.3,7.44,7.53,8.14,13.34,2.77,3.89,4.07,8.99,3.69,13.62,3.1,7.12,1.2,8.29,1.19,11.54,0,1.98.59,3.86.72,5.72.09,1.2-.21,2.39-.25,3.59-.03,1.2.31,2.42.34,3.66.3,4.7-1.45,9.44-4.18,13.22-4.69,6.49-12.18,10.62-20.2,10.84-2.25.06-4.46-.15-6.68-.49-1.43-.22-3.29-.67-4.72-.77-3.11.21-5.75,1.19-9.32,1.17-4-.02-5.73-.88-9.21-1.81-4.4-.79-9.35-.57-13.93-1.25-4.08-.6-6.02-1.79-9-3.23-1.15.35-2.04,1-3.35,1.54,1.19,2.46,1.71,5.03,1.82,7.67,7.01,4.77,14.4,8.71,21.38,10.75,8.03,2.34,17.09,3.15,25.43,2.32,6.7-.77,14.33,3.31,15.38,12.01,4.61,31.29,1.16,62.99-13.34,91.35-15.64,30.59-40.45,52.32-71.91,65.86-6.16,2.66-11.41,2.34-17.4-.5-30.42-14.46-55.65-40.26-69.79-70.8-12.32-26.61-15.67-55.53-11.73-84.39.77-5.9,2.52-9.26,4.61-11.04,2.19-1.86,4.89-3.32,9.12-3.44,7.06-.21,11.09-.51,16.72-1.45,7.67-1.28,14.94-3.64,21.66-8.14.57-2.44,1.47-4.8,2.78-6.99.65-1.09,1.37-2.1,2.14-3.03-.23-.63-.43-1.27-.61-1.93-5.67-1.62-9.94-3.37-14.21-6.07-3.29-2.08-6.53-5.1-8.96-8.1-4.49-2.3-8.13-5.29-11.71-8.97-4.8-4.94-8.48-10.83-11.45-17.04-2.59-1.6-3.69-2.47-5.96-5.96-4.31.14-8.47-.13-12.82-2.7-7.66,4.58-14.97,1.96-19.04-3.11-4.33-5.39-5.69-14.52-3.43-20.06h0Z"/>
      <path class="cls-2" d="m133.68,227.29c18.13.99,36.77-3.92,51.09-15.86-.04-2.77.4-5.34,1.56-7.29,1.87-3.12,5.4-4.98,10.03-6.18-5.25-4.52-8.43-9.36-7.19-16.09-2.6-.83-7.38-2.76-12.27-4.73-2.48-.99-5.49-2.15-7.83-3.62-2.74-1.73-5.02-4.19-6.86-7.07-4.13-1.65-7.83-4.04-11.2-7.51-4.06-4.19-7.64-9.96-10.9-17.93-1.19-.33-3.15-.85-4.34-2.2-.04-5.56-2.78-7.5-7.45-8.98-6.74,3.74-11.49.53-15.55-1.33-5.36-.12-7.53,1.34-10.03,2.84-2.51-7.56-.23-11.76,3.78-15.17,1.96-1.66,4.34-2.91,6.77-4.7-15.71,1.3-20.05-3.93-19.6-10.89-11.8-1.7-15.5-5.99-14.96-11.84-6.15-.41-10.11-2.77-9.91-9.18-5.29.01-9.27-1.56-11.55-3.51s-1.84-4.11-3.7-6.77c-11.93-4.71-16.93-11.41-17.21-18.42-8.78-3.38-13.89-9.02-10.89-16.2-4.28-2.66-11.22-6.79-11.33-15.23,2.8-.67,4.78-.91,8.4.14,3.16.91,7.09,3.54,10.76,5.21,6.82,3.09,14.48,5.98,20.61,8.01-.84-1.59-1.49-2.97-1.91-4.1-.85-2.31.12-2.55,2.62-2.59,2.2-.04,5.09.42,6.91,1.19,5.53,2.36,11.12,6.05,16.68,9.82,6.19,4.19,12.53,8.53,18.5,10.63-.6-2.23-2.24-9.75,1.81-8.07,10.99,4.55,24.8,15.01,36.67,20.21,13.12,5.74,24.92,7.84,34.54,16.16,6.96,6.02,8.65,14.07,9.57,22.93.78,7.58,1.17,15.18,3.06,19.08,4.16-3.25,7-6.71,8.93-10.29,3.8-7.09,2.2-14.64,2.04-21.91-.08-3.48-.13-6.89.33-10.16.63-4.48,2.06-8.59,4.14-12.31,3.71-6.62,9.95-10.88,16.72-14.06,8.44-3.96,17.15-5.5,26.27-7.24,10.29-1.96,19.97-3.46,31.2-5.73,3.57-.72,6.36-1.29,8.91-2.29,6.27-2.45,9.75-5.63,13.52-5.59.96,4.11-3.85,5.75-2.32,7.78,10.52-2.8,21.41-6.81,32.83-11.09,3.2-1.2,5.78-2.25,9.81-3.53.48,2.52.4,5.28-.62,8.3,10.91-.72,21.93-2.26,33-4.33,8.34-1.56,19.13-4.32,28.6-6.97,7.55-2.1,14.45-4.16,18.13-4.48,1.34-.12,1.56.15.63,1.17-.55.6-1,.82-1.56,1.43-.53,1.34-2.84,4.44-3.12,4.72-2.28,2.24-7.82,6.82-10.58,9.86-1.05,6.34-6.21,12.29-11.59,15.64-2.75,1.71-5.34,2.75-7.93,5-1.31,1.14-.44,5.78-3.46,8.21-3.03,2.43-8.07,4.16-14.89,6.68-1.18,6.65-7.36,12.24-19.94,14.48.21,5.93-5.19,10.01-15.8,11.19.14,4.84-2.15,9.17-16.13,9.48-.48,5.56-5.04,6.77-10,7.71-2.09.39-4.57.96-6.48,1.49-3.21.88-4.35,3.11-7.8,4.16-2.3.7-6.83,1.04-11.52.19-1.34,3-5.2,3.3-6.68,5.5-1.15,1.71-.18,4.5-1.42,5.96-2.06,2.41-6.86,2.6-9.2,4.75-1.6,1.47-1.4,5.3-3.2,6.51-2.7,1.81-4.76,2.03-8.22,2.57-.36,2.69-1.34,5.16-3.71,6.84,2.85,3.22,6.19,4.26,10.16,3.5,7.22-1.38,12.39-9.93,20.53-12.34,3.82-1.13,8.01,1.37,10.73-.55,2.28-1.61,6.68-5.08,10.24-5.46,5.02-.54,8.91,3.25,7.02,9.65,3.91,2.17,5.68,6.31,2.13,10.25,1.49,1.26,2.92,2.23,3.62,4.25-1.26.79-2.04,2.97-1.46,4.55.79,3.73,2.37,5.98-1.12,9.12,2.21,1.64,2.62,2.96,2.73,4.69.06.98-.34,2.55-1.43,4.06-2.12,2.93-5.53,4.88-9.13,4.99-3.5.1-7.41-1.11-10.5-1.26-3.05-.15-6.69,1.18-9.75,1.16-2.85-.02-4.07-1.09-6.73-1.57-4.44-.8-9.73-.64-14.43-1.33-3.94-.58-6.53-3.62-9.96-3.63-7.89-.03-14.71,7.2-24.18,4.79-3.34,3.52-3.78,5.49-3.69,8.09.07,2.04,6.32,4.13,9.26,8.03,1.59,2.1,1.9,4.94,1.13,9.4,10.12,7.8,21.48,14.49,32.25,17.62,9.41,2.74,20.37,3.85,30.78,2.82,4.85,32.93-.49,60.44-11.95,82.84-13.83,27.04-35.78,46.77-64.91,59.32-2.39,1.03-3.39.83-5.74-.29-25.38-12.05-49.33-34.39-63.02-63.96-10.43-22.54-14.76-49.11-10.18-79.11h0Z"/>
      <path class="cls-3" d="m230.51,354.11c17.82-11.04,32.05-25.69,42.12-45.38,11.86-23.18,15.03-48.82,12.06-74.39-9.24.32-18.79-.82-27.53-3.36-17.28-5.03-35.5-18.28-48.76-31.36-1.06.75-2.15,1.45-3.25,2.15-.86.54-2.81-.15-3.61.62-1.55,1.51-2.12,4.4-3.25,6.19v25.33h32.21v25.09h-32.21v19.01h32.21v25.23h-32.21v24.91h32.21v25.96Z"/>
      <path class="cls-8" d="m138.47,233.31c-2.01,16.55-1,32.91,3.23,48.74,5.28,19.71,15.21,38.22,28.92,53.38,10.77,11.91,24.12,21.69,38.91,28.71.21.1.53.26.8.36.14-.05.28-.11.39-.16,4.96-2.14,9.72-4.46,14.27-7v-23.69h-32.21v-35.94h32.21v-14.21h-32.21v-30.03h32.21v-14.07h-32.21v-25.3c-13.73,11.74-35.22,19.13-54.31,19.19h0Z"/>
      <path class="cls-7" d="m112.69,115.65c-4.95,1.8-9.68,6.97-7.89,11.84,8.36-4.76,12-4.69,15.67-3.2-.88,1.54-4.03-.08-6.72,1.71,2.76.25,5.88,2.13,7.96,2.02.88-.04,1.65-.28,2.24-1.06-1.43-.24-2.27-.45-3.25-.83l.21-1.11c.4.04,1.51.21,2.32.2,2.12.69,3.79,2.42,6.62,2.69.25-1.26.35-2.75.24-4.2-6.28-2.85-13.48-3.07-17.39-8.07h0Z"/>
      <path class="cls-7" d="m120.74,114.51c4.23.1,8.64-2.3,12.4-2.07,1.97.12,3.94,1.05,4.71,3.63-2.25,1.44-5.18-.22-6.84,1.86,3.01.99,3.74,2.28,4.64,3.89,2.13,3.82,1.38,8.91,3.18,12.98,5.15-.62,7.84-3.34,9.86-6.07,3.49-4.7,3.65-8.29,6.18-13.05-1.23.28-2.93.14-3.97-.43-1.95-1.08-4.23-2.91-6.55-4.58-1.71-1.23-3.36-1.86-4.87-2.34-3.49-1.12-6.81-1.05-9.29-1.1-3.38-.07-7.44.96-9.19,2.97-1,1.15-1.17,2.68-.26,4.31h0Z"/>
      <path class="cls-7" d="m127.78,115c.03,1.01.23,2.61-.73,2.94-.52.18-.81.04-1.28-.23-.78-.45-1.72-1.28-2.57-1.62,1.32-.59,2.79-.86,4.59-1.09h0Z"/>
      <path class="cls-7" d="m141.69,136.85c1.07,5.87,4.52,11.93,10,17.22.3.29.94.26,1.06-.5.3-1.92.3-6.27-.12-7.46-.8-2.3-3.37-1.51-4.36-3.9-.76-1.83-.88-3.5-1.92-4.86-1.34-1.73-2.51-2.28-4.66-.51h0Z"/>
      <path class="cls-7" d="m147.33,133.67c.55,4.79,2.79,7.6,5.38,9.98.55-1.91,1.01-3.98,1-6.07l-4.31-5.91-2.07,2Z"/>
      <path class="cls-7" d="m150.39,130.7c1.55,4.31,3.8,7.35,7.58,7.58.54-1.35.68-2.77-.07-4.31-1.14-.74-3.36-3.66-4.98-5.87l-2.53,2.6Z"/>
      <path class="cls-7" d="m154.14,156.09c2.29,3.08,4.43,6.33,7.71,6.31,2.17-.02,3.22-2.48,1.85-6.29-1.23-1-2.35-1.44-3.59-2.35-1.03-.76-1.98-1.9-3.05-3.43l-2.92,5.75Z"/>
      <path class="cls-7" d="m158.6,148.97c1,1.88,4.37,4.36,6.15,4.79,1.32.32,2.96-1.44,2.38-4.78-.24-1.39-1.12-2.59-2.01-3.57-1.15-1.26-2.59-2.18-3.25-2.76-.14.75-.28,2.95-.91,3.84-.47.67-1.33.95-2.07,1.26-.73.3-.71.45-.3,1.22h0Z"/>
      <path class="cls-7" d="m160.14,134.5c-.08,1.76-.18,3.23.3,5l9.06,6.22c2.8.1,4.84-.99,5.48-2.02,0-1-.33-1.8-.72-2.55-1.29-2.49-3.52-1.46-5.76-2.48-1.8-.81-3.09-2.92-4.48-4.01-1.23-.23-2.51-.59-3.88-.17h0Z"/>
      <path class="cls-7" d="m156.91,147.73c-.67-.18-3.1-2.89-2-6.81.42-1.5,4.23-.54,4.66.96.59,2.08-.11,6.54-2.66,5.84h0Z"/>
      <path class="cls-7" d="m154.07,126.32c3.88,6.67,6.47,6.7,7.62,6.5.89-.15.17-2.77-.59-6.61l-4.75-4.89c-.2-.2-.99-.59-1.2.34l-1.07,4.66Z"/>
      <path class="cls-7" d="m157.95,116.97l-.68,2.7c.76,2.2,3.98,4.89,5.91,5.34.61.14,1.71.04,2.31-.35,1.07-.68,1.15-2.61.47-3.5-1.23-1.59-2.17-2.5-3.4-3.94-1.44-.12-2.81-.14-4.6-.25h0Z"/>
      <path class="cls-7" d="m163.24,126.72c.58,2.18,1.5,4.39,1.33,6.77,2,1.32,3.83,1.31,5.4,2.08,1.22.6,1.74,1.57,3.01,1.99,1.72.55,2.84-.24,3.4-.9.93-1.09,1.84-3.11-.36-5.31-2.98.07-6.35-.98-8.24-4.62l-4.54-.02Z"/>
      <path class="cls-7" d="m167.33,117.63c.88,2.5.94,4.59.51,6.88,1.18,1.34,2.95,2.54,5.13,3.63,1.12.57,2.24.94,2.72-.26.48-1.2.6-3.78-1.59-6.43-1.48-1.79-4.84-3.32-6.76-3.83h0Z"/>
      <path class="cls-7" d="m192.69,182.61c-.03,2.97,0,6.05.78,7.59,1.11,2.19,2.53,3.86,5.31,4.42l-1.17-9.23c-1.88-2.18-3.41-2.83-4.92-2.78h0Z"/>
      <path class="cls-7" d="m214.22,187.3c-.44,2.41-1,5.21.02,7.07,2.82,1.77,6.15,3.04,7.74,5.35.53.77.84,1.33.58,2.21-.07.21-.51.79-1.17-.03-.98-1.24-3.62-3.25-5.41-3.33-1.66,1.86-3.27,3.28-4.55,4.75-1.41,1.62-2.49,3.3-4.22,5.7-.56.77-.82.78-.96.37-.43-1.28-.14-3.34.16-4.16.63-1.67,1.84-3.44,3.45-5.11.62-.65.21-.87-.53-.68-1.66.41-3.74,2.85-4.91,5.84-.54,1.36-1.88-.89-1-2.85.94-2.09,2.75-3.76,3.27-4.46-.06-1.79-.16-5.53-.25-7.98,1.14-.8,2.25-.16,3.75.71,1.31-1.7,2.45-2.81,4.03-3.39h0Z"/>
      <path class="cls-7" d="m201.3,200.74c-1.48.92-3.02,2.16-4.09,3.6-1,1.36-1.29,3.12-1.96,4.58-.17.38-1.04.77-1.25-.14-.25-1.05-.33-2.18-.29-3,.03-.51.05-.97.21-1.34.45-1.06,1.71-2.64,2.79-3.09,1.39-.58,3.01-.75,4.59-.62h0Z"/>
      <path class="cls-7" d="m192.92,203.9c-1.58,1.53-2.5,2.8-3.38,5.3-.78-.36-1.3-.86-1.3-.91.03-1.38.46-2.4,1-3.12.92-1.24,2.34-1.71,3.68-1.27h0Z"/>
      <path class="cls-7" d="m257.11,153c3.95-2.61,7.5-7.69,11.25-9.63,2.36-1.21,5.46-2.39,8.18-2.39,1.68,0,3.82.12,4.49,1.8-2.52,4.5-5.64,5.77-8.55,7.24h8.36c.42,2-.38,3.99-2.38,4.74,2.73.85,3.96,1.65,3.86,2.76-.19,2.11-3.16,6.78-14.03,7.68,2.61,1.58,9.93.79,11.98.98,5.03,2.97,4.05,5.78,1.92,6.31-4.48,1.12-9.83.09-12.08.03-1.02-.03-1.08,2.86-.14,3.27,1.83.8,4.26-.9,6.25-.73,3.31.27,4.63,2.63,4.64,4.38,0,1.99-3.64,3.64-5.03,3.31-2.76-.65-6.07-1.54-10.11-2.17-1.65-.26-3.13-.29-4.25-.86-1.1-.57-2.33-1.5-2.28-2.4.07-1.31,1.64-1.38,1.92-2.04.34-.8-1.04-1.6-.9-2.78.14-1.22,1.96-1.56,2.25-2.6.65-2.32-2.38-2.4-2.84-4.67-.37-1.81,1.77-2.42,3.52-2.48,5.5-.18,6.94-2.45,7.51-3.92.26-.67.55-2.04.2-3-.24-.64-1.62-2.13-4.79-2.18,1.9,1.35,2.82,2.68,2.59,3.88-.33,1.77-3.09,3.28-8.79,4.27-.08-2.83-.4-5.96-2.77-8.79h0Z"/>
      <path class="cls-7" d="m282.02,146.54c-.38.31.26.76.74.7,8.99-1.03,13.4-3.66,15.34-6.07.95-1.18.75-2.64.5-3.11-1.1-2.05-4.25-3.42-7.86-1.71-1.16.55-3.17,1.93-5.31,3.29-.97.62-1.97,1-2.93,1.65-.58.39-.98,1.93-.28,1.89l2.54-.13c.66-.03.75.79.38,1.12-.93.83-1.99,1.42-3.13,2.36h0Z"/>
      <path class="cls-7" d="m288.25,151.55c-.56.14-2.8,1.22-4.21,1.26-.49.02-1.15-.27-1.59-.91.13-.63.71-1.57,1.27-2.37,4.74-.49,7.5-1.47,12.59-3.9,3.23-.11,4.74,1.25,5.03,1.91.36.8.1,1.79-.02,2.34-.37,1.66-1.87,3.01-4.96,4.08-1.54.53-3.4.05-5.59.37-1.57.23-3.45,1.17-5.23,1.34-1.4.13-1.92-1.35-1.11-1.71,1.26-.64,2.99-1.28,4.05-1.71.54-.21.35-.84-.22-.7h0Z"/>
      <path class="cls-7" d="m286.62,161.3c-1.66-.28-3.57-.7-3.24-1.58.37-.95,1.55-1.59,3.3-2.23,1.78-.66,3.98-.79,6.1-1.14,2.72-.46,5.31-1.03,6.69-.93,1.91.13,2.93.64,3.36,1.91-.04,1.57-2.68,3.08-5.51,4.34-2.2.98-4.53,1.85-5.85,2.24-3.43,1-7.24,1.22-8.25-1.41.08-.18.32-.53.58-.62.94-.31,2.07-.35,2.81-.58h0Z"/>
      <path class="cls-7" d="m284.25,167.7c.1-.32.41-.64.81-.74,2.05-.5,7.07-1.55,8.24-1.95,2.7-.23,6.88-.77,10.12-.8.93,1.2.9,2.97.13,3.84-1.45,1.64-4.93,1.97-8.51,2.55-2.15.34-4.37,1.16-6.28,1.05-1.43-.08-2.68-.3-3.61-.68l.54-.94c1.25-.03,4.07-.47,3.92-1.55-1.26-.24-3.47-.13-4.64-.38-.45-.1-.48-.25-.73-.41h0Z"/>
      <path class="cls-7" d="m284.08,175.88c.68-1.05,2.8-2.14,4.36-2.57,1.22-.34,2.48-.4,3.75-.5,2.95-.23,6.52-.11,9.65.99,1.87.66,2.11,1.96,1.39,3.56-.86,1.93-2.79,4.09-5.17,4.68-2.84.7-6.37-.13-9.13-.82-2.36-.59-4.15-.91-4.46-1.06-.65-.3-.77-.96-.43-1.44.25-.35.78-.67,1.31-.82.86-.25,1.71.07,2.08-.34.37-.42.17-.52.05-.59-.86-.5-1.88-.68-3.39-1.1h0Z"/>
      <path class="cls-5" d="m57.6,38.75c-13.14-2.89-19.46-5.42-25.48-7.94,7.28,3.89,14.29,6.87,26.44,9.45,1.42,2.07,2.97,3.64,5.64,5.71-5.14,1.28-22.62-5.02-30.84-9.77-6.69-3.87-16.42-8.52-15.23-14.75,1.29-.33,1.82-.15,2.88.21,3.16,1.07,7.65,3.41,12.82,5.51,7,2.83,14.73,5.37,21.58,7.41.7,1.74,1.28,2.78,2.19,4.18h0Z"/>
      <path class="cls-5" d="m62.48,47.59c-15.13-4.12-17.07-5.29-23.46-7.93-2.86-1.18-5.93-2.03-8.21-2.18-1.26-.08-3.4-.28-3.33,1.38.16,3.52,3.23,6.37,7.84,8.56,5.07,2.39,12.23,4.19,19.5,6.15,5.31,1.43,10.67,2.85,15.33,4.41-3.29-2.41-6.73-4.67-7.87-7.43-5.39.14-11.52-1.75-16.5-3.98,4.55,1.14,9.06,2.66,16.43,2.87.09-.42.26-1.41.28-1.83h0Z"/>
      <path class="cls-5" d="m75.33,60.62c-6.16-.67-10.58-1.4-15.13-2.3-7.8-1.53-16.5-6.24-19.03-4.21-.27,2.18,1.34,5.17,2.15,5.98,1.5,1.47,3.47,2.95,5.78,4.09,6.84,3.38,23.89,7.71,30.04,5.48-2.45-1.44-3.69-2.49-4.1-3.93-2.52.15-8.05-.68-12.5-2.09,4.75.55,9.72,1.05,12.99.12.56-.9.43-2.03-.19-3.14h0Z"/>
      <path class="cls-5" d="m81.56,71.34c.56,1.62,2.88,2.78,5.11,3.85-4.93.11-9.51.12-13.33-.51,4.22,1.71,10.65,1.85,18.02,1.71-.28,4.55.78,9.06,7.93,11.2,1.25,1.95,2.14,3.8,2.46,5.75-1.77,0-3,.06-5.29-.29,2.16.72,4.46.81,5.85,1.18,1.23.88,3.39,2.53,4.41,3.41-4.41,2.82-18.86,3.41-24.48-4.6-1.2-1.7-.04-2.56,1.35-2.67,6.99-.54,11.2-1.4,14.27-2.47-12.56,1.34-24.26.87-26.74-6.67,6.96-.39,10.06-.35,15.98-.82-7.44-.59-14.91-1.37-20.72-2.87-3.77-.97-6.64-2.61-8.27-4.81-1.23-1.65-.96-3.19,1.02-2.77,4.9,1.05,8.97,1.87,14.1,2.11,2.59.12,5.34.1,8.34-.75h0Z"/>
      <path class="cls-5" d="m120.41,101.01v1.67c.65,1.11,2.21,1.6,3.49,2.16-4.66,2.8-11.56,5.05-16.98,4.71-2.67-.17-6.9-.96-9.37-3.1-1.37-1.18-1.45-2.66-.83-3.7.59-.97,1.88-1.53,3.56-1.74,2.85-.35,5.78-.84,7.58-1.47,3.64,1.21,6.54,2.07,12.55,1.46h0Z"/>
      <path class="cls-5" d="m103,57.69c.84-.7,1.67-1.39,2.51-2.09-1.91-1.48-3.33-3.16-5.23-4.65-8.72-3.77-15.77-7.04-23.62-11.37-6.02-3.32-11.7-7.86-18.74-11.19-1.35-.64-1.91-.08-2.02.85-.71,5.91,7.6,12.4,15.33,16.83,10.86,6.21,23.84,9.47,31.77,11.62h0Zm-5.78-4.91c-4.73-1.57-18.97-6.05-23.65-10.56-1.05-1.01-.43-1.66.56-.98,5.7,3.96,15.04,7.83,23.09,11.54h0Z"/>
      <path class="cls-5" d="m101.93,58.8c.23.74.28,1.48-.04,2.23-5.76.14-14.31-3.39-17.01-4.37,4.76,3.19,10.39,5.07,18.26,6.03,1.02,2.46,2.79,4.73,5.29,7.19-7.95-.36-20.45-4.05-29.31-9.05-4.68-2.64-11.31-7-12.28-11.69-.15-.72-.45-2.17,1.62-1.8,3.18.57,5.68,1.77,8.93,3.09,3.26,1.31,6.63,2.45,9.68,3.58,4.89,1.83,8.33,3.12,14.85,4.79h0Z"/>
      <path class="cls-5" d="m93.67,70.78c2.93,2.15,6.31,3.92,14.07,3.84,1.21,1.27,2.24,2.55,2.54,3.54-1.66-.62-6.65-.87-11.72-1.53-3.47-.45-6.98-1.15-9.48-2.09-3.82-1.44-7.83-5.09-9.45-8.19-.74-1.43-.89-3.19,1.57-2.79,2.15.35,3.96.94,5.46,1.5,3.29,1.23,5.88,2.72,11.46,4.32,2.27.65,5.03,1.32,8.5,2v1.64c-3.55.91-8.1-.36-12.95-2.23h0Z"/>
      <path class="cls-5" d="m111.87,79.42c3.36,5.25,7.55,7.96,11.66,10.58-13.32-.72-25.37-2.03-30.1-9.62-1.23-1.96-.51-3.39,1.76-2.87,5.52,1.26,10.34,1.89,16.69,1.91h0Z"/>
      <path class="cls-5" d="m122.14,91.11c.56,1.42,1.61,2.41,2.86,3.62-3,.05-6.51.1-9.57,0,2.92.46,6.35.54,9.83.72,1.48,1.02,2.71,2.15,5.03,3.03h7.52c-.89,3.03,1.96,5.22,5.63,7.42-4.98-.29-11.17-.3-14.87-.96-2.37-.43-3.33-1.24-3.59-2.21-.22-.82.69-2.36,3.23-3.47-6.39.87-12.27.66-16.96-1.21-3.15-1.25-6.25-3.33-7.63-6.2-.49-1-.61-1.97,1.75-2.14,2.43-.18,6.75.74,16.77,1.39h0Z"/>
      <path class="cls-5" d="m329.77,42.7c14.39,1.65,26.71,0,39.17-3.86,15.03-4.67,28.9-12.71,40.3-22.18-11,3.96-22.75,7.66-34.76,10.58-13.61,3.32-26.7,5.07-40.3,5.69-.14,1.51-.48,2.9-.99,4.48,5.58.65,12.49,0,18.25-1.59-5.62,2.69-12.61,3.81-19.71,3.54-.65,1.02-1.23,2.33-1.95,3.35h0Z"/>
      <path class="cls-5" d="m321.41,55.6c14.61,2.03,32.68-.09,48.17-6.09,11.47-4.45,21.63-10.98,28.17-19.05-6.54,3.61-14.03,6.82-21.97,9.25-15.16,4.64-31.95,6.72-46.92,5.21l-2.94,5.29c2.66,2.77,12.36.49,18.54-1.77-4.49,3.15-12.79,4.92-20.61,3.62-.77,1.3-1.74,2.52-2.44,3.55h0Z"/>
      <path class="cls-5" d="m315.67,66.72c14.36,1.18,27.13.99,37.46-.59,13.08-2.01,22.34-6.93,23.77-15.63-8.56,3.25-16.95,5.07-25.98,6.23-9.92,1.28-21.59,1.84-30.52,1.21-1.14,1.58-1.5,2.34-2.52,3.78,4.14.6,10.35.96,14.91.88-4.64.74-7.95.84-14.61.89-.84,1.21-1.54,1.96-2.51,3.24h0Z"/>
      <path class="cls-5" d="m313.76,68.37c17.32,1.45,30.28,1.26,44.33-1.17-6.38,7.96-15.88,11.83-26.95,12.63-7.82.56-16.06-.69-25.49-2.27.98-.88,2.05-2.05,3.02-2.93,5.54.56,10.71.49,13.45-1.01-3.9.53-9.14.47-12.27-.16l3.91-5.09Z"/>
      <path class="cls-5" d="m296.06,84.47c3.62,3.03,13.11,3.65,19,3.57,8.88-.11,16.21-.14,25.13-7.38-6.26.65-12.43.91-18.04.7-6.77-.26-12.34-.98-17.68-2.95-1.07.65-2.42,1.78-3.49,2.43,1.86,1.74,4.47,2.43,7.25,2.99-4.66.34-6.55-.83-8.22-1.73-1.25.79-2.7,1.58-3.95,2.37h0Z"/>
      <path class="cls-5" d="m293.09,87.58c5.86-.18,11.58.49,15.43.99,6.2.81,9.62,2.22,12.38,4.19,1.86,1.33,1.64,2.66.12,3.48-3.9,2.13-10.42,2.49-14.44,2.65-7.85.31-16.96-2.15-19.61-4.3l2.09-2.92c4.39.66,11.03,1.02,15.28.45-5.66-.41-11.02-.64-13.15-1.98l1.91-2.56Z"/>
      <path class="cls-5" d="m286.66,96.59c7.22,1.14,14.73,3.85,16.5,6.43.99,1.44.62,2.22-.77,3.02-7.04,4.04-20.7.19-25.12-1.18l3.15-3.12c2.11-.13,5.07,1.48,6.82-.23-.98-.51-3.38-.98-5.75-1.15l5.16-3.78Z"/>
      <path class="cls-5" d="m272.55,113.48c4.04.67,7.53.59,11.19.21,2.59-.27,2.89-1.48,3.8-1.59,1.13-.13,3.05-.18,2.84-1.29-.66-3.46-10.9-4.25-14.84-3.95-1,.88-2.22,1.91-3.78,3,1.11.46,3.54.73,5.77,1.06-1.52.36-3.36.85-4.8,1.86l-.18.71Z"/>
      <path class="cls-5" d="m333.49,24.4c-5.43,7.08-15.43,13.9-28.81,17.78-6.3,1.82-13.35,4.67-19.06,5.42l1.21-3.22c7.68-1.62,13.32-4.2,15.46-5.54-3.59,1.55-7.98,2.82-10.46,3.18-1.3.19-2.13.05-2.58-.82-.43-.84-.03-1.8.29-2.63,12.33-2.46,29.34-7.57,43.96-14.17h0Z"/>
      <path class="cls-5" d="m331.11,30.65c-2.39,8.39-11.7,15.91-25.62,22.21-7.3,3.31-16.3,6.75-25.3,8.99-1.24.31-7.85,2.4-5.88-.95.42-.72.98-1.38,1.5-1.91,1.25-1.29,1.86-1.14,3.6-1.41,5.98-.92,7.99-2.73,11.73-5.98-4.82,2.77-7.71,3.96-12.68,4.14,2.69-2.41,4.16-3.8,6.08-7.05,4.61.1,9.53-.72,14.53-2.06,8.16-2.18,23.45-7.29,32.04-15.98h0Z"/>
      <path class="cls-5" d="m326.11,43.2c-6.55,12.04-14.75,17.05-27.54,22.4-5.67,2.37-11.98,4.94-19.02,6.57-.94.22-2.3-.57-3.67-1.73-1-.84-2.2-1.78-2.36-2.77-.24-1.43,1.37-2.7,4.05-3.61,6.58-1.62,12.59-3.45,18.02-5.24,12.22-4.02,20.71-6.86,30.52-15.64h0Zm-29.26,17.41c-3.82.93-7.13,1.84-10.45,2.97-2.12.72-4.25,1.57-6.51,2.66,1.27.26,3.09-.21,5.65-1.07,3.29-1.11,7.34-2.87,11.3-4.56h0Z"/>
      <path class="cls-5" d="m311.86,64.44c-.69,3.29-3.45,6.78-7.23,9.8-4.73,3.8-10.54,6.54-16.39,8.11-6.77,1.81-14.93,2.59-24.67,2.35.21-1.95.3-2.95,1.76-2.92,6.94.11,12.65-1.74,16.44-5.11-4.86,2.23-11.56,3.35-16.21,2.32,1.37-2.18,2.16-3.98,2.55-6.16,6.88.47,13.31.05,20.59-1.27,7.12-1.3,13.8-2.98,23.17-7.12h0Z"/>
      <path class="cls-5" d="m249.13,94.45c3.97-.66,6.03-3.12,8.19-6.26,3.25-1.35,12.02-2.2,17.91-1.88,2.43.13,4.43.49,5.43,1.16,1.59,1.06.03,2.49-.86,3.36-3.68,3.59-8.53,6.08-13.61,7.57-2.42.71-4.89.63-7.3.97-3.77.54-7.31,1.48-10.43,1.54.4-1.63.94-2.34,2.16-3.68,1.15.12,2.58.39,4.26.08,1.68-.3,2.48-1.29,5.96-1.83-2.73-.74-5.3.64-7.73.64-1.45,0-2.89-.46-3.98-1.68h0Z"/>
      <path class="cls-5" d="m244.96,110.19c.3-1.76.88-2.69,2.01-3.62,2,0,2.94.2,4.93.2-.46-1.3-3.7-.84-5.83-1.17-1.66-.55,1.82-3.9,4.4-3.68,4,.35,8.13.46,12.46-.28,5.97-1.01,11.17-3.65,16-5.34.03,3.56-5.32,9.02-11.59,11.3-5.54,2.02-12.84,2.9-22.39,2.58h0Z"/>
      <path class="cls-5" d="m245.19,111.94c8.95-.09,12.33-1.34,16.6-1.5,2.88-.11,6.48,0,9.18,1.16.72.31,1.15.7-.36,1.66-5.25,3.35-11.38,4.49-17.22,4.96-6.22.5-11.86.4-16.36.33l3.22-2.38c3.73.11,5.8.02,8.15-.35-2.32-.09-6.1.09-6.96-1.05l3.76-2.83Z"/>
      <path class="cls-5" d="m234.68,126.29c6.72-.19,13.26,2.21,19.45,2.2,3.02,0,6.48-1.11,8.88-2.7,1.98-1.32,2.36-2.52.4-3.67-2.64-1.56-6.14-2.21-10.13-2.46-6.43-.4-14.04-.2-18.35-.16l1.21,3.66c3,.7,5.56.84,8.49,1.12-2.44.3-5.02.4-8.71.22l-1.24,1.81Z"/>
      <path class="cls-5" d="m226.66,129.32c2.28-1.92,10.59-.98,14.91-.12,3.78.75,7.54,1.31,10.19,3.74.98.9,1.17,1.39.27,2.38-1.44,1.59-3.75,2.45-5.48,2.69-2.52.34-4.1-.67-6.5-1.29-1.54-.39-3.52-.76-6.41-.87,2.97,1.11,5.4,2.4,6.72,3.98,1.03,1.22,1.44,2.61,1.08,4.2-.98,1.2-2.97,1.93-4.32,2-1.06.06-2.23-.2-3.31-.78-1.8-.97-3.33-2.75-5.12-4.08-1.61-1.2-3.19-1.72-4.72-2.84.38-.35,1.73-.87,3.04-.84-.65-.84-1.27-1.6-1.12-2.51.79-.42,1.88-.44,3.43-.16-.46-1.18-2.31-2.25-3.61-3.08,2.27-1.46,6.35.43,7.37-.06-2.88-.62-4.38-1.37-6.41-2.35h0Z"/>
      <path class="cls-5" d="m285.73,39.92c-1.91,6.46-5.71,12.18-10.64,14.75-2.24,1.17-4.87,1.57-7.67,1.43-3.64-.18-2.75-3.6-2.41-5.6,4.33-.97,7.71-1.74,10.88-3.27,3.59-1.74,6.97-4,9.84-7.31h0Z"/>
      <path class="cls-5" d="m254.19,60.44l-.78,5.96c1.97.26,4.69.12,7.27-.65,3.32-1,6.38-2.98,6.69-5.83.18-1.62-3.18-1.66-6.79-1.08-2.31.37-4.87.99-6.39,1.6h0Z"/>
      <path class="cls-5" d="m246.4,75.63c4.26.45,7.81.42,10.95.02,5.37-.68,11.04-3.92,13.68-8.39.99-1.68.88-2.77-1.09-2.75-1.53.02-3.11.44-4.96.99-1.85.55-3.87,1.33-6.08,1.88-2.66.66-5.45.81-7.43.8-.81,0-1.48,1.74-1.04,3.69,2.09.32,3.84-.86,4.89.02-2.09,1.11-4.79,1.11-6.52,1.18-1.05.4-1.82.98-2.38,2.56h0Z"/>
      <path class="cls-5" d="m244.45,78.02c3.16-.05,6.14.17,9.3.13,2.09-.03,4.21-.08,6.28-.21,1.22-.08.88,1.25.28,1.9-1.85,2-6.31,4.78-8.32,4.81l-6.11.11c-1.29.02-2.38-.2-2.88-.52-.65-.43.77-2.24,1.28-2.78.65-.7,2-.59,2.58-1.12-3.61-.55-2.69-1.55-2.41-2.31h0Z"/>
      <path class="cls-5" d="m241.02,84.53c-1.96.99-3.79,3.03-1.31,3.47.85.15,2.11,0,3.33.1.99.09.77.74-.06.83-1.63.18-4.27,0-5.92.16l-3.01,3.21c5.16.59,13.35,1.46,18.16-1.55,2.91-1.82-.57-3.58-2.13-4.11-2.78-.95-6.39-1.45-9.07-2.1h0Z"/>
      <path class="cls-5" d="m233.81,94.63c7.63-.71,17.17.07,14.06,3.76-4.88,5.78-11.71,6.02-16.82,5.75-1.07-1.23-.72-2.1.06-2.74,1-.83,2.73-1.36,3.09-2.47.24-.73.01-1.66-.36-2.72-.16-.46-.25-1.06-.04-1.57h0Z"/>
      <path class="cls-5" d="m231.79,106.78c-1.48,3.48-4.88,4.96-2.69,5.11,1.85.12,3.45-.03,3.34.71-.6.67-2.66.41-4.1.52l-2.15,3.74c2.5,2.64,6.96,1.17,10.55-1.14,1.9-1.22,3.59-2.36,4.57-3.83,1.27-1.88,1.27-4.9-1.01-5.23-1.06-.15-2.26.03-3.43.08-1.96.07-3.96.1-5.08.04h0Z"/>
      <path class="cls-5" d="m224.74,118.26c1.28.79,3.75,2.01,8.02,2.18,0,3.62-2.31,5.91-4.95,6.76-2.64.85-4.28.88-8.97.45-.3-.03-.05-1.59.22-2.04.72-1.15,2.07-.83,3.56-.82,1.23-1.11-2.14-1.79-3.2-2.21,3.04-1.6,4.5-3.2,5.32-4.31h0Z"/>
      <path class="cls-5" d="m214,130.95c1.61-2.89,10.32-1.57,10.43,2.94.06,2.24-2.95,2.89-4.89,2.56-1.27-.22-1.42-1.15-2.69-1.96-1.08-.69-2.2-.48-3.42-.61.23-1.6,2.7-1.32,3.91-1.6-1.11-1.06-2.23-1.18-3.34-1.33h0Z"/>
      <path class="cls-5" d="m211.21,134.93c4.1.21,15.81,4.86,18.14,8.95.65,1.15.74,2.25-.49,3.2-.92.71-7.1,1.46-9.95.18-1.57-.7-2.59-1.77-3.81-2.75-2.05-1.63-4.33-3.2-8.17-3.72l.46-3.02c2.04.51,4.1,1.11,5.22,1.81.4-1.02-1.38-1.66-3.76-2.68.51-.68,1.45-2.01,2.37-1.97h0Z"/>
      <path class="cls-4" d="m177.49,121.36c.18-3.77.07-12.6-1.73-21.53-1.38-6.84-3.71-13.74-7.9-18.45-9.19-10.34-24.22-14.52-40.55-22.31-6.42-3.06-13.14-7.61-19.73-11.84-2.44-1.57-4.82-3.22-7.36-4.63-.75-.41-1.31-.39-1.37.93-.19,7.15,12.7,12.83,15.58,14.44-7.17-.39-8.61.88-8.91,2.2-.76,3.41,10.94,12.66,26.56,15.04-1.81-1.5-3.26-3.23-2.82-6.02-4.36-.18-7.9-2.45-8.64-4.5.62.27,1.11.43,1.69.8,2.21,1.43,3.73,2.45,7.11,2.79.58-1.12,1.73-2.5,3.74-1.66,2.28.97,5.53,3.48,9.43,5.53,4.4,2.32,9.18,3.26,13.47,4.8l1.81,2.51c-.19,2.48.56,6.18,2.05,8.07,2.04,2.59,5.19,4.28,7.81,7.48,1,1.21,1.91,2.73,2.67,4.49,1.71,3.98,1.99,6.46,2.3,17.46,1.5,1.24,3.7,3.14,4.79,4.38h0Z"/>
      <path class="cls-4" d="m136.62,81.02c-3.25-1.7-3.9-2.29-4.37-4.81-1.91.09-3.79-.13-5.68-.43-1.32-.21-3.87-1.35-5.72-2.29-4.18-2.15-7.09-3.66-9.2-3.96-1.71-.23-2.1.02-2.02,1.73.22,5.2,6.32,9.09,14.27,9.13-3.18.26-4.34.85-6.83.69,1.85,5.02,7.72,7,13.5,7.16-1.37,1.5-3.4,1.76-4.79,2.05-2.86.58.93,4.53,6.18,6.6,5.25,2.07,11.77,2.26,13.6,2.17.62-5.31-2.59-2.97-3.99-4.46,1.57.13,4.25.34,5.05-1.12-1.85-1.16-3.21-1.39-5.17-2.6-2.31-1.43-4-3.29-5.31-5.24-1.05.07-2.09.06-3.13-.14-.35-.07-.84-.29-1.05-.5,1.68,0,3.71,0,4.87-.84-.11-.75-1.36-1.3-2.86-1.79-1.69-.55-3.68-1-4.66-1.56.21-.38.88-.56,1.77-.42,1.68.27,3.71,1.66,5.53.64h0Z"/>
      <path class="cls-4" d="m157.03,85.21c-4.42.02-9.98-1.64-14.01-3.26-6.5-2.62-12.2-6.88-11.75-12.7.09-1.18.89-1.91,2.02-1.26,7.96,4.58,10.71,7.07,21.79,9.56.56,1.16.56,2.8,0,3.96-3.16-.7-6.31-1.39-9.47-2.09,2.25,1.11,5.32,2.14,9.61,3.06.6.97,1.21,1.76,1.81,2.73h0Z"/>
      <path class="cls-4" d="m165.64,98.08c-2.51-2.27-5.21-5.12-7.71-7.4-4.04.34-7.96-1.42-9.52-2.55,2.76,1.15,8.91,2.78,9.26,1.49-.41-1.35-1.04-2.46-1.64-2.98-2.78-.51-6.34-1.41-9.31-2.39-2.8-.93-5.58-1.99-8.19-3.1-.91-.39-1.16.36-1.17.77-.14,3.75,4.5,7.88,11.29,10.9,4.64,2.07,10.87,4.09,17,5.25h0Z"/>
      <path class="cls-4" d="m164.84,98.62c4.71,3.85,5.66,7.06-1.67,7.94,1.62.05,2.77.09,4.4.14l.81,5.71c-3.87.36-6.89-.38-8.41-.84,1.06.89,2.68,1.14,4.22,1.43,2.11.41,4.09.74,4.29,1.4,0,.93.06.94.06,1.87-6.62.36-14.46-1.92-18.62-4.86-3.44-2.44-4.99-6.5-4.16-8.47.36-.83,1.42-1,3-.54,2.93.85,7.62,3.18,10.66,2.9-3.04-.84-6.6-2.26-9-4.11-2.13-1.64-2.81-3.1-3.05-5.2-.1-.81.16-1.41,1.46-.85,5.03,2.17,9.22,3.89,16.02,3.47h0Z"/>
      <path class="cls-1" d="m255.41,154.56c-3.58,1.06-3.58,2.21-7.16,2.68-1.77.23-4.38-.37-4.94-1.57,3.22.06,5.23-.12,7.93-2.27-1.52.04-6.24-.06-11.09-1.65-2.72-.89-5.41-2.42-7.75-4.12-1.83,2.98-4.98,2.56-6.24,2.7-1.7,3.63-4.85,5.54-7.71,5.39-2.38-.12-4.24-.46-6.47-1-3.05-.74-6.03-2-9.04-2.87-1.21-.35-2.41-.21-3.63-.66-1.9-.7-3.87-1.87-3.92-5.15,1.03.31,2.9,1.81,4.6,1.69,1.93-.14,1.59-1.61,3.23-1.73,2.89-.22,7.81,2.7,8.74,4.31-1.54.57-5.91-1.78-8.04-1.86-.49-.02-.47,1.21.11,1.74,2.08,1.9,7.5,2.93,10.69,3.12,2.81.16,6.84-.46,7.09-2.36-5.01-1.91-8.57-6.09-13.82-8-4.35-1.58-7.62-.32-10.13-1.11-3.56-1.12-8.11-7.38-12.66-10.12,2.7-2.28,5.7-4.6,7.92-7.38,2.11-2.65,2.23-5.49,3.63-8.15,1.08-2.07,3.35-2.82,3.82-5.32.39-2.06-.54-5.91-.25-8.07.25-1.85,2.73-4.22,2.85-6.14.29-4.55-1.38-4.77-.61-7.28,3.62-11.79,7.32-22.46,11.61-26.46,7.31,0,13.75.18,21.05.17,3.94-1.85,6.08-3.77,7-4.93,1.04-1.29.49-1.73-.75-2.37-2.73-1.41-9.84-3.21-9.04-5.04,16.71.8,28.23-.36,36.67-3.29,9.87-3.43,15.44-9.24,20.3-14.94-11.47,5.16-23.09,7.92-34.38,10.09-14.57,2.8-28.6,4.38-40.16,10.62-5.76,3.11-10.33,7.45-13.23,12.45-1.28,2.2-2.31,4.43-2.96,6.86-1.24,4.62-1.04,8.77-.55,13.47.5,4.78,1.11,9.58-.67,16.77-2.47,9.92-11.28,18.59-17.95,21.9-.53.65-.57,1.5-.89,2.01-.52.85-1.05,1.06-1.01,1.75,3.06,3.06,3.23,6.07,2.16,7.92-.8,1.38-1.72,2.32-4.03,3.28,1.5,1.13,1.97,4.61.64,6.05-1.24,1.34-2.38,2-6.59,2.49,1.11,1.8,1.48,3.64,1.09,4.82-.39,1.18-1.73,2.24-3.47,3.23.76,1.85.02,3.19-1.27,4.3.17,2.06-.68,2.82-.03,4.81,7.2,6.59,15.72,11.28,23.35,13.51,1.46.43,1.21-1.04.81-1.73-2.52-4.28-4.83-6.68-3.72-17.79.17-1.74,1.68-.59,1.64.54-.14,4.46-.26,7.66.88,10.74,1.54,4.18,4.64,5.28,7.98,8.18,1.25,1.08,3.52,2.67,4.83,4.86,1.05,1.75,1.45,3.46,2.23,4.49.69.9,1.75.99,2.61.39v-4.05s1.49.02,1.49.02l-.02,3.98c1.98-.09,2.93-2.06,4.59-3.2,1.77-1.22,4.53-2.2,5.04-3.97.77-2.68-.47-6.23-4.05-10.39,1.71.21,2.9-.09,3.24-.69,1.03-1.79-3.2-6.25-5.13-7.68,3.62-.62,3.21-1.58,3.3-4.73,1.63.68,1.97,1.63,2.22,2.32.66,1.89-1.12,2.32-.74,3.57.43,1.41,3.67,2.41,4.23,4.49.64,2.38-3.19,3.73-.86,7.81,4-.1,5.25,2.07,8.11,1.97,2.18-.08,3.56-.91,5.1-1.55,2.25-.94,6.05-1.7,10.96-1.06,5.25.68,8.65,4.76,13.36.72-.48-1.11-.98-1.32-1.25-2.16-1.04-3.21,3.01-2.46,3.41-4.73.47-2.68-4.56-2.05-4.85-3.46,1.08-.86,1.94-1.84,2.3-2.94.79-2.4-.03-6.07-1.76-8.21h0Z"/>
      <path class="cls-1" d="m214,70.92c.4,1.18,7.3,1.6,10.73.55,1-.3,3.1-2.06,4.25-3.17,1.38-1.34,1.64-2.05.61-2.25-3.98-.78-8.23-.83-14.64-.88-.97,1.95.66,3.47,1.5,4.58-.88.14-1.84.6-2.44,1.16h0Z"/>
      <path class="cls-1" d="m212.53,75.17c1.2.17,2.68.08,3.32.25.97.25-.72,1.42-1.51,1.85-.84.46-2.13,0-2.85.33-.24.11-.39,1.52-.33,2.43.04.63.03,1.15.75,1.2,2.31.14,4.42.33,6.21.25,2.55-.12,5.48-.75,5.73-2.95.29-2.62-2.86-5.49-7.58-5.61-.53-.02-1.69.12-2.48.53-1.15.59-1.83,1.64-1.26,1.72h0Z"/>
      <path class="cls-1" d="m209.3,84.67c.94-.06,3.79-.27,6.65-.03,2.68.23,5.4.87,5.17,2.76-.19,1.63-1.33,3.04-2.74,4.09-1.65,1.23-3.93,2.27-6.4,2.27-1.29,0-3.12-.57-3.96-1.75.05-1.21.09-1.36.14-2.57,1.72-.18,3.98-.5,4.49-1.75-1.25-.09-2.16.13-3.41.21-1.03.07-.19-3.2.07-3.24h0Z"/>
      <path class="cls-1" d="m207.02,97.93c-.57-1.19.07-1.93,1.26-2.2,4.78-1.07,8.14,2.96,7.38,5.88-.46,1.77-2.27,3.63-4.4,4.3-2,.63-4.85-.11-6.01-1,.21-1.71.72-3.09,1.77-4.48,1.83.2,3.23,0,4.29-.19-.28-.89-.75-1.71-1.35-1.9-.69-.21-2.6.31-2.94-.41h0Z"/>
      <path class="cls-1" d="m203.13,111.23c-.32-.97-.3-2.43.47-3.3,3.9-.69,8.59.91,8.58,4.21-.01,4.17-5.27,6.03-10.72,4.49-.55-2.13.32-3.11,1.04-3.61.91-.09,1.6,1.32,2.77.79.39-.18.55-2.09-2.13-2.57h0Z"/>
      <path class="cls-1" d="m208.43,125.74c-4.19-.91-9.28,1.63-12.49.5-.22-.08-.79-2.27.28-3.03.47-.33,2.04-.76,3.57-.99-.84-1.29-1.36-2.09-1.2-2.86.32-1.55,1.7-1.22,2.78-.87,1.83.59,2.98,1.97,4.51,4.99,6.05-.58,10.96-.9,10.79.78-.28,2.79-3.7,5.07-6.53,5.51-1.94.3-3.85-.41-3.9-1.82-.04-1.26.89-1.79,2.2-2.21h0Z"/>
      <path class="cls-1" d="m189.69,132.79c2.7,3.29,10.09,7.56,13.99,5.38,4.36-2.44-.66-7.63-3.77-9.21-2.75-1.39-6.18-1.81-7.65-.66-1.31,1.03-.83,2.03-.18,2.18,1.77.41,2.96.76,3.94,1.01.72.18.65,1.42-.04,1.21-1.83-.54-3.61-1.06-6.1-1.35-1.31-.15-.63.91-.2,1.45h0Z"/>
      <path class="cls-1" d="m246.67,59.49c5.69,1.55,12.64-1.11,16.48-6.9.54-.82-.2-.62-.42-.56-4.72,1.42-8.38,1.31-14.2.96-1.34-.08-1.61.81-.97,1.76.38.57,1.15,1.2,1.25,1.84.18,1.07-1.13,1.95-2.15,2.9h0Z"/>
      <path class="cls-1" d="m245.45,60.88c.82.46,1.73.91,2.71,1.2,2.16.63,4.21.68,3.98,1.27-1.79,4.69-6.12,6.89-8.22,7.05-2.88.21-8.95-.8-7.52-3.86,2.74-.42,5.1.03,7.84-.39-4.25-.91-5.86-.91-4.63-2.19.74-.77,4.66-3.73,5.84-3.07h0Z"/>
      <path class="cls-1" d="m231.12,69.81c3.32.1,10.73,2.86,9.05,4.56-3.23,3.28-11.88,4.12-13.25,3.57-.56-.7-.88-2.25-.61-3.08,2.7.16,5.65.06,7.57-.21.36-.05,1.09-1,.72-1.02-2.89-.16-4.9.21-8.08-.06,1.53-1.25,2.69-2.01,4.6-3.76h0Z"/>
      <path class="cls-1" d="m222.67,83.45c.31-1.92,3.05-2.35,5.97-2.33,4.86.02,8.94,2.72,5.95,6.37-3.04,3.7-10.6,2.68-12.09,2.54.28-1.81.37-3.14.64-4.95,1.02-.3,2.15-.53,4.37-.45.84.04.48-.82.14-.9-1.58-.38-3.34-.19-4.97-.28h0Z"/>
      <path class="cls-1" d="m218.23,97.72c1.5-.42,3.17-.48,4.48-.6.73-.07,1.18-.23.26-.8-1.16-.73-3.75-.32-5.16-.46-.58-2.18,1.37-3.92,2.86-4.05,4.62-.41,11.01,1.32,10.45,3.61-.6,2.38-3.73,4.48-6.67,5.26-2.03.54-4.91.57-6.28-.23-.36-.21-.78-2.5.06-2.73h0Z"/>
      <path class="cls-1" d="m218.49,105.73c-.52-.02-1.53-.12-3.38.34,1.05-1.98,4.78-3.34,7.52-3.34,3.62,0,7.26,2.46,6.12,4.55-1.57,2.89-6.3,4.4-9.23,4.62-.35.03-.8-.16-1.11-.6-.59-.84-1.66-2.3-2.29-2.82-.62-.51-.57-1.24.03-1.42,1.04-.32,1.84-.25,2.56-.3.63-.04.85-1-.23-1.03h0Z"/>
      <path class="cls-1" d="m214.27,113.53c3.13-.27,8.52.05,8.5,2.02-.04,2.43-3.52,5.6-5.65,5.78-.94.08-3.44-.26-4.62-.86-1.12-.58-1.7-1.49-1.51-2.7.05-.32.68-.72,1.52-.92,1.41-.32,3.43-.32,4.47-.27.65.04.71-.64,0-.84-1.26-.33-2.36-.28-3.76-.07-.95.14-.83-2,1.05-2.16h0Z"/>
      <path class="cls-2" d="m189.19,325.15h-4.17v-14.32c-1.52,1.3-3.32,2.26-5.38,2.88v-3.45c1.08-.32,2.27-.94,3.55-1.84,1.27-.91,2.15-1.96,2.62-3.17h3.38v19.9Z"/>
      <path class="cls-8" d="m198.48,320.57l4.04-.41c.1.75.36,1.3.77,1.66.41.36.96.54,1.64.54.86,0,1.59-.36,2.19-1.08.61-.72.99-2.21,1.16-4.49-1.05,1.11-2.36,1.67-3.93,1.67-1.71,0-3.19-.61-4.43-1.8-1.24-1.2-1.86-2.77-1.86-4.7s.66-3.63,1.97-4.86c1.31-1.23,2.98-1.85,5-1.85,2.21,0,4.02.78,5.43,2.34,1.41,1.55,2.12,4.11,2.12,7.67s-.74,6.24-2.22,7.84c-1.47,1.6-3.39,2.4-5.75,2.4-1.7,0-3.07-.41-4.12-1.24-1.05-.82-1.72-2.05-2.02-3.7h0Zm9.43-8.3c0-1.23-.31-2.18-.93-2.85-.62-.68-1.34-1.02-2.14-1.02s-1.41.28-1.92.83c-.51.56-.77,1.46-.77,2.73s.28,2.22.83,2.82c.55.6,1.25.9,2.08.9s1.48-.29,2.02-.86c.55-.57.82-1.43.82-2.54h0Z"/>
      <path class="cls-8" d="m223,305.25c2.11,0,3.75.69,4.94,2.06,1.41,1.62,2.12,4.31,2.12,8.07s-.71,6.44-2.14,8.08c-1.18,1.35-2.82,2.02-4.93,2.02s-3.82-.74-5.11-2.22c-1.3-1.48-1.95-4.12-1.95-7.92s.72-6.42,2.14-8.05c1.18-1.35,2.82-2.03,4.92-2.03h0Zm0,3.15c-.5,0-.95.15-1.35.44-.39.3-.7.82-.92,1.58-.28.98-.43,2.63-.43,4.96s.13,3.92.39,4.79c.26.87.58,1.45.97,1.74.4.28.84.43,1.34.43s.96-.15,1.35-.44c.4-.29.7-.82.92-1.57.28-.97.43-2.62.43-4.95s-.13-3.92-.39-4.8c-.26-.87-.58-1.45-.97-1.74-.4-.29-.84-.44-1.34-.44h0Z"/>
      <path class="cls-8" d="m247.35,310.19l-4.03.41c-.09-.76-.35-1.32-.77-1.68-.41-.36-.96-.54-1.62-.54-.88,0-1.62.36-2.23,1.08-.61.72-.99,2.22-1.15,4.5,1.04-1.12,2.33-1.68,3.87-1.68,1.74,0,3.23.61,4.47,1.81,1.24,1.21,1.86,2.77,1.86,4.68,0,2.03-.66,3.65-1.96,4.88-1.3,1.22-2.98,1.84-5.03,1.84-2.19,0-4-.77-5.41-2.33-1.41-1.55-2.12-4.1-2.12-7.64s.73-6.25,2.21-7.85c1.47-1.61,3.39-2.41,5.74-2.41,1.65,0,3.02.42,4.1,1.26,1.09.84,1.77,2.07,2.07,3.67h0Zm-9.44,8.28c0,1.24.31,2.19.93,2.86.62.68,1.34,1.01,2.13,1.01s1.41-.28,1.93-.83c.52-.55.77-1.45.77-2.7s-.27-2.23-.83-2.83c-.55-.6-1.25-.9-2.08-.9s-1.48.29-2.03.86c-.56.57-.83,1.42-.83,2.54h0Z"/>
    </g>
  </g>
</svg>