<?xml version="1.0" encoding="UTF-8"?>
<svg id="Layer_2" data-name="Layer 2" xmlns="http://www.w3.org/2000/svg" viewBox="0 0 509.6 682.03">
  <defs>
    <style>
      .cls-1, .cls-2, .cls-3, .cls-4, .cls-5, .cls-6 {
        stroke-width: 0px;
      }

      .cls-2 {
        fill: #fab815;
      }

      .cls-3 {
        fill: #e1171a;
      }

      .cls-4 {
        fill: #ba6916;
      }

      .cls-5 {
        fill: #fff;
      }

      .cls-6 {
        fill: #00579f;
      }
    </style>
  </defs>
  <g id="Ebene_1" data-name="Ebene 1">
    <path class="cls-5" d="m128.5,550.88C68.12,465.64,25.41,369.05,9.65,265.62,1.33,210.78-1.87,153.96,1.07,98.6h138.95c3.73-26.25,16.81-49.72,35.6-67.22,44.96-41.84,113.39-41.84,158.35,0,18.8,17.5,31.88,40.97,35.6,67.22h138.95c2.95,55.35-.26,112.18-8.58,167.02-15.77,103.43-58.47,200.02-118.85,285.26-36.99,52.06-77.1,90.96-126.3,131.15-49.2-40.45-89.14-78.92-126.3-131.15Z"/>
    <path class="cls-1" d="m249.78,666.09c-42.97-33.61-81-75.1-113.39-120.84-60.03-84.55-101.61-178.71-117.21-281.1-7.54-49.64-9.96-100.31-9.35-147.7,0-4.07,4.16-8.14,8.23-8.14h130.72c3.2-54.83,50.85-98.84,106.03-98.84s102.83,44.01,106.03,98.84h130.72c4.07,0,8.23,4.07,8.23,8.14.61,47.38-1.82,98.06-9.36,147.7-15.59,102.39-57.17,196.55-117.21,281.1-32.4,45.74-70.43,87.23-113.39,120.84-2.43,1.9-7.62,1.9-10.05,0Z"/>
    <path class="cls-2" d="m165.06,116.53c0,4.16-4.16,8.32-8.23,8.32H26.28c-.17,44.27,2.34,91.04,9.27,136.87,15.25,99.79,55.79,191.53,114.26,274,30.32,42.62,65.49,81.52,104.99,113.31,39.5-31.79,74.67-70.69,104.99-113.31,58.47-82.47,99.01-174.21,114.26-274,6.93-45.83,9.44-92.6,9.27-136.87h-130.55c-4.07,0-8.23-4.16-8.23-8.32,0-48.51-39.07-90.44-89.74-90.44-50.68,0-89.74,41.93-89.74,90.44Z"/>
    <path class="cls-1" d="m241.89,141.74H43.26c.43,35.86,2.69,71.9,7.54,107.42h116.77l74.33-68.26v-39.16h0Z"/>
    <path class="cls-1" d="m458.81,249.16c4.85-35.52,7.1-71.55,7.54-107.42h-198.63v39.15l74.33,68.26h116.77Z"/>
    <path class="cls-1" d="m436.02,348.87c7.8-24,14.12-48.68,18.62-73.81h-122.66l-77.18-70.95-77.18,70.95H54.95c4.5,25.12,10.83,49.81,18.62,73.81h362.44Z"/>
    <path class="cls-1" d="m254.8,627.2c34.48-29.54,64.97-64.19,91.22-101.27,33.35-46.95,60.9-97.63,81-151.08H82.59c20.1,53.45,47.65,104.12,81,151.08,26.25,37.08,56.74,71.73,91.22,101.27Z"/>
    <path class="cls-5" d="m236.78,146.85H48.46c.26,16.03.95,32.14,1.99,48.34,1.13,16.54,2.77,32.83,4.85,48.86h110.28l71.21-65.4v-31.79h0Z"/>
    <path class="cls-5" d="m454.3,244.05c2.08-16.02,3.73-32.31,4.85-48.86,1.04-16.2,1.73-32.31,1.99-48.34h-188.33v31.79l71.21,65.4h110.28Z"/>
    <path class="cls-6" d="m432.3,343.76c3.46-10.74,6.58-21.66,9.36-32.83,2.6-10.22,4.85-20.44,6.84-30.67h-118.42l-75.28-69.21-75.28,69.21H61.1c1.99,10.22,4.24,20.44,6.84,30.67,2.77,11.17,5.89,22.09,9.35,32.83h355Z"/>
    <path class="cls-3" d="m103.72,210.18v-49.64h-24.6v50.24c0,3.99,2.34,7.36,7.45,10.83,7.45,4.59,19.4,6.84,35.95,6.84,27.98,0,41.67-6.32,41.67-19.4v-49.12h-25.12v49.12c0,7.36-5.72,11.43-16.54,11.43-12.56,0-18.8-3.47-18.8-10.31Z"/>
    <path class="cls-3" d="m412.72,193.02c0-14.81-8.58-22.78-25.12-24.51l-17.67-.61v50.85l18.8-1.13c14.55-2.43,23.99-7.54,23.99-24.6h0Zm23.99.61c0,27.89-34.13,33.09-54.83,33.09h-36.47v-67.31h33.61c38.29,0,57.69,11.35,57.69,34.22Z"/>
    <path class="cls-1" d="m254.8,42.38c40.45,0,73.46,33.18,73.46,73.63h-146.92c0-40.46,33.01-73.63,73.46-73.63Z"/>
    <path class="cls-2" d="m254.8,110.56c12.65,0,23.04-10.39,23.04-23.13s-10.4-23.13-23.04-23.13-23.04,10.4-23.04,23.13,10.4,23.13,23.04,23.13Z"/>
    <path class="cls-5" d="m254.8,47.49c35.95,0,65.58,28.07,68.09,63.41h-52.32c7.45-5.11,12.47-13.69,12.47-23.48,0-15.51-12.73-28.24-28.24-28.24s-28.24,12.73-28.24,28.24c0,9.79,5.02,18.37,12.48,23.48h-52.32c2.51-35.34,32.14-63.41,68.09-63.41Z"/>
    <rect class="cls-5" x="355.55" y="287.27" width="11.95" height="47.9"/>
    <polygon class="cls-5" points="141.58 335.79 141.58 287.79 153.53 287.79 153.53 330.07 177.53 330.07 177.53 335.79 141.58 335.79"/>
    <polygon class="cls-5" points="263.64 329.46 285.29 329.46 285.29 335.79 251.68 335.79 251.68 287.79 285.29 287.79 285.29 294.12 263.64 294.12 263.64 307.81 283.04 307.81 283.04 314.65 263.64 314.65 263.64 329.46"/>
    <polygon class="cls-5" points="224.31 300.96 211.75 316.9 209.5 316.9 197.45 301.48 197.45 335.79 185.5 335.79 185.5 287.79 197.45 287.79 210.97 304.95 224.31 287.79 236.26 287.79 236.26 335.79 224.31 335.79 224.31 300.96"/>
    <path class="cls-5" d="m326.96,301.48c0-6.93-6.06-7.36-11.43-7.36v14.81c5.37,0,11.43.17,11.43-7.45h0Zm-7.36,13.69h-4.07v20.62h-11.43v-47.99h11.43c6.06,0,14.99.69,20.1,4.68,3.12,2.6,5.02,7.28,3.98,11.26-1.13,4.33-5.28,7.19-9.79,8.66,9.01,2.51,14.12,15.07,16.03,23.39h-12.56c-2.6-5.72-7.02-19.23-13.69-20.62Z"/>
    <path class="cls-5" d="m401.72,299.84l-6.84,19.4h13.69l-6.84-19.4h0Zm-24.52,36.47l18.28-48.51h13.08l17.76,48.51h-12.04l-3.38-10.83h-17.76l-3.98,10.83h-11.96Z"/>
    <path class="cls-5" d="m107.88,299.84l6.84,19.4h-13.69l6.84-19.4h0Zm24.52,36.47l-18.28-48.51h-13.08l-17.76,48.51h12.04l3.38-10.83h17.76l3.99,10.83h11.95Z"/>
    <path class="cls-4" d="m254.8,410.54c-15.94,0-30.41,6.5-40.89,17.07-3.12,3.12-4.68,8.92-2.25,12.99,1.56,2.51,3.38,4.85,5.46,6.93,4.33,4.24,8.84.95,11.61-3.03,12.56-18.36,28.15-27.03,48.34-29.45-6.84-2.86-14.38-4.5-22.26-4.5h0Zm-49.55,28.07c3.29,7.54,8.58,13.34,15.25,17.76,6.84,4.5,15.25,7.45,24.6,9.1,6.06,1.04,6.15,1.47,7.02,8.75.52,3.73.17,7.36-.17,11.17.09,5.8-5.37,8.66-9.62,7.45-24.51-4.68-37.25-15.68-44.52-34.05,1.21-7.28,3.81-14.03,7.45-20.18h0Zm-8.23,31.01c.43,19.92,11,37.34,26.68,47.47,6.24,3.98,13.17,5.02,18.54-2.17,1.99-2.69,3.73-5.46,5.11-8.4,2.77-6.06-1.99-7.97-6.58-8.75-22.44-4.07-35.43-12.99-43.75-28.15h0Zm42.88,54.66c7.71-7.45,12.56-16.02,14.9-25.3,2.42-8.58,3.38-17.5,2.08-26.16-.95-6.15-.78-7.97,3.29-13.08,2.77-3.55,6.58-6.41,10.14-9.01,3.9-3.29,8.32-.26,9.88,3.81,10.05,24.77,2.77,46.95-11.78,70.08-4.33,1.04-8.92,1.56-13.6,1.56-5.11,0-10.13-.69-14.9-1.91h0Zm36.99-2.43c13.51-23.65,18.54-45.91,8.4-69.73-1.82-4.42-2.77-9.79,3.29-11.35,2.86-.78,5.89-1.21,8.92-1.21,6.5-.35,9.18,2.77,11.26,8.06,2.43,6.5,3.81,13.43,3.81,20.79,0,23.99-14.81,44.7-35.69,53.45h0Zm25.04-86.89c-8.14-.78-15.77.87-22.87,4.33-7.71,3.64-14.99,9.44-21.05,16.89-2.95,3.46-4.59,5.54-9.79,4.85-4.76-.69-9.27-1.73-13.34-3.12-4.85-1.65-4.76-7.02-2.25-10.57,13.25-19.49,29.89-27.11,52.58-28.15,6.5,4.07,12.21,9.44,16.72,15.77Z"/>
    <path class="cls-3" d="m179.7,379.96h-50.16v83.16c11.69,20.53,24.43,40.46,38.2,59.86,3.9,5.46,7.88,10.91,11.96,16.29v-159.31h0Z"/>
    <path class="cls-3" d="m329.91,539.27c4.07-5.37,8.06-10.83,11.95-16.29,13.77-19.4,26.51-39.33,38.2-59.86v-83.16h-50.16v159.31Z"/>
    <path class="cls-3" d="m279.83,410.98v-31.01h-50.07v31.01c7.71-3.38,16.2-5.29,25.04-5.29s17.33,1.91,25.03,5.29Z"/>
    <path class="cls-3" d="m254.8,620.44c8.58-7.54,16.89-15.33,25.03-23.47v-71.12c-7.71,3.38-16.2,5.2-25.03,5.2s-17.33-1.82-25.04-5.2v71.12c8.14,8.14,16.46,15.94,25.04,23.48Z"/>
    <path class="cls-5" d="m129.54,379.96h-39.5c9.18,23.74,19.92,46.95,32.05,69.48,2.43,4.59,4.94,9.1,7.45,13.69v-83.16Z"/>
    <path class="cls-5" d="m229.77,379.96h-50.07v159.31c9.88,13.08,20.36,25.73,31.36,37.94,6.06,6.76,12.3,13.34,18.71,19.75v-71.12c-22.09-9.7-37.6-31.88-37.6-57.43s15.51-47.73,37.6-57.43v-31.01h0Z"/>
    <path class="cls-5" d="m380.06,463.13c2.51-4.59,5.02-9.1,7.45-13.69,12.13-22.52,22.87-45.74,32.05-69.48h-39.5v83.16h0Z"/>
    <path class="cls-5" d="m279.83,596.96c6.41-6.41,12.65-12.99,18.71-19.75,11-12.22,21.48-24.86,31.36-37.94v-159.31h-50.07v31.01c22.09,9.7,37.6,31.79,37.6,57.43s-15.51,47.73-37.6,57.43v71.12h0Z"/>
  </g>
</svg>