<?xml version="1.0" encoding="UTF-8"?>
<svg id="Livello_2" data-name="Livello 2" xmlns="http://www.w3.org/2000/svg" xmlns:xlink="http://www.w3.org/1999/xlink" viewBox="0 0 349.92 494.88">
  <defs>
    <style>
      .cls-1 {
        fill: #0653b9;
      }

      .cls-1, .cls-2, .cls-3, .cls-4, .cls-5, .cls-6 {
        stroke-width: 0px;
      }

      .cls-1, .cls-3, .cls-4, .cls-5, .cls-6 {
        fill-rule: evenodd;
      }

      .cls-7 {
        stroke: #0653b9;
      }

      .cls-7, .cls-2, .cls-8 {
        fill: none;
      }

      .cls-7, .cls-8 {
        stroke-width: .16px;
      }

      .cls-3 {
        fill: #963c65;
      }

      .cls-4 {
        fill: #fff;
      }

      .cls-9 {
        clip-path: url(#clippath);
      }

      .cls-5 {
        fill: #c83637;
      }

      .cls-6 {
        fill: #e52c2a;
      }

      .cls-8 {
        stroke: #1b1918;
      }
    </style>
    <clipPath id="clippath">
      <rect class="cls-2" width="349.92" height="494.88"/>
    </clipPath>
  </defs>
  <g id="Livello_1-2" data-name="Livello 1">
    <g>
      <path class="cls-4" d="m176.14,4.41l171.52,245.74,1.3,1.85-1.33,1.83-172.09,236.39-2.59,3.55-2.56-3.56L1.41,254.89l-1.31-1.82,1.26-1.83L170.91,4.44l2.6-3.79,2.63,3.77Zm165.02,247.52L173.57,11.81,7.87,253l165.13,229.94,168.17-231.01Z"/>
      <g class="cls-9">
        <path class="cls-7" d="m176.14,4.41l171.52,245.74,1.3,1.85-1.33,1.83-172.09,236.4-2.59,3.55-2.56-3.56L1.41,254.89l-1.31-1.82,1.26-1.83L170.91,4.44l2.6-3.79,2.63,3.77Zm165.02,247.52L173.57,11.81,7.87,253l165.13,229.94,168.17-231.01Z"/>
      </g>
      <path class="cls-8" d="m130.73,134.42c-2.88,4.62-7.17,4.62-11.29,4.79-5.16.21-9.7-.07-17.1-1.74,1.98,3.94,5.13,7.29,9.35,10.18l-13.82,4.45c2.89,2.9,10.46,7.34,22.16,7,7.5,0,13.62-4.85,19.08-10.21l-7.54-14.46c10.27-6.58,24.81-10.59,38.68-11.31l-.07,22.45c-3.59,1.09-5.9,3.43-5.9,6.41,0,3.43,1.55,6.67,6.04,7.39v5.68s8.3,0,8.3,0v-5.55c4.49-.72,6.16-4.09,6.16-7.52,0-2.97-2.56-5.19-6.14-6.28v-22.57c14.2.67,23.7,3.8,38.57,10.94l-7.73,14.84c5.46,5.36,11.58,10.21,19.08,10.21,11.7.34,19.27-4.1,22.16-7l-13.82-4.45c4.23-2.89,7.38-6.24,9.36-10.18-7.41,1.68-11.94,1.96-17.11,1.74-4.15-.17-8.46-.16-11.34-4.87l.18.09,10.71-21.57-.87-.5c-11.66-9.44-30.42-14.44-49.2-14.89v-.28c2.93-.84,5.3-2.47,5.44-6.75-.05-3.67-2.12-6.04-5.44-6.35v-2.7c0-2.05-.09-4.7,4.13-4.7,4.95,0,8.96,5.98,8.96,5.98,0,0,.65-2.12-.67-4.3-6.97-11.57-11.85-24.68-16.66-34.92-5.93,13.76-12.82,27.05-16.24,34.57-1.01,2.22-1.05,4.16-1.05,4.16,0,0,3.84-5.48,8.78-5.48,4.22,0,4.44,2.56,4.44,4.62v2.76c-2.92.73-5.36,2.82-5.32,6.36-.04,3.89,2.09,6.22,5.32,6.84v.19c-17.62.54-37.18,6.43-52.15,15.03l12.56,21.94Zm-.35,254.87s3.47,1.25,8.74,1.24c6.95,0,7.43-1.47,8.76-3.29l-.05.03-8.2-13.42c10.97-6.02,21.89-9.12,30.7-9.82v-18.79h8.31s0,18.75,0,18.75c8.1.56,17.88,3.21,29.48,10.3l-6.4,13.31c1.17,1.65,2.02,2.93,8.5,2.93,5.27,0,8.74-1.24,8.74-1.24-.62,5.04-5.3,6.43-5.3,6.43,0,0,4.36,2.42,8.77,2.42,0,0-4.06,5.39-14.5,4.48-5.31-.47-10.73-3.37-10.73-6.74,0-2.9,2.98-7.45,3.81-8.65-4.43-2.3-13.16-6.22-22.36-7.11v15.28c0,.93-1.34,1.93-2.29,2.38v3.3l3.14,1.06c.33.11.57.46.55.93-.01.38-.26.7-.55.83-1.1.47-2.09.92-3.14,1.38v3.27c2.69.67,5.81,2.4,5.81,5.21,0,.79-6.79,26.08-7.59,28.2-.8-2.12-7.53-27.42-7.53-28.2,0-2.81,3.12-4.54,5.8-5.21v-3.38c-1.05-.38-2.27-.82-3.14-1.28-.31-.16-.45-.59-.45-.94,0-.31.18-.67.45-.81.98-.51,2.1-.75,3.14-1.06v-3.3c-.96-.45-2.51-1.28-2.51-2.21v-15.35c-9.29,1.04-17.9,4.65-22.1,6.85.62.89,3.92,5.77,3.92,8.82,0,3.37-5.42,6.27-10.73,6.74-10.44.91-14.5-4.48-14.5-4.48,4.41,0,8.77-2.42,8.77-2.42,0,0-4.68-1.39-5.3-6.43h0Z"/>
      <path class="cls-5" d="m134.19,113.72l-5.61,2.41-.94-1.98,8.67-3.72.65,1.38-2.05,11.23,6.21-2.67.94,1.98-9.31,4-.64-1.34,2.07-11.28Zm13.74,6.91c-3.72.98-6.79-1.29-7.83-4.83-1.07-3.65.35-7.24,4.18-8.25,3.74-.98,6.8,1.23,7.85,4.81,1.09,3.71-.3,7.24-4.17,8.26h-.03Zm-.51-2.09c2.48-.66,2.85-3.27,2.21-5.42-.63-2.13-2.43-4.11-4.84-3.48-2.5.66-2.86,3.27-2.23,5.45.62,2.11,2.46,4.09,4.82,3.46h.03Zm12.29-7.77c.84.4,1.43,1.19,1.85,2.05.32.66.64,1.33.98,1.99.17.32.39.76.62,1.04l.45.55-2.61.52-.16-.17c-.5-.54-1.2-2.13-1.51-2.82-.58-1.27-1.16-1.82-2.57-1.6l-1.1.21,1.12,5.21-2.46.48-2.71-12.59.33-.14c.97-.4,2.1-.7,3.13-.9,1.37-.27,2.9-.38,4.16.32.89.5,1.47,1.38,1.69,2.37.29,1.37-.22,2.62-1.22,3.48h0Zm-4.48-.24l1.25-.25c1.19-.23,2.3-.98,2.01-2.33-.31-1.45-1.62-1.58-2.88-1.33-.35.07-.79.17-1.16.3l.77,3.61Zm17.53,1.06c-.09-1.04-.15-2.08-.18-3.13l-.22-5.57,2.41-.08.51,13.1-2.33.08-4.44-6.27c-.57-.81-1.14-1.64-1.67-2.5.07,1.1.12,2.19.16,3.3l.22,5.66-2.41.08-.51-13.1,2.48-.08,4.46,6.25c.53.74,1.05,1.5,1.52,2.27h0Zm9.06,5.09c-3.83-.32-5.9-3.43-5.58-7.12.34-3.78,3.02-6.64,6.94-6.32,3.86.31,5.94,3.38,5.61,7.1-.34,3.86-2.96,6.67-6.94,6.35h-.04Zm.27-2.12c2.54.2,3.89-2.11,4.09-4.36.2-2.21-.77-4.63-3.25-4.83-2.57-.21-3.91,2.1-4.11,4.38-.2,2.19.8,4.62,3.27,4.82h0Zm10.05-7.67l-3.81-.79.48-2.15,10.12,2.09-.48,2.15-3.83-.79-2.41,10.66-2.47-.51,2.41-10.67Zm12.8,3.35l-5.79-1.96.76-2.05,8.97,3.03-.53,1.45-9.61,6.72,6.42,2.17-.75,2.05-9.64-3.25.52-1.41,9.65-6.74Zm5.12,9.36l-2.71,3.16-2.45-.9,9.32-10.67,2.43.89-.62,13.84-2.49-.91.19-4.07-3.67-1.34Zm3.85-.82l.13-3.16c.02-.29.04-.57.07-.86-.18.24-.37.47-.56.7l-2.11,2.42,2.47.9Z"/>
      <path class="cls-5" d="m132.56,124.95l2.18-11.86-.02-.05-5.93,2.55-.57-1.22,7.88-3.38.42.88-2.16,11.82.02.05,6.54-2.81.57,1.21-8.53,3.66-.4-.85Z"/>
      <path class="cls-5" d="m147.82,120.23c-3.28.86-6.26-.96-7.32-4.54-1.1-3.75.59-6.85,3.89-7.72,3.39-.89,6.3,1.01,7.33,4.52,1.19,4.05-.75,6.91-3.88,7.73h-.02Zm-.29-1.27c2.53-.66,3.3-3.27,2.51-5.95-.7-2.35-2.7-4.47-5.36-3.77-2.66.7-3.28,3.42-2.52,5.98.74,2.49,2.84,4.41,5.35,3.75h.02Z"/>
      <path class="cls-5" d="m152.1,105.91c.79-.32,1.96-.66,3.05-.88,1.74-.34,2.94-.24,3.87.28.73.39,1.27,1.14,1.48,2.09.34,1.57-.5,2.83-1.71,3.51v.05c1.03.13,1.79.87,2.38,2.06.77,1.59,1.32,2.69,1.66,3.11l-1.68.33c-.28-.3-.78-1.28-1.44-2.71-.73-1.58-1.55-2.07-3.04-1.84l-1.53.3,1.12,5.2-1.62.32-2.54-11.83Zm2.79,5.13l1.66-.32c1.73-.34,2.64-1.47,2.34-2.84-.33-1.55-1.65-2-3.37-1.66-.79.15-1.31.33-1.57.46l.94,4.36Z"/>
      <path class="cls-5" d="m165.21,115.82l-.48-12.25,1.82-.06,4.33,6.06c.99,1.41,1.8,2.66,2.44,3.91l.05-.02c-.21-1.63-.31-3.12-.38-5.01l-.2-5.14,1.56-.05.48,12.25-1.68.05-4.31-6.08c-.95-1.34-1.86-2.71-2.53-4.01l-.06.02c.15,1.54.23,3.01.31,5.05l.2,5.23-1.56.05Z"/>
      <path class="cls-5" d="m181.86,116.27c-3.4-.27-5.53-2.96-5.2-6.66.34-3.88,3.07-6.22,6.48-5.94,3.51.28,5.54,3.02,5.23,6.65-.37,4.19-3.24,6.22-6.49,5.96h-.02Zm.19-1.28c2.62.21,4.3-1.97,4.54-4.75.21-2.43-.89-5.07-3.64-5.29-2.75-.22-4.33,2.12-4.57,4.76-.22,2.57,1.05,5.07,3.64,5.28h.02Z"/>
      <path class="cls-5" d="m192.64,106.56l-3.81-.79.3-1.32,9.28,1.92-.3,1.32-3.83-.79-2.41,10.67-1.64-.34,2.42-10.67Z"/>
      <path class="cls-5" d="m195.63,117.25l10.18-7.11.02-.05-6.14-2.07.47-1.25,8.16,2.76-.34.91-10.13,7.09-.02.05,6.77,2.29-.46,1.25-8.83-2.98.32-.88Z"/>
      <path class="cls-5" d="m209.92,119.09l-2.71,3.15-1.59-.58,8.72-9.98,1.86.68-.58,12.95-1.65-.6.19-4.07-4.23-1.55Zm4.39.27l.15-3.73c.06-.84.16-1.59.25-2.31l-.06-.02c-.43.61-.91,1.25-1.43,1.86l-2.52,2.89,3.6,1.31Z"/>
      <path class="cls-3" d="m120.53,199.12c-3.79-2.91-6.71-4.84-9.37-6.04-2.6-1.17-4.98-1.64-7.69-1.64h0c-4.61-.06-8.2,2.3-10.81,5.67-3.47,4.47-5.23,10.67-5.4,15.48-.11,3.31,1.16,6.97,3.32,10.77,2.21,3.86,5.33,7.84,8.87,11.71h.02c.93,1.09,1.84,2.14,2.72,3.15,4.98,5.74,9.08,10.45,11.28,14.01,2.96,4.8,5.09,8.83,6.42,13.12,1.33,4.31,1.83,8.86,1.51,14.69-.63,12.31-5.02,23.42-11.59,31.41-6.62,8.05-15.46,12.97-24.94,12.83-4,0-7.8-.17-11.78-1.19-3.98-1.02-8.09-2.89-12.65-6.28l-.35-.26.03-.43,1.44-22.12.11-1.68,1.23,1.15c4.49,4.19,7.86,6.52,10.98,7.8,3.09,1.26,6.01,1.5,9.57,1.5,1.71,0,4.75-1.07,7.65-3.14,2.22-1.58,4.34-3.74,5.69-6.43.65-1.29,1.15-3.02,1.52-4.84.49-2.39.77-4.93.87-6.89.15-2.69-.36-5.99-1.62-9.44-1.12-3.06-2.83-6.23-5.21-9.18h0c-4.46-5.59-8.48-10.04-11.75-13.67-2.84-3.14-5.13-5.68-6.69-7.82-3.74-5.14-6.1-10.09-7.45-15.16-1.35-5.07-1.69-10.25-1.38-15.85.29-5.26,1.63-10.19,3.62-14.7,2.36-5.37,5.62-10.16,9.07-14.22,3.21-3.78,6.8-6.5,10.75-8.27,3.95-1.77,8.26-2.6,12.89-2.6,3.46,0,7.26.11,11.06.9,3.83.8,7.63,2.31,11.02,5.13l.32.27-.04.41-1.95,21.28-.13,1.44-1.15-.88Zm-8.72-7.49c2.5,1.12,5.2,2.85,8.55,5.36l1.78-19.43c-3.08-2.46-6.52-3.8-10-4.53-3.64-.76-7.35-.86-10.74-.86-4.42,0-8.5.78-12.24,2.45-3.74,1.67-7.14,4.25-10.19,7.85-3.36,3.96-6.53,8.62-8.82,13.83-1.91,4.36-3.21,9.1-3.48,14.15-.3,5.44.03,10.47,1.33,15.36,1.3,4.89,3.58,9.67,7.2,14.63,1.5,2.07,3.77,4.57,6.58,7.69,3.31,3.67,7.38,8.16,11.82,13.74,2.49,3.09,4.29,6.42,5.47,9.63,1.34,3.66,1.87,7.18,1.71,10.07-.11,2.02-.39,4.65-.9,7.13-.4,1.95-.94,3.81-1.66,5.24-1.48,2.95-3.78,5.3-6.19,7.01-3.18,2.27-6.6,3.44-8.57,3.44-3.74,0-6.82-.26-10.17-1.63-3.01-1.23-6.2-3.35-10.24-6.98l-1.3,20.04c4.25,3.09,8.07,4.81,11.75,5.76,3.79.97,7.49,1.13,11.39,1.13h0c8.98.14,17.38-4.55,23.7-12.25,6.36-7.75,10.61-18.52,11.23-30.49.3-5.64-.17-10.02-1.45-14.14-1.28-4.14-3.36-8.06-6.25-12.75-2.13-3.45-6.19-8.12-11.13-13.81-.88-1.02-1.79-2.06-2.72-3.14-3.62-3.96-6.82-8.02-9.07-11.98-2.31-4.03-3.66-7.97-3.53-11.61.18-5.08,2.05-11.66,5.73-16.4,2.9-3.73,6.9-6.35,12.08-6.29h0c2.94,0,5.5.5,8.34,1.78h0Z"/>
      <path class="cls-3" d="m144.39,172.45h26.16c16.55,0,27.78,6.6,34.14,19.39,6.3,12.65,7.78,31.37,4.93,55.78-1.38,11.87-2.82,22.89-5.06,32.57-2.26,9.73-5.35,18.11-10.04,24.62-4.71,6.54-10.55,10.98-17.21,13.78-6.63,2.79-14.04,3.96-21.92,3.96h-24.75l.08-.87,12.87-148.51.06-.73h.73Zm26.16,1.59h-25.43l-12.74,146.92h23.01c7.69,0,14.9-1.13,21.31-3.83,6.39-2.69,12-6.96,16.53-13.25,4.55-6.32,7.56-14.5,9.78-24.05,2.23-9.6,3.65-20.57,5.03-32.4,2.81-24.1,1.37-42.52-4.78-54.89-6.08-12.21-16.83-18.51-32.72-18.51h0Zm-6.38,17.51l-9.66,110.77h1.95c3.54.11,7.79-.89,11.71-2.95,3.43-1.8,6.6-4.42,8.77-7.8,2.52-3.93,4.32-8.83,5.77-15.34,1.46-6.56,2.57-14.76,3.7-25.24.12-1.16.27-2.35.44-3.69,1.67-13.57,5.1-41.36-8.72-52.36l-.02-.02c-1.63-1.4-3.68-2.24-5.78-2.74-2.14-.5-4.35-.64-6.26-.64h-1.89Zm-11.33,111.5l9.8-112.36.07-.73h3.35c2,0,4.33.15,6.62.69,2.32.54,4.59,1.48,6.43,3.06,14.52,11.55,11.02,39.94,9.31,53.8-.18,1.43-.33,2.7-.44,3.66-1.14,10.52-2.25,18.77-3.73,25.41-1.49,6.69-3.36,11.76-5.99,15.85-2.33,3.64-5.7,6.43-9.37,8.36-4.14,2.18-8.67,3.24-12.47,3.12h0s-3.67,0-3.67,0l.07-.87Z"/>
      <path class="cls-3" d="m287.33,322.42h-21.87l-.05-.74-2.08-28.32-26.99.07-6.85,28.38-.15.61h-22.27l.31-1.02,44.48-148.06.18-.58.61.02,16.22.43.68.02.09.68,18.49,147.62.11.89h-.9Zm-20.39-1.59h19.49l-18.29-146.05-14.93-.4-44,146.45h18.88l6.85-28.38.14-.61h.63l28.36-.07h.74s.05.74.05.74l2.08,28.32Zm-5.6-44.98l-4.28-61.88-16.02,61.75,20.3.13Zm-2.95-65.79l4.6,66.54.06.85h-.86s-22.18-.15-22.18-.15h-1.02s.25-.99.25-.99l17.23-66.4.15-.6h1.71l.05.74Z"/>
      <path class="cls-4" d="m112.11,253.07c-2.13-3.45-6.19-8.12-11.13-13.81l-2.72-3.14c-3.62-3.96-6.82-8.02-9.07-11.98-2.31-4.03-3.66-7.97-3.53-11.61.18-5.08,2.05-11.66,5.73-16.4,2.9-3.73,6.9-6.35,12.08-6.29h0c2.94,0,5.5.5,8.34,1.78,2.5,1.12,5.2,2.85,8.55,5.36l1.78-19.43c-3.08-2.46-6.52-3.8-10-4.53-3.64-.76-7.35-.86-10.74-.86-4.42,0-8.5.78-12.24,2.45-3.74,1.67-7.14,4.25-10.19,7.85-3.36,3.96-6.53,8.62-8.82,13.83-1.91,4.36-3.21,9.1-3.48,14.15-.3,5.44.03,10.47,1.33,15.36,1.3,4.89,3.58,9.67,7.2,14.63,1.5,2.07,3.77,4.57,6.58,7.69,3.31,3.67,7.38,8.16,11.82,13.74,2.49,3.09,4.29,6.42,5.47,9.63,1.34,3.66,1.87,7.18,1.71,10.07-.11,2.02-.39,4.65-.9,7.13-.4,1.95-.94,3.81-1.66,5.24-1.48,2.95-3.78,5.3-6.19,7.01-3.18,2.27-6.6,3.44-8.57,3.44-3.74,0-6.82-.26-10.17-1.63-3.01-1.23-6.2-3.35-10.24-6.98l-1.3,20.04c4.25,3.09,8.07,4.81,11.75,5.76,3.79.97,7.49,1.13,11.39,1.13h0c8.98.14,17.38-4.55,23.7-12.25,6.36-7.75,10.61-18.52,11.23-30.49.3-5.64-.17-10.02-1.45-14.14-1.28-4.14-3.36-8.06-6.25-12.75h0Z"/>
      <path class="cls-4" d="m241.32,213.94l-32.11,106.89h18.88l6.85-28.38.14-.61h.63l28.36-.07h.74s.05.74.05.74l2.08,28.32h19.49l-18.29-146.05-14.93-.4-11.13,37.06h.72v2.5h-1.48Zm-2.08,62.37l17.23-66.4.15-.6h1.71l.05.74,4.6,66.54.06.85h-.86s-22.18-.15-22.18-.15h-1.02s.25-.99.25-.99Z"/>
      <path class="cls-4" d="m152.84,303.04l9.8-112.36.07-.73h3.35c2,0,4.33.15,6.62.69,2.32.54,4.59,1.48,6.43,3.06,14.52,11.55,11.02,39.94,9.31,53.8-.18,1.43-.33,2.7-.44,3.66-1.14,10.52-2.25,18.77-3.73,25.41-1.49,6.69-3.36,11.76-5.99,15.85-2.33,3.64-5.7,6.43-9.37,8.36-4.14,2.18-8.67,3.24-12.47,3.13h-3.67l.07-.87Zm2.55,17.91c7.69,0,14.9-1.13,21.31-3.83,6.39-2.69,12-6.96,16.53-13.25,4.55-6.32,7.56-14.5,9.78-24.05,2.23-9.6,3.65-20.57,5.03-32.4,2.81-24.1,1.37-42.52-4.78-54.89-6.08-12.21-16.83-18.51-32.72-18.51h-25.43l-12.74,146.92h23.01Z"/>
      <path class="cls-4" d="m132.15,305.23c-.96-1.66-1.69-5.12-2.89-5.69-1.54.32-2.25,6.34-3.78,6.57-1.15.35-1.84-2.02-5.8-2.02-1.4,0-1.79,1.21-1.79,1.21,0,0,5.6,2.89,5.6,6.37h8.11l.56-6.45Z"/>
      <path class="cls-4" d="m131.44,313.39h-6.73c-.68,0-1.23.55-1.23,1.23s.55,1.23,1.23,1.23h6.51l.21-2.46Z"/>
      <path class="cls-4" d="m131.06,317.74h-6.45c-.68,0-1.23.55-1.23,1.23s.55,1.23,1.23,1.23h6.24l.21-2.46Z"/>
      <path class="cls-4" d="m130.65,322.5h-7.16c0,3.49-5.6,6.37-5.6,6.37,0,0,.4,1.22,1.79,1.22,3.95,0,4.65-2.36,5.8-2.01,1.53.23,2.25,6.25,3.78,6.57,1.54-.74,2.31-6.22,3.78-6.57,1.32-.31,1.42,2.01,5.38,2.01,1.39,0,1.79-1.22,1.79-1.22,0,0-5.12-2.86-5.17-6.32h-4.39v-.05Z"/>
      <path class="cls-4" d="m163.24,322.5c0,3.49-5.6,6.37-5.6,6.37,0,0,.4,1.22,1.79,1.22,3.96,0,4.65-2.36,5.8-2.01,1.53.23,2.25,6.25,3.78,6.57,1.54-.74,2.31-6.22,3.79-6.57,1.32-.31,1.42,2.01,5.38,2.01,1.39,0,1.79-1.22,1.79-1.22,0,0-5.18-2.89-5.18-6.37h-11.55Z"/>
      <path class="cls-4" d="m210.58,215.25c.92-.27,1.2-1.13,1.2-1.13,0,0-.61-.34-1.4-.92.07.68.14,1.36.2,2.05h0Z"/>
      <path class="cls-4" d="m206.65,196.37c.5-3.23,5.13-5.82,5.13-5.82,0,0-.4-1.22-1.79-1.22-3.96,0-4.05,2.32-5.38,2.02-.07-.02-.14-.05-.21-.09.1.19.2.38.29.57.72,1.43,1.37,2.95,1.96,4.53h0Z"/>
      <path class="cls-4" d="m226.03,190.56s5.6,2.89,5.6,6.37h11.55c0-1.96,1.64-3.73,3.08-4.91l.79-2.62c-.14-.03-.31-.05-.48-.05-3.96,0-4.05,2.32-5.37,2.02-1.48-.35-2.25-5.83-3.79-6.57-1.54.32-2.25,6.34-3.78,6.57-1.15.35-1.84-2.02-5.8-2.02-1.39,0-1.79,1.22-1.79,1.22h0Z"/>
      <path class="cls-4" d="m241.94,198.64h-9.09c-.68,0-1.23.55-1.23,1.23s.55,1.23,1.23,1.23h9.09c.68,0,1.23-.55,1.23-1.23s-.55-1.23-1.23-1.23h0Z"/>
      <path class="cls-4" d="m241.83,202.99h-9.08c-.68,0-1.23.55-1.23,1.23s.55,1.23,1.23,1.23h9.08c.14,0,.27-.02.4-.07l.58-1.92c-.23-.29-.58-.48-.98-.48h0Z"/>
      <path class="cls-4" d="m241.52,207.75h-9.9c0,3.49-5.6,6.37-5.6,6.37,0,0,.4,1.22,1.79,1.22,3.96,0,4.65-2.36,5.8-2.01,1.53.23,2.24,6.25,3.78,6.57.24-.12.47-.35.68-.67l3.44-11.47Z"/>
      <path class="cls-4" d="m88.51,173.17c3.95-1.77,8.26-2.6,12.89-2.6,1.41,0,2.86.02,4.36.09l-5.96-5.62h-13.69c-1.17,0-2.12.96-2.12,2.13v8.56c1.45-1.01,2.96-1.86,4.53-2.56h0Z"/>
      <path class="cls-4" d="m120.53,199.12c-3.79-2.91-6.71-4.84-9.37-6.04-2.6-1.17-4.98-1.64-7.69-1.64h0c-1.88-.02-3.59.35-5.14,1.04l40.27,38.38,2.34-27.01-18.05-17.03-1.08,11.75-.13,1.44-1.15-.88Z"/>
      <path class="cls-4" d="m161.41,223.17l-2.37,27.18,24.25,23.11c1.18-6.06,2.14-13.41,3.12-22.46.12-1.16.27-2.35.44-3.69,0-.04,0-.08.01-.12l-25.45-24.01Z"/>
      <path class="cls-4" d="m204.56,280.19c-.87,3.76-1.87,7.32-3.04,10.65l11.69,11.14,7-23.32-13.05-12.31c-.75,4.86-1.6,9.49-2.61,13.85h0Z"/>
      <path class="cls-4" d="m236.25,293.78l-5.91,24.51,25.12,23.94c6.11-2.98,10.44-9.26,10.44-16.39v-3.42h-.44l-.05-.74-.03-.42-29.13-27.48Z"/>
      <path class="cls-6" d="m99.18,281.48c.15-2.69-.36-5.99-1.62-9.44-1.12-3.06-2.83-6.23-5.21-9.18h0c-3.02-3.79-5.84-7.06-8.36-9.9v49.8c1.76-.19,4.49-1.25,7.11-3.11,2.22-1.58,4.34-3.74,5.69-6.43.65-1.29,1.15-3.02,1.53-4.84.49-2.39.76-4.93.87-6.89h0Z"/>
      <path class="cls-6" d="m109.8,311.46c-6.62,8.05-15.46,12.97-24.94,12.83h0c-.3,0-.59,0-.88,0v1.55c0,9.94,8.13,18.04,18.07,18.07l55.56.16c8.35.02,12.21,6.1,17.3,13.5,5.63-11.01,9.23-13.5,17.86-13.5h54.77c2.81,0,5.5-.66,7.91-1.84l-25.12-23.94-.85,3.52-.15.61h-22.27l.31-1.02,5.84-19.42-11.69-11.14c-1.85,5.28-4.12,9.98-7,13.97-4.71,6.54-10.55,10.98-17.21,13.78-.94.4-1.89.76-2.86,1.09-.22.32-.59.52-1,.52h-.62c-5.43,1.64-11.29,2.35-17.44,2.35h-20.36c.05,3.46,5.17,6.32,5.17,6.32,0,0-.4,1.22-1.79,1.22-3.96,0-4.05-2.33-5.38-2.01-1.47.34-2.25,5.83-3.78,6.57-1.54-.32-2.25-6.34-3.78-6.57-1.15-.35-1.84,2.01-5.8,2.01-1.4,0-1.79-1.22-1.79-1.22,0,0,5.6-2.89,5.6-6.37h7.16l.08-.81.12-1.48h-6.24c-.68,0-1.23-.55-1.23-1.23s.55-1.23,1.23-1.23h6.45l.17-1.89h-6.51c-.68,0-1.23-.55-1.23-1.23s.55-1.23,1.23-1.23h6.73l.15-1.71h-8.11c0-3.48-5.6-6.37-5.6-6.37,0,0,.4-1.21,1.79-1.21,3.95,0,4.65,2.36,5.8,2.02,1.53-.23,2.25-6.25,3.78-6.57,1.2.57,1.93,4.03,2.89,5.69l6.45-74.36-40.27-38.38c-2.24,1-4.13,2.64-5.68,4.63-3.47,4.46-5.23,10.67-5.4,15.48-.11,3.31,1.16,6.97,3.32,10.77,2.21,3.86,5.33,7.84,8.87,11.71h.02s2.72,3.15,2.72,3.15c4.98,5.74,9.08,10.45,11.28,14.01,2.96,4.8,5.09,8.83,6.42,13.12,1.33,4.31,1.83,8.86,1.51,14.69-.63,12.31-5.02,23.42-11.59,31.41h0Zm49.62,18.62c-1.39,0-1.79-1.22-1.79-1.22,0,0,5.6-2.89,5.6-6.37h11.55c0,3.49,5.18,6.37,5.18,6.37,0,0-.4,1.22-1.79,1.22-3.96,0-4.05-2.33-5.38-2.01-1.48.34-2.25,5.83-3.79,6.57-1.53-.32-2.25-6.34-3.78-6.57-1.15-.35-1.84,2.01-5.8,2.01h0Z"/>
      <path class="cls-6" d="m209.62,247.62c-.76,6.53-1.53,12.8-2.45,18.73l13.05,12.31,17.86-59.44c-.21.32-.44.55-.68.67-1.54-.32-2.25-6.34-3.78-6.57-1.15-.35-1.84,2.01-5.8,2.01-1.39,0-1.79-1.22-1.79-1.22,0,0,5.6-2.89,5.6-6.37h9.9l.71-2.36c-.13.04-.26.07-.4.07h-9.08c-.68,0-1.23-.55-1.23-1.23s.55-1.23,1.23-1.23h9.08c.4,0,.75.19.98.48l3.44-11.45c-1.43,1.18-3.08,2.95-3.08,4.91h-11.55c0-3.48-5.6-6.37-5.6-6.37,0,0,.4-1.22,1.79-1.22,3.96,0,4.65,2.36,5.8,2.02,1.53-.23,2.24-6.25,3.78-6.57,1.54.74,2.31,6.22,3.79,6.57,1.32.31,1.41-2.02,5.37-2.02.18,0,.34.02.48.05l4.82-16.05.18-.58.61.02,13.25.35v-5.96c0-1.17-.96-2.13-2.12-2.13H99.8l5.96,5.62c2.19.11,4.45.34,6.7.81,3.83.8,7.63,2.31,11.02,5.13l.32.27-.04.41-.88,9.54,18.05,17.03,2.66-30.68.06-.73h26.89c13.32,0,23.18,4.26,29.84,12.6.14-.14.29-.23.44-.26.83.4,1.44,2.19,2.06,3.8.53.86,1.03,1.75,1.51,2.68.07.04.14.07.21.09,1.33.31,1.42-2.02,5.38-2.02,1.39,0,1.79,1.22,1.79,1.22,0,0-4.64,2.59-5.13,5.82,1.81,4.88,3.05,10.5,3.74,16.83.79.58,1.4.92,1.4.92,0,0-.28.86-1.2,1.13.81,9.33.47,20.14-.96,32.37h0Zm32.32-46.52h-9.09c-.68,0-1.23-.55-1.23-1.23s.55-1.23,1.23-1.23h9.09c.68,0,1.23.55,1.23,1.23s-.55,1.23-1.23,1.23h0Z"/>
      <path class="cls-6" d="m186.86,247.18c1.68-13.61,5.04-41.28-8.73-52.24l-.02-.02c-1.63-1.4-3.68-2.24-5.78-2.74-2.14-.5-4.35-.64-6.26-.64h-1.89l-2.76,31.63,25.45,24.01Z"/>
      <path class="cls-6" d="m257.06,213.97l-16.02,61.75,20.3.13-4.28-61.88Z"/>
      <path class="cls-6" d="m263.33,293.36l-26.99.07-.09.35,29.13,27.48-2.05-27.9Z"/>
      <path class="cls-6" d="m176.93,291.57c2.52-3.93,4.32-8.83,5.77-15.34.2-.9.39-1.82.58-2.77l-24.25-23.11-4.53,51.97h1.95c3.54.11,7.79-.89,11.71-2.95,3.43-1.8,6.6-4.42,8.77-7.8h0Z"/>
      <path class="cls-5" d="m190.34,375.99c.45-2.07-.63-3.92-2.56-4.34-.49-.11-.83-.11-1.42,0l.77-1.87,3.35.73.39-1.79-4.78-1.05-2.19,5.31,1.59.82c.6-.48,1.05-.61,1.65-.48.97.21,1.54,1.19,1.3,2.27-.25,1.14-1.14,1.79-2.17,1.56-.91-.2-1.41-.91-1.37-1.98l-1.9-.41c-.32,1.97,1.07,3.74,2.95,4.15,2.05.45,3.94-.82,4.41-2.93h0Z"/>
      <path class="cls-5" d="m182.28,370.39c.19-1.98-1.18-3.64-3.17-3.84-2.07-.2-3.71,1.09-3.95,3.56l1.91.18c.13-1.28.88-2.06,1.88-1.97.89.09,1.49.88,1.4,1.84-.07.7-.49,1.29-1.45,2.04l-4.18,3.26-.16,1.71,6.97.67.17-1.82-4.24-.41,2.39-1.79c1.77-1.32,2.31-2.12,2.43-3.45h0Z"/>
      <path class="cls-5" d="m171.75,370.15c.1,1.12-.56,1.97-1.63,2.07-1.02.09-1.84-.65-1.93-1.76-.1-1.11.54-1.96,1.56-2.05,1.07-.09,1.91.63,2,1.74h0Zm1.95-.11c-.18-2.14-1.93-3.6-4.1-3.41-2.13.18-3.52,1.93-3.33,4.18.17,1.96,1.58,3.34,3.26,3.19.32-.03.52-.09.86-.25l-2.27,4.06,2.32-.2,2.45-4.48c.68-1.22.89-2.06.81-3.1h0Z"/>
      <path class="cls-5" d="m165.41,378.59l-2.19-10.6-3.24.67.37,1.79,1.33-.28,1.82,8.81,1.91-.4Z"/>
      <path class="cls-4" d="m178.6,109.73c-.21,2.31.87,4.84,3.45,5.05h.01c2.67.21,4.11-2.18,4.32-4.55.21-2.32-.84-4.85-3.44-5.06-2.69-.22-4.12,2.17-4.34,4.57h0Z"/>
      <path class="cls-4" d="m156.52,110.5c1.31-.26,2.49-1.11,2.17-2.59-.34-1.57-1.74-1.76-3.12-1.49-.42.08-.95.2-1.37.37l.85,3.99,1.46-.28Z"/>
      <path class="cls-4" d="m149.83,113.07c-.66-2.24-2.57-4.29-5.1-3.62-2.63.69-3.05,3.42-2.37,5.71.66,2.21,2.6,4.26,5.09,3.61h.02c2.61-.69,3.03-3.42,2.36-5.7h0Z"/>
      <path class="cls-4" d="m213.39,115.31l-2.31,2.66,3.03,1.11.14-3.45c.03-.54.09-1.07.16-1.61-.33.44-.67.88-1.02,1.3h0Z"/>
      <path class="cls-4" d="m170.32,364.03c-8.81.7-19.73,3.81-30.7,9.82l8.2,13.42.05-.03c-1.33,1.82-1.81,3.29-8.76,3.29-5.26,0-8.74-1.24-8.74-1.24.62,5.04,5.3,6.43,5.3,6.43,0,0-4.36,2.42-8.77,2.42,0,0,4.06,5.39,14.5,4.48,5.31-.47,10.73-3.37,10.73-6.74,0-3.05-3.3-7.93-3.92-8.82,4.19-2.2,12.81-5.8,22.1-6.85v15.35c0,.93,1.55,1.76,2.51,2.21v3.3c-1.04.31-2.16.55-3.14,1.06-.28.14-.45.5-.45.81,0,.35.14.78.45.94.87.46,2.09.89,3.14,1.28v3.38c-2.69.67-5.8,2.4-5.8,5.21,0,.79,6.73,26.08,7.53,28.2.79-2.12,7.59-27.42,7.59-28.2,0-2.81-3.12-4.54-5.81-5.21v-3.27c1.04-.46,2.04-.91,3.14-1.38.3-.12.54-.44.55-.83.02-.46-.22-.81-.55-.93l-3.14-1.06v-3.3c.96-.45,2.29-1.45,2.29-2.38v-15.28c9.21.89,17.94,4.81,22.36,7.11-.83,1.21-3.81,5.75-3.81,8.65,0,3.37,5.42,6.27,10.73,6.74,10.44.92,14.5-4.48,14.5-4.48-4.41,0-8.77-2.42-8.77-2.42,0,0,4.68-1.39,5.3-6.43,0,0-3.47,1.25-8.74,1.24-6.49,0-7.33-1.28-8.5-2.93l6.4-13.31c-11.6-7.1-21.38-9.75-29.48-10.3v-12.84c-1.19,1.72-2.4,3.84-3.72,6.42-1.59-2.32-3.07-4.5-4.59-6.42v12.88Zm-6.82,14.95l-1.82-8.81-1.33.28-.37-1.79,3.24-.67,2.19,10.6-1.91.4Zm4.61-1.17l2.27-4.06c-.34.16-.54.22-.86.25-1.68.14-3.09-1.23-3.26-3.19-.19-2.25,1.2-4,3.33-4.18,2.18-.19,3.92,1.27,4.1,3.41.09,1.04-.13,1.88-.81,3.1l-2.45,4.48-2.32.2Zm8.95-7.52l-1.91-.18c.24-2.48,1.88-3.76,3.95-3.56,2,.19,3.37,1.85,3.17,3.84-.12,1.33-.66,2.13-2.43,3.45l-2.39,1.79,4.24.41-.17,1.82-6.97-.67.16-1.71,4.18-3.26c.96-.75,1.38-1.34,1.45-2.04.09-.96-.51-1.76-1.4-1.84-1.01-.09-1.76.69-1.88,1.97h0Zm8.87,8.63c-1.88-.41-3.27-2.18-2.95-4.15l1.9.41c-.04,1.07.45,1.78,1.37,1.98,1.03.23,1.92-.42,2.17-1.56.23-1.07-.33-2.05-1.3-2.27-.6-.13-1.05,0-1.65.48l-1.59-.83,2.2-5.3,4.78,1.05-.39,1.79-3.35-.73-.77,1.87c.59-.11.94-.11,1.42,0,1.93.42,3.01,2.26,2.56,4.34-.46,2.12-2.36,3.38-4.41,2.93h0Z"/>
      <path class="cls-4" d="m169.75,368.41c-1.02.09-1.66.94-1.56,2.05.09,1.11.91,1.85,1.93,1.76,1.07-.09,1.73-.94,1.63-2.07-.09-1.11-.93-1.83-2-1.74h0Z"/>
      <path class="cls-1" d="m99.8,165.04h70.52v-5.68c-4.49-.71-6.04-3.95-6.04-7.39,0-2.97,2.3-5.31,5.9-6.41l.07-22.45c-13.87.73-28.41,4.73-38.68,11.31l7.54,14.46c-5.46,5.36-11.58,10.21-19.08,10.21-11.7.34-19.27-4.1-22.16-7l13.82-4.45c-4.22-2.89-7.38-6.24-9.35-10.18,7.4,1.68,11.94,1.96,17.1,1.74,4.13-.17,8.41-.16,11.29-4.78l-12.56-21.94c14.98-8.59,34.54-14.49,52.15-15.03v-.19c-3.23-.62-5.36-2.94-5.32-6.84-.04-3.54,2.4-5.64,5.32-6.36v-2.77c0-2.06-.22-4.62-4.44-4.62-4.95,0-8.78,5.48-8.78,5.48,0,0,.04-1.94,1.05-4.16,3.42-7.52,10.31-20.81,16.24-34.57,4.81,10.25,9.69,23.35,16.66,34.92,1.32,2.18.67,4.3.67,4.3,0,0-4.01-5.98-8.96-5.98-4.22,0-4.13,2.65-4.13,4.7v2.69c3.32.31,5.39,2.68,5.44,6.35-.14,4.28-2.51,5.91-5.44,6.75v.28c18.78.45,37.53,5.45,49.2,14.89l.87.5-10.71,21.57-.18-.09c2.88,4.71,7.2,4.7,11.34,4.87,5.16.22,9.7-.07,17.11-1.74-1.98,3.94-5.13,7.29-9.36,10.18l13.82,4.45c-2.89,2.9-10.46,7.34-22.16,7-7.5,0-13.62-4.85-19.08-10.21l7.73-14.84c-14.87-7.14-24.37-10.27-38.57-10.94v22.57c3.59,1.09,6.15,3.31,6.15,6.28,0,3.43-1.66,6.8-6.16,7.52v5.55h85.14c1.17,0,2.12.96,2.12,2.13v5.96l2.96.08.69.02.08.68,18.49,147.62.11.89h-22.33v3.42c0,7.13-4.33,13.41-10.44,16.39-2.41,1.18-5.1,1.84-7.91,1.84h-54.77c-6.6,0-10.26,1.46-14.14,7.08v12.84c8.1.56,17.88,3.21,29.48,10.3l-6.4,13.31c1.17,1.65,2.02,2.93,8.5,2.93,5.27,0,8.74-1.24,8.74-1.24-.62,5.04-5.3,6.43-5.3,6.43,0,0,4.36,2.42,8.77,2.42,0,0-4.06,5.39-14.5,4.48-5.31-.47-10.73-3.37-10.73-6.74,0-2.9,2.98-7.45,3.81-8.65-4.43-2.3-13.16-6.22-22.36-7.11v15.28c0,.93-1.34,1.93-2.29,2.38v3.3l3.14,1.06c.33.11.57.46.55.93-.01.38-.26.7-.55.83-1.1.47-2.09.92-3.14,1.38v3.27c2.69.67,5.81,2.4,5.81,5.21,0,.79-6.79,26.08-7.59,28.2-.8-2.12-7.53-27.42-7.53-28.2,0-2.81,3.12-4.54,5.8-5.21v-3.38c-1.05-.38-2.27-.82-3.14-1.28-.31-.16-.45-.59-.45-.94,0-.31.18-.67.45-.81.98-.51,2.1-.75,3.14-1.06v-3.3c-.96-.45-2.51-1.28-2.51-2.21v-15.35c-9.29,1.04-17.9,4.65-22.1,6.85.62.89,3.92,5.77,3.92,8.82,0,3.37-5.42,6.27-10.73,6.74-10.44.92-14.5-4.48-14.5-4.48,4.41,0,8.77-2.42,8.77-2.42,0,0-4.68-1.39-5.3-6.43,0,0,3.47,1.25,8.74,1.24,6.95,0,7.43-1.47,8.76-3.29l-.05.03-8.2-13.42c10.97-6.02,21.89-9.13,30.7-9.82v-12.88c-3.35-4.2-6.97-7.07-12.7-7.08l-55.56-.16c-9.94-.03-18.07-8.13-18.07-18.07v-1.55c-3.68-.03-7.21-.24-10.9-1.19-3.98-1.02-8.09-2.89-12.65-6.28l-.35-.26.03-.43,1.44-22.12.11-1.68,1.23,1.15c4.49,4.19,7.86,6.52,10.98,7.8,3.09,1.26,6.01,1.5,9.57,1.5.17,0,.35,0,.54-.03v-49.8c-1.2-1.35-2.34-2.6-3.39-3.78-2.84-3.14-5.13-5.68-6.69-7.82-3.74-5.14-6.1-10.09-7.45-15.16-1.35-5.07-1.69-10.25-1.38-15.85.29-5.26,1.63-10.19,3.62-14.7,2.36-5.37,5.62-10.16,9.07-14.22,1.94-2.28,4.01-4.18,6.23-5.71v-8.56c0-1.17.96-2.13,2.12-2.13h13.69Zm241.37,86.89L173.57,11.81,7.87,253l165.13,229.94,168.17-231.01Z"/>
      <path class="cls-4" d="m127.64,114.15l8.67-3.72.65,1.38-2.05,11.23,6.21-2.67.94,1.98-9.31,4-.64-1.34,2.07-11.28-5.61,2.41-.94-1.98Zm-9.47-1.66l12.56,21.94c-2.88,4.62-7.17,4.62-11.29,4.78-5.16.22-9.7-.07-17.1-1.74,1.98,3.94,5.13,7.29,9.35,10.18l-13.82,4.45c2.89,2.9,10.46,7.34,22.16,7,7.5,0,13.62-4.85,19.08-10.21l-7.54-14.46c10.27-6.58,24.81-10.59,38.68-11.31l-.07,22.45c-3.59,1.09-5.9,3.43-5.9,6.41,0,3.43,1.55,6.67,6.04,7.39v5.68s8.3,0,8.3,0v-5.55c4.49-.72,6.16-4.09,6.16-7.52,0-2.97-2.56-5.19-6.14-6.28v-22.57c14.2.67,23.7,3.8,38.57,10.94l-7.73,14.84c5.46,5.36,11.58,10.21,19.08,10.21,11.7.34,19.27-4.1,22.16-7l-13.82-4.45c4.23-2.89,7.38-6.24,9.36-10.18-7.41,1.68-11.94,1.96-17.11,1.74-4.15-.17-8.46-.16-11.34-4.87l.18.09,10.71-21.57-.87-.5c-11.66-9.44-30.42-14.44-49.2-14.89v-.28c2.93-.84,5.3-2.47,5.44-6.75-.05-3.67-2.12-6.04-5.44-6.35v-2.69c0-2.06-.09-4.7,4.13-4.7,4.95,0,8.96,5.98,8.96,5.98,0,0,.65-2.12-.67-4.3-6.97-11.58-11.85-24.68-16.66-34.92-5.93,13.76-12.82,27.05-16.24,34.57-1.01,2.22-1.05,4.16-1.05,4.16,0,0,3.84-5.48,8.78-5.48,4.22,0,4.44,2.56,4.44,4.62v2.77c-2.92.73-5.36,2.82-5.32,6.36-.04,3.89,2.09,6.22,5.32,6.84v.19c-17.62.54-37.18,6.43-52.15,15.03h0Zm29.76,8.15c-3.72.98-6.79-1.29-7.83-4.83-1.07-3.65.35-7.24,4.18-8.25,3.74-.98,6.8,1.23,7.85,4.81,1.09,3.71-.3,7.24-4.17,8.26h-.03Zm6.39-2.4l-2.71-12.59.33-.14c.97-.4,2.1-.7,3.13-.9,1.37-.27,2.9-.38,4.16.32.89.5,1.47,1.38,1.69,2.37.29,1.37-.22,2.62-1.22,3.48.84.4,1.43,1.19,1.85,2.05.32.66.64,1.33.98,1.99.17.32.39.76.62,1.04l.45.55-2.61.52-.16-.17c-.5-.54-1.2-2.13-1.51-2.82-.58-1.27-1.16-1.82-2.57-1.6l-1.1.21,1.12,5.21-2.46.48Zm10.48-1.98l-.51-13.1,2.48-.08,4.46,6.25c.53.74,1.05,1.5,1.52,2.27-.09-1.04-.15-2.08-.18-3.13l-.22-5.57,2.41-.08.51,13.1-2.33.08-4.44-6.27c-.57-.81-1.14-1.64-1.67-2.5.07,1.1.12,2.19.16,3.3l.22,5.66-2.41.08Zm17.01.43c-3.83-.32-5.9-3.43-5.58-7.12.34-3.78,3.02-6.64,6.94-6.32,3.86.31,5.94,3.38,5.61,7.1-.34,3.86-2.96,6.67-6.94,6.35h-.04Zm10.38,1.38l-2.47-.51,2.41-10.67-3.81-.79.48-2.15,10.12,2.09-.48,2.15-3.83-.79-2.41,10.66Zm2.57.33l.52-1.41,9.65-6.74-5.79-1.96.76-2.05,8.97,3.03-.53,1.45-9.61,6.72,6.42,2.17-.75,2.05-9.64-3.25Zm10.13,3.46l9.32-10.67,2.43.89-.62,13.84-2.49-.91.19-4.07-3.67-1.34-2.71,3.16-2.45-.9Z"/>
    </g>
  </g>
</svg>