<?xml version="1.0" encoding="UTF-8"?>
<svg id="Layer_2" data-name="Layer 2" xmlns="http://www.w3.org/2000/svg" xmlns:xlink="http://www.w3.org/1999/xlink" viewBox="0 0 33.56 19.58">
  <defs>
    <style>
      .cls-1 {
        clip-path: url(#clippath);
      }

      .cls-2 {
        fill: none;
      }

      .cls-2, .cls-3, .cls-4, .cls-5 {
        stroke-width: 0px;
      }

      .cls-6 {
        clip-path: url(#clippath-1);
      }

      .cls-7 {
        clip-path: url(#clippath-4);
      }

      .cls-8 {
        clip-path: url(#clippath-3);
      }

      .cls-9 {
        clip-path: url(#clippath-2);
      }

      .cls-10 {
        clip-path: url(#clippath-7);
      }

      .cls-11 {
        clip-path: url(#clippath-6);
      }

      .cls-12 {
        clip-path: url(#clippath-5);
      }

      .cls-4 {
        fill: #bc0030;
      }

      .cls-5 {
        fill: #f1d62f;
      }
    </style>
    <clipPath id="clippath">
      <rect class="cls-2" width="33.56" height="19.58"/>
    </clipPath>
    <clipPath id="clippath-1">
      <rect class="cls-2" width="33.56" height="19.58"/>
    </clipPath>
    <clipPath id="clippath-2">
      <rect class="cls-2" width="33.56" height="19.58"/>
    </clipPath>
    <clipPath id="clippath-3">
      <rect class="cls-2" width="33.56" height="19.58"/>
    </clipPath>
    <clipPath id="clippath-4">
      <rect class="cls-2" width="33.56" height="19.58"/>
    </clipPath>
    <clipPath id="clippath-5">
      <rect class="cls-2" width="33.56" height="19.58"/>
    </clipPath>
    <clipPath id="clippath-6">
      <rect class="cls-2" width="33.56" height="19.58"/>
    </clipPath>
    <clipPath id="clippath-7">
      <rect class="cls-2" width="33.56" height="19.58"/>
    </clipPath>
  </defs>
  <g id="Layer_1-2" data-name="Layer 1">
    <g id="ANGOLA">
      <g>
        <g class="cls-1">
          <rect class="cls-4" width="33.56" height="19.58"/>
        </g>
        <g class="cls-6">
          <rect class="cls-3" y="9.79" width="33.56" height="9.79"/>
        </g>
        <g class="cls-9">
          <polygon class="cls-5" points="15.29 9.45 16.32 8.7 17.36 9.45 16.96 8.24 18 7.48 16.72 7.48 16.32 6.27 15.92 7.48 14.64 7.48 15.68 8.24 15.29 9.45"/>
        </g>
        <g class="cls-8">
          <g>
            <g class="cls-7">
              <path class="cls-5" d="m21.84,15.46c-.15-.25-.34-.43-.58-.65-.25-.22-.58-.45-.83-.7l-.48.55s-.01.08.01.09c.54.09.7.28.92.47.29.28.4.64.59.77.35.24.6-.16.37-.53m-1.25-.89s-.07-.03-.07-.07c0-.04.03-.07.07-.07.04,0,.07.03.07.07,0,.03-.03.07-.07.07m.49.42s-.07-.03-.07-.07c0-.03.03-.06.07-.06s.07.03.07.06c0,.04-.03.07-.07.07m.43.43s-.07-.03-.07-.06c0-.04.03-.07.07-.07.04,0,.06.02.06.07,0,.04-.03.06-.06.06"/>
            </g>
            <g class="cls-12">
              <path class="cls-5" d="m17.56,13.4c-.39.13-.81.21-1.24.21-.92,0-1.75-.34-2.41-.88l-.56.68c.24.2.49.37.76.52l-.19.35c.29.16.6.29.92.38l.11-.38c.29.09.59.15.9.18l-.04.39c.33.03.67.03,1,0l-.04-.39c.31-.03.61-.09.9-.18l.11.37c.16-.05.31-.1.47-.16l-.21-.8-.5-.29Z"/>
            </g>
            <g class="cls-11">
              <path class="cls-5" d="m20.14,9.79c0,1.17-.52,2.21-1.35,2.91l1.07.75c.14-.14.27-.28.4-.43l-.3-.25c.2-.23.36-.49.51-.77l.34.19c.16-.3.29-.6.38-.92l-.37-.12c.09-.29.15-.59.18-.9l.39.03c.03-.33.03-.66,0-1l-.39.04c-.03-.31-.09-.61-.18-.9l.38-.11c-.1-.32-.23-.63-.38-.93l-.35.19c-.15-.27-.32-.53-.51-.77l.31-.26c-.21-.25-.45-.49-.71-.7l-.26.32c-.24-.19-.49-.36-.77-.51l.19-.37c-.29-.15-.6-.28-.92-.38l-.12.4c-.28-.09-.57-.14-.87-.17l-.09.87c1.92.21,3.42,1.81,3.42,3.78"/>
            </g>
            <g class="cls-10">
              <path class="cls-5" d="m18.65,13.22c-1.01-.72-2.05-1.45-2.93-2.27-.01,0-.01-.02,0-.03.01,0,.02,0,.03,0,.87.83,1.91,1.55,2.92,2.27.5.35,1.01.72,1.5,1.08l.15-.18c-1.68-1.2-5.65-3.96-5.7-4.96-.79,1.53.21,2.44.85,2.81,1.63.92,2.71,1.53,4.41,2.67l.26-.3c-.49-.37-1-.74-1.5-1.08"/>
            </g>
          </g>
        </g>
      </g>
    </g>
  </g>
</svg>