<?xml version="1.0" encoding="UTF-8"?>
<svg id="Layer_2" data-name="Layer 2" xmlns="http://www.w3.org/2000/svg" viewBox="0 0 623.69 534.59">
  <defs>
    <style>
      .cls-1, .cls-2, .cls-3, .cls-4, .cls-5, .cls-6, .cls-7, .cls-8, .cls-9, .cls-10, .cls-11, .cls-12, .cls-13, .cls-14, .cls-15, .cls-16, .cls-17, .cls-18, .cls-19, .cls-20, .cls-21, .cls-22, .cls-23, .cls-24, .cls-25, .cls-26, .cls-27, .cls-28, .cls-29, .cls-30, .cls-31, .cls-32, .cls-33, .cls-34, .cls-35, .cls-36, .cls-37, .cls-38, .cls-39, .cls-40, .cls-41, .cls-42, .cls-43, .cls-44, .cls-45, .cls-46, .cls-47, .cls-48, .cls-49, .cls-50, .cls-51, .cls-52, .cls-53, .cls-54, .cls-55, .cls-56, .cls-57, .cls-58, .cls-59, .cls-60, .cls-61, .cls-62, .cls-63, .cls-64, .cls-65, .cls-66, .cls-67, .cls-68, .cls-69, .cls-70, .cls-71, .cls-72, .cls-73, .cls-74, .cls-75, .cls-76, .cls-77, .cls-78, .cls-79, .cls-80, .cls-81, .cls-82, .cls-83, .cls-84, .cls-85, .cls-86, .cls-87, .cls-88, .cls-89, .cls-90, .cls-91, .cls-92, .cls-93, .cls-94, .cls-95, .cls-96, .cls-97, .cls-98, .cls-99, .cls-100, .cls-101, .cls-102, .cls-103, .cls-104, .cls-105, .cls-106, .cls-107, .cls-108, .cls-109, .cls-110, .cls-111, .cls-112, .cls-113, .cls-114, .cls-115, .cls-116, .cls-117, .cls-118, .cls-119, .cls-120, .cls-121, .cls-122, .cls-123, .cls-124, .cls-125, .cls-126, .cls-127, .cls-128, .cls-129, .cls-130, .cls-131, .cls-132, .cls-133, .cls-134, .cls-135, .cls-136, .cls-137, .cls-138, .cls-139, .cls-140, .cls-141, .cls-142, .cls-143, .cls-144, .cls-145, .cls-146, .cls-147, .cls-148, .cls-149, .cls-150, .cls-151, .cls-152, .cls-153, .cls-154, .cls-155, .cls-156, .cls-157, .cls-158, .cls-159, .cls-160, .cls-161, .cls-162, .cls-163, .cls-164, .cls-165, .cls-166, .cls-167, .cls-168, .cls-169, .cls-170, .cls-171, .cls-172, .cls-173, .cls-174, .cls-175, .cls-176, .cls-177, .cls-178, .cls-179, .cls-180, .cls-181, .cls-182, .cls-183, .cls-184, .cls-185, .cls-186, .cls-187, .cls-188, .cls-189, .cls-190, .cls-191, .cls-192, .cls-193, .cls-194, .cls-195, .cls-196, .cls-197, .cls-198, .cls-199, .cls-200, .cls-201, .cls-202, .cls-203, .cls-204 {
        stroke-width: 0px;
      }

      .cls-2 {
        fill: #f7e7f4;
      }

      .cls-3 {
        fill: #f7f7f7;
      }

      .cls-4 {
        fill: #f6e7f3;
      }

      .cls-5 {
        fill: #f6eff4;
      }

      .cls-6 {
        fill: #f6f6f6;
      }

      .cls-7 {
        fill: #f8eaf6;
      }

      .cls-8 {
        fill: #fd0101;
      }

      .cls-9 {
        fill: #f9f9f9;
      }

      .cls-10 {
        fill: #f9deed;
      }

      .cls-11 {
        fill: #f9deec;
      }

      .cls-12 {
        fill: #f8dfed;
      }

      .cls-13 {
        fill: #f8f8f8;
      }

      .cls-14 {
        fill: #5f5f5f;
      }

      .cls-15 {
        fill: #61545b;
      }

      .cls-16 {
        fill: #616161;
      }

      .cls-17 {
        fill: #5d5d5d;
      }

      .cls-18 {
        fill: #777;
      }

      .cls-19 {
        fill: #608587;
      }

      .cls-20 {
        fill: #767878;
      }

      .cls-21 {
        fill: #5e5e5e;
      }

      .cls-22 {
        fill: #620d0a;
      }

      .cls-23 {
        fill: #797979;
      }

      .cls-24 {
        fill: #5d5257;
      }

      .cls-25 {
        fill: #7a7a7a;
      }

      .cls-26 {
        fill: #51c0c0;
      }

      .cls-27 {
        fill: #787878;
      }

      .cls-28 {
        fill: #7bb5b4;
      }

      .cls-29 {
        fill: #510807;
      }

      .cls-30 {
        fill: #4ddce1;
      }

      .cls-31 {
        fill: #757575;
      }

      .cls-32 {
        fill: #282828;
      }

      .cls-33 {
        fill: #7b7b7b;
      }

      .cls-34 {
        fill: #515151;
      }

      .cls-35 {
        fill: #484848;
      }

      .cls-36 {
        fill: #2a0000;
      }

      .cls-37 {
        fill: #4b2a2a;
      }

      .cls-38 {
        fill: #2a2222;
      }

      .cls-39 {
        fill: #7fcdcc;
      }

      .cls-40 {
        fill: #878787;
      }

      .cls-41 {
        fill: #9a9a9a;
      }

      .cls-42 {
        fill: #6e0000;
      }

      .cls-43 {
        fill: #898989;
      }

      .cls-44 {
        fill: #55090a;
      }

      .cls-45 {
        fill: #464646;
      }

      .cls-46 {
        fill: #868686;
      }

      .cls-47 {
        fill: #959595;
      }

      .cls-48 {
        fill: #730000;
      }

      .cls-49 {
        fill: #727272;
      }

      .cls-50 {
        fill: #a2b4b6;
      }

      .cls-51 {
        fill: #a2a1a1;
      }

      .cls-52 {
        fill: #717171;
      }

      .cls-53 {
        fill: #949494;
      }

      .cls-54 {
        fill: #95aead;
      }

      .cls-55 {
        fill: #820000;
      }

      .cls-56 {
        fill: #707070;
      }

      .cls-57 {
        fill: #949292;
      }

      .cls-58 {
        fill: #a3a3a3;
      }

      .cls-59 {
        fill: #262626;
      }

      .cls-60 {
        fill: #3b3b3b;
      }

      .cls-61 {
        fill: #3a3a3a;
      }

      .cls-62 {
        fill: #3d3d3d;
      }

      .cls-63 {
        fill: #5a5a5a;
      }

      .cls-64 {
        fill: #81bebf;
      }

      .cls-65 {
        fill: #2f2f2f;
      }

      .cls-66 {
        fill: #1b1b1b;
      }

      .cls-67 {
        fill: #3f3f3f;
      }

      .cls-68 {
        fill: #0c6867;
      }

      .cls-69 {
        fill: #424242;
      }

      .cls-70 {
        fill: #090202;
      }

      .cls-71 {
        fill: #420000;
      }

      .cls-72 {
        fill: #404040;
      }

      .cls-73 {
        fill: #3fd2d1;
      }

      .cls-74 {
        fill: #152c2b;
      }

      .cls-75 {
        fill: #080808;
      }

      .cls-76 {
        fill: #422727;
      }

      .cls-77 {
        fill: #222;
      }

      .cls-78 {
        fill: #a8a8a8;
      }

      .cls-79 {
        fill: #1e1313;
      }

      .cls-80 {
        fill: #251212;
      }

      .cls-81 {
        fill: #252525;
      }

      .cls-82 {
        fill: #242424;
      }

      .cls-83 {
        fill: #c3c3c3;
      }

      .cls-84 {
        fill: #ddd;
      }

      .cls-85 {
        fill: #d21011;
      }

      .cls-86 {
        fill: #c8e9e9;
      }

      .cls-87 {
        fill: #cd0000;
      }

      .cls-88 {
        fill: #d8e2e2;
      }

      .cls-89 {
        fill: #abf9fa;
      }

      .cls-90 {
        fill: #c5c5c5;
      }

      .cls-91 {
        fill: #e1e1e1;
      }

      .cls-92 {
        fill: #d90000;
      }

      .cls-93 {
        fill: #dfdfdf;
      }

      .cls-94 {
        fill: #d5d5d5;
      }

      .cls-95 {
        fill: #af0000;
      }

      .cls-96 {
        fill: #df0000;
      }

      .cls-97 {
        fill: #bd9c9c;
      }

      .cls-98 {
        fill: #a4a4a4;
      }

      .cls-99 {
        fill: #c0e0df;
      }

      .cls-100 {
        fill: #bdbdbd;
      }

      .cls-101 {
        fill: #bf0000;
      }

      .cls-102 {
        fill: #bca6b3;
      }

      .cls-103 {
        fill: #d8d8d8;
      }

      .cls-104 {
        fill: #a3d1d3;
      }

      .cls-105 {
        fill: #b0b0b0;
      }

      .cls-106 {
        fill: #a7a7a7;
      }

      .cls-107 {
        fill: #a9a9a9;
      }

      .cls-108 {
        fill: #acacac;
      }

      .cls-109 {
        fill: #aad5d6;
      }

      .cls-110 {
        fill: #cecece;
      }

      .cls-111 {
        fill: #858585;
      }

      .cls-112 {
        fill: #939393;
      }

      .cls-113 {
        fill: #92b3b4;
      }

      .cls-114 {
        fill: #b5b5b5;
      }

      .cls-115 {
        fill: #9d9d9d;
      }

      .cls-116 {
        fill: #9e9e9e;
      }

      .cls-117 {
        fill: #9dafaf;
      }

      .cls-118 {
        fill: #909090;
      }

      .cls-119 {
        fill: #737373;
      }

      .cls-120 {
        fill: #666;
      }

      .cls-121 {
        fill: #318a89;
      }

      .cls-122 {
        fill: #8d8d8d;
      }

      .cls-123 {
        fill: #8e8f90;
      }

      .cls-124 {
        fill: #8c8c8c;
      }

      .cls-125 {
        fill: #969594;
      }

      .cls-126 {
        fill: #969696;
      }

      .cls-127 {
        fill: #999;
      }

      .cls-128 {
        fill: #989898;
      }

      .cls-129 {
        fill: #979797;
      }

      .cls-130 {
        fill: #7edddc;
      }

      .cls-131 {
        fill: #009f19;
      }

      .cls-132 {
        fill: #090;
      }

      .cls-133 {
        fill: #009d00;
      }

      .cls-134 {
        fill: #00a000;
      }

      .cls-135 {
        fill: #009e00;
      }

      .cls-136 {
        fill: #a17171;
      }

      .cls-137 {
        fill: #929292;
      }

      .cls-138 {
        fill: #9f9f9f;
      }

      .cls-139 {
        fill: #a0a8a9;
      }

      .cls-140 {
        fill: #848484;
      }

      .cls-141 {
        fill: #870000;
      }

      .cls-142 {
        fill: #fdfdfd;
      }

      .cls-143 {
        fill: #fe6464;
      }

      .cls-144 {
        fill: #fe1616;
      }

      .cls-145 {
        fill: #fe0b0b;
      }

      .cls-146 {
        fill: #fe1919;
      }

      .cls-147 {
        fill: #fdfefe;
      }

      .cls-148 {
        fill: #fdfefd;
      }

      .cls-149 {
        fill: #919191;
      }

      .cls-150 {
        fill: #7d7d7d;
      }

      .cls-151 {
        fill: #7f4543;
      }

      .cls-152 {
        fill: #6b6b6b;
      }

      .cls-153 {
        fill: #7f7f7f;
      }

      .cls-154 {
        fill: #7f8080;
      }

      .cls-155 {
        fill: #818181;
      }

      .cls-156 {
        fill: #ececec;
      }

      .cls-157 {
        fill: #f1f1f1;
      }

      .cls-158 {
        fill: #f0f1f1;
      }

      .cls-159 {
        fill: #f50505;
      }

      .cls-160 {
        fill: #ededed;
      }

      .cls-161 {
        fill: #ede1e9;
      }

      .cls-162 {
        fill: #eff3f3;
      }

      .cls-163 {
        fill: #efefef;
      }

      .cls-164 {
        fill: #faf9f9;
      }

      .cls-165 {
        fill: #faebf8;
      }

      .cls-166 {
        fill: #fef8f8;
      }

      .cls-167 {
        fill: #fee0e0;
      }

      .cls-168 {
        fill: #fe5050;
      }

      .cls-169 {
        fill: #fbebf8;
      }

      .cls-170 {
        fill: #fbecf8;
      }

      .cls-171 {
        fill: #fe3c3c;
      }

      .cls-172 {
        fill: #fbfbfb;
      }

      .cls-173 {
        fill: #faeaf7;
      }

      .cls-174 {
        fill: #fe3536;
      }

      .cls-175 {
        fill: #fefefe;
      }

      .cls-176 {
        fill: #ebebeb;
      }

      .cls-177 {
        fill: #fe0000;
      }

      .cls-178 {
        fill: #fcfcfc;
      }

      .cls-179 {
        fill: #fe8c8a;
      }

      .cls-180 {
        fill: #e7e7e7;
      }

      .cls-181 {
        fill: #e6e6e6;
      }

      .cls-182 {
        fill: #030202;
      }

      .cls-183 {
        fill: #009a00;
      }

      .cls-184 {
        fill: #00a100;
      }

      .cls-185 {
        fill: #00ab00;
      }

      .cls-186 {
        fill: #00bc5d;
      }

      .cls-187 {
        fill: #009c00;
      }

      .cls-188 {
        fill: #00a600;
      }

      .cls-189 {
        fill: #00efdc;
      }

      .cls-190 {
        fill: #010101;
      }

      .cls-191 {
        fill: #010000;
      }

      .cls-192 {
        fill: #010001;
      }

      .cls-193 {
        fill: #060303;
      }

      .cls-194 {
        fill: #6a6a6a;
      }

      .cls-195 {
        fill: #001818;
      }

      .cls-196 {
        fill: #020202;
      }

      .cls-197 {
        fill: #009000;
      }

      .cls-198 {
        fill: #009100;
      }

      .cls-199 {
        fill: #008e00;
      }

      .cls-200 {
        fill: #009803;
      }

      .cls-201 {
        fill: #009800;
      }

      .cls-202 {
        fill: #009494;
      }

      .cls-203 {
        fill: #009502;
      }

      .cls-204 {
        fill: #008d00;
      }
    </style>
  </defs>
  <g id="Layer_1-2" data-name="Layer 1">
    <g>
      <path class="cls-1" d="m554.46,57.66c0,14.33.13,28.66-.1,42.99-.06,3.38.84,4.18,4.09,4.16,20.16-.14,40.32.06,60.48-.18,4.12-.05,4.95,1.24,4.74,5.02-.95,17.23-2.41,34.39-4.77,51.51-3.6,26.17-9.34,51.76-17.3,76.94-9.84,31.12-23.39,60.48-40.65,88.13-12.79,20.5-27.24,39.73-43.44,57.73-27.3,30.34-58.25,56.48-90.77,80.92-27.7,20.81-57.23,38.71-87.38,55.66-7.59,4.26-15.25,8.41-22.73,12.84-2.77,1.64-4.97,1.51-7.82.14-41.9-20.11-80.69-45.17-117.47-73.43-25.89-19.89-51.23-40.42-73.38-64.59-16.7-18.22-30.22-38.86-45.02-58.54-31.03-41.27-47.79-88.58-58.97-138.25-6.03-26.8-10.51-53.86-12.16-81.33-.15-2.47-.21-5.09-1.08-7.35-1.9-4.88.13-5.41,4.44-5.39,20.33.1,40.65-.2,60.98-.1,3.77.02,4.71-1.02,4.7-4.74-.09-26.66.04-53.32.17-79.97.03-5.31.27-10.63.57-15.94.23-4.05,1.85-4.89,5.01-2.79,15.4,10.25,32.66,16.22,50.17,21.49,22.24,6.69,45.09,9.42,68.27,8.78,19.02-.53,37.63-4.09,55.94-9.04,19.71-5.32,39.07-11.79,57.67-20.33,3.05-1.4,5.77-1.31,9,.15,28.56,12.93,58.14,22.72,89.27,27.13,47.4,6.7,92.21-2.15,134.8-23.39,2.05-1.02,3.78-2.67,5.64-4.06,3.69-2.75,5.13-2.2,5.64,2.39,1.17,10.61,1.49,21.26,1.48,31.93-.01,7.16,0,14.33,0,21.49Z"/>
      <path class="cls-175" d="m39.05,110.28c9,0,18,.2,26.98-.1,3.8-.13,4.67,1.14,4.93,4.73,2.32,31.62,7.02,62.85,15.91,93.37,16.78,57.61,47.67,106.63,90.05,148.73,39.43,39.16,84.98,69.97,132.93,97.5,1.76,1.01,3.3,1.17,5.12.13,53.36-30.65,103.67-65.27,145.79-110.77,47.66-51.48,76.46-112,87.73-181.07,2.57-15.79,4.5-31.65,5.56-47.61.24-3.64,1.12-5.09,5.22-5.03,17.99.27,35.98.27,53.97.01,4.5-.06,4.94,1.35,4.66,5.41-2.37,33.81-7.15,67.22-15.79,100.02-17.46,66.27-50.36,123.95-97.04,173.92-42.92,45.95-93.35,82.18-147.44,113.64-13.81,8.03-27.76,15.82-41.63,23.75-1.89,1.08-3.43,2.06-5.9.68-43.17-24.16-85.96-48.88-125.17-79.29-46.59-36.13-87.2-77.73-117.92-128.44-26.91-44.41-43.8-92.48-52.63-143.52-3.55-20.54-5.72-41.22-7.36-61.99-.28-3.59.83-4.2,4.02-4.15,9.33.17,18.66.06,27.98.06Z"/>
      <path class="cls-132" d="m464.56,234.61c.18.19.27.42.27.68.55,1.25,1.75,1.5,2.87,1.69,14.17,2.4,28.11,5.94,42.27,8.39,4.59,1.11,4.01,3.91,2.48,7.22-8.73,18.88-19.32,36.67-31.46,53.53-14.41,20.01-30.94,38.21-48.96,54.99-19.83,18.46-41.3,34.93-63.59,50.31-14.48,9.99-29.44,19.22-44.59,28.14-1.56.92-3.41,4-5.84.88-.36-1.83-.23-3.66-.23-5.49,0-74.73-.01-149.46.02-224.19,0-2.44-.61-5.03.99-7.27,4.48.69,9,1.24,13.24,3-1.85,2.02-3.86.71-5.82.27-1.29-.23-2.58-.48-4.1-.98.86.7,1.72.29,2.37.71,8.4,1.15,16.55,3.53,24.9,4.9,16,3.56,32.13,6.53,48.11,10.17,19.03,4.34,38.31,7.51,57.24,12.3,2.64.67,5.42,1.66,8.28.79.5-.29,1.02-.3,1.53-.04Z"/>
      <path class="cls-175" d="m308.92,100.53c0,29.15-.08,58.31.09,87.46.02,3.96-.81,4.69-4.71,3.83-56.42-12.39-112.87-24.63-169.32-36.88-16.11-3.5-32.2-7.06-48.37-10.27-4.47-.89-6.08-2.64-6.6-7.37-4.55-41.53-4.05-83.15-2.87-124.8.09-3.3.52-4.19,3.87-2.39,57.8,31.21,118.08,33.72,180.12,15.36,14.86-4.4,29.43-9.61,43.55-15.99,3.98-1.8,4.31-.45,4.3,3.09-.1,29.32-.06,58.64-.06,87.96Z"/>
      <path class="cls-175" d="m434.85,55.48c.04-4.83.25-9.67.06-14.49-.12-2.97.63-4.05,3.86-4.04,37.4.15,72.48-9.04,105.31-26.84,3.45-1.87,3.71-.75,3.81,2.43,1.28,42.31,1.8,84.61-3.2,126.75-3.89,32.86-11.08,64.95-23.25,95.82-.75,1.91-1.25,3.47-4.2,2.83-26.83-5.86-53.71-11.52-80.58-17.24-2.73-3.35-1.34-7.19-1.06-10.8.14-1.73,2.1-1.77,3.62-1.76,2.96.01,5.91.15,8.85-.07.43-.17.87-.35,1.29-.55,2.25-1.32,2.13-4.33,4.11-5.84,1.37-.62,2.99-.87,3.64-2.53.46-4.69.49-9.36-.05-14.03-.57-1.09-1.65-1.29-2.71-1.52-.46-.08-.91-.19-1.36-.3-3.81-.7-7.87-.48-11.16-3.04-.53-.52-.75-1.16-.75-1.89.16-1.76,2.01-2.69,2.21-4.44-.01-.62-.07-1.23-.15-1.85.01-2.3-1.81-2.84-3.42-3.58-1.99-.88-4.25-1.43-4.87-3.98-.19-1.31.05-2.47,1.1-3.37,3.76-2.06,8.5-2.54,10.86-6.82.38-.59.87-1.07,1.45-1.46,2.73-1.22,3.44-3.97,4.75-6.27,2.02-5.25,1.59-10.47-.12-15.69-.16-.49-.26-.98-.33-1.49-.18-1.53-.18-3.05-.07-4.58.43-2.68,1.23-5.28,1.85-7.92.11-.7.31-1.39.55-2.06.31-.85.71-1.67,1.07-2.51.8-1.8,1.29-3.71,1.97-5.55.61-1.39,1.31-2.73,1.97-4.09.4-.79.81-1.57,1.29-2.31.39-.58.87-1.08,1.44-1.49,1.45-.95,2.71-.47,3.91.52.61.58,1.49,1.29,1.36,2.01-.99,5.89,3.23,8.01,7.22,10.39,2.83,1.68,5.21,3.85,4.88,7.49-.34,3.86-2.95,6.18-6.18,7.87-.89.47-1.83.66-2.86.69-1.19.04-2.49-2.64-3.7.64-1.14,3.09,1.07,3.24,2.4,4.39.26.22.53.4.9.55,1.31,0,1.2-1.35,1.8-2.04,4.48-5.25,9.78-5.03,13.76.57,2.12,2.98,4.3,5.86,7.07,8.34,3.65,3.26,2.81,6.07-2.01,7.32-2.57.67-5.23.92-7.85,1.38-4.4.77-5.77,3.27-4.46,7.6.14.48.34.94.51,1.41.93,2.47,2.52,5.17.36,7.49-2.07,2.21-4.55.85-6.86-.3-2.86-1.43-2.56,2.54-4.48,2.8-.42.26-.87.45-1.35.58.28.74,1.15.29,1.57.79,1.11,1.82,1.5,2.42,4.42,1.26,5.83-2.31,10.18-5.18,12.39-11.18.47-1.28,2.29-1.85,3.72-2.33,3.74-1.27,5.62-.02,5.15,3.84-.54,4.47-.07,7.7,5.22,8.94,2.89.68,2.63,3.41,1.31,5.72-.66,1.15-2.3,1.33-2.83,2.67,5.01,3.27,5.89,2.25,7.76-2.76,1.99-5.34,1.84-9.45-.81-14.47-1.67-3.18-.74-7.5-.19-11.29.31-2.11,1.57-3.64,3.54-4.5,2.09-.92,3.4-2.6,4.49-4.49.24-.39.51-.76.79-1.13,1.54-4.05-.53-7.53-1.74-11.15-.2-.47-.33-.95-.44-1.45-.91-3.29-1.25-6.64-.97-10.04.26-2.98,1.91-5.67,1.88-8.69-.02-1.73.8-3.68-1.01-5.07-1.44-1.24-2.82-2.59-4.8-2.97-1.46-5.3-2.93-6.07-8.82-4.63-3.58.88-6.82,2.52-9.84,4.6-.82.76-1.19,1.86-2,2.63-.66.42-1.4.37-2.13.37.31.59,1.04.52,1.48.94,1.56,1.26,2.73,2.75,3.1,4.77-.28,2.9-2.44,2.93-4.42,2.52-3.68-.77-7.79-2.61-8.94-5.7-1.39-3.73-3.82-4.73-6.75-5.9-2.25-1.72-5.4-2.97-3.73-6.83.41-4.08,2.93-8.44-1.65-11.82-1.15-1.08-2.15-2.36-3.76-2.84-1.73-.96-5.03.16-5.22-2.4-.2-2.69,3.15-2.66,4.97-3.81.81-.38,1.64-.74,2.46-1.11.77-.36,1.54-.72,2.3-1.1.93-.46,1.88-.86,2.83-1.29.99-.41,1.73-1.23,2.73-1.63.45-.12.89-.16,1.35-.15,2.9.55,6.21.15,7.88,3.47,3.53,2.21,5.39-1.87,8.24-2.19.45-.05.89.01,1.32.17,1.75,1.14,3.39,2.75,5.74,1.42.87-.89.32-1.99.44-2.99,2.25-2.61,3.63-5.98,6.75-7.91-1.97-.1-3.85.22-5.7.74-2.24.12-4.74.98-5.96-1.97-.05-1.39.73-2.33,1.72-3.15,1.02-.94,2.31-1.49,3.38-2.36,1.47-1.01,2.79-2.16,3.69-3.65-.04.05.11-.24.11-.24,0,0-.21.18-.23.22-.89,1.67-2.32,2.72-3.79,3.74-1.14.8-2.35,1.47-3.57,2.15-.71.26-1.43.37-2.18.37-1.32-.09-2.51-.39-3.14-1.73-.2-.73-.17-1.43.28-2.07.45-.44.89-.89,1.14-1.49.12-.29.22-.59.35-.88-.45.17-.22.65-.42.95-.17.26-.29.56-.48.81-1.56,1.91-4.01,2.86-5.38,4.98-.29.37-.62.69-.98.98-3.5,1.78-7.54,2.38-10.72,4.87-.46.18-.93.28-1.42.31-2.32-.14-3.3-1.86-4.27-3.6-.4-1.22-.12-2.32.62-3.29.14-.24.36-.45.64-.6-.28-.07-.5.06-.69.43-1.05,1.12-1.62,2.72-3.33,3.11-2.51.55-4.22-.45-5.29-2.7-.4-.54-.8-1.08-1.25-1.57-2.09-1.81-1.38-3.08.75-4.04-1.31-1.03-2.51.06-3.75.13-1.01.29-2.02.57-2.99.98-.78.35-1.55.7-2.34,1.03-1.02.39-2.03.8-2.94,1.42-2.64.86-4.1,5.19-7.87,2.69Z"/>
      <path class="cls-177" d="m428.76,207.96c.06,1.99-.08,4.02.22,5.97.78,5.14-1.87,5.38-5.82,4.53-34.29-7.34-68.6-14.64-102.92-21.87-3.32-.7-4.59-2.13-4.59-5.71.11-59.46.11-118.93.01-178.39,0-4.27.8-5.25,4.98-3.38,25.14,11.23,51.21,19.52,78.39,24.1,8.36,1.41,16.78,2.64,25.29,2.74,3.64.04,4.99,1.5,4.71,5.18-.36,4.81-.25,9.65-.34,14.47-.31.68-.86,1.13-1.5,1.48-.43.2-.88.33-1.34.4-2.42.15-3.54-1.43-4.41-3.35-.6-1.33-1.37-2.37-3.02-1.29-2.25,2.21-4.64,3.47-7.95,2.11-1.13-.46-.27.79-.38,1.26.04.95-.33,1.75-.78,2.54-.38.59-.86,1.08-1.42,1.5-1.15.75-2.24,1.61-3.53,2.13-1.97.59-3.53-.55-5.2-1.22-1.48-.83-2.7-2.11-4.43-2.5-.92-1.42-2-2.7-3.28-3.81-.9-.89-1.83-1.76-2.45-2.88-.26-.28-.2-.88-.8-.87.45.23.57.71.82,1.11.83,1.21,1.84,2.23,2.91,3.21,1.12.97,1.99,2.15,2.91,3.29,1.71.44,2.83,1.9,4.42,2.55,1.94,1.19,4.32,1.39,6.18,2.78,1.85,1.81,6.03,1.74,4.86,5.99-3.38.93-6.43-.24-9.47-1.48-3.04-1.93-6.33-2.84-9.95-2.39-1.2.06-2.34-.23-3.48-.54-1.54-.53-3.16-.78-4.73-1.21-2.4-.87-4.9-1.47-7.14-2.76-1.74-1.08-3.76-1.46-5.61-2.28-.61-.31-1.11-.74-1.55-1.26-.76-1.05-1.43-2.18-2.4-3.06-1.14-1.25-2.19-1.08-3.18.19-2.47,3.39-6.19,4.34-9.96,5.18-.14.84-.26,1.68-.76,2.41-.44.5-.99.86-1.63,1.18,1.06.67,2.27-.21,3.29.38,1.22.74.67,2.91,2.53,3.11,1.72-.2,3.02-1.46,4.67-1.79,1.11-.22,2.21-.18,3.3.09,1.58.38,3.02,1.31,4.73,1.12,1.35-.92,1.98-2.68,3.69-3.18,2.03-.83,4.08-.5,6.13-.07.46.11.9.27,1.33.47q2.07,2.76-2.39,3.91c1.57.05,3.78-1.92,5.25.9-.07.24-.13.47-.2.64.17-.16.36-.33.6-.54,1.82-.91,3.86-.38,5.68-1.06.85-.28,1.7-.58,2.58-.77.45-.08.91-.08,1.36-.02,1.56.33,3.06.88,4.59,1.34,2.83,1.15,5.71,2.18,8.52,3.39,2.71,1.69,6.38,1.77,8.24,4.89.36,1.06.3,2.06-.36,2.99-1.69,1.29-3.45.46-5.2.17-2.45-.59-4.87-1.49-7.44-.66-1.01.28-2.04.52-2.94,1.1-1.05.72-1.63,1.77-2.02,2.96-.62,2.21-.54,4.41-.03,6.6.29,1.21.82,2.31,1.56,3.31.19.38.3.79.35,1.21.02,1.74,1.55,3.21.93,5.07-.19.43-.43.81-.73,1.18-3.38,4.81-8.57.59-12.64,2.75,1.76,4.74,1.06,9.89,1.15,14.97.05,2.78.59,5.01,4.03,4.93,3.3-.08,3.48-2.36,3.47-4.85,0-3.14-.24-6.3.14-9.42.39-3.22,1.32-6.21,5.13-7,3.34,1.68,3.26,5.32,4.68,8.1.3.92.51,1.87.72,2.81.78,2,1.92,3.86,2.45,5.96.46,1.91.45,3.9,1.02,5.8.61,2.31-.49,4.48-.51,6.73-1.74,14.1,1.07,20.32,11.87,26.24,2.27,1.71,6.29,1.44,6.43,5.6-.38,3.05-2.14,4.94-5,5.9-4.69,2.87-4.7,2.9-1.92,7.79.22.72.27,1.46.17,2.2-1.73,4.93-6.27,5.11-10.22,5.42-4.38.34-5.21,2.31-5.52,6.3-.63,8.02,4.58,11.59,10.17,15.15,3.28.14,6.56-.02,9.83.1,1.76.07,3.68-.18,4.82,1.7Z"/>
      <path class="cls-147" d="m213.74,179.79c11.1,1.77,22.03,4.35,32.93,7.03,1.6,1.77,1.52,3.97,1.52,6.14.01,68.6.02,137.19-.03,205.79,0,2.4.58,5.14-2.25,6.65-11.22-7.96-22.31-16.08-32.58-25.27-.87-2.39-.97-4.87-.97-7.38.01-61.93,0-123.86.04-185.79,0-2.44-.56-5.05,1.33-7.16Z"/>
      <path class="cls-132" d="m275.77,193.46c2.34.37,4.83-.26,7.01,1.12-.07.24-.13.49-.19.73-.59,1.47-1.1,2.97-1.33,4.55-.17,71.54-.02,143.06-.08,214.58,0,2.82.19,5.66-.25,8.46-1.33,3.64-3.65,2.08-5.54.82-7.32-4.88-14.87-9.45-21.76-14.94-2.02-1.61-5.78-1.78-5.32-5.75.13-67.45.01-134.89.07-202.33,0-2.83-.21-5.66.28-8.46.78-2.75,3.01-2.13,4.92-1.97,7.14.6,14.06,2.4,20.94,4.25,1.88.51,1-.56,1.26-1.07Z"/>
      <path class="cls-148" d="m282.78,194.58c7.33,1.53,14.64,3.22,22.01,4.52,3.26.58,4.27,1.91,4.22,5.25-.2,13.99-.09,27.99-.09,41.98,0,64.81,0,129.62-.04,194.43,0,1.35.99,3.23-.78,4.02-1.34.59-2.36-.94-3.45-1.59-7.41-4.46-14.77-9.02-22.14-13.54-1.27-1.74-1.16-3.75-1.16-5.76,0-73.79,0-147.58.02-221.37,0-2.65-.09-5.34,1.3-7.77l.11-.18Z"/>
      <path class="cls-147" d="m144.18,164.26c10.92,2.48,21.84,4.96,32.76,7.44.41.51.71,1.07.94,1.68.19.63.27,1.27.28,1.92.1,55.84.07,111.69.04,167.53-.13,1.35-.39,2.64-1.57,3.51-12.33-12.12-23.16-25.52-33.48-39.35-1.04-4.59-.74-9.25-.74-13.89,0-39.98-.01-79.96.01-119.94,0-2.49-.27-5,.46-7.45.28-.63.72-1.11,1.31-1.45Z"/>
      <path class="cls-147" d="m106.85,243.07c-11.6-27.18-19.15-55.51-23.79-84.64-1.19-7.47-1.07-7.51,6.6-5.82,6,1.32,11.98,2.7,17.97,4.05,1.83,1.68,1.59,3.92,1.59,6.06.03,24.62.05,49.25-.03,73.87,0,2.34.74,5.16-2.34,6.48Z"/>
      <path class="cls-133" d="m282.67,194.75c-.05,2.5-.15,4.99-.15,7.49,0,75.8,0,151.61,0,227.41-12.54-7.58-24.61-15.87-36.61-24.26.84-.93.89-2.02.89-3.24-.04-71.28-.05-142.56-.06-213.84,0-.5-.05-1-.07-1.49,9.7,2.21,19.59,3.61,29.11,6.64.5,1.73,2.94.48,3.74,3.03-10.2-2.01-19.97-3.94-29.73-5.86-1.11,1.69-.48,3.56-.48,5.33-.04,67.73-.03,135.47-.06,203.2,0,1.8.45,3.66-.46,5.4,9.57,6.39,19.13,12.79,28.71,19.15.66.44,1.51.58,2.27.86,1.11-1.69.48-3.56.48-5.33.04-72.06.03-144.13.06-216.19,0-1.8-.45-3.66.46-5.4.07-1.33-.21-2.9,1.9-2.88Z"/>
      <path class="cls-188" d="m319.76,441.55c5.98-5.32,13.24-8.7,19.97-12.84,23.16-14.26,45.26-29.95,66.47-46.97,14.65-11.75,28.56-24.28,41.59-37.77,20.23-20.94,37.64-44.05,52.14-69.29,4.27-7.44,7.88-15.26,11.67-22.96.85-1.73,2.8-4.02-.9-5.11-.1-1.02.25-1.52,1.34-1.18,4.78-.63,4.64,1.1,2.91,4.88-20.71,45.24-50.91,83.27-87.66,116.46-32.78,29.6-69.13,54.15-107.11,76.42-.42.24-.94.31-1.42.45-.52-1.1.15-1.63.99-2.08Z"/>
      <path class="cls-185" d="m319.76,441.55c-.33.69-.66,1.39-.99,2.08-2.52,1.87-2.42.51-2.41-1.69.12-29.94.18-59.88.19-89.82.02-46.74.01-93.49,0-140.23,0-2.15-.22-4.31-.29-6.46-.06-1.78.28-3.13,2.53-1.95.9,2.46-.09,4.91-.08,7.36.07,75.01.05,150.02.09,225.02,0,1.9-.76,4.03.97,5.67Z"/>
      <path class="cls-187" d="m143.59,164.79c0,45.27-.01,90.54-.05,135.81,0,2.14-.26,4.27-.39,6.4-1.41-2.15-2.82-4.3-4.22-6.44.33-.86.21-1.88.92-2.62.27-.46.46-.93.55-1.46.03-40.83,0-81.63,0-122.43,0-1.65.2-3.35-.88-4.79-7-4.18-15.17-4.08-22.72-6.22-2.83-.8-5.91-.81-8.09-3.2-.3-.56-.23-1.07.22-1.52,1.97-.16,3.96-.53,5.87.32,6.3,1.48,12.9,1.56,19,3.98,3.05,1.68,6.62,1.01,9.78,2.18Z"/>
      <path class="cls-184" d="m177.38,174.61l-.09-1.96c1.76-.89,2,.62,2.57,1.63.17.61.26,1.23.29,1.86.13,53.4.02,106.8.08,160.19,0,2.65-.3,5.33.43,7.92,4.48,6.48,10.41,11.63,16.17,16.87,4.29,3.9,8.45,7.99,13.06,11.55.32.34.62.7.91,1.07.58.73,1.29,1.38,1.63,2.29.22.99.18,1.91-.75,2.57-12.49-9.88-24.03-20.78-35.05-32.25.25-1.24.49-2.48.74-3.71-.07-56.01-.1-112.02.02-168.02Z"/>
      <path class="cls-134" d="m463.69,234.68c-2.53,4.41-6.36,1.11-8.66.52-11.33-2.9-22.83-4.94-34.25-7.4-16.76-3.62-33.53-7.21-50.31-10.77-7.23-1.53-14.48-2.95-21.72-4.41-.19-1.05.47-1.46,1.29-1.76,3.3-.15,6.41,1.04,9.63,1.44,3.25,1.33,6.8,1.34,10.15,2.26l-.05-.04c1.73,1.1,3.97.42,5.68,1.61,2.89-.11,5.55,1.12,8.37,1.43l-.06-.04c4.6,1.65,9.57,1.53,14.2,3.01,9.07.89,17.79,3.6,26.72,5.25,4.05.75,8.02,1.87,12.03,2.82,1.56.7,3.3.86,4.87,1.54,2.88-.13,5.55.95,8.32,1.41.27-.09.54-.07.8.06,2.57.98,5.23,1.59,7.99,1.73,1.37,1.54,3.54.12,4.99,1.37Z"/>
      <path class="cls-189" d="m213.74,179.79c.02,65.64.04,131.28.03,196.92,0,1.14-.28,2.28-.44,3.42-.34-.01-.55-.2-.63-.57-1.42-5.53-1.34-11.16-1.34-16.81.02-58.31,0-116.61.05-174.92,0-2.74-.8-5.72,1.42-8.11.32-.21.62-.18.9.08Z"/>
      <path class="cls-186" d="m212.83,179.71c-.01,63.62-.03,127.24-.04,190.85,0,3-.06,5.99-.09,8.99-.34-.32-.68-.63-1.02-.95,0-1.01,0-2.02,0-3.03-1.31-2.09-1.29-4.43-1.29-6.76.03-61.9-.09-123.81.05-185.71.04-.97.18-1.93.61-2.82.33-.6.85-.92,1.54-.95l.25.11v.28Z"/>
      <path class="cls-158" d="m413.34,76.55c-2.55-1.24-5.09-2.47-7.64-3.71-1.5-2.25-5.05-1.2-6.28-3.89.11-.48.35-.88.72-1.2.22-.09.45-.17.67-.25,3.31.78,6.62,1.57,9.93,2.35.21-.03.43-.07.64-.11,2.52.58,5.01,1.33,7.64,1.19,2.41.87,4.37,2.44,6.27,4.09.86.51,1.61,2.14,2.68,1.01,1.16-1.23-.08-2.64-.63-3.91-.18-.43-.27-.88-.3-1.35.06-1.24.56-2.24,1.6-2.95,1.7.1.71-2,1.9-2.31,1.06-.96,2.09-1.54,2.96.21.61,1.64.4,3.38.59,5.08.12,1.17.5,2.32.25,3.51-.17.67-.48,1.28-.79,1.89-1,1.71-.18,3.5-.21,5.26-.43,1.91-1.81,2.14-3.43,1.98-3.12-.98-6.31-1.72-9.43-2.68-2.62-1-5.1-2.24-7.14-4.21Z"/>
      <path class="cls-184" d="m139.82,298.59c-.02.78-.15,1.51-.89,1.97-12.23-17.25-22.49-35.59-30.76-55.05.1-1.13-.59-2.53,1.06-3.14,2.19.73,2.67,2.81,3.48,4.56,7.46,16.25,16,31.9,25.83,46.85.93,1.41,2.71,2.72,1.29,4.81Z"/>
      <path class="cls-162" d="m407.85,59.38c.47-.24.94-.48,1.4-.72.59-.73.51-1.55.34-2.38-1.63-.47-2.23-1.68-2.36-3.33,3.42-1.16,7.52,5.32,10.49-.85,2.48-2.07,3.34-.39,4.02,1.73.79,2.46,1.96,4.27,4.97,2.77h0c1.64-.36,3.79-1.5,2.99,1.93-.56.3-1.12.61-1.68.91-.73,1.23-1.19,2.52-.82,3.99-.09,1.46-1.02,1.95-2.31,2.03-3.91-2.17-7.54-.36-11.2.84-1.58-.46-1.83-1.85-2.24-3.13-.43-1.39-1.85-1.45-2.84-2.11-.53-.44-.85-.97-.76-1.69Z"/>
      <path class="cls-187" d="m512.05,245.43c-.45.39-.89.79-1.34,1.18-6.76-1.21-13.52-2.48-20.29-3.61-7.22-1.21-14.14-3.85-21.49-4.44-2-.16-4.05-.54-4.1-3.28.97.11,1.93.23,2.9.34,1.88,1.22,4.16-.18,6.06.92l-.06-.04c1.45,1.41,3.52-.09,5.02,1.07l-.03-.02c3.02.88,6.12,1.41,9.22,1.96.26-.1.52-.08.76.06,1.57.7,3.31.88,4.9,1.54,2.86-.06,5.51,1.12,8.31,1.41,1.66.01,3.38-.25,4.81.96,1.4,1.47,3.49-.11,4.95,1.12.17.25.3.52.37.82Z"/>
      <path class="cls-131" d="m109.03,242.69c-.29.94-.58,1.88-.86,2.82-.73-.66-1.5-1.29-1.32-2.44,1.05-.85.97-2.04.96-3.2-.06-27.74-.12-55.47-.18-83.21.41.08.83.16,1.25.25.48.54.53,1.11.15,1.73,0,.34,0,.68,0,1.02,1.54,2,1.42,4.37,1.42,6.68.03,23.23.03,46.47,0,69.7,0,2.29.27,4.69-1.4,6.66Z"/>
      <path class="cls-133" d="m211.9,179.76c-.09.62-.18,1.25-.28,1.87-.39.37-.84.64-1.35.82-.52.13-1.05.17-1.58.14-9.11-2.18-18.56-2.86-27.47-5.97-1.02-.39-1.66-1.26-2.41-1.99,0-.33,0-.67,0-1,1.71-.84,3.43-.64,5.16-.07,4.75.34,9.39,1.21,13.83,2.98,1.59,1.2,4.04.07,5.36,1.99,1.54.01,3.07.03,4.61.04,1.14,1.22,2.88.34,4.12,1.18Z"/>
      <path class="cls-149" d="m428.76,207.96c-5.38-.15-10.77-.31-16.15-.46.36-1.92,1.98-2.17,3.4-2.21,9.88-.31,19.77-.47,29.65.09.99.06,1.92.47,2.76,1.03.81.59,1.37,1.36,1.52,2.38-3.38,1.27-6.9.69-10.32.51-3.02-.16-4.43.48-4,3.7.34,2.58-.74,5.34,1.05,7.72-4.22-1.47-2.18-5.12-1.96-7.44.48-5.1-1.47-6.32-5.94-5.32Z"/>
      <path class="cls-135" d="m349.75,211.62c-.33.33-.67.67-1,1-7.62-1.66-15.25-3.3-22.86-5-.75-.17-1.43-.66-2.14-1,.46-.71,1.48-.31,1.96-.97,1.99,1.13,4.14,1.09,6.31.83.25-.07.48-.04.71.08,2.83,1.45,6.03,1.25,9.01,2.05,1.45,1.46,3.36.46,4.99.94.53,1.38,3.33-.57,3.02,2.06Z"/>
      <path class="cls-62" d="m434.85,55.48c3.56.52,4.81-3.39,7.76-4.04.84.21,1.72.32,2.31,1.06.44,1.09.07,2.11-.24,3.14-.15.38-.36.74-.62,1.05-.87.59-1.88.24-2.81.45-.88.4-1.41,1.23-2.2,1.75-.38.18-.77.27-1.18.3-1.02-.06-2.12.36-3.04-.44l.03-3.28Z"/>
      <path class="cls-127" d="m434.82,58.77c1.03.56,1.83-1.69,2.93-.24.56,2.45-1.1,4.54-1.12,6.89-.25.67-.65,1.22-1.36,1.47-.56-.98-1.51-1.14-2.51-1.21-.67-.88-1.46-.11-2.2-.17.7-2.71,2.43-4.76,4.26-6.75Z"/>
      <path class="cls-132" d="m349.75,211.62c-1.01-.69-2.01-1.37-3.02-2.06,4.85.37,9.6,1.16,14.13,3.01-.32.43-.68.47-1.08.12-3.38,0-6.58-1.63-10.02-1.07Z"/>
      <path class="cls-136" d="m424.07,64.32c1.03-.24,2.65.48,2.57-1.57.44-.3.86-.28,1.25.1,0,1.7-.99,3.55.76,4.98-.31,1-.62,1.99-.93,2.99-3.36-.96-3.95-3.49-3.65-6.5Z"/>
      <path class="cls-132" d="m397.97,220.53c-4.83-.54-9.79-.51-14.2-3.01,4.83.54,9.72.83,14.2,3.01Z"/>
      <path class="cls-55" d="m427.89,62.85c-.42-.03-.83-.07-1.25-.1-.62-.67-1.81-1.41-1.74-1.99.24-1.79,2.15-.58,3.11-1.31,1.68,1.19,1.78,2.33-.12,3.4Z"/>
      <path class="cls-132" d="m143.59,164.79c-3.34-.35-6.92.34-9.78-2.18,3.46.55,6.92,1.09,10.38,1.64-.02.38-.21.56-.6.53Z"/>
      <path class="cls-133" d="m359.78,212.69c.36-.04.72-.08,1.08-.12,3.16-.1,6.14.59,8.96,1.99-3.51.25-6.83-.53-10.04-1.87Z"/>
      <path class="cls-201" d="m449.92,231.54c-3.17.72-6.07-1.21-9.19-.93-.3-.25-.4-.5-.29-.74.11-.24.21-.36.31-.36,3.18.09,6.34.29,9.16,2.03Z"/>
      <path class="cls-132" d="m383.82,217.55c-3.13.69-5.98-1.24-9.07-.94-.3-.25-.4-.5-.29-.74.11-.24.21-.36.31-.36,3.17-.02,6.21.59,9.05,2.04Z"/>
      <path class="cls-132" d="m501.91,242.54c-3.17.71-6.07-1.21-9.2-.93-.3-.24-.4-.48-.29-.71.1-.23.21-.35.31-.35,3.21-.02,6.29.56,9.19,1.99Z"/>
      <path class="cls-132" d="m487.94,239.53c-3.27.26-6.39-.15-9.22-1.96,3.23-.09,6.28.66,9.22,1.96Z"/>
      <path class="cls-135" d="m341.74,208.62c-3.16,0-6.38.29-9.01-2.05,3.12.15,6.17.65,9.01,2.05Z"/>
      <path class="cls-201" d="m458.72,233.66c-2.84-.01-5.67-.07-8-2.07,3.2.03,6.22.88,9.2,1.94-.34.53-.74.58-1.2.13Z"/>
      <path class="cls-200" d="m183.98,173.56c-1.72.02-3.44.05-5.16.07-.27-.7-.82-.96-1.53-.99-.12-.32-.23-.63-.35-.95,2.46.19,4.84.69,7.03,1.86Z"/>
      <path class="cls-132" d="m109.03,158.63c-.05-.58-.1-1.15-.15-1.73,1.87.94,4.26.11,5.93,1.73-1.93,0-3.85,0-5.78,0Z"/>
      <path class="cls-97" d="m429.7,58.53c.13-2.39-1.99-1.29-2.99-1.93.67-.33,1.33-.67,2-1,.94.2,2.15.11,2.34,1.35.12.79-.24,1.62-1.36,1.58Z"/>
      <path class="cls-133" d="m374.77,215.51c0,.37-.02.73-.02,1.1-1.42-1.28-3.77-.34-4.98-2.09,1.73.03,3.52-.26,5,.99Z"/>
      <path class="cls-201" d="m458.72,233.66c.4-.04.8-.09,1.2-.13,1.6.14,3.33-.27,4.64,1.08-.29,0-.58.03-.87.07-1.66-.33-3.57.57-4.97-1.02Z"/>
      <path class="cls-132" d="m473.79,236.55c-2.03-.22-4.27.85-6.06-.92,2.1-.18,4.2-.41,6.06.92Z"/>
      <path class="cls-132" d="m203.17,178.53c-1.68-.95-3.96-.3-5.36-1.99,1.94.26,4.3-.64,5.36,1.99Z"/>
      <path class="cls-203" d="m211.9,179.76c-1.66.59-3.09.41-4.12-1.18,1.63.08,3.3-.09,4.81.75-.18.22-.41.37-.68.44Z"/>
      <path class="cls-132" d="m511.67,244.61c-1.67-.26-3.63.74-4.95-1.12,1.67.28,3.54-.34,4.95,1.12Z"/>
      <path class="cls-132" d="m478.76,237.59c-1.7-.22-3.66.76-5.02-1.07,1.73.08,3.54-.2,5.02,1.07Z"/>
      <path class="cls-132" d="m440.75,229.5c0,.37-.02.74-.03,1.1-1.21-.92-3.03-.63-4.01-2.02,1.42-.03,2.87-.2,4.03.91Z"/>
      <path class="cls-183" d="m492.73,240.55c0,.35,0,.71-.01,1.06-1.34-.67-2.67-1.35-4.01-2.02,1.42,0,2.87-.17,4.02.96Z"/>
      <path class="cls-190" d="m569.21,207.45c7.01-4.72,11.29-4.84,15.88-.59,2.91,2.69,4.26,6.03,3.23,9.91-1.75,6.59-3.79,13.1-5.59,19.67-.58,2.13-1.61,2.57-3.64,1.93-10.62-3.36-21.25-6.7-31.92-9.9-2.52-.75-3.1-1.84-2.23-4.31,1.66-4.7,3.09-9.49,4.52-14.27,1.49-4.96,4.09-8.97,9.62-9.54,5.11-.53,8.33,2.51,10.12,7.1Z"/>
      <path class="cls-190" d="m441.66,406.12c4.61.03,7.45,2.35,9.27,6.03,2.03,4.12,1.9,8.34-1.44,11.56-5.25,5.08-10.94,9.71-16.4,14.57-1.39,1.24-2.31.68-3.3-.5-7.37-8.79-14.74-17.59-22.17-26.33-1.23-1.45-1.29-2.49.25-3.72,4.94-3.94,9.71-8.1,14.75-11.9,3.23-2.44,6.97-3.25,10.75-1.02,3.57,2.1,5.61,5.06,4.99,9.46-.53,3.75,2.27,1.46,3.3,1.84Z"/>
      <path class="cls-190" d="m134.53,333.69c-.07,8.23-8.77,17.66-18.21,19.38-3.03.55-5.8.5-3.96,4.91.83,1.99-.99,2.44-2.54,2.75-1.55.31-3.66.48-3.4-1.53.94-7.21-5.21-10.21-8.31-15.02-4.36-6.76-4.08-13.9.67-19.95,6.02-7.66,15.35-11.19,22.82-8.66,6.71,2.28,12.99,11.08,12.93,18.11Z"/>
      <path class="cls-190" d="m556.64,180.74c.25-12.16,8.16-20.09,19.68-19.74,12.83.4,21.52,8.08,21.42,18.92-.12,11.77-8.06,19.95-19.18,19.77-13-.21-22.14-8.12-21.91-18.95Z"/>
      <path class="cls-190" d="m467.16,359.13c10.56.06,22.35,11.29,22.77,21.1.17,3.85-1.31,7.2-3.82,10.01-3.43,3.85-7.08,7.5-10.53,11.32-1.46,1.61-2.51,1.6-4.07.07-8.1-7.9-16.27-15.72-24.46-23.53-1.25-1.2-1.9-2.2-.35-3.69,4.32-4.14,8.48-8.46,12.87-12.52,2.26-2.09,5.15-3.01,7.58-2.77Z"/>
      <path class="cls-190" d="m227.59,443.36c1.89,5.99.84,11.44.57,16.89-.13,2.53-.99,2.85-3.06,1.45-3.06-2.07-5.18-4.28-4.48-8.52.56-3.41.17-6.98.28-10.47.1-3.07-1.56-5.32-4.06-6.31-2.58-1.03-2.82,2.17-4.07,3.47-1.38,1.42-2.57,3.09-3.53,4.82-1.7,3.07-3.29,3.17-6.18,1.07-2.98-2.17-1.73-3.45-.19-5.51,5.88-7.87,11.71-15.77,17.34-23.82,1.88-2.69,3.22-3.04,5.82-.84,4.06,3.43,8.58,6.31,12.72,9.65,4.76,3.84,5.91,8.15,3.76,12.69-2.39,5.06-6.67,6.93-12.86,5.64-.46-.1-.95-.09-2.06-.19Z"/>
      <path class="cls-190" d="m50.52,214.32c6.73-1.69,13-3.16,19.21-4.87,2.63-.73,3.69-.29,4.55,2.57.93,3.08-.3,3.85-2.71,4.45-9.36,2.32-18.7,4.76-28.1,6.91-1.73.4-4.32,2.75-5.5-.61-.95-2.68-2.11-5.41.92-8.13,4.94-4.44,9.42-9.4,14.08-14.15.78-.79,1.5-1.65,1.84-3.37-5.96,1.49-11.99,2.74-17.84,4.55-3.3,1.02-4.41-.04-5.21-3.02-.89-3.34,1.28-3.45,3.45-3.99,9.36-2.31,18.7-4.74,28.08-7,1.56-.38,3.73-2.04,4.74.61.89,2.34,2.44,4.81-.17,7.34-5.02,4.86-9.88,9.89-14.77,14.89-.88.9-2.23,1.47-2.57,3.82Z"/>
      <path class="cls-190" d="m489.46,327.35c1.87,1.6,3.27,2.53,4.32,3.76,1.28,1.5-.4,2.37-1.16,3.3-3.06,3.73-5.98,7.61-9.37,11.03-3.1,3.13-.16,4.01,1.44,5.69,1.98,2.07,3.45,2.63,5.45-.17,2.51-3.51,5.61-6.59,8.24-10.02,1.67-2.18,2.88-1.92,4.82-.29,2.04,1.72,2.08,2.91.3,4.82-2.94,3.17-5.53,6.66-8.46,9.85-1.73,1.88-1.8,2.97.29,4.77,5.65,4.87,5.54,4.99,10.37-.76,2.46-2.93,5.05-5.77,7.37-8.81,1.54-2.01,2.71-2.47,4.76-.55,1.71,1.6,2.61,2.55.64,4.76-5.21,5.83-10.27,11.81-15.13,17.94-1.91,2.4-3.12,2.04-5.16.29-8.08-6.94-16.23-13.81-24.49-20.53-2.32-1.88-2.74-3.08-.56-5.48,4.92-5.42,9.5-11.15,14.2-16.76.72-.86,1.35-1.8,2.12-2.83Z"/>
      <path class="cls-190" d="m401.64,458.2c-3.56-.14-6.49-1.7-8.65-4.38-5.42-6.73-10.69-13.58-16.03-20.37-2.43-3.1,1.07-3.44,2.26-4.78,1.7-1.9,3.11-1.77,4.73.46,4.4,6.05,8.99,11.95,13.58,17.87,2.72,3.51,5.97,4.54,9.98,1.93,4.73-3.08,5.58-6.18,2.32-10.78-4.23-5.97-8.53-11.9-13.18-17.54-2.24-2.71-1.6-3.83.82-5.83,2.75-2.28,3.99-1.55,5.79,1,4.21,5.98,8.89,11.63,13.04,17.65,5.67,8.22,4.59,13.97-3.38,20.15-3.32,2.57-6.84,4.75-11.28,4.65Z"/>
      <path class="cls-190" d="m562.45,284.17c-.11,13.58-11.26,21.12-23.41,15.69-6.38-2.85-12.54-6.19-18.92-9.02-3.02-1.34-2.97-2.78-1.55-5.34,1.31-2.36,2.13-3.64,5.2-1.95,6.26,3.44,12.78,6.42,19.28,9.42,5.06,2.33,8.47,1.11,10.79-3.52,2.23-4.45,1.21-7.36-3.9-10.01-6.5-3.37-13.07-6.61-19.69-9.72-2.55-1.2-3.14-2.37-1.51-4.89,1.29-1.99,1.64-4.26,5.01-2.44,7.17,3.87,14.65,7.17,21.82,11.03,4.95,2.66,6.91,6.22,6.88,10.75Z"/>
      <path class="cls-190" d="m110.46,294.88c-.07,2.14-2.19,2.2-3.45,3.06-1.69,1.17-2.33-.49-2.94-1.59-2.25-4.08-4.66-8.09-6.54-12.34-1.43-3.22-2.99-2.65-5.37-1.28-2.2,1.27-4.07,2.1-2.08,5.16,2.08,3.2,3.56,6.78,5.54,10.05,1.33,2.2,1.7,3.59-1.05,5.11-3.04,1.68-3.74-.26-4.77-2.22-1.63-3.09-3.53-6.06-4.88-9.27-1.35-3.2-2.91-4.15-5.84-1.85-2.13,1.67-6.63,1.75-3.36,6.53,2.52,3.69,4.08,8.01,6.46,11.8,1.51,2.41.88,3.44-1.3,4.65-2.07,1.15-3.13.88-4.26-1.32-3.41-6.66-7.02-13.23-10.64-19.78-1.12-2.02-.93-3.15,1.28-4.3,9.45-4.9,18.81-9.97,28.18-15.02,1.31-.71,2.46-1.17,3.35.48,3.78,7.03,7.54,14.07,11.31,21.11.16.29.23.62.38,1.01Z"/>
      <path class="cls-190" d="m207.1,402.66c-1.13,1.27-2,2.5-3.13,3.44-1.53,1.28-2.36-.33-3.29-1.13-3.53-3.04-7.17-5.98-10.51-9.22-2.59-2.52-3.66-.47-5.05,1.17-1.36,1.59-3.48,2.89-.54,5.14,3.43,2.63,6.52,5.69,9.89,8.41,1.94,1.56,1.79,2.74.19,4.46-1.47,1.59-2.51,2.36-4.43.52-3.12-2.99-6.52-5.69-9.74-8.59-4.03-3.63-4.41,1.44-6.24,2.71-1.74,1.22-3.4,2.8-.51,5.03,3.94,3.05,7.5,6.6,11.39,9.73,1.93,1.56,1.95,2.67.29,4.41-1.43,1.5-2.39,2.49-4.43.65-5.68-5.13-11.51-10.1-17.35-15.06-1.56-1.33-1.93-2.33-.4-4.05,7.18-8.09,14.25-16.28,21.33-24.47,1.02-1.17,1.91-1.74,3.3-.53,6.02,5.26,12.08,10.47,18.1,15.72.45.4.7,1.02,1.12,1.65Z"/>
      <path class="cls-190" d="m26.77,174.16c-.92-3.45,1.41-4.35,3.34-5.07,3.7-1.39,4.68-3.75,3.54-7.37-.4-1.25-.65-2.63-.6-3.93.18-4.37-1.52-6.86-6.17-7.02-4.68-.17-4.11-4.03-4.48-6.98-.21-1.75,1.3-1.54,2.48-1.26,11.32,2.69,22.62,5.49,33.97,8.03,3.19.71,2.9,3.05,3.49,5.24.61,2.29.07,3.72-2.05,4.92-9.99,5.63-19.83,11.52-29.89,17.02-5.24,2.86-2.58-2.6-3.63-3.57Z"/>
      <path class="cls-190" d="m263.94,483.66c.09-2.48,2.5-5.26.25-7.13-3.29-2.74-7.1-4.93-10.9-6.95-1.71-.91-3.08,1.06-4.1,2.2-3.02,3.38-5.72,2.07-8.59-.11-1.53-1.16-1.33-2.03.07-3.07,9.49-7.04,18.99-14.06,28.41-21.18,1.98-1.5,3.35-.58,4.87.56,1.63,1.23,4.15,1.69,3.59,4.68-2.16,11.61-4.27,23.23-6.39,34.85-.21,1.17-.54,2.79-2.04,1.79-2.13-1.43-5.51-2-5.17-5.64Z"/>
      <path class="cls-190" d="m351.47,479.26c-1.62-5.03,2.45-3.98,4.53-4.75,3.26-1.2,3.07,1.49,3.28,3.35.77,6.7-2.16,11.55-7.7,15.05-6.2,3.93-12.64,4.39-18.78.31-6.9-4.58-10.74-11.37-11.24-19.63-.43-6.97,3.15-12.09,9.02-15.56,5.17-3.06,10.6-3.98,16.06-.69,1.23.74,3.96,1.48,2.26,3.39-1.49,1.68-2.77,5.57-6.08,3.59-4.44-2.64-7.96-1.62-11.2,1.63-3.45,3.46-3.02,7.45-1.07,11.53,1.59,3.33,3.48,6.45,6.32,8.86,3.08,2.6,6.45,3.32,10.15,1.27,3.45-1.91,4.82-4.86,4.45-8.37Z"/>
      <path class="cls-190" d="m144.91,392.73c-7.38-.91-11.72-5.86-14.82-11.93-2.64-5.17-.56-9.73,3.32-13.5,5.48-5.34,11.12-10.51,16.57-15.87,2.44-2.41,3.35-.13,4.69,1.17,1.49,1.44,2.94,2.54.47,4.69-5.26,4.59-10.33,9.41-15.32,14.3-4.02,3.94-4.12,7.15-.73,10.81,3.43,3.71,6.25,3.74,10.72-.24,5.09-4.53,10.18-9.09,14.99-13.92,2.33-2.34,3.44-1.22,5.13.57,1.73,1.82,2.65,3.03.16,5.16-5.56,4.75-10.8,9.88-16.27,14.74-2.5,2.22-5.21,4.21-8.92,4.03Z"/>
      <path class="cls-190" d="m533.31,334.39c-.84-.56-1.51-1.05-2.21-1.49-9.17-5.73-18.32-11.5-27.55-17.13-2.25-1.37-3.11-2.33-1.29-4.95,3.79-5.46,7.24-11.17,10.62-16.9,1.41-2.38,2.51-2.86,5.04-1.29,2.81,1.74,1.98,3.16.61,5.16-1.88,2.74-3.55,5.63-5.33,8.44-2.47,3.93-.74,7.6,3.98,8.57,1.57.32,2.01-.74,2.62-1.71,1.86-2.96,3.85-5.84,5.54-8.89,1.32-2.38,2.59-2.33,4.71-.93,2.11,1.38,2.91,2.58,1.01,4.65-.44.48-.74,1.1-1.09,1.67q-5.93,9.49,3.82,15.53c4.48,2.78,4.76,4.87,1.09,8.2-.47.42-1.04.72-1.57,1.08Z"/>
      <path class="cls-196" d="m575.41,256.82c-.26,3.81-2.76,5.38-6.8,3.82-7.44-2.87-14.95-5.59-22.29-8.71-3.1-1.32-4.54-.74-5.36,2.41-.42,1.6-1.31,3.06-1.77,4.65-.81,2.79-2.43,1.99-4.24,1.21-1.86-.8-3.1-1.47-2.06-4,3.16-7.68,6.09-15.45,9.03-23.22.87-2.29,1.91-3.14,4.47-2.04,2.3.99,2.95,1.91,2.02,4.45-2.86,7.8-2.75,7.86,5.15,10.88,6.36,2.44,12.76,4.79,19.1,7.28,1.26.49,3.11.66,2.76,3.27Z"/>
      <path class="cls-196" d="m597.3,158.42c-10.15-1.21-21.35-2.57-32.56-3.86-3.15-.36-2.32-2.44-2.23-4.42.11-2.57.75-4.04,3.83-3.61,8.22,1.14,16.5,1.87,24.69,3.17,3.62.57,4.69-.6,4.9-3.97.25-3.97,1.03-7.9,1.38-11.86.23-2.59,1.33-3.39,3.89-3.07,2.58.32,3.32,1.39,2.95,3.96-.99,6.9-1.78,13.83-2.58,20.75-.23,2.02-.56,3.74-4.27,2.92Z"/>
      <path class="cls-196" d="m393.44,464.79c.12,1.2-.75,1.76-1.57,2.31-6.2,4.19-12.44,8.32-18.6,12.57-1.84,1.27-2.8.83-3.97-.94-6.17-9.28-12.35-18.55-18.77-27.65-1.94-2.75-.07-3.41,1.57-4.51,1.73-1.16,3.24-3.1,5.23-.03,4.42,6.84,9.26,13.42,13.57,20.33,2.1,3.37,3.77,4.38,7.13,1.54,2.9-2.46,6.26-4.38,9.44-6.5,2.35-1.56,5.74.1,5.97,2.88Z"/>
      <path class="cls-196" d="m78.17,241.84c-.82-2.03-1.41-3.96-2.35-5.71-1.22-2.27-.83-3.57,1.6-4.64,2.47-1.09,3.54-.41,4.43,2.03,2.7,7.33,5.51,14.63,8.49,21.85.95,2.31.37,3.25-1.76,4.15-2.3.97-3.39.71-4.46-1.82-3.09-7.29-3.24-7.24-10.48-4.48-6.06,2.3-12.21,4.42-18.13,7.05-3.31,1.47-3.88-.27-4.97-2.59-1.29-2.76-.31-3.83,2.23-4.75,7.5-2.74,14.95-5.63,22.38-8.55,1.24-.49,3.11-.57,3.01-2.53Z"/>
      <path class="cls-185" d="m325.72,205.65c-.41.81-1.16.94-1.96.97-.69-.16-1.57.33-2.22-.97h4.18Z"/>
      <path class="cls-192" d="m199.97,47.52c30.92-.06,56.03,24.87,56.1,55.71.08,30.77-24.87,55.8-55.87,56.05-30.56.25-56.13-25.15-56.19-55.81-.06-30.75,25.09-55.89,55.95-55.96Z"/>
      <path class="cls-175" d="m419.23,158.69c-10.61-4.89-14.63-13.65-12.33-26.88.38-1.23.6-2.52,1.46-3.56.56-1.45.66-3.07,1.7-4.33,3.8-3.61,8.41-6.41,11.12-11.11,2.83-5.52,4.8-10.78,1.8-17.3-1.78-3.87-4.26-4.53-7.56-5.02-1.86-.72-3.08-2.03-3.67-3.93-.32-2.15-.73-4.33,1.09-6.1,2.08-1.55,4.18-1.69,6.31-.09,2.65,1.03,5.48,1.42,8.16,2.37,2.95,1.35,5.74.97,8.4-.78,2.01-.45,3.87-1.26,5.7-2.2,1.36-.48,2.71-1.03,4.2-.93.51.06.98.23,1.43.48.86.65,1.38,1.51,1.63,2.55.4,2.15-.12,4.11-1.23,5.94-1.36,1.91-3.21,3.11-5.43,3.77-4.39,0-3.83,4.16-5.42,6.51-2.44,5.78.77,10.6,2.65,15.64.67,1.1,1.3,2.23,2.07,3.27.65.84,1.4,1.59,2.17,2.33,1.4,1.54,3.26,2.53,4.75,3.94.85,1.03,2.2,1.46,3.02,2.52.69,1.25.9,2.67,1.38,3.99.19,1.27,1.13,2.31,1.07,3.65.6,3.8.68,7.59-.05,11.38-1.22,3.19-2.58,6.31-4.96,8.84-.33.34-.65.68-.98,1.02-3.13,3.05-7.16,4.53-11.01,6.32-3.08.94-1.82,3.36-1.75,5.32.07,1.98.64,3.86,1.59,5.61.7,1.52,2.1,2.57,2.71,4.14.11.81-.08,1.51-.73,2.06-5.15,1.59-10.36,1.42-15.59.51-.51-.15-.96-.41-1.36-.76-.78-1.29-.27-2.46.34-3.61,1.19-1.81,1.78-3.94,2.94-5.78,2.37-7.55,2.26-7.74-5.62-9.79Z"/>
      <path class="cls-177" d="m513.8,140.88c-.18,2.68-1.96,4.42-4.15,5.12-3.32,1.05-3.67,3.31-3.71,6.16-.08,5.77-.65,11.62,4.7,15.77.53.41.8,1.41.14,1.72-5.75,2.65-4.03,8.06-4.47,12.61-3.86-.84-7.45-1.62-11.36-2.46.34-1.93,1.45-3.38,3.31-3.59,2.69-.31,2.68-1.87,2.49-3.86-.21-2.2-1.58-1.96-3.21-1.93-5,.08-4.54-3.57-4.79-6.98-.14-1.97,2.88-5.22-.66-5.7-3.49-.47-7.75,2.06-7.71,5.68.08,6.29-2.77,6.5-7.57,5.97-3.15-.35-3.91,3.17-5.73,4.97-.44.44-.98.77-1.53,1.19-1.99-1.64.77-4.59-1.92-5.74-.55-.76-.51-1.51.02-2.25,1.32-1.84,5.28-2.81,7.9-2.07,2.96.83,4.65-.15,4.01-3.44-.28-1.42-1.05-2.76-1.66-4.1-2.52-5.57-.42-9.36,5.73-10.28,2.47-.37,4.95-.65,7.41-1.07,1.48-.25,3.18-.61,3.59-2.24.39-1.55-1.26-2.18-2.23-3-3.06-2.62-5.51-5.74-7.75-9.07-1.02-1.51-1.4-4.79-3.76-3.82-2.96,1.22-7.26.95-8.3,5.37-.22.92-.71,1.78-1.12,2.77q-3.52-3.57-8.12-4.66c2.38-2.24,5.21-4.34,1.97-7.8,3.52-.73,3.98,4,6.96,2.63,2.27-1.05,4.27-2.55,5.79-4.62,1.46-1.99,1.59-4,.1-5.98-3.5-4.68-10.05-5.31-13.16-11.24.61-.88,3.86-2.42.98-5.21.17-1.76.78-1.94,2.66-.78,2.47,3.56,3.53-.58,6.17-1.44-1.78,7.05,2.39,10.23,7.47,12.57,1.88.87,4.51,2.51,5.43-1.38.3-3.08-1.82-5.88-1.03-9.02,5.39-3.63,10.93-6.68,17.82-5.27,3.03.62,6.87.78,1.83,4.58-.06.05-.03.31.04.41.09.12.27.18.4.27,3.14,2.18,3.47,4.77,1.27,9.71-.42,4.99-2.67,9.12-6.23,12.48-1.88,1.78-1.94,3.73-1.44,5.93.82,3.6,2.64,6.82,4.12,10.16,1,2.24,2.85,2.57,5.02,1.63,1.19-.52,2.2-1.58,3.69-1.22,1.08.66,1.24,1.53.59,2.58Z"/>
      <path class="cls-163" d="m485.75,52.79c.81,1.06,2.04.72,3.11.94.62,1.13-3.05,1.7-.4,3.1.53,4.66,4.96,3.09,7.42,4.64.53,3.68-3.87,4.74-4.24,7.96-1.62.58-3.04.15-4.37-.8l-.15.05c-1.34-.11-2.54.15-3.59,1.11-2.63,2.39-4.29,1.41-5.3-1.61-1.06-1.08-2.44-.45-3.66-.68-1.8-.35-2.64-1.16-1.37-2.95.75-.78,1.91-.75,2.7-1.35-.37-.82-1.32-.91-1.81-1.53-1.01-4.55,1.55-4.08,4.43-3.16,1.11.53,2.23,1.17,3.22-.21.36-.51.68-1.03.95-1.59.77-1.5-.26-4.41,3.05-3.91Z"/>
      <path class="cls-112" d="m492.66,68.63c-1.69-1.8-3.11-3.48.76-4.4,1.17-.28,2.58-.78,2.29-2.57-.08-1-.09-2.01-.02-3.01,2.69-1.43,5.46-1.39,9.53-.45-5.28,2.38-7.79,6.15-10.58,9.64.18,1.1-.54,1.2-1.34,1.2-.21-.13-.43-.27-.64-.4Z"/>
      <path class="cls-127" d="m459.93,72.78c-1.52,1.63-4.27,1.27-5.73,3.26,1.76,1.47,4.09-.07,5.55,1.55-1.66,4.03-5.05,1.87-7.75,2.17-.53-.1-1.05-.28-1.54-.51-1.56-1.23-3.97-1.95-2.9-4.78,1.9-1.34,4.75-.91,6.12-3.26.94-.52,1.94-.64,2.98-.5,1.34.29,2.56.76,3.25,2.07Z"/>
      <path class="cls-107" d="m450.65,125.73c-1.33-.18-2.91.03-3.13-1.94.69-1.14,1.99-2.06,1.35-3.69.12-3.05.41-6.05,2.65-8.43.41-.23.85-.29,1.31-.18,1.83,1.21,1.41,3.67,2.81,5.12-.66,2.61-1.33,5.22-1.99,7.84-.12.39-.38.62-.77.72-.75.16-1.45.49-2.22.57Z"/>
      <path class="cls-146" d="m511.73,102.67c2.62-1.13,2.2.89,2.35,2.28.44,4.12-1.14,7.83-2.42,11.6-1.04.85.31,2.77-1.47,3.3-2.11-1.14-1.63-3.21-1.83-5.05-.02-1.37.12-2.71.4-4.05,1.33-2.57.08-6.09,2.97-8.08Z"/>
      <path class="cls-78" d="m452.69,145.62c-.01-4.3-.03-8.61-.04-12.91.66-.57.21-1.72,1.13-2.15,2.79,5.69,2.77,11.36-.09,17.02-.75-.44-.94-1.16-1-1.95Z"/>
      <path class="cls-93" d="m438.61,177.39c.04-.61.07-1.22.11-1.83-1.06-1.22-1.58-2.81-2.76-3.95-.51-1.11-1.24-2.21-.14-3.39,1.2-.71,2.44-.63,3.68-.13,2.09,1,3.69,2.51,4.77,4.57.29.01.46.16.5.45-.82,1.29-1.59,2.62-2.75,3.65-.75.46-1.4,1.13-2.33,1.26-.47-.01-.84-.22-1.08-.63Z"/>
      <path class="cls-47" d="m458.84,106.88c-.04,2.17-1.06,4.01-1.96,5.88-2.99-1.45-2.58-4.37-3.02-6.94.87-2.7.35-6.44,4.81-6.48.62.5.92,1.17,1.06,1.93.16,1.94-.74,3.71-.88,5.6Z"/>
      <path class="cls-41" d="m457.83,183.5c1.35,5.83,1.2,11.66.03,17.5-1.09-.72-2.55-.99-3.05-2.46-.76-4.09-.52-8.18-.22-12.28.1-.51.29-1,.55-1.45.64-.96,1.65-1.15,2.68-1.31Z"/>
      <path class="cls-106" d="m462.95,80.59c3.4-.22,3.45,2.32,3.86,4.63.53,2.92-1.16,5.51-1.13,8.34-.29.4-.67.5-1.12.3-1.27-1.17-1.29-2.75-1.42-4.3-.02-.45.02-.89.09-1.33.15-1.05.44-2.12-.32-3.06-.51-.32-1.06-.58-1.6-.86-.56-.35-.93-.83-1.07-1.49.05-1.32.88-1.92,2.04-2.2.22,0,.44-.02.66-.02Z"/>
      <path class="cls-138" d="m442.21,179.59c3.68,1.93,7.85,1.89,11.76,2.89-1.04,1.08-2.31.53-3.98.51,1.82.32,3.19.05,4.55.18.79.07,1.37.37,1.38,1.27l-.3.28c-6.34,2.58-13.42.29-15.74-5.09.76-.6,1.54-.7,2.32-.03Z"/>
      <path class="cls-31" d="m478.55,59.85c-1.09-.99-2.27-1.85-3.72-.77-.99.73-.57,1.65.01,2.47-.12.69-.54,1.13-1.16,1.41-.43.04-.83-.04-1.22-.21-.87-.54-1.81-.94-2.78-1.29-.38-.18-.69-.45-.93-.79,2.48-4.11,7.22-3.42,10.84-5.11.8.16,1.32.64,1.61,1.4.25,2-1.04,2.6-2.66,2.91Z"/>
      <path class="cls-60" d="m495.69,58.64c2,.99,2.15,1.99.02,3.01-4.19.84-8.17,1.32-8.3-4.83,1.49-1.75,1.5-1.75,2.29-.18.76,4.36,4.1,1.01,5.98,1.99Z"/>
      <path class="cls-124" d="m474,64.9c-1.17,1.32-.9,1.8.88,1.91,1.63.11,3.18-2.3,4.83-.16-1.74,1.26,1.29,4.56-2.18,5.08-1.05-4.35-5.59-2.01-7.82-4.08-.24-.43-.3-.87-.13-1.34.56-1.12,1.35-1.95,2.61-2.27.75-.05,1.42.1,1.8.84Z"/>
      <path class="cls-167" d="m511.73,102.67c-.63,2.74-1.26,5.49-1.89,8.23-1.25-.42-2.29-1.13-3.05-2.22,1.82-3.02,2.56-6.04-.01-9.06,2.79-.83,3.75,1.31,4.95,3.05Z"/>
      <path class="cls-129" d="m436.6,160.31c3.72-1.85,7.04-4.48,11.11-5.64-2.12,4.77-6.31,6.15-10.99,6.76-.57-.32-.61-.69-.13-1.12Z"/>
      <path class="cls-120" d="m463.72,57.66c1.9.29,1.86,2.92,3.81,3.15.43,2.79-2.25,2.73-3.58,3.91-1.76.44-3.26-.67-4.93-.83-1.42-1.43-.52-2.38.74-3.11,1.03-.6,1.96-1.24,2.39-2.4.37-.58.77-1.1,1.58-.71Z"/>
      <path class="cls-145" d="m513.8,140.88c-.17-.91-.31-1.84-1.28-2.3-2.62-2.75-2.58-6.23-2.65-9.68.25-.82.73-1.43,1.59-1.68.63-.08,1,.2,1.11.83l-.12.33.24.26c1.26,3.88,3.01,7.69,1.84,11.95-.25.07-.49.17-.72.29Z"/>
      <path class="cls-153" d="m477.54,71.74c2.24-1.05.17-3.94,2.18-5.08.59,1.19-.72,2.58.34,3.69,2.64.51,3.77-5.06,7.07-1.67-3.1,1.32-5.11,6.06-9.59,3.06Z"/>
      <path class="cls-16" d="m455.72,53.67c.81,2.43,2.09,4.09,5.01,3.02.89.77,1.43,1.66,1.06,2.89-5.2,2.13-6.61,1.54-8-3.33.17-1.21.71-2.15,1.93-2.59Z"/>
      <path class="cls-126" d="m450.73,78.66c3-.46,6.23,1.06,9.03-1.08,2.05-.05,3,1.07,3.19,3,0,0-.34.04-.34.04-2.14.07-4.09,1.27-6.24,1.18-2.36-.1-5.09.28-5.64-3.14Z"/>
      <path class="cls-143" d="m486.69,99.63c.02.16-.01.4.08.46,3.67,2.48,2.05,5.55.95,8.55-1.07-1.28-2.14-2.57-3.22-3.85.83-.5,1.87-.88,1.2-2.2.27-1.01-.37-2.32.99-2.97Z"/>
      <path class="cls-127" d="m436.6,160.31c.04.37.08.75.13,1.12-1.21.81-.83,2.16-1.13,3.28-.37,1.37.59,2.65.23,4.02.3.96.6,1.93.9,2.89-.19.43-.5.72-.94.87-2.45-2.66-1.97-5.98-2.16-9.18-.13-2.23,1.26-2.73,2.97-3.01Z"/>
      <path class="cls-82" d="m485.75,52.79c-2.88.66-.34,3.64-2.05,4.8-1.65-.43-2.62-1.69-3.62-2.92,1.39-2.01,3.05-3.68,5.54-4.27l.21.3c-.03.7-.05,1.39-.08,2.09Z"/>
      <path class="cls-129" d="m452.69,145.62c.33.65.67,1.3,1,1.95-1.32,2.31-1.53,5.54-5.01,6.07.35-3.17,2.32-5.52,4-8.03Z"/>
      <path class="cls-78" d="m454.58,106.44c.76,2.11,1.53,4.21,2.29,6.32-.31.7-.62,1.4-.93,2.1-1.73-.27-1.86-2.14-3-3.01l-.34-.29c-.9-2.31-.52-4.13,1.98-5.12Z"/>
      <path class="cls-152" d="m485.63,50.4c-.14-.29-.46-.62-.39-.85.44-1.63.08-3.7,2.17-4.47.23-.08,1.01.5,1.02.79.09,2.09.35,4.35-2.59,4.83l-.21-.3Z"/>
      <path class="cls-115" d="m487.28,68.63c1.79,0,3.59,0,5.38,0,0,0,.32.18.32.18.58.65,1.47,1.01,1.8,1.9-3.26,2.05-5.71,1.19-7.5-2.07Z"/>
      <path class="cls-27" d="m435.82,168.74c-1.43-1.26-1.56-2.6-.23-4.02.94,2.21,3.51,1.83,5,3.15.07.66.04,1.22-.86.75-1.3.04-2.61.08-3.91.12Z"/>
      <path class="cls-166" d="m514.53,140.59c.22-4.11-1.29-7.96-1.84-11.95,2.31,3.72,4.08,7.53,1.84,11.95Z"/>
      <path class="cls-171" d="m485.7,102.6c.73,1.35.39,2.11-1.2,2.2-1.62-.73-5.01-.88-4.29-2.59,1.1-2.6,3.51.83,5.48.39Z"/>
      <path class="cls-83" d="m463.59,64.7c-.14-2.77,3.63-1.57,3.94-3.88.41-.05.82-.1,1.23-.15.35.06.69.11,1.04.17.67.65,1.36,1.29,1.22,2.37-.71,1.55-2.22,1.44-3.54,1.74-1.11.16-2.22.56-3.36.18-.18-.14-.36-.28-.53-.42Z"/>
      <path class="cls-122" d="m459.93,72.78c-1.1-.39-2.2-.78-3.31-1.17-.49-1.43.09-2.48,1.15-3.38.99-.49,1.97-.49,2.94.05,1.05.93,1.23,2.15,1.12,3.46-.63.35-1.27.69-1.9,1.04Z"/>
      <path class="cls-142" d="m464.66,93.53c.34,0,.68.02,1.03.03-2.45,3.69,2.33,3.37,2.97,5.34-1-.11-2.1-.58-2.66.78-1.07-.47-2.14-.77-3.22-.03-1.02-1.06-.56-2.23-.26-3.39.4-1.16.9-2.25,2.16-2.73Z"/>
      <path class="cls-128" d="m453.72,201.61c-.22,2.62-1.85,4.62-3.05,6.81-.84-.86-1.3-1.88-1.41-3.07.42-2.19,1.04-4.21,3.88-4.15.19.14.39.27.58.41Z"/>
      <path class="cls-40" d="m455.72,53.67c-.33.67-.67,1.34-1,2-1.62.72-3,.13-4.35-.74-1.46-1.9-.76-2.83,1.4-3.11,1.02.24,2.06.35,3.08.56.29.43.59.85.88,1.28Z"/>
      <path class="cls-166" d="m512.56,128.05c-.27-.14-.53-.29-.8-.44-1.75-1.22-2.25-3-2.27-5.01.03-1.13.24-2.18,1.09-3.01.4-1,0-2.29,1.08-3.05.3,3.84.6,7.67.9,11.51Z"/>
      <path class="cls-65" d="m461.95,58.86c-1.02-.38-1.35-1.15-1.22-2.17.92-1.06,1.83-2.13,2.75-3.19,1.08-.23,1.62.11,1.33,1.29-.36.96-.73,1.92-1.09,2.88-.34.37-.67.73-1.01,1.1-.22.34-.47.37-.76.1Z"/>
      <path class="cls-129" d="m439.74,168.62c.29-.25.58-.5.86-.75,2.39.7,4.71,1.45,3.67,4.78-1.51-1.34-3.02-2.69-4.53-4.03Z"/>
      <path class="cls-150" d="m461.83,71.74c-1.24-.71-1.09-1.92-1.11-3.07-.25-.24-.36-.49-.32-.76.04-.28.1-.42.17-.42.54-.46,1.18-.63,1.88-.62.44.05.86.19,1.24.41.3.3.51.67.61,1.09.13.85-.41,1.56-.51,2.37-.37.88-1.16.95-1.95,1Z"/>
      <path class="cls-90" d="m454.84,52.39l-3.32.06c-.91-.64-2.36.34-3.04-1,.03-.81.53-1.27,1.2-1.6,1.84-.47,3.58-1.81,5.6-.61.15.19.3.39.45.58-.12.92-4.03.53-.89,2.57Z"/>
      <path class="cls-32" d="m489.71,56.65c-.84-.98-1.53.06-2.29.18-3.42-2.85,1.51-1.81,1.45-3.09.59-.08,1.19-.16,1.78-.24.59.15.88.54.95,1.12-.47.83-.71,1.86-1.89,2.03Z"/>
      <path class="cls-110" d="m463.72,67.71l-.38-.12-.39.03c-.68-.84,0-1.23.56-1.66,1.97-.33,3.98-2.3,5.91.09.06.23.12.47.18.7,0,.31.04.61.12.91,0,0-.38.07-.38.07l-.38-.08c-1.73,1.16-3.47,1.4-5.23.06Z"/>
      <path class="cls-153" d="m450.71,48.66c1.43-1.33,3.34-.8,4.99-1.26.75-.21,1.75-.43,1.89.68.15,1.21-.94,1.47-1.86,1.74,0,0-.11-.47-.11-.47-1.58-.65-3.41.5-4.92-.68Z"/>
      <path class="cls-43" d="m452.94,111.85c2.07-.07,2.03,1.97,2.99,3.01-.1.58-.2,1.17-.3,1.75-2.58-.63-2.22-2.94-2.7-4.76Z"/>
      <path class="cls-16" d="m450.71,48.66c1.62.37,3.42-.54,4.92.68-1.96.46-3.91.92-5.87,1.37-.61-.66-1.81-.18-2.24-1.18,1.06-.29,2.12-.59,3.19-.88Z"/>
      <path class="cls-105" d="m458.71,101.69c-.02-.76-.04-1.52-.06-2.28-.16-.48-.03-.87.39-1.16.7-.26,1.37-.2,2.02.17.65.69,1.29,1.39.73,2.44-.32.64-.64,1.28-.97,1.92-.91.04-1.52-.51-2.11-1.08Z"/>
      <path class="cls-125" d="m458.71,101.69c.92-.06,1.67.21,2.11,1.08-.12,1.63-1.03,2.88-1.99,4.11-1.23-1.7.16-3.47-.13-5.19Z"/>
      <path class="cls-126" d="m455.51,199.54c1.41-.53,2.36-.32,2.35,1.45-1.26,1.01-2.5,2.15-4.14.62,0,0,.01.02.01.02-.47-1.61.41-2.05,1.78-2.09Z"/>
      <path class="cls-34" d="m493.65,51.63c1.36-1.3,2.72-2.6,4.09-3.91.6.09,1.01.41,1.17,1.02-.87,1.86-2.16,3.29-4.13,4.03-.63-.13-1-.51-1.13-1.14Z"/>
      <path class="cls-77" d="m480.09,54.67c1.8.23,2.78,1.49,3.62,2.92-.29.38-.59.75-.88,1.13-1.92.7-1.21-1.63-2.24-1.95-.33-.41-.65-.82-.98-1.23.16-.29.32-.59.49-.88Z"/>
      <path class="cls-81" d="m493.65,51.63c.38.38.75.76,1.13,1.14-.93.83-1.68,1.99-3.18,1.85-.32-.37-.63-.75-.95-1.12,1-.62,2-1.24,3-1.87Z"/>
      <path class="cls-34" d="m498.9,48.74c-.39-.34-.78-.68-1.17-1.02.35-1.07-.2-3.35,1.63-2.63,1.37.54.88,2.54-.46,3.65Z"/>
      <path class="cls-21" d="m464.81,54.79c-.44-.43-.89-.86-1.33-1.29.33-1.39,1.17-2.29,2.78-2.77.8,1.88-.35,2.96-1.45,4.07Z"/>
      <path class="cls-51" d="m461.79,100.85c-.35-.74-.71-1.47-1.06-2.21-.35-1.18-.38-2.23,1.11-2.64.71-.09,1.32.11,1.81.63-.3,1.01-.59,2.01-.89,3.02-.32.4-.65.8-.97,1.19Z"/>
      <path class="cls-59" d="m444.87,52.74c-.93-.13-1.84-.29-2.27-1.29.6-1.29,1.8-.84,2.8-.97.88-.39,1.33.03,1.59.83-.28,1.11-.97,1.61-2.12,1.43Z"/>
      <path class="cls-25" d="m494.78,70.7c-1.15-.12-2.12-.39-1.81-1.9.56-.32,1.11-.65,1.67-.97,1.82.87,1.42,1.85.14,2.87Z"/>
      <path class="cls-25" d="m463.72,67.71c1.74-.02,3.49-.04,5.23-.06-.35,1.1-.71,2.19-2.22,2.02-.89-.73-2.46.24-3.06-1.23.02-.24.03-.49.04-.73Z"/>
      <path class="cls-137" d="m441.67,176.25c.75-1.33,1.57-2.59,3.1-3.15.48,2.43-1.24,3.58-2.81,4.81-.59-.47-.69-1.02-.29-1.66Z"/>
      <path class="cls-168" d="m467.65,167.53c0,.75-.01,1.5-.02,2.25-1.21.37-2.88.85-3.04-.74-.1-.97,1.73-1.53,3.06-1.51Z"/>
      <path class="cls-153" d="m453.79,130.56c-.15.83-.18,1.74-1.13,2.15-.36-.94-.72-1.87-1.08-2.81-.36-.97-.59-1.9.63-2.47,1.34.15.73,1.66,1.52,2.19-.04.32-.02.63.06.94Z"/>
      <path class="cls-56" d="m441.67,176.25c.1.55.19,1.11.29,1.66.08.56.16,1.12.24,1.68-.79-.01-1.58-.03-2.37-.04-.16-.12-.32-.24-.48-.36-.28-.59-.21-1.15.11-1.7.73-.41,1.47-.83,2.2-1.24Z"/>
      <path class="cls-118" d="m454.82,183.52c-1.69-.08-3.43.49-5.59-.59,1.92-.18,3.33-.32,4.74-.45.26-.1.51-.07.74.09.32.18.45.38.37.6-.08.24-.16.35-.26.35Z"/>
      <path class="cls-66" d="m463.68,68.45c1,.45,2.46-.24,3.06,1.23-.98.35-1.96.71-2.95,1.06-1.02-.72-.36-1.51-.11-2.29Z"/>
      <path class="cls-67" d="m446.71,51.6c-.44-.37-.88-.74-1.31-1.12.71-.31,1.41-.63,2.12-.94.82.25,1.82.17,2.24,1.18-.38.29-.76.59-1.14.88-.64.57-1.27.57-1.9,0Z"/>
      <path class="cls-23" d="m454.82,183.52c-.05-.32-.09-.64-.11-.96,1.22-.3,2.39-.4,3.13.93-.43.74-1.05,1.08-1.91.94-.37-.31-.74-.61-1.11-.91Z"/>
      <path class="cls-175" d="m453.73,129.62c-.37-.64-.74-1.28-1.12-1.92-.71-1.03-.8-2.01.23-2.9.27-.11.54-.22.8-.34.03,1.72.05,3.45.08,5.17Z"/>
      <path class="cls-153" d="m449.79,205.64c1.14.66.88,1.76.89,2.78-.18.26-.43.38-.74.35-.44-.48-.89-.97-1.33-1.45,0-.84.41-1.39,1.19-1.68Z"/>
      <path class="cls-142" d="m449.79,205.64c-.4.56-.79,1.12-1.19,1.68-12-.7-24-1.07-35.99.17-1.77.14-2.66-.86-3.29-2.37-.37-.9-.77-2.18-1.49-2.48-8.7-3.57-3.53-11.07-4.68-16.71-.55-2.69,2.25-2.05,3.95-2.3,4.28-.61,9.13.27,11.92-4.38,1.47-1.11,1.87-1.01,3.92,1.04.42,1.26-.28,2.35-.55,3.5-1.69,3.03-2.97,6.29-5.06,9.09-.27.54-1.08.75-.92,1.54.06-.53.46-.85.78-1.23,1.96-2.57,3.31-5.47,4.72-8.33,1.1-1.57,1-3.86,2.98-4.89,3.18-.75,6.4-.18,9.6-.27.73.22,1.33.61,1.78,1.23,1.14,2.28,1.48,4.9,2.94,7.04.93.99,1.37,2.29,2.18,3.35.3.34.61.68.81,1.11.02-.78-.78-1.04-1.05-1.64-.63-1.53-1.87-2.67-2.54-4.16-.64-2.31-2.64-4.45-.95-7.07.7-.47,1.41-.55,2.1.01,0,0,.07-.04.07-.04,4.15,5.13,10.08,4.8,15.79,5.16.24,4.95.46,9.89-.12,14.83-.83.5-1.62,1.02-1.78,2.09-2.71-.03-3.2,2.12-3.94,4.01Z"/>
      <path class="cls-1" d="m369.78,181.02c-4.59,1.1-9.26.21-13.88.5-1.8.11-2.58-.75-2.7-2.69-.51-8.31.97-16.15,5.03-23.45.68-1.23.94-2.36,3.26-1.59,2.52.83,5.56.09,8.37.03.62-1.01,1.62-1.05,2.64-1.02,3.71.83,7.6-.83,11.25.83,2.58,1.27,5.36-.34,8.07.58.76.26,1.71-.19,2.28.9,3.92,7.54,5.72,15.49,4.87,24-.13,1.28-.47,2.46-1.94,2.36-4.92-.34-9.93.94-14.77-.77-2.54-1.17-1.4-3.63-1.93-5.51-.84-3.03-.25-7.85-4.12-7.99-3.54-.14-3.38,4.53-4.23,7.42-.63,2.17-.47,4.61-2.2,6.4Z"/>
      <path class="cls-191" d="m367.73,151.72c-.83-1.04-1.46-2.12-3.2-1.07-3.56,2.14-5.57-.33-5.52-3.2.11-6.13-.44-11.85-4.27-16.92-.65-.85-1.24-2.27-.34-3.25,1.11-1.21,1.98,1.07,2.22.81,2.52-2.8,5.59,1.35,8.4-.89,1.4-1.11,4.19,2.42,6.1-.5,4.36,2.9,9.23-.16,14.02,1.19,2.76.78,6.94.18,10.32-.47,3.55-.68,3,1.57,2.17,2.79-3.7,5.51-4.68,11.43-4.35,17.94.12,2.38-1.3,5.21-4.72,2.22-.67-.59-1.56-.02-1.96.87-3.86,2.15-8.09-.21-12.03.99-2.23-.87-4.57-.22-6.84-.52Z"/>
      <path class="cls-8" d="m421.65,114.09c-2.94,4.13-6.53,7.57-10.77,10.34q-2.17-.9-3.6-6.31c-.63-2.05-1.47-4.04-2.24-6.04-.25-.9-.54-1.79-1.04-2.59-.95-4.08-3.18-7.64-4.62-11.52-.43-1.29-1.47-2.31-1.64-3.71l.03-.07c-1.21-1.62-.89-3.76-1.84-5.46-.17-1.97-.46-3.95.37-5.87.83-1.66,2.01-2.87,3.94-3.15.66-.08,1.31-.27,1.97-.31,8-.56,9.18.31,10.57,7.74.81.86,1.61,1.71,2.42,2.57,3.36,1.18,6.92.98,8.36,6.13,1.07,3.83,1.94,6.97.8,10.81-.76,2.55-1.43,5.08-2.69,7.44Z"/>
      <path class="cls-182" d="m381.04,110.04c0,3.4,0,5.73,0,8.06.01,7.68,0,7.77-7.17,7.04-2.16-.22-2.7-2.1-2.67-4.13.09-5.32.14-10.65.18-15.97.02-3.59.88-7.35-2.28-10.3-.73-.68-.84-1.94-.08-2.75,1.05-1.11,1.7-.03,2.31.71.73.88,1.84,1.42,2.52.5,1.5-2.02,2.45-2.09,4.06-.03.94,1.2,2.42.53,3.37-.69.51-.66,1.19-1.37,1.96-.44.35.43.59,1.51.33,1.81-4.58,5.23-1.72,11.51-2.53,16.18Z"/>
      <path class="cls-70" d="m368.02,99.58c.34,1.46.81,2.3.57,2.64-3.76,5.42-1.96,11.54-2.2,17.37-.17,3.98-.87,4.86-5.64,5.11-6,.32-4.4-2.59-4.7-5.56-.56-5.46,1.74-11.3-2.14-16.37-.41-.54.38-2.22.41-2.19,2.44,2.54,6.37-.41,7.32.59,2.96,3.1,4.15.91,6.37-1.59Z"/>
      <path class="cls-193" d="m399.69,102.16c-4.21,2.95-3.88,7.32-3.71,11.67.07,1.82-.36,3.75.08,5.46,1.24,4.83-2.38,5.72-5.31,5.81-3.33.1-5.13-1.9-4.98-6.01.2-5.47,1.55-11.26-1.94-16.4-.41-.6-.16-1.63.92-2.51,1.59,1.21,3.49,4.64,5.52.36.08-.18.82-.29.87-.21,3.25,5.52,5.05.06,7.42-.97,1.29.57,2.03,1.36,1.13,2.81Z"/>
      <path class="cls-9" d="m369.78,181.02c.62-4.23.87-8.54,2.57-12.55.79-1.86,1.7-4.07,3.87-4.02,2.15.05,3.07,2.32,3.83,4.14,1.6,3.86,1.96,7.98,2.22,12.11-4.11,2.17-8.28,1.56-12.47.32Z"/>
      <path class="cls-158" d="m351.81,59.46c-.02-.67-1.5-2.46-.15-1.8,5.01,2.45,7.62-.92,10.75-3.39,1.07-.29,1.88.18,2.59.91.28.37.5.78.67,1.2.48,2.68,2.46,3.22,4.76,3.31,1.44.56,4.64-.52,2.85,3.05-3.37.55-2.58,4.03-4.12,5.87l-4.33-1.68c-1.45-1.48-2.99-1.07-4.55-.22-.81,1.95-2.6,2.01-4.3,2.22-2.23.19-1.11-1.33-1.16-2.25,1.09-2.45-2.18-2.14-2.39-3.77.76-1.32.3-2.43-.61-3.45Z"/>
      <path class="cls-88" d="m422.75,174.68c-.33.97-.66,1.94-.99,2.91-1.43.76-2.28-.27-3.21-1.05-3.78-3.77-3.53-4.88,1.79-8.04,3.36-.95,4.66,0,3.16,3.46-.38.88-.8,1.73-.76,2.72Z"/>
      <path class="cls-96" d="m374.75,151.67c.58-.78,1.44-2.06,2.21-1.52,3.09,2.17,6.58-.38,9.64,1.1-.17,1.72-2.28,1.13-2.85,2.37-3.69.65-7.39.88-11.11.22-.67-2.06,1.53-1.33,2.11-2.17Z"/>
      <path class="cls-104" d="m399.69,102.16c-.37-.94-.75-1.87-1.12-2.81,0,0,.38.2.38.2.56-.57-.15-1.85,1.13-2.01,2.04,4.09,4.67,7.96,4.64,12.8l-.21.13c-3.28-1.8-2.58-5.91-4.82-8.31Z"/>
      <path class="cls-113" d="m412.77,87.14c-2.75-7.06-2.91-7.15-13.19-6.57-.64-.39-1.58-.1-2.04-.89.93-.8,1.96-1.34,3.24-1.24,2.64.1,5.26.67,7.92.44,1.72-.34,3.31,1.29,5.07.35l.03.46c-1.93,2.26-.8,4.95-1.03,7.44Z"/>
      <path class="cls-101" d="m382.76,69.69c-1.37-3.23-4.2.2-6.1-1.52.8-1.22,2.18-1.16,3.42-1.6,2.01-.72-.38-1.1-.33-1.74.45-.7,1.13-.9,1.92-.87.92.3,1.82.65,2.61,1.23,1.27,2.09,4.02,1.93,5.54,3.65-2.22,1.56-4.72.66-7.1.81l.04.04Z"/>
      <path class="cls-130" d="m407.8,117.48c2.02,1.88.73,5.22,3.08,6.95-.71,1.53-1.42,3.07-2.13,4.61-1.14-1.19.15-2.98-1.02-4.17-1.47-1.9-.44-4.18-.97-6.23.09-.61.44-1,1.03-1.16Z"/>
      <path class="cls-109" d="m352.77,62.73c.33,1.9,6.03-.4,3.15,4.02-.94-.25-1.39-1.17-2.18-1.63-2.18.31-4.36,1.65-6.85-.2,1.4-1.46,3.26-1.9,5-2.52.38-.11.68-.02.89.33Z"/>
      <path class="cls-57" d="m422.75,174.68c-1.29-.96-.7-1.94-.08-2.98,1.71-2.84.2-3.4-2.32-3.2,2.12-1.33,5.12-1.76,5.29-5.11.88,2.07.96,4.14-.03,6.2-1.23,1.54-.9,3.97-2.86,5.1Z"/>
      <path class="cls-76" d="m372.72,62.51c1.69-3.38-2.44-1.45-2.75-3.01-.28-.15-.38-.31-.29-.47.09-.17.18-.25.27-.25,2.18-.18,4.02.68,5.77,1.85.23,1.91,3.26,1.63,3.04,3.88-1.98-.04-3.96-.07-5.94-.11-.39-.62-.13-1.26-.09-1.9Z"/>
      <path class="cls-88" d="m425.61,169.58c.01-2.06.02-4.13.03-6.19-.21-4.19-4.86-2.32-6.41-4.7,7.63.11,9.6,3.49,6.37,10.89Z"/>
      <path class="cls-44" d="m410.74,69.85c-.96-2.96-4.15-3.3-6.06-5.14.45-.59,1.09-.8,1.8-.85,1.72.27,3.48.23,5.21.5.47,1.16,1.18,2.08,2.45,2.45.29.66.27,1.31,0,1.97-.75,1.1-1.72,1.6-3.05,1.13l-.35-.06Z"/>
      <path class="cls-52" d="m413.8,79.69s-.04-.46-.03-.46c-.14-.89-.28-1.79-.43-2.68,2.75.36,4.92,2.13,7.42,3.08.16,1.73-.65,1.82-1.92,1.13-1.77.08-3.09-2-5.05-1.06Z"/>
      <path class="cls-177" d="m369.95,58.78c0,.25.02.49.02.73-2.62,1.1-5.42,2.57-4.92-2.5,1.6-2.07,2.62-.73,3.63.62l1.27,1.15Z"/>
      <path class="cls-38" d="m372.72,62.51c.97.59.33,1.26.09,1.9-2.67.14-.94,4.11-3.66,4.2.25-.42.8-1.1.7-1.22-3.71-4.41-.51-4.69,2.87-4.88Z"/>
      <path class="cls-97" d="m426.71,56.61c-2.9,2.15-4.59.7-5.44-2.09-.6-1.94-1.02-3.56-3.55-2.42,2.34-3.09,4.13-1.66,4.56,1.08.47,2.97,2.23,3.23,4.43,3.42Z"/>
      <path class="cls-64" d="m397.05,82.83c-.08,1.91-.16,3.82-.24,5.73.5,1.22.78,2.32-1.2,2.15-1.29-2.71-1.7-5.42.03-8.12.54-.35,1.02-.27,1.42.23Z"/>
      <path class="cls-36" d="m406.76,64.66c-.69.01-1.39.03-2.08.04-1.96-1.05-3.91-2.1-5.87-3.15-.45-.42-.48-.86-.08-1.33,2.01.52,3.85,2.69,6.13.64.69.2,1.22.61,1.61,1.21.42.83.85,1.66.29,2.6Z"/>
      <path class="cls-74" d="m378.75,64.52c-.84-1.43-3.72-1.26-3.04-3.88,2.04,1.55,5.03.78,6.87,2.8.13.86-.53.93-1.09,1.1-.58.1-1.17.19-1.75.29-.33-.1-.66-.21-1-.31Z"/>
      <path class="cls-92" d="m374.75,151.67c-.7.72-1.41,1.45-2.11,2.17-.93,0-1.85-.01-2.78-.02-.71-.7-1.42-1.4-2.13-2.1,2.33-1.43,4.67-1.55,7.02-.05Z"/>
      <path class="cls-26" d="m408.7,78.88c-2.7.9-5.38,1.46-7.92-.44,2.72-1.25,5.31-.17,7.92.44Z"/>
      <path class="cls-80" d="m389.81,68.83c-2.34-.25-5.21.51-5.81-3.05,1.09-1.42,2.32-.65,3.52-.21.41.09.81.21,1.2.36.7.41,1.46.72,2.22,1.01.36.21.61.52.74.91-.62.33-1.25.65-1.87.98Z"/>
      <path class="cls-54" d="m407.8,117.48c0,.7-.36,1.07-1.03,1.16-1.46-1.46-1.95-3.41-2.64-5.26.52-.67.75-1.59,1.64-1.95,1.35,1.79,2.18,3.76,2.03,6.06Z"/>
      <path class="cls-195" d="m390.49,65.52c3.86-1.52,7.18-.24,10.32,1.98,0,0-.28.2-.28.2-.74.58-1.59.76-2.51.68-1.26-.27-2.47-.75-3.76-.9-.96-.39-1.9-.86-2.93-1.07-.38-.2-.66-.49-.84-.88Z"/>
      <path class="cls-79" d="m364.82,55.7c-.8-.48-1.61-.95-2.41-1.43,1.86-5.99,2.95-.14,4.39.29.19,1.85-.77,1.71-1.97,1.14Z"/>
      <path class="cls-86" d="m399.79,68.63c1.25,2.41,5.06,1.23,5.92,4.21-2.98-1.14-5.96-2.27-8.94-3.41.55-2.02,1.83-1.25,3.03-.8Z"/>
      <path class="cls-121" d="m387.89,66.35c-1.29-.19-2.59-.38-3.88-.56-.83-.41-1.67-.83-2.5-1.24.36-.37.73-.74,1.09-1.1,1.54.44,3.28.1,4.65,1.19.95.3,1.02.93.65,1.72Z"/>
      <path class="cls-139" d="m418.55,176.54c1.07.35,2.14.7,3.21,1.05,0,0-.04.18-.04.18.77.44,1.66.72,2.18,1.53.22.76.16,1.33-.84,1.26-1.35-.44-2.69-.87-4.04-1.31-.16-.9-.31-1.81-.47-2.72Z"/>
      <path class="cls-19" d="m399.79,68.63c-1.15-.28-2.2-.16-3.03.8-1.43-.55-2.86-1.09-4.28-1.64,1.73-1.16,3.6-.52,5.43-.42.88.1,1.75.21,2.62.31-.25.32-.5.63-.75.95Z"/>
      <path class="cls-22" d="m353.74,65.12c1.78-.87,2.14.16,2.18,1.63-.55.74-1.95,1.51.05,2.19-3.82.53-1.24-2.69-2.23-3.82Z"/>
      <path class="cls-87" d="m388.64,52.72c-.93-1.26-2.38-2.39-.9-4.53,1.57.75,1.08,2.59,1.94,3.56-.3.38-.41.96-1.04.97Z"/>
      <path class="cls-30" d="m400.07,97.53c-.38.67-.75,1.34-1.13,2.01.04-1.87-2.99-3.03-1.21-5.29,1.58.52,1.95,1.91,2.33,3.28Z"/>
      <path class="cls-89" d="m397.05,82.83c-.47-.08-.95-.15-1.42-.23-.17-1.5.66-2.35,1.91-2.92.68.3,1.36.59,2.04.89-.85.76-1.69,1.51-2.53,2.27Z"/>
      <path class="cls-39" d="m405.63,62.38c-.26-.5-.52-1-.77-1.51.88-.75,1.74-1.51,2.99-1.48.3.38.6.76.9,1.14-.36,1.76-.71,3.53-3.12,1.85Z"/>
      <path class="cls-8" d="m407.73,124.87c1.66,1.06.91,2.71,1.02,4.16-.62.93-1.23,1.85-1.85,2.78.28-2.31.55-4.63.83-6.94Z"/>
      <path class="cls-151" d="m352.77,62.73c-.3-.1-.6-.21-.89-.33-.02-.98-.04-1.96-.07-2.94,1.2.33,2.62.55,2.74,2.06.07.95-1.06.97-1.78,1.21Z"/>
      <path class="cls-50" d="m395.6,90.71c.4-.72.8-1.43,1.2-2.15,1.09,1.74,1.54,3.6.96,5.63-2.01-.36-2.27-1.8-2.17-3.48Z"/>
      <path class="cls-48" d="m398.73,60.22c.03.44.05.89.08,1.33-1.56-.67-3.22-1.2-4.04-2.91l-.07.06c1.93-1.05,3.07-.02,4.03,1.52Z"/>
      <path class="cls-73" d="m405.77,111.42c-.21.94-.03,2.2-1.64,1.96.12-.97-.75-2.07.38-2.91,0,0,.21-.13.21-.13,1.38-.63.73.7,1.05,1.09Z"/>
      <path class="cls-42" d="m394.77,58.65c-1.38-.57-2.52-1.41-3.12-2.84-.24-.24-.31-.47-.21-.69.1-.21.19-.32.28-.32,1.55.88,3.18,1.69,2.97,3.91,0,0,.07-.06.07-.06Z"/>
      <path class="cls-71" d="m364.82,55.7c.85-.05,1.6-.27,1.97-1.14,1.13.72,2.24,1.45,1.89,3.08-1.14-.61-2.32-1.02-3.63-.62-.08-.44-.15-.87-.23-1.31Z"/>
      <path class="cls-29" d="m409.59,56.28c.96.16,2.17.4,2,1.54-.17,1.17-1.42.91-2.35.84-.33-.86-.31-1.66.35-2.38Z"/>
      <path class="cls-202" d="m397.91,67.38c-1.81.14-3.62.28-5.43.42,0,0-.39.08-.39.08,0,0-.4-.02-.4-.02,0,0,.11-.36.11-.36,0-1.79,1.04-1.32,2.03-.95,1.36.27,2.72.55,4.08.82Z"/>
      <path class="cls-141" d="m391.73,54.79c-.02.34-.05.67-.07,1.01-1.34-.7-2.29-1.78-3.02-3.08.35-.32.7-.65,1.04-.97.68,1.02,1.36,2.03,2.05,3.04Z"/>
      <path class="cls-95" d="m382.71,69.65c-.12,1.01-.35,1.95-1.66,1.86-.22-.01-.62-.39-.59-.5.32-1.17,1.35-1.18,2.29-1.32,0,0-.04-.04-.04-.04Z"/>
      <path class="cls-28" d="m387.89,66.35c-.22-.57-.43-1.15-.65-1.72,1.33-.59,2.25.28,3.25.89.19.09.39.15.6.2-.33,1.49-1.2,1.69-2.43,1.01-.28-.08-.53-.2-.77-.37Z"/>
      <path class="cls-117" d="m360.28,66.72c1.64-2.46,3.13-1.85,4.55.21-1.52-.07-3.03-.14-4.55-.21Z"/>
      <path class="cls-197" d="m280.77,197.64c0,74.29,0,148.59,0,222.88,0,1.31-.1,2.63-.17,3.94,0,.09-.22.23-.35.24-.15.01-.31-.09-.47-.14,0-73.58,0-147.16.04-220.74,0-2.06-.85-4.36.95-6.18Z"/>
      <path class="cls-204" d="m248.79,404.55c0-69.96,0-139.93,0-209.89,0-1.31.1-2.63.18-3.94,0-.09.22-.23.35-.24.15-.01.31.09.47.14,0,69.25,0,138.5-.04,207.75,0,2.06.85,4.36-.95,6.18Z"/>
      <path class="cls-200" d="m177.38,174.61c.14.94.4,1.89.4,2.83.02,54.13.02,108.26,0,162.38,0,.94.41,1.99-.42,2.82-.1-1.16-.29-2.3-.29-3.45-.02-53.72-.02-107.44,0-161.16,0-1.14.2-2.29.31-3.43Z"/>
      <path class="cls-132" d="m109.03,242.69c0-27.68-.01-55.36-.02-83.04,10.6,2.33,21.2,4.66,31.8,6.98.78,1.22.47,2.59.47,3.89.02,41.39.02,82.79,0,124.18,0,1.3.32,2.67-.47,3.89-.33,0-.66,0-.99,0-4.75-7.84-9.79-15.51-14.17-23.55-5.81-10.64-11.1-21.56-16.62-32.36Z"/>
      <path class="cls-199" d="m140.81,298.6c0-43.99,0-87.97,0-131.96,1.4,1.14.98,2.74.98,4.18.02,41.75.02,83.5,0,125.25,0,.81-.09,1.62-.17,2.43,0,.1-.22.23-.35.24-.15.01-.31-.09-.47-.14Z"/>
      <path class="cls-132" d="m180.8,175.63c9.67,2,19.33,4,29,6,1.38,1.75.98,3.82.98,5.78.02,60.14.02,120.28,0,180.42,0,1.94.54,4.04-.97,5.75-10.62-7.97-20.17-17.09-28.99-26.99-1.29-1.95-.98-4.17-.98-6.31-.01-52.96-.02-105.93.01-158.89,0-1.94-.54-4.03.97-5.75Z"/>
      <path class="cls-200" d="m180.8,175.63c0,56.98,0,113.97,0,170.95-2.58-1.22-1.99-3.59-1.99-5.68-.01-55.43,0-110.85,0-166.28.82.02,1.56.2,1.99,1Z"/>
      <path class="cls-183" d="m210.79,181.63c.28,0,.56,0,.84,0,.05,5.48.16,10.96.16,16.44-.03,59.16-.07,118.33-.11,177.49-.79-.02-1.49-.22-1.88-1,.99-1.89.48-3.92.48-5.88.03-60.55.02-121.1.05-181.66,0-1.8-.45-3.66.46-5.39Z"/>
      <path class="cls-198" d="m210.79,181.63c0,62.42.01,124.83-.03,187.25,0,1.9.76,4.03-.96,5.68,0-.33,0-.66,0-.99,0-63.98,0-127.96,0-191.94.33,0,.66,0,.99,0Z"/>
      <path class="cls-159" d="m413.83,68.42c-.09-.52-.18-1.04-.27-1.56-.35-.61-.17-.92.53-.92,2.9-3.2,6.09-4.6,9.99-1.62,1.21,2.16,2.43,4.33,3.65,6.5.08.3.18.59.29.87,1.1,3.57-1.09,4.04-3.8,4.02-1.73-1.37-3.47-2.74-5.2-4.11-1.74-1.04-4.25-.81-5.18-3.18Z"/>
      <path class="cls-25" d="m435.77,82.78c-2.44,2.48-5.24,1.65-8.04.88-.13-1.96,1.09-1.43,2.16-1.18,1.35.04,2.78.2,2.77-1.83-.62-1.67-.66-3.33.03-5l.88-1.04c.56-.51,1.19-.62,1.89-.37.37.26.6.61.67,1.06-.13,1.38-1.31,2.58-.7,4.09.27.77.62,1.5.79,2.3.02.43-.13.79-.45,1.08Z"/>
      <path class="cls-58" d="m429.89,82.48c-.72.39-1.44.79-2.16,1.18-3.18-.28-6.31-.74-8.88-2.91.7-.28,1.67-.08,1.92-1.13,2.99,1.11,6.32,1.15,9.12,2.86Z"/>
      <path class="cls-20" d="m424.21,75.71c.95-1.64,4.41-.91,3.8-4.02,2.15,1.9,2.55,5.1,1.11,6.49-1.84,1.77-3.17-1.63-4.91-2.46Z"/>
      <path class="cls-37" d="m413.83,68.42c1.98.64,3.73,1.66,5.17,3.18-2.94.85-5.64.54-7.93-1.69.92-.49,1.84-.99,2.75-1.49Z"/>
      <path class="cls-75" d="m432.75,65.69c1.22-.98,1.85-.57,2.06.86.65.43,1.28.86,1.5,1.67-.23,2.04-.12,4.45-3.42,3.34-.94-1.94,0-3.92-.14-5.88Z"/>
      <path class="cls-14" d="m432.88,71.56c1.96-.57,2.89-1.87,2.8-3.91.89-.3,1.33.21,1.66.92.39,1.49-.16,2.87-.47,4.28-.19.71-.5,1.36-1.1,1.83-.74-.02-1.48-.04-2.23-.06-.23-1.02-.45-2.04-.68-3.06Z"/>
      <path class="cls-103" d="m432.68,75.66c0,1.67-.02,3.33-.03,5-1.38-1.67-1.43-3.34.03-5Z"/>
      <path class="cls-85" d="m405.63,62.38c1.52.19,2.46-.6,3.12-1.85,1.22.34,2.44.68,3.66,1.02-.48,1.1.36,2.51-.85,3.43-1.66.83-3.26.83-4.8-.3-.38-.76-.75-1.53-1.13-2.29Z"/>
      <path class="cls-37" d="m411.55,64.97c.28-1.14.57-2.28.85-3.43,1.37,1.16-1.47,3.92,1.68,4.4-.17.31-.35.61-.53.92-2.71,1.53-2.15-.4-2.01-1.89Z"/>
      <path class="cls-157" d="m461.95,58.86c.27.06.52.02.76-.1,1.38,2.19-.69,2.31-1.81,2.91-.91.48-2.53.39-1.25,2.11.63.55.78,1.25.66,2.04-2.2,3.43-4.71.53-7.08.34-1.82-.31-2.58,1.4-3.9,2.06-2.54.78-4.06.1-4.02-2.81.1-1.67-1.87-2.19-2.09-3.69.36-2.4-4.32-2.86-2.28-5.9.97-.44,1.79,0,2.61.44,1.06-.33,2.1.02,3.14.08,1.1.07,1.96-.31,2.5-1.32.28-.37.63-.48,1.07-.33,1.57-.03,3.24-.54,4.47.98.3,5.85,4.15,3.64,7.23,3.19Z"/>
      <path class="cls-156" d="m450.25,54.69v-.06c-.9.58-1.39,1.76-2.63,1.89-1.42.23-2.75-.1-4.04-.68-.27-1.32.27-2.31,1.29-3.1.61-.38,1.23-.76,1.84-1.14.63,0,1.27,0,1.9,0,.98.25,2.18-.27,2.91.84-1.41.19-1.13,1.34-1.28,2.25Z"/>
      <path class="cls-27" d="m440.93,55.82c-.14,1.71.63,2.45,2.33,2.87,2.05.5,1.76,1.84.54,3.13-.74.76-1.67.84-2.65.72-.69-.16-1.26-.49-1.66-1.08-.39-.98-.6-2.02-.87-3.05.77-.86,1.54-1.73,2.31-2.59Z"/>
      <path class="cls-180" d="m438.63,58.41c1.63.27,3.14.59,1.2,2.54-.5.87-1.04,1.71-1.59,2.55-.72.87-.73,2.56-2.52,2.22-.24-2.65.09-5.15,2.02-7.2.31.06.6.02.88-.12Z"/>
      <path class="cls-111" d="m443.58,55.84l4.15-.03c.47,1.01-.36,1.3-.95,1.71-1.36.32-2.24-.6-3.22-1.26,0,0-.13-.22-.13-.22l.16-.2Z"/>
      <path class="cls-69" d="m435.73,65.72c1.94-.21.71-2.45,1.98-3.09,2.6.23,1.93,2.18,1.98,3.76-.44,1.44-1.18,2.54-2.89,2.53-.37-.42-.74-.84-1.11-1.26-.29-.37-.59-.74-.88-1.11.31-.28.61-.55.92-.82Z"/>
      <path class="cls-9" d="m581.25,217.75c-.87,2.84-1.43,6.8-3.26,10.04-1.85,3.3-4.53-.42-6.91-.49-1.35-.04-3.67-.46-2.75-3.04,1.22-3.43,2.31-6.94,3.87-10.22,1.02-2.14,3.17-2.85,5.55-2.04,2.31.78,3.53,2.38,3.49,5.75Z"/>
      <path class="cls-6" d="m564.53,213.53c-.5,1.83-1.25,3.72-1.52,5.68-.65,4.69-2.84,5.55-7.1,3.75-2.56-1.08-3.48-2-2.21-4.7,1.05-2.24,1.45-4.78,2.47-7.04.92-2.05,2.42-3.7,5.08-2.74,2.3.82,3.46,2.47,3.28,5.06Z"/>
      <path class="cls-13" d="m444.08,418.15c-.79,3.73-4.2,5.54-6.91,7.84-1.25,1.06-2.57,3.69-4.32,2.39-2.3-1.71-3.89-4.39-5.67-6.74-.16-.22.37-1.25.81-1.59,2.99-2.33,5.87-4.89,9.13-6.77,2.89-1.66,7.02,1.33,6.96,4.88Z"/>
      <path class="cls-9" d="m432.07,405.49c.1,1.92-7.86,10.56-9.62,10.08-2.54-.7-3.61-3.31-5.12-5.2-1.44-1.82.83-2.5,1.83-3.36,2.01-1.74,4.03-3.54,6.28-4.92,2.88-1.77,6.46.21,6.62,3.41Z"/>
      <path class="cls-178" d="m106.67,343c-3.44-1.09-4.09-3.28-4.42-5.31-.91-5.56,2.5-9.05,6.47-12.01,3.86-2.87,8.03-4.85,12.91-2.26,5.65,3,7.2,9.73,3.37,14.87-1.7,2.29-3.88,4.09-6.36,5.5-5.1,2.9-6.13,2.49-7.7-3.04-.41-1.45-.72-2.98-2.88-2.61-2.76.48-2.41,2.51-1.4,4.85Z"/>
      <path class="cls-142" d="m574.99,169.14c9.32.05,15.76,4.88,15.63,11.73-.12,6.38-5,10.72-11.88,10.58-9.14-.18-15.25-4.93-15.08-11.7.16-6.34,4.75-10.64,11.33-10.61Z"/>
      <path class="cls-178" d="m467.31,366.8c5.11.14,14.72,9.19,15.17,14.29.23,2.56-4.9,10.18-7.46,11.23-1.49.62-2.09-.49-2.89-1.25-4.78-4.59-9.46-9.29-14.37-13.75-2.04-1.86-1.84-3.06.09-4.72,2.85-2.46,5.11-5.79,9.45-5.79Z"/>
      <path class="cls-3" d="m235.64,432.87c.06,3.24-3.67,5.72-6.68,4.2-2.34-1.19-4.49-2.8-6.58-4.42-1-.78-3.37-1.29-2.05-3.21,1.47-2.12,2.43-4.94,5.05-5.88,1.72-.61,10.22,7.41,10.25,9.3Z"/>
      <path class="cls-160" d="m53.26,156.32c-4.38,2.49-7.45,4.29-10.59,5.99-1.87,1.01-2.75.12-2.96-1.79-.16-1.48-.39-2.95-.6-4.42-.27-1.91.26-2.86,2.44-2.34,3.35.81,6.73,1.48,11.71,2.56Z"/>
      <path class="cls-160" d="m269.63,455.76c-.92,4.69-1.6,7.88-2.15,11.1-.48,2.78-1.63,3.37-3.93,1.56-1.03-.81-2.19-1.47-3.35-2.09-1.89-1.02-1.85-2.03-.19-3.27,2.86-2.12,5.67-4.3,9.61-7.3Z"/>
      <path class="cls-169" d="m232.4,96.59c-.3,3.33-.92,6.23-2.12,9.02-3.96,9.2-6.16,10.04-15.06,5.61-12.21-6.08-24.36-12.27-36.67-18.14-3.39-1.62-4.32-3.58-3.39-7.02.66-2.43,1.39-4.78,2.66-6.96,4.12-7.02,5.09-6.98,12.27-3.95,7.85,3.32,16.09,5.7,24.1,8.68,5.4,2.01,10.3,5.12,16.07,6.47,2.74.64,1.79,4.25,2.13,6.3Z"/>
      <path class="cls-165" d="m213.14,147.08c.79-2.77,1.42-5.47,3.62-7.8,4.73-5.01,7.34-11.08,7.47-18.02.04-2.09,1-3.18,2.41-4.54,7.58-7.28,11.24-15.91,8.44-26.55-.64-2.43,3.74-8.67,5.99-8.52,1.99.13,1.45,1.93,1.73,3.07,5.29,21.81-.32,40.15-17.62,54.66-3.54,2.97-7.32,5.64-10.99,8.45-.35-.25-.7-.5-1.05-.75Z"/>
      <path class="cls-165" d="m220.67,121.02c-.17,3.14-.86,5.88-1.93,8.5-3.81,9.33-6.01,10.12-14.72,5.46-11.86-6.34-23.72-12.69-35.57-19.04-5.58-2.99-6.76-6.05-4.71-12.08,2.65-7.8,8.2-10.15,15.45-6.53,12.62,6.3,25.24,12.62,37.87,18.91,2.12,1.06,4.43,1.93,3.62,4.78Z"/>
      <path class="cls-170" d="m197.99,155.67c-19.82-1.9-34.05-10.68-43.65-26.87-2.58-4.35.33-7.22,2.71-10.12,2.15-2.6,4.55-2.31,7.5-.69,13.98,7.65,28.01,15.21,42.2,22.46,3.94,2.01,4.11,4.06,1.97,7.29-2.85,4.31-6.38,7.53-10.73,7.93Z"/>
      <path class="cls-173" d="m152.76,114.62c.97-10.46,2.42-20.8,7.06-30.43,4.61-9.56,11.34-17.13,20.39-22.66.82-.5,1.57-1.49,2.63-.93,1.15.61.49,1.74.42,2.68-.21,2.91-1.14,5.31-3.41,7.44-4.98,4.7-8.24,10.48-8.7,17.44-.15,2.32-1.16,3.53-2.97,4.7-6.04,3.92-9.55,9.44-8.61,16.77.53,4.15-3.36,3.98-4.7,6.17-1.12.36-2.24.7-2.12-1.18Z"/>
      <path class="cls-7" d="m251.9,107.1c-.02.51-.03,1.03-.05,1.54-.99,4.34-1.67,8.76-3.07,13.01-6.27,17.5-19.2,27.48-36.84,32.89.15-2.07,1.54-2.45,2.5-3.02,15.86-9.32,27.93-21.77,33.1-39.94,2.37-7.62,1.74-15.27.17-22.92l-.23-.22.14-.29c0-1.27-1.38-2.98,1.09-3.48.33,1.08-.12,2.41,1.04,3.22.9,2.87,1.14,5.88,2,8.76.05.84.09,1.68.14,2.52.56,2.64.57,5.29,0,7.93Z"/>
      <path class="cls-5" d="m147.82,105.64c-.86-22.91,18.87-51.7,36.09-50.55-21.49,11.3-31.42,29.13-34.04,51.59-1.18.64-1.48-.46-2.04-1.04Z"/>
      <path class="cls-2" d="m213.48,79.94c-5.49.26-8.87-4.02-7.27-9.11,1.55-4.92,2.55-9.97,3.03-15.09.31-3.25,1.78-3.94,4.58-2.81.46.18.97.23,1.44.39,4.08,1.41,9.58,2.13,11.38,5.49,2.19,4.08-3.92,6.47-5.61,10.09-1.4,2.99-3.26,5.76-4.79,8.7-.64,1.23-1.1,2.44-2.77,2.35Z"/>
      <path class="cls-2" d="m198.79,51.22c1.5,0,2.99,0,4.49,0,2.07-.01,2.99.73,2.59,3.04-.99,5.73-1.85,11.47-3.68,17.04-.94,2.86-2.42,3.76-5.19,2.69-1.39-.54-2.86-.9-4.25-1.45-4.55-1.83-7.78-4.45-5.75-10.06.05-.15.04-.33.05-.49q1.08-10.51,11.73-10.76Z"/>
      <path class="cls-4" d="m229.42,85.97c-.83-.18-1.32-.28-1.81-.39-9.15-1.93-10.05-3.83-5.3-11.7,1.45-2.4,3.11-4.7,4.81-6.94,4.59-6.03,4.62-6.01,10.07-.44.35.36.68.73,1.02,1.09,6.04,6.53,6.01,6.49-.79,12.01-1.79,1.45-3.37,3.18-4.97,4.86-.95,1-1.81,2.01-3.04,1.51Z"/>
      <path class="cls-161" d="m247.73,88.65c2.41,7.66,3.26,15.31-.17,22.92.99-7.63.9-15.28.17-22.92Z"/>
      <path class="cls-161" d="m248.72,84.67c-1.2.89-.8,2.29-1.09,3.48-.83-2.91-1.67-5.81-2.76-9.63,3.11,1.82,3.56,3.94,3.85,6.15Z"/>
      <path class="cls-161" d="m248.79,121.65c.49-4.46,1.26-8.86,3.07-13.01.11,4.6-.91,8.94-3.07,13.01Z"/>
      <path class="cls-161" d="m251.76,96.65c-1.61-2.7-2.14-5.65-2-8.76,1.51,2.73,2.16,5.65,2,8.76Z"/>
      <path class="cls-102" d="m147.82,105.64c.68.35,1.36.69,2.04,1.04.6,1.34.09,2.66-.04,3.99-.67.57-1.33.57-1.96-.07-.19-1.65-.72-3.3-.05-4.96Z"/>
      <path class="cls-161" d="m251.9,107.1c0-2.64,0-5.28,0-7.93.82,2.64.74,5.28,0,7.93Z"/>
      <path class="cls-15" d="m147.87,110.6c.65.02,1.31.04,1.96.07.26,1.13.42,2.97-.58,3-1.68.05-1.51-1.73-1.38-3.06Z"/>
      <path class="cls-24" d="m152.76,114.62c.46.84,1.14,1.29,2.12,1.18-.35,1.09-1.15,1.77-2.16,1.17-.95-.57-1.07-1.58.04-2.34Z"/>
      <path class="cls-99" d="m421.65,114.09c.92-3.3,1.64-6.67,2.8-9.89,1.72-4.8-2.26-7.92-3.38-11.85-.5-1.76-4.46-.33-5.88-2.64,6.8,0,12.22,6.49,10.65,13.11-.92,3.9-.74,8.28-4.19,11.27Z"/>
      <path class="cls-114" d="m423.94,179.94c-.74-.72-1.48-1.45-2.22-2.17,5.63-.12,11.28.52,16.89-.39.28.07.57.1.86.1.1.7.2,1.4.29,2.1-.61.03-1.21.06-1.82.09-.22.02-.43.03-.65.05-.84.2-1.73.24-2.47.77-3.32.78-6.67.29-10.01.2-.42-.11-.7-.36-.87-.75Z"/>
      <path class="cls-41" d="m438.6,114.8c-2.83-5.45-5.91-10.85-2.94-17.28.83.19,1.39.7,1.77,1.44.38,4.85,1.71,9.53,2.75,14.26-.21.84-.73,1.37-1.57,1.58Z"/>
      <path class="cls-127" d="m450.73,78.66c2,2.29,4.65,2.41,7.23,1.68,1.7-.48,3.15-.71,4.66.28-.66.79-1.32,1.57-1.97,2.36-3.44.21-6.89-.03-10.33.37-1.1-.15-1.76-.93-2.43-1.7-.4-.65-.81-1.3-1.21-1.94.15-.78.61-1.31,1.32-1.64,1.01-.29,1.92-.07,2.74.57h.01Z"/>
      <path class="cls-128" d="m436.95,98.72c-.43-.4-.86-.81-1.29-1.21,1.84-2.48.06-8.1,6.06-6.95.59.55.69,1.23.52,1.98-1.95,1.89-2.32,5.15-5.28,6.18Z"/>
      <path class="cls-122" d="m449.7,120.64c2.42,3.22-.62,2.68-2.18,3.15-1.85-1.11-3.8-2.11-4.77-4.21-.26-.87.26-1.21.97-1.41,2.27.15,3.76,2.2,5.98,2.47Z"/>
      <path class="cls-149" d="m441.73,92.22c0-.55,0-1.1-.01-1.65,1.61-1.01,3.21-2.01,4.82-3.02,1.06-.31,1.46.31,1.67,1.19-1.17,2.99-2.51,5.68-6.47,3.48Z"/>
      <path class="cls-127" d="m447.66,88.4c-.38-.28-.75-.56-1.13-.85.45-1.96.89-3.93,1.34-5.89.9.06,1.63.38,1.98,1.28,1.3,2.64,1.34,4.76-2.19,5.45Z"/>
      <path class="cls-52" d="m435.77,82.78c-.01-.37-.02-.75-.04-1.12.06-1.15.47-2.05,1.68-2.4,1.26-.03,2.51-.35,3.77-.03.58.36,1.03.77.61,1.53-1.94.89-3.8,1.99-6.03,2.02Z"/>
      <path class="cls-53" d="m435.78,172.5c.31-.29.63-.58.94-.87,1.52.88,2.42,2.07,1.99,3.93-2.3.24-2.28-1.73-2.93-3.06Z"/>
      <path class="cls-112" d="m452.85,124.79c-.08.97-.16,1.94-.23,2.9-.85.5-.88,1.38-1.04,2.2-1.36-1.15-.95-2.7-.92-4.16.58-.68.72-2.36,2.2-.94Z"/>
      <path class="cls-112" d="m441.79,80.76c-.37-.38-.74-.76-1.11-1.14.18-2.44,1.91-2.55,3.76-2.48,1.01.47,1.61,1.18,1.34,2.38-1.33.42-2.66.83-3.98,1.25Z"/>
      <path class="cls-49" d="m438.6,114.8c.41-.41.82-.82,1.24-1.22,1.97.08,2.17,1.43,2.16,2.96-.28.4-.66.65-1.14.72-1.41-.21-1.55-1.59-2.25-2.45Z"/>
      <path class="cls-27" d="m440.86,117.25c.12-.3.34-.48.66-.56,1.76-.42,2.56.09,1.95,1.99-.24.3-.48.6-.72.9-1.16-.35-1.84-1.08-1.89-2.33Z"/>
      <path class="cls-17" d="m445.77,79.51c-.33-.58-.65-1.17-.98-1.75.33-.39.74-.65,1.24-.76,1.07.05,2.02.23,1.82,1.67-.4.35-.79.7-1.19,1.05-.31-.02-.61-.09-.89-.21Z"/>
      <path class="cls-166" d="m510.53,129.01c.66,3.19,1.33,6.38,1.99,9.57-4.88,4.95-7.05,4.71-9.74-1.25-1.3-2.87-2.6-5.78-3.52-8.78-1.04-3.4-2.76-6.8,2.99-8.66,1.5-.48,3.75-5.09,4.07-8.49.09-.93-.55-1.96.48-2.72,1.61-.08,2.85.36,3.05,2.22-.09,1.17-.17,2.34-.26,3.52-.98,3.91.23,7.71.52,11.56.55.95.02,2.06.42,3.03Z"/>
      <path class="cls-179" d="m494.95,98.91c.11-.81.72-1.11,1.37-1.15.67-.04,1.31.22,1.3,1.08-.01.86-.71,1.07-1.34,1.08-.59,0-1.34-.09-1.34-1Z"/>
      <path class="cls-45" d="m480.58,56.78c.75.65,1.5,1.3,2.24,1.95-.73,2.99-2.42,2.36-4.27,1.13.43-1.19,2.4-1.36,2.03-3.08Z"/>
      <path class="cls-72" d="m473.73,62.67c.37-.37.74-.74,1.12-1.11,1.34.24,3.65-.84,2.97,2.17-1.52.27-3.33,1.63-4.08-1.06Z"/>
      <path class="cls-194" d="m473.73,62.67c1.02,1.67,2.68.86,4.08,1.06-1.04,1.12-2.53.83-3.81,1.18-.79-.03-1.58-.06-2.36-.08-.4-.76-.07-1.34.45-1.87.22-.09.44-.18.65-.27.33.01.66,0,.98-.01Z"/>
      <path class="cls-53" d="m453.73,71.79c-.2,4.73-3.85,2.2-5.99,2.85-.32-.35-.46-.77-.46-1.25,1.02-2.5,3.25-2.14,5.29-2.24.47.06.85.28,1.16.64Z"/>
      <path class="cls-126" d="m447.75,73.78c0,.29-.01.57,0,.86-.14,2.18,2.56,2.25,2.98,4.01-.95,0-1.91,0-2.86,0-.46-.97-1.41-1.03-2.29-1.2-1.04-1.28-.96-2.59-.08-3.91.81-.47,1.58-.57,2.26.23Z"/>
      <path class="cls-35" d="m453.73,71.79c-.37-.02-.74-.03-1.11-.05-.23-2.94,2.45-3.16,4.08-4.36.86.02,1.36.35,1.1,1.31.22,1.22-.48,2.07-1.18,2.91-.97.06-1.93.12-2.9.19Z"/>
      <path class="cls-142" d="m443.47,118.68c-.26-1.05-.94-1.68-1.95-1.99-.56-1.04-1.12-2.08-1.68-3.12-2.24-4.7-3.66-9.56-2.89-14.85,2.14-1.76,1.66-5.46,4.78-6.51,2.88.13,4.74-1.32,5.93-3.82,2.07-1.28,2.02-3.41,2.19-5.45,3.6-1.79,7.2-2.49,10.78.04.26.25.52.49.78.74,2.8,2.74,1.17,5.71.46,8.63-1.21,2.02-1.79,4.37-3.17,6.31-.15.24-.17.49-.06.75-3.29,1.23-2.82,4.63-4.07,7.04-.66,1.71-1.32,3.42-1.98,5.12-2.01,2.69-2.43,5.89-2.9,9.07-3.24,3.05-3.8-2.43-6.23-1.96Z"/>
      <path class="cls-122" d="m452.16,115.13c.72,2.1,2.01,3.53,1.07,6.14-.64-2.2-1.99-3.61-1.07-6.14Z"/>
      <path class="cls-174" d="m509.7,126.66c-2.13-4.06-1.49-8.15-.11-12.25.52,1.69-.58,3.7,1,5.19,0,1.03.01,2.06.02,3.09-1.03,1.16.29,2.86-.91,3.98Z"/>
      <path class="cls-126" d="m457.46,187.66v8.71c-.14,0-.27.01-.41.02v-8.71c.14,0,.27,0,.41-.01Z"/>
      <path class="cls-123" d="m461.02,92.79c-.02-3.03,1.52-5.99.4-9.07.73-.02,1.46-.05,2.19-.07.36.29.47.66.37,1.11-.01,1.64-1,3.21-.31,4.89.33,1.29.66,2.59.99,3.88-.34,1.03-.67,2.07-1.01,3.1-.64,0-1.29.02-1.93.03-2.03-.97-1.68-2.36-.7-3.87Z"/>
      <path class="cls-100" d="m463.63,84.7c0-.35-.01-.7-.02-1.05,1.7,1.59,1.49,3.26.18,4.96-.9-1.27-.68-2.58-.16-3.91Z"/>
      <path class="cls-122" d="m463.63,84.7c.05,1.3.1,2.6.16,3.91-.04.35-.08.69-.12,1.04-1.4-1.64-1.4-3.29-.04-4.95Z"/>
      <path class="cls-176" d="m470.82,62.84c-.76-.46-1.09-1.13-1.03-2,1.35.03,3.22-.78,2.95,1.85,0,0-.06-.07-.06-.07-.55.63-1.18.65-1.86.23Z"/>
      <path class="cls-118" d="m470.82,62.84c.62-.08,1.24-.15,1.86-.23-.35.74-.7,1.47-1.05,2.21-.68.65-1.36,1.29-2.04,1.94,0,0-.07-.03-.07-.03.28-1.98-3.06-.75-2.57-2.91,1.32-.21,2.82.28,3.87-.98Z"/>
      <path class="cls-63" d="m460.06,65.67c-.14-.63-.27-1.26-.41-1.9,1.91-2.25,2.61.67,3.94.92,0,0,.22-.09.22-.09.5.71.5,1.38-.17,2-.44.2-1.01.31-.69,1.02-.75.04-1.49.08-2.24.11-.79-.51-.5-1.36-.65-2.07Z"/>
      <path class="cls-144" d="m509.7,126.66c.3-1.33-.51-2.91.91-3.98.39,1.64.77,3.29,1.16,4.93-.41.46-.82.93-1.24,1.39-.28-.78-.56-1.56-.83-2.35Z"/>
      <path class="cls-108" d="m463.64,66.61c.06-.67.11-1.33.17-2,1.05-.27,2.09-.53,3.14-.8.59,1.21,3.16.67,2.58,2.91-1.93-1.81-3.92-.2-5.89-.11Z"/>
      <path class="cls-18" d="m460.06,65.67c.22.69.43,1.38.65,2.07.01.31.01.62,0,.93-.97,0-1.95.01-2.92.02-.31-.35-.63-.69-.94-1.04-1.18,1.07-2.22.48-3.26-.26-.72-.71-1.27-1.49-.94-2.58,2.59-.8,4.51,4.12,7.39.86Z"/>
      <path class="cls-127" d="m461.02,92.79c.22,1.29-.34,2.73.7,3.87-.33.66-.66,1.32-.98,1.98-.67,0-1.35.01-2.02.02-.32-2.38.1-4.48,2.31-5.87Z"/>
      <path class="cls-126" d="m416.49,192.56c1.71-3.05,3.41-6.09,5.12-9.14.99.41.57,1.51,1.05,2.17-1.11,3.06-2.77,5.81-4.85,8.31-.68-.21-1.13-.65-1.33-1.34Z"/>
      <path class="cls-116" d="m438.76,188.56c-1.92-1.92-2.42-4.45-3.02-6.94.66-.57.04-2.24,1.68-1.99.17.03.34.04.51.05-.5,2.6,1.36,4.59,1.78,6.95-.56.52-.2,1.5-.96,1.93Z"/>
      <path class="cls-78" d="m416.49,192.56c.44.45.88.89,1.33,1.34-.74,1.37-1.26,2.96-3.41,3.44-.82-2.41.84-3.52,2.08-4.78Z"/>
      <path class="cls-129" d="m441.85,190.47c.13.09.31.16.39.28.92,1.38,3.34,3.4,1.92,4.22-2.16,1.25-2.45-1.95-3.44-3.34.12-.64.5-1.03,1.14-1.17Z"/>
      <path class="cls-23" d="m441.85,190.47c-.38.39-.76.78-1.14,1.17-.65-1.03-1.3-2.05-1.95-3.08.09-.76.14-1.53.96-1.93.71,1.28,1.42,2.56,2.13,3.84Z"/>
      <path class="cls-154" d="m422.66,185.59c-.87-.47-.88-1.36-1.05-2.17.48-.95.96-1.91,1.45-2.86.3-.21.59-.42.88-.62.29.25.58.51.87.76-.72,1.63-1.43,3.26-2.15,4.9Z"/>
      <path class="cls-33" d="m437.43,179.63c-.56.66-1.12,1.32-1.68,1.99-.31-.37-.62-.74-.92-1.11.32-1.93.96-2.91,2.61-.87Z"/>
      <path class="cls-181" d="m388.7,139.54c-.17,2.15.79,4.65-2.45,4.68-3.24.03-2.47-2.44-2.43-4.3.04-2.17-.82-5.39,2.65-5.26,3.1.12,1.89,3.24,2.23,4.88Z"/>
      <path class="cls-181" d="m368.5,139.7c-.03,2.11.67,4.53-2.5,4.51-3.22-.03-2.39-2.53-2.37-4.37.01-2.19-.75-5.4,2.72-5.18,2.99.18,1.94,3.25,2.16,5.04Z"/>
      <path class="cls-172" d="m377.4,106.78c-.13,1.31.37,3.35-1.43,3.2-2.1-.17-1.17-2.36-1.27-3.71-.08-1.06-.47-2.82,1.1-2.84,2.42-.04,1.26,2.16,1.6,3.35Z"/>
      <path class="cls-164" d="m362.27,113.37c-.32,1.39.63,3.34-1.29,3.38-1.93.04-1.26-1.9-1.26-3.06,0-1.16-.68-3.09,1.2-3.13,2.02-.04.84,2.01,1.35,2.8Z"/>
      <path class="cls-172" d="m392.64,113.61c-.09,1.25.45,3.2-1.39,3.14-1.8-.06-1.21-2.03-1.23-3.27-.02-1.25-.47-3.21,1.34-3.15,1.76.06,1.18,2.02,1.28,3.28Z"/>
      <path class="cls-68" d="m388.66,66.72c.89-.13,1.85-.12,2.43-1.01,1.05-.14,1.98.08,2.74.84-.68.32-1.36.63-2.03.95-1.13.08-2.25.13-3.14-.78Z"/>
      <path class="cls-94" d="m445.83,73.71c-.09,1.25-.17,2.5-.26,3.75-.26.09-.52.19-.77.29-1.65,0-2.89.91-4.12,1.86-.94-.14-1.78,1.8-2.8.14-.16-.8-.69-1.42-1.06-2.12-.48-.67-1.02-1.29-1.32-2.07.17-.27.26-.57.29-.89,0-.67-.02-1.35-.02-2.02,1.52-.79,3.05-.11,4.57-.02,1.45.4,2.93.42,4.43.4.43.1.79.33,1.07.67Z"/>
      <path class="cls-103" d="m435.5,75.57c1.25.08,2.15.56,2.23,1.97-.47,1.39-1.26,2.38-2.9,2.28-1.89-1.75-1.17-3.09.68-4.24Z"/>
      <path class="cls-60" d="m434.82,79.82c.97-.76,1.93-1.52,2.9-2.28,1.43.64,1.1,1.41.16,2.22-.72.63-1.44,1.26-2.16,1.9-.3-.61-.6-1.23-.9-1.84Z"/>
      <path class="cls-91" d="m440.87,73.64c-1.79.15-3.53,0-5.1-.98-.84-1.57,1.02-2.4,1.03-3.74.74-.66,1.48-1.33,2.22-1.99.4-.92,1.01-1.62,2-1.95.98-.26,1.92-.21,2.81.34,1.01,1.35,1.48,2.98,2.29,4.43-.33,3.2-2.81,3.52-5.25,3.89Z"/>
      <path class="cls-155" d="m445.5,69.74c-1.68-.78-2-2.24-1.95-3.89-.42-.69-.48-1.4-.09-2.13,1.47-.75,2.32.14,3.14,1.16-1.62,3.92,1.59,2.4,3.12,2.78.05.25.11.51.16.77-.34,1.11-1.09,1.75-2.21,2-.82.08-1.55-.14-2.18-.68Z"/>
      <path class="cls-84" d="m446.61,64.88c-.95-.38-1.89-.76-2.83-1.13-.97.87-2.22.96-3.4,1.26-2.01-1.32-1.21-2.38.32-3.36,1.04.06,2.08.12,3.12.18.81,1.14,3.4.64,2.8,3.06Z"/>
      <path class="cls-61" d="m452.67,64.81c.33.56.66,1.13.98,1.69-1.01,1.48-2.17,2.39-3.94,1.08,0,0,.01.07.01.07.37-1.58.5-3.4,2.94-2.85Z"/>
      <path class="cls-119" d="m446.77,57.52c.32-.57.64-1.14.95-1.71.85-.39,1.69-.79,2.54-1.18.24,2.66-1.16,3.34-3.49,2.89Z"/>
      <path class="cls-46" d="m440.69,61.64c-.09.97-1.74,1.96.04,2.9.27.26.37.54.31.82-.06.29-.13.44-.21.44-.61.37-1.22.75-1.82,1.12-.13-1.53.18-3.18-1.31-4.29.45-.89.98-1.68,2.13-1.68.29.23.57.46.86.69Z"/>
      <path class="cls-11" d="m229.85,96.77c-.79,4.61-2.32,9.27-5.35,13.37-1.27,1.71-2.49,1.45-4.26.54-13.24-6.75-26.51-13.44-39.88-19.93-2.35-1.14-3.01-2.72-2.39-4.71.98-3.12,2.09-6.21,4.4-8.78,1.57-1.75,2.76-1.65,4.71-.81,9,3.89,18.08,7.54,27.49,10.41,4.85,1.48,8.85,5.08,14,6.11,1.69.34,1.02,2.19,1.27,3.81Z"/>
      <path class="cls-10" d="m220.22,139.42c3.76-5.39,6.42-10.76,7.12-16.91.3-2.6,1.69-4.46,3.39-6.41,6.43-7.35,9.85-15.71,7.44-25.68-.41-1.69-.82-3.92,1.24-4.12,2.21-.22,1.15,2.24,1.39,3.52,3.9,20.27-3.38,36.28-18.89,49.09-.31.25-.82.26-1.7.51Z"/>
      <path class="cls-11" d="m165.87,107.93c.67-2.38.44-5.7,3.16-7.99,2.2-1.85,4.24-2.61,7.19-1.17,12.97,6.29,25.45,13.58,38.79,19.15,5.14,2.15,2.1,6.52,1.5,9.62-1.38,7.19-5.05,8.49-11.39,5.01-12.19-6.69-24.4-13.33-36.71-19.78-2-1.05-2.7-2.21-2.54-4.83Z"/>
      <path class="cls-11" d="m197.88,152.71c-19-1.63-32.03-10.21-41.32-24.88-1.84-2.91.34-4.69,1.6-6.67,1.38-2.17,3.37-1.68,5.28-.67,13.86,7.36,27.68,14.79,41.59,22.05,2.14,1.12,2,2.47,1.22,4.04-2.01,4.07-5.29,6.21-8.38,6.13Z"/>
      <path class="cls-12" d="m180.05,65.95c-3.05,4.81-7.35,7.94-8.95,12.82-.05.15-.27.26-.28.4-.94,8.86-6.93,14.61-12.63,19.83.39-11.41,11.63-29.27,21.86-33.05Z"/>
      <path class="cls-10" d="m224.45,60.06c-3.55,4.72-7.03,9.13-9.64,14.1-1.25,2.38-2.87,2.69-5.28,1.6-2.85-1.29-.75-2.78-.26-3.99,1.58-3.9,1.34-8.11,2.29-12.12.82-3.48,2.81-3.64,5.39-2.75,2.47.85,4.82,2.02,7.5,3.16Z"/>
      <path class="cls-10" d="m199.31,53.68c2.43-.32,4.39.82,3.26,3.54-1.48,3.57-1.75,7.33-2.64,10.98-.54,2.21-1.7,2.52-3.51,2.46-4.73-.15-7.31-3.57-6.1-8.11.17-.63.35-1.27.43-1.92.68-5.59,2.28-6.94,8.55-6.95Z"/>
      <path class="cls-12" d="m239.64,74c.05,1.25-.91,1.71-1.8,2.09-2.04.88-3.71,2.32-4.94,4.03-2.77,3.85-6.15,2.03-9.38,1.22-1.59-.4-1.14-1.67-.67-2.82,1.77-4.33,4.78-7.87,7.44-11.62.33-.46,1.06-.83,1.63-.88,1.2-.11,7.74,6.78,7.71,7.98Z"/>
      <path class="cls-91" d="m449.72,67.58c1.6.7,2.6-.8,3.94-1.08,1.07.38,2.14.76,3.21,1.14-.24,2.58-3.75,1.77-4.24,4.1-1.44,1.11-3.87-.13-4.87,2.04-.64-.02-1.28-.05-1.92-.07-.39-.02-.79-.05-1.18-.07-.23-2.41,2.07-2.69,3.26-3.91.93-.44,1.86-.89,1.81-2.15Z"/>
      <path class="cls-140" d="m447.91,69.74c-.38,1.89-2.62,2.23-3.26,3.91-1.26.85-2.52,1.06-3.78,0,1.41-1.46,4.19-1.29,4.64-3.9.8,0,1.6,0,2.41,0Z"/>
      <path class="cls-98" d="m440.84,65.81c-.04-.42-.07-.84-.11-1.27.82-1,1.95-.81,3.04-.8-.07.7-.14,1.41-.21,2.11-.91-.02-1.81-.03-2.72-.05Z"/>
    </g>
  </g>
</svg>