<?xml version="1.0" encoding="UTF-8"?>
<svg id="Layer_2" data-name="Layer 2" xmlns="http://www.w3.org/2000/svg" viewBox="0 0 149.63 167.87">
  <defs>
    <style>
      .cls-1, .cls-2 {
        fill: #fff;
      }

      .cls-1, .cls-3 {
        stroke-width: .27px;
      }

      .cls-1, .cls-3, .cls-4 {
        stroke: #231f20;
        stroke-miterlimit: 2.61;
      }

      .cls-5 {
        fill: #3f5d65;
      }

      .cls-5, .cls-6, .cls-7, .cls-8, .cls-2, .cls-9 {
        stroke-width: 0px;
      }

      .cls-6 {
        fill: #231f20;
      }

      .cls-7, .cls-4 {
        fill: #b63e3e;
      }

      .cls-8 {
        fill: #009f49;
      }

      .cls-9 {
        fill: #e63e3a;
      }

      .cls-3 {
        fill: none;
      }

      .cls-4 {
        stroke-width: .22px;
      }
    </style>
  </defs>
  <g id="Layer_1-2" data-name="Layer 1">
    <g>
      <path class="cls-6" d="m146.95,12.6s-12.34,5.9-26.82,5.9C91.17,18.5,74.82,0,74.82,0c0,0-16.36,18.5-45.32,18.5-14.48,0-26.82-5.9-26.82-5.9,0,0-2.68,15.55-2.68,27.35,0,89.3,74.82,127.91,74.82,127.91,0,0,74.82-38.61,74.82-127.91,0-11.8-2.68-27.35-2.68-27.35h0Zm-12.38,83.35c-6.01,13.92-14.4,26.94-24.94,38.72-14.84,16.58-29.85,26.01-34.81,28.89-4.96-2.88-19.97-12.31-34.81-28.89-10.54-11.77-18.93-24.8-24.95-38.72C7.56,78.58,3.75,59.74,3.75,39.96c0-7.5,1.14-16.68,1.92-22.1,5.12,1.85,13.95,4.4,23.83,4.4,23.65,0,39.26-11.55,45.32-17,6.06,5.46,21.67,17,45.32,17,9.88,0,18.71-2.55,23.83-4.4.78,5.41,1.92,14.6,1.92,22.1,0,19.79-3.8,38.63-11.31,56h0Z"/>
      <path class="cls-2" d="m143.96,17.86c-5.12,1.85-13.95,4.4-23.83,4.4-23.65,0-39.26-11.55-45.32-17-6.06,5.46-21.67,17-45.32,17-9.88,0-18.71-2.55-23.83-4.4-.78,5.41-1.92,14.6-1.92,22.1,0,19.79,3.8,38.63,11.31,56,6.01,13.92,14.4,26.94,24.95,38.72,14.84,16.58,29.85,26.01,34.81,28.89,4.96-2.88,19.97-12.31,34.81-28.89,10.54-11.77,18.93-24.8,24.94-38.72,7.5-17.37,11.31-36.21,11.31-56,0-7.5-1.14-16.68-1.92-22.1h0Zm-37.32,113.71c-12.78,14.33-25.69,23.2-31.83,26.99-6.14-3.8-19.06-12.66-31.83-26.99C19.8,105.55,8.05,74.73,8.05,39.96c0-5.27.59-11.43,1.2-16.44,5.41,1.56,12.53,3.04,20.25,3.04,21.91,0,37.4-9.41,45.32-15.7,7.92,6.3,23.41,15.7,45.32,15.7,7.72,0,14.84-1.47,20.25-3.04.61,5.01,1.2,11.18,1.2,16.44,0,34.77-11.76,65.6-34.94,91.61h0Z"/>
      <path class="cls-2" d="m29.5,30.3c-5.48,0-11.18-.72-17-2.09-.46,4.54-.7,8.48-.7,11.74,0,33.82,11.44,63.81,33.99,89.11,11.14,12.51,22.33,20.71,29.03,25.04,6.69-4.33,17.88-12.54,29.03-25.04,22.55-25.31,33.99-55.29,33.99-89.11,0-3.26-.24-7.21-.7-11.74-5.82,1.37-11.52,2.09-17,2.09-21.28,0-36.84-8.56-45.32-14.75-8.48,6.19-24.04,14.75-45.32,14.75h0Z"/>
      <path class="cls-6" d="m139.21,66.24h0c1.58-8.48,2.39-17.25,2.39-26.28,0-5.27-.59-11.43-1.2-16.44-5.41,1.56-12.53,3.04-20.25,3.04-19.88,0-34.47-7.75-42.92-13.88-.38-.28-.75-.55-1.11-.82-.09-.06-.17-.13-.25-.19-.35-.27-.7-.54-1.03-.8-.33.26-.67.53-1.02.8-.09.07-.18.14-.27.21-.36.27-.72.54-1.1.82-8.45,6.14-23.05,13.88-42.92,13.88-7.72,0-14.84-1.47-20.25-3.04-.61,5.01-1.2,11.18-1.2,16.44,0,9.03.81,17.8,2.39,26.28h0c.02.12.05.23.07.35.04.21.08.43.12.64.21,1.1.44,2.21.68,3.3h127.04c.24-1.1.47-2.2.68-3.31.04-.21.08-.42.12-.62.02-.12.05-.24.07-.36h0Zm-124.96,0c-1.63-8.48-2.45-17.24-2.45-26.28,0-3.26.24-7.21.7-11.74,5.82,1.37,11.52,2.09,17,2.09,19.4,0,34.04-7.11,42.91-13.06v49H14.25Zm62.98,0V17.24c8.86,5.95,23.51,13.06,42.91,13.06,5.48,0,11.18-.72,17-2.09.46,4.53.7,8.48.7,11.74,0,9.04-.82,17.8-2.45,26.28h-58.15Z"/>
      <path class="cls-6" d="m137.46,74.28H12.18c.26,1.05.55,2.09.84,3.12,5.48,19.79,15.5,37.92,29.98,54.16,12.78,14.33,25.69,23.2,31.83,26.99,6.14-3.8,19.06-12.66,31.83-26.99,14.48-16.25,24.5-34.38,29.98-54.18.29-1.03.57-2.07.83-3.11h0Z"/>
      <path class="cls-9" d="m101.27,78.57l-53.1,53.1c5.67,6.06,11.27,11.01,16.19,14.91l68.01-68.01h-31.11Z"/>
      <path class="cls-9" d="m33.04,112.47l33.9-33.9h-31.11l-13.66,13.66c2.98,7,6.61,13.75,10.87,20.24h0Z"/>
      <path class="cls-2" d="m87.29,126.44h6.3l-16.09-39.29h-5.36l-16.09,39.29h6.3l3.8-9.65h17.33l3.8,9.65h0Zm-19.39-14.08l6.92-17.56,6.92,17.56h-13.84Z"/>
      <path class="cls-2" d="m87.22,111.9c-1.66,5.24-6.56,9.04-12.34,9.04-7.13,0-12.94-5.8-12.94-12.94s5.8-12.94,12.94-12.94c4.28,0,8.07,2.09,10.43,5.29l4.73-3.53c-3.43-4.65-8.94-7.66-15.16-7.66-10.4,0-18.84,8.43-18.84,18.84s8.43,18.84,18.84,18.84c8.36,0,15.44-5.45,17.91-12.99l-5.57-1.95h0Z"/>
      <path class="cls-3" d="m13.91,64.38c3.69,1.01,8.32-.82,8.32-5.67,0,7.78,12.46,7.78,12.46,0,0,7.78,12.78,8.05,12.78,0,0,8.05,12.46,8.05,12.46,0,0,8.05,12.46,8.05,12.46,0"/>
      <path class="cls-4" d="m34.69,58.72c0,7.78,12.78,8.05,12.78,0,0,8.05,12.46,8.05,12.46,0,0,3.66,2.58,5.65,5.39,5.98,0,0,2.62-4.75,3.76-12.37-12.5,3.36-27.25,3.84-55.67-2.97,10.3,7.17,16.89,13.4,18.06,14.53,1.84-.87,3.22-2.59,3.22-5.17h0Z"/>
      <path class="cls-1" d="m36.2,42.91c13.94-5.75,27.08-13.68,31.64-16.89-4.02,10.73-2.95,15.82,1.24,26.31-6.67-6.67-23.96-11.22-32.88-9.42h0Z"/>
      <path class="cls-1" d="m25.74,46.12c12.6-6.7,23.87-13.41,32.31-19.44-3.89,10.06-3.89,18.64.97,27.56-6.72-6.72-24.98-8.12-33.29-8.12h0Z"/>
      <path class="cls-1" d="m13.41,49.36c15.02-2.7,21.71-2.46,29.19,5.03-2.51-9.2-2.6-13.51,0-23.01-11.68,8.76-14.23,10.82-29.19,17.98h0Z"/>
      <path class="cls-7" d="m104.45,32.98c1.5,0,3.46.25,5.1.51v-1.85h-5.9v1.37c.26-.02.53-.03.8-.03h0Z"/>
      <path class="cls-7" d="m83.8,39.55c0-1.16.45-2.08,1.15-2.82h-3.03v5.63h2.45c-.35-.73-.58-1.64-.58-2.82h0Z"/>
      <path class="cls-7" d="m128.44,36.74c.41.77.68,1.62.68,2.55,0,1.38-.25,2.37-.59,3.08h2.73v-5.63h-2.83Z"/>
      <path class="cls-8" d="m99.09,34.32l-6.17-.4s-9.12.4-9.12,5.63,4.42,5.5,4.42,5.5c0,0-.67,2.41,2.01,3.89,2.68,1.47,8.31-2.68,8.31-2.68,0,0,5.63,2.55,9.12,1.61,3.49-.94,6.97-3.89,6.97-3.89,0,0,2.95,2.82,5.77,2.82s6.44-2.68,6.44-2.68c0,0,2.28-.67,2.28-4.83s-5.36-6.84-5.36-6.84c0,0,.94,1.34,0,2.28-.94.94-1.47-2.41-5.23-2.41s-5.9,1.74-5.9,1.74c0,0-5.1-1.07-8.18-1.07s-5.36,1.34-5.36,1.34h0Z"/>
      <path class="cls-5" d="m113.33,60.6c-1.39-.93-2.54-.67-4.11-.59-.39.02-.88.07-1.39.11v-5.25c.94-.17,2.08-.27,1.59.86-.09.21-.3.61-.45.77-.23.25-.52.1-.78.26-.37.22-.01.3.27.31.65.04.86-.24,1.29-.66.36-.34.47-1.19.95-1.34.35-.11.99.24,1.11.61.09.28.04.36-.16.57-.15.16-.36.38-.53.5-.27.18-.53.06-.82.17-.05.61,1.41,0,1.64-.17.48-.36.67-1,1.08-1.44.23-.24-2.52-1.57-.69-2.23,1.1,1.04,4.07,1.7,4.29-.6-.6.08-1.32.62-1.96.62-.74,0-.9-.39-1.57-.84-1.32-.88-2.42-.64-3.91-.56-.37.02-.84.06-1.34.11v-1.71l.46-2.42h0c-.21.07-.41.13-.62.19-.16.04-.32.08-.49.1l-.45,2-.87-1.89c-.32,0-.64-.02-.96-.05h0l.71,2.15v1.67c-.32-.03-.62-.09-.86-.18-.58-.23-1.18-1.02-1.47-1.59-.15-.29-.09-.56-.13-.85-.11-.72-.54-.43-.93-.13-.47.35-.97.76-1.52.94-.45.15-1.2.23-1.04.93.19.85,1.4.52,1.91.88.39.29.62.82.88,1.23.19.29.31.35.16.63-.09.17-.31.31-.42.49-.46.73-.55,1.8-1.37,2.22.11.27.64.16.82.03.28-.18.28-.64.5-.89.32-.39.77-.62,1.08-1.03.19-.26.3-.59.51-.83-.06.67.03,1.32-.22,1.93-.07.17-.13.51-.25.64-.17.17-.47.13-.61.38.41.37.94-.05,1.15-.41.23-.41.44-1.03.91-1.2.28-.1.59-.1.91-.08v5.22c-.39-.03-.74-.09-1.03-.2-.61-.24-1.24-1.07-1.54-1.67-.16-.3-.09-.59-.14-.89-.12-.75-.57-.45-.97-.14-.49.37-1.02.8-1.6.99-.48.15-1.26.24-1.1.97.19.89,1.47.54,2,.92.42.3.65.87.92,1.3.2.31.33.36.17.66-.1.18-.33.33-.44.51-.48.77-.58,1.89-1.44,2.33.11.28.67.16.86.03.29-.19.3-.67.53-.94.33-.4.81-.65,1.13-1.08.2-.27.32-.62.54-.87-.06.7.03,1.38-.23,2.02-.07.18-.13.54-.26.67-.18.18-.49.14-.64.4.43.39.99-.05,1.2-.43.24-.44.46-1.08.95-1.26.33-.12.7-.11,1.08-.07v2.8h2.22v-2.89c.98-.18,2.16-.27,1.66.91-.09.22-.31.64-.47.8-.25.26-.55.1-.82.27-.39.23-.02.31.28.33.68.05.91-.25,1.36-.69.37-.36.49-1.25,1-1.4.37-.11,1.04.25,1.16.64.09.29.05.37-.17.6-.16.17-.37.4-.56.52-.28.18-.56.07-.86.18-.06.64,1.49,0,1.73-.18.51-.37.7-1.05,1.13-1.51.24-.25-2.65-1.64-.73-2.35,1.15,1.1,4.27,1.78,4.5-.63-.63.08-1.39.65-2.06.65-.77,0-.95-.41-1.65-.89h0Z"/>
    </g>
  </g>
</svg>