<?xml version="1.0" encoding="UTF-8"?>
<svg id="Layer_2" data-name="Layer 2" xmlns="http://www.w3.org/2000/svg" viewBox="0 0 333.38 333.38">
  <defs>
    <style>
      .cls-1, .cls-2, .cls-3 {
        stroke-width: 0px;
      }

      .cls-2 {
        fill: #5b1319;
      }

      .cls-3 {
        fill: #fff;
      }
    </style>
  </defs>
  <g id="Ebene_1" data-name="Ebene 1">
    <g>
      <path class="cls-1" d="m166.69,0c22.54,0,44.06,4.5,63.72,12.64,20.44,8.47,38.8,20.84,54.14,36.19,15.34,15.34,27.72,33.71,36.19,54.14,8.14,19.66,12.64,41.18,12.64,63.72s-4.5,44.06-12.64,63.72c-8.47,20.44-20.85,38.8-36.19,54.15-15.35,15.34-33.71,27.72-54.14,36.19-19.66,8.15-41.18,12.64-63.72,12.64s-44.06-4.49-63.72-12.64c-20.44-8.47-38.8-20.84-54.14-36.19-15.34-15.35-27.72-33.71-36.19-54.15C4.5,210.75,0,189.22,0,166.69s4.5-44.06,12.64-63.72c8.47-20.44,20.84-38.8,36.19-54.14,15.34-15.34,33.71-27.72,54.14-36.19C122.63,4.5,144.15,0,166.69,0Z"/>
      <path class="cls-3" d="m166.69,6.05c44.35,0,84.51,17.98,113.58,47.05s47.05,69.23,47.05,113.58-17.98,84.51-47.05,113.58c-29.07,29.07-69.23,47.05-113.58,47.05s-84.51-17.98-113.58-47.05C24.04,251.2,6.05,211.04,6.05,166.69S24.04,82.18,53.11,53.11C82.18,24.04,122.34,6.05,166.69,6.05Z"/>
      <circle class="cls-2" cx="166.69" cy="166.69" r="155.59" transform="translate(-11.72 320.77) rotate(-85.82)"/>
      <path class="cls-3" d="m75.35,100.11c-.09-7.34-.77-15.83-4.51-22.06-4.19,2.68-6.45,16.59-6.73,24.76-.27,7.76.58,18.3,4.78,23.03,4.42-3.33,6.56-16.99,6.46-25.72Z"/>
      <path class="cls-3" d="m79.72,152.63c-3.01,4.1-3.2,15.05-2.65,21.94.73,9.14,4.15,21.55,8.89,25.44,4.23-5,3.71-17.6,2.13-26.27-1.29-7.1-3.91-16.92-8.38-21.12Z"/>
      <path class="cls-3" d="m61.54,173.13c-7.61-5.98-13.09-9.46-22.01-10.87-.22,4.75,6.77,12.56,13.89,18.67,9.18,7.89,15.55,11.03,23.19,11.49-.27-5.33-7.16-13.09-15.06-19.3Z"/>
      <path class="cls-3" d="m247.41,200.01c4.75-3.89,8.16-16.3,8.89-25.44.55-6.89.37-17.85-2.65-21.94-4.47,4.2-7.09,14.02-8.38,21.12-1.58,8.67-2.1,21.27,2.13,26.27Z"/>
      <path class="cls-3" d="m91.85,187.73c-1.84,7.05,4.37,19.29,9.13,27.29,2.57,4.33,6.98,9.93,10.99,13.84,2.75,2.68,4.53,4.46,7.48,4.62,1.57-7.68-3.76-18.31-8.36-25.92-4.6-7.61-15.19-19.31-19.24-19.83Z"/>
      <path class="cls-3" d="m82.52,201.81c-8.33-5.6-20.01-10.47-25.1-9.81.47,3.65,5.84,10.07,14.38,17.24,4.81,4.04,9.21,6.94,13.17,8.8l6.67-9.24c-2.68-2.72-5.86-4.79-9.12-6.98Z"/>
      <path class="cls-3" d="m69.99,174.12c1.56-4.87-1.35-14.15-6.23-23.32-5.11-9.61-10.22-15.49-16.26-18.89-2.25,5.14,2.83,17.99,6.15,23.8,5.59,9.8,10.25,15.96,16.33,18.41Z"/>
      <path class="cls-3" d="m223.79,245.86l-6.03-8.09c-13.59.16-20.88,2.4-22.93,5.47,1.38,2.3,10.02,5.95,22.55,6.99,1.7-1.06,3.38-2.19,5.05-3.38.46-.33.91-.66,1.36-.99Z"/>
      <path class="cls-3" d="m222.29,207.57c-4.6,7.62-9.93,18.24-8.36,25.92,2.95-.16,4.73-1.94,7.48-4.62,4.02-3.92,8.42-9.51,10.99-13.84,4.76-8.01,10.96-20.24,9.13-27.29-4.05.52-14.64,12.22-19.24,19.83Z"/>
      <path class="cls-3" d="m264.49,125.84c4.2-4.73,5.05-15.27,4.78-23.03-.28-8.16-2.54-22.08-6.73-24.76-3.75,6.23-4.43,14.72-4.51,22.06-.1,8.74,2.04,22.4,6.46,25.72Z"/>
      <path class="cls-3" d="m248.66,139.5c3.18,7.93,7.9,16.78,14.21,19.97,2.58-7.85-1.23-17.98-4.23-25.33-2.3-5.63-6.38-12.86-10.64-16.74-.75,3.65-1.58,7.27-2.5,10.88.79,3.98,1.75,7.73,3.15,11.22Z"/>
      <path class="cls-3" d="m267.66,145.34c5.53-3.19,11.12-10.71,15.53-24.51,2.71-8.51,3.63-16.88,1.92-20.01-6.17,4.83-9.54,9.83-13.68,19.71-3.24,7.74-6.4,20.05-3.77,24.81Z"/>
      <path class="cls-3" d="m74.73,134.14c-3,7.35-6.81,17.48-4.23,25.33,6.31-3.19,11.03-12.04,14.21-19.97,1.4-3.49,2.37-7.24,3.15-11.22-.93-3.61-1.76-7.23-2.5-10.88-4.26,3.88-8.34,11.11-10.64,16.74Z"/>
      <path class="cls-3" d="m82.64,100.85c-.14-1.14-.29-2.27-.42-3.42-.79-7.01-1.21-14.22-1.31-21.58-.03-1.99-.03-3.98,0-5.97-1.64,4.1-2.43,8.78-2.89,12.97-.69,6.42-1.14,16.1,1.98,20.32,1.01-.65,1.88-1.43,2.64-2.32Z"/>
      <path class="cls-3" d="m269.62,150.8c-4.88,9.17-7.79,18.45-6.23,23.32,6.08-2.44,10.74-8.61,16.33-18.41,3.32-5.81,8.4-18.66,6.15-23.8-6.04,3.4-11.15,9.28-16.26,18.89Z"/>
      <path class="cls-3" d="m248.27,116.07c2.65,1.64,4.85,2.25,7.35,1.99-.62-4.59-2.57-8.53-5.61-11.92-.43,2.87-.91,5.7-1.45,8.51-.09.48-.19.95-.29,1.42Z"/>
      <path class="cls-3" d="m252.47,75.85c-.1,7.36-.52,14.56-1.31,21.58-.13,1.15-.27,2.29-.42,3.42.76.89,1.63,1.67,2.64,2.32,3.12-4.21,2.67-13.9,1.98-20.32-.45-4.19-1.25-8.87-2.89-12.97.02,1.99.02,3.98,0,5.97Z"/>
      <path class="cls-3" d="m142.02,227.65c-1.52-1.62-3.01-3.26-4.47-4.92-5.69-3.34-12.79-6.09-16.71-6,1.6,7.32,8.64,13.57,14.23,18.72,1.78,1.64,4.2,3.33,6.35,4.91,6.65,4.88,14.33,8.97,21.74,9.34.07-.76.04-1.5-.06-2.24-7.68-6.4-14.68-12.99-21.08-19.81Z"/>
      <path class="cls-3" d="m170.27,247.46c-.1.74-.13,1.49-.06,2.24,7.42-.37,15.09-4.46,21.75-9.34,2.15-1.58,4.57-3.27,6.35-4.91,5.59-5.15,12.63-11.4,14.23-18.72-3.91-.09-11.02,2.66-16.71,6-1.46,1.65-2.95,3.29-4.47,4.92-6.4,6.82-13.4,13.42-21.08,19.81Z"/>
      <path class="cls-3" d="m83.36,106.15c-3.04,3.39-4.99,7.32-5.61,11.92,2.5.26,4.7-.35,7.35-1.99-.09-.47-.2-.95-.29-1.42-.54-2.81-1.02-5.64-1.45-8.51Z"/>
      <path class="cls-3" d="m65.72,145.34c2.63-4.76-.53-17.08-3.77-24.81-4.14-9.88-7.5-14.88-13.68-19.71-1.71,3.13-.79,11.51,1.92,20.01,4.41,13.8,10.01,21.32,15.53,24.51Z"/>
      <path class="cls-3" d="m110.95,246.85c1.67,1.19,3.36,2.31,5.05,3.38,12.53-1.04,21.17-4.69,22.55-6.99-2.05-3.07-9.34-5.31-22.93-5.47l-6.03,8.09c.45.33.91.67,1.36.99Z"/>
      <path class="cls-3" d="m71.12,220.64c-3.88.12-7.7.58-11.45,2.17,1.76,2.77,4.7,4.55,9.64,6.55,2.64,1.07,5.72,2.08,9.06,2.86-1.24-1.75-2.46-3.56-3.64-5.45-1.26-2-2.45-4.05-3.6-6.14Z"/>
      <path class="cls-3" d="m88.68,244.71c-.38-.4-.75-.81-1.12-1.22-.84.57-1.65,1.2-2.42,1.89.48.49,1.01.93,1.56,1.33l2-1.99-.02-.02Z"/>
      <path class="cls-3" d="m244.68,244.73l2,1.99c.55-.4,1.08-.84,1.56-1.33-.77-.69-1.58-1.32-2.42-1.89-.38.4-.74.82-1.12,1.22l-.02.02Z"/>
      <path class="cls-3" d="m135.18,259.55c1.59.55,3.19,1.04,4.77,1.49,1.17-.18,2.33-.38,3.45-.61,1.06-.22,2.22-.52,3.43-.88,3.86-2.88,8.36-4.95,13.26-5.93.89-.61,1.62-1.21,2.11-1.78-3.17-3.1-11.65-5.21-27.14-2.6-4.88.82-9.67,1.68-14.36,3.78,1.63.91,3.26,1.77,4.88,2.57,3.16,1.56,6.37,2.86,9.6,3.97Z"/>
      <path class="cls-3" d="m189.96,260.43c1.13.23,2.28.43,3.46.61,1.59-.45,3.18-.94,4.78-1.49,3.23-1.11,6.44-2.42,9.6-3.97,1.61-.8,3.25-1.66,4.88-2.57-4.69-2.1-9.48-2.96-14.36-3.78-15.49-2.6-23.97-.49-27.14,2.6.49.57,1.22,1.17,2.11,1.78,4.89.99,9.4,3.05,13.26,5.93,1.21.36,2.37.67,3.42.88Z"/>
      <path class="cls-3" d="m271.84,173.13c-7.9,6.21-14.79,13.96-15.06,19.3,7.64-.46,14-3.6,23.19-11.49,7.12-6.12,14.11-13.92,13.89-18.67-8.92,1.41-14.4,4.88-22.01,10.87Z"/>
      <path class="cls-3" d="m255.02,232.23c3.34-.79,6.42-1.79,9.06-2.86,4.93-2,7.87-3.78,9.64-6.55-3.76-1.59-7.57-2.05-11.45-2.17-1.15,2.08-2.34,4.13-3.6,6.14-1.18,1.89-2.4,3.7-3.64,5.45Z"/>
      <path class="cls-3" d="m275.96,192c-5.09-.66-16.77,4.22-25.1,9.81-3.26,2.19-6.44,4.27-9.12,6.98l6.67,9.24c3.96-1.86,8.36-4.76,13.17-8.8,8.53-7.16,13.91-13.58,14.38-17.24Z"/>
      <path class="cls-1" d="m261.51,218.4h-12.84l-7.35-10.18-1.09-1.51-.89,1.63c-1.39,2.55-2.9,5.01-4.51,7.37-1.61,2.35-3.31,4.6-5.12,6.76-1.88,2.25-3.87,4.39-5.96,6.41-2.09,2.03-4.29,3.95-6.59,5.78l-1.07.85,7.71,10.34c-.45.33-.91.67-1.36.99-4.81,3.44-9.79,6.34-14.64,8.73-3.16,1.56-6.37,2.86-9.6,3.97-2.9.99-5.79,1.82-8.64,2.52-5.96-5.64-14.01-9.11-22.86-9.11s-16.9,3.47-22.86,9.11c-2.86-.7-5.75-1.52-8.64-2.52-3.23-1.11-6.45-2.42-9.6-3.97-4.84-2.39-9.83-5.29-14.64-8.73-.45-.33-.91-.66-1.36-.99l7.71-10.34-1.07-.85c-2.3-1.83-4.5-3.76-6.59-5.78-2.09-2.03-4.08-4.16-5.96-6.41-1.81-2.15-3.52-4.41-5.12-6.76-1.61-2.37-3.12-4.82-4.51-7.37l-.89-1.63-1.09,1.51-7.35,10.18h-14.82l.95,1.74c1.24,2.26,2.53,4.47,3.89,6.64,1.37,2.19,2.78,4.28,4.24,6.28,1.5,2.06,3.06,4.07,4.69,6.01,1.61,1.93,3.29,3.81,5.04,5.64l.02.02-8.42,8.38-.84.83.84.83c5.89,5.88,11.97,10.94,18.36,15.29,6.39,4.35,13.09,7.97,20.23,10.99,3.38,1.43,6.94,2.77,10.58,3.95,1.31.42,2.63.82,3.96,1.21,0,0,0,.01,0,.02,0,9.19,3.73,17.51,9.75,23.53s14.34,9.75,23.53,9.75,17.51-3.73,23.53-9.75,9.75-14.34,9.75-23.53c0,0,0-.01,0-.02,1.33-.38,2.65-.78,3.96-1.21,3.64-1.18,7.2-2.52,10.58-3.95,7.14-3.02,13.84-6.65,20.23-10.99,6.39-4.35,12.47-9.41,18.36-15.29l.84-.83-.84-.83-8.42-8.38.02-.02c1.74-1.82,3.42-3.7,5.04-5.64,1.62-1.94,3.19-3.95,4.69-6.01,1.45-2,2.86-4.09,4.24-6.28,1.36-2.17,2.65-4.38,3.89-6.64l.95-1.74h-1.98Z"/>
      <path class="cls-1" d="m164.35,248.5c-8.18-6.72-15.58-13.67-22.32-20.85-6.75-7.19-12.87-14.66-18.46-22.42-3.3-4.57-6.41-9.3-9.35-14.14-3.1-5.1-5.92-10.18-8.49-15.21-3.6-7.07-6.81-14.29-9.65-21.71-2.83-7.4-5.29-14.99-7.41-22.82-1.5-5.54-2.78-11.06-3.86-16.69-1.07-5.62-1.93-11.32-2.6-17.23-.79-7.01-1.21-14.22-1.31-21.58-.1-7.35.12-14.75.63-22.16l.22-3.28,3.29-.16c7.74-.37,14.3-1,20.36-2.05,5.95-1.03,11.41-2.47,17.03-4.47,7.85-2.8,15.12-6.04,21.98-9.99,6.85-3.95,13.39-8.66,19.79-14.42l2.47-2.22,2.47,2.22c6.4,5.76,12.94,10.47,19.79,14.42,6.86,3.95,14.13,7.19,21.98,9.99,5.62,2.01,11.08,3.45,17.03,4.47,6.06,1.04,12.62,1.68,20.36,2.05l3.29.16.22,3.28c.5,7.42.73,14.81.63,22.16-.1,7.36-.52,14.56-1.31,21.58-.66,5.9-1.53,11.61-2.6,17.23-1.08,5.63-2.36,11.16-3.86,16.69-2.12,7.83-4.58,15.43-7.41,22.82-2.84,7.42-6.04,14.65-9.64,21.71-2.57,5.03-5.39,10.12-8.49,15.21-2.94,4.84-6.06,9.57-9.35,14.14-5.59,7.75-11.71,15.22-18.46,22.42-6.74,7.19-14.15,14.13-22.32,20.85l-2.34,1.92-2.34-1.92Z"/>
      <path class="cls-3" d="m156.74,290.48c-1.16-.1-2.33-.21-3.5-.34-4.23-.47-8.51-1.17-12.64-2.08l-4.94,8.43c1.41,4.26,3.67,8.14,6.58,11.42l11.96-.16,6.55-10.59-4.01-6.68Z"/>
      <path class="cls-3" d="m166.69,297.37h-5.6l-6.55,10.59,6.65,10.48c1.79.3,3.62.46,5.5.46s3.71-.16,5.5-.46l6.65-10.48-6.55-10.59h-5.6Z"/>
      <path class="cls-3" d="m166.69,264.87c3.95,0,7.66-.22,11.27-.66.27-.03.53-.06.8-.1l-5.83-9.96c-2.02-.39-4.11-.59-6.24-.59s-4.22.2-6.24.59l-5.83,9.96c.27.03.53.07.8.1,3.62.43,7.33.66,11.27.66Z"/>
      <path class="cls-3" d="m192.78,288.06c-4.13.91-8.41,1.6-12.64,2.08-1.17.13-2.34.25-3.5.34l-4.01,6.68,6.55,10.59,11.96.16c2.91-3.28,5.17-7.16,6.58-11.42l-4.94-8.43Z"/>
      <path class="cls-3" d="m248.08,219.58l-7.71-10.67c-2.84,5.2-6.1,9.96-9.76,14.33-3.82,4.55-8.07,8.66-12.72,12.36l17.58-.03,8.38,8.34c3.44-3.6,6.65-7.44,9.62-11.53,2.93-4.02,5.58-8.29,8.04-12.8h-13.43Z"/>
      <path class="cls-3" d="m208.32,256.63c-6.43,3.17-13.05,5.3-19.49,6.83-7.12,1.68-14.11,2.58-22.14,2.58-8.03,0-15.02-.9-22.14-2.58-6.44-1.52-13.06-3.66-19.49-6.83-9.26-4.57-19.04-11.01-27.16-19.4l-16.79,16.71c11.69,11.67,24.08,20.06,38.22,26.04,6.48,2.74,13.69,5.16,20.95,6.8,8.69,1.97,18.14,2.95,26.41,2.96,8.28,0,17.72-.99,26.42-2.96,7.25-1.64,14.47-4.06,20.95-6.8,14.14-5.98,26.53-14.37,38.22-26.04l-16.79-16.71c-8.12,8.39-17.9,14.83-27.16,19.4Z"/>
      <path class="cls-3" d="m97.92,235.56l17.58.03c-4.66-3.7-8.91-7.81-12.72-12.36-3.66-4.36-6.92-9.13-9.76-14.33l-7.71,10.67h-13.43c2.46,4.51,5.12,8.77,8.04,12.8,2.97,4.09,6.18,7.93,9.63,11.53l8.38-8.34Z"/>
      <path class="cls-3" d="m166.69,245.65c-16.06-13.2-29.16-27.36-40.13-42.57-6.63-9.2-12.47-18.94-17.54-28.88-7.1-13.92-12.61-28.42-16.78-43.81-2.96-10.94-5.05-21.76-6.35-33.37-1.56-13.9-1.67-28.32-.67-43.09,15.83-.76,26.84-2.57,38.47-6.72,16-5.71,29.85-13.32,43-25.14,13.15,11.82,26.99,19.43,43,25.14,11.63,4.15,22.63,5.96,38.47,6.72,1,14.77.89,29.19-.67,43.09-1.3,11.61-3.39,22.44-6.35,33.37-4.17,15.39-9.68,29.89-16.78,43.81-5.07,9.94-10.91,19.68-17.54,28.88-10.96,15.21-24.07,29.37-40.13,42.57Z"/>
      <path class="cls-2" d="m233.62,254.86c-1.41-2.14-3.3-3.44-5.67-3.93-2.37-.48-4.67.08-6.89,1.68-2.17,1.31-3.51,3.16-4.02,5.54-.51,2.38-.06,4.64,1.35,6.78,1.26,1.9,2.9,3.18,4.93,3.83,2.57.83,5.15.38,7.73-1.32,2.57-1.7,3.96-3.94,4.16-6.71.15-2.09-.38-4.05-1.59-5.87Zm-1.66,10.07c-.26.67-.75,1.25-1.47,1.73-1.08.71-2.19.86-3.33.43-1.63-.61-3.26-2.14-4.88-4.59-1.36-2.07-2.13-3.84-2.3-5.3-.2-1.8.35-3.13,1.66-4,.71-.47,1.47-.69,2.27-.66.81.03,1.7.4,2.67,1.11.98.71,2.09,2.02,3.35,3.92,1.05,1.6,1.74,3.01,2.05,4.23.31,1.23.3,2.27-.01,3.13Z"/>
      <path class="cls-2" d="m170.5,285.01l-3.92-5.99c1.06-.22,1.88-.59,2.49-1.09.94-.8,1.44-1.83,1.49-3.1.04-1.04-.23-1.96-.81-2.76-.58-.8-1.35-1.36-2.3-1.68-.95-.32-2.47-.52-4.55-.6l-7.98-.29-.02.47c.79.03,1.32.12,1.6.28.28.15.48.35.58.6.1.25.14.83.1,1.77l-.41,11.18c-.03.93-.11,1.51-.23,1.75-.13.24-.33.42-.62.55-.29.14-.83.2-1.63.17l-.02.47,8.8.32.02-.47c-.79-.03-1.32-.12-1.6-.28-.28-.15-.47-.36-.58-.6-.1-.24-.14-.83-.1-1.76l.18-4.83,1.13.04,5.25,8.06,5.41.2.02-.47c-.46-.04-.85-.2-1.19-.48-.22-.2-.59-.68-1.1-1.45Zm-4.7-8.12c-.35.55-.83.93-1.42,1.12-.59.2-1.47.27-2.65.23l-.72-.03.28-7.55,1.35.05c1.36.05,2.34.4,2.92,1.05.59.65.86,1.63.81,2.94-.03.91-.23,1.63-.58,2.19Z"/>
      <path class="cls-2" d="m185.79,283.47c-.86.87-2.08,1.41-3.68,1.63l-1.02.14c-.49.07-.85.05-1.08-.06-.24-.1-.41-.25-.52-.46-.11-.2-.23-.77-.35-1.71l-.65-4.81c.81-.11,1.45-.09,1.9.07.46.16.89.52,1.3,1.1.41.58.72,1.35.96,2.31l.48-.06-1.21-8.95-.48.06c.04,1.34-.13,2.39-.52,3.14-.4.75-1.13,1.19-2.21,1.34l-.34.05-.94-6.96,1.76-.24c1.29-.17,2.18-.22,2.67-.13.84.14,1.51.45,2.03.93.51.48.97,1.32,1.38,2.52l.48-.06-.68-5.05-14.26,1.93.06.47.57-.08c.55-.08,1-.02,1.36.18.25.13.43.34.56.62.07.17.15.64.26,1.41l1.52,11.24c.12.86.14,1.4.07,1.61-.08.3-.22.53-.42.67-.28.22-.66.36-1.16.43l-.57.08.06.46,14.73-1.99.03-5.54-.46.06c-.22,1.57-.75,2.79-1.61,3.66Z"/>
      <path class="cls-2" d="m203.7,274.36c.13,1.4-.03,2.59-.49,3.58-.46.99-1.13,1.78-2,2.36-.54.37-1.54.77-3.02,1.21l-3.13.94,4.98-18.5-13,3.91,1.01,4.97.45-.13c-.05-.85,0-1.58.18-2.2.17-.62.46-1.16.86-1.62.4-.46.87-.83,1.41-1.11.28-.15.89-.36,1.84-.65l2.44-.73-4.99,18.53,15.08-4.54-1.13-6.17-.47.14Z"/>
      <path class="cls-2" d="m113.92,269.49c-.58-.02-1.09.17-1.51.57-.43.4-.65.89-.67,1.48-.02.59.16,1.09.56,1.52.39.43.88.65,1.46.67.58.02,1.09-.17,1.52-.56.43-.4.65-.88.67-1.47.02-.58-.16-1.09-.56-1.52-.4-.43-.89-.65-1.48-.67Z"/>
      <path class="cls-2" d="m218.63,267.42c.33,1.36.34,2.57.03,3.62-.31,1.05-.86,1.92-1.65,2.62-.48.44-1.42.98-2.82,1.63l-2.96,1.38,2.28-19.02-12.31,5.74,1.71,4.77.42-.2c-.17-.83-.22-1.57-.14-2.21.08-.64.29-1.21.62-1.73.33-.52.75-.95,1.24-1.3.26-.19.83-.49,1.73-.91l2.31-1.08-2.28,19.05,14.27-6.65-2-5.94-.45.21Z"/>
      <path class="cls-2" d="m118.38,257.3l.3.19.25-.4-5.01-3.2-.25.4c.59.38.99.74,1.2,1.11.14.24.18.54.14.9-.04.36-.27.87-.68,1.53l-3.78,5.93c-.98,1.54-1.81,2.54-2.48,2.99-.67.45-1.39.67-2.17.67-.78,0-1.56-.25-2.34-.75-.69-.44-1.16-.94-1.43-1.5-.27-.57-.37-1.12-.3-1.67.07-.55.52-1.47,1.35-2.78l4.54-7.12c.53-.83.91-1.32,1.13-1.47.22-.15.47-.22.76-.2.29.02.71.21,1.27.56l.37.24.25-.4-7.48-4.77-.25.4c.62.38,1,.71,1.15.97.15.27.21.53.17.79-.04.26-.32.81-.86,1.65l-4.54,7.12c-.77,1.21-1.19,2.29-1.26,3.25-.07.96.22,1.97.86,3.02.47.77,1.33,1.56,2.59,2.36,1.5.96,2.9,1.4,4.17,1.32,1.27-.08,2.27-.43,2.97-1.04.71-.62,1.61-1.78,2.69-3.49l3.52-5.52c.38-.59.69-.97.93-1.14.33-.25.68-.37,1.06-.36.37,0,.77.14,1.17.4Z"/>
      <path class="cls-2" d="m152.35,285.46c-.3-.42-.59-1.34-.89-2.78l-3.05-15.14-.24-.05-8.93,12.14c-.85,1.16-1.51,1.91-1.99,2.23-.47.33-1.03.47-1.65.43l-.1.46,5.59,1.21.1-.46c-.86-.26-1.39-.47-1.58-.66-.33-.3-.45-.69-.34-1.17.08-.36.29-.78.64-1.28l1.06-1.49,5.93,1.29.44,2.29c.11.6.17.93.17,1.01.02.17,0,.33-.02.47-.05.25-.19.42-.4.51-.3.13-.78.12-1.43-.02l-.33-.07-.1.46,8.13,1.76.1-.46c-.5-.15-.87-.39-1.1-.71Zm-10.75-7.37l3.84-5.24,1.24,6.35-5.08-1.1Z"/>
      <path class="cls-2" d="m127.65,268.24c-1.04-1.22-1.69-2.04-1.94-2.45-.34-.57-.55-1.09-.61-1.55-.05-.34,0-.69.15-1.04.24-.55.68-.95,1.33-1.17.64-.23,1.36-.17,2.15.17,1.03.44,1.8,1.25,2.34,2.44.53,1.19.63,2.49.28,3.91l.48.21,2.14-5.34-.35-.15c-.3.43-.54.68-.71.76-.17.07-.35.07-.56-.02-.21-.09-.52-.38-.94-.85-.41-.48-.78-.84-1.11-1.09-.43-.33-.9-.6-1.41-.82-1.4-.6-2.76-.66-4.07-.17-1.3.49-2.23,1.37-2.77,2.63-.32.74-.44,1.49-.37,2.25.07.76.32,1.52.73,2.29.41.77,1.19,1.82,2.32,3.14.81.95,1.34,1.66,1.61,2.15.27.49.42.95.47,1.38.05.44,0,.84-.17,1.22-.27.63-.77,1.07-1.49,1.33-.72.25-1.52.19-2.39-.18-1.12-.48-1.98-1.38-2.58-2.68-.6-1.31-.7-2.87-.32-4.7l-.43-.18-2.57,5.98.43.18c.28-.26.56-.42.86-.48.29-.06.54-.04.74.04.24.1.51.31.82.63.55.57,1.02,1,1.42,1.29.4.29.85.54,1.35.76,1.58.68,3.1.76,4.54.25,1.43-.51,2.44-1.43,3.01-2.75.45-1.05.53-2.11.24-3.19-.3-1.09-1.17-2.48-2.63-4.19Z"/>
      <path class="cls-2" d="m132.95,277.56c-.58-.02-1.09.17-1.51.56-.43.4-.65.89-.67,1.48-.02.59.16,1.09.56,1.51.39.43.88.65,1.47.67.58.02,1.09-.16,1.52-.56.43-.4.65-.88.67-1.47.02-.59-.16-1.09-.56-1.52-.39-.43-.89-.65-1.48-.67Z"/>
      <path class="cls-1" d="m149.11,124.49c-.15.23-.33.44-.46.68-.31.59-.89.84-1.22,1.21-.39.44-.7.91-1.1,1.35-.63.7-1.11,1.04-1.79,1.7-1.29,1.25-1.49,1.83-2.3,2.79-.29.34-.58.66-.87,1.01-.43.52-.76,1.32-1.16,1.7-.3.28-.58.51-.86.82-.38.43-.39.93-.72,1.4-.3.42-.69.71-.98,1.15-.41.61-.65,1.13-.96,1.95-.35.95-.69.98-.99,1.42-.27.4-.24,1.18-.47,1.61-.38.7-.64,1.21-.88,1.49-.48.56-.57.08-.58-.53,0-.4-.12-.68-.12-1.25-.01-1.27.45-2.19.43-2.88,0-.21-.01-.53-.02-.74,0-.6.26-1.24.28-1.79.04-1.47.16-3.39.14-5.15,0-.62-.27-.65-.24-1.72.02-.69-.4-1.37-.68-2.23-.55-1.68-1.09-3.4-1.87-5.07-.43-.92-.91-1.61-1.34-2.68-.31-.76-1.1-1.28-1.62-1.76-.31-.28-.4-.67-.69-.97-.35-.37-.77-.73-1.11-1.1-.31-.32-.56-.64-.87-.94-.18-.18-.46-.26-.65-.43-.18-.16-.26-.4-.44-.54-.3-.24-.71-.4-1.03-.6-.47-.29-.83-.8-1.25-1.21-.31-.31-.68-.55-1.03-.78-.7-.47-.73-1.18-.75-2.16-.02-1-.91-1.19-.93.5-.01,1.03.37,2.76-.99,1.86-.48-.32-1.84-1.25-2.56-2.02-.46-.5-1.85-2.36-2.54-3.54-.47-.8-.97-1.33-1.13-2.09-.26-1.21-.45-2.36-.73-2.93-.39-.8.17-2.04.68-3.11.3-.63.18-.59-.23-.61-.55-.03-.98.27-1.88,1.19-.4.4-.86.56-1.17-.16-.08-.18-.25-.5-.31-.86-.09-.47-.29-.67-1.12-1.27-.02.3-.02,1.06-.07,1.79-.04.64-.16,1.27-.46,1.68-.49.67-.42,1.32-.47,1.96-.07.94-.38.85-.37,2.08,0,.4.03.82.02,1.3,0,.17-.06.37-.05.56,0,.36.2.58.69,1.16.39.46,1.03.95,1.03,2.1,0,.22-.16.8.13,1.68.22.67.56,1.41,1.53,2.37.21.21.36.4.61.64.3.29.72.62,1.03.88.52.43,1.52.78,2.2,1.31.53.41,1.02.84,1.47,1.24.63.56.82,1.24,1.1,2.08.15.44.33.71.52,1.01.21.34-.08.55-.37.8-.13.11-.63.56-1.24-.31-.11-.15-.34-.56-.51-.86-.19-.33-.35-.56-.82-.55-.22,0-.68.11-.49,1.09.08.4.25.78-.13,1.37-.86,1.34-1.37,1.65-1.37,2.72,0,.28.15.83.69,1.62.64.93,1.24,1.58,1.46,1.88.12.17.17.29.16.95-.01,1.14-.02,4.42.51,5.51.52,1.08,1.13,1.87,1.83,2.59.41.43.3.83.63,1.28.29.4.31.51.31.75,0,.47-.48.6-1.1.83-1.36.51-1.17.53-1.62,1.42-.28.56-.55.9-.59,2.03-.02.37-.1.54.61,1.12.37.31,1.13.78,1.76,1.3.26.21.58.33.88.55.34.25.66.62,1.04.99.45.43.93.98,1.44,1.74.6.9.86,1.7,1,2.14.13.43.2.83-.18,1.18-.26.24-1,.17-1.68-.03-.5-.15-1.04-.56-1.58-.54-.19,0-.48.15-.66.25-.33.18-.44.41.07.77.33.23,1.41.66,1.91,1.15.5.49,1.06,1.14,1.73,1.73.44.4.78,1.49,1.28,1.91.32.27.65.61.99.92.57.53,1.24,1.11,1.89,1.52.77.49,1.64.92,2.39,1.17.47.15.64.35,1.12.47,1.03.24,2.3.31,3.92.35.78.02,1.15-.21,1.84-.44.3-.09.41-.11.75.38.55.79.98,1.74,1.43,2.7.39.84.98,1.55,1.57,2.31.32.41.53.93.91,1.22.59.46,1.21,1.12,1.8,1.99.3.45.67.64,1.01,1.04.23.27.53.7.88.97.34.26.72.37,1.01.59.46.36.93.76,1.42,1.17.44.37.6.47,1.7.83.5.16.97.5,1.56.79.4.2.9.35,1.31.53,1.74.76,2.4,1.41,2.94,2.72.12.28.22.81.23,1.31.01.61-.16,1.12-.38,1.67-.16.4-.12,1.31-.38,2.12-.26.81-.66,1.45-.69,2.32-.02.46.07.98.33,1.64.18.45.6,1.46.61,2.06.01.57.3,1.05.64,1.52.63.89,1.43,2.16,2.26,3.21.96,1.22.35,1.15,1.84,2.41.45.38.68.83,1.09,1.19.39.34.95.61,1.31.94.17.16.35.38.51.54.29.29.29.56.53.86.31.38.84.78,1.13,1.15.37.49.61,1.02,1,1.48.17.2.38.41.51.63.12.2.16.41.25.62.2.47.52.94.71,1.47.27.75.34,1.36.68,2.09.28.62.47,2.07.46,2.95,0,.74-.16.98-.15,1.68.04,1.61.11,4.22.13,5.89,0,.42.15.6.52,1.04.5.6,1.31,1.59,1.8,2.26.25.33.36.33.96.32,1.02-.02,1.84.3,3.09.5,1.4.23,2.7.54,3.43.52.54-.01,1.4.22,1.81.2.17,0,.59-.1.82-.17.29-.1.33-.21-.05-.72-1.03-1.38-.58-1.46-1.1-2.31-.34-.54-.46-1.29-.62-2.04-.15-.71-.62-1.53-1.04-2.11-.3-.41-.89-1.26-1.28-1.72-.46-.55-.5-1.01-.31-1.45.13-.3.65-.12,1.45.11,1.08.31,1.81-.24.67-1.06-.36-.25-.63-.87-.95-1.48-.45-.88-.92-2.61-1.34-3.65-.21-.52-.57-.58-.69-1.17-.13-.64-.49-1.04-.79-1.73-.52-1.2-1.03-2.07-1.57-2.54-.35-.3-.61-.66-.99-1.14-.37-.46-.87-.98-1.15-1.46-.45-.79-1.05-1.25-1.66-1.91-.66-.72-.61-.95-.95-1.43-.39-.54-.53-.41-1.08-1.81-.15-.37-.44-.71-.46-1.16-.01-.29-.13-.53-.21-.8-.13-.45-.34-.97-.37-1.48-.03-.48,0-.83-.24-1.08-.54-.57-.15-.82-.18-1.34-.03-.74-.2-.98-.31-2.08-.12-1.24-.29-1.73.06-3.19.15-.63.38-.77,1.1-.77.65,0,1.11.51,2.17.5.45,0,.97-.22,1.44-.26.69-.07,1.27-.35,1.81-.61.94-.46,2.06-1.05,3.07-1.76.87-.61,1.22-1.23,2.11-1.91.46-.36.94-.72,1.42-1.09.41-.32,1.13-.5,1.8-1.11.21-.19.42-.39.63-.58.26-.25.62-.44.87-.68.9-.85.65-1.53,1.88-2.43.24-.17.65-.43.87-.43.65-.01.61.85.63,1.83,0,.68-.08,1.48-.22,2.35-.15.93-.91,2.11.52,2.32,1,.15,2.48.38,3.53.95.92.5,1.58.44,2.4.92.38.23,1.08.71,1.45.84.5.19.78.19,1.04-.45.27-.65.19-3.05.21-4.65,0-.62-.16-1.35-.43-2.07-.29-.75-.45-1.39-.66-1.81-.25-.5-.18-.75.16-1.14.69-.78.65-.82.71-3.02.02-.71-.77-1.62-1.2-2.1-.38-.42-.9-.89-1.44-1.31-.31-.24-.58-.49-.94-.63-.82-.31-1.41-.37-2.63-.02-1.22.34-2.51.67-3.79,1.66-.71.55-1.48,1.19-2.18,1.63-1.43.91-1.67.51-2.99,1.39-.28.18-.94.5-1.71.97-.46.28-.76.54-1.2.75-.43.22-.99.4-1.44.54-.3.1-.52.39-.82.04-.38-.44-.26-.9.13-1.23.59-.5.65-1.95.7-2.63.08-1.09.14-2.62.18-3.91.03-1.06.45-.67.39-1.64-.05-.75-.29-1.86-.07-3.03.2-1.02.76-2.86.76-3.8,0-.96.46-1.73.73-2.66.25-.87.5-2,.92-2.84.26-.52.65-1.06.94-1.6.31-.57.53-1.15.9-1.65.58-.77,1.26-1.79,1.92-2.49.9-.96,1.85-1.81,2.76-2.58,1.74-1.47,2.41-2.84,3.91-4.05.76-.71,1.6-1.3,2.23-1.84.43-.36.72-.71,1-1.02.27-.3.79-.56,1.16-.96.43-.46.37-.86.95-1.29.75-.56,1.56-1.6,2.53-3,.26-.38.83-1.13,1.4-1.75.23-.25.24-.48.45-.72.27-.32.59-.68.74-.84l.91-1.01c.19-.21.18-.37.4-.63.42-.49.93-1.05,1.34-1.61.37-.51.66-1.03,1.03-1.47.17-.21.31-.37.48-.57.26-.31.34-.67.59-.98,1.21-1.54,2.57-3.55,3.88-5.04.35-.4.52-.95.86-1.37.26-.33.69-.54.97-.83.65-.71,1.24-1.66,1.89-2.34.54-.56,1.16-.86,1.71-1.42.37-.38.76-.72,1.12-1.11.47-.5.68-1.02,1.14-1.56.47-.54,1.23-1.13,1.84-1.65.27-.23.54-.42.83-.62.3-.21.34-.17.64.04.22.15.39.77.66.98.67.52,1.03,1.45,1.05,2.31.02.76-.19,1.54-1.13,2.14-.91.58-1.9.45-2.7,1.66-.27.42-.34.33-.04,1.23.29.88.86,1.92,1.35,2.92.48.97.83,1.92,1.54,2.58.47.43,1.45,1.48,1.99,1.68.68.26,1.02.41,1.79-.46.27-.31.47-.76.76-1.12.21-.26.54-.55.69-.95.13-.34.19-.71.3-.99.2-.52.49-.87.64-1.23.18-.43.23-.95.41-1.15.35-.4.45-.37.75-.19.25.14.46.4.01.99-.33.43-.31,1.06-.49,1.69-.36,1.25-.75,2.6-1.22,3.72-.19.47-.37.84-.37,1.28,0,.39.22.84.41,1.39.17.5.33,1.05.61,1.62.22.44.53.78.94,1.22.38.4.56.83.9,1.23.47.55,1.34,1.06,1.77,1.5.53.54,1.11,1.12,1.42,1.34.35.24.5.57.89-.88.19-.71.44-1.32.71-1.88.57-1.18,1.19-1.08,1.42-2.99.19-1.61.66-2.66.62-4.08,0-.4-.21-.88.25-1.18.51-.33,1.29-.02,1.77-.84.36-.61,1.06-1.12,1.06-1.93,0-1.01-.18-2.2-.58-3.21-.33-.85-.77-1.76-1.2-2.71-.24-.52-.41-1-.67-1.55-.2-.45-.61-.79-.84-1.26-.15-.31-.16-.81-.3-1.13-.25-.56-.37-1.14-.74-1.73-.28-.44-.49-1.16-.76-1.45-.49-.53-.85-1.93-1.1-2.64-.52-1.44-1.14-3.37-1.89-4.08-1.15-1.08-2.11-2.53-4.7-2.54-1.42,0-2.13.44-2.71.43-.71,0-1.01-.34-1.25-.93-.15-.37-.19-.85-.56-1.37-.94-1.3-2.45-2.7-4.52-2.7-.67,0-.85.33-1.79.44-.68.08-1.31.43-1.96.76-1.14.58-2.64,1.21-3.28,1.69-1.1.84-1.68,1.25-3.59,1.84-.23.07-.53.12-.74.12-.67-.02-1.11-.39-1.87-.45-1.15-.09-1-.47-3.64-.5-.89-.01-1.69.12-2.26-.76-.67-1.03-.46-1.73-1.1-2.09-.89-.5-1.21-.9-2.44-.77-1.34.14-2.5-.11-2.99-1.05-.4-.75-.52-1.49-1.16-2.19-.33-.36-.53-.81-.9-1.15-.6-.54-.92-.57-2.11-.94-1.59-.49-1.34-.71-1.98-1.15-.43-.3-.84-.32-1.31-.75-.92-.84-1.68-1.32-2.05-1.68-.61-.58-1.16-1.13-1.65-1.65-.51-.54-1.8-1.13-2.62-1.58-.99-.55-1.71-1.04-2.2-1.46-.81-.71-.63-1.77-.18-2.5.29-.46.76-.97,2.12-1.04.64-.03,1.19,0,2.09-.57.6-.38,1.19-.39,1.99-.81.76-.4,1.69-.79,2.52-1.09,1.13-.4,1.88-1.33,3.92-1.27,1.66.05,3.34.32,4.58-.44.77-.47,1.3-.62,1.3-1.7,0-.58-.27-1.34-.98-2.59-.19-.33-.7-.7.02-1.43.33-.34.73-1.12,1.36-1.77.48-.49.41-1.06.4-1.82,0-.49-.26-.37-.27-1.57,0-.44.06-.72-.56-1.15-.47-.33-.6-.74-1.42-.74-1.39,0-2.8.54-4.19.53-1.41,0-3.74.18-5.02.17-1.27-.02-2.05-.16-2.95-.54-.77-.33-1.07-1.07-2-1.83-.21-.17-.46-.37-.7-.56-.26-.21-.37-.21-1.65-.03-.39.05-1.23.08-1.67.08-.56,0-.81-.06-1.11-.48-.5-.7-.4-1.51-1.54-1.72-1.13-.21-1.59-.15-3.02.96-.5.39-1.13.76-1.72.96-.71.24-.97.45-2.08-.16-.42-.23-1.16-.78-1.6-1.46-.22-.34-.76-.37-1.01,0-.16.24-.38.62-.49,1.01-.1.36-.1.67-.12,1.03-.04.62-.07,1.25-.07,1.54,0,.31.03.65.16,1.03.14.4.18.87-.02,1.45-.31.89-.7.65-1.7.38-.51-.14-1.42-.23-2.18-.39-1.07-.22-1.5-.48-2.32-.49-.63,0-1.17-.22-1.62-.5-.25-.15-.53-.2-.74-.31-.47-.25-.78-.62-1.07-.8-.56-.35-.9.09-.61.83.16.4.48,1.2-.04,1.58-.53.38-1.56-.06-1.94-.06-.61,0-.6.67.07,1.5.25.31.24.51-.19.67-.11.04-.4.35-.92.36-.79.02-1.78-.09-2.12-.05-1.47.17-1.04.79-.36.93.33.07.6.32,1.32.3.45,0,1.12.16,1.56.75.33.45.71.61,0,1.04-.86.52-2.82,1.22-4.23,1.81-1.22.5-1.86,1-1.88,1.47-.01.25.28.63.72.64.67.02,1.43-.46,2.3-.47.69,0,1.09.41,1.54.57.46.17.89.27.43.55-1.03.64-3.11.88-3.68,1.37-.46.39-.22.69-.49,1.09-.34.51-.47.97-.44,1.59.02.41.19,1.43.2,2,.02.72-.27,1.17-.8,1.7-.52.51-.36.77-1.1,1.49-.3.3-.72,1.21-1.17,1.92-.25.39-.25.73-.21.97.07.39.39.53,1.07.19.58-.29.76-.99,1.18-1.2.86-.44,2.32-.64,2.64-.72.48-.12.96-.2.21.57-.44.45-.43.7-.7,1.21-.41.77-.94,1.75-1.35,2.84-.17.44-.22.48-.1,1.06.11.51.05.51.18,1.01.08.32.55.05,1.03-.16.5-.23.81-.44,1.43-.65.16-.05.34-.14.79.31.25.25.73.38.13.7-.43.23-1.09.65-1.47,1.42-.3.6-.62,1.28-.26,2.22.1.26.09.43.09.69-.01.63-.28.94-.28,1.78,0,.55-.37.98-.74,1.52-.25.37-.66,1.15-.49,1.36.17.21.45.3,1.11-.11.18-.11.76-.46,1.21-.66.82-.38.94-.42.62.42-.19.49-.41,1.15-.41,2.01,0,.15.03.45.02.68-.02.26-.08.45-.08.67,0,.49.29.73.59,1.16.64.92,1.19,1.92,1.52,3.23.1.39.24.74.31.99.14.51.35.61.87.09.22-.22.25-.5.4-.77.27-.5.69-.97,1.73-.95.71.01.81.03,1.17.5.11.15.39.43.52.61.18.27.16.47-.16.76-.42.4-.88.59-1.25.91-.24.2-.4.53-.63.75-.23.21-.44.45-.69.69-.22.22.17.35.57.39.41.05,1.08.12,1.59.58.29.26.41.66.96,1.16.19.18.1.4-.11.7-.21.3-.69.99-.98,2.16-.06.25.04,1.26,1.22.32.29-.23,1.03-.76,1.62-.76.4,0,.92.2,1.64.29.75.09,1.64.18,2.32.36.46.12,1,.39,1.55.91.41.39.49.25.76,2.53.06.49.06,1.12.07,1.58.03,1.09-.09,1.44-.3,1.82-.59,1.09-1.28,2.09-2.15,3.11-.25.29-.34.57-.56.89-.18.26-.48.56-.7.8-.51.57-.76,1.22-1.26,1.77-.26.28-.49.57-.78.87-.38.39-.8.77-.98,1.04Z"/>
      <path class="cls-3" d="m129.13,130.02c.02.72.67,1.29.65,2.25,0,.42-.01.87-.02,1.31,0,.53.36,1.54.35,2.29-.01,1.04.05,1.35.28,1.36.55.01.66-.35.7-.74.05-.44.3-.68.28-1.25,0-.29-.12-.32-.11-.7.02-.66.31-.93.3-1.63,0-.47-.3-1.05-.35-1.48-.03-.26-.25-.7-.4-.98-.15-.28-.11-.74-.31-1.01-.37-.52-.48-.54-.5-1.27-.02-.78-.24-1.09-.43-1.6-.23-.58-.57-.94-1.1-.45-.42.39-.11,1.07.18,1.82.72,1.9.46,1.38.48,2.07Z"/>
      <path class="cls-3" d="m172.95,217.54c-.32-.46-.89-1.35-1.17-1.85-.2-.36-.8-.74-1.21-.38-.75.65.25,1.64-.38,2.56-.45.66-.66.99-.64,1.71.03.8.59,1.41,2.48,1.52.37.02.97,0,1.42-.15.38-.12.57-.18.55-.67-.03-.72-.3-.95-.55-1.56-.21-.51-.37-1.04-.5-1.18Z"/>
      <path class="cls-3" d="m175.32,56.99c-.21,0-.34.14-.9.15-.52.01-.61-.15-.86-.15-.63,0-.46,1.24-.32,1.75.17.61.29.75.99.39.64-.33,1.03-.73,1.46-1.14.34-.33.28-.34.29-.56.01-.26-.55-.45-.66-.45Z"/>
      <path class="cls-3" d="m163.77,105.28c-.24-.49-.34-.82-.61-.62-.26.18-.19.71-.53,1.03-.39.37-.22.52-.29,1.1-.04.35-.02,1.08-.68,2.12-.08.13-.28.56-.35,1.21-.1.97-.18.78-1.02,1.91-.18.24-.83,1.2-1.05,1.63-.17.33-.35,1.06.59.6,1.02-.5,1.09-.64,1.53-1.14.36-.41.72-.84,1.05-1.27.26-.34.36-.89.59-1.37.22-.47.52-.53.65-1.26.33-1.9.7-2.72.11-3.94Z"/>
      <path class="cls-3" d="m183.47,57.59c.11-.55.26-.77-.19-.97-.34-.15-.94-.26-1.52-.12-.8.2-1.43.6-.96,1.26.24.33.54.66,1.38.66.73,0,1.12-.02,1.28-.83Z"/>
      <path class="cls-3" d="m186.08,124.15c.29-.61.61-1.17.6-1.69-.02-.98-.09-.89-.46-.89-.27,0-.33.31-.59.46-.32.19-.7.51-.92.9-.26.45-.66,1.31-.88,1.61-.24.32-.24.38-.21.85.03.51-.31,1.04-.54,1.37-.17.24-.31.52-.44.77-.24.46.04,1.34-.73,2.11-.39.39-.41,1.4-.41,2.06,0,.43.18.47.78-.06.33-.29.81-1.12,1.2-1.37.34-.22.42-.62.51-1.09.11-.52.33-.73.49-.95.32-.46.57-1.21.85-1.96.12-.33.27-.67.42-.99.17-.38.16-.77.33-1.13Z"/>
      <path class="cls-3" d="m165.55,157.98c0-.25.16-.67.17-1.29.02-.82-.31-1.67-.46-2.16-.06-.18-.35-.7-.57-1.11-.15-.28-.27-.47-.27-.63,0-.28.18-.52.18-.79,0-.39-.25-.58-.54-.95-.4-.52-.46-.42-.61.12-.11.4-.09,1.04.06,1.8.16.88.27,1.94.25,3.05-.01.78.09,1.97.09,3.22,0,.63-.23,1.01-.27,2.22-.03,1.04.1.73-.16,1.37-.24.59-.06,2.52.01,2.89.09.47.05,1.18.63.35.42-.6.89-2.87,1.15-3.77.72-2.56.3-2.58.33-4.3Z"/>
      <path class="cls-3" d="m168.51,205.39c-.37-.46-.76-.95-.87-1.12-.3-.46-.54-.97-.87-1.37-.17-.21-.59-.73-1.11-.37-.4.27,0,1.39.17,1.98.19.67.54,1.6,1.08,2.53.5.86,1.13.9,1.95.45.4-.22.44-.76.15-1.18-.2-.28-.29-.67-.5-.92Z"/>
      <path class="cls-3" d="m171.16,146.5c-.05-.29-.07-.67-.44-.46-.18.1-.43.47-.56.71-.39.73-1.1,1.39-1.27,1.8-.03.08-.24.53-.24.83,0,.37-.1.56-.2.68-.3.37-.2.72-.2,1.21,0,.38.11.68.2.95.12.35.2.42.53.42.3,0,.91-.12,1.39-.52.31-.26.46-.69.46-1.5,0-.47.26-.91.23-1.6-.03-.65.23-.23.23-.82,0-.34-.13-.55-.12-.83.01-.28.06-.4,0-.88Z"/>
      <path class="cls-3" d="m174.55,134.58c-.56.43-1.13,1-1.71,1.64-.32.36-.3.65-.81,1.14-.67.64-.6,1.14-1.35,1.79-.51.44-.6,1.35-1.22,1.99-.39.41-.72.64-1.04,1.29-.15.3-.41.64-.74.63-.51,0-.55-.58-.75-.99-.18-.37-.45.04-.47.59-.03.81-.08,1.94-.06,2.58.02.63.69.48,1.03.12.28-.29.61-.76.95-1.16.49-.56.8-.69,1.33-1.44.41-.59.96-1.39,1.46-2.18.34-.53.6-1.03.97-1.56.38-.54.82-1.02,1.26-1.47.34-.35.37-.73.65-1.05.44-.5.88-1,1.24-1.38.87-.93.12-1.22-.75-.54Z"/>
      <path class="cls-3" d="m222.25,94.67c-.56-.23-1.35-.52-1.84-.52-.55,0-1.06.27-1.31.5-.2.18-.13.48.1.84.21.33.86.67,1.51.81.63.14.8.15,1.12.31.29.15.28.22.51.22.22,0,.5-.11.7-.22.23-.12.34-.34.34-.79,0-.67-.51-.91-1.12-1.15Z"/>
      <path class="cls-3" d="m213.55,96.19c-.59,0-1.37.37-1.83.45-.52.09-.5.3-.86.49-1,.51-2.13,1.26-2.84,1.85-.3.25-.52.51-.28.9.26.43.74.17,1.25.04.62-.17,1.01-.22,1.72-.55.41-.19,1.01-.28,1.51-.31.41-.03.81-.29,1.16-.53.39-.27.73-.59.96-.97.69-1.13-.27-1.38-.78-1.38Z"/>
      <path class="cls-3" d="m188.39,170.29c.21-.11.65-.47.87-.92.13-.25.07-.53-.12-.79-.13-.19-.25-.38-.33-.52-.5-.84-.57-1.04-.94-.68-.34.33-.34,1.06-.33,1.62.01.5.23,1.02-.2,1.5-.45.5-.84.26-1.27.57-.66.46-.59.82-.25,1.39.23.39.67,1.14.66,2.49,0,.56-.02.9-.27,1.23-.36.46-.17.73.04,1.02.17.23.6.68,1.46,1.04.63.27.71.17,1.18-.36.25-.29.7-.92.22-1.94-.18-.38-.41-1.22-.58-2.08-.16-.8-.4-1.74-.56-2.45-.15-.68-.26-.73.42-1.1Z"/>
      <path class="cls-3" d="m228.36,120.67c0-.44-.06-.87-.26-1.09-.25-.26-.78-.2-1.29.28-.38.35-.79.87-1.19,1.23-.2.18-.42.36-.71.6-.38.31-.68,1.12-.35,1.53.65.8.96,1.15,1.63,1.61.63.43,1.27-.27,1.5-.53.51-.57.52-1.06.52-1.24,0-.93.35-.83.35-1.54,0-.22-.19-.36-.2-.84Z"/>
      <path class="cls-3" d="m219.43,110.69c-.56.35-.43.67-.61,1.01-.14.26-.3.45-.65.45-.64,0-.83-.3-1.19-.29-.21,0-.59.03-.86.47-.37.63-.22,1.21.22,1.71.21.23.57.66.78,1.04.3.54.62.75.96.54.42-.26.88-.71,1.23-1.16.4-.52.56-1.6.74-2.38.16-.73.17-1.87-.63-1.38Z"/>
      <path class="cls-3" d="m188.36,98.43c-.7-.78-1.28-1.19-1.62-1.39-.77-.47-1.09-.46-1.6.02-.29.28-.34.49-.26,1.08.06.41.27.38.55.5.23.09.3.16.49.27.38.21.87.46,1.36.62.13.04.94.44,1.71.46.61.02.82-.16.48-.49-.37-.35-.69-.58-1.12-1.07Z"/>
      <path class="cls-3" d="m200.03,95.51c-.49-.19-1.44-.41-1.84-.41-1.02,0-1.87.5-2.34.91-.27.23-.25.45-.2.6.18.53.48.43.93.44.81,0,1.84-.09,2.62-.08.77,0,1.05.45,1.84.45.38,0,.72-.09.59-.47-.29-.82-.91-1.17-1.58-1.43Z"/>
      <path class="cls-3" d="m198.01,113.92c-.13-.1-.3-.35-.72.04-.32.31-.81,1.21-1.34,1.63-.64.5-.64,1.12-1.08,1.62-.63.73-1.11,1.24-1.39,1.58-.33.42-.84.96-1.08,1.43-.38.73-.02,1.12.51,1.08.69-.05,1.5-.67,2.37-1.6.52-.55,1-1.07,1.38-1.59.25-.34.4-.93.49-1.14.25-.63.2-1.56.67-2.21.25-.36.47-.62.18-.84Z"/>
      <path class="cls-3" d="m115.22,112.21c-.38-.58-.65-1.33-1.02-1.81-.41-.53-1.19-.46-1.42-1.5-.16-.73-.67-1.22-.99-1.79-.43-.77-.79-1.47-1.27-2.02-.45-.52-1.13-.99-1.43-.57-.14.2-.18.59-.18.87,0,.45.1.83.4,1.19.27.32.43.71.82.92.49.25.48.39.55.8.08.47.13.93.38,2,.31,1.31.79,1.95,1.28,2.44.48.47,1.68,1.08,2.44,1.74.64.55.99.59,1.58.58.47,0,.78.11.18-1.06-.24-.47-.81-.99-1.33-1.78Z"/>
      <path class="cls-3" d="m146.63,88.52c.46.53,1.79.34,2.2.19.89-.32,1.16-.61,1.16-1.09,0-.63-.16-1.09-.63-1.1-.34,0-.4.01-.63.18-.66.49-1.39.39-2.06.83-.17.11-.55.42-.05.99Z"/>
      <path class="cls-3" d="m225.44,113.55c-.04.68-.04,1.06.85,1.88.3.28.75.52,1.33-.17.26-.32.43-.87.43-1.36,0-.7-.28-1.32-.72-2.06-.13-.23-.25-.51-.27-.81,0-.29-.12-.58-.23-.81-.27-.55-.45-1.62-.87-1.62-.73,0-.77.72-.62,1.54.15.8.18,2.09.1,3.42Z"/>
      <path class="cls-3" d="m119.28,115.58c.15.17.26.29.42.43.53.45.78.52,1.61,1.49.11.13,1.01.93,1.64.94.33,0,.47-.06.46-.4-.01-.28-.16-.53-.49-.88-.34-.36-.55-.92-.88-1.25-.41-.41-.77-.74-1.22-1.1-.82-.66-1.68-1.19-2.06-1.36-.74-.34-1.18.05-.56.75.17.2.44.45.66.68.28.29.25.5.42.71Z"/>
      <path class="cls-3" d="m151.8,99.02c.38,0,1.01-.03,1.29-.1.58-.15.67-.88.27-1.24-.36-.33-2.26-.59-2.3.49-.01.24.04.43.17.59.18.21.26.25.58.26Z"/>
      <path class="cls-3" d="m163.32,70.92c.32,0,.58.09.76.24.2.16.63.15,1.05.22.31.05.71.1,1.14.15.5.06.39-.07.26-.48-.13-.41-1.44-1.31-2.41-1.71-.7-.28-1.27-.46-1.77-.05-.63.5-.36.76.14,1.28.23.24.51.34.84.35Z"/>
      <path class="cls-3" d="m169.26,81.11c-.28-.32-.55-.69-.81-1-.55-.64-.64-1.45-1.11-1.92-.68-.7-1.13-.94-1.98-.95-.34,0-1.56.27-.88,1.31.24.36.46.91.91,1.62.46.73.78.93,1.24,1.59.17.24.36.51.57.7.21.2.49.29.69.49.73.71,1.13.99,1.74,1.86.34.49.47,1.04,1.58,1.19.3.04.9.3,1.33,1.04.55.95.91,1.38,1.73,1.37.28,0,.79.01.78-.54,0-.58-.55-.82-.97-1.25-.36-.37-.77-.73-1.17-1.09-.29-.25-.56-.34-.74-.53-.21-.22-.31-.55-.59-.85-.4-.42-.82-.9-1.24-1.41-.41-.49-.63-1.12-1.08-1.64Z"/>
      <path class="cls-3" d="m167.39,58.74c.69,0,1.03-.21,1.3-.3.79-.29.9-.04,1.16.22.66.67,1.17.68,1.48.35.41-.44.22-.97-.22-1.53-.37-.47-.84-.72-1.77-.78-.37-.03-.68-.24-.95-.23-.32,0-.69.1-1.01.51-.29.36-.59.77-.59,1.24,0,.34.27.53.6.53Z"/>
      <path class="cls-3" d="m123.8,147.5c-.49-.33-1.36-.65-2.03-.94-.54-.24-.73-.27-.96.18-.34.7.39,1.21.86,1.44.65.31,1.29.55,1.74.74.39.16.78.17.81-.68,0-.26-.08-.49-.43-.73Z"/>
      <path class="cls-3" d="m154.7,176.37c0-.47.2-.46.2-.86,0-.4-.28-.79-.46-1.1-.12-.2-.18-.39-.31-.57-.2-.28-.51-.52-.81-.85-.47-.51-1.54-.39-1.01.86.21.49.42.71.62,1.16.26.59.27,1.27.69,1.85.36.5.44.94.87.95.33,0,.61-.17.38-.69-.1-.24-.17-.54-.17-.75Z"/>
      <path class="cls-3" d="m152.45,169.09c0-.32-.33-.75-.53-1.17-.06-.14-.61-1.38-1.13-1.89-.67-.64-1.18-.57-1.56-.56-.77,0-1.04-.13-1.92-.4-.89-.28-1.94-.49-2.48-1.05-.54-.57-.74-.79-1.11-.4-.45.47-.18,1.03.36,1.54.31.3.69.5,1.1.79.66.46,1.35,1,1.72,1.31.78.64.84.22,1.73,1.08.37.36,1.44.3,2.28.96.39.31.48.31.97.31.3,0,.56-.23.56-.51Z"/>
      <path class="cls-3" d="m157.17,85.77c-.21-1.24-.76-1.39-.72-2.68.03-1.01-.48-1.6-.61-2.59-.14-1.11-.61-2.28-.95-3.18-.22-.58-.41-1.56-.39-2.81,0-.79.07-1.75.07-2.72,0-.76-.12-1.38-.09-2.2.02-.55,0-1.3-.13-1.56-.15-.29-.21-.38-.21-.79,0-.31-.16-.62-.18-.82-.01-.16-.14-.27-.13-.48,0-.27-.12-.41-.29-.15-.11.17-.05.46-.06.93-.02.55-.18.65-.24,1.06-.04.27.02.57-.02.88-.03.28-.15.47-.2.76-.08.47-.02.81-.03,1.46-.03,1.2-.02,2.52-.02,3.69-.01,2.65.59,4.57,1.01,6.89.04.21.07.67.15.97.21.76.55,1.53.76,2.36.16.65.39,1.05.36,1.89-.02.67.44.88.58,1.7.04.26.36,2.76.82,3.81.2.47.6,1.41.77.15.02-.16.26-.78.27-.91.03-.52-.22-.48-.22-.98,0-.54.4-.8.38-1.67-.02-.72-.5-1.94-.69-3.02Z"/>
      <path class="cls-3" d="m147.29,95.87c.18-.11.74-.44.74-.6,0-.42-2.29-.66-3.46-.67-.96,0-1.34.39-1.36.89-.02.54.04.88,1.19.86,1.86-.04,2.28-.08,2.9-.47Z"/>
      <path class="cls-3" d="m146.32,75.27c.42-.5.57-1.12.01-1.57-.31-.25-.81-.36-1.31-.37-.48,0-.74-.15-.87-.21-.86-.38-1.51-.16-1.88.11-.29.22-.59.41.11.94.39.3,1.74.84,2.24,1.07.57.26,1.37.41,1.69.02Z"/>
      <path class="cls-3" d="m132.5,158.2c-.31-.23-.68-.49-1.11-.76-.29-.18-.59-.43-.92-.62-.39-.23-.82-.3-1.23-.52-.89-.46-1.76-1.04-2.97-1.04-1.25,0-1.21.3-1.2.87,0,.28.03.58.64.87.26.12.47.34.73.67.13.16.29.36.57.39.28.03.66.18.88.33.5.34,1.16.48,1.67.64.39.12.35.34,1.33.37.15,0,.61-.06.92.14.29.19.5.18.66-.02.25-.32.27-.43.45-.68.22-.3-.17-.46-.42-.64Z"/>
      <path class="cls-3" d="m138.9,164.02c0-.47-.46-.85-.69-1.48-.41-1.17-.73-2.13-1.46-3.08-.58-.76-1.18-.87-1.2-.08,0,.28-.02.64.34,1.31.37.7.53,1.5.83,2.21.14.33.19.57.41.89.25.35.64.62,1.07,1.64.17.41.49.72.77.73.36.01.72-.33.09-1.14-.19-.25-.18-.55-.17-1.02Z"/>
      <path class="cls-3" d="m126.37,142.57c.47.54.6.52.62-.4,0-.37-.21-.92-.38-1.34-.27-.65-.31-1.35-.34-2.06-.01-.39-.15-.62-.38-.86-.22-.24-.25-.59-.25-1.02,0-.42-.03-.87-.26-1.19-.19-.26-.28-.56-.28-1.1,0-.41-.24-.75-.4-.89-.32-.29-.85-.16-.49.44.33.54.01,1.19.43,1.97.35.64.4.87.56,1.27.16.41.16.73-.06,1.01-.21.27-.91.33-1.33-.29-.31-.46-.4-1.35-.64-1.71-.48-.76-.53-1.53-1.47-2.62-.3-.35-1.43-1.64-2.67-2.62-.49-.39-.69-.11-.69.24,0,.5.22.83.4,1.05.46.55.93,1,1.31,1.41.39.42.52.94.63,1.06.61.72,1.3,1.32,1.83,2.23.34.59.71,1.14,1.1,1.66.27.36.67.44.84,1.11.12.49.27.84.65,1.18.34.32.77.9,1.26,1.46Z"/>
    </g>
  </g>
</svg>