<?xml version="1.0" encoding="UTF-8"?>
<svg id="Layer_2" data-name="Layer 2" xmlns="http://www.w3.org/2000/svg" viewBox="0 0 480.89 566">
  <defs>
    <style>
      .cls-1 {
        fill: #9a8449;
      }

      .cls-1, .cls-2, .cls-3, .cls-4, .cls-5 {
        stroke-width: 0px;
      }

      .cls-2 {
        fill: #ce1042;
      }

      .cls-3 {
        fill: #da2128;
      }

      .cls-4 {
        fill: #fff;
      }

      .cls-5 {
        fill: #003976;
      }
    </style>
  </defs>
  <g id="Ebene_1" data-name="Ebene 1">
    <path class="cls-4" d="m240.44,2.48c74.68,0,146.98,15.37,214.93,45.65,14.13,57.47,23.02,117.44,23.23,156.72,0,.71,0,1.43,0,2.13,0,38.73-5.57,76.56-16.55,112.49-10.81,35.29-26.88,68.74-47.8,99.43-20.55,30.16-45.89,57.85-75.32,82.28-31.24,25.93-67.98,49.25-98.49,62.55-30.51-13.3-67.25-36.63-98.5-62.55-29.43-24.44-54.78-52.13-75.33-82.28-20.9-30.69-36.98-64.15-47.78-99.43C7.85,283.54,2.28,245.7,2.28,206.97v-2.12c.21-39.28,9.1-99.24,23.23-156.72C93.47,17.85,165.76,2.48,240.44,2.48"/>
    <path class="cls-2" d="m240.45,223.62c16.53,0,32.12,4.26,45.59,11.81h138.76c.28-9.71.11-20.61-.08-30.9-.81-42.49-13.16-114.22-25.27-163.98-49.22-15.93-102.04-25.26-158.97-25.26l-.02,208.33"/>
    <path class="cls-3" d="m240.49,15.47c-55.66,0-106.91,8.3-158.85,25.02-12.78,51.56-23.34,119.84-24.92,152.61-2.31,48,1.16,82.7,10.77,120.67,5.4,21.36,12.58,41.42,21.71,61.75,9.87-5.19,20.11-11.69,30.46-19.41,10.87-8.1,20.3-18.46,28.03-28.29-.4-3.54-.62-7.14-.62-10.79,0-5.62.49-11.12,1.43-16.47-19.19.67-30.1.93-38.65.93-10.33,0-19.74-7.19-24.31-18.2h-4.84c-3.63,0-9.81-3.11-9.81-14.79s6.18-14.79,9.81-14.79h4.82c4.57-11.04,14-18.24,24.33-18.24h85.08c13.48-7.54,29.01-11.85,45.55-11.85l.02-208.14"/>
    <path class="cls-5" d="m155.97,482.9c-26.23-26.13-47.9-54.99-65.04-85.81-17.39-31.29-29.75-66.13-37.05-100.95-7.49-35.83-9.86-72.01-7.35-110.36,2.38-36.11,11.91-90.81,23.68-141.4-11.27,3.96-22.43,8.32-33.48,13.08-12.38,49.71-21.08,112.78-21.25,147.26-.2,38.43,5.27,75.66,15.98,110.68,11.23,36.71,26.12,66.59,46.07,95.86,19.85,29.15,44.37,55.92,72.84,79.56,26.62,22.1,56.98,41.53,90.05,57.91,0,0,0,0,0,0-31.45-19.3-59.94-41.42-84.45-65.82"/>
    <path class="cls-5" d="m324.88,482.91c26.23-26.13,47.89-54.99,65.03-85.81,17.4-31.29,29.75-66.12,37.05-100.95,7.5-35.83,9.86-72.01,7.35-110.36-2.37-36.11-11.92-90.86-23.7-141.45,11.27,3.96,22.49,8.35,33.54,13.12,12.39,49.71,21.03,112.8,21.22,147.28.2,38.43-5.27,75.67-15.98,110.68-10.41,34.03-25.91,66.29-46.07,95.86-19.85,29.15-44.36,55.91-72.85,79.56-26.62,22.1-56.98,41.53-90.05,57.92,0,0,0-.01,0,0,31.46-19.3,59.94-41.42,84.45-65.83"/>
    <path class="cls-1" d="m240.37,228.29c-49.02,0-88.77,39.75-88.77,88.76s39.75,88.77,88.77,88.77,88.77-39.74,88.77-88.77-39.75-88.76-88.77-88.76"/>
    <path class="cls-3" d="m240.44,410.46c-30.17,0-57.03-14.31-74.12-36.5-20.85,11.91-42.76,21.31-63.72,27.73,16.55,29.08,37.12,56.27,61.83,81.17,22.31,22.46,47.83,42.98,76.01,61.23v-133.63"/>
    <path class="cls-1" d="m109.75,296.85c-9.61,0-17.82-7.57-21.08-18.19h-8.07c-2.08,0-5.18-2.53-5.18-10.16s3.1-10.15,5.18-10.15h8.06c3.26-10.65,11.48-18.25,21.08-18.25h77.63c-18.85,13.01-32.68,32.77-38.01,55.77-17.19.6-30.37.97-39.62.97"/>
    <path class="cls-1" d="m403.36,411.24c-19.86,29.14-44.37,55.92-72.86,79.55-26.62,22.09-57.01,41.55-90.07,57.92-33.07-16.38-63.42-35.84-90.04-57.92-28.48-23.64-52.99-50.41-72.85-79.55-1.57-2.31-3.11-4.65-4.62-6.98,29-4.89,61.06-17.2,90.67-34.07-7.38-10.65-12.63-22.88-15.07-36.1-7.41,9.11-16.26,18.36-26.34,25.89-16.37,12.22-36.13,24.35-57.5,30.92-13.98-23.82-25.13-49.13-33.2-75.5-10.71-35.01-16.18-72.24-15.97-110.67.17-34.48,8.87-97.55,21.24-147.26C101.2,29.62,169.69,15.48,240.44,15.48s139.24,14.14,203.71,41.97c12.38,49.71,21.07,112.78,21.25,147.26.06,11.93-.42,23.75-1.44,35.41h-170.64c21.1,14.56,35.91,37.59,39.54,64.19l32.55-7.76c7.26-1.62,10.27-6.54,11.02-11.02l81.87-5.53c-2.38,12.01-5.34,23.82-8.88,35.39-10.41,34.01-25.9,66.27-46.06,95.86m53.96-364.96C391.39,16.74,318.83,0,240.44,0S89.5,16.74,23.57,46.28C8.37,107.8.2,167.49,0,204.64c-.21,39.69,5.4,78.48,16.66,115.27,10.86,35.51,27.05,69.18,48.07,100.05,20.67,30.34,46.16,58.18,75.77,82.75,27.84,23.11,65.54,48.47,99.94,63.29,34.39-14.83,72.11-40.18,99.94-63.29,29.61-24.56,55.09-52.41,75.75-82.75,21.04-30.87,37.22-64.54,48.09-100.05,11.25-36.8,16.86-75.58,16.65-115.27-.19-37.14-8.36-96.84-23.56-158.36Z"/>
    <path class="cls-4" d="m246.27,341.6v47.83c22.32-1.79,41.8-13.68,53.85-31.08l-41.41-23.91c-3.32,3.48-7.61,6.01-12.44,7.16"/>
    <path class="cls-4" d="m234.52,244.68c-22.34,1.79-41.82,13.68-53.88,31.11l41.33,23.84c3.33-3.53,7.66-6.09,12.54-7.24v-47.71"/>
    <path class="cls-4" d="m240.37,304.13c-7.12,0-12.9,5.77-12.9,12.9s5.78,12.9,12.9,12.9,12.9-5.77,12.9-12.9c0-7.12-5.77-12.9-12.9-12.9"/>
    <path class="cls-4" d="m246.27,244.68v47.71c4.87,1.16,9.21,3.72,12.53,7.25l41.34-23.85c-12.06-17.42-31.54-29.31-53.87-31.11"/>
    <path class="cls-4" d="m234.52,341.6c-3.93-.94-7.51-2.79-10.5-5.33-.69-.58-1.33-1.2-1.95-1.84l-41.41,23.9c.95,1.38,1.94,2.7,2.98,4,12.16,15.21,30.31,25.43,50.88,27.08v-47.82"/>
    <path class="cls-4" d="m264.62,324.27l41.39,23.89c8.14-16.71,10.41-40.62,0-62.19l-41.37,23.88c1.33,4.31,1.47,9.49-.04,14.42"/>
    <path class="cls-1" d="m187.52,274.43l33.73,19.45c2.57-2.16,5.48-3.81,8.63-4.97l-.02-38.94c-16.68,2.5-31.77,11.21-42.34,24.45"/>
    <path class="cls-1" d="m250.99,250.02l-.06,39.03c3.14,1.15,5.95,2.67,8.52,4.82l33.81-19.42c-10.56-13.24-25.58-21.93-42.27-24.43"/>
    <path class="cls-1" d="m308.04,310c-.63-5.96-2.05-11.77-4.24-17.34l-33.85,19.45c.27,1.61.43,3.24.43,4.87,0,.66-.04,1.32-.08,1.97,9.56-2.61,19.64-5.1,29.85-7.25,2.48-.52,5.14-1.09,7.9-1.7"/>
    <path class="cls-2" d="m240.44,544.09c28.19-18.26,53.77-38.83,76.07-61.3,26.14-26.32,47.69-55.37,64.69-86.34,17.26-31.45,29.46-66.41,36.56-101.36.56-2.7,1.07-5.28,1.56-7.97l-39.32,2.81c-2.08,5.52-6.79,9.6-13.39,11.08l.07-.02c-.27.08-14.68,3.65-33.26,7.94.22,2.66.34,5.37.34,8.1,0,51.59-41.76,93.42-93.32,93.42v133.63"/>
    <path class="cls-1" d="m248.68,317.02c0-4.57-3.74-8.32-8.32-8.32s-8.32,3.75-8.32,8.32,3.74,8.32,8.32,8.32c4.58,0,8.32-3.73,8.32-8.32"/>
    <path class="cls-2" d="m250.91,384.11c16.67-2.5,31.82-11.19,42.38-24.42l-33.96-19.55c-2.54,2.12-5.33,3.79-8.42,4.92,0,0,.06,39.04,0,39.04"/>
    <path class="cls-3" d="m187.54,359.71l33.81-19.58c2.55,2.12,5.43,3.74,8.53,4.88l-.08,39.09c-16.68-2.5-31.69-11.16-42.26-24.39"/>
    <path class="cls-2" d="m308.37,317.1c0-.92-.03-1.85-.07-2.76-2.56.55-5.01,1.09-7.32,1.57-10.33,2.17-20.31,4.71-29.23,7.14l31.99,18.47c3.05-7.77,4.62-15.96,4.62-24.43"/>
    <path class="cls-4" d="m174.71,286.04c-9.58,20.25-8.96,43.07.13,62.2l41.27-23.95c-1.4-4.65-1.46-9.67-.03-14.49l-41.37-23.76"/>
    <path class="cls-1" d="m177.1,341.61l33.66-19.56c-.58-3.3-.56-6.65,0-9.96l-33.76-19.38c-6.15,15.71-6.11,33.14.1,48.9"/>
    <path class="cls-1" d="m355.84,159.62c-4.48.16-5.45-2.87-5.51-5.07.02-2.3.78-5.74,7.9-7.66.17,2.44.36,4.88.36,4.88l.15,2.2c.1,1.58.2,3.01.36,4.56-.94.63-2.02,1.05-3.26,1.09m-87.55-7.35c-4.85,4.13-8.45,6.88-14.31,6.76-4.61-.09-7.47-3.2-9.22-6.68,5.07-1.9,23.97-9,29.38-11.03.06,3.96.14,9.28.14,9.28v.04c.13,3.14.16,6.2.1,9.24v.12l-6.09-7.72Zm-26.75-15.92v-.19c0-7.8,2.91-10.85,5.66-11.11.82-.08,3.02-.27,4.03,3.39.39,1.42.55,2.48.55,3.3,0,2.11-1.13,2.52-2.47,3.01l-.09.03s-3.98,1.53-7.64,2.93c0-.45-.04-.89-.04-1.35Zm-143.63,5.75c1.33-3.82,2.4-6.87,4.66-13.38,1.36,6.49,2.08,9.89,2.76,13.13-2.84.1-4.13.15-7.42.25Zm176.28,22.94c-.09,1.81-.55,7.94-.71,9.76h26.91c-1.57-7.19-2.22-17.17-2.5-24.6,0,.03-.41-15.52-.41-15.52-.05-1.48.37-2.71,1.21-3.6.77-.81,1.84-1.29,2.93-1.3,1.26-.02,3.36-.04,3.53,4.34l.58,16.51c.27,7.42.39,17.85-.59,24.17h26.21c-.43-2.25-1.18-7.66-1.36-9.15,3.3,6.97,10.35,10.55,19.78,10.55,5.59,0,9.97-2.01,13.14-4,.11.21,1.36,2.6,1.36,2.6h48.43c-2.15-7.29-3.48-17.39-4.34-24.9,0-.04-6.61-54.26-6.61-54.26l-24.97-4.02c2.02,6.78,3.52,17.17,4.36,24.63,0,.04,3.74,34.67,3.74,34.67.71,6.32,1.36,13.09,1.3,19.9v.84s-1.01-2.45-1.01-2.45c-1.73-4.23-2.84-10.17-3.42-18.17,0-.05-1.04-11.13-1.04-11.13-1.32-17.61-11.02-25.65-32.05-25.65-3.58,0-12.52.89-17.94,2.45l1.46,20.06,5.61-3.45c4.59-2.82,8.29-4.02,12.36-4.02,3.35,0,5.52,1.25,6.53,3.53-4.13.67-8.58,1.77-13.49,3.97-7.43,3.32-12.29,8.12-14.23,13.88-.01-.16-.01-.33-.02-.48,0-.04-.87-18.4-.87-18.4-.45-11.89-7.85-19.3-19.31-19.3-5.3,0-10,1.52-14.08,4.45-.23-.73-.47-1.42-.75-2l-1.02-2.13-21.54-.99c.97,3.88,2.31,14.68,2.59,18.93-1.14-5.85-4.2-12.08-9.99-16.12-4.4-3.05-9.91-4.67-15.95-4.67-8.01,0-16.08,3.35-21.59,8.98-5.46,5.56-8.46,13.17-8.76,22.12-2.03-2.23-4.73-4.12-8.09-5.7l-9.9-4.72-.49-.23c-2.38-1.11-2.46-1.49-2.41-2.14.08-1,2.37-2.1,5.62-2.1,4.07,0,9.96,2.04,14.73,5.1l.4-17.71c-3.53-1.59-8.45-2.9-15.49-2.9-3.68,0-10.74.52-16.82,3.96-1.68.95-3.2,2.05-4.55,3.25l.27-5.21c-5.73-.64-11.87-.82-19.37,6.12-.06-.48-.56-2.9-1.06-4.29l-23.27,1.42c1.73,6.24,1.94,15.68,1.47,24.1,0,.02-.44,8.89-.44,8.89,0-.02-.07,1.01-.07,1.01-.25,4.65-.52,9.38-.99,13.82-1.94-6.01-4.08-14.22-5.69-21.03l-11.49-51.72-32.81,4.68c.28.66.75,2.34.96,3.97.29,2.17.2,6.65-2.92,15.74-5.27,15.34-12.85,37.99-20.09,53.62-1.01,2.19-2.73,5.78-2.73,5.78h25.55c.33-4,2.02-10.61,3.66-15.41,3.52-.1,12.8-.34,17.08-.45.79,3.71,1.85,8.97,2.07,12.05l.28,3.81h51.43c-1.22-8.07-.75-19.23-.4-25.56.4-7.18,1.91-11.78,4.88-14.87,2.3-2.41,5.06-2.97,6.99-3.02-.27,9.61,6.06,14.1,11.69,16.93l10.04,5.11c3.62,1.89,3.55,2.87,3.5,3.5-.15,1.93-3.06,2.68-5.73,2.61-5.23-.11-12.48-3.73-20.65-12.17l-.43,22.9c6.47,3.64,14.31,4.95,21.45,4.95,11.65,0,24.16-5.08,27.53-15.94,5.74,10.98,17.22,16.05,28.53,16.05,10.1,0,17.65-3.25,24.26-10.26Z"/>
    <path class="cls-4" d="m213.51,116.35c-2.26-.84-5.91-1.65-11.42-1.65-4.54,0-10.31.87-14.87,3.44-5.2,2.95-8.86,7.66-9.19,12.65-.5,7.42,3.62,10.96,9.43,13.88,3.96,1.98,7.72,3.91,10.1,5.15,3.2,1.68,5.95,3.72,5.68,7.41-.29,3.76-3.75,6.3-9.71,6.3-4.91,0-12.01-2.89-16.84-7.29l-.21,11.55c4.21,2.11,11.1,3.37,17.34,3.37,10.82,0,24.19-4.95,24.43-17.6.16-8.99-6.43-12.71-10.35-14.54-3.9-1.82-8.02-3.82-9.96-4.74-1.78-.88-5.52-2.27-5.19-6.36.32-3.91,4.77-5.76,9.59-5.76,4.05,0,7.98,1.12,10.99,2.74l.16-8.56"/>
    <path class="cls-4" d="m92.17,146.32l11.34-32.63,6.73,32.03-18.07.6m24.77-50.79l-24.77,3.55c.6,3.55-.34,9.72-3.05,17.6-5.22,15.21-13.61,39.67-20.27,54.11h15.63c.76-4.61,2.09-9.31,4.29-15.35l23.17-.61c1.02,4.56,2.59,11.84,2.9,15.96h20.68c-2.54-5.95-5.86-18.56-7.9-27.23l-10.67-48.03Z"/>
    <path class="cls-4" d="m176.71,116.43l-.53,10.99c-3.64-.47-8.43.33-12.09,4.13-3.38,3.53-5.5,8.66-5.99,17.43-.4,7.22-.66,15.13-.05,21.79h-17.73c1.17-6.56,1.56-14.4,1.98-21.63l.44-8.85c.4-7.21.43-14.04-.68-20.62l15.46-.95c.72,2.59,1.07,6.08.9,9.92,6.77-10.15,13.38-12.45,18.3-12.21"/>
    <path class="cls-4" d="m398.1,99.14l-15.97-2.58c1.57,6.68,2.21,11.98,3.02,19.18l3.74,34.68c.81,7.22,1.39,13.79,1.32,20.35h17.3c-1.54-6.56-2.32-13.14-3.14-20.35l-6.25-51.28"/>
    <path class="cls-4" d="m326.62,170.78c-1.03-6.56-1.43-13.14-1.69-20.35l-.87-18.35c-.37-9.75-5.97-15.53-15.36-15.53-5.15,0-11.25,1.66-16.48,8.26-.15-1.39-.95-6.02-1.92-8.06l-14.06-.65c1.21,6.81,1.59,13.63,1.86,20.83l.2,13.51c.27,7.22.11,13.79-.45,20.35h17.72c-1.04-6.56-1.43-13.14-1.7-20.35l-.42-15.58c-.2-5.52,3.93-9.04,8.19-9.1,4.93-.06,7.35,3.21,7.54,8.15l.58,16.52c.27,7.22.38,13.79-.17,20.35h17.05"/>
    <path class="cls-4" d="m355.81,163.59c-5,.21-9.33-2.43-9.5-8.85-.15-5.75,3.79-10.84,15.61-12.78l.68,9.42c.24,3.26.33,5.54.74,8.67-1.7,2.05-4.49,3.39-7.53,3.53m25.63,7.18c-2.12-5.21-3.18-12.15-3.7-19.38l-1.03-11.07c-.98-13.08-6.48-22.04-28.11-22.04-3.74,0-9.21.61-13.6,1.58l.73,10.05c4.39-2.71,8.94-4.64,14.51-4.64s10.76,2.36,11.23,10.97c-5.58.63-10.81,1.59-16.67,4.23-6.59,2.95-13.39,8.27-12.74,17.32.71,10.01,8.27,14.37,17.79,14.37,7.17,0,12.17-3.72,14.88-6.51.5,1.85,1.2,3.7,2.01,5.12h14.7Z"/>
    <path class="cls-4" d="m250.67,138.52l-12.65,4.85c-.32-2.27-.49-4.62-.51-7.01-.08-13.13,6.99-15.1,9.32-15.32,3.9-.36,7.04,1.79,8.27,6.32,1.41,5.12,1.06,9.18-4.44,11.15m11.02-20.57c-3.93-2.72-8.65-3.96-13.66-3.96-11.45,0-26.76,8.13-26.35,29.41.4,21.35,16.74,27.86,28.25,27.86,10.1,0,16.23-3.57,21.22-8.87l-3.54-4.49c-2.71,2.12-6.86,5.29-13.72,5.15-7.25-.15-12.03-5.55-14.38-13.03l31.8-11.95c-.98-10.52-4.58-16.61-9.61-20.12Z"/>
  </g>
</svg>