<?xml version="1.0" encoding="UTF-8"?>
<svg id="Layer_2" data-name="Layer 2" xmlns="http://www.w3.org/2000/svg" xmlns:xlink="http://www.w3.org/1999/xlink" viewBox="0 0 321.84 426.72">
  <defs>
    <style>
      .cls-1 {
        clip-path: url(#clippath);
      }

      .cls-2 {
        fill: none;
      }

      .cls-2, .cls-3, .cls-4, .cls-5, .cls-6 {
        stroke-width: 0px;
      }

      .cls-3 {
        fill: #000200;
      }

      .cls-3, .cls-4, .cls-5, .cls-6 {
        fill-rule: evenodd;
      }

      .cls-4 {
        fill: #007836;
      }

      .cls-5 {
        fill: #fff;
      }

      .cls-6 {
        fill: #f2ca23;
      }
    </style>
    <clipPath id="clippath">
      <rect class="cls-2" width="321.84" height="426.72"/>
    </clipPath>
  </defs>
  <g id="Layer_1-2" data-name="Layer 1">
    <g>
      <g class="cls-1">
        <path class="cls-4" d="m221.36,43.88c11.4,7.92,22.93,15.69,34.59,23.24,10.67,6.91,21.47,13.69,32.48,20.06,5.81,3.36,11.7,6.65,17.7,9.65,4,2,8.45,4.14,12.72,5.48l2.81.88v2.94c0,9.55-.1,19.11-.56,28.64-1.21,25.4-4.29,50.67-9.69,75.59-7.43,34.29-19.28,66.65-36.24,97.43-7.73,14.04-16.54,27.48-26.29,40.19-18.05,23.53-37.96,43.42-61.99,60.82-3.69,2.67-7.43,5.29-11.22,7.8-4.86,3.23-9.84,6.25-14.89,9.16-12.85-7.67-24.71-15.64-36.25-24.78-16-12.68-30.77-27.2-43.94-42.98-32.42-38.85-54.7-85.1-67.19-134.02-4.98-19.49-8.5-39.3-10.67-59.3C.63,145.22-.19,125.66.04,106.1l.03-2.78,2.61-.94c11.8-4.25,23.26-10.83,34.05-17.21,11.39-6.73,22.57-13.83,33.63-21.09,15.83-10.41,31.43-21.17,46.94-32.06,13.85-9.73,27.55-19.67,41.19-29.71l2.37-1.75,2.37,1.75c19.18,14.14,38.58,27.97,58.13,41.57h0Z"/>
      </g>
      <path class="cls-6" d="m219.08,47.16c19.79,13.76,45.91,31.08,67.34,43.48,13.05,7.55,24.33,13.33,31.24,15.48.12,23.81-.99,42.22-3.3,62.22-1.62,14.02-3.94,27.71-6.85,41.15-7.21,33.27-18.56,65-35.84,96.35-7.64,13.87-16.32,27.12-25.96,39.69-18.09,23.59-37.42,42.82-61.16,60.02-7.43,5.38-15.29,10.45-23.69,15.54-29.07-17.09-55-39.09-77.19-65.67-32.04-38.4-54.04-84.09-66.39-132.45C7.44,184.43,3.57,145.8,4.03,106.15c11.59-4.18,23.54-10.92,34.73-17.53,11.18-6.61,22.6-13.84,33.79-21.2,15.8-10.39,31.53-21.24,47.04-32.13,13.89-9.75,27.41-19.57,41.26-29.77,19.48,14.36,38.66,28.03,58.22,41.63h0Z"/>
      <path class="cls-4" d="m18.59,116.02c32.22-15.05,84.07-50.29,142.25-92.39,45.43,32.8,100.14,72.06,142.18,92.41-.72,71.62-15.96,131.94-44,182.84-7.38,13.39-15.6,25.86-24.77,37.82-19.7,25.69-43.37,48.29-73.42,67.33-24.06-15.09-46.3-34.4-65.93-57.93-27.71-33.21-50.57-75.7-63.59-126.69-7.87-30.82-12.21-64.63-12.72-103.39h0Z"/>
      <path class="cls-5" d="m160.84,29.36c-25.59,18.49-51.43,36.82-77.8,54.16-11.14,7.33-22.43,14.5-33.92,21.28-8.47,5-17.03,9.85-25.89,14.17.5,33.45,4.29,66.85,12.57,99.29,11.64,45.59,32.44,88.65,62.65,124.86,17.85,21.39,38.9,40.4,62.41,55.41V29.36Z"/>
      <path class="cls-4" d="m140.44,338.99c1.01.17,1.61.96,1.61,1.96v2.68c0,1.01-.68,1.94-1.76,1.94h-7.06c-.77,0-1.8-.62-1.8-2.09v-2.56c-.03-.44.27-1.72,1.69-1.95v-4.52c-1.22-.04-2.02-.74-2.02-2.11v-3.28c0-.83.27-1.2.73-1.6l2.33-2.02c.48-.42.73-.55,1.57-.55h2.77c1.03,0,1.93.78,1.93,1.78v12.34Z"/>
      <path class="cls-5" d="m133.04,328.97v3.47l2.02-1.76v10.21h-1.64v2.73h6.7v-2.71h-1.64v-14.11h-2.94l-2.5,2.16Z"/>
      <path class="cls-4" d="m145.37,337.48c-.46-.62-.82-1.31-1.08-2.05-.34-.97-.5-2-.5-3.02,0-1.05.21-2.1.62-3.07.4-.93.96-1.77,1.69-2.49.71-.71,1.55-1.28,2.48-1.68h0c.97-.41,2-.62,3.06-.62h0c.69,0,1.38.09,2.05.26h0c.66.18,1.3.43,1.91.75h.01c.6.34,1.16.75,1.65,1.23h0c1.04,1.03,1.76,2.29,2.21,3.67.5,1.52.67,3.16.67,4.75h0c0,1.4-.16,2.8-.55,4.14-.36,1.21-.9,2.37-1.66,3.38-.75.98-1.68,1.77-2.78,2.32-1.13.57-2.36.82-3.61.83-.95,0-1.91-.14-2.81-.45-.88-.3-1.7-.75-2.42-1.34-.64-.54-1.18-1.21-1.59-1.94-.4-.73-.68-1.54-.82-2.36-.14-.86.04-1.82,1.43-2.3h0Zm6.32-3.87c.15,0,.28-.03.41-.11.15-.09.25-.22.33-.37.11-.2.15-.43.16-.66-.01-.42-.25-1.07-.75-1.07-.57,0-.82.6-.82,1.1,0,.24.04.48.14.7.07.13.15.25.27.33.08.06.17.08.27.08h0Z"/>
      <path class="cls-5" d="m151.83,329.47c1.63,0,2.67,1.5,2.68,3,0,.59-.13,1.11-.38,1.57-.25.46-.58.83-1.01,1.1-.42.27-.91.41-1.44.41-.5,0-.95-.14-1.34-.41-.39-.26-.7-.63-.93-1.08-.23-.46-.34-.98-.34-1.57,0-1.55,1.06-3.02,2.76-3.02h0Zm-5.99,9.94c.13.68.34,1.27.62,1.79.29.51.66.98,1.12,1.38.54.44,1.15.78,1.82,1.01.67.24,1.4.35,2.17.35,1.02,0,1.93-.21,2.75-.62.82-.41,1.52-.99,2.11-1.76.58-.76,1.03-1.68,1.34-2.75.31-1.07.47-2.27.47-3.6,0-1.6-.19-2.98-.57-4.15-.38-1.16-.96-2.13-1.73-2.89-.37-.36-.78-.66-1.24-.92-.46-.25-.95-.44-1.47-.58-.51-.13-1.04-.2-1.57-.2-.82,0-1.6.16-2.31.47-.71.31-1.34.73-1.89,1.27-.54.54-.97,1.17-1.27,1.88-.31.71-.46,1.48-.47,2.3,0,.87.14,1.66.39,2.38.26.73.62,1.35,1.09,1.88.46.53,1.02.94,1.66,1.23.65.29,1.35.44,2.12.44.75,0,1.43-.15,2.03-.46.6-.31,1.16-.79,1.67-1.45,0,.94-.09,1.71-.28,2.32-.2.61-.45,1.08-.77,1.42-.32.34-.66.58-1.02.71-.36.14-.7.2-1.03.2-.36,0-.68-.05-.95-.16-.27-.11-.51-.29-.72-.54-.21-.25-.41-.57-.59-.97h-3.47Z"/>
      <path class="cls-4" d="m175.27,328c.3.45.53.93.69,1.45.14.45.23.92.29,1.39l.25,2.16h-1.61c.44.6.79,1.25,1.05,1.96h0c.35.98.5,1.99.51,3.02v.02c0,1.07-.19,2.13-.6,3.12-.4.95-.96,1.81-1.7,2.53-.74.72-1.63,1.28-2.58,1.65-1,.4-2.08.57-3.16.58-1.21,0-2.42-.26-3.51-.79-1.07-.53-1.97-1.27-2.71-2.21-.75-.95-1.29-2.07-1.65-3.23-.39-1.27-.55-2.6-.55-3.92,0-1.92.22-3.89.92-5.69.61-1.6,1.58-3,2.99-3.99h0c1.43-1,3.09-1.41,4.81-1.42h0c.99,0,1.97.17,2.9.52h0c.93.35,1.77.86,2.5,1.53.43.39.82.83,1.14,1.32h0Zm-6.86,8.87c-.11,0-.2.03-.3.09-.15.09-.25.22-.33.37-.1.19-.14.39-.14.59,0,.24.05.46.15.68.08.16.18.29.33.39.09.06.19.09.3.1.12,0,.24-.02.34-.08.11-.08.19-.19.25-.31.11-.24.14-.54.15-.8,0-.23-.03-.48-.13-.69-.05-.11-.12-.19-.22-.25-.11-.06-.27-.08-.4-.08h0Z"/>
      <path class="cls-5" d="m168.41,334.94c.54,0,1.01.12,1.41.37.4.25.71.59.93,1.04.22.44.33.96.34,1.55,0,.62-.12,1.17-.34,1.64-.23.47-.54.83-.94,1.09-.41.26-.87.39-1.41.39-.5,0-.97-.14-1.37-.42-.41-.27-.73-.65-.97-1.11-.24-.47-.37-.99-.37-1.57,0-.56.13-1.06.38-1.5.24-.45.57-.81.97-1.07.41-.27.86-.4,1.36-.41h0Zm5.92-3.87c-.04-.37-.12-.72-.22-1.05-.1-.33-.25-.65-.46-.96-.2-.31-.47-.63-.82-.94-.55-.5-1.18-.89-1.89-1.15-.71-.26-1.44-.39-2.23-.39-1.46,0-2.7.36-3.71,1.07-1.01.71-1.77,1.74-2.3,3.1-.53,1.36-.79,3.02-.79,4.98,0,1.24.16,2.36.47,3.36.31,1.01.75,1.88,1.32,2.6.57.72,1.26,1.28,2.05,1.67.79.39,1.67.59,2.64.6.89,0,1.71-.15,2.46-.44.74-.29,1.39-.7,1.93-1.23.54-.53.96-1.16,1.26-1.88.3-.73.45-1.52.45-2.4,0-.87-.14-1.65-.4-2.37-.26-.71-.62-1.33-1.1-1.85-.47-.52-1.04-.93-1.68-1.21-.65-.29-1.37-.43-2.15-.43-.71,0-1.37.15-1.97.46-.6.31-1.17.77-1.69,1.39,0-.39.01-.72.03-1,.02-.27.06-.52.11-.75.05-.22.12-.45.21-.68.28-.69.65-1.22,1.13-1.6.48-.38,1.02-.57,1.63-.57.57,0,1.03.13,1.4.41.36.27.65.69.86,1.27h3.42Z"/>
      <path class="cls-5" d="m177.54,336.39v2.68h7.79v1.88h-1.36v2.71h5.9v-2.73h-1.33v-1.85h2.16v-2.59h-2.18v-6.51l-3.21,3.94v2.57h-3.92l7.84-9.57h-4.01l-7.67,9.48Z"/>
      <path class="cls-4" d="m93.04,124.83c.33.38.61.8.84,1.26.39.79.62,1.66.76,2.52.13.82.13,1.66.14,2.5.95-.04,1.53.48,1.81,1.03.1-.2.24-.4.42-.65l9.65-12.65h-1.2v.81c0,.88-.81,1.84-1.94,1.84h-4.17c-1.21,0-1.97-.91-1.97-1.94v-6.42c0-1.37.81-2.1,1.99-2.1h17.03c1.2,0,1.95.84,1.95,1.93v3.84c0,.68-.12.92-.52,1.46l-9.59,12.84h2.18v-.61c0-1.43.79-2.15,2.13-2.15h4.1c.79,0,1.91.61,1.91,2.05v6.45c0,.82-.46,2.07-2.16,2.07h-18.14c-.66,0-1.36-.24-1.71-.97-.25.51-.74.97-1.68.97h-6.84c-.94,0-1.9-.7-1.9-2.05v-5.93c0-.55-.07-1.39-.49-1.81-.42-.42-1.3-.49-1.85-.49h-1.46v2.47c.82,0,1.72.97,1.72,1.78v4.07c0,1-.69,1.95-1.98,1.95h-8.53c-1.14,0-2.02-.62-2.02-2.17v-3.71c0-.79.62-1.81,1.73-1.93h.27v-12.27c-1.54-.03-1.97-1.23-1.97-1.95v-3.83c0-1.33.98-2.05,1.93-2.05h11.08c1.43,0,2.96.16,4.34.57,1.11.34,2.18.82,3.09,1.55.76.61,1.43,1.35,1.89,2.21.39.72.72,1.49.88,2.3.12.65.2,1.3.2,1.97-.01,1-.14,2.04-.51,2.98-.32.83-.8,1.61-1.43,2.25h0Zm54.92,10.61c-1.2-1.35-2.08-2.91-2.68-4.61-.65-1.84-.93-3.79-.93-5.74h0c0-1.96.27-3.9.9-5.75.58-1.7,1.43-3.28,2.58-4.65h0c1.12-1.34,2.48-2.39,4.06-3.14,1.62-.77,3.36-1.13,5.15-1.14h.02c1.08,0,2.19.1,3.23.39.61.17,1.21.39,1.79.67v-.45h8.08v12.19h-7.63l-.47-1.27c-.12-.32-.25-.64-.4-.95-.09-.18-.19-.38-.31-.55l-.02-.02-.02-.02c-.11-.17-.23-.32-.36-.47-.4-.46-.87-.82-1.42-1.07h-.02c-.53-.25-1.1-.37-1.69-.37-.8,0-1.57.17-2.23.64-.69.5-1.14,1.24-1.44,2.03-.47,1.22-.61,2.63-.61,3.93,0,1.24.15,2.57.62,3.73.33.8.8,1.53,1.51,2.04.67.48,1.44.65,2.25.66.55,0,1.08-.1,1.58-.32.51-.23.94-.58,1.32-1h0s0-.01,0-.01c.12-.13.23-.28.32-.42.14-.21.25-.43.36-.65.16-.33.29-.69.42-1.04l.46-1.29h8.89l-.72,2.48c-.57,1.97-1.4,3.89-2.63,5.53h0c-1.17,1.57-2.66,2.79-4.44,3.61h0c-1.9.86-3.98,1.19-6.06,1.19h0c-1.83,0-3.62-.34-5.3-1.09-1.61-.72-3.01-1.74-4.19-3.06h0Zm-101.05-4.34l6.24-18.77c.34-1.05,1.2-1.3,1.76-1.3h5.94c.64,0,1.45.33,1.8,1.39l6.1,18.68h.48c.91.02,1.91.66,1.91,1.94v3.85c0,.96-.63,2.02-2.02,2.02h-5.56c-.82,0-1.54-.53-1.78-1.31l-1.17-3.89h-5.55l-1.16,3.88c-.18.61-.81,1.32-1.85,1.32h-5.7c-.71,0-1.84-.53-1.84-2.1v-3.76c0-1.13.92-2.17,2.38-1.95h0Zm11.49-4.97l-.54-1.85-.56,1.85h1.1Zm62.76,4.97l6.24-18.77c.35-1.05,1.2-1.3,1.76-1.3h5.94c.64,0,1.45.33,1.8,1.39l6.1,18.68h.48c.91.02,1.91.66,1.91,1.94v3.85c0,.96-.63,2.02-2.02,2.02h-5.56c-.83,0-1.54-.53-1.78-1.31l-1.17-3.89h-5.54l-1.16,3.88c-.18.61-.82,1.32-1.85,1.32h-5.7c-.72,0-1.84-.53-1.84-2.1v-3.76c0-1.13.92-2.17,2.38-1.95h0Zm11.5-4.97l-.55-1.85-.56,1.85h1.11Zm-50.32-7.3v2.23h1.9c.43,0,.92-.05,1.32-.22h.02c.18-.08.36-.19.47-.37h0c.12-.19.15-.45.15-.66h0c0-.27-.01-.43-.23-.57-.56-.35-1.76-.41-2.39-.41h-1.25Z"/>
      <path class="cls-5" d="m83.59,116.88c1.54,0,2.7.24,3.45.72s1.12,1.22,1.12,2.2c0,.67-.16,1.25-.47,1.73-.31.47-.75.84-1.34,1.09-.58.25-1.28.38-2.1.38h-3.85v-6.13h3.2Zm-10.07,0h1.97v16.16h-2.01v3.92h8.57v-3.92h-1.67v-6.36h3.41c1.44,0,2.51.35,3.23,1.05.71.7,1.07,1.77,1.06,3.2v6.02h6.77v-3.92h-2v-1.22c0-1.16-.06-2.13-.18-2.91-.12-.79-.32-1.43-.57-1.95-.26-.51-.59-.94-1-1.29-.4-.34-.88-.66-1.45-.93.27-.11.58-.27.95-.48.37-.21.78-.52,1.14-.9.36-.38.65-.89.89-1.5.24-.62.36-1.38.38-2.3,0-.46-.04-.98-.16-1.56-.11-.57-.33-1.16-.65-1.75-.32-.58-.79-1.12-1.41-1.62-.62-.5-1.43-.9-2.43-1.2-1-.3-2.3-.49-3.77-.49h-11.06v3.94Z"/>
      <path class="cls-5" d="m99.34,119.54h4.18v-2.66h7.08l-12.35,16.2v3.88h18.34v-6.67h-4.22v2.75h-8l12.01-16.16v-3.91h-17.05v6.57Z"/>
      <path class="cls-5" d="m135.27,128.08h-6.33l3.2-10.62,3.13,10.62Zm-12.7,4.97h-1.84v3.92h5.58l1.57-5.21h8.44l1.56,5.21h5.54v-3.92h-1.8l-6.6-20.13h-5.77l-6.67,20.13Z"/>
      <path class="cls-5" d="m61.01,128.08h-6.33l3.2-10.62,3.13,10.62Zm-12.69,4.97h-1.84v3.92h5.58l1.57-5.21h8.44l1.57,5.21h5.54v-3.92h-1.81l-6.6-20.13h-5.78l-6.67,20.13Z"/>
      <path class="cls-5" d="m163.78,128.73c-.17.47-.33.88-.5,1.22-.17.34-.33.64-.5.88s-.33.47-.5.65c-.58.65-1.23,1.14-1.96,1.48-.73.33-1.53.5-2.39.5-1.31,0-2.44-.35-3.38-1.02-.94-.67-1.67-1.63-2.18-2.88-.51-1.25-.77-2.74-.77-4.47,0-1.81.25-3.35.74-4.62.49-1.27,1.2-2.24,2.12-2.91.93-.67,2.05-1,3.37-1.01.89,0,1.73.18,2.51.54.79.36,1.48.88,2.08,1.57.19.22.37.45.52.68.16.23.31.5.46.81.15.3.31.68.48,1.13h4.32v-8.31h-4.19v2.76c-.27-.36-.59-.74-.96-1.13-.37-.39-.82-.75-1.35-1.09-.53-.34-1.18-.61-1.93-.82-.76-.21-1.67-.32-2.73-.32-1.57,0-3.01.32-4.32.95-1.31.62-2.45,1.5-3.4,2.63-.96,1.14-1.7,2.48-2.23,4.03-.53,1.55-.79,3.25-.8,5.12,0,1.86.28,3.56.82,5.09.54,1.53,1.31,2.85,2.3,3.96.99,1.12,2.17,1.98,3.53,2.58,1.36.61,2.86.91,4.52.92,2.02,0,3.78-.34,5.25-1.01,1.48-.67,2.71-1.67,3.69-3,.98-1.32,1.76-2.96,2.32-4.91h-4.94Z"/>
      <path class="cls-5" d="m172.55,116.85h1.94v16.16l-1.94.03v3.92h8.75v-3.92h-1.91v-6.5h8.67v6.5h-1.87v3.92h8.65v-3.92h-1.87v-16.2h1.87v-3.88h-8.68v3.88h1.91v5.72h-8.67v-5.72h1.87v-3.88h-8.71v3.88Z"/>
      <path class="cls-5" d="m198.75,116.88h1.91v16.16h-1.94v3.92h18.89v-7.93h-4.25v4.01h-7.79v-6.5h7.52v-3.91h-7.52v-5.75h7.55v3.61h4.02v-7.52h-18.38v3.91Z"/>
      <path class="cls-5" d="m238.8,116.88h1.97v14.67l-10.28-18.58h-8.3v3.91h1.91v16.16h-1.94v3.92h8.16v-3.92h-1.87v-14.26l10.07,18.17h6.6v-20.08h1.91v-3.91h-8.23v3.91Z"/>
      <path class="cls-5" d="m265.03,128.08h-6.33l3.2-10.62,3.13,10.62Zm-12.7,4.97h-1.84v3.92h5.58l1.56-5.21h8.44l1.57,5.21h5.51v-3.92h-1.8l-6.6-20.08h-5.75l-6.67,20.08Z"/>
      <path class="cls-4" d="m77.77,145.52c.2-.18.59-.23.89-.23h2.17c.83,0,2.07.46,2.07,2.13v1.34h0c.46-.75,1.02-1.4,1.69-1.96h0c.69-.58,1.48-1.02,2.32-1.33.9-.33,1.86-.48,2.81-.48h.01c1.02,0,2.05.15,3.02.51h0c.88.34,1.69.8,2.39,1.43.66.59,1.21,1.29,1.63,2.06l.02.04c.06-.16.12-.32.2-.48h0c.32-.7.78-1.31,1.34-1.83.56-.51,1.21-.91,1.93-1.19.74-.29,1.52-.39,2.31-.43.68-.04,1.49.06,2.65.45.38-.24.63-.25.97-.25h2c.64-.02,1.14.25,1.48.63.35-.4.86-.63,1.38-.63h10.49c1.29,0,2.03,1.02,2.03,2v2.98l1.2-3.64c.32-.97,1.12-1.34,1.82-1.34h3.27c.82,0,1.55.56,1.87,1.52l3.1,9.5c.95.15,1.5,1.06,1.5,1.82v2.38c0,.62-.63,1.8-1.95,1.8h-2.76c-.73,0-1.77-.13-2.17-1.48l-.41-1.38h-1.71l-.37,1.33c-.34,1.21-1.27,1.53-1.97,1.53h-2.94c-.62,0-1.22-.23-1.6-.74-.33.46-.88.74-1.55.74h-5.09c-.84,0-1.98-.56-1.98-2.11v-1.96c0-.82.33-1.46,1.21-1.88v-2.04h-2.08c-.18,0-.37-.06-.55-.17.14.35.26.71.33,1.07.07.38.12.77.11,1.16,0,.84-.17,1.66-.51,2.43-.32.74-.79,1.41-1.37,1.97-.59.56-1.28,1-2.03,1.3-.79.32-1.57.5-2.41.51-.68,0-1.88-.1-2.91-.59-.26.19-.59.3-1.05.3h-2.15c-1.15.02-1.96-.85-1.96-2.14v-1c-.23.34-.48.66-.76.97-.75.82-1.66,1.45-2.68,1.87-1.07.44-2.2.63-3.35.64h-.01c-1.15,0-2.26-.21-3.31-.68-1.02-.45-1.9-1.09-2.64-1.93-.53-.6-.96-1.27-1.29-1.98-.26.57-.58,1.11-.95,1.61h0c-.73.98-1.66,1.74-2.77,2.25h0c-1.15.52-2.41.73-3.67.73h0c-1.12,0-2.22-.21-3.25-.67-.99-.44-1.86-1.07-2.59-1.89-.73-.82-1.27-1.77-1.63-2.81-.39-1.1-.56-2.26-.56-3.42h0c0-1.17.17-2.33.54-3.43.35-1.03.87-1.99,1.57-2.82h0c.69-.83,1.54-1.49,2.51-1.95,1-.47,2.07-.7,3.18-.7,1.05,0,1.96.14,2.95.54h0Zm85.33,3.63l1.03-3.83h8.38v6.03h-1.04v4.92h1.04v6.03h-10.3c-.56,0-1.34-.51-1.59-.78-.49.67-1.03.78-1.64.78h-3.23c-.84,0-1.86-.26-2.05-1.73-.07.08-.15.16-.23.23-.59.56-1.28,1-2.03,1.3-.79.32-1.56.5-2.41.51-.69,0-1.88-.1-2.91-.59-.26.19-.59.3-1.05.3h-2.14c-1.15.02-1.96-.85-1.96-2.14v-4.28c0-.68.49-1.36,1.12-1.69-.26-.37-.59-.92-.75-1.34-.24-.64-.36-1.33-.37-2.02v-.03c0-.8.18-1.57.51-2.29h0c.32-.7.77-1.31,1.34-1.83.56-.51,1.21-.91,1.93-1.19.74-.29,1.52-.39,2.32-.43.68-.04,1.48.06,2.65.45.38-.24.63-.25.96-.25h2c.64-.02,1.14.25,1.48.63.41-.49.99-.65,1.42-.65h6.45l1.06,3.88Zm-8.41,4.38v-2.18.02c0,.48-.24.93-.65,1.27.15.15.47.59.65.89h0Zm-32.42.68c-.31.1-.59.12-.72.12h-1.91v2.06c.34.1.62.32.81.61.22-.28.57-.54,1.14-.73l.68-2.05Zm-40.75-.53c-.19.05-.35.05-.4.05h-2.62c-.62,0-1.43-.3-1.77-1.28-.05-.15-.11-.29-.18-.43-.03-.06-.06-.12-.1-.18l-.03-.05c-.04-.05-.08-.11-.12-.16-.14-.15-.29-.28-.47-.36h-.01c-.18-.09-.36-.12-.55-.13-.24,0-.5.04-.7.18-.24.17-.38.45-.49.71-.21.55-.27,1.23-.27,1.82,0,.55.06,1.18.27,1.7.11.28.27.55.52.73.21.15.46.19.71.19.17,0,.34-.03.5-.1.16-.07.3-.2.43-.33.04-.04.07-.09.11-.14.05-.08.09-.17.14-.25.07-.15.14-.32.19-.48.45-1.13,1.28-1.29,1.66-1.29h3.19c0-.07,0-.14,0-.2v-.02Zm8.28-2.51c-.25,0-.54.04-.75.19h0c-.23.16-.37.39-.47.64-.2.5-.26,1.1-.26,1.63,0,.57.04,1.25.2,1.8.07.24.19.51.37.69h0s.01.02.01.02c.11.11.24.19.38.25h0c.16.07.32.09.5.09.13,0,.26-.02.38-.08.15-.07.29-.16.41-.28h.01s.02-.02.02-.02c.18-.18.3-.44.37-.68h0c.17-.56.2-1.23.2-1.8h0c0-.55-.05-1.16-.25-1.67h0c-.09-.24-.22-.48-.43-.62-.19-.14-.46-.17-.69-.17h0Z"/>
      <path class="cls-5" d="m78.5,155.85c-.09.26-.18.48-.27.66-.09.19-.18.35-.27.48-.09.13-.18.25-.28.35-.32.35-.67.62-1.07.81-.39.18-.83.27-1.3.27-.71,0-1.33-.19-1.84-.56-.52-.37-.91-.89-1.19-1.57-.28-.68-.42-1.5-.42-2.44,0-.99.14-1.83.4-2.52.26-.69.65-1.22,1.16-1.59.5-.36,1.12-.55,1.84-.55.48,0,.94.1,1.37.3.43.2.81.48,1.14.86.1.12.2.24.28.37.09.12.17.27.25.44.08.17.17.38.26.62h2.36v-4.53h-2.28v1.5c-.97-1.34-2.18-1.86-3.81-1.86s-3.15.72-4.21,1.98c-.52.62-.93,1.35-1.22,2.2-.29.85-.43,1.77-.43,2.79,0,1.02.15,1.94.45,2.78.29.84.71,1.55,1.25,2.16.54.61,1.18,1.07,1.93,1.41.74.33,1.56.5,2.46.5,1.11,0,2.06-.18,2.87-.55.81-.37,1.47-.91,2.01-1.63.53-.72.96-1.61,1.26-2.68h-2.69Z"/>
      <path class="cls-5" d="m89.8,149.23c.72,0,1.32.18,1.82.52.49.35.86.85,1.12,1.5.26.66.38,1.44.38,2.37,0,.94-.09,1.73-.29,2.37-.19.63-.49,1.15-.9,1.53-.28.27-.6.49-.95.66-.36.16-.75.25-1.18.25-.43,0-.84-.08-1.23-.23-.39-.15-.73-.38-1.03-.68-.4-.38-.69-.9-.88-1.53-.19-.64-.29-1.43-.29-2.37,0-.93.14-1.72.41-2.37.27-.66.66-1.16,1.18-1.5.51-.35,1.12-.52,1.85-.52h0Zm-.07-2.3c-.79,0-1.5.12-2.15.36-.65.23-1.23.57-1.74.99-.51.43-.93.92-1.29,1.49-.35.57-.61,1.19-.8,1.85-.18.67-.28,1.36-.28,2.08,0,1.05.16,2,.45,2.86.3.86.72,1.59,1.27,2.21.55.62,1.2,1.1,1.97,1.43.76.34,1.6.5,2.53.51.96,0,1.84-.17,2.61-.49.78-.32,1.44-.78,2-1.39.55-.6.98-1.32,1.27-2.17.3-.85.45-1.79.45-2.84,0-.69-.08-1.37-.24-2.04-.15-.67-.39-1.29-.71-1.88-.32-.58-.73-1.1-1.23-1.55-.5-.45-1.09-.8-1.77-1.06-.68-.25-1.46-.39-2.34-.39h0Z"/>
      <path class="cls-5" d="m142.95,156v4.34h2.17v-1.48c.15.16.33.34.55.54.22.2.49.39.8.57.31.19.67.34,1.09.47.42.12.9.19,1.44.19.63,0,1.2-.11,1.74-.33.54-.22,1.01-.52,1.41-.91.4-.39.71-.83.94-1.35.23-.51.34-1.07.34-1.67,0-.23-.02-.48-.08-.77-.06-.29-.16-.59-.3-.9-.15-.31-.36-.62-.63-.92-.28-.3-.63-.58-1.06-.82-.26-.14-.53-.26-.84-.37-.3-.1-.64-.19-1.02-.26-.38-.07-.82-.14-1.32-.19-.51-.05-.94-.11-1.29-.18-.34-.07-.62-.16-.82-.27-.2-.11-.34-.24-.43-.4-.09-.16-.13-.35-.13-.58,0-.29.1-.55.29-.78.19-.24.44-.43.76-.57.31-.14.67-.21,1.07-.21.5,0,.93.07,1.27.2.35.13.65.31.89.52.23.21.43.43.58.66.15.23.28.44.38.63h2.02v-3.9h-2.08v1.4c-.14-.16-.3-.34-.5-.52-.2-.18-.44-.36-.72-.52-.28-.16-.62-.3-1-.41-.39-.11-.84-.16-1.36-.16-.57,0-1.11.1-1.61.3-.5.2-.94.47-1.32.82-.38.35-.68.75-.9,1.21-.21.46-.32.95-.33,1.48,0,.47.09.91.24,1.33.16.42.39.79.69,1.12.27.29.54.52.84.7.3.18.61.32.94.42.32.1.66.18,1.02.24.35.05.72.11,1.1.15.41.05.79.11,1.15.17.36.06.68.16.97.27.28.12.5.29.66.5.16.21.24.5.24.85s-.11.65-.31.91c-.2.26-.49.46-.85.61-.36.15-.78.22-1.27.23-.81,0-1.48-.2-2.02-.6-.54-.4-.96-.98-1.25-1.73h-2.16Z"/>
      <path class="cls-5" d="m111.12,152.38h2.17v-2.99h1.71v8.82h-1.19v2.13h5.09v-2.13h-1.21v-8.82h1.71v2.99h2.17v-5.13h-10.45v5.13Z"/>
      <path class="cls-5" d="m129.93,155.5h-3.45l1.74-5.79,1.71,5.79Zm-6.93,2.71h-1v2.13h3.05l.85-2.84h4.61l.85,2.84h3.01v-2.13h-.98l-3.6-10.95h-3.14l-3.64,10.95Z"/>
      <path class="cls-5" d="m155.62,149.4h1.02v8.82h-1.02v2.14h3.45v-7.78l-.15-3.9,3.3,11.68h1.78l3.21-11.43-.02.57-.05,2.47v8.39h3.42v-2.14h-1.04v-8.82h1.04v-2.13h-4.94l-1.27,4.68-1.22,4.88-1.26-4.81-1.32-4.75h-4.94v2.13Z"/>
      <path class="cls-5" d="m172.75,149.4h1.04v8.82h-1.06v2.14h10.3v-4.32h-2.32v2.19h-4.25v-3.54h4.1v-2.14h-4.1v-3.14h4.12v1.97h2.19v-4.1h-10.02v2.13Z"/>
      <path class="cls-5" d="m191.14,149.4c.84,0,1.47.13,1.88.39.41.27.61.66.61,1.2,0,.36-.09.68-.26.94-.17.25-.41.46-.73.59-.32.14-.7.21-1.15.21h-2.1v-3.34h1.75Zm-5.5,0h1.08v8.82h-1.1v2.14h4.68v-2.14h-.91v-3.47h1.86c.79,0,1.38.19,1.76.57.39.38.58.96.58,1.75v3.29h3.68v-2.14h-1.08v-.67c0-.63-.03-1.16-.1-1.59-.07-.43-.17-.78-.31-1.06-.14-.28-.32-.51-.54-.7-.22-.19-.48-.36-.79-.51.14-.06.31-.14.52-.26.2-.12.39-.28.59-.49.19-.21.35-.48.48-.82.13-.34.2-.75.21-1.25,0-.25-.03-.54-.09-.86-.06-.31-.18-.63-.35-.95-.17-.32-.43-.61-.77-.88-.34-.27-.78-.49-1.33-.66-.55-.16-1.23-.25-2.03-.25h-6.04v2.13Z"/>
      <path class="cls-5" d="m207.16,155.51h-3.45l1.74-5.79,1.71,5.79Zm-6.92,2.71h-1v2.14h3.05l.85-2.84h4.6l.85,2.84h3.01v-2.14h-.99l-3.6-10.95h-3.14l-3.64,10.95Z"/>
      <path class="cls-5" d="m213.82,149.4h1.02v8.82h-1.04v2.14h9.62v-4.31h-2.32v2.17h-3.58v-8.82h1.02v-2.13h-4.71v2.13Z"/>
      <path class="cls-5" d="m229.56,158.21v-8.82h1.71c.39,0,.77.04,1.12.12.35.08.68.19.97.34.29.14.54.32.75.51.4.37.7.85.89,1.44.19.59.29,1.32.28,2.16,0,.89-.14,1.65-.41,2.29-.27.63-.66,1.12-1.18,1.45-.52.34-1.14.51-1.89.51h-2.25Zm-3.68-8.82h1v8.82h-1.02v2.14h6.11c.71,0,1.35-.06,1.92-.19.57-.13,1.08-.32,1.54-.58.46-.26.86-.59,1.21-1,.33-.37.61-.8.83-1.29.23-.49.4-1.03.52-1.61.12-.58.18-1.2.18-1.85,0-1.38-.26-2.56-.77-3.54-.51-.98-1.25-1.73-2.21-2.25-.96-.52-2.11-.78-3.46-.79h-5.85v2.13Z"/>
      <path class="cls-5" d="m247.28,155.51h-3.45l1.75-5.79,1.71,5.79Zm-6.92,2.71h-1v2.14h3.04l.86-2.84h4.6l.86,2.84h3.01v-2.14h-.98l-3.6-10.95h-3.14l-3.64,10.95Z"/>
      <path class="cls-3" d="m160.98,191.33c29.03,0,52.56,23.53,52.56,52.56,0,21.26-12.81,40.42-32.44,48.55-19.64,8.14-42.25,3.64-57.27-11.39-15.03-15.03-19.53-37.64-11.39-57.28,8.14-19.64,27.3-32.45,48.55-32.45h0Z"/>
      <path class="cls-5" d="m144.1,230.72c-5.45.07-11.81,1.41-17.95,4.81-3.22-3.73-5.76-7.96-7.01-12.73,2.25-5.8,5.4-11.45,9.64-16.11,5.84-3.36,12.18-5.62,18.97-5.35,2.5,3.3,4.8,6.55,6.9,10.15-3.42,3.31-6.07,8.14-7.95,12.37-.71,1.61-1.37,3.26-1.95,4.93-.23.64-.45,1.28-.65,1.94h0Zm16.59-36.66h0c-6.36,1.43-10.27,3.66-12.94,6.03-6.22-.23-12.06,1.56-17.51,4.39,8.41-6.53,18.96-10.41,30.44-10.41h0Zm11.29,1.29c5.22,1.21,10.12,3.24,14.57,5.94-2.07-.54-4.18-.9-6.34-1.02-1.73-1.55-4.42-3.33-8.23-4.93h0Zm18.36,8.5c6.19,4.59,11.28,10.59,14.8,17.52.46,5.34,0,10.11-1.85,15.01-1.35-1.17-4.16-2.49-6.13-3.3-2.61-1.07-5.81-2.02-8.22-2.28-.83-2.59-1.91-5.14-3.11-7.54-.97-1.94-2.05-3.84-3.25-5.65-.11-.16-.21-.31-.32-.47-.98-1.41-2.07-2.76-3.24-4.03-.44-.48-.91-.96-1.4-1.43,2.32-3.94,3.44-7.42,3.18-10.13,3.29.26,6.47,1.08,9.53,2.29h0Zm16.2,20.52c2.56,6,3.98,12.6,3.98,19.53,0,5.31-.83,10.43-2.38,15.24-.4-.05-.8-.11-1.2-.16-1.29-.2-2.61-.45-3.92-.77.81-2.19,1.47-6.74,1.66-9.99.2-3.32.51-8.16-.52-10.64,1.78-4.37,2.47-8.63,2.39-13.21h0Zm1.2,35.96c-4.79,13.73-15.43,24.72-28.92,29.99-.78-2.7-1.81-4.89-2.78-6.79,2.65-2.82,5.11-5.88,7.22-9.11,1.81-2.77,3.46-5.81,4.56-8.95,6.93-.8,12.81-3.81,14.59-6.14,1.45.37,2.91.65,4.34.87.33.05.66.1.98.14h0Zm-63.38,30.58c-10.07-3.49-18.66-10.11-24.62-18.69-.23-1.62-.57-3.55-1.06-5.35,1.06-1.56,2.18-3.06,3.39-4.5,1.31-1.56,2.69-3.03,4.14-4.45,3.26,2.56,9.68,5.61,16.77,8.14.61,2.45,1.49,4.88,2.49,7.11,1.56,3.5,4.02,7.77,7.09,10.38-2.02,2.6-5.11,5.25-8.2,7.37h0Zm-29.45-27.45c-2.58-6-4.02-12.61-4.02-19.57,0-6,1.1-11.75,3.05-17.08l4.22-2.94c1.37,4.71,3.94,8.89,7.17,12.59-.46,2.2-.65,5.47-.75,7.91-.19,4.55-.05,9.31.84,12.59-1.51,1.46-2.95,3-4.29,4.61-1.1,1.32-2.13,2.68-3.11,4.08-1.02-.89-2.07-1.63-3.11-2.18h0Zm72.93-32.07c-2.87,6.56-6.34,11.86-9.88,17.21-6.89,1.91-15.27,1.12-22.15-.14-3.62-5.71-7.17-11.05-10.61-17.15.22-.71.46-1.42.71-2.12.57-1.64,1.21-3.25,1.91-4.84,1.84-4.16,4.49-9,7.89-12.18,3.85-.2,7.61-.4,11.09-.39,3.5,0,6.74.24,9.7.55.57.52,1.11,1.08,1.62,1.63,1.13,1.21,2.18,2.52,3.13,3.89.1.15.2.3.3.45,1.17,1.76,2.23,3.62,3.18,5.51,1.21,2.41,2.29,4.99,3.11,7.58h0Zm-12.84,51.44c-4.9.51-11.84.75-21.41-.05-3.02-2.46-5.47-6.74-6.99-10.13-.96-2.16-1.83-4.53-2.41-6.91,3.81-5.07,7.88-10.46,11.69-16.01,6.94,1.25,15.21,1.99,22.15.15,2.86,4.9,5.85,10.08,8.7,14.98-1.07,3.12-2.71,6.14-4.5,8.88-2.11,3.23-4.57,6.28-7.23,9.09h0Z"/>
    </g>
  </g>
</svg>