<?xml version="1.0" encoding="UTF-8"?>
<svg id="Layer_2" data-name="Layer 2" xmlns="http://www.w3.org/2000/svg" viewBox="0 0 341.24 563.02">
  <defs>
    <style>
      .cls-1 {
        fill: none;
      }

      .cls-1, .cls-2, .cls-3, .cls-4, .cls-5, .cls-6, .cls-7, .cls-8, .cls-9, .cls-10 {
        stroke-width: 0px;
      }

      .cls-2 {
        fill: #009246;
      }

      .cls-2, .cls-3, .cls-4, .cls-5, .cls-6, .cls-7, .cls-8, .cls-9, .cls-10 {
        fill-rule: evenodd;
      }

      .cls-3 {
        fill: #1c1e1c;
      }

      .cls-4 {
        fill: #191e18;
      }

      .cls-5 {
        fill: #1b1918;
      }

      .cls-6 {
        fill: #e20612;
      }

      .cls-7 {
        fill: #ce2b37;
      }

      .cls-8 {
        fill: #fff;
      }

      .cls-9 {
        fill: #e5bb5c;
      }

      .cls-10 {
        fill: #ee212e;
      }
    </style>
  </defs>
  <g id="Ebene_1" data-name="Ebene 1">
    <g id="g951">
      <g id="g869">
        <path id="path833" class="cls-3" d="m190.48,71.98c-1.83,1.79-4.97,3.03-7,3.03-7.62,0-10.65-4.44-10.65-10.68,0-4.58,3.7-9.79,9.99-9.71,6.1.08,10.88,5.93,10.9,14.19.02,10.01-9.15,20.58-19.83,22.39l-4.13,4.34c15.18-.4,30.95-11,30.95-27.34,0-9.88-8.07-18.69-18.1-18.69s-16.88,8.55-16.95,16.79c-.07,7.63,6.16,13.42,14.51,13.42,1.44,0,3.19-.15,5.28-.97,1.87-1.28,4.64-5.72,5.03-6.79Z"/>
        <path id="path835" class="cls-3" d="m143.86,91.04c-3.85,0-11.14-1.97-11.14-8.87,0-3.85,3.56-6.8,7.31-8.77,7.12,2.71,14.58,4.68,14.54,10.14-.04,4.97-6.43,7.5-10.71,7.5Zm-.76-36.85c3.05,0,8.89,1.69,8.86,7.26-.02,4.21-3.34,6.17-5.18,7.53-5.68-2.15-12.61-3.98-12.61-9.18,0-4.28,5.15-5.62,8.92-5.62Zm.4-4.68c-10.77.06-16.12,5.35-16.12,11.95,0,5.3,3.64,8.39,8.07,10.04-3.54,1.81-9.69,3.55-9.73,11.78-.04,7.55,8.91,12.27,17.77,12.27,6.75,0,18.05-3.95,17.96-12.8-.08-7.41-5.51-9.54-10.6-12.3,7.18-3.54,7.93-7.19,7.93-9.75,0-6.25-6.01-11.25-15.28-11.19h0Z"/>
        <path id="path837" class="cls-3" d="m117.99,95.56v-.69c-2.27-1.37-3.14-2.23-3.13-7.31.02-12.71.03-25.31.05-38.02h-1.69c-3.08,4.01-7.64,8.88-12.64,10.06l-.31,1.23,5.82-.05c.91,0,1.78-.51,1.77,2.83l-.04,24.31c0,5.14-1.52,6.21-4.26,7.01v.63h14.43Z"/>
        <path id="path839" class="cls-3" d="m169.86,192.42v-1.47c-1.77-.25-1.8-1.32-1.82-4.84l-.06-15.22c-.01-3.56-.25-4.3,1.97-4.75v-1.47l-9.13.02v1.47c1.28.37,2.15.43,2.15,3.99v15.46c0,3.61.46,5.15-2.13,5.36v1.47h9.01Z"/>
        <path id="path841" class="cls-3" d="m152.18,188.48c-1.3.02-3.45-.02-4.39-.12-.91-.1-1.4-.17-1.4-2.14v-15.32c0-3.6-.23-4.23,2.43-4.69v-1.47l-9.44-.02v1.47c2.25.02,2.07,1.48,2.02,5.09l-.2,15.05c-.04,3.52.09,4.63-1.8,4.61v1.47h17.94c.51-1.89,1.92-5.01,2.49-6.65l-.76-.07c-1.16.99-3.52,2.75-6.9,2.81h0Z"/>
        <path id="path843" class="cls-3" d="m122.36,167.97c4.82,0,9.85,3.89,9.77,11.06-.08,6.85-5.51,10.26-9.49,10.26-5.36,0-10.55-4.3-10.56-10.91,0-7.01,6.04-10.4,10.27-10.4h0Zm.17-3.32c-9.59,0-16.07,6.96-16.07,14.17,0,8.04,7.95,13.58,16.33,13.58,7.88,0,15.17-4.98,15.17-14.03,0-8.3-7.8-13.72-15.43-13.72h0Z"/>
        <path id="path845" class="cls-3" d="m97.55,188.55c-5.7-.13-10.39-4.01-10.2-10.63.18-6.16,3.47-9.34,9.54-9.4,3.82-.04,5.39,1.23,7.47,2.8l.15-5.72c-1.07-.37-4.49-.92-7.88-.91-9.82.04-15.26,6.14-15.22,13.52.04,6.66,4.1,14.26,15.25,14.26,2.85,0,6.47-.56,7.56-.93.66-1.16,1.97-3.4,2.67-5.73l-.56-.28c-1.6,1.06-4.62,3.12-8.77,3.02h0Z"/>
        <path id="path847" class="cls-3" d="m78.11,171.54l-.13-6.13c-.75-.29-4.44-.71-7.12-.71-7.28,0-10.6,3.05-10.56,7.01.04,4.02,3.2,6.34,7.68,8.15,3.48,1.4,6.91,2.96,7.04,5.42.1,1.86-3.14,3.55-5.69,3.54-3.66-.01-7.31-1.78-10.34-4.31.6,2.2,1.2,4.4,1.8,6.59,1.34,1.45,7.07,1.32,7.8,1.32,7.52,0,11.86-3.68,11.86-8.46,0-4.15-4.52-5.98-9.16-8.05-3.7-1.65-5.18-2.8-5.24-4.72-.07-2.05,2.71-3.07,5.06-3.07,3.43,0,5.92,1.89,6.41,3.4l.6.02Z"/>
        <path id="path849" class="cls-3" d="m47.87,178.38l-6.89-.02,3.34-8.08h.12l3.42,8.1Zm12.21,14.05v-1.47c-1.64-.22-2.38-1.55-3.92-5.19l-8.37-19.74v-1.26s-7.58-.07-7.58-.07l-.64,1.02c1.69.54,1.77,1.5,1.2,2.88l-7.42,17.88c-1.45,3.49-1.72,4.12-3.58,4.47l-.04,1.47h8.59v-1.47c-1.87-.28-2.23-.55-1.38-2.47l2.76-6.28,9.53.04,2.46,6.26c.72,1.82.68,2.32-.96,2.45v1.47h9.36Z"/>
        <path id="path851" class="cls-3" d="m192.26,188.55c-4.99-.1-9.77-3.86-9.57-10.47.18-6.16,2.84-9.49,8.92-9.55,3.82-.04,5.31,1.62,7.39,3.19l.23-6.11c-1.07-.37-4.49-.92-7.88-.91-9.82.04-14.13,6.3-14.09,13.68.03,6.66,4.02,14.1,14.11,14.1,2.85,0,6.47-.56,7.56-.93.29-1.17.97-2.85,2.23-5.29l-.67-.51c-1.66,1.08-4.31,2.89-8.22,2.82h0Z"/>
        <path id="path853" class="cls-3" d="m217.23,178.38l-6.89-.02,3.34-8.08h.12l3.42,8.1Zm12.21,14.05v-1.47c-1.64-.22-2.38-1.55-3.92-5.19l-8.37-19.74v-1.26s-7.58-.07-7.58-.07l-.64,1.02c1.69.54,1.77,1.5,1.2,2.88l-7.42,17.88c-1.45,3.49-1.72,4.12-3.58,4.47l-.04,1.47h8.59v-1.47c-1.87-.28-2.23-.55-1.38-2.47l2.76-6.28,9.53.04,2.46,6.26c.72,1.82.68,2.32-.96,2.45v1.47h9.36Z"/>
        <path id="path855" class="cls-3" d="m241.47,188.48c-1.3.02-3.24.09-4.18,0-.91-.1-1.61-.29-1.61-2.26v-15.32c0-3.6-.21-4.46,1.72-4.69v-1.47l-8.5-.02v1.47c2.25.02,2.26.47,2.25,4.07l-.04,15.01c0,3.51.06,5.61-1.48,5.67v1.47h16.29c.51-1.89,1.92-5.01,2.49-6.65l-.76-.07c-1.16.99-2.81,2.75-6.19,2.81h0Z"/>
        <path id="path857" class="cls-3" d="m263.36,188.55c-4.99-.1-9.77-3.86-9.57-10.47.18-6.16,2.84-9.49,8.92-9.55,3.82-.04,5.31,1.62,7.39,3.19l.23-6.11c-1.07-.37-4.49-.92-7.88-.91-9.82.04-14.13,6.3-14.09,13.68.03,6.66,4.02,14.1,14.11,14.1,2.85,0,6.47-.56,7.56-.93.29-1.17.97-2.85,2.23-5.29l-.67-.51c-1.66,1.08-4.31,2.89-8.22,2.82Z"/>
        <path id="path859" class="cls-3" d="m280.87,192.42v-1.47c-1.77-.25-1.8-1.32-1.82-4.84l-.06-15.22c-.01-3.56-.25-4.3,1.97-4.75v-1.47l-9.13.02v1.47c1.28.37,2.15.43,2.15,3.99v15.46c0,3.61.46,5.15-2.13,5.36v1.47h9.01Z"/>
        <path id="path861" class="cls-3" d="m296.67,167.93c4.69.19,9.23,3.82,9.15,10.98-.08,6.85-5.03,10.06-9.94,10.06-5.36,0-8.93-4.18-8.93-10.8,0-7.01,5.5-10.41,9.73-10.25h0Zm-.78-3.28c-9.59.04-14.3,6.96-14.3,14.17,0,8.04,6.24,13.57,15.07,13.61,7.52.03,14.52-5.95,14.56-14.22.04-8.29-6.1-13.6-15.32-13.56h0Z"/>
        <path id="path863" class="cls-3" d="m223.46,91.04c-3.85,0-11.14-1.97-11.14-8.87,0-3.85,3.56-6.8,7.31-8.77,7.12,2.71,14.58,4.68,14.54,10.14-.04,4.97-6.43,7.5-10.71,7.5Zm-.77-36.85c3.05,0,8.89,1.69,8.86,7.26-.02,4.21-3.34,6.17-5.18,7.53-5.68-2.15-12.6-3.98-12.6-9.18,0-4.28,5.15-5.62,8.92-5.62h0Zm.4-4.68c-10.77.06-16.12,5.35-16.12,11.95,0,5.3,3.64,8.39,8.07,10.04-3.54,1.81-9.69,3.55-9.73,11.78-.03,7.55,8.91,12.27,17.77,12.27,6.75,0,18.05-3.95,17.96-12.8-.08-7.41-5.51-9.54-10.6-12.3,7.18-3.54,7.93-7.19,7.93-9.75,0-6.25-6.01-11.25-15.28-11.19Z"/>
        <path id="path865" class="cls-3" d="m54.5,113.14h232v33.26H54.5v-33.26Zm155.72,3.19v26.89h73.09v-26.89h-73.09Zm-3.19,26.89v-26.89h-73.34v26.89h73.34Zm-76.53-26.89H57.69v26.89h72.82v-26.89Z"/>
        <path id="path867" class="cls-5" d="m76.92,320.81h-9.71v23.31h56.05v-23.31h-8.61m-50.58-70.8v10.61h-5.85v-10.59m50.35,70.78h-9.73m-6.07,0h-9.75s9.75,0,9.75,0Zm44.57-43.36l-13.81,25.37h27.75s-13.93-25.37-13.93-25.37Zm-87.63-27.42v10.59h-6.24v-10.59h-6.21v16.49l5.99,7.06.62.73v120.45h18.15v-79.85h0l-.02-39.68v-.89l.54-.7,6.7-8.68v-14.93h-19.53Zm17.5,99.29v45.44h4.42v-25.22c0-3.06,1.25-5.83,3.26-7.84,2.01-2.01,4.79-3.26,7.84-3.26h.02c3.06,0,5.83,1.25,7.84,3.26,2.01,2.01,3.26,4.79,3.26,7.84v25.22h4.23v-25.22c0-3.06,1.25-5.83,3.26-7.84,2.01-2.01,4.79-3.26,7.84-3.26h.02c3.06,0,5.83,1.25,7.84,3.26,2.01,2.01,3.26,4.79,3.26,7.84v25.22h2.95v-45.44h-56.05Zm0-34.65h56.3v-6.67h-8.68s2.08-3.83,2.08-3.83l18.16-33.36,2.27-4.16,2.28,4.15,18.32,33.36,2.11,3.84h-9.86v86.76h0v5.2H38.66v-123.75l-5.99-7.06-.62-.73v-23.58h42.38v21.87l-.55.71-6.71,8.69.02,38.56Zm21.46,80.09v-25.22c0-1.62-.67-3.1-1.74-4.17-1.07-1.07-2.55-1.74-4.17-1.74h-.02c-1.62,0-3.1.66-4.17,1.74-1.07,1.07-1.74,2.55-1.74,4.17v25.22h11.83Zm40.04-86.76v86.76h16.29v-86.76h-16.29Zm-25.42,86.76h11.83v-25.22c0-1.62-.66-3.1-1.74-4.17s-2.55-1.74-4.17-1.74h-.02c-1.62,0-3.1.66-4.17,1.74-1.07,1.07-1.74,2.55-1.74,4.17v25.22Z"/>
      </g>
      <path id="path871" class="cls-1" d="m49.09,286.2h8.55v15.31h-8.55v-15.31Z"/>
      <path id="path873" class="cls-1" d="m49.09,357.06h8.55v17.02h-8.55v-17.02Z"/>
      <path id="path875" class="cls-1" d="m132.7,357.06h9.03v17.02h-9.03v-17.02Z"/>
      <path id="path877" class="cls-4" d="m132.7,357.06h9.03v17.02h-9.03v-17.02Z"/>
      <path id="path879" class="cls-4" d="m132.7,317.61h9.73v17.02h-9.73v-17.02Z"/>
      <path id="path881" class="cls-4" d="m49.09,357.06h8.55v17.02h-8.55v-17.02Z"/>
      <path id="path883" class="cls-4" d="m49.09,286.2h8.55v15.31h-8.55v-15.31Z"/>
      <path id="path885" class="cls-9" d="m57.64,301.51h-8.55v-15.31h8.55v15.31Zm4.37,93.25v-79.85h0l-.02-39.68v-.89l.54-.7,6.7-8.68v-14.93h-5.16v10.59h-5.85v-10.59h-8.52v10.59h-6.24v-10.59h-6.21v16.49l5.99,7.06.62.73v120.45h18.15Zm-12.93-37.7h8.55v17.02h-8.55v-17.02Z"/>
      <path id="path887" class="cls-9" d="m123.26,349.32h-56.05v45.44h4.42v-25.22c0-3.06,1.25-5.83,3.26-7.84,2.01-2.01,4.79-3.26,7.84-3.26h.02c3.06,0,5.83,1.25,7.84,3.26,2.01,2.01,3.26,4.79,3.26,7.84v25.22h4.23v-25.22c0-3.06,1.25-5.83,3.26-7.84,2.01-2.01,4.79-3.26,7.84-3.26h.02c3.06,0,5.83,1.25,7.84,3.26,2.01,2.01,3.26,4.79,3.26,7.84v25.22h2.95v-45.44Z"/>
      <path id="path889" class="cls-9" d="m128.69,308v86.76h16.29v-86.76h-16.29Zm13.74,26.64h-9.73v-17.02h9.73v17.02Zm-9.73,22.42h9.03v17.02h-9.03v-17.02Z"/>
      <path id="path891" class="cls-9" d="m123.53,302.82h27.75s-13.93-25.37-13.93-25.37l-13.81,25.37Z"/>
      <path id="path893" class="cls-1" d="m76.92,320.4h6.12v16.5h-6.12v-16.5Z"/>
      <path id="path895" class="cls-1" d="m92.76,320.59h6.09v16.19h-6.09v-16.19Z"/>
      <path id="path897" class="cls-1" d="m108.57,320.46h6.09v16.37h-6.09v-16.37Z"/>
      <path id="path899" class="cls-4" d="m83.05,336.9v-16.5h-6.12v.4s0,16.09,0,16.09h6.12Z"/>
      <path id="path901" class="cls-4" d="m92.76,320.59v16.19h6.09v-16.19h-6.09Z"/>
      <path id="path903" class="cls-4" d="m108.57,320.81v16.03h6.1v-16.02s0-.35,0-.35h-6.09v.35Z"/>
      <path id="path905" class="cls-9" d="m83.05,336.9h-6.12v-16.09s-9.71,0-9.71,0v23.31h56.05v-23.31h-8.59v16.03h-6.09v-16.03h-9.72v15.96h-6.09v-15.97h-9.72v16.09Z"/>
      <path id="path907" class="cls-6" d="m82.73,363.63c-1.62,0-3.1.66-4.17,1.74-1.07,1.07-1.74,2.55-1.74,4.17v25.22h11.83v-25.22c0-1.62-.67-3.1-1.74-4.17-1.07-1.07-2.55-1.74-4.17-1.74h-.02Z"/>
      <path id="path909" class="cls-6" d="m103.28,369.53v25.22h11.83v-25.22c0-1.62-.66-3.1-1.74-4.17s-2.55-1.74-4.17-1.74h-.02c-1.62,0-3.1.66-4.17,1.74-1.07,1.07-1.74,2.55-1.74,4.17Z"/>
      <path id="path911" class="cls-9" d="m331.79,280.76c0-75.57-18.37-143.71-48.14-192.91C254.32,39.36,213.97,9.45,169.5,9.45s-83.96,29.73-112.72,77.93c-29.39,49.26-47.33,117.65-47.33,193.51s17.97,144.74,47.42,194.34c28.73,48.39,68.33,78.34,112.56,78.34s84.72-30.21,114.07-78.97c29.85-49.58,48.28-118.18,48.28-193.85h0Zm-40.06-197.78c30.61,50.59,49.5,120.47,49.5,197.78s-18.95,147.73-49.65,198.72c-31.05,51.58-74.19,83.54-122.16,83.54s-90.24-31.73-120.68-83C18.48,429.04,0,358.54,0,280.89S18.46,133.22,48.69,82.54C79.15,31.48,121.63,0,169.5,0s91.19,31.66,122.24,82.98h0Z"/>
      <path id="path913" class="cls-9" d="m12.94,202.94l315.41.06v9.41l-315.41-.06v-9.41Z"/>
      <path id="path915" class="cls-3" d="m208.24,545.68V212.39h-39.25s0,341.19,0,341.19c.15,0,.3,0,.44,0,13.37,0,26.36-2.74,38.8-7.89h0Z"/>
      <path id="path917" class="cls-3" d="m232.53,212.39v319.69c14.23-10.14,27.42-23.59,39.25-39.77V212.4h-39.25Z"/>
      <path id="path919" class="cls-3" d="m295.35,212.41v240.3c22.8-47.02,36.44-106.86,36.44-171.94,0-23.63-1.79-46.53-5.17-68.35h-31.26Z"/>
      <path id="path921" class="cls-8" d="m232.53,532.09V212.39h-24.29s0,333.29,0,333.29c8.37-3.47,16.49-8.03,24.29-13.6Z"/>
      <path id="path923" class="cls-8" d="m271.77,212.4v279.91c4.08-5.58,8-11.49,11.74-17.7,4.18-6.94,8.13-14.26,11.85-21.91v-240.3h-23.58Z"/>
      <path id="path925" class="cls-8" d="m133.7,116.33h73.34v26.89h-73.34v-26.89Z"/>
      <path id="path927" class="cls-8" d="m54.5,113.14h232v33.26H54.5v-33.26Zm49.06-18.21c2.74-.81,4.25-1.87,4.26-7.01l.04-24.31c0-3.34-.86-2.84-1.77-2.83l-5.82.05.31-1.23c5-1.18,9.56-6.05,12.64-10.06h1.69s-.05,38.02-.05,38.02c0,5.07.86,5.93,3.13,7.31v.69h-14.43v-.63Zm39.93.64c-8.86,0-17.8-4.72-17.77-12.27.04-8.23,6.19-9.97,9.73-11.78-4.43-1.65-8.07-4.74-8.07-10.04,0-6.61,5.35-11.89,16.12-11.95,9.27-.06,15.28,4.95,15.28,11.19,0,2.56-.74,6.21-7.93,9.75,5.08,2.76,10.52,4.9,10.6,12.3.09,8.86-11.2,12.8-17.96,12.8Zm36.68-15.83c-8.35,0-14.58-5.8-14.51-13.42.08-8.24,6.5-16.79,16.95-16.79s18.1,8.81,18.1,18.69c0,16.34-15.77,26.94-30.95,27.34l4.13-4.34c10.68-1.82,19.85-12.39,19.83-22.39-.02-8.27-4.8-14.12-10.9-14.19-6.29-.08-9.99,5.13-9.99,9.71,0,6.25,3.02,10.68,10.65,10.68,2.03,0,5.18-1.25,7-3.03-.39,1.07-3.17,5.51-5.03,6.79-2.08.82-3.83.97-5.28.97h0Zm-109.32,84.97c2.68,0,6.37.42,7.12.71l.13,6.13-.6-.02c-.49-1.51-2.98-3.4-6.41-3.4-2.35,0-5.13,1.02-5.06,3.07.06,1.91,1.55,3.06,5.24,4.72,4.64,2.08,9.16,3.91,9.16,8.05,0,4.78-4.34,8.45-11.86,8.46-.73,0-6.47.12-7.8-1.32l-1.8-6.59c3.03,2.54,6.68,4.3,10.34,4.31,2.55,0,5.79-1.68,5.69-3.54-.13-2.47-3.56-4.02-7.04-5.42-4.48-1.81-7.64-4.13-7.68-8.15-.04-3.96,3.28-7.01,10.56-7.01h0Zm-54.83,38.24l309.03.06c-7.87-44.16-22.28-83.56-41.4-115.15C254.32,39.36,213.97,9.45,169.5,9.45s-83.96,29.73-112.72,77.93c-18.89,31.65-33.04,71.21-40.75,115.57h0Zm65.39-24.73c-.04-7.38,5.4-13.48,15.22-13.52,3.39-.01,6.81.54,7.88.91l-.15,5.72c-2.08-1.57-3.65-2.84-7.47-2.8-6.07.06-9.36,3.24-9.54,9.4-.2,6.61,4.5,10.49,10.2,10.63,4.16.1,7.18-1.96,8.77-3.02l.56.28c-.69,2.33-2,4.57-2.67,5.73-1.09.37-4.71.93-7.56.93-11.14,0-15.21-7.6-15.25-14.26h0Zm-21.33,12.75v1.47h-9.36v-1.47c1.64-.13,1.67-.62.96-2.45l-2.46-6.26-9.53-.04-2.76,6.28c-.84,1.92-.48,2.19,1.38,2.47v1.47h-8.59l.04-1.47c1.87-.35,2.14-.98,3.58-4.47l7.42-17.88c.57-1.39.49-2.35-1.2-2.88l.64-1.02,7.59.07v1.26s8.36,19.74,8.36,19.74c1.54,3.64,2.28,4.97,3.92,5.19h0Zm221.51-12.15c0-7.21,4.71-14.13,14.3-14.17,9.23-.04,15.36,5.27,15.32,13.56-.04,8.27-7.03,14.25-14.56,14.22-8.83-.04-15.07-5.57-15.07-13.61Zm-58.5-83.25c-8.86,0-17.8-4.72-17.77-12.27.04-8.23,6.19-9.97,9.73-11.78-4.43-1.65-8.07-4.74-8.07-10.04,0-6.61,5.35-11.89,16.12-11.95,9.27-.06,15.28,4.95,15.28,11.19,0,2.56-.74,6.21-7.93,9.75,5.08,2.76,10.52,4.9,10.6,12.3.09,8.86-11.2,12.8-17.96,12.8Zm-100.57,69.08c7.62,0,15.43,5.42,15.43,13.72,0,9.05-7.29,14.03-15.17,14.03-8.38,0-16.33-5.53-16.33-13.58,0-7.21,6.48-14.17,16.07-14.17Zm106.38,1.53v-1.47l8.5.02v1.47c-1.94.23-1.72,1.09-1.72,4.69v15.32c0,1.97.71,2.16,1.61,2.26.94.1,2.88.03,4.18,0,3.38-.06,5.03-1.82,6.19-2.81l.76.07c-.57,1.64-1.98,4.76-2.49,6.65h-16.29v-1.47c1.53-.06,1.47-2.15,1.48-5.67l.04-15.01c0-3.6,0-4.05-2.25-4.07h0Zm19.45,12.19c-.04-7.38,4.27-13.64,14.09-13.68,3.39-.01,6.81.54,7.88.91l-.23,6.11c-2.08-1.57-3.57-3.23-7.39-3.19-6.07.06-8.74,3.4-8.92,9.55-.19,6.61,4.58,10.38,9.57,10.47,3.91.07,6.56-1.74,8.22-2.82l.67.51c-1.26,2.45-1.94,4.12-2.23,5.29-1.09.37-4.71.93-7.56.93-10.09,0-14.08-7.44-14.11-14.1h0Zm23.5,12.6c2.59-.21,2.13-1.75,2.13-5.36v-15.46c0-3.56-.86-3.62-2.15-3.99v-1.47l9.13-.02v1.47c-2.22.45-1.99,1.19-1.97,4.75l.06,15.22c.01,3.52.04,4.58,1.82,4.84v1.47h-9.01s0-1.45,0-1.45Zm-80.51-26.28c3.39-.01,6.81.54,7.88.91l-.23,6.11c-2.08-1.57-3.57-3.23-7.39-3.19-6.07.06-8.74,3.4-8.92,9.55-.19,6.61,4.58,10.38,9.57,10.47,3.91.07,6.56-1.74,8.22-2.82l.67.51c-1.26,2.45-1.94,4.12-2.23,5.29-1.09.37-4.71.93-7.56.93-10.09,0-14.08-7.44-14.11-14.1-.04-7.38,4.27-13.64,14.09-13.68h0Zm11.35,21.8l7.42-17.88c.57-1.39.49-2.35-1.2-2.88l.64-1.02,7.59.07v1.26s8.36,19.74,8.36,19.74c1.54,3.64,2.28,4.97,3.92,5.19v1.47h-9.36v-1.47c1.64-.13,1.67-.62.96-2.45l-2.46-6.26-9.53-.04-2.76,6.28c-.84,1.92-.48,2.19,1.38,2.47v1.47h-8.59l.04-1.47c1.87-.35,2.14-.98,3.58-4.47h0Zm-61.49-.18l.2-15.05c.05-3.6.22-5.07-2.02-5.09v-1.47l9.44.02v1.47c-2.66.47-2.43,1.09-2.43,4.69v15.32c0,1.97.49,2.05,1.4,2.14.94.1,3.09.15,4.39.12,3.38-.06,5.74-1.82,6.9-2.81l.76.07c-.57,1.64-1.98,4.76-2.49,6.65h-17.94v-1.47c1.89.02,1.75-1.1,1.8-4.61h0Zm21.76-.7v-15.46c0-3.56-.86-3.62-2.15-3.99v-1.47l9.13-.02v1.47c-2.22.45-1.99,1.19-1.97,4.75l.06,15.22c.01,3.52.04,4.58,1.82,4.84v1.47h-9.01s0-1.45,0-1.45c2.59-.21,2.13-1.75,2.13-5.36h0Z"/>
      <path id="path929" class="cls-8" d="m134.18,59.81c0,5.2,6.92,7.03,12.61,9.18,1.85-1.36,5.17-3.32,5.18-7.53.02-5.58-5.81-7.26-8.86-7.26-3.78,0-8.92,1.34-8.92,5.62Z"/>
      <path id="path931" class="cls-8" d="m140.03,73.41c-3.75,1.97-7.31,4.92-7.31,8.77,0,6.9,7.29,8.87,11.14,8.87,4.28,0,10.67-2.53,10.71-7.5.04-5.46-7.42-7.43-14.54-10.14Z"/>
      <path id="path933" class="cls-8" d="m213.78,59.81c0,5.2,6.92,7.03,12.6,9.18,1.85-1.36,5.17-3.32,5.18-7.53.02-5.58-5.81-7.26-8.86-7.26-3.78,0-8.92,1.34-8.92,5.62h0Z"/>
      <path id="path935" class="cls-8" d="m219.63,73.41c-3.75,1.97-7.31,4.92-7.31,8.77,0,6.9,7.29,8.87,11.14,8.87,4.28,0,10.67-2.53,10.71-7.5.04-5.46-7.42-7.43-14.54-10.14Z"/>
      <path id="path937" class="cls-8" d="m47.87,178.38l-3.42-8.1h-.12l-3.34,8.08,6.89.02Z"/>
      <path id="path939" class="cls-8" d="m112.08,178.38c0,6.62,5.2,10.91,10.56,10.91,3.98,0,9.41-3.41,9.49-10.26.08-7.16-4.96-11.06-9.77-11.06-4.23,0-10.28,3.39-10.27,10.4h0Z"/>
      <path id="path941" class="cls-8" d="m213.68,170.28l-3.34,8.08,6.89.02-3.42-8.1h-.13Z"/>
      <path id="path943" class="cls-8" d="m286.94,178.18c0,6.62,3.57,10.8,8.93,10.8,4.92,0,9.87-3.21,9.94-10.06.08-7.16-4.46-10.79-9.15-10.98-4.23-.17-9.73,3.23-9.73,10.25h0Z"/>
      <path id="path945" class="cls-10" d="m168.99,553.58V212.38l-154.49-.03c-3.3,21.88-5.05,44.84-5.05,68.54,0,75.96,17.97,144.74,47.42,194.34,28.64,48.23,68.06,78.14,112.12,78.34h0Zm-52.09-249.4l18.16-33.36,2.27-4.16,2.28,4.15,18.32,33.36,2.11,3.84h-9.86v86.76h0v5.2H38.66v-123.75l-5.99-7.06-.62-.73v-23.58h42.38v21.87l-.55.71-6.71,8.69.02,38.56h56.3v-6.67h-8.68l2.08-3.83Z"/>
      <path id="path947" class="cls-7" d="m210.23,116.33h73.09v26.89h-73.09v-26.89Z"/>
      <path id="path949" class="cls-2" d="m57.69,116.33h72.82v26.89H57.69v-26.89Z"/>
    </g>
  </g>
</svg>