<?xml version="1.0" encoding="UTF-8"?>
<svg id="Layer_2" data-name="Layer 2" xmlns="http://www.w3.org/2000/svg" viewBox="0 0 162.86 208.44">
  <defs>
    <style>
      .cls-1 {
        fill: #0054a4;
      }

      .cls-1, .cls-2, .cls-3, .cls-4, .cls-5, .cls-6 {
        fill-rule: evenodd;
        stroke-width: 0px;
      }

      .cls-2 {
        fill: #7c3520;
      }

      .cls-3 {
        fill: #fff;
      }

      .cls-4 {
        fill: #00a160;
      }

      .cls-5 {
        fill: #ee3124;
      }
    </style>
  </defs>
  <g id="Layer_1-2" data-name="Layer 1">
    <g>
      <path class="cls-1" d="m0,132.12c0,9.22,4.32,17.86,11.66,23.4l69.77,52.92,69.84-52.92c7.34-5.62,11.59-14.18,11.59-23.4V0H0v132.12Z"/>
      <path class="cls-1" d="m4.61,132.12c.07,7.78,3.67,15.05,9.86,19.73l66.96,50.83,67.03-50.83c6.19-4.68,9.79-11.95,9.79-19.73V4.68H4.61v127.44Z"/>
      <path class="cls-5" d="m81.43,202.68l67.03-50.83c6.19-4.68,9.79-11.95,9.79-19.73V4.68L14.4,151.85l67.03,50.83Z"/>
      <polygon class="cls-3" points="142.85 20.45 122.76 41.04 122.76 171.36 142.85 156.1 142.85 20.45"/>
      <polygon class="cls-3" points="107.28 56.81 87.19 77.33 87.19 198.29 107.28 183.02 107.28 56.81"/>
      <polygon class="cls-3" points="71.78 93.1 51.7 113.62 51.7 180.14 71.78 195.33 71.78 93.1"/>
      <polygon class="cls-3" points="36.29 129.45 14.4 151.85 36.29 168.41 36.29 129.45"/>
      <polygon class="cls-3" points="15.48 66.89 13.39 72.58 7.42 72.79 12.17 76.46 10.44 82.3 15.48 78.84 20.45 82.3 18.79 76.46 23.54 72.79 17.5 72.58 15.48 66.89"/>
      <polygon class="cls-3" points="93.53 46.94 91.51 52.63 85.46 52.78 90.22 56.45 88.56 62.28 93.53 58.9 98.57 62.28 96.84 56.45 101.66 52.78 95.54 52.63 93.53 46.94"/>
      <polygon class="cls-3" points="132.55 6.98 130.54 12.67 124.49 12.82 129.31 16.56 127.58 22.32 132.55 18.94 137.59 22.32 135.86 16.56 140.69 12.82 134.64 12.67 132.55 6.98"/>
      <polygon class="cls-3" points="15.48 6.98 13.39 12.67 7.42 12.82 12.17 16.56 10.44 22.32 15.48 18.94 20.45 22.32 18.79 16.56 23.54 12.82 17.5 12.67 15.48 6.98"/>
      <polygon class="cls-3" points="74.02 6.98 72 12.67 65.95 12.82 70.7 16.56 69.05 22.32 74.02 18.94 78.98 22.32 77.33 16.56 82.08 12.82 76.03 12.67 74.02 6.98"/>
      <polygon class="cls-3" points="15.48 126.79 13.39 132.48 7.42 132.7 12.17 136.37 10.44 142.2 15.48 138.82 20.45 142.2 18.79 136.37 23.54 132.7 17.5 132.48 15.48 126.79"/>
      <polygon class="cls-3" points="54.58 86.83 52.49 92.52 46.44 92.74 51.26 96.41 49.54 102.17 54.58 98.78 59.54 102.17 57.89 96.41 62.64 92.74 56.59 92.52 54.58 86.83"/>
      <polygon class="cls-3" points="26.28 108.79 26.28 26.28 106.92 26.28 26.28 108.79"/>
      <path class="cls-6" d="m46.87,52.06c-.29.86-.72,4.18-.79,4.54-.14.43-1.15.58-1.66,0-.58-.5-1.51-3.1-2.66-4.54v11.02c.79.65,2.02.94,2.81.86.86,1.94,1.73,3.82,3.38,5.54-.5,2.66.22,4.32,1.87,5.76,1.66,1.37,0,3.02-.58,3.02-4.25.07,5.54,1.22,5.62.79.07-.5.43-1.15.22-1.66-.86-2.38-1.08-3.74.22-5.83,2.45.36,2.88-1.51,1.58-3.1-.79-1.94.22-1.94-1.66-4.25-1.87-2.3-3.1-8.14-1.66-10.51,1.15-2.02,2.02-3.31-.79-3.02-.72-.58-1.22-1.3-2.02-1.51-.72-.22-1.3.36-2.02.14-1.15-.29-2.3-3.02-3.17-.36-.22.87,1.58,2.23,1.3,3.1Z"/>
      <path class="cls-2" d="m42.34,52.78v22.68c.07,1.58.94,2.23,2.3,2.3l8.42.22h3.31l-1.51,1.58h-1.8l-21.82-.07c-1.37,0-.43-1.3,1.22-1.37l4.82-.36c1.15-.07,1.73-.94,1.73-2.52v-25.78c0-.29-.14-.65-.36-1.01.58.07,1.22.07,1.87.07.72,0,1.51-.07,2.23-.14-.22.29-.43.72-.43,1.08v3.31Z"/>
      <path class="cls-4" d="m47.59,47.23l-2.16.79c-1.51.43-3.17.65-4.9.65-7.49,0-13.54-4.32-13.54-9.72s6.05-9.65,13.54-9.65,13.54,4.32,13.54,9.65c0,3.53-2.59,6.62-6.48,8.28Z"/>
      <path class="cls-5" d="m38.38,34.42c.5,0,.94-.43.94-.94s-.43-.86-.94-.86-.94.36-.94.86.43.94.94.94Z"/>
      <path class="cls-5" d="m32.54,37.01c.5,0,.94-.43.94-.86,0-.58-.43-.94-.94-.94s-.94.36-.94.94c0,.43.43.86.94.86Z"/>
      <path class="cls-5" d="m37.58,43.06c.5,0,.94-.43.94-.94s-.43-.94-.94-.94-.86.43-.86.94.36.94.86.94Z"/>
      <path class="cls-5" d="m46.22,42.98c.5,0,.94-.43.94-.94s-.43-.94-.94-.94-.86.43-.86.94.36.94.86.94Z"/>
      <path class="cls-5" d="m42.41,38.66c.5,0,.94-.36.94-.86s-.43-.94-.94-.94-.94.43-.94.94.43.86.94.86Z"/>
      <path class="cls-5" d="m49.25,36.86c.5,0,.94-.36.94-.86s-.43-.94-.94-.94-.94.43-.94.94.43.86.94.86Z"/>
      <path class="cls-3" d="m44.71,59.69c.14.07.29.29.07.43-.5.22-1.08-.22-1.3-.65.36.14,1.01,0,1.22.22Z"/>
      <path class="cls-3" d="m52.27,77.98v-.86c0-.22.14-.72.43-.5.14.07.07.5.07.72-.07.14-.29.65-.29.65h-.22Z"/>
    </g>
  </g>
</svg>