<?xml version="1.0" encoding="UTF-8"?>
<svg id="Layer_2" data-name="Layer 2" xmlns="http://www.w3.org/2000/svg" xmlns:xlink="http://www.w3.org/1999/xlink" viewBox="0 0 396.96 443.76">
  <defs>
    <style>
      .cls-1 {
        clip-path: url(#clippath);
      }

      .cls-2 {
        fill: none;
      }

      .cls-2, .cls-3, .cls-4, .cls-5, .cls-6, .cls-7, .cls-8 {
        stroke-width: 0px;
      }

      .cls-3 {
        fill: #375a39;
      }

      .cls-3, .cls-4, .cls-5, .cls-6, .cls-7, .cls-8 {
        fill-rule: evenodd;
      }

      .cls-4 {
        fill: #1f1b1a;
      }

      .cls-5 {
        fill: #c31b28;
      }

      .cls-6 {
        fill: #d0be2e;
      }

      .cls-7 {
        fill: #d2bf23;
      }

      .cls-8 {
        fill: #fff;
      }
    </style>
    <clipPath id="clippath">
      <rect class="cls-2" width="396.96" height="443.76"/>
    </clipPath>
  </defs>
  <g id="Layer_1-2" data-name="Layer 1">
    <g>
      <path class="cls-5" d="m51.82,22.25c4.14,4.52,8.29,9.04,12.43,13.56-2.65,2.47-5.31,4.95-7.96,7.43-1.25-1.3-2.49-2.61-3.74-3.91-14.39,7.56-13.65,23.68-4.67,33.41,10.17,11.02,22.41,5.99,31.84-3.9-1.22-1.29-2.44-2.59-3.66-3.88,2.72-2.46,5.44-4.91,8.16-7.37,4.12,4.52,8.25,9.04,12.38,13.56-2.68,2.45-5.36,4.91-8.04,7.37-.53-.51-1.05-1.01-1.57-1.52-15.29,17.04-34.38,16.8-48.32,1.83-12.64-14.33-13.09-35.99,6.66-47.47-.54-.58-1.09-1.16-1.63-1.75,2.71-2.45,5.42-4.9,8.13-7.36h0Z"/>
      <path class="cls-5" d="m334.13,29.7l7.05-7.97,7.39,6.54-.5.56,17.11,15.11.48-.55,7.89,6.98-9.31,10.51-7.88-6.96,1.59-1.79-14.62-12.93-10.64,12.01,5.24,4.64,1.04-1.18,8.12,7.18-9.73,11.01-8.09-7.15,1.6-1.82-5.3-4.68-11.67,13.18,4.27,3.74-7.04,8.09-15.45-13.66,7.08-8.01,3.24,2.86,30.04-33.99-1.91-1.7Z"/>
      <path class="cls-3" d="m64.66,117.49l273.13,308.5-3.17,2.81L61.49,120.3l3.17-2.8Zm275.22,301.72L69.72,114.28l3.17-2.81,270.16,304.95-3.17,2.8Z"/>
      <path class="cls-3" d="m339.3,387.05L86.53,101.75l3.17-2.81,252.77,285.3-3.17,2.8ZM81.39,104.88l259.17,292.73-2.33,4.36L78.21,107.69l3.17-2.81Z"/>
      <path class="cls-3" d="m339.64,356.61L103.26,89.8l3.17-2.81,236.38,266.81-3.17,2.8ZM98.01,92.82l242.55,273.96-2.15,3.9L94.84,95.63l3.17-2.81Z"/>
      <path class="cls-3" d="m339.27,324.51L141.4,101.17l3.17-2.81,197.87,223.34-3.17,2.81ZM115.85,81.3l224.71,253.8-2.19,3.9L112.68,84.11l3.17-2.81Z"/>
      <path class="cls-3" d="m340.1,294.84l-144.45-163.05,3.17-2.81,144.45,163.05-3.17,2.81ZM172.73,114.93l167.83,189.56-2.26,4.02L169.56,117.74l3.17-2.81Z"/>
      <path class="cls-3" d="m339.52,262.51l-124.93-141.02,3.17-2.8,124.93,141.02-3.17,2.81ZM208.06,123.15l132.5,149.66-2.33,3.89L204.89,125.96l3.17-2.81Z"/>
      <path class="cls-3" d="m340.02,232.13l-107.56-121.41,3.17-2.81,107.56,121.41-3.17,2.8Zm-113.64-119.22l114.18,128.96-2.05,4.04-115.31-130.19,3.17-2.81Z"/>
      <path class="cls-3" d="m342.65,203.54l-91.47-103.24,3.17-2.81,90.5,102.16-2.21,3.89Zm-97.46-100.95l95.37,107.72-2.03,4.18-96.52-109.1,3.18-2.81Z"/>
      <path class="cls-3" d="m339.62,168.55l-69.78-78.76,3.17-2.81,69.78,78.76-3.17,2.81Zm-75.71-76.38l76.64,86.57-2.18,3.98-77.64-87.75,3.17-2.81Z"/>
      <g class="cls-1">
        <path class="cls-3" d="m340.66,139.1l-31.21-35.22,3.17-2.81,31.21,35.22-3.17,2.81Zm-58.91-57.4l58.81,66.42-2.11,4.07-59.88-67.69,3.17-2.81Z"/>
        <path class="cls-4" d="m58.32,133.83v282.78c0,2.78,1.09,5.3,2.87,7.11,1.75,1.78,4.18,2.88,6.91,2.88h107.14l.63.27,20.41,8.55,20-8.54.65-.28h96.27L58.32,133.83Zm263.91,292.77h5.84c2.75,0,5.24-1.12,7.05-2.94,1.81-1.81,2.94-4.31,2.94-7.05V126.2l-55.78-40.57-85.63,48.51-1.73.98-1.69-1.02-79.71-48.15-53.54,39.43,262.25,301.23Zm22.63-301.84v291.85c0,4.62-1.89,8.82-4.93,11.86-3.04,3.04-7.24,4.93-11.87,4.93h-109.77l-20.67,8.83-1.32.56-1.31-.55-21.09-8.84h-105.8c-4.61,0-8.75-1.89-11.74-4.93-3-3.05-4.84-7.25-4.84-11.87V125.27c-1.69-7.23-4.4-14.64-8.86-21.5-4.47-6.89-10.74-13.28-19.54-18.48l-1.45-.85-.2-1.67c-.89-7.36-2.77-13.97-5.79-20-3.02-6.03-7.22-11.56-12.75-16.74l-2.93-2.76,3.21-2.43L54.68,1.99,57.33,0l2.06,2.61c9.78,12.38,20.71,21.61,32.35,27.79,11.99,6.36,24.71,9.5,37.7,9.53,13.14.03,26.62-2.2,38.43-6.84,10.5-4.13,19.64-10.17,25.91-18.22l2.44-3.14,2.71,2.91c8.75,9.38,19.28,15.56,31.02,19.42,11.93,3.92,25.12,5.48,38.98,5.59,12.59.1,24.55-3.19,35.64-9.17,11.96-6.44,22.92-15.99,32.59-27.78l2.06-2.51,2.59,1.95,51.31,38.62,3.04,2.28-2.6,2.75c-6.14,6.5-10.33,12.02-13.2,17.74-2.84,5.68-4.44,11.69-5.41,19.19l-.22,1.68-1.46.84c-8.05,4.62-14.29,10.44-18.9,16.9-5,7.01-8.1,14.79-9.52,22.64h0ZM48.34,100.07c4,6.16,6.73,12.67,8.6,19.12l54.39-40.05,1.82-1.34,1.94,1.17,79.96,48.3,85.8-48.61,1.91-1.08,1.76,1.28,54.75,39.82c1.87-7.1,5.02-14.07,9.6-20.48,4.87-6.82,11.34-12.98,19.61-17.99,1.09-7.51,2.85-13.72,5.84-19.71,2.76-5.52,6.53-10.77,11.75-16.59l-45.75-34.43c-9.71,11.32-20.64,20.56-32.52,26.96-12.06,6.5-25.11,10.08-38.91,9.96-14.54-.12-28.41-1.77-41.02-5.91-11.63-3.82-22.19-9.75-31.22-18.52-6.87,7.6-16.02,13.37-26.3,17.42-12.59,4.95-26.94,7.33-40.9,7.29-14.13-.03-27.93-3.42-40.88-10.29-11.6-6.16-22.53-15.13-32.39-27.01L10.44,43.9c4.72,4.91,8.45,10.16,11.3,15.84,3.16,6.32,5.2,13.12,6.26,20.57,9.04,5.61,15.58,12.43,20.34,19.77h0Z"/>
      </g>
      <path class="cls-8" d="m241.04,184.36c-4.34-3.23-9.47-5.86-14.5-7.67-7.69-2.78-18.67-4.14-26.85-4.51-10.15-.46-19.86,2.42-27.53,9.21-6.35,5.62-10.9,13.52-12.45,21.87-.27,1.44-.44,2.91-.51,4.38-.28,6.22.85,12.41,4.07,17.8,3.22,5.4,8.13,9.33,13.75,12.05l.39.2.05.03c6.15,3.31,13.21,5.24,20.05,6.55,8.36,1.61,16.89,2.44,25.36,3.2,6.29.57,12.59,1.38,18.75,2.81,6.56,1.53,12.88,3.75,18.82,6.93,13.31,7.1,25.92,16.57,35.03,28.72,8.36,11.15,13.29,23.92,13.53,37.9.21,12.49-2.95,24.39-7.78,35.82-4.59,10.87-10.52,21.04-19.8,28.54-11.09,8.96-23.81,16.11-37.15,21.12-13.04,4.89-27.16,7.93-41.12,8.17-25.55.44-49.98-9.44-70.5-24.17-20.59-14.79-38.67-35.66-46.81-59.97l-1.15-3.43,21.73-7.27,1.15,3.43c6.62,19.79,21.14,37.31,37.95,49.38,16.57,11.91,36.69,19.49,57.26,19.14,11.32-.2,22.84-2.76,33.41-6.73,11.07-4.16,21.64-10.07,30.85-17.51,6.3-5.09,11.01-11.76,14.15-19.2,3.58-8.48,5.07-17.77,4.91-26.94-.16-9.07-3.54-17.32-8.95-24.54-7.05-9.41-17.18-16.75-27.48-22.25-4.16-2.22-8.67-3.72-13.25-4.79-5.11-1.2-10.32-1.88-15.54-2.35-9.24-.83-18.56-1.73-27.67-3.48-9.14-1.76-18.23-4.39-26.47-8.8-9.62-4.73-17.27-11.75-22.77-20.96-5.53-9.27-8.15-19.58-7.65-30.38.12-2.52.41-5.04.87-7.51,2.47-13.33,9.81-25.63,19.93-34.58,5.61-4.96,12.02-8.89,19.04-11.51,7.88-2.95,16.17-4.12,24.55-3.74,3.48.16,6.95.57,10.38,1.21,7.57,1.4,15.07,2.97,22.41,5.31,2.57.82,5.13,1.78,7.55,2.99v-1.82h22.86v35.8h-22.86v-8.42Z"/>
      <path class="cls-5" d="m244.65,160.6h15.64v28.57h-15.64v-6.58c-4.6-3.71-10.64-7.05-16.88-9.31-7.78-2.81-19.66-4.34-27.92-4.71-12.64-.58-22.76,3.63-30.09,10.11-7.38,6.53-12.02,15.34-13.61,23.92-.3,1.65-.49,3.28-.57,4.87-.34,7.44,1.21,14.18,4.57,19.81,3.3,5.52,8.41,10.12,15.27,13.45l.31.16c6.14,3.31,13.33,5.42,21.08,6.91,8.28,1.59,16.98,2.46,25.71,3.25,6.24.56,12.39,1.37,18.25,2.74,6.15,1.44,12.17,3.51,17.95,6.59,14.19,7.57,25.77,16.94,33.84,27.7,8.03,10.71,12.58,22.77,12.81,35.8.21,12.44-3.08,23.88-7.5,34.35-4.46,10.57-10.08,20.14-18.74,27.14-10.93,8.83-23.37,15.74-36.15,20.54-13.31,5-27.06,7.72-39.91,7.95-24.84.43-48.44-9.21-68.32-23.5-21.02-15.1-37.92-35.59-45.49-58.18l14.87-4.98c6.53,19.51,20.84,37.94,39.27,51.17,17.3,12.43,38.14,20.18,59.43,19.81,11.01-.19,22.95-2.57,34.62-6.96,11.28-4.23,22.25-10.32,31.85-18.08,6.62-5.35,11.75-12.41,15.21-20.6,3.57-8.47,5.38-18.15,5.2-28.41-.16-9.56-3.6-18.54-9.68-26.64-6.66-8.9-16.48-16.77-28.67-23.27-4.37-2.33-9.14-3.95-14.13-5.12-5.28-1.23-10.66-1.95-16.04-2.43-9.37-.84-18.67-1.77-27.32-3.43-9.15-1.76-17.8-4.34-25.49-8.48-9.6-4.7-16.5-11.52-21.32-19.59-4.97-8.32-7.62-17.85-7.14-28.36.11-2.32.38-4.67.81-7.02,2.18-11.8,8.66-23.59,18.77-32.53,10.16-8.99,23.91-15.13,41.03-14.35,3.19.14,6.49.52,9.89,1.15,6.55,1.22,14.27,2.75,21.97,5.21,4.2,1.34,8.64,3.16,12.26,6.08v-4.73Z"/>
      <path class="cls-8" d="m203.68,152.58l115.29,270.73h-42.12v-20.86h8.99l-20.54-48.89H123.8l-20.86,48.89h8.8v20.86h-43.67v-20.86h10.85l105.91-249.88h-8.48v-17.49h37.32v17.49h-10Zm52.05,178.18l-60.62-144.31-61.57,144.31h122.19Z"/>
      <path class="cls-4" d="m179.55,138.28h30.94v11.11h-11.63l115.29,270.73h-34.11v-14.48h10.6l-23.21-55.27H121.7l-23.58,55.27h10.43v14.48h-37.29v-14.48h9.78l108.61-256.25h-10.1v-11.11Zm80.97,195.67l-65.39-155.68-66.42,155.68h131.81Z"/>
      <path class="cls-6" d="m195,51.21l7.76,15.64,17.27,2.55-12.48,12.21,2.91,17.22-15.47-8.09-15.47,8.09,2.91-17.22-12.48-12.21,17.27-2.55,7.76-15.64Z"/>
      <path class="cls-7" d="m195.96,38.19l-.06,7.88h-1.8s.06-7.88.06-7.88h1.8Z"/>
      <path class="cls-7" d="m181.1,40.79l2.98,7.29-1.66.69-2.98-7.29,1.66-.69Z"/>
      <path class="cls-7" d="m168.38,48.91l5.56,5.58-1.27,1.27-5.56-5.57,1.27-1.28Z"/>
      <path class="cls-7" d="m159.78,61.31l7.28,3-.68,1.66-7.28-3,.68-1.66Z"/>
      <path class="cls-7" d="m156.62,76.07l7.88-.04v1.8s-7.86.04-7.86.04v-1.8Z"/>
      <path class="cls-7" d="m159.39,90.91l7.25-3.07.71,1.66-7.25,3.07-.71-1.66Z"/>
      <path class="cls-7" d="m167.66,103.53l5.51-5.62,1.29,1.26-5.51,5.62-1.29-1.26Z"/>
      <path class="cls-7" d="m180.16,111.99l2.92-7.32,1.68.66-2.92,7.32-1.68-.66Z"/>
      <path class="cls-7" d="m194.96,114.98l-.13-7.88,1.8-.04.12,7.88-1.8.04Z"/>
      <path class="cls-7" d="m209.76,112.03l-3.15-7.22,1.65-.72,3.15,7.22-1.65.73Z"/>
      <path class="cls-7" d="m222.29,103.61l-5.69-5.45,1.24-1.3,5.69,5.45-1.24,1.3Z"/>
      <path class="cls-7" d="m230.6,91.01l-7.35-2.83.64-1.68,7.35,2.83-.64,1.68Z"/>
      <path class="cls-7" d="m233.41,76.19l-7.87.22-.06-1.8,7.87-.22.06,1.8Z"/>
      <path class="cls-7" d="m230.29,61.42l-7.18,3.24-.74-1.64,7.18-3.24.74,1.64Z"/>
      <path class="cls-7" d="m221.73,48.99l-5.38,5.75-1.32-1.22,5.38-5.75,1.32,1.23Z"/>
      <path class="cls-7" d="m209.03,40.83l-2.75,7.38-1.69-.62,2.75-7.38,1.69.62Z"/>
      <path class="cls-8" d="m172.67,55.76l-5.56-5.57,1.27-1.28,5.56,5.58-1.27,1.27Zm31.93-8.18l2.74-7.38,1.69.62-2.75,7.38-1.69-.62Zm-38.23,18.4l-7.28-3,.68-1.67,7.28,3-.68,1.66Zm16.04-17.22l-2.98-7.29,1.66-.69,2.98,7.29-1.66.69Zm11.69-2.71l.06-7.88h1.8s-.06,7.88-.06,7.88h-1.8Zm-6.87,20.79l7.76-15.64,7.76,15.64,17.27,2.55-12.48,12.21,2.91,17.22-15.47-8.09-15.47,8.09,2.91-17.22-12.48-12.21,17.27-2.55Zm-72.16,12.11l79.96,48.3,85.8-48.61,1.91-1.08,1.76,1.28,54.75,39.82c1.87-7.1,5.02-14.07,9.6-20.48,4.87-6.82,11.34-12.98,19.61-17.99,1.09-7.51,2.85-13.72,5.84-19.71,2.76-5.52,6.53-10.77,11.75-16.59l-45.75-34.43c-9.71,11.32-20.64,20.56-32.52,26.96-12.06,6.5-25.11,10.08-38.91,9.96-14.54-.12-28.41-1.77-41.02-5.91-11.63-3.82-22.19-9.75-31.22-18.52-6.87,7.6-16.02,13.37-26.3,17.42-12.59,4.95-26.94,7.33-40.9,7.29-14.13-.03-27.93-3.42-40.88-10.29-11.6-6.16-22.53-15.13-32.39-27.01L10.44,43.9c4.72,4.91,8.45,10.16,11.3,15.84,3.16,6.32,5.2,13.12,6.26,20.57,9.04,5.61,15.58,12.43,20.34,19.77,4,6.16,6.73,12.67,8.6,19.12l54.39-40.05,1.82-1.34,1.94,1.17Zm-30.86-21.37l12.38,13.56-8.04,7.37-1.57-1.52c-15.29,17.04-34.38,16.8-48.32,1.83-12.64-14.33-13.09-35.99,6.66-47.47l-1.63-1.75,8.13-7.36,12.43,13.56-7.96,7.43-3.74-3.91c-14.39,7.56-13.65,23.68-4.67,33.41,10.17,11.02,22.41,5.99,31.84-3.9l-3.66-3.88,8.16-7.37Zm138.9,7.07l-.75-1.64,7.18-3.24.75,1.64-7.18,3.24Zm82.89.74l30.04-33.99-1.91-1.7,7.05-7.97,7.39,6.54-.5.56,17.11,15.11.48-.55,7.89,6.98-9.31,10.51-7.88-6.96,1.59-1.79-14.62-12.93-10.64,12.01,5.24,4.64,1.04-1.18,8.12,7.18-9.73,11.01-8.09-7.15,1.6-1.82-5.3-4.68-11.67,13.18,4.27,3.74-7.04,8.09-15.45-13.66,7.08-8.01,3.24,2.86Zm-75.41,25.62l-7.35-2.83.64-1.68,7.35,2.83-.64,1.68Zm-73.98-14.94l7.88-.04v1.8s-7.86.04-7.86.04v-1.8Zm65.67,27.54l-5.69-5.45,1.24-1.3,5.69,5.45-1.24,1.3Zm-12.53,8.42l-3.15-7.22,1.65-.72,3.15,7.22-1.65.73Zm-50.37-21.13l7.25-3.07.71,1.66-7.25,3.07-.71-1.66Zm35.57,24.07l-.13-7.88,1.8-.04.12,7.88-1.8.04Zm-27.29-11.45l5.51-5.62,1.29,1.26-5.51,5.62-1.29-1.26Zm12.5,8.46l2.92-7.32,1.68.66-2.92,7.32-1.68-.66Zm45.38-35.58l-.06-1.8,7.87-.22.06,1.8-7.87.22Zm-10.51-22.88l5.38-5.75,1.32,1.23-5.38,5.75-1.32-1.22Z"/>
      <path class="cls-8" d="m58.32,133.83v282.78c0,2.78,1.09,5.3,2.87,7.11,1.75,1.78,4.18,2.88,6.91,2.88h107.14l.63.27,20.41,8.55,20-8.54.65-.28h96.27l-2.87-3.3h-33.49v-20.86h8.99l-5.61-13.35c-10.81,8.52-23.09,15.34-35.97,20.17-13.04,4.89-27.16,7.93-41.12,8.17-25.55.44-49.98-9.44-70.5-24.17-6.65-4.77-13.03-10.18-18.91-16.14l-10.8,25.32h8.8v20.86h-43.67v-20.86h10.85l18.96-44.75c-5.04-7.63-9.16-15.8-12.05-24.4l-1.15-3.43,21.73-7.27,1.15,3.43c.53,1.59,1.11,3.16,1.75,4.72l37.75-89.08c-1.1-1.49-2.14-3.04-3.11-4.67-1.98-3.32-3.59-6.77-4.81-10.32l-80.84-92.85Z"/>
      <path class="cls-8" d="m249.61,353.56h-125.81l-.39.92c6.41,8.01,13.99,15.11,22.11,20.93,16.57,11.91,36.69,19.49,57.26,19.14,11.32-.2,22.84-2.76,33.41-6.73,10.4-3.91,20.36-9.36,29.16-16.18l-15.75-18.08Z"/>
      <path class="cls-8" d="m133.53,330.76h96.23l-63.64-73.09c-.39-.19-.77-.39-1.15-.6l-31.44,73.69Z"/>
      <path class="cls-8" d="m308.95,399.79l9.64,22.64,3.64,4.18h5.84c1.39,0,2.71-.29,3.91-.8l-23.03-26.01Z"/>
      <path class="cls-8" d="m303.71,387.48l31.74,35.85c1.51-1.66,2.47-3.82,2.6-6.2l-41.8-47.18,7.46,17.53Z"/>
      <path class="cls-8" d="m303,355.18l35.05,39.59v-9.13l-32.8-37.03c-.68,2.21-1.43,4.39-2.25,6.56h0Z"/>
      <path class="cls-8" d="m308.77,330.87l29.29,33.08v-9.13l-29.11-32.86c.03.61.05,1.23.06,1.84.04,2.38-.04,4.73-.23,7.07h0Z"/>
      <path class="cls-8" d="m338.05,401.76l-36.96-41.84c-.86,2.04-1.77,4.04-2.75,6.02l39.71,44.82v-9Z"/>
      <path class="cls-8" d="m306.61,343.76l31.45,35.5v-8.98l-29.96-33.83c-.39,2.46-.89,4.9-1.49,7.31h0Z"/>
      <path class="cls-8" d="m308.16,314.69l29.89,33.75v-9.79l-34.38-38.83c2.1,4.75,3.62,9.72,4.48,14.88h0Z"/>
      <path class="cls-8" d="m226.58,206.36l111.47,125.91v-9.12l-118.89-134.2,7.41,17.41Z"/>
      <path class="cls-8" d="m213.93,176.65l124.12,140.11v-8.53l-118.01-133.42c-2.41-.56-4.95-1.02-7.49-1.4l1.38,3.23Z"/>
      <path class="cls-8" d="m241.66,192.78l96.39,108.88v-9.12l-88.37-99.75h-8.02Z"/>
      <path class="cls-8" d="m255.34,192.78l82.71,93.36v-9.64l-74.15-83.82v.11h-8.56Z"/>
      <path class="cls-8" d="m263.9,186.23l74.15,83.75v-9.13l-74.15-83.7v9.07Z"/>
      <path class="cls-8" d="m263.9,170.77l74.15,83.7v-9.07l-74.15-83.73v9.1Z"/>
      <path class="cls-8" d="m228.97,115.84l109.09,123.21v-9.13l-103.75-117.1-5.34,3.02Z"/>
      <path class="cls-8" d="m238.07,110.68l99.98,112.85v-9.58l-94.24-106.52-5.74,3.25Z"/>
      <path class="cls-8" d="m247.58,105.29l90.47,102.19v-9.13l-85.12-96.09-5.35,3.03Z"/>
      <path class="cls-8" d="m256.7,100.13l81.36,91.84v-9.61l-75.62-85.47-5.73,3.25Z"/>
      <path class="cls-8" d="m266.2,94.74l71.86,81.16v-9.13l-66.5-75.07-5.35,3.03Z"/>
      <path class="cls-8" d="m275.32,89.58l62.73,70.81v-8.65l-57.57-65.09-5.16,2.93Z"/>
      <path class="cls-8" d="m290.6,91.69l47.46,53.6v-9.13l-24.81-28-22.65-16.47Z"/>
      <path class="cls-8" d="m329.16,119.73l8.89,10.05v-3.58l-8.89-6.47Z"/>
      <path class="cls-8" d="m259.75,156.98l-34.55-39.01-5.38,3.05,31.86,35.97h8.06Z"/>
      <path class="cls-8" d="m246.03,156.98l-29.97-33.83-5.33,3.02,27.92,31.53c.81.34,1.61.71,2.39,1.1v-1.82h4.99Z"/>
      <path class="cls-8" d="m230.48,154.89l-16.81-19v9.85l5.65,6.38c3.75.8,7.47,1.7,11.16,2.77h0Z"/>
      <path class="cls-8" d="m204.23,135.09h8.73l-6-6.78-5.82,3.3,3.09,3.49Z"/>
      <path class="cls-8" d="m194.85,135.09l-1.63-.99-7.56-4.56,4.91,5.55h4.27Z"/>
      <path class="cls-8" d="m196.65,134.15l-1.67.94h3.59l-1.2-1.35-.72.41Z"/>
      <path class="cls-8" d="m184.91,135.09l-11.41-12.91-16.82-10.16,20.44,23.07h7.8Z"/>
      <path class="cls-8" d="m176.35,140.63l-31.86-35.97-17.1-10.33,48.96,55.3v-9.01Z"/>
      <path class="cls-8" d="m174.33,153.73l-59.1-66.74-1.72-1.04-4.84,3.57,59.51,67.18c1.99-1.1,4.04-2.09,6.15-2.96h0Z"/>
      <path class="cls-8" d="m164.49,158.91l-59.25-66.87-4.8,3.54,59.18,66.84c1.56-1.25,3.19-2.42,4.86-3.51h0Z"/>
      <path class="cls-8" d="m156.41,165.16l-59.39-67.07-4.88,3.59,60.01,67.74c1.35-1.49,2.77-2.91,4.26-4.27h0Z"/>
      <path class="cls-8" d="m149.38,172.69l-60.67-68.48-4.79,3.53,61.9,69.92c1.11-1.71,2.3-3.37,3.56-4.96h0Z"/>
      <path class="cls-8" d="m143.49,181.56l-63-71.3-5.25,3.86,65.27,73.67c.87-2.13,1.87-4.21,2.97-6.23h0Z"/>
      <path class="cls-8" d="m138.87,192.33l-67.05-75.68-4.79,3.52,70.1,79.18c.01-.08.03-.16.04-.24.43-2.29.99-4.56,1.7-6.78h0Z"/>
      <path class="cls-8" d="m136.41,204.92L63.61,122.7l-3.64,2.68,76.42,87.78c-.16-2.16-.18-4.33-.09-6.53.03-.57.06-1.14.1-1.7h0Z"/>
      <path class="cls-8" d="m164.83,190.12c-1.12,1.82-2.1,3.74-2.92,5.71l3.1,3.5,2.58-6.09-2.76-3.12Z"/>
      <path class="cls-8" d="m163.13,203.79l-2.82-3.19c-.23.88-.43,1.77-.6,2.66-.27,1.44-.44,2.91-.51,4.38-.01.4-.03.81-.04,1.21l1.23,1.39,2.73-6.45Z"/>
      <path class="cls-8" d="m167.32,186.54l2.11,2.38,2.6-6.13-.63-.71c-1.47,1.37-2.83,2.87-4.07,4.46h0Z"/>
      <path class="cls-8" d="m193.08,191.18l-2.6,6.09,17.44,19.7-7.21-17.17-7.63-8.61Z"/>
      <path class="cls-8" d="m213.01,229.07l-24.36-27.5-2.6,6.11,34.19,38.59-7.22-17.2Z"/>
      <path class="cls-8" d="m214.95,246.69l-30.75-34.7-2.6,6.08,24.41,27.56c2.97.41,5.95.75,8.94,1.06h0Z"/>
      <path class="cls-8" d="m199.15,244.56l-19.45-22.02-2.73,6.4,11.72,13.22c2.92.85,5.89,1.52,8.82,2.09.55.11,1.09.21,1.64.31h0Z"/>
      <path class="cls-8" d="m180.33,239.12l-5.2-5.87-1.12,2.61c.97.58,1.97,1.12,3,1.61l.39.2.05.03c.93.5,1.89.98,2.87,1.42h0Z"/>
      <path class="cls-8" d="m239.9,237.65l14.95,16.88c1.9.8,3.76,1.69,5.59,2.66,4,2.13,7.94,4.48,11.73,7.05l-40.36-45.58,8.09,18.99Z"/>
      <path class="cls-8" d="m281.36,306.26l-17.62-19.89c-1.46-1.11-2.95-2.18-4.46-3.2l5.89,13.84,20.66,23.32c-.6-4.97-2.16-9.68-4.48-14.07h0Z"/>
      <path class="cls-8" d="m286.1,327l-15.68-17.7,7.45,17.49,7.59,8.57c.38-2.77.59-5.56.65-8.36h0Z"/>
      <path class="cls-8" d="m232.56,275.62l-1.73-4.13c-.74-.12-1.49-.24-2.23-.35l3.96,4.48Z"/>
      <path class="cls-8" d="m237.96,288.48l-16.01-18.12c-.36-.04-.72-.07-1.08-.1-2.65-.24-5.31-.48-7.96-.75l32.48,36.67-7.43-17.7Z"/>
      <path class="cls-8" d="m250.5,318.32l-43.86-49.5c-3.05-.37-6.1-.78-9.13-1.28l55.97,63.21h2.24l-5.22-12.43Z"/>
      <path class="cls-8" d="m247.82,330.76l-57.09-64.48c-3.52-.74-7.01-1.62-10.45-2.7l58.49,67.18h9.05Z"/>
    </g>
  </g>
</svg>