<?xml version="1.0" encoding="UTF-8"?>
<svg id="Layer_2" data-name="Layer 2" xmlns="http://www.w3.org/2000/svg" viewBox="0 0 562.19 683.44">
  <defs>
    <style>
      .cls-1 {
        fill: #dca43e;
        fill-rule: evenodd;
      }

      .cls-1, .cls-2, .cls-3, .cls-4, .cls-5, .cls-6, .cls-7, .cls-8 {
        stroke-width: 0px;
      }

      .cls-2 {
        fill: #fac400;
      }

      .cls-3 {
        fill: #1d1d1b;
      }

      .cls-4 {
        fill: #0d0802;
      }

      .cls-5 {
        fill: #b2b2b2;
      }

      .cls-6 {
        fill: #b4053f;
      }

      .cls-7 {
        fill: #fff;
      }

      .cls-8 {
        fill: #005ca5;
      }
    </style>
  </defs>
  <g id="Capa_1" data-name="Capa 1">
    <g>
      <path class="cls-3" d="m460.84,340.48v-9.15l9.15-1.82v9.15l-9.15,1.82Zm-348.69,69.36v-56l9.62-1.91v47.62l15.12-3.01v8.38l-24.74,4.92Zm30.64-6.09v-56l25.75-5.12v8.38l-16.13,3.21v14.43l12.41-2.47v8.38l-12.41,2.47v16.44l17.22-3.42v8.38l-26.83,5.34Zm54.06-66.75l9.46-1.88-11.71,58.32-9.62,1.91-11.71-53.67,9.46-1.88,6.98,37.47,7.13-40.27Zm23.5,30.54l7.75-1.54-3.8-23.29-3.96,24.83Zm-3.1,21.4l-9.31,1.85,10.31-58.05,11.94-2.38,10.31,53.94-9.31,1.85-1.71-12.07-10.55,2.1-1.71,12.75Zm28.85-5.74v-56l8.92-1.77,11.71,29.7.15-32.06,8.69-1.73v56l-8.38,1.67-12.25-32.54-.15,35.01-8.69,1.73Zm44.36-56.44l-9.31,1.85v-8.38l28.23-5.62v8.38l-9.31,1.85v47.62l-9.62,1.91v-47.62Zm24.59,42.73v-56l25.75-5.12v8.38l-16.13,3.21v14.43l12.41-2.47v8.38l-12.41,2.47v16.44l17.22-3.42v8.38l-26.83,5.34Zm51.65-66.27l9.62-1.91v42.27c0,4.08,1.71,5.79,5.12,5.11,3.41-.68,5.12-3.06,5.12-7.15v-42.27l9.62-1.91v41.88c0,4.86-1.32,8.82-3.95,11.88-2.59,3.05-6.18,5.03-10.78,5.94-4.6.92-8.22.37-10.86-1.64-2.58-2.02-3.88-5.46-3.88-10.32v-41.88Zm38.16,48.4v-9.15l9.15-1.82v9.15l-9.15,1.82Zm27.45-13.37l3.33-.66c2.59-.51,4.37-1.44,5.35-2.77,1.03-1.34,1.55-3.49,1.55-6.44v-24.51c0-2.95-.52-4.89-1.55-5.82-.98-.94-2.77-1.16-5.35-.64l-3.33.66v40.18Zm-9.62-46.17l14.27-2.84c5.02-1,8.79-.38,11.32,1.86,2.58,2.23,3.88,6.23,3.88,12.02v22.18c0,5.79-1.29,10.31-3.88,13.57-2.53,3.24-6.31,5.36-11.32,6.36l-14.27,2.84v-56Z"/>
      <path class="cls-4" d="m219.04,30.97Q219.04.01,250,0c11.54,0,21.6,6.31,26.93,15.67h8.35c5.33-9.36,15.39-15.67,26.93-15.67q30.91,0,30.97,30.97c0,16.25-12.51,29.57-28.43,30.86-1.79,4.94-2.76,10.27-2.76,15.83,0,25.65,20.79,46.45,46.45,46.45s46.45-20.8,46.45-46.45c0-17.49-9.67-32.73-23.96-40.65l10.85-22.05c161.31,44.87,227.45,215.45,112.74,423.33,5.9,7.79,9.41,17.5,9.41,28.03,0,25.65-20.79,46.45-46.45,46.45-3.46,0-6.83-.38-10.07-1.09-33.64,45.95-75.97,93.14-127.83,140.7-45.2,41.46-51.86,41.36-96.85.11-51.9-47.59-94.27-94.81-127.94-140.8-3.23.71-6.58,1.08-10.03,1.08-25.65,0-46.45-20.8-46.45-46.45,0-10.51,3.49-20.2,9.37-27.99C-57.05,230.43,9.09,59.83,170.41,14.96l10.85,22.05c-14.29,7.92-23.96,23.16-23.96,40.65,0,25.65,20.8,46.45,46.45,46.45s46.45-20.8,46.45-46.45c0-5.56-.98-10.89-2.77-15.83-15.9-1.31-28.39-14.63-28.39-30.86Zm78.51,522.58c7.27-2.29,13.53-5.62,18.16-8.89-5.43,3.94-11.55,6.98-18.16,8.89Zm18.16-8.89c1.7-1.24,3.33-2.56,4.89-3.97-1.32,1.26-2.97,2.61-4.89,3.97Z"/>
      <path class="cls-7" d="m460.84,340.48l9.15-1.82v-9.15l-9.15,1.82v9.15Zm-348.69,69.36l24.74-4.92v-8.38l-15.12,3.01v-47.62l-9.62,1.91v56Zm30.64-6.09l26.83-5.34v-8.38l-17.22,3.42v-16.44l12.41-2.47v-8.38l-12.41,2.47v-14.43l16.13-3.21v-8.38l-25.75,5.12v56Zm54.06-66.75l-7.13,40.27-6.98-37.47-9.46,1.88,11.71,53.67,9.62-1.91,11.71-58.32-9.46,1.88Zm20.4,51.94l1.71-12.75,10.55-2.1,1.71,12.07,9.31-1.85-10.31-53.94-11.94,2.38-10.31,58.05,9.31-1.85Zm28.85-5.74l8.69-1.73.15-35.01,12.25,32.54,8.38-1.67v-56l-8.69,1.73-.15,32.06-11.71-29.7-8.92,1.77v56Zm44.36-56.44v47.62l9.62-1.91v-47.62l9.31-1.85v-8.38l-28.23,5.62v8.38l9.31-1.85Zm24.59,42.73l26.83-5.34v-8.38l-17.22,3.42v-16.44l12.41-2.47v-8.38l-12.41,2.47v-14.43l16.13-3.21v-8.38l-25.75,5.12v56Zm51.65-66.27v41.88c0,4.86,1.29,8.3,3.88,10.32,2.64,2.01,6.26,2.55,10.86,1.64,4.6-.92,8.19-2.9,10.78-5.94,2.64-3.06,3.95-7.02,3.95-11.88v-41.88l-9.62,1.91v42.27c0,4.08-1.71,6.47-5.12,7.15-3.41.68-5.12-1.02-5.12-5.11v-42.27l-9.62,1.91Zm38.16,48.4l9.15-1.82v-9.15l-9.15,1.82v9.15Zm17.84-59.54v56l14.27-2.84c5.02-1,8.79-3.12,11.32-6.36,2.58-3.26,3.88-7.78,3.88-13.57v-22.18c0-5.79-1.29-9.8-3.88-12.02-2.53-2.24-6.31-2.86-11.32-1.86l-14.27,2.84Zm77.07-23.1c2.01,22.64.49,47.24-5.06,73.41l-399.48,79.46c-11.11-23.35-19.29-45.91-24.77-67.47l429.32-85.4Zm-279.41,98.55l3.96-24.83,3.8,23.29-7.75,1.54Zm211.96-29.29v-40.18l3.33-.66c2.59-.51,4.37-.3,5.35.64,1.03.93,1.55,2.87,1.55,5.82v24.51c0,2.95-.52,5.09-1.55,6.44-.98,1.33-2.77,2.26-5.35,2.77l-3.33.66Z"/>
      <path class="cls-6" d="m417.51,504.16c-23.3,31.99-51.94,64.91-86.46,98.32v-62.97c9.74-11.43,15.62-26.25,15.62-42.44s-5.88-31.01-15.62-42.44v-72.87l86.46-17.2v139.6Zm-86.46-287.52c3.83,1.32,7.94,2.03,12.22,2.03s7.98-.83,11.89-1.81c4.8,11.18,14.81,19.6,26.95,22.23l35.39,7.04v32.38l-86.46,17.2v-79.07Zm-99.86,385.76c-34.54-33.43-63.18-66.37-86.48-98.38v-85.18l86.48-17.2v53.18c-9.65,11.41-15.47,26.16-15.47,42.27s5.82,30.86,15.47,42.27v63.06Zm-86.48-356.03c20.45-4.08,35.5-7.28,35.5-7.28,12.14-2.63,22.16-11.06,26.96-22.25,3.92.98,7.81,1.82,11.93,1.82s8.29-.7,12.09-1.98v98.89l-86.48,17.2v-86.4Z"/>
      <path class="cls-1" d="m333.71,523.5c-.56-10.41-10.98-16.99-24.36-13.27-.12-12.02-13.69-18.27-27.43-15.51-11.97-13.41-7.92-29.85,14.43-26.37,12.98,2.02,32.57,11.91,43.52,32.09-.47,8.26-2.64,16.05-6.16,23.05Zm-101.5,6.07c9.22,4.46,19.93-1.26,23.38-14.52,10.48,5.98,22.72-2.66,27.21-15.96,17.6-3.67,29.83,8.07,15.63,25.68-8.2,10.17-26.39,22.12-49.18,21.65-6.77-4.39-12.58-10.14-17.05-16.85Zm14.82-80.33c-8.78,18.98-7.26,38.83-2.67,50.73,2.08,5.39,4.59,9.34,7.33,12.07-3.36,17.82-20.62,20.93-27.34.05-1.26-4.79-1.94-9.83-1.94-15.02,0-19.72,9.71-37.17,24.61-47.83Zm30.76-10.85c-8.83,5.65-9.38,18,.53,27.76-10.36,6.11-9,20.99.26,31.51-5.63,17.07-21.9,21.79-30.05.69-4.73-12.24-5.97-34.11,5.99-53.67,7.05-3.6,14.93-5.81,23.27-6.29Zm61.95,53.35c-12.05-17.18-30.05-25.84-42.69-27.81-5.74-.89-10.43-.69-14.18.33-14.11-12.12-7.5-29.18,15.3-23.31,6.94,1.79,18.31,7.66,27.59,17.78,7.77,9.03,12.85,20.45,13.97,33Zm-24.03,52.91c1.92-1.36,3.57-2.71,4.89-3.97-1.56,1.41-3.19,2.73-4.89,3.97Zm-18.16,8.89c-5.19,1.5-10.68,2.3-16.35,2.3-8.67,0-16.9-1.88-24.31-5.25,20.71-1.95,37.05-13.14,45.02-23.03,3.65-4.53,5.82-8.7,6.81-12.46,17.58-6.2,29.08,8.06,12.58,24.89l-.7.69c-1.32,1.26-2.97,2.61-4.89,3.97-5.43,3.94-11.55,6.98-18.16,8.89Zm0,0c6.61-1.91,12.73-4.95,18.16-8.89-4.63,3.27-10.89,6.6-18.16,8.89Z"/>
      <path class="cls-8" d="m237.88,447.97v-47.67l86.47-17.2v64.74c-11.52-10.11-26.62-16.24-43.16-16.24s-31.77,6.18-43.31,16.37Zm-99.87,46.66c-15.9-22.73-29.09-44.97-39.79-66.56l39.79-7.92v74.47Zm186.33,114.27c-3.92,3.72-7.91,7.44-11.98,11.17-3.22,2.96-25.39,25.55-30.69,25.69-5.69.15-28.46-22.7-31.73-25.69-4.1-3.76-8.12-7.51-12.07-11.26v-62.64c11.54,10.19,26.7,16.37,43.31,16.37s31.63-6.13,43.16-16.24v62.6Zm168.73-259.37c-10.6,44.65-32.79,93.68-68.88,145.25v-131.55l68.88-13.7Zm-424.23-1.67c-8.3-35.86-9.12-68.85-3.65-98.04,5.16-27.59,19.4-41.13,29.63-41.13,4.89,0,8.85,3.96,8.85,8.85s-3.89,8.85-9.1,8.85h-6.77s.33,28.98.33,28.98c-.04.13,9.78-.03,20.21-1.97,10.18-1.89,20.35-3.86,29.68-5.7v86.41l-69.17,13.76Zm355.35-100.4l29.79,5.92c7.52,1.48,14.26,2.15,20.21,1.99l.33-28.98h-6.77c-5.21,0-9.1-4.03-9.1-8.85s3.96-8.85,8.85-8.85c10.23,0,24.46,13.53,29.63,41.13.76,4.08,1.41,8.24,1.92,12.47l-74.85,14.89v-29.72Zm-186.32-33.8c3.46-1.99,6.57-4.51,9.23-7.46,9.21,7.67,21.09,12.3,34.07,12.33,12.96,0,24.85-4.64,34.08-12.33,2.62,2.9,5.69,5.4,9.09,7.37v83.46l-86.47,17.2v-100.58Z"/>
      <path class="cls-5" d="m410.11,39.95c86.84,33.61,139.48,111.42,133.49,216.16-1.33-72.89-34.88-130.25-90.21-163.94l-3.88-2.25c-7.23,35.7-36.56,63.41-74.44,63.41-22.45,0-42-9.31-55.32-23.98,10.69,7.93,23.93,12.62,38.26,12.62,35.51,0,64.3-28.79,64.3-64.3,0-14.09-4.54-27.12-12.21-37.7Zm-258.45,0c-7.67,10.59-12.21,23.61-12.21,37.7,0,35.51,28.79,64.3,64.3,64.3,14.33,0,27.57-4.69,38.26-12.62-13.32,14.68-32.87,23.98-55.32,23.98-37.87,0-67.21-27.71-74.44-63.41l-3.88,2.25C53.04,125.86,19.49,183.22,18.16,256.11c-5.99-104.74,46.65-182.54,133.49-216.16Z"/>
      <path class="cls-2" d="m281.19,211.84c-13.98-.03-26.46-6.14-34.97-15.82-5.3,9.51-15.46,15.95-27.12,15.95-2.65,0-5.22-.33-7.68-.96.68-2.93,1.04-5.98,1.04-9.12,0-2.48-.22-4.91-.65-7.27,2.19,1.19,4.7,1.86,7.37,1.86,8.56,0,15.5-6.94,15.5-15.5l-.03-10.48h15.99c2.48,14.63,15.22,25.77,30.55,25.77s28.07-11.14,30.55-25.77h15.99l-.04,10.48c0,8.56,6.94,15.5,15.5,15.5,2.65,0,5.14-.66,7.32-1.83-.43,2.35-.65,4.77-.65,7.24,0,3.14.36,6.2,1.04,9.13-2.44.62-5,.95-7.63.95-11.66,0-21.82-6.43-27.12-15.95-8.53,9.7-21.04,15.82-34.97,15.82Zm-170.82,5.71c0-8.59-6.96-15.55-15.55-15.55-15.54,0-30.95,18.47-36.21,46.59-18.27,97.63,31.55,233.99,186.81,376.42,40.83,37.46,32.5,35.75,71.47,0,155.26-142.43,205.08-278.79,186.81-376.42-5.26-28.12-20.67-46.59-36.21-46.59-8.59,0-15.54,6.96-15.54,15.55s6.96,15.55,15.8,15.54l-.18,15.59c-17.18,0-31.1-13.93-31.1-31.1s13.93-31.1,31.21-31.1c30.93.14,44.35,31.3,49.76,62.1,18.21,103.67-36.33,243.96-191.5,386.31-47.89,43.93-41.69,43.93-89.58,0C81.2,492.53,26.67,352.24,44.88,248.57c5.41-30.8,18.83-61.96,49.76-62.1,17.29,0,31.21,13.92,31.21,31.1s-13.93,31.1-31.1,31.1l-.18-15.59c8.84,0,15.8-6.96,15.8-15.54Zm58.58-46.68c.97-.22,2.06-.33,3.23-.33,17.32,0,31.36,14.04,31.36,31.36,0,15.03-10.57,27.59-24.69,30.65l-1.07.21-52.23,10.39c5.76-6.93,9.22-15.84,9.22-25.56,0-15.5-8.81-28.95-21.7-35.6l55.87-11.11Zm224.43,0l55.87,11.11c-12.89,6.65-21.7,20.09-21.7,35.6,0,9.72,3.46,18.63,9.22,25.56l-52.23-10.39-1.07-.21c-14.11-3.06-24.69-15.62-24.69-30.65,0-17.32,14.04-31.36,31.36-31.36,1.17,0,2.26.11,3.23.33Z"/>
    </g>
  </g>
</svg>