<?xml version="1.0" encoding="UTF-8" standalone="no"?>
<!-- Created with Inkscape (http://www.inkscape.org/) -->

<svg
   xmlns:dc="http://purl.org/dc/elements/1.1/"
   xmlns:cc="http://creativecommons.org/ns#"
   xmlns:rdf="http://www.w3.org/1999/02/22-rdf-syntax-ns#"
   xmlns:svg="http://www.w3.org/2000/svg"
   xmlns="http://www.w3.org/2000/svg"
   xmlns:sodipodi="http://sodipodi.sourceforge.net/DTD/sodipodi-0.dtd"
   xmlns:inkscape="http://www.inkscape.org/namespaces/inkscape"
   id="svg2"
   version="1.1"
   inkscape:version="0.91 r13725"
   xml:space="preserve"
   width="619"
   height="700"
   viewBox="0 0 619.00003 700"
   sodipodi:docname="Logo Málaga CF.svg"><metadata
     id="metadata8"><rdf:RDF><cc:Work
         rdf:about=""><dc:format>image/svg+xml</dc:format><dc:type
           rdf:resource="http://purl.org/dc/dcmitype/StillImage" /><dc:title></dc:title></cc:Work></rdf:RDF></metadata><defs
     id="defs6" /><sodipodi:namedview
     pagecolor="#ffffff"
     bordercolor="#666666"
     borderopacity="1"
     objecttolerance="10"
     gridtolerance="10"
     guidetolerance="10"
     inkscape:pageopacity="0"
     inkscape:pageshadow="2"
     inkscape:window-width="1440"
     inkscape:window-height="788"
     id="namedview4"
     showgrid="false"
     inkscape:zoom="0.54927937"
     inkscape:cx="379.9477"
     inkscape:cy="220.15741"
     inkscape:window-x="0"
     inkscape:window-y="1"
     inkscape:window-maximized="1"
     inkscape:current-layer="g10" /><g
     id="g10"
     inkscape:groupmode="layer"
     inkscape:label="Logo Málaga CF"
     transform="matrix(1.25,0,0,-1.25,0,700.00002)"><g
       id="g7034"><path
         d="M 470.69292,471.1461 247.60131,293.92747 113.0549,187.04366 C 145.49882,137.95031 189.12978,85.53817 247.60131,31.11784 451.73685,221.09827 475.52403,386.76605 470.69292,471.1461"
         style="fill:#00489a;fill-opacity:1;fill-rule:nonzero;stroke:none"
         id="path478"
         inkscape:connector-curvature="0" /><g
         id="g6914"><path
           d="m 269.95396,24.19881 -18.56959,0 0,275.64994 18.56959,0 0,-275.64994 z"
           style="fill:#ffffff;fill-opacity:1;fill-rule:nonzero;stroke:none"
           id="path480"
           inkscape:connector-curvature="0" /><path
           d="m 316.37186,74.61183 -18.56957,0 0,279.15897 18.56957,0 0,-279.15897 z"
           style="fill:#ffffff;fill-opacity:1;fill-rule:nonzero;stroke:none"
           id="path482"
           inkscape:connector-curvature="0" /><path
           d="m 359.59218,125.56841 -18.5726,0 0,267.13704 18.5726,0 0,-267.13704 z"
           style="fill:#ffffff;fill-opacity:1;fill-rule:nonzero;stroke:none"
           id="path484"
           inkscape:connector-curvature="0" /><path
           d="m 404.73589,188.75228 -18.57261,0 0,238.46679 18.57261,0 0,-238.46679 z"
           style="fill:#ffffff;fill-opacity:1;fill-rule:nonzero;stroke:none"
           id="path486"
           inkscape:connector-curvature="0" /><path
           d="m 448.59331,264.37482 -18.5726,0 0,197.08005 18.5726,0 0,-197.08005 z"
           style="fill:#ffffff;fill-opacity:1;fill-rule:nonzero;stroke:none"
           id="path488"
           inkscape:connector-curvature="0" /></g></g><g
       id="g6921"><path
         d="m 247.60161,536.56645 c 0,0 -87.92016,-89.47449 -213.006655,-6.07287 0,0 -36.7285149,-99.73587 26.480519,-247.789 l 186.526136,143.70155 90.10625,69.41982 c -55.97445,6.01852 -90.10625,40.7405 -90.10625,40.7405"
         style="fill:#a7d6f5;fill-opacity:1;fill-rule:nonzero;stroke:none"
         id="path470"
         inkscape:connector-curvature="0" /><path
         d="m 23.564021,361.23914 145.343949,0 -107.833396,-87.09185 -23.237642,23.2406 -14.272911,63.85125 z"
         style="fill:#00489a;fill-opacity:1;fill-rule:nonzero;stroke:none"
         id="path474"
         inkscape:connector-curvature="0" /><g
         id="g6776"><path
           inkscape:connector-curvature="0"
           id="path492"
           style="fill:#c39400;fill-opacity:1;fill-rule:nonzero;stroke:none"
           d="m 222.8923,422.15059 -41.77703,-2.0414 c 0,0 -11.76677,-0.23857 -12.36763,-0.23857 -0.59786,0 -9.72262,-3.84424 -11.16289,-3.84424 -1.4433,0 -12.18648,-10.74455 -12.18648,-10.74455 l -5.10286,-9.06553 -1.79958,-4.2036 0,-6.72213 2.88054,-15.01157 c 0,0 4.56238,-5.46287 5.46218,-5.46287 0.89979,0 17.46748,-13.50467 17.46748,-13.50467 l 63.62874,39.98252 -0.96018,27.73411 -4.08229,3.1225 z" /><path
           inkscape:connector-curvature="0"
           id="path496"
           style="fill:#4c2a1f;fill-opacity:1;fill-rule:nonzero;stroke:none"
           d="m 170.0466,398.77833 c -0.003,0.003 -0.006,0.003 -0.006,0.003 0,0.0392 0,0.0725 0.006,0.11173 l 0,-0.11475 z m -16.15403,-11.36966 c -0.009,-0.009 -0.0211,-0.0181 -0.0302,-0.0242 0.009,0.009 0.0151,0.0181 0.0272,0.0302 l 0.003,-0.006 z m 8.79262,12.04912 c -0.0906,-0.0966 -0.17211,-0.18119 -0.26571,-0.28085 0.0181,0.16911 0.11474,0.25065 0.26571,0.28085 m 34.85042,11.6505 c -2.95603,0.69456 -5.04549,0.9452 -6.52199,2.38566 -1.47953,1.44046 -1.4282,2.4823 -5.40481,1.29249 -3.97962,-1.19283 -7.34631,-1.19283 -9.18213,-1.19283 -1.83582,0 -2.75373,0.69758 -5.2025,0 -2.44273,-0.69759 -3.56596,0.0966 -3.56596,-1.79076 0,-1.8874 -1.05077,-2.132 0.39253,-2.90508 0.35931,-0.19025 0.95716,-0.35634 1.68182,-0.50129 -0.29892,-0.0996 -0.53142,-0.2748 -0.98131,-0.47411 l -0.47405,0 c -0.28686,0 -0.48916,-0.14797 -0.65825,-0.37144 -2.09247,-0.51639 -1.87507,-0.11777 -2.70542,-0.94823 -0.8394,-0.84253 -0.60087,-1.38308 -1.92036,-3.78384 -1.3195,-2.40077 -2.52124,-0.11778 -3.42103,0.78213 -0.90282,0.89991 -0.36234,-1.74244 -0.36234,-2.40378 l 0,-1.79982 c 0,-0.89991 -0.66125,-0.66134 -0.66125,-1.98101 0,-1.31966 -0.77903,-0.78213 -0.77903,-1.44045 0,-0.50432 -0.006,-0.97541 -0.22041,-1.40724 -1.28628,-0.8365 -4.31479,-4.43915 -4.33894,-5.42362 -0.37442,-0.14495 -0.74882,-0.28084 -1.02359,-0.55262 -0.51029,-0.51036 -1.14135,-0.42278 -2.21929,-0.42278 -1.08096,0 -1.13834,-0.11777 -1.56105,-0.53753 -0.41971,-0.41976 0,-1.14149 0,-1.80284 0,-0.65832 0,-0.9603 1.19871,-0.41975 0.75789,0.34124 0.80015,0.25366 0.96622,0.2295 -1.87809,-1.07506 -1.58521,-3.47582 -1.58521,-3.47582 l 0.38046,-5.62292 2.61483,0 c 0.15399,0 0.26874,0.0151 0.38347,0.0302 0.0393,-0.17213 0.0664,-0.3654 0.0664,-0.59491 0,-1.59749 1.14135,0 1.92037,0.7761 0.77297,0.77911 1.60333,0.41371 2.47293,1.28343 0.86657,0.86669 0.45593,2.47022 0.45593,3.47884 0,0 -1.32553,-0.86971 -1.73618,-1.28343 -0.16305,-0.15703 -0.49217,-0.24159 -0.90282,-0.3503 0.21741,0.25669 0.47406,0.54357 0.83941,0.90897 2.00189,1.99913 1.37385,1.37402 2.75072,1.37402 1.37384,0 1.50065,1.50086 1.50065,3.74761 0,0.45297 -0.0725,0.84253 -0.16908,1.19585 0.11776,0.10267 0.27175,0.20535 0.52538,0.30802 1.41612,0.56169 1.04473,1.04184 2.04719,1.04184 0.42875,0 0.8394,-0.35332 1.20777,-0.75797 -0.16606,-0.60699 -0.30799,-1.09922 0.20231,-1.60957 0.80317,-0.80026 1.69692,-1.0056 2.79298,-1.0056 0.8696,0 1.8479,-1.24719 2.40046,-1.59145 0.44688,-0.67343 1.22891,-1.97195 0.8545,-2.34641 -0.51029,-0.50733 -0.77901,-2.27997 -0.77901,-3.36107 0,-0.56471 -0.0755,-1.57031 0.12379,-2.33735 -0.0876,-0.0725 -0.17211,-0.14797 -0.25666,-0.21743 l -0.66125,0 c -0.34422,0 -0.64616,-0.64624 -1.74222,-0.64624 -1.09304,0 -0.90281,-0.54659 -1.34063,-1.69714 -0.43782,-1.15056 1.05379,-2.04141 1.66975,-2.65745 0.61597,-0.61605 0.90583,-1.25927 0.90583,-2.49438 0,-1.23209 1.15042,-0.97842 1.34969,-0.97842 l 0.8062,0.6251 c 0.25061,-0.0151 0.5737,0.006 1.01453,0.0846 2.88357,0.50129 4.34498,-0.50432 6.49784,4.11602 2.15287,4.62336 2.15287,5.62896 2.15287,6.54397 0,0.91501 0.27476,2.56383 0.27476,2.56383 0,0 -0.59482,0.1057 -1.39196,0.19931 1.25307,1.25323 1.40102,1.522 1.40102,3.80197 0,2.34036 0.18117,4.14018 0.18117,5.70143 0,0.88783 0.20834,1.92363 0.27175,2.65745 0.1087,0.10872 0.22947,0.23253 0.31402,0.31406 1.14437,1.14452 2.79299,0.22649 2.79299,1.87532 0,1.65184 0.91489,2.56383 0,2.56383 -0.9149,0 -2.38234,-1.46461 -3.20363,-2.28903 -0.54048,-0.54055 -0.88772,-0.38352 -1.27723,-0.75797 -0.0966,0.38653 -0.22041,-0.0151 -1.32855,0.58886 -1.32251,0.72174 -0.20835,0.69154 -1.32251,1.80284 -1.10814,1.10828 0.30194,1.25927 -1.25911,1.92061 -1.55803,0.66134 -3.12212,0.66134 -3.66259,0.66134 -0.33214,0 -0.66428,0.17817 -0.86961,0.0785 0.0966,0.30802 0.21741,0.65228 0.42273,1.09016 1.13834,2.46116 1.46745,0.86971 3.30025,1.62164 1.04775,0.42882 1.75128,1.57937 2.16796,2.48834 0.34724,0.0393 0.73071,0.15401 1.07191,0.15401 0.60388,0 1.50066,0 1.86299,-0.36238 0.0211,-0.0211 0.0725,-0.0211 0.0997,-0.0393 -0.17815,0.009 -0.37441,0.0272 -0.63107,0.0785 -0.72769,0.15099 -1.7694,0 -1.7694,0 0,0 0.15098,-0.14797 0.48312,-0.48015 0.32912,-0.32916 1.18362,-1.34986 1.97773,-1.64883 0.79412,-0.29594 1.0387,-0.64322 1.64862,-1.25323 0.60993,-0.61 0.62502,-0.69154 1.98076,-0.69154 1.34969,0 0.62502,-0.1993 1.18664,-0.75797 0.5586,-0.56169 0.90281,-0.22347 3.75921,0.19629 2.02604,0.29896 0.70051,0.46807 0.70051,0.46807 0,0 0.19022,0.19327 -0.20533,0.19327 -0.39253,0 -0.85752,0.16307 -1.48255,0.16307 -0.62804,0 -1.02359,0.19931 -1.85091,0.33218 -0.8213,0.12985 -0.6673,0.48317 -1.55199,0.87575 -0.8847,0.38956 -0.60994,0.58585 -1.1021,1.18377 -0.48915,0.60095 -0.42877,0.50129 -0.78204,0.86065 -0.25061,0.24461 -0.6371,0.38352 -1.00548,0.44996 0.2476,0.0362 0.47707,0.0695 0.64314,0.0695 0.54048,0 0.63107,-0.62812 0.90282,-0.8999 0.26873,-0.27179 0.66126,-0.66135 0.92999,-0.93011 0.27174,-0.26877 0.60087,-0.60095 0.99037,-0.99051 0.38951,-0.38955 1.32252,0 1.7392,-0.41975 0.42273,-0.42278 1.08096,0 1.863,0 0.77902,0 1.22892,-0.21139 1.7392,0.29896 0.51029,0.51035 1.02057,0 1.62145,0 0.59784,0 1.02057,1.62165 1.02057,1.62165 0,0 0.25061,0.48317 0.42876,1.10224 0.16607,-0.0211 0.31704,-0.0362 0.42876,-0.0362 1.02661,0 2.24344,0.69758 2.24344,0.69758 0,0 3.01039,2.93225 4.03096,3.92578 1.02058,0.99352 1.37687,1.24417 -1.58219,1.93873" /><path
           inkscape:connector-curvature="0"
           id="path500"
           style="fill:#4c2a1f;fill-opacity:1;fill-rule:nonzero;stroke:none"
           d="m 151.211,395.61445 c 0.78204,0.77912 0.53142,0.90897 1.26817,1.64581 0.73071,0.73382 0.65221,1.77566 0.0513,2.3766 0,0 -1.55803,0.11778 -3.23987,-1.31966 -1.68182,-1.44348 -1.14134,-0.54055 -2.16191,-1.56125 -0.55558,-0.55565 -0.65825,-0.96937 -0.5284,-1.34383 -0.14191,-0.0634 -0.28384,-0.12985 -0.76091,-0.61 -1.05378,-1.04788 -1.08096,-0.53753 -2.10153,-1.55823 -1.02057,-1.0207 0.29892,-0.90293 0.29892,-2.46116 0,-1.56125 0.59786,-0.60095 1.61843,-1.02372 1.02057,-0.41976 1.20475,0 2.04416,1.38308 0.83941,1.38006 0.60087,0.60094 1.64862,3.1225 0.0393,0.0996 0.0755,0.17817 0.10869,0.26272 0.43783,0.11778 1.12928,0.46204 1.7543,1.08714" /><path
           inkscape:connector-curvature="0"
           id="path504"
           style="fill:#4c2a1f;fill-opacity:1;fill-rule:nonzero;stroke:none"
           d="m 181.72127,417.52754 c -0.16003,0.0211 -0.39856,0.0423 -0.73975,0.0423 -0.73373,0 -5.17533,-0.0423 -6.73034,-0.0423 l -1.55502,0 c 0,0 -0.76996,-0.19931 -0.92093,-0.92105 -0.0211,-0.1057 -0.0513,-0.19025 -0.0785,-0.26877 -0.84846,-0.2144 -2.27364,-2.3615 -1.87809,-1.97194 0.41065,0.41069 3.11304,0.73381 4.84922,0.73381 l 4.93981,0 c 0.5737,0 1.01756,0.26877 1.36782,0.61605 l 0.0211,0 c 3.17343,0 3.27308,1.20793 6.01473,0.60396 2.74166,-0.60094 3.51161,-1.13545 5.58296,-0.60094 2.07435,0.53451 0.33516,1.93873 4.01586,0.7006 3.6807,-1.23511 4.54728,-1.60353 5.68258,-0.86971 1.13834,0.73684 1.87508,1.27135 3.47841,1.27135 1.60936,0 4.04908,0.70664 4.04908,0.70664 l -28.09896,0 z" /><path
           inkscape:connector-curvature="0"
           id="path508"
           style="fill:#4c2a1f;fill-opacity:1;fill-rule:nonzero;stroke:none"
           d="m 165.12913,368.36533 c -0.16607,-0.46505 0.0544,-0.43787 -0.65824,-1.64278 -0.71259,-1.20794 -0.71259,-1.20794 -1.1504,-1.64581 -0.43783,-0.43788 -0.27176,-0.51941 -0.94509,-0.94521 -0.67032,-0.42579 -1.1655,-1.22001 -1.46444,-1.51897 -0.30194,-0.30198 0.0544,-0.4409 -0.54954,-1.04184 -0.60086,-0.60397 -1.23193,-1.23511 -1.34062,-1.34382 -0.11172,-0.10872 0.0815,-0.32917 0.0815,-0.32917 0,0 0.19023,0.54961 1.20476,0.96031 1.01453,0.4107 1.17758,1.01466 2.06832,1.46462 0.89073,0.45297 0.98735,0.63114 1.79657,1.44045 0.80619,0.8063 0.82128,0.93011 0.98433,1.45254 0.16305,0.51941 -0.0815,0.38352 0.3563,1.5069 0.43782,1.12337 0.76694,1.53407 0.76694,1.80887 0,0.27179 -0.98434,0.29897 -1.15041,-0.16609" /><path
           d="m 101.26367,398.5911 12.32235,0 0,12.75575 -12.32235,0 0,-12.75575 z"
           style="fill:#c86606;fill-opacity:1;fill-rule:nonzero;stroke:none"
           id="path510"
           inkscape:connector-curvature="0" /><path
           d="m 101.61393,398.9414 11.61882,0 0,12.05213 -11.61882,0 0,-12.05213 z m 12.32235,-0.7006 -13.02286,0 0,13.45635 13.02286,0 0,-13.45635 z"
           style="fill:#1d1d1b;fill-opacity:1;fill-rule:nonzero;stroke:none"
           id="path512"
           inkscape:connector-curvature="0" /><path
           inkscape:connector-curvature="0"
           id="path516"
           style="fill:#c86606;fill-opacity:1;fill-rule:nonzero;stroke:none"
           d="m 103.09859,399.38018 8.86508,-0.16307 0,-4.02241 -8.16155,0 -0.70353,4.18548 z" /><path
           inkscape:connector-curvature="0"
           id="path520"
           style="fill:#1d1d1b;fill-opacity:1;fill-rule:nonzero;stroke:none"
           d="m 104.09711,395.54681 7.5154,0 0,3.32483 -8.09814,0.15099 0.58274,-3.47582 z m 8.21893,-0.70362 -8.81073,0 -0.82432,4.89514 9.63505,-0.17515 0,-4.71999 z" /><path
           inkscape:connector-curvature="0"
           id="path524"
           style="fill:#c86606;fill-opacity:1;fill-rule:nonzero;stroke:none"
           d="m 114.84543,399.15732 c 0,0 -2.10153,1.92061 -3.42103,0.9603 -1.32251,-0.9603 0.0876,-2.0716 -2.22231,-3.1225 -2.30987,-1.04788 -4.17288,1.35288 -5.28101,2.46418 -1.11115,1.10828 -2.94396,0.77911 -2.94396,0.77911 l 0,-14.46799 c 0,0 9.12477,3.66003 13.08627,3.84122 l 0.60088,0 0.18116,9.54568 z" /><path
           inkscape:connector-curvature="0"
           id="path528"
           style="fill:#1d1d1b;fill-opacity:1;fill-rule:nonzero;stroke:none"
           d="m 101.32919,399.92405 0,-13.63755 c 1.95659,0.76402 9.22138,3.5181 12.71789,3.67514 l 0.27478,0 0.16909,9.03834 c -0.33516,0.27783 -1.3346,1.0358 -2.2042,1.0358 -0.25665,0 -0.46801,-0.0664 -0.65824,-0.20233 -0.44385,-0.32312 -0.49217,-0.63114 -0.5586,-1.05995 -0.0996,-0.63115 -0.22042,-1.41328 -1.72108,-2.09577 -0.42574,-0.19326 -0.86356,-0.29292 -1.30138,-0.29292 -1.68485,0 -3.01039,1.39516 -3.97661,2.41284 -0.14191,0.14798 -0.27476,0.28991 -0.39856,0.4107 -0.70052,0.7006 -1.79054,0.75194 -2.34309,0.7157 m -0.70051,-14.67335 0,15.28034 0.28685,0.0513 c 0.0121,0.003 0.28986,0.0513 0.69447,0.0513 0.74278,0 1.79053,-0.16005 2.56048,-0.92709 0.12381,-0.12683 0.2627,-0.27178 0.41065,-0.42579 0.87866,-0.92709 2.08341,-2.1924 3.46632,-2.1924 0.33817,0 0.67636,0.0755 1.01152,0.22649 1.15644,0.52545 1.23193,1.00862 1.31949,1.56729 0.0695,0.45599 0.16003,1.02674 0.8394,1.51897 0.30799,0.22347 0.66731,0.3352 1.06889,0.3352 1.3346,0 2.73562,-1.26832 2.796,-1.31966 l 0.11777,-0.10872 -0.19023,-10.04696 -0.94509,0 c -3.84375,-0.17515 -12.86585,-3.78083 -12.95643,-3.81707 l -0.48009,-0.19327 z" /><path
           inkscape:connector-curvature="0"
           id="path532"
           style="fill:#c39400;fill-opacity:1;fill-rule:nonzero;stroke:none"
           d="m 166.46765,478.61262 c 0,-1.87229 -1.51878,-3.39126 -3.39083,-3.39126 -1.87206,0 -3.39084,1.51897 -3.39084,3.39126 0,1.8723 1.51878,3.39429 3.39084,3.39429 1.87205,0 3.39083,-1.52199 3.39083,-3.39429" /><path
           inkscape:connector-curvature="0"
           id="path536"
           style="fill:#1d1d1b;fill-opacity:1;fill-rule:nonzero;stroke:none"
           d="m 163.07742,481.6545 c -1.67579,0 -3.04058,-1.36496 -3.04058,-3.04097 0,-1.676 1.36479,-3.04097 3.04058,-3.04097 1.6758,0 3.04058,1.36497 3.04058,3.04097 0,1.67601 -1.36478,3.04097 -3.04058,3.04097 m 0,-6.78556 c -2.06228,0 -3.74109,1.67903 -3.74109,3.74459 0,2.06254 1.67881,3.74459 3.74109,3.74459 2.06228,0 3.74109,-1.68205 3.74109,-3.74459 0,-2.06556 -1.67881,-3.74459 -3.74109,-3.74459" /><path
           inkscape:connector-curvature="0"
           id="path540"
           style="fill:#c39400;fill-opacity:1;fill-rule:nonzero;stroke:none"
           d="m 168.62927,470.29843 0,8.76355 -11.10551,0 0,-9.42489 11.1659,0 -0.0604,0.66134 z" /><path
           inkscape:connector-curvature="0"
           id="path544"
           style="fill:#1d1d1b;fill-opacity:1;fill-rule:nonzero;stroke:none"
           d="m 157.87552,469.9892 10.42916,0 -0.0242,0.27783 -0.003,8.44344 -10.40199,0 0,-8.72127 z m 11.1961,-0.70362 -11.89963,0 0,10.12851 11.80905,0 0,-9.11686 0.0906,-1.01165 z" /><path
           d="m 164.60858,449.52654 18.2616,0 0,21.13276 -18.2616,0 0,-21.13276 z"
           style="fill:#c39400;fill-opacity:1;fill-rule:nonzero;stroke:none"
           id="path546"
           inkscape:connector-curvature="0" /><path
           d="m 164.95884,449.87684 17.55806,0 0,20.43216 -17.55806,0 0,-20.43216 z m 18.26159,-0.70362 -18.9621,0 0,21.83638 18.9621,0 0,-21.83638 z"
           style="fill:#1d1d1b;fill-opacity:1;fill-rule:nonzero;stroke:none"
           id="path548"
           inkscape:connector-curvature="0" /><path
           d="m 175.1706,442.20346 -23.82946,0 0,32.11889 23.82946,0 0,-32.11889 z"
           style="fill:#c39400;fill-opacity:1;fill-rule:nonzero;stroke:none"
           id="path550"
           inkscape:connector-curvature="0" /><path
           d="m 151.6914,442.55376 23.12894,0 0,31.41527 -23.12894,0 0,-31.41527 z m 23.83247,-0.70362 -24.53298,0 0,32.81949 24.53298,0 0,-32.81949 z"
           style="fill:#1d1d1b;fill-opacity:1;fill-rule:nonzero;stroke:none"
           id="path552"
           inkscape:connector-curvature="0" /><path
           inkscape:connector-curvature="0"
           id="path556"
           style="fill:#c86606;fill-opacity:1;fill-rule:nonzero;stroke:none"
           d="m 71.881157,388.79628 0,6.88823 -7.424804,5.91887 -6.887353,-5.49005 0,-6.6708 -13.454645,0 -12.69978,-6.13629 0,-8.07201 11.301778,-11.30321 20.018909,7.21135 9.145895,17.65391 z" /><path
           inkscape:connector-curvature="0"
           id="path560"
           style="fill:#1d1d1b;fill-opacity:1;fill-rule:nonzero;stroke:none"
           d="m 31.76634,375.37949 11.039087,-11.04351 19.680737,7.09055 9.043228,17.45461 0,6.63456 -7.074549,5.63802 -6.537097,-5.20618 0,-6.85803 -13.720356,0 -12.43105,-6.00342 0,-7.7066 z m 10.85792,-11.85283 -0.157011,0.15703 -11.40142,11.40589 0,8.43741 13.050036,6.26614 13.10137,0 0,6.48961 7.237608,5.77089 7.77808,-6.1997 -0.0392,-7.22041 -9.209307,-17.77471 -0.129834,-0.0453 -20.230277,-7.28685 z" /><path
           d="m 29.908174,372.54206 19.910214,0 0,10.98009 -19.910214,0 0,-10.98009 z"
           style="fill:#c86606;fill-opacity:1;fill-rule:nonzero;stroke:none"
           id="path562"
           inkscape:connector-curvature="0" /><path
           d="m 30.25843,372.89236 19.209702,0 0,10.27647 -19.209702,0 0,-10.27647 z m 19.913233,-0.70362 -20.613745,0 0,11.68069 20.613745,0 0,-11.68069 z"
           style="fill:#1d1d1b;fill-opacity:1;fill-rule:nonzero;stroke:none"
           id="path564"
           inkscape:connector-curvature="0" /><path
           inkscape:connector-curvature="0"
           id="path568"
           style="fill:#c86606;fill-opacity:1;fill-rule:nonzero;stroke:none"
           d="m 34.428584,377.92369 12.914159,0 1.829787,-3.66003 -11.407461,-1.61259 -6.672971,1.61259 3.336486,3.66003 z" /><path
           inkscape:connector-curvature="0"
           id="path572"
           style="fill:#1d1d1b;fill-opacity:1;fill-rule:nonzero;stroke:none"
           d="m 31.749129,374.46508 6.035868,-1.45857 10.85792,1.53709 -1.515757,3.02889 -12.545793,0 -2.832238,-3.10741 z m 5.999635,-2.17125 -0.06341,0.0151 -7.252703,1.75452 3.840732,4.21266 13.288571,0 2.143807,-4.29118 -11.956998,-1.6911 z" /><path
           d="m 27.64963,359.62323 22.709239,0 0,14.64013 -22.709239,0 0,-14.64013 z"
           style="fill:#c86606;fill-opacity:1;fill-rule:nonzero;stroke:none"
           id="path574"
           inkscape:connector-curvature="0" /><path
           d="m 27.999886,359.97655 22.008727,0 0,13.93651 -22.008727,0 0,-13.93651 z m 22.709238,-0.70362 -23.412769,0 0,15.34073 23.412769,0 0,-15.34073 z"
           style="fill:#1d1d1b;fill-opacity:1;fill-rule:nonzero;stroke:none"
           id="path576"
           inkscape:connector-curvature="0" /><path
           inkscape:connector-curvature="0"
           id="path580"
           style="fill:#4c2a1f;fill-opacity:1;fill-rule:nonzero;stroke:none"
           d="m 160.22434,444.90379 -13.62674,0 0,-7.20531 -6.54012,0 0,-4.32138 c 0,0 -5.8547,-2.73294 -6.96585,-3.84424 -1.11116,-1.10827 -7.25875,-4.07978 -7.25875,-6.48055 l 0,-4.1432 -7.14702,0 0,-3.90464 c 0,0 -4.4416,-1.55823 -5.10286,-3.66003 -0.65824,-2.1018 -1.67881,-9.00513 -1.67881,-9.30711 0,-0.29897 12.00531,-2.63933 12.00531,-2.63933 l 5.281,3.60265 c 0,0 6.84508,8.64275 9.09759,9.0927 2.24948,0.45298 5.25081,0.93313 5.79129,4.53277 0.54048,3.60265 5.45915,6.18461 6.96284,7.68546 1.50066,1.50085 3.00133,4.1432 5.82149,6.96372 2.82318,2.82354 3.96151,3.72345 5.34139,5.10351 1.3829,1.38007 4.4416,4.80153 3.36366,5.88263 -1.08096,1.0811 -5.34442,2.64235 -5.34442,2.64235" /><path
           inkscape:connector-curvature="0"
           id="path584"
           style="fill:#1d1d1b;fill-opacity:1;fill-rule:nonzero;stroke:none"
           d="m 112.27679,402.24539 c 1.18664,-0.38956 7.50331,-1.68204 11.55541,-2.47626 l 5.11796,3.49092 c 0.85148,1.07204 6.99001,8.72127 9.26667,9.18028 l 0.22042,0.0423 c 2.2525,0.44693 4.80695,0.95427 5.29308,4.19756 0.42575,2.82354 3.30327,4.97668 5.40782,6.55001 0.69146,0.51639 1.28931,0.96332 1.65466,1.32872 0.61596,0.61605 1.241,1.44348 1.96868,2.40077 0.98434,1.29852 2.20721,2.91715 3.85281,4.56296 1.66371,1.66392 2.75675,2.67255 3.63239,3.48186 0.62201,0.57075 1.14739,1.05694 1.71202,1.62165 0.36837,0.37144 1.6456,1.676 2.56351,3.00473 0.81223,1.17773 1.11116,2.06858 0.79713,2.38264 -0.82732,0.82744 -3.9464,2.09274 -5.1572,2.53968 l -13.21309,0 0,-7.20531 -6.54011,0 0,-4.19454 -0.20231,-0.0936 c -1.61238,-0.75496 -5.99058,-2.89903 -6.86621,-3.77176 -0.34724,-0.3503 -1.08399,-0.8214 -2.01398,-1.41932 -2.0502,-1.31363 -5.14512,-3.30068 -5.14512,-4.81663 l 0,-4.49351 -7.14401,0 0,-3.79894 -0.23249,-0.0846 c -1.19269,-0.41674 -4.38725,-1.85116 -4.88547,-3.43657 -0.60086,-1.90853 -1.4916,-7.76398 -1.64257,-8.99305 m 11.7094,-3.21914 -0.14191,0.0272 c -12.29216,2.39775 -12.29216,2.61819 -12.29216,2.98661 0,0.36238 1.03265,7.29289 1.69693,9.40979 0.62201,1.97497 4.1306,3.43656 5.08776,3.80196 l 0,4.01033 7.14401,0 0,3.78989 c 0,1.89947 3.15834,3.92578 5.46519,5.40549 0.86054,0.55263 1.60333,1.02976 1.89923,1.32571 1.03567,1.03278 5.80035,3.31577 6.86018,3.81706 l 0,4.45123 6.54313,0 0,7.20229 14.09779,-0.0211 c 0.17512,-0.0634 4.34497,-1.60051 5.47122,-2.72087 0.61295,-0.61604 0.37743,-1.68808 -0.71862,-3.27651 -0.95113,-1.38006 -2.26459,-2.72389 -2.64503,-3.10438 -0.5737,-0.57377 -1.10512,-1.06298 -1.73015,-1.64279 -0.87564,-0.80327 -1.95961,-1.80888 -3.61125,-3.46072 -1.61541,-1.61561 -2.77185,-3.14364 -3.79242,-4.49049 -0.73976,-0.97842 -1.37989,-1.82397 -2.02907,-2.47324 -0.40159,-0.40164 -1.02057,-0.86065 -1.73316,-1.39516 -2.00491,-1.50085 -4.7526,-3.55434 -5.13306,-6.09401 -0.55859,-3.72949 -3.61728,-4.33648 -5.84866,-4.78039 l -0.22041,-0.0423 c -1.74223,-0.3503 -7.00814,-6.5953 -8.88925,-8.96889 l -0.0785,-0.0725 -5.40179,-3.6842 z" /><path
           inkscape:connector-curvature="0"
           id="path588"
           style="fill:#c86606;fill-opacity:1;fill-rule:nonzero;stroke:none"
           d="m 177.2356,441.56597 -18.14988,0 c 0,0 -0.96623,-2.59101 -1.6456,-3.27047 -0.67636,-0.67946 -3.08587,-2.08972 -3.08587,-3.08627 0,-0.99956 -0.81526,-1.81491 -1.72411,-2.72388 -0.90884,-0.90897 -3.85885,-3.49394 -4.6288,-4.26702 -0.77298,-0.77307 -0.0483,-3.49696 -1.18061,-4.63241 -1.13531,-1.13546 -5.90301,-4.90421 -5.90301,-4.90421 -0.6371,-1.9961 -0.99641,-4.26701 -3.90414,-4.26701 -2.9047,0 -5.57993,0.16307 -6.17175,-0.42882 -0.58878,-0.59189 -0.7307,-0.29896 -1.81769,-1.38912 -1.09003,-1.09016 -2.63296,-1.72432 -2.63296,-3.90464 0,-2.18031 -1.18363,-4.08885 -1.9083,-4.08885 -0.72465,0 -3.63238,-5.44475 -1.17758,-7.08149 2.45179,-1.63675 7.71468,-0.18119 7.71468,-0.18119 0,0 11.16591,2.81448 12.44012,6.53793 1.27118,3.72042 2.2676,4.72301 4.80996,6.26614 2.54238,1.54011 11.80603,10.35197 11.80603,10.80495 0,0.45599 1.53991,1.9961 3.08286,3.53923 1.54595,1.54616 5.40178,5.22129 6.99303,6.80972 1.59124,1.59145 4.80997,4.54182 5.90301,5.63198 1.09002,1.09317 4.17589,3.92577 4.17589,4.26701 0,0.34426 -2.99528,0.36842 -2.99528,0.36842" /><path
           inkscape:connector-curvature="0"
           id="path592"
           style="fill:#1d1d1b;fill-opacity:1;fill-rule:nonzero;stroke:none"
           d="m 134.08804,414.08282 c -0.72467,0 -2.65409,0 -2.99831,-0.34426 -0.28382,-0.28689 -0.49518,-0.39862 -0.69447,-0.50733 -0.25062,-0.1359 -0.53444,-0.28991 -1.12324,-0.88179 -0.25664,-0.25367 -0.53444,-0.4862 -0.81524,-0.71872 -0.92093,-0.761 -1.71504,-1.41932 -1.71504,-2.9383 0,-2.34942 -1.26213,-4.43914 -2.25855,-4.43914 -0.31705,-0.15704 -1.60634,-2.25884 -1.77543,-4.21266 -0.0936,-1.066 0.17211,-1.81492 0.79109,-2.22864 0.71561,-0.47713 1.78147,-0.71872 3.17042,-0.71872 2.12267,0 4.23628,0.57981 4.25439,0.58585 0.12078,0.0302 11.00889,2.81146 12.2046,6.31144 1.28024,3.74459 2.30988,4.84683 4.96094,6.45337 2.50312,1.51596 11.09042,9.73593 11.63996,10.59054 0.0906,0.56169 1.02057,1.54011 3.14927,3.66909 0.80922,0.81234 2.17099,2.12596 3.53577,3.44563 1.34668,1.30456 2.69939,2.60913 3.49048,3.40032 0.87564,0.87274 2.25553,2.17126 3.47237,3.31578 1.01151,0.95426 1.93848,1.82095 2.42763,2.31318 0.28986,0.28991 0.72467,0.70664 1.20173,1.16264 0.86658,0.83045 2.22835,2.13502 2.71751,2.7118 -0.50425,0.0906 -1.57313,0.15402 -2.49406,0.16308 l -17.90228,0 c -0.26572,-0.68551 -1.02662,-2.55478 -1.63956,-3.1678 -0.21439,-0.21441 -0.56162,-0.47714 -0.96019,-0.77912 -0.75788,-0.57075 -2.02302,-1.52803 -2.02302,-2.05952 0,-1.14452 -0.88772,-2.03235 -1.82677,-2.97151 -0.47707,-0.47714 -1.49462,-1.39517 -2.47897,-2.28601 -0.9179,-0.83046 -1.78449,-1.61561 -2.14983,-1.98101 -0.25364,-0.25669 -0.29591,-0.98447 -0.33819,-1.69111 -0.0604,-1.04486 -0.12681,-2.22561 -0.84242,-2.94131 -1.06889,-1.066 -5.18438,-4.33647 -5.85169,-4.86494 -0.0483,-0.16307 -0.0996,-0.32916 -0.14795,-0.49525 -0.55256,-1.83304 -1.17456,-3.91672 -4.05511,-3.91672 -0.53746,0 -1.06587,0.006 -1.57313,0.0121 -0.47103,0.006 -0.92394,0.009 -1.35271,0.009 m -7.41877,-17.69016 0,0 c -1.53086,0 -2.72958,0.28085 -3.55993,0.83649 -1.13833,0.761 -1.42518,2.31017 -0.80015,4.36668 0.41669,1.37402 1.43122,3.35805 2.174,3.35805 0.37743,0 1.55502,1.55219 1.55502,3.73854 0,1.84814 1.04774,2.71483 1.9717,3.47885 0.26268,0.21742 0.52538,0.43485 0.76391,0.67644 0.66427,0.66134 1.00849,0.84857 1.28628,0.99956 0.18419,0.0996 0.32006,0.17213 0.53445,0.38654 0.46197,0.46203 1.6305,0.55263 3.49349,0.55263 0.42877,0 0.88772,-0.006 1.35875,-0.0121 0.50726,-0.003 1.03265,-0.009 1.56709,-0.009 2.35819,0 2.83224,1.58239 3.38178,3.41844 0.0634,0.20233 0.12379,0.40466 0.1872,0.60397 l 0.0332,0.10267 0.0846,0.0664 c 0.0453,0.0362 4.76166,3.76875 5.8698,4.87702 0.5284,0.52847 0.5888,1.56729 0.64012,2.48834 0.0544,0.91199 0.0997,1.70017 0.5435,2.14106 0.37743,0.3805 1.25005,1.17169 2.174,2.00819 0.9783,0.88481 1.98982,1.79981 2.45179,2.26185 0.87262,0.86971 1.62446,1.62165 1.62446,2.47626 0,0.88179 1.21986,1.80283 2.30082,2.61819 0.36234,0.2748 0.70655,0.53753 0.88772,0.7157 0.5133,0.51337 1.30439,2.44304 1.56407,3.14666 l 0.0845,0.22649 18.39446,0 c 3.34856,-0.0272 3.34856,-0.4107 3.34856,-0.71872 0,-0.31709 -0.38649,-0.77006 -3.09192,-3.36107 -0.47405,-0.456 -0.90281,-0.86669 -1.18966,-1.15358 -0.49518,-0.49525 -1.42819,-1.371 -2.44574,-2.32828 -1.21382,-1.1415 -2.59068,-2.43399 -3.45726,-3.3037 -0.79412,-0.79119 -2.14683,-2.1018 -3.49954,-3.40636 -1.36177,-1.31665 -2.7175,-2.62725 -3.4935,-3.40335 -1.24401,-1.24417 -2.90168,-2.90507 -2.98321,-3.30973 0.003,-0.83649 -9.95511,-9.86578 -11.9721,-11.08881 -2.52425,-1.52804 -3.44216,-2.5125 -4.65899,-6.07892 -1.31951,-3.85934 -12.22272,-6.64664 -12.68771,-6.76441 -0.0815,-0.0242 -2.21929,-0.60699 -4.43556,-0.60699" /><path
           inkscape:connector-curvature="0"
           id="path596"
           style="fill:#4c2a1f;fill-opacity:1;fill-rule:nonzero;stroke:none"
           d="m 174.78652,441.56477 -6.08418,-6.99393 -6.35291,0 0,-7.26268 -5.63126,0 0,-5.90075 -8.44237,0 0,-5.72257 -7.08361,-5.35718 -4.35706,0 0,-5.81317 -5.17533,-5.53836 0,-7.71869 9.43879,0 c 0,0 1.27119,4.26702 3.90414,5.0854 2.63296,0.81837 -0.63711,2.90507 1.8177,4.35761 2.44877,1.45254 3.35762,1.36194 3.99473,2.99567 0.6371,1.63372 2.62994,5.63198 4.35706,6.35674 1.7241,0.72777 3.31534,2.3162 3.81355,2.81448 0.50123,0.49827 2.72354,3.90765 5.62824,3.90765 2.90471,0 10.2631,0.72476 10.2631,0.72476 l 9.80413,6.99393 0,12.25748 -0.54652,5.08841 -4.71939,1.35892 -4.24232,0 -0.38649,-1.63372 z" /><path
           inkscape:connector-curvature="0"
           id="path600"
           style="fill:#1d1d1b;fill-opacity:1;fill-rule:nonzero;stroke:none"
           d="m 132.00946,391.60744 8.83489,0 c 0.3261,0.95729 1.62446,4.31534 4.05209,5.07029 1.01454,0.31407 0.92396,0.72174 0.73675,1.5371 -0.18117,0.81535 -0.4348,1.93571 1.00849,2.7873 0.72769,0.43183 1.32553,0.73382 1.80865,0.97238 1.15946,0.57981 1.63653,0.8214 2.03812,1.85116 0.5586,1.43744 2.59974,5.73163 4.54728,6.55303 1.10512,0.46203 2.35215,1.3861 3.70184,2.73596 0.0725,0.0725 0.18117,0.20837 0.32308,0.38352 0.87564,1.08412 2.92585,3.62681 5.55578,3.62681 2.67824,0 9.26969,0.63115 10.13325,0.7157 l 9.5807,6.83387 0,12.0763 -0.51934,4.81662 -4.44765,1.28041 -3.9132,0 -0.39857,-1.51293 -6.18985,-7.11472 -6.16268,0 0,-7.26269 -5.63127,0 0,-5.90376 -8.44236,0 0,-5.54139 -7.31612,-5.53534 -4.12455,0 0,-5.59876 -5.17533,-5.54139 0,-7.22947 z m 9.35121,-0.70362 -10.05474,0 0,8.21092 5.17835,5.53836 0,6.02456 4.58653,0 6.85414,5.18504 0,5.89471 8.44236,0 0,5.90074 5.63127,0 0,7.26571 6.54312,0 5.92416,6.80367 0.42875,1.82398 4.61674,-0.0151 4.94887,-1.42536 0.57067,-5.32094 0,-12.47793 -10.02757,-7.15397 -0.0936,-0.009 c -0.30194,-0.0272 -7.4067,-0.72778 -10.29328,-0.72778 -2.29478,0 -4.19702,-2.35546 -5.00926,-3.36107 -0.16607,-0.20535 -0.28986,-0.35936 -0.37139,-0.44089 -0.5284,-0.52847 -2.13475,-2.13502 -3.92829,-2.88998 -1.57917,-0.66436 -3.52369,-4.5086 -4.16684,-6.16045 -0.49821,-1.2804 -1.20476,-1.63372 -2.3763,-2.21957 -0.47406,-0.23857 -1.05982,-0.53149 -1.76637,-0.94823 -1.00246,-0.5949 -0.86054,-1.22907 -0.67938,-2.03234 0.17815,-0.78214 0.4197,-1.85418 -1.21079,-2.36151 -2.42764,-0.75495 -3.6626,-4.81058 -3.67467,-4.84984 l -0.0725,-0.25367 z" /><path
           inkscape:connector-curvature="0"
           id="path604"
           style="fill:#c39400;fill-opacity:1;fill-rule:nonzero;stroke:none"
           d="m 229.43725,468.94766 c 0,-1.87229 -1.5218,-3.39126 -3.39386,-3.39126 -1.86903,0 -3.39083,1.51897 -3.39083,3.39126 0,1.8723 1.5218,3.39127 3.39083,3.39127 1.87206,0 3.39386,-1.51897 3.39386,-3.39127" /><path
           inkscape:connector-curvature="0"
           id="path608"
           style="fill:#1d1d1b;fill-opacity:1;fill-rule:nonzero;stroke:none"
           d="m 226.0446,471.98833 c -1.67579,0 -3.04058,-1.36496 -3.04058,-3.04097 0,-1.676 1.36479,-3.04097 3.04058,-3.04097 1.6758,0 3.04058,1.36497 3.04058,3.04097 0,1.67601 -1.36478,3.04097 -3.04058,3.04097 m 0,-6.78254 c -2.06228,0 -3.7411,1.67903 -3.7411,3.74157 0,2.06254 1.67882,3.74459 3.7411,3.74459 2.06228,0 3.74411,-1.68205 3.74411,-3.74459 0,-2.06254 -1.68183,-3.74157 -3.74411,-3.74157" /><path
           inkscape:connector-curvature="0"
           id="path612"
           style="fill:#c39400;fill-opacity:1;fill-rule:nonzero;stroke:none"
           d="m 231.59766,460.63317 0,8.76354 -11.10551,0 0,-9.42488 11.16287,0 -0.0574,0.66134 z" /><path
           inkscape:connector-curvature="0"
           id="path616"
           style="fill:#1d1d1b;fill-opacity:1;fill-rule:nonzero;stroke:none"
           d="m 220.8427,460.32303 10.42916,0 -0.0242,0.27783 0,8.44646 -10.40501,0 0,-8.72429 z m 11.1961,-0.7006 -11.89661,0 0,10.12549 11.80603,0 0,-9.11384 0.0906,-1.01165 z" /><path
           inkscape:connector-curvature="0"
           id="path620"
           style="fill:#c86606;fill-opacity:1;fill-rule:nonzero;stroke:none"
           d="m 88.444018,420.22032 c 0,-1.8723 -1.518777,-3.39127 -3.390838,-3.39127 -1.872052,0 -3.390828,1.51897 -3.390828,3.39127 0,1.87229 1.518776,3.39126 3.390828,3.39126 1.872061,0 3.390838,-1.51897 3.390838,-3.39126" /><path
           inkscape:connector-curvature="0"
           id="path624"
           style="fill:#1d1d1b;fill-opacity:1;fill-rule:nonzero;stroke:none"
           d="m 85.05409,423.26128 c -1.675797,0 -3.040583,-1.36496 -3.040583,-3.04096 0,-1.67601 1.364786,-3.04097 3.040583,-3.04097 1.675786,0 3.037563,1.36496 3.037563,3.04097 0,1.676 -1.361777,3.04096 -3.037563,3.04096 m 0,-6.78253 c -2.062278,0 -3.744114,1.67902 -3.744114,3.74157 0,2.06254 1.681836,3.74156 3.744114,3.74156 2.062277,0 3.741093,-1.67902 3.741093,-3.74156 0,-2.06255 -1.678816,-3.74157 -3.741093,-3.74157" /><path
           inkscape:connector-curvature="0"
           id="path628"
           style="fill:#c86606;fill-opacity:1;fill-rule:nonzero;stroke:none"
           d="m 90.605642,411.90492 0,8.76656 -11.105515,0 0,-9.42791 11.165898,0 -0.06039,0.66135 z" /><path
           inkscape:connector-curvature="0"
           id="path632"
           style="fill:#1d1d1b;fill-opacity:1;fill-rule:nonzero;stroke:none"
           d="m 79.852192,411.59599 10.429162,0 -0.0242,0.27782 -0.003,8.44646 -10.401985,0 0,-8.72428 z m 11.196094,-0.70362 -11.899624,0 0,10.1285 11.809046,0 0,-9.11686 0.09059,-1.01164 z" /><path
           inkscape:connector-curvature="0"
           id="path636"
           style="fill:#c39400;fill-opacity:1;fill-rule:nonzero;stroke:none"
           d="m 238.0188,451.98831 0,13.20873 -6.48274,0 0,-3.84424 -1.7392,0 0,3.84424 -5.04247,0 0,-3.84424 -2.22231,0 0,3.84424 -4.9217,0 0,-3.84424 -2.46084,0 0,3.84424 -6.18081,0 0,-3.84424 -2.04114,0 0,3.84424 -6.90547,0 0,-3.84424 -2.15889,0 0,3.84424 -5.58296,0 0,-3.84424 -2.04114,0 0,3.84424 -9.00398,0 0,-22.03569 50.3613,0 6.42235,8.82696 z" /><path
           inkscape:connector-curvature="0"
           id="path640"
           style="fill:#1d1d1b;fill-opacity:1;fill-rule:nonzero;stroke:none"
           d="m 181.58661,443.51346 49.8329,0 6.24723,8.58839 0,12.74368 -5.77922,0 0,-3.84424 -2.44272,0 0,3.84424 -4.33894,0 0,-3.84424 -2.92283,0 0,3.84424 -4.22118,0 0,-3.84424 -3.16136,0 0,3.84424 -5.48029,0 0,-3.84424 -2.74467,0 0,3.84424 -6.20194,0 0,-3.84424 -2.86244,0 0,3.84424 -4.88244,0 0,-3.84424 -2.74165,0 0,3.84424 -8.30045,0 0,-21.33207 z m 50.1892,-0.70362 -50.88971,0 0,22.73629 9.70449,0 0,-3.84122 1.33761,0 0,3.84122 6.28648,0 0,-3.84122 1.45538,0 0,3.84122 7.609,0 0,-3.84122 1.33761,0 0,3.84122 6.88433,0 0,-3.84122 1.76034,0 0,3.84122 5.6222,0 0,-3.84122 1.51879,0 0,3.84122 5.746,0 0,-3.84122 1.03566,0 0,3.84122 7.18628,0 0,-13.67076 -6.59446,-9.06553 z" /><path
           inkscape:connector-curvature="0"
           id="path644"
           style="fill:#c39400;fill-opacity:1;fill-rule:nonzero;stroke:none"
           d="m 179.79336,457.49768 0,-3.1074 -2.75977,0 0,3.1074 -4.68315,0 0,-2.92923 -1.50067,0 -1.50066,0 0,2.92923 -4.68316,0 0,-3.1074 -2.75977,0 0,3.1074 -6.48275,-0.0483 0,-6.42318 3.66259,-3.66003 0,-5.82525 11.76375,0 11.76677,0 0,5.82525 3.65956,3.66003 0,6.42318 -6.48274,0.0483 z" /><path
           inkscape:connector-curvature="0"
           id="path648"
           style="fill:#1d1d1b;fill-opacity:1;fill-rule:nonzero;stroke:none"
           d="m 159.43597,441.89332 22.82699,0 0,5.61688 3.66259,3.66306 0,5.92792 -5.78224,0.0423 0,-3.10439 -3.46027,0 0,3.10741 -3.97964,0 0,-2.92622 -3.70486,0 0,2.92622 -3.97962,0 0,-3.10741 -3.4633,0 0,3.10439 -5.78223,-0.0423 0,-5.92792 3.66258,-3.66306 0,-5.61688 z m 23.53053,-0.70362 -24.23406,0 0,6.0306 -3.65956,3.66003 0,6.91843 7.18627,0.0513 0,-3.11043 2.05624,0 0,3.11043 5.38668,0 0,-2.92924 2.2978,0 0,2.92924 5.38368,0 0,-3.11043 2.05925,0 0,3.11043 7.18326,-0.0513 0,-6.91843 -3.65956,-3.66003 0,-6.0306 z" /><path
           inkscape:connector-curvature="0"
           id="path652"
           style="fill:#c86606;fill-opacity:1;fill-rule:nonzero;stroke:none"
           d="m 226.4951,447.8454 -9.12476,0 0,-3.78384 -2.34007,0 0,3.54226 -5.82451,0 0,-3.59964 -2.69938,0 0,3.48187 -6.24421,0 0,-3.48187 -3.71995,0 0,3.36107 -6.42236,0 0,-3.30369 -3.12211,0 0,3.36409 -5.22061,0 0,-18.07065 46.21862,0 -1.50066,18.4904 z" /><path
           inkscape:connector-curvature="0"
           id="path656"
           style="fill:#1d1d1b;fill-opacity:1;fill-rule:nonzero;stroke:none"
           d="m 182.12709,429.7056 45.48792,0 -1.44329,17.78981 -8.4484,0 0,-3.78385 -3.04662,0 0,3.54226 -5.11796,0 0,-3.60265 -3.40292,0 0,3.48186 -5.54369,0 0,-3.48186 -4.42047,0 0,3.36408 -5.72185,0 0,-3.30369 -3.82261,0 0,3.36107 -4.52011,0 0,-17.36703 z m 46.24882,-0.70362 -46.95235,0 0,18.77427 5.92415,0 0,-3.36107 2.41857,0 0,3.30067 7.12589,0 0,-3.36106 3.01945,0 0,3.48186 6.94471,0 0,-3.48186 2.0019,0 0,3.60265 6.522,0 0,-3.54226 1.63956,0 0,3.78083 9.79809,0 1.55803,-19.19403 z" /><path
           inkscape:connector-curvature="0"
           id="path660"
           style="fill:#c86606;fill-opacity:1;fill-rule:nonzero;stroke:none"
           d="m 258.56643,433.56494 0,-12.63496 -2.29478,0 -31.51394,0 0,36.5671 6.04795,0 0,-4.00429 2.64202,0 0,4.00429 6.64277,0 0,-3.66305 2.21325,0 0,3.66305 5.96038,0 0,-3.66305 2.8111,0 0,3.66305 7.49125,0 0,-21.29885 0,-2.63329 z" /><path
           inkscape:connector-curvature="0"
           id="path664"
           style="fill:#1d1d1b;fill-opacity:1;fill-rule:nonzero;stroke:none"
           d="m 225.10978,421.28028 33.10518,0 0,35.8665 -6.7877,0 0,-3.66305 -3.51464,0 0,3.66305 -5.25988,0 0,-3.66305 -2.91376,0 0,3.66305 -5.94226,0 0,-4.00429 -3.3395,0 0,4.00429 -5.34744,0 0,-35.8665 z m 33.80871,-0.70362 -34.51224,0 0,37.27072 6.75148,0 0,-4.00127 1.93848,0 0,4.00127 7.34329,0 0,-3.66003 1.51273,0 0,3.66003 6.66392,0 0,-3.66003 2.10758,0 0,3.66003 8.19476,0 0,-37.27072 z" /><path
           inkscape:connector-curvature="0"
           id="path668"
           style="fill:#c39400;fill-opacity:1;fill-rule:nonzero;stroke:none"
           d="m 259.22798,433.01684 0,2.64235 -6.56124,0 0,-4.14321 -3.6022,0 0,4.14321 -7.44294,0 0,-4.08281 -2.75976,0 0,4.08281 -7.32517,0 0,-3.96202 -2.82016,0 0,3.96202 -7.02323,0 0,-4.02241 -2.75978,0 0,4.02241 -7.20439,0 0,-4.02241 -2.52123,0 0,4.02241 -7.02323,0 0,-4.14321 -3.06171,0 0,4.14321 -6.96285,0 0,-4.3244 -3.1221,0 0,4.3244 -6.90245,0 0,-4.08281 -2.70239,0 0,4.08281 -4.98209,0 0,-18.13105 48.74288,0 35.71398,0 0.32006,15.4887 z" /><path
           inkscape:connector-curvature="0"
           id="path672"
           style="fill:#1d1d1b;fill-opacity:1;fill-rule:nonzero;stroke:none"
           d="m 174.80162,417.87874 83.76541,0 0.311,15.14444 0,2.28299 -5.86074,0 0,-4.14018 -4.30271,0 0,4.14018 -6.74241,0 0,-4.08281 -3.46029,0 0,4.08281 -6.62466,0 0,-3.96201 -3.52369,0 0,3.96201 -6.31969,0 0,-4.02241 -3.46331,0 0,4.02241 -6.50086,0 0,-4.02241 -3.22174,0 0,4.02241 -6.32272,0 0,-4.14018 -3.76525,0 0,4.14018 -6.2593,0 0,-4.32137 -3.82262,0 0,4.32137 -6.20193,0 0,-4.08281 -3.40292,0 0,4.08281 -4.28157,0 0,-17.42743 z m 84.45082,-0.70362 -85.15134,0 0,18.83467 5.6826,0 0,-4.08281 2.0019,0 0,4.08281 7.60295,0 0,-4.32439 2.41858,0 0,4.32439 7.66636,0 0,-4.1432 2.35819,0 0,4.1432 7.72676,0 0,-4.02241 1.8177,0 0,4.02241 7.90792,0 0,-4.02241 2.05927,0 0,4.02241 7.72373,0 0,-3.96201 2.11965,0 0,3.96201 8.02568,0 0,-4.08281 2.05926,0 0,4.08281 8.14344,0 0,-4.1432 2.90169,0 0,4.1432 7.26176,0 0,-2.99265 -0.3261,-15.84202 z" /><path
           inkscape:connector-curvature="0"
           id="path676"
           style="fill:#c86606;fill-opacity:1;fill-rule:nonzero;stroke:none"
           d="m 119.46789,412.12476 -5.22363,0 -5.70072,-5.34208 5.58295,0 5.3414,5.34208 z" /><path
           inkscape:connector-curvature="0"
           id="path680"
           style="fill:#1d1d1b;fill-opacity:1;fill-rule:nonzero;stroke:none"
           d="m 109.43036,407.13329 4.5503,0 4.64088,4.64147 -4.23628,0 -4.9549,-4.64147 z m 4.84017,-0.70362 -6.61258,0 6.44953,6.04569 6.20798,0 -6.04493,-6.04569 z" /><path
           inkscape:connector-curvature="0"
           id="path684"
           style="fill:#c39400;fill-opacity:1;fill-rule:nonzero;stroke:none"
           d="m 124.44907,399.69786 0,7.44388 -4.98209,4.98272 -5.34139,-5.34208 0,-7.68546 10.32348,0 0,0.60094 z" /><path
           inkscape:connector-curvature="0"
           id="path688"
           style="fill:#1d1d1b;fill-opacity:1;fill-rule:nonzero;stroke:none"
           d="m 114.47736,399.44903 9.62296,0 0,7.54655 -4.63183,4.63242 -4.99113,-4.99178 0,-7.18719 z m 10.32347,-0.70362 -11.027,0 0,8.18072 5.69466,5.69539 5.33234,-5.33301 0,-8.5431 z" /><path
           d="m 108.54354,399.2162 5.58295,0 0,7.56467 -5.58295,0 0,-7.56467 z"
           style="fill:#c86606;fill-opacity:1;fill-rule:nonzero;stroke:none"
           id="path690"
           inkscape:connector-curvature="0" /><path
           d="m 108.8938,399.56952 4.87942,0 0,6.86105 -4.87942,0 0,-6.86105 z m 5.58295,-0.70362 -6.28346,0 0,8.26829 6.28346,0 0,-8.26829 z"
           style="fill:#1d1d1b;fill-opacity:1;fill-rule:nonzero;stroke:none"
           id="path692"
           inkscape:connector-curvature="0" /><path
           d="m 113.82455,389.97251 18.06835,0 0,9.60607 -18.06835,0 0,-9.60607 z"
           style="fill:#c39400;fill-opacity:1;fill-rule:nonzero;stroke:none"
           id="path694"
           inkscape:connector-curvature="0" /><path
           d="m 114.17481,390.32281 17.36482,0 0,8.90245 -17.36482,0 0,-8.90245 z m 18.06835,-0.7006 -18.77188,0 0,10.30667 18.77188,0 0,-10.30667 z"
           style="fill:#1d1d1b;fill-opacity:1;fill-rule:nonzero;stroke:none"
           id="path696"
           inkscape:connector-curvature="0" /><path
           inkscape:connector-curvature="0"
           id="path700"
           style="fill:#c86606;fill-opacity:1;fill-rule:nonzero;stroke:none"
           d="m 101.47895,387.18068 0,28.52228 c 0,0 -5.812422,3.44562 -11.839234,2.04744 -6.026813,-1.4012 -4.302702,-3.1225 -9.900759,-2.26185 -3.013397,0 -4.305722,0.21139 -4.305722,-1.29249 l 0,-23.56976 c 0,0 3.659564,-6.78253 13.451617,-6.78253 9.795082,0 12.594098,3.33691 12.594098,3.33691" /><path
           inkscape:connector-curvature="0"
           id="path704"
           style="fill:#1d1d1b;fill-opacity:1;fill-rule:nonzero;stroke:none"
           d="m 75.7853,390.71901 c 0.431785,-0.72174 4.190986,-6.52283 13.101371,-6.52283 8.587297,0 11.712419,2.61819 12.240819,3.12552 l 0,28.17802 c -0.80921,0.43788 -4.372151,2.23467 -8.481617,2.23467 -1.011512,0 -1.998866,-0.11173 -2.928857,-0.32614 -2.406494,-0.56169 -3.53275,-1.15961 -4.435565,-1.64278 -1.307414,-0.69456 -2.285719,-1.13244 -5.595028,-0.62511 -0.307981,-0.003 -0.640118,0.003 -0.94207,0.003 l -0.748814,0.003 c -1.935464,0 -2.210239,-0.19931 -2.210239,-0.95125 l 0,-23.47614 z m 13.101371,-7.22645 c -9.88868,0 -13.723372,6.89729 -13.759607,6.96674 l -0.04529,0.16609 0,23.56976 c 0,1.65487 1.482551,1.65487 2.913769,1.65487 l 0.751834,-0.006 c 0.307991,-0.003 0.637109,-0.003 0.990384,-0.003 3.209661,-0.48015 3.910172,-0.15099 5.211556,0.54357 0.890736,0.47411 2.110591,1.1264 4.610693,1.7062 0.981315,0.22951 2.020002,0.34426 3.085867,0.34426 4.858291,0 8.843943,-2.3313 9.010013,-2.42794 l 0.17513,-0.10267 0,-28.85144 -0.0846,-0.0966 c -0.11776,-0.14193 -3.016418,-3.46374 -12.859805,-3.46374" /><path
           d="m 49.17525,359.84066 13.131557,0 0,24.43343 -13.131557,0 0,-24.43343 z"
           style="fill:#c86606;fill-opacity:1;fill-rule:nonzero;stroke:none"
           id="path706"
           inkscape:connector-curvature="0" /><path
           d="m 49.525505,360.19096 12.428027,0 0,23.73283 -12.428027,0 0,-23.73283 z m 13.128538,-0.70362 -13.832068,0 0,25.13705 13.832068,0 0,-25.13705 z"
           style="fill:#1d1d1b;fill-opacity:1;fill-rule:nonzero;stroke:none"
           id="path708"
           inkscape:connector-curvature="0" /><path
           inkscape:connector-curvature="0"
           id="path712"
           style="fill:#c39400;fill-opacity:1;fill-rule:nonzero;stroke:none"
           d="m 80.600407,374.04835 c 0,0 1.558031,11.35757 2.584641,12.37827 1.02058,1.02373 -2.261562,6.88823 -6.890363,5.70446 -4.62881,-1.18377 -20.369175,-10.17078 -21.610167,-11.40891 -1.234953,-1.23813 -3.360632,-21.31395 0.407628,-22.82084 3.76827,-1.50388 24.590348,15.23201 25.508261,16.14702" /><path
           inkscape:connector-curvature="0"
           id="path716"
           style="fill:#1d1d1b;fill-opacity:1;fill-rule:nonzero;stroke:none"
           d="m 77.520269,391.93842 c -0.377422,0 -0.760893,-0.0483 -1.138325,-0.14798 -4.444624,-1.13545 -20.151773,-10.01979 -21.450128,-11.31529 -0.848462,-0.85159 -2.409513,-13.33255 -1.159472,-19.41146 0.332148,-1.60957 0.830354,-2.58799 1.449335,-2.83562 0.117765,-0.0453 0.268736,-0.0695 0.446883,-0.0695 4.55936,-0.003 22.805856,14.40157 24.602427,16.05945 0.298922,2.16824 1.633522,11.42401 2.66617,12.45679 0.111716,0.11174 0.16003,0.56773 -0.169088,1.36195 -0.625031,1.50689 -2.605788,3.90162 -5.247802,3.90162 m -21.848687,-34.48343 -0.003,0 c -0.268735,0 -0.507265,0.0423 -0.70655,0.1208 -0.872618,0.3503 -1.48557,1.44348 -1.875081,3.34597 -1.213815,5.89168 0.126824,18.82561 1.349698,20.04864 1.222875,1.22303 16.917945,10.25836 21.770187,11.50253 0.437815,0.11173 0.878659,0.16609 1.313453,0.16609 3.007367,0 5.172311,-2.59102 5.893959,-4.33346 0.404609,-0.97842 0.410648,-1.73338 0.0181,-2.12596 -0.685413,-0.6855 -1.887149,-7.83343 -2.485003,-12.17897 l -0.0151,-0.11777 -0.08149,-0.0815 C 80.120048,373.07354 60.895247,357.45498 55.671612,357.45498" /><path
           inkscape:connector-curvature="0"
           id="path720"
           style="fill:#c39400;fill-opacity:1;fill-rule:nonzero;stroke:none"
           d="m 132.90321,386.96506 0,3.55132 c 0,0 -14.31518,0.75496 -18.62091,0 -4.29969,-0.75194 -19.26103,-4.6294 -23.243673,-4.6294 -3.979633,0 -7.968315,1.72432 -10.761299,-1.07506 -2.799023,-2.79938 -2.478964,-8.82696 -1.506698,-11.1945 0.969236,-2.36755 1.721081,-5.16693 1.721081,-5.16693 l 45.095389,0 8.60844,4.6294 1.5067,3.98315 -2.79903,9.90202 z" /><path
           inkscape:connector-curvature="0"
           id="path724"
           style="fill:#1d1d1b;fill-opacity:1;fill-rule:nonzero;stroke:none"
           d="m 80.759837,368.8026 44.736083,0 8.4182,4.52371 1.42216,3.75364 -2.78392,9.8839 0,3.21914 c -1.3799,0.0695 -6.79678,0.3201 -11.52824,0.3201 -3.1825,0 -5.43198,-0.11173 -6.67901,-0.32916 -1.4282,-0.25065 -4.03398,-0.84555 -7.05041,-1.53709 -6.04493,-1.38006 -13.563336,-3.10137 -16.256683,-3.10137 -1.144364,0 -2.285718,0.14194 -3.390828,0.27481 -1.053785,0.12985 -2.047189,0.25366 -3.004347,0.25366 -1.814689,0 -3.082857,-0.46505 -4.118525,-1.49783 -2.690328,-2.69369 -2.35516,-8.55518 -1.431218,-10.81401 0.797138,-1.94477 1.455374,-4.19756 1.666738,-4.9495 m 44.917243,-0.70362 -45.454705,0 -0.06949,0.26273 c -0.006,0.0272 -0.757874,2.80542 -1.709002,5.12465 -1.014531,2.47022 -1.361767,8.62765 1.585208,11.575 1.159462,1.16263 2.626915,1.70318 4.613712,1.70318 0.996413,0 2.013963,-0.12381 3.091906,-0.25668 1.080962,-0.13287 2.20118,-0.26877 3.303269,-0.26877 2.614847,0 10.090982,1.70923 16.099672,3.08325 3.02549,0.68852 5.64033,1.28645 7.08664,1.54011 1.2893,0.22649 3.57502,0.34124 6.79979,0.34124 5.46217,0 11.83622,-0.33218 11.8966,-0.3352 l 0.33517,-0.0181 0,-3.8382 2.81412,-9.96543 -0.0393,-0.10872 -1.55501,-4.10394 -0.11474,-0.0634 -8.68392,-4.67168 z" /><path
           inkscape:connector-curvature="0"
           id="path728"
           style="fill:#c39400;fill-opacity:1;fill-rule:nonzero;stroke:none"
           d="m 59.181075,360.59501 c 0,0 -1.398002,19.26651 -3.873947,20.12716 -2.472925,0.86065 -7.316108,-9.36449 -6.026802,-20.34459 1.292316,-10.97707 9.900749,0.21743 9.900749,0.21743" /><path
           inkscape:connector-curvature="0"
           id="path732"
           style="fill:#1d1d1b;fill-opacity:1;fill-rule:nonzero;stroke:none"
           d="m 55.002467,380.4226 c -0.353275,0 -0.818265,-0.29896 -1.304394,-0.84857 -2.340072,-2.63027 -5.057575,-10.75361 -4.070211,-19.15477 0.353275,-2.99567 1.274208,-4.51465 2.735611,-4.51465 2.51218,0 5.89094,4.09187 6.458598,4.80153 -0.543501,7.36838 -1.995856,19.11552 -3.629378,19.68626 -0.06039,0.0181 -0.123794,0.0302 -0.190226,0.0302 m -2.638994,-25.21859 0,0 c -1.875071,0 -3.031523,1.72735 -3.430083,5.13371 -1.059825,8.99909 1.905268,17.07713 4.2393,19.70438 0.803168,0.89991 1.591248,1.24115 2.249484,1.01165 2.563503,-0.89085 3.870927,-17.17679 4.106447,-20.43216 l 0.0121,-0.1359 -0.08149,-0.10569 c -0.16305,-0.21139 -4.015859,-5.17599 -7.095697,-5.17599" /><path
           inkscape:connector-curvature="0"
           id="path736"
           style="fill:#c39400;fill-opacity:1;fill-rule:nonzero;stroke:none"
           d="m 131.83282,391.17229 0,-4.38178 17.16855,0 -8.10418,4.92232 -9.00398,0 -0.0604,-0.54054 z" /><path
           inkscape:connector-curvature="0"
           id="path740"
           style="fill:#1d1d1b;fill-opacity:1;fill-rule:nonzero;stroke:none"
           d="m 132.18398,387.14172 15.56221,0 -6.94773,4.22172 -8.59334,0 -0.0242,-0.22951 0.003,-3.99221 z m 18.06835,-0.70362 -18.77188,0 0,4.73509 0.0996,0.89085 9.41463,0 9.25761,-5.62594 z" /><path
           d="m 126.00801,387.63214 24.67188,0 0,-20.35364 -24.67188,0 0,20.35364 z"
           style="fill:#c39400;fill-opacity:1;fill-rule:nonzero;stroke:none"
           id="path742"
           inkscape:connector-curvature="0" /><path
           d="m 126.36129,367.63182 23.96834,0 0,19.65002 -23.96834,0 0,-19.65002 z m 24.66885,-0.70362 -25.37239,0 0,21.05424 25.37239,0 0,-21.05424 z"
           style="fill:#1d1d1b;fill-opacity:1;fill-rule:nonzero;stroke:none"
           id="path744"
           inkscape:connector-curvature="0" /><path
           inkscape:connector-curvature="0"
           id="path748"
           style="fill:#c39400;fill-opacity:1;fill-rule:nonzero;stroke:none"
           d="m 147.19937,369.3809 0,13.14531 -9.21836,0 -2.18608,2.2226 -8.89226,0 0,-6.30238 14.83453,-15.12934 5.46217,6.06381 z" /><path
           inkscape:connector-curvature="0"
           id="path752"
           style="fill:#1d1d1b;fill-opacity:1;fill-rule:nonzero;stroke:none"
           d="m 127.25232,378.58836 14.47522,-14.76092 5.12098,5.68935 0,12.65912 -9.01305,0 -2.1891,2.2226 -8.39405,0 0,-5.81015 z m 14.49636,-15.78465 -15.19687,15.49776 0,6.80066 9.38746,0 2.18909,-2.2226 9.42067,0 0,-13.63452 -5.80035,-6.4413 z" /><path
           inkscape:connector-curvature="0"
           id="path756"
           style="fill:#4c2a1f;fill-opacity:1;fill-rule:nonzero;stroke:none"
           d="m 146.24523,351.35736 -20.23631,26.35404 c 0,0 -8.75639,0.56773 -13.5573,-0.56169 -4.80092,-1.12941 -13.744509,-3.95295 -19.107046,-3.95295 -5.365547,0 -13.176852,2.16521 -19.390871,-1.78774 -6.210988,-3.95598 -13.364057,-7.62809 -14.683549,-11.29718 -1.319502,-3.67211 5.742978,-19.58359 9.227414,-19.58359 3.478407,0 40.659832,-3.38522 41.318072,-3.38522 0.65824,0 30.4994,0.75193 30.4994,0.75193 l 8.61145,8.61255 -2.68126,4.84985 z" /><path
           inkscape:connector-curvature="0"
           id="path760"
           style="fill:#1d1d1b;fill-opacity:1;fill-rule:nonzero;stroke:none"
           d="m 83.500587,373.43744 c -3.892064,0 -6.866215,-0.73986 -9.357258,-2.32527 -1.204756,-0.76704 -2.448768,-1.52199 -3.674662,-2.27091 -5.063605,-3.08929 -9.846406,-6.00342 -10.869995,-8.8481 -0.860551,-2.39774 2.385356,-11.45723 5.88489,-16.43391 1.639561,-2.3313 2.59068,-2.67858 3.013406,-2.67858 2.43971,0 21.341432,-1.65487 32.634142,-2.64235 4.71638,-0.41372 8.44539,-0.73986 8.68392,-0.7459 0.64013,0 28.12914,0.69154 30.35146,0.74892 l 8.3246,8.32566 -2.55143,4.62034 -20.11252,26.18493 c -0.55256,0.0302 -2.48802,0.13288 -4.82204,0.13288 -3.61126,0 -6.54012,-0.24159 -8.47256,-0.69758 -1.15646,-0.26877 -2.58163,-0.64927 -4.09135,-1.04789 -4.8915,-1.29852 -10.981721,-2.91413 -15.097216,-2.91413 -1.331581,0 -2.808083,0.13287 -4.369134,0.27178 -1.769394,0.15704 -3.599181,0.32011 -5.474253,0.32011 m 26.314443,-36.64562 c -0.20532,0 -2.98321,0.24159 -8.7443,0.7459 -11.283663,0.98748 -30.164248,2.64235 -32.573762,2.64235 -0.993393,0 -2.19816,0.99956 -3.587103,2.97453 -3.424044,4.86796 -7.002088,14.19923 -5.972459,17.07411 1.108139,3.0772 5.993597,6.05777 11.165908,9.21047 1.225894,0.7459 2.460846,1.50086 3.662583,2.26488 2.611818,1.6609 5.703734,2.43398 9.73469,2.43398 1.905268,0 3.750143,-0.16307 5.534636,-0.32312 1.545953,-0.1359 3.007366,-0.26877 4.308751,-0.26877 4.021897,0 10.063806,1.60353 14.919066,2.88998 1.51274,0.40163 2.94396,0.78213 4.10645,1.05694 2.01396,0.47411 4.91867,0.71268 8.63561,0.71268 2.7809,0 5.00321,-0.14194 5.02435,-0.14194 l 0.16003,-0.0121 0.0966,-0.12683 20.23632,-26.35404 2.83827,-5.12465 -8.8983,-8.89943 -0.13889,-0.003 c -1.21684,-0.0302 -29.85325,-0.75194 -30.50847,-0.75194" /><path
           inkscape:connector-curvature="0"
           id="path764"
           style="fill:#c39400;fill-opacity:1;fill-rule:nonzero;stroke:none"
           d="m 158.96433,358.69494 0,13.08793 -3.9615,0 0,-2.94433 -1.98076,0 0,2.82354 -4.4416,0 0,-2.64235 -1.70599,0 0,2.76314 -6.15664,0 0,-8.04482 11.76375,-11.76827 6.90245,5.16391 -0.41971,1.56125 z" /><path
           inkscape:connector-curvature="0"
           id="path768"
           style="fill:#1d1d1b;fill-opacity:1;fill-rule:nonzero;stroke:none"
           d="m 141.06688,363.8824 11.44671,-11.45119 6.47067,4.84078 -0.37139,1.42234 0,12.73764 -3.261,0 0,-2.94433 -2.68127,0 0,2.82354 -3.73807,0 0,-2.64235 -2.40649,0 0,2.76314 -5.45916,0 0,-7.54957 z m 11.3833,-12.37526 -0.2174,0.21441 -11.86641,11.87094 0,8.54008 6.86018,0 0,-2.76012 1.00245,0 0,2.63933 5.14513,0 0,-2.82052 1.27723,0 0,2.94131 4.66504,0 0,-13.38992 0.47104,-1.74848 -7.33726,-5.48703 z" /><path
           inkscape:connector-curvature="0"
           id="path772"
           style="fill:#c39400;fill-opacity:1;fill-rule:nonzero;stroke:none"
           d="m 149.3006,357.19348 -23.29199,30.43987 0,-11.42401 19.59317,-25.71686 3.69882,6.701 z" /><path
           inkscape:connector-curvature="0"
           id="path776"
           style="fill:#1d1d1b;fill-opacity:1;fill-rule:nonzero;stroke:none"
           d="m 126.36069,376.32741 19.19459,-25.19443 3.32744,6.0306 -22.52203,29.43125 0,-10.26742 z m 19.2882,-26.47483 -19.99174,26.23929 0,12.57456 24.06195,-31.44245 -4.07021,-7.3714 z" /><path
           d="m 145.57703,357.73282 5.4048,0 0,-11.58708 -5.4048,0 0,11.58708 z"
           style="fill:#c39400;fill-opacity:1;fill-rule:nonzero;stroke:none"
           id="path778"
           inkscape:connector-curvature="0" /><path
           d="m 145.92728,346.49604 4.70127,0 0,10.88648 -4.70127,0 0,-10.88648 z m 5.4048,-0.7006 -6.10531,0 0,12.2907 6.10531,0 0,-12.2907 z"
           style="fill:#1d1d1b;fill-opacity:1;fill-rule:nonzero;stroke:none"
           id="path780"
           inkscape:connector-curvature="0" /><path
           inkscape:connector-curvature="0"
           id="path784"
           style="fill:#c39400;fill-opacity:1;fill-rule:nonzero;stroke:none"
           d="m 139.57648,343.68609 c 0,0 -39.46714,0.29896 -45.379215,0.29896 -5.912067,0 -27.972127,9.54568 -29.053089,9.90806 -1.080963,0.35936 -9.363298,4.92232 -9.363298,4.92232 0,0 -1.062844,4.68073 -3.242877,4.68073 -2.180042,0 -3.84375,-0.65832 -3.84375,-3.1225 l 0,-11.04653 c 0,0 11.048143,-9.54568 22.630727,-14.04825 11.585605,-4.50256 23.71169,-3.72042 24.49373,-2.93829 0.779011,0.77912 7.140982,-5.2847 19.478422,-0.87273 12.33443,4.41197 19.41805,2.1924 19.41805,2.1924 l 4.8613,10.02583 z" /><path
           inkscape:connector-curvature="0"
           id="path788"
           style="fill:#1d1d1b;fill-opacity:1;fill-rule:nonzero;stroke:none"
           d="m 96.026142,332.76095 c 0.353275,0 0.848462,-0.21441 1.600306,-0.54055 1.745238,-0.75797 4.668052,-2.0263 8.931512,-2.0263 2.7477,0 5.64334,0.54055 8.62051,1.60353 6.40122,2.29205 11.37425,2.7722 14.41784,2.7722 2.61786,0 4.29064,-0.33822 4.93076,-0.49525 l 4.48991,9.26483 c -4.81903,0.0362 -39.36147,0.29594 -44.820615,0.29594 -5.054556,0 -21.190461,6.64967 -27.265587,9.1531 -1.008492,0.41674 -1.739199,0.71872 -1.899228,0.77006 -1.096061,0.3654 -9.082483,4.76227 -9.42066,4.9495 l -0.135873,0.0755 -0.03619,0.15402 c -0.280815,1.22605 -1.346679,4.40895 -2.901691,4.40895 -2.415552,0 -3.490475,-0.85462 -3.490475,-2.77221 l 0,-10.88346 c 1.234953,-1.04486 11.658075,-9.70573 22.404276,-13.88215 8.17061,-3.17686 16.087591,-3.5181 19.113076,-3.5181 3.267044,0 4.806958,0.34426 5.012281,0.50129 0.108697,0.11174 0.262687,0.16911 0.449893,0.16911 M 106.558,329.49351 c -4.40839,0 -7.415755,1.30456 -9.212316,2.08368 -0.597854,0.2597 -1.111158,0.48317 -1.319502,0.48317 -0.480089,-0.48921 -3.248916,-0.6704 -5.462174,-0.6704 -3.06473,0 -11.084378,0.34426 -19.366713,3.5634 C 59.69322,339.42572 48.575626,348.96838 48.4639,349.062 l -0.120775,0.10569 0,11.20658 c 0,2.33735 1.373846,3.47281 4.194006,3.47281 2.216278,0 3.333466,-3.94692 3.547848,-4.80153 2.892632,-1.59145 8.351787,-4.54786 9.170052,-4.81965 0.181167,-0.0604 0.845443,-0.3352 1.944523,-0.78817 5.459154,-2.24977 22.081187,-9.10177 26.996851,-9.10177 5.845635,0 44.986685,-0.29594 45.382235,-0.29896 l 0.55557,-0.003 -5.23571,-10.7989 -0.28685,0.0906 c -0.0181,0.003 -1.78449,0.54357 -5.0153,0.54357 -2.98925,0 -7.8747,-0.47411 -14.18232,-2.73295 -3.05266,-1.09015 -6.02983,-1.64278 -8.85603,-1.64278" /><path
           inkscape:connector-curvature="0"
           id="path792"
           style="fill:#c39400;fill-opacity:1;fill-rule:nonzero;stroke:none"
           d="m 66.29036,355.15207 c 0,0.0151 0.003,0.0272 0.003,0.0453 0,0.0242 -0.009,0.0453 -0.009,0.0725 l -0.006,0.28084 -0.0211,0 c -0.190226,3.54226 -3.091906,6.36278 -6.682029,6.36278 -3.028504,0 -5.558792,-2.01725 -6.395186,-4.77133 l -0.0302,0.003 c 0,0 -4.341967,-12.7165 -3.378759,-14.773 0.963197,-2.05952 9.641082,-8.68201 16.972288,-4.18246 l -0.452912,16.96237 z" /><path
           inkscape:connector-curvature="0"
           id="path796"
           style="fill:#1d1d1b;fill-opacity:1;fill-rule:nonzero;stroke:none"
           d="m 53.391293,356.76255 c -1.718062,-5.06727 -3.952447,-12.85239 -3.30327,-14.24453 0.643138,-1.371 5.631263,-5.51421 11.168918,-5.51421 1.847904,0 3.572005,0.46505 5.130036,1.38308 l -0.446873,16.75703 c 0,0.0604 -0.006,0.0906 -0.006,0.12683 l -0.0302,0.26273 c -0.178148,3.38221 -2.959053,6.0306 -6.328754,6.0306 -2.802043,0 -5.238733,-1.81794 -6.060028,-4.52371 l -0.08759,-0.28084 -0.0362,0.003 z m 7.865648,-20.45934 c -5.616165,0 -10.957555,4.10999 -11.802997,5.91886 -0.996423,2.12294 2.916778,13.7221 3.363652,15.03573 l 0.09359,0.26876 0.0242,-0.003 c 0.990373,2.84769 3.623328,4.74113 6.639754,4.74113 3.638426,0 6.660891,-2.78127 7.008127,-6.38392 l 0.0151,-0.003 0.04229,-0.7459 0.458951,-17.13451 -0.175127,-0.10569 c -1.715042,-1.05392 -3.620309,-1.58843 -5.667498,-1.58843" /><path
           inkscape:connector-curvature="0"
           id="path800"
           style="fill:#c39400;fill-opacity:1;fill-rule:nonzero;stroke:none"
           d="m 94.920123,351.04933 c -0.04829,0.30501 -0.123804,0.59491 -0.211363,0.88179 -0.05739,0.22045 -0.114736,0.39258 -0.163049,0.52847 -0.0302,0.0725 -0.05739,0.14798 -0.09059,0.22347 -0.003,0.009 -0.0121,0.0332 -0.0151,0.0423 -0.003,0.003 -0.009,0.006 -0.009,0.006 -1.050766,2.34339 -3.390838,3.97711 -6.12042,3.97711 -3.396868,0 -6.174764,-2.53061 -6.627676,-5.80411 l -0.0272,-0.006 c 0,0 -3.487455,-14.53745 -2.104552,-18.55986 1.379885,-4.02241 13.385196,-6.96373 18.306889,-0.1208 0,0 -1.850915,13.87008 -2.937916,18.83165" /><path
           inkscape:connector-curvature="0"
           id="path804"
           style="fill:#1d1d1b;fill-opacity:1;fill-rule:nonzero;stroke:none"
           d="m 81.964893,350.6779 c -0.350255,-1.4918 -3.345544,-14.54954 -2.080395,-18.22467 0.739766,-2.15314 4.873379,-3.97711 9.03116,-3.97711 2.149836,0 6.099273,0.50431 8.575217,3.83518 -0.196265,1.46764 -1.899228,14.03918 -2.913758,18.66254 -0.04229,0.27782 -0.108707,0.54055 -0.205324,0.85461 -0.05739,0.21743 -0.108706,0.3805 -0.15701,0.50733 l -0.09969,0.24461 c -1.032648,2.29809 -3.309308,3.77478 -5.80337,3.77478 -3.149279,0 -5.848665,-2.3615 -6.28044,-5.4991 l -0.06639,-0.17817 z m 6.950765,-22.90238 0,0 c -4.505016,0 -8.856032,1.9961 -9.698455,4.45122 -1.398002,4.07073 1.953581,18.15521 2.098513,18.75314 l 0.06039,0.21441 c 0.576707,3.36107 3.517652,5.8645 6.935657,5.8645 2.768827,0 5.296105,-1.63976 6.43746,-4.17944 l -0.003,0 0.0242,-0.0332 c 0.0302,-0.0755 0.05129,-0.12683 0.06949,-0.18119 l 0.0332,-0.0815 c 0.05439,-0.14495 0.111716,-0.32916 0.175128,-0.56169 0.102657,-0.33218 0.172108,-0.62812 0.217402,-0.91803 1.074923,-4.89816 2.922818,-18.7018 2.940935,-18.83769 l 0.0181,-0.13891 -0.08149,-0.11173 c -1.965659,-2.73597 -5.244772,-4.23984 -9.227414,-4.23984" /><path
           inkscape:connector-curvature="0"
           id="path808"
           style="fill:#c39400;fill-opacity:1;fill-rule:nonzero;stroke:none"
           d="m 130.72982,348.79292 -0.0362,0.006 c -0.38045,3.96201 -3.67466,7.07244 -7.73883,7.07244 -3.81657,0 -6.98397,-2.74201 -7.66034,-6.36278 -0.003,-0.006 -0.0121,-0.009 -0.0121,-0.0151 -0.83337,-2.32527 -1.57615,-17.5754 -0.55859,-18.5961 8.52388,-6.54095 17.04778,5.2847 17.04778,5.2847 l -1.04171,12.6108 z" /><path
           inkscape:connector-curvature="0"
           id="path812"
           style="fill:#1d1d1b;fill-opacity:1;fill-rule:nonzero;stroke:none"
           d="m 115.58308,349.28606 c -0.87262,-2.73295 -1.37083,-17.23114 -0.60993,-18.14313 1.60936,-1.22907 3.37272,-1.86928 5.20854,-1.86928 5.70675,0 10.57108,6.13932 11.23233,7.01205 l -1.0719,12.48095 c -0.36837,3.85028 -3.54181,6.75233 -7.38556,6.75233 -3.58106,0 -6.65787,-2.55477 -7.31913,-6.07589 l -0.0544,-0.15703 z m 4.59861,-20.71301 -0.003,0 c -1.99283,0 -3.8981,0.68852 -5.6675,2.04745 -1.24703,1.24115 -0.40158,16.42484 0.42273,18.9313 l 0,0.11476 0.0423,0.0362 c 0.74278,3.76271 4.09134,6.51981 7.98039,6.51981 4.11852,0 7.53653,-3.04398 8.05587,-7.12377 l 0.0634,-0.009 0.003,-0.26877 1.05379,-12.74065 -0.0755,-0.10268 c -0.21739,-0.30198 -5.40782,-7.40462 -11.87547,-7.40462" /><path
           inkscape:connector-curvature="0"
           id="path816"
           style="fill:#c39400;fill-opacity:1;fill-rule:nonzero;stroke:none"
           d="m 140.8676,414.22626 -1.20174,13.02754 c 0,0 -0.66126,3.66305 -3.65956,3.66305 l -7.26479,0 c 0,0 -2.27968,-0.48015 -2.58162,-2.58195 -0.29893,-2.1018 -0.29893,-5.58367 -0.29893,-5.58367 l 4.98208,0 0,-8.76656 10.14533,0 -0.12077,0.24159 z" /><path
           inkscape:connector-curvature="0"
           id="path820"
           style="fill:#1d1d1b;fill-opacity:1;fill-rule:nonzero;stroke:none"
           d="m 131.193,414.33709 9.31196,0 -1.18664,12.88258 c -0.0211,0.10872 -0.64314,3.34597 -3.31232,3.34597 l -7.26479,0 c -0.009,-0.0121 -1.9717,-0.45599 -2.23439,-2.27997 -0.23551,-1.66694 -0.28383,-4.25191 -0.29289,-5.18202 l 4.97907,0 0,-8.76656 z m 10.35971,-0.70362 -11.06324,0 0,8.76656 -4.97907,0 0,0.3503 c 0,0.14193 0.003,3.53018 0.30195,5.635 0.33214,2.31621 2.75373,2.85072 2.85941,2.87488 l 7.33424,0.006 c 3.25495,0 3.99774,-3.91067 4.0068,-3.94993 l 1.19871,-12.9913 0.3412,-0.69154 z" /><path
           d="m 245.90107,443.16376 -5.64334,0 0,5.52327 5.64334,0 0,-5.52327 z"
           style="fill:#c86606;fill-opacity:1;fill-rule:nonzero;stroke:none"
           id="path822"
           inkscape:connector-curvature="0" /><path
           d="m 240.611,443.51406 4.93981,0 0,4.82267 -4.93981,0 0,-4.82267 z m 5.64334,-0.7006 -6.34687,0 0,6.22689 6.34687,0 0,-6.22689 z"
           style="fill:#1d1d1b;fill-opacity:1;fill-rule:nonzero;stroke:none"
           id="path824"
           inkscape:connector-curvature="0" /><path
           d="m 167.86958,463.93716 -5.64334,0 0,5.52327 5.64334,0 0,-5.52327 z"
           style="fill:#c39400;fill-opacity:1;fill-rule:nonzero;stroke:none"
           id="path826"
           inkscape:connector-curvature="0" /><path
           d="m 162.57649,464.28746 4.94283,0 0,4.82267 -4.94283,0 0,-4.82267 z m 5.64334,-0.7006 -6.34687,0 0,6.22689 6.34687,0 0,-6.22689 z"
           style="fill:#1d1d1b;fill-opacity:1;fill-rule:nonzero;stroke:none"
           id="path828"
           inkscape:connector-curvature="0" /><path
           d="m 92.887732,400.78047 -5.643341,0 0,5.52327 5.643341,0 0,-5.52327 z"
           style="fill:#c86606;fill-opacity:1;fill-rule:nonzero;stroke:none"
           id="path830"
           inkscape:connector-curvature="0" /><path
           d="m 87.594646,401.13077 4.939811,0 0,4.81965 -4.939811,0 0,-4.81965 z m 5.643341,-0.7006 -6.343852,0 0,6.22387 6.343852,0 0,-6.22387 z"
           style="fill:#1d1d1b;fill-opacity:1;fill-rule:nonzero;stroke:none"
           id="path832"
           inkscape:connector-curvature="0" /><path
           inkscape:connector-curvature="0"
           id="path836"
           style="fill:#c39400;fill-opacity:1;fill-rule:nonzero;stroke:none"
           d="m 90.765972,346.61804 c 0,-1.371 -1.111158,-2.48532 -2.481984,-2.48532 -1.370825,0 -2.485003,1.11432 -2.485003,2.48532 0,1.371 1.114178,2.48532 2.485003,2.48532 1.370826,0 2.481984,-1.11432 2.481984,-2.48532" /><path
           inkscape:connector-curvature="0"
           id="path840"
           style="fill:#1d1d1b;fill-opacity:1;fill-rule:nonzero;stroke:none"
           d="m 88.283688,348.75094 c -1.17759,0 -2.131728,-0.95728 -2.131728,-2.132 0,-1.17773 0.954138,-2.13199 2.131728,-2.13199 1.174561,0 2.131729,0.95426 2.131729,2.13199 0,1.17472 -0.957168,2.132 -2.131729,2.132 m 0,-4.96761 c -1.561051,0 -2.832239,1.27134 -2.832239,2.83561 0,1.56126 1.271188,2.83562 2.832239,2.83562 1.561051,0 2.835259,-1.27436 2.835259,-2.83562 0,-1.56427 -1.274208,-2.83561 -2.835259,-2.83561" /><path
           inkscape:connector-curvature="0"
           id="path844"
           style="fill:#c39400;fill-opacity:1;fill-rule:nonzero;stroke:none"
           d="m 125.01975,346.61804 c 0,-1.371 -1.11418,-2.48532 -2.48501,-2.48532 -1.37082,0 -2.48198,1.11432 -2.48198,2.48532 0,1.371 1.11116,2.48532 2.48198,2.48532 1.37083,0 2.48501,-1.11432 2.48501,-2.48532" /><path
           inkscape:connector-curvature="0"
           id="path848"
           style="fill:#1d1d1b;fill-opacity:1;fill-rule:nonzero;stroke:none"
           d="m 122.53504,348.75094 c -1.17456,0 -2.13173,-0.95728 -2.13173,-2.132 0,-1.17773 0.95717,-2.13199 2.13173,-2.13199 1.17759,0 2.13475,0.95426 2.13475,2.13199 0,1.17472 -0.95716,2.132 -2.13475,2.132 m 0,-4.96761 c -1.56105,0 -2.83224,1.27134 -2.83224,2.83561 0,1.56126 1.27119,2.83562 2.83224,2.83562 1.56407,0 2.83526,-1.27436 2.83526,-2.83562 0,-1.56427 -1.27119,-2.83561 -2.83526,-2.83561" /><path
           inkscape:connector-curvature="0"
           id="path852"
           style="fill:#c39400;fill-opacity:1;fill-rule:nonzero;stroke:none"
           d="m 61.562512,353.42443 c 0,-1.371 -1.111159,-2.48532 -2.485004,-2.48532 -1.370825,0 -2.481984,1.11432 -2.481984,2.48532 0,1.371 1.111159,2.48532 2.481984,2.48532 1.373845,0 2.485004,-1.11432 2.485004,-2.48532" /><path
           inkscape:connector-curvature="0"
           id="path856"
           style="fill:#1d1d1b;fill-opacity:1;fill-rule:nonzero;stroke:none"
           d="m 59.077808,355.55703 c -1.17456,0 -2.131718,-0.95728 -2.131718,-2.132 0,-1.17773 0.957158,-2.13199 2.131718,-2.13199 1.174571,0 2.134748,0.95426 2.134748,2.13199 0,1.17472 -0.960177,2.132 -2.134748,2.132 m 0,-4.96761 c -1.561051,0 -2.832229,1.27134 -2.832229,2.83561 0,1.56126 1.271178,2.83562 2.832229,2.83562 1.564081,0 2.835259,-1.27436 2.835259,-2.83562 0,-1.56427 -1.271178,-2.83561 -2.835259,-2.83561" /><path
           inkscape:connector-curvature="0"
           id="path860"
           style="fill:#c39400;fill-opacity:1;fill-rule:nonzero;stroke:none"
           d="m 134.86253,425.80851 c 0,-1.21699 -0.86356,-2.20448 -1.92942,-2.20448 -1.06889,0 -1.92943,0.98749 -1.92943,2.20448 0,1.21699 0.86054,2.20447 1.92943,2.20447 1.06586,0 1.92942,-0.98748 1.92942,-2.20447" /><path
           inkscape:connector-curvature="0"
           id="path864"
           style="fill:#1d1d1b;fill-opacity:1;fill-rule:nonzero;stroke:none"
           d="m 132.9325,427.66238 c -0.87262,0 -1.57917,-0.83045 -1.57917,-1.85417 0,-1.02372 0.70655,-1.85418 1.57917,-1.85418 0.87262,0 1.57917,0.83046 1.57917,1.85418 0,1.02372 -0.70655,1.85417 -1.57917,1.85417 m 0,-4.40895 c -1.25609,0 -2.27968,1.14452 -2.27968,2.55478 0,1.41026 1.02359,2.55779 2.27968,2.55779 1.25609,0 2.27968,-1.14753 2.27968,-2.55779 0,-1.41026 -1.02359,-2.55478 -2.27968,-2.55478" /><path
           inkscape:connector-curvature="0"
           id="path868"
           style="fill:#4c2a1f;fill-opacity:1;fill-rule:nonzero;stroke:none"
           d="m 173.01592,418.40449 c -0.88167,0.23253 -4.36612,-0.41371 -5.08475,-0.41371 -0.17815,0 -0.3744,-0.0121 -0.57671,-0.0332 l 0.0453,0.0332 -2.4699,0 c -1.00548,0 -3.11305,-0.45902 -4.1155,-0.45902 -1.00246,0 -2.92886,-2.33432 -3.33951,-2.33432 -0.41065,0 -3.43311,-3.43355 -3.43311,-3.43355 0,0 1.05379,-1.87531 1.96868,-2.79032 0.91187,-0.91501 0.8696,-0.86971 3.15532,-0.86971 2.28874,0 2.01397,1.00862 2.7477,1.00862 0.46197,0 1.06586,0.72476 1.45234,1.53709 0.76392,-0.2144 1.66976,-0.36238 2.16495,-0.36238 0.95716,0 1.73919,-0.40767 3.17947,0.37144 1.44028,0.78214 1.37989,1.38309 1.95962,4.05865 0.57672,2.67557 3.50256,3.08627 3.50256,3.08627 0,0 -0.27477,0.36842 -1.15645,0.60094" /></g></g><path
       inkscape:connector-curvature="0"
       id="path872"
       style="fill:#ffffff;fill-opacity:1;fill-rule:nonzero;stroke:none"
       d="M 460.6113,530.49237 C 427.90469,508.68619 397.7495,498.71472 371.03044,495.85494 L 247.60161,400.76054 69.650702,263.65731 c 9.040208,-19.10947 19.732056,-38.9437 32.383528,-59.4121 l 145.56738,115.62923 220.76664,175.36143 c -3.14626,22.73629 -7.75695,35.2565 -7.75695,35.2565" /><path
       inkscape:connector-curvature="0"
       id="path876"
       style="fill:#c39400;fill-opacity:1;fill-rule:nonzero;stroke:none"
       d="M 247.60161,31.11633 C 189.13009,85.53666 145.49913,137.95182 113.0552,187.04215 L 247.60161,293.92596 470.69323,471.14459 C 475.52433,386.76454 451.73413,221.09978 247.60161,31.11633 M 69.650702,263.65822 247.60161,400.76145 371.03044,495.85282 c 26.71906,2.85978 56.87425,12.83126 89.58086,34.64046 0,0 4.61069,-12.52323 7.75695,-35.2565 L 247.60161,319.87534 102.03423,204.24309 C 89.382758,224.71451 78.69091,244.54572 69.650702,263.65822 M 34.594955,530.49328 c 125.086495,-83.40162 213.006655,6.07287 213.006655,6.07287 0,0 34.1318,-34.72199 90.10625,-40.7405 L 247.60161,426.40583 61.075474,282.70428 c -63.2090339,148.05312 -26.480519,247.789 -26.480519,247.789 m 438.707075,28.54643 c -132.53849,-88.36923 -225.70344,0.96031 -225.70344,0.96031 0,0 -93.16191,-89.32954 -225.700396,-0.96031 0,0 -125.814184,-256.46798 225.700396,-559.03969046875 C 599.11621,302.57173 473.30203,559.03971 473.30203,559.03971" /><g
       id="g6772"><path
         d="m 230.95572,511.35209 12.90209,0 0,-1.32268 -5.67656,0 0,-14.95419 -1.54897,0 0,14.95419 -5.67656,0 0,1.32268 z"
         style="fill:#1d1d1b;fill-opacity:1;fill-rule:nonzero;stroke:none"
         id="path944"
         inkscape:connector-curvature="0" /><path
         d="m 249.89881,511.35209 2.27666,0 5.63428,-14.2717 5.60711,14.2717 2.27968,0 0,-16.27687 -1.55199,0 0,14.06636 -0.0453,0 -5.56181,-14.06636 -1.45839,0 -5.58597,14.06636 -0.0453,0 0,-14.06636 -1.54897,0 0,16.27687 z"
         style="fill:#1d1d1b;fill-opacity:1;fill-rule:nonzero;stroke:none"
         id="path948"
         inkscape:connector-curvature="0" /></g><g
       id="g7187"><g
         id="g6893"><path
           inkscape:connector-curvature="0"
           id="path880"
           style="fill:#fff26b;fill-opacity:1;fill-rule:nonzero;stroke:none"
           d="m 309.97457,358.27246 c 0,-36.95666 -29.95893,-66.9194 -66.91088,-66.9194 -36.95497,0 -66.91087,29.96274 -66.91087,66.9194 0,36.95968 29.9559,66.9194 66.91087,66.9194 36.95195,0 66.91088,-29.95972 66.91088,-66.9194" /><g
           id="g6886"><path
             d="m 243.06339,424.3146 c -36.41147,0 -66.03222,-29.62452 -66.03222,-66.04063 0,-36.41611 29.62075,-66.04364 66.03222,-66.04364 36.41147,0 66.03524,29.62753 66.03524,66.04364 0,36.41611 -29.62377,66.04063 -66.03524,66.04063 m 0,-133.8388 c -37.37769,0 -67.78652,30.4127 -67.78652,67.79817 0,37.38246 30.40883,67.79515 67.78652,67.79515 37.3777,0 67.78652,-30.41269 67.78652,-67.79515 0,-37.38547 -30.40882,-67.79817 -67.78652,-67.79817"
             style="fill:#1d1d1b;fill-opacity:1;fill-rule:nonzero;stroke:none"
             id="path884"
             inkscape:connector-curvature="0" /><path
             d="m 177.23981,369.04721 -0.0906,2.10482 c 60.56098,2.64537 70.95391,53.4419 71.05355,53.95527 l 2.06529,-0.39257 c -0.10265,-0.53149 -10.82168,-52.94967 -73.02827,-55.66752"
             style="fill:#1d1d1b;fill-opacity:1;fill-rule:nonzero;stroke:none"
             id="path888"
             inkscape:connector-curvature="0" /><path
             d="m 241.81395,290.92516 -1.98982,0.6855 c 6.55824,18.97962 19.40899,43.79053 43.39545,54.1878 14.4269,6.25406 25.87965,4.32439 26.35673,4.23682 l -0.36837,-2.07161 c -0.44689,0.0785 -45.21919,7.15096 -67.39399,-57.03851"
             style="fill:#1d1d1b;fill-opacity:1;fill-rule:nonzero;stroke:none"
             id="path892"
             inkscape:connector-curvature="0" /><path
             d="m 288.4553,309.9691 c -0.0997,0.82139 -2.65711,20.18755 -21.2418,23.35837 l 0.35026,2.07462 c 20.15781,-3.43958 22.95382,-24.96492 22.98099,-25.18235 l -2.08945,-0.25064 z"
             style="fill:#1d1d1b;fill-opacity:1;fill-rule:nonzero;stroke:none"
             id="path896"
             inkscape:connector-curvature="0" /><path
             d="m 251.57249,313.97369 c -0.49519,0.0483 -49.63664,5.45985 -48.72477,61.07603 l 2.10154,-0.0332 c -0.36838,-22.51283 7.37348,-39.26985 23.01117,-49.8 11.70035,-7.88175 23.69358,-9.13498 23.81436,-9.14706 l -0.2023,-2.09576 z"
             style="fill:#1d1d1b;fill-opacity:1;fill-rule:nonzero;stroke:none"
             id="path900"
             inkscape:connector-curvature="0" /></g></g><g
         id="g6902"><path
           inkscape:connector-curvature="0"
           id="path904"
           style="fill:#00489a;fill-opacity:1;fill-rule:nonzero;stroke:none"
           d="m 94.283924,266.69617 9.930956,7.77605 24.77151,-16.20138 0.0906,0.0725 -10.16345,27.62539 9.92794,7.77002 25.10667,-32.09474 -6.60353,-5.16692 -17.79357,22.74534 -0.0906,-0.0725 9.92794,-28.89674 -5.435,-4.25494 -25.48412,16.36445 -0.0906,-0.0664 17.62147,-22.5249 -6.60957,-5.17297 -25.106666,32.09776 z" /><path
           inkscape:connector-curvature="0"
           id="path908"
           style="fill:#00489a;fill-opacity:1;fill-rule:nonzero;stroke:none"
           d="m 160.26753,286.96042 8.31253,6.50471 -13.25536,8.61255 -0.0936,-0.0695 5.03644,-15.04781 z m -14.73187,20.21473 7.2376,5.66218 37.10897,-22.70307 -7.32517,-5.73465 -8.01964,5.24544 -11.99927,-9.38563 3.07379,-9.11686 -7.14702,-5.59272 -12.92926,41.62531 z" /><path
           inkscape:connector-curvature="0"
           id="path912"
           style="fill:#00489a;fill-opacity:1;fill-rule:nonzero;stroke:none"
           d="m 167.57821,324.4217 7.05342,5.51722 20.4688,-26.16077 15.64072,12.24238 4.64089,-5.93396 -22.69716,-17.75961 -25.10667,32.09474 z" /><path
           inkscape:connector-curvature="0"
           id="path916"
           style="fill:#00489a;fill-opacity:1;fill-rule:nonzero;stroke:none"
           d="m 219.83058,334.02324 8.31253,6.50471 -13.25838,8.61255 -0.0876,-0.0695 5.03341,-15.04781 z m -14.72884,20.21775 7.23458,5.66218 37.10595,-22.70911 -7.32215,-5.72861 -8.01965,5.24242 -11.99927,-9.38865 3.0738,-9.11384 -7.144,-5.59272 -12.92926,41.62833 z" /><path
           inkscape:connector-curvature="0"
           id="path920"
           style="fill:#00489a;fill-opacity:1;fill-rule:nonzero;stroke:none"
           d="m 274.31343,362.27434 c 0.0272,-5.12767 -2.26156,-8.87226 -5.36254,-11.3002 -9.93396,-7.77304 -21.57996,-4.92836 -28.82361,4.33044 -7.44897,9.53057 -7.40971,21.51929 2.52124,29.29233 6.56427,5.13673 15.93058,5.94302 22.39219,-0.73986 l -6.74241,-5.27866 c -3.59012,2.92018 -7.68147,2.68765 -11.00588,0.0846 -6.33781,-4.95856 -4.49896,-12.21823 -0.10567,-17.83209 4.18494,-5.35415 10.78847,-8.88131 17.12024,-3.92276 4.58654,3.58756 5.30214,8.1324 2.22835,12.90071 l -7.09871,-5.55346 -4.1155,5.2545 13.48181,10.5543 13.5724,-17.35496 -4.49595,-3.51206 -3.56596,3.07721 z" /><path
           inkscape:connector-curvature="0"
           id="path924"
           style="fill:#00489a;fill-opacity:1;fill-rule:nonzero;stroke:none"
           d="m 289.05284,387.65569 8.31555,6.50472 -13.2614,8.61255 -0.0876,-0.0695 5.03341,-15.04781 z m -14.72582,20.21776 7.23761,5.65915 37.10292,-22.70307 -7.32216,-5.73163 -8.02265,5.24846 -11.99626,-9.39166 3.0738,-9.11687 -7.14703,-5.5897 -12.92623,41.62532 z" /><path
           inkscape:connector-curvature="0"
           id="path928"
           style="fill:#00489a;fill-opacity:1;fill-rule:nonzero;stroke:none"
           d="m 338.28215,439.80692 c -2.94999,2.83864 -7.9049,2.8779 -11.40745,0.13288 -6.33782,-4.96158 -4.49897,-12.21823 -0.10568,-17.83511 4.18797,-5.34812 10.78847,-8.8783 17.12327,-3.92276 4.3178,3.37919 4.42046,8.24413 1.65465,12.89165 l 6.82998,5.3451 c 5.54068,-8.56726 4.02491,-18.0163 -3.84073,-24.16769 -9.93397,-7.77606 -21.57996,-4.92836 -28.82361,4.33345 -7.45501,9.52454 -7.41274,21.51326 2.52124,29.2863 7.05643,5.52025 16.22346,6.02758 22.87832,-0.71872 l -6.82999,-5.3451 z" /><path
           inkscape:connector-curvature="0"
           id="path932"
           style="fill:#00489a;fill-opacity:1;fill-rule:nonzero;stroke:none"
           d="m 360.84737,434.44069 7.05644,5.52326 5.41688,-6.92446 -7.05644,-5.52025 -5.41688,6.92145 z" /><path
           inkscape:connector-curvature="0"
           id="path936"
           style="fill:#00489a;fill-opacity:1;fill-rule:nonzero;stroke:none"
           d="m 355.73575,470.75594 22.56431,17.65391 4.64087,-5.93094 -15.50483,-12.13669 5.80035,-7.4167 13.43652,10.51806 4.29063,-5.48702 -13.43955,-10.51203 10.37783,-13.26006 -7.06248,-5.52025 -25.10365,32.09172 z" /><path
           inkscape:connector-curvature="0"
           id="path940"
           style="fill:#00489a;fill-opacity:1;fill-rule:nonzero;stroke:none"
           d="m 396.93394,463.16439 7.05644,5.52025 5.41387,-6.92145 -7.05342,-5.52025 -5.41689,6.92145 z" /></g></g></g></svg>