<?xml version="1.0" encoding="UTF-8"?>
<svg id="Layer_2" data-name="Layer 2" xmlns="http://www.w3.org/2000/svg" viewBox="0 0 352.06 566.93">
  <defs>
    <style>
      .cls-1 {
        fill: #3d53a4;
      }

      .cls-1, .cls-2, .cls-3, .cls-4, .cls-5, .cls-6, .cls-7, .cls-8 {
        fill-rule: evenodd;
      }

      .cls-1, .cls-2, .cls-3, .cls-4, .cls-5, .cls-6, .cls-7, .cls-8, .cls-9 {
        stroke-width: 0px;
      }

      .cls-2, .cls-9 {
        fill: #231f20;
      }

      .cls-3 {
        fill: #263e99;
      }

      .cls-4 {
        fill: #336fb7;
      }

      .cls-5 {
        fill: #c18d33;
      }

      .cls-6 {
        fill: #fcd848;
      }

      .cls-7 {
        fill: #fff;
      }

      .cls-8 {
        fill: #b6615e;
      }
    </style>
  </defs>
  <g id="Layer_1-2" data-name="Layer 1">
    <g>
      <path class="cls-4" d="m18.67,242.86V75.31l2.96,2.62c41.45,36.73,98.79,60.73,154.4,60.73s113.22-23.72,154.4-60.02l2.95-2.6v166.82h-109.21c-25.46-30.5-69.57-34.28-97.55,0H18.67Z"/>
      <path class="cls-7" d="m24.19,189.06c-11.09-11.18-9.07-28.91,20.17-31.01.59-17.07,14.49-23.22,35.04-22.94-.17-6.72,5.63-11.93,11.09-13.86,55.79,18.23,107.97,19.24,159.06,4.54,2.44,1.93,4.79,4.11,6.55,8.07,7.67-15.99,27.71-13.17,34.28,3.78,4.75-6.75,9.54-12.17,15.63-12.86-.19-21.61,14.01-29.8,27.69-33.41l-.51,99.88c-50.36,3.34-126.21,5.54-309.01-2.19h0Z"/>
      <path class="cls-2" d="m43.5,157.23c1.13-19.06,18.74-23.08,35.01-23.01.33-6.47,5.82-11.73,11.67-13.81l.29-.1.29.09c37.43,12.23,76.19,17.5,115.44,13.12,14.59-1.63,28.99-4.54,43.1-8.6l.44-.13.36.28c2.6,2.06,4.52,4.05,6.03,6.81,2.91-5.07,7.56-8.73,13.58-9.41,9.32-1.05,17.16,5.24,20.88,13.34,3.59-4.98,8.37-10.7,14.54-11.81.05-9.46,2.64-18.29,9.99-24.69,5.38-4.68,11.9-6.95,18.63-8.92l.85-.25.5,1.71-.85.25c-6.45,1.89-12.8,4.07-17.96,8.56-7.16,6.22-9.46,14.89-9.38,24.11v.8s-.79.09-.79.09c-6.46.73-11.55,7.57-15,12.48l-.96,1.36-.6-1.55c-3.11-8.03-10.58-14.72-19.65-13.7-6,.67-10.45,4.67-13,9.98l-.83,1.73-.78-1.76c-1.44-3.22-3.29-5.3-5.94-7.45-14.06,4.02-28.41,6.91-42.95,8.53-39.4,4.39-78.32-.86-115.9-13.11-5.29,1.98-10.37,6.91-10.22,12.9l.02.92h-.92c-15.68-.22-33.48,3.09-34.14,22.07l-.03.8-.8.06c-9.21.66-24.1,3.84-25.47,15.19-.65,5.38,2.19,10.59,5.88,14.3l.63.63-1.26,1.25-.63-.63c-4.08-4.11-7.1-9.83-6.38-15.77.57-4.74,3.39-8.44,7.28-11.05,5.4-3.63,12.6-5.1,19.05-5.64h0Z"/>
      <path class="cls-2" d="m334.1,192.4c-43.9,2.28-87.81,3.18-131.77,2.96-61.37-.31-122.69-2.76-183.98-5.67l-.89-.04.08-1.78.89.04c61.27,2.9,122.57,5.36,183.91,5.67,43.92.22,87.8-.68,131.67-2.96l.89-.05.09,1.78-.89.05h0Z"/>
      <polygon class="cls-5" points="160.43 216.68 187.86 216.68 187.86 191.01 160.43 191.01 160.43 216.68 160.43 216.68"/>
      <path class="cls-2" d="m173.32,181.38c-4.83-9.43-11.53-19.41-17.36-27.11,2.66-.14,5.71,1.03,9.37,3.4-1.21-3.72-3.96-5.81-9.69-5.79,2.23-2.59,7.28-2.31,13.15.63-1.39-4.13-5.8-5.54-10.77-4.51-1.39.29-2.68.9-3.95,1.93,2.37-5.67,7.44-4.75,11.88-3.71-4.28-4.53-9.72-3.9-13.02,1.26-.77-2.83,1.4-4.36,2.77-5.29-2.23-.13-4.23.79-3.84,4.53-1.16-1.2-.94-3.01-1.26-4.72-.82,1.33-.93,3.49-.31,5.35-3.47-1.31-7.39-2.34-10.19,2.58,4.15-2.01,6.35-1.32,8.87-.75-5.71,1.55-8.31,4.92-7.61,9.62,1.68-4.09,4.93-6.42,8.62-7.99-3.09,2.42-7.51,7.22-4.97,13.65.78-4.7,2.88-9.28,5.35-10.88-3.17,4.64-4.1,12.86.44,14.09-2.4-4.63-.35-10.02.94-13.15-.23,3.29-1.14,8.22,2.45,11.39-.72-4.12-.87-7.56,0-10.51,5.05,6.73,10.49,14.76,15.67,26.8l3.45-.83h0Z"/>
      <path class="cls-2" d="m170.78,181.38c4.83-9.43,11.53-19.41,17.36-27.11-2.66-.14-5.71,1.03-9.37,3.4,1.21-3.72,3.96-5.81,9.69-5.79-2.23-2.59-7.28-2.31-13.15.63,1.39-4.13,5.8-5.54,10.77-4.51,1.39.29,2.68.9,3.95,1.93-2.37-5.67-7.44-4.75-11.88-3.71,4.28-4.53,9.72-3.9,13.02,1.26.77-2.83-1.4-4.36-2.77-5.29,2.24-.13,4.24.79,3.84,4.53,1.16-1.2.94-3.01,1.26-4.72.82,1.33.93,3.49.31,5.35,3.47-1.31,7.39-2.34,10.19,2.58-4.15-2.01-6.35-1.32-8.87-.75,5.71,1.55,8.31,4.92,7.61,9.62-1.68-4.09-4.93-6.42-8.62-7.99,3.09,2.42,7.51,7.22,4.97,13.65-.78-4.7-2.88-9.28-5.35-10.88,3.17,4.64,4.1,12.86-.44,14.09,2.4-4.63.35-10.02-.94-13.15.23,3.29,1.14,8.22-2.45,11.39.72-4.12.87-7.56,0-10.51-5.05,6.73-10.49,14.76-15.67,26.8l-3.45-.83h0Z"/>
      <path class="cls-2" d="m102.27,160.3l6.75.05,2.66-10.39,13.04.08v19.69h11.82l1.13,10.38h9.12l1.53-10.38h18.61l1.89,10.38h5.95l3.71-10.38h17.65l2.95,9.24h8s.99-9.24.99-9.24h14.26v-16.99h17.38l3.43,11.04,5.31.03,4.61-11.08h13.22l21.78,64.07h-63.95s-36.98,0-36.98,0v-8.01c0-2.57-.69-5.18-1.76-7.5-1.93-4.2-6.25-9.4-11.31-9.4s-9.19,5.13-11.1,9.23c-1.11,2.37-1.84,5.05-1.84,7.68v8.01h-38.15s-63,0-63,0l26.87-66.84h13.03l2.38,10.32h0Z"/>
      <polygon class="cls-6" points="122.95 151.81 113.06 151.75 110.39 162.14 100.85 162.07 98.48 151.75 88.07 151.75 62.62 215.04 122.95 215.04 122.95 151.81 122.95 151.81"/>
      <polygon class="cls-6" points="224.12 154.52 238.41 154.52 241.84 165.56 249.64 165.61 254.26 154.52 265.02 154.52 285.59 215.04 224.12 215.04 224.12 154.52 224.12 154.52"/>
      <path class="cls-6" d="m124.77,171.51h10.18l1.13,10.38h12.25l1.53-10.38h15.59l1.89,10.38h8.69l3.71-10.38h15.1l2.95,9.24h10.9s.99-9.24.99-9.24h12.66v43.53h-33.42v-6.23c0-8.79-7.25-18.68-14.85-18.68s-14.72,10-14.72,18.68v6.23h-34.59v-43.53h0Z"/>
      <polygon class="cls-1" points="63.77 320.39 108.38 320.39 108.38 506.68 81.65 476.7 63.77 450.97 63.77 320.39 63.77 320.39"/>
      <polygon class="cls-1" points="154.01 340.56 198.63 340.56 198.63 545.5 154.01 545.5 154.01 340.56 154.01 340.56"/>
      <polygon class="cls-1" points="243.75 320.14 288.37 320.14 288.37 452.74 267.35 481.4 243.75 506.52 243.75 320.14 243.75 320.14"/>
      <path class="cls-8" d="m182.07,10.59c51.9,0,95.59,35.18,108.53,82.99-44.92,46.57-189.8,37.86-218.08,4.05,11.51-49.86,56.2-87.04,109.55-87.04h0Z"/>
      <path class="cls-2" d="m181.53,0c56.32,0,103.71,38.26,117.62,90.21l-13,6.63c-4.53-19.1-14.17-36.23-27.38-49.87-16.46-.73-32.71,1.69-47.9,7.86,17.74,15.04,30.44,35.49,38.09,57.34l1.03,2.94-5.87,2.06-1.03-2.94c-7.61-21.73-20.45-42.1-38.57-56.57-13.21,6.42-24.41,15.31-33.76,25.91,10.62,10.37,19.72,28.55,25.2,41.53l1.21,2.87-5.73,2.42-1.21-2.87c-3.8-9-8.22-17.98-13.49-26.22-2.78-4.35-6.19-9.14-9.98-12.93-8.33,10.49-15.02,22.4-20.19,35.09l-1.17,2.88-5.76-2.35,1.17-2.88c4.63-11.36,10.43-22.11,17.47-31.84-7.61,1.18-15.44,1.32-23.04.66-16.32-1.42-35.68-7.14-49.02-17.88-4.36,8.34-7.66,17.32-9.72,26.76l-12.96-7.07C76.9,39.01,124.67,0,181.53,0h0Zm-31.02,18.77c2.23,2.01,4.79,3.57,7.58,4.75,11.65-4.47,24.08-7.18,36.71-8.48-4.35-.54-8.78-.81-13.27-.81-10.78,0-21.2,1.59-31.02,4.55h0Zm13.04,6.55c7.43,1.83,16.5,1.66,23.99.64l-2.97,4.03c-8.76.87-18.56.32-26.48-2.65-5.7,2.26-11.21,4.97-16.44,8.16,8.45,3.9,19.51,4.17,29.03,2.33l-2.57,4.2c-10.35,1.57-21.26.42-29.95-4.29-4.13,2.76-8.08,5.85-11.79,9.28,7.51,4.22,17.6,5.33,26.48,4.92l-3.52,3.77c-9.02-.24-18.31-1.73-25.62-6.13-1.54,1.54-3.04,3.14-4.49,4.82,11.6,3.49,23.75,4.87,36.11,4.92,6.99-6.39,14.75-11.85,23.14-16.28,17.61-9.3,37.36-13.68,57.18-14.22-8.3-4.85-17.31-8.61-26.84-11.1-15.42.38-30.87,2.69-45.24,7.61h0Zm-9.9,0c-2.58-1.41-4.94-3.16-7-5.31-5.46,1.87-10.72,4.17-15.74,6.86,2.01,2.73,4.43,4.94,7.14,6.68,4.97-3.17,10.19-5.89,15.59-8.22h0Zm-18.8,10.35c-2.67-1.9-5.06-4.24-7.07-7.06-4.02,2.32-7.87,4.9-11.53,7.71,1.72,3.65,4.15,6.49,7.05,8.69,3.65-3.43,7.51-6.54,11.56-9.34h0Zm-14.13,11.85c-2.95-2.32-5.46-5.25-7.33-8.94-3.56,2.93-6.94,6.07-10.1,9.43,4,2.05,8.08,3.77,12.25,5.2,1.67-1.98,3.39-3.87,5.18-5.68h0Zm122.51-13.84c-21.54-.48-43.34,3.54-62.49,13.67-8.29,4.38-15.94,9.81-22.8,16.19l-.7.65h-.96c-19.72.03-38.88-3.18-56.36-12.44-3.94,4.59-7.5,9.52-10.64,14.74,12.33,10.37,31.12,15.86,46.47,17.2,9.4.82,19.19.34,28.38-1.99,10.3-12.25,22.85-22.49,37.81-29.73,15.76-7.63,32.78-11.22,50.14-11.36-2.82-2.46-5.78-4.77-8.85-6.93h0Z"/>
      <path class="cls-3" d="m0,24.7c40.53,63.02,117.35,95.29,176.03,95.29s138.02-32.77,176.03-95.29v273.25c0,42.93-8.63,81.2-26.27,122.72-29.02,68.31-81.15,125.87-149.85,146.26-67.12-19.76-119.19-75.51-149.59-146.16C8.53,379.34,0,340.36,0,294.78V24.7h0Zm174.87,188.17c20.9,0,39.57,9.58,51.85,24.58h104.88V79.98c-42.53,37.49-101.43,60.46-155.58,60.46S63,116.97,20.45,79.27v158.19h102.57c12.29-15.01,30.95-24.58,51.85-24.58h0Zm156.73,34.67h-109.9c-10.27-14.85-27.42-24.58-46.84-24.58s-36.57,9.73-46.84,24.58H20.45v43.68c0,7.53.33,14.98.97,22.36h107.61c10.36,14.06,27.04,23.19,45.84,23.19s35.48-9.13,45.84-23.19h110.27c.41-5.87.62-11.82.62-17.86v-48.19h0Zm-1.52,76.13h-104.53c-12.28,14.2-30.43,23.19-50.68,23.19s-38.4-8.99-50.68-23.19H22.49c3.81,30.55,12.78,59.94,25.17,88.76,23.61,55.1,66.54,110.25,128.26,130.84,61.52-19.89,105.22-73.68,130.04-132.1,12.26-28.86,20.81-57.3,24.12-87.49h0Z"/>
      <path class="cls-9" d="m151.64,254.64l5.74,1.74c-.38,1.61-.99,2.95-1.82,4.03-.83,1.08-1.86,1.9-3.09,2.44-1.23.55-2.79.82-4.69.82-2.3,0-4.19-.34-5.65-1-1.46-.67-2.72-1.85-3.79-3.54-1.06-1.69-1.59-3.84-1.59-6.47,0-3.51.93-6.21,2.8-8.09,1.87-1.89,4.51-2.83,7.92-2.83,2.67,0,4.77.54,6.3,1.62,1.53,1.08,2.66,2.74,3.4,4.97l-5.78,1.29c-.2-.65-.41-1.12-.64-1.42-.37-.5-.81-.88-1.34-1.16-.53-.27-1.13-.4-1.78-.4-1.48,0-2.62.6-3.41,1.79-.6.89-.9,2.28-.9,4.18,0,2.35.36,3.96,1.07,4.84.72.87,1.72,1.31,3.01,1.31s2.2-.35,2.84-1.06c.64-.7,1.11-1.72,1.4-3.06h0Z"/>
      <path class="cls-9" d="m190.85,242.11h9.73c1.91,0,3.46.26,4.65.78,1.18.52,2.16,1.27,2.93,2.24.77.98,1.33,2.11,1.68,3.4.35,1.29.52,2.66.52,4.11,0,2.27-.26,4.02-.77,5.27-.51,1.25-1.23,2.29-2.15,3.13-.91.84-1.89,1.41-2.95,1.69-1.44.38-2.74.58-3.9.58h-9.73v-21.2h0Zm6.55,4.8v11.58h1.6c1.37,0,2.34-.15,2.92-.45.58-.3,1.03-.83,1.36-1.59.33-.76.49-1.98.49-3.68,0-2.25-.37-3.78-1.1-4.61-.74-.83-1.95-1.24-3.65-1.24h-1.63Z"/>
      <path class="cls-9" d="m53.8,305.44h-4.09l-1.63-7.25h-7.45l-1.54,7.25h-3.99l7.26-31.89h3.98l7.46,31.89h0Zm-6.93-12.62l-2.57-11.84-2.52,11.84h5.08Z"/>
      <polygon class="cls-9" points="58.05 305.44 58.05 278.94 52.52 278.94 52.52 273.55 67.33 273.55 67.33 278.94 61.82 278.94 61.82 305.44 58.05 305.44 58.05 305.44"/>
      <polygon class="cls-9" points="70.12 305.44 70.12 273.81 73.88 273.81 73.88 300.06 83.23 300.06 83.23 305.44 70.12 305.44 70.12 305.44"/>
      <polygon class="cls-9" points="86.18 305.44 86.18 273.55 99.99 273.55 99.99 278.94 89.94 278.94 89.94 286.01 99.29 286.01 99.29 291.38 89.94 291.38 89.94 300.06 100.34 300.06 100.34 305.44 86.18 305.44 86.18 305.44"/>
      <polygon class="cls-9" points="108.24 305.44 108.24 278.94 102.72 278.94 102.72 273.55 117.52 273.55 117.52 278.94 112.01 278.94 112.01 305.44 108.24 305.44 108.24 305.44"/>
      <polygon class="cls-9" points="120.09 305.44 120.09 273.55 123.86 273.55 123.86 305.44 120.09 305.44 120.09 305.44"/>
      <path class="cls-9" d="m139.36,293.71l3.64,1.98c-.56,3.48-1.49,6.07-2.79,7.76-1.3,1.69-2.95,2.53-4.95,2.53-2.47,0-4.51-1.45-6.1-4.34-1.59-2.9-2.39-6.85-2.39-11.87,0-5.31.8-9.43,2.4-12.37,1.6-2.93,3.7-4.4,6.32-4.4,2.28,0,4.13,1.15,5.55,3.46.85,1.36,1.48,3.32,1.91,5.87l-3.73,1.52c-.22-1.66-.68-2.96-1.38-3.92-.7-.96-1.55-1.43-2.55-1.43-1.38,0-2.5.85-3.36,2.55-.86,1.69-1.29,4.44-1.29,8.24,0,4.03.42,6.91,1.27,8.61.85,1.72,1.95,2.57,3.3,2.57,1,0,1.86-.54,2.58-1.63.72-1.08,1.24-2.8,1.55-5.13h0Z"/>
      <path class="cls-9" d="m145.47,289.69c0-3.25.28-5.98.85-8.18.42-1.62,1-3.08,1.73-4.37.73-1.28,1.54-2.24,2.41-2.87,1.16-.85,2.5-1.26,4.02-1.26,2.75,0,4.94,1.46,6.59,4.37,1.65,2.91,2.47,6.97,2.47,12.16s-.82,9.18-2.46,12.09c-1.64,2.9-3.82,4.36-6.55,4.36s-4.98-1.45-6.61-4.34c-1.64-2.9-2.45-6.88-2.45-11.95h0Zm3.87-.22c0,3.61.49,6.35,1.46,8.21.98,1.86,2.21,2.79,3.71,2.79s2.73-.92,3.69-2.78c.96-1.85,1.44-4.62,1.44-8.32s-.47-6.38-1.4-8.18c-.94-1.8-2.18-2.7-3.73-2.7s-2.8.91-3.75,2.73c-.95,1.82-1.42,4.56-1.42,8.23h0Z"/>
      <path class="cls-9" d="m174.76,273.55h7.45c1.47,0,2.58.1,3.3.32.72.21,1.37.65,1.94,1.31.57.67,1.05,1.55,1.43,2.67.38,1.11.57,2.35.57,3.73,0,1.49-.23,2.87-.7,4.11-.47,1.25-1.11,2.18-1.91,2.81,1.13.56,2.01,1.53,2.62,2.89.61,1.37.92,2.97.92,4.81,0,1.45-.2,2.86-.59,4.23-.39,1.37-.93,2.47-1.61,3.28-.68.82-1.52,1.32-2.52,1.51-.62.11-2.14.19-4.54.22h-6.34v-31.89h0Zm3.77,5.31v7.37h2.46c1.47,0,2.38-.04,2.73-.11.64-.13,1.15-.5,1.52-1.14.37-.63.55-1.46.55-2.5s-.16-1.79-.47-2.41c-.32-.62-.79-.99-1.42-1.11-.37-.07-1.44-.11-3.21-.11h-2.16Zm0,12.68v8.52h3.48c1.36,0,2.22-.06,2.58-.19.56-.17,1.02-.6,1.37-1.27.35-.68.53-1.58.53-2.71,0-.96-.14-1.77-.41-2.44-.27-.67-.66-1.16-1.18-1.46-.51-.3-1.63-.45-3.34-.45h-3.04Z"/>
      <path class="cls-9" d="m210.35,305.44h-4.09l-1.63-7.25h-7.45l-1.54,7.25h-3.99l7.26-31.89h3.98l7.46,31.89h0Zm-6.93-12.62l-2.57-11.84-2.52,11.84h5.08Z"/>
      <polygon class="cls-9" points="212.44 305.44 212.44 273.81 216.2 273.81 216.2 300.06 225.55 300.06 225.55 305.44 212.44 305.44 212.44 305.44"/>
      <polygon class="cls-9" points="228.76 305.44 228.76 273.55 242.57 273.55 242.57 278.94 232.52 278.94 232.52 286.01 241.87 286.01 241.87 291.38 232.52 291.38 232.52 300.06 242.93 300.06 242.93 305.44 228.76 305.44 228.76 305.44"/>
      <path class="cls-9" d="m263.18,305.44h-4.09l-1.63-7.25h-7.45l-1.54,7.25h-3.99l7.26-31.89h3.98l7.46,31.89h0Zm-6.93-12.62l-2.57-11.84-2.52,11.84h5.08Z"/>
      <path class="cls-9" d="m265.44,305.44v-31.89h7.92c1.99,0,3.44.29,4.34.86.9.57,1.63,1.59,2.17,3.05.54,1.47.81,3.14.81,5.03,0,2.39-.41,4.37-1.23,5.93-.82,1.55-2.05,2.54-3.69,2.94.82.82,1.49,1.71,2.02,2.68.53.97,1.24,2.7,2.14,5.18l2.28,6.22h-4.5l-2.72-6.94c-.97-2.48-1.63-4.04-1.98-4.69-.36-.65-.73-1.08-1.13-1.33-.4-.24-1.03-.36-1.9-.36h-.76v13.31h-3.77Zm3.77-18.41h2.78c1.8,0,2.93-.13,3.38-.39.45-.26.8-.71,1.05-1.35.25-.64.38-1.43.38-2.39,0-1.08-.17-1.94-.5-2.6-.33-.66-.81-1.08-1.42-1.26-.3-.07-1.22-.1-2.75-.1h-2.93v8.09h0Z"/>
      <polygon class="cls-9" points="284.75 305.44 284.75 273.55 298.56 273.55 298.56 278.94 288.51 278.94 288.51 286.01 297.86 286.01 297.86 291.38 288.51 291.38 288.51 300.06 298.91 300.06 298.91 305.44 284.75 305.44 284.75 305.44"/>
      <path class="cls-9" d="m301.41,295.06l3.66-.62c.22,2.11.66,3.65,1.34,4.64.67.98,1.58,1.48,2.72,1.48,1.21,0,2.13-.44,2.74-1.32.62-.88.92-1.9.92-3.07,0-.76-.13-1.4-.39-1.92-.26-.53-.71-.99-1.35-1.38-.44-.27-1.44-.73-3.01-1.4-2.02-.85-3.43-1.91-4.24-3.16-1.14-1.75-1.72-3.89-1.72-6.42,0-1.63.27-3.14.81-4.56.54-1.41,1.31-2.49,2.33-3.23,1.01-.74,2.23-1.11,3.67-1.11,2.34,0,4.1.88,5.28,2.63,1.18,1.76,1.8,4.1,1.86,7.03l-3.76.28c-.16-1.64-.51-2.82-1.04-3.53-.53-.72-1.32-1.08-2.38-1.08s-1.95.38-2.57,1.15c-.4.49-.6,1.15-.6,1.97,0,.76.19,1.4.56,1.94.47.68,1.63,1.4,3.46,2.13,1.83.74,3.18,1.51,4.06,2.29.88.79,1.56,1.87,2.06,3.24.49,1.37.74,3.07.74,5.08,0,1.83-.29,3.54-.89,5.13-.59,1.6-1.43,2.78-2.52,3.56-1.08.78-2.44,1.17-4.06,1.17-2.36,0-4.16-.93-5.43-2.79-1.26-1.86-2.02-4.58-2.26-8.15h0Z"/>
    </g>
  </g>
</svg>