<?xml version="1.0" encoding="UTF-8"?>
<svg id="Layer_2" data-name="Layer 2" xmlns="http://www.w3.org/2000/svg" xmlns:xlink="http://www.w3.org/1999/xlink" viewBox="0 0 33.56 19.58">
  <defs>
    <style>
      .cls-1 {
        clip-path: url(#clippath);
      }

      .cls-2 {
        fill: none;
      }

      .cls-2, .cls-3, .cls-4, .cls-5 {
        stroke-width: 0px;
      }

      .cls-6 {
        clip-path: url(#clippath-1);
      }

      .cls-7 {
        clip-path: url(#clippath-4);
      }

      .cls-8 {
        clip-path: url(#clippath-3);
      }

      .cls-9 {
        clip-path: url(#clippath-2);
      }

      .cls-10 {
        clip-path: url(#clippath-7);
      }

      .cls-11 {
        clip-path: url(#clippath-8);
      }

      .cls-12 {
        clip-path: url(#clippath-6);
      }

      .cls-13 {
        clip-path: url(#clippath-5);
      }

      .cls-14 {
        clip-path: url(#clippath-9);
      }

      .cls-15 {
        clip-path: url(#clippath-12);
      }

      .cls-16 {
        clip-path: url(#clippath-10);
      }

      .cls-17 {
        clip-path: url(#clippath-11);
      }

      .cls-3 {
        fill: #180087;
      }

      .cls-4 {
        fill: #fff;
      }

      .cls-5 {
        fill: #ea0020;
      }
    </style>
    <clipPath id="clippath">
      <rect class="cls-2" width="33.56" height="19.58"/>
    </clipPath>
    <clipPath id="clippath-1">
      <rect class="cls-2" width="33.56" height="19.58"/>
    </clipPath>
    <clipPath id="clippath-2">
      <rect class="cls-2" width="33.56" height="19.58"/>
    </clipPath>
    <clipPath id="clippath-3">
      <rect class="cls-2" width="33.56" height="19.58"/>
    </clipPath>
    <clipPath id="clippath-4">
      <rect class="cls-2" width="33.56" height="19.58"/>
    </clipPath>
    <clipPath id="clippath-5">
      <rect class="cls-2" width="33.56" height="19.58"/>
    </clipPath>
    <clipPath id="clippath-6">
      <rect class="cls-2" width="33.56" height="19.58"/>
    </clipPath>
    <clipPath id="clippath-7">
      <rect class="cls-2" width="33.56" height="19.58"/>
    </clipPath>
    <clipPath id="clippath-8">
      <rect class="cls-2" width="33.56" height="19.58"/>
    </clipPath>
    <clipPath id="clippath-9">
      <rect class="cls-2" width="33.56" height="19.58"/>
    </clipPath>
    <clipPath id="clippath-10">
      <rect class="cls-2" width="33.56" height="19.58"/>
    </clipPath>
    <clipPath id="clippath-11">
      <rect class="cls-2" width="33.56" height="19.58"/>
    </clipPath>
    <clipPath id="clippath-12">
      <rect class="cls-2" width="33.56" height="19.58"/>
    </clipPath>
  </defs>
  <g id="Layer_1-2" data-name="Layer 1">
    <g id="AUSTRALIA">
      <g>
        <g class="cls-1">
          <rect class="cls-3" width="33.56" height="19.58"/>
        </g>
        <g class="cls-6">
          <polygon class="cls-4" points="8.83 11.99 9.34 13.59 10.9 12.99 9.98 14.38 11.41 15.24 9.75 15.38 9.98 17.03 8.83 15.82 7.68 17.03 7.91 15.38 6.25 15.24 7.68 14.38 6.76 12.99 8.32 13.59 8.83 11.99"/>
        </g>
        <g class="cls-9">
          <polygon class="cls-4" points="26.49 14.85 26.73 15.61 27.48 15.33 27.04 15.99 27.72 16.4 26.92 16.47 27.04 17.25 26.49 16.68 25.94 17.25 26.05 16.47 25.26 16.4 25.94 15.99 25.5 15.33 26.25 15.61 26.49 14.85"/>
        </g>
        <g class="cls-8">
          <polygon class="cls-4" points="22.07 7.86 22.32 8.62 23.06 8.34 22.62 9 23.3 9.41 22.51 9.47 22.62 10.26 22.07 9.69 21.53 10.26 21.64 9.47 20.84 9.41 21.53 9 21.09 8.34 21.83 8.62 22.07 7.86"/>
        </g>
        <g class="cls-7">
          <polygon class="cls-4" points="26.49 3.08 26.73 3.84 27.48 3.56 27.04 4.22 27.72 4.62 26.92 4.69 27.04 5.48 26.49 4.91 25.94 5.48 26.05 4.69 25.26 4.62 25.94 4.22 25.5 3.56 26.25 3.84 26.49 3.08"/>
        </g>
        <g class="cls-13">
          <polygon class="cls-4" points="30.41 6.69 30.65 7.44 31.4 7.16 30.96 7.82 31.65 8.23 30.85 8.3 30.96 9.09 30.41 8.51 29.87 9.09 29.98 8.3 29.18 8.23 29.87 7.82 29.43 7.16 30.17 7.44 30.41 6.69"/>
        </g>
        <g class="cls-12">
          <polygon class="cls-4" points="28.25 10.23 28.45 10.7 28.95 10.74 28.57 11.07 28.69 11.56 28.25 11.29 27.82 11.56 27.94 11.07 27.56 10.74 28.06 10.7 28.25 10.23"/>
        </g>
        <g class="cls-10">
          <polygon class="cls-4" points="7.36 0 7.36 2.94 0 2.94 0 5.89 7.36 5.89 7.36 8.83 10.3 8.83 10.3 5.89 17.66 5.89 17.66 2.94 10.3 2.94 10.3 0 7.36 0"/>
        </g>
        <g class="cls-11">
          <polygon class="cls-4" points="0 0 0 .99 15.69 8.83 17.66 8.83 17.66 7.84 1.98 0 0 0"/>
        </g>
        <g class="cls-14">
          <polygon class="cls-4" points="15.69 0 0 7.84 0 8.83 1.98 8.83 17.66 .99 17.66 0 15.69 0"/>
        </g>
        <g class="cls-16">
          <polygon class="cls-5" points="7.95 0 7.95 3.53 0 3.53 0 5.3 7.95 5.3 7.95 8.83 9.71 8.83 9.71 5.3 17.66 5.3 17.66 3.53 9.71 3.53 9.71 0 7.95 0"/>
        </g>
        <g class="cls-17">
          <path class="cls-5" d="m0,0v.66l4.57,2.29h1.32L0,0Zm16.34,0l-5.89,2.94h1.32l5.89-2.94h-1.32Z"/>
        </g>
        <g class="cls-15">
          <path class="cls-5" d="m5.89,5.89L0,8.83h1.32l5.89-2.94h-1.32Zm5.89,0l5.89,2.94v-.66l-4.57-2.29h-1.32Z"/>
        </g>
      </g>
    </g>
  </g>
</svg>