<?xml version="1.0" encoding="UTF-8"?>
<svg id="Layer_2" data-name="Layer 2" xmlns="http://www.w3.org/2000/svg" viewBox="0 0 318.91 318.91">
  <defs>
    <style>
      .cls-1 {
        fill: #157b30;
      }

      .cls-1, .cls-2, .cls-3, .cls-4, .cls-5 {
        fill-rule: evenodd;
        stroke-width: 0px;
      }

      .cls-2 {
        fill: #466e55;
      }

      .cls-3 {
        fill: #fff;
      }

      .cls-4 {
        fill: #917847;
      }
    </style>
  </defs>
  <g id="Ebene_1" data-name="Ebene 1">
    <path class="cls-4" d="m159.46,0C71.39,0,0,71.39,0,159.46s71.39,159.45,159.46,159.45,159.45-71.39,159.45-159.45S247.52,0,159.46,0h0Zm0,312.33c-84.29,0-152.87-68.58-152.87-152.87,0-84.29,68.58-152.87,152.87-152.87s152.87,68.58,152.87,152.87-68.58,152.87-152.87,152.87h0Z"/>
    <path class="cls-3" d="m6.59,159.46c0,84.29,68.58,152.87,152.87,152.87s152.87-68.58,152.87-152.87S243.75,6.59,159.46,6.59c-84.29,0-152.87,68.58-152.87,152.87h0Z"/>
    <path class="cls-1" d="m159.46,10.62L10.62,159.46l148.83,148.83,148.83-148.83L159.46,10.62h0Zm0,290.68c-6.5-6.51-135.34-135.35-141.85-141.85,6.5-6.5,135.34-135.34,141.85-141.85,6.5,6.5,135.34,135.34,141.85,141.85-6.5,6.5-135.35,135.34-141.85,141.85h0Z"/>
    <path class="cls-1" d="m159.46,22.27c-10.31,10.31-126.88,126.88-137.19,137.19,10.31,10.31,126.88,126.88,137.19,137.19V22.27h0Z"/>
    <path class="cls-5" d="m19.25,112.27c-1.8,5.33-3.29,10.76-4.46,16.26-.23,1.1-.5,2.42-.6,2.95-1.2,6.23-1.99,12.53-2.37,18.86-.03.55.66.28,1.54-.6.88-.88,1.57-2.06,1.54-2.63-.08-1.74-.11-2.61-.15-4.34,3.34-4.29,5.04-6.43,8.49-10.68.57,1.91.86,2.87,1.47,4.8.2.63,1.08.43,1.96-.45s1.39-2.12,1.14-2.77c-2.79-7.29-5.33-14.69-7.56-22.18-.19-.62-.63-.28-.99.77h0Zm-4.53,28.46c-.04-4.94.04-7.38.36-12.2,1.42-4.94,2.23-7.38,4.03-12.16,1.21,5.31,1.91,8.01,3.47,13.46-3.21,4.33-4.79,6.51-7.86,10.9h0Z"/>
    <path class="cls-5" d="m29.03,89.71c-.52.96-.6,2.3-.2,2.99,0,.01.01.02.02.04,0,0,0-.01,0-.02,2.48,7.84,4.83,15.69,6.82,23.67-4.3-3.95-8.53-7.89-12.4-12.28,0,0,0,0,.01.01,0-.01,0-.02-.01-.03-.28-.65-.84-.35-1.25.68s-.54,2.38-.31,3.01c4.67,5.89,10.14,10.95,15.69,15.99.38.69,1.41.54,2.29-.34.88-.88,1.25-2.16.83-2.87-2.89-10.57-6.15-20.97-9.74-31.33-.44-.69-1.22-.47-1.74.49h0Z"/>
    <path class="cls-5" d="m60.01,90.11c.83-.88.98-2.18.35-2.91-.64-.73-1.81-.61-2.62.26-4.3,4.66-6.42,7.02-10.57,11.79-3.82-5.17-7.6-10.36-11.36-15.57,3.24-4.9,4.96-7.28,8.61-11.87.68-.86.76-2.12.16-2.82-.6-.7-1.63-.58-2.3.28-4.02,5.21-5.89,7.93-9.31,13.57-.57.93-.64,2.26-.17,2.95,5.67,8.37,11.49,16.64,17.37,24.86.52.73,1.67.61,2.55-.27,4.43-4.44,8.87-8.87,13.31-13.31.88-.88,1.06-2.19.41-2.93-.65-.74-1.87-.63-2.73.25-4.58,4.68-6.86,7.03-11.4,11.74-1.28-1.7-1.92-2.55-3.18-4.25,4.3-4.75,6.48-7.11,10.89-11.77h0Z"/>
    <path class="cls-5" d="m82.81,75.13c-4.65,4.62-6.96,6.94-11.57,11.6-7.28-7.83-14.55-15.67-21.79-23.53-.64-.69-1.73-.59-2.44.24-.71.83-.77,2.07-.15,2.76,7.45,8.37,14.94,16.71,22.45,25.03.67.74,1.92.62,2.8-.26,4.44-4.43,8.87-8.87,13.31-13.31.88-.88,1-2.16.28-2.85-.73-.69-2.03-.55-2.9.32h0Z"/>
    <path class="cls-5" d="m102.16,56.13c-4.7,4.55-7.04,6.84-11.71,11.43-7.88-7.08-15.79-14.13-23.72-21.15-.7-.62-1.94-.55-2.77.15-.83.7-.93,1.79-.24,2.42,8.31,7.62,16.61,15.27,24.88,22.93.73.68,2.04.52,2.92-.36,4.44-4.43,8.87-8.87,13.31-13.31.88-.88,1-2.06.26-2.63-.74-.58-2.05-.34-2.93.51h0Z"/>
    <path class="cls-5" d="m110.93,49.89c.73.52.6,1.66-.28,2.54-.88.88-2.19,1.15-2.92.59-8.28-6.19-16.61-12.3-25.01-18.32-.7-.5-.51-1.37.42-1.93.93-.56,2.26-.64,2.95-.17,8.37,5.64,16.62,11.43,24.84,17.29h0Z"/>
    <path class="cls-5" d="m105.09,21.88c-1.03.41-1.33.97-.68,1.24,5.89,2.5,11.7,5.17,17.49,7.88-9.67.07-19.34-.81-28.88-2.34-.68-.4-2.02-.31-2.99.2-.97.52-1.19,1.29-.5,1.73,8.3,5.25,16.47,10.67,24.61,16.17.72.49,2.02.18,2.9-.7s1.02-1.97.3-2.42c-6.13-3.94-12.32-7.79-18.56-11.54,9.56,1.36,19.25,2.04,28.91,1.73,0,0,0,0,.01-.02.7.2,1.83-.24,2.65-1.05.88-.88,1.06-1.83.4-2.12-7.48-3.2-14.99-6.29-22.64-9.06-.64-.23-1.99-.09-3.02.31h0Z"/>
    <path class="cls-2" d="m128.54,14.78c-5.5,1.17-10.93,2.66-16.26,4.46-1.05.35-1.4.8-.77.99,7.48,2.24,14.88,4.77,22.17,7.56.65.25,1.89-.26,2.77-1.14l13.31-13.31c.88-.88,1.15-1.57.6-1.54-6.33.38-12.63,1.18-18.85,2.37-.53.1-1.85.36-2.95.6h0Zm0,.29c5.84-.39,11.7-.47,17.55-.23-4.14,3.78-6.21,5.68-10.34,9.49-6.39-1.99-12.85-3.74-19.37-5.23,4.79-1.8,7.22-2.61,12.16-4.03h0Z"/>
    <path class="cls-5" d="m19.25,112.27c-1.8,5.33-3.29,10.76-4.46,16.26-.23,1.1-.5,2.42-.6,2.95-1.2,6.23-1.99,12.53-2.37,18.86-.03.55.66.28,1.54-.6.88-.88,1.57-2.06,1.54-2.63-.08-1.74-.11-2.61-.15-4.34,3.34-4.29,5.04-6.43,8.49-10.68.57,1.91.86,2.87,1.47,4.8.2.63,1.08.43,1.96-.45s1.39-2.12,1.14-2.77c-2.79-7.29-5.33-14.69-7.56-22.18-.19-.62-.63-.28-.99.77h0Zm-4.53,28.46c-.04-4.94.04-7.38.36-12.2,1.42-4.94,2.23-7.38,4.03-12.16,1.21,5.31,1.91,8.01,3.47,13.46-3.21,4.33-4.79,6.51-7.86,10.9h0Z"/>
    <path class="cls-5" d="m29.03,89.71c-.52.96-.6,2.3-.2,2.99,0,.01.01.02.02.04,0,0,0-.01,0-.02,2.48,7.84,4.83,15.69,6.82,23.67-4.3-3.95-8.53-7.89-12.4-12.28,0,0,0,0,.01.01,0-.01,0-.02-.01-.03-.28-.65-.84-.35-1.25.68s-.54,2.38-.31,3.01c4.67,5.89,10.14,10.95,15.69,15.99.38.69,1.41.54,2.29-.34.88-.88,1.25-2.16.83-2.87-2.89-10.57-6.15-20.97-9.74-31.33-.44-.69-1.22-.47-1.74.49h0Z"/>
    <path class="cls-5" d="m60.01,90.11c.83-.88.98-2.18.35-2.91-.64-.73-1.81-.61-2.62.26-4.3,4.66-6.42,7.02-10.57,11.79-3.82-5.17-7.6-10.36-11.36-15.57,3.24-4.9,4.96-7.28,8.61-11.87.68-.86.76-2.12.16-2.82-.6-.7-1.63-.58-2.3.28-4.02,5.21-5.89,7.93-9.31,13.57-.57.93-.64,2.26-.17,2.95,5.67,8.37,11.49,16.64,17.37,24.86.52.73,1.67.61,2.55-.27,4.43-4.44,8.87-8.87,13.31-13.31.88-.88,1.06-2.19.41-2.93-.65-.74-1.87-.63-2.73.25-4.58,4.68-6.86,7.03-11.4,11.74-1.28-1.7-1.92-2.55-3.18-4.25,4.3-4.75,6.48-7.11,10.89-11.77h0Z"/>
    <path class="cls-5" d="m82.81,75.13c-4.65,4.62-6.96,6.94-11.57,11.6-7.28-7.83-14.55-15.67-21.79-23.53-.64-.69-1.73-.59-2.44.24-.71.83-.77,2.07-.15,2.76,7.45,8.37,14.94,16.71,22.45,25.03.67.74,1.92.62,2.8-.26,4.44-4.43,8.87-8.87,13.31-13.31.88-.88,1-2.16.28-2.85-.73-.69-2.03-.55-2.9.32h0Z"/>
    <path class="cls-5" d="m102.16,56.13c-4.7,4.55-7.04,6.84-11.71,11.43-7.88-7.08-15.79-14.13-23.72-21.15-.7-.62-1.94-.55-2.77.15-.83.7-.93,1.79-.24,2.42,8.31,7.62,16.61,15.27,24.88,22.93.73.68,2.04.52,2.92-.36,4.44-4.43,8.87-8.87,13.31-13.31.88-.88,1-2.06.26-2.63-.74-.58-2.05-.34-2.93.51h0Z"/>
    <path class="cls-5" d="m110.93,49.89c.73.52.6,1.66-.28,2.54-.88.88-2.19,1.15-2.92.59-8.28-6.19-16.61-12.3-25.01-18.32-.7-.5-.51-1.37.42-1.93.93-.56,2.26-.64,2.95-.17,8.37,5.64,16.62,11.43,24.84,17.29h0Z"/>
    <path class="cls-5" d="m105.09,21.88c-1.03.41-1.33.97-.68,1.24,5.89,2.5,11.7,5.17,17.49,7.88-9.67.07-19.34-.81-28.88-2.34-.68-.4-2.02-.31-2.99.2-.97.52-1.19,1.29-.5,1.73,8.3,5.25,16.47,10.67,24.61,16.17.72.49,2.02.18,2.9-.7s1.02-1.97.3-2.42c-6.13-3.94-12.32-7.79-18.56-11.54,9.56,1.36,19.25,2.04,28.91,1.73,0,0,0,0,.01-.02.7.2,1.83-.24,2.65-1.05.88-.88,1.06-1.83.4-2.12-7.48-3.2-14.99-6.29-22.64-9.06-.64-.23-1.99-.09-3.02.31h0Z"/>
    <path class="cls-5" d="m128.54,14.78c-5.5,1.17-10.93,2.66-16.26,4.46-1.05.35-1.4.8-.77.99,7.48,2.24,14.88,4.77,22.17,7.56.65.25,1.89-.26,2.77-1.14l13.31-13.31c.88-.88,1.15-1.57.6-1.54-6.33.38-12.63,1.18-18.85,2.37-.53.1-1.85.36-2.95.6h0Zm0,.29c5.84-.39,11.7-.47,17.55-.23-4.14,3.78-6.21,5.68-10.34,9.49-6.39-1.99-12.85-3.74-19.37-5.23,4.79-1.8,7.22-2.61,12.16-4.03h0Z"/>
    <path class="cls-5" d="m189.79,23.1c-4.69-3.5-7.06-5.21-11.82-8.54,4.93,0,7.36.08,12.17.44,5.37,1.54,8.01,2.42,13.19,4.4.97.37,2.26.54,2.88.38.62-.17.32-.58-.67-.9-5.98-1.96-9.04-2.79-15.28-4.12-1.03-.22-2.3-.47-2.83-.57-5.4-1.04-8.14-1.43-13.69-1.97-.54-.05-.27.46.6,1.13,4.67,3.61,6.99,5.44,11.61,9.17-1.45.4-2.17.61-3.63,1.03-4.48-4.14-6.72-6.2-11.23-10.29-.85-.77-1.98-1.42-2.53-1.46s-.32.61.5,1.44c4.16,4.16,8.32,8.32,12.48,12.48.83.83,2.02,1.3,2.66,1.07,2.43-.88,3.63-1.3,6.03-2.11.64-.22.44-.92-.44-1.58h0Z"/>
    <path class="cls-5" d="m186.43,28.94c.65-.26,1.86.15,2.7.94.84.78.98,1.66.31,1.97-.67.31-1.88-.11-2.7-.93-.83-.83-.96-1.71-.31-1.98h0Z"/>
    <path class="cls-5" d="m231.94,30.54c-5.4-3.05-8.19-4.43-13.91-6.91-.95-.41-2.24-.51-2.89-.23-7.82,3.46-15.53,7.08-23.2,10.87-.68.34-.56,1.29.26,2.12s2.05,1.18,2.75.8c2.11-1.16,3.16-1.73,5.24-2.85,4.55,3.87,6.81,5.84,11.3,9.82.84.75,2.11.95,2.83.44,5.95-4.17,11.95-8.27,17.99-12.3.69-.46.53-1.25-.36-1.76h0Zm-29.28,2.48c4.86-2.57,9.75-5.07,14.69-7.48,4.28,2.12,6.38,3.25,10.48,5.66-5.14,3.24-10.24,6.54-15.3,9.89-3.92-3.28-5.89-4.9-9.87-8.07h0Z"/>
    <path class="cls-5" d="m209.97,51.84c.73-.54,2-.33,2.83.47s.91,1.91.17,2.47c-.73.57-2,.36-2.83-.47-.82-.83-.9-1.93-.17-2.48h0Z"/>
    <path class="cls-5" d="m255.36,46.91c-4.68-4-7.13-5.88-12.22-9.38-.84-.58-2.1-.61-2.8-.08-8.44,6.43-16.83,12.93-25.16,19.51-.74.58-.67,1.73.16,2.55.83.83,2.1,1,2.84.39,2.26-1.85,3.38-2.77,5.62-4.59,3.81,3.53,5.7,5.32,9.45,8.92-2.22,2-3.34,3.01-5.59,5.05-.73.67-.67,1.88.16,2.7s2.09.94,2.82.26c8.27-7.68,16.56-15.35,24.87-22.99.69-.63.62-1.69-.15-2.35h0Zm-28.92,6.25c5.21-4.21,10.44-8.4,15.68-12.57,3.83,2.81,5.7,4.29,9.32,7.36-5.2,4.62-10.38,9.26-15.56,13.91-3.74-3.53-5.62-5.27-9.44-8.71h0Z"/>
    <path class="cls-5" d="m232.84,74.44c.73-.69,1.98-.59,2.8.22.82.81.9,2.04.18,2.75-.72.7-1.98.6-2.8-.22-.83-.82-.9-2.06-.18-2.75h0Z"/>
    <path class="cls-5" d="m253.57,92.71c-1.86-1.89-2.79-2.84-4.65-4.73,7.22-7.85,14.41-15.71,21.59-23.6.63-.69.6-1.88-.07-2.64-2.04-2.31-3.08-3.44-5.24-5.64-.71-.73-1.83-.77-2.5-.1s-.62,1.8.1,2.54c1.66,1.69,2.48,2.56,4.08,4.31-6.95,7.41-13.92,14.79-20.89,22.16-1.87-1.88-2.81-2.82-4.68-4.7-.81-.82-2.05-.9-2.77-.19-.71.71-.62,1.96.2,2.79,4.16,4.16,8.32,8.32,12.48,12.48.83.83,2.02.89,2.66.15.64-.74.51-2.01-.3-2.83h0Z"/>
    <path class="cls-5" d="m287.82,86c-3.09-5.37-4.77-7.97-8.38-12.97-.6-.83-1.55-.92-2.13-.22-5.02,6.12-10.07,12.21-15.15,18.27-.61.73-.48,1.99.29,2.82,4.1,4.4,6.13,6.62,10.13,11.09-1.2,1.68-1.8,2.52-3.02,4.22-4.24-4.42-6.38-6.63-10.66-11.03-.8-.83-1.96-.9-2.59-.16-.63.74-.47,2.01.36,2.84,4.16,4.16,8.32,8.32,12.48,12.48.83.83,1.9.91,2.4.19,5.57-8.15,11.06-16.35,16.39-24.66.44-.69.4-1.97-.11-2.86h0Zm-21.84,6.75c4.2-5.21,8.37-10.43,12.52-15.67,2.81,3.84,4.14,5.81,6.67,9.84-3.54,5.19-7.14,10.33-10.75,15.47-3.33-3.89-5.02-5.82-8.45-9.63h0Z"/>
    <path class="cls-5" d="m288.66,129.39c-1.8-1.93-2.7-2.89-4.51-4.82,3.73-7.31,7.37-14.65,10.77-22.12.3-.65.21-1.95-.21-2.89-1.27-2.85-1.94-4.25-3.35-7.02-.47-.91-1.18-1.1-1.59-.42-.41.68-.33,1.97.17,2.87,1.15,2.09,1.71,3.14,2.79,5.27-3.65,7.18-7.51,14.25-11.42,21.28-1.81-1.92-2.72-2.88-4.54-4.8-.79-.83-1.81-.93-2.28-.22s-.18,1.97.65,2.79c4.16,4.16,8.32,8.32,12.48,12.48.83.83,1.72.96,1.99.31.27-.65-.15-1.86-.93-2.7h0Z"/>
    <path class="cls-5" d="m305.57,144.58c.68.88,1.18,1.15,1.13.6-.54-5.55-.93-8.29-1.97-13.69-.1-.53-.35-1.8-.57-2.83-1.32-6.24-2.16-9.3-4.12-15.28-.33-.99-.73-1.29-.9-.67-.17.62,0,1.9.37,2.87,1.98,5.18,2.87,7.83,4.4,13.19.36,4.8.45,7.24.44,12.16-3.33-4.76-5.04-7.13-8.54-11.82-.66-.88-1.36-1.08-1.58-.45-.81,2.4-1.23,3.61-2.11,6.03-.23.64.25,1.83,1.07,2.66,4.16,4.16,8.32,8.32,12.48,12.48.83.83,1.47,1.05,1.44.5s-.69-1.68-1.46-2.52c-4.09-4.5-6.15-6.74-10.29-11.22.43-1.46.63-2.18,1.03-3.63,3.73,4.62,5.57,6.94,9.18,11.61h0Z"/>
    <path class="cls-5" d="m297.22,213.35c.56-1.42.82-3.09.6-3.72-2.44-7.18-5.13-14.29-8.04-21.3,4.4-4.74,8.79-9.49,13.16-14.26.49,6.25.64,12.53.44,18.8-.02.56.26-.21.59-1.73.33-1.52.66-3.18.76-3.71,1.2-6.23,1.99-12.53,2.38-18.86.03-.55-.93-.01-2.14,1.2-6.13,6.12-12.25,12.26-18.38,18.38-1.22,1.22-1.93,2.75-1.59,3.43,3.73,7.65,7.3,15.35,10.7,23.15.28.64.97.03,1.53-1.39h0Z"/>
    <path class="cls-5" d="m281.37,243.15c.85-1.24,1.1-2.83.57-3.53-4.78-6.38-9.62-12.71-14.51-19,7.81,1.46,15.61,2.94,23.47,4.05.39.68,1.26.13,1.91-1.23s.9-3.02.57-3.69c-4.09-8-8.32-15.89-12.7-23.74-.39-.69-1.7-.27-2.92.95-1.22,1.22-1.84,2.77-1.4,3.48,3.83,6.1,7.57,12.27,11.21,18.48-8.39-1.35-16.74-3-25.08-4.63,0,0-.01.01-.02.02-.65-.51-1.98-.1-3.1,1.02-1.22,1.22-1.7,2.81-1.09,3.55,6.89,8.36,13.72,16.76,20.5,25.22.56.7,1.72.28,2.58-.96h0Z"/>
    <path class="cls-5" d="m249.59,227.69c-.67-.74-.22-2.32.99-3.54,1.22-1.22,2.73-1.6,3.37-.86,7.22,8.36,14.4,16.75,21.54,25.18.59.7.33,2.23-.61,3.4-.94,1.17-2.22,1.55-2.84.85-7.45-8.37-14.94-16.71-22.45-25.03h0Z"/>
    <path class="cls-5" d="m251.51,275.18c5.91-4.71,11.46-9.87,16.59-15.42,1.02-1.1,1.31-2.57.67-3.26-7.7-8.28-15.42-16.54-23.16-24.79-.69-.73-2.23-.34-3.45.88-6.13,6.13-12.26,12.26-18.38,18.38-1.22,1.22-1.6,2.72-.86,3.36,8.36,7.19,16.75,14.35,25.18,21.46.7.59,2.23.32,3.41-.61h0Zm-.41-3.94c-7.51-6.66-14.99-13.35-22.45-20.07,4.63-4.57,9.25-9.17,13.86-13.77,7.12,7.29,14.24,14.58,21.35,21.89-4.04,4.2-8.31,8.19-12.76,11.95h0Z"/>
    <path class="cls-5" d="m223.43,292.82c1.37-.66,1.91-1.52,1.24-1.91-6.16-3.52-12.27-7.15-18.32-10.87,11.19-.07,22.15.64,33.27,1.91.7.53,2.29.28,3.53-.57,1.24-.85,1.66-2.02.96-2.58-8.45-6.78-16.85-13.61-25.22-20.5-.74-.61-2.32-.13-3.54,1.09-1.22,1.22-1.6,2.68-.87,3.25,6.37,4.98,12.75,9.93,19.19,14.82-11.18-1.07-22.16-1.55-33.39-1.19,0,0-.01.01-.02.02-.77-.26-2.18.36-3.3,1.48-1.22,1.22-1.64,2.52-.95,2.92,7.84,4.38,15.74,8.6,23.73,12.7.67.34,2.32.09,3.69-.57h0Z"/>
    <path class="cls-5" d="m175.09,304.98c-1.29,1-1.9,1.77-1.35,1.71s2.06-.83,3.38-1.75c5.88-4.1,11.68-8.33,17.37-12.68,5.67,2.24,8.48,3.26,14,5.16-6.4,2.54-12.73,4.75-19.32,6.75-1.49.42-2.28.65-1.75.55.53-.1,2.19-.43,3.71-.76,7.57-1.65,15-3.91,22.21-6.74,1.42-.56,2.03-1.25,1.39-1.53-7.8-3.4-15.5-6.97-23.15-10.7-.68-.34-2.21.37-3.43,1.59-6.13,6.13-12.25,12.26-18.38,18.38-1.22,1.22-1.76,2.18-1.21,2.14s2-.98,3.25-2.12c5.53-5.04,11.04-10.11,16.51-15.21,1.53.64,2.29.95,3.8,1.56-5.61,4.64-11.29,9.19-17.04,13.65h0Z"/>
    <path class="cls-5" d="m127.58,294.65c5.17,3.89,7.78,5.78,13.04,9.46-4.94.06-7.39,0-12.21-.31-5.92-1.71-8.83-2.71-14.52-4.96-1.07-.42-2.44-.62-3.06-.42s-.25.66.83,1.03c5.51,1.89,11.13,3.44,16.81,4.66,1.14.24,2.5.51,3.02.61,5.39,1.04,8.13,1.44,13.69,1.97.54.05.2-.51-.77-1.26-5.15-3.99-7.71-6.02-12.8-10.15,1.46-.45,2.2-.68,3.67-1.15,4.11,3.81,8.24,7.59,12.38,11.37.93.85,2.13,1.57,2.68,1.6.55.04.26-.68-.65-1.59-4.59-4.59-9.18-9.18-13.77-13.77-.91-.91-2.18-1.44-2.83-1.18-2.46.97-3.68,1.44-6.11,2.34-.64.24-.38,1.03.59,1.75h0Z"/>
    <path class="cls-5" d="m88.71,289.34c5.02,2.75,10.21,5.2,15.52,7.35,1.06.42,2.44.57,3.08.33,7.69-2.88,15.24-6.08,22.76-9.39.66-.3.46-1.29-.45-2.2s-2.2-1.36-2.88-1.02c-2.07,1.05-3.11,1.57-5.16,2.58-4.21-3.54-8.38-7.14-12.5-10.78-.93-.82-2.27-1.09-2.98-.61-5.93,4.05-11.9,8.03-17.92,11.93-.69.45-.45,1.26.54,1.81h0Zm30.43-1.17c-5.86,2.85-8.76,4.18-14.47,6.7-4.77-2.24-7.11-3.45-11.68-6.05,5.11-3.1,10.18-6.26,15.21-9.48,4.34,3.6,6.53,5.37,10.94,8.83h0Z"/>
    <path class="cls-5" d="m67.99,275.64c4.46,3.52,9.11,6.78,13.95,9.76.96.59,2.31.68,3,.2,8.39-5.76,16.67-11.67,24.91-17.64.73-.53.58-1.7-.33-2.61-4.59-4.59-9.18-9.18-13.77-13.77-.91-.91-2.25-1.11-2.99-.46-8.34,7.42-16.7,14.8-25.1,22.15-.7.61-.56,1.68.33,2.37h0Zm4.15-.88c7.56-6.37,15.08-12.78,22.58-19.23,4.18,4.1,6.28,6.14,10.49,10.2-7.43,5.66-14.92,11.25-22.47,16.75-4.36-2.92-6.48-4.47-10.6-7.72h0Z"/>
    <path class="cls-5" d="m72.12,232.35c.34,3.94.49,5.9.76,9.74-1.54-1.56-2.31-2.34-3.85-3.9-.87-.9-2.12-1.03-2.8-.32-5.56,5.99-11.12,11.98-16.66,17.98-.64.69-.55,1.93.21,2.77,3.8,4.2,7.84,8.18,12.09,11.92.84.74,2.1.83,2.79.2,8.34-7.56,16.66-15.14,24.95-22.75.73-.68.59-1.96-.32-2.87s-2.24-1.09-2.97-.4c-2.23,2.11-3.33,3.15-5.53,5.23-1.44-1.4-2.15-2.11-3.58-3.52-.35-5.26-.53-7.96-1-13.42-.1-1.15-1.11-2.24-2.24-2.41-1.13-.18-1.96.61-1.86,1.76h0Zm-9.28,34.51c-3.87-3.54-5.74-5.38-9.32-9.2,4.87-5.09,9.74-10.18,14.62-15.26,3.97,4.06,5.98,6.06,10.06,10.01-5.11,4.83-10.23,9.64-15.36,14.46h0Z"/>
    <path class="cls-5" d="m34.74,238.93c3.06,4.78,6.39,9.39,9.97,13.79.71.87,1.8,1.01,2.42.31s.53-1.96-.2-2.84c-1.68-2.01-2.5-3.04-4.1-5.12,6.63-8.01,13.29-15.99,20.01-23.93.63-.74.4-2.08-.51-2.99-.91-.91-2.14-1.05-2.75-.31-6.46,7.94-12.89,15.9-19.23,23.93-1.55-2.12-2.3-3.19-3.77-5.37-.64-.95-1.55-1.16-2.04-.46s-.41,2.04.19,2.99h0Z"/>
    <path class="cls-5" d="m51.71,209.39c.44-.59,1.53-.33,2.44.58.91.91,1.28,2.13.82,2.73-5.18,6.76-10.31,13.55-15.4,20.38-.42.57-1.31.27-1.97-.68s-.86-2.19-.46-2.75c4.78-6.81,9.66-13.54,14.57-20.25h0Z"/>
    <path class="cls-5" d="m22.36,215.01c.43,1.06,1.02,1.38,1.31.73,0-.01,0-.02.02-.04h-.01c4.03-4.34,8.4-8.25,12.85-12.17-2.12,8.05-4.45,15.99-6.99,23.92,0-.01,0-.01,0-.02,0,.01-.01.02-.02.03-.42.68-.32,2.05.23,3.04.55.99,1.36,1.23,1.81.54,3.68-10.46,7.01-20.96,9.97-31.64.43-.7.05-2.02-.87-2.93s-1.97-1.09-2.37-.39c-5.73,5-11.37,10.01-16.26,15.86-.24.64-.1,2.02.33,3.07h0Z"/>
    <path class="cls-5" d="m14.8,190.44c1.22,5.69,2.77,11.3,4.66,16.81.37,1.09.84,1.46,1.03.83,2.34-7.52,4.98-14.95,7.87-22.27.26-.65-.27-1.92-1.18-2.83-.91-.91-1.82-1.13-2.03-.5-.63,1.93-.94,2.9-1.52,4.81-3.57-4.4-5.33-6.61-8.79-11.05.04-1.73.08-2.6.16-4.35.03-.57-.68-1.77-1.6-2.69-.91-.91-1.63-1.2-1.59-.65.39,6.33,1.18,12.63,2.37,18.85.1.53.37,1.88.61,3.02h0Zm8.15-.87c-1.62,5.48-2.35,8.18-3.63,13.51-1.88-4.94-2.72-7.46-4.2-12.58-.3-4.82-.37-7.26-.31-12.21,3.18,4.54,4.81,6.8,8.14,11.28h0Z"/>
    <path class="cls-1" d="m211.33,122.68c0-8.71-27.45-23.88-27.45-23.88v-37.33h-4.39s-6.45,22.78-17.29,22.78c-1.07,0-1.95-2.94-2.75-7.04v167.05l9.33,13.72,12.21-12.21v-55.58h59.14c5.56,0,4.12-4.53,4.12-4.53-10.84-10.84-36.5-2.74-36.5-14.13,0-9.47,26.83,8.23,37.33,8.23,4.66,0,14-8.37,14-12.07,0-7.82-47.75-30.26-47.75-45.01h0Zm-21.61,9.5c-4.12,0-8.13-2.16-8.13-4.12,0-1.6.15-2.47,4.43-2.47,4.84,0,8.75,2.16,8.75,4.12s-.93,2.47-5.04,2.47h0Z"/>
    <path class="cls-3" d="m153.69,51.87c-6.31,0-23.33,38.97-23.33,47.75-9.61,9.61-22.78,29.92-22.78,40.07,0,19.49-24.97,40.89-24.97,45.56,0,3.3.82,4.67,4.39,4.67,5.76,0,5.49,4.66,5.49,8.51,0,5.49,4.94,4.39,7.68,4.39,6.31,0,5.49,2.47,5.49,5.49,0,7.14,3.84,7.96,6.86,7.96,6.04,0,6.31,4.94,6.31,7.41,0,4.39,3.57,2.75,6.04,2.75,3.84,0,7.14,5.21,7.14,10.15,0,2.47,5.49,3.02,7.41,3.02,5.22,0,5.22,6.86,15.37,6.86,4.25,0,4.67-2.2,4.67-2.2h0s0-167.05,0-167.05c-1.85-9.53-3.27-25.34-5.76-25.34h0Zm-3.36,26.07c4.8,0,3.91,15.99,1.71,15.99-2.47,0-.41-11.05-3.16-11.05-.89,0-1.78-1.17-1.78-2.4,0-1.23.55-2.54,3.22-2.54h0Zm-9.81,61c0,1.65.82,3.16,5.22,3.16,6.86,0,6.93,3.91-.69,3.91-5.56,0-8.71-3.29-8.71-7.2,0-3.29,4.18-3.16,4.18.14h0Zm-3.29,64.49c0,1.38,2.26,2.95,4.87,2.95,3.71,0,5.76-5.35,5.76-.07,0,2.26-2.4,3.36-5.7,3.36-5.35,0-9.06-2.61-9.06-6.04,0-4.05,4.12-2.26,4.12-.21h0Zm-12.35-27.51c0-4.87,5.01-3.22,5.01.75,0,3.09,3.02,4.87,5.76,4.87s7.2-3.57,7.2,0c0,3.29-3.98,4.12-8.92,4.12-5.49,0-9.06-6.79-9.06-9.74h0Zm4.46-41.99c1.58,0,2.95.89,2.95,2.4s-2.19,3.57-3.57,3.57-3.16-.89-3.16-2.61c0-1.71,2.2-3.36,3.78-3.36h0Zm-3.57,22.23c0,2.68,2.33,5.7,5.7,5.7,2.47,0,6.45-7.48,6.45-.83,0,3.16-4.05,4.94-7.75,4.94-3.91,0-8.71-4.12-8.71-7.96,0-6.52,4.32-4.53,4.32-1.85h0Zm-23.19,24.43c0-5.08,3.36-2.68,3.36-.07,0,1.93,3.5,4.46,6.72,4.46.82,0,3.09.13,3.09-.69,0-1.78,4.94-3.09,4.94,1.44,0,2.4-3.09,3.22-7.14,3.22-5.49,0-10.98-3.3-10.98-8.37h0Zm19.97,24.15c-3.84,0-10.02-5.42-10.02-9.13,0-4.59,3.98-3.22,3.98-.82s2.06,5.01,5.97,5.01c1.51,0,3.16.2,3.16-.75,0-3.09,3.36-3.02,3.36,0,0,2.26-2.61,5.69-6.45,5.69h0Zm16.33,22.23c-4.8,0-10.7-3.3-10.7-5.76,0-4.05,4.19-1.17,4.19-1.17,0,0,2.06,2.95,6.45,2.95,1.51,0,3.36-.34,3.36-1.78s3.29-2.81,3.29,1.58c0,2.54-2.88,4.19-6.59,4.19h0Zm14.13,12.28c-3.91,0-9.33-2.33-9.33-6.52,0-2.88,4.19-2.19,4.19,0,0,1.85,3.91,2.4,5.69,2.4.55,0,5.08-1.99,5.08,1.44,0,2.26-2.06,2.68-5.63,2.68h0Z"/>
  </g>
</svg>