<?xml version="1.0" encoding="UTF-8"?>
<svg id="Layer_2" data-name="Layer 2" xmlns="http://www.w3.org/2000/svg" xmlns:xlink="http://www.w3.org/1999/xlink" viewBox="0 0 289.99 407.36">
  <defs>
    <style>
      .cls-1 {
        clip-path: url(#clippath);
      }

      .cls-2, .cls-3, .cls-4, .cls-5, .cls-6, .cls-7, .cls-8 {
        stroke-width: 0px;
      }

      .cls-2, .cls-9 {
        fill: none;
      }

      .cls-3 {
        fill: #000b43;
      }

      .cls-3, .cls-4, .cls-5, .cls-6, .cls-7, .cls-8 {
        fill-rule: evenodd;
      }

      .cls-4 {
        fill: #d9c940;
      }

      .cls-5 {
        fill: #ca7c32;
      }

      .cls-6 {
        fill: #fefff9;
      }

      .cls-7 {
        fill: #f6061f;
      }

      .cls-9 {
        stroke: #1b1918;
        stroke-width: .43px;
      }
    </style>
    <clipPath id="clippath">
      <rect class="cls-2" width="289.99" height="407.36"/>
    </clipPath>
  </defs>
  <g id="Ebene_1" data-name="Ebene 1">
    <g>
      <path class="cls-4" d="m41.25,125.31h-10.81l-1.89,4.41c-.45,1.09-.68,1.91-.68,2.44,0,.23.03.43.1.62.07.19.23.36.46.51.23.15.56.28.98.4.42.12.98.19,1.66.23v.75h-8.8v-.75c.7-.11,1.27-.25,1.7-.46.44-.21.8-.48,1.12-.85.3-.36.59-.82.85-1.39.25-.58.57-1.28.94-2.13l9.81-22.95h.71l9.71,23.2c.39.97.74,1.74,1.09,2.32.34.59.68,1.05,1.04,1.37.36.33.75.56,1.17.67.42.13.92.2,1.52.22v.75h-11v-.75c1.1-.04,1.84-.22,2.23-.55.4-.31.6-.7.6-1.15-.02-.6-.29-1.56-.83-2.9l-1.69-4.01Zm-.59-1.51l-4.73-11.32-4.85,11.32h9.58Zm35.9-17.04l-18.32,26.21h11.42c.88,0,1.65-.08,2.3-.24.65-.17,1.23-.47,1.74-.9.51-.43.96-1.03,1.35-1.78.39-.76.76-1.73,1.13-2.93l.69.13-1.32,7.42h-22.69v-.77l17.89-25.44h-8.87c-1.12,0-2.02.08-2.69.26-.67.17-1.2.46-1.59.87-.39.41-.67.95-.87,1.63-.19.68-.37,1.52-.53,2.51h-.82l.57-6.98h20.62Zm20.72,14.85v8.13c0,1.78.2,2.88.59,3.29.53.6,1.32.89,2.36.89h1.08v.75h-11.94v-.75h1.04c1.15,0,1.99-.38,2.49-1.14.28-.45.43-1.46.43-3.04v-18.04c0-1.74-.18-2.83-.54-3.26-.56-.62-1.34-.92-2.38-.92h-1.04v-.75h10.23c2.45,0,4.42.26,5.9.8.71.25,1.38.59,2.01,1.03.62.44,1.16.97,1.62,1.57.46.59.82,1.27,1.09,1.99.26.72.4,1.51.4,2.35,0,1.12-.2,2.16-.59,3.1-.39.93-.95,1.75-1.69,2.42-.74.67-1.63,1.21-2.7,1.58-1.06.38-2.28.56-3.66.56s-2.89-.19-4.69-.55h0Zm0-1.2c.73.15,1.38.25,1.93.33.55.08,1.04.11,1.45.11.71,0,1.38-.15,2.02-.44.63-.3,1.18-.71,1.67-1.23.48-.52.86-1.15,1.14-1.88.27-.74.41-1.54.41-2.4,0-1.02-.16-1.93-.46-2.72-.3-.8-.72-1.47-1.26-2.02-.53-.56-1.15-.98-1.86-1.26-.72-.28-1.5-.43-2.34-.43-.69,0-1.59.12-2.69.37v11.58Zm27.69,13.51v.75h-11.88v-.75h.98c.49,0,.92-.03,1.3-.11.37-.07.68-.25.92-.52.25-.29.44-.71.57-1.26.14-.57.2-1.33.2-2.3v-18.04c0-.64-.01-1.16-.04-1.58-.03-.42-.08-.77-.16-1.03-.07-.27-.18-.48-.31-.64-.15-.15-.34-.29-.59-.44-.61-.33-1.24-.5-1.88-.5h-.98v-.75h11.88v.75h-.98c-.49,0-.92.04-1.3.13-.37.08-.68.26-.92.53-.25.27-.44.7-.57,1.26-.14.57-.2,1.32-.2,2.26v18.04c0,.66.01,1.18.03,1.6.02.41.07.74.15,1.01.08.27.2.48.36.64.15.15.35.29.6.44.56.32,1.18.49,1.85.49h.98Zm26.47-27.78l.63,9.49h-.63c-.86-2.86-2.08-4.91-3.65-6.17-1.57-1.25-3.47-1.88-5.69-1.88-1.44,0-2.75.27-3.97.82-1.21.55-2.25,1.37-3.13,2.51-.87,1.12-1.55,2.53-2.04,4.23-.5,1.71-.74,3.71-.74,6.02,0,1.87.23,3.55.69,5.07.46,1.52,1.14,2.81,2.03,3.88.89,1.08,1.98,1.91,3.28,2.48,1.29.59,2.78.88,4.46.88s3.37-.39,4.8-1.18c1.37-.71,2.9-2.25,4.58-4.61l.65.4c-1.41,2.48-3.05,4.3-4.9,5.47-1.85,1.16-4.08,1.74-6.65,1.74-1.99,0-3.81-.35-5.47-1.05-1.66-.69-3.09-1.67-4.3-2.93-1.19-1.26-2.14-2.75-2.81-4.47-.68-1.73-1.02-3.64-1.02-5.7,0-2.81.63-5.36,1.88-7.68,1.24-2.33,2.95-4.13,5.14-5.4,2.22-1.29,4.62-1.94,7.21-1.94,2.03,0,4.03.49,5.98,1.48.57.3.98.46,1.22.46.46,0,.83-.19,1.13-.56.29-.36.5-.83.63-1.38h.69Zm11.49,2.14v11.06h6.11c.9,0,1.63-.08,2.18-.24.55-.17.98-.41,1.31-.73.31-.33.53-.74.66-1.25.12-.51.2-1.11.24-1.8h.76v9.68h-.76c-.1-.8-.22-1.47-.36-2-.12-.52-.35-.95-.64-1.27-.3-.33-.71-.55-1.25-.68-.53-.13-1.25-.2-2.15-.2h-6.11v9.22c0,.69.01,1.25.03,1.66.02.41.1.72.24.94.15.21.38.34.68.41.3.06.75.09,1.35.09h4.73c.8,0,1.47-.02,2.02-.06.56-.04,1.03-.13,1.42-.24.4-.12.76-.29,1.06-.51.31-.22.64-.49.98-.82.82-.8,1.69-2.1,2.61-3.87h.84l-2.45,7.01h-21.43v-.75h.97c.26,0,.53-.03.83-.09.28-.06.54-.15.8-.26.25-.12.48-.26.68-.44.2-.19.34-.4.43-.65.16-.45.24-1.35.24-2.7v-18.14c0-1.78-.17-2.88-.51-3.29-.49-.56-1.31-.83-2.47-.83h-.97v-.75h21.43v6.1h-.5c-.2-1.01-.42-1.81-.66-2.42-.23-.61-.55-1.07-.93-1.4-.39-.33-.88-.53-1.49-.63-.6-.09-1.37-.14-2.31-.14h-7.63Zm45.39,26.4h-7.41l-9.43-13.07c-.35.02-.67.03-.95.04-.27,0-.53.02-.77.02-.19,0-.38-.01-.59-.02-.21,0-.43-.02-.66-.04v8.13c0,.98.06,1.76.2,2.33.14.56.33.98.59,1.27.25.27.56.44.92.5.36.06.77.09,1.21.09h1.11v.75h-12.01v-.75h1.08c1.14,0,1.98-.38,2.51-1.14.29-.45.43-1.46.43-3.04v-18.04c0-1.72-.2-2.81-.59-3.26-.53-.62-1.32-.92-2.36-.92h-1.08v-.75h10.18c1.5,0,2.79.05,3.88.17,1.09.12,1.98.28,2.68.5.69.23,1.35.54,1.96.94.62.4,1.16.87,1.62,1.44.46.57.82,1.19,1.09,1.89.26.69.4,1.45.4,2.24,0,1.73-.56,3.23-1.66,4.47-1.1,1.24-2.83,2.14-5.19,2.66l5.74,8.01c.67.92,1.27,1.68,1.79,2.28.53.6,1.04,1.07,1.56,1.42.53.36,1.07.61,1.66.78.58.16,1.27.28,2.07.37v.75Zm-19.8-14.36c.27,0,.5,0,.69.02.2,0,.36,0,.48,0,1.33,0,2.5-.15,3.51-.46,1.01-.3,1.85-.74,2.53-1.29.68-.54,1.18-1.19,1.52-1.94.35-.74.51-1.56.51-2.44s-.15-1.65-.43-2.37c-.29-.72-.7-1.35-1.24-1.87-.53-.51-1.16-.92-1.9-1.21-.74-.28-1.55-.43-2.43-.43s-1.93.13-3.24.4v11.57Zm18.91-13.55h7.54l17.03,20.92v-16.08c0-.94-.06-1.69-.2-2.24-.14-.56-.33-.97-.59-1.23-.25-.27-.57-.44-.93-.51-.37-.07-.79-.11-1.26-.11h-.98v-.75h9.74v.75h-1.01c-.49,0-.92.04-1.29.13-.37.08-.67.26-.92.54-.24.29-.43.7-.54,1.24-.13.53-.19,1.26-.19,2.18v23.51h-.74l-18.37-22.46v17.21c0,.96.06,1.72.2,2.25.14.55.32.95.57,1.21.25.27.56.43.92.5.38.06.8.09,1.28.09h.98v.75h-9.74v-.75h.98c.5,0,.92-.04,1.29-.13.36-.08.68-.26.93-.53.26-.27.45-.68.57-1.22.12-.53.19-1.26.19-2.18v-19.42c-.41-.49-.74-.88-1.03-1.18-.27-.28-.53-.52-.77-.7-.24-.19-.51-.34-.8-.46-.29-.13-.64-.26-1.07-.4-.41-.13-1.01-.19-1.8-.19v-.75Zm46.3-.63c1.79,0,3.49.37,5.1,1.11,1.63.73,3.05,1.75,4.27,3.04,1.23,1.29,2.2,2.81,2.93,4.56.72,1.75,1.09,3.65,1.09,5.69s-.37,4.07-1.09,5.87c-.73,1.8-1.71,3.36-2.96,4.68-1.24,1.32-2.69,2.36-4.36,3.1-1.66.74-3.44,1.12-5.33,1.12s-3.69-.36-5.34-1.08c-1.66-.71-3.1-1.72-4.32-3.02-1.23-1.3-2.18-2.85-2.89-4.65-.7-1.8-1.06-3.79-1.06-5.96,0-2,.36-3.89,1.06-5.65.71-1.76,1.67-3.29,2.92-4.59,1.24-1.3,2.7-2.33,4.41-3.09,1.7-.76,3.55-1.13,5.55-1.13h0Zm-.41,1.51c-1.42,0-2.67.3-3.77.91-1.09.6-2.01,1.45-2.75,2.58-.76,1.11-1.32,2.47-1.71,4.05-.39,1.59-.59,3.37-.59,5.36s.19,3.76.57,5.4c.38,1.62.94,3.03,1.7,4.21.74,1.18,1.67,2.09,2.78,2.73,1.11.64,2.38.97,3.81.97,1.29,0,2.48-.24,3.57-.73,1.1-.49,2.05-1.26,2.88-2.29.82-1.04,1.45-2.36,1.92-3.96.46-1.61.69-3.53.69-5.76,0-2.12-.19-4-.57-5.67-.38-1.68-.95-3.09-1.73-4.24-.77-1.16-1.72-2.04-2.85-2.64-1.14-.61-2.45-.91-3.95-.91h0Z"/>
      <path class="cls-8" d="m146.3,271.32c-2.83-.12-5.6.06-8.28.52l-5.07,3.57,2.56,7.31c6.32-.59,11.19.84,15.06,3.64l13.86-4.39-3.11-6.93c-4.56-2.18-9.63-3.49-15-3.73h0Zm30.98,22.56c.12,2.82.12,5.44-.02,7.85-.15,2.43-.43,4.64-.84,6.65,2.17,3.46,3.2,7.19,3.32,11.14l2.4.38c.68-2.61,1.1-5.34,1.22-8.14.27-6.25-.95-12.22-3.35-17.56l-2.73-.32Zm-2.36,13.56c.33-1.77.56-3.7.69-5.81.15-2.56.15-5.36,0-8.42-2.35-3.72-6.03-7.25-9.81-9.94l-14.38,4.55c.09,3.86.29,7.64.56,11.37,2.52,1.63,4.95,3.43,7.24,5.45,2.15,1.9,4.19,4.01,6.07,6.34,3.22-.71,6.43-2,9.65-3.55h0Zm6.76,14.06l-2.21-.35c-2.02,6.01-4.9,9.65-8.52,11.23l-1.45,7.44c.45-.38.89-.76,1.32-1.16,5-4.58,8.81-10.47,10.86-17.16h0Zm-21.19,6.62c-2.76,1.67-5.51,3.03-8.25,4.07-2.81,1.06-5.61,1.78-8.4,2.13-1.22,2.12-1.96,5.06-3,7.61.92,1.26,1.9,2.42,2.96,3.43,1.32,1.27,2.76,2.31,4.35,3.09l-.12.26c7.22-.63,13.91-3.25,19.49-7.33l1.69-8.65c-2.97-.41-5.88-1.77-8.71-4.61h0Zm-17.39,4.63c2.84-.3,5.69-1.01,8.56-2.1,2.98-1.13,5.97-2.66,8.97-4.55,1.72-4.11,2.98-8.66,3.53-13.85-1.88-2.36-3.9-4.46-6.05-6.36-2.29-2.02-4.72-3.82-7.26-5.45-4.58.64-9.16,2.76-13.74,5.24-.93,2.81-1.77,5.69-2.45,8.69-.68,3.01-1.21,6.15-1.54,9.47,2.96,3.51,6,6.9,9.98,8.91h0Zm-17.59,7.72l-1.51,2.47c5.51,3.46,11.96,5.58,18.92,5.88.87.04,1.73.05,2.59.03-1.01-.66-1.97-1.43-2.86-2.29-1.18-1.13-2.26-2.42-3.27-3.83-4.59.73-9.28-.35-13.87-2.26h0Zm-2.89,1.56l1.71-2.79c-1.86-3.73-4.78-6.77-5.14-12.01-1.86-1.54-3.65-3.38-5.37-5.45-1.56-1.87-3.06-3.95-4.53-6.17l-2.32,3.82c1.58,6.37,4.74,12.14,9.06,16.85,1.97,2.15,4.19,4.08,6.6,5.75h0Zm-12.68-28.43c1.66,2.6,3.37,5,5.14,7.13,1.63,1.96,3.31,3.69,5.05,5.15,3.93.17,7.78-.28,11.35-2.23.33-3.37.88-6.57,1.58-9.64.63-2.76,1.37-5.41,2.2-7.97-3.29-2.72-6.17-6.26-8.73-10.49-2,.24-4.01.74-6.02,1.44-2.63.92-5.27,2.2-7.93,3.75l-.08-.14c-1.87,4.29-2.79,8.62-2.57,13h0Zm21.39-37.82c-1.01-.19-2.67-.51-3.51-.68-3.45,1.66-6.62,3.81-9.41,6.38-3.67,3.37-6.7,7.44-8.87,12.02l3.16,5.28c2.42-1.36,4.84-2.49,7.28-3.35,2.15-.75,4.3-1.28,6.46-1.53,2.13-4.29,4.53-8.03,7.56-10.53l-2.65-7.59Zm-14.81,3.63c7.85-7.19,18.44-11.39,29.9-10.89,11.47.5,21.66,5.61,28.85,13.45,7.19,7.85,11.39,18.44,10.89,29.9-.5,11.47-5.61,21.66-13.46,28.85-7.85,7.19-18.44,11.39-29.9,10.89-11.47-.5-21.66-5.61-28.85-13.45-7.19-7.85-11.39-18.44-10.89-29.9.5-11.47,5.6-21.66,13.45-28.85h0Z"/>
      <path class="cls-6" d="m109.53,293.5l3.16,5.28c2.42-1.36,4.84-2.49,7.28-3.35,2.15-.75,4.3-1.28,6.46-1.53,2.13-4.29,4.53-8.03,7.56-10.53l-2.65-7.59c-1.01-.19-2.67-.51-3.51-.68-3.45,1.66-6.62,3.81-9.41,6.38-3.67,3.37-6.7,7.44-8.87,12.02h0Z"/>
      <path class="cls-6" d="m135.5,282.72c6.32-.59,11.19.84,15.06,3.64l13.86-4.39-3.11-6.93c-4.56-2.18-9.63-3.49-15-3.73-2.83-.12-5.6.06-8.28.52l-5.07,3.57,2.56,7.31Z"/>
      <path class="cls-6" d="m151.41,287.82c.09,3.86.29,7.64.56,11.37,2.52,1.63,4.95,3.43,7.24,5.45,2.15,1.9,4.19,4.01,6.07,6.34,3.22-.71,6.43-2,9.65-3.55.33-1.77.56-3.7.69-5.81.15-2.56.15-5.36,0-8.42-2.35-3.72-6.03-7.25-9.81-9.94l-14.38,4.55Z"/>
      <path class="cls-6" d="m177.26,301.73c-.15,2.43-.43,4.64-.84,6.65,2.17,3.46,3.2,7.19,3.32,11.14l2.4.38c.68-2.61,1.1-5.34,1.22-8.14.27-6.25-.95-12.22-3.35-17.56l-2.73-.32c.12,2.82.12,5.44-.02,7.85h0Z"/>
      <path class="cls-6" d="m179.47,321.15c-2.02,6.01-4.9,9.65-8.52,11.23l-1.45,7.44c.45-.38.89-.76,1.32-1.16,5-4.58,8.81-10.47,10.86-17.16l-2.21-.35Z"/>
      <path class="cls-6" d="m142.65,346.56c-1.18-1.13-2.26-2.42-3.27-3.83-4.59.73-9.28-.35-13.87-2.26l-1.51,2.47c5.51,3.46,11.96,5.58,18.92,5.88.87.04,1.73.05,2.59.03-1.01-.66-1.97-1.43-2.86-2.29h0Z"/>
      <path class="cls-6" d="m140.83,341.93c.92,1.26,1.9,2.42,2.96,3.43,1.32,1.27,2.76,2.31,4.35,3.09l-.12.26c7.22-.63,13.91-3.25,19.49-7.33l1.69-8.65c-2.97-.41-5.88-1.77-8.71-4.61-2.76,1.67-5.51,3.03-8.25,4.07-2.81,1.06-5.61,1.78-8.4,2.13-1.22,2.12-1.96,5.06-3,7.61h0Z"/>
      <path class="cls-6" d="m124.32,339.24c-1.86-3.73-4.78-6.77-5.14-12.01-1.86-1.54-3.65-3.38-5.37-5.45-1.56-1.87-3.06-3.95-4.53-6.17l-2.32,3.82c1.58,6.37,4.74,12.14,9.06,16.85,1.97,2.15,4.19,4.08,6.6,5.75l1.71-2.79Z"/>
      <path class="cls-6" d="m133.12,323.84c2.96,3.51,6,6.9,9.98,8.91,2.84-.3,5.69-1.01,8.56-2.1,2.98-1.13,5.97-2.66,8.97-4.55,1.72-4.11,2.98-8.66,3.53-13.85-1.88-2.36-3.9-4.46-6.05-6.36-2.29-2.02-4.72-3.82-7.26-5.45-4.58.64-9.16,2.76-13.74,5.24-.93,2.81-1.77,5.69-2.45,8.69-.68,3.01-1.21,6.15-1.54,9.47h0Z"/>
      <path class="cls-6" d="m120.13,325.88c3.93.17,7.78-.28,11.35-2.23.33-3.37.88-6.57,1.58-9.64.63-2.76,1.37-5.41,2.2-7.97-3.29-2.72-6.17-6.26-8.73-10.49-2,.24-4.01.74-6.02,1.44-2.63.92-5.27,2.2-7.93,3.75l-.08-.14c-1.87,4.29-2.79,8.62-2.57,13,1.66,2.6,3.37,5,5.14,7.13,1.63,1.96,3.31,3.69,5.05,5.15h0Z"/>
      <path class="cls-5" d="m99.36,168.6c17.96-7.07,73.75-6.23,90.37.26v17.52c-13.45-6.76-74.7-7.02-90.36-.13v-17.64Z"/>
      <path class="cls-5" d="m112.06,249.13h.78c2.64,0,4.79,2.16,4.79,4.79v20.66h-10.36v-20.66c0-2.64,2.16-4.79,4.79-4.79h0Zm25.69-5.73v-23.98c0-3.36,2.75-6.12,6.12-6.12h1.33c3.36,0,6.11,2.75,6.11,6.12v23.98h-13.56Zm45.14,50.42l-.06-94.65,4.11-6.56c-12.63-4.61-67.55-5.62-84.76-.08l3.98,7.08-.02,94.63c2.34-5.7,5.92-10.74,10.37-14.82,7.85-7.19,18.44-11.39,29.9-10.89,11.47.5,21.66,5.61,28.85,13.45,3.18,3.46,5.77,7.46,7.63,11.84h0Z"/>
      <path class="cls-8" d="m112.84,249.13h-.78c-2.64,0-4.79,2.16-4.79,4.79v20.66h10.36v-20.66c0-2.64-2.16-4.79-4.79-4.79h0Z"/>
      <g class="cls-1">
        <path class="cls-8" d="m137.75,219.42v23.98h13.56v-23.98c0-3.36-2.75-6.12-6.11-6.12h-1.33c-3.36,0-6.12,2.75-6.12,6.12h0Z"/>
        <path class="cls-4" d="m144.69,399.22c17.29-10.84,33.11-24.13,47.47-39.96,14.85-16.37,28.16-35.46,39.96-57.36,10.36-19.24,19.21-39.5,26.59-60.83,7.39-21.36,13.32-43.85,17.83-67.57,3.55-18.65,5.96-37.65,6.46-57.13.29-11.29-.06-22.76-1.19-34.44h-.25c-.59.04-1.19.07-1.62.27-.37.17-.71.62-1.05,1.07-.24.31-.47.62-.77.91-.57.58-1.28.54-1.96.27-.42-.17-.8-.42-1.05-.59-.37-.26-.71-.53-1.04-.8-.6-.49-1.19-.97-1.81-1.16-.31-.09-.67-.11-1.02-.05-.34.06-.65.18-.89.36-.65.49-1.22.89-1.77,1.29-.88.63-1.72,1.23-2.57,1.91-1.08.88-2.26.85-3.38.82h0c-.22,0-.43-.01-.62,0-1.3.02-2.56-.09-3.82-.2-1.39-.12-2.78-.25-4.16-.17-.4.02-.8.08-1.18.19-.3.09-.57.21-.81.37-.37.25-.78.44-1.21.56-.45.13-.91.19-1.36.19s-.93-.03-1.41-.14c-.51-.11-1.01-.3-1.48-.63-.51-.36-1.03-.71-1.59-1.06-.53-.33-1.07-.65-1.6-.92l-.21-.1h0c-.69-.35-1.42-.71-2.07-.74-.42-.02-.86.04-1.29.14-.45.11-.9.27-1.34.47-.33.15-.78.27-1.21.3-.3.02-.6-.01-.88-.12-.39-.15-.72-.41-.9-.83-.08-.17-.12-.36-.13-.58-.1-1.76-.14-3.41-.14-5.04,0-1.63.06-3.2.14-4.83.03-.72.25-1.33.46-1.93.05-.15.11-.31.15-.45.11-.34.26-.62.41-.89.14-.27.29-.53.29-.68h0c0-.21-.06-.43-.15-.63-.07-.16-.17-.3-.29-.4-.4-.33-.86-.58-1.34-.77-.52-.2-1.06-.31-1.61-.36-1.39-.1-2.8-.18-4.17-.19-1.37-.01-2.77.03-4.15.15-.32.03-.63.16-.91.36-.35.25-.65.59-.87.97-.26.43-.03.99.22,1.6.11.26.22.53.3.78h0l.08.24c.22.64.44,1.29.46,2.06.02.76.05,1.56.09,2.35.11,2.39.22,4.68-.29,7.19-.11.55-.48,1.12-.94,1.45-.19.14-.41.25-.64.31-.26.07-.53.09-.82.03-.43-.09-.83-.33-1.16-.78h0s-.27-.38-.27-.38c-.64-.89-1.1-1.53-1.92-2.2-.16-.13-.36-.23-.59-.3h0c-.28-.08-.57-.14-.85-.17-.51-.05-1.03-.08-1.53-.06-.45.02-.91.07-1.36.17-.39.08-.79.32-1.2.55h0c-.24.14-.48.28-.74.41-.09.05-.21.12-.32.19-.33.21-.65.41-1.11.51-.45.1-.83.07-1.22.04-.2-.01-.4-.03-.53-.02-.2.02-.41.05-.63.09-.19.04-.36.08-.53.15-.2.08-.43.23-.66.37-.39.26-.78.51-1.31.66-.1.03-.28.09-.47.15-.95.31-1.95.64-3.05.15-.14-.06-.4-.13-.67-.2-.39-.1-.78-.21-1.09-.36-1.2-.57-2.05-.54-3.21-.5h-.2c-.39.02-.79.11-1.18.25-.43.15-.85.37-1.23.63-.9.62-1.79,1.1-2.69,1.51-.85.39-1.74.74-2.65,1.09-.36.14-.73.2-1.1.22-.34.01-.68-.02-.99-.07-.44-.07-.68-.28-.91-.48-.17,0-.34,0-.49.01-.09.02-.15.03-.17.04-.32.31-.63.58-.95.82-.32.24-.66.46-1.03.66-.3.17-.62.33-.96.46-.38.15-.77.25-1.18.29-1.25.1-2.54.08-3.82.06-1.4-.02-2.8-.05-4.19.11-.27.03-.54.12-.8.25-.29.14-.58.33-.86.54-.25.19-.48.5-.71.82-.23.31-.45.62-.75.92-.41.41-.9.66-1.41.79-.45.12-.92.15-1.35.13-.72-.02-1.34-.24-1.96-.45-.47-.16-.94-.33-1.35-.33h-.33s0,0,0,0c-1.38-.03-2.86-.07-3.96.5-.66.34-1.37.85-2.09,1.37-.53.38-1.07.77-1.65,1.13-.04.02-.11.08-.18.13-.41.29-.84.58-1.52.56-.61-.02-1.08-.22-1.56-.41-.29-.12-.57-.23-.78-.26-.54-.05-1.08-.08-1.62-.06-.48.01-.97.06-1.46.14-.67.12-1.35.36-2.03.61-1.05.38-2.08.75-3.27.8-1.8.07-3.62.11-5.43,0-1.85-.1-3.68-.34-5.46-.83-1.45-.39-2.52-1.29-3.6-2.19-.63-.52-1.25-1.05-1.9-1.41-.21-.12-.44-.22-.69-.27-.17-.04-.34-.06-.49-.04-.34.05-.74.29-1.13.54-.15.09-.3.19-.49.29-.52.29-1.09.38-1.65.34-.58-.05-1.16-.24-1.64-.51-.46-.26-.86-.54-1.25-.82-.63-.44-1.25-.88-1.89-1.04-.53-.13-1.24.08-1.93.29-.22.07-.44.13-.52.16-.48.14-1.03.16-1.54.09-.55-.07-1.08-.25-1.48-.5-.25-.15-.4-.26-.56-.38h0c-.28-.2-.56-.4-.79-.48-.26-.09-.55-.14-.84-.15-.32-.01-.65.02-.98.09-.74.16-1.52.26-2.26.25-.82-.02-1.6-.19-2.27-.58-.52-.31-.93-.66-1.35-1.02-.15-.14-.31-.27-.51-.43-.51-.41-1.1-.63-1.71-.76-.68-.14-1.43-.17-2.16-.19-.48-.01-.93-.12-1.33-.3-.44-.19-.83-.46-1.16-.77-.36-.33-.71-.72-1.07-1.11-.44-.48-.89-.97-1.46-1.43-.13-.11-.33-.15-.57-.16-.32,0-.65.08-.89.22-.42.23-.82.62-1.22,1-.14.13-.28.26-.38.35-.85.77-1.7.81-2.49.51-.63-.24-1.14-.72-1.53-1.16-.39-.44-.71-.93-1.04-1.42-.21-.31-.42-.63-.63-.91-.1.02-.2.06-.28.11-.26.15-.54.34-.82.54h0c-.42.29-.83.58-1.29.8h0c-.2.09-.42.14-.63.15-.42.02-.84-.13-1.2-.41-.3-.23-.57-.55-.76-.95-.17-.35-.28-.78-.29-1.26-.07-2.3,0-4.56.08-6.82.06-1.74.12-3.48.11-5.19,0-.43-.29-1.01-.54-1.53h0l-.03-.05h0c-.4-.82-.91-1.57-1.43-2.33l-.02-.04c-.13.17-.25.34-.37.5-.64.86-1.28,1.72-1.59,2.65-.29.85-.29,1.85-.29,2.84,0,.67,0,1.35-.07,2.01-.03.3-.08.61-.13.91-.06.32-.14.63-.24.94-.11.32-.26.58-.41.84-.1.17-.2.33-.22.45-.03.15,0,.47.02.78.09.99.19,2-.77,2.66-1.15.79-1.79.02-2.47-.79-.16-.19-.33-.39-.35-.4-.26-.09-.52-.18-.78-.23-.21-.04-.41-.06-.58-.03-.52.08-1,.05-1.45-.05-.41-.09-.78-.22-1.13-.37-.63-.26-1.44-.37-2.23-.49-.55-.08-1.1-.16-1.66-.29-.81-.19-1.59-.28-2.36-.27-.78,0-1.58.09-2.41.22-.35.06-.7.14-1.04.22-.78.19-1.56.37-2.41.34-.65-.03-1.27-.09-1.86-.15-1.09-.11-2.12-.21-3.15-.06-.79.12-1.55.31-2.17.65-.56.3-1.02.73-1.3,1.32-.28.6-.23,1.42-.18,2.24.05.8.09,1.59-.09,2.43-.2.93-.67,1.62-1.47,2.06-.7.38-1.61.51-2.78.35-1.54-.21-2.77-.27-3.91-.15-1.11.11-2.17.4-3.38.88-.85.33-1.16.46-1.49.59-1.82.73-3.64,1.47-5.55,2.06-.91.29-1.87.29-2.81.13-.89-.15-1.77-.46-2.58-.84-.49-.22-.95-.47-1.42-.72-.87-.47-1.75-.94-2.64-1.13-.53-.11-1.08-.14-1.64-.1-.57.03-1.16.14-1.74.27-.45.11-.85.24-1.25.37h0c-.93.31-1.86.62-2.94.61-1.19,0-2.21-.09-3.23-.18-.3-.03-.59-.05-.87-.08-.74,9.86-.91,19.57-.63,29.15.58,19.43,3.07,38.38,6.62,57.04,4.51,23.68,10.37,46.24,17.69,67.69,7.31,21.42,16.08,41.72,26.42,60.93,11.6,21.53,24.83,40.3,39.48,56.47,14.69,16.22,30.79,29.86,48.08,41.06h0ZM281.59,79.81c-.73-6.89-1.73-13.86-3.03-20.9-27.3.88-52.32-2.55-74.83-10.7-22.32-8.08-42.15-20.79-59.26-38.5-17.11,17.71-36.87,30.35-59.13,38.38-22.44,8.09-47.38,11.47-74.67,10.58-1.63,8.82-2.77,17.5-3.48,26.07.32.02.6.05.89.07,1.02.09,2.04.18,3.05.19.7,0,1.48-.25,2.26-.51h0c.49-.16.98-.32,1.43-.43.67-.16,1.38-.28,2.11-.33.74-.05,1.49,0,2.21.15,1.18.26,2.19.8,3.21,1.34.43.23.87.46,1.3.66.66.3,1.36.55,2.05.67.64.11,1.26.11,1.82-.06,1.8-.56,3.59-1.28,5.38-2,.66-.27,1.35-.54,1.5-.6,1.38-.55,2.62-.87,3.96-1.01,1.32-.13,2.7-.07,4.4.16.7.1,1.18.05,1.47-.11.2-.11.33-.33.4-.63.12-.54.08-1.19.04-1.85-.06-1.09-.13-2.18.39-3.27.49-1.05,1.27-1.78,2.21-2.29.88-.48,1.88-.75,2.89-.9,1.26-.19,2.42-.07,3.65.05.57.05,1.15.11,1.75.14.57.02,1.2-.13,1.83-.28.4-.1.8-.19,1.19-.26.93-.15,1.83-.25,2.76-.25.94,0,1.88.09,2.86.33.43.1.95.18,1.46.25.92.13,1.85.26,2.75.63.24.1.5.2.77.25.22.05.45.07.67.03.46-.07.9-.04,1.32.04.38.07.74.19,1.08.31.28.1.51.26.72.45-.03-.4-.05-.79.04-1.16.1-.43.28-.74.46-1.05.09-.15.18-.3.22-.42.07-.22.13-.45.17-.68.05-.25.08-.5.11-.75.06-.58.06-1.18.06-1.77,0-1.18,0-2.35.4-3.53.43-1.25,1.16-2.24,1.9-3.24.32-.43.64-.86.94-1.33.12-.19.27-.34.44-.45.22-.14.46-.21.72-.21s.49.07.71.21c.18.11.33.27.46.46.23.36.43.65.62.94.57.84,1.14,1.68,1.59,2.59h0l.03.05h0c.35.72.75,1.52.75,2.47,0,1.78-.05,3.52-.11,5.27-.08,2.23-.15,4.46-.08,6.69h0c0,.15.04.29.09.4l.02.04c.24-.14.47-.3.7-.46h0c.31-.22.63-.45,1.01-.66.37-.21.89-.39,1.38-.4.55-.02,1.08.15,1.46.63.36.45.64.86.9,1.26.28.43.56.84.86,1.19.22.25.47.5.7.58.07.03.16,0,.27-.1.15-.13.25-.23.35-.33.5-.47.99-.94,1.63-1.3.57-.32,1.29-.5,1.99-.49.69.01,1.37.21,1.89.64.63.52,1.15,1.08,1.67,1.64.31.33.61.66.96.99.17.15.36.29.56.37.17.08.35.12.54.13.82.02,1.67.06,2.52.23.92.19,1.81.53,2.62,1.18.18.14.38.32.58.48.34.29.67.58,1.04.8.33.19.75.28,1.22.29.55.01,1.16-.08,1.77-.21.48-.1.98-.15,1.49-.13.49.02.97.1,1.44.26.55.18.96.48,1.37.77h0c.17.12.34.24.43.3.15.09.37.16.63.19.24.03.48.03.68-.03.25-.07.36-.11.48-.14.97-.3,1.96-.6,3.06-.33,1.02.26,1.81.81,2.61,1.37.36.25.72.51,1.07.71.22.12.49.22.75.24h0c.17.01.32,0,.43-.06.11-.06.26-.16.42-.26.59-.36,1.19-.73,1.97-.84.43-.06.86-.02,1.27.07.43.1.85.28,1.23.49.84.46,1.54,1.05,2.23,1.64.9.75,1.79,1.5,2.77,1.76,1.63.44,3.32.66,5.03.76,1.74.1,3.51.06,5.24,0,.84-.03,1.73-.36,2.61-.68.78-.28,1.56-.56,2.41-.71.57-.1,1.17-.15,1.77-.17.63-.01,1.26.01,1.88.07.54.06.96.23,1.38.4.31.12.61.25.83.26.05,0,.09-.09.21-.18.08-.06.16-.11.28-.18.49-.3,1.01-.68,1.53-1.05.78-.56,1.55-1.11,2.35-1.53,1.58-.82,3.34-.78,5-.74h.33c.74.02,1.38.24,2,.46.46.16.93.32,1.33.33.25,0,.51,0,.74-.07.17-.05.32-.12.43-.23.18-.18.36-.43.54-.67.33-.44.65-.89,1.15-1.26.36-.27.76-.54,1.21-.76.47-.23.98-.4,1.5-.46,1.49-.17,2.97-.15,4.46-.12,1.2.02,2.41.04,3.62-.06.19-.02.39-.07.58-.14.23-.09.46-.21.69-.34.26-.15.53-.32.79-.51.26-.19.5-.4.73-.63.39-.39.87-.56,1.38-.63.39-.05.76-.04,1.09-.02.54.03.81.26,1.08.5h0s0,0,0,0h0s0,0,0,0h0s0,0,0,0c.15.02.3.03.44.03.15,0,.29-.03.41-.07.86-.33,1.69-.66,2.52-1.04.8-.37,1.59-.8,2.37-1.34.53-.36,1.11-.66,1.73-.88.58-.2,1.19-.33,1.82-.36h.2c1.47-.06,2.55-.1,4.21.69.15.07.44.15.72.22.35.09.69.18.98.31.36.16.96-.04,1.54-.23.15-.05.3-.1.54-.17.22-.06.49-.24.75-.41.32-.2.63-.41,1.04-.57.29-.12.59-.2.89-.26.26-.05.55-.09.84-.12.34-.04.62-.01.9,0,.23.02.45.04.59,0,.1-.02.26-.12.42-.23.16-.1.32-.2.51-.29.19-.1.4-.22.61-.34h0c.56-.32,1.12-.65,1.81-.8.56-.12,1.14-.19,1.73-.22.62-.02,1.24,0,1.84.07.42.05.86.12,1.28.25.47.15.91.37,1.3.68,1.01.83,1.55,1.58,2.3,2.61l.02.03c.42-2.19.32-4.3.22-6.51-.04-.77-.07-1.55-.09-2.41,0-.42-.18-.91-.35-1.4l-.08-.24h0c-.08-.24-.17-.45-.25-.66-.46-1.11-.88-2.16-.08-3.51.37-.62.88-1.2,1.48-1.63.58-.4,1.24-.68,1.96-.74,1.39-.12,2.86-.16,4.35-.15,1.49.01,2.94.09,4.31.19.75.05,1.5.22,2.21.49.68.26,1.33.63,1.92,1.1.39.32.69.73.9,1.19.21.46.32.97.33,1.46.02.72-.26,1.23-.53,1.74-.1.19-.21.39-.26.54-.06.17-.12.34-.17.5-.16.46-.33.92-.35,1.32-.08,1.62-.13,3.17-.13,4.72,0,1.39.02,2.82.1,4.36.05-.01.1-.04.15-.05.53-.24,1.1-.44,1.7-.59.61-.15,1.25-.23,1.88-.2,1.11.05,2.05.52,2.94.97l.2.1c.63.32,1.22.66,1.79,1.02.55.35,1.11.73,1.67,1.12.2.14.44.23.71.29.3.06.63.09.95.09.26,0,.52-.03.76-.1.22-.06.42-.15.6-.28.44-.3.92-.51,1.42-.66h0c.55-.16,1.12-.24,1.66-.27,1.51-.08,2.99.05,4.47.18,1.2.11,2.41.21,3.6.19.25,0,.48,0,.71,0,.74.02,1.51.04,1.97-.34.91-.74,1.78-1.35,2.68-2,.58-.41,1.17-.83,1.73-1.25.53-.39,1.17-.65,1.83-.76.66-.11,1.36-.07,1.99.12,1.03.31,1.78.92,2.54,1.54.3.24.6.49.91.7.14.09.32.22.5.31.12-.14.23-.29.35-.44.5-.65,1.01-1.31,1.86-1.7.82-.38,1.62-.42,2.43-.46h.12Zm-208.43-3.19c-.14.12-.23.2-.02.05.02-.01.02-.03.02-.05h0Zm113.09,9.29h0s0,0,0,0h0Zm1.4-1.61h0s-.26-.04-.12-.02c.04,0,.08.01.12.02h0Zm9.14,279.17c-15.23,16.78-32.05,30.79-50.48,42.11l-1.66,1.02-1.66-1.06c-18.38-11.69-35.48-26.04-51.02-43.2-15-16.57-28.54-35.75-40.36-57.7-10.51-19.52-19.42-40.14-26.84-61.88-7.41-21.71-13.34-44.55-17.91-68.55C3.26,155.3.73,136.03.13,116.2c-.6-19.87.74-40.26,4.88-61.36l.52-2.64,2.68.11c27.56,1.17,52.63-2.03,75.02-10.11,22.3-8.04,42.01-20.94,58.95-39.18l2.3-2.47,2.29,2.47c16.94,18.24,36.72,31.2,59.1,39.3,22.46,8.13,47.59,11.4,75.15,10.23l2.68-.12.52,2.64c4.13,21.09,5.56,41.53,5.04,61.45-.51,19.89-2.96,39.21-6.56,58.14-4.56,23.97-10.58,46.76-18.08,68.45-7.51,21.71-16.49,42.28-26.98,61.76-12.04,22.35-25.65,41.86-40.84,58.61h0Z"/>
      </g>
      <path class="cls-7" d="m79.2,311.86v-168.1l-57.77-.07c8.46,62.12,27.18,119.79,57.77,168.18h0Z"/>
      <path class="cls-7" d="m208.83,143.92v170.07c29.89-46.1,50.86-103.8,58.27-170l-58.27-.07Z"/>
      <path class="cls-7" d="m115.58,163.06c14.66-1.78,41.48-2.2,58.62-.17v-19.02l-58.62-.07v19.26Z"/>
      <path class="cls-7" d="m172.7,340.73c-7.85,7.19-18.44,11.39-29.9,10.89-10.63-.46-20.15-4.88-27.21-11.77v19.02c8.93,9.44,18.5,18.32,28.75,26.56,10.42-8.15,20.41-17.25,29.88-27.25v-18.9c-.49.5-.99.98-1.51,1.45h0Z"/>
      <path class="cls-8" d="m186.89,192.58l2.84-6.21c-13.45-6.76-74.7-7.02-90.36-.13l2.85,6.26c17.23-5.51,71.94-4.51,84.67.08h0Z"/>
      <path class="cls-9" d="m186.89,192.58l2.84-6.21c-13.45-6.76-74.7-7.02-90.36-.13l2.85,6.26c17.23-5.51,71.94-4.51,84.67.08h0Z"/>
      <path class="cls-3" d="m106.14,294.23l.02-94.63-3.98-7.08s.03,0,.04-.02l-2.85-6.26v-17.64c17.95-7.07,73.74-6.23,90.36.26v17.52s-2.84,6.21-2.84,6.21c.02,0,.04.01.06.02l-4.11,6.56.06,94.65c2.35,5.53,3.54,11.66,3.26,18.07-.47,10.72-4.96,20.32-11.95,27.4v18.9c-9.47,10-19.46,19.11-29.87,27.25-10.25-8.24-19.82-17.12-28.75-26.56v-19.02c-.56-.55-1.11-1.11-1.64-1.69-7.19-7.85-11.39-18.44-10.89-29.9.22-4.96,1.29-9.69,3.08-14.03h0Zm112.56-159.56h-9.74v-.75h.98c.5,0,.92-.04,1.29-.13.36-.08.68-.26.93-.53.26-.27.45-.68.57-1.22.12-.53.19-1.26.19-2.18v-19.42c-.41-.49-.74-.88-1.03-1.18-.27-.28-.53-.52-.77-.7-.24-.19-.51-.34-.8-.46-.29-.13-.64-.26-1.07-.4-.41-.13-1.01-.19-1.8-.19v-.75h7.54l17.03,20.92v-16.08c0-.94-.06-1.69-.2-2.24-.14-.56-.33-.97-.59-1.23-.25-.27-.57-.44-.93-.51-.37-.07-.79-.11-1.26-.11h-.98v-.75h9.74v.75h-1.01c-.49,0-.92.04-1.29.13-.37.08-.67.26-.92.54-.24.29-.43.7-.54,1.24-.13.53-.19,1.26-.19,2.18v23.51h-.74l-18.37-22.46v17.21c0,.96.06,1.72.2,2.25.14.55.32.95.57,1.21.25.27.56.43.92.5.38.06.8.09,1.28.09h.98v.75Zm-44.49,28.22c-17.15-2.03-43.97-1.61-58.62.17v-19.26l58.62.07v19.02Zm18.35-28.22h-12.01v-.75h1.08c1.14,0,1.98-.38,2.51-1.14.29-.45.43-1.46.43-3.04v-18.04c0-1.72-.2-2.81-.59-3.26-.53-.62-1.32-.92-2.36-.92h-1.08v-.75h10.18c1.5,0,2.79.05,3.88.17,1.09.12,1.98.28,2.68.5.69.23,1.35.54,1.96.94.62.4,1.16.87,1.62,1.44.46.57.82,1.19,1.09,1.89.26.69.4,1.45.4,2.24,0,1.73-.56,3.23-1.66,4.47-1.1,1.24-2.83,2.14-5.19,2.66l5.74,8.01c.67.92,1.27,1.68,1.79,2.28.53.6,1.04,1.07,1.56,1.42.53.36,1.07.61,1.66.78.58.16,1.27.28,2.07.37v.75h-7.41l-9.43-13.07c-.35.02-.67.03-.95.04-.27,0-.53.02-.77.02-.19,0-.38-.01-.59-.02-.21,0-.43-.02-.66-.04v8.13c0,.98.06,1.76.2,2.33.14.56.33.98.59,1.27.25.27.56.44.92.5.36.06.77.09,1.21.09h1.11v.75Zm25.74-53.74c-.16-.13-.36-.23-.59-.3h0c-.28-.08-.57-.14-.85-.17-.51-.05-1.03-.08-1.53-.06-.45.02-.91.07-1.36.17-.39.08-.79.32-1.2.56-.24.14-.48.28-.74.4-.09.05-.21.12-.32.19-.33.21-.65.41-1.11.51-.45.1-.83.07-1.22.04-.2-.01-.4-.03-.53-.02-.2.02-.41.05-.63.09-.19.04-.36.08-.53.15-.2.08-.43.23-.66.37-.39.26-.78.51-1.31.66l-.47.15c-.95.31-1.95.64-3.05.15-.14-.06-.4-.13-.67-.2-.39-.11-.78-.21-1.09-.36-1.2-.57-2.05-.54-3.22-.5h-.2c-.39.02-.79.11-1.18.25-.43.15-.85.37-1.23.63-.91.62-1.79,1.1-2.69,1.51-.85.39-1.74.74-2.65,1.09-.36.14-.73.2-1.1.22-.34.01-.68-.02-.99-.07-.44-.07-.68-.28-.91-.48-.17,0-.34,0-.49.01-.09.01-.15.03-.17.04-.32.31-.63.58-.95.82-.32.24-.66.46-1.03.66-.3.17-.62.33-.96.46-.38.15-.77.25-1.18.29-1.25.1-2.54.08-3.82.06-1.4-.02-2.8-.05-4.19.11-.27.03-.54.12-.8.25-.29.14-.58.33-.86.54-.25.19-.48.5-.71.82-.23.31-.45.62-.75.92-.41.41-.9.66-1.41.79-.45.12-.91.15-1.35.13-.72-.02-1.34-.24-1.96-.45-.47-.16-.94-.33-1.35-.33h-.33s0,0,0,0c-1.38-.03-2.86-.07-3.96.5-.66.34-1.37.85-2.09,1.37-.53.38-1.07.77-1.65,1.13l-.18.13c-.41.29-.84.58-1.52.56-.61-.02-1.08-.22-1.56-.41-.29-.12-.57-.23-.78-.26-.54-.05-1.08-.08-1.62-.06-.48.01-.97.06-1.46.14-.67.12-1.35.36-2.03.61-1.05.38-2.08.75-3.27.8-1.8.07-3.62.11-5.43,0-1.85-.1-3.68-.34-5.46-.83-1.45-.39-2.52-1.29-3.6-2.19-.63-.52-1.25-1.05-1.9-1.41-.21-.12-.44-.22-.69-.27-.17-.04-.34-.06-.49-.04-.34.05-.74.29-1.13.54-.15.09-.3.19-.49.29-.52.29-1.09.38-1.65.34-.58-.05-1.16-.24-1.64-.51-.46-.26-.86-.54-1.25-.82-.63-.44-1.25-.88-1.89-1.04-.53-.13-1.24.08-1.93.29l-.52.16c-.48.14-1.03.16-1.54.09-.55-.07-1.08-.25-1.48-.5-.25-.15-.4-.26-.56-.38h0c-.28-.2-.56-.4-.79-.48-.26-.09-.55-.14-.84-.15-.32-.01-.65.02-.98.09-.74.16-1.52.26-2.26.25-.82-.02-1.6-.19-2.27-.58-.52-.31-.93-.66-1.35-1.02-.15-.14-.31-.27-.51-.43-.51-.41-1.1-.63-1.71-.76-.68-.14-1.43-.17-2.16-.19-.48-.01-.93-.12-1.33-.3-.44-.19-.83-.46-1.16-.77-.36-.33-.71-.72-1.07-1.11-.44-.48-.89-.97-1.46-1.43-.13-.11-.33-.15-.57-.16-.32,0-.65.08-.89.22-.42.23-.82.62-1.22,1l-.38.35c-.85.77-1.7.81-2.49.51-.63-.24-1.14-.72-1.53-1.16-.39-.44-.71-.93-1.04-1.42-.21-.31-.42-.63-.63-.91-.1.02-.2.06-.28.11-.26.15-.54.34-.82.54h0c-.42.29-.83.58-1.29.8h0c-.2.09-.42.14-.63.15-.42.02-.84-.13-1.2-.41-.3-.23-.57-.55-.76-.95-.17-.35-.28-.78-.29-1.26-.07-2.3,0-4.56.08-6.82.06-1.74.12-3.48.11-5.19,0-.43-.29-1.01-.54-1.53h0l-.03-.05h0c-.4-.82-.91-1.57-1.43-2.33l-.02-.04-.37.5c-.64.86-1.28,1.72-1.59,2.65-.29.85-.29,1.85-.29,2.84,0,.67,0,1.35-.07,2.01-.03.3-.08.61-.13.91-.06.32-.14.63-.24.94-.11.32-.26.58-.41.84-.1.17-.2.33-.22.45-.03.15,0,.47.02.78.09.99.19,2-.77,2.66-1.15.79-1.79.02-2.47-.79-.16-.19-.33-.39-.35-.4-.26-.09-.52-.18-.78-.23-.21-.04-.41-.06-.58-.03-.52.08-1,.05-1.45-.05-.41-.09-.78-.22-1.13-.37-.63-.26-1.44-.37-2.23-.49-.55-.08-1.1-.16-1.66-.29-.81-.19-1.59-.28-2.36-.27-.78,0-1.58.09-2.41.22-.35.06-.7.14-1.04.22-.78.19-1.56.37-2.41.34-.65-.03-1.27-.09-1.86-.15-1.09-.11-2.12-.21-3.15-.06-.79.12-1.55.31-2.17.65-.56.3-1.02.73-1.3,1.32-.28.6-.23,1.42-.18,2.24.05.8.09,1.59-.09,2.43-.2.93-.67,1.62-1.47,2.06-.7.38-1.61.51-2.78.35-1.54-.21-2.77-.27-3.91-.15-1.11.11-2.17.4-3.38.88l-1.49.59c-1.82.73-3.64,1.47-5.55,2.06-.91.29-1.87.29-2.81.13-.89-.15-1.77-.46-2.58-.84-.49-.22-.95-.47-1.42-.72-.87-.47-1.75-.94-2.64-1.13-.53-.11-1.08-.14-1.64-.1-.57.03-1.16.14-1.74.27-.45.11-.85.24-1.25.37h0c-.93.31-1.86.62-2.94.61-1.19,0-2.21-.09-3.23-.18l-.87-.08c-.74,9.86-.91,19.57-.63,29.15.58,19.43,3.07,38.38,6.62,57.04,4.51,23.68,10.37,46.24,17.69,67.69,7.31,21.42,16.08,41.72,26.42,60.93,11.6,21.53,24.83,40.3,39.48,56.47,14.69,16.22,30.79,29.86,48.08,41.06,17.29-10.84,33.11-24.13,47.47-39.96,14.85-16.37,28.16-35.46,39.96-57.36,10.36-19.24,19.21-39.5,26.59-60.83,7.39-21.36,13.32-43.86,17.83-67.57,3.55-18.65,5.96-37.65,6.46-57.13.29-11.29-.06-22.76-1.19-34.44h-.25c-.59.04-1.19.07-1.61.27-.37.17-.71.62-1.06,1.07-.24.31-.47.62-.77.91-.57.58-1.28.54-1.96.27-.42-.16-.8-.41-1.04-.59-.38-.26-.71-.53-1.04-.8-.6-.49-1.19-.97-1.81-1.16-.31-.09-.67-.11-1.02-.05-.34.06-.65.18-.89.36-.65.49-1.22.89-1.77,1.29-.88.63-1.72,1.23-2.57,1.91-1.08.88-2.26.85-3.38.82h0c-.22,0-.43-.01-.62,0-1.3.02-2.56-.09-3.82-.2-1.39-.12-2.78-.25-4.17-.17-.4.02-.8.08-1.18.19-.29.09-.57.21-.81.37-.37.25-.79.44-1.22.56-.45.13-.91.19-1.36.19s-.93-.03-1.41-.14c-.51-.11-1.01-.31-1.48-.63-.51-.36-1.03-.71-1.59-1.06-.53-.33-1.07-.65-1.6-.92l-.21-.1h0c-.69-.35-1.42-.72-2.07-.74-.42-.02-.86.04-1.29.14-.45.11-.9.28-1.34.47-.32.14-.77.27-1.21.3-.3.02-.6-.01-.88-.12-.39-.15-.71-.41-.9-.83-.08-.17-.12-.36-.13-.58-.1-1.76-.14-3.41-.13-5.04,0-1.63.05-3.2.13-4.83.03-.72.25-1.33.46-1.93l.15-.45c.11-.33.26-.61.41-.89.15-.27.29-.53.29-.68h0c0-.21-.05-.43-.15-.63-.07-.16-.17-.3-.29-.39-.4-.33-.86-.58-1.34-.77-.52-.2-1.06-.31-1.61-.36-1.39-.1-2.8-.18-4.17-.19-1.37-.01-2.77.03-4.15.15-.32.03-.63.16-.91.36-.35.25-.65.59-.87.97-.26.43-.02.99.22,1.6.11.26.22.53.3.78l.08.24c.22.64.44,1.29.46,2.06.02.76.05,1.56.09,2.35.11,2.39.22,4.68-.29,7.19-.11.55-.48,1.12-.94,1.45-.19.14-.41.25-.64.31-.26.07-.53.09-.82.03-.43-.09-.83-.33-1.16-.78h0s-.27-.38-.27-.38c-.64-.89-1.1-1.53-1.92-2.2h0Zm-9.47,233.06v-170.07l58.27.07c-7.41,66.2-28.38,123.9-58.27,170h0ZM79.2,143.76v168.1c-30.6-48.39-49.31-106.05-57.77-168.18l57.77.07Zm-37.94-18.45h-10.81l-1.89,4.41c-.45,1.09-.68,1.91-.68,2.44,0,.23.03.43.1.62.07.19.23.36.46.51.23.15.56.28.98.4.42.12.98.19,1.66.23v.75h-8.8v-.75c.7-.11,1.27-.25,1.7-.46.44-.21.8-.48,1.12-.85.3-.36.59-.82.85-1.39.25-.58.57-1.28.94-2.13l9.81-22.95h.71l9.71,23.2c.39.97.74,1.74,1.09,2.32.34.59.68,1.05,1.04,1.37.36.33.75.56,1.17.67.42.13.92.2,1.52.22v.75h-11v-.75c1.1-.04,1.84-.22,2.23-.55.4-.31.6-.7.6-1.15-.02-.6-.29-1.56-.83-2.9l-1.69-4.01Zm34.31,9.37h-22.69v-.77l17.89-25.44h-8.87c-1.12,0-2.02.08-2.69.26-.67.17-1.2.46-1.59.87-.39.41-.67.95-.87,1.63-.19.68-.37,1.52-.53,2.51h-.82l.57-6.98h20.62l-18.32,26.21h11.42c.88,0,1.65-.08,2.3-.24.65-.17,1.23-.47,1.74-.9.51-.43.96-1.03,1.35-1.78.39-.76.76-1.73,1.13-2.93l.69.13-1.32,7.42Zm25.75,0h-11.94v-.75h1.04c1.15,0,1.99-.38,2.49-1.14.28-.45.43-1.46.43-3.04v-18.04c0-1.74-.18-2.83-.54-3.26-.56-.62-1.34-.92-2.38-.92h-1.04v-.75h10.23c2.45,0,4.42.26,5.9.8.71.25,1.38.59,2.01,1.03.62.44,1.16.97,1.62,1.57.46.59.82,1.27,1.09,1.99.26.72.4,1.51.4,2.35,0,1.12-.2,2.16-.59,3.1-.39.93-.95,1.75-1.69,2.42-.74.67-1.63,1.21-2.7,1.58-1.06.38-2.28.56-3.66.56s-2.89-.19-4.69-.55v8.13c0,1.78.2,2.88.59,3.29.53.6,1.32.89,2.36.89h1.08v.75Zm23.67,0h-11.88v-.75h.98c.49,0,.92-.03,1.3-.11.37-.07.68-.25.92-.52.25-.29.44-.71.57-1.26.14-.57.2-1.33.2-2.3v-18.04c0-.64-.01-1.16-.04-1.58-.03-.42-.08-.77-.16-1.03-.07-.27-.18-.48-.31-.64-.15-.15-.34-.29-.59-.44-.61-.33-1.24-.5-1.88-.5h-.98v-.75h11.88v.75h-.98c-.49,0-.92.04-1.3.13-.37.08-.68.26-.92.53-.25.27-.44.7-.57,1.26-.14.57-.2,1.32-.2,2.26v18.04c0,.66.01,1.18.03,1.6.02.41.07.74.15,1.01.08.27.2.48.36.64.15.15.35.29.6.44.56.32,1.18.49,1.85.49h.98v.75Zm22.83-1.11c-1.85,1.16-4.08,1.74-6.65,1.74-1.99,0-3.81-.35-5.47-1.05-1.66-.69-3.09-1.67-4.3-2.93-1.19-1.26-2.14-2.75-2.81-4.47-.68-1.73-1.02-3.64-1.02-5.7,0-2.81.63-5.36,1.88-7.68,1.24-2.33,2.95-4.13,5.14-5.4,2.22-1.29,4.62-1.94,7.21-1.94,2.03,0,4.03.49,5.98,1.48.57.3.98.46,1.22.46.46,0,.83-.19,1.13-.56.29-.36.5-.83.63-1.38h.69l.63,9.49h-.63c-.86-2.86-2.08-4.91-3.65-6.17-1.57-1.25-3.47-1.88-5.69-1.88-1.44,0-2.75.27-3.97.82-1.21.55-2.25,1.37-3.13,2.51-.87,1.12-1.55,2.53-2.04,4.23-.5,1.71-.74,3.71-.74,6.02,0,1.87.23,3.55.69,5.07.46,1.52,1.14,2.81,2.03,3.88.89,1.08,1.98,1.91,3.28,2.48,1.29.59,2.78.88,4.46.88s3.37-.39,4.8-1.18c1.37-.71,2.9-2.25,4.58-4.61l.65.4c-1.41,2.48-3.05,4.3-4.9,5.47h0Zm11.18-3.79v-18.14c0-1.78-.17-2.88-.51-3.29-.49-.56-1.31-.83-2.47-.83h-.97v-.75h21.43v6.1h-.5c-.2-1.01-.42-1.81-.66-2.42-.23-.61-.55-1.07-.93-1.4-.39-.33-.88-.53-1.49-.63-.6-.09-1.37-.14-2.31-.14h-7.63v11.06h6.11c.9,0,1.63-.08,2.18-.24.55-.17.98-.41,1.31-.73.31-.33.53-.74.66-1.25.12-.51.2-1.11.24-1.8h.76v9.68h-.76c-.1-.8-.22-1.47-.36-2-.12-.52-.35-.95-.64-1.27-.3-.33-.71-.55-1.25-.68-.53-.13-1.25-.2-2.15-.2h-6.11v9.22c0,.69.01,1.25.03,1.66.02.41.1.72.24.94.15.21.38.34.68.41.3.06.75.09,1.35.09h4.73c.8,0,1.47-.02,2.02-.06.56-.04,1.03-.13,1.42-.24.4-.12.76-.29,1.06-.51.31-.22.64-.49.98-.82.82-.8,1.69-2.1,2.61-3.87h.84l-2.45,7.01h-21.43v-.75h.97c.26,0,.53-.03.83-.09.28-.06.54-.15.8-.26.25-.12.48-.26.68-.44.2-.19.34-.4.43-.65.16-.45.24-1.35.24-2.7h0Zm81.88-3.22c-.7-1.8-1.06-3.79-1.06-5.96,0-2,.36-3.89,1.06-5.65.71-1.76,1.67-3.29,2.92-4.59,1.24-1.3,2.7-2.33,4.41-3.09,1.7-.76,3.55-1.13,5.55-1.13,1.79,0,3.49.37,5.1,1.11,1.63.73,3.05,1.75,4.27,3.04,1.23,1.29,2.2,2.81,2.93,4.56.72,1.75,1.09,3.65,1.09,5.69s-.37,4.07-1.09,5.87c-.73,1.8-1.71,3.36-2.96,4.68-1.24,1.32-2.69,2.36-4.36,3.1-1.66.74-3.44,1.12-5.33,1.12s-3.69-.36-5.34-1.08c-1.66-.71-3.1-1.72-4.32-3.02-1.23-1.3-2.18-2.85-2.89-4.65h0Z"/>
      <path class="cls-3" d="m133.49,92.66c1.63.44,3.32.66,5.03.76,1.74.1,3.51.06,5.24,0,.84-.03,1.73-.35,2.61-.67.78-.28,1.56-.56,2.41-.71.57-.1,1.17-.15,1.77-.17.63-.01,1.26.01,1.88.07.53.06.96.22,1.38.4.31.12.61.25.83.26.05,0,.09-.09.21-.18.08-.06.16-.11.28-.18.49-.3,1.01-.68,1.53-1.05.78-.56,1.55-1.11,2.35-1.52,1.57-.82,3.34-.78,5-.74h.33c.74.02,1.37.24,2.01.46.46.16.93.32,1.33.34.25,0,.51,0,.74-.07.17-.05.32-.12.43-.23.18-.18.36-.43.54-.67.33-.45.65-.89,1.15-1.26.36-.27.77-.54,1.21-.76.47-.23.98-.4,1.5-.46,1.48-.17,2.97-.15,4.46-.12,1.2.02,2.4.04,3.62-.06.19-.01.39-.07.58-.14.23-.09.46-.21.69-.33.27-.15.53-.32.79-.51.26-.19.5-.4.73-.63.39-.39.87-.56,1.38-.63.39-.06.76-.04,1.09-.02.54.03.81.26,1.08.5h0c.15.03.3.04.44.04.15,0,.29-.03.41-.07.85-.33,1.69-.66,2.52-1.05.8-.37,1.59-.79,2.38-1.33.53-.36,1.11-.66,1.72-.88.58-.21,1.19-.33,1.82-.36h.2c1.47-.06,2.55-.11,4.22.69.15.07.44.15.72.22.34.09.68.18.97.31.36.16.96-.04,1.54-.23.15-.05.3-.1.54-.17.22-.06.49-.24.75-.41.32-.2.63-.41,1.04-.57.29-.12.6-.2.89-.26.26-.05.55-.09.84-.12.34-.03.62,0,.9.01.23.02.45.04.6,0,.1-.02.26-.12.42-.23.16-.1.32-.2.51-.3.19-.09.4-.22.61-.34h0c.56-.32,1.12-.65,1.82-.8.56-.12,1.14-.19,1.73-.22.62-.02,1.24,0,1.84.07.42.05.86.12,1.28.25.47.15.92.36,1.3.68,1.02.83,1.55,1.58,2.3,2.61l.02.03c.42-2.19.32-4.3.22-6.51-.04-.77-.07-1.55-.09-2.41,0-.42-.18-.91-.35-1.41l-.08-.24h0c-.08-.24-.17-.45-.25-.66-.46-1.11-.88-2.16-.08-3.5.37-.62.88-1.2,1.48-1.63.57-.41,1.24-.68,1.96-.74,1.39-.12,2.86-.16,4.35-.15,1.49.01,2.94.08,4.31.19.75.06,1.5.22,2.21.49.68.26,1.34.63,1.93,1.1.39.32.69.73.9,1.18.21.46.32.97.33,1.46.02.72-.26,1.23-.53,1.74-.1.19-.21.39-.26.54l-.17.5c-.16.46-.32.92-.35,1.32-.08,1.63-.13,3.17-.13,4.73,0,1.39.02,2.82.1,4.36l.15-.05c.53-.24,1.1-.44,1.7-.59.62-.15,1.25-.23,1.88-.2,1.11.05,2.05.52,2.94.97l.21.1c.63.31,1.22.66,1.79,1.02.55.35,1.11.73,1.67,1.12.2.14.44.23.71.29.3.07.63.09.95.09.26,0,.52-.03.76-.1.22-.06.42-.15.6-.28.44-.3.92-.51,1.42-.66h0c.55-.16,1.12-.24,1.66-.27,1.51-.08,2.99.05,4.47.18,1.2.11,2.41.21,3.6.19.24,0,.48,0,.71,0,.73.02,1.51.04,1.97-.34.91-.74,1.78-1.36,2.68-2,.58-.41,1.17-.83,1.73-1.25.53-.4,1.17-.65,1.83-.76.66-.11,1.36-.07,1.99.12,1.03.31,1.78.92,2.54,1.54.3.24.6.49.91.7.14.09.32.22.5.31.11-.14.23-.29.35-.44.5-.65,1-1.31,1.85-1.7.82-.38,1.62-.42,2.43-.46h.12c-.73-6.89-1.73-13.86-3.03-20.9-27.3.88-52.32-2.55-74.83-10.7-22.32-8.08-42.15-20.79-59.26-38.5-17.11,17.7-36.87,30.35-59.13,38.38-22.44,8.09-47.38,11.47-74.67,10.58-1.63,8.82-2.77,17.5-3.48,26.07l.89.07c1.02.09,2.04.18,3.05.19.7,0,1.48-.26,2.26-.51h0c.49-.16.98-.32,1.43-.43.67-.16,1.38-.28,2.11-.33.74-.05,1.49,0,2.21.15,1.18.25,2.19.8,3.21,1.34.43.23.87.46,1.3.66.66.3,1.36.55,2.05.67.64.11,1.26.11,1.82-.06,1.8-.56,3.59-1.28,5.38-2l1.5-.6c1.38-.55,2.62-.87,3.96-1.01,1.32-.13,2.7-.07,4.4.16.7.1,1.18.05,1.47-.11.2-.11.33-.33.4-.63.12-.54.08-1.19.04-1.85-.06-1.09-.13-2.18.39-3.27.49-1.05,1.27-1.78,2.21-2.29.88-.48,1.88-.75,2.89-.9,1.26-.19,2.42-.07,3.65.05.57.05,1.15.11,1.75.14.57.02,1.2-.13,1.83-.28.4-.1.8-.19,1.19-.26.93-.15,1.83-.25,2.76-.25.94,0,1.88.09,2.86.33.43.1.95.18,1.46.25.92.13,1.85.26,2.74.63.25.1.5.2.77.25.22.05.45.07.68.03.46-.07.9-.04,1.32.04.38.07.74.19,1.08.31.28.1.52.26.72.45-.03-.4-.05-.79.04-1.16.1-.43.28-.74.46-1.05.09-.15.18-.3.22-.42.07-.22.13-.45.17-.68.05-.25.08-.5.11-.75.06-.58.06-1.18.06-1.77,0-1.18,0-2.35.4-3.53.43-1.25,1.16-2.24,1.9-3.24.32-.43.64-.86.94-1.33.12-.19.27-.34.44-.45.22-.14.46-.21.72-.21s.49.07.71.21c.18.11.33.27.46.46.23.36.43.65.62.94.57.84,1.14,1.68,1.59,2.59h0l.03.05h0c.35.72.74,1.52.75,2.47,0,1.78-.05,3.52-.11,5.27-.08,2.23-.15,4.46-.08,6.69h0c0,.15.04.29.09.4l.02.04c.24-.14.47-.3.7-.46h0c.31-.22.63-.45,1.01-.66.37-.21.89-.39,1.38-.4.55-.02,1.08.15,1.46.63.36.45.64.86.9,1.26.28.43.56.84.86,1.19.22.25.47.5.7.58.07.03.16,0,.27-.1l.35-.33c.5-.47.99-.94,1.63-1.3.57-.32,1.29-.5,1.99-.49.69.01,1.37.21,1.89.64.63.52,1.15,1.08,1.67,1.64.31.33.61.66.96.99.17.15.36.29.56.37.17.08.35.12.54.13.82.02,1.67.06,2.52.23.92.19,1.81.53,2.62,1.18.18.14.38.31.58.48.34.29.67.58,1.04.8.33.19.75.28,1.22.29.55.01,1.16-.08,1.77-.21.48-.1.98-.15,1.49-.13.48.02.97.1,1.44.26.55.18.96.48,1.37.77h0c.17.12.34.24.43.3.15.09.37.16.63.19.24.03.48.03.68-.03l.48-.14c.96-.29,1.96-.6,3.06-.33,1.02.26,1.81.81,2.61,1.37.36.25.72.51,1.07.71.22.12.49.22.75.24h0c.17.01.32,0,.43-.06l.42-.26c.59-.36,1.19-.73,1.97-.84.43-.06.86-.02,1.27.07.43.1.85.28,1.23.49.84.46,1.54,1.05,2.23,1.64.9.75,1.79,1.5,2.77,1.76h0Z"/>
      <path class="cls-3" d="m40.67,123.8l-4.73-11.32-4.85,11.32h9.58Z"/>
      <path class="cls-3" d="m97.29,108.83v11.58c.73.15,1.38.25,1.93.33.55.08,1.04.11,1.45.11.71,0,1.38-.15,2.02-.44.63-.3,1.18-.71,1.67-1.23.48-.52.86-1.15,1.14-1.88.27-.74.41-1.54.41-2.4,0-1.02-.16-1.93-.46-2.72-.3-.8-.72-1.47-1.26-2.02-.53-.56-1.15-.98-1.86-1.26-.72-.28-1.5-.43-2.34-.43-.69,0-1.59.12-2.69.37h0Z"/>
      <path class="cls-3" d="m188.54,108.74v11.57c.27,0,.5,0,.69.02.2,0,.36,0,.48,0,1.33,0,2.5-.15,3.51-.46,1.01-.3,1.85-.74,2.53-1.29.68-.54,1.18-1.19,1.52-1.94.35-.74.51-1.56.51-2.44s-.15-1.65-.43-2.37c-.29-.72-.7-1.35-1.24-1.87-.53-.51-1.16-.92-1.9-1.21-.74-.28-1.55-.43-2.43-.43s-1.93.13-3.24.4h0Z"/>
      <path class="cls-3" d="m244.52,120.55c0,1.97.19,3.76.57,5.4.38,1.62.94,3.03,1.7,4.21.74,1.18,1.67,2.09,2.78,2.73,1.11.64,2.38.97,3.81.97,1.29,0,2.48-.24,3.57-.73,1.1-.49,2.05-1.26,2.88-2.29.82-1.04,1.45-2.36,1.92-3.96.46-1.61.69-3.53.69-5.76,0-2.12-.19-4-.57-5.67-.38-1.68-.95-3.09-1.73-4.24-.77-1.16-1.72-2.04-2.85-2.64-1.14-.61-2.45-.91-3.95-.91-1.42,0-2.67.3-3.77.91-1.09.6-2.01,1.45-2.75,2.58-.76,1.11-1.32,2.47-1.71,4.05-.39,1.59-.59,3.37-.59,5.36h0Z"/>
    </g>
  </g>
</svg>