<?xml version="1.0" encoding="UTF-8"?>
<svg id="Layer_2" data-name="Layer 2" xmlns="http://www.w3.org/2000/svg" xmlns:xlink="http://www.w3.org/1999/xlink" viewBox="0 0 33.56 19.58">
  <defs>
    <style>
      .cls-1 {
        clip-path: url(#clippath);
      }

      .cls-2 {
        fill: none;
      }

      .cls-2, .cls-3, .cls-4, .cls-5, .cls-6 {
        stroke-width: 0px;
      }

      .cls-7 {
        clip-path: url(#clippath-1);
      }

      .cls-8 {
        clip-path: url(#clippath-4);
      }

      .cls-9 {
        clip-path: url(#clippath-3);
      }

      .cls-10 {
        clip-path: url(#clippath-2);
      }

      .cls-11 {
        clip-path: url(#clippath-5);
      }

      .cls-3 {
        fill: #48ae68;
      }

      .cls-4 {
        fill: #438fc3;
      }

      .cls-5 {
        fill: #d6003f;
      }

      .cls-6 {
        fill: #fff;
      }
    </style>
    <clipPath id="clippath">
      <rect class="cls-2" width="33.56" height="19.58"/>
    </clipPath>
    <clipPath id="clippath-1">
      <rect class="cls-2" width="33.56" height="19.58"/>
    </clipPath>
    <clipPath id="clippath-2">
      <rect class="cls-2" width="33.56" height="19.58"/>
    </clipPath>
    <clipPath id="clippath-3">
      <rect class="cls-2" width="33.56" height="19.58"/>
    </clipPath>
    <clipPath id="clippath-4">
      <rect class="cls-2" width="33.56" height="19.58"/>
    </clipPath>
    <clipPath id="clippath-5">
      <rect class="cls-2" width="33.56" height="19.58"/>
    </clipPath>
  </defs>
  <g id="Layer_1-2" data-name="Layer 1">
    <g id="AZERBAIJAN">
      <g>
        <g class="cls-1">
          <rect class="cls-4" width="33.56" height="19.58"/>
        </g>
        <g class="cls-7">
          <rect class="cls-5" y="6.53" width="33.56" height="6.53"/>
        </g>
        <g class="cls-10">
          <rect class="cls-3" y="13.05" width="33.56" height="6.52"/>
        </g>
        <g class="cls-9">
          <g>
            <g class="cls-8">
              <path class="cls-6" d="m17.44,12.08c-1.26,0-2.28-1.03-2.28-2.29s1.02-2.29,2.28-2.29c.46,0,.88.14,1.24.37-.5-.51-1.19-.82-1.96-.82-1.51,0-2.74,1.23-2.74,2.74s1.23,2.74,2.74,2.74c.77,0,1.46-.31,1.96-.82-.36.23-.78.37-1.24.37"/>
            </g>
            <g class="cls-11">
              <polygon class="cls-6" points="20.54 10.83 19.79 10.49 19.5 11.26 19.21 10.49 18.46 10.83 18.8 10.08 18.03 9.79 18.8 9.5 18.46 8.75 19.21 9.09 19.5 8.32 19.79 9.09 20.54 8.75 20.2 9.5 20.97 9.79 20.2 10.08 20.54 10.83"/>
            </g>
          </g>
        </g>
      </g>
    </g>
  </g>
</svg>