<?xml version="1.0" encoding="UTF-8"?>
<svg xmlns="http://www.w3.org/2000/svg" xmlns:xlink="http://www.w3.org/1999/xlink" width="800pt" height="600pt" viewBox="0 0 800 600" version="1.1">
<g id="surface1">
<path style=" stroke:none;fill-rule:nonzero;fill:rgb(90.234375%,95.701599%,11.401367%);fill-opacity:1;" d="M 497.785156 236.070312 L 497.785156 236.058594 C 503.992188 236.058594 503.941406 236.734375 501.648438 241.785156 L 407.09375 453.40625 C 406.398438 454.960938 405.105469 458.964844 403.253906 459.019531 C 401.398438 458.964844 400.105469 454.960938 399.414062 453.40625 L 304.855469 241.785156 C 302.5625 236.734375 302.511719 236.058594 308.71875 236.058594 L 308.71875 236.070312 "/>
<path style=" stroke:none;fill-rule:nonzero;fill:rgb(12.205505%,5.499268%,50.584412%);fill-opacity:1;" d="M 403.253906 453.71875 C 402.773438 453.703125 402.265625 452.835938 402.007812 452.25 L 307.449219 240.628906 C 306.867188 239.324219 306.851562 238.90625 308.71875 238.90625 L 497.785156 238.90625 C 499.652344 238.90625 499.640625 239.324219 499.058594 240.628906 L 404.5 452.25 C 404.238281 452.835938 403.730469 453.703125 403.253906 453.71875 "/>
<path style=" stroke:none;fill-rule:nonzero;fill:rgb(0%,0%,0%);fill-opacity:1;" d="M 399.675781 174.414062 C 411.226562 174.414062 421.691406 179.105469 429.269531 186.6875 C 436.84375 194.269531 441.527344 204.734375 441.527344 216.289062 C 441.527344 227.84375 436.84375 238.3125 429.269531 245.890625 C 421.691406 253.46875 411.226562 258.160156 399.675781 258.160156 C 388.125 258.160156 377.660156 253.46875 370.082031 245.890625 C 362.507812 238.3125 357.820312 227.84375 357.820312 216.289062 C 357.820312 204.734375 362.507812 194.269531 370.082031 186.6875 C 377.660156 179.105469 388.125 174.414062 399.675781 174.414062 "/>
<path style=" stroke:none;fill-rule:nonzero;fill:rgb(100%,100%,100%);fill-opacity:1;" d="M 432.886719 231.183594 C 432.882812 232.304688 432.652344 233.183594 432.21875 233.730469 C 431.902344 234.132812 431.398438 234.363281 430.71875 234.363281 L 430.71875 234.371094 L 430.699219 234.371094 C 430.574219 234.367188 430.074219 234.367188 429.503906 234.367188 C 425.386719 234.363281 429.261719 234.355469 427.429688 234.355469 C 427.222656 234.355469 426.953125 234.34375 426.714844 234.300781 L 426.714844 228.765625 C 426.800781 228.734375 426.878906 228.722656 426.933594 228.722656 L 426.933594 228.710938 L 430.289062 228.710938 L 430.289062 228.722656 C 430.878906 228.722656 431.550781 228.933594 432.078125 229.363281 C 432.542969 229.742188 432.878906 230.328125 432.878906 231.136719 L 432.886719 231.136719 Z M 411.371094 221.429688 L 411.222656 221.773438 C 411.203125 220.683594 410.980469 219.964844 409.800781 219.34375 C 409.195312 219.023438 408.449219 218.925781 407.207031 218.925781 L 400.367188 218.921875 L 400.367188 218.914062 C 400.34375 218.914062 400.285156 218.917969 400.199219 218.921875 L 400.199219 214.324219 L 409.234375 214.328125 C 409.871094 214.328125 410.390625 214.261719 410.835938 214.117188 L 412.695312 218.355469 L 412.683594 218.386719 L 415.503906 219.582031 L 415.503906 223.183594 Z M 387.980469 221.441406 L 375.582031 226.152344 L 375.0625 232.738281 C 374.9375 232.90625 374.804688 233.078125 374.640625 233.261719 C 374.304688 233.644531 373.945312 233.902344 373.5625 234.0625 C 373.167969 234.230469 372.710938 234.300781 372.195312 234.300781 C 371.5 234.300781 370.992188 234.214844 370.609375 234.003906 C 370.1875 233.765625 369.777344 233.316406 369.304688 232.609375 C 368.816406 231.871094 368.484375 230.8125 368.265625 229.4375 C 368.019531 227.914062 367.925781 226.003906 367.925781 223.726562 L 367.917969 223.726562 L 367.917969 223.429688 C 367.914062 220.992188 367.910156 218.148438 369.335938 216.363281 C 369.53125 216.121094 369.746094 215.875 369.972656 215.640625 L 375.003906 222.828125 L 386.859375 218.324219 L 388.777344 213.503906 L 388.777344 222.28125 Z M 429.785156 213.839844 L 429.785156 213.851562 Z M 431.273438 214.398438 C 431.675781 214.734375 431.964844 215.25 431.964844 215.957031 L 431.953125 215.957031 L 431.964844 215.957031 L 431.964844 216 C 431.957031 217.023438 431.761719 217.816406 431.386719 218.304688 C 431.132812 218.628906 430.726562 218.816406 430.175781 218.816406 L 430.175781 218.824219 L 430.148438 218.824219 C 430.023438 218.824219 429.578125 218.824219 429.070312 218.820312 L 427.179688 218.820312 L 427.179688 218.8125 C 427.140625 218.8125 427.09375 218.808594 427.050781 218.808594 L 430.890625 214.144531 C 431.023438 214.214844 431.152344 214.300781 431.273438 214.398438 M 443.824219 228.75 C 443.535156 227.609375 443.09375 226.542969 442.503906 225.554688 C 441.867188 224.484375 441.171875 223.75 440.332031 223.144531 C 440.171875 223.027344 440.007812 222.921875 439.839844 222.816406 C 440.613281 222.0625 441.234375 221.183594 441.71875 220.238281 C 442.660156 218.394531 443.0625 216.289062 443.054688 214.359375 C 443.035156 210.085938 441.96875 207.398438 439.894531 205.699219 C 439.285156 205.203125 438.605469 204.820312 437.867188 204.511719 C 436.976562 201.621094 435.769531 198.867188 434.28125 196.296875 C 433.914062 196.015625 433.53125 195.753906 433.132812 195.519531 C 432.054688 194.894531 430.875 195.144531 429.527344 195.28125 L 429.476562 196.707031 C 430.234375 197.71875 430.929688 198.796875 431.558594 199.933594 C 432.191406 201.078125 432.761719 202.296875 433.273438 203.585938 C 432.738281 203.554688 432.191406 203.535156 431.617188 203.535156 L 429.65625 203.535156 C 429.34375 202.84375 429.007812 202.175781 428.652344 201.53125 C 427.976562 200.308594 427.226562 199.179688 426.40625 198.144531 L 415.878906 196.207031 L 410.5 203.699219 C 410.160156 203.621094 409.777344 203.574219 409.335938 203.574219 L 406.511719 203.578125 L 413.078125 194.429688 L 413.042969 194.292969 C 411.492188 194.878906 410.027344 195.46875 408.296875 195.40625 C 405.828125 195.316406 406.101562 196.835938 402.875 196.9375 C 400.953125 197 400.105469 198.019531 398.820312 198.019531 C 393.886719 198.011719 393.070312 198.265625 391.261719 197.90625 C 390.074219 197.671875 389.132812 197.179688 387.636719 196.238281 L 393.058594 203.578125 L 392.570312 203.578125 C 391.21875 203.582031 390.335938 203.925781 389.703125 204.613281 L 383.449219 196.140625 L 372.46875 198.265625 C 371.613281 199.671875 370.820312 201.101562 370.078125 202.5625 C 370.007812 202.695312 369.945312 202.828125 369.878906 202.960938 C 368.4375 203.128906 367.097656 203.46875 365.839844 204.039062 C 365.773438 204.070312 365.710938 204.105469 365.640625 204.136719 C 366.109375 203.097656 366.601562 202.070312 367.117188 201.054688 C 368.007812 199.308594 368.988281 197.570312 370.074219 195.835938 L 368.9375 192.828125 C 368.757812 192.851562 368.710938 192.660156 368.769531 192.390625 L 368.402344 191.410156 C 364.445312 196.382812 361.652344 202.316406 360.421875 208.804688 C 359.183594 210.636719 358.25 212.78125 357.617188 215.238281 C 356.945312 217.871094 356.613281 220.832031 356.613281 224.109375 C 356.613281 227.15625 356.9375 230.746094 357.859375 234.050781 C 358.621094 236.789062 359.800781 239.34375 361.550781 241.273438 C 363.234375 243.128906 364.613281 244.242188 366.277344 244.921875 C 367.929688 245.589844 369.679688 245.769531 372.144531 245.769531 C 372.332031 245.769531 372.511719 245.765625 372.691406 245.761719 C 377.398438 250.078125 383.144531 253.285156 389.511719 254.957031 L 387.796875 249.949219 C 386.09375 249.242188 384.316406 248.347656 382.566406 247.335938 C 381.175781 246.535156 379.8125 245.65625 378.507812 244.746094 C 379.699219 244.277344 380.722656 243.652344 381.609375 242.855469 C 382.464844 243.417969 383.335938 243.960938 384.214844 244.46875 C 385.660156 245.304688 387.121094 246.050781 388.546875 246.664062 L 391.410156 245.007812 C 391.636719 245.019531 391.875 245.027344 392.140625 245.027344 L 392.140625 245.019531 L 396.785156 245.019531 L 396.785156 245.027344 C 398.125 245.027344 398.898438 244.761719 399.546875 243.871094 C 400.09375 243.121094 400.113281 242.488281 400.121094 241.46875 L 400.191406 229.074219 L 401.085938 229.078125 L 401.085938 241.320312 L 411.023438 246.597656 C 412.503906 245.90625 413.96875 245.167969 415.417969 244.378906 C 415.675781 244.238281 415.929688 244.09375 416.1875 243.949219 C 416.234375 244.007812 416.277344 244.0625 416.328125 244.117188 C 416.976562 244.804688 417.800781 245.085938 419.085938 245.085938 L 420.796875 245.085938 C 419.550781 245.851562 418.285156 246.589844 417 247.285156 C 415.261719 248.230469 413.496094 249.113281 411.707031 249.929688 L 409.496094 255.046875 C 416.332031 253.316406 422.464844 249.828125 427.386719 245.085938 L 432.265625 245.085938 C 436.636719 245.082031 439.617188 243.914062 441.578125 241.636719 C 443.484375 239.421875 444.246094 236.304688 444.246094 232.308594 C 444.246094 231.054688 444.105469 229.867188 443.824219 228.75 "/>
<path style=" stroke:none;fill-rule:nonzero;fill:rgb(13.305664%,11.791992%,53.709412%);fill-opacity:1;" d="M 381.40625 160.441406 C 378.925781 158.5625 375.882812 156.074219 373.277344 153.832031 C 371.523438 152.316406 370.523438 150.902344 369.515625 150.011719 C 368.011719 148.683594 366.351562 147.039062 364.90625 145.882812 C 363.511719 144.757812 361.6875 143.867188 360.253906 143.105469 C 359.347656 142.621094 358.515625 141.8125 357.648438 141.382812 C 356.960938 141.039062 355.730469 141.003906 353.929688 141 C 352.832031 140.996094 351.414062 140.949219 350.085938 141.007812 C 348.992188 141.054688 347.714844 142.964844 346.285156 143.078125 C 345.273438 143.160156 343.75 143.660156 342.71875 144.226562 C 340.0625 145.683594 337.796875 146.832031 335.71875 147.871094 C 331.710938 149.875 330.914062 152.644531 327.214844 153.957031 C 325.199219 154.671875 323.816406 156.558594 322.660156 157.351562 C 321.394531 158.222656 320.550781 158.347656 318.0625 160.046875 C 318 160.085938 316.546875 160.46875 315.085938 161.480469 C 314.179688 162.109375 314.167969 162.816406 313.03125 163.640625 C 311.324219 164.878906 309.277344 165.679688 307.800781 166.503906 C 305.714844 167.664062 304.203125 168.746094 301.589844 170.191406 C 299.109375 171.554688 296.265625 172.699219 292.671875 173.695312 C 289.070312 174.6875 284.195312 176.902344 275.65625 178.191406 C 274.089844 178.429688 271.058594 178.59375 268.777344 180.050781 C 267.695312 180.742188 267.339844 182.671875 268.597656 183.75 C 269.039062 184.132812 269.324219 184.359375 271.34375 184.335938 C 273.746094 184.3125 273.917969 185.1875 276.828125 185.335938 C 279.78125 185.484375 281.695312 186.246094 285.84375 186.328125 C 288.230469 186.375 289.023438 187.71875 292.363281 187.640625 C 295.164062 187.574219 298.539062 187.84375 300.867188 187.195312 C 303.03125 186.597656 304.964844 186.15625 306.613281 185.382812 C 308.367188 184.5625 310.796875 183.054688 311.546875 183.042969 C 311.660156 183.042969 312.128906 183.238281 312.554688 183.238281 C 315.15625 183.238281 317.078125 181.316406 319.757812 179.515625 C 321.542969 178.3125 324.085938 177.574219 325.957031 176.328125 C 328.976562 174.316406 331.253906 173.183594 333.71875 171.105469 C 334.738281 170.246094 336.089844 169.328125 336.847656 168.410156 C 338.621094 166.273438 340.550781 164.628906 342.164062 163.28125 C 343.828125 161.894531 342.886719 160.585938 344.878906 160.585938 C 345.554688 160.585938 345.632812 160.898438 346.261719 160.886719 C 347.632812 160.859375 348.257812 159.9375 350.109375 159.9375 C 353.003906 159.933594 355.625 160.0625 357.296875 161.65625 C 357.925781 162.257812 358.707031 161.515625 358.882812 162.988281 C 358.898438 163.121094 358.929688 163.605469 359.5 164.105469 C 360.113281 164.648438 361.492188 164.203125 362.976562 165.546875 C 365.265625 167.613281 368.792969 169.742188 370.679688 170.019531 C 372.582031 170.296875 373.035156 170.332031 375.015625 172.050781 C 375.710938 172.65625 376.703125 172.390625 377.695312 173.585938 C 378.820312 174.941406 380.085938 174.230469 383.078125 174.328125 C 383.902344 174.355469 385.265625 174.144531 385.179688 175.027344 C 385.144531 175.378906 385.011719 176.632812 382.484375 176.707031 C 380.476562 176.765625 379.609375 176.945312 377.839844 178.21875 C 377.082031 178.765625 376.222656 179.480469 375.515625 180.070312 C 374.078125 181.261719 373.042969 182.003906 371.957031 182.027344 C 371.410156 182.035156 370.65625 181.699219 370.097656 181.695312 C 367.589844 181.679688 363.671875 184.78125 361.953125 184.78125 C 359.847656 184.78125 359.765625 185.507812 359.765625 185.738281 C 359.761719 186.226562 360.519531 186.347656 360.519531 187.179688 C 360.519531 187.785156 360.046875 188.082031 360.039062 188.570312 C 360.011719 190.105469 361.433594 190.589844 363.0625 190.589844 C 365.09375 190.589844 366.753906 190.261719 368.863281 189.449219 C 370.128906 188.964844 370.878906 188.621094 371.222656 188.707031 C 371.625 188.804688 371.6875 189.542969 371.167969 190.164062 C 370.835938 190.558594 370.132812 190.753906 369.542969 191.199219 C 368.523438 191.972656 368.316406 193.960938 369.910156 191.972656 C 370.285156 191.507812 371.1875 190.699219 371.671875 190.4375 C 373.207031 189.597656 374.410156 189.8125 376.996094 190.28125 C 380.78125 190.96875 381.996094 192.640625 383.632812 193.671875 C 387.96875 196.398438 389.273438 197.515625 391.261719 197.90625 C 393.070312 198.265625 393.886719 198.007812 398.820312 198.019531 C 400.105469 198.019531 400.953125 197 402.875 196.9375 C 406.101562 196.835938 405.828125 195.316406 408.296875 195.40625 C 411.183594 195.507812 413.339844 193.796875 416.367188 193.324219 C 419.222656 192.875 421.28125 191.617188 422.765625 191.617188 C 427.65625 191.613281 426.863281 195.394531 428.660156 195.339844 C 430.382812 195.289062 431.828125 194.761719 433.132812 195.523438 C 435.421875 196.855469 437.089844 198.96875 438.675781 201.941406 C 440.167969 204.730469 441.683594 206.816406 443.058594 209.824219 C 443.640625 211.105469 444.085938 213.117188 444.507812 213.75 C 445.558594 215.316406 446.335938 215.40625 446.6875 213.933594 C 447.113281 212.15625 446.78125 208.667969 446.78125 205.761719 C 446.78125 200.902344 445.6875 196.632812 442.289062 190.121094 C 441.613281 188.820312 441.878906 187.664062 441.78125 186.191406 C 441.699219 184.96875 441 183.484375 440.644531 182.527344 C 439.527344 179.523438 436.035156 176.578125 434.355469 174.925781 C 433.894531 174.46875 433.40625 174.078125 433.417969 173.394531 C 433.445312 171.664062 435.046875 170.96875 437.015625 170.714844 C 438.726562 170.496094 439.972656 170.003906 441.109375 169.546875 C 442.054688 169.171875 443.46875 168.339844 445.03125 167.816406 C 446.101562 167.453125 447.253906 167.445312 448.320312 167.007812 C 449.429688 166.546875 450.277344 165.660156 451.15625 165.191406 C 451.84375 164.824219 452.761719 164.972656 453.257812 164.769531 C 455.863281 163.691406 455.066406 162.175781 456.941406 162.113281 C 458.804688 162.050781 458.09375 162.964844 459.28125 163.128906 C 459.761719 163.195312 460.070312 162.933594 460.601562 162.933594 C 461.5 162.933594 462.097656 164.429688 462.914062 164.65625 C 464.121094 164.992188 467.640625 167.402344 471.140625 168.910156 C 474.464844 170.34375 475.601562 171.0625 478.074219 171.0625 C 481.324219 171.0625 483.523438 172.355469 487.164062 173.363281 C 489.929688 174.132812 493.546875 175.203125 498.054688 175.316406 C 505.964844 175.507812 501.78125 173.675781 509.117188 173.847656 C 513.175781 173.941406 515.585938 173.808594 520.40625 170.683594 C 523.714844 168.539062 525.433594 169.664062 527.007812 168.796875 C 530.40625 166.921875 532.191406 166.65625 532.199219 163.359375 C 532.203125 162.296875 532.429688 161.019531 528.042969 161.15625 C 521.652344 161.359375 513.464844 161.300781 506.816406 160.375 C 504.148438 160 501.851562 159.175781 499.425781 158.796875 C 493.523438 157.875 488.671875 156.269531 483.910156 154.316406 C 482.355469 153.679688 480.53125 153.179688 479.121094 152.523438 C 477.0625 151.5625 475.785156 150.449219 473.574219 149.34375 C 471.714844 148.414062 469.191406 147.222656 467.222656 146.199219 C 465.507812 145.308594 464.230469 144.234375 461.011719 144.175781 C 459.027344 144.136719 454.332031 143.957031 451.464844 143.996094 C 448.28125 144.042969 446.566406 145.789062 444.308594 146.367188 C 443.300781 146.625 442.128906 147.816406 440.976562 148.539062 C 439.03125 149.757812 436.765625 151.910156 434.535156 153.808594 C 431.613281 156.300781 429.199219 158.375 425.273438 160.578125 C 422.632812 162.058594 419.195312 164.796875 417.382812 164.941406 C 415.960938 165.054688 414.824219 165.84375 413.691406 165.824219 C 412.59375 165.804688 412.109375 165.257812 410.070312 164.019531 C 408.195312 162.882812 408.277344 161.097656 405.640625 161.058594 C 402.558594 161.011719 401.804688 159.652344 398.472656 159.652344 C 397.050781 159.652344 395.988281 160.710938 393.777344 160.589844 C 391.710938 160.472656 389.273438 160.550781 387.410156 163.457031 C 386.652344 164.636719 385.71875 164.136719 384.722656 163.230469 C 384.140625 162.703125 383.949219 162.066406 383.402344 161.605469 C 382.890625 161.171875 382.023438 160.910156 381.40625 160.441406 "/>
<path style=" stroke:none;fill-rule:nonzero;fill:rgb(100%,100%,100%);fill-opacity:1;" d="M 433.191406 183.988281 L 433.257812 183.957031 C 433.59375 183.777344 433.695312 183.382812 433.679688 182.957031 C 433.664062 182.585938 433.554688 182.179688 433.445312 181.914062 C 433.421875 181.851562 433.394531 181.796875 433.367188 181.746094 C 432.714844 180.546875 432.164062 179.972656 431.425781 179.210938 L 431.070312 178.839844 C 430.445312 178.183594 429.828125 177.726562 429.269531 177.507812 C 428.671875 177.273438 428.136719 177.300781 427.710938 177.621094 C 426.910156 178.214844 427.164062 178.625 427.464844 179.105469 C 427.589844 179.304688 427.71875 179.523438 427.71875 179.765625 C 427.71875 180.4375 427.773438 180.878906 427.945312 181.269531 C 428.117188 181.664062 428.394531 181.988281 428.84375 182.4375 C 429.003906 182.59375 429.292969 182.765625 429.730469 182.933594 C 430.113281 183.078125 430.609375 183.230469 431.230469 183.378906 C 431.328125 183.402344 431.441406 183.507812 431.5625 183.621094 C 431.917969 183.957031 432.335938 184.347656 433.191406 183.988281 Z M 409.355469 183.109375 C 409.886719 183.277344 410.351562 183.464844 410.929688 183.695312 C 411.269531 183.832031 411.644531 183.984375 412.054688 184.140625 C 412.769531 184.414062 413.855469 184.988281 414.730469 185.578125 C 415.777344 186.277344 417.617188 186.886719 416.476562 185.367188 C 415.953125 184.871094 415.5625 184.3125 415.050781 183.609375 C 414.546875 182.914062 414.140625 182.144531 414.011719 181.359375 C 413.929688 180.855469 413.746094 180.300781 413.480469 179.894531 C 413.234375 179.523438 412.917969 179.269531 412.527344 179.242188 C 411.671875 179.191406 411.433594 179.796875 411.175781 180.445312 C 410.960938 181.007812 410.71875 181.609375 409.914062 181.617188 C 409.339844 181.625 408.890625 181.730469 408.648438 181.890625 C 408.515625 181.976562 408.425781 182.085938 408.394531 182.210938 C 408.355469 182.347656 408.382812 182.488281 408.488281 182.625 C 408.621094 182.796875 408.898438 182.96875 409.355469 183.109375 Z M 413.535156 171.445312 C 413.503906 171.910156 413.269531 172.382812 412.796875 172.851562 C 412.589844 173.054688 412.523438 173.359375 412.589844 173.652344 C 412.625 173.820312 412.699219 173.980469 412.8125 174.117188 C 412.929688 174.253906 413.085938 174.367188 413.277344 174.4375 C 413.726562 174.597656 414.378906 174.53125 415.21875 174.003906 C 415.972656 173.539062 416.855469 173.257812 417.824219 173.09375 C 418.777344 172.933594 419.820312 172.886719 420.910156 172.886719 C 422.710938 172.886719 424.601562 172.921875 426.316406 173.117188 C 428.058594 173.320312 429.628906 173.691406 430.773438 174.367188 C 432.371094 175.308594 433.933594 176.722656 435.144531 178.257812 C 436.347656 179.78125 437.277344 181.136719 438.171875 183.179688 C 439.007812 185.078125 439.199219 186.6875 439.3125 188.09375 C 439.417969 189.4375 439.519531 190.707031 440.34375 192.140625 C 441.300781 193.796875 442.136719 195.488281 442.773438 197.335938 C 443.414062 199.183594 443.851562 201.183594 444.003906 203.453125 C 444.050781 204.1875 444.160156 204.367188 444.261719 204.539062 C 444.398438 204.761719 444.523438 204.972656 444.5625 205.75 C 444.589844 206.308594 444.515625 206.652344 444.386719 206.820312 C 444.269531 206.972656 444.121094 207.019531 443.953125 206.976562 C 443.835938 206.945312 443.71875 206.863281 443.613281 206.734375 C 443.34375 206.414062 443.074219 205.722656 443.027344 204.914062 C 443.003906 204.519531 442.703125 204.144531 442.378906 203.738281 C 442.035156 203.308594 441.664062 202.847656 441.511719 202.25 C 441.40625 201.832031 441.242188 201.464844 440.996094 201.050781 C 440.742188 200.625 440.398438 200.144531 439.929688 199.511719 C 438.964844 198.203125 437.828125 196.910156 436.707031 195.742188 C 435.21875 194.195312 433.757812 192.875 432.734375 192.035156 C 432.367188 191.730469 431.964844 191.414062 431.5625 191.097656 C 430.828125 190.515625 430.074219 189.921875 429.5 189.398438 C 429.058594 188.992188 428.671875 189.089844 428.210938 189.203125 C 427.546875 189.367188 426.753906 189.566406 425.523438 188.804688 C 425.011719 188.488281 424.472656 188.277344 423.910156 188.140625 C 423.339844 188 422.746094 187.933594 422.140625 187.910156 C 421.066406 187.867188 420.609375 188.203125 420.203125 188.503906 C 419.839844 188.773438 419.511719 189.015625 418.902344 189.027344 C 418.238281 189.039062 417.894531 189.207031 417.503906 189.394531 C 416.984375 189.640625 416.386719 189.929688 415.003906 190.003906 C 414.214844 190.046875 413.667969 190.144531 413.183594 190.351562 C 412.699219 190.5625 412.261719 190.894531 411.710938 191.410156 C 410.910156 192.148438 410.535156 191.863281 410.019531 191.472656 C 409.734375 191.253906 409.390625 190.992188 408.839844 190.964844 C 407.410156 190.886719 405.953125 192.003906 404.617188 193.023438 C 404.429688 193.164062 404.242188 193.308594 404.039062 193.460938 C 403.464844 193.886719 402.902344 193.878906 402.082031 193.863281 L 401.84375 193.859375 C 400.941406 193.847656 400.484375 194.085938 400.003906 194.339844 C 399.433594 194.636719 398.832031 194.953125 397.539062 194.957031 C 396.800781 194.957031 396.148438 194.976562 395.5625 194.996094 C 392.136719 195.09375 390.820312 195.132812 386.414062 191.421875 C 385.839844 190.9375 384.65625 190.148438 383.265625 189.339844 C 382.078125 188.648438 380.746094 187.949219 379.519531 187.414062 C 378.855469 187.125 378.480469 187.140625 377.90625 187.160156 L 377.738281 187.164062 C 377.164062 187.183594 376.546875 187.007812 376.089844 186.714844 C 375.839844 186.550781 375.636719 186.347656 375.511719 186.121094 C 375.375 185.878906 375.332031 185.605469 375.414062 185.320312 C 375.492188 185.0625 375.675781 184.796875 376 184.546875 L 376.449219 184.191406 C 377.8125 183.117188 379.714844 181.621094 381.691406 180.46875 C 382.46875 180.019531 383.480469 179.640625 384.507812 179.390625 C 385.535156 179.140625 386.585938 179.011719 387.449219 179.066406 C 387.675781 179.078125 387.894531 179.089844 388.117188 179.097656 C 389.550781 179.15625 391.128906 179.222656 391.160156 180.195312 C 391.171875 180.578125 391.925781 180.578125 392.707031 180.574219 C 392.898438 180.574219 393.09375 180.574219 393.277344 180.578125 L 393.425781 180.582031 C 393.980469 180.597656 394.503906 180.613281 394.9375 180.578125 C 395.554688 180.535156 395.964844 180.394531 395.933594 180 C 395.914062 179.757812 395.1875 179.410156 394.257812 178.972656 C 393.027344 178.390625 391.480469 177.65625 390.5625 176.542969 C 390.480469 176.445312 390.355469 176.335938 390.226562 176.222656 C 389.980469 176.011719 389.726562 175.785156 389.621094 175.511719 C 389.445312 175.042969 389.699219 174.550781 391.089844 174.027344 C 391.4375 173.894531 391.773438 173.800781 392.09375 173.707031 C 393.058594 173.433594 393.871094 173.199219 393.875 172.300781 C 393.878906 172.144531 393.816406 172.023438 393.628906 171.96875 C 393.351562 171.886719 392.859375 171.910156 392.039062 172.09375 C 390.703125 172.394531 388.683594 172.441406 385.953125 172.507812 L 385.589844 172.515625 C 385.296875 172.519531 384.980469 172.53125 384.660156 172.542969 C 383.558594 172.582031 382.359375 172.621094 381.1875 172.53125 C 380.929688 172.511719 380.839844 172.609375 380.738281 172.714844 C 380.550781 172.910156 380.34375 173.128906 379.734375 173.140625 C 379.296875 173.148438 378.769531 172.664062 378.300781 172.222656 C 378.035156 171.980469 377.789062 171.75 377.628906 171.671875 C 376.65625 171.183594 376.441406 170.703125 376.90625 170.195312 C 377.261719 169.804688 378.144531 169.429688 379.496094 169.046875 C 379.796875 168.960938 380.140625 168.414062 380.253906 167.882812 C 380.292969 167.695312 380.300781 167.511719 380.261719 167.355469 C 380.230469 167.226562 380.160156 167.117188 380.046875 167.050781 C 379.769531 166.890625 379.226562 166.921875 378.300781 167.324219 L 378.199219 167.382812 C 377.738281 167.664062 376.277344 168.554688 374.253906 168.484375 C 373.382812 168.457031 372.367188 168.414062 371.753906 168.171875 C 370.976562 167.863281 370.734375 167.324219 371.742188 166.351562 C 372.164062 165.945312 372.59375 165.59375 372.964844 165.289062 C 373.554688 164.804688 373.984375 164.449219 373.96875 164.277344 C 373.957031 164.171875 373.769531 164.035156 373.519531 163.910156 C 373.199219 163.753906 372.796875 163.644531 372.488281 163.644531 C 372.007812 163.640625 371.449219 163.761719 370.78125 163.910156 C 369.769531 164.136719 368.511719 164.410156 366.847656 164.410156 C 365.574219 164.410156 364.738281 164.136719 364.308594 163.746094 C 364.085938 163.546875 363.964844 163.316406 363.929688 163.070312 C 363.898438 162.824219 363.964844 162.574219 364.113281 162.335938 C 364.402344 161.878906 365.039062 161.460938 365.972656 161.234375 C 367.507812 160.859375 368.640625 160.558594 369.175781 160.160156 C 369.609375 159.84375 369.578125 159.414062 368.941406 158.71875 C 368.40625 158.132812 367.664062 158.402344 366.476562 158.828125 C 365.945312 159.023438 365.328125 159.246094 364.613281 159.4375 C 364.398438 159.496094 364.136719 159.578125 363.84375 159.667969 C 362.304688 160.148438 359.976562 160.875 358.925781 159.886719 C 358.671875 159.644531 358.378906 159.316406 358.546875 158.753906 C 358.6875 158.273438 359.210938 157.628906 360.511719 156.722656 C 361.277344 156.1875 361.796875 155.636719 362.058594 155.113281 C 362.3125 154.613281 362.324219 154.140625 362.097656 153.75 C 361.910156 153.429688 361.660156 153.289062 361.328125 153.324219 C 360.933594 153.367188 360.421875 153.621094 359.769531 154.074219 C 358.78125 154.765625 357.964844 155.328125 357.304688 155.761719 C 356.644531 156.195312 356.136719 156.503906 355.777344 156.671875 C 355.546875 156.78125 355.351562 156.808594 355.203125 156.765625 C 355.046875 156.71875 354.945312 156.609375 354.902344 156.445312 C 354.871094 156.328125 354.878906 156.1875 354.925781 156.027344 C 355.039062 155.613281 355.429688 155.007812 356.109375 154.386719 L 356.117188 154.382812 C 356.34375 154.167969 356.546875 153.746094 356.617188 153.289062 C 356.6875 152.839844 356.621094 152.367188 356.324219 152.039062 L 356.316406 152.027344 C 356.285156 151.996094 356.253906 151.96875 356.226562 151.941406 C 356.027344 151.785156 355.78125 151.726562 355.523438 151.761719 C 355.246094 151.800781 354.960938 151.945312 354.691406 152.191406 C 354.621094 152.261719 354.546875 152.339844 354.480469 152.421875 C 354.304688 152.636719 354.125 152.875 353.945312 153.113281 C 353.3125 153.949219 352.707031 154.746094 352.070312 154.828125 C 351.457031 154.90625 351.003906 155.050781 350.5625 155.363281 C 350.105469 155.683594 349.652344 156.191406 349.054688 156.992188 C 348.96875 157.101562 348.878906 157.207031 348.777344 157.304688 C 348.453125 157.617188 348.035156 157.851562 347.5625 157.90625 C 347.089844 157.960938 346.566406 157.835938 346.03125 157.433594 C 345.886719 157.324219 345.746094 157.199219 345.601562 157.050781 C 344.757812 156.179688 344.308594 156.160156 343.625 156.824219 C 343.289062 157.148438 342.902344 157.609375 342.414062 158.199219 L 342.316406 158.316406 C 341.859375 158.867188 341.234375 159.496094 340.582031 160.164062 C 339.921875 160.835938 339.230469 161.539062 338.632812 162.230469 C 337.324219 163.75 335.535156 165.253906 333.945312 166.589844 C 333.046875 167.34375 332.210938 168.046875 331.570312 168.660156 C 330.867188 169.335938 330.292969 169.863281 329.785156 170.21875 C 329.246094 170.597656 328.777344 170.78125 328.316406 170.742188 C 327.828125 170.699219 327.527344 170.402344 327.355469 169.925781 C 327.199219 169.511719 327.144531 168.957031 327.128906 168.320312 C 327.121094 168.023438 327.007812 167.753906 326.816406 167.558594 C 326.667969 167.402344 326.472656 167.292969 326.246094 167.25 C 326.011719 167.207031 325.746094 167.234375 325.464844 167.351562 C 324.960938 167.5625 324.40625 168.066406 323.902344 168.984375 C 323.34375 169.992188 320.960938 171.910156 318.9375 173.53125 C 318.023438 174.265625 317.179688 174.941406 316.636719 175.429688 C 316.097656 175.914062 314.203125 177.074219 311.753906 178.417969 C 309.644531 179.578125 307.113281 180.878906 304.675781 182 C 304.421875 182.121094 304.136719 182.253906 303.863281 182.386719 C 302.605469 182.984375 301.558594 183.480469 300.496094 183.523438 C 299.925781 183.542969 299.417969 183.472656 299.089844 183.300781 C 298.882812 183.191406 298.742188 183.046875 298.679688 182.859375 C 298.617188 182.671875 298.644531 182.457031 298.773438 182.222656 C 298.972656 181.867188 299.4375 181.433594 300.273438 180.921875 C 302.433594 179.589844 303.921875 178.675781 305.183594 177.929688 C 306.460938 177.175781 307.535156 176.578125 308.859375 175.878906 C 310.050781 175.253906 311.929688 174.085938 313.652344 172.894531 C 315.121094 171.882812 316.480469 170.851562 317.203125 170.121094 C 317.613281 169.707031 317.859375 169.15625 317.851562 168.730469 C 317.851562 168.585938 317.816406 168.460938 317.746094 168.371094 C 317.683594 168.289062 317.578125 168.234375 317.4375 168.222656 C 317.015625 168.179688 316.3125 168.433594 315.253906 169.191406 C 313.382812 170.535156 311.855469 171.480469 310.101562 172.566406 C 309.566406 172.898438 309.007812 173.242188 308.382812 173.636719 L 307.1875 174.394531 C 304.96875 175.804688 302.363281 177.464844 299.894531 178.636719 C 298.558594 179.273438 296.9375 179.824219 295.351562 180.363281 C 294.769531 180.5625 294.191406 180.757812 293.628906 180.960938 L 293.121094 181.140625 C 291.03125 181.890625 289.109375 182.582031 286.671875 182.582031 C 283.425781 182.582031 281.539062 182.261719 280.699219 181.835938 C 280.324219 181.644531 280.125 181.417969 280.078125 181.175781 C 280.027344 180.910156 280.152344 180.660156 280.433594 180.433594 C 280.929688 180.035156 281.996094 179.679688 283.429688 179.503906 C 284.269531 179.398438 284.894531 179.152344 285.59375 178.878906 C 286 178.71875 286.433594 178.546875 286.960938 178.382812 L 288.160156 178.015625 C 290.710938 177.226562 293.753906 176.289062 296.359375 175.285156 C 297.464844 174.859375 298.40625 174.433594 299.347656 174.003906 C 300.105469 173.660156 300.859375 173.320312 301.703125 172.976562 C 303.214844 172.359375 305.285156 171.269531 307.65625 169.898438 C 310.03125 168.527344 312.71875 166.871094 315.460938 165.128906 C 315.917969 164.839844 316.402344 164.648438 316.894531 164.457031 C 317.464844 164.234375 318.039062 164.011719 318.566406 163.613281 C 319.039062 163.265625 319.484375 162.769531 319.921875 162.285156 C 320.414062 161.746094 320.890625 161.21875 321.394531 160.886719 C 322.109375 160.417969 322.753906 160.15625 323.363281 159.910156 C 323.828125 159.726562 324.277344 159.542969 324.714844 159.285156 C 325.644531 158.730469 326.527344 158.027344 327.261719 157.441406 C 327.664062 157.121094 328.027344 156.832031 328.328125 156.621094 C 328.828125 156.273438 329.386719 156.035156 329.9375 155.800781 C 330.429688 155.59375 330.914062 155.386719 331.324219 155.109375 C 332.464844 154.347656 333.394531 153.4375 334.320312 152.527344 C 335.277344 151.589844 336.230469 150.652344 337.410156 149.882812 C 338.105469 149.425781 339.164062 148.941406 340.230469 148.449219 C 340.902344 148.140625 341.578125 147.832031 342.171875 147.523438 C 342.621094 147.289062 342.945312 147.058594 343.253906 146.835938 C 343.652344 146.550781 344.027344 146.28125 344.605469 146.046875 C 345.179688 145.8125 345.738281 145.613281 346.257812 145.460938 C 346.789062 145.300781 347.285156 145.183594 347.722656 145.117188 C 349.351562 144.859375 350.035156 144.503906 350.574219 144.226562 C 351.070312 143.96875 351.453125 143.769531 352.269531 143.746094 C 356.519531 143.636719 358.269531 144.890625 361.273438 147.039062 L 361.828125 147.4375 C 364.484375 149.328125 367.554688 151.890625 370.902344 154.6875 C 375.761719 158.742188 381.214844 163.296875 386.820312 166.980469 C 389.980469 169.058594 390.878906 169.046875 391.839844 169.03125 C 392.503906 169.019531 393.195312 169.011719 394.558594 169.578125 C 395.09375 169.804688 395.964844 169.984375 396.96875 170.117188 C 398.121094 170.269531 399.4375 170.355469 400.59375 170.375 C 401.660156 170.390625 402.40625 170.121094 402.738281 169.742188 C 402.863281 169.601562 402.925781 169.445312 402.914062 169.285156 C 402.898438 169.117188 402.804688 168.933594 402.621094 168.753906 C 402.019531 168.152344 400.550781 167.621094 397.96875 167.535156 C 397.863281 167.53125 396.507812 167.296875 395.203125 167.054688 C 394.296875 166.886719 393.414062 166.710938 392.984375 166.609375 C 392.773438 166.554688 392.53125 166.507812 392.277344 166.453125 C 391.339844 166.265625 390.257812 166.042969 389.847656 165.53125 C 389.480469 165.078125 389.589844 164.480469 390.621094 163.648438 C 391.691406 162.789062 392.816406 162.21875 394.070312 161.882812 C 395.3125 161.546875 396.675781 161.433594 398.21875 161.488281 C 400.480469 161.566406 401.308594 162.191406 402.09375 162.785156 C 402.601562 163.167969 403.09375 163.539062 403.996094 163.714844 C 404.300781 163.773438 404.609375 163.820312 404.914062 163.867188 C 406.183594 164.058594 407.367188 164.234375 408.511719 165.382812 C 408.957031 165.824219 409.355469 166.210938 409.753906 166.597656 C 410.894531 167.703125 412.023438 168.804688 412.996094 169.988281 C 413.367188 170.445312 413.570312 170.933594 413.535156 171.445312 Z M 368.003906 186.535156 C 367.882812 186.035156 368.023438 185.363281 368.523438 184.808594 C 368.679688 184.636719 368.886719 184.472656 369.117188 184.339844 C 369.4375 184.15625 369.8125 184.023438 370.171875 183.996094 C 370.554688 183.964844 370.929688 184.054688 371.222656 184.320312 C 371.316406 184.40625 371.402344 184.511719 371.480469 184.640625 C 371.910156 185.382812 371.34375 185.808594 370.773438 186.234375 C 370.605469 186.359375 370.441406 186.484375 370.316406 186.609375 C 369.722656 187.207031 369.191406 187.390625 368.785156 187.320312 C 368.578125 187.285156 368.410156 187.1875 368.273438 187.042969 C 368.144531 186.910156 368.054688 186.734375 368.003906 186.535156 M 417.0625 167.269531 C 416.578125 167.355469 415.96875 167.632812 415.523438 168.015625 C 415.140625 168.347656 414.871094 168.765625 414.875 169.226562 C 414.878906 169.664062 415.164062 170.164062 415.734375 170.515625 C 416.171875 170.789062 416.78125 170.976562 417.554688 170.980469 C 418.386719 170.980469 419.136719 170.96875 419.851562 170.960938 C 421.753906 170.929688 423.402344 170.902344 425.601562 171.164062 C 425.980469 171.210938 426.613281 171.3125 427.300781 171.472656 C 427.796875 171.589844 428.320312 171.738281 428.789062 171.910156 C 429.5 172.175781 430.164062 172.40625 430.703125 172.453125 C 431.328125 172.507812 431.800781 172.335938 432.019531 171.746094 C 432.296875 171.015625 431.925781 170.601562 431.25 170.351562 C 430.671875 170.136719 429.859375 170.054688 429.070312 169.972656 C 428.785156 169.945312 428.5 169.914062 428.242188 169.882812 C 427.539062 169.792969 427.097656 169.511719 426.90625 169.179688 C 426.828125 169.035156 426.789062 168.886719 426.800781 168.738281 C 426.8125 168.589844 426.871094 168.4375 426.976562 168.300781 C 427.242188 167.941406 427.800781 167.664062 428.65625 167.644531 C 429.363281 167.628906 429.789062 167.757812 430.320312 167.917969 C 430.832031 168.070312 431.433594 168.253906 432.449219 168.375 C 433.75 168.527344 435.65625 168.480469 436.515625 168.457031 C 436.675781 168.453125 436.796875 168.449219 436.898438 168.449219 C 437.140625 168.449219 437.34375 168.320312 437.46875 168.117188 C 437.542969 168 437.589844 167.859375 437.597656 167.707031 C 437.605469 167.558594 437.578125 167.402344 437.507812 167.246094 C 437.359375 166.921875 437.015625 166.605469 436.386719 166.449219 C 435.660156 166.273438 434.664062 165.695312 433.984375 165.011719 C 433.726562 164.75 433.515625 164.480469 433.386719 164.214844 C 433.269531 163.96875 433.226562 163.730469 433.277344 163.515625 C 433.3125 163.382812 433.386719 163.25 433.507812 163.128906 C 434.433594 162.207031 435.214844 162.839844 436.261719 163.695312 C 436.789062 164.128906 437.382812 164.613281 438.089844 165.003906 C 439.429688 165.738281 440.230469 165.804688 441.300781 165.886719 C 441.960938 165.941406 442.726562 166 443.789062 166.238281 C 443.976562 166.28125 444.261719 166.210938 444.480469 166.035156 C 444.613281 165.929688 444.730469 165.785156 444.796875 165.613281 C 444.859375 165.433594 444.878906 165.226562 444.808594 164.988281 C 444.6875 164.570312 444.296875 164.058594 443.402344 163.480469 L 443.121094 163.300781 C 442.0625 162.621094 440.875 161.863281 440.777344 161.203125 C 440.730469 160.890625 440.695312 160.519531 440.804688 160.242188 C 440.902344 160.003906 441.140625 159.828125 441.644531 159.828125 C 442.460938 159.835938 443.105469 160.273438 443.914062 160.816406 C 445.113281 161.625 446.636719 162.652344 449.546875 162.953125 C 450.308594 163.03125 450.9375 162.835938 451.34375 162.511719 C 451.550781 162.351562 451.703125 162.152344 451.792969 161.945312 C 451.882812 161.722656 451.90625 161.488281 451.84375 161.257812 C 451.765625 160.957031 451.546875 160.675781 451.160156 160.460938 C 449.894531 159.757812 448.710938 158.839844 448.050781 157.988281 C 447.824219 157.695312 447.664062 157.414062 447.589844 157.160156 C 447.523438 156.9375 447.53125 156.738281 447.621094 156.570312 C 447.664062 156.492188 447.730469 156.417969 447.820312 156.347656 C 448.007812 156.203125 448.363281 155.957031 448.835938 155.96875 C 449.324219 155.984375 449.949219 156.269531 450.679688 157.214844 C 451.199219 157.886719 451.816406 158.273438 452.433594 158.660156 C 452.960938 158.988281 453.492188 159.320312 453.9375 159.832031 C 454.480469 160.453125 454.808594 160.507812 455.070312 160.277344 C 455.226562 160.144531 455.308594 159.914062 455.398438 159.660156 C 455.5625 159.214844 455.761719 158.652344 456.503906 158.890625 C 456.609375 158.925781 456.785156 158.925781 456.953125 158.867188 C 457.082031 158.824219 457.210938 158.742188 457.308594 158.617188 C 457.40625 158.492188 457.46875 158.324219 457.460938 158.109375 C 457.449219 157.859375 457.339844 157.539062 457.066406 157.136719 C 456.96875 156.988281 456.828125 156.730469 456.761719 156.460938 C 456.726562 156.320312 456.714844 156.175781 456.738281 156.050781 C 456.761719 155.945312 456.816406 155.851562 456.921875 155.78125 C 456.984375 155.738281 457.066406 155.703125 457.171875 155.675781 C 458.78125 155.277344 459.238281 156.269531 459.839844 157.578125 C 460.1875 158.328125 460.574219 159.175781 461.234375 159.957031 C 461.566406 160.355469 462.132812 160.648438 462.808594 160.996094 C 463.605469 161.40625 464.558594 161.898438 465.402344 162.714844 C 465.96875 163.261719 466.464844 163.699219 466.894531 164.046875 C 467.332031 164.398438 467.710938 164.660156 468.027344 164.839844 C 468.46875 165.089844 468.921875 165.253906 469.328125 165.304688 C 469.695312 165.351562 470.039062 165.304688 470.320312 165.144531 C 470.609375 164.984375 470.828125 164.710938 470.941406 164.308594 C 471.035156 163.988281 471.058594 163.585938 471 163.089844 C 470.984375 162.949219 470.957031 162.800781 470.929688 162.640625 C 470.796875 161.890625 470.613281 160.859375 471.429688 160.464844 C 471.929688 160.222656 472.34375 160.273438 472.769531 160.53125 C 473.230469 160.820312 473.722656 161.359375 474.328125 162.046875 C 474.421875 162.148438 474.519531 162.277344 474.636719 162.429688 C 475.046875 162.960938 475.667969 163.753906 476.613281 164.503906 C 477.972656 165.585938 479.695312 166.699219 481.546875 167.738281 C 483.496094 168.839844 485.59375 169.855469 487.546875 170.660156 C 488.476562 171.042969 489.277344 171.320312 490.007812 171.507812 C 490.742188 171.691406 491.402344 171.78125 492.050781 171.78125 C 493.636719 171.78125 494.203125 171.480469 494.203125 171.042969 C 494.203125 170.382812 492.609375 169.546875 491.664062 169.050781 L 491.554688 168.992188 C 490.980469 168.691406 490.285156 168.253906 489.6875 167.804688 C 489.191406 167.425781 488.773438 167.050781 488.574219 166.75 C 488.449219 166.5625 488.378906 166.386719 488.367188 166.230469 C 488.355469 166.136719 488.371094 166.050781 488.410156 165.972656 C 488.449219 165.890625 488.519531 165.816406 488.613281 165.75 C 488.808594 165.621094 489.109375 165.53125 489.523438 165.496094 C 490.085938 165.449219 490.71875 165.660156 491.441406 166.050781 C 492.191406 166.453125 493.035156 167.050781 494 167.746094 C 494.769531 168.304688 495.992188 168.90625 497.289062 169.34375 C 498.414062 169.726562 499.605469 169.980469 500.605469 169.972656 C 501.558594 169.964844 502.214844 169.890625 502.503906 169.695312 C 502.925781 169.402344 502.8125 169.007812 502.046875 168.445312 C 501.757812 168.230469 501.578125 168.035156 501.480469 167.832031 C 501.382812 167.632812 501.351562 167.40625 501.355469 167.140625 C 501.359375 166.917969 501.433594 166.785156 501.59375 166.714844 C 501.820312 166.613281 502.199219 166.585938 502.753906 166.574219 C 504.632812 166.535156 506.648438 166.8125 508.695312 167.09375 C 510.742188 167.378906 512.816406 167.664062 514.847656 167.644531 C 515.046875 167.644531 515.234375 167.640625 515.421875 167.636719 C 518.089844 167.589844 520.175781 167.371094 521.597656 167.0625 C 523.128906 166.726562 523.9375 166.242188 523.9375 165.695312 L 523.9375 165.6875 C 523.925781 165.15625 523.765625 164.839844 522.960938 164.664062 C 522.289062 164.519531 521.089844 164.476562 518.964844 164.472656 C 516.519531 164.46875 514.046875 164.355469 511.539062 164.152344 C 509.03125 163.945312 506.488281 163.644531 503.886719 163.257812 C 503.113281 163.140625 502.757812 162.964844 502.332031 162.75 C 501.632812 162.398438 500.757812 161.960938 497.847656 161.535156 C 496.34375 161.316406 493.878906 160.726562 491.078125 159.925781 C 488.339844 159.148438 485.285156 158.175781 482.503906 157.164062 C 480.699219 156.511719 479.964844 155.980469 479.214844 155.433594 C 478.460938 154.886719 477.691406 154.328125 475.867188 153.636719 C 475.523438 153.507812 475.171875 153.378906 474.8125 153.25 C 473.507812 152.773438 472.195312 152.300781 471.109375 151.640625 C 470.601562 151.332031 470.152344 150.972656 469.703125 150.613281 C 469.054688 150.097656 468.402344 149.574219 467.558594 149.175781 C 465.53125 148.226562 463.628906 147.371094 461.710938 146.746094 C 459.773438 146.117188 457.816406 145.722656 455.679688 145.6875 C 453.878906 145.660156 452.023438 146.035156 450.144531 146.699219 C 448.277344 147.363281 446.386719 148.316406 444.503906 149.445312 C 443.917969 149.800781 443.398438 150.3125 442.878906 150.828125 C 442.507812 151.199219 442.128906 151.574219 441.734375 151.878906 C 441.3125 152.203125 440.851562 152.453125 440.382812 152.714844 C 439.839844 153.007812 439.289062 153.3125 438.746094 153.746094 C 437.199219 154.984375 435.644531 156.203125 434.050781 157.425781 C 432.464844 158.636719 430.828125 159.851562 429.101562 161.089844 C 427.074219 162.539062 425.105469 163.902344 423.117188 164.996094 C 421.140625 166.082031 419.148438 166.902344 417.0625 167.269531 M 500.964844 172.347656 C 500.820312 172.132812 500.832031 171.886719 501.140625 171.679688 C 501.339844 171.546875 501.589844 171.398438 501.808594 171.371094 C 502.128906 171.335938 502.367188 171.480469 502.367188 172.015625 C 502.367188 172.515625 502.046875 172.695312 501.695312 172.695312 C 501.554688 172.695312 501.410156 172.660156 501.285156 172.605469 C 501.152344 172.546875 501.035156 172.453125 500.964844 172.347656 "/>
<path style=" stroke:none;fill-rule:nonzero;fill:rgb(12.205505%,5.499268%,50.584412%);fill-opacity:1;" d="M 430.6875 236.496094 C 430.371094 236.496094 427.757812 236.492188 427.429688 236.492188 C 426.480469 236.492188 424.578125 236.230469 424.578125 234.988281 L 424.578125 228.207031 C 424.578125 227.179688 426.148438 226.585938 426.933594 226.585938 L 430.289062 226.585938 C 432.34375 226.585938 435.015625 228.070312 435.015625 231.136719 C 435.015625 234.394531 433.484375 236.511719 430.6875 236.496094 M 424.578125 213.226562 C 424.578125 212.269531 426.007812 211.714844 426.726562 211.714844 C 427.003906 211.714844 429.527344 211.714844 429.785156 211.714844 C 431.65625 211.714844 434.089844 213.097656 434.089844 215.957031 C 434.089844 218.992188 432.699219 220.964844 430.148438 220.949219 C 429.859375 220.949219 427.476562 220.945312 427.175781 220.945312 C 426.3125 220.945312 424.578125 220.703125 424.578125 219.546875 Z M 440.675781 226.648438 C 439.722656 225.050781 438.65625 224.484375 436.910156 223.742188 C 436.472656 223.554688 436.328125 222.667969 436.800781 222.417969 C 439.800781 220.820312 440.9375 217.371094 440.925781 214.359375 C 440.898438 207.234375 437.699219 205.671875 431.617188 205.671875 L 419.242188 205.671875 C 417.996094 205.671875 417.636719 206.039062 417.636719 207.171875 L 417.636719 241.59375 C 417.636719 242.605469 417.800781 242.960938 419.085938 242.960938 L 432.265625 242.953125 C 439.65625 242.953125 442.113281 239.296875 442.113281 232.304688 C 442.113281 230.140625 441.632812 228.253906 440.675781 226.648438 "/>
<path style=" stroke:none;fill-rule:nonzero;fill:rgb(12.205505%,5.499268%,50.584412%);fill-opacity:1;" d="M 383.855469 231.402344 L 379.914062 229.652344 C 379.097656 229.289062 378.671875 229.296875 378.441406 230.039062 C 377.6875 232.519531 377.359375 233.402344 376.234375 234.671875 C 375.105469 235.945312 373.765625 236.4375 372.195312 236.4375 C 370.078125 236.4375 368.855469 235.789062 367.527344 233.785156 C 366.203125 231.785156 365.789062 228.441406 365.789062 223.722656 C 365.789062 220.878906 365.714844 217.480469 367.664062 215.035156 C 368.769531 213.652344 370.441406 212.113281 372.566406 212.113281 C 374.398438 212.113281 376.914062 213.84375 377.878906 216.429688 C 378.160156 217.175781 378.8125 217.304688 379.28125 217.164062 L 383.421875 215.9375 C 384.515625 215.613281 383.875 213.890625 383.511719 213.0625 C 381.222656 207.894531 378.496094 204.96875 372.144531 204.96875 C 368.058594 204.96875 364.976562 206.140625 362.476562 209.574219 C 359.964844 213.011719 358.746094 217.898438 358.746094 224.109375 C 358.746094 229.304688 359.730469 236.101562 363.128906 239.847656 C 366.035156 243.054688 367.753906 243.632812 372.144531 243.632812 C 376.445312 243.632812 379.144531 242.632812 380.976562 240.460938 C 382.679688 238.433594 383.539062 236.46875 384.515625 232.617188 C 384.714844 231.828125 384.210938 231.558594 383.855469 231.402344 "/>
<path style=" stroke:none;fill-rule:nonzero;fill:rgb(12.205505%,5.499268%,50.584412%);fill-opacity:1;" d="M 409.335938 205.703125 L 392.570312 205.710938 C 391.023438 205.710938 390.914062 206.339844 390.914062 207.640625 L 390.914062 241.414062 C 390.914062 242.472656 390.875 242.894531 392.140625 242.894531 L 396.785156 242.894531 C 397.964844 242.894531 397.984375 242.636719 397.992188 241.460938 L 398.0625 228.734375 C 398.074219 227.003906 398.414062 226.945312 399.753906 226.949219 L 407.707031 226.953125 C 408.898438 226.953125 409.101562 226.410156 409.101562 225.585938 L 409.101562 221.960938 C 409.101562 221.21875 408.957031 221.054688 407.207031 221.054688 L 400.367188 221.050781 C 399.5625 221.050781 398.0625 221.296875 398.0625 220.082031 L 398.0625 213.261719 C 398.0625 212.230469 398.691406 212.195312 399.894531 212.195312 L 409.234375 212.199219 C 410.671875 212.199219 410.75 211.804688 410.75 210.632812 L 410.75 207.222656 C 410.75 206.324219 410.75 205.703125 409.335938 205.703125 "/>
<path style=" stroke:none;fill-rule:nonzero;fill:rgb(90.234375%,95.701599%,11.401367%);fill-opacity:1;" d="M 408.972656 262.820312 L 465.214844 262.820312 C 467.355469 262.820312 468.042969 263.976562 467.453125 265.296875 L 406.972656 400.597656 L 406.972656 264.734375 C 406.972656 263.367188 407.085938 262.820312 408.972656 262.820312 "/>
<path style=" stroke:none;fill-rule:nonzero;fill:rgb(90.234375%,95.701599%,11.401367%);fill-opacity:1;" d="M 394.328125 262.820312 L 394.328125 388.949219 L 399.53125 400.59375 L 399.53125 264.734375 C 399.53125 263.367188 399.421875 262.820312 397.535156 262.820312 Z M 380.441406 262.820312 L 380.441406 357.890625 L 386.703125 371.894531 L 386.703125 262.820312 Z M 366.667969 262.820312 L 366.667969 327.074219 L 372.816406 340.832031 L 372.816406 262.820312 Z M 352.726562 262.820312 L 352.726562 295.890625 L 359.042969 310.019531 L 359.042969 262.820312 Z M 345.105469 278.832031 L 345.105469 262.820312 L 341.289062 262.820312 C 339.148438 262.820312 338.464844 263.976562 339.054688 265.296875 "/>
<path style=" stroke:none;fill-rule:nonzero;fill:rgb(99.21875%,7.495117%,7.495117%);fill-opacity:1;" d="M 386.703125 262.820312 L 386.703125 371.894531 L 394.328125 388.949219 L 394.328125 262.820312 Z M 372.816406 262.820312 L 372.816406 340.832031 L 380.441406 357.890625 L 380.441406 262.820312 Z M 359.042969 262.820312 L 359.042969 310.019531 L 366.667969 327.074219 L 366.667969 262.820312 Z M 345.105469 262.820312 L 345.105469 278.832031 L 352.726562 295.890625 L 352.726562 262.820312 "/>
<path style=" stroke:none;fill-rule:nonzero;fill:rgb(100%,100%,100%);fill-opacity:1;" d="M 462.300781 265.359375 L 410.769531 265.363281 C 410.144531 265.363281 409.347656 265.253906 409.347656 266.421875 L 409.347656 388.042969 L 463.511719 267.214844 C 464.125 265.84375 463.785156 265.359375 462.300781 265.359375 "/>
<path style=" stroke:none;fill-rule:nonzero;fill:rgb(12.205505%,5.499268%,50.584412%);fill-opacity:1;" d="M 409.347656 351.902344 C 412.804688 352.03125 413.265625 353.140625 413.265625 357.21875 C 413.265625 360.523438 412.601562 363.226562 414.855469 364.984375 C 415.75 365.683594 417.179688 366.171875 419.132812 366.214844 L 429.960938 342.0625 C 425.816406 342.117188 423.929688 343.789062 423.929688 348.070312 C 423.929688 352.992188 425.253906 356.429688 419.375 356.429688 C 413.496094 356.429688 414.824219 352.992188 414.824219 348.070312 C 414.824219 343.984375 413.101562 342.277344 409.347656 342.082031 Z M 417.144531 339.9375 C 418.078125 340.667969 419.601562 341.167969 421.691406 341.167969 C 423.785156 341.167969 425.25 340.667969 426.1875 339.9375 C 428.4375 338.175781 427.773438 335.472656 427.773438 332.167969 C 427.773438 327.808594 428.320312 326.839844 432.472656 326.839844 C 434.515625 326.839844 435.679688 327.074219 436.335938 327.832031 L 438.699219 322.558594 C 438.566406 318.546875 436.601562 317.011719 432.464844 317.011719 C 428.171875 317.011719 426.21875 318.664062 426.21875 323.019531 C 426.21875 327.941406 427.539062 331.378906 421.664062 331.378906 C 415.785156 331.378906 417.109375 327.941406 417.109375 323.019531 C 417.109375 318.664062 415.15625 317.011719 410.863281 317.011719 C 410.320312 317.011719 409.816406 317.039062 409.347656 317.09375 L 409.347656 326.902344 C 409.792969 326.859375 410.296875 326.839844 410.871094 326.839844 C 415.027344 326.839844 415.554688 327.808594 415.554688 332.167969 C 415.554688 335.472656 414.890625 338.175781 417.144531 339.9375 M 415.03125 315.164062 C 415.96875 315.898438 417.488281 316.398438 419.582031 316.398438 C 421.675781 316.398438 423.140625 315.898438 424.074219 315.164062 C 426.328125 313.40625 425.664062 310.703125 425.664062 307.398438 C 425.664062 303.039062 426.210938 302.070312 430.363281 302.070312 C 434.515625 302.070312 435.039062 303.039062 435.039062 307.398438 C 435.039062 310.703125 434.378906 313.40625 436.628906 315.164062 C 437.566406 315.898438 439.03125 316.398438 441.125 316.398438 C 441.238281 316.398438 441.355469 316.394531 441.464844 316.390625 L 452.289062 292.242188 C 452.179688 292.242188 452.066406 292.242188 451.949219 292.242188 C 447.660156 292.242188 445.707031 293.894531 445.707031 298.25 C 445.707031 303.171875 447.03125 306.609375 441.152344 306.609375 C 435.273438 306.609375 436.597656 303.171875 436.597656 298.25 C 436.597656 293.894531 434.644531 292.242188 430.351562 292.242188 C 426.0625 292.242188 424.105469 293.894531 424.105469 298.25 C 424.105469 303.171875 425.429688 306.609375 419.554688 306.609375 C 413.675781 306.609375 415 303.171875 415 298.25 C 415 294.097656 413.226562 292.402344 409.347656 292.253906 L 409.347656 302.078125 C 412.964844 302.175781 413.441406 303.253906 413.441406 307.398438 C 413.441406 310.703125 412.78125 313.40625 415.03125 315.164062 M 417.253906 290.894531 C 418.191406 291.625 419.710938 292.125 421.804688 292.125 C 423.894531 292.125 425.359375 291.625 426.296875 290.894531 C 428.550781 289.136719 427.886719 286.433594 427.886719 283.125 C 427.886719 278.769531 428.429688 277.800781 432.582031 277.800781 C 436.734375 277.800781 437.261719 278.769531 437.261719 283.125 C 437.261719 286.433594 436.601562 289.136719 438.851562 290.894531 C 439.789062 291.625 441.253906 292.125 443.347656 292.125 C 445.4375 292.125 446.960938 291.625 447.894531 290.894531 C 450.148438 289.136719 449.484375 286.433594 449.484375 283.125 C 449.484375 278.769531 450.03125 277.800781 454.183594 277.800781 C 456.414062 277.800781 457.601562 278.078125 458.21875 279.019531 L 460.417969 274.113281 L 460.417969 273.980469 C 460.417969 269.621094 458.464844 267.972656 454.171875 267.972656 C 449.882812 267.972656 447.925781 269.621094 447.925781 273.980469 C 447.925781 278.898438 449.25 282.339844 443.375 282.339844 C 437.496094 282.339844 438.820312 278.898438 438.820312 273.980469 C 438.820312 269.621094 436.867188 267.972656 432.574219 267.972656 C 428.285156 267.972656 426.328125 269.621094 426.328125 273.980469 C 426.328125 278.898438 427.652344 282.339844 421.773438 282.339844 C 415.898438 282.339844 417.222656 278.898438 417.222656 273.980469 C 417.222656 269.621094 415.269531 267.972656 410.976562 267.972656 C 410.390625 267.972656 409.847656 268.003906 409.347656 268.066406 L 409.347656 277.871094 C 409.820312 277.820312 410.359375 277.800781 410.984375 277.800781 C 415.136719 277.800781 415.664062 278.769531 415.664062 283.125 C 415.664062 286.433594 415 289.136719 417.253906 290.894531 "/>
<path style=" stroke:none;fill-rule:nonzero;fill:rgb(99.21875%,7.495117%,7.495117%);fill-opacity:1;" d="M 328.328125 257.90625 C 328.058594 257.898438 327.832031 258.101562 327.554688 258.339844 L 321.878906 263.257812 C 321.117188 263.914062 320.671875 263.574219 321.023438 262.640625 L 324.613281 253.070312 L 318.230469 249.125 C 317.316406 248.558594 317.570312 248.113281 318.574219 248.113281 L 325.746094 248.117188 L 327.570312 241.691406 C 327.683594 241.292969 327.921875 240.683594 328.328125 240.683594 C 328.742188 240.683594 328.980469 241.292969 329.09375 241.691406 L 330.914062 248.117188 L 338.085938 248.113281 C 339.09375 248.113281 339.34375 248.558594 338.429688 249.125 L 332.050781 253.070312 L 335.640625 262.640625 C 335.988281 263.574219 335.546875 263.914062 334.785156 263.257812 L 329.105469 258.339844 C 328.828125 258.101562 328.605469 257.898438 328.328125 257.90625 "/>
<path style=" stroke:none;fill-rule:nonzero;fill:rgb(90.234375%,95.701599%,11.401367%);fill-opacity:1;" d="M 329.789062 247.683594 L 332.722656 247.683594 L 332.722656 253.570312 C 332.722656 254.15625 332.632812 254.703125 332.457031 255.222656 C 332.28125 255.742188 332.007812 256.195312 331.632812 256.585938 C 331.261719 256.972656 330.867188 257.246094 330.457031 257.402344 C 329.886719 257.621094 329.203125 257.730469 328.398438 257.730469 C 327.9375 257.730469 327.433594 257.699219 326.886719 257.632812 C 326.339844 257.566406 325.882812 257.429688 325.515625 257.230469 C 325.148438 257.03125 324.8125 256.746094 324.507812 256.378906 C 324.199219 256.011719 323.992188 255.632812 323.878906 255.238281 C 323.699219 254.613281 323.609375 254.054688 323.609375 253.570312 L 323.609375 247.683594 L 326.539062 247.683594 L 326.539062 253.710938 C 326.539062 254.25 326.683594 254.671875 326.96875 254.972656 C 327.257812 255.277344 327.65625 255.429688 328.167969 255.429688 C 328.671875 255.429688 329.070312 255.277344 329.359375 254.980469 C 329.644531 254.683594 329.789062 254.257812 329.789062 253.710938 "/>
<path style=" stroke:none;fill-rule:nonzero;fill:rgb(99.21875%,7.495117%,7.495117%);fill-opacity:1;" d="M 478.175781 257.90625 C 478.445312 257.898438 478.675781 258.101562 478.949219 258.339844 L 484.628906 263.257812 C 485.390625 263.914062 485.832031 263.574219 485.484375 262.640625 L 481.894531 253.070312 L 488.273438 249.125 C 489.1875 248.558594 488.9375 248.113281 487.929688 248.113281 L 480.757812 248.117188 L 478.9375 241.691406 C 478.824219 241.292969 478.585938 240.683594 478.175781 240.683594 C 477.765625 240.683594 477.527344 241.292969 477.414062 241.691406 L 475.59375 248.117188 L 468.417969 248.113281 C 467.414062 248.113281 467.160156 248.558594 468.074219 249.125 L 474.453125 253.070312 L 470.867188 262.640625 C 470.515625 263.574219 470.960938 263.914062 471.722656 263.257812 L 477.398438 258.339844 C 477.675781 258.101562 477.902344 257.898438 478.175781 257.90625 "/>
<path style=" stroke:none;fill-rule:nonzero;fill:rgb(90.234375%,95.701599%,11.401367%);fill-opacity:1;" d="M 474.53125 247.765625 L 482.398438 247.765625 L 482.398438 249.871094 L 477.472656 249.871094 L 477.472656 251.445312 L 482.046875 251.445312 L 482.046875 253.457031 L 477.472656 253.457031 L 477.472656 255.402344 L 482.546875 255.402344 L 482.546875 257.640625 L 474.53125 257.640625 "/>
<path style=" stroke:none;fill-rule:nonzero;fill:rgb(99.21875%,7.495117%,7.495117%);fill-opacity:1;" d="M 403.253906 423.523438 C 402.980469 423.519531 402.753906 423.71875 402.476562 423.960938 L 396.800781 428.871094 C 396.039062 429.53125 395.59375 429.191406 395.945312 428.257812 L 399.535156 418.6875 L 393.152344 414.742188 C 392.238281 414.175781 392.492188 413.730469 393.496094 413.730469 L 400.671875 413.738281 L 402.492188 407.308594 C 402.605469 406.910156 402.84375 406.300781 403.253906 406.300781 C 403.664062 406.300781 403.902344 406.910156 404.015625 407.308594 L 405.835938 413.738281 L 413.007812 413.730469 C 414.015625 413.730469 414.265625 414.175781 413.351562 414.742188 L 406.972656 418.6875 L 410.5625 428.257812 C 410.910156 429.191406 410.46875 429.53125 409.707031 428.871094 L 404.027344 423.960938 C 403.75 423.71875 403.523438 423.519531 403.253906 423.523438 "/>
<path style=" stroke:none;fill-rule:nonzero;fill:rgb(90.234375%,95.701599%,11.401367%);fill-opacity:1;" d="M 402.1875 421.109375 L 403.6875 421.109375 C 404.191406 421.109375 404.546875 421.015625 404.753906 420.828125 C 404.964844 420.644531 405.066406 420.394531 405.066406 420.078125 C 405.066406 419.785156 404.964844 419.550781 404.757812 419.375 C 404.550781 419.199219 404.195312 419.109375 403.679688 419.109375 L 402.1875 419.109375 Z M 402.1875 417.230469 L 403.464844 417.230469 C 403.921875 417.230469 404.242188 417.144531 404.421875 416.984375 C 404.601562 416.816406 404.691406 416.582031 404.691406 416.273438 C 404.691406 415.984375 404.601562 415.757812 404.421875 415.597656 C 404.242188 415.4375 403.929688 415.355469 403.484375 415.355469 L 402.1875 415.355469 Z M 399.222656 413.355469 L 404.722656 413.355469 C 405.640625 413.355469 406.34375 413.589844 406.835938 414.0625 C 407.324219 414.535156 407.570312 415.117188 407.570312 415.8125 C 407.570312 416.394531 407.394531 416.898438 407.046875 417.316406 C 406.8125 417.59375 406.46875 417.816406 406.019531 417.976562 C 406.703125 418.148438 407.203125 418.441406 407.527344 418.855469 C 407.847656 419.269531 408.011719 419.792969 408.011719 420.421875 C 408.011719 420.933594 407.894531 421.394531 407.664062 421.800781 C 407.4375 422.210938 407.125 422.535156 406.726562 422.773438 C 406.480469 422.921875 406.109375 423.027344 405.609375 423.09375 C 404.949219 423.1875 404.511719 423.230469 404.292969 423.230469 L 399.222656 423.230469 "/>
</g>
</svg>
