<?xml version="1.0" encoding="UTF-8"?>
<svg id="Layer_2" data-name="Layer 2" xmlns="http://www.w3.org/2000/svg" xmlns:xlink="http://www.w3.org/1999/xlink" viewBox="0 0 33.56 19.58">
  <defs>
    <style>
      .cls-1 {
        clip-path: url(#clippath);
      }

      .cls-2 {
        fill: none;
      }

      .cls-2, .cls-3, .cls-4, .cls-5 {
        stroke-width: 0px;
      }

      .cls-6 {
        clip-path: url(#clippath-1);
      }

      .cls-7 {
        clip-path: url(#clippath-3);
      }

      .cls-8 {
        clip-path: url(#clippath-2);
      }

      .cls-4 {
        fill: #f4c638;
      }

      .cls-5 {
        fill: #1b257d;
      }
    </style>
    <clipPath id="clippath">
      <rect class="cls-2" width="33.56" height="19.58"/>
    </clipPath>
    <clipPath id="clippath-1">
      <rect class="cls-2" width="33.56" height="19.58"/>
    </clipPath>
    <clipPath id="clippath-2">
      <rect class="cls-2" width="33.56" height="19.58"/>
    </clipPath>
    <clipPath id="clippath-3">
      <rect class="cls-2" width="33.56" height="19.58"/>
    </clipPath>
  </defs>
  <g id="Layer_1-2" data-name="Layer 1">
    <g id="BARBADOS">
      <g>
        <g class="cls-1">
          <rect class="cls-5" width="33.56" height="19.58"/>
        </g>
        <g class="cls-6">
          <rect class="cls-4" x="11.19" width="11.19" height="19.58"/>
        </g>
        <g class="cls-8">
          <g class="cls-7">
            <path class="cls-3" d="m16.78,4.37c-.36.99-.73,2.02-1.53,2.81.25-.08.68-.15.95-.15v4.17l-1.18.17s-.06-.07-.06-.16c-.11-1.29-.42-2.38-.77-3.51-.03-.15-.47-.74-.13-.64.04,0,.5.2.43.1-.62-.65-1.54-1.11-2.43-1.26-.08-.02-.12.02-.05.11,1.18,1.82,2.17,3.96,2.16,6.51.46,0,1.57-.27,2.03-.27v2.94h1.15v-2.94c.46,0,1.57.27,2.03.27,0-2.54.98-4.69,2.16-6.51.07-.09.02-.13-.06-.11-.89.14-1.8.61-2.43,1.26-.07.09.39-.1.43-.1.34-.1-.1.49-.13.64-.35,1.12-.66,2.21-.77,3.51,0,.09-.01.16-.06.16l-1.18-.17v-4.17c.28,0,.71.07.95.15-.79-.79-1.16-1.82-1.52-2.81"/>
          </g>
        </g>
      </g>
    </g>
  </g>
</svg>