<?xml version="1.0" encoding="UTF-8"?>
<svg id="Layer_2" data-name="Layer 2" xmlns="http://www.w3.org/2000/svg" viewBox="0 0 336.64 563.03">
  <defs>
    <style>
      .cls-1 {
        fill: #111;
      }

      .cls-1, .cls-2, .cls-3, .cls-4, .cls-5, .cls-6, .cls-7, .cls-8, .cls-9, .cls-10, .cls-11, .cls-12 {
        stroke-width: 0px;
      }

      .cls-2 {
        fill: #e38082;
      }

      .cls-3 {
        fill: #cbcdcd;
      }

      .cls-4 {
        fill: #ce2a2c;
      }

      .cls-5 {
        fill: #ce282a;
      }

      .cls-6 {
        fill: #ce292b;
      }

      .cls-7 {
        fill: #d75657;
      }

      .cls-8 {
        fill: #cf2b2d;
      }

      .cls-9 {
        fill: #9ca7a7;
      }

      .cls-10 {
        fill: #f3dbdb;
      }

      .cls-11 {
        fill: #fff;
      }

      .cls-12 {
        fill: #fffefe;
      }
    </style>
  </defs>
  <g id="Ebene_1" data-name="Ebene 1">
    <g>
      <path class="cls-1" d="m336.64,258.26v46.13c-.29.29-.16.66-.19,1,0,.37,0,.73,0,1.1,0,.58,0,1.15,0,1.73,0,.49,0,.99,0,1.48.05,12.41-1.5,24.68-3.21,36.94-2.31,16.56-5.58,32.93-9.9,49.09-5.12,19.18-11.56,37.89-19.85,55.95-5.94,12.95-12.59,25.5-20.4,37.43-6.24,9.53-13.06,18.59-20.69,27.06-9.52,10.57-20,20.04-31.95,27.81-14.79,9.62-30.76,16.2-48.34,18.51-3.58.47-7.21.39-10.82.55-1.71,0-3.42,0-5.13,0-15.16.14-29.39-3.77-43.03-10.07-12.72-5.88-24.08-13.82-34.5-23.18-14.38-12.92-26.3-27.88-36.54-44.19-15.71-25.03-26.96-52.03-35.3-80.31-6.32-21.43-10.72-43.26-13.52-65.41-1.26-10.01-2.21-20.05-2.76-30.13C.22,304.74.12,299.73,0,294.72c0-8.92,0-17.84,0-26.75.06-11.36.89-22.68,2.01-33.99,2.03-20.45,5.49-40.66,10.43-60.6,5.18-20.95,12.01-41.37,20.88-61.05,9.99-22.17,22.23-42.98,38.03-61.58,13.79-16.24,29.68-29.94,48.81-39.58,10.62-5.35,21.83-9.02,33.65-10.64C156.83.12,159.88-.01,162.92,0c.54,0,1.08,0,1.63,0,2.75,0,5.5,0,8.25,0,.54,0,1.08,0,1.62,0,13.13-.02,25.47,3.5,37.39,8.65,13.29,5.75,25.12,13.81,35.96,23.35,11.35,9.99,21.12,21.41,29.9,33.68,9.34,13.06,17.17,27,24.05,41.48,7.48,15.75,13.46,32.08,18.48,48.76,5.35,17.79,9.29,35.89,12.17,54.23,1.53,9.72,2.77,19.48,3.6,29.28.38,4.48.53,8.99.47,13.49,0,.59,0,1.19,0,1.78,0,.48,0,.96,0,1.44,0,.37,0,.73,0,1.1.03.34-.1.71.19,1.01Z"/>
      <path class="cls-11" d="m328.75,281.39c.04,13.21-.4,26.41-1.54,39.58-1.2,13.93-2.97,27.77-5.5,41.51-5.88,32.03-15.13,63-29.31,92.39-9.06,18.77-19.93,36.4-33.56,52.25-10.97,12.75-23.34,23.87-37.89,32.45-11.48,6.76-23.72,11.48-36.9,13.62-8.57,1.39-17.17,1.62-25.82.65-16.73-1.87-31.93-7.84-46.02-16.88-14.2-9.12-26.22-20.63-36.85-33.65-14.07-17.23-25.08-36.31-34.14-56.56-9.07-20.26-15.89-41.28-21.04-62.86-2.75-11.55-4.99-23.2-6.74-34.93-1.62-10.87-2.81-21.78-3.63-32.74-.93-12.49-1.39-24.99-1.3-37.5.09-12.2.62-24.37,1.65-36.53,1.01-11.84,2.42-23.62,4.38-35.33,5.41-32.23,14.17-63.48,27.78-93.27,8.88-19.42,19.61-37.72,33.17-54.28,10.81-13.21,23.06-24.84,37.54-34.01,11.97-7.58,24.83-12.96,38.81-15.45,15.73-2.8,31.23-1.68,46.45,3.18,15.09,4.81,28.41,12.77,40.54,22.84,12.55,10.42,23.17,22.6,32.51,35.92,13.23,18.86,23.45,39.31,31.67,60.78,6.58,17.21,11.72,34.85,15.69,52.84,3.12,14.14,5.49,28.41,7.15,42.79,1.64,14.2,2.67,28.45,2.88,42.75.05,3.49,0,6.98,0,10.48Z"/>
      <path class="cls-5" d="m229.5,95.13c.89,3.57,2.09,7.05,2.88,10.64,1.55,7.12,2.26,14.27,1.46,21.56-.81,7.39-3.88,13.76-8.5,19.42-5.42,6.64-12.65,10.45-20.76,12.72-3.62,1.01-7.32,1.54-11.09,1.54-1.19,0-2.34-.17-3.82-.5,1.03-.89,1.83-1.57,2.62-2.28,4.06-3.65,7.55-7.74,9.55-12.89,3.27-8.42,1.95-16.19-3.63-23.24-.86-1.09-1.87-2.08-2.83-3.09-.43-.46-.92-.86-1.58-1.47-3.73,13.41-13.06,21.54-24.98,27.5-.37-.65-.24-1.22-.24-1.74,0-40.34,0-80.68,0-121.02,0-.32.02-.64,0-.95-.04-.65.25-.93.9-.9.95.04,1.91.03,2.86.08,17.37.9,33.06,6.74,47.54,16.14,13.67,8.87,25.2,20.08,35.39,32.72,14.58,18.08,25.76,38.15,34.82,59.46,8.26,19.44,14.49,39.53,19.13,60.12,2.46,10.9,4.44,21.89,5.98,32.95,1.25,9.06,2.19,18.15,2.86,27.27.83,11.22,1.19,22.45,1.16,33.69-.03,11.82-.56,23.61-1.54,35.39-1.66,19.9-4.69,39.57-9.25,59.01-6,25.61-14.45,50.35-26.28,73.88-8.88,17.66-19.44,34.21-32.62,49.02-10.5,11.8-22.3,22.04-36.15,29.78-10.45,5.85-21.57,9.81-33.46,11.47-3.33.47-6.7.66-10.06.77-1.24.04-1.24,0-1.28-1.27-.01-.44,0-.89,0-1.33,0-107.99,0-215.99.01-323.98,0-2.84-.7-2.79,2.75-2.51,18.26,1.5,35.72-1.44,52.04-9.86,13.32-6.87,23.78-16.81,30.71-30.25,4.63-8.97,5.99-18.52,4.97-28.47-1.41-13.81-7.13-25.8-15.49-36.69-3.93-5.12-8.43-9.65-13.59-13.53-.83-.1-.72.34-.49.85Z"/>
      <path class="cls-1" d="m148.33,501.05c-8.61-11.71-17.3-23.37-25.83-35.14-16.87-23.29-33.13-47-47.95-71.67-7.78-12.95-15.05-26.18-20.96-40.11-3.8-8.95-6.99-18.1-8.82-27.67-1.32-6.89-1.89-13.82-1.03-20.83.96-7.87,3.65-15.13,7.53-21.99,5.6-9.91,13.1-18.22,21.75-25.53,9.1-7.69,19.08-14.09,29.53-19.77,13.97-7.59,28.58-13.65,43.73-18.43.47-.15.95-.26,1.41-.39.37.6-.02,1.05-.14,1.51-3.25,12.66-5.9,25.46-7.92,38.37-1.52,9.72-2.69,19.49-3.6,29.29-2.26,24.31-2.87,48.68-2.52,73.07.18,12.7.78,25.38,1.7,38.05.59,8.11,1.26,16.2,2.1,24.29.92,8.9,2,17.78,3.21,26.65,1.41,10.37,3.02,20.72,4.78,31.04,1.08,6.31,2.29,12.61,3.45,18.91.08.38-.07.49-.43.37Z"/>
      <path class="cls-5" d="m143.48,123.7c5.46,6.86,9.53,17.75,4.94,31.37.68.4,1.34-.02,1.97-.13,8.88-1.56,17.35-4.28,25.17-8.84,8.24-4.81,14.85-11.23,19.39-19.69.15-.27.32-.53.46-.77.66-.02.74.5.95.85,4.21,6.99,4.01,13.97-.14,20.89-2.63,4.37-6.31,7.76-10.37,10.78-.31.23-.62.45-.93.67-1.73,1.25-1.84,1.98-.36,3.56,1.56,1.67,3.65,2.21,5.82,2.5,5.39.72,10.66-.11,15.81-1.58,14.13-4.03,24.3-12.59,29.6-26.49,2.3-6.04,2.78-12.35,2.32-18.75-.26-3.61-.68-7.2-1.28-10.78-.07-.4-.26-.84.05-1.24.13.05.27.06.34.14,7.83,9.23,13.81,19.43,16.51,31.36,1.93,8.55,2.24,17.11-.19,25.62-2.17,7.59-6.19,14.17-11.31,20.09-8.77,10.15-19.71,17.06-32.4,21.24-9.46,3.13-19.18,4.9-29.16,4.84-3.87-.02-7.74-.31-11.61-.54-9.16-.54-18.09.82-26.93,3.13-11.51,3.02-22.59,7.18-33.28,12.38-2.13,1.04-4.21,1.55-6.57,1.26-1.96-.24-3.89-.52-5.77-1.13-5.08-1.65-8.61-4.96-10.75-9.83-2.82-6.42-2.49-12.85-.08-19.28,2.92-7.81,7.82-14.18,14.23-19.44,4.47-3.66,9.19-7.01,13.54-10.83,6.84-6.01,13.3-12.37,18.75-19.7,4.54-6.11,8.06-12.76,10.49-19.98.19-.57.19-1.28.79-1.68Z"/>
      <path class="cls-5" d="m61.31,246.88c-6.29-4.27-12.58-8.54-19.09-12.96,2.03-.67,3.87-.77,5.65-1.11,6.66-1.28,13.37-2.35,20.01-3.74,10.7-2.23,21.07-.85,31.3,2.52.1.03.18.13.32.23-.32.68-1.03.9-1.6,1.25-9.39,5.94-18.56,12.21-27.15,19.28-10.22,8.42-19.16,17.96-25.94,29.42-3.78,6.38-6.72,13.07-7.97,20.44-1,5.94-.9,11.88-.02,17.82.18,1.25.38,2.51.58,3.76.21.45.29.84-.42.81-6.39-7.84-10.72-16.71-13.31-26.46-1.19-4.49-1.95-9.06-1.88-13.72.19-12.06,4.74-22.04,14.31-29.56,4.49-3.53,9.46-6.1,15.06-7.42,3.15-.74,6.29-.62,9.45-.18.7.19.76.16.72-.39Z"/>
      <path class="cls-2" d="m61.31,246.88c.3.07.63.21.54.56-.05.21-.41.2-.63.13-.22-.06-.42-.2-.62-.31.24-.13.59-.05.72-.39Z"/>
      <path class="cls-10" d="m229.5,95.13c-.1-.16-.25-.3-.28-.47-.05-.31-.41-.75.11-.92.28-.09.52.26.66.54-.36.17-.41.51-.49.85Z"/>
      <path class="cls-7" d="m36.96,324.61c.32-.18.33-.52.42-.81.1.22.25.43.29.66.04.26.26.66-.14.75-.32.07-.48-.29-.57-.59Z"/>
      <path class="cls-9" d="m148.33,501.05c.14-.12.28-.24.43-.37.32.27.5.66.13.9-.22.14-.52-.18-.55-.54Z"/>
      <path class="cls-11" d="m203.08,314.26c2.68,1.18,3.27,3.19,3.2,5.58-.06,1.9,0,3.81-.02,5.71-.03,3.91-2.06,6.32-5.89,6.56-3.22.21-6.47.05-9.71.07-.68,0-.88-.33-.86-.94.01-.38,0-.76,0-1.14,0-10.09,0-20.18,0-30.27,0-.25.03-.51,0-.76-.15-1.05.37-1.27,1.31-1.25,2.66.05,5.33.02,8,.02,1.22,0,2.39.27,3.49.79,1.88.89,2.99,2.31,3,4.45.01,2.09-.04,4.19.03,6.28.06,1.99-.51,3.63-2.54,4.88Z"/>
      <path class="cls-11" d="m268.63,318.04c3.04,3.92,3.64,8.26,3.46,12.79-.05,1.32-.05,1.33-1.41,1.35-1.21.02-2.41-.01-3.62,0-.65.01-.91-.28-.89-.92.02-1.08-.03-2.16,0-3.24.12-3.12-1.09-5.82-2.67-8.4-.16-.26-.37-.59-.63-.67-.47-.15-1.06-.25-1.12.54-.03.44-.02.89-.02,1.33,0,3.18,0,6.35,0,9.53,0,2.25-.21,1.79-1.91,1.82-1.02.01-2.03-.03-3.05,0-.75.03-1.03-.3-.99-1.02.03-.38,0-.76,0-1.14,0-10.04,0-20.07,0-30.11,0-.38.02-.76,0-1.14-.03-.61.17-.95.85-.94,3.11.04,6.22.03,9.33.11,1.01.03,1.99.39,2.89.87,1.87,1.01,3,2.54,3.03,4.72.04,3.05.03,6.1-.01,9.15-.03,2.3-.8,4.24-3.28,5.35Z"/>
      <path class="cls-11" d="m237.63,332.19c-.73-.07-1.76.32-2.45-.18-.75-.54-.34-1.65-.48-2.5-.22-1.38-.33-2.77-.43-4.16-.06-.82-.3-1.26-1.26-1.21-1.39.08-2.79.06-4.19,0-.87-.03-1.23.23-1.29,1.15-.13,1.96-.43,3.91-.59,5.87-.06.84-.42,1.06-1.19,1.03-1.14-.04-2.29,0-3.43-.02-1.25-.02-1.27-.04-1.23-1.26.09-2.8.49-5.56.9-8.32,1.16-7.79,2.95-15.44,5.3-22.95q.56-1.8,2.46-1.8c1.02,0,2.04.06,3.05-.02.99-.07,1.43.31,1.73,1.28,1.42,4.54,2.66,9.13,3.68,13.77,1.23,5.58,2.1,11.22,2.64,16.91.04.38.06.76.07,1.14.03,1.22.02,1.23-1.25,1.26-.63.02-1.27,0-2.05,0Z"/>
      <path class="cls-11" d="m247.43,282.04c0,.9-.03,1.35,0,1.79.17,2.13-.81,4-3.67,4.87-1.79.54-3.62.61-5.44.04-2.25-.7-3.42-2.29-3.45-4.66,0-.38-.03-.77,0-1.14.1-.93-.48-2.21.29-2.7.97-.63,2.34-.19,3.53-.2.49,0,.59.4.59.8.01.83-.03,1.65.03,2.47.09,1.32.71,1.99,1.8,2.02,1.17.03,1.9-.71,2.05-2.02.22-1.96-.29-3.65-1.81-4.96-1.2-1.04-2.39-2.09-3.63-3.08-2.95-2.36-2.96-5.5-2.37-8.86.2-1.16,1.18-1.94,2.28-2.41,2.12-.92,4.31-1.09,6.5-.33,1.99.69,3.11,2.13,3.22,4.27.04.82-.03,1.65.02,2.47.05.86-.36,1.13-1.14,1.08-.25-.02-.51,0-.76,0q-2.34.01-2.51-2.39c-.03-.38-.05-.78-.21-1.11-.32-.7-.91-1.01-1.69-.99-.82.02-1.34.47-1.51,1.21-.23,1.07-.24,2.17.53,3.07.53.63,1.11,1.23,1.71,1.79.69.65,1.43,1.26,2.16,1.87,2.36,1.97,4.08,4.23,3.48,7.1Z"/>
      <path class="cls-11" d="m201.74,282.42c0,.57,0,1.14,0,1.71-.04,2.27-.88,3.51-3,4.34-2.01.78-4.08.9-6.15.24-2.14-.68-3.32-2.28-3.38-4.53-.03-1.08.01-2.16,0-3.23,0-.62.23-.96.89-.92.19.01.38,0,.57,0,2.89-.07,2.97-.07,2.94,2.82-.01,1.68.87,2.64,2.13,2.49.91-.11,1.59-.57,1.69-1.52.23-2.01.07-3.94-1.63-5.38-1.11-.94-2.17-1.96-3.34-2.82-3.04-2.23-3.37-5.35-2.9-8.7.2-1.41,1.19-2.36,2.48-2.92,2.12-.92,4.31-1.04,6.5-.31,1.98.66,3.07,2.22,3.14,4.3.01.32.03.64,0,.95-.08.8.4,1.93-.29,2.33-1.03.6-2.34.22-3.53.18-.35-.01-.42-.41-.43-.74,0-.57.03-1.15-.04-1.71-.16-1.37-.95-2.08-2.08-1.97-1.02.11-1.52.85-1.52,2.25,0,.86.25,1.63.84,2.26.56.6,1.14,1.19,1.75,1.75.65.6,1.34,1.17,2.02,1.73,2.34,1.92,3.94,4.16,3.35,7.4Z"/>
      <path class="cls-12" d="m286.48,314.87c0-5.14,0-10.29,0-15.43,0-1.57.02-1.58,1.55-1.6,1.08-.01,2.16.05,3.24-.02.95-.06,1.25.36,1.15,1.24-.03.25,0,.51,0,.76,0,10.1,0,20.19,0,30.29,0,.32-.02.64,0,.95.07.78-.19,1.17-1.06,1.14-1.27-.05-2.54-.05-3.81,0-.86.04-1.09-.37-1.08-1.14.03-1.59,0-3.17,0-4.76,0-3.81,0-7.62,0-11.43Z"/>
      <path class="cls-11" d="m280.28,276.06c0-2.54-.02-5.08,0-7.62.02-2.77,1.17-4.2,3.84-4.89,1.64-.42,3.27-.46,4.88.06,1.87.6,2.98,1.86,3.19,3.85.03.31.05.63.04.95-.09,3.89.69,3.16-3.31,3.28-.88.03-1.29-.22-1.22-1.17.05-.75,0-1.53-.1-2.27-.11-.77-.56-1.27-1.42-1.23-.85.04-1.24.58-1.34,1.34-.06.44-.04.89-.04,1.33,0,4.32,0,8.64,0,12.96,0,.51-.02,1.03.09,1.52.14.68.59,1.12,1.33,1.15.75.03,1.16-.4,1.36-1.08.27-.94.12-1.89.15-2.84.04-1.64.03-1.68,1.7-1.66,3.25.03,2.79-.45,2.83,2.82,0,.76.03,1.53-.04,2.28-.19,1.98-1.33,3.26-3.18,3.87-1.87.62-3.77.49-5.61-.16-2.06-.72-3.09-2.1-3.12-4.29-.04-2.73-.01-5.46-.01-8.19Z"/>
      <path class="cls-11" d="m108.96,252.96c3.13,3.3,6.87,4.48,11.24,3,4.01-1.36,6.7-5.29,6.69-9.5-.01-4.2-2.77-8.09-6.73-9.49-.58-.21-1.23-.25-1.77-.68,7.62-1.81,15.04,2.53,16.91,9.84,1.88,7.36-2.34,14.74-9.61,16.89-7.77,2.29-15.57-2.86-17.1-9.63-.18-.4.03-.47.37-.43Z"/>
      <path class="cls-3" d="m108.96,252.96c-.12.14-.24.29-.37.43-.08-.09-.19-.18-.23-.28-.1-.24-.18-.64,0-.69.34-.1.49.25.59.55Z"/>
      <path class="cls-6" d="m195.64,322.12c0-1.4.01-2.79,0-4.19,0-.62.2-.96.87-.93.51.02,1.02-.03,1.52,0,1.37.1,2.15.73,2.22,2.12.11,2.09.1,4.19.02,6.28-.04,1.12-.68,1.69-1.79,1.9-.31.06-.63.06-.95.07q-1.88.06-1.9-1.82c0-1.14,0-2.28,0-3.43h0Z"/>
      <path class="cls-8" d="m195.64,307.49c0-1.26.02-2.53,0-3.79-.01-.65.28-.85.9-.9,2.35-.2,3.18.49,3.2,2.79.02,1.39.04,2.78,0,4.17-.07,1.96-1.73,3.05-3.59,2.42-.47-.16-.51-.5-.51-.89,0-1.26,0-2.53,0-3.79Z"/>
      <path class="cls-6" d="m261.75,308.44c0-1.52.02-3.03,0-4.54-.01-.71.25-1.06,1-1,.5.04,1.01-.02,1.51.01,1.44.1,2.1.67,2.15,2.1.07,2.21.07,4.42,0,6.63-.04,1.6-.78,2.26-2.35,2.34-.44.02-.89-.02-1.33,0-.74.05-1-.28-.99-1,.03-1.51,0-3.03,0-4.54Z"/>
      <path class="cls-4" d="m228.39,319.13c.66-4.48,1.33-8.72,2.52-12.9,1.3,4.18,1.88,8.48,2.47,12.87-1.69.23-3.26.17-4.99.04Z"/>
    </g>
  </g>
</svg>