<?xml version="1.0" encoding="UTF-8"?>
<svg id="Layer_2" data-name="Layer 2" xmlns="http://www.w3.org/2000/svg" xmlns:xlink="http://www.w3.org/1999/xlink" viewBox="0 0 430.8 535.92">
  <defs>
    <style>
      .cls-1 {
        clip-path: url(#clippath);
      }

      .cls-2, .cls-3, .cls-4 {
        fill: none;
      }

      .cls-2, .cls-5, .cls-6, .cls-7, .cls-8, .cls-9, .cls-10, .cls-11, .cls-12, .cls-13, .cls-14, .cls-15, .cls-16 {
        stroke-width: 0px;
      }

      .cls-3 {
        stroke-linecap: round;
        stroke-linejoin: round;
        stroke-width: 3.19px;
      }

      .cls-3, .cls-4 {
        stroke: #1b1918;
      }

      .cls-5, .cls-6, .cls-7, .cls-8, .cls-9, .cls-10, .cls-11, .cls-12, .cls-13, .cls-14, .cls-15 {
        fill-rule: evenodd;
      }

      .cls-5, .cls-16 {
        fill: #1b1918;
      }

      .cls-6 {
        fill: #1b2419;
      }

      .cls-7 {
        fill: #1f4586;
      }

      .cls-8 {
        fill: #223d7d;
      }

      .cls-9 {
        fill: #4b8b3e;
      }

      .cls-10 {
        fill: #2a4b80;
      }

      .cls-11 {
        fill: #724832;
      }

      .cls-12 {
        fill: #c24646;
      }

      .cls-13 {
        fill: #c24445;
      }

      .cls-14 {
        fill: #fee62e;
      }

      .cls-15 {
        fill: #fff;
      }

      .cls-4 {
        stroke-width: .43px;
      }
    </style>
    <clipPath id="clippath">
      <rect class="cls-2" x="0" width="430.8" height="535.92"/>
    </clipPath>
  </defs>
  <g id="Layer_1-2" data-name="Layer 1">
    <path class="cls-8" d="m94.28,472.07l-5.95,2.52-2.28-5.36,5.91-2.51c1.35-.57,2.39-.77,3.14-.6.76.17,1.33.71,1.73,1.64.4.95.39,1.76-.01,2.45-.42.69-1.26,1.31-2.54,1.86Z"/>
    <path class="cls-8" d="m96.29,476.3c1.51-.64,2.7-.84,3.58-.6s1.56.95,2.06,2.13c.48,1.13.5,2.1.06,2.9-.45.82-1.4,1.53-2.86,2.15l-6.17,2.62-2.8-6.6,6.13-2.6Z"/>
    <g>
      <path class="cls-7" d="m117.68,469.85v.2l.19-.06c-.07-.04-.13-.09-.19-.14ZM423.83,37.99L218.94.16l-.48-.08-.48.08L11.96,37.99l-2.17.4v287.82c0,33.65,17.67,65.54,43.28,94.04,3.4,3.78,6.94,7.5,10.59,11.16.92.92,1.85,1.84,2.79,2.75.13.13.26.26.4.39,1.19,1.16,2.38,2.31,3.59,3.45,2.71,2.57,5.48,5.1,8.3,7.6,1.5,1.33,3.01,2.66,4.54,3.97,4.47,3.85,9.04,7.61,13.68,11.28.28.04.54.09.8.17,1.68.47,2.98,1.63,3.85,3.46,3.54,2.73,7.11,5.41,10.7,8.02l.23-6.41c-8.16-6.03-16.2-12.36-23.96-18.96-1.47-1.25-2.93-2.51-4.38-3.79-2.83-2.47-5.61-4.98-8.34-7.52-1.42-1.33-2.83-2.67-4.23-4.02h0c-.52-.5-1.04-1-1.55-1.5-.89-.87-1.77-1.75-2.65-2.63-2.78-2.79-5.49-5.61-8.12-8.46-26.04-28.24-44.2-59.85-44.2-93V42.8L218.46,5.46l202.23,37.34v283.41c0,32.6-19.25,64.83-46.64,94-1.68,1.78-3.38,3.55-5.12,5.31-.47.48-.95.97-1.43,1.45-2.09,2.09-4.21,4.17-6.37,6.22-1.36,1.29-2.73,2.58-4.12,3.86-2.79,2.57-5.63,5.12-8.52,7.63-1.45,1.27-2.92,2.53-4.39,3.77-4.23,3.59-8.54,7.1-12.91,10.54t-.02.01c.14-.03.28-.06.42-.08.21-.04.42-.07.64-.09.04-.01.07-.01.11-.01.37-.04.75-.06,1.13-.06,1.13,0,2.32.16,3.55.48.55.14,1.12.32,1.7.53t.01-.01c3.65-2.93,7.25-5.92,10.8-8.96,1.63-1.4,3.24-2.81,4.84-4.22,2.64-2.33,5.23-4.69,7.79-7.07,1.29-1.21,2.58-2.43,3.85-3.65,1.19-1.13,2.36-2.28,3.52-3.42.58-.58,1.16-1.15,1.73-1.73,3.17-3.18,6.26-6.41,9.25-9.67,26.85-29.34,45.5-61.75,45.5-94.83V38.4l-2.18-.41Zm-92.51,426.85c-1.14.66-2.15,1.69-3.01,3.09,1.65-1.25,3.29-2.52,4.92-3.8-.67.13-1.3.37-1.91.71Zm-44.93,25.93c-25.68,16.51-50.17,29.69-68.35,38.32-17.96-8.64-43.79-22.15-71.04-39.43-8.08-5.12-16.28-10.57-24.45-16.33l-4.9,1.56v1.46c7.47,5.31,15,10.38,22.43,15.17,29.56,19.05,57.81,33.8,76.82,42.9l1.14.54,1.13-.54c19.38-9.14,46.23-23.59,74.17-41.85,8.92-5.82,17.95-12.03,26.88-18.58.16-1.69.62-3.5,1.36-5.41.49-1.28,1.05-2.43,1.66-3.46-12.18,9.22-24.65,17.81-36.85,25.65Z"/>
      <path class="cls-5" d="m200.21,368.5l-26.3-38.46c-.2-.29-.53-.47-.9-.46l-16.46.38-11.58-17.11-2.28-3.38-2.84-4.2-.81-1.2-3.44-5.08-1.42-2.11-3.99-5.88-.93-1.39-3.45-5.09-1-1.48-3.57-5.28-2.83-4.18-10.17-15.03-3-4.44-3.54-5.24-2.25-3.32-23.64-34.95,20.03,1.33c.39.04.79-.15,1.01-.51.3-.51.13-1.16-.37-1.46l-38.78-23.04c-.19-.12-.42-.18-.65-.16-.59.04-1.03.55-.98,1.13l3.51,46.15c.03.41.3.78.71.93.55.18,1.15-.11,1.35-.66l6.73-19.48,23.62,35.02,2.64,3.91,3.43,5.09,3.14,4.66,10.06,14.91,2.94,4.37,3.83,5.68.65.96,3.21,4.76,1.33,1.98,3.88,5.74,1.64,2.44,3.35,4.97,1.04,1.54,2.45,3.63,2.52,3.74,11.36,16.84-6.38,15.39c-.14.34-.09.7.09.98l25.03,38.54c.32.49.98.63,1.47.31.21-.14.35-.34.43-.56l5.33-16.15,3.72,5.52c.17.25.45.42.77.46.58.06,1.1-.36,1.17-.94.11-1.09.45-1.92,1.07-2.41.65-.52,1.66-.73,3.12-.6.26.04.53,0,.76-.17.49-.32.62-.98.29-1.47l-3.6-5.31,16.45,1.48c.25.04.52-.01.75-.17.48-.33.61-.99.28-1.47Zm-31.44,18.47l-23.52-36.21,5.62-13.59,23.06,34.18-5.16,15.62Zm14.69-13.45c-1.07.13-1.93.48-2.61,1.02-.51.41-.91.9-1.21,1.48l-3.64-5.4-.04-.05-35.51-52.66-2.47-3.65-2.73-4.05-1.21-1.8-3.42-5.07-1.58-2.34-3.94-5.85-1.09-1.61-3.34-4.96-.72-1.06-3.96-5.88-2.78-4.12-10.49-15.56-1.92-2.84-5.41-8.01-1.38-2.06-25.07-37.17c-.33-.48-.99-.61-1.48-.28-.22.15-.37.37-.43.61l-5.73,16.57-2.96-39.01,33.24,19.75-17.8-1.18c-.58-.04-1.09.41-1.12.99-.02.25.05.47.18.66l24.88,36.79h.01l1.27,1.88,5.43,8.04,1.89,2.78,10.5,15.52,2.84,4.2,3.68,5.45.9,1.32,3.56,5.27.83,1.22,4.05,6,1.43,2.1,3.49,5.16,1.1,1.63,2.98,4.4,2.37,3.52,39.41,58.25Zm-2.26-7.13l-23.24-34.35,14.52-.33,24.71,36.13-15.99-1.45Z"/>
      <path class="cls-5" d="m157.33,291.93c-2.81-2.11-5.37-4.12-7.74-6.61-4.31-4.22-10.89-9.58-13.02-12.88,3.09.42,6.21.57,9.3.36,3.13-.22,5.39-.63,8.4-1.93,2.29-.99,5.05-2.16,6.57-4.11,1.08-1.37-.76-1.97-3.23-1.41-8.06,1.82-14.42,1.5-25.31,2.53-.96.09-1.42-1.07-2.04-2.46,6.99-1.34,13.64-2.84,18.42-5.69,8.1-4.85,16.3-11.38,15.95-18.64-.15-3.17-2.84-5.69-6.64-5.34-1.5.13-3.55.4-5.03,1.26,2-6.23,2.54-12.08.91-18.56-1.33-5.32-6.14-5.74-10.35-4.27-3.17,1.11-6.84,3.89-9.75,7.08-4.49,4.91-7.56,10.11-10.62,16.73-1.95,4.21-4.55,7.33-6.12,11.25-2.37-1.44-3.08-3.93-3.02-6.57.03-1.82-.77-3.68-.48-5.48.54-3.43.49-6.73.85-10.13-.12-2.42-.15-4.48-1.64-5.38-.91-.54-1.43-.29-1.28.92.25,2.07.14,4-.05,6.04-.23,2.34-.71,4.44-.8,6.93-.08,2.11.49,4.06.86,6.08.31,1.41.21,1.86.09,3.34-1.59-.61-3.13-.79-5.22-.74-1.11.03-2.19.32-3.36.44-.61.07-1.25-.28-1.27-.86-.06-1.52-.21-3.18.34-4.78.55-1.61,1.39-3.1,2.11-4.64.52-1.11.68-2.1,1.25-3.18.41-.78-.52-1.28-1.36-.34-1.32,1.51-2.3,1.96-3.05,4.24-.68,2.09-1.43,3.94-1.63,6.24-.11,1.32.02,2.84.08,4.18.02.22.02.43.03.64-.55.08-1.15.3-1.75.59h-.01c-.45.21-.9.46-1.34.71-.34.19-.68.39-1.01.56-.55.3-.96.64-1.36,1-.4.35-.78.72-1.28,1.07-.24-.09-.48-.18-.74-.27-2.42-.87-5.38-1.85-7.67-2.7-2.16-.48-4.63-.93-6.89-.1-1.18.43-.47,2.09,1.07,2.4,1.47.29,3.39.06,4.35.5.74.33,1.55.67,2.33.7,1.76.08,2.93.87,4.14,1.76,1.29.95-.49,2.26-1.17,2.82-1.07.88-1.78,1.82-2.34,3.09-.98,2.21-3.5.28-5.42.07-5.21-.57-11.1-2.98-16.52-4.85-1.74-.6-2.04.65-1.41,1.54,1.73,2.41,7.74,4.99,13.43,5.49,3.46.3,6.63,2.06,9.56,4.57,1.25,1.06,1.15,2.71-.49,2.67-1.71-.03-2.82.97-4.29,1.17-3.36.41-6.77,1.57-10.1,1.36-10.14-.63-24.98,6.41-29.82,12.68-1.93,2.5-1.28,5.18.02,7.22,2.3,3.62,7.27,5.71,12.92,6.3,2.15.22,4.47,1.06,6.63.89-1.16.85-2.75,2.62-3.4,3.73-1.55,2.64-.64,4.34,1.29,5.62,2.21,1.47,5.47,2.66,10.12,2.54,7.3-.2,13.29-3.77,19.76-8.3,2.88-2.02,5.65-4.64,7.95-7.38-4.76,7.43-9.99,14.66-14.52,22.34-.78,1.31-.07,2.73.8,1.98,2.65-2.43,5.1-4.29,7.66-7.08,4.02-4.38,7.19-11.1,11.4-16.12.81-.96,2.5-.9,2.95.99,1.35,5.58,1.71,12.05,3.17,17.72.91,3.59,1.25,7.23,3.02,10.4,1.64,2.94,2.35,5.82,3.23,8.93,1.14,4.03,5.7,3.06,5.56-.35-.28-6.52-3.27-11.52-5-17.63-1.18-4.15-1.87-6.68-3.1-11.01-.43-1.52-2.53-4.01-.59-7.57,2.61,2.36,3.91,5.29,5.79,7.5,4.27,5.05,9.02,9.42,14.62,13.08,1.8,1.17,4.61,1.55,7.07,1.41.84-.05,1.65-.16,2.35-.32.79-.18,1.46-.43,1.94-.72.08-.05.15-.1.23-.16.07-.05.15-.11.22-.18.15-.12.29-.27.43-.43.07-.08.14-.16.2-.25.14-.18.27-.37.4-.58.06-.1.12-.21.18-.32.37-.67.69-1.48.92-2.42.41-1.53.62-3.4.57-5.55-.12-5.07-3.06-10.48-5.79-15.37-2.06-3.7-4.13-7.4-6.19-11.11,3.99,1.57,7.35,4.28,10.27,6.75,2.26,1.91,4.58,3.76,6.75,5.76,2.94,2.73,5.85,6.2,8.86,8.16,2.68,1.76,6.75.32,4.08-2.67-1.29-1.44-5.15-6.11-6.19-6.89Z"/>
      <path class="cls-15" d="m95.64,270.5c-.17-.27-.52-.39-.69-.66-.43-.73-1.23-.95-1.97-.99-2.59-.14-5.19.18-7.75.66-2.57.49-5.94,1.86-9.14,4.11-.66.47-6.81,2.8-10.77,6.12-.7.59-.72.91-.67,1.48.04.39.36.67.81.85.77.3,1.84-.41,2.42-.9,5.14-4.35,9.03-6.85,10.39-6.99,1.27-.13,1.92.42.87,1.14-6.83,4.65-13.62,9.76-19.48,15.32-.52.5-1.29.82-1.83.35-.57-.51-.49-1.44.14-1.93,1.8-1.38,3.56-2.8,5.35-4.18.53-.42.7-1.3.17-1.8-.76-.72-1.62-.9-2.42-.45-2.61,1.45-4.61,3.43-6.93,5.13-1.03.76-2.15-.13-1.05-1.3,5.65-6.05,19.06-12.32,20.03-13.5.74-.89.77-1.43-.84-.95-1.82.55-3.73.41-5.59.67-12.53,1.74-19.42,6.15-24.08,11.15-1.87,2-1.18,3.72-.14,5.06,3.41,4.42,7.13,5.79,11.42,6.29,1.83.21,5.27.03,7.84-.01,1.68-.26,2.77-1.98,3.98-3.19,6.93-6.9,14.68-13.14,23.27-17.79,2.18-1.18,4.29-1.94,6.52-2.7.31-.1.3-.74.14-.99Z"/>
      <path class="cls-15" d="m99.75,278.06c-.9-1-1.61-2.12-2.41-3.17-.82-1.08-1.82-1.36-3.57-.49-.97.49-1.88,1.13-2.68,1.87-.95.86-1.66,1.95-2.54,2.88-1.12,1.2-2.23,2.42-3.46,3.5-.97.85-2.1,1.76-3.13,2.3-.5.26-.85.95-.84,1.48,0,.52.32.99.67,1.37.29.32.73.51,1.16.6.72.15,1.42-.32,1.83-1.02.59-1.04,1.34-1.83,1.93-3.03.3-.6.77-1.1,1.09-1.68.18-.35.56-.58.91-.88.24-.21.5.43.6.74.13.38.22.84.07,1.23-.17.45-.68.69-.95,1.09-.58.84-1.29,1.66-1.61,2.63-.18.53-.2,1.24.17,1.66.56.62,1.75.43,2.29,1.09.25.3-.12.94-.5,1.09-.64.24-1.38-.12-2.07-.11-.57,0-1.17-.09-1.69.14-.42.18-.46.96-.91,1.02-.4.05-.84.4-.86.96-.02.52.08.85-.2,1.18-.45.56-.73,1.54-1.16,1.62-.49.1-.85-.73-.96-1.14-.09-.33.03-.68.16-1.07.15-.48.77-.91,1.09-1.41.32-.51.17-1.37-.22-1.83-.59-.7-1.27-1.17-1.96-1.69-1.2-.88-1.3.03-1.83.39-1.16.78-2.27,2.28-3.33,3.47-.84.95-1.91,2.26-2.65,2.51-.94.31-.84-.97-.39-1.62,1.72-2.45,5.59-5.84,5.59-6.57-.02-1.17-1.03-1.33-2.07-.88-2.77,1.19-4.49,2.96-6.54,4.85-3.6,3.32-7.25,6.78-10.02,10.76-1.76,2.53,1.7,4.3,4.08,4.64,10.76,1.52,19.78-2.92,27.14-9.71,4.52-4.16,7.84-9.78,10.54-15.11.55-1.08.12-2.67-.77-3.66Z"/>
      <path class="cls-15" d="m126.93,248.1c-.73-.5-1.47-.99-2.21-1.48-.87-.46-1.29-1.22-2.43-.14-1.69,1.61-3.16,3.81-4.53,5.77-.69.98-.49,2.01-.27,2.73.26.8.59.96,1.32,1.06.94.15,2,.2,2.92-.63,1.75-1.58,3.52-3.17,5.31-4.71,1.04-.89,1.13-1.75-.11-2.6Z"/>
      <path class="cls-15" d="m151.58,218.98c-1.1-2.09-3.41-3.61-5.76-2.9-3.02.9-5.34,2.67-7.35,4.64-5.29,5.14-9.19,10.18-10.2,12.89-1.02,2.77.25,1.61.95.9,3.19-3.25,6.19-7.08,9.4-10.3,1.65-1.64,1.64,1.31,1.25,1.91-.64.98-2.78,2.72-4.37,4.21-.62.57-.98,1.51-.57,1.95.38.41.76.66.95,1.21.29.83.89,1.72,1.6,1.87,1.62.33,3.12-.65,4.34-1.48,2.32-1.56,2.87-2.54,4.22-3.11,1.26-.53,1.31.96.97,1.48-.84,1.29-2.6,2.11-3.97,3-1.14.74-2.19,1.14-2.32,2.57-.08.8,0,1.59,0,2.14,0,1.25,1.02,1.54,1.72,1.09,1.43-.91,3.29-1.73,5.06-2.16,2.27-.55,3.23-2.46,4.01-4.18.79-1.73.81-3.85.84-5.75.08-3.64.59-7.42-.77-9.98Z"/>
      <path class="cls-15" d="m134.76,234.96c-.55-.65-1.42-1.01-2.28-.42-2.55,1.71-4.67,3.72-6.63,5.71-.71.71.63.92,1.02.76,1.26-.55,2.13-.89,3.36-1.52,1.34-.68,2.49-1.25,3.72-2.07,1.01-.67,1.63-1.51.81-2.46Z"/>
      <path class="cls-15" d="m139.16,241.4c-.1-.77-.06-1.17-.28-2.32-.23-1.15-1.52-1.04-2.39-.63-2.63,1.2-5.24,2.47-7.77,3.87-1.14.62-2.18.71-3.24.91-.88.16-.91.84-.56,1.26,1.12,1.37,2.53,2.43,3.98,3.45.82.57,1.4.54,2.05.09,2.2-1.5,4.38-3.11,6.84-4.45.82-.45,1.57-.64,1.37-2.18Z"/>
      <path class="cls-15" d="m82.77,280.51c-1.21.76-2.45,1.45-3.21,2.24-.25.36-.73.74-.81,1.17-.07.41.23,1.17.64.91,1.3-.82,2.59-2.3,3.87-3.83.27-.27-.21-.62-.49-.49Z"/>
      <path class="cls-15" d="m160.28,238.45c-1.74-.74-4.1-.58-5.73.14-3.5,1.56-7.11,2.74-10.48,4.5-5.09,2.67-11.24,5.04-14.83,8.79-1.6,1.67.42,1.78.85,1.56,4.94-2.61,9.75-4.3,14.62-4.09.54.03,1.47.98.93,1.07-1.25.21-.63.97-1.88,1.25-2.01.46-3.48.85-5.24,1.69-.92.43-1.42,1.34-1.51,2.58-.04.52-.52.93-.67,1.43-.33,1.07-.23,1.29.7,1.75.8.41,1.86.34,2.23,1.14.26.59,2.43.87,3.15.52,3.64-1.79,6.62-3.51,9.95-6.09,4.1-3.16,9.14-6.55,9.98-11.88.36-2.26-.53-3.71-2.07-4.36Z"/>
      <path class="cls-15" d="m135.63,254.3c-.24-.51-1.07-.63-1.62-.49-.71.18-1.49.65-1.76,1.33-.36.92-.13,2,.07,2.96.16.74,1.03.77,1.86.32.63-.33.84-1.14.96-2.26.07-.63.77-1.28.49-1.86Z"/>
      <path class="cls-15" d="m130.22,257.05c-.32-.6-1.19-.64-1.79-.52-.79.14-1.58.22-2.24.61-.42.25-.62.66-1.1.76-.49.09-1.07.05-1.51.08-.68.05-1.47.59-1.76,1.2-.22.45.09,1.2.4,1.58.3.36.94.28,1.39.19.57-.11,1.12-.55,1.44-.94.34-.43,1.01-.49,1.55-.57.95-.13,1.95-.16,2.85-.56.67-.3,1.22-.99.77-1.83Z"/>
      <path class="cls-15" d="m135.46,261.19c-.48-.43-1.39-.45-2.04-.53-1.02-.12-2.07-.16-3.09-.03-1.11.13-2.16.54-3.24.81-.98.24-1.98.59-2.25,1.4-.15.46-.4,1.39.64,1.55,1.16.18,2.18.16,3.35.02.74-.09,1.41-.72,2.13-.87,1.22-.23,2.85-.05,3.94-.64.58-.31,1.14-1.2.56-1.71Z"/>
      <path class="cls-14" d="m126.88,273.68c-.5-1.11-1.3-1.39-2.11-.24-1.13,1.62-2.3,3.08-3.53,4.32-.52.52-1.04,1-1.58,1.44-.62.51-1.26.96-1.92,1.35-.59.34-1.17.72-1.75,1.09-.59.39-1.19.78-1.79,1.15-1.79,1.11-3.64,2.06-5.67,2.26-2.05.19-3.29,1.52-1.72,2.67,2.68,1.96,7.34,2.26,11.22.75.67-.26,1.31-.57,1.92-.95.57-.34,1.11-.73,1.6-1.17.6-.54,1.21-1.11,1.79-1.7.51-.52,1.01-1.06,1.47-1.61,2.41-2.88,3.87-6.13,2.07-9.36Z"/>
      <path class="cls-14" d="m131.07,282.32c-.14-.66-.43-1.15-.91-1.69-.92-1.01-1.17-.06-1.87,1.02-.7,1.07-1.52,1.95-2.48,2.87-.49.47-1.01.94-1.57,1.45-.2.19-.4.38-.61.58-.43.41-1.74,1.34-2.37,1.71-.2.11-.39.22-.59.32-.64.33-1.3.62-1.99.85-.95.35-1.94.6-2.97.8-1.33.25-3.98.62-4.12,1.39-.07.97,1.51,1.5,2.37,1.83,2.76,1.04,5.39,1.29,7.93.74.72-.15,1.42-.36,2.12-.65.68-.27,1.36-.6,2.03-.99.63-.36,1.22-.8,1.76-1.31.54-.48,1.03-1.03,1.46-1.63,1.54-2.12,2.32-4.79,1.81-7.29Z"/>
      <path class="cls-14" d="m135.39,288.44c-.54-1.71-1.67-1.67-2.67-.36-.81,1.08-1.65,2.04-2.53,2.92-.51.52-1.03,1-1.56,1.46-.75.65-1.53,1.27-2.35,1.87-.42.31-.81.58-1.18.82-.71.46-1.32.78-1.88,1.02-2.23.94-3.58.54-6.6,1.76-1.44.48-.77,1.74-.25,2.14,3.6,2.78,7.05,3.27,10.73,1.84.64-.24,1.28-.54,1.94-.91.45-.24.9-.52,1.36-.82.81-.53,1.59-1.1,2.28-1.72.56-.49,1.06-1.02,1.5-1.58,1.65-2.12,2.37-4.79,1.21-8.44Z"/>
      <path class="cls-14" d="m138.86,296.09c-1.23-.74-1.4.16-1.7.71-.43.76-.96,1.49-1.56,2.19-.46.55-.97,1.07-1.49,1.57-.66.64-1.36,1.22-2.04,1.76-.45.35-.94.69-1.45,1.02-.6.36-1.23.71-1.88,1.01-1.77.83-3.66,1.37-5.26,1.41-1.68.04-1.21,1.34-.77,1.74,1.42,1.3,3.48,2.38,5.41,2.48,1.36.07,2.7-.18,3.97-.66.67-.25,1.33-.56,1.95-.91.59-.33,1.14-.7,1.67-1.1.64-.48,1.29-1.01,1.89-1.59.52-.51,1.01-1.06,1.44-1.65.7-.99,1.2-2.09,1.31-3.3.16-1.63-.21-3.9-1.49-4.68Z"/>
      <path class="cls-14" d="m142.26,304.5c-.27-.68-1.49-1.19-2.18.28-.08.16-.15.33-.23.49-.34.71-.72,1.42-1.15,2.08-.51.75-1.1,1.44-1.82,1.97-.5.37-1.05.66-1.63.89-.68.28-1.39.49-2.12.65-.6.15-1.2.27-1.8.39-1.57.33-1.99,1.58-.14,2.32,1.31.53,2.86.89,4.39.92.82.03,1.63-.04,2.4-.23.7-.17,1.37-.44,1.96-.83.71-.46,1.28-1.03,1.74-1.68.47-.68.81-1.46,1.01-2.28.37-1.58.23-3.34-.43-4.97Z"/>
      <path class="cls-11" d="m118.11,261.14c-2.96-3.24-5.95-4.17-9.87-2.59-.62.24-1.26.55-1.92.93-.64.35-1.3.76-1.99,1.23-.58.39-1.12.81-1.61,1.25-.57.49-1.08,1.01-1.52,1.55-2.83,3.37-3.38,7.48-.74,11.13,3.25,4.49,7.12,5.13,10.8,3.78.66-.24,1.31-.54,1.95-.9.64-.35,1.27-.76,1.88-1.2.6-.44,1.18-.88,1.73-1.32.57-.47,1.11-.94,1.59-1.42,3.4-3.34,4.57-7.12-.3-12.44Z"/>
      <path class="cls-11" d="m103.69,250.14c-.6-.6-1.28-1.02-1.99-1.27-.89-.32-1.82-.37-2.7-.21-1.47.27-2.81,1.15-3.61,2.45-.46.75-.75,1.65-.76,2.65,0,.04,0,.09,0,.13,0,2.28,1.43,4.22,3.44,4.96.58.23,1.21.35,1.87.35.3,0,.59-.02.87-.08,1.61-.24,2.87-1.18,3.63-2.42.49-.78.77-1.67.81-2.59.07-1.38-.4-2.82-1.55-3.97Z"/>
      <path class="cls-11" d="m110.01,249.08c-.65-.96-1.8-1.69-2.92-1.95-.45-.11-.61.95-.35,1.33.53.77,1.07,1.39,1.26,2.22.14.6.04,1.24-.24,1.79-.27.52.15.96,1.12.88.66-.06,1.19-.71,1.45-1.43.31-.82.24-2-.32-2.84Z"/>
      <path class="cls-11" d="m94.55,261.87c-.54-.17-1.19-1.02-1.61-1.4-.39-.36-.6-.88-.92-1.3-.39-.52-.58-1.48-1.23-1.52-.69-.03-1.49.69-1.54,1.38-.09,1.14.39,2.41,1.19,3.23,1.34,1.39,2.29,2.34,3.91,1.55.62-.3,1.38-1.56.2-1.94Z"/>
      <path class="cls-15" d="m144.05,315.27c-.06.11-.12.22-.18.32-.13.21-.26.4-.4.58-.06.09-.13.17-.2.25-.14.16-.28.31-.43.43-.07.07-.15.13-.22.18-.08.06-.15.11-.23.16-.48.29-1.15.54-1.94.72l35.51,52.66.04.05,3.64,5.4c.3-.58.7-1.07,1.21-1.48.68-.54,1.54-.89,2.61-1.02l-39.41-58.25Z"/>
      <path class="cls-15" d="m150.87,337.17l-5.62,13.59,23.52,36.21,5.16-15.62-23.06-34.18Z"/>
      <path class="cls-15" d="m172.48,331.71l-14.52.33,23.24,34.35,15.99,1.45-24.71-36.13Z"/>
      <path class="cls-15" d="m72.84,209.99c-.13-.19-.2-.41-.18-.66.03-.58.54-1.03,1.12-.99l17.8,1.18-33.24-19.75,2.96,39.01,5.73-16.57c.06-.24.21-.46.43-.61.49-.33,1.15-.2,1.48.28l25.07,37.17c.4-.36.81-.7,1.36-1,.33-.17.67-.37,1.01-.56.44-.25.89-.5,1.34-.71l-24.88-36.79Z"/>
      <rect class="cls-16" x="254.88" y="81.65" width="1.16" height="19.79"/>
      <rect class="cls-16" x="254.66" y="81.68" width="1.55" height="1.97"/>
      <rect class="cls-16" x="254.68" y="92.8" width="1.55" height="8.3"/>
      <rect class="cls-16" x="260.73" y="79.65" width=".61" height="22.04"/>
      <rect class="cls-16" x="260.48" y="80.29" width="1.11" height="3.66"/>
      <rect class="cls-16" x="260.5" y="93.02" width="1.09" height="8.93"/>
      <rect class="cls-16" x="266.84" y="79.65" width=".55" height="22.04"/>
      <rect class="cls-16" x="266.64" y="80.29" width="1.02" height="3.66"/>
      <rect class="cls-16" x="266.55" y="93.02" width="1.09" height="8.93"/>
      <rect class="cls-16" x="263.25" y="79.65" width=".56" height="22.04"/>
      <rect class="cls-16" x="262.93" y="80.29" width="1.16" height="3.66"/>
      <rect class="cls-16" x="262.94" y="93.02" width="1.17" height="8.93"/>
      <rect class="cls-16" x="264.38" y="79.65" width=".52" height="22.04"/>
      <rect class="cls-16" x="264.09" y="80.29" width="1.02" height="3.66"/>
      <rect class="cls-16" x="263.98" y="93.02" width="1.21" height="8.93"/>
      <rect class="cls-16" x="248.32" y="91.91" width=".98" height="10.05"/>
      <rect class="cls-16" x="270.22" y="91.91" width=".98" height="10.05"/>
      <rect class="cls-16" x="250.34" y="91.91" width=".98" height="10.05"/>
      <rect class="cls-16" x="247.94" y="91.91" width="3.9" height="1.19"/>
      <rect class="cls-16" x="270" y="91.58" width="1.41" height=".9"/>
      <rect class="cls-16" x="323.26" y="113.99" width=".67" height="3.41"/>
      <rect class="cls-16" x="323.01" y="113.83" width="1.12" height=".54"/>
      <g class="cls-1">
        <path class="cls-5" d="m234.36,100.14l23.48-.35c.8-.01,1.54-1.19,2.33-1.19h11.03c2.86,0,3.89,1.72,4.25,4.06l1.09,7.05c.66,4.25,3.18,6.53,7.45,6.54l37.6.09c2.89,0,5.4.33,7.96,1.04l23.34,6.47c1.54.49,2.85,1.3,3.52,2.67l4.92,10.12-286.95.11c-.3,0-.43-.9-.11-1.09l2.34-1.37c.53-.31.89-1.27.89-1.9,0-1.04.29-2.3,1.02-2.53l5.31-1.69c.57-.18,1.57.08,1.59.46l.06,1.22c.05.92.62,1.11,1.48,1.12,1.07.01,1.5-.4,2.11-1.2.48-.62.66-1.31.67-2.3l-.25-13.66c-.01-.7.61-1.61,1.41-1.62l10.12-.07c.87,0,1.35,1.26,1.41,2.18l.5,7.63c.05.82.63,1.6,2.01,1.08l22.87-8.67c.82-.31,1.74-.69,2.95-.67l86.76,1.32c1.59.02,2.24-.37,2.87-1.2l9-12.07c.68-.91,2.48-1.55,4.94-1.59h0Z"/>
        <path class="cls-8" d="m323.98,413.92h0c0-.56.08-1.07.23-1.56.62-2.03,2.34-3.44,4.86-4.28,1.95-.64,4.5-.96,7.45-.95,5.11.02,11.51,1.03,17.94,3.01,6.69,2.06,13.19,3.62,19.32,4.64,6.1,1.02,11.81,1.5,16.99,1.44,6.8-.09,13.13-.56,18.39-1.99,4.89-1.32,8.8-3.48,11.21-6.96.5-.75,1.36-1.22,2.32-1.18,1.46.06,2.6,1.3,2.53,2.76-.69,15.71-8.8,26.76-16.91,37.82-1.07,1.46-2.14,2.92-3.13,4.29,3.08,3.14,6.39,6.03,9.94,8.67,4.1,3.04,8.55,5.73,13.38,8.03h0c.41.21.79.52,1.06.93.81,1.21.49,2.86-.73,3.68-11.67,7.82-22.12,11.25-31.95,12.32-8.69.95-16.79.07-24.83-1.23-.1,4-.24,7.93-.38,11.85-.18,4.96-.35,9.92-.45,14.76v.12c-.07,2.09-.51,3.9-1.23,5.43-.03.08-.06.15-.1.23-1.14,2.28-2.9,3.88-5.05,4.89-2,.94-4.31,1.33-6.71,1.24-3.08-.11-6.35-1-9.3-2.47-20.7-10.34-41.98-18.13-63.83-23.51-21.88-5.39-44.35-8.38-67.4-9.12-23.2-.75-45.56,2.11-67.32,7.52-21.8,5.41-43.04,13.4-63.97,22.91-5.63,2.56-11.27,4.41-15.86,4.47-2.14.02-4.07-.33-5.73-1.16-1.8-.91-3.21-2.32-4.13-4.34-.69-1.51-1.07-3.38-1.1-5.62l-.33-27.33c-10.35,1.57-20.15,1.79-29.42.3-10.21-1.64-19.73-5.33-28.54-11.52-.46-.3-.83-.75-1.04-1.31-.5-1.38.2-2.9,1.58-3.41,5.09-1.87,9.63-4.27,13.74-7.28,3.62-2.65,6.92-5.8,10-9.47-1.2-1.68-2.39-3.29-3.58-4.9-8.16-11.01-16.42-22.17-17-37.12-.08-.83.24-1.68.93-2.26,1.12-.95,2.79-.8,3.74.31,3.57,4.2,8.01,6.76,13.08,8.2,5.25,1.49,11.21,1.8,17.61,1.49,6.8-.34,13.92-1.35,21.36-2.86,7.47-1.52,15.3-3.55,23.45-5.9,1.93-.56,4.15-.84,6.38-.9,3.05-.07,6.18.31,8.64,1.05,3.06.92,5.35,2.51,5.99,4.71.11.38.17.77.18,1.17,0,.15,0,.3,0,.45l-.07,19.43c14.73-6.03,29.99-10.94,45.75-14.53,21.2-4.84,43.29-7.28,66.24-6.85,23.72.45,46.29,3.63,67.84,9.15,13.03,3.34,25.67,7.52,37.96,12.47v-19.7Zm5.3,0h0c0,.93,1.68,3.04,3.94,5.27,2.58,2.55,5.78,4.95,8.24,5.93,2.2.88,4.2,1.66,6.17,2.43,11.84,4.6,22.82,8.88,24.15,14.83.09.26.13.54.14.83l.2,34.77c7.93,1.3,15.88,2.23,24.22,1.32,7.96-.87,16.39-3.44,25.7-9-3.53-1.93-6.87-4.07-10.04-6.42-4.37-3.24-8.4-6.88-12.14-10.87-.87-.93-.94-2.32-.24-3.32,1.58-2.26,3.01-4.21,4.44-6.16,6.29-8.57,12.57-17.14,14.95-27.77-2.46,1.57-5.31,2.74-8.46,3.59-5.71,1.55-12.47,2.06-19.7,2.16-5.52.07-11.55-.44-17.92-1.5-6.35-1.06-13.07-2.67-20.01-4.81-5.94-1.83-11.8-2.76-16.41-2.78-2.35,0-4.33.22-5.77.7-.86.28-1.39.55-1.46.79,0,0,0,0,0,0h0Zm0,8.82v13.06c6.24,2.64,12.39,5.48,18.45,8.51,2.36,1.17,4.54,1.85,6.55,2.25,2.05.41,3.91.54,5.6.6,1.8-.09,3.73-.7,5.15-1.63.94-.63,1.59-1.31,1.59-1.9,0-2.99-10.02-6.89-20.9-11.12-2.14-.84-4.32-1.68-6.23-2.45-3.11-1.25-6.97-4.1-9.98-7.08-.08-.07-.15-.15-.23-.23h0Zm37.56,57.46l-.17-29.53c-2.02,1.04-4.43,1.68-6.7,1.77h-.2c-1.96-.08-4.14-.22-6.51-.69-2.44-.48-5.08-1.29-7.91-2.7-19.33-9.64-39.52-17.37-60.66-22.78-21.16-5.42-43.33-8.54-66.62-8.98-22.51-.43-44.19,1.97-64.99,6.72-22.15,5.05-43.32,12.78-63.48,22.6l-.61.3c-5.24,2.56-10.62,5.19-17.18,5.2-2.36,0-5.27-.17-7.75-1.18l.72,59.53c.02,1.46.25,2.62.65,3.5.38.84.96,1.43,1.68,1.79.86.43,1.98.62,3.29.6,3.74-.04,8.68-1.71,13.74-4.01,21.18-9.62,42.71-17.71,64.88-23.22,22.2-5.52,45.03-8.43,68.76-7.67,23.44.75,46.27,3.79,68.5,9.27,22.26,5.48,43.9,13.4,64.93,23.91,2.32,1.16,4.82,1.85,7.12,1.93,1.59.05,3.07-.18,4.28-.74,1.07-.5,1.96-1.31,2.53-2.46.03-.06.06-.11.09-.16.41-.88.66-1.98.71-3.31v-.03c.1-5.05.27-9.95.45-14.84.18-4.98.35-9.96.44-14.81h0Zm-308.16-37.24v-.04c.02-6.59,11.02-10.54,19.69-13.66,1.95-.7,3.75-1.35,5.27-1.97,5.18-2.12,10.1-4.73,13.44-7.58,2.33-1.99,3.82-4.02,3.87-5.92v-.06c-.18-.27-1.09-.65-2.39-1.04-1.99-.59-4.52-.9-7.03-.84-1.78.04-3.52.26-5,.69-8.26,2.39-16.22,4.45-23.89,6.01-7.7,1.56-15.09,2.61-22.15,2.96-6.93.34-13.43-.02-19.29-1.68-3.65-1.04-7.04-2.57-10.1-4.74,2.35,10.21,8.73,18.83,15.05,27.36,1.67,2.26,3.34,4.51,4.83,6.64.69.98.62,2.27-.09,3.16h0c-3.72,4.72-7.77,8.69-12.28,12-3.19,2.34-6.6,4.34-10.28,6.03,6.96,4.14,14.38,6.72,22.23,7.98,8.9,1.43,18.41,1.16,28.53-.44l-.41-34.35c0-.17,0-.34,0-.51h0Zm5.3-.01v.3c.06,1.43.89,2.26,2,2.73,1.68.71,3.97.84,5.84.84,5.29-.01,10.14-2.38,14.86-4.68l.61-.3c4.48-2.18,9.01-4.27,13.59-6.24l.04-12.2c-.13.11-.26.23-.39.34-3.8,3.25-9.23,6.14-14.88,8.45-1.54.63-3.45,1.32-5.5,2.05-7.14,2.57-16.23,5.83-16.18,8.7h0Zm260.01-29.04h0s0,0,0,0Zm-106.36,72.85c-16.74-.54-33.03.8-48.98,3.61,18.61,11.42,35.8,20.66,49.13,26.81v-30.42c-.06,0-.1,0-.15,0h0Zm-103.61-244.1c-.05,2.64.65,5.13,3.02,6.57,1.57-3.92,4.17-7.04,6.12-11.25,3.06-6.62,6.14-11.83,10.62-16.73,2.92-3.19,6.59-5.98,9.75-7.09,4.21-1.47,9.02-1.05,10.35,4.27,1.63,6.48,1.09,12.33-.91,18.56,1.48-.87,3.53-1.13,5.03-1.27,3.8-.35,6.5,2.17,6.64,5.34.35,7.26-7.85,13.79-15.96,18.63-4.77,2.85-11.43,4.35-18.42,5.69.62,1.39,1.09,2.55,2.04,2.46,10.89-1.03,17.25-.71,25.31-2.53,2.47-.56,4.31.04,3.24,1.41-1.53,1.95-4.28,3.12-6.57,4.11-3.01,1.3-5.27,1.71-8.4,1.93-3.09.21-6.21.07-9.3-.36,2.13,3.3,8.72,8.66,13.03,12.89,2.37,2.49,4.93,4.5,7.73,6.61,1.04.78,4.9,5.45,6.19,6.89,2.67,2.99-1.4,4.43-4.08,2.67-3.01-1.97-5.92-5.43-8.86-8.16-2.17-2.01-4.49-3.85-6.75-5.76-2.92-2.47-6.28-5.19-10.27-6.75l6.19,11.11c2.73,4.89,5.67,10.3,5.79,15.36.05,2.15-.16,4.02-.56,5.55l11.57,17.1,16.46-.38c.37,0,.7.18.89.46l26.3,38.46c.33.48.21,1.14-.28,1.47-.23.16-.5.21-.75.17l-16.45-1.49,3.59,5.31c.33.48.2,1.14-.29,1.47-.23.16-.5.21-.76.17-1.47-.14-2.47.08-3.12.59-.63.49-.96,1.32-1.08,2.41-.06.58-.58,1-1.16.94-.32-.04-.6-.21-.77-.46l-3.72-5.52-5.33,16.15c-.08.22-.22.42-.43.56-.49.32-1.15.18-1.46-.31l-25.03-38.53c-.18-.28-.23-.64-.09-.98l6.38-15.4-11.35-16.84c-2.46.14-5.27-.23-7.07-1.41-5.6-3.66-10.35-8.03-14.63-13.08-1.88-2.22-3.18-5.14-5.78-7.51-1.94,3.56.15,6.05.59,7.57,1.23,4.33,1.92,6.86,3.1,11.01,1.73,6.11,4.72,11.11,5,17.63.14,3.41-4.42,4.38-5.56.35-.88-3.12-1.6-6-3.23-8.93-1.77-3.17-2.11-6.82-3.02-10.41-1.45-5.67-1.82-12.13-3.16-17.72-.45-1.89-2.14-1.95-2.95-.98-4.21,5.01-7.38,11.73-11.4,16.11-2.56,2.79-5.01,4.65-7.66,7.09-.87.75-1.59-.68-.81-1.98,4.54-7.68,9.76-14.91,14.52-22.34-2.3,2.74-5.07,5.37-7.95,7.38-6.47,4.54-12.46,8.1-19.76,8.3-4.65.12-7.91-1.06-10.12-2.53-1.93-1.28-2.84-2.99-1.29-5.62.65-1.11,2.24-2.88,3.4-3.73-2.16.16-4.47-.67-6.62-.9-5.65-.59-10.63-2.68-12.92-6.3-1.3-2.04-1.95-4.72-.02-7.22,4.84-6.27,19.67-13.31,29.81-12.68,3.34.21,6.74-.95,10.11-1.36,1.47-.2,2.58-1.2,4.29-1.17,1.64.03,1.74-1.61.49-2.67-2.94-2.51-6.1-4.27-9.56-4.57-5.69-.5-11.7-3.07-13.43-5.49-.63-.89-.33-2.15,1.41-1.55,5.43,1.88,11.31,4.29,16.53,4.85,1.92.21,4.44,2.14,5.41-.07.56-1.27,1.27-2.21,2.34-3.09.68-.56,2.46-1.87,1.17-2.81-1.21-.89-2.38-1.68-4.15-1.76-.77-.04-1.59-.37-2.32-.7-.96-.43-2.89-.2-4.36-.5-1.53-.31-2.24-1.97-1.07-2.4,2.27-.83,4.74-.38,6.89.1,2.29.85,5.25,1.83,7.67,2.7l-23.62-35.02-6.73,19.48c-.19.55-.79.84-1.35.66-.41-.14-.68-.52-.71-.92h0l-3.51-46.15c-.04-.59.39-1.09.98-1.14.23-.02.46.05.65.16l38.78,23.05c.5.3.67.95.38,1.45-.22.36-.62.55-1.02.52l-20.02-1.33,23.65,34.96c-.07-1.34-.2-2.87-.09-4.19.2-2.3.95-4.15,1.63-6.24.75-2.28,1.73-2.73,3.06-4.24.83-.95,1.76-.45,1.36.34-.57,1.08-.73,2.07-1.25,3.18-.72,1.54-1.56,3.04-2.11,4.64-.55,1.6-.4,3.26-.34,4.78.02.58.66.93,1.27.86,1.16-.12,2.25-.41,3.36-.44,2.09-.05,3.63.13,5.22.74.12-1.48.21-1.93-.09-3.34-.38-2.02-.94-3.97-.86-6.08.09-2.49.57-4.59.79-6.93.2-2.04.31-3.97.05-6.05-.15-1.2.37-1.46,1.28-.91,1.49.9,1.52,2.96,1.63,5.38-.35,3.4-.3,6.7-.84,10.12-.29,1.81.51,3.67.48,5.48h0Zm-22.58,163.91c3.05-.07,6.18.31,8.64,1.05,3.06.92,5.36,2.51,5.99,4.71.11.38.17.77.18,1.17,0,.15,0,.3,0,.45l-.07,19.43c14.73-6.03,29.99-10.94,45.75-14.53,21.06-4.81,43.01-7.25,65.81-6.86l-.1-262.87H25.61v185.09c0,24.79,17.31,51.94,42.18,77.8,5.57-1.3,11.33-2.84,17.26-4.55,1.93-.56,4.15-.85,6.38-.9h0Zm126.34,110.62l-.14-368.07H25.61v185.09c0,28.14,22.3,59.32,52.66,88.2,43.97,41.82,104.81,78.78,139.5,94.77h0Zm-.14-367.85l.14,368.06c39.95-18.71,97.73-54.07,139.29-94.6,30.15-29.39,51.75-61.5,51.75-91.88v-181.58h-191.18Zm-192.08-2.27h385.84v182.64c0,30.72-21.73,63.06-52.07,92.65-41.92,40.88-100.29,76.5-140.33,95.15l-.22.1-.23-.1c-34.63-15.84-96.16-53.1-140.54-95.31-30.56-29.07-53-60.5-53-88.97v-186.16h.54Z"/>
      </g>
      <path class="cls-10" d="m410.59,51.06L218,15.9h-.09s-.09,0-.09,0L24.88,51.06l-.44.08v86.47h386.59V51.14l-.44-.08Zm-.63,85.49H25.5V52.02L217.91,16.96l192.05,35.06v84.53Z"/>
      <path class="cls-15" d="m366.66,450.69c-2.02,1.03-4.43,1.68-6.7,1.77h-.19c-1.97-.08-4.15-.22-6.51-.69-1.2-.24-2.44-.55-3.73-.97-1.34-.45-2.74-1.01-4.18-1.73-.42-.21-.83-.41-1.25-.62-18.95-9.36-38.71-16.87-59.4-22.17-21.16-5.41-43.33-8.54-66.62-8.98-22.51-.42-44.19,1.98-64.99,6.72-22.15,5.05-43.33,12.78-63.49,22.6l-.6.3-.42.21c-1.74.84-3.49,1.69-5.3,2.44-3.52,1.45-7.25,2.54-11.46,2.55-2.36,0-5.28-.18-7.75-1.18l.71,59.54c.02,1.46.25,2.61.65,3.5.39.84.96,1.42,1.68,1.79.87.43,1.98.62,3.29.6,3.74-.04,8.67-1.71,13.74-4.01,18.32-8.32,36.9-15.5,55.94-20.84,2.3-.65,4.61-1.28,6.92-1.86.67-.18,1.35-.35,2.02-.52,22.21-5.51,45.03-8.42,68.76-7.66,23.44.75,46.27,3.78,68.5,9.26.04.01.07.02.11.03,2.32.57,4.64,1.17,6.95,1.8,19.78,5.37,39.07,12.69,57.87,22.08,2.32,1.16,4.82,1.85,7.13,1.93,1.59.06,3.07-.17,4.28-.74,1.07-.5,1.95-1.31,2.53-2.46l.09-.16c.41-.89.65-1.98.7-3.32v-.03c.1-5.05.27-9.95.45-14.84.18-4.98.35-9.96.44-14.82l-.17-29.52Zm-62.65-1.82l18.38,5.61-1.39,4.55-13.03-3.97-1.82,5.93,11.43,3.49-1.39,4.56-11.42-3.49-3.41,11.15-5.34-1.63,7.99-26.2Zm-196.58,33.5c-1.05,2.02-3.04,3.66-5.99,4.91l-11.55,4.9-10.7-25.21,11.95-5.07c2.22-.94,4.16-1.3,5.82-1.05.28.04.54.09.8.17,1.68.47,2.98,1.63,3.85,3.46.08.14.14.28.2.42.54,1.27.74,2.45.6,3.51-.14,1.07-.61,2.05-1.42,2.95,1.53-.03,2.83.31,3.9,1.03,1.06.71,1.9,1.8,2.53,3.27,1.04,2.46,1.04,4.7.01,6.71Zm10.22-7.48v1.46l-.02,4.46h0s-5.69,1.81-5.69,1.81l.37-10.12.23-6.41.45-12.54,6.23-1.98,17.76,23.1-5.67,1.8-3.49-4.81-5.27,1.67-4.9,1.56Zm38.26-4.57h0c-.28-.34-.53-.76-.76-1.29s-.44-1.17-.64-1.92l-.72-2.8c-.44-1.65-1-2.69-1.7-3.14-.7-.46-1.79-.52-3.26-.18l-5.86,1.34,2.38,10.4-5.53,1.26-6.09-26.7,13.02-2.98c2.93-.67,5.24-.54,6.93.38,1.7.92,2.84,2.67,3.42,5.22.38,1.63.34,3.07-.1,4.31-.43,1.25-1.25,2.22-2.46,2.91,1.26.15,2.23.58,2.92,1.32.68.74,1.26,1.99,1.75,3.76l.83,3.13.02.12c.4,1.58.97,2.47,1.71,2.66l.19.82-6.05,1.38Zm26.9-4.19c-.24-.36-.45-.81-.63-1.35-.17-.55-.32-1.21-.44-1.98l-.43-2.86c-.28-1.68-.74-2.77-1.38-3.3-.66-.52-1.73-.68-3.23-.5l-5.96.75,1.32,10.58h0s-5.62.7-5.62.7l-3.39-27.18,13.25-1.65c2.99-.37,5.27-.02,6.86,1.07,1.6,1.09,2.56,2.94,2.88,5.54.21,1.66.03,3.09-.53,4.27-.56,1.2-1.47,2.08-2.74,2.65,1.24.28,2.16.81,2.77,1.61.6.8,1.06,2.1,1.36,3.92l.52,3.2v.11c.25,1.62.73,2.56,1.44,2.82l.11.83-6.16.77Zm32.93-5.05c-2.34,2.69-5.57,4.1-9.68,4.25-4.11.14-7.42-1.04-9.93-3.56-2.52-2.52-3.85-5.99-4.01-10.4-.16-4.42.93-7.98,3.27-10.66,2.33-2.68,5.55-4.09,9.65-4.24,4.11-.14,7.44,1.04,9.96,3.56s3.87,5.98,4.02,10.39c.16,4.41-.94,7.97-3.28,10.66Zm32.87,4.97l-5.38-.41-2.65-21.25-5.86,20.6-5.38-.41-5.79-27.91,5.85.44,3.23,19.62,5.43-18.96,6.03.46,2.49,19.57,6.17-18.91,5.81.44-9.95,26.72Zm27.64-1.33l-3,5.11-5.83-1.3,15.54-24.6,6.38,1.43,3.71,28.9-5.8-1.3-.59-5.91-10.41-2.33Zm70.39,8.61l-5.21-2.02c.34-1.53.17-2.87-.49-4-.25-.42-.57-.81-.96-1.16-.13-.12-.26-.24-.41-.35-.57-.44-1.27-.82-2.09-1.14-1.53-.6-2.95-.77-4.25-.53-.67.13-1.3.37-1.91.71-1.14.66-2.15,1.69-3.01,3.09-.5.79-.94,1.71-1.34,2.74-1.08,2.77-1.31,5.15-.7,7.13.47,1.48,1.37,2.66,2.74,3.51.11.07.23.14.35.21.35.2.74.38,1.16.55.12.05.24.09.35.12.12.05.23.09.35.12,1.33.4,2.57.42,3.71.06.67-.21,1.28-.53,1.83-.99.14-.12.28-.24.41-.37.41-.39.77-.85,1.1-1.37l5.18,2.01c-.59,1.23-1.29,2.29-2.14,3.16-.36.37-.75.71-1.16,1.02-.28.21-.56.39-.86.57-.59.34-1.23.63-1.9.86-2.71.92-5.72.73-9.02-.55-3.8-1.48-6.29-3.8-7.48-6.98-.65-1.75-.88-3.66-.67-5.74.16-1.69.62-3.5,1.36-5.41.49-1.28,1.05-2.43,1.66-3.46,1.48-2.48,3.3-4.23,5.45-5.28.37-.18.75-.34,1.13-.47.44-.16.89-.28,1.35-.37.14-.03.28-.06.42-.08.21-.04.42-.07.64-.09.04-.01.07-.01.11-.01.37-.04.75-.06,1.13-.06,1.13,0,2.32.16,3.55.48.55.14,1.12.32,1.7.53.19.06.38.13.58.21.26.1.5.2.75.3.49.21.95.43,1.39.67.22.12.43.25.64.37,1.82,1.1,3.17,2.46,4.05,4.05,1.28,2.34,1.46,4.98.51,7.96Z"/>
      <path class="cls-8" d="m341.43,471.31c.34-1.53.17-2.87-.49-4-.25-.42-.57-.81-.96-1.16-.13-.12-.26-.24-.41-.35-.57-.44-1.27-.82-2.09-1.14-1.53-.6-2.95-.77-4.25-.53-.67.13-1.3.37-1.91.71-1.14.66-2.15,1.69-3.01,3.09-.5.79-.94,1.71-1.34,2.74-1.08,2.77-1.31,5.15-.7,7.13.47,1.48,1.37,2.66,2.74,3.51.11.07.23.14.35.21.35.2.74.38,1.16.55.12.05.24.09.35.12.12.05.23.09.35.12,1.33.4,2.57.42,3.71.06.67-.21,1.28-.53,1.83-.99.14-.12.28-.24.41-.37.41-.39.77-.85,1.1-1.37l5.18,2.01c-.59,1.23-1.29,2.29-2.14,3.16-.36.37-.75.71-1.16,1.02-.28.21-.56.39-.86.57-.59.34-1.23.63-1.9.86-2.71.92-5.72.73-9.02-.55-3.8-1.48-6.29-3.8-7.48-6.98-.65-1.75-.88-3.66-.67-5.74.16-1.69.62-3.5,1.36-5.41.49-1.28,1.05-2.43,1.66-3.46,1.48-2.48,3.3-4.23,5.45-5.28.37-.18.75-.34,1.13-.47.44-.16.89-.28,1.35-.37.14-.03.28-.06.42-.08.21-.04.42-.07.64-.09.04-.01.07-.01.11-.01.37-.04.75-.06,1.13-.06,1.13,0,2.32.16,3.55.48.55.14,1.12.32,1.7.53.19.06.38.13.58.21.26.1.5.2.75.3.49.21.95.43,1.39.67.22.12.43.25.64.37,1.82,1.1,3.17,2.46,4.05,4.05,1.28,2.34,1.46,4.98.51,7.96l-5.21-2.02Z"/>
      <polygon class="cls-8" points="307.97 455.06 306.15 460.99 317.58 464.48 316.19 469.04 304.77 465.55 301.36 476.7 296.02 475.07 304.01 448.87 322.39 454.48 321 459.03 307.97 455.06"/>
      <path class="cls-8" d="m289.34,445.36l-6.38-1.43-15.54,24.6,5.83,1.3,3-5.11,10.41,2.33.59,5.91,5.8,1.3-3.71-28.9Zm-10.63,15.19l6.27-10.54,1.19,12.21-7.46-1.67Z"/>
      <polygon class="cls-8" points="258.56 439.33 248.61 466.05 243.23 465.64 240.58 444.39 234.72 464.99 229.34 464.58 223.55 436.67 229.4 437.11 232.63 456.73 238.06 437.77 244.09 438.23 246.58 457.8 252.75 438.89 258.56 439.33"/>
      <path class="cls-8" d="m219.02,450.42c-.15-4.41-1.5-7.87-4.02-10.39s-5.85-3.7-9.96-3.56c-4.1.15-7.32,1.56-9.65,4.24-2.34,2.68-3.43,6.24-3.27,10.66.16,4.41,1.49,7.88,4.01,10.4,2.51,2.52,5.82,3.7,9.93,3.56,4.11-.15,7.34-1.56,9.68-4.25,2.34-2.69,3.44-6.25,3.28-10.66Zm-7.52,7.3c-1.3,1.71-3.17,2.61-5.61,2.7-2.41.08-4.32-.68-5.73-2.31-1.4-1.62-2.15-3.93-2.26-6.94-.11-3.03.48-5.39,1.77-7.1,1.29-1.71,3.14-2.6,5.55-2.69,2.44-.08,4.36.68,5.78,2.3,1.42,1.62,2.18,3.93,2.28,6.95.11,3.01-.49,5.37-1.78,7.09Z"/>
      <path class="cls-8" d="m188.86,464.53c-.71-.26-1.19-1.2-1.43-2.82v-.11s-.53-3.2-.53-3.2c-.3-1.82-.76-3.12-1.36-3.92-.61-.8-1.53-1.33-2.77-1.61,1.27-.57,2.18-1.45,2.74-2.65.56-1.18.74-2.61.53-4.27-.32-2.6-1.28-4.45-2.88-5.54-1.59-1.09-3.87-1.44-6.86-1.07l-13.25,1.65,3.39,27.18,5.62-.69h0s-1.32-10.59-1.32-10.59l5.96-.75c1.5-.18,2.57-.02,3.23.5.64.53,1.1,1.62,1.38,3.3l.43,2.86c.12.77.27,1.43.44,1.98.18.54.39.99.63,1.35l6.16-.77-.11-.83Zm-9.04-14.45c-.6.66-1.62,1.08-3.06,1.26l-6.61.82-.9-7.18,6.87-.86c1.31-.16,2.32.02,3.06.55.72.52,1.16,1.38,1.31,2.56.16,1.24-.06,2.19-.67,2.85Z"/>
      <path class="cls-8" d="m161.96,468.94l-.19-.82c-.74-.19-1.31-1.08-1.71-2.66l-.02-.12-.83-3.13c-.49-1.77-1.07-3.02-1.75-3.76-.69-.74-1.66-1.17-2.92-1.32,1.21-.69,2.03-1.66,2.46-2.91.44-1.24.48-2.68.1-4.31-.58-2.55-1.72-4.3-3.42-5.22-1.69-.92-4-1.05-6.93-.38l-13.02,2.98,6.09,26.7,5.53-1.26-2.38-10.4,5.86-1.34c1.47-.34,2.56-.28,3.26.18.7.45,1.26,1.49,1.7,3.14l.72,2.8c.2.75.41,1.39.64,1.92s.48.95.76,1.28h0s6.05-1.37,6.05-1.37Zm-10.64-14.29c-.53.71-1.5,1.23-2.91,1.56l-6.5,1.48-1.61-7.06,6.75-1.54c1.28-.29,2.31-.22,3.1.24.77.45,1.29,1.25,1.56,2.41.28,1.22.15,2.18-.39,2.91Z"/>
      <path class="cls-8" d="m119.22,451.57l-6.23,1.98-.45,12.54-.23,6.41-.37,10.12,5.69-1.8h0s.02-4.47.02-4.47v-1.46l4.9-1.56,5.27-1.67,3.49,4.81,5.67-1.8-17.76-23.1Zm-1.35,18.42l-.19.06v-.2l.11-12.07,7.18,9.95-7.1,2.26Z"/>
      <path class="cls-8" d="m107.42,475.66c-.63-1.47-1.47-2.56-2.53-3.27-1.07-.72-2.37-1.06-3.9-1.03.81-.9,1.28-1.88,1.42-2.95.14-1.06-.06-2.24-.6-3.51-.06-.14-.12-.28-.2-.42-.87-1.83-2.17-2.99-3.85-3.46-.26-.08-.52-.13-.8-.17-1.66-.25-3.6.11-5.82,1.05l-11.95,5.07,10.7,25.21,11.55-4.9c2.95-1.25,4.94-2.89,5.99-4.91,1.03-2.01,1.03-4.25-.01-6.71Zm-19.09-1.07l-2.28-5.36,5.91-2.51c1.35-.57,2.39-.77,3.14-.6.76.17,1.33.71,1.73,1.64.4.95.39,1.76-.01,2.45-.42.69-1.26,1.31-2.54,1.86l-5.95,2.52Zm13.66,6.14c-.45.82-1.4,1.53-2.86,2.15l-6.17,2.62-2.8-6.6,6.13-2.6c1.51-.64,2.7-.84,3.58-.6s1.56.95,2.06,2.13c.48,1.13.5,2.1.06,2.9Z"/>
      <path class="cls-15" d="m96.83,467.76c-.4-.93-.97-1.47-1.73-1.64-.75-.17-1.79.03-3.14.6l-5.91,2.51,2.28,5.36,5.95-2.52c1.28-.55,2.12-1.17,2.54-1.86.4-.69.41-1.5.01-2.45Z"/>
      <path class="cls-15" d="m101.93,477.83c-.5-1.18-1.18-1.89-2.06-2.13s-2.07-.04-3.58.6l-6.13,2.6,2.8,6.6,6.17-2.62c1.46-.62,2.41-1.33,2.86-2.15.44-.8.42-1.77-.06-2.9Z"/>
      <path class="cls-15" d="m117.79,457.78l-.11,12.07v.2l.19-.06,7.1-2.26-7.18-9.95Z"/>
      <path class="cls-15" d="m151.71,451.74c-.27-1.16-.79-1.96-1.56-2.41-.79-.46-1.82-.53-3.1-.24l-6.75,1.54,1.61,7.06,6.5-1.48c1.41-.33,2.38-.85,2.91-1.56.54-.73.67-1.69.39-2.91Z"/>
      <path class="cls-15" d="m180.49,447.23c-.15-1.18-.59-2.04-1.31-2.56-.74-.53-1.75-.71-3.06-.55l-6.87.86.9,7.18,6.61-.82c1.44-.18,2.46-.6,3.06-1.26.61-.66.83-1.61.67-2.85Z"/>
      <path class="cls-15" d="m213.28,450.63c-.1-3.02-.86-5.33-2.28-6.95-1.42-1.62-3.34-2.38-5.78-2.3-2.41.09-4.26.98-5.55,2.69-1.29,1.71-1.88,4.07-1.77,7.1.11,3.01.86,5.32,2.26,6.94,1.41,1.63,3.32,2.39,5.73,2.31,2.44-.09,4.31-.99,5.61-2.7,1.29-1.72,1.89-4.08,1.78-7.09Z"/>
      <path class="cls-15" d="m284.98,450.01l-6.27,10.54,7.46,1.67-1.19-12.21Z"/>
      <path class="cls-15" d="m98.56,412.71c-1.99-.59-4.53-.89-7.03-.84-1.78.04-3.52.26-5,.69-8.26,2.38-16.22,4.45-23.89,6.01-1.12.23-2.24.44-3.34.64-2.1.4-4.18.74-6.23,1.04-4.3.63-8.49,1.07-12.57,1.27-6.93.34-13.44-.01-19.3-1.67-3.65-1.04-7.04-2.57-10.1-4.74,2.35,10.21,8.74,18.83,15.05,27.35,1.67,2.26,3.34,4.51,4.83,6.64.69.98.62,2.27-.08,3.16-3.72,4.72-7.77,8.7-12.28,12.01-3.19,2.33-6.6,4.33-10.28,6.03,6.96,4.14,14.37,6.72,22.23,7.98,8.9,1.43,18.41,1.16,28.53-.44l-.42-34.35v-.56c.01-3.62,3.33-6.44,7.77-8.77,1.61-.85,3.37-1.63,5.17-2.36h0c2.25-.91,4.57-1.74,6.73-2.52,1.95-.7,3.76-1.35,5.27-1.97,5.19-2.12,10.11-4.73,13.44-7.58,2.34-1.99,3.82-4.02,3.87-5.92v-.06c-.18-.27-1.09-.65-2.38-1.04Z"/>
      <path class="cls-15" d="m411.98,463.89c-4.36-3.24-8.4-6.87-12.13-10.87-.87-.92-.94-2.31-.24-3.32,1.58-2.26,3.01-4.21,4.44-6.16,6.29-8.57,12.57-17.14,14.95-27.77-2.46,1.58-5.31,2.74-8.46,3.6-5.71,1.55-12.47,2.05-19.7,2.15-3.27.05-6.73-.12-10.33-.48-2.11-.21-4.26-.49-6.46-.83-.38-.06-.75-.12-1.13-.18-6.35-1.06-13.07-2.68-20.01-4.81-5.95-1.83-11.8-2.76-16.41-2.78-2.35-.01-4.33.22-5.77.69-.86.29-1.38.56-1.45.79v.02c-.01.92,1.68,3.03,3.93,5.26,2.58,2.54,5.78,4.94,8.24,5.93,2.2.88,4.2,1.66,6.17,2.43,4.85,1.88,9.55,3.71,13.51,5.63,1.8.87,3.45,1.76,4.88,2.67,3.11,2,5.23,4.13,5.77,6.53.08.26.13.54.13.83l.21,34.77c7.93,1.31,15.87,2.24,24.21,1.33,7.96-.88,16.39-3.44,25.7-9-3.53-1.93-6.87-4.08-10.05-6.43Z"/>
      <path class="cls-15" d="m362.16,439.51c-1.45-.79-3.2-1.61-5.15-2.46-3.34-1.45-7.26-2.98-11.3-4.55-2.14-.83-4.31-1.68-6.23-2.45-3.11-1.25-6.97-4.1-9.98-7.07l-.23-.23v13.05c6.24,2.65,12.39,5.49,18.45,8.51.26.13.51.25.77.37,2.07.95,4,1.52,5.79,1.88.03.01.06.01.09.02,2.01.38,3.85.51,5.51.58,1.8-.09,3.73-.7,5.15-1.63.94-.63,1.59-1.31,1.59-1.91,0-1.23-1.7-2.61-4.46-4.11Z"/>
      <path class="cls-15" d="m100.52,423.76c-3.8,3.24-9.22,6.13-14.88,8.45-1.54.63-3.45,1.32-5.49,2.05-1.38.5-2.84,1.02-4.29,1.56-1.88.7-3.74,1.44-5.42,2.18-3.71,1.65-6.5,3.37-6.47,4.96v.3c.06,1.44.9,2.26,2,2.73,1.69.71,3.97.84,5.85.84,2.38-.01,4.68-.49,6.92-1.23,1.86-.62,3.67-1.42,5.46-2.26.83-.39,1.65-.79,2.47-1.19l.61-.3c4.48-2.18,9.01-4.27,13.59-6.24l.04-12.19-.39.34Z"/>
      <path class="cls-5" d="m367.57,234.62c-.24-3.95-2.69-6.32-6.41-7.69-1.48-.55-3.17-.93-4.99-1.19-1.68-.24-3.48-.38-5.35-.44,1.43-.83,2.85-1.67,4.12-2.62,2.61-1.94,4.59-4.36,4.75-8.2.13-2.9-.92-5.24-2.71-7.14-1.75-1.84-4.19-3.24-6.93-4.32-1.59-.62-2.87-1.44-3.96-2.47-1.11-1.04-2.03-2.3-2.88-3.79-1.33-2.32-3.08-4.24-5.29-5.5-2-1.13-4.37-1.7-7.13-1.51-3.44.24-5.92,2.41-7.81,5.58-.7,1.16-1.32,2.46-1.87,3.85-.51,1.27-.97,2.61-1.39,3.99-.44-2.01-.96-3.99-1.66-5.81-.24-.6-.49-1.19-.77-1.75-.81-1.63-1.82-3.05-3.13-4.14-1.32-1.09-2.92-1.84-4.93-2.14h-.04c-5.35-.5-8.6,2.96-11.8,6.36-.28.29-.55.58-.8.84-1.02,1.07-2.16,1.85-3.41,2.51-1.29.67-2.72,1.22-4.31,1.79-2.72,1-5.12,2.3-6.93,4.07-1.85,1.81-3.06,4.09-3.36,7-.41,4.01,3.06,6.98,6.6,10.01.79.67,1.58,1.36,2.33,2.05.47.44.93.88,1.35,1.33-2.03-.16-3.99-.21-5.81-.13-2.27.1-4.34.41-6.12.97-3.35,1.05-5.7,2.97-6.49,6.05-.53,2.11-.37,4.02.2,5.81.54,1.74,1.47,3.34,2.5,4.88,3.5,5.29,4.17,9.32,4.86,13.54v.02c.43,2.56,1.65,5.22,3.42,7.18,1.6,1.75,3.67,2.96,6.03,3.04,2.46.08,4.6-.83,6.63-2.13,1.26-.8,2.47-1.75,3.69-2.71.77-.6,1.53-1.21,2.31-1.77-.97,1.98-1.66,3.93-1.99,5.82-.07.33-.11.66-.15.98-.33,2.9.18,5.65,1.75,8.15,1.63,2.61,3.53,3.7,5.6,4,1.99.29,4.06-.17,6.19-.7,2.37-.58,4.79-.94,7.1-.97,2.01-.02,3.94.22,5.68.81,1.94.67,3.71,1,5.42.99,1.73-.02,3.39-.39,5.06-1.16l.14-.06s.04-.02.06-.03c2.94-1.41,4.77-3.66,5.3-6.83.11-.67.16-1.38.14-2.13-.02-2.06-.52-4.43-1.54-7.12,1.09.93,2.17,1.82,3.26,2.61.02.01.02.02.02.02,3.03,2.18,6.2,3.56,10.25,2.68,2.58-.56,4.35-2.12,5.54-4.38,1.13-2.15,1.72-4.93,1.99-8.05.15-1.64.57-3.06,1.24-4.44.68-1.43,1.64-2.85,2.83-4.46,1-1.36,1.97-2.84,2.66-4.64.69-1.81,1.09-3.92.94-6.51Zm-2.43,5.94c-.62,1.64-1.52,3.01-2.46,4.27-1.24,1.68-2.23,3.17-2.97,4.7-.76,1.57-1.23,3.16-1.4,5-.25,2.93-.79,5.51-1.81,7.45-.61,1.15-1.39,2.08-2.4,2.72-.15.1-.31.19-.47.27-.12.07-.24.13-.37.18-.38.16-.79.29-1.23.39-1.24.27-2.4.28-3.51.1-.31-.05-.61-.12-.91-.21-.17-.04-.34-.09-.51-.15-.78-.25-1.54-.6-2.28-1.03-.28-.15-.55-.32-.82-.5-1.61-1.03-3.18-2.36-4.8-3.75-.61-.51-1.22-1.03-1.91-1.6-.33-.27-.81-.23-1.09.08l-.03.03c-.2.24-.23.57-.1.84h0c.04.08.08.15.11.22l.22.48c.64,1.4,1.15,2.72,1.53,3.95.83,2.66,1.06,4.91.75,6.78-.43,2.61-1.96,4.48-4.41,5.65l-.06.03-.12.06c-.37.17-.73.31-1.1.44-1.09.38-2.18.56-3.31.57-1.52.01-3.12-.3-4.9-.9-.46-.16-.94-.3-1.42-.41s-.97-.2-1.47-.28c-1.07-.16-2.19-.22-3.32-.21-.92.01-1.84.07-2.78.18-.62.06-1.25.15-1.87.26-.31.05-.63.11-.94.17-.62.12-1.24.26-1.86.41-1.98.48-3.89.92-5.59.67-1.63-.23-3.14-1.12-4.48-3.27-1.36-2.18-1.81-4.58-1.52-7.12.33-2.83,1.55-5.84,3.45-8.92.19-.31.15-.7-.1-.96-.02-.03-.05-.05-.07-.07-.02-.03-.06-.05-.09-.07-.09-.06-.18-.08-.28-.1h-.01s-.08-.02-.12-.02c-.06,0-.12,0-.17.03-.07.01-.14.03-.2.07-1.82.96-3.49,2.27-5.14,3.56-2.96,2.33-5.89,4.62-9.29,4.51-1.89-.07-3.57-1.06-4.9-2.53-1.57-1.72-2.65-4.08-3.02-6.36v-.02c-.73-4.39-1.43-8.59-5.12-14.16-.95-1.43-1.81-2.91-2.3-4.48-.48-1.52-.63-3.14-.17-4.93.63-2.48,2.6-4.05,5.42-4.93,3.07-.96,7.13-1.13,11.59-.76.54.05,1.09.1,1.64.16.12.01.24,0,.35-.03.28-.1.49-.36.53-.67.02-.22-.04-.43-.17-.59-1.36-1.82-3.26-3.45-5.14-5.06-3.22-2.76-6.37-5.46-6.05-8.63.26-2.51,1.31-4.47,2.9-6.03,1.62-1.6,3.83-2.79,6.36-3.71,1.63-.6,3.11-1.16,4.49-1.88,1.41-.74,2.68-1.62,3.83-2.82l.81-.85c2.92-3.11,5.9-6.27,10.45-5.87,3.39.51,5.47,2.59,6.87,5.41,1.17,2.35,1.89,5.23,2.5,8.15.15.73.3,1.46.44,2.19.09.43.51.71.94.62.05-.01.09-.02.13-.05.25-.08.43-.3.49-.56,1.04-3.86,2.27-7.67,3.98-10.53,1.63-2.74,3.72-4.61,6.54-4.81,2.44-.16,4.51.33,6.25,1.32,1.94,1.1,3.49,2.81,4.68,4.9.93,1.62,1.95,3,3.18,4.16.31.29.63.57.97.83,1.01.79,2.16,1.44,3.5,1.96,2.55,1,4.8,2.28,6.35,3.93,1.51,1.59,2.39,3.56,2.28,5.99-.21,4.93-4.21,7.26-8.27,9.62-.77.44-1.53.89-2.25,1.33-.06.04-.11.09-.16.14-.24.26-.29.65-.1.96.11.18.29.3.48.35.05.02.11.03.16.02.03.01.06.01.09.01.33,0,.65,0,.98,0,4.4.03,8.48.43,11.58,1.56,3.12,1.16,5.18,3.1,5.37,6.29.14,2.34-.22,4.23-.84,5.85Z"/>
      <path class="cls-12" d="m365.98,234.71c-.19-3.19-2.25-5.13-5.37-6.29-3.1-1.13-7.18-1.53-11.58-1.56-.33,0-.65,0-.98,0-.03,0-.06,0-.09-.01-.05.01-.11,0-.16-.02-.19-.05-.37-.17-.48-.35-.19-.31-.14-.7.1-.96.05-.05.1-.1.16-.14.72-.44,1.48-.89,2.25-1.33,4.06-2.36,8.06-4.69,8.27-9.62.11-2.43-.77-4.4-2.28-5.99-1.55-1.65-3.8-2.93-6.35-3.93-1.34-.52-2.49-1.17-3.5-1.96-.34-.26-.66-.54-.97-.83-1.23-1.16-2.25-2.54-3.18-4.16-1.19-2.09-2.74-3.8-4.68-4.9-1.74-.99-3.81-1.48-6.25-1.32-2.82.2-4.91,2.07-6.54,4.81-1.71,2.86-2.94,6.67-3.98,10.53-.06.26-.24.48-.49.56-.04.03-.08.04-.13.05-.43.09-.85-.19-.94-.62-.14-.73-.29-1.46-.44-2.19-.61-2.92-1.33-5.8-2.5-8.15-1.4-2.82-3.48-4.9-6.87-5.41-4.55-.4-7.53,2.76-10.45,5.87l-.81.85c-1.15,1.2-2.42,2.08-3.83,2.82-1.38.72-2.86,1.28-4.49,1.88-2.53.92-4.74,2.11-6.36,3.71-1.59,1.56-2.64,3.52-2.9,6.03-.32,3.17,2.83,5.87,6.05,8.63,1.88,1.61,3.78,3.24,5.14,5.06.13.16.19.37.17.59-.04.31-.25.57-.53.67-.11.03-.23.04-.35.03-.55-.06-1.1-.11-1.64-.16-4.46-.37-8.52-.2-11.59.76-2.82.88-4.79,2.45-5.42,4.93-.46,1.79-.31,3.41.17,4.93.49,1.57,1.35,3.05,2.3,4.48,3.69,5.57,4.39,9.77,5.11,14.16v.02c.38,2.28,1.46,4.64,3.03,6.36,1.33,1.47,3.01,2.46,4.9,2.53,3.4.11,6.33-2.18,9.29-4.51,1.65-1.29,3.32-2.6,5.14-3.56.06-.04.13-.06.2-.07.09-.02.19-.03.29-.01h.01c.1.02.19.05.28.11.03.02.06.04.09.06.02.02.05.04.07.07.25.26.29.65.1.96-1.9,3.08-3.12,6.09-3.45,8.92-.29,2.54.16,4.94,1.52,7.12,1.34,2.15,2.85,3.04,4.48,3.27,1.7.25,3.61-.19,5.59-.67.62-.15,1.24-.29,1.86-.41.31-.06.63-.12.94-.17.62-.11,1.25-.2,1.87-.26.94-.11,1.86-.17,2.78-.18,1.13-.01,2.25.05,3.32.21.5.07.99.16,1.47.28.48.11.96.25,1.42.41,1.78.6,3.38.91,4.9.9,1.13-.01,2.22-.19,3.31-.57.37-.13.73-.27,1.1-.44l.12-.06.06-.03c2.45-1.17,3.98-3.04,4.41-5.65.31-1.87.08-4.12-.75-6.78-.38-1.23-.89-2.55-1.53-3.95l-.22-.48-.1-.22c-.13-.27-.1-.6.1-.84l.03-.03c.28-.31.76-.35,1.09-.08.69.57,1.3,1.09,1.91,1.6,1.62,1.39,3.19,2.72,4.8,3.75.27.18.54.35.82.5.74.43,1.5.78,2.28,1.03.17.06.34.11.51.15.3.09.6.16.91.21,1.11.18,2.27.17,3.51-.1.44-.1.85-.23,1.23-.39.13-.05.25-.11.37-.18.16-.08.32-.17.47-.27,1.01-.64,1.79-1.57,2.4-2.72,1.02-1.94,1.56-4.52,1.81-7.45.17-1.84.64-3.43,1.4-5,.74-1.53,1.73-3.02,2.97-4.7.94-1.26,1.84-2.63,2.46-4.27.62-1.62.98-3.51.84-5.85Z"/>
      <path class="cls-4" d="m365.98,234.71c-.19-3.19-2.25-5.13-5.37-6.29-3.1-1.13-7.18-1.53-11.58-1.56-.33,0-.65,0-.98,0-.03,0-.06,0-.09-.01-.05.01-.11,0-.16-.02-.19-.05-.37-.17-.48-.35-.19-.31-.14-.7.1-.96.05-.05.1-.1.16-.14.72-.44,1.48-.89,2.25-1.33,4.06-2.36,8.06-4.69,8.27-9.62.11-2.43-.77-4.4-2.28-5.99-1.55-1.65-3.8-2.93-6.35-3.93-1.34-.52-2.49-1.17-3.5-1.96-.34-.26-.66-.54-.97-.83-1.23-1.16-2.25-2.54-3.18-4.16-1.19-2.09-2.74-3.8-4.68-4.9-1.74-.99-3.81-1.48-6.25-1.32-2.82.2-4.91,2.07-6.54,4.81-1.71,2.86-2.94,6.67-3.98,10.53-.06.26-.24.48-.49.56-.04.03-.08.04-.13.05-.43.09-.85-.19-.94-.62-.14-.73-.29-1.46-.44-2.19-.61-2.92-1.33-5.8-2.5-8.15-1.4-2.82-3.48-4.9-6.87-5.41-4.55-.4-7.53,2.76-10.45,5.87l-.81.85c-1.15,1.2-2.42,2.08-3.83,2.82-1.38.72-2.86,1.28-4.49,1.88-2.53.92-4.74,2.11-6.36,3.71-1.59,1.56-2.64,3.52-2.9,6.03-.32,3.17,2.83,5.87,6.05,8.63,1.88,1.61,3.78,3.24,5.14,5.06.13.16.19.37.17.59-.04.31-.25.57-.53.67-.11.03-.23.04-.35.03-.55-.06-1.1-.11-1.64-.16-4.46-.37-8.52-.2-11.59.76-2.82.88-4.79,2.45-5.42,4.93-.46,1.79-.31,3.41.17,4.93.49,1.57,1.35,3.05,2.3,4.48,3.69,5.57,4.39,9.77,5.11,14.16v.02c.38,2.28,1.46,4.64,3.03,6.36,1.33,1.47,3.01,2.46,4.9,2.53,3.4.11,6.33-2.18,9.29-4.51,1.65-1.29,3.32-2.6,5.14-3.56.06-.04.13-.06.2-.07.09-.02.19-.03.29-.01h.01c.1.02.19.05.28.11.03.02.06.04.09.06.02.02.05.04.07.07.25.26.29.65.1.96-1.9,3.08-3.12,6.09-3.45,8.92-.29,2.54.16,4.94,1.52,7.12,1.34,2.15,2.85,3.04,4.48,3.27,1.7.25,3.61-.19,5.59-.67.62-.15,1.24-.29,1.86-.41.31-.06.63-.12.94-.17.62-.11,1.25-.2,1.87-.26.94-.11,1.86-.17,2.78-.18,1.13-.01,2.25.05,3.32.21.5.07.99.16,1.47.28.48.11.96.25,1.42.41,1.78.6,3.38.91,4.9.9,1.13-.01,2.22-.19,3.31-.57.37-.13.73-.27,1.1-.44l.12-.06.06-.03c2.45-1.17,3.98-3.04,4.41-5.65.31-1.87.08-4.12-.75-6.78-.38-1.23-.89-2.55-1.53-3.95l-.22-.48-.1-.22c-.13-.27-.1-.6.1-.84l.03-.03c.28-.31.76-.35,1.09-.08.69.57,1.3,1.09,1.91,1.6,1.62,1.39,3.19,2.72,4.8,3.75.27.18.54.35.82.5.74.43,1.5.78,2.28,1.03.17.06.34.11.51.15.3.09.6.16.91.21,1.1.19,2.27.18,3.51-.09.44-.1.85-.23,1.23-.4.13-.05.25-.11.37-.18.16-.08.32-.17.47-.27,1.01-.64,1.79-1.57,2.4-2.72,1.02-1.94,1.56-4.52,1.81-7.45.17-1.84.64-3.43,1.4-5,.74-1.53,1.73-3.02,2.97-4.7.94-1.26,1.84-2.63,2.46-4.27.62-1.62.98-3.51.84-5.85Z"/>
      <path class="cls-5" d="m326.09,228.38c-1.63-1.7-3.9-2.76-6.39-2.76s-4.75,1.06-6.39,2.76c-1.63,1.7-2.63,4.04-2.63,6.62s1,4.92,2.63,6.62c1.64,1.7,3.89,2.75,6.39,2.75s4.76-1.05,6.39-2.75c1.63-1.7,2.63-4.04,2.63-6.62s-1-4.92-2.63-6.62Zm-1.14,12.13c-1.35,1.4-3.2,2.27-5.25,2.27s-3.9-.87-5.24-2.27c-1.36-1.4-2.19-3.36-2.19-5.51s.83-4.11,2.19-5.51c1.34-1.41,3.19-2.27,5.24-2.27s3.9.86,5.25,2.27c1.34,1.4,2.18,3.35,2.18,5.51s-.84,4.11-2.18,5.51Z"/>
      <path class="cls-5" d="m343.88,231.73c-.06-.96-.19-1.85-.38-2.66-.73-3.2-2.34-5.36-4.48-6.67-2.11-1.3-4.69-1.75-7.41-1.57-.68.04-1.37.13-2.06.25.02-.47.03-.94,0-1.39-.1-2.45-.84-4.55-2.2-6.12-1.36-1.59-3.34-2.62-5.91-2.91-.69-.08-1.43-.1-2.22-.07-2.08.1-3.88.48-5.38,1.1-1.73.73-3.06,1.77-3.95,3.07-.89,1.31-1.32,2.86-1.25,4.57.03.52.1,1.04.21,1.58-.6-.3-1.21-.56-1.83-.76-1.92-.62-3.88-.69-5.68-.16-1.8.54-3.45,1.68-4.74,3.46-.75,1.04-1.39,2.3-1.87,3.79-.5,1.55-.72,3-.71,4.34.02,2.32.75,4.3,1.95,5.85,1.21,1.55,2.82,2.03,4.75,2.65.58.19,1.28.17,1.9.26-1.82,1.7-2.87,4.06-3.18,5.64-.4,2.02.33,3.98,2.02,6.24,1.7,2.28,3.7,3.91,5.76,4.81,1.45.62,2.92.89,4.33.77,1.45-.11,2.82-.62,4.07-1.55,1.06-.79,2.01-1.88,2.8-3.31,1.7,2.42,3.85,3.84,6.16,4.34,2.46.54,5.08.05,7.55-1.35.24-.14.47-.28.7-.42,1.15-.74,2.14-1.64,2.91-2.65,1.05-1.38,1.7-2.96,1.8-4.65.1-1.68-.34-3.46-1.47-5.21-.42-.66-.95-1.32-1.57-1.96.38,0,.76-.01,1.13-.03,2.03-.14,3.85-.74,5.28-1.83,1.45-1.1,2.47-2.69,2.84-4.79.15-.82.2-1.71.13-2.66Zm-1.77,2.71c-.02.13-.05.26-.09.39-.02.09-.05.18-.09.27-.05.19-.12.37-.21.55-.07.19-.17.38-.27.55-.02.04-.05.08-.07.12-.11.18-.23.36-.35.52-.13.16-.26.31-.39.46-.04.03-.07.07-.11.1-.12.13-.24.24-.38.35-.03.03-.06.05-.09.08-.05.04-.09.07-.14.11-.12.09-.24.18-.36.25-.14.1-.29.18-.45.26-.38.22-.79.39-1.23.53-.14.05-.29.09-.43.13-.06.02-.12.04-.19.05-.15.03-.3.07-.46.1-.03.01-.05.01-.08.01-.18.03-.37.06-.55.09-.21.02-.43.04-.64.06-.26.02-.52.03-.79.03-.8,0-1.64-.08-2.48-.23-.15-.03-.29-.01-.41.04-.04.01-.08.03-.11.05-.03.01-.06.03-.08.05-.04.03-.08.06-.12.1-.03.04-.06.08-.09.12-.05.09-.08.18-.11.28-.05.27.03.57.3.78,1.38,1.05,2.4,2.14,3.1,3.22.21.33.39.66.54.98.16.33.28.65.38.98.03.09.06.19.08.28.15.55.22,1.1.22,1.64,0,.13,0,.25,0,.37,0,.03,0,.07-.01.1,0,.17-.03.35-.06.52-.02.14-.05.28-.08.41-.25,1.06-.76,2.07-1.5,2.97-.1.13-.21.26-.32.38-.16.17-.32.33-.49.49-.08.08-.16.15-.25.23-.03.03-.06.06-.1.09-.1.08-.2.16-.3.24h0s-.04.04-.07.06c-.07.05-.14.11-.21.16-.19.14-.39.28-.59.41-.21.14-.42.26-.62.38-.84.47-1.69.82-2.52,1.04-.14.04-.27.07-.41.1-.07.02-.14.04-.2.04-.15.04-.31.06-.47.08-.18.03-.35.05-.52.06-.18.02-.37.03-.55.03h-.12c-.18,0-.35,0-.53-.02-.14,0-.27-.02-.41-.04-.14-.02-.27-.04-.41-.06-.1-.01-.19-.03-.29-.05-.17-.04-.34-.08-.51-.14-.35-.1-.7-.23-1.03-.39-.17-.07-.34-.15-.5-.25-.34-.19-.66-.39-.97-.63-.09-.07-.19-.14-.28-.22-.12-.09-.23-.19-.34-.29-.11-.1-.22-.2-.33-.31-.23-.23-.46-.47-.67-.73-.09-.11-.18-.22-.27-.34-.1-.13-.2-.26-.29-.4-.1-.14-.19-.29-.29-.43-.07-.1-.13-.2-.19-.3-.08-.12-.15-.24-.22-.36-.04-.07-.08-.12-.13-.17-.05-.05-.1-.1-.16-.13-.06-.04-.12-.06-.19-.08-.07-.02-.14-.03-.21-.03-.08,0-.15.01-.22.03-.22.06-.41.21-.51.45-.31.72-.68,1.39-1.1,1.99-.09.15-.19.29-.3.42-.12.17-.25.33-.4.48-.09.12-.2.23-.31.34-.87.88-1.89,1.52-3.08,1.81-.15.04-.3.08-.46.1-.17.03-.35.05-.53.07-.18.01-.37.02-.55.02-.19,0-.38-.01-.57-.03-.12-.01-.25-.02-.37-.04-.18-.03-.36-.06-.54-.1-.12-.03-.24-.05-.36-.08-.2-.05-.39-.11-.57-.18-.15-.05-.3-.11-.44-.17-.95-.39-1.85-.95-2.69-1.62-.15-.13-.3-.25-.44-.38-.16-.14-.32-.28-.47-.44-.18-.16-.34-.33-.5-.5-.21-.22-.41-.45-.61-.69-.2-.23-.4-.48-.59-.74-1.4-1.89-2.03-3.46-1.73-4.99.32-1.57,1.65-4.01,4.09-5.97.07-.06.12-.12.17-.19.05-.08.09-.17.11-.26.02-.11.02-.21,0-.32-.02-.08-.05-.16-.09-.23-.02-.05-.05-.09-.08-.12,0,0,0-.01,0-.01-.03-.04-.06-.07-.09-.09,0-.01-.02-.02-.03-.03-.01-.01-.01-.02-.02-.02-.13-.1-.31-.16-.52-.15-1.13,0-2.32,0-3.33-.32-1.63-.52-2.98-.82-3.98-2.11-.14-.18-.27-.37-.39-.56-.46-.71-.78-1.47-.97-2.27-.06-.21-.1-.43-.14-.65-.03-.17-.05-.34-.07-.51-.06-.61-.06-1.23-.01-1.86.02-.23.04-.46.08-.7.03-.22.07-.46.12-.69.1-.5.23-1,.39-1.49.11-.33.22-.65.35-.95.11-.29.24-.57.37-.83.02-.04.03-.07.06-.11.08-.17.16-.33.26-.49.08-.15.16-.28.25-.42.27-.42.56-.81.87-1.17.44-.51.93-.94,1.45-1.3.18-.13.35-.24.53-.33.18-.11.36-.2.54-.28.17-.08.34-.15.51-.2.05-.02.1-.04.16-.06.11-.04.22-.08.34-.11.11-.03.21-.06.32-.08.02,0,.04,0,.07-.02.34-.07.69-.12,1.04-.14.28-.02.57-.01.86,0,.08.01.15.01.23.01.28.02.57.06.87.12.09,0,.18.03.27.05.27.06.55.13.82.22.13.04.26.08.38.12.19.06.38.13.57.21.13.06.27.12.41.18.27.12.54.26.81.43.2.11.41.23.61.37.2.12.39.26.59.4.36.26.86.18,1.12-.18.1-.14.14-.28.14-.43,0-.09,0-.17-.03-.25,0-.05-.02-.1-.04-.15-.09-.21-.17-.41-.23-.62-.04-.13-.09-.27-.14-.41-.03-.07-.05-.15-.07-.23-.01-.02-.02-.04-.02-.06-.09-.35-.16-.69-.21-1.02-.03-.25-.06-.5-.07-.74,0-.11-.01-.22-.01-.33,0-.3.02-.59.06-.88.02-.14.05-.29.08-.43.04-.18.09-.36.14-.53.08-.26.18-.51.3-.75.11-.24.25-.47.41-.69.09-.13.18-.25.28-.38.1-.12.21-.24.32-.36.23-.23.48-.46.75-.67.19-.14.38-.27.58-.4.16-.1.32-.19.49-.28.17-.1.34-.19.52-.26.1-.05.2-.1.3-.14.12-.05.25-.1.38-.14.17-.06.35-.12.53-.18.54-.17,1.1-.3,1.67-.41.2-.04.41-.07.61-.1.14-.02.27-.03.41-.05.25-.03.49-.05.74-.07.17-.01.33-.02.5-.03.44-.02.88-.02,1.31.01.22.01.45.03.67.05.25.03.49.06.72.11.21.04.41.08.61.14.09.02.18.04.27.07.18.05.35.1.51.17.14.05.28.11.42.17.12.05.24.11.35.16.02.01.04.02.05.03.15.07.29.15.42.24.56.34,1.08.76,1.53,1.28.16.18.3.37.44.57.11.16.21.32.3.49.1.17.19.35.27.53.02.04.04.07.05.11.08.17.14.34.2.51.03.05.05.1.06.15.05.15.09.3.14.45.03.11.06.21.08.32.04.15.07.3.1.46,0,.07.03.14.03.21.03.15.06.31.07.47.02.11.03.22.04.33.02.15.03.31.03.47,0,.23.02.47.02.7,0,.51-.03,1.05-.1,1.61,0,.04,0,.07,0,.11,0,.05.01.09.02.14,0,.05.02.09.04.14.04.08.09.16.14.22.03.04.07.07.11.1.06.05.13.09.21.12.03.02.07.03.11.03.03,0,.05.02.08.02h.07c.07,0,.15-.01.22-.03.95-.21,1.9-.36,2.83-.42.31-.02.61-.03.91-.03.29-.01.58,0,.87.02.25.01.5.03.74.06.49.05.96.13,1.42.24.23.06.45.12.67.19.23.07.44.15.65.24.19.07.38.16.56.25.47.23.91.5,1.31.81.11.08.22.18.33.28.11.09.22.19.33.29.18.18.36.38.53.58.11.13.21.26.31.4.09.11.17.22.23.34.06.08.11.16.16.24.12.19.23.39.33.59.13.24.24.49.34.75.04.09.08.17.1.26.07.18.14.36.19.55.05.14.09.29.13.44.05.17.1.35.14.53.03.13.06.27.08.41.03.13.06.26.07.39.05.26.09.53.11.81.02.1.03.2.03.3.02.15.03.31.04.47,0,.12.02.24.02.35,0,.12,0,.25,0,.37,0,.69-.06,1.31-.21,1.89Z"/>
      <path class="cls-6" d="m325.17,182.58c-.44-.66-1.03-1.32-1.76-1.98-.77-.71-1.62-1.68-2.41-2.56-.45-.51-.88-1-1.24-1.38-.05-.06-.11-.1-.18-.14-.39-.22-.87-.09-1.09.3-.93,1.64-2.02,2.77-3.14,3.94h-.01c-.13.15-.25.28-.35.39-1.44,1.61-2.1,3.18-2.06,4.7.03,1.54.78,2.97,2.15,4.29.12.11.22.2.31.28,1.28,1.15,1.96,2.12,2.31,3.06.35.93.39,1.88.37,2.94,0,.32,0,.63,0,.94,0,2.02.13,4.01.24,5.98.02.38.05.76.07,1.13.04.78.08,1.54.11,2.28.02.38.3.71.69.76.28.03.55-.08.71-.28.1-.11.16-.25.18-.41.15-1.09.32-2.3.49-3.52.19-1.35.38-2.71.56-4.12.13-1.01.26-2.06.38-3.15.06-.53.09-1,.12-1.45.15-1.92.26-3.36,1.85-4.45.58-.39,1.06-.8,1.46-1.23.86-.94,1.3-1.97,1.33-3.06.03-1.06-.33-2.16-1.08-3.26Zm-1.42,5.25c-.31.34-.71.67-1.18.99-2.23,1.52-2.37,3.29-2.54,5.65-.04.45-.07.93-.12,1.39-.08.72-.16,1.42-.25,2.11-.01-.5-.01-1.01,0-1.52.02-1.23-.03-2.35-.47-3.53-.05-.15-.12-.3-.18-.44-.14-.3-.3-.6-.49-.9-.09-.15-.2-.3-.31-.45-.22-.3-.48-.61-.77-.93-.07-.08-.15-.17-.23-.24-.08-.09-.16-.16-.24-.24-.16-.17-.34-.33-.52-.49l-.27-.24c-1.06-1.02-1.64-2.08-1.66-3.17-.03-1.11.51-2.31,1.66-3.61l.31-.34h0c.98-1.03,1.93-2.02,2.81-3.35l.51.57c.8.91,1.68,1.91,2.52,2.68.63.58,1.14,1.15,1.52,1.7.55.82.83,1.6.8,2.33-.02.7-.32,1.38-.91,2.03Z"/>
      <path class="cls-6" d="m375.7,217.1c-1.21-.23-2.56-.77-3.9-1.3-.71-.29-1.42-.57-2.14-.82-1.82-.63-3.41-.63-4.77-.08-1.4.58-2.5,1.73-3.3,3.41-1.13,2.35-2.4,2.81-4.24,3.48-.12.04-.19.07-.47.17l-.06.02c-.61.23-1.24.46-1.88.7-1.44.55-2.93,1.11-4.42,1.67-1.02.38-2.04.77-3.07,1.15-.01,0-.02.01-.03.01-.35.12-.58.49-.53.88.07.43.47.73.91.66.4-.06.81-.12,1.23-.19.63-.1,1.27-.21,1.91-.32,1.74-.3,3.5-.6,5.23-.8.32-.04.65-.08.97-.11.71-.07,1.37-.19,2.02-.31,1.9-.34,3.81-.68,5.22.42,1.9,1.49,3.6,1.83,5.18,1.23,1.5-.57,2.8-1.98,4.01-4.05.3-.51.61-1.11.91-1.71.52-1.01,1.04-2.02,1.67-2.8.09-.11.16-.24.19-.39.08-.43-.2-.85-.64-.92Zm-2.63,3.39c-.27.53-.54,1.06-.87,1.63-1.03,1.76-2.08,2.94-3.2,3.36-1.04.39-2.23.12-3.64-.99-1.97-1.54-4.23-1.14-6.48-.74-.65.12-1.31.24-1.89.3-.56.05-1.11.12-1.66.19l1.07-.4.98-.36h.02s.02-.02.02-.02h0s.47-.17.47-.17c2.2-.8,3.72-1.36,5.13-4.3.62-1.31,1.45-2.2,2.47-2.62,1-.41,2.22-.38,3.65.11.68.23,1.38.51,2.08.79,1.01.41,2.02.81,3.01,1.1-.42.67-.79,1.39-1.16,2.12Z"/>
      <path class="cls-6" d="m352.67,271.63c-.71-1.19-1.81-2.08-3.41-2.35-.29-.05-.6-.07-.94-.08-.72-.01-1.29-.15-1.82-.45-.57-.31-1.12-.8-1.76-1.48-.87-.92-1.74-1.87-2.62-2.85,0,0,0-.01-.02-.02-.82-.92-1.65-1.87-2.48-2.81-.74-.85-1.48-1.69-2.56-2.89-.22-.25-.56-.33-.86-.22-.09.03-.18.09-.26.16-.28.24-.34.63-.18.94h0c.61,1.21,1.12,2.27,1.64,3.33.18.36.35.73.53,1.09.81,1.67,1.63,3.33,2.46,4.91.11.21.22.41.33.62.54.99.92,1.92,1.12,2.86.19.92.2,1.88,0,2.94-.33,1.71.06,3.04.98,4.07.87.96,2.18,1.63,3.76,2.09.79.22,1.61.45,2.47.67.79.21,1.62.42,2.49.63.42.11.85-.16.96-.59h0c.19-.88.34-1.61.49-2.39.15-.76.3-1.58.47-2.62.09-.52.14-1.06.14-1.61.02-1.41-.26-2.82-.92-3.95Zm-.79,5.3c-.17,1-.31,1.8-.47,2.58l-.3,1.54-1.67-.43c-.77-.2-1.57-.42-2.43-.67-1.3-.37-2.36-.89-3.01-1.61-.59-.67-.84-1.54-.61-2.71.25-1.28.23-2.44,0-3.57-.23-1.1-.68-2.17-1.27-3.28-.8-1.49-1.58-3.04-2.35-4.62,1.25,1.41,2.5,2.82,3.81,4.2.75.8,1.42,1.38,2.15,1.79.77.42,1.57.63,2.57.64.24,0,.47.02.7.06,1.08.18,1.82.78,2.3,1.58.5.87.72,1.99.71,3.13,0,.45-.05.91-.13,1.37Z"/>
      <path class="cls-6" d="m302.55,257.35c-.31-.31-.82-.32-1.13-.01-.9.88-1.82,1.76-2.73,2.64-1.55,1.48-3.1,2.98-4.61,4.54-.29.28-.57.58-.85.87l-.07.07c-1.21,1.28-2.25,2.38-4.05,2.36-4.45-.07-5.19,2.65-5.23,5.79,0,.67.01,1.33.04,1.98.01.32.02.64.03.91,0,.68.12,1.3.21,1.92.12.73.24,1.48.21,2.29-.01.12,0,.24.06.36.16.4.62.6,1.03.44,1.29-.52,2.45-.74,3.6-.96.73-.14,1.45-.28,2.22-.49,2.23-.61,3.64-1.6,4.36-2.92.73-1.34.73-2.94.13-4.77-.52-1.56.08-2.57.83-3.84h0c.22-.38.45-.77.66-1.17.26-.5.54-1,.83-1.5.83-1.48,1.77-2.99,2.7-4.49.63-1.02,1.27-2.05,1.86-3.03.19-.31.16-.72-.1-.99Zm-6.7,9.27c-.21.41-.42.76-.62,1.1-.95,1.61-1.72,2.91-.98,5.15.02.07.05.14.06.21.04.11.07.21.09.31h.01v.02c.18.68.23,1.26.18,1.77,0,.08,0,.16-.03.23,0,.03,0,.06-.01.1h0s0,.04-.02.06v.03c-.02.1-.05.2-.09.3,0,.06-.03.11-.05.17,0,.01-.01.02-.02.04-.07.18-.17.36-.28.52,0,.03-.03.05-.06.08-.09.11-.18.22-.28.33-.03.04-.07.07-.12.11-.04.05-.08.08-.12.11-.03.03-.06.06-.09.08,0,.01-.03.02-.04.03-.11.08-.23.17-.35.25-.27.18-.57.33-.89.46-.1.04-.21.09-.32.13-.29.12-.61.22-.96.32-.35.09-.7.17-1.05.25-.02,0-.03,0-.05.01-.12.02-.24.05-.36.07-.12.03-.25.05-.37.08-.24.05-.48.1-.72.14-.53.1-1.08.21-1.64.36-.26.07-.5.14-.74.21l-.1-.81c-.03-.23-.06-.45-.1-.67-.09-.57-.18-1.14-.19-1.71,0-.3-.02-.62-.03-.93,0-.27-.02-.53-.03-.79-.01-.38-.02-.75-.01-1.1,0-.29.01-.57.04-.84.01-.13.02-.27.04-.4.04-.35.11-.67.22-.97.03-.1.06-.2.11-.29.01-.04.03-.07.04-.09.05-.1.1-.2.15-.29.06-.11.12-.21.21-.3.06-.09.14-.18.24-.26.08-.09.18-.17.29-.24.1-.07.21-.14.33-.19.08-.04.17-.08.26-.11.46-.18,1.01-.27,1.69-.26,2.5.04,3.75-1.29,5.23-2.84l.07-.08c1.19-1.25,2.4-2.45,3.63-3.65-.78,1.29-1.52,2.56-2.17,3.79Z"/>
      <path class="cls-6" d="m290.79,225.78c-.96-.53-2-1.11-3.03-1.68-.08-.05-.17-.09-.25-.14-1.92-1.06-3.84-2.14-5.84-3.18l-.05-.02-.4-.21c-1.58-.82-2.92-1.51-3.49-3.33-.18-.58-.41-1.11-.67-1.57-.6-1.04-1.4-1.79-2.38-2.19-.97-.39-2.1-.43-3.34-.04-.53.17-1.09.41-1.66.74-1.23.71-2.52,1.27-3.8,1.83-.63.28-1.27.56-1.94.87-.05.02-.1.05-.15.08-.36.25-.45.75-.2,1.11.5.72.93,1.43,1.35,2.11.49.81.96,1.59,1.47,2.3,1.37,1.89,2.72,3.09,4.13,3.59,1.5.53,3,.26,4.6-.84.82-.57,1.65-.89,2.53-1.01.89-.12,1.86-.02,2.96.28.83.23,1.63.45,2.42.68,1.35.38,2.66.77,3.96,1.15.61.18,1.21.36,1.99.58.35.1.73.21,1.16.34.29.1.62.02.83-.21.04-.05.08-.11.12-.17.21-.38.07-.86-.32-1.07Zm-9.74-2.84c-1.3-.35-2.47-.47-3.59-.32-1.13.15-2.19.57-3.23,1.28-1.14.79-2.18,1-3.17.65-1.08-.38-2.18-1.4-3.36-3.03-.51-.7-.95-1.43-1.41-2.18-.28-.47-.57-.94-.87-1.41l1.1-.48c1-.43,2-.88,2.98-1.38.33-.17.66-.35.98-.53l.18-.09c.06-.03.11-.06.17-.09.34-.18.67-.32.98-.42.88-.27,1.64-.26,2.28,0,.63.26,1.17.77,1.59,1.5.1.18.2.38.29.59.09.21.17.43.24.66.77,2.46,2.39,3.29,4.29,4.27l.39.21.04.02c.95.49,1.89,1,2.83,1.52-.91-.27-1.82-.52-2.71-.77Z"/>
      <path class="cls-15" d="m342.31,232.18c0-.12,0-.23-.01-.35,0-.16-.02-.32-.05-.47,0-.1,0-.2-.03-.3-.02-.28-.06-.55-.11-.81,0-.13-.04-.26-.07-.39-.02-.14-.05-.28-.08-.41-.04-.18-.09-.36-.14-.53-.04-.15-.08-.3-.13-.44-.05-.19-.12-.37-.19-.55-.02-.09-.06-.17-.1-.26-.1-.26-.21-.51-.34-.75-.1-.2-.21-.4-.33-.59-.05-.08-.1-.16-.16-.24-.06-.12-.14-.23-.23-.34-.1-.14-.2-.27-.31-.4-.17-.2-.35-.4-.53-.58-.11-.1-.22-.2-.33-.29-.11-.1-.22-.2-.33-.28-.4-.31-.84-.58-1.31-.81-.18-.09-.37-.18-.56-.25-.21-.09-.42-.17-.65-.24-.22-.07-.44-.13-.67-.19-.45-.12-.92-.2-1.42-.24-.24-.03-.49-.05-.74-.06-.29-.02-.58-.03-.87-.02-.3,0-.6,0-.91.03-.93.06-1.88.21-2.83.42-.07.02-.15.03-.22.03-.05,0-.1-.01-.15-.02-.04,0-.08-.01-.11-.03-.08-.03-.15-.07-.21-.12-.04-.03-.08-.06-.11-.1-.06-.06-.11-.14-.14-.22-.02-.05-.04-.09-.04-.14,0-.05-.02-.09-.02-.14,0-.04,0-.07,0-.11.06-.54.1-1.08.1-1.61,0-.23-.01-.47-.02-.7,0-.16,0-.32-.03-.47-.01-.11-.02-.22-.04-.33-.01-.16-.04-.32-.07-.47,0-.07-.02-.14-.03-.21-.03-.16-.06-.31-.1-.46-.02-.11-.05-.21-.08-.32-.05-.15-.09-.3-.14-.45,0-.05-.03-.1-.06-.15-.06-.17-.12-.34-.2-.51,0-.04-.03-.07-.05-.11-.08-.18-.17-.36-.27-.53-.09-.17-.19-.33-.3-.49-.14-.2-.28-.39-.44-.57-.45-.52-.97-.94-1.53-1.28-.13-.09-.27-.17-.42-.24-.01-.01-.03-.02-.05-.03-.11-.05-.23-.11-.35-.16-.14-.06-.28-.12-.42-.17-.16-.07-.33-.12-.51-.17-.09-.03-.18-.05-.27-.07-.2-.06-.4-.1-.61-.14-.23-.05-.47-.08-.72-.11-.22-.02-.45-.04-.67-.05-.43-.03-.87-.03-1.31-.01-.17.01-.33.02-.5.03-.25.02-.49.04-.74.07-.14.02-.27.03-.41.05-.2.03-.41.06-.61.1-.57.11-1.13.24-1.67.41-.18.06-.36.12-.53.18-.23.09-.46.18-.68.28-.17.08-.35.17-.52.26-.17.09-.33.18-.49.28-.2.13-.39.26-.58.4-.27.21-.52.44-.75.67-.11.12-.22.24-.32.36-.1.13-.19.25-.28.38-.16.22-.3.45-.41.69-.12.24-.22.49-.3.75-.05.17-.1.35-.14.53-.03.14-.06.29-.08.43-.04.29-.06.58-.06.88,0,.11.01.22.01.33.01.24.04.49.07.74.05.39.12.73.21,1.02,0,.02.01.04.02.06.02.08.04.16.07.23.05.14.1.28.14.41.09.24.17.44.23.62.02.05.03.1.04.15.03.08.04.16.03.25,0,.15-.04.29-.14.43-.26.36-.76.44-1.12.18-.2-.14-.39-.28-.59-.4-.2-.14-.41-.26-.61-.37-.27-.17-.54-.31-.81-.43-.14-.06-.28-.12-.41-.18-.19-.08-.38-.15-.57-.21-.08-.03-.17-.06-.25-.09-.04-.01-.08-.02-.13-.03-.27-.09-.55-.16-.82-.22-.09-.02-.18-.04-.27-.05-.3-.06-.59-.1-.87-.12-.08,0-.15,0-.23-.01-.29-.01-.58-.02-.86,0-.35.02-.7.07-1.04.14-.03.01-.05.01-.07.02-.11.02-.21.05-.32.08-.12.03-.23.07-.34.11-.06.02-.11.04-.16.06-.17.05-.34.12-.51.2-.18.09-.37.18-.54.28-.18.1-.36.21-.53.33-.52.36-1.01.79-1.45,1.3-.31.36-.6.75-.87,1.17-.09.14-.17.27-.25.42-.1.16-.18.32-.26.49-.03.04-.04.07-.06.11-.13.26-.26.54-.37.83-.13.3-.24.62-.35.95-.16.49-.29.99-.39,1.49-.05.23-.09.46-.12.69-.04.24-.06.47-.08.7-.05.63-.05,1.25.01,1.86.02.17.04.34.07.51.04.22.08.44.14.65.19.8.51,1.56.97,2.27.12.19.25.38.39.56,1,1.29,2.35,1.59,3.98,2.11,1.01.33,2.2.33,3.33.32.21-.01.39.05.52.15,0,0,0,.01.02.02,0,.01.02.02.03.03.02.01.04.03.06.05.01,0,.02.03.03.04,0,0,0,.01,0,.01.04.04.07.08.08.12.04.07.07.15.09.23.01.11.01.21,0,.32-.02.09-.06.18-.11.26-.05.07-.1.13-.17.19-2.44,1.96-3.77,4.4-4.09,5.97-.3,1.53.33,3.1,1.73,4.99.19.26.39.51.59.74.2.24.4.47.61.69.16.17.32.34.5.5.15.15.31.3.47.44.14.13.29.25.44.38.84.67,1.74,1.23,2.69,1.62.14.06.29.12.44.17.18.07.37.13.57.18.12.03.24.05.36.08.18.04.36.07.54.1.12.02.25.03.37.04.19.02.38.03.57.03.18,0,.37-.01.55-.02.18-.02.36-.04.53-.07.16-.02.31-.06.46-.1,1.19-.29,2.21-.93,3.08-1.81.11-.11.22-.22.31-.34.15-.15.28-.31.4-.48.11-.13.21-.27.3-.42.42-.6.79-1.27,1.1-1.99.1-.24.29-.39.51-.45.07-.02.14-.03.22-.03.07,0,.14.01.21.03.07.02.13.04.19.08.06.03.12.07.16.13.05.05.09.1.13.17.07.12.14.24.22.36.06.1.12.2.19.3.1.14.19.29.29.43.09.14.19.27.29.4.09.12.18.23.27.34.21.26.44.5.67.73.11.11.22.21.33.31.11.1.22.2.34.29.09.08.19.15.28.22.31.24.63.44.97.63.16.09.33.17.5.25.33.15.68.28,1.03.39.27.07.53.14.8.19.14.02.27.04.41.06.14.02.27.03.41.04.18.01.35.02.53.02h.12c.18,0,.37,0,.55-.03.17-.01.34-.03.52-.06.16-.02.32-.04.47-.08.06,0,.13-.02.2-.04.14-.03.27-.06.41-.1.83-.22,1.68-.57,2.52-1.04.21-.12.41-.25.62-.38.2-.13.4-.27.59-.41.07-.05.14-.11.21-.16.03-.02.05-.03.07-.05.1-.08.2-.17.3-.25.04-.03.07-.06.1-.09.09-.08.17-.15.25-.23.17-.16.33-.32.49-.49.11-.12.22-.25.32-.38.74-.9,1.25-1.91,1.5-2.97.03-.13.06-.27.08-.41.03-.17.05-.35.06-.52.01-.15.02-.31.02-.47,0-.54-.07-1.09-.22-1.64-.02-.09-.05-.19-.08-.28-.1-.33-.22-.65-.38-.98-.15-.32-.33-.65-.54-.98-.7-1.08-1.72-2.17-3.1-3.22-.27-.21-.35-.51-.3-.78.03-.1.06-.19.11-.28.03-.04.06-.08.09-.12.04-.04.08-.07.12-.1.02-.02.05-.04.08-.05.03-.02.07-.04.11-.05.12-.05.26-.07.41-.04.84.15,1.68.23,2.48.23.27,0,.53-.01.79-.03.21-.02.43-.04.64-.06.18-.03.37-.06.55-.09.03,0,.05,0,.08-.01.16-.03.31-.07.46-.1.07-.01.13-.03.19-.05.14-.04.29-.08.43-.13.44-.14.85-.31,1.23-.53.16-.08.31-.16.45-.26.12-.07.24-.16.36-.25.05-.04.09-.07.14-.11.03-.03.06-.05.09-.08.14-.11.26-.22.38-.35.04-.03.07-.07.11-.1.13-.15.26-.3.39-.46.12-.16.24-.34.35-.52.02-.04.05-.08.07-.12.1-.18.19-.36.27-.55.08-.18.15-.36.21-.55.04-.09.07-.18.09-.27.04-.13.07-.26.09-.39.15-.58.21-1.2.21-1.89,0-.12,0-.25,0-.37Zm-16.22,9.44c-1.63,1.7-3.9,2.75-6.39,2.75s-4.75-1.05-6.39-2.75c-1.63-1.7-2.63-4.04-2.63-6.62s1-4.92,2.63-6.62c1.64-1.7,3.89-2.76,6.39-2.76s4.76,1.06,6.39,2.76c1.63,1.7,2.63,4.04,2.63,6.62s-1,4.92-2.63,6.62Z"/>
      <path class="cls-4" d="m342.31,232.18c0-.12,0-.23-.01-.35,0-.16-.02-.32-.05-.47,0-.1,0-.2-.03-.3-.02-.28-.06-.55-.11-.81,0-.13-.04-.26-.07-.39-.02-.14-.05-.28-.08-.41-.04-.18-.09-.36-.14-.53-.04-.15-.08-.3-.13-.44-.05-.19-.12-.37-.19-.55-.02-.09-.06-.17-.1-.26-.1-.26-.21-.51-.34-.75-.1-.2-.21-.4-.33-.59-.05-.08-.1-.16-.16-.24-.06-.12-.14-.23-.23-.34-.1-.14-.2-.27-.31-.4-.17-.2-.35-.4-.53-.58-.11-.1-.22-.2-.33-.29-.11-.1-.22-.2-.33-.28-.4-.31-.84-.58-1.31-.81-.18-.09-.37-.18-.56-.25-.21-.09-.42-.17-.65-.24-.22-.07-.44-.13-.67-.19-.45-.12-.92-.2-1.42-.24-.24-.03-.49-.05-.74-.06-.29-.02-.58-.03-.87-.02-.3,0-.6,0-.91.03-.93.06-1.88.21-2.83.42-.07.02-.15.03-.22.03-.05,0-.1-.01-.15-.02-.04,0-.08-.01-.11-.03-.08-.03-.15-.07-.21-.12-.04-.03-.08-.06-.11-.1-.06-.06-.11-.14-.14-.22-.02-.05-.04-.09-.04-.14,0-.05-.02-.09-.02-.14,0-.04,0-.07,0-.11.06-.54.1-1.08.1-1.61,0-.23-.01-.47-.02-.7,0-.16,0-.32-.03-.47-.01-.11-.02-.22-.04-.33-.01-.16-.04-.32-.07-.47,0-.07-.02-.14-.03-.21-.03-.16-.06-.31-.1-.46-.02-.11-.05-.21-.08-.32-.05-.15-.09-.3-.14-.45,0-.05-.03-.1-.06-.15-.06-.17-.12-.34-.2-.51,0-.04-.03-.07-.05-.11-.08-.18-.17-.36-.27-.53-.09-.17-.19-.33-.3-.49-.14-.2-.28-.39-.44-.57-.45-.52-.97-.94-1.53-1.28-.13-.09-.27-.17-.42-.24-.01-.01-.03-.02-.05-.03-.11-.05-.23-.11-.35-.16-.14-.06-.28-.12-.42-.17-.16-.07-.33-.12-.51-.17-.09-.03-.18-.05-.27-.07-.2-.06-.4-.1-.61-.14-.23-.05-.47-.08-.72-.11-.22-.02-.45-.04-.67-.05-.43-.03-.87-.03-1.31-.01-.17.01-.33.02-.5.03-.25.02-.49.04-.74.07-.14.02-.27.03-.41.05-.2.03-.41.06-.61.1-.57.11-1.13.24-1.67.41-.18.06-.36.12-.53.18-.23.09-.46.18-.68.28-.17.08-.35.17-.52.26-.17.09-.33.18-.49.28-.2.13-.39.26-.58.4-.27.21-.52.44-.75.67-.11.12-.22.24-.32.36-.1.13-.19.25-.28.38-.16.22-.3.45-.41.69-.12.24-.22.49-.3.75-.05.17-.1.35-.14.53-.03.14-.06.29-.08.43-.04.29-.06.58-.06.88,0,.11.01.22.01.33.01.24.04.49.07.74.05.39.12.73.21,1.02,0,.02.01.04.02.06.02.08.04.16.07.23.05.14.1.28.14.41.09.24.17.44.23.62.02.05.03.1.04.15.03.08.04.16.03.25,0,.15-.04.29-.14.43-.26.36-.76.44-1.12.18-.2-.14-.39-.28-.59-.4-.2-.14-.41-.26-.61-.37-.27-.17-.54-.31-.81-.43-.14-.06-.28-.12-.41-.18-.19-.08-.38-.15-.57-.21-.08-.03-.17-.06-.25-.09-.04-.01-.08-.02-.13-.03-.27-.09-.55-.16-.82-.22-.09-.02-.18-.04-.27-.05-.3-.06-.59-.1-.87-.12-.08,0-.15,0-.23-.01-.29-.01-.58-.02-.86,0-.35.02-.7.07-1.04.14-.03.01-.05.01-.07.02-.11.02-.21.05-.32.08-.12.03-.23.07-.34.11-.06.02-.11.04-.16.06-.17.05-.34.12-.51.2-.18.09-.37.18-.54.28-.18.1-.36.21-.53.33-.52.36-1.01.79-1.45,1.3-.31.36-.6.75-.87,1.17-.09.14-.17.27-.25.42-.1.16-.18.32-.26.49-.03.04-.04.07-.06.11-.13.26-.26.54-.37.83-.13.3-.24.62-.35.95-.16.49-.29.99-.39,1.49-.05.23-.09.46-.12.69-.04.24-.06.47-.08.7-.05.63-.05,1.25.01,1.86.02.17.04.34.07.51.04.22.08.44.14.65.19.8.51,1.56.97,2.27.12.19.25.38.39.56,1,1.29,2.35,1.59,3.98,2.11,1.01.33,2.2.33,3.33.32.21-.01.39.05.52.15,0,0,0,.01.02.02,0,.01.02.02.03.03.02.01.04.03.06.05.01,0,.02.03.03.04,0,0,0,.01,0,.01.03.03.06.07.08.12.04.07.07.15.09.23.01.11.01.21,0,.32-.02.09-.06.18-.11.26-.05.07-.1.13-.17.19-2.44,1.96-3.77,4.4-4.09,5.97-.3,1.53.33,3.1,1.73,4.99.19.26.39.51.59.74.2.24.4.47.61.69.16.17.32.34.5.5.15.15.31.3.47.44.14.13.29.25.44.38.84.67,1.74,1.23,2.69,1.62.14.06.29.12.44.17.18.07.37.13.57.18.12.03.24.05.36.08.18.04.36.07.54.1.12.02.25.03.37.04.19.02.38.03.57.03.18,0,.37-.01.55-.02.18-.02.36-.04.53-.07.16-.02.31-.06.46-.1,1.19-.29,2.21-.93,3.08-1.81.11-.11.22-.22.31-.34.15-.15.28-.31.4-.48.11-.13.21-.27.3-.42.42-.6.79-1.27,1.1-1.99.1-.24.29-.39.51-.45.07-.02.14-.03.22-.03.07,0,.14.01.21.03.07.02.13.04.19.08.06.03.12.07.16.13.05.05.09.1.13.17.07.12.14.24.22.36.06.1.12.2.19.3.1.14.19.29.29.43.09.14.19.27.29.4.09.12.18.23.27.34.21.26.44.5.67.73.11.11.22.21.33.31.11.1.22.2.34.29.09.08.19.15.28.22.31.24.63.44.97.63.16.09.33.17.5.25.33.15.68.28,1.03.39.27.07.53.14.8.19.14.02.27.04.41.06.14.02.27.03.41.04.18.01.35.02.53.02h.12c.18,0,.37,0,.55-.03.17-.01.34-.03.52-.06.16-.02.32-.04.47-.08.06,0,.13-.02.2-.04.14-.03.27-.06.41-.1.83-.22,1.68-.57,2.52-1.04.21-.12.41-.25.62-.38.2-.13.4-.27.59-.41.07-.05.14-.11.21-.16.03-.02.05-.04.07-.06.1-.08.2-.16.3-.24.04-.03.07-.06.1-.09.09-.08.17-.15.25-.23.17-.16.33-.32.49-.49.11-.12.22-.25.32-.38.74-.9,1.25-1.91,1.5-2.97.03-.13.06-.27.08-.41.03-.17.05-.35.06-.52.01-.15.02-.31.02-.47,0-.54-.07-1.09-.22-1.64-.02-.09-.05-.19-.08-.28-.1-.33-.22-.65-.38-.98-.15-.32-.33-.65-.54-.98-.7-1.08-1.72-2.17-3.1-3.22-.27-.21-.35-.51-.3-.78.03-.1.06-.19.11-.28.03-.04.06-.08.09-.12.04-.04.08-.07.12-.1.02-.02.05-.04.08-.05.03-.02.07-.04.11-.05.12-.05.26-.07.41-.04.84.15,1.68.23,2.48.23.27,0,.53-.01.79-.03.21-.02.43-.04.64-.06.18-.03.37-.06.55-.09.03,0,.05,0,.08-.01.16-.03.31-.07.46-.1.07-.01.13-.03.19-.05.14-.04.29-.08.43-.13.44-.14.85-.31,1.23-.53.16-.08.31-.16.45-.26.12-.07.24-.16.36-.25.05-.04.09-.07.14-.11.03-.03.06-.05.09-.08.14-.11.26-.22.38-.35.04-.03.07-.07.11-.1.13-.15.26-.3.39-.46.12-.16.24-.34.35-.52.02-.04.05-.08.07-.12.1-.18.19-.36.27-.55.08-.18.15-.36.21-.55.04-.09.07-.18.09-.27.04-.13.07-.26.09-.39.15-.58.21-1.2.21-1.89,0-.12,0-.25,0-.37Zm-16.22,9.44c-1.63,1.7-3.9,2.75-6.39,2.75s-4.75-1.05-6.39-2.75c-1.63-1.7-2.63-4.04-2.63-6.62s1-4.92,2.63-6.62c1.64-1.7,3.89-2.76,6.39-2.76s4.76,1.06,6.39,2.76c1.63,1.7,2.63,4.04,2.63,6.62s-1,4.92-2.63,6.62Z"/>
      <path class="cls-13" d="m324.95,229.49c-1.35-1.41-3.2-2.27-5.25-2.27s-3.9.86-5.24,2.27c-1.36,1.4-2.19,3.35-2.19,5.51s.83,4.11,2.19,5.51c1.34,1.4,3.19,2.27,5.24,2.27s3.9-.87,5.25-2.27c1.34-1.4,2.18-3.36,2.18-5.51s-.84-4.11-2.18-5.51Z"/>
      <path class="cls-4" d="m324.95,229.49c-1.35-1.41-3.2-2.27-5.25-2.27s-3.9.86-5.24,2.27c-1.36,1.4-2.19,3.35-2.19,5.51s.83,4.11,2.19,5.51c1.34,1.4,3.19,2.27,5.24,2.27s3.9-.87,5.25-2.27c1.34-1.4,2.18-3.36,2.18-5.51s-.84-4.11-2.18-5.51Z"/>
      <path class="cls-9" d="m294.39,266.48l-.07.08c-1.48,1.55-2.73,2.88-5.23,2.84-.68,0-1.23.08-1.69.26-.09.03-.18.07-.26.11-.12.06-.23.12-.33.19-.1.08-.2.15-.29.24-.08.08-.17.17-.24.26-.08.09-.14.19-.21.3-.05.09-.1.19-.15.29,0,.02-.03.05-.04.09-.04.09-.08.19-.11.29-.11.3-.18.62-.22.97-.02.13-.03.27-.04.4-.03.27-.05.55-.04.84,0,.35,0,.72.01,1.1.01.26.02.52.03.79.01.31.02.63.03.93l.29,2.38.1.81c.24-.07.48-.14.74-.21.52-.13,1.07-.24,1.64-.36.24-.04.48-.09.72-.14.12-.03.25-.05.37-.08.24-.05.48-.1.72-.16.47-.11.94-.23,1.38-.38.22-.07.43-.15.64-.24.32-.13.62-.28.89-.46.08-.04.15-.09.23-.15.04-.03.08-.06.12-.1.01-.01.03-.02.04-.03.03-.02.06-.05.09-.08.04-.03.08-.06.12-.11.03,0,.06-.04.09-.07.01-.01.03-.03.03-.04.06-.06.11-.11.16-.17.05-.05.09-.1.12-.16.03-.03.05-.05.06-.08.11-.16.21-.34.28-.52,0-.02.02-.03.02-.04.02-.06.04-.11.05-.17.04-.1.07-.2.09-.3v-.03s0-.03.02-.05h0c.01-.05.01-.08.01-.11.02-.07.03-.15.03-.23.05-.51,0-1.09-.18-1.77h0c-.03-.11-.06-.22-.1-.33-.01-.07-.04-.14-.06-.21-.74-2.24.03-3.54.98-5.15.2-.34.41-.69.62-1.1.65-1.23,1.39-2.5,2.17-3.79l-3.63,3.65Z"/>
      <path class="cls-4" d="m294.39,266.48l-.07.08c-1.48,1.55-2.73,2.88-5.23,2.84-.68,0-1.23.08-1.69.26-.09.03-.18.07-.26.11-.12.06-.23.12-.33.19-.1.08-.2.15-.29.24-.08.08-.17.17-.24.26-.08.09-.14.19-.21.3-.05.09-.1.19-.15.29,0,.02-.03.05-.04.09-.04.09-.08.19-.11.29-.11.3-.18.62-.22.97-.02.13-.03.27-.04.4-.03.27-.05.55-.04.84,0,.35,0,.72.01,1.1.01.26.02.52.03.79.01.31.02.63.03.93l.29,2.38.1.81c.24-.07.48-.14.74-.21.52-.13,1.07-.24,1.64-.36.24-.04.48-.09.72-.14.12-.03.25-.05.37-.08.12-.02.24-.05.36-.07.02-.01.03-.01.05-.01.1-.03.21-.05.31-.08.47-.11.94-.23,1.38-.38.11-.04.22-.07.32-.11.11-.04.22-.09.32-.13.32-.13.62-.28.89-.46.08-.04.15-.09.23-.15.04-.03.08-.06.12-.1.01-.01.03-.02.04-.03.03-.02.06-.05.09-.08.04-.03.08-.06.12-.11.03,0,.06-.04.09-.07.01-.01.03-.03.03-.04.06-.06.11-.11.16-.17.05-.05.09-.1.12-.16.03-.03.05-.05.06-.08.11-.16.21-.34.28-.52,0-.02.02-.03.02-.04.02-.06.04-.11.05-.17.04-.1.07-.2.09-.3,0-.03,0-.06.02-.08h0c.01-.05.01-.08.01-.11.02-.07.03-.15.03-.23.05-.51,0-1.09-.18-1.77h0s0-.01-.01-.02c-.02-.1-.05-.2-.09-.31-.01-.07-.04-.14-.06-.21-.74-2.24.03-3.54.98-5.15.2-.34.41-.69.62-1.1.65-1.23,1.39-2.5,2.17-3.79l-3.63,3.65Z"/>
      <path class="cls-9" d="m280.93,222.19l-.04-.02-.39-.21c-1.9-.98-3.52-1.81-4.29-4.27-.07-.23-.15-.45-.24-.66-.09-.21-.19-.41-.29-.59-.42-.73-.96-1.24-1.59-1.5-.64-.26-1.4-.27-2.28,0-.31.1-.64.24-.98.42-.06.03-.11.06-.17.09l-.18.09c-.32.18-.65.36-.98.53-.98.5-1.98.95-2.98,1.38l-1.1.48c.3.47.59.94.87,1.41.46.75.9,1.48,1.41,2.18,1.18,1.63,2.28,2.65,3.36,3.03.99.35,2.03.14,3.17-.65,1.04-.71,2.1-1.13,3.23-1.28,1.12-.15,2.29-.03,3.59.32.89.25,1.8.5,2.71.77-.94-.52-1.88-1.03-2.83-1.52Z"/>
      <path class="cls-4" d="m280.93,222.19l-.04-.02-.39-.21c-1.9-.98-3.52-1.81-4.29-4.27-.07-.23-.15-.45-.24-.66-.09-.21-.19-.41-.29-.59-.42-.73-.96-1.24-1.59-1.5-.64-.26-1.4-.27-2.28,0-.31.1-.64.24-.98.42-.06.03-.11.06-.17.09-.06.03-.12.06-.18.1-.32.18-.65.36-.98.52-.98.5-1.98.95-2.98,1.38l-1.1.48c.3.47.59.94.87,1.41.46.75.9,1.48,1.41,2.18,1.18,1.63,2.28,2.65,3.36,3.03.99.35,2.03.14,3.17-.65,1.04-.71,2.1-1.13,3.23-1.28,1.12-.15,2.29-.03,3.59.32.89.25,1.8.5,2.71.77-.94-.52-1.88-1.03-2.83-1.52Z"/>
      <path class="cls-9" d="m323.86,183.47c-.38-.55-.89-1.12-1.52-1.7-.84-.77-1.72-1.77-2.52-2.68l-.51-.57c-.88,1.33-1.83,2.32-2.81,3.34h0s-.31.35-.31.35c-1.15,1.3-1.69,2.5-1.66,3.61.02,1.09.6,2.15,1.66,3.17l.27.24c.18.16.36.32.52.49.08.08.16.15.24.24.08.07.16.16.23.24.3.32.55.63.77.93.11.15.22.3.31.45.19.3.35.6.49.9.06.14.13.29.18.44.44,1.18.49,2.3.47,3.53-.01.51-.01,1.02,0,1.52l.25-2.11c.05-.46.08-.94.12-1.39.17-2.36.31-4.13,2.54-5.65.47-.32.87-.65,1.18-.99.59-.65.89-1.33.91-2.03.03-.73-.25-1.51-.8-2.33Z"/>
      <path class="cls-4" d="m323.86,183.47c-.38-.55-.89-1.12-1.52-1.7-.84-.77-1.72-1.77-2.52-2.68l-.51-.57c-.88,1.33-1.83,2.32-2.81,3.34h0s-.31.35-.31.35c-1.15,1.3-1.69,2.5-1.66,3.61.02,1.09.6,2.15,1.66,3.17l.27.24c.18.16.36.32.52.49.08.08.16.15.24.24.08.07.16.16.23.24.3.32.55.63.77.93.11.15.22.3.31.45.19.3.35.6.49.9.06.14.13.29.18.44.44,1.18.49,2.3.47,3.53-.01.51-.01,1.02,0,1.52l.25-2.11c.05-.46.08-.94.12-1.39.17-2.36.31-4.13,2.54-5.65.47-.32.87-.65,1.18-.99.59-.65.89-1.33.91-2.03.03-.73-.25-1.51-.8-2.33Z"/>
      <path class="cls-9" d="m371.22,217.27c-.7-.28-1.4-.56-2.08-.79-1.43-.49-2.65-.52-3.65-.11-1.02.42-1.85,1.31-2.47,2.62-1.41,2.94-2.93,3.5-5.13,4.3l-.47.16h0s-.02.02-.02.02h-.02s-.98.37-.98.37l-1.07.4c.55-.07,1.1-.14,1.66-.19.58-.06,1.24-.18,1.89-.3,2.25-.4,4.51-.8,6.48.74,1.41,1.11,2.6,1.38,3.64.99,1.12-.42,2.17-1.6,3.2-3.36.33-.57.6-1.1.87-1.63.37-.73.74-1.45,1.16-2.12-.99-.29-2-.69-3.01-1.1Z"/>
      <path class="cls-4" d="m371.22,217.27c-.7-.28-1.4-.56-2.08-.79-1.43-.49-2.65-.52-3.65-.11-1.02.42-1.85,1.31-2.47,2.62-1.41,2.94-2.93,3.5-5.13,4.3l-.47.17h-.02s-.02.01-.02.01l-.98.37-1.07.4c.55-.07,1.1-.14,1.66-.19.58-.06,1.24-.18,1.89-.3,2.25-.4,4.51-.8,6.48.74,1.41,1.11,2.6,1.38,3.64.99,1.12-.42,2.17-1.6,3.2-3.36.33-.57.6-1.1.87-1.63.37-.73.74-1.45,1.16-2.12-.99-.29-2-.69-3.01-1.1Z"/>
      <path class="cls-9" d="m351.3,272.43c-.48-.8-1.22-1.4-2.3-1.58-.23-.03-.46-.06-.7-.06-1-.01-1.8-.22-2.57-.64-.73-.41-1.4-.99-2.15-1.79-1.31-1.38-2.56-2.79-3.81-4.2.77,1.58,1.55,3.13,2.35,4.62.59,1.11,1.04,2.18,1.27,3.28.23,1.13.25,2.29,0,3.57-.23,1.17.02,2.04.61,2.71.65.72,1.71,1.24,3.01,1.61.86.25,1.66.47,2.43.67l1.67.43.3-1.54c.16-.78.3-1.58.47-2.58.08-.46.12-.92.13-1.37.01-1.14-.21-2.26-.71-3.13Z"/>
      <path class="cls-4" d="m351.3,272.43c-.48-.8-1.22-1.4-2.3-1.58-.23-.04-.46-.06-.7-.06-1-.01-1.8-.22-2.57-.64-.73-.41-1.4-.99-2.15-1.79-1.31-1.38-2.56-2.79-3.81-4.2.77,1.58,1.55,3.13,2.35,4.62.59,1.11,1.04,2.18,1.27,3.28.23,1.13.25,2.29,0,3.57-.23,1.17.02,2.04.61,2.71.65.72,1.71,1.24,3.01,1.61.86.25,1.66.47,2.43.67l1.67.43.3-1.54c.16-.78.3-1.58.47-2.58.08-.46.12-.92.13-1.37.01-1.14-.21-2.26-.71-3.13Z"/>
      <path class="cls-12" d="m324.95,229.49c-1.35-1.41-3.2-2.27-5.25-2.27s-3.9.86-5.24,2.27c-1.36,1.4-2.19,3.35-2.19,5.51s.83,4.11,2.19,5.51c1.34,1.4,3.19,2.27,5.24,2.27s3.9-.87,5.25-2.27c1.34-1.4,2.18-3.36,2.18-5.51s-.84-4.11-2.18-5.51Z"/>
      <path class="cls-4" d="m324.95,229.49c-1.35-1.41-3.2-2.27-5.25-2.27s-3.9.86-5.24,2.27c-1.36,1.4-2.19,3.35-2.19,5.51s.83,4.11,2.19,5.51c1.34,1.4,3.19,2.27,5.24,2.27s3.9-.87,5.25-2.27c1.34-1.4,2.18-3.36,2.18-5.51s-.84-4.11-2.18-5.51Z"/>
      <path class="cls-3" d="m348,338.83c-.85-2.53-1.69-5.06-2.54-7.59.76-4.71,1.51-9.42,2.27-14.12-6-6-18.3-17.31-22.22-10.52,4.34,29.27,3.87,53.51-.17,74.01,9.4,5.19,14.89-3.49,21.95-7.59-1.44-4.51-2.46-9.12-2.67-13.94,1.03-2.2,2.06-4.4,3.09-6.61.1-4.54.19-9.09.29-13.64Zm17.19-4.69c-.96-5.05-2.74-9.8-5.2-14.13-8.02-14.12-23.21-23.65-40.63-23.65s-31.25,8.69-39.51,21.78c-2.91,4.59-5.03,9.72-6.17,15.21-.66,3.1-1,6.31-1,9.61,0,3.53.39,6.97,1.14,10.28,1.39,6.16,4.01,11.87,7.58,16.84,8.47,11.79,22.32,19.47,37.96,19.47s29.29-7.57,37.76-19.22c0-.01.02-.01.03-.02,3.5-4.81,6.1-10.32,7.55-16.28.87-3.55,1.33-7.26,1.33-11.07,0-3.02-.29-5.97-.84-8.82Zm-39.68-27.54c-3.62-2.04-7.63-2.61-12.31-.63-7.46,28.63-6.74,52.81-1.8,74.7,4.92,1,9.54.91,13.92-.07.01,0,.01,0,.02,0,4.04-20.5,4.51-44.74.17-74.01Zm-51.83,26.75c4.63,1.98,9.39,3.41,14.2,4.68l-14.2-4.68Zm16.88,39.87c0-4.28.98-9,.98-15.05-1.22-2.39-2.44-4.78-3.66-7.17-.54-4.01-.52-8.35,0-12.97,1.39-2.61,2.77-5.21,4.15-7.81-1.82-4.45-2.27-9.33-1.45-14.56m-2.7,35.34c-4.26.96-8.92,1.72-14.06,2.24m83.33,17.07s-.02.01-.03.02c-1.51,1.55-5.28,2.25-9.79,2.67-.01.01-.03.02-.04.02-7.06,4.1-12.55,12.78-21.95,7.59,0,0,0-.01-.02-.01-4.38.98-9,1.07-13.92.07-5.33,3.46-13.44-3.28-20.85-7.42-3.34.02-6.48-.69-9.15-3.17m65.93,3.07s-.03-.09-.04-.13c-1.44-4.51-2.46-9.12-2.67-13.94,1.03-2.2,2.06-4.4,3.09-6.61.1-4.54.19-9.09.29-13.64-.85-2.53-1.69-5.06-2.54-7.59.76-4.71,1.51-9.42,2.27-14.12m17.47,17.02h0c-5.56,2.23-11.25,3.91-17.19,4.69m-22.68,41.91s.02-.09.02-.13c4.04-20.5,4.51-44.74.17-74.01m-14.11,74.07c-4.94-21.89-5.66-46.07,1.8-74.7m46.79,14.04c-3.86-1.83-7.8-3.33-12.26-2.89-6-6-18.3-17.31-22.22-10.52-3.62-2.04-7.63-2.61-12.31-.63-7.52-5.55-15.08,3.9-22.62,9.69-4.63-.29-8.14.62-10.73,2.48m84.86,35.89h-.01c-5.67.18-11.32-.35-16.99-1.56"/>
      <path class="cls-4" d="m180.49,447.23c-.15-1.18-.59-2.04-1.31-2.56-.74-.53-1.75-.71-3.06-.55l-6.87.86.9,7.18,6.61-.82c1.44-.18,2.46-.6,3.06-1.26.61-.66.83-1.61.67-2.85Zm-28.78,4.51c-.27-1.16-.79-1.96-1.56-2.41-.79-.46-1.82-.53-3.1-.24l-6.75,1.54,1.61,7.06,6.5-1.48c1.41-.33,2.38-.85,2.91-1.56.54-.73.67-1.69.39-2.91Zm-33.92,6.04l-.11,12.07v.2l.19-.06,7.1-2.26-7.18-9.95Zm-20.96,9.98c-.4-.93-.97-1.47-1.73-1.64-.75-.17-1.79.03-3.14.6l-5.91,2.51,2.28,5.36,5.95-2.52c1.28-.55,2.12-1.17,2.54-1.86.4-.69.41-1.5.01-2.45Zm5.1,10.07c-.5-1.18-1.18-1.89-2.06-2.13s-2.07-.04-3.58.6l-6.13,2.6,2.8,6.6,6.17-2.62c1.46-.62,2.41-1.33,2.86-2.15.44-.8.42-1.77-.06-2.9Zm111.35-27.2c-.1-3.02-.86-5.33-2.28-6.95-1.42-1.62-3.34-2.38-5.78-2.3-2.41.09-4.26.98-5.55,2.69-1.29,1.71-1.88,4.07-1.77,7.1.11,3.01.86,5.32,2.26,6.94,1.41,1.63,3.32,2.39,5.73,2.31,2.44-.09,4.31-.99,5.61-2.7,1.29-1.72,1.89-4.08,1.78-7.09Zm71.7-.62l-6.27,10.54,7.46,1.67-1.19-12.21Zm54.32,9.96c-.19-.07-.38-.14-.57-.21-.58-.21-1.15-.38-1.71-.52.55.14,1.12.32,1.7.53.19.06.38.13.58.21.26.1.5.2.75.3-.25-.11-.49-.21-.75-.31Zm-8.11-.98s0,0-.02.01c.14-.03.28-.06.42-.08-.14.02-.27.04-.4.07Zm-.67,23.07c-.42-.16-.81-.34-1.16-.54.35.2.74.38,1.16.55.12.05.24.09.35.12-.11-.04-.23-.09-.35-.13Z"/>
      <path class="cls-16" d="m253.95,56.71v-18.65h-2.85l-5.03,1.01v2.6l5.06-1.02v16.06h-4.65v2.4h12.12v-2.4h-4.65Zm-13.3-12.08c-.2-1.15-.51-2.17-.93-3.05-.17-.4-.38-.77-.61-1.11-1.24-1.86-3.05-2.79-5.4-2.79-1.54,0-2.84.4-3.91,1.19-.57.42-1.07.95-1.5,1.6-1.25,1.87-1.87,4.58-1.87,8.13s.62,6.25,1.87,8.12c.45.67.97,1.23,1.57,1.65,1.05.77,2.34,1.15,3.84,1.15,2.35,0,4.16-.94,5.4-2.8,1.25-1.87,1.87-4.57,1.87-8.12,0-1.47-.11-2.79-.33-3.97Zm-3.62,10.47c-.74,1.44-1.85,2.16-3.32,2.16-.69,0-1.3-.16-1.83-.49-.6-.35-1.09-.91-1.48-1.67-.74-1.45-1.11-3.61-1.11-6.5s.37-5.06,1.11-6.5c.38-.74.85-1.29,1.41-1.65.54-.35,1.18-.52,1.9-.52,1.47,0,2.58.72,3.32,2.17.03.07.07.13.09.2.3.64.54,1.42.7,2.33.21,1.12.31,2.45.31,3.97,0,2.89-.37,5.05-1.1,6.5Zm-16.1-14.03c-.1-.21-.23-.41-.36-.6-1.28-1.86-3.14-2.79-5.57-2.79-1.28,0-2.41.24-3.38.71-.64.31-1.22.73-1.73,1.25-1.28,1.3-1.92,3.04-1.92,5.2s.62,3.95,1.84,5.22c.58.61,1.27,1.07,2.05,1.39.37.15.76.26,1.17.34.55.12,1.15.18,1.78.18.85,0,1.63-.15,2.35-.45.15-.06.29-.13.43-.2.67-.34,1.25-.81,1.72-1.4.13-.15.24-.3.35-.46-.04.73-.11,1.4-.22,2.02-.27,1.59-.76,2.83-1.48,3.74-.8,1.02-1.88,1.63-3.25,1.82-.33.06-.68.08-1.05.08-.71,0-1.43-.09-2.16-.27-.73-.18-1.46-.44-2.17-.77v2.59c.4.14.8.27,1.18.38.38.1.74.18,1.1.25.74.15,1.46.22,2.17.22,2.66,0,4.78-.99,6.36-2.97.19-.24.38-.5.54-.76,1.21-1.88,1.82-4.28,1.82-7.19,0-3.19-.52-5.7-1.57-7.53Zm-2.9,7.36c-.2.23-.41.43-.65.61-.65.47-1.45.7-2.38.7-1.28,0-2.29-.43-3.04-1.31-.75-.87-1.12-2.07-1.12-3.59s.37-2.71,1.12-3.59c.69-.81,1.61-1.25,2.75-1.31.09-.01.19-.01.29-.01,1.27,0,2.29.44,3.03,1.32.75.88,1.13,2.08,1.13,3.59s-.38,2.72-1.13,3.59Zm-19.19,8.28v-18.65h-2.85l-.8.16-1.87.38-2.36.47v2.6l5.06-1.02v16.06h-4.65v2.4h12.12v-2.4h-4.65Z"/>
      <path class="cls-4" d="m242.71,38.22c-.14,1.28-.62,2.2-1.42,2.75-.41.27-.93.47-1.57.61-.65.14-1.41.21-2.29.21h-.31v2.84h4.84v13.87h4v-20.28h-3.25Zm-10.61,2.61c-.09-.13-.19-.26-.29-.38-.56-.68-1.23-1.21-2.01-1.58-.91-.43-1.98-.65-3.2-.65-2.46,0-4.29.86-5.5,2.59-.06.08-.12.17-.17.26-1.11,1.73-1.65,4.26-1.65,7.57,0,.44,0,.87.03,1.28.02.55.07,1.06.13,1.56.2,1.74.62,3.17,1.24,4.31.13.24.27.46.42.67,1.21,1.72,3.04,2.59,5.5,2.59,1.25,0,2.34-.22,3.27-.68.79-.36,1.46-.9,2.01-1.6.08-.1.16-.2.23-.3,1.21-1.71,1.82-4.32,1.82-7.8s-.61-6.09-1.83-7.84Zm-38.72-2.61c0,.13-.03.26-.06.38-.18,1.09-.63,1.88-1.36,2.37-.28.18-.61.34-1,.46-.75.24-1.7.36-2.86.36h-.31v2.84h4.84v13.87h4v-20.28h-3.25Zm22.08,2.56c-.23-.31-.48-.59-.75-.84-.84-.79-1.87-1.3-3.09-1.55-.56-.11-1.16-.17-1.79-.17-2.14,0-3.86.66-5.16,1.97s-1.95,3.03-1.95,5.17c0,2.01.6,3.61,1.8,4.81,1.19,1.2,2.79,1.8,4.78,1.8.8,0,1.52-.12,2.16-.35.14-.05.27-.11.4-.17.48-.23.9-.53,1.27-.9-.02.44-.05.85-.1,1.24-.14,1.16-.41,2.07-.82,2.74-.53.88-1.31,1.33-2.33,1.33-.76,0-1.34-.16-1.76-.48-.41-.32-.66-.8-.76-1.45l-4.09-.02c.11,1.61.7,2.88,1.8,3.8,1.09.93,2.53,1.4,4.32,1.4.39,0,.76-.02,1.12-.06,1.7-.2,3.11-.87,4.2-2.01.23-.23.43-.47.63-.74.9-1.23,1.51-2.82,1.82-4.78.12-.77.2-1.6.22-2.48.02-.27.02-.54.02-.81,0-3.27-.64-5.75-1.94-7.45Z"/>
    </g>
  </g>
</svg>