<?xml version="1.0" encoding="UTF-8"?>
<svg id="Layer_2" data-name="Layer 2" xmlns="http://www.w3.org/2000/svg" viewBox="0 0 334.1 425.19">
  <defs>
    <style>
      .cls-1 {
        fill: #de0021;
      }

      .cls-1, .cls-2, .cls-3, .cls-4 {
        fill-rule: evenodd;
      }

      .cls-1, .cls-2, .cls-3, .cls-4, .cls-5, .cls-6 {
        stroke-width: 0px;
      }

      .cls-2, .cls-5 {
        fill: #d6d6d8;
      }

      .cls-3 {
        fill: #fece00;
      }

      .cls-4, .cls-6 {
        fill: #313c31;
      }
    </style>
  </defs>
  <g id="Layer_1-2" data-name="Layer 1">
    <g>
      <path class="cls-4" d="m0,23.94L167.3,0l166.81,23.94v231.9c0,27.24-15.92,51.85-37.34,75.48-40.9,45.11-104.57,83.75-129.46,93.87-19.71-7.42-46.59-24.37-76.36-46.04-23.89-17.4-49.61-40.67-65.12-61.21C10.21,297.29,0,278.1,0,253.02V23.94Z"/>
      <path class="cls-3" d="m10.99,33.47v219.55c0,23.02,10.06,40.39,23.59,58.3,16.21,21.47,40.99,43.05,62.82,58.94,13.38,9.74,27.08,19.25,41.21,27.87,8.95,5.46,18.72,11.04,28.54,15.18,12.85-5.71,26.35-13.91,37.88-21.24,19.47-12.37,38.42-26.22,55.87-41.32,9.71-8.39,19.08-17.3,27.7-26.81,16.7-18.42,34.5-42.04,34.5-68.1V33.47L167.29,11.11,10.99,33.47Z"/>
      <path class="cls-1" d="m167.34,413.23c12.79-5.71,26.22-13.86,37.7-21.16,19.47-12.37,38.42-26.22,55.87-41.32,9.71-8.39,19.08-17.3,27.7-26.81,16.7-18.42,34.5-42.04,34.5-68.1V33.47L167.34,11.11v402.11Z"/>
      <path class="cls-4" d="m80.9,221.71c-1.52-.94-3.33-2.08-5.18-2.79-.97-.38-1.88-.55-2.36-.12-1.07.96-1.6,3.45-.01,5.46,1.93,2.45,5.19,4.1,4.31,5.85-.61,1.21-2.76,1.15-3.4,3.01-.75,2.23,2.86,6.27,2.32,8.44-.6,2.41-1.99,3.37-3.02,4.62-.8.97-1.39,2.57-1.22,4.25.27,2.7,2.26,3.26,3.13,5.55,1.2,3.18.41,7.03,3.86,8.54,2.42,1.05,4.95-.31,6.37-.85,4.38,3.57,5.79,14.1,4.7,21.29-1.03,6.79-5.23,9.71-5.54,11.76-.59,3.98-.72,8.35.3,11.92.8,2.77,3.14,4.78,4.06,7.34.79,2.18-.25,4.8.67,7.47.55,1.6,1.75,3.09,4.62,4.88,9.97-.09,19.34-.62,29.31-.7,37.5-.32,74.86-.45,112.08-1.16,6.18-.12,13.01.15,13.38.04,1.42-.42,2.08-1.48,2.24-3.39.09-1.14-.3-1.77-.29-3.44.01-2.6,1.15-2.54,1.96-5.16.35-1.13-1.69-3.76-1.38-7.14.36-3.86,4.26-7.61,4.15-11.76-.13-4.56-5.62-6.31-6.18-7.83-1.33-3.6-2.46-8.25-1.95-12.46.54-4.49,2.04-8.02,3.21-10.14.79-1.44,1.76-2.16,2.9-1.59,1.48.72,1.73,3.32,4.15,2.1,6.57-3.31,4.82-12.19,5.73-13.57,1.44-2.18,4.73-7.73-1.5-12.24,2.16-3.89,3.07-5.49,3.33-7.06.48-3-1.27-4.71-1.54-6.8,4.68-10.22-.52-11.74.74-18.28.93-4.84,3.24-8.75,3.32-12.63.14-6.79-4.67-16.38-12.4-13.08-2.19,4.29-4.52,5.98-8.51,5.36-.63-5.17,2.04-8.14,6.21-10.12-.35,1.37-.7,2.73-1.05,4.1,1.1-1.61,2.21-3.67,3.32-5.29.53-2.61.47-5.25,1.68-7.86,1.57-3.36,3.73-4.14,4.94-8.83,1-3.88-.62-8.2-.5-11.55.09-2.61.89-6.8.22-8.54-.59-1.52-2.23-2.41-4.14-3.04-1.91-5.82-4.32-7.81-6.31-8.11-2.62-.4-2.93,3.89-4.9,3.7-3.95-.38-7.94-1.55-11.56-1.45-1.79.05-4.88,4.49-6.8,5.41-1.97.95-3.61.78-3.94,1.59-.36.87,1.02,4.2,3.7,5.94,1.83,1.19,4.93-2.63,7.65,2.21.32,1.48-1.31,3.64-3.05,4.01-2.47.52-2.38-1.94-2.99-1.16-.76.97-2.09,4.11,1.04,5.42,1.92.8,3.6-.5,4.75-.21,2.52.63,2.94,2.58,1.12,3.15-5.25,1-11.09,2.88-16.66,7.03-.98.73-1.88.56-2.59-.44-1.86-2.64-3.45-7.38-4.94-10.24,3.16-7.37-.53-6.5-2.13-8.4-.52-.62-.25-2.94-1.01-4.14-.88-1.39-4.36-.94-5.59-.56l-.06-10.03c-.65-2.79-4.5.21-6.79,2.66-3.02-3.93-6.38-5.88-6.38-3.26v9.87l-12.72.15.14,9.95-3.59-.02v-21.6c-2.25-1.16-4.94.84-6.73,3.29-3.14-4.24-7.63-3.77-7.63-2.76v11.14h-10.18v9.84h-2.1s.01-22.11.01-22.11c-3.3.14-5.22,1.39-6.51,3.13-3.94-3.26-7.58-3.98-7.54-2.3l.22,9.5c-5.12,4.97-8.35,10.47-4.88,16.84-2.2.54-3.83,1.29-4.89,2.7-1.2,1.61-1.44,3.84-1.18,6.57-4.25-1.46-10.57-2.41-14.64-2.62-2.05-.1-2.58-.83-2.18-2.16.42-1.43,1.98-2.04,2.44-4.84.19-1.18-1.05-2.59-2.52-2.77-.49-.06-.07,1.68-.66,3.05-.46,1.06-1.48,1.62-1.85,1.62-.9,0-1.04-1.07-1.39-2.16-.35-1.1-1-1.93-2.09-3.14,1.72-1.61,2.99-2.23,3.98-2.32,2.18-.22,2.28,2.29,4.55,1.43,2.92-1.12,4.84-3.59,5.61-6.38.68-2.46.41-4.79-.93-5-2.29-.35-3.23-1.07-4.32-1.8-2.41-1.61-2.55-3.86-5.82-4.27-2.16-.27-5.38.47-6.73.08-.84-.25-1.7-1.4-2.68-1.7-1.26-.39-2.84.43-3.97,1.25-.95.68-1.97.07-3.52-.18-1.75-.27-3.64-.17-5.07,1.14-2.21,2.02-1.25,4.54-1.72,5.89-.5,1.42-2.23,2.56-2.47,3.99-.19,1.16.54,1.91.04,3.11-.83,2.01-3.1,3.48-2.78,6.47.31,2.88,3.68,4.36,3.35,7.52-.32,3.05-1.64,6.18-1.04,8.97,1.33,6.15,6.71,6.32,9.23,17.56-.7.18-1.24-.58-2.07-1.75-1.13-1.61-2.66-3.56-5.31-3.07-1.77.32-3.04,2.2-3.76,3.32-.88,1.37-1.44,3.29-1.67,4.94-.23,1.66-.02,3.39-.43,5.03-.77,3.07-2.51,3.6-2.59,6.86-.06,2.52,2.2,4.78,5.77,5.53-2.32,1.45-3.55,1.99-3.36,3.78.15,1.33,1.2,3.26,3.01,4.76,2.48,2.05,5.04,2.81,6.13,4.32.48.67.51,2.31-.56,1.65h0Zm172.59,21.12c-2.24-10.29-3.64-19.56-1.84-27.54,1.08-4.78,3.1-9.09,6.18-12.87-2.74-5.19-3.96.75-5.98.75-.57,0-.71-.22-.9-.75-.47-1.31.44-2.45.25-3.83-.83-5.94-4.66-2.35-4.28-9.19-2.84-.09-4.75.95-6.27,2.14-1.72,1.36-2.9,2.97-3.49,4.3-1.53,3.47.27,8.05.1,11.62-.12,2.49.26,6.93.81,9.32,2.09,9.04,8.64,17.61,15.43,26.04h0Zm-162.26-46.89c2.14,2.04,4.27,3.87,6.42,5.92,2.1,4.74,2.79,10.01,2.25,14.9-.94,8.61-7.3,15.77-12.06,25.61-.33.68-1.14,2.17-1.81,3.35-.59,1.04-1,1.84-1.71,1.66-.6-.15-.79-.57-.85-1.28-.09-.92.07-2.33.44-4.32.54-2.87,1.62-6.43,1.82-11.71.24-6.34-.45-18.26-3.35-25.25,1.28.29,2.18.48,2.83.59,2.11.36,3.64-.4,3.45-2.71-.11-1.46-.61-3.14-.06-3.66,1.25-1.19,2.25-2.28,2.61-3.11h0Zm99.5,48.96l-2.38-40.53-.53-16.46c2.15.57,1.82,2.88,5.57,5.5,1.36.95,4.05,2.33,6.56,3.13,3.8,5.11,6.54,11.42,10.34,16.54,4.88,6.57,10.81,12.25,15.71,18.8.28,1,1.44,5.33,1.22,8.66-.23,3.44-2.33,4.32-5.24,4.54-2.19.17-4.72.14-7.45,1.26-3.09,1.27-5.98,3.75-7.5,6.64-1.81,3.43-2.04,6.91-1.83,9.68.24,3.14,1.34,3.89-.29,3.68-1.5-.19-3.32-1.84-3.92-4.04-.86-3.23-.44-7.19-2.15-9.98-1.82-2.97-4.86-4.63-8.11-7.42h0Zm1.18,25.01c4.14,1.63,6.9,5.3,11.62,6.7,2.19.65,4.99.73,7.01,1.4,4.39,1.46,6.6,3.92,9.15,2.88,2.17-.89,1.89-3.06,1.82-5.57-.08-3.23-.49-7.03-.02-9.4.34-1.68.66-2.79,1.71-3.5,1.36-.91,3.5-1.23,5.65-.68-.85,19.38,3.15,26.43,9.21,29.57,2.02,2.33,4.19,5.61,5.45,10.16.66,2.39.88,5.34.22,8.22-.54,2.3-3.31,3.21-5.08,4.85-1.76,1.64-2.41,4.6-2.99,6.78l-4.02.38-1.08-8.59-14.89-.77-1.18-14.9-15.14-.38.17-13.35-6.93-.29-.7-13.51Zm11.64-82.91c-1.25-1.15-3.21-4.63-3.45-5.92-.58-3.17,1.1-5.98.75-9.09-.27-2.41-2.91-2.57-3.65-4.8,1.88-3.34,3.76-6.69,5.64-10.03,2.35,2.77,5.63,8.23,5.69,12.49.09,5.37-2.98,6.31-4.48,10-.89,2.21-.56,5.3-.51,7.35h0Zm-15.53-5.37l-.52-8.98,8.07-10.36c1.15,2.52-.33,6.46-2.29,10.2-2.02,3.86-4.56,7.5-5.26,9.14h0Zm-40.7,101.81l-8.09-.21c-.72-.02-1.6.69-1.65,1.41l-.84,13.47c-4.91-.52-8.02-.29-11.73-.22-.73.02-1.43.33-1.43,1.81l.09,13.07c-4.75.2-10.4-.8-14.25.6l.03,9.25c-5.53-6.19-7.8-8.1-9.54-11.88-1.97-4.28-2.3-8.84-1.23-13.69,2.31-1.17,4.01-1.95,5.26-3.54,1.2-1.51,1.78-4.09,2.7-6,.74-1.55,4.72-3.6,5.05-6.75.55-5.27-.32-12.26-2.42-17.09,3.16-.07,8.66-.46,10.14,3.09,1.14,2.73-.39,5.56.16,8.17.47,2.23,1.91,4.06,4.31,4.82,3.93,1.25,7.57-1.7,11.14-2.38,2.58-.49,4.82,1.04,7.15.57,1.81-.37,4.46-2.81,5.04-4.29l.09,9.8Zm.95-36.56c-2.36.24-7.12,1.61-8.43,4.69-2.61,6.18,2.65,16.38-3.2,16.45-1.89.03-3.52-1.48-3.16-3.52.61-3.4,3.23-9.13,1.27-11.63-1.58-2-3.78-2.59-6.34-3.12-3.74-.78-8.34-1.15-11.89-3.2-2.34-1.35-4.2-3.55-5.32-7.34,3-5.73,7.47-12.15,10.63-15.66,2.42-2.69,5.37-4.35,7.44-7.5,2.07-3.15,3.45-9.1,3.36-13.25.56-2.36,9.14-10.36,14.82-11.06.86-.11,1.62.14,2.31.59l-1.48,54.55Zm-8.16-80.49c1.09,10.39-1.69,16.2-3.24,18.63-1.38-7.62-4.42-12.32-6.09-15.01-.12-8.03,1.71-9.35,4.94-8.75l4.4,5.13Z"/>
      <path class="cls-2" d="m146.5,136.73h-11.67v6.73c1.64,1.11,2.91,2.84,4.22,5.54h7.45v-12.27Z"/>
      <rect class="cls-5" x="150.98" y="140.32" width="4.56" height="8.75"/>
      <path class="cls-2" d="m179.35,140.32h6.61c1.5,3.96-.26,6.21-1.22,8.75h-5.39v-8.75Z"/>
      <rect class="cls-5" x="156.75" y="140.32" width="3.32" height="8.75"/>
      <rect class="cls-5" x="161.31" y="136.8" width="11.97" height="12.27"/>
      <rect class="cls-5" x="191.27" y="137.7" width="11.97" height="11.2"/>
      <path class="cls-2" d="m97.41,196.81c1.39,2.19,11.52,1.88,13.18-6.98.2-1.06,1.05-1.31,1.65.24.53,1.39,2.57,7.34-2.07,11.32l1.22,8.84c.12.9-.97.97-1.07.26l-1.17-8.32c-1.9,1.74-3.53,4.29-3.88,6.74-.26,1.82.58,3.76.75,5.75.29,3.31-.01,6.75-.99,9.97-.93,3.04-4.29,7.2-7.55,10.46-3.06,3.06-6.05,5.4-7.74,7.61-1.15,2.31-2.32,5.82-2.33,8.82,0,2.64.48,5.22,1.18,7.49.9,2.9,2.44,4.81,5.09,6.19.6,5.08.38,8.75-.21,13.23,3.65-.18,6.61,3.83,8.46,10.44.56-1.23,1.91-2.66,3.76-3.89,2.23-1.49,4.96-2.88,5.07-4.53.35-3.28.15-5.93-.38-9.47-.71-4.69-3.28-9.82-4.8-14.25-1.53-4.44-3.08-8.51-2.23-12.62.28-.47,1.35-2.43,2.89-5.45,1.42-2.78,2.82-6.19,3.26-8.75.2-1.15,1.18-.97,1.25-.14.05.54-.25,1.72-.31,2.07.41-.57,1.28-1.24,1.5-2.13.27-1.13,1.11-4.65,1.29-6.95.08-1.02,1.27-1.12,1.12.22-.18,1.7-.56,3.82-.95,5.38,1.74-2.3,5.78-5.49,9.61-8.73,2.11-1.79,4.21-3.8,5.41-6.18.88-1.75,1.68-4.8.63-6.53-.72-1.19-2.52-1.97-3.71-2.74-1.35-.87-2.09-1.73-2.33-3.15-.3-1.8,1.31-3.07,3.11-4.88-.8-1.33-3.07-4.29-4.61-6.05-2.04-2.34-4.29-4.02-5.78-4.86-.77-.43-.09-.99.18-.9,1.39.49,4,2.39,6.29,4.72,2.25-3.84-.55-8.62-1.55-9.71-.3-.32.03-.61.37-.43.61.32,1.06.92,1.92,2.05.57.75,1.17,1.36,1.66,2.39.68,1.41,1.12,3.52,1.03,5.22.21-.38.57-1.18.86-2.54.17-.79.64-.6.75-.1.14.62-.23,2.12-.8,3.82-.47,1.4-1.37,2.77-1.44,3.04,1.5,2.3,3.84,4.98,4.02,5.06-.07-1.38.14-3.04.94-4.38,1.09-1.84,3.22-3.76,5.96-6.13-.13-.15-4.88-.95-6.44-3.09-.55-.76.12-1.16.61-.59,1.41,1.6,4.11,2.35,6.1,2.68-.44-.95-.69-3.22-.75-3.67-5.57-1.62-7.55-5.55-14.24-8.1-.6-.23-.63-1.5,1.01-.67,7.2,3.65,10.3,2.73,10.8,1.86-.44-1.2-2.21-4.6-3.83-6.24-.63.28-1.55.31-2.61.22-2.34-.2-5.36-.97-7.53-.87-.52.02-.69-.82-.17-.84,4.32-.18,6.4-1.32,6.48-2.02-1.85-1.46-4.49-2.41-9.68-3.17-.57.86-.98,1.53-1.62,2.17-.55.55-1.24.15-.82-.43.23-.33.51-.66,1.42-1.97-2.58-.33-5.62-.64-8.27-.87-2.85-.24-6.22,1.29-8.24.72-3.56-1.01-.94-4.31-.34-5.63-.37-1.47-.65-3.74-.03-5.53.24-.7.67-1.33,1.13-1.81.95-.99,1.94-1.47,3.23-2.06.68-.31,1.38-.79,2.1-1.11.82-.37,1.8-.88,2.39-.82,1.32.13,1.83,1.57,1.82,2.5,0,.37.15.64.56.42,2.82-1.51,4.72-4.72,4.55-8.03-.04-.7-.22-1.08-.98-1.28-.97-.26-2.64-.53-4.44-1.61-1.56-.95-2.44-3.72-4.6-4.04-2.49-.36-4.82.2-7.57.1-.91-.03-2.48-1.16-3.3-1.02-1,.16-2.64,2.16-3.64,1.97.6,1.73,3.35,1.97,3.33,2.81-.04,1.78-3.89.11-4.75,2.39-1.06,2.8,1.94,3.81,1.94,4.91-.28,1.75-2.45.43-4.41-2.68-.77-1.22-3.05-1.27-4.24,1.04-1.34,2.6-.52,5.4,1.39,7.52,1.13,1.25,3.15,2.34,6.5,2.32,1.56,0,1.74,1.19.83,1.94-1.06.88-2.61,2.45-3.21,4.34-.43,1.38-.47,2.5-.55,3.83-.1,1.71-.49,3.29-.57,3.84.93-.59,4.56-2.61,7.52-1.25,1.55.71,3.13,1.91,3.58,5.66.38,3.2-1.65,5.46-3.34,6.5-2.65,1.62-5.51,1.02-6.5,1.29-1.43.37-1.2,1.29-.18,2.38.79.84,2.07,2.16,3.72,2.03,1.01-.08,1.38-.9,2.73-1.72.84-.51,2-1.1,3.59-1.62,2.66-.86,6.13-1.49,9.53-1.07,1.04.13.67,1.39.07,1.35-8.42-.58-14.49,3.39-14.81,10.47,1.5.12,2.91-.07,4.27-.48,2.27-.68,4.17-3.23,6.28-4.6,2.4-1.56,4.14-2.23,7.45-2.89.89-.18.86.61.3.82-2.61.98-4.46,2.51-5.81,4.91,1.09,1.19,1.54,2.22,1.44,3.13-.23,2.01-2.54,4.76-7.72,5.17h0Zm3.66-57.28c.57-.26,1.23-1.02,1.5-1.54.18-.34.78-1.47-.45-1.5l-3.82-.07c-.78-.02-1.24.24-.97.94.27.69,1.44,1.59,2.1,1.98.65.39,1.08.45,1.64.19h0Zm-5.45,119.32c.66,1.29,1.85,4.26,2.25,6.45.16.9,1.25.58,1.12-.15-.38-2.1-1.83-5.9-2.4-6.72-.5-.73-1.23-.12-.96.41h0Zm10.12-89.02c-.88,1.14-1.39,1.98-2.46,2.92-.69.61.1,1.33.67.86.98-.8,2.08-2.23,2.57-3.09.44-.77-.43-1.17-.79-.69h0Zm12.42,33.59c.2,1.43.32,2.62.3,3.99-.02.92,1.07.81,1.09.07.04-1.4-.07-3.18-.34-4.14-.24-.86-1.13-.52-1.05.07h0Z"/>
      <path class="cls-2" d="m80.65,186.26c2.02.7,3.2,4.78,4.88,6.25,1.68,1.47,4.74.73,4.25,2.8-.14.61-3.43,1.8-4.2,3.72-.77,1.92,1.78,3.67.24,3.99-1.32.27-3.11-.64-4.14-2.17-.81-1.19-.51-2.5-1.1-4.23-.86-2.52-2.73-2.61-3.06-7.38-.1-1.48,1.35-3.62,3.14-2.99h0Z"/>
      <path class="cls-2" d="m81.03,203.84c3.52,10.5,5.01,22.87,2.69,34.04-.48-1.64-1.24-3.43-1.74-4.5-1.11-2.34-2.11-3.3-2.22-5.23-.1-1.63,2.12-3.34,3.16-4.99.68-1.09.69-2.26-.02-3.28-1.14-1.65-3.64-3.18-5.21-4.79-1.51-1.54-1.62-3.36-.99-5.34.93-2.9,3.09-4.68,4.32-5.93h0Z"/>
      <path class="cls-2" d="m85.37,251.28c-.62,3.27-.05,6.93,1.72,11-1.5-.5-2.96-.81-4.34-1.2-.99-.28-2.6-3.46-1.36-5.67.83-1.49,2.65-2.53,3.98-4.13h0Z"/>
      <path class="cls-2" d="m110.8,241.33c-3.6,6.25-3.77,12.65-2.54,16.76.02-3.17.27-7.5,2.47-10.25.68-.86,1.53-.49.9.45-2.44,3.61-2.74,8.73-1.35,14.22,3.59-.25,6.59.3,9.13,1.94-.15-1.14-.62-2.3-1.27-3.59-.46-.91.46-1.03.97-.23,1.54,2.41,1.75,5.57,1.74,7.86-.02,3.15-.77,5.62-.09,7.1,1.2,2.64,3.3,3.37,5.12,3.38,2.12.01,4.13-1.13,6.51-1.84,1.52-.45,3.47-.82,4.82-.79-1.05-.85-2.81-1.9-3.59-2.99-.34-.48.16-.75.45-.6,1.46.75,2.64,1.01,3.53.79,1.7-.42,2.38-2.53,2.09-5.8-1.74,1.86-5,1.15-5.96.2-.9-.89-1.52-2.71-1-4.6.44-1.59,1.29-4.25,1.62-6.45.25-1.71.25-3.02-.91-4.07-3.05-2.8-10.15-2.38-15.75-4.71-2.93-1.22-5.7-3.84-6.88-6.79h0Z"/>
      <path class="cls-2" d="m86.71,298.12c-.61,3.77-.57,6.43.31,9.94.34,1.36,1.18,3.4,1.82,4.75.64,1.35,1.23,1.8,1.67,3.14,1.3,3.91-2.01,7.4,4.2,10.98,1.25.72.79-2.79,2.6-3.14,1.08-.21,2.29.85,3.57,1.64.94.59,2.2.63,2.72-.77.99-2.67-.14-4.39-1.24-6.15-1.17-1.87-2.6-3.9-3.59-6.12-1.49-3.35-2.39-7.44-3.32-10.9-.5-1.83-1.12-3.52-2.46-4.63-.76-.63-2.31-1.22-3.54-1.23-1.4-.01-2.53,1.05-2.77,2.5h0Z"/>
      <path class="cls-2" d="m248.03,133.14c-.8-.17-2.03.44-2.73.25-.7-.19-.57-.9-1.33-1.02-2.09-.32-5-.73-7.32-.94-1.22-.11-1.72-.12-2.71.75-1.49,1.3-2.52,2.68-3.77,3.57-1.26.89-2.75,1.51-4.2,1.74-.86.13-.66.9-.32,1.76.21.53,1.31,2.2,2.49,3.1.74-.56,1.71-1.06,2.45-1.11.94-.05,1.62.51,2.57,1.01,1.59.84,3.39,2.05,4.51,3.86,1.89,3.05,2.71,6.89,2.61,8.08-.16,1.82-.96,3.27-2.92,4.71-2.59,1.89-6.2,2.54-6.3,3.7.69.45,1.64,1.02,2.53,2.34.35.52-.46,1.03-.84.49-1.4-1.97-6-4.81-10.93-1.41,3.4-.22,6.66,1.07,11.5,5.69.99.94-.28,1.43-.62,1.06-2.99-3.26-8.19-6.45-11.79-5.62-1.01.23-1.8.72-2.2,1.82,2.45-.61,8.06,1.69,9.57,5.09.29.65-.64,1.4-1.25.95-2.32-1.72-4.33-3.05-6.76-2.15,2.21,2.73,3.19,4.59,1.31,6.72-.8.9-2.25,1.15-3.13,1.17-1.93.03-3.51-1.22-5.39-.66-1.37.41-3.08,1.8-3.04,3.4,2.36.01,3.75.85,4.93,1.54,3.02,1.77,3.42,3.89,2.38,5.83-.27.5-1.52,1.62-2.92,1.69-2.71.16-5.2-3.82-9.47-1.36-2.02-1.47-5.32-4.95-5.82-8.43-.6-4.19,2.03-6.41.21-9.75-.57-1.05-1.2-.47-1.12-.08.73,3.55-1.22,6.28-2.07,9.38-.43,1.57-.48,3.02-.02,4.73.82,2.95,4.68,3.62,4.93,8.57-.06.97,1.02-.37,2.49-.46,1.44-.09,2.46.79,3.14,1.27,3.18,2.27,5.27,7.12,8.95,8.67,1.4.59,3.06,1,4.91.57-1.71-.75-2.89-1.91-4.07-3.42-.25-.32.39-1.04.88-.45,1.19,1.44,3.18,3.22,4.61,3.29.89-.04,2.47-.85,3.33-2.68-2.69-.37-4.46-1.83-5.7-3.99-.25-.44.5-1.11.93-.41,1.61,2.41,2.66,3.02,5.16,3.43.4-.78.77-4.09.22-6.34-.28-1.13.91-1.21,1.05-.52.61,3.13.44,5.68-.36,7.66-1.54,3.77-5.07,5.12-10.19,4.79-.4,4.39-.1,8.66,1.23,11.87.99,2.37,2.75,3.47,4.74,5.54.67.69,1.37,1.86,2.1,2.59,3.1,3.07,8.45,1.22,12.52,8.68.37.68-.36,1.59-1.13.67-.35-.41-.89-1.18-1.05-1.31-1.21-1.01-3.29-1.27-4.27-.97,2.19,2.71,3.56,4.71,3.85,8.59.33,4.36-.54,8.46-.83,12.5-.43,6.13,3.31,9.64,3.12,13.93-.22,5.12-5.63,11.1-3.6,14.37,2.5-.35,6,.69,7.49,2.36,2.19,2.45,4.51,6.55,5.57,9.88.86,2.71,1.32,6.12,1.53,9.18.13,1.96.04,4.01.59,5.2.58,1.25,1.69,2.11,3.31,2.55-.96-2.82-.35-5.12.61-7.18,1.32-2.82,3.27-5.57,2.88-7.91-.71-4.3-5.23-4.85-6.55-8.05-1.11-2.72-2.14-7-2.34-9.93-.16-2.28.14-3.35-.14-5.7-.29-2.45-.89-4.66-1.72-8.06-.18-.75.92-1.01,1.12-.23.82,3.2,1.4,5.66,1.72,7.71,2.32-5.83.76-10.68,1.81-14.3.94-3.23,3.75-.06,5.49-2.75,1.31-2.03-.36-5.3-1.16-7.34-1.76-4.44-5.13-9.1-8.52-13.13-3.96-4.71-8.36-9.39-9.92-13.71-.96-2.66-1.25-5.31-.92-8.25.48-4.3,1.92-8.95,1.66-12.99-.19-2.98-2.07-5.48-4.37-7.89,1.4-1.51,5.36-1.44,9.94-2.11-.42-1.77-1.16-3.58-2.13-5.07-.35-.54.43-1.15.85-.48,1.03,1.59,1.8,3.51,2.23,5.4,1.19-.2,2.41-.46,3.62-.81,1.05-7.32-.53-13.16-6.66-15.41-.69-.25-.36-1.14.04-1.12,1.26.05,5.09,1.57,8.47,6.38.41-2.51.13-5.75-6.05-7.75-.63-.2-.88-1.4.49-1.09,1,.23,5.24,1.41,7.82,4.83.5-.42.47-1.54,1.09-2.38.38-.5,1.53-.66,2.2-.66-1.49-3.12-2.84-5.77-10.25-5-.23-.71.11-1.49.6-2.45,1.79-3.53,4.96-7.23,8.47-9.77,2.82-2.04,6.53,1.24,7.76-3.19-.67-.55-4.04-.22-4.73-1.04-1.3-1.55,1.92-2.94-.16-5.59-1.77-2.25-5.12-.67-6.31-3.45-.68-1.59-.22-4.56-.47-6.98h0Zm-11.89,1.5l3.85.23c1.2.07.66,1.24.25,1.57-.94.78-1.94,1.64-2.98,1.42-1.07-.22-1.6-1.35-1.87-2.09-.19-.53,0-1.17.75-1.12h0Zm-5.9,72.71c-.07.24-.11.49-.12.74-.03.93.37,1.93.72,2.78.5,1.21,1.02,2.36,1.34,3.63.17.67-.72,1.07-.93.24-.32-1.23-.82-2.34-1.3-3.5-.41-1-.83-2.08-.8-3.18.01-.33.06-.66.16-.98.2-.66,1.16-.55.92.27h0Zm9,35.62c.36,1.95.17,5.2-.38,7.1-.19.66-1.16.55-.92-.27.51-1.76.7-4.86.36-6.66-.14-.75.81-.93.94-.18h0Zm.18-65c2.56,1.77,3.56,3.35,4,6.44.1.7-.82.86-.92.16-.41-2.84-1.24-4.13-3.59-5.76-.58-.4-.07-1.24.5-.84h0Z"/>
      <path class="cls-2" d="m257.83,200.25c-2.29-1.7-3.25-.64-5.01,1.12-.66.66-.73-2.62-.62-3.76.33-3.43,3.14-5.66,4.96-4.99.81.3,1.74.65,2.47,2.17l-1.8,5.46Z"/>
      <path class="cls-2" d="m267.41,194.12c-.02,5.31-3.41,10.74-3.77,13.92-.21,1.91.04,3.89.78,5.98-1.71-1.78-3.9-1.76-6.21-1.35.22-3.19,1.52-7.07,3.21-9.88,1.8-3,4.49-5.66,5.99-8.67h0Z"/>
      <path class="cls-2" d="m255.81,227.34c2.99-3.08,4.86-2.6,7.41-1.42.19-1.15.25-2.44.14-3.58-.19-1.9-.86-3.12-2.31-3.08-2.53.09-4.66,4.99-5.24,8.08h0Z"/>
      <path class="cls-2" d="m260.52,239.61c.87-.7,3.32-4.29,3.22-6.81-.15-3.65-1.73-3.09-2.88-.52-.97,2.16-.94,5.71-.34,7.33h0Z"/>
      <path class="cls-2" d="m211.98,152.42c-2.53-2.98-3.3-3.16-4.28-4.19-.34-.35-.32-1.07-.45-1.76-.17-.89-.46-1.8-.81-2.48-.46-.91-1.16-2-2.11-3.08,1.05-.32,3.01-.67,4.12.23.86.7.71,3.15,1.32,4.11.78,1.23,2.61,1.11,3.01,2.48.43,1.45-.32,3.34-.8,4.69h0Z"/>
      <path class="cls-2" d="m228.05,260.36c-.45-3.29-.72-6.76-1.17-10.05-.61-2.65-7.18-4.51-10.72-3.4-1.9.88-4.4,3.06-4.76,6.08-.35,2.98.91,6.53,1.15,9.21.16,1.84-.44,3.37-1.25,3.96-2.48,1.8-11.58,4.64-12.57-8.25-.02-.25-.38-.24-.42,0-1.48,8.55,1.01,11.78,2.52,12.98,1.12.89,2.44,1.11,3.35.91,1.47-.32,1.95-1.44,4.18-1.03,1.57.29,2.9,1.81,3.54,3.16,1.89.1,3.75.01,5.12-.09,1.35-.09,3-2.02,2.83-8.55-.02-.28-.04-.56-.05-.84-.11-1.92-.54-3.77-.61-5.7.19-.35.62-.42.96-.04.06,1.48.32,2.91.5,4.38.69-.89,1.79-1.7,3.14-2.2-.19-.51-.36-1.04-.49-1.58-.35-1.54-.42-3.38-.57-4.96.23-.38.7-.32.96-.09.14,1.53.2,3.34.54,4.83.12.52.28,1.02.47,1.5,1.03-.27,2.17-.37,3.36-.23h0Z"/>
      <path class="cls-2" d="m251.69,315.11c-.76,1.34-1.16,2.04-1.45,3.23-.38,1.54.04,2.92.18,4.48.1,1.1-.46,2.14-1.9,2.21-1.93.09-2.39-1.49-2.4-3.08-.02-2.75.95-5.7,4.07-8.33.78-.66,2.35-.03,1.5,1.5h0Z"/>
      <path class="cls-2" d="m135.42,150.35c7.5,0,14.99-.18,22.49-.18,9.35,0,18.44-.04,27.59-.15,5.87-.07,11.75-.21,17.75-.21l.14,1.43c-2.1,1.67-1.38,3.53-.93,5.35-10.77.3-20.63.6-31.7.6-11.78,0-23.56-.27-35.34-.27v-6.58Z"/>
      <path class="cls-2" d="m149.79,158.1h-15.86l15.86,18.55v-18.55Z"/>
      <path class="cls-2" d="m187.8,158.07h5.24l1.88,3.53-7.12,9.22v-12.75Z"/>
      <path class="cls-2" d="m149.49,178.18l-5.39-6.28v8.62c0,1.47.69,2.77,2.48,2.59,1.28-.12,2.62-1.4,2.91-4.93h0Z"/>
      <path class="cls-2" d="m148.35,283.14l9.96-.3v-31.97c0-2.89,1.32-11.18,4.69-15.7,1.32-1.77,3.38-2.49,4.89-3.16,4.44-1.97,10.17,4.65,10.48,7.97.65,7.16.88,15.21.9,22.36.02,6.71-.3,12.68,0,20.14l12.27.6-2.28-47-2.13-37.26c-.23-7.23-.23-14.46-.33-21.69-.16-10.55-5.2-18.03-7.84-18.85-2,0-4.26.09-6.25.09,1.02,1.18,1.73,1.49,2.23,2.91.23.65.38,1.7.43,2.68.32,6.78.22,12.08.15,18.85,0,.78-.73.88-1.5.88l-9.51.02c-.7,0-1.22-.53-1.23-1.23-.08-5.55-.1-12.68-.1-19.07.27-1.85,1.11-3.22,2.29-4.62-10.07,1.1-13.74,11.85-14.03,20.28l-.86,24.47,14.61.79c.26.14.24,1.1-.15,1.06l-6.94-.37.07,4.2,9.77.37c-.12.46-.36.81-.68,1.06-4.44-.17-8.71-.34-13.16-.52-.57-.02-.65-1.09.05-1.06l2.95.11-.07-4.21-6.49-.35-.1,2.74c-.31,11.25-.52,22.68-.95,34.04-.54,14.16-1.17,28.22-1.14,41.73h0Zm31.28-65.9l-8.29-.25.07,4.25,8.22.28v-4.29Zm-9.36-.28l-2.82-.08c-.35-.02-.59-.61-.43-1.15l12.89.46.79.02v5.36s2.95.1,2.95.1c.5.04.52,1.04.04,1.03l-12.83-.35s-.18-.13-.36-.3h-.14v-.15c-.27-.28-.55-.61-.58-.7l.57.02-.07-4.25Z"/>
      <path class="cls-2" d="m164.23,166.49c1.59,4.8,3.26,7.19,4.84,9.44,1.79,2.55,3.77,4.87,5.83,6.89h-10.35c-.34,0-.32-.13-.32-.47v-15.86Z"/>
      <path class="cls-2" d="m160.56,282.27l9.34-.18c.2-5.66.81-11.31.68-16.97-.19-8.99-6.24-15.99-9.4-20.08-.6,12.95-.77,24.73-.62,37.23h0Z"/>
      <path class="cls-2" d="m140.81,284.37c5.33-.05,10.65-.28,15.98-.33,8.04-.08,15.93-.13,24.12-.06l-1.2,14.22-23.04-.18c-.94-2.35-5.97-3.68-8.83-1.24-1.78-2.12-4-3.44-7.18-2.77l.15-9.64Z"/>
      <path class="cls-2" d="m182.56,283.98l14.66.6-.3,12.42-13.17-.15-1.2-12.87Z"/>
      <path class="cls-2" d="m168.94,299.17l-.15,13.39c-7.46-.67-14.61-.92-20.88,0-.7-3.24.77-9.25-1.87-9.35l-2.54,9.5-18.52-.15.03-.9c2.99-1.89,4.23-3.69,4.19-4.97-.03-.82-.54-1.51-1.37-1.8-.64-.23-1.48-.17-2.43.04v-6.29c5.09.06,9.89.42,14.98.48,4.78.06,9.87-.18,14.65-.12l13.92.17Z"/>
      <path class="cls-2" d="m213.23,299.17v11c-2.84.3-4.49.87-4.94,1.57l-37.35.52.03-13.14c3.23.11,6.61.08,9.57,0,4.32-.1,8.49-.46,12.89-.44,6.55.04,13.24.45,19.79.48h0Z"/>
      <path class="cls-2" d="m110.43,314.17c-.05,3.2-.1,6.92-.15,10.11,1.95-2.2,4.96-3.68,6.74-.2,1.32-.6,2.55-.22,3.65.9,1.97-3.29,4.13-4.59,6.3-4.49,2.17.1,4.44,1.59,6.81,5.09,4.64.05,8.38.1,13.02.15.64-2.15,3.35-2.39,5.99-1.35.5-3.49,1-7.28,1.5-10.77-2.97,0-5.19.16-8.16.18-4.37.03-7.79-.39-12.29-.38-2.18.01-4.23.23-6.4.29-.99.03-2-.03-3.06,0-2.46.07-5.05-.13-7.57,0-2.22.11-4.4.2-6.37.47h0Z"/>
      <path class="cls-2" d="m157.27,313.91c-.3,3.59-.6,7.71-.9,11.31,8.33-.05,16.66-.72,24.99-.77.05-2.15.1-4.11.15-6.25-.16-1.08,1.31-1.13,1.41.53.09,1.66,0,4.51.06,5.63,2.84.05,5.51-.16,8.35-.11-.02-2.37-.08-3.41-.09-5.48,0-1.16,1.03-.84,1.05-.51.12,1.9.2,3.89.3,5.84,1.84,0,3.68-.15,5.51-.11,4.7.1,9.39.46,14.09.46,6.14,0,10.48-.5,18.41-.36-.15-2.64-.3-5.28-.45-7.93-.7-.5-1.4-1-2.09-1.5-9.02-.1-18.49-1.24-27.5-1.34-3.6-.04-7.14.34-10.66.49-5.87.24-11.69.32-17.69.26-4.98-.05-9.95-.11-14.93-.16h0Z"/>
      <path class="cls-4" d="m62.58,98.46c0,1.79-.39,3.4-1.18,4.85-.79,1.44-1.83,2.67-3.12,3.68-1.29,1.02-2.74,1.8-4.35,2.35-1.62.55-3.27.82-4.95.82h-20.62l4.33-5.72v-29.8l-4.33-5.72h19.75c1.75,0,3.41.28,4.98.85,1.56.57,2.92,1.35,4.07,2.35,1.15,1,2.07,2.16,2.76,3.48.69,1.32,1.03,2.76,1.03,4.3,0,1.86-.46,3.5-1.37,4.95-.91,1.45-2.09,2.66-3.53,3.66,1.89,1,3.45,2.34,4.69,4.02,1.24,1.68,1.85,3.66,1.85,5.93h0Zm-11.96-17.22c0-.79-.16-1.58-.49-2.37-.33-.79-.81-1.52-1.44-2.19-.64-.67-1.43-1.25-2.37-1.75-.95-.5-2.04-.87-3.27-1.11v13.82c1.3-.11,2.43-.35,3.38-.75.94-.39,1.73-.88,2.35-1.47.62-.58,1.08-1.24,1.39-1.96.31-.72.46-1.46.46-2.22h0Zm1.91,20.78c0-1.24-.2-2.43-.59-3.56-.4-1.14-.99-2.17-1.78-3.09-.79-.93-1.78-1.72-2.96-2.37-1.18-.66-2.57-1.12-4.15-1.39v10.98l8.71,3.66c.24-.69.43-1.39.57-2.11.14-.72.2-1.43.2-2.11h0Z"/>
      <path class="cls-4" d="m109.83,110.16h-19.7l4.38-5.72-2.63-5.52h-14.33l-2.63,5.52,4.28,5.72h-14.23l4.38-5.72,18.05-37.95,18.05,37.9,4.38,5.77Zm-20.32-16.24l-4.79-10.05-4.8,10.05h9.59Z"/>
      <path class="cls-4" d="m130.39,79.69l-10.16-5.93c-.21.72-.31,1.36-.31,1.91,0,.79.21,1.53.64,2.22.43.69.97,1.33,1.62,1.93.66.6,1.34,1.15,2.07,1.65.72.5,1.37.94,1.96,1.32,1.48.96,3.02,1.97,4.64,3.02,1.62,1.05,3.11,2.21,4.49,3.48,1.38,1.27,2.51,2.71,3.4,4.3.9,1.6,1.34,3.41,1.34,5.44,0,1.82-.39,3.49-1.16,5-.77,1.52-1.8,2.8-3.09,3.87-1.29,1.07-2.78,1.89-4.46,2.48-1.68.59-3.45.87-5.31.87-2.61,0-5.27-.39-7.99-1.18-2.71-.79-5.41-2.11-8.09-3.97l10.36-6.19,10.73,7.12c.41-.69.7-1.3.85-1.83.15-.53.23-1.05.23-1.57,0-.76-.21-1.5-.62-2.22-.41-.72-.92-1.41-1.52-2.06-.6-.65-1.25-1.25-1.96-1.8-.71-.55-1.33-1.03-1.88-1.44-1.34-.96-2.78-2-4.31-3.09-1.53-1.1-2.96-2.3-4.28-3.59-1.32-1.29-2.42-2.7-3.3-4.23-.88-1.53-1.31-3.21-1.31-5.03s.33-3.42,1-4.9c.67-1.48,1.62-2.74,2.84-3.79,1.22-1.05,2.66-1.87,4.33-2.45,1.67-.59,3.48-.88,5.44-.88,2.68,0,5.09.49,7.22,1.47,2.13.98,4.33,2.33,6.6,4.05l-10,6.03Z"/>
      <path class="cls-4" d="m164.23,79.69l-10.16-5.93c-.2.72-.31,1.36-.31,1.91,0,.79.22,1.53.64,2.22.43.69.97,1.33,1.62,1.93.65.6,1.34,1.15,2.06,1.65.72.5,1.37.94,1.96,1.32,1.48.96,3.02,1.97,4.64,3.02,1.61,1.05,3.11,2.21,4.48,3.48,1.38,1.27,2.51,2.71,3.4,4.3.9,1.6,1.34,3.41,1.34,5.44,0,1.82-.39,3.49-1.16,5-.77,1.52-1.8,2.8-3.09,3.87-1.29,1.07-2.77,1.89-4.46,2.48-1.69.59-3.46.87-5.31.87-2.61,0-5.28-.39-7.99-1.18-2.72-.79-5.41-2.11-8.09-3.97l10.36-6.19,10.72,7.12c.41-.69.7-1.3.85-1.83.16-.53.23-1.05.23-1.57,0-.76-.21-1.5-.62-2.22-.41-.72-.92-1.41-1.52-2.06-.6-.65-1.25-1.25-1.96-1.8-.7-.55-1.33-1.03-1.88-1.44-1.34-.96-2.77-2-4.3-3.09-1.53-1.1-2.96-2.3-4.28-3.59-1.32-1.29-2.43-2.7-3.3-4.23-.88-1.53-1.32-3.21-1.32-5.03s.34-3.42,1.01-4.9c.67-1.48,1.61-2.74,2.84-3.79,1.22-1.05,2.66-1.87,4.33-2.45,1.67-.59,3.48-.88,5.44-.88,2.68,0,5.09.49,7.22,1.47,2.13.98,4.33,2.33,6.6,4.05l-10,6.03Z"/>
      <path class="cls-4" d="m221.3,110.16h-19.7l4.38-5.72-2.63-5.52h-14.33l-2.63,5.52,4.28,5.72h-14.23l4.38-5.72,18.05-37.95,18.05,37.9,4.38,5.77Zm-20.32-16.24l-4.8-10.05-4.79,10.05h9.59Z"/>
      <path class="cls-4" d="m261.77,68.91l-4.33,5.72v27.69l4.28,3.09-10.21,6.14-20.16-29.45v22.33l4.38,5.72h-13.77l4.33-5.72v-29.75l-3.92-5.78h12.22l17.79,26.04v-20.32l-4.38-5.72h13.77Z"/>
      <path class="cls-4" d="m305.88,89.48c0,3.06-.52,5.89-1.57,8.48-1.05,2.6-2.47,4.85-4.28,6.76-1.8,1.91-3.93,3.4-6.37,4.48-2.44,1.08-5.05,1.62-7.84,1.62s-5.41-.51-7.86-1.52c-2.46-1.01-4.59-2.43-6.39-4.25-1.8-1.82-3.23-4-4.28-6.55-1.05-2.54-1.57-5.34-1.57-8.41s.52-5.92,1.57-8.58c1.05-2.66,2.48-4.98,4.28-6.94,1.8-1.96,3.93-3.5,6.37-4.64,2.44-1.13,5.07-1.7,7.89-1.7s5.4.53,7.84,1.6c2.44,1.07,4.57,2.54,6.37,4.43,1.8,1.89,3.23,4.13,4.28,6.73,1.05,2.59,1.57,5.42,1.57,8.48h0Zm-9.49,6.5c0-2.72-.44-5.36-1.32-7.94-.88-2.58-2.15-4.87-3.81-6.88-1.67-2.01-3.71-3.63-6.14-4.87-2.43-1.24-5.17-1.85-8.23-1.85-1.17,2.78-1.75,5.74-1.75,8.87,0,2.72.44,5.37,1.32,7.97.87,2.6,2.15,4.91,3.82,6.94,1.67,2.03,3.7,3.66,6.11,4.9,2.41,1.24,5.16,1.86,8.25,1.86,1.17-2.92,1.75-5.91,1.75-8.97h0Z"/>
      <path class="cls-4" d="m154.51,38.36l-7.51-3.5v7.06h5.57v4.93l-5.57-3v8.38l2.38,3.11h-10.37l2.35-3.11v-16.19l-2.35-3.11h15.49v5.43Z"/>
      <rect class="cls-6" x="157.93" y="49.88" width="5.63" height="5.46"/>
      <path class="cls-4" d="m180.76,39.87c-.77-.76-1.53-1.4-2.3-1.9-.77-.51-1.49-.91-2.18-1.21-.69-.3-1.31-.51-1.86-.64-.55-.13-.98-.2-1.3-.2-.63,1.57-.95,3.13-.95,4.68s.32,3.12.95,4.54c.64,1.42,1.53,2.66,2.68,3.73,1.15,1.06,2.52,1.91,4.12,2.54,1.6.62,3.35.95,5.25.96-1.38,1.2-2.67,2.05-3.87,2.55-1.19.5-2.42.75-3.67.75-1.48,0-2.85-.3-4.14-.89-1.29-.6-2.41-1.42-3.36-2.46-.95-1.05-1.7-2.27-2.25-3.67-.55-1.4-.83-2.91-.83-4.54s.28-3.14.83-4.54c.55-1.4,1.3-2.62,2.27-3.66.96-1.04,2.09-1.85,3.38-2.44,1.29-.59,2.68-.88,4.18-.88,1.6,0,3.1.35,4.5,1.06,1.39.71,2.66,1.76,3.79,3.14l-5.21,3.08Z"/>
      <rect class="cls-6" x="188.39" y="49.88" width="5.63" height="5.46"/>
      <path class="cls-4" d="m143.38,367.8h-10.24l2.32-3.07v-14.14l-2.96,1.77-1.33-2.21,9.85-5.87v20.46l2.35,3.07Z"/>
      <path class="cls-4" d="m161.23,352.53c0,.57-.08,1.16-.22,1.79-.15.62-.34,1.18-.58,1.7l-6.15,13.18-5.09-3.05,2.02-1.86,1.96-4.21c-2.42-1.01-4.17-2.19-5.25-3.54-1.08-1.35-1.62-2.84-1.62-4.48,0-.89.18-1.74.53-2.55.35-.81.85-1.53,1.51-2.14.66-.62,1.44-1.11,2.35-1.48.91-.37,1.93-.55,3.06-.55,1.05,0,2.03.18,2.94.55.91.37,1.71.88,2.38,1.52.67.64,1.2,1.41,1.58,2.28.38.88.57,1.82.57,2.84h0Zm-11.38-4.4c-.2.7-.31,1.32-.31,1.86,0,.57.14,1.12.42,1.66.28.53.66,1.05,1.16,1.53.5.49,1.09.95,1.77,1.38.68.43,1.43.83,2.24,1.18l1.74-3.79-7.03-3.82Z"/>
      <path class="cls-4" d="m184.29,356.73c0,1.55-.25,3.01-.73,4.4-.49,1.39-1.16,2.6-2.02,3.64-.86,1.04-1.87,1.87-3.03,2.48-1.16.61-2.41.91-3.73.91s-2.57-.3-3.74-.91c-1.16-.61-2.17-1.44-3.03-2.48-.86-1.04-1.53-2.25-2.02-3.64-.49-1.38-.73-2.85-.73-4.4s.25-3.02.73-4.4c.49-1.38,1.16-2.6,2.02-3.64.86-1.04,1.87-1.87,3.03-2.48,1.16-.61,2.41-.91,3.74-.91s2.57.31,3.73.91c1.16.61,2.18,1.43,3.03,2.48.86,1.04,1.54,2.26,2.02,3.64.49,1.38.73,2.85.73,4.4h0Zm-4.48,2.91c0-1.42-.2-2.8-.58-4.12-.39-1.33-.95-2.5-1.69-3.52-.73-1.01-1.64-1.83-2.73-2.45-1.08-.62-2.31-.93-3.7-.93-.26.78-.47,1.66-.65,2.65-.18.99-.26,1.89-.26,2.7,0,1.42.19,2.79.58,4.11.39,1.32.95,2.49,1.69,3.52.74,1.03,1.64,1.84,2.73,2.45,1.08.61,2.31.92,3.7.94.26-.77.47-1.65.65-2.64.18-.99.27-1.89.27-2.7h0Z"/>
      <path class="cls-4" d="m196.84,354.11c1.66.94,2.86,2.02,3.61,3.25.75,1.23,1.12,2.48,1.12,3.75,0,.93-.18,1.82-.55,2.67-.37.86-.9,1.61-1.58,2.26-.68.65-1.5,1.16-2.47,1.55-.96.39-2.03.58-3.21.58-.81,0-1.58-.09-2.3-.29-.72-.2-1.39-.44-1.99-.73-.61-.29-1.16-.6-1.64-.93-.48-.32-.87-.63-1.16-.9l5.09-3.02,5.12,3.24c.11-.2.23-.47.34-.8.12-.33.18-.72.18-1.16,0-.94-.27-1.79-.83-2.55-.55-.76-1.24-1.43-2.06-2.01-.82-.58-1.7-1.07-2.64-1.47-.94-.4-1.8-.71-2.58-.93l5.68-8.97-7.09,3.41v-5.4h14.28l-5.34,8.45Z"/>
    </g>
  </g>
</svg>