<?xml version="1.0" encoding="UTF-8"?>
<svg id="Layer_2" data-name="Layer 2" xmlns="http://www.w3.org/2000/svg" xmlns:xlink="http://www.w3.org/1999/xlink" viewBox="0 0 33.56 19.58">
  <defs>
    <style>
      .cls-1 {
        clip-path: url(#clippath);
      }

      .cls-2 {
        fill: none;
      }

      .cls-2, .cls-3, .cls-4, .cls-5 {
        stroke-width: 0px;
      }

      .cls-6 {
        clip-path: url(#clippath-1);
      }

      .cls-7 {
        clip-path: url(#clippath-3);
      }

      .cls-8 {
        clip-path: url(#clippath-2);
      }

      .cls-3 {
        fill: #3e9a13;
      }

      .cls-4 {
        fill: #ba0019;
      }

      .cls-5 {
        fill: #fff;
      }
    </style>
    <clipPath id="clippath">
      <rect class="cls-2" width="33.56" height="19.58"/>
    </clipPath>
    <clipPath id="clippath-1">
      <rect class="cls-2" width="33.56" height="19.58"/>
    </clipPath>
    <clipPath id="clippath-2">
      <rect class="cls-2" width="33.56" height="19.58"/>
    </clipPath>
    <clipPath id="clippath-3">
      <rect class="cls-2" width="33.56" height="19.58"/>
    </clipPath>
  </defs>
  <g id="Layer_1-2" data-name="Layer 1">
    <g id="BELARUS">
      <g>
        <g class="cls-1">
          <rect class="cls-4" width="33.56" height="13.05"/>
        </g>
        <g class="cls-6">
          <rect class="cls-3" y="13.05" width="33.56" height="6.53"/>
        </g>
        <g class="cls-8">
          <rect class="cls-5" width="4.31" height="19.58"/>
        </g>
        <g class="cls-7">
          <path class="cls-4" d="m.52,19.22h.19v-.54h-.19v.54Zm1.54,0h.19v-.54h-.19v.54Zm1.54,0h.19v-.54h-.19v.54Zm-2.3-1.45h.19v-.45h-.19v.45Zm1.54,0h.19v-.45h-.19v.45Zm-2.3-1.17h.19v-.54h-.19v.54Zm1.54,0h.19v-.54h-.19v.54Zm1.54,0h.19v-.54h-.19v.54Zm-2.68.72h.19v-.45h.19v-.45h.19v.45h.19v.45h.19v.45h-.19v.45h-.19v.45h-.19v-.45h-.19v-.45h-.19v-.45Zm1.53,0h.19v-.45h.19v-.45h.19v.45h.19v.45h.19v.45h-.19v.45h-.19v.45h-.19v-.45h-.19v-.45h-.19v-.45Zm.38-1.8v.45h-.19v.45h-.19v.45h-.19v.45h-.19v-.45h-.19v-.45h-.19v-.45h-.19v-.45h-.19v.45h-.19v.45h-.19v.45h-.19v.45h-.19v.45h.19v.45h.19v.45h.19v.45h.19v.45h.19v-.45h.19v-.45h.19v-.45h.19v-.45h.19v.45h.19v.45h.19v.45h.19v.45h.19v-.45h.19v-.45h.19v-.45h.19v-.45h.19v-.45h-.19v-.45h-.19v-.45h-.19v-.45h-.19v-.45h-.19Zm.48-.45h.1v-.18h.1v.18h.1v.18h-.1v.18h-.1v-.18h-.1v-.18Zm0-.63v.27h-.1v.27h-.1v.36h.1v.27h.1v.27h.29v-.27h.1v-.27h.1v-.36h-.1v-.27h-.1v-.27h-.29Zm-2.59.62h.1v-.18h.1v.18h.09v.18h-.09v.18h-.1v-.18h-.1v-.18Zm0-.63v.27h-.1v.27h-.1v.36h.1v.27h.1v.27h.29v-.27h.1v-.27h.09v-.36h-.09v-.27h-.1v-.27h-.29Zm1.06.63h.1v-.18h.1v.18h.1v.18h-.1v.18h-.1v-.18h-.1v-.18Zm.48,0h.1v-.18h.1v.18h.1v.18h-.1v.18h-.1v-.18h-.1v-.18Zm0-.63v.27h-.19v-.27h-.29v.27h-.1v.27h-.1v.36h.1v.27h.1v.27h.29v-.27h.19v.27h.29v-.27h.1v-.27h.09v-.36h-.09v-.27h-.1v-.27h-.29Zm-1.73-.18h.19v-.54h-.19v.54Zm1.54,0h.19v-.54h-.19v.54Zm1.54,0h.19v-.54h-.19v.54Zm-3.07-2.25h.19v-.36h-.19v.36Zm3.07,0h.19v-.36h-.19v.36Zm-1.54-1.26h.19v-.45h-.19v.45Zm-1.54-1.22v.27h0v.27h.19v-.27h0v-.27h-.19Zm1.06,0v.27h0v.27h.19v-.27h0v-.27h-.19Zm.96,0v.27h0v.27h.19v-.27h0v-.27h-.19Zm1.06,0v.27h0v.27h.19v-.27h0v-.27h-.19Zm-1.25-.32v.18h-.1v.14h-.19v-.14h-.1v-.18h-.19v.27h.1v.14h.1v.18h0v.18h-.1v.14h-.1v.27h.19v-.18h.1v-.13h.19v.13h.1v.18h.19v-.27h-.1v-.14h-.1v-.18h0v-.18h.1v-.14h.1v-.27h-.19Zm-.29.09h.19v-.45h-.19v.45Zm-1.54-1.35h.19v-.36h-.19v.36Zm3.07,0h.19v-.36h-.19v.36ZM.52,5.87h.19v-.54h-.19v.54Zm1.54,0h.19v-.54h-.19v.54Zm1.54,0h.19v-.54h-.19v.54Zm-2.3,3.93h0v-.19h.19v-.31h.19v-.36h.29v-.43h.1v-.21h.19v.2h.1v.43h.29v.36h.19v.31h.19v.36h-.19v.32h-.19v.36h-.29v.43h-.1v.2h-.19v-.2h-.1v-.43h-.29v-.36h-.19v-.32h-.19v-.17Zm1.54-5.02v.45h-.19v.45h-.19v.45h-.19v.45h-.19v-.45h-.19v-.45h-.19v-.45h-.19v-.45h-.19v.45h-.19v.45h-.19v.45h-.19v.45h-.19v.45h.19v.45h.19v.45h.19v.45h.19v-.45h.19v-.45h.19v-.45h-.19v-.54h.19v.36h.19v.72h.1v.45h-.29v.36h-.19v.27h-.19v.45h-.19v-.45h-.19v-.27h-.19v-.27h-.19v.81h.19v.36h.19v.31h.19v.18h0v.18h-.19v.32h-.19v.36h-.19v.81h.19v-.27h.19v-.27h.19v-.45h.19v.45h.19v.27h.19v.36h.29v.45h-.1v.72h-.19v.36h-.19v-.55h.19v-.45h-.19v-.45h-.19v-.45h-.19v.45h-.19v.45h-.19v.45h-.19v.45h.19v.45h.19v.45h.19v.45h.19v.45h.19v-.45h.19v-.45h.19v-.45h.19v-.45h.19v.45h.19v.45h.19v.45h.19v.45h.19v-.45h.19v-.45h.19v-.45h.19v-.45h.19v-.45h-.19v-.45h-.19v-.45h-.19v-.45h-.19v.45h-.19v.45h-.19v.45h.19v.55h-.19v-.36h-.19v-.72h-.1v-.45h.29v-.36h.19v-.27h.19v-.45h.19v.45h.19v.27h.19v.27h.19v-.81h-.19v-.36h-.19v-.32h-.19v-.18h0v-.18h.19v-.31h.19v-.36h.19v-.81h-.19v.27h-.19v.27h-.19v.45h-.19v-.45h-.19v-.27h-.19v-.36h-.29v-.45h.1v-.72h.19v-.36h.19v.54h-.19v.45h.19v.45h.19v.45h.19v-.45h.19v-.45h.19v-.45h.19v-.45h-.19v-.45h-.19v-.45h-.19v-.45h-.19v-.45h-.19Zm-2.11-.45h.1v-.18h.1v.18h.09v.18h-.09v.18h-.1v-.18h-.1v-.18Zm0-.36h-.1v.27h-.1v.36h.1v.27h.1v.27h.29v-.27h.1v-.27h.09v-.36h-.09v-.27h-.1v-.27h-.29v.27Zm1.06.36h.1v-.18h.1v.18h.1v.18h-.1v.18h-.1v-.18h-.1v-.18Zm.48,0h.1v-.18h.1v.18h.1v.18h-.1v.18h-.1v-.18h-.1v-.18Zm-.48-.36h-.1v.27h-.1v.36h.1v.27h.1v.27h.29v-.27h.19v.27h.29v-.27h.1v-.27h.09v-.36h-.09v-.27h-.1v-.27h-.29v.27h-.19v-.27h-.29v.27Zm1.53.36h.1v-.18h.1v.18h.1v.18h-.1v.18h-.1v-.18h-.1v-.18Zm0-.63v.27h-.1v.27h-.1v.36h.1v.27h.1v.27h.29v-.27h.1v-.27h.1v-.36h-.1v-.27h-.1v-.27h-.29Zm-2.78-.18h.19v-.54h-.19v.54Zm1.54,0h.19v-.54h-.19v.54Zm1.54,0h.19v-.54h-.19v.54Zm-2.3-1.26h.19v-.45h-.19v.45Zm1.54,0h.19v-.45h-.19v.45ZM.52.9h.19V.36h-.19v.54Zm1.54,0h.19V.36h-.19v.54Zm1.54,0h.19V.36h-.19v.54ZM.91,1.8h.19v-.45h.19v-.45h.19v.45h.19v.45h.19v.45h-.19v.45h-.19v.45h-.19v-.45h-.19v-.45h-.19v-.45Zm1.53,0h.19v-.45h.19v-.45h.19v.45h.19v.45h.19v.45h-.19v.45h-.19v.45h-.19v-.45h-.19v-.45h-.19v-.45Zm.38-1.8v.45h-.19v.45h-.19v.45h-.19v.45h-.19v-.45h-.19v-.45h-.19v-.45h-.19v-.45h-.19v.45h-.19v.45h-.19v.45h-.19v.45h-.19v.45h.19v.45h.19v.45h.19v.45h.19v.45h.19v-.45h.19v-.45h.19v-.45h.19v-.45h.19v.45h.19v.45h.19v.45h.19v.45h.19v-.45h.19v-.45h.19v-.45h.19v-.45h.19v-.45h-.19v-.45h-.19v-.45h-.19v-.45h-.19v-.45h-.19Z"/>
        </g>
      </g>
    </g>
  </g>
</svg>