<?xml version="1.0" encoding="UTF-8"?>
<svg id="Layer_2" data-name="Layer 2" xmlns="http://www.w3.org/2000/svg" viewBox="0 0 333.11 299.38">
  <defs>
    <style>
      .cls-1 {
        stroke: #070707;
        stroke-width: 2px;
      }

      .cls-1, .cls-2 {
        fill: #e70033;
      }

      .cls-3 {
        fill: #f3e800;
      }

      .cls-3, .cls-4, .cls-5, .cls-2 {
        stroke-width: 0px;
      }

      .cls-4 {
        fill: #070707;
      }

      .cls-5 {
        fill: #fff;
      }
    </style>
  </defs>
  <g id="Ebene_1" data-name="Ebene 1">
    <g id="g1052">
      <path id="path996" class="cls-1" d="m53.86,33.74v84.2c0,142.67,110.56,180.45,112.69,180.45s112.69-37.78,112.69-180.52V33.74H53.86Z"/>
      <g id="g1006">
        <path id="path998" class="cls-3" d="m128.28,33.74v239.98c9.71,7.37,18.71,12.54,25.51,15.95V33.81h-25.51v-.07Z"/>
        <path id="path1000" class="cls-3" d="m77.25,33.74v178.04c6.8,13.89,15.38,26.72,25.51,38.2V33.74h-25.51Z"/>
        <path id="path1002" class="cls-3" d="m179.31,33.74v255.86c6.8-3.4,15.81-8.58,25.51-15.95V33.74h-25.51Z"/>
        <path id="path1004" class="cls-3" d="m230.34,33.74v216.24c10.14-11.48,18.71-24.31,25.51-38.2V33.74h-25.51Z"/>
      </g>
      <g id="g1012">
        <path id="path1008" class="cls-4" d="m127.93,224.81c-.21,0-.43-.07-.57-.28s-.21-.5-.07-.71c.57-1.42,3.69-8.43,6.73-8.43,2.41,0,9.85-6.52,9.85-9.28v-1.28c0-1.35.92-2.69,1.77-3.9.64-.92,1.13-1.7,1.2-2.13l-7.87,2.83-.71,1.56c-.07.21-.28.35-.5.43l-2.69.57c-.64,1.7-3.47,8.15-10.63,10.28l-21.19,6.31h-.21c-.14,0-.28-.07-.35-.07-.14-.07-.28-.28-.35-.5l-.35-2.06-2.34-.57c-.28-.07-.43-.28-.5-.5l-.43-1.49-2.98-2.98c-.14-.14-.21-.28-.21-.5v-2.34l-2.69-1.56c-.21-.14-.35-.35-.35-.64v-1.84c0-.35.21-.64.57-.71,0,0,.28-.14.28-.71v-1.35l-.64-.64c-.14-.14-.21-.35-.21-.57l.28-2.69c0-.28.21-.5.5-.64l18-5.53h.14c.35,0,9.5-.57,11.41-.57,3.97,0,8.79,2.69,9.78,3.26h1.91v-.21c0-.43.28-.71.71-.71h.85c.21,0,.5.14.57.35.21.28.5.64.64.78l4.25-1.56c-.85-1.56-2.55-4.89-2.55-6.17,0-1.13.78-4.04,1.2-5.6-2.48.21-8.93.71-11.13.71-.07,0-7.65-.21-7.65-2.41,0-.43,0-1.42,4.61-1.42.92,0,2.91-2.13,4.82-4.18,2.41-2.62,5.39-5.81,8.65-7.65-.99-.28-2.83-.57-5.88-.57-1.28,0-4.25.64-6.87,1.2s-5.03,1.13-6.17,1.13c-.28,0-.5,0-.64-.07-.21-.07-.43-.28-.43-.5-.07-.21,0-.5.21-.64.07-.07,7.16-6.45,9.28-9.14.07-.07.14-.14.28-.21,2.91-1.35,8.36-6.66,12.19-10.49q.07-.07.14-.07c2.69-1.7,13.82-6.45,20.91-9.43-1.42-.14-2.13-.85-2.2-.92-.14-.14-.21-.35-.14-.57,0-.21.14-.35.35-.5.99-.57,1.84-1.28,2.41-1.84-.71.21-1.56.57-2.13.85-.07.07-.21.07-.28.07-.14,0-.28-.07-.43-.14-.21-.14-.28-.43-.28-.64.14-1.06.99-2.98,3.12-2.98h0v-.21h-4.47c-.21,0-.43-.07-.57-.28s-.21-.43-.14-.64c0-.14.71-2.69,4.39-2.69,1.06,0,1.91-.07,2.55-.21l-1.98-.21c-.21,0-.43-.14-.57-.43-.07-.21-.07-.5,0-.71.07-.14.78-1.2,2.76-1.2h3.12c-.21-.07-.43-.14-.57-.21-.43-.21-.85-.35-1.63-.35-.07,0-10.35-.14-10.35-4.32,0-.21.14-.43.28-.57.14-.07.28-.14.43-.14.07,0,.14,0,.21.07.07,0,4.47,1.56,8.15,1.56,2.76,0,8.36-2.76,8.36-6.38,0-.85.21-1.56.35-2.2.21-.71.35-1.35.35-2.2,0-1.56-.35-3.33-.43-3.76-.07-.14-.14-.21-.14-.35q-.43-.92-1.91-.92c-.92,0-2.34-.64-3.76-1.35-.99-.5-2.2-1.06-2.62-1.06-.35,0-1.77.64-2.76,1.06-1.7.78-3.33,1.49-4.32,1.49-.21,0-.43-.07-.57-.14-.21-.07-.35-.21-.43-.43s-.07-.43.07-.57c.71-1.2,4.32-7.37,7.16-7.37s11.27,1.63,14.1,2.98c.78.43,1.91,1.56,3.19,2.83.92.92,1.84,1.84,2.69,2.55.85.78,1.7,1.35,2.48,1.91,1.06.78,2.06,1.49,3.05,2.55,1.2,1.28,2.06,2.69,2.41,3.33,11.41,3.05,17.51,6.59,18.21,10.56,0,.21,0,.43-.14.57s-.35.28-.57.28c-1.35,0-3.4-2.13-4.32-3.12h-3.97s-1.13-.35-2.69-.43v1.91c0,1.06.64,1.63,1.84,2.62,1.56,1.28,3.76,3.05,3.76,7.3,0,1.35-1.13,3.69-2.27,3.69-.64,0-.99-.64-1.77-2.06-.35-.64-.92-1.7-1.2-1.98-.14.14-.35.43-.57.64-.5.57-1.13,1.28-1.98,1.56.21.35.21.5.21.64,0,1.13.35,1.98.78,2.91.35.78.64,1.56.64,2.41,0,1.56-1.2,3.61-2.48,3.61-.57,0-1.06-.5-2.06-1.63-1.06-1.2-2.83-3.19-3.97-3.19-.43,0-.64.07-.64.14,0,.78,1.28,2.62,2.27,4.11,1.28,1.84,2.34,3.47,2.34,4.61,0,3.69,3.12,11.27,3.69,12.62,2.98,1.84,8.01,4.54,9.28,4.54h3.47c.28-.43.78-.78,1.49-.78s1.28.71,1.84,1.49c.14.21.35.5.5.64.21-.07.5-.21.78-.28.78-.35,1.7-.71,2.48-.71,1.06,0,3.19,1.28,4.18,1.84l14.88-5.95c.07,0,.14-.07.28-.07.28,0,.57.14.64.43l1.42,3.4c.14.35,0,.78-.35.92l-14.67,6.38-.35,2.76c0,.14-.14.35-.21.43-.21.14-4.61,3.9-9.21,3.9-1.49,0-3.83-1.49-4.68-2.13l-5.67,2.55v2.55c0,4.68-10.28,17.79-11.98,19.99l-.5,4.32c-.07.35-.35.64-.71.64-1.77,0-3.4,1.56-3.4,3.4,0,.5.43,1.06.71,1.35,1.56.64,3.9,1.49,4.54,1.49.71-.14,5.1-2.91,7.51-4.39,3.54-2.2,3.69-2.27,4.04-2.27.92,0,1.49.99,1.49,2.48,0,2.41-8.08,10.63-10.56,13.11-.14.14-.28.21-.5.21h-.07c-.07,0-9.57-.71-13.68-.71-1.84,0-4.68.5-6.73.78-1.35.21-2.13.35-2.48.35-1.28,0-2.41-1.13-2.41-2.41,0-.71,1.42-2.69,4.18-5.81-.92.07-2.69.64-4.32,1.2-1.63.57-2.98.99-3.76.99-.35,0-.64-.07-.85-.28-.71-.71.07-1.84,1.42-3.83.28-.43.71-1.06.99-1.49-1.63.64-3.47,2.83-5.24,4.96-2.55,3.19-5.24,6.45-8.43,6.45-2.41,0-3.12-.57-3.26-.78-.14-.14-.21-.35-.14-.5,0-.21.14-.35.28-.5,1.13-.92,2.55-2.34,3.19-3.4-2.34,1.63-7.16,4.89-9.21,4.89-4.54,0-14.67,1.42-14.81,1.42-.35-.07-.43-.07-.43-.07Zm50.32-51.6c.43.14,1.63.35,4.82.35,8.65,0,13.4,2.41,15.24,3.33.21.14.5.28.64.28.5-.07,1.84-.71,2.41-1.2-.64-.28-1.91-.64-3.05-.92-5.1-1.42-12.19-3.33-12.19-7.3,0-1.13-.78-2.13-1.2-2.48-.78.57-2.91,2.55-4.82,4.39,0,.71-.07,1.77-.57,2.27-.35.35-.85.64-1.13.78-.07.28-.14.43-.14.5Z"/>
        <path id="path1010" class="cls-5" d="m164,97.95c2.55,0,11.06,1.56,13.82,2.91,1.06.57,3.61,3.47,5.74,5.32s3.83,2.69,5.46,4.39c1.49,1.56,2.41,3.47,2.41,3.47,5.32,1.42,17.08,4.89,18,10.06-1.28,0-3.97-3.12-3.97-3.12h-4.18s-1.49-.43-3.61-.43v2.69c0,3.47,5.6,3.19,5.6,9.92,0,1.28-1.06,2.98-1.56,2.98s-2.06-4.11-2.91-4.11-1.7,2.27-3.26,2.27l-.64-.35v-1.42l-.57.28-.14,1.56s1.35.92,1.35,1.35c0,2.27,1.42,3.69,1.42,5.32,0,1.42-1.06,2.91-1.77,2.91s-3.69-4.89-6.02-4.89c-.78,0-1.35.28-1.35.78,0,2.06,4.61,6.95,4.61,8.79,0,4.25,3.83,13.11,3.83,13.11,0,0,7.87,4.82,9.85,4.82h3.9s.35-.78,1.06-.78,1.7,2.13,2.2,2.13,2.27-1.06,3.4-1.06,4.11,1.98,4.11,1.98l15.24-6.1,1.42,3.4-15.03,6.52-.43,3.19s-4.32,3.69-8.79,3.69c-1.56,0-4.61-2.2-4.61-2.2l-6.45,2.91v2.98c0,4.68-11.98,19.7-11.98,19.7l-.57,4.54c-2.2,0-4.11,1.98-4.11,4.11,0,.99.99,1.98.99,1.98,0,0,3.83,1.56,4.96,1.56s11.06-6.66,11.48-6.66.78.71.78,1.77c0,2.27-10.35,12.62-10.35,12.62,0,0-9.57-.71-13.75-.71-2.91,0-8.36,1.13-9.21,1.13s-1.7-.78-1.7-1.7,4.68-6.24,4.68-6.24c0,0-.43-.35-1.13-.35-1.91,0-6.73,2.2-8.15,2.2-.14,0-.28,0-.35-.07-.64-.64,3.97-5.67,2.76-5.67-4.61,0-9.07,11.62-14.53,11.62-2.27,0-2.76-.57-2.76-.57,0,0,4.89-4.04,3.54-5.39,0,0-7.51,5.67-9.99,5.67-4.61,0-14.88,1.42-14.88,1.42,0,0,3.4-7.94,6.1-7.94s10.56-6.73,10.56-9.99v-1.42c0-2.48,4.18-5.39,2.69-6.95l-8.79,3.19-.78,1.84-3.12.64s-2.48,7.87-10.28,10.21l-21.19,6.31-.43-2.48-2.76-.71-.43-1.7-3.12-3.12v-2.76l-2.98-1.77v-1.84s.85-.14.85-1.42v-1.63l-.85-.85.28-2.69,18-5.53s9.5-.57,11.34-.57c4.18,0,9.57,3.26,9.57,3.26h2.83v-.92h.85s.78,1.2,1.2,1.2l5.32-1.98s-2.83-5.1-2.83-6.52,1.42-6.38,1.42-6.38c0,0-9.36.78-12.05.78s-6.95-.78-6.95-1.7c0-.43,1.84-.71,3.9-.71,2.69,0,8.36-9.5,14.88-12.47,0-.43-2.06-1.35-7.37-1.35-2.62,0-10.84,2.34-13.04,2.34-.14,0-.28,0-.43-.07,0,0,7.16-6.45,9.36-9.21,2.98-1.42,8.43-6.66,12.4-10.63,3.97-2.48,26.86-11.91,26.86-11.91,0,0,.43-.28.43-.64s-.64-.64-.64-.64c0,0-3.54,2.48-5.67,2.48-1.42,0-2.06-.71-2.06-.71,0,0,3.4-2.06,3.4-3.4-.07-.07-.14-.07-.28-.07-.92,0-3.47,1.13-3.47,1.13,0,0,.35-2.41,2.41-2.41.85,0,.71-.71.71-1.13s-.43-.43-.43-.43h-4.68s.57-2.13,3.69-2.13,4.25-.71,4.25-.71v-.71l-3.61-.43s.57-.85,2.13-.85h3.61c1.13,0,2.55-.99,2.55-2.06,0,0-.64.78-1.98.78s-1.56-.78-3.4-.78c-1.28,0-9.64-.43-9.64-3.61,0,0,4.54,1.56,8.43,1.56,3.12,0,9.07-2.98,9.07-7.09,0-1.56.71-2.55.71-4.39s-.43-3.97-.43-3.97c-.71-1.42-.64-1.77-2.76-1.77-1.49,0-5.17-2.41-6.38-2.41-1.13,0-5.53,2.55-7.09,2.55-.14,0-.21,0-.35-.07,0,.14,3.97-6.87,6.59-6.87m34.87,80.02c.64,0,3.4-1.28,3.4-2.06,0-1.13-15.45-2.98-15.45-8.01,0-1.84-1.56-3.26-1.98-3.26s-5.53,4.89-5.53,4.89c0,0,.07,1.63-.35,2.06s-1.28.78-1.28.78c0,0-.28.78-.28,1.13s1.42.78,5.6.78c10.63.07,15.17,3.69,15.88,3.69m-34.87-81.44c-3.05,0-6.45,5.39-7.8,7.73-.21.35-.21.78-.14,1.13.14.35.43.71.78.85.28.14.57.14.85.14,1.06,0,2.55-.64,4.61-1.56.85-.35,2.13-.92,2.48-.99.35.07,1.49.57,2.27.99,1.56.71,2.98,1.42,4.11,1.42.64,0,.92.07.99.07.07.07.14.28.21.5.07.07.07.14.14.28.07.5.35,2.13.35,3.54,0,.78-.14,1.35-.35,2.06s-.35,1.42-.35,2.41c0,3.05-5.1,5.67-7.65,5.67-3.61,0-7.87-1.49-7.94-1.49-.14-.07-.28-.07-.5-.07-.28,0-.57.07-.85.28-.35.28-.57.71-.57,1.13,0,2.13,1.84,3.54,5.46,4.39.85.21,1.7.35,2.48.43-.71.43-1.06.92-1.06.99-.21.35-.28.78-.14,1.2-3.61.35-4.32,3.05-4.39,3.19-.07.43,0,.85.28,1.2s.71.57,1.13.57h1.7c-.64.78-.99,1.7-1.06,2.34-.07.5.14.99.57,1.35.07.07.14.14.21.14-.21.21-.35.5-.43.78-.07.43.07.85.35,1.13.07.07.28.35.71.57-7.09,2.98-16.73,7.16-19.28,8.72-.07.07-.14.14-.28.21-2.41,2.41-8.86,8.86-11.98,10.35-.21.07-.35.21-.5.43-2.13,2.62-9.14,9-9.21,9.07-.35.35-.57.85-.43,1.35s.43.92.92,1.06c.28.07.5.14.85.14,1.2,0,3.54-.5,6.31-1.13,2.62-.57,5.53-1.2,6.73-1.2,1.77,0,3.05.07,4.04.21-2.69,1.91-5.17,4.54-7.23,6.8-1.49,1.63-3.61,3.83-4.32,3.97h0c-3.69,0-5.24.64-5.24,2.13,0,3.05,8.22,3.12,8.36,3.12,1.91,0,7.23-.43,10.14-.64-.43,1.63-.92,3.83-.92,4.82,0,1.2,1.28,3.9,2.27,5.81l-3.05,1.13c-.07-.14-.21-.21-.21-.35-.28-.43-.71-.64-1.2-.64h-.85c-.64,0-1.13.35-1.35.92h-1.13c-1.35-.78-6.02-3.26-9.92-3.26-1.91,0-11.06.5-11.41.57-.14,0-.21,0-.35.07l-18,5.53c-.57.14-.92.64-.99,1.2l-.28,2.69c-.07.43.14.85.43,1.13l.43.43v1.2c-.5.21-.85.71-.85,1.28v1.84c0,.5.28.99.71,1.2l2.34,1.35v1.91c0,.35.14.71.43.99l2.83,2.83.35,1.35c.14.5.5.85.99.99l1.84.5.28,1.56c.07.43.28.78.64.99.21.14.5.21.78.21.14,0,.28,0,.43-.07l21.19-6.31c6.95-2.06,9.99-8.08,10.91-10.28l2.34-.5c.43-.07.85-.43.99-.85l.57-1.28,5.81-2.13c-.14.14-.21.28-.28.43-.92,1.28-1.91,2.69-1.91,4.25v1.35c0,.85-1.28,2.91-3.83,5.17-2.48,2.2-4.68,3.4-5.32,3.4-3.33,0-6.31,6.17-7.44,8.86-.21.5-.14.99.21,1.42.28.35.71.57,1.13.57h.21c.07,0,10.21-1.42,14.67-1.42,1.2,0,3.19-.92,5.1-2.06,0,.07,0,.14-.07.21-.07.35.07.78.35,1.06.57.71,1.84,1.06,3.83,1.06,3.54,0,6.31-3.4,9-6.73.5-.64,1.06-1.28,1.56-1.91-.43.92-.43,1.63.21,2.27.35.35.78.5,1.35.5.85,0,2.06-.43,3.97-1.06.64-.21,1.42-.5,2.2-.71-2.98,3.54-2.98,4.25-2.98,4.68,0,1.7,1.42,3.12,3.12,3.12.43,0,1.13-.14,2.55-.35,1.91-.28,4.89-.78,6.66-.78,4.04,0,13.54.71,13.61.71h.07c.35,0,.71-.14.99-.43,0,0,2.62-2.62,5.24-5.46,4.89-5.39,5.53-7.09,5.53-8.08,0-2.2-1.13-3.19-2.2-3.19-.57,0-.71.07-4.39,2.41-2.2,1.35-6.17,3.9-7.23,4.25-.64-.07-2.48-.71-4.04-1.35-.21-.28-.43-.64-.43-.78,0-1.42,1.28-2.69,2.69-2.69.71,0,1.35-.57,1.42-1.28l.5-4.11c2.55-3.19,12.05-15.45,12.05-20.2v-2.13l4.89-2.2c1.13.78,3.26,1.98,4.75,1.98,4.89,0,9.5-3.9,9.71-4.04.28-.21.43-.57.5-.85l.35-2.41,14.32-6.24c.71-.28,1.06-1.13.71-1.84l-1.42-3.4c-.21-.57-.78-.85-1.28-.85-.14,0-.35,0-.5.07l-14.6,5.81c-1.28-.78-3.12-1.77-4.25-1.77-.92,0-1.91.43-2.76.78-.07.07-.21.07-.28.14-.07-.07-.14-.14-.14-.21-.64-.85-1.28-1.77-2.41-1.77-.78,0-1.35.35-1.77.78h-3.19c-.92-.07-5.17-2.27-8.72-4.32-1.13-2.69-3.54-9.07-3.54-12.12,0-1.28-.92-2.76-2.48-4.96-.57-.85-1.49-2.2-1.91-3.05.92.35,2.41,2.13,3.12,2.91,1.13,1.28,1.7,1.91,2.55,1.91,1.7,0,3.19-2.41,3.19-4.32,0-.99-.35-1.91-.71-2.69-.35-.85-.71-1.63-.71-2.62v-.28c.71-.35,1.2-.99,1.56-1.42.21.43.5.92.71,1.2.78,1.49,1.28,2.41,2.34,2.41,1.77,0,2.98-2.91,2.98-4.39,0-4.61-2.34-6.45-3.97-7.87-1.13-.92-1.56-1.35-1.56-2.06v-1.13c1.13.14,1.84.28,1.84.28.14.07.28.07.43.07h3.54c1.42,1.49,3.19,3.12,4.61,3.12.43,0,.78-.21,1.06-.5s.35-.71.28-1.13c-.71-4.32-6.73-7.94-18.43-11.06-.43-.71-1.28-2.06-2.34-3.19-1.06-1.06-2.06-1.84-3.12-2.62-.78-.57-1.56-1.13-2.41-1.91-.85-.71-1.77-1.63-2.69-2.55-1.56-1.56-2.55-2.55-3.33-2.98h-.07c-2.91-1.91-11.55-3.54-14.32-3.54h0Zm16.8,73.57c1.49-1.42,3.12-2.91,4.04-3.76.28.35.57.92.57,1.49,0,2.76,2.83,4.61,6.24,5.95-2.27-.5-5.1-.85-8.5-.85-1.56,0-2.55-.07-3.26-.14l.21-.21c.5-.57.64-1.56.71-2.48h0Zm18.14,6.38c-.14-.07-.21-.14-.35-.21-.43-.21-.99-.5-1.77-.85.43.14.78.21,1.2.35.5.14,1.06.28,1.56.43-.21.14-.43.21-.64.28h0Z"/>
      </g>
      <g id="g1050">
        <g id="g1018">
          <path id="path1014" class="cls-5" d="m122.05,80.16c-2.27,0-4.32-.43-6.02-1.35-1.77-.92-3.19-2.27-4.11-3.97-.99-1.7-1.42-3.54-1.42-5.46,0-2.06.57-3.97,1.63-5.81s2.55-3.26,4.32-4.25,3.76-1.49,5.81-1.49c1.49,0,3.12.35,4.75.99,1.2.5,1.56.5,1.63.5.21,0,.43-.07.57-.21.21-.21.28-.5.35-.92l.07-.35h1.28v7.94h-1.28l-.07-.28c-.43-1.77-1.2-3.19-2.41-4.11-1.13-.92-2.48-1.42-3.9-1.42-1.2,0-2.34.35-3.33,1.06s-1.77,1.63-2.2,2.76c-.64,1.49-.92,3.12-.92,4.96s.21,3.47.71,4.96c.43,1.42,1.13,2.55,2.06,3.26.92.71,2.13,1.06,3.61,1.06,1.2,0,2.41-.28,3.4-.78,1.06-.57,2.13-1.49,3.33-2.83l.71-.78v2.98l-.14.14c-1.2,1.2-2.48,2.13-3.76,2.69-1.42.43-2.91.71-4.68.71Z"/>
          <path id="path1016" class="cls-4" d="m130.48,58.26v7.16h-.57c-.43-1.91-1.28-3.33-2.48-4.32s-2.62-1.49-4.18-1.49c-1.28,0-2.48.35-3.54,1.13-1.06.71-1.84,1.7-2.34,2.91-.64,1.56-.99,3.26-.99,5.1s.21,3.54.71,5.03,1.2,2.69,2.2,3.47c.99.78,2.27,1.13,3.9,1.13,1.28,0,2.48-.28,3.54-.85,1.06-.57,2.2-1.56,3.4-2.91v1.77c-1.13,1.2-2.34,2.06-3.61,2.62-1.28.57-2.69.78-4.39.78-2.2,0-4.18-.43-5.88-1.35-1.7-.85-3.05-2.13-3.97-3.83-.92-1.63-1.42-3.4-1.42-5.24,0-1.98.5-3.83,1.56-5.6s2.41-3.12,4.18-4.11,3.61-1.49,5.6-1.49c1.49,0,2.98.28,4.61.92.92.35,1.56.57,1.77.57.35,0,.64-.14.85-.35s.43-.64.5-1.13h.57m.78-.71h-2.06l-.07.71c-.07.5-.21.64-.21.71-.07.07-.21.14-.28.14,0,0-.28,0-1.49-.5-1.7-.64-3.33-.99-4.89-.99-2.13,0-4.11.5-5.95,1.56-1.84,1.06-3.4,2.48-4.47,4.39-1.13,1.84-1.63,3.9-1.63,5.95s.5,3.9,1.49,5.67c.99,1.77,2.41,3.19,4.32,4.11,1.84.92,3.9,1.42,6.24,1.42,1.77,0,3.33-.28,4.68-.85,1.35-.57,2.62-1.49,3.9-2.76l.21-.21v-4.18l-1.35,1.56c-1.13,1.28-2.2,2.27-3.19,2.76-.99.5-2.06.78-3.19.78-1.42,0-2.55-.35-3.4-.99s-1.49-1.7-1.91-3.05c-.43-1.42-.64-3.05-.64-4.82s.28-3.4.92-4.82c.43-1.06,1.13-1.91,2.06-2.55.92-.64,1.98-.99,3.12-.99,1.35,0,2.55.43,3.69,1.35,1.06.92,1.84,2.2,2.27,3.9l.14.57h1.98v-8.86h-.28Z"/>
        </g>
        <g id="g1024">
          <path id="path1020" class="cls-5" d="m141.75,79.73v-1.28h.78c.92,0,1.28-.14,1.49-.28.07-.07.14-.14.14-.43,0-.14,0-.28-.07-.43,0-.07-.07-.21-.43-1.13l-.99-2.34h-6.73l-.78,1.77c-.28.64-.43,1.13-.43,1.49,0,.43.14.78.5.99.07.07.5.21,1.84.28h.35v1.28h-7.65v-1.28l.35-.07c.64-.07,1.2-.35,1.63-.78.43-.5.99-1.49,1.7-3.05l7.51-16.73h.78l7.51,17.15c.85,1.98,1.35,2.69,1.63,2.91.28.28.71.43,1.2.43h.35v1.28h-10.7v.21Zm.14-7.8l-2.48-5.74-2.55,5.74h5.03Z"/>
          <path id="path1022" class="cls-4" d="m141.47,58.26l7.44,16.94c.71,1.63,1.28,2.62,1.77,3.05.35.28.85.5,1.49.57v.57h-9.99v-.57h.43c.78,0,1.35-.14,1.7-.35.21-.14.35-.43.35-.71,0-.21,0-.35-.07-.57,0-.07-.14-.5-.43-1.13l-1.13-2.55h-7.3l-.92,1.98c-.28.71-.43,1.2-.43,1.7,0,.57.21.99.71,1.28.28.14.92.28,2.06.35v.57h-6.87v-.57c.71-.14,1.35-.43,1.84-.92.5-.5,1.06-1.56,1.77-3.12l7.37-16.44h.21m-5.32,13.96h6.31l-3.12-7.09-3.19,7.09m5.81-14.81h-1.28l-.21.43-7.37,16.51c-.85,1.84-1.35,2.62-1.63,2.91-.35.35-.78.64-1.35.71l-.64.07v1.98h8.43v-2.06l-.71-.07c-1.35-.07-1.63-.21-1.7-.28-.21-.14-.35-.28-.35-.64,0-.21.07-.64.35-1.35l.71-1.56h6.24l.92,2.13c.35.85.43.99.43,1.06h0c.07.14.07.21.07.35v.07c-.07.07-.35.21-1.2.21h-1.2v2.13h11.55v-2.06l-.71-.07c-.43-.07-.78-.14-.99-.35-.21-.21-.71-.85-1.56-2.83l-7.44-16.94-.35-.35h0Zm-4.61,14.03l1.98-4.39,1.91,4.39h-3.9Z"/>
        </g>
        <g id="g1030">
          <path id="path1026" class="cls-5" d="m153.37,79.73v-1.28h1.06c.5,0,.92-.07,1.28-.28.21-.14.35-.28.43-.57.07-.07.14-.43.14-1.77v-13.61c0-1.35-.07-1.77-.14-1.84-.07-.21-.28-.35-.5-.5-.28-.14-.71-.21-1.2-.21h-1.06v-1.28h11.84v1.28h-1.28c-.5,0-.92.07-1.28.28-.21.14-.35.28-.5.57,0,.07-.14.43-.14,1.77v13.11c0,1.28.07,1.7.14,1.84.07.21.21.35.5.43.07,0,.43.14,1.7.14h1.7c.99,0,1.91-.21,2.55-.57.64-.35,1.28-.92,1.77-1.7s.99-2.06,1.49-3.61l.07-.28h1.42l-.85,8.08h-19.14Z"/>
          <path id="path1028" class="cls-4" d="m164.78,58.68v.57h-.92c-.57,0-1.06.14-1.42.35-.28.14-.5.43-.64.71-.14.21-.14.92-.14,1.91v13.11c0,1.06.07,1.7.21,1.98s.35.5.71.64c.28.07.85.14,1.84.14h1.7c1.06,0,1.98-.21,2.76-.57.71-.35,1.35-.99,1.91-1.84s1.06-2.06,1.49-3.76h.64l-.78,7.3h-18.36v-.57h.71c.57,0,1.06-.14,1.49-.35.28-.14.5-.43.64-.71.14-.21.14-.92.14-1.91v-13.47c0-1.06-.07-1.77-.14-1.98-.14-.28-.35-.5-.71-.71s-.78-.28-1.42-.28h-.71v-.57h10.99m.78-.78h-12.54v2.13h1.49c.43,0,.78.07.99.21.21.14.28.21.35.35,0,0,.14.35.14,1.7v13.54c0,1.28-.07,1.63-.07,1.63-.07.21-.14.28-.28.35-.28.14-.64.21-1.06.21h-1.49v2.13h19.84l.07-.71.78-7.3.07-.85h-2.2l-.14.57c-.43,1.56-.92,2.76-1.42,3.54-.43.71-.99,1.28-1.63,1.56-.64.35-1.42.5-2.34.5h-1.7c-1.28,0-1.56-.07-1.56-.07-.21-.07-.21-.21-.28-.21,0,0-.14-.35-.14-1.7v-13.25c0-1.28.07-1.63.07-1.63.07-.21.14-.28.28-.35.28-.14.64-.21,1.06-.21h1.7v-2.13h0Z"/>
        </g>
        <g id="g1036">
          <path id="path1032" class="cls-5" d="m185.62,80.16c-2.27,0-4.32-.43-6.02-1.35-1.77-.92-3.19-2.27-4.11-3.97-.99-1.7-1.42-3.54-1.42-5.46,0-2.06.57-3.97,1.63-5.81s2.55-3.26,4.32-4.25,3.76-1.49,5.81-1.49c1.49,0,3.12.35,4.75.99,1.2.5,1.56.5,1.63.5.21,0,.43-.07.57-.21.14-.21.28-.5.35-.92l.07-.35h1.28v7.94h-1.28l-.07-.28c-.43-1.77-1.2-3.19-2.41-4.11-1.13-.92-2.48-1.42-3.9-1.42-1.2,0-2.34.35-3.33,1.06-.99.71-1.77,1.63-2.2,2.76-.64,1.49-.92,3.12-.92,4.96s.21,3.47.71,4.96c.43,1.42,1.13,2.55,2.06,3.26.92.71,2.13,1.06,3.61,1.06,1.2,0,2.41-.28,3.4-.78,1.06-.57,2.13-1.49,3.33-2.83l.71-.78v2.98l-.14.14c-1.2,1.2-2.48,2.13-3.76,2.69-1.42.43-2.98.71-4.68.71Z"/>
          <path id="path1034" class="cls-4" d="m193.98,58.26v7.16h-.57c-.43-1.91-1.28-3.33-2.48-4.32s-2.62-1.49-4.18-1.49c-1.28,0-2.48.35-3.54,1.13-1.06.71-1.84,1.7-2.34,2.91-.64,1.56-.99,3.26-.99,5.1s.21,3.54.71,5.03,1.2,2.69,2.2,3.47,2.27,1.13,3.9,1.13c1.28,0,2.48-.28,3.54-.85,1.06-.57,2.2-1.56,3.4-2.91v1.77c-1.13,1.2-2.34,2.06-3.61,2.62-1.28.57-2.69.78-4.39.78-2.2,0-4.18-.43-5.88-1.35-1.7-.85-3.05-2.13-3.97-3.83s-1.42-3.4-1.42-5.24c0-1.98.5-3.83,1.56-5.6s2.41-3.12,4.18-4.11,3.61-1.49,5.6-1.49c1.49,0,2.98.28,4.61.92.92.35,1.56.57,1.77.57.35,0,.64-.14.85-.35.21-.21.43-.64.5-1.13h.57m.78-.71h-2.06l-.07.64c-.07.5-.21.64-.21.71-.14.14-.21.14-.28.14,0,0-.28,0-1.49-.5-1.7-.64-3.33-.99-4.89-.99-2.13,0-4.11.5-5.95,1.56s-3.4,2.48-4.47,4.39c-1.13,1.84-1.63,3.9-1.63,5.95s.5,3.9,1.49,5.67c.99,1.77,2.41,3.19,4.32,4.11,1.84.92,3.9,1.42,6.24,1.42,1.77,0,3.33-.28,4.68-.85,1.35-.57,2.62-1.49,3.9-2.76l.21-.21v-4.18l-1.35,1.56c-1.13,1.28-2.2,2.27-3.19,2.76-.99.5-2.06.78-3.19.78-1.42,0-2.55-.35-3.4-.99-.85-.64-1.49-1.7-1.91-3.05-.43-1.42-.64-3.05-.64-4.82s.28-3.4.92-4.82c.43-1.06,1.13-1.91,2.06-2.55s1.98-.99,3.12-.99c1.35,0,2.55.43,3.69,1.35,1.06.92,1.84,2.2,2.27,3.9l.14.57h1.98v-8.79h-.28Z"/>
        </g>
        <g id="g1042">
          <path id="path1038" class="cls-5" d="m195.19,79.73v-1.28h1.06c.5,0,.92-.07,1.28-.28.21-.14.35-.28.43-.57.07-.07.14-.43.14-1.77v-13.61c0-1.35-.07-1.77-.14-1.84-.07-.21-.28-.35-.5-.5-.28-.14-.71-.21-1.2-.21h-1.06v-1.28h11.55v1.28h-1.06c-.5,0-.92.07-1.28.28-.21.14-.35.28-.5.57,0,.07-.14.43-.14,1.77v13.54c0,1.35.07,1.77.14,1.84.07.21.28.35.5.5.28.14.71.21,1.2.21h1.06v1.28h-11.48v.07Z"/>
          <path id="path1040" class="cls-4" d="m206.39,58.68v.57h-.71c-.57,0-1.06.14-1.42.35-.28.14-.5.43-.64.71-.14.21-.14.92-.14,1.91v13.54c0,1.06.07,1.77.14,1.98.14.28.35.5.71.71s.78.28,1.35.28h.71v.57h-10.77v-.57h.71c.57,0,1.06-.14,1.49-.35.28-.14.5-.43.64-.71.14-.21.14-.92.14-1.91v-13.54c0-1.06-.07-1.77-.14-1.98-.14-.28-.35-.5-.71-.71s-.78-.28-1.42-.28h-.71v-.57h10.77m.78-.78h-12.33v2.13h1.49c.43,0,.78.07.99.21.21.14.28.21.35.35,0,0,.14.35.14,1.7v13.54c0,1.28-.07,1.63-.07,1.63-.07.21-.14.28-.28.35-.28.14-.64.21-1.06.21h-1.49v2.13h12.33v-2.13h-1.49c-.43,0-.78-.07-.99-.21-.21-.14-.35-.21-.35-.35,0,0-.14-.35-.14-1.7v-13.54c0-1.28.07-1.63.07-1.63.07-.21.14-.28.28-.35.28-.14.64-.21,1.06-.21h1.49v-2.13h0Z"/>
        </g>
        <g id="g1048">
          <path id="path1044" class="cls-5" d="m217.09,80.16c-3.83,0-6.8-1.35-8.93-3.9-1.63-2.06-2.48-4.54-2.48-7.3,0-3.19,1.06-5.81,3.26-7.94,2.06-1.98,4.54-2.98,7.44-2.98h1.06c3.12,0,5.74.99,7.73,2.98,2.13,2.13,3.19,4.75,3.19,7.94,0,2.69-.78,5.1-2.41,7.16-2.06,2.62-5.03,4.04-8.86,4.04Zm0-20.41c-1.77,0-3.05.85-3.97,2.69-.78,1.49-1.13,3.76-1.13,6.66,0,3.4.57,5.95,1.77,7.58.78,1.06,1.84,1.63,3.33,1.63.99,0,1.77-.21,2.41-.71.85-.57,1.49-1.56,1.91-2.91.5-1.35.71-3.19.71-5.46,0-2.69-.21-4.68-.71-5.95s-1.06-2.2-1.77-2.69c-.78-.64-1.63-.85-2.55-.85Z"/>
          <path id="path1046" class="cls-4" d="m217.44,58.33c3.05,0,5.53.99,7.44,2.91,2.06,2.06,3.05,4.61,3.05,7.65,0,2.62-.78,4.89-2.27,6.87-2.06,2.62-4.89,3.97-8.58,3.97s-6.59-1.28-8.65-3.76c-1.63-1.98-2.41-4.32-2.41-7.09,0-3.05,1.06-5.6,3.12-7.65,1.98-1.91,4.39-2.91,7.16-2.91h.5c.28,0,.5,0,.64,0m-.35,20.27c1.06,0,1.91-.28,2.62-.78.92-.64,1.56-1.7,2.06-3.12.5-1.42.78-3.26.78-5.6,0-2.69-.28-4.75-.78-6.1s-1.13-2.34-1.91-2.83c-.78-.57-1.7-.85-2.69-.85-1.91,0-3.33.99-4.32,2.91-.78,1.56-1.2,3.83-1.2,6.8,0,3.54.64,6.1,1.84,7.8.85,1.2,2.06,1.77,3.61,1.77m.35-21.05h-1.06c-3.05,0-5.6,1.06-7.73,3.12-2.2,2.2-3.33,4.96-3.33,8.22,0,2.91.85,5.46,2.55,7.58,2.2,2.69,5.32,4.04,9.21,4.04s7.02-1.42,9.21-4.25c1.63-2.13,2.48-4.61,2.48-7.37,0-3.26-1.13-6.02-3.33-8.22-2.06-2.06-4.75-3.12-8.01-3.12h0Zm-.35,20.27c-1.28,0-2.27-.5-2.98-1.42-1.13-1.56-1.7-4.04-1.7-7.37,0-2.83.35-4.96,1.13-6.45.85-1.63,2.06-2.48,3.61-2.48.85,0,1.63.21,2.27.71.64.5,1.2,1.28,1.63,2.48.5,1.28.71,3.26.71,5.88,0,2.2-.21,3.97-.71,5.32-.43,1.28-1.06,2.2-1.84,2.76-.57.35-1.28.57-2.13.57h0Z"/>
        </g>
      </g>
    </g>
    <path id="path1054" class="cls-4" d="m330.77,53.37c-16.02-16.02-33.1-26.86-47.77-35.44l-2.34-1.35-5.46,10.49c-5.39-2.98-13.75-7.23-24.81-11.48C231.97,8.5,202.49,0,166.56,0s-65.49,8.43-83.84,15.59c-11.06,4.25-19.42,8.5-24.81,11.48l-5.46-10.49-2.34,1.35c-14.67,8.5-31.82,19.42-47.84,35.44l-2.27,2.27,3.26.14,31.75,1.13.71,26.29.07,2.98,2.27-1.91,31.4-26.37.14-.14c1.13,1.28,2.13,2.48,3.05,3.54,4.68,5.32,5.1,5.32,5.81,5.32h.35l.35-.21c.43-.28,46.49-26.51,87.39-26.51s86.96,26.22,87.39,26.51l.35.21h.35c.71,0,1.13,0,5.81-5.32.92-1.06,1.98-2.27,3.05-3.54l.14.14,31.4,26.37,2.27,1.91.07-2.98.71-26.29,31.75-1.13,3.26-.14-2.34-2.27Z"/>
    <g id="g1062">
      <path id="path1056" class="cls-2" d="m166.56,1.42c-69.24,0-114.82,30.97-114.82,30.97,0,1.91,25.3,32.82,26.72,32.82,0,0,46.28-26.72,88.1-26.72s88.1,26.72,88.1,26.72c1.42,0,26.72-30.97,26.72-32.82,0,0-45.57-30.97-114.82-30.97Z"/>
      <path id="path1058" class="cls-2" d="m49.82,32.6l.92-13.47C34.16,28.85,18,39.55,3.26,54.36l33.1,1.2.71,27.64,31.4-26.37c-1.49-1.77-3.19-3.83-5.17-6.24-11.84-14.6-13.47-18-13.47-18Z"/>
      <path id="path1060" class="cls-2" d="m283.29,32.6s-1.63,3.4-13.47,17.93c-1.98,2.41-3.69,4.47-5.17,6.24l31.4,26.37.71-27.64,33.1-1.2c-14.74-14.74-30.9-25.51-47.49-35.22l.92,13.54Z"/>
    </g>
    <g id="g1120">
      <g id="g1118">
        <g id="g1068">
          <path id="path1064" class="cls-5" d="m81.36,52.66l.35-.14c.99-.43,1.42-.78,1.56-.92.21-.21.28-.5.28-.71,0-.14-.07-.57-.64-1.84l-5.46-12.26c-.57-1.28-.85-1.63-.92-1.7-.21-.14-.43-.21-.71-.28h0c-.28,0-.78.07-1.7.5l-.35.14-.5-1.13,9.36-4.18c2.2-.99,3.83-1.49,4.96-1.49h.07c1.06,0,2.13.28,2.98.85.92.57,1.56,1.35,1.98,2.27.43.99.5,2.06.14,3.12-.28.85-.92,1.7-1.84,2.55.64-.07,1.28-.14,1.77-.14.64,0,1.13.07,1.56.21,1.49.43,2.62,1.35,3.26,2.76.71,1.49.64,3.05-.14,4.61-.92,1.84-2.76,3.33-5.53,4.61l-9.92,4.39-.57-1.2Zm6.59-5.81l.28.71c.21.43.43.64.71.78.07.07.21.07.35.07h0c.21,0,.43-.07.71-.14.71-.28,1.28-.78,1.7-1.28.43-.57.71-1.2.71-1.91.07-.71-.07-1.42-.43-2.13-.35-.85-.92-1.49-1.56-1.98-.64-.43-1.28-.64-1.98-.64h-.14c-.71,0-1.7.35-2.91.85l2.55,5.67Zm-3.33-7.44c1.06-.5,1.84-.99,2.27-1.49.43-.5.71-1.06.78-1.7s-.07-1.35-.43-2.06c-.35-.78-.78-1.35-1.28-1.7-.5-.35-1.06-.5-1.77-.5v-.35.28c-.64,0-1.49.28-2.62.71l3.05,6.8Z"/>
          <path id="path1066" class="cls-4" d="m87.6,28.99c1.06,0,1.98.28,2.83.78.85.57,1.49,1.2,1.84,2.13.43.92.43,1.84.07,2.83s-1.28,2.06-2.69,3.26c1.13-.21,2.13-.35,2.98-.35.57,0,1.06.07,1.49.14,1.42.35,2.41,1.28,3.05,2.55.64,1.42.57,2.83-.14,4.25-.92,1.77-2.69,3.19-5.39,4.39l-9.57,4.25-.21-.5c.85-.35,1.42-.71,1.63-1.06.21-.28.35-.64.35-.92s-.21-.99-.64-1.98l-5.46-12.26c-.43-.99-.78-1.63-1.06-1.84-.21-.21-.57-.35-.92-.35h-.07c-.35,0-.99.21-1.84.57l-.21-.5,9.07-4.04c2.13-.99,3.76-1.49,4.82-1.49,0,.14.07.14.07.14m-3.19,10.84c1.35-.57,2.2-1.2,2.69-1.77.5-.57.78-1.2.85-1.91s-.07-1.42-.43-2.27-.85-1.42-1.42-1.84c-.57-.35-1.2-.57-1.98-.57h0c-.71,0-1.77.28-3.12.92l3.4,7.44m4.82,8.93c.28,0,.57-.07.85-.21.71-.35,1.35-.78,1.84-1.42s.78-1.28.78-2.06c.07-.78-.07-1.56-.43-2.34-.43-.85-.92-1.56-1.7-2.13-.64-.5-1.42-.71-2.13-.71h-.21c-.85.07-1.98.35-3.4.99l2.69,6.02.28.71c.21.5.5.85.92.99.21.07.35.14.5.14m-1.63-20.48h-.14c-1.2,0-2.83.5-5.1,1.56l-9.07,4.04-.64.28.28.64.21.5.28.64.64-.28c.99-.43,1.42-.5,1.56-.5.21,0,.43.07.57.14,0,0,.28.28.85,1.56l5.46,12.26c.57,1.35.64,1.63.64,1.7,0,.14-.07.35-.21.5-.07.07-.35.35-1.42.85l-.64.28.28.64.21.5.28.64.64-.28,9.57-4.25c2.83-1.28,4.75-2.83,5.67-4.75.85-1.63.85-3.26.14-4.89-.71-1.56-1.84-2.55-3.47-2.98-.5-.14-1.06-.21-1.7-.21h-.85c.64-.71.99-1.35,1.28-1.98.43-1.2.35-2.34-.14-3.4-.43-.99-1.13-1.77-2.13-2.41-.78-.5-1.84-.78-3.05-.78h0Zm-5.53,4.54c1.13-.5,1.77-.57,2.2-.57.64,0,1.13.14,1.56.5.43.28.85.85,1.13,1.56s.43,1.35.35,1.91-.28,1.06-.71,1.56c-.35.43-.92.85-1.84,1.28l-2.69-6.24h0Zm3.76,8.5c.99-.43,1.84-.64,2.48-.71h.14c.64,0,1.2.21,1.77.57.64.43,1.06,1.06,1.42,1.84.28.64.43,1.35.35,1.98s-.28,1.2-.64,1.7c-.43.5-.92.92-1.56,1.2-.21.07-.43.14-.57.14h-.21c-.21-.07-.35-.28-.5-.57l-.28-.71-2.41-5.46h0Z"/>
        </g>
        <g id="g1074">
          <path id="path1070" class="cls-5" d="m98.37,45.01l.99-.35c.5-.14.85-.43,1.13-.64.14-.14.21-.35.28-.71,0-.14,0-.5-.43-1.7l-4.39-12.83c-.35-1.13-.57-1.42-.57-1.56-.14-.21-.35-.35-.57-.43-.14-.07-.28-.07-.5-.07-.28,0-.57.07-.92.21l-.99.35-.43-1.2,17.01-5.88,2.2,6.45-1.13.43-.14-.28c-.71-1.28-1.42-2.13-2.13-2.48-.64-.35-1.35-.57-2.2-.57h-.21c-.57,0-1.56.28-2.98.78l-1.7.57,2.48,7.3h.07c1.13-.43,1.84-.99,2.06-1.84.28-.92.21-2.13-.14-3.61l-.07-.28,1.2-.43,3.76,10.91-1.2.43-.14-.28c-.5-.99-.99-1.84-1.56-2.34s-1.06-.85-1.56-.92h-.28c-.43,0-.92.07-1.49.28l1.77,5.17c.5,1.42.71,1.7.78,1.84.14.14.28.21.5.28h.21c.21,0,.57-.07.92-.21l1.13-.43c1.77-.57,2.98-1.49,3.76-2.62.78-1.13,1.06-2.62.99-4.47v-.28l1.2-.43,1.42,7.23-17.51,6.02-.64-1.42Z"/>
          <path id="path1072" class="cls-4" d="m108.65,20.62l1.98,5.74-.57.21c-.78-1.35-1.49-2.2-2.2-2.62-.64-.43-1.49-.64-2.41-.64h-.21c-.57,0-1.63.28-3.12.78l-1.98.71,2.76,7.94.35-.14c1.2-.43,1.98-1.13,2.27-2.13s.21-2.27-.14-3.83l.57-.21,3.54,10.21-.57.21c-.5-1.06-1.06-1.91-1.7-2.48s-1.2-.92-1.77-.99h-.35c-.5,0-1.13.14-1.91.35l1.91,5.53c.35,1.06.64,1.7.85,1.91.14.21.43.35.71.43h.28c.28,0,.64-.07.99-.21l1.13-.43c1.84-.64,3.12-1.56,3.97-2.76.78-1.2,1.13-2.76,1.06-4.68l.57-.21,1.28,6.52-16.87,5.81-.21-.57.64-.21c.57-.21.99-.43,1.28-.78.21-.21.28-.5.35-.92,0-.28-.14-.92-.5-1.84l-4.39-12.83c-.28-.85-.5-1.42-.64-1.63-.21-.28-.5-.5-.78-.57-.21-.07-.35-.07-.57-.07-.28,0-.64.07-1.06.21l-.64.21-.21-.57,16.3-5.46m.43-.92l-.64.21-16.3,5.6-.64.21.21.64.21.57.21.64.64-.21.64-.21c.28-.07.57-.14.85-.14.14,0,.28,0,.35.07.21.07.28.14.43.35,0,0,.14.21.57,1.42l4.39,12.83c.43,1.2.43,1.56.43,1.56,0,.21-.07.35-.14.5-.21.21-.5.43-.99.57l-.64.21-.64.21.21.64.21.57.21.64.64-.21,16.87-5.81.57-.21-.14-.64-1.28-6.52-.14-.78-.78.28-.57.21-.5.14v.57c.07,1.7-.21,3.12-.92,4.25-.71,1.06-1.91,1.91-3.61,2.48l-1.13.43c-.43.14-.64.14-.78.14h-.14c-.21-.07-.28-.14-.35-.14,0-.07-.21-.28-.71-1.7l-1.63-4.82c.35-.07.71-.14.99-.14h.28c.43.07.92.35,1.42.78.57.5,1.06,1.28,1.49,2.27l.28.57.64-.14.57-.21.64-.21-.21-.64-3.54-10.21-.21-.64-.64.21-.57.21-.64.21.14.64c.35,1.42.35,2.62.14,3.47-.21.64-.71,1.2-1.56,1.49l-2.27-6.59,1.35-.5c1.77-.57,2.55-.71,2.91-.78h.21c.78,0,1.49.14,2.06.5.64.35,1.28,1.2,1.98,2.41l.28.5.57-.21.57-.21.64-.21-.21-.64-1.98-5.74-.28-.71h0Z"/>
        </g>
        <g id="g1080">
          <path id="path1076" class="cls-5" d="m117.3,38.06l.35-.07c.99-.28,1.63-.64,1.91-1.06.28-.5.28-1.2.07-2.13l-3.4-14.1-.43-.35c-.5-.43-.92-.64-1.28-.71-.14,0-.28-.07-.43-.07-.28,0-.57,0-.85.07l-.35.07-.28-1.2,7.65-1.84,12.26,9.57-1.84-7.65c-.35-1.42-.71-1.91-.99-2.13s-.71-.35-1.2-.35c-.35,0-.71.07-1.06.14l-.35.07-.28-1.28,7.3-1.77.28,1.2-.28.14c-.99.35-1.35.64-1.49.78-.21.21-.28.43-.35.78-.07.28-.07.78.21,1.91l4.11,17.08-.99.21-16.94-12.97,2.83,11.77c.28,1.06.64,1.7,1.13,1.91.35.14.71.21,1.06.21.21,0,.43,0,.64-.07l.85-.21.28,1.2-7.8,1.84-.35-.99Z"/>
          <path id="path1078" class="cls-4" d="m133.81,13.82l.14.57c-.85.28-1.35.57-1.63.85-.28.21-.43.57-.5.99-.07.43,0,1.13.21,2.06l4.04,16.73-.5.14-17.58-13.47,3.05,12.76c.28,1.13.71,1.84,1.35,2.13.43.14.78.28,1.2.28.21,0,.5,0,.78-.07l.5-.14.14.57-7.16,1.7-.14-.57c1.13-.28,1.84-.71,2.13-1.2.35-.57.35-1.35.14-2.41l-3.4-14.17-.57-.43c-.57-.43-.99-.71-1.35-.78-.14-.07-.35-.07-.5-.07-.28,0-.57.07-.99.14l-.14-.57,7.16-1.7,12.9,10.06-2.06-8.65c-.28-1.2-.64-1.98-1.13-2.34-.35-.28-.85-.43-1.42-.43-.35,0-.78.07-1.2.14l-.14-.57,6.66-1.56m.5-.85l-.71.14-6.66,1.56-.71.14.14.71.14.57.14.71.71-.21c.35-.07.71-.14.99-.14.43,0,.71.07.99.28.14.07.5.5.85,1.91l1.63,6.66-11.34-8.86-.28-.21-.35.07-7.16,1.7-.71.14.14.71.14.57.14.64.64-.14c.28-.07.57-.07.78-.07h.35c.14.07.5.14,1.13.64l.35.28,3.33,13.96c.21.85.21,1.49,0,1.91-.14.28-.57.64-1.7.92l-.71.14.14.71.14.57.14.71.71-.14,7.16-1.7.71-.14-.14-.71-.14-.57-.14-.71-.71.14-.5.14c-.21.07-.43.07-.57.07-.28,0-.64-.07-.92-.21-.43-.21-.71-.78-.92-1.7l-2.62-10.84,16.02,12.26.28.21.35-.07.5-.14.71-.14-.14-.71-4.04-16.73c-.28-1.13-.28-1.63-.21-1.77.07-.28.14-.5.28-.64.07-.07.35-.28,1.35-.71l.57-.21-.14-.64-.14-.57v-.5h0Z"/>
        </g>
        <g id="g1086">
          <path id="path1082" class="cls-5" d="m137.36,33.24l1.06-.14c.5-.07.92-.21,1.2-.43.21-.14.28-.35.35-.64,0-.07.07-.5-.07-1.77l-1.77-13.47c-.14-1.2-.21-1.49-.28-1.63-.14-.28-.28-.43-.5-.57-.28-.14-.57-.21-.92-.21h-.5l-1.06.14-.14-1.28,17.86-2.34.85,6.73-1.2.14-.07-.28c-.5-1.35-.99-2.34-1.56-2.91-.57-.5-1.35-.85-2.27-1.06-.21,0-.43-.07-.71-.07-.57,0-1.42.07-2.34.21l-1.77.21.99,7.65h.07c1.2-.14,1.98-.64,2.41-1.42.43-.85.64-2.06.64-3.54v-.35l1.28-.14,1.35,11.55-1.28.14-.07-.28c-.28-1.13-.64-1.98-1.06-2.62s-.92-1.06-1.35-1.2c-.28-.07-.64-.14-1.06-.14h-.64l.71,5.39c.21,1.49.35,1.84.35,1.91.07.14.21.28.43.43.07.07.28.07.57.07.14,0,.35,0,.57-.07l1.2-.14c1.84-.21,3.26-.85,4.25-1.84.99-.99,1.63-2.41,1.84-4.18l.07-.28,1.2-.14-.07,7.37-18.43,2.41-.14-1.2Z"/>
          <path id="path1084" class="cls-4" d="m152.31,11.41l.78,6.02-.57.07c-.5-1.42-1.06-2.48-1.63-3.05-.64-.57-1.42-.92-2.41-1.13-.21-.07-.5-.07-.78-.07-.57,0-1.42.07-2.41.21l-2.13.28,1.06,8.36.43-.07c1.28-.14,2.2-.71,2.69-1.56.5-.92.71-2.13.64-3.76l.57-.07,1.42,10.7-.57.07c-.28-1.13-.64-2.06-1.13-2.76-.5-.71-.99-1.13-1.56-1.35-.35-.14-.71-.14-1.2-.14-.35,0-.71,0-1.06.07l.78,5.74c.14,1.13.28,1.84.43,2.06.14.21.35.43.64.57.14.07.43.14.71.14.14,0,.35,0,.57-.07l1.2-.14c1.91-.28,3.4-.92,4.39-1.91,1.06-1.06,1.7-2.48,1.98-4.39l.57-.07-.07,6.66-17.72,2.34-.07-.57.71-.07c.57-.07,1.06-.21,1.42-.5.21-.14.43-.43.5-.78.07-.28.07-.92-.07-1.91l-1.77-13.47c-.14-.92-.21-1.49-.28-1.7-.14-.35-.35-.57-.64-.71s-.71-.28-1.13-.28h-.5l-.71.07-.07-.57,17.01-2.27m.57-.85l-.71.07-17.15,2.2-.71.07.07.71.07.57.07.71.71-.07.71-.07h.43c.28,0,.57.07.78.14.14.07.28.21.35.43,0,0,.07.28.21,1.49l1.77,13.47c.14,1.28.14,1.63.07,1.63-.07.21-.14.35-.21.43-.28.21-.64.28-1.06.35l-.71.07-.71.07.07.71.07.57.07.71.71-.07,17.72-2.34.64-.07v-.64l.07-6.66v-.85l-.78.07-.57.07-.57.07-.07.57c-.21,1.7-.85,3.05-1.77,3.97s-2.27,1.49-4.04,1.7l-1.2.14c-.21,0-.35.07-.5.07-.28,0-.35-.07-.43-.07-.21-.07-.28-.14-.28-.21s-.14-.35-.35-1.77l-.64-5.03h.28c.43,0,.71.07.99.14.43.14.78.5,1.2,1.06.43.64.78,1.49.99,2.55l.14.64.64-.07.57-.07.71-.07-.07-.71-1.42-10.7-.07-.71-.71.07-.57.07-.64.07v.64c.07,1.49-.14,2.62-.57,3.4-.35.64-.92.99-1.84,1.2l-.92-6.95,1.42-.21c.99-.14,1.77-.21,2.34-.21.28,0,.5,0,.64.07.85.14,1.56.5,2.06.92.5.5.99,1.42,1.49,2.76l.21.57.57-.07.57-.07.71-.07-.07-.71-.78-6.02v-.71h0Z"/>
        </g>
        <g id="g1092">
          <path id="path1088" class="cls-5" d="m158.76,15.73c-1.06-2.41-1.49-3.19-1.7-3.4-.21-.28-.71-.43-1.42-.5h-.28v-1.2l10.63-.14v1.28h-.71c-.99,0-1.42.14-1.63.28-.14.07-.21.21-.21.35s.07.35.14.57c.07.21.35.92.85,1.98l4.18,9.5,3.69-8.43c.5-1.06.78-1.84.85-2.2.07-.35.14-.64.14-.85s-.07-.43-.21-.64c-.14-.14-.28-.28-.57-.43-.35-.14-.92-.21-1.49-.21h-.43v-1.28l7.51-.07v1.2l-.28.07c-.64.14-1.28.5-1.77,1.13-.43.5-.99,1.63-1.84,3.54l-7.02,16.09h-.99l-7.44-16.66Z"/>
          <path id="path1090" class="cls-4" d="m177.61,10.63v.57c-.78.14-1.42.57-1.98,1.2-.43.5-1.06,1.7-1.84,3.61l-6.95,15.88h-.5l-7.23-16.3c-.85-1.98-1.49-3.12-1.77-3.47s-.85-.57-1.63-.64v-.57l9.92-.14v.57h-.35c-.92,0-1.49.14-1.84.35-.21.14-.35.35-.35.71,0,.21.07.43.14.64.07.21.35.92.85,1.98l4.54,10.21,3.97-9.21c.5-1.13.78-1.84.85-2.27.14-.35.14-.71.14-.99s-.07-.57-.28-.78c-.14-.21-.43-.43-.71-.5-.43-.14-.99-.21-1.63-.21h-.07v-.57l6.73-.07m.71-.71h-.71l-6.8.07h-.71v1.98h.78c.57,0,1.06.07,1.42.21.21.07.28.14.43.28.07.14.14.21.14.43s-.07.43-.14.78c-.07.21-.28.78-.85,2.13l-3.33,7.73-3.83-8.72c-.57-1.35-.78-1.77-.85-1.91-.07-.21-.07-.35-.07-.43v-.07h0c.07-.07.35-.21,1.42-.21h1.06v-1.98h-.71l-9.92.14h-.71v1.91l.64.07c.85.07,1.13.28,1.2.43.14.14.5.71,1.63,3.26l7.23,16.37.21.43h1.42l.21-.43,6.95-15.88c.99-2.27,1.49-3.12,1.77-3.4.5-.57.99-.85,1.56-.99l.57-.07v-2.13h0Z"/>
        </g>
        <g id="g1098">
          <path id="path1094" class="cls-5" d="m176.27,31.68l.14-1.28,1.06.14h.43c.35,0,.64-.07.85-.14.21-.07.35-.28.5-.5.07-.07.21-.43.35-1.77l1.49-13.54c.14-1.2.14-1.56.14-1.63-.07-.28-.14-.5-.35-.64-.28-.28-.78-.43-1.35-.5l-1.06-.14.14-1.28,17.86,1.98-.78,6.8-1.2-.14v-.28c-.14-1.42-.43-2.48-.85-3.19-.43-.64-1.06-1.13-1.91-1.56-.5-.21-1.56-.43-3.05-.57l-1.77-.21-.85,7.65h.64c.92,0,1.63-.28,2.13-.85.64-.71,1.13-1.84,1.42-3.33l.07-.28,1.28.14-1.28,11.48-1.28-.14v-.35c0-1.13-.14-2.06-.43-2.83-.28-.71-.64-1.2-1.06-1.49-.35-.21-.92-.43-1.7-.57l-.57,5.46c-.14,1.49-.14,1.84-.07,1.98.07.21.14.35.35.5.14.07.43.21,1.06.28l1.2.14c.43.07.78.07,1.13.07,1.35,0,2.48-.28,3.4-.85,1.2-.71,2.13-1.91,2.76-3.61l.07-.28,1.2.14-1.84,7.09-18.29-1.91Z"/>
          <path id="path1096" class="cls-4" d="m178.89,10.84l17.15,1.91-.64,6.1-.57-.07c-.14-1.49-.43-2.62-.85-3.33s-1.13-1.28-2.13-1.7c-.57-.21-1.56-.43-3.12-.64l-2.13-.21-.92,8.29.43.07h.57c.99,0,1.77-.28,2.34-.92.71-.78,1.2-1.91,1.49-3.47l.57.07-1.06,10.7-.57-.07c0-1.2-.14-2.2-.43-2.98-.28-.78-.71-1.35-1.2-1.63-.5-.28-1.2-.5-2.2-.64l-.64,5.81c-.14,1.13-.14,1.84-.07,2.06.07.28.21.5.5.71.21.21.64.28,1.28.35l1.2.14c.43.07.85.07,1.2.07,1.42,0,2.55-.28,3.54-.92,1.28-.78,2.27-2.06,2.91-3.76l.57.07-1.63,6.45-17.72-1.98.07-.57.71.07h.5c.35,0,.71-.07.99-.21s.5-.35.71-.64c.14-.21.28-.85.35-1.91l1.49-13.54c.07-.92.14-1.49.14-1.7-.07-.35-.21-.64-.5-.85-.35-.35-.85-.5-1.56-.57l-.71-.07-.07-.5m-.57-.85l-.07.71-.07.57-.07.71.71.07.71.07c.5.07.92.21,1.13.43.14.14.21.28.28.5,0,0,0,.28-.14,1.49l-1.49,13.54c-.14,1.28-.28,1.56-.28,1.63-.14.21-.21.28-.35.35-.21.07-.43.14-.71.14h-.43l-.71-.07-.71-.07-.07.71-.07.57-.07.71.71.07,17.72,1.98.64.07.14-.57,1.63-6.45.21-.78-.78-.07-.57-.07-.57-.07-.21.5c-.64,1.63-1.56,2.76-2.62,3.47-.85.5-1.91.78-3.19.78-.35,0-.71,0-1.13-.07l-1.2-.14c-.64-.07-.85-.21-.85-.21-.14-.14-.21-.21-.21-.28s-.07-.35.07-1.84l.57-5.03c.64.14.99.28,1.2.43.35.21.64.71.92,1.35.28.71.43,1.63.43,2.69v.64l.64.07.57.07.71.07.07-.71,1.2-10.77.07-.71-.71-.07-.57-.07-.64-.07-.14.64c-.28,1.42-.78,2.48-1.35,3.19-.43.5-1.06.71-1.84.71h-.21l.78-6.95,1.42.14c1.84.21,2.62.43,2.91.57.78.35,1.42.85,1.77,1.42.43.64.64,1.63.78,2.98l.07.57.57.07.57.07.71.07.07-.71.64-6.1.07-.71-.71-.07-17.15-1.91-.78-.21h0Z"/>
        </g>
        <g id="g1104">
          <path id="path1100" class="cls-5" d="m213.76,38.63l-9.57-19.07-2.62,11.84c-.21,1.06-.14,1.77.21,2.2.43.5.85.78,1.49.92l.85.21-.28,1.28-7.87-1.7.28-1.2.35.07c.43.07.78.14,1.13.14.43,0,.78-.07,1.06-.28.43-.28.78-.92.99-1.91l3.12-14.1-.28-.5c-.28-.57-.57-.99-.78-1.2-.21-.21-.64-.35-1.2-.5l-.35-.07.28-1.2,7.65,1.7,6.8,13.96,1.7-7.65c.28-1.42.21-2.06.07-2.34-.28-.57-.92-.99-1.98-1.2l-.35-.07.28-1.28,7.37,1.63-.28,1.2h-.28c-.35,0-.64-.07-.92-.07-.43,0-.64.07-.71.07-.28.07-.5.28-.71.57-.14.21-.35.71-.64,1.84l-3.83,17.01-.99-.28Z"/>
          <path id="path1102" class="cls-4" d="m200.86,13.82l7.16,1.56,7.16,14.67,1.91-8.65c.28-1.2.28-2.06,0-2.55-.35-.71-1.06-1.13-2.2-1.35l.14-.57,6.66,1.49-.14.57c-.35,0-.71-.07-.99-.07-.35,0-.64,0-.85.07-.35.14-.64.35-.85.71-.28.35-.5.99-.71,1.98l-3.69,16.8-.5-.14-9.92-19.77-2.83,12.83c-.28,1.13-.14,1.98.28,2.55.43.5.99.85,1.7.99l.5.07-.14.57-7.16-1.56.14-.57c.43.07.85.14,1.2.14.5,0,.92-.07,1.28-.28.57-.35.92-1.06,1.13-2.13l3.12-14.25-.28-.64c-.28-.64-.64-1.06-.92-1.28s-.71-.43-1.35-.57l.14-.64m-.5-.85l-.14.71-.14.57-.14.64.64.14c.64.14.92.35,1.06.43s.35.35.71,1.06l.21.43-3.12,13.96c-.21.85-.5,1.42-.85,1.7-.21.14-.5.21-.85.21-.28,0-.64-.07-1.06-.14l-.71-.14-.14.71-.14.57-.14.71.71.14,7.16,1.56.71.14.14-.71.14-.57.14-.71-.71-.14-.5-.07c-.57-.14-.92-.35-1.28-.78-.28-.35-.35-.99-.14-1.91l2.41-10.84,9,18,.14.28.35.07.5.14.71.14.14-.71,3.69-16.8c.21-1.13.5-1.56.57-1.7.14-.21.35-.35.5-.43.07,0,.21-.07.64-.07.28,0,.57,0,.92.07l.64.07.14-.64.14-.57.14-.71-.71-.14-6.66-1.49-.71-.14-.14.71-.14.57-.14.71.71.14c.92.21,1.49.5,1.7.99.07.14.21.71-.07,2.13l-1.49,6.66-6.31-12.9-.14-.28-.35-.07-7.16-1.56-.57-.14h0Z"/>
        </g>
        <g id="g1110">
          <path id="path1106" class="cls-5" d="m220.14,39.97l.43-1.2.99.35c.35.14.64.14.92.14h.35c.21-.07.43-.14.64-.43.07-.07.28-.35.71-1.63l4.82-14.81-1.06-.35c-.71-.21-1.28-.35-1.77-.35-.43,0-.78.07-1.06.21-.99.5-1.84,1.35-2.48,2.69l-.14.28-1.2-.35,1.98-5.95,18.29,5.95-1.98,5.95-1.13-.35v-.28c.07-1.28.07-2.27-.14-2.83-.21-.57-.57-1.13-1.06-1.63-.21-.14-.64-.43-1.7-.78l-1.13-.35-4.89,14.74c-.43,1.28-.43,1.7-.43,1.77,0,.21.14.43.35.64.21.21.57.43,1.06.64l.99.35-.43,1.2-10.91-3.61Z"/>
          <path id="path1108" class="cls-4" d="m223.33,18.92l17.65,5.74-1.7,5.32-.5-.14c.07-1.35.07-2.34-.14-2.98-.21-.64-.57-1.28-1.13-1.77-.28-.28-.92-.57-1.84-.92l-1.49-.5-4.96,15.17c-.35.99-.5,1.63-.43,1.91,0,.28.14.57.43.85s.64.57,1.2.71l.64.21-.14.57-10.28-3.33.14-.57.64.21c.35.14.71.21,1.06.21.14,0,.28,0,.43-.07.28-.07.57-.21.85-.5.21-.21.43-.78.78-1.77l4.96-15.17-1.42-.5c-.71-.21-1.35-.35-1.91-.35-.5,0-.85.07-1.28.28-1.06.5-1.98,1.42-2.69,2.83l-.57-.21,1.7-5.24m-.43-.85l-.21.71-1.7,5.32-.21.71.71.21.57.21.57.21.28-.57c.64-1.2,1.42-2.06,2.34-2.48.28-.14.57-.21.92-.21.5,0,1.06.14,1.7.28l.71.21-4.75,14.46c-.43,1.28-.57,1.49-.64,1.49-.14.14-.28.28-.43.28h-.28c-.21,0-.5-.07-.85-.14l-.64-.21-.71-.21-.21.71-.14.57-.21.64.64.21,10.28,3.33.71.21.21-.71.14-.57.21-.64-.64-.21-.64-.21c-.43-.14-.78-.28-.92-.5-.14-.14-.21-.35-.28-.5,0,0,0-.35.43-1.63l4.75-14.46.78.28c1.06.35,1.42.64,1.56.71.5.43.78.92.92,1.49.14.57.21,1.49.14,2.69l-.07.57.5.14.5.14.71.21.21-.71,1.7-5.32.21-.71-.71-.21-17.65-5.74-.5-.07h0Z"/>
        </g>
        <g id="g1116">
          <path id="path1112" class="cls-5" d="m248.84,50.39c-1.56,0-3.19-.35-4.82-1.06-3.47-1.49-5.74-3.9-6.59-7.16-.71-2.55-.5-5.1.64-7.65,1.28-2.91,3.33-4.89,6.1-5.95,1.2-.5,2.48-.71,3.76-.71,1.56,0,3.19.35,4.75,1.13,3.12,1.2,5.24,3.26,6.38,6.02s1.06,5.67-.21,8.5c-1.06,2.48-2.76,4.32-5.03,5.6-1.56.78-3.19,1.28-4.96,1.28Zm1.63-20.27c-.99,0-2.06.43-3.05,1.28-1.35,1.06-2.55,2.98-3.69,5.67-1.35,3.12-1.84,5.74-1.42,7.65.28,1.35,1.06,2.27,2.41,2.83.64.28,1.2.43,1.77.43h0c.21,0,.5,0,.71-.07.99-.21,1.98-.85,2.98-1.91.99-1.06,1.91-2.69,2.83-4.75,1.06-2.48,1.63-4.39,1.7-5.81.07-1.35-.14-2.41-.57-3.19-.43-.78-1.13-1.35-1.98-1.7-.57-.28-1.13-.43-1.7-.43Z"/>
          <path id="path1114" class="cls-4" d="m247.92,28.14c1.56,0,3.05.35,4.61,1.13,3.05,1.2,5.1,3.12,6.24,5.81,1.06,2.69.99,5.46-.21,8.22-1.06,2.41-2.69,4.18-4.89,5.46-1.49.85-3.12,1.28-4.75,1.28-1.49,0-3.05-.35-4.68-1.06-3.4-1.49-5.53-3.76-6.38-6.87-.71-2.48-.5-4.96.64-7.44,1.2-2.83,3.19-4.75,5.95-5.81,1.06-.5,2.27-.71,3.47-.71m-1.42,20.2c.28,0,.57,0,.78-.07,1.06-.21,2.13-.92,3.12-2.06s1.98-2.69,2.91-4.82c1.06-2.48,1.7-4.47,1.77-5.95.07-1.42-.14-2.55-.64-3.4-.5-.85-1.2-1.42-2.13-1.84-.64-.28-1.2-.43-1.84-.43-1.13,0-2.2.43-3.26,1.35-1.35,1.13-2.62,3.05-3.83,5.81-1.42,3.26-1.84,5.88-1.42,7.94.35,1.42,1.2,2.41,2.62,3.05.64.28,1.28.43,1.91.43m1.42-20.91c-1.28,0-2.62.28-3.9.71-2.91,1.13-5.03,3.19-6.31,6.17-1.13,2.62-1.35,5.32-.64,7.94.92,3.33,3.19,5.81,6.8,7.37,1.7.71,3.4,1.13,4.96,1.13,1.77,0,3.47-.43,5.1-1.35,2.34-1.28,4.04-3.26,5.17-5.74,1.28-2.98,1.35-5.95.21-8.79s-3.33-4.96-6.59-6.24c-1.56-.85-3.19-1.2-4.82-1.2h0Zm-1.42,20.2c-.5,0-1.06-.14-1.63-.35-1.2-.5-1.91-1.35-2.2-2.55-.43-1.91,0-4.39,1.35-7.44,1.13-2.62,2.34-4.47,3.61-5.53.92-.78,1.91-1.2,2.83-1.2.5,0,.99.14,1.56.35.78.35,1.42.85,1.84,1.56s.64,1.7.57,2.98c-.07,1.35-.64,3.26-1.7,5.67-.85,2.06-1.84,3.61-2.76,4.61s-1.84,1.63-2.76,1.84c-.28,0-.5.07-.71.07h0Z"/>
        </g>
      </g>
    </g>
  </g>
</svg>