<?xml version="1.0" encoding="UTF-8"?>
<svg id="Layer_2" data-name="Layer 2" xmlns="http://www.w3.org/2000/svg" xmlns:xlink="http://www.w3.org/1999/xlink" viewBox="0 0 599.65 600.17">
  <defs>
    <style>
      .cls-1 {
        stroke: #231f20;
        stroke-width: .17px;
      }

      .cls-1, .cls-2 {
        fill: none;
      }

      .cls-3 {
        clip-path: url(#clippath);
      }

      .cls-2, .cls-4, .cls-5, .cls-6, .cls-7, .cls-8, .cls-9, .cls-10, .cls-11, .cls-12, .cls-13, .cls-14 {
        stroke-width: 0px;
      }

      .cls-15 {
        clip-path: url(#clippath-1);
      }

      .cls-16 {
        clip-path: url(#clippath-3);
      }

      .cls-17 {
        clip-path: url(#clippath-2);
      }

      .cls-4 {
        fill: #f4be76;
      }

      .cls-5 {
        fill: #231f20;
      }

      .cls-6 {
        fill: #117a39;
      }

      .cls-7 {
        fill: #c94823;
      }

      .cls-8 {
        fill: #c92028;
      }

      .cls-9 {
        fill: #ca5121;
      }

      .cls-10 {
        fill: #bdbcbc;
      }

      .cls-11 {
        fill: #a6cbe2;
      }

      .cls-12 {
        fill: #8bbbb8;
      }

      .cls-13 {
        fill: #fff;
      }

      .cls-14 {
        fill: #f28716;
      }
    </style>
    <clipPath id="clippath">
      <path class="cls-2" d="m223.19,324.36v77.61c0,8.06,1.8,14.02,5.09,16.8,2.48,2.1,24.23,15.24,40.1,24.84,10.27,6.21,18.38,11.11,20,12.22l.87.61c3.47,2.41,6.47,4.5,9.14,4.5s5.67-2.08,9.14-4.5l.87-.61c1.62-1.12,9.73-6.01,19.99-12.22,15.88-9.6,37.62-22.73,40.1-24.84,3.28-2.77,5.09-8.74,5.09-16.8v-77.61h-150.39Z"/>
    </clipPath>
    <clipPath id="clippath-1">
      <path class="cls-2" d="m294.38,225.72c-.96,1.6-2.24,5.13-5.13,8.33-2.88,3.21-3.52,6.73-3.52,6.73,0,0,0,1.6.32,3.53.32,1.93,0,2.89-3.53,3.85-3.53.96-3.85,1.6-7.05,5.13-3.2,3.52-4.17,8.33-4.17,8.33l2.24,2.89.96-3.53,1.92-.31.64,3.52s.96,2.56,3.52,4.81c2.56,2.24,3.21-.96,5.13-1.28,1.92-.32,4.48,0,4.48,0,0,0,.96-2.56,2.89-2.56s.96,2.88.96,2.88c0,0,1.28,0,4.17-.32,2.88-.32,4.48-2.24,4.48-2.24,0,0,0-1.92,1.6-2.56,1.6-.64,2.56,1.93,2.56,1.93l2.56-1.93s.64-.64,1.29-1.92c.64-1.28,3.84-3.53,3.84-3.53l.96-3.53-2.56,2.24s-.96-1.28-.32-4.48c.64-3.2-1.28-4.49-3.53-8.33-2.25-3.84-3.85-5.77-5.77-8.65-1.92-2.88-4.17-7.05-4.81-9.29-.29-1-.91-1.43-1.62-1.43-.89,0-1.9.67-2.55,1.75"/>
    </clipPath>
    <clipPath id="clippath-2">
      <path class="cls-2" d="m274.19,199.45s-.64,1.28-1.6,2.88c-.96,1.6-1.28,3.53-3.21,4.49-1.93.96-3.84,4.8-3.84,4.8,0,0,.96.96,4.17,1.6,3.2.64,4.48,1.28,6.73,1.6,2.24.32,4.81.32,6.09,1.6,1.29,1.28,1.29,4.17,1.29,4.17l-1.92.32-1.61-1.6-17.3,1.28s0,2.88,1.92,7.69c1.92,4.8,5.45,5.77,5.45,5.77l3.84-.64-.96,1.92,7.37,2.88,13.78-19.87s1.92,1.6,5.13,1.6,6.41-1.29,6.41-4.8-3.85-4.81-6.09-5.45c-2.24-.64-3.53,3.21-3.53,3.21,0,0,1.6-.64,2.56-.96s2.24.96,3.84,2.56.32,2.56-1.28,3.85c-1.6,1.28-5.45,0-5.45,0l-1.6-2.88-3.2-.96s-1.28-1.6-2.24-4.81c-.96-3.2-1.92-4.17-1.92-4.17l-2.88.65-1.92-1.29,2.24-1.92s-1.28-1.28-4.49-2.88c-1.46-.73-2.78-.93-3.79-.93-1.21,0-1.98.29-1.98.29"/>
    </clipPath>
    <clipPath id="clippath-3">
      <path class="cls-2" d="m288.93,188.23c-1.92.64-6.73,7.37-6.73,7.37,0,0,3.53,2.56,6.41,5.13,2.89,2.56,4.81,5.77,4.81,5.77,0,0,3.2-1.6,7.69-1.28,4.48.32,6.73,3.85,8.01,6.73,1.28,2.89-.32,6.41-1.92,8.97-1.61,2.56-4.17,2.89-4.17,2.89,0,0,2.24,5.13,5.13,8.97,2.88,3.84,4.8,7.05,4.8,7.05,0,0-.31-2.89-1.28-5.45-.96-2.56-2.56-7.05-.96-12.81,1.6-5.77.32-16.35-.64-18.27-.96-1.93-1.92-3.53-.96-4.81.96-1.28,2.24,1.28,3.84,4.49,1.6,3.21,2.25,8.97.96,14.42-1.28,5.45-1.6,12.82.31,16.66,1.93,3.85,4.81,8.65,6.73,12.5,1.92,3.85,2.88,7.05,2.88,7.05h2.88s-1.6-2.88-3.2-7.05c-1.6-4.17-4.81-7.69-6.73-13.78-1.92-6.09-1.28-13.46.32-22.75,1.6-9.29-4.48-17.94-8.65-19.86-3.13-1.45-11.49-2.16-16.28-2.16-1.59,0-2.79.08-3.27.24"/>
    </clipPath>
  </defs>
  <g id="Layer_1-2" data-name="Layer 1">
    <path class="cls-7" d="m300.42,513.81c16.34,0,25.58-4.81,35.19-11.22,9.62-6.41,16.67-10.89,27.88-16.99,11.22-6.08,25-4.8,26.28-.64,1.14,3.7,0,2.89-3.2,4.17-3.21,1.28-4.49,1.6-6.73.64-2.24-.96-5.13-.96-8.01-.32-2.88.65-2.24,3.52-1.92,5.45.31,1.92,0,3.21-1.29,6.41-1.28,3.2,1.6,4.16,1.6,4.16,0,0-2.88-.96-6.73-2.88-3.84-1.93-3.2-3.53-6.09-6.09-2.88-2.57-2.56,2.24-.96,4.17,1.6,1.93,2.25,2.56.32,5.77-1.92,3.21.96,9.62,4.17,11.22,3.2,1.6,6.09.32,9.93-1.6,3.84-1.92,5.45-.32,9.29-2.88,3.84-2.56,2.89-5.13.96-8.65-1.92-3.52,3.21-3.52,6.09-2.89,2.89.64,5.13.97,9.29-.64,4.17-1.6,5.77-5.77,5.77-11.86s2.56-10.25,5.13-14.1c2.56-3.85,5.13-2.88,7.05-4.16,1.93-1.28-1.6-3.2-3.2-5.77-1.6-2.56-5.13-6.09-8.33-5.44-3.2.64-5.77,1.28-9.29,0-3.52-1.28-13.14-2.24-24.99-1.6-11.86.64-26.92,7.37-36.21,15.7-9.29,8.34-15.33,16.02-31.99,16.02s-22.7-7.68-31.99-16.02c-9.29-8.33-24.35-15.06-36.21-15.7-11.86-.64-21.47.32-25,1.6-3.53,1.28-6.09.64-9.29,0-3.2-.64-6.73,2.88-8.33,5.44-1.6,2.57-5.13,4.49-3.21,5.77,1.93,1.28,4.49.31,7.05,4.16,2.56,3.85,5.13,8.01,5.13,14.1s1.6,10.26,5.77,11.86c4.17,1.6,6.41,1.28,9.29.64,2.88-.64,8.01-.64,6.09,2.89-1.92,3.53-2.88,6.09.96,8.65,3.84,2.56,5.44.96,9.29,2.88,3.84,1.93,6.73,3.2,9.93,1.6,3.2-1.6,6.09-8.01,4.17-11.22-1.92-3.2-1.28-3.84.32-5.77,1.6-1.92,1.93-6.73-.96-4.17-2.89,2.56-2.25,4.17-6.09,6.09-3.85,1.92-6.73,2.88-6.73,2.88,0,0,2.88-.96,1.6-4.16-1.28-3.2-1.6-4.49-1.28-6.41.32-1.93.96-4.8-1.92-5.45-2.89-.64-5.77-.64-8.01.32-2.24.97-3.53.65-6.73-.64-3.2-1.28-4.34-.47-3.2-4.17,1.28-4.17,15.06-5.44,26.28.64,11.21,6.09,18.26,10.58,27.88,16.99,9.61,6.41,18.85,11.22,35.2,11.22"/>
    <path class="cls-13" d="m187.67,469.26l2.56-2.56s4.17,1.93,6.73,5.77c2.56,3.84,6.41,10.89,6.41,10.89l-2.24,2.24-1.92-1.6s0-3.52-1.93-7.05c-1.92-3.53-2.24-4.81-5.13-5.77-2.88-.96-4.8-.32-4.49-1.92"/>
    <path class="cls-13" d="m207.22,482.4c-2.56,2.25-6.09,4.49-5.45,8.34.64,3.84,3.53,8.33,3.53,8.33,0,0-.64-2.56.96-4.81,1.6-2.24,2.56-3.52,2.56-3.52,0,0-2.24-.32-1.92-2.56.32-2.25,1.92-5.13,1.92-5.13l-1.6-.64"/>
    <path class="cls-13" d="m212.67,492.34l.96,6.73s.96,2.24,2.56,0c1.6-2.25,1.6-4.49,1.6-4.49,0,0,.96.96,3.53.64,2.56-.32,3.85-4.17,3.85-4.17,0,0,0-.31-2.56.32-2.56.64-4.49.96-6.09,0-1.6-.96-3.85-1.28-3.85.96"/>
    <path class="cls-13" d="m219.08,499.71c2.24-2.56,3.53-2.56,5.13-3.21,1.6-.64,1.92-2.24,2.24-3.53.32-1.28,1.93-4.48,2.24-1.6.32,2.88,1.93,4.17,1.93,8.33s-.32,6.08-2.56,6.08-.32-.32-2.24-2.24c-1.92-1.93-2.89-1.93-2.89-1.93l.64-3.52-2.24,3.52-2.24-1.92"/>
    <path class="cls-13" d="m221,507.39s-.64-1.28.96-2.25c1.6-.96,3.53-.64,3.84.96.32,1.6-.32,1.28-1.92,2.24-1.6.96-2.88-.96-2.88-.96"/>
    <path class="cls-13" d="m223.24,511.88c1.6-1.6,3.84-2.24,5.13-3.2,1.28-.96,2.88-.96,4.17,0,1.29.96,2.24,0,2.24,3.2s-.96,2.56-3.53,2.56-4.8-.32-6.09-.96c-1.28-.64-1.92-1.6-1.92-1.6"/>
    <path class="cls-13" d="m237.98,504.19c1.68-.68,5.13-4.49,4.17-1.93-.96,2.56-.64,5.13,0,6.73.64,1.6.64,4.17-1.6,6.09-2.24,1.92-4.49,2.56-4.81.64-.32-1.92,1.92-2.56,1.92-4.17s.32-2.24-.96-3.85c-1.28-1.6-.32-2.89,1.29-3.52"/>
    <path class="cls-13" d="m300.42,512.52c7.69,0,13.58-.44,25.26-6.09,12.61-6.09,18.49-11.26,30.02-18.63,11.54-7.38,19.32-8.61,26.05-7.97,6.73.64,9.29,0,12.18-.96,2.89-.96,2.24-4.17,3.85-7.69,1.6-3.52,4.49-6.41,4.8-8.33.32-1.92-3.52-.96-3.52-.96,0,0-2.24,2.56-3.85,6.09-1.6,3.53-2.56,8.01-2.56,8.01l-1.92-.64s.96-1.6,2.56-6.09c1.6-4.49,2.24-8.01,2.24-8.01l-3.52-1.28s-1.61,4.49-2.25,7.37c-.64,2.88-1.28,4.48-1.28,4.48l-1.92-.64s1.6-4.81,2.56-7.37c.96-2.56,0-4.16,0-4.16l-5.44-.33s-1.61,2.57-2.57,6.73c-.96,4.17-.96,7.37-.96,7.37l-1.28,1.28s-.32-1.6-.32-4.8,1.93-8.97,1.93-8.97c0,0,0-.96-1.6-1.28-1.6-.33-12.18,0-19.87,1.6-7.69,1.6-24.99,13.13-31.73,19.54-6.73,6.41-16.61,10.58-26.86,10.58s-20.14-4.17-26.86-10.58c-6.73-6.41-24.04-17.95-31.72-19.54-7.69-1.6-18.26-1.93-19.87-1.6-1.6.32-1.6,1.28-1.6,1.28,0,0,1.92,5.77,1.92,8.97s-.32,4.8-.32,4.8l-1.28-1.28s0-3.2-.96-7.37c-.96-4.17-2.56-6.73-2.56-6.73l-5.44.33s-.96,1.6,0,4.16c.96,2.56,2.56,7.37,2.56,7.37l-1.92.64s-.64-1.6-1.28-4.48c-.64-2.89-2.24-7.37-2.24-7.37l-3.53,1.28s.64,3.52,2.24,8.01c1.6,4.48,2.56,6.09,2.56,6.09l-1.93.64s-.96-4.48-2.56-8.01c-1.6-3.53-3.85-6.09-3.85-6.09,0,0-3.84-.96-3.52.96.32,1.93,3.2,4.81,4.8,8.33,1.6,3.53.96,6.73,3.85,7.69,2.88.96,5.45,1.6,12.17.96,6.73-.64,14.52.59,26.05,7.97,11.54,7.37,18.49,12.54,30.02,18.63,11.48,6.06,17.57,6.09,25.26,6.09"/>
    <path class="cls-13" d="m413.16,469.26l-2.56-2.56s-4.17,1.93-6.73,5.77c-2.56,3.84-6.41,10.89-6.41,10.89l2.24,2.24,1.93-1.6s0-3.52,1.92-7.05c1.92-3.53,2.24-4.81,5.13-5.77,2.88-.96,4.8-.32,4.48-1.92"/>
    <path class="cls-13" d="m393.61,482.4c2.56,2.25,6.09,4.49,5.45,8.34-.64,3.84-3.53,8.33-3.53,8.33,0,0,.64-2.56-.96-4.81-1.6-2.24-2.56-3.52-2.56-3.52,0,0,2.24-.32,1.92-2.56-.32-2.25-1.92-5.13-1.92-5.13l1.6-.64"/>
    <path class="cls-13" d="m388.16,492.34l-.96,6.73s-.96,2.24-2.56,0c-1.6-2.25-1.6-4.49-1.6-4.49,0,0-.96.96-3.53.64-2.56-.32-3.85-4.17-3.85-4.17,0,0,0-.31,2.57.32,2.56.64,4.48.96,6.09,0,1.6-.96,3.84-1.28,3.84.96"/>
    <path class="cls-13" d="m381.75,499.71c-2.24-2.56-3.52-2.56-5.13-3.21-1.6-.64-1.92-2.24-2.24-3.53-.32-1.28-1.92-4.48-2.24-1.6-.32,2.88-1.93,4.17-1.93,8.33s.32,6.08,2.57,6.08.32-.32,2.24-2.24c1.93-1.93,2.88-1.93,2.88-1.93l-.64-3.52,2.24,3.52,2.24-1.92"/>
    <path class="cls-13" d="m379.83,507.39s.64-1.28-.96-2.25c-1.6-.96-3.53-.64-3.85.96-.32,1.6.32,1.28,1.93,2.24,1.6.96,2.88-.96,2.88-.96"/>
    <path class="cls-13" d="m377.59,511.88c-1.6-1.6-3.85-2.24-5.13-3.2-1.29-.96-2.89-.96-4.17,0-1.28.96-2.25,0-2.25,3.2s.96,2.56,3.53,2.56,4.8-.32,6.09-.96c1.29-.64,1.93-1.6,1.93-1.6"/>
    <path class="cls-13" d="m362.85,504.19c-1.68-.68-5.13-4.49-4.17-1.93.96,2.56.64,5.13,0,6.73-.64,1.6-.64,4.17,1.6,6.09,2.24,1.92,4.48,2.56,4.81.64.31-1.92-1.92-2.56-1.92-4.17s-.32-2.24.96-3.85c1.28-1.6.32-2.89-1.28-3.52"/>
    <path class="cls-5" d="m240.34,474.44c1.84,1,2.76.91,3.75-1,.91-1.75.65-2.63-.61-3.28-.52-.27-.82-.17-1.01.15l-2.13,4.12Zm-6.27,2.86c.82.27.86.27,1,.24.26-.04.57-.13,1.02-.99l3.51-6.8c.67-1.29.21-1.58-.56-2.08l.2-.38,4.95,2.56c1.23.64,3.91,2.31,2.56,4.91-.28.54-1.01,1.54-2.6,1.6-1.27.05-2.06-.35-4.1-1.38l-1.48,2.86c-.65,1.25-.37,1.43.62,2.12l-.2.38-5.13-2.65.2-.38"/>
    <path class="cls-5" d="m255.99,483.15c1.94,1.17,2.91,1.32,4.08-.61.91-1.5.7-2.5-.49-3.22-.81-.49-.94-.35-1.29.06l-2.3,3.77Zm3.37,9.05l-3.03-1.84-.24-6.49-.4-.24-1.77,2.89c-.72,1.18-.43,1.42.47,2.15l-.23.37-4.99-3.05.23-.37c1.08.5,1.4.64,2.13-.56l3.98-6.53c.77-1.27.33-1.58-.47-2.15l.23-.37,4.76,2.9c1.03.63,4.09,2.66,2.57,5.14-1.11,1.82-2.91,1.35-3.86,1.11l.4,6.02c.04.39.26.54.43.65l-.23.37"/>
    <path class="cls-5" d="m271.4,493c-.8,1.28-2.87,4.78-.35,6.35,2.51,1.57,4.75-1.83,5.55-3.1,1.34-2.14,2.41-5.07.35-6.35-2.06-1.28-4.21.95-5.55,3.1m7.8,4.87c-1.93,3.08-5.44,3.84-8.45,1.96-3.01-1.88-3.87-5.38-1.94-8.46,2-3.2,5.62-3.74,8.45-1.96,2.83,1.77,3.94,5.25,1.94,8.45"/>
    <path class="cls-5" d="m299.61,504.59c-1.08,0-1.5,0-1.66,1.42l-.25,2.18c-.89.49-3.27.7-4.76.53-4.3-.49-5.87-3.75-5.53-6.75.39-3.38,3.08-5.9,6.79-5.47,1.55.18,2.77,1.17,3.22,1.22.47.06.66-.29.88-.7l.46.05-.46,4.02-.43-.05c-.43-1.57-1.65-3.75-3.61-3.97-2.49-.29-3.48,2.25-3.81,5.21-.14,1.22-.53,5.51,2.72,5.89,1.52.17,1.85-.31,1.93-1.06l.21-1.8c.13-1.1-.42-1.2-1.6-1.4l.05-.43,5.9.68-.05.43"/>
    <path class="cls-5" d="m312.02,500.28c2.16-.71,2.9-1.34,2.21-3.48-.53-1.67-1.44-2.16-2.75-1.73-.91.29-.88.48-.8,1.02l1.34,4.2Zm9.06,3.37l-3.38,1.08-5.06-4.06-.45.14,1.03,3.23c.43,1.32.8,1.25,1.94,1.05l.13.42-5.57,1.78-.13-.41c1.08-.49,1.39-.64.96-1.97l-2.34-7.29c-.46-1.41-.98-1.28-1.93-1.05l-.13-.41,5.31-1.71c1.16-.36,4.69-1.35,5.58,1.41.65,2.02-.89,3.08-1.69,3.65l4.82,3.63c.32.22.58.16.78.1l.13.41"/>
    <path class="cls-5" d="m323.18,489.57l8.51-5.23,1.82,2.96-.37.23c-1.62-1.89-2.9-1.61-4.89-.39-.81.5-1.04.72-.65,1.35l2.1,3.42c1.42-.86,1.94-1.7,1.04-3.67l.38-.24,3.06,4.99-.38.24c-1.31-1.73-2.33-1.71-3.79-.82l2.19,3.57c.4.65.79.65,1.74.06,1.45-.89,2.71-2.19,2.28-4.99l.41-.25,1.3,3.43-8.62,5.3-.23-.37c.79-.61,1.22-.93.65-1.85l-4.39-7.14c-.6-.97-1.23-.62-1.94-.25l-.23-.37"/>
    <path class="cls-5" d="m346.82,478.27c-.92-.85-2.87-1.95-4.58-.84-.76.49-1.27,1.44-.66,2.39.51.78.99.92,2.61.74l2.82-.33c.65-.08,2.3.05,3.33,1.64.83,1.28,1.04,3.63-1.63,5.37-1.38.89-2.35.82-2.8,1.12-.3.2-.21.51-.11.78l-.42.27-2.33-3.59.42-.27c1.24,1.28,3.15,2.37,4.99,1.17,1.74-1.13.88-2.62.76-2.8-.63-.97-1.54-.88-2.77-.71l-1.28.17c-3.25.42-4.06-.83-4.5-1.49-.58-.89-1.41-3.15,1.35-4.94,1.16-.76,2.15-.72,2.57-.99.33-.21.27-.48.16-.8l.44-.29,2.04,3.15-.41.26"/>
    <path class="cls-5" d="m361.73,469.99c-.83-.94-2.65-2.25-4.47-1.32-.8.41-1.42,1.3-.91,2.3.42.83.89,1.02,2.52,1.01l2.84-.02c.66,0,2.28.29,3.14,1.98.69,1.36.65,3.72-2.19,5.16-1.46.74-2.42.57-2.9.82-.33.16-.27.48-.2.76l-.45.22-1.93-3.81.45-.23c1.1,1.41,2.88,2.69,4.84,1.7,1.85-.94,1.15-2.5,1.05-2.71-.52-1.03-1.44-1.04-2.68-1.01l-1.29.04c-3.28.07-3.95-1.26-4.31-1.96-.48-.95-1.06-3.28,1.87-4.78,1.23-.62,2.22-.48,2.66-.71.36-.18.32-.46.25-.79l.46-.23,1.7,3.35-.43.22"/>
    <path class="cls-5" d="m298.38,462.85c3.53,0,6.95-2.56,11.11-5.44,4.17-2.89,56.08-33.65,60.24-37.17,4.17-3.52,5.77-10.58,5.77-18.26v-130.74c0-1.92-1.6-4.8-5.77-4.8h-142.7c-4.17,0-5.77,2.88-5.77,4.8v130.74c0,7.69,1.61,14.74,5.77,18.26,4.17,3.53,56.08,34.29,60.24,37.17,4.17,2.89,7.58,5.44,11.1,5.44"/>
    <path class="cls-13" d="m373.58,271.23c0-.46-.21-1.23-.83-1.84-.7-.69-1.71-1.04-3.01-1.04h-142.7c-1.31,0-2.32.35-3.01,1.04-.61.61-.83,1.38-.83,1.84v53.13h150.39v-53.13"/>
    <rect class="cls-5" x="221.96" y="321.86" width="152.85" height=".96"/>
    <g class="cls-3">
      <path class="cls-14" d="m378.98,359.87s-4.49-2.56-10.26-5.77c-5.77-3.2-15.06-2.88-23.71.32s-13.78,3.2-25-.96c-11.21-4.17-23.07-1.92-30.76,1.28-7.69,3.2-24.99,3.84-38.77-1.28-13.78-5.13-25.32,2.56-36.21,8.97v-16.86c10.89-6.41,22.43-14.1,36.21-8.97,13.78,5.13,31.08,4.48,38.77,1.28,7.69-3.2,19.55-5.45,30.76-1.28,11.22,4.17,16.35,4.17,25,.96,8.65-3.2,17.95-3.52,23.71-.32,5.77,3.2,10.26,5.77,10.26,5.77v16.86"/>
      <path class="cls-14" d="m211.07,381.78c7.69-5.13,16.34-9.29,22.43-8.33,6.09.96,10.58.96,13.46-.64,2.88-1.6,8.01-1.28,13.78.64,5.77,1.92,16.02,1.92,24.67.64,8.65-1.28,28.52-.96,36.53.32,8.01,1.28,18.58,2.56,25.95.96,7.37-1.6,14.42-5.13,20.19-2.24,5.77,2.88,10.26,5.77,10.26,5.77l1.28,10.89s-5.13-.32-9.94-1.93c-4.8-1.6-9.29-1.92-15.38.64-6.09,2.56-9.29,4.17-19.87.96-10.57-3.2-19.86-4.48-28.84-1.92-8.97,2.56-19.23.96-29.8,2.56-10.58,1.6-15.38.64-24.35-1.93-8.97-2.56-16.34-2.89-22.75.96-6.41,3.85-15.06,7.37-15.06,7.37l-2.56-14.74"/>
      <path class="cls-14" d="m219.72,413.82c8.97-6.41,15.06-13.46,27.24-9.61,12.18,3.84,26.6,6.41,38.13,2.24,11.53-4.17,20.83-7.37,34.93-2.88,14.1,4.48,23.39,5.13,30.76,2.56,7.37-2.56,15.7-3.85,19.23-1.28,3.52,2.56,8.65,5.45,8.65,5.45l-3.84,8.01s-8.33.32-21.47,3.2c-13.14,2.89-19.87,3.85-27.88-.64-8.01-4.49-16.34-7.69-30.76-2.56-14.42,5.13-24.35,5.77-38.13,1.92-13.78-3.85-23.39-.64-31.08,4.49-7.69,5.13-5.77-10.89-5.77-10.89"/>
      <path class="cls-14" d="m258.49,447.47c8.97-3.85,23.07-10.89,40.05-10.89s31.72,5.45,41.02,10.57c9.29,5.13-26.28,16.34-26.28,16.34l-23.39.96-31.41-16.99"/>
    </g>
    <path class="cls-5" d="m245.99,365.12c5.03-5.03,9.93-7.37,18.26-7.05,8.33.32,10.57.32,16.99,4.49,6.41,4.17,11.21,7.37,15.06,8.33,3.85.96,7.05-.96,9.29-3.84,2.25-2.89,8.65-8.97,14.1-9.93,5.45-.96,14.74-3.53,19.87-.64,5.12,2.89,7.37,5.13,8.01,6.41.64,1.28,2.24.64,4.17.96,1.92.32,6.41.32,10.89,1.93,4.49,1.6,5.77,1.92,5.13,4.48-.64,2.56-6.09,4.49-8.65,2.89-2.56-1.6-6.09-.64-9.29.64-3.2,1.28-8.65.64-12.17.64s-9.29.32-9.29.32c0,0,2.88,1.28,5.13,1.6s4.81,2.56,4.81,2.56c0,0,.32,1.6-3.2,2.24-3.53.64-7.69.32-7.69.32,0,0-2.88,2.56-5.44,2.56s-6.73,2.24-6.73,2.24c0,0-1.6,2.24-8.33,3.53-6.73,1.28-12.17.96-15.06-.64-2.88-1.6-6.73-1.28-7.69-.96-.96.32-2.88-1.92-4.17-3.53-1.28-1.6-2.88-3.52-5.45-2.88-2.56.64-4.17-.64-5.13-1.6-.96-.96-3.2-3.2-4.17-4.49-.96-1.28-4.48-1.28-4.48-1.28,0,0,.32-1.92-1.28-3.21-1.6-1.28-8.01.65-13.14,2.57-5.13,1.92-8.33,2.24-7.05-1.92,1.28-4.17,5.13-5.13,6.73-6.73"/>
    <path class="cls-13" d="m346.29,363.51s-4.49-4.48-10.58-5.13c-6.09-.64-14.74,0-20.51,2.56-5.77,2.56-9.29,8.01-13.14,11.85-3.84,3.85-9.93,5.45-11.53,1.93-1.6-3.52-5.77-8.01-7.69-9.61-1.93-1.6-3.53-1.6-3.53-1.6l.32,2.89s4.17.32,5.44,2.24c1.29,1.92,3.85,4.17,3.53,5.45-.32,1.28-2.24,1.6-5.13,1.28-2.88-.32-4.17-.32-4.17-.32l-2.56-2.56s-1.28,0-4.17.64c-2.88.64-1.6,2.24-1.6,2.24l-2.56,1.28s-.32,1.6,3.84,1.93c4.17.32,5.45-.65,7.05,1.6,1.6,2.24,1.6,6.41,5.13,5.45,3.53-.96,6.09-2.56,9.62-.64,3.52,1.92,10.57,3.52,13.14,2.24,2.56-1.28,3.52-3.2,3.84-4.49.32-1.28,2.25-1.6,3.2-2.88.96-1.28,0-1.6.96-2.88s3.84-.64,6.73-2.56c2.88-1.92,5.13-2.24,7.37-2.24s1.93-2.56,1.93-2.56c0,0,2.88-1.6,4.17,0,1.28,1.61,1.92,2.89,4.81,1.28,2.88-1.6,5.77-2.24,8.97-1.28,3.2.96,3.53,1.92,6.41,1.28,2.88-.64,8.01-.32,8.01-.32l.64-1.92s-4.8-2.24-10.89-2.24-11.86-.64-14.42-.64-5.13-1.61-5.13-1.61c0,0-1.6-1.6-6.72,0-5.13,1.61-8.02.64-11.86,3.53-3.84,2.88-8.65,5.12-8.65,5.12l1.28-2.88s1.92-1.28,6.09-3.52c4.16-2.25,7.37-5.13,12.81-5.13s8.65-2.24,12.5,0c3.84,2.24,7.05,2.24,7.05,2.24"/>
    <path class="cls-13" d="m312.64,384.66s.96-1.6,3.21-3.52c2.24-1.92,3.84-3.21,6.09-3.52,2.24-.32,4.17-1.61,6.09-1.61s4.49.32,5.45,1.28c.96.96,2.24,1.6,2.24,1.6,0,0-.32-.64-4.17-.96-3.84-.31-4.49.65-6.73,2.56-2.24,1.92-1.92.64-4.8.96-2.89.32-3.2,2.25-4.49,2.89-1.29.64-2.89.32-2.89.32"/>
    <path class="cls-13" d="m240.87,372.16c.64-1.6,1.92-3.52,5.45-5.44,3.52-1.93,6.41-4.49,9.29-5.45,2.88-.96,4.17.32,6.73.32s4.17-.96,5.45.64c1.28,1.6,3.53,4.81,3.53,4.81,0,0-4.49,0-8.01.32-3.53.32-6.73-1.93-9.61.32-2.89,2.24-5.45,3.2-8.02,3.84-2.56.64-4.8.64-4.8.64"/>
    <path class="cls-13" d="m269.71,360.31l5.45,4.17s1.92.31,1.6-.96c-.32-1.28-1.93-1.28-3.21-1.92-1.28-.64-3.84-1.28-3.84-1.28"/>
    <path class="cls-13" d="m276.44,368.96c0-.8,1.99,0,2.21.89.22.88,0,1.77-.89,1.1-.88-.66-1.32-1.32-1.32-1.99"/>
    <polygon class="cls-13" points="267.78 371.52 271.95 368 273.87 371.52 271.31 372.16 267.78 371.52"/>
    <path class="cls-5" d="m297.58,377.29s.64,3.21,3.85,3.21,5.44-.96,7.05-1.92c1.6-.96,2.88-2.25,2.88-2.25,0,0-2.56-.32-5.13-.32s-3.53,2.57-4.8,1.92c-1.28-.64-3.85-.64-3.85-.64"/>
    <path class="cls-5" d="m313.29,373.77s2.88.32,3.52-.96c.64-1.28.96-3.84.96-3.84,0,0-2.24.64-3.2,1.28-.96.64-1.28,3.53-1.28,3.53"/>
    <path class="cls-5" d="m250.64,320.25c-3.2,0-4.97-3.52-4.97-3.52,0,0-.96,1.28-1.92,2.56-.96,1.28-3.2.32-5.77-.32-2.56-.64-3.2-3.53-3.2-3.53,0,0-.32-.96,2.56-1.6,2.89-.64,3.53-.32,4.81-2.88,1.75-3.5,3.84-6.41,2.56-8.01-1.28-1.61-3.53,0-3.53,0,0,0-3.53,3.2-6.41,1.92-2.88-1.28-3.53-3.85-4.81-7.37-1.28-3.53-1.28-8.01,2.24-10.25,3.53-2.25,5.45-3.85,7.37-1.93,1.92,1.93,3.53,2.88,3.53,2.88,0,0,2.24-1.92.96-3.52-1.29-1.6-.32-4.49,1.28-6.73,1.6-2.24,3.69-4.8,5.29-4.8,2.08,0,4.97,3.84,6.25,6.09,1.28,2.24,2.89,5.13.96,7.37s-1.92,3.53-1.92,3.53c0,0,2.56.96,4.48-1.28s4.81-5.13,7.37-3.2c2.56,1.93,6.41,2.56,6.09,4.81-.32,2.24-2.24,6.09-2.24,6.09,0,0-.64.32-2.88.64-2.24.32-2.24.96-2.89,2.89-.64,1.92,2.24,3.53,2.24,3.53,0,0-.64,3.2-4.17,2.56-3.53-.64-5.77-2.56-5.77-2.56l-1.92,2.56s.32,1.28,2.88,3.2c2.56,1.92.32,4.17,3.85,3.85,3.53-.32,6.09-.32,3.53,2.24-2.56,2.56-5.13,5.45-8.33,3.85-3.2-1.6-4.48.96-7.53.96"/>
    <path class="cls-8" d="m231.89,291.42c1.64-3.27,3.21-5.13,5.77-3.2,2.56,1.92,3.53,1.28,4.17,3.2q.64,1.92.32,4.17c-.32,2.24.64,3.84.64,3.84,0,0-.64,1.6-2.88,2.24-2.24.64-4.49.96-5.45,0-.96-.96-2.56-2.24-2.88-4.48-.32-2.24-.64-3.85.32-5.77"/>
    <path class="cls-8" d="m243.11,289.49s1.6,1.92,2.24,4.17.32,3.84.32,3.84l1.93,4.17,1.28-2.56-1.28-5.45s.64-1.6,1.92-1.28,2.89.96,2.89,3.2.64,4.81.64,4.81c0,0,1.28-2.24,2.56-4.17,1.28-1.92,2.24-3.84,4.8-3.52,2.56.32,4.81,1.92,4.81,1.92l-3.84,1.92c-2.56,1.29-3.85,3.85-3.85,3.85,0,0,.32,1.28,2.25,2.24,1.92.96,5.45.96,5.45.96,0,0-1.6-2.24-.96-4.17.64-1.93,1.6-3.53,3.84-4.17,2.24-.64,3.84-2.24,4.17-3.85.32-1.6-.64-3.53-5.12-3.84-4.49-.32-6.09,2.88-9.29,3.84-3.2.96-5.77,1.28-4.49-1.28,1.29-2.56,3.53-3.52,3.21-6.73-.32-3.21-3.53-5.45-4.81-6.73-1.28-1.28-2.24-.96-4.17,1.28-1.93,2.24-3.08,4.73-1.6,7.05,2.25,3.53-2.88,4.49-2.88,4.49"/>
    <path class="cls-8" d="m236.7,315.45s3.21-.96,5.13-1.92c1.93-.96,3.21,1.28,3.21,1.28,0,0,2.24-1.92,3.52-3.2,1.28-1.28,2.89-3.2,2.89-3.2l1.28,4.8,1.6-3.84,2.56,4.17v-5.12s1.93,3.52,2.88,4.48c.96.96,4.49,1.6,4.49,1.6,0,0-1.6,1.6-3.85,2.24-2.24.64-6.73.32-6.73.32,0,0-1.28,2.56-3.2,1.92-1.93-.64-4.49-3.53-4.49-3.53,0,0-2.24,3.21-5.13,2.89-2.88-.32-4.17-2.89-4.17-2.89"/>
    <polygon class="cls-5" points="249.84 281.16 249.2 284.04 249.84 287.25 252.08 285.01 249.84 281.16"/>
    <path class="cls-5" d="m284.45,306.16l-7.05-1.6s1.28,2.56,0,5.44c-1.29,2.89-3.2,6.09-3.2,6.09l3.84.64,10.26-1.29-4.49-5.45.64-3.84"/>
    <path class="cls-5" d="m310.4,313.85l8.97-4.49s3.21,4.17,3.21,7.05-.96,4.8-3.53,2.88c-2.56-1.92-7.69-3.85-7.69-3.85l-.96-1.6"/>
    <path class="cls-5" d="m293.74,304.23s2.88-2.56,3.84-4.49c.96-1.92,1.93-4.81,1.93-4.81l-8.01-2.88s2.24-1.28,2.24-2.56-.32-2.88-1.28-4.49c-.96-1.6-1.92-.64-1.92-.64,0,0,1.92-.32,1.6,1.92-.32,2.24-.96,3.53-.96,3.53,0,0-1.6-1.29-3.85-2.89-2.24-1.6-1.92-6.09-1.92-6.09,0,0-2.89.32-6.41-2.56-3.52-2.88-6.41-8.01-6.41-8.01,0,0,.64,3.84,2.24,6.73,1.6,2.88,1.93,3.2,1.93,3.2l-.96,2.57-1.92-1.93-2.25,2.24s.64.32,3.2,1.92c2.57,1.6,2.57,3.53,4.81,5.77,2.24,2.24,5.13,3.2,5.13,3.2l1.6.64-5.77,2.24,1.92.96h5.13l.32,3.53h2.24l1.6,3.84s1.6.96,1.92-.96"/>
    <path class="cls-5" d="m303.99,299.43s0,4.48,1.6,4.48,3.53-4.16,3.53-4.16l4.17.96,3.2-1.92,3.2-.96s-4.17-.32-2.24-3.53c1.92-3.2,6.09-4.17,6.09-4.17,0,0-1.28-2.25.64-3.85,1.92-1.6,6.09-3.85,6.09-3.85l-2.89-.32-8.97,3.84,7.05-5.13s4.49-3.21,4.81-4.81c.32-1.6.64-3.84.64-3.84,0,0-2.56,3.2-5.12,5.13-2.57,1.93-2.57,2.24-6.73,3.53-4.17,1.28-7.05,2.24-7.05,2.24,0,0,.65.32.32,4.8-.32,4.49-.96,8.33-4.16,6.73-3.21-1.6-6.73-.96-6.73-.96l2.56,5.77"/>
    <path class="cls-5" d="m346.93,275.71c3.53,0,5.13-2.56,7.37-3.84,2.24-1.28,2.56-1.6,4.8-.32,2.24,1.28,6.41,2.56,8.65,4.49,2.24,1.92,2.88,4.49.64,7.37-2.24,2.89-2.24,5.13-5.44,7.69-3.21,2.56-5.13,1.28-5.45,4.49-.32,3.21.31,4.17,2.24,6.09,1.92,1.93,3.52,1.93,3.52,1.93,0,0,.96-.32-.64-2.24-1.6-1.93-3.84-2.56-2.56-4.49,1.28-1.93,1.92-3.53,3.2-3.85,1.29-.32,1.93-3.52,3.85-2.88s3.84.64,3.84.64l1.93-2.88v4.17l-1.93,3.2s.64,1.6-2.24,1.6-2.89.96-2.89.96c0,0,.32.96,2.24,1.92,1.93.96,3.52,2.56,1.6,4.17-1.92,1.6-3.84,2.88-3.84,2.88,0,0,2.24,1.92,3.52,4.17,1.28,2.24,1.93,3.84,0,6.73-1.92,2.88-4.17,6.41-8.33,2.24-4.17-4.17-3.85-6.41-3.85-6.41,0,0-1.92.32-3.84-.64-1.92-.96-2.89-1.92-2.89-1.92l-3.2.32s1.6,3.85-1.28,5.45c-2.89,1.6-4.49.64-8.01.96-3.53.32-4.17-.64-5.13-2.56-.96-1.93.64-2.57.96-4.49.32-1.93.32-5.45,2.56-3.53,2.24,1.93,4.17,2.24,4.49.32.32-1.92,3.53-4.17,3.53-4.17l-1.29-2.24s-1.92,3.2-7.05,2.24c-5.13-.96-6.41-1.6-8.02-2.56-1.6-.96-5.12-2.56-5.12-2.56l4.17-2.24-1.28-2.24,3.2.96,2.24-2.88,5.77,3.52s-1.92-4.8-2.88-7.37c-.96-2.56-1.93-5.13-1.6-7.37.32-2.24,2.24-5.13,2.24-5.13,0,0,1.92-1.28,4.48-1.28s7.69,1.6,7.69,1.6"/>
    <path class="cls-8" d="m328.03,298.47l3.2-2.88s.64,1.92,3.53,1.92,5.77-.96,5.77-.96c0,0,.96-1.28-.32-3.53s-4.17-4.49-4.49-6.73c-.32-2.24-1.93-5.77-.96-7.69.96-1.93,2.24-3.2,4.48-2.56,2.25.64,2.56,1.93.64,3.21-1.92,1.28-2.24,1.92-.31,4.17s4.16,2.88,5.44,1.6,2.89-1.92,2.56-3.84c-.32-1.92.64-4.49,2.24-5.13s4.8-2.24,6.73-2.56c1.93-.32,5.13.32,6.73,2.56,1.6,2.24,5.45,1.93,3.85,5.13-1.6,3.2-2.24,5.13-5.77,8.01-3.53,2.88-4.81,3.21-4.81,3.21l-3.52-.64-2.56,1.6,2.89,1.92,2.24,1.6s-1.28,1.28.96,4.49c2.25,3.2,4.49,3.85,4.49,3.85,0,0,3.53.96,4.17-.96.64-1.93-.96-2.24-1.93-4.17-.96-1.92-1.92-3.2-.32-4.8,1.6-1.6,2.24-3.21,4.8-3.21s2.89,1.29,2.89,1.29c0,0-2.24,0-4.17,1.28-1.92,1.28-3.53,2.56-1.92,3.84,1.6,1.28,3.2,2.56,2.88,4.49-.32,1.92-1.93,2.56-3.53,3.84-1.6,1.28,0,2.56,1.28,3.85,1.28,1.28,4.17,4.49,2.24,6.41-1.93,1.92-8.01,1.28-5.45-.32,2.57-1.6,3.53-4.49,1.6-3.2-1.92,1.28-4.17.32-4.17.32,0,0-1.6-1.92-4.49-3.2-2.88-1.29-4.17-3.21-6.09-2.24-1.93.96-4.17,3.2-4.17,3.2l.32,2.56s-.96,1.28-4.17,1.6c-3.2.32-4.81.65-5.45-.96-.64-1.6-.96-3.84,1.28-4.48,2.24-.64,4.17-.64,6.09-2.89,1.92-2.24,4.17-3.2,3.21-5.44-.96-2.24-1.29-3.2-4.49-2.24-3.21.96-8.01.96-9.94.64-1.92-.32-3.53-1.92-3.53-1.92"/>
    <path class="cls-5" d="m340.2,293.02s4.48-1.6,8.01-3.85c3.53-2.24,8.33-6.41,8.33-6.41l.32,1.6s-3.53,2.56-7.37,5.13c-3.84,2.56-8.01,3.84-8.01,3.84l-1.28-.32"/>
    <polygon class="cls-5" points="348.21 289.17 347.89 290.46 352.38 293.02 353.02 291.74 348.21 289.17"/>
    <polygon class="cls-5" points="351.88 275.5 355.22 277.3 354.19 277.9 351.61 278 351.88 275.5"/>
    <polygon class="cls-5" points="345.97 282.12 350.14 283.72 346.29 285.33 342.76 283.41 345.97 282.12"/>
    <polyline class="cls-13" points="343.41 276.99 342.12 280.52 344.69 282.12 345.33 279.88 343.41 276.99"/>
    <path class="cls-8" d="m290.85,279.24l3.21,2.56,1.28-4.81h8.65l-1.92,5.13,4.8.64s.64-1.93.96-4.17c.32-2.24,2.56-1.6,4.48-2.88,1.92-1.28,3.53-1.6,3.53-1.6l.32,1.92-1.6,4.81-.64,3.53s-3.85,2.24-4.49,1.28c-.64-.96,0,2.56,0,2.56v6.73s-7.37,1.93-6.73,6.09c.64,4.17-.32,2.24,2.89,2.88,3.2.65,4.49,1.29,6.73,1.61,2.25.32,4.81.32,4.81.32l1.92,2.57-.96,2.56,4.49,5.45-1.6,2.56-4.49-1.6-4.81-3.85-3.52.32,1.28-5.13-3.2.96-1.28,2.24-2.56-.32.64-1.6-5.13-.32-4.8,2.24-3.85-1.6-4.17,2.56,2.24,2.24s-5.44-.64-8.01,0c-2.56.64-4.17.96-4.17.96,0,0,1.92-2.24,2.88-4.81s1.6-6.09,1.6-6.09c0,0,.96.64,3.84,1.6,2.89.96,5.77-.64,5.77-.64l5.45-.32,2.88-6.09-2.56-5.77-.64-4.49s-.32-1.6-2.56-3.53c-2.24-1.92-4.49-4.17-4.49-4.17l-4.17-.96,1.28-6.73,3.2,1.92,3.2,3.21"/>
    <path class="cls-9" d="m133.52,217.07c1.92.64,6.41.96,6.41.96l4.8-5.45s-5.45.32-7.69.96c-2.25.64-5.13.32-7.05.96-1.92.64-2.88,4.17-2.88,4.17,0,0,4.49-2.24,6.41-1.6m152.53,16.02c-6.57,6.57-13.46,9.93-13.46,9.93l-.96-5.45s-3.21.32-2.89,2.89c.32,2.56.96,6.09-3.2,8.97-4.17,2.89-7.69,3.85-10.89.96-3.2-2.89-5.13-4.49-2.24-6.09,2.89-1.6,2.24-4.17,2.24-4.17l-1.93-2.24s1.28,3.2-1.6,4.17c-2.88.96-4.17,1.6-4.17,1.6,0,0,3.2.96,2.56,6.09-.64,5.13-.64,13.78-11.21,15.38-10.58,1.6-18.59.64-21.47-1.92-2.89-2.56-4.49-8.65-.32-10.58,4.17-1.92,4.49-1.92,6.41.32,1.92,2.24,3.52,4.17,1.28,4.48-2.24.32-3.2,1.6-3.2,1.6,0,0,1.28,2.24,3.2.96,1.92-1.28,3.52-2.56,2.56-5.77-.96-3.2-1.28-7.37-5.45-7.05-4.17.32-8.01-1.92-8.01-1.92,0,0,0,2.56-1.6,4.17-1.6,1.6-5.45,4.49-7.37,2.56-1.92-1.92-2.88-6.09-2.24-7.05.64-.96-1.93-.32-3.84-1.28-1.92-.96-4.17-4.49-3.53-6.73.64-2.24.96-9.29-1.28-5.45-2.24,3.84-3.84,5.45-6.73,4.17-2.88-1.28-4.17-.64-6.41-.64s-6.09-1.28-3.85-2.56c2.24-1.28,4.49-1.6,2.89-3.53-1.6-1.92-2.89-7.05-6.09-6.73-3.2.32-6.09,2.56-2.88,3.53s5.13,2.56,4.49,3.85c-.64,1.28-5.45,5.13-8.33,2.56-2.89-2.56-6.09-6.41-6.09-6.41,0,0-3.52,2.24-4.17,6.41-.64,4.17-1.92,9.62,2.56,13.14,4.49,3.53,6.09,3.2,8.01,1.28,1.93-1.92,1.6-6.41-.64-4.17-2.24,2.25-6.41.96-4.81-2.88,1.6-3.84,5.77-6.41,9.93-4.17,4.17,2.24,4.49,8.97,4.81,10.58.32,1.6-6.09,21.15-6.09,21.15l-37.49-14.1,2.88-27.56s-3.84-.32-7.69.32c-3.84.64-7.69-.96-9.29-5.45-1.6-4.49-.96-9.61,2.89-10.89,3.85-1.28,6.41-3.53,4.8-4.49-1.6-.96-3.53-4.8,1.29-4.17,4.8.64,9.29,1.92,9.29-1.6s-.32-5.77-.32-5.77l4.8.32-1.93-3.2s1.93-.64,5.45-.64,4.49-.64,4.49-.64c0,0,0-1.6-.32-3.84-.32-2.24.64-4.8.64-4.8,0,0,3.2,1.28,6.09,1.92,2.89.64,5.13,2.56,6.73,1.6s3.53-1.6,3.53.32.96,3.2,3.53,4.8c2.56,1.61,6.09,1.93,6.09,1.93,0,0-3.2-3.85-4.17-6.41-.96-2.56-1.6-3.85-2.88-5.13-1.28-1.29,1.6-8.97,1.6-8.97l20.51-16.99,1.93,11.21s-6.09,1.29-7.69,4.17c-1.6,2.88.96,4.49.96,4.49l2.24-3.2s.64,0,3.53,2.56c2.88,2.56,4.48,1.92,6.09.96,1.6-.96,4.49-1.6,5.45,1.28.96,2.89.32,5.13,2.56,3.85s3.84-1.6,3.2.96c-.64,2.56.96,3.52,3.2,1.93,2.24-1.6,3.52-3.21,8.01.32,4.48,3.53,3.84,7.05,3.84,7.05l3.84-3.2.96,3.84s1.28,2.24,2.56,3.84c1.28,1.6,2.88,3.53,2.88,3.53,0,0,1.28-4.49,6.09-5.13,4.8-.64,11.22.96,8.33,5.45-2.89,4.48-4.8,6.73-4.8,6.73,0,0,15.7-3.53,27.88-10.89,12.17-7.37,24.99-7.05,24.99,14.42s-4.17,18.9-10.57,25.31"/>
    <path class="cls-4" d="m142.49,222.52s-2.56,11.21.32,18.26c2.89,7.05,7.69,12.18,13.78,12.18s11.54-2.24,13.14-3.53c1.6-1.28,3.21-.96,1.93.64-1.28,1.6-6.73,6.09-16.02,5.77-9.29-.32-15.06-8.33-15.7-16.66-.64-8.33,2.56-16.66,2.56-16.66"/>
    <path class="cls-5" d="m274.19,186.95c-4.17-.96-5.45-1.92-8.01.64-2.56,2.56-3.2,3.84-5.77,3.53-2.56-.32-2.89,0-5.13,3.52-2.24,3.53-5.13,6.09-6.41,6.73-1.28.64-.64,2.24,1.6,2.24s3.2,1.28,1.28,2.56c-1.93,1.28-3.21,5.45,0,5.45s3.2-.64,6.41-.96c3.21-.32,5.13-1.28,6.73-3.2,1.6-1.93,11.86-10.9,11.86-10.9l4.17-9.93-6.73.32"/>
    <path class="cls-9" d="m195.04,321.54c0,3.2-.32,9.61-3.21,11.53-2.88,1.93-4.48,7.37-2.56,10.57,1.92,3.21,3.53,4.81,6.09,3.53,2.56-1.28,4.8-2.56,4.8-2.56l-3.2,3.85.64,2.24s-2.24,1.28-3.53,2.88c-1.28,1.6-3.2,6.41-3.2,6.41,0,0-1.28,5.44-4.49,6.08-3.2.64-8.65.96-8.65.96,0,0,.64-2.56,1.28-4.17.64-1.6,1.28-3.53,1.28-3.53,0,0-2.88,1.92-5.13,0-2.24-1.93-2.88-3.85-2.88-5.13s0-2.88-1.93-2.24c-1.92.64-10.57,4.17-19.54-1.93-8.97-6.09-9.29-14.42-7.69-19.23,1.6-4.81,2.88-4.81,5.77-4.17,2.89.64,6.09-.64,6.09.96s-1.93,4.49-3.53,3.53c-1.6-.96-2.56.96-1.93,2.56.64,1.6,2.56,5.44,5.13,5.77,2.56.32,5.45-.32,5.45-.32,0,0-3.2-1.6-3.53-4.16-.32-2.57-.32-6.09,1.6-7.05,1.92-.96,2.88-2.88,2.88-2.88,0,0-3.2-3.52-1.92-6.09,1.28-2.56,3.84-5.13,7.05-5.45,3.21-.32,6.41.96,6.41.96,0,0-.64,1.6-2.24,3.2-1.6,1.6-1.6,3.52,1.29,5.13,2.88,1.6,6.09.96,7.69-1.28,1.6-2.25,2.56-6.73,2.56-6.73l4.49,1.93,8.65,4.81"/>
    <path class="cls-5" d="m200.49,349.74c1.92-.32,2.89-.32,2.89-.32l.32-2.88s-1.28-1.6-2.88-.96c-1.6.64-2.89,2.89-2.89,2.89,0,0,.65,1.6,2.56,1.28m-6.09,9.93c3.2,2.89,4.49,1.29,8.65-.64,4.17-1.93,2.56-3.21,2.56-6.09s-3.2.64-6.41.96c-3.2.32-4.81-1.45-3.52-5.13,2.24-6.41,9.83-5.19,13.78-1.6,3.53,3.2,3.2,6.73.64,11.86-2.56,5.12-6.09,7.69-11.53,9.61-5.45,1.92-9.62-1.6-12.5-4.49-2.88-2.88.64-8.65.64-8.65,2.24-1.6,4.48,1.29,7.69,4.17"/>
    <path class="cls-5" d="m148.58,209.7s-8.65,4.17-14.1,12.82c-5.45,8.65-8.01,19.86-6.41,30.12,1.6,10.26,5.77,16.35,9.29,21.47,3.53,5.13,2.56,8.01,2.24,8.97-.32.96-.32,1.92-.32,1.92,0,0-2.56-1.6-5.77,0-3.2,1.6-5.13,8.65,0,10.26,5.13,1.6,6.09-.96,7.37-2.88,1.28-1.92,2.89-3.21,2.89-3.21,0,0,1.6,4.49,4.49,5.13,2.88.64,8.97,1.92,10.57,3.2,1.6,1.29,3.21,4.17,3.21,4.17,0,0-.96,3.53-2.88,1.93-1.93-1.6-2.24-3.21-2.24-3.21,0,0-1.29-1.28-4.17,0-2.89,1.28-1.93,4.17,2.24,6.09,4.17,1.93,7.69,2.24,10.89.32,3.2-1.92,4.49-3.84,7.69-1.92,3.2,1.92,5.77,5.12,6.41,8.65.64,3.52,5.77,4.17,9.61,6.41,3.84,2.25,4.8,3.2,6.73,6.09,1.93,2.89,2.89,4.17.32,5.77-2.56,1.6-3.53,2.24-3.53,2.24,0,0,3.53,1.6,6.41,0,2.89-1.6,5.77-4.17,6.09-8.97.32-4.81-.64-7.37-2.56-9.93s-2.24-5.77-.96-9.29c1.28-3.52,2.24-5.77,4.17-6.73,1.92-.96,4.17-2.24,4.17-2.24,0,0-3.2-.96-4.8-1.28-1.6-.32-4.17-1.28-1.93-2.25,2.24-.96,10.58-1.6,11.86-10.57,1.28-8.97-1.78-21.03-8.01-18.59-7.38,2.89,1.28,7.37-3.53,11.54-2.23,1.93-7.37,3.84-6.73,0,.6-3.6,6.73-11.86,9.29-16.02,1.44-2.35-.96-4.81-3.2-6.41-2.11-1.5-6.09.64-4.49,2.24,1.6,1.6,2.24,1.6,1.92,3.53-.32,1.92-1.28,1.92-3.2.32-1.92-1.61-3.2-3.85-1.92-5.77,1.28-1.92.96-4.8-.64-5.44-1.6-.64-2.56-.96-2.56-3.21s.96-4.17-2.56-2.88c-3.53,1.28-4.48,1.93-5.77,2.56-1.28.64-1.93,1.29-2.57-.96-.64-2.24-1.28-2.24-2.56-2.88-1.28-.64-2.56-.64-3.2.32-.64.96-4.81.64-3.53,3.2,1.28,2.56,3.2,2.88,1.6,5.44-1.6,2.57-4.17,4.49-10.89,5.13-6.73.64-17.62,4.17-23.07-10.26-5.45-14.42,1.6-23.39,3.85-27.56,2.24-4.17,4.8-7.37,4.8-7.37"/>
    <polygon class="cls-12" points="133.84 233.42 131.6 236.3 131.6 238.54 133.84 239.82 135.76 235.98 133.84 235.66 133.84 233.42"/>
    <polyline class="cls-12" points="130.95 233.74 129.99 239.82 128.71 241.43 130.95 233.74"/>
    <path class="cls-12" d="m130.95,241.43l3.53.96,1.6,2.56-2.24,2.24s-.96,4.17.64,6.73c1.6,2.56,2.24,9.29,4.8,10.89,2.56,1.6,4.49.96,4.49,4.48s1.6,6.73,1.6,11.86-1.92,7.69-5.77,9.93c-3.84,2.24-6.73,2.24-7.37.64s.32-3.53.32-3.53c0,0,.96,2.56,3.52,2.25,2.56-.32,5.77-1.29,6.41-4.81.64-3.53.96-8.01-1.92-10.9-2.89-2.88-5.77-7.69-8.65-16.02-2.88-8.33-2.56-12.5-2.24-14.1.32-1.6,1.28-3.2,1.28-3.2"/>
    <path class="cls-12" d="m144.41,263.22l.64-1.6,1.92,1.6,1.93,2.24-2.24,1.6,2.56,3.85v3.53s2.89,3.84,4.49,4.49c1.6.64,4.49,2.56,4.49,2.56l-.32,2.88s-.96-.32-3.52-1.6c-2.56-1.28-3.53-1.92-3.53-1.92v1.6s1.28,3.21,3.84,4.17c2.56.96,5.13,2.24,5.13,2.24l3.84,8.97s-3.84-1.61-7.37-2.56c-3.52-.96-7.69-1.29-8.65-2.88-.96-1.6-1.6-3.53-1.6-3.53,0,0,2.24-4.17,2.56-7.05.32-2.88-1.28-7.69-1.28-7.69l-1.6-.96.64-2.24-.32-2.56-1.93-3.52.32-1.6"/>
    <polygon class="cls-12" points="158.83 305.52 161.72 306.16 161.72 304.55 158.83 305.52"/>
    <polygon class="cls-12" points="163.64 301.35 165.24 303.91 167.16 302.63 166.84 299.75 165.56 299.43 163.64 301.35"/>
    <path class="cls-12" d="m162.68,290.13l2.56,5.77,3.2-1.6,1.28,4.49-.32,2.56s2.24.32,4.17,1.61c1.92,1.28,5.13,2.88,6.09,4.8.96,1.92,2.56,3.84,2.56,3.84,0,0,.32-1.92,1.6-3.53,1.28-1.6,1.6-3.84,1.6-3.84l-3.85-2.56-.96,2.24h-1.93l.32-2.24.64-1.28s-1.28-2.56-2.24-5.13c-.96-2.56-3.2-4.8-3.2-4.8,0,0-2.56-.32-5.45-.32h-6.09"/>
    <polygon class="cls-12" points="160.44 281.8 161.39 285.97 163 285.65 162.36 282.12 160.44 281.8"/>
    <polygon class="cls-12" points="156.91 271.87 159.47 274.11 161.08 276.68 159.47 277.32 157.23 274.43 156.91 271.87"/>
    <polygon class="cls-12" points="164.6 273.15 163.96 274.43 166.52 276.03 164.6 273.15"/>
    <polygon class="cls-12" points="164.92 283.41 164.92 286.93 171.97 285.65 170.69 283.08 167.49 281.48 168.13 283.72 166.53 284.37 164.92 283.41"/>
    <polygon class="cls-12" points="172.93 282.12 174.22 284.05 176.78 283.08 174.53 281.16 172.93 282.12"/>
    <polygon class="cls-12" points="178.38 283.41 176.78 279.88 178.06 277.96 180.3 280.84 178.38 283.41"/>
    <path class="cls-12" d="m164.6,270.59s.64,1.6,3.53,1.92c2.88.32,4.17-1.92,4.17-1.92l-1.93-1.28s-.32,1.6-1.92,1.28c-1.6-.32-3.84,0-3.84,0"/>
    <polygon class="cls-12" points="172.29 268.02 173.58 270.27 174.53 268.66 172.29 268.02"/>
    <polygon class="cls-12" points="172.93 264.5 176.78 267.71 178.38 263.54 172.93 264.5"/>
    <polygon class="cls-12" points="175.5 262.25 178.06 261.3 178.06 259.37 175.5 262.25"/>
    <path class="cls-12" d="m175.18,258.73l2.24-2.56s.64-.96-.64-2.56c-1.28-1.6-2.88-1.28-3.53.64-.64,1.92-.96,3.84,1.93,4.49"/>
    <path class="cls-12" d="m136.08,247.52s1.6,3.2,2.88,6.09c1.28,2.89,2.89,3.85,2.89,3.85h-2.56s-1.6-2.24-2.24-4.17c-.64-1.93-.96-5.77-.96-5.77"/>
    <path class="cls-12" d="m140.25,251.36s4.81,6.73,9.61,9.93c4.81,3.2,9.93,6.09,12.5,5.77,2.56-.32,3.53-2.24,1.92-3.2-1.6-.96-8.33-3.2-8.33-3.2l2.24-.64,7.69-.96-1.28,2.24,3.2.96s1.92-.96,2.56-2.56c.64-1.6,0-4.49,0-4.49l-13.78,2.56-2.24-1.6-7.05-.96,5.13,2.88-1.6.96-3.2-1.92h-1.93l-5.45-5.77"/>
    <path class="cls-12" d="m177.1,244.31s1.28,2.56.96,5.45c-.32,2.88,1.29,3.21,2.57,5.13,1.28,1.92,3.52-.32,3.52-.32l5.13-3.85v2.25l-8.33,6.73,4.17.64-.32,1.6-2.24.96-.96,3.21,1.28,1.28-1.92,1.28-.32,2.88,1.28,2.89-2.24.64v2.24l4.17,1.92s1.61.64,3.53-1.92c1.92-2.56,1.28-7.37,3.53-7.37s3.85.64,4.49,2.24c.64,1.6,1.6.64,1.6.64,0,0-.64-1.28-.32-3.2.32-1.92,1.93-4.81,1.93-4.81l3.53-1.92.32-1.92s-4.17,2.24-6.41.64c-2.24-1.6-1.92-2.56-4.49-2.56s-4.17-1.28-1.92-2.89c2.24-1.6,4.8-1.92,4.48-4.17-.32-2.24-2.89-1.92-3.53-4.17s-.64-5.13-3.2-3.2c-2.56,1.92-4.8,4.48-5.77,2.56-.96-1.92-3.2-4.17-3.2-4.17l-1.28,1.28"/>
    <polygon class="cls-12" points="178.7 289.82 183.51 299.11 179.66 300.39 179.99 294.62 178.06 291.1 178.7 289.82"/>
    <path class="cls-12" d="m180.62,289.17l.32-2.56,5.13-3.53,8.01,1.6.96-.96-5.13-1.6s1.6-2.24,1.92-3.85c.32-1.6.32-4.81.32-4.81,0,0,2.88,4.49,5.77,5.45,2.89.96,6.09,0,8.65-2.56,2.56-2.56,2.88-5.13,1.28-6.41-1.61-1.28-.96-3.2-.96-3.2,0,0,1.92-2.24,3.84.32,1.92,2.56,4.17,5.13,2.24,8.97-1.92,3.85-4.49,6.09-7.05,7.37-2.56,1.28-4.49,1.6-4.49,1.6l.64.96s4.49-.64,6.41-2.24c1.92-1.6,3.84-3.2,3.84-3.2l-.32,6.41s-2.24,2.89-4.49,3.53c-2.24.64-4.17.64-4.17.64l-4.81-3.21-1.92,1.6,2.88,1.92s-2.56.64-3.84,1.92c-1.28,1.29,1.28,4.17,1.28,4.17l.96,3.2,2.56-2.88,2.89.96-.96,1.92-2.56.64.96,2.89s.64,1.92-.96,4.17c-1.6,2.24-3.53,1.6-3.53,1.6,0,0,.32-.96-1.28-4.8-1.6-3.85-2.88-6.09-4.49-5.77-1.6.32,0,2.24.64,4.17.64,1.92-.64,5.45-.64,5.45,0,0-.32,0-2.24-4.81-1.93-4.81-4.17-7.37-5.13-9.94-.96-2.56-2.56-5.13-2.56-5.13"/>
    <path class="cls-12" d="m187.03,309.04s.32,3.2,3.85,5.45,4.81,2.24,4.81,2.24l3.52,7.69s-3.2-.96-5.13-3.84c-1.92-2.88-5.76-3.2-5.76-3.2l-3.85-4.17,2.56-4.17"/>
    <path class="cls-12" d="m192.8,312.88l8.33,5.13.64-1.6s-2.24-.96-4.17-2.89c-1.92-1.92-4.81-.64-4.81-.64"/>
    <path class="cls-12" d="m191.2,361.27c-.96,1.28,0,2.88,1.6,4.17s3.52,2.88,5.77,1.92c2.24-.96,2.56-1.6,4.17-3.53,1.6-1.92,3.2-2.24,4.8-4.8,1.6-2.56,1.93-3.84,1.6-6.41-.32-2.56-2.24-5.44-2.24-2.88s1.6,6.41-1.6,9.29c-3.2,2.88-5.13,4.8-8.01,3.2-2.88-1.6-6.09-.96-6.09-.96"/>
    <path class="cls-9" d="m203.38,349.42c-1.28,5.13-4.17,12.5-3.21,18.59.96,6.09,2.25,11.86,0,18.59-2.24,6.73-3.84,7.69-5.44,9.62-1.6,1.92-1.93,1.92-.32,4.48,1.6,2.56,1.6,8.01-1.6,9.61-3.2,1.6-5.13.96-7.37,2.24-2.25,1.28-1.6-2.56-3.85-.96-2.24,1.6-3.52,2.24-3.84-.96s-1.28-5.77-3.2-3.53c-1.92,2.24-3.84,3.53-6.41.64-2.56-2.88-3.84-6.73-.64-8.01,3.2-1.29,2.24-5.77,4.8-4.17,2.56,1.6,5.13,4.49,5.13.32s.64-8.97.64-12.5,3.2-6.09,6.09-4.8c2.88,1.28,6.09-1.6,8.33-1.93,2.24-.32,3.52-1.92,2.24-3.85-1.28-1.92-1.28-6.09-.32-9.93.96-3.84,3.2-11.86,4.17-12.82.96-.96,4.8-.64,4.8-.64"/>
    <path class="cls-4" d="m187.35,383.06c2.87-.72,5.13,2.24,2.24,3.53-2.89,1.28-3.53.64-5.45,3.84-1.92,3.21-3.21,2.25-2.24,7.05.96,4.8,1.92,8.65,1.92,8.65l-3.2-2.56s-2.24-4.49-.64-10.26c1.6-5.77,4.8-9.61,7.37-10.26"/>
    <path class="cls-4" d="m191.52,387.87c-3.34.31-5.13,2.56-6.09,5.13-.96,2.57-.64,4.17-.64,4.17,0,0,2.56-2.24,4.49-3.52s5.77-6.09,2.24-5.77"/>
    <path class="cls-4" d="m195.69,388.83c-2.03.29-6.41,5.13-6.09,8.97.32,3.84.32,6.73-.65,8.33-.96,1.6.96,4.49,2.24,2.88,1.28-1.6.96-3.84.64-7.69-.32-3.84.64-6.41,2.89-8.01,2.24-1.6,3.2-4.81.96-4.49"/>
    <polygon class="cls-4" points="185.11 400.69 186.71 402.61 186.39 403.89 184.79 403.25 185.11 400.69"/>
    <polygon class="cls-4" points="177.42 401.01 179.98 406.13 177.42 405.49 177.42 401.01"/>
    <path class="cls-4" d="m173.25,400.69s-5.77.96-4.8,2.88c.96,1.93,3.2,2.56,3.2,2.56,0,0-1.28-2.56,0-3.2,1.28-.65,1.6-2.25,1.6-2.25"/>
    <polygon class="cls-4" points="191.2 379.86 194.08 378.58 193.12 380.18 191.2 379.86"/>
    <polygon class="cls-4" points="194.72 381.46 197.28 382.42 197.28 379.86 194.72 381.46"/>
    <path class="cls-4" d="m166.84,327.3c3.71,1.39,7.37.96,9.62-.64,2.24-1.6,4.17-3.84,4.17-3.84,0,0-7.05,2.56-9.93.96-2.89-1.6-4.8-2.56-4.17-4.17.64-1.6,2.88-3.52,2.88-3.52,0,0-1.6-1.93-4.49,0-2.88,1.92-3.2,4.48-3.53,6.73-.32,2.24,2.89,3.52,5.45,4.48"/>
    <path class="cls-4" d="m159.8,329.55c4.17,0,4.17,1.92,8.65,1.28,4.49-.64,7.05,0,8.97-2.25,1.92-2.24,4.17-4.81,4.17-4.81,0,0,1.6.65-.96,3.21-2.56,2.56-5.13,5.13-7.05,6.09-1.92.96-3.85,1.28-3.85,1.28,0,0,2.57,1.28,5.45-.64,2.88-1.93,5.45-4.17,6.41-5.77.96-1.6,1.92-3.84,1.92-3.84,0,0,.64,2.24-.64,4.81-1.28,2.56-3.2,7.05-7.05,9.61-3.85,2.56-5.77,3.85-8.65,4.17-2.88.32-5.13-.32-5.13-.32l4.48-3.2-2.24-1.28s-2.24.96-4.17-1.92c-1.92-2.89-.32-6.41-.32-6.41"/>
    <path class="cls-4" d="m182.55,331.47s-2.56,6.73-7.69,9.29c-5.13,2.56-12.82,5.13-15.38,3.52-2.56-1.6.64-3.2.64-3.2,0,0-.64-.64-3.53-.32-2.88.32-6.09-1.92-7.37-4.49-1.28-2.56-1.28-5.77-1.28-5.77,0,0-2.89,4.49-.64,6.41,2.24,1.93,6.41,3.52,8.01,5.13,1.6,1.6,2.56,3.84,7.05,3.52s9.61-.64,13.78-3.84c4.17-3.21,6.41-10.26,6.41-10.26"/>
    <path class="cls-4" d="m146.34,341.41c-.64-1.6.64-3.21,3.2-1.6,2.56,1.6,2.88,2.56,5.13,4.17,2.24,1.6,6.09,2.89,10.89,2.24,4.81-.64,10.26-.64,11.86-3.84,1.6-3.21,6.09-9.62,6.09-9.62,0,0-1.28,4.17-2.88,8.65-1.6,4.49-6.09,9.29-12.82,9.61-6.73.32-13.78-.32-16.98-2.88-3.2-2.56-3.2-3.53-4.49-6.73"/>
    <path class="cls-4" d="m187.35,321.86c-1.28,4.17-1.28,6.73-.64,9.29.64,2.56,2.24,1.92,3.85-.64,1.6-2.57,3.2-4.49,2.88-5.77s-6.09-2.89-6.09-2.89"/>
    <path class="cls-4" d="m185.11,336.28c-.81,3.24-.96,5.13-1.6,8.97-.64,3.85-1.6,5.77.32,6.41,1.93.64,2.89,0,4.81.96s4.49-.96,4.49-.96c0,0,1.6-2.24,0-2.88-1.6-.64-3.84-1.92-5.13-4.81-1.28-2.89-.96-5.13-.64-6.41.32-1.28-1.6-3.85-2.25-1.28"/>
    <path class="cls-4" d="m179.66,346.85s-1.6,2.56-2.56,5.13c-.96,2.56-.32,5.45.96,5.45s4.49.64,4.49.64c0,0,1.93-3.21-.32-3.53-2.24-.32-2.89-1.93-2.24-3.53.64-1.6-.32-4.17-.32-4.17"/>
    <polygon class="cls-12" points="254.97 201.69 257.53 199.45 258.17 200.73 255.93 202.97 254.97 201.69"/>
    <polygon class="cls-12" points="259.77 196.56 263.62 194.32 261.05 198.49 258.81 198.81 259.77 196.56"/>
    <path class="cls-12" d="m269.71,190.48l4.49-3.53h-6.41s-1.29,3.85-3.85,4.49c-2.56.64-5.45,1.6-5.45,1.6l-2.24,2.89s1.28-.32,4.81-1.28c3.53-.96,4.8-1.6,4.8-1.6l3.85-2.56"/>
    <polygon class="cls-12" points="254 209.38 255.29 206.82 257.53 207.78 254 209.38"/>
    <path class="cls-4" d="m216.83,233.74c3.2,3.2,7.37,3.2,9.61,3.52,2.24.32,5.77,3.21,7.69,5.13s3.2,4.49.64,6.41c-2.56,1.92-4.48,1.6-6.41-.32-1.93-1.92-2.56-2.56-5.45-2.24-2.88.32-5.77.32-7.69-2.56-1.93-2.89-2.89-5.45-4.17-5.45s-2.24.96-.96,2.88c1.28,1.92,1.6,3.2-.32,5.13s-3.84,2.56-4.17.96c-.32-1.6.96-1.92,1.93-1.92s.96-2.56-.96-2.89c-1.93-.32-2.89,1.6-5.13.32-2.24-1.29-3.84-2.24-4.17-5.45-.32-3.2.64-7.69-.96-8.65-1.6-.96-4.17.32-5.13,2.56-.96,2.24-1.6,2.24-3.2,2.24s-1.6-.32-.96-2.56c.64-2.24-.64-5.45-.96-3.2-.32,2.24-1.93,4.48-3.53,4.8-1.6.32-2.88.32-2.88.32,0,0,2.56-1.28,2.56-3.2s-.64-3.21-1.93-4.49c-1.28-1.28-2.24-2.24-.32-3.53,1.92-1.28,3.84-3.2,2.88-3.84-.96-.64-3.84,0-4.81,1.28-.96,1.28-2.24,2.56-4.17,1.6-1.92-.96-4.48-1.28-6.41,0-1.92,1.28-1.28,3.85,0,5.13,1.28,1.28,3.53,3.85,1.6,4.17-1.92.32-3.52-.96-4.8-2.88-1.28-1.92-2.56-2.89-1.28-4.81s4.81-5.13,3.53-5.45c-1.28-.32-1.28-.64-3.2,1.92-1.93,2.56-5.45,6.09-5.45,6.09,0,0-1.6,1.28-2.56,5.45-.96,4.17-1.92,7.05-.96,9.93.96,2.88,2.24,4.8,2.24,4.8,0,0-3.53-3.52-4.17-8.01-.64-4.49-2.89-9.93,1.92-15.38,4.81-5.45,10.89-10.25,20.19-9.93,9.29.32,14.42,1.28,20.19,3.85,5.77,2.56,11.22,4.17,11.22,4.17l-12.5.32-4.49,2.24,27.56-.64s5.45.32,8.01.96c2.56.64,1.28,1.92-2.24,2.56-3.53.64-6.09,2.56-6.73,4.49s.32,3.2,1.28,4.17"/>
    <path class="cls-4" d="m219.08,230.85c-.32-1.9,1.92-2.56,4.49-2.88,2.56-.32,6.09-2.24,6.09-2.24,0,0-1.93,1.28-.96,4.49.96,3.2,4.17,5.13,4.17,5.13,0,0,.64-.64-.96-2.56-1.6-1.92-1.6-5.13-1.6-5.13l4.17.32s-.64,4.48,1.92,7.37c2.56,2.88,6.09,6.73,6.73,10.89.64,4.17,1.28,8.01,0,9.93-1.28,1.92-2.24,3.85-2.24,3.85,0,0,4.49-2.89,4.8-5.45.32-2.56.96-8.33.96-8.33,0,0,1.6,2.24,1.6,4.17s-.96,7.05-3.85,9.62c-2.89,2.56-6.09,4.16-10.26,4.16s-10.89-.32-10.89-.32l6.09-2.56,3.2-.64h4.49s2.89-1.92,2.56-5.13c-.32-3.2-1.28-6.41-1.28-6.41l-6.09,6.09-1.28-2.56,7.37-5.77s.64-1.93-.96-3.85c-1.6-1.93-.64-4.81-5.77-6.09-5.13-1.28-11.54-.32-12.5-6.09"/>
    <path class="cls-4" d="m219.08,254.89s-4.17.32-2.56,1.92c1.6,1.6,2.56,2.56,3.2.96.64-1.6.64-3.2-.64-2.88"/>
    <path class="cls-4" d="m153.07,219.96c-3.15,5.16-4.8,12.18-1.6,19.23,3.2,7.05,10.57,10.57,10.57,10.57,0,0-3.2,2.56-8.97.96-5.77-1.6-9.29-8.33-9.61-14.74-.32-6.41-1.6-13.46,3.2-18.9,4.81-5.45,7.69-8.33,14.42-9.62,6.73-1.28,12.17-1.6,16.34,0,4.17,1.6,8.33,2.56,8.33,2.56,0,0-9.29-.64-15.38.32-6.09.96-13.78,3.85-17.3,9.61"/>
    <path class="cls-4" d="m167.81,205.22s-8.65-6.73-16.98-5.45c-8.33,1.28-14.1,2.56-18.27,4.49-4.17,1.92-11.21,7.69-11.21,7.69,0,0-3.21,1.28-.96,3.84,2.24,2.56,3.2,1.28,4.8-.96,1.6-2.24,3.2-2.24,6.41-2.24s6.41-.64,7.37-3.2c.96-2.56,4.8-7.05,4.48-4.49-.32,2.56,3.53,5.77,6.41,3.53,2.89-2.24,5.77-3.84,7.69-4.17,1.92-.32,10.25.96,10.25.96"/>
    <path class="cls-4" d="m140.25,197.21c3.84.64,14.74-.32,21.15,2.24,6.41,2.56,22.75,8.65,31.41,12.18s16.66,5.45,24.99,7.37c8.33,1.92,12.82,2.24,12.82,2.24l-3.2-2.24s-13.46-3.2-19.23-7.05c-5.77-3.85-8.01-6.41-12.5-11.53-4.49-5.13-7.37-9.62-7.37-9.62,0,0-2.56,4.17-8.33,3.84-5.77-.32-10.9-2.88-13.46-5.45-2.56-2.56-3.2-2.56-7.37-2.88-4.17-.32-7.37-1.6-7.37-1.6,0,0,.32,4.17-.64,5.45-.96,1.28-3.2,1.28-5.77,1.6-2.56.32-1.6,2.56-1.6,2.56l-3.53,2.88"/>
    <path class="cls-4" d="m229.33,217.39v-2.24s-4.49-2.25-6.73-4.17-3.53-4.49-3.53-4.49c0,0,.64,2.56-.96,3.53-1.6.96-3.84,0-5.13-3.2-1.28-3.2-4.17-6.09-3.85-10.57.32-4.49.96-6.09.96-6.09,0,0-2.56-4.8-4.81-6.73-2.24-1.92-5.45-6.09-5.45-6.09,0,0-3.2-.32-5.13-.32s-3.85-1.92-5.13-2.56c-1.28-.64-2.24,2.25-4.49,1.6-2.24-.64-3.84-4.17-3.84-4.17,0,0-.96,3.84,2.89,10.25,3.84,6.41,11.53,14.1,16.02,18.59,4.49,4.49,9.62,9.62,15.38,12.18,5.77,2.56,13.78,4.49,13.78,4.49"/>
    <path class="cls-4" d="m179.02,190.48c3.48,2.32,8.97-.64,5.77-4.48-3.2-3.85-4.48-6.41-4.8-9.61-.32-3.21.32-5.45.32-5.45,0,0-4.17,3.85-6.09,7.69-1.92,3.85-.96,8.01,4.81,11.86"/>
    <path class="cls-4" d="m171.97,179.26s1.28-3.53,3.53-5.45c2.24-1.92,4.49-3.84,4.49-3.84,0,0,0-.96-2.56-.64-2.56.32-4.81,3.2-4.81,3.2l-2.24,5.45,1.6,1.28"/>
    <path class="cls-4" d="m206.9,183.43s2.56,1.6,3.52,2.88c.96,1.29,1.6,3.2,1.6,3.2,0,0,.96-1.6,1.6-2.56.64-.96.96-2.24.96-2.24,0,0-1.28.96-3.53,0-2.24-.96-4.17-3.21-4.17-3.21v1.92"/>
    <path class="cls-4" d="m218.43,183.43c1.6,1.29,4.49,1.6,3.84,5.45-.64,3.84-.32,10.26-.32,10.26l1.6,2.56s.32-3.52.64-6.41c.32-2.88,2.56-4.48,2.56-4.48,0,0,1.92,1.28,3.2,3.84,1.28,2.56,2.24,2.56,2.24,5.77s.96,4.81.96,4.81c0,0,1.28-.64,1.28-3.21s.32-4.49,2.56-5.77c2.25-1.28,5.13-1.28,5.13-1.28,0,0-2.56,3.2-.96,6.09,1.6,2.88,1.6,4.8,1.6,4.8l2.56.32,3.2-1.28v1.28s-1.6.32-4.17,1.93c-2.56,1.6-3.84-.32-3.84-.32l-2.24-3.53-1.92,1.6.32,2.24,4.49,2.56,3.2,1.93s-4.49,0-8.33.64c-3.84.64-3.2-2.56-5.45-4.17-2.24-1.6-3.84-4.17-3.84-4.17l-1.6.64,5.77,6.73s-3.85,1.92-7.05-2.56c-3.2-4.48-3.85-6.09-4.49-8.65-.64-2.56-.96-4.81-.96-4.81,0,0-1.6,2.88-1.28,6.73.32,3.85-.64,5.77-.64,5.77,0,0-2.88-5.44-4.17-8.97-1.28-3.52-.32-6.41.96-9.29,1.28-2.88,5.13-7.05,5.13-7.05"/>
    <path class="cls-4" d="m262.98,210.34c-4.49,4.17-8.33,6.73-11.22,7.69-2.88.96-4.8.96-4.17,2.88.64,1.93,1.6,2.24,5.77,1.28,4.17-.96,8.97-4.81,10.26-6.41,1.28-1.6-.64-5.45-.64-5.45"/>
    <path class="cls-4" d="m244.71,225.73c6.09-.32,9.93-2.88,11.53-2.24,1.6.64,3.53.64,3.53,3.2s-.64,6.09,1.28,5.13c1.93-.96,5.13-2.56,6.41,0,1.28,2.56,3.85,3.2,1.28,5.77-2.56,2.56-1.28,4.17-1.92,5.13-.64.96-1.28-.96-3.2-3.21-1.93-2.24-3.2-5.77-3.2-5.77,0,0,0,3.84.96,6.73.96,2.88,2.56,2.56,1.6,5.45-.96,2.88-2.88,5.13-5.13,4.49-2.24-.64-.32-2.24.64-3.53.96-1.28,3.2-1.28,1.93-3.85-1.29-2.56-2.25-2.56-3.85-3.84-1.6-1.28-1.6,0-.64-3.21.96-3.2,1.6-10.57.32-8.33-1.28,2.24-.64,5.44-2.88,6.73-2.24,1.28-4.49,4.81-4.49,4.81,0,0,.32-2.56-.96-3.53-1.28-.96-5.45-1.6-7.05-1.92-1.6-.32-1.6-3.53-1.6-3.53,0,0,2.56,0,3.2-1.28.64-1.28,2.24-3.21,2.24-3.21"/>
    <path class="cls-9" d="m202.41,228.61s4.17-2.88,5.77-5.13-1.28-4.81-2.89-6.73c-1.6-1.92-3.84-4.17-.96-5.77,2.88-1.6,5.77-2.88,4.17-5.13-1.6-2.24-2.88-4.8-6.73-4.17-3.85.64-10.89,5.45-6.09,6.73,4.8,1.28,7.69,3.52,4.17,4.8-3.53,1.28-4.49,2.56-3.21,3.85,1.28,1.28,4.17,1.92,3.21,3.84-.96,1.92,0,7.37,2.56,7.69"/>
    <path class="cls-5" d="m168.13,176.7c1.92-6.09,1.28-7.37,1.28-10.58s2.24-7.05,2.56-4.8c.32,2.24,2.56,1.6,4.49,0,1.92-1.6,2.56-3.53,1.6-5.77-.96-2.24-4.81-6.09-1.92-6.41,2.89-.32,7.69-.32,5.45-2.24s-5.13-3.84-.64-4.81c4.49-.96,6.41-.32,7.69-1.92,1.28-1.6,3.53-3.2,1.92-4.8-1.6-1.6,2.56-5.77,4.49-2.89,1.92,2.89.64,5.77,5.77,4.81,5.13-.96,10.26-3.2,6.09-4.81-4.17-1.6-5.45-3.2-.96-3.53,4.48-.32,8.97.96,8.65,2.89-.32,1.92,5.45.96,3.52,2.88-1.92,1.92-2.24,4.49-2.24,8.01s-2.88,4.8-1.28,6.41c1.6,1.6,3.2,3.53,3.84,5.45.64,1.92,5.13-2.56,5.45,0,.32,2.56-.32,6.09-1.6,7.05-1.28.96-2.56,1.28-2.56,4.8s.64,8.65-2.56,10.26c-3.21,1.6-6.09-.64-7.37-.32-1.28.32-2.24-3.2,0-2.88,2.24.32,4.81-3.85,1.93-4.49-2.88-.64-6.41-1.93-7.69.96-1.28,2.89-3.21,5.77-4.81,4.81-1.6-.96-1.6-2.25-1.92-4.17-.32-1.92-1.6-2.25-3.2-.64-1.6,1.6-6.09,3.2-6.09.32s-.64-7.05-6.09-3.84c-5.45,3.2-6.09,2.25-8.01,5.45-1.92,3.2-5.77,4.81-5.77,4.81"/>
    <path class="cls-12" d="m188.32,142.41l-.64,5.77h-2.89s.96,3.53-.32,6.09c-1.28,2.56-4.81,3.85-4.81,3.85,0,0,.96-1.93,0-3.53-.96-1.6-1.92-3.84-1.92-3.84,0,0,2.56-.32,3.53-.96.96-.64,3.84-2.24,2.24-3.53-1.6-1.28-1.93-3.2-1.93-3.2l6.73-.64"/>
    <path class="cls-12" d="m192.48,135.04c.75,3.78-.64,6.09-1.92,8.65-1.28,2.56-1.28,8.33-1.28,8.33l2.56-1.93v-4.49l6.41.32-2.56-2.88,1.92-.96,6.09,1.28,6.41-6.73,1.28.96-4.81,8.01s.96,3.53,3.2,1.93c2.24-1.6,2.88-4.17,3.2-7.69.32-3.52-.64-9.93-3.52-6.41-2.89,3.52-6.73,8.01-9.94,7.37-3.2-.64-5.45,1.6-5.45,1.6,0,0,.96-2.57.96-4.81s-.96-4.17-.96-4.17c0,0-1.92,0-1.6,1.6"/>
    <path class="cls-12" d="m192.16,153.31c1.13,1.42,2.56,1.6,3.84,0,1.28-1.6,0-3.85-1.6-2.88-1.6.96-3.53,1.28-2.24,2.88"/>
    <path class="cls-12" d="m199.21,149.14c-.64-.96.96-3.85,3.2-1.6,2.24,2.24,4.17,5.13,3.84,8.97-.32,3.85-.64,5.77-1.92,6.73s.32,2.88.32,2.88l-2.88,3.85-1.6-2.89-2.56-1.28.32-3.2s2.88-2.56,2.88-7.05-1.6-6.41-1.6-6.41"/>
    <path class="cls-12" d="m209.78,151.06s3.85-2.88,4.49.32,1.28,6.41,3.84,6.41,3.53.96,2.24,3.2c-1.28,2.24-4.17,3.2-6.41.64-2.24-2.56-4.48-4.17-4.17-6.41.32-2.25,0-4.17,0-4.17"/>
    <path class="cls-12" d="m207.54,163.24c1.02-2.56,3.84-3.85,5.13-1.6,1.28,2.24,2.24,4.81,3.85,4.81s2.88,3.52,1.28,5.77c-1.6,2.24-4.49,2.24-4.49,2.24,0,0,.32-.96.64-3.2.32-2.24-1.28-5.77-3.84-4.8-2.56.96-4.17,1.28-4.17-.32s.96-1.28,1.6-2.88"/>
    <path class="cls-12" d="m174.85,167.41c2.25-3.21,2.88-5.77,7.37-5.45,4.48.32,6.41,1.29,6.41,1.29l-2.89,2.88s-1.6-1.28-4.17-1.6c-2.56-.32-3.2,1.28-4.49,2.56s-2.24.32-2.24.32"/>
    <path class="cls-12" d="m190.56,157.47c1.6-.96,3.53-1.92,5.13,0,1.6,1.92,2.24,4.17.32,4.17s-2.56-.64-2.89-2.24c-.32-1.6-2.56-1.92-2.56-1.92"/>
    <path class="cls-9" d="m473.19,221.44s-.96-3.52-2.88-4.17c-1.93-.64-4.81-.32-7.06-.96-2.24-.64-7.69-.96-7.69-.96l4.81,5.45s4.48-.32,6.41-.96c1.92-.64,6.41,1.6,6.41,1.6m-169.52-10.89c0-21.47,12.82-21.79,24.99-14.42,12.18,7.37,27.88,10.89,27.88,10.89,0,0-1.92-2.24-4.8-6.73-2.89-4.49,3.52-6.09,8.33-5.45,4.81.64,6.09,5.13,6.09,5.13,0,0,1.6-1.93,2.88-3.53,1.28-1.6,2.56-3.85,2.56-3.85l.96-3.84,3.84,3.2s-.64-3.53,3.85-7.05c4.49-3.53,5.77-1.93,8.01-.32,2.25,1.6,3.85.64,3.2-1.92-.64-2.56.96-2.24,3.2-.96,2.25,1.28,1.6-.96,2.56-3.85s3.85-2.24,5.45-1.28c1.6.96,3.2,1.6,6.09-.96,2.88-2.56,3.52-2.56,3.52-2.56l2.25,3.2s2.56-1.6.96-4.49c-1.61-2.88-7.69-4.17-7.69-4.17l1.92-11.21,20.51,16.98s2.88,7.69,1.6,8.97c-1.28,1.28-1.92,2.56-2.88,5.13-.96,2.56-4.17,6.41-4.17,6.41,0,0,3.52-.32,6.09-1.92,2.56-1.6,3.52-2.88,3.52-4.8s1.93-1.28,3.53-.32c1.61.96,3.84-.96,6.73-1.6,2.89-.64,6.09-1.92,6.09-1.92,0,0,.96,2.56.64,4.81-.32,2.24-.32,3.84-.32,3.84,0,0,.96.64,4.48.64s5.45.64,5.45.64l-1.92,3.2,4.8-.32s-.32,2.25-.32,5.77,4.49,2.24,9.29,1.6c4.8-.64,2.89,3.2,1.28,4.17-1.6.96.96,3.2,4.81,4.49,3.85,1.28,4.48,6.41,2.88,10.89-1.6,4.49-5.44,6.09-9.29,5.44-3.84-.64-7.69-.32-7.69-.32l2.89,27.56-37.49,14.1s-6.41-19.55-6.09-21.15c.32-1.6.64-8.33,4.81-10.57,4.17-2.24,8.33.32,9.94,4.17,1.6,3.85-2.56,5.13-4.81,2.88-2.25-2.24-2.57,2.24-.64,4.17,1.93,1.92,3.53,2.24,8.01-1.28,4.49-3.53,3.2-8.97,2.56-13.14-.64-4.17-4.17-6.41-4.17-6.41,0,0-3.2,3.85-6.09,6.41-2.88,2.56-7.69-1.28-8.33-2.56-.64-1.28,1.29-2.88,4.49-3.85,3.21-.96.32-3.2-2.89-3.52-3.2-.32-4.48,4.8-6.08,6.73-1.61,1.92.64,2.24,2.88,3.53,2.24,1.28-1.6,2.56-3.85,2.56s-3.53-.64-6.41.64c-2.89,1.28-4.49-.32-6.73-4.17-2.25-3.84-1.93,3.21-1.29,5.45.64,2.24-1.6,5.77-3.53,6.73-1.92.96-4.48.32-3.84,1.28.64.96-.32,5.13-2.24,7.05-1.92,1.93-5.77-.96-7.37-2.56s-1.6-4.17-1.6-4.17c0,0-3.84,2.24-8.01,1.92-4.17-.32-4.49,3.85-5.45,7.05-.96,3.21.64,4.49,2.56,5.77,1.92,1.28,3.2-.96,3.2-.96,0,0-.96-1.28-3.2-1.6-2.25-.32-.64-2.24,1.28-4.49,1.92-2.24,2.24-2.24,6.41-.32,4.16,1.93,2.56,8.01-.32,10.57-2.88,2.57-10.89,3.53-21.47,1.92-10.57-1.6-10.57-10.25-11.21-15.38-.64-5.13,2.56-6.09,2.56-6.09,0,0-1.28-.64-4.17-1.6-2.88-.96-1.6-4.17-1.6-4.17l-1.92,2.24s-.64,2.56,2.24,4.16c2.89,1.6.96,3.21-2.24,6.09-3.21,2.89-6.73,1.92-10.89-.96-4.17-2.88-3.53-6.41-3.21-8.97.32-2.56-2.89-2.89-2.89-2.89l-.96,5.45s-6.89-3.36-13.46-9.93c-6.41-6.41-10.57-3.85-10.57-25.32"/>
    <path class="cls-5" d="m326.1,189.71c4.17-.96,5.45-1.92,8.01.64,2.56,2.56,3.2,3.84,5.77,3.52,2.56-.32,2.89,0,5.13,3.53,2.24,3.52,5.13,6.09,6.41,6.73,1.28.64.64,2.24-1.61,2.24s-3.2,1.28-1.28,2.56c1.92,1.28,3.2,5.45,0,5.45s-3.21-.64-6.41-.96c-3.2-.32-5.13-1.28-6.73-3.2-1.6-1.92-11.86-10.89-11.86-10.89l-20.83-13.66,23.39,4.04"/>
    <path class="cls-9" d="m405.25,324.3c0,3.21.32,9.62,3.21,11.54,2.88,1.92,4.49,7.37,2.56,10.57-1.92,3.2-3.53,4.81-6.09,3.53-2.56-1.28-4.8-2.56-4.8-2.56l3.2,3.84-.64,2.24s2.24,1.28,3.52,2.88c1.28,1.6,3.21,6.41,3.21,6.41,0,0,1.28,5.45,4.48,6.09,3.2.64,8.65.96,8.65.96,0,0-.64-2.56-1.28-4.17-.65-1.6-1.29-3.53-1.29-3.53,0,0,2.89,1.92,5.13,0,2.24-1.92,2.89-3.84,2.89-5.12s0-2.89,1.92-2.25c1.92.64,10.58,4.17,19.55-1.92,8.97-6.09,9.29-14.42,7.69-19.23-1.6-4.81-2.89-4.81-5.77-4.17-2.88.65-6.09-.64-6.09.96s1.92,4.49,3.53,3.53c1.6-.96,2.56.96,1.93,2.56-.64,1.6-2.56,5.45-5.13,5.77-2.57.32-5.45-.32-5.45-.32,0,0,3.21-1.6,3.53-4.17.32-2.56.32-6.09-1.6-7.05-1.92-.96-2.88-2.89-2.88-2.89,0,0,3.2-3.53,1.93-6.09-1.28-2.56-3.85-5.13-7.05-5.45-3.2-.32-6.41.96-6.41.96,0,0,.64,1.6,2.24,3.21,1.6,1.6,1.6,3.52-1.28,5.13-2.89,1.6-6.09.96-7.69-1.29-1.6-2.24-2.56-6.73-2.56-6.73l-4.49,1.92-8.65,4.8"/>
    <path class="cls-5" d="m402.37,351.22s-1.28-2.25-2.89-2.89c-1.6-.64-2.88.96-2.88.96l.32,2.88s.96,0,2.88.32c1.93.32,2.56-1.28,2.56-1.28m11.22,7.05s3.52,5.77.64,8.65c-2.89,2.89-7.05,6.41-12.5,4.49-5.45-1.93-8.98-4.49-11.54-9.61-2.56-5.13-2.89-8.65.64-11.86,3.95-3.59,11.53-4.81,13.78,1.6,1.29,3.68-.32,5.45-3.53,5.13-3.2-.32-6.41-3.85-6.41-.96s-1.6,4.16,2.57,6.09c4.16,1.92,5.45,3.52,8.65.64,3.21-2.89,5.45-5.77,7.69-4.17"/>
    <path class="cls-5" d="m451.72,212.47s8.65,4.17,14.1,12.82c5.44,8.65,8.01,19.87,6.41,30.12-1.6,10.26-5.77,16.35-9.29,21.47-3.53,5.13-2.56,8.01-2.24,8.97s.32,1.92.32,1.92c0,0,2.56-1.6,5.77,0,3.2,1.6,5.12,8.65,0,10.26-5.13,1.6-6.09-.96-7.37-2.89-1.28-1.92-2.88-3.2-2.88-3.2,0,0-1.6,4.49-4.49,5.13-2.88.64-8.98,1.92-10.58,3.21-1.6,1.28-3.2,4.17-3.2,4.17,0,0,.96,3.53,2.88,1.92,1.92-1.6,2.24-3.2,2.24-3.2,0,0,1.28-1.28,4.17,0,2.88,1.28,1.92,4.16-2.24,6.09-4.17,1.92-7.69,2.24-10.89.32-3.21-1.92-4.49-3.84-7.69-1.92-3.21,1.92-5.77,5.13-6.41,8.65-.64,3.52-5.77,4.17-9.61,6.41-3.84,2.24-4.81,3.2-6.73,6.09s-2.88,4.17-.32,5.77c2.56,1.6,3.52,2.25,3.52,2.25,0,0-3.52,1.6-6.41,0-2.88-1.61-5.77-4.17-6.09-8.98-.31-4.81.64-7.37,2.57-9.93,1.92-2.56,2.24-5.77.96-9.29-1.28-3.52-2.25-5.77-4.17-6.73s-4.17-2.24-4.17-2.24c0,0,3.2-.96,4.8-1.29,1.61-.32,4.17-1.28,1.93-2.24-2.24-.96-10.57-1.6-11.86-10.57-1.28-8.97,1.78-21.02,8.02-18.59,7.37,2.89-1.28,7.37,3.53,11.53,2.23,1.93,7.37,3.84,6.73,0-.6-3.6-6.73-11.86-9.29-16.02-1.44-2.35.96-4.81,3.21-6.41,2.1-1.5,6.09.64,4.48,2.24-1.6,1.6-2.24,1.6-1.92,3.53.32,1.92,1.28,1.92,3.21.32,1.92-1.6,3.2-3.85,1.92-5.77-1.29-1.93-.96-4.81.64-5.45,1.6-.64,2.56-.96,2.56-3.2s-.96-4.17,2.56-2.89c3.53,1.28,4.49,1.93,5.77,2.56,1.28.64,1.92,1.28,2.56-.96.64-2.24,1.28-2.24,2.56-2.88,1.28-.64,2.56-.64,3.2.32.64.96,4.81.64,3.53,3.2-1.29,2.56-3.21,2.88-1.61,5.45,1.61,2.56,4.17,4.49,10.9,5.13,6.73.64,17.62,4.17,23.07-10.25,5.44-14.42-1.6-23.39-3.85-27.56-2.25-4.17-4.8-7.37-4.8-7.37"/>
    <polygon class="cls-12" points="466.46 236.18 468.7 239.06 468.7 241.31 466.46 242.59 464.53 238.74 466.46 238.42 466.46 236.18"/>
    <polygon class="cls-12" points="469.34 236.5 470.31 242.59 471.59 244.19 469.34 236.5"/>
    <path class="cls-12" d="m469.34,244.19l-3.53.96-1.6,2.56,2.24,2.24s.96,4.17-.64,6.73c-1.6,2.56-2.24,9.29-4.81,10.89-2.56,1.6-4.48.96-4.48,4.49s-1.6,6.73-1.6,11.86,1.92,7.69,5.77,9.93c3.84,2.24,6.73,2.24,7.37.64.64-1.6-.32-3.52-.32-3.52,0,0-.96,2.56-3.53,2.24-2.57-.32-5.77-1.28-6.41-4.81-.64-3.53-.96-8.01,1.93-10.89,2.88-2.88,5.77-7.69,8.65-16.02,2.88-8.33,2.56-12.5,2.24-14.1-.31-1.6-1.28-3.2-1.28-3.2"/>
    <path class="cls-12" d="m455.88,265.98l-.64-1.6-1.92,1.6-1.92,2.24,2.24,1.6-2.56,3.84v3.53s-2.89,3.84-4.49,4.49c-1.6.64-4.49,2.56-4.49,2.56l.32,2.89s.96-.32,3.53-1.6c2.56-1.28,3.53-1.92,3.53-1.92v1.6s-1.28,3.2-3.85,4.17c-2.56.96-5.12,2.24-5.12,2.24l-3.85,8.97s3.85-1.6,7.37-2.56c3.53-.96,7.69-1.28,8.65-2.88.96-1.61,1.6-3.53,1.6-3.53,0,0-2.24-4.17-2.56-7.05-.32-2.88,1.28-7.69,1.28-7.69l1.6-.96-.64-2.24.32-2.56,1.93-3.52-.32-1.6"/>
    <rect class="cls-12" x="438.58" y="307.32" width="2.88" height="1.6"/>
    <polygon class="cls-12" points="436.66 304.11 435.05 306.67 433.13 305.39 433.45 302.51 434.73 302.19 436.66 304.11"/>
    <path class="cls-12" d="m437.62,292.9l-2.56,5.77-3.21-1.6-1.28,4.49.32,2.56s-2.24.32-4.17,1.6-5.13,2.88-6.09,4.8c-.96,1.92-2.56,3.85-2.56,3.85,0,0-.32-1.93-1.6-3.53-1.29-1.6-1.6-3.84-1.6-3.84l3.84-2.56.96,2.24h1.93l-.32-2.24-.65-1.28s1.29-2.56,2.25-5.13c.96-2.56,3.2-4.81,3.2-4.81,0,0,2.57-.32,5.45-.32h6.09"/>
    <polygon class="cls-12" points="439.86 284.56 438.9 288.73 437.3 288.41 437.94 284.89 439.86 284.56"/>
    <polygon class="cls-12" points="443.39 274.63 440.82 276.88 439.22 279.44 440.82 280.08 443.06 277.2 443.39 274.63"/>
    <polygon class="cls-12" points="435.7 275.92 436.34 277.2 433.77 278.8 435.7 275.92"/>
    <polygon class="cls-12" points="435.38 286.17 435.38 289.69 428.32 288.41 429.61 285.85 432.81 284.25 432.17 286.49 433.77 287.13 435.38 286.17"/>
    <polygon class="cls-12" points="427.36 284.89 426.08 286.81 423.52 285.85 425.76 283.93 427.36 284.89"/>
    <polygon class="cls-12" points="421.92 286.17 423.52 282.64 422.24 280.72 419.99 283.61 421.92 286.17"/>
    <path class="cls-12" d="m435.7,273.35s-.64,1.6-3.53,1.92-4.17-1.92-4.17-1.92l1.92-1.29s.32,1.61,1.92,1.29c1.6-.32,3.85,0,3.85,0"/>
    <polygon class="cls-12" points="428.01 270.79 426.72 273.03 425.76 271.43 428.01 270.79"/>
    <polygon class="cls-12" points="427.36 267.26 423.52 270.47 421.92 266.3 427.36 267.26"/>
    <polygon class="cls-12" points="424.8 265.02 422.24 264.06 422.24 262.14 424.8 265.02"/>
    <path class="cls-12" d="m425.12,261.5l-2.24-2.56s-.64-.96.64-2.56c1.28-1.6,2.88-1.29,3.52.64.65,1.92.97,3.85-1.92,4.49"/>
    <path class="cls-12" d="m464.21,250.28s-1.6,3.2-2.88,6.09c-1.29,2.89-2.89,3.85-2.89,3.85h2.56s1.6-2.24,2.24-4.17c.64-1.93.96-5.77.96-5.77"/>
    <path class="cls-12" d="m460.05,254.12s-4.81,6.73-9.62,9.93c-4.8,3.2-9.93,6.09-12.49,5.77-2.56-.32-3.53-2.24-1.92-3.2,1.6-.96,8.33-3.21,8.33-3.21l-2.25-.64-7.69-.96,1.28,2.24-3.2.96s-1.93-.96-2.57-2.56c-.64-1.6,0-4.49,0-4.49l13.78,2.56,2.24-1.61,7.05-.96-5.13,2.88,1.6.96,3.2-1.92h1.92l5.45-5.77"/>
    <path class="cls-12" d="m423.2,247.07s-1.28,2.56-.96,5.45c.32,2.88-1.28,3.2-2.56,5.13-1.29,1.92-3.53-.32-3.53-.32l-5.13-3.84v2.24l8.33,6.73-4.17.64.32,1.6,2.24.96.96,3.2-1.28,1.28,1.92,1.28.32,2.88-1.29,2.89,2.24.64v2.24l-4.17,1.92s-1.6.64-3.52-1.92c-1.93-2.56-1.29-7.37-3.53-7.37s-3.85.64-4.49,2.24c-.64,1.6-1.6.64-1.6.64,0,0,.64-1.28.32-3.2-.32-1.92-1.92-4.8-1.92-4.8l-3.53-1.92-.32-1.93s4.17,2.24,6.41.64c2.25-1.6,1.92-2.56,4.49-2.56s4.17-1.28,1.92-2.89c-2.24-1.6-4.8-1.92-4.49-4.17.32-2.24,2.88-1.92,3.53-4.17.64-2.24.64-5.13,3.21-3.2,2.56,1.93,4.8,4.49,5.77,2.56.96-1.92,3.2-4.17,3.2-4.17l1.28,1.28"/>
    <polygon class="cls-12" points="421.6 292.58 416.79 301.87 420.63 303.15 420.31 297.39 422.24 293.86 421.6 292.58"/>
    <path class="cls-12" d="m419.67,291.94l-.32-2.56-5.12-3.52-8.01,1.6-.96-.96,5.13-1.6s-1.6-2.24-1.92-3.85c-.32-1.6-.32-4.8-.32-4.8,0,0-2.88,4.49-5.77,5.45-2.89.96-6.09,0-8.65-2.57-2.56-2.56-2.88-5.13-1.28-6.41,1.6-1.28.96-3.2.96-3.2,0,0-1.92-2.24-3.85.32-1.92,2.56-4.16,5.13-2.24,8.97,1.93,3.84,4.49,6.09,7.05,7.37,2.56,1.28,4.48,1.6,4.48,1.6l-.64.96s-4.49-.64-6.41-2.24c-1.93-1.6-3.85-3.2-3.85-3.2l.32,6.41s2.24,2.88,4.49,3.53c2.25.64,4.17.64,4.17.64l4.8-3.21,1.92,1.6-2.89,1.93s2.57.64,3.85,1.93c1.28,1.28-1.28,4.17-1.28,4.17l-.96,3.2-2.57-2.88-2.88.96.96,1.92,2.57.64-.96,2.89s-.64,1.92.96,4.17c1.6,2.24,3.52,1.6,3.52,1.6,0,0-.32-.96,1.28-4.81,1.6-3.85,2.88-6.09,4.49-5.77,1.6.32,0,2.24-.64,4.17-.64,1.92.64,5.45.64,5.45,0,0,.32,0,2.24-4.81,1.92-4.81,4.17-7.37,5.13-9.93s2.56-5.13,2.56-5.13"/>
    <path class="cls-12" d="m413.26,311.8s-.32,3.21-3.84,5.45c-3.53,2.25-4.81,2.25-4.81,2.25l-3.52,7.69s3.2-.96,5.13-3.84c1.93-2.88,5.77-3.2,5.77-3.2l3.84-4.17-2.56-4.17"/>
    <path class="cls-12" d="m407.49,315.65l-8.33,5.13-.64-1.6s2.24-.96,4.16-2.88c1.92-1.92,4.8-.64,4.8-.64"/>
    <path class="cls-12" d="m409.1,364.03c.96,1.29,0,2.89-1.6,4.17-1.6,1.28-3.52,2.88-5.77,1.92-2.25-.96-2.56-1.6-4.17-3.53s-3.2-2.24-4.8-4.8c-1.6-2.56-1.92-3.84-1.6-6.41.32-2.56,2.24-5.44,2.24-2.88s-1.6,6.41,1.6,9.29c3.2,2.88,5.13,4.8,8.01,3.2,2.88-1.6,6.08-.96,6.08-.96"/>
    <path class="cls-9" d="m396.92,352.18c1.28,5.12,4.17,12.5,3.2,18.59-.96,6.09-2.24,11.86,0,18.59,2.24,6.73,3.84,7.69,5.45,9.61,1.6,1.92,1.92,1.92.32,4.49-1.6,2.56-1.6,8.01,1.6,9.61,3.2,1.6,5.13.96,7.37,2.24,2.24,1.28,1.6-2.56,3.84-.96,2.24,1.6,3.53,2.24,3.84-.96.32-3.2,1.28-5.77,3.2-3.53,1.93,2.24,3.85,3.53,6.41.64,2.56-2.88,3.85-6.73.64-8.01-3.2-1.28-2.24-5.77-4.8-4.17-2.57,1.61-5.13,4.49-5.13.32s-.64-8.97-.64-12.5-3.21-6.09-6.09-4.8c-2.89,1.28-6.09-1.6-8.33-1.92-2.24-.32-3.53-1.92-2.24-3.84,1.28-1.93,1.28-6.09.32-9.93-.96-3.84-3.2-11.86-4.16-12.82-.96-.96-4.81-.64-4.81-.64"/>
    <path class="cls-4" d="m412.94,385.82c-2.87-.71-5.13,2.25-2.25,3.53,2.89,1.28,3.53.64,5.45,3.84,1.92,3.21,3.2,2.25,2.24,7.05-.96,4.8-1.92,8.65-1.92,8.65l3.2-2.56s2.24-4.49.64-10.26c-1.6-5.77-4.8-9.62-7.37-10.26"/>
    <path class="cls-4" d="m408.78,390.63c3.33.31,5.12,2.56,6.09,5.13.96,2.56.64,4.17.64,4.17,0,0-2.56-2.25-4.49-3.53-1.92-1.28-5.77-6.09-2.24-5.77"/>
    <path class="cls-4" d="m404.61,391.59c2.03.29,6.41,5.13,6.09,8.97-.32,3.84-.32,6.73.64,8.33.96,1.6-.96,4.49-2.24,2.88-1.28-1.6-.96-3.84-.64-7.69.32-3.84-.64-6.41-2.89-8.01-2.24-1.6-3.2-4.81-.96-4.49"/>
    <polygon class="cls-4" points="415.18 403.45 413.59 405.37 413.9 406.66 415.51 406.01 415.18 403.45"/>
    <polygon class="cls-4" points="422.88 403.77 420.31 408.9 422.88 408.26 422.88 403.77"/>
    <path class="cls-4" d="m427.04,403.45s5.77.96,4.81,2.88c-.95,1.93-3.2,2.56-3.2,2.56,0,0,1.28-2.56,0-3.2-1.28-.64-1.61-2.24-1.61-2.24"/>
    <polygon class="cls-4" points="409.1 382.62 406.21 381.34 407.17 382.94 409.1 382.62"/>
    <polygon class="cls-4" points="405.57 384.22 403.01 385.18 403.01 382.62 405.57 384.22"/>
    <path class="cls-4" d="m433.45,330.07c-3.71,1.39-7.37.96-9.62-.64-2.24-1.6-4.16-3.85-4.16-3.85,0,0,7.05,2.56,9.93.96,2.88-1.6,4.8-2.56,4.17-4.17-.64-1.6-2.88-3.52-2.88-3.52,0,0,1.6-1.93,4.48,0,2.88,1.92,3.2,4.48,3.53,6.73.32,2.24-2.89,3.53-5.45,4.49"/>
    <path class="cls-4" d="m440.5,332.31c-4.17,0-4.17,1.93-8.66,1.29-4.48-.64-7.05,0-8.97-2.24-1.92-2.25-4.17-4.81-4.17-4.81,0,0-1.6.64.96,3.2s5.13,5.13,7.05,6.09c1.93.96,3.84,1.28,3.84,1.28,0,0-2.56,1.28-5.45-.64-2.88-1.92-5.45-4.17-6.41-5.77-.96-1.61-1.92-3.85-1.92-3.85,0,0-.64,2.24.64,4.8,1.28,2.56,3.2,7.05,7.05,9.61,3.84,2.57,5.77,3.85,8.65,4.17,2.89.32,5.13-.32,5.13-.32l-4.49-3.2,2.25-1.28s2.24.96,4.16-1.92c1.92-2.89.32-6.41.32-6.41"/>
    <path class="cls-4" d="m417.75,334.23s2.56,6.73,7.69,9.29c5.12,2.56,12.82,5.13,15.38,3.52,2.56-1.6-.64-3.2-.64-3.2,0,0,.64-.64,3.53-.32,2.88.32,6.09-1.93,7.37-4.49,1.28-2.56,1.28-5.77,1.28-5.77,0,0,2.88,4.48.64,6.41-2.24,1.92-6.41,3.53-8.01,5.13-1.6,1.6-2.57,3.84-7.05,3.52-4.49-.32-9.62-.64-13.78-3.84-4.17-3.21-6.41-10.26-6.41-10.26"/>
    <path class="cls-4" d="m453.96,344.17c.64-1.6-.64-3.2-3.2-1.6-2.56,1.6-2.88,2.56-5.13,4.17-2.24,1.6-6.09,2.88-10.89,2.24-4.81-.64-10.26-.64-11.86-3.84-1.6-3.21-6.09-9.62-6.09-9.62,0,0,1.28,4.17,2.89,8.65,1.6,4.49,6.08,9.29,12.82,9.62,6.73.32,13.78-.32,16.99-2.89,3.2-2.56,3.2-3.52,4.48-6.73"/>
    <path class="cls-4" d="m412.94,324.62c1.28,4.17,1.28,6.73.64,9.29-.64,2.56-2.24,1.92-3.85-.64-1.6-2.56-3.2-4.49-2.88-5.77.31-1.28,6.09-2.88,6.09-2.88"/>
    <path class="cls-4" d="m415.18,339.04c.81,3.24.96,5.12,1.6,8.97.64,3.85,1.6,5.77-.32,6.41-1.93.64-2.88,0-4.81.96-1.92.96-4.49-.96-4.49-.96,0,0-1.6-2.24,0-2.88,1.6-.65,3.84-1.93,5.13-4.81,1.29-2.88.96-5.13.64-6.41-.32-1.28,1.6-3.85,2.24-1.28"/>
    <path class="cls-4" d="m420.63,349.61s1.6,2.56,2.56,5.13c.96,2.56.32,5.45-.96,5.45s-4.49.64-4.49.64c0,0-1.93-3.2.32-3.53,2.24-.32,2.89-1.92,2.24-3.52-.64-1.6.32-4.17.32-4.17"/>
    <polygon class="cls-12" points="345.33 204.46 342.77 202.21 342.12 203.5 344.37 205.74 345.33 204.46"/>
    <polygon class="cls-12" points="340.52 199.33 336.68 197.09 339.24 201.25 341.49 201.57 340.52 199.33"/>
    <path class="cls-12" d="m330.59,193.24l-4.49-3.53h6.41s1.28,3.85,3.84,4.49c2.56.64,5.45,1.6,5.45,1.6l2.24,2.89s-1.28-.32-4.81-1.28c-3.53-.96-4.8-1.6-4.8-1.6l-3.85-2.56"/>
    <polygon class="cls-12" points="346.29 212.15 345.01 209.58 342.77 210.54 346.29 212.15"/>
    <path class="cls-5" d="m323.17,196.33c3.97,1.59,5.57,1.53,6.21,5.1.64,3.57.43,4.99,2.72,6.19,2.29,1.2,2.37,1.65,2.2,5.82-.17,4.18.73,7.93,1.42,9.19.69,1.26-.75,2.2-2.6.92-1.84-1.28-3.36-.78-2.51,1.37.84,2.15-.48,6.3-3.11,4.47-2.63-1.83-2.27-2.35-4.71-4.45-2.45-2.09-3.48-3.98-3.7-6.47-.22-2.49-3.51-15.71-3.51-15.71l2.25-10.53,5.35,4.11"/>
    <polygon class="cls-12" points="330.53 219.41 329.71 216.11 328.45 216.79 329.01 219.91 330.53 219.41"/>
    <path class="cls-12" d="m323.83,202l-.67-5.67,4.52,4.54s-1.82,3.62-.47,5.89,2.71,4.99,2.71,4.99l-.46,3.62s-.68-1.13-2.48-4.31c-1.81-3.18-2.26-4.54-2.26-4.54l-.9-4.53"/>
    <polygon class="cls-12" points="326.93 226.27 327.34 223.44 324.95 222.94 326.93 226.27"/>
    <path class="cls-4" d="m457.81,225.28s2.56,11.22-.32,18.26c-2.89,7.05-7.69,12.18-13.78,12.18s-11.53-2.24-13.14-3.53c-1.6-1.28-3.2-.96-1.92.64,1.28,1.6,6.73,6.09,16.02,5.77,9.29-.32,15.06-8.33,15.7-16.66.64-8.33-2.56-16.66-2.56-16.66"/>
    <path class="cls-4" d="m383.46,236.5c-3.2,3.2-7.37,3.2-9.61,3.53-2.24.32-5.77,3.2-7.69,5.13-1.93,1.92-3.2,4.49-.64,6.41,2.56,1.92,4.49,1.6,6.41-.32,1.92-1.93,2.56-2.57,5.45-2.24,2.88.32,5.77.32,7.69-2.56,1.92-2.89,2.88-5.45,4.17-5.45s2.24.96.96,2.88c-1.29,1.92-1.61,3.2.32,5.13,1.92,1.92,3.85,2.56,4.17.96.32-1.6-.96-1.92-1.92-1.92s-.96-2.56.96-2.88c1.93-.32,2.89,1.6,5.13.32,2.25-1.28,3.85-2.24,4.17-5.45.32-3.21-.64-7.69.96-8.65,1.6-.96,4.17.32,5.12,2.56.96,2.24,1.61,2.24,3.21,2.24s1.6-.32.96-2.56c-.64-2.24.64-5.45.96-3.2.32,2.24,1.92,4.48,3.52,4.8,1.6.32,2.88.32,2.88.32,0,0-2.56-1.28-2.56-3.21s.64-3.2,1.92-4.49c1.28-1.28,2.24-2.24.32-3.52-1.92-1.28-3.85-3.2-2.88-3.85.96-.64,3.85,0,4.81,1.28s2.24,2.56,4.17,1.6,4.49-1.28,6.41,0c1.92,1.28,1.28,3.84,0,5.13-1.29,1.28-3.52,3.84-1.6,4.17,1.93.32,3.53-.96,4.81-2.88,1.28-1.93,2.56-2.88,1.28-4.8-1.28-1.93-4.81-5.13-3.53-5.45,1.28-.32,1.28-.64,3.2,1.93,1.92,2.56,5.45,6.09,5.45,6.09,0,0,1.6,1.28,2.56,5.45.96,4.17,1.92,7.05.96,9.93s-2.24,4.8-2.24,4.8c0,0,3.52-3.52,4.17-8.01.64-4.49,2.89-9.93-1.93-15.38-4.8-5.45-10.9-10.26-20.19-9.93-9.29.32-14.42,1.28-20.19,3.84-5.77,2.56-11.21,4.17-11.21,4.17l12.5.32,4.48,2.25-27.56-.64s-5.45.32-8.02.96c-2.56.64-1.28,1.92,2.25,2.56,3.52.64,6.09,2.57,6.73,4.49.64,1.93-.32,3.21-1.28,4.17"/>
    <path class="cls-4" d="m381.22,233.61c.32-1.9-1.92-2.56-4.49-2.88-2.56-.32-6.09-2.24-6.09-2.24,0,0,1.92,1.28.96,4.49-.96,3.2-4.16,5.13-4.16,5.13,0,0-.64-.64.96-2.56,1.6-1.92,1.6-5.13,1.6-5.13l-4.17.32s.64,4.49-1.92,7.37c-2.57,2.89-6.09,6.73-6.73,10.89-.64,4.17-1.28,8.01,0,9.93,1.28,1.93,2.24,3.85,2.24,3.85,0,0-4.49-2.89-4.8-5.45-.32-2.56-.96-8.33-.96-8.33,0,0-1.6,2.25-1.6,4.17s.96,7.05,3.84,9.62c2.89,2.56,6.09,4.17,10.26,4.17s10.89-.32,10.89-.32l-6.09-2.56-3.2-.64h-4.49s-2.88-1.92-2.56-5.13c.32-3.2,1.28-6.41,1.28-6.41l6.09,6.09,1.28-2.56-7.37-5.77s-.64-1.93.96-3.85c1.6-1.92.64-4.8,5.76-6.09,5.13-1.28,11.54-.32,12.5-6.09"/>
    <path class="cls-4" d="m381.22,257.65s4.17.32,2.56,1.92c-1.6,1.6-2.56,2.56-3.2.96-.64-1.6-.64-3.2.64-2.89"/>
    <path class="cls-4" d="m447.23,222.72c3.15,5.16,4.8,12.17,1.6,19.23-3.2,7.05-10.57,10.58-10.57,10.58,0,0,3.2,2.56,8.97.96,5.77-1.6,9.29-8.33,9.61-14.74.32-6.41,1.6-13.46-3.21-18.9-4.8-5.45-7.69-8.33-14.41-9.62-6.73-1.28-12.18-1.6-16.35,0-4.17,1.6-8.33,2.56-8.33,2.56,0,0,9.29-.64,15.38.32,6.09.96,13.78,3.84,17.31,9.61"/>
    <path class="cls-4" d="m432.49,207.98s8.65-6.73,16.99-5.45c8.33,1.28,14.1,2.56,18.26,4.49,4.17,1.92,11.22,7.69,11.22,7.69,0,0,3.21,1.29.96,3.85-2.25,2.56-3.21,1.28-4.81-.96-1.6-2.24-3.2-2.24-6.41-2.24s-6.41-.64-7.37-3.2c-.96-2.56-4.81-7.05-4.49-4.49.32,2.56-3.53,5.77-6.41,3.53-2.88-2.24-5.77-3.85-7.68-4.17-1.93-.32-10.26.96-10.26.96"/>
    <path class="cls-4" d="m460.05,199.97c-3.84.64-14.74-.32-21.14,2.24-6.41,2.56-22.76,8.65-31.41,12.18s-16.66,5.45-24.99,7.37-12.82,2.24-12.82,2.24l3.21-2.24s13.46-3.2,19.23-7.05c5.77-3.84,8.01-6.41,12.5-11.53,4.48-5.13,7.37-9.61,7.37-9.61,0,0,2.56,4.17,8.33,3.85,5.77-.32,10.89-2.89,13.46-5.45,2.57-2.56,3.21-2.56,7.37-2.88,4.17-.32,7.37-1.6,7.37-1.6,0,0-.32,4.17.64,5.45.96,1.28,3.2,1.28,5.77,1.6,2.56.32,1.6,2.56,1.6,2.56l3.52,2.88"/>
    <path class="cls-4" d="m370.96,220.16v-2.24s4.49-2.24,6.73-4.17c2.24-1.93,3.52-4.49,3.52-4.49,0,0-.64,2.56.96,3.53,1.6.96,3.85,0,5.13-3.2,1.28-3.2,4.17-6.09,3.85-10.58-.32-4.48-.96-6.09-.96-6.09,0,0,2.56-4.81,4.8-6.73,2.24-1.93,5.45-6.09,5.45-6.09,0,0,3.21-.32,5.13-.32s3.85-1.92,5.13-2.56c1.28-.64,2.25,2.24,4.48,1.6,2.25-.64,3.85-4.17,3.85-4.17,0,0,.96,3.85-2.88,10.26-3.85,6.41-11.53,14.1-16.02,18.58-4.49,4.49-9.61,9.62-15.38,12.18-5.77,2.56-13.78,4.49-13.78,4.49"/>
    <path class="cls-4" d="m421.28,193.24c-3.48,2.32-8.97-.64-5.77-4.49,3.2-3.84,4.48-6.41,4.8-9.61.32-3.21-.32-5.45-.32-5.45,0,0,4.17,3.84,6.09,7.69,1.93,3.84.96,8.01-4.81,11.85"/>
    <path class="cls-4" d="m428.32,182.03s-1.28-3.53-3.52-5.45c-2.24-1.93-4.49-3.85-4.49-3.85,0,0,0-.96,2.56-.64,2.56.32,4.81,3.2,4.81,3.2l2.24,5.44-1.6,1.29"/>
    <path class="cls-4" d="m393.4,186.19s-2.56,1.6-3.52,2.88c-.96,1.29-1.6,3.2-1.6,3.2,0,0-.96-1.6-1.6-2.56-.64-.96-.96-2.24-.96-2.24,0,0,1.28.96,3.53,0s4.17-3.2,4.17-3.2v1.92"/>
    <path class="cls-4" d="m381.86,186.19c-1.6,1.28-4.49,1.6-3.85,5.45.64,3.84.32,10.25.32,10.25l-1.6,2.56s-.32-3.53-.64-6.41c-.32-2.89-2.56-4.49-2.56-4.49,0,0-1.93,1.28-3.21,3.85-1.28,2.56-2.24,2.56-2.24,5.77s-.96,4.81-.96,4.81c0,0-1.28-.64-1.28-3.2s-.32-4.49-2.56-5.77c-2.24-1.28-5.12-1.28-5.12-1.28,0,0,2.56,3.2.96,6.09-1.6,2.88-1.6,4.8-1.6,4.8l-2.56.32-3.2-1.28v1.28s1.6.32,4.17,1.92c2.56,1.6,3.85-.32,3.85-.32l2.24-3.52,1.93,1.6-.32,2.24-4.49,2.56-3.2,1.92s4.49,0,8.33.64c3.85.64,3.21-2.56,5.45-4.17,2.25-1.6,3.85-4.17,3.85-4.17l1.6.64-5.77,6.73s3.85,1.93,7.05-2.56c3.2-4.49,3.85-6.09,4.49-8.65.64-2.56.96-4.81.96-4.81,0,0,1.6,2.88,1.28,6.73-.32,3.84.64,5.77.64,5.77,0,0,2.88-5.45,4.16-8.97,1.29-3.53.32-6.41-.96-9.29-1.28-2.88-5.12-7.05-5.12-7.05"/>
    <path class="cls-4" d="m337.32,213.11c4.49,4.17,8.33,6.73,11.22,7.69,2.89.96,4.81.96,4.17,2.88-.64,1.92-1.6,2.24-5.77,1.28-4.17-.96-8.97-4.81-10.25-6.41-1.28-1.6.64-5.45.64-5.45"/>
    <path class="cls-4" d="m355.59,228.49c-6.09-.32-9.93-2.88-11.54-2.24-1.6.64-3.53.64-3.53,3.2s.65,6.09-1.28,5.13c-1.92-.96-5.13-2.56-6.41,0s-3.84,3.2-1.28,5.77,1.28,4.17,1.93,5.13c.64.96,1.28-.96,3.2-3.2,1.92-2.24,3.2-5.77,3.2-5.77,0,0,0,3.84-.96,6.73-.96,2.89-2.56,2.56-1.6,5.45.96,2.89,2.89,5.13,5.13,4.49,2.24-.64.32-2.24-.64-3.53-.96-1.28-3.21-1.28-1.93-3.85,1.29-2.56,2.25-2.56,3.85-3.84s1.6,0,.64-3.2c-.96-3.2-1.6-10.57-.32-8.33,1.28,2.24.64,5.45,2.88,6.73,2.25,1.28,4.49,4.8,4.49,4.8,0,0-.32-2.56.96-3.53,1.29-.96,5.45-1.6,7.05-1.92,1.6-.32,1.6-3.52,1.6-3.52,0,0-2.56,0-3.2-1.28s-2.24-3.21-2.24-3.21"/>
    <path class="cls-9" d="m397.88,231.37s-4.17-2.89-5.77-5.13c-1.6-2.24,1.28-4.81,2.89-6.73,1.6-1.93,3.84-4.17.96-5.77-2.88-1.6-5.77-2.88-4.16-5.13,1.6-2.25,2.88-4.81,6.73-4.17,3.85.64,10.9,5.45,6.09,6.73-4.81,1.28-7.69,3.53-4.17,4.81,3.52,1.28,4.48,2.56,3.2,3.84-1.28,1.28-4.17,1.92-3.2,3.84.96,1.92,0,7.37-2.56,7.69"/>
    <path class="cls-5" d="m432.17,179.46c-1.92-6.09-1.28-7.37-1.28-10.57s-2.24-7.05-2.57-4.8c-.31,2.24-2.56,1.6-4.48,0-1.92-1.6-2.56-3.53-1.6-5.77.96-2.24,4.8-6.09,1.92-6.41-2.88-.32-7.69-.32-5.45-2.24,2.24-1.92,5.13-3.84.64-4.8-4.48-.96-6.41-.32-7.69-1.93-1.28-1.6-3.52-3.2-1.92-4.8,1.6-1.6-2.56-5.77-4.49-2.88-1.93,2.88-.64,5.77-5.77,4.8-5.12-.96-10.25-3.2-6.09-4.8,4.17-1.6,5.45-3.2.96-3.53-4.49-.32-8.98.96-8.65,2.88.32,1.92-5.45.96-3.53,2.89s2.24,4.49,2.24,8.01,2.88,4.81,1.28,6.41c-1.6,1.6-3.2,3.53-3.84,5.45-.64,1.92-5.13-2.56-5.45,0-.32,2.57.32,6.09,1.6,7.05s2.56,1.28,2.56,4.81-.64,8.65,2.56,10.25c3.2,1.6,6.09-.64,7.37-.32,1.28.32,2.24-3.21,0-2.89-2.25.32-4.81-3.84-1.93-4.49,2.89-.64,6.41-1.92,7.69.96,1.28,2.89,3.2,5.77,4.8,4.81s1.6-2.24,1.92-4.17c.32-1.92,1.6-2.25,3.2-.64,1.6,1.6,6.09,3.2,6.09.32s.65-7.05,6.09-3.84c5.45,3.2,6.09,2.24,8.01,5.44,1.92,3.21,5.77,4.81,5.77,4.81"/>
    <path class="cls-12" d="m411.98,145.17l.64,5.77h2.89s-.96,3.53.32,6.09c1.28,2.56,4.81,3.85,4.81,3.85,0,0-.96-1.92,0-3.53.96-1.6,1.93-3.84,1.93-3.84,0,0-2.57-.32-3.53-.96-.96-.64-3.84-2.24-2.24-3.53,1.6-1.28,1.92-3.2,1.92-3.2l-6.73-.64"/>
    <path class="cls-12" d="m407.82,137.81c-.76,3.78.64,6.09,1.92,8.65,1.28,2.56,1.28,8.33,1.28,8.33l-2.56-1.92v-4.49l-6.41.32,2.56-2.89-1.92-.96-6.09,1.28-6.41-6.73-1.29.96,4.81,8.01s-.96,3.52-3.2,1.93c-2.25-1.6-2.89-4.17-3.21-7.69-.32-3.52.64-9.93,3.53-6.41,2.88,3.53,6.73,8.01,9.93,7.37s5.45,1.6,5.45,1.6c0,0-.96-2.56-.96-4.81s.96-4.17.96-4.17c0,0,1.93,0,1.6,1.6"/>
    <path class="cls-12" d="m408.14,156.07c-1.13,1.42-2.56,1.6-3.85,0-1.28-1.6,0-3.84,1.6-2.88,1.6.96,3.53,1.28,2.25,2.88"/>
    <path class="cls-12" d="m401.09,151.9c.64-.96-.96-3.84-3.21-1.6-2.24,2.24-4.17,5.13-3.84,8.97.32,3.85.64,5.77,1.92,6.73,1.28.96-.32,2.88-.32,2.88l2.89,3.84,1.6-2.88,2.56-1.28-.32-3.2s-2.89-2.56-2.89-7.05,1.6-6.41,1.6-6.41"/>
    <path class="cls-12" d="m390.51,153.83s-3.85-2.89-4.49.32c-.64,3.2-1.28,6.41-3.85,6.41s-3.52.96-2.24,3.2c1.28,2.24,4.17,3.2,6.41.64,2.24-2.56,4.49-4.17,4.17-6.41-.32-2.24,0-4.17,0-4.17"/>
    <path class="cls-12" d="m392.75,166c-1.02-2.56-3.85-3.85-5.13-1.6-1.28,2.24-2.24,4.81-3.84,4.81s-2.89,3.52-1.28,5.77c1.6,2.25,4.48,2.25,4.48,2.25,0,0-.32-.96-.64-3.21-.32-2.24,1.28-5.77,3.85-4.8,2.56.96,4.17,1.28,4.17-.32s-.96-1.28-1.6-2.88"/>
    <path class="cls-12" d="m425.44,170.17c-2.25-3.21-2.89-5.77-7.37-5.45-4.48.32-6.41,1.28-6.41,1.28l2.89,2.88s1.6-1.28,4.16-1.6c2.56-.32,3.21,1.28,4.49,2.56,1.28,1.28,2.25.32,2.25.32"/>
    <path class="cls-12" d="m409.74,160.23c-1.6-.96-3.53-1.92-5.13,0-1.6,1.92-2.24,4.17-.32,4.17s2.56-.64,2.88-2.25c.32-1.6,2.56-1.92,2.56-1.92"/>
    <path class="cls-5" d="m306.88,271.23c7.37-1.92,9.93-3.52,12.18-5.77s3.2-3.21,6.41-2.89c3.2.32,3.85,4.81,3.85,4.81h9.61s2.56-1.92,2.88-5.13c.32-3.2-.96-3.84-3.2-7.69-2.24-3.85-3.2-8.65-9.61-12.82-6.41-4.17-9.29-6.41-10.57-11.53-1.28-5.13-.32-10.57.64-17.95.96-7.37.96-16.02-4.48-20.51-5.45-4.49-33.97-8.97-38.46-2.88-4.49,6.09-13.78,13.14-15.38,22.75-1.6,9.61-.32,17.95,7.37,23.39,7.69,5.45,11.22,6.41,13.14,6.73s4.8,2.89,1.92,4.49c-2.89,1.6-9.61,3.53-11.86,9.29-2.24,5.77-5.13,11.54-2.56,12.18,2.56.64,3.53.96,5.45,4.17,1.92,3.2,4.17,5.13,7.37,3.53,3.2-1.6,6.41-3.53,9.61-3.21,3.2.32,8.33.96,15.7-.96"/>
    <path class="cls-12" d="m262.98,220.6l17.3-1.28,1.61,1.6,1.92-.32s0-2.88-1.29-4.17c-1.28-1.28-3.84-1.28-6.08-1.6-2.25-.32-3.53-.96-6.73-1.6-3.21-.64-4.17-1.6-4.17-1.6,0,0,1.92-3.85,3.84-4.8,1.93-.96,2.24-2.89,3.2-4.49.96-1.6,1.6-2.89,1.6-2.89,0,0,2.56-.96,5.77.64,3.2,1.6,4.49,2.88,4.49,2.88l-2.24,1.92,1.92,1.28,2.89-.64s.96.96,1.92,4.17c.96,3.21,2.24,4.81,2.24,4.81l3.2.96,1.6,2.88s3.85,1.28,5.45,0c1.6-1.28,2.88-2.24,1.28-3.85-1.6-1.6-2.88-2.88-3.84-2.56-.96.32-2.56.96-2.56.96,0,0,1.28-3.85,3.53-3.21,2.24.64,6.09,1.93,6.09,5.45s-3.2,4.8-6.41,4.8-5.13-1.6-5.13-1.6l-13.78,19.87-7.37-2.89.96-1.92-3.84.64s-3.53-.96-5.45-5.77c-1.92-4.8-1.92-7.69-1.92-7.69"/>
    <polyline class="cls-12" points="263.3 208.74 265.22 209.06 265.86 206.18 263.3 208.74"/>
    <polygon class="cls-12" points="266.18 203.61 267.78 204.9 272.91 198.49 270.67 198.49 266.18 203.61"/>
    <path class="cls-12" d="m282.2,195.6s4.81-6.73,6.73-7.37c1.92-.64,15.38,0,19.55,1.93,4.17,1.92,10.25,10.57,8.65,19.86-1.6,9.29-2.24,16.67-.32,22.75,1.92,6.09,5.13,9.62,6.73,13.78,1.6,4.17,3.2,7.05,3.2,7.05h-2.88s-.96-3.2-2.88-7.05c-1.93-3.84-4.81-8.65-6.73-12.5-1.92-3.84-1.6-11.21-.32-16.66,1.28-5.45.64-11.22-.96-14.42-1.6-3.2-2.88-5.77-3.84-4.49-.96,1.28,0,2.88.96,4.81.96,1.92,2.24,12.5.64,18.26-1.6,5.77,0,10.26.96,12.82.96,2.56,1.28,5.45,1.28,5.45,0,0-1.92-3.2-4.8-7.05-2.89-3.84-5.13-8.97-5.13-8.97,0,0,2.56-.32,4.17-2.89,1.6-2.56,3.2-6.09,1.92-8.97-1.28-2.88-3.53-6.41-8.02-6.73-4.48-.32-7.69,1.28-7.69,1.28,0,0-1.92-3.2-4.8-5.77-2.88-2.56-6.41-5.13-6.41-5.13"/>
    <path class="cls-12" d="m294.38,225.73c1.17-1.94,3.53-2.56,4.17-.32.64,2.24,2.88,6.41,4.8,9.29,1.92,2.88,3.53,4.8,5.77,8.65,2.24,3.84,4.17,5.13,3.52,8.33-.64,3.2.32,4.48.32,4.48l2.56-2.24-.96,3.53s-3.2,2.24-3.85,3.53c-.64,1.28-1.28,1.92-1.28,1.92l-2.56,1.92s-.96-2.56-2.57-1.92c-1.6.64-1.6,2.56-1.6,2.56,0,0-1.6,1.92-4.49,2.24-2.89.32-4.17.32-4.17.32,0,0,.96-2.88-.96-2.88s-2.89,2.56-2.89,2.56c0,0-2.56-.32-4.49,0-1.92.32-2.56,3.52-5.13,1.28-2.56-2.25-3.53-4.81-3.53-4.81l-.64-3.53-1.92.32-.96,3.52-2.24-2.88s.96-4.8,4.17-8.33c3.2-3.53,3.52-4.17,7.05-5.13,3.53-.96,3.85-1.93,3.53-3.85-.32-1.92-.32-3.53-.32-3.53,0,0,.64-3.53,3.52-6.73,2.88-3.2,4.17-6.73,5.13-8.33"/>
    <g class="cls-15">
      <path class="cls-13" d="m270.67,250.08l18.26-7.05s-1.6,9.93-3.85,15.7c-2.24,5.77-5.13,11.86-5.13,11.86l-14.74-5.13,5.45-15.38"/>
      <polygon class="cls-13" points="292.46 243.99 296.94 242.39 299.19 269.3 284.77 271.23 292.46 243.99"/>
      <polygon class="cls-13" points="299.19 242.71 301.75 268.66 306.23 267.38 300.79 240.79 299.19 242.71"/>
      <polygon class="cls-13" points="302.71 240.47 310.4 265.14 317.13 258.41 315.85 248.8 307.84 237.58 302.71 240.47"/>
    </g>
    <path class="cls-5" d="m284.45,241.43s4.8,2.24,9.62,1.28c4.8-.96,5.45-1.6,7.37-3.2,1.92-1.6,4.48-3.84,4.48-3.84l.96,1.92s-7.37,5.45-12.5,6.73c-5.13,1.29-9.29.64-9.29.64l-.64-3.53"/>
    <path class="cls-5" d="m283.16,246.23s6.73,3.2,14.1.96c7.37-2.24,10.58-4.17,11.86-5.45,1.28-1.28,3.2,1.6,3.2,1.6,0,0-8.65,4.17-16.02,5.45q-7.37,1.28-10.57.32c-3.21-.96-2.56-2.88-2.56-2.88"/>
    <path class="cls-5" d="m276.44,250.72s7.05,6.09,17.3,4.17c10.26-1.93,12.82-2.89,15.06-4.49,2.24-1.6,4.16-3.85,4.16-3.85l.32,2.56s-2.89,5.45-16.02,6.73c-13.14,1.29-19.23,0-20.51-1.28-1.28-1.28-2.56-2.24-2.56-2.24l2.24-1.6"/>
    <path class="cls-5" d="m272.91,255.53l2.56,3.85s.96-1.93,3.52-1.28c2.56.64.64,4.17,2.89,4.81,2.24.64,3.84.96,6.09-.64,2.24-1.6,4.49-.32,6.41-.32s3.85-.64,7.69-2.56c3.84-1.93,5.77-2.89,8.01-4.17,2.24-1.28,4.49-2.89,4.49-2.89l.96,1.6s-4.81,3.52-9.29,6.09c-4.49,2.56-5.77,2.88-10.25,2.88s-4.81-.64-7.37.96c-2.56,1.6-6.41,3.53-8.01.96-1.6-2.56-2.24-4.49-4.17-4.17s-1.6.64-2.89-.64c-1.28-1.28-2.24-2.89-2.24-2.89l1.6-1.6"/>
    <path class="cls-12" d="m272.27,263.86l-1.92,1.28s1.6,2.56,3.84,3.85c2.25,1.28,2.57,1.92,3.85,3.52,1.28,1.6,1.6,3.2,4.17.96,2.56-2.24,5.45-3.53,9.61-2.88,4.17.64,8.65,1.28,16.67-1.92,8.01-3.2,11.21-6.73,14.74-8.33,3.52-1.6,7.37-4.48,10.57-1.92,3.21,2.56,3.53,3.53,3.21,4.81-.32,1.28,2.88,2.56,3.2,0,.32-2.56-.64-6.09-6.41-6.73-5.77-.64-10.89-1.28-16.02,3.2-5.13,4.49-12.5,7.05-18.26,8.33-5.77,1.28-13.14,0-15.38,1.92-2.24,1.93-3.85,2.56-5.13,0-1.28-2.56-1.6-3.2-3.84-3.52-2.24-.32-2.89-2.56-2.89-2.56"/>
    <g class="cls-17">
      <path class="cls-13" d="m265.86,218.67s0,5.77,3.21,8.65c3.2,2.88,7.04,5.13,7.04,5.13l-5.44,2.56s-5.13,0-7.69-5.44c-2.56-5.45-2.88-10.9-2.88-10.9h5.77"/>
      <path class="cls-13" d="m268.1,218.03s-.64,5.13,1.92,7.69c2.56,2.56,8.33,5.45,8.33,5.45l2.56-1.92s-4.16-2.56-6.41-6.41c-2.25-3.85-1.93-6.41-1.93-6.41l-4.49,1.6"/>
      <path class="cls-13" d="m275.47,217.07s.96,5.13,2.88,7.05,3.2,2.88,3.2,2.88l.96-4.48s-1.6-.96-2.24-3.2c-.64-2.24-4.8-2.24-4.8-2.24"/>
      <path class="cls-13" d="m267.14,213.87s3.84-5.45,5.77-8.97c1.92-3.53,5.77-8.01,5.77-8.01l1.28.64s-3.2,5.13-5.13,9.29c-1.92,4.17-3.85,7.37-3.85,7.37l-3.84-.32"/>
      <polygon class="cls-13" points="274.19 215.15 282.52 198.81 284.77 200.09 277.4 215.15 274.19 215.15"/>
    </g>
    <path class="cls-5" d="m276.27,231.86c-1.12,0-2.04.92-2.04,2.04s.92,2.04,2.04,2.04,2.04-.92,2.04-2.04-.91-2.04-2.04-2.04"/>
    <path class="cls-5" d="m280.17,227.53c-1.13,0-2.04.91-2.04,2.04s.92,2.04,2.04,2.04,2.04-.91,2.04-2.04-.92-2.04-2.04-2.04"/>
    <path class="cls-5" d="m281.77,222.72c-1.12,0-2.04.91-2.04,2.04s.92,2.04,2.04,2.04,2.04-.92,2.04-2.04-.92-2.04-2.04-2.04"/>
    <path class="cls-5" d="m284.65,208.63c-1.13,0-2.04.91-2.04,2.04s.91,2.04,2.04,2.04,2.04-.92,2.04-2.04-.91-2.04-2.04-2.04"/>
    <g class="cls-16">
      <path class="cls-13" d="m283.48,198.49l6.41-11.22,2.88-.32-6.73,14.1,1.6.96,5.77-10.25s2.56-2.24,3.2.32c.64,2.56,2.24,4.8-.64,7.05-2.89,2.24-2.25,1.92-.64,2.88,1.6.96,1.93,3.53.64,4.81-1.28,1.28-5.45.32-5.45.32l-6.09-4.17-4.49-5.45,3.53.96"/>
    </g>
    <rect class="cls-11" x="306.55" y="137.65" width="8.33" height="24.03" transform="translate(-14.81 263.58) rotate(-45.01)"/>
    <rect class="cls-1" x="306.55" y="137.65" width="8.33" height="24.03" transform="translate(-14.81 263.58) rotate(-45.01)"/>
    <rect class="cls-11" x="298.38" y="117.42" width="24.03" height="8.33" transform="translate(4.94 255.1) rotate(-45)"/>
    <rect class="cls-1" x="298.38" y="117.42" width="24.03" height="8.33" transform="translate(4.94 255.1) rotate(-45)"/>
    <rect class="cls-11" x="276.75" y="112.13" width="8.33" height="24.03" transform="translate(-5.51 234.97) rotate(-44.99)"/>
    <rect class="cls-1" x="276.75" y="112.13" width="8.33" height="24.03" transform="translate(-5.51 234.97) rotate(-44.99)"/>
    <rect class="cls-11" x="266.9" y="144.32" width="24.03" height="8.33" transform="translate(-23.3 240.72) rotate(-45)"/>
    <rect class="cls-1" x="266.9" y="144.32" width="24.03" height="8.33" transform="translate(-23.3 240.72) rotate(-45)"/>
    <path class="cls-9" d="m271.31,179.58c1.4-3.15,0-8.33-1.6-9.29-1.6-.96-3.85-2.24-3.2-4.49.64-2.24.32-5.44,3.2-4.49,2.89.96,4.49.32,6.73,1.6s3.21,4.17,5.77,2.24c2.56-1.92,5.13-4.49,8.97-3.21,3.84,1.29,7.05,4.49,8.97,2.25,1.92-2.25,4.17-2.56,7.37-2.25,3.21.32,4.49.64,6.09,1.6,1.61.96,3.53,1.93,4.49.32.96-1.6.32-3.2,2.56-2.88,2.24.32,8.01-.32,7.37,2.88-.64,3.2-.64,5.77-3.85,7.05-3.2,1.28-1.6,2.24-.96,6.09.64,3.85,1.28,6.41,2.56,8.33,1.28,1.93,1.28,3.2-1.28,4.49-2.56,1.28-10.57,1.28-25.63,1.28s-19.87-.32-24.99-2.24c-5.13-1.92-6.09-3.53-6.09-3.53,0,0,2.24-2.88,3.53-5.77"/>
    <rect class="cls-4" x="268.84" y="164.42" width="3.82" height="3.82"/>
    <polygon class="cls-4" points="274.29 167.91 278.45 167.91 277.41 166.18 273.94 164.09 274.29 167.91"/>
    <path class="cls-4" d="m283.53,167.87h5.2v-3.13s-1.74-.69-3.47.35c-1.73,1.04-1.73,2.77-1.73,2.77"/>
    <path class="cls-4" d="m271.03,182.61h5.2v-3.13s-1.73-.7-3.47.35c-1.73,1.04-1.73,2.78-1.73,2.78"/>
    <path class="cls-4" d="m324.14,183.42h-5.2v-3.13s1.73-.7,3.47.35c1.73,1.04,1.73,2.78,1.73,2.78"/>
    <polygon class="cls-4" points="289.87 167.23 290.22 164.45 294.72 164.45 296.81 167.23 289.87 167.23"/>
    <polygon class="cls-4" points="299.5 167.89 306.09 167.89 305.74 164.76 301.93 165.46 299.5 167.89"/>
    <polygon class="cls-4" points="307.52 167.85 307.52 164.72 313.76 165.76 313.76 168.89 307.52 167.85"/>
    <polygon class="cls-4" points="315.54 168.17 315.54 166.08 321.1 165.39 321.44 168.86 315.54 168.17"/>
    <polygon class="cls-4" points="323.02 164.13 323.37 167.95 326.14 165.52 325.8 163.09 323.02 164.13"/>
    <rect class="cls-4" x="273.25" y="169.25" width="5.9" height="3.12"/>
    <rect class="cls-4" x="279.89" y="169.25" width="7.98" height="3.12"/>
    <rect class="cls-4" x="289.83" y="168.92" width="7.98" height="3.13"/>
    <polygon class="cls-4" points="299.5 171.68 299.15 169.6 306.43 169.6 306.09 172.02 299.5 171.68"/>
    <polygon class="cls-4" points="307.49 171.33 308.19 169.25 314.43 169.94 313.74 172.37 307.49 171.33"/>
    <polygon class="cls-4" points="316.13 172 316.13 169.57 323.42 169.57 320.3 172.69 316.13 172"/>
    <polygon class="cls-4" points="274.77 174.4 282.05 174.05 282.75 176.48 275.81 177.18 274.77 174.4"/>
    <polygon class="cls-4" points="283.75 174.07 284.1 177.19 291.04 176.84 291.39 173.72 283.75 174.07"/>
    <polygon class="cls-4" points="293.7 176.52 293.7 173.75 299.95 173.4 300.99 176.87 293.7 176.52"/>
    <polygon class="cls-4" points="301.96 176.47 301.96 174.04 309.95 174.04 310.99 177.51 301.96 176.47"/>
    <polygon class="cls-4" points="312.3 177.45 311.6 174.67 318.55 174.67 319.93 178.48 312.3 177.45"/>
    <polygon class="cls-4" points="316.45 180.1 317.14 183.23 313.67 183.23 313.67 180.45 316.45 180.1"/>
    <polygon class="cls-4" points="312.18 180.18 312.18 182.96 305.93 181.92 305.58 179.49 312.18 180.18"/>
    <rect class="cls-4" x="296.89" y="179.19" width="7.64" height="2.78"/>
    <polygon class="cls-4" points="294.49 181.6 295.32 179.01 288.67 179.44 287.84 182.46 294.49 181.6"/>
    <rect class="cls-4" x="277.99" y="179.18" width="7.63" height="3.13"/>
    <polyline class="cls-4" points="274.42 184.31 282.75 185 283.1 187.43 275.46 187.43 274.42 184.31"/>
    <rect class="cls-4" x="285.37" y="184.63" width="7.29" height="3.13"/>
    <polygon class="cls-4" points="294.67 184.3 295.02 188.11 300.23 187.77 301.62 183.95 294.67 184.3"/>
    <rect class="cls-4" x="303.27" y="183.94" width="8.33" height="4.51"/>
    <rect class="cls-4" x="313.25" y="184.62" width="7.29" height="3.47"/>
    <path class="cls-5" d="m283.16,143.37c2.76,2.07,1.6,4.81,5.77,5.13,4.17.32,8.65.96,11.53.64q2.88-.32,5.45-2.24c2.56-1.92,3.85-3.2,3.53-5.45-.32-2.24-1.6-3.84-.64-6.09.96-2.24,1.6-2.24.64-4.49-.96-2.24-1.28-3.84-4.17-3.2-2.89.64-2.24.96-4.17-.96s-3.84-.96-3.84-.96c0,0-1.92-2.25-6.41-.96-3.14.9-7.05,3.21-7.05,4.81s-4.17,1.6-3.84,2.56c.32.96,3.53,1.92,3.84,4.17.32,2.24-3.2,5.13-.64,7.05"/>
    <path class="cls-8" d="m286.37,133.12q2.56-.96,3.53-2.56c.96-1.6,2.24-4.17,2.24-4.17l1.6,2.89,3.53-3.53s-.96.96.32,2.89c1.28,1.92.96,4.16.96,4.16l3.2-.32,2.56-2.89,2.25,2.89-2.25,2.24.96,3.2s2.24,2.56-.96,2.56-2.88,1.92-1.92,2.56c.96.64-1.28,1.6-1.6,2.56s-3.84.96-3.84.96c0,0-2.88-.32-4.49,0-1.6.32-.96-2.24-.96-2.24,0,0-.96.64-3.2.96-2.24.32-3.21-1.6-3.21-1.6l1.93-1.92s1.28-1.28,0-2.89c-1.28-1.6.64-4.17.64-4.17l-1.28-1.6"/>
    <polygon class="cls-6" points="295.34 115.54 296.5 117.52 298.74 118.01 297.21 119.72 297.44 122 295.34 121.08 293.24 122 293.47 119.72 291.94 118.01 294.18 117.52 295.34 115.54"/>
    <polygon class="cls-6" points="314.57 132.85 315.72 134.83 317.96 135.32 316.44 137.02 316.67 139.31 314.57 138.38 312.47 139.31 312.7 137.02 311.17 135.32 313.41 134.83 314.57 132.85"/>
    <polygon class="cls-6" points="276.11 134.13 277.27 136.11 279.51 136.6 277.98 138.31 278.21 140.59 276.11 139.66 274.01 140.59 274.25 138.31 272.72 136.6 274.96 136.11 276.11 134.13"/>
    <polygon class="cls-6" points="288.93 151.11 290.09 153.09 292.33 153.58 290.8 155.29 291.03 157.57 288.93 156.65 286.83 157.57 287.07 155.29 285.53 153.58 287.78 153.09 288.93 151.11"/>
    <polygon class="cls-6" points="301.43 151.11 302.58 153.09 304.83 153.58 303.3 155.29 303.53 157.57 301.43 156.65 299.33 157.57 299.56 155.29 298.03 153.58 300.28 153.09 301.43 151.11"/>
    <path class="cls-14" d="m50.44,208.96c-.73,1.73-1.16,3.02-1.65,4.18,2.7,1.14,5.35,2.37,9.29,4.04,6.06,2.56,13.55,5.5,16.92,6.93.83-1.69,1.53-3.1,2.43-5.21,2.4-5.68-.24-12.58-8.61-16.12-8.95-3.78-15.13-1.52-18.38,6.18m-28.6-13.11c-1.18,2.79-1.37,3.5-1.71,4.84,4.63,2.18,9.94,4.66,13.21,6.04,3.47,1.46,6.59,2.67,9.86,4.05l1.83-4.33c2.32-5.48.6-12.68-7.58-16.14-6.16-2.6-12.39-2.07-15.61,5.54m12.99,28.29c-10.78-4.56-18.27-7.5-26.98-10.5,1.09-2.03,2.48-4.51,3.82-7.68,2.32-5.48,4.52-12.04,6.84-17.52,4.88-11.54,12.64-17.57,23.13-13.13s10.81,16.02,9.25,22.4l.19.08c2.77-5.75,11.84-15.41,23.49-10.48,13.76,5.81,14.61,19.1,9.76,30.55-2.15,5.1-4.42,9.13-6.46,13.94-1.46,3.47-2.93,7.73-3.63,9.92-8.22-4.16-15.55-7.48-26.33-12.04l-13.09-5.53"/>
    <path class="cls-14" d="m65.71,160.07c-9.51-6.81-16.18-11.32-24.01-16.17,1.51-1.74,3.4-3.86,5.41-6.66,2.01-2.8,3.39-5.28,4.56-7.27,7.11,5.86,13.53,10.71,23.04,17.52l11.55,8.27c6.29,4.5,12.8,9.04,17.28,12.11,4.56-6.37,8.9-13.15,12.82-20.24,1.07,1.02,1.8,1.8,3.58,3.08,1.78,1.28,2.75,1.71,3.9,2.27-2.28,3-5.47,6.75-11.07,14.56-9.91,13.84-11.3,16.32-12.47,18.31-7.11-5.86-13.53-10.71-23.04-17.52l-11.55-8.27"/>
    <path class="cls-14" d="m137.99,102.43c-7.77-4.51-15.33-8.93-23.14-13,2.54,8.52,5.39,16.91,8.53,25.33l14.61-12.33Zm38.94,3.22c-2.69,1.99-5.13,3.64-7.36,5.53-2.23,1.89-4.35,4.08-6.45,6.13-6.26-4.01-12.74-7.97-19.32-11.71-3.5,2.82-6.92,5.57-10.35,8.46-2.79,2.36-5.44,4.73-8.17,7.17,2.42,7.25,5.25,14.16,8.38,20.94-1.41.92-2.81,1.69-4.09,2.77-1.28,1.08-2.27,2.33-3.65,3.77-3.57-12.16-15.58-50.69-24.08-74.68,1.17-.72,2.33-1.29,3.37-2.16s1.79-1.93,2.7-2.96c22.15,12.48,51.97,28.86,69.02,36.75"/>
    <path class="cls-14" d="m225.4,70.33c.2,3.14.72,6.23,1.68,9.02-3.78,4.99-9.6,9.56-17.36,13.19-21.95,10.27-41.33,2.6-49.7-15.28-12.21-26.12.8-44.43,20.67-53.72,6.62-3.09,15.88-5,21.47-4.38.23,3.7,1.12,7.32,2.34,10.67l-1.32.62c-7.47-3.65-13.5-3.96-20.21-.81-10.13,4.74-17.46,18.89-8.08,38.95,9.11,19.5,24.24,21.76,35.12,16.67,6.06-2.83,11.73-8.94,13.81-15.1l1.58.18"/>
    <path class="cls-14" d="m256.04,43.84c1.89,14.92,3.3,26.01,4.96,32.44-2.31.08-5.15.12-8.57.56-3.42.43-6.18,1.1-8.43,1.59-.53-9.2-1.34-17.2-2.81-28.81l-1.79-14.09c-1.47-11.61-2.69-19.56-4.47-28.6,2.31-.08,5.14-.13,8.56-.56s6.18-1.1,8.44-1.6c-.13,5.6,1.66,19.8,3.36,33.17,7.94-12.17,19.28-30.66,22.24-36.41,1.99-.05,3.9.03,5.87-.22,1.87-.24,3.8-.8,6.15-1.31-4.07,5.26-18.42,25.82-22.95,33.24,10.62,12.34,27.04,31.43,33.57,38.07-4.07.31-7.11.38-10.12.76-3.01.38-5.98,1.07-8.95,1.66-8.22-10.01-16.64-20-24.85-29.91l-.21.03"/>
    <path class="cls-14" d="m343.77,11.49c-1.65-.28-3.19-.55-4.34-.64-1.76,9.66-3.53,19.32-5.16,28.9,6.9,1.18,15.76.79,18.04-12.49,1.79-10.5-2.67-14.76-8.54-15.77m-23.65,19.27c1.98-11.53,3.13-19.49,4.06-28.66,2.23.59,4.96,1.38,8.36,1.96,4.74.81,10.18,1.21,15.12,2.06,9.68,1.66,14.46,4.06,17.19,7.29,3.71,4.34,5.05,8.92,4,14.99-2.7,15.75-14.89,20.13-30.23,17.5l-5.25-.9c-1.76,10.3-3.42,20.61-4.46,31.03-2.23-.59-4.96-1.38-8.36-1.96-3.4-.58-6.23-.75-8.53-.93,2.17-8.95,3.73-16.85,5.71-28.38l2.39-14"/>
    <path class="cls-14" d="m439.73,44.52c-12.42-7.12-26.84,1.24-35.77,16.82-11.07,19.31-6.02,31.1,4.13,36.92,10.88,6.23,25.59,2.62,36.92-17.13,8.98-15.68,6.42-29.91-5.27-36.61m3.23-5.01c19.22,11.01,28.33,30.2,15.81,52.04-10.28,17.94-33.06,24.28-53.27,12.69-19.12-10.96-28.92-29.58-15.94-52.24,10.23-17.85,32.37-24.55,53.4-12.5"/>
    <path class="cls-14" d="m524.64,116.96c-9.03-11.11-25.48-8.5-39.43,2.82-17.27,14.03-16.81,26.85-9.44,35.93,7.9,9.73,22.93,11.66,40.61-2.7,14.03-11.39,16.76-25.59,8.27-36.05m4.82-3.51c13.96,17.19,15.56,38.37-3.99,54.25-16.05,13.04-39.58,10.75-54.27-7.33-13.9-17.11-16.34-38.01,3.94-54.47,15.98-12.97,39.04-11.25,54.32,7.56"/>
    <path class="cls-14" d="m542.29,188.82c10.79-4.52,18.13-7.82,26.37-11.94.7,2.2,1.49,4.93,2.82,8.11,1.33,3.18,2.71,5.66,3.79,7.7-8.73,2.97-16.23,5.88-27.02,10.4l-13.1,5.48c-7.14,2.98-14.41,6.15-19.39,8.34,3.03,7.23,6.52,14.49,10.49,21.54-1.43.37-2.48.58-4.5,1.43-2.03.85-2.91,1.44-3.98,2.12-1.35-3.51-2.87-8.2-6.57-17.06-6.58-15.71-7.95-18.19-9.03-20.23,8.72-2.97,16.22-5.88,27.01-10.4l13.11-5.48"/>
    <path class="cls-14" d="m52.14,420.12c7.06-3.52,11.86-6.07,17.22-9.23,1.8,3.76,3.43,7.66,5.29,11.39,3.09,6.18,5.86,11.42,6.89,13.03-.82.25-1.64.51-2.77,1.07-1.33.66-1.83,1.07-2.72,1.67-2.08-4.95-5.41-12.74-6.36-14.63-4.76,1.98-9.3,4.25-13.91,6.55,2.87,5.42,5.01,9.4,7.65,14.07-1.58.48-2.18.69-3,1.1-.69.34-1.2.75-2.43,1.61-2.01-4.98-4.18-9.81-6.58-14.6l-3.22,1.6c-7.06,3.53-11.86,6.08-17.22,9.23-.57-1.45-1.23-3.24-2.27-5.33-1.04-2.08-2.08-3.69-2.9-5.01,5.74-2.39,10.66-4.69,17.73-8.22l8.58-4.28"/>
    <path class="cls-14" d="m97.9,463.31c-6.09-7.5-17.19-5.75-26.61,1.89-11.66,9.46-11.35,18.11-6.38,24.24,5.33,6.57,15.47,7.87,27.4-1.81,9.47-7.68,11.32-17.26,5.59-24.32m3.25-2.37c9.42,11.6,10.49,25.9-2.7,36.6-10.84,8.79-26.71,7.24-36.62-4.96-9.37-11.55-11.02-25.65,2.67-36.76,10.78-8.76,26.35-7.59,36.65,5.11"/>
    <path class="cls-14" d="m141.26,504.47c-7.79-5.71-18.09-1.21-25.26,8.57-8.88,12.11-6.4,20.4-.03,25.07,6.82,5,16.96,3.7,26.05-8.69,7.22-9.83,6.58-19.57-.75-24.95Zm2.55-3.12c12.05,8.84,16.7,22.4,6.65,36.1-8.26,11.25-24.01,13.77-36.69,4.47-11.99-8.8-17.15-22.03-6.72-36.24,8.22-11.2,23.57-14.01,36.76-4.33"/>
    <path class="cls-14" d="m177.61,535.99c1.11-2.44,2.16-4.75,2.37-5.74-2.5-1.14-8.07-3.2-12.12-4.51.63-.88,1.17-1.72,1.6-2.67.44-.96.72-1.93.96-2.97,5.75,2.85,8.58,4.3,16.54,7.91,7.96,3.62,10.9,4.81,16.44,7.09-.63.88-1.17,1.72-1.61,2.68-.44.97-.71,1.93-.96,2.97-3.26-2.03-8.48-4.86-11.05-6.03-.53.84-1.58,3.15-2.69,5.59l-7.3,16.05c-3.27,7.19-5.39,12.19-7.57,18.01-1.35-.77-3-1.75-5.12-2.72-2.12-.97-3.94-1.56-5.41-2.07,2.95-5.48,5.33-10.35,8.6-17.54l7.3-16.04"/>
    <path class="cls-14" d="m217.84,565.58c-1.22-.33-2.13-.5-2.94-.72-.52,1.91-1.1,3.79-1.85,6.58-1.16,4.29-2.43,9.57-3.08,11.95,1.21.4,2.21.74,3.71,1.14,4.01,1.09,8.38-1.31,9.98-7.23,1.71-6.33-.37-10.25-5.82-11.72m6.14-20.32c-1.97-.53-2.47-.59-3.39-.7-1.04,3.3-2.2,7.07-2.83,9.38-.66,2.45-1.18,4.65-1.81,6.96l3.07.83c3.88,1.05,8.53-.76,10.09-6.55,1.17-4.35.24-8.47-5.14-9.93m-17.72,11.29c2.06-7.63,3.34-12.9,4.54-19.01,1.46.54,3.24,1.24,5.49,1.85,3.88,1.05,8.46,1.92,12.34,2.97,8.17,2.2,12.9,6.84,10.9,14.26-2,7.42-9.72,8.7-14.13,8.24l-.03.14c4.09,1.32,11.39,6.51,9.16,14.74-2.63,9.74-11.44,11.52-19.53,9.33-3.61-.97-6.51-2.12-9.91-3.04-2.45-.66-5.43-1.25-6.97-1.52,2.03-5.88,3.57-11.08,5.63-18.71l2.5-9.25"/>
    <path class="cls-14" d="m273.45,580.03c-1.55-5.86-3.04-11.58-4.81-17.25-2.86,5.27-5.51,10.63-8.04,16.15l12.85,1.11Zm17.01,20.14c-2.24-.34-4.18-.71-6.15-.89-1.97-.16-4.02-.13-6-.16-1.06-4.9-2.26-9.89-3.61-14.82-3.01-.33-5.96-.65-8.98-.91-2.46-.21-4.85-.35-7.31-.49-2.31,4.62-4.27,9.26-6.01,13.99-1.12-.24-2.15-.54-3.27-.63-1.12-.1-2.19.02-3.54.04,4.11-7.5,16.8-31.59,24.22-47.09.9.21,1.73.5,2.64.58.92.08,1.77-.06,2.7-.12,4.59,16.53,10.97,38.58,15.32,50.49"/>
    <path class="cls-14" d="m306.77,570.3c-.61-7.87-1.18-13.27-2.09-19.42,1.56.02,3.48.09,5.8-.1,2.32-.18,4.2-.54,5.73-.8.06,6.22.34,11.64.96,19.51l.74,9.56c.41,5.2.9,10.53,1.25,14.18,5.27-.41,10.66-1.12,16.02-2.17-.06.99-.15,1.71-.04,3.19.11,1.47.31,2.16.52,2.99-2.54.13-5.86.1-12.32.61-11.46.9-13.34,1.25-14.87,1.52-.06-6.22-.34-11.65-.96-19.51l-.75-9.56"/>
    <path class="cls-14" d="m349.59,565.43c-1.8-7.69-3.17-12.94-4.99-18.89,1.54-.21,3.44-.44,5.71-.97,2.26-.53,4.07-1.17,5.55-1.66,1,6.14,2.1,11.46,3.9,19.14l2.18,9.34c1.19,5.08,2.47,10.28,3.38,13.83,5.15-1.2,10.37-2.72,15.51-4.57.09.99.11,1.71.45,3.16.34,1.45.64,2.09.96,2.88-2.49.51-5.78.99-12.09,2.47-11.19,2.61-13,3.25-14.47,3.74-1-6.14-2.1-11.46-3.9-19.15l-2.18-9.33"/>
    <path class="cls-14" d="m460.16,543.55c.29,2.11.78,4.17,1.56,5.99-2.31,3.54-6,6.9-11.06,9.71-14.28,7.97-27.7,3.74-34.19-7.9-9.47-17-1.6-29.95,11.34-37.15,4.31-2.4,10.45-4.13,14.24-3.98.33,2.48,1.1,4.87,2.09,7.07l-.86.48c-5.2-2.1-9.27-2.01-13.64.42-6.59,3.68-10.85,13.55-3.57,26.61,7.07,12.69,17.37,13.49,24.45,9.54,3.94-2.2,7.46-6.59,8.57-10.83l1.07.05"/>
    <path class="cls-14" d="m463.45,514.95c-5.06-6.06-8.65-10.13-12.96-14.62,1.28-.89,2.88-1.94,4.66-3.44,1.79-1.49,3.11-2.87,4.21-3.97,3.65,5.03,7.03,9.28,12.09,15.34l6.15,7.36c3.35,4,6.83,8.07,9.24,10.83,4.06-3.39,8.04-7.09,11.8-11.06.52.85.86,1.48,1.81,2.62.95,1.13,1.51,1.58,2.16,2.14-1.99,1.57-4.71,3.48-9.68,7.65-8.82,7.37-10.14,8.75-11.24,9.86-3.65-5.03-7.03-9.29-12.1-15.35l-6.15-7.35"/>
    <path class="cls-14" d="m499.1,499.6c-5.84-4.87-8.68-7.42-12.58-10.67-5.74-4.78-9.46-7.7-11.34-9.08,1.38-1.32,2.75-2.75,3.97-4.22,1.22-1.46,2.38-3.06,3.43-4.66,6.46,6.57,12.05,11.32,18.33,16.55,13.22,11.01,18.54,9.02,24.41,1.98,7.22-8.66-1.66-17.07-11.73-25.46-4.98-4.15-10.05-8.09-15.26-11.97.93-.79,1.81-1.62,2.57-2.54.77-.92,1.38-1.88,1.98-2.93,2.93,2.99,10.36,9.82,19.73,17.62,12.57,10.47,13.21,20.27,4.45,30.78-7.71,9.26-17.78,13.08-27.96,4.6"/>
    <path class="cls-14" d="m536.46,437.4c-.58,1.13-.94,1.97-1.32,2.73,1.75.9,3.48,1.87,6.05,3.19,3.96,2.03,8.84,4.38,11.04,5.51.64-1.09,1.19-2,1.9-3.38,1.9-3.7.48-8.47-4.98-11.27-5.83-3-10.09-1.79-12.68,3.23m-18.58-10.27c-.94,1.82-1.1,2.29-1.39,3.17,3.01,1.7,6.45,3.64,8.58,4.73,2.26,1.16,4.29,2.13,6.43,3.23l1.45-2.82c1.84-3.57,1.05-8.5-4.28-11.24-4.01-2.06-8.24-2.02-10.78,2.94m7.31,19.69c-7.03-3.61-11.92-5.97-17.63-8.43.84-1.32,1.89-2.91,2.95-4.98,1.84-3.57,3.65-7.87,5.49-11.45,3.87-7.52,9.39-11.18,16.22-7.67,6.84,3.52,6.47,11.33,5.09,15.54l.13.06c2.16-3.73,8.75-9.77,16.34-5.87,8.96,4.61,8.86,13.59,5.03,21.06-1.71,3.32-3.44,5.92-5.05,9.06-1.16,2.25-2.36,5.05-2.94,6.49-5.32-3.22-10.09-5.82-17.11-9.43l-8.52-4.38"/>
    <path class="cls-10" d="m23.93,347.76c13.21,0,23.93-10.71,23.93-23.93s-10.71-23.92-23.93-23.92S0,310.62,0,323.83s10.71,23.93,23.93,23.93"/>
    <path class="cls-10" d="m575.73,347.76c13.21,0,23.92-10.71,23.92-23.93s-10.71-23.92-23.92-23.92-23.93,10.71-23.93,23.92,10.71,23.93,23.93,23.93"/>
  </g>
</svg>