<?xml version="1.0" encoding="UTF-8"?>
<svg id="Layer_2" data-name="Layer 2" xmlns="http://www.w3.org/2000/svg" viewBox="0 0 564.23 563.28">
  <defs>
    <style>
      .cls-1, .cls-2 {
        fill-rule: evenodd;
        stroke: #221f20;
        stroke-miterlimit: 10;
        stroke-width: .57px;
      }

      .cls-2, .cls-3 {
        fill: #fff;
      }

      .cls-4, .cls-3 {
        stroke-width: 0px;
      }
    </style>
  </defs>
  <g id="Layer_1-2" data-name="Layer 1">
    <g>
      <path class="cls-1" d="m282.1.29c155.66,0,281.84,125.97,281.84,281.34s-126.18,281.37-281.84,281.37S.29,437.02.29,281.63,126.47.29,282.1.29h0Z"/>
      <path class="cls-2" d="m282.1,34.36c136.82,0,247.71,110.7,247.71,247.26s-110.89,247.29-247.71,247.29S34.42,418.21,34.42,281.63,145.31,34.36,282.1,34.36h0Z"/>
      <path class="cls-1" d="m282.1,109.28c95.37,0,172.67,77.17,172.67,172.35s-77.3,172.38-172.67,172.38-172.64-77.17-172.64-172.38,77.3-172.35,172.64-172.35h0Z"/>
      <path class="cls-2" d="m282.1,133.74c81.85,0,148.17,66.21,148.17,147.89s-66.32,147.92-148.17,147.92-148.14-66.21-148.14-147.92,66.32-147.89,148.14-147.89h0Z"/>
      <path class="cls-1" d="m282.1,138.56c79.16,0,143.34,64.07,143.34,143.07s-64.18,143.1-143.34,143.1-143.31-64.07-143.31-143.1,64.18-143.07,143.31-143.07h0Z"/>
      <path class="cls-4" d="m80.02,185.62l7.23-12.47c1.43-2.48,2.57-4.28,3.49-5.37.91-1.08,1.97-1.94,3.17-2.51,1.23-.57,2.54-.88,4-.88s2.86.37,4.2,1.14c1.46.86,2.6,2.03,3.37,3.51.74,1.48,1.06,3.08.89,4.79,1.66-1.57,3.43-2.51,5.37-2.77,1.92-.23,3.77.17,5.6,1.2,1.4.83,2.6,1.94,3.57,3.37.94,1.46,1.52,2.97,1.66,4.57.14,1.6-.2,3.31-.97,5.08-.49,1.11-1.89,3.68-4.17,7.73l-6.15,10.62-31.27-18.01Zm8.86-3.31l7.23,4.17,2.37-4.14c1.43-2.45,2.26-4,2.54-4.62.49-1.17.63-2.23.34-3.2-.26-.97-.89-1.74-1.89-2.34-.97-.54-1.92-.74-2.83-.57-.91.2-1.74.77-2.46,1.77-.43.57-1.52,2.34-3.23,5.31l-2.09,3.62Zm12.44,7.16l8.35,4.82,3.37-5.85c1.31-2.25,2.09-3.74,2.32-4.42.37-1.03.37-2.03.06-3-.31-.97-1.03-1.8-2.14-2.43-.92-.54-1.86-.77-2.77-.69-.91.09-1.77.46-2.57,1.14-.8.69-2,2.45-3.66,5.34l-2.94,5.08Zm13.87-28.2c-2.77-2.43-4.75-4.85-5.92-7.31-.83-1.83-1.34-3.74-1.52-5.77-.17-2.03.03-3.91.6-5.65.77-2.31,2.12-4.59,4.03-6.79,3.49-4.02,7.52-6.14,12.12-6.39,4.57-.23,9.09,1.57,13.52,5.42,4.4,3.8,6.8,7.99,7.2,12.53.4,4.54-1.14,8.82-4.6,12.81-3.52,4.02-7.58,6.16-12.12,6.42-4.55.26-8.98-1.51-13.32-5.28h0Zm4.75-5.82c3.09,2.68,6.03,4,8.86,3.97,2.83-.06,5.2-1.17,7.12-3.37,1.89-2.17,2.69-4.65,2.32-7.45-.37-2.77-2.12-5.51-5.26-8.25-3.14-2.71-6.06-4.05-8.78-4.02-2.74.03-5.09,1.17-7.06,3.45-1.97,2.25-2.77,4.77-2.43,7.51.34,2.71,2.09,5.45,5.23,8.16h0Zm35.79-12.33l-22.24-28.4,12.09-9.42c3.06-2.37,5.46-3.82,7.23-4.39s3.6-.51,5.43.14c1.86.66,3.43,1.83,4.75,3.51,1.66,2.11,2.43,4.37,2.26,6.74-.17,2.37-1.37,4.71-3.57,7.02,1.8-.26,3.46-.26,4.95-.03,1.49.23,3.77.91,6.86,2.05l7.83,2.83-6.89,5.37-8.98-2.94c-3.2-1.06-5.32-1.66-6.29-1.8-1-.17-1.89-.11-2.66.14-.77.29-1.83.91-3.14,1.94l-1.17.91,9.29,11.84-5.75,4.48Zm-7.09-20.86l4.26-3.31c2.74-2.14,4.37-3.6,4.89-4.37.51-.77.71-1.6.66-2.45-.06-.88-.4-1.74-1.09-2.6-.74-.94-1.6-1.51-2.57-1.71-.97-.2-1.97,0-3.03.57-.51.31-1.94,1.37-4.26,3.17l-4.49,3.51,5.63,7.19Zm36.31-1.17l-16.38-32.11,23.84-12.13,2.77,5.42-17.35,8.82,3.63,7.13,16.15-8.22,2.74,5.39-16.15,8.22,4.46,8.73,17.98-9.13,2.74,5.42-24.44,12.44Zm30.39-14.9l-9.35-34.82,7.06-1.88,3.66,13.7,13.81-3.68-3.69-13.7,7.03-1.88,9.35,34.82-7.03,1.88-4.09-15.24-13.78,3.71,4.09,15.21-7.06,1.88Zm67.47-11.64l-7.92.54-3.72-7.93-14.38,1-2.4,8.39-7.72.54,11.52-36.93,7.69-.54,16.92,34.93Zm-14.38-13.27l-5.89-13.01-3.95,13.7,9.83-.69Zm18.21,12.7l4.4-35.76,10.84,1.34,3.49,25.17,9.44-23.6,10.83,1.34-4.4,35.76-6.69-.83,3.46-28.14-10.58,27.25-6.97-.83-3.63-29.02-3.46,28.14-6.72-.83Zm60,11.7l6.8-36.42,6.8,3.02-5.09,24.83,16.1-19.95,7.92,3.54-4.46,25.54,15.29-20.75,6.72,3-22.7,29.37-7.06-3.14,4.4-27.54-17.52,21.69-7.2-3.2Zm48.23,3.88c2.26-2.88,4.6-4.97,7-6.25,1.77-.94,3.66-1.57,5.69-1.86,2.03-.26,3.92-.14,5.69.34,2.34.63,4.69,1.83,7,3.65,4.17,3.25,6.52,7.16,7,11.73.49,4.57-1.09,9.16-4.69,13.78-3.6,4.57-7.66,7.19-12.18,7.82-4.52.66-8.86-.66-13.04-3.91-4.23-3.31-6.6-7.22-7.09-11.73-.46-4.54,1.06-9.05,4.6-13.58h0Zm6.06,4.42c-2.52,3.23-3.69,6.25-3.49,9.05.2,2.83,1.43,5.14,3.72,6.94,2.29,1.77,4.8,2.43,7.58,1.91,2.74-.51,5.43-2.4,8-5.68,2.54-3.25,3.72-6.25,3.54-8.96-.17-2.71-1.46-4.99-3.8-6.85-2.37-1.85-4.92-2.51-7.63-2.03-2.71.49-5.35,2.37-7.92,5.62h0Zm26.79,22.92c2.77-2.43,5.46-4.02,8.06-4.82,1.92-.6,3.92-.83,5.95-.71,2.03.11,3.86.57,5.49,1.37,2.2,1.08,4.26,2.71,6.2,4.94,3.49,4.02,5.03,8.31,4.63,12.87-.4,4.57-2.8,8.76-7.23,12.61-4.4,3.82-8.89,5.59-13.46,5.37-4.54-.23-8.58-2.34-12.04-6.34-3.52-4.05-5.09-8.33-4.72-12.87.4-4.51,2.77-8.68,7.12-12.41h0Zm5.09,5.48c-3.06,2.68-4.8,5.42-5.15,8.22-.34,2.83.43,5.31,2.34,7.51,1.89,2.17,4.23,3.28,7.06,3.31,2.8.03,5.77-1.31,8.92-4.05,3.12-2.71,4.86-5.42,5.2-8.1.34-2.71-.46-5.19-2.43-7.45-1.97-2.25-4.35-3.42-7.09-3.45-2.77-.03-5.72,1.31-8.86,4.02h0Zm39.19,20.52l6.26,11.76c1.4,2.63,2.29,4.77,2.6,6.36.46,2.17.34,4.28-.37,6.36-.69,2.08-1.89,4-3.54,5.76-1.66,1.77-3.97,3.45-6.97,5.05-2.63,1.4-5.06,2.25-7.32,2.63-2.72.43-5.2.29-7.43-.43-1.69-.54-3.32-1.6-4.95-3.17-1.2-1.17-2.43-2.94-3.69-5.34l-6.46-12.07,31.87-16.92Zm-1.97,9.3l-21.1,11.19,2.54,4.79c.97,1.8,1.74,3.05,2.37,3.74.83.88,1.72,1.54,2.72,1.88,1,.37,2.31.37,3.97.06,1.66-.34,3.72-1.14,6.18-2.45,2.49-1.31,4.23-2.54,5.35-3.65,1.09-1.14,1.77-2.31,2.12-3.48.31-1.17.29-2.43-.09-3.77-.29-1-1.12-2.8-2.52-5.42l-1.54-2.88Z"/>
      <path class="cls-4" d="m101.11,415.73l27.24-23.66,16.24,18.67-4.6,3.99-11.46-13.16-6.43,5.59,9.89,11.36-4.6,3.99-9.89-11.36-11.58,10.04-4.8-5.48Zm30.65,8.87c2.4-2.8,4.83-4.77,7.32-5.91,1.8-.86,3.75-1.37,5.77-1.54,2.03-.17,3.92.06,5.66.63,2.32.74,4.57,2.08,6.8,4.02,4,3.48,6.15,7.51,6.37,12.07.26,4.57-1.54,9.08-5.4,13.5-3.83,4.39-8,6.79-12.58,7.19-4.55.4-8.81-1.11-12.81-4.6-4.06-3.51-6.2-7.53-6.46-12.07-.23-4.57,1.54-8.99,5.32-13.3h0Zm5.8,4.71c-2.66,3.08-4,6.05-3.94,8.87.03,2.83,1.14,5.17,3.34,7.08,2.2,1.91,4.69,2.68,7.46,2.31,2.77-.34,5.55-2.11,8.29-5.25,2.72-3.11,4.03-6.05,4.03-8.76-.06-2.71-1.2-5.05-3.46-7.02-2.29-1.97-4.77-2.8-7.52-2.43-2.74.34-5.46,2.05-8.2,5.19h0Zm21.78,19.01c1.94-3.11,4.06-5.42,6.29-6.96,1.69-1.11,3.52-1.91,5.49-2.43,1.97-.45,3.86-.57,5.66-.26,2.43.37,4.89,1.34,7.38,2.91,4.52,2.8,7.23,6.45,8.2,10.93.94,4.48-.11,9.22-3.23,14.18-3.09,4.94-6.86,7.96-11.29,9.08-4.43,1.08-8.89.26-13.38-2.54-4.55-2.85-7.32-6.51-8.26-10.93-.94-4.45.11-9.13,3.14-13.98h0Zm6.49,3.77c-2.17,3.45-3,6.59-2.52,9.36.49,2.8,1.94,4.97,4.43,6.48,2.46,1.54,5.03,1.94,7.72,1.14,2.69-.8,5.15-2.97,7.35-6.51,2.2-3.48,3.06-6.59,2.6-9.28-.46-2.68-1.94-4.82-4.49-6.39-2.57-1.6-5.17-2-7.8-1.23-2.66.77-5.09,2.91-7.29,6.42h0Zm26.87,35.02l10.75-27.94-9.98-3.82,2.17-5.71,26.79,10.27-2.2,5.68-9.95-3.79-10.75,27.94-6.83-2.62Zm30.93-25.6l14.09,3c2.8.6,4.86,1.14,6.2,1.68,1.31.51,2.43,1.26,3.37,2.23.91.97,1.6,2.14,2.06,3.51.46,1.4.54,2.85.23,4.37-.37,1.65-1.14,3.05-2.32,4.25-1.2,1.2-2.63,1.97-4.29,2.34,2.03,1.08,3.46,2.48,4.29,4.25.83,1.74,1.03,3.65.6,5.68-.34,1.6-1.06,3.08-2.12,4.42-1.09,1.37-2.34,2.37-3.83,3-1.49.63-3.2.86-5.15.66-1.2-.14-4.09-.66-8.63-1.6l-12.04-2.54,7.52-35.25Zm5.89,7.39l-1.74,8.13,4.66,1c2.77.6,4.52.91,5.2.97,1.26.11,2.32-.09,3.14-.66.86-.54,1.4-1.37,1.63-2.51.23-1.11.14-2.05-.31-2.85-.46-.83-1.29-1.43-2.43-1.8-.69-.23-2.72-.71-6.06-1.43l-4.09-.86Zm-3,14.01l-2,9.42,6.6,1.4c2.57.54,4.2.83,4.92.83,1.11.03,2.09-.26,2.89-.86.83-.6,1.37-1.54,1.66-2.8.23-1.06.14-2-.2-2.85-.37-.83-1-1.54-1.89-2.08-.91-.54-2.97-1.14-6.23-1.83l-5.75-1.23Zm57.52,23.14l-7.89-.54-2.57-8.39-14.41-1-3.54,7.96-7.72-.54,16.55-34.99,7.69.54,11.89,36.96Zm-12.38-15.15l-4.03-13.67-5.8,12.98,9.83.69Zm16.52,14.9l-2.49-35.68,7.26-.51,2.09,29.6,18.07-1.26.43,6.08-25.36,1.77Zm30.7-2.63l-8.03-34.82,7.09-1.65,6.69,28.91,17.64-4.05,1.37,5.91-24.76,5.71Zm57.69-32.68l7.35-.83c.63,4.02.17,7.42-1.34,10.22-1.52,2.74-4.06,4.91-7.61,6.51-4.37,1.94-8.63,2.03-12.78.31-4.17-1.74-7.4-5.19-9.69-10.36-2.46-5.48-2.95-10.39-1.46-14.67,1.49-4.28,4.54-7.45,9.15-9.5,4.03-1.8,7.86-2.08,11.44-.8,2.12.71,4.14,2.26,6.09,4.54l-5.92,4.51c-1.14-1.54-2.54-2.51-4.23-2.97-1.69-.43-3.4-.26-5.17.54-2.43,1.09-4.03,2.83-4.77,5.28-.74,2.43-.23,5.59,1.51,9.5,1.86,4.17,3.92,6.79,6.21,7.91,2.29,1.08,4.63,1.11,7.03.06,1.77-.8,3.06-2.03,3.83-3.74.77-1.68.88-3.85.37-6.51h0Zm17.61,5.31l-18.95-30.31,6.17-3.85,15.75,25.17,15.35-9.59,3.23,5.17-21.55,13.41Zm2.06-44.49l5.57-4.65,12.58,14.93c2,2.37,3.35,3.85,4.09,4.45,1.17.94,2.52,1.37,3.97,1.28,1.49-.06,3-.74,4.57-2.05,1.57-1.34,2.49-2.65,2.74-3.97.29-1.31.09-2.54-.54-3.6-.63-1.08-1.86-2.71-3.69-4.91l-12.84-15.27,5.57-4.68,12.18,14.5c2.8,3.34,4.63,5.79,5.46,7.42.86,1.63,1.26,3.22,1.26,4.85-.03,1.63-.49,3.28-1.37,4.97-.89,1.71-2.43,3.48-4.63,5.31-2.63,2.2-4.89,3.6-6.78,4.11-1.86.54-3.6.66-5.2.34-1.63-.31-3-.88-4.14-1.74-1.69-1.29-3.83-3.45-6.43-6.56l-12.38-14.73Zm22.53-19.26l9.09-11.19c1.8-2.23,3.23-3.8,4.32-4.74,1.06-.94,2.23-1.6,3.52-2,1.29-.37,2.63-.46,4.09-.23,1.43.2,2.77.8,3.97,1.77,1.32,1.06,2.23,2.4,2.77,4,.51,1.6.54,3.22.12,4.85,1.89-1.28,3.8-1.91,5.75-1.86,1.94.06,3.71.74,5.35,2.03,1.26,1.03,2.29,2.34,3,3.91.71,1.57,1.03,3.14.91,4.77-.12,1.6-.69,3.22-1.74,4.85-.66,1.03-2.43,3.37-5.35,6.99l-7.72,9.53-28.07-22.69Zm9.26-1.88l6.49,5.25,3-3.71c1.8-2.2,2.89-3.6,3.23-4.2.69-1.05.97-2.08.86-3.08-.09-1-.6-1.85-1.52-2.6-.86-.71-1.77-1.03-2.69-1-.94.03-1.83.49-2.72,1.34-.51.51-1.86,2.08-4,4.74l-2.66,3.25Zm11.18,9.02l7.49,6.05,4.23-5.22c1.66-2.03,2.66-3.37,2.97-4.03.54-.94.71-1.94.57-2.94-.17-1-.74-1.91-1.74-2.74-.86-.66-1.71-1.03-2.66-1.11-.91-.06-1.8.17-2.71.74-.89.54-2.37,2.11-4.46,4.68l-3.69,4.57Z"/>
      <path class="cls-1" d="m85.22,207.88c3.75,0,6.8,3.02,6.8,6.79s-3.06,6.79-6.8,6.79-6.8-3.05-6.8-6.79,3.03-6.79,6.8-6.79h0Z"/>
      <path class="cls-1" d="m479.01,207.88c3.75,0,6.8,3.02,6.8,6.79s-3.06,6.79-6.8,6.79-6.8-3.05-6.8-6.79,3.03-6.79,6.8-6.79h0Z"/>
      <path class="cls-3" d="m244.25,201.29c3.46,1.03,6.06,2.71,7.8,4.99,2.37,3.17,3.57,7.05,3.57,11.67,0,3.48-.8,6.85-2.37,10.05-.97,1.94-2.14,3.57-3.52,4.88h.11v1.94h-.89c-1.31,0-2.32.4-3,1.23-.69.83-1.03,1.86-1.03,3.03s.54,4,1.63,8.36l9.86,39.5,8.29-33.59-1.46-5.91-1.17-4.74c-.54-1.74-1.12-3.25-1.74-4.57-.34-.66-.71-1.2-1.2-1.68-.6-.6-1.23-1.06-1.83-1.34-.49-.2-1.2-.29-2.23-.29v-1.94h19.5v1.94h-1.31c-1.4,0-2.4.4-3.03,1.23-.66.83-.97,1.94-.97,3.37,0,1.77.57,4.85,1.66,9.25l9.61,38.27,9.52-38.78c1.09-4.31,1.63-7.25,1.63-8.93,0-.8-.17-1.54-.54-2.23-.34-.69-.8-1.2-1.34-1.46-.91-.48-2.14-.71-3.66-.71v-1.94h14.95v1.94c-1.29,0-2.34.31-3.17.97-.8.66-1.57,1.88-2.32,3.68-.49,1.23-1.26,4.11-2.34,8.68l-13.92,56.74h-1.49l-11.41-45.01-11.35,45.01h-1.32l-14.89-58.45c-1.09-4.37-1.8-6.94-2.09-7.73-.23-.57-.46-1.08-.74-1.51-.6,0-1.2.03-1.83.03h-23.64v-1.91h1.89c2.09,0,3.6-.94,4.49-2.83.57-1.2.86-3.77.86-7.73v-45.49c0-4.34-.34-7.11-1.06-8.22-.97-1.54-2.4-2.28-4.29-2.28h-1.89v-1.94h21.64c4.03,0,7.29.43,9.72,1.26,3.69,1.23,6.52,3.42,8.43,6.62,1.94,3.17,2.92,6.79,2.92,10.93,0,3.51-.74,6.68-2.29,9.48-1.52,2.77-3.77,4.82-6.75,6.19h0Zm107.63,129.68l1.14,23.92h-1.14c-1.52-7.16-3.72-12.33-6.52-15.47-2.86-3.17-6.23-4.74-10.2-4.74-3.32,0-6.32,1.2-9,3.57-2.69,2.37-4.8,6.13-6.32,11.33-1.54,5.19-2.31,11.67-2.31,19.38,0,6.37.71,11.87,2.17,16.55,1.46,4.68,3.63,8.25,6.55,10.76,2.92,2.48,6.26,3.74,9.98,3.74,3.26,0,6.12-.97,8.63-2.94,2.46-1.97,5.2-5.85,8.18-11.64l1.14,1.03c-2.52,6.25-5.43,10.84-8.78,13.76-3.34,2.91-7.32,4.37-11.95,4.37-8.29,0-14.69-4.34-19.24-12.98-3.4-6.45-5.12-14.01-5.12-22.75,0-7.02,1.14-13.47,3.37-19.38,2.23-5.88,5.32-10.42,9.23-13.67,3.94-3.22,8.23-4.82,12.86-4.82,3.63,0,7.2,1.23,10.72,3.71,1.03.77,1.77,1.14,2.23,1.14.63,0,1.23-.31,1.71-.97.63-.94,1.09-2.25,1.37-3.88h1.29Zm-49.51-48.18v27.68h9.12c2.09,0,3.63-.66,4.6-1.97.97-1.29,1.6-3.85,1.94-7.71h1.37v23.83h-1.37c-.03-2.74-.29-4.74-.77-6.02-.46-1.29-1.14-2.26-2-2.88-.83-.63-2.09-.97-3.77-.97h-9.12v22.12c0,3.57.17,5.94.49,7.05.26.88.77,1.63,1.54,2.25,1.09.83,2.23,1.26,3.4,1.26h1.8v1.91h-21.47v-1.91h1.77c2.06,0,3.57-.86,4.49-2.57.6-1.08.89-3.77.89-7.99v-45.49c0-3.54-.14-5.91-.46-7.05-.26-.86-.77-1.6-1.52-2.23-1.06-.83-2.2-1.23-3.4-1.23h-1.77v-1.94h37.25l.49,15.47h-1.32c-.63-3.28-1.37-5.68-2.23-7.22-.83-1.54-1.89-2.65-3.14-3.37-1.23-.69-3.14-1.03-5.75-1.03h-11.06Zm-71.04-49.34v-.57h6.78c2.2-.69,4.03-1.88,5.46-3.6,2.32-2.83,3.49-6.31,3.49-10.45,0-2.74-.51-5.37-1.57-7.88-1.06-2.54-2.8-4.54-5.17-5.99-2.37-1.46-5.35-2.17-8.86-2.17-1.52,0-2.83.03-3.92.09-1.09.09-1.94.2-2.63.37v28.88c2.17.69,4.32,1.14,6.43,1.31h0Zm-6.43-34.99c.91.26,1.94.43,3.12.57,1.17.11,2.46.17,3.86.17,3.6,0,6.32-.54,8.12-1.63,1.8-1.08,3.2-2.77,4.14-5.02.97-2.23,1.46-4.68,1.46-7.36,0-4.11-1.2-7.62-3.6-10.53-2.37-2.91-5.86-4.37-10.43-4.37-2.46,0-4.69.37-6.66,1.14v27.03Z"/>
    </g>
  </g>
</svg>