<?xml version="1.0" encoding="UTF-8"?>
<svg id="Layer_2" data-name="Layer 2" xmlns="http://www.w3.org/2000/svg" xmlns:xlink="http://www.w3.org/1999/xlink" viewBox="0 0 33.56 19.58">
  <defs>
    <style>
      .cls-1 {
        clip-path: url(#clippath);
      }

      .cls-2 {
        fill: none;
      }

      .cls-2, .cls-3, .cls-4, .cls-5 {
        stroke-width: 0px;
      }

      .cls-6 {
        clip-path: url(#clippath-1);
      }

      .cls-7 {
        clip-path: url(#clippath-4);
      }

      .cls-8 {
        clip-path: url(#clippath-3);
      }

      .cls-9 {
        clip-path: url(#clippath-2);
      }

      .cls-10 {
        clip-path: url(#clippath-7);
      }

      .cls-11 {
        clip-path: url(#clippath-8);
      }

      .cls-12 {
        clip-path: url(#clippath-6);
      }

      .cls-13 {
        clip-path: url(#clippath-5);
      }

      .cls-14 {
        clip-path: url(#clippath-9);
      }

      .cls-15 {
        clip-path: url(#clippath-10);
      }

      .cls-3 {
        fill: #250392;
      }

      .cls-4 {
        fill: #fff;
      }

      .cls-5 {
        fill: #f5cc28;
      }
    </style>
    <clipPath id="clippath">
      <rect class="cls-2" width="33.56" height="19.58"/>
    </clipPath>
    <clipPath id="clippath-1">
      <rect class="cls-2" width="33.56" height="19.58"/>
    </clipPath>
    <clipPath id="clippath-2">
      <rect class="cls-2" width="33.56" height="19.58"/>
    </clipPath>
    <clipPath id="clippath-3">
      <rect class="cls-2" width="33.56" height="19.58"/>
    </clipPath>
    <clipPath id="clippath-4">
      <rect class="cls-2" width="33.56" height="19.58"/>
    </clipPath>
    <clipPath id="clippath-5">
      <rect class="cls-2" width="33.56" height="19.58"/>
    </clipPath>
    <clipPath id="clippath-6">
      <rect class="cls-2" width="33.56" height="19.58"/>
    </clipPath>
    <clipPath id="clippath-7">
      <rect class="cls-2" width="33.56" height="19.58"/>
    </clipPath>
    <clipPath id="clippath-8">
      <rect class="cls-2" width="33.56" height="19.58"/>
    </clipPath>
    <clipPath id="clippath-9">
      <rect class="cls-2" width="33.56" height="19.58"/>
    </clipPath>
    <clipPath id="clippath-10">
      <rect class="cls-2" width="33.56" height="19.58"/>
    </clipPath>
  </defs>
  <g id="Layer_1-2" data-name="Layer 1">
    <g id="BOSNIA">
      <g>
        <g class="cls-1">
          <rect class="cls-3" width="33.56" height="19.58"/>
        </g>
        <g class="cls-6">
          <polygon class="cls-5" points="7.58 0 27.16 19.58 27.16 0 7.58 0"/>
        </g>
        <g class="cls-9">
          <polygon class="cls-4" points="4.73 0 4.06 0 3.38 0 2.96 1.29 4.06 .49 5.15 1.29 4.73 0"/>
        </g>
        <g class="cls-8">
          <polygon class="cls-4" points="23.22 18.78 21.86 18.78 22.96 19.58 23.63 19.58 24.32 19.58 25.4 18.78 24.05 18.78 23.63 17.5 23.22 18.78"/>
        </g>
        <g class="cls-7">
          <polygon class="cls-4" points="6.5 2.94 7.6 3.73 7.18 2.45 8.27 1.65 6.92 1.65 6.5 .37 6.08 1.65 4.73 1.65 5.83 2.45 5.41 3.73 6.5 2.94"/>
        </g>
        <g class="cls-13">
          <polygon class="cls-4" points="8.95 5.39 10.04 6.18 9.63 4.89 10.72 4.1 9.37 4.1 8.95 2.82 8.53 4.1 7.18 4.1 8.28 4.89 7.86 6.18 8.95 5.39"/>
        </g>
        <g class="cls-12">
          <polygon class="cls-4" points="11.4 7.83 12.49 8.63 12.07 7.34 13.17 6.55 11.82 6.55 11.4 5.26 10.98 6.55 9.63 6.55 10.72 7.34 10.3 8.63 11.4 7.83"/>
        </g>
        <g class="cls-10">
          <polygon class="cls-4" points="13.85 10.28 14.94 11.07 14.52 9.79 15.61 9 14.26 9 13.85 7.71 13.43 9 12.08 9 13.17 9.79 12.75 11.07 13.85 10.28"/>
        </g>
        <g class="cls-11">
          <polygon class="cls-4" points="16.29 12.73 17.39 13.52 16.97 12.24 18.06 11.44 16.71 11.44 16.29 10.16 15.88 11.44 14.52 11.44 15.62 12.24 15.2 13.52 16.29 12.73"/>
        </g>
        <g class="cls-14">
          <polygon class="cls-4" points="18.74 15.17 19.83 15.97 19.42 14.68 20.51 13.89 19.16 13.89 18.74 12.61 18.32 13.89 16.97 13.89 18.07 14.68 17.65 15.97 18.74 15.17"/>
        </g>
        <g class="cls-15">
          <polygon class="cls-4" points="21.19 17.62 22.28 18.41 21.86 17.13 22.96 16.34 21.6 16.34 21.19 15.05 20.77 16.34 19.42 16.34 20.51 17.13 20.09 18.41 21.19 17.62"/>
        </g>
      </g>
    </g>
  </g>
</svg>