<?xml version="1.0" encoding="UTF-8"?>
<svg id="Layer_2" data-name="Layer 2" xmlns="http://www.w3.org/2000/svg" xmlns:xlink="http://www.w3.org/1999/xlink" viewBox="0 0 408.96 408.72">
  <defs>
    <style>
      .cls-1 {
        clip-path: url(#clippath);
      }

      .cls-2, .cls-3 {
        fill: none;
      }

      .cls-2, .cls-4, .cls-5, .cls-6, .cls-7 {
        stroke-width: 0px;
      }

      .cls-3 {
        stroke: #c01b2c;
        stroke-width: .16px;
      }

      .cls-4 {
        fill: #231f20;
      }

      .cls-4, .cls-5, .cls-6, .cls-7 {
        fill-rule: evenodd;
      }

      .cls-5 {
        fill: #c01b2c;
      }

      .cls-6 {
        fill: #fff;
      }

      .cls-7 {
        fill: #b4ccd6;
      }
    </style>
    <clipPath id="clippath">
      <rect class="cls-2" width="408.96" height="408.72"/>
    </clipPath>
  </defs>
  <g id="Layer_1-2" data-name="Layer 1">
    <g>
      <path class="cls-6" d="m324.53,99.46l20.02-15.04,3.43,4.23-7.2,18.57,13.3-10.07,3.31,4.2-20.06,14.8-3.52-4.04,6.97-18.15-12.98,9.53-3.27-4.03Z"/>
      <path class="cls-6" d="m304.86,80.18l12.51-22.49,3.99,3.57-8.67,15.05,14.55-9.49,3.98,3.58-8.75,15.58,14.94-9.91,3.97,3.55-22.02,13.98-4.07-3.67,8.48-15.68-14.58,9.83-4.35-3.9Z"/>
      <path class="cls-6" d="m290.34,54.86c-2.39,3.62-3.09,8.12.99,10.81,4.15,2.73,7.93.21,10.33-3.42,2.44-3.7,3.16-7.95-1.02-10.7-4.18-2.75-7.87-.39-10.31,3.31h0Zm-4.68-2.8c1.38-2.09,3.13-3.71,4.68-4.71,4.14-2.68,8.7-2.18,12.74.48,6.46,4.27,7.24,11.51,3.14,17.73-4.08,6.18-10.93,8.11-17.36,3.87-6.4-4.22-7.3-11.16-3.2-17.37h0Z"/>
      <path class="cls-6" d="m265.96,56.9l8.52-18.36-7.02-3.12,2.07-4.11,18.51,8.4-2.01,4.12-6.81-3.13-8.27,18.46-4.98-2.27Z"/>
      <path class="cls-6" d="m232.62,46.7l6.02-24.12,5.24,1.15-4.78,19.86,12.04,2.8-1.25,4.51-17.27-4.2Z"/>
      <path class="cls-6" d="m212.9,43.94l2.69-24.46,5.46.52-2.38,20.17,12.35,1.3-.7,4.46-17.43-1.99Z"/>
      <path class="cls-6" d="m191.04,44.28l-.36-25.02,18.49-.17v4.53s-13.2.3-13.2.3l.05,5.16,12.12-.19.02,4.14-11.91.12-.05,6.36,13.38-.27v4.5s-18.55.53-18.55.53Z"/>
      <path class="cls-6" d="m166.25,48.24l-3.98-24.59,5.32-.95,12.83,14.75-2.79-16.5,5.35-.59,4.37,24.34-5.93,1-12.7-15.02,2.31,16.61-4.79.94Z"/>
      <path class="cls-6" d="m142.98,55.43l-7.67-23.6,4.96-1.78,3.53,9.73,5.62-12.69,6.7-2.32-6.04,12.33,15,11.12-6.81,2.24-10.66-8.43-1.97,4.24,2.5,7.45-5.17,1.71Z"/>
      <path class="cls-6" d="m131.47,50.08l4.75-2.1c1.8,3.96,2.13,9.55-3.9,13.25-7.64,4.68-13.51,1.52-17.66-4.71-4.09-6.15-2.55-13.23,4.19-17.17,5.83-3.41,11.15-2.04,14.13,2.72l-4.57,2.26c-1.99-2.23-5.47-2.41-7.8-.84-2.49,1.67-3.84,5.32-1.21,10.12,1.95,3.55,5.89,6.55,10.21,4.2,2.8-1.52,2.64-4.9,1.86-7.72h0Z"/>
      <path class="cls-6" d="m106.84,64.55l-8.09-5.61,2.73,9.59,5.36-3.98Zm13.17,2.64l-4.9,3.49-4.71-3.51-7.62,5.31,1.59,5.64-4.43,3.36-6.86-25.6,4.64-3.32,22.29,14.64Z"/>
      <path class="cls-6" d="m78.89,83.32l2.67-2.55c1.64-1.57,4.79-3.9,1.71-6.83-3.05-2.89-5.07-.03-6.84,1.64l-2.64,2.48,5.1,5.26Zm5.63,13.53l-17.69-18.05,8.75-8.38c3.2-3.07,7.44-4.77,10.99-1.13,2.62,2.69,2.72,4.83,1.6,7.61,3.11-1.79,4.89.3,8.65,3.17.92.71,1.6,1.73,2.98,1.75l-4.27,4.05-4.34-3.5c-3.92-3.16-5.84-.19-9.03,2.94l-.72.7,6.89,6.97-3.81,3.87Z"/>
      <path class="cls-6" d="m64.37,104.15l5.25,3.96,2.62-3.01c1.62-1.86,3.47-5.11.56-7.05-2.86-1.9-4.89.83-6.46,3.17l-1.98,2.93Zm-7.78-5.68l4.72,3.47,1.63-2.19c1.35-1.82,4.15-4.73,1.49-6.74-2.77-2.08-5.04,1.68-6.46,3.58l-1.38,1.87Zm-6.79,1.59l5.94-7.57c1.2-1.52,2.24-2.68,2.93-3.34,2.18-2.04,4.99-3.24,7.94-1.06,1.86,1.38,2.99,3.63,2.07,6.24,2.26-2.21,5.62-1.93,8.01-.12,5.8,4.38,1.34,10.09-1.86,14.34l-5,6.63-20.04-15.12Z"/>
      <path class="cls-6" d="m275.79,352.27l3.85-1.88,5.53,9.75c1.62,2.85,2.76,5.3,6.07,3.4,2.42-1.4,1.84-3.89.3-6.72l-5.47-10.1,3.92-2.09,5.18,9.62c3.2,5.96,3.37,9.3-1.94,12.49-4.94,2.96-8.83,1.92-11.89-3.9l-5.55-10.56Z"/>
      <path class="cls-6" d="m268.96,377.08l-7.77-18.67,3.91-1.63,6.48,15.32,8.92-3.65,1.43,3.28-12.98,5.36Z"/>
      <path class="cls-6" d="m258.23,372.81l4.2-.94c.06,4.57-.98,8.15-5.35,9.52-6.29,1.98-10.5-1.85-12.16-7.48-1.75-5.91-.38-10.84,5.28-12.74,4.99-1.67,8.75.6,10.57,4.58l-4.22,1.31c-1.11-1.94-2.7-3.31-4.81-2.69-3.49,1.01-3.68,4.9-2.69,8.26.98,3.34,3.51,6.68,6.71,5.21,2.57-1.18,2.61-2.54,2.46-5.04h0Z"/>
      <path class="cls-6" d="m223.52,387.62l-2.61-20.28,4.21-.53,2.19,16.76,9.79-1.48.43,3.55-14,1.97Z"/>
      <path class="cls-6" d="m205.73,388.61l-.77-20.42,4.24-.14.55,16.74,9.86-.17.15,3.55-14.03.45Z"/>
      <path class="cls-6" d="m195.54,380.56l-1.99-8.07-3.21,7.77,5.2.3Zm6.57,8.21l-4.73-.21-1.02-4.26-7.29-.38-1.43,3.76-4.72-.21,8.49-19.91,4.72.49,5.99,20.72Z"/>
      <path class="cls-6" d="m170.3,376.13l-.95,5.38,3.75.68c2.04.37,4.08.66,4.54-1.86.52-2.86-2-3.22-4.09-3.61l-3.26-.59Zm1.41-7.95l-.82,4.62,2.62.48c1.84.34,5.24,1.35,5.73-1.4.5-2.86-3.38-2.93-5.25-3.28l-2.29-.42Zm-3.69-4.07l8.04,1.46c3.96.72,7.59,1.75,6.68,6.87-.34,1.93-1.81,3.43-3.38,3.3,2.11,1.12,2.97,3.09,2.51,5.58-.97,5.37-5.75,5.44-11.05,4.25l-6.35-1.42,3.55-20.05Z"/>
      <path class="cls-6" d="m151.2,380.46l4.74-16.24-5.95-1.74.96-3.3,15.95,4.65-.96,3.3-5.92-1.73-4.74,16.24-4.07-1.19Z"/>
      <path class="cls-6" d="m113.79,353.62c-1.85,3.22-1.97,6.63,1.15,8.43,2.63,1.51,5.83-.12,7.69-3.36,1.85-3.23,2.91-6.57-.79-8.7-3.65-2.09-6.16.34-8.05,3.64h0Zm-3.61-2.37c3.16-5.51,7.94-8.23,13.61-4.49,5.32,3.5,5.95,8.5,2.63,13.93-3.1,5.06-7.73,7.75-13.32,4.54-5.57-3.19-6.08-8.47-2.92-13.98h0Z"/>
      <path class="cls-6" d="m91.37,349.84l11.88-16.49,11.42,8.15-1.93,2.92-8.08-5.84-2.85,4.07,7,5-2,2.8-6.93-4.9-4.93,6.75-3.59-2.47Z"/>
      <path class="cls-6" d="m132.92,363.46c-1.35,3.46-.96,6.85,2.38,8.16,2.83,1.11,5.75-.98,7.11-4.46,1.36-3.47,1.91-6.93-2.06-8.49-3.92-1.54-6.04,1.24-7.43,4.78h0Zm-3.91-1.81c2.32-5.92,6.64-9.3,12.8-6.45,5.78,2.68,7.14,7.53,4.65,13.39-2.32,5.46-6.5,8.8-12.51,6.45-5.98-2.34-7.25-7.48-4.94-13.39h0Z"/>
      <path class="cls-6" d="m302.21,350.11l3.14,4.46,3.13-2.18c1.7-1.18,3.35-2.43,1.88-4.54-1.66-2.38-3.69-.85-5.43.36l-2.72,1.89Zm-4.65-6.6l2.7,3.83,2.19-1.52c1.53-1.06,4.65-2.77,3.04-5.05-1.67-2.37-4.46.33-6.02,1.41l-1.91,1.33Zm-5.49-.25l6.7-4.68c3.3-2.3,6.59-4.15,9.59.11,1.13,1.6,1.16,3.7-.04,4.72,2.28-.71,4.28.07,5.73,2.15,3.12,4.47-.2,7.91-4.76,10.84l-5.48,3.51-11.73-16.64Z"/>
      <path class="cls-5" d="m206.4,250.93c-7.73,1.94-15.64,5.4-23.55,8.86-1.21,8.46-.37,16.92,1.05,25.38,7.03,2.73,14.29,5.41,22.08,7.95l14.7-20.95-14.27-21.23Z"/>
      <path class="cls-6" d="m183.9,285.17c-1.42-8.46-2.26-16.92-1.05-25.38,7.91-3.46,15.83-6.92,23.55-8.86l14.27,21.23-14.7,20.95c-7.78-2.54-15.05-5.22-22.08-7.95h0Zm-1.62-28.48l-9.84-7.52c2.62-5.6,5.5-10.97,8.96-15.82-.46-.38-1.12-.82-1.58-1.2-.47-.37-9.51,15.46-10.49,16.92-.98,1.45-5.27,4.48-7.91,6.72l1.2,1.51,7.89-6.03,9.49,8.44c-1.63,8.47-1.26,16.95.49,25.42l-11.89,13.04c-3.97-1.91-7.43-4.75-10.83-7.7l-1.23,1.3c3.45,3.5,7.11,6.56,11.21,8.65,3.18,6.74,6.33,13.21,9.7,19.39l1.72-.76c-3.27-6.1-6.35-12.31-8.3-19.16l11.74-11.53c7.41,3.4,14.81,5.92,22.22,8.19l8.67,18.3-13.11,11.78,1.34,1.51,14.34-11.53,22.85-.18-.07-1.97-22.54-.46-7.91-18.42,14.82-21.69,21.83,1.27c2.5,7.08,5.01,14.3,7.5,21.38.63-.16,1.29-.43,1.95-.53l-6.78-21.87,7.38-18.7-1.93-.88-7.94,17.9-21.74-1.44-15.68-21.2,8.75-15.57c7.79.48,15.52,1,23.31,1.48.03-.67.14-1.37.17-2.04l-23.19-1.97c-4.34-3.43-8.9-6.25-13.8-8.17l-.74,1.67c4.31,1.75,8.23,4.35,11.79,7.79-3.33,4.78-5.58,10.64-8.09,16.24-8.34,1.08-16,4.43-23.77,7.45h0Z"/>
      <path class="cls-5" d="m180.49,285.13c-1.75-8.47-2.12-16.95-.49-25.42l-9.49-8.44-7.89,6.03-1.2-1.51c2.64-2.24,6.93-5.26,7.91-6.72.98-1.46,10.03-17.29,10.49-16.92.46.38,1.12.82,1.58,1.2-3.47,4.85-6.34,10.22-8.96,15.82l9.84,7.52c7.76-3.03,15.42-6.38,23.77-7.45,2.51-5.6,4.76-11.46,8.09-16.24-3.56-3.44-7.49-6.04-11.79-7.79l.74-1.67c4.9,1.93,9.46,4.74,13.8,8.17l23.19,1.97c-.04.67-.14,1.37-.17,2.04-7.79-.48-15.52-1-23.31-1.48l-8.75,15.57,15.68,21.2,21.74,1.44,7.94-17.9,1.93.88-7.38,18.7,6.78,21.87c-.67.09-1.32.36-1.95.53-2.5-7.08-5.01-14.3-7.5-21.38l-21.83-1.27-14.82,21.69,7.91,18.42,22.54.46.07,1.97-22.85.18-14.34,11.53-1.34-1.51,13.11-11.78-8.67-18.3c-7.41-2.27-14.81-4.79-22.22-8.19l-11.74,11.53c1.95,6.85,5.03,13.06,8.3,19.16l-1.72.76c-3.37-6.18-6.52-12.65-9.7-19.39-4.11-2.09-7.76-5.15-11.21-8.65l1.23-1.3c3.4,2.95,6.86,5.79,10.83,7.7l11.89-13.04Zm30.43-64.16c-31.45.31-56.78,26.14-56.48,56.75.3,30.61,24.71,57.77,57.01,57.17,32.3-.59,57.13-27.41,56.83-58.02-.3-30.61-25.9-56.22-57.36-55.91h0Z"/>
      <path class="cls-3" d="m29.41,189.04c-7.83.08-14.12,6.5-14.05,14.12.08,7.62,6.15,14.37,14.18,14.23,8.03-.15,14.21-6.82,14.14-14.43-.08-7.62-6.45-13.99-14.27-13.91h0Zm-6.98,9.66c1.97-.86,3.94-1.72,5.86-2.21,1.18,1.76,2.37,3.52,3.55,5.28-1.22,1.73-2.44,3.47-3.66,5.21-1.93-.63-3.74-1.3-5.49-1.98-.35-2.1-.56-4.21-.26-6.31h0Zm-.75-6.87c.11.09.28.2.39.3-.86,1.2-1.58,2.54-2.23,3.93.82.62,1.63,1.25,2.45,1.87,1.93-.75,3.84-1.59,5.91-1.85.62-1.39,1.18-2.85,2.01-4.04-.89-.85-1.86-1.5-2.93-1.94.06-.14.12-.28.18-.42,1.21.48,2.35,1.18,3.43,2.03,1.93.16,3.85.33,5.77.49,0,.16-.04.34-.04.51-1.94-.12-3.86-.25-5.8-.37-.73,1.29-1.45,2.58-2.18,3.87,1.3,1.76,2.6,3.52,3.9,5.27,1.81.12,3.61.24,5.41.36.66-1.48,1.32-2.97,1.98-4.45.16.07.32.14.48.22-.61,1.55-1.22,3.1-1.84,4.65.57,1.82,1.12,3.62,1.69,5.44-.16.02-.33.09-.49.13-.62-1.76-1.25-3.56-1.87-5.32-1.81-.11-3.62-.21-5.43-.32-1.23,1.8-2.46,3.6-3.68,5.4.66,1.53,1.31,3.05,1.96,4.58,1.87.04,3.74.07,5.61.11,0,.16.01.33.02.49-1.89.01-3.79.03-5.68.05-1.19.95-2.38,1.91-3.57,2.87-.11-.13-.22-.25-.33-.38,1.09-.98,2.18-1.95,3.26-2.93-.72-1.52-1.44-3.04-2.16-4.55-1.84-.57-3.68-1.19-5.53-2.04-.97.95-1.95,1.91-2.92,2.87.49,1.7,1.25,3.25,2.07,4.77-.13.06-.3.13-.43.19-.84-1.53-1.62-3.14-2.41-4.82-1.02-.52-1.93-1.28-2.79-2.15.1-.11.2-.22.3-.32.85.73,1.71,1.44,2.7,1.91.98-1.08,1.97-2.16,2.96-3.24-.44-2.11-.53-4.22-.13-6.32-.78-.7-1.57-1.4-2.36-2.1-.66.5-1.31,1-1.96,1.5-.1-.13-.2-.25-.3-.38.66-.56,1.72-1.31,1.97-1.67.25-.36,2.5-4.3,2.61-4.21h0Z"/>
      <path class="cls-5" d="m28.28,196.49c-1.92.48-3.89,1.34-5.86,2.21-.3,2.1-.09,4.21.26,6.31,1.75.68,3.56,1.34,5.49,1.98l3.66-5.21-3.55-5.29Z"/>
      <path class="cls-3" d="m28.28,196.49c-1.92.48-3.89,1.34-5.86,2.21-.3,2.1-.09,4.21.26,6.31,1.75.68,3.56,1.34,5.49,1.98l3.66-5.21-3.55-5.28Z"/>
      <path class="cls-6" d="m22.69,205.01c-.35-2.11-.56-4.21-.26-6.31,1.97-.86,3.94-1.72,5.86-2.21l3.55,5.29-3.66,5.21c-1.93-.63-3.74-1.3-5.49-1.98h0Zm-.4-7.09l-2.45-1.87c.65-1.39,1.37-2.73,2.23-3.93-.11-.09-.28-.21-.39-.3-.11-.09-2.36,3.85-2.61,4.21-.25.36-1.31,1.11-1.97,1.67l.3.38,1.96-1.5,2.36,2.1c-.4,2.11-.31,4.21.13,6.32l-2.96,3.24c-.99-.47-1.85-1.18-2.7-1.91l-.3.32c.86.87,1.77,1.63,2.79,2.15.79,1.68,1.57,3.29,2.41,4.82l.43-.19c-.81-1.51-1.58-3.06-2.07-4.76l2.92-2.87c1.84.84,3.69,1.47,5.53,2.04l2.16,4.55-3.26,2.93.33.38,3.57-2.87,5.68-.05-.02-.49-5.61-.11-1.96-4.58,3.68-5.4,5.43.32c.62,1.76,1.25,3.55,1.87,5.32.16-.04.32-.11.49-.13l-1.69-5.44,1.84-4.65-.48-.22-1.98,4.45-5.41-.36-3.9-5.27,2.18-3.88c1.94.12,3.86.25,5.8.37,0-.17.04-.34.04-.51l-5.77-.49c-1.08-.85-2.22-1.55-3.43-2.03l-.18.41c1.07.44,2.05,1.08,2.93,1.94-.83,1.19-1.39,2.65-2.01,4.04-2.08.27-3.98,1.1-5.91,1.85h0Z"/>
      <path class="cls-3" d="m22.69,205.01c-.35-2.1-.56-4.21-.26-6.31,1.97-.86,3.94-1.72,5.86-2.21l3.55,5.28-3.66,5.21c-1.93-.63-3.74-1.3-5.49-1.98h0Zm-.4-7.08l-2.45-1.87c.65-1.39,1.37-2.73,2.23-3.93-.11-.09-.28-.21-.39-.3-.11-.09-2.36,3.85-2.61,4.21-.25.36-1.31,1.11-1.97,1.67l.3.38,1.96-1.5,2.36,2.1c-.4,2.11-.31,4.22.13,6.32l-2.96,3.24c-.99-.47-1.85-1.18-2.7-1.91l-.3.32c.86.87,1.77,1.63,2.79,2.15.79,1.68,1.57,3.29,2.41,4.82l.43-.19c-.81-1.51-1.58-3.06-2.07-4.77l2.92-2.87c1.84.84,3.69,1.47,5.53,2.04l2.16,4.55-3.26,2.93.33.38,3.57-2.87,5.68-.05-.02-.49-5.61-.11-1.96-4.58,3.68-5.4,5.43.32c.62,1.76,1.25,3.55,1.87,5.32.16-.04.32-.11.49-.13l-1.69-5.44,1.84-4.65-.48-.22-1.98,4.45-5.41-.36-3.9-5.27,2.18-3.87c1.94.12,3.86.25,5.8.37,0-.17.04-.34.04-.51l-5.77-.49c-1.08-.85-2.22-1.55-3.43-2.03l-.18.42c1.07.44,2.05,1.08,2.93,1.94-.83,1.19-1.39,2.65-2.01,4.04-2.08.27-3.98,1.1-5.91,1.85h0Z"/>
      <path class="cls-5" d="m21.84,205c-.44-2.11-.53-4.22-.13-6.32l-2.36-2.1-1.96,1.5-.3-.38c.66-.56,1.72-1.31,1.97-1.67.25-.36,2.5-4.3,2.61-4.21.11.09.28.2.39.3-.86,1.2-1.58,2.54-2.23,3.93l2.45,1.87c1.93-.75,3.84-1.59,5.91-1.85.62-1.39,1.18-2.85,2.01-4.04-.89-.85-1.86-1.5-2.93-1.94l.18-.41c1.21.48,2.35,1.18,3.43,2.03l5.77.49c0,.16-.04.34-.04.51-1.94-.12-3.86-.25-5.8-.37l-2.18,3.88,3.9,5.27,5.41.36,1.98-4.45.48.22-1.84,4.65,1.69,5.44c-.16.02-.33.09-.49.13-.62-1.76-1.25-3.56-1.87-5.32l-5.43-.32-3.68,5.4,1.96,4.58,5.61.11.02.49-5.68.05-3.57,2.87-.33-.38,3.26-2.93-2.16-4.55c-1.84-.57-3.68-1.19-5.53-2.04l-2.92,2.87c.49,1.7,1.25,3.25,2.07,4.76l-.43.19c-.84-1.54-1.62-3.15-2.41-4.82-1.02-.52-1.93-1.28-2.79-2.15l.3-.32c.85.73,1.71,1.44,2.7,1.91l2.96-3.24Zm7.57-15.96c-7.83.08-14.12,6.5-14.05,14.12.08,7.62,6.15,14.38,14.18,14.23,8.03-.15,14.21-6.82,14.14-14.43-.08-7.62-6.45-13.99-14.27-13.91h0Z"/>
      <path class="cls-3" d="m21.84,205c-.44-2.11-.53-4.22-.13-6.32l-2.36-2.1-1.96,1.5-.3-.38c.66-.56,1.72-1.31,1.97-1.67.25-.36,2.5-4.3,2.61-4.21.11.09.28.2.39.3-.86,1.2-1.58,2.54-2.23,3.93l2.45,1.87c1.93-.75,3.84-1.59,5.91-1.85.62-1.39,1.18-2.85,2.01-4.04-.89-.85-1.86-1.5-2.93-1.94l.18-.42c1.21.48,2.35,1.18,3.43,2.03l5.77.49c0,.16-.04.34-.04.51-1.94-.12-3.86-.25-5.8-.37l-2.18,3.87,3.9,5.27,5.41.36,1.98-4.45.48.22-1.84,4.65,1.69,5.44c-.16.02-.33.09-.49.13-.62-1.76-1.25-3.56-1.87-5.32l-5.43-.32-3.68,5.4,1.96,4.58,5.61.11.02.49-5.68.05-3.57,2.87-.33-.38,3.26-2.93-2.16-4.55c-1.84-.57-3.68-1.19-5.53-2.04l-2.92,2.87c.49,1.7,1.25,3.25,2.07,4.77l-.43.19c-.84-1.53-1.62-3.14-2.41-4.82-1.02-.52-1.93-1.28-2.79-2.15l.3-.32c.85.73,1.71,1.44,2.7,1.91l2.96-3.24Zm7.57-15.96c-7.83.08-14.12,6.5-14.05,14.12.08,7.62,6.15,14.37,14.18,14.23,8.03-.15,14.21-6.82,14.14-14.43-.08-7.62-6.45-13.99-14.27-13.91h0Z"/>
      <path class="cls-7" d="m22.43,198.7c-.3,2.1-.09,4.21.26,6.31,1.75.68,3.56,1.34,5.49,1.98l3.66-5.21-3.55-5.29c-1.92.48-3.89,1.34-5.86,2.21h0Z"/>
      <path class="cls-3" d="m22.43,198.7c-.3,2.1-.09,4.21.26,6.31,1.75.68,3.56,1.34,5.49,1.98l3.66-5.21-3.55-5.28c-1.92.48-3.89,1.34-5.86,2.21h0Z"/>
      <path class="cls-7" d="m21.84,205c-.44-2.11-.53-4.22-.13-6.32l-2.36-2.1-1.96,1.5-.3-.38c.66-.56,1.72-1.31,1.97-1.67.25-.36,2.5-4.3,2.61-4.21.11.09.28.2.39.3-.86,1.2-1.58,2.54-2.23,3.93l2.45,1.87c1.93-.75,3.84-1.59,5.91-1.85.62-1.39,1.18-2.85,2.01-4.04-.89-.85-1.86-1.5-2.93-1.94l.18-.41c1.21.48,2.35,1.18,3.43,2.03l5.77.49c0,.16-.04.34-.04.51-1.94-.12-3.86-.25-5.8-.37l-2.18,3.88,3.9,5.27,5.41.36,1.98-4.45.48.22-1.84,4.65,1.69,5.44c-.16.02-.33.09-.49.13l-1.87-5.32-5.43-.32-3.68,5.4,1.96,4.58,5.61.11.02.49-5.68.05-3.57,2.87-.33-.38,3.26-2.93-2.16-4.55c-1.84-.57-3.68-1.19-5.53-2.04l-2.92,2.87c.49,1.7,1.25,3.25,2.07,4.76l-.43.19c-.84-1.54-1.62-3.15-2.41-4.82-1.02-.52-1.93-1.28-2.79-2.15l.3-.32c.85.73,1.71,1.44,2.7,1.91l2.96-3.24Zm7.57-15.96c-7.83.08-14.12,6.5-14.05,14.12.08,7.62,6.15,14.37,14.18,14.23,4.54-.08,8.48-2.25,11.04-5.49,1.97-2.5,3.13-5.63,3.09-8.95-.03-3.21-1.18-6.2-3.09-8.58-2.61-3.26-6.65-5.37-11.18-5.33h0Z"/>
      <path class="cls-3" d="m21.84,205c-.44-2.11-.53-4.22-.13-6.32l-2.36-2.1-1.96,1.5-.3-.38c.66-.56,1.72-1.31,1.97-1.67.25-.36,2.5-4.3,2.61-4.21.11.09.28.2.39.3-.86,1.2-1.58,2.54-2.23,3.93l2.45,1.87c1.93-.75,3.84-1.59,5.91-1.85.62-1.39,1.18-2.85,2.01-4.04-.89-.85-1.86-1.5-2.93-1.94l.18-.42c1.21.48,2.35,1.18,3.43,2.03l5.77.49c0,.16-.04.34-.04.51-1.94-.12-3.86-.25-5.8-.37l-2.18,3.87,3.9,5.27,5.41.36,1.98-4.45.48.22-1.84,4.65,1.69,5.44c-.16.02-.33.09-.49.13l-1.87-5.32-5.43-.32-3.68,5.4,1.96,4.58,5.61.11.02.49-5.68.05-3.57,2.87-.33-.38,3.26-2.93-2.16-4.55c-1.84-.57-3.68-1.19-5.53-2.04l-2.92,2.87c.49,1.7,1.25,3.25,2.07,4.77l-.43.19c-.84-1.53-1.62-3.14-2.41-4.82-1.02-.52-1.93-1.28-2.79-2.15l.3-.32c.85.73,1.71,1.44,2.7,1.91l2.96-3.24Zm7.57-15.96c-7.83.08-14.12,6.5-14.05,14.12.08,7.62,6.15,14.37,14.18,14.23,4.54-.08,8.48-2.25,11.04-5.49,1.97-2.5,3.13-5.63,3.09-8.95-.03-3.21-1.18-6.2-3.09-8.58-2.61-3.26-6.65-5.37-11.18-5.33h0Z"/>
      <path class="cls-5" d="m31.84,201.78l-3.66,5.21c-1.93-.63-3.74-1.3-5.49-1.98-.35-2.11-.56-4.21-.26-6.31,1.97-.86,3.94-1.72,5.86-2.21l3.55,5.29Zm-10.12-3.1c-.4,2.11-.31,4.21.13,6.32l-2.96,3.24c-.99-.47-1.85-1.18-2.7-1.91l-.3.32c.86.87,1.77,1.63,2.79,2.15.79,1.68,1.57,3.29,2.41,4.82l.43-.19c-.81-1.51-1.58-3.06-2.07-4.76l2.92-2.87c1.84.84,3.69,1.47,5.53,2.04l2.16,4.55-3.26,2.93.33.38,3.57-2.87,5.68-.05-.02-.49-5.61-.11-1.96-4.58,3.68-5.4,5.43.32,1.87,5.32c.16-.04.32-.11.49-.13l-1.69-5.44,1.84-4.65-.48-.22-1.98,4.45-5.41-.36-3.9-5.27,2.18-3.88c1.94.12,3.86.25,5.8.37,0-.17.04-.34.04-.51l-5.77-.49c-1.08-.85-2.22-1.55-3.43-2.03l-.18.41c1.07.44,2.05,1.08,2.93,1.94-.83,1.19-1.39,2.65-2.01,4.04-2.08.27-3.98,1.1-5.91,1.85l-2.45-1.87c.65-1.39,1.37-2.73,2.23-3.93-.11-.09-.28-.21-.39-.3-.11-.09-2.36,3.85-2.61,4.21-.25.36-1.31,1.11-1.97,1.67l.3.38,1.96-1.5,2.36,2.1Z"/>
      <path class="cls-3" d="m31.84,201.78l-3.66,5.21c-1.93-.63-3.74-1.3-5.49-1.98-.35-2.1-.56-4.21-.26-6.31,1.97-.86,3.94-1.72,5.86-2.21l3.55,5.28Zm-10.12-3.1c-.4,2.11-.31,4.22.13,6.32l-2.96,3.24c-.99-.47-1.85-1.18-2.7-1.91l-.3.32c.86.87,1.77,1.63,2.79,2.15.79,1.68,1.57,3.29,2.41,4.82l.43-.19c-.81-1.51-1.58-3.06-2.07-4.77l2.92-2.87c1.84.84,3.69,1.47,5.53,2.04l2.16,4.55-3.26,2.93.33.38,3.57-2.87,5.68-.05-.02-.49-5.61-.11-1.96-4.58,3.68-5.4,5.43.32,1.87,5.32c.16-.04.32-.11.49-.13l-1.69-5.44,1.84-4.65-.48-.22-1.98,4.45-5.41-.36-3.9-5.27,2.18-3.87c1.94.12,3.86.25,5.8.37,0-.17.04-.34.04-.51l-5.77-.49c-1.08-.85-2.22-1.55-3.43-2.03l-.18.42c1.07.44,2.05,1.08,2.93,1.94-.83,1.19-1.39,2.65-2.01,4.04-2.08.27-3.98,1.1-5.91,1.85l-2.45-1.87c.65-1.39,1.37-2.73,2.23-3.93-.11-.09-.28-.21-.39-.3-.11-.09-2.36,3.85-2.61,4.21-.25.36-1.31,1.11-1.97,1.67l.3.38,1.96-1.5,2.36,2.1Z"/>
      <path class="cls-6" d="m21.84,205c-.44-2.11-.53-4.22-.13-6.32l-2.36-2.1-1.96,1.5-.3-.38c.66-.56,1.72-1.31,1.97-1.67.25-.36,2.5-4.3,2.61-4.21.11.09.28.2.39.3-.86,1.2-1.58,2.54-2.23,3.93l2.45,1.87c1.93-.75,3.84-1.59,5.91-1.85.62-1.39,1.18-2.85,2.01-4.04-.89-.85-1.86-1.5-2.93-1.94l.18-.41c1.21.48,2.35,1.18,3.43,2.03l5.77.49c0,.16-.04.34-.04.51-1.94-.12-3.86-.25-5.8-.37l-2.18,3.88,3.9,5.27,5.41.36,1.98-4.45.48.22-1.84,4.65,1.69,5.44c-.16.02-.33.09-.49.13l-1.87-5.32-5.43-.32-3.68,5.4,1.96,4.58,5.61.11.02.49-5.68.05-3.57,2.87-.33-.38,3.26-2.93-2.16-4.55c-1.84-.57-3.68-1.19-5.53-2.04l-2.92,2.87c.49,1.7,1.25,3.25,2.07,4.76l-.43.19c-.84-1.54-1.62-3.15-2.41-4.82-1.02-.52-1.93-1.28-2.79-2.15l.3-.32c.85.73,1.71,1.44,2.7,1.91l2.96-3.24Zm18.75,6.89c1.97-2.5,3.13-5.63,3.09-8.95-.03-3.21-1.18-6.2-3.09-8.58-2.61-3.26-6.65-5.37-11.18-5.33-7.83.08-14.12,6.5-14.05,14.12.08,7.62,6.15,14.37,14.18,14.23,4.54-.08,8.48-2.25,11.04-5.49h0Z"/>
      <path class="cls-3" d="m21.84,205c-.44-2.11-.53-4.22-.13-6.32l-2.36-2.1-1.96,1.5-.3-.38c.66-.56,1.72-1.31,1.97-1.67.25-.36,2.5-4.3,2.61-4.21.11.09.28.2.39.3-.86,1.2-1.58,2.54-2.23,3.93l2.45,1.87c1.93-.75,3.84-1.59,5.91-1.85.62-1.39,1.18-2.85,2.01-4.04-.89-.85-1.86-1.5-2.93-1.94l.18-.42c1.21.48,2.35,1.18,3.43,2.03l5.77.49c0,.16-.04.34-.04.51-1.94-.12-3.86-.25-5.8-.37l-2.18,3.87,3.9,5.27,5.41.36,1.98-4.45.48.22-1.84,4.65,1.69,5.44c-.16.02-.33.09-.49.13l-1.87-5.32-5.43-.32-3.68,5.4,1.96,4.58,5.61.11.02.49-5.68.05-3.57,2.87-.33-.38,3.26-2.93-2.16-4.55c-1.84-.57-3.68-1.19-5.53-2.04l-2.92,2.87c.49,1.7,1.25,3.25,2.07,4.77l-.43.19c-.84-1.53-1.62-3.14-2.41-4.82-1.02-.52-1.93-1.28-2.79-2.15l.3-.32c.85.73,1.71,1.44,2.7,1.91l2.96-3.24Zm18.75,6.89c1.97-2.5,3.13-5.63,3.09-8.95-.03-3.21-1.18-6.2-3.09-8.58-2.61-3.26-6.65-5.37-11.18-5.33-7.83.08-14.12,6.5-14.05,14.12.08,7.62,6.15,14.37,14.18,14.23,4.54-.08,8.48-2.25,11.04-5.49h0Z"/>
      <path class="cls-6" d="m22.43,198.7c-.3,2.1-.09,4.21.26,6.31,1.75.68,3.56,1.34,5.49,1.98l3.66-5.21-3.55-5.29c-1.92.48-3.89,1.34-5.86,2.21h0Z"/>
      <path class="cls-3" d="m22.43,198.7c-.3,2.1-.09,4.21.26,6.31,1.75.68,3.56,1.34,5.49,1.98l3.66-5.21-3.55-5.28c-1.92.48-3.89,1.34-5.86,2.21h0Zm356.72-9.38c-7.82.08-14.13,6.5-14.05,14.12.07,7.62,6.15,14.38,14.18,14.23,8.04-.15,14.21-6.82,14.14-14.43-.07-7.62-6.45-13.99-14.27-13.91h0Zm-6.98,9.66c1.97-.86,3.94-1.72,5.86-2.21,1.18,1.76,2.37,3.52,3.55,5.28-1.22,1.74-2.44,3.47-3.65,5.21-1.94-.63-3.75-1.3-5.5-1.98-.35-2.11-.56-4.21-.26-6.31h0Zm-.75-6.88c.12.09.28.2.39.3-.86,1.2-1.57,2.54-2.23,3.93.82.62,1.63,1.25,2.45,1.87,1.93-.75,3.84-1.59,5.91-1.85.63-1.39,1.18-2.85,2.01-4.04-.89-.86-1.86-1.5-2.93-1.94.06-.14.12-.28.18-.41,1.22.48,2.35,1.18,3.43,2.04,1.93.16,3.85.32,5.77.49,0,.16-.04.34-.04.51-1.94-.12-3.86-.25-5.8-.37-.72,1.29-1.45,2.58-2.18,3.88,1.3,1.76,2.6,3.51,3.9,5.27,1.8.12,3.61.24,5.41.36.66-1.49,1.32-2.97,1.98-4.45.16.07.32.15.48.22-.61,1.55-1.22,3.1-1.84,4.65.57,1.82,1.12,3.62,1.69,5.44-.16.02-.33.09-.48.13-.62-1.76-1.25-3.56-1.87-5.32-1.81-.1-3.62-.21-5.43-.32-1.23,1.8-2.46,3.6-3.69,5.4.66,1.53,1.31,3.05,1.97,4.58,1.87.04,3.73.07,5.61.11,0,.16.01.33.01.49-1.89.02-3.79.03-5.68.05-1.19.95-2.38,1.91-3.57,2.87-.11-.12-.22-.25-.33-.38,1.09-.98,2.18-1.95,3.26-2.93-.72-1.52-1.44-3.03-2.16-4.55-1.84-.57-3.68-1.19-5.53-2.03-.97.95-1.95,1.91-2.92,2.87.48,1.7,1.25,3.25,2.06,4.76-.13.06-.3.13-.43.19-.84-1.54-1.62-3.15-2.41-4.82-1.02-.52-1.93-1.28-2.79-2.15.1-.11.2-.22.3-.32.85.73,1.71,1.44,2.7,1.91.98-1.08,1.97-2.16,2.96-3.24-.44-2.11-.53-4.22-.12-6.32-.79-.7-1.57-1.4-2.36-2.1-.65.5-1.31,1-1.96,1.5-.1-.12-.2-.25-.3-.38.66-.56,1.73-1.31,1.97-1.67.25-.36,2.5-4.3,2.61-4.21h0Z"/>
      <path class="cls-5" d="m378.02,196.77c-1.92.49-3.89,1.34-5.86,2.21-.3,2.1-.09,4.21.26,6.31,1.75.68,3.56,1.34,5.5,1.98l3.65-5.21-3.55-5.29Z"/>
      <path class="cls-3" d="m378.02,196.77c-1.92.49-3.89,1.34-5.86,2.21-.3,2.1-.09,4.21.26,6.31,1.75.68,3.56,1.34,5.5,1.98l3.65-5.21-3.55-5.28Z"/>
      <path class="cls-6" d="m372.42,205.29c-.35-2.11-.56-4.21-.26-6.31,1.97-.86,3.94-1.72,5.86-2.21l3.55,5.29-3.65,5.21c-1.94-.63-3.75-1.3-5.5-1.98h0Zm-.4-7.09l-2.45-1.87c.66-1.39,1.37-2.73,2.23-3.93-.11-.09-.28-.21-.39-.3-.11-.09-2.36,3.85-2.61,4.21-.24.36-1.31,1.11-1.97,1.67l.3.38,1.96-1.5,2.36,2.1c-.41,2.1-.32,4.21.12,6.32l-2.96,3.24c-.99-.47-1.85-1.18-2.7-1.91l-.3.32c.86.87,1.77,1.63,2.79,2.15.79,1.68,1.58,3.29,2.41,4.82l.43-.19c-.81-1.51-1.58-3.06-2.06-4.76l2.92-2.87c1.84.84,3.69,1.47,5.53,2.04l2.16,4.55-3.26,2.93.33.38,3.57-2.87,5.68-.05v-.49s-5.62-.11-5.62-.11l-1.97-4.58,3.69-5.4,5.43.32c.62,1.76,1.25,3.55,1.87,5.32.16-.04.32-.11.48-.13l-1.69-5.44,1.84-4.65-.48-.22-1.98,4.45-5.41-.36-3.9-5.27,2.18-3.88c1.94.12,3.86.25,5.8.37,0-.17.04-.34.04-.51l-5.77-.49c-1.08-.86-2.21-1.55-3.43-2.03l-.18.41c1.07.44,2.05,1.08,2.93,1.94-.83,1.19-1.39,2.65-2.01,4.04-2.08.27-3.98,1.1-5.91,1.85h0Z"/>
      <path class="cls-3" d="m372.42,205.29c-.35-2.11-.56-4.21-.26-6.31,1.97-.86,3.94-1.72,5.86-2.21l3.55,5.28-3.65,5.21c-1.94-.63-3.75-1.3-5.5-1.98h0Zm-.4-7.09l-2.45-1.87c.66-1.39,1.37-2.73,2.23-3.93-.11-.09-.28-.21-.39-.3-.11-.09-2.36,3.85-2.61,4.21-.24.36-1.31,1.11-1.97,1.67l.3.38,1.96-1.5,2.36,2.1c-.41,2.11-.32,4.22.12,6.32l-2.96,3.24c-.99-.47-1.85-1.18-2.7-1.91l-.3.32c.86.87,1.77,1.63,2.79,2.15.79,1.67,1.58,3.28,2.41,4.82l.43-.19c-.81-1.52-1.58-3.06-2.06-4.76l2.92-2.87c1.84.84,3.69,1.47,5.53,2.03l2.16,4.55-3.26,2.93.33.38,3.57-2.87,5.68-.05v-.49s-5.62-.11-5.62-.11l-1.97-4.58,3.69-5.4,5.43.32c.62,1.76,1.25,3.55,1.87,5.32.16-.04.32-.11.48-.13l-1.69-5.44,1.84-4.65-.48-.22-1.98,4.45-5.41-.36-3.9-5.27,2.18-3.88c1.94.12,3.86.25,5.8.37,0-.17.04-.34.04-.51l-5.77-.49c-1.08-.86-2.21-1.55-3.43-2.04l-.18.41c1.07.44,2.05,1.08,2.93,1.94-.83,1.19-1.39,2.65-2.01,4.04-2.08.27-3.98,1.1-5.91,1.85h0Z"/>
      <path class="cls-5" d="m371.57,205.29c-.44-2.11-.53-4.22-.12-6.32l-2.36-2.1-1.96,1.5-.3-.38c.66-.56,1.73-1.31,1.97-1.67.25-.36,2.5-4.3,2.61-4.21.12.09.28.2.39.3-.86,1.2-1.57,2.54-2.23,3.93l2.45,1.87c1.93-.75,3.84-1.59,5.91-1.85.63-1.39,1.18-2.85,2.01-4.04-.89-.85-1.86-1.5-2.93-1.94l.18-.41c1.22.48,2.35,1.18,3.43,2.03l5.77.49c0,.16-.04.34-.04.51-1.94-.12-3.86-.25-5.8-.37l-2.18,3.88,3.9,5.27,5.41.36,1.98-4.45.48.22-1.84,4.65,1.69,5.44c-.16.02-.33.09-.48.13-.62-1.76-1.25-3.55-1.87-5.32l-5.43-.32-3.69,5.4,1.97,4.58,5.61.11v.49s-5.67.05-5.67.05l-3.57,2.87-.33-.38,3.26-2.93-2.16-4.55c-1.84-.57-3.68-1.19-5.53-2.04l-2.92,2.87c.48,1.7,1.25,3.25,2.06,4.76l-.43.19c-.84-1.53-1.62-3.14-2.41-4.82-1.02-.52-1.93-1.28-2.79-2.15l.3-.32c.85.73,1.71,1.44,2.7,1.91l2.96-3.24Zm7.57-15.96c-7.82.08-14.13,6.5-14.05,14.12.07,7.62,6.15,14.38,14.18,14.23,8.04-.15,14.21-6.82,14.14-14.43-.07-7.62-6.45-13.99-14.27-13.91h0Z"/>
      <path class="cls-3" d="m371.57,205.29c-.44-2.11-.53-4.22-.12-6.32l-2.36-2.1-1.96,1.5-.3-.38c.66-.56,1.73-1.31,1.97-1.67.25-.36,2.5-4.3,2.61-4.21.12.09.28.2.39.3-.86,1.2-1.57,2.54-2.23,3.93l2.45,1.87c1.93-.75,3.84-1.59,5.91-1.85.63-1.39,1.18-2.85,2.01-4.04-.89-.86-1.86-1.5-2.93-1.94l.18-.41c1.22.48,2.35,1.18,3.43,2.04l5.77.49c0,.16-.04.34-.04.51-1.94-.12-3.86-.25-5.8-.37l-2.18,3.88,3.9,5.27,5.41.36,1.98-4.45.48.22-1.84,4.65,1.69,5.44c-.16.02-.33.09-.48.13-.62-1.76-1.25-3.56-1.87-5.32l-5.43-.32-3.69,5.4,1.97,4.58,5.61.11v.49s-5.67.05-5.67.05l-3.57,2.87-.33-.38,3.26-2.93-2.16-4.55c-1.84-.57-3.68-1.19-5.53-2.03l-2.92,2.87c.48,1.7,1.25,3.25,2.06,4.76l-.43.19c-.84-1.54-1.62-3.15-2.41-4.82-1.02-.52-1.93-1.28-2.79-2.15l.3-.32c.85.73,1.71,1.44,2.7,1.91l2.96-3.24Zm7.57-15.96c-7.82.08-14.13,6.5-14.05,14.12.07,7.62,6.15,14.38,14.18,14.23,8.04-.15,14.21-6.82,14.14-14.43-.07-7.62-6.45-13.99-14.27-13.91h0Z"/>
      <path class="cls-7" d="m372.16,198.98c-.3,2.1-.09,4.21.26,6.31,1.75.68,3.56,1.34,5.5,1.98l3.65-5.21-3.55-5.29c-1.92.49-3.89,1.34-5.86,2.21h0Z"/>
      <path class="cls-3" d="m372.16,198.98c-.3,2.1-.09,4.21.26,6.31,1.75.68,3.56,1.34,5.5,1.98l3.65-5.21-3.55-5.28c-1.92.49-3.89,1.34-5.86,2.21h0Z"/>
      <path class="cls-7" d="m371.57,205.29c-.44-2.11-.53-4.22-.12-6.32l-2.36-2.1-1.96,1.5-.3-.38c.66-.56,1.73-1.31,1.97-1.67.25-.36,2.5-4.3,2.61-4.21.12.09.28.2.39.3-.86,1.2-1.57,2.54-2.23,3.93l2.45,1.87c1.93-.75,3.84-1.59,5.91-1.85.63-1.39,1.18-2.85,2.01-4.04-.89-.85-1.86-1.5-2.93-1.94l.18-.41c1.22.48,2.35,1.18,3.43,2.03l5.77.49c0,.16-.04.34-.04.51-1.94-.12-3.86-.25-5.8-.37l-2.18,3.88,3.9,5.27,5.41.36,1.98-4.45.48.22-1.84,4.65,1.69,5.44c-.16.02-.33.09-.48.13l-1.87-5.32-5.43-.32-3.69,5.4,1.97,4.58,5.61.11v.49s-5.67.05-5.67.05l-3.57,2.87-.33-.38,3.26-2.93-2.16-4.55c-1.84-.57-3.68-1.19-5.53-2.04l-2.92,2.87c.48,1.7,1.25,3.25,2.06,4.76l-.43.19c-.84-1.53-1.62-3.14-2.41-4.82-1.02-.52-1.93-1.28-2.79-2.15l.3-.32c.85.73,1.71,1.44,2.7,1.91l2.96-3.24Zm7.57-15.96c-7.82.08-14.13,6.5-14.05,14.12.07,7.62,6.15,14.37,14.18,14.23,4.54-.08,8.49-2.25,11.04-5.49,1.98-2.5,3.13-5.63,3.09-8.95-.03-3.21-1.18-6.2-3.09-8.58-2.61-3.26-6.65-5.37-11.17-5.33h0Z"/>
      <path class="cls-3" d="m371.57,205.29c-.44-2.11-.53-4.22-.12-6.32l-2.36-2.1-1.96,1.5-.3-.38c.66-.56,1.73-1.31,1.97-1.67.25-.36,2.5-4.3,2.61-4.21.12.09.28.2.39.3-.86,1.2-1.57,2.54-2.23,3.93l2.45,1.87c1.93-.75,3.84-1.59,5.91-1.85.63-1.39,1.18-2.85,2.01-4.04-.89-.86-1.86-1.5-2.93-1.94l.18-.41c1.22.48,2.35,1.18,3.43,2.03l5.77.49c0,.16-.04.34-.04.51-1.94-.12-3.86-.25-5.8-.37l-2.18,3.88,3.9,5.27,5.41.36,1.98-4.45.48.22-1.84,4.65,1.69,5.44c-.16.02-.33.09-.48.13l-1.87-5.32-5.43-.32-3.69,5.4,1.97,4.58,5.61.11v.49s-5.67.05-5.67.05l-3.57,2.87-.33-.38,3.26-2.93-2.16-4.55c-1.84-.57-3.68-1.19-5.53-2.03l-2.92,2.87c.48,1.7,1.25,3.25,2.06,4.76l-.43.19c-.84-1.54-1.62-3.15-2.41-4.82-1.02-.52-1.93-1.28-2.79-2.15l.3-.32c.85.73,1.71,1.44,2.7,1.91l2.96-3.24Zm7.57-15.96c-7.82.08-14.13,6.5-14.05,14.12.07,7.62,6.15,14.37,14.18,14.23,4.54-.08,8.49-2.25,11.04-5.49,1.98-2.5,3.13-5.63,3.09-8.95-.03-3.21-1.18-6.2-3.09-8.58-2.61-3.26-6.65-5.37-11.17-5.33h0Z"/>
      <path class="cls-5" d="m381.57,202.06l-3.65,5.21c-1.94-.63-3.75-1.3-5.5-1.98-.35-2.11-.56-4.21-.26-6.31,1.97-.86,3.94-1.72,5.86-2.21l3.55,5.29Zm-10.12-3.1c-.41,2.1-.32,4.21.12,6.32l-2.96,3.24c-.99-.47-1.85-1.18-2.7-1.91l-.3.32c.86.87,1.77,1.63,2.79,2.15.79,1.68,1.57,3.29,2.41,4.82l.43-.19c-.81-1.51-1.58-3.06-2.06-4.76l2.92-2.87c1.84.84,3.69,1.47,5.53,2.04l2.16,4.55-3.26,2.93.33.38,3.57-2.87,5.68-.05v-.49s-5.62-.11-5.62-.11l-1.97-4.58,3.69-5.4,5.43.32,1.87,5.32c.16-.04.32-.11.48-.13l-1.69-5.44,1.84-4.65-.48-.22-1.98,4.45-5.41-.36-3.9-5.27,2.18-3.88c1.94.12,3.86.25,5.8.37,0-.17.04-.34.04-.51l-5.77-.49c-1.08-.85-2.21-1.55-3.43-2.03l-.18.41c1.07.44,2.05,1.08,2.93,1.94-.83,1.19-1.39,2.65-2.01,4.04-2.08.27-3.98,1.1-5.91,1.85l-2.45-1.87c.66-1.39,1.37-2.73,2.23-3.93-.11-.09-.28-.21-.39-.3-.11-.09-2.36,3.85-2.61,4.21-.24.36-1.31,1.11-1.97,1.67l.3.38,1.96-1.5,2.36,2.1Z"/>
      <path class="cls-3" d="m381.57,202.06l-3.65,5.21c-1.94-.63-3.75-1.3-5.5-1.98-.35-2.11-.56-4.21-.26-6.31,1.97-.86,3.94-1.72,5.86-2.21l3.55,5.28Zm-10.12-3.1c-.41,2.11-.32,4.22.12,6.32l-2.96,3.24c-.99-.47-1.85-1.18-2.7-1.91l-.3.32c.86.87,1.77,1.63,2.79,2.15.79,1.68,1.57,3.29,2.41,4.82l.43-.19c-.81-1.52-1.58-3.06-2.06-4.76l2.92-2.87c1.84.84,3.69,1.47,5.53,2.03l2.16,4.55-3.26,2.93.33.38,3.57-2.87,5.68-.05v-.49s-5.62-.11-5.62-.11l-1.97-4.58,3.69-5.4,5.43.32,1.87,5.32c.16-.04.32-.11.48-.13l-1.69-5.44,1.84-4.65-.48-.22-1.98,4.45-5.41-.36-3.9-5.27,2.18-3.88c1.94.12,3.86.25,5.8.37,0-.17.04-.34.04-.51l-5.77-.49c-1.08-.85-2.21-1.55-3.43-2.03l-.18.41c1.07.44,2.05,1.08,2.93,1.94-.83,1.19-1.39,2.65-2.01,4.04-2.08.27-3.98,1.1-5.91,1.85l-2.45-1.87c.66-1.39,1.37-2.73,2.23-3.93-.11-.09-.28-.21-.39-.3-.11-.09-2.36,3.85-2.61,4.21-.24.36-1.31,1.11-1.97,1.67l.3.38,1.96-1.5,2.36,2.1Z"/>
      <path class="cls-6" d="m371.57,205.29c-.44-2.11-.53-4.22-.12-6.32l-2.36-2.1-1.96,1.5-.3-.38c.66-.56,1.73-1.31,1.97-1.67.25-.36,2.5-4.3,2.61-4.21.12.09.28.2.39.3-.86,1.2-1.57,2.54-2.23,3.93l2.45,1.87c1.93-.75,3.84-1.59,5.91-1.85.63-1.39,1.18-2.85,2.01-4.04-.89-.85-1.86-1.5-2.93-1.94l.18-.41c1.22.48,2.35,1.18,3.43,2.03l5.77.49c0,.16-.04.34-.04.51-1.94-.12-3.86-.25-5.8-.37l-2.18,3.88,3.9,5.27,5.41.36,1.98-4.45.48.22-1.84,4.65,1.69,5.44c-.16.02-.33.09-.48.13l-1.87-5.32-5.43-.32-3.69,5.4,1.97,4.58,5.61.11v.49s-5.67.05-5.67.05l-3.57,2.87-.33-.38,3.26-2.93-2.16-4.55c-1.84-.57-3.68-1.19-5.53-2.04l-2.92,2.87c.48,1.7,1.25,3.25,2.06,4.76l-.43.19c-.84-1.53-1.62-3.14-2.41-4.82-1.02-.52-1.93-1.28-2.79-2.15l.3-.32c.85.73,1.71,1.44,2.7,1.91l2.96-3.24Zm18.75,6.89c1.98-2.5,3.13-5.63,3.09-8.95-.03-3.21-1.18-6.2-3.09-8.58-2.61-3.26-6.65-5.37-11.17-5.33-7.82.08-14.13,6.5-14.05,14.12.07,7.62,6.15,14.37,14.18,14.23,4.54-.08,8.49-2.25,11.04-5.49h0Z"/>
      <path class="cls-3" d="m371.57,205.29c-.44-2.11-.53-4.22-.12-6.32l-2.36-2.1-1.96,1.5-.3-.38c.66-.56,1.73-1.31,1.97-1.67.25-.36,2.5-4.3,2.61-4.21.12.09.28.2.39.3-.86,1.2-1.57,2.54-2.23,3.93l2.45,1.87c1.93-.75,3.84-1.59,5.91-1.85.63-1.39,1.18-2.85,2.01-4.04-.89-.86-1.86-1.5-2.93-1.94l.18-.41c1.22.48,2.35,1.18,3.43,2.03l5.77.49c0,.16-.04.34-.04.51-1.94-.12-3.86-.25-5.8-.37l-2.18,3.88,3.9,5.27,5.41.36,1.98-4.45.48.22-1.84,4.65,1.69,5.44c-.16.02-.33.09-.48.13l-1.87-5.32-5.43-.32-3.69,5.4,1.97,4.58,5.61.11v.49s-5.67.05-5.67.05l-3.57,2.87-.33-.38,3.26-2.93-2.16-4.55c-1.84-.57-3.68-1.19-5.53-2.03l-2.92,2.87c.48,1.7,1.25,3.25,2.06,4.76l-.43.19c-.84-1.54-1.62-3.15-2.41-4.82-1.02-.52-1.93-1.28-2.79-2.15l.3-.32c.85.73,1.71,1.44,2.7,1.91l2.96-3.24Zm18.75,6.89c1.98-2.5,3.13-5.63,3.09-8.95-.03-3.21-1.18-6.2-3.09-8.58-2.61-3.26-6.65-5.37-11.17-5.33-7.82.08-14.13,6.5-14.05,14.12.07,7.62,6.15,14.37,14.18,14.23,4.54-.08,8.49-2.25,11.04-5.49h0Z"/>
      <path class="cls-6" d="m372.16,198.98c-.3,2.1-.09,4.21.26,6.31,1.75.68,3.56,1.34,5.5,1.98l3.65-5.21-3.55-5.29c-1.92.49-3.89,1.34-5.86,2.21h0Z"/>
      <path class="cls-3" d="m372.16,198.98c-.3,2.1-.09,4.21.26,6.31,1.75.68,3.56,1.34,5.5,1.98l3.65-5.21-3.55-5.28c-1.92.49-3.89,1.34-5.86,2.21h0Z"/>
      <g class="cls-1">
        <path class="cls-4" d="m204.05,55.09c-40.92,0-77.93,16.69-104.71,43.67-26.79,27-43.36,64.3-43.36,105.52s16.45,77.92,43.1,104.49c26.78,26.7,63.86,43.07,104.89,43.07s78.3-16.42,105.21-43.17c26.74-26.59,43.3-63.4,43.3-104.46s-16.63-78.45-43.48-105.42c-26.88-27-64.01-43.7-104.96-43.7h0Zm-107.71,40.68c27.55-27.76,65.62-44.93,107.71-44.93s80.31,17.18,107.96,44.96c27.62,27.75,44.73,66.07,44.73,108.41s-17.04,80.11-44.57,107.47c-27.69,27.53-65.99,44.42-108.2,44.42s-80.32-16.85-107.88-44.32c-27.43-27.35-44.37-65.23-44.37-107.5s17.04-80.74,44.61-108.51h0Z"/>
        <path class="cls-4" d="m201.31,8.45c-54.21.91-102.86,23.48-137.74,59.23C28.69,103.43,7.6,152.35,8.5,205.97c.91,53.84,23.71,102.79,59.92,137.96,35.92,34.9,85.03,56.23,139.02,55.33,54.19-.92,102.83-23.83,137.69-59.92,34.87-36.1,55.96-85.38,55.06-139.01-.91-53.74-23.61-102.25-59.68-137.06C304.57,28.61,255.4,7.54,201.31,8.45h0ZM57.49,61.77C93.88,24.47,144.63.93,201.18-.02c56.43-.95,107.73,21.02,145.2,57.18,37.64,36.32,61.33,86.95,62.27,143.04.94,55.97-21.05,107.37-57.41,145.02-36.37,37.65-87.11,61.56-143.67,62.51-56.34.95-107.59-21.31-145.06-57.71C24.76,313.34.97,262.28.03,206.1c-.94-55.98,21.07-107.04,57.46-144.34h0Z"/>
      </g>
      <path class="cls-6" d="m156.1,98.74c-1.69,0-3.06,1.45-3.06,3.23s1.37,3.23,3.06,3.23,3.06-1.45,3.06-3.23-1.37-3.23-3.06-3.23h0Z"/>
      <path class="cls-6" d="m170.64,106.59c-.58,11.61-3.75,22.29-6.65,28.62-1.03-1.17-2.15-2.14-3.67-2.55-1.28-.35-2.61-.25-3.9-.16-1.29.1-2.48.94-1.86,2.04,4.07,11.46,10.67,19.15,18.88,24.4,8,5.12,18.05,7.66,30.37,7.31-13.6-3.93-25.68-11.66-21.87-24.47,2.16-7.25,8.25-14.16,15.54-20.74-2.2-1.76-4.51-3.43-6.61-5.31-3.3-2.96-6.63-6.61-10.97-11.64-3.51-4.07-7.47-7.46-12.51-9.07,2.04,3.19,3.46,7.5,3.25,11.57h0Z"/>
      <path class="cls-6" d="m226.8,173.27c.34,17.99-.7,34.34-6.01,46.58-5.22-1.08-10.61-1.04-16.1-.25-.09-1.89,1.34-3.75,2.84-5.09,1.17-1.05,2.27-2.2,3.2-3.59,5.05-7.03,9.38-18.29,12.55-36.39-8.98,3.54-18.37,5.23-27.91,5.06-16.7-.29-30.54-6.42-41.13-17.44-10.57-11-12.96-24.57-12.38-39.02-3.32-8.32-3.73-11.77-5.73-15.68-2.52-4.92-5.74-8.79-8.39-12.48l6.38.53c1.23.14,2.43.03,3.55-.42,3.61-1.47,7.29-2.55,11.25-2.46,2.47-4.1,6.43-5.49,11.14-5.45,11.93.1,21.41,8.05,30.8,16.73,14.19,13.14,30.41,24.29,49.36,32.06,21.05,8.64,54.72,12.49,80.02,3.51-14.15,8.85-32.17,12.35-51.19,10.41-28.04-2.86-52.62-12.7-70.81-28.34-1.98,4.03-1.86,7.06-.49,9.84,5.74,11.67,22.49,19.43,36.11,26.37,9.07-3.9,18.71-6.79,29.28-5.98,20.27,1.55,34.59,9.73,44.37,22.92-10.17-8.27-23.05-13.04-38.46-14.56-8.96-.67-17.12-.08-23.84,2.81,10.76,4.06,21.51,8.49,32.27,11.32-15.91.5-31.9-.32-47.81-2.45-.96.56-1.88,1.05-2.88,1.43h0Zm-22.75-118.18c-40.92,0-77.93,16.69-104.71,43.67-26.79,27-43.36,64.3-43.36,105.52s16.45,77.92,43.1,104.49c26.78,26.7,63.86,43.07,104.89,43.07s78.3-16.42,105.21-43.17c26.74-26.59,43.3-63.4,43.3-104.46s-16.63-78.45-43.48-105.42c-26.88-27-64.01-43.7-104.96-43.7h0Zm6.86,165.88c31.46-.31,57.06,25.3,57.36,55.91.3,30.61-24.53,57.43-56.83,58.02-32.3.59-56.7-26.57-57.01-57.17-.3-30.61,25.02-56.44,56.48-56.75h0Z"/>
      <path class="cls-5" d="m195.37,179.6c9.55.16,18.94-1.52,27.91-5.06-3.17,18.09-7.5,29.35-12.55,36.39-.92,1.38-2.03,2.54-3.2,3.59-1.5,1.35-2.93,3.21-2.84,5.09,5.5-.8,10.88-.83,16.1.25,5.31-12.24,6.35-28.6,6.01-46.58,1.01-.37,1.93-.87,2.88-1.43,15.91,2.12,31.9,2.95,47.81,2.45-10.76-2.83-21.52-7.26-32.27-11.32,6.71-2.9,14.87-3.49,23.84-2.81,15.41,1.52,28.29,6.29,38.46,14.56-9.77-13.2-24.09-21.37-44.37-22.92-10.58-.81-20.21,2.07-29.28,5.98-13.62-6.94-30.37-14.7-36.11-26.37-1.37-2.78-1.49-5.82.49-9.84,18.18,15.64,42.77,25.47,70.81,28.34,19.02,1.94,37.04-1.56,51.19-10.41-25.29,8.98-58.97,5.12-80.02-3.51-18.94-7.77-35.17-18.92-49.36-32.06-9.38-8.68-18.87-16.63-30.8-16.73-4.72-.04-8.68,1.35-11.14,5.45-3.96-.09-7.64,1-11.25,2.46-1.12.45-2.32.56-3.55.42l-6.38-.53c2.65,3.69,5.86,7.56,8.39,12.48,2,3.91,2.41,7.36,5.73,15.68-.59,14.45,1.8,28.03,12.38,39.02,10.59,11.01,24.44,17.15,41.13,17.44h0Zm2.11-58.56c-7.28,6.59-13.38,13.49-15.54,20.74-3.81,12.81,8.26,20.54,21.87,24.47-12.33.34-22.37-2.2-30.37-7.31-8.21-5.25-14.81-12.93-18.88-24.4-.61-1.1.57-1.94,1.86-2.04,1.29-.09,2.62-.19,3.9.16,1.52.41,2.64,1.38,3.67,2.55,2.89-6.33,6.06-17.01,6.65-28.62.21-4.07-1.22-8.38-3.25-11.57,5.04,1.61,9,5,12.51,9.07,4.34,5.02,7.67,8.68,10.97,11.64,2.1,1.88,4.41,3.55,6.61,5.31h0Zm-38.32-19.06c0,1.79-1.37,3.23-3.06,3.23s-3.06-1.45-3.06-3.23,1.37-3.23,3.06-3.23,3.06,1.45,3.06,3.23h0Z"/>
      <path class="cls-5" d="m356.75,204.21c0,42.24-17.04,80.11-44.57,107.47-27.69,27.53-65.99,44.42-108.2,44.42s-80.32-16.85-107.88-44.32c-27.43-27.35-44.37-65.23-44.37-107.5s17.04-80.74,44.61-108.51c27.55-27.76,65.62-44.93,107.71-44.93s80.31,17.18,107.96,44.96c27.62,27.75,44.73,66.07,44.73,108.41h0Zm22.52,13.46c-8.03.14-14.11-6.61-14.18-14.23-.07-7.61,6.23-14.04,14.05-14.12,7.82-.08,14.2,6.29,14.27,13.91.07,7.61-6.1,14.29-14.14,14.43h0ZM209.6,43.75l-18.56.53-.36-25.02,18.49-.17v4.53s-13.2.3-13.2.3l.05,5.16,12.12-.19.02,4.14-11.91.12-.05,6.36,13.38-.27v4.5Zm-26.62-23.39l4.37,24.34-5.93,1-12.7-15.02,2.31,16.61-4.79.94-3.98-24.59,5.32-.95,12.83,14.75-2.79-16.5,5.35-.59Zm18.33-11.91c-54.21.91-102.86,23.48-137.74,59.23C28.69,103.43,7.6,152.35,8.5,205.97c.91,53.84,23.71,102.79,59.92,137.96,35.92,34.9,85.03,56.23,139.02,55.33,54.19-.92,102.83-23.83,137.69-59.92,34.87-36.1,55.96-85.38,55.06-139.01-.91-53.74-23.61-102.25-59.68-137.06C304.57,28.61,255.4,7.54,201.31,8.45h0Zm-124.62,85.76c5.8,4.38,1.34,10.09-1.86,14.34l-5,6.63-20.04-15.12,5.94-7.57c1.2-1.52,2.24-2.68,2.93-3.34,2.18-2.04,4.99-3.24,7.94-1.06,1.86,1.38,2.99,3.63,2.07,6.24,2.26-2.21,5.62-1.93,8.01-.12h0Zm14.5-11.84c-3.92-3.16-5.84-.19-9.03,2.94l-.72.7,6.89,6.97-3.81,3.87-17.68-18.05,8.75-8.38c3.2-3.07,7.44-4.77,10.99-1.13,2.62,2.69,2.72,4.83,1.6,7.61,3.11-1.79,4.89.3,8.65,3.17.92.71,1.6,1.72,2.98,1.75l-4.27,4.05-4.34-3.5Zm249.58,11.59l-12.98,9.53-3.27-4.03,20.02-15.04,3.43,4.23-7.2,18.57,13.3-10.07,3.31,4.2-20.06,14.8-3.52-4.04,6.97-18.15Zm.61-14.34l-22.02,13.98-4.07-3.67,8.48-15.68-14.58,9.83-4.35-3.9,12.51-22.49,3.99,3.57-8.67,15.05,14.55-9.49,3.98,3.58-8.75,15.58,14.94-9.91,3.97,3.55Zm-33.08,263.79c2.28-.71,4.28.07,5.73,2.15,3.12,4.47-.2,7.91-4.76,10.84l-5.48,3.51-11.73-16.64,6.7-4.68c3.3-2.3,6.59-4.15,9.59.11,1.12,1.6,1.16,3.7-.04,4.72h0Zm-32.52,8.87l3.85-1.88,5.53,9.75c1.62,2.85,2.76,5.3,6.07,3.4,2.42-1.4,1.84-3.89.3-6.72l-5.47-10.1,3.92-2.09,5.18,9.62c3.2,5.96,3.37,9.3-1.94,12.49-4.94,2.96-8.83,1.92-11.89-3.9l-5.55-10.56Zm-146.79,9.38c2.32-5.92,6.64-9.3,12.8-6.45,5.78,2.68,7.14,7.53,4.65,13.39-2.32,5.46-6.5,8.8-12.51,6.45-5.98-2.34-7.25-7.48-4.94-13.39h0Zm-25.75-28.29l11.42,8.15-1.93,2.92-8.08-5.84-2.85,4.07,7,5-2,2.8-6.93-4.9-4.93,6.75-3.59-2.47,11.88-16.49Zm20.54,13.41c5.32,3.5,5.95,8.5,2.63,13.93-3.1,5.06-7.73,7.75-13.32,4.54-5.57-3.19-6.08-8.47-2.92-13.98,3.16-5.51,7.94-8.23,13.61-4.49h0Zm-3.79-279.58l-4.9,3.49-4.71-3.51-7.62,5.31,1.59,5.64-4.43,3.36-6.86-25.6,4.64-3.32,22.29,14.64Zm16.21-19.2c1.8,3.96,2.13,9.55-3.9,13.25-7.64,4.68-13.51,1.52-17.66-4.71-4.09-6.15-2.55-13.23,4.19-17.17,5.83-3.41,11.15-2.04,14.13,2.72l-4.57,2.26c-1.99-2.23-5.47-2.41-7.8-.84-2.49,1.67-3.84,5.32-1.21,10.12,1.95,3.55,5.89,6.55,10.21,4.2,2.8-1.52,2.64-4.9,1.86-7.72l4.75-2.1Zm9.43-1.72l2.5,7.45-5.17,1.71-7.67-23.6,4.96-1.78,3.53,9.73,5.62-12.69,6.7-2.32-6.04,12.33,15,11.12-6.81,2.24-10.66-8.43-1.97,4.24Zm105.49.13l-1.25,4.51-17.27-4.2,6.02-24.12,5.24,1.15-4.78,19.86,12.04,2.8Zm28.07-5.69l-8.27,18.46-4.98-2.27,8.52-18.36-7.02-3.12,2.07-4.11,18.51,8.4-2.01,4.12-6.81-3.13Zm27,24.87c-4.08,6.18-10.93,8.11-17.36,3.87-6.4-4.22-7.3-11.16-3.2-17.37,1.38-2.09,3.13-3.71,4.68-4.71,4.14-2.68,8.7-2.18,12.74.48,6.46,4.27,7.24,11.51,3.14,17.73h0ZM43.68,202.95c.03,3.31-1.12,6.45-3.09,8.95-2.56,3.24-6.51,5.41-11.04,5.49-8.04.14-14.11-6.61-14.18-14.23-.07-7.61,6.22-14.04,14.05-14.12,4.52-.04,8.56,2.07,11.18,5.33,1.91,2.38,3.06,5.37,3.09,8.58h0Zm124.34,161.16l8.04,1.46c3.96.72,7.59,1.75,6.68,6.87-.34,1.93-1.81,3.43-3.38,3.3,2.11,1.12,2.97,3.09,2.51,5.58-.97,5.37-5.75,5.44-11.05,4.25l-6.35-1.42,3.55-20.05Zm-1.11-.28l-.96,3.3-5.92-1.73-4.74,16.24-4.07-1.19,4.74-16.24-5.95-1.74.96-3.3,15.95,4.65Zm38.06,4.36l4.24-.14.55,16.74,9.86-.17.15,3.55-14.03.45-.77-20.42Zm-8.84-.14l5.99,20.72-4.73-.21-1.02-4.26-7.29-.38-1.43,3.76-4.72-.21,8.49-19.91,4.72.49Zm29-1.23l2.19,16.76,9.79-1.48.43,3.55-14,1.97-2.61-20.28,4.21-.53Zm39.99-10.04l6.48,15.32,8.92-3.65,1.43,3.28-12.98,5.36-7.77-18.67,3.91-1.63Zm-6.87,16.03l4.2-.94c.06,4.57-.98,8.15-5.35,9.52-6.29,1.98-10.5-1.85-12.16-7.48-1.75-5.91-.38-10.84,5.28-12.74,4.99-1.67,8.75.6,10.57,4.58l-4.22,1.31c-1.11-1.94-2.7-3.31-4.81-2.69-3.49,1.01-3.68,4.9-2.69,8.26.98,3.34,3.51,6.68,6.71,5.21,2.57-1.18,2.61-2.54,2.46-5.04h0Zm-27.9-326.88l-17.43-1.99,2.69-24.46,5.46.51-2.38,20.17,12.35,1.3-.7,4.46Z"/>
      <path class="cls-5" d="m122.62,358.68c1.85-3.23,2.91-6.57-.79-8.7-3.65-2.09-6.16.34-8.05,3.64-1.85,3.22-1.97,6.63,1.15,8.43,2.63,1.51,5.83-.12,7.69-3.36h0Z"/>
      <path class="cls-5" d="m140.34,358.68c-3.92-1.54-6.04,1.24-7.43,4.78-1.35,3.46-.96,6.85,2.38,8.16,2.83,1.11,5.75-.98,7.11-4.46,1.36-3.47,1.91-6.93-2.06-8.49h0Z"/>
      <path class="cls-5" d="m171.71,368.18l-.82,4.62,2.62.48c1.84.34,5.24,1.35,5.73-1.4.5-2.86-3.38-2.93-5.25-3.28l-2.29-.42Z"/>
      <path class="cls-5" d="m173.56,376.73l-3.26-.59-.95,5.38,3.75.68c2.04.37,4.08.66,4.54-1.86.52-2.86-2-3.22-4.09-3.61h0Z"/>
      <path class="cls-5" d="m193.55,372.49l-3.21,7.77,5.2.3-1.99-8.07Z"/>
      <path class="cls-5" d="m297.56,343.51l2.7,3.83,2.19-1.52c1.54-1.06,4.65-2.77,3.04-5.05-1.67-2.37-4.46.33-6.02,1.41l-1.91,1.33Z"/>
      <path class="cls-5" d="m304.93,348.22l-2.72,1.89,3.14,4.46,3.13-2.18c1.7-1.18,3.35-2.43,1.88-4.54-1.66-2.38-3.69-.85-5.43.36h0Z"/>
      <path class="cls-5" d="m61.31,101.94l1.63-2.19c1.35-1.82,4.15-4.73,1.49-6.74-2.77-2.08-5.04,1.68-6.46,3.58l-1.38,1.87,4.72,3.47Z"/>
      <path class="cls-5" d="m66.35,101.22l-1.98,2.93,5.25,3.96,2.62-3.01c1.62-1.86,3.47-5.11.56-7.05-2.86-1.9-4.89.83-6.46,3.17h0Z"/>
      <path class="cls-5" d="m73.79,78.05l5.1,5.26,2.67-2.55c1.64-1.57,4.79-3.9,1.71-6.83-3.05-2.89-5.07-.03-6.84,1.64l-2.64,2.48Z"/>
      <path class="cls-5" d="m98.75,58.94l2.73,9.59,5.36-3.98-8.09-5.61Z"/>
      <path class="cls-5" d="m290.34,54.86c-2.39,3.62-3.09,8.12.99,10.81,4.15,2.73,7.93.21,10.33-3.42,2.44-3.7,3.16-7.95-1.02-10.7-4.18-2.75-7.87-.39-10.31,3.31h0Z"/>
    </g>
  </g>
</svg>