<?xml version="1.0" encoding="UTF-8"?>
<svg id="Layer_2" data-name="Layer 2" xmlns="http://www.w3.org/2000/svg" viewBox="0 0 349.42 501.13">
  <defs>
    <style>
      .cls-1 {
        fill: #404447;
      }

      .cls-1, .cls-2, .cls-3, .cls-4, .cls-5, .cls-6, .cls-7, .cls-8, .cls-9, .cls-10, .cls-11, .cls-12, .cls-13, .cls-14 {
        fill-rule: evenodd;
        stroke-width: 0px;
      }

      .cls-2 {
        fill: #231f20;
      }

      .cls-3 {
        fill: #63727a;
      }

      .cls-4 {
        fill: #5a646a;
      }

      .cls-5 {
        fill: #383a3c;
      }

      .cls-6 {
        fill: #2e2d2f;
      }

      .cls-7 {
        fill: #4f565b;
      }

      .cls-8 {
        fill: #555e64;
      }

      .cls-9 {
        fill: #5f6b72;
      }

      .cls-10 {
        fill: #ffc20e;
      }

      .cls-11 {
        fill: #e6eff3;
      }

      .cls-12 {
        fill: #fff;
      }

      .cls-13 {
        fill: #edf4f8;
      }

      .cls-14 {
        fill: #ee3124;
      }
    </style>
  </defs>
  <g id="Layer_1-2" data-name="Layer 1">
    <g>
      <path class="cls-12" d="m153.19,178.27c-2.54-2.95,0-6.12,1.69-6.96-2.95.84-2.66-.99-5.13,1.3-.36-4.04-.11-4.88,3.77-5.51,3.89-.63,11.06-1.48,14.01-1.06,2.95.42,4.2.42,5.27.84l-1.26-7.17c.63-3.59-.84-17.72-.84-17.72-6.12-1.48-13.29-7.38-16.66-12.02-3.37-4.64,0-2.32-6.96-3.58-6.96-1.27-14.56-.63-22.78-5.06-8.23-4.43-14.98-7.59-15.19-25.52-.21-17.93.63-21.51,2.95-23.83.21-7.8,3.37-18.77,4.64-20.88,1.26-2.11,4.22-5.27,6.54-7.8-5.49,1.26-12.45.84-12.02-4.85.42-5.7,1.9-9.49,5.06-11.6-4.01-.84-6.47-1.34-9.07.42.56-3.1,2.95-6.26,4.92-6.82.28-3.37,2.25-7.03,5.06-8.16-2.25-3.09-3.66-8.44.28-9.56,3.94-1.12,2.6-.98,4.71.07,2.11,1.05,3.74,1.09,4.93.33,1.19-.75,2.24-.75,3.3-.33,1.06.42,2.05-.1,3.59-1.05,7.8-4.85,8.01,1.69,7.59,4.85,3.59.84,3.8,3.59,3.59,6.12,3.59,3.58,1.69,8.22-1.48,5.27-.63,1.27-1.69,2.74-.42,4.64,2.53,3.8,2.95,15.19,2.74,21.72-.21,6.54,5.16,17.82,8.44,21.09,4.64,4.64,14.98,5.27,22.99,4.85,8.02-.42,14.98-2.74,20.25-10.97,5.28-8.23,8.44-12.87,11.18-17.51,2.74-4.64,12.77-18.04,18.56-21.94,10.33-6.96,31.99-7.52,45.95,9.95-1.66-.04-1.02.81-4.19-.88.63,4.22-1.69,7.38-5.27,6.12-3.59-1.26-6.73-1.81-5.05,2.89-7.18-2.47-11.61-3.1-9.08,1.96,2.24,4.49,3.17,6.33,2.74,10.34,20.25,13.29,19.4,37.55,1.9,48.51-2.74-2.95-4.95-4.05-6.59.72-2.9-1.56-4.28-1.44-5.8-.87,2.06,7.53-2.91,14.43-8.13,17.41-.57-4.18-3.18-5.05-4.93-6.09-2.6,4.23-5.76,6.97-7.87,8.66-2.11,1.69-3.58,3.71-2.32,6.33-3.38-2.32-3.38-2.95-4.01-4.01-3.37,1.69-6.48,2.74-7.56,5.27-1.5-.21-2.14,1.1-4.35-.29-2.84,3.67-4.55,4.46-6.97,5.22l-2.61-1.74c-2.55,3.98-5.5,6.3-11.62,7.14.84,7.8,1.05,17.3.63,20.67,2.95-2.32,5.06-3.8,7.38-2.11-2.53,2.53-8.37,9.67-10.55,14.76-.63,1.48-2.74,1.48-4.85,1.48s-8.02,2.74-14.13,1.9c-1.9,1.69-3.59,2.53-5.7,3.8-2.11,1.26-1.27.42-1.27,1.26h0Z"/>
      <path class="cls-10" d="m174.71,465.73c89.39,0,116.09-14.51,124.21-17.41,4.06-4.06-2.9-6.97-8.71-10.45v-33.08c0-13.35,35.99-6.38,57.46-19.74,0,0-8.71,13.93-18.57,20.9,7.54,6.97,18.57,22.64,20.32,26.12,0,0-22.64-12.19-31.92-9.29,5.8,2.32,13.93,8.12,13.93,12.77v31.92c-22.64,20.31-84.74,33.66-156.72,33.66-71.97,0-134.08-13.35-156.72-33.66v-31.92c0-4.65,8.13-10.45,13.93-12.77-9.29-2.9-31.92,9.29-31.92,9.29,1.74-3.48,12.77-19.15,20.31-26.12-9.87-6.96-18.57-20.9-18.57-20.9,21.48,13.35,57.46,6.39,57.46,19.74v33.08c-5.81,3.48-12.77,6.39-8.71,10.45,8.13,2.9,34.83,17.41,124.21,17.41h0Z"/>
      <path class="cls-2" d="m59.2,437.87c-5.81,3.48-12.77,6.39-8.71,10.45l2.61,1.16c-13.35-4.64-31.93-11.03-35.12-13.93,0-4.65,8.13-10.45,13.93-12.77,6.97-3.48,27.28-11.32,27.28-19.73v34.82h0Z"/>
      <path class="cls-2" d="m290.21,437.87c5.81,3.48,12.77,6.39,8.71,10.45l-2.61,1.16c13.35-4.64,31.92-11.03,35.12-13.93,0-4.65-8.12-10.45-13.93-12.77-6.96-3.48-27.28-11.32-27.28-19.73v34.82h0Z"/>
      <polygon class="cls-2" points="61.75 480.64 57.77 479.48 62.32 463.81 56.57 462.14 57.55 458.78 73.03 463.27 72.06 466.64 66.3 464.97 61.75 480.64 61.75 480.64"/>
      <polygon class="cls-2" points="81.57 476.33 79.85 485.05 75.79 484.25 79.62 464.79 83.68 465.59 82.23 472.97 89.82 474.46 91.27 467.09 95.34 467.88 91.51 487.34 87.44 486.54 89.16 477.82 81.57 476.33 81.57 476.33"/>
      <polygon class="cls-2" points="117.87 474.57 107.44 473.22 106.9 477.35 116.49 478.59 116.04 482.07 106.45 480.83 105.79 485.92 116.69 487.34 116.24 490.81 101.31 488.88 103.86 469.22 118.32 471.09 117.87 474.57 117.87 474.57"/>
      <path class="cls-2" d="m138.02,492.73l1.03-19.8,3.79,3.62-.22,4.33,4.85.25c1.63.08,2.96-.48,3.04-2.06.08-1.63-1.05-2.18-2.92-2.28l-4.74-.25-3.79-3.62,9.62.5c4.85.25,5.94,3.35,5.83,5.39-.15,2.84-1.79,3.56-2.63,3.93,2.38,1.03,2.91,3,2.81,4.96-.08,1.57-.82,3.03-1.92,3.99-1.19,1.05-2.3,1.68-6.35,1.47l-8.39-.43,4.15-3.22,5.07.26c2.01.1,3.22-.72,3.32-2.73.09-1.74-1.37-2.48-2.86-2.55l-5.27-.27-.27,5.29-4.15,3.22h0Z"/>
      <polygon class="cls-2" points="168.79 486.34 173.84 486.37 171.44 478.51 171.38 478.51 168.79 486.34 167.66 489.76 166.26 493.83 161.89 493.81 169.09 474.02 173.87 474.06 180.73 493.93 176.23 493.9 174.98 489.8 167.66 489.76 168.79 486.34 168.79 486.34"/>
      <polygon class="cls-2" points="200.26 473.49 204.12 473.34 204.89 493.15 200.75 493.31 192.12 479.49 192.06 479.5 192.61 493.63 188.74 493.78 187.98 473.96 192.34 473.79 200.74 487.29 200.79 487.28 200.26 473.49 200.26 473.49"/>
      <polygon class="cls-2" points="222.8 491.84 218.67 492.18 217.3 475.92 211.33 476.42 211.04 472.93 227.11 471.58 227.4 475.07 221.43 475.57 222.8 491.84 222.8 491.84"/>
      <polygon class="cls-2" points="241.05 482.3 246.06 481.61 242.56 474.17 242.5 474.18 241.05 482.3 240.42 485.84 239.61 490.08 235.28 490.67 239.6 470.07 244.33 469.42 253.94 488.12 249.48 488.73 247.67 484.85 240.42 485.84 241.05 482.3 241.05 482.3"/>
      <polygon class="cls-2" points="280.98 482.71 277.19 483.52 273.73 467.32 273.67 467.34 273.52 484.31 269.55 485.16 262.55 469.71 262.5 469.72 265.96 485.93 262.18 486.74 258.03 467.35 263.95 466.08 270.73 480.61 270.78 480.6 270.97 464.58 276.83 463.33 280.98 482.71 280.98 482.71"/>
      <path class="cls-2" d="m291.9,473.24c.37,1.04,1.56,2.86,4.99,1.72,1.86-.62,3.78-1.75,3.12-3.74-.49-1.47-2.03-1.39-4.18-1.2l-2.17.2c-3.27.3-6.44.6-7.81-3.55-.7-2.1-.8-6.17,5.31-8.19,5.77-1.92,8.56,1.34,9.36,3.64l-3.77,1.25c-.38-.81-1.36-2.69-4.79-1.55-1.5.5-3.09,1.64-2.53,3.34.49,1.46,1.79,1.38,2.64,1.3l4.96-.4c2.78-.23,5.48.04,6.61,3.42,1.88,5.66-3.72,8.07-5.37,8.62-6.87,2.28-9.36-1.28-10.13-3.62l3.77-1.25h0Z"/>
      <path class="cls-2" d="m232.75,184.8l65.59,52.82c-15.09,17.99-27.28,40.05-27.28,69.65s12.19,54.56,29.02,71.97l-23.22,42.95c-22.64,0-68.49,14.51-102.16,49.92-33.67-35.41-79.52-49.92-102.16-49.92l-23.22-42.95c16.83-17.41,29.02-42.37,29.02-71.97s-12.19-51.66-27.28-69.65l65.59-52.82h116.09Z"/>
      <path class="cls-12" d="m120.12,199.25l-50.68,41.38c12.85,17.23,23.23,40.99,23.23,66.72s-11.7,55.66-26.24,72.5l14.5,28.48c20.78,0,65.59,15.26,93.78,44.37,27.77-29.11,73-44.37,93.78-44.37l14.5-28.48c-14.54-16.83-26.24-46.77-26.24-72.49,0-25.73,10.38-49.49,23.23-66.72l-50.69-41.38h-109.17Z"/>
      <path class="cls-10" d="m251.29,307.39c0-24.25,9.69-48.66,21.68-65.6l-45.01-37.03h-106.54l-45.01,37.03c12,16.95,21.69,41.36,21.69,65.6s-11.52,56.08-25.18,72.7l11.18,22.96c20.07,0,64.49,15.55,90.59,42.26,25.53-26.71,70.51-42.26,90.59-42.26l11.18-22.96c-13.67-16.62-25.18-48.45-25.18-72.7h0Z"/>
      <path class="cls-14" d="m276.47,380.09c-13.67-16.62-25.18-48.45-25.18-72.7s9.69-48.66,21.68-65.6l-35.87-29.51v196.27c11.16-3.58,21.19-5.51,28.18-5.51l11.18-22.96h0Z"/>
      <path class="cls-14" d="m153.8,204.76v223.65c7.6,4.99,14.77,10.62,20.9,16.9,6.01-6.29,13.13-11.94,20.72-16.93v-223.61s-41.62,0-41.62,0h0Z"/>
      <path class="cls-14" d="m76.42,241.78c12,16.95,21.69,41.36,21.69,65.6s-11.52,56.08-25.18,72.7l11.18,22.96c6.96,0,16.89,1.91,27.94,5.47v-196.04l-35.62,29.31h0Z"/>
      <path class="cls-12" d="m150.91,293.34c12.77-6.38,23.8-12.19,23.8-32.5,0-29.6-24.38-32.51-37.73-32.51h-34.83v4.07h8.71v131.17h-8.71v3.48h34.83c17.99,0,39.47-11.61,39.47-37.73,0-19.74-12.19-30.18-25.54-35.99h0Zm-2.9,63.85c0,5.52-2.9,6.39-11.03,6.39v-66.75c8.13,0,11.03.87,11.03,6.39v53.98h0Zm0-71.39c0,5.51-2.9,6.38-11.03,6.38v-59.78c8.13,0,11.03.87,11.03,6.38v47.01h0Z"/>
      <path class="cls-12" d="m210.7,233.56c0-2.32,1.74-3.34,3.77-3.34,12.98,0,22.16,21.24,25.36,50.04h4.54v-53.96h-4.35l-8.23,9.36c-5.04-6.73-10.97-10.61-17.31-10.61-21.46,0-33.25,32.52-33.25,72.65,0,40.12,11.79,72.65,33.25,72.65,19.34,0,29.37-26.29,31.45-60.89h-5.21c-1.91,31.6-10.12,55.72-26.24,55.72-2.03,0-3.77-1.6-3.77-4.21v-127.41h0Z"/>
      <polygon class="cls-2" points="246.69 405.94 246.69 375.68 102.74 375.68 102.74 405.94 246.69 405.94 246.69 405.94"/>
      <path class="cls-11" d="m143.37,379.18h-5.58l-8.26,23.16h5.1l1.61-4.77h8.55l1.48,4.77h5.26l-8.16-23.16h0Zm-5.84,14.39l2.97-9.16h.07l2.87,9.16h-5.9Z"/>
      <polygon class="cls-13" points="174.95 402.35 170.11 402.35 170.11 379.18 186.59 379.18 186.59 383.28 174.95 383.28 174.95 388.51 185.14 388.51 185.14 392.61 174.95 392.61 174.95 402.35 174.95 402.35"/>
      <path class="cls-13" d="m220.07,386.77c-.39-1.39-1.13-4-5.13-4-2.32,0-5.74,1.55-5.74,8.09,0,4.16,1.64,7.91,5.74,7.91,2.68,0,4.55-1.52,5.13-4.36h4.84c-.97,5.03-4.26,8.55-10.06,8.55-6.16,0-10.58-4.16-10.58-12.16,0-8.1,4.68-12.22,10.64-12.22,6.94,0,9.74,4.77,10,8.19h-4.84Z"/>
      <path class="cls-2" d="m115.8,13.86c1.74-1.74,5.22-2.32,10.16-2.32,6.97,0,20.31,5.52,20.31,27.28,0,6.96-2.61,14.8,9.87,29.31-.87,1.74-5.22-.29-9-5.51-.87,3.77-1.16,7.55,2.61,11.03-3.77,0-7.83-.29-10.16-4.06-2.32,2.03-6.38,2.61-9,.29-1.74,1.45-6.38,8.42-6.68-.58-.29-5.8-8.42-3.77-8.42-11.32,0-11.03,12.19-15.09,12.19-21.48,0-1.45-2.32-2.32-2.32-3.77,0-6.39,5.51-2.32,5.51-10.16,0-6.38-5.22-6.67-14.22-7.26-1.16,0-2.03-.58-.87-1.45h0Z"/>
      <path class="cls-2" d="m118.41,23.73s-1.16-3.19-4.35-3.19c-2.61.58-5.52,1.45-5.81,5.8,2.76-2.9,6.38.29,10.16-2.61h0Z"/>
      <path class="cls-2" d="m123.34,22.67c1.02,0,1.85-.83,1.85-1.85s-.83-1.85-1.85-1.85-1.85.83-1.85,1.85.83,1.85,1.85,1.85h0Z"/>
      <path class="cls-2" d="m118.99,26.34c-2.61,0-6.96,4.06-6.96,11.9,0,3.19,2.61,5.22,5.52.87,2.32-4.35,6.68-12.77,1.45-12.77h0Z"/>
      <path class="cls-3" d="m111.44,73.36c-2.32,4.93-2.03,14.22-2.03,24.96,0,30.47,38.89,25.54,43.53,29.6,3.77,4.06,7.54,11.61,15.96,12.19-3.19-4.35-9.58-16.25-17.12-17.41-19.45-2.9-38.02-9.29-38.02-24.67,0-4.93-.58-15.96.58-24.09.58-3.19-2.03-1.74-2.9-.58h0Z"/>
      <path class="cls-2" d="m160.61,71.74c.02-.61-.1-1.4-.41-2.45,11.03,1.45,25.25,2.9,31.05-2.32,16.54-13.93,23.8-51.37,51.37-51.37,9.87,0,21.19,3.19,30.77,14.22-5.23,0-17.41-10.45-30.47-10.45-24.38,0-35.41,44.69-49.92,51.08-5.23,2.61-22.35,5.22-29.6,3.19l-2.78-1.9h0Z"/>
      <path class="cls-10" d="m116.38,3.99c6.39-3.48,5.8,1.16,10.74-.87,3.77-1.45,2.9,1.74,8.42-1.74,2.61-1.45,6.96-2.61,5.8,5.81,3.19-.29,3.78,2.32,3.78,6.1,2.03,1.74,2.9,8.12-2.61,3.19-3.19-3.19-5.8-8.12-24.09-8.12-2.32,0-4.93-2.61-2.03-4.36h0Z"/>
      <path class="cls-10" d="m117.83,71.03c-1.16,8.12-1.45,23.8-.58,27.57,4.65,15.96,21.48,13.35,24.96,17.7,1.45,2.32,8.13,3.77,6.09-.87-6.38-12.48-17.7-2.9-22.93-17.12-2.9-8.13.29-13.35.29-18.28s-4.93,0-4.93-7.84c-.87-.87-2.9-2.61-2.9-1.16h0Z"/>
      <path class="cls-10" d="m159.9,73.39c-.87.7-2.19.55-2.02,1.7,1.74,4.35,10.16,3.77,12.19,11.9,1.45,3.48,6.09,9,9.58,6.68-2.9-4.65-2.03-10.45,4.64-10.45,2.9,0,9.29,6.39,9,1.45-.29-4.07,6.96,1.45,6.67-2.91-.29-5.22,5.8-2.03,6.38-6.09.58-4.06,6.39-7.25,10.45-6.96-6.39-6.97-20.61,8.71-38.31,8.71-4.35,0-10.51-.68-13.9-2.83,0,0-3.27-.27-4.68-1.19h0Z"/>
      <path class="cls-10" d="m206.05,64.65c6.09-12.19,20.02-39.47,33.38-41.5,1.74,3.19-.29,5.22-6.09,8.71-7.55,4.93-16.84,16.25-24.09,30.47,0,0-1.45,1.16-3.19,2.32h0Z"/>
      <path class="cls-2" d="m217.95,53.91c6.09-10.16,21.18-33.95,51.37-22.64-.58,2.9-1.74,5.51-8.12,2.9-2.03-.87-3.77,1.45-2.32,3.77-1.45.58-11.32-4.93-9.87.29,1.45,3.19,5.22,9.57,2.03,15.67-6.96-4.93-10.74-4.64-19.74-4.64-4.06,0-9,4.64-13.35,4.64h0Z"/>
      <path class="cls-2" d="m145.11,96.86c.29,8.13,6.09,9.87,10.16,11.61,6.38,3.19,22.92,10.45,22.92,16.83,0,3.19.58,10.16.58,11.03,1.16.58,9.58.58,14.51-6.97l2.61,1.74s5.22-1.74,6.97-5.22l4.35.29c.58-2.03,5.51-5.52,8.13-5.22,0,0,.29,1.74,2.61,2.61,0-4.65,9.87-9.87,11.03-13.64,2.03.58,6.67,3.19,4.93,6.09,2.32-1.45,10.74-8.71,8.13-17.41,0,0,4.64-1.74,5.8.87,0,0,1.45-2.9,2.32-3.19,0,0,4.06.29,3.77,2.32,3.77-2.32,4.64-7.84,4.64-16.83,0-8.12-7.26-22.35-32.5-21.48-.58,1.74,1.45,3.19,4.64,3.48,3.19.29,9.87,2.9,12.77,7.83-7.84-4.06-24.67-4.93-27.57,2.32,2.03-.29,9.58.58,12.77,5.52,0,0-5.51-.87-6.67-1.74,0,0-.58,3.19,2.03,5.51-2.61-.29-4.93-2.03-8.42-4.06-.87-.58-2.03,2.03,0,3.77,3.19,2.61,8.42,8.42,10.16,13.93,0,0-1.16,3.48-3.48,0-.29-1.16-7.55-9.57-10.74-11.9-3.19-2.32-5.23,1.16-2.03,3.77,1.45,1.16,8.71,7.84,8.42,11.9,0,0-.29,5.23-4.06.29-3.19-4.36-8.42-8.42-11.32-9.87-4.35-2.32-3.77,1.16-1.45,3.48,0,0,6.38,7.25,7.55,10.74.87,1.74-2.03,3.19-4.35.58-2.91-3.77-11.03-11.32-15.09-13.93-4.36-2.61-5.81.29-2.61,3.48,2.9,3.19,9.29,11.03,9.29,13.35,0,2.03-5.52,3.48-9.29,3.48-10.74,0-26.41-6.68-36.28-13.64-1.45-.87-3.19-1.74-5.22-1.74h0Z"/>
      <path class="cls-2" d="m258.58,55.65c-3.19,1.74-2.61,4.06-.58,6.39,2.61,3.19,7.54,12.19,4.35,28.73,6.67-6.38,7.26-25.54-3.77-35.12h0Z"/>
      <path class="cls-2" d="m171.23,142.43c0,3.48,1.74,12.19,1.16,15.38-1.16,1.74-.87,3.77,3.19,2.61,0,0,.58-10.45-.87-18.58l-3.48.58h0Z"/>
      <path class="cls-2" d="m176.74,141.56s1.74,18.58.87,22.64l-3.77,2.9c-6.68-1.45-13.93,0-20.32,0-2.9,0-5.22,2.61-3.77,5.51,0,0,3.19-2.61,5.81-1.16-1.16.58-4.64,2.9-2.32,6.38.87-2.03,3.19-1.16,6.1-4.64,5.51,0,13.06-2.32,17.12-2.03,2.03,0,3.77-3.77,4.06-5.22,0,0,4.64-7.55,7.55-9.58,3.19-1.74-1.45-1.45-3.19-.58l-3.19,2.61c.58-3.48,0-12.48-.87-17.41,0,0-4.93-2.03-4.06.58h0Z"/>
      <path class="cls-2" d="m290.21,437.87c5.81,3.48,12.77,6.39,8.71,10.45l-2.61,1.16c13.35-4.64,31.92-11.03,35.12-13.93,0-4.65-8.12-10.45-13.93-12.77-6.96-3.48-27.28-11.32-27.28-19.73v34.82h0Z"/>
      <path class="cls-3" d="m152.95,127.92c-4.65-4.06-43.53.87-43.53-29.6,0-10.74-.29-20.02,2.03-24.96.87-1.16,3.48-2.61,2.9.58-1.16,8.13-.58,19.16-.58,24.09,0,15.38,18.57,21.77,38.02,24.67,7.55,1.16,13.93,13.06,17.12,17.41-8.42-.58-12.19-8.13-15.96-12.19h0Z"/>
      <path class="cls-3" d="m151.78,122.69c-19.45-2.9-38.02-9.29-38.02-24.67,0-4.93-.58-15.96.58-24.09.58-3.19-2.03-1.74-2.9-.58-2.32,4.93-2.03,14.22-2.03,24.96,0,30.47,38.89,25.54,43.53,29.6,3.77,4.06,7.54,11.61,15.96,12.19-3.19-4.35-9.58-16.25-17.12-17.41h0Z"/>
      <path class="cls-9" d="m152.95,127.92c-4.65-4.06-43.53.87-43.53-29.6,0-10.74-.29-20.02,2.03-24.96.87-1.16,3.48-2.61,2.9.58-1.16,8.13-.58,19.16-.58,24.09,0,15.38,18.57,21.77,38.02,24.67,7.55,1.16,13.93,13.06,17.12,17.41-8.42-.58-12.19-8.13-15.96-12.19h0Z"/>
      <path class="cls-9" d="m151.78,122.69c-19.45-2.9-38.02-9.29-38.02-24.67,0-4.93-.58-15.96.58-24.09.58-3.19-2.03-1.74-2.9-.58-2.32,4.93-2.03,14.22-2.03,24.96,0,30.47,38.89,25.54,43.53,29.6,3.77,4.06,7.54,11.61,15.96,12.19-3.19-4.35-9.58-16.25-17.12-17.41h0Z"/>
      <path class="cls-4" d="m152.95,127.92c-4.65-4.06-43.53.87-43.53-29.6,0-10.74-.29-20.02,2.03-24.96.87-1.16,3.48-2.61,2.9.58-1.16,8.13-.58,19.16-.58,24.09,0,15.38,18.57,21.77,38.02,24.67,7.55,1.16,13.93,13.06,17.12,17.41-8.42-.58-12.19-8.13-15.96-12.19h0Z"/>
      <path class="cls-4" d="m151.78,122.69c-19.45-2.9-38.02-9.29-38.02-24.67,0-4.93-.58-15.96.58-24.09.58-3.19-2.03-1.74-2.9-.58-2.32,4.93-2.03,14.22-2.03,24.96,0,30.47,38.89,25.54,43.53,29.6,3.77,4.06,7.54,11.61,15.96,12.19-3.19-4.35-9.58-16.25-17.12-17.41h0Z"/>
      <path class="cls-8" d="m152.95,127.92c-4.65-4.06-43.53.87-43.53-29.6,0-10.74-.29-20.02,2.03-24.96.87-1.16,3.48-2.61,2.9.58-1.16,8.13-.58,19.16-.58,24.09,0,15.38,18.57,21.77,38.02,24.67,7.55,1.16,13.93,13.06,17.12,17.41-8.42-.58-12.19-8.13-15.96-12.19h0Z"/>
      <path class="cls-8" d="m151.78,122.69c-19.45-2.9-38.02-9.29-38.02-24.67,0-4.93-.58-15.96.58-24.09.58-3.19-2.03-1.74-2.9-.58-2.32,4.93-2.03,14.22-2.03,24.96,0,30.47,38.89,25.54,43.53,29.6,3.77,4.06,7.54,11.61,15.96,12.19-3.19-4.35-9.58-16.25-17.12-17.41h0Z"/>
      <path class="cls-7" d="m151.78,122.69c7.55,1.16,13.93,13.06,17.12,17.41-8.42-.58-12.19-8.13-15.96-12.19-4.65-4.06-43.53.87-43.53-29.6,0-10.74-.29-20.02,2.03-24.96.87-1.16,3.48-2.61,2.9.58-1.16,8.13-.58,19.16-.58,24.09,0,15.38,18.57,21.77,38.02,24.67h0Z"/>
      <path class="cls-2" d="m113.76,98.02c0-4.93-.58-15.96.58-24.09.58-3.19-2.03-1.74-2.9-.58-2.32,4.93-2.03,14.22-2.03,24.96,0,30.47,38.89,25.54,43.53,29.6,3.77,4.06,7.54,11.61,15.96,12.19-3.19-4.35-9.58-16.25-17.12-17.41-19.45-2.9-38.02-9.29-38.02-24.67h0Z"/>
      <path class="cls-1" d="m113.76,98.02c0-4.93-.58-15.96.58-24.09.58-3.19-2.03-1.74-2.9-.58-2.32,4.93-2.03,14.22-2.03,24.96,0,21.08,18.6,25.21,31.61,27.11,1.54-1.33,3.07-2.57,4.59-3.79-17.02-3.31-31.84-9.86-31.84-23.6h0Z"/>
      <path class="cls-5" d="m113.76,98.02c0-4.93-.58-15.96.58-24.09.58-3.19-2.03-1.74-2.9-.58-2.32,4.93-2.03,14.22-2.03,24.96,0,12.66,6.73,19.16,14.91,22.78,1.56-1.44,3.12-2.88,4.69-4.35-9.01-3.94-15.25-9.82-15.25-18.72h0Z"/>
      <path class="cls-6" d="m114.34,73.94c.58-3.19-2.03-1.74-2.9-.58-2.32,4.93-2.03,14.22-2.03,24.96,0,5.36,1.25,9.58,3.26,12.99,1.34-1.24,2.69-2.49,4.04-3.76-1.87-2.72-2.95-5.85-2.95-9.52,0-4.93-.58-15.96.58-24.09h0Z"/>
      <path class="cls-2" d="m114.34,73.94c.58-3.19-2.03-1.74-2.9-.58-1.93,4.11-2.05,11.26-2.04,19.74,1.41-1.37,2.82-2.75,4.23-4.13-.04-4.85.05-10.39.71-15.03h0Z"/>
      <path class="cls-8" d="m181.68,158.39c.58-3.48,0-12.48-.87-17.41l.87,17.41h0Z"/>
    </g>
  </g>
</svg>