<?xml version="1.0" encoding="UTF-8"?>
<svg id="Layer_2" data-name="Layer 2" xmlns="http://www.w3.org/2000/svg" viewBox="0 0 343.96 424.54">
  <defs>
    <style>
      .cls-1 {
        fill: #cdab34;
      }

      .cls-1, .cls-2, .cls-3 {
        stroke-width: 0px;
      }

      .cls-2 {
        fill: #fff;
      }

      .cls-3 {
        fill: #005dac;
      }
    </style>
  </defs>
  <g id="Ebene_1" data-name="Ebene 1">
    <g id="g1706">
      <path id="path1692" class="cls-2" d="m171.98,424.54c103.34-65.34,171.98-180.61,171.98-311.91,0-28.43-3.22-56.11-9.32-82.69C284.48,10.62,229.99,0,173.02,0S59.91,10.94,9.12,30.81C3.16,57.13,0,84.5,0,112.62c0,131.31,68.63,246.57,171.98,311.91"/>
      <path id="path1694" class="cls-3" d="m152.7,158.2c-4.53-.09-11.54.25-18.57.61-7.04.35-14.05.33-18.57.09,0,0-2.49.24.33,1.52,2.82,1.28,12.9,5.22,16.91,7.32,4,2.1,2.6-4.78,20.08-7.42,3.26-.5,4.35-2.03-.17-2.11m125.81-50.27c-.52-1.25-1.66-1.71,2.35-.72,4,.99,16.72,3.21,19.67,12.22,2.95,9.01-2.59,14.83-15,16.68-25.06,3.72-56.44-12.32-89.26-10.93-28.09,1.2-43.67,9.46-49.94,12.56-6.27,3.1-9.34,6.58-5.13,5.43,4.21-1.15,36.55-10.05,63.9-5.43,33.05,5.57,64.27,27.82,87.05,23.53,25.03-4.71,32.02-32.28,34.23-49.53,0-1.46-.03-2.92-.05-4.37-3.85-.98-77.7-19.37-128.71-8.97-44.28,9.02-68.98,33.18-74.72,40.56-5.74,7.38-1.5,4.43,2.12,2.61,25.26-12.66,43.53-21.44,72.91-23.59,37.44-2.73,60.84,7.4,75.55,5.57,12.44-1.53,5.55-14.36,5.02-15.62m-107.44,294.25c-1.2-8.84-1.73-23.24,3.35-39.43,7.54-24.07,21.31-30.06,31.73-57.88.75-2.02,1.41-4.09,1.98-6.19l-35.21,14.07-17.45-7.07c-2.71,5.33-5.1,10.49-6.62,15.46-13.95,45.71,12.17,71.34,22.22,81.04m119.59-135.05c.29-.59.58-1.18.87-1.77l-28.63,11.43c1.79,4.92,3.85,8.21,7.57,8.93,7.95,1.53,14.26-8.04,20.2-18.6m-46.34-31.55l43.03-17.14c-5.16-.02-10.56-.9-16.12-2.54-16.83-4.98-48.81-22.61-65.38-30.62-6.83-3.31-14.82-8.84-15.87-4.42-1.04,4.42-2.77,6.8-6.22,10.35-2.29,2.35-9.13,8.13-1.57,10,7.55,1.86,37.17,10.81,54.16,26.04,3.05,2.71,5.67,5.51,7.96,8.34m-25.65,10.22l16.85-6.71c-1.55-2.17-3.29-4.27-5.26-6.29-19.99-20.46-53.62-25.16-57.68-25.8-2.44-.39-4.77.78.33,3.37,22.62,11.44,37.04,23.25,45.76,35.43m-46.92,1.83c.66,5.05,1.64,11.71.86,16.51l.51-.19,31.64-12.61c-3.31-7.28-8.03-13.85-14.25-19.11-11.2-10.59-22.5-14.95-25.17-15.94-2.68-.98-5.82-1.57-3.73,1.45,2.1,3.02,7.91,13.17,10.13,29.88m-10.87-100.43c4.98.28,19.53.26,33.04,2.26,13.53,2,22.87,4.78,23.42,10.12.81,7.91-12.58,10.52-21.78,10.22-4.33-.14,3.05,3.19,10.87,7.21,49.33,25.38,69.71,27.46,88.04,23.18,16.95-3.95,24.03-17.99,27.19-29.9,1.66-10.08,2.91-20.3,3.69-30.65,0-.1.02-.21.03-.32.09-1.21-.09-1.27-.32.08-1.84,10.59-6.31,27.25-14.04,33.76-31.04,26.15-59.64-17.08-106.41-27.33-18.48-4.05-36.6-1.93-40.91-1.15-5.05.94-7.82,2.23-2.83,2.51m12.26,255.55c39.7-27.14,73.55-62.22,99.25-102.95,1.02-1.62.6-1.69-.63-.21-3.85,4.61-7.74,8.22-11.35,9.86-14.35,6.53-12.32-7.28-12.9-26.52l-17.61,7.04c-.11,1.27-.24,2.56-.4,3.84-3.95,30.76-23.62,46-41.15,69.4-11.16,14.89-14.35,30.29-15.22,39.54m-121.3-138.65c24.58,51.34,61.28,95.77,106.38,129.6.7.53,1.04.55.5.02-12.9-12.68-26.79-31.42-31.33-57.25-3.69-20.97-2.32-33.63-.52-42.42l-75.04-29.96Zm98.59-158.89c-47.42,11.62-91.05,32.86-128.72,61.54,2.12,13.73,5.07,27.18,8.74,40.33,19.09,7.7,77.7,31.33,81.2,32.69,4.18,1.62,8.81,1.76,11.85.12,4.53-2.44,4.77-8.48,4.72-15.08-.05-6.6-.77-10.61.66-11.38,1.42-.77,6.65,2.62,12.28,10.65,5.63,8.03,8.61,17.56,8.18,29.82-.73,11.5-6.47,14.67-13.24,13.87-7.67-.9-13.29-4.87-16.55-13.71-1.29-3.51-2.09-12.9-4.77-1.51-1.64,7-5.7,7.56-11.16,5.23-5.8-2.47-7.74-6.88-9.77-12.2-1.86-4.88-2.79-7.77-3.95-1.2-1.28,7.25-1.02,20.51,3.49,22.7,4.51,2.19,18.22,8.33,31.15,12.79,12.92,4.45,21.69,6.74,27.54,3.72,7.97-4.12,11.44-21.29,5.02-44.04-6.38-22.63-26.53-36.37-37.45-36.15-8.21.16-10.76,11.54-11.39,19.29-.35,4.3-5-2.48-9.06-9.99-3.22-5.94-9.77-8.83-16.51-10-6.37-1.1-3.73,6.73-2.56,10.11,1.17,3.38-1.77,1.17-3.49-.58-1.72-1.76-7.78-9.29-11.48-16.13-3.7-6.85-7.26-20.52-5.78-21.68,1.47-1.16,5.84,3.62,8.46,6.72,2.61,3.1,7.1,10.95,8.84,12.29,1.74,1.34,1.86-.72,1.62-4.48-.21-3.41-.46-5.64,2.4-7.97,2.86-2.33,10.1-2.54,17.35-3.36,7.32-.84,11.55-4.84,3.35-4.67-8.19.16-13.17,1.62-24,.19-10.83-1.44-15.74-2.96-17.02-4.27s5.24-4.27,13.52-5.88c6.13-1.19,18.96-3.67,23.68-4.57,1.65-.31,1.82-.89.57-1.41-1.15-.47-2.64-1.04-4.13-1.52-3.12-1.01-.74-2.95,6.25-5.87,6.99-2.93,11.61-4.33,11.61-4.33,0,0,14.5-22.37,38.53-40.07"/>
      <path id="path1696" class="cls-1" d="m50.51,109.88c1.18-.57,2.29-1.24,3.33-1.99,1.04-.75,1.99-1.58,2.86-2.47.87-.89,1.65-1.85,2.34-2.86.69-1.01,1.28-2.06,1.77-3.16.49-1.09.87-2.23,1.15-3.38.28-1.16.44-2.34.49-3.53.05-1.41-.08-2.65-.39-3.73-.31-1.08-.8-1.97-1.46-2.66-.66-.7-1.5-1.2-2.5-1.5-.99-.29-2.16-.36-3.48-.2-1.32.16-2.8.57-4.41,1.24-1.22.51-2.32.97-3.35,1.41-1.02.44-1.97.84-2.89,1.24-.92.4-1.82.8-2.74,1.2-.92.41-1.86.83-2.87,1.29-1.01.45-2.09.95-3.29,1.5-.07,1.47-.14,2.84-.19,4.13-.05,1.29-.09,2.52-.12,3.7-.04,1.17-.06,2.31-.09,3.43-.03,1.12-.04,2.21-.06,3.32,0,1.11-.02,2.23-.02,3.4,0,1.17,0,2.38,0,3.66,0,1.28.03,2.64.06,4.09,1.25-.68,2.38-1.29,3.43-1.85,1.05-.56,2.04-1.08,3-1.58.96-.5,1.9-.98,2.87-1.47.96-.49,1.95-.99,3.03-1.53,1.08-.53,2.23-1.1,3.52-1.72m-.64-39.25c1.43-.54,2.76-1.23,3.97-2.03,1.2-.81,2.29-1.72,3.2-2.73.92-1.01,1.69-2.11,2.27-3.25.58-1.15.96-2.35,1.13-3.59.22-1.65.07-2.98-.44-3.97-.5-.99-1.36-1.62-2.55-1.87-1.19-.24-2.71-.1-4.54.5-1.46.48-2.74.91-3.92,1.31-1.19.4-2.28.78-3.37,1.16-1.09.38-2.18.77-3.36,1.18-1.17.42-2.44.88-3.88,1.41-.21,1.37-.38,2.61-.53,3.76-.16,1.15-.3,2.23-.43,3.28-.13,1.05-.26,2.07-.38,3.12-.12,1.05-.24,2.14-.37,3.3-.12,1.17-.25,2.42-.39,3.81,1.35-.56,2.53-1.05,3.62-1.5,1.1-.45,2.12-.85,3.14-1.26,1.02-.4,2.04-.8,3.15-1.23,1.11-.42,2.31-.88,3.68-1.39m-26.1-22.12c1.44-.54,2.8-1.04,4.1-1.51,1.3-.47,2.54-.92,3.74-1.34,1.2-.42,2.36-.83,3.49-1.22s2.24-.76,3.34-1.13,2.19-.73,3.3-1.08c1.1-.36,2.22-.72,3.36-1.08,1.15-.36,2.32-.72,3.55-1.1,1.22-.37,2.49-.75,3.82-1.15,1.34-.39,2.74-.8,4.23-1.22,1.79-.51,3.48-.86,5.07-1.07,1.58-.21,3.05-.27,4.41-.21,1.36.07,2.61.26,3.75.57,1.14.3,2.17.72,3.1,1.24.92.52,1.72,1.14,2.42,1.85.7.71,1.29,1.51,1.77,2.39.48.88.85,1.84,1.11,2.87.26,1.03.4,2.14.44,3.31.04,1.17-.04,2.4-.23,3.69-.18,1.27-.49,2.51-.9,3.73-.41,1.21-.93,2.39-1.56,3.54-.63,1.15-1.35,2.27-2.18,3.35-.82,1.08-1.74,2.13-2.74,3.14-1,1.01-2.09,1.99-3.25,2.92-1.17.93-3.71,2.66-3.71,2.66.02.04,3.22-.24,4.63-.15,1.41.09,2.7.33,3.85.69,1.15.37,2.18.86,3.08,1.47.9.61,1.67,1.35,2.32,2.2.64.84,1.17,1.81,1.57,2.88.4,1.07.68,2.25.84,3.54.16,1.28.21,2.67.14,4.15-.05,1.13-.16,2.26-.33,3.4-.17,1.13-.4,2.26-.69,3.38-.29,1.12-.63,2.23-1.03,3.35-.4,1.11-.85,2.22-1.36,3.31s-1.07,2.18-1.68,3.26c-.61,1.08-1.28,2.14-1.99,3.19-.72,1.05-1.48,2.09-2.3,3.12-.82,1.02-1.68,2.03-2.59,3.02-.91.99-1.87,1.96-2.87,2.91-1,.95-2.05,1.87-3.14,2.78-1.09.9-2.23,1.78-3.4,2.62-1.18.85-2.4,1.67-3.66,2.46-1.26.78-2.56,1.53-3.9,2.25-1.35.72-2.63,1.41-3.85,2.08-1.22.66-2.39,1.31-3.5,1.94-1.12.63-2.19,1.24-3.24,1.85-1.05.6-2.06,1.19-3.06,1.78-1,.59-1.98,1.17-2.96,1.77-.98.59-1.96,1.18-2.95,1.79-.99.6-1.99,1.22-3.01,1.86-1.02.63-2.07,1.29-3.14,1.99-1.08.69-2.19,1.41-3.35,2.18-1.16.76-2.37,1.56-3.63,2.41-.13-1.6-.25-3.17-.36-4.7-.1-1.54-.2-3.05-.29-4.54s-.16-2.95-.23-4.39c-.07-1.44-.12-2.86-.17-4.24-.05-1.39-.09-2.77-.12-4.12-.03-1.36-.05-2.7-.07-4.02s-.03-2.63-.03-3.92c0-1.29,0-2.58.02-3.86,0-1.28.03-2.54.05-3.8.02-1.25.05-2.5.09-3.74.04-1.24.09-2.47.13-3.7.05-1.23.1-2.45.16-3.67s.13-2.44.2-3.67c.07-1.22.15-2.44.24-3.67.09-1.23.18-2.46.28-3.69.09-1.23.21-2.48.31-3.73.12-1.25.24-2.51.36-3.79.13-1.27.27-2.56.42-3.86.15-1.3.3-2.61.46-3.94s.33-2.68.52-4.05c.18-1.37.38-2.75.59-4.16.21-1.41.42-2.84.65-4.3.23-1.45.48-2.94.73-4.44.26-1.54.53-3.08.82-4.64"/>
      <path id="path1698" class="cls-1" d="m87.64,92.97c1.22-1.05,2.31-1.99,3.34-2.85,1.03-.87,1.98-1.67,2.92-2.44.94-.77,1.86-1.52,2.8-2.28.94-.75,1.92-1.53,2.97-2.35,1.05-.82,2.18-1.69,3.43-2.65.74.89,1.54,1.71,2.42,2.41.88.71,1.83,1.31,2.89,1.78s2.23.81,3.5,1c1.29.19,2.7.23,4.26.1,1.56-.13,3.26-.44,5.15-.92,1.58-.41,3.06-.9,4.41-1.47,1.35-.56,2.58-1.19,3.67-1.87,1.08-.68,2.02-1.41,2.81-2.17.78-.77,1.39-1.56,1.83-2.38.44-.82.69-1.66.75-2.5.07-1.01-.09-1.85-.43-2.56-.35-.71-.91-1.29-1.65-1.77-.74-.49-1.66-.88-2.76-1.21-1.1-.33-2.36-.6-3.78-.85-1.41-.25-2.98-.47-4.69-.71-.93-.12-1.63-.21-2.32-.31-.7-.09-1.39-.18-2.32-.3-1.67-.21-3.26-.45-4.76-.75-1.5-.3-2.91-.63-4.23-1.03-1.31-.4-2.53-.87-3.64-1.41-1.11-.54-2.11-1.15-2.99-1.86-.89-.71-1.65-1.51-2.29-2.42-.63-.91-1.14-1.92-1.51-3.06-.37-1.13-.6-2.38-.67-3.76-.07-1.38,0-2.89.25-4.53.16-1.1.42-2.19.75-3.27.34-1.08.76-2.14,1.26-3.19.5-1.04,1.08-2.07,1.74-3.06s1.38-1.96,2.18-2.89c.8-.93,1.67-1.83,2.6-2.68.93-.85,1.93-1.67,2.98-2.44,1.05-.77,2.17-1.48,3.34-2.14,1.17-.66,2.39-1.28,3.66-1.83,1.27-.55,2.6-1.05,3.96-1.47,1.37-.43,2.78-.8,4.23-1.09,1.45-.3,2.95-.52,4.48-.68,1.72-.18,3.35-.27,4.91-.28,1.56,0,3.04.07,4.44.24s2.73.41,3.99.75c1.25.33,2.44.76,3.55,1.27,1.11.51,2.15,1.12,3.12,1.81.98.7,1.88,1.49,2.72,2.38.84.89,1.62,1.87,2.34,2.96-1.31.63-2.47,1.22-3.57,1.76-1.1.55-2.11,1.06-3.1,1.58-.99.51-1.95,1.01-2.93,1.53-.99.52-2,1.06-3.08,1.66s-2.25,1.23-3.54,1.95c-.66-1.01-1.35-1.86-2.11-2.56-.75-.69-1.57-1.22-2.49-1.6-.91-.38-1.9-.62-3.01-.71-1.11-.09-2.34-.05-3.7.14-1.39.19-2.69.54-3.86,1.02-1.17.48-2.21,1.09-3.09,1.8-.89.7-1.62,1.5-2.16,2.36-.54.86-.9,1.77-1.04,2.71-.17,1.15-.1,2.09.23,2.88.33.78.92,1.41,1.78,1.94.85.53,1.98.96,3.37,1.33,1.4.38,3.08.72,5.05,1.08.92.16,1.61.28,2.3.41.69.12,1.38.24,2.31.41,1.74.31,3.41.64,4.98,1.01,1.58.36,3.07.75,4.46,1.17,1.39.42,2.7.87,3.91,1.38,1.2.5,2.31,1.04,3.32,1.62,1.01.59,1.92,1.23,2.72,1.93.8.7,1.5,1.45,2.08,2.28.58.82,1.06,1.71,1.42,2.68.37.96.62,2.02.75,3.14.14,1.13.16,2.33.07,3.64-.09,1.15-.27,2.27-.57,3.36-.29,1.09-.68,2.15-1.17,3.18-.49,1.03-1.07,2.03-1.74,3.01-.67.97-1.43,1.92-2.27,2.83s-1.76,1.8-2.76,2.66-2.07,1.69-3.21,2.5c-1.13.81-2.35,1.58-3.61,2.33-1.26.75-2.59,1.47-3.97,2.16-1.38.69-2.81,1.34-4.29,1.97-1.48.62-3.01,1.21-4.57,1.77-1.57.56-3.17,1.08-4.81,1.56-1.95.58-3.83,1.06-5.62,1.45-1.79.4-3.5.71-5.14.92-1.63.22-3.19.35-4.66.39-1.48.04-2.87,0-4.2-.14-1.32-.12-2.56-.34-3.73-.63s-2.27-.67-3.28-1.12c-1.02-.45-1.96-.98-2.83-1.58-.87-.6-1.66-1.26-2.38-2-.7-.75-1.34-1.54-1.92-2.4"/>
      <path id="path1700" class="cls-1" d="m171.46,21.65c1.62,0,3.19,0,4.7.02,1.52,0,2.99.03,4.42.06,1.43.03,2.82.06,4.17.1,1.35.04,2.67.09,3.97.14,1.29.05,2.56.1,3.81.17,1.24.06,2.47.12,3.69.19,1.22.07,2.42.14,3.62.22s2.39.16,3.59.24c1.2.09,2.4.18,3.6.28s2.42.21,3.66.31c1.23.11,2.49.23,3.76.36,1.27.12,2.57.26,3.9.41,1.32.14,2.68.3,4.07.46,1.39.17,2.82.34,4.3.53,1.47.19,2.98.4,4.55.62-.12,1.33-.23,2.44-.32,3.48-.09,1.04-.17,2.02-.26,3.06s-.18,2.17-.29,3.52c-1.49-.17-2.92-.33-4.29-.47-1.37-.14-2.68-.27-3.95-.39s-2.5-.23-3.7-.33c-1.2-.1-2.38-.2-3.52-.29-1.15-.09-2.29-.17-3.42-.24s-2.25-.15-3.38-.22c-1.13-.07-2.27-.14-3.43-.2-1.16-.06-2.34-.12-3.55-.17-1.2-.05-2.45-.1-3.73-.15-1.29-.05-2.61-.09-4-.12-1.38-.04-2.83-.07-4.34-.09-.24,1.63-.45,3.1-.63,4.48-.19,1.38-.36,2.66-.51,3.92-.16,1.25-.31,2.47-.46,3.73s-.3,2.56-.46,3.95c-.16,1.39-.31,2.89-.49,4.57,1.55-.05,3.01-.1,4.42-.13,1.41-.03,2.75-.06,4.05-.08,1.3-.02,2.56-.03,3.78-.03,1.22,0,2.41,0,3.59,0,1.18,0,2.34.02,3.5.03,1.16.02,2.32.04,3.5.06,1.17.02,2.37.05,3.59.09,1.23.04,2.48.09,3.78.14,1.3.05,2.65.11,4.06.18,1.41.07,2.89.15,4.44.24-.09,1.41-.17,2.6-.23,3.7-.07,1.11-.13,2.14-.19,3.24-.06,1.11-.12,2.3-.2,3.71-1.57-.06-3.07-.1-4.5-.14-1.43-.04-2.8-.06-4.12-.09-1.32-.02-2.59-.03-3.83-.04-1.24,0-2.44,0-3.64,0-1.19,0-2.37.02-3.54.03-1.17.02-2.35.04-3.54.06s-2.39.06-3.62.09c-1.24.04-2.5.09-3.81.14-1.31.05-2.66.12-4.09.19-1.41.07-2.89.16-4.45.25-.12,1.55-.23,2.93-.32,4.23-.09,1.29-.17,2.5-.25,3.67-.07,1.17-.14,2.31-.21,3.47-.07,1.17-.13,2.37-.2,3.65-.06,1.29-.13,2.67-.19,4.2-1.61.17-3.06.34-4.41.5-1.35.16-2.61.32-3.82.48-1.22.16-2.4.32-3.61.49-1.21.17-2.46.36-3.8.56-1.33.21-2.77.42-4.35.69.06-1.65.12-3.24.19-4.79.07-1.56.15-3.07.23-4.54.09-1.47.17-2.91.26-4.32.09-1.41.18-2.78.28-4.13.1-1.35.21-2.68.31-3.99.1-1.31.22-2.61.33-3.88.12-1.27.24-2.54.36-3.79.12-1.25.26-2.5.39-3.74.14-1.24.28-2.48.42-3.73.14-1.24.3-2.5.45-3.76.16-1.26.33-2.52.5-3.81.17-1.29.36-2.59.54-3.91.19-1.33.39-2.68.6-4.05.21-1.38.44-2.77.68-4.22.24-1.44.48-2.91.75-4.42.28-1.51.56-3.07.86-4.66"/>
      <path id="path1702" class="cls-1" d="m238.04,54.63c.05-1.11.2-2.18.44-3.22.24-1.04.57-2.05.99-3.01.42-.96.92-1.89,1.5-2.78.58-.89,1.24-1.73,1.96-2.53.73-.8,1.53-1.55,2.39-2.26.86-.7,1.78-1.36,2.77-1.97.99-.61,2.03-1.16,3.13-1.66,1.1-.5,2.25-.94,3.45-1.34,1.2-.39,2.44-.72,3.73-1,1.29-.27,2.62-.49,3.99-.66,1.37-.16,2.78-.26,4.22-.29,1.44-.04,2.92-.02,4.42.07s3.04.23,4.6.44c1.56.21,3.15.48,4.76.81,1.61.33,3.25.73,4.91,1.2,1.43.4,2.82.82,4.17,1.26,1.35.45,2.67.91,3.95,1.4,1.29.49,2.53,1,3.75,1.53,1.22.54,2.4,1.08,3.55,1.66,1.15.58,2.28,1.17,3.37,1.78,1.1.61,2.17,1.25,3.2,1.9s2.05,1.33,3.03,2.02c.99.7,1.95,1.41,2.88,2.14.93.73,1.85,1.49,2.73,2.27.88.78,1.74,1.57,2.58,2.39s1.65,1.65,2.44,2.51c-1.28.06-2.41.12-3.46.18-1.05.06-2.02.12-3.01.19-.98.07-1.97.15-3.04.24-1.08.09-2.25.19-3.58.31-.64-.72-1.35-1.43-2.12-2.13-.76-.7-1.58-1.39-2.46-2.08-.87-.68-1.81-1.34-2.81-1.98-.99-.64-2.04-1.27-3.15-1.86-1.1-.6-2.26-1.17-3.49-1.71-1.22-.54-2.5-1.04-3.84-1.5-1.34-.46-2.74-.89-4.2-1.26-1.79-.45-3.52-.8-5.17-1.04-1.65-.24-3.24-.36-4.75-.38-1.51-.02-2.94.07-4.3.25-1.35.18-2.62.47-3.79.84-1.17.37-2.26.84-3.24,1.4-.99.56-1.87,1.2-2.65,1.92-.78.72-1.44,1.52-1.98,2.38-.54.87-.96,1.81-1.25,2.81-.29,1-.45,2.06-.45,3.18-.02,1.01.09,2.01.3,3s.54,1.96.97,2.92c.44.95.98,1.88,1.61,2.79.64.9,1.38,1.78,2.21,2.62.84.84,1.77,1.66,2.79,2.43,1.01.78,2.12,1.51,3.31,2.21,1.18.7,2.46,1.35,3.79,1.96,1.34.61,2.75,1.18,4.23,1.7,1.48.52,3.03.99,4.63,1.42,1.6.42,3.27.8,4.98,1.13,2.04.39,3.92.67,5.66.86,1.74.19,3.35.29,4.83.31,1.48.02,2.85-.05,4.11-.19,1.26-.14,2.42-.36,3.49-.63,1.08-.28,2.07-.61,2.99-1s1.78-.83,2.59-1.31c1.2.75,2.29,1.44,3.29,2.08,1.01.64,1.95,1.24,2.86,1.82.91.58,1.79,1.15,2.71,1.74.91.59,1.85,1.2,2.85,1.85,1.01.66,2.08,1.36,3.28,2.14-.75.42-1.54.81-2.39,1.17-.85.36-1.75.67-2.71.96-.96.29-1.95.54-3.02.75-1.06.21-2.18.39-3.35.53-1.17.14-2.4.24-3.68.3-1.28.07-2.61.09-4,.08-1.39,0-2.83-.06-4.33-.14-1.5-.09-3.05-.21-4.67-.38-1.61-.16-3.28-.37-5-.61-1.73-.24-3.51-.52-5.35-.84-1.71-.3-3.4-.63-5.07-.98-1.67-.35-3.32-.73-4.94-1.14-1.62-.41-3.22-.84-4.78-1.31-1.56-.46-3.1-.95-4.59-1.47-1.5-.51-2.95-1.06-4.36-1.63-1.41-.57-2.79-1.17-4.12-1.79-1.33-.62-2.61-1.27-3.84-1.95-1.23-.68-2.41-1.37-3.53-2.11-1.12-.73-2.19-1.48-3.19-2.26-1.01-.78-1.95-1.58-2.83-2.41-.88-.83-1.7-1.68-2.44-2.56-.75-.87-1.41-1.77-2.02-2.68-.6-.92-1.13-1.86-1.58-2.82-.45-.96-.82-1.93-1.12-2.93-.29-.99-.5-2-.63-3.01-.12-1.03-.16-2.06-.11-3.1"/>
      <path id="path1704" class="cls-1" d="m292.63,252.91l5.4-2.16,10.57-28.74-10.07,4.03-1.94,5.29,4.67-1.86-8.63,23.45Zm-14.97,5.99l5.4-2.16,10.57-28.74-10.07,4.03-1.94,5.29,4.67-1.87-8.63,23.46Zm-13.19-6.47c-3.03,1.2-3.67-.59-2.69-3.25.96-2.62,3.43-5.59,6.37-6.77,2.83-1.13,3.7.5,2.73,3.12-1,2.75-3.58,5.76-6.41,6.9m-10.35,15.89l5.93-2.38,10.97-13.94c2.47-3.15,4.46-6.18,5.47-8.93,2.04-5.54-.49-8.34-6.38-5.99-6.01,2.41-11.76,8.64-13.85,14.3-2.11,5.75.23,8.16,5.09,6.22.61-.24,1.86-.89,2.64-1.48,0,0-1.83,1.95-3.55,4.16l-6.32,8.04Zm-15.27,6.11l5.4-2.16,10.57-28.74-10.07,4.03-1.94,5.29,4.67-1.87-8.63,23.46Z"/>
    </g>
  </g>
</svg>