<?xml version="1.0" encoding="UTF-8"?>
<svg id="Layer_2" data-name="Layer 2" xmlns="http://www.w3.org/2000/svg" viewBox="0 0 447.33 447.33">
  <defs>
    <style>
      .cls-1 {
        stroke: #005baa;
        stroke-width: 10px;
      }

      .cls-1, .cls-2 {
        fill: none;
        stroke-linecap: round;
        stroke-linejoin: round;
      }

      .cls-2 {
        stroke: #21409a;
        stroke-width: 2px;
      }

      .cls-3 {
        fill: #231f20;
      }

      .cls-3, .cls-4, .cls-5, .cls-6 {
        stroke-width: 0px;
      }

      .cls-4 {
        fill: #fff;
      }

      .cls-5 {
        fill: #fdb913;
      }

      .cls-6 {
        fill: #005baa;
      }
    </style>
  </defs>
  <g id="Layer_1-2" data-name="Layer 1">
    <g>
      <line class="cls-2" x1="271.33" y1="205.33" x2="287.33" y2="217.67"/>
      <line class="cls-2" x1="184.68" y1="214.27" x2="192" y2="219"/>
      <circle class="cls-6" cx="224.33" cy="223.33" r="156"/>
      <circle class="cls-1" cx="223.67" cy="223.67" r="218.67" transform="translate(-92.65 223.67) rotate(-45)"/>
      <g>
        <path class="cls-3" d="m153.26,403.37l-4.38,5.69-5.82-2.36,17.72-21.91,7.41,3-2.34,28.14-6.12-2.48.67-7.2-7.16-2.9Zm8.05-1.66l.59-5.93c.16-1.66.46-3.7.69-5.33l-.07-.03c-.97,1.33-2.11,3.07-3.1,4.35l-3.63,4.7,5.52,2.24Z"/>
        <path class="cls-3" d="m181.8,392.4l5.93,1.36-4.87,21.29,10.45,2.39-1.14,4.99-16.38-3.74,6.01-26.28Z"/>
        <path class="cls-3" d="m204.08,397.4c1.62-.17,4.83-.22,7.9,0,3.71.26,5.96.78,7.88,2.07,1.81,1.13,3,3.06,2.82,5.53-.16,2.35-1.71,4.45-4.83,5.4v.08c3.01,1.01,5.12,3.53,4.88,6.96-.17,2.47-1.42,4.31-3.19,5.55-2.06,1.42-5.4,2.07-10.75,1.7-2.99-.21-5.21-.56-6.56-.86l1.84-26.42Zm4.47,22.65c.59.12,1.31.17,2.35.24,2.75.19,5.26-.72,5.46-3.55.19-2.67-2.17-3.92-5.21-4.13l-2.07-.14-.53,7.58Zm.83-11.93l2,.14c3.23.22,5-.97,5.14-2.97.14-2.04-1.34-3.22-4.09-3.41-1.36-.09-2.12-.07-2.61-.02l-.44,6.26Z"/>
        <path class="cls-3" d="m237.02,397.62l1.6,26.92-6.07.36-1.6-26.92,6.07-.36Z"/>
        <path class="cls-3" d="m271.65,405.25c1.76,8.7-2.4,14.98-10.16,16.55-7.8,1.58-13.63-3.4-15.16-10.97-1.6-7.92,2.29-14.87,10.06-16.45,8.12-1.64,13.78,3.54,15.26,10.87Zm-19.03,4.18c1.06,5.21,4.23,8.37,8.23,7.56,4.04-.82,5.57-5.13,4.53-10.27-.97-4.78-4.03-8.41-8.15-7.57-4.08.83-5.65,5.14-4.61,10.28Z"/>
        <path class="cls-3" d="m284.96,415.37l-10.15-24.98,6.6-2.68,8.91,7.04c2.55,2.03,5.26,4.55,7.56,6.9l.07-.03c-1.67-3.16-3.16-6.49-4.69-10.27l-2.95-7.26,5.19-2.11,10.15,24.98-5.93,2.41-9.25-7.47c-2.57-2.07-5.54-4.61-7.92-7.06l-.15.06c1.54,3.26,3.05,6.75,4.7,10.83l3.06,7.52-5.19,2.11Z"/>
      </g>
      <g>
        <path class="cls-3" d="m68.88,98.67c.84-1.39,2.74-3.98,4.76-6.3,2.45-2.8,4.22-4.28,6.41-5.02,1.99-.76,4.25-.54,6.11,1.09,1.78,1.55,2.51,4.06,1.39,7.11l.06.05c2.63-1.79,5.91-1.96,8.5.31,1.87,1.63,2.58,3.74,2.5,5.9-.12,2.5-1.61,5.55-5.14,9.59-1.97,2.26-3.6,3.81-4.64,4.71l-19.94-17.42Zm11.75,2.24l1.32-1.51c2.13-2.44,2.24-4.57.74-5.89-1.54-1.34-3.38-.88-5.19,1.2-.9,1.02-1.33,1.65-1.59,2.06l4.73,4.13Zm9.01,7.87c.46-.4.93-.94,1.61-1.72,1.82-2.08,2.61-4.63.47-6.5-2.02-1.76-4.44-.64-6.44,1.65l-1.37,1.57,5.72,5Z"/>
        <path class="cls-3" d="m86.96,78.82c1.27-1.53,3.28-3.61,5.75-5.77,3.01-2.63,5.52-4.02,7.96-4.14,2.08-.12,4,.75,5.64,2.62,2.24,2.56,1.95,5.94.76,8.1l.08.09c1.92-.66,3.86-.02,6,1.4,2.66,1.77,5.58,3.89,6.65,4.33l-4.7,4.11c-.83-.34-2.76-1.52-5.52-3.52-2.81-2.06-4.26-1.96-6.19-.33l-1.35,1.18,6.97,7.98-4.55,3.97-17.5-20.03Zm12.18,4.76l1.81-1.58c2.29-2,2.64-4.33,1.09-6.11-1.61-1.84-3.71-1.7-5.82.15-1.11.97-1.69,1.59-1.95,1.97l4.87,5.57Z"/>
        <path class="cls-3" d="m111.5,58.58l15.65,21.95-4.95,3.53-15.65-21.95,4.95-3.53Z"/>
        <path class="cls-3" d="m149.84,65.61c-1.33,1.48-4,3.98-7.11,5.72-4.29,2.4-8,3.06-11.32,2.21-3.28-.87-6.19-3.27-8.12-6.73-4.34-7.84-1.16-15.49,6.55-19.81,3.04-1.7,5.71-2.42,7.15-2.54l1.29,4.92c-1.62.13-3.43.59-6.01,2.04-4.43,2.48-6.43,6.86-3.56,11.99,2.74,4.89,7.39,5.99,11.75,3.55,1.19-.66,2.08-1.35,2.41-1.76l-2.78-4.96-3.63,2.03-2.33-4.15,8.76-4.91,6.94,12.39Z"/>
        <path class="cls-3" d="m150.23,37.74l3.6,9.71,9.41-3.49-3.6-9.71,5.7-2.12,9.38,25.28-5.7,2.12-3.92-10.58-9.41,3.49,3.92,10.58-5.7,2.12-9.38-25.28,5.7-2.12Z"/>
        <path class="cls-3" d="m179.5,33.9l-7.11,1.55-1.09-5,20.24-4.41,1.09,5-7.19,1.57,4.65,21.34-5.94,1.29-4.65-21.34Z"/>
        <path class="cls-3" d="m221.99,36.46c.69,8.85-4.19,14.57-12.09,15.19-7.93.62-13.11-5.03-13.72-12.72-.63-8.05,4.08-14.48,11.97-15.1,8.25-.65,13.24,5.18,13.83,12.64Zm-19.39,1.84c.42,5.3,3.18,8.82,7.25,8.5,4.11-.32,6.15-4.41,5.74-9.64-.38-4.86-2.98-8.83-7.17-8.5-4.15.33-6.23,4.42-5.82,9.64Z"/>
        <path class="cls-3" d="m226.08,50.32l2.11-26.87,7.1.56,4.81,10.29c1.37,2.96,2.67,6.43,3.66,9.55h.08c-.08-3.57.08-7.21.4-11.27l.61-7.81,5.58.44-2.11,26.87-6.38-.5-4.93-10.82c-1.37-3-2.89-6.61-3.92-9.85h-.16c-.08,3.59-.3,7.39-.64,11.77l-.63,8.09-5.58-.44Z"/>
        <path class="cls-3" d="m276.74,58.96c-.37-.73-.75-1.46-1.16-2.33-2.07.82-4.69,1.11-7.76.23-6.27-1.8-7.98-6.28-6.93-9.93.98-3.42,3.65-5.32,7.06-6.05l.03-.12c-.75-1.59-1.1-3.73-.56-5.61.94-3.27,4.58-6.1,9.81-4.6,4,1.15,6.33,4.35,5.26,8.08-.75,2.61-2.94,4.44-7.02,5.19l-.08.14c1.02,2.12,2.05,4.46,2.95,6.13,1.51-1.36,3-3.51,4.01-5.72l5.23,1.5c-1.83,3.76-4.09,6.73-7.13,8.61.98,2.11,1.99,4.23,3.11,6.43l-6.81-1.95Zm-2.96-6.38c-1.12-2.03-2.55-5.06-4.02-8.06-1.31.5-2.59,1.34-3.07,3.03-.64,2.23.49,4.55,3.22,5.33,1.46.42,2.9.21,3.87-.3Zm2.12-18.45c-1.5-.43-2.68.65-3.07,1.99-.37,1.31-.13,2.63.74,4.25,2.25-.73,3.47-1.5,3.9-3,.35-1.23,0-2.79-1.49-3.22l-.08-.02Z"/>
        <path class="cls-3" d="m310.33,43.61l-4.78,9.19,8.9,4.63,4.78-9.19,5.39,2.81-12.44,23.91-5.39-2.81,5.21-10-8.91-4.63-5.21,10-5.39-2.81,12.44-23.91,5.39,2.81Z"/>
        <path class="cls-3" d="m343.89,80.87c-5.29,7.13-12.73,8.23-19.09,3.51-6.39-4.74-6.58-12.41-1.98-18.6,4.82-6.49,12.59-8.24,18.95-3.52,6.65,4.93,6.58,12.61,2.13,18.61Zm-15.83-11.35c-3.17,4.27-3.4,8.74-.12,11.17,3.31,2.45,7.54.71,10.66-3.49,2.91-3.92,3.56-8.62.18-11.12-3.34-2.48-7.6-.76-10.73,3.45Z"/>
        <path class="cls-3" d="m342.13,98.42l13.04-25.13,4.71,4.74-5.78,10.36c-1.65,2.94-3.22,5.67-5.15,8.49l.08.09c2.78-1.8,5.64-3.46,8.47-4.98l10.6-5.68,4.57,4.6-25.53,12.55-5.02-5.05Z"/>
        <path class="cls-3" d="m373.46,117.5l-6.01-7.89-5.09,3.88,6.71,8.82-3.98,3.03-10.4-13.65,21.45-16.33,10.06,13.21-3.98,3.03-6.37-8.37-4.46,3.39,6.01,7.89-3.95,3Z"/>
      </g>
      <g>
        <path class="cls-4" d="m252.26,275c-.31-.02-31.41-2.52-86.86-18.03-.03,0-.07-.02-.1-.03-2.17-.87-4.87-1.31-8.02-1.31-10.15,0-21.97,4.54-23.68,5.22-.8.84-4,3.57-11.93,3.57-.77,0-1.57-.03-2.39-.08-19.9-1.31-29.39-10.67-30.28-11.59-1.06-.83-12.58-10.12-12.12-18.68.17-3.19,1.94-5.85,5.27-7.91.16-.1.34-.15.53-.15,0,0,.02,0,.03,0,.88.03,1.95.04,3.19.04,14.5,0,51.38-1.65,51.75-1.67.19-.02,23.4-2.24,45.63-10.63-1.63-2.89-3.11-3.64-5.59-4.9-.81-.41-1.73-.88-2.76-1.48-1.08-.76-3.92-1.61-11.74-1.61-13.91,0-36.73,2.81-48.67,4.69-13.93,2.2-44.17,5.16-44.47,5.19-5.33.19-10.27.29-14.74.29-20,0-31.88-1.91-34.38-5.54-.71-1.03-.45-1.87-.39-2.02.15-.38.51-.64.92-.65.44,0,44.23-.78,66.85-4.43,22.57-3.64,74.01-25.25,74.53-25.47.66-.35,18.14-9.31,34.83-9.31,5.54,0,10.38,1.01,14.41,3,14.55,4.22,52.46,29.27,58.9,33.57,3.41-5.36,22.68-30.83,81.71-32.52,1.32-.02,2.59-.03,3.85-.03,48.66,0,65.68,13.38,66.39,13.94.35.28.46.76.29,1.17-.16.37-.52.61-.92.61-.04,0-.08,0-.12,0-3.25-.4-43.74-4.02-46.14-4.24-1.53.2-20.31,2.86-39.46,13.83-14.25,10.93-21.87,13.97-22.19,14.1-2.34.88-5.47,2.45-7.06,3.89.42-.02.83-.03,1.25-.03,11.53,0,19.17,7.51,19.49,7.83.1.1,11.18,10.81,19.27,15.07,17.01,2.45,19.57,13.62,19.67,14.09.06.3-.01.61-.21.85-.19.23-.47.36-.77.36,0,0-26.63-.67-26.63-.67-1.25.12-22.97,2.27-38.87,10.2-16.72,10.67-46.86,11.44-48.14,11.46h-.02s-.05,0-.08,0Z"/>
        <path class="cls-6" d="m197.66,169.51c4.95,0,9.8.82,14.04,2.94,15.54,4.44,59.59,34.05,59.59,34.05,0,0,16.65-31.09,81.42-32.94,1.3-.02,2.57-.03,3.82-.03,48.87,0,65.76,13.72,65.76,13.72-3.38-.42-46.28-4.25-46.28-4.25,0,0-19.67,2.33-40,14-14.33,11-22,14-22,14,0,0-8,3-8.67,6,1.1-.14,2.17-.21,3.22-.21,11.24,0,18.78,7.54,18.78,7.54,0,0,11.33,11,19.67,15.33,16.67,2.33,19,13.33,19,13.33l-26.67-.67s-22.67,2-39.33,10.33c-16.67,10.67-47.67,11.33-47.67,11.33,0,0-30.67-2.33-86.67-18-2.48-.99-5.37-1.38-8.39-1.38-11.24,0-24.27,5.38-24.27,5.38,0,0-2.56,3.41-11.34,3.41-.73,0-1.51-.02-2.33-.07-20.33-1.33-29.67-11.33-29.67-11.33,0,0-21-16.33-7-25,.89.03,1.97.04,3.22.04,14.69,0,51.79-1.67,51.79-1.67,0,0,24.06-2.22,47-11.1-2.59-5.18-4.81-5.18-9.25-7.77-1.78-1.26-6.32-1.74-12.24-1.74-14.97,0-38.75,3.11-48.83,4.7-14.06,2.22-44.41,5.18-44.41,5.18-5.48.2-10.33.28-14.64.28-36.2,0-33.84-6.21-33.84-6.21,0,0,44.04-.74,66.99-4.44,22.95-3.7,74.76-25.54,74.76-25.54,0,0,17.8-9.23,34.44-9.23m0-2c-16.56,0-33.84,8.67-35.29,9.42-2.19.92-52.17,21.82-74.23,25.38-22.54,3.64-66.26,4.41-66.7,4.42-.82.01-1.55.52-1.84,1.29-.13.34-.47,1.54.5,2.95,2.73,3.96,14.58,5.97,35.21,5.97,4.49,0,9.44-.1,14.71-.29.04,0,.08,0,.12,0,.3-.03,30.57-2.99,44.53-5.2,11.91-1.88,34.67-4.68,48.51-4.68,8.25,0,10.5.96,11.09,1.38.05.03.1.06.15.09,1.05.62,1.98,1.09,2.81,1.51,2.04,1.04,3.29,1.68,4.55,3.5-21.28,7.82-43.1,10.04-44.23,10.15-1.56.07-37.43,1.66-51.65,1.66-1.26,0-2.32-.01-3.16-.04-.02,0-.04,0-.06,0-.37,0-.74.1-1.05.3-3.62,2.24-5.56,5.17-5.74,8.71-.48,8.93,11.07,18.39,12.45,19.48,1.22,1.24,10.97,10.54,30.88,11.84.84.05,1.67.08,2.46.08,7.86,0,11.34-2.58,12.5-3.72,2.24-.87,13.48-5.07,23.11-5.07,3.03,0,5.6.42,7.65,1.24.07.03.13.05.2.07,55.55,15.54,86.75,18.04,87.05,18.07.05,0,.1,0,.15,0,.01,0,.03,0,.04,0,1.29-.03,31.65-.8,48.61-11.59,15.55-7.74,36.72-9.91,38.41-10.07l26.55.66s.03,0,.05,0c.59,0,1.16-.26,1.54-.72.39-.47.55-1.09.42-1.69-.11-.5-2.79-12.24-20.33-14.85-7.95-4.25-18.79-14.73-18.9-14.84-.29-.29-7.4-7.28-18.27-8.04,1.26-.71,2.75-1.43,4.25-1.99.35-.14,8.08-3.23,22.41-14.2,18.64-10.66,36.85-13.38,38.93-13.66,3.31.3,42.81,3.83,46,4.23.08.01.16.01.24.01.79,0,1.52-.47,1.84-1.22.35-.82.11-1.77-.58-2.34-.71-.58-18-14.17-67.02-14.17-1.26,0-2.54,0-3.85.03-18.75.54-45.41,4-66.06,17.49-9.1,5.94-13.9,11.77-15.92,14.65-8.34-5.54-44.05-28.95-58.27-33.12-4.15-2.04-9.12-3.07-14.77-3.07h0Z"/>
      </g>
      <path class="cls-3" d="m323.67,237.33c0,1.47-1.64,2.67-3.67,2.67s-3.67-1.19-3.67-2.67,1.64-2.67,3.67-2.67,3.67,1.19,3.67,2.67Z"/>
      <path class="cls-5" d="m336.67,243.33s5.5,4.38,2.83,9.05c3-1,26.5.62,26.5.62,0,0,.45-.86-2.15-4.5-2.65-4.17-10.51-8.5-16.85-8.83s-10.33,3.67-10.33,3.67Z"/>
      <path class="cls-5" d="m336.67,243.33s5.5,4.38,2.83,9.05c10.37.14,26.5.62,26.5.62"/>
    </g>
  </g>
</svg>