<?xml version="1.0" encoding="UTF-8"?>
<svg id="Layer_2" data-name="Layer 2" xmlns="http://www.w3.org/2000/svg" viewBox="0 0 414.35 435.49">
  <defs>
    <style>
      .cls-1 {
        fill: #136599;
      }

      .cls-1, .cls-2, .cls-3, .cls-4 {
        fill-rule: evenodd;
      }

      .cls-1, .cls-2, .cls-3, .cls-4, .cls-5, .cls-6 {
        stroke-width: 0px;
      }

      .cls-2, .cls-6 {
        fill: #231f20;
      }

      .cls-3 {
        fill: #fff;
      }

      .cls-4, .cls-5 {
        fill: #fad16b;
      }
    </style>
  </defs>
  <g id="Layer_1-2" data-name="Layer 1">
    <g>
      <path class="cls-1" d="m339.91,264.59c0,93.86-76.09,169.95-169.95,169.95S0,358.45,0,264.59,76.09,94.64,169.96,94.64s169.95,76.09,169.95,169.96h0Z"/>
      <path class="cls-3" d="m169.96,141.65c-67.79,0-122.94,55.15-122.94,122.95s55.15,122.94,122.94,122.94,122.94-55.15,122.94-122.94-55.15-122.95-122.94-122.95h0Z"/>
      <path class="cls-1" d="m169.96,143.69c-66.77,0-120.9,54.13-120.9,120.91h120.9v-120.91h0Z"/>
      <path class="cls-1" d="m169.96,385.49c66.77,0,120.9-54.13,120.9-120.9h-120.9v120.9h0Z"/>
      <path class="cls-5" d="m49.72,351.72l-1.1-1.57c-1.08-1.55-2.15-2.49-3.19-2.82-1.04-.33-2.15-.07-3.34.76-1.13.79-1.72,1.71-1.76,2.74-.04,1.03.48,2.31,1.55,3.84l1.19,1.69,6.65-4.65h0Zm10.59-7.42l-1.29-1.83c-1.21-1.73-2.4-2.79-3.55-3.16-1.16-.37-2.39-.1-3.69.82-1.36.95-2.07,2.03-2.13,3.26-.06,1.22.53,2.71,1.76,4.46l1.26,1.81,7.63-5.35h0Zm10.03,7.82l-3.06,2.14-.9-1.29c-.64-.91-1.16-1.4-1.57-1.5-.4-.1-1.05.17-1.95.79l-13.19,9.23c-.91.64-1.38,1.16-1.42,1.57-.04.4.26,1.06.89,1.97l.9,1.29-3.06,2.15-9.56-13.66c-2.13-3.05-3.26-5.59-3.37-7.63-.11-2.04.78-3.73,2.67-5.05,1.29-.9,2.69-1.27,4.22-1.1,1.52.16,3.08.86,4.68,2.09-.99-2.35-1.34-4.37-1.06-6.04.28-1.67,1.21-3.06,2.79-4.17,2.29-1.6,4.49-1.96,6.59-1.06,2.11.9,4.48,3.23,7.11,6.99l9.28,13.26h0Z"/>
      <path class="cls-5" d="m32.57,320.75l-1.08-2.81c-.77-2.01-1.56-3.28-2.36-3.8-.8-.52-1.88-.52-3.24,0-1.42.55-2.28,1.3-2.59,2.24-.31.95-.12,2.32.57,4.13l1.2,3.12,7.5-2.88h0Zm9.84-3.78c1.01-.39,1.59-.78,1.74-1.17.16-.4.03-1.12-.38-2.17l-.55-1.42,3.49-1.34,5.85,15.24-3.49,1.34-.57-1.47c-.4-1.04-.78-1.65-1.15-1.84-.37-.19-1.06-.09-2.08.31l-15.04,5.77c-1.03.4-1.62.79-1.76,1.18-.14.39-.01,1.1.38,2.13l.57,1.47-3.49,1.34-6.71-17.5c-1.25-3.24-1.63-5.86-1.14-7.87.48-2,1.84-3.43,4.08-4.29,1.56-.6,3.05-.57,4.49.08,1.43.66,2.71,1.91,3.85,3.75-.37-1.81-.28-3.24.28-4.29.55-1.04,1.64-1.88,3.27-2.5l2.58-.99c1.11-.43,1.83-.8,2.16-1.12.33-.32.41-.69.25-1.12-.2-.5-.62-.74-1.29-.72-.67.02-1.8.34-3.4.96l-1.02-2.66c.13-.05.3-.12.53-.22.22-.1.38-.17.48-.21,2.45-.94,4.44-1.13,5.99-.57,1.54.56,2.72,1.89,3.54,4.01.86,2.24.94,4.09.24,5.55-.7,1.46-2.23,2.64-4.58,3.54l-2.54.98c-1.49.57-2.37,1.18-2.64,1.82-.28.64-.13,1.71.45,3.19l1.25,3.25,6.36-2.44h0Z"/>
      <path class="cls-5" d="m41.36,293.66l-3.68.65-.3-1.72c-.19-1.09-.45-1.76-.77-2.02-.33-.26-1.04-.3-2.1-.11l-15.87,2.8c-1.09.19-1.74.46-1.95.82-.21.35-.23,1.08-.04,2.17l.3,1.72-3.68.65-2.92-16.58,3.68-.65.3,1.72c.2,1.11.46,1.79.79,2.05.34.27,1.03.3,2.1.12l15.87-2.8c1.06-.18,1.7-.46,1.93-.82.23-.37.24-1.1.04-2.2l-.3-1.71,3.68-.65,2.92,16.58h0Z"/>
      <path class="cls-5" d="m38.15,271.05l-.12,3.44-11.2-.39.13-3.82c2.29-.27,4.15-1.18,5.57-2.74,1.42-1.55,2.17-3.5,2.25-5.84.06-1.6-.21-2.87-.78-3.81-.58-.93-1.39-1.42-2.45-1.45-1.64-.06-2.92,1.6-3.83,4.97-.15.55-.25.96-.34,1.25-.81,2.95-1.46,4.98-1.96,6.11-.5,1.12-1.06,2.05-1.67,2.77-.78.93-1.7,1.62-2.75,2.08-1.06.45-2.21.66-3.47.62-2.88-.1-5.07-1.19-6.59-3.27-1.52-2.08-2.22-4.97-2.08-8.66.06-1.83.32-3.46.76-4.86.45-1.4,1.08-2.61,1.93-3.61l-1.98-.92.12-3.53,10.41.36-.13,3.91c-2.11.17-3.78.98-5.04,2.44-1.25,1.45-1.91,3.37-1.99,5.75-.05,1.42.21,2.56.77,3.41.57.85,1.35,1.29,2.36,1.33,1.45.06,2.64-1.78,3.56-5.5.35-1.41.64-2.53.89-3.35.91-3.24,2.15-5.58,3.69-7.05,1.54-1.46,3.52-2.15,5.93-2.06,2.83.09,5.05,1.23,6.65,3.42,1.6,2.18,2.33,5.08,2.21,8.71-.06,1.74-.35,3.42-.87,5.05-.52,1.63-1.19,2.98-2,4.05l2.03,1.21h0Z"/>
      <path class="cls-5" d="m17.06,213.44l10.71,2.47-.86,3.76c-2.39-.55-4.25-.51-5.6.12-1.35.64-2.23,1.89-2.66,3.76l-.1.42,17.65,4.08c.96.22,1.6.32,1.93.3.33-.03.56-.16.69-.4.19-.25.37-.62.53-1.09.16-.47.4-1.32.72-2.54l3.56.82-3.81,16.48-3.56-.82c.2-.87.34-1.62.42-2.25.09-.64.11-1.18.06-1.62-.03-.26-.18-.47-.46-.64-.28-.16-.89-.35-1.82-.57l-.55-.12-17.15-3.96-.09.4c-.44,1.88-.18,3.42.75,4.59.94,1.18,2.59,2.04,4.96,2.59l-.86,3.72-10.71-2.47,6.24-27.04h0Z"/>
      <path class="cls-5" d="m37.39,202.74c3.43,1.83,6.19,2.69,8.28,2.57,2.08-.11,3.68-1.21,4.78-3.29,1.1-2.06,1.11-3.99.04-5.78-1.07-1.79-3.32-3.6-6.75-5.43-3.44-1.82-6.19-2.68-8.28-2.56-2.08.11-3.68,1.2-4.78,3.27-1.1,2.08-1.12,4.01-.05,5.8,1.07,1.79,3.32,3.6,6.76,5.42h0Zm-4.35,8.19c-4.15-2.21-6.75-5.2-7.8-8.98-1.04-3.78-.39-7.87,1.96-12.28,2.33-4.39,5.35-7.2,9.06-8.45,3.71-1.25,7.65-.77,11.81,1.45,4.15,2.2,6.75,5.19,7.78,8.95,1.03,3.76.38,7.85-1.96,12.25-2.35,4.41-5.37,7.24-9.08,8.49-3.71,1.25-7.62.77-11.77-1.42h0Z"/>
      <path class="cls-5" d="m40.92,168.92l10.88-12.52,2.82,2.45-1.17,1.35c-.74.86-1.11,1.5-1.11,1.92,0,.42.42.99,1.23,1.69l14.02,12.18,1.47-1.69c1.42-1.63,2.32-2.82,2.71-3.59.39-.77.57-1.51.54-2.23-.03-.81-.32-1.67-.86-2.57-.55-.9-1.45-2-2.71-3.28l2.45-2.82,8.79,7.64-17.54,20.18-2.82-2.45,1.03-1.19c.72-.84,1.08-1.46,1.08-1.88,0-.41-.42-.98-1.24-1.7l-12.15-10.56c-.84-.73-1.46-1.06-1.86-1.01-.41.06-.98.5-1.7,1.34l-1.04,1.19-2.82-2.45h0Z"/>
      <path class="cls-5" d="m244.53,136.1l2.35,1.47c1.69,1.05,2.98,1.53,3.88,1.43.9-.1,1.74-.76,2.51-1.99.81-1.29,1.07-2.4.81-3.31-.27-.91-1.17-1.84-2.67-2.78l-2.61-1.63-4.26,6.82h0Zm-5.59,8.94c-.57.92-.81,1.57-.72,1.97.09.39.58.86,1.47,1.42l1.18.74-1.98,3.17-12.74-7.96,1.98-3.17,1.23.77c.86.54,1.49.76,1.88.68.39-.08.87-.58,1.45-1.51l8.54-13.66c.59-.94.83-1.6.73-1.98-.1-.38-.58-.84-1.45-1.38l-1.23-.77,1.98-3.17,14.63,9.14c2.71,1.69,4.42,3.45,5.12,5.27.7,1.82.42,3.74-.85,5.77-.89,1.42-2.06,2.32-3.52,2.71-1.46.38-3.12.23-5-.47,1.26,1.15,1.97,2.29,2.1,3.42s-.26,2.44-1.19,3.92l-1.46,2.34c-.63,1.01-.99,1.74-1.07,2.19-.08.44.05.78.41,1,.42.26.88.18,1.38-.25.5-.43,1.21-1.38,2.12-2.83l2.22,1.39c-.08.12-.17.28-.29.5-.12.21-.2.37-.26.46-1.39,2.22-2.83,3.6-4.32,4.13-1.5.54-3.13.25-4.91-.86-1.86-1.17-2.92-2.52-3.17-4.06-.24-1.54.3-3.38,1.63-5.52l1.44-2.31c.84-1.35,1.19-2.35,1.06-3.01-.13-.66-.82-1.38-2.07-2.15l-2.72-1.7-3.61,5.78h0Z"/>
      <path class="cls-5" d="m269.72,157.73c-2.8,2.7-4.49,5.03-5.09,6.98-.59,1.96-.14,3.71,1.37,5.27,1.49,1.55,3.23,2.06,5.21,1.54,1.97-.53,4.36-2.14,7.15-4.84,2.8-2.7,4.49-5.03,5.09-6.98.59-1.96.14-3.71-1.35-5.26-1.5-1.56-3.24-2.07-5.22-1.55-1.97.53-4.36,2.14-7.16,4.84h0Zm-5.92-6.13c3.38-3.27,6.96-4.9,10.71-4.89,3.76.02,7.23,1.67,10.43,4.98,3.18,3.29,4.71,6.8,4.6,10.56-.12,3.75-1.87,7.26-5.27,10.54-3.38,3.27-6.95,4.89-10.69,4.88-3.74-.02-7.2-1.67-10.39-4.97-3.19-3.31-4.74-6.83-4.62-10.58.12-3.75,1.86-7.25,5.24-10.51h0Z"/>
      <path class="cls-5" d="m284.15,198.36l-3.99-6.14,14.42-17.29c.95-1.15,1.46-2.05,1.51-2.7.05-.66-.22-1.49-.83-2.5l3.03-1.97,7.99,12.31-3.04,1.95c-.09-.17-.19-.35-.31-.54-.11-.19-.28-.44-.48-.75-.45-.69-.85-1.12-1.19-1.28-.35-.16-.72-.1-1.14.17-.17.11-.37.28-.6.53-.24.25-.61.68-1.11,1.3l-9.41,11.05,14.67-4.22c.66-.19,1.11-.33,1.34-.4.23-.08.4-.16.52-.23.34-.22.49-.54.44-.96-.04-.42-.27-.95-.69-1.6-.17-.26-.31-.47-.4-.61-.1-.14-.2-.27-.29-.37l3.03-1.97,6.2,9.55-3.04,1.95c-.66-1-1.4-1.59-2.19-1.78-.79-.18-2.01,0-3.63.53l-20.81,5.97h0Z"/>
      <path class="cls-5" d="m289.99,208.46l3.53-1.22.47,1.38c.33.96.68,1.53,1.03,1.71.35.18,1.05.1,2.08-.26l15.23-5.24c1.05-.36,1.66-.72,1.82-1.08.16-.36.08-1.02-.25-1.98l-.47-1.38,3.53-1.22,8.45,24.54-10.29,3.54-1.12-3.25c1.5-.74,2.61-1.39,3.32-1.95.71-.55,1.21-1.14,1.52-1.76.31-.62.44-1.33.39-2.11-.06-.79-.4-2.12-1.04-3.99l-1.11-3.21-7.68,2.64.21.62c.47,1.37,1.07,2.19,1.79,2.46.72.27,1.94.11,3.66-.48l1.07,3.11-12.31,4.24-1.05-3.11c1.86-.68,3-1.33,3.42-1.94.42-.62.38-1.63-.11-3.05l-.21-.62-8.7,2.99,1.14,3.32c.94,2.73,2.08,4.39,3.44,5,1.35.6,3.58.53,6.7-.24l1.12,3.25-11.13,3.83-8.45-24.54h0Z"/>
      <path class="cls-5" d="m317.31,244.89l.39,2.75c.28,1.97.75,3.27,1.4,3.89.65.63,1.7.84,3.14.64,1.51-.21,2.53-.72,3.05-1.51.53-.79.66-2.08.41-3.84l-.43-3.05-7.96,1.12h0Zm-10.44,1.47c-1.07.15-1.73.39-1.97.71-.24.32-.29,1-.14,2.04l.19,1.38-3.7.52-2.09-14.87,3.7-.52.2,1.44c.14,1.01.37,1.63.69,1.88.31.25,1.01.29,2.1.14l15.95-2.24c1.1-.16,1.76-.39,1.99-.71.23-.32.27-.99.13-1.99l-.2-1.44,3.7-.52,2.4,17.09c.45,3.16.19,5.6-.75,7.31-.94,1.71-2.59,2.73-4.97,3.06-1.66.23-3.1-.08-4.33-.95-1.23-.87-2.18-2.25-2.86-4.14-.07,1.71-.49,2.98-1.28,3.81-.79.83-2.04,1.37-3.77,1.61l-2.74.38c-1.18.17-1.97.36-2.37.58-.39.22-.56.54-.5.96.07.49.43.79,1.08.9.65.11,1.83.04,3.53-.2l.36,2.59c-.14.02-.32.05-.57.1-.24.05-.41.08-.52.09-2.59.36-4.57.14-5.94-.66-1.37-.8-2.2-2.24-2.5-4.31-.31-2.18.05-3.86,1.07-5.04,1.02-1.18,2.78-1.95,5.27-2.29l2.69-.38c1.57-.22,2.57-.6,2.98-1.12.42-.53.52-1.52.32-2.97l-.45-3.18-6.74.95h0Z"/>
      <path class="cls-5" d="m301.35,271.59l.39-3.15,11.13,1.37-.43,3.49c-2.3.04-4.22.71-5.76,2.01-1.53,1.3-2.43,3.02-2.69,5.16-.18,1.47-.02,2.66.48,3.57.5.91,1.27,1.42,2.32,1.55,1.64.2,3.03-1.21,4.2-4.22.18-.49.33-.86.43-1.12,1.03-2.63,1.84-4.45,2.42-5.43.58-.99,1.2-1.78,1.88-2.4.85-.78,1.82-1.33,2.9-1.65,1.09-.32,2.26-.41,3.51-.25,2.86.35,4.96,1.55,6.31,3.59s1.82,4.76,1.41,8.14c-.21,1.68-.59,3.14-1.13,4.4-.55,1.25-1.29,2.29-2.2,3.15l1.9,1.02-.4,3.22-10.34-1.27.44-3.57c2.12.03,3.85-.57,5.21-1.79,1.36-1.22,2.17-2.92,2.43-5.1.16-1.3,0-2.37-.51-3.2-.5-.83-1.25-1.31-2.25-1.43-1.44-.18-2.76,1.4-3.96,4.73-.46,1.26-.84,2.26-1.15,3-1.16,2.89-2.57,4.93-4.22,6.13s-3.67,1.66-6.06,1.36c-2.82-.35-4.94-1.59-6.36-3.74-1.43-2.15-1.94-4.87-1.53-8.18.2-1.59.62-3.12,1.26-4.56.65-1.45,1.42-2.62,2.3-3.53l-1.93-1.3h0Z"/>
      <path class="cls-5" d="m295.66,305.39l3.49,1.34-.52,1.36c-.37.95-.47,1.61-.31,1.98.15.37.74.75,1.76,1.14l15.04,5.77c1.04.4,1.73.51,2.09.34.35-.17.71-.73,1.08-1.68l.52-1.36,3.49,1.34-8.82,22.98-10.88-4.17,1.23-3.21c1.74.53,3.14.84,4.18.92,1.05.08,1.93-.03,2.65-.35.62-.25,1.15-.69,1.61-1.31.45-.62,1.04-1.89,1.79-3.82l.74-1.92-7.58-2.91-.1.25c-.44,1.15-.46,2.07-.05,2.73.41.67,1.37,1.29,2.88,1.88l.19.07-1.18,3.07-12.15-4.67,1.2-3.06c1.73.64,2.99.88,3.77.71.79-.16,1.38-.75,1.78-1.78.02-.06.05-.15.08-.28.03-.13.06-.21.08-.28l-6.28-2.41c-1.01-.39-1.7-.5-2.07-.33-.37.17-.74.74-1.11,1.71l-.59,1.53-3.49-1.34,5.47-14.25h0Z"/>
      <path class="cls-5" d="m289.79,325.53c.89.45,1.5,1.12,1.84,2.02.33.89.29,1.75-.13,2.58-.41.81-1.07,1.34-1.99,1.59-.92.26-1.82.16-2.72-.3-.92-.47-1.53-1.13-1.84-2-.32-.87-.27-1.72.15-2.55.43-.84,1.1-1.39,2-1.64.9-.26,1.8-.16,2.69.29h0Z"/>
      <path class="cls-5" d="m278.18,357.97l-2.55,3.27c-3.04-2.5-4.74-5.14-5.11-7.92-.37-2.77.61-5.65,2.93-8.62,2.62-3.36,5.79-5.19,9.5-5.49,3.72-.31,7.39.96,11.03,3.8,1.81,1.41,3.23,2.94,4.26,4.56,1.03,1.63,1.7,3.42,2.02,5.38.29,1.88.21,3.63-.24,5.26-.45,1.63-1.29,3.24-2.54,4.84-.88,1.12-1.88,2.04-3.01,2.76-1.13.71-2.42,1.23-3.88,1.56l1.31,2.01-2.21,2.83-9.16-7.16,2.37-3.03c2.06,1.42,4.01,2.1,5.83,2.05,1.82-.06,3.32-.85,4.51-2.36,1.29-1.65,1.55-3.53.78-5.63-.77-2.1-2.52-4.21-5.23-6.33-2.76-2.16-5.24-3.36-7.45-3.6-2.21-.25-3.97.48-5.3,2.18-1.13,1.44-1.5,3.02-1.11,4.72.38,1.7,1.47,3.34,3.28,4.92h0Z"/>
      <path class="cls-5" d="m265.16,359.7c.69.72,1.05,1.55,1.08,2.51.02.95-.29,1.75-.96,2.4-.65.63-1.45.91-2.4.86-.95-.06-1.77-.45-2.48-1.17-.71-.74-1.08-1.57-1.09-2.49-.02-.93.3-1.71.98-2.36.68-.66,1.49-.96,2.43-.9.94.05,1.75.44,2.45,1.15h0Z"/>
      <path class="cls-2" d="m252.85,368.57h-.02c-.04-.37-.25-.7-.59-.85l-19.13-8.42c-.32-.14-.68-.11-.97.08-.29.19-.46.51-.46.85v14.36c-31.22,7.2-70.69,2.56-98.54-.73-12.38-1.46-22.16-2.61-28.26-2.41-23.41.78-28.29,15.4-28.49,16.02l-.05.35,1.53,41.32h.03c0,.18.04.37.14.52.24.36.69.54,1.11.43.2-.05,20.03-5.05,26.43,4.92.24.38.71.55,1.15.42.43-.12.73-.52.73-.97v-14c5.18.57,10.51,1.95,16.85,3.61,12.98,3.38,29.13,7.59,54.82,7.59,41.8,0,75.8-13.72,76.14-13.85l.63-.95c0-11.39-3.03-47.92-3.06-48.29h0Z"/>
      <path class="cls-4" d="m102.62,420.18s1.76.08,2.81.13v11.35c-6.46-6.31-18.33-5.12-23.82-4.15,2.71-2.65,9.14-7.33,21.01-7.33h0Z"/>
      <path class="cls-4" d="m233.72,361.81c2.15.94,12.41,5.46,15.54,6.84-4.63,2.13-9.81,3.96-15.54,5.39v-12.23h0Z"/>
      <path class="cls-4" d="m250.93,370.18c.54,6.63,2.84,35.38,2.93,46-4.69,1.81-36.36,13.45-74.73,13.45-25.43,0-41.44-4.17-54.31-7.53-8.14-2.12-15.17-3.95-22.21-3.95-13,0-19.87,5.21-22.8,8.27-.17-4.63-1.41-38.08-1.42-38.46.38-1.12,5.17-13.74,26.56-14.45,5.94-.2,15.66.94,27.95,2.4,33.94,4,84.97,9.97,118.03-5.73h0Z"/>
      <path class="cls-6" d="m109.31,414.37c.02.25.2.44.55.56.34.12.75.18,1.22.18.25,0,.82-.04,1.69-.08.87-.06,1.98-.11,3.33-.17,1.35-.06,2.85-.09,4.52-.09.64,0,1.34,0,2.06.04.73.02,1.44.05,2.14.08.69.03,1.31.06,1.84.08.54.03.95.04,1.22.04.25,0,.51-.03.77-.08.27-.05.5-.12.7-.23.19-.1.28-.23.29-.38-.01-.21-.09-.4-.25-.57-.15-.16-.35-.3-.59-.42-.24-.11-.48-.2-.73-.25-1.07-.22-1.9-.43-2.48-.66-.59-.23-1.01-.51-1.26-.86-.24-.35-.39-.82-.45-1.41-.04-.58-.07-1.35-.05-2.28-.01-1.36-.02-2.81-.03-4.36-.01-1.54-.01-3.1-.01-4.69-.01-1.58-.01-3.1,0-4.58,0-1.47,0-2.82.01-4.04.01-1.22.02-2.24.03-3.05.03-2.08.08-3.73.12-4.97.04-1.24.08-2.01.08-2.33-.01-.18-.08-.32-.2-.43-.12-.11-.25-.15-.39-.13-.16,0-.4.05-.72.13-.33.09-.69.21-1.09.35-.4.15-.79.31-1.2.48-.45.23-1,.43-1.67.63-.66.19-1.37.38-2.15.54-.77.17-1.55.33-2.33.48-.78.16-1.53.3-2.22.44-.22.04-.45.09-.66.18-.22.09-.4.18-.54.3-.14.11-.22.24-.23.37.01.24.15.44.45.64.28.2.65.34,1.12.43.19.04.44.08.75.12.32.04.66.09,1.05.15.39.07.77.14,1.14.24.26.07.49.23.66.46.17.24.28.48.32.73.09.41.14,1.21.14,2.39s0,2.67-.01,4.46c0,1.92-.02,3.79-.05,5.59-.03,1.8-.09,3.46-.14,4.97-.05,1.52-.12,2.8-.19,3.86-.08,1.06-.14,1.79-.21,2.22-.05.52-.13.97-.23,1.35-.1.38-.27.7-.53.98-.25.27-.64.52-1.18.74-.53.22-1.25.41-2.18.61-.75.17-1.31.36-1.68.56-.36.21-.55.43-.55.69h0Z"/>
      <path class="cls-6" d="m149.3,384.59c-1.15,0-2.27.12-3.32.35s-2.04.54-2.94.92c-.89.39-1.69.83-2.36,1.33-.75.53-1.42,1.13-2,1.82-.59.69-1.06,1.46-1.39,2.34-.34.87-.51,1.84-.52,2.92.01,1.29.32,2.48.92,3.56.6,1.08,1.43,2.08,2.48,3.01.53.52,1.13,1.03,1.8,1.52.66.5,1.33.93,1.99,1.31.09.09.11.17.07.24-.04.08-.09.13-.13.16-.44.23-.97.53-1.61.91-.63.37-1.32.78-2.05,1.25-.48.32-.99.69-1.52,1.1-.53.41-1.04.89-1.5,1.42-.47.54-.86,1.16-1.16,1.86-.29.7-.45,1.5-.46,2.41,0,.75.15,1.54.47,2.34.32.8.81,1.58,1.46,2.32.65.75,1.48,1.43,2.49,2.03,1,.6,2.2,1.08,3.58,1.42,1.38.36,2.96.54,4.74.55.93,0,1.94-.08,3.04-.25,1.11-.17,2.22-.46,3.36-.87,1.13-.41,2.2-.95,3.21-1.65.75-.51,1.46-1.11,2.1-1.82.65-.7,1.19-1.49,1.59-2.36.4-.87.61-1.82.62-2.84-.01-1.16-.24-2.24-.69-3.22-.46-.99-1.07-1.91-1.84-2.75-.78-.85-1.67-1.64-2.66-2.37-.99-.74-2.03-1.42-3.12-2.08-.13-.07-.2-.15-.2-.25s.07-.19.2-.25c.54-.35,1.13-.72,1.76-1.11.64-.4,1.23-.77,1.77-1.15.66-.45,1.26-.94,1.81-1.47.53-.53.97-1.12,1.29-1.77.33-.65.49-1.38.5-2.19-.01-1.26-.31-2.42-.89-3.48-.59-1.06-1.41-1.96-2.46-2.74-1.06-.77-2.3-1.38-3.73-1.8-1.43-.42-3-.63-4.68-.64h0Zm.33,35.16c-.68,0-1.36-.1-2.06-.3-.69-.2-1.35-.48-1.98-.85-.63-.36-1.2-.79-1.71-1.28-.67-.69-1.19-1.45-1.57-2.29-.38-.84-.58-1.72-.59-2.63.02-1.16.24-2.25.67-3.28.42-1.03.95-1.92,1.57-2.66.63-.75,1.25-1.27,1.88-1.58.14-.05.32-.03.53.07.21.09.4.18.58.27,1.1.66,2.16,1.35,3.16,2.06.99.71,1.88,1.43,2.67,2.18.78.75,1.39,1.52,1.85,2.3.45.78.68,1.59.69,2.41,0,1.01-.2,1.94-.6,2.78-.4.85-1.02,1.53-1.87,2.04-.84.51-1.91.77-3.21.78h0Zm-1.11-33.29c1.01,0,1.95.24,2.8.68.85.44,1.59,1.01,2.22,1.71.62.71,1.11,1.45,1.45,2.25.35.79.52,1.55.52,2.27-.02.91-.14,1.74-.38,2.46-.24.73-.48,1.32-.73,1.78-.32.55-.69,1.04-1.12,1.48-.44.43-.82.77-1.17,1.01-.11.09-.25.11-.41.1-.17,0-.29-.05-.37-.1-1.01-.52-1.99-1.08-2.96-1.69-.98-.61-1.86-1.26-2.65-1.95-.79-.7-1.43-1.44-1.9-2.25-.48-.79-.72-1.64-.73-2.55.01-1.07.23-1.98.68-2.76.45-.77,1.08-1.38,1.9-1.8.81-.42,1.75-.64,2.85-.64h0Z"/>
      <path class="cls-6" d="m179.69,386.85c-1.15,0-2.27.12-3.32.35-1.06.23-2.04.54-2.94.92-.89.39-1.69.83-2.36,1.33-.75.53-1.42,1.13-2,1.82-.59.69-1.06,1.46-1.39,2.34-.34.87-.51,1.84-.52,2.92.01,1.29.32,2.48.92,3.56.6,1.08,1.43,2.09,2.48,3.01.53.52,1.13,1.03,1.8,1.52.66.5,1.33.93,1.99,1.31.09.08.11.17.06.24-.04.08-.09.13-.13.16-.44.23-.97.53-1.61.91-.63.37-1.32.78-2.05,1.25-.48.32-.99.69-1.52,1.1-.53.41-1.04.89-1.5,1.42-.47.54-.86,1.16-1.15,1.86-.29.7-.45,1.5-.46,2.41,0,.75.15,1.54.47,2.34.32.8.81,1.58,1.46,2.32.65.75,1.48,1.42,2.49,2.03,1,.6,2.2,1.08,3.58,1.42,1.38.36,2.96.54,4.74.55.93,0,1.94-.09,3.04-.25,1.11-.17,2.22-.46,3.36-.87,1.13-.41,2.2-.95,3.21-1.65.75-.51,1.46-1.11,2.1-1.82.65-.7,1.19-1.49,1.59-2.36.4-.87.61-1.82.62-2.84-.01-1.16-.24-2.24-.69-3.22-.46-.99-1.07-1.91-1.84-2.75-.78-.85-1.67-1.64-2.66-2.37-.99-.74-2.03-1.42-3.12-2.08-.13-.07-.2-.15-.2-.25s.07-.19.2-.25c.54-.35,1.13-.72,1.76-1.11.64-.4,1.23-.77,1.77-1.15.66-.45,1.26-.94,1.81-1.47.53-.53.97-1.12,1.29-1.77.33-.65.49-1.38.5-2.19-.01-1.26-.3-2.42-.89-3.48-.59-1.06-1.4-1.96-2.46-2.74-1.06-.77-2.3-1.38-3.73-1.8-1.43-.42-3-.63-4.68-.64h0Zm.33,35.16c-.68,0-1.36-.1-2.06-.3-.69-.2-1.35-.48-1.98-.85-.63-.36-1.2-.79-1.71-1.28-.66-.69-1.19-1.45-1.57-2.29-.38-.84-.58-1.72-.59-2.63.02-1.16.24-2.25.66-3.28.42-1.03.95-1.92,1.57-2.66.63-.75,1.25-1.27,1.88-1.59.14-.05.32-.03.53.07.21.09.4.18.58.27,1.1.66,2.16,1.35,3.16,2.06.99.71,1.88,1.43,2.67,2.18.78.75,1.39,1.52,1.85,2.3.45.78.68,1.59.69,2.41,0,1.01-.2,1.94-.6,2.78-.4.85-1.02,1.53-1.87,2.04-.84.51-1.91.77-3.21.78h0Zm-1.11-33.29c1.01,0,1.95.24,2.8.68.85.44,1.59,1.01,2.22,1.71.62.71,1.11,1.45,1.45,2.25.35.79.52,1.55.52,2.27-.02.92-.14,1.74-.38,2.46-.24.73-.48,1.32-.73,1.78-.32.55-.69,1.04-1.12,1.48-.44.43-.82.77-1.17,1.01-.11.08-.25.11-.41.1-.17,0-.29-.05-.37-.1-1.01-.52-1.99-1.08-2.96-1.69-.98-.61-1.86-1.26-2.65-1.95-.8-.7-1.43-1.44-1.9-2.25-.48-.79-.72-1.64-.73-2.55.01-1.07.23-1.98.68-2.76.45-.77,1.08-1.38,1.9-1.8.81-.42,1.75-.64,2.85-.64h0Z"/>
      <path class="cls-6" d="m210.2,384.47c-1.72,0-3.27.23-4.63.66-1.37.44-2.64,1.09-3.8,1.94-.69.48-1.33,1.03-1.93,1.63-.6.59-1.09,1.16-1.46,1.7-.36.54-.54.95-.53,1.25,0,.25.04.46.13.61.1.15.27.24.52.24.19,0,.4-.08.63-.24.23-.16.52-.41.87-.78.95-.99,2-1.73,3.16-2.22,1.15-.49,2.4-.73,3.7-.73,1.13,0,2.17.26,3.1.76.95.5,1.71,1.19,2.29,2.06.58.86.87,1.85.88,2.95.01.92-.19,1.79-.58,2.59-.39.81-1.01,1.55-1.88,2.23-.85.67-1.97,1.27-3.37,1.8-.34.13-.72.3-1.13.5-.41.19-.81.38-1.18.57-.37.19-.64.34-.83.46-.24.16-.49.36-.76.58-.26.23-.47.53-.61.89-.02.18.01.34.12.49.1.14.24.21.4.19.4-.11.92-.24,1.53-.36.61-.12,1.23-.22,1.85-.3.63-.08,1.19-.13,1.66-.13,1.08-.02,2.08.11,3.01.39.93.27,1.8.79,2.61,1.54.54.52.98,1.12,1.32,1.81.34.69.59,1.42.74,2.17.15.75.23,1.48.23,2.19,0,.58-.08,1.2-.23,1.87-.14.67-.38,1.34-.7,2.03-.3.68-.71,1.31-1.2,1.92-.48.6-1.06,1.11-1.73,1.55-.69.45-1.38.77-2.09.96-.71.2-1.41.29-2.09.28-1.21,0-2.38-.21-3.49-.61-1.12-.41-2.2-1-3.25-1.76-.14-.1-.34-.22-.59-.35-.25-.13-.5-.25-.74-.34-.24-.1-.4-.15-.5-.16-.32,0-.69.13-1.12.39-.44.25-.82.57-1.17.97-.04.1-.11.25-.2.43-.08.19-.15.38-.22.57-.07.2-.11.35-.11.47.01.42.2.82.58,1.19.37.36.87.68,1.5.94.62.27,1.33.49,2.11.64.78.15,1.58.23,2.41.23,1.06,0,2.2-.09,3.43-.28,1.24-.19,2.48-.47,3.75-.85,1.26-.38,2.46-.85,3.61-1.42,1.88-.95,3.53-2.05,4.94-3.3,1.42-1.25,2.5-2.63,3.29-4.13.77-1.49,1.18-3.07,1.19-4.74-.01-1.14-.2-2.15-.54-3.03-.35-.89-.78-1.61-1.29-2.18-.85-.94-1.97-1.75-3.37-2.42-1.39-.66-3.04-1.14-4.94-1.43-.16-.07-.26-.14-.29-.23-.03-.09,0-.17.1-.23.73-.38,1.35-.71,1.84-.99.5-.28.94-.56,1.31-.81.37-.25.74-.53,1.1-.8.32-.26.65-.62,1.01-1.08.36-.45.68-.99.94-1.62.25-.63.39-1.36.4-2.17,0-.74-.21-1.51-.61-2.31-.42-.8-1.02-1.55-1.83-2.26-.82-.7-1.83-1.27-3.05-1.72-1.21-.44-2.62-.67-4.25-.68h0Z"/>
      <path class="cls-2" d="m194.32,302.08c-9.46.37-18.22,4.42-24.68,11.4-6.46,6.98-9.81,16.04-9.44,25.5.37,9.45,4.42,18.22,11.4,24.68,6.98,6.46,16.04,9.81,25.49,9.44,19.58-.77,34.89-17.32,34.12-36.9-.37-9.46-4.42-18.22-11.4-24.68-6.98-6.45-16.04-9.81-25.5-9.44h0Z"/>
      <path class="cls-3" d="m172.36,362.83c-6.76-6.26-10.69-14.74-11.04-23.9-.36-9.17,2.89-17.93,9.14-24.7,6.25-6.76,14.74-10.68,23.9-11.04,9.16-.36,17.93,2.88,24.7,9.14,6.76,6.25,10.68,14.74,11.04,23.9.74,18.96-14.08,34.99-33.04,35.73-9.16.36-17.93-2.89-24.69-9.14h0Z"/>
      <path class="cls-2" d="m173.94,326.27l10.84-.84,7,9.53-7,11.8-11.98.86-4.7-12.7,5.84-8.66h0Zm-1.02-15.12l.41,5.51-.44-5.49s.02-.01.03-.03h0Zm33.1,45.19l-12.96.96-7.23-10.13,6.97-11.75,11.52-.43,6.48,11.08-4.79,10.27h0Zm16.21-28.29l2.19,3.81-2.61,12.32-10.22,1.01-6.3-10.77-.36.21,3.23-10.46,10.19-1.69,3.89,5.57h0Zm8.05,4.64s0,0,0,0h-.56.56Zm-25.01-28.69s.05.01.07.02l-4.79,1.54,4.72-1.55h0Zm25.05,28.73s0-.03,0-.04h0c-.06-.41-.16-.81-.23-1.23-1.41-8.14-5.65-15.48-12.05-20.81l-.08.04-.13,10.73-10.15,1.69-11.64-7.57-.8-8.2,10.12-3.33s-.05-.01-.08-.02l.07-.02c-.73-.21-1.47-.38-2.22-.55-2.88-.67-5.83-.95-8.8-.83-5.17.2-10.11,1.51-14.68,3.88l.02.09,14.47.9.8,8.23-9.92,8.59-10.98.85-1.1-14.04s-.03.03-.05.04v-.03c-1.76,1.52-3.36,3.21-4.79,5.04-4.38,5.59-6.98,12.44-7.36,19.55l.05.05,6.32-.29,5.08,13.73.21,10.06-3.05.94.33,1.07,3.11-.96,11.74,5.55,5.45,6.67.87-.71-4.84-5.92,6.99-7.46,13.37-.99,5.06,4.42-.88,7.06,1.11.14.88-7.03,12.96-6.24-2.83-10.21,2.71-12.81,4.96-.04h0Z"/>
      <path class="cls-2" d="m130.2,330.45c-1.37.68-2.57,1.62-3.56,2.8-.09.11-.08.84-.13,1.06-.94,4.44-1.4,9.01-1.01,13.53.07.8-.52,1.87-.7,2.82l-1.93,10.34c1.74,4.6,5.8,7.61,10.31,8.82,2.7.72,5.62.69,8.29-.11,5.51-1.66,7.81-7.86,6.07-13.17-.85-2.56-1.53-5.18-1.87-7.85l-.02-5.99c0-.78.29-1.52.61-2.24,1.14-2.49,2.06-5.51.27-7.95-.1-.3-.16-.6-.25-.91-4.83,1.64-11.53.47-16.09-1.15h0Z"/>
      <path class="cls-2" d="m140.92,267.27l-1.22-.03h-6.67s-1.88.38-1.88.38l-1.44.24v3.03c-3.14,12.68-3.82,26.13-.46,39.02,1.62,6.21,2.36,12.66,1.69,19.17,4.25,1.47,10.59,2.56,14.95,1.04-.69-3-.91-6.09-.88-9.18.05-4.28,1.74-8.25,2.6-12.38,1.7-8.14,4.93-15.96,5.72-24.28l.02-9.5c0-.6-.49-2.39-.5-3-.01-.81.19-1.61.34-2.41l-4.43-1.29c-2.44-.49-5-.75-7.83-.8h0Z"/>
      <path class="cls-2" d="m219.6,284.42c-1.95.45-3.95.91-5.9,1-8.32.4-14.61-1.3-18.75-5-.44,0-.83.05-1,.26-1.59,1.86-3.14,3.71-4.12,5.74.02,3.46.09,6.76-.14,10.06-.06.88,1.24,1.72,1.78,2.66,1.16,2.04,3.4,3.23,5.97,3.02,3.68.71,7.41,2.06,11.03,3.23.27.09.93-.69,1.1-.84.94-.84,2.29-1.02,3.34-.45.91,1.13,1.44,2.45,1.54,3.78.88,1.39,2.26,2.16,3.47,3.09,3.7,2.84,7.8,6.28,12.73,5.2,3.56-.78,7.19-1.39,11.39-2.66,1.34-.4,3.48-1.13,5.57-1.02,1.36-.88,2.39-2.1,2.77-4.06.16-.79-.29-2.11-.71-3.64-.18-.67-1.25-1.51-1.49-2.44l-4.38-.8c-3.44-.2-6.62-1.44-9.51-3.39-2.7-.11-4.88.07-7.26,1.05l-1.01.48c-1.19.61-1.79.75-3.42-.13-1.23-.67-2.12-1.92-2.86-2.96-1.06-1.49-3.88-5.44-1.67-8.02,1.45-1.69,5.74-2.5,8.07-2.62.48-.79.86-1.61,1.07-2.45-2.45-.24-5.05.34-7.59.92h0Z"/>
      <path class="cls-2" d="m220.99,295.71c.66.93,1.41,1.98,2.33,2.48,1.07.58,1.16.54,1.99.11l1.12-.53c1.97-.81,3.83-1.11,5.84-1.18-.25-.21-.51-.41-.76-.63-.57-.52-.55-1.93-1.18-2.79-.82-1.12-1.24-2.47-1.23-3.91-1.34-.37-2.6-.81-4.32-1.52.04-.05.09-.11.13-.16-2.15.28-4.86,1-5.69,1.97-.96,1.12-.39,3.13,1.78,6.16h0Z"/>
      <path class="cls-2" d="m229.81,269.11c.2-3.85,1.42-7.3,3.35-10.32,2.88-4.51,6.23-8.69,9.48-13.29.5-2.03,2.25-3.84,4.78-4.25l9.09-13.22c-9.39-2.56-18.29-3.02-26.55-1.31,0,0,0,.02,0,.03.03.29-.22.75-.57.96-7.21,4.39-12.81,11.21-14.8,19.49-1.38,5.75-3.46,11.3-4.99,16.97l-3.37,2.13c.13,2.01-.36,3.93-1.5,5.74-1.07.59-2.35,1.16-3.61,1.59v2.63c-1.48.12-2.77.9-3.77,2.06-.29.33-.11,1.19-.24,1.92,3.82,2.76,9.37,4,16.5,3.66,1.81-.09,3.66-.51,5.63-.96,2.67-.62,5.42-1.23,8.11-.95-.02-.55-.1-1.11-.31-1.66-.37-.97-.64-2.06-1.48-2.88-.76.34-1.66.16-2.24-.46,1.93-3.05,3.9-5.92,6.48-7.86h0Z"/>
      <path class="cls-2" d="m136.52,123.07s-4.79,0-5.84-1.04c-1.05-1.04-5.22-6.88-5.22-6.88l7.92-10.01s3.76,6.26,5.21,6.05c1.46-.21-2.29,10.22-2.08,11.89h0Zm122.22,100.05c-.04-8.17-5.12-14.88-11.17-19.88-.7-.58-1.81-.76-2.41-1.47-4.44-5.3-8.76-10.76-13.99-15.3l-9.23-7.49c-2.8-1.98-5.19-4.54-6.21-8.48l-10.52-9.77c-1.54-1.17-3.43-1.99-5.18-2.93-3.53-1.89-4.91-6.28-2.31-10.17.21-.32.42-1.48.68-2.29.83-2.62.91-5.32.52-7.82-.01-.04-.01-.08-.01-.12-.38-.09-.65-.25-.85-.45-.1-.31-.22-.62-.34-.93-.34-.83-.75-1.67-1.16-2.49l-.65-1.33-3.13-6.71c-4.77-10.26-9.71-20.87-15.33-30.88-3.31-5.89-7.57-10.75-12.07-15.89l-1.48-1.69-4.48-5.72c-2.85-3.83-5.79-7.75-9.37-10.51-1.2.25-2.42.36-3.62.1-4.7,1.57-9.69,2.12-14.5,4.23-4.45,3.97-7.47,9.46-10.09,15.26-3.55,3.74-6.71,8.07-9.52,12.6-2.79,4.5-5.24,9.29-8.58,12.63-1.2,2.3-2.47,3.87-4.08,5.03-2.26,1.63-4.31,4.17-3.41,7.07.94.93,1.64,1.98,2.11,3.18l.28,13.07c-3.22,3.56-4.14,8.51-3.03,13.11,1.24-1.56,2.97-2.9,4.49-4.03l-.14-.34,1.16-.39c2.68-1.95,6.02-3.8,9.98-5.49,3.29-1.41,6.8-2.54,10.43-3.37l1.68-.4c2.8-.68,5.68-1.38,8.53-1.15l-.17,2.04c-2.51-.21-5.24.46-7.88,1.1l-1.71.41c-.1.02-.19.06-.3.08l3.76,6.15-.59,7.81-6.34-1.62-5.01-8.84-.33-.8c-.42.17-.87.3-1.28.48-1.22.52-2.35,1.06-3.45,1.6l4.18,6.82-.59,7.81-6.34-1.62-4.74-8.36c-1.56,1.17-3.27,2.55-4.23,4.06.75,1.25,1.53,2.47,2.51,3.47.44,1.61.38,3.15.29,4.65-.1,1.47.19,2.98.73,4.36.82,2.09,1.69,4.17,2.59,6.95-.11-.34.27-.21.38,0,.96,1.9,1.74,3.97,1.63,6.09-.64,12.13-4.48,23.74-8.58,35.11l-1.01,9.6c-.12,1.12-.48,2.21-.87,3.27-1.31,3.64-2.32,7.46-1.82,11.45.04.33.48.96.84,1.11,4,1.62,8.31,1.78,12.56,1,1.28.31,2.71.08,3.85-.63,3.77-.76,7.36-2.08,11.53-3.68.22-.08.87-.88,1.8-1.43l2.02,4.01c1.26,2.92,1.42,6.16,2.51,9.1l.46,14.61c.03,2.4.46,4.79,1.55,6.81v1.43l1.06-.18,2.18-.41h6.79s1.22.01,1.22.01c2.92.06,5.57.33,8.1.83l4.32,1.27c.88-8.86,1.69-17.77,4.36-26.33,2.37-7.58,3.73-15.65,8.32-22.48.36-3.83,2.03-7.69,5.58-9.88-.27-2.84-.13-5.83.63-8.69.47-1.78,2.18-2.92,4.02-2.88,1.83.04,3.64.45,5.29,1.23,2.82,1.34,5.46,3.02,8.01,4.81,5.82,4.09,11.24,9.03,18.2,11.13,1.36.41,2.67,1.52,2.75,3.04.04.68,1.5,1.09,2.4,1.54,3.86,1.94,8.27,2.6,11.87,5.08.95.66,2.06,1.03,3.21,1.21,9.12-2.21,19-1.83,29.44,1.11.83-1.08,1.66-2.19,1.26-3.58h0Z"/>
      <path class="cls-2" d="m198.61,113.1l-.88-1.74-7.4-14.96c-1.77-3.75-3.82-7.41-5.81-10.94l-4.72-8.7c-1.82-3.61-3.89-6.79-6.31-9.75-1.22-1.48-2.79-2.88-4.31-4.22-1.34-1.18-2.68-2.4-3.86-3.71-.01,0-.03.02-.04.02-1.73-.24-3.45-.29-5.24-.18-.17.01-.89.39-1.13.42-2.34.25-4.67.55-6.96,1.06,3.29,2.8,6.04,6.45,8.7,10.02l4.41,5.63,1.47,1.69c4.56,5.21,8.86,10.12,12.25,16.15,5.65,10.06,10.6,20.69,15.39,30.98,0,0,3.13,6.71,3.13,6.71l.63,1.3c.61,1.23,1.22,2.49,1.63,3.76.66.15,1.34.17,2,.05.56-.1,1.09-.5,1.14-1.06.34-3.91.28-7.83-.13-11.94.26.19.54.34.83.47-.79-1.68-1.51-3.42-2.21-5.15l-2.57-5.88h0Z"/>
      <path class="cls-2" d="m194.59,47.56c.04-.06.23-.2.27-.29.21-.48.77-.62,1.3-.51.56.11,1.19.87.71,1.15-.99.6-1.87,1.65-3.25,2.16.24-1.02.54-1.8.96-2.51h0Zm47.35,35.16c.23-3.57.81-7.21,1.72-10.83l.4-1.68c.13-.56.27-1.12.41-1.69-.36.09-.74.17-1.08.3-1.55.61-2.16,1.41-2.64,3.03-.09.28-.72,3.66-.48,3.7-8.36-1.41-14.81-6.98-21.19-12.16-1.74-1.42-3.54-2.86-4.73-4.78-.87-1.4-2.33-2.22-4.08-2.87l-14.28,1.1c-1.5-.05-2.84-1.12-3.76-2.32-.31-.4-.29-1.19.1-1.2,1.61-.06,3.18-.61,4.69-1.24,1.1-.47,2.03-1.21,2.74-2.27.54-.82.79-2.3.32-3.43l-1.6-3.17,2.19-7.88c.63-2.8,1.22-5.6,2.25-8.72,3.54-1.64,5.96-5.19,9.03-7.89.51-.45,1-.92,1.49-1.4.26-.25.51-.52.75-.78.18-.19.35-.39.52-.59,1.36-1.53,2.53-3.19,3.24-5.03-1.32-2.86-3.23-5.01-5.22-6.58-4-.92-7.91-.87-11.69.08-1.5,1.82-4.09,2.42-6.06,1.09-2.24-1.5-4.11-3.43-6.17-5.21-.12-.11-.83-.25-1.06-.25-4.11-.06-8.23-.01-11.84.13-.82.03-1.75.83-2.05.99-3.17,1.65-5.99,3.86-8.44,6.51-3.36,3.64-7.48,6.93-8.79,11.78-2.32,2.26-4.13,4.78-5.63,7.9.01-.02-.17,1.25,0,1.58.22.4.7.71.97,1.34.94.02,1.8.43,2.44,1,.17.15.32.32.46.48.15.2.29.41.37.63,3.05,1.91,6.14,2.7,8.86,3.61.85.28,1.09,1.27,1.23,1.93.1.46.24,1.99.06,2.37-.94,1.97-1.62,4.05-2.63,5.98-.24.46-.86.54-1.38.02-4.01,2.31-8.23,4.42-11.87,7.36-.18.14-.14,1.23-.05,1.41.42.8,1.14,1.35,2.07,1.95,4.12-2.81,8.66-5.04,13.32-7.06.05,2.71.45,5.23,1.15,7.66,1.21,1.43,2.71,2.76,4.17,4.06,1.57,1.39,3.19,2.82,4.48,4.4,2.5,3.04,4.62,6.32,6.5,10.03l4.69,8.64c2,3.56,4.06,7.24,5.86,11.04l7.38,14.93.88,1.74,2.62,5.99c.81,2,1.65,4.02,2.6,5.91.12-.03.25-.04.37-.09.84-.36,1.93-.86,2.27-1.51,1.78-3.4,2.55-7.03,2.65-10.67.06-2.04.92-3.98,2.5-5.28-.02-4.02.51-7.99,1.56-11.83.15-.55.42-1.22.87-1.28,1.29-.17,2.6-.06,3.63.65,3.31,2.27,6.49,4.73,9.7,7.14,1.13.84,2.13,2.02,3.33,2.71,1.6.92,3.53.99,5.07,2.12,1.46,1.07.49,1.7,1.23,3.17,1.03,2.04,4.47,2.41,7.33,2.52-.76-3.96-1.77-10.11-3.19-16.61,0,0-.86-8.33-.57-12.62h0Z"/>
      <path class="cls-2" d="m411.63,21.88c-2.53,2.29-5.35,4.86-8.26,7.32l-15.89,11.39-24.45,13.29-15.65,6.42c-13.41,5.01-27.49,7.89-41.62,10.98-.73.16-2-.57-2.97-1.16-.65-.4-.77-1.44-.65-2.26.27-1.84,1.25-3.46,2.16-4.91.52-.82-.07-2.17-.53-3.09-.7-1.39-2.3-2.16-3.74-1.59-1.69.67-2.95,2.23-3.15,4.03-.26,2.37.29,6.76-1.04,8.8-1.2-.15-2.21-1.33-3.34-1.8-2.27-.95-4.27-.66-6.59-.39-1.71.2-3.27,1.08-4.7,2.46-1.23,1.18-1.32,3.67-2.94,4.78-1.64,1.12-4.1.5-5.88.11-.18-1.17.69-3.32-.19-4.22-.82-.84-2.67-.26-3.71-.46-3.14-.6-6.14-1.68-9.33-2.06-3.61-.44-8.42-1.66-12.5-1.36-.22.84-.43,1.68-.63,2.52,0,0-.41,1.71-.41,1.71-.03.1-.04.2-.06.3l7.18-.57,6.7,4.06-4.31,4.92-10.16.47-.86-.07c-.04.45-.13.91-.16,1.36-.09,1.32-.12,2.58-.13,3.8l7.97-.64,6.7,4.06-4.32,4.92-9.6.44c.29,1.79.62,3.66.97,5.47l7.62-.61,6.7,4.06-4.31,4.92-8.03.37c.1.35.31,1.32.53,2.39.16,0,.35,0,.49.02,5.42.33,11.48-1.13,16.67-2.55.73.1,2.02,0,3.24-.39.62-.2,1.24-.53,1.48-1.2.3-.87.72-1.84.79-2.82.18-2.55.47-5.2.38-7.76-.06-1.51-.8-4.09.49-5.25,1.4-1.26,4.99-1.05,6.66-.84,1.36.18,2.73.27,3.92.88,2.79,1.43,4.75,2.02,7.83.69,1.41-.61,4.76-2.7,6-1.28.53.61-.07,1.9.64,2.69.64.71,1.88.89,2.77.94,2.16.12,4.25-.71,4.67-3,.43-2.39-3.34-4.13-1.74-6.08.3-.37.86-.69,1.4-.75l4.19-.29c.52-.03.84-1.05,1.23-1.17,9.06-2.76,18.22-4.97,26.89-8.64,8.35-3.53,15.97-8.67,24.67-11.36,8.98-3.68,16.35-10.17,24.91-14.62,9.79-6.16,18.06-14.28,26.01-22.57l2.69-3.73c-.52-.96-1.86-1.88-2.72-1.1h0Z"/>
      <path class="cls-4" d="m250.96,75.98c.55-1.09,1.89-1.52,2.97-.97,1.09.55,1.52,1.88.97,2.97-.56,1.09-1.89,1.53-2.97.97-1.09-.56-1.53-1.88-.97-2.98h0Zm-.94,13.9c.56-1.09,1.89-1.52,2.97-.97,1.09.55,1.52,1.88.97,2.97-.55,1.09-1.89,1.52-2.97.97-1.09-.55-1.53-1.88-.97-2.97h0Zm1.37,14.28c.55-1.09,1.88-1.52,2.97-.97,1.09.55,1.52,1.88.97,2.97-.55,1.09-1.88,1.52-2.97.97-1.09-.55-1.52-1.89-.97-2.98h0Zm4.19,5.1l4.31-4.92-6.7-4.06-7.62.61c-.35-1.81-.68-3.68-.97-5.47l9.6-.44,4.32-4.92-6.7-4.06-7.97.64c0-1.22.04-2.48.13-3.8.03-.45.11-.91.16-1.36l.86.07,10.16-.47,4.31-4.92-6.7-4.06-7.18.57c.02-.1.03-.2.06-.3,0,0,.41-1.71.41-1.71.2-.84.41-1.68.63-2.52-.77.06-1.5.19-2.2.37-.14.56-.28,1.13-.41,1.69l-.4,1.68c-.91,3.62-1.49,7.26-1.72,10.83-.28,4.29.57,12.62.57,12.62,1.42,6.51,2.43,12.66,3.19,16.61.89.03,1.69.05,2.36.08-.22-1.08-.42-2.04-.53-2.39l8.03-.37h0Z"/>
      <path class="cls-2" d="m252.35,107.14c1.09.55,2.42.12,2.97-.97.55-1.09.12-2.42-.97-2.97-1.09-.55-2.42-.12-2.97.97-.56,1.09-.12,2.42.97,2.98h0Z"/>
      <path class="cls-2" d="m251.93,78.96c1.09.55,2.42.12,2.97-.97.55-1.09.12-2.42-.97-2.97-1.09-.55-2.42-.12-2.97.97-.55,1.09-.12,2.42.97,2.98h0Z"/>
      <path class="cls-2" d="m250.99,92.86c1.09.55,2.42.12,2.97-.97.55-1.09.12-2.42-.97-2.97-1.09-.55-2.42-.12-2.97.97-.55,1.09-.12,2.42.97,2.97h0Z"/>
      <path class="cls-4" d="m159.85,23.69l1.68-2.33,6.04-7.93,1.38-1.67c2.63-3.21,5.61-6.86,9.46-7.9,3.67-.99,8.65-.69,11.64,3.12,2.13,2.72,4.18,3.05,7.43,2.72,1.47-.15,2.79-.6,4.06-1.04,1.45-.5,2.82-.97,4.39-1.02,4.65-.14,8.37,2.02,10.6,5.96.33-.5.61-1.02.88-1.55-2.54-3.95-6.56-6.09-11.52-5.95-1.8.05-3.35.59-4.84,1.1-1.25.43-2.42.83-3.72.97-2.87.29-4.35.06-6.08-2.14-2.88-3.68-7.96-5.08-13.24-3.65-4.32,1.17-7.47,5.01-10.25,8.41l-1.37,1.65-6.12,8.03-1.68,2.32-1.75,2.24c-1.4,1.74-2.81,3.54-3.75,5.42.51.17.95.46,1.32.79.85-1.78,2.24-3.55,3.62-5.26l1.79-2.29h0Z"/>
      <path class="cls-4" d="m197.29,131.55s-3.13-6.71-3.13-6.71c-4.79-10.29-9.73-20.92-15.39-30.98-3.39-6.03-7.69-10.94-12.25-16.15l-1.47-1.69-4.41-5.63c-2.66-3.58-5.4-7.22-8.7-10.02-.38.08-.77.16-1.14.26-.25.06-.5.12-.76.17,3.58,2.76,6.52,6.68,9.37,10.51l4.48,5.72,1.48,1.69c4.5,5.14,8.76,10,12.07,15.89,5.62,10,10.56,20.62,15.33,30.88l3.13,6.71.65,1.33c.41.82.82,1.67,1.16,2.49,0-.06,0-.12,0-.18.59.38,1.2.63,1.83.77-.4-1.27-1.02-2.53-1.63-3.76l-.63-1.3h0Z"/>
      <path class="cls-4" d="m199.98,112.41l-.88-1.74-7.38-14.93c-1.79-3.8-3.86-7.48-5.86-11.04l-4.68-8.64c-1.87-3.71-4-6.99-6.5-10.03-1.29-1.57-2.91-3.01-4.48-4.4-1.46-1.3-2.96-2.63-4.17-4.06.06.2.1.41.17.61-.28.3-.62.86-.88.88,1.18,1.31,2.53,2.53,3.86,3.71,1.52,1.35,3.09,2.74,4.31,4.22,2.42,2.95,4.49,6.14,6.31,9.75l4.72,8.7c1.99,3.53,4.04,7.19,5.81,10.94l7.4,14.96.88,1.74,2.57,5.88c.7,1.72,1.41,3.47,2.21,5.15.6.26,1.22.34,1.81.19-.94-1.89-1.78-3.91-2.6-5.91l-2.62-5.99h0Z"/>
      <path class="cls-4" d="m108.36,147.28c1.22,0,2.21.99,2.21,2.21s-.99,2.21-2.21,2.21-2.21-.99-2.21-2.21.99-2.21,2.21-2.21h0Zm12.82-5.45c1.22,0,2.21.99,2.21,2.21s-.99,2.21-2.21,2.21-2.21-.99-2.21-2.21.99-2.21,2.21-2.21h0Zm-20.21,3.13l4.74,8.36,6.34,1.62.59-7.81-4.18-6.82c1.09-.55,2.23-1.08,3.45-1.6.41-.18.86-.31,1.28-.48l.33.8,5.01,8.84,6.34,1.62.59-7.81-3.76-6.15c.1-.02.19-.06.3-.08l1.71-.41c2.64-.64,5.37-1.31,7.88-1.1l.17-2.04c-2.84-.23-5.73.47-8.53,1.15l-1.68.4c-3.64.83-7.15,1.96-10.43,3.37-3.96,1.69-11,6.23-11,6.23-1.53,1.14-3.25,2.47-4.49,4.03,0,.02,0,.03,0,.05.37.62.74,1.26,1.11,1.88.96-1.51,2.67-2.89,4.23-4.06h0Z"/>
      <path class="cls-2" d="m121.18,146.25c1.22,0,2.21-.99,2.21-2.21s-.99-2.21-2.21-2.21-2.21.99-2.21,2.21.99,2.21,2.21,2.21h0Z"/>
      <path class="cls-2" d="m108.36,151.71c1.22,0,2.21-.99,2.21-2.21s-.99-2.21-2.21-2.21-2.21.99-2.21,2.21.99,2.21,2.21,2.21h0Z"/>
      <path class="cls-4" d="m143.33,191.79l7.75,6.42c1.22-1.38,2.21-2.64,2.48-3.38l-9.89-8.33-9.46.69.43,8.94s6.51,7.55,10.15,8.5c0,0,1.31-1.24,2.91-2.86l-7.69-6.68,3.3-3.3h0Z"/>
      <path class="cls-4" d="m157.36,172.66l7.75,6.42c1.22-1.38,2.21-2.64,2.48-3.38l-9.89-8.33-9.46.69.43,8.94s6.51,7.55,10.15,8.5c0,0,1.31-1.24,2.91-2.86l-7.69-6.68,3.3-3.3h0Z"/>
      <path class="cls-4" d="m168.81,154.2l7.19,5.96c1.13-1.27,2.05-2.45,2.3-3.14l-9.18-7.73-8.78.64.4,8.29s6.04,7,9.42,7.89c0,0,1.22-1.15,2.71-2.65l-7.13-6.2,3.06-3.06h0Z"/>
      <path class="cls-4" d="m140.96,265.74s-1.22-.03-1.22-.03h-6.79s-2.18.42-2.18.42l-1.06.18v1.53l1.44-.24,1.88-.36h6.67s1.22.01,1.22.01c2.83.05,5.39.32,7.83.8l4.43,1.29c.05-.25.09-.51.12-.76.02-.26.05-.51.07-.77l-4.32-1.27c-2.53-.5-5.18-.77-8.1-.83h0Z"/>
      <path class="cls-4" d="m130.93,329.08c-.04.35-.06.71-.11,1.06-.22.09-.42.21-.63.31,4.56,1.62,11.26,2.79,16.09,1.15-.15-.49-.29-.99-.41-1.48-4.36,1.52-10.7.43-14.95-1.04h0Z"/>
      <path class="cls-4" d="m142.82,355.45c0,.24.03.65.03,1.06,0,.55-.03,1.1-.12,1.31-.63.7-2.84.95-5.8.65l-.37-.03c-2.26-.22-5.68-.56-6.67-2.62-.98-2.04-1.5-7.05-.05-9.93.52-1.03,1.25-1.64,2.15-1.81,2.17-.41,6.7-.02,9.19,1.77.9.65,1.42,1.4,1.54,2.24.15,1.03.2,2.1.2,3.17,0,1.09-.05,2.19-.1,3.28,0,0,0,.93,0,.93h0Zm1.52-.79c.11-2.28.22-4.57-.11-6.81-.18-1.27-.91-2.37-2.16-3.27-2.87-2.05-7.86-2.5-10.36-2.02-1.38.26-2.49,1.17-3.23,2.63-1.72,3.39-1.13,8.86.03,11.28,1.37,2.83,5.29,3.22,7.9,3.48l.36.04c2.57.26,5.88.27,7.13-1.18.51-.59.51-1.79.45-3.42v-.73h-.01Z"/>
      <path class="cls-4" d="m219.25,282.93c-1.96.45-3.82.87-5.63.96-7.14.34-12.68-.89-16.5-3.66-.01.06,0,.12-.02.18-.65.1-1.48,0-2.15,0,4.14,3.71,10.43,5.4,18.75,5,1.95-.09,3.95-.55,5.9-1,2.54-.58,5.14-1.17,7.59-.92.13-.5.18-1.01.17-1.52-2.69-.28-5.43.34-8.11.95h0Z"/>
      <path class="cls-4" d="m219.72,296.58c.74,1.04,1.64,2.29,2.86,2.96,1.63.88,2.23.74,3.42.13l1.01-.48c2.38-.98,4.57-1.16,7.26-1.05-.69-.47-1.36-.99-2.01-1.54-2.01.07-3.87.36-5.84,1.18l-1.12.53c-.83.43-.92.47-1.99-.11-.91-.5-1.66-1.55-2.33-2.48-2.16-3.03-2.74-5.04-1.78-6.16.83-.97,3.54-1.69,5.69-1.97.44-.52.86-1.07,1.21-1.64-2.33.11-6.62.93-8.07,2.62-2.21,2.57.61,6.53,1.67,8.02h0Z"/>
      <path class="cls-4" d="m256.51,228.03l.96-1.32h0c-10.44-2.94-20.32-3.31-29.44-1.11h0l1.94,1.11h0c8.26-1.7,17.16-1.25,26.55,1.31h0Z"/>
    </g>
  </g>
</svg>