<?xml version="1.0" encoding="UTF-8"?>
<svg id="Layer_2" data-name="Layer 2" xmlns="http://www.w3.org/2000/svg" viewBox="0 0 198.57 136.51">
  <defs>
    <style>
      .cls-1 {
        fill: #e31018;
        stroke-width: 0px;
      }
    </style>
  </defs>
  <g id="Layer_1-2" data-name="Layer 1">
    <path class="cls-1" d="m189.67,35.21c3.49,0,6.65,1.44,8.9,3.77V12.41c0-6.85-5.56-12.41-12.41-12.41H12.41C5.56,0,0,5.56,0,12.41v111.69c0,6.86,5.56,12.41,12.41,12.41h173.75c6.85,0,12.41-5.55,12.41-12.41V56.18c-2.25,2.34-5.41,3.78-8.9,3.78-6.84,0-12.37-5.54-12.37-12.38s5.53-12.37,12.37-12.37Zm-33.66,40.17c-.16.36-.53.66-.79.75-.17.05-.35-.11-.58-.4l-1.3,1.01c.24.29.45.54.36.76-.12.25-.87.81-1.1.85-.16.03-.33-.12-.6-.39,0,0-7.57,5.66-8.88,6.52.42.64.34.8-.22,1.16-.58.38-.93.16-1.32-.24l-.61.39c.2.49.22.77-.39,1.1-.77.39-1,.16-1.41-.27-.73.33-.95.51-1.23.35,0,0-3.48-.8-5.09-5.14-12.92-.09-28.39-1.72-30.51-3.5-1.01-1.14-2.47-1.73-4.03-1.62-8.3.57-20.76-1.4-27.38-2.11-.33,1.11-.29,1.1-.29,1.1l-2.58-.14-.1,9.73-1.27.41c.27,4.64.57,7.89.78,10.79.27,3.56.41,6.6.25,11.11-.08,2.38-8.17,9.36-10.87,9.18-5.47.48-24.16,1.75-30.99,2.39-2.6,1.86-6.14,4.17-10.74,7.68-.86.66-2.33.33-2.72-1.33,0-.58.01-1.11.04-1.6-.68-.07-.83-.24-.68-1.36.1-.74.78-.59.9-.58.11-.68.28-1.4.51-2.24-.46-.25-.77-.38-.46-1.18.43-1.11.74-.92,1.17-.74,1.35-2.83,3.58-4.5,4.92-7.24-.43-.18-.95-.22-.43-1.21.46-.88.73-.51,1.07-.42.17-.36.5-.93.68-1.21-.41-.28-.6-.4-.21-.98.6-.89.97-.41,1.25-.23,1.05-.88,2.95-1.16,3.84-.75,1.64.75,4.28,3.18,4.28,3.18,4.79-1.61,18.22-7.6,22.38-5.47-.96-2.82-1.77-5.17-2.41-7-1.01-2.91-1.56-4.5-1.56-4.5l-1.37-.23c-2.8-7.13-8.1-24.1-5.8-28.24-2.95-.95-3.39-10.16,2.24-31.08,3.36-1.16,6.74-2.77,6.74-2.77-4.34.68-13.46,2.52-13.46,2.52-4.45,4.5-10.63,10.14-11.45,10.51-.52,1.75-.76,4.17-1.22,4.72-.79,1.16-2.05,1.92-3.22,2.81-3.66,2.79-6.47,1.12-6.74-.1.08-.89,2.69-2.46,3.41-4.68-1.34,1.01-2.52,1.76-3.84,1.85-.72.05-1.18-1.34.08-1.77,1.83-1.17,2.63-1.41,3.51-3.25.84-1.76,2.02-3.05,3.81-3.41,0,0,4.94-8.77,9.25-15.02.88-1.27,3.12-1.34,3.12-1.34,0,0,0-.85-.16-1.8,2.05-.94,20.37-4.97,26.18-2.89,3.2,1.15,4.35,2.01,7.36,3.74,2.68-6.78,7.59-8.21,10.52-8.17,2.5.04,4.08.58,6.03,2.13,2.47,1.96,3.14,4.08,3.7,7.18.38,2.06.82,3.42-.08,5.36-.54,1.16-1.85.84-3.11,1.86-1.99,1.48-2.67,3.92-4.01,4.76-.61.37-.76-.25-1.82.18-2.02.82-3.68,1.98-5.28,1.81-.86-.09-1.34-.32-2.08-.77,0,3-1.23,12.92-2.08,16.2,4.55-.03,10.14.98,10.14.98.1.42-.03.98.31,1.07,1.17.33,14.03,3.12,20.83,6.76,1.72-.05,3.14.11,4.76.72,1.49.55,26.71,9.99,33.35,12.19,3.54.17,12.84-1.22,16.09-1.47,1.31-.09,2.8-.26,3.13,1.24l-.86,1.05c.2.27.43.56.34.74Z"/>
  </g>
</svg>