<?xml version="1.0" encoding="UTF-8"?>
<svg id="Livello_2" data-name="Livello 2" xmlns="http://www.w3.org/2000/svg" viewBox="0 0 478.69 620.25">
  <defs>
    <style>
      .cls-1 {
        fill: #4aa65f;
      }

      .cls-1, .cls-2, .cls-3, .cls-4, .cls-5, .cls-6, .cls-7 {
        stroke-width: 0px;
      }

      .cls-2 {
        fill: #20201f;
      }

      .cls-3 {
        fill: #fff;
      }

      .cls-4 {
        fill: #00913e;
      }

      .cls-5 {
        fill: #eac84d;
      }

      .cls-6 {
        fill: #c62a19;
      }

      .cls-7 {
        fill: #20201e;
      }
    </style>
  </defs>
  <g id="Livello_1-2" data-name="Livello 1">
    <g>
      <path class="cls-7" d="m128.04,33.89c3-3.04,4.89-5.91,8.86-3.2,5.81,3.97,7.16,6.24,5.81,11.47-.77,3.01-1.31,6.14-5.41,6.25-.3,0-.6.21-.89.33,1.16,2.49,1.74,5.04,1.84,7.84.03.9,2.06,1.78,3.64,1.8,5.02.08,9.15-1.63,12.31-5.66,1.17-1.5,1.14-2.69-.2-3.86-3.47-3.04-2.47-6.67-.75-9.81,1.88-3.43,5.85-3.37,8.83-2.4,3.43,1.12,5.07,4.6,4.66,8.21-.41,3.6,2.61,2.86,4.14,3.83,2.36,1.49,4.57.92,6.57-1.17,1.43-1.5,2.47-3.43,1.1-4.75-2.23-2.15-1.1-4.7-1.85-7.32-4.49,4.03-7.74,1.17-10.65-2.02-3.7-4.05-3.29-6.35.54-13.22,2.18-3.9,4.76-.61,7.38-1.02-2.4-2.68-5.59-5.65-3.64-9.01,2.05-3.54,6.24-4.73,10.54-4.74,8.82-.01,9.63.97,7.21,10.15,3.16-1.56,5.58-3.23,8.99.11,5.1,5.02,6.21,10.48,1.41,15.65-.23.24-.48.73-.66.71-7.4-1.03-3.34,4.97-4.14,7.48-.93,2.95,8.21,6.26,11.49,4.02,2.96-2.02,6.02-3.85,3.17-8.66-1.87-3.14.49-6.32,3.21-8.48,2.29-1.82,5.17-1.61,7.36-.31,3.12,1.84,4.95,4.73,3.88,8.76-.92,3.44,2.27,7.84,5.62,7.44,2.54-.3,5.46-1.58,3.77-4.93-1.36-2.71-1.09-5.4-1.36-8.67-5.8,2.92-7.59-1.54-9.9-5.19-3.23-5.08,1.06-8.18,3.25-11.65,1.8-2.84,4.63-1.16,7.66-.38-1.71-3.4-3.41-6.93-.99-9.87,1.94-2.34,14.27-1.93,16.63.11,3.59,3.11.05,6.19-.12,9.26,5.6-.98,8.82.87,11.07,6.47,1.24,3.07-1.2,9.24-4.62,11.49-.5.33-1.25.52-1.84.44-3.1-.44-4.72.51-4.08,3.93.2,1.04-.09,2.02-1.02,2.6-1.66,1.04-1.94,2.48-.88,3.92,1.18,1.62,3.27,3.2,4.94,2.38,2.64-1.29,6.68-1.88,5.14-7.02-.89-2.97-.79-6.7,2.7-8.74,3.12-1.81,6.42-1.64,9.13.59,2.85,2.35,3.66,5.72,1.89,9.06-1.25,2.36-.62,4.35,1,5.52,2.43,1.76,5.24,3.8,8.51,2.52,3.09-1.21,6.74-2.45,5.53-7.11-.41-1.6,1.08-2.67.89-4.53-7.14,1.35-6.95-4.83-8.63-8.77-1.66-3.87,1.94-5.76,4.15-8.12,2.97-3.17,5.92-2.63,9.01.08.12-3.68-2.16-7.43,1.15-9.95,2.63-2,13.39.24,16.21,3.06,3.55,3.55-.51,6.14-1.51,9.46,6.35-1.02,7.01,4.09,8.71,8.06,2.4,5.6-3.1,7.06-5.55,9.96-2.15,2.54-4.75,1.13-7.16-.73-.68,2.65.45,5.58-2.36,7.65-1.61,1.19.48,2.67,1.3,3.85,1.63,2.35,4.06,3.2,6.47,1.92,2.07-1.1,5.66-1.04,4.52-5.62-.73-2.91,1.87-5.79,4.65-6.74,2.71-.93,6.15-.84,8.3,1.58,2.14,2.41,2.97,5.59.89,8.52-2.16,3.05-2.56,5.77.39,8.41,3.11,2.79,10.3,3.82,13.22,2.36,1.19-.59,1.66-1.32,1.23-2.16-.94-1.84-.3-3.73.61-4.82,1.66-1.99.98-1.74-.94-2.33-5.12-1.58-6.44-11.2-2.21-14.72,6.01-4.99,6.76-5.02,12.61-.11,0-1.45,0-2.5,0-3.56.01-6.6,1.72-7.89,7.99-5.88,2.11.68,4.24,1.46,6.16,2.54,4.7,2.66,5.13,5.81,1.39,9.82-1.89,2.03-2.86,3.9-1.47,6.77,2.06,4.24-.29,9.04-4.84,10.23-1.15.3-2.37.13-2.44,1.66-.27,6.15-5.89,6.95-9.56,9.76-3.85,2.96-8.12,4.56-12.97,4.83,1.05,2.18,1.25,4.1-.75,5.84-1.81,1.57-4.55,2.62-1.69,6.04,1.36,1.63-1.66,2.21-2.92,2.82-2.38,1.15-5.58,6.53-4.63,8.44.2.4,1.14.4,1.72.63,22,8.7,42.15,20.51,60.76,35.14,31.53,24.8,55.11,55.67,71.21,92.26,7.58,17.23,12.85,35.17,16.03,53.82,2.86,16.74,4.55,33.54,3.72,50.42-1.38,28.07-7,55.27-17.7,81.44-8.78,21.46-20.4,41.21-34.75,59.26-13.69,17.22-29.67,32.21-47.72,44.96-20.35,14.38-42.22,25.64-66.01,33.08-12.92,4.04-25.92,8.14-39.52,8.71-8.62.36-9.37,6.88-11.49,12.36-6.57,17.01-12.94,34.1-19.18,51.23-.72,1.97-1.22,4.16-3.28,4.23-1.44.05-1.85-2.37-2.38-3.76-5.58-14.65-11.05-29.34-16.51-44.04-2.06-5.55-3.95-11.16-6.06-16.69-1.47-3.83-5.41-2.66-8.03-3-20.55-2.69-40.28-8.24-59.32-16.28-18.14-7.66-35.33-17.18-50.94-29.13-17.99-13.77-34.16-29.44-47.61-47.91-9.62-13.21-18.33-26.88-25.24-41.64-8.68-18.51-14.86-37.85-18.61-58-3.48-18.68-4.87-37.52-3.76-56.4,1.04-17.76,3.67-35.38,8.73-52.57,4.63-15.74,10.36-30.99,18.06-45.47,7.82-14.7,16.81-28.62,27.6-41.37,6.06-7.16,12-14.44,18.92-20.78,14.38-13.16,29.64-25.17,46.72-34.74,9.8-5.49,19.74-10.68,30.35-14.47,2.1-.75,2.28-2.21,2.33-4.17.07-2.59-.53-4.63-3.12-5.48-2.75-.91-6.16-1.29-2.39-5.14.12-.12.33-.34.3-.37-2.26-3.18-4.04-8.38-6.93-9.1-6.59-1.65-12.36-5.04-16.56-9.29-3.52-3.56-6.82-7.52-10.56-11.07-1.82-1.73-1.19-4.63.21-6.82,1.18-1.85.77-3-.75-4.55-5.52-5.65-3.79-11.27,4.02-13.57.62-.18,1.36.06,1.99-.09,8.11-2.04,8.67-1.62,8.74,6.65,0,.63,0,1.27,0,2.89Z"/>
      <path class="cls-3" d="m240.9,606.99v-11.71c0-35.43.04-70.87-.06-106.3,0-3.37.81-4.97,4.44-5.34,16.68-1.7,28.54-10.58,35.61-25.51,8.44-17.83,4.69-39.69-9.23-52.94-7.42-7.06-16.17-11.63-26.62-12.34-2.84-.2-4.2-1.3-4.2-4.53.09-56.89.09-113.79,0-170.68,0-2.79.71-3.58,3.55-3.58,47.92.09,95.84.06,144.35.06-49.1,131.2-98.1,262.11-147.09,393.02-.25-.05-.5-.1-.74-.15Z"/>
      <path class="cls-3" d="m51.93,195.14c84.88-132.88,282.44-140.31,375.11,0-4.15,0-7.88.27-11.56-.08-3.6-.34-5.42,1.39-5.66,4.49-.18,2.31-1,2.64-2.98,2.61-7.99-.09-15.97-.09-23.96,0-2.1.02-3.39-.07-3.24-2.82.17-3.05-1.83-4.25-4.8-4.22-6.49.07-12.98.1-19.47-.01-3.03-.05-4.98,1.87-5.44,4.11-1.1,5.39-3.28,3.09-5.41,1.11-10.74-9.98-22.66-18.34-35.84-24.62-15.72-7.49-32.16-12.72-49.67-14.67-11.77-1.32-23.55-1.31-35.19-.58-15.6.97-30.66,5.32-45.16,11.41-16.71,7.01-31.81,16.38-44.87,29.01-2.68,2.59-5.08,1.68-5.74-1.95-.44-2.47-1.79-3.78-4.32-3.78-6.82,0-13.64-.05-20.47.02-2.74.03-4.39,1.54-4.15,4.36.2,2.39-.91,2.66-2.89,2.64-8.15-.09-16.31-.07-24.46,0-1.7.01-2.54-.21-2.85-2.27-.56-3.79-3.14-5.14-6.95-4.8-3.13.28-6.31.06-10.05.06Z"/>
      <path class="cls-3" d="m271.77,537.01c9.3-24.61,18.65-49.09,27.67-73.69.94-2.56,2.3-3.61,4.36-4.58,15.47-7.32,29.44-16.67,42.07-28.37,20.43-18.9,34.4-41.63,42.84-67.95,3.27-10.18,4.99-20.64,6.12-31.3,3.03-28.5-1.87-55.53-13.9-81.39-1.85-3.97,1.42-6.81,2.16-10.17.84-3.85,3.62-7.29,4.34-11.14.9-4.77,3.18-5.95,7.54-5.39,2.62.34,5.32,0,7.98.08,3.1.08,6.76-1.32,7.49,3.99.22,1.57,2.43,3.33,5.11,3.05,2.97-.3,5.98-.06,8.98-.07,4.94-.02,7.04-2.06,7.11-7.13.08-6.43.02-12.87.02-19.7,77.11,125.78,6.63,307.23-159.89,333.75Z"/>
      <path class="cls-3" d="m47.14,202.2c0,8.17.03,14.82-.01,21.48-.03,4.24,1.94,6.43,6.24,6.41,3.16,0,6.33.14,9.48-.05,2.28-.14,4.65-.62,5.32-3.38.8-3.3,2.97-4.01,6.02-3.6,1.63.22,3.32.04,4.99.04,10.63,0,10.75-.04,13.76,9.7.58,1.88,1.2,3.75,2.19,5.32,5.6,8.94.04,16.46-2.85,24.34-4.23,11.55-6.71,23.46-8.32,35.65-.96,7.28-.86,14.49-.81,21.73.13,20.64,4.76,40.33,12.94,59.24,8.15,18.84,19.72,35.36,34.43,49.54,12.64,12.19,26.99,22.14,43.11,29.31,3.28,1.46,5.16,3.79,6.38,7.14,8.36,22.83,16.84,45.61,25.31,68.4.44,1.18,1.13,2.26,2.36,4.65-92.53-18.62-154.44-70.87-183.11-159.98-13.49-41.94-12.02-84.87.7-127.12,5.03-16.73,12.1-32.66,21.87-48.82Z"/>
      <path class="cls-5" d="m267.71,549.4c.17-8.6,6.07-8.93,12.65-10.01,15.67-2.57,30.88-7.17,45.54-13.36,24.66-10.41,46.93-24.44,66.76-42.6,19.01-17.41,34.37-37.43,46.76-59.93,11.04-20.03,18.33-41.43,22.97-63.67,1.95-9.38,3.01-19.02,3.48-28.73.32-6.75.95-13.52.7-20.26-1.05-27.85-6.13-54.88-16.91-80.72-7.66-18.37-17.18-35.73-29.29-51.49-10.21-13.27-21.85-25.26-34.69-36.15-14.88-12.62-31.06-23.02-48.57-31.51-18.49-8.96-37.95-14.81-58.08-18.7-18.63-3.6-37.51-3.81-56.25-2.76-24.28,1.36-47.72,7.31-70.28,16.59-19.67,8.09-37.91,18.7-54.48,31.88-23.29,18.53-42.17,40.93-56.89,66.91-12.85,22.68-21.12,46.94-25.77,72.4-3.05,16.72-4.19,33.76-3.04,50.73,1.81,26.72,7.26,52.7,18.07,77.39,9.87,22.53,22.9,42.92,39.21,61.43,22.34,25.36,49.22,44.18,79.91,57.84,15.89,7.07,32.51,11.87,49.64,14.83,2.23.39,4.37,1.14,6.74,1.21,4.6.12,4.71,4.79,4.69,7.32-.02,2.87-3.44,1.41-5.5,1.11-16.57-2.42-32.68-6.67-48.35-12.54-22.83-8.56-43.63-20.65-62.9-35.59-11.45-8.87-21.55-19.13-31.31-29.66-11.63-12.55-21.09-26.79-29.44-41.78-11.28-20.26-19.19-41.71-24.14-64.31-2.52-11.5-4.32-23.08-4.75-34.87-.19-5.09-1.07-10.19-.9-15.26.99-30.65,6.13-60.49,18.29-88.86,9.73-22.7,22.05-43.79,38.38-62.5,19.26-22.06,41.28-40.47,67.04-54.64,21.53-11.85,44.33-19.87,68.24-24.66,17.76-3.56,35.87-5.22,54.01-4.09,27.57,1.72,54.37,7.09,79.99,17.89,17.73,7.48,34.46,16.73,49.82,28.18,13.72,10.23,26.19,21.93,37.58,34.89,14.86,16.92,26.9,35.55,36.5,55.78,8.92,18.81,14.74,38.64,18.57,59.11,3.52,18.82,3.84,37.85,2.71,56.74-1.51,25.39-7.65,49.92-17.63,73.47-9.73,22.96-22.66,43.81-38.93,62.71-18.26,21.2-39.46,38.68-63.81,52.48-23.67,13.42-49.06,21.82-75.66,26.78-3.44.64-7.02,2.09-10.63.97Z"/>
      <path class="cls-1" d="m372.19,268.87c25.83,75.82-15.38,143.76-63.17,168.8,21.05-56.24,41.96-112.15,63.17-168.8Z"/>
      <path class="cls-1" d="m106.56,269.22c21.01,56.15,41.88,111.91,62.95,168.22-46.9-23.97-89.61-93.78-62.95-168.22Z"/>
      <path class="cls-1" d="m320.04,202.13c-16.28,0-32.57-.04-48.85.05-2.13.01-3.12-.45-3.72-2.7-.85-3.19-3.16-4.46-6.71-4.41-14.29.19-28.59.12-42.89.05-3.7-.02-6.65.76-6.91,5.08-.18,2.91-2.28,1.89-3.66,1.89-16.46.07-32.91.04-49.45.04,13.89-12.82,48.54-27.24,81.13-27.05,30.01.17,56.86,9.29,81.41,25.84-.12.41-.24.81-.36,1.22Z"/>
      <path class="cls-5" d="m378.27,253.41c35.31,73.9,1.66,166.2-75.24,201.31.99-6.99,4.66-11.46,10.55-15.01,34.61-20.84,56.41-51.17,66.19-90.3,3.5-13.99,4.8-28.21,3.8-42.48-.81-11.62-2.09-23.4-6.71-34.27-2.9-6.81-2.47-12.92,1.41-19.26Z"/>
      <path class="cls-5" d="m176.06,454.78c-82.24-37.4-109.21-134.04-75.93-200.86,6.57,7.08,2.71,14.68.39,22.16-5.24,16.86-6.62,34.23-5.26,51.59,2.3,29.51,13.01,56.06,31.48,79.26,11.43,14.36,25.36,25.99,41.49,34.76,5.46,2.97,5.27,8.26,7.84,13.1Z"/>
      <path class="cls-5" d="m137.78,202.2c50.14-45.61,137.45-57.78,202.67-.19-6.81.21-12.77.47-18.65-4.14-17.33-13.57-37.59-21.32-59.1-24.41-26.57-3.82-52.94-1.78-78.09,8.79-10.95,4.6-21.56,9.85-30.77,17.53-4.6,3.83-10.03,1.92-16.06,2.43Z"/>
      <path class="cls-5" d="m224.99,478.3c4.71-4.47,4.03-10.21,3.89-15.78-.06-2.42.1-3.63,3.26-3.95,6.3-.62,10.7-9.03,8.17-15.74-1.37-3.64-1.47-6.72,1.33-9.13,3.57-3.06,7.87-5.21,12.75-3.86,5.32,1.48,4.75,6.87,5.26,10.57,1.91,13.82-2.2,25.96-11.42,36.62-4.79,5.55-10.5,3.45-16.02,3.27-2.32-.08-4.6-1.25-7.22-2.01Z"/>
      <path class="cls-5" d="m275.69,417c-8-1.18-13.8,1.24-17.52,7.97-.9,1.63-2.3.98-3.77.89-7.72-.43-14.2,1.97-18.08,9.12-.77,1.42-1.55,2.17-2.97,1.74-4.41-1.33-8.46-3.16-10.74-7.63-1.5-2.95-1.16-5.09,1.09-7.72,9.26-10.84,21.65-15.16,35.05-17.53,7.85-1.39,10.42,5.69,14.94,9.58.78.67,1.08,1.9,1.99,3.57Z"/>
      <path class="cls-5" d="m335.53,65.39c-7.05-.51-13.51-2.43-17.16-9.11-1.55-2.84-2.84-3.37-5.74-1.95-9.19,4.5-15.53,2.28-19.32-6.03-1.19-2.61-2.01-3.5-4.9-1.29-9.87,7.52-17.84,5.08-24.28-1.94-1.74-1.9-3.02-1.04-4.47.03-7.78,5.73-10.6,5.84-18.22.26-1.72-1.26-2.72-1.02-4.29.19-6.63,5.1-10.2,5.16-17.15.41-2.7-1.85-4.34-2.51-7.24.72-4.94,5.49-12.78,7.48-22.06.78-2.99-2.16-4.25-1.73-5.59,1.37-4.15,9.61-12.62,8.92-19.15,5.75-2.83-1.37-3.61-1.24-5.29,1.32-6.65,10.1-19.63,11.61-25.57,7.52-.96-.66-2.5-1.19-1.8-2.4.64-1.12,1.85-1.32,3.6-.5,7.58,3.55,17.25,0,21.09-7.21,1.78-3.35,4.37-4.63,8-2.45,7.34,4.42,12.16,3.14,16.3-4.25,1.82-3.25,7.78-4.39,10.46-1.88,5.5,5.15,15.48,3.95,19.18-2.15,1.79-2.95,5.41-3.04,7.99-.69,5.28,4.81,13.63,5.23,16.59-1.51,1.25-2.85,4.04-2.76,5.71-.17,4.4,6.84,11.08,7.1,16.75,1,2.01-2.17,4.98-1.54,6.87.42,7.2,7.45,12.55,8.11,21.04,2.22,2.22-1.54,8.31.29,9.75,2.93,3.78,6.93,8.78,8.59,15.46,4.37,4.22-2.67,7.15-1.29,8.56,2.35,3.02,7.78,13.45,9.13,20.29,7.11,1.73-.51,3.75-1.52,4.57.54.69,1.74-1.73,1.98-2.85,2.78-2.14,1.51-4.6,1.62-7.15,1.48Z"/>
      <path class="cls-5" d="m252.13,478.46c7.52-9.72,12.25-20.36,11.66-32.74-.2-4.17-.53-8.72-2.34-12.32-2.22-4.42-.36-7.27,2.22-9.66,3.23-2.99,7.28-4.98,12.05-3.58,2.26.66,3.46,2.47,4.06,4.53,4.58,15.74,1.86,29.88-9.45,42.08-7.35,7.94-11.05,9.47-18.2,11.68Z"/>
      <path class="cls-5" d="m201.7,418.38c2.9,6.88,7.36,10.03,14.05,9.39,2.45-.23,2.93,1.63,3.8,3.16,2.63,4.6,6.31,7.76,11.65,8.86,4.61.95,7.52,4.81,6.52,8.39-1.3,4.68-7.08,8.88-11.09,7.36-10.73-4.07-20.77-9.37-28.62-18.11-1.47-1.64-1.36-3.5-.97-5.11,1.09-4.5,2.09-9.06,4.64-13.94Z"/>
      <path class="cls-5" d="m331.93,71.86c-.94,2.24-2.54,1.52-4.05,1.04-6.46-2.08-12.87-4.33-19.39-6.22-12.5-3.61-25.26-5.93-38.21-7.4-9.99-1.14-19.96-1.96-30.03-1.96-29.63-.01-58.46,4.52-86.41,14.52-2.04.73-5.38,3.29-6.45.57-1.3-3.3,3.1-2.98,4.99-3.69,14.14-5.26,28.69-8.97,43.6-11.43,16.92-2.79,33.94-4.66,51.04-3.77,13.17.68,26.33,1.97,39.41,4.43,14.24,2.68,28,6.69,41.65,11.34,1.52.52,3.13.71,3.85,2.57Z"/>
      <path class="cls-5" d="m258.12,400.5c-12.36,1.49-22.77,5.96-32.14,12.84-2.92,2.14-5.11,5.11-6.99,8.22-2.24,3.71-5.23,4.08-8.65,1.97-4.69-2.89-6.73-7.76-4.48-11.02,5.47-7.93,13.31-12.73,22.38-15.28,10.02-2.81,19.87-1.98,29.88,3.27Z"/>
      <path class="cls-5" d="m236.47,73.27c30.11-.09,56.3,4.58,81.82,13.24,1.18.4,2.44.86,3.35,1.64.47.4.13,1.5-.44,2.25-.96,1.25-1.78.11-2.54-.11-8.37-2.44-16.6-5.31-25.17-7.16-10.2-2.2-20.43-3.79-30.8-4.97-12.1-1.38-24.18-1.02-36.23-.69-22.07.61-43.56,4.93-64.42,12.28-.76.27-1.65.28-2.3.69-1.26.78-2.51,1.3-3.3-.34-1-2.07.77-2.39,2.15-2.95,8.25-3.37,16.87-5.75,25.49-7.62,18.24-3.95,36.71-6.77,52.38-6.26Z"/>
      <path class="cls-5" d="m197.45,442.87c7.54,6.76,16.7,10.87,25.55,15.54,4.07,2.15,3.04,6.44,2.81,9.99-.22,3.39-2.31,6.04-5.19,7.86-.42.26-1.51-.25-2.13-.64-10.23-6.51-17.58-15.27-20.37-27.26-.38-1.63-1.96-3.22-.67-5.48Z"/>
      <path class="cls-5" d="m365.89,31.91c-3.58,2.83-5.32,6.32-10.02,7.15-5.31.93-6.73,7.17-3.22,11.62,1.6,2.02,1.26,4.07.85,6.07-.37,1.81-2.21,1.71-3.72,1.6-2.44-.18-4.49-1.33-5.66-3.38-.81-1.42.72-2.66,1.43-3.84,2.95-4.85,2.31-6.25-3.16-6.75-1.04-.1-2.78.42-2.52-1.37.3-2.04-2.68-4.07-.2-5.88,2.45-1.78,4.74-5.23,8.33-1.1,2.03,2.34,4.78,1.07,5.8-1.9.78-2.27-2.6-6.55,2.77-6.64,2.99-.05,5.63,1.35,7.61,3.76.26.32.87.35,1.71.66Z"/>
      <path class="cls-5" d="m112.75,31.84c3.19-1.52,5.11-4.24,8.49-4.45,2.43-.15,4.12-.01,3.9,3.27-.14,2.14-1.29,5.09,1.28,6.37,2.35,1.17,4.25-.81,5.91-2.43,2.13-2.08,3.58.37,5.06,1.02,2.77,1.21,1.45,4.04,1.57,6.21.1,1.84-1.21,2.37-2.93,2.6-6.07.81-6.06.87-3.09,6.42,2.15,4.03-.14,7.52-4.87,7.54-1.31,0-2.8-.49-2.75-1.55.08-1.79-1.49-3.34.06-5.44,4.99-6.75,2.92-11.49-5.42-12.98-3.85-.69-3.8-5.09-7.21-6.57Z"/>
      <path class="cls-3" d="m225.96,211.12c-1.33,0-2.66,0-3.99,0-7.04,0-6.75-.02-7.13-6.94-.27-4.79,1.2-6.73,6.09-6.1,2.62.33,5.31.06,7.97.06,9.73,0,10.47.98,9.08,10.96-.26,1.89-1.07,2.06-2.54,2.03-3.16-.05-6.32-.02-9.48-.01Z"/>
      <path class="cls-3" d="m113.31,211.12h-2.99c-8.51,0-8.35,0-8.34-8.68,0-3.06,1.35-4.2,3.92-4.26,5.3-.13,10.62,0,15.92-.06,2.33-.02,3.08,1.06,3.26,3.32.8,9.68.87,9.68-8.8,9.68h-2.99Z"/>
      <path class="cls-5" d="m89.05,205.13c-2.33,4.62-4.7,8.85-6.58,13.27-1.08,2.54-2.93,1.53-4.54,1.67-1.8.16-3.62.04-6.13.04,2.29-4.78,4.32-9.11,6.43-13.4,1.03-2.1,3.05-1.53,4.81-1.57,1.82-.04,3.64,0,6.01,0Z"/>
      <path class="cls-5" d="m406.54,205.36c-2.25,4.47-4.18,8.94-6.67,13.08-2.22,3.69-5.92.8-8.97,1.62,3.88-15.25,4.05-15.42,15.64-14.7Z"/>
      <path class="cls-5" d="m177.25,20.85c.04-4.03-2.23-6.27-3.96-8.92,3.52-1.86,7.08-5.09,11.07-3.07,2.64,1.33.64,5.11.39,7.54-.41,3.94-5.24,1.55-7.51,4.45Z"/>
      <path class="cls-5" d="m298.09,8.45c1.85.19,4.62,1.3,6.61,3.86.34.44-4.44,7.53-4.92,7.51-3.75-.17-6.5-3.68-6.74-8.79-.13-2.69,1.87-2.62,5.06-2.58Z"/>
      <path class="cls-5" d="m239.79,13.42c-3.05.09-7.5-4.56-6.6-7.72.6-2.09,3.48-2.2,5.73-2.29,2.38-.09,5.29-.03,6.28,1.9,1.13,2.21-3.27,8.04-5.4,8.1Z"/>
      <path class="cls-5" d="m291.59,19.74c-.97,1.89-2.94,2.64-2.83,4.88.06,1.3,1.25,3.63-1.65,3.76-2.27.1-4.59.47-5.59-2.62-.7-2.15-1.59-4.46.54-5.76,1.6-.98,3.35-4.37,6.06-1.01.54.68,2.15.5,3.48.75Z"/>
      <path class="cls-4" d="m190.68,72.39c-1.22-.51-3.3.93-3.6-1.41-.23-1.83,1.15-2.4,2.8-2.72,4.26-.83,8.47-1.89,12.73-2.71,1.35-.26,2.09.76,2.26,2.05.18,1.35-.55,2.35-1.76,2.59-4.13.82-8.28,1.49-12.43,2.21Z"/>
      <path class="cls-4" d="m286.96,72.26c-2.98-.54-6.97-1.21-10.93-1.99-1.76-.35-2.57-1.61-1.94-3.28.51-1.35,1.42-1.57,3.11-1.05,3.69,1.11,7.56,1.61,11.37,2.29,1.51.27,3.31.46,3.01,2.4-.27,1.77-2.08,1.79-4.62,1.63Z"/>
      <path class="cls-5" d="m227.1,25.66c-1.06-1.52-2.92-3.41-3.79-5.67-.66-1.74,4.42-6.31,5.7-5.32,1.12.86,4.81-.46,3.35,2.55-1.44,2.96,2.61,9-5.27,8.44Z"/>
      <path class="cls-5" d="m244.95,15.38c2.72,1.23,4.8-2.59,7.39.02,2.79,2.81,2.59,7.37-.47,10.01-1.4,1.21-2.5-.35-3.74-.48-.35-.03-2.41-.04-1.47-2.12,1.09-2.4-.32-4.73-1.71-7.43Z"/>
      <path class="cls-5" d="m187.28,19.87c3.37-.85,6.67-3.83,9.77.97,1.65,2.55-.12,3.82-.66,5.68-.74,2.57-2.71,1.76-4.37,1.87-2.87.19-1.84-2.01-2.06-3.42-.31-2-1.59-3.5-2.68-5.1Z"/>
      <path class="cls-5" d="m302.01,23.05c4.8-1.28,7.17-.56,8.96,3.32,1.67,3.62-1.31,4.22-2.62,5.91-1.56,2.02-2.88.6-4.62-.23-2.22-1.05-1.11-2.39-.82-3.43.53-1.88,1.91-3.62-.91-5.57Z"/>
      <path class="cls-5" d="m175.51,22.95c-.57,1.85-1.09,3.75.14,5.61,1.01,1.53.94,2.52-.83,3.65-1.57,1-2.92,1.98-4.2.18-1.16-1.62-4.21-1.96-3.01-5.33,1.42-3.99,3.34-6.11,7.9-4.11Z"/>
      <path class="cls-5" d="m243.75,27.27c.34,6.95-1.02,8.86-6.03,8.11-2.12-.32-4.06-1.39-3.39-3.66.51-1.75-.15-5.74,4-4.11,1.92.75,3.29-.86,5.42-.34Z"/>
      <path class="cls-5" d="m185.24,40.22c-3.81.48-5.21-.41-5.34-3.57-.25-6.03,4.83-2.59,7.13-3.93,2.48-1.44,2.62,2.57,2.69,3.78.22,3.59-3.12,3.31-4.49,3.72Z"/>
      <path class="cls-5" d="m293.93,40.38c-4.39-.1-5.69-2.08-4.45-6.26.52-1.76,1.02-2.79,2.84-1.56.87.59,1.78.64,2.71.89,1.23.32,3.61-1.38,3.51,1.57-.17,4.8-.81,5.45-4.6,5.36Z"/>
      <path class="cls-5" d="m305.27,205.31q-2.17,6.39-12.03,5.53,1.42-6.13,12.03-5.53Z"/>
      <path class="cls-5" d="m319.54,205.57c-2.5,6.93-.34,5.48-11.94,5.44,1.62-6.52,2.25-6.81,11.94-5.44Z"/>
      <path class="cls-5" d="m134.17,210.81c1.46-8.53,7.76-4.9,12.36-5.69q-2.25,6.59-12.36,5.69Z"/>
      <path class="cls-5" d="m148.55,211.12c1.85-5.69,5.48-7.59,11.06-5.98.92.27,1.73.66,1.06,1.54-1.16,1.53-.73,4.44-3.7,4.44-2.79,0-5.59,0-8.43,0Z"/>
      <path class="cls-5" d="m175.43,205.35q-2.22,6.38-12.07,5.48c1.96-6.97.71-5.8,12.07-5.48Z"/>
      <path class="cls-5" d="m192.13,210.65c1.14-8.29,7.55-4.75,12.1-5.57-1.73,6.73-2.34,7.01-12.1,5.57Z"/>
      <path class="cls-5" d="m322.07,210.68c2.5-6.93.34-5.48,11.94-5.44-1.62,6.52-2.25,6.81-11.94,5.44Z"/>
      <path class="cls-5" d="m348.6,205.6c-1.14,8.29-7.55,4.75-12.1,5.57,1.73-6.73,2.34-7.01,12.1-5.57Z"/>
      <path class="cls-5" d="m177.52,211.12c1.85-5.69,5.48-7.59,11.06-5.98.92.27,1.73.66,1.06,1.54-1.16,1.53-.73,4.44-3.7,4.44-2.79,0-5.59,0-8.43,0Z"/>
      <path class="cls-5" d="m290.73,205.41c-2.69,6.95-.37,5.68-12.19,5.59,1.37-7.26,6.7-6.21,12.19-5.59Z"/>
      <path class="cls-5" d="m380,210.7q2.03-6.41,11.44-5.14-2.03,6.41-11.44,5.14Z"/>
      <path class="cls-5" d="m231.88,61.53c-4.99,2.04-6.47,4.55-3.93,5.63,1.89.81,3.7,1.56,5.9,2.97h-10.99c1.22-3.05,1.86-5.86-.81-8.6h9.83Z"/>
      <path class="cls-5" d="m255.91,61.58c-1.04,2.92-1.59,5.61-.34,8.55h-11.19c2.29-2.17,6.46-1.25,7.38-4.52.9-3.21-3.07-2.42-4.35-4.03h8.5Z"/>
      <path class="cls-5" d="m162.49,81.97c1.99-2.91,4.63-4.33,3.31-6.63-1.33-2.33-4.26-.31-6.72-1.49,3.36-.72,6.31-3.69,9.2-2.03,1.67.96.71,4.87,2.43,6.98-2.13,1.55-4.62,1.95-8.22,3.18Z"/>
      <path class="cls-5" d="m295.96,30.42c-1.79-.88-3.86-2.2-3.84-3.97.01-1.74.88-4.31,3.82-4.03,2.49.24,3.76,1.63,3.89,4.13.15,2.71-2.34,2.7-3.87,3.87Z"/>
      <path class="cls-5" d="m315.03,81.51c-2.61-.85-5.16-1.68-7.75-2.52.55-.58.99-1.15,1.53-1.6,1.9-1.59-.35-5.44,2.16-5.75,2.62-.33,5.48,1.19,8.81,2.05-2.65,1.4-5.62-.56-7.13,1.51-2.29,3.15,2.98,3.25,2.38,6.32Z"/>
      <path class="cls-5" d="m162.98,43.54c-.36,2.27-1.55,3.72-4.11,3.83-2.7.12-3.6-2.31-3.58-3.78.03-2.01,1.95-4.14,4.11-3.92,1.46.15,4.09.94,3.57,3.87Z"/>
      <path class="cls-5" d="m264.13,36.23c-4.03.45-4.87-2.01-4.99-3.58-.19-2.46,2.45-3.64,4.36-3.81,1.24-.11,3.52.92,3.39,3.44-.14,2.66-1.79,3.61-2.76,3.94Z"/>
      <path class="cls-5" d="m354.79,46.04c-.17-3.16,1.43-3.7,3.75-3.69,2.73,0,3.15,1.52,3.27,3.82.14,2.73-2.08,3.88-3.56,3.76-1.79-.15-4.4-1.24-3.47-3.9Z"/>
      <path class="cls-5" d="m276.47,204.94c-1.02,3.93-2.14,6.98-6.82,6.2-3.07-.51-2.08-3.08-1.64-4.13,1.81-4.3,5.57-.66,8.46-2.07Z"/>
      <path class="cls-5" d="m322.8,43.94c.5,2.38-1.48,3.16-3.11,3.28-2.52.19-3.87-1.55-3.85-4.05.02-2.09,1.4-3.63,3.28-3.64,2.44-.02,3.75,1.72,3.68,4.42Z"/>
      <path class="cls-5" d="m124.06,46.51c.25,2.56-2.16,3.5-3.4,3.45-2.23-.1-4.34-1.82-4.09-4.39.16-1.61,1.15-3.48,3.59-3.19,2.51.3,3.7,1.75,3.9,4.13Z"/>
      <path class="cls-5" d="m182.61,22.4c2.9.02,3.3,1.52,3.41,3.6.14,2.81-1.71,3.94-3.78,3.88-1.55-.04-3.5-1.05-3.27-3.5.24-2.53,1.69-3.72,3.63-3.98Z"/>
      <path class="cls-5" d="m218.91,32.68c.13,2.72-.93,3.92-3.21,3.67-2.47-.27-3.69-1.76-3.76-4.27-.07-2.48,2.38-3.46,3.5-3.28,1.79.3,4.42,1.23,3.47,3.88Z"/>
      <path class="cls-5" d="m243.05,20.32c-.51,2.45-1.66,4.22-3.94,3.94-2.11-.26-3.46-1.93-3.16-4.29.26-2.01,1.53-3.54,3.52-3.45,2.24.1,3.22,1.91,3.58,3.79Z"/>
      <path class="cls-5" d="m90.73,211.67c1.52-4.25,2.25-7.55,6.82-6.54,2.67.59,1.74,2.85,1.4,3.96-1.35,4.3-4.93.92-8.22,2.58Z"/>
      <path class="cls-5" d="m51.56,221.8c3.08-5.5,8.38-8.61,13.39-12.05-2.31,6.26-9.11,7.85-13.39,12.05Z"/>
      <path class="cls-5" d="m427.36,201.7c-2.14,6.65-9.41,8.18-13.4,13.06,1.91-6.85,9.29-8.31,13.4-13.06Z"/>
      <path class="cls-5" d="m64.8,201.7c-2.1,6.62-9.28,8.25-13.4,12.98,1.94-6.77,9.3-8.22,13.4-12.98Z"/>
      <path class="cls-5" d="m427.7,208.86c-.88,3.7-7.3,9.61-13.94,13.36.82-3.88,3.88-5.12,6.26-6.99,2.42-1.9,4.74-3.92,7.68-6.37Z"/>
      <path class="cls-5" d="m403.91,219.89c1.68-3.44,3.31-6.77,4.96-10.15,2.45,8.22,1.39,10.51-4.96,10.15Z"/>
      <path class="cls-5" d="m271.54,62.45q-1.85,4.6-.99,8.44c-1.52.62-4.41.43-4.26-.09.74-2.59-.03-5.33.87-7.7.58-1.55,2.62-.58,4.38-.65Z"/>
      <path class="cls-6" d="m244.59,65.01c-3.44,3.46-6.91,2.39-10.81.6,3.52-3.12,6.98-3.09,10.81-.6Z"/>
      <path class="cls-5" d="m206.92,62.33c2.55.35,6.11-1.58,4.19,3.59-.48,1.31.91,3.32,1.46,5.06-2.78.87-4.91.92-3.64-3.13.66-2.1-1.72-3.02-2.02-5.52Z"/>
      <path class="cls-5" d="m74.41,205.51c-1.7,3.36-3.13,6.19-4.7,9.31q-1.51-9.84,4.7-9.31Z"/>
      <path class="cls-5" d="m413.5,207.56c1.36-4.73,7.1-9.16,11.6-9.18-3.99,3.16-7.45,5.9-11.6,9.18Z"/>
      <path class="cls-5" d="m417.14,225.66c3.82-2.22,5.8-6.78,10.47-7.76-2.33,4.11-5.63,6.99-10.47,7.76Z"/>
      <path class="cls-5" d="m185.61,75.65c-3.39,1.21-5,.86-4.64-2.39.14-1.31.12-2.64-1.09-3.55-.99-.75-.49-1.55.21-1.86.84-.37,1.91-.55,2.81-.39,1.63.28.22,1.18.13,1.73-.39,2.4.21,4.46,2.6,6.47Z"/>
      <path class="cls-5" d="m62.3,198.47c-4.01,3.14-7.37,5.78-10.9,8.55.56-4.32,6.05-8.72,10.9-8.55Z"/>
      <path class="cls-5" d="m54.29,225.3c2.89-2.39,5.74-4.82,8.73-7.09.3-.23,1.19-1.44,1.93-.33.23.35.28,1.26.06,1.41-3.37,2.3-5.87,5.98-10.73,6.01Z"/>
      <path class="cls-5" d="m298.3,69.81c-.08,1.41-2.35,3.3-.93,5.99.24.45-1.28.47-2.01.49-.9.03-1.82-.36-1.34-1.39,1-2.18,2.57-4.07,1.36-6.81-.44-1.01,1.04-.67,1.65-.71,1.02-.08,2.07.04,1.27,2.43Z"/>
      <path class="cls-6" d="m151.42,80.5c1.84-1.58,2.87-4.57,6.11-2.36.81.55,1.32.73.5,1.65-1.92,2.16-3.86,3.95-6.61.72Z"/>
      <path class="cls-6" d="m327.32,80.69c-3.61,3.07-5.56-.05-7.85-1.85,3.21-2.27,5.82-1.67,7.85,1.85Z"/>
      <path class="cls-3" d="m219.93,66.51c.59,1.82-1.35,2.34-2.17,2.33-1.67-.02-2.82-1.36-2.79-3.17.03-1.52,1.04-2.37,2.55-2.29,1.82.09,2.47,1.29,2.4,3.13Z"/>
      <path class="cls-5" d="m283.95,54.33q6.5-4.22,8.49,1.07c-2.76-.53-5.34-1.36-8.49-1.07Z"/>
      <path class="cls-3" d="m303.01,71.33c1.67,0,2.64.75,2.78,2.3.14,1.58-.72,2.52-2.26,2.66-1.58.15-2.51-.72-2.67-2.26-.16-1.6.79-2.39,2.15-2.71Z"/>
      <path class="cls-3" d="m263.9,66.43c-.65,1.22-1.57,2.67-2.71,2.51-1.02-.15-2.82-.73-2.37-2.88.3-1.42.77-2.79,2.19-2.56,1.34.22,2.39,1.49,2.88,2.94Z"/>
      <path class="cls-3" d="m175.34,76.35c-1.46-.23-2.4-1.03-2.32-2.61.08-1.56,1-2.44,2.57-2.37,1.56.07,2.43,1,2.37,2.56-.06,1.57-1.02,2.33-2.62,2.42Z"/>
      <path class="cls-5" d="m205.43,211.75c2.12-3.02,1.89-6.25,4.59-6.31,1.74-.04.87,2.43.85,3.7-.05,3.65-2.86,1.23-5.44,2.61Z"/>
      <path class="cls-5" d="m185.86,55.27q2.8-5.07,8.01-.8c-2.87-.73-5.01.98-8.01.8Z"/>
      <path class="cls-5" d="m128.69,210.96c-.18-2.03-1.96-4.31.59-5.73.58-.32,2.26.02,2.29.23.34,2.37-1.27,3.9-2.88,5.5Z"/>
      <path class="cls-5" d="m264.85,51.27h-5.72c1.74-3.54,3.43-3.46,5.72,0Z"/>
      <path class="cls-5" d="m310.71,59.92c2.82-2.27,4.65-2.4,5.76,1.24-1.87-.4-3.5-.76-5.76-1.24Z"/>
      <path class="cls-5" d="m167.46,59.99c-1.96-.69-3.45,2.14-5.3.62-.12-.1.32-1.19.73-1.58,1.84-1.76,3.12.21,4.57.95Z"/>
      <path class="cls-5" d="m214.09,51.34c1.15-2.15,2.16-3.25,3.99-1.9.32.24.78.86.69,1-1.13,1.84-2.85.6-4.68.89Z"/>
      <path class="cls-2" d="m242.58,135.42c1.11-9.2,2.23-18.4,3.32-27.6.22-1.84,1.22-2.58,2.99-2.54,1.33.03,2.66,0,3.99,0,6.72.06,8.01,2.07,6.84,8.59-1.31,7.34-1.95,14.8-2.82,22.21-.48,4.11,2.48,5.61,5.59,6.02,3.13.41,5.97-.22,6.49-4.63,1.01-8.65,2.7-17.22,3.8-25.86.34-2.62,1.36-3.61,3.76-3.3,2.72.35,5.44.79,8.12,1.38,1.86.4,2.53,1.76,2.19,3.64-1.74,9.88-1.68,20.08-4.45,29.74-3.24,11.29-13.55,13.39-23.02,11.79-3.47-.59-7.23-1.22-10.2-3.79-4.81-4.16-7.41-9.1-6.61-15.64Z"/>
      <path class="cls-2" d="m163.95,156.2c4.72,0,7.81-2.6,7.99-7.17.14-3.64,1.9-5.02,5.32-4.82.33.02.66,0,1,0,8.58-.05,10.2,2.24,7.51,10.57-2.51,7.79-11.91,14.81-21.08,15.34-9.36.55-16.33-3.77-20.89-11.72-4.64-8.11-6.98-16.52-1.95-25.55,5.32-9.56,20-16.06,30.44-10,3.76,2.18,4.68,4.14,2.02,7.56-1.2,1.53-2.39,3.07-3.59,4.6-1.23,1.55-3.08,1.86-4.4.82-3.97-3.13-7.21-1.68-10.49,1.05-4.18,3.47-3.03,7.67-1.06,11.43,1.93,3.67,3.31,8.57,9.19,7.89Z"/>
      <path class="cls-2" d="m318.07,170.37c-9.77-1.05-18.18-5.77-26.67-10.19-1.53-.8-1.91-2.2-.98-4.2,5.61-12.03,11.04-24.13,16.44-36.25.96-2.16,2.7-3.28,4.54-2.36,7.71,3.84,16.42,5.77,22.94,11.91,5.66,5.34,5.68,14.33-.06,19.67-1.75,1.63-1.66,2.94-1.45,4.57,1.25,10.04-6.5,18.03-14.75,16.85Z"/>
      <path class="cls-2" d="m194.95,116c.02-6.59,1.2-7.36,7.39-7.79,4.71-.33,6.53,1.02,6.76,6.11.37,8.09,1.88,16.11,2.8,24.18.25,2.14,1.37,2.9,3.32,2.72,4.06-.36,8.35-.11,12.12-1.36,4.08-1.36,5.24.69,6.16,3.51,2.09,6.4-.21,9.4-6.86,9.9-5.83.44-11.66,1.14-17.44,2.01-7.82,1.18-8.3,1.38-9.58-5.95-2.01-11.5-3.28-23.13-4.67-33.32Z"/>
      <path class="cls-2" d="m428.91,330.83c-4.16,0-8.38.5-12.45-.1-8.64-1.27-13.1-7.27-14.48-15.33-1.56-9.07.49-19.89,10.2-23.52,2.56-.96,5.1-1.8,7.89-1.9,7.74-.28,15.52.82,23.22-.92,2.51-.57,5.65-.2,6.08,2.7.51,3.45,1.95,7.97-.85,10.39-2.09,1.8-6.14,1.63-9.35,1.77-5.65.25-11.31.03-16.97.08-4.96.04-7.43,2.18-7.5,6.35-.08,4.46,2.4,6.74,7.62,6.59,6.91-.2,13.84.68,20.74-.86,2.43-.55,5.89-.99,7.05,2.02,1.3,3.37,1.84,7.95-.12,10.54-2.14,2.82-6.96,1.66-10.59,2.21-3.42.52-6.97.11-10.47.11,0-.04,0-.07,0-.11Z"/>
      <path class="cls-2" d="m420.99,280.19c-3.48.78-4.65-1.78-5.16-4.13-.48-2.22-1.23-4.31-1.89-6.46-2.09-6.89-2.04-6.9-8.75-4.74-.3.1-.65.07-.95.17-8.23,2.61-12.03.1-12.39-8.45-.12-2.89,2.64-3.84,4.62-4.35,11.62-3.01,23.13-6.41,34.61-9.91,4.78-1.45,6.07-.34,7.64,4.73,2.55,8.27,4.89,16.58,7.13,24.93.88,3.29-.32,4.26-2.53,4.97-10.38,3.32-7.95,3.76-11.6-6.1-1.27-3.43-2.08-7.05-3-10.6-.31-1.19.25-3.01-2.14-1.72-1.28.69-1.6,1.12-1.01,2.66,1.25,3.27,2.19,6.67,3.05,10.07,1.59,6.31,1.47,6.43-4.84,8.18-.93.26-1.87.5-2.8.74Z"/>
      <path class="cls-2" d="m436.39,382.86c-8.55-.1-9.75-1.31-7.6-9.15,1.28-4.65,1.21-6.47-4.49-7.2-7.74-.99-15.2-3.98-22.91-5.45-3.14-.6-3.73-1.76-3.73-4.48,0-2.67.98-5.08,1.52-7.59.59-2.73,2.9-2.39,4.7-1.99,8.93,2.01,17.84,4.12,26.71,6.41,1.96.51,3.13.95,3.17-1.71.01-.74.74-1.45.88-2.22,1.6-8.63,1.6-8.38,10.42-6.72,3.22.61,4.12,1.98,3.54,4.55-2.43,10.64-5.2,21.21-7.55,31.87-.7,3.17-2.14,4.19-4.66,3.69Z"/>
      <path class="cls-2" d="m411.64,423.97c-1.37-.22-2.65-.42-3.92-.64-3.86-.66-5.73-6.01-7.94-5.97-3.51.06-7.2.84-10.29-.76-8.23-4.25-11.23-12.21-6.81-22.17,2.47-5.57,5.34-10.96,8.03-16.43,1.46-2.97,3.26-3.93,6.65-2.23,11.75,5.89,23.66,11.48,35.1,18,1.94,1.11,2.84,2.04,1.67,4.15-3.48,6.31-6.15,13.03-10.04,19.16-3.02,4.76-7.33,6.35-12.44,6.89Z"/>
      <path class="cls-2" d="m339.79,446.72c1.17-.2,2.17.43,2.95,1.69,6.89,11.19,13.79,22.38,20.72,33.54,1.82,2.93,1.19,4.99-1.91,6.42-.86.4-1.67.95-2.46,1.49-3.45,2.39-6.1,2.9-8.61-1.68-3.91-7.16-8.51-13.94-12.8-20.9-1.35-2.19-2.61-3.64-5.44-1.55-3.34,2.47-7.3,4.14-10.51,6.74-2.45,1.98-3.67,1.05-5.36-.65-1.77-1.79-2.73-4.05-3.41-6.3-.31-1.03-.98-2.7.9-3.84,7.67-4.67,15.23-9.51,22.79-14.36.96-.61,1.87-.48,3.14-.6Z"/>
      <path class="cls-2" d="m400.7,444.07c1.78,10.69-12.64,24.53-24.44,24-11.54-.52-25.46-12.17-24.65-26.11.73-12.72,11.37-22.82,25.07-23.26,10.95-.35,25.49,12.24,24.02,25.38Z"/>
      <path class="cls-2" d="m65.39,354.18c-1.03,2.22.34,4.51,1.07,6,1.8,3.66-.53,4.56-2.73,5.4-7.46,2.85-8.97,2-11.14-5.75-1.08-3.85-1.92-7.76-3.2-11.58-1.12-3.36-.4-6.52,4.02-7.35,2.82-.53,5.57-1.43,8.4-1.96,7.74-1.44,12.66,2.4,16.52,8.65,6.44,10.43,6.35,26.05-3.16,33.6-8.06,6.4-17.4,8.12-27.12,4.55-8.56-3.14-12.04-10.36-14.01-18.86-1.63-7.04-.53-13.15,4.16-18.46,3.72-4.22,6.5-3.75,8.89,1.18,1.59,3.28,3.25,5.88.37,10.19-4.02,6.02,2.75,13.39,11.41,13.05,4.28-.17,8.28-1.67,9.63-6.02,1.31-4.21,1.65-8.75-2.25-12.24-.23-.2-.58-.27-.87-.4Z"/>
      <path class="cls-2" d="m60.89,274.42c-2.84,4.22-11.15,7.94-16.43,5.69-5.75-2.45-9.27-7.34-9.31-14.49-.05-8.32,2.1-15.52,9.41-20.53,2.78-1.91,5.72-1.93,8.81-2.05,2.79-.11,4,.99,3.78,3.8-.12,1.49-.02,2.99-.02,4.89,3.27-1.38,5.58-3.85,8.98-4.91,8.7-2.74,18.23,5.7,18.16,14.05-.07,7.1-1.58,13.28-5.54,19.19-2.78,4.15-6.75,5.86-11.06,6.84-5.88,1.33-8.84-1.93-7.44-7.88.36-1.55,1.3-2.93.66-4.6Z"/>
      <path class="cls-2" d="m130.94,445.26c.91,5.9-2.35,9.96-5.7,13.63-5.37,5.89-11.18,11.38-16.89,16.96-3.53,3.45-4.53,3-10.07-2.34-3.03-2.92-2.62-4.96.15-7.78,5.89-6,12.48-11.34,17.46-18.24,2.27-3.14,1.41-5.51-1.25-7.61-2.56-2.02-4.99-3.47-8.04-.23-5.46,5.82-11.23,11.34-16.91,16.95-3.49,3.44-4.98,3.23-9.34-1.13-4.36-4.36-4.67-5.95-1.11-9.31,6.24-5.89,12.01-12.23,18.55-17.88,10.83-9.36,23.4-2.78,29.12,5.17,2.52,3.5,5.23,7.19,4.03,11.79Z"/>
      <path class="cls-2" d="m73.43,396.56c2.7-5.93,5.13-11.69,7.94-17.25,1.51-2.98,3.49-2.97,5.81-.2,4.7,5.61,6.79,11.16,1.97,17.85-2.04,2.83-3.16,6.25-4.15,9.67-.57,1.96-.25,3.32,1.07,4.65,1.44,1.44,2.51-.26,3.46-.68,3.06-1.38,5.98-3.11,8.86-4.85,1.2-.73,2.59-1.64,3.54-.48,2.51,3.08,5.23,6.09,5.22,10.58,0,1.95-1.39,2.07-2.35,2.63-11.07,6.5-22.24,12.85-33.27,19.42-2.36,1.41-4.28,1.24-5.52-.83-4.51-7.56-9.82-14.72-12.85-23.07-2.46-6.8-.78-11.84,5.11-16.86,3.41-2.91,9.95-3.16,15.15-.58Z"/>
      <path class="cls-2" d="m142.09,450.75c3.91-.31,7.24,1.51,10.45,3.26,4.93,2.69,9.62,5.81,14.43,8.72,2.27,1.37,4.05,2.58,2.1,5.75-6.97,11.33-13.68,22.82-20.62,34.17-1.34,2.19-3.31,2.82-5.89,1.16-5.8-3.73-12.19-6.65-17.55-10.9-6.7-5.32-8.58-15.6-.35-22.12,1.92-1.52,2.45-2.89,2.44-5.16-.06-8.84,6.14-14.89,14.99-14.87Z"/>
      <path class="cls-2" d="m52.72,336.93c-13.42,1.09-25.65-8.45-24.79-25.51.61-12.12,10.33-22.61,23.98-22.27,16.88.42,24.53,8.67,25.02,24.49.41,13.26-10.62,24.75-24.2,23.28Z"/>
      <path class="cls-5" d="m282.9,117.18c-1.5,7.79-1.79,16.44-4.03,24.82-1.78,6.65-9.93,11.31-16.75,9.32-1.85-.54-3.76.04-5.76-.88-9.58-4.38-11.25-8.44-9.76-19.01.88-6.28,2.12-12.58,2.28-18.97.05-1.91-.18-4.68,2.7-3.59,1.47.55,6.05-1.97,4.54,3.91-1.94,7.51-2.5,15.43-3.11,23.21-.27,3.47.38,6.96,4.93,8.39,10.34,3.26,14.74.17,15.84-12.17.48-5.38,1.55-10.68,1.9-16.02.22-3.4,1.25-3.97,4.31-4.02,3.78-.06,2.7,2.38,2.9,5.01Z"/>
      <path class="cls-5" d="m143.05,143.96c-1.77-13.66,16.83-23.5,26.26-18.54.92.48,3.46.72,1.63,2.72-1.17,1.29-.91,4.44-3.99,3.53-11.02-3.28-17.88,1.92-16.88,13.08.69,7.65,7.48,16.53,14.7,15.57,5.77-.76,10.71-3.94,11.02-9.73.25-4.7,3.15-3.6,5.33-3.24,3.25.53,1.83,3.06,1.29,4.93-2.36,8.13-8.42,12.32-16.18,13.79-8.59,1.62-15.43-2.3-20.14-10.73-1.99-3.56-3.65-7.32-3.03-11.38Z"/>
      <path class="cls-5" d="m334.89,139.79c.3,2.72-1.74,5.41-4.61,7.12-2.38,1.41-2.99,2.48-1.64,5.01,2.35,4.4.68,8.3-2.56,11.42-3.45,3.31-7.44,5.16-12.42,2.92-5.89-2.65-11.89-5.07-17.85-7.56-1.6-.67-2.11-1.1-1.13-3.16,4.92-10.37,9.52-20.9,14.16-31.41,1.1-2.49,2.27-3.68,5.06-1.9,5.05,3.23,11.16,4.42,16.03,8.04,2.84,2.11,4.86,4.72,4.99,9.52Z"/>
      <path class="cls-5" d="m230.75,149.04c-9.14,1.24-18.29,2.48-27.28,3.7-1.81-12.72-3.62-25.45-5.43-38.18-.18-1.3.35-2.95,1.6-2.13,1.91,1.25,4.18-3.41,5.24.44.98,3.58,1.56,7.29,2.03,10.98.8,6.16,1.44,12.33,2.01,18.52.23,2.5,1.68,2.88,3.73,2.89,3.79.01,7.83-.33,11.16-1.36,5.52-1.71,6.49.59,6.93,5.16Z"/>
      <path class="cls-5" d="m436.49,326.94c-5.73-.97-12.02,1.87-18.8.26-6.47-1.54-10-5.04-11.71-10.8-1.19-4.02-.98-8.41-.1-12.4,1.17-5.3,5.01-8.71,10.42-9.79,8.99-1.79,18.11-1.14,27.19-1.2,3.95-.03,2.04,3.55,2.87,5.26,1.08,2.21-1.69,1.77-2.9,1.68-8.3-.64-16.47,1.22-24.75,1.09-3.91-.06-6.91,3.19-7.02,7.19-.04,1.5-.04,2.99,0,4.49.14,5.02,2.2,7.18,7.21,7.23,8.15.08,16.31.12,24.46-.04,2.65-.05,3.37.76,3.37,3.36,0,2.64-.44,4.09-3.49,3.73-1.97-.23-3.99-.04-6.76-.04Z"/>
      <path class="cls-5" d="m421.33,276.1c-2.1,1.21-1.48-.48-1.68-1.14-1.3-4.15-2.95-8.25-3.72-12.5-.72-4-3.08-3.79-5.78-3.13-2.66.65-5.32,1.45-7.82,2.53-4.12,1.79-5.62.36-6.26-3.83-.3-1.96.4-1.72,1.56-2.05,11.82-3.33,23.66-6.59,35.4-10.17,2.38-.73,2.19,1.27,2.34,1.81,2.23,7.77,3.84,15.74,6.52,23.34,1.22,3.45-.92,2.86-2.36,3.65-2.69,1.46-3.26-.93-3.71-2.39-1.55-4.93-2.99-9.91-4.06-14.97-.59-2.79-1.35-3.61-4.28-2.67-7.1,2.28-7.12,2.13-4.87,9.32.77,2.46,1.14,5.08,2.11,7.45,1.61,3.94-.04,5.06-3.39,4.74Z"/>
      <path class="cls-5" d="m444.5,349.03c-2.28,9.83-4.5,19.77-6.95,29.66-.69,2.8-2.29-.21-3.54.11-2.06.52-2.69-.85-2.28-2.6.48-2.04,1.37-3.99,1.78-6.04.68-3.42.21-5.65-4.24-6.43-8.42-1.47-16.64-4.09-25.05-5.69-3.03-.58-2.99-1.47-2.64-4,.43-3.15,2.18-3.51,4.5-2.98,7.09,1.62,14.21,3.18,21.17,5.26,2.03.6,4.18.11,6.17,1.39,1.33.86,2.8-.22,3.23-2.04.62-2.67,1.26-5.34,2.01-7.97.29-1.02-.95-3.73,2.11-2.18,1.61.81,4.96-.36,3.74,3.53Z"/>
      <path class="cls-5" d="m430.25,397.94c-4.41,6.88-5.96,15.92-13.62,20.8-5.07,3.23-10.17,1.65-13.28-3.86-1.12-1.98-2.27-2.34-4.3-1.85-9.81,2.34-16.94-5.13-14.08-14.76,1.91-6.43,6.05-11.79,8.87-17.79.56-1.2,1.38-1.93,3.15-1,10.62,5.59,21.35,10.99,32.02,16.48.66.34,1.44.73,1.24,1.98Z"/>
      <path class="cls-5" d="m319.44,469.38c-.77-.99-1.72-1.97-2.36-3.11-.46-.82-.59-1.81.57-2.52,6.62-4.06,13.24-8.12,19.79-12.3,1.95-1.25,2.51-.09,3.36,1.28,6.18,10.06,12.32,20.16,18.72,30.08,1.35,2.09.58,2.65-1.08,2.86-1.62.21-2.83,3.98-4.97.4-4.82-8.05-10.03-15.87-14.76-23.97-1.47-2.51-2.67-2.83-4.93-1.39-3.83,2.43-7.72,4.75-11.59,7.11-.83.51-1.69.96-2.76,1.56Z"/>
      <path class="cls-5" d="m397.71,443.99c-.66,10.73-10.75,20.91-21.1,20.59-10.4-.32-21.67-10.42-21.8-21.94-.11-9.64,11.84-21.57,21.15-20.75,12.04,1.06,21.41,11.82,21.75,22.09Z"/>
      <path class="cls-5" d="m37.22,361.32c-.39-3.34.14-6.28,2.59-8.72,1-1,1.2-3.95,3.27-1.98,1.33,1.27,3.32,3.14,2.12,5.73-3.22,6.93-2.22,13.6,2.66,17.72,4.74,3.99,14.06,3.7,20.19-.63,4.86-3.44,6.45-9.59,4.01-16.31-.94-2.59-2.12-5.07-4.23-7.07-2.05-1.94-3.83-.94-5.85-.14-2.51.99-.85,2.74-.78,4.08.08,1.75.22,3.79,1.15,5.15,1.67,2.47-.3,2.84-1.6,3.43-1.89.85-3.6.49-4.19-1.81-1.22-4.7-2.29-9.43-3.58-14.11-.31-1.11-.29-1.36.82-2.01,8.75-5.12,17.12-3.36,21.93,5.67,4.5,8.45,5.77,17.54-.73,25.72-5.31,6.67-13.02,8.78-21.14,7.68-7.21-.98-12.24-5.48-14.71-12.51-1.14-3.23-2.57-6.39-1.92-9.86Z"/>
      <path class="cls-5" d="m81.19,263.72c-1.28,6.82-3.28,13.29-9.12,17.78-2.07,1.59-4.65,2.15-7.01,1.31-1.93-.69-.66-2.93-.92-4.45-.27-1.61.43-2.12,2.15-2.41,6.22-1.05,10.68-11.23,7.47-16.63-1.71-2.89-5.59-3.34-7.85-.41-2.56,3.32-4.55,7.09-6.71,10.71-2.07,3.47-4.57,6.67-8.72,7.32-6.7,1.04-11.55-2.6-12.08-10.91-.5-7.83,2.39-15.01,10.52-18.88,1.56-.74,4.14-2.24,4.74-.42.65,1.99.68,5.64-2.26,6.51-5.77,1.72-5.82,6.79-7.15,11.05-.67,2.15.44,4.48,2.46,5.44,1.98.94,4.03.41,5.78-1.47,2.85-3.07,3.55-7.3,6.18-10.5,1.12-1.37,2.13-2.88,3.4-4.15,5.56-5.53,13.03-4.65,16.87,2.18,1.33,2.36,2.42,4.99,2.25,7.93Z"/>
      <path class="cls-3" d="m61.96,272.6c2.16-3.79,4.19-7.4,6.25-10.98.9-1.56,2.17-1.75,2.73.02,1.07,3.39-.38,6.53-2.28,9.14-1.43,1.96-3.82,2.86-6.69,1.82Z"/>
      <path class="cls-3" d="m48.62,266.27c-.6-2.08-.73-3.69.28-5.59,1.05-1.98,2.41-4.6,4.42-3.36,1.92,1.18-.39,3.22-1.56,4.57-1.09,1.26-.92,3.38-3.14,4.39Z"/>
      <path class="cls-5" d="m81.24,449.91c5.89-5.83,11.91-11.81,17.97-17.76,7.17-7.04,17.6-6.1,23.62,2.01,8.28,11.15,5.91,14.77-1.34,23.48-4.56,5.48-10.04,10.18-15.09,15.26-1.08,1.09-2.44,2.46-3.21.24-.61-1.74-4.58-2.56-1.61-5.45,5.13-4.99,10.17-10.07,15.19-15.17,6.03-6.13,5.95-9.85-.21-15.73-4.17-3.98-6.95-3.9-11.61-.49-5.66,4.15-10.41,9.24-15.07,14.36-3.54,3.89-5.96,4.24-8.64-.75Z"/>
      <path class="cls-5" d="m84.27,382.49c5.3,4.01,4.65,8.54,1.26,13.64-1.66,2.5-2.74,5.46-3.82,8.37-1.63,4.39.28,7.58,2.47,10.87,1.03,1.55,2.16,1.46,3.73.51,3.33-2.01,6.82-3.74,10.21-5.65,1.1-.62,2.23-2.99,3.03.11.47,1.81,3.86,3.55.48,5.57-10.03,5.99-20.12,11.89-30.19,17.81-1.68.99-2.83,1.24-4.05-1.07-2.81-5.3-6.37-10.2-9.09-15.53-4.13-8.09-3.07-15.22,5.41-18.62,3.62-1.45,6.14.05,8.68,1.5,2.52,1.44,3.72.65,4.4-1.54,1.8-5.8,5.26-10.78,7.47-15.96Z"/>
      <path class="cls-5" d="m123.04,481.37c-.12-4.19,1.66-7.38,5.12-8.45,3.03-.93,3.3-2.72,2.78-4.78-1.28-5.04.23-8.46,4.43-11.57,4.9-3.63,9.43-2.19,13.89.06,4.76,2.4,9.21,5.42,13.83,8.11,2.08,1.21,2.89,1.98,1.15,4.68-6.24,9.66-12.01,19.62-17.85,29.53-.78,1.33-1.6,2.48-2.92,1.43-5.87-4.65-13.41-6.94-18.28-13-1.5-1.87-2.47-3.85-2.16-6Z"/>
      <path class="cls-5" d="m52.24,292.99c11.74-.94,21.29,9.24,21,20.75-.31,12.15-9.26,19.89-21.21,20.13-11.51.23-20.94-9.28-20.84-20.79.1-11.25,9.02-20.96,21.04-20.08Z"/>
      <path class="cls-2" d="m316.02,160.27c-4.06-.55-7.7-2.36-11.31-4.16-1.71-.85-1.05-2.74-.78-3.99,1.45-6.67,4.16-7.88,10.54-4.96,1.62.74,3.45,1.23,4.8,2.31,1.93,1.55,3.91,2.97,2.79,6.43-1.09,3.36-2.74,4.62-6.05,4.36Z"/>
      <path class="cls-2" d="m323,143.25c-4.9.23-8.49-2.21-11.56-4.46-2.12-1.55.69-4.69,1.57-6.96.81-2.07,2.86-1.98,4.66-1.17,2.49,1.12,4.92,2.38,7.35,3.63,2.34,1.2,3.34,3.2,2.69,5.71-.67,2.61-2.6,3.63-4.71,3.26Z"/>
      <path class="cls-2" d="m397.22,406.81c-5,.04-7.69-3.73-6.02-7.94.71-1.79,1.67-3.48,2.55-5.2,3.48-6.82,3.03-6.1,9.44-3.19,3.97,1.8,4.19,3.76,2.27,6.99-1.4,2.35-2.62,4.81-4.12,7.09-1.01,1.52-2.33,2.93-4.11,2.25Z"/>
      <path class="cls-2" d="m407.69,408.39c.08-4.74,4.13-11.79,6.6-11.5,3.26.37,6.66,1.31,7.2,5.14.4,2.82-6.67,10.78-8.9,10.78-3.22,0-5.57-.86-4.89-4.42Z"/>
      <path class="cls-2" d="m390.72,444.17c.99,7.31-6.81,13.94-12.92,13.66-8.05-.36-15.98-7.83-16.05-15.84-.06-7.41,5.49-13.16,12.77-13.21,7.75-.06,16.18,7.96,16.2,15.39Z"/>
      <path class="cls-2" d="m71.51,424.79c-1.28.2-2.78-.13-3.22-1.49-1.31-4.05-4.38-7.14-5.67-11.26-.89-2.86.34-4.48,1.99-5.94,1.67-1.48,3.81-1.71,5.8-.2,4.51,3.39,6.69,8.34,8.59,13.36.69,1.83-4.39,5.5-7.49,5.53Z"/>
      <path class="cls-2" d="m149.86,477.63c-2.22.02-11.91-7.2-12.61-9.36-.76-2.34.21-4.35,1.72-5.81,1.36-1.32,3.4-2.48,5.39-1.53,3.65,1.75,7.14,3.86,10.69,5.82.27.15.59.29.74.53,1.22,2.01-3.54,10.31-5.92,10.34Z"/>
      <path class="cls-2" d="m146.94,484.77c-1.7,1.52-1.92,4.51-4.41,6.12-2.35,1.52-3.55-.44-5.1-1.34-1.82-1.06-3.83-1.98-5.28-3.44-1.72-1.72-3.26-4.05-1.37-6.52,1.44-1.89,2.82-3.49,6.16-2.17,3.08,1.22,5.42,3.57,8.59,4.48.91.26,1.61,1.19,1.42,2.87Z"/>
      <path class="cls-2" d="m67.12,312.83c0,8.67-5.48,14.13-14.08,14.01-9.83-.13-15.93-5.1-15.85-13.22.08-7.43,4.07-13.76,14.87-13.66,9.55.09,15.05,4.71,15.05,12.87Z"/>
      <path class="cls-3" d="m310.19,149.28c2.11,1.89,5.57,1.51,7.37,4.17.6.89,1.95,1.45.67,2.82-.92.99-1.91,1.23-3.08.67-2.01-.97-4.05-1.9-5.98-3.02-.95-.55-2.06-1.41-.8-2.72.6-.63.18-2.17,1.82-1.91Z"/>
      <path class="cls-3" d="m316.93,134.27c2.41,1.23,4.69,2.34,6.92,3.57.39.21,1.22.77.34,1.43-.49.37-1.22.99-1.6.84-2.2-.84-4.27-2.03-6.5-2.78-1.29-.43-.88-.79-.49-1.56.35-.7.33-1.65,1.33-1.5Z"/>
      <path class="cls-3" d="m402.5,394.24c-1.71,2.82-2.45,6.08-4.99,8.36-1.17,1.05-2.13,1.14-2.57-.21-1.15-3.56,1.6-6.17,2.99-8.91,1.04-2.06,2.99.37,4.57.75Z"/>
      <path class="cls-3" d="m412.19,409.7c-.37-.42-1.16-.95-1.08-1.27.7-2.71,1.3-5.58,3.52-7.46.62-.53,2.15.96,1.91,1.67-.88,2.56-1.87,5.16-4.34,7.06Z"/>
      <path class="cls-3" d="m374.42,432.52c4.72-.67,12.76,6.42,13.29,11.73.41,4.05-4.5,9.44-9.32,10.24-4.08.67-12.67-6.58-13.62-11.5-.76-3.94,4.6-9.76,9.64-10.48Z"/>
      <path class="cls-3" d="m68.16,408.84c2.04.5,1.99,2.54,3.07,3.71,1.25,1.37,1.94,3.25,2.99,4.83.64.96,1.79,1.72-.24,2.46-1.16.42-2.27,1.7-3.29,0-1.55-2.58-2.73-5.36-4.44-7.89-.85-1.25.3-2.75,1.9-3.11Z"/>
      <path class="cls-3" d="m151.74,469.23c-.64,1.27-1.28,2.56-2.15,4.28-2.35-1.6-4.8-3.15-7.1-4.89-.78-.59-2.16-1.31-1.05-2.77.94-1.23,2.11-1.52,3.46-.73,2.31,1.36,4.59,2.75,6.84,4.1Z"/>
      <path class="cls-3" d="m135.17,480.74c2.15,1.11,4.45,2.18,6.6,3.5.53.33.6,1.67-.18,2.17-1.09.7-2.02.06-3.07-.59-1.68-1.05-3.89-1.42-4.44-3.73-.14-.59.02-1.34,1.1-1.35Z"/>
      <path class="cls-3" d="m52.78,322.95c-7.72.01-11.6-3.28-11.63-9.85-.02-5.2,5.17-9.98,10.95-10.07,6.03-.1,12.24,5.18,12.01,10.21-.24,5.35-5.32,9.7-11.34,9.72Z"/>
    </g>
  </g>
</svg>