<?xml version="1.0" encoding="UTF-8"?>
<svg id="Layer_2" data-name="Layer 2" xmlns="http://www.w3.org/2000/svg" xmlns:xlink="http://www.w3.org/1999/xlink" viewBox="0 0 425.76 425.76">
  <defs>
    <style>
      .cls-1 {
        clip-path: url(#clippath);
      }

      .cls-2 {
        fill: none;
      }

      .cls-2, .cls-3, .cls-4, .cls-5, .cls-6, .cls-7, .cls-8, .cls-9, .cls-10, .cls-11, .cls-12, .cls-13, .cls-14, .cls-15, .cls-16, .cls-17, .cls-18 {
        stroke-width: 0px;
      }

      .cls-3 {
        fill: #00527f;
      }

      .cls-3, .cls-4, .cls-5, .cls-6, .cls-7, .cls-8, .cls-9, .cls-10, .cls-11, .cls-12, .cls-13, .cls-14, .cls-15, .cls-16, .cls-17, .cls-18 {
        fill-rule: evenodd;
      }

      .cls-4 {
        fill: #13160c;
      }

      .cls-5 {
        fill: #1f211a;
      }

      .cls-6 {
        fill: #576a67;
      }

      .cls-7 {
        fill: #7a4932;
      }

      .cls-8 {
        fill: #533223;
      }

      .cls-9 {
        fill: #627469;
      }

      .cls-10 {
        fill: #552f23;
      }

      .cls-11 {
        fill: #bd9264;
      }

      .cls-12 {
        fill: #cd9236;
      }

      .cls-13 {
        fill: #c7792b;
      }

      .cls-14 {
        fill: #deb877;
      }

      .cls-15 {
        fill: #e8b762;
      }

      .cls-16 {
        fill: #fff;
      }

      .cls-17 {
        fill: #7d4a33;
      }

      .cls-18 {
        fill: #b65f25;
      }
    </style>
    <clipPath id="clippath">
      <rect class="cls-2" width="425.76" height="425.76"/>
    </clipPath>
  </defs>
  <g id="Layer_1-2" data-name="Layer 1">
    <g>
      <g class="cls-1">
        <path class="cls-3" d="m212.6.01C330.01.01,425.19,95.11,425.19,212.41c0,85.91-51.8,163.35-131.24,196.23-79.44,32.88-170.89,14.7-231.69-46.04C1.46,301.85-16.72,210.49,16.18,131.12,49.09,51.76,126.61.01,212.6.01h0Z"/>
        <path class="cls-16" d="m212.6,7.54c54.39,0,106.55,21.59,145.01,60,38.46,38.42,60.06,90.53,60.06,144.86,0,82.86-49.96,157.56-126.59,189.27-76.63,31.71-164.83,14.18-223.48-44.41C8.94,298.68-8.6,210.56,23.14,134.01,54.88,57.45,129.66,7.54,212.6,7.54h0Z"/>
      </g>
      <path class="cls-14" d="m205.86,156.09c-3.38-1.96-9.79-5.53-13.08-9.96-1.82-2.45-3.41-5.5-4.69-8.94-.8-2.16-1.38-4.22-1.9-6.46-.52-2.25-.83-4.06-1.1-6.33-.23-1.89,1.29-5.21,1.67-6.61.07-.25.12-.7.23.14.09.69-.03,2.54-.07,3.42-.09,1.94,1.2,10.46,2.2,10.62.78.17,1.99-.8,2.95-2.71,1.7-3.39,3.13-7.85,4.89-10.2.45-.59.41-.42.25.18-.39,1.41-.44,2.27-.61,3.41-.27,1.9-.14,2.74-.93,5.11-.45,1.35-1.1,3.23-1.53,4.42-.73,1.99-1.13,3.53-.97,5.42.29,3.41,3.85,7.98,4.98,8.9,1.18.98,4.16,2.44,6.58,3.16.6.18.96.43.73-.35-.21-.68-.42-1.62-.52-2.43-.05-.45.05-.36.2,0,.2.48.64,1.43,1.31,2.29,1.58,2.03,4.16,4.42,5.88,4.57-.57-1.22-1.26-3.79-1.96-5.49-.4-.97-1.03-5.18-1.14-8.97-.02-.72.17-.53.23-.2.48,2.32,1.46,5.4,2.1,7.43.93,2.47,4.22,8.27,6.42,11.46-2.79.34-6.78.67-9.58,1-.88-.96-1.65-1.91-2.52-2.87h0Z"/>
      <path class="cls-10" d="m212.94,185.01c-2.88.89-5.25,1.34-7.26,1.51-2.58.23-4.61.01-7.64.38-5.68.69-13.63,3.9-15.15,10.02-.48,1.94-.74,4.31-.57,6.54.21,2.7.93,5.23,1.21,7.25.56,4.01-.23,7.72-1.12,11.27-1.04,4.13-1.98,8.41-3.03,12.13-.49,1.74-1.03,3.33-1.6,4.87-.54,1.46-1.68,3.55-1.88,4.47-.47,2.22-.42,4.44-.5,7.04-.06,2.17-.66,3.17-.67,4.11-.03,2.77.32,7.37.34,11.16,0,1-.06,1.88-.21,2.59-.4,1.82-1.04,2.54-.14,7.62.73-.23,2.96-3.36,3.69-3.59.09-1.36-.38-3.11-.39-4.36,0-.38.21-1.63.2-2.65,0-3.48,0-7.97-.03-10.25,0-.66.49-1.42.8-3.12.21-1.17.44-3.04.87-4.13.61-1.54,1.75-2.64,2.39-4.17.83-1.98.82-3.74,1.47-6.54.02-.1,1.17.11,2.34-1.59,1.27-1.84,3.26-5.41,5.75-12.2,1.22-3.32,1.48-4.41,1.58-6.55.23-5.05-.48-6.03-.44-9.24.02-1.57-.16-3.8.81-5.32,1.19.84,1.69,2.5,1.7,4.23,0,1.27-.08,2.59-.21,3.94-.18,1.79.29,2.5.4,4.34.19,3.09-.98,5.91-1.96,8.92,5.68,2.58,11.31,4.17,14.71,3.38-.48,4.51.7,6.33,1.28,9.25.11.54.14,1.29.2,1.92.29,3.12.35,8.16.54,9.93.16,1.5.64,3.24,1.21,7.78,1.36-.73,2.02-1.91,3.39-2.64.38-2.61,1.17-5.96,1.08-8.55-.12-3.12-1.29-5.47-1.28-8.65,0-3.25.92-4.6.56-9.95,1.29-.04,2.37.48,3.67.2.78-.16,1.33-.55,3.12-1.35,1.64-1,3.69-3.12,5.53-3.03.04,3.43.5,4.34,1.16,5.8,2.57-1.91,2.72-4.57,3.25-6.89-3.55-11.29-6.52-22.64-10.08-33.93-3.14-.32-5.94-1.62-9.08-1.94h0Z"/>
      <path class="cls-7" d="m223.21,196.79c-.78-.37-3.47.13-4.04-.52-.32-.36-.38-1-.16-1.55.29-.74.07-1.5-.57-1.55-1-.1-2.03.42-3.3.76-1.84.5-3.78.96-5.25.74-3.21-.46-3.28-1.97-5.02-2.17-1.16-.13-2.3.09-3.41-.05-1.39-.18-1.48-3.18-2.89-3.17-1.01,0-2.42.72-3.89,1.03-1,.21-2.03-.08-2.97.34-.77.34-1.49.76-2.09,1.27-.94.8-.88,1.77-1.33,3.43-.27,1.02,2.05.99,1.74,1.57-.75,1.41-1.87,2.53-2.41,3.91-.95,2.46-1.39,5.73-1.55,12.92,2.95-.27,1.52,4.26,1.53,6.77,0,.7-1.52,2.07-1.6,2.8-.15,1.5-.62,5.11-1.28,7.36-.58,2.01-.54,3.84.05,4.88,2.06-1.42,1.81-2.78,2.77-5.06.84-2.01,2.36-2.2,3.2-5.62.27-1.09.13-2.45.59-3.38.1-.2.85-.62.96-.82.53-.95.74-3.39.83-5.5.11-2.54-.61-5.44-.52-7.96.04-1.17-.63-2.33-.44-3.46.12-.69,1.1-1.11,1.46-1.79.45-.86,1.55,2.5,2.09,2.12,1-.71.24-2.44.8-3.88.13-.33,1.68-.13,1.81-.44.42-1.01.86-2.07,1.48-2.47.38-.24,1.01-.36,1.51-.11,2.35,1.17,4.72,4.97,5.49,7.25.34,1.03-.31,2.68-.68,4.28-.26,1.1-.38,2.12-.22,3.09.29,1.83,1.86,3.07,1.95,5.05.12,2.44.39,5.2.85,7.15.2.83,1.91,4.77,2.38,6.55.54,2.08.61,4.13,1.24,5.05.22.31,1.05.66,1.96.39.25-1.28.99-4.29.45-7.27-.1-.55-.33-1.18-.33-1.82,0-.64.22-1.3.08-1.89-1.18-5.12-3.17-10.51-1.69-14.75.3-.87,1.22-.82,1.67-.16.81,1.2,1.96,3.36,3.06,4.92.97,1.38,1.88,2.29,2.85,1.65.25-.17.71-1.71.14-3.36-1.08-3.16-3.17-7.17-.78-6.91-.3-1.98-.81-4.03-.04-4.23,2.33-.6,8.25,2.26,9.11.07,1.01-2.57-3.1-4.29-5.6-5.46h0Z"/>
      <path class="cls-18" d="m212.6,173.92c.31,1.05,0,1.58,0,2.22,0,.53.24.74.32,1.36.09.71.05,1.48-.64,1.61-.18.45-.12.88-.58,1.38-.38.41-.9.88-.94,1.41.46-.09.91-.18,1.37-.27.1.52-.04,1.09-.3,1.46-.27.39-.82.83-1.51,1.13-1,.44-1.87.59-2.16.89,1.65.19,2.03-.38,3.23-.18-.22.49-.96.76-1.7,1.1-.57.27-.84.64-1.46,1.06.59.09,1.27-.43,1.93-.34.3.14.38.44.02.61-.84.43-1.64.35-2.09,1.33,1.72,1.15,7.48-1.51,9.2-.34.52.35.32,1.27.02,1.99-.18.45-.57.71-.39,1.1.64,1.36,2.58-.16,3.43.94.57.75.7,2.04.81,3.24.1,1.12.04,3.21.79,2.57.85,1.33.36,3.36,1.34,4.42.45.49.82.2,1.16.22.2.01.43.26.54.54-.02,1.84-1.07,3.23-.34,4.5.98-.01,1.31-1.54,2.08-1.89.41.4.5,1.38.27,2.48.14.29.59.43,1.09.62.09,1.49.34,3.11.56,4.63l.12,9.62c.14.77.27,1.9.41,2.68,1.39-1.19,1.98-1.64,2.61-2.84.84-.08,1.85-1.74,2.4-2.71.71-1.24.72-2.62,1.49-3.78.58-.86,1.46-1.57,2.04-2.43-.02-1.75.17-2.42.31-3.58.12-1.02.27-1.89.69-2.83.12-.27.49-.33.82-.38l.16,1.75c.81-.87.45-2.26.6-3.53.16-.52.54-.56.91-.81v.74c.71-.26,1.56-1.84,1.72-2.21.86-1.99,1.09-2.87,1.81-4.44.23-.08.43-.2.66-.22.15-.07.07-.77-.08-1.35-.13-.51-.36-.68-.46-1.34-.26-1.69.2-1.82.11-2.51-.08-.67-.27-.86-.45-1.53-.17-.64-.2-1.84-.38-2.51-.16-.59-.5-1.31-.84-1.81-.57-.83-1.1-1.25-.92-1.88.07-.34.62-.5.89-.5-.04-1.01-.27-1.23-.47-1.7-.02-.97-.14-1.78-.21-2.43-.05-.38-.54-.96-1.05-1.6,1.02-.85.09-1.04-.2-1.82-.31-.86-.48-1.74-1.24-2.33.05-.25.2-.58.16-.86-.03-.25-.69-.56-1.27-1.07-.45-.4-.84-.96-.99-1.57.43.09.85,0,.96-.22.27-.57-.79-.82-.91-1.4.06-.67.36-1.52-.28-2.1.34-.14.9.03.96-.29.06-.33-.18-.43-.5-.61-.42-.23-1-.52-1.31-.83.02-.18,0-.64-.14-.75-.43-.33-.5-.43-1.02-.96-.12-.3-.07-.82-.29-1-.88-.71-1.89-.93-2.89-1.45-6.67,3.87-13.33,7.74-20,11.61h0Z"/>
      <path class="cls-8" d="m203.26,152.51c1.55.24,4.31.04,6.55.5,1.55.32,3.53,1.51,5.95,2.48.84-.76,1.79-1.56,2.28-2.12.34-.4.53-.62.82-.64.69-.04,1.85-.09,2.89-.13l.23-.2.17.42c.25-.11.64-.28.88-.3,1.31-.08,2.79-.05,3.58-.05.68-.14,1.76-1.11,2.68-2.15.75.46,1.41,3.33,2.17,3.79,2.92-.43,3.95-1.5,6.23-2.16,1.72-.49,4.38-.14,6.06-.88.23-.11.22.35.21.56-.36,4.15-4.35,7-5.34,7.43-.08.04-1.74.54-3.94.42,0,.27.01.73.16,1.04-.15.04-.4.06-.54,0-.41,1.51-.79,2.89-1.56,4.01-.68.86-2.24,1.65-4.61,2.39-.8.25-1.78.91-2.52,1.33-2.02,1.15-3.09,2.31-4.39,3.78-1.73,1.96-2.98,2.89-5.18,3.09-1.42.14-2.35-.74-3.53-.74-.64,0-2.06.21-2.5-.13-.81-.6-1.38-1.46-1.75-2.09-.35-.59-.32-1.43-.24-1.85-1.04-.96-1.72-1.41.52-3.2.7-.56,1.05-.49,1.79-1.06,1.42-1.09,3.87-2.96,4.11-3.87-.19-.23-.54-.54-1.04-.81.21-.05.44-.22.54-.37-1.09-1.19-3.17-.86-4.17-.73-.17-.2-.36-.28-.55-.37-.86-.4-1.97-.79-2.84-1.46-1.84-1.42-3.48-3.7-3.71-5.61-.06-.46-.1-.44.6-.33h0Z"/>
      <path class="cls-17" d="m203.26,152.51c1.55.24,4.31.04,6.55.5,1.54.32,3.52,1.5,5.92,2.47-.12.12-.25.24-.4.35-2.84-.63-5.19-.62-7.18-1.21-1.98-.59-3.85-1.41-5.4-2.17.09,0,.25.02.5.06h0Zm27.13-.25c.35.82.7,1.63,1.07,1.86,2.92-.43,3.95-1.5,6.23-2.16,1.72-.49,4.38-.14,6.06-.88.02,0,.04-.02.06-.02-.85.44-1.78,1.15-2.8,1.65-1.43.7-2.92.72-4.57,1.16-1.66.43-3.43.95-5.23,1.89-.63.05-1.77-.48-1.57-.74.18-.97.46-1.87.75-2.75h0Z"/>
      <path class="cls-17" d="m228.5,166.8c-.13.04-.25.08-.39.12-.8.25-1.78.91-2.52,1.33-2.02,1.15-3.09,2.31-4.39,3.78-1.73,1.96-2.98,2.89-5.18,3.09-1.42.14-2.35-.74-3.53-.74-.25,0-.6.03-.98.05-1.57-.44-2.17-1.65-2.61-3.09-.11-.34-.57-.47-.95-.64,0-.15.02-.28.04-.38-1.04-.96-1.72-1.42.52-3.2.61-.49.95-.5,1.52-.88.51-.25,1.01-.54,1.52-.73,1.75-1.29,2.55-2.15,3.68-3.13,1.14-.98,1.59-1.16,2.94-2.46.29-.02.59-.04.89-.07-.54-.27-.82-.93-1.12-1.12-.4.22-1.03-.17-1.4-.44.2-.36.53-.69,1.2-1.05.32-.62.77-1.26,1.09-1.91.37-.73.45-2.01.99-2.16h1.5c.25.45.05,1.38.41,1.36.46-.02.89-.65,1.58-.9.46-.16.87-.29,1.23-.29,1.08,0,1.2.56,2.27.99-.43.09-.75.04-1.18.14.31.98.82,1.77,1.77,2.11-.54-.48-.75-1.14-.14-.99.78.5.91-.39,1.4-.86.51.03.06.21,0,.35-.62,1.26-.62,3.01.11,3.75.27.28,1.51.89,2.8,1.16-.11.38-.21.85-.6,1.33.4.15.56.42.51.92-.04.53-.15,1.18-.71,1.62.29.25-.14.99-.52,1.5-.4.53-1.04,1.01-1.76,1.45h0Zm-5.95-3.27c-.36.42-.43.6-.83.99-.4.41-.81.57-2.13,2.1,1.37-.57,1.51.65,1.67.95.23-.5.44-1.01.6-1.43.14-.37.23-.72.37-1.14.18.17.48.17.6.07.48-.67,1.23-1.6.92-1.83-.51-.02-.82-.05-1.21.29h0Zm-1.29-7.95c-.2.75-1.05,1.89-1.75,3.27-.27.54-.32,1.27-.59,1.79-.22.43-.29.65-.69,1.11-.5.55-1.79,1.73-2.67,2.48-.03.56.07.91-.25,1.12-.51.36-1.2.53-1.66,1.13.23.03.49.15.73.29-.45.2-.69.38-.92.63.31.21.65.47.82.75-.43.43-.65.78-.93,1.03-.62.56-1.09.75-1.78,1.09.09.3.01.22.1.51.73.6,3.42,2.01,5.32,1.54,1.43-.36,3.2-2.19,4.68-3.18,1.48-.98,2.75-1.68,4.08-2.81,1.08-.91,2-2.25,2.68-3.33-.68-.16-1.3-.18-1.98-.14.23-.4.42-.8,1.09-1.09-.28-.69.19-1.15.48-1.67-.03-.46.03-.63-.18-1.2-.9.14-2.58-.27-3.85-.2-1.23.36-2.94,1.03-3.05,3.16-.01.32-.86.47-.93.09-.17-.91.09-1.94.5-3,.44-1.13,1.03-2.3,1.21-3.39.03-.2-.33-.53-.46,0h0Z"/>
      <path class="cls-4" d="m207.14,168.59c.51.59,1.59,1.28,2.38,1.46.79.19,1.38-.31,2.33-.57.44.07.92.2,1.36.34-.41,1.06-.82,1.39-1.33,1.74-.77.09-1.45.19-1.95.52-.43.28-.88.57-1.3-.3-.24-.48-.13-.75-.64-1.4v-.06c-.66-.62-1.18-1.04-.85-1.74h0Z"/>
      <path class="cls-4" d="m223.03,160.87c.51-.18,1.49-.14,2.08-.36.59-.22,1.18-.81,1.69-.99-.34-.31-1.11-1.11-2.1-.82-1.05.3-1.24,1.51-1.67,2.17h0Z"/>
      <path class="cls-4" d="m217.28,158.75c.26.41.32,1.13.36,1.7-.22.17-.28.25-.5.42-.09-.69-.58-1.21-.48-1.89.06-.42.49-.42.61-.22h0Z"/>
      <path class="cls-4" d="m233.82,156.6c1.06-.16,2.06-.72,2.95-1.05,1.14-.42,2.1-.6,2.78-1.15-.35.77-.7,1.41-1.05,1.93.29.11.46.21.75.32-.49.55-1.11.91-1.81.92-1.03.02-1.77-.09-3.61-.96h0Z"/>
      <path class="cls-4" d="m208.71,154.94c.05.48.5,1.09.73,1.26-.21.14-.57.4-.82.57.99.59,2.96.15,4.56-.16-1.52-.43-2.68-1.31-4.46-1.67h0Z"/>
      <path class="cls-13" d="m210.48,184.92c.27-.03.56-.05.92.01-.22.49-.96.76-1.7,1.1-.57.27-.84.64-1.46,1.06.59.09,1.27-.43,1.93-.34.3.14.38.44.02.61-.84.43-1.64.35-2.09,1.33,1.72,1.15,7.48-1.51,9.2-.34.52.35.32,1.27.02,1.99-.18.45-.57.71-.39,1.1.64,1.36,2.58-.16,3.43.94.57.75.7,2.04.81,3.24.1,1.12.04,3.21.79,2.57.85,1.33.36,3.36,1.34,4.42.45.49.82.2,1.16.22.2.01.43.26.54.54-.02,1.84-1.07,3.23-.34,4.5.98-.01,1.31-1.54,2.08-1.89.41.4.5,1.38.27,2.48.14.29.59.43,1.09.62.09,1.49.34,3.11.56,4.63l.12,9.62c.14.77.27,1.9.41,2.68,1.37-1.18,1.96-1.63,2.59-2.79-.41.09-.86.25-1.35.49.54-1.33,1.28-1.9,1.73-3.14.44-1.2.7-2.53,1.07-4,.19-.74.1-1.21.65-2.17.16-.29.34-.38.55,0,.21.38.49,1.03.9,1.35.16-1.85,1.07-2.16,1.5-3.25.49-1.25,1.32-3.17,1.19-4.63-1.45.03-1.61,1.26-2.67,1.41-.17-.37-.28-.84-.52-1.29-.52-.02-.92.27-1.27.53-.56-1.96.62-2.65.53-5.87-1.52-.13-2.12,2.02-3,3.28-.55-2.19.41-2.8-.06-5.1-.16-.81-1.32-1.26-1.74-2.41-.7-1.93-.77-4.68-1.1-5.96-.46-.18-.76-.45-.95-.79-.48-.81-.08-1.97-.11-2.9-.02-.73-.38-1.25-.95-1.43-.86.48-1.38,1.31-2.66.89-.39-.13-.06-.96.17-1.71-1.85.08-2.49-2.14-1.83-3.62-.05-.98.03-1.45.27-2.42.19-.76.61-1.71.37-2.5-.71.93-1.61,1.56-2.47,2.45-.75.79-1.64,1.63-3.23,2.05,1.57-1.49,1.79-2.19,1.12-2.16-.51.01-1.25.28-1.66.48-1.28.62-2.3,1.27-3.18,1.94-.91.68-1.67,1.59-2.6,2.19h0Z"/>
      <path class="cls-13" d="m238.43,197.86c.52-.13.79,1.06,1.31.93.36-.09.96-1.5,1.31-1.59.27.84-.31,1.75-.04,2.59.23-.04.39-.39.62-.63.24-.25.44-.51.43-.72-.02-.29-.21-.5-.23-.75-.04-.64.25-1.25.13-1.79-.12-.52-.85-.68-.95-.82-.12-.18-.39.77-.81,1.16-.92-.65-.67-1.16-.99-1.71-.12-.21-.4-.41-.52-.59-.45-.64-.7-.86-1.05-.81-.36-.52-.72-1.34-1.06-1.89-.48-.78-.98-1.41-1.45-2.13-.5-.77-.99-1.62-1.5-2.46-.13-.21-.86.01-.98-.21-.11-.21-.24-.77-.35-.98-.24-.46-.36-.57-.54-1.05-.25-.64.16-1.46.01-2.11-.27-1.15-1-1.91-.82-3.01.12-.72.25-1.3.54-1.97.29-.69.18-1.03.2-1.43.03-.52.36-.64.29-1.72-.06-.98-1.01-1.59-.88-2.09.09-.32.31-.62.73-.19.31.31.48.69.62.81.1.09.25.08.36-.12.24-.41-.5-1.57-1.4-2.32-.5-.42-1.15-.77-1.53-.88-.44-.14-.51.16-.39.51.05.16.03.37-.03.48-.09.16-.42.22-.54.09-.34-.35-1.72-1.28-2.46-1.05-.19.06-.25.41-.6.55-.27.11-.5.12-.57.3-.2.48.08.79.18,1.44-.37-.17-.9-.45-1.32-.03-.1.1-.16.37-.04.47.2.18.46-.03.86.48.33.43-1,.95-1.66,1.63-.26.27-.45.71-.32.91,1,1.57,3.38,2.1,3.65,3.17.1.39-.97.87-1.55,1.36-.64.53-.51.97-.35,1.22.88.05,3.95-.34,4.02.31.03.31-.57.41-.66.71-.14.48.18,1.14-.01,1.68-.16.45-.27.47-.45.88-.15.32-.12.89-.19,1.19-.08.35-.08.69-.52,1.07.1.22.51.4.8.32.49-.12,1-.5,1.38-1.17.05-.1.34.27.91.28-.3,1.08-.21,2.47-.21,3.56-.41.34-.73.57-.94,1.2-.22.66-.05,1.53-.34,2.14.1.41.85-.85.74-1.56.11.11.3.07.49.24.34.32.34.62.51,1.46.76-1.16.09-1.59.09-2.37.26.33.66.32.98.4.2-.12.44-.47.55-.8.43,1.48,1.02,2.82,1.54,3.56.41.6-.27,1.18-.68,1.83-.4.63.14.65.69.31-.13.21-.41.97-.48,1.4-.08.5.05.68-.05,1.15-.12.52-.42.76-.45,1.04-.03.36,0,.7,0,1.03,0,.2-.34.4-.32.59.04.46.16.88.39,1.21.24-.34.09-.96.88-1.17.32-.08.31-1.11.48-1.52.16-.42.15,1.21.37,1.04.2-.16.77-.41,1.01-1.13.56-1.69,1.12-3.22,1.37-3.61.09.84-.89,3.62-1,4.82.09-.07.38.71.59.32.71-1.35.81-2.4.87-2.1.3,1.59-.5,3.36-.18,2.97.38-.46,1.26-4.13,1.54-4.37h0Z"/>
      <path class="cls-15" d="m230.25,192.34c-1.1.8-1.98,1.79-2.48,3.66-.16.61-.32,1.56-.41,2.53-.12,1.33-.12,2.73.16,3.45.58-.66.49-1.51.71-2.21.13-.42.48-.81.79-.96.05,2.66.09,5.15.14,7.81.06.42.46.72.68.83.01-1.44.01-3.18.14-4.83.19-2.41.51-4.37.45-5.47-.31.42-.56.78-.86,1.2-.02-.6-.07-1.2.04-1.81,1.89-.42,3.26-1.61,4.26-3.04,1.14-1.61,1.91-4.08,1.93-6.24-.89.54-1.79,2.27-2.43,3.1-.19.25-.16.56-.28.85-.41.92-.95,2.15-1.52,2.9-.13.17-.52-.08-.7.13-.18.21-.14.58-.35.69-.14.08-.28.07-.43.07-.13-.73-.07-1.65.17-2.65h0Zm6.92-12.41c-.13,0-.22,1.25-.12,1.42.58,1.09.5,2.67.34,3.84-.17,1.18-.85,2.64-.65,3.87,1.06-1.28,1.54-2.93,1.74-5.34.01-.15.05-.62.34-.98.17.31.43,1.43.66,2.04.27-.96.44-1.36.64-1.65.25.58.35.89.41,1.9.26-1.03.36-1.94.19-3.11-.02-.18-.57-.05-.58-.04-.12.48-.42,1.1-.58,1.36-.11-.35-.34-.9-.56-1.26-.23-.37-.36.26-.59.63-.39-1.56-.77-2.71-1.23-2.69h0Zm3.06,16c.21-.75.17-1.53-.03-2.33-.25.95-.22,1.56.03,2.33h0Zm-6.84,7.48c.67-1.7,1.05-2.06,1.57-2.99v6.06c-.12.38-.22.5-.27,1.02.21.04.39.14.65-.04.48-.95.82-1.58,1.16-2.42.44-1.09.9-2.2,1.28-3.2.33-.88.55-1.7.89-2.4.23-.47.52-.89.75-1.24-.11.59-.12,1.18.27,1.77.55-.62.64-1.77.55-3.21-.07-.3-.91-.3-1.09.01-.82,1.32-1.58,3.57-2.32,5.27-.02-.89-.23-.56-.3-.79-.12-.39-.25-.8-.35-1.13.33-.82.71-2.11.69-2.96-.52,1.46-.58,1.66-.87,2.23-.15-.51-.26-1.24-.41-1.75-.14.08-.39.16-.53.24-.02.51-.05.85-.07,1.36-.48.96-.98,1.52-1.28,2.27-.23.58-.29,1.31-.32,1.9h0Zm-1.28-6.98c-.35.83-.87,2.52-1.48,4.18.24,1.38.21,3.89.32,4.73.42-1.3.32-3.24.54-4.65.22-1.5,1.22-3.28.62-4.26h0Z"/>
      <path class="cls-5" d="m189.69,269.14c-.89-8.3-3-19.27-2.87-26.76-.39-.62-.92-1.88-.8-3.25.1-1.17.81-2.47,1.68-3.61,2.23-2.9,5.69-5.83,6.16-11.73-.84-.16-1.31-.23-2.06-.37l.02-.07c1.22-3.32,1.48-4.41,1.58-6.55.23-5.05-.48-6.03-.44-9.24.02-1.57-.16-3.8.81-5.32,1.19.84,1.69,2.5,1.7,4.23,0,1.27-.08,2.59-.21,3.94-.18,1.79.29,2.5.4,4.34.19,3.09-.98,5.91-1.96,8.92,3.69,1.68,7.36,2.94,10.41,3.39-1.45,5.56-8.88,10.66-11.23,12.85-1.05,2.76-1.82,4.91-2.02,7.96-.1,1.57-.09,3.32.02,5.27.07,1.07.11,2.27.33,3.53.33,1.9.9,3.93,1.32,5.89l3,4.22c-1.59.68-4.25,1.66-5.85,2.34h0Z"/>
      <path class="cls-5" d="m222.3,224.92c.23,2.69,1.74,6.04,1.86,9.1.12,2.93-1.36,5.4-1.43,5.66-.48,1.86-.72,4.7-.73,6.75,1.88-.39,3.64-.79,5.52-1.18.44-2.36-.65-4.99-.22-7.35.48-2.67,3.27-6.18,4.4-15.12-.38,1.78-.96,3.59-2.85,4.99-.66-1.46-1.12-2.37-1.16-5.8-1.79-.09-3.77,1.91-5.39,2.94h0Z"/>
      <path class="cls-14" d="m228.03,152.52c1.09-4.87,2.6-6.87,3.08-9.2.44-2.13.89-4.95,1.5-8.65.11-.67.35-.57.33.11-.09,2.77-.3,7.54-.49,9.54-.35,1.85-1.75,4.27-2.04,7,.9-.22,5.46-3.18,5.92-3.72,1.04-1.23,1.68-2.12,2.87-4.04.77-1.24,1.68-3.17,1.88-5.16.03-.32.26-.29.23.03.18,1.97-.41,4.2-2.04,7.52-.37.75.34.35.9-.03,3.25-2.24,6.86-4.39,9.96-6.81,2.12-1.66,3.34-3.29,4.16-5.96.77-2.52,1.21-6.56,1.57-9.35.08-.65.4-.6.42.09.07,2.32.18,6.66-.14,9.58,2.78-3.4,5.52-10.69,4.24-13.2-.7-1.26-1.72-2.68-2.43-3.95-1.66-2.85-3.77-6.73-4.82-9.28-.15-.37-.07-.51.22-.24.77.7,3.17,4.19,4.32,6.11.61.64,2.1,2.46,2.67,3.21,1.74,2.3,2.81,3.25,3.73,3.83.57.36,1.3.42,1.81.04.76-.56,1.39-1.5,1.86-2.77.71-1.91,1.07-4,.99-6.04-.1-2.83-.82-4.38-.93-6-.02-.24.2-.44.29-.21.44,1.74,1.45,2.35,1.99,4.17.25.84.4,1.89.48,3.05.12,1.82.14,3.89.7,5.84-1.92,4.86-4.74,9.43-8.39,13.83-1.33,1.6-2.67,3.18-4.26,4.71-2.64,2.55-8.04,5.86-12.68,8.9-3.63,2.38-8.01,4.71-11.75,7.05-1.3.81-2.15,1.53-3.13,2.41-.31.28-.9.44-1.44.43-1.38-.03-2.95-.79-3.05-1.06-.13-.3.9-1.28,1.46-1.77h0Z"/>
      <path class="cls-12" d="m256.08,123.32c-.05,2.86-.46,7.98-1.29,11.84.5-.58.97-1.2,1.35-1.74.32-2.92.2-7.24.14-9.56-.01-.35-.1-.53-.19-.55h0Zm-14.93,14.88c.07-.07.18,0,.16.23.18,1.97-.41,4.2-2.04,7.52-.05.1-.08.18-.09.24-.05-.25-.04-.97.19-1.41,1.12-2.09,1.85-4.15,1.78-6.58h0Z"/>
      <path class="cls-9" d="m103.72,297.14l15.42-15.72,11.47-3.17.96,3.23,14.24-5.03,20.1-6.67.94,6.36,27.87-11.54,30.45-21.44,22.08-3.83,3.05,5.72,12.08.41-2.57,30.3,7.26-2.28,1.25,28.45-10.76,31.15-2.1,11.17c-55.12,14.46-106.82,6.17-151.75-47.1h0Z"/>
      <path class="cls-11" d="m130.63,278.28l-12.93,15.18,3.52-1.84-5.18,7.72-6.11,4.83c-2.08-2.25-4.15-4.59-6.2-7.02l15.42-15.72,11.47-3.17v.03Zm15.3-1.86l-16.11,17.31-8.41,3.86,6.32-7.85.17-.85,2.93-3.64-3.97,2.5-2.01.69,6.7-7,.02.06,14.24-5.03.11-.03Zm49.22-12.11l30.04-21.14,22.07-3.83-30.84,31.8-16.18,9.92,17.18-20.28,12.69-12.08-15.24,11.44-23.98,24.77-24.35,17.82,6.21-6.76-30.61,17.67,13.29-11.14,22.87-22.55,16.87-15.65Zm-31.49,77.79c-2.28-.89-4.56-1.84-6.82-2.88l8.08-6.95,10.27-9.38.04.91-3.86,7.56,3.44-1.75.91-.27-12.07,12.76Zm-9.84-4.32c-3.57-1.75-7.12-3.7-10.64-5.86l18.48-17.05,23.5-21.98,27.86-16.82-10.7,15.76-22.91,24.33-25.62,21.57.04.04Zm-13.12-7.42c-.79-.51-1.57-1.03-2.36-1.55l19.93-16.13,24.79-20.62-3.64,3.86-25.11,23.61-13.62,10.85Zm-4.19-2.8c-2.42-1.68-4.82-3.47-7.21-5.36l5.8-5.58,7.27-1.67,21.98-11.56-5.61,6.08-22.22,18.1Zm98.21-23.29l-13.45,10.79-5.65,2.49,1.97-3.45-14.6,12.9-10.07,11.5-2.81,6.62,5.17-1.36,27.99-25.48,11.46-14.01Zm8.82-26.33l3.11-.29,1.01.71-5.09,12.18-9.32,13.17-14.2,10.37,11.71-14.39,12.77-21.74Z"/>
      <path class="cls-6" d="m165.93,269.84l-16.55,19.76-.5-2.36-16.1,17.49-11.08,11.05c.72.65,1.43,1.28,2.16,1.9l11.86-9.72,14.36-13.43,9.37-10.03,7.41-8.39-.93-6.27Zm84.38-24.81h0s12.08.42,12.08.42l-2.57,30.3h.04s-3.23,7.64-3.23,7.64l-.43-6.07.25-21.88-3.42,6.49v-8.34s-11.17,22.73-11.17,22.73l-14.55,21.55-15.72,17.08,6.47-10.84,4.9-6.93,11.2-16.64,6.59-19.07-3.6,2.23,13.17-18.66Zm-22.85,104.52c-12.4,1.38-24.58,1.36-36.52-.35l11.09-8.91,31.75-28.91,5.68,6.48-13.2,26.34,1.21,5.34Zm-45.92-2.05c-.61-.13-1.21-.27-1.82-.41l6.51-8.32,4.66-4.86-9.35,13.59Z"/>
      <path class="cls-3" d="m212.6,71.88c77.6,0,140.54,62.93,140.54,140.54s-62.93,140.53-140.54,140.53-140.54-62.93-140.54-140.53,62.93-140.54,140.54-140.54h0Zm0,4.95c74.87,0,135.59,60.72,135.59,135.59s-60.72,135.59-135.59,135.59-135.59-60.71-135.59-135.59,60.72-135.59,135.59-135.59h0Z"/>
      <path class="cls-3" d="m313.94,83.36l8.45,6.82c1.22.99,1.41,2.79.43,4-.98,1.21-2.79,1.4-4,.43l-10.44-8.43c-1.37-1.1-1.67-2.92-.54-4.32l14.04-17.38c.98-1.21,2.78-1.41,4-.42,1.21.98,1.4,2.79.42,4l-12.36,15.3Z"/>
      <path class="cls-3" d="m332.61,100.5l7.34,8c1.06,1.15.98,2.96-.17,4.02-1.15,1.05-2.97.97-4.02-.17l-9.07-9.89c-1.19-1.3-1.22-3.14.11-4.35l16.46-15.1c1.15-1.06,2.96-.98,4.02.17,1.05,1.15.97,2.96-.17,4.02l-14.5,13.3Z"/>
      <path class="cls-3" d="m367.91,158.88l3.37,10.33c.49,1.49-.34,3.1-1.82,3.59-1.48.48-3.1-.34-3.59-1.82l-4.16-12.75c-.54-1.67.19-3.36,1.9-3.92l21.24-6.93c1.49-.48,3.1.34,3.59,1.82.48,1.48-.34,3.11-1.82,3.59l-18.7,6.1Z"/>
      <path class="cls-3" d="m228.23,29.15c.23-1.54,1.68-2.63,3.23-2.41l18.07,2.63c1.55.23,2.63,1.68,2.41,3.23-.23,1.54-1.69,2.63-3.23,2.41l-6.31-.92-2.87,19.66c-.22,1.54-1.68,2.63-3.22,2.4-1.54-.22-2.63-1.68-2.41-3.22l2.87-19.66-6.14-.89c-1.55-.23-2.63-1.68-2.41-3.22h0Z"/>
      <path class="cls-3" d="m46.04,134.31c-1.37-.75-1.88-2.5-1.12-3.86l8.79-16.01c.75-1.37,2.49-1.88,3.86-1.12,1.37.75,1.88,2.5,1.13,3.86l-3.06,5.59,17.41,9.55c1.37.75,1.88,2.49,1.12,3.86-.75,1.37-2.5,1.87-3.86,1.12l-17.41-9.55-2.99,5.44c-.75,1.37-2.49,1.88-3.86,1.12h0Z"/>
      <path class="cls-3" d="m278.86,46.93c-1.13,2.81-2.96,3.53-3.73,3.91.97,1.08,2.75,4.24,1.49,7.41-2.08,5.25-6.93,6.27-11.57,4.73l-9.43-3.12c-1.69-.56-2.5-1.94-1.94-3.63l7.07-21.32c.53-1.6,2.05-2.32,3.59-1.81l8.67,2.92c4.9,1.65,7.87,5.91,5.86,10.91h0Zm-9.88,5.2l-7.17-2.37-1.93,5.81,7.05,2.33c1.92.64,4.1.04,4.69-1.72.63-1.88-1-3.51-2.64-4.05h0Zm2.08-10.98l-5.77-1.91-1.81,5.46,5.75,1.91c1.74.57,4,.16,4.58-1.62.57-1.8-1.03-3.26-2.75-3.83h0Z"/>
      <path class="cls-3" d="m34.49,209.87c3.02.06,4.35,1.52,4.98,2.11.66-1.29,2.99-4.07,6.4-4.01,5.65.09,8.32,4.26,8.52,9.15l.41,9.93c.07,1.78-.93,3.02-2.71,3.1l-22.44.93c-1.68.07-2.9-1.1-2.96-2.72l-.34-9.15c-.19-5.16,2.74-9.45,8.14-9.33h0Zm8.36,7.4l.31,7.55,6.12-.25-.31-7.41c-.08-2.02-1.41-3.85-3.26-3.78-1.98.08-2.93,2.18-2.86,3.9h0Zm-11,1.94l.25,6.07,5.75-.24-.25-6.06c-.08-1.83-1.26-3.8-3.14-3.7-1.89.1-2.69,2.12-2.61,3.93h0Z"/>
      <path class="cls-3" d="m390.21,230.31c-3.01-.31-4.12-1.97-4.69-2.6-.77,1.23-3.41,3.9-6.8,3.57-5.62-.55-7.94-4.94-7.74-9.82l.41-9.93c.07-1.78,1.18-2.94,2.96-2.86l22.44.92c1.68.07,2.8,1.34,2.73,2.96l-.42,9.14c-.24,5.16-3.51,9.19-8.88,8.63h0Zm-7.72-8.06l.31-7.55-6.12-.25-.31,7.41c-.08,2.02,1.09,3.96,2.94,4.04,1.98.09,3.1-1.93,3.17-3.65h0Zm11.12-1.03l.25-6.07-5.75-.23-.25,6.05c-.08,1.83.94,3.89,2.82,3.95,1.89.05,2.85-1.89,2.93-3.7h0Z"/>
      <path class="cls-3" d="m292.59,61.94l5.69,3.17,1.08-8.5-6.77,5.33Zm5.01,8.97l-9.58-5.34-4.27,3.39c-1.22.97-3.02.76-4-.46-.97-1.22-.77-3.04.46-4l19.57-15.18c2.06-1.6,5.67.42,5.4,3.01l-2.57,24.66c-.16,1.55-1.61,2.68-3.16,2.5-1.55-.18-2.68-1.6-2.49-3.16l.63-5.42Z"/>
      <path class="cls-3" d="m375.79,136.12c.03-2.41-.53-4.46-1.9-6.76-1.02-1.71-2.47-3.1-4.4-3.73-2.46-.81-5.12-.13-7.33,1.12-2.44,1.39-4.46,3.7-4.7,6.56-.14,1.68.29,3.4,1.05,4.88,1.03,2.01,2.57,3.6,4.32,4.83,3.1,2.07.44,6.36-3.14,4.28-2.45-1.74-4.59-3.73-6.07-6.61-1.25-2.42-1.93-5.12-1.7-7.85.4-4.71,3.39-8.74,7.43-11.03,3.57-2.03,7.95-2.78,11.91-1.49,3.22,1.06,5.68,3.31,7.39,6.2,1.92,3.23,2.49,6.27,2.46,9.69-.33,4.11-5.63,3.46-5.34-.09h0Z"/>
      <path class="cls-3" d="m374.47,188.38c.7,4.7,3.44,5.69,6.64,5.22l14.5-2.16c1.55-.23,3.01.91,3.24,2.46.23,1.54-.86,3-2.39,3.23l-14.82,2.2c-4.81.71-11.18-2.11-12.38-10.16-1.19-8.05,4.07-12.38,9.5-13.19l14.24-2.12c1.55-.23,3,.85,3.23,2.39.23,1.54-.86,3.01-2.39,3.23l-14.45,2.08c-2.42.35-5.62,2.1-4.92,6.8h0Z"/>
      <path class="cls-3" d="m51.01,189.25c.65-4.71-2.52-6.54-4.9-6.87l-14.52-2.02c-1.55-.21-2.63-1.72-2.42-3.27.21-1.54,1.67-2.64,3.21-2.43l14.84,2.06c4.81.67,10.14,5.17,9.01,13.24-1.12,8.06-7.39,10.74-12.83,9.98l-14.26-1.98c-1.55-.21-2.64-1.66-2.43-3.21.21-1.54,1.67-2.65,3.21-2.43l14.45,2.07c2.42.35,5.98-.43,6.63-5.14h0Z"/>
      <path class="cls-3" d="m206.74,25.88c8.64-.63,14.52,5.39,15.09,13.3.57,7.91-4.31,14.71-13.01,15.34-8.7.63-14.52-5.39-15.09-13.3-.57-7.91,4.37-14.71,13.01-15.34h0Zm.51,5.41c-5.2.38-8.24,4.47-7.87,9.58.38,5.14,3.93,8.73,9.17,8.35,5.24-.38,8.07-4.43,7.69-9.57-.37-5.11-3.78-8.74-8.99-8.36h0Z"/>
      <path class="cls-3" d="m168.57,31.08c8.34-2.36,15.31,2.34,17.48,9.97,2.16,7.63-1.07,15.27-9.47,17.65-8.39,2.38-15.48-2.33-17.65-9.96-2.16-7.63,1.3-15.3,9.64-17.66h0Zm1.6,5.19c-5.02,1.43-7.16,6.05-5.77,10.98,1.41,4.96,5.62,7.75,10.67,6.32,5.05-1.43,7-5.97,5.59-10.93-1.4-4.93-5.48-7.79-10.5-6.37h0Z"/>
      <path class="cls-3" d="m67.38,95.35c5.12-6.99,13.51-7.57,19.91-2.88,6.4,4.68,8.42,12.81,3.27,19.85-5.15,7.04-13.51,7.57-19.91,2.89-6.4-4.69-8.39-12.86-3.27-19.86h0Zm4.45,3.11c-3.08,4.21-1.93,9.17,2.21,12.2,4.16,3.04,9.19,2.66,12.3-1.58,3.1-4.24,1.85-9.01-2.31-12.06-4.13-3.03-9.11-2.77-12.19,1.44h0Z"/>
      <path class="cls-3" d="m132.41,44.18l12.7-5.66c1.43-.63,3.05,0,3.67,1.39.61,1.38.07,3.05-1.4,3.7l-10.5,4.67,2.34,5.27,9.29-4.14c1.43-.63,3,.03,3.61,1.41.61,1.38.03,2.94-1.39,3.57l-9.3,4.14,3.52,7.9c.64,1.42-.01,3.12-1.44,3.75-1.42.64-3.12-.02-3.75-1.44l-9.16-20.57c-.72-1.63.12-3.24,1.81-3.99h0Z"/>
      <path class="cls-3" d="m92,72.46l20.32,5.89-10.28-12.6c-.99-1.21-.8-3.01.41-4,1.21-.98,3.02-.8,4,.4l13.6,16.67c1.51,1.85,1.33,3.7.36,4.91-1.06,1.31-2.65,1.81-4.37,1.32l-20.17-5.79,10.2,12.5c.99,1.21.81,3.01-.41,4-1.21.98-3.01.8-4-.41l-14.05-17.22c-1.08-1.33-.88-3.39.3-4.57,1.19-1.19,2.55-1.55,4.1-1.1h0Z"/>
      <path class="cls-3" d="m33.11,162.82c-.51-1.42.24-3.02,1.66-3.53l10.6-3.79-6.06-9.41c-.82-1.27-.41-3,.87-3.8,1.29-.81,3-.42,3.8.87l6.59,10.66,11.77-4.41c1.42-.53,3.01.23,3.53,1.66.52,1.42-.23,3.02-1.65,3.53l-10.69,3.83,6.1,9.48c.82,1.27.41,3-.87,3.8-1.29.81-3.01.42-3.8-.87l-6.57-10.72-11.76,4.35c-1.42.52-3.02-.23-3.53-1.66h0Z"/>
      <path class="cls-3" d="m159.55,388.72c.35-1.4,1.8-2.27,3.21-1.92l3.04.76,3.71-14.79-2.27.52c-1.42.33-2.85-.55-3.18-1.97-.33-1.41.57-2.84,1.97-3.18l5.79-1.41c.95-.23,2.02,0,2.84.55.99.67,1.62,1.82,1.27,3.23l-4.62,18.43,2.28.58c1.41.35,2.28,1.8,1.92,3.21-.35,1.41-1.8,2.27-3.21,1.92l-10.84-2.72c-1.41-.35-2.27-1.8-1.92-3.21h0Z"/>
      <path class="cls-3" d="m205.14,384.33c2.32,1.59,3.68,4.01,3.39,7.16-.51,5.5-5.66,7.69-11.55,7.14-5.89-.55-10.31-3.63-9.8-9.13.28-3.05,1.97-5.15,4.42-6.31-1.62-1.32-2.51-3.21-2.28-5.66.45-4.86,4.97-7.26,10.22-6.77,5.25.49,9.25,3.68,8.8,8.55-.22,2.37-1.42,4.01-3.2,5.03h0Zm-6.05-8.52c2.18.2,3.92,1.43,3.75,3.25-.17,1.83-2.13,2.49-4.31,2.28-2.18-.2-3.84-1.2-3.66-3.03.17-1.83,2.04-2.71,4.23-2.51h0Zm-.86,10.7c2.62.25,5.01,1.69,4.79,4.05-.22,2.36-2.89,3.32-5.51,3.08-2.62-.24-4.95-1.67-4.74-4.03.22-2.36,2.84-3.34,5.46-3.1h0Z"/>
      <path class="cls-3" d="m216.3,374.48c-.07-1.46,1.08-2.73,2.55-2.8l14.53-.7c1.37-.06,2.47.25,3.09,1.62.6,1.32.22,2.43-.3,3.66l-8.73,20.89c-.6,1.44-2.3,2.11-3.74,1.48-1.43-.62-2.11-2.31-1.48-3.74l8.01-18.4-11.12.54c-1.47.07-2.73-1.07-2.8-2.55h0Z"/>
      <path class="cls-3" d="m243.34,371.74c-.36-1.42.53-2.89,1.95-3.25l14.16-3.54c1.32-.33,2.45-.21,3.31,1,.84,1.19.68,2.34.42,3.64l-4.48,22.2c-.31,1.53-1.85,2.51-3.38,2.18-1.52-.32-2.52-1.86-2.18-3.38l4.26-19.62-10.8,2.7c-1.43.36-2.89-.52-3.25-1.95h0Z"/>
      <path class="cls-3" d="m133.4,358.62c3.24,0,5.87,2.63,5.87,5.87,0,2.38-1.43,4.52-3.63,5.43-2.19.91-4.72.41-6.4-1.27-1.68-1.68-2.18-4.2-1.27-6.4.91-2.19,3.05-3.62,5.42-3.62h0Z"/>
      <path class="cls-3" d="m292,358.33c3.24,0,5.87,2.63,5.87,5.87,0,2.37-1.43,4.52-3.63,5.42-2.19.91-4.71.41-6.39-1.27-1.68-1.67-2.18-4.2-1.27-6.39.91-2.2,3.05-3.62,5.42-3.62h0Z"/>
    </g>
  </g>
</svg>