<?xml version="1.0" encoding="UTF-8"?>
<svg id="Layer_2" data-name="Layer 2" xmlns="http://www.w3.org/2000/svg" xmlns:xlink="http://www.w3.org/1999/xlink" viewBox="0 0 2427.37 2647.02">
  <defs>
    <style>
      .cls-1 {
        clip-path: url(#clippath);
      }

      .cls-2 {
        fill: none;
      }

      .cls-2, .cls-3, .cls-4, .cls-5, .cls-6, .cls-7, .cls-8, .cls-9, .cls-10, .cls-11 {
        stroke-width: 0px;
      }

      .cls-4 {
        fill: #f47a00;
      }

      .cls-5 {
        fill: #485b00;
      }

      .cls-6 {
        fill: #bd0e2e;
      }

      .cls-7 {
        fill: #fff;
      }

      .cls-8 {
        fill: #ffe900;
      }

      .cls-9 {
        fill: #ff0e17;
      }

      .cls-10 {
        fill: #0034ff;
      }

      .cls-11 {
        fill: #00944c;
      }
    </style>
    <clipPath id="clippath">
      <polygon class="cls-2" points="1687.34 1825.74 755.54 1825.74 137.46 746.97 97.88 877.68 50.93 1144.55 137.46 1542.04 396.78 2005.5 895.53 2272.85 1226.27 2323.91 1529 2272.85 1947.71 2068.99 2258.76 1686.61 2373.31 1315.23 2373.31 827.48 2292.7 746.97 1687.34 1825.74"/>
    </clipPath>
  </defs>
  <g id="Capa_10" data-name="Capa 10">
    <polygon class="cls-7" points="1208.61 536.35 1800.68 1577.26 2378.98 536.35 1208.61 536.35"/>
  </g>
  <g id="Capa_11" data-name="Capa 11">
    <polygon class="cls-9" points="50.96 536.35 643.02 1577.26 1221.33 536.35 50.96 536.35"/>
  </g>
  <g id="Capa_1" data-name="Capa 1">
    <polygon class="cls-11" points="1221.38 578.37 1790.12 1566.11 1226.26 2585.11 643.08 1577.1 1221.38 578.37"/>
  </g>
  <g id="Capa_9" data-name="Capa 9">
    <path class="cls-5" d="m0,507.17h2427.37l-1201.06,2139.85L0,507.17Zm1224.78,2018.22l1103.53-1966.39H97.91l1126.86,1966.39Z"/>
  </g>
  <g id="Capa_8" data-name="Capa 8">
    <g class="cls-1">
      <path class="cls-7" d="m2328.24,1146.61c0,612.44-496.45,1108.89-1108.89,1108.89S110.37,1759.05,110.37,1146.61,606.92,37.53,1219.36,37.53s1108.89,496.65,1108.89,1109.08M1228.44,281.36c-476.08,0-862,385.92-862,862s385.92,862.1,862,862.1,862-385.91,862-862.1-385.92-862-862-862"/>
      <path class="cls-3" d="m1219.36,2272.97c-152.03,0-299.48-29.74-438.41-88.55-134.06-56.6-254.63-137.88-358.09-241.44-103.46-103.36-184.64-223.84-241.44-357.9-58.71-138.93-88.45-286.47-88.45-438.41s29.74-299.76,88.45-438.51c56.8-134.25,137.98-254.63,241.44-358.09,103.46-103.36,224.03-184.64,358.09-241.43,138.93-58.8,286.38-88.45,438.41-88.45s299.57,29.64,438.51,88.45c134.06,56.8,254.54,138.07,357.99,241.43,103.46,103.46,184.64,223.84,241.44,358.09,58.71,138.75,88.54,286.38,88.54,438.51s-29.83,299.48-88.54,438.41c-56.8,134.05-137.98,254.54-241.44,357.9-103.46,103.56-223.94,184.83-357.99,241.44-138.93,58.8-286.47,88.55-438.51,88.55m0-2217.97c-147.35,0-290.2,28.98-424.83,85.97-129.94,54.98-246.7,133.58-346.9,233.78-100.3,100.3-179,217.06-233.88,347-56.99,134.53-85.77,277.48-85.77,424.93s28.78,290.11,85.77,424.74c54.89,130.04,133.58,246.79,233.88,347,100.21,100.21,216.96,179,346.9,233.88,134.63,56.89,277.49,85.77,424.83,85.77s290.3-28.88,424.83-85.77c130.04-54.88,246.79-133.68,347-233.88,100.3-100.21,178.9-216.96,233.88-347,56.99-134.63,85.77-277.48,85.77-424.74s-28.78-290.39-85.77-424.93c-54.98-129.95-133.58-246.7-233.88-347-100.21-100.21-216.96-178.81-347-233.78-134.53-56.99-277.39-85.97-424.83-85.97m9.08,1967.92c-118.66,0-233.88-23.23-342.31-69.13-104.8-44.37-198.89-107.67-279.59-188.56-80.8-80.8-144.19-174.79-188.46-279.5-45.9-108.53-69.13-223.65-69.13-342.41s23.24-233.88,69.13-342.32c44.27-104.8,107.67-198.88,188.46-279.59,80.7-80.7,174.79-144.19,279.59-188.46,108.43-45.8,223.65-69.13,342.31-69.13s233.88,23.33,342.31,69.13c104.7,44.27,198.79,107.76,279.59,188.46,80.8,80.71,144.19,174.79,188.46,279.59,45.9,108.43,69.13,223.56,69.13,342.32s-23.24,233.88-69.13,342.41c-44.27,104.71-107.67,198.7-188.46,279.5-80.8,80.89-174.89,144.19-279.59,188.56-108.43,45.89-223.65,69.13-342.31,69.13m0-1724.1c-114.07,0-224.61,22.28-328.74,66.36-100.59,42.55-190.95,103.46-268.4,180.91-77.64,77.64-138.55,168-181.1,268.5-43.99,104.22-66.36,214.76-66.36,328.74s22.37,224.7,66.36,328.83c42.55,100.49,103.46,190.85,181.1,268.4,77.45,77.64,167.81,138.46,268.4,181.01,104.13,44.08,214.66,66.36,328.74,66.36s224.61-22.28,328.74-66.36c100.5-42.55,190.95-103.36,268.4-181.01,77.64-77.54,138.55-167.9,181-268.4,44.08-104.13,66.46-214.76,66.46-328.83s-22.37-224.51-66.46-328.74c-42.45-100.5-103.36-190.86-181-268.5-77.45-77.46-167.91-138.36-268.4-180.91-104.13-44.08-214.76-66.36-328.74-66.36"/>
    </g>
  </g>
  <g id="Capa_4" data-name="Capa 4">
    <path class="cls-4" d="m1687.47,489.62c0,261.71-212.18,473.89-473.89,473.89s-473.88-212.18-473.88-473.89S951.87,15.74,1213.58,15.74s473.89,212.18,473.89,473.88"/>
    <path class="cls-3" d="m1561.41,142.86C1469.24,50.77,1346.75,0,1216.52,0s-252.91,50.77-344.99,142.86c-92.18,92.18-142.85,214.66-142.85,344.99s50.68,252.71,142.85,344.99c92.08,92.08,214.66,142.95,344.99,142.95s252.72-50.87,344.9-142.95c92.08-92.27,142.95-214.76,142.95-344.99s-50.87-252.82-142.95-344.99m118.57,344.99c0,71.52-16.16,140.56-46.66,203.09-5.93,3.16-21.71,10.33-36.62,6.69-14.25-3.54-24-18.26-27.73-24.67,5.93-36.53,6.98-91.22,2.87-144.19-3.73-47.72-13.29-115.79-37.67-168.86-39.3-85.39-132.62-195.25-192.38-212.66-1.43-9.47-2.96-26.3,1.24-39.59,3.73-12.14,28.02-35.09,46.76-49.92,57.18,23.05,109.67,57.47,154.42,102.41,87.49,87.49,135.78,203.85,135.78,327.68m-299.76,146.77c-17.78-49.91-66.26-102.98-81.75-119.04,3.25-18.07,8.13-67.41-22.28-121.82-34.52-61.87-106.9-83.67-121.34-87.49,22.37-33.56,67.22-98.96,82.33-114.45,14.06-14.44,37.39-30.03,92.46-22.38,45.9,6.5,141.32,111.39,182.34,200.7,41.4,89.78,42.93,242.49,32.32,302.73-9.66,54.21-40.54,94.38-80.51,104.61-25.72,6.69-44.27-.48-52.02-4.49-2.96-20.37-13.87-89.22-31.55-138.36m6.12,133.68l-529.63,8.89v2.96c-51.35-63.11-84.81-137.78-97.72-217.63,30.21,8.04,95.43,21.9,184.26,21.9,13.67,0,27.92-.29,42.65-.95,127.65-6.31,263.43-41.69,295.65-50.49,14.92,15.68,59.95,65.4,75.83,109.86,14.82,41.4,24.96,99.54,28.97,125.45m-22.95-720.3c-16.35,13.96-38.34,35.19-43.7,52.4-4.49,14.53-4.11,31.17-2.96,43.22-42.26-2.96-73.34,7.08-96.96,31.27-21.71,22.18-88.64,122.97-91.41,127.17l1.43,1.06c-26.39-3.35-77.64-11.09-150.41-28.21-27.92-6.5-53.64-9.94-76.88-11.28,2.2-6.59,11-25.43,44.94-71.62,50.58-68.75,151.46-145.14,166.38-156.24,33.28-7.46,67.6-11.38,102.69-11.38,50.58,0,100.02,8.13,146.87,23.62m-474.55,112.16c46.57-46.67,101.45-82.24,161.21-105.08-38.25,31.84-89.5,78.02-122.2,122.48-23.81,32.42-39.39,56.9-46.28,72.86-1.15,2.68-3.16,7.37-3.82,12.43-29.55-.09-53.35,2.96-69.99,6.02,21.23-39.49,48.38-76.11,81.09-108.71m-94.85,136.83c7.46-2.01,23.9-5.83,46.85-8.03,29.74-2.77,76.88-3.44,133,9.66,105.28,24.57,164.85,30.21,173.84,30.88,8.32,2.19,76.69,21.42,107.19,76.11,25.82,46.09,22.47,88.35,19.89,104.03-31.75,8.61-165.04,43.32-290.2,49.44-73.72,3.54-133.96-3.35-171.63-9.85-27.73-4.88-47.43-10.04-57.37-13.1-1.63-15.97-2.49-31.94-2.49-48.28,0-66.93,14.05-131.67,40.92-190.86m750.22,518.54c-87.49,87.49-203.96,135.78-327.68,135.78s-240.29-48.29-327.68-135.78c-4.78-4.59-9.28-9.47-13.77-14.25l521.98-8.7c7.07,4.11,23.43,12.05,46.28,12.05,8.03,0,16.92-1.06,26.58-3.44,42.17-11,75.83-47.33,91.79-97.53,7.36,7.56,17.02,14.63,29.16,17.6,4.88,1.14,9.75,1.72,14.44,1.72,3.92,0,7.74-.39,11.28-.96-19.79,33.75-43.98,65.11-72.38,93.51"/>
  </g>
  <g id="Capa_7" data-name="Capa 7">
    <polygon class="cls-11" points="1221.38 578.37 986.54 983.89 1472.48 983.89 1221.38 578.37"/>
    <polygon class="cls-5" points="632.41 1525.75 1226.3 496.42 1810.34 1525.75 1777.54 1591.26 1221.42 632.77 667.88 1602.15 632.41 1525.75"/>
  </g>
  <g id="Capa_6" data-name="Capa 6">
    <g>
      <path class="cls-3" d="m260.82,1248.39c7.74-6.5,11.57-16.63,11-26.68-1.05-18.07-15.59-29.54-33.27-28.59-17.98,1.14-30.12,14.25-29.07,32.6.57,9.57,5.74,19.03,13.48,24.77l-35.47,2.1c-3.54-9.65-6.21-16.63-6.79-25.81-.96-15.78,4.3-31.27,14.34-43.7,10.61-13.1,25.05-19.7,41.98-20.65,15.49-.96,30.79,4.11,42.55,14.35,12.14,10.52,19.89,26.29,20.84,42.26.57,9.47-1.05,18.35-4.21,27.34l-35.38,2.01Z"/>
      <polygon class="cls-3" points="220.47 1321.1 226.3 1356.1 201.53 1360.22 190.83 1295.96 303.18 1277.12 308.05 1306.48 220.47 1321.1"/>
      <path class="cls-3" d="m345.89,1458.11l-61.48,17.88c-14.06,4.21-28.21,7.65-41.88-.19-11.76-6.51-19.12-19.8-22.85-32.61-3.73-12.82-4.68-28.11,1.72-39.88,7.27-13.96,21.13-18.55,35.19-22.75l61.48-17.88,8.22,28.4-57.56,16.83c-14.15,4.11-29.36,9.66-24.1,27.92,5.35,18.26,21.13,14.82,35.38,10.71l57.66-16.92,8.22,28.49Z"/>
      <path class="cls-3" d="m252.71,1532.77l104.22-46.09,17.12,38.63c8.13,18.55,6.5,34.14-13.48,42.94-9.37,4.11-18.36,4.49-26.29-2.01l-.29.09c4.69,15.77-2.58,26.58-17.12,32.99-21.8,9.65-37.19-5.84-45.71-24.86l-18.45-41.69Zm32.8,17.88l1.43,3.44c3.54,7.94,9.08,21.8,20.65,16.64,12.62-5.64,5.35-18.36,1.43-27.25l-1.15-2.77-22.37,9.94Zm42.45-18.84l1.43,2.96c3.15,7.27,7.65,14.15,16.45,10.33,9.56-4.3,6.41-13,3.15-20.27l-.86-2.01-20.18,8.99Z"/>
      <path class="cls-3" d="m438.91,1648.02l26.01,37.1c14.06,19.98,14.44,40.35-6.98,55.45-21.9,15.4-39.97,10.24-54.79-10.9l-9.66-13.77-30.89,21.71-17.02-24.29,93.32-65.31Zm-25.82,54.21l2.87,4.11c6.12,8.79,12.24,17.4,23.62,9.47,11.76-8.22,6.22-16.35-.38-25.82l-2.87-4.11-23.23,16.35Z"/>
      <path class="cls-3" d="m545.47,1864.13c-26.96,25.05-63.97,23.53-88.92-3.34-24.86-26.68-23.9-63.78,3.06-88.93,25.24-23.43,63.49-17.88,85.86,6.12,22.38,24.1,25.24,62.73,0,86.15m-64.92-69.61c-14.34,13.49-15.01,33.76-2.96,46.76,12.05,13,32.32,13.77,46.85.48,11.47-10.71,12.14-31.17.09-44.17-12.05-12.82-32.51-13.77-43.98-3.06"/>
      <polygon class="cls-3" points="571.73 1930.16 598.98 1953.02 582.92 1972.14 533.01 1930.46 605.96 1843.06 628.62 1861.99 571.73 1930.16"/>
      <polygon class="cls-3" points="634.12 2008.87 609.93 1991.76 675.53 1898.72 699.81 1915.74 634.12 2008.87"/>
      <path class="cls-3" d="m726.48,1934.63l36.53,20.47c27.73,15.58,38.34,50.2,22.66,78.02-15.68,28.02-50.87,36.81-78.41,21.42l-36.62-20.65,55.84-99.25Zm-17.69,91.89l5.74,3.26c15.49,8.7,33.27,7.65,44.27-11.67,9.94-17.79,3.82-34.43-12.72-43.7l-6.02-3.54-31.27,55.65Z"/>
      <polygon class="cls-3" points="855.45 2028.33 848.18 2045.83 879.07 2058.64 869.41 2081.88 838.62 2069.06 831.16 2087.23 863.68 2100.62 854.02 2123.85 794.16 2099.18 837.67 1993.81 897.62 2018.57 887.96 2041.81 855.45 2028.33"/>
      <path class="cls-3" d="m926.83,2029.13l43.41,12.43c23.62,6.79,36.72,22.28,29.64,47.52-7.46,25.72-24.57,33.18-49.43,26.01l-16.16-4.59-10.33,36.34-28.49-8.13,31.36-109.58Zm14.06,58.42l4.78,1.44c10.33,2.96,20.46,5.84,24.29-7.55,3.92-13.77-5.45-16.73-16.45-19.8l-4.88-1.43-7.74,27.34Z"/>
      <path class="cls-3" d="m1145.68,2129.81c-5.16,36.43-34.8,58.52-71.14,53.45-36.14-5.07-58.71-34.33-53.64-70.95,4.68-34.04,38.06-53.83,70.47-49.34,32.41,4.59,59.09,32.61,54.31,66.83m-94.28-13.1c-2.68,19.51,9.66,35.67,27.16,38.16,17.4,2.39,33.85-9.75,36.53-29.26,2.2-15.49-10.13-31.84-27.73-34.23-17.5-2.39-33.85,9.75-35.95,25.33"/>
      <path class="cls-3" d="m1272.81,2190.37l-36.91-.57-27.16-44.27h-.29l-.76,43.89-29.55-.48,1.72-113.97,44.37.76c22.57.29,39.4,11.28,39.01,35.66-.29,15.68-9.28,29.07-25.44,31.84l35,47.14Zm-64.06-63.88l2.87.1c9.66.09,20.56-1.63,20.75-13.87.19-12.33-10.61-14.44-20.27-14.63l-2.87-.09-.48,28.49Z"/>
      <polygon class="cls-3" points="1351.51 2181.37 1322.16 2184.72 1312.21 2096.47 1287.83 2099.14 1285.06 2074.28 1363.08 2065.49 1365.85 2090.44 1341.57 2093.12 1351.51 2181.37"/>
      <polygon class="cls-3" points="1438.9 2166.53 1409.83 2172.27 1387.55 2060.58 1416.52 2054.85 1438.9 2166.53"/>
      <polygon class="cls-3" points="1514.68 2100.41 1520.61 2026.12 1551.31 2016.56 1538.59 2139.81 1516.6 2146.6 1437.23 2052.03 1467.93 2042.47 1514.68 2100.41"/>
      <path class="cls-3" d="m1700.7,2006.95c15.97,33.18,3.44,67.98-29.55,83.86-32.99,15.87-67.98,3.92-83.95-29.16-14.92-31.08,1.72-65.98,31.36-80.22,29.45-14.25,67.22-5.45,82.14,25.53m-85.67,41.4c8.51,17.6,27.82,24.29,43.7,16.74,15.97-7.74,22.76-26.97,14.25-44.75-6.79-14.05-26.01-20.65-41.98-13.1-15.97,7.74-22.85,26.97-15.97,41.12"/>
      <path class="cls-3" d="m1841.68,1887.43c-9.75-2.67-20.18-.19-28.21,5.93-14.34,11.19-15.49,29.64-4.59,43.6,10.9,14.15,28.68,16.92,43.31,5.64,7.55-5.93,12.43-15.59,12.62-25.24l21.8,28.11c-5.93,8.41-10.13,14.44-17.4,20.18-12.53,9.65-28.21,14.15-44.08,12.81-16.83-1.15-30.41-9.37-40.73-22.75-9.56-12.24-14.15-27.73-12.24-43.13,1.72-15.97,10.23-31.36,22.85-41.21,7.55-5.83,15.78-9.47,24.96-12.05l21.71,28.11Z"/>
      <path class="cls-3" d="m1928.51,1883.25l8.51,19.51-22.09,22.37-50.01-111.49,22.85-22.85,111.01,49.82-22.28,22.47-19.12-8.7-28.88,28.88Zm-27.16-56.22l-.19.29,17.02,34.23,17.4-17.5-34.23-17.02Z"/>
      <path class="cls-3" d="m2010.79,1702.07c-10.14-.19-19.6,4.97-25.72,13.1-11,14.35-7.36,32.41,6.6,43.22,14.34,10.9,32.22,8.99,43.41-5.64,5.83-7.74,7.94-18.26,5.83-27.73l28.21,21.51c-3.54,9.66-6.02,16.73-11.66,24.1-9.56,12.62-23.62,20.94-39.2,23.71-16.64,3.16-31.94-1.34-45.42-11.57-12.33-9.37-20.65-23.24-22.85-38.63-2.39-15.97,1.91-32.89,11.66-45.61,5.74-7.55,12.72-13.38,20.94-17.98l28.21,21.51Z"/>
      <polygon class="cls-3" points="2034.2 1640.31 2050.55 1650.07 2067.66 1621.48 2089.18 1634.38 2072.06 1662.98 2088.89 1673.11 2106.96 1642.79 2128.48 1655.8 2095.2 1711.36 1997.48 1652.84 2030.75 1597.19 2052.27 1610.1 2034.2 1640.31"/>
      <path class="cls-3" d="m2188.48,1530.78l-15.2,33.56-51.54,7.36-.09.29,39.97,18.07-12.24,26.96-103.75-47.14,18.26-40.26c9.28-20.46,26.1-31.55,48.19-21.61,14.44,6.51,23.14,20.08,19.12,36.05l57.28-13.29Zm-84.14,33.27l1.24-2.58c3.92-8.79,6.69-19.5-4.49-24.58-11.28-5.07-17.4,4.11-21.42,12.91l-1.24,2.59,25.91,11.66Z"/>
      <polygon class="cls-3" points="2123.95 1443.43 2142.11 1449.18 2152.34 1417.52 2176.15 1425.08 2165.92 1456.92 2184.66 1462.94 2195.47 1429.38 2219.28 1437.03 2199.48 1498.7 2091.05 1463.9 2110.75 1402.23 2134.65 1409.88 2123.95 1443.43"/>
      <path class="cls-3" d="m2123.51,1340.95l-1.72-.19c-4.68-.76-9.08-2.58-12.62-5.64-4.11-3.44-6.79-9.37-5.93-14.72,1.43-7.55,8.51-17.4,9.47-23.33.67-3.73-1.34-5.16-4.21-6.88l2.3-12.72c10.52,2.87,22.28,11,19.89,23.62-1.34,7.65-8.32,14.63-9.47,21.61-.67,3.54,1.82,4.69,4.49,6.12l-2.2,12.14Zm-3.82,32.31l5.26-29.16,78.22-40.92.1-.29-68.56-12.43,5.26-29.16,112.16,20.46-5.26,28.97-78.41,41.02-.1.29,68.75,12.43-5.45,29.16-111.97-20.37Z"/>
      <path class="cls-3" d="m2200.79,1112.5c36.91.86,62.25,27.92,61.39,64.45-.86,36.52-27.54,62.43-64.45,61.48-34.33-.96-57.85-31.75-56.99-64.45.76-32.8,25.72-62.44,60.05-61.48m-2.1,95.04c19.6.58,34.33-13.57,34.8-31.36.38-17.6-13.58-32.42-33.28-32.9-15.59-.38-30.41,13.67-30.79,31.46-.38,17.59,13.58,32.41,29.26,32.79"/>
    </g>
  </g>
  <g id="Capa_5" data-name="Capa 5">
    <path class="cls-6" d="m1971.89,672.28s-2.68.58-6.22,1.53c4.3.19,6.22-1.53,6.22-1.53"/>
    <path class="cls-6" d="m1966.05,676.61c-.1,0-.29,0-.48-.09l-18.17-.48,17.5-4.87c3.63-.96,6.22-1.63,6.41-1.63l10.81-2.49-8.42,7.27c-.29.29-2.87,2.29-7.65,2.29"/>
    <path class="cls-9" d="m1982,777.77c2.68,14.54,7.55,12.82,7.55,12.82,0,0,12.14,0,17.59,10.9,5.45,10.9,5.45,21.13,5.45,21.13,0,0,9.66-10.81,3.63-24.2-6.12-13.29-15.01-14.63-12.33-27.25,2.58-12.81,7.36-34.04-14.34-38.82-21.9-4.97-44.27,7.17-43.7,35.76.57,28.49,61.29,104.89,53.93,128.6-5.07,16.83-30.12,25.91-44.17,29.83h-.1c-3.63-6.12-9.08-6.12-33.94-21.9-24.86-15.77-31.55-46.09-31.55-52.78s-6.69-12.81-4.78-26.1c1.72-13.38,18.17-24.28,18.17-24.28,0,0-10.33-17.02,2.68-30.98,13-13.96,25.24-11.47,25.24-11.47,0,0,0-26.01,2.96-38.82,3.06-12.81,13.96-15.2,13.96-15.2,0,0-2.39-17.69-1.24-22.47.86-3.25,11.67-6.79,18.65-8.7-1.91,0-4.21-.48-7.08-1.62-9.08-3.64-6.02-10.9-6.02-19.99s-21.9-40.06-32.22-45.51c-10.33-5.36-24.29,1.82-39.4,6.79-15.2,4.69-29.74-6.79-29.74-6.79l-11,5.45s.67,4.31,4.88,12.14c4.21,7.84,22.47,20.56,22.47,20.56l6.69,23.14s-4.21,2.39-10.33,1.14c-6.12-1.14-4.88-14.53-12.14-24.28-7.27-9.66-23.71-1.72-35.19,1.91-11.47,3.64-10.33-16.45-19.41-15.77-9.08.67-6.12,21.8,11.48,26.68,17.69,4.88,34.61-11.57,38.92-2.39,4.21,8.99-14.53,8.51-14.53,8.51l2.39,23.04s17.59-2.49,18.84,6.03c1.15,8.51-7.36,14.53-24.29,13.38-17.02-1.24-4.3-18.26-13.39-15.77-9.08,2.39-1.82,17.6-2.39,23.62-.57,6.12-12.72,10.32-23.14,6.79-10.23-3.73-4.78-14.63-4.78-14.63,0,0-14.53,2.96-18.84,12.62-4.3,9.85,13.39,15.2,13.86,24.28.67,9.18-16.92,4.97-22.28,4.97s-33.37-31.55-35.95-36.43c-2.39-4.97-.48-24.86-1.72-35.86-1.24-10.9-13.39-17.6-13.39-17.6,0,0,1.82,17.02-4.21,21.9-6.02,4.79-20.75-11.57-20.75-11.57,0,0,3.73,20.65.67,29.83-3.06,8.99-16.35,11.47-16.35,11.47,0,0,17.02,4.87,26.1,11.47,9.08,6.69,6.02,13.39,9.08,27.35,3.06,13.96,12.14,12.14,15.78,26.1,3.63,13.86-23.14,16.45-23.14,16.45l29.26-.67s2.39,9.66-1.34,27.83c-3.54,18.26-19.89,32.13-19.89,32.13l28.49-14.44s4.21,7.27,4.88,17.5c.57,10.42-12.81,20.08-12.81,20.08l25.53.67s-15.78,27.25-26.2,32.8c-10.23,5.36-21.23-3.82-21.23-3.82l-16.25,8.51s11.47,3.63,13.87,15.77c2.39,12.14-13.87,26.1-13.87,26.1,0,0,8.51-4.78,19.98-6.59,11.47-1.82,23.14,7.84,23.14,7.84,0,0-3.73-18.84,4.11-26.01,7.94-7.37,16.45.57,16.45.57l19.98-23.05,27.25-12.81s13.39,17.12,39.49,29.73c26.1,12.72,56.41-5.45,58.33,3.16,1.72,8.42,1.15,17.5-16.45,20.56-17.59,2.96-34.61-7.37-49.15-10.33-14.53-3.06-64.93,22.47-64.93,22.47,0,0,8.42,3.64,16.45,16.92,7.84,13.39-19.51,26.78-19.51,26.78l24.29-5.54s3.63.67,9.66,11.57c6.12,10.9-9.66,26.01-9.66,26.01l23.14,3.16s-4.3,13.29-18.84,18.84c-14.53,5.35-36.43-20.65-36.43-20.65,0,0,.57,7.17-3.63,19.31-4.3,12.14-30.98,12.82-30.98,12.82,0,0,16.45,4.87,24.86,13.29,8.51,8.51,5.45,21.33,5.45,21.33l25.53-.67s1.82-5.45,9.08-10.9c7.27-5.45,17.59-2.39,17.59-2.39,0,0-3.63-8.51,0-17.02,3.63-8.51,17.02.67,17.02.67,0,0,17.02-24.28,21.8-34.14,4.88-9.66-6.12-14.44-10.23-33.94-4.3-19.41,51.54-48.48,58.14-42.46,6.79,6.12-7.94,19.51-19.41,32.8-11.47,13.29-5.45,21.8-.57,38.25,4.88,16.35,2.96,28.49,2.96,28.49l7.94-12.14,11.57,6.69c11.47,6.6,18.17,27.25,18.17,27.25,0,0,1.82-7.84,4.3-16.35,2.39-8.51,25.43-15.11,38.15-18.17,12.81-2.96,28.59,25.43,20.65,35.19-7.84,9.66-29.74-5.45-29.74-5.45l-20.65,14.54s11.57.57,13.39,9.75c1.82,8.99-7.94,13.29-7.94,13.29l24.96,4.88s11.48-7.84,21.8-10.9c10.42-2.96,0,21.8,0,21.8l26.1-13.96s0-6.6,2.49-14.54c2.39-7.94,10.9-23.04,10.9-23.04,0,0-6.69,0-15.78-9.18-9.08-9.09,0-25.34,0-25.34,0,0-5.45-7.46-16.45-12.81-10.9-5.45-1.82-14.63-8.51-21.8-6.69-7.37-16.92,6.02-26.01,8.42-9.08,2.49-23.14-19.51-23.14-19.51,0,0,14.63-14.44,27.92-25.33,8.41-6.89,10.14-19.22,10.14-27.25,17.98-7.17,53.16-25.15,51.82-56.51-1.82-41.88-56.51-96.48-53.45-123.82,3.06-27.25,24.86-24.86,26.1-16.92,1.24,7.84-5.83,12.82-3.25,27.25"/>
    <path class="cls-9" d="m1967.71,1138.16l2.87-7.07c3.25-7.94,5.26-16.55,4.11-18.36-.1,0-.38.09-.86.19-9.75,2.87-20.94,10.52-21.04,10.61l-.96.67-34.52-6.79,8.03-3.44c.29-.19,7.65-3.64,6.22-10.42-1.34-6.89-10.71-7.46-10.81-7.46l-7.84-.48,28.69-20.27,1.43,1.14c5.26,3.54,20.94,12.34,26.2,6.03,2.96-3.73,1.34-12.62-3.73-20.65-4.49-7.08-10.14-11.19-14.15-10.14-20.65,4.87-34.9,11.28-36.34,16.25-2.39,8.32-4.11,16.16-4.11,16.16l-2.3,9.66-3.06-9.27c-.09-.29-6.41-19.8-16.92-25.82l-9.28-5.36-13.39,20.47,1.91-12.43c0-.19,1.63-11.86-2.96-27.35-.76-2.68-1.63-5.07-2.39-7.56-3.92-11.76-6.98-20.94,3.54-33.27,2.01-2.29,4.11-4.49,6.12-6.79,7.65-8.42,17.12-18.93,13.58-22.09-2.87-1.53-21.04,4.78-37.58,17.12-11.57,8.7-17.5,16.92-16.26,22.75,1.91,8.22,4.97,13.67,7.46,18.17,3.16,5.93,6.02,10.8,2.68,17.6-4.88,9.75-21.32,33.27-22.09,34.32l-1.43,2.11-2.29-1.34c-2.77-2.01-8.13-4.59-11.09-3.64-.57.19-1.24.48-1.82,1.72-3.16,7.36,0,14.72,0,14.82l2.2,5.45-5.55-1.72c-.09-.09-9.08-2.58-15.11,2.01-6.41,4.88-8.22,9.47-8.22,9.47l-.57,1.91-1.91.1-28.97.76.77-3.44c0-.1,2.58-11.57-4.69-18.75-7.94-8.03-23.62-12.62-23.71-12.62l-16.73-5.07,17.4-.29c6.89-.19,25.44-2.49,28.4-11,4.02-11.28,3.54-18.17,3.54-18.17l-.67-8.51,5.55,6.41c5.64,6.88,22.85,23.71,33.28,19.79,9.08-3.34,13.67-9.94,15.78-13.96l-25.05-3.34,4.02-3.92c4.02-3.82,13.39-15.4,9.18-22.75-3.82-7.08-6.5-9.28-7.55-9.94l-45.99,10.32,20.85-10.23c4.59-2.2,16.83-9.66,19.03-17.12.57-2.01.38-3.92-.76-5.74-7.27-12.33-15.01-15.87-15.11-15.87l-5.26-2.3,5.07-2.67c5.26-2.59,51.63-25.73,66.74-22.66,4.88,1.05,9.85,2.77,15.01,4.59,10.8,3.82,21.9,7.65,33.18,5.64,6.6-1.06,11.09-3.25,13.1-6.31,1.82-2.58,2.1-5.93,1.05-11-1.15-.76-7.08.39-11.47,1.24-11.57,2.2-29.26,5.45-45.32-2.39-21.8-10.62-34.9-24.2-39.01-28.78l-24.96,11.57-21.42,24.77-2.01-1.91c-.77-.57-6.98-6.02-12.72-.57-5.55,5.07-4.3,18.65-3.44,23.52l1.53,7.56-5.93-4.97c-.09-.1-10.8-8.89-20.84-7.27-10.9,1.72-19.03,6.21-19.12,6.31l-3.06-4.3c4.11-3.73,14.73-14.92,13-23.62-2.1-10.33-11.76-13.58-12.14-13.67l-6.22-1.91,23.81-12.43,1.34,1.15c.1.09,9.66,7.94,18.26,3.34,6.69-3.54,17.12-18.74,22.57-27.73l-28.88-.76,6.6-4.69c3.35-2.49,11.95-10.52,11.57-17.6-.29-6.31-2.1-11.37-3.35-14.15l-46.57,23.81,17.5-15.11c.19-.09,15.78-13.48,19.22-30.59,2.39-12.43,1.91-20.85,1.53-24.48l-26.77.48-.29-5.35c4.3-.48,16.16-2.68,19.79-7.84,1.05-1.62,1.34-3.15.76-5.26-1.53-6.02-4.3-8.79-7.17-11.57-3.25-3.16-6.89-6.69-8.51-14.54-.96-4.49-1.34-8.12-1.72-11.28-.77-6.89-1.05-10.42-6.41-14.35-8.51-6.4-25.05-11.19-25.24-11.19l-11.19-3.25,11.48-2.1c.09,0,11.76-2.29,14.34-9.66,2.3-6.89.29-22.85-.76-28.31l-1.72-9.56,6.5,7.17c6.02,6.79,14.53,13.1,16.83,11.19,3.73-2.96,3.82-14.35,3.25-19.41l-.48-5.16,4.49,2.49c.57.29,13.39,7.55,14.82,19.7.38,4.69.38,10.9.38,17.02,0,6.98,0,15.68,1.15,17.88,2.49,4.97,28.78,33.76,33.47,34.91,1.05,0,2.77.19,4.78.38,4.21.48,12.24,1.34,14.34-.76.29-.29.57-.67.48-1.63-.19-2.87-3.44-5.83-6.5-8.7-4.68-4.31-10.42-9.57-7.27-16.83,4.78-10.8,20.18-14.06,20.85-14.25l5.45-1.15-2.49,4.97c-.57,1.15-1.82,4.88-.67,7.46.57,1.53,1.82,2.58,3.92,3.34,6.31,2.2,13.29,1.15,16.92-1.34,1.43-.86,2.49-2.01,2.49-3.06.19-1.44-.38-4.02-.86-6.6-1.34-6.69-3.44-17.11,5.35-19.41.77-.19,3.35-.86,5.26.67,1.91,1.53,1.91,4.21,1.82,6.6,0,4.68-.09,7.93,7.17,8.51,9.18.57,16.45-1.06,19.7-4.49,1.43-1.63,2.01-3.54,1.72-5.84-.67-4.3-11.09-4.39-15.78-3.82l-2.77.38-3.06-28.78,3.06.09c4.4.1,11-.86,12.24-2.87.09-.1.48-.48-.19-1.82-.96-2.01-3.54-1.53-10.9,1.06-7.36,2.39-16.54,5.45-26.2,2.87-12.53-3.44-19.31-15.11-18.46-23.81.57-4.88,3.35-8.04,7.55-8.32,5.93-.48,8.61,5.07,10.71,9.37,3.06,5.93,4.59,7.74,8.03,6.5,1.63-.57,3.54-1.24,5.35-1.72,11.38-3.92,25.43-8.89,32.8.86,3.73,5.07,5.45,10.81,6.69,15.3,1.15,3.92,2.2,7.65,3.83,7.94,2.77.57,4.88.29,6.5-.1l-5.74-19.79c-3.63-2.59-18.45-13.48-22.57-21.04-4.4-8.12-5.07-12.81-5.07-13.1l-.29-1.82,14.25-7.17,1.34,1.05c.19.09,13.58,10.62,27.25,6.31,2.96-1.05,5.93-2.01,8.8-3.06,12.05-4.3,23.33-8.32,32.61-3.54,11.47,6.02,33.66,37.96,33.66,47.9,0,2.2-.09,3.92-.29,5.84-.38,6.79-.38,9.65,4.68,11.76,2.2.76,4.3,1.34,6.22,1.34l18.07.57-17.4,4.88c-12.05,3.25-16.26,5.93-16.83,6.79-.76,3.06.38,14.72,1.34,21.23l.38,2.58-2.58.57c-.29.1-9.28,2.29-11.86,13.1-2.96,12.33-2.96,37.96-2.96,38.24v3.25l-3.25-.57c-.48-.09-10.9-1.91-22.66,10.71-11.57,12.24-2.49,27.44-2.39,27.63l1.34,2.2-2.1,1.53c-.19.1-15.39,10.42-17.02,22.38-1.05,7.55.86,12.62,2.58,16.92,1.15,2.96,2.3,5.64,2.3,8.7,0,4.87,5.55,34.81,30.31,50.49,10.33,6.69,17.21,10.42,22.28,13.2,5.93,3.25,9.08,4.97,11.38,7.94,13.96-4.11,35.95-12.72,40.54-27.45,3.44-11.57-12.62-40.54-27.06-65.98-13.77-24.57-26.87-48-27.16-61.77-.38-17.02,6.89-26.48,13-31.55,8.89-7.27,21.32-9.85,34.04-7.08,24.1,5.36,19.22,28.88,16.64,41.4l-.19.77c-1.43,6.5.67,9.08,4.4,13.77,2.39,2.87,5.26,6.41,7.74,11.76,6.69,14.82-3.63,26.78-4.11,27.16l-4.78,5.36v-7.08c0-.09,0-9.94-5.16-20.08-4.11-8.42-13.29-9.28-14.82-9.37-1.05.09-2.29.09-3.63-.57-3.16-2.01-5.45-6.6-6.89-14.44-1.63-9.18.29-14.92,1.91-19.41.96-2.96,1.72-5.36,1.34-8.04-.29-1.34-2.58-2.96-5.93-2.87-6.12.09-13.1,5.35-14.72,19.89-1.34,12.05,10.33,31.26,22.66,51.63,13.96,22.95,29.74,49.05,30.79,71.71.57,13.67-5.45,39.39-51.73,58.33-.38,9.18-2.77,20.75-11.28,27.63-10.42,8.7-21.99,19.7-26.01,23.72,5.35,7.93,14.34,17.59,18.84,16.45,2.87-.76,6.02-2.96,9.18-4.97,6.12-4.11,13.67-9.18,19.6-2.68,3.63,4.02,3.54,8.42,3.44,12.05-.19,4.31-.29,6.89,4.3,9.09,11.28,5.74,17.02,13.29,17.31,13.67l1.05,1.24-.86,1.72c-.1.09-7.94,14.63-.48,22.08,8.03,8.04,13.87,8.42,13.87,8.42l4.49.09-2.1,3.92c-.09.1-8.41,14.92-10.71,22.47-2.3,7.46-2.3,13.77-2.3,13.77v1.62l-34.23,18.36Zm6.98-30.88c2.1,0,3.44,1.05,4.11,1.72,2.96,3.34,1.34,11.09-.67,17.3l18.45-9.75c.1-2.58.67-7.74,2.39-13.67,1.82-5.93,6.79-15.4,9.47-20.36-3.25-1.06-7.94-3.54-13.58-9.09-8.7-8.7-3.54-22.28-1.34-27.06-2.01-2.1-6.79-6.88-14.34-10.71-7.65-3.73-7.46-9.47-7.36-14.15.19-3.64.19-6.03-1.91-8.23-2.49-2.67-5.93-.86-12.53,3.64-3.54,2.29-7.17,4.59-10.9,5.64-10.42,2.77-23.52-16.73-26.01-20.56l-1.15-1.91,1.43-1.53c.19-.19,14.92-14.82,28.11-25.63,7.46-6.12,9.18-17.21,9.18-25.15v-1.91l1.82-.67c15.49-6.12,51.25-23.81,49.91-53.83-.86-21.13-16.35-46.67-30.02-69.13-13.29-21.99-24.86-41.12-23.33-55.08,2.01-17.88,12.05-24.48,20.08-24.67,6.02-.09,10.71,3.06,11.47,7.55.57,4.02-.48,7.17-1.72,10.52-1.34,4.3-2.96,8.99-1.53,16.83,1.53,8.51,3.63,10.14,4.21,10.42h.57c.57,0,13.96.19,20.08,12.43,2.49,5.07,3.92,10.04,4.69,13.96,1.43-3.82,1.91-8.99-.57-14.63-2.1-4.78-4.68-7.84-6.98-10.61-4.02-4.97-7.46-9.18-5.55-18.36l.1-.67c3.35-16.25,5.07-31.08-12.33-34.99-11.09-2.49-21.8-.19-29.45,5.92-7.46,6.22-11.09,15.49-11,27.25.29,12.52,13.67,36.34,26.58,59.19,16.25,29.06,31.65,56.41,27.35,70.18-5.55,18.07-31.27,27.54-46.09,31.65l-2.01.57-1.05-1.72c-1.82-2.96-3.83-4.02-10.61-7.74-4.78-2.68-12.05-6.69-22.57-13.39-24.77-15.58-32.89-46.28-32.89-55.08,0-1.91-.76-4.21-1.82-6.69-1.82-4.78-4.21-10.71-2.96-19.7,1.53-11.67,12.81-21.23,17.4-24.77-2.39-5.45-7.08-19.79,4.3-32.03,9.94-10.62,19.6-12.34,24.38-12.43.19-7.27.67-26.1,3.15-36.62,2.49-10.52,9.75-14.92,13.58-16.35-.57-5.16-1.91-17.12-.86-21.32.38-1.34.96-4.02,11.57-7.84-7.46-3.73-6.98-10.23-6.5-16.45.19-1.82.29-3.44.29-5.45,0-8.7-22.38-38.63-30.69-43.03-7.27-3.73-16.92-.29-28.3,3.73-2.96,1.06-6.02,2.2-9.08,3.06-13.58,4.49-26.49-3.16-30.79-6.03l-7.46,3.73c.67,1.91,1.72,5.07,4.11,9.47,3.15,5.93,16.64,16.16,21.61,19.7l.76.39,7.55,26.2-1.91.96c-.19.09-5.16,3.06-12.14,1.63-4.88-1.06-6.41-6.22-7.94-11.77-1.34-4.49-2.77-9.47-5.83-13.67-5.07-6.59-16.54-2.58-26.68.96-1.91.76-3.73,1.34-5.55,1.91-8.51,2.68-12.05-4.49-14.44-9.37-2.01-4.02-3.44-6.4-5.55-6.31-1.82.09-2.39,1.91-2.39,3.34-.67,5.74,4.02,15.11,14.44,18.07,7.94,2.2,16.26-.67,22.85-2.87,7.17-2.39,14.53-4.88,17.69,1.91,1.53,3.35.67,5.74-.19,7.17-2.68,4.02-9.56,4.88-13.87,5.16l1.91,17.3c5.74-.38,17.88-.09,19.03,8.7.57,3.92-.57,7.56-3.15,10.33-4.4,4.68-12.91,6.98-24,6.12-12.43-.86-12.24-9.66-12.14-13.86,0-.58,0-1.53-.1-2.11,0,0-.19,0-.29.09-3.25.86-2.96,4.97-1.34,13.1.57,3.16,1.24,6.02.96,8.22-.29,2.68-2.01,5.26-4.97,7.17-4.68,2.96-13.39,4.69-21.71,1.82-3.63-1.24-6.02-3.44-7.27-6.59-.86-2.11-.86-4.49-.57-6.5-4.3,1.62-10.14,4.68-12.33,9.75-1.43,3.34.76,5.83,5.93,10.61,3.83,3.64,7.84,7.27,8.22,12.43.19,3.06-1.15,4.79-2.1,5.93-4.02,3.82-12.14,2.87-18.74,2.11-1.82-.19-3.35-.29-4.3-.29-7.84,0-36.53-34.42-38.25-37.86-1.63-3.25-1.72-9.85-1.72-20.36,0-5.93.1-11.95-.38-16.35-.57-5.54-4.49-9.75-7.65-12.43,0,5.93-.86,14.72-5.55,18.45-5.16,4.02-13-1.05-18.45-5.93.67,6.98,1.24,16.92-.67,22.85-1.72,5.26-6.31,8.61-10.42,10.62,5.83,2.2,13.77,5.45,19.12,9.47,7.36,5.26,7.94,11,8.61,18.26.29,3.06.67,6.41,1.53,10.52,1.34,6.41,4.02,8.89,6.98,11.86,3.16,3.06,6.79,6.5,8.8,14.15.86,3.63.38,6.88-1.63,9.75-1.15,1.72-2.77,3.06-4.59,4.21l11.76-.29.57,2.19c.1.29,2.49,10.52-1.24,29.07-1.72,8.8-6.21,16.64-10.61,22.38l17.5-8.89,1.34,2.2c.09.39,4.59,7.94,5.26,18.84.38,6.98-4.49,13.39-8.61,17.59l23.23.58-2.3,4.02c-.67,1.05-16.35,28.01-27.16,33.75-9.56,5.07-19.22-.29-22.85-2.87l-10.04,5.35c3.92,2.49,8.99,7.17,10.61,15.21,1.34,6.88-2.3,13.96-6.31,19.4,2.77-.76,5.83-1.62,9.28-2.19,7.65-1.15,15.3,2.19,19.98,4.97-.48-6.6,0-17.02,5.83-22.38,6.41-6.02,13.58-3.92,17.98-1.24l18.55-21.52,29.93-13.86,1.24,1.62c.19.19,13.39,16.83,38.53,28.98,14.44,7.17,30.31,4.02,41.88,1.91,9.28-1.72,16.54-3.06,17.78,3.06.96,4.11,1.72,10.13-1.72,15.1-2.96,4.49-8.41,7.37-16.83,8.7-12.72,2.29-24.96-2.01-35.76-5.83-5.07-1.82-9.94-3.54-14.34-4.4-10.23-2.1-42.65,12.24-58.81,20.08,3.44,2.58,8.41,7.36,13.1,15.3,1.91,3.16,2.3,6.6,1.24,10.23-1.34,4.4-4.97,8.61-8.99,11.86l10.23-2.29.57.09c1.34.29,5.55,2.01,11.57,13,4.97,8.99-2.01,19.6-6.6,25.25l21.13,2.87-1.05,3.06c-.19.67-4.78,14.73-20.37,20.65-7.08,2.59-15.87-.38-26.3-8.79-3.44-2.68-6.5-5.64-8.8-7.94-.38,3.44-1.34,8.13-3.35,13.77-2.87,8.13-13.48,11.77-21.99,13.29,5.16,2.39,11.09,5.64,15.3,9.94,6.69,6.79,6.98,15.58,6.69,20.37l20.56-.48c1.15-2.3,3.92-6.31,9.18-10.42,5.07-3.83,11.28-4.11,15.49-3.64-.76-3.73-1.15-9.18,1.24-14.63,1.05-2.49,2.87-4.2,5.35-4.97,4.59-1.34,10.23,1.24,13.39,2.96,4.21-6.02,16.25-23.81,20.18-31.55,1.91-4.02.76-6.5-2.58-12.43-2.68-4.78-5.93-10.81-7.94-19.7-3.44-15.4,22.28-31.46,30.21-36.15,2.68-1.53,26.1-14.72,32.51-8.99,7.55,6.98-2.49,18.07-13.2,29.83-1.91,2.29-4.02,4.49-6.02,6.79-8.51,9.94-6.41,16.35-2.49,27.93.86,2.39,1.63,4.87,2.49,7.74,2.3,7.74,3.16,14.53,3.35,19.7l4.11-6.22,13.67,7.94c7.65,4.39,13.1,13.86,16.25,20.84.67-2.58,1.43-5.45,2.3-8.32,2.58-9.37,23.24-16.07,40.16-20.08,7.84-1.82,15.59,5.26,20.08,12.53,5.55,8.79,8.7,20.36,3.35,27.06-2.87,3.44-8.8,6.6-21.04,1.63-4.49-1.72-8.61-4.21-10.81-5.54l-14.15,9.94c3.92,1.62,8.32,4.59,9.47,10.52,1.15,5.35-1.05,9.47-3.92,12.43l17.69,3.44c3.06-2.01,12.72-8.13,21.71-10.72.76-.29,1.53-.38,2.3-.38"/>
  </g>
  <g id="Capa_3" data-name="Capa 3">
    <path class="cls-3" d="m1326.2,1035.02h-187.8v912.58h75.92v-391.94h111.87c34.04,0,61.67-27.63,61.67-61.68v-397.3c0-34.04-27.63-61.67-61.67-61.67m-9.37,439.94c0,5.36-4.4,9.66-9.75,9.66h-83.09c-5.35,0-9.66-4.3-9.66-9.66v-357.42c0-5.35,4.3-9.66,9.66-9.66h83.09c5.35,0,9.75,4.31,9.75,9.66v357.42Z"/>
    <path class="cls-3" d="m1572.32,1552.28c-10.71,12.62-26.58,20.65-44.46,20.65h-583.27c-30.03,0-54.31-24.48-54.31-54.5v-34.81c0-30.03,24.29-54.5,54.31-54.5h579.26c24.19,0,45.23,13.96,55.55,34.23l55.17-31.17c-20.27-38.06-60.33-63.97-106.42-63.97h-603.45c-58.9,0-106.61,47.81-106.61,106.91v51.82c0,59,47.71,106.9,106.61,106.9h610.72c34.8,0,65.88-15.59,86.63-40.35l-49.72-41.21Z"/>
    <path class="cls-3" d="m1453.11,1670.64c-44.94,50.97-110.82,83.09-184.16,83.09-135.68,0-245.55-109.86-245.55-245.55s109.87-245.55,245.55-245.55c70.38,0,133.77,29.55,178.61,76.97l51.16-50.58c-57.75-60.63-139.32-98.39-229.77-98.39-175.36,0-317.45,142.09-317.45,317.55s142.09,317.55,317.45,317.55c93.9,0,178.42-40.92,236.56-105.75l-52.4-49.34Z"/>
  </g>
  <g id="Capa_2" data-name="Capa 2">
    <polygon class="cls-8" points="537.87 650.09 499.63 650.09 482.32 664.63 482.32 690.15 493.32 703.73 493.32 769.32 464.15 789.41 464.15 832.15 476.01 849.36 476.01 1036.87 452.39 1061.54 452.39 1117.86 499.63 1157.92 708.93 1157.92 760 1117.86 760 1058.77 735.42 1034.19 735.42 844.87 740.78 823.06 740.78 784.72 716.3 766.55 716.3 700.2 724.42 690.15 724.42 660.99 711.71 650.09 671.64 650.09 658.93 658.22 658.93 691.02 667.15 703.73 667.15 759.29 641.62 759.29 641.62 656.4 652.62 640.91 652.62 603.62 632.54 590.14 569.81 590.14 553.36 604.58 553.36 644.64 563.4 655.54 563.4 759.29 545.24 759.29 545.24 702.87 552.41 688.34 552.41 662.9 537.87 650.09"/>
    <path class="cls-3" d="m533.94,761.81h8.8v25.53h-8.8v-25.53Zm-4.78-4.79v35.38h18.45v-33.18h-2.49v-2.2h-15.97Z"/>
    <path class="cls-3" d="m566.67,761.81h8.89v25.53h-8.89v-25.53Zm-3.35-4.79v2.2h-1.44v33.18h18.46v-35.38h-17.02Z"/>
    <path class="cls-3" d="m612.11,792.39h-18.45v-35.38h18.45v35.38Zm-13.58-4.97h8.8v-25.63h-8.8v25.63Z"/>
    <path class="cls-3" d="m630.33,761.81h8.89v25.53h-8.89v-25.53Zm-4.78-4.79v35.38h18.45v-33.18h-2.39v-2.2h-16.06Z"/>
    <path class="cls-3" d="m662.23,761.81h8.8v25.53h-8.8v-25.53Zm4.88-4.79v2.2h-9.75v33.18h18.45v-35.38h-8.7Z"/>
    <polygon class="cls-3" points="479.51 778.72 479.51 800.9 476.74 802.05 476.74 780.63 473.01 783.12 473.01 807.5 483.24 803.39 483.24 776.14 479.51 778.72"/>
    <path class="cls-3" d="m494.04,769.39l2.77-1.06v26.39l-2.77,1.15v-26.48Zm-.76-3.54v3.44l-2.96,2.01v30.03l10.23-4.02v-34.33l-7.27,2.87Z"/>
    <polygon class="cls-3" points="723.65 803.33 733.79 807.44 733.79 779.52 730.06 776.84 730.06 802.09 727.48 800.94 727.48 774.83 723.65 772.06 723.65 803.33"/>
    <path class="cls-3" d="m710.18,794.83v-26.48l2.68,1.14v26.49l-2.68-1.15Zm-3.82,2.39l10.13,4.02v-34.23l-10.13-4.11v34.32Z"/>
    <rect class="cls-3" x="489.72" y="842.49" width="4.88" height="29.64"/>
    <rect class="cls-3" x="572.91" y="833.98" width="4.88" height="32.8"/>
    <rect class="cls-3" x="630.09" y="833.98" width="4.78" height="32.8"/>
    <rect class="cls-3" x="572.91" y="984.01" width="4.88" height="32.8"/>
    <rect class="cls-3" x="630.09" y="984.01" width="4.78" height="32.8"/>
    <rect class="cls-3" x="603.32" y="869.17" width="4.78" height="36.62"/>
    <rect class="cls-3" x="603.32" y="945.19" width="4.78" height="36.62"/>
    <rect class="cls-3" x="543.46" y="945.19" width="4.78" height="36.62"/>
    <rect class="cls-3" x="548.34" y="1106.4" width="4.88" height="24.19"/>
    <rect class="cls-3" x="513.72" y="1106.4" width="4.78" height="24.19"/>
    <rect class="cls-3" x="689.28" y="1106.4" width="4.88" height="24.19"/>
    <rect class="cls-3" x="654.47" y="1106.4" width="4.88" height="24.19"/>
    <rect class="cls-3" x="660.78" y="945.19" width="4.88" height="36.62"/>
    <rect class="cls-3" x="543.46" y="1016.71" width="4.78" height="36.62"/>
    <rect class="cls-3" x="660.78" y="1016.71" width="4.88" height="36.62"/>
    <rect class="cls-3" x="712.32" y="838.48" width="4.78" height="33.66"/>
    <rect class="cls-3" x="489.72" y="912.1" width="4.88" height="29.73"/>
    <rect class="cls-3" x="501.39" y="871.37" width="4.78" height="36.81"/>
    <rect class="cls-3" x="701.61" y="871.37" width="4.88" height="36.81"/>
    <rect class="cls-3" x="720.93" y="871.37" width="4.88" height="36.81"/>
    <rect class="cls-3" x="484.37" y="874.24" width="4.88" height="36.81"/>
    <rect class="cls-3" x="712.32" y="908.38" width="4.78" height="33.46"/>
    <rect class="cls-3" x="489.72" y="980" width="4.88" height="29.64"/>
    <rect class="cls-3" x="531.41" y="1082.78" width="4.88" height="24.1"/>
    <rect class="cls-3" x="673.31" y="1082.78" width="4.88" height="24.1"/>
    <rect class="cls-3" x="531.41" y="1132.41" width="4.88" height="24.19"/>
    <rect class="cls-3" x="673.31" y="1132.41" width="4.88" height="24.19"/>
    <rect class="cls-3" x="712.32" y="978.08" width="4.78" height="29.64"/>
    <polygon class="cls-3" points="475.47 1072.35 471.46 1069.68 490.1 1042.33 494.12 1045.1 475.47 1072.35"/>
    <polygon class="cls-3" points="735.86 1072.35 717.22 1045.1 721.33 1042.33 739.88 1069.68 735.86 1072.35"/>
    <rect class="cls-3" x="468.21" y="1090.53" width="5.45" height="19.79"/>
    <rect class="cls-3" x="736.99" y="1090.53" width="5.45" height="19.79"/>
    <rect class="cls-3" x="725.8" y="1118.64" width="5.45" height="22.66"/>
    <rect class="cls-3" x="480.16" y="1117.97" width="5.45" height="26.58"/>
    <rect class="cls-3" x="747.7" y="1104.49" width="5.45" height="20.85"/>
    <rect class="cls-3" x="458.36" y="1104.11" width="5.45" height="20.94"/>
    <polygon class="cls-3" points="535.52 1084.21 530.93 1082.39 543.55 1052.37 548.05 1054.28 535.52 1084.21"/>
    <polygon class="cls-3" points="673.48 1083.76 660.95 1054.41 665.45 1052.3 677.97 1081.85 673.48 1083.76"/>
    <path class="cls-3" d="m509.39,759.3h-4.02v-59.28l-7.55-19.6c-.1-.29-.1-.48-.1-.67v-29.64h3.92v29.26l7.65,19.7c.1.19.1.38.1.57v59.66Z"/>
    <path class="cls-3" d="m529.85,759.3h-4.02v-59.66c0-.19.1-.39.1-.57l7.74-19.7v-29.26h3.82v29.64c0,.19,0,.39-.09.67l-7.55,19.6v59.28Z"/>
    <path class="cls-3" d="m705.03,759.3h-4.02v-59.66c0-.19.1-.39.1-.57l7.74-19.7v-29.26h3.82v30.31l-7.65,19.6v59.28Z"/>
    <path class="cls-3" d="m683.66,759.3h-4.02v-59.28l-7.55-19.6c-.1-.29-.1-.48-.1-.67v-29.64h3.92v29.26l7.65,19.7c.1.19.1.38.1.57v59.66Z"/>
    <path class="cls-3" d="m483.4,691.83l-2.01-3.44,17.21-10.33c.29-.19.67-.29,1.05-.29h35.95c.29,0,.67,0,.96.19l16.73,8.6-1.82,3.54-16.35-8.42h-34.9l-16.83,10.13Z"/>
    <path class="cls-3" d="m493.81,705.69l-1.15-3.82,14.15-4.02c.19-.09.38-.09.57-.09h20.84l17.31,3.15-.76,3.92-17.12-3.16h-20.08l-13.77,4.02Z"/>
    <polygon class="cls-3" points="493.81 720.27 492.67 716.45 506.82 712.34 507.39 712.34 527.85 712.34 528.23 712.34 545.54 715.49 544.78 719.32 527.66 716.26 507.58 716.26 493.81 720.27"/>
    <path class="cls-3" d="m493.81,737.1l-1.15-3.82,14.15-4.11c.19,0,.38-.1.57-.1h20.46c.19,0,.29.1.38.1l17.31,3.15-.76,3.83-17.12-3.16h-20.08l-13.77,4.11Z"/>
    <path class="cls-3" d="m493.81,753.05l-1.15-3.92,14.15-4.02c.19,0,.38-.1.57-.1h20.46c.19,0,.29,0,.38.1l17.31,3.15-.76,3.83-17.12-3.16h-20.08l-13.77,4.11Z"/>
    <path class="cls-3" d="m658.54,691.74l-2.01-3.25,16.45-10.52c.29-.19.67-.19,1.05-.19h34.42c.29,0,.57,0,.77.19l16.16,8.61-1.82,3.44-15.68-8.42h-33.27l-16.06,10.13Z"/>
    <path class="cls-3" d="m668.81,705.51l-1.72-3.44,13.39-6.89c.29-.09.67-.19.96-.19h22.57c.19,0,.48.1.76.19l13.58,5.83-1.63,3.64-13.1-5.74h-21.71l-13.1,6.59Z"/>
    <path class="cls-3" d="m668.5,720.18l-1.15-3.72,13.48-4.02c.19-.09.38-.09.67-.09h19.79l16.64,3.16-.77,3.82-16.35-3.16h-19.03l-13.29,4.02Z"/>
    <path class="cls-3" d="m668.5,737.02l-1.15-3.72,13.48-4.02c.19-.09.38-.09.67-.09h19.79l16.64,3.16-.77,3.82-16.35-3.16h-19.03l-13.29,4.02Z"/>
    <path class="cls-3" d="m668.5,752.95l-1.15-3.72,13.48-4.02c.19-.09.38-.09.67-.09h19.79l16.64,3.16-.77,3.82-16.35-3.16h-19.03l-13.29,4.02Z"/>
    <path class="cls-3" d="m511.47,665.12c-1.15,0-1.91-.95-1.91-1.91v-13.1c0-1.14.76-2.01,1.91-2.01s1.91.86,1.91,2.01v13.1c0,.96-.76,1.91-1.91,1.91"/>
    <path class="cls-3" d="m561.32,619.48c-1.15,0-1.91-.86-1.91-1.91v-17.98c0-1.15.76-1.91,1.91-1.91,1.05,0,1.91.76,1.91,1.91v17.98c0,1.05-.86,1.91-1.91,1.91"/>
    <path class="cls-3" d="m524.82,665.12c-1.15,0-1.91-.95-1.91-1.91v-13.1c0-1.14.76-2.01,1.91-2.01s1.91.86,1.91,2.01v13.1c0,.96-.76,1.91-1.91,1.91"/>
    <path class="cls-3" d="m685.6,665.12c-1.15,0-1.91-.95-1.91-1.91v-13.1c0-1.14.76-2.01,1.91-2.01s1.91.86,1.91,2.01v13.1c0,.96-.76,1.91-1.91,1.91"/>
    <path class="cls-3" d="m698.97,665.12c-1.15,0-1.91-.95-1.91-1.91v-13.1c0-1.14.76-2.01,1.91-2.01s1.91.86,1.91,2.01v13.1c0,.96-.76,1.91-1.91,1.91"/>
    <path class="cls-3" d="m554.44,646.2l-2.2-3.15,16.92-11.86c.38-.19.76-.38,1.15-.38h63.4c.29,0,.48.09.76.19l18.84,8.22-1.53,3.54-18.45-7.94h-62.34l-16.54,11.37Z"/>
    <path class="cls-3" d="m564.13,659.61l-1.53-3.63,17.88-7.65c.29-.09.48-.19.76-.19h39.97c.19,0,.38.1.57.1l20.46,6.41-1.15,3.63-20.18-6.31h-39.3l-17.5,7.65Z"/>
    <path class="cls-3" d="m564.13,684.49l-1.53-3.54,17.88-7.65c.29-.19.48-.19.76-.19h41.21c.19,0,.38,0,.67.09l19.12,6.31-1.24,3.63-18.93-6.22h-40.45l-17.5,7.55Z"/>
    <path class="cls-3" d="m564.13,711.21l-1.53-3.54,17.88-7.65c.29-.19.48-.19.76-.19h40.83c.19,0,.38,0,.57.09l19.6,6.31-1.24,3.63-19.22-6.22h-40.16l-17.5,7.55Z"/>
    <path class="cls-3" d="m564.13,737.75l-1.53-3.63,17.88-7.65c.29-.09.48-.19.76-.19h39.97c.19,0,.38.1.57.1l20.46,6.41-1.15,3.63-20.18-6.22h-39.3l-17.5,7.55Z"/>
    <polygon class="cls-3" points="583.65 757.58 578.87 757.58 578.87 650.87 567.3 633.47 567.3 590.06 572.17 590.06 572.17 632.03 583.65 649.34 583.65 757.58"/>
    <polygon class="cls-3" points="623.63 757.58 618.84 757.58 618.84 649.34 630.32 632.03 630.32 590.06 635.19 590.06 635.19 633.47 623.63 650.87 623.63 757.58"/>
    <path class="cls-3" d="m588.59,614.25h-4.59c-1.05,0-1.91-.86-1.91-2.01v-22.18c0-1.15.86-2.01,1.91-2.01h4.59c1.15,0,1.91.86,1.91,2.01v22.18c0,1.14-.76,2.01-1.91,2.01m-2.58-3.92h.67v-18.36h-.67v18.36Z"/>
    <path class="cls-3" d="m606.09,614.25h-4.49c-1.15,0-2.01-.86-2.01-2.01v-22.18c0-1.15.86-2.01,2.01-2.01h4.49c1.15,0,2.01.86,2.01,2.01v22.18c0,1.14-.86,2.01-2.01,2.01m-2.58-3.92h.67v-18.36h-.67v18.36Z"/>
    <path class="cls-3" d="m621.2,614.25h-4.49c-1.15,0-2.01-.86-2.01-2.01v-22.18c0-1.15.86-2.01,2.01-2.01h4.49c1.15,0,2.01.86,2.01,2.01v22.18c0,1.14-.86,2.01-2.01,2.01m-2.58-3.92h.67v-18.36h-.67v18.36Z"/>
    <path class="cls-3" d="m643,619.48c-1.15,0-1.91-.86-1.91-1.91v-17.98c0-1.15.76-1.91,1.91-1.91,1.05,0,1.91.76,1.91,1.91v17.98c0,1.05-.86,1.91-1.91,1.91"/>
    <path class="cls-3" d="m709.96,1160.66h-211.22l-49.15-41.49v-58.71l23.71-24.67v-185.59l-11.86-17.31v-44.94l29.07-20.08v-63.01l-10.9-13.77v-27.73l19.12-15.97h40.25l16.16,14.25v27.35l-7.27,14.53v53.07h12.72v-99.93l-9.94-11v-42.26l18.07-16.15h64.64l21.9,14.91v39.69l-10.9,15.49v99.25h20.08v-51.92l-8.32-12.81v-35.09l14.73-9.37h41.88l14.44,12.34v31.36l-8.22,10.13v63.97l24.67,18.17-.09,40.35-5.35,21.42v187.99l24.57,24.48v61.68l-52.78,41.4Zm-209.31-5.45h207.3l49.24-38.63v-56.7l-24.57-24.58v-191.14l5.55-21.51v-36.43l-24.67-18.27v-68.75l8.22-10.04v-26.87l-11-9.47h-38.25l-10.81,6.89v30.5l8.22,12.72v59.09h-30.98v-106.42l10.8-15.49v-35.09l-18.07-12.24h-60.91l-14.63,13v37.77l10.04,11v107.47h-23.81v-59.76l7.36-14.63v-23.62l-12.91-11.19h-36.14l-15.59,13.2v23.23l11,13.48v67.98l-29.16,20.08v40.54l11.76,17.21v189.42l-23.62,24.57v54.12l45.61,38.53Z"/>
    <polygon class="cls-3" points="465.65 791.62 462.69 787.13 508.87 756.54 705.27 756.54 742.37 782.54 739.31 787.04 703.46 762.08 510.4 762.08 465.65 791.62"/>
    <polygon class="cls-3" points="465.28 834.55 462.99 829.68 508.12 808.54 694.86 808.54 740.57 824.9 738.75 830.06 693.9 813.9 509.36 813.9 465.28 834.55"/>
    <polygon class="cls-3" points="477.06 851.93 474.96 846.86 515.4 829.37 694.78 829.37 736.19 842.28 734.56 847.44 693.92 834.82 516.55 834.82 477.06 851.93"/>
    <polygon class="cls-3" points="692.27 1056.94 515.47 1056.94 474.93 1039.45 477.03 1034.38 516.52 1051.4 691.03 1051.4 734.25 1031.7 736.54 1036.68 692.27 1056.94"/>
    <polygon class="cls-3" points="707.75 1086.03 498.06 1086.03 451.2 1063.94 453.5 1058.97 499.3 1080.58 706.51 1080.58 758.71 1056.29 761.1 1061.17 707.75 1086.03"/>
    <polygon class="cls-3" points="707.8 1109.65 497.91 1109.65 450.97 1081.83 453.74 1077.14 499.45 1104.21 706.46 1104.21 758.67 1077.05 761.25 1081.92 707.8 1109.65"/>
    <polygon class="cls-3" points="707.92 1133.39 497.85 1133.39 450.8 1101.07 453.86 1096.58 499.57 1127.84 706.39 1127.84 758.5 1096.48 761.37 1101.16 707.92 1133.39"/>
    <polygon class="cls-3" points="476.7 880.28 475.26 874.93 516.57 863.93 688.49 863.93 735.82 871.29 734.96 876.65 687.82 869.48 517.33 869.48 476.7 880.28"/>
    <polygon class="cls-3" points="476.48 915.79 475.52 910.44 517.02 903.07 688.27 903.07 735.6 906.71 735.22 912.16 687.89 908.52 517.21 908.52 476.48 915.79"/>
    <polygon class="cls-8" points="570.29 1053.32 605.57 1022.34 641.24 1054.18 641.24 1157.93 570.29 1157.93 570.29 1053.32"/>
    <polygon class="cls-3" points="688.2 947.65 516.94 947.65 475.83 946.22 476.02 940.86 517.04 942.2 687.91 942.2 735.14 937.23 735.72 942.68 688.2 947.65"/>
    <polygon class="cls-3" points="688.32 985.04 516.49 984.95 475.47 978.16 476.43 972.71 517.16 979.5 687.75 979.5 734.79 969.08 735.94 974.43 688.32 985.04"/>
    <polygon class="cls-3" points="688.42 1019.55 516.4 1019.55 472.89 1010.19 474.04 1004.93 517.26 1014.11 687.65 1014.11 732.11 1001.29 733.55 1006.46 688.42 1019.55"/>
    <polygon class="cls-3" points="501.46 1157.92 496.01 1157.92 496.01 1082.67 513.22 1053.41 513.22 832.54 506.91 811.6 506.91 759.29 512.36 759.29 512.36 810.73 518.77 831.67 518.77 1055.04 501.46 1084.01 501.46 1157.92"/>
    <polygon class="cls-3" points="711.69 1157.92 706.24 1157.92 706.24 1084.01 688.93 1055.04 688.93 831.67 695.24 810.73 695.24 759.29 700.79 759.29 700.79 811.6 694.38 832.54 694.38 1053.41 711.69 1082.67 711.69 1157.92"/>
    <polygon class="cls-10" points="584.01 1058.4 606 1039.66 628.09 1059.17 628.09 1156.03 584.01 1156.03 584.01 1058.4"/>
    <path class="cls-10" d="m570.29,944.93v-62.72c0-5.93-4.88-10.9-11-10.9s-11,4.97-11,10.9v62.72h21.99Z"/>
    <path class="cls-10" d="m663.83,944.93v-62.72c0-5.93-4.97-10.9-11-10.9s-11,4.97-11,10.9v62.72h21.99Z"/>
    <path class="cls-10" d="m609.73,727.78v-46.66c0-4.49-3.73-8.13-8.13-8.13s-8.22,3.64-8.22,8.13v46.66h16.35Z"/>
    <path class="cls-3" d="m641.18,1160.66h-70.85c-1.53,0-2.77-1.14-2.77-2.77v-104.61c0-.67.38-1.44.86-2.01l35.47-30.88c1.05-.96,2.58-.96,3.63,0l35.47,31.84c.57.48.96,1.15.96,1.91v103.74c0,1.63-1.24,2.77-2.77,2.77m-68.18-5.45h65.5v-99.73l-32.89-29.45-32.6,28.59v100.58Z"/>
    <path class="cls-3" d="m628.07,1158.04h-43.98c-1.15,0-2.1-.96-2.1-2.11v-97.53c0-.67.29-1.14.67-1.53l22.09-18.74c.67-.67,1.82-.67,2.48,0l22.18,19.41c.48.39.67.96.67,1.63v96.76c0,1.15-.96,2.11-2.01,2.11m-42.07-4.02h40.06v-93.99l-20.18-17.78-19.89,17.11v94.66Z"/>
    <path class="cls-3" d="m570.3,946.95h-21.9c-1.24,0-2.1-.96-2.1-2.11v-62.53c0-7.17,5.83-13,13-13s13,5.83,13,13v62.53c0,1.15-.96,2.11-2.01,2.11m-19.98-4.02h17.98v-60.62c0-4.97-4.11-8.99-8.99-8.99s-8.99,4.02-8.99,8.99v60.62Z"/>
    <path class="cls-3" d="m663.79,946.95h-21.9c-1.15,0-2.1-.96-2.1-2.11v-62.53c0-7.17,5.83-13,13-13s13,5.83,13,13v62.53c0,1.15-.86,2.11-2.01,2.11m-19.98-4.02h17.98v-60.62c0-4.97-4.11-8.99-8.99-8.99s-8.99,4.02-8.99,8.99v60.62Z"/>
    <path class="cls-3" d="m609.66,729.8h-16.16c-1.24,0-2.1-.96-2.1-2.11v-46.47c0-5.74,4.59-10.24,10.14-10.24s10.23,4.5,10.23,10.24v46.47c0,1.15-.86,2.11-2.1,2.11m-14.25-4.02h12.33v-44.55c0-3.54-2.77-6.22-6.22-6.22s-6.12,2.67-6.12,6.22v44.55Z"/>
  </g>
</svg>