<?xml version="1.0" encoding="UTF-8"?>
<svg id="Layer_2" data-name="Layer 2" xmlns="http://www.w3.org/2000/svg" viewBox="0 0 351 518.12">
  <defs>
    <style>
      .cls-1, .cls-2, .cls-3, .cls-4, .cls-5, .cls-6, .cls-7, .cls-8, .cls-9, .cls-10, .cls-11, .cls-12, .cls-13, .cls-14, .cls-15, .cls-16, .cls-17, .cls-18 {
        fill-rule: evenodd;
      }

      .cls-1, .cls-2, .cls-3, .cls-4, .cls-5, .cls-6, .cls-7, .cls-8, .cls-9, .cls-10, .cls-11, .cls-12, .cls-13, .cls-14, .cls-15, .cls-16, .cls-17, .cls-18, .cls-19, .cls-20, .cls-21, .cls-22, .cls-23, .cls-24, .cls-25 {
        stroke-width: 0px;
      }

      .cls-1, .cls-21 {
        fill: #231f20;
      }

      .cls-2 {
        fill: #71622a;
      }

      .cls-3 {
        fill: #605724;
      }

      .cls-4 {
        fill: #604019;
      }

      .cls-5 {
        fill: #53491c;
      }

      .cls-6 {
        fill: #888f95;
      }

      .cls-7 {
        fill: #bec3c9;
      }

      .cls-8 {
        fill: #c19f76;
      }

      .cls-9 {
        fill: #aa8865;
      }

      .cls-10 {
        fill: #b0ac34;
      }

      .cls-11 {
        fill: #d2c82f;
      }

      .cls-12 {
        fill: #f4e6c7;
      }

      .cls-13 {
        fill: #81784f;
      }

      .cls-14 {
        fill: #816141;
      }

      .cls-15 {
        fill: #322d0b;
      }

      .cls-16 {
        fill: #8f7544;
      }

      .cls-17 {
        fill: #c2bc92;
      }

      .cls-18 {
        fill: #848635;
      }

      .cls-19 {
        fill: #f8e357;
      }

      .cls-20 {
        fill: #3a58a1;
      }

      .cls-22 {
        fill: #c6b64f;
      }

      .cls-23 {
        fill: #a25e63;
      }

      .cls-24 {
        fill: #c43255;
      }

      .cls-25 {
        fill: #fff;
      }
    </style>
  </defs>
  <g id="Layer_1-2" data-name="Layer 1">
    <path class="cls-21" d="m279.99,119.88l.97-1.75c1.84-4.49,1.27-8.97-1.14-11.24,1.72.08,3.25-.33,4.42-1.32,1.35-1.15,1.98-2.87,1.66-4.58-.28-1.51-1.26-2.82-2.73-3.81,4.9-1.58,14.25-8.62,18.39-11.87l1.53-1.2-.37-.57c.72.21,1.49.34,2.28.34,4.55,0,8.25-3.7,8.25-8.25,0-1.38-.37-2.66-.98-3.81.38-1.22.83-2.66.9-2.91,4.79-6.97,12.53-12.49,12.61-12.55l3.03-2.14-3.37-1.53c-.27-.12-6.66-3-11.19-3-8.13,0-11.87,5.76-13.25,10.82-1.83-.59-4.39-1.26-6.62-1.26-4.36,0-9.63,4.46-9.63,10,0,3.05,0,10.19,7.19,10.19,1.2,0,2.94-.41,5.27-1.21.13.4.3.78.49,1.15-1.18-.25-2.51-.14-3.95.63l-2.99,2.39c-1.45,1.45-2.6,2.6-6.5,2.6-1.98,0-3.45-.57-4.49-1.74-2.07-2.32-2.07-6.65-1.9-8.13,0-1.63-.41-3-1.12-4.08,4.2-.38,7.52-3.88,7.52-8.18,0-4.55-3.7-8.25-8.25-8.25s-8.25,3.7-8.25,8.25c0,2.39,1.03,4.52,2.66,6.03-1.05.32-2.06.87-2.91,1.72l-.24.24-.16.32c-.11.23-2.89,5.56-10.84,5.56-9.71,0-11.33-11.65-11.39-12.14l-.04-.3c2.38,2.22,6.13,5.03,10.17,5.31,7.76.54,9.71-7.14,10.99-12.22,1.19-4.69,2.01-8.8-.02-11.61-1.08-1.49-2.79-2.33-5.09-2.49-.51-.04-1.11.07-1.67.11,1.88-2.44,3.32-4.8,3.93-7.03.31-1.11.46-2.13.46-3.08,0-1.34-.3-2.55-.92-3.63-1.99-3.5-6.88-5.1-12.14-6.55-5.26-1.46-10.27-2.6-13.77-.62-1.85,1.05-3.11,2.86-3.85,5.53-.38,1.4-.58,2.96-.58,4.69,0,1.05.16,2.23.3,3.39-.44-.31-.9-.76-1.34-.99-2.04-1.04-3.94-1.2-5.64-.48-3.19,1.37-4.6,5.31-5.99,9.95-1.51,5.02-3.79,12.61,3.15,16.13,4.25,2.16,9.97,1.12,13,.31l1.17-.31c.17.13.36.23.54.35-1.37.31-2.72.93-3.91,1.9l-.16.13-.13.16c-.05.06-5.24,6.23-11.86,6.23-8.8,0-12.44-10.68-12.48-10.79-.42-1.28-1.36-2.27-2.55-2.86,4.44-.12,8.03-3.76,8.03-8.23s-3.7-8.25-8.25-8.25-8.25,3.7-8.25,8.25c0,3.54,2.25,6.54,5.39,7.71-1.55.21-2.98,1.07-4.06,2.46-2.69,2.31-7.57,5.71-9.57,5.71-4.24,0-6.87-3.69-6.87-9.63,0-1.25,1.02-3.62,1.82-5.12,2.18-1.67,13.68-11.17,13.68-26.13,0-6.43-4.22-13.63-9.88-13.63h-6.86c-.07-2.19-.49-5.37-2.26-7.31-1.02-1.11-2.36-1.69-3.87-1.69s-2.85.58-3.87,1.69c-1.79,1.95-2.21,5.1-2.28,7.31h-6.85c-5.65,0-9.88,7.19-9.88,13.63,0,14.96,11.5,24.45,13.68,26.13.81,1.5,1.82,3.87,1.82,5.12,0,5.94-2.63,9.63-6.87,9.63-2,0-6.88-3.39-9.57-5.71-1.08-1.39-2.51-2.26-4.06-2.46,3.14-1.17,5.39-4.17,5.39-7.71,0-4.55-3.7-8.25-8.25-8.25s-8.25,3.7-8.25,8.25,3.59,8.11,8.03,8.23c-1.19.59-2.12,1.58-2.55,2.85-.04.12-3.68,10.8-12.48,10.8-6.62,0-11.81-6.17-11.86-6.23l-.13-.16-.16-.13c-1.19-.97-2.54-1.6-3.91-1.9.18-.12.37-.22.54-.35l1.17.31c3.03.81,8.75,1.85,13-.31,6.94-3.52,4.66-11.11,3.15-16.13-1.39-4.64-2.8-8.59-5.99-9.95-1.69-.73-3.59-.57-5.64.48-.44.22-.89.68-1.33.99.14-1.16.3-2.35.3-3.39,0-1.73-.19-3.3-.58-4.7-.73-2.67-1.99-4.47-3.85-5.52-3.49-1.98-8.51-.84-13.77.62h0c-5.26,1.46-10.15,3.05-12.14,6.55-.62,1.09-.92,2.29-.92,3.63,0,.95.15,1.98.46,3.08.62,2.22,2.05,4.59,3.93,7.03-.56-.04-1.16-.14-1.67-.11-2.29.16-4,1-5.09,2.49-2.03,2.81-1.21,6.92-.02,11.61,1.29,5.08,3.23,12.76,11,12.22,4.04-.28,7.79-3.09,10.17-5.31l-.04.3c-.06.5-1.68,12.14-11.39,12.14-7.96,0-10.73-5.33-10.84-5.56l-.15-.31-.25-.26c-.85-.85-1.86-1.4-2.91-1.72,1.63-1.51,2.66-3.64,2.66-6.03,0-4.55-3.7-8.25-8.25-8.25s-8.25,3.7-8.25,8.25c0,4.29,3.3,7.79,7.49,8.18-.71,1.05-1.12,2.34-1.12,3.83.19,1.73.19,6.06-1.88,8.38-1.04,1.17-2.51,1.74-4.5,1.74-3.9,0-5.05-1.15-6.5-2.6l-2.99-2.39c-1.38-.74-2.72-.86-3.96-.6.19-.38.36-.77.5-1.18,2.33.81,4.06,1.21,5.27,1.21,7.19,0,7.19-7.14,7.19-10.19,0-5.54-5.27-10-9.63-10-2.23,0-4.79.67-6.62,1.26-1.4-5.09-5.13-10.83-13.25-10.83-4.53,0-10.92,2.88-11.19,3l-3.37,1.53,3.03,2.14c.08.06,7.82,5.58,12.61,12.55.08.25.52,1.68.9,2.91-.6,1.14-.98,2.43-.98,3.81,0,4.55,3.7,8.25,8.25,8.25.78,0,1.52-.13,2.23-.33l-.35.52,1.56,1.24c4.15,3.25,13.49,10.3,18.39,11.87-1.47.99-2.45,2.3-2.73,3.81-.32,1.72.31,3.43,1.66,4.58,1.16.99,2.71,1.4,4.41,1.33-2.4,2.27-2.97,6.75-1.14,11.23,0,0,.47.84.97,1.75H0l175.5,398.25L351,119.88h-71.01ZM184.78,17.5h3.17c.58.57,1.92,2.67,1.92,5.12,0,5.8-2.6,10.56-5.25,14.01-.07-2.34-.11-4.93-.11-7.62,0-4.18.11-8.23.28-11.52Zm-18.4,19.13c-2.65-3.45-5.25-8.2-5.25-14.01,0-2.45,1.34-4.55,1.92-5.12h3.17c.17,3.28.28,7.33.28,11.52,0,2.69-.04,5.27-.11,7.62Zm101.38,47.91c.74,2.36,2.05,5.58,4.22,8.21-3.64-1.26-8.26-2.79-13.65-4.42,4.12-.52,7.31-2.29,9.43-3.8Zm-30.73-8.86c1.16,2.79,3.14,5.93,6.15,8.41-6.03-1.56-12.56-3.08-19.42-4.44,6.84-.43,10.92-2.31,13.27-3.97Zm-34.55-5.23c1.07,2.19,3.03,4.73,6.42,6.61-4.46-.66-8.99-1.21-13.56-1.64,3.16-1.2,5.53-3.19,7.14-4.97Zm-26.98-3.67c1.53,2.57,3.96,5.8,7.34,7.82-2.45-.09-4.9-.16-7.34-.16s-4.89.06-7.34.16c3.38-2.01,5.81-5.24,7.34-7.82Zm-26.98,3.67c1.61,1.78,3.98,3.77,7.14,4.97-4.57.43-9.11.99-13.56,1.64,3.39-1.88,5.35-4.42,6.42-6.61Zm-34.55,5.23c2.35,1.66,6.43,3.54,13.27,3.97-6.86,1.36-13.39,2.88-19.42,4.44,3.01-2.48,5-5.62,6.15-8.41Zm-30.73,8.86c2.12,1.51,5.31,3.28,9.44,3.8-5.38,1.63-10,3.16-13.65,4.42,2.17-2.64,3.47-5.85,4.22-8.21Zm42.17,35.33c15.57-3.05,32.35-4.62,50.09-4.62s34.52,1.57,50.09,4.62h-100.18Z"/>
    <path class="cls-23" d="m175.5,115.25c-17.74,0-34.52,1.57-50.09,4.62h100.18c-15.57-3.05-32.35-4.62-50.09-4.62Z"/>
    <path class="cls-19" d="m78.24,170.9h97.26v-44.65H9.78c7.28,16.52,155.06,351.87,165.72,376.06v-110.71c-37.98-86.19-68.57-155.61-97.26-220.7Z"/>
    <path class="cls-20" d="m175.5,126.25v44.65h97.26c-28.68,65.09-59.28,134.51-97.26,220.7v110.71c10.66-24.18,158.44-359.53,165.72-376.06h-165.72Z"/>
    <path class="cls-25" d="m86.07,176c28.38,64.4,52.41,118.92,89.43,202.95,37.03-84.02,61.05-138.55,89.43-202.95H86.07Z"/>
    <path class="cls-1" d="m144.45,210.43c-.22-.21-.49-.43-.74-.64l-.65-23.16,1.92-5.19v-5.4h-21.52v5.4l1.92,5.19-.3,5.35c-1.27.92-4.55,3.6-4.62,6.67,0,0-1.22,9.45-1.22,12.33,0,4.09.04,8.57.52,10.12.32,1.04,2.3,2.82,4.66,4.56l-.42,36.42c7.87,17.85,16.02,36.35,24.83,56.35v-5.16l-3.86-5.21-.54-61.57c.84-.28,2.05-.68,2.91-.99,1.83-.66,1.9-3,1.9-3.24h0l1.68-23.94-.16-.52c-.16-.2-3.91-5.01-6.33-7.36Z"/>
    <path class="cls-6" d="m125.04,193.8l-.16,8.14c-1.18-.39-3.09-1.3-3.09-3.19s1.82-3.75,3.25-4.95h0Z"/>
    <polygon class="cls-11" points="143.05 180.2 125.39 180.2 125.39 178.12 143.05 178.12 143.05 180.2 143.05 180.2"/>
    <polygon class="cls-18" points="125.85 182.28 142.59 182.28 141.44 185.4 127 185.4 125.85 182.28 125.85 182.28"/>
    <path class="cls-11" d="m127.29,187.48h13.85l.61,20.86c-2.7-1.77-6.12-3.32-8.66-4.06l-6.29-1.81.5-14.99h0Z"/>
    <path class="cls-7" d="m148.22,237.71c-.48-1.1-2.89-2.74-5-3.93-1.95-.97-5.22-2.51-7.75-3.6-1.41-.61-2.75-1.2-3.72-1.66-1.75-.84-4.62-2.72-6.35-3.93-1.87-1.44-4.21-3.44-4.37-3.96-.45-1.45-.45-6.99-.45-9.66,0-1.86.52-6.56.88-9.53,1.01,1.17,3.46,2.02,4.35,2.27l6.93,1.98c2.96.85,7.55,3.46,10.03,5.21,2.06,2.05,6.05,6.64,6.8,7.59l-1.35,19.21h0Z"/>
    <path class="cls-11" d="m126.32,226.98l-.45,39.35c5.51,12.51,11.18,25.38,17.13,38.88l-.73-70.31c-2.33-1.2-5.1-2.4-7.31-3.36-1.42-.62-2.77-1.2-3.76-1.68-1.38-.66-3.15-1.71-4.88-2.87Z"/>
    <path class="cls-6" d="m144.4,244.97l-.18-8.99c1.42.85,2.48,1.67,2.78,2.36.92,2.19.93,3.31.92,3.6v.21s.34.05.34.05h-.36s-.02,1.57-.98,1.91c-.73.27-1.72.6-2.51.86h0Z"/>
    <polygon class="cls-1" points="122.42 217.04 122.44 209.03 124.32 218.04 124.88 218.33 124.9 208.44 124.42 208.19 124.41 216.2 122.55 207.21 121.96 206.9 121.94 216.79 122.42 217.04 122.42 217.04"/>
    <path class="cls-1" d="m126.31,217.05c-.2-.86-.3-1.84-.3-2.93,0-1.37.12-2.34.37-2.92.24-.58.56-.76.94-.56.39.21.71.73.93,1.56.23.83.34,1.82.34,2.99,0,1.1-.11,2.02-.3,2.76-.2.74-.52,1-.96.76-.47-.24-.8-.8-1.01-1.66h0Zm-.45-6.53c-.25.82-.38,1.9-.38,3.24,0,1.48.14,2.78.43,3.9.33,1.18.78,1.92,1.35,2.22.61.32,1.08-.01,1.41-.98.28-.83.42-1.98.43-3.46,0-1.37-.12-2.55-.37-3.55-.31-1.29-.79-2.1-1.45-2.45-.62-.33-1.1.03-1.42,1.09h0Z"/>
    <path class="cls-1" d="m129.68,220.86l.02-9.89.72.38,1.05,8.92,1.07-7.81.71.37-.02,9.89-.47-.25v-5.84c.01-.2.01-.54.02-1,0-.46,0-.96,0-1.5l-1.08,7.78-.49-.26-1.05-8.9v.3c0,.24,0,.61,0,1.11,0,.5,0,.86,0,1.1v5.83s-.49-.25-.49-.25h0Z"/>
    <path class="cls-1" d="m137.53,219.29c-.14.18-.32.21-.55.09l-1-.52v-3.43s1,.52,1,.52c.19.1.35.25.46.45.2.36.3.91.3,1.64,0,.65-.07,1.06-.21,1.24h0Zm-1.56,4.88v-4.18s1.17.61,1.17.61c.37.19.65.05.83-.42.18-.48.27-1.1.28-1.87,0-.9-.1-1.65-.3-2.25-.2-.6-.46-.99-.79-1.16l-1.67-.88-.02,9.89.5.27h0Z"/>
    <polygon class="cls-1" points="138.87 225.69 138.89 215.8 139.39 216.07 139.37 224.78 141.25 225.76 141.25 226.94 138.87 225.69 138.87 225.69"/>
    <path class="cls-1" d="m141.79,222.89c0,1.22.06,2.18.18,2.9.22,1.31.64,2.13,1.27,2.46.63.33,1.05-.04,1.28-1.12.12-.59.19-1.49.19-2.71v-5.55s-.5-.27-.5-.27v6.11c-.01.72-.06,1.26-.14,1.64-.15.7-.43.94-.83.73-.4-.21-.67-.74-.82-1.6-.08-.47-.12-1.06-.12-1.77v-6.11s-.5-.27-.5-.27v5.55h-.01Z"/>
    <path class="cls-1" d="m145.71,228.64c.26.77.62,1.27,1.08,1.51.41.22.76.16,1.05-.16.29-.33.44-1.03.44-2.11,0-.88-.11-1.61-.35-2.2-.14-.34-.33-.65-.58-.93l-.52-.59c-.35-.4-.57-.69-.67-.89-.15-.3-.23-.7-.23-1.18,0-.44.07-.79.2-1.05.13-.26.35-.32.64-.16.37.19.62.59.77,1.18.08.33.14.76.16,1.31l.47.25c0-1.1-.13-1.97-.4-2.61-.27-.64-.6-1.07-.99-1.27-.42-.22-.75-.12-.98.31-.23.43-.35,1.11-.35,2.03,0,.82.11,1.5.35,2.04.13.31.37.65.69,1.02l.5.57c.27.31.47.61.6.9.12.3.19.71.19,1.25,0,.69-.15,1.11-.45,1.26-.16.06-.33.04-.52-.06-.42-.22-.71-.7-.88-1.45-.08-.4-.13-.88-.14-1.44l-.47-.25c0,1.06.12,1.98.38,2.74h0Z"/>
    <path class="cls-1" d="m235.2,221.09c.47-1.55.52-6.03.52-10.12,0-2.88-1.22-12.33-1.22-12.33-.08-3.07-3.36-5.75-4.63-6.67l-.3-5.35,1.92-5.19v-5.4h-21.52v5.4l1.92,5.19-.66,23.16c-.25.21-.52.43-.74.64-2.41,2.35-6.16,7.15-6.33,7.36l-.16.52,1.68,23.94h0c0,.24.07,2.58,1.9,3.24.86.31,2.07.72,2.91.99l-.47,54.06c7.26-16.48,14.12-32.03,20.81-47.22l-.32-27.67c2.36-1.74,4.34-3.51,4.66-4.56Z"/>
    <path class="cls-6" d="m233.16,198.75c0,1.89-1.91,2.8-3.09,3.19l-.16-8.14c1.44,1.2,3.25,3.13,3.25,4.95h0Z"/>
    <polygon class="cls-11" points="211.91 178.12 229.57 178.12 229.57 180.2 211.91 180.2 211.91 178.12 211.91 178.12"/>
    <polygon class="cls-18" points="227.95 185.4 213.52 185.4 212.36 182.28 229.11 182.28 227.95 185.4 227.95 185.4"/>
    <path class="cls-11" d="m228.16,202.48l-6.29,1.81c-2.54.73-5.96,2.29-8.66,4.06l.61-20.86h13.85l.5,14.99h0Z"/>
    <path class="cls-7" d="m205.39,218.5c.75-.96,4.74-5.54,6.8-7.59,2.48-1.76,7.06-4.36,10.02-5.21l6.93-1.98c.89-.25,3.34-1.1,4.35-2.27.35,2.97.88,7.68.88,9.53,0,2.66,0,8.21-.45,9.66-.16.52-2.5,2.52-4.37,3.96-1.73,1.21-4.6,3.09-6.35,3.93-.97.46-2.31,1.05-3.72,1.66-2.53,1.09-5.8,2.63-7.75,3.6-2.1,1.19-4.52,2.83-5,3.93l-1.35-19.21h0Z"/>
    <path class="cls-11" d="m228.98,257.58l-.35-30.59c-1.74,1.16-3.51,2.21-4.88,2.87-1,.48-2.34,1.06-3.77,1.68-2.21.96-4.98,2.16-7.31,3.36l-.64,61.12c5.86-13.29,11.46-26.01,16.94-38.44Z"/>
    <path class="cls-6" d="m208.04,244.11c-.96-.35-.98-1.9-.98-1.91h-.36l.36-.05-.02-.21c-.01-.28,0-1.41.92-3.6.29-.69,1.35-1.51,2.77-2.36l-.18,8.99c-.79-.26-1.78-.59-2.52-.86h0Z"/>
    <path class="cls-1" d="m207.74,225.73c0,1.16.09,2.01.27,2.54.33.97.96,1.22,1.88.74.93-.48,1.55-1.38,1.89-2.7.18-.72.27-1.66.27-2.83v-5.32l-.75.39v5.85c0,.69-.06,1.26-.19,1.73-.22.86-.63,1.45-1.22,1.75-.58.3-.99.14-1.22-.48-.12-.34-.18-.85-.18-1.53v-5.85s-.76.39-.76.39v5.32h0Z"/>
    <polygon class="cls-1" points="213.2 227.04 213.2 217.57 213.94 217.18 213.94 225.53 216.71 224.08 216.71 225.21 213.2 227.04 213.2 227.04"/>
    <polygon class="cls-1" points="216.98 215.6 221.43 213.28 221.43 214.41 219.58 215.37 219.59 223.72 218.83 224.11 218.83 215.77 216.98 216.73 216.98 215.6 216.98 215.6"/>
    <path class="cls-1" d="m222.94,213.6l1.81-.94c.25-.13.46-.17.61-.13.28.1.43.49.43,1.16,0,.63-.11,1.11-.3,1.46-.2.35-.48.61-.83.79l-1.71.89v-3.24h0Zm0,8.37v-4.06s1.69-.88,1.69-.88c.3-.16.52-.22.67-.17.25.08.38.43.4,1.03l.04,1.55c.01.37.02.61.04.73.01.12.03.22.06.28l.91-.47v-.21c-.12-.02-.2-.18-.24-.46-.02-.16-.05-.42-.06-.78l-.02-1.26c-.01-.54-.07-.91-.18-1.1-.11-.19-.27-.3-.49-.34.25-.35.44-.73.57-1.17.13-.43.2-.93.2-1.5,0-1.09-.26-1.7-.77-1.84-.27-.07-.61,0-1.03.22l-2.53,1.32v9.47s.74-.39.74-.39h0Z"/>
    <path class="cls-1" d="m229.6,210.44l.83,3.75-1.72.89.88-4.64h0Zm-1.68,8.94l.59-3.15,2.17-1.13.55,2.55.81-.42-1.99-8.44-.84.44-2.06,10.54.76-.39h0Z"/>
    <path class="cls-1" d="m212.35,248.79c-.19-.23-.32-.64-.45-1.07-.2-.62-.42-1.33-.93-1.89-.37-.42-1.21-2.33-1.95-4.02-.73-1.65-1.48-3.36-2.02-4.26-1.1-1.8-4.16-4.86-4.51-5.21l-.76-1.22c-.13-.21-3.28-5.31-4.61-6.56-1.2-1.14-5.25-8.78-6.54-11.76-1.29-2.96-4.95-3.4-7.01-3.4-.67,0-1.42.09-2.15.18-.7.08-1.44.17-2.06.17-.78,0-1.19-.36-1.35-.55.33-1.4.58-3.04.45-3.81-.16-1.03-.3-3.59-.16-4.2.12-.54.52-5.04-.21-6.03-.13-.19-.32-.29-.52-.29-.11,0-.34-.55-.45-.85-.29-.73-.66-1.64-1.47-2.08-1.41-.76-3.11-.4-3.18-.39h-.04s-.03.02-.03.02c-.39.16-.82.29-1.27.42-.98.29-2.1.62-3.05,1.39-.97.79-3.24,2.9-3.24,5.43,0,1.13.18,2.33.35,3.5.15,1.03.29,2,.29,2.8,0,1.94.74,3.42,1.41,4.16.53.57,1.25,1.13,1.55,1.35l.49,2.47-1.74,1.73c-.53.01-2.31.1-4.01.63-2.14.68-4.63,5.48-4.97,6.68-.24.86-1.44,2.53-1.9,3.13-1.34,1.29-4.44,6.32-4.58,6.53,0,0-.62,1-.75,1.22-.35.35-3.42,3.4-4.51,5.21-.54.9-1.3,2.61-2.03,4.26-.74,1.68-1.58,3.59-1.95,4.02-.5.57-.73,1.27-.93,1.89-.13.43-.26.83-.45,1.07-.39.5-2.33,3.05-2,4.28.26.95,1.39,3.66,2.29,4.58.45.47,1.16,1.08,2.03.99.69-.07,1.35-.57,1.97-1.49,1.46-2.19,2.62-4.14,2.04-5.89-.47-1.4.06-4.18,1.03-5.41.4-.5,1.06-1.14,1.77-1.83,1.17-1.12,2.37-2.28,2.73-3.17l2.8-5.14c.41-.28,2.27-1.55,4-2.94,1.58-1.28,3.55-3.66,4.3-4.59.52,1.92,1.97,7.26,2.24,8.39.3,1.3.3,3.1-.27,4.03-.62,1-.59,2.69-.56,3.91,0,.19,0,.38,0,.53,0,.79-.77,3.49-1.09,4.53l-.94,1.53-.03.04v.05c-.08.2-1.66,4.81-1.98,7.98-.33,3.22,1.41,8.06,1.49,8.26l.23.62.31-.33c.15,0,.36-.02.64-.1.13.18.29.55.42,1.31.08.46.21,1.14.37,1.98h.83c-.18-.91-.32-1.66-.4-2.14-.11-.61-.25-1.09-.44-1.45.28-.13.58-.32.92-.56,1.33-.96,3.09-1.8,4.03-1.54.27.07.45.23.57.49.2.43.63,1.27,1.24,2.02.55.68,1.25,1.28,2.07,1.43.25.05.8,1.23,1.05,1.74h.98c.18-1.4,2.09-3.77,2.91-4.21.79-.43,1.76,2.14,2.02,4.21h.82c-.16-2.07-.57-4.09-.89-5.15.61-.05,1.28-.56,1.63.29.37.91,1.44,1.76,2.56,2.44,1.11.66,2.28,1.15,2.9,1.31.51.14,1.08.28,1.57.4.4.09.76.18,1,.23-.01.13-.03.31-.04.48h.81c.02-.22.04-.45.06-.65.24-.31.81-1.19.66-2.34-.16-1.19-1.92-10.73-2.09-11.69.05-.54.38-4.1.46-5.97.04-.39.02-.67.01-.69-.01-1.32-.98-2-1.67-2.24-.11-.68-.36-2.53-.12-3.57.16-.69.05-1.69-.06-2.76-.13-1.22-.28-2.6.04-3.28.55-1.2,1.17-7.29,1.41-9.82.89,1.09,2.58,3.06,3.98,4.2,1.73,1.39,3.59,2.67,4,2.94l2.8,5.14c.36.89,1.56,2.05,2.73,3.17.71.68,1.38,1.32,1.78,1.83.97,1.23,1.5,4,1.03,5.41-.59,1.75.57,3.7,2.03,5.89.62.92,1.28,1.43,1.97,1.49.88.09,1.58-.52,2.04-.99.89-.92,2.02-3.63,2.28-4.58.34-1.23-1.61-3.78-2-4.28h0Z"/>
    <path class="cls-8" d="m211.73,249.35c-.29-.36-.44-.84-.6-1.35-.18-.56-.37-1.15-.74-1.57-.44-.49-1.08-1.93-2.1-4.24-.72-1.63-1.46-3.31-1.97-4.16-1.08-1.78-4.38-5.05-4.42-5.08l-.03-.04-.03-.05s-.78-1.26-.78-1.26c-.03-.05-3.23-5.21-4.46-6.39-1.42-1.34-5.56-9.33-6.75-12.04-1.14-2.62-4.77-2.9-6.28-2.9-.17,0-.35,0-.53.02-.23.77-.22,1.71.21,2.17.73.79-.57,2.19-1.13,2.89-.57.7-3.16-.44-3.65-1.22-.49-.79,1.3-2.8,1.78-3.42.04-.04.07-.09.11-.14-.35.03-.69.05-1,.05-.73,0-1.25-.25-1.59-.5-.01.06-.04.12-.06.19.04.11.07.22.11.32.24.7-1.13,2.63-1.7,3.68-.57,1.05-2.19,2.98-3,2.36-.81-.61-3.08-3.68-3.32-4.73-.1-.44-.29-.83-.47-1.14l.46,2.36.05.24-.17.17-.93.93c.56.28,1.19.55,1.63.59.97.08,1.13,1.31.57,1.31s-2.6,1.92-3.49,1.92-.73-1.66-.97-2.45c-.01-.05-.04-.09-.06-.13-.77.06-1.91.21-2.99.55-1.7.53-4.08,4.89-4.42,6.1-.35,1.21-1.99,3.36-2.06,3.45l-.02.03-.03.02c-1.24,1.17-4.44,6.34-4.46,6.39l-.78,1.26-.03.04-.04.04s-3.34,3.3-4.42,5.08c-.52.84-1.25,2.53-1.97,4.15-1.02,2.31-1.67,3.76-2.1,4.25-.38.43-.56,1.01-.74,1.58-.16.51-.31.98-.6,1.35-.98,1.24-1.97,2.97-1.84,3.46.26.96,1.34,3.45,2.07,4.2.54.55.99.79,1.4.75.45-.04.91-.42,1.38-1.13,1.32-1.98,2.38-3.73,1.93-5.08-.18-.54-.24-1.22-.21-1.95-.18-.16-.37-.34-.57-.54-1.08-1.05-1.29-1.87-.97-2.8.32-.93,2.48-1.05,3.57-1.98,1.08-.94,3.78-4.55,4.43-5.6.65-1.05,1.19-3.62,1.4-4.9.22-1.28,1.95-.94,3.03-1.63,1.08-.7,3.89-4.32,4.43-5.84.54-1.52,1.29-3.15,1.4-4.32.11-1.17,1.19.23,1.51,1.4.32,1.17,1.4,2.22,2.48,2.8,1.08.59,4.86.23,6.48-.58,1.62-.82,1.62-5.83,1.62-5.83,0,0,.76,4.32.65,5.48-.11,1.17-1.19,3.27-3.89,3.62-2.7.35-5.29-.12-5.94-.94-.54-.69-1.08-.22-1.12.5.55,2.03,1.64,6.02,2.02,7.53.76.33,1.75.62,2.45.37,1.3-.47,3.46-1.63,3.89-2.57.43-.94,2.7-2.22,3.13-1.4.43.82.97,1.28,2.59,1.52,1.62.23,4.21.23,5.4.35,1.08.11,2.07,1.27,3.45,1.57.35-1.99.73-5.41.98-8.11-.13-.31-.28-.59-.43-.81-.65-.93-1.08-2.92-1.08-2.92,0,0,.97-1.63.97-2.56s-.22-2.69-.22-2.69c0,0,2.59,1.28,3.02,2.57.43,1.28.43,4.32,1.08,5.95.65,1.63,3.35,4.2,4.22,4.67.86.47,2.91.58,2.91,2.33,0,.71-.06,1.4-.12,1.97l1.93,3.53v.03s.03.03.03.03c.09.25.3.55.58.89,1.41.32,3.4.95,4.29,2.08,1.45,1.84,1.21,3.94.97,5.51-.02.12-.05.25-.08.38.06.82,0,1.61-.2,2.21-.45,1.34.61,3.1,1.93,5.08.47.7.94,1.09,1.39,1.13.42.04.86-.2,1.4-.75.73-.74,1.8-3.23,2.07-4.2.13-.49-.86-2.22-1.84-3.46h0Zm-24.98-23.76c-.33,1.17-1.19,2.34-3.24,2.92-2.05.58-5.19-.82-5.94-.58-.76.23-1.19-.35-.54-1.17.65-.82.86-1.99.86-1.99,1.08.58,3.67,1.05,4.86.7,1.19-.35,3.03-.58,3.35-1.28s.97.23.65,1.4h0Z"/>
    <path class="cls-9" d="m186.11,224.19c-.33.7-2.16.93-3.35,1.28-1.19.35-3.78-.12-4.86-.7,0,0-.22,1.17-.86,1.99-.65.82-.22,1.4.54,1.17.76-.23,3.89,1.17,5.94.58,2.05-.58,2.91-1.75,3.24-2.92.32-1.17-.33-2.1-.65-1.4h0Z"/>
    <path class="cls-9" d="m206.1,243.45c-.89-1.13-2.88-1.76-4.29-2.08.52.62,1.27,1.34,1.96,2,.73.7,1.42,1.37,1.85,1.91.75.95,1.25,2.57,1.37,4.06.03-.13.06-.26.08-.38.25-1.57.49-3.68-.97-5.51h0Z"/>
    <path class="cls-9" d="m196.48,232.59c-.86-.46-3.57-3.03-4.22-4.67-.65-1.63-.65-4.67-1.08-5.95-.43-1.28-3.02-2.57-3.02-2.57,0,0,.22,1.75.22,2.69s-.97,2.56-.97,2.56c0,0,.43,1.99,1.08,2.92.15.22.3.5.43.81.03-.31.06-.62.08-.91l.09-1.04.62.8s2.59,3.3,4.47,4.83c1.91,1.54,4,2.94,4.02,2.95l.08.06.05.09.94,1.72c.06-.57.12-1.26.12-1.97,0-1.75-2.05-1.87-2.91-2.33h0Z"/>
    <path class="cls-9" d="m179.09,234.58c-1.62-.23-2.16-.7-2.59-1.52-.43-.82-2.7.46-3.13,1.4-.43.93-2.59,2.1-3.89,2.57-.71.25-1.69-.04-2.45-.37.04.15.07.28.09.38.05.21.09.44.13.68,1.18.27,2.88.57,3.86.36,1.62-.35,1.62.12,2.81.94,1.19.82,1.08,3.85.54,4.32-.54.47,0,1.17.97.82.97-.35.86-1.17.54-1.75-.32-.58.11-2.92.11-4.32s.54-1.75,1.18-1.51c.65.23,3.57.23,4.75,1.17,1.19.93,2.16.58,3.67-.12.68-.32,1.43-.23,2.05-.04.07-.28.14-.64.22-1.08-1.38-.3-2.37-1.46-3.45-1.57-1.19-.12-3.78-.12-5.4-.35h0Z"/>
    <path class="cls-8" d="m185.67,237.61c-1.51.7-2.48,1.05-3.67.12-1.19-.94-4.1-.94-4.75-1.17-.64-.23-1.18.12-1.18,1.51s-.43,3.74-.11,4.32c.33.59.43,1.4-.54,1.75-.97.35-1.51-.35-.97-.82.54-.47.65-3.5-.54-4.32-1.19-.82-1.19-1.28-2.81-.94-.98.21-2.67-.09-3.86-.36.2,1.36.12,3.03-.51,4.04-.34.56-.42,1.52-.43,2.4.22.23.48.46.8.68,1.19.82,3.35,1.98,4,2.92.65.93,1.62,2.33,2.59,2.45.97.12,4.97.12,4.75,1.05-.15.66-.58.98-1.27,1.55.12-.03,3.06-.81,4.45-1.32.38-.46.8-.66.92-1.05.21-.7.98-3.27,1.41-4.32.43-1.05,2.48-1.52,3.46-1.98.06-.03.12-.06.17-.1.07-.55-.02-1.43-.11-2.28-.14-1.41-.3-2.86.12-3.77.04-.1.09-.24.14-.42-.62-.19-1.37-.28-2.05.04h0Z"/>
    <path class="cls-9" d="m183.95,246.13c-.43,1.05-1.19,3.62-1.41,4.32-.12.38-.54.59-.92,1.05.63-.23,1.3-.46,1.87-.7.25-.45.42-.56.57-1.05.43-1.4,1.08-3.15,2.27-3.62.35-.14.74-.4,1.1-.69,0-.44.04-.87.12-1.23.01-.05.02-.11.03-.17-.06.04-.11.07-.17.1-.98.47-3.03.93-3.46,1.98h0Z"/>
    <path class="cls-8" d="m184.05,249.75c-.15.49-.32.6-.57,1.05,1.1-.46,1.92-.85,2.43-1.22,1.04-.75,1.57-1.06,1.76-1.33-.08-.46-.26-1.68-.25-2.8-.37.29-.75.55-1.1.69-1.19.47-1.84,2.22-2.27,3.62h0Z"/>
    <path class="cls-9" d="m178.44,251.26c.22-.93-3.78-.93-4.75-1.05-.97-.11-1.94-1.52-2.59-2.45-.65-.94-2.81-2.1-4-2.92-.32-.22-.58-.45-.8-.68,0,.36,0,.7,0,1.01,0,.2,0,.39,0,.55,0,.14-.02.31-.05.52.27.32.54.59.72.71.54.35,2.59,1.28,3.13,2.45.44.96.38,2.66.58,3.94,1.95-.05,4.61-.12,6.47-.53.69-.57,1.12-.89,1.27-1.55h0Z"/>
    <path class="cls-8" d="m166.98,246.95c-.18-.12-.45-.39-.72-.71-.2,1.36-.96,3.88-1.1,4.31-.01.1-.09.8.29,1.63.37.81,1.49,1.18,3.04,1.18.48,0,1.27,0,2.2-.02-.2-1.28-.14-2.98-.58-3.94-.54-1.17-2.6-2.1-3.13-2.45h0Z"/>
    <path class="cls-9" d="m166.12,228.62c.65.82,3.24,1.28,5.94.94,2.7-.35,3.79-2.45,3.89-3.62.11-1.17-.65-5.48-.65-5.48,0,0,0,5.02-1.62,5.83-1.62.82-5.4,1.17-6.48.58-1.08-.58-2.16-1.63-2.48-2.8-.33-1.17-1.4-2.57-1.51-1.4-.11,1.17-.86,2.8-1.4,4.32-.54,1.52-3.35,5.14-4.43,5.84-1.08.7-2.81.35-3.03,1.63-.21,1.29-.76,3.85-1.4,4.9-.65,1.05-3.35,4.67-4.43,5.6-1.08.93-3.24,1.05-3.57,1.98-.32.93-.11,1.75.97,2.8.2.19.39.37.57.54.07-1.56.59-3.32,1.38-4.33.43-.55,1.12-1.21,1.86-1.91,1.06-1.02,2.27-2.18,2.53-2.89v-.03s.03-.03.03-.03l2.87-5.25.05-.09.09-.06s2.12-1.41,4.02-2.95c1.89-1.53,4.44-4.8,4.47-4.83l.04-.04.04-.04.2-.15.46-.35.16.58c.02.07.14.53.33,1.21.04-.72.57-1.18,1.12-.5h0Z"/>
    <path class="cls-9" d="m167.44,218.33c.89,0,2.92-1.92,3.49-1.92s.4-1.23-.57-1.31c-.44-.04-1.07-.31-1.63-.59l-1.09,1.09-.12.12h-.16s-.38,0-.95.05c.02.04.04.08.06.13.24.79.08,2.45.97,2.45h0Z"/>
    <path class="cls-14" d="m173.12,216.66c.81.61,2.43-1.31,3-2.36.57-1.05,1.94-2.98,1.7-3.68-.04-.1-.07-.21-.11-.32-.08.29-.17.54-.25.75-.59,1.48-3.56,2.75-4.86,2.35-1.3-.4-2.53-1.92-2.72-2.96-.06-.32-.45-1-.89-1.7l.22,1.53.1.52c.18.31.37.7.47,1.14.24,1.05,2.51,4.11,3.32,4.73h0Z"/>
    <path class="cls-9" d="m178.46,214.13c.49.79,3.08,1.92,3.65,1.22.57-.7,1.86-2.1,1.13-2.89-.43-.46-.43-1.4-.21-2.17-.49.03-1.01.09-1.53.15-.38.05-.77.09-1.15.12-.04.05-.08.1-.11.14-.49.61-2.27,2.63-1.78,3.42h0Z"/>
    <path class="cls-9" d="m184.78,269.16c-1.12-.67-2.19-1.53-2.56-2.44-.35-.85-1.02-.34-1.63-.29.33,1.06.73,3.08.89,5.15h3.19c-.11-1.12,0-1.94.11-2.42h0Z"/>
    <path class="cls-8" d="m184.68,271.59h4.55c.01-.24.02-.47.03-.71-.5-.12-1.06-.26-1.57-.4-.63-.17-1.79-.65-2.9-1.31-.11.48-.22,1.31-.11,2.42h0Z"/>
    <path class="cls-9" d="m190.22,271.59c.01-.18.03-.36.04-.48-.25-.05-.6-.13-1-.23,0,.24-.02.47-.03.71h.99Z"/>
    <path class="cls-8" d="m171.82,270.23c0-.62-.07-1.23-.18-1.8-.62-.75-1.04-1.59-1.24-2.02-.12-.26-.3-.42-.57-.49-.94-.27-2.7.58-4.03,1.54-.34.24-.64.42-.92.56.18.35.33.83.44,1.45.08.48.23,1.22.4,2.14h6.06c.02-.51.03-.97.03-1.36h0Z"/>
    <path class="cls-9" d="m171.79,271.59h2.07c-.08-.59-.13-1.19-.14-1.74-.82-.15-1.52-.75-2.07-1.43.11.57.18,1.18.18,1.8,0,.38-.01.85-.03,1.36h0Z"/>
    <path class="cls-14" d="m174.77,271.59c-.25-.5-.8-1.69-1.05-1.74.01.55.07,1.15.14,1.74h.91Z"/>
    <path class="cls-1" d="m147.67,312.48s0,.01,0,.02v.03-.05Zm50.51-.04c-.22-.36-.41-.68-.54-.93-.76-1.4-1.11-2.64-1.11-2.65v-.03s-.02-.03-.02-.03l-2.38-5.74c-.31-1.09-.68-2.06-1.1-2.87l-.19-.19c-1.82-.97-2.6-1.83-3.95-3.56-.53-.68-.56-1.37-.61-2.42-.06-1.38-.19-3.25-1.42-6.25-1.89-4.6-3.74-6.6-3.74-6.6l-.2-.19c-.93-1.15-3.18-2.96-3.3-3.04-.73-.55-1.87-.93-2.68-1.14-.47-.16-.75-.21-.93-.23-.47-.41-2.42-2-5.03-3-.68-.27-2.62-1-3.48-.85-.32-.04-.67-.05-1.04-.05-.12-.04-.67-.08-.95-.07l-2.75-.15c-3.16-.17-7.5-.4-8.03-1.08-1.01-1.32-2.15-2.26-2.2-2.3l-.33-2.34-.81-1.14s-1.32-4.64-1.36-4.72c0,0-.58-2.02-.59-2.06-.01-.03-.28-.72-.64-1.54,0,0-.29-.7-.49-1.01-.28-.51-.99-1.48-1.37-1.83-.59-.68-1.07-1.09-1.48-1.24,0,0-1.08-.74-1.92.02l-1.02-2.71.63-.07-.27-.58-.68-1.5s-2.4-.89-3.32-.98c-.27-.02-.66-.25-1.08-.5-.65-.38-1.46-.86-2.38-.87-.42,0-2.23-1.68-3.12-1.65-.89.03-2.42.5-3.07.61-1.67.3-3.25.58-3.86,1.69-.32.57-.67,1.13-1,1.61l-.23.32c-.36.13-1.25.52-1.9,1.44-.43.5-.73,1.02-.92,1.6,0,0-.13.39-.15.46-.34.72-.61,1.37-.69,1.57-.02.02-.08.09-.12.13,8.57,19.45,17.42,39.52,27.04,61.37.04-.21.06-.39.05-.52.16-.8.23-1.53.22-2.17.08-1.04.08-2.54-.88-3.65-.06-.08-.13-.16-.18-.25-.22-.7-.45-1.47-.68-2.28-.17-1.29-.11-2.57-.07-3.05.67-.47,3.75-2.41,12.48-5.08.46-.14.93-.51,1.43-.9.56-.43,1.27-.98,1.65-.87.21.06.37.37.47.62.33.88.74,2.18,1.17,3.56.74,2.36,1.44,4.59,1.94,5.33.16.23.39.48.65.77.64.69,1.51,1.64,1.39,2.48-.07.47-.46.93-1.16,1.35l-.58.34c-1.38.81-2.94,1.73-3.24,3.29-.25,1.34-.12,2.3.4,2.85.52.56,1.18.47,1.22.47.49-.04,4.86-.35,5.94-.7,1.25-.41,1.89-2.08,1.89-2.08v-.05c.02-.06,1.18-6.53,2-8.78.11-.18.14-.37.16-.54.5-2.12.31-6.73.18-8.87,2.04,1.85,5.88,5.29,6.37,5.51.38.16,4.65,2.86,7.31,4.56l2.9,4.22c.05.19.2.7.51,1.43l.18,1.9s.07.35.06.46c-.06.43.13.99.13,1.04-.05.12-.23.45-.25.47-.21.25-.46.56-.59,1.04-.41.6-.78,1.05-.97,1.26-.25.28-.3.62-.14.94.66,1.32,5.99,2.09,7.29,1.94,1.23-.14,1.66-1.04,2-1.75.24-.5.46-.98.92-1.27.28-.18.47-.45.55-.78.27-1.15-.72-2.93-1.94-4.96Z"/>
    <path class="cls-1" d="m122.22,250.08s.02-.02.02-.04c0,0,0,0,0,0l-.03.04h0Z"/>
    <path class="cls-4" d="m187.85,306.16l3.01,4.36s.24,1.05,1.07,2.66c.83,1.61-1.09,4.32-2.08,5.45-1,1.13,5.04,2.31,6.77,2.11,1.73-.2,1.39-2.1,2.73-2.95,1.34-.85-1.29-4.58-2.1-6.05-.8-1.47-1.15-2.75-1.15-2.75l-3.1-7.47-.37-1.1-2.1-.93c-.89-.97-.6-.96-1.99-2.75-1.39-1.78.16-3.55-2.09-8.77-2.25-5.21-4.83-8.45-7.38-9.74-2.55-1.29-3.24-1.21-3.24-1.21,0,0-3.43-3.13-7.65-3.7-4.21-.57-10.78,1.25-10.78,1.25,0,0-2.02-1.62-3.02-2.91-1-1.29-2.13-2.23-2.13-2.23l-.41-2.42-.81-1.14s-.88-3.61-1.33-4.62c-.45-1.01-1.46-4.25-1.46-4.25,0,0-1.85-2.97-2.93-3.37-1.08-.41-1.56,0-1.56,0l-1.87-4.91s-2.16-.81-3.03-.88c-.88-.07-2.04-1.35-3.43-1.37-1.39-.01-2.11-2.05-4.13-1.46-2.02.59-4.79.56-5.52,1.88-.74,1.32-1.35,2.1-1.35,2.1,0,0-2,.76-2.67,2.78-.41,1.25-.65,1.87-1.16,2.54,8.38,19.03,17.03,38.65,26.42,59.96.09-1.15.74-3.63-.56-5.14-1.46-1.71-1.03-6.13-1.03-6.13,0,0,2.49-2.12,12.79-5.28,1.25-.38,3.21-3.23,4.1-.88.89,2.35,2.31,7.69,3.06,8.79.76,1.1,3.93,3.33.75,5.27-1.46.89-3.31,1.78-3.61,3.32-.57,3.02,1.15,2.77,1.15,2.77,0,0,4.78-.33,5.83-.69,1.06-.34,1.59-1.76,1.59-1.76,0,0,1.18-6.62,2.02-8.91.84-2.28.22-10.31.22-10.31,0,0,6.52,5.94,7.08,6.18.56.25,7.44,4.64,7.44,4.64Z"/>
    <path class="cls-16" d="m135.33,265.79l.11.43s.23-.56-.11-.43Zm5.58-12.24c-.79-.5-1.12-.69-1.26-.75l-.02.05s-.15-.13.02-.05l.56-1.37.79-.58-.06-.6,1.54-.18-.61-1.33s-2.16-.81-3.03-.88c-.88-.07-2.04-1.35-3.43-1.37-1.39-.01-2.11-2.05-4.13-1.46-2.02.59-4.79.56-5.52,1.88-.74,1.32-1.35,2.1-1.35,2.1,0,0-2,.76-2.67,2.78-.41,1.25-.65,1.87-1.16,2.54.78,1.77,1.56,3.55,2.35,5.34l.41-.13s.67-1.8,1.39-1.76c.73.04,1.41,2.04,1.41,2.04l1.42.94,2.3.1.51-.92s1.73.53,1.88-.47l.14-1s.57,3.25-.27,3.35c-.83.1-1.63-.67-1.63-.67l-.37,1.15.56.79v1.11s-1.59,1.04-1.04,1.72c.54.67,1.08,1.22,1.08,1.22,0,0,1.17,2.07,3.23-.13.77-.82,1.17-1.14,1.38-1.21l-.29-1.12.46-1.41s1.82.16,2.23-.51c.42-.66.09-1.48-.41-1.67-.5-.19-.21-.96-.7-2.25-.49-1.3-.82-2.12-1.43-2.29-.62-.17-.78-.52-.78-.52,0,0,1.31-1.38.54-1.79-.76-.4-1.57,1.16-1.57,1.16,0,0,.42-1.77.02-2.21-.4-.44,1.22.23.9-.6-.32-.82-.46-1.05-.46-1.05,0,0,1.46.2,1.92,1.13.45.93,1.04,1.96.88,2.84-.15.88-.2,1.62.33,2.05.52.43,1.16,1.95,1.16,1.95l-.07,1.73s-.47,1.28.49,1.29c.96.01,2.38-.28,2.38-.28,0,0-.33-2.05-.71-3.48-.38-1.43-2.33-3-2.33-3l.68-.87s-1.16-2.38.77-1.51c1.94.88,2,1.5,2,1.5l-.87.57,1.46.03s.76-.83-1.04-1.97Z"/>
    <path class="cls-17" d="m134.59,256.5s.86.14,1.37,1.68c.52,1.54.79,1.87.79,1.87,0,0,.12,1.21.63,1.52.51.31.26,1.44-.58,1.42-.84-.02-.57-.91-.57-.91.42-1.29-.66-2.99-1.21-3.66-.55-.67-.43-1.91-.43-1.91h0Z"/>
    <path class="cls-17" d="m137.44,256.17s1.62.55,1.68,1.15c.06.61-.13,1.12-.13,1.12l1.04,3.19s-1.21.26-1.2-2.44c0-.77-1.14-.6-1.27-1.82l-.12-1.21h0Z"/>
    <path class="cls-17" d="m131.51,263s1,.37,1.56,1.17c.56.79.45,2.04-.29,1.88-.74-.16-1.22-1.33-1.22-1.33l-.05-1.71h0Z"/>
    <path class="cls-17" d="m128.27,258.34s.06,1.83.75,1.51c.69-.32-.75-1.51-.75-1.51h0Z"/>
    <path class="cls-4" d="m132.38,258.48l-2.79-.29-1.88-.76,1.61-.8,1.75-1.68-1.05-.86s-.37-1.31-1.32-1.2c-.95.11.9-.6.9-.6,0,0,.2.83,1.03.74.83-.1,1.31-.15,1.31-.15,0,0-1.25.76-.38,1.03.87.27,1.33.09,1.33.09l.5,1.41.02,1.47,1-.85-.92,1.58-1.12.86h0Z"/>
    <polygon class="cls-12" points="130.61 257.58 131.37 256.75 131.91 257.43 130.61 257.58 130.61 257.58"/>
    <path class="cls-12" d="m135.45,247.07c-.84-.02-1.31.15-1.31.15l.53-.68-2.45-1.68-4.92,1.31s-.7-.19-1.8,1.31l-1.09,1.51s-1.27.32-1.97,1.55c-.7,1.23-1.59,3.37-1.59,3.37l-.3.34c.46,1.03.91,2.06,1.37,3.1,0,0,.96-1.22.28-2-.68-.78-1-1.4-.73-2.49.28-1.09,1.43-2.5,2.12-2.82.69-.33,1.72.41,1.91,1.12.19.71,1.46,1.31,2,.75.55-.56.69-1.55.69-1.55,0,0-.96,1.22-1.6.8-.64-.41-1.44-1.18-.75-1.51.69-.33,3.16-.86,3.16-.86,0,0,.13-1.12,1.05-1.48.93-.35,2.04,0,2.04,0,0,0-1.13-.96-2.12-.94-.52.1-.78.14-.37,0,.12-.04.25,0,.37,0,.81-.16,2.26-.45,2.72-.36.74.16.63,1.52.63,1.52l1.06.98s.28-.77,1.14-.62c.86.14,2.11.61,2.11.61,0,0-1.34-1.44-2.19-1.46Z"/>
    <path class="cls-12" d="m122.43,258.53c.07.15.13.31.2.46.09-.09.16-.19.26-.26.9-.6,1.98-1.83,1.98-1.83,0,0-1.18.26-2.17,1.24-.12.12-.19.26-.28.4Z"/>
    <polygon class="cls-12" points="138.84 247.85 141.87 248.73 140.94 249.13 140.87 248.4 139.14 249.1 138.84 247.85 138.84 247.85"/>
    <path class="cls-12" d="m126.53,254.13s.86-.96,1.38-.65c.51.31,1.21.1,1.21.1l.14,1.34-.51.92,1.38-.65-.11-1.09-1.51.54-1.97-.51h0Z"/>
    <path class="cls-12" d="m131,251.89c-.85-.02-1.68,1.3-.37,1.15,1.31-.15,1.21-1.12.37-1.15h0Z"/>
    <path class="cls-12" d="m135.03,250.07c.19-.51,1.32-.03,1.32-.03l-.86,1.08s-.66-.54-.47-1.05h0Z"/>
    <path class="cls-4" d="m121.98,257.5c.14.32.28.64.42.96.11-.13.21-.24.31-.33.77-.7,1.45-1.15,1.45-1.15l-1.68.07-.51.45Z"/>
    <path class="cls-3" d="m125.67,252.76s-.17-1.7-1.01-1.73c-.84-.02-2.07.98-2.22,1.86-.15.87-.13,1.12-.13,1.12,0,0,.97-1.1,1.7-1.06.73.04,1.66-.19,1.66-.19h0Z"/>
    <path class="cls-4" d="m123.24,256.1l-.27-1.44s.5.19,1.31-.15c.81-.34,1.84-.83,1.84-.83,0,0-.42.66.12,1.21.54.55,1.45,1.3,1.45,1.3v1.23s-.48-1.17-1.21-1.33c-.74-.16-3.24,0-3.24,0h0Z"/>
    <path class="cls-4" d="m134.28,249.79s-.73-1.27-1.68-1.15c-.96.11-1.59.92-1.59.92l-.88-.39s.37-1.03,1.09-1.11c.71-.08,1.32-.03,1.32-.03,0,0-1.13-.48-1.83-.28-.7.21-1.7,1.06-1.7,1.06l-.06,1.85,1.73.41s1.44-.05,1.62.55c.18.59-.35,1.27-.35,1.27l1.47.32-.24-1.2.68-.45.42-1.77h0Z"/>
    <path class="cls-17" d="m131,249.56l1.12-.87s.32-.41,1.08,0c.76.4-.21-.84-1.37-.46-1.17.38-.83,1.33-.83,1.33h0Z"/>
    <path class="cls-17" d="m142.39,250.09s-1.08-.88-2.09-.15c-1.01.73-1.26,1.86-1.26,1.86l.72.04,1.17-1.61,1.46-.15h0Z"/>
    <path class="cls-16" d="m132.28,270.77c-.53-.55-2.24-.72-2.24-.72l-.13-1.33-.99-1.48-.82-1.01s-.22-1.08.66-.69l.88.39s-.23-1.08-.85-1.25c-.62-.17-1.6-.31-1.67-1.03-.07-.73-.54-1.78-.54-1.78l-1.63-1.9-.58,1.42s-.26.16-.52.37c.19.43.37.85.57,1.28.81.2.86.21.86.21l-.54.52c.23.52.46,1.04.69,1.56.96-.04,1.47-.31,1.47-.31,0,0-.26,1.02.42,1.8.68.78.99,1.48.99,1.48l-.33,1.51,1.33,1.32s.31-.53,1.22.22c.92.75,1.84,1.5,2.51,1.05.67-.45-.23-1.07-.77-1.63Z"/>
    <path class="cls-17" d="m123.87,261.78c.23.52.46,1.04.69,1.56.64.37,1.13.46,1.13.46l-1.32-2.42s-.28.16-.5.41Z"/>
    <polygon class="cls-17" points="128.31 268.28 127.98 269.79 129.31 271.12 129.91 268.71 128.77 269.33 128.31 268.28 128.31 268.28"/>
    <polygon class="cls-17" points="130.24 270.76 130.91 270.31 132.24 271.51 131.69 272.06 130.24 270.76 130.24 270.76"/>
    <path class="cls-13" d="m137.38,266.37s.91,1.86-.07,2.95c-.97,1.09-2.89,1.2-4.02.71-1.13-.48-1.56-1.17-1.56-1.17l3.7-2.64,1.94.14h0Z"/>
    <path class="cls-13" d="m145.78,267.47s.51,6.32-1.78,7.45c-2.29,1.12-6.59,1.38-6.59,1.38,0,0-.69,2.78.05,4.17.74,1.39,1.51,1.91,1.51,1.91,0,0,.61-1.17.64-2.04.03-.86.16.47.4,1.67.24,1.2.58,2.14-.16,3.21-.74,1.07-.34,1.39.25,2.55.59,1.15,1.95.26,1.9-1.45-.05-1.71-.07-3.06-.07-3.06,0,0,.67,1.89,1.22,2.56.55.67,1.33-1.14,1.2-2.47-.13-1.34-.07-3.06-.07-3.06l-1.15-.72,1.14-.62.05-1.85s.92,1.98,1.6,1.54c.67-.45.85-1.08.85-1.08l-.88,2.07s-.96,1.22-.04,1.97c.92.76,2.53-1.15,2.64-2.52.1-1.36.02-2.21-.6-3.61-.62-1.4-1.47-2.65-1.47-2.65,0,0,.83-.1.91-1.7.08-1.6-1.57-3.62-1.57-3.62h0Z"/>
    <path class="cls-16" d="m143.75,253.64s.89-.67,1.56,0c.66.66,1.63,1.31,1.91,1.76.29.46,1.8,3.59,1.8,3.59l1.48,5.11-1.6-2.76-.28-1.56-.33,1.51-1.17-.85.53-1.9.55.67s-.01-1.35-.45-2.03c-.42-.69-1.09-.12-1.09-.12,0,0,.12,1.21.07,1.96-.04.74-1.23,2.11-1.54,1.41-.31-.7.3-1.88-.48-2.4-.78-.52-1.44-1.18-1.44-1.18,0,0,1.03-.49,1.57.06.54.55.66.66.66.66,0,0-.28-1.57-1.13-1.71-.86-.15,1.72.29,1.72.29,0,0-.72-1.14-1.36-1.56-.64-.42-.99-.94-.99-.94h0Z"/>
    <path class="cls-17" d="m145.31,253.63s1.45,1.2,1.91,1.76c.82,1.01,1.8,3.59,1.8,3.59,0,0-3.22-3.04-2.41-2.42,1.69,1.28-1.31-2.94-1.31-2.94h0Z"/>
    <path class="cls-16" d="m159.05,274.29s6.86-1.72,9.13-.97c2.27.75,4.97,2.4,4.97,2.4,0,0,1.63.67,1.11,1.47l-2.15.12c-.75-.28-1.54.18-1.08,1.23.46,1.05,1.15,1.95,1.15,1.95,0,0-2.8-2.74-3.64-2.77-.84-.03-3.96.09-3.96.09l2.63-1.29s-2.55-.19-4.16-.74c-1.62-.55-2.61-.8-3.71-1.04-1.1-.24-1.94-.18-1.94-.18,0,0,7.31-1.43,8.75-1.48,1.44-.04-7.1,1.2-7.1,1.2h0Z"/>
    <path class="cls-17" d="m160.93,273.83s3.99-.96,5.22-.73,2.09,1.72,2.09,1.72c0,0-1.13-.48-2.24-.72-1.11-.24-5.08-.27-5.08-.27h0Z"/>
    <path class="cls-16" d="m144.97,289.26c-1.21-.15-3.5.35-4.21.61-.47.16-2.03,2.01-3.07,3.28.61,1.39,1.23,2.79,1.85,4.2.15-.64.62-1.32.66-1.72.06-.53-.02-.81-.02-.81l.43.35.88-.33s-1.03,1.05-1.09,1.58c-.06.47-.12,1.99.04,2.96.26.59.52,1.17.78,1.76.36-.39.6-.82.6-.82l.17,1.14s.58-1,.72-1.3c.14-.31-.01-.76-.01-.76l.53.23.77-1.37-.67-.45-.52.52-.58-1.27.91-2.25,1.19-.6-1.06-1.5,1.76-1.2.97-.52s.18-1.59-1.03-1.74Z"/>
    <path class="cls-17" d="m142.17,294.24s-1.1,1-1.26,1.66c-.16.65.24,1.88.26,2.58.01.7-.41.51-.29,1.14.12.63.21.91.21.91,0,0,.87-.39,1-.82.13-.42-.06-1.21-.24-1.83-.18-.62-.42-1.34-.18-1.78.24-.44.5-1.86.5-1.86h0Z"/>
    <path class="cls-17" d="m139.82,292.94c-.34.62-1.36,1.2-1.36,1.2l-.13.47c.07.17.15.34.22.5l.84-.73,1.7-1.24-.47-.18,2.08-1.93-2.09,1.29s1.14-1.7,1.62-1.99c.48-.29.73-.6.73-.6,0,0-2.24.9-2.59,1.4-.35.51-.22,1.19-.56,1.81Z"/>
    <path class="cls-17" d="m138.72,295.49c.12.29.25.57.38.86.09-.07.19-.15.24-.21.3-.38.22-1.25.22-1.25,0,0-.45.26-.84.6Z"/>
    <path class="cls-13" d="m163.64,293.11s5.38,5.06,6.83,5.6c1.45.54,3.25,6.31,2.63,6.94-3.13,3.25-2.02,8.91-2.02,8.91l-3.46-8.64s-1.39-7.42-2.94-8.95c-1.54-1.53-1.04-3.86-1.04-3.86h0Z"/>
    <path class="cls-16" d="m193.51,309.53c-.4.02-.54.22-.65.53-.09.26-.16.61-.33.98-.37.8-.8,2.82-.9,3.53-.1.71.41.71.13,1.26-.29.56-.83.79-.91,1.67-.08.88-.1,1.29.49,1.46.58.16,1.13.56,1.13.56l.57-1.11.23-1.13.07,1.27s.4.65.79.49c.38-.16-.02-1.33-.02-1.33l.64-1-.64-1.32,1.19,1.03s-.54.35-.43.86c.11.51.82.83.82.83,0,0,.43.3.42.7-.02.41.37.37.45-.05.08-.42.36-.97.36-.97l.14-.89s-.48.93-.09,1.35c.38.42,1.05.4,1.05.4l.22-1.24,1.12.39s-.92-1.87-1.39-1.93c-.46-.06-.86-.65-.86-.65,0,0-.88-3.09-1.24-3.86-.36-.77-1.61-1.84-2.34-1.82h0Z"/>
    <path class="cls-17" d="m192.86,310.06s-1.02,3.2-1.12,3.86c-.11.65-.13.88.21,1.54.35.66,0,1.05-.21,1.36-.2.32.29.61.29.61,0,0,.3.19.29.6-.02.41.25-.9.25-.9l.78-.79s.47.18.52.64c.05.46.25-.96.25-.96,0,0-.61-.97-.8-1.18-.19-.21,1.21.21,1.21.21l.76,1.37s-.23.49.12.62c.35.13.66-.19.77.37.12.57-.08,1.4-.08,1.4,0,0,.66-.71.66-1.29,0-.59-.12-1.21-.04-1.56.08-.35.08-1.52-.42-1.93-.5-.4-.78-.43-.78-.43l-.35,1.03-.96-.99s.83-.85.58-1.63c-.25-.79-1.92-1.93-1.92-1.93h0Z"/>
    <path class="cls-17" d="m197.67,315.84s.52.11.73.44c.2.32.67,1.02.67,1.02l-.9-.47-.5-.98h0Z"/>
    <path class="cls-17" d="m197.03,316.9s.47.18.46.64c-.01.47-.1.71-.1.71,0,0,.67-.6.46-1.04-.21-.44-.83-.31-.83-.31h0Z"/>
    <path class="cls-13" d="m151.41,273.2c.14,1.33,3.44,4.26,3.44,4.26,0,0,5.5,3.8,7.17,3.6,1.67-.19-1.01-5.28-1.01-5.28,0,0,.01.12,1.15.6,1.13.48,4.54.94,6.91,1.77,2.37.83,1.58,1.41,1.72,2.75.13,1.34-5.82-.42-5.82-.42,0,0,4.34,7.35,4.23,6.26-.11-1.1-.98-1.36-1.22-2.56-.24-1.2,1.34-1.02,3.49-1.14,2.16-.13.71-2.54.71-2.54,0,0,1.26,6.6.76,8.75-.51,2.15.14,3.79,1.31,5.67,1.17,1.87,3.59.02,6.49,1.41,2.9,1.38,2.79,2.62,7.16,7.88,4.37,5.26,3.85,11.63,3.85,11.63,0,0,1.61-5.15,2.37-5.98.76-.82.2-6.15-1.5-9.43-1.88-1.01-2.7-1.9-4.09-3.68-1.39-1.78.16-3.55-2.09-8.77-2.25-5.21-4.83-8.45-7.38-9.74-2.55-1.29-3.24-1.21-3.24-1.21,0,0-3.43-3.13-7.65-3.7-4.21-.57-12.8-.36-13.8-1.66-1-1.29-2.13-2.23-2.13-2.23l-.41-2.42s-.56,4.86-.43,6.19h0Z"/>
    <path class="cls-12" d="m175.83,277.02c1.03.2,2.66.64,3.53,1.3.86.65,3.45,3.2,3.45,3.2,0,0-4.56-2.95-5.07-2.89-.51.06-.84-.48-.84-.48,0,0,2.9,1.95,3.44,2.56.71.79,1.93,2.74,1.93,2.74,0,0-3.33-3.16-4.37-3.79-.65-.4-2.57-2.5-5.25-4.21-1.55-.98-3.79-1.66-5.06-2.25-.6-.28,4.07.28,8.25,3.83h0Z"/>
    <polygon class="cls-3" points="196.07 309.82 193.71 303.55 194.67 309.69 196.07 309.82 196.07 309.82"/>
    <path class="cls-16" d="m194.12,309.85l-2.19-5.91-3.45-2.42s2.03,3.03,2.24,4.16c.2,1.12.91,8.89.91,8.89,0,0-.41-.47.58-1.82.99-1.35,1.91-2.89,1.91-2.89h0Z"/>
    <path class="cls-1" d="m183.4,285.32s1.92,2.89,2.16,3.53c.25.63.21,2.91.21,2.91,0,0-.21-.72-.75-1.03-.54-.3-1.62-.99-1.65-1.5-.04-.51.02-3.91.02-3.91h0Z"/>
    <path class="cls-16" d="m183.82,286.41s1.51,1.8,1.75,2.44c0,0-.7-.3-1,.66-.86-.59-1.15.24-1.18-.28-.04-.51.43-2.82.43-2.82h0Z"/>
    <path class="cls-17" d="m152.25,269.43l6.19,6.75,1.89,2s-.05.74.4,1.55c.44.81-1.27-.09-1.27-.09l-7.22-10.21h0Z"/>
    <path class="cls-13" d="m144.97,304.61s.12,4.03.6,6.41c.49,1.12.98,2.23,1.48,3.35.21-1.17.28-2.37-.06-3.26-.93-2.45-2.02-6.5-2.02-6.5Z"/>
    <path class="cls-13" d="m145.92,295.9c1.05-.82,1.39-2.02,2.83-1.26,1.44.76,4.67,3.4,4.67,3.4,0,0-1.85-.25-3.18.14-1.32.39-5.38-1.46-4.32-2.28h0Z"/>
    <path class="cls-16" d="m143.72,287.57s2.04-2.33,3.71-1.6c1.66.74,2.55,2.72,2.55,2.72,0,0-1.76-1.65-3.08-1.27-1.33.39-3.17.14-3.17.14h0Z"/>
    <path class="cls-16" d="m191.62,314.57s-.02-.22-.05-.57c-.08.4.05.57.05.57h0Z"/>
    <path class="cls-1" d="m206.73,308.08c8.85-20.09,17.07-38.74,25.07-56.9-.19-.47-.44-.91-.81-1.33-.64-.92-1.53-1.31-1.89-1.44l-.23-.32c-.33-.48-.68-1.04-1-1.61-.62-1.11-2.19-1.39-3.86-1.69-.66-.12-2.18-.59-3.07-.61-.89-.03-2.69,1.64-3.12,1.64-.91.01-1.73.49-2.38.87-.42.24-.81.47-1.08.5-.92.08-3.32.98-3.32.98l-.69,1.49-.27.59.63.07-1.02,2.71c-.84-.77-1.93-.03-1.93-.03-.4.15-.88.56-1.47,1.25-.38.35-1.09,1.32-1.37,1.83-.2.31-.49,1.01-.49,1.01-.37.81-.64,1.51-.65,1.54-.01.04-.59,2.05-.59,2.05-.03.08-1.36,4.72-1.36,4.72l-.81,1.15-.33,2.33s-1.19.98-2.2,2.3c-.52.69-4.86.91-8.02,1.08l-2.75.16c-.28-.01-.83.02-.96.07-.37,0-.72.01-1.03.05-.86-.15-2.8.59-3.48.85-2.62.99-4.56,2.58-5.04,3-.18.02-.46.07-.93.23-.81.21-1.96.59-2.68,1.14-.11.09-2.36,1.89-3.3,3.04l-.2.2s-1.85,2-3.74,6.6c-1.23,2.99-1.36,4.86-1.42,6.25-.05,1.04-.08,1.74-.61,2.41-1.34,1.73-2.13,2.58-3.95,3.56l-.19.19c-.42.81-.79,1.78-1.1,2.87l-2.38,5.74v.03s-.02.03-.02.03c0,.01-.35,1.25-1.11,2.65-.13.25-.33.56-.54.93-1.22,2.03-2.21,3.8-1.94,4.96.08.33.27.61.55.78.46.29.69.76.93,1.27.34.71.76,1.61,2,1.75,1.3.15,6.63-.62,7.29-1.95.15-.31.1-.66-.14-.93-.19-.21-.56-.65-.97-1.26-.13-.47-.38-.79-.59-1.04-.03-.03-.2-.35-.25-.48,0-.05.19-.6.13-1.04-.01-.11.06-.46.06-.46l.18-1.89c.3-.73.46-1.24.51-1.43l2.91-4.22c2.66-1.69,6.93-4.39,7.31-4.56.5-.22,4.33-3.66,6.37-5.51-.13,2.15-.32,6.75.18,8.87.01.16.05.36.16.53.81,2.25,1.97,8.72,1.99,8.79v.04s.64,1.67,1.9,2.09c1.08.35,5.45.67,5.94.7.04,0,.71.09,1.22-.46.52-.55.65-1.51.4-2.85-.29-1.56-1.86-2.48-3.24-3.29l-.57-.35c-.7-.42-1.09-.88-1.16-1.35-.12-.83.75-1.79,1.39-2.48.26-.29.49-.54.65-.77.51-.74,1.2-2.96,1.95-5.32.43-1.38.84-2.67,1.17-3.56.1-.24.25-.55.47-.61.38-.11,1.08.43,1.65.87.5.39.98.76,1.44.89,8.72,2.68,11.81,4.62,12.48,5.08.03.48.09,1.77-.07,3.05-.2.7-.4,1.34-.59,1.97Zm-1.12,2.53c.3-.69.61-1.39.91-2.07-.03.04-.05.07-.08.1-.51.59-.74,1.29-.84,1.97Z"/>
    <path class="cls-1" d="m231.02,249.88s-.02-.02-.03-.03c0,0,0-.01,0-.01l.04.04h0Z"/>
    <path class="cls-4" d="m231.49,251.59c-.66-2.02-2.67-2.79-2.67-2.79,0,0-.62-.78-1.35-2.1-.73-1.32-3.51-1.29-5.52-1.88-2.02-.59-2.74,1.45-4.13,1.46-1.39.01-2.55,1.29-3.43,1.36-.87.08-3.03.89-3.03.89l-1.88,4.91s-.48-.41-1.56,0c-1.08.4-2.93,3.37-2.93,3.37,0,0-1.02,3.24-1.46,4.25-.45,1.01-1.33,4.62-1.33,4.62l-.81,1.14-.41,2.42s-1.13.93-2.13,2.23-3.02,2.92-3.02,2.92c0,0-6.57-1.83-10.78-1.26-4.21.57-7.64,3.7-7.64,3.7,0,0-.68-.08-3.23,1.21-2.56,1.29-5.13,4.52-7.38,9.74-2.25,5.22-.7,6.99-2.09,8.77-1.39,1.78-1.09,1.78-1.99,2.74l-2.1.93-.37,1.11-3.1,7.47s-.35,1.28-1.15,2.75c-.81,1.47-3.45,5.2-2.11,6.05,1.34.85,1.01,2.75,2.74,2.95,1.73.2,7.77-.98,6.77-2.11-1-1.12-2.91-3.84-2.08-5.45.82-1.61,1.07-2.66,1.07-2.66l3-4.36s6.89-4.39,7.44-4.64c.56-.25,7.08-6.18,7.08-6.18,0,0-.62,8.03.22,10.31.84,2.28,2.02,8.9,2.02,8.9,0,0,.53,1.42,1.58,1.77,1.06.35,5.84.68,5.84.68,0,0,1.73.26,1.15-2.77-.29-1.55-2.14-2.43-3.6-3.32-3.19-1.94,0-4.17.75-5.27.75-1.1,2.17-6.44,3.06-8.79.89-2.35,2.84.5,4.1.88,10.29,3.16,12.79,5.28,12.79,5.28,0,0,.12,1.31,0,2.78,8.34-18.93,16.14-36.62,23.72-53.84-.02-.06-.04-.1-.06-.17Z"/>
    <path class="cls-16" d="m217.8,266.03l.11-.43c-.33-.12-.11.43-.11.43Zm13.69-14.44c-.66-2.02-2.67-2.79-2.67-2.79,0,0-.62-.78-1.35-2.1-.73-1.32-3.51-1.29-5.52-1.88-2.02-.59-2.74,1.45-4.13,1.46-1.39.01-2.55,1.29-3.43,1.36-.87.08-3.03.89-3.03.89l-.61,1.33,1.54.18-.06.61.79.58.57,1.37c.17-.08.02.05.02.05l-.02-.05c-.13.06-.46.25-1.26.76-1.8,1.14-1.04,1.96-1.04,1.96l1.46-.03-.87-.58s.06-.62,2-1.5c1.94-.88.77,1.51.77,1.51l.69.87s-1.95,1.57-2.33,3c-.38,1.43-.71,3.48-.71,3.48,0,0,1.41.29,2.38.27.96-.01.49-1.29.49-1.29l-.07-1.73s.64-1.52,1.16-1.95c.52-.43.48-1.17.33-2.05-.15-.88.43-1.91.88-2.84.45-.93,1.92-1.13,1.92-1.13,0,0-.14.23-.47,1.05-.32.82,1.31.15.91.59-.41.45.02,2.21.02,2.21,0,0-.81-1.57-1.57-1.17-.76.4.54,1.78.54,1.78,0,0-.16.35-.78.53-.62.17-.94.99-1.43,2.29-.49,1.29-.21,2.07-.71,2.25-.5.18-.82,1.01-.41,1.67.42.66,2.23.51,2.23.51l.46,1.4-.28,1.12c.2.08.6.39,1.38,1.22,2.06,2.21,3.23.13,3.23.13,0,0,.54-.55,1.09-1.22.55-.68-1.03-1.72-1.03-1.72v-1.11s.55-.8.55-.8l-.37-1.14s-.8.76-1.63.67c-.83-.1-.26-3.35-.26-3.35l.14,1c.14,1,1.88.46,1.88.46l.51.92,2.3-.1,1.41-.94s.68-2.01,1.41-2.05c.14,0,.27.07.4.17.88-2,1.76-4,2.64-5.99-.02-.06-.04-.1-.06-.17Z"/>
    <path class="cls-17" d="m218.65,256.31s-.86.14-1.37,1.68c-.52,1.53-.79,1.87-.79,1.87,0,0-.12,1.21-.63,1.52-.51.31-.26,1.44.58,1.42.84-.02.57-.92.57-.92-.42-1.3.66-2.99,1.21-3.66.55-.67.43-1.91.43-1.91h0Z"/>
    <path class="cls-17" d="m215.8,255.97s-1.62.55-1.68,1.15c-.06.61.13,1.12.13,1.12l-1.04,3.19s1.22.27,1.21-2.44c0-.77,1.14-.6,1.26-1.82l.12-1.21h0Z"/>
    <path class="cls-17" d="m221.73,262.8s-1,.37-1.56,1.17c-.56.79-.45,2.04.29,1.87.74-.16,1.22-1.33,1.22-1.33l.05-1.71h0Z"/>
    <path class="cls-17" d="m224.96,258.15s-.06,1.83-.75,1.51c-.69-.33.75-1.51.75-1.51h0Z"/>
    <path class="cls-4" d="m220.86,258.28l2.79-.29,1.88-.76-1.6-.8-1.76-1.68,1.05-.86s.37-1.31,1.32-1.2c.95.11-.91-.59-.91-.59,0,0-.2.83-1.03.74-.83-.1-1.31-.15-1.31-.15,0,0,1.25.76.38,1.02-.87.27-1.33.09-1.33.09l-.5,1.42-.03,1.47-1-.85.92,1.58,1.12.87h0Z"/>
    <polygon class="cls-12" points="222.63 257.38 221.87 256.56 221.33 257.23 222.63 257.38 222.63 257.38"/>
    <path class="cls-12" d="m228.82,248.8l-1.09-1.5c-1.09-1.5-1.79-1.31-1.79-1.31l-4.92-1.31-2.45,1.68.53.68s-.46-.18-1.31-.15c-.84.02-2.19,1.46-2.19,1.46,0,0,1.25-.47,2.11-.62.85-.14,1.14.63,1.14.63l1.06-.98s-.1-1.36.63-1.52c.45-.1,1.9.2,2.71.36.13,0,.26-.04.38,0,.4.14.14.1-.38,0-.99-.02-2.12.94-2.12.94,0,0,1.12-.36,2.04,0,.93.35,1.05,1.47,1.05,1.47,0,0,2.48.53,3.16.86.69.33-.11,1.09-.75,1.51-.64.42-1.6-.8-1.6-.8,0,0,.14,1,.69,1.55.54.56,1.8-.03,2-.75.19-.71,1.22-1.45,1.91-1.12.54.26,1.36,1.18,1.83,2.09.02-.05.04-.09.06-.14-.24-.51-.5-1.03-.74-1.45-.69-1.23-1.97-1.56-1.97-1.56Z"/>
    <path class="cls-12" d="m228.35,256.7s.29.33.69.73c.06-.13.11-.26.17-.39-.49-.24-.87-.34-.87-.34Z"/>
    <polygon class="cls-12" points="214.39 247.65 211.37 248.53 212.3 248.93 212.36 248.21 214.1 248.9 214.39 247.65 214.39 247.65"/>
    <path class="cls-12" d="m226.71,253.93s-.86-.96-1.38-.65c-.51.31-1.21.1-1.21.1l-.14,1.33.51.92-1.38-.65.11-1.09,1.51.54,1.97-.51h0Z"/>
    <path class="cls-12" d="m222.24,251.69c.85-.02,1.68,1.3.37,1.15-1.31-.15-1.21-1.12-.37-1.15h0Z"/>
    <path class="cls-12" d="m218.21,249.87c-.19-.51-1.32-.03-1.32-.03l.85,1.08s.66-.54.47-1.05h0Z"/>
    <path class="cls-4" d="m229.07,256.78s.08.06.2.14c.02-.04.04-.09.06-.13h-.26Z"/>
    <path class="cls-3" d="m230.8,252.69c-.15-.88-1.38-1.88-2.22-1.85-.84.02-1.01,1.72-1.01,1.72,0,0,.94.23,1.66.2.53-.03,1.18.54,1.5.85.05-.12.1-.23.16-.35-.02-.15-.05-.33-.09-.57Z"/>
    <path class="cls-4" d="m230.26,254.47s-.5.19-1.31-.15c-.81-.34-1.84-.83-1.84-.83,0,0,.41.66-.13,1.21-.54.55-1.45,1.31-1.45,1.31v1.22s.47-1.17,1.22-1.33c.59-.13,2.32-.04,2.97,0,.16-.36.31-.71.47-1.07l.07-.36Z"/>
    <path class="cls-4" d="m218.96,249.59s.73-1.27,1.68-1.15c.95.11,1.59.92,1.59.92l.88-.39s-.38-1.03-1.09-1.11c-.71-.08-1.32-.03-1.32-.03,0,0,1.12-.48,1.83-.28.7.2,1.7,1.06,1.7,1.06l.06,1.85-1.72.41s-1.44-.05-1.62.55c-.18.59.35,1.27.35,1.27l-1.47.32.24-1.2-.68-.45-.42-1.77h0Z"/>
    <path class="cls-17" d="m222.23,249.36l-1.12-.87s-.32-.4-1.08,0c-.76.4.21-.84,1.37-.45,1.17.38.83,1.32.83,1.32h0Z"/>
    <path class="cls-17" d="m210.84,249.89s1.08-.88,2.09-.15c1.01.73,1.26,1.86,1.26,1.86l-.73.04-1.16-1.61-1.46-.15h0Z"/>
    <path class="cls-16" d="m226.12,263.44c-.07.73-1.05.86-1.67,1.03-.62.17-.84,1.25-.84,1.25l.88-.39c.88-.39.65.69.65.69l-.82,1.01-.99,1.48-.13,1.34s-1.7.17-2.24.72c-.54.55-1.44,1.18-.76,1.63.68.45,1.59-.31,2.51-1.06.16-.13.29-.19.41-.25,1.55-3.52,3.09-7.02,4.62-10.49l-1.08,1.26s-.47,1.05-.54,1.78Z"/>
    <path class="cls-17" d="m223.32,268.51l.3,1.22c.12-.28.25-.56.37-.84l-.68-.37Z"/>
    <polygon class="cls-17" points="223 270.56 222.33 270.11 221 271.31 221.55 271.87 223 270.56 223 270.56"/>
    <path class="cls-13" d="m215.86,266.17s-.91,1.86.07,2.95c.97,1.09,2.88,1.2,4.02.71,1.13-.49,1.56-1.17,1.56-1.17l-3.71-2.64-1.94.14h0Z"/>
    <path class="cls-13" d="m207.45,267.28s-.51,6.32,1.78,7.45c2.29,1.13,6.6,1.38,6.6,1.38,0,0,.68,2.78-.06,4.17-.74,1.39-1.52,1.91-1.52,1.91,0,0-.6-1.17-.64-2.03-.03-.87-.16.47-.41,1.67-.24,1.2-.57,2.14.16,3.2.74,1.07.34,1.39-.25,2.55-.59,1.15-1.95.26-1.9-1.45.05-1.71.07-3.06.07-3.06,0,0-.67,1.89-1.22,2.56-.55.67-1.33-1.14-1.2-2.47.13-1.33.06-3.06.06-3.06l1.16-.73-1.14-.62-.05-1.85s-.92,1.98-1.6,1.53c-.67-.45-.85-1.08-.85-1.08l.88,2.06s.96,1.22.04,1.97c-.92.75-2.53-1.15-2.64-2.51-.1-1.37-.02-2.21.6-3.62.62-1.4,1.47-2.65,1.47-2.65,0,0-.83-.1-.91-1.7-.08-1.61,1.57-3.62,1.57-3.62h0Z"/>
    <path class="cls-16" d="m209.49,253.44s-.89-.67-1.56,0c-.66.65-1.63,1.3-1.92,1.77-.29.46-1.8,3.59-1.8,3.59l-1.47,5.1,1.6-2.76.27-1.57.33,1.51,1.16-.85-.53-1.9-.55.67s.01-1.35.45-2.04c.43-.69,1.1-.12,1.1-.12,0,0-.12,1.21-.08,1.96.05.74,1.23,2.11,1.54,1.41.31-.7-.29-1.88.48-2.4.77-.53,1.44-1.18,1.44-1.18,0,0-1.04-.49-1.57.06-.54.55-.67.66-.67.66,0,0,.28-1.56,1.13-1.71.86-.15-1.71.29-1.71.29,0,0,.72-1.14,1.36-1.56.64-.42.99-.94.99-.94h0Z"/>
    <path class="cls-17" d="m207.93,253.44s-1.46,1.2-1.92,1.77c-.82,1-1.8,3.59-1.8,3.59,0,0,3.22-3.04,2.41-2.42-1.69,1.28,1.31-2.94,1.31-2.94h0Z"/>
    <path class="cls-16" d="m194.19,274.1s-6.86-1.73-9.13-.98-4.96,2.4-4.96,2.4c0,0-1.63.67-1.11,1.47l2.15.13c.75-.28,1.54.18,1.08,1.23-.47,1.05-1.16,1.95-1.16,1.95,0,0,2.8-2.74,3.65-2.77.84-.02,3.96.09,3.96.09l-2.64-1.29s2.55-.2,4.17-.74c1.62-.55,2.61-.8,3.71-1.04,1.11-.24,1.94-.17,1.94-.17,0,0-7.31-1.44-8.75-1.48-1.44-.04,7.1,1.2,7.1,1.2h0Z"/>
    <path class="cls-17" d="m192.31,273.63s-3.99-.96-5.22-.73c-1.22.23-2.1,1.72-2.1,1.72,0,0,1.13-.48,2.24-.72,1.11-.24,5.08-.27,5.08-.27h0Z"/>
    <path class="cls-16" d="m212.47,289.67c-.71-.26-3-.76-4.21-.61-1.21.15-1.03,1.74-1.03,1.74l.97.52,1.76,1.2-1.06,1.5,1.19.6.91,2.26-.58,1.27-.52-.53-.67.45.77,1.37.54-.22s-.04.15-.06.33c.62-1.41,1.24-2.81,1.85-4.2-.29-.37-.6-.69-.6-.69l.77.29c.54-1.22,1.08-2.44,1.61-3.66-.72-.81-1.39-1.51-1.66-1.61Z"/>
    <path class="cls-17" d="m211.07,294.04s.26,1.42.5,1.86c.18.33.09.83-.04,1.31.24-.55.49-1.11.73-1.66-.26-.65-1.18-1.51-1.18-1.51Z"/>
    <path class="cls-17" d="m212.86,290.94c-.35-.51-2.59-1.41-2.59-1.41,0,0,.25.32.74.61.48.29,1.62,1.99,1.62,1.99l-2.09-1.29,2.09,1.92-.48.18.95.69c.12-.28.25-.56.37-.84-.01-.02-.03-.04-.04-.06-.34-.62-.21-1.3-.56-1.8Z"/>
    <path class="cls-13" d="m189.59,292.91s-5.38,5.06-6.83,5.6c-1.44.54-3.25,6.3-2.63,6.94,3.13,3.24,2.02,8.9,2.02,8.9l3.46-8.64s1.4-7.42,2.94-8.95c1.55-1.53,1.04-3.86,1.04-3.86h0Z"/>
    <path class="cls-16" d="m159.73,309.34c.4.01.54.22.66.53.09.26.16.61.33.98.37.8.8,2.82.9,3.53.1.71-.41.71-.13,1.26.29.56.83.79.91,1.67.08.88.1,1.29-.48,1.45-.59.17-1.14.57-1.14.57l-.57-1.11-.23-1.13-.07,1.27s-.4.65-.79.49c-.38-.16.02-1.33.02-1.33l-.64-1,.64-1.32-1.18,1.03s.53.36.42.86c-.11.51-.82.83-.82.83,0,0-.43.3-.42.71.01.41-.37.36-.45-.05-.07-.42-.36-.97-.36-.97l-.14-.89s.48.93.1,1.35c-.39.42-1.06.39-1.06.39l-.22-1.24-1.12.39s.93-1.87,1.39-1.93c.46-.06.86-.65.86-.65,0,0,.88-3.09,1.24-3.86.36-.77,1.61-1.85,2.34-1.82h0Z"/>
    <path class="cls-17" d="m160.38,309.87s1.02,3.21,1.12,3.86c.11.65.14.89-.21,1.54-.35.66,0,1.04.21,1.36.2.31-.29.6-.29.6,0,0-.3.2-.29.6.02.41-.25-.9-.25-.9l-.78-.79s-.47.18-.52.64c-.05.46-.25-.96-.25-.96,0,0,.61-.97.8-1.19.19-.21-1.22.21-1.22.21l-.76,1.36s.23.49-.12.63c-.35.13-.66-.19-.78.37-.11.57.08,1.41.08,1.41,0,0-.67-.71-.66-1.29,0-.58.12-1.2.04-1.56-.08-.36-.08-1.52.42-1.92.5-.41.78-.43.78-.43l.35,1.03.96-.99s-.82-.85-.58-1.63c.25-.79,1.92-1.93,1.92-1.93h0Z"/>
    <path class="cls-17" d="m155.57,315.64s-.52.11-.73.44c-.2.33-.67,1.03-.67,1.03l.9-.47.5-.99h0Z"/>
    <path class="cls-17" d="m156.2,316.7s-.47.18-.46.64c.01.47.1.71.1.71,0,0-.68-.6-.47-1.04.21-.44.83-.31.83-.31h0Z"/>
    <path class="cls-13" d="m201.83,273c-.13,1.33-3.43,4.26-3.43,4.26,0,0-5.5,3.8-7.17,3.6-1.67-.19,1.01-5.28,1.01-5.28,0,0-.01.12-1.15.6-1.13.48-4.54.94-6.91,1.77-2.37.83-1.58,1.41-1.72,2.75-.13,1.34,5.82-.43,5.82-.43,0,0-4.34,7.35-4.23,6.26.11-1.09.98-1.36,1.22-2.56.24-1.2-1.34-1.02-3.49-1.15-2.16-.13-.71-2.54-.71-2.54,0,0-1.26,6.6-.75,8.75.51,2.15-.14,3.79-1.31,5.66-1.18,1.88-3.59.03-6.49,1.41-2.9,1.38-2.79,2.62-7.16,7.88-4.37,5.26-3.86,11.64-3.86,11.64,0,0-1.61-5.15-2.36-5.98-.76-.83-.2-6.15,1.5-9.44,1.88-1,2.7-1.89,4.09-3.67,1.39-1.78-.16-3.55,2.09-8.77,2.25-5.22,4.82-8.45,7.38-9.74,2.55-1.29,3.23-1.21,3.23-1.21,0,0,3.43-3.13,7.64-3.7,4.21-.57,12.81-.36,13.8-1.66s2.13-2.23,2.13-2.23l.41-2.42s.56,4.86.43,6.19h0Z"/>
    <path class="cls-12" d="m177.41,276.82c-1.03.2-2.67.64-3.53,1.29-.86.66-3.45,3.2-3.45,3.2,0,0,4.56-2.95,5.07-2.89.51.05.85-.48.85-.48,0,0-2.9,1.95-3.44,2.56-.7.79-1.92,2.74-1.92,2.74,0,0,3.33-3.15,4.36-3.79.65-.4,2.57-2.5,5.25-4.21,1.55-.99,3.8-1.66,5.06-2.26.6-.28-4.07.28-8.25,3.83h0Z"/>
    <polygon class="cls-3" points="157.17 309.63 159.53 303.36 158.57 309.48 157.17 309.63 157.17 309.63"/>
    <path class="cls-16" d="m159.12,309.66l2.19-5.91,3.45-2.43s-2.04,3.03-2.24,4.15c-.2,1.12-.91,8.9-.91,8.9,0,0,.41-.47-.58-1.82-.99-1.36-1.91-2.89-1.91-2.89h0Z"/>
    <path class="cls-16" d="m169.42,286.21s-1.51,1.8-1.75,2.44c0,0,.7-.3,1,.67.86-.6,1.15.23,1.18-.28.03-.51-.43-2.83-.43-2.83h0Z"/>
    <path class="cls-17" d="m200.99,269.24l-6.19,6.75-1.89,2s.04.74-.4,1.55c-.44.81,1.27-.08,1.27-.08l7.22-10.21h0Z"/>
    <path class="cls-13" d="m208.14,304.87c.04-.09.08-.18.12-.28,0-.09,0-.19,0-.19,0,0-.05.19-.13.46Z"/>
    <path class="cls-13" d="m207.32,295.71c-1.05-.83-1.39-2.02-2.83-1.26-1.44.76-4.66,3.41-4.66,3.41,0,0,1.84-.25,3.17.13,1.33.39,5.38-1.46,4.32-2.28h0Z"/>
    <path class="cls-16" d="m209.52,287.36s-2.04-2.33-3.71-1.59c-1.67.74-2.55,2.72-2.55,2.72,0,0,1.76-1.65,3.08-1.27,1.33.39,3.18.13,3.18.13h0Z"/>
    <path class="cls-16" d="m161.61,314.37s.02-.22.05-.57c.08.4-.05.57-.05.57h0Z"/>
    <path class="cls-8" d="m176.87,202.12c-.12-.33,0-.66.15-1,.18-.46.39-.99.11-1.59-.31-.67-.42-1.33-.52-1.91-.08-.52-.16-.96-.35-1.28-.28-.46-1.4-1.01-2.11-1.28-.18.04-.39.07-.61.09-.45.05-1.14.14-1.31.41-.18.27-.45.5-.73.73-.44.37-.9.76-.98,1.27-.1.62-.4,1.12-.67,1.56-.23.38-.43.71-.46,1.03-.17,1.84.07,2.45.23,2.65.17.21.39.47.62.74.4.47.81.95,1.05,1.31.03-.03.06-.06.08-.09.12-.14.28-.32.47-.46.51-.37,1.9-.95,2.58-.95.29,0,.74.1,1.17.29-.12-.65-.33-1.7-.44-1.98-.16-.41-.27-1.52-.27-1.52,0,0,1.08,1.4,1.13,1.87.04.31.51,1.12.82,1.63.04-.47.12-1.33.05-1.52h0Z"/>
    <path class="cls-9" d="m174.87,200.15s.11,1.11.27,1.52c.11.28.32,1.33.44,1.98.49.21.95.52,1.14.92.01.03.03.05.04.06,0-.01,0-.02,0-.04,0-.23.03-.55.06-.92,0,0,0-.01,0-.02-.31-.5-.78-1.31-.82-1.63-.06-.47-1.13-1.87-1.13-1.87h0Z"/>
    <path class="cls-10" d="m164.16,252.22l.29-.47c.06.25.15.53.28.82.6,1.29,2.12,2.17,3.76,2.17h.31c-.08.09-.1.21-.11.29-.01.36.07.54,2.12,1.05,1.19.29,2.36.51,3.15.58,1.59.14,6.73.54,9.1.67-.15.06-.3.11-.45.17l-.16.06c-1.52.59-3.09.42-4.48.27-.6-.06-1.17-.13-1.71-.13-.9,0-2.19-.4-3.33-.77-1.08-.34-2.01-.63-2.67-.63-1.24,0-4.59-.69-4.62-.69l-.21.84c.3.11,7.34,2.64,9.6,3.16.89.21,2.07.33,3.21.45.82.08,1.86.19,2.42.32-.18.15-.4.3-.64.46-.86.59-1.84,1.27-2.21,2.2-.33.83-1.12,2.5-1.58,3.45-.39-.77-.99-2.05-1.39-3.25-.7-2.07-4.52-3.44-4.95-3.59l-.32.8s2.28,1.34,2.72,3.05c.37,1.49.66,4.11.76,5.12-.54-.37-2.12-5.19-4.1-5.29-.7-.04-2.79-1.32-4.12-2.39-.96-.79-1.74-3.38-1.96-4.31h-.02c.52-2.13,1.18-4.1,1.29-4.42h0Z"/>
    <path class="cls-15" d="m188.91,256.07c-.63.28-2.81,1.28-4.08,2.05-1.83,1.1-3.4,3.06-4.17,4.14-.93,1.29-1.24,2.47-1.34,2.96l-2.07,1.17s0,0,0,0c.46-.97,1.07-2.27,1.36-2.99.27-.68,1.17-1.3,1.9-1.8.45-.31.84-.58,1.09-.86.24-.26.18-.52.15-.62-.17-.52-.83-.64-3.39-.91-1.12-.12-2.28-.24-3.12-.43-1.03-.24-3.12-.92-5.08-1.58h.13c.54,0,1.46.29,2.44.6,1.25.39,2.54.8,3.56.8.5,0,1.05.06,1.63.12,1.47.16,3.13.33,4.82-.32l.16-.06c.69-.27,1.19-.46,1.53-.61.39-.17.81-.35.74-.78-.02-.11-.06-.19-.12-.26.18,0,.35,0,.5-.02,1.5-.12,2.74-.58,3.39-.87,0,.1-.02.19-.02.28h0Z"/>
    <path class="cls-15" d="m175.51,268.3c-.2.24-.5.48-.98.64-.24.08-.48.08-.71.04h.09c-.01-.16-.33-3.74-.83-5.69-.14-.55-.42-1.06-.76-1.51.83.52,1.55,1.13,1.77,1.78.57,1.7,1.49,3.49,1.75,3.98,0,.04-.02.11-.04.18-.11.17-.21.37-.31.59h0Z"/>
    <path class="cls-10" d="m189.02,254.8s-.07.03-.13.06c.05-.03.09-.06.13-.1,0,.01,0,.02,0,.03h0Z"/>
    <path class="cls-10" d="m189.06,253.53s-.28.44-.81.73c-.23.13-.68.12-1.22.07.62-.07,1.19-.23,1.62-.54.18-.14.35-.29.49-.44,0,.07-.01.15-.02.23l-.06-.04h0Z"/>
    <path class="cls-11" d="m184.66,254.91c.4.04.79.1,1.17.15.9.13,1.66.23,2.24.15-.65.24-1.56.5-2.59.58-1.18.1-3.37-.21-5.31-.48-1.44-.2-2.8-.39-3.57-.39-.98,0-2.78-.11-4.36-.2-.14,0-.28-.01-.42-.02,1.94-.07,4.22-.25,5.84-.66.62-.16,1.36-.37,2.15-.62l-.06.62c.13.03,3.28.71,4.9.88h0Z"/>
    <path class="cls-10" d="m181.3,256.34c-2.57-.17-6.04-.45-7.26-.56-.35-.03-.76-.09-1.19-.17,1.41.09,2.88.17,3.75.17.72,0,2.06.19,3.47.39.4.05.81.11,1.23.17h0Z"/>
    <path class="cls-15" d="m167.79,265.35c-.05-.06-.19-.24-.42-.62-.25-.4-.86-.84-1.83-1.52-.4-.28-.81-.57-1.19-.86-.26-.21-.51-.8-.73-1.57.22.35.47.66.74.88,1.39,1.12,3.64,2.21,4.31,2.5.18.08.48.4.82.83-.54,0-1.13.14-1.7.37h0Z"/>
    <path class="cls-11" d="m162.26,259.95c.03-.31.08-.64.13-.98.27,1.59.75,3.51,1.5,4.09.39.3.81.59,1.22.88.67.47,1.43,1.01,1.6,1.28.13.21.02.09.11.21-.74.37-1.44.72-1.74.94-.44.31-.57.4-.87.52-.03-.01-.49.36-.67.42-.42-1.29-1.52-4.92-1.27-7.36h0Z"/>
    <path class="cls-10" d="m190.54,270.27c-.5-.11-1.8-.93-2.78-1.19-1.38-.37-4.28-1.8-4.83-3.13-.54-1.32-1.91-1.02-2.72-.96.15-.52.46-1.33,1.09-2.19,1.27-1.77,2.66-3.16,3.93-3.91,1.03-.62,2.75-1.43,3.62-1.83.13.71,1.94,10.5,2.09,11.66.09.7-.22,1.28-.4,1.56h0Z"/>
    <path class="cls-10" d="m189.32,250.27c0,.15,0,.34-.01.55-.06.62-.28,1.63-1.1,2.23-1.07.77-3.76.34-4.71.11h-.05s-.04,0-.04,0h-2.84c2.26-.75,4.72-1.73,5.82-2.53,1.04-.75,1.61-1.42,1.88-1.78.37.15,1.05.54,1.05,1.42h0Z"/>
    <path class="cls-15" d="m170.36,200.47s.32-1.23,1.29-1.57c.97-.35,1.95-.09,1.86.35-.08.44-.57,1.58-.57,1.58l-.33-.88s-.16.53-.49.61c-.32.09-.65-.44-.65-.44l-1.13.35h0Z"/>
    <path class="cls-15" d="m174.98,200.65s-.4-1.4.16-1.57c.57-.17,1.21.17,1.46.53.24.35.48,1.31.48,1.31l-.57-.53s-.16.44-.49.53c-.32.09-.49-.7-.49-.7l-.57.44h0Z"/>
    <path class="cls-15" d="m174.01,203.44s.4-.62.64-.35c.25.26-.64.35-.64.35h0Z"/>
    <path class="cls-15" d="m175.06,203.09c-.14.2.41.53.41.53,0,0-.16-.88-.41-.53h0Z"/>
    <path class="cls-2" d="m177.55,204.79s.01,0,.02,0c0-.02,0-.04,0-.06,0,.02,0,.04-.01.06h0Z"/>
    <path class="cls-5" d="m177.32,205.3c0,.34.1.79.18,1.12.16.7-.16,1.75-.49,2.45-.33.7-1.22,1.14-1.78.18-.57-.96-1.54.7-1.95,0s-1.7.44-1.87-.35c-.16-.79-.48-.96-1.29-1.4-.81-.44-2.19-1.75-2.51-2.98-.28-1.07.24-1.81.92-2.57-.02-.47,0-1.03.05-1.68.04-.47.26-.88.49-1.26.02-.83-.03-2.16-1.71-.79-.76.62-1.25.37-1.56-.16-.08.31-.14.63-.14.95,0,1.06.17,2.23.34,3.36.16,1.06.31,2.07.31,2.94,0,1.68.63,2.95,1.17,3.54.24.25.52.51.79.73l-.34-2.28-.24-1.66.96,1.32c.31.43,1.85,2.58,2.02,3.51.12.68,1.14,1.98,2.14,2.29.92.28,3.48-.81,3.89-1.85.49-1.22,1.09-4.27.95-5.18-.03-.19-.06-.45-.09-.74,0,0-.01,0-.02,0-.03.21-.11.38-.23.51h0Z"/>
    <path class="cls-2" d="m167.36,198.02c1.68-1.36,1.73-.04,1.71.79.04-.06.07-.11.1-.16.25-.4.48-.79.55-1.23.13-.85.77-1.38,1.28-1.82.24-.2.46-.39.57-.55.39-.59,1.22-.69,1.88-.77.24-.03.47-.06.6-.1l.12-.04.12.04c.21.08,2.09.77,2.64,1.66.04.07.08.15.12.22.18.02.31.11.35.28.09.39.2,1,.28,1.56,0-1-.06-1.91-.23-2.19-.57-.07-.84-.72-1.1-1.37-.25-.63-.54-1.34-1.09-1.64-1.08-.58-2.46-.35-2.64-.32-.41.16-.84.29-1.29.42-.96.29-1.95.58-2.78,1.25-.58.47-2.29,1.99-2.78,3.78.31.53.8.78,1.56.16h0Z"/>
    <path class="cls-5" d="m177.06,196.08c.2.42.27.89.35,1.39.07.41.14.82.27,1.24,0-.27.01-.53.01-.79-.08-.55-.2-1.17-.28-1.56-.04-.18-.18-.26-.35-.28h0Z"/>
    <path class="cls-2" d="m167.6,204.32c.33,1.23,1.7,2.54,2.51,2.98.81.44,1.13.61,1.29,1.4.16.79,1.46-.35,1.87.35s1.38-.96,1.95,0c.57.96,1.46.52,1.78-.18.32-.7.65-1.75.49-2.45-.08-.33-.17-.78-.18-1.12-.09.11-.21.18-.35.22-.38.1-.77-.13-.97-.56-.13-.3-1.07-.72-1.58-.72-.47,0-1.69.48-2.12.8-.12.09-.23.21-.34.33-.2.23-.42.48-.75.45-.21-.02-.38-.15-.52-.38-.19-.31-.64-.83-1.04-1.3-.24-.28-.46-.54-.64-.76-.27-.34-.43-.88-.47-1.63-.68.75-1.21,1.49-.92,2.57h0Z"/>
    <path class="cls-15" d="m172.79,205.55s.73-1.14,1.54-1.14,1.38.26,1.46.61c.08.35.48.96.16,1.05-.32.09-.08-1.31-.73-1.05-.65.26-1.14-.44-1.46,0-.33.44-.49.7-.97.53h0Z"/>
    <path class="cls-1" d="m189.57,279.22c-.05.74-.08,1.29-.08,1.51s.08.61.21,1.1c.42,1.54,1.37,4.07,2.1,5.71-.96.78-1.74,1.62-.77,3.96.97,2.37,1.7,8.4,1.94,9.71.24,1.32,1.95,5.78,1.7,7.36-.24,1.57.97,4.2,1.46,6.04.49,1.84.97,4.2,1.94,4.2s.25-1.84.25-1.84l1.46-.52-.69-3.48c.38.5.69.91.86,1.13.7.91.72,2.33.72,2.35v.04s0,.05,0,.05c.02.12.06.62-.15.77-.29.22-.42.52-.52.73-.11.25-.11.25-.23.25-.41,0-.65.38-.86.71-.19.3-.38.6-.62.63-.19.02-.54-.08-1.16-.69-1.11-1.11-1.82-2.66-2.43-4.03-.23-.51-.44-.98-.66-1.41-.18-.68-.38-1.38-.58-2.02-.73-2.36-.24-3.68,0-4.73.24-1.05-1.94-4.2-2.67-5.78-.49-1.05-2.6-4.68-3.95-6.97-.62-2.02-1.08-3.91-1.08-4.84,0-2.79-1.18-6.7-1.31-7.14-.07-.22-.22-.64-.43-1.22-.76-2.1-2.34-6.48-2.46-8.65-.01-.18-.04-.36-.05-.54h-.82c.02.2.05.41.06.6.13,2.3,1.69,6.6,2.52,8.91.19.54.35.98.42,1.18.47,1.53,1.27,4.71,1.27,6.86,0,2.57,2.95,11.04,3.96,12.67.8,1.29.66,3.56.27,5.25-.46,2,2.97,5.31,3.37,5.69.52.48.94,1.43,1.43,2.52.65,1.44,1.39,3.07,2.61,4.29.69.68,1.28.98,1.8.92.62-.08.95-.62,1.2-1,.07-.11.18-.28.24-.33.59-.03.79-.47.91-.75.08-.18.13-.3.24-.37.54-.39.57-1.18.5-1.62,0-.25-.06-1.79-.9-2.87-.93-1.22-3.74-4.92-4.52-6.1-.58-.87-.99-2.86-1.22-5.91l-.05-.69c-.59-7.89-1.08-11.63-1.64-12.49-.8-1.2-2.84-6.69-2.84-7.62,0-.75.45-5.92.74-9.15h-.81c-.15,1.69-.49,5.46-.65,7.64h0Z"/>
    <path class="cls-9" d="m184.01,280.77c.21.58.36,1,.43,1.22.13.44,1.31,4.35,1.31,7.14,0,.93.46,2.82,1.08,4.84,1.35,2.29,3.46,5.92,3.95,6.97.73,1.58,2.92,4.73,2.67,5.78-.24,1.05-.73,2.36,0,4.73.2.64.4,1.34.58,2.02.22.43.44.9.66,1.41.62,1.37,1.32,2.92,2.43,4.03.62.62.97.72,1.16.69.25-.03.44-.33.62-.63.21-.33.45-.71.86-.71.11,0,.12,0,.23-.25.09-.21.22-.51.52-.73.21-.15.18-.65.15-.77,0,0,0-.04,0-.05v-.04s-.02-1.44-.72-2.35c-.17-.22-.48-.63-.86-1.13l.69,3.48-1.46.52s.73,1.84-.25,1.84-1.46-2.36-1.94-4.2c-.49-1.84-1.7-4.47-1.46-6.04.25-1.58-1.46-6.04-1.7-7.36-.24-1.31-.97-7.35-1.94-9.71-.97-2.34-.19-3.18.77-3.96-.74-1.63-1.68-4.17-2.1-5.71-.58,1.19-2.19,2.38-3.29,1.79-1.46-.79,1.22-2.62.25-3.15-.98-.53-.98-4.46-1.7-7.35-.14-.57-.22-1.07-.27-1.53h-3.19c.02.18.04.36.05.54.12,2.16,1.7,6.54,2.46,8.65h0Z"/>
    <path class="cls-9" d="m189.08,273.64c-.18,1.35.17,3.84.49,5.58.16-2.18.5-5.94.65-7.64h-.99c-.04.77-.08,1.52-.15,2.06h0Z"/>
    <path class="cls-8" d="m189.08,273.64c.07-.53.11-1.28.15-2.06h-4.55c.05.46.12.96.27,1.53.73,2.89.73,6.82,1.7,7.35.97.53-1.7,2.36-.25,3.15,1.1.59,2.71-.6,3.29-1.79-.13-.49-.21-.88-.21-1.1s.03-.77.08-1.51c-.33-1.74-.67-4.23-.49-5.58h0Z"/>
    <path class="cls-1" d="m174.9,271.8l.03,5.42c.02,2.75.05,5.75.03,7.59-.01.81-.03,1.39-.06,1.63-.17,1.26.15,4.54.85,6.04.59,1.29,1.9,8.54,1.9,11.88,0,.18,0,.35,0,.53-.14,1.03-.25,2.01-.25,2.62,0,1.84.49,4.99.97,6.57.48,1.57-.97,1.57-1.22,2.89-.07.36-.1.78-.11,1.2-.24.25-.44.56-.53.97-.09.38-.37.83-.72,1.23-.39.44-.87.82-1.32.98-.25.1-.46.1-.56.01-.61-.53-1.11-.28-1.44-.11-.28.14-.45.23-.74.06-.45-.24-.77-.69-.79-1.11-.03-.5.35-.88.67-1.11,1.53-1.1,3.3-4.73,3.37-4.89l.09-.18-.07-.19c-.23-.62-.52-1.78-.33-2.3.29-.77-.3-2-.93-3.31-.27-.58-.53-1.12-.69-1.56-.5-1.44-3.23-9.77-3.71-11.85-.09-.4-.21-.88-.35-1.4-.57-2.23-1.36-5.29-1.1-7.18.24-1.85-.88-7.93-2.06-13.99-.05-.23-.08-.43-.13-.64h-.83c.05.26.1.53.16.82.81,4.14,2.3,11.84,2.06,13.69-.28,2.08.54,5.24,1.12,7.54.13.51.25.98.34,1.38.49,2.11,3.24,10.5,3.74,11.95.17.49.44,1.05.72,1.65.42.87,1.05,2.19.9,2.59-.31.85.08,2.23.26,2.75-.36.72-1.84,3.54-3.02,4.4-.9.65-1.06,1.39-1.03,1.89.04.73.53,1.45,1.24,1.83.65.35,1.13.11,1.45-.05.29-.15.37-.19.59,0,.23.2.65.39,1.33.14.99-.36,2.28-1.61,2.56-2.82.14-.6.66-.88,1.27-1.2.53-.28,1.08-.57,1.42-1.12.67-1.09.11-2.63-.39-4-.08-.21-.15-.4-.22-.6-.46-1.31-.95-4.77-.95-8.07s-1.29-10.76-1.99-12.27c-.62-1.34-.92-4.39-.77-5.52.11-.86.08-4.98.04-9.36l-.03-5.41c0-.06.02-.15.03-.22h-.98c.08.16.13.25.13.22h0Z"/>
    <path class="cls-8" d="m167.92,286.22c-.25,1.9.53,4.95,1.1,7.18.13.52.25,1,.35,1.4.48,2.08,3.21,10.41,3.71,11.85.15.44.41.98.69,1.56.63,1.31,1.22,2.54.93,3.31-.19.52.1,1.68.33,2.3l.07.19-.09.18c-.07.15-1.85,3.79-3.37,4.89-.32.23-.7.62-.67,1.11.02.42.34.87.79,1.11.3.16.46.08.74-.06.33-.16.82-.42,1.44.11.1.08.3.08.56-.01.44-.16.93-.54,1.32-.98.04-.5.08-1.1.14-1.82.24-2.89,1.46-2.62,1.46-4.46s-1.46-4.73-2.43-6.57c-.97-1.84-1.95-11.82-2.19-13.39-.24-1.58-1.46-6.3-1.7-7.88-.24-1.58-1.22-2.62-.49-4.2.63-1.37,1.08-7.08,1.19-10.46h-6.06c.04.21.08.42.13.64,1.18,6.06,2.31,12.14,2.06,13.99h0Z"/>
    <path class="cls-14" d="m174.01,272.59c.48,2.36-.73,8.14,0,10.24.23.66.58,1.35.95,1.98.02-1.84,0-4.84-.03-7.59l-.03-5.42s-.05-.06-.13-.22h-.91c.04.34.08.68.15,1.01h0Z"/>
    <path class="cls-9" d="m174.01,272.59c-.07-.33-.11-.67-.15-1.01h-2.07c-.11,3.37-.56,9.09-1.19,10.46-.73,1.58.25,2.62.49,4.2.24,1.58,1.46,6.3,1.7,7.88.24,1.57,1.22,11.55,2.19,13.39.97,1.84,2.43,4.73,2.43,6.57s-1.22,1.57-1.46,4.46c-.06.72-.1,1.32-.14,1.82.35-.4.63-.85.72-1.23.09-.41.29-.72.53-.97,0-.42.04-.83.11-1.2.24-1.31,1.7-1.31,1.22-2.89-.49-1.58-.97-4.73-.97-6.57,0-.61.11-1.59.25-2.62,0-.18,0-.35,0-.53,0-3.34-1.31-10.59-1.9-11.88-.7-1.5-1.02-4.78-.85-6.04.03-.24.05-.82.06-1.63-.38-.63-.73-1.32-.95-1.98-.73-2.1.48-7.88,0-10.24h0Z"/>
    <path class="cls-8" d="m191.02,291.5c.97,2.37,1.7,8.4,1.94,9.71.24,1.32,1.95,5.78,1.7,7.36-.24,1.57.97,4.2,1.46,6.04.49,1.84.97,4.2,1.94,4.2s.25-1.84.25-1.84l1.46-.52-.69-3.48c-1.18-1.56-3.06-4.05-3.69-5.02-.68-1.03-1.12-3.04-1.37-6.35l-.06-.69c-.54-7.31-1.04-11.37-1.49-12.05-.17-.26-.41-.74-.68-1.33-.96.78-1.74,1.62-.77,3.96h0Z"/>
    <path class="cls-14" d="m193.45,306.73c.24-1.05-1.94-4.2-2.67-5.78-.49-1.05-2.6-4.68-3.95-6.97.93,3.08,2.21,6.47,2.75,7.34,1.19,1.92.59,5.04.38,5.95-.22.96,1.41,3.21,3.11,4.82.36.35.67.83.96,1.39-.18-.68-.38-1.38-.58-2.02-.73-2.36-.24-3.68,0-4.72h0Z"/>
    <path class="cls-14" d="m178.65,312.74c-.47-1.34-.95-4.58-1-7.85-.14,1.03-.25,2.01-.25,2.62,0,1.84.49,4.99.97,6.57.48,1.57-.97,1.57-1.22,2.89-.07.36-.1.78-.11,1.2.34-.35.77-.58,1.17-.79.46-.24.89-.47,1.11-.82.44-.71-.04-2.03-.47-3.19-.08-.21-.15-.42-.22-.62h0Z"/>
    <path class="cls-21" d="m92.77,155.19l.19,3.88c-2.06.48-3.8.73-5.24.73-3.87,0-6.91-.95-9.13-2.86-2.36-2.01-3.53-4.9-3.53-8.68s1.13-6.96,3.39-9.13c2.22-2.13,5.31-3.19,9.27-3.19,1.85,0,3.58.32,5.21.95l-.32,3.89c-1.44-.82-3.11-1.22-4.99-1.22-2.32,0-4.2.8-5.64,2.41-1.39,1.56-2.08,3.54-2.08,5.96s.69,4.37,2.08,5.88c1.43,1.57,3.35,2.36,5.76,2.36,2.13,0,3.81-.32,5.05-.95Z"/>
    <path class="cls-21" d="m98.94,159.37l8.96-23.06h5.2l9.04,23.06h-5.11l-1.98-5.3h-9.33l-2.01,5.3h-4.78Zm14.82-8.91l-3.33-9.53h-.05l-3.33,9.53h6.71Z"/>
    <path class="cls-21" d="m130.07,159.37v-23.06h6.3c8.87,0,13.29,3.84,13.29,11.53s-4.43,11.53-13.29,11.53h-6.3Zm4.64-19.41v15.8h2.55c2.04,0,3.79-.69,5.24-2.07,1.55-1.49,2.33-3.44,2.33-5.84s-.78-4.34-2.33-5.82c-1.45-1.38-3.19-2.07-5.24-2.07h-2.55Z"/>
    <path class="cls-21" d="m158.43,159.37v-23.06h4.64v23.06h-4.64Z"/>
    <path class="cls-21" d="m171.47,159.37v-3.76l10.82-15.65h-10.39v-3.66h15.33v3.78l-10.93,15.68h11.16v3.61h-15.98Z"/>
    <path class="cls-21" d="m226.98,155.19l.19,3.88c-2.05.48-3.8.73-5.24.73-3.87,0-6.92-.95-9.13-2.86-2.36-2.01-3.53-4.9-3.53-8.68s1.13-6.96,3.39-9.13c2.23-2.13,5.31-3.19,9.27-3.19,1.85,0,3.58.32,5.2.95l-.32,3.89c-1.44-.82-3.1-1.22-4.99-1.22-2.32,0-4.2.8-5.64,2.41-1.39,1.56-2.08,3.54-2.08,5.96s.7,4.37,2.09,5.88c1.43,1.57,3.35,2.36,5.75,2.36,2.13,0,3.81-.32,5.05-.95Z"/>
    <path class="cls-21" d="m235.1,159.37v-4.64h4.62v4.64h-4.62Z"/>
    <path class="cls-21" d="m249.62,159.37v-23.06h12.8v3.66h-8.16v5.67h7.73v3.61h-7.73v10.12h-4.64Z"/>
    <path class="cls-21" d="m270.67,159.37v-4.64h4.62v4.64h-4.62Z"/>
    <path class="cls-22" d="m115.39,119.88c14.73-3.6,34.81-6.75,60.11-6.75s45.38,3.15,60.11,6.75h23.04c-13.87-5.38-41.77-13.55-83.15-13.55s-69.29,8.18-83.15,13.55h23.04Z"/>
    <path class="cls-22" d="m175.5,83.38c50.75,0,102.25,21,102.25,21,6.13,2.19,8.75-4.09,2.57-6.3,0,0-53.33-21.5-104.82-21.5s-104.82,21.5-104.82,21.5c-6.18,2.2-3.56,8.49,2.57,6.3,0,0,51.5-21,102.25-21Z"/>
    <path class="cls-22" d="m83.46,112.63c1.02,2.48,1.26,5.04.84,7.25h2.49c11.65-5.11,41.43-15.68,88.71-15.68s77.07,10.57,88.71,15.68h2.44c-.12-.62-.21-1.25-.21-1.92,0-1.71.37-3.55,1.09-5.33,1.58-3.87,4.45-6.48,7.33-7.09-10.03-3.82-55.27-20.04-99.37-20.04s-89.15,16.15-99.37,20.04c2.89.61,5.75,3.22,7.33,7.09Zm172.29-11.5c4,0,7.25,3.25,7.25,7.25s-3.25,7.25-7.25,7.25-7.25-3.25-7.25-7.25,3.25-7.25,7.25-7.25Zm-39.5-3.36c.35-1.56,1.3-2.89,2.65-3.75,1.35-.85,2.96-1.13,4.53-.77l17.79,4.05c1.57.36,2.9,1.3,3.75,2.66.85,1.36,1.12,2.96.77,4.52-.36,1.56-1.3,2.89-2.66,3.75-1.36.85-2.96,1.13-4.53.77l-17.79-4.06c-1.56-.36-2.9-1.3-3.75-2.66-.61-.97-.92-2.06-.92-3.18,0-.45.05-.9.16-1.34Zm-12.5-8.64c4,0,7.25,3.25,7.25,7.25s-3.25,7.25-7.25,7.25-7.25-3.25-7.25-7.25,3.25-7.25,7.25-7.25Zm-28.25-.75c5.99,0,10.5,2.96,10.5,6.88s-4.51,6.88-10.5,6.88-10.5-2.96-10.5-6.88,4.51-6.88,10.5-6.88Zm-28.25.75c4,0,7.25,3.25,7.25,7.25s-3.25,7.25-7.25,7.25-7.25-3.25-7.25-7.25,3.25-7.25,7.25-7.25Zm-41.22,10.84c.85-1.36,2.18-2.3,3.75-2.66l17.79-4.05c1.56-.36,3.17-.08,4.53.77,1.36.85,2.3,2.18,2.65,3.74.36,1.56.08,3.17-.77,4.53-.85,1.36-2.19,2.3-3.75,2.66l-17.79,4.06c-1.56.36-3.17.08-4.53-.77-1.36-.85-2.3-2.19-2.65-3.75-.36-1.56-.08-3.17.77-4.52Zm-10.77,1.16c4,0,7.25,3.25,7.25,7.25s-3.25,7.25-7.25,7.25-7.25-3.25-7.25-7.25,3.25-7.25,7.25-7.25Z"/>
    <path class="cls-22" d="m73.42,119.88h8.77c.44-1.81.25-4.13-.7-6.44-1.73-4.22-5.25-6.76-7.87-5.69-2.62,1.07-3.34,5.36-1.62,9.58.39.95.88,1.8,1.42,2.56Z"/>
    <path class="cls-24" d="m100.38,108.37c0,2.83-2.29,5.13-5.13,5.13s-5.12-2.3-5.12-5.13,2.29-5.13,5.12-5.13,5.13,2.3,5.13,5.13Z"/>
    <path class="cls-24" d="m152.37,96.37c0,2.83-2.29,5.13-5.13,5.13s-5.12-2.3-5.12-5.13,2.29-5.13,5.12-5.13,5.13,2.3,5.13,5.13Z"/>
    <path class="cls-22" d="m132.68,98.24c.48,2.09-.83,4.16-2.92,4.64l-17.79,4.06c-2.09.48-4.16-.83-4.64-2.92h0c-.48-2.09.83-4.16,2.92-4.64l17.79-4.05c2.09-.48,4.16.83,4.64,2.92h0Z"/>
    <path class="cls-22" d="m277.58,119.88c.54-.76,1.03-1.61,1.42-2.56,1.73-4.22,1-8.5-1.62-9.58-2.62-1.07-6.14,1.48-7.87,5.69-.95,2.31-1.13,4.63-.7,6.44h8.77Z"/>
    <path class="cls-24" d="m250.62,108.37c0,2.83,2.29,5.13,5.13,5.13s5.12-2.3,5.12-5.13-2.29-5.13-5.12-5.13-5.13,2.3-5.13,5.13Z"/>
    <path class="cls-24" d="m198.63,96.37c0,2.83,2.29,5.13,5.13,5.13s5.12-2.3,5.12-5.13-2.29-5.13-5.12-5.13-5.13,2.3-5.13,5.13Z"/>
    <path class="cls-22" d="m218.32,98.24c-.48,2.09.83,4.16,2.92,4.64l17.79,4.06c2.09.48,4.16-.83,4.64-2.92h0c.48-2.09-.83-4.16-2.92-4.64l-17.79-4.05c-2.09-.48-4.16.83-4.64,2.92h0Z"/>
    <path class="cls-22" d="m183.87,95.25c0,2.62-3.75,4.75-8.37,4.75s-8.38-2.13-8.38-4.75,3.75-4.75,8.38-4.75,8.37,2.13,8.37,4.75Z"/>
    <path class="cls-22" d="m294.75,81.88c-3.25,1.75-3.5,5.25-10.5,5.25-10,0-8.5-12.25-8.5-12.25,0-4.25-4.12-5.37-6.75-2.75,0,0-3.25,6.75-12.75,6.75-11.75,0-13.5-14-13.5-14-1.25-2.5-5-2.5-7.75-.25,0,0-5.75,7-13.5,7-10.5,0-14.5-12.25-14.5-12.25-.75-2.25-4.25-3-6.25,0,0,0-7.25,6.25-11,6.25-4.75,0-9-3.75-9-11.75,0-2.5,2.25-6.5,2.25-6.5,0,0,13.25-9.5,13.25-24.75,0-5.25-3.5-11.5-7.75-11.5h-9s.75-9-4-9-4,9-4,9h-9c-4.25,0-7.75,6.25-7.75,11.5,0,15.25,13.25,24.75,13.25,24.75,0,0,2.25,4,2.25,6.5,0,8-4.25,11.75-9,11.75-3.75,0-11-6.25-11-6.25-2-3-5.5-2.25-6.25,0,0,0-4,12.25-14.5,12.25-7.75,0-13.5-7-13.5-7-2.75-2.25-6.5-2.25-7.75.25,0,0-1.75,14-13.5,14-9.5,0-12.75-6.75-12.75-6.75-2.62-2.62-6.75-1.5-6.75,2.75,0,0,1.5,12.25-8.5,12.25-7,0-7.25-3.5-10.5-5.25-3.25-1.75-5.5,1.75-5.5,1.75,0,0,15,11.75,18.75,11.75,10,0,12.5-14.5,12.5-14.5,0,0,5.25,5.5,13,5.5,15,0,18-14.5,18-14.5,0,0,3.5,5.75,17.25,5.75,16.75,0,17.5-11.75,17.5-11.75,0,0,4.5,8.5,13.75,8.5s14-12.25,14-12.25c0,0,4.75,12.25,14,12.25s13.75-8.5,13.75-8.5c0,0,.75,11.75,17.5,11.75,13.75,0,17.25-5.75,17.25-5.75,0,0,3,14.5,18,14.5,7.75,0,13-5.5,13-5.5,0,0,2.5,14.5,12.5,14.5,3.75,0,18.75-11.75,18.75-11.75,0,0-2.25-3.5-5.5-1.75ZM182.75,15.38h5.75c.98,0,3.5,3.45,3.5,7.25,0,9.23-5.91,16.18-9.25,19.37h0c-.5-6.12-.5-19.62,0-26.62Zm-14.5,26.61h0c-3.34-3.19-9.25-10.14-9.25-19.36,0-3.8,2.52-7.25,3.5-7.25h5.75c.5,7,.5,20.5,0,26.61Zm7.44,4.26c-3.46,0-4.19-6.15-4.19-11.31s.73-11.31,4.19-11.31,4.19,6.15,4.19,11.31-.73,11.31-4.19,11.31Z"/>
    <ellipse class="cls-25" cx="175.69" cy="34.94" rx="2.06" ry="9.19"/>
    <path class="cls-22" d="m115.16,54.16c0,3.38-2.74,6.13-6.12,6.13s-6.13-2.74-6.13-6.13,2.74-6.12,6.13-6.12,6.12,2.74,6.12,6.12Z"/>
    <path class="cls-22" d="m150.88,47.62c0,3.38-2.74,6.13-6.12,6.13s-6.13-2.74-6.13-6.13,2.74-6.12,6.13-6.12,6.12,2.74,6.12,6.12Z"/>
    <path class="cls-22" d="m81.13,62.87c0,3.38-2.74,6.13-6.12,6.13s-6.13-2.74-6.13-6.13,2.74-6.12,6.13-6.12,6.12,2.74,6.12,6.12Z"/>
    <path class="cls-22" d="m129.27,45.21c-1.71-5.72-3.57-10.76-8.62-8.19-2.15,1.09-4.18,3.39-5.81,5.67,1.22-4.11,2.38-9.79,1.19-14.11-.58-2.09-1.51-3.48-2.85-4.24-2.79-1.58-7.34-.52-12.16.81-4.82,1.33-9.27,2.76-10.85,5.55-.76,1.34-.84,3-.26,5.1,1.2,4.31,5.11,8.59,8.26,11.49-2.57-1.12-5.49-2.05-7.9-1.89-5.66.39-4.66,5.67-3.2,11.46,1.47,5.79,3.13,11.02,8.79,10.62,4.09-.28,8.03-3.82,9.92-5.76-1.86-.8-3.35-2.28-4.21-4.12l-8.12.57c-.83.06-1.54-.57-1.6-1.39-.06-.83.56-1.54,1.39-1.6l7.6-.53c0-.17-.05-.33-.05-.5,0-1.38.35-2.67.96-3.81,0,0,0,0,.01.01.82-1.56,2.1-2.81,3.68-3.59l-3.72-13.45c-.22-.8.25-1.62,1.04-1.85.8-.22,1.63.25,1.85,1.05l3.72,13.46c.24-.02.47-.07.71-.07,1.44,0,2.77.4,3.95,1.06,1.42.79,2.58,1.97,3.34,3.41l6.79-3.45c.74-.37,1.64-.08,2.02.66s.08,1.64-.66,2.02l-7.28,3.7c.03.29.09.57.09.86,0,1.8-.6,3.46-1.58,4.82,2.61.7,7.83,1.71,11.49-.15,5.06-2.57,3.8-7.9,2.08-13.62Z"/>
    <path class="cls-22" d="m235.84,54.16c0,3.38,2.74,6.13,6.12,6.13s6.13-2.74,6.13-6.13-2.74-6.12-6.13-6.12-6.12,2.74-6.12,6.12Z"/>
    <path class="cls-22" d="m200.12,47.62c0,3.38,2.74,6.13,6.12,6.13s6.13-2.74,6.13-6.13-2.74-6.12-6.13-6.12-6.12,2.74-6.12,6.12Z"/>
    <path class="cls-22" d="m269.87,62.87c0,3.38,2.74,6.13,6.12,6.13s6.13-2.74,6.13-6.13-2.74-6.12-6.13-6.12-6.12,2.74-6.12,6.12Z"/>
    <path class="cls-22" d="m221.73,45.21c1.71-5.72,3.57-10.76,8.62-8.19,2.15,1.09,4.18,3.39,5.81,5.67-1.22-4.11-2.38-9.79-1.19-14.11.58-2.09,1.51-3.48,2.85-4.24,2.79-1.58,7.34-.52,12.16.81,4.82,1.33,9.27,2.76,10.85,5.55.76,1.34.84,3,.26,5.1-1.2,4.31-5.11,8.59-8.26,11.49,2.57-1.12,5.49-2.05,7.9-1.89,5.66.39,4.66,5.67,3.2,11.46-1.47,5.79-3.13,11.02-8.79,10.62-4.09-.28-8.03-3.82-9.92-5.76,1.86-.8,3.35-2.28,4.21-4.12l8.12.57c.83.06,1.54-.57,1.6-1.39.06-.83-.56-1.54-1.39-1.6l-7.6-.53c0-.17.05-.33.05-.5,0-1.38-.35-2.67-.96-3.81,0,0,0,0-.01.01-.82-1.56-2.1-2.81-3.68-3.59l3.72-13.45c.22-.8-.25-1.62-1.04-1.85-.8-.22-1.63.25-1.85,1.05l-3.72,13.46c-.24-.02-.47-.07-.71-.07-1.44,0-2.77.4-3.95,1.06-1.42.79-2.58,1.97-3.34,3.41l-6.79-3.45c-.74-.37-1.64-.08-2.02.66s-.08,1.64.66,2.02l7.28,3.7c-.03.29-.09.57-.09.86,0,1.8.6,3.46,1.59,4.82-2.61.7-7.83,1.71-11.49-.15-5.06-2.57-3.8-7.9-2.08-13.62Z"/>
    <path class="cls-22" d="m52.13,75.62c0,3.38-2.74,6.13-6.12,6.13s-6.13-2.74-6.13-6.13,2.74-6.12,6.13-6.12,6.12,2.74,6.12,6.12Z"/>
    <path class="cls-22" d="m40.29,69.69c1.49-1.43,3.49-2.32,5.71-2.32.9,0,1.75.18,2.56.45v-2.88s-.37-13.12-11.81-13.12c-4.12,0-10.31,2.81-10.31,2.81,0,0,8.25,5.81,13.31,13.31l.54,1.75Z"/>
    <path class="cls-22" d="m56.62,61.38c-2.09,0-4.65.72-6.17,1.22.13.84.21,1.63.23,2.34v2.88l-.05.41c1.6-.07,4.31-.11,7.12.28.82.11,1.4.87,1.28,1.69-.11.82-.87,1.4-1.69,1.28-1.56-.21-3.09-.28-4.41-.29.82,1.28,1.31,2.79,1.31,4.43,0,.17-.04.33-.05.5,1.69.6,3.66,1.19,4.86,1.19,4.69,0,5.06-3.94,5.06-8.06s-4.31-7.87-7.5-7.87Z"/>
    <path class="cls-22" d="m298.87,75.62c0,3.38,2.74,6.13,6.12,6.13s6.13-2.74,6.13-6.13-2.74-6.12-6.13-6.12-6.12,2.74-6.12,6.12Z"/>
    <path class="cls-22" d="m310.7,69.69c-1.49-1.43-3.49-2.32-5.71-2.32-.9,0-1.75.18-2.56.45v-2.88s.37-13.12,11.81-13.12c4.12,0,10.31,2.81,10.31,2.81,0,0-8.25,5.81-13.31,13.31l-.54,1.75Z"/>
    <path class="cls-22" d="m294.37,61.38c2.09,0,4.65.72,6.17,1.22-.13.84-.21,1.63-.23,2.34v2.88l.05.41c-1.6-.07-4.31-.11-7.12.28-.82.11-1.4.87-1.28,1.69.11.82.87,1.4,1.69,1.28,1.56-.21,3.09-.28,4.42-.29-.82,1.28-1.31,2.79-1.31,4.43,0,.17.04.33.05.5-1.69.6-3.66,1.19-4.86,1.19-4.69,0-5.06-3.94-5.06-8.06s4.31-7.87,7.5-7.87Z"/>
  </g>
</svg>