<svg xmlns="http://www.w3.org/2000/svg" viewBox="0 0 436.2 527.7" xmlns:v="https://vecta.io/nano"><path d="M424 40C360.3 14.3 291.1 0 218.1 0S75.9 14.3 12.2 40C4.3 73.2 0 107.7 0 143.3c0 163 87.4 305.7 218.1 384.4C348.9 449 436.2 306.3 436.2 143.3c0-35.6-4.3-70.1-12.2-103.3" fill="#fff"/><path d="M218.1,8.1c-70.6,0-138,13.9-199.6,38.8C10.8,79,6.7,112.5,6.7,147c0,158,84.7,296.3,211.4,372.6V8.1z" fill="#ac1b2c"/><path d="M218.1,8.1c70.6,0,138,13.9,199.6,38.8c7.6,32.2,11.8,65.7,11.8,100.1c0,158-84.7,296.3-211.4,372.6V8.1z" fill="#0c2340"/><path d="M378.3 133.2c-50.7-15.9-104.3-24.5-160.2-24.5s-109.6 8.6-160.2 24.5c-1.1 12-1.6 24.1-1.6 36.4 0 131.1 63.6 247.5 161.9 320.3C316.4 417 380 300.7 380 169.6c0-12.3-.6-24.4-1.7-36.4" fill="#fff"/><path d="M105.7 179.8c.8-3.5.4-5.9.1-8s-.3-4 1.3-6.3 2.9-3.3 4.5-4.2 3.6-1.6 6.5-3.5l6.2-4.2c2-1.2 4.2-2.2 7.3-2.8 3.8-.8 6.7-1 9.2-.9s4.5.4 6.8.7c2.2.3 4.6.6 7.7.5 5.7-.2 8.2 1.7 9.3 3.6s.7 3.8.7 3.8l-6.7 2.1-8 2.8-9 3.7c-3.2 1.4-6.4 2.9-9.7 4.6-5.6 2.9-9.7 5.4-12.8 7.7-3.1 2.2-5.1 4-6.5 5.5-1.4 1.4-2.1 2.5-2.5 3-.3-.1-5.4-3.6-4.4-8.1m76.7 14.1c-1.3 1.3-4.3.6-5 1.6-.8 1.3 1.4 2.4 1.4 3.1 0 2.4-2.3 2.6-2.2 2.6 1 .4 3.5 2.5 1.8 3.8-2.6 2.1-.1 3.3.3 6.1.3 2.2-.4 3.7-2.6 4.6-2.2 1-6 1.4-12.1 1.6-2.3.1.1 1.4-2 7.7-1.9 5.5 4 8.4.8 9.3s-6 1.1-8.9.5-5.7-1.9-8.9-3.8-6.7-4.4-10.9-7.4c-2-1.4-5.1-2.8-7.9-4s-5.2-2.3-5.9-3.3.8-2.8 1.4-5.4c.7-2.6.3-8.2-3.2-10.4-.8-.5-3.4-.7-4.9-1.7s-2.2-2.8-.7-6c0 0 1.1-.6 3.3-1.6a290.65 290.65 0 0 1 9.4-4.1c4.1-1.6 9.1-3.5 14.9-5.3 4.3-1.4 8.7-2.5 12.8-3.5s7.9-1.7 11.1-2.3c3.3-.6 6-1 7.9-1.2 1.9-.3 3-.4 3-.4.5 1.7.8 3.1.5 3.9-1 2.5 1.8 4.9 2.3 5.9.6 1 2.8 3.5 3.2 4 1.7 2.3 2.5 4.6 1.1 5.7m-59.3 145.6c.4-.5.9-1.4 2.1-2.7 1.1-1.3 2.8-2.9 5.3-4.8s5.9-4.2 10.4-6.7c2.7-1.5 5.4-2.9 8-4.1s5-2.3 7.4-3.2c2.3-.9 4.5-1.8 6.6-2.5l5.5-1.9s.3-1.7-.6-3.3c-.9-1.7-2.9-3.3-7.6-3.1-3.8.1-6.2-.5-9-.9-2.7-.4-5.7-.5-10.4.6-2.5.6-4.3 1.4-5.9 2.5s-3.1 2.3-5.1 3.7c-2.4 1.7-4 2.3-5.3 3.1s-2.4 1.6-3.7 3.7-1.2 3.7-1 5.6.6 4-.1 7.1c-.7 3.8 3.4 6.9 3.4 6.9m58.5.4c-.3-.4-2.2-2.6-2.6-3.5-.5-.9-2.8-3-1.9-5.2.3-.7.1-2-.4-3.4 0 0-1.6.2-4.2.6s-6.3 1.1-10.5 2.1-9 2.3-13.7 3.9-8.8 3.3-12.2 4.7c-3.3 1.4-5.9 2.7-7.7 3.6s-2.7 1.4-2.7 1.4c-1.2 2.8-.6 4.4.6 5.3s3.4 1.1 4 1.5c3 2 3.2 6.8 2.7 9.2-.5 2.3-1.7 3.9-1.2 4.8.6.9 2.6 1.9 4.8 2.9 2.3 1.1 4.8 2.3 6.5 3.5 3.4 2.7 6.3 4.9 8.9 6.5 2.6 1.7 5 2.8 7.3 3.3s4.7.4 7.3-.4-2.2-3.4-.7-8.2c1.7-5.5-.3-6.7 1.6-6.7 4.9-.2 8-.6 9.9-1.4 1.8-.9 2.3-2.2 2.1-4.1-.3-2.5-2.4-3.5-.2-5.4 1.4-1.2-.7-3-1.5-3.4 0 0 1.8-.2 1.8-2.3 0-.6-1.9-1.6-1.2-2.7.6-.9 3-.4 4.1-1.4 1.1-1.2.6-3.2-.9-5.2m74.1-160.1c1.1-3.5.9-5.9.8-8s0-4 1.8-6.3 3.2-3.3 4.9-4.2 3.7-1.6 6.8-3.5c2.5-1.5 4.4-3 6.5-4.2a23.49 23.49 0 0 1 7.5-2.8c3.9-.8 6.8-1 9.2-.9 2.5.1 4.5.4 6.7.7s4.6.6 7.6.5c5.8-.2 8.1 1.7 9 3.6s.4 3.8.4 3.8c-2.1.6-4.4 1.3-6.9 2.1s-5.3 1.7-8.3 2.8-6.1 2.3-9.3 3.7c-3.3 1.4-6.7 2.9-10.1 4.6-5.8 2.9-10.2 5.5-13.4 7.7-3.3 2.2-5.5 4-7 5.5-1.5 1.4-2.3 2.5-2.8 3-.1-.1-4.8-3.6-3.4-8.1m75.5 14.1c-1.4 1.3-4.3.6-5.1 1.6-1 1.3 1.2 2.4 1.2 3.1-.2 2.4-2.5 2.6-2.4 2.6 1 .4 3.3 2.5 1.5 3.8-2.8 2.2-.4 3.3-.3 6.1.1 2.2-.7 3.7-3 4.6-2.3 1-6.1 1.4-12.2 1.6-2.3.1 0 1.4-2.6 7.7-2.3 5.5 3.2 8.4 0 9.3-3.3.9-6.1 1.1-8.9.5s-5.6-1.9-8.6-3.8-6.4-4.4-10.3-7.4c-1.9-1.4-4.9-2.8-7.6-4s-5-2.3-5.6-3.3 1-2.8 1.9-5.4.9-8.2-2.4-10.4c-.7-.5-3.4-.7-4.8-1.7s-2-2.8-.2-6c0 0 1.2-.6 3.4-1.6s5.5-2.4 9.8-4.1c4.2-1.6 9.4-3.5 15.3-5.3 4.5-1.4 8.9-2.5 13.1-3.5 4.1-1 8-1.7 11.3-2.3s6-1 8-1.3c1.9-.3 3-.4 3-.4.4 1.7.5 3.1.1 3.9-1.2 2.5 1.4 4.9 1.8 5.9.5 1 2.5 3.5 2.8 4 1.6 2.4 2.2 4.7.8 5.8m-72.8 145.6c.4-.5 1-1.4 2.3-2.7 1.2-1.3 3.1-2.9 5.7-4.8a94.02 94.02 0 0 1 11-6.7c2.8-1.5 5.6-2.9 8.3-4.1s5.2-2.3 7.7-3.2l6.8-2.5 5.7-1.9s.4-1.7-.3-3.3c-.7-1.7-2.6-3.3-7.4-3.1-3.8.1-6.2-.5-8.9-.9s-5.6-.5-10.4.6c-2.6.6-4.4 1.4-6.1 2.5s-3.3 2.3-5.4 3.7c-2.5 1.7-4.2 2.3-5.6 3.1s-2.5 1.6-4 3.7-1.5 3.7-1.5 5.6c.1 1.9.3 4-.7 7.1-1.1 3.8 2.8 6.9 2.8 6.9m58.4.4c-.2-.4-1.9-2.6-2.3-3.5s-2.5-3-1.5-5.2c.3-.7.2-2-.1-3.4l-2.5.3c-1.6.2-3.8.6-6.5 1.1s-5.9 1.2-9.3 2-7.1 1.9-10.7 3.1c-4.9 1.6-9.1 3.3-12.6 4.7a103.81 103.81 0 0 0-8 3.6l-2.8 1.4c-1.5 2.8-1 4.4.1 5.3s3.3 1.1 3.9 1.5c2.7 1.9 2.7 6.8 1.9 9.2-.7 2.3-2 3.9-1.6 4.8.5.9 2.4 1.9 4.6 2.9 2.2 1.1 4.6 2.3 6.2 3.5 3.2 2.7 5.9 4.9 8.4 6.5 2.5 1.7 4.7 2.8 7 3.3s4.6.4 7.3-.4-1.9-3.4 0-8.2c2.2-5.5.3-6.7 2.2-6.7 4.9-.2 8.1-.6 10-1.4 1.9-.9 2.5-2.2 2.5-4.1-.1-2.5-2.1-3.5.2-5.4 1.5-1.2-.4-3-1.2-3.4-.1 0 1.8-.2 2-2.3 0-.6-1.7-1.6-.9-2.7.7-.9 3.1-.4 4.2-1.4 1.2-1.1.9-3.1-.5-5.1" fill="#0c2340"/><path d="M234.6 254.9l.7-121.6v-5.1c-5.8-.2-11.3-.3-17.1-.3-5.9 0-11.3.1-17.1.3v5.1l.7 121.6c-44.4-.5-86.1-2.7-122.7-5.4 1.7 9.3 3.9 18.4 6.3 27.4 35.2 4.5 74.8 7.8 116.8 8.5l4.7 176.3c3.7 3 7.5 6 11.4 8.8 3.9-2.9 7.6-5.8 11.4-8.8 2.1-47.3 3.7-107.7 4.7-176.3 42-.7 81.6-4 116.8-8.5 2.5-9 4.6-18.2 6.3-27.4-36.8 2.7-78.5 5-122.9 5.4" fill="#ac1b2c"/><path d="M259.2 78.9l-.3-5.8-.3-5.6-.3-5.6-.3-5.9-.3-6.3-.4-7-5.1-.3-5.1-.3.3 7 .3 6.3.3 5.8.3 5.6.2 5.6.3 5.8.3 6.3.3 7 5.4.3 5.4.4-.4-7-.6-6.3m-17.3 4.6l-6.5-.2-5.6-.1c-1.8 0-3.6-.1-5.6-.1h-6.5v-6.7-6-5.5-5.4V54v-6-6.7h-5l-5.1.1-.1 7-.1 6.3-.1 5.8-.1 5.6-.1 5.6-.1 5.8-.1 6.3-.1 7 6.6-.1h5.8 5.4l5.4.1 5.8.2 6.5.2-.1-3.8c-.2-1.2-.3-2.4-.3-3.9m-56.7-17.2l-6.9.5-.2 3.4-.2 3.4 4.7-.3 4.7-.3-.2 4.6-.2 4.6c-.8.7-2 1.4-3.6 2-1.5.6-3.6.9-6.1 1.1-1.8.1-3.3 0-4.7-.5s-2.5-1.2-3.5-2.3-1.7-2.4-2.1-3.9a13.94 13.94 0 0 1-.4-5.1l.3-5.2.3-5.2c.1-1.9.5-3.6 1.1-5.1s1.4-3 2.4-4.2c1.1-1.3 2.2-2.2 3.6-2.9 1.3-.7 2.8-1.1 4.4-1.2 1.5-.1 2.8 0 3.9.3s2.1.8 2.8 1.5c1.5 1.4 2.3 3.5 2.3 6.1l4.9-.2 4.9-.2c0-.1 0-.1.1-.2.1-2.4-.3-4.5-1.1-6.4s-2-3.5-3.6-4.9c-1.1-.9-2.3-1.7-3.7-2.3s-3-1-4.7-1.2-3.6-.3-5.7-.1c-2 .1-3.9.5-5.7 1.1s-3.5 1.3-5.1 2.3-3.1 2.2-4.4 3.5c-1.4 1.4-2.5 2.9-3.5 4.5s-1.7 3.3-2.3 5.1-.9 3.7-1.1 5.7l-.4 5.2-.4 5.2c-.2 2-.1 3.9.3 5.6.3 1.7.9 3.3 1.7 4.7s1.9 2.7 3.1 3.8c1.3 1.1 2.7 2 4.3 2.7s3.4 1.1 5.2 1.4c1.9.3 4 .3 6.2.1a49.54 49.54 0 0 0 7.2-1.1 25.66 25.66 0 0 0 5.9-2.1c1.7-.9 3.3-1.7 4.5-2.7 1.3-.9 2.3-1.9 3.2-2.9l.2-6.5.2-5.7.2-6.5-6.9.3c-1.9.3-3.9.4-5.9.5m157.1 10.1c-1.3 1.3-3.3 1.6-6.1 1l-5-1-5-1-.6-5.9-.5-5.1-.6-5.8 5 .9 4.9 1c1.4.3 2.6.7 3.7 1.4 1.1.6 2 1.4 2.8 2.4a14.36 14.36 0 0 1 1.9 3.1c.5 1.1.8 2.3.9 3.5.4 2.4-.1 4.2-1.4 5.5m9.3 20.8l-3-5.2-3.5-6.1c2-.3 3.7-.9 5.1-1.9 1.4-1.1 2.4-2.6 3-4.4.5-1.8.7-4 .4-6.5-.2-1.7-.6-3.3-1.1-4.8a19.68 19.68 0 0 0-2.1-4.4 28.66 28.66 0 0 0-3.1-4c-1.2-1.3-2.5-2.4-3.9-3.3-1.4-1-3-1.8-4.6-2.5-1.7-.7-3.4-1.2-5.3-1.6l-6.9-1.3-6.1-1.1-7-1.2.7 7.2.6 6.5.6 6 .5 5.8.5 5.8.6 6 .6 6.5.7 7.2 5.2 1 5.2 1-.7-6.5-.6-5.6-.7-6.5 4.4.9 4.4.9 3.2 5.6 2.8 4.9 2.8 4.9 3.3 5.7 5.1 1.3 5.1 1.3-3.5-6.2c-.8-1.9-1.8-3.7-2.7-5.4m-63-20.6l-6.6-.8 1.8-6.6 1.5-5.7 1.7-6.6h.2l2.1 5.5 1.9 4.7 1.9 4.8 2.2 5.5-6.7-.8m19.5 9.3l-2.4-5.7-2.3-5.4-2.2-5.3-2.2-5.4-2.3-5.6-2.5-6-2.8-6.6-5.3-.6-5.3-.6-2 6.8-1.8 6.1-1.7 5.7-1.6 5.4-1.7 5.5-1.8 5.7-1.9 6.1-2.2 6.8 5.4.5 5.4.6 1.4-5.2 1.4-5.2 6.5.8 5.6.7 6.4.9 2.3 5.7 2.3 5.7 5.3.9 5.3.9-2.9-6.8c-.7-2.4-1.5-4.4-2.4-6.4m67.1 20.4l-1-6.8-.9-6.3-.9-6-.9-6-.9-6.3-1-6.8-1.1-7.5-4.7-1.3-4.7-1.2 1 7.4.9 6.7.8 6.2.8 6 .8 6 .8 6.2.9 6.7 1 7.5 5 1.4 5 1.5-.9-7.4M98 87.1l-4.9 1.1a21.59 21.59 0 0 1-1.1 4.7c-.5 1.4-1.2 2.6-2.1 3.7s-1.9 2-3.1 2.7-2.6 1.3-4.2 1.7-3 .5-4.2.2a4.97 4.97 0 0 1-2.9-2c-.7-1-1.3-2.3-1.5-3.8s-.2-3.3 0-5.3l.7-5.3.7-5.3c.3-2 .7-3.9 1.4-5.6.6-1.7 1.5-3.4 2.5-4.9s2.1-2.7 3.3-3.6 2.6-1.6 4-1.9c1.6-.4 3-.5 4.1-.3 1.2.2 2.1.6 2.7 1.4.7.7 1.1 1.7 1.4 2.9a15.67 15.67 0 0 1 .1 4.4l4.9-1.1 4.9-1c0-.1.1-.1.1-.2.4-2.8.2-5.3-.4-7.3-.6-2.1-1.7-3.7-3.2-5-1-.9-2.2-1.5-3.6-1.9-1.3-.4-2.9-.6-4.5-.6-1.7 0-3.5.3-5.5.7-1.9.4-3.6 1.1-5.3 1.9-1.7.9-3.3 1.9-4.8 3.2s-2.9 2.7-4.3 4.4c-1.3 1.7-2.5 3.5-3.5 5.3s-1.8 3.8-2.5 5.8-1.2 4.1-1.5 6.2l-.8 5.3-.8 5.3-.1 5.8c.1 1.8.5 3.4 1.1 4.8s1.4 2.6 2.5 3.6 2.3 1.7 3.7 2.2 3 .7 4.7.7 3.6-.3 5.7-.9c2-.5 3.9-1.2 5.7-2s3.5-1.7 5-2.8a36.22 36.22 0 0 0 4.2-3.6c1.3-1.4 2.4-2.8 3.3-4.3s1.6-3.1 2.2-4.8c.5-1.7.9-3.4 1-5.3v-.2l-5.1 1m31-7.5l-6.5 1.1 2.2-5.7 1.9-4.9 1.9-4.9 2.2-5.6h.2l1.6 6.6 1.4 5.7 1.6 6.6-6.5 1.1m18.1 2.5l-1.6-5.6-1.6-5.4-1.5-5.4-1.6-5.7-1.7-6.1-1.9-6.8-5.2.7-5.2.8-2.8 6.8-2.6 6.2-2.4 5.8-2.3 5.5-2.3 5.4-2.3 5.5-2.4 5.8-2.6 6.3-2.9 7 5.2-1.1 5.3-1.1 2.3-5.8 2.3-5.8 6.3-1.1 5.6-.9 6.4-1 1.3 5.2 1.3 5.2 5.4-.8 5.4-.7-2-6.8c-.8-2.1-1.4-4.2-1.9-6.1" fill="#fff"/></svg>