<?xml version="1.0" encoding="UTF-8"?>
<svg id="Layer_2" data-name="Layer 2" xmlns="http://www.w3.org/2000/svg" viewBox="0 0 195 256.23">
  <defs>
    <style>
      .cls-1 {
        stroke-linecap: round;
        stroke-linejoin: round;
      }

      .cls-1, .cls-2, .cls-3, .cls-4 {
        stroke: #231f20;
      }

      .cls-1, .cls-3, .cls-4, .cls-5 {
        fill: none;
      }

      .cls-2, .cls-4 {
        stroke-width: 3px;
      }

      .cls-2, .cls-6 {
        fill: #fff;
      }

      .cls-3 {
        stroke-width: 2.43px;
      }

      .cls-5 {
        stroke: #fff;
        stroke-width: 1.5px;
      }

      .cls-7 {
        fill: #231f20;
      }

      .cls-7, .cls-6, .cls-8 {
        stroke-width: 0px;
      }

      .cls-8 {
        fill: #fdbc5f;
      }
    </style>
  </defs>
  <g id="Layer_1-2" data-name="Layer 1">
    <g>
      <path class="cls-1" d="m15.09,231.79c-2.98.92-7.56,7.28-7.56,13.35s3.09,10.59,11.11,10.59,15.58-11.68,15.58-11.68"/>
      <path class="cls-1" d="m8.01,248.94s7.36-5.52,18.3-5.52,23.77.72,37.27,3.64c13.5,2.92,19.92,5.5,33.08,5.5s21.67-3.67,33.83-5.67c12.17-2,39.71-7.22,54.94,1.47"/>
      <g>
        <path class="cls-7" d="m26.37,232.08c-.39-1.39-1.57-2.01-2.95-1.91-2.37.18-3.23,2.21-3.07,4.29.17,2.28,1.32,4.1,3.71,3.91,1.75-.13,2.66-1.44,2.66-3.1l1.33-.1c-.06,2.5-1.5,4.13-4.01,4.32-3.1.24-4.78-1.94-5-4.84-.22-2.89,1.25-5.38,4.32-5.61,2.08-.16,3.88.83,4.35,2.93l-1.33.1Z"/>
        <path class="cls-7" d="m32.2,229.17h1.47s3.95,9.97,3.95,9.97h-1.47s-1.1-3-1.1-3l-4.23.02-1.11,3.01h-1.37s3.86-10,3.86-10Zm-.97,5.87h3.39s-1.69-4.67-1.69-4.67h-.03l-1.67,4.67Z"/>
        <path class="cls-7" d="m38.61,229.12l1.82.06,2.86,8.5,3.45-8.29,1.82.06-.34,9.99-1.26-.04.28-8.31h-.03s-3.4,8.21-3.4,8.21l-1.13-.04-2.84-8.42h-.03s-.28,8.31-.28,8.31l-1.26-.04.34-9.99Z"/>
        <path class="cls-7" d="m51.04,229.65l3.6.4c.88.1,2.03.23,2.59.65.61.46,1.05,1.23.94,2.2-.12,1.06-.76,1.79-1.72,2.06v.03c1.19.39,1.76,1.38,1.62,2.6-.16,1.46-1.36,2.74-3.34,2.52l-4.8-.53,1.1-9.94Zm.34,8.97l3.31.37c1.14.13,1.94-.49,2.06-1.58.14-1.29-.86-1.77-1.97-1.89l-3.02-.33-.38,3.44Zm.5-4.55l2.64.29c1.5.17,2.18-.31,2.29-1.35.15-1.38-.8-1.68-1.94-1.81l-2.64-.29-.35,3.16Z"/>
        <path class="cls-7" d="m60.97,230.85l4.61.94c1.84.37,2.77,1.61,2.45,3.17-.24,1.18-.96,2.05-2.21,2.14v.03c1.09.45,1.15,1.33,1.05,2.31-.11.98-.39,2.04.03,2.82l-1.45-.3c-.29-.47.13-1.49.13-2.49.06-.99-.01-1.84-1.27-2.1l-3.18-.65-.85,4.18-1.3-.27,1.99-9.79Zm3.1,5.33c1.22.25,2.33.15,2.62-1.28.2-.96-.18-1.78-1.4-2.03l-3.24-.66-.7,3.42,2.72.55Z"/>
        <path class="cls-7" d="m70.35,232.87l1.29.31-2.3,9.73-1.29-.31,2.3-9.73Z"/>
        <path class="cls-7" d="m73.58,233.65l3.33.8c2.99.72,4.31,2.62,3.55,5.75-.78,3.25-2.66,4.75-5.9,3.96l-3.33-.8,2.34-9.72Zm-.79,8.94l2.15.52c.88.21,3.33.54,4.19-3.04.56-2.31.04-3.92-2.34-4.5l-2.18-.52-1.82,7.54Z"/>
        <path class="cls-7" d="m88.62,245.6c-.92.93-2.23,1.17-3.39,1-2.95-.44-4.35-3.11-3.97-5.68.43-2.88,2.37-5.14,5.5-4.68,2.16.32,3.74,1.54,3.77,3.91l-1.32-.19c-.04-1.54-1.15-2.39-2.62-2.61-2.4-.35-3.7,1.58-4.01,3.7-.3,2.06.61,4.12,2.81,4.45,2.04.3,3.47-.95,3.65-2.76l-3.16-.47.16-1.11,4.34.64-.77,5.21-.83-.12-.16-1.28Z"/>
        <path class="cls-7" d="m92.26,237.12l6.9.11-.02,1.12-5.57-.08-.05,3.18,5.19.08-.02,1.12-5.19-.08-.05,3.46,5.61.08-.02,1.12-6.94-.11.15-9.99Z"/>
        <path class="cls-7" d="m112.35,241.93c.41,2.49-.8,4.03-3.26,4.43-2.54.41-4.24-.51-4.67-3.14l-1.03-6.3,1.31-.21,1.03,6.3c.28,1.74,1.43,2.53,3.17,2.25,1.66-.27,2.41-1.37,2.13-3.11l-1.03-6.3,1.31-.21,1.03,6.3Z"/>
        <path class="cls-7" d="m112.8,235.24l1.38-.31,6.94,6.74h.03s-1.8-7.91-1.8-7.91l1.23-.28,2.22,9.75-1.42.32-6.88-6.66h-.03s1.78,7.83,1.78,7.83l-1.23.28-2.22-9.75Z"/>
        <path class="cls-7" d="m122.61,233.04l1.3-.27,2.03,9.78-1.3.27-2.03-9.78Z"/>
        <path class="cls-7" d="m128.58,233.04l-3.29.54-.18-1.1,7.89-1.29.18,1.1-3.29.54,1.43,8.75-1.31.21-1.43-8.75Z"/>
        <path class="cls-7" d="m133.97,231.02l6.84-.95.15,1.11-5.52.77.44,3.15,5.15-.71.15,1.11-5.15.71.47,3.43,5.56-.77.15,1.11-6.88.95-1.37-9.9Z"/>
        <path class="cls-7" d="m142.53,229.86l3.42-.31c3.07-.28,4.92,1.09,5.22,4.3.31,3.33-.99,5.35-4.3,5.66l-3.42.31-.91-9.96Zm2.14,8.72l2.2-.2c.91-.08,3.32-.56,2.99-4.23-.22-2.37-1.23-3.73-3.67-3.5l-2.23.21.71,7.73Z"/>
        <path class="cls-7" d="m156.36,228.87h6.57s0,1.11,0,1.11h-5.24s0,3.18,0,3.18h4.59s0,1.12,0,1.12h-4.59s0,4.58,0,4.58h-1.33s-.01-10-.01-10Z"/>
        <path class="cls-7" d="m161.98,237.35l1.55.05-.05,1.55-1.55-.05.05-1.55Z"/>
        <path class="cls-7" d="m173.07,232.81c-.12-1.44-1.16-2.28-2.54-2.44-2.37-.27-3.59,1.56-3.83,3.63-.26,2.27.52,4.28,2.9,4.55,1.74.2,2.88-.91,3.2-2.54l1.32.15c-.54,2.45-2.25,3.77-4.76,3.48-3.09-.36-4.33-2.81-4-5.7.33-2.88,2.24-5.04,5.31-4.69,2.07.24,3.66,1.55,3.72,3.7l-1.32-.15Z"/>
        <path class="cls-7" d="m175.16,238.77l1.52.35-.35,1.52-1.52-.34.35-1.52Z"/>
      </g>
      <path class="cls-1" d="m9.49,237.78c-4.61-2.3-3.24-14.3,11.01-14.68s28.38-.25,47.88,2"/>
      <path class="cls-1" d="m185.05,237.78c4.61-2.3,3.24-14.3-11.01-14.68s-28.37-.25-47.87,2"/>
      <path class="cls-1" d="m179.06,231.66c3.8,3.49,7.83,6.66,7.83,13.21s-3.81,10.25-12.16,10.25-15.01-11.59-15.01-11.59"/>
      <polyline class="cls-2" points="162.13 62.48 143.19 24.33 51.04 24.33 32.09 62.48"/>
      <ellipse class="cls-2" cx="97.5" cy="133.52" rx="96" ry="95.81"/>
      <line class="cls-4" x1="135.33" y1="86.23" x2="117.81" y2="112.83"/>
      <ellipse class="cls-3" cx="97.5" cy="133.52" rx="77.78" ry="77.63"/>
      <path class="cls-7" d="m42.5,150.48l-22.78-27.25-18.19,12.43c.42,18.92,6.33,36.49,16.2,51.18l17.98-6.16,6.79-30.2Z"/>
      <path class="cls-7" d="m61.5,85.73l25.5-29.84-14.37-14.93c-21.66,5.78-40.29,18.93-53.05,36.59l9.39,19.22,32.53-11.05Z"/>
      <path class="cls-7" d="m134.92,86.81l31.11,9.97,8.61-20.29c-12.86-17.3-31.43-30.13-52.93-35.7l-14.8,15.67,28.01,30.35Z"/>
      <path class="cls-7" d="m96,193.48l-30.75,11.43v18.88c10.08,3.59,20.94,5.55,32.25,5.55,6.94,0,13.71-.74,20.23-2.14l2.3-19.35-24.03-14.36Z"/>
      <path class="cls-7" d="m174.6,123.23l-18.85,23.25,1.95,36.21,19.4,4.42c10.07-14.86,16.06-32.7,16.39-51.91l-18.87-11.96Z"/>
      <path class="cls-6" d="m27.25,78.98s9.5-19.29,41.5-28.64c0,0-15.87,6.7-41.5,28.64Z"/>
      <path class="cls-6" d="m125.83,50.81s25.75,4.28,41.15,27.94c0,0-16.25-17.01-41.15-27.94Z"/>
      <polyline class="cls-5" points="184.81 139.84 175.28 132.38 160.42 150.79 163.45 174.69"/>
      <polyline class="cls-5" points="72.33 217.39 72.33 207 97.05 198.89 112.53 209.7"/>
      <polyline class="cls-5" points="30.98 173.78 33.5 151.06 19.74 131.72 9 139.73"/>
      <polygon class="cls-7" points="75.38 169.62 53.27 133.52 75.38 97.41 119.62 97.41 141.73 133.52 119.62 169.62 75.38 169.62"/>
      <g>
        <path class="cls-7" d="m111.02,191.27c-12.34,0-12.34-19.86-12.34-26.38v-85.93h24.99v85.93c0,4.23,2.7,7.03,3.79,7.03,3.41,0,3.78-4.91,3.78-7.03v-85.93h24.99v85.93c0,22.95-7.67,26.38-12.24,26.38h-32.97Z"/>
        <path class="cls-8" d="m152.73,164.89v-82.43h-17.99v82.43c0,7.95-3.88,10.53-7.28,10.53s-7.29-4.67-7.29-10.53v-82.43h-17.99v82.43c0,7.32.48,22.88,8.84,22.88h32.97c5.54,0,8.74-8.56,8.74-22.88Z"/>
        <path class="cls-7" d="m52.25,191.27c-5.18,0-13.88-2.75-13.88-21.17v-70.75c0-15.05,7.47-20.39,13.88-20.39h29.12c8.9,0,14.4,9.16,14.4,17.64v30.57h-24.99v-20.13c0-4.72-2.86-8.32-4.29-8.32-1.72,0-4.12,3.21-4.12,8.44v55.81c0,6.92,3.23,9.25,4.7,9.25.77,0,3.3-2.81,3.3-9v-19h24.88v27.5c0,13.43-7.58,19.54-14.62,19.54h-28.38Z"/>
        <path class="cls-8" d="m74.29,107.05v16.63h17.99v-27.07c0-6.88-4.4-14.14-10.9-14.14h-29.12c-5.12,0-10.38,4.64-10.38,16.89v70.75c0,7.12,1.25,17.67,10.38,17.67h28.38c4.62,0,11.12-4.04,11.12-16.04v-24h-17.88v15.5c0,7.38-3.22,12.5-6.8,12.5s-8.2-3.88-8.2-12.75v-55.81c0-6.87,3.5-11.94,7.62-11.94s7.79,5.94,7.79,11.82Z"/>
      </g>
      <line class="cls-4" x1="96" y1="196.18" x2="96" y2="160.82"/>
      <rect class="cls-2" x="123.25" y="1.5" width="19.94" height="22.83"/>
      <rect class="cls-2" x="51.04" y="1.5" width="18.8" height="22.83"/>
      <rect class="cls-2" x="83.95" y="1.5" width="26.06" height="22.83"/>
    </g>
  </g>
</svg>