<?xml version="1.0" encoding="UTF-8"?>
<svg id="Layer_2" data-name="Layer 2" xmlns="http://www.w3.org/2000/svg" xmlns:xlink="http://www.w3.org/1999/xlink" viewBox="0 0 424.8 426.72">
  <defs>
    <style>
      .cls-1 {
        clip-path: url(#clippath);
      }

      .cls-2 {
        fill: none;
      }

      .cls-2, .cls-3, .cls-4, .cls-5, .cls-6, .cls-7, .cls-8 {
        stroke-width: 0px;
      }

      .cls-3 {
        fill: #1b1918;
      }

      .cls-3, .cls-4, .cls-5, .cls-6, .cls-7, .cls-8 {
        fill-rule: evenodd;
      }

      .cls-4 {
        fill: #25529d;
      }

      .cls-5 {
        fill: #c0bdbe;
      }

      .cls-6 {
        fill: #e00a1f;
      }

      .cls-7 {
        fill: #fff;
      }

      .cls-8 {
        fill: #fde300;
      }
    </style>
    <clipPath id="clippath">
      <rect class="cls-2" width="424.8" height="426.72"/>
    </clipPath>
  </defs>
  <g id="Layer_1-2" data-name="Layer 1">
    <g>
      <g class="cls-1">
        <path class="cls-3" d="m22.6,25.15C79.45,66.97,139.09,61.94,211.94.56c62.27,52.22,125.04,73.61,188.54,24.58,64.02,135.98-2.78,341.62-187.62,400.61C61.39,379.57-49.65,205.94,22.6,25.15h0Z"/>
      </g>
      <path class="cls-6" d="m212.74,407.28c78.12-26.54,139.02-83.48,171.03-159.76,25.55-60.89,31.29-133.02,8.7-195.76-62.84,36.68-124.57,14.89-180.52-28.57-56.75,44.21-117.42,63.75-180.3,28.7-23.11,71.95-17.95,147.82,17.75,215.87,34.14,65.05,93.4,116.6,163.33,139.52h0Z"/>
      <path class="cls-7" d="m86.48,322.2c5.19-4.78,13.87-10.43,24.11-11.95,16.91-2.52,39.46,8.52,56.13,7.85,20.88-.83,32.03-14.41,51.55-13.9,20.23.54,28.04,12.16,50.2,12.5,19.63.31,29.4-10.44,51.01-10.04,7.36.13,14.67,1.24,23.94,9.22-33.41,41.97-78.15,73.56-130.67,91.4-48.98-16.05-92.72-46.15-126.26-85.08h0Z"/>
      <path class="cls-4" d="m94.85,331.5c7.24-6.33,13.9-8.54,20.9-9.43,11.22-1.44,21.16,5.62,47.22,4.68,19.05-.68,38.24-11.86,55.37-12.56,18.98-.78,32.58,13.03,52.59,13.54,17.3.45,34.98-12.66,52.34-11,5.04.48,9.74,2.06,14.72,5.73-3.98,4.71-8.12,9.27-12.39,13.69-5.82-1.88-14.52-3.16-21.93-2.81-20.27.97-28.88,9.05-45.26,8.18-15.27-.81-19.34-10.04-41.21-9.04-22.47,1.04-35.42,11.62-51.82,11.47-15.11-.14-21.28-5.37-33.23-6.28-7.74-.59-16.85,1.06-26.51,4.74-3.69-3.54-7.29-7.18-10.79-10.91h0Z"/>
      <path class="cls-4" d="m117.74,353.4c3.78-2.27,7.32-3.12,11.49-3.35,17.78-.98,24.87,5.39,39.97,4.6,16.21-.84,33.93-11.3,48.52-11.88,16.16-.65,27.06,8.39,44.09,9.05,15.64.6,31.36-6.94,40.89-6.69,3.39.09,7.98.29,12.14,1.59-4.15,3.85-8.41,7.57-12.79,11.16-1.44-.22-3.03-.31-4.83-.22-15.66.81-18.41,4.6-36.7,4.56-13.02-.03-25.15-8.83-43.77-8.25-18.32.57-37.05,10.14-50.08,10.28-9.79.1-10.98-.21-21.87-2.28-6.14-1.17-10.95-.89-15.84.57-3.81-2.95-7.55-6-11.21-9.14h0Z"/>
      <path class="cls-4" d="m141.86,371.98c11.61,1.05,16.08,4.27,26.65,3.93,14.16-.45,27.98-10.61,49.66-10.97,16.17-.27,24.3,7.99,42.26,8.13,9.88.08,17.93-3.15,28.37-4.99-10.03,7.27-20.59,13.9-31.62,19.85-9.75-2.21-18.88-8.23-39.53-8.13-16.91.08-28.14,9.43-45.4,10.44-10.5-5.45-20.66-11.56-30.39-18.27h0Z"/>
      <path class="cls-4" d="m196.26,401.27c7.39-2.85,15.84-5.94,27.62-6.14,5.43-.09,10.15.78,14.72,1.98-8.39,3.77-17.01,7.17-25.86,10.17-5.56-1.82-11.06-3.83-16.48-6.01h0Z"/>
      <path class="cls-8" d="m200.05,107.01c-3.36-9.84-9.69-10.57-14.25-10.51-6.66.08-13.89,4.95-19.14,16.91-4.7-12.23-.14-24.75,6.48-29.78,5.15-3.91,13.13-8.06,25.76-.86-4.27-18.14.15-27.74,13.49-37.96,10.47,7.22,17.85,19.53,12.46,37.96,11.77-6.63,21.45-3.05,26.38,1.05,4.81,4,9.71,13.46,7.81,30.05-5.46-10.17-14.34-17.68-21.04-18.01-4.59-.23-10.39,2.78-13.26,11.15,5.34.76,7.34,4.23,7.43,6.63.14,3.6-2.36,7.02-8.35,6.86,1.3,4.84,4.23,6.93,14.18,7.43-3.49,9.02-10.36,8.82-18.75,5.6-1.53,3.73-3.96,5.64-7.32,7.09-4.19-2.28-6.67-4.12-8.34-7.55-12.05,6.25-16.46-1.22-16.24-4.8,6.38.28,10.51.1,12.46-7.77-5.83-.68-7.62-3.95-7.32-7.55.27-3.14,3.2-5.49,7.54-5.94h0Z"/>
      <path class="cls-8" d="m76.23,309.61c.91-1.01,1.83-2.02,2.75-3.02l6.86,6.71c-1.19,1.3-2.37,2.6-3.55,3.91-2.06-2.5-4.08-5.04-6.06-7.61h0Zm265.85,7.91c2.06-2.55,4.09-5.14,6.06-7.77-.87-1.07-1.77-2.14-2.67-3.21l-6.87,6.73c1.19,1.41,2.35,2.83,3.48,4.25h0Zm-260.45-13.79c5.86-6.27,11.85-12.3,18.02-18l6.29,7.23c-5.98,5.54-11.78,11.4-17.45,17.48l-6.85-6.71Zm20.89-20.62c6.54-5.89,13.28-11.39,20.26-16.42l5.99,7.5c-6.89,4.93-13.54,10.35-19.97,16.15l-6.28-7.23Zm23.45-18.66c7.67-5.3,15.64-10,23.97-13.98l4.1,8.68c-7.66,3.66-15,7.97-22.07,12.8l-6-7.51Zm27.5-15.61c8.59-3.84,17.55-6.91,26.97-9.06l1.53,9.51c-8.5,1.99-16.62,4.78-24.4,8.24l-4.1-8.69Zm30.77-9.88c8.54-1.71,17.45-2.66,26.78-2.76v9.59c-8.79.11-17.2,1.03-25.25,2.66l-1.53-9.49Zm30.67-2.76c8.36.16,16.79,1.26,25.2,3.18l-1.53,9.49c-7.91-1.84-15.84-2.91-23.67-3.07v-9.6Zm28.99,4.11c8.98,2.31,17.9,5.52,26.62,9.45l-4.09,8.68c-7.89-3.56-15.95-6.48-24.05-8.62l1.53-9.51Zm30.14,11.09c8.25,3.93,16.29,8.5,24.01,13.55l-6.02,7.54c-7.12-4.62-14.52-8.8-22.08-12.41l4.09-8.68Zm27.26,15.71c7.24,4.92,14.18,10.26,20.7,15.88l-6.3,7.25c-6.42-5.53-13.26-10.78-20.41-15.61l6.01-7.52Zm23.62,18.45c6.48,5.78,12.52,11.84,18.01,18.04l-6.87,6.72c-5.29-6-11.14-11.89-17.44-17.51l6.3-7.25Z"/>
      <path class="cls-8" d="m55.15,278.15c2.24-2.46,4.5-4.89,6.77-7.27l6.87,7.86c-2.7,2.84-5.37,5.75-8.02,8.7-1.93-3.06-3.8-6.16-5.61-9.29h0Zm308.27,9.12c1.91-3.12,3.77-6.28,5.56-9.48-2.18-2.52-4.41-4.99-6.67-7.41l-6.87,7.87c2.73,2.94,5.39,5.96,7.98,9.03h0Zm-298.79-19.2c5.77-5.93,11.68-11.59,17.75-16.93l6.55,8.07c-5.97,5.27-11.77,10.86-17.45,16.71l-6.86-7.85Zm20.69-19.48c6.58-5.63,13.36-10.89,20.37-15.7l5.63,8.74c-6.7,4.61-13.17,9.64-19.45,15.03l-6.55-8.06Zm23.6-17.87c7.66-5.05,15.6-9.59,23.88-13.51l3.96,9.63c-7.7,3.68-15.09,7.91-22.21,12.61l-5.62-8.74Zm27.41-15.14c8.31-3.72,16.96-6.84,26-9.27l2.32,10.14c-8.47,2.3-16.58,5.24-24.36,8.75l-3.96-9.62Zm29.77-10.24c8.14-1.99,16.59-3.44,25.4-4.28.84-.08,1.68-.15,2.51-.22l.64,10.38c-.72.06-1.45.12-2.17.2-8.35.8-16.36,2.17-24.07,4.07l-2.32-10.14Zm31.79-4.79c5.14-.32,10.29-.46,15.44-.44,4.15.02,8.27.18,12.35.47l-.64,10.38c-3.88-.28-7.8-.44-11.75-.45-4.92-.02-9.85.11-14.77.42l-.64-10.38Zm31.67.35c9.45.89,18.68,2.5,27.68,4.77l-2.01,10.22c-8.56-2.19-17.33-3.75-26.31-4.61l.64-10.38Zm31.45,5.76c8.94,2.46,17.64,5.57,26.09,9.27l-3.95,9.62c-7.83-3.43-15.88-6.34-24.15-8.65l2.02-10.23Zm29.63,10.86c8.29,3.82,16.32,8.21,24.06,13.1l-5.63,8.74c-7.21-4.55-14.68-8.64-22.39-12.21l3.96-9.62Zm27.33,15.21c7.16,4.7,14.07,9.82,20.72,15.33l-6.55,8.07c-6.35-5.26-12.95-10.17-19.79-14.66l5.63-8.74Zm23.69,17.84c6.24,5.34,12.23,11,17.97,16.96l-6.86,7.86c-5.62-5.89-11.52-11.49-17.66-16.75l6.55-8.07Z"/>
      <path class="cls-8" d="m62.6,290.31c5.44-5.92,11.03-11.68,16.8-17.19l4.84,5.32c-6.04,5.77-11.87,11.82-17.53,18.04-1.39-2.04-2.76-4.1-4.11-6.17h0Zm294.74,6.48c1.38-2.07,2.73-4.16,4.06-6.26-5.32-5.97-10.84-11.72-16.58-17.21l-4.84,5.32c4.5,4.31,8.87,8.79,13.1,13.41l.14.13v.02c1.38,1.52,2.75,3.05,4.11,4.6h0Zm-275.12-26.34c6.02-5.62,12.23-10.96,18.65-15.97l4.47,5.63c-6.3,4.9-12.39,10.15-18.28,15.65l-4.84-5.31Zm21.74-18.33c6.65-5.01,13.52-9.65,20.66-13.83l3.66,6.19c-6.85,4.01-13.46,8.46-19.85,13.27l-4.47-5.63Zm24.03-15.76c7.18-4.02,14.61-7.57,22.32-10.58l2.69,6.68c-7.38,2.87-14.48,6.26-21.35,10.09l-3.66-6.19Zm25.96-11.95c8.13-2.95,16.56-5.31,25.34-6.97l1.14,7.11c-8.23,1.57-16.16,3.78-23.8,6.55l-2.68-6.69Zm29.17-7.65c2.43-.4,4.89-.75,7.38-1.04,6.51-.76,13.06-1.14,19.61-1.19v7.19c-6.27.05-12.54.42-18.77,1.15-2.38.28-4.74.61-7.07,1l-1.14-7.11Zm30.87-2.23c9.33.12,18.4,1.01,27.22,2.59l-1.14,7.11c-8.45-1.52-17.14-2.38-26.07-2.5v-7.2Zm31.04,3.32c8.64,1.75,17.02,4.16,25.16,7.16l-2.68,6.68c-7.64-2.8-15.52-5.07-23.62-6.73l1.14-7.11Zm28.79,8.54c7.65,3,15.07,6.52,22.26,10.5l-3.66,6.19c-6.88-3.79-13.97-7.14-21.27-10.01l2.68-6.68Zm25.64,12.41c7.13,4.12,14.04,8.68,20.71,13.63l-4.47,5.63c-6.41-4.74-13.05-9.12-19.9-13.07l3.66-6.19Zm23.81,15.97c6.46,4.95,12.7,10.26,18.71,15.86l-4.84,5.32c-5.89-5.49-12-10.7-18.34-15.55l4.47-5.63Z"/>
      <path class="cls-8" d="m143.92,242.18c7.93-3.85,15.89-7.03,23.97-9.54l1.42,5.98c-7.24,2.16-14.43,4.96-21.72,8.51l-.89.44-2.77-5.4Zm206.77,64.13c1.43-1.96,2.84-3.94,4.22-5.95-1.45-1.66-2.95-3.32-4.5-4.97l-4.63,5.3c1.69,1.87,3.32,3.75,4.9,5.62h0Zm-282.21-7.27c1.39,1.99,2.8,3.96,4.25,5.91,1.7-1.73,3.4-3.45,5.12-5.16l-4.7-5.39c-1.57,1.54-3.12,3.08-4.66,4.64h0Zm103.14-67.5c8.18-2.31,16.48-3.94,24.98-4.87l.42,6.73c-8.21.74-16.14,2.09-23.97,4.18l-1.43-6.03Zm28.86-5.25c4.67-.39,9.41-.58,14.22-.56,3.13.01,6.27.17,9.42.44l-.45,6.97c-3.16-.28-6.32-.43-9.46-.44-4.54-.02-8.97.1-13.31.39l-.42-6.8Zm-57.25,23.04c-6.84,3.57-13.44,7.57-19.82,11.9l-4-5c6.77-4.48,13.77-8.61,21.03-12.32l2.79,5.42Zm-23.03,14.12c-6.78,4.77-13.32,9.91-19.65,15.3l-4.46-5.14c6.48-5.36,13.16-10.46,20.09-15.2l4.02,5.04Zm-22.59,17.84c-5.83,5.08-11.48,10.37-16.99,15.76l-4.69-5.36c5.57-5.36,11.28-10.58,17.18-15.58l4.5,5.18Zm130.38-54.73c8.15.96,16.32,2.74,24.4,5.19l-1.46,6.76c-7.75-2.34-15.58-4.04-23.4-4.97l.45-6.99Zm28.12,6.37c8.15,2.68,16.2,6.03,24.06,9.9l-3.09,6c-7.33-3.56-14.84-6.65-22.43-9.14l1.45-6.76Zm27.53,11.65c7.17,3.7,14.17,7.81,20.91,12.24l-4.18,5.23c-6.39-4.17-13.02-8.03-19.8-11.49l3.07-5.98Zm24.15,14.41c7.03,4.77,13.76,9.87,20.09,15.15l-4.41,5.08c-6.26-5.27-12.91-10.31-19.85-15l4.17-5.22Zm23.06,17.66c6.04,5.19,11.69,10.54,16.88,15.91l-4.59,5.25c-5.13-5.47-10.73-10.87-16.72-16.07l4.43-5.09Z"/>
      <path class="cls-8" d="m52.12,272.78c8.58-8.62,17.42-16.46,27.26-24l-19.04-18.74.3-3.2,3.81-2.12-.3-19.5-17.98,8.07-.76,18.58-9.71,5.57c3.93,10.25,8.49,20.37,13.71,30.32.89,1.68,1.79,3.36,2.71,5.02h0Zm-5.38-20.76l-1.95-3.75c5.44-4.21,11.37-8.31,16.7-12.12l2.76,2.9c-6.16,4.49-11.8,8.53-17.51,12.97h0Zm9.33-21.01c-2.04,1.16-3.62,2.15-5.66,3.3l-1.85-3.83c1.82-1.03,3.64-2.05,5.45-3.09l1.8-1.03,1.45,3.91-1.2.73Zm14.82,15.71c-6.37,5.34-13,10.74-19.26,16.22l-1.92-3.93c6.35-5.5,12.42-10.3,18.36-15.33l2.82,3.03Z"/>
      <path class="cls-8" d="m372.11,272.09c-8.36-8.34-17-15.97-26.57-23.31l19.04-18.74-.31-3.2-3.8-2.12.31-19.5,17.98,8.07.3,18.35,8.98,5.12c-1.35,3.62-2.77,7.21-4.26,10.75-3.54,8.43-7.43,16.63-11.66,24.57h0Zm6.08-20.06l1.95-3.75c-5.45-4.21-11.37-8.31-16.7-12.12l-2.76,2.9c6.16,4.49,11.8,8.53,17.51,12.97h0Zm-9.33-21.01c2.03,1.16,3.62,2.15,5.66,3.3l1.86-3.83c-1.82-1.03-3.64-2.05-5.45-3.09l-1.81-1.03-1.45,3.91,1.2.73Zm-14.82,15.71c6.38,5.34,13.01,10.74,19.26,16.22l1.93-3.93c-6.35-5.5-12.42-10.3-18.36-15.33l-2.82,3.03Z"/>
      <path class="cls-8" d="m176.04,155.48c4.74-.41,10.29-.98,15.05-1.23l.96,11.75,11.77-2.06v-10.77c5.54-.12,10.98-.13,16.55-.01v10.78l11.89,2.06,1.07-11.77c4.75.25,10.19.82,14.96,1.25l-1.6,25.15c-10.76-5.01-23.76-8.24-35.36-8.24-10.89,0-22.88,2.22-33.7,8.24l-1.6-25.15Z"/>
      <path class="cls-8" d="m181.65,203.78l4.81-22.04c2.86-1.11,5.71-2.01,8.54-2.72v6.6c-.35.05-.7.1-1.03.16-4.98.82-5.98,1.59-6.93,4.68,5.8-1.91,13.81-2.62,21.02-2.82v9.47c-5.49.09-12.75.35-17.46,1.31-4.42.9-6.28,2.71-6.31,5.5l-2.62-.14Zm17.24-18.61v-7c3.81-.71,7.59-1.08,11.35-1.14,4.07-.06,8.11.25,12.13.88v7.04c-8-.49-16.81-.38-23.48.22h0Zm27.37.07v-6.61c3.7.78,7.39,1.82,11.05,3.11l6.98,23.88-2.29-.11c-.72-2.61-1.14-4.55-3.58-5.66-6.26-2.85-21.43-2.82-26.23-2.78h-.25s0-9.47,0-9.47h.41c8.39,0,20.91.69,24.95,2.76-.82-2.96-2.51-3.99-4.46-4.31-2.02-.32-4.24-.59-6.59-.8h0Z"/>
      <path class="cls-5" d="m314.48,91.57c11.62-14.75,31.44-11.09,40.01-3.2,7.72-1.32,16.87-1.86,14.18,12.12,5.03,6.4,6.02,15.78,4.34,27.67,4.73,6.25,3.36,10.67-4.11,13.26-5.36,13.82-15.38,16.64-24.47,19.89-2.59,7.7-9.15,9.91-13.72,1.14-11.61-1.34-18.35-5.83-24.47-13.27-7.51-1.56-11.39-5.6-7.32-15.09-6.08-12.92-3.83-23.67,4.12-32.93-1.68-11.43,2.13-14.64,11.43-9.6h0Z"/>
      <path class="cls-7" d="m335.96,109.63c2.43,0,4.69.71,6.61,1.93l14.55-12.91c2.21-1.96,4.93.97,2.71,2.93l-14.25,12.65c1.84,2.25,2.95,5.15,2.95,8.31,0,1.49-.25,2.92-.7,4.25l17.69,5.06c2.84.81,1.83,4.68-1.02,3.87l-18.58-5.32c-1.92,2.56-4.75,4.36-7.99,4.88v19.65c0,2.96-3.99,3.04-3.99.09v-19.74c-2.86-.47-5.39-1.93-7.26-4.03l-14.16,11.17c-2.32,1.83-4.87-1.25-2.54-3.08l14.53-11.46c-.72-1.62-1.12-3.44-1.12-5.34,0-2.3.58-4.46,1.61-6.33l-13.09-14.3c-2-2.18.89-4.95,2.89-2.76l12.68,13.86c2.23-2.1,5.21-3.38,8.48-3.38h0Zm-30.91,25.21c-2.61-2.06-5.49-6.24-3.7-9.62,1.64-3.1,5.53-3.54,6.13-5.2.8-2.21-4.77-5.41.11-13.07,1.92-3.01,5.36-.98,3.37,2.15-3.93,6.16,2.12,7.17.28,12.27-1.36,3.78-5.27,3.66-6.36,5.71-.65,1.23,1.75,3.91,2.64,4.62,2.8,2.21.43,5.44-2.48,3.14h0Zm14.92-41.4c2.66-2.72,5.99-4.89,9.97-3.86,2.89.75,5.34,3.81,7.55,4.02,1.93.19,5.46-3.29,7.73-4.02,2.87-.93,5.61.62,6.92,3.2,1.61,3.16-1.95,4.98-3.56,1.82-.41-.8-1.17-1.52-2.13-1.21-1.02.32-2.31,1.36-3.2,1.98-1.84,1.29-3.81,2.44-6.15,2.21-3.82-.37-5.43-3.42-8.17-4.13-2.44-.63-4.53,1.17-6.11,2.78-2.48,2.54-5.34-.26-2.86-2.79h0Zm-5.95,52.6c2.35-2.56,5.66-3.03,8.4-.81,1.52,1.23,2.25,2.93,3.59,4.25,1.25,1.24,2.83,2.13,4.49,2.7,3.37,1.17,2.2,4.99-1.3,3.78-2.23-.76-4.32-1.98-6-3.64-1.18-1.17-2.17-3.08-3.29-3.99-1.09-.89-2.02-.6-2.94.4-2.39,2.61-5.34-.09-2.95-2.7h0Zm49.94-40.45c1.44,2.24,2.08,4.23,1.79,6.89-.19,1.78-.54,2.98-.14,4.81.53,2.45,2.18,4.64,3.35,6.82,1.69,3.12-1.83,5.02-3.52,1.89-1.45-2.7-3.07-4.78-3.74-7.87-.94-4.39,1.41-6.49-1.1-10.38-1.93-2.98,1.43-5.15,3.36-2.17h0Zm-1.18,36.52c-.14,3.24-2.28,5.27-5.42,5.61-1.69.19-3.61-.69-5.1.07-2.81,1.43-1.89,8.44-9.79,7.4-3.52-.46-3-4.42.52-3.96,4.64.61,2.98-4.72,7.45-7,1.37-.7,2.73-.86,4.25-.71.61.06,1.66.29,2.24.23,1.18-.13,1.81-.57,1.86-1.82.15-3.54,4.15-3.37,4,.18h0Zm-26.82-26.09c3.28,0,5.94,2.92,5.94,6.52s-2.66,6.52-5.94,6.52-5.93-2.92-5.93-6.52,2.66-6.52,5.93-6.52h0Z"/>
      <path class="cls-5" d="m67.43,92.37c11.62-14.75,31.44-11.09,40.02-3.2,7.71-1.32,16.87-1.87,14.18,12.12,5.03,6.4,6.02,15.78,4.34,27.67,4.73,6.25,3.36,10.67-4.11,13.26-5.36,13.83-15.38,16.64-24.47,19.9-2.59,7.69-9.15,9.91-13.72,1.14-11.61-1.33-18.35-5.83-24.47-13.26-7.51-1.56-11.39-5.6-7.32-15.09-6.08-12.92-3.83-23.67,4.12-32.93-1.68-11.43,2.13-14.63,11.43-9.6h0Z"/>
      <path class="cls-7" d="m88.91,110.43c2.43,0,4.69.71,6.61,1.93l14.55-12.91c2.21-1.96,4.93.97,2.71,2.93l-14.25,12.65c1.84,2.25,2.95,5.14,2.95,8.31,0,1.49-.25,2.92-.7,4.25l17.69,5.06c2.84.81,1.83,4.68-1.02,3.86l-18.58-5.32c-1.92,2.56-4.75,4.36-7.99,4.89v19.65c0,2.96-3.99,3.05-3.99.09v-19.74c-2.86-.48-5.39-1.93-7.26-4.03l-14.16,11.17c-2.32,1.83-4.87-1.25-2.54-3.09l14.53-11.46c-.72-1.63-1.12-3.44-1.12-5.34,0-2.3.59-4.46,1.61-6.33l-13.09-14.3c-2-2.18.89-4.95,2.9-2.76l12.68,13.86c2.23-2.1,5.21-3.38,8.48-3.38h0Zm-30.91,25.21c-2.61-2.06-5.49-6.24-3.7-9.63,1.64-3.1,5.53-3.54,6.13-5.2.8-2.21-4.77-5.41.11-13.07,1.92-3.01,5.36-.98,3.37,2.15-3.93,6.16,2.12,7.17.28,12.27-1.36,3.77-5.27,3.66-6.36,5.71-.65,1.23,1.75,3.91,2.64,4.62,2.8,2.21.43,5.43-2.48,3.14h0Zm14.92-41.4c2.66-2.73,5.99-4.89,9.97-3.86,2.89.75,5.34,3.81,7.55,4.02,1.93.18,5.46-3.29,7.74-4.02,2.86-.92,5.6.62,6.92,3.2,1.61,3.16-1.95,4.98-3.56,1.82-.41-.8-1.17-1.52-2.13-1.21-1.01.33-2.31,1.36-3.2,1.98-1.84,1.29-3.81,2.44-6.15,2.21-3.82-.37-5.43-3.42-8.17-4.13-2.44-.63-4.53,1.16-6.11,2.79-2.48,2.54-5.34-.26-2.86-2.79h0Zm-5.94,52.61c2.35-2.56,5.66-3.03,8.4-.81,1.52,1.23,2.25,2.93,3.59,4.25,1.25,1.23,2.83,2.13,4.49,2.7,3.37,1.16,2.2,4.99-1.3,3.78-2.23-.77-4.32-1.98-6-3.64-1.18-1.17-2.17-3.08-3.29-3.99-1.09-.89-2.02-.6-2.94.41-2.39,2.61-5.34-.09-2.94-2.7h0Zm49.94-40.46c1.45,2.24,2.08,4.23,1.8,6.89-.19,1.78-.54,2.98-.14,4.81.53,2.45,2.18,4.64,3.35,6.82,1.68,3.12-1.84,5.02-3.52,1.9-1.45-2.7-3.07-4.78-3.74-7.87-.94-4.38,1.41-6.49-1.1-10.38-1.93-2.98,1.43-5.14,3.35-2.17h0Zm-1.18,36.53c-.14,3.24-2.28,5.27-5.42,5.61-1.69.19-3.61-.7-5.11.07-2.81,1.43-1.88,8.44-9.79,7.4-3.52-.46-3-4.43.52-3.97,4.65.61,2.99-4.71,7.46-7,1.37-.7,2.73-.86,4.25-.71.61.06,1.66.29,2.24.23,1.18-.13,1.81-.57,1.86-1.82.15-3.54,4.15-3.37,4,.18h0Zm-26.82-26.09c3.28,0,5.94,2.91,5.94,6.51s-2.66,6.52-5.94,6.52-5.94-2.92-5.94-6.52,2.66-6.51,5.94-6.51h0Z"/>
      <path class="cls-3" d="m137.4,309.6l-6.29,14.75c1.72.02,5.75-.05,8.21,1.25,4.85,2.58,10.03,5.77,17.02,6.59,3.31.39,11.85.36,15.91-.56,6.45-1.46,10.71-5.88,15.69-7.57,3.02-1.02,5.78-1.04,10.52.63l-6.06-14.06c-1.07,1.21-3.28,2.29-6.09,3.2l-22.61-23.29v-3.46c1.99-.9,3.36-2.32,4.87-2.61,3.11-.6,3.91,1.38,9.68.95,2.72-.2,6.11-.76,7.63-4.16l-22.18-4.53v-3.85c3.56.17,5.54-1.27,8.29-1.21,1.37.03,1.9,1,4.97,1.57l4.01-6.77c-6.28.18-11.23.05-17.27-.29v-2.54h-1.6v12.75l-24.92-5.09c.59,5.03,2.88,8.48,5.5,9.76,2.7,1.31,4.86.2,7.43,1.55,2.06,1.07,2.65,2.6,3.66,3.44,2.43,2,5.17,2.37,8.33,1.59v2.01l-17.49,26c-2.94-.91-5.43-2.68-7.21-6.04h0Z"/>
      <path class="cls-7" d="m141.26,316.7c3.41,2.66,5.86,4,10.03,4.96,5.59,1.28,3.28-1.91,7.77-2.36.99-.1,1.97-.11,2.95-.06,1.66.09,3.31.34,4.96.49,2.45.22,4.86.25,7.32.13,1.51-.07,2.77-.29,4.19-.79,3.4-1.2,5.57-2,9.27-2.53l1.35-.19.39,2.69-1.34.2c-3.52.51-5.52,1.26-8.75,2.4-1.67.59-3.19.86-4.97.95-2.58.12-5.12.09-7.69-.14-1.62-.14-3.25-.39-4.87-.48-.85-.05-1.69-.04-2.54.05-2.77.27-1.8,3.88-8.66,2.3-4.56-1.05-7.36-2.56-11.09-5.46l-1.07-.84,1.67-2.14,1.07.84Z"/>
      <path class="cls-3" d="m248.8,308.63l-5.48,14.15c1.5.02,5.01-.05,7.15,1.2,4.23,2.48,8.74,5.54,14.83,6.32,2.88.37,10.33.35,13.86-.54,5.62-1.4,9.33-4.95,13.67-6.57,2.62-.98,5.03-1.69,9.16-.08l-5.28-13.49c-.93,1.16-2.86,2.2-5.3,3.06l-19.7-22.34v-3.32c1.73-.87,2.92-2.23,4.24-2.51,2.71-.57,2.84,1.27,7.84.47,2.57-.41,5.32-1.39,7.24-3.55l-19.32-4.34v-3.69c3.1.17,4.83-1.21,7.22-1.16,1.19.03,1.65.96,4.33,1.51l3.49-6.5c-5.47.18-9.78.05-15.04-.27v-2.43h-1.4v12.23l-21.71-4.88c.52,4.82,2.51,8.14,4.8,9.36,2.36,1.25,4.23.19,6.48,1.48,1.8,1.04,2.3,2.5,3.19,3.3,2.12,1.92,4.5,2.27,7.25,1.52v1.93l-15.23,24.94c-2.56-.88-4.73-2.57-6.28-5.79h0Z"/>
      <path class="cls-7" d="m252.16,315.44c2.98,2.56,5.11,3.83,8.74,4.75,4.87,1.23,2.86-1.83,6.77-2.26.86-.09,1.71-.11,2.57-.05,1.44.08,2.88.33,4.32.47,2.13.21,4.24.24,6.38.13,1.32-.07,2.41-.29,3.65-.76,2.96-1.15,4.85-1.91,8.07-2.43l1.17-.18.34,2.58-1.17.19c-3.07.49-4.81,1.21-7.62,2.3-1.46.57-2.78.83-4.33.91-2.25.12-4.46.09-6.7-.14-1.41-.14-2.83-.38-4.24-.46-.74-.05-1.47-.04-2.21.05-2.41.26-1.57,3.72-7.54,2.21-3.98-1.01-6.42-2.45-9.66-5.24l-.93-.8,1.45-2.06.93.8Z"/>
      <path class="cls-3" d="m197.38,356.26l-5.29,12.41c1.45.02,4.84-.05,6.9,1.05,4.08,2.18,8.44,4.86,14.32,5.54,2.79.32,9.97.3,13.38-.47,5.42-1.23,9-4.95,13.2-6.37,2.53-.86,4.85-.88,8.85.53l-5.1-11.83c-.9,1.01-2.76,1.92-5.12,2.68l-19.02-19.59v-5.11h.05c2.22-.29,1.57-.92,3.04-1.01,2.45-.16,2.23,2.51,6.74,2.45,2.32-.03,7.1-2.49,8.83-4.14l-18.65-6.67v-13.18h-1.35v12.69l-17.07-6.1c.39,3.53,2.12,6.98,3.95,8.73,1.98,1.9,2.37,1.75,3.95,2.21,1.47.44,2.58,2.94,3.56,3.43,2,.99,3.01-1.02,3.97.16.64.78,1.12,1.18,1.64,1.35v4.43l-14.71,21.87c-2.47-.77-4.56-2.25-6.06-5.08h0Z"/>
      <path class="cls-7" d="m200.63,362.24c2.87,2.24,4.93,3.36,8.44,4.17,4.7,1.08,2.76-1.61,6.54-1.98.83-.08,1.65-.09,2.49-.05,1.39.07,2.78.28,4.18.41,2.06.19,4.09.21,6.16.11,1.27-.06,2.32-.25,3.52-.67,2.86-1.01,4.68-1.68,7.79-2.12l1.13-.16.33,2.26-1.13.16c-2.96.43-4.64,1.06-7.36,2.02-1.41.5-2.68.73-4.18.8-2.17.1-4.3.07-6.46-.12-1.36-.12-2.73-.33-4.1-.41-.71-.04-1.42-.03-2.13.04-2.33.23-1.51,3.26-7.28,1.93-3.84-.88-6.2-2.15-9.33-4.59l-.9-.7,1.41-1.81.9.7Z"/>
      <path class="cls-7" d="m163.69,300.53l.32-.45,15.04,15.5c1.67-.3,3.3-.65,4.82-1.05l-20.17-20.79v6.78Z"/>
      <path class="cls-7" d="m152.43,316.58l9.66-13.77v-9.16l-15.16,22.53c1.73.29,3.57.38,5.5.4h0Z"/>
      <path class="cls-7" d="m162.09,306.71l-6.91,9.86c2.26-.03,4.58-.09,6.91.01v-9.87Z"/>
      <path class="cls-7" d="m164.29,303.58l-.6.85v12.24h.04c3.36.27,8.01.01,12.62-.65l-12.06-12.44Z"/>
      <path class="cls-7" d="m271.71,299.93l.27-.43,13.1,14.88c1.46-.29,2.87-.63,4.2-1.01l-17.57-19.93v6.5Z"/>
      <path class="cls-7" d="m261.9,315.33l8.41-13.21v-8.78l-13.21,21.61c1.51.28,3.12.36,4.79.38h0Z"/>
      <path class="cls-7" d="m270.31,305.86l-6.02,9.45c1.96-.03,3.99-.09,6.02.01v-9.46Z"/>
      <path class="cls-7" d="m272.23,302.86l-.52.81v11.75h.04c2.93.26,6.98.01,10.99-.63l-10.51-11.93Z"/>
      <path class="cls-7" d="m219.5,348.63l.27-.38,12.65,13.04c1.4-.25,2.77-.55,4.05-.88l-16.96-17.49v5.7Z"/>
      <path class="cls-7" d="m210.03,362.13l8.12-11.58v-7.71l-12.75,18.96c1.45.24,3.01.32,4.62.33h0Z"/>
      <path class="cls-7" d="m218.15,353.83l-5.82,8.29c1.9-.03,3.85-.08,5.82,0v-8.3Z"/>
      <path class="cls-7" d="m220,351.2l-.5.72v10.3h.03c2.82.23,6.74.01,10.61-.55l-10.15-10.47Z"/>
    </g>
  </g>
</svg>