<?xml version="1.0" encoding="UTF-8"?>
<svg id="Livello_2" data-name="Livello 2" xmlns="http://www.w3.org/2000/svg" viewBox="0 0 406.94 425.2">
  <defs>
    <style>
      .cls-1 {
        fill: #f2f2f2;
      }

      .cls-1, .cls-2, .cls-3, .cls-4, .cls-5, .cls-6 {
        fill-rule: evenodd;
        stroke-width: 0px;
      }

      .cls-2 {
        fill: #a51c22;
      }

      .cls-3 {
        fill: #0070b5;
      }

      .cls-4 {
        fill: #fff;
      }

      .cls-5 {
        fill: #005995;
      }

      .cls-6 {
        fill: #d11524;
      }
    </style>
  </defs>
  <g id="Livello_1-2" data-name="Livello 1">
    <g>
      <path class="cls-4" d="m337.46,188.72c4.55,29.77,10.11,59.31,15.52,88.94.83,4.51,1.49,9.05,2.06,13.6,1.53,12.34,1.38,22.56-2.72,34.35-8.12,23.33-32.97,42.41-54.55,53.04-3.14,1.55-6.3,2.88-9.6,4.03-2.62.91-5.27,1.71-7.92,2.54-7.83,2.44-15.7,5.45-23.16,8.87-6.86,3.14-13.65,6.4-20.29,9.98-11.1,5.97-21.42,12.77-31.57,20.23-1.52,1.3-2.11,1.12-3.54-.04-7.81-6.04-16.09-11.54-24.58-16.57-6.48-3.84-13.2-7.5-20.01-10.71-4.02-1.89-8.05-3.74-12.13-5.5-4.31-1.85-8.67-3.6-13.03-5.33-4.75-1.89-9.7-3.22-14.43-5.18-7.45-3.08-14.51-6.89-21.27-11.28-15.41-9.99-31.72-24.77-38.8-41.99-2.23-5.41-3.89-10.77-4.64-16.59-2.18-16.88,2.02-34.75,4.91-51.34,4.14-23.67,8.29-47.32,11.89-71.08l-31.77,16.16c-2.6,1.32-5,.05-5.25-2.64l-2.67-29.16L1.84,155.38c-2.51-1.58-2.4-4.82,0-6.18l36.93-20.97c-3.97-7.3-7.83-14.67-11.65-22.05-1.64-3.16-1.07-6.04,1.72-7.69,8-4.72,16.22-9.16,24.63-13.28-2.31-4.73-4.63-9.84-6.18-14.77-1.92-6.1-2.43-12.45-.14-18.53,1.8-4.78,5.28-8.85,8.93-12.33,5.41-5.16,11.95-9.41,18.16-13.53,4.25-2.82,8.59-5.51,12.98-8.08,6.18-3.61,12.49-7.02,18.91-10.18,5.5-2.7,11.15-5.27,16.88-7.42.97-.39,1.5-.38,2.45.18,12.07,6.65,24.61,12.75,37.57,17.48,8.03,2.93,16.29,5.44,24.64,7.24,5.24,1.13,10.79,2.07,16.15,2.34,5.91-.23,12.2-1.41,17.93-2.76,9.56-2.23,19-5.37,28.13-8.98,11.17-4.41,22.05-9.78,32.65-15.41,1.04-.51,1.34-.66,2.52-.11,7.38,3.1,14.66,6.69,21.73,10.42,9.07,4.79,17.98,9.98,26.52,15.64,7.86,5.22,17.33,11.92,22.89,19.62,2.94,4.07,4.7,8.72,4.86,13.77.12,3.96-.69,7.98-1.86,11.75-1.2,3.89-2.83,7.65-4.59,11.32-.37.77-.76,1.54-1.15,2.32,8.64,4.25,17.11,8.85,25.4,13.77,2.48,1.64,2.67,3.64,1.52,5.83l-12.36,23.4,37.09,21.07c2.14,1.21,2.87,4.45-.4,6.49l-27.84,17.35-2.6,28.87c-.26,2.85-2.93,3.95-5.86,2.46l-30.95-15.68Z"/>
      <path class="cls-3" d="m58.1,41.69c4.89-4.67,11.04-8.75,17.76-13.22,15.77-10.48,35.04-20.44,48.18-25.37,14.24,7.85,26.73,13.56,37.98,17.67,19.11,6.98,33.71,9.36,41.78,9.76,8.76-.32,25.18-3.26,47.16-11.94,9.91-3.91,20.71-9.05,32.94-15.55,11.09,4.67,30.32,14.22,47.77,25.8,8.9,5.9,17.33,12.24,22.13,18.89,2.79,3.86,4.17,7.98,4.3,12.13.26,8.64-4.48,18.41-7.66,24.76-21.15-10.21-43.26-18.38-66.09-24.12-25.17-6.33-51.09-9.64-77.03-10.09-28.06-.49-56.29,2.99-83.5,9.8-23.02,5.76-45.78,14.01-67.37,24.4-2.33-4.74-4.94-10.52-6.38-15.07-1.8-5.71-2.18-11.32-.19-16.62,1.45-3.87,4.28-7.5,8.21-11.24h0Zm275.99,144.38c5,33.29,10.84,63.82,16.01,92.11.89,4.91,1.53,9.39,2.03,13.43,1.63,13.19,1.1,22.46-2.58,33.03-7.3,20.97-29.75,39.88-53.08,51.37-6.41,3.16-10.72,4.41-17.1,6.4-6.89,2.15-15.59,5.38-23.51,9.01-19.1,8.76-32.75,16.08-52.37,30.51-16.6-12.84-34.69-22.7-45.14-27.62-9.94-4.68-14.89-6.75-25.33-10.9-4.81-1.91-9.83-3.28-14.39-5.16-7.59-3.14-14.42-6.9-20.79-11.03-16.27-10.56-31.25-25-37.68-40.65-2.18-5.3-3.73-10.3-4.44-15.84-2.11-16.32,2.1-34.45,4.89-50.45,4.19-23.98,8.53-48.51,12.37-74.24l56.22-28.6-11.69-20.79c26.88-11.7,55.74-17.07,85.03-17.29,28.79-.22,60.08,5.75,86.73,17.22l-11.75,20.82,56.57,28.67Z"/>
      <path class="cls-6" d="m283.46,16.14c-9.34,4.96-18.22,9.31-28.14,13.23-15.05,5.95-33.51,11.84-51.08,12.99-16.9-.85-32.47-5.64-46.09-10.63-11.93-4.36-22.62-9.56-33.85-15.53-13.91,5.77-30.24,14.87-42.09,22.68-5.43,3.57-11.02,7.21-15.73,11.69-1.43,1.36-3.49,3.5-4.78,5.59-.83,1.35-1.29,2.78-1.48,4.24-.29,2.28.12,4.68.79,6.97,1.27,4.31,3.16,8.59,5.18,12.74,18.65-8.29,38.04-15,57.63-19.89,27.21-6.81,55.43-10.29,83.5-9.8,25.94.45,51.86,3.76,77.03,10.09,19.34,4.86,38.16,11.46,56.32,19.57,1.3-2.56,2.65-5.39,3.72-8.2,2.58-6.75,3.4-11.56-.02-16.46-4.52-6.48-13-12.13-19.1-16.17-12.5-8.29-27.83-16.84-41.81-23.11h0ZM85.3,179.77c-3.94,27.63-8.49,55.34-13.59,82.76-2.78,14.93-6.44,31.36-4.53,46.12.93,7.22,3.64,14,7.48,20.13,7.34,11.74,20.12,22.29,29.57,28.59,6,3.89,12.27,7.29,18.89,10.03,4.63,1.92,9.56,3.23,14.24,5.1,8.85,3.52,17.12,7.23,25.68,11.42,13.65,6.68,30.25,16.57,40.59,23.63,18.37-12.82,32.85-20.5,50.56-28.25,7.05-3.09,14.39-5.83,21.69-8.1,5.47-1.7,10.22-3.17,15.4-5.72,17.85-8.8,40.52-25.56,47.23-44.88,3.33-9.58,3.55-16.81,2.3-26.85-.53-4.27-1.41-11.38-2.21-15.6-5.61-29.54-12.26-67.32-16.86-98.34l-44.23-22.41,11.75-20.82c-26.65-11.48-57.95-17.44-86.73-17.22-29.28.22-58.14,5.59-85.03,17.29l11.69,20.79-43.9,22.33Z"/>
      <path class="cls-4" d="m124,23.27c-13.04,5.65-26.57,13.25-38.27,20.95-5.09,3.34-10.41,6.77-14.83,10.99-1.27,1.21-2.81,2.8-3.74,4.3-.33.53-.51,1.09-.59,1.71-.18,1.38.2,3.03.59,4.35,1.25,4.23,3.11,8.34,5.07,12.3,1.25,1.41,2.13,1.94,3.07,3.99,13.53,29.64,21.49,62.31,16.9,94.96-4.09,29.06-8.81,58.03-14.18,86.88-2.59,13.89-6.29,30.05-4.47,44.12.81,6.28,3.21,12.21,6.56,17.56,6.4,10.23,17.71,20,27.66,26.63,5.66,3.67,11.58,6.89,17.82,9.46,4.62,1.91,9.5,3.21,14.16,5.07,8.87,3.53,17.55,7.42,26.12,11.62,5.6,2.74,11.12,5.71,16.55,8.79,7.14,4.04,14.29,8.32,21.18,12.85,9.9-6.73,20.04-12.84,30.76-18.27,5.68-2.88,11.45-5.55,17.28-8.1,7.28-3.19,14.76-5.98,22.36-8.35,4.96-1.55,9.8-3.05,14.47-5.35,16.11-7.94,37.91-23.65,44.02-41.23,2.99-8.6,3.11-15.01,2-23.97-.62-5.03-1.21-10.22-2.15-15.19-6.55-34.5-12.7-69.32-17.7-104.08-.78-2.21-1.29-5-1.72-7.18-.45-2.33-.89-4.72-1.2-7.07-4.63-34.32,4.73-49.96,20.66-78.92,2.21-4.03,4.42-8.18,6.07-12.49,1.27-3.31,2.96-7.28.7-10.51-3.9-5.59-11.75-10.76-17.39-14.5-11.91-7.9-25.01-15.28-38.07-21.32-8.49,4.43-17.06,8.53-26,12.06-16.63,6.57-35.09,12.25-53.02,13.42l-.37.02-.37-.02c-16.66-.84-32.38-5.31-47.96-11-11.07-4.04-21.55-9.02-31.95-14.47h0Z"/>
      <path class="cls-3" d="m28.92,102.35c29.47-17.78,62.43-31.41,95.51-39.68,27.42-6.86,55.47-10.2,82.84-9.72,25.01.43,50.82,3.57,76.46,10.01,31.65,7.96,63.34,20.95,94.2,39.34l-14.41,27.17,40.25,22.89-30.16,18.75-2.72,30.79-89.89-45.55,11.82-20.95c-28.46-12.78-61.62-18.77-90.3-18.56-30.51.23-60.58,5.97-88.56,18.63l11.76,20.92-89.78,45.67-2.84-30.97-29.98-18.75,40.18-22.81c-4.56-8.29-9.2-17.08-14.38-27.17h0Z"/>
      <path class="cls-4" d="m41.56,106.01l12.05,21.39,11.47,21.64c24.66-12.7,50.85-24.83,79.53-32.49,17.79-4.75,36.89-7.88,57.14-8.03,51.85-.39,100.69,19.45,141.2,40.9,3.78-6.87,7.46-14.29,11.09-22.08,3.52-7.17,7.15-14.36,11.3-21.84-26.3-14.81-52.85-26.37-82.18-33.74-24.29-6.11-50.3-9.06-75.34-9.5-27-.47-54.87,3.12-81.05,9.67-29.52,7.38-58.61,19.03-85.19,34.09h0Zm-23.47,46.8l22.86,13.23,2.59,24.44,64.37-32.21-45.1,4.94-3.26-5.56c-4.3-7.1-8.27-13.88-12.19-20.85l-29.26,16.01Zm96.44-1.21l-7.34-12.73c-12.59,5.14-24.21,10.82-39.45,17.52l46.79-4.79Zm274.21,1.18l-22.87,13.28-2.58,24.39-64.4-32.17,45.07,4.93,1.83-3.12h0s13.71-23.39,13.71-23.39l29.23,16.08Zm-50.49,3.53l-45.96-4.7,7.4-12.8c12.09,5.34,25.48,11.11,38.56,17.5h0Z"/>
      <path class="cls-3" d="m203.79,127.43c56.45,0,102.23,45.75,102.23,102.15s-45.78,102.16-102.23,102.16-102.23-45.75-102.23-102.16,45.78-102.15,102.23-102.15h0Zm.05,3.99c54.28,0,98.3,43.96,98.3,98.17s-44.02,98.17-98.3,98.17-98.29-43.96-98.29-98.17,44.02-98.17,98.29-98.17h0Z"/>
      <path class="cls-3" d="m204.2,134.21c52.75,0,95.52,42.73,95.52,95.43s-42.77,95.43-95.52,95.43-95.52-42.73-95.52-95.43,42.78-95.43,95.52-95.43h0Zm0,1.05c52.17,0,94.47,42.26,94.47,94.39s-42.3,94.38-94.47,94.38-94.47-42.26-94.47-94.38,42.3-94.39,94.47-94.39h0Z"/>
      <path class="cls-1" d="m127.12,200.09l4.7,5.04c.14,5.97,2.47,11.89,5.72,16.96,3.92,6.11,11.99,11.17,18.44,16.13-1.88,8.35-.38,15.64,3.18,22.55,4.89,9.49,12.6,16.53,21.3,22.99,7.44,5.52,15.63,10.72,23.11,15.55,7.31,4.72,14.98,9.5,23.39,13.38,2.14.99,3.76,1.29,5.97,1.05-10.49-4.84-20.73-14.5-27.33-22.29-9.27-10.95-9.82-11.77-11.35-18.98-1.99-9.41,2.67-14.88,10.09-17.46,11.48-3.99,30.51-.66,37.72,1.6,13.85,4.34,26.8,9.79,40.99,18.21-4.89-5.21-18.23-15.16-27.53-21.14-7.95-5.11-11.79-8.49-20.74-11.69,5.44-1.9,10.59-3.58,17.29-5.09,10.3-2.32,18.49-3.8,31.81-5.81.68-.1,1.42-.36,1.7-.77-13.04.33-23.56.37-36.58-.16-7.45-.3-16.48-.91-23.04-1.81-4.96-.68-11.01-2.84-15.8-5.1-6.79-3.21-10.57-6.15-13.48-12.43-6.37-13.78-.58-28.88,11.29-38.13,6.01-4.69,12.47-7.39,24.83-10.37-1.51-.73-3.53-1.2-6.88-1.05-8.24.36-21.14,3.41-28.38,6.62-12.35,5.48-24,10.79-30.68,18.31-5.3,5.97-8.78,12.45-9.61,20.54-7.97-5.9-18.13-8.84-23.93-5.24l-6.22-1.41Z"/>
      <path class="cls-5" d="m122.95,199.23l4.27,5.5c.84,6.21,3.89,11.75,7.36,16.85,4.19,6.15,10.92,14.34,16.59,18.96l49.33,41.15c-9.53-12.79-11.23-22.34-5.99-27.76,5.79-6.01,18.94-7.67,29.04-7.02,21,1.35,43.24,10.57,62.41,20.41-5.12-5.19-16.07-10.41-25.65-16.28-8.2-5.02-36.52-13.49-45.63-16.5l-61.36-28.98c-8.25-5.82-18.48-9.19-24.16-5.34l-6.22-.99Z"/>
      <path class="cls-3" d="m122.77,194.99l4.92,5.04c.38,6.12,2.96,12.12,6.43,17.22,4.19,6.15,10.09,11.56,16.78,16.46-1.55,8.61.25,16.05,4.11,23.03,3.97,7.2,10.38,13.91,19.7,20.7,4.78,3.49,10.18,6.73,16.37,10.41,11.03,6.57,23.9,14.3,37,20.01,2.19.95,3.83,1.21,6.03.91-10.73-4.66-21.89-14.54-28.83-22.35-9.75-10.97-15.34-20.77-17.17-28.12-2.38-9.52,2.12-14.14,10.54-15.41,6.9-1.04,16.65-.19,27.67,1.73,6.18,1.07,12.81,2.61,19.66,4.58,14.08,4.06,28.46,10.1,40.08,18.22-5.13-5.2-17.09-13.27-26.67-19.14-8.17-5-17.61-10.36-26.7-13.39-.08-.02-.05-.05,0-.06,5.36-2.09,11.37-3.98,18-5.71,10.25-2.68,21.86-4.34,34.4-7.05.67-.14,1.41-.41,1.68-.84-6.53.36-12.59.52-18.27.7-7.79.26-14.82.44-21.16.36-7.5-.1-17.51-.44-24.14-1.17-5.01-.55-11.18-2.6-16.07-4.78-6.95-3.1-12.51-7.47-15.68-13.83-1.84-3.68-2.78-7.54-2.79-11.32-.03-10.05,5.62-19.93,13.57-26.7,5.84-4.98,13.25-7.96,26-11.58-1.54-.7-3.96-.93-7.32-.68-8.26.61-20.83,3.72-28.46,6.57-12.71,4.75-23.9,12.9-30.31,20.81-5.08,6.27-8.33,13.02-8.82,21.34-8.25-5.82-18.57-8.54-24.25-4.69l-6.31-1.27Z"/>
      <path class="cls-4" d="m136.72,216.54l15.86.14c-3.21-13.88-11.61-18.76-22.8-18.04,1.18,7.45,3.53,14.22,6.94,17.89h0Zm21.36,25.76c-.49,6.95,2.2,12.45,5.27,16.96,5.29,7.79,12.79,13.81,20.39,19.1-6.2-6.61-11.57-13.2-15.01-19.8-2.3-4.42-4.07-8.84-4-13.27l-2.31,2.66c-.51.59-2.55-1.87-4.35-5.66h0Zm1.3-38.01l4.44,3.7,3.15-.51c-1.31-6.48-1.21-12.47.21-17.96,1.43-5.49,4.16-10.51,8.71-14.92-5.86,2.51-10.27,6.94-13.06,12.53-2.32,4.63-3.4,10.01-3.44,17.16h0Zm-22.75-1.6c.46,1.01,2.27,3.82,3.55,4.15,1.32.34,2.73-1.82,1.75-3-.68-.81-4.33-1.16-5.31-1.16h0Z"/>
      <path class="cls-6" d="m172.11,342.25c.12.38.18.8.53,1.03.17-.21.2-.44.17-.72-.22-1.86-.91-3.37-1.8-4.16-.57-.51-1.33-.84-1.94-1.11-1.23-.55-2.21-.83-2.52-1.99-.24-.86.04-1.65.62-2.38.67-.83,1.61-1.09,2.18-2.31-.16,1.03-1.27,1.46-2.11,2.53-.32.41-.48.91-.51,1.34-.1,1.01.41,1.63,1.24,2.05.9.45,2.09.78,2.97,1.43,1.16.85,1.9,2.31,2.27,3.91.15-.41.2-.98.16-1.41-.08-.73-.3-1.37-.62-1.85-.5-.75-1.26-1.28-1.74-1.79-.41-.44-.64-.91-.59-1.44.05-.54.46-1.15,1.23-1.44.75-.29,1.69-.31,2.14-.79-.31.62-1.28.55-2.17.97-.63.3-.97.81-.98,1.3-.02,1.3,1.47,1.88,2.27,2.97.77,1.06.91,2.1.85,3.46l1.25-1.32c-.29-.3-.52-.57-.57-.8.17-1.07.83-1.78,1.37-2.16-.04.4-.02.69.06.89,1.27-1.49,2.39-2.67,4.14-3.59,1.03-.54,2.34-1.02,3.89-1.32.07-.02.07.04,0,.08-1.04.66-1.72,1.45-2.79,2.45.4-.16,1.04-.2,1.32-.17-.04.21-.16.44-.34.69.67-.14,1.4-.51,2.03-.76,1.4-.55,2.76-.92,4.04-.77.09,0,.07.1,0,.13-1.22.49-2.79,2.24-2.84,3.1.47-.26,1.17-.41,1.61-.14.08.05.02.09-.04.14-.9.74-1.26,1.08-1.4,1.81.6-.23,1.15-.46,1.68-.62.39-.11.78-.11,1.01.09-.67.23-.72.8-1.09,1.22,1.42-.25,2.39.01,2.96.3-.98.21-1.17.59-1.59.95,1.25.27,1.92.45,2.45,1.22-.59-.07-.97.05-1.44.04.6.71,1.3,1.46,1.65,2.05.24.4.27.91.12,1.27-.2-.34-.57-.6-1.17-.83.5,1.08,1.04,2.48.75,3.69-.19-.6-.48-.98-1.09-1.42-.18,1.08-.59,2.23-.99,3.31-.97,2.59-2.27,4.9-2.62,6.51-.34,1.57.33,2.98,2.36,2.88.29-1.84,1-4.15,2.77-5.25.18-.1.17,0,.08.13-.79,1.16-1,1.7-.51,2.04.18-.63.54-1.16,1.09-1.7.74-.72,1.53-1.15,2.25-2.1.87-1.13,1.5-2.24,1.61-4.58,0-.18.06-.21.09-.04.38,1.8.2,3.5-.17,5.13.14-.03.25-.06.35-.11.36-.2.86-.89,1.45-1.51.46-.48.79-.84,1.54-1.48l1.5-2.04c.13.38.19.75.25,1.08,1.41-.59,2.66-1.02,4.02-1.24,1.7-.26,3.47-.17,4.86.52.03.02.03.07-.05.06-.27-.02-1.5,0-1.63.33,2.24.27,3.5.61,4.64.85,1.08.23,2.08.62,2.54.98.08.07.05.14-.05.11-.77-.22-1.76-.22-2.25-.14,2.82.96,4.99,2.23,6.3,3.59.07.07-.02.07-.12.04-.66-.22-1.47-.53-2.03-.5,1.84,1.1,3.84,2.19,4.84,3.67.04.05,0,.08-.07.05-.73-.31-1.61-.59-2.2-.62,3.04,3.25,6.6,5.16,9.36,5.65,2.32.41,6.11-.97,6.07-3.6-.01-1.26-.68-2.65-1.99-3.21-1.8-.77-4.91-.61-6.43-1.96-.64-.58-1.85-1.77-1.2-4.09-.15-1.7-.69-3.69,1.77-5.23.06-.04.12.02.09.09-.42,1-.46,2.28-.2,2.72l.15-.18c.34-1.19,1.04-3.81,2.83-4.31.07-.02.01.09-.03.14-.46.58-.61,1.41-.61,2.45l.67-.42c.27-1.13.9-2.59,2.18-2.89.05-.01-.02.08-.05.12-.38.51-.59,1.15-.49,1.77l.41-.2c.21-.82.66-1.52,1.53-1.89.09-.04.02.05-.03.13-.27.42-.54.91-.41,1.3l.51-.23c.18-.45.45-1.11,1.02-1.16.03,0,0,.04-.03.06-.25.25-.3.62-.29.84.21-.05.43-.05.57,0-.1.42-.41.58-.9.82-1.27.65-3.81,2.09-5.47,3.98-.84.95-1.35,1.86-1.11,3.12.64,3.41,7.45.93,10.59,2.84,2.44,1.48,3.84,3.91,4.23,6.67.24,1.71.15,3.64-.48,5.27-.51,1.31-1.41,2.58-2.51,3.73-1.47,1.54-3.42,2.86-5.9,3.46-1.25.31-2.53.39-4.07.43.57.8.91,1.55.96,2.15.06.79-.19.99-.73,1.15-.89.27-2.52.15-4.69.61-1.37.29-3.56.95-5.48,1.75-1.45.61-2.61,1.2-3.47,1.61-.51.25-.93.43-1.23.52-.88.42-1.29.67-1.91.99.41-1.02.69-1.63,1.39-2.34l.32.29c1.16-.49,2.51-1.13,2.86-1.55-.53-.04-1.87.28-3.45.62-1.08.23-2.25.39-3.12.46.57-.75,1.04-1.23,2-1.88l.43.24c.95-.18,2.8-.24,3.02-.57-.44-.3-1.23-.4-2.1-.42-.87-.01-1.83.06-2.61-.01.48-.56,1.29-1.12,2.26-1.68l.42.54c1.72-.18,3.75.09,5.43-.07,2.13-.21,4.6-1.27,5.15-3.07-1.95-.63-3.91-1.64-5.86-2.92-1.75,1.04.13,2.95.77,4.21.29.58-.02.9-.3.87-1.4-.16-4.08-.34-6.8-.1-2.8.25-4.9.54-7.97.98.59-.59,1.39-1.23,2.29-1.59l.37.34c.66-.25,1.43-.54,2.08-.79-1.45-.33-2.45-.66-5.61-.14.52-.57,1.16-1.12,2.04-1.35.17.22.34.35.75.26,1.05-.25,1.55-.25,2.51-.3-.96-.38-1.79-.82-3.29-.75.46-.38,1.49-.71,2.64-.93l-.2.42c1.07.3,2.33.67,3.48,1.22l2.7.39c.58.09,1.12-.09,1.46-.75-3.97-2.2-6.45-3.66-5.35-5.29.25-.37.76-.66,1.26-1.03.39-.29.73-.63,1.25-1.12-1.56-2.48-3.09-3.89-4.61-4.51-2.36-.97-4.4.38-6.14,2.54-1.9,4.39-5.6,7.57-9.56,8.72.71.59,1.2,1.07,1.43,1.53.09.18,0,.13-.05.13-2.17-.5-4.11-.5-5.26,1.42.98.03,1.73.12,2.68.31l.32-.33c.63.26.96.45,1.39.89-1.3,0-2.68.12-3.91.37-1.16.23-2.09.59-3.25,1.01-1.04.37-1.97.77-2.94,1.34-1.25.74-2.5,1.79-3.67,2.63-.06-.59-.02-1.16.16-1.71l1.01-.36c.32-.54.67-.96,1.11-1.46-1.59-.07-3.24.22-5.25,1.57.04-.51.17-1.09.49-1.69l.74.14c1.04-.64,2.16-1.21,3.81-1.65.09-.02-.02-.26-.1-.28-.98-.22-2.6.04-4.36.61.19-.5.43-.95.82-1.33l.54.27c1.42-.56,3.31-.91,5.49-1.03.52-.84,1.11-1.62,1.79-2.4-2.37-1.18-3.45-2.13-4.71-3.6.24.75.48,1.5.72,2.24-1.04-.81-1.77-2.02-2.71-2.73-.18-.13-.24-.12-.45-.04-1.58.62-1.16,1.92.28,3.43.05.05.02.11-.05.1-3.74-.23-6.33-5.63-7.88-9.2-.24-.27-.49-.38-.9-.27-.21.05-.5.16-.77.23-.36.09-.71.16-1.07.21l-.38.45c-.67-.02-1.29-.13-1.88-.31,1.54-.5,2.82-1.66,3.48-2.44.08-.71.08-1.5.07-2.42-1-1.25-2.13-2.33-3.49-3.26.56-.18,1.21-.2,1.72-.2l.35.55.59.08c-.34-1.09-1.3-2.41-2.11-3.38.62.05,1.28.2,1.84.45l.13.39c1.05,1.1,1.33,1.64,1.74,2.22.14.2.39.21.4-.02.04-.81-.54-2.11-1.01-3.18.48.08,1.04.21,1.52.42l-.03.39c.65.68,1.55,2.55,1.67,3.8.33,3.23.39,5.32,2.45,6.09.92.35,2.22.5,3.43.47-.19-1.81-.07-3.43.5-4.96.81-2.17,2.25-4.1,2.93-6.3.44-1.46.47-3.08-.54-4.34-.48-.6-1.29-1.21-2.09-1.09.21.25.34.54.35.67-.34,0-.77-.15-.92-.26l-.08.04c.23.3.3.46.34.62-.33-.12-.67-.17-1.03-.17l-.6.26c.54.58.78,1.15.77,1.65-.01.76-.47,1.17-1.01,1.23-.57.06-1.07-.32-1.18-.92.31.24.61.3.84.27.41-.06.63-.45.6-.8-.04-.38-.37-.74-.92-.82-.27-.04-.71.06-1.12.16-.04.28-.14.66-.36.91-.09-.29-.23-.62-.39-.8-.1.25-.15.51-.41.74-.09-.27-.11-.51-.12-.78-.41-.36-.43-.73-.38-1.2-.13-.29-.16-.62-.09-.91.1.21.23.45.37.58.43-.05.83-.18,1.24-.45l-.12-.6c-.02-.09,0-.09.08-.04.15.1.28.22.43.33.48-.35.97-.9,1.46-1.65-.17,0-.33-.02-.48-.05-.18.3-.7,1.29-.83.95l-.23-.58c-.59.29-1.59.76-1.93.78-.23.01-.97-.29-1.55-.49l-.07.8s-.08,0-.12-.1c-.2-.46-.54-1.19-.65-1.45.18-.49.44-.98.77-1.47h0Z"/>
      <path class="cls-2" d="m175.84,338.45h0c.47-.55.92-1.06,1.39-1.53,1.43.03,2.56-.26,3.91-.9l-.06.06c.4-.16,1.04-.2,1.32-.17-.04.21-.16.44-.34.69.67-.14,1.4-.51,2.03-.76,1.4-.55,2.76-.92,4.04-.77.09,0,.07.1,0,.13-.04.01-.07.03-.11.05-2.55.62-4.97,1.85-6.12,4.26-.2-.99-.8-2.09-1.53-2.46-.89.88-2.16,1.93-2.63,1.87-.36-.05-.06-.83.36-1.53-.61-.09-1.08.97-1.6,1.45-.19-.16-.53-.14-1.02.06.12-.16.24-.31.36-.46h0Z"/>
      <path class="cls-2" d="m174.09,346.27c.43-.05.83-.18,1.24-.45l.05.32c-.46.32-.94.27-1.29.14h0Zm1.63-.77c.48-.35.97-.9,1.46-1.65.34,0,.68-.02.76-.04-.57.84-1.11,1.39-1.88,2.01-.12-.13-.21-.21-.34-.32h0Z"/>
      <path class="cls-2" d="m241.46,358.46c.43.9.71,1.88.85,2.91.24,1.71.15,3.64-.48,5.27-.51,1.31-1.41,2.58-2.51,3.73-1.47,1.54-3.42,2.86-5.9,3.46-1.24.3-2.53.39-4.07.44.25-1.14.72-3.1,1.25-4.29.31-.67,1.15-1.13,2.16-1.36,2.32-.52,5.6-.17,7.57-2.4,1.64-1.87,1.68-4.92,1.12-7.75h0Z"/>
      <path class="cls-2" d="m224.79,373.58c-1.95-.63-3.91-1.64-5.86-2.92-1.75,1.04.13,2.95.77,4.21.29.58-.02.9-.3.87-.91-.11-2.38-.22-4.05-.21.08-.77-.25-1.41-1.26-2.15l.29.04c.58.09,1.12-.09,1.47-.75-3.97-2.2-6.45-3.66-5.36-5.29.25-.37.76-.66,1.26-1.03.39-.29.73-.63,1.25-1.12-1.56-2.48-3.09-3.89-4.6-4.51-2.36-.97-4.4.38-6.14,2.54-1.9,4.38-5.59,7.56-9.54,8.71l-.36-.27c.43-.57.59-1.14.71-1.61.32-1.22.12-2.15,1.37-3.32-.67-.03-1.12.04-1.71.48-.76-2.8,1.33-3.39,3.17-5.07.93-.84,1.9-1.79,2.48-3.14-.5.52-1.11.95-1.77,1,.15-.7,1.26-1.8,2.05-2.4,2.24-1.45,4.05-1.92,5.8-1.99,3.43-.15,6.83,1.19,9.72,5.15.8,1.87,3.39,5.58,5.42,7.84,1.56,1.73,3.35,3.36,5.39,4.14-.06.27-.12.55-.21.79h0Z"/>
      <path class="cls-2" d="m185.69,371.98c-2.34-1.16-3.44-2.12-4.68-3.57-.06-.07-.11-.13-.16-.21-1.05-1.46-1.85-3.08-2.2-5.74h.01c-.19-1.81-.07-3.43.5-4.96.81-2.17,2.25-4.1,2.93-6.3.44-1.46.47-3.08-.54-4.34-.48-.6-1.29-1.21-2.09-1.09.25-.12.78-.29,1.09-.31,1.23-.1,2.73.57,3.03,2.09.64,3.23-1.42,6.12-2.02,9.21-.43,2.2-.45,4.29-.23,6.3.27,2.37,1,4.01,1.89,5.21.86,1.15,1.87,2.07,2.61,3.42-.03.09-.09.21-.15.3h0Z"/>
      <path class="cls-2" d="m178.38,367.93c-1.4.64-.96,1.9.43,3.37.05.05.02.11-.05.1-3.74-.23-6.33-5.63-7.88-9.2-.02-.02-.03-.04-.05-.05,0,0,.02.01.02.02.76.76,2.44,3.05,4.5,4.49,1.06.75,2.08,1.25,3.02,1.28h0Z"/>
      <path class="cls-3" d="m115.65,104.23l2.37,7.66-4.21,1.3-7.08-22.95,11.19-3.45c2.56-.79,4.59-.85,6.14-.13,1.54.73,2.71,2.37,3.5,4.93.55,1.78.75,3.31.55,4.4-.25,1.45-1.18,2.44-2.75,3.15l.04.12c1.29-.4,2.43-.19,3.3.39.88.58,1.46,1.47,1.89,2.86l1.55,5.02-4.41,1.36-1.44-4.65c-.33-1.09-.87-1.77-1.62-2.04-.75-.27-1.66-.25-2.74.09l-6.27,1.93Zm-3.55-11.5l2.42,7.87,6.27-1.93c1.33-.41,2.17-.94,2.55-1.71.38-.78.27-2.01-.15-3.36-.45-1.43-.94-2.42-1.59-2.84-.72-.48-1.73-.42-3.05,0l-6.45,1.99Z"/>
      <path class="cls-3" d="m103.18,112.26l-9.64,3.86.31,4.81-4.43,1.77-1.5-25.23,6.27-2.51,16.46,19.26-4.34,1.73-3.13-3.68Zm-2.25-2.79l-8.49-10.02.82,13.09,7.67-3.07Z"/>
      <path class="cls-3" d="m79.79,117.89l4.02-2.12.61,1.15c1.27,2.41,1.77,4.42.97,6.08-.8,1.66-3.15,3.32-6.41,5.05-4.01,2.12-6.42,2.67-8.45,1.82-2.02-.85-3.97-3.75-6.31-8.18-1.99-3.78-3.16-6.59-2.77-8.69.44-2.34,2.56-4.37,6.17-6.31,3.35-1.8,6.01-2.98,7.99-2.42,2.12.61,2.97,1.87,4.73,5.07l-4.08,2.06c-.84-1.59-1.57-2.77-2.48-2.91-.91-.14-2.45.53-4.41,1.63-1.93,1.08-3.28,1.98-3.33,3.38-.05,1.2.9,3.27,2.55,6.4,1.17,2.21,1.98,3.78,2.77,4.77.56.7,1.16,1.19,2.11,1.18.95,0,2.22-.4,3.68-1.17,1.88-.99,3.2-1.86,3.66-2.64.46-.78.26-1.73-.36-2.91l-.66-1.24Z"/>
      <path class="cls-3" d="m235.89,91l4.47.38-.07,1.35c-.14,2.72-.84,4.6-2.4,5.58-1.56.99-4.43,1.13-8.11.85-4.52-.35-6.85-1.16-8.12-2.96-1.26-1.79-1.36-5.28-.97-10.28.33-4.26.83-7.26,2.29-8.82,1.62-1.74,4.49-2.33,8.58-2.05,3.79.27,6.68.68,8.04,2.21,1.47,1.64,1.52,3.16,1.3,6.82l-4.55-.44c.14-1.79.15-3.18-.55-3.79-.7-.61-2.36-.86-4.6-.97-2.21-.11-3.83-.07-4.62,1.08-.68.98-.98,3.25-1.25,6.77-.19,2.49-.34,4.25-.2,5.51.1.89.35,1.62,1.15,2.13.81.5,2.09.84,3.74.97,2.12.16,3.69.14,4.5-.28.81-.42,1.15-1.33,1.25-2.66l.11-1.39Z"/>
      <path class="cls-3" d="m338.3,123.54l4.03,1.98-.56,1.24c-1.13,2.48-2.46,3.98-4.27,4.32-1.81.35-4.54-.57-7.87-2.17-4.08-1.97-5.95-3.59-6.47-5.72-.52-2.13.66-5.42,2.84-9.93,1.86-3.85,3.43-6.46,5.35-7.38,2.14-1.03,5.04-.53,8.74,1.23,3.43,1.63,5.97,3.07,6.68,4.99.77,2.07.26,3.5-1.28,6.82l-4.07-2.07c.78-1.62,1.3-2.91.87-3.72-.43-.82-1.88-1.66-3.93-2.59-2.01-.91-3.54-1.46-4.69-.68-.99.67-2.1,2.67-3.64,5.85-1.09,2.25-1.87,3.84-2.2,5.06-.23.86-.27,1.65.3,2.4.57.77,1.64,1.55,3.13,2.27,1.91.93,3.39,1.48,4.29,1.38.9-.09,1.55-.82,2.13-2.01l.61-1.26Z"/>
      <path class="cls-3" d="m137.16,106.24l-5.1-23.45,11.21-2.44c3.46-.75,6.3-.51,7.96.93,2.19,1.89,2.73,4.06,3.6,8.07,1.03,4.71,1.25,8.56.27,10.63-1.06,2.27-3.41,3.1-7.08,3.9l-10.87,2.36Zm.24-20.61l3.44,15.8,5.51-1.2c2.3-.5,3.79-.89,4.47-2.24.67-1.33.31-3.65-.39-6.91-.47-2.15-.87-3.8-1.34-4.93-.45-1.08-1.02-1.82-2.21-2.08-.85-.18-1.94-.1-3.12.16l-6.36,1.38Z"/>
      <path class="cls-3" d="m163.1,76.89l3.58,23.66-4.53.68-3.58-23.66,4.53-.69Z"/>
      <path class="cls-3" d="m252.07,77.83l-3.74,23.63-4.52-.71,3.74-23.64,4.52.72Z"/>
      <path class="cls-3" d="m170.06,75.88l15.82-1.54.38,3.89-11.21,1.09.62,6.41,10.67-1.04.37,3.79-10.66,1.04.95,9.78-4.61.45-2.33-23.87Z"/>
      <path class="cls-3" d="m191.76,74.04l15.89-.34.08,3.91-11.26.24.14,6.44,10.72-.23.08,3.81-10.72.23.21,9.82-4.63.1-.51-23.98Z"/>
      <path class="cls-3" d="m312,94.34l14.67,6.13-1.51,3.61-10.39-4.35-2.48,5.94,9.89,4.14-1.47,3.51-9.89-4.13-3.79,9.07-4.28-1.79,9.25-22.13Z"/>
      <path class="cls-3" d="m267.45,84.83l-4.2,19.52-4.48-.96,4.2-19.52-6.85-1.48.82-3.84,18.18,3.91-.82,3.84-6.85-1.47Z"/>
      <path class="cls-3" d="m278.09,83.16l4.98,1.53,2.57,11.47,8.33-8.13,5.14,1.58-12.67,11.5-2.7,8.79-4.43-1.36,2.7-8.78-3.93-16.59Z"/>
      <path class="cls-2" d="m169.43,357.63c-1-1.25-2.12-2.33-3.48-3.25.56-.18,1.21-.2,1.72-.2l.35.55.59.08v-.04c.45,1.11.79,2.11.81,2.86h0Z"/>
      <path class="cls-2" d="m173.68,343.64c.84-.24,1.64-.52,2.48-.95-.45-.42-.96-.49-1.34-.34-.47.18-.83.65-1.14,1.3h0Z"/>
      <path class="cls-2" d="m184.66,339.89c-.41.33-.82.45-1.08.7-.45.4-1.15,1.35-.78,1.8.15.19.82-.05,1.22-.54.38-.46.59-1.53.64-1.95h0Z"/>
      <path class="cls-2" d="m186.43,341.32c-.36.2-.8.46-1.26.87-.49.44-.84,1.26-.53,1.52.19.16.77-.05,1.12-.55.45-.62.6-1.44.66-1.84h0Z"/>
      <path class="cls-2" d="m187.49,343.28c-.17.1-.38.22-.61.42-.24.21-.41.61-.25.73.09.08.37-.03.54-.26.22-.3.29-.7.32-.89h0Z"/>
      <path class="cls-2" d="m188.77,344.37c-.16.09-.36.2-.57.39-.22.2-.38.57-.24.68.08.07.34-.03.5-.25.2-.28.27-.65.3-.83h0Z"/>
      <path class="cls-4" d="m180.16,339.76c-.75.09-1.62.35-2.12.56-.19.07-.12.27-.09.32.18.31.58.7.87.65.49-.08,1.23-.88,1.46-1.19.28-.39-.03-.34-.12-.33h0Z"/>
    </g>
  </g>
</svg>