<?xml version="1.0" encoding="UTF-8"?>
<svg id="Layer_2" data-name="Layer 2" xmlns="http://www.w3.org/2000/svg" xmlns:xlink="http://www.w3.org/1999/xlink" viewBox="0 0 404.88 362.88">
  <defs>
    <style>
      .cls-1 {
        clip-path: url(#clippath);
      }

      .cls-2 {
        fill: none;
      }

      .cls-2, .cls-3, .cls-4 {
        stroke-width: 0px;
      }

      .cls-3 {
        fill: #a5010a;
      }

      .cls-3, .cls-4 {
        fill-rule: evenodd;
      }

      .cls-4 {
        fill: #fff;
      }
    </style>
    <clipPath id="clippath">
      <rect class="cls-2" width="404.88" height="362.88"/>
    </clipPath>
  </defs>
  <g id="Layer_1-2" data-name="Layer 1">
    <g>
      <path class="cls-3" d="m264.68,274.94v16.71h-27.1v17.08h24.13v15.65h-24.13v35.67h-37.68v-85.11h64.78Z"/>
      <g class="cls-1">
        <path class="cls-3" d="m136.48,330.13l14.76.28-7.38-36.79-7.38,36.51Zm-2.57,13.86l-3.08,16.2-35.64-.14,19.14-85.11h56.85l21.77,85.11-37.23.28-2.96-16.34h-18.87Z"/>
        <path class="cls-3" d="m51.77,292.08c.06-2.67-2.98-4.45-7.03-4.57-4.82-.15-7.45,1.04-7.45,4.57v50.95c0,3,3.75,4.33,7.59,4.27,3.31-.05,6.46-1.04,6.46-4.27v-18.3h39.17l.14,4.7c.62,20.62-9.68,32.77-46.12,32.49-15.67-.12-44.48-2.36-44.5-21.66l-.04-45.67c-.02-17.87,29.23-22.02,44.31-21.62,41.84,1.12,46.5,14.77,46.34,27.08l-.14,11.49h-39.17l.43-19.46Z"/>
      </g>
      <path class="cls-3" d="m325.14,292.08c.06-2.67-2.97-4.45-7.03-4.57-4.82-.15-7.45,1.04-7.45,4.57v50.95c0,3,3.75,4.33,7.6,4.27,3.31-.05,6.46-1.04,6.46-4.27v-18.3h39.17l.14,4.7c.62,20.62-9.68,32.77-46.12,32.49-15.66-.12-44.48-2.36-44.49-21.66l-.04-45.67c-.02-17.87,29.23-22.02,44.31-21.62,41.84,1.12,46.5,14.77,46.34,27.08l-.14,11.49h-39.17l.42-19.46Z"/>
      <path class="cls-3" d="m82,67.2l5.33,8.01.31.46,1.26,2.03c-2.78,7.12-4.3,12.53-5.48,21.92-1.38,10.99,3.02,22.34,7.35,31.11,4.37,8.85,10.48,16.28,17.71,22.79l1.86,1.68-1.57,1.96c-4.14,5.16-8.01,10.36-11.89,15.56-3.88,5.21-7.76,10.41-11.85,15.52-1.25,2.38-2.58,4.72-3.92,7.06-1.34,2.35-2.69,4.7-3.94,7.11h0l-3.72,7.81c-6.34,13.32-12.66,26.61-19.74,39.95-.71,1.34-1.34,2.74-1.49,3.97-.04.35-.04.68.02,1,2.89-.9,5.85-1.82,8.86-2.74l-.71-.46,51.16-80.32c1.05,1.59,2.16,3.14,3.31,4.66l-47.19,74.1c5.83-1.79,11.8-3.62,17.85-5.48l37.78-59.15c1.29,1.24,2.61,2.44,3.98,3.6l-33.95,53.16c3.19-.98,6.39-1.96,9.6-2.93l8.71-2.66h0l25.69-40.22c1.48.93,3.01,1.82,4.57,2.68l-22.46,35.16c6.06-1.86,12.18-3.73,18.41-5.66l15.46-24.2c1.67.65,3.37,1.26,5.11,1.83l-12.75,19.96-.12.04c3.02-.94,6.07-1.89,9.16-2.85,2.47-3.15,4.77-6.35,7.08-9.56,2.48-3.44,4.96-6.89,7.73-10.39l.98-1.24,1.54.26c18.08,3.05,33.62,3.18,46.95.78,13.2-2.37,24.26-7.23,33.5-14.21l.13-.09c8.93-5.96,16.71-13.57,23.61-22.41,6.97-8.93,13.07-19.12,18.6-30.14l.49-.98,1.04-.35,96.11-31.88,1.76-7.5-93.27,27.68-1.5-4.71,96.07-28.51,1.63-6.95c-12.5,3.33-24.56,6.68-36.58,10.01-43.87,12.18-87.25,24.22-141.87,32.92-1.08.17-3.06-.32-4.08-.89h-.01c-.41-.24-.79-.52-1.08-.86-.85-.98-1.05-2.09-.38-3.29.42-.74,1.12-1.28,2.18-1.51,3.64-.8,7.51-2.23,11.18-4.36,3.25-1.88,6.34-4.31,8.97-7.31,2.59-2.96,4.92-5.71,6.59-8.47,1.49-2.46,2.5-4.98,2.76-7.77l-35.66,25.58.09-6.45,36.09-26c.35-4.06.78-8.06,1.25-12.02l-37.17,26.75.09-6.59,37.94-27.31.14-1.18c.45-3.62.89-7.25,1.3-10.81l-39.22,27.98.09-6.58,39.86-28.44.1-1.11c.34-3.8.99-7.6,1.86-11.39l-41.67,30.08.09-6.6,43.55-31.43.12.16c1.42-4.66,3.11-9.32,4.94-13.9.82-2.07.61-3.5.29-4.9-8.28,7.77-17.71,15.22-27.13,22.66-4.48,3.53-8.95,7.07-13.39,10.71-2.16,1.77-4.04,3.3-5.9,4.8-12.43,10.08-24.05,19.5-30.34,30.08-2.25,3.79-3.52,7.65-3.63,11.62-.11,4,.92,8.19,3.27,12.65.37.69.72,1.11,1.07,1.54.49.58.98,1.17,1.59,2.25.77,1.36.53,3.12-.48,4.59-.46.67-1.09,1.31-1.83,1.81-.76.51-1.67.9-2.68,1.06-2.02.32-4.32-.25-6.43-2.56-1.59-1.48-3.3-2.82-5.04-4.19-1.71-1.34-3.45-2.71-5.24-4.34-1.59-1.45-2.34-3.22-3.09-4.99-.23-.54-.46-1.08-.73-1.62-4.56-8.99-9.62-16.57-15.93-22.08-6.19-5.41-13.66-8.88-23.15-9.8-5.63-.55-10.56.21-14.88,1.88-4.32,1.67-8.07,4.27-11.3,7.38l-1.37,1.32-1.7-.88-8.64-4.51Zm-10.13-5.66l-5.71-8.58,9.14,4.77,16.14,8.42c3.38-2.99,7.24-5.49,11.66-7.2,5.05-1.95,10.79-2.84,17.29-2.21,10.7,1.04,19.13,4.96,26.14,11.09,6.89,6.02,12.34,14.13,17.18,23.68.31.61.59,1.28.88,1.95.51,1.21,1.03,2.43,1.78,3.11,1.63,1.48,3.3,2.8,4.95,4.09,1.84,1.45,3.65,2.87,5.49,4.59l.16.16c.71.79,1.29,1.02,1.72.95.18-.03.37-.11.54-.23.07-.05.13-.09.18-.15-.19-.26-.38-.49-.57-.71-.54-.64-1.06-1.27-1.69-2.48-2.78-5.29-4.01-10.36-3.87-15.27.14-4.93,1.65-9.63,4.35-14.18,6.77-11.39,18.75-21.1,31.57-31.49,2.04-1.65,4.09-3.32,5.88-4.79,4.34-3.56,8.9-7.17,13.47-10.77,10.34-8.17,20.69-16.35,29.46-24.93l1.35-1.33,1.69.84,1.12.56,1.42.71.05,1.59c.02.8.21,1.63.4,2.46.54,2.33,1.07,4.62-.45,8.43-2.06,5.18-3.96,10.47-5.48,15.83-1.5,5.29-2.59,10.58-3.07,15.78-.61,6.72-1.37,12.92-2.14,19.11-1.07,8.75-2.15,17.5-2.7,26.36-.25,3.96-1.57,7.41-3.57,10.72-1.91,3.15-4.39,6.09-7.14,9.22-2.55,2.91-5.44,5.33-8.5,7.3,48.27-8.43,88.03-19.46,128.18-30.61,13.55-3.76,27.15-7.53,40.91-11.17l4.27-1.13-1.01,4.29-6.05,25.73-.34,1.44-1.41.47-96.48,32c-5.55,10.95-11.68,21.1-18.66,30.05-7.26,9.3-15.44,17.31-24.84,23.57-9.86,7.41-21.62,12.57-35.64,15.09-13.55,2.44-29.18,2.39-47.2-.51-2.3,2.96-4.46,5.97-6.63,8.98-2.48,3.44-4.96,6.89-7.74,10.4l-.51.65-.77.24c-16.23,5.05-34.43,10.61-52.62,16.17-17.05,5.21-34.09,10.42-52.57,16.17l-1.49.46-1.13-1.09c-2.06-1.97-2.59-4.29-2.3-6.7.25-2.01,1.11-3.99,2.07-5.8,7.03-13.26,13.33-26.49,19.64-39.75.64-1.35,1.36-2.86,3.77-7.9l.03-.07c1.28-2.46,2.66-4.88,4.04-7.3,1.34-2.35,2.69-4.7,3.94-7.11l.12-.24.17-.21c4.14-5.16,8.02-10.36,11.89-15.56,3.44-4.62,6.88-9.24,10.47-13.79-6.9-6.53-12.76-13.95-17.08-22.7-5.32-10.78-8.76-22.13-7.91-34.08.32-4.48,2.85-15.16,5.05-20.31-.64-.96-10-15.21-11.29-17.15h0Z"/>
      <path class="cls-3" d="m170.14,136.52c-21.12-19.03-46.49-26.39-57.87-13.55-11.38,12.84-1.93,37.45,19.2,56.48,21.12,19.03,46.77,24.7,57.45,12.85,10.68-11.86,2.35-36.75-18.77-55.78h0Z"/>
      <path class="cls-4" d="m143.86,293.62l-7.38,36.51,14.76.28-7.38-36.79Z"/>
      <path class="cls-4" d="m131.47,179.45c-21.12-19.03-30.57-43.64-19.2-56.48,11.38-12.84,36.74-5.48,57.87,13.55,21.12,19.03,29.45,43.92,18.77,55.78-10.68,11.85-36.32,6.18-57.45-12.85h0Zm-45.95,65.46l37.78-59.15c1.29,1.24,2.61,2.44,3.98,3.6l-33.95,53.16,9.6-2.93,8.71-2.66,25.69-40.22c1.48.93,3.01,1.82,4.57,2.68l-22.46,35.16c6.06-1.86,12.18-3.73,18.41-5.66l15.46-24.2c1.67.65,3.38,1.26,5.11,1.83l-12.75,19.96,9.05-2.81c2.46-3.15,4.77-6.35,7.08-9.56,2.48-3.44,4.96-6.89,7.73-10.39l.98-1.24,1.54.26c18.08,3.05,33.62,3.18,46.95.78,13.2-2.37,24.26-7.23,33.5-14.21l.13-.09c8.93-5.96,16.71-13.57,23.61-22.41,6.97-8.93,13.07-19.12,18.6-30.14l.49-.98,1.05-.35,96.11-31.88,1.76-7.5-93.27,27.68-1.5-4.71,96.07-28.51,1.63-6.95c-12.5,3.33-24.56,6.68-36.58,10.01-43.87,12.18-87.25,24.22-141.87,32.92-1.08.17-3.06-.32-4.08-.89h-.01c-.41-.24-.79-.52-1.08-.86-.85-.98-1.05-2.09-.38-3.29.42-.74,1.12-1.28,2.18-1.51,3.63-.8,7.5-2.23,11.18-4.36,3.25-1.88,6.34-4.31,8.97-7.31,2.59-2.96,4.92-5.71,6.6-8.47,1.49-2.46,2.49-4.98,2.76-7.77l-35.66,25.58.09-6.45,36.09-26c.35-4.06.78-8.06,1.25-12.02l-37.17,26.75.09-6.59,37.94-27.31.14-1.18c.45-3.62.9-7.25,1.3-10.81l-39.22,27.98-1.12.8-3.07-4.32,4.29-3.05,39.86-28.44.1-1.11c.34-3.8.99-7.6,1.86-11.39l-41.67,30.08.09-6.6,43.55-31.43.12.16c1.42-4.66,3.11-9.32,4.94-13.9.82-2.07.61-3.5.29-4.9-8.28,7.77-17.71,15.22-27.13,22.66-4.48,3.53-8.95,7.07-13.39,10.71-2.16,1.77-4.04,3.3-5.9,4.8-12.43,10.08-24.05,19.5-30.34,30.08-2.25,3.79-3.52,7.65-3.63,11.62-.11,4,.92,8.19,3.27,12.65.37.69.72,1.11,1.07,1.54.49.58.98,1.17,1.59,2.25.77,1.36.53,3.12-.48,4.59-.46.67-1.09,1.31-1.83,1.81-.76.51-1.67.9-2.68,1.06-2.02.32-4.32-.25-6.43-2.56-1.59-1.48-3.3-2.82-5.04-4.19-1.71-1.34-3.45-2.71-5.24-4.34-1.59-1.45-2.34-3.22-3.09-4.99-.23-.54-.46-1.08-.73-1.62-4.56-8.99-9.62-16.57-15.93-22.08-6.19-5.41-13.66-8.88-23.16-9.8-5.63-.55-10.56.21-14.88,1.88-4.32,1.67-8.07,4.27-11.3,7.38l-1.37,1.32-1.7-.88-8.64-4.51,5.33,8.01.31.46,1.26,2.03c-2.78,7.12-4.3,12.53-5.48,21.92-1.38,10.99,3.02,22.34,7.35,31.11,4.37,8.85,10.48,16.28,17.71,22.79l1.86,1.68-1.57,1.96c-4.14,5.16-8.01,10.36-11.89,15.56-3.88,5.21-7.76,10.41-11.85,15.52-1.25,2.38-2.58,4.72-3.92,7.06-1.34,2.35-2.69,4.7-3.94,7.11l-3.72,7.81c-6.34,13.32-12.66,26.61-19.74,39.95-.71,1.34-1.34,2.74-1.49,3.97-.04.35-.04.68.02,1l8.86-2.74-.71-.46,51.16-80.32c1.05,1.59,2.16,3.14,3.31,4.66l-47.19,74.1c5.83-1.79,11.8-3.62,17.85-5.48h0Z"/>
    </g>
  </g>
</svg>