<?xml version="1.0" encoding="UTF-8"?>
<svg id="Livello_2" data-name="Livello 2" xmlns="http://www.w3.org/2000/svg" viewBox="0 0 203.75 343.43">
  <defs>
    <style>
      .cls-1 {
        fill: #e6f32b;
      }

      .cls-1, .cls-2, .cls-3, .cls-4 {
        stroke-width: 0px;
      }

      .cls-3 {
        fill: #7c0012;
      }

      .cls-4 {
        fill: #fff;
      }
    </style>
  </defs>
  <g id="Layer_1" data-name="Layer 1">
    <g>
      <path class="cls-2" d="m202.75,98.85c-4.58-.25-10.71-2.8-15.76-7.08-5.07-4.28-9.06-10.23-9.75-17.24v-.12c.35.16.71.3,1.07.46l.65.29.29-.65,4.16-9.4-.65-.29c-.66-.29-1.33-.57-2-.86l2.01-4.54c.67.29,1.34.56,2,.86l.65.29.29-.65,3.44-7.78-.65-.29c-1.07-.48-2.16-.93-3.24-1.39l5.63-17.07,2.91.96,4.87-14.75-8.25-2.72-2.37,7.18-6.79-2.24,2.37-7.18-8.92-2.94-2.37,7.18-6.79-2.24,2.37-7.18-8.25-2.72-4.86,14.75.76.25,2.16.71-5.62,17.05c-3.48-.84-7-1.59-10.55-2.26l1.88-17.86,3.05.32,1.62-15.45-8.63-.91-.79,7.52-7.11-.75.79-7.52-9.34-.98-.79,7.52-7.11-.75.79-7.52L107.31,0l-1.62,15.45.79.08,2.26.24-1.88,17.9c-1.66-.04-3.32-.07-4.98-.07s-3.33.03-4.98.07l-1.88-17.9,3.05-.32-.08-.79-1.54-14.65-8.63.91.79,7.52-7.11.75-.79-7.52-9.34.98.79,7.52-7.11.75-.79-7.52-8.63.91,1.62,15.45,3.05-.32,1.88,17.86c-3.55.67-7.07,1.42-10.55,2.26l-5.62-17.05,2.92-.96-.25-.76-4.61-13.99-8.24,2.72,2.37,7.18-6.79,2.24-2.37-7.18-8.92,2.94,2.37,7.18-6.79,2.24-2.37-7.18-8.25,2.72,4.86,14.75,2.92-.96,5.63,17.07c-1.08.46-2.17.91-3.24,1.39l-.65.29,3.73,8.43.65-.29c.66-.29,1.33-.57,2-.86l2.01,4.54c-.67.29-1.34.56-2,.86l-.65.29,4.45,10.05.65-.29c.36-.16.72-.31,1.08-.46v.12c-.7,7.02-4.69,12.96-9.76,17.24-5.05,4.28-11.18,6.82-15.76,7.08l-1,.06v138.84c0,23.49,2.89,45.94,11.05,62.67,8.12,16.73,21.8,27.73,42.78,27.69,5.05,0,14.6-.71,23.43-.71,6.22,0,9.61.27,12.66,2.13,3.08,1.85,6.09,5.55,11.08,12.66l.87,1.24.87-1.24c4.98-7.11,8-10.81,11.08-12.66,3.05-1.86,6.45-2.13,12.66-2.13,8.83,0,18.38.71,23.43.71,20.98.04,34.66-10.96,42.78-27.69,8.16-16.72,11.05-39.17,11.05-62.67V98.91l-1-.06ZM28.48,73.58c22.56-9.54,47.36-14.82,73.4-14.82,26.04,0,50.83,5.28,73.39,14.82H28.48Z"/>
      <path class="cls-3" d="m185.62,93.4c5.05,4.25,10.99,6.91,16,7.49v9.71h-78.84v-34.89h52.46c1.01,7.29,5.23,13.35,10.38,17.7Z"/>
      <rect class="cls-3" x="2.13" y="140.36" width="78.84" height="19.79"/>
      <rect class="cls-4" x="2.13" y="162.28" width="199.49" height="29.41"/>
      <rect class="cls-3" x="122.78" y="140.36" width="78.84" height="19.8"/>
      <polygon class="cls-4" points="120.65 138.23 120.65 160.16 83.09 160.16 83.09 138.23 2.13 138.23 2.13 112.72 83.09 112.72 83.09 75.7 120.66 75.7 120.65 112.72 201.62 112.72 201.62 138.23 120.65 138.23"/>
      <path class="cls-3" d="m18.13,93.4c5.15-4.35,9.37-10.41,10.38-17.7h52.46v34.89H2.13v-9.71c5.02-.58,10.96-3.24,16-7.49Z"/>
      <path class="cls-4" d="m190.79,299.49c-7.97,16.22-20.68,26.46-40.87,26.5-4.89,0-14.51-.71-23.43-.71-6.21,0-10.12.23-13.77,2.44-3.41,2.08-6.33,5.67-10.85,12.02-4.51-6.35-7.44-9.94-10.85-12.02-3.65-2.21-7.56-2.43-13.77-2.44-8.92,0-18.54.71-23.43.71-20.19-.04-32.9-10.28-40.87-26.5-3.37-6.89-5.82-14.87-7.54-23.54h192.91c-1.72,8.67-4.17,16.65-7.54,23.54Z"/>
      <path class="cls-2" d="m12.81,185h-3.35v-16.03h11.41v2.83h-8.06v3.62h7.05v2.83h-7.05v6.74Z"/>
      <path class="cls-2" d="m22.84,185h-3.35v-3.26h3.35v3.26Z"/>
      <path class="cls-2" d="m36.19,174.22c-.07-.24-.17-.52-.28-.84-.11-.32-.3-.62-.56-.9-.26-.28-.61-.52-1.04-.73-.43-.2-.99-.3-1.67-.3-.4,0-.83.08-1.3.23-.46.16-.89.44-1.29.86-.4.42-.73.99-.99,1.72-.26.73-.39,1.66-.39,2.79,0,.71.07,1.4.22,2.06.15.66.38,1.25.7,1.75.32.51.73.91,1.23,1.2.5.3,1.1.45,1.82.45.94,0,1.71-.26,2.32-.77.61-.51,1.02-1.26,1.23-2.24h3.35c-.16.88-.43,1.68-.8,2.4-.37.72-.85,1.34-1.43,1.86-.58.52-1.27.93-2.05,1.22-.79.29-1.68.43-2.68.43-1.07,0-2.05-.18-2.95-.54-.89-.36-1.66-.89-2.31-1.6-.65-.71-1.15-1.59-1.52-2.63s-.55-2.27-.55-3.65.19-2.63.57-3.68c.38-1.06.9-1.94,1.56-2.64.66-.71,1.44-1.24,2.34-1.6.9-.36,1.86-.54,2.89-.54,1.21,0,2.23.19,3.08.56.85.37,1.55.84,2.11,1.39.56.56.97,1.17,1.25,1.83.28.66.44,1.29.48,1.89h-3.35Z"/>
      <path class="cls-2" d="m45.94,185h-3.35v-3.26h3.35v3.26Z"/>
      <path class="cls-2" d="m65.83,174.22c-.07-.24-.17-.52-.28-.84-.11-.32-.3-.62-.56-.9-.26-.28-.61-.52-1.04-.73-.43-.2-.99-.3-1.67-.3-.4,0-.83.08-1.29.23-.46.16-.89.44-1.29.86-.4.42-.73.99-.99,1.72-.26.73-.39,1.66-.39,2.79,0,.71.07,1.4.22,2.06.15.66.38,1.25.7,1.75.32.51.73.91,1.23,1.2.5.3,1.1.45,1.82.45.94,0,1.71-.26,2.32-.77.61-.51,1.02-1.26,1.23-2.24h3.35c-.16.88-.43,1.68-.8,2.4-.37.72-.85,1.34-1.43,1.86-.58.52-1.27.93-2.05,1.22-.79.29-1.68.43-2.68.43-1.07,0-2.05-.18-2.95-.54-.89-.36-1.66-.89-2.31-1.6-.65-.71-1.15-1.59-1.52-2.63s-.55-2.27-.55-3.65.19-2.63.57-3.68c.38-1.06.9-1.94,1.56-2.64.66-.71,1.44-1.24,2.34-1.6.9-.36,1.86-.54,2.89-.54,1.21,0,2.23.19,3.08.56.85.37,1.55.84,2.11,1.39.56.56.97,1.17,1.25,1.83.28.66.44,1.29.48,1.89h-3.35Z"/>
      <path class="cls-2" d="m74.23,185h-3.53l5.71-16.03h3.86l5.65,16.03h-3.64l-1.03-3.3h-5.92l-1.12,3.3Zm2.01-6.07h4.08l-1.99-6.34h-.04l-2.05,6.34Z"/>
      <path class="cls-2" d="m88.29,168.97h8.1c1.07,0,1.93.17,2.59.51.65.34,1.16.76,1.53,1.24.36.48.61.98.74,1.5.13.51.19.94.19,1.28,0,.89-.21,1.69-.64,2.38-.43.69-1.04,1.17-1.84,1.44.33.15.62.3.87.46.25.16.46.38.64.67.17.29.3.67.39,1.13.09.46.13,1.06.13,1.81,0,.58,0,1.06.01,1.45,0,.39.03.7.08.93.04.23.12.41.21.54.1.13.23.22.41.28v.42h-3.71c-.12-.39-.21-.81-.27-1.28-.06-.47-.09-1.12-.09-1.95,0-.55-.02-1.02-.06-1.4-.04-.38-.14-.69-.31-.94-.17-.25-.43-.42-.78-.54-.35-.11-.84-.17-1.46-.17h-3.46v6.27h-3.28v-16.03Zm7.21,7.05c.88,0,1.53-.16,1.95-.49.42-.33.64-.89.64-1.7,0-.21-.03-.44-.09-.68-.06-.25-.18-.47-.35-.68-.17-.21-.41-.38-.71-.52-.31-.14-.7-.21-1.19-.21h-4.17v4.29h3.93Z"/>
      <path class="cls-2" d="m110.99,185h-3.35v-13.19h-4.84v-2.83h13.04v2.83h-4.84v13.19Z"/>
      <path class="cls-2" d="m118.32,185h-3.53l5.71-16.03h3.86l5.65,16.03h-3.64l-1.03-3.3h-5.92l-1.12,3.3Zm2.01-6.07h4.09l-1.99-6.34h-.04l-2.05,6.34Z"/>
      <path class="cls-2" d="m138.79,176.36h6.7v8.64h-2.23l-.34-2.01c-.21.25-.45.52-.72.8-.28.28-.61.54-.99.78-.39.24-.85.44-1.38.6-.54.16-1.17.25-1.9.25-.97,0-1.89-.17-2.78-.52-.89-.35-1.67-.87-2.36-1.56-.68-.69-1.23-1.56-1.63-2.61-.4-1.05-.6-2.28-.6-3.7,0-1.09.15-2.14.46-3.16.3-1.02.78-1.92,1.42-2.71.64-.79,1.45-1.42,2.43-1.9.98-.48,2.14-.71,3.48-.71h.04c1.22,0,2.27.18,3.14.54.87.36,1.59.8,2.15,1.34.57.54.99,1.12,1.26,1.75.28.63.44,1.22.48,1.77h-3.35c0-.15-.07-.37-.21-.67-.14-.3-.36-.59-.65-.88-.29-.29-.66-.54-1.09-.76-.44-.21-.96-.32-1.55-.32s-1.17.11-1.73.32c-.56.22-1.05.55-1.47,1.02-.42.46-.76,1.06-1.02,1.79-.25.73-.38,1.61-.38,2.63,0,1.1.14,2,.41,2.71.28.71.63,1.27,1.07,1.69.44.42.94.71,1.5.87.56.16,1.12.25,1.69.25.18,0,.45-.03.81-.1.36-.07.74-.22,1.14-.46.39-.24.77-.59,1.13-1.06.36-.47.62-1.11.8-1.91h-3.73v-2.7Z"/>
      <path class="cls-2" d="m160.64,171.81h-8.5v3.37h7.81v2.84h-7.81v4.15h8.88v2.84h-12.17v-16.03h11.79v2.83Z"/>
      <path class="cls-2" d="m173.75,168.97h3.12v16.03h-3.35l-6.54-11.43h-.04v11.43h-3.13v-16.03h3.53l6.36,11.16h.05v-11.16Z"/>
      <path class="cls-2" d="m182.58,185h-3.53l5.71-16.03h3.86l5.65,16.03h-3.64l-1.03-3.3h-5.92l-1.12,3.3Zm2.01-6.07h4.08l-1.99-6.34h-.04l-2.05,6.34Z"/>
      <rect class="cls-4" x="27.05" y="193.82" width="18.72" height="80"/>
      <rect class="cls-4" x="157.98" y="193.82" width="18.72" height="80"/>
      <g>
        <path class="cls-4" d="m72.82,233.82c0-11.59,6.78-21.59,16.6-26.25v-13.75h-18.72v80h18.72v-13.75c-9.81-4.67-16.59-14.67-16.6-26.25Z"/>
        <path class="cls-4" d="m114.33,193.82v13.75c9.81,4.67,16.59,14.66,16.6,26.25,0,11.59-6.79,21.59-16.6,26.25v13.75h18.72v-80h-18.72Z"/>
      </g>
      <path class="cls-4" d="m126.92,239.41c-1.59-1.02-3.53-1.64-5.59-1.66-.75,0-1.52.09-2.28.29-.34-1.45-1.04-2.95-2.17-4.29-1.65-1.96-4.35-3.47-7.86-3.46-2.11,0-4.5.52-7.18,1.69-2.46-1.19-5.79-5.04-5.76-10.84,0-.7.05-1.44.16-2.21.84-.02,1.83-.21,3.45-.4,1.59-.19,3.66-.37,6.14-.37,4.9,0,11.37.73,18.71,3.64,1.9,3.58,2.98,7.67,2.98,12.01,0,1.92-.22,3.79-.62,5.59Z"/>
      <path class="cls-4" d="m120.02,215.67c.45.46.89.93,1.31,1.42-5.97-1.81-11.27-2.32-15.49-2.32-2.64,0-4.86.2-6.53.4-1.64.2-2.89.39-3.07.37-1.79-.05-2.77-1.12-2.83-2.82,0-1,.44-2.29,1.69-3.66,2.16-.59,4.43-.91,6.78-.91,7.09,0,13.5,2.87,18.15,7.52Z"/>
      <path class="cls-4" d="m83.72,215.67c1.9-1.9,4.11-3.5,6.52-4.73-.15.6-.23,1.2-.23,1.79,0,1.69.63,3.27,1.75,4.4.35.36.75.66,1.18.92-.17,1.07-.25,2.1-.25,3.09.04,7.04,3.8,11.92,7.57,13.82.05.66.09,1.3.09,1.89,0,2.99-.67,4.92-1.61,6.04-.94,1.1-2.21,1.66-4.19,1.68-3.26.02-6.73-2.27-9.43-6.49-2.69-4.2-4.49-10.18-4.49-16.91,0-.6.03-1.22.06-1.84.9-1.31,1.91-2.54,3.03-3.66Z"/>
      <path class="cls-4" d="m76.21,233.82c0-2.82.46-5.53,1.3-8.07.62,5.48,2.33,10.35,4.76,14.15,1.68,2.62,3.73,4.77,6.04,6.19.48,1.07.66,1.92.66,2.55-.03,1.08-.38,1.6-1.13,2.14-.75.51-1.98.84-3.32.84-.4,0-.81-.04-1.21-.09-4.4-4.61-7.1-10.83-7.1-17.71Z"/>
      <path class="cls-4" d="m87,254.73c.97-.22,1.9-.59,2.73-1.14,1.53-.99,2.66-2.8,2.63-4.95,0-.31-.03-.62-.07-.94.74.16,1.5.25,2.27.25h.08c2.64,0,5.08-.93,6.71-2.9,1.65-1.98,2.4-4.75,2.4-8.21,0-.63-.03-1.29-.08-1.96,2.13-.87,3.92-1.21,5.37-1.21,2.57.02,4.16.99,5.28,2.27,1.11,1.28,1.62,2.97,1.6,4.06.03,2.08-1.32,6.02-3.77,9.81-2.37,3.71-5.75,7.36-9.63,9.66-.21,0-.43.02-.64.02-5.55,0-10.68-1.76-14.87-4.75Z"/>
      <path class="cls-4" d="m120.02,251.97c-2.9,2.9-6.49,5.11-10.5,6.36,2.14-2.05,3.99-4.36,5.48-6.69,2.26-3.57,3.74-7.1,4.17-10.08.69-.29,1.41-.42,2.16-.42,1.69-.02,3.46.75,4.56,1.72-1.3,3.45-3.32,6.54-5.87,9.11Z"/>
      <path class="cls-2" d="m115.22,140.49l-2.67-13.92-3.33-4.9v-9.17c0-1.02.56-2.05,1.17-2.82.31-.38.61-.7.84-.91.23-.21.37-.32.37-.32l.28-.21v-7.97h-4.61v3.19h-1.6v-3.19s-7.62,0-7.62,0v3.19h-1.6v-3.19h-4.61v7.97l.27.21s.14.11.36.32c.71.64,2.05,2.2,2.02,3.73v9.17l-3.33,4.9-2.67,13.92h10.07v-6.02c.02-1.68,1.22-2.99,3.28-3.01,2.06.03,3.26,1.34,3.28,3.01v6.02h10.07Z"/>
      <path class="cls-1" d="m101.87,130.04c-1.36,0-2.55.48-3.38,1.29-.84.8-1.31,1.93-1.31,3.14v4.6h-6.94l2.29-11.95,3.41-5.02v-9.61c-.05-2.48-1.94-4.3-2.66-4.93v-5.88h1.77v3.19h4.43v-3.19h4.78v3.19h4.43v-3.19h1.77v5.88c-.72.63-2.61,2.45-2.66,4.93v9.61l3.41,5.02,2.29,11.95h-6.94v-4.6c0-1.21-.47-2.34-1.31-3.14-.83-.81-2.02-1.29-3.39-1.29Z"/>
      <path class="cls-2" d="m169.17,297.41c-.79-.1-1.49-.15-2.1-.15-1.56,0-2.62.31-3.35.9-1.1.91-1.14,2.18-1.29,2.94-.06.39-.16.66-.23.75-.08.08-.12.15-.56.17-.95.02-5.31-1.08-11.03-2.17-5.76-1.1-13.05-2.2-20.38-2.2-2.38,0-4.68,0-6.93,0l-10.81-7.27h-10.31c-1.66,0-2.94.32-3.77,1.28-.69.82-.94,1.89-1,3.24h-3.38v-11.87h-4.52v11.87h-2.83v3.27c-16.14.69-29.43,2.3-44.73,6.05-1.83.45-3.66.54-5.14.88-.74.17-1.42.4-1.97.87-.56.46-.88,1.21-.87,2.04-.02.89.26,1.81,1.06,2.39.78.57,1.87.88,3.58,1.23,28.36,5.68,36.47,5.69,64.1,5.68h2.74c30.43,0,36.35-.17,56.86-5.87.25.87.36,1.81.74,2.69.45,1.13,1.64,1.99,3.55,1.94,1.32,0,2.24-.3,2.75-1.03.48-.73.42-1.48.44-2.16v-15.39l-.62-.08Z"/>
      <rect class="cls-1" x="90.92" y="284.44" width="1.68" height="10.45"/>
      <path class="cls-1" d="m88.08,296.31h10.72v-.71c0-1.59.24-2.54.67-3.03.41-.48,1.17-.78,2.7-.78h9.88l8.7,5.85c-12.56.01-23.13.09-32.67.46v-1.8Z"/>
      <path class="cls-1" d="m168.37,312.88c.01.69-.04,1.18-.18,1.35-.11.16-.42.42-1.59.42-1.63-.05-1.9-.42-2.25-1.1-.34-.72-.42-1.95-.93-3.24l-.24-.59-.61.17c-21.58,6.01-26.64,5.99-59.87,6-27.66,0-35.49,0-63.82-5.65-1.65-.32-2.6-.66-3.01-.98-.39-.32-.47-.52-.49-1.25.01-.53.14-.74.38-.97.73-.76,3.55-.76,6.52-1.45,26.66-6.53,47.12-6.54,87.94-6.54,7.19,0,14.41,1.08,20.12,2.17,5.75,1.09,9.84,2.18,11.3,2.2.93.05,1.71-.51,1.94-1.17.36-.93.29-1.86.62-2.47.3-.55.78-1.08,2.87-1.11.38,0,.81.02,1.3.07v14.13Z"/>
      <path class="cls-2" d="m106.54,294.75c0-1.09.88-1.98,1.98-1.98h0c1.09,0,1.98.89,1.98,1.98h0c0,1.09-.89,1.98-1.98,1.98h0c-1.09,0-1.98-.89-1.98-1.98h0Z"/>
      <path class="cls-1" d="m107.25,294.75c0,.7.57,1.27,1.27,1.27h0c.7,0,1.27-.57,1.27-1.27h0c0-.7-.57-1.27-1.27-1.27h0c-.7,0-1.27.57-1.27,1.27h0Z"/>
      <path class="cls-2" d="m100.99,293.98c0,.21-.17.38-.38.38s-.38-.17-.38-.38.17-.38.38-.38.38.17.38.38Z"/>
      <path class="cls-2" d="m101.95,293.98c0,.21-.17.38-.38.38s-.38-.17-.38-.38.17-.38.38-.38.38.17.38.38Z"/>
      <path class="cls-2" d="m81.86,314.65h-.88v-4.2h.88v4.2Z"/>
      <path class="cls-2" d="m83.6,313.36c0,.06.01.13.03.2.02.08.06.15.13.22.06.07.15.13.27.18.12.05.27.07.46.07.1,0,.21,0,.31-.02.1-.02.2-.04.28-.08.08-.04.15-.09.2-.16.05-.07.08-.16.08-.27,0-.08-.02-.15-.06-.21-.04-.05-.09-.1-.16-.14-.07-.04-.15-.07-.24-.1-.09-.03-.19-.05-.3-.08l-.45-.1c-.17-.04-.34-.08-.5-.13-.16-.05-.3-.11-.42-.2-.12-.09-.22-.2-.3-.34-.08-.14-.11-.33-.11-.56,0-.08,0-.16.03-.26.02-.09.05-.19.09-.28.04-.1.1-.19.18-.28.08-.09.17-.17.29-.24.12-.07.27-.12.43-.17.17-.04.36-.06.59-.06.32,0,.58.05.8.14.21.09.38.21.5.34.12.14.21.28.26.44.05.16.08.3.08.43h-.84s-.02-.11-.04-.18c-.02-.07-.06-.14-.11-.21-.06-.07-.14-.12-.25-.17-.11-.05-.26-.07-.45-.07-.08,0-.17,0-.25.03-.09.02-.17.05-.24.09-.07.04-.13.09-.17.15-.04.06-.07.14-.07.24,0,.08.01.15.04.2.03.05.07.09.11.13.04.03.09.05.15.07.05.02.1.03.14.04l1.02.25c.14.04.28.08.42.13.13.05.25.12.35.2.1.09.18.19.24.32.06.13.09.29.09.47,0,.21-.03.39-.1.54-.06.15-.15.28-.25.38-.1.1-.22.18-.34.24-.12.06-.25.11-.37.14-.12.03-.24.05-.34.06-.11,0-.19.02-.25.02-.38,0-.69-.05-.93-.15-.24-.1-.42-.22-.55-.36-.13-.14-.21-.3-.26-.46-.04-.16-.06-.31-.06-.44h.84Z"/>
      <path class="cls-2" d="m87.76,314.65h-.92l1.5-4.2h1.01l1.48,4.2h-.95l-.27-.87h-1.55l-.29.87Zm.53-1.59h1.07l-.52-1.66h-.01l-.54,1.66Z"/>
      <path class="cls-2" d="m92.27,314.65h-.92l1.5-4.2h1.01l1.48,4.2h-.95l-.27-.87h-1.55l-.29.87Zm.53-1.59h1.07l-.52-1.66h-.01l-.54,1.66Z"/>
      <path class="cls-2" d="m98.63,311.82c-.02-.06-.04-.14-.07-.22-.03-.08-.08-.16-.15-.24-.07-.07-.16-.14-.27-.19-.11-.05-.26-.08-.44-.08-.11,0-.22.02-.34.06-.12.04-.23.12-.34.22-.1.11-.19.26-.26.45-.07.19-.1.44-.1.73,0,.19.02.37.06.54.04.17.1.33.18.46.08.13.19.24.32.32.13.08.29.12.48.12.25,0,.45-.07.61-.2.16-.13.27-.33.32-.59h.88c-.04.23-.11.44-.21.63-.1.19-.22.35-.37.49-.15.14-.33.24-.54.32-.21.08-.44.11-.7.11-.28,0-.54-.05-.77-.14-.23-.09-.44-.23-.61-.42-.17-.19-.3-.42-.4-.69-.1-.28-.14-.59-.14-.96s.05-.69.15-.96c.1-.28.24-.51.41-.69.17-.19.38-.32.61-.42.24-.09.49-.14.76-.14.32,0,.58.05.81.15.22.1.41.22.55.37.15.15.26.31.33.48.07.17.11.34.13.49h-.88Z"/>
      <path class="cls-2" d="m103.27,314.65h-.88v-4.2h1.92c.2,0,.38.03.55.09.16.06.3.15.41.27.11.12.2.26.26.42.06.17.09.35.09.56,0,.09-.02.22-.05.37-.03.15-.1.3-.2.44-.1.14-.23.27-.41.37-.17.1-.4.16-.68.16h-1.01v1.51Zm.81-2.24c.16,0,.29-.03.38-.08.09-.05.15-.11.19-.18.04-.07.07-.14.07-.22,0-.07.01-.13.01-.18,0-.21-.06-.35-.18-.44-.12-.09-.32-.13-.59-.13h-.7v1.23h.81Z"/>
      <path class="cls-2" d="m109.67,311.19h-2.23v.88h2.05v.74h-2.05v1.09h2.33v.74h-3.19v-4.2h3.09v.74Z"/>
      <path class="cls-2" d="m110.77,310.45h2.12c.28,0,.51.04.68.13.17.09.3.2.4.32.1.13.16.26.19.39.03.13.05.25.05.34,0,.23-.06.44-.17.62-.11.18-.27.31-.48.38.09.04.16.08.23.12.07.04.12.1.17.18.04.08.08.17.1.29.02.12.03.28.03.47,0,.15,0,.28,0,.38,0,.1,0,.18.02.24.01.06.03.11.06.14.03.03.06.06.11.07v.11h-.97c-.03-.1-.05-.21-.07-.34-.01-.12-.02-.29-.02-.51,0-.14,0-.27-.01-.37,0-.1-.04-.18-.08-.25-.05-.06-.11-.11-.21-.14-.09-.03-.22-.04-.38-.04h-.91v1.64h-.86v-4.2Zm1.89,1.85c.23,0,.4-.04.51-.13.11-.09.17-.23.17-.44,0-.05,0-.11-.02-.18-.02-.06-.05-.12-.09-.18-.04-.06-.11-.1-.19-.14-.08-.04-.18-.05-.31-.05h-1.09v1.12h1.03Z"/>
      <path class="cls-2" d="m115.88,314.65h-.92l1.5-4.2h1.01l1.48,4.2h-.95l-.27-.87h-1.55l-.29.87Zm.53-1.59h1.07l-.52-1.66h-.01l-.54,1.66Z"/>
      <path class="cls-2" d="m120.68,313.89h2.09v.76h-2.96v-4.2h.88v3.44Z"/>
      <polygon class="cls-1" points="160.7 8.79 165.92 10.51 163.55 17.69 173.37 20.92 175.74 13.74 181.62 15.69 179.26 22.86 189.07 26.1 191.44 18.92 196.66 20.64 192.79 32.36 156.84 20.51 160.7 8.79"/>
      <polygon class="cls-1" points="108.72 1.75 114.19 2.33 113.4 9.84 123.67 10.92 124.46 3.41 130.63 4.05 129.84 11.57 140.12 12.65 140.91 5.13 146.38 5.71 145.08 17.98 107.43 14.03 108.72 1.75"/>
      <path class="cls-1" d="m110.32,15.93l31.54,3.32-1.87,17.75c-10.28-1.85-20.81-2.97-31.54-3.29l1.87-17.77Z"/>
      <polygon class="cls-1" points="57.37 5.71 62.84 5.13 63.63 12.65 73.91 11.57 73.12 4.05 79.28 3.41 80.07 10.92 90.35 9.84 89.56 2.33 95.02 1.75 96.31 14.03 58.66 17.98 57.37 5.71"/>
      <path class="cls-1" d="m61.88,19.25l31.54-3.31,1.87,17.77c-10.73.32-21.26,1.44-31.54,3.29l-1.87-17.75Z"/>
      <polygon class="cls-1" points="7.09 20.64 12.31 18.92 14.67 26.1 24.49 22.87 22.12 15.69 28.01 13.74 30.38 20.92 40.2 17.69 37.83 10.51 43.04 8.79 46.91 20.51 10.96 32.36 7.09 20.64"/>
      <path class="cls-1" d="m14.37,32.92l30.12-9.93,5.59,16.94c-10.36,2.58-20.42,5.9-30.12,9.92l-5.58-16.94Z"/>
      <path class="cls-1" d="m178.24,73.3c-23.37-10.26-49.2-15.96-76.36-15.96s-52.99,5.69-76.36,15.96l-3.3-7.45c24.38-10.71,51.33-16.65,79.66-16.65s55.29,5.94,79.66,16.65l-3.3,7.45Z"/>
      <path class="cls-1" d="m179.46,63.42c-23.85-10.07-50.07-15.65-77.58-15.64-27.52,0-53.73,5.58-77.58,15.64l-2.01-4.54c24.47-10.34,51.36-16.07,79.59-16.07s55.12,5.73,79.59,16.07l-2.01,4.54Z"/>
      <path class="cls-1" d="m184.7,58.71c-25.35-11.14-53.37-17.32-82.82-17.32-29.46,0-57.48,6.18-82.82,17.32l-2.58-5.83c26.13-11.49,55.02-17.86,85.41-17.86s59.27,6.38,85.4,17.86l-2.58,5.83Z"/>
      <path class="cls-1" d="m183.79,49.85c-9.7-4.03-19.76-7.35-30.12-9.92l5.59-16.94,30.12,9.93-5.59,16.94Z"/>
    </g>
  </g>
</svg>