<?xml version="1.0" encoding="UTF-8"?>
<svg id="Layer_2" data-name="Layer 2" xmlns="http://www.w3.org/2000/svg" viewBox="0 0 284.49 424.59">
  <defs>
    <style>
      .cls-1 {
        stroke: #8e8e8d;
      }

      .cls-1, .cls-2, .cls-3, .cls-4, .cls-5, .cls-6, .cls-7, .cls-8 {
        fill: none;
        stroke-width: 2px;
      }

      .cls-2 {
        stroke: #801217;
      }

      .cls-3 {
        stroke: #80cff1;
      }

      .cls-4 {
        stroke: #f18389;
      }

      .cls-5 {
        stroke: #0f5e7f;
      }

      .cls-6 {
        stroke: #151514;
      }

      .cls-7 {
        stroke: #72537b;
      }

      .cls-8 {
        stroke: #868686;
      }

      .cls-9 {
        fill: #1d1d1b;
      }

      .cls-9, .cls-10, .cls-11, .cls-12, .cls-13 {
        stroke-width: 0px;
      }

      .cls-10 {
        fill: #0d0d0c;
      }

      .cls-11 {
        fill: #e30613;
      }

      .cls-12 {
        fill: #fff;
      }

      .cls-13 {
        fill: #009fe3;
      }
    </style>
  </defs>
  <g id="Ebene_1" data-name="Ebene 1">
    <g>
      <path class="cls-8" d="m83.66,11.72c-2.14.19-4.43.27-6.41.56C40.32,17.66,12.97,46.7,10.62,84.09" vector-effect="non-scaling-stroke"/>
      <path class="cls-1" d="m10.62,84.09c-.19,4.05-.18,7.94.05,11.67" vector-effect="non-scaling-stroke"/>
      <path class="cls-4" d="m10.67,95.76c-.11,1.08-.16,3.56-.16,7.45,0,42.95,0,85.83,0,128.63,0,.21.17.38.37.38h0c16.97,0,33.9,0,50.79,0,.39,0,1.02-.17,1.63-.12" vector-effect="non-scaling-stroke"/>
      <path class="cls-3" d="m63.31,232.09c.32-.02.61.13.96.13,17.24.01,34.48,0,51.72-.03" vector-effect="non-scaling-stroke"/>
      <path class="cls-4" d="m115.99,232.19h52.81" vector-effect="non-scaling-stroke"/>
      <path class="cls-3" d="m168.8,232.2h52.79" vector-effect="non-scaling-stroke"/>
      <path class="cls-4" d="m221.59,232.19l52.35.02c.16,0,.25-.08.27-.24.25-1.97.28-3.75.1-5.34" vector-effect="non-scaling-stroke"/>
      <path class="cls-1" d="m274.31,226.63c.46-2.63.69-5.19.69-7.67,0-66.84-.32-133.7,0-200.52,0-2.17-.02-4.3-.09-6.38,0-.24-.21-.44-.45-.44-12.1-.09-23.9-.05-35.4.12-.58,0-1.99.09-4.21.26" vector-effect="non-scaling-stroke"/>
      <path class="cls-8" d="m234.85,12c-31.67,3.42-57.12,25.79-78.01,47.84-9.61,10.15-19.18,20.33-28.7,30.56-9.06,9.73-19.6,20.04-31.6,26.93-6.99,4.01-14.32,5.56-21.99,4.65-20.76-2.46-37.47-19.3-38.71-40.39-1.62-27.34,19.41-50.72,46.82-51.97,14.84-.68,28.88,4.61,39.8,14.88,2.69,2.54,6.07,3.08,8.93.27,12.43-12.23,24.3-22.87,38.07-32.04.26-.17.33-.52.16-.78-.04-.05-.08-.1-.13-.14-.59-.43-1.52-.1-2.05-.1-6.95,0-13.9,0-20.84,0" vector-effect="non-scaling-stroke"/>
      <path class="cls-1" d="m146.58,11.72c-21.01-.2-41.98-.2-62.92,0" vector-effect="non-scaling-stroke"/>
      <path class="cls-6" d="m146.58,11.72l-1.48.47c-.17.06-.27.24-.21.42.02.07.07.14.14.18.9.56,1.89.82,2.98.77,3.47-.13,6.94-.2,10.41-.21,1.16,0,2.32-.16,3.6.18,3.61.95-1.33,3.79-2.14,4.25-1.72.97-2.93,2.41-4.68,3.59-1.89,1.27-3.23,3.07-4.98,4.34-3.1,2.24-6.11,5.34-8.56,7.42-3.74,3.17-7.52,6.62-11.33,10.36-1.35,1.33-3.61,2.28-5.35,1.03-3.06-2.21-6.1-5.23-8.79-7.07-8.02-5.49-16.97-8.64-26.83-9.46-.11,0-.2-.05-.28-.13l-.13-.13c-.11-.1-.23-.15-.37-.16-1.18-.03-2.36-.11-3.55-.23-1.97-.21-3.88.57-5.84.75-8.78.83-16.97,4.39-23.95,9.7-3.56,2.71-6.73,5.04-9.27,8.82-1.18,1.75-2.81,3.18-3.76,5.27-.05.11-.13.18-.23.22l-.24.09c-.13.05-.22.13-.28.26-.88,1.94-2.23,3.67-2.97,5.5-1.2,2.98-2.22,6.02-3.05,9.12-.76,2.86-.94,6.01-1.34,9.07-.48,3.6.22,8.52.83,11.3,2.14,9.83,7.04,17.76,14.33,24.59,7.81,7.32,17.08,10.88,27.67,11.98,3.44.36,8.07-.27,11.46-1.47,8.15-2.88,15.03-7.38,21.64-12.86,8.12-6.72,15.65-14.04,22.59-21.96,4.61-5.26,9.75-10.2,14.29-15.67,2.26-2.73,5.07-4.99,7.54-7.69,6.8-7.43,12.7-12.93,19.3-19.18,5.34-5.06,11.31-9.7,16.85-13.67,13.06-9.36,27.82-15.83,44.53-17.75.19-.02.29-.13.31-.32l.05-.89c0-.11-.04-.2-.14-.26l-.5-.28" vector-effect="non-scaling-stroke"/>
      <path class="cls-2" d="m274.31,226.63c-.48-6.41-1.06-10.99-1.72-13.76-3.12-13.04-9.21-24.31-18.25-33.83-8.99-9.45-19.91-16.04-32.75-19.75" vector-effect="non-scaling-stroke"/>
      <path class="cls-5" d="m221.59,159.3c-5.85-1.65-11.51-2.55-16.97-2.7-6.05-.17-17.88-.2-35.5-.08-.11,0-.18.06-.21.17-.02.11-.06.16-.12.16" vector-effect="non-scaling-stroke"/>
      <path class="cls-2" d="m168.79,156.84c.01-.07,0-.14-.06-.22-.09-.14-.22-.21-.38-.21l-52.24-.18" vector-effect="non-scaling-stroke"/>
      <path class="cls-5" d="m116.11,156.23s-.02,0-.03,0c-13.04.05-26.08,0-39.12-.16-4.05-.05-8.6-.58-13.65-1.61" vector-effect="non-scaling-stroke"/>
      <path class="cls-2" d="m63.31,154.47c.06.29.04.28-.08,0-.02-.06-.06-.09-.12-.11-25.74-6.2-46.14-26.49-51.24-52.68-.38-1.93-.78-3.91-1.2-5.92" vector-effect="non-scaling-stroke"/>
      <path class="cls-6" d="m10.62,84.09c1.52.03.72-1.8,1.22-2.75.07-.14.12-.28.15-.43.68-3.67,1.57-6.75,2.64-11.8,1.92-9.05,6.25-17.56,11.49-24.87,1.71-2.39,4.17-5.03,6.18-7.65,1.87-2.44,5.6-5.17,8.49-7.51,8.14-6.57,18.28-11.09,27.95-13.37.07-.02.9-.24,2.51-.67,1.8-.48,3.68-.5,5.38-.87,2.39-.52,4.55-.33,6.88-.62.14-.02.21-.1.21-.24l-.05-1.59" vector-effect="non-scaling-stroke"/>
      <path class="cls-7" d="m116.11,156.23l-.12,75.96" vector-effect="non-scaling-stroke"/>
      <path class="cls-7" d="m221.59,159.3v72.89" vector-effect="non-scaling-stroke"/>
      <path class="cls-7" d="m63.31,154.47v77.62" vector-effect="non-scaling-stroke"/>
      <path class="cls-7" d="m168.79,156.84v75.36" vector-effect="non-scaling-stroke"/>
      <path class="cls-8" d="m39.3,256.34c-.69,10.69,6.7,20.66,17.85,20.93,2.07.05,3.98-.04,5.71-.27,8.19-1.1,12.81-8.93,15.95-15.98.08-.18.22-.27.42-.27l11.02.06c.19,0,.32.09.38.27l5.71,15.69c.05.16.16.24.33.24l4.95.12c.2,0,.27-.09.2-.28l-13.23-36.39c-.08-.22-.24-.33-.47-.33l-4.98-.05c-.13,0-.23.1-.23.23,0,.02,0,.03,0,.05.21,1.01,1.42,1.94.97,2.99-2.14,5.1-4.25,10.22-6.33,15.34-3.03,7.47-7.75,14.99-16.8,15.38-14.41.62-17.66-14.66-14.01-25.28,3.63-10.58,16.82-10.95,22.43-2.32.24.38,2.67,6.26,3.39,5.72.09-.07.14-.18.11-.3-.68-3.81-1.04-7.66-1.08-11.53,0-.07-.05-.13-.11-.14-4.88-.9-10.98-2.15-15.37-1.76-9.35.83-16.22,8.72-16.8,17.89" vector-effect="non-scaling-stroke"/>
      <path class="cls-8" d="m146.41,260.92l5.52,15.9c.11.32.34.47.67.47l11.18-.04c.16,0,.24-.08.24-.24l-.03-31.17s.04-.09.08-.09c.02,0,.05,0,.06.03,9.42,9.79,17.95,20.31,25.59,31.56.34.5,1.01.65,2.01.43.13-.03.2-.11.21-.25.05-9.73.06-19.47.03-29.21,0-2.92.45-5.19,3.11-6.41,3.06-1.4,8.7-.96,8.93,3.58.16,3.13.2,6.73.13,10.79-.08,4.62.17,10.32-.13,15.48-.21,3.51-2.16,4.45-5.32,4.76-.19.02-.32.19-.3.38.02.16.14.28.3.3,2.74.29,6.3.06,8.24.07,7.72.06,15.45.04,23.18-.05.11,0,.21-.08.22-.19.05-.27-.05-.43-.31-.47-3.54-.58-5.59-2.57-6.15-5.97-.53-3.18-.72-6.37-.57-9.58,0-.15.09-.22.23-.22l9.27-.17c.18,0,.32.06.43.2l13.32,16.26c.11.13.24.19.4.2l11.94.09c.19,0,.35-.11.42-.29.14-.39,0-.62-.45-.7-4.84-.88-7.69-3.13-11.39-6.92-8.31-8.52-15.87-17.68-22.66-27.48-.93-1.34-1.37-2.25-3.35-1.63-.15.04-.22.14-.22.3,0,9.9,0,19.81,0,29.71,0,4.56-3.34,6.63-7.64,6.04-3.01-.41-4.51-2.23-4.5-5.46.03-7.72.06-15.45.08-23.17.01-4.68.75-6.04,5.52-6.68.21-.03.37-.23.34-.44-.01-.11-.07-.21-.17-.27-.29-.2-.67-.29-1.15-.27-6.47.26-12.71-.14-19.35.12-2.59.1-6.23.05-10.9-.15-.17,0-.32.13-.33.3,0,0,0,0,0,.01v.57c0,.15.12.28.28.28,0,0,0,0,0,0,4.75-.03,6.32,4.62,6.4,8.68.11,6.08.18,12.26.19,18.54,0,.12-.1.19-.29.22-.11.01-3.78-4.76-4.2-5.28-6.22-7.66-12.47-15.32-18.73-22.97-.08-.1-.21-.16-.34-.16l-12.08-.13c-.26,0-.48.21-.48.47,0,.15.07.29.18.38.04.03.54.29.58.29,2.71.48,5.22,1.5,7.51,3.06.13.09.2.23.2.38-.18,8.35-.39,16.7-.66,25.04-.06,1.8-.02,4.28-1.81,5.14-2.21,1.07-3.69-1.87-4.31-3.54-3.79-10.34-7.55-20.7-11.29-31.07-.04-.11-.15-.19-.26-.19h-5.2c-.18,0-.34.15-.34.33,0,.05.01.11.04.16.44.91,1.6,1.83,1.09,2.96-4.87,10.88-9.05,22.2-13.55,33.26-.05.12,0,.27.13.32.03.01.07.02.1.02l1.91-.06c.16,0,.26-.08.32-.22l5.93-15.94c.06-.16.18-.23.34-.22,3.79.23,7.57.24,11.36.04.11,0,.22.06.25.17" vector-effect="non-scaling-stroke"/>
      <path class="cls-8" d="m117.3,242.01c5.17.22,8.45,0,11.05,5.23.58,1.17,1.07,2.39,1.47,3.65.02.05.04.11.06.15.1.26.39.38.65.28.21-.08.34-.29.31-.52l-.93-10.37c0-.13-.08-.2-.22-.2h-31c-.15,0-.23.07-.24.22l-.78,10.74c-.01.18.12.33.3.35.14.01.26-.07.32-.19,1.55-3.47,2.43-7.21,6.36-8.67,1.73-.65,4.24-.59,6.31-.69.45-.02.67.19.66.64-.06,8.74-.08,17.58-.06,26.51,0,4.2-.32,7.37-5.31,7.19-.19,0-.35.14-.36.33,0,.07.02.14.05.2.35.56,15.02.3,16.6.09.09-.01.16-.1.15-.19,0-.07-.06-.13-.13-.14-3.19-.65-5.48-.65-5.73-4.67-.59-9.26,0-19.55-.28-29.2-.01-.4.3-.73.7-.74.02,0,.03,0,.05,0" vector-effect="non-scaling-stroke"/>
      <path class="cls-3" d="m63.18,355.28c15.16,16.62,33.36,31.2,52.51,42.94.11.07.17.04.3.04" vector-effect="non-scaling-stroke"/>
      <path class="cls-4" d="m115.99,398.26c.07.16.16.27.27.33,8.37,5.08,16.92,9.71,25.65,13.9.32.15.7.15,1.02,0,8.89-4.25,17.56-8.95,26-14.1" vector-effect="non-scaling-stroke"/>
      <path class="cls-3" d="m168.93,398.39c.59-.44,1.16-.83,1.71-1.18,18.65-11.58,35.47-25.35,50.45-41.33" vector-effect="non-scaling-stroke"/>
      <path class="cls-4" d="m221.09,355.89c19.3-20.59,33.74-44.13,43.31-70.63.06-.17,0-.25-.18-.25h-42.27s-.09.02-.12.06c-.04.04-.08.07-.12.09" vector-effect="non-scaling-stroke"/>
      <path class="cls-3" d="m221.71,285.16c-.12-.11-.24-.17-.36-.17-17.16.02-34.31.02-51.47.02-.15,0-.31.01-.46.04l-.51.1" vector-effect="non-scaling-stroke"/>
      <path class="cls-4" d="m168.91,285.16c-.23-.1-.39-.14-.48-.14h-52.05c-.01.1-.14.15-.38.14" vector-effect="non-scaling-stroke"/>
      <path class="cls-3" d="m116,285.16c-.28-.02-.48-.14-.81-.14h-51.87" vector-effect="non-scaling-stroke"/>
      <path class="cls-4" d="m63.32,285.02H20.82c-.18,0-.33.15-.33.33,0,.04,0,.07.02.11,9.42,26.1,23.64,49.37,42.66,69.82" vector-effect="non-scaling-stroke"/>
      <path class="cls-7" d="m63.32,285.02c-.03,22.57-.02,45.12.02,67.66,0,.86.26,1.6-.16,2.59" vector-effect="non-scaling-stroke"/>
      <path class="cls-7" d="m116,285.16v113.1" vector-effect="non-scaling-stroke"/>
      <path class="cls-7" d="m168.91,285.16c-.1.11-.14.22-.14.33.01,35.76.02,71.51.03,107.27,0,1.6.17,3.71.14,5.63" vector-effect="non-scaling-stroke"/>
      <path class="cls-7" d="m221.71,285.16c-.1.11-.14.22-.14.33.02,22.73.02,45.47.02,68.21,0,.43-.17,1.16-.5,2.19" vector-effect="non-scaling-stroke"/>
      <path class="cls-6" d="m187.93,89.38c5.35-6.05,5.1-15.08-1.36-20.32-.23-.19-.57-.15-.75.08-.01.02-.02.03-.04.05-.71,1.12-2.08,1.97-2.87,2.73-5.66,5.53-11.22,11.15-16.69,16.88-.12.13-.15.28-.07.45.25.54.66.9,1.23,1.09.14.04.24.14.3.27.23.56.49.97.79,1.21,6.36,5.1,14.32,3.37,19.45-2.44" vector-effect="non-scaling-stroke"/>
      <path class="cls-8" d="m186.26,70.52l-18.6,18.57c-.19.19-.18.37.02.54,13.57,11.2,30.29-6.57,18.63-19.11-.02-.02-.04-.02-.06,0,0,0,0,0,0,0" vector-effect="non-scaling-stroke"/>
      <path class="cls-8" d="m79.62,258.98l9.98.03c.25,0,.32-.11.23-.34-1.66-4.21-3.14-8.49-4.45-12.84-.26-.86-.55-.87-.87-.03l-5.02,13c-.03.07.01.15.08.18.01,0,.03,0,.05,0" vector-effect="non-scaling-stroke"/>
      <path class="cls-6" d="m164.99,243.8c2.35,2.6,4.56,4.86,6.89,7.81,1.71,2.16,3.79,4.24,5.39,6.21.92,1.12,1.84,2.24,2.78,3.35,1.4,1.66,3.03,4.35,5.07,6.2.13.12.24.11.35-.03.13-.18.19-.38.17-.62,0-.15-.06-.28-.16-.4-1.52-1.77-3-3.58-4.44-5.42-.81-1.03-1.96-2.08-2.82-3.28-2.95-4.16-6.61-7.96-10.01-11.75-.1-.12-.15-.27-.14-.43.08-.79-1.56-2.49-2.37-3.34-.1-.11-.23-.16-.37-.16l-2.95-.03c-.22,0-.4.17-.4.39,0,.12.05.23.14.31.73.63,1.56.97,2.51,1.03.14,0,.27.07.37.18" vector-effect="non-scaling-stroke"/>
      <path class="cls-6" d="m223.4,243.83c-.15,2.35,1.6,3.23,2.7,5.06.48.79.93,1.44,1.36,1.97,2.12,2.62,4.22,5.25,6.3,7.89,1.76,2.25,3.99,4.14,5.48,6.57,2,3.28,5.04,6.1,7.54,9,.87,1.01,1.99,1.32,3.06.53.19-.14.23-.42.09-.61-.03-.05-.08-.09-.13-.12-.51-.31-2.69-2.35-2.89-2.36-.16,0-.28-.08-.37-.21-1.04-1.62-1.96-2.21-2.87-3.39-.61-.79-1-1.27-1.18-1.42-3.61-3.23-6.24-6.01-7.9-8.35-2.76-3.87-5.81-7.11-8.28-11.03-.39-.62-.88-1.15-1.49-1.59-.12-.09-.19-.2-.22-.34-.12-.68-.42-1.25-.91-1.72-.07-.07-.19-.07-.26,0-.03.03-.05.07-.05.11" vector-effect="non-scaling-stroke"/>
      <path class="cls-8" d="m135.14,258.81c-.03.07,0,.16.08.19.02,0,.03.01.05.01l10.24.18c.08,0,.14-.06.15-.14,0-.02,0-.03,0-.05l-4.89-13.78c-.03-.07-.11-.11-.18-.09-.04.01-.07.04-.08.08l-5.36,13.6" vector-effect="non-scaling-stroke"/>
      <path class="cls-8" d="m231.5,259.13c.07,0,.13-.06.13-.13,0-.03,0-.06-.03-.08l-8.05-10.25c-.09-.12-.17-.11-.22.03-.39.97-.09,2.02-.08,2.79.02,2.44.01,4.9-.02,7.38,0,.15.07.23.22.23l8.05.03" vector-effect="non-scaling-stroke"/>
    </g>
    <path class="cls-12" d="m.26,78.25C3.69,36.35,38.03,3.15,79.6.22c2-.14,5.18-.21,9.55-.22C154.16,0,219.16,0,284.15,0c.15,0,.28.12.28.28h0c-.01,67.24-.39,134.55.06,201.85.05,7.82-.16,17.81-.65,29.97-.9,22.15-5.15,43.05-12.76,62.68-22.96,59.22-71.81,103.83-128.89,129.76-.14.06-.29.06-.43,0C63.94,389.39.03,316.87.01,227.65,0,181.04,0,134.42,0,87.8c0-4.27.09-7.45.26-9.55ZM83.66,11.72c-2.14.19-4.43.27-6.41.56C40.32,17.66,12.97,46.7,10.62,84.09c-.19,4.05-.18,7.94.05,11.67-.11,1.08-.16,3.56-.16,7.45,0,42.95,0,85.83,0,128.63,0,.21.17.38.37.38h0c16.97,0,33.9,0,50.79,0,.39,0,1.02-.17,1.63-.12.32-.02.61.13.96.13,17.24.01,34.48,0,51.72-.03h52.81s52.79,0,52.79,0l52.35.02c.16,0,.25-.08.27-.24.25-1.97.28-3.75.1-5.34.46-2.63.69-5.19.69-7.67,0-66.84-.32-133.7,0-200.52,0-2.17-.02-4.3-.09-6.38,0-.24-.21-.44-.45-.44-12.1-.09-23.9-.05-35.4.12-.58,0-1.99.09-4.21.26-31.67,3.42-57.12,25.79-78.01,47.84-9.61,10.15-19.18,20.33-28.7,30.56-9.06,9.73-19.6,20.04-31.6,26.93-6.99,4.01-14.32,5.56-21.99,4.65-20.76-2.46-37.47-19.3-38.71-40.39-1.62-27.34,19.41-50.72,46.82-51.97,14.84-.68,28.88,4.61,39.8,14.88,2.69,2.54,6.07,3.08,8.93.27,12.43-12.23,24.3-22.87,38.07-32.04.26-.17.33-.52.16-.78-.04-.05-.08-.1-.13-.14-.59-.43-1.52-.1-2.05-.1-6.95,0-13.9,0-20.84,0-21.01-.2-41.98-.2-62.92,0Zm-44.36,244.62c-.69,10.69,6.7,20.66,17.85,20.93,2.07.05,3.98-.04,5.71-.27,8.19-1.1,12.81-8.93,15.95-15.98.08-.18.22-.27.42-.27l11.02.06c.19,0,.32.09.38.27l5.71,15.69c.05.16.16.24.33.24l4.95.12c.2,0,.27-.09.2-.28l-13.23-36.39c-.08-.22-.24-.33-.47-.33l-4.98-.05c-.13,0-.23.1-.23.23,0,.02,0,.03,0,.05.21,1.01,1.42,1.94.97,2.99-2.14,5.1-4.25,10.22-6.33,15.34-3.03,7.47-7.75,14.99-16.8,15.38-14.41.62-17.66-14.66-14.01-25.28,3.63-10.58,16.82-10.95,22.43-2.32.24.38,2.67,6.26,3.39,5.72.09-.07.14-.18.11-.3-.68-3.81-1.04-7.66-1.08-11.53,0-.07-.05-.13-.11-.14-4.88-.9-10.98-2.15-15.37-1.76-9.35.83-16.22,8.72-16.8,17.89Zm107.11,4.58l5.52,15.9c.11.32.34.47.67.47l11.18-.04c.16,0,.24-.08.24-.24l-.03-31.17s.04-.09.08-.09c.02,0,.05,0,.06.03,9.42,9.79,17.95,20.31,25.59,31.56.34.5,1.01.65,2.01.43.13-.03.2-.11.21-.25.05-9.73.06-19.47.03-29.21,0-2.92.45-5.19,3.11-6.41,3.06-1.4,8.7-.96,8.93,3.58.16,3.13.2,6.73.13,10.79-.08,4.62.17,10.32-.13,15.48-.21,3.51-2.16,4.45-5.32,4.76-.19.02-.32.19-.3.38.02.16.14.28.3.3,2.74.29,6.3.06,8.24.07,7.72.06,15.45.04,23.18-.05.11,0,.21-.08.22-.19.05-.27-.05-.43-.31-.47-3.54-.58-5.59-2.57-6.15-5.97-.53-3.18-.72-6.37-.57-9.58,0-.15.09-.22.23-.22l9.27-.17c.18,0,.32.06.43.2l13.32,16.26c.11.13.24.19.4.2l11.94.09c.19,0,.35-.11.42-.29.14-.39,0-.62-.45-.7-4.84-.88-7.69-3.13-11.39-6.92-8.31-8.52-15.87-17.68-22.66-27.48-.93-1.34-1.37-2.25-3.35-1.63-.15.04-.22.14-.22.3,0,9.9,0,19.81,0,29.71,0,4.56-3.34,6.63-7.64,6.04-3.01-.41-4.51-2.23-4.5-5.46.03-7.72.06-15.45.08-23.17.01-4.68.75-6.04,5.52-6.68.21-.03.37-.23.34-.44-.01-.11-.07-.21-.17-.27-.29-.2-.67-.29-1.15-.27-6.47.26-12.71-.14-19.35.12-2.59.1-6.23.05-10.9-.15-.17,0-.32.13-.33.3,0,0,0,0,0,.01v.57c0,.15.12.28.28.28,0,0,0,0,0,0,4.75-.03,6.32,4.62,6.4,8.68.11,6.08.18,12.26.19,18.54,0,.12-.1.19-.29.22-.11.01-3.78-4.76-4.2-5.28-6.22-7.66-12.47-15.32-18.73-22.97-.08-.1-.21-.16-.34-.16l-12.08-.13c-.26,0-.48.21-.48.47,0,.15.07.29.18.38.04.03.54.29.58.29,2.71.48,5.22,1.5,7.51,3.06.13.09.2.23.2.38-.18,8.35-.39,16.7-.66,25.04-.06,1.8-.02,4.28-1.81,5.14-2.21,1.07-3.69-1.87-4.31-3.54-3.79-10.34-7.55-20.7-11.29-31.07-.04-.11-.15-.19-.26-.19h-5.2c-.18,0-.34.15-.34.33,0,.05.01.11.04.16.44.91,1.6,1.83,1.09,2.96-4.87,10.88-9.05,22.2-13.55,33.26-.05.12,0,.27.13.32.03.01.07.02.1.02l1.91-.06c.16,0,.26-.08.32-.22l5.93-15.94c.06-.16.18-.23.34-.22,3.79.23,7.57.24,11.36.04.11,0,.22.06.25.17Zm-29.11-18.91c5.17.22,8.45,0,11.05,5.23.58,1.17,1.07,2.39,1.47,3.65.02.05.04.11.06.15.1.26.39.38.65.28.21-.08.34-.29.31-.52l-.93-10.37c0-.13-.08-.2-.22-.2h-31c-.15,0-.23.07-.24.22l-.78,10.74c-.01.18.12.33.3.35.14.01.26-.07.32-.19,1.55-3.47,2.43-7.21,6.36-8.67,1.73-.65,4.24-.59,6.31-.69.45-.02.67.19.66.64-.06,8.74-.08,17.58-.06,26.51,0,4.2-.32,7.37-5.31,7.19-.19,0-.35.14-.36.33,0,.07.02.14.05.2.35.56,15.02.3,16.6.09.09-.01.16-.1.15-.19,0-.07-.06-.13-.13-.14-3.19-.65-5.48-.65-5.73-4.67-.59-9.26,0-19.55-.28-29.2-.01-.4.3-.73.7-.74.02,0,.03,0,.05,0Zm-54.13,113.27c15.16,16.62,33.36,31.2,52.51,42.94.11.07.17.04.3.04.07.16.16.27.27.33,8.37,5.08,16.92,9.71,25.65,13.9.32.15.7.15,1.02,0,8.89-4.25,17.56-8.95,26-14.1.59-.44,1.16-.83,1.71-1.18,18.65-11.58,35.47-25.35,50.45-41.33,19.3-20.59,33.74-44.13,43.31-70.63.06-.17,0-.25-.18-.25h-42.27s-.09.02-.12.06c-.04.04-.08.07-.12.09-.12-.11-.24-.17-.36-.17-17.16.02-34.31.02-51.47.02-.15,0-.31.01-.46.04l-.51.1c-.23-.1-.39-.14-.48-.14h-52.05c-.01.1-.14.15-.38.14-.28-.02-.48-.14-.81-.14H20.82c-.18,0-.33.15-.33.33,0,.04,0,.07.02.11,9.42,26.1,23.64,49.37,42.66,69.82Z"/>
    <path class="cls-9" d="m146.58,11.72l-1.48.47c-.17.06-.27.24-.21.42.02.07.07.14.14.18.9.56,1.89.82,2.98.77,3.47-.13,6.94-.2,10.41-.21,1.16,0,2.32-.16,3.6.18,3.61.95-1.33,3.79-2.14,4.25-1.72.97-2.93,2.41-4.68,3.59-1.89,1.27-3.23,3.07-4.98,4.34-3.1,2.24-6.11,5.34-8.56,7.42-3.74,3.17-7.52,6.62-11.33,10.36-1.35,1.33-3.61,2.28-5.35,1.03-3.06-2.21-6.1-5.23-8.79-7.07-8.02-5.49-16.97-8.64-26.83-9.46-.11,0-.2-.05-.28-.13l-.13-.13c-.11-.1-.23-.15-.37-.16-1.18-.03-2.36-.11-3.55-.23-1.97-.21-3.88.57-5.84.75-8.78.83-16.97,4.39-23.95,9.7-3.56,2.71-6.73,5.04-9.27,8.82-1.18,1.75-2.81,3.18-3.76,5.27-.05.11-.13.18-.23.22l-.24.09c-.13.05-.22.13-.28.26-.88,1.94-2.23,3.67-2.97,5.5-1.2,2.98-2.22,6.02-3.05,9.12-.76,2.86-.94,6.01-1.34,9.07-.48,3.6.22,8.52.83,11.3,2.14,9.83,7.04,17.76,14.33,24.59,7.81,7.32,17.08,10.88,27.67,11.98,3.44.36,8.07-.27,11.46-1.47,8.15-2.88,15.03-7.38,21.64-12.86,8.12-6.72,15.65-14.04,22.59-21.96,4.61-5.26,9.75-10.2,14.29-15.67,2.26-2.73,5.07-4.99,7.54-7.69,6.8-7.43,12.7-12.93,19.3-19.18,5.34-5.06,11.31-9.7,16.85-13.67,13.06-9.36,27.82-15.83,44.53-17.75.19-.02.29-.13.31-.32l.05-.89c0-.11-.04-.2-.14-.26l-.5-.28c2.22-.17,3.63-.25,4.21-.26,11.5-.17,23.3-.21,35.4-.12.25,0,.45.2.45.44.07,2.08.1,4.21.09,6.38-.32,66.83,0,133.69,0,200.52,0,2.48-.23,5.04-.69,7.67-.48-6.41-1.06-10.99-1.72-13.76-3.12-13.04-9.21-24.31-18.25-33.83-8.99-9.45-19.91-16.04-32.75-19.75-5.85-1.65-11.51-2.55-16.97-2.7-6.05-.17-17.88-.2-35.5-.08-.11,0-.18.06-.21.17-.02.11-.06.16-.12.16.01-.07,0-.14-.06-.22-.09-.14-.22-.21-.38-.21l-52.24-.18s-.02,0-.03,0c-13.04.05-26.08,0-39.12-.16-4.05-.05-8.6-.58-13.65-1.61.06.29.04.28-.08,0-.02-.06-.06-.09-.12-.11-25.74-6.2-46.14-26.49-51.24-52.68-.38-1.93-.78-3.91-1.2-5.92-.23-3.74-.25-7.63-.05-11.67,1.52.03.72-1.8,1.22-2.75.07-.14.12-.28.15-.43.68-3.67,1.57-6.75,2.64-11.8,1.92-9.05,6.25-17.56,11.49-24.87,1.71-2.39,4.17-5.03,6.18-7.65,1.87-2.44,5.6-5.17,8.49-7.51,8.14-6.57,18.28-11.09,27.95-13.37.07-.02.9-.24,2.51-.67,1.8-.48,3.68-.5,5.38-.87,2.39-.52,4.55-.33,6.88-.62.14-.02.21-.1.21-.24l-.05-1.59c20.94-.2,41.91-.21,62.92,0Zm41.35,77.66c5.35-6.05,5.1-15.08-1.36-20.32-.23-.19-.57-.15-.75.08-.01.02-.02.03-.04.05-.71,1.12-2.08,1.97-2.87,2.73-5.66,5.53-11.22,11.15-16.69,16.88-.12.13-.15.28-.07.45.25.54.66.9,1.23,1.09.14.04.24.14.3.27.23.56.49.97.79,1.21,6.36,5.1,14.32,3.37,19.45-2.44Z"/>
    <path class="cls-10" d="m234.85,12l.5.28c.1.06.14.14.14.26l-.05.89c-.01.19-.11.3-.31.32-16.71,1.92-31.46,8.4-44.53,17.75-5.54,3.97-11.51,8.61-16.85,13.67-6.6,6.25-12.49,11.75-19.3,19.18-2.48,2.7-5.28,4.96-7.54,7.69-4.53,5.47-9.68,10.41-14.29,15.67-6.94,7.92-14.47,15.23-22.59,21.96-6.62,5.48-13.49,9.98-21.64,12.86-3.4,1.2-8.02,1.83-11.46,1.47-10.6-1.09-19.86-4.66-27.67-11.98-7.29-6.83-12.19-14.75-14.33-24.59-.61-2.78-1.31-7.7-.83-11.3.41-3.06.58-6.21,1.34-9.07.83-3.1,1.84-6.14,3.05-9.12.74-1.83,2.08-3.55,2.97-5.5.06-.12.15-.21.28-.26l.24-.09c.11-.04.19-.11.23-.22.95-2.08,2.58-3.51,3.76-5.27,2.54-3.78,5.71-6.11,9.27-8.82,6.98-5.31,15.18-8.87,23.95-9.7,1.97-.19,3.87-.97,5.84-.75,1.18.13,2.36.21,3.55.23.14,0,.27.06.37.16l.13.13c.07.07.17.12.28.13,9.86.82,18.81,3.97,26.83,9.46,2.69,1.84,5.73,4.86,8.79,7.07,1.74,1.25,4,.3,5.35-1.03,3.81-3.74,7.59-7.2,11.33-10.36,2.46-2.08,5.46-5.18,8.56-7.42,1.76-1.27,3.09-3.07,4.98-4.34,1.75-1.18,2.96-2.62,4.68-3.59.81-.46,5.74-3.3,2.14-4.25-1.28-.34-2.44-.18-3.6-.18-3.47,0-6.94.08-10.41.21-1.09.04-2.08-.22-2.98-.77-.16-.1-.2-.31-.11-.46.04-.07.1-.11.18-.14l1.48-.47c6.94,0,13.89-.01,20.84,0,.54,0,1.46-.33,2.05.1.25.19.3.54.12.79-.04.05-.09.1-.14.13-13.77,9.17-25.63,19.81-38.07,32.04-2.86,2.81-6.23,2.26-8.93-.27-10.92-10.27-24.96-15.56-39.8-14.88-27.41,1.25-48.43,24.63-46.82,51.97,1.25,21.09,17.95,37.93,38.71,40.39,7.67.91,15-.64,21.99-4.65,12.01-6.89,22.54-17.2,31.6-26.93,9.52-10.23,19.09-20.41,28.7-30.56,20.89-22.05,46.33-44.42,78.01-47.84Z"/>
    <path class="cls-10" d="m83.66,11.72l.05,1.59c0,.15-.07.23-.21.24-2.32.29-4.48.1-6.88.62-1.7.37-3.58.39-5.38.87-1.61.43-2.45.65-2.51.67-9.67,2.28-19.81,6.8-27.95,13.37-2.89,2.34-6.62,5.07-8.49,7.51-2.01,2.61-4.47,5.26-6.18,7.65-5.23,7.31-9.57,15.82-11.49,24.87-1.07,5.05-1.95,8.12-2.64,11.8-.03.15-.08.29-.15.43-.51.95.3,2.79-1.22,2.75C12.97,46.7,40.32,17.66,77.24,12.28c1.98-.29,4.27-.37,6.41-.56Z"/>
    <path class="cls-10" d="m187.93,89.38c-5.13,5.81-13.09,7.54-19.45,2.44-.3-.24-.56-.65-.79-1.21-.06-.14-.16-.23-.3-.27-.58-.18-.99-.55-1.23-1.09-.08-.17-.05-.32.07-.45,5.47-5.72,11.03-11.35,16.69-16.88.79-.76,2.16-1.62,2.87-2.73.16-.25.49-.32.74-.16.02.01.03.02.05.04,6.46,5.23,6.71,14.27,1.36,20.32Zm-1.67-18.86l-18.6,18.57c-.19.19-.18.37.02.54,13.57,11.2,30.29-6.57,18.63-19.11-.02-.02-.04-.02-.06,0,0,0,0,0,0,0Z"/>
    <path class="cls-12" d="m186.26,70.52s.04-.02.06,0c0,0,0,0,0,0,11.66,12.54-5.06,30.31-18.63,19.11-.2-.17-.21-.35-.02-.54l18.6-18.57Z"/>
    <path class="cls-11" d="m10.67,95.76c.43,2.01.83,3.98,1.2,5.92,5.1,26.19,25.5,46.48,51.24,52.68.06.01.1.05.12.11.12.29.14.3.08,0v77.62c-.61-.04-1.24.12-1.63.12-16.9,0-33.83,0-50.79,0-.21,0-.37-.17-.37-.38h0c0-42.8,0-85.68,0-128.63,0-3.89.05-6.37.16-7.45Z"/>
    <path class="cls-13" d="m116.11,156.23l-.12,75.96c-17.24.03-34.48.04-51.72.03-.35,0-.65-.15-.96-.13v-77.62c5.05,1.02,9.6,1.56,13.65,1.61,13.04.16,26.08.21,39.12.16,0,0,.02,0,.03,0Z"/>
    <path class="cls-11" d="m168.79,156.84v75.36s-52.8,0-52.8,0l.12-75.96,52.24.18c.16,0,.29.07.38.21.05.08.07.16.06.22Z"/>
    <path class="cls-13" d="m221.59,159.3v72.89h-52.79s0-75.34,0-75.34c.06,0,.1-.06.12-.16.03-.11.1-.17.21-.17,17.62-.12,29.45-.1,35.5.08,5.46.16,11.11,1.06,16.97,2.7Z"/>
    <path class="cls-11" d="m274.31,226.63c.18,1.6.15,3.38-.1,5.34-.02.16-.11.24-.27.24l-52.35-.02v-72.89c12.84,3.71,23.76,10.29,32.75,19.75,9.05,9.51,15.13,20.79,18.25,33.83.66,2.76,1.23,7.35,1.72,13.76Z"/>
    <path class="cls-10" d="m57.15,277.27c-11.15-.28-18.54-10.24-17.85-20.93.59-9.17,7.45-17.06,16.8-17.89,4.39-.39,10.48.86,15.37,1.76.07.01.11.07.11.14.04,3.87.4,7.72,1.08,11.53.02.11-.02.23-.11.3-.72.54-3.14-5.34-3.39-5.72-5.61-8.63-18.8-8.26-22.43,2.32-3.64,10.62-.39,25.9,14.01,25.28,9.05-.39,13.77-7.91,16.8-15.38,2.08-5.13,4.19-10.24,6.33-15.34.44-1.06-.76-1.98-.97-2.99-.03-.12.05-.25.18-.27.02,0,.03,0,.05,0l4.98.05c.24,0,.39.11.47.33l13.23,36.39c.07.19,0,.29-.2.28l-4.95-.12c-.17,0-.28-.08-.33-.24l-5.71-15.69c-.06-.18-.19-.27-.38-.27l-11.02-.06c-.2,0-.34.09-.42.27-3.13,7.05-7.76,14.87-15.95,15.98-1.73.23-3.63.32-5.71.27Zm22.47-18.29l9.98.03c.25,0,.32-.11.23-.34-1.66-4.21-3.14-8.49-4.45-12.84-.26-.86-.55-.87-.87-.03l-5.02,13c-.03.07.01.15.08.18.01,0,.03,0,.05,0Z"/>
    <path class="cls-10" d="m146.41,260.92c-.04-.11-.14-.18-.25-.17-3.78.2-7.57.19-11.36-.04-.17,0-.28.07-.34.22l-5.93,15.94c-.05.15-.16.22-.32.22l-1.91.06c-.14,0-.25-.11-.25-.24,0-.03,0-.07.02-.1,4.5-11.06,8.68-22.39,13.55-33.26.51-1.13-.65-2.05-1.09-2.96-.08-.16-.02-.37.14-.45.05-.02.1-.04.16-.04h5.2c.12,0,.22.07.26.19,3.74,10.37,7.5,20.73,11.29,31.07.61,1.67,2.1,4.61,4.31,3.54,1.78-.86,1.75-3.34,1.81-5.14.26-8.35.48-16.69.66-25.04,0-.15-.07-.3-.2-.38-2.29-1.56-4.79-2.58-7.51-3.06-.03,0-.54-.26-.58-.29-.21-.16-.25-.46-.08-.67.09-.12.23-.19.38-.18l12.08.13c.13,0,.26.06.34.16,6.26,7.65,12.5,15.31,18.73,22.97.42.51,4.09,5.29,4.2,5.28.19-.03.29-.1.29-.22-.02-6.28-.08-12.46-.19-18.54-.08-4.06-1.65-8.72-6.4-8.68-.15,0-.28-.12-.28-.27,0,0,0,0,0,0v-.57c0-.17.14-.32.32-.32,0,0,0,0,.01,0,4.67.2,8.31.25,10.9.15,6.64-.26,12.88.14,19.35-.12.48-.02.86.07,1.15.27.18.12.22.36.1.54-.06.09-.16.15-.27.17-4.78.65-5.51,2-5.52,6.68-.02,7.72-.04,15.45-.08,23.17-.01,3.23,1.49,5.05,4.5,5.46,4.3.58,7.64-1.48,7.64-6.04,0-9.9.01-19.81,0-29.71,0-.15.07-.25.22-.3,1.99-.62,2.43.3,3.35,1.63,6.79,9.8,14.34,18.95,22.66,27.48,3.69,3.79,6.55,6.04,11.39,6.92.45.08.6.31.45.7-.07.18-.23.29-.42.29l-11.94-.09c-.16,0-.3-.07-.4-.2l-13.32-16.26c-.11-.14-.25-.2-.43-.2l-9.27.17c-.15,0-.22.08-.23.22-.15,3.21.04,6.41.57,9.58.57,3.4,2.62,5.39,6.15,5.97.26.04.36.2.31.47-.02.11-.11.19-.22.19-7.73.09-15.45.11-23.18.05-1.94-.01-5.5.21-8.24-.07-.19-.02-.32-.19-.3-.38.02-.16.14-.28.3-.3,3.16-.31,5.12-1.25,5.32-4.76.3-5.16.05-10.86.13-15.48.07-4.06.03-7.65-.13-10.79-.23-4.54-5.86-4.99-8.93-3.58-2.65,1.22-3.12,3.49-3.11,6.41.03,9.74.02,19.47-.03,29.21,0,.14-.07.22-.21.25-1,.21-1.67.07-2.01-.43-7.64-11.26-16.17-21.78-25.59-31.56-.03-.03-.09-.04-.12,0-.02.02-.03.04-.03.06l.03,31.17c0,.16-.08.24-.24.24l-11.18.04c-.34,0-.56-.16-.67-.47l-5.52-15.9Zm18.57-17.12c2.35,2.6,4.56,4.86,6.89,7.81,1.71,2.16,3.79,4.24,5.39,6.21.92,1.12,1.84,2.24,2.78,3.35,1.4,1.66,3.03,4.35,5.07,6.2.13.12.24.11.35-.03.13-.18.19-.38.17-.62,0-.15-.06-.28-.16-.4-1.52-1.77-3-3.58-4.44-5.42-.81-1.03-1.96-2.08-2.82-3.28-2.95-4.16-6.61-7.96-10.01-11.75-.1-.12-.15-.27-.14-.43.08-.79-1.56-2.49-2.37-3.34-.1-.11-.23-.16-.37-.16l-2.95-.03c-.22,0-.4.17-.4.39,0,.12.05.23.14.31.73.63,1.56.97,2.51,1.03.14,0,.27.07.37.18Zm58.41.03c-.15,2.35,1.6,3.23,2.7,5.06.48.79.93,1.44,1.36,1.97,2.12,2.62,4.22,5.25,6.3,7.89,1.76,2.25,3.99,4.14,5.48,6.57,2,3.28,5.04,6.1,7.54,9,.87,1.01,1.99,1.32,3.06.53.19-.14.23-.42.09-.61-.03-.05-.08-.09-.13-.12-.51-.31-2.69-2.35-2.89-2.36-.16,0-.28-.08-.37-.21-1.04-1.62-1.96-2.21-2.87-3.39-.61-.79-1-1.27-1.18-1.42-3.61-3.23-6.24-6.01-7.9-8.35-2.76-3.87-5.81-7.11-8.28-11.03-.39-.62-.88-1.15-1.49-1.59-.12-.09-.19-.2-.22-.34-.12-.68-.42-1.25-.91-1.72-.07-.07-.19-.07-.26,0-.03.03-.05.07-.05.11Zm-88.26,14.99c-.03.07,0,.16.08.19.02,0,.03.01.05.01l10.24.18c.08,0,.14-.06.15-.14,0-.02,0-.03,0-.05l-4.89-13.78c-.03-.07-.11-.11-.18-.09-.04.01-.07.04-.08.08l-5.36,13.6Zm96.37.32c.07,0,.13-.06.13-.13,0-.03,0-.06-.03-.08l-8.05-10.25c-.09-.12-.17-.11-.22.03-.39.97-.09,2.02-.08,2.79.02,2.44.01,4.9-.02,7.38,0,.15.07.23.22.23l8.05.03Z"/>
    <path class="cls-10" d="m128.36,247.24c-2.6-5.24-5.88-5.01-11.05-5.23-.4-.02-.73.29-.75.69,0,.02,0,.03,0,.05.29,9.65-.32,19.94.28,29.2.26,4.02,2.54,4.01,5.73,4.67.09.02.15.1.13.2-.01.07-.07.13-.15.14-1.58.21-16.25.47-16.6-.09-.1-.16-.05-.38.11-.48.06-.04.13-.05.2-.05,4.98.18,5.31-3,5.31-7.19-.02-8.94,0-17.78.06-26.51,0-.45-.22-.66-.66-.64-2.07.1-4.58.04-6.31.69-3.94,1.46-4.81,5.19-6.36,8.67-.07.16-.26.24-.42.17-.13-.06-.2-.19-.19-.32l.78-10.74c.01-.15.09-.22.24-.22h31c.14,0,.21.07.22.2l.93,10.37c.03.27-.17.52-.44.55-.22.02-.43-.1-.52-.31-.02-.05-.04-.1-.06-.15-.4-1.26-.88-2.47-1.47-3.65Z"/>
    <path class="cls-9" d="m164.62,243.62c-.95-.06-1.78-.4-2.51-1.03-.16-.14-.18-.39-.04-.56.08-.09.19-.14.3-.13l2.95.03c.15,0,.27.06.37.16.82.85,2.45,2.56,2.37,3.34-.02.16.04.31.14.43,3.41,3.79,7.07,7.6,10.01,11.75.86,1.2,2.01,2.25,2.82,3.28,1.44,1.84,2.92,3.64,4.44,5.42.1.11.15.25.16.4.02.24-.04.44-.17.62-.11.14-.22.15-.35.03-2.05-1.85-3.68-4.54-5.07-6.2-.94-1.11-1.86-2.23-2.78-3.35-1.6-1.96-3.68-4.04-5.39-6.21-2.33-2.95-4.54-5.21-6.89-7.81-.1-.1-.23-.17-.37-.18Z"/>
    <path class="cls-9" d="m226.1,248.88c-1.11-1.83-2.86-2.71-2.7-5.06,0-.1.1-.18.2-.17.04,0,.08.02.11.05.49.47.79,1.05.91,1.72.03.14.1.26.22.34.61.44,1.1.97,1.49,1.59,2.46,3.92,5.51,7.16,8.28,11.03,1.66,2.34,4.3,5.12,7.9,8.35.17.15.56.63,1.18,1.42.91,1.18,1.83,1.78,2.87,3.39.09.13.21.2.37.21.2,0,2.37,2.05,2.89,2.36.21.13.28.39.15.6-.03.05-.07.09-.11.13-1.08.8-2.19.48-3.06-.53-2.49-2.91-5.53-5.72-7.54-9-1.49-2.43-3.72-4.32-5.48-6.57-2.08-2.65-4.18-5.28-6.3-7.89-.43-.53-.88-1.19-1.36-1.97Z"/>
    <path class="cls-12" d="m89.6,259.01l-9.98-.03c-.08,0-.14-.06-.14-.14,0-.02,0-.03,0-.05l5.02-13c.32-.83.61-.82.87.03,1.31,4.35,2.79,8.63,4.45,12.84.09.23.02.34-.23.34Z"/>
    <path class="cls-12" d="m135.14,258.81l5.36-13.6c.03-.07.11-.11.19-.08.04.02.07.05.08.08l4.89,13.78c.03.07-.01.16-.09.18-.02,0-.03,0-.05,0l-10.24-.18c-.08,0-.14-.06-.14-.14,0-.02,0-.04,0-.05Z"/>
    <path class="cls-12" d="m231.5,259.13l-8.05-.03c-.15,0-.23-.08-.22-.23.04-2.48.05-4.94.02-7.38,0-.77-.31-1.82.08-2.79.05-.14.13-.15.22-.03l8.05,10.25c.04.06.03.14-.03.19-.02.02-.05.03-.08.03Z"/>
    <path class="cls-11" d="m63.32,285.02c-.03,22.57-.02,45.12.02,67.66,0,.86.26,1.6-.16,2.59-19.02-20.45-33.24-43.73-42.66-69.82-.06-.17.03-.36.2-.42.04-.01.07-.02.11-.02h42.5Z"/>
    <path class="cls-13" d="m63.32,285.02h51.87c.32,0,.53.11.81.14v113.1c-.13,0-.19.02-.31-.04-19.16-11.74-37.35-26.32-52.51-42.94.42-1,.16-1.73.16-2.59-.04-22.54-.04-45.09-.02-67.66Z"/>
    <path class="cls-11" d="m168.91,285.16c-.1.11-.14.22-.14.33.01,35.76.02,71.51.03,107.27,0,1.6.17,3.71.14,5.63-8.44,5.15-17.11,9.85-26,14.1-.32.15-.69.15-1.02,0-8.73-4.19-17.29-8.82-25.65-13.9-.11-.07-.2-.18-.27-.33v-113.1c.25,0,.37-.04.39-.14h52.05c.09,0,.25.05.48.14Z"/>
    <path class="cls-13" d="m221.71,285.16c-.1.11-.14.22-.14.33.02,22.73.02,45.47.02,68.21,0,.43-.17,1.16-.5,2.19-14.98,15.97-31.8,29.75-50.45,41.33-.55.34-1.12.73-1.71,1.18.03-1.92-.14-4.03-.14-5.63,0-35.76-.02-71.51-.03-107.27,0-.11.05-.23.14-.33l.51-.1c.15-.03.31-.04.46-.04,17.16,0,34.31,0,51.47-.02.12,0,.24.06.36.17Z"/>
    <path class="cls-11" d="m221.09,355.89c.33-1.03.49-1.76.5-2.19,0-22.74,0-45.47-.02-68.21,0-.11.05-.23.14-.33.04-.02.09-.04.12-.09.04-.04.08-.06.12-.06h42.27c.18,0,.24.08.18.25-9.58,26.5-24.01,50.04-43.31,70.63Z"/>
  </g>
</svg>