<?xml version="1.0" encoding="UTF-8"?>
<svg id="Layer_2" data-name="Layer 2" xmlns="http://www.w3.org/2000/svg" viewBox="0 0 282.7 339.79">
  <defs>
    <style>
      .cls-1, .cls-2, .cls-3, .cls-4, .cls-5 {
        stroke-width: 0px;
      }

      .cls-2 {
        fill: #956111;
      }

      .cls-3 {
        fill: #e4190e;
      }

      .cls-4 {
        fill: #b3a63e;
      }

      .cls-5 {
        fill: #fff;
      }
    </style>
  </defs>
  <g id="Layer_1-2" data-name="Layer 1">
    <g>
      <path class="cls-1" d="m141.35,56.87l7.86,7.87,78.14,78.2,18.04-17.91,1.48-1.47-1.47-1.47-50.98-51.17c1.46-4.95,2.24-10.19,2.24-15.61,0-15.27-6.19-29.1-16.2-39.11C170.45,6.19,156.62,0,141.35,0s-29.1,6.19-39.11,16.2c-10.01,10.01-16.2,23.84-16.2,39.11,0,5.42.78,10.66,2.24,15.61l-50.98,51.17-1.47,1.47,1.48,1.47,18.04,17.91,78.14-78.2,7.86-7.87Z"/>
      <path class="cls-5" d="m243.93,123.55l-50.22-50.4c-2.76,8.09-7.34,15.34-13.26,21.26-.26.27-.53.53-.8.79l46.23,46.27,18.05-17.92Z"/>
      <path class="cls-5" d="m88.99,73.16l-50.22,50.4,18.05,17.92,46.23-46.27c-.27-.26-.54-.52-.81-.79-5.92-5.92-10.5-13.17-13.26-21.26Z"/>
      <polygon class="cls-4" points="133.49 331.92 7.81 206.15 0 198.33 7.81 190.51 133.49 64.74 141.35 56.87 149.21 64.74 274.89 190.51 282.7 198.33 274.89 206.15 149.21 331.92 141.35 339.79 133.49 331.92"/>
      <path class="cls-2" d="m139.36,32.32c-3.14,4.66-4.74,9.13-4.55,13.38.16,3.59,1.61,7.12,4.52,10.56,5.04-5.44,9.66-7.64,14.29-7.06,4.56.57,8.8,3.86,13.21,9.41,1.85-1.32,3.7-2.35,5.53-3.1,3.62-1.48,7.12-1.83,10.37-1.05,3.28.79,6.22,2.68,8.67,5.68.26.31.51.64.75.97.22-1.91.33-3.85.33-5.81,0-3.93-.44-7.76-1.28-11.44-7.2-7.03-15.03-11.53-22.93-13.73-9.9-2.75-19.92-1.88-28.91,2.17Z"/>
      <path class="cls-2" d="m109.81,61.89c-3.55-6.71-5.33-14.18-5.35-22.82-.01-4.21.49-8.99,1.43-13.98.52-2.75,1.17-5.57,1.93-8.39-10.79,9.38-17.61,23.2-17.61,38.61,0,14.52,6.06,27.63,15.78,36.94l15.64-15.65c-5.06-4.53-9-9.37-11.83-14.71Z"/>
      <path class="cls-2" d="m190.85,68.18c-.88-2.01-1.89-3.71-3.03-5.1-1.8-2.2-3.89-3.58-6.15-4.12-2.29-.55-4.85-.28-7.55.83-1.79.73-3.65,1.84-5.56,3.31.3,3.93.02,7.62-.72,11.11-.51,2.43-1.25,4.76-2.18,7l11.02,11.03c6.75-6.46,11.74-14.75,14.16-24.07Z"/>
      <path class="cls-2" d="m162.1,77.64c.5-1.42.91-2.87,1.23-4.36.72-3.41.94-7.05.52-10.99-3.88-5.08-7.36-8.06-10.77-8.49-2.95-.37-6.12,1.21-9.79,5.01l5.93,5.94,12.89,12.9Z"/>
      <path class="cls-2" d="m137.32,60.9c-4.61-4.76-6.89-9.77-7.12-15.01-.21-4.89,1.38-9.88,4.55-14.94-3.41-4.84-5.09-9.56-4.99-14.51.07-3.75,1.17-7.57,3.3-11.6-6.9,1.12-13.34,3.63-19.02,7.23-1.53,4.63-2.76,9.35-3.61,13.87-.89,4.73-1.37,9.22-1.36,13.13.03,7.85,1.63,14.62,4.83,20.67,2.6,4.91,6.26,9.38,11,13.59l8.59-8.59,3.83-3.84Z"/>
      <path class="cls-2" d="m169.5,25.69c6.46,1.8,12.87,4.98,18.94,9.66-7.78-18.33-25.94-31.19-47.1-31.19-.87,0-1.73.02-2.59.06-2.86,4.47-4.31,8.48-4.39,12.28-.07,3.75,1.21,7.43,3.81,11.28,9.78-4.22,20.62-5.07,31.31-2.1Z"/>
      <rect class="cls-1" x="52.45" y="109.43" width="177.8" height="177.8" transform="translate(-98.82 157.95) rotate(-44.98)"/>
      <polygon class="cls-4" points="139.72 286.68 97.66 244.68 96.98 244.01 96.98 243.05 97.05 130.33 97.05 128.02 99.36 128.02 183.34 128.02 185.65 128.02 185.65 130.33 185.72 243.05 185.72 244.01 185.04 244.68 142.98 286.68 141.35 288.31 139.72 286.68"/>
      <polygon class="cls-3" points="145.78 280.62 155.85 270.56 155.85 159.64 145.78 169.73 145.78 280.62"/>
      <polygon class="cls-3" points="164.72 150.75 164.72 261.71 174.79 251.66 174.79 140.65 164.72 150.75"/>
      <polygon class="cls-3" points="126.85 270.56 136.91 280.62 136.91 178.62 126.85 188.72 126.85 270.56"/>
      <polygon class="cls-3" points="107.91 251.66 117.98 261.71 117.98 197.61 107.91 207.7 107.91 251.66"/>
      <polygon class="cls-5" points="99.31 213.06 181.82 130.33 99.36 130.33 99.31 213.06"/>
      <polygon class="cls-5" points="155.85 270.56 164.72 261.71 164.72 150.75 155.85 159.64 155.85 270.56"/>
      <polygon class="cls-5" points="183.34 132.08 174.79 140.65 174.79 251.66 183.41 243.05 183.34 132.08"/>
      <polygon class="cls-5" points="117.98 261.71 126.85 270.56 126.85 188.72 117.98 197.61 117.98 261.71"/>
      <polygon class="cls-5" points="136.91 280.62 141.35 285.04 145.78 280.62 145.78 169.73 136.91 178.62 136.91 280.62"/>
      <polygon class="cls-5" points="99.29 243.05 107.91 251.66 107.91 207.7 99.3 216.33 99.29 243.05"/>
      <path class="cls-4" d="m140.59,139.6c-2.25-2.08-6.33-3.08-12.99,4.8l3.39,3.4-10.08,10.05-7.51-7.54,6.61-6.59-2.67-2.68-6.61,6.59-2.29-2.3-1.82,1.82,2.43,2.44c-2.22,3.79-4.13,8.44-5.25,12.33,2.21-3.33,5.17-7.19,7.78-9.79l7.51,7.54-13.49,13.45,1.53,1.53,13.49-13.45,12.19,12.23,1.82-1.82-12.19-12.23,10.08-10.05,3.35,3.36c8.78-7.49,6.42-11.52,4.72-13.09Z"/>
      <path class="cls-4" d="m229.59,190.05c-.79-2.31-1.93-4.27-3.43-5.86-1.49-1.6-3.3-2.72-5.4-3.34-1.57-.46-3.84-.69-6.82-.69h-13.23v36.23h13.62c2.68,0,4.82-.25,6.41-.77,2.14-.69,3.83-1.65,5.08-2.89,1.67-1.63,2.95-3.76,3.84-6.39.73-2.16,1.1-4.73,1.1-7.71,0-3.4-.39-6.25-1.17-8.57Zm-7.05,14.88c-.49,1.62-1.12,2.79-1.89,3.5-.78.71-1.75,1.21-2.92,1.5-.9.24-2.36.35-4.38.35h-5.4v-23.99h3.25c2.96,0,4.94.11,5.95.35,1.35.3,2.47.86,3.36,1.7.88.84,1.56,2.01,2.05,3.51.48,1.5.73,3.64.73,6.45s-.25,5.02-.73,6.64Z"/>
      <path class="cls-4" d="m73.17,208.89c-1.39,1.24-3.04,1.86-4.97,1.86-2.6,0-4.73-.97-6.35-2.92-1.64-1.94-2.45-5.2-2.45-9.79,0-4.32.83-7.44,2.48-9.36,1.65-1.93,3.82-2.89,6.47-2.89,1.92,0,3.56.54,4.9,1.63,1.35,1.09,2.24,2.57,2.65,4.46l7.17-1.73c-.82-2.9-2.04-5.13-3.67-6.67-2.74-2.62-6.3-3.93-10.69-3.93-5.03,0-9.08,1.67-12.16,5-3.08,3.34-4.63,8.02-4.63,14.05,0,5.7,1.54,10.19,4.6,13.48,3.06,3.28,6.98,4.93,11.74,4.93,3.85,0,7.03-.96,9.53-2.88,2.5-1.92,4.29-4.86,5.37-8.82l-7.01-2.24c-.61,2.65-1.6,4.6-2.99,5.83Z"/>
      <rect class="cls-1" x="70.11" y="97.57" width="4.07" height="20.39" transform="translate(-55.07 82.58) rotate(-45)"/>
      <polygon class="cls-1" points="83.82 105.6 79.89 101.68 87.06 94.51 84.63 92.09 77.47 99.25 74.27 96.06 81.97 88.36 79.53 85.92 68.95 96.5 83.37 110.91 94.22 100.06 91.79 97.63 83.82 105.6"/>
      <polygon class="cls-1" points="56.66 109.01 63.93 121.4 51.51 114.16 47.2 118.47 61.62 132.89 64.29 130.21 52.94 118.86 67.12 127.39 69.89 124.61 61.37 110.43 72.72 121.78 75.4 119.1 60.98 104.69 56.66 109.01"/>
      <path class="cls-1" d="m232.74,117.94c-.12-1.7-1.07-3.44-2.87-5.23-1.1-1.1-2.2-1.87-3.31-2.31-1.11-.44-2.19-.55-3.23-.33-1.05.23-1.94.7-2.67,1.43-1.13,1.13-1.66,2.54-1.57,4.2.06,1.18.67,2.74,1.83,4.67.9,1.5,1.47,2.48,1.68,2.94.32.67.46,1.22.42,1.66-.04.44-.22.82-.56,1.16-.53.53-1.22.75-2.09.67-.87-.07-1.77-.58-2.69-1.5-.88-.88-1.35-1.8-1.43-2.75-.07-.96.28-2,1.06-3.12l-3.09-2.53c-1.42,1.79-2.06,3.59-1.93,5.4.13,1.81,1.1,3.61,2.91,5.42,1.24,1.24,2.45,2.11,3.63,2.59,1.18.48,2.36.59,3.53.33,1.17-.26,2.17-.8,2.99-1.62.9-.91,1.48-1.86,1.71-2.85.23-1,.19-2.01-.12-3.04-.32-1.03-1.01-2.41-2.08-4.15-1.07-1.73-1.64-2.94-1.69-3.61-.04-.53.1-.96.44-1.3.37-.37.82-.51,1.35-.43.82.13,1.65.61,2.49,1.45.81.81,1.26,1.58,1.34,2.31.08.73-.18,1.52-.79,2.38l3.01,2.76c1.27-1.37,1.85-2.89,1.73-4.59Z"/>
      <path class="cls-1" d="m197.15,96.68c1.44,1.07,2.82,1.58,4.15,1.51,1.33-.07,2.54-.65,3.61-1.72.85-.85,1.39-1.81,1.64-2.88.24-1.07.14-2.09-.29-3.04-.44-.95-1.41-2.19-2.94-3.71l-6.08-6.08-14.34,14.34,2.89,2.89,5.99-5.99.58.58c.67.67,1.09,1.2,1.29,1.61.2.42.29.9.27,1.47-.02.56-.21,1.77-.59,3.63l-1.04,5.21,3.45,3.45,1.05-4.55c.43-1.8.66-3.12.69-3.97.03-.84-.08-1.76-.34-2.75Zm-.95-4.84l-2.13-2.13,3.64-3.64,2.25,2.25c1.17,1.17,1.86,1.89,2.06,2.15.39.55.56,1.1.52,1.65-.04.55-.3,1.07-.78,1.55-.43.43-.89.69-1.37.78-.48.09-.96.02-1.42-.2-.46-.23-1.38-1.04-2.77-2.42Z"/>
      <polygon class="cls-1" points="206.51 105.82 213.68 113 216.09 110.58 208.92 103.41 212.1 100.23 219.81 107.94 222.24 105.51 211.64 94.92 197.3 109.26 208.17 120.13 210.58 117.71 202.6 109.73 206.51 105.82"/>
    </g>
  </g>
</svg>