<?xml version="1.0" encoding="UTF-8"?>
<svg id="Layer_2" data-name="Layer 2" xmlns="http://www.w3.org/2000/svg" viewBox="0 0 188.23 270.26">
  <defs>
    <style>
      .cls-1 {
        fill: #f7fafb;
      }

      .cls-1, .cls-2, .cls-3, .cls-4, .cls-5, .cls-6, .cls-7, .cls-8, .cls-9, .cls-10, .cls-11, .cls-12, .cls-13, .cls-14, .cls-15, .cls-16, .cls-17, .cls-18, .cls-19, .cls-20, .cls-21, .cls-22, .cls-23, .cls-24, .cls-25, .cls-26, .cls-27, .cls-28, .cls-29, .cls-30, .cls-31, .cls-32, .cls-33, .cls-34, .cls-35, .cls-36, .cls-37, .cls-38, .cls-39, .cls-40, .cls-41, .cls-42, .cls-43, .cls-44, .cls-45, .cls-46, .cls-47, .cls-48, .cls-49, .cls-50, .cls-51, .cls-52, .cls-53, .cls-54, .cls-55, .cls-56, .cls-57, .cls-58, .cls-59, .cls-60, .cls-61, .cls-62, .cls-63, .cls-64, .cls-65, .cls-66, .cls-67, .cls-68, .cls-69, .cls-70, .cls-71, .cls-72, .cls-73, .cls-74, .cls-75, .cls-76, .cls-77, .cls-78, .cls-79, .cls-80, .cls-81, .cls-82, .cls-83, .cls-84, .cls-85, .cls-86, .cls-87, .cls-88, .cls-89, .cls-90, .cls-91, .cls-92, .cls-93, .cls-94, .cls-95, .cls-96, .cls-97, .cls-98, .cls-99, .cls-100, .cls-101, .cls-102, .cls-103, .cls-104, .cls-105, .cls-106, .cls-107, .cls-108, .cls-109, .cls-110, .cls-111, .cls-112, .cls-113, .cls-114, .cls-115, .cls-116, .cls-117, .cls-118, .cls-119, .cls-120, .cls-121, .cls-122, .cls-123, .cls-124, .cls-125, .cls-126, .cls-127, .cls-128, .cls-129, .cls-130, .cls-131, .cls-132, .cls-133, .cls-134, .cls-135, .cls-136, .cls-137, .cls-138, .cls-139, .cls-140, .cls-141, .cls-142, .cls-143, .cls-144, .cls-145, .cls-146, .cls-147, .cls-148, .cls-149, .cls-150, .cls-151, .cls-152, .cls-153, .cls-154, .cls-155, .cls-156, .cls-157, .cls-158, .cls-159, .cls-160, .cls-161, .cls-162, .cls-163 {
        stroke-width: 0px;
      }

      .cls-2 {
        fill: #f7e004;
      }

      .cls-3 {
        fill: #f6f9f9;
      }

      .cls-4 {
        fill: #f8e104;
      }

      .cls-5 {
        fill: #fad505;
      }

      .cls-6 {
        fill: #4c321f;
      }

      .cls-7 {
        fill: #4d2b16;
      }

      .cls-8 {
        fill: #4d2b15;
      }

      .cls-9 {
        fill: #4d341d;
      }

      .cls-10 {
        fill: #4a2917;
      }

      .cls-11 {
        fill: #4a331a;
      }

      .cls-12 {
        fill: #613a15;
      }

      .cls-13 {
        fill: #623a16;
      }

      .cls-14 {
        fill: #5f361b;
      }

      .cls-15 {
        fill: #794d26;
      }

      .cls-16 {
        fill: #794e26;
      }

      .cls-17 {
        fill: #4e430d;
      }

      .cls-18 {
        fill: #4e2f17;
      }

      .cls-19 {
        fill: #784d26;
      }

      .cls-20 {
        fill: #3076b7;
      }

      .cls-21 {
        fill: #282311;
      }

      .cls-22 {
        fill: #271107;
      }

      .cls-23 {
        fill: #7b542d;
      }

      .cls-24 {
        fill: #52321a;
      }

      .cls-25 {
        fill: #3b1210;
      }

      .cls-26 {
        fill: #2d1e10;
      }

      .cls-27 {
        fill: #351b13;
      }

      .cls-28 {
        fill: #2c1b10;
      }

      .cls-29 {
        fill: #573614;
      }

      .cls-30 {
        fill: #2d1c12;
      }

      .cls-31 {
        fill: #2b220b;
      }

      .cls-32 {
        fill: #593116;
      }

      .cls-33 {
        fill: #2771b4;
      }

      .cls-34 {
        fill: #2770b7;
      }

      .cls-35 {
        fill: #5d3a19;
      }

      .cls-36 {
        fill: #29180f;
      }

      .cls-37 {
        fill: #704822;
      }

      .cls-38 {
        fill: #6d4520;
      }

      .cls-39 {
        fill: #544d08;
      }

      .cls-40 {
        fill: #a27d56;
      }

      .cls-41 {
        fill: #6f4723;
      }

      .cls-42 {
        fill: #302215;
      }

      .cls-43 {
        fill: #2e75ba;
      }

      .cls-44 {
        fill: #2e74b6;
      }

      .cls-45 {
        fill: #32280b;
      }

      .cls-46 {
        fill: #383204;
      }

      .cls-47 {
        fill: #3c2514;
      }

      .cls-48 {
        fill: #3b3310;
      }

      .cls-49 {
        fill: #3a2217;
      }

      .cls-50 {
        fill: #3d2d16;
      }

      .cls-51 {
        fill: #2e1e11;
      }

      .cls-52 {
        fill: #351c17;
      }

      .cls-53 {
        fill: #5b3518;
      }

      .cls-54 {
        fill: #387bb9;
      }

      .cls-55 {
        fill: #573217;
      }

      .cls-56 {
        fill: #2d74b5;
      }

      .cls-57 {
        fill: #1d110b;
      }

      .cls-58 {
        fill: #1d100b;
      }

      .cls-59 {
        fill: #1b150f;
      }

      .cls-60 {
        fill: #0a0707;
      }

      .cls-61 {
        fill: #0a0b0d;
      }

      .cls-62 {
        fill: #1a100e;
      }

      .cls-63 {
        fill: #0e060a;
      }

      .cls-64 {
        fill: #0e0b0a;
      }

      .cls-65 {
        fill: #3f2419;
      }

      .cls-66 {
        fill: #41240f;
      }

      .cls-67 {
        fill: #362017;
      }

      .cls-68 {
        fill: #110d06;
      }

      .cls-69 {
        fill: #1c120d;
      }

      .cls-70 {
        fill: #0f0705;
      }

      .cls-71 {
        fill: #090707;
      }

      .cls-72 {
        fill: #402619;
      }

      .cls-73 {
        fill: #432814;
      }

      .cls-74 {
        fill: #432815;
      }

      .cls-75 {
        fill: #432c16;
      }

      .cls-76 {
        fill: #0d0807;
      }

      .cls-77 {
        fill: #080707;
      }

      .cls-78 {
        fill: #422a12;
      }

      .cls-79 {
        fill: #422619;
      }

      .cls-80 {
        fill: #0b0808;
      }

      .cls-81 {
        fill: #0c0907;
      }

      .cls-82 {
        fill: #23140d;
      }

      .cls-83 {
        fill: #1f6cb2;
      }

      .cls-84 {
        fill: #206fb2;
      }

      .cls-85 {
        fill: #206eb3;
      }

      .cls-86 {
        fill: #2271b8;
      }

      .cls-87 {
        fill: #201609;
      }

      .cls-88 {
        fill: #2371b4;
      }

      .cls-89 {
        fill: #226fb5;
      }

      .cls-90 {
        fill: #22110c;
      }

      .cls-91 {
        fill: #216eb2;
      }

      .cls-92 {
        fill: #17150d;
      }

      .cls-93 {
        fill: #120906;
      }

      .cls-94 {
        fill: #120c09;
      }

      .cls-95 {
        fill: #190f0b;
      }

      .cls-96 {
        fill: #190e07;
      }

      .cls-97 {
        fill: #241c12;
      }

      .cls-98 {
        fill: #251824;
      }

      .cls-99 {
        fill: #260d09;
      }

      .cls-100 {
        fill: #150f08;
      }

      .cls-101 {
        fill: #140806;
      }

      .cls-102 {
        fill: #140b07;
      }

      .cls-103 {
        fill: #2472b4;
      }

      .cls-104 {
        fill: #2472b2;
      }

      .cls-105 {
        fill: #e2001b;
      }

      .cls-106 {
        fill: #d1bba5;
      }

      .cls-107 {
        fill: #d1b9a6;
      }

      .cls-108 {
        fill: #e2011b;
      }

      .cls-109 {
        fill: #c7b098;
      }

      .cls-110 {
        fill: #c7ae93;
      }

      .cls-111 {
        fill: #d3bca3;
      }

      .cls-112 {
        fill: #e1021a;
      }

      .cls-113 {
        fill: #e00018;
      }

      .cls-114 {
        fill: #d6c3ab;
      }

      .cls-115 {
        fill: #bca087;
      }

      .cls-116 {
        fill: #aec5df;
      }

      .cls-117 {
        fill: #a8845e;
      }

      .cls-118 {
        fill: #3177bd;
      }

      .cls-119 {
        fill: #3176b7;
      }

      .cls-120 {
        fill: #8b613b;
      }

      .cls-121 {
        fill: #b9977c;
      }

      .cls-122 {
        fill: #8c623f;
      }

      .cls-123 {
        fill: #8d643c;
      }

      .cls-124 {
        fill: #926942;
      }

      .cls-125 {
        fill: #91653e;
      }

      .cls-126 {
        fill: #b69a7e;
      }

      .cls-127 {
        fill: #2f75b6;
      }

      .cls-128 {
        fill: #ba9d80;
      }

      .cls-129 {
        fill: #331d0c;
      }

      .cls-130 {
        fill: #331715;
      }

      .cls-131 {
        fill: #342b09;
      }

      .cls-132 {
        fill: #311f11;
      }

      .cls-133 {
        fill: #6c4421;
      }

      .cls-134 {
        fill: #6c4d2d;
      }

      .cls-135 {
        fill: #98734e;
      }

      .cls-136 {
        fill: #a07c5d;
      }

      .cls-137 {
        fill: #fde506;
      }

      .cls-138 {
        fill: #fde708;
      }

      .cls-139 {
        fill: #7e5632;
      }

      .cls-140 {
        fill: #744b25;
      }

      .cls-141 {
        fill: #744c1e;
      }

      .cls-142 {
        fill: #66411b;
      }

      .cls-143 {
        fill: #66391f;
      }

      .cls-144 {
        fill: #734923;
      }

      .cls-145 {
        fill: #734b20;
      }

      .cls-146 {
        fill: #f1f5f7;
      }

      .cls-147 {
        fill: #fee400;
      }

      .cls-148 {
        fill: #e8001c;
      }

      .cls-149 {
        fill: #e8011c;
      }

      .cls-150 {
        fill: #fce803;
      }

      .cls-151 {
        fill: #feea02;
      }

      .cls-152 {
        fill: #fadb04;
      }

      .cls-153 {
        fill: #eaf1f5;
      }

      .cls-154 {
        fill: #f1a00e;
      }

      .cls-155 {
        fill: #f5f8f9;
      }

      .cls-156 {
        fill: #f5f8f8;
      }

      .cls-157 {
        fill: #f4f7f9;
      }

      .cls-158 {
        fill: #030405;
      }

      .cls-159 {
        fill: #040305;
      }

      .cls-160 {
        fill: #010102;
      }

      .cls-161 {
        fill: #060709;
      }

      .cls-162 {
        fill: #693a1d;
      }

      .cls-163 {
        fill: #020002;
      }
    </style>
  </defs>
  <g id="Layer_1-2" data-name="Layer 1">
    <g>
      <path class="cls-159" d="m128.18,17.01c14.21,2.19,28.48,2.13,42.76,1.04,6.38-.49,12.71-1.39,16.14-7.93,1.73.68,1.01,2.05,1.01,3.04.04,67.84.03,135.67.05,203.51,0,2.37-.06,4.65-2.07,6.33-1.87.05-1.91-1.38-2.16-2.64.99-15.97.37-31.96.44-47.94.11-25.98.05-51.96,0-77.94,0-2.44.51-5.04-1.34-7.15-4.99-1.98-10.18-.41-15.25-.89-.58.02-1.17.01-1.75,0-.88,0-1.77,0-2.65,0-5.97-.02-11.94-.01-17.91.01-.6.01-1.21.01-1.81,0-5.76-.05-11.51-.03-17.27,0-.61.01-1.23.01-1.84,0-6.81-.05-13.61-.01-20.41,0-6.17-.03-12.35-.02-18.52,0-.61.02-1.23.02-1.84.03-6.72.12-13.44.14-20.16,0-.61,0-1.22-.01-1.82-.02-5.76-.06-11.52-.03-17.28,0-.61.02-1.22.02-1.82.03-6.7.12-13.4.15-20.1-.01-.9-.01-1.81-.02-2.71,0-5.38.05-10.76.26-16.14-.15-1.81-.52-3.86-.91-1.88-3.48.53-.29,1.1-.42,1.7-.42,12.59.02,25.18.14,37.78-.08,8.42-.14,16.91-.36,25.31.12,12.82.73,25.5-1.51,38.28-.99.6-.03,1.18.08,1.74.29,6.55,1.77,13.33,1.46,19.79.5,7.54-1.13,14.87.08,22.27.2,10.65.18,21.29.07,31.94.13,1.21,0,2.31-.29,2.92-1.5.94-1.85.91-3.86.91-5.84.01-16.57.03-33.15,0-49.72-.01-5.77-.08-5.83-5.97-4.54-2.44.54-4.97.29-7.36,1.1-1.49.37-3.02.32-4.52.5-11.85-.26-23.74.95-35.52-1.15-2.65-.47-5.72-.18-7.42-3.06.69-3.16,2.85-1.46,4.52-1.36Z"/>
      <path class="cls-160" d="m2.08,83.04c-.54,1.12-.72,2.06,1.03,2.01,2.13,2.59,1.55,5.7,1.55,8.64.04,38.29.04,76.59.01,114.88,0,5.16-.05,10.31,1.17,15.38-.17,1-.36,1.99-1.7,1.98C.71,223,0,219.27,0,214.86.11,148.65.08,82.45.08,16.24c0-.33,0-.67,0-1q0-5.49,4.95-2.93c-2.34,3.01-2.65,6.47-2.6,10.16.25,18.88-.28,37.77.31,56.65.04,1.35-.36,2.62-.66,3.9Z"/>
      <path class="cls-71" d="m4.14,225.93c.36-.44.73-.88,1.09-1.32,2.26-.79,3.24.98,4.52,2.23,3.2,3.12,6.3,6.37,10.45,8.29.86.41,1.71.83,2.57,1.24,5.23,2.76,10.95,3.72,16.69,4.63,1.16.28,2.3.65,3.51.68.49,0,.97.06,1.46.11.74.08,1.47.22,2.19.4,5.13,1.26,10.48,1.62,15.4,3.74,7.52,2.36,15.22,4.26,21.8,8.91.82.47,1.63.95,2.44,1.45,1.75,1.21,3.74,2.22,5.04,3.9,1.97,2.55,4.14,2.78,6.77,1.31,1.04.04,1.82.47,2.17,1.51-1.52,2.33-3.03,4.66-4.72,7.26-15.87-19.64-39.06-21.91-61.33-26.14-12.41-2.36-22.67-7.77-30.05-18.19Z"/>
      <path class="cls-80" d="m100.24,263c-.69-.36-1.38-.72-2.07-1.08.12-3.6,3.94-3.69,5.55-5.88,6.36-4.89,13.89-7.42,21.17-10.47,6.4-2.23,13.15-2.89,19.69-4.48.5-.14,1.01-.23,1.52-.3,6.95-.26,13.63-1.45,19.41-5.7,2.31-.45,4.35-1.82,6.75-1.94,1.05.26,2.23.41,1.79,2-6.48,5.2-13.99,8-22.13,9-10.38,1.27-20.48,3.67-30.37,6.99-7.83,2.63-14.65,7.12-21.32,11.87Z"/>
      <path class="cls-161" d="m7.14,13.92c21.35,5.92,42.82,6.88,64.33,1.05,4.26-1.15,8.26-3.28,12.38-4.96,1.37-.71,2.27-.39,2.58,1.2-.6,2.45-2.81,3.14-4.69,4.09-7.81,3.96-16.2,6.26-24.83,6.82-14.91.97-29.87,1.19-44.55-2.52-2.69-.68-5.63-1-7.39-3.63-.28-1.75,1.08-1.76,2.18-2.05Z"/>
      <path class="cls-163" d="m7.14,13.92c-.4.9-1.18,1.11-2.06,1.16-.95,1.76-.4,3.7-.61,5.55.01,19.09.03,38.18,0,57.26.04,1.24.02,2.47-.37,3.66-.21.59-.55,1.09-1.03,1.49-.33,0-.67,0-1,0-1.25-2.74-.94-5.7-.95-8.55-.09-18.62.04-37.24-.13-55.85-.03-3.31.82-5.4,4.03-6.32.96.2,1.71.68,2.11,1.6Z"/>
      <path class="cls-61" d="m86.03,11.11c-.47-.89-1.32-1-2.19-1.09,3.87-3.05,8.28-5.46,11.28-10.02,9.14,9.84,21.06,13.5,33.05,17.01-1.41.32-3.12-.43-4.2,1.14-1.89,1.51-3.86.53-5.68,0-7.22-2.1-13.93-5.39-19.91-9.91-2.36-1.79-3.68-1.81-5.83.1-1.75,1.56-3.64,3.55-6.53,2.76Z"/>
      <path class="cls-92" d="m174.07,235.14c-.41-.95-1.26-1.14-2.17-1.23-.36-1.05.41-1.57,1-2.18.3-.3.63-.57.95-.85,1.51-1.19,2.66-2.69,3.66-4.32,1.26-1.59,2.71-2.99,4.34-4.19.66-.52,1.26-1.12,1.93-1.65.4-.19.78-.16,1.14.12.1.87.23,1.72,1.14,2.16-2.85,5.18-6.88,9.19-11.99,12.14Z"/>
      <path class="cls-56" d="m86.03,11.11c3.3-2.06,6.73-5.89,9.85-5.66,3.04.23,6.18,4,9.53,5.83,5.85,3.2,11.85,5.99,18.56,6.87,9.31,2.99,18.93,3.14,28.57,3.05,4.82-.04,9.65,0,14.47,0,1.16.68,2.43.34,3.65.34.66,0,1.03-.33.38-.18-.05.01-.17-.24-.25-.37,4.25-1.25,8.86-1.13,12.87-3.39,1.6-.9,2.03.16,2.04,1.56.01,1.82.01,3.65.01,5.47,0,17.4.02,34.81-.03,52.21,0,1.76.61,3.66-.73,5.26-1.6,1.21-3.48.92-5.27.91-14.03-.02-28.06.1-42.09-.45-8.59-.34-17.18.84-25.78.46-1.96-.09-4,.36-5.79-.86-.34,0-.69,0-1.03,0-9.07.74-18.18.58-27.26.74-16.69.29-33.39.02-50.09.05-6.44,0-12.89.17-19.33.05-1.78-.03-3.7.37-5.16-1.16.03-.96.06-1.91.1-2.87.8-10.13.29-20.29.3-30.43,0-9.81.48-19.63-.3-29.43.38-1.45-1.73-4.04,1.84-4.05,6.66,4.32,14.34,4.73,21.85,5.37,15.71,1.35,31.41,1.8,46.69-3.34,4.39-1.48,8.72-3.07,12.4-6.01Z"/>
      <path class="cls-108" d="m39.94,241.97c-6.29-.48-12.56-1-17.91-4.91-1.43-1.85-1.38-4.03-1.38-6.2-.01-46.55-.02-93.11.01-139.66,0-2.14-.23-4.38,1.51-6.1,6.96,0,13.93,0,20.89,0,1.45,1.67,1.3,3.6.9,5.57-.79,2.6-.49,5.28-.49,7.92-.02,44.84-.01,89.67-.02,134.51,0,1.99.18,4.01-.18,5.97-.32,1.74-.5,3.93-3.34,2.9Z"/>
      <path class="cls-147" d="m145.07,242.05c-6.58,1.57-13.16,3.15-19.74,4.72-1.75-1.21-1.85-3.1-1.85-4.92,0-16.8-.38-33.6.19-50.39.12-1.44.57-2.78,1.26-4.04,1.16-1.83,2.81-3.38,3.37-5.58.82-1.69,1.46-3.44,1.75-5.3.5-1.86.71-3.78,1.1-5.66.78-2.86.76-5.72.05-8.59-.24-.93-.35-1.87-.42-2.82-.07-1.13-.21-2.25-.63-3.32-.86-1.85-1.19-3.87-1.91-5.76-.53-1.35-1.5-2.4-2.38-3.52-1.16-1.6-1.94-3.34-2.15-5.33-.57-17.31-.21-34.62-.2-51.92,0-1,.16-1.99.54-2.93.3-.58.7-1.07,1.19-1.5.29-.11.56-.09.83.05,5.97.52,11.93.57,17.9-.02.36-.01.71-.02,1.07-.03,1.67,1.78,1.36,4.02,1.36,6.15.03,48.18.03,96.36,0,144.54,0,2.15.17,4.36-1.32,6.2Z"/>
      <path class="cls-147" d="m182.9,222.69c-1.57,1.44-3.15,2.89-4.72,4.33-1.42,1.62-4.26,2.02-4.22,4.9h-.01q-8.37,3.73-8.38-5.49c0-44.24-.01-88.48.02-132.72,0-2.46-.44-5.01.85-7.34,3.77-1.78,7.76-.4,11.63-.81,1.95-.21,3.96.34,5.88-.39,3.49.5,1.59,3.23,1.6,4.69.14,34.72.11,69.44.11,104.16,0,6.98.05,13.95-.03,20.93-.02,1.96-.45,3.92-.7,5.88-.24.1-.49.16-.75.19-.53.48-1.83.37-1.27,1.67Z"/>
      <path class="cls-147" d="m62.84,247.35c-5.67-1.43-11.35-2.86-17.02-4.29-1.76-1.99-2.17-4.38-2.17-6.95-.02-47.54,0-95.07,0-142.61,0-1.34.41-2.65.35-3.96-.16-3.41,1.61-4.09,4.65-4.06,4.46.04,8.95.56,13.39-.36.33,0,.66,0,1,0,1.52,1.59,1.58,3.61,1.58,5.6-.02,16.59.22,33.18-.11,49.76-.15,1.7-.48,3.36-1.29,4.9-.34.67-.77,1.28-1.22,1.87-.98,1.25-1.66,2.67-2.25,4.13-.75,1.87-1.53,3.74-.97,5.83.06.69-.03,1.35-.31,1.99-1.15,1.46-1.24,3.27-1.63,4.98-.88,2.32.03,4.53.44,6.76.31,2.44,1,4.8,1.72,7.15,1.2,4.7,4.7,8.46,5.39,13.37.56,16.97.2,33.93.19,50.89,0,1.82-.11,3.7-1.71,5.02Z"/>
      <path class="cls-147" d="m20.02,236.06c-4.55-1.42-7.56-4.91-10.86-8.02-1.26-1.19-1.87-3.14-3.93-3.43-2.14-3.29-2.2-6.94-2.19-10.71.07-42.95.05-85.9.06-128.85,5.65.01,11.31.02,16.96.03,1.4,1.73.98,3.8.98,5.76.02,46.5.03,93.01,0,139.51,0,1.93.55,4.03-1.01,5.71Z"/>
      <path class="cls-105" d="m63.3,142.29c-.09-19.06-.18-38.12-.28-57.18,7.12.01,14.25.03,21.37.04,1.35,1.91,1,4.12,1.02,6.24.1,11.72-.13,23.45.14,35.16.14.57.18,1.15.12,1.73-.16.84-.61,1.51-1.27,2.05-1.93,1.14-4.26.89-6.26,1.77-1.68.51-3.08,1.53-4.48,2.53-1.2.89-2.12,2.05-3.03,3.21-1.89,1.48-3.22,3.61-5.38,4.8-.7.16-1.36.09-1.95-.34Z"/>
      <path class="cls-112" d="m163.97,85.18c.79,0,1.59,0,2.38,0,.24,49.42.05,98.84.1,148.26,0,.51-.15.98-.26,1.47-2.77,1.24-3.13-.99-3.55-2.67-.93-3.72-1.28-7.52-1.28-11.37,0-40.57,0-81.14,0-121.71,0-3.84.39-7.63,1.24-11.38.21-.99.64-1.87,1.37-2.59Z"/>
      <path class="cls-137" d="m20.02,236.06c.01-50.32.03-100.65.04-150.97.7,0,1.41.01,2.11.02,0,48.5,0,96.99,0,145.49,0,2.16-.09,4.31-.13,6.47-.67-.34-1.34-.67-2.02-1.01Z"/>
      <path class="cls-150" d="m62.02,85.12c-4.12,1.94-8.49.75-12.72.82-3.23.05-4.31,1.02-4.31,4.31.08,48.96.09,97.93-.06,146.89,0,2.13,2.03,3.77.89,5.92-.59-.08-1.17-.17-1.76-.25-1.45-1.72-.99-3.8-.99-5.75-.03-47.38-.02-94.75-.02-142.13,0-3.31.37-6.58,1.02-9.82,5.98,0,11.97,0,17.95.01Z"/>
      <path class="cls-149" d="m163.97,85.18c0,.62,0,1.23,0,1.85-3.68,1.69-7.54.41-11.3.55-3.57.14-5.21,1.53-5.07,5.1.06,1.66-.01,3.32-.01,4.99,0,45.21.01,90.43-.02,135.64,0,2.94.56,6.04-1.58,8.62l-.45.15s-.47-.02-.47-.02c-.02-52.29-.03-104.59-.05-156.88,6.32,0,12.63,0,18.95.01Z"/>
      <path class="cls-160" d="m3.15,81.86c31.12.05,62.24.09,93.36.15,2.83,0,5.65.11,8.48.17-.47.44-1.01,1.3-1.41,1.24-13.35-1.87-26.66.91-40.07.4-11.41-.44-23-.56-34.51.14-7.06.42-14.16.11-21.24.05-1.59-.01-3.37.55-4.67-.97.02-.39.05-.79.07-1.18Z"/>
      <path class="cls-4" d="m166.06,234.93c.07-9.15.19-18.3.2-27.44.05-40.77.06-81.55.09-122.32.23-.07.44-.05.64.08.32.12.45.27.37.45-.08.19-.17.29-.26.29-.03,48.96-.06,97.92-.08,146.89,0,.32.14.64.27,1.17,2.47.14,3.94-3.17,6.66-2.13-.68.66-1.37,1.32-2.05,1.98-1.98.22-3.19,2.74-5.55,1.87-.3-.05-.6-.11-.89-.16.2-.23.4-.45.6-.68Z"/>
      <path class="cls-154" d="m44.07,85.11c0,52.57,0,105.13,0,157.7-.34-.03-.68-.06-1.02-.09-.8-1.22-.46-2.59-.46-3.89-.02-48.43-.02-96.85,0-145.28,0-1.16-.16-2.34.32-3.45.06-1.66.12-3.32.18-4.98.33,0,.67,0,1,0Z"/>
      <path class="cls-160" d="m106.02,82.17c26.31-.02,52.63-.04,78.94-.07-.54,2.75-2.77,1.94-4.4,1.89-11.39-.39-22.77.18-34.19-.56-11.9-.77-23.92.36-35.9.56-1.63.03-3.85.9-4.45-1.82Z"/>
      <path class="cls-5" d="m84.9,128.2c-1.22-8.87-.3-17.79-.52-26.68-.14-5.45,0-10.91.01-16.37.25-.09.48-.06.7.08.47.47.81,1.02,1.04,1.65,1,12.42.35,24.86.36,37.29,0,1.49-.28,2.99-1.59,4.03Z"/>
      <path class="cls-148" d="m125.22,85.17c0,.31-.08.6-.23.86-6.62,2.7-13.36,1.73-20.1.68-.59-.35-.86-.87-.83-1.55,7.05,0,14.1,0,21.16,0Z"/>
      <path class="cls-151" d="m104.07,85.16c0,.33.05.64.18.94-.24.2-.48.41-.71.62-6.15.97-12.32,2.08-18.33-.72-.05-.26-.09-.51-.12-.77,6.33-.02,12.65-.05,18.98-.07Z"/>
      <path class="cls-151" d="m143.95,85.2c-5.96,1.35-11.93,1.33-17.9.02,5.97,0,11.93-.01,17.9-.02Z"/>
      <path class="cls-151" d="m167.1,86c-.06-.24-.1-.49-.11-.74,5.65-.03,11.3-.05,16.95-.08-5.54,1.85-11.23.44-16.84.82Z"/>
      <path class="cls-118" d="m170.79,20.99c.3.08.67.08.89.26.46.38.34.81-.25.78-1.5-.07-3.15.56-4.41-.82,1.26-.07,2.52-.14,3.78-.21Z"/>
      <path class="cls-105" d="m62.84,247.35c.11-19.09.22-38.18.34-57.27,2.3-.58,3.16,1.41,4.52,2.51,1.49,2.01,3.29,3.61,5.71,4.43,1.31.54,2.5,1.26,3.58,2.18,2.42,2.51,6.52,2.38,8.59,5.47.09.58.08,1.14-.04,1.72-.24,14.32-.01,28.63-.13,42.93-.02,2.28.49,4.7-1.2,6.7-6.78-3.74-13.99-6.41-21.36-8.66Z"/>
      <path class="cls-147" d="m84.95,204.79c-.14-.17-.22-.36-.25-.58,1.28-1.4,2.77-.42,4.18-.39.48.08.96.2,1.42.33,2.85.74,5.69.86,8.52-.16.5-.22,1.01-.39,1.53-.54,1.81-.44,3.54-.62,4.56,1.43,1.13,3.57.64,7.25.66,10.88.06,11.11.02,22.23.02,33.34,0,2.67.01,5.32-1.43,7.72l-6.01,5.1c-1.17,1.07-2.34,2.14-3.62,3.32-2.43-3.35-5.87-5.31-8.62-8.04-1.25-1.09-1.41-2.52-1.41-4.07.04-15.64-.01-31.27.03-46.91,0-.53.23-.96.4-1.42Z"/>
      <path class="cls-113" d="m42.9,90.09c.05,27.76.12,55.53.15,83.29.02,23.11,0,46.22,0,69.33-1.13.15-2.19.05-3.1-.74,3.54-.9,2.04-3.8,2.04-5.8.09-46.78.06-93.55.1-140.33,0-1.92-.69-4.02.81-5.76Z"/>
      <path class="cls-152" d="m84.95,204.79c.03,15.2.08,30.4.09,45.59,0,2.32-.06,4.63.89,6.81-.58-.39-1.15-.78-1.73-1.18.06-15.29.1-30.57.19-45.86.01-1.79-.43-3.67.56-5.37Z"/>
      <path class="cls-105" d="m166.06,234.93c.17.25.26.53.29.84-5.87,5.09-12.96,6.13-20.37,6.15,0-50.04.05-100.07-.1-150.11-.01-4.49,1.04-6.36,5.76-5.85,4.09.44,8.3-.38,12.32,1.07-2.27,45.24-.41,90.51-.95,135.76-.04,3.45.66,6.9,1.01,10.36.12,1.23.95,1.64,2.02,1.79Z"/>
      <path class="cls-105" d="m104.18,256.82c-.08-17.56-.16-35.12-.23-52.68-.49-2.2,1.41-2.39,2.62-2.71,4.93-1.31,8.78-4.26,12.39-7.64.83-.79,1.67-1.59,2.5-2.39,1.07-.77,1.89-2.17,3.56-1.43.1,18.93.21,37.87.31,56.8-7.24,2.95-14.64,5.56-21.15,10.05Z"/>
      <path class="cls-43" d="m3.24,19.13c1.11,1.07.82,2.46.82,3.76.01,17.45.01,34.9,0,52.34,0,1.3.29,2.69-.82,3.76,0-19.95,0-39.9,0-59.86Z"/>
      <path class="cls-4" d="m173.96,231.92c-.95-3.66,1.54-4.36,4.22-4.9-.31,2.57-2.13,3.85-4.22,4.9Z"/>
      <path class="cls-2" d="m182.9,222.69c-.75-.5-2.19-1.38-2.15-1.45.97-1.79,2.26.13,3.42-.22-.18.74-.32,1.51-1.27,1.67Z"/>
      <path class="cls-155" d="m77.36,38.14c2.14-.07,4.29-.25,6.43-.2,6.45.15,9.85,5.04,6.8,10.64-2.04,3.76,1.78,4.3,2.35,6.49.82,2,1.07,3.99-.14,5.94-3.67,4.87-8.38,6.58-14.01,5.18-1.23-.3-1.34-1.24-1.68-2.11-.72-8.65-1.26-17.31.27-25.94Z"/>
      <path class="cls-157" d="m43.27,38.11c9.6-.62,13.05.94,15.14,6.83,2.53,7.14.55,16.09-4.13,19.65-3.47,2.64-7.27,1.45-11,1.4-1.18-9.29-1.17-18.59,0-27.88Z"/>
      <path class="cls-3" d="m154.97,52.1c.25,4.63-1.09,8.67-4.04,12.08-3.26,3.78-7.43,3.75-10.73.1-5.07-5.59-5.2-18.68-.23-24.24,3.4-3.8,7.87-3.83,11.14.11,2.87,3.46,4.2,7.51,3.85,11.95Z"/>
      <path class="cls-146" d="m99.95,58.13c.3,2.51,1.36,4.58,4.12,4.68,2.31.08,3.45-1.59,3.75-3.8-.16-6.96-1.18-13.95.51-20.87,2.36-.54,3.8-.16,3.69,2.82-.18,5.31-.03,10.64-.15,15.95-.03,1.47-.39,2.98-.88,4.37-1.11,3.22-3.28,5.52-6.83,5.61-3.82.1-6.22-2.19-7.17-5.73-1.89-7.02-.61-14.22-.88-21.33-.04-1.14.56-1.91,1.82-1.76,1.38.16,1.29,1.31,1.29,2.27.04,3.99-.03,7.98.05,11.97.04,1.96-.44,4,.68,5.84h0Z"/>
      <path class="cls-155" d="m128.99,66.08c-2.39-5.33-4.77-10.65-7.16-15.98-2.41.25-1.33,2.2-1.25,3.21.27,3.49-.34,6.96-.03,10.44.12,1.35-.19,2.73-2.07,2.75-1.75.01-2.34-1.21-2.37-2.61-.19-7.81-.15-15.63-.03-23.44.02-1.68.84-2.82,2.64-3.07,1.77-.25,2.85.7,3.59,2.11,1.7,3.25,2.95,6.69,4.16,10.13.68,1.61,1.48,3.17,2.22,4.7.02-4.03-.15-7.99.04-11.95.09-1.84-.4-4.16,2.42-4.7,1.48.49,1.33,1.73,1.34,2.87.03,7.61.02,15.23.02,22.84,0,2.54-.69,3.93-3.5,2.72Z"/>
      <path class="cls-20" d="m128.99,66.08c1.81.25,3.3.22,3.28-2.3-.06-7.8-.02-15.59-.01-23.39,0-1.54-.39-2.63-2.26-2.31-.34.32-.61.69-.81,1.11-.4,2.47-.2,4.95-.18,7.42.01,2.23-.53,3.92-2.99,4.4-1.64-3.61-3.33-7.2-4.88-10.86-.58-1.35-1.18-2.38-2.84-2.14-2.05.3-1.47,1.94-1.48,3.13-.05,7.31-.05,14.63,0,21.94,0,1.21-.47,2.94,1.57,3.02,2.15.09,1.64-1.69,1.66-2.89.05-5.32.02-10.64.02-17.39.92,2.22,1.34,3.25,1.77,4.28-1.09,4.22-.62,8.49-.5,12.76.05,1.61.14,3.34-1.76,4.11-1.42.58-2.87,1.02-3.62-.98-.73-9.29-.72-18.59,0-27.88,2.06-1.05,1.66-3.57,3-5.05,3.72-.29,7.1.56,10.03,2.95,3.14,1.04,4.28,3.01,4.12,6.48-.33,7.21-.06,14.45-.12,21.68-.03,3.18-1.06,4.64-3.99,1.9Z"/>
      <path class="cls-156" d="m16.05,52.08c-.13-5.21,1-9.95,5.38-13.31,3.13-2.4,7.11-1.84,9.27,1.11.62.84,1.26,1.53.37,2.59-.68.81-1.3.55-2.16.28-5.58-1.77-7.13-.91-8.89,4.59-1.18,3.66-.91,7.21.46,10.74,1.89,4.87,4.1,5.71,8.69,3.24.79-.43,1.4-1.64,2.36-.25.65.94.5,1.76-.12,2.73-2.08,3.27-6.79,4.09-10.13,1.68-3.57-2.59-5.23-6.83-5.24-13.38Z"/>
      <path class="cls-1" d="m162.99,62.15c1.81.08,3.63.2,5.44.22,1.5.02,2.61.3,2.53,2.17-.07,1.72-1.24,1.66-2.42,1.68-.33,0-.66,0-.99.01q-8.76.36-8.76-8.39c0-5.63.08-11.26-.03-16.89-.05-2.37.72-3.44,3.16-2.88,1.18,5.89.2,11.84.56,17.75.13,2.11-.57,4.29.51,6.33Z"/>
      <path class="cls-153" d="m128.98,36.02c-1.45.23-2.96.54-4.15-.61-1.45-1.42-2.13-1.61-4.12,0-2.23,1.81-1.33-1.33-1.76-2.34,1.69-2.85,3.6-4.45,6.38-1.11.54.65,1.2,1.25,2.09.82,1.08-.53.76-3.81,2.82-2.01,1.61,1.41-.23,3.26-1.04,4.8-.08.15-.15.3-.22.44Z"/>
      <path class="cls-86" d="m43.27,38.11c0,9.29,0,18.59,0,27.88-1.48-.8-1.21-2.22-1.22-3.51-.02-6.96-.02-13.91,0-20.87,0-1.29-.26-2.71,1.21-3.51Z"/>
      <path class="cls-34" d="m115.95,38.12c0,9.29,0,18.59,0,27.88-2.03-3.41-.92-7.16-.84-10.69.12-5.73-1.21-11.56.84-17.19Z"/>
      <path class="cls-104" d="m77.36,38.14c-.09,8.65-.18,17.29-.27,25.94-2.32-6.23-.64-12.69-.97-19.04-.12-2.26-1.24-4.99,1.24-6.9Z"/>
      <path class="cls-84" d="m162.99,62.15c-2.14-2.38-.84-5.24-.96-7.85-.25-5.4-.1-10.81-.11-16.22,2.25,3.35.77,7.08.99,10.62.28,4.47.08,8.97.08,13.46Z"/>
      <path class="cls-33" d="m108.34,38.14c-.33,6.95.53,13.93-.51,20.87-1.02-6.99-2.01-13.97.51-20.87Z"/>
      <path class="cls-89" d="m99.96,58.14v-18.78c.51,6.26,2.3,12.55,0,18.76,0,0,0,.01,0,.01Z"/>
      <path class="cls-83" d="m92.79,61.01c.05-1.98.1-3.96.14-5.94,1.6,2.02,1.76,4-.14,5.94Z"/>
      <path class="cls-105" d="m104.25,86.1c6.91-.02,13.83-.04,20.74-.07,0,19.01.02,38.02.03,57.03-.38.28-.79.36-1.24.21-.81-.45-1.34-1.16-1.86-1.88-1.1-1.65-2.56-2.89-4.33-3.77-2.3-1.3-4.31-3.06-6.73-4.18-1.35-1.3-2.91-2.18-4.83-2.29-1.08-.24-2.11-.57-2.73-1.61-.29-.55-.48-1.11-.6-1.72-.58-12.4-.19-24.8-.22-37.2,0-1.67.29-3.3,1.4-4.66,0,0,.36.12.36.12Z"/>
      <path class="cls-12" d="m131.03,155.98c1.05.78,1.14,1.85.88,3.02-1.21,1.83.4,3.76-.2,5.62-.45,1.2-1.28,2.06-2.42,2.62-1.01.29-1.84-.11-2.64-.66-1.88-1.48-3.22-3.63-5.59-4.53-2.67-1.61-5.5-3-7.47-5.55.7-1.3,1.06-2.59-.16-3.82.32-4.26,3.91-5.83,6.66-8.09.55-.4,1.14-.74,1.78-.97.45-.09.89-.06,1.32.08,1.22.68,1.67,2,2.5,3,.84,1.24,2.27,2.02,2.78,3.53.84,1.93.74,4.27,2.54,5.77Z"/>
      <path class="cls-7" d="m132.15,171.1c.18,2.06.14,4.08-1.15,5.86-1.32,1.46-1.54,3.49-2.62,5.08-.83,1.76-1.6,3.56-2.95,5.02-.59,1.51-1.71,2.56-3.01,3.46-.75.54-1.54.99-2.52.9-1.93-.28-3.44-1.23-4.48-2.89-.49-.76-.88-1.56-.73-2.51.91-1.43,1.64-2.98,2.65-4.35.69-.82,1.46-1.56,2.2-2.32,1.59-1.47,3.01-3.08,4.11-4.96,2.54-2.31,4.08-5.5,6.75-7.7,2.13.86,1.33,2.87,1.74,4.41Z"/>
      <path class="cls-87" d="m132.15,171.1c-1.82-.79-.46-3.31-2.24-4.13-.33.34-.65.31-.97-.02.66-.65,1.31-1.31,1.97-1.96,1.16-.79.05-2.41,1.19-3.2,1.09,3.1,1.05,6.21.05,9.32Z"/>
      <path class="cls-48" d="m125.01,187.02c1.07-1.64.7-4.12,2.96-5.06.5-.38.96-.33,1.38.14-.42,2.07-1.2,3.89-3.24,4.89-.36.37-.72.38-1.1.03Z"/>
      <path class="cls-131" d="m131.03,155.98c-3.08-.88-2.59-3.66-3.14-5.89.35-.41.73-.45,1.16-.12,1.36,1.77,1.62,3.91,1.98,6.01Z"/>
      <path class="cls-60" d="m125.01,187.02c.37-.01.73-.02,1.1-.03-.36.99-.73,1.99-1.09,2.98-.99.7-1.98,1.4-2.97,2.11-.67-.69-.6-1.38-.02-2.07.99-.99,1.99-1.99,2.98-2.98Z"/>
      <path class="cls-45" d="m129.35,182.1c-.46-.05-.92-.09-1.38-.14.76-1.82.23-4.42,3.03-5,.15,1.94-.56,3.6-1.65,5.14Z"/>
      <path class="cls-31" d="m124.93,147.01c-.63-.99-1.26-1.99-1.88-2.98.09-.59.42-.95,1.02-1.06.32.03.64.06.96.09.8,1.26,1.59,2.52,2.39,3.78-.77.84-1.61.71-2.48.17Z"/>
      <path class="cls-97" d="m124.93,147.01c.83-.06,1.65-.12,2.48-.17.92.85,1.55,1.85,1.63,3.14-.39.04-.77.08-1.16.12-.99-1.03-1.97-2.05-2.95-3.08Z"/>
      <path class="cls-77" d="m132.1,161.78c-.31,1.1.1,2.47-1.19,3.2.41-1.98-.67-4.21,1-5.98.06.93.13,1.85.19,2.78Z"/>
      <path class="cls-120" d="m57.94,158.53c-.03-.43-.06-.87-.1-1.3.18-2.12.71-4.13,1.68-6.02.68-1.15.65-2.69,1.9-3.53,2.52.52,2.07,3.12,3.22,4.61.15.7.1,1.38-.14,2.05-1.03,1.65-1.27,3.53-1.55,5.41-1.12,4.85-.72,9.64.48,14.4-1.08,2.54-2.91,3.16-5.4,2.14-.7-1.8-1.1-3.68-1.47-5.57-.1-1.93-.81-3.82-.36-5.79.48-2.16.33-4.49,1.74-6.39Z"/>
      <path class="cls-41" d="m64.11,152.08c-2.36-.62-1.09-3.07-2.18-4.33-.42-.09-.7-.34-.84-.75.15-.34.29-.68.44-1.02,1.49-.83,2.08-2.46,3.19-3.62,1.3-2.22,3.18-3.85,5.26-5.29,1.03-.86,2.22-1.21,3.55-1.06.48.1.93.3,1.33.58,1.01,1.68-.52,2.37-1.39,3.18-2.81,2.62-4.92,5.72-6.56,9.16-.51,1.02-.83,2.14-1.56,3.05-.4.29-.81.34-1.25.1Z"/>
      <path class="cls-81" d="m66.73,193.11c-1.18-1.01-2.37-2.02-3.55-3.03-1.76-4.04-4.98-7.44-5.33-12.09.21-.1.42-.2.64-.3,2.93.55,3.97,3.05,5.34,5.2,1.34,3.79,4.78,4.6,8.05,5.64.36.35.54.77.54,1.27-.44,1.52-1.61,2.36-2.9,3.1-.9.41-1.82.64-2.78.21Z"/>
      <path class="cls-17" d="m59.9,150.98c-.41,2.17-.45,4.47-2.06,6.25-1.66-2.5.19-4.28,1.26-6.22.25-.37.51-.38.79-.03Z"/>
      <path class="cls-21" d="m56.68,164.94c.08,2.01.16,4.02.24,6.03-.25.47-.49.47-.74,0-.83-2.39-1.36-4.79-.24-7.24.61.18.65.71.74,1.2Z"/>
      <path class="cls-42" d="m56.18,170.98c.25,0,.5,0,.75,0,.96,1.44,1.26,3.06,1.25,4.76.46.77.51,1.53-.06,2.27,0,0-.27-.02-.27-.02-1.19-2.18-1.69-4.53-1.67-7Z"/>
      <path class="cls-46" d="m56.68,164.94c-.25-.4-.5-.8-.74-1.2.35-1.86-1.07-4.4,2.01-5.21-.42,2.14-.84,4.27-1.26,6.41Z"/>
      <path class="cls-98" d="m64.73,142.37c.17,2.29-1.69,2.8-3.19,3.62.59-1.23,1.17-2.47,1.76-3.7.48.03.95.05,1.43.08Z"/>
      <path class="cls-39" d="m59.9,150.98c-.26.02-.53.03-.79.03.15-1.59.48-3.09,1.99-4,.28.25.56.5.84.75-1.09.81-.53,2.67-2.04,3.22Z"/>
      <path class="cls-147" d="m103.89,85.98c.02,14.29.04,28.58.06,42.88-.95,1.14-2,.94-3.09.25-.95-1.35-2.18-1.78-3.75-1.12-2.51.58-5.14-.07-7.6.84-.92.34-1.84.7-2.83.84-.79.02-1.5-.13-1.94-.89-.02-.21.02-.4.14-.58.1-14.06.2-28.13.31-42.2,6.23,0,12.45-.01,18.68-.02Z"/>
      <path class="cls-133" d="m84.76,128.78c.74.07,1.49.14,2.23.21,1.83-1.08,3.3-.26,4.7.91,1.35,1.27,4.17.44,4.52,3.14-.59.92-1.47,1.43-2.47,1.79-2.02.6-4.08.5-6.14.38-2.7-.4-4.99,1.16-7.5,1.61-1.67.3-3.31,1.57-5.05.2-.35-.01-.71-.03-1.06-.04-.52-.6-.62-1.27-.4-2.02.85-1.18,2.02-2.01,3.23-2.78,2.25-1.21,4.9-1.2,7.18-2.3.25-.37.51-.74.76-1.11Z"/>
      <path class="cls-130" d="m84,129.89c-1.9,2-4.76,1.82-6.99,3.08-.6-.55-.49-1.13-.07-1.72,2.23-1.11,4.57-1.6,7.05-1.36Z"/>
      <path class="cls-99" d="m74.05,135.03c-.02.65-.05,1.3-.07,1.94-1.33.03-2.66.07-4,.1.34-1.71,1.79-2.31,3.08-3.06,1.01-.32,1.27.09.98,1.02Z"/>
      <path class="cls-63" d="m74.05,135.03c-.33-.34-.66-.68-.98-1.02,1.29-.92,2.58-1.85,3.87-2.77.02.58.04,1.15.07,1.72-.99.69-1.97,1.38-2.96,2.06Z"/>
      <path class="cls-65" d="m69.02,191.96c1-.66,2.01-1.33,3.01-1.99,2.11-3.01,5.79-4.22,8.08-7.03.39-.27.81-.47,1.26-.61.71-.14,1.4-.07,2.08.16,3.11,1.42,5.97,3.24,8.55,5.5.77.67,1.48,1.31.73,2.42-1.53,1.73-3.66,2.7-5.33,4.26-2.63,2.65-6.57,2.44-9.51,4.39-.18.41-.42.76-.72,1.08-.43.19-.82.14-1.16-.21-1-.71-2.01-1.41-3.01-2.12-1.37-1.93-5.17-2.2-3.99-5.86Z"/>
      <path class="cls-101" d="m76.03,199.94c.32-.03.64-.06.97-.09,1.79-1.27,3.84-.54,5.77-.72.43.08.83.23,1.21.46,1.05,1.84,3.21,1.84,4.75,2.87.35.3.59.67.74,1.11.04.47-.09.88-.43,1.22-1.57.77-2.85-.61-4.32-.57-3.15-.9-6.28-1.83-8.68-4.27Z"/>
      <path class="cls-62" d="m69.02,191.96c.27,2.67,3.63,3.25,3.99,5.86-3.23-.05-4.63-2.56-6.29-4.71.76-.38,1.53-.77,2.29-1.15Z"/>
      <path class="cls-70" d="m120.17,194.05c-3.89,5.8-10.55,7.16-16.22,10.09-1.32.22-2.64.43-3.96.65-.7-.25-1.27-.59-1.22-1.47,1.09-1.99,3.27-2.59,4.94-3.85.43-.22.88-.38,1.34-.51.46-.13.94-.22,1.41-.29,3.37-.71,6.46-2.08,9.39-3.88,1.32-.81,2.59-2.22,4.32-.75Z"/>
      <path class="cls-158" d="m99,203.93c.33.28.66.57.99.85-.33.12-.66.23-1,.35-2.98.48-5.97.48-8.95,0-.34-.12-.68-.24-1.02-.36,0-.27,0-.54,0-.81,3.32-2.03,6.64-2.02,9.98-.03Z"/>
      <path class="cls-152" d="m90.04,205.13c2.98,0,5.97,0,8.95,0-2.98,1.3-5.97,1.3-8.95,0Z"/>
      <path class="cls-90" d="m120.17,194.05c-4.79,1.82-8.72,5.76-14.22,5.86-.52-.59-.57-1.25-.3-1.96,2.73-2.08,4.35-5.24,7.12-7.28.43-.11.86-.08,1.27.07.68,1.32,1.65,1.39,2.81.62,1.02-.42,2.09-.36,3.15-.4.67-.32,1.35-.64,2.02-.97,0,.69.01,1.38.02,2.07-.62.66-1.25,1.32-1.87,1.97Z"/>
      <path class="cls-119" d="m84.97,53.25c4.25.13,4.95,3.09,3.99,6.12-1.21,3.79-4.29,4.28-7.75,2.67,1.24-1.54.31-3.28.23-4.84-.13-2.77.98-3.86,3.53-3.95Z"/>
      <path class="cls-88" d="m81.16,49.04c.19-2.34-2.06-5.35,1.3-6.79,1.35-.58,3.57-1.32,4.81.92,1.31,2.35.92,4.3-1.27,5.88-1.61.77-3.23.77-4.84,0Z"/>
      <path class="cls-84" d="m84.97,53.25c-3.7,1.45-3.51,4.24-2.37,7.22.52,1.34.67,1.29-1.39,1.56-.11-1.75-.12-3.52-.37-5.26-.49-3.44,1.1-4.29,4.13-3.53Z"/>
      <path class="cls-54" d="m81.16,49.04c1.61,0,3.22,0,4.84,0-1.61,1.02-3.23,1.53-4.84,0Z"/>
      <path class="cls-127" d="m46.84,51.63c0-1.99-.09-3.98.04-5.96.09-1.36-.81-3.3,1.19-3.85,1.79-.49,3.59.03,5.03,1.4,3.68,3.47,3.48,14.86-.34,18.01-1.34,1.1-2.94,1.72-4.61,1.21-1.98-.61-1.23-2.47-1.29-3.84-.1-2.32-.03-4.64-.02-6.96Z"/>
      <path class="cls-44" d="m150.81,56.01c-.4,3.46-1.43,7.06-5.52,6.74-4.16-.32-5.05-4.05-5.14-7.74.62-2.29.5-4.59.06-6.89.37-3.49,1.51-6.86,5.57-6.72,3.72.13,4.82,3.36,5.05,6.71-.57,2.63-.56,5.26-.01,7.89Z"/>
      <path class="cls-91" d="m150.81,56.01c-1.3-2.63-1.33-5.26.01-7.89.49,2.63.47,5.26-.01,7.89Z"/>
      <path class="cls-85" d="m140.2,48.12c1.19,2.3,1.26,4.6-.06,6.89-.4-2.3-.35-4.59.06-6.89Z"/>
      <path class="cls-103" d="m126.02,51c2.51-1.75,1.81-4.4,2.01-6.85.16-2.05-.82-4.3.96-6.09.99,6.04.42,12.12.32,18.18-.01.8-.7.4-1.1.47.2-2.26-2.54-3.4-2.18-5.72Z"/>
      <path class="cls-116" d="m128.2,56.72c1.7-6.16.26-12.45.78-18.66.34,0,.68,0,1.02.01,0,6.09,0,12.17-.06,18.25,0,.69.71,2.27-1.18,1.65-.29-.1-.38-.83-.56-1.26Z"/>
      <path class="cls-140" d="m96.04,132.91c-1.26-1.77-4.07.07-5.11-2.2.12-1.69,1.17-2.42,2.72-2.62,3.7-.76,6.98.94,10.41,1.79,1.01.08,2.03.15,3.04.23,1.21,1.25,3.09,1.5,4.23,2.85,3.14-.29,4.43,2.63,6.69,3.87.88,1.03,2.38,1.55,2.58,3.14-.04.48-.2.92-.49,1.31-.4.27-.83.44-1.31.53-2.56.08-4.32-1.56-6.24-2.87-1.5-1.02-3.26-1.41-4.95-1.96-2.16-.73-4.39-1.16-6.59-1.7-.46-.08-.91-.2-1.36-.33-1.31-.49-2.78-.71-3.62-2.04Z"/>
      <path class="cls-68" d="m104.05,129.87c-3.68-.32-7.36-.63-11.04-.95-.32-.54-.21-.98.33-1.31,1.84-.27,3.72.15,5.54-.36.85-.04,1.56.24,2.06.96.75,1.4,2.03.33,3.01.65.03.34.07.68.1,1.01Z"/>
      <path class="cls-144" d="m119.97,141.1c.02-.39.04-.79.05-1.18,1.25-.56,1.92.61,2.86.97.39.69.79,1.38,1.18,2.08-.34.35-.68.7-1.01,1.06-.32-.04-.63-.07-.95-.08-1.5-.36-2.51-1.08-2.12-2.85Z"/>
      <path class="cls-52" d="m122.88,140.9c-.95-.32-1.91-.65-2.86-.97-.67-1.03-1.34-2.07-2.02-3.1,2.44.39,3.86,1.98,4.88,4.07Z"/>
      <path class="cls-25" d="m111.32,132.95c-1.44-.91-3.95-.23-4.23-2.85,1.84.32,3.86.36,4.23,2.85Z"/>
      <path class="cls-13" d="m113.99,155.96c2.64,1.7,4.88,4.03,7.97,5.01,1.2,2.09,3.32,3.4,4.58,5.44,1.36,2.96.02,5.22-1.87,7.35-1.75,1.58-2.46,4.01-4.42,5.42-1.07.9-1.92,2.08-3.3,2.59-.94.26-1.87.18-2.78-.13-1.91-.9-3.4-2.29-4.7-3.91-.99-1.36-2.71-1.39-4.02-2.17-1.87-1.25-4.13-1.83-5.78-3.44-.37-.61-.49-1.27-.4-1.97.05-1.18,2.5-1.6,1.03-3.26-.85-3.13,3.25-6.27-.04-9.39-.55-1.98-.49-3.86,1-5.46,2.04-1.62,3.91.2,5.87.3.44.04.87.15,1.3.28,2.01.85,4.23,1.36,5.56,3.34Z"/>
      <path class="cls-15" d="m113.01,138c1.95,1.14,3.59,2.9,6.05,3.02.47,1.4,2.37,2.07,1.98,3.91-2.33,2.65-6.24,3.94-6.9,8.03-.37.31-.79.42-1.26.39-2.47-1.1-5.04-2-7.29-3.56-1.25-.96-2.87-1.41-3.84-2.77,1.34-4.15,4.78-6.53,7.83-9.23,1.16-.33,2.26.37,3.41.22Z"/>
      <path class="cls-100" d="m123.95,173.83c1.59-2.38,2.5-4.94,2.15-7.85.29-.41.61-.43.94-.05.64.34,1.27.67,1.91,1.01.32.03.64.03.97.02-.4,3.82-3.16,5.95-5.85,8.12-.55-.37-.59-.79-.12-1.26Z"/>
      <path class="cls-38" d="m113.05,153c.37-.02.73-.03,1.1-.05,2.39,1.13.58,2.04-.16,3-1.95-1.07-4.65-.64-5.96-2.99,1.68-1.43,3.35-.92,5.02.04Z"/>
      <path class="cls-129" d="m127.03,165.94c-.31.03-.63.05-.94.05-1.92-1.23-3.86-2.44-4.13-5.02,2.1,1.24,3.74,2.95,5.08,4.97Z"/>
      <path class="cls-47" d="m121.05,144.93c-.65-1.31-2.27-2.13-1.98-3.91.3.02.61.05.91.08.71.95,1.41,1.9,2.12,2.85-.35.32-.7.65-1.05.97Z"/>
      <path class="cls-66" d="m126.67,157.28c-.35.45-.55.96-.89,1.08-.73.27-1.26-.22-1.25-.91,0-.32.55-.83.9-.89.33-.05.73.4,1.23.72Z"/>
      <path class="cls-162" d="m110.29,176.99c1.24,1.33,2.48,2.66,3.72,3.99,2.1,1.25,2.44,2.89,1.07,4.9.3.7.59,1.39.89,2.09,0,.65-.08,1.29-.39,1.87-.37.57-.87.95-1.56,1.03-.34.01-.68.03-1.01.04-4,.66-8.08.24-12.09.88-1.29.21-2.61,0-3.38-1.34-.67-2.11.71-3.16,2.15-4.18,1.42-.86,1.96-2.31,2.49-3.77,1.08-1.98,2.09-4,3.54-5.75,1.57-.89,3.05-.04,4.56.25Z"/>
      <path class="cls-32" d="m114.98,189.91c.02-.8.21-1.52.99-1.94,1.34,1,2.69,2,4.03,3-.7,1.11-1.85.99-2.92,1.07-1.69.26-2.44-.4-2.09-2.13Z"/>
      <path class="cls-57" d="m115.08,185.88c.04-1.72-.1-3.4-1.07-4.9,1,0,2,0,3,0,.38.3.96.39,1.03,1.01-1.23,1.11-.36,3.81-2.96,3.88Z"/>
      <path class="cls-93" d="m123.95,173.83c.04.42.08.84.12,1.26-.41,2.41-2.18,3.73-4.04,4.96-.32-.24-.44-.5-.35-.76.09-.27.19-.4.29-.4,1.33-1.69,2.65-3.37,3.98-5.06Z"/>
      <path class="cls-102" d="m119.97,178.89c.02.39.04.77.06,1.16-.66.65-1.32,1.29-1.99,1.94-.34-.34-.69-.67-1.03-1.01.99-.7,1.97-1.4,2.96-2.1Z"/>
      <path class="cls-72" d="m58.11,178.01c.02-.76.04-1.51.06-2.27,2.02.65,3.44-.41,4.79-1.66-.49-1.16.2-1.88.97-2.57,1.33-.74,2.84-.89,4.25-1.35,1.25-.28,2.49-.29,3.72.08,3.04,1.16,5.23,3.37,7.16,5.86,1.48,1.91,1.9,3.86-.43,5.53-1.01.81-2.14,1.47-3.22,2.19-6.53,4.3-6.77,4.28-12.52-.72-1.39-1.88-2.57-3.97-4.78-5.09Z"/>
      <path class="cls-11" d="m64.05,172.13c-.36.65-.73,1.29-1.09,1.94-3.2-4.86-2.15-9.97-.91-15.1.49-.33.94-.29,1.36.13.46.64.68,1.37.78,2.14.15,1.49.1,2.99.12,4.48,0,.96-.01,1.92-.02,2.88.06,1.18-.07,2.35-.25,3.52Z"/>
      <path class="cls-136" d="m63.22,161.12c-.11-.72-.22-1.45-.33-2.17-.89-1.81.04-3.25.98-4.68.08-.73.16-1.46.24-2.18.29-.05.59-.1.89-.13.54-.31,1.02-.23,1.42.26.87,3.76-.05,7.43-.62,11.11-.24.5-.63.82-1.15.97-1.84-.44-.61-2.26-1.42-3.16Z"/>
      <path class="cls-26" d="m63.87,154.26c-.33,1.56-.65,3.12-.98,4.68-.28.02-.56.03-.84.03-.03-1.81-.43-3.77,1.81-4.71Z"/>
      <path class="cls-19" d="m64.94,164.03c.29-4.02,0-8.09,1.07-12.04.02-1,.26-2,.02-3,1.32-5.26,4.94-8.78,9-11.98,4.08-.66,7.69-3.23,11.99-3.01.24.21.35.44.34.7-.01.27-.05.41-.1.41-1.08,1.22-2.61,2-3.34,3.54-.62,1.07-1.21,2.16-2.16,2.98-.96.77-1.7,1.72-2.22,2.84-.71,1.33-1.32,2.7-1.86,4.11-.76,1.94-1.43,3.89-1.32,6.01,0,2.99-.17,5.98.55,8.92-.12,3.45-1.86,5.81-4.92,7.27-1.3.07-2.61.15-3.91.22-1.69-.08-3.32-.26-3.88-2.27-.15-1.64-.4-3.29.75-4.72Z"/>
      <path class="cls-122" d="m66.04,149c2.92,1.02.79,2-.02,3-.34-.02-.68-.03-1.02-.05.14-1.06-.03-2.22,1.04-2.95Z"/>
      <path class="cls-55" d="m62.89,183.09c.11-.12.23-.24.34-.37,5.75,6.23,10.06.51,14.78-1.79.84.06,1.69.03,2.47.46.52.4.97.83.52,1.56l.04-.02c-3.16,1.74-5.31,5.02-9.01,5.93-4.59.51-7.82-1.12-9.14-5.78Z"/>
      <path class="cls-95" d="m72.02,188.88c3.03-1.94,5.01-5.47,9.01-5.93-2.04,3.57-5.41,5.44-9,7.03,0-.36,0-.73-.01-1.09Z"/>
      <path class="cls-5" d="m98.99,127.82c-1.99.1-3.98.2-5.97.29-1.39.72-2.75,1-4-.27,2.86-1.71,6.01-.46,9-.86.95-.44,1.09.05.97.84Z"/>
      <path class="cls-64" d="m89.02,127.84c1.33.09,2.67.18,4,.27,0,.27,0,.54-.01.81-.7.59-1.39,1.19-2.09,1.78-1.13-1-2.28-1.93-3.94-1.72.25-1.15,1.33-.81,2.04-1.14Z"/>
      <path class="cls-138" d="m98.99,127.82c-.32-.28-.65-.56-.97-.84,1.84-1.65,2.7-.97,2.92,1.23l-1.95-.39Z"/>
      <path class="cls-125" d="m81.05,140.99c.66-.99,1.32-1.98,1.97-2.97,1.39-.85,2.5-2.07,3.88-2.93.04-.36.09-.73.13-1.09,2.37-.04,4.74-.08,7.11-.12,2.01-1.22,3.96.57,5.95.12.29,0,.57,0,.86,0,1.89,1.88,4.72,1.23,6.82,2.55.84.33,1.68.67,2.2,1.48-2.62,2.92-5.24,5.84-7.86,8.76-.15.41-.4.74-.75,1-.74.47-1.52.8-2.41.84-.44-.02-.85-.13-1.25-.3-1.28-.79-2.27-1.95-3.48-2.82-1.53-1.47-3.68-1.07-5.44-1.82-.65-.39-1.42-.61-1.74-1.43-.03-.07-.35.06-.34.07.56.52,1.12,1.05,1.84,1.36,1.58.9,4-.08,4.96,2.22,0,.54-.16,1-.52,1.4-1.81,1.13-3.62.06-5.44.04-2.49-.28-5-.47-6.93-2.37-.75-1.43-.42-2.75.43-4.01Z"/>
      <path class="cls-50" d="m100.1,134.01c-2.02,1.67-3.96-.67-5.95-.12.63-.33,1.26-.65,1.89-.98,1.35.37,2.71.73,4.06,1.1Z"/>
      <path class="cls-143" d="m106.01,177.13c-.2,2.33-1.84,3.92-2.98,5.76-.96,1.22-1.77,2.51-2.03,4.08-1.25.72-2.91,1.01-2.97,2.93-.57,1.38-1.37,2.5-2.96,2.82-.73.11-1.44.02-2.11-.31-.81-.62-1.38-1.34-.92-2.44-2.34-3.23-6.32-4.36-9.08-7.05-.56-1.58.68-2.38,1.45-3.38,1.34-1.32,2.68-2.63,3.99-3.98,1-.99,2.07-1.92,2.91-3.08.45-.71.77-1.48,1.21-2.2.57-.79,1.37-1.12,2.3-1.23.47-.03.92,0,1.38.08,1.7.36,2.93,1.36,3.8,2.83,2.29.43,4.34,1.35,6.01,3.01.61.72-.07,1.44,0,2.15Z"/>
      <path class="cls-53" d="m77.08,198.79c.4-.77-1.29-2.93.68-2.3,3.9,1.24,6.25-1.48,9.25-2.56.94-.4,1.18.22,1.36.92-.07.97-.47,1.8-1.03,2.57-1.12,1.35-2.61,1.89-4.3,2.01-2.03.17-4.04.16-5.96-.63Z"/>
      <path class="cls-18" d="m88.02,194.96c-.34-.34-.67-.68-1.01-1.03,1.14-2,3.35-2.65,5.03-3.96.34.64.67,1.28,1.01,1.92-.07.69-.45,1.21-.96,1.65-1.28.67-2.32,2.08-4.06,1.42Z"/>
      <path class="cls-82" d="m85.15,179.92c-.73,1-1.45,2-2.18,3-.66.01-1.32.02-1.97.04-.33-.33-.66-.66-.99-.99.8-2.97,2.8-2.93,5.14-2.05Z"/>
      <path class="cls-27" d="m77.08,198.79c1.99.06,3.98.13,5.96.19.33.22.44.44.32.65-.12.21-.23.31-.35.31-2.02.78-4.01.11-6.02-.1.03-.35.06-.7.08-1.05Z"/>
      <path class="cls-28" d="m99,203.93c-3.33,0-6.65.02-9.98.03,0-.33,0-.66,0-.99.18-.18.35-.37.53-.56,2.56-1.38,5.55-.19,8.14-1.35,2.1-.45,3.91-2.67,6.36-1.08-.92,2.29-3.76,2.12-5.04,3.94Z"/>
      <path class="cls-67" d="m89.01,202.98c-1.72-.9-5.15,1.02-4.96-3.02,1.12-1.04,2.23-2.09,3.85-2.28.37.25.65.58.84.98.36,1.02.55,2.08.74,3.14.02.44-.13.82-.46,1.13v.05Z"/>
      <path class="cls-69" d="m88.01,197.93c-1.36.59-2.22,2.16-3.95,2.03-.35,0-.69,0-1.04-.01.01-.32.02-.64.03-.96,1.33-.68,2.65-1.36,3.98-2.03.3-.36.66-.41,1.06-.17.22.4.18.78-.08,1.15Z"/>
      <path class="cls-29" d="m104.04,199.99c-2.02.67-4.03,1.34-6.05,2.01-.23-.04-.46-.08-.69-.11-1.05-.57-2.32-1.06-.89-2.51,2.49-.54,4.72-2.14,7.41-1.9.96.51,1.48,1.23,1.13,2.37-.3.04-.61.09-.91.15Z"/>
      <path class="cls-10" d="m104.95,199.84c-.31-.64-.62-1.27-.94-1.91-.16-.47-.25-.95-.03-1.41.66-1.39,1.63-2.43,3.24-2.65.58-.08.96.28,1.07.74.43,1.89-1.24,2.42-2.28,3.35-.02.65-.04,1.3-.06,1.95-.33-.02-.67-.04-1-.07Z"/>
      <path class="cls-49" d="m106.01,197.96c.6-.95,1.21-1.91,2.33-3.67-2.48.92-3.49,2.18-4.33,3.65-2.63.81-4.97,2.77-8,2.05-.83,2.18,1.53,1.08,1.99,1.93,0,0-.02.09-.02.09-2.83,1.9-5.98.55-8.97.93,0-.32,0-.65,0-.97.02-1.12-.03-2.21-1-3,0-.34-.01-.69-.02-1.03,0-.32,0-.63-.01-.95.64-1.15,1.86-1.67,2.77-2.53,1.51-.68,2.93-1.54,4.28-2.5.99-.68,1.99-1.36,2.98-2.04,2.27,2.01,4.61-.08,6.9.12,2.7.23,5.57-1.03,8.09.88-2.06,2.62-3.01,6.35-7,7.06Z"/>
      <path class="cls-8" d="m114.98,189.91c.38,1.02,1.11,1.71,2.09,2.13-.88.9-1.86,1.77-3.17,1.39-.19-.06.07-1.67.12-2.56.32-.32.64-.64.96-.96Z"/>
      <path class="cls-24" d="m109.98,138.04c-.79-.11-1.57-.24-1.96-1.08-.35-.2-.47-.4-.36-.61.11-.21.23-.31.34-.31,1.78.36,3.6.62,5.01,1.95-.99,1.6-2.02.18-3.03.04Z"/>
      <path class="cls-6" d="m108.01,136.04c0,.31,0,.61.02.92-2.36-.96-5.48-.13-7.06-2.96,2.35.68,4.7,1.36,7.05,2.04Z"/>
      <path class="cls-16" d="m81.22,144.95l6.8,1.03c1.55,1.65,3.44,1.81,5.49,1.27,1.61-.41,3.05.19,4.51.73.34.02.68.05,1.02.07.99,1.03,2.35,1.63,3.25,2.77.17.43.08.81-.24,1.13-1.19,1.85-1.14,3.9-.89,5.97-.2.1-.41.21-.61.31-.72-.04-1.22-.58-1.88-.78-1.4-.39-2.78-.87-4.37-1.4,1.68.93,3.38,1.13,4.91,1.81.96,1.26.2,2.67.36,4.01.17,1.68.32,3.36-1.44,4.41-1.2.36-2.37.02-3.55-.17-1.81-.46-3.67-.78-5.4-1.53-1.6-1.28-3.5-2.02-5.34-2.86-1.77-1.02-3.76-1.72-5.15-3.34-.71-1.16-1.37-2.35-2.2-3.44-.21-.43-.33-.87-.38-1.34.01-1.89.2-3.74,1.23-5.4.29-.89.7-1.72,1.33-2.42.7-.73,1.59-.87,2.54-.84Z"/>
      <path class="cls-145" d="m98.04,165.76c1.09-1.28.72-2.55,0-3.82,1.02-1.23,1.75-2.67,2.83-3.85,0,0,.29-.16.29-.16,2.1,1.58,4.22,3.02.66,5.47-.73.5-.54,2.35-.77,3.58-.3.34-.68.47-1.13.4-.84-.29-1.6-.67-1.87-1.62Z"/>
      <path class="cls-139" d="m113.05,153c-1.67-.01-3.35-.03-5.02-.04-.32,0-.63-.02-.95-.03-.67-.15-1.16-.54-1.56-1.07-.28-.62-.33-1.26-.19-1.92.15-.42.43-.75.81-.98,2.02,1.83,5.43,1.29,6.91,4.04Z"/>
      <path class="cls-141" d="m100.13,166.98c.3,0,.61,0,.91,0,1.15,1.52-.45,2.12-1.03,3.06-1.36,1.45-2.66-1.1-4.01-.06h-.49s-.49,0-.49,0c-.57-.55-.66-1.21-.47-1.94.31-.67.81-1.14,1.49-1.42,1.37.02,2.69.54,4.08.36Z"/>
      <path class="cls-22" d="m106.01,177.13c-1.12-.72-.12-1.44,0-2.15,1.33.88,3.49-.02,4.27,2.02-1.39,1.02-2.87-.58-4.28.14Z"/>
      <path class="cls-135" d="m113.61,166.65c-1.05.3-1.01-.38-.97-1.06.04-.56-.42-1.42.56-1.48.52-.03,1.38.31,1.55.7.38.92-.5,1.37-1.14,1.83Z"/>
      <path class="cls-73" d="m106.05,151.91c.34.34.69.68,1.03,1.03-1.98,1.22-3.24-1.26-5.04-.98-.02-.32-.04-.65-.04-.97,1.74-1.4,2.97-.58,4.05.92Z"/>
      <path class="cls-75" d="m96,169.98c1.36-1.76,2.67.31,4.01.06,0,.65,0,1.29,0,1.94-1.33-.66-2.67-1.33-4-1.99Z"/>
      <path class="cls-117" d="m106.14,148.96c-.11.3-.16.6-.15.92-2.89,1.17-4.77.54-5.07-2.87.4-.07.8-.14,1.2-.21,1.45.52,2.98.89,4.02,2.16Z"/>
      <path class="cls-74" d="m101,186.97c-1.24-2.32.58-3.1,2.03-4.08-.14,1.63-.72,3.03-2.03,4.08Z"/>
      <path class="cls-14" d="m85.15,179.92c-1.82.4-3.67.74-5.14,2.05-.83-.03-1.57-.22-2-1.03,1.96-1.48,1.44-3.01,0-4.44-1.96-1.94-4-3.8-6.01-5.7.74-2.64,3.85-3.88,4.05-6.84.56-.57,1.27-.72,2.03-.68,1.89.43,3.86.38,5.74.86,2.03.65,4.05,1.35,6.14,1.84.92.31,1.72.8,2.34,1.56.84.97.23,2.26.7,3.31.02.85-.13,1.63-.94,2.12-1.42.63-2.47,1.6-3.01,3.09-1.01,1.58-2.26,2.91-3.9,3.85Z"/>
      <path class="cls-124" d="m65.05,168.99c1.01.68,2.02,1.35,3.03,2.03-1.12,1.16-2.64.89-4.02,1.11-1.09-.87-1.11-2.03-.86-3.26.65-.5,1.28-.48,1.86.12Z"/>
      <path class="cls-121" d="m65.05,168.99c-.62-.04-1.24-.08-1.86-.12,0-.99.02-1.97.03-2.96.51-.56.1-1.53.85-1.98.29.02.58.06.88.1.03,1.65.07,3.31.1,4.96Z"/>
      <path class="cls-115" d="m64.07,163.93c-.29.66-.57,1.32-.85,1.98,0-1.6,0-3.2,0-4.8,1.06.7.81,1.8.85,2.82Z"/>
      <path class="cls-58" d="m78.02,164.12c-.66-.05-1.32-.1-1.98-.15-1.87-3.18-.85-6.61-.86-9.94.47-.28.88-.23,1.22.21,1.21,2.7.55,5.84,1.98,8.49.06.51-.06.97-.36,1.39Z"/>
      <path class="cls-30" d="m76,153.99c-.27,0-.55.02-.82.04-.1-2.23.35-4.29,1.87-6.03.29-.48.59-.49.91-.02-.93,1.85-.93,3.86-1.07,5.85-.17.7-.47.75-.88.16Z"/>
      <path class="cls-94" d="m81.22,144.95c-.41.96-1.27,1.09-2.16,1.17-.61-.71-.61-1.44-.06-2.17.15-1.35.66-2.46,2.04-2.96.06,1.32.11,2.64.17,3.96Z"/>
      <path class="cls-9" d="m86.9,135.1c-.82,1.6-1.86,2.91-3.88,2.93.87-1.54,1.83-2.95,3.88-2.93Z"/>
      <path class="cls-96" d="m79.01,143.95c.02.72.04,1.45.06,2.17-.37.62-.74,1.23-1.11,1.85-.3.01-.6.02-.91.02.09-1.62.79-2.95,1.96-4.05Z"/>
      <path class="cls-37" d="m100.92,147.01c1.17,1.88,2.56,3.37,5.07,2.87.02.68.04,1.35.06,2.03-1.29-.57-2.58-1.12-4.04-.93-1.33-.64-3.64-.28-2.97-2.93.63-.35,1.25-.69,1.88-1.04Z"/>
      <path class="cls-110" d="m88.98,143.07c2.14.47,4.44.42,6.23,1.99-.26,1.43-.99,1.73-2.18.88-1.38-1.49-3.76-.28-5.11-1.87.07-.63.65-.72,1.06-1Z"/>
      <path class="cls-123" d="m93.04,145.94c.72-.29,1.45-.59,2.17-.88,1.22.71,2.19,1.64,2.8,2.93-1.33.98-2.65.03-3.98,0-.34-.36-.97-.45-1.02-1.08,0-.32.01-.65.03-.97Z"/>
      <path class="cls-134" d="m93.01,146.91c.34.36.68.72,1.02,1.08-2.01-.66-5,1.65-6.02-2,1.66.31,3.33.62,4.99.93Z"/>
      <path class="cls-114" d="m88.98,143.07c-.35.33-.7.66-1.06,1-2.95-.35-1.92-2.47-1.95-4.83,1.36,1.47,1.47,3.3,3.01,3.83Z"/>
      <path class="cls-78" d="m89.04,176.07c.16-2.43.56-2.85,3.01-3.09-.68,1.34-1.73,2.33-3.01,3.09Z"/>
      <path class="cls-76" d="m92.99,170.87c-1.16-.68-.86-1.86-.97-2.89,1-.84,1.99-.84,2.98.02,0,.66.02,1.32.02,1.98-.79.03-1.59.05-2.03.89Z"/>
      <path class="cls-59" d="m95.04,191.94c-.88,1.64-2.02,2.94-4.05,3.06-.56-1.12.43-1.49,1-2.06.35-.35.7-.7,1.05-1.06.67.02,1.33.03,2,.05Z"/>
      <path class="cls-79" d="m91.99,192.95c-.33.69-.67,1.37-1,2.06-.56,1.32-1.59,1.94-3,1.97-.32,0-.65-.01-.97-.03.03-.82.19-1.57,1-2,1.38-.55,2.25-2.13,3.97-2.01Z"/>
      <path class="cls-51" d="m88.02,198.96c2.15.39,2.63,1.35,1,3-1.18-.72-.97-1.9-1-3Z"/>
      <path class="cls-35" d="m98.01,201.92c-.83.01-1.67.08-2.49.02-.76-.06-2.02.15-1.9-.98.14-1.34,1.5-.85,2.41-.97.66.64,1.33,1.29,1.99,1.93Z"/>
      <path class="cls-23" d="m94.99,167.99c-.99,0-1.98-.01-2.98-.02-.64-.33-1.29-.66-1.93-1-2.08-1.07-4.42-1.46-6.52-2.5-1.74-.04-3.48-.05-4.79-1.48-.17-.53-.06-1,.34-1.39,1.43-.95,2.91-.79,4.42-.24,1.74.91,3.69,1.37,5.31,2.54l6.1,1.04c.56.54,1.64.78,1.09,1.94-.34.37-.69.73-1.03,1.1Z"/>
      <path class="cls-106" d="m84.05,161.72c-1.66.05-3.31.1-4.97.15-1.13-.26-1.61-1.05-1.76-2.12.14-.99.23-2.04,1.69-1.76,1.6,1.14,3.73,1.44,4.96,3.16.03.19.05.38.08.56Z"/>
      <path class="cls-142" d="m78,160.06c.36.6.72,1.21,1.08,1.81,0,.35-.01.7-.02,1.05-.3.37-.65.44-1.05.16-3.56-2.4-1.34-6.07-2-9.1.3-.01.59-.07.88-.16.07.43.14.86.21,1.29,1.68,1.4-.28,3.47.91,4.95Z"/>
      <path class="cls-126" d="m99.05,157.87c-2.66,1.41-4.24-1.72-6.63-1.51,2.38-.97,4.61-.99,6.61.8.28.15.37.3.29.46-.09.16-.17.25-.26.25Z"/>
      <path class="cls-109" d="m84.05,161.72c-.05-.19-.07-.37-.08-.57,1.97.31,4.43-.23,4.88,2.76-1.97.07-3.65-.49-4.8-2.2Z"/>
      <path class="cls-40" d="m96.03,166.89c-.36-.65-.72-1.29-1.09-1.94,1.03.27,2.06.53,3.1.8.7.41,1.39.81,2.09,1.22-1.4,1.66-2.74.56-4.1-.08Z"/>
      <path class="cls-128" d="m99.05,157.87c-.02-.24-.02-.48-.03-.71.61.31,1.22.62,1.83.93.33,2.22-1.18,3.09-2.83,3.85.34-1.36.68-2.71,1.02-4.07Z"/>
      <path class="cls-107" d="m78,160.06c-1.81-1.38-.69-3.29-.91-4.95,2.62-.35,1.68,1.66,1.91,2.89-.81.46-.96,1.23-1,2.07Z"/>
      <path class="cls-111" d="m86.97,153.08c1.31.12,2.63.24,3.99.37-.26,1.85-1.35,1.59-2.21,1.35-.73-.2-1.37-.72-2.05-1.1.09-.21.18-.41.27-.62Z"/>
      <path class="cls-36" d="m78.01,163.09c.35-.05.7-.11,1.05-.16,1.65.4,3.3.8,4.95,1.2.3.19.41.37.31.57-.1.2-.19.29-.3.29-2.01-.25-4.19.71-6-.86,0-.34-.01-.69-.02-1.03Z"/>
      <path class="cls-132" d="m84.03,164.98c0-.29-.01-.58-.02-.86,2.04.91,4.55.85,6.08,2.86-2.24.02-4.31-.53-6.06-1.99Z"/>
    </g>
  </g>
</svg>