<?xml version="1.0" encoding="UTF-8"?>
<svg id="Layer_2" data-name="Layer 2" xmlns="http://www.w3.org/2000/svg" viewBox="0 0 263 263">
  <defs>
    <style>
      .cls-1, .cls-2, .cls-3, .cls-4, .cls-5, .cls-6, .cls-7, .cls-8, .cls-9, .cls-10, .cls-11, .cls-12, .cls-13, .cls-14, .cls-15, .cls-16, .cls-17, .cls-18, .cls-19, .cls-20, .cls-21, .cls-22, .cls-23, .cls-24, .cls-25, .cls-26, .cls-27, .cls-28, .cls-29, .cls-30, .cls-31, .cls-32, .cls-33, .cls-34, .cls-35, .cls-36, .cls-37, .cls-38, .cls-39, .cls-40, .cls-41, .cls-42, .cls-43, .cls-44, .cls-45, .cls-46, .cls-47, .cls-48, .cls-49, .cls-50, .cls-51, .cls-52, .cls-53, .cls-54, .cls-55, .cls-56, .cls-57, .cls-58, .cls-59, .cls-60, .cls-61, .cls-62, .cls-63, .cls-64, .cls-65 {
        stroke-width: 0px;
      }

      .cls-2 {
        fill: #f2ea36;
      }

      .cls-3 {
        fill: #f6df2a;
      }

      .cls-4 {
        fill: #f6df2b;
      }

      .cls-5 {
        fill: #f6e235;
      }

      .cls-6 {
        fill: #f6f038;
      }

      .cls-7 {
        fill: #f6e335;
      }

      .cls-8 {
        fill: #f8f339;
      }

      .cls-9 {
        fill: #f8e435;
      }

      .cls-10 {
        fill: #f8e85e;
      }

      .cls-11 {
        fill: #2d2a09;
      }

      .cls-12 {
        fill: #2d2b0a;
      }

      .cls-13 {
        fill: #0e0d03;
      }

      .cls-14 {
        fill: #232007;
      }

      .cls-15 {
        fill: #a89f24;
      }

      .cls-16 {
        fill: #1e1c06;
      }

      .cls-17 {
        fill: #ddda33;
      }

      .cls-18 {
        fill: #ded832;
      }

      .cls-19 {
        fill: #dbd331;
      }

      .cls-20 {
        fill: #d8d432;
      }

      .cls-21 {
        fill: #fcf239;
      }

      .cls-22 {
        fill: #fdf639;
      }

      .cls-23 {
        fill: #fdf339;
      }

      .cls-24 {
        fill: #fdfa3a;
      }

      .cls-25 {
        fill: #f1e134;
      }

      .cls-26 {
        fill: #f1e535;
      }

      .cls-27 {
        fill: #e3da33;
      }

      .cls-28 {
        fill: #efea37;
      }

      .cls-29 {
        fill: #efe936;
      }

      .cls-30 {
        fill: #eee034;
      }

      .cls-31 {
        fill: #efe736;
      }

      .cls-32 {
        fill: #faee85;
      }

      .cls-33 {
        fill: #ebdc33;
      }

      .cls-34 {
        fill: #faed7f;
      }

      .cls-35 {
        fill: #fefa3b;
      }

      .cls-36 {
        fill: #fefd3b;
      }

      .cls-37 {
        fill: #fefd3c;
      }

      .cls-38 {
        fill: #fefe3d;
      }

      .cls-39 {
        fill: #fef93a;
      }

      .cls-40 {
        fill: #fbf73a;
      }

      .cls-41 {
        fill: #fbf63a;
      }

      .cls-42 {
        fill: #fbf199;
      }

      .cls-43 {
        fill: #fbf539;
      }

      .cls-44 {
        fill: #fbf439;
      }

      .cls-45 {
        fill: #fefc3c;
      }

      .cls-46 {
        fill: #fefc3b;
      }

      .cls-47 {
        fill: #fefb3b;
      }

      .cls-48 {
        fill: #fefefe;
      }

      .cls-49 {
        fill: #eae435;
      }

      .cls-50 {
        fill: #eee135;
      }

      .cls-51 {
        fill: #eee936;
      }

      .cls-52 {
        fill: #eee;
      }

      .cls-53 {
        fill: #f0e435;
      }

      .cls-54 {
        fill: #f0e736;
      }

      .cls-55 {
        fill: #f0ed38;
      }

      .cls-56 {
        fill: #f0eb37;
      }

      .cls-57 {
        fill: #ebe536;
      }

      .cls-58 {
        fill: #e8d933;
      }

      .cls-59 {
        fill: #e7e034;
      }

      .cls-60 {
        fill: #e9e335;
      }

      .cls-61 {
        fill: #f4ef38;
      }

      .cls-62 {
        fill: #e9e034;
      }

      .cls-63 {
        fill: #e9e435;
      }

      .cls-64 {
        fill: #f4e836;
      }

      .cls-65 {
        fill: #020200;
      }
    </style>
  </defs>
  <g id="Layer_1-2" data-name="Layer 1">
    <g>
      <path class="cls-5" d="m119.01.08h7c4,.85,7.99.85,11.99,0h5c11.09.97,22.03,2.67,32.52,6.63,46.31,17.46,74.75,50.5,85.96,98.55.97,4.17.22,8.58,1.44,12.75v3c-.63.67-.63,1.33,0,2v4c-.85,3.33-.85,6.66,0,9.99v7.99c-1.13,11.77-3.37,23.23-7.82,34.29-13.79,34.26-37.45,58.87-71.19,73.87-12.73,5.66-26.11,8.55-39.91,9.77h-7c-3.33-.85-6.66-.85-9.99,0h-7.99c-10.92-.97-21.63-2.92-31.94-6.78-31.61-11.83-55.76-32.29-71.85-62.08-5.88-10.88-10.15-22.33-12.88-34.42-1.32-5.84-.85-11.85-2.26-17.64v-6c.8-3,.8-6,0-8.99v-6c1.32-7.48,1.47-15.1,3.45-22.54,6.24-23.41,17.78-43.88,34.85-60.84C56.74,19.4,78.89,7.55,104.28,1.95c4.87-1.07,9.93-.38,14.73-1.87Z"/>
      <path class="cls-48" d="m119.01.08c-4.03,2.74-8.87,2.03-13.3,2.91C51.5,13.76,8.96,59.22,1.86,114.09c-.3,2.31.32,5.01-1.78,6.92C.08,81.95.12,42.89,0,3.83,0,.71.7,0,3.82,0c38.4.12,76.79.08,115.19.08Z"/>
      <path class="cls-48" d="m.08,141.99c2.07,1.92,1.43,4.61,1.79,6.93,6.56,43.13,28.81,75.5,66.53,97.26,14.6,8.42,30.47,13.13,47.1,15.49,1.23.17,2.76-.33,3.51,1.24-38.4,0-76.79-.04-115.19.08-3.12.01-3.83-.71-3.82-3.82.12-39.06.08-78.12.08-117.18Z"/>
      <path class="cls-48" d="m262.92,118.01c-2.58-6.13-2.5-12.84-4.19-19.18C244.67,45.97,201.45,8.32,146.52,1.25c-1.23-.16-2.75.4-3.53-1.16C181.8.08,220.61.13,259.42,0c2.98,0,3.59.6,3.58,3.58-.13,38.14-.08,76.28-.08,114.43Z"/>
      <path class="cls-48" d="m143.99,262.92c1.57-1.99,3.98-1.31,5.96-1.62,58.87-9.18,101.6-51.66,111.43-110.78.3-1.83-.35-4.08,1.54-5.52,0,38.14-.04,76.28.08,114.43,0,2.98-.6,3.59-3.58,3.58-38.48-.13-76.95-.08-115.43-.08Z"/>
      <path class="cls-32" d="m137.99.08c-4,1.6-7.99,1.58-11.99,0h11.99Z"/>
      <path class="cls-34" d="m127,262.92c3.33-1.55,6.66-1.57,9.99,0h-9.99Z"/>
      <path class="cls-10" d="m262.92,137c-1.57-3.33-1.56-6.66,0-9.99v9.99Z"/>
      <path class="cls-32" d="m.08,127c1.61,3,1.61,6,0,8.99v-8.99Z"/>
      <path class="cls-42" d="m262.92,123.01c-1.06-.67-1.17-1.33,0-2v2Z"/>
      <path class="cls-48" d="m131.76,256.15c-69.55-.1-124.67-55.58-124.78-125.13C6.86,61.84,64.92,6.41,132.29,6.68c64.6.27,124.33,52.69,124.28,124.96-.05,72.34-60.22,125.69-124.81,124.51Z"/>
      <path class="cls-1" d="m253.47,132.31c-.64,67.46-55.31,121.3-122.49,120.63-66.99-.67-120.59-55.44-119.97-122.59C11.61,63.54,66.8,9.58,133.69,10.39c66.42.81,120.4,55.75,119.78,121.92Z"/>
      <path class="cls-48" d="m132.11,34.7c53.04-1.24,97.37,45.28,97.39,96.92.02,50.95-43,97.31-97.18,97.37-53.23.06-97.05-44.87-97.38-96.67-.34-53.24,45-98.79,97.17-97.62Z"/>
      <path class="cls-25" d="m180.63,35.4c-.55.29-.86.4-1.1.6-1.46,1.24-.75,5.63-4.34,3.58-3.19-1.82.22-3.92.64-5.85.37-1.75,1.26-3.42,2.09-5.03.55-1.07.46-2.94,2.22-2.81,1.85.13,2.78,1.49,3.17,3.31.44,2.09,1.07,4.15,1.81,6.9.98-1.65,1.73-2.76,2.33-3.95.7-1.4,1.46-2.2,3.01-1.03,1.06.8,2.31,1.38,1.24,3.11-1.92,3.09-3.47,6.43-5.64,9.32-2.31,3.08-3.3.06-3.91-1.5-.8-2.07-1.02-4.36-1.51-6.64Z"/>
      <path class="cls-56" d="m120.77,17.1c.65.4,1.69.66,1.88,1.22.41,1.2-1,.84-1.54,1.25-2.16,1.62-5.19-.73-7.25,1.53-.52,1.67-.65,3.32.08,4.97,1.15,2,3.04,2.81,4.8,1.48,1.3-.97,2.44-2.94,3.78-1.21,1.56,2.02-1.38,2.57-2.25,3.83-2.14.57-4.27.65-6.4-.04-6.44-4.13-6.43-9,.03-13.11,2.3-.63,4.6-.77,6.88.08Z"/>
      <path class="cls-26" d="m81.01,42.94c-2.93,2.05-5.87,3.5-9.23.76-2.6-2.12-3.69-4.83-2.48-7.9,1.36-3.47,4.05-5.69,7.93-6.02,1.05-.09,2.57-.44,2.8,1.09.19,1.27-.9,1.95-2.13,2.23-2.09.48-4.5.87-4.73,3.49-.36,4.1,2.26,4.84,5.64,4.36,1.7-.41,2.33.37,2.2,1.98Z"/>
      <path class="cls-7" d="m167.38,20.91c1.78,1.05,3.59,2.05,4.68,3.92.62,2.16.62,4.32,0,6.48-2.8,3.18-5.9,5.31-10.26,2.83.13-.68.52-1.18,1.08-1.56,1.27-.63,2.83-.81,3.55-2.29,1.26-4.36,1.09-4.57-3.51-4.65-2.01.99-.86,4.27-3.49,4.81-.49-.18-.81-.51-.97-1.01-.71-2.1-.53-4.12.51-6.07,1.18-.5.75-2.93,2.83-2.37,1.85-.7,3.71-.5,5.57-.09Z"/>
      <path class="cls-54" d="m152.18,23.15c-1.06,2.04-2.21,4.05-2.33,6.44-.06,1.23-.85,1.71-2.02,1.6-.99-.1-2.27-.2-2.08-1.53.38-2.56.06-4.88-1.12-7.19-1.01-1.98-1.77-4.09-2.86-6.66,3.1.25,5.21.52,5.6,3.86.1.89,1.68,1.61,2.58,2.4,1.13-.43,1.8.08,2.23,1.08Z"/>
      <path class="cls-30" d="m98.97,32.05c-.95,3.52-3.33,5.13-6.89,5.17-.58-.5-.69-1.15-.54-1.86.33-.85,1-1.47,1.45-2.23,1.05-1.85.69-3.73.12-5.61-.27-1.07-.65-2.14-.4-3.27.49-.94,1.65-.43,2.29-1.07,2.57.62,3.86,2.3,4.05,4.89-.36,1.32-.91,2.64-.08,3.99Z"/>
      <path class="cls-60" d="m115.38,234.49c-.58,3.25-1.11,6.33-1.71,9.41-.22,1.14-.51,2.32-2.15,2.07-1.6-.24-1.64-1.25-1.38-2.54.63-3.21,1.19-6.43,1.76-9.65.24-1.34.86-2.1,2.34-1.78,1.65.36,1.51,1.44,1.13,2.49Z"/>
      <path class="cls-47" d="m144.65,246.11c-1.01-1.47-1.13-2.23,1.16-2.04,2.06.17,4.15-.14,4.14-3.03-.41-.54-1.04-.72-1.62-1-.92-.54-2.15-.93-1.22-2.4,2.76.05,5.28,1.01,6.16,3.65.76,2.29-.66,4.07-3.1,4.74-1.83.66-3.67.49-5.51.08Z"/>
      <path class="cls-63" d="m128.1,240.22c-.75,2.7-2.91,4.48-4.39,6.7-1.25.38-2.79,1.48-2.78-1.16.69-1.54,3.33-3.08.02-4.63-.61-1.03-.49-1.9.55-2.58,1.96-.38,3.94-.28,5.91-.09.72.39,1.21.88.7,1.76Z"/>
      <path class="cls-31" d="m92.02,35.06c.02.72.04,1.44.06,2.15-1.68,1.35-3.24,2.93-4.38-.65-.57-1.81-1.98-3.35-1.95-5.42,1.06-2.27-.31-3.69-1.76-5.08.87-1.66,2.29-2.15,4.06-1.88.97.3,1.46,1,1.67,1.96.01,1.97.84,3.85.68,5.85-.76,1.71-.71,2.99,1.62,3.07Z"/>
      <path class="cls-59" d="m135.01,236.93c-1.7-1.73-.35-2.63,1.07-3.06,1.75-.54,2.21.7,2.16,2.2-.04,1.12-.09,2.24-.14,3.35.67,1.9.31,3.87.36,5.8.03,1.04-.26,2.04-1.51,2-1.27-.04-1.34-1.12-1.43-2.12-.24-2.72.52-5.51-.51-8.18Z"/>
      <path class="cls-36" d="m122.05,238.92c-.89.47-1.01,1.33-1.11,2.21-1.96-1.96-1.93-4.26-.16-6.01,1.68-1.66,4.14-2.39,6.13-.31,1.37,1.43,3.79,2.97,1.19,5.41-.51-.46-1.02-.93-1.53-1.39-1.52-.67-3.05-1.33-4.53.09Z"/>
      <path class="cls-57" d="m128.99,24.06c-.97-2.25.64-4.01,1.13-5.98,1.66-.99,3.18-2.64,5.37-1.13,1.33.78.53,1.95.56,2.97.62,1.94-1.36,1.27-1.96,1.99-.96.59-1.53,1.52-2.1,2.45-.25.37-.56.68-.92.93-1.1.28-1.53-.58-2.08-1.23Z"/>
      <path class="cls-38" d="m147.11,237.63c.62.7,1.24,1.39,1.87,2.09-1.35,1.22-2.85.68-4.33.37-1.58-7.13-.93-7.88,5.92-6.77.12,2.46-4.52,1.11-3.46,4.32Z"/>
      <path class="cls-17" d="m135.01,236.93c1.52,1.26.83,3,1,4.55.17,1.58-.38,3.25.74,5.04,2.33-2.13.67-4.87,1.35-7.1.28,2.12.59,4.24.82,6.37.12,1.09-.19,1.98-1.48,2.11-1.49.15-2.1-.63-2.14-2.03-.09-2.99-.19-5.97-.29-8.96Z"/>
      <path class="cls-23" d="m133.94,21.2c.71-.43,1.41-.86,2.12-1.28,1.91,2,2.06,4.52,2.14,7.07-.49.97-1.34,1.33-2.37,1.41-.3-.39-.6-.77-.9-1.16-.37-.53-.77-1.05-.9-1.71-.17-1.05-.29-2.11-.46-3.16-.03-.44.09-.83.38-1.17Z"/>
      <path class="cls-53" d="m81.01,42.94c-.46-.97-1.2-1.62-2.2-1.98,1.24-1.03.98-3.72,3.62-3.19.63.13,1.68.18,1.52.81-.46,1.74-.55,3.87-2.94,4.37Z"/>
      <path class="cls-30" d="m83.99,26.07c2.33-.37,3,1.14,3.52,2.99.47,1.68-.56,1.91-1.75,2.09-1.15-1.5-2.05-3.08-1.76-5.08Z"/>
      <path class="cls-33" d="m134.92,24.95c0,.76,0,1.53,0,2.29-2.13-.51-3.79.06-4.8,2.1-1.38-.87-1.77-2.08-1.23-3.61.04-.55.07-1.11.11-1.66.71.32,1.42.64,2.14.95,1.24-1.02,2.51-1.05,3.79-.07Z"/>
      <path class="cls-37" d="m89.14,26.46c-.36-.76-.72-1.52-1.09-2.27,2.14-1.54,4.39-2.27,6.94-1.02-.44.76-1.17.9-1.96.93-.47.98-.92,1.98-2.01,2.46-.64.22-1.28.24-1.89-.09Z"/>
      <path class="cls-55" d="m158.98,23.37c0,2.23.02,4.46.03,6.7.35.52.28.98-.19,1.39-1.92-2.74-2.5-5.44.17-8.08Z"/>
      <path class="cls-9" d="m158.81,31.45c.06-.46.13-.92.19-1.39.32,0,.65,0,.97,0,.5-.57,1.12-.65,1.8-.44.4.22.72.53.97.9.4.81.83,1.61.24,2.51l-1.18,1.09c-.91-.99-2.64-1.07-2.99-2.69Z"/>
      <path class="cls-37" d="m151.13,20.05c1-3.15,3.44-2.03,5.97-2.1-1.11,2.05-2.08,3.62-4.07,4.28-.41-.92-1.15-1.56-1.9-2.18Z"/>
      <path class="cls-39" d="m135.5,16.95c-2.06-.91-3.27,2.23-5.37,1.13,1.17-3.32,2.82-4.36,5.37-1.13Z"/>
      <path class="cls-35" d="m135.82,28.4c.46-1.02,1.36-1.31,2.37-1.41,1.37.54,2.31,1.9,1.23,2.77-1.01.8-3.16,1.1-3.59-1.36Z"/>
      <path class="cls-47" d="m128.88,25.73c.41,1.2.82,2.41,1.23,3.61-1.09,1.05-2.9,1.14-3.32.17-.69-1.57.82-2.81,2.09-3.79Z"/>
      <path class="cls-33" d="m151.13,20.05c2.21-.64,3.27-.28,1.9,2.18-.28.31-.56.61-.84.92-.74-.36-1.49-.72-2.23-1.08.39-.67.78-1.34,1.18-2.02Z"/>
      <path class="cls-18" d="m120.77,17.1c-2.29-.03-4.59-.05-6.88-.08,2.31-1.32,4.61-1.75,6.88.08Z"/>
      <path class="cls-27" d="m113.85,30.13c2.13.01,4.27.03,6.4.04-2.14,1.28-4.28,1.38-6.4-.04Z"/>
      <path class="cls-50" d="m172.06,31.31c0-2.16,0-4.32,0-6.48,1.57,2.16,1.59,4.32,0,6.48Z"/>
      <path class="cls-19" d="m167.38,20.91c-1.86.03-3.72.06-5.57.09,1.84-1.19,3.7-1.2,5.57-.09Z"/>
      <path class="cls-45" d="m98.97,32.05c-1.35-1.36-1.38-2.69.08-3.99.73,1.34.6,2.67-.08,3.99Z"/>
      <path class="cls-49" d="m144.64,240.09c1.44-.12,2.89-.24,4.33-.36.32.44.65.87.97,1.31-1.64-1.04-3.77.7-5.3-.95Z"/>
      <path class="cls-62" d="m120.93,245.76c.58,1.22,1.7,1.14,2.78,1.16-.98,1.3-2.24.78-3.25.25-.55-.29-.14-1.07.47-1.41Z"/>
      <path class="cls-20" d="m144.65,246.11c1.84-.03,3.67-.06,5.51-.08-1.82,1.34-3.66,1.24-5.51.08Z"/>
      <path class="cls-58" d="m113.93,26.06c-1.41-1.63-1.4-3.29-.08-4.97.03,1.66.05,3.31.08,4.97Z"/>
      <path class="cls-5" d="m225.08,138.07c-2.05,31.86-17.37,55.8-43.73,73.11-2.49,1.63-5.22,2.88-7.84,4.31-3.32-1.82-4.3-5.21-5.3-8.42-.76-2.44.99-3.97,2.99-5.14,4.12-2.41,8.23-4.86,12.46-8.27-11.54.24-21.66,3.62-31.72,7.33-6.85,2.52-13.65,5.17-20.85,6.59-2.13.42-4.25.75-6.41.24-4.18-.78-8.34-.81-12.51.06-1.53.3-3.05.15-4.54-.26-.29-.13-.58-.29-.69-.56-.4-1,.16-1.35,1.05-1.43-.85-.3-1.31.35-1.86.78-1.93.83-3.31-.35-4.67-1.16,1.27,1.5,3.39,1.42,5.14,2.15,2.46,1.19,5.75.26,7.61,2.98,1.23,1.89,3.41,1.47,5.05,1.62,8.8.78,17.64,1.44,26.42-.32,4.17-3.11,9.33-3.14,14.07-4.46,1.36-.38,2.7.4,3.33,1.69,1.52,3.1,3.91,5.82,4.27,9.44-39.12,13.92-73.97,6.9-102.91-22.97-20.81-21.47-28.24-48.03-24.17-77.7.09-.63.45-1.23.68-1.85.74.41.36,1.26.71,1.82-.28-.85.19-1.89-.61-2.62,2.62-17.43,10.55-32.31,22.09-45.37,4.39-4.97,9.09-9.67,14.89-13.08,2.01,3.68,2.86,8.11,7.8,9.67,2.42.76,1.17,2.72-.1,3.91-2.18,2.05-4.89,3.44-7.06,5.54-11.27,10.93-18.94,23.92-22.81,39.16-.49,1.93.02,4.52-2.71,5.38-.77-.42-.32-1.41-.91-2-.18-.56-.5.63-.14.07.53,1.41,1.15,2.78,1.82,4.13.75,3.27.44,6.59.43,9.88-.04,7.14,2.24,13.63,5.33,19.92,2.98,6.05,8.82,8.14,14.46,10.51,1.77.74,4,.66,5.08,2.7-.24.55-.37,1.34-1.25.63.1.45.41.45.78.39,2.95-.47,5.79.36,8.69.69,8.23,1.52,16.38-.26,24.57-.65.84-.04-.61-.69-.19-1.2.65-1.13,1.8-1.42,2.92-1.74,10.89-3.09,21.33-7.41,31.94-11.31,16.73-6.15,33.96-9.08,51.85-6.83,3.13.39,6.33-.03,9.44.62,3.36.7,3.46-2.41,4.87-3.98,1.25-.84,1.12.73,1.72,1.01-.07-1.33-1.16-2.23-1.49-3.46-.19-5.12-2.5-8.21-7.92-8.52-1.11-.06-2.27-.49-2.42-1.95.96-.85,1.95-.96,2.7-.41-2.46-.35-6.1-.08-4.99-4.75-.2.12-.06.32-.11.48-.09.3-.27.56-.56.77-2.16-.5-2.02-2.45-2.38-3.97-3.41-14.5-10.94-26.51-22.7-35.48-9.14-6.97-19.83-10.69-31.26-12.36-12.57-1.83-24.49.04-35.98,5.29-4.49,2.05-6.15,1.53-8.42-2.93-2.73-5.36-6.77-10.33-4.54-17.2.85-2.61-.5-5.2-3.12-6.79-.89-.54-2.32-.84-1.96-2.45,56.67-29.87,126.77,6.18,135.36,69.64.27,1.97.19,3.98.27,5.97-.28,4.37-.11,8.74.04,13.11Z"/>
      <path class="cls-1" d="m53.16,120.22c2.59-10.3,5.8-20.32,11.65-29.37,5.27-8.17,11.21-15.61,19.47-20.98.91-.59,2.16-.98,2.52-2.61-6.62-.5-8.56-4.91-8.76-10.7,2.07-5.11,5.7-7.76,11.36-7.23,7.05,3.45,7.94,5.45,5.5,13.61-.77,2.56,1.01,4.05,1.89,5.87,1.65,3.43,2.84,7.98,5.65,9.68,2.77,1.67,6.35-2.25,9.74-3.37,22.92-7.55,44.56-3.93,63.65,9.81,12.34,8.88,20.23,21.98,23.14,37.44.18.96.59,1.88.89,2.81.77,1.44,1.31,3.05,2.86,3.92.78.24,1.55.57,2.35.71,8.21,1.46,8.78,2.1,8.99,10.19.4.65.5,1.27-.21,1.79-.33,1.1-.91,2.18-.95,3.29-.1,2.48-1.21,3.02-3.53,2.66-26.07-4.15-50.97-.11-74.94,10.69-7.27,3.28-15.01,5.3-22.7,7.41-7.18,3.2-14.8,1.83-22.25,2.1-3.31-1.06-6.98-.41-10.16-2.12-3.11-1.05-6.29-1.96-9.33-3.18-12.26-4.94-15.19-15.82-16.8-27.27-.62-4.38-.17-8.92-.21-13.38-.46-.64-.57-1.25.17-1.77Z"/>
      <path class="cls-65" d="m167.36,218.33c-2.15-1.47-3.24-3.96-3.91-6.08-1.29-4.04-3.38-4.83-6.76-3.03-3.1,1.65-7.32.24-9.72,3.65-.92.53-1.88,0-2.82.09-1.77-.12-3.5.13-5.23.48-4.08-.01-8.16.02-12.23-.02-1.85-.55-3.76-.47-5.65-.49-2.32-.54-4.96-.02-6.82-2.07-2.73-.98-5.46-1.97-8.19-2.95-.25-.22-.36-.46-.34-.72.03-.28.08-.41.14-.41.39-.25.8-.29,1.23-.12l4.96.21c4.32-.63,8.64-.64,12.96,0,8.84-.16,16.83-3.6,24.95-6.51,9.55-3.43,19.02-7.12,29.31-7.79,2.13-.14,4.26-.45,6.78.38-3.86,4.48-8.76,7.1-13.58,9.57-3.49,1.79-4.39,3.46-2.15,6.8,1.29,1.91,2.15,4.11,3.21,6.17-2.05.94-4.09,1.89-6.14,2.84Z"/>
      <path class="cls-3" d="m225.08,138.07c-1.87-4.36-1.81-8.73-.04-13.11.98,4.37,1.03,8.74.04,13.11Z"/>
      <path class="cls-4" d="m41.05,115.01c1.33,1.07,1.1,2.43.75,3.91-1.32-.82-.48-2.12-.84-3.1-.11-.28-.08-.55.09-.8Z"/>
      <path class="cls-12" d="m162.08,30.56c.06-.26-.04-.43-.3-.51-.7-1.65-.61-3.26.29-4.82,1.85-1.22,4.14-2.26,5.77-.5,1.91,2.06,1.21,4.55-.88,6.47-1.97,2.33-3.47,1.16-4.89-.65Z"/>
      <path class="cls-21" d="m162.07,25.24c-.48,1.58-.71,3.18-.29,4.82-.6,0-1.2,0-1.81,0,.42-1.69.84-3.38,1.29-5.07.02-.06.3-.1.44-.06.14.04.25.2.37.3Z"/>
      <path class="cls-37" d="m162.08,30.56c1.52,1.03,3.1,1.64,4.89.65-.42,2.58-2.46,1.64-3.98,1.83-.3-.83-.6-1.65-.91-2.48Z"/>
      <path class="cls-13" d="m89.14,26.46c.63-.13,1.26-.27,1.88-.4,1.46-1.12,2.22-.02,3.01.96,1.68,2.32,1.22,4.63-.05,6.94-2.14,1.06-3.6.8-3.78-1.94-.78-1.77-2.53-3.34-1.07-5.54Z"/>
      <path class="cls-30" d="m90.21,32.01c.88,1.39,1.86,2.57,3.78,1.94-.37.88-1.12,1.08-1.97,1.11-.91.36-1.65,2.63-2.81.31-.68-1.37-1.97-3.03,1-3.37Z"/>
      <path class="cls-31" d="m94.04,27.02c-1-.32-2.01-.64-3.01-.96.38-.95,1.04-1.62,2.01-1.96.33.97.67,1.95,1,2.92Z"/>
      <path class="cls-11" d="m122.05,238.92c-.47-1.42.3-2.39,1.48-2.58,1.71-.28,2.69.85,3.04,2.49-1.48,1.56-3,.74-4.53.09Z"/>
      <path class="cls-16" d="m133.94,21.2c.04.28.1.55.18.81.57,3.12-1.05,2.8-3.02,1.93.98-.88.77-2.99,2.84-2.74Z"/>
      <path class="cls-15" d="m131.1,23.94c1.55.21,3.19.56,3.02-1.93.98.78.99,1.83.8,2.93-1.26.02-2.53.05-3.79.07,0-.36-.02-.72-.03-1.08Z"/>
      <path class="cls-1" d="m59.95,166.99c.56-.9,1.27-1.03,1.96-.21,9,10.68,21.35,13.25,34.35,14.12,12.3.82,24.15-1.34,35.6-5.79,12.22-4.74,24.49-9.31,37.36-12.01,3.09-1.65,6.41-1.47,9.74-1.19,8.48-.05,16.95-.3,25.43.28,3.43.24,3.94,1.31,2.28,4.16-2.01,3.43-3.93,6.93-5.66,10.51-.96,1.99-2.53,1.86-4.14,1.71-22.03-1.99-42.07,5.13-61.87,13.42-16.98,6.86-33.97,7.87-50.96.04-10.19-4.79-17.19-12.86-22.88-22.27-.8-.74-1.58-1.5-1.21-2.76Z"/>
      <path class="cls-29" d="m84.04,192.02c16.99,6.68,33.98,5.47,50.96-.04-.7,1.89-2.55,1.98-4.07,2.49-13.41,4.43-26.95,4.89-40.56,1.07-2.32-.65-4.98-.99-6.33-3.52Z"/>
      <path class="cls-64" d="m89.01,167.03c7.59-.1,15.19.1,22.72-1.18.66.07,1.31.15,1.97.22-8.75,2.73-17.58,4.24-26.69,1.92.47-.73,1.48-.33,1.99-.96Z"/>
      <path class="cls-61" d="m114.21,210.86c2.27.41,4.55.82,6.82,1.24,1.75.81,3.72,0,5.48.74,4.31,0,8.62,0,12.93,0,1.77-.75,3.75.06,5.52-.75.96-.49,1.31.6,2,.78-.54.34-1.09.98-1.63.97-11.15-.33-22.47,1.72-34.17-2.56,1.51-.21,2.28-.31,3.04-.42Z"/>
      <path class="cls-6" d="m178.96,161.9c-3.25.4-6.49.8-9.74,1.19-1.09-.12-2.18-.23-3.28-.35,4.35-.97,8.58-3.22,13.02-.85Z"/>
      <path class="cls-8" d="m89.01,167.03c-.45.78-1.19.93-1.99.96-3.45.42-6.65-.88-10-1.82.77-.11,1.54-.23,2.31-.34,3.23.4,6.46.8,9.69,1.2Z"/>
      <path class="cls-43" d="m202.72,129.12c-3.43.5-2.89-1.89-2.86-3.92.08-.64.16-1.28.25-1.92.58,3.3,2.27,5.34,5.9,5.46-1.09.13-2.19.25-3.28.38Z"/>
      <path class="cls-40" d="m124.99,206.86c-4.32.71-8.64.65-12.96,0,4.32-1.48,8.64-1.49,12.96,0Z"/>
      <path class="cls-14" d="m106.05,206.83c0,.36-.02.72-.03,1.08-2.31.03-4.04-1.13-6.01-2.64,2.39-.68,4.07.73,5.95.78.32.14.44.3.36.49-.09.2-.18.29-.27.29Z"/>
      <path class="cls-39" d="m106.05,206.83c-.01-.26-.04-.52-.09-.78,1.03-1.47,2.49-1.11,4.52-.88-1.46.64-2.44,1.06-3.42,1.49-.34.06-.68.12-1.01.18Z"/>
      <path class="cls-44" d="m97.59,60.25c-.8-1.52-.69-2.86-.11-4.4.82,1.52.71,2.85.11,4.4Z"/>
      <path class="cls-22" d="m213.86,141.81c.07-.6.14-1.2.21-1.79,1.21,1.25,1.1,2.63.23,4.74-.21-1.4-.32-2.17-.43-2.95Z"/>
      <path class="cls-2" d="m59.95,166.99c.4.92.81,1.84,1.21,2.76-2.31-.08-2.29-1.18-1.21-2.76Z"/>
      <path class="cls-24" d="m53.16,120.22c-.06.59-.12,1.18-.17,1.77-1.26-1.1-1.03-2.46-.7-3.92,1.25.38.49,1.5.88,2.15Z"/>
      <path class="cls-48" d="m130.9,105.45c-.34-5.22,2.33-9.88,6.36-13.9,16.49-16.46,20.12-15.21,37.01-2.79,2.76,2.03,2.14,3.13.19,5.21-1.99,2.13-3.09.71-4.51-.38-.8-.61-1.78-1.28-2.65-.39-.96.98,0,1.7.66,2.45.89,1.01,3.67,1.53,1.2,3.6-1.56,1.31-2.78,4.29-5.51,1.36-.73-.79-1.85-1.85-3.01-.77-1.45,1.36.19,2.15.98,2.66,3.63,2.33.33,3.2-.85,4.55-.79.9-2.71,1.55-1.44,3.11,1.24,1.52,2.49.08,3.33-.77,2.12-2.15,4-3.5,6.1.02.54.9,1.51,2.17,2.75.82,1.16-1.26-.31-2.03-.88-2.94-.84-1.36-3.1-2.29-.72-4.42,2.03-1.82,3.58-3.56,5.58-.07.56.98,1.63,1.99,2.82.71.94-1.01-.17-1.79-.69-2.56-.98-1.48-3.3-2.43-.85-4.83,1.95-1.91,3.26-2.53,4.96-.03.37.54.92.96,1.37,1.45,11.5,12.67,10.35,21.47-4.08,30.71-.78.5-1.82.75-2.77.82-8.35.6-16.43,2.51-24.33,5.1-2.52.82-4.29.48-6.39-1.02-9.18-6.53-14.66-16.47-14.62-27.7Z"/>
      <path class="cls-48" d="m144.73,136.55c-10.91,3.89-20.43,7.26-29.93,10.7-1.48.53-2.71,1.09-3.85-.66-6.99-10.74-12.61-21.81-10.43-35.32.63-3.89,2.71-6.21,5.91-8,3.11-1.74,6.5-2.47,9.97-2.88,9.29-1.11,10.66-.08,11.44,9.18.9,10.63,6.33,18.64,14.19,25.32.5.43,1.12.71,2.69,1.68Z"/>
      <path class="cls-48" d="m90.15,152.3c-14.11.56-11.82,1.05-14.19-9.26-1.73-7.54-1.84-15.14.11-22.71,2.02-7.79,12.16-14.83,20.16-14.1,1.71.16,1.9.86,1.57,2.24-3.34,14.01,1.25,26.17,8.95,37.53,1.63,2.41,1.8,3.46-1.56,4.11-5.72,1.11-11.43,2.12-15.05,2.18Z"/>
      <path class="cls-48" d="m149.38,77.02c-7.99,5.58-15.32,11.45-20.33,19.65-.94,1.54-2.44.65-3.65.52-7.82-.88-15.28.11-22.22,4.01-2.08,1.17-4.3,1.7-6.68,1.75-5.33.12-10.21,2.13-15.45,4.63,8.75-23.15,42.88-38.27,68.34-30.55Z"/>
      <path class="cls-5" d="m71.16,140.76c.96,2.91,1.76,5.85,1.74,9.56-6.04-3.37-8.99-8.1-9.74-14.35.64-3.98.66-7.96,0-11.94,2.07-19.05,11.77-33.51,26.94-44.67,1.11.09,2.07-.42,3.09-.71,2.98,3.39,2.57,4.99-1.59,7.97-8.14,5.83-12.77,14.81-16.54,24.02-1.12,2.74-1.93,5.6-2.88,8.41-1.87,3.82-1.97,7.83-1.34,11.92.05,2.68.1,5.36.15,8.04-.88,1.47-.25,2.98-.43,3.84-.15-.33-.26-1.27.6-2.09Z"/>
      <path class="cls-52" d="m193.72,118.72c.59.62.76.71.79.85q2.27,9.47-9.78,8.92c2.4-4.04,5.77-6.71,8.99-9.77Z"/>
      <path class="cls-51" d="m70.83,130.97c-.97-4.13-2.14-8.29,1.34-11.92-.45,3.97-.9,7.95-1.34,11.92Z"/>
      <path class="cls-41" d="m63.16,124.03c1.41,3.98,1.41,7.96,0,11.94-.78-3.98-.6-7.96,0-11.94Z"/>
      <path class="cls-46" d="m71.16,140.76c-.14,1.09-.29,2.18-.54,4.06-.71-2.55-1.1-4.26.36-5.81.06.58.12,1.17.18,1.75Z"/>
      <path class="cls-28" d="m93.19,78.65c-.75,1.48-1.78,1.72-3.09.71.99-.44,1.55-2.71,3.09-.71Z"/>
      <path class="cls-5" d="m126.52,212.83c-1.85-.07-3.82.76-5.48-.74,1.87-.07,3.75-.21,5.48.74Z"/>
      <path class="cls-5" d="m144.96,212.09c-1.67,1.51-3.65.66-5.51.75,1.74-1,3.63-.84,5.51-.75Z"/>
    </g>
  </g>
</svg>