<?xml version="1.0" encoding="UTF-8"?>
<svg id="Layer_2" data-name="Layer 2" xmlns="http://www.w3.org/2000/svg" xmlns:xlink="http://www.w3.org/1999/xlink" viewBox="0 0 348 432.72">
  <defs>
    <style>
      .cls-1 {
        clip-path: url(#clippath);
      }

      .cls-2, .cls-3, .cls-4 {
        fill: none;
      }

      .cls-2, .cls-5, .cls-6, .cls-7, .cls-8 {
        stroke-width: 0px;
      }

      .cls-9 {
        clip-path: url(#clippath-1);
      }

      .cls-3 {
        stroke: #000;
        stroke-width: 3.19px;
      }

      .cls-5 {
        fill: #25408a;
      }

      .cls-5, .cls-6, .cls-7, .cls-8 {
        fill-rule: evenodd;
      }

      .cls-6 {
        fill: #e19600;
      }

      .cls-7 {
        fill: #d41c5b;
      }

      .cls-8 {
        fill: #fff;
      }

      .cls-4 {
        stroke: #25408a;
        stroke-width: 6px;
      }
    </style>
    <clipPath id="clippath">
      <rect class="cls-2" width="348" height="432.72"/>
    </clipPath>
    <clipPath id="clippath-1">
      <rect class="cls-2" width="348" height="432.72"/>
    </clipPath>
  </defs>
  <g id="Layer_1-2" data-name="Layer 1">
    <g>
      <g class="cls-1">
        <path class="cls-8" d="m172.73,428.38c172.16-78.54,177-227.59,169.2-387.16-60.12-.19-115.85-13.53-167.95-37.76C119.58,29.67,62.78,42.26,3.57,41.22c-1.5,198.86,3.32,286.87,169.15,387.16h0Z"/>
        <path class="cls-4" d="m172.73,428.37c172.16-78.54,177-227.59,169.2-387.16-60.12-.19-115.85-13.53-167.95-37.76C119.58,29.67,62.78,42.26,3.57,41.22c-1.5,198.86,3.32,286.87,169.15,387.16h0Z"/>
        <path class="cls-7" d="m.52,51.55c-3.28,143.59,8.6,213.01,42.36,263.38L179.4,8.88C138.18,39.51,61.39,53.3.52,51.55h0Z"/>
      </g>
      <path class="cls-5" d="m167.89,104.85c-12.22-.34-25.94,6.26-29.34,12.73l-56.78,130.37c-2.55,7.08,4.85,17.1,11.63,15.35l72.55-15.63c2.3-.51,3.36-1.51,3.47-3.99l-.84-9.96c-.17-1.92-2.09-2.38-4.34-1.73l-56.68,14.05c-3.05.89-5.57-.85-4.6-3.16,21.03-47.34,42.84-111.41,53.52-116.47l11.41-2.6c1.82-.33,2.43-.96,2.38-2.62l.11-13.08c0-2.38-.13-3.35-2.49-3.27h0Z"/>
      <path class="cls-5" d="m246.93,239.28c1.96.33,2.59-.13,1.46-2.23l-51.65-110.21c-.94-1.82-3.09-1.38-2.96.26l2.42,103.18,50.72,9Zm-67.71-134.43l16.96,1.58c9.43,1.95,15.87,9.75,19.85,17.55l50.33,111.6c4.69,10.88-1.14,20.83-12.16,19.72l-73.95-10.63c-1.97-.28-2.74-.62-2.74-3.01l-1.89-133.38c-.01-2.74.8-3.5,3.59-3.43h0Z"/>
      <path class="cls-5" d="m235.61,293.21l13.12-8.57c-14.55-22.06-38.9-33.87-74.01-34.42-108.63,6.69-114.58,133.68,0,142.08,31.47,1.34,53.76-9.99,68.66-27.16l-11.62-10.46c-15.41,13.39-33.94,23.49-57.03,21.52-93.11-4.65-85.6-103.47,0-112.02,22.17.47,42.85,7.31,60.89,29.04h0Z"/>
      <path class="cls-6" d="m176.12,270.93c16.14,0,31.61,5.23,43.02,14.54,11.41,9.31,17.82,21.95,17.82,35.11,0,20.09-14.82,38.19-37.56,45.88-22.73,7.69-48.9,3.44-66.3-10.77-17.4-14.2-22.61-35.56-13.19-54.12,9.42-18.55,31.6-30.65,56.21-30.65h0Z"/>
      <path class="cls-3" d="m176.12,270.93c16.14,0,31.61,5.23,43.02,14.54,11.41,9.31,17.82,21.95,17.82,35.11,0,20.09-14.82,38.19-37.56,45.88-22.73,7.69-48.9,3.44-66.3-10.77-17.4-14.2-22.61-35.56-13.19-54.12,9.42-18.55,31.6-30.65,56.21-30.65h0Z"/>
      <path class="cls-6" d="m182.92,271.23c-14.21,7.59-6.7,24.33,9.98,24.33,15.57,0,43.58,20.27,43.58,31.25"/>
      <path class="cls-3" d="m182.92,271.23c-14.21,7.59-6.7,24.33,9.98,24.33,15.57,0,43.58,20.27,43.58,31.25"/>
      <path class="cls-6" d="m228.14,346.3c-1.21-3.88-5.26-5.35-9.13-7.11-5.12-2.34-10.2-1.83-14.65-1.64-1.22-.68-.76-14.5-28.42-16.51-20.36-1.48-7.46-25.73,8.46-27.15"/>
      <path class="cls-3" d="m228.14,346.3c-1.21-3.88-5.26-5.35-9.13-7.11-5.12-2.34-10.2-1.83-14.65-1.64-1.22-.68-.76-14.5-28.42-16.51-20.36-1.48-7.46-25.73,8.46-27.15"/>
      <path class="cls-6" d="m120.87,341.41c13.72,4.76,22.05-7.35,18.3-18.33-5.97-17.48,7.34-38.72,19.13-50"/>
      <path class="cls-3" d="m120.87,341.41c13.72,4.76,22.05-7.35,18.3-18.33-5.97-17.48,7.34-38.72,19.13-50"/>
      <path class="cls-6" d="m140.04,329.57c9.84,12.14,32.58,2.93,35.83-8.53"/>
      <path class="cls-3" d="m140.04,329.57c9.84,12.14,32.58,2.93,35.83-8.53"/>
      <path class="cls-6" d="m204.27,337.55c-9.09,14.58-44.42,23.53-63.37,23.53"/>
      <path class="cls-3" d="m204.27,337.55c-9.09,14.57-44.42,23.53-63.37,23.53"/>
      <g class="cls-9">
        <path class="cls-5" d="m307.61,306.66c31.43-54.83,42.34-137.72,34.32-265.45-53.1,1.3-116.49-17.04-167.95-37.76-4.36-1.76-2.97,5.32-7.23,3.4l140.86,299.81Z"/>
      </g>
      <path class="cls-7" d="m313.19,185.95c4.13,0,7.48,3.5,7.48,7.82s-3.35,7.82-7.48,7.82-7.48-3.5-7.48-7.82,3.35-7.82,7.48-7.82h0Zm-19.11,1.11c4.16,0,7.54,3.6,7.54,8.05s-3.38,8.05-7.54,8.05-7.53-3.61-7.53-8.05,3.37-8.05,7.53-8.05h0Zm-19.11-.33c4.01,0,7.26,3.23,7.26,7.21s-3.25,7.21-7.26,7.21-7.26-3.23-7.26-7.21,3.25-7.21,7.26-7.21h0Zm1.65-48.68c-14.69,3.3-19.41,16.39-18.05,33.01.45,2.77,2.83,5.21,5.66,5.71,4.2.75,8.17-5.08,11.51-7.73,3.26-2.58,4.13,6.59,6.43,10.06.81,1.23,2.76.92,3.65-.6,1.7-2.91,3-8.72,5.81-8.77,2.76-.04,3.99,6.09,5.71,8.48.79,1.09,3.18,1.13,3.96-.08l4.15-6.38c2.69-4.13,6.16,7.17,12.32,7.03,3.83-.13,8.49-2.2,9.1-6.38,1.74-20.7-7.05-32.67-23.48-34.61l-26.77.24Z"/>
      <path class="cls-7" d="m306.35,110.11c4.13,0,7.48,3.5,7.48,7.82s-3.35,7.82-7.48,7.82-7.48-3.5-7.48-7.82,3.35-7.82,7.48-7.82h0Zm-19.11,1.11c4.16,0,7.53,3.61,7.53,8.05s-3.38,8.05-7.53,8.05-7.53-3.61-7.53-8.05,3.38-8.05,7.53-8.05h0Zm-19.11-.33c4.01,0,7.26,3.23,7.26,7.21s-3.25,7.21-7.26,7.21-7.25-3.23-7.25-7.21,3.25-7.21,7.25-7.21h0Zm1.65-48.68c-14.69,3.3-19.41,16.38-18.05,33.01.45,2.77,2.82,5.21,5.66,5.72,4.2.75,8.16-5.08,11.51-7.73,3.26-2.58,4.14,6.59,6.43,10.06.81,1.23,2.76.93,3.65-.6,1.7-2.91,3-8.72,5.81-8.77,2.77-.05,3.99,6.09,5.72,8.48.78,1.09,3.17,1.13,3.96-.08l4.15-6.38c2.68-4.13,6.16,7.17,12.31,7.03,3.83-.13,8.49-2.2,9.1-6.38,1.74-20.7-7.05-32.67-23.48-34.61l-26.77.25Z"/>
      <path class="cls-8" d="m25.36,198.04l8.45,5.19L100.79,72.64l17.1,5.24,2.96-8.91-15.88-4.61,6.57-12.64-8.88-4.13-7.23,13.12-18.76-6.73-3,9.22,17.29,6.62L25.36,198.04Z"/>
      <path class="cls-8" d="m32.39,59.39l-9.09,4.48,50.29,104.99-11.74,6.16,5,8.39,10.95-5.19,6.59,10.39,7.61-5.4-4.6-10.47,14.8-7.3-3.89-8.68-14.7,7.15L32.39,59.39Z"/>
    </g>
  </g>
</svg>