<?xml version="1.0" encoding="UTF-8"?>
<svg id="Layer_2" data-name="Layer 2" xmlns="http://www.w3.org/2000/svg" viewBox="0 0 330.07 327.32">
  <defs>
    <style>
      .cls-1 {
        fill: #b97736;
      }

      .cls-1, .cls-2, .cls-3, .cls-4, .cls-5, .cls-6 {
        stroke-width: 0px;
      }

      .cls-2 {
        fill: #fff;
      }

      .cls-3 {
        fill: #f0d95b;
      }

      .cls-4 {
        fill: #e7604e;
      }

      .cls-5 {
        fill: #f29750;
      }

      .cls-6 {
        fill: #026dd6;
      }
    </style>
  </defs>
  <g id="Layer_1-2" data-name="Layer 1">
    <g>
      <g>
        <path class="cls-1" d="m117.77,25.19c-17.49,26.06-10.51,61.49,15.55,78.98,26.06,17.49,61.49,10.51,78.98-15.55,17.48-26.06,10.51-61.49-15.56-78.97-26.06-17.48-61.48-10.51-78.97,15.55Z"/>
        <path class="cls-5" d="m190.82,9.81c-3.25.51-6.33,1.16-8.5,1.99-6.43,2.45-15.77,10.66-26.29,23.12l-.28.33c-2.24,2.65-6.62,2.67-8.39,2.27-.56-.13-2.55-.95-4.72-1.96-6.3,9.8-8.18,16.54,1.64,23.13,7.81,5.24,12.13,3.34,15.65-1.91,2.42-3.6-2.28-6.97,3.16-15.08,4.93-7.35,18.21-6.72,19.22-8.22,1.01-1.51-2.58-6.52,1.35-12.37,3.73-5.56,11.09-6.48,11.09-6.48l1.43-1.42c-.41-.29-.78-.61-1.19-.9-1.36-.91-2.76-1.73-4.17-2.5Z"/>
        <path class="cls-5" d="m184.59,40.46l-4.65-3.23c-.34.06-.65.12-1.02.19-4.27.73-10.73,1.85-13.44,5.89-2.66,3.97-2.38,6.32-2.1,8.59.08.64.13,1.35.15,2.08l5.12,3.43c8.85,5.94,10.97,16.72,6.54,23.33-2.72,4.05-2.16,4.2,4.75,8.84,6.14,4.12,7.09,9.54,4.46,13.44-.56.84-.77,2.4-.78,4.27,7.56-2.78,14.54-7.28,20.32-13.34-2.53-16.13-8.6-46.27-19.35-53.49Z"/>
        <path class="cls-5" d="m184.71,35.1c-.32.47-.74.8-1.21,1.08l2.71,1.88c10.58,7.1,16.79,32.3,20.21,53.14,1.14-1.37,2.24-2.79,3.25-4.3,15.68-23.37,10.49-54.7-11.15-71.94l-1.74,1.73-.71.67-.96.14c-.06,0-6.14.87-9.07,5.23-1.94,2.89-1.43,5.38-.99,7.59.32,1.61.65,3.27-.36,4.78Z"/>
        <path class="cls-5" d="m135.72,31.48c-1.15-1.63-2.56-5.11-.6-7.79,1.22-1.67,10.81-12.24,19.9-19.46-13.64,2.57-26.27,10.36-34.6,22.77-4.18,6.23-6.87,13.03-8.16,19.98,1.24,1.24,2.65,2.44,4.24,3.5,10.2,6.85,18.1-3.33,18.1-3.33.41-4.17,2.64-8.49,5.44-12.87-2.04-1.05-3.83-2.12-4.31-2.8Z"/>
        <path class="cls-5" d="m180.73,107.27c.02-2.73.42-4.59,1.27-5.86,1.99-2.96.59-6.58-3.67-9.44l-.72-.48c-2.02-1.34-3.51-2.35-4.59-3.29-10.32,4.3-31.64,6.86-48.43-4.4-2.96-1.99-6.38-4.53-9.42-6.87,3.88,9.71,10.6,18.39,19.91,24.64,13.94,9.35,30.71,11.25,45.63,6.69v-.99Z"/>
        <path class="cls-5" d="m113.61,72.21l12.61,9.18c15.27,10.24,34.89,8.32,44.95,4.42-.12-.3-.23-.61-.3-.94-.44-2.22.82-4.09,1.92-5.74,3.46-5.15,1.97-14.15-5.75-19.33l-4.06-2.73c-.18.44-.36.87-.65,1.31-4.94,7.37-11.37,8.26-19.66,2.7-4.75-3.19-7.08-6.53-7.84-9.99-4.18,3.8-11.7,7.31-19.95,1.78l-3.08-2.55c-.91,7.37-.26,14.82,1.81,21.87Z"/>
        <path class="cls-5" d="m171.28,8.04c.99.76,1.98,1.63,3.1,2.68.51.48.54,1.28.06,1.79-.48.51-1.28.53-1.78.06-1.57-1.47-2.81-2.55-4.17-3.4-2.51,1.15-5.04,2.88-7.45,4.88,1.33.91,2.59,2,4.06,3.38.51.48.54,1.28.06,1.79-.48.51-1.28.53-1.78.05-1.62-1.52-2.89-2.63-4.31-3.5-2.45,2.24-4.73,4.64-6.65,6.83,1.22.86,2.39,1.9,3.74,3.17.51.48.53,1.28.06,1.79-.48.51-1.28.53-1.79.05-1.35-1.27-2.48-2.26-3.67-3.07-2.55,3.06-4.17,5.33-4.21,5.4-.4.57-1.19.71-1.76.31-.57-.4-.71-1.19-.31-1.76.17-.25,1.68-2.36,4.03-5.21-1.2-.54-2.57-.98-4.32-1.36-.68-.15-1.11-.82-.97-1.5.15-.68.82-1.12,1.5-.97,2.26.49,3.97,1.08,5.47,1.83,1.84-2.13,4.02-4.46,6.42-6.7-.99-.38-2.11-.71-3.47-1-.68-.15-1.11-.82-.97-1.5.15-.68.82-1.12,1.5-.97,2.04.44,3.63.96,5.03,1.6,2.22-1.9,4.57-3.62,6.96-4.94-.93-.34-1.98-.63-3.23-.9-.68-.15-1.11-.82-.97-1.5.14-.68.82-1.12,1.5-.97,2.37.51,4.13,1.14,5.68,1.94.12-.05.24-.11.37-.16,2.11-.78,4.22-1.51,6.27-2.2-4.76-.92-9.65-1.21-14.56-.81-9.65,6.44-22.22,20.2-23.55,22.01-.35.48-.48,1.03-.48,1.6,0,1.31.71,2.67,1.09,3.22.89,1,8.81,4.75,10.16,5.06,1.32.3,4.52.19,5.9-1.44l.28-.33c6.25-7.4,18.1-20.35,27.31-23.86,1.63-.62,3.71-1.14,5.96-1.59-2.42-1.11-4.91-2.01-7.45-2.74-2.72.88-5.66,1.86-8.64,2.93Z"/>
      </g>
      <polygon class="cls-3" points="330.07 100.37 165.03 327.32 0 100.37 330.07 100.37"/>
      <path class="cls-6" d="m14.07,107.53c14.37,19.77,140.74,193.55,150.97,207.61,10.23-14.06,136.59-187.84,150.97-207.61H14.07Zm70.33,35.81h161.28c-33.91,46.64-53.83,74.02-80.64,110.9-26.82-36.88-46.72-64.26-80.64-110.9Z"/>
      <g>
        <path class="cls-2" d="m69.86,156.79h8.69c3.36,0,6.01.92,7.96,2.75,1.95,1.84,2.93,4.21,2.93,7.12s-.99,5.45-2.97,7.19c-1.98,1.75-4.8,2.62-8.47,2.62h-8.14v-19.69Zm4.91,3.61v12.47h3.19c2.07,0,3.66-.57,4.75-1.71,1.1-1.14,1.65-2.64,1.65-4.51s-.56-3.46-1.67-4.57c-1.11-1.11-2.71-1.67-4.79-1.67h-3.14Z"/>
        <path class="cls-2" d="m97.73,181.99c3.36,0,6.07,1.02,8.15,3.05,2.08,2.03,3.12,4.39,3.12,7.09s-1.05,5.1-3.16,7.11c-2.11,2.01-4.81,3.01-8.11,3.01s-6.05-1-8.15-3c-2.1-2-3.14-4.37-3.14-7.12s1.04-5.07,3.12-7.09c2.08-2.03,4.81-3.04,8.17-3.04Zm0,16.13c1.86,0,3.35-.55,4.49-1.66,1.14-1.1,1.7-2.55,1.7-4.35s-.57-3.26-1.7-4.36c-1.14-1.1-2.63-1.65-4.49-1.65s-3.37.55-4.51,1.65c-1.14,1.1-1.71,2.55-1.71,4.36s.57,3.25,1.71,4.35c1.14,1.11,2.64,1.66,4.51,1.66Z"/>
        <path class="cls-2" d="m126.43,208.13v19.69h-4.16l-10.79-12.61v12.61h-4.91v-19.69h4.51l10.44,12.04v-12.04h4.91Z"/>
        <path class="cls-2" d="m135.91,245.57h8.56c2.04,0,3.64.49,4.81,1.47,1.17.98,1.75,2.14,1.75,3.47,0,1.71-.9,3.03-2.69,3.94,1.35.36,2.38.98,3.1,1.88.71.9,1.06,1.95,1.06,3.15,0,1.71-.59,3.1-1.77,4.16-1.18,1.07-2.91,1.6-5.2,1.6h-9.61v-19.69Zm4.91,3.61v4.23h2.59c.8,0,1.42-.2,1.87-.61.45-.41.67-.92.67-1.53s-.22-1.1-.67-1.5c-.45-.39-1.07-.59-1.87-.59h-2.59Zm0,7.84v4.63h2.78c1.31,0,2.26-.18,2.84-.54.58-.36.87-.98.87-1.87,0-.68-.27-1.22-.82-1.62-.55-.4-1.28-.6-2.2-.6h-3.46Z"/>
        <path class="cls-2" d="m172.68,290.94v3.61h-14.55v-19.69h14.38v3.61h-9.48v4.12h9.02v3.61h-9.02v4.74h9.65Z"/>
        <path class="cls-2" d="m197.39,244.01v19.69h-4.16l-10.79-12.61v12.61h-4.91v-19.69h4.51l10.44,12.03v-12.03h4.91Z"/>
        <path class="cls-2" d="m209.88,216.58v19.69h-4.91v-19.69h4.91Z"/>
        <path class="cls-2" d="m235.93,190.62v3.61h-7.16v16.08h-4.91v-16.08h-7.11v-3.61h19.18Z"/>
        <path class="cls-2" d="m248.67,159.57c3.36,0,6.07,1.02,8.15,3.05,2.08,2.03,3.12,4.39,3.12,7.09s-1.05,5.1-3.16,7.11c-2.11,2.01-4.81,3.01-8.11,3.01s-6.06-1-8.15-3c-2.1-2-3.14-4.37-3.14-7.12s1.04-5.07,3.12-7.09c2.08-2.03,4.81-3.04,8.17-3.04Zm0,16.13c1.86,0,3.35-.55,4.49-1.66,1.13-1.1,1.7-2.55,1.7-4.35s-.57-3.26-1.7-4.36c-1.14-1.1-2.63-1.65-4.49-1.65s-3.37.55-4.51,1.65c-1.14,1.1-1.71,2.55-1.71,4.36s.57,3.25,1.71,4.35c1.14,1.11,2.64,1.66,4.51,1.66Z"/>
      </g>
      <path class="cls-4" d="m94.44,148.46c31.52,43.35,45.16,62.1,70.59,97.08,25.44-34.98,39.07-53.73,70.6-97.08H94.44Z"/>
      <g>
        <path class="cls-2" d="m43.07,115.56h8.69c3.36,0,6.01.92,7.96,2.75,1.95,1.84,2.93,4.21,2.93,7.12s-.99,5.45-2.97,7.19c-1.98,1.74-4.8,2.61-8.47,2.61h-8.14v-19.69Zm4.91,3.61v12.47h3.19c2.07,0,3.66-.57,4.75-1.71,1.1-1.14,1.65-2.65,1.65-4.51s-.56-3.46-1.67-4.57c-1.11-1.11-2.71-1.67-4.79-1.67h-3.14Z"/>
        <path class="cls-2" d="m89.12,131.63v3.61h-14.55v-19.69h14.38v3.61h-9.48v4.12h9.02v3.61h-9.02v4.74h9.64Z"/>
        <path class="cls-2" d="m101.42,115.56h8.78c1.99,0,3.57.58,4.75,1.73,1.17,1.16,1.76,2.52,1.76,4.1s-.58,3.04-1.74,4.2c-1.16,1.17-2.74,1.75-4.74,1.75h-3.9v7.9h-4.91v-19.69Zm4.91,3.61v4.57h2.27c2.02,0,3.04-.76,3.04-2.28,0-.85-.27-1.45-.81-1.78-.54-.33-1.46-.5-2.77-.5h-1.72Z"/>
        <path class="cls-2" d="m138.93,115.28c3.36,0,6.07,1.02,8.15,3.05,2.08,2.03,3.12,4.39,3.12,7.09s-1.05,5.1-3.16,7.11c-2.11,2.01-4.81,3.01-8.11,3.01s-6.05-1-8.15-3c-2.1-2-3.14-4.37-3.14-7.12s1.04-5.07,3.12-7.09c2.08-2.03,4.81-3.04,8.17-3.04Zm0,16.13c1.86,0,3.35-.55,4.49-1.66,1.14-1.1,1.7-2.55,1.7-4.35s-.57-3.26-1.7-4.36c-1.13-1.1-2.63-1.65-4.49-1.65s-3.37.55-4.51,1.65c-1.14,1.1-1.71,2.55-1.71,4.36s.57,3.25,1.71,4.35c1.14,1.1,2.64,1.66,4.51,1.66Z"/>
        <path class="cls-2" d="m162.15,115.56h8.79c1.91,0,3.46.55,4.65,1.65,1.19,1.1,1.79,2.44,1.79,4,0,2.16-1.13,3.77-3.4,4.81,1.01.45,1.96,1.67,2.85,3.64.89,1.97,1.75,3.83,2.58,5.58h-5.37c-.33-.65-.89-1.88-1.69-3.71-.8-1.82-1.49-3-2.06-3.52-.57-.52-1.18-.78-1.83-.78h-1.41v8.01h-4.91v-19.69Zm4.91,3.61v4.46h2.57c.82,0,1.47-.19,1.95-.58.48-.39.72-.94.72-1.66,0-1.48-.93-2.21-2.79-2.21h-2.46Z"/>
        <path class="cls-2" d="m206.07,115.56v3.61h-7.16v16.08h-4.91v-16.08h-7.11v-3.61h19.18Z"/>
        <path class="cls-2" d="m222.45,115.56v19.69h-4.91v-19.69h4.91Z"/>
        <path class="cls-2" d="m253.9,115.56l-9.16,19.97h-2.13l-9.49-19.97h5.34l5.19,11.2,4.96-11.2h5.29Z"/>
        <path class="cls-2" d="m273.02,115.28c3.36,0,6.07,1.02,8.15,3.05,2.08,2.03,3.12,4.39,3.12,7.09s-1.05,5.1-3.16,7.11c-2.11,2.01-4.81,3.01-8.11,3.01s-6.06-1-8.15-3c-2.1-2-3.14-4.37-3.14-7.12s1.04-5.07,3.12-7.09c2.08-2.03,4.8-3.04,8.17-3.04Zm0,16.13c1.86,0,3.35-.55,4.49-1.66,1.14-1.1,1.7-2.55,1.7-4.35s-.57-3.26-1.7-4.36c-1.13-1.1-2.63-1.65-4.49-1.65s-3.37.55-4.51,1.65c-1.14,1.1-1.71,2.55-1.71,4.36s.57,3.25,1.71,4.35c1.14,1.1,2.64,1.66,4.51,1.66Z"/>
      </g>
      <path class="cls-2" d="m182.18,148.46v73.5c9.67-13.3,18.45-25.37,29.03-39.93v-33.58h-29.03Zm-63.33,33.58c10.58,14.55,19.36,26.63,29.03,39.93v-73.5h-29.03v33.58Z"/>
    </g>
  </g>
</svg>