<?xml version="1.0" encoding="UTF-8"?>
<svg id="Layer_2" data-name="Layer 2" xmlns="http://www.w3.org/2000/svg" xmlns:xlink="http://www.w3.org/1999/xlink" viewBox="0 0 259 381">
  <defs>
    <style>
      .cls-1 {
        stroke-width: .67px;
      }

      .cls-1, .cls-2, .cls-3, .cls-4, .cls-5, .cls-6, .cls-7, .cls-8, .cls-9, .cls-10, .cls-11 {
        fill: none;
      }

      .cls-1, .cls-4 {
        stroke: #a6acb9;
      }

      .cls-12 {
        clip-path: url(#clippath);
      }

      .cls-2, .cls-13, .cls-14, .cls-15, .cls-16, .cls-17, .cls-18, .cls-19, .cls-20 {
        stroke-width: 0px;
      }

      .cls-3 {
        stroke-width: 1.68px;
      }

      .cls-3, .cls-7, .cls-8, .cls-10, .cls-11 {
        stroke: #1b1918;
      }

      .cls-4, .cls-5, .cls-6, .cls-7 {
        stroke-width: .84px;
      }

      .cls-5 {
        stroke: #bead00;
      }

      .cls-6 {
        stroke: #e3002f;
      }

      .cls-21 {
        clip-path: url(#clippath-1);
      }

      .cls-22 {
        clip-path: url(#clippath-4);
      }

      .cls-23 {
        clip-path: url(#clippath-3);
      }

      .cls-24 {
        clip-path: url(#clippath-2);
      }

      .cls-8, .cls-9 {
        stroke-width: .16px;
      }

      .cls-9 {
        stroke: #ffec00;
      }

      .cls-13 {
        fill: #008632;
      }

      .cls-13, .cls-14, .cls-15, .cls-16, .cls-17, .cls-18, .cls-19 {
        fill-rule: evenodd;
      }

      .cls-14, .cls-20 {
        fill: #009035;
      }

      .cls-15 {
        fill: #1b1918;
      }

      .cls-16 {
        fill: #e3002f;
      }

      .cls-17 {
        fill: #ffcb00;
      }

      .cls-18 {
        fill: #ffd300;
      }

      .cls-19 {
        fill: #fff;
      }

      .cls-10 {
        stroke-width: 3px;
      }

      .cls-11 {
        stroke-width: 1.5px;
      }
    </style>
    <clipPath id="clippath">
      <rect class="cls-2" width="259" height="381"/>
    </clipPath>
    <clipPath id="clippath-1">
      <rect class="cls-2" width="259" height="381"/>
    </clipPath>
    <clipPath id="clippath-2">
      <rect class="cls-2" width="259" height="381"/>
    </clipPath>
    <clipPath id="clippath-3">
      <rect class="cls-2" width="259" height="381"/>
    </clipPath>
    <clipPath id="clippath-4">
      <rect class="cls-2" width="259" height="381"/>
    </clipPath>
  </defs>
  <g id="Layer_1-2" data-name="Layer 1">
    <g>
      <g class="cls-12">
        <path class="cls-15" d="m197.38,94.64c13.5-1.89,13.77-5.4,13.91-6.75,0-1.48-.68-2.7-1.62-3.64,3.11-.95,5.4-3.65,5.4-7.02,0-1.75-.67-3.38-1.75-4.72,3.24.4,4.46-1.62,5-2.7l-.41.68c1.22-1.35,1.08-3.24.27-4.73.14,0,.14.14.27.14,7.43,1.21,14.18-2.57,17.15-9.45.54.13.95.27,1.48.27,4.05,0,7.29-3.24,7.29-7.29,0-1.35-.54-2.7-1.22-3.91,1.75-2.3,2.83-3.24,4.99-5.13,1.08-.81,3.38-1.76,5.13-2.43,2.97-1.08,4.86-1.89,4.73-4.05,0-.54-.27-2.02-2.3-2.7-.81-.13-1.48-.4-1.89-.54-1.21-.41-2.02-.68-3.64-.68-.68,0-1.08.14-1.62.27.14-.68,0-1.22-.13-1.62,0,0-.68-1.35-.81-1.49h-1.49c-2.43-.13-7.29,4.46-8.5,6.35-1.35,2.29-2.03,4.32-2.03,6.61-1.21-2.02-2.7-4.59-3.11-5.54-.67-1.35-1.89-1.75-2.83-1.62-1.21.13-2.29.81-3.24,3.38-5.8-2.3-7.16-.27-7.7.54-1.21,2.02,0,4.45,3.1,7.29-.81,1.35-1.08,2.57-.54,3.65.41,1.08,1.49,1.89,2.84,1.89,1.62.14,4.59.41,5.81.41l-.81,1.89c-1.75,3.78-5.4,5.67-9.58,4.73-2.97-.54-4.73-2.03-5.94-4.46,2.03-1.08,3.38-3.11,3.38-5.54,0-1.62-.54-3.11-1.75-4.32-1.08-1.21-2.7-1.75-4.32-1.75s-3.24.54-4.32,1.75c-1.22,1.21-1.75,2.7-1.75,4.32,0,1.08.27,2.16.81,3.1-2.3,2.43-4.73,3.24-8.23,2.57-2.43-.41-4.46-1.76-5.94-3.92-1.48-2.16-1.89-4.86-1.35-7.42l.14-.54c.4-.13.67-.27.95-.54.54.67,6.07,5.67,7.83,6.89,1.08.81,2.3.81,3.24.13.95-.68,1.75-1.62,1.35-5.67,3.64.14,5.67-.94,6.07-3.1.13-.95-.14-1.76-.68-2.57-.81-1.08-2.7-1.76-4.59-2.3.81-3.24.13-4.32-.54-5-.67-.54-1.89-.94-3.24-.27-1.35.54-4.45,2.03-6.21,2.84-.13-.54-.54-.81-.81-1.35l.27-.13c0-.14,4.73-6.48,6.07-8.1.81-.95.95-2.16.41-3.24-.41-.67-.95-1.89-5-2.16.14-2.97-.68-4.86-2.7-5.4-.94-.41-1.89-.14-2.7.41-1.08.68-1.76,2.02-2.16,3.51-4.32-1.48-5.4-.54-5.94,0-.95.81-1.21,2.03-.81,3.24.54,1.35,1.49,6.75,1.89,9.86l.14.54c-.14.14-.41.14-.54.41-1.76-1.35-5.4-4.05-6.62-5.27-1.21-1.21-2.57-1.08-3.38-.54-1.35.68-1.89,2.02-1.35,5.94-1.75.13-3.51.27-4.59,1.21-.81.54-1.21,1.35-1.35,2.16,0,.94.27,1.75.81,2.43.95,1.08,2.7,1.75,4.59,2.16-1.35,3.78-.95,5.26.14,6.07.81.68,2.02.94,3.38.14,1.35-.95,5.67-3.24,7.7-4.32v1.21c0,2.43-1.08,4.86-2.97,6.61-1.89,1.89-4.45,2.84-7.02,2.57-4.59-.27-7.69-3.38-8.37-7.83l-.13-.54c1.08-1.21,1.75-2.7,1.75-4.32s-.67-3.24-1.89-4.32c-1.08-1.22-2.7-1.89-4.32-1.89-1.08,0-2.16.41-3.1,1.08,0-.27.14-.41.14-.54,0-.95-.14-3.1-6.21-5.54.81-3.64-.14-4.59-.68-5.13-.81-.67-1.89-.94-3.1-.54-1.75.54-6.62,2.7-6.89,2.7l-4.45,1.89c.54-.94,6.34-11.75,8.37-14.85,1.62-2.3.54-3.65.13-4.19-1.62-1.35-2.97-.95-7.7,2.84-1.89-4.45-3.91-6.75-6.21-6.75-2.16,0-4.32,2.3-6.34,6.75-4.73-3.91-6.08-4.05-7.56-2.84-.54.41-1.62,1.76-.27,4.05,1.75,2.84,7.16,12.96,8.23,14.85l-4.18-1.75c-.14,0-4.59-1.75-6.62-2.7-1.35-.54-2.57-.41-3.51.54-.54.41-1.49,1.49-.54,5.13-6.07,2.57-6.07,4.59-6.07,5.54v.54c-.95-.67-1.89-1.08-3.11-1.08-1.62,0-3.11.68-4.32,1.89-1.21,1.08-1.75,2.7-1.75,4.32s.54,3.11,1.62,4.32v.54c-.67,4.46-3.91,7.56-8.37,7.83-2.56.27-5.13-.68-7.02-2.57-2.02-1.75-3.11-4.18-3.11-6.61v-1.21c1.62.81,6.48,3.51,7.7,4.32,1.08.67,2.43.67,3.38-.14,1.08-.95,1.49-2.29.14-6.21,4.73-1.08,5.4-2.7,5.4-4.18,0-.81-.27-1.48-.94-2.16-.41-.41-1.35-1.21-5-1.35.4-4.18-.14-5.4-1.49-6.08-.95-.54-2.3-.41-3.11.54-.95.81-4.32,3.38-6.62,5.27h-.14c-.13-.27-.27-.27-.54-.41l.14-.4,2.02-10.4c.27-1.08-.13-2.02-.95-2.84-.68-.4-1.75-1.21-5.94.14-.4-1.49-1.08-2.97-2.16-3.65-.67-.54-1.62-.68-2.43-.54-.95.27-1.62.68-2.16,1.49-.54,1.08-.68,2.43-.54,3.91-4.05.14-4.86,1.35-5.13,2.02-.68,1.08-.54,2.3.27,3.38l6.21,8.23.13.13c-.27.54-.68.81-.81,1.35-1.62-.81-4.86-2.29-6.08-2.84-1.35-.68-2.56-.27-3.24.27-.81.68-1.48,1.76-.68,5.13-3.51.81-5.4,2.29-5.27,4.45.14.95.54,1.76,1.21,2.3,1.08.95,2.97,1.08,4.86,1.08-.4,4.32.54,5.27,1.49,5.81.95.54,2.29.68,3.38-.41,1.75-1.49,7.56-6.62,7.56-6.62l.14-.13c.27.27.54.41.81.54l.14.54c.68,2.57.13,5.26-1.35,7.42-1.35,2.16-3.38,3.51-5.81,3.92-3.51.67-6.07-.14-8.37-2.57.54-.94.95-1.89.95-3.1,0-1.62-.68-3.11-1.75-4.32-1.22-1.21-2.7-1.75-4.46-1.75-1.62,0-3.11.54-4.32,1.75-1.08,1.21-1.75,2.7-1.75,4.32s.68,3.24,1.75,4.46c.54.4,1.08.81,1.62,1.08-1.08,2.43-2.97,3.91-5.81,4.46-4.19.95-7.83-.95-9.59-4.73l-.81-1.89c.81-.13,3.64-.41,5.54-.41,2.16.14,2.97-1.35,3.24-1.75.13-.54.68-1.75-.81-4.05,3.78-3.78,4.05-5.4,3.11-7.02-.81-1.48-2.43-2.03-7.56-.41-1.08-2.57-2.03-3.38-3.24-3.51-.95-.14-2.16.27-2.84,1.62-.54.95-2.02,3.51-3.11,5.54-.13-2.29-.81-4.32-2.16-6.61-2.43-3.92-6.34-5.4-7.56-5.67l-5.94-1.75,2.43,4.05c-.4,0-.81-.14-1.35-.14h-1.08c-3.64,0-6.34-.13-6.89,2.3-.27.81-.27,2.29,1.89,3.51.81.54,1.76,1.08,2.7,1.49,1.89.81,3.51,1.62,5.27,3.11,2.29,1.89,3.38,2.83,4.99,5.13h.14c-.81,1.21-1.35,2.57-1.35,3.91,0,2.03.81,3.78,2.16,5.13,1.35,1.48,3.24,2.16,5.13,2.16.54,0,.95-.14,1.48-.27,2.97,6.88,9.72,10.66,17.28,9.45l.14-.14c-.68,1.49-.81,3.38.4,4.73l-.4-.68c.4,1.08,1.75,3.11,4.99,2.7-1.21,1.35-1.89,2.97-1.89,4.72,0,2.03.81,3.92,2.16,5.27.94.95,2.02,1.49,3.24,1.76-.95.94-1.62,2.16-1.62,3.64.14,1.35.14,5,14.45,6.75,0,0,22.55,4.18,67.5,4.18s68.59-4.18,68.59-4.18h0Zm-51.85-54.95c1.21.54,2.43.4,3.24-.27.54-.54,1.49-1.35.95-4.59,1.48-.27,2.7-.67,3.51-1.08-.27.81-.4,1.62-.4,2.43,0,1.35.54,2.57,1.21,3.65l-.14.54c-1.62,4.59-5.26,7.02-10.53,6.88-2.7,0-5.27-1.21-7.16-3.38-1.89-2.16-2.97-5.13-2.7-7.96v-1.08l.54.14c2.7,1.08,10.13,4.05,11.48,4.73h0Zm-21.33-4.73l.41-.14.13,1.08c.14,2.84-.81,5.8-2.83,7.96-1.89,2.16-4.46,3.38-7.16,3.38-5.13.14-8.91-2.43-10.53-6.88l-.14-.54c.81-1.08,1.35-2.29,1.35-3.65,0-.81-.27-1.62-.54-2.43.81.41,2.02.81,3.51.94-.54,3.1.27,4.05.68,4.45.81.81,2.03,1.08,3.24.68,2.02-.68,10.93-4.45,11.88-4.86h0Z"/>
      </g>
      <path class="cls-16" d="m195.22,88.97c-.68-.13-1.21-.27-1.76-.4v1.89c.54-.14,1.08-.27,1.76-.41.27-.14.54-.27.54-.54s-.27-.41-.54-.54h0Z"/>
      <path class="cls-3" d="m195.22,88.97c-.68-.13-1.21-.27-1.76-.4v1.89c.54-.14,1.08-.27,1.76-.41.27-.14.54-.27.54-.54s-.27-.41-.54-.54h0Z"/>
      <path class="cls-16" d="m188.46,87.49v4.05c1.35-.27,2.57-.54,3.78-.81v-2.43c-1.21-.27-2.43-.54-3.78-.81h0Z"/>
      <path class="cls-3" d="m188.46,87.49v4.05c1.35-.27,2.57-.54,3.78-.81v-2.43c-1.21-.27-2.43-.54-3.78-.81h0Z"/>
      <path class="cls-16" d="m183.2,86.41v6.07c1.35-.27,2.7-.41,4.05-.68v-4.59c-1.35-.27-2.7-.54-4.05-.81h0Z"/>
      <path class="cls-3" d="m183.2,86.41v6.07c1.35-.27,2.7-.41,4.05-.68v-4.59c-1.35-.27-2.7-.54-4.05-.81h0Z"/>
      <path class="cls-16" d="m177.66,85.59v7.83c1.49-.27,2.97-.54,4.46-.67v-6.48c-1.48-.27-2.97-.54-4.46-.68h0Z"/>
      <path class="cls-3" d="m177.66,85.59v7.83c1.49-.27,2.97-.54,4.46-.68v-6.48c-1.48-.27-2.97-.54-4.46-.68h0Z"/>
      <path class="cls-16" d="m172.27,84.79v9.32c1.48-.14,2.97-.41,4.45-.54v-8.1c-1.49-.27-2.97-.41-4.45-.68h0Z"/>
      <path class="cls-3" d="m172.27,84.79v9.32c1.48-.14,2.97-.41,4.45-.54v-8.1c-1.49-.27-2.97-.41-4.45-.68h0Z"/>
      <path class="cls-16" d="m167.41,89.51v5.27c1.21-.14,2.7-.41,4.05-.54v-9.45c-1.35-.14-2.83-.54-4.05-.68v5.4Z"/>
      <path class="cls-3" d="m167.41,89.51v5.27c1.21-.14,2.7-.41,4.05-.54v-9.45c-1.35-.14-2.83-.54-4.05-.68v5.4Z"/>
      <path class="cls-16" d="m161.06,89.51v5.81c1.62-.14,3.51-.27,5.13-.54v-10.67c-1.62-.13-3.51-.27-5.13-.41v5.81Z"/>
      <path class="cls-3" d="m161.06,89.51v5.8c1.62-.14,3.51-.27,5.13-.54v-10.67c-1.62-.13-3.51-.27-5.13-.41v5.81Z"/>
      <path class="cls-16" d="m155.79,83.3v12.42c1.35-.14,2.7-.27,4.05-.41v-11.75c-1.35-.14-2.7-.14-4.05-.27h0Z"/>
      <path class="cls-3" d="m155.79,83.3v12.42c1.35-.14,2.7-.27,4.05-.41v-11.75c-1.35-.14-2.7-.14-4.05-.27h0Z"/>
      <path class="cls-16" d="m150.66,83.03v12.96c1.35-.14,2.7-.14,4.05-.27v-12.56c-1.35,0-2.7-.13-4.05-.13h0Z"/>
      <path class="cls-3" d="m150.66,83.03v12.96c1.35-.14,2.7-.14,4.05-.27v-12.56c-1.35,0-2.7-.13-4.05-.13h0Z"/>
      <path class="cls-16" d="m145.26,82.76v13.5c1.48-.14,2.84-.14,4.32-.27v-13.1c-1.48,0-2.84-.14-4.32-.14h0Z"/>
      <path class="cls-3" d="m145.26,82.76v13.5c1.48-.14,2.84-.14,4.32-.27v-13.1c-1.48,0-2.84-.14-4.32-.14h0Z"/>
      <path class="cls-16" d="m140,82.63v13.77c1.48,0,2.84-.13,4.19-.13v-13.5c-1.35-.13-2.7-.13-4.19-.13h0Z"/>
      <path class="cls-3" d="m140,82.63v13.77c1.48,0,2.84-.13,4.19-.13v-13.5c-1.35-.13-2.7-.13-4.19-.13h0Z"/>
      <path class="cls-16" d="m135,82.49v14.04c1.35,0,2.57-.14,3.92-.14v-13.91h-3.92Z"/>
      <path class="cls-3" d="m135,82.49v14.04c1.35,0,2.57-.14,3.92-.14v-13.91h-3.92Z"/>
      <path class="cls-16" d="m129.87,82.36v14.31c1.35,0,2.7,0,3.91-.13l.14-7.02-.14-7.16h-3.91Z"/>
      <path class="cls-3" d="m129.87,82.36v14.31c1.35,0,2.7,0,3.91-.13l.14-7.02-.14-7.16h-3.91Z"/>
      <path class="cls-16" d="m124.34,82.36v14.18c1.22.13,2.7.13,3.91.13v-14.31h-3.91Z"/>
      <path class="cls-3" d="m124.34,82.36v14.18c1.22.13,2.7.13,3.91.13v-14.31h-3.91Z"/>
      <path class="cls-16" d="m119.2,82.49v13.91c1.35,0,2.7.14,4.05.14v-14.04h-4.05Z"/>
      <path class="cls-3" d="m119.2,82.49v13.91c1.35,0,2.7.14,4.05.14v-14.04h-4.05Z"/>
      <path class="cls-16" d="m113.94,82.76v13.5c1.49,0,2.83.13,4.19.13v-13.77c-1.35,0-2.7,0-4.19.13h0Z"/>
      <path class="cls-3" d="m113.94,82.76v13.5c1.49,0,2.83.13,4.19.13v-13.77c-1.35,0-2.7,0-4.19.13h0Z"/>
      <path class="cls-16" d="m108.54,82.9v13.1c1.48.13,2.97.13,4.32.27v-13.5c-1.35,0-2.84.14-4.32.14h0Z"/>
      <path class="cls-3" d="m108.54,82.9v13.1c1.48.13,2.97.13,4.32.27v-13.5c-1.35,0-2.84.14-4.32.14h0Z"/>
      <path class="cls-16" d="m103.54,83.17v12.56c1.22.13,2.7.13,3.91.27v-12.96c-1.22,0-2.7.13-3.91.13h0Z"/>
      <path class="cls-3" d="m103.54,83.17v12.56c1.22.13,2.7.13,3.91.27v-12.96c-1.22,0-2.7.13-3.91.13h0Z"/>
      <path class="cls-16" d="m98.28,83.57v11.75c1.35.13,2.7.27,4.18.41v-12.42c-1.48.13-2.83.13-4.18.27h0Z"/>
      <path class="cls-3" d="m98.28,83.57v11.75c1.35.13,2.7.27,4.18.41v-12.42c-1.48.13-2.83.13-4.18.27h0Z"/>
      <path class="cls-16" d="m91.93,84.11v10.67c1.75.27,3.51.4,5.26.54v-11.61c-1.76.14-3.51.27-5.26.41h0Z"/>
      <path class="cls-3" d="m91.93,84.11v10.67c1.75.27,3.51.4,5.26.54v-11.61c-1.76.14-3.51.27-5.26.41h0Z"/>
      <path class="cls-16" d="m86.67,89.51v4.72c1.35.14,2.83.41,4.18.54v-10.67c-1.35.14-2.84.54-4.18.68v4.73Z"/>
      <path class="cls-3" d="m86.67,89.51v4.72c1.35.14,2.83.41,4.18.54v-10.67c-1.35.14-2.84.54-4.18.68v4.73Z"/>
      <path class="cls-16" d="m81.4,85.46l.13,4.05-.13,4.05c1.49.13,2.97.4,4.45.54v-9.32c-1.48.27-2.97.41-4.45.68h0Z"/>
      <path class="cls-3" d="m81.4,85.46l.13,4.05-.13,4.05c1.49.13,2.97.4,4.45.54v-9.32c-1.48.27-2.97.41-4.45.68h0Z"/>
      <path class="cls-16" d="m76,86.27v6.48c1.48.14,2.97.41,4.46.67v-7.83c-1.49.14-2.97.41-4.46.68h0Z"/>
      <path class="cls-3" d="m76,86.27v6.48c1.48.14,2.97.41,4.46.68v-7.83c-1.49.14-2.97.41-4.46.68h0Z"/>
      <path class="cls-16" d="m71,87.21v4.59c1.21.27,2.57.41,3.92.68v-6.07c-1.35.27-2.7.54-3.92.81h0Z"/>
      <path class="cls-3" d="m71,87.22v4.59c1.21.27,2.57.41,3.92.68v-6.07c-1.35.27-2.7.54-3.92.81h0Z"/>
      <path class="cls-16" d="m65.87,88.3v2.43c1.21.27,2.56.54,3.78.81v-4.05c-1.22.27-2.57.54-3.78.81h0Z"/>
      <path class="cls-3" d="m65.87,88.3v2.43c1.21.27,2.56.54,3.78.81v-4.05c-1.22.27-2.57.54-3.78.81h0Z"/>
      <path class="cls-16" d="m63.04,88.97c-.41.14-.54.27-.68.54.14.27.27.4.68.54.54.13,1.08.27,1.75.41v-1.89c-.68.13-1.21.27-1.75.4h0Z"/>
      <path class="cls-3" d="m63.04,88.97c-.41.14-.54.27-.68.54.14.27.27.4.68.54.54.13,1.08.27,1.75.41v-1.89c-.68.13-1.21.27-1.75.4h0Z"/>
      <path class="cls-18" d="m27.53,47.66c-.54-2.03-2.03-3.65-3.92-4.46,0,0,3.51-5.81,4.32-7.43.81-1.75,2.43,3.92,2.43,3.92,0,0,6.34-2.43,6.88-1.48.68.94-4.18,5.54-4.18,5.54,0,0,3.38,3.51.95,3.51-2.57-.13-6.48.41-6.48.41h0Z"/>
      <path class="cls-5" d="m27.53,47.66c-.54-2.03-2.03-3.64-3.92-4.46,0,0,3.51-5.8,4.32-7.43.81-1.75,2.43,3.92,2.43,3.92,0,0,6.34-2.43,6.88-1.48.68.94-4.18,5.54-4.18,5.54,0,0,3.38,3.51.95,3.51-2.57-.13-6.48.41-6.48.41h0Z"/>
      <path class="cls-18" d="m17,44.01c-1.76-2.43-3.11-3.64-5.4-5.54-2.97-2.43-5.8-3.38-8.5-4.86-2.57-1.48,2.97-1.08,5-1.08,1.62,0,2.56.27,4.18.94,0,0,1.35-.94,0-3.24,1.89.54,4.59,2.03,6.08,4.46,1.76,2.84,2.16,5,1.62,8.1-1.08.13-2.16.54-2.97,1.21h0Z"/>
      <g class="cls-21">
        <path class="cls-5" d="m17,44.01c-1.76-2.43-3.11-3.64-5.4-5.54-2.97-2.43-5.8-3.38-8.5-4.86-2.57-1.48,2.97-1.08,5-1.08,1.62,0,2.56.27,4.18.95,0,0,1.35-.95,0-3.24,1.89.54,4.59,2.03,6.08,4.46,1.76,2.84,2.16,5,1.62,8.1-1.08.13-2.16.54-2.97,1.21h0Z"/>
      </g>
      <path class="cls-18" d="m74.78,16.87c.27-1.75-6.21.95-6.21.95,0,0-.81-5.27-2.43-4.99-1.49.4-.27,5.67-.27,5.67,0,0-7.29-.81-5.67,1.21,1.49,2.03,6.21,8.24,6.21,8.24,1.08-.94,2.57-1.22,4.05-1.22.81,0,1.62.13,2.3.4,0,0,1.75-8.5,2.02-10.26h0Z"/>
      <path class="cls-5" d="m74.78,16.87c.27-1.75-6.21.95-6.21.95,0,0-.81-5.27-2.43-4.99-1.49.4-.27,5.67-.27,5.67,0,0-7.29-.81-5.67,1.21,1.49,2.03,6.21,8.24,6.21,8.24,1.08-.95,2.57-1.21,4.05-1.21.81,0,1.62.13,2.3.4,0,0,1.75-8.5,2.02-10.26h0Z"/>
      <path class="cls-18" d="m76.68,30.78c.41.94.68,1.89.68,2.83,0,.81-.14,1.62-.41,2.3,0,0,6.75,3.78,8.37,4.73,1.62,1.08-1.08-6.08-1.08-6.08,0,0,6.21-.94,6.21-2.29s-6.48-.94-6.48-.94c0,0,1.35-7.56,0-6.35-1.35,1.35-7.29,5.81-7.29,5.81h0Z"/>
      <path class="cls-5" d="m76.68,30.78c.41.94.68,1.89.68,2.83,0,.81-.14,1.62-.41,2.3,0,0,6.75,3.78,8.37,4.73,1.62,1.08-1.08-6.08-1.08-6.08,0,0,6.21-.95,6.21-2.29s-6.48-.95-6.48-.95c0,0,1.35-7.56,0-6.35-1.35,1.35-7.29,5.81-7.29,5.81h0Z"/>
      <path class="cls-18" d="m63.71,33.61c0,1.89.54,3.38,1.62,4.59,0,0-5.81,5.13-7.56,6.61-1.62,1.48-.27-6.21-.27-6.21,0,0-6.48.94-6.48-.81-.14-1.75,5.94-2.43,5.94-2.43,0,0-2.16-5.94-.41-5.13,1.62.94,7.16,3.38,7.16,3.38h0Z"/>
      <path class="cls-5" d="m63.71,33.61c0,1.89.54,3.38,1.62,4.59,0,0-5.81,5.13-7.56,6.61-1.62,1.48-.27-6.21-.27-6.21,0,0-6.48.95-6.48-.81-.14-1.75,5.94-2.43,5.94-2.43,0,0-2.16-5.94-.41-5.13,1.62.95,7.16,3.38,7.16,3.38h0Z"/>
      <path class="cls-16" d="m78.43,57.11s-1.89-.94-2.84-1.89c-.81-.95-1.75-2.57-1.75-2.57,0,0-.27,1.89-.95,3.11-.68,1.08-2.43,2.43-2.43,2.43.41,0,3.91-.54,7.96-1.08h0Z"/>
      <path class="cls-6" d="m78.43,57.11s-1.89-.95-2.84-1.89c-.81-.95-1.75-2.57-1.75-2.57,0,0-.27,1.89-.95,3.1-.68,1.08-2.43,2.43-2.43,2.43.41,0,3.91-.54,7.96-1.08h0Z"/>
      <path class="cls-16" d="m104.89,54.54c-2.57.27-5.27.4-7.83.68,0,0,1.48-1.76,2.3-3.11.54-.81,1.08-2.43,1.08-2.43,0,0,.81,1.35,1.48,2.16,1.08,1.21,2.97,2.7,2.97,2.7h0Z"/>
      <path class="cls-6" d="m104.89,54.54c-2.57.27-5.27.4-7.83.68,0,0,1.48-1.76,2.3-3.11.54-.81,1.08-2.43,1.08-2.43,0,0,.81,1.35,1.48,2.16,1.08,1.21,2.97,2.7,2.97,2.7h0Z"/>
      <path class="cls-18" d="m129.06,35.91c.67,0,1.35,0,1.89-.14-.54,7.29,5.13,13.91,12.42,14.04,6.08.14,10.94-2.97,12.83-8.64.95.68,1.49.68,2.7.68.54,0,1.62-.27,2.16-.41.81,5.67,5,9.45,10.53,9.99,6.75.4,12.83-5.13,12.69-11.75,1.08.54,2.16.81,3.38.81-1.48,6.48,2.7,13.23,9.18,14.44,4.32.68,7.7-.27,10.67-3.51.94.68,2.16.95,3.38.95,1.48,3.78,4.05,5.94,8.1,6.88,5.27,1.08,10.12-1.35,12.29-6.21.54.81,1.35,1.76,2.16,2.3-2.57,6.07-8.24,9.05-14.58,7.96-5-.81-8.24-3.38-10.12-8.1-3.64,3.1-6.89,4.32-11.61,3.78-6.21-.54-10.26-4.18-12.15-10.12-3.24,5-7.56,7.02-13.37,6.89-6.62-.27-11.34-4.05-13.64-10.4-3.11,5.67-7.97,8.51-14.58,8.37-6.89-.13-12.02-3.64-14.44-9.99-2.43,6.34-7.43,9.86-14.18,9.99-6.48.14-11.48-2.56-14.58-8.37-2.16,6.35-7.02,10.13-13.64,10.4-5.8.13-10.12-1.89-13.23-6.89-1.89,5.94-6.08,9.59-12.15,10.12-4.73.54-8.1-.54-11.61-3.78-2.03,4.72-5.13,7.29-10.13,8.1-6.48,1.08-12.15-1.89-14.71-7.96.95-.54,1.62-1.48,2.16-2.3,2.16,4.86,7.02,7.29,12.29,6.21,4.05-.94,6.62-3.1,8.1-6.88,1.35,0,2.43-.27,3.37-.95,2.97,3.24,6.35,4.18,10.67,3.51,6.48-1.22,10.66-7.97,9.18-14.44,1.21,0,2.43-.27,3.38-.81,0,6.61,5.94,12.15,12.69,11.75,5.67-.54,9.86-4.32,10.67-9.99.4.14,1.49.41,2.02.41,1.22,0,1.75,0,2.7-.68,2.03,5.67,6.89,8.78,12.83,8.64,7.29-.14,12.96-6.75,12.42-14.04.67.14,1.21.14,1.89.14h0Z"/>
      <path class="cls-5" d="m129.06,35.91c.67,0,1.35,0,1.89-.14-.54,7.29,5.13,13.91,12.42,14.04,6.08.14,10.94-2.97,12.83-8.64.95.68,1.49.68,2.7.68.54,0,1.62-.27,2.16-.41.81,5.67,5,9.45,10.53,9.99,6.75.4,12.69-5.13,12.69-11.75,1.08.54,2.16.81,3.38.81-1.48,6.48,2.7,13.23,9.18,14.45,4.32.68,7.7-.27,10.67-3.51.94.68,2.16.95,3.38.95,1.48,3.78,4.05,5.94,8.1,6.88,5.27,1.08,10.12-1.35,12.29-6.21.54.81,1.35,1.76,2.16,2.3-2.57,6.07-8.24,9.05-14.58,7.97-5-.81-8.24-3.38-10.12-8.1-3.64,3.1-6.89,4.32-11.61,3.78-6.21-.54-10.26-4.18-12.15-10.12-3.24,5-7.56,7.02-13.37,6.89-6.62-.27-11.34-4.05-13.64-10.4-3.11,5.67-7.97,8.51-14.58,8.37-6.89-.13-12.02-3.64-14.44-9.99-2.43,6.34-7.43,9.86-14.18,9.99-6.48.14-11.48-2.56-14.58-8.37-2.16,6.35-7.02,10.13-13.64,10.4-5.8.13-10.12-1.89-13.23-6.89-1.89,5.94-6.08,9.59-12.15,10.12-4.73.54-8.1-.54-11.61-3.78-2.03,4.72-5.13,7.29-10.13,8.1-6.48,1.08-12.15-1.89-14.71-7.97.95-.54,1.62-1.48,2.16-2.3,2.16,4.86,7.02,7.29,12.29,6.21,4.05-.95,6.62-3.11,8.1-6.88,1.35,0,2.43-.27,3.37-.95,2.97,3.24,6.35,4.18,10.67,3.51,6.48-1.21,10.66-7.96,9.18-14.45,1.21,0,2.43-.27,3.38-.81,0,6.61,5.94,12.15,12.69,11.75,5.67-.54,9.86-4.32,10.67-9.99.4.14,1.49.41,2.02.41,1.22,0,1.75,0,2.7-.68,2.03,5.67,6.89,8.78,12.83,8.64,7.29-.14,12.96-6.75,12.42-14.04.67.14,1.21.14,1.89.14h0Z"/>
      <path class="cls-18" d="m129.19,3.37c-2.3,0-5.4,8.37-5.4,8.37,0,0-8.51-7.43-6.62-4.18,1.89,3.24,8.37,15.39,8.37,15.39,1.08-.54,2.29-.81,3.51-.81s2.3.27,3.24.81c0,0,6.35-12.02,8.64-15.39,2.43-3.38-6.62,4.18-6.62,4.18,0,0-2.7-8.37-5.13-8.37h0Z"/>
      <path class="cls-5" d="m129.19,3.37c-2.3,0-5.4,8.37-5.4,8.37,0,0-8.51-7.43-6.62-4.18,1.89,3.24,8.37,15.39,8.37,15.39,1.08-.54,2.29-.81,3.51-.81s2.3.27,3.24.81c0,0,6.35-12.02,8.64-15.39,2.43-3.38-6.62,4.18-6.62,4.18,0,0-2.7-8.37-5.13-8.37h0Z"/>
      <path class="cls-18" d="m118.12,24.3s-4.59-1.75-6.75-2.7c-2.16-.94,0,4.86,0,4.86,0,0-6.62,2.3-6.62,4.05,0,1.62,6.75,2.16,6.75,2.16,0,0-1.89,5.4,0,4.73,2.03-.54,11.75-4.73,11.75-4.73-.68-1.08-1.08-2.29-1.08-3.65,0-.94.13-2.02.54-2.84l-4.59-1.89Z"/>
      <path class="cls-5" d="m118.12,24.3s-4.59-1.75-6.75-2.7c-2.16-.95,0,4.86,0,4.86,0,0-6.62,2.3-6.62,4.05,0,1.62,6.75,2.16,6.75,2.16,0,0-1.89,5.4,0,4.73,2.03-.54,11.75-4.73,11.75-4.73-.68-1.08-1.08-2.29-1.08-3.64,0-.95.13-2.02.54-2.84l-4.59-1.89Z"/>
      <path class="cls-16" d="m45.62,77.22c0-2.7,2.16-4.86,5-4.86s5.13,2.16,5.13,4.86c0,2.84-2.3,5-5.13,5s-5-2.16-5-5h0Z"/>
      <path class="cls-18" d="m230.59,47.66c.54-2.03,2.03-3.65,3.92-4.46,0,0-3.38-5.81-4.32-7.43-.81-1.75-2.3,3.92-2.3,3.92,0,0-6.08-3.1-7.02-1.48-.95,1.48,4.32,5.54,4.32,5.54,0,0-3.1,3.38-.95,3.51,2.02.14,6.34.41,6.34.41h0Z"/>
      <path class="cls-5" d="m230.59,47.66c.54-2.03,2.03-3.64,3.92-4.46,0,0-3.38-5.8-4.32-7.43-.81-1.75-2.3,3.92-2.3,3.92,0,0-6.08-3.11-7.02-1.48-.95,1.48,4.32,5.54,4.32,5.54,0,0-3.1,3.38-.95,3.51,2.02.14,6.34.41,6.34.41h0Z"/>
      <path class="cls-18" d="m241.12,44.01c1.89-2.43,3.11-3.64,5.53-5.54,2.84-2.43,11.07-4.05,8.37-4.86-2.7-.67-2.97-1.08-5-1.08-1.62,0-2.56.27-4.05.94,0,0-1.62-1.08-.13-3.24,1.62-2.16-4.46,2.03-6.08,4.46-1.62,2.84-2.16,5-1.49,8.1,1.08.13,2.03.54,2.84,1.21h0Z"/>
      <g class="cls-24">
        <path class="cls-5" d="m241.12,44.01c1.89-2.43,3.11-3.64,5.53-5.54,2.84-2.43,11.07-4.05,8.37-4.86-2.7-.67-2.97-1.08-5-1.08-1.62,0-2.56.27-4.05.95,0,0-1.62-1.08-.13-3.24,1.62-2.16-4.46,2.03-6.08,4.46-1.62,2.84-2.16,5-1.49,8.1,1.08.13,2.03.54,2.84,1.21h0Z"/>
      </g>
      <path class="cls-18" d="m183.34,16.87c-.68-2.16,6.21.95,6.21.95,0,0,.68-5.53,2.43-4.99,1.75.54.27,5.67.27,5.67,0,0,7.16-.4,5.81,1.21-1.35,1.62-6.21,8.24-6.21,8.24-1.22-.94-2.57-1.22-4.19-1.22-.81,0-1.48.13-2.16.4,0,0-1.35-8.23-2.16-10.26h0Z"/>
      <path class="cls-5" d="m183.34,16.87c-.68-2.16,6.21.95,6.21.95,0,0,.68-5.54,2.43-4.99,1.75.54.27,5.67.27,5.67,0,0,7.16-.4,5.81,1.21-1.35,1.62-6.21,8.24-6.21,8.24-1.22-.95-2.57-1.21-4.19-1.21-.81,0-1.48.13-2.16.4,0,0-1.35-8.23-2.16-10.26h0Z"/>
      <path class="cls-18" d="m181.44,30.78c-.41.94-.54,1.89-.54,2.83,0,.81,0,1.62.27,2.3,0,0-6.48,3.64-8.37,4.73-1.75,1.21,1.08-6.08,1.08-6.08,0,0-6.35-.54-6.08-2.29.14-1.76,6.35-.94,6.35-.94,0,0-1.62-7.97,0-6.35,1.75,1.62,7.29,5.81,7.29,5.81h0Z"/>
      <path class="cls-5" d="m181.44,30.78c-.41.94-.54,1.89-.54,2.83,0,.81,0,1.62.27,2.3,0,0-6.48,3.64-8.37,4.73-1.75,1.21,1.08-6.08,1.08-6.08,0,0-6.35-.54-6.08-2.29.14-1.76,6.35-.95,6.35-.95,0,0-1.62-7.96,0-6.35,1.75,1.62,7.29,5.81,7.29,5.81h0Z"/>
      <path class="cls-18" d="m194.54,33.61c0,1.89-.54,3.38-1.76,4.59,0,0,5.94,5.54,7.56,6.61,1.75,1.22.41-6.21.41-6.21,0,0,6.21.94,6.48-.81.27-1.75-6.08-2.43-6.08-2.43,0,0,2.16-5.94.54-5.13-1.76.94-7.16,3.38-7.16,3.38h0Z"/>
      <path class="cls-5" d="m194.54,33.61c0,1.89-.54,3.38-1.76,4.59,0,0,5.94,5.54,7.56,6.61,1.75,1.21.41-6.21.41-6.21,0,0,6.21.95,6.48-.81.27-1.75-6.08-2.43-6.08-2.43,0,0,2.16-5.94.54-5.13-1.76.95-7.16,3.38-7.16,3.38h0Z"/>
      <path class="cls-16" d="m202.51,61.29s2.3-.54,3.51-1.21c.81-.68,1.89-2.03,1.89-2.03,0,0,.27,1.76.81,2.57.68,1.35,2.7,2.97,2.7,2.97-2.84-.81-5.81-1.62-8.91-2.29h0Z"/>
      <path class="cls-6" d="m202.51,61.29s2.3-.54,3.51-1.21c.81-.68,1.89-2.03,1.89-2.03,0,0,.27,1.76.81,2.57.68,1.35,2.7,2.97,2.7,2.97-2.84-.81-5.81-1.62-8.91-2.29h0Z"/>
      <path class="cls-16" d="m179.69,57.11s2.02-.94,2.97-1.89c.81-.95,1.62-2.57,1.62-2.57,0,0,.41,1.89,1.08,3.11.68,1.08,2.3,2.43,2.3,2.43-.41,0-3.78-.54-7.97-1.08h0Z"/>
      <path class="cls-6" d="m179.69,57.11s2.02-.95,2.97-1.89c.81-.95,1.62-2.57,1.62-2.57,0,0,.41,1.89,1.08,3.1.68,1.08,2.3,2.43,2.3,2.43-.41,0-3.78-.54-7.97-1.08h0Z"/>
      <path class="cls-16" d="m153.23,54.54c2.7.27,5.4.4,7.97.68,0,0-1.62-1.76-2.43-3.11-.54-.81-1.08-2.43-1.08-2.43,0,0-.81,1.35-1.49,2.16-.94,1.21-2.97,2.7-2.97,2.7h0Z"/>
      <path class="cls-6" d="m153.23,54.54c2.7.27,5.4.4,7.97.68,0,0-1.62-1.76-2.43-3.11-.54-.81-1.08-2.43-1.08-2.43,0,0-.81,1.35-1.49,2.16-.94,1.21-2.97,2.7-2.97,2.7h0Z"/>
      <path class="cls-18" d="m140,24.3s5-2.02,6.75-2.7c1.76-.54,0,4.86,0,4.86,0,0,6.62,2.3,6.62,4.05,0,1.62-6.62,2.16-6.62,2.16,0,0,1.62,5.67-.13,4.73-1.76-.81-11.75-4.73-11.75-4.73.68-1.08,1.08-2.29,1.08-3.65,0-.94-.13-2.02-.4-2.84l4.45-1.89Z"/>
      <path class="cls-5" d="m140,24.3s5-2.02,6.75-2.7c1.76-.54,0,4.86,0,4.86,0,0,6.62,2.3,6.62,4.05,0,1.62-6.62,2.16-6.62,2.16,0,0,1.62,5.67-.13,4.73-1.76-.81-11.75-4.73-11.75-4.73.68-1.08,1.08-2.29,1.08-3.64,0-.95-.13-2.02-.4-2.84l4.45-1.89Z"/>
      <path class="cls-16" d="m202.37,77.22c0-2.7,2.3-4.86,5.13-4.86s5.13,2.16,5.13,4.86c0,2.84-2.29,5-5.13,5s-5.13-2.16-5.13-5h0Z"/>
      <path class="cls-16" d="m129.06,48.06s-.27,1.48-.81,2.29c-.54,1.22-2.16,2.84-2.16,2.84.95-.14,2.16-.41,2.97-.41.94,0,2.16.27,3.1.41,0,0-1.62-1.62-2.29-2.84-.41-.81-.81-2.29-.81-2.29h0Z"/>
      <path class="cls-6" d="m129.06,48.06s-.27,1.48-.81,2.29c-.54,1.21-2.16,2.84-2.16,2.84.95-.14,2.16-.41,2.97-.41.94,0,2.16.27,3.1.41,0,0-1.62-1.62-2.29-2.84-.41-.81-.81-2.29-.81-2.29h0Z"/>
      <path class="cls-18" d="m129.33,54.68c-20.52.27-56.3,4.46-57.79,4.86-8.37,1.62-21.06,4.05-29.03,6.88-.54.54-.95,1.76-.27,2.43.68,1.76,2.7,1.35,3.92.95,26.6-8.1,55.9-9.72,82.63-10.39,26.73.68,56.57,2.3,83.3,10.39,1.22.41,3.11.81,3.91-.95.54-.67.27-1.89-.27-2.43-7.97-2.84-20.66-5.27-29.16-6.88-1.49-.41-37.27-4.59-57.79-4.86h.54Z"/>
      <path class="cls-5" d="m129.33,54.68c-20.52.27-56.3,4.46-57.79,4.86-8.37,1.62-21.06,4.05-29.03,6.88-.54.54-.95,1.76-.27,2.43.68,1.76,2.7,1.35,3.92.95,26.6-8.1,55.9-9.72,82.63-10.39,26.73.68,56.57,2.3,83.3,10.39,1.22.41,3.11.81,3.91-.95.54-.67.27-1.89-.27-2.43-7.97-2.84-20.66-5.27-29.16-6.88-1.49-.41-37.27-4.59-57.79-4.86h.54Z"/>
      <path class="cls-18" d="m129.06,60.89c-25.25.68-53.87,2.57-79.39,9.59,5.13-.27,8.24,2.84,8.24,6.35,0,2.7-1.35,4.86-3.92,5.8,24.57-6.21,50.77-7.56,75.07-8.23,24.3.67,50.5,2.02,75.2,8.23-2.7-.95-4.05-3.11-4.05-5.8,0-3.51,3.24-6.62,8.24-6.35-25.52-7.02-54.01-8.91-79.39-9.59h0Z"/>
      <path class="cls-7" d="m129.06,60.89c-25.25.68-53.87,2.57-79.39,9.59,5.13-.27,8.24,2.84,8.24,6.35,0,2.7-1.35,4.86-3.92,5.8,24.57-6.21,50.77-7.56,75.07-8.24,24.3.67,50.5,2.02,75.2,8.24-2.7-.95-4.05-3.11-4.05-5.8,0-3.51,3.24-6.62,8.24-6.35-25.52-7.02-54.01-8.91-79.39-9.59h0Z"/>
      <path class="cls-18" d="m208.85,87.89c0-2.57-4.32-3.78-5.67-3.91-24.31-6.08-50.09-7.43-74.12-7.97-23.89.54-49.82,1.89-74.12,7.97-1.35.13-5.54,1.35-5.54,3.91,0,2.7,12.15,4.32,12.15,4.32-2.43-.95-4.19-1.75-4.05-2.3,0-1.75,2.16-2.43,5.54-3.11,22.01-4.72,44.02-5.4,66.02-6.07,22.14.68,44.01,1.35,66.16,6.07,3.24.68,5.54,1.35,5.54,3.11-.27,1.89-3.78,2.3-3.78,2.3,0,0,11.61-1.62,11.88-4.32h0Z"/>
      <path class="cls-5" d="m208.85,87.89c0-2.57-4.32-3.78-5.67-3.91-24.31-6.08-50.09-7.43-74.12-7.97-23.89.54-49.82,1.89-74.12,7.97-1.35.13-5.54,1.35-5.54,3.91,0,2.7,12.15,4.32,12.15,4.32-2.43-.95-4.19-1.75-4.05-2.3,0-1.75,2.16-2.43,5.54-3.11,22.01-4.72,44.02-5.4,66.02-6.07,22.14.68,44.01,1.35,66.16,6.07,3.24.68,5.54,1.35,5.54,3.11-.27,1.89-3.78,2.3-3.78,2.3,0,0,11.61-1.62,11.88-4.32h0Z"/>
      <path class="cls-19" d="m124.2,29.02c0-2.7,2.16-4.86,4.86-4.86s4.86,2.16,4.86,4.86-2.16,4.86-4.86,4.86-4.86-2.16-4.86-4.86h0Z"/>
      <path class="cls-1" d="m124.2,29.02c0-2.7,2.16-4.86,4.86-4.86s4.86,2.16,4.86,4.86-2.16,4.86-4.86,4.86-4.86-2.16-4.86-4.86h0Z"/>
      <path class="cls-19" d="m65.6,33.61c0-2.7,2.16-4.86,4.86-4.86s4.86,2.16,4.86,4.86-2.16,4.86-4.86,4.86-4.86-2.16-4.86-4.86h0Z"/>
      <path class="cls-1" d="m65.6,33.61c0-2.7,2.16-4.86,4.86-4.86s4.86,2.16,4.86,4.86-2.16,4.86-4.86,4.86-4.86-2.16-4.86-4.86h0Z"/>
      <path class="cls-19" d="m16.32,49.41c0-2.7,2.16-4.86,4.73-4.86,2.7,0,4.86,2.16,4.86,4.86s-2.16,4.86-4.86,4.86-4.73-2.16-4.73-4.86h0Z"/>
      <path class="cls-1" d="m16.32,49.41c0-2.7,2.16-4.86,4.73-4.86,2.7,0,4.86,2.16,4.86,4.86s-2.16,4.86-4.86,4.86-4.73-2.16-4.73-4.86h0Z"/>
      <path class="cls-19" d="m43.6,46.71c0-2.02,1.75-3.65,3.64-3.65,2.02,0,3.78,1.62,3.78,3.65s-1.76,3.64-3.78,3.64c-1.89,0-3.64-1.62-3.64-3.64h0Z"/>
      <path class="cls-4" d="m43.6,46.71c0-2.02,1.75-3.64,3.64-3.64,2.02,0,3.78,1.62,3.78,3.64s-1.76,3.64-3.78,3.64c-1.89,0-3.64-1.62-3.64-3.64h0Z"/>
      <path class="cls-19" d="m95.58,36.18c0-2.02,1.62-3.64,3.64-3.64s3.64,1.62,3.64,3.64-1.62,3.65-3.64,3.65-3.64-1.62-3.64-3.65h0Z"/>
      <path class="cls-4" d="m95.58,36.18c0-2.02,1.62-3.64,3.64-3.64s3.64,1.62,3.64,3.64-1.62,3.64-3.64,3.64-3.64-1.62-3.64-3.64h0Z"/>
      <path class="cls-19" d="m182.8,33.61c0-2.7,2.16-4.86,4.86-4.86s4.86,2.16,4.86,4.86-2.16,4.86-4.86,4.86-4.86-2.16-4.86-4.86h0Z"/>
      <path class="cls-1" d="m182.8,33.61c0-2.7,2.16-4.86,4.86-4.86s4.86,2.16,4.86,4.86-2.16,4.86-4.86,4.86-4.86-2.16-4.86-4.86h0Z"/>
      <path class="cls-19" d="m232.21,49.41c0-2.7,2.16-4.86,4.86-4.86s4.86,2.16,4.86,4.86-2.16,4.86-4.86,4.86-4.86-2.16-4.86-4.86h0Z"/>
      <path class="cls-1" d="m232.21,49.41c0-2.7,2.16-4.86,4.86-4.86s4.86,2.16,4.86,4.86-2.16,4.86-4.86,4.86-4.86-2.16-4.86-4.86h0Z"/>
      <path class="cls-19" d="m207.23,46.71c0-2.02,1.62-3.65,3.65-3.65s3.64,1.62,3.64,3.65-1.62,3.64-3.64,3.64-3.65-1.62-3.65-3.64h0Z"/>
      <path class="cls-4" d="m207.23,46.71c0-2.02,1.62-3.64,3.65-3.64s3.64,1.62,3.64,3.64-1.62,3.64-3.64,3.64-3.65-1.62-3.65-3.64h0Z"/>
      <path class="cls-19" d="m155.25,36.18c0-2.02,1.62-3.64,3.64-3.64s3.65,1.62,3.65,3.64-1.62,3.65-3.65,3.65-3.64-1.62-3.64-3.65h0Z"/>
      <path class="cls-4" d="m155.25,36.18c0-2.02,1.62-3.64,3.64-3.64s3.65,1.62,3.65,3.64-1.62,3.64-3.65,3.64-3.64-1.62-3.64-3.64h0Z"/>
      <path class="cls-15" d="m103.68,68.85c0-2.7,2.16-4.86,4.72-4.86,2.7,0,4.86,2.16,4.86,4.86s-2.16,4.73-4.86,4.73c-2.56,0-4.72-2.16-4.72-4.73h0Z"/>
      <path class="cls-15" d="m61.55,73.31c0-2.7,2.16-4.86,4.86-4.86s4.73,2.16,4.73,4.86-2.16,4.73-4.73,4.73c-2.7,0-4.86-2.16-4.86-4.73h0Z"/>
      <path class="cls-15" d="m144.99,68.85c0-2.7,2.16-4.86,4.73-4.86,2.7,0,4.72,2.16,4.72,4.86s-2.02,4.73-4.72,4.73-4.73-2.16-4.73-4.73h0Z"/>
      <path class="cls-15" d="m187.12,73.31c0-2.7,2.02-4.86,4.73-4.86,2.56,0,4.72,2.16,4.72,4.86s-2.16,4.73-4.72,4.73c-2.7,0-4.73-2.16-4.73-4.73h0Z"/>
      <path class="cls-15" d="m80.73,75.74c4.59-.68,9.58-1.48,14.18-1.89,2.57-.27,4.05-2.29,4.05-4.59,0-2.57-2.43-3.91-5.4-3.91h.54c-4.86,0-9.99,0-13.24,1.35l-.94.27c-2.29.4-4.05,2.16-4.05,4.45,0,2.43,2.16,4.46,5,4.46l-.13-.14Z"/>
      <path class="cls-15" d="m122.04,72.09c4.59-.14,9.72-.27,14.31-.14,2.57,0,4.32-1.75,4.59-4.05.27-2.56-2.02-4.32-4.86-4.59h.54c-4.86-.54-9.85-1.21-13.37-.13l-.94.13c-2.43,0-4.32,1.62-4.59,3.78-.27,2.43,1.62,4.73,4.46,5.13l-.14-.14Z"/>
      <path class="cls-15" d="m177.53,75.74c-4.59-.68-9.72-1.48-14.31-1.89-2.43-.27-3.91-2.29-3.91-4.59,0-2.57,2.43-3.91,5.27-3.91h-.54c4.86,0,9.99,0,13.37,1.35l.95.27c2.3.4,4.05,2.16,4.05,4.45,0,2.43-2.3,4.46-5,4.46l.14-.14Z"/>
      <path class="cls-13" d="m81.4,74.39c3.24-.41,8.91-1.22,12.15-1.49,1.76-.27,2.84-1.75,2.84-3.24,0-1.89-2.7-2.84-4.73-2.84h1.35c-3.38,0-7.97,0-10.26,1.08l-1.89.41c-1.62.27-2.83,1.48-2.83,3.11s1.62,3.1,3.51,3.1l-.13-.13Z"/>
      <path class="cls-13" d="m176.72,74.39c-3.24-.41-8.91-1.22-12.15-1.49-1.76-.27-2.7-1.75-2.7-3.24,0-1.89,2.57-2.84,4.59-2.84h-1.35c3.51,0,7.97,0,10.26,1.08l1.89.41c1.62.27,2.83,1.48,2.83,3.11s-1.49,3.1-3.51,3.1l.13-.13Z"/>
      <path class="cls-16" d="m122.98,71.01c3.24-.13,8.78-.4,12.02-.27,1.76-.13,2.97-1.35,3.1-2.84.27-1.89-2.02-3.1-4.05-3.24h1.08c-3.38-.41-7.7-.81-10.12-.14l-1.76.27c-1.62.13-3.11,1.21-3.24,2.7-.27,1.75,2.29,3.11,4.18,3.38l-1.21.13Z"/>
      <path class="cls-19" d="m63.18,73.31c0-1.75,1.48-3.24,3.24-3.24s3.11,1.49,3.11,3.24-1.35,3.11-3.11,3.11-3.24-1.35-3.24-3.11h0Z"/>
      <path class="cls-4" d="m63.18,73.31c0-1.75,1.48-3.24,3.24-3.24s3.11,1.49,3.11,3.24-1.35,3.11-3.11,3.11-3.24-1.35-3.24-3.11h0Z"/>
      <path class="cls-19" d="m105.3,68.85c0-1.75,1.35-3.24,3.11-3.24s3.24,1.48,3.24,3.24-1.49,3.11-3.24,3.11-3.11-1.35-3.11-3.11h0Z"/>
      <path class="cls-4" d="m105.3,68.85c0-1.75,1.35-3.24,3.11-3.24s3.24,1.48,3.24,3.24-1.49,3.11-3.24,3.11-3.11-1.35-3.11-3.11h0Z"/>
      <path class="cls-19" d="m146.61,68.85c0-1.75,1.35-3.24,3.11-3.24s3.24,1.48,3.24,3.24-1.48,3.11-3.24,3.11-3.11-1.35-3.11-3.11h0Z"/>
      <path class="cls-4" d="m146.61,68.85c0-1.75,1.35-3.24,3.11-3.24s3.24,1.48,3.24,3.24-1.48,3.11-3.24,3.11-3.11-1.35-3.11-3.11h0Z"/>
      <path class="cls-19" d="m188.6,73.31c0-1.75,1.48-3.24,3.24-3.24s3.1,1.49,3.1,3.24-1.35,3.11-3.1,3.11-3.24-1.35-3.24-3.11h0Z"/>
      <path class="cls-4" d="m188.6,73.31c0-1.75,1.48-3.24,3.24-3.24s3.1,1.49,3.1,3.24-1.35,3.11-3.1,3.11-3.24-1.35-3.24-3.11h0Z"/>
      <path class="cls-16" d="m55.75,61.29s-2.3-.54-3.51-1.21c-.95-.68-1.89-2.03-1.89-2.03,0,0-.27,1.76-.81,2.57-.81,1.35-2.7,2.97-2.7,2.97,2.7-.81,5.81-1.62,8.91-2.29h0Z"/>
      <path class="cls-6" d="m55.75,61.29s-2.3-.54-3.51-1.21c-.95-.68-1.89-2.03-1.89-2.03,0,0-.27,1.76-.81,2.57-.81,1.35-2.7,2.97-2.7,2.97,2.7-.81,5.81-1.62,8.91-2.29h0Z"/>
      <path class="cls-19" d="m127.21,378.28c-91.49-4.59-116.68-82.91-116.68-110.45V88.77h116.68s116.69-.02,116.69-.02v179.06c0,27.53-25.2,105.86-116.69,110.46h0Z"/>
      <g class="cls-23">
        <path class="cls-10" d="m127.21,378.28c-91.49-4.59-116.68-82.91-116.68-110.45V88.77h116.68s116.69-.02,116.69-.02v179.06c0,27.53-25.2,105.86-116.69,110.46h0Z"/>
      </g>
      <path class="cls-14" d="m37.04,88.77H10.98v192.1c2.53,9.77,6.11,20.06,10.73,30.88h15.34V88.77Z"/>
      <path class="cls-8" d="m37.04,88.77H10.98v192.1c2.53,9.77,6.11,20.06,10.73,30.88h15.34V88.77Z"/>
      <rect class="cls-20" x="64.95" y="88.77" width="23.79" height="222.97"/>
      <rect class="cls-8" x="64.95" y="88.77" width="23.79" height="222.97"/>
      <rect class="cls-20" x="116.18" y="88.77" width="24.7" height="222.98"/>
      <rect class="cls-8" x="116.18" y="88.77" width="24.7" height="222.98"/>
      <rect class="cls-20" x="168.32" y="88.77" width="24.7" height="222.98"/>
      <rect class="cls-8" x="168.32" y="88.77" width="24.7" height="222.98"/>
      <path class="cls-14" d="m219.55,88.77h24.7v183.87c-.97,13.04-5.05,26.07-11.25,39.11h-13.45V88.77Z"/>
      <path class="cls-8" d="m219.55,88.77h24.7v183.87c-.97,13.04-5.05,26.07-11.25,39.11h-13.45V88.77Z"/>
      <path class="cls-19" d="m244.25,88.77h-19.21L18.8,304.66c1.22,3.57,2,5.6,4.09,7.08h30.17L244.25,110.72v-21.95Z"/>
      <path class="cls-11" d="m244.25,88.77h-19.21L18.8,304.66c1.22,3.57,2,5.6,4.09,7.08h30.17L244.25,110.72v-21.95Z"/>
      <path class="cls-15" d="m232.07,309.88H22.25c-.94,1.01,34.04,69.67,105.94,68.7,72.86-2.39,106.86-67.69,103.89-68.7h0Z"/>
      <path class="cls-8" d="m232.07,309.88H22.25c-.94,1.01,34.04,69.67,105.94,68.7,72.86-2.39,106.86-67.69,103.89-68.7h0Z"/>
      <path class="cls-15" d="m107.85,117.57c19.62,17.78,21.12,48.21,3.34,67.83-17.65,19.48-48.07,20.98-67.7,3.2-19.63-17.78-21.12-48.21-3.47-67.69,17.78-19.62,48.21-21.12,67.83-3.34h0Z"/>
      <path class="cls-17" d="m81.52,200.76l-.15-.14c2.71-4.22,3.98-8.08,3.66-11.72-.32-3.64-1.8-6.92-4.59-10.29-15.31,6.45-28.78,5.65-40.59-.04-2.39-1.05-4.5-2.41-6.76-3.9-.15-.14-.46-.41-.9-.54,2.74,5.27,6.34,10.2,11.08,14.49,9.78,8.86,22.4,13.06,34.63,12.46,1.16-.06,2.47-.27,3.63-.33h0Z"/>
      <path class="cls-9" d="m81.52,200.76l-.15-.14c2.71-4.22,3.98-8.08,3.66-11.72-.32-3.64-1.8-6.92-4.59-10.29-15.31,6.45-28.78,5.65-40.59-.04-2.39-1.05-4.5-2.41-6.76-3.9-.15-.14-.46-.41-.9-.54,2.74,5.27,6.34,10.2,11.08,14.49,9.78,8.86,22.4,13.06,34.63,12.46,1.16-.06,2.47-.27,3.63-.33h0Z"/>
      <path class="cls-17" d="m104.42,191.46c2.89-12.41,4.12-22.98,1.9-32.51-2.21-9.24-7.59-17.73-18.21-25.97-3.29,1.48-5.82,3.36-7.16,5.76-1.48,2.56-2.07,5.36-2.04,9,4.45,4.31,6.71,8.87,7.39,13.66.52,4.65-.55,9.52-3.38,14.47,3.56,4.06,5.37,8.2,5.74,12.71.32,3.64-.66,7.48-2.8,11.38,6.65-1.5,13.08-4.3,18.56-8.51h0Z"/>
      <path class="cls-9" d="m104.42,191.46c2.89-12.41,4.12-22.98,1.9-32.51-2.21-9.24-7.59-17.73-18.21-25.97-3.29,1.48-5.82,3.36-7.16,5.76-1.48,2.56-2.07,5.36-2.04,9,4.45,4.31,6.71,8.87,7.39,13.66.52,4.65-.55,9.52-3.38,14.47,3.56,4.06,5.37,8.2,5.74,12.71.32,3.64-.66,7.48-2.8,11.38,6.65-1.5,13.08-4.3,18.56-8.51h0Z"/>
      <path class="cls-17" d="m105.32,114.91c-4.66.23-8.24,1.72-10.59,4.32-2.5,2.46-3.93,6.18-4.42,11.02,11.38,8.64,17.23,17.84,19.62,27.8,2.05,9.1,1.21,18.63-1.02,29.69.83-.91,1.68-1.54,2.37-2.31,9-9.93,12.91-22.54,12.44-34.92-.61-12.24-6.02-24.38-15.8-33.24-.92-.83-1.84-1.66-2.6-2.35h0Z"/>
      <path class="cls-9" d="m105.32,114.91c-4.66.23-8.24,1.72-10.59,4.32-2.5,2.46-3.93,6.18-4.42,11.02,11.38,8.64,17.23,17.84,19.62,27.8,2.05,9.1,1.21,18.63-1.02,29.69.83-.91,1.68-1.54,2.37-2.31,9-9.93,12.91-22.54,12.44-34.93-.61-12.23-6.02-24.38-15.8-33.24-.92-.83-1.84-1.66-2.6-2.35h0Z"/>
      <path class="cls-17" d="m75.04,104.72l-.14.15s-.14.15-.28.3c-.85.62-1.68,1.54-1.95,1.85-6.97,6.77-12.48,13.47-15.93,20.35-3.33,6.44-4.61,13.07-3.41,19.73l.32.57c3.77,5.36,7.41,8.1,11.06,8.07,3.36-.02,7.03-2.54,10.72-7.54-.37-4.51.47-8.2,2.37-11.21,1.88-3.3,4.83-5.64,8.84-7.3.6-5.58,2.28-9.89,5.35-12.97,2.21-2.44,5.21-3.91,8.82-4.81-7.83-4.87-16.86-7.2-25.76-7.2h0Z"/>
      <path class="cls-9" d="m75.04,104.72l-.14.15s-.14.15-.28.3c-.85.62-1.68,1.54-1.95,1.85-6.97,6.77-12.48,13.46-15.93,20.35-3.33,6.44-4.61,13.07-3.41,19.73l.32.57c3.77,5.36,7.41,8.1,11.06,8.07,3.36-.02,7.03-2.54,10.72-7.54-.37-4.51.47-8.2,2.37-11.21,1.88-3.3,4.83-5.64,8.84-7.3.6-5.58,2.28-9.89,5.35-12.96,2.21-2.45,5.21-3.91,8.82-4.81-7.83-4.87-16.86-7.2-25.76-7.2h0Z"/>
      <path class="cls-17" d="m28.07,144.26c2.59,5.13,5.65,7.9,9.32,8.45,3.39.56,7.55-.96,12.48-4.56-1.55-7.81-.16-15.18,3.57-22.37,3.45-7.18,8.95-13.88,15.78-20.49-10.89,1.27-21.43,6.46-29.46,15.32-6.23,6.88-10.06,15.1-11.68,23.64h0Z"/>
      <path class="cls-9" d="m28.07,144.26c2.59,5.13,5.65,7.9,9.32,8.45,3.39.56,7.55-.96,12.48-4.56-1.55-7.81-.16-15.18,3.57-22.37,3.45-7.18,8.95-13.88,15.78-20.49-10.89,1.27-21.43,6.46-29.46,15.32-6.23,6.88-10.06,15.1-11.68,23.64h0Z"/>
      <path class="cls-17" d="m29.5,167.26c1.84,1.66,3.81,3.17,5.77,4.39,1.97,1.51,4.07,2.57,6.16,3.64,10.93,5.45,23.51,6,37.8-.26,2.84-4.66,3.94-8.95,3.45-13.02-.48-3.77-2.11-7.19-5.19-10.55-4.26,5.32-8.36,8-12.75,7.93-4.52.07-8.74-2.64-12.96-8.12-5.64,4.07-10.52,5.78-14.93,5.12-3.68-.55-6.84-2.58-9.36-6.25-.2,1.76-.12,3.51-.03,5.26.2,4.08.83,7.99,2.04,11.87h0Z"/>
      <g class="cls-22">
        <path class="cls-9" d="m29.5,167.26c1.84,1.66,3.81,3.17,5.77,4.39,1.97,1.51,4.07,2.57,6.16,3.64,10.93,5.44,23.51,6,37.8-.26,2.84-4.66,3.94-8.95,3.45-13.02-.48-3.77-2.11-7.2-5.19-10.55-4.26,5.32-8.36,8-12.75,7.93-4.52.07-8.74-2.64-12.96-8.13-5.64,4.07-10.52,5.78-14.93,5.12-3.68-.55-6.84-2.58-9.36-6.25-.2,1.76-.12,3.51-.03,5.26.2,4.08.83,7.99,2.04,11.87h0Z"/>
        <path class="cls-10" d="m127.24,379.42c-91.48-4.59-116.69-82.91-116.69-110.45V89.92l233.37-.02v179.06c0,27.53-25.2,105.86-116.69,110.46h0Z"/>
      </g>
      <path class="cls-15" d="m62.01,294.99c1.09,1.04,1.11,2.1.07,3.19l-5.33,5.55c-1.02,1.06-2.07,1.06-3.15.02l-14.56-13.96c-1.09-1.05-1.13-2.1-.12-3.16l5.33-5.55c1.05-1.09,2.11-1.1,3.21-.06l4.16,4-2.54,2.65-3.52-3.38-3.31,3.45,13.24,12.71,3.31-3.45-3.75-3.59,2.54-2.65,4.41,4.23Zm5.9-2.89l-2.46,2.56-2.75-2.64,2.46-2.56,2.75,2.64Zm7.02-14.04c1.05,1,1.57,2.11,1.57,3.3,0,1.2-.51,2.32-1.52,3.38l-5.21,5.43-17.82-17.1,5.21-5.43c1.01-1.05,2.12-1.6,3.32-1.65,1.2-.04,2.33.44,3.38,1.44l11.08,10.63Zm-3.02,2.25l-10.23-9.82c-1-.96-2-.91-2.99.12l-1.9,1.98,13.24,12.71,1.84-1.91c1.04-1.08,1.05-2.11.05-3.08h0Zm10.61-3.44l-2.46,2.56-2.75-2.64,2.46-2.56,2.76,2.64Zm16.27-16.91l-.17.18-2.06.32c.39.78.22,1.55-.5,2.3l-5.55,5.79c-1.02,1.06-2.07,1.06-3.15.02l-14.55-13.97c-1.09-1.05-1.12-2.11-.09-3.19l5.52-5.75c1.03-1.07,2.1-1.09,3.19-.04l12.89,12.37,2.02-.38,2.45,2.35Zm-6.03,1.65l-.63-.6-2.68.42-2.43-2.33.15-.16,2.39-.39-10.06-9.65-3.5,3.66,13.24,12.71,3.51-3.65Zm14.16-13.44c1.09,1.04,1.11,2.1.05,3.2l-5.43,5.66c-1.03,1.08-2.09,1.1-3.18.06l-16.19-15.54,2.56-2.67,15.53,14.9,3.44-3.59-15.53-14.91,2.55-2.66,16.19,15.54Zm6.29-3.29l-2.56,2.66-17.82-17.1,2.56-2.66,17.82,17.1Zm10.77-11.22l-2.24,2.34-15.32-6.49c.66.41,1.14.76,1.45,1.06l9.93,9.53-2.49,2.6-17.82-17.1,2.24-2.34,15.09,6.27c-.66-.41-1.14-.77-1.45-1.06l-9.7-9.31,2.49-2.6,17.82,17.1Zm-5.98-24.73l-2.82,2.94,15.47,14.84-2.55,2.65-15.47-14.84-2.82,2.94-2.36-2.26,8.19-8.53,2.36,2.26Zm25.43,4.45l-2.54,2.65-3.9-2.71-3.2,3.34,2.87,3.78-2.52,2.63-.05-.04-14.49-20.53,2.69-2.8,21.14,13.69Zm-9.08-1.89l-9.28-6.42,6.78,9.02,2.5-2.61Zm19.18-8.64l-2.24,2.34-15.32-6.49c.66.41,1.14.76,1.45,1.07l9.93,9.53-2.49,2.6-17.82-17.1,2.24-2.34,15.09,6.27c-.65-.41-1.14-.77-1.45-1.07l-9.7-9.31,2.49-2.6,17.82,17.1Zm10.72-11.17l-2.54,2.64-3.9-2.71-3.2,3.33,2.87,3.79-2.53,2.63-.04-.04-14.49-20.53,2.69-2.8,21.14,13.7Zm-9.08-1.89l-9.29-6.41,6.79,9.02,2.5-2.61Zm19.27-8.72l-2.67,2.78-11.1-5s-.54-.51-1.61-1.54l2.52-2.62-5.65-5.42-3.22,3.36,15.53,14.91-2.56,2.66-17.83-17.1,6.79-7.07c1.02-1.07,2.09-1.08,3.18-.03l6.48,6.22c.75.72.99,1.44.73,2.16-.15.38-.64,1.01-1.49,1.9l10.9,4.81Zm11.34-18.54c1.05,1,1.57,2.11,1.57,3.3,0,1.19-.51,2.32-1.52,3.38l-5.22,5.43-17.82-17.1,5.22-5.43c1.01-1.06,2.12-1.6,3.32-1.65,1.2-.04,2.33.44,3.38,1.44l11.08,10.63Zm-3.01,2.25l-10.24-9.82c-.99-.96-1.99-.91-2.99.12l-1.9,1.99,13.25,12.71,1.84-1.91c1.04-1.09,1.06-2.11.05-3.08h0Zm15.44-8.48l-7.09,7.39-17.82-17.1,7.03-7.32,2.36,2.26-4.47,4.66,5.21,4.99,3.84-4.01,2.31,2.22-3.84,4.01,5.59,5.37,4.54-4.73,2.36,2.26Zm8.46-8.82l-6.72,7-17.82-17.1,2.56-2.67,15.44,14.82,4.16-4.34,2.38,2.29Zm14.88-15.51l-2.66,2.78-11.1-5.01s-.54-.52-1.61-1.54l2.52-2.62-5.65-5.42-3.22,3.36,15.53,14.9-2.56,2.67-17.82-17.1,6.78-7.08c1.03-1.07,2.09-1.08,3.18-.03l6.48,6.21c.75.72.99,1.45.73,2.16-.15.39-.65,1.02-1.5,1.9l10.89,4.81Zm8.66-9.02l-7.09,7.39-17.82-17.1,7.03-7.32,2.36,2.26-4.47,4.66,5.2,5,3.85-4.01,2.31,2.22-3.85,4.01,5.59,5.37,4.54-4.73,2.35,2.26Zm-7.38-27.79l5.19,9.5c.46,1,1.33,2.58,2.6,4.75l6.55,6.29-2.57,2.68-6.55-6.29c-.7-.45-1.5-.87-2.38-1.28-1.52-.68-2.34-1.05-2.47-1.12l-9.7-4.8s-.04-.03-.1-.1l2.64-2.75,9.79,5.3-5.71-9.55,2.62-2.73c.06.05.09.08.1.1h0Z"/>
    </g>
  </g>
</svg>