<?xml version="1.0" encoding="UTF-8"?>
<svg id="Layer_2" data-name="Layer 2" xmlns="http://www.w3.org/2000/svg" viewBox="0 0 349.2 454.61">
  <defs>
    <style>
      .cls-1 {
        fill: #060a08;
      }

      .cls-1, .cls-2, .cls-3, .cls-4, .cls-5, .cls-6, .cls-7, .cls-8, .cls-9, .cls-10, .cls-11, .cls-12, .cls-13, .cls-14, .cls-15, .cls-16, .cls-17 {
        fill-rule: evenodd;
        stroke-width: 0px;
      }

      .cls-2 {
        fill: #060614;
      }

      .cls-3 {
        fill: #6898eb;
      }

      .cls-4 {
        fill: #04030b;
      }

      .cls-5 {
        fill: #140506;
      }

      .cls-6 {
        fill: #070a08;
      }

      .cls-7 {
        fill: #0e1212;
      }

      .cls-8 {
        fill: #1b1918;
      }

      .cls-9 {
        fill: #0b040b;
      }

      .cls-10 {
        fill: #2e2e2f;
      }

      .cls-11 {
        fill: #1b2812;
      }

      .cls-12 {
        fill: #45c337;
      }

      .cls-13 {
        fill: #fe0000;
      }

      .cls-14 {
        fill: #fff;
      }

      .cls-15 {
        fill: #9bffff;
      }

      .cls-16 {
        fill: #b68e52;
      }

      .cls-17 {
        fill: #f5987a;
      }

      .cls-18 {
        fill: none;
        stroke: #000;
        stroke-width: .21px;
      }
    </style>
  </defs>
  <g id="Layer_1-2" data-name="Layer 1">
    <g>
      <path class="cls-13" d="m70.84,98.21c-3.96-5.45-10.26-8.98-17.35-8.98-11.98,0-21.7,10.07-21.7,22.49s9.72,22.49,21.7,22.49c6.19,0,11.78-2.69,15.73-7,2.17,0,22.49-.01,22.87-.01-19.24,20.08-30.72,46.99-30.72,76.65s12.57,58.66,32.89,78.84c17.24,17.12,36.17,26.64,59.98,31.03-1.62,18.19-3.77,36-8.83,52-46.52-3.64-89.73-59.57-100.14-94.93,10.76-.22,19.32,5.06,27.94,9.47-19.93-23.87-39.53-48.42-56.94-74.81-3.92,32.29-9.07,64.34-16.11,96.02v.42c7.19-2.48,12.42-6.63,16.5-11.92.97-1.26,2.3-2.59,3.64-3.08,20.95,68.63,72.15,116.79,111.27,129.61,3.1,1.02,6.86,2.82,10.1,3.62,13.8,3.39,20.51,6.21,25.06,14.61,3.89,6.06,8,13.16,11.34,19.72h2.63c2.6-7.21,5.9-13.69,9.23-18.66,4.44-6.61,9.89-11.7,17.28-14.2,73.8-35.36,103.16-87.25,122.57-144.12,1.64.81,2.9,1.95,4.32,3.73,4.3,5.4,9.66,8.13,14.92,9.77v-1.79c-5.74-19.53-11.61-47.12-17.64-85.03-16.3,24.07-34.2,47.54-53.03,70.66,8.41-2.41,17.23-3.89,25.21-7.22,1.46-.61,2.57-.88,3.55-.24-25.36,47.75-51.12,72.45-77.18,89.14-6.48,4.14-13.89,6.89-22.49,7.93-6.57-16.14-9.56-33.45-10.51-51.45,20.43-3.41,41.49-15.81,56.06-30.27,20.32-20.18,32.89-48.06,32.89-78.84s-11.57-56.64-30.74-76.64h20.51c3.85,3.62,8.96,5.82,14.57,5.82,11.98,0,21.7-10.07,21.7-22.49s-9.72-22.49-21.7-22.49c-7.59,0-14.27,4.04-18.15,10.16h-62.44c-3.3-1.12-18.67-4.57-21.21-4.9v-7.21c16.79-6.16,28.66-22.03,28.66-41.19C217.09,20.2,197.17.17,172.6.17s-44.49,20.03-44.49,44.73c0,18.35,11.1,33.68,26.88,40.36v8.62c-5.75.96-11.35,2.35-16.76,4.13l-67.38.2Zm101.55-34.51c-10.38,0-18.79-8.5-18.79-18.99s8.31-18.5,18.69-18.5,18.89,8.01,18.89,18.5-8.41,18.99-18.79,18.99h0Z"/>
      <path class="cls-8" d="m70.71,98.3c-2-2.75-4.6-5.01-7.61-6.57-2.89-1.5-6.15-2.34-9.6-2.34-5.95,0-11.33,2.5-15.22,6.53-3.9,4.04-6.31,9.62-6.31,15.79s2.41,11.75,6.31,15.79c3.89,4.04,9.28,6.54,15.22,6.54,3.01,0,5.88-.64,8.48-1.8,2.71-1.2,5.13-2.97,7.12-5.15l.05-.05h22.94s.4-.01.4-.01l-.27.29c-9.75,10.17-17.5,22.1-22.77,35.26-5.12,12.77-7.9,26.68-7.9,41.27s3.02,29.45,8.49,42.57c5.68,13.62,14.02,25.89,24.35,36.15,8.61,8.55,17.64,15.2,27.48,20.26,9.85,5.06,20.52,8.53,32.41,10.72l.15.03v.16c-.82,9.1-1.76,18.1-3.14,26.83-1.37,8.74-3.18,17.2-5.71,25.21l-.04.13h-.13c-20.76-1.64-40.85-13.64-57.68-29.59-20.95-19.86-36.83-45.83-42.61-65.47l-.06-.21h.22c9.53-.19,17.33,3.89,24.96,7.89.77.4,1.53.8,2.31,1.21-9.78-11.72-19.48-23.62-28.88-35.82-9.47-12.3-18.64-24.91-27.27-37.98-1.95,15.99-4.2,31.93-6.83,47.79-2.66,16-5.7,31.93-9.23,47.76v.16c3.48-1.23,6.5-2.85,9.15-4.8,2.7-2,5.02-4.35,7.05-6.98.54-.7,1.19-1.42,1.88-2.01.59-.49,1.21-.9,1.84-1.12l.17-.06.05.17c9.7,31.77,25.89,59.15,44.36,80.66,21.39,24.92,45.84,41.96,66.8,48.84,1.23.4,2.57.93,3.93,1.47,2.08.82,4.22,1.67,6.15,2.14,6.91,1.7,12.05,3.25,16.04,5.44,4,2.19,6.83,5.02,9.12,9.25,1.96,3.05,3.98,6.37,5.92,9.76,1.9,3.3,3.73,6.65,5.38,9.88h2.41c1.26-3.48,2.69-6.8,4.2-9.85,1.6-3.24,3.3-6.18,5.01-8.73,2.23-3.32,4.71-6.26,7.57-8.68,2.86-2.42,6.08-4.33,9.8-5.59,36.87-17.67,62.63-39.46,81.61-63.94,18.98-24.48,31.16-51.66,40.86-80.07l.06-.18.17.09c.84.41,1.57.91,2.28,1.53.71.62,1.39,1.35,2.1,2.25,2.14,2.68,4.54,4.7,7.06,6.25,2.45,1.51,5.02,2.58,7.56,3.38v-1.54c-2.87-9.76-5.77-21.54-8.71-35.61-2.92-13.98-5.87-30.21-8.87-49-8.09,11.92-16.55,23.69-25.33,35.34-8.76,11.62-17.83,23.14-27.12,34.57,2.63-.74,5.31-1.4,7.98-2.06,5.69-1.39,11.38-2.79,16.69-5.01.75-.31,1.4-.54,2-.6.62-.07,1.18.03,1.71.38l.13.09-.07.14c-12.68,23.89-25.47,42.01-38.35,56.25-12.88,14.24-25.84,24.6-38.89,32.95-3.25,2.08-6.73,3.81-10.48,5.15-3.75,1.34-7.77,2.29-12.08,2.8h-.13s-.05-.11-.05-.11c-3.29-8.08-5.69-16.45-7.37-25.06-1.69-8.6-2.67-17.44-3.15-26.45v-.15s.14-.03.14-.03c9.83-1.64,19.81-5.36,29.14-10.4,10.02-5.41,19.3-12.34,26.84-19.83,10.34-10.27,18.67-22.53,24.35-36.15,5.47-13.11,8.49-27.49,8.49-42.57s-2.79-28.52-7.9-41.25c-5.29-13.18-13.06-25.11-22.8-35.27l-.27-.29h20.91s.07,0,.07,0l.05.05c1.95,1.83,4.22,3.29,6.71,4.28,2.4.96,5.01,1.49,7.74,1.49,5.95,0,11.33-2.5,15.22-6.54,3.9-4.04,6.31-9.62,6.31-15.78s-2.41-11.75-6.31-15.79c-3.89-4.04-9.28-6.54-15.22-6.54-3.7,0-7.18.97-10.21,2.67-3.15,1.77-5.84,4.32-7.79,7.41l-.05.08h-62.59c-1.51-.52-5.57-1.52-9.75-2.49-4.94-1.14-10.06-2.23-11.42-2.41l-.15-.02v-7.48l.11-.04c8.49-3.12,15.73-8.73,20.78-16,4.9-7.04,7.76-15.64,7.76-25.04,0-12.31-4.96-23.45-12.98-31.51C195.92,5.33,184.84.34,172.6.34s-23.32,4.99-31.34,13.05c-8.02,8.06-12.98,19.21-12.98,31.51,0,8.97,2.66,17.21,7.23,24.07,4.74,7.12,11.54,12.75,19.55,16.13l.11.04v8.87l-.14.02c-2.86.48-5.68,1.06-8.45,1.74-2.8.69-5.57,1.49-8.28,2.39h-.03s-.03,0-.03,0l-67.38.19h-.09l-.05-.07Zm-7.45-6.87c3.02,1.57,5.65,3.84,7.68,6.6l67.27-.19c2.71-.89,5.48-1.69,8.29-2.38,2.74-.67,5.52-1.25,8.33-1.73v-8.36c-8.02-3.42-14.83-9.07-19.59-16.21-4.61-6.91-7.29-15.22-7.29-24.26,0-12.4,5-23.62,13.08-31.75,8.08-8.13,19.25-13.15,31.58-13.15s23.5,5.03,31.58,13.15c8.08,8.12,13.08,19.35,13.08,31.75,0,9.46-2.89,18.13-7.82,25.23-5.08,7.3-12.32,12.93-20.84,16.08v6.94c1.57.23,6.53,1.29,11.3,2.39,4.17.97,8.22,1.97,9.76,2.49h62.32c1.98-3.11,4.69-5.67,7.87-7.45,3.09-1.73,6.62-2.71,10.38-2.71,6.04,0,11.51,2.54,15.47,6.64,3.96,4.1,6.4,9.76,6.4,16.02s-2.45,11.92-6.4,16.02c-3.96,4.1-9.43,6.64-15.47,6.64-2.77,0-5.42-.54-7.86-1.51-2.52-1-4.8-2.47-6.77-4.31h-20.05c9.64,10.12,17.34,21.99,22.59,35.09,5.12,12.77,7.92,26.72,7.92,41.38s-3.03,29.54-8.52,42.7c-5.7,13.67-14.05,25.96-24.43,36.26-7.56,7.51-16.86,14.46-26.91,19.89-9.31,5.03-19.27,8.75-29.09,10.41.48,8.94,1.47,17.71,3.14,26.25,1.68,8.54,4.05,16.86,7.3,24.87,4.24-.52,8.19-1.46,11.88-2.78,3.73-1.33,7.19-3.05,10.41-5.11,13.02-8.33,25.96-18.67,38.82-32.89,12.83-14.19,25.57-32.25,38.22-56.04-.42-.23-.86-.29-1.35-.24-.56.06-1.19.28-1.91.57-5.34,2.23-11.04,3.62-16.74,5.03-2.84.7-5.69,1.4-8.49,2.2l-.52.15.34-.42c9.41-11.56,18.59-23.21,27.46-34.97,8.87-11.77,17.41-23.66,25.56-35.68l.24-.35.07.42c3.02,18.95,5.99,35.33,8.93,49.4,2.94,14.07,5.84,25.85,8.71,35.61v.02s0,2.05,0,2.05l-.22-.07c-2.64-.82-5.31-1.92-7.86-3.49-2.55-1.57-4.98-3.62-7.14-6.33-.7-.88-1.37-1.61-2.05-2.21-.64-.55-1.3-1.01-2.04-1.39-9.7,28.38-21.89,55.52-40.85,79.98-19.01,24.52-44.82,46.35-81.75,64.04h-.01s0,0,0,0c-3.67,1.24-6.87,3.13-9.69,5.53-2.83,2.4-5.29,5.32-7.5,8.61-1.7,2.53-3.39,5.46-4.98,8.69-1.52,3.08-2.96,6.42-4.22,9.93l-.04.11h-2.85l-.05-.09c-1.66-3.25-3.5-6.63-5.41-9.96-1.94-3.38-3.96-6.7-5.92-9.75h0c-2.25-4.18-5.05-6.96-8.98-9.12-3.96-2.17-9.08-3.71-15.96-5.41-1.96-.48-4.11-1.33-6.2-2.16-1.36-.54-2.69-1.06-3.91-1.46-21.02-6.89-45.52-23.98-66.96-48.94-18.46-21.5-34.64-48.87-44.37-80.61-.53.22-1.06.57-1.56,1-.68.57-1.31,1.28-1.84,1.96-2.05,2.65-4.39,5.02-7.12,7.04-2.73,2.02-5.85,3.68-9.46,4.93l-.23.08v-.7c3.53-15.83,6.57-31.76,9.23-47.76,2.66-16,4.93-32.09,6.89-48.24l.05-.46.25.39c8.7,13.19,17.95,25.92,27.52,38.34,9.56,12.41,19.45,24.52,29.41,36.45l.54.64-.74-.38c-1-.52-2.03-1.05-3.06-1.59-7.53-3.94-15.23-7.98-24.57-7.86,5.82,19.57,21.63,45.36,42.46,65.11,16.73,15.86,36.71,27.82,57.34,29.48,2.51-7.95,4.3-16.36,5.66-25.02,1.37-8.67,2.3-17.62,3.11-26.66-11.86-2.2-22.51-5.68-32.35-10.73-9.88-5.07-18.93-11.75-27.57-20.32-10.37-10.3-18.73-22.59-24.43-36.26-5.49-13.16-8.52-27.58-8.52-42.7s2.79-28.59,7.92-41.4c5.24-13.07,12.92-24.94,22.57-35.08h-22.4c-2.02,2.2-4.46,3.97-7.18,5.18-2.65,1.18-5.56,1.83-8.62,1.83-6.04,0-11.51-2.54-15.47-6.64-3.96-4.1-6.4-9.77-6.4-16.02s2.45-11.92,6.4-16.02c3.96-4.1,9.43-6.64,15.47-6.64,3.5,0,6.82.86,9.76,2.38h0Zm109.14-27.57c-5.23,0-9.98-2.14-13.41-5.61-3.43-3.47-5.55-8.26-5.55-13.55s2.07-9.91,5.45-13.25c3.41-3.38,8.15-5.42,13.41-5.42s10.07,2.05,13.54,5.44c3.41,3.34,5.52,7.98,5.52,13.23s-2.12,10.08-5.55,13.55c-3.43,3.46-8.18,5.61-13.41,5.61h0Zm-13.17-5.85c3.37,3.41,8.03,5.51,13.17,5.51s9.8-2.11,13.17-5.51c3.37-3.4,5.45-8.11,5.45-13.3s-2.07-9.71-5.42-12.98c-3.4-3.33-8.11-5.35-13.3-5.35s-9.82,2.01-13.17,5.32c-3.31,3.28-5.35,7.84-5.35,13.01s2.09,9.9,5.45,13.3h0Z"/>
      <path class="cls-16" d="m168.33,229.28c.3.07,1.03.34,1.37.48.76.3.28.23,1.04.76,1.46,1.02,2.69-.11,3.57.72,1.17,1.1.86.18,2.54.36,1.41.15.59.27,1.05.5.6.31.26.03.9-.01l4.1.19c1.26.14,2.97,1.02,4.12,1.16,1.59.2.91.06,2.13.56.73.3,1.8.15,2.64.15,5.09.01.8-.8,7.32-.68,1.42.02,1.06.25,1.95.94,1.98,1.52,2.15.34,4.25,1.14.96.36,1.45.18,2.53.23,1.06.04,1.12.63,2.13.62.09-2.91-.38-5.73.41-8.3.36-1.18.24-2.62.24-4,0-1.79.47-2.06,1.22-3.29,1.01-1.68,2.32-3.72,3.91-4.82,1.17-.81,1.82-1.04,3.24-.2,1.17.69,1.8.74,2.67,1.78.84,1,2.59,4.13,3.2,5.54.69,1.59-.07,15.98.34,17.13.23.65,1.04.98,1.99,2.44.58.89,1,1.98,1.85,2.67,1.56.58,3.5-2.69,4.43-3.99l1.44-3.64-.82-.08c-.09-3.08.2-2.94.75-5.31l1.3-4.83c.13-2.02.24-2.78-.77-3.26-.47.5-.44.57-.82,1.16l-1.24-.03-.44-.63c-.4-.7-.21-1.93-.2-2.78.01-1.09-.61-2.23-1.22-2.93-.58-.66-.54-2.53-.04-3.24.62-.89.83-2.07.9-3.33-1.33,0-2.5.43-3.67-.29.26-.87,1.39-1.97,2.01-2.66,1.16-1.27,1.14-1.53,1.6-3.1,1.07-.32.84.09,1.8.22l.46-.04.02-.92c-.3-.95-.39-.02-.88-1.98-.11-.43-.32-1.13-.48-1.51-.4-.99-.47-2.03-.87-2.87-.21-.45-.32-.92-.46-1.31-.08-.21-.06-.19-.16-.39-.46-.84-.74-.71-.81-2.37-.06-1.49.14-3.7-.86-4.89-1.42-1.68-2.03-.2-4.69,1.2-.5.26-.63.39-.75,1-.78.08-1.08.23-1.39.57l-.68.58c-1.45,1.16-.5.07-2.24,1.85-.59.61-.28.73-1.48.81-.05.28-.07.53-.18.72-.23.35-.04.15-.42.34-1.06.52-2.33.78-3.33,1.38.51,2.03,2.12-.09.41,4.95l-2.25-.52c-.03,1.25.16,1.7-.71,2.32-.4.29-1.33.99-1.84.98-.42-2.15-.11-4.88,1.67-5.62.9.39.29.68,1.53.81l-.13-2.37c-.53.04-.7.08-1.14.28-.57.25-1.71,1.48-2.01,2.03l-1.45.16-.12,3.05c-.05,1.43-.27,1.15-1.15,1.75l-1.46.88c-.47.21-.15.05-.58.17-.67.2-1.43.79-1.96,1-.49.19-.68.07-1.25.21-.7.16-1.16.67-1.73.97l.32,2.85c0,.46,0,1.15-.07,1.58-.04.25-.09.41-.22.67-.22.43-.13.24-.32.47-1.93.04-8.38-.27-9.7.07-1.89.49-1.95,1.82-2.92,2.59-.8.63-.08.82-1.56,2.53-.71.82-.38.14-.71,1.36-.38,1.4-.42.44-.93,1.42-.11.2-.24.74-.32.92-.38.82-.48.26-1.2,1.3-.8,1.14-.85,1.69-1.31,2.25-.33.4-.77.8-1.07,1.23-.77,1.08-.76,2.55-2.42,2.56-.12-1.62.07-3.21.73-4.59.36-.74.41-1.44.7-2.13l1.29-2.84c.73-1.05-.56-1.66.18-2.66.43-.58,2.08-.82,3.08-2.58l1.11-2.27c.4-.93,1.12-1.51,1.39-2.47l.86-2.06c.86-.09,1.08.24,1.89.4,2.18.44,4.27.32,6.49.35,2.57.03,1.73-.64,2.59-1.9.99-1.45.54-2.09,2-2.41.08-1.28.6-1.58,1.38-2.41.34-.37.57-.62.75-1.02.1-.21.16-.45.25-.64.16-.31,0-.06.21-.32.91-1.17.37-1.2,1.12-1.91,1.58-1.49.47-2.17,2.18-2.26.09-1.02.23-.93.77-1.54l2.22-2.07c.21-.17.11-.13.26-.26.19-.17,0-.07.3-.24.73-.41,1.62-.52,2.26-.93.93-.6.92-.07,1.73-.43l1.82-1.38c.5-.57.16.08.47-.64.21-1.57-2.79-1.45-3.67-.96l-1.88,1.14c-.66.43-1.12.46-1.89.81l-1.65,1.04c-.67.38-.77.86-1.44,1.23-1.05.59-1.25,1.25-2.24,1.84-.79.47-1.4,1.25-2.31,1.6-1.52.59-.63.28-1.62,1.03-.43.32-.52.2-.96.48-.24.15-.41.38-.69.54-.48.27-.41.06-.94.48-.21.16-.4.44-.65.6-.45.28-.61.13-.96.47l-1.03,1.66c-.46.94-1.07,1.24-2.18,1.69-.82.34-1.5,0-2.28.07-.09.73,0,1.21-.22,1.73-.48,1.18-.64,2.94-1.32,4.05l-2.91-.21c-.18-.41-.31-.59-.48-.97l-1.59.13c-.73-2.37,1.17-.77.82-3.7-.9-.55-.98-.38-.74-1.61.14-.7.32-1.39.62-1.87.55-.88,2.48-1.78,3.58-1.41l.1.47c.01.52-.18.4-.19.4l.47-.61c.23-.45.17-.51.36-.93.39-.85.78-.51.75-1.68-1-.51-4.25-.95-5.31-.2l-1.28,1.03c-.73,1-.25,1.35-1.75,1.98-.05,1.12-.23,1.61-.24,2.68,0,.8.09,2.1,0,2.85-.14,1.14-1.2,1.66-1.74,2.48-.23.34-.29.55-.51.94-.56,1-.67.79-.64,2.29,0,.47-.21,4.79-.46,5.16-.72,1.07-.92-.46-1.39,1.32-.77.1-.99.25-1.91.36-.28.46-.06.17-.19.48-.42,1.04-1.26,1.49-1.53,2.22-.64,1.71.07,2.5-.13,3.8-.08.56-.95,1.46-1.45,1.75-.72.42-1.29.27-2.23.98-.39.3-.48-.07-.44.67.04.84-.27.17.45.56h0Z"/>
      <path class="cls-16" d="m142.48,224.9c1.62-.17,2.89.04,4.44-.02,1.26-.05.99-.42,1.95-.5,1.1-.1.85.3,1.95.44.76.1,1.24-.05,1.7.42.82.82.06.56,1.44.91.78.2.79.45,1.84.5.67.04,1.74,0,2.41-.05.91-.73,1.28-.14,2.06.06.45.11.95.07,1.41,0l.75-.16c.33-.11.15.08.43-.34l.49-.58c.27-.23.03.06.3-.23.34-.38.35-.86.49-1.45l2.51-4.99c.25-.57.31-.28.47-.95l.09-3.14c-.94.25-3.32,3.95-4.63,2.5-.85-1.71,1.27-2.79,2.43-3.44.29-1.7-.28-1.82.9-2.85,1.02-.88,1.37-.31,2.02-1.77,1.05-.06,1.23.05,1.43-.89.69-.06,1.57.31,2.48-1.39.22-.39.18-.7.25-1.23.09-.71,1.55-2.33.74-4.36-.97.09-.46-.01-1.35.96-.53.58-.44.44-1.12.46l-.02,1.06c-1.43-.04-.55.14-1.53.75-2.16,1.36-.25,1.25-2.82,2.02-.33.1-.75-.09-.96,1.53-1.45.02-.81,0-1.25,1.06-.16.4,0,.04-.2.35-.67,1.02-.27.25-.56,1.28-.31,1.12-.39.32-.89,1.36-1.02,2.13-1.11,1.76-2.38,3.35l-.62.59c-.53.33-2.64,1.27-3.62.78-1.31-.66-.75-4.1-.4-4.81.18-.36.22-.41.36-.72l.96-2.04c.58-1.11.72-2.73,1.12-3.52,1.18-2.26-.14-2.5-.74-2.88-1.57-1.01.55-.8-3.85-1.33-1.75-.21-3.74,1.14-5.21,1.9l-1.7,1.34c-.64.71-.75,2.21-1.24,2.84-.02.03-.06.06-.08.09l-.65,1.13c-.19.54-.2,1.14-.32,1.66-.21.94-.41.65-.67,1.46-.62,1.95.22.6-1.03,2-.04.05-.41.58-.44.63-.38.66-.18.7-.8,1.15-1.29.95-.89.64-1.75,2.21-.34.61-1.54.78-2.16,4.11-.43,2.3.22,2.48.38,2.93l.08.34c.91.03,1.89.09,2.8.04,1.12-.06,1.43-.38,2.33-.56h0Z"/>
      <path class="cls-16" d="m191.05,186.56c-.92.62-.41,1.78-.66,3.01-1.6.25-5.17.05-6.98.05-5.16,0-2.39.07-5.7.53l-.8.24c.54-.04,1.2,0,1.68-.07.75-.09.52-.29,1.27-.43,1.16-.22,19.99.05,20.87-.18.41-.1.97-.37,1.39-.44.57-.1,1.07-.04,1.63-.07.11-.73-.36-1.25-.34-2.48.52-.31,2.01-1.29,2.37-1.65.09-1.98-.5-1.57-.56-3.2-.05-1.3.08-2.64.02-3.94-.07-1.44-.63-1.28-.66-3.01-.11-5.5.78-3.19-3.88-5.02-5.26-2.07-3.75-.23-4.62,1.88-.57,1.38-1.24,4.49-1.71,6.26-.13.46-.16.88-.29,1.38l-2.68,9.37c-.34.57.07.18-.51.51l-.15-.32c-.01-.05-.04-.11-.06-.17-.25-1.08.07-1.64.36-2.25h0Z"/>
      <path class="cls-1" d="m234.88,237.69l-1.82,3.25c-.94,1.3-2.49,4.96-4.05,4.38-.85-.69-1.27-1.78-1.85-2.67-.95-1.47-1.76-1.79-1.99-2.44-.41-1.15.35-15.54-.34-17.13-.61-1.41-2.36-4.54-3.2-5.54-.87-1.04-1.5-1.09-2.67-1.78-1.42-.84-2.06-.61-3.24.2-1.58,1.1-2.9,3.14-3.91,4.82-.75,1.23-1.21,1.5-1.22,3.29,0,1.38.12,2.82-.24,4-.79,2.57-.32,5.39-.41,8.3-1.01.01-1.07-.58-2.13-.62-1.08-.05-1.57.14-2.53-.23-2.1-.8-2.27.38-4.25-1.14-.89-.68-.53-.91-1.95-.94-6.52-.11-2.22.69-7.32.68-.84,0-1.91.15-2.64-.15-1.21-.5-.54-.36-2.13-.56-1.15-.14-2.86-1.02-4.12-1.16l-4.1-.19c-.64.04-.3.32-.9.01-.46-.24.37-.36-1.05-.5-1.68-.18-1.37.74-2.54-.36-.88-.83-2.11.3-3.57-.72-.76-.53-.29-.45-1.04-.76-.34-.14-1.07-.41-1.37-.48-.98-.23-.39-.41-1.3-.45-.88-.03-.29.35-1.39,0-1.17-.37-.7-.05-1.44-.09-1.31-.07-.87-1.55-3.26-1.99-1.35-.25-1.5-.7-2.72-.16-.67.06-1.74.1-2.41.06-1.04-.05-1.05-.3-1.84-.5-1.38-.35-.63-.09-1.44-.91-.46-.46-.94-.32-1.7-.42-1.09-.14-.85-.54-1.95-.44-.96.09-.7.45-1.95.5-1.55.06-2.82-.15-4.44.02-2.15.89-5.45.6-8.4.61-3.39,0-1.56.27-2.49.56-1.15.36-3.41-.53-4.27-.56-1.45-.06-2.67-.63-2.74-2.14.54-1.1,2.31-1.88,3.36-2.43,1.64-.87,5.18-3.73,5.77-5.62.27-.86.34-1.59.47-2.45.13-.88.43-1.3.72-2.1.36-1,.53-.9.62-2.19.08-1.14,3.19-8.73,3.66-10.51.27-1.04,1.4-2.71,2.48-3.07,4.37-1.45,5.63.01,7.06.52.64.23,1.73.22,2.44.44.79.25,1.2.49,2.12.74l4.58,1.08c3.05.97,4.82.02,6.17-.18.43-.07.91-.02,1.38-.07.86-.11,1.51-.39,2.33-.51,2.73-.38,4.44-.84,7.01-1.58,2-.57,2.32-1.62,2.5-3.07,1.95-1.47,5.7-.94,8.47-.96,3.04-.02,6.24-.09,9.26.1,4.02.25,2.65-.38,3.96-.68,2.05-.48,7.21,1.08,6.51-2.42-.29-1.43.18-1.82,1.9-2.71.74-.38,1.19-.26,1.97-.53l5.15-1.81c2.27-.63.45.26,3.66-.98,3.04-1.17,2.62-.18,3.83-.79,1.01-.52.46-.33,1.86-.44.78-.06,1.13-.35,1.83-.49.75-.15,1.53-.02,2.28-.05,1.14-.04.75-.24,1.75-.48,1.58-.38,7.07-.27,9.06-.16.49.83.62,1.8.7,2.97.35.18.41.13.75.33.06,1.61.31,1.77.64,3.73.08.46.33.88.49,1.55l1.05,5.02c.41,1.19-.06,2.69.38,3.79.65,1.62.5,1.5.51,3.58,0,1.54.21,9.22-.2,10.15-.78,1.8-.4,1.35-.44,3.58-.03,1.76-.26.53-.54,1.47-.31,1.03.21,2.32-.4,3.74-.4.94-.66,2.3-.81,3.31-.18,1.24-.66,1.9-.96,3.16-.22.92-.06.76-.53,1.55-1.27,2.14-.59,1.55-1.14,2.96-.42,1.07-1.16,1.91-1.45,2.61-.33.85-.42,2.57-1.95,4.24h0Zm-43.82-51.13c-.29.61-.62,1.18-.36,2.25.01.06.04.12.06.17l.15.32c.58-.33.17.06.51-.51l2.68-9.37c.13-.5.17-.92.29-1.38.47-1.76,1.13-4.88,1.71-6.26.88-2.11-.64-3.95,4.62-1.88,4.66,1.83,3.76-.48,3.88,5.02.03,1.74.59,1.57.66,3.01.06,1.3-.07,2.64-.02,3.94.06,1.62.65,1.21.56,3.2-.36.36-1.86,1.34-2.37,1.65-.02,1.24.45,1.75.34,2.48-.57.03-1.07-.04-1.63.07-.42.07-.98.34-1.39.44-.88.23-19.71-.04-20.87.18-.75.14-.53.34-1.27.43-.48.06-1.14.02-1.68.07-.58.45-1.13.94-1.34,1.66-.24.84-.29,1.39-.99,1.8l-4.54,1.32c-2.16.16-1.54.42-2.39.63-.85.21-1.84-.1-2.74.15-.79.21-.21.31-1.27.4-.39.04-1.02,0-1.44,0-5.01,0-5.44.14-10.13-1.68-.48-.18-.69-.14-1.15-.29l-2.38-.61c-2.51-.51-3.62-.7-6.41-.28-3.61.54-4.72,5.53-5.2,6.57-.34.75-.59,1.21-.84,2.01-.12.4-.24.79-.4,1.17-.95,2.16-.68,2.34-1.05,3.23-.2.47-.3.43-.44.92-.42,1.45-1.64,7.19-2.16,8.05-1.02,1.69-4.79,4.2-6.44,5.33-2.44,1.66-2.19,1.92-2.28,3.42-1.26.25-2.59,0-3.86,0-2.14,0-1.73.34-2.83,1,.04,1.75.49,1.42,4.44,1.4,1.64-.01,3.9-.31,5.17.33.68.34.1.26,1.05.31,1.11.04,3.18-.14,4.06.04,3.23.68,1.29.43,5.03.47,1.75.02,3.8.07,5.53-.01,1.26-.06.84-.48,2.29-.51,2.32-.05,5.95-.19,7.69.58,1.11.49,2.28,1.28,3.02.9.02-.01.34-.29.39-.32.42-.37-.07.02.32-.28.31-.09,3,.78,3.25.83,1.26.23,2.23.25,3.37.63,1.88.61,4.16,1.39,5.66,2.14,2.28,1.14,4.12,1.3,5.86,1.98,1.59.63,2.01.14,3.39.51.62.16.54.39,1.44.45.6.04,1.35,0,1.96,0,2.31,0,5.96,1.15,7.72,2.35l2.38,1.54c1.36.8,4.44,3.27,5.52,4.29.56.52,1.07,1.61,1.55,2.35,1.03,1.59.64.83.79,2.22l.2.77c.5.29,1.27.2,2,.17.22-3.19-.47-3.84-2.88-6.85-1.54-2.17-6.86-5.22-7.23-6.2.57-.27.87.17,1.39.32.65.18,1.41.09,2.09.09,1.39,0,2.82-.02,4.21.03.31.56.04.62.41,1.18,1.16.02,1.34.05,2.16-.33.76-.35,1.59-.32,2.32-.06,1.68.6,1.08,1.62,3.54,1.64,1.43.02.94.24,1.91.54.86.27,1.56-.07,2.41.27,1.12.44.48.51,2.08.5,3.41-.04,2.93.19,6.41,1.55.58.23,1.33.38,1.84.65.72.39.84.84,1.48,1.17,1.11.59,1.35-.68,2.93,2.25.74,1.38.54,1.14,1.59,2.32l.59.88c-1.04,1.32-9.14,9.4-10.48,10.23-.74.46-1.73,1.28-2.49,1.81-1.5,1.06-.7.78-2.46,1.67-.88.45-1.66,1.36-2.62,1.62-.32-4.29.51-3.97.56-5,.05-.99-.48-.99-.57-2.13-.09-1.05-.1-1.61-.46-2.41-.43-.95-3.86-5.76-4.68-6.24-1.22.03-1.64.4-1.83,1.53.37.7,1.85,2.04,2.48,2.74,2.26,2.49,2.21,4.26,2.2,8.12,0,2.12.54,4.7-.58,5.29-.04.02-.09.04-.12.05-.5.23-.86.18-1.65.69-1.86,1.2-2.38,1.27-4.29,2.06-1.06.43-1.07.61-2.43.8.05-1.43,3.11-4.49,3.34-6.07.14-.98.23-8.3-.14-9.07-.81-1.69-1.77-2.41-3.72-2.31-.03.36-.1,1.3-.05,1.61.16.96-.04.29.69.77.61.4.96,1.16,1,2.06.08,1.47.12,4.67-.02,6.08-.11,1.08-.62,1-1.1,1.92-.34.67-.58,1.23-1.09,1.95-1.61,2.28-1.82,2.25-1.86,4.13l-.45.17c-.16.05-.29.07-.46.11l-2.49.7c-.65.34-.47.45-1.48.52l-5.38,1.11c-.61.07-1.46,0-2.12.04-.9.07-1.1.31-1.79.42-1.32.22-10.2.06-12.81.06-1.8,0-1.67-.57-3.55-.56-.79,0-1.3.03-1.96-.21-.68-.25-.76-.42-1.6-.45-.92-.03-1.17,0-1.96-.28-.74-.26-.8-.19-1.74-.39-.59-.12-1.19-.3-1.84-.4l-10.88-4c-1.09-.47-1.7-.96-2.81-1.46l-3.97-2.27c-.44-.25-.84-.55-1.29-.83-.44-.28-.92-.49-1.33-.81l-10.47-8.75c-1.08-1.8-2.69-2.76-3.95-4.46-.37-.5-.45-.77-.84-1.29l-5.28-7.52c-.35-.57-.54-.69-.85-1.28-1.45-2.79-4.75-9.67-4.89-12.2-.44-.76-1.77-5.41-1.8-6.54-.05-1.79-.4-.65-.65-3.56-.14-1.6-.75.07-.64-3.38.09-2.56.17-1.98-.46-3.86-.35-1.05-.15-2.73-.15-3.98,0-1.05-.12-3.37.04-4.27.28-1.46.66.22.55-3.56-.07-2.37.62-2.04.66-3.55.04-1.93.52-3.54,1.05-5.18.2-.62.17-1.2.31-1.85.7-3.14,2.02-6.3,3.32-9.19.93-2.07,1.38-3.64,2.63-5.54,2.82-4.27,2.8-5.2,6.68-10.08.66-.83,1.46-1.67,2.03-2.24.85-.85,1.05-1.42,1.78-2.32,1.24-1.52,2.96-2.58,4.45-3.91,3.18-2.85,5.8-4.86,9.59-7.16,3.69-2.23,7.3-3.84,11.2-5.4,3.97-1.59,3.21-1.07,6.22-2.08,1.09-.36,2.27-.47,3.45-.86.65-.21,1.19-.1,1.91-.25.63-.12.96-.34,1.55-.44.65-.11,1.46.04,2.03-.11.73-.19.3-.44,1.67-.49,1.33-.04,2.76,0,4.11,0,1.72,0,11.25-.29,12.45.27,1.19.56,2.12.03,3.52.59.9.36.7.18,1.81.3l3.45.85c2.48.78,1.69.14,4.14,1.07.14.05.51.18.75.29.5.22,1.01.35,1.52.6.57.28.71.35,1.41.59,1.14.39,7.34,3.3,8.37,4.07.93.7,1.64.99,2.57,1.53,3.44,1.99,6.57,4.49,9.48,7.26,5.34,5.1,7.45,7.12,11.61,13.5.92,1.39,5.45,9.41,5.7,10.86-1.34.22-2.74-.05-4.1,0-1.58.06-1.61.62-3.37.62-6.07.02-3.06.55-4.98.75-.85.09-1.06-.13-1.82.19-1.54.64-2.34.05-3.62.5-.47.17-.11.14-.82.3-1.53.34-1.44.57-2.14.68-1.02.16-.64.08-1.49.44l-4.27,1.38c-.35-2.19.06-6.24-.08-8.79-.1-1.86-.36-1.95-1.27-3.2-1.83-2.52.07-2.88-6.89-4.37-.55-.12-.95-.37-1.52-.55l-1.73-.58c-.8-.3-4.69-1.33-5.34-1.26-.21,2.69-.38,1.48-.6,2.68-.18.96.21,2.19-.14,3.04-.37.92-.63.16-.63,2.46,0,1.66-.51,1.36-.51,2.84,0,1.38.18,1.62-.32,2.84-.38.92-.21,1.93-.23,3.06-.02,1.45-.54,1.3-.65,2.48-.08.91.24,2.14-.18,2.92h0Zm54.72,22.33c-.1-.93.23-8.07-.05-8.67-.42-.92-.01-.48,0-1.97,0-.71-.35-1.3-.34-2.01.01-2.48-.52-1.83-.54-3.84-.2-1.2-.17-.97-.29-1.82-.27-.65-.37-1.23-.53-1.98-.11-.54.05-.62-.06-1.05-.11-.44-.35-.43-.41-.86l-4.13-11.25c-1.08-2.76-1.43-3.93-2.72-6.27-.58-1.05-1.1-1.91-1.65-2.77-4.21-6.59-7.31-9.51-12.47-14.62-.89-.88-1.35-1.36-2.37-2.12l-5.18-3.88c-.97-.67-1.74-1.09-2.61-1.68-2.17-1.48-9.36-4.86-12.05-5.95-1.17-.47-2.27-.82-3.19-1.26-.82-.39-2.54-.78-3.51-.95-.77-.12-.84-.35-1.9-.45-1.27-.12-.73-.09-1.54-.41-.6-.25-1.31-.21-1.96-.39-.53-.15-1.13-.22-1.66-.28-.76-.09-1.46-.03-2.25-.22-.64-.16-.77-.14-1.59-.25-2.27-.31-3.1.74-6-.27-2.72-.73-3.86-.16-5.54-.37-1.31.14-3.06.54-4.42.55-2.03.02-1.87.46-3.65.39-.93-.04-1.41.18-2.26.47-.87.3-1.09.21-1.93.42-.72.18-.71.18-1.71.3-.97.12-.99.24-1.7.38l-3.54,1.08c-1.17.38-2.01.71-3.1,1.18-.68.29-1.01.39-1.61.62-.49.19-1.11.45-1.68.7-.91.4-2.29.91-3.18,1.41-.96.54-1.85.9-2.8,1.38-1.04.53-1.74,1.11-2.76,1.76-1.94,1.24-6.18,4.16-7.88,5.63-1.52,1.32-3.17,3.02-4.87,4.18-.94.64-1.15,1.44-2.07,2.39-1.75,1.81-2.61,2.42-4.2,4.7-1.3,1.87-2.39,3.29-3.6,5.33-1.79,3.01-3.53,5.6-5.03,8.64-1.02,2.06-1.4,4.23-2.23,6.33l-1.29,3.56c-.13.82-.62,3.06-.65,3.31-.11.89-.34,1.31-.7,2.08-.16.69-.04.54-.17,1.75,0,1.96-.69,1.53-.61,3.97.09,2.77-.23,2.28-.34,3.89-.19,2.75-.03,6.27.02,9.07.03,2.08.16.93.16,3.91.19,3.43.49,2.75.47,4.08.04.7.39,1.57.6,2.2.33.94.05.29.17,1.73l.99,3.47c.88,2.15,1.28,4.58,2.32,6.6.59,1.16.85,2.16,1.47,3.22.62,1.07.75,1.96,1.19,3.01,2.57,5.52,7.07,11.28,10.93,16,4.5,5.14,13.74,11.83,20.82,15.17,1.08.51,1.98,1.07,3.06,1.66,2.26,1.24,8.54,3.41,11.41,4.05.7.16.82.39,1.71.46,1.55.12.89.1,1.88.47.59.22,1.15.2,1.85.22,1.42.05.63.51,3.73.47,1.68.07,2.39.3,3.96.35,2.95.09,6.05.15,9.01.11,1.52-.02.85,0,1.78-.07,1.33-.35,2.93-.38,4.28-.59.79-.12.65.02,1.58-.08,1.07-.11,1.04-.14,2.05-.31.99-.51.87-.4,2.04-.51l3.41-.83c4.48-1.27,8.74-2.89,12.88-5.06.92-.48,1.96-.93,2.91-1.55.96-.63,1.66-1.07,2.75-1.68,2.2-1.22,3.51-2.47,5.37-3.72,1.54-1.03,3.32-2.87,4.79-4.1,4.14-3.49,3.59-3.62,6.66-6.89,3.61-3.84,6.27-8.93,8.65-13.57,1.15-2.24,1.7-4.21,2.61-6.4l2.02-4.76c.29-.75.36-1.15.56-1.81.25-.8.11-.74.37-1.81.15-1.34,0-.9.31-1.7.26-.7-.04-.93.36-1.92.36-.88.39-.89.39-1.85,0-1.74.33-1.4.47-3.75-.02-1.67-.02-2.75.56-4.1h0Z"/>
      <path class="cls-1" d="m173.81,271.25l3.57-2.63c.24-.27.31-.37.47-.62.02-.04.04-.08.07-.12.02-.03.04-.08.06-.11l.21-.29c.57-.56.62-.08,1.8-2.32,1.08-2.06.84-4.55.84-7.4,0-1.37,0-2.74-.02-4.1-.01-1.63.19-2.43-1.46-2.68-.74-.12-.99-.23-1.03.7l.03,6.25c0,4,.39,6.31-3.01,9.37l-.82.79c-1.39,1.36-3.28.42-4.91,1.69-.81.64-1.03,1.11.63,2.2l3.57-.73Z"/>
      <path class="cls-1" d="m153.96,164.33c-.98.02-1.25-.36-1.88-.63-.7-.29-1.71-.16-2.51-.16-1.95,0-.91-.35-2.12-.54-.72-.11-2.14-.06-2.85.08-.69.4-.93,2.56.28,2.97,1.36.46,7.19-.72,8.12,1.03.52.97.84,2.27,1.93,2.91.84-.09,2.04-.89,1.66-2.07-.26-.81-.41-.53-.49-1.54-.04-.6,0-1.42.04-2.03l4.07-1.54c.39-3.89-3.68-1.39-5.08-.34-.86.65-.66,1.11-1.17,1.86h0Z"/>
      <path class="cls-1" d="m131.24,191.83c1.25-.74,1.89-1.42,3.33-1.84,1.41-.41,2.34-.96,2.12-2.72-2.61-.33-3.86.65-5.53,1.66-2.21,1.35-2.28,1.36-2.44,4.88-1.42-.19-3.16-4.46-7.8-4.05v2.06c1.33.64,1.43.03,2.69,1.05.83.67,1.32,1.05,2.04,1.69.66.59,1.31,1.04,2.09,1.66,1.99,1.59,3.48,2,3.47-1.17,0-1.07-.02-2.16.02-3.22h0Z"/>
      <path class="cls-1" d="m159.79,250.04c-.29-.65-.12-.92-.41-1.56l-2.96-4.71c-.99-.96-3.75-2.05-5.35-2.33-1.96-.35-2.35-.65-2.95-.77-.57-.11-3.24-.09-3.89-.03-1.25.12-1.57,1.13-1.41,2.4,3.99-.65,5.08.64,6.75.67,1.01.02.98.02,1.72.34.97.42,2.02-.04,3.76,1.99,3.36,3.91,2.38,7.54,3.83,7.79,1.16.19,1.46-1.09,1.39-2.32-.06-1.12-.18-.78-.49-1.46h0Z"/>
      <path class="cls-1" d="m185.55,242.65c-.93.06-.64.48-2.16.33-.42-.71-.39-1.57-1.08-2.13-2.03-1.65-5.39-1.38-7.89-1.32-.11,3.52,1.24,1.63,4.36,2.38,2.18.52,1.96,2.31,3.56,2.84.81-.41.33-.52,1.37-.84,1.74,2.98,2.87,1.21,3.41,3.85.15.75.43.79.43,1.61,0,.85-.26.87-.41,1.46-.32,1.34-.21,2.14.72,2.89,2.13-.48,1.24-.88,1.9-2.65.88-2.35-.07-4.88-2.05-6.35-.88-.66-1.33-1.57-2.17-2.07h0Z"/>
      <path class="cls-1" d="m131.49,251.08c-1.09.31-.87,1.99-.3,2.78.68.01.46-.07.9-.27.51-.24.44-.2,1.1-.22,1.32-.06,1.32-.09,1.99.62.76.8,2.15,1.55,3.21,1.94.05.67-.02,1.41.14,2.03.39,1.57,1.11,4.2,3,2.96,1.27-.83-.03-1.8-.43-2.67-.31-.66-.26-2.66-.61-3.54-.39-.98-1.5-.86-2.59-1.68-.72-.54-1.62-1.53-2.44-1.83-.74-.27-3.04-.38-3.98-.11h0Z"/>
      <path class="cls-1" d="m166.68,242.96c2.17.29,2.51-1.86,1.64-3.43-.43-.78-1.98-2.25-2.7-2.8-1.03-.78-2.94-1.34-4.26-1.48-1.94-.22-1.5-1.03-4.82-.52-.25.56-.52.7-.43,1.57,1.19.84,3.41,1.09,5.21,1.38.7.11.95.34,1.66.45,1.26.21.58-.12,2.45,1.82.73.76.23,1.78,1.26,3.02h0Z"/>
      <path class="cls-1" d="m188.99,142.44c-.54-.9.19-.94-1.13-1.38-.76-.26-1.18-.46-2.12-.33v1.96c.56.45.4.1.88.39.42.26.3.4.56.83l.71.72c.43.32.54.32.88.54.04,1.02-.26,1.34.7,1.45.46.05,1.62,0,2.14-.03l.15-2.29c.65-.44,1.21-1.01,1.85-1.4,1.11-.68,1.56-.44,2.97-.6.09-1.22.11-1.49-.5-2.26-1.04-.01-.84.35-1.95.33-3.97-.05-1.82,2.29-5.12,2.08h0Z"/>
      <path class="cls-15" d="m131.24,191.83c-.04,1.07-.02,2.15-.02,3.22,0,3.17-1.49,2.75-3.47,1.17-.77-.62-1.43-1.07-2.09-1.66-.73-.65-1.21-1.02-2.04-1.69-1.25-1.01-1.36-.4-2.68-1.05v-2.06c4.64-.41,6.37,3.85,7.79,4.05.16-3.52.23-3.53,2.44-4.88,1.66-1.01,2.91-1.99,5.53-1.66.21,1.77-.71,2.31-2.12,2.72-1.44.42-2.08,1.1-3.33,1.84h0Zm22.71-27.5c.5-.75.31-1.21,1.17-1.86,1.41-1.05,5.47-3.55,5.08.34l-4.07,1.54c-.05.61-.09,1.43-.04,2.03.08,1.01.23.73.49,1.54.37,1.17-.82,1.98-1.66,2.07-1.09-.64-1.41-1.94-1.93-2.91-.93-1.75-6.76-.57-8.12-1.03-1.2-.41-.96-2.57-.28-2.97.71-.14,2.13-.19,2.85-.08,1.22.19.18.55,2.12.54.8,0,1.82-.13,2.51.16.63.27.89.65,1.88.63h0Zm35.03-21.9c3.3.21,1.15-2.13,5.12-2.08,1.11.02.91-.34,1.95-.33.6.77.59,1.04.5,2.26-1.41.16-1.86-.07-2.97.6-.64.39-1.2.96-1.85,1.4l-.15,2.29c-.52.02-1.67.08-2.14.03-.95-.1-.66-.43-.7-1.45-.34-.22-.45-.22-.88-.54l-.71-.72c-.26-.43-.14-.57-.56-.83-.47-.29-.32.06-.88-.39v-1.96c.94-.13,1.36.07,2.12.33,1.32.44.59.49,1.13,1.38h0Zm-80.15,83.82c1.11-.07,2.8-.48,4.05-.61,1.26-.13,2.71-.13,3.76-.43,1.1-.67.69-1.01,2.83-1,1.28,0,2.61.25,3.86,0,.09-1.51-.16-1.77,2.28-3.43,1.66-1.13,5.42-3.63,6.44-5.33.52-.86,1.74-6.6,2.16-8.05.14-.49.24-.45.44-.92.37-.89.1-1.07,1.05-3.23.16-.38.28-.77.4-1.17.25-.81.5-1.27.84-2.01.47-1.04,1.58-6.03,5.2-6.57,2.8-.42,3.91-.23,6.41.28l2.38.62c.45.15.66.1,1.15.29,4.69,1.82,5.12,1.67,10.13,1.68.41,0,1.05.03,1.44,0,1.05-.09.48-.19,1.27-.4.9-.25,1.89.06,2.74-.15.85-.21.23-.47,2.39-.63l4.54-1.32c.7-.41.75-.96.99-1.8.21-.71.76-1.2,1.34-1.66l.8-.24c3.31-.45.54-.53,5.7-.53,1.82,0,5.38.2,6.98-.05.25-1.22-.26-2.39.66-3.01.41-.77.09-2.01.18-2.92.11-1.18.63-1.02.65-2.48.02-1.12-.15-2.14.23-3.06.5-1.22.32-1.46.32-2.84,0-1.48.51-1.18.51-2.84,0-2.31.25-1.54.63-2.46.35-.85-.04-2.08.14-3.04.22-1.2.39.01.6-2.67.65-.07,4.54.95,5.34,1.25l1.73.58c.57.18.96.43,1.52.55,6.96,1.49,5.06,1.84,6.89,4.37.91,1.25,1.17,1.35,1.27,3.2.14,2.54-.27,6.59.08,8.79l4.27-1.38c.85-.36.47-.28,1.49-.44.69-.11.61-.34,2.14-.68.71-.16.35-.13.82-.3,1.27-.44,2.08.14,3.62-.5.76-.31.96-.1,1.82-.18,1.93-.2-1.09-.73,4.98-.75,1.76,0,1.79-.57,3.37-.62,1.36-.05,2.76.22,4.1,0-.25-1.45-4.79-9.46-5.7-10.86-4.16-6.38-5.83-8.69-11.17-13.79-2.91-2.78-6.07-5.28-9.51-7.27-.93-.54-1.72-.99-2.78-1.46-1.03-.77-7.03-3.63-8.17-4.02-.7-.24-.99-.37-1.56-.65-.51-.25-1.13-.25-1.63-.46-.24-.1-.64-.27-.78-.32-2.45-.93-1.42-.56-3.9-1.34l-3.51-.82c-1.1-.12-1.05.12-1.95-.24-1.4-.56-2.24-.03-3.43-.59-1.2-.57-10.73-.6-12.45-.6-1.34,0-2.95.38-4.29.42-1.37.04-1,.09-1.73.28-.57.15-1.49.19-2.14.3-.58.1-.96.12-1.59.25-.71.14-1.35.09-2,.3-1.18.39-2.25.53-3.33.89-3,1-2.25.34-6.22,1.93-3.89,1.56-7.44,3.25-11.14,5.49-3.79,2.29-6.7,4.25-9.89,7.1-1.49,1.34-3.45,2.63-4.68,4.15-.73.9-1.05,1.47-1.91,2.32-.57.57-1.31,1.58-1.96,2.41-3.88,4.89-3.92,5.82-6.74,10.08-1.25,1.9-1.79,3.53-2.72,5.59-1.3,2.89-2.57,5.78-3.26,8.92-.15.65-.31,1.43-.52,2.05-.53,1.64-.84,3.49-.88,5.42-.04,1.51-.72,1.48-.66,3.85.1,3.78-.04,1.63-.31,3.09-.17.91-.04,3.25-.04,4.31,0,1.24-.07,3.07.28,4.12.09,1.88.17,1.1.09,3.66-.12,3.45.41,2.13.55,3.73.25,2.92.46,1.68.5,3.48.04,1.1,1.87,5.47,2.22,6.39h0Z"/>
      <path class="cls-3" d="m170.24,271.97c-1.66-1.09-1.44-1.56-.63-2.2,1.63-1.27,3.52-.33,4.91-1.69l.82-.79c3.41-3.06,3-5.37,3.01-9.37l-.03-6.25c.04-.94.29-.82,1.03-.7,1.65.26,1.45,1.05,1.46,2.68,0,1.36.02,2.73.02,4.1,0,2.85.24,5.34-.84,7.4-1.18,2.25-1.23,1.77-1.8,2.32l-.21.29s-.04.08-.06.11c-.02.04-.05.08-.07.12-.16.25-.23.35-.47.62l-3.57,2.63-3.57.73Zm-31.85-16.04c-1.06-.39-2.45-1.14-3.21-1.94-.67-.71-.67-.67-1.99-.62-.66.02-.59-.02-1.1.22-.44.21-.22.29-.9.27-.57-.79-.79-2.47.3-2.78.94-.27,3.23-.16,3.98.11.82.3,1.72,1.29,2.44,1.83,1.09.82,2.2.7,2.59,1.68.34.88.3,2.88.61,3.54.4.87,1.7,1.84.43,2.67-1.89,1.25-2.61-1.39-3-2.96-.16-.62-.09-1.36-.14-2.03h0Zm4.44-12.89c-.16-1.26.16-2.27,1.41-2.4.65-.06,3.32-.08,3.89.03.61.12.99.42,2.95.77,1.61.29,4.36,1.38,5.35,2.33l2.96,4.71c.29.64.12.91.41,1.56.31.68.43.34.49,1.46.07,1.23-.23,2.52-1.39,2.32-1.45-.25-.47-3.88-3.83-7.79-1.74-2.02-2.8-1.56-3.76-1.99-.75-.32-.71-.32-1.72-.34-1.67-.03-2.77-1.32-6.75-.67h0Zm31.6-3.51c2.5-.06,5.86-.33,7.89,1.32.69.56.66,1.43,1.08,2.13,1.52.16,1.23-.27,2.16-.33.85.5,1.29,1.42,2.17,2.07,1.98,1.48,2.92,4,2.05,6.35-.66,1.76.23,2.17-1.9,2.65-.92-.75-1.04-1.55-.72-2.89.15-.59.41-.6.41-1.46,0-.82-.28-.87-.43-1.61-.54-2.64-1.67-.87-3.41-3.85-1.04.32-.56.43-1.37.84-1.6-.53-1.38-2.32-3.56-2.84-3.13-.75-4.47,1.15-4.36-2.38h0Zm-17.9-4.81c3.32-.5,2.89.3,4.82.52,1.32.15,3.23.71,4.26,1.48.72.54,2.27,2.01,2.7,2.8.87,1.57.53,3.72-1.64,3.43-1.03-1.24-.53-2.26-1.26-3.02-1.87-1.94-1.19-1.62-2.45-1.82-.72-.12-.97-.34-1.66-.45-1.8-.29-4.02-.54-5.21-1.38-.09-.87.18-1,.43-1.57h0Zm-47.71-8.55c.14,2.53,3.5,9.47,4.95,12.26.3.59.5.95.85,1.51l5.4,7.52c.39.52.7.8,1.07,1.3,1.26,1.7,2.16,2.69,3.68,4.39l10.41,8.84c.42.32.92.55,1.37.84.45.29,1.09.64,1.53.89l3.85,2.27c1.11.49,1.97.93,3.05,1.4l10.7,4.18c.66.1,1.49.16,2.08.28.95.24,1.14.72,1.73.41.79.28.95.38,1.88.4.84.03,1.54.23,2.22.48.66.24.46.25,1.25.24,1.89-.01,1.95.24,3.76.24,2.6,0,11.42.25,12.75.04.69-.11,1.04-.21,1.94-.28.66-.05,1.41-.23,2.03-.3l5.32-1.14c1.01-.07,1.01-.09,1.66-.43l2.4-.73c.16-.04.4-.22.56-.27l.34-.11c.05-1.88.25-2.04,1.86-4.32.51-.72.75-1.28,1.09-1.95.48-.93.99-.84,1.1-1.92.15-1.41.1-4.61.02-6.08-.05-.9-.4-1.66-1-2.06-.73-.48-.53.2-.69-.77-.06-.31.02-1.25.05-1.61,1.95-.11,2.91.62,3.72,2.31.37.77.28,8.09.14,9.07-.23,1.57-3.4,4.64-3.4,6.48,1.36-.19,1.49-.63,2.55-1.07,1.92-.79,2.52-.69,4.38-1.88.79-.5,1.06-.65,1.56-.88.04-.02.19-.05.23-.07,1.12-.59.41-3.29.41-5.42.02-3.86.06-5.64-2.2-8.12-.63-.69-2.11-2.04-2.48-2.74.19-1.13.61-1.5,1.83-1.53l-.6-1.06c-.56-1.09-.35-.36-.86-.79-.62-.52.43-.23-1.84-2.08-.91-.75-.82-1.31-1.7-1.68-.05-.02-.21-.07-.27-.09l-1.68-.65c2.41,3.01,3.09,3.66,2.88,6.85-.73.03-1.5.12-2-.17l-.2-.77c-.14-1.38.25-.63-.79-2.22-.48-.74-.99-1.83-1.55-2.35-1.08-1.01-4.16-3.49-5.52-4.29l-2.38-1.54c-1.77-1.21-5.41-2.36-7.72-2.35-.61,0-1.36.04-1.96,0-.9-.06-.82-.29-1.44-.46-1.38-.36-1.81.12-3.39-.51-1.73-.68-3.58-.84-5.86-1.98-1.49-.75-3.78-1.53-5.66-2.14-1.14-.38-2.11-.39-3.37-.63-.25-.05-2.94-.92-3.25-.83-.39.3.1-.09-.32.28-.04.04-.36.31-.39.32-.73.38-1.91-.41-3.02-.9-1.74-.77-5.36-.63-7.69-.58-1.45.03-1.04.45-2.29.51-1.73.09-3.78.04-5.53.01-3.74-.04-1.8.21-5.03-.47-.88-.18-2.95,0-4.06-.04-.96-.04-.38.04-1.05-.31-1.27-.64-3.53-.34-5.17-.33-3.94.02-4.39.35-4.44-1.4-1.05.3-2.5.3-3.76.43-1.25.13-2.96.45-4.07.52h0Z"/>
      <path class="cls-12" d="m142.48,224.9c-.9.18-1.21.5-2.33.56-.91.05-1.89,0-2.8-.04l-.08-.34c-.16-.44-.8-.62-.38-2.93.62-3.33,1.83-3.5,2.16-4.11.86-1.57.46-1.26,1.75-2.21.61-.45.42-.49.8-1.15.03-.05.4-.58.44-.62,1.25-1.4.4-.05,1.03-2,.26-.81.46-.52.67-1.46.12-.51.12-1.12.32-1.66l.65-1.13s.06-.06.08-.09c.5-.63.6-2.13,1.24-2.84l1.7-1.34c1.47-.77,3.47-2.11,5.21-1.9,4.4.52,2.28.32,3.85,1.33.59.38,1.91.61.74,2.88-.41.78-.54,2.4-1.12,3.52l-.96,2.04c-.14.31-.18.37-.36.72-.36.71-.91,4.15.4,4.81.98.49,3.09-.45,3.62-.77l.62-.6c1.27-1.59,1.36-1.22,2.38-3.35.5-1.04.58-.23.89-1.35.29-1.03-.11-.26.56-1.28.2-.31.03.05.2-.34.44-1.07-.2-1.04,1.25-1.07.21-1.62.63-1.43.96-1.53,2.57-.76.66-.66,2.82-2.02.98-.62.1-.8,1.53-.75l.02-1.06c.68-.02.59.12,1.12-.46.89-.97.38-.87,1.35-.96.81,2.04-.65,3.65-.74,4.36-.06.53-.03.84-.25,1.23-.92,1.71-1.8,1.34-2.48,1.39-.2.94-.38.83-1.43.89-.64,1.45-1,.89-2.02,1.77-1.18,1.02-.61,1.15-.9,2.85-1.16.66-3.27,1.73-2.43,3.44,1.32,1.45,3.69-2.25,4.63-2.5l-.09,3.14c-.16.67-.22.38-.47.95l-2.51,4.99c-.14.59-.14,1.07-.49,1.45-.26.29-.02,0-.3.23l-.49.58c-.28.42-.1.24-.43.35l-.75.15c-.46.07-.96.11-1.41,0-.79-.19-1.16-.79-2.06-.06,1.21-.54,1.37-.09,2.72.16,2.4.44,1.95,1.92,3.26,1.99.75.04.27-.29,1.44.09,1.1.35.51-.03,1.39,0,.91.04.31.22,1.3.45-.72-.39-.41.29-.45-.56-.03-.74.05-.37.44-.67.94-.71,1.51-.56,2.23-.98.5-.29,1.37-1.2,1.45-1.75.19-1.3-.51-2.09.13-3.8.27-.73,1.12-1.18,1.53-2.22.13-.31-.09-.02.19-.48.93-.1,1.14-.26,1.91-.36.47-1.77.66-.24,1.39-1.31.25-.37.46-4.7.46-5.16-.03-1.51.09-1.29.64-2.29.21-.39.28-.6.5-.94.54-.82,1.6-1.34,1.74-2.48.1-.75,0-2.04,0-2.85,0-1.07.18-1.56.24-2.67,1.5-.63,1.02-.98,1.75-1.98l1.28-1.03c1.06-.76,4.31-.32,5.31.19.03,1.17-.36.83-.75,1.68-.19.42-.13.48-.36.93l-.47.61s.21.12.19-.4l-.1-.46c-1.1-.38-3.03.53-3.58,1.41-.3.48-.49,1.16-.62,1.87-.24,1.23-.16,1.06.74,1.61.35,2.93-1.55,1.33-.82,3.7l1.59-.12c.17.37.29.56.48.97l2.91.21c.69-1.12.84-2.88,1.32-4.05.22-.53.12-1.01.22-1.73.78-.07,1.46.27,2.28-.07,1.11-.46,1.72-.75,2.18-1.69l1.03-1.66c.35-.34.52-.19.96-.47.25-.16.44-.44.64-.6.54-.43.46-.22.95-.49.28-.16.46-.39.69-.54.44-.28.53-.16.96-.48,1-.75.1-.45,1.62-1.03.91-.35,1.52-1.13,2.31-1.6.99-.6,1.19-1.25,2.24-1.84.68-.38.77-.85,1.44-1.23l1.65-1.04c.77-.34,1.23-.38,1.89-.81l1.88-1.14c.89-.49,3.88-.6,3.67.96-.32.72.02.07-.47.64l-1.82,1.38c-.81.36-.8-.17-1.73.43-.64.41-1.54.52-2.26.93-.31.17-.12.07-.3.24-.15.13-.05.09-.26.26l-2.22,2.07c-.55.62-.68.53-.77,1.54-1.72.09-.61.78-2.18,2.26-.75.71-.21.75-1.12,1.91-.21.26-.05.01-.21.33-.1.18-.16.43-.25.64-.19.4-.41.65-.75,1.02-.77.83-1.3,1.12-1.38,2.41-1.47.32-1.01.96-2,2.41-.86,1.26-.03,1.93-2.59,1.9-2.22-.03-4.31.1-6.49-.35-.81-.16-1.03-.49-1.89-.4l-.86,2.06c-.27.96-.99,1.54-1.39,2.47l-1.11,2.28c-1,1.75-2.65,1.99-3.08,2.57-.74,1,.55,1.61-.18,2.66l-1.29,2.84c-.29.69-.34,1.39-.7,2.13-.67,1.38-.85,2.98-.73,4.59,1.66-.01,1.65-1.48,2.42-2.56.3-.43.75-.83,1.07-1.23.46-.57.52-1.1,1.31-2.25.73-1.04.82-.48,1.2-1.3.08-.18.22-.72.32-.92.52-.98.56-.02.93-1.42.33-1.22,0-.54.71-1.36,1.48-1.7.76-1.9,1.56-2.53.98-.77,1.04-2.1,2.92-2.59,1.32-.34,7.77-.03,9.7-.07.19-.23.1-.04.32-.47.14-.27.18-.42.22-.67.07-.43.07-1.12.07-1.58l-.32-2.85c.57-.3,1.03-.81,1.73-.97.56-.13.76-.02,1.25-.21.53-.21,1.29-.8,1.96-1,.43-.13.11.03.58-.17l1.46-.88c.88-.6,1.11-.32,1.15-1.75l.12-3.05,1.45-.16c.31-.55,1.44-1.78,2.01-2.03.45-.19.62-.24,1.14-.27l.13,2.37c-1.24-.13-.63-.42-1.53-.81-1.78.74-2.09,3.47-1.67,5.62.52.01,1.44-.69,1.84-.98.88-.63.68-1.07.71-2.32l2.25.52c1.7-5.05.09-2.92-.41-4.95,1-.6,2.27-.86,3.33-1.38.38-.19.2.01.42-.34.12-.19.14-.45.18-.72,1.21-.09.89-.21,1.48-.82,1.74-1.78.79-.68,2.24-1.85l.68-.58c.31-.34.61-.49,1.39-.57.12-.61.25-.74.75-1,2.66-1.39,3.27-2.88,4.69-1.2,1,1.18.8,3.4.86,4.89.07,1.66.35,1.53.81,2.37.1.2.08.18.16.39.14.38.25.86.46,1.31.4.84.47,1.88.87,2.87.16.39.37,1.09.48,1.51.5,1.95.58,1.02.88,1.98l-.02.92-.46.04c-.96-.13-.73-.54-1.8-.22-.46,1.57-.44,1.83-1.6,3.1-.62.68-1.75,1.78-2.01,2.66,1.17.72,2.34.29,3.67.29-.07,1.25-.27,2.44-.9,3.33-.5.71-.54,2.58.04,3.24.61.7,1.23,1.84,1.22,2.93-.01.85-.19,2.07.2,2.78l.44.63,1.24.03c.38-.59.35-.67.82-1.16,1.01.49.89,1.25.77,3.26l-1.3,4.83c-.55,2.38-.84,2.24-.75,5.31l.82.08c1.53-1.66,2.03-3.26,2.36-4.1.28-.7.61-1.67,1.03-2.75.79-1.31.28-.62,1.14-2.96.47-.79.31-.63.53-1.55.29-1.26.77-1.92.96-3.16.37-1,.59-2.37.81-3.31.75-1.52.71-2.65.75-3.72.28-.93.15.27.18-1.48.59-2.12.34-1.65.44-3.58.4-.93.2-8.61.2-10.15,0-2.08.64-2.48,0-4.11-.44-1.1-.29-2.18-.7-3.37l-1.1-4.9c-.17-.67-.36-1.21-.44-1.66-.33-1.96-.76-2-.82-3.61-.34-.2-.11-.5-.46-.68-.07-1.17-.5-1.78-.99-2.61-1.99-.1-7.48-.22-9.06.17-1,.24-.62.43-1.75.48-.76.03-1.54-.1-2.28.05-.7.14-1.05.42-1.83.49-1.4.11-.85-.08-1.86.44-1.21.62-.79-.38-3.83.79-3.21,1.23-1.39.35-3.66.98l-5.15,1.81c-.78.27-1.23.15-1.97.53-1.72.89-2.19,1.28-1.9,2.71.7,3.5-4.45,1.94-6.51,2.42-1.31.31.05.93-3.96.68-3.03-.18-6.22-.12-9.26-.1-2.77.02-6.52-.51-8.47.96-.18,1.45-.5,2.5-2.5,3.07-2.57.74-4.28,1.2-7.01,1.58-.82.11-1.47.41-2.33.51-.48.06-.95.01-1.38.07-1.35.2-3.12,1.16-6.17.18l-4.58-1.08c-.91-.25-1.32-.49-2.12-.74-.71-.23-1.81-.22-2.44-.44-1.43-.51-2.68-1.97-7.06-.52-1.08.36-2.21,2.03-2.48,3.07-.47,1.78-3.58,9.37-3.66,10.51-.09,1.29-.26,1.18-.62,2.19-.28.8-.59,1.22-.72,2.1-.13.86-.2,1.59-.47,2.45-.59,1.89-4.14,4.75-5.77,5.62-1.04.55-2.81,1.32-3.36,2.43.07,1.51,1.29,2.07,2.74,2.13.87.04,3.12.92,4.27.56.93-.29-.89-.55,2.49-.56,2.95,0,6.25.28,8.4-.61h0Z"/>
      <path class="cls-17" d="m197.85,241.5l1.68.65c.05.02.21.07.27.09.88.37.79.93,1.7,1.68,2.26,1.85,1.21,1.56,1.84,2.08.51.43.3-.31.86.79l.6,1.06c.82.48,4.25,5.29,4.68,6.24.36.8.37,1.36.46,2.41.1,1.14.62,1.14.57,2.13-.05,1.03-.95.82-.59,5.54.96-.27,1.9-1.39,2.79-1.84,1.76-.89.97-.61,2.47-1.67.75-.53,1.81-1.44,2.55-1.9,1.39-.71,9.29-9.02,10.27-10.46l-.59-.88c-1.05-1.18-.85-.94-1.59-2.32-1.58-2.94-1.82-1.66-2.93-2.25-.64-.34-.75-.79-1.48-1.17-.51-.27-1.26-.42-1.84-.65-3.48-1.36-3-1.6-6.41-1.55-1.6.02-.96-.06-2.08-.5-.85-.33-1.56,0-2.41-.27-.97-.3-.47-.52-1.91-.54-2.46-.03-1.86-1.04-3.54-1.64-.73-.26-1.56-.29-2.32.06-.82.38-1,.35-2.16.33-.38-.56-.1-.62-.41-1.18-1.39-.05-2.82-.02-4.21-.03-.68,0-1.44.09-2.09-.09-.51-.15-.81-.58-1.39-.32.37.99,5.69,4.03,7.23,6.2h0Z"/>
      <path class="cls-5" d="m215.87,253.4c-3.05-.12-1.09,1-3.31,1.22-.66.06-1.36.08-1.75.55-1.23,1.51,1.55,2.57,3.95,1.41.89-.43,1.22-2.3,1.1-3.18h0Z"/>
      <path class="cls-18" d="m215.87,253.4c-3.05-.12-1.09,1-3.31,1.22-.66.06-1.36.08-1.75.56-1.23,1.51,1.55,2.57,3.95,1.41.89-.43,1.22-2.3,1.1-3.18h0Z"/>
      <path class="cls-5" d="m202.22,241.2c-.16,1.38.47,1.76,1.25,2.49,1.03.43,3.49-.78,1-2.77-.75-.59-1.62-.06-2.25.27h0Z"/>
      <path class="cls-18" d="m202.22,241.2c-.16,1.38.47,1.76,1.25,2.49,1.03.43,3.49-.79,1-2.77-.75-.59-1.62-.06-2.25.27h0Z"/>
      <path class="cls-11" d="m190.58,203.54l-.02.61c.75.43,2.05-.22,2.56-.54.8-.5,1-1.03,1.59-1.95l.03-.52-.61.04c-.06.07-.02.05-.24.22l-.62.41c-.78.55-1.61,1.57-2.69,1.75h0Z"/>
      <path class="cls-18" d="m190.58,203.54l-.02.6c.75.43,2.05-.21,2.56-.54.8-.5,1-1.03,1.59-1.95l.03-.52-.61.04c-.06.07-.02.05-.24.21l-.62.41c-.78.55-1.61,1.57-2.69,1.75h0Z"/>
      <path class="cls-5" d="m230.97,209.16l-.45.39c-.62.84-1.63,1.5-1.85,2.74.92.29,2.94.46,3.82-.29.59-.51,1.76-3.59,1.62-5.27-.98-.35-.85-.68-1.96-.31-.21.54-.31.79-.44,1.35-.24,1-.28.7-.73,1.4h0Z"/>
      <path class="cls-18" d="m230.97,209.16l-.45.39c-.62.84-1.63,1.5-1.85,2.73.92.29,2.94.46,3.82-.29.59-.51,1.76-3.59,1.62-5.26-.98-.35-.85-.68-1.96-.31-.21.54-.31.79-.44,1.35-.24,1-.28.69-.73,1.39h0Z"/>
      <path class="cls-5" d="m213.52,199.39v2.36c-1.12-.18-.6-.47-1.5-.85-1.95.94-1.99,3.37-1.81,5.59.54.36.63.12.94-.21.36-.16,1.05-.59,1.37-.9.56-.54.39-1.19.37-2.15.98.07,1.47.53,2.3.53.25-.72.44-1.43.62-2.21.47-1.97-.15-1.16-.61-2.12-.18-.1-.26-.13-.49-.27-.85-.04-.52.02-1.19.21h0Z"/>
      <path class="cls-18" d="m213.52,199.39v2.36c-1.12-.18-.6-.47-1.5-.85-1.95.94-1.99,3.37-1.81,5.59.54.36.63.12.94-.21.36-.16,1.05-.59,1.37-.89.56-.53.39-1.19.37-2.15.98.07,1.47.53,2.3.53.25-.72.44-1.43.62-2.21.47-1.97-.15-1.16-.61-2.12-.18-.1-.26-.13-.49-.27-.85-.04-.52.02-1.19.21h0Z"/>
      <path class="cls-7" d="m185.14,209.37c.22.67.4.54,1.22.55.6.02,1.26.02,1.86,0,.44-.49.2-.47.7-.78-.09-.82.24-1.64.39-2.45.13-.67.21-.63.31-1,.11-.46.02-.73.1-1.2-1.04-.02-2.18,2.11-3.22,3.02-.67.59-.76.25-1.4.59l.03,1.28Z"/>
      <path class="cls-18" d="m185.14,209.37c.22.67.4.54,1.22.55.6.01,1.26.02,1.86,0,.44-.49.2-.47.7-.79-.09-.82.24-1.64.39-2.45.13-.67.21-.62.31-1,.11-.46.02-.74.1-1.2-1.04-.02-2.18,2.11-3.22,3.02-.67.59-.76.25-1.4.59l.03,1.28Z"/>
      <path class="cls-7" d="m183.99,201.33c-.07.36-.23.59-.41,1.1-.14.39-.31,1.24-.34,1.3l-.1,1,.95.66.51-.04c.41-1.05.54-1.25,1.24-2.07.52-.61,1.12-1.11,1.49-2.15.04-.01.13.5.28-.39v-.47c-.22-.08-.29-.17-1-.06-1.59.24-1.74.68-2.62,1.11h0Z"/>
      <path class="cls-18" d="m183.99,201.33c-.07.36-.23.59-.41,1.11-.14.39-.31,1.24-.34,1.3l-.1,1,.95.66.51-.04c.41-1.05.54-1.25,1.24-2.07.52-.61,1.12-1.11,1.49-2.14.04-.01.13.5.28-.4v-.47c-.22-.08-.29-.17-1-.06-1.59.23-1.74.68-2.62,1.11h0Z"/>
      <path class="cls-7" d="m208.72,201.73l1.61.05c.41-.74.61-.77,1.14-1.44-.08-.3.08-.08-.16-.29-.41.06-1.12.3-1.7.43-.89.19-1,.31-.89,1.25h0Z"/>
      <path class="cls-18" d="m208.72,201.73l1.61.05c.41-.74.61-.77,1.14-1.44-.08-.3.08-.08-.16-.29-.41.06-1.12.3-1.7.43-.89.19-1,.31-.89,1.25h0Z"/>
      <path class="cls-6" d="m166.92,214.89l.25-4.21-.88.12c-.55.25-1.2.71-1.28,1.38-.16,1.27.46,1.31-.66,2-4.05,2.47-1.49,4.82.73,2.52.19-.19,1.7-1.71,1.85-1.82h0Z"/>
      <path class="cls-18" d="m166.92,214.89l.25-4.21-.88.12c-.55.25-1.2.71-1.28,1.38-.16,1.27.46,1.31-.66,2-4.05,2.47-1.49,4.82.73,2.52.19-.19,1.7-1.71,1.85-1.82h0Z"/>
      <path class="cls-6" d="m235.11,224.41l.13-3.07-2.67.14c-.22,1.93-.3,2.72.55,3.84.02.03.06.09.09.12l1.27-.04c.2-.32.44-.76.64-1h0Z"/>
      <path class="cls-18" d="m235.11,224.41l.13-3.07-2.67.14c-.22,1.93-.3,2.72.55,3.84.02.03.06.09.09.12l1.27-.04c.2-.32.44-.76.64-1h0Z"/>
      <path class="cls-9" d="m194.25,219.21v-.17s-.14-2.5-.14-2.5c-2.15-.38-1.96.93-3.26,1.91-1.36,1.04-1.58,1.68-1.46,3.94,1.69,1.03,1.56.7,3.57-2.01.55-.73.53-.79,1.29-1.16h0Z"/>
      <path class="cls-18" d="m194.25,219.21v-.17s-.14-2.5-.14-2.5c-2.15-.38-1.96.93-3.26,1.91-1.36,1.04-1.58,1.68-1.46,3.94,1.69,1.03,1.56.7,3.57-2.01.55-.73.53-.79,1.29-1.16h0Z"/>
      <path class="cls-9" d="m151.8,204.12c.43.2,1.43.76,1.83,1.12-.17.64-.43.8-.8,1.36-.54.81-.25.73-.36,1.73,1.73.35,2.25.07,3.01-.87.54-.67.4-.69.4-1.68,0-.73,0-1.27-.09-2-.67-.38-2.72-1.87-3.94-1.02-.63.43-.33.89-.03,1.36h0Z"/>
      <path class="cls-18" d="m151.8,204.12c.43.2,1.43.76,1.83,1.12-.17.64-.43.8-.8,1.36-.54.8-.25.73-.36,1.73,1.73.35,2.25.07,3.01-.87.54-.66.4-.69.4-1.68,0-.73,0-1.27-.09-2-.67-.38-2.72-1.87-3.94-1.02-.63.43-.33.89-.03,1.36h0Z"/>
      <path class="cls-10" d="m181.04,219.25c-.04.1-.82,1.44.03,1.85.3-.12.2-.01.43-.27.19-.21.19-.32.3-.55.21-.42.32-.73.31-1.31l-1.07.28Z"/>
      <path class="cls-18" d="m181.04,219.25c-.04.1-.82,1.44.03,1.85.3-.12.2-.01.43-.27.19-.21.19-.32.3-.55.21-.42.32-.73.31-1.31l-1.07.28Z"/>
      <path class="cls-1" d="m174.57,135.85c-19.12,0-36.41,7.68-48.9,20.12-12.48,12.43-20.18,29.62-20.18,48.69s7.7,36.32,20.18,48.78c12.48,12.46,29.75,20.16,48.86,20.16s36.28-7.7,48.72-20.15c12.45-12.48,20.12-29.74,20.12-48.84s-7.65-36.28-20.07-48.7c-12.42-12.42-29.62-20.07-48.72-20.07h0Zm-50.79,18.23c12.99-12.93,30.94-20.91,50.79-20.91s37.7,7.95,50.61,20.85c12.92,12.91,20.87,30.78,20.87,50.6s-7.97,37.77-20.91,50.73c-12.92,12.95-30.79,20.95-50.61,20.95s-37.77-8-50.74-20.95c-12.97-12.95-20.98-30.86-20.98-50.68s8.01-37.67,20.98-50.59h0Z"/>
      <path class="cls-13" d="m80,222.96l15.98-2.81c2-.35,3.48-.89,3.09-3.21-.39-2.33-2.21-2.66-4.2-2.29l-15.88,2.99-.35-2.36c-.35-2.33-1.4-3.43-3.39-3.1-1.99.33-2.52,1.78-2.12,4.11l1.79,10.53c.39,2.32,1.68,3.07,3.16,2.91.75-.08,2.7-1.14,2.53-2.4l-.61-4.36Z"/>
      <path class="cls-13" d="m114.64,267.18l.25.22-4.96,11.04c-.92,1.89-1.33,4.24.63,5.21,2.86,1.41,4.12-.81,5.37-3.55l5.71-13.95c1.03-2.47,2.17-5.11.5-6.65-1.56-1.43-4.76.16-7.4,1.4l-13.34,6.26c-3.02,1.42-4.3,2.97-3.3,4.77,1.07,1.94,3.22,1.71,5.49.61l11.05-5.37Z"/>
      <path class="cls-13" d="m150.75,282.32l-8-3.2.04-2.41c.03-2.19-.75-4.16-3.04-4.05-2.43.12-3.05,2.06-2.94,5.89l.38,14.49c.02,2.71-.43,5.46,2.73,6.65,3.16,1.19,5.07-1.55,6.91-3.55l9.19-11.57c1.58-1.8,3.25-4.42.86-6.05-1.53-1.04-3.23-.14-4.33,1.36l-1.8,2.44Zm-2.97,4.11l-4.67,6.12-.32-.12-.14-7.98,5.12,1.98Z"/>
      <path class="cls-13" d="m165.72,285.55l-1.27,15.5c-.16,2.02.56,3.95,2.91,4.13,2.5.2,3.3-1.38,3.47-3.39l1.49-18.04c.17-2.02-1.19-3.56-3.54-3.76l-6.64-.58c-2.35-.21-3.82.42-3.95,2.61-.12,2.02,1.18,3.14,3.54,3.28l3.99.25Z"/>
      <path class="cls-13" d="m195.15,297.07c-2.25.7-3.38,1.64-2.77,3.57.6,1.93,2.62,2.29,4.88,1.62l5.07-1.5c2.27-.67,4.62-2.35,4.04-4.29l-4.84-16.34c-.57-1.94-1.29-4.47-3.56-3.81l-8.55,2.5c-1.97.58-2.91,1.81-2.53,3.33.49,1.96,2.05,2.62,4.33,1.99l4.65-1.28,1.23,3.89-4.93,1.52c-1.93.59-2.33,1.82-1.83,3.43.5,1.61,1.86,2.12,3.8,1.55l4.48-1.33,1.16,3.7-4.65,1.44Z"/>
      <path class="cls-13" d="m255.93,228.36c-3.2-1.47-3.35-4.66-2.75-6.59.61-1.93,3.09-4.07,6.29-3.71,1.56.18,3.26.73,4.5,1.41,2.98,1.62,3.42,4.47,2.82,6.4-.61,1.93-3.82,4.4-6.7,3.73-1.45-.34-2.74-.59-4.17-1.24h0Zm2.32,7.54c5.69,1.19,12.07-1.5,14.14-8.1,2.06-6.6-1.37-12.72-6.84-14.76-1.47-.55-3.6-1.41-5.17-1.48-5.66-.27-10.85,1.79-12.92,8.39-2.06,6.6,1.41,12.98,6.91,14.88,1.49.51,2.34.75,3.88,1.07h0Z"/>
      <path class="cls-13" d="m257.91,187.25c-4.98,1.37-10.45,6.18-9.23,12.98.97,5.41,3.23,7.45,5.57,7.15,1.84-.23,2.8-2.39,1.99-3.77-1.43-2.45-1.73-2.3-1.46-5.22.2-2.18,1.48-3.59,3.51-4.41,1.63-.66,3.55-.83,5.28-.63,2.18.25,4.67,1.98,5.06,4.14.33,1.84.55,3.19-.12,4.19-1.27,1.91.29,3.33,2.11,3.71,1.97.41,4.95-2.15,4.15-8-.87-6.34-5.32-9.96-11.12-10.6-1.91-.21-3.89-.04-5.74.46h0Z"/>
      <path class="cls-13" d="m247.93,176.38c-1.44,2.25-2.81,3.98-2.03,5.84.91,2.18,2.96,2.33,4.8,1.57l16.18-6.68c1.87-.77,3.52-2.14,2.61-4.32-.91-2.17-2.91-2.14-4.77-1.35l-9.97,4.28,6.56-11.33c1.44-2.24,3.02-4.57,2.22-6.43-.87-2.03-3.07-1.77-4.91-1.01l-16.3,6.75c-1.87.77-2.96,1.88-2.06,4.06.91,2.18,2.34,2.18,4.21,1.42l10.67-4.36-7.23,11.55Z"/>
      <path class="cls-13" d="m253.73,148.53c1.63-1.2,2.41-2.61.95-4.46-1.46-1.86-3.46-.98-5.09.21l-14.34,10.4c-1.64,1.19-2.45,2.85-.98,4.71,1.46,1.86,2.73,1.49,4.35.29l15.11-11.14Z"/>
      <path class="cls-13" d="m231.05,135.55l3.47-4.14c2.52,1.96,4.05,3.51,2.38,5.59-1.4,1.74-3.78.81-5.85-1.45h0Zm-3.5,12.44s-.17,2.82,1.04,3.99c1.93,1.88,3.18,1.18,4.59-.27.94-.97.37-3.41.37-3.41l-.07-6.09s5.08,2.21,8.02-.82c3.17-3.27,4.12-7.92-1.34-12.42l-3.56-2.94c-1.82-1.5-3.72-1.77-5.05-.24l-10.84,12.45c-1.33,1.52-3.34,3.99-1.65,5.63,1.69,1.64,3.51,1.55,4.79-.02l4.06-4.98-.35,9.1Z"/>
      <path class="cls-13" d="m207.14,129.38c-2.02,0-3.31,1.38-3.31,3.23s1.29,3.23,3.31,3.23,3.3-1.39,3.3-3.23-1.29-3.23-3.3-3.23h0Z"/>
      <path class="cls-13" d="m204.41,119.41c1.39-5.56-1.4-11.17-8.44-12.93l-5.73-1.43c-2.29-.57-3.94.41-4.41,2.37l-4.23,17.37c-.48,1.96.49,3.51,2.79,4.08l5.73,1.43c7.04,1.75,12.09-2.07,13.48-7.63l.82-3.27Zm-9.73-7.42c3.04.74,4.12,3.74,3.55,6.03l-.82,3.27c-.57,2.29-3.85,4.09-7.17,3.26l-2.13-.53,3.01-12.91,3.56.87Z"/>
      <path class="cls-13" d="m164.01,122.57c-2.01,0-3.31,1.38-3.31,3.23s1.29,3.23,3.31,3.23,3.31-1.38,3.31-3.23-1.29-3.23-3.31-3.23h0Z"/>
      <path class="cls-13" d="m239.39,249.76c-2.66.21-4.87.16-5.88,1.9-1.19,2.04-.07,3.77,1.64,4.78l15.09,8.87c1.75,1.03,3.83,1.52,5.02-.52,1.19-2.04-.04-3.61-1.8-4.61l-9.43-5.36,12.99-1.61c2.66-.21,5.46-.36,6.46-2.11,1.09-1.92-.44-3.52-2.15-4.53l-15.22-8.92c-1.74-1.02-3.28-1.23-4.47.81-1.19,2.04-.34,3.18,1.41,4.21l9.91,5.88-13.57,1.21Z"/>
      <path class="cls-13" d="m210.68,287.12c2.86,4.96,8.77,7.06,15.05,3.44l5.11-2.95c2.04-1.18,2.55-3.03,1.53-4.77l-9.03-15.43c-1.02-1.75-2.79-2.18-4.84-1l-5.11,2.95c-6.28,3.62-7.27,9.88-4.4,14.85l1.69,2.92Zm12.15-1.42c-2.7,1.57-5.56.17-6.74-1.88l-1.68-2.92c-1.18-2.04-.07-5.62,2.89-7.33l1.9-1.09,6.8,11.38-3.17,1.84Z"/>
      <path class="cls-13" d="m111.03,252.81c1.66-1.16,2.48-2.54,1.07-4.44-1.41-1.9-3.43-1.08-5.09.07l-14.62,10c-1.67,1.14-2.52,2.78-1.11,4.68,1.41,1.89,2.68,1.57,4.34.41l15.41-10.72Z"/>
      <path class="cls-13" d="m98.26,247.41c4.39-2.72,8.27-8.88,5.18-15.06-2.46-4.92-5.2-6.23-7.36-5.29-1.7.74-2.01,3.08-.84,4.18,2.07,1.94,2.3,1.73,2.88,4.6.42,2.15-.41,3.86-2.12,5.22-1.38,1.09-3.16,1.8-4.88,2.09-2.16.38-5.04-.58-6.02-2.54-.84-1.67-1.43-2.91-1.07-4.05.68-2.19-1.22-3.11-3.07-2.96-2,.17-4.14,3.46-1.72,8.85,2.62,5.84,7.92,8.05,13.67,7.03,1.89-.34,3.74-1.05,5.38-2.07h0Z"/>
      <path class="cls-13" d="m82,198.32c-3.2-1.47-3.35-4.66-2.75-6.59.6-1.93,3.09-4.07,6.29-3.71,1.57.18,3.26.73,4.51,1.41,2.98,1.62,3.42,4.47,2.82,6.4-.6,1.93-3.82,4.4-6.7,3.73-1.45-.34-2.74-.59-4.17-1.24h0Zm2.32,7.54c5.69,1.19,12.08-1.5,14.14-8.1,2.06-6.6-1.37-12.72-6.84-14.77-1.47-.55-3.6-1.41-5.17-1.48-5.66-.27-10.86,1.8-12.92,8.39-2.06,6.6,1.41,12.98,6.91,14.88,1.49.51,2.34.75,3.88,1.08h0Z"/>
      <path class="cls-13" d="m90.63,169.47l-4.9-2.28c1.24-2.94,2.34-4.82,4.77-3.75,2.05.91,1.77,3.44.13,6.02h0Zm12.92.15s2.76-.57,3.58-2.04c1.31-2.36.32-3.38-1.44-4.36-1.18-.66-3.39.53-3.39.53l-5.86,1.64s.81-5.48-2.87-7.53c-3.98-2.22-8.72-1.93-11.65,4.52l-1.91,4.2c-.98,2.15-.74,4.05,1.08,4.94l14.84,7.23c1.82.88,4.72,2.19,5.87.13,1.15-2.06.59-3.79-1.26-4.62l-5.86-2.62,8.88-2.02Z"/>
      <path class="cls-13" d="m107.91,160.28c1.65,1.17,3.23,1.48,4.54-.48,1.32-1.96-.13-3.59-1.76-4.78l-13.95-10.17c-1.63-1.19-3.8-1.52-5.15.26-1.43,1.88-.32,3.28,1.32,4.45l15,10.71Z"/>
      <path class="cls-13" d="m116.39,146.52l6.56-5.26,2.21.89c2.04.82,4.07,1.52,5.08-.54,1.06-2.19-.5-3.52-3.87-5.32l-12.69-6.78c-2.39-1.29-4.57-3.01-7.14-.83-2.57,2.19-1.1,5.19-.23,7.77l5.69,13.64c.81,2.26,2.3,4.98,4.88,3.67,1.65-.84,1.73-2.78.9-4.45l-1.39-2.79Zm-2.16-4.73l-2.99-6.86.26-.22,7.03,3.64-4.3,3.43Z"/>
      <path class="cls-13" d="m138.39,126.1c2.48,4.53,8.42,8.73,14.77,5.98,5.04-2.2,6.5-4.86,5.67-7.07-.65-1.73-2.97-2.17-4.12-1.06-2.05,1.96-1.84,2.21-4.75,2.62-2.17.31-3.83-.61-5.1-2.4-1.02-1.44-1.63-3.26-1.83-4.99-.26-2.18.85-5,2.85-5.88,1.71-.75,2.98-1.27,4.1-.86,2.15.8,3.17-1.06,3.12-2.91-.06-2.01-3.24-4.32-8.74-2.19-5.96,2.31-8.46,7.48-7.74,13.27.24,1.91.86,3.79,1.78,5.48h0Z"/>
      <path class="cls-14" d="m102.78,204.64c0-9.88,1.99-19.28,5.6-27.82.23-.69.5-1.37.83-2.04.28-.56.56-1.11.86-1.65,12.03-24.47,36.88-39.99,64.48-39.99,19.84,0,37.7,7.95,50.61,20.85,12.92,12.91,20.87,30.78,20.87,50.6,0,14.93-4.52,28.78-12.28,40.26-2.33,3.7-6.25,8.43-9.5,11.32-9.79,9.49-22.53,16.31-35.93,18.77-4.47.87-9.09,1.32-13.82,1.32-19.84,0-37.77-8-50.74-20.95-12.97-12.95-20.98-30.86-20.98-50.68h0Zm50.35-72.6c5.04-2.19,6.5-4.86,5.67-7.07-.65-1.74-2.97-2.17-4.12-1.07-2.05,1.96-1.84,2.21-4.75,2.62-2.17.31-3.83-.61-5.1-2.39-1.02-1.44-1.63-3.26-1.83-4.99-.26-2.18.85-5,2.86-5.88,1.71-.75,2.98-1.27,4.1-.86,2.15.8,3.18-1.05,3.12-2.91-.06-2.01-3.24-4.32-8.74-2.19-5.96,2.31-8.46,7.48-7.74,13.28.24,1.91.85,3.79,1.78,5.47,2.49,4.53,8.42,8.73,14.76,5.98h0Zm-36.28,21.69c-2.58,1.3-4.07-1.41-4.88-3.67l-5.69-13.64c-.87-2.58-2.34-5.59.23-7.77,2.57-2.19,4.75-.47,7.14.83l12.69,6.78c3.38,1.81,4.94,3.14,3.87,5.32-1.01,2.07-3.04,1.36-5.07.54l-2.21-.89-6.56,5.27,1.39,2.79c.82,1.66.75,3.61-.91,4.45h0Zm-15.07,25.12c-1.15,2.06-4.06.75-5.87-.13l-14.84-7.23c-1.82-.89-2.05-2.79-1.08-4.94l1.91-4.2c2.93-6.45,7.67-6.74,11.64-4.52,3.68,2.05,2.87,7.53,2.87,7.53l5.86-1.65s2.21-1.18,3.39-.53c1.77.98,2.76,2,1.45,4.36-.82,1.47-3.59,2.04-3.59,2.04l-8.88,2.02,5.86,2.62c1.85.83,2.41,2.56,1.27,4.62h0Zm6.12-18.6l-15-10.72c-1.65-1.17-2.75-2.57-1.32-4.45,1.35-1.77,3.51-1.44,5.15-.26l13.95,10.17c1.64,1.19,3.08,2.82,1.77,4.78-1.31,1.96-2.9,1.65-4.54.47h0Zm65.73-61.23c-29.16,0-55.55,11.73-74.64,30.69-19.09,18.96-30.9,45.15-30.9,74.09s11.81,55.14,30.9,74.1c19.09,18.96,45.49,30.69,74.64,30.69s55.55-11.73,74.65-30.69c19.09-18.96,30.9-45.16,30.9-74.1s-11.81-55.14-30.9-74.09c-19.09-18.97-45.49-30.69-74.65-30.69h0Zm45.43,44.84c-1.69-1.65.32-4.11,1.65-5.63l10.84-12.45c1.33-1.52,3.23-1.26,5.05.24l3.57,2.94c5.46,4.5,4.51,9.15,1.34,12.42-2.94,3.02-8.02.82-8.02.82l.07,6.09s.57,2.45-.37,3.41c-1.41,1.45-2.65,2.14-4.59.26-1.21-1.18-1.04-3.99-1.04-3.99l.35-9.1-4.06,4.98c-1.28,1.57-3.1,1.66-4.79.02h0Zm16.09,112.54c-1.71-1.01-2.83-2.74-1.65-4.78,1.02-1.75,3.23-1.7,5.89-1.9l13.57-1.21-9.91-5.88c-1.74-1.03-2.59-2.18-1.41-4.21,1.19-2.04,2.73-1.83,4.48-.81l15.22,8.92c1.71,1.01,3.25,2.61,2.16,4.53-1,1.76-3.81,1.91-6.47,2.11l-12.99,1.61,9.43,5.37c1.76,1,2.99,2.57,1.8,4.61-1.19,2.04-3.27,1.55-5.02.52l-15.1-8.87Zm-16.65,9.96c2.04-1.18,3.82-.74,4.83,1l9.03,15.43c1.02,1.75.52,3.6-1.53,4.78l-5.11,2.95c-6.28,3.62-12.18,1.52-15.05-3.44l-1.69-2.92c-2.86-4.96-1.88-11.23,4.4-14.85l5.11-2.95Zm-111.5-17.96c1.67-1.15,3.69-1.96,5.1-.07,1.41,1.9.59,3.28-1.07,4.44l-15.42,10.72c-1.66,1.15-2.94,1.48-4.34-.42-1.41-1.89-.55-3.53,1.12-4.68l14.62-10Zm-5.6,18.73l13.35-6.26c2.63-1.23,5.84-2.82,7.39-1.39,1.67,1.53.52,4.17-.5,6.65l-5.71,13.95c-1.24,2.75-2.5,4.96-5.36,3.55-1.96-.97-1.55-3.32-.63-5.21l4.96-11.04-.25-.23-11.05,5.37c-2.27,1.11-4.41,1.32-5.49-.61-1-1.8.28-3.35,3.3-4.77h0Zm105.74-131.33c-2.01,0-3.31-1.38-3.31-3.23s1.29-3.23,3.31-3.23,3.31,1.38,3.31,3.23-1.29,3.23-3.31,3.23h0Zm28.1,18.85l14.34-10.41c1.64-1.19,3.63-2.06,5.09-.21,1.46,1.86.68,3.27-.94,4.46l-15.11,11.15c-1.63,1.2-2.89,1.56-4.36-.29-1.46-1.85-.65-3.52.99-4.7h0Zm10.66,27.54c-.78-1.87.59-3.6,2.03-5.84l7.22-11.55-10.67,4.36c-1.88.77-3.3.75-4.21-1.42-.91-2.18.18-3.28,2.05-4.06l16.3-6.75c1.84-.76,4.04-1.01,4.91,1.02.8,1.86-.78,4.19-2.22,6.43l-6.56,11.33,9.97-4.29c1.86-.8,3.85-.83,4.76,1.35.91,2.18-.74,3.54-2.61,4.32l-16.18,6.68c-1.84.76-3.89.61-4.8-1.57h0Zm-106.15,90.43c2.29-.12,3.07,1.86,3.04,4.05l-.04,2.41,8,3.2,1.8-2.45c1.1-1.5,2.8-2.4,4.33-1.35,2.39,1.62.73,4.24-.85,6.04l-9.2,11.57c-1.84,2.01-3.75,4.75-6.91,3.56-3.16-1.19-2.71-3.93-2.73-6.65l-.39-14.5c-.1-3.83.52-5.77,2.95-5.89h0Zm-43.67-45.59c2.16-.95,4.9.37,7.36,5.29,3.09,6.18-.79,12.34-5.18,15.06-1.63,1.01-3.48,1.73-5.38,2.07-5.75,1.03-11.04-1.19-13.67-7.03-2.42-5.38-.28-8.68,1.73-8.85,1.84-.15,3.75.77,3.07,2.96-.36,1.14.23,2.38,1.07,4.05.98,1.96,3.87,2.91,6.03,2.54,1.71-.3,3.5-1,4.88-2.1,1.71-1.36,2.55-3.07,2.12-5.22-.57-2.88-.81-2.66-2.88-4.6-1.16-1.09-.85-3.43.84-4.18h0Zm96.29,73.58c-.6-1.93.51-2.88,2.77-3.57l4.65-1.44-1.16-3.71-4.48,1.33c-1.94.57-3.29.06-3.8-1.55-.5-1.61-.11-2.83,1.83-3.43l4.93-1.52-1.24-3.89-4.65,1.28c-2.27.62-3.83-.04-4.33-1.99-.38-1.52.56-2.76,2.53-3.34l8.55-2.5c2.26-.66,2.98,1.87,3.55,3.81l4.84,16.34c.57,1.94-1.78,3.62-4.04,4.29l-5.07,1.5c-2.27.67-4.28.31-4.89-1.62h0Zm-100.77-117.64c5.47,2.04,8.91,8.17,6.84,14.77-2.07,6.6-8.45,9.29-14.14,8.1-1.54-.32-2.39-.57-3.88-1.07-5.51-1.89-8.98-8.28-6.91-14.88,2.06-6.6,7.26-8.66,12.92-8.39,1.57.07,3.7.93,5.17,1.48h0Zm-12.61,34.64l15.88-2.99c1.98-.37,3.81-.04,4.2,2.29.39,2.33-1.09,2.87-3.08,3.22l-15.99,2.8.61,4.36c.18,1.26-1.77,2.33-2.53,2.41-1.48.16-2.77-.59-3.16-2.92l-1.79-10.53c-.39-2.32.13-3.77,2.12-4.11,1.99-.33,3.04.77,3.38,3.1l.36,2.37Zm81.71-91.84c0-1.84,1.29-3.23,3.31-3.23s3.3,1.39,3.3,3.23-1.29,3.23-3.3,3.23-3.31-1.38-3.31-3.23h0Zm-2.51,156.22c.13-2.2,1.6-2.83,3.95-2.62l6.64.58c2.35.21,3.71,1.75,3.54,3.76l-1.49,18.04c-.16,2.02-.97,3.59-3.47,3.39-2.36-.18-3.08-2.12-2.91-4.13l1.27-15.5-3.98-.25c-2.36-.15-3.66-1.26-3.54-3.28h0Zm90.48-81.78c-1.22-6.8,4.24-11.61,9.23-12.98,1.85-.51,3.83-.68,5.74-.47,5.81.64,10.26,4.27,11.13,10.6.8,5.85-2.18,8.41-4.15,8-1.81-.38-3.38-1.8-2.11-3.71.66-.99.45-2.35.11-4.19-.39-2.16-2.88-3.89-5.06-4.14-1.73-.2-3.64-.03-5.28.63-2.03.82-3.31,2.22-3.51,4.41-.27,2.92.02,2.78,1.46,5.23.8,1.38-.15,3.53-1.99,3.77-2.34.3-4.6-1.74-5.56-7.15h0Zm5.68,34.59c-5.51-1.89-8.98-8.28-6.91-14.88,2.06-6.6,7.26-8.66,12.92-8.39,1.57.07,3.7.93,5.17,1.48,5.47,2.04,8.91,8.16,6.84,14.77-2.07,6.6-8.45,9.29-14.14,8.1-1.54-.32-2.39-.57-3.88-1.08h0Zm-69.97-105.94c-2.29-.57-3.26-2.12-2.79-4.08l4.23-17.37c.48-1.96,2.12-2.95,4.41-2.38l5.73,1.43c7.03,1.75,9.83,7.36,8.44,12.93l-.82,3.27c-1.39,5.57-6.44,9.38-13.48,7.63l-5.73-1.43Z"/>
      <path class="cls-8" d="m102.6,204.64c0-4.88.49-9.65,1.42-14.26.95-4.72,2.37-9.28,4.2-13.61.12-.34.25-.69.38-1.03.14-.34.29-.69.46-1.03.14-.29.28-.57.42-.84.13-.25.27-.52.43-.81,6.04-12.29,15.3-22.32,26.52-29.28,11.18-6.93,24.3-10.81,38.12-10.81,9.75,0,19.04,1.92,27.48,5.4,8.77,3.61,16.65,8.91,23.24,15.5,6.59,6.59,11.9,14.47,15.51,23.24,3.49,8.45,5.41,17.73,5.41,27.48,0,7.36-1.09,14.45-3.13,21.14-2.1,6.91-5.22,13.37-9.17,19.22h0c-1.18,1.88-2.77,4.02-4.47,6.05-1.66,1.98-3.44,3.87-5.05,5.3-4.95,4.8-10.66,8.92-16.82,12.14-6.05,3.16-12.54,5.45-19.19,6.68-2.25.44-4.54.77-6.88.99-2.3.22-4.62.34-6.97.34-9.75,0-19.05-1.93-27.53-5.43-8.8-3.63-16.71-8.96-23.33-15.57-6.62-6.61-11.96-14.52-15.6-23.3-3.5-8.46-5.44-17.75-5.44-27.49h0Zm1.75-14.2c-.92,4.58-1.41,9.33-1.41,14.2,0,9.7,1.92,18.94,5.41,27.36,3.62,8.75,8.93,16.61,15.52,23.2,6.59,6.58,14.46,11.88,23.22,15.5,8.43,3.48,17.69,5.4,27.4,5.4,2.35,0,4.66-.11,6.94-.33,2.31-.22,4.6-.55,6.84-.99,6.62-1.21,13.08-3.5,19.1-6.64,6.14-3.2,11.82-7.3,16.75-12.08h0c1.6-1.43,3.36-3.3,5.02-5.28,1.7-2.02,3.28-4.15,4.45-6.01h0c3.94-5.82,7.04-12.26,9.13-19.13,2.03-6.65,3.12-13.71,3.12-21.04,0-9.7-1.91-18.94-5.38-27.35-3.6-8.73-8.88-16.57-15.44-23.13-6.56-6.56-14.4-11.83-23.13-15.43-8.41-3.46-17.64-5.37-27.36-5.37-13.75,0-26.81,3.86-37.94,10.76-11.16,6.93-20.38,16.91-26.39,29.14h0c-.13.25-.28.52-.43.82-.14.28-.29.56-.42.83-.16.33-.31.67-.45,1-.14.34-.26.68-.38,1.02h0c-1.82,4.33-3.23,8.86-4.18,13.57h0Zm48.71-58.56c2.35-1.02,3.91-2.14,4.81-3.27.99-1.23,1.18-2.47.77-3.58-.12-.3-.29-.57-.49-.79-.35-.36-.8-.6-1.28-.71-.48-.11-.98-.08-1.41.08-.25.09-.48.23-.67.41-.32.3-.58.57-.81.79-1.28,1.28-1.52,1.52-4.03,1.88-1.12.16-2.11,0-2.98-.43-.87-.43-1.62-1.12-2.27-2.04-.5-.71-.91-1.51-1.21-2.34-.33-.89-.54-1.82-.65-2.72-.14-1.17.11-2.52.66-3.67.52-1.06,1.3-1.95,2.29-2.39.86-.38,1.62-.7,2.3-.88.7-.18,1.33-.21,1.93.02.36.13.68.19.97.18.41-.01.76-.16,1.04-.4.28-.25.5-.59.65-.99.17-.47.25-1,.23-1.54,0-.22-.05-.44-.14-.66-.23-.59-.74-1.16-1.5-1.57-.77-.42-1.81-.68-3.09-.64-1.09.03-2.36.28-3.78.83-2.86,1.11-4.91,2.88-6.18,5.06-1.35,2.31-1.82,5.09-1.46,8.04.11.94.32,1.87.62,2.78.3.91.68,1.8,1.14,2.64,1.35,2.46,3.72,4.82,6.63,6,2.38.96,5.1,1.13,7.92-.09h0Zm5.07-3.06c-.93,1.17-2.53,2.32-4.94,3.37-2.9,1.26-5.73,1.09-8.18.1-2.98-1.21-5.42-3.63-6.8-6.15-.47-.86-.86-1.76-1.16-2.7-.3-.93-.52-1.88-.64-2.84-.38-3.02.11-5.88,1.5-8.26,1.31-2.24,3.42-4.06,6.35-5.2,1.46-.57,2.76-.83,3.89-.86,1.34-.04,2.44.24,3.27.68.84.45,1.39,1.09,1.65,1.75.1.25.15.52.16.77.02.58-.07,1.16-.25,1.67h0c-.16.45-.41.84-.74,1.12-.34.29-.75.47-1.25.49-.33,0-.7-.05-1.09-.2-.52-.2-1.09-.17-1.73,0-.66.17-1.39.48-2.25.85-.92.4-1.64,1.23-2.12,2.23-.53,1.09-.77,2.37-.63,3.48.1.88.31,1.78.63,2.64.3.81.69,1.58,1.18,2.26.62.87,1.33,1.53,2.14,1.93.82.4,1.74.54,2.79.39,2.4-.34,2.62-.57,3.84-1.78.23-.23.5-.5.81-.8.23-.22.49-.38.78-.49.5-.18,1.07-.21,1.6-.09.54.12,1.06.4,1.45.81.23.25.43.55.56.9.46,1.22.25,2.58-.82,3.91h0Zm-41.21,25.05c-1.38.69-2.46.32-3.3-.53-.81-.82-1.4-2.08-1.81-3.23l-5.69-13.64h0c-.08-.25-.19-.55-.29-.84-.86-2.43-1.81-5.09.57-7.12,2.36-2.01,4.38-.86,6.5.34.27.15.54.31.82.46l12.69,6.78c1.71.91,2.96,1.71,3.65,2.56.72.89.86,1.82.29,2.98-.54,1.11-1.35,1.47-2.31,1.45-.92-.02-1.95-.41-2.98-.82l-2.12-.85-6.37,5.12,1.33,2.67c.45.91.64,1.91.47,2.79-.16.79-.62,1.47-1.45,1.89h0Zm-3.06-.77c.74.75,1.7,1.08,2.91.47.72-.37,1.12-.96,1.26-1.65.16-.79-.01-1.72-.44-2.57l-1.39-2.79-.06-.12.11-.09,6.56-5.27.08-.06.09.04,2.21.89c1,.4,2,.78,2.86.8.82.02,1.53-.3,2-1.26.5-1.02.38-1.85-.25-2.62-.66-.81-1.88-1.58-3.55-2.47l-12.69-6.78c-.27-.15-.55-.31-.83-.47-2.02-1.14-3.94-2.24-6.11-.38-2.2,1.88-1.3,4.43-.47,6.75.1.27.19.53.29.84l5.68,13.64h0c.4,1.11.96,2.34,1.74,3.11h0Zm-11.95,25.83c-.62,1.11-1.7,1.32-2.86,1.12-1.12-.18-2.31-.74-3.23-1.18l-14.84-7.23c-.93-.45-1.47-1.16-1.66-2.04-.2-.91-.01-1.98.5-3.12l1.91-4.2c.19-.42.39-.82.6-1.19,1.39-2.49,3.1-3.86,4.91-4.4,1.82-.54,3.73-.25,5.52.56.28.13.57.27.85.43,3.3,1.84,3.09,6.33,2.98,7.45l5.6-1.57c.23-.12,2.35-1.18,3.54-.52.91.51,1.63,1.03,1.95,1.74.33.72.25,1.62-.44,2.85-.86,1.54-3.67,2.12-3.7,2.12l-8.39,1.91,5.4,2.42c.12.05.24.11.35.17.77.43,1.28,1.03,1.49,1.75.22.72.14,1.56-.27,2.47-.07.15-.14.31-.23.46h0Zm-2.81.79c1.03.17,1.98,0,2.51-.95.08-.15.15-.29.22-.44.37-.83.44-1.59.25-2.23-.19-.64-.65-1.17-1.34-1.56-.1-.05-.21-.11-.32-.16l-5.86-2.62-.46-.21.5-.11,8.88-2.02s2.69-.55,3.47-1.96c.62-1.12.71-1.92.42-2.54-.29-.63-.95-1.11-1.81-1.59-1.1-.61-3.22.52-3.23.53h-.02s-.02.01-.02.01l-5.86,1.65-.25.07.04-.26s.8-5.37-2.78-7.36c-.27-.15-.55-.29-.82-.41-1.73-.79-3.56-1.07-5.29-.55-1.73.52-3.37,1.84-4.71,4.25-.2.36-.4.75-.59,1.16l-1.91,4.2c-.49,1.07-.66,2.08-.48,2.91.17.77.65,1.4,1.48,1.8l14.84,7.24c.9.44,2.07.98,3.14,1.15h0Zm8.68-19.33l-15-10.71c-.84-.61-1.55-1.27-1.87-2.04-.33-.79-.24-1.66.52-2.66.66-.87,1.51-1.26,2.4-1.3,1.01-.05,2.08.36,2.99,1.01l13.95,10.17c.84.61,1.62,1.34,2.04,2.16.43.85.47,1.81-.23,2.85-.69,1.03-1.46,1.46-2.28,1.49-.81.02-1.65-.36-2.5-.97h0Zm-14.81-10.99l15,10.71c.79.57,1.57.92,2.29.91.71-.02,1.38-.41,2.01-1.34.61-.92.59-1.76.21-2.51-.39-.77-1.14-1.46-1.94-2.04l-13.95-10.17c-.85-.62-1.84-1-2.77-.95-.8.04-1.55.39-2.15,1.17-.67.88-.75,1.65-.47,2.32.29.69.96,1.32,1.76,1.89h0Zm80.63-50.21c-14.28,0-27.89,2.82-40.31,7.92-12.89,5.3-24.5,13.07-34.21,22.72-9.71,9.64-17.54,21.16-22.88,33.96-5.14,12.32-7.98,25.84-7.98,40.01s2.84,27.69,7.98,40.01c5.34,12.8,13.16,24.32,22.88,33.96,9.71,9.64,21.32,17.41,34.21,22.72,12.42,5.1,26.03,7.92,40.31,7.92s27.9-2.82,40.31-7.92c12.89-5.3,24.5-13.07,34.22-22.72,9.71-9.65,17.54-21.16,22.87-33.96,5.14-12.32,7.98-25.84,7.98-40.01s-2.84-27.69-7.98-40.01c-5.34-12.8-13.16-24.32-22.87-33.96-9.72-9.65-21.32-17.42-34.22-22.72-12.41-5.11-26.03-7.92-40.31-7.92h0Zm-40.44,7.61c12.46-5.12,26.12-7.95,40.44-7.95s27.99,2.83,40.44,7.95c12.94,5.32,24.58,13.12,34.32,22.79,9.74,9.68,17.59,21.23,22.95,34.07,5.16,12.36,8,25.92,8,40.14s-2.85,27.78-8,40.14c-5.36,12.84-13.21,24.4-22.95,34.07-9.74,9.68-21.39,17.47-34.32,22.79-12.46,5.12-26.12,7.95-40.44,7.95s-27.98-2.83-40.44-7.95c-12.94-5.32-24.58-13.11-34.32-22.79-9.74-9.67-17.59-21.23-22.95-34.07-5.16-12.36-8-25.92-8-40.14s2.84-27.78,8-40.14c5.36-12.84,13.2-24.4,22.95-34.07,9.75-9.68,21.39-17.47,34.32-22.79h0Zm85.75,37.18c-.91-.89-.83-1.98-.34-3.05.47-1.03,1.31-2.04,1.98-2.81l10.84-12.45c.68-.78,1.51-1.12,2.4-1.08.93.04,1.92.5,2.89,1.3l3.56,2.94c.36.3.69.59,1,.89,2.05,1.99,2.93,4,2.98,5.89.05,1.89-.73,3.66-1.98,5.19-.2.24-.41.48-.64.71-2.64,2.71-6.92,1.34-7.97.95l.06,5.82c.06.24.53,2.57-.42,3.55-.73.75-1.42,1.3-2.19,1.43-.78.12-1.62-.18-2.64-1.16-1.26-1.23-1.09-4.11-1.09-4.12l.33-8.59-3.73,4.59c-.08.1-.17.2-.26.29-.61.63-1.32.97-2.08.99-.75.02-1.54-.27-2.31-.9-.13-.1-.26-.22-.39-.34h0Zm-.03-2.91c-.43.95-.51,1.91.27,2.67.12.12.24.23.36.32.7.57,1.42.84,2.09.82.67-.02,1.3-.32,1.85-.88.08-.08.16-.17.23-.27l4.06-4.98.32-.39-.02.51-.35,9.11h0s-.16,2.74.99,3.86c.92.9,1.67,1.18,2.34,1.07.68-.11,1.32-.63,2-1.33.88-.9.33-3.25.32-3.25v-.02s0-.02,0-.02l-.07-6.09v-.26s.23.1.23.1c.02,0,4.98,2.16,7.83-.78.22-.22.42-.45.62-.69,1.21-1.46,1.95-3.16,1.9-4.96-.05-1.81-.9-3.73-2.88-5.65-.3-.29-.63-.58-.97-.87l-3.56-2.93c-.91-.75-1.84-1.18-2.69-1.22-.78-.04-1.52.27-2.12.96l-10.84,12.45c-.66.75-1.48,1.74-1.93,2.73h0Zm8.48,6.89h0s0,0,0,0Zm7.68,108.59c-.96-.56-1.74-1.35-2.06-2.29-.28-.81-.22-1.73.35-2.72.95-1.63,2.85-1.76,5.18-1.93.27-.02.55-.04.84-.06l13.04-1.16-9.46-5.61c-.9-.53-1.57-1.1-1.87-1.81-.3-.72-.22-1.57.41-2.64.62-1.07,1.35-1.55,2.16-1.64.79-.08,1.65.24,2.55.76l15.22,8.92c.98.57,1.91,1.34,2.34,2.26.36.75.39,1.59-.13,2.5-1.01,1.77-3.68,1.98-6.29,2.18l-.31.02-12.48,1.54,8.98,5.11h0l.07.04c.88.51,1.63,1.17,2.01,1.96.39.81.4,1.75-.2,2.8l-.02.04h0c-.63,1.08-1.49,1.49-2.43,1.5-.91,0-1.89-.38-2.78-.89l-.03-.02-15.1-8.88Zm-1.74-2.39c.29.85,1.02,1.58,1.91,2.1l15.09,8.88.03.02c.84.49,1.77.86,2.61.85.82,0,1.58-.37,2.14-1.32h0s.02-.05.02-.05c.53-.94.52-1.77.18-2.48-.35-.72-1.05-1.34-1.87-1.82l-.07-.04-9.43-5.36-.44-.25.51-.06,12.99-1.61h0s.32-.03.32-.03c2.52-.19,5.1-.39,6.02-2,.45-.79.42-1.53.11-2.18-.4-.85-1.28-1.57-2.21-2.11l-15.22-8.92c-.84-.49-1.63-.79-2.34-.72-.7.07-1.34.5-1.9,1.47-.56.97-.65,1.71-.39,2.33.27.63.89,1.15,1.73,1.65l9.92,5.88.45.27-.52.05-13.57,1.21c-.28.02-.57.04-.85.06-2.23.15-4.04.28-4.9,1.76-.52.89-.58,1.72-.33,2.44h0Zm-14.91,12.07c1.05-.6,2.03-.8,2.89-.62.89.18,1.63.76,2.18,1.68l9.03,15.43.02.03c.52.91.65,1.84.39,2.71-.26.86-.91,1.64-1.96,2.25l-.04.02-5.11,2.95c-3.06,1.76-6.03,2.19-8.61,1.59-2.81-.64-5.15-2.48-6.67-5.1l-1.68-2.92c-1.46-2.52-1.93-5.38-1.25-8.05.68-2.68,2.53-5.19,5.71-7.03l5.11-2.95Zm2.82-.29c-.78-.16-1.68.02-2.66.58l-5.11,2.95c-3.1,1.79-4.89,4.22-5.55,6.82-.66,2.59-.19,5.36,1.22,7.8l1.69,2.92c1.46,2.54,3.74,4.32,6.45,4.94,2.5.57,5.39.16,8.37-1.56l5.11-2.95.03-.02c.97-.56,1.57-1.28,1.8-2.06.24-.78.12-1.62-.36-2.44v-.02s-9.04-15.43-9.04-15.43c-.49-.84-1.16-1.36-1.95-1.52h0Zm-114.33-17.66c.85-.59,1.8-1.09,2.72-1.2.95-.12,1.86.17,2.61,1.17.74,1,.89,1.87.64,2.65h0c-.25.77-.89,1.43-1.75,2.03l-15.41,10.72c-.86.6-1.62.98-2.37.97-.75-.01-1.47-.43-2.21-1.42-.04-.06-.09-.12-.11-.16-.63-.92-.75-1.79-.52-2.57.23-.78.8-1.46,1.57-2.03.07-.05.15-.11.22-.16l14.62-10Zm2.76-.86c-.86.11-1.76.59-2.57,1.14l-14.62,10c-.07.05-.15.1-.21.15-.71.53-1.24,1.16-1.44,1.85-.2.69-.09,1.46.48,2.29.04.06.08.11.11.15.67.9,1.3,1.27,1.94,1.28.66,0,1.37-.35,2.17-.91l15.42-10.72c.8-.55,1.4-1.16,1.62-1.85.22-.67.07-1.44-.59-2.34-.66-.89-1.46-1.14-2.29-1.04h0Zm-8.34,19.58l13.34-6.26.3-.14c2.62-1.23,5.7-2.68,7.28-1.22,1.73,1.59.64,4.21-.39,6.69l-.06.16-5.71,13.94h0c-.63,1.39-1.27,2.65-2.12,3.39-.88.77-1.97.98-3.47.24-.93-.46-1.36-1.21-1.47-2.08-.13-1.05.23-2.27.75-3.35l4.91-10.93-.07-.07-10.94,5.32c-1.24.61-2.45.95-3.49.84-.92-.1-1.7-.57-2.22-1.52-.53-.96-.46-1.86.16-2.71.59-.81,1.69-1.57,3.22-2.29h0Zm13.49-5.95l-13.34,6.25c-1.48.7-2.54,1.42-3.09,2.19-.53.73-.59,1.51-.13,2.35.47.84,1.15,1.25,1.96,1.34.96.11,2.11-.22,3.3-.8l11.05-5.37.1-.05.09.08.25.22.09.08-.05.11-4.96,11.04h0c-.5,1.03-.84,2.19-.73,3.17.09.76.47,1.42,1.28,1.81,1.36.67,2.32.48,3.1-.19.8-.7,1.42-1.92,2.04-3.27l5.71-13.94.07-.16c.99-2.37,2.03-4.88.48-6.3-1.41-1.3-4.38.09-6.91,1.28l-.31.15Zm92.32-125.06c-1.04,0-1.89-.35-2.5-.94-.62-.61-.98-1.47-.98-2.46s.35-1.84.98-2.45c.61-.59,1.47-.95,2.5-.95s1.89.36,2.5.95c.62.61.98,1.47.98,2.45s-.35,1.85-.98,2.46c-.61.59-1.47.94-2.5.94h0Zm-2.26-1.18c.54.53,1.32.84,2.26.84s1.72-.32,2.26-.84c.56-.55.87-1.32.87-2.21s-.32-1.66-.87-2.21c-.54-.53-1.32-.85-2.26-.85s-1.72.32-2.26.85c-.56.55-.88,1.32-.88,2.21s.32,1.67.88,2.21h0Zm30.27,19.72l14.34-10.4c.84-.61,1.77-1.14,2.69-1.28.94-.14,1.86.12,2.64,1.1.77.98.95,1.84.71,2.63-.23.77-.85,1.45-1.7,2.08l-15.11,11.14c-.84.62-1.59,1.02-2.34,1.04-.76,0-1.48-.39-2.25-1.36h0s-.11-.15-.11-.15h0c-.66-.91-.8-1.77-.59-2.56.21-.78.76-1.48,1.51-2.07h0c.07-.06.14-.11.21-.16h0Zm14.53-10.13l-14.34,10.41c-.07.05-.14.11-.21.16-.7.55-1.21,1.19-1.39,1.89-.18.7-.05,1.46.54,2.27h0l.11.14h0c.69.88,1.33,1.23,1.98,1.23.66,0,1.35-.39,2.14-.97l15.11-11.14c.79-.58,1.36-1.2,1.57-1.9.2-.68.03-1.44-.66-2.32-.68-.87-1.49-1.1-2.32-.97-.86.13-1.74.63-2.54,1.21h0Zm-3.94,37.88c-.73-1.75.31-3.34,1.59-5.29.16-.24.32-.48.46-.71l6.94-11.1-10.19,4.16c-.96.39-1.82.59-2.57.4-.76-.19-1.38-.77-1.86-1.91-.48-1.14-.42-2.02,0-2.71.41-.68,1.18-1.17,2.15-1.57l16.29-6.75c1.05-.44,2.22-.71,3.22-.5.82.17,1.51.65,1.92,1.61.8,1.87-.65,4.12-2.06,6.32l-.17.26-6.3,10.88,9.5-4.08.08-.03c.94-.39,1.91-.59,2.78-.41.88.18,1.63.73,2.11,1.84h0s.02.04.02.04v.02h0c.47,1.15.28,2.08-.28,2.83-.55.73-1.44,1.29-2.39,1.68h-.03s-16.18,6.69-16.18,6.69c-1.03.43-2.12.58-3.07.27-.82-.27-1.52-.87-1.96-1.93h0Zm1.87-5.1c-1.22,1.86-2.22,3.39-1.56,4.97.4.95,1.02,1.5,1.75,1.74.86.28,1.88.14,2.83-.25l16.19-6.68h.03c.9-.39,1.75-.91,2.25-1.58.49-.66.66-1.48.24-2.5h0s-.01-.05-.01-.05c-.43-1-1.1-1.49-1.87-1.64-.79-.16-1.7.03-2.58.39l-.07.03-9.97,4.29-.47.2.26-.45,6.56-11.33h0s.17-.27.17-.27c1.37-2.13,2.77-4.31,2.04-6.01-.36-.84-.96-1.26-1.67-1.41-.92-.19-2.02.07-3.02.49l-16.3,6.76c-.9.37-1.62.83-1.99,1.43-.36.6-.4,1.37.03,2.4.43,1.04.98,1.55,1.62,1.72.66.17,1.46-.02,2.36-.39l10.67-4.36.49-.2-.28.45-7.22,11.55h0c-.17.27-.32.49-.46.72h0Zm-107.87,95.3c.08,0,.17,0,.25,0,1.02.01,1.74.45,2.22,1.13.46.66.69,1.57.74,2.54,0,.18.01.37,0,.56l-.04,2.3,7.77,3.11,1.72-2.34c.6-.83,1.39-1.49,2.24-1.75.76-.24,1.56-.17,2.32.35,1.06.72,1.37,1.62,1.25,2.56.2-.58.55-.99,1.02-1.27.71-.43,1.7-.54,2.91-.43l6.64.59c1.2.1,2.16.55,2.8,1.23.66.7.98,1.64.9,2.71l-1.49,18.04c-.09,1.04-.34,1.97-.9,2.63-.57.66-1.45,1.03-2.75.93h0c-1.23-.1-2.04-.66-2.52-1.46-.47-.79-.62-1.81-.54-2.84v-.02l1.25-15.32-3.81-.24c-1.23-.07-2.19-.41-2.82-1-.63-.59-.94-1.41-.88-2.46,0-.11.02-.23.03-.33-.35,1.06-1.13,2.12-1.9,2.99l-9.19,11.57h0c-.19.21-.39.44-.59.67-1.71,1.93-3.58,4.05-6.51,2.94-2.9-1.09-2.87-3.41-2.84-5.86,0-.31,0-.63,0-.94l-.39-14.5c-.05-1.94.08-3.4.54-4.41.48-1.04,1.29-1.59,2.57-1.66h0Zm.25.34c-.07,0-.15,0-.23,0-1.14.06-1.86.54-2.28,1.46-.43.95-.56,2.37-.51,4.26l.39,14.5c0,.32,0,.64,0,.95-.03,2.32-.06,4.53,2.62,5.54,2.71,1.02,4.5-1,6.13-2.84.2-.22.39-.44.59-.66l9.2-11.57h0c.78-.89,1.57-1.98,1.88-3.03.3-1.02.13-2.01-1-2.77-.66-.45-1.36-.51-2.02-.3-.77.24-1.5.85-2.07,1.62l-1.8,2.45-.08.11-.12-.05-8-3.2-.11-.05v-.11l.04-2.41c0-.18,0-.36,0-.54-.05-.91-.25-1.75-.68-2.36-.41-.59-1.04-.97-1.94-.98h0Zm-43.97-45.92c1.2-.52,2.56-.39,3.95.61,1.21.87,2.46,2.41,3.62,4.75,1.42,2.84,1.4,5.66.53,8.16-1.05,3.04-3.33,5.6-5.78,7.12-.83.51-1.72.95-2.63,1.31-.91.35-1.85.62-2.8.79-3,.53-5.87.2-8.32-1.06-2.31-1.19-4.24-3.2-5.53-6.06-.64-1.43-.97-2.72-1.06-3.85-.11-1.34.1-2.44.51-3.29.41-.86,1.01-1.45,1.66-1.75.25-.11.5-.18.76-.2.58-.05,1.16,0,1.68.17.45.14.86.37,1.16.68.31.32.51.73.55,1.23.02.32-.02.7-.14,1.1-.17.54-.11,1.1.09,1.73.21.65.56,1.37.98,2.2.45.9,1.32,1.57,2.34,2,1.12.47,2.41.64,3.51.45.87-.15,1.76-.41,2.61-.77.79-.34,1.54-.77,2.2-1.29.84-.66,1.45-1.41,1.81-2.25.35-.84.45-1.77.25-2.81-.47-2.37-.71-2.59-1.98-3.74-.25-.22-.54-.48-.84-.77-.23-.21-.41-.47-.53-.75-.22-.49-.27-1.05-.18-1.6.09-.54.34-1.07.73-1.49.23-.25.53-.46.87-.61h0Zm3.75.89c-1.28-.93-2.53-1.05-3.62-.58-.3.13-.55.32-.76.54-.34.36-.56.83-.64,1.31-.08.48-.03.98.16,1.41.1.24.25.46.45.64.34.32.61.56.84.77,1.34,1.21,1.6,1.44,2.09,3.93.22,1.11.11,2.1-.27,3-.38.89-1.04,1.68-1.91,2.38-.68.54-1.46.99-2.27,1.34-.87.38-1.79.64-2.69.8-1.16.2-2.52.03-3.7-.47-1.09-.46-2.02-1.19-2.51-2.16-.42-.84-.79-1.58-1-2.25-.22-.69-.28-1.32-.09-1.93.11-.36.15-.69.13-.97-.04-.42-.2-.76-.46-1.02-.26-.27-.61-.47-1.02-.59-.47-.15-1.01-.19-1.55-.15-.21.02-.43.07-.65.17-.57.26-1.12.79-1.49,1.58-.38.8-.58,1.85-.48,3.12.09,1.09.41,2.34,1.03,3.73,1.26,2.79,3.13,4.75,5.38,5.9,2.38,1.22,5.18,1.55,8.11,1.03.93-.16,1.86-.43,2.74-.77.9-.34,1.76-.77,2.57-1.28,2.38-1.48,4.61-3.97,5.64-6.94.83-2.43.86-5.16-.51-7.9h0c-1.15-2.29-2.35-3.79-3.52-4.63h0Zm92.44,72.9c-.32-1.03-.18-1.8.34-2.41.51-.59,1.38-1.02,2.54-1.38l4.49-1.39-1.06-3.38-4.32,1.28c-1.01.3-1.88.31-2.56.03h0c-.69-.28-1.18-.84-1.45-1.7-.27-.84-.29-1.59,0-2.21.3-.62.91-1.11,1.93-1.42l4.77-1.47-1.14-3.57-4.48,1.24-.16.04h0c-1.11.28-2.06.25-2.8-.09-.75-.34-1.28-1-1.55-1.97h0s-.02-.09-.02-.09h0c-.2-.82-.05-1.55.41-2.17.46-.6,1.21-1.07,2.23-1.37l8.56-2.5c2.39-.7,3.15,1.84,3.74,3.84l.02.07,4.83,16.33h0v.02c.31,1.04-.16,2-1,2.79-.82.77-2,1.37-3.15,1.71h0l-5.07,1.5c-1.22.36-2.37.43-3.29.12-.85-.28-1.5-.88-1.81-1.85h0Zm.6-2.19c-.45.52-.56,1.18-.28,2.09.27.86.84,1.39,1.59,1.64.85.28,1.93.21,3.09-.12l5.07-1.5h0c1.11-.33,2.24-.91,3.01-1.63.75-.7,1.17-1.55.91-2.44h0s-4.84-16.36-4.84-16.36l-.02-.07c-.55-1.86-1.25-4.22-3.32-3.62l-8.55,2.5c-.95.28-1.65.71-2.06,1.25-.4.53-.53,1.17-.35,1.87l.02.09c.24.87.71,1.45,1.36,1.75.66.31,1.54.33,2.57.07l.16-.04h0s4.64-1.28,4.64-1.28l.16-.04.05.16,1.24,3.89.05.16-.16.05-4.93,1.52c-.91.28-1.47.7-1.72,1.24-.26.54-.23,1.21.01,1.97.23.75.66,1.24,1.25,1.48.61.25,1.4.23,2.34-.05l4.48-1.33.16-.05.05.16,1.17,3.71.05.16-.16.05-4.65,1.44c-1.1.34-1.91.73-2.38,1.27h0Zm-101.15-115.66c2.86,1.07,5.17,3.23,6.46,6,1.2,2.6,1.5,5.73.48,8.97-1,3.18-2.98,5.47-5.41,6.87-2.68,1.53-5.9,1.98-8.92,1.35-.77-.16-1.38-.3-1.97-.47-.6-.16-1.19-.36-1.93-.61-2.87-.99-5.19-3.17-6.49-5.97-1.23-2.65-1.55-5.86-.53-9.12.97-3.1,2.63-5.22,4.71-6.57,2.39-1.55,5.32-2.08,8.38-1.94,1.45.07,3.34.78,4.78,1.33l.45.17Zm6.14,6.14c-1.24-2.68-3.49-4.79-6.27-5.83l-.44-.17c-1.43-.54-3.29-1.24-4.68-1.3-2.99-.14-5.85.38-8.17,1.88-2.01,1.31-3.62,3.37-4.57,6.39-.99,3.17-.69,6.29.51,8.87,1.26,2.71,3.51,4.83,6.29,5.79.75.26,1.33.45,1.91.61.59.17,1.18.3,1.95.46,2.95.61,6.08.18,8.68-1.31,2.36-1.35,4.29-3.58,5.26-6.67.99-3.15.7-6.2-.47-8.73h0Zm-18.68,28.45l15.7-2.96c1.02-.19,2.01-.2,2.8.14.8.35,1.4,1.05,1.6,2.29.21,1.24-.09,2-.71,2.51-.6.5-1.5.73-2.52.91l-15.82,2.77.59,4.2h0s0,.04,0,.04h0c.07.69-.39,1.3-.98,1.76-.57.44-1.26.74-1.67.8h-.04s0,0,0,0c-.84.09-1.61-.1-2.22-.66-.54-.49-.93-1.27-1.13-2.4l-1.79-10.53c-.2-1.2-.17-2.18.18-2.9.35-.75,1.02-1.23,2.08-1.4,1.05-.18,1.86.04,2.45.6.58.55.94,1.44,1.12,2.65l.33,2.19Zm15.77-2.62l-15.87,2.99-.17.03-.03-.18-.36-2.36c-.17-1.13-.5-1.96-1.02-2.45-.51-.49-1.23-.66-2.16-.51-.94.16-1.53.57-1.83,1.21-.31.66-.34,1.57-.15,2.7l1.79,10.53c.18,1.05.54,1.76,1.02,2.2.53.49,1.22.65,1.96.57h.03c.36-.05.99-.32,1.5-.73.5-.39.91-.91.85-1.45v-.04s-.62-4.36-.62-4.36l-.02-.16.16-.03,15.99-2.8c.97-.17,1.82-.39,2.36-.83.52-.43.77-1.1.59-2.19-.18-1.1-.7-1.72-1.4-2.03-.71-.31-1.63-.3-2.6-.12h0Zm65.63-89.02c0-.98.36-1.84.98-2.46.61-.59,1.46-.94,2.5-.94s1.89.35,2.5.94c.63.61.98,1.47.98,2.46s-.36,1.84-.98,2.45c-.6.59-1.46.94-2.5.94s-1.89-.35-2.5-.94c-.62-.61-.98-1.47-.98-2.45h0Zm1.22-2.21c-.56.54-.87,1.32-.87,2.21s.31,1.66.87,2.21c.54.53,1.32.85,2.26.85s1.72-.32,2.26-.85c.56-.55.88-1.32.88-2.21s-.32-1.67-.88-2.21c-.54-.53-1.32-.85-2.26-.85s-1.72.32-2.26.85h0Zm-2.32,156.36c-.63.38-1,1.04-1.06,2.07-.05.94.22,1.68.76,2.19.58.53,1.46.84,2.61.91l3.98.25h.17s-.01.18-.01.18l-1.26,15.5h0c-.08.98.06,1.93.49,2.65.43.71,1.15,1.21,2.26,1.3h0c1.19.09,1.97-.23,2.47-.81.51-.59.74-1.45.82-2.43l1.49-18.04c.08-.97-.21-1.82-.8-2.45-.58-.62-1.46-1.03-2.59-1.12l-6.64-.59c-1.14-.1-2.07,0-2.71.38h0Zm89.09-79.69c-.56-3.12.26-5.82,1.8-7.98,1.86-2.62,4.78-4.43,7.55-5.19.95-.26,1.92-.43,2.89-.51.97-.08,1.95-.07,2.91.04,3.02.33,5.69,1.47,7.68,3.37,1.88,1.79,3.16,4.26,3.59,7.38.21,1.55.16,2.88-.07,3.99-.27,1.32-.79,2.32-1.42,3.02-.64.71-1.38,1.11-2.09,1.2-.27.04-.53.03-.78-.02-.57-.12-1.12-.34-1.56-.64-.4-.26-.72-.59-.92-.98-.21-.39-.28-.84-.18-1.33.07-.32.21-.67.45-1.02.31-.47.42-1.02.41-1.68-.01-.68-.15-1.47-.32-2.38-.18-.98-.82-1.88-1.67-2.58-.94-.77-2.13-1.29-3.24-1.42-.88-.11-1.81-.11-2.72,0-.85.11-1.7.3-2.47.62-.99.4-1.8.94-2.37,1.64-.58.7-.93,1.57-1.03,2.62-.22,2.41-.05,2.68.85,4.15.17.27.36.59.59.98h0c.16.27.25.56.29.87.07.53-.04,1.09-.28,1.58-.24.5-.63.94-1.12,1.23h0c-.3.17-.63.29-1,.34-1.3.16-2.57-.35-3.62-1.7-.92-1.18-1.67-3-2.13-5.59h0Zm2.07-7.78c-1.48,2.09-2.28,4.71-1.74,7.72h0c.45,2.52,1.18,4.3,2.07,5.44.97,1.25,2.13,1.72,3.31,1.57.32-.04.62-.15.88-.3.43-.26.77-.64.98-1.08.21-.44.31-.93.25-1.39-.04-.26-.12-.52-.25-.74-.21-.37-.41-.69-.58-.97-.95-1.54-1.12-1.84-.89-4.36.1-1.12.48-2.06,1.11-2.81.62-.75,1.47-1.32,2.51-1.74.8-.33,1.68-.53,2.56-.64.94-.11,1.89-.11,2.8,0,1.17.14,2.42.69,3.42,1.5.91.74,1.6,1.71,1.79,2.78.17.93.31,1.73.32,2.44.01.72-.11,1.34-.46,1.88-.21.32-.34.62-.4.9-.09.41-.02.78.15,1.11.17.33.46.62.81.86.41.28.92.48,1.44.58.21.05.44.05.67.02.62-.09,1.3-.44,1.88-1.09.59-.66,1.08-1.61,1.34-2.86.22-1.07.27-2.36.06-3.87-.41-3.04-1.66-5.44-3.49-7.18-1.94-1.85-4.54-2.95-7.49-3.28-.94-.1-1.89-.12-2.84-.04-.96.08-1.91.25-2.83.5-2.7.74-5.55,2.51-7.36,5.07h0Zm3.72,42.5c-2.87-.98-5.19-3.17-6.49-5.97-1.23-2.66-1.55-5.86-.53-9.12.97-3.11,2.63-5.23,4.71-6.57,2.39-1.55,5.32-2.09,8.38-1.94,1.45.07,3.34.78,4.78,1.33l.45.17c2.86,1.07,5.17,3.24,6.46,6,1.2,2.6,1.5,5.73.48,8.97-1,3.18-2.99,5.47-5.41,6.86-2.68,1.53-5.9,1.98-8.92,1.35-.77-.16-1.37-.3-1.97-.47-.6-.17-1.19-.36-1.93-.61h0Zm-6.18-6.11c1.26,2.71,3.51,4.84,6.29,5.79.75.25,1.33.44,1.91.61.59.16,1.18.3,1.95.46,2.95.62,6.08.18,8.68-1.31,2.36-1.35,4.29-3.57,5.26-6.67.99-3.16.7-6.2-.47-8.73-1.25-2.68-3.49-4.79-6.27-5.83l-.44-.16c-1.43-.54-3.29-1.24-4.68-1.31-2.99-.14-5.86.38-8.18,1.88-2.01,1.31-3.63,3.37-4.57,6.39-.99,3.17-.69,6.29.51,8.88h0Zm-63.77-99.83c-1.18-.29-2.02-.84-2.52-1.57-.51-.75-.65-1.68-.39-2.72l4.23-17.37v-.03c.26-1.02.82-1.78,1.61-2.22.78-.44,1.8-.55,2.97-.27h.04s5.73,1.44,5.73,1.44c3.42.85,5.86,2.61,7.31,4.83,1.57,2.41,1.99,5.36,1.25,8.3l-.82,3.27c-.73,2.95-2.49,5.42-5.02,6.85-2.31,1.31-5.26,1.75-8.66.9l-5.72-1.43Zm-2.23-1.76c.45.66,1.23,1.16,2.31,1.43l5.73,1.43c3.31.82,6.18.4,8.41-.86,2.45-1.38,4.14-3.78,4.86-6.64l.82-3.27c.71-2.85.31-5.7-1.21-8.03-1.4-2.15-3.77-3.86-7.1-4.69l-5.73-1.43h-.04c-1.09-.27-2.02-.17-2.73.22-.71.39-1.21,1.08-1.44,2v.03s-4.23,17.38-4.23,17.38c-.23.94-.11,1.78.34,2.45h0Z"/>
      <path class="cls-14" d="m147.78,286.42l-5.12-1.98.14,7.98.32.12,4.67-6.12Z"/>
      <path class="cls-14" d="m234.53,131.41l-3.47,4.14c2.07,2.26,4.44,3.19,5.85,1.45,1.67-2.07.14-3.62-2.38-5.59h0Z"/>
      <path class="cls-14" d="m191.12,111.11l-3.01,12.91,2.13.53c3.32.83,6.6-.98,7.17-3.26l.82-3.27c.57-2.29-.51-5.29-3.55-6.03l-3.56-.87Z"/>
      <path class="cls-8" d="m142.84,284.69l.13,7.61.09.04,4.45-5.84-4.67-1.81Zm-.21,7.73l-.14-7.98v-.25s.23.09.23.09l5.12,1.98.22.08-.14.18-4.66,6.11-.08.1-.12-.04-.32-.12-.11-.04v-.12Z"/>
      <path class="cls-8" d="m231.28,135.55c.34.36.69.69,1.03.97.79.63,1.58,1.05,2.3,1.17.7.12,1.36-.02,1.89-.51.09-.09.18-.18.27-.29.78-.97.82-1.82.36-2.65-.46-.83-1.4-1.67-2.58-2.6l-3.27,3.9Zm.82,1.24c-.4-.32-.79-.7-1.18-1.11l-.1-.11.1-.12,3.47-4.14.11-.12.13.1c1.27.99,2.3,1.89,2.8,2.8h0c.52.96.49,1.92-.4,3.02-.09.12-.2.23-.3.32-.62.57-1.37.74-2.17.6-.79-.14-1.63-.57-2.45-1.24h0Z"/>
      <path class="cls-8" d="m197.25,121.24l.82-3.27v-.02c.27-1.1.15-2.37-.41-3.46-.56-1.08-1.54-1.98-3-2.34h-.02s-3.39-.84-3.39-.84l-2.93,12.57,1.95.49h.01c1.62.41,3.23.17,4.5-.45,1.26-.61,2.19-1.59,2.46-2.69h0Zm1.14-3.18l-.82,3.27h0v.02c-.3,1.18-1.3,2.24-2.64,2.89-1.34.64-3.03.9-4.72.48h0s-2.13-.53-2.13-.53l-.16-.04.04-.16,3.01-12.91.04-.17.17.04,3.56.87h.02c1.56.39,2.62,1.36,3.21,2.52.59,1.16.73,2.52.44,3.7v.02Zm-1.14,3.18h0"/>
      <path class="cls-14" d="m214.41,280.91l1.68,2.92c1.18,2.04,4.04,3.45,6.74,1.88l3.16-1.85-6.8-11.37-1.9,1.09c-2.96,1.71-4.07,5.29-2.89,7.33h0Z"/>
      <path class="cls-8" d="m214.56,280.84l1.68,2.91h0s0,.01,0,.01c.57.98,1.54,1.81,2.7,2.2,1.15.39,2.49.36,3.78-.39h0s.02-.02.02-.02l3.02-1.76-6.63-11.08-1.75,1.01h0c-1.44.84-2.43,2.12-2.92,3.45-.48,1.32-.47,2.67.09,3.64v.02s.01,0,.01,0Zm1.38,3.07l-1.69-2.92h0c-.61-1.08-.63-2.53-.11-3.93.51-1.39,1.56-2.75,3.07-3.62h0s1.89-1.1,1.89-1.1l.15-.08.09.14,6.8,11.38.09.15-.15.09-3.16,1.85h-.02s0,.01,0,.01c-1.39.8-2.82.84-4.06.42-1.23-.42-2.27-1.31-2.88-2.35h0v-.02Z"/>
      <path class="cls-14" d="m255.93,228.36c1.43.66,2.72.91,4.17,1.24,2.88.67,6.09-1.8,6.7-3.73.6-1.93.16-4.79-2.82-6.4-1.25-.68-2.94-1.23-4.51-1.41-3.2-.36-5.68,1.78-6.29,3.71-.61,1.93-.46,5.12,2.75,6.59h0Z"/>
      <path class="cls-8" d="m256,228.21c1.24.57,2.39.83,3.62,1.11l.52.12c1.27.29,2.62-.05,3.76-.68,1.36-.75,2.42-1.92,2.74-2.93.32-1.03.34-2.34-.2-3.57-.44-.99-1.24-1.93-2.54-2.63-.63-.34-1.37-.65-2.16-.9-.75-.23-1.54-.41-2.29-.49-1.43-.16-2.7.19-3.73.79-1.21.71-2.07,1.79-2.38,2.81-.34,1.07-.43,2.53.12,3.85.41,1,1.2,1.91,2.54,2.53h0Zm3.55,1.44c-1.26-.28-2.42-.55-3.69-1.14-1.43-.66-2.26-1.64-2.71-2.71-.59-1.41-.48-2.96-.13-4.09.33-1.09,1.25-2.23,2.53-3,1.08-.64,2.43-1,3.93-.84.78.09,1.58.27,2.35.51.8.25,1.57.57,2.22.92,1.37.74,2.22,1.74,2.68,2.8.58,1.31.56,2.7.22,3.8-.34,1.09-1.46,2.33-2.9,3.13-1.21.68-2.64,1.04-4,.72l-.52-.12Z"/>
      <path class="cls-14" d="m86.17,199.57c2.88.67,6.09-1.8,6.7-3.73.6-1.93.16-4.79-2.82-6.4-1.25-.68-2.94-1.23-4.51-1.41-3.2-.36-5.68,1.78-6.29,3.71-.6,1.93-.46,5.12,2.75,6.59,1.43.66,2.72.91,4.17,1.24h0Z"/>
      <path class="cls-8" d="m89.97,189.58c-.63-.34-1.38-.65-2.16-.89-.75-.23-1.54-.41-2.29-.5-1.43-.16-2.7.19-3.73.79-1.21.71-2.07,1.79-2.38,2.8-.34,1.07-.43,2.54.12,3.86.41.99,1.2,1.91,2.54,2.52,1.24.57,2.39.83,3.62,1.11l.52.12c1.27.29,2.61-.05,3.76-.68,1.36-.76,2.42-1.92,2.74-2.93.32-1.03.34-2.34-.2-3.57-.43-.99-1.23-1.93-2.53-2.64h0Zm-2.06-1.22c.8.25,1.57.57,2.22.92,1.37.74,2.22,1.74,2.68,2.8.58,1.31.56,2.7.21,3.8-.34,1.09-1.47,2.33-2.9,3.13-1.21.67-2.64,1.03-4,.72l-.52-.12c-1.26-.29-2.42-.55-3.69-1.13-1.43-.66-2.27-1.64-2.71-2.71-.59-1.41-.49-2.96-.13-4.09.34-1.08,1.25-2.23,2.54-2.99,1.08-.64,2.43-1.01,3.93-.84.78.09,1.58.27,2.35.51h0Z"/>
      <path class="cls-14" d="m85.73,167.19l4.9,2.28c1.64-2.59,1.92-5.12-.13-6.02-2.43-1.08-3.53.81-4.77,3.75h0Z"/>
      <path class="cls-8" d="m90.57,169.25c.26-.42.49-.84.66-1.25.41-.92.61-1.79.54-2.52-.06-.71-.38-1.3-.98-1.69-.11-.07-.22-.13-.35-.18-1.15-.5-1.97-.32-2.65.33-.69.66-1.25,1.79-1.84,3.17l4.62,2.14Zm.98-1.12c-.21.47-.46.95-.77,1.43l-.08.13-.14-.06-4.9-2.28-.15-.07.06-.15c.63-1.49,1.23-2.71,1.98-3.43.78-.75,1.73-.97,3.02-.4.14.06.27.13.39.21.71.45,1.07,1.12,1.14,1.94.07.8-.13,1.72-.56,2.69h0Z"/>
      <path class="cls-14" d="m111.24,134.93l2.99,6.86,4.3-3.43-7.03-3.64-.26.22Z"/>
      <path class="cls-8" d="m111.45,134.98l2.85,6.53,3.91-3.12-6.69-3.47-.07.06Zm2.62,6.87l-2.99-6.86-.05-.11.1-.08.26-.22.09-.08.1.05,7.03,3.65.23.12-.2.16-4.3,3.43-.17.14-.09-.2Z"/>
      <path class="cls-2" d="m127.2,233.04c1.19.03.86-.15,1.68-.32,1.37-.28,5.14-.16,6.23.19,3.03.98,4.16-.03,5.92.6.65.23.84.48,1.71.38.06-.2.06-.4.09-.5l.31-.67c1.46,1.46.87,1.74,2.71,2.96,1.17.78,3.46,1.12,3.57-.87-.89-.9-1.49-.89-2.47-1.63-1.4-1.05-1.29-1.03-3.52-.84-.68-2.82-4.25-.86-6.66-1.7-1.95-.68-5.81-.45-7.96-.36-2.17.09-2.91.98-1.62,2.76h0Z"/>
      <path class="cls-2" d="m165.89,248.32c.45-.07.78.09,1.15.47,1.71,1.07,2.02,3.4,1.65,5.91l.42.84c.2.54.18.46.25,1.13.23,1.84,1.21,2.43.38,4.34-.43.99-.39,1.09-.31,2.36.54.27.92.6,1.72.57.82-1.36,1.45-3.15,1.3-5.08-.09-1.16-.56-1.09-.65-2.39-.09-1.38.11-1.87-.25-3.12l-.63-2.53c-.28-1.32-1.57-3.51-2.57-4.26-.44-.33-2.27-.67-2.44-.68l-.03,2.44Z"/>
      <path class="cls-2" d="m156.29,236.48l4.54,1.09c1.29.17,3.53.55,3.88,1.79,1.72.72.73,1.38,1.91,3.56,3.07.27,3.15-3.58-1.5-6.64-1.41-.93-3.69-1.03-5.01-1.37-1.41-.37-4.7-1.09-3.82,1.57h0Z"/>
      <path class="cls-2" d="m152.38,265.09c1.61-3.41.51-4.62-.34-7.17-.55-1.65-.14-2.63-.35-4.24-.14-1.01-1.16-1.91-1.7-2.66l-2.17.04.1,2.03c.9.4.51-.12,1.07.7,1.1,1.65.33,3,.75,4.59.29,1.09.83,1.49.97,2.66.12,1-.01,2.32.02,3.37.56.43.72.61,1.66.68h0Z"/>
      <path class="cls-2" d="m188.44,259.84c.81.54-.13,2.86-.29,3.11l-.78,2.75c-.52,1.12-1.16.24-.93,2.5,3.2.05,2.68-.86,3.92-4.06.94-2.42,1.3-4.42-.16-6.62h-1.31c-.36.66-.58,1.29-.46,2.33h0Z"/>
      <path class="cls-2" d="m134.41,248.52c.57-.06,2.28.96,2.37,1.58.46.27.44.33,1,.44.76-.49,1.28-1.03.93-1.9-.88-2.15-2.8-2.09-3.59-2.46-.92-.44-1.05-.87-2.34-.86-.66.78-.83.98-.79,2.24,2.04.51,2.14.21,2.43.96h0Z"/>
      <path class="cls-2" d="m157.95,264.71c.66.14.45.15.99.6,1.46,1.2,1.99-.1,1.98-1.49-.59-.57-2.28-2.29-2.91-2.59l-1.19.8c.26,1.2,1.09,1.31,1.12,2.68h0Z"/>
      <path class="cls-9" d="m163.71,263.05s.41.12.23-.56c-.05-1.16-.08-.22.14-.94.41-1.36.69-.68.63-2.65-1.21.37-.19-.18-.97.72-.29.34-.26.38-.85.51.19,2.34-.81,1.57-.82,3.09.72-.05.93.03,1.64-.17h0Z"/>
      <path class="cls-4" d="m137.44,238.31c-1.23.26-4.55.09-6.03.07-1.99-.01-.86.42-3.11.29h-.43c-.62.2-.5.69-.52,1.22.89.24.05.37,1.48.34l5.38-.16c1.23.03,2.27.04,3.46.29,1.35.29,2.04.26,2.91-.57-1.43-1.67-2.62-.14-3.13-1.49h0Z"/>
    </g>
  </g>
</svg>