<?xml version="1.0" encoding="UTF-8"?>
<svg id="Layer_2" data-name="Layer 2" xmlns="http://www.w3.org/2000/svg" viewBox="0 0 1104 1559.28">
  <defs>
    <style>
      .cls-1 {
        fill: #457aff;
      }

      .cls-1, .cls-2, .cls-3, .cls-4, .cls-5, .cls-6, .cls-7, .cls-8, .cls-9, .cls-10, .cls-11, .cls-12, .cls-13 {
        stroke-width: 0px;
      }

      .cls-2 {
        fill: #09000f;
      }

      .cls-3 {
        fill: #080808;
      }

      .cls-4 {
        fill: #d4261e;
      }

      .cls-5 {
        fill: #d0291a;
      }

      .cls-6 {
        fill: #936916;
      }

      .cls-7 {
        fill: #fffa06;
      }

      .cls-8 {
        fill: #fffd03;
      }

      .cls-9 {
        fill: #fffeff;
      }

      .cls-10 {
        fill: #fefefe;
      }

      .cls-11 {
        fill: #0032ff;
      }

      .cls-12 {
        fill: #049541;
      }

      .cls-13 {
        fill: #02000b;
      }
    </style>
  </defs>
  <g id="_Слой_1" data-name="Слой 1">
    <g>
      <path class="cls-3" d="m1099.43,367.79H12.74c-23.37,737.82,542.14,1191.5,542.14,1191.5,592.93-505.85,544.55-1191.5,544.55-1191.5Zm-544.76,1159.07S16.78,1070.66,42.59,387.96h1023.49s42.66,655.46-511.41,1138.9Z"/>
      <path class="cls-10" d="m1066.08,387.96H42.59c-25.81,682.7,512.08,1138.9,512.08,1138.9,554.06-483.45,511.41-1138.9,511.41-1138.9Zm-511.83,1104.5S55.14,1057.77,69.84,414.82h970.43s36.42,602.78-486.01,1077.64Z"/>
      <path class="cls-13" d="m599.9,1214.16c-1.85-2.4-3.66-4.8-5.52-7.12-10.95-14.06-21.73-27.33-32.26-39.83-15.07,16.84-27.5,31.24-36.04,41.27-2.32,2.69-4.34,5.05-6.06,7.07-2.23,2.69-4,4.76-5.14,6.19,23.16,48.85,39.29,125.86,46.49,164.98,15.07-80.3,42.19-147.63,47.62-160.64-3.03-4.04-6.06-8-9.1-11.92Zm0,0c-1.85-2.4-3.66-4.8-5.52-7.12-10.95-14.06-21.73-27.33-32.26-39.83-15.07,16.84-27.5,31.24-36.04,41.27-2.32,2.69-4.34,5.05-6.06,7.07-2.23,2.69-4,4.76-5.14,6.19,23.16,48.85,39.29,125.86,46.49,164.98,15.07-80.3,42.19-147.63,47.62-160.64-3.03-4.04-6.06-8-9.1-11.92Zm0,0c-1.85-2.4-3.66-4.8-5.52-7.12-10.95-14.06-21.73-27.33-32.26-39.83-15.07,16.84-27.5,31.24-36.04,41.27-2.32,2.69-4.34,5.05-6.06,7.07-2.23,2.69-4,4.76-5.14,6.19,23.16,48.85,39.29,125.86,46.49,164.98,15.07-80.3,42.19-147.63,47.62-160.64-3.03-4.04-6.06-8-9.1-11.92Zm0,0c-1.85-2.4-3.66-4.8-5.52-7.12-10.95-14.06-21.73-27.33-32.26-39.83-15.07,16.84-27.5,31.24-36.04,41.27-2.32,2.69-4.34,5.05-6.06,7.07-2.23,2.69-4,4.76-5.14,6.19,23.16,48.85,39.29,125.86,46.49,164.98,15.07-80.3,42.19-147.63,47.62-160.64-3.03-4.04-6.06-8-9.1-11.92Zm0,0c-1.85-2.4-3.66-4.8-5.52-7.12-10.95-14.06-21.73-27.33-32.26-39.83-15.07,16.84-27.5,31.24-36.04,41.27-2.32,2.69-4.34,5.05-6.06,7.07-2.23,2.69-4,4.76-5.14,6.19,23.16,48.85,39.29,125.86,46.49,164.98,15.07-80.3,42.19-147.63,47.62-160.64-3.03-4.04-6.06-8-9.1-11.92Zm0,0c-1.85-2.4-3.66-4.8-5.52-7.12-10.95-14.06-21.73-27.33-32.26-39.83-15.07,16.84-27.5,31.24-36.04,41.27-2.32,2.69-4.34,5.05-6.06,7.07-2.23,2.69-4,4.76-5.14,6.19,23.16,48.85,39.29,125.86,46.49,164.98,15.07-80.3,42.19-147.63,47.62-160.64-3.03-4.04-6.06-8-9.1-11.92Zm0,0c-1.85-2.4-3.66-4.8-5.52-7.12-10.95-14.06-21.73-27.33-32.26-39.83-15.07,16.84-27.5,31.24-36.04,41.27-2.32,2.69-4.34,5.05-6.06,7.07-2.23,2.69-4,4.76-5.14,6.19,23.16,48.85,39.29,125.86,46.49,164.98,15.07-80.3,42.19-147.63,47.62-160.64-3.03-4.04-6.06-8-9.1-11.92Zm0,0c-1.85-2.4-3.66-4.8-5.52-7.12-10.95-14.06-21.73-27.33-32.26-39.83-15.07,16.84-27.5,31.24-36.04,41.27-2.32,2.69-4.34,5.05-6.06,7.07-2.23,2.69-4,4.76-5.14,6.19,23.16,48.85,39.29,125.86,46.49,164.98,15.07-80.3,42.19-147.63,47.62-160.64-3.03-4.04-6.06-8-9.1-11.92Zm0,0c-1.85-2.4-3.66-4.8-5.52-7.12-10.95-14.06-21.73-27.33-32.26-39.83-15.07,16.84-27.5,31.24-36.04,41.27-2.32,2.69-4.34,5.05-6.06,7.07-2.23,2.69-4,4.76-5.14,6.19,23.16,48.85,39.29,125.86,46.49,164.98,15.07-80.3,42.19-147.63,47.62-160.64-3.03-4.04-6.06-8-9.1-11.92Zm0,0c-1.85-2.4-3.66-4.8-5.52-7.12-10.95-14.06-21.73-27.33-32.26-39.83-15.07,16.84-27.5,31.24-36.04,41.27-2.32,2.69-4.34,5.05-6.06,7.07-2.23,2.69-4,4.76-5.14,6.19,23.16,48.85,39.29,125.86,46.49,164.98,15.07-80.3,42.19-147.63,47.62-160.64-3.03-4.04-6.06-8-9.1-11.92Zm58.74-203.97c-2.44,1.47-4.97,2.82-7.5,4.13-1.6.8-3.2,1.6-4.84,2.36l-.04-.04-.08.08-.04.04h-.04c-8.46,4-17.18,7.41-25.52,10.32-.21.04-.34.08-.42.13h-.04c-10.95,3.75-21.14,6.53-29.01,8.46h-.04c-8.55,2.06-14.32,3.12-15.2,3.28l-4.93.88v-77.18c-4.34-.46-8.72-.67-13.14-.67-35.92,0-68.38,14.57-91.84,38.15,2.32,1.56,4.76,3.16,7.37,4.67,5.56,3.37,11.71,6.53,18.49,9.35,5.56,3.12,13.77,6.36,25.6,8.21,7.45,1.68,15.45,2.95,24,3.66,1.31.13,2.57.21,3.87.29,2.32.13,4.08,2.15,3.92,4.46-.04.46-.13.93-.29,1.31-.63,1.56-2.15,2.65-3.87,2.65h-.29c-30.15-1.94-53.9-10.32-72.13-20.59-.51-.29-.97-.59-1.47-.88h-.04c-1.31-.72-2.57-1.47-3.79-2.23-2.48-1.56-4.88-3.12-7.16-4.67-6.7,7.66-12.51,16.09-17.22,25.14,2.32,1.52,4.72,2.99,7.24,4.51,11.58,6.91,25.39,13.81,41.14,19.37.04.04.08.04.13.04,2.32.84,4.72,1.64,7.16,2.4,13.22,4.17,26.44,6.95,39.67,8.42,6.99.8,13.94,1.18,20.93,1.22h.21c22.4.08,44.72-3.66,66.95-11.29h.04c5.39-1.85,10.78-3.92,16.13-6.19.08,0,.17-.04.21-.08,5.6-2.4,11.2-5.01,16.76-7.96.04,0,.08-.04.13-.04,2.32-1.18,4.63-2.44,6.95-3.66,2.44-1.39,4.93-2.78,7.37-4.25-4.25-8.51-9.35-16.51-15.29-23.79Zm-79.29-46.45v65.94c6.53-1.39,18.91-4.25,33.05-8.88.04,0,.13,0,.17-.04,8.21-2.65,16.97-5.85,25.56-9.64,2.4-1.05,4.76-2.15,7.12-3.33,2.65-1.31,5.26-2.65,7.79-4.08-19.03-20.68-44.76-35.12-73.69-39.96Zm55.79,97.9c-.08,0-.17,0-.29.04-4,1.43-7.71,2.78-11.62,4.04-.08,0-.13.04-.17.04-22.82,7.03-44.3,9.81-63.92,9.81-24.09,0-45.48-4.17-63.42-9.85-1.39-.42-2.78-.88-4.13-1.35-.08-.04-.21-.08-.29-.13-3.96-1.31-7.83-2.74-11.54-4.21-4.38-1.73-8.55-3.58-12.59-5.43,3.62,3.37,7.41,6.95,11.29,10.7,17.05,16.34,36.51,36.13,57.52,59.29,2.53,2.74,5.01,5.52,7.5,8.34l.25.29c5.73,6.36,11.54,12.97,17.39,19.83.38.42.8.88,1.18,1.35,13.31-14.78,28.38-31.08,44.47-47.88,18.7-19.5,38.74-39.58,59.04-58.53-10.44,5.47-20.68,9.98-30.65,13.64Zm-106.07,69.73h-18.02c-3.75,44.89-47.03,34.4-47.03,34.4,7.54,12.38,34.95,30.65,34.95,30.65,17.48-.21,30.11-6.91,38.87-14.49v-.04c3.62-4.13,7.54-8.55,11.66-13.18v-.04c3.28-4.93,4.76-8.55,4.76-8.55l-25.18-28.76Zm-8.76,66.66c-2.74,0-4.97,1.26-4.97,2.82,0,1.35,1.6,2.44,3.79,2.74,1.35-1.56,2.74-3.2,4.25-4.97-.84-.38-1.89-.59-3.07-.59Zm-30.74-108.05c.25,13.73,4,14.53,4,14.53,12.38,19.37,26.36,18.57,26.36,18.57l-30.36-33.1Zm-12.63-12.89l-31.96-29.69c-5.43,13.69-8.38,28.59-8.38,44.13,0,24.59,7.37,47.54,20.04,66.66,18.82,6.36,46.49,9.01,48.21-29.22,0,0-21.77-18.28-27.92-51.88Zm122.96,137.06c-1.85-2.4-3.66-4.8-5.52-7.12-10.95-14.06-21.73-27.33-32.26-39.83-15.07,16.84-27.5,31.24-36.04,41.27-2.32,2.69-4.34,5.05-6.06,7.07-2.23,2.69-4,4.76-5.14,6.19,23.16,48.85,39.29,125.86,46.49,164.98,15.07-80.3,42.19-147.63,47.62-160.64-3.03-4.04-6.06-8-9.1-11.92Zm79.54-167.3c-2.27,2.06-4.51,4.13-6.78,6.27-7.33,6.82-14.65,13.81-21.9,20.89-2.19,2.15-4.38,4.29-6.57,6.48l-.51.51c-27.92,27.58-54.28,55.84-75.92,79.88,2.11,2.48,4.21,5.01,6.36,7.58,9.18,11.03,18.53,22.61,28.04,34.78.17.25.38.51.59.76,1.77,2.32,3.58,4.63,5.39,6.99,46.57-19.66,79.21-65.73,79.21-119.46,0-15.71-2.78-30.74-7.92-44.68Zm-79.54,167.3c-1.85-2.4-3.66-4.8-5.52-7.12-10.95-14.06-21.73-27.33-32.26-39.83-15.07,16.84-27.5,31.24-36.04,41.27-2.32,2.69-4.34,5.05-6.06,7.07-2.23,2.69-4,4.76-5.14,6.19,23.16,48.85,39.29,125.86,46.49,164.98,15.07-80.3,42.19-147.63,47.62-160.64-3.03-4.04-6.06-8-9.1-11.92Zm0,0c-1.85-2.4-3.66-4.8-5.52-7.12-10.95-14.06-21.73-27.33-32.26-39.83-15.07,16.84-27.5,31.24-36.04,41.27-2.32,2.69-4.34,5.05-6.06,7.07-2.23,2.69-4,4.76-5.14,6.19,23.16,48.85,39.29,125.86,46.49,164.98,15.07-80.3,42.19-147.63,47.62-160.64-3.03-4.04-6.06-8-9.1-11.92Zm0,0c-1.85-2.4-3.66-4.8-5.52-7.12-10.95-14.06-21.73-27.33-32.26-39.83-15.07,16.84-27.5,31.24-36.04,41.27-2.32,2.69-4.34,5.05-6.06,7.07-2.23,2.69-4,4.76-5.14,6.19,23.16,48.85,39.29,125.86,46.49,164.98,15.07-80.3,42.19-147.63,47.62-160.64-3.03-4.04-6.06-8-9.1-11.92Zm0,0c-1.85-2.4-3.66-4.8-5.52-7.12-10.95-14.06-21.73-27.33-32.26-39.83-15.07,16.84-27.5,31.24-36.04,41.27-2.32,2.69-4.34,5.05-6.06,7.07-2.23,2.69-4,4.76-5.14,6.19,23.16,48.85,39.29,125.86,46.49,164.98,15.07-80.3,42.19-147.63,47.62-160.64-3.03-4.04-6.06-8-9.1-11.92Zm0,0c-1.85-2.4-3.66-4.8-5.52-7.12-10.95-14.06-21.73-27.33-32.26-39.83-15.07,16.84-27.5,31.24-36.04,41.27-2.32,2.69-4.34,5.05-6.06,7.07-2.23,2.69-4,4.76-5.14,6.19,23.16,48.85,39.29,125.86,46.49,164.98,15.07-80.3,42.19-147.63,47.62-160.64-3.03-4.04-6.06-8-9.1-11.92Zm0,0c-1.85-2.4-3.66-4.8-5.52-7.12-10.95-14.06-21.73-27.33-32.26-39.83-15.07,16.84-27.5,31.24-36.04,41.27-2.32,2.69-4.34,5.05-6.06,7.07-2.23,2.69-4,4.76-5.14,6.19,23.16,48.85,39.29,125.86,46.49,164.98,15.07-80.3,42.19-147.63,47.62-160.64-3.03-4.04-6.06-8-9.1-11.92Zm0,0c-1.85-2.4-3.66-4.8-5.52-7.12-10.95-14.06-21.73-27.33-32.26-39.83-15.07,16.84-27.5,31.24-36.04,41.27-2.32,2.69-4.34,5.05-6.06,7.07-2.23,2.69-4,4.76-5.14,6.19,23.16,48.85,39.29,125.86,46.49,164.98,15.07-80.3,42.19-147.63,47.62-160.64-3.03-4.04-6.06-8-9.1-11.92Zm0,0c-1.85-2.4-3.66-4.8-5.52-7.12-10.95-14.06-21.73-27.33-32.26-39.83-15.07,16.84-27.5,31.24-36.04,41.27-2.32,2.69-4.34,5.05-6.06,7.07-2.23,2.69-4,4.76-5.14,6.19,23.16,48.85,39.29,125.86,46.49,164.98,15.07-80.3,42.19-147.63,47.62-160.64-3.03-4.04-6.06-8-9.1-11.92Zm0,0c-1.85-2.4-3.66-4.8-5.52-7.12-10.95-14.06-21.73-27.33-32.26-39.83-15.07,16.84-27.5,31.24-36.04,41.27-2.32,2.69-4.34,5.05-6.06,7.07-2.23,2.69-4,4.76-5.14,6.19,23.16,48.85,39.29,125.86,46.49,164.98,15.07-80.3,42.19-147.63,47.62-160.64-3.03-4.04-6.06-8-9.1-11.92Zm0,0c-1.85-2.4-3.66-4.8-5.52-7.12-10.95-14.06-21.73-27.33-32.26-39.83-15.07,16.84-27.5,31.24-36.04,41.27-2.32,2.69-4.34,5.05-6.06,7.07-2.23,2.69-4,4.76-5.14,6.19,23.16,48.85,39.29,125.86,46.49,164.98,15.07-80.3,42.19-147.63,47.62-160.64-3.03-4.04-6.06-8-9.1-11.92ZM98.05,555.59c1.31,10.78,2.74,21.52,4.34,32.13-1.56-10.61-2.99-21.35-4.34-32.13Z"/>
      <path class="cls-13" d="m854.57,518.24v-30.28h-30.32l-21.43-21.43-21.43,21.43h-30.32v30.28l-21.43,21.43,21.43,21.43v30.32h30.32l21.43,21.43,21.43-21.43h30.32v-30.32l21.43-21.43-21.43-21.43Zm-8.42,39.37v25.39h-25.39l-8.42,8.42-9.52,9.52-9.52-9.52-8.42-8.42h-25.39v-25.39l-8.42-8.42-9.52-9.52,9.52-9.52,8.42-8.42v-25.35h25.35l17.98-17.98,9.56,9.56,8.42,8.42h25.35v25.35l17.94,17.94-17.94,17.94Z"/>
      <path class="cls-13" d="m913.94,707.64c-5.01,16.76-5.01,42.61-5.01,42.61v66.49c-3.58,10.74-6.44,0-6.44,0v-35.29h-4.46l-1.09,38.87c-.08,5.81-1.47,9.43-3.07,11.71-1.6,2.32-4.34,3.54-7.12,3.54h-20.68c-2.11,0-3.33-2.36-2.15-4.08l8.46-12.21c16.13-17.77-5.39-33.69-5.39-33.69-13.85-13.43-25.01-3.24-29.1,1.68-2.69,3.2-5.9,5.9-9.56,7.79-12.46,6.36-21.18-.34-21.18-.34-19.33-13.64-38.32-8.42-38.32-8.42-11.33,2.69-5.22,30.28-5.22,30.28,7.54,21.85-21.31,18.82-21.31,18.82-10.61.76-4.88-5.18-.88-8.55,2.95-2.48,5.22-5.77,6.11-9.52,2.74-11.58-.76-28-.76-28-9.31-11.45-12.55,11.45-12.55,11.45-1.56,12.72-3.03,21.14-4.17,26.4-1.09,5.35-4.67,9.81-9.6,12.13-14.19,6.65-19.37-.34-19.37-.34,14.7-9.14,12.09-22.23,12.09-22.23v-34.23c-6.82.21-11.87-3.41-15.45-7.87-1.89-2.32-3.37-4.84-4.51-7.2-.04-.13-.13-.21-.17-.34-1.89-4.04-2.91-8.42-3.5-12.84-2.06-16.93-6.95-28.55-12.46-36.51-6.91-9.94-18.06-15.71-30.07-17.22-18.7-2.27-8.13-17.43-8.13-17.43l22.23-23.66c-6.44-11.66-4.46-18.65-4.46-18.65,0,0,9.31,17.05,12.17,10.95,2.86-6.11,17.22-13.81,17.22-13.81,0-6.06-11.83-21.48-11.83-21.48,7.87-3.58,21.48,18.27,21.48,18.27,15.62-2.86,28.51,23.12,28.51,23.12,10.65,23.75,33.64,33.52,52.72,37.48,14.23,2.95,28.93,2.95,43.29.67,19.54-3.03,37.73-7.66,46.74-10.15,6.48-1.77,13.18-2.65,19.88-2.11,13.52,1.05,20.97,6.78,24.89,11.66,2.78,3.45,3.5,8,2.23,12.25Z"/>
      <path class="cls-6" d="m504.86,1128.98c-1.73,38.23-29.39,35.58-48.21,29.22-12.67-19.12-20.04-42.07-20.04-66.66,0-15.54,2.95-30.44,8.38-44.13l31.96,29.69c6.15,33.6,27.92,51.88,27.92,51.88Z"/>
      <path class="cls-13" d="m594.38,1207.05c-11.54,3.71-23.83,5.68-36.59,5.68-10.99,0-21.6-1.47-31.71-4.25-2.32,2.69-4.34,5.05-6.06,7.07,11.96,3.62,24.63,5.6,37.77,5.6,14.74,0,28.93-2.48,42.11-6.99-1.85-2.4-3.66-4.8-5.52-7.12Zm-15.03-243.3v8.59c25.69,4.59,48.59,17.35,65.9,35.46,2.65-1.31,5.26-2.65,7.79-4.08-19.03-20.68-44.76-35.12-73.69-39.96Zm79.29,46.45c-2.44,1.47-4.97,2.82-7.5,4.13,6.02,7.33,11.2,15.33,15.41,23.92,2.44-1.39,4.93-2.78,7.37-4.25-4.25-8.51-9.35-16.51-15.29-23.79Zm-100.85-48.21c-35.92,0-68.38,14.57-91.84,38.15,2.32,1.56,4.76,3.16,7.37,4.67,21.81-21.31,51.62-34.4,84.47-34.4,4.42,0,8.84.25,13.14.72v-8.46c-4.34-.46-8.72-.67-13.14-.67Zm-97.65,44.38c-6.7,7.66-12.51,16.09-17.22,25.14,2.32,1.52,4.72,2.99,7.24,4.51,4.63-9.05,10.44-17.43,17.14-24.97-2.48-1.56-4.88-3.12-7.16-4.67Zm219.3,40.51c-2.27,2.06-4.51,4.13-6.78,6.27,4.08,12.09,6.27,24.97,6.27,38.4,0,50.95-31.58,94.66-76.17,112.47,1.77,2.32,3.58,4.63,5.39,6.99,46.57-19.66,79.21-65.73,79.21-119.46,0-15.71-2.78-30.74-7.92-44.68Z"/>
      <path class="cls-6" d="m472.6,1014.15v33.14l-21.22-11.16s10.32-19.58,19.71-22.86h.04c.51.29.97.59,1.47.88Z"/>
      <path class="cls-6" d="m533.54,1023.88c-6.02-.21-11.37-.76-16.13-1.52-11.83-1.85-20.04-5.1-25.6-8.21-7.37-4.13-10.02-8-10.02-8,14.86-28.13,58.57-29.01,58.57-29.01-14.15,17.73-6.82,46.74-6.82,46.74Z"/>
      <path class="cls-6" d="m538.25,1066.24c-13.22-1.47-26.44-4.25-39.67-8.42-2.44-.76-4.84-1.56-7.16-2.4-.04,0-.08,0-.13-.04-7.96-3.28-13.47-6.02-13.47-6.02-1.26-17.39,1.77-30.65,1.77-30.65,27.62,12.89,60.76,17.39,60.76,17.39-3.87,11.71-2.53,26.49-2.11,30.15Z"/>
      <path class="cls-6" d="m570.93,975.54v59.41c-2.57.34-13.35,1.31-22.02-2.86.17-.38.25-.84.29-1.31.17-2.32-1.6-4.34-3.92-4.46-1.31-.08-2.57-.17-3.87-.29-3.16-4.17-4.84-10.19-3.75-18.78,0,0,2.4-44.59,33.27-31.71Z"/>
      <path class="cls-6" d="m640.32,1008.84c-.59.8-1.31,1.56-2.19,2.27-8.59,3.79-17.35,6.99-25.56,9.64-.04.04-.13.04-.17.04-15.71,3.24-31.75,4.17-31.75,4.17v-47.84c38.44,7.24,59.67,31.71,59.67,31.71Z"/>
      <path class="cls-6" d="m663.73,1038.66s-1.47,1.35-4.13,3.24c-.04,0-.08.04-.13.04-5.56,2.95-11.16,5.56-16.76,7.96-.04.04-.13.08-.21.08-2.69.76-5.56,1.31-8.63,1.6,0,0-21.43-11.45-42.78-15.92,7.87-1.94,18.06-4.72,29.01-8.46h.04c.08-.04.21-.08.42-.13,10.95-3.03,21.35-6.65,25.52-10.32h.04l.04-.04.08-.08.04.04c.88.55,11.75,7.79,17.43,21.98Z"/>
      <path class="cls-6" d="m626.34,1056.17c-22.23,7.62-44.55,11.37-66.95,11.29h-.21c-3.92-.29-7.96-.76-12.09-1.39,0,0-5.94-13.98,0-24.97,0,0,49.06-7.12,79.25,15.07Z"/>
      <path class="cls-6" d="m557.79,1103.17s-5.85,20.97-21.81,21.43c-21.01-23.16-40.47-42.95-57.52-59.29.13-1.39.55-3.12,1.31-5.26,3.71,1.47,7.58,2.91,11.54,4.21.08.04.21.08.29.13,11.92,4.42,31.12,10.44,48.76,11.12,0,0,21.98,10.19,17.43,27.67Z"/>
      <path class="cls-6" d="m519.93,1123.08s-13.98.8-26.36-18.57c0,0-3.75-.8-4-14.53l30.36,33.1Z"/>
      <path class="cls-6" d="m643.56,1067.25l-33.06,33.77s-7.24-15.58-34.15-15.83c0,0-20.13,7.24-24.46-9.68,0,0,47.33,5.26,68.85-8.25,0,0,.88-.63,2.32-1.47.04,0,.08-.04.17-.04,3.92-1.26,7.62-2.61,11.62-4.04.13-.04.21-.04.29-.04,3.54-.08,6.74,1.26,8.42,5.6Z"/>
      <path class="cls-6" d="m655.39,1070.39l15.32-15.05s8.06,14.78,5.64,40.85c0,0-14.51-25.8-20.96-25.8Z"/>
      <path class="cls-6" d="m606.76,1106.54l-45.65,46.53c-5.85-6.86-11.66-13.47-17.39-19.83l-.25-.29-3.12-3.96c25.52-8.59,26.87-36.84,26.87-36.84,22.32-5.94,39.54,14.4,39.54,14.4Z"/>
      <path class="cls-6" d="m674.72,1113.95s-8.3,30.91-14.49,38.4c0,0-12.38-32.25-32.8-31.41,0,0-16.13.51-15.33-6.99l31.58-32.93.51-.51c2.19-2.19,4.38-4.34,6.57-6.48,2.15,2.02,24.25,22.78,23.96,39.92Z"/>
      <path class="cls-6" d="m554.25,1160.14s-1.47,3.62-4.76,8.55v.04c-4.13,4.63-8.04,9.05-11.66,13.18v.04c-8.76,7.58-21.39,14.27-38.87,14.49,0,0-27.41-18.28-34.95-30.65,0,0,43.29,10.48,47.03-34.4h18.02l25.18,28.76Z"/>
      <path class="cls-6" d="m530.41,1206.66s21.23-29.57,33.33-31.98l28.22,31.98s-35.77,10.53-61.55,0Z"/>
      <path class="cls-6" d="m655.4,1160.69c-18.99,26.7-47.41,40.04-53.23,42.57-9.52-12.17-18.86-23.75-28.04-34.78,22.44-10.53,39.08-42.74,39.08-42.74,37.1-6.99,42.19,34.95,42.19,34.95Z"/>
      <ellipse class="cls-6" cx="588.44" cy="1142.94" rx="24.26" ry="2.02" transform="translate(-659.43 834.07) rotate(-48.86)"/>
      <path class="cls-6" d="m523.39,1198.63c-1.52,1.77-2.91,3.41-4.25,4.97-2.19-.29-3.79-1.39-3.79-2.74,0-1.56,2.23-2.82,4.97-2.82,1.18,0,2.23.21,3.07.59Z"/>
      <path class="cls-11" d="m177.97,883.57c135.84,367.98,376.28,578.44,376.28,578.44,200.48-191.59,314.55-400.03,379.4-578.44H177.97Zm510.31,311.77c-1.98-1.22-2.57-3.79-1.35-5.77,55.16-88.97,35.54-156.01,28.47-173.99-11.87,9.68-23.92,20.25-35.96,31.29,5.14,13.94,7.92,28.97,7.92,44.68,0,53.73-32.63,99.8-79.21,119.46,2.99,3.92,6.02,7.87,9.05,11.92l1.47,1.98-1.01,2.23c-.34.88-37.39,86.7-52.09,185.32l-4.08,27.41-4.25-27.41c-.17-1.22-19.54-124.89-51.12-189.45l-1.22-2.44,1.73-2.11c.13-.17,1.81-2.23,4.84-5.85-29.22-11.16-53.35-32.59-68.01-59.92-9.77-18.19-15.29-39.03-15.29-61.14,0-17.85,3.62-34.87,10.15-50.32.13-.34.25-.63.42-.97-2.23-1.94-4.34-3.75-6.36-5.52-.08-.04-.13-.08-.17-.13-10.86-7.41-18.82-14.11-23.45-18.28-14.91,43.12-8.25,85.35,2.23,117.02v.04c1.01,3.07,2.06,6.06,3.16,8.93,10.06,26.87,21.9,44.13,22.15,44.55,1.31,1.89.84,4.51-1.05,5.85-1.89,1.35-4.55.84-5.85-1.05-.63-.88-62.7-91.42-26.28-184.39t.04-.08l1.94-4.97,4.3,3.12c.13.08.25.17.38.29,1.73,1.22,11.54,8.55,27.29,22.02,1.85,1.26,3.79,2.53,5.85,3.83,4.72-9.05,10.53-17.47,17.22-25.14-7.2-5.05-13.26-10.19-18.28-15.07-7.28-7.07-11.33-16.97-11.07-27.08.21-10.15,4.72-19.79,12.38-26.53,30.02-26.44,92.6-39.75,95.25-40.3,2.27-.46,4.51.97,4.97,3.24.51,2.27-.97,4.51-3.24,5.01-.63.13-63.08,13.39-91.42,38.36-5.98,5.26-9.35,12.51-9.56,20.38-.17,7.92,2.86,15.33,8.55,20.84,4.93,4.8,10.99,9.94,18.23,14.91,23.45-23.58,55.92-38.15,91.84-38.15,4.42,0,8.8.21,13.14.67v-65.44l4.25.08c54.45,1.01,91.71,28.63,109.1,45.01,11.62,10.95,13.64,28.47,4.8,41.65-6.95,10.4-17.94,19.08-30.44,26.23,5.94,7.28,11.03,15.29,15.29,23.79,13.56-8.04,27.03-17.52,40.47-28.42l3.96-3.2,2.36,4.46.04.04c1.68,3.16,40.51,78.83-26.65,187.13-1.22,1.98-3.83,2.57-5.81,1.35Z"/>
      <path class="cls-13" d="m549.2,1030.78c-.04.46-.13.93-.29,1.31-.63,1.56-2.15,2.65-3.87,2.65h-.29c-30.15-1.94-53.9-10.32-72.13-20.59-.51-.29-.97-.59-1.47-.88h-.04c-1.31-.72-2.57-1.47-3.79-2.23-2.48-1.56-4.88-3.12-7.16-4.67-7.2-5.05-13.26-10.19-18.28-15.07-7.28-7.07-11.33-16.97-11.07-27.08.21-10.15,4.72-19.79,12.38-26.53,30.02-26.44,92.6-39.75,95.25-40.3,2.27-.46,4.51.97,4.97,3.24.51,2.27-.97,4.51-3.24,5.01-.63.13-63.08,13.39-91.42,38.36-5.98,5.26-9.35,12.51-9.56,20.38-.17,7.92,2.86,15.33,8.55,20.84,4.93,4.8,10.99,9.94,18.23,14.91,2.32,1.56,4.76,3.16,7.37,4.67,5.56,3.37,11.71,6.53,18.49,9.35,5.56,3.12,13.77,6.36,25.6,8.21,7.45,1.68,15.45,2.95,24,3.66,1.31.13,2.57.21,3.87.29,2.32.13,4.08,2.15,3.92,4.46Z"/>
      <path class="cls-13" d="m684.28,942.31c-17.39-16.38-54.66-44-109.1-45.01l-4.25-.08v142.62l4.93-.88c.88-.17,6.65-1.22,15.2-3.28h.04c7.87-1.94,18.06-4.72,29.01-8.46h.04c.08-.04.21-.08.42-.13,8.34-2.91,17.05-6.32,25.52-10.32h.04l.04-.04.08-.08.04.04c1.64-.76,3.24-1.56,4.84-2.36,2.53-1.31,5.05-2.65,7.5-4.13,12.51-7.16,23.5-15.83,30.44-26.23,8.84-13.18,6.82-30.7-4.8-41.65Zm-2.19,36.97c-6.4,9.6-16.97,17.69-29.05,24.42-2.53,1.43-5.14,2.78-7.79,4.08-2.36,1.18-4.72,2.27-7.12,3.33-8.59,3.79-17.35,6.99-25.56,9.64-.04.04-.13.04-.17.04-14.15,4.63-26.53,7.5-33.05,8.88v-123.84c49.27,2.32,83.12,27.5,99.12,42.57,8.63,8.13,10.15,21.1,3.62,30.87Z"/>
      <path class="cls-13" d="m1040.27,414.82H69.84c-14.7,642.95,484.41,1077.64,484.41,1077.64,522.44-474.86,486.01-1077.64,486.01-1077.64ZM98.05,555.59c1.35,10.78,2.78,21.52,4.34,32.13-1.6-10.61-3.03-21.35-4.34-32.13Zm29.1,160.73c-1.09-4.51-2.15-9.01-3.16-13.56-.46-1.98-.88-4-1.31-5.98-.04-.17-.08-.38-.13-.55-17.56-80.09-26.11-164.9-29.85-255.85l34.44-.08,52.34-.13,48.72-.13,53.77-.17,54.11-.13,59.67-.17,50.36-.13,54.45-.13,44.47-.13v421.8H169.85c-16.13-45.9-30.57-94.15-42.7-144.68Zm427.1,745.7s-240.44-210.46-376.28-578.44h755.68c-64.85,178.41-178.92,386.85-379.4,578.44Zm416.45-694.91h-61.77v7.54h59.71c-7.75,27.71-16.67,56.59-26.99,86.36h-374.43v-86.36h130.49c-1.89-2.32-3.37-4.84-4.51-7.2-.04-.13-.13-.21-.17-.34h-125.82v-327.9h451.57s4.63,135.34-48.09,327.9Z"/>
      <path class="cls-13" d="m720.75,1006.87l-.04-.04-2.36-4.46-3.96,3.2c-13.43,10.91-26.91,20.38-40.47,28.42-2.44,1.47-4.93,2.86-7.37,4.25-2.32,1.22-4.63,2.48-6.95,3.66-.04,0-.08.04-.13.04-5.56,2.95-11.16,5.56-16.76,7.96-.04.04-.13.08-.21.08-5.35,2.27-10.74,4.34-16.13,6.19h-.04c-22.23,7.62-44.55,11.37-66.95,11.29h-.21c-6.99-.04-13.94-.42-20.93-1.22-13.22-1.47-26.44-4.25-39.67-8.42-2.44-.76-4.84-1.56-7.16-2.4-.04,0-.08,0-.13-.04-15.75-5.56-29.56-12.46-41.14-19.37-2.53-1.52-4.93-2.99-7.24-4.51-2.06-1.31-4-2.57-5.85-3.83-15.75-13.47-25.56-20.8-27.29-22.02-.13-.13-.25-.21-.38-.29l-4.3-3.12-1.94,4.97s-.04.04-.04.08c-36.42,92.98,25.64,183.51,26.28,184.39,1.31,1.89,3.96,2.4,5.85,1.05,1.89-1.35,2.36-3.96,1.05-5.85-.25-.42-12.09-17.69-22.15-44.55-1.09-2.86-2.15-5.85-3.16-8.93v-.04c-10.49-31.67-17.14-73.9-2.23-117.02,4.63,4.17,12.59,10.86,23.45,18.28.04.04.08.08.17.13,2.02,1.77,4.13,3.58,6.36,5.52,2.15,1.89,4.38,3.87,6.7,5.94,27.54,24.59,66.87,62.62,111.17,114.53-2.44,2.74-4.8,5.39-7.12,7.96v.04c-4.13,4.63-8.04,9.05-11.66,13.18v.04c-5.43,6.23-10.27,11.83-14.44,16.67-1.52,1.77-2.91,3.41-4.25,4.97-.59.76-1.22,1.47-1.81,2.15-2.27,2.69-4.25,4.97-5.85,6.86-3.03,3.62-4.72,5.68-4.84,5.85l-1.73,2.11,1.22,2.44c31.58,64.55,50.95,188.22,51.12,189.45l4.25,27.41,4.08-27.41c14.7-98.62,51.75-184.43,52.09-185.32l1.01-2.23-1.47-1.98c-3.03-4.04-6.06-8-9.05-11.92-1.81-2.36-3.62-4.67-5.39-6.99-.21-.25-.42-.51-.59-.76-9.52-12.17-18.86-23.75-28.04-34.78-2.15-2.57-4.25-5.1-6.36-7.58,21.64-24.04,48-52.3,75.92-79.88l.51-.51c2.19-2.19,4.38-4.34,6.57-6.48,7.24-7.07,14.57-14.06,21.9-20.89,2.27-2.15,4.51-4.21,6.78-6.27,12.04-11.03,24.09-21.6,35.96-31.29,7.07,17.98,26.7,85.02-28.47,173.99-1.22,1.98-.63,4.55,1.35,5.77,1.98,1.22,4.59.63,5.81-1.35,67.16-108.3,28.34-183.97,26.65-187.13Zm-126.37,200.18c1.85,2.32,3.66,4.72,5.52,7.12,3.03,3.92,6.06,7.87,9.1,11.92-5.43,13.01-32.55,80.34-47.62,160.64-7.2-39.12-23.33-116.13-46.49-164.98,1.14-1.43,2.91-3.5,5.14-6.19,1.73-2.02,3.75-4.38,6.06-7.07,8.55-10.02,20.97-24.42,36.04-41.27,10.53,12.51,21.31,25.77,32.26,39.83Zm12.38-100.51c-16.09,16.8-31.16,33.1-44.47,47.88-.38-.46-.8-.93-1.18-1.35-5.85-6.86-11.66-13.47-17.39-19.83l-.25-.29c-2.48-2.82-4.97-5.6-7.5-8.34-21.01-23.16-40.47-42.95-57.52-59.29-3.87-3.75-7.66-7.33-11.29-10.7,4.04,1.85,8.21,3.71,12.59,5.43,3.71,1.47,7.58,2.91,11.54,4.21.08.04.21.08.29.13,1.35.46,2.74.93,4.13,1.35,17.94,5.68,39.33,9.85,63.42,9.85,19.62,0,41.1-2.78,63.92-9.81.04,0,.08-.04.17-.04,3.92-1.26,7.62-2.61,11.62-4.04.13-.04.21-.04.29-.04,9.98-3.66,20.21-8.17,30.65-13.64-20.3,18.95-40.34,39.03-59.04,58.53Z"/>
      <path class="cls-13" d="m556.61,1160.73c-44.3-51.92-83.63-89.94-111.17-114.53-2.32-2.06-4.55-4.04-6.7-5.94-.17.34-.29.63-.42.97-6.53,15.45-10.15,32.47-10.15,50.32,0,22.11,5.52,42.95,15.29,61.14,14.65,27.33,38.78,48.76,68.01,59.92,1.6-1.89,3.58-4.17,5.85-6.86.59-.67,1.22-1.39,1.81-2.15-2.19-.29-3.79-1.39-3.79-2.74,0-1.56,2.23-2.82,4.97-2.82,1.18,0,2.23.21,3.07.59,4.17-4.84,9.01-10.44,14.44-16.67-8.76,7.58-21.39,14.27-38.87,14.49,0,0-27.41-18.28-34.95-30.65,0,0,43.29,10.48,47.03-34.4h18.02l25.18,28.76s-1.47,3.62-4.76,8.55c2.32-2.57,4.67-5.22,7.12-7.96Zm-99.97-2.53c-12.67-19.12-20.04-42.07-20.04-66.66,0-15.54,2.95-30.44,8.38-44.13l31.96,29.69c6.15,33.6,27.92,51.88,27.92,51.88-1.73,38.23-29.39,35.58-48.21,29.22Zm36.93-53.69s-3.75-.8-4-14.53l30.36,33.1s-13.98.8-26.36-18.57Z"/>
      <path class="cls-11" d="m682.09,979.28c-6.4,9.6-16.97,17.69-29.05,24.42-19.03-20.68-44.76-35.12-73.69-39.96v-57.9c49.27,2.32,83.12,27.5,99.12,42.57,8.63,8.13,10.15,21.1,3.62,30.87Z"/>
      <path class="cls-12" d="m968.64,774.64c-7.75,27.71-16.67,56.59-26.99,86.36h-374.43v-86.36h130.49c3.58,4.46,8.63,8.08,15.45,7.87v34.23s2.61,13.1-12.09,22.23c0,0,5.18,6.99,19.37.34,4.93-2.32,8.51-6.78,9.6-12.13,1.14-5.26,2.61-13.69,4.17-26.4,0,0,3.24-22.91,12.55-11.45,0,0,3.49,16.42.76,28-.88,3.75-3.16,7.03-6.11,9.52-4,3.37-9.73,9.31.88,8.55,0,0,28.84,3.03,21.31-18.82,0,0-6.11-27.58,5.22-30.28,0,0,18.99-5.22,38.32,8.42,0,0,8.72,6.7,21.18.34,3.66-1.89,6.86-4.59,9.56-7.79,4.08-4.93,15.24-15.12,29.1-1.68,0,0,21.52,15.92,5.39,33.69l-8.46,12.21c-1.18,1.73.04,4.08,2.15,4.08h20.68c2.78,0,5.52-1.22,7.12-3.54,1.6-2.27,2.99-5.9,3.07-11.71l1.09-38.87h4.46v35.29s2.86,10.74,6.44,0v-42.11h59.71Z"/>
      <path class="cls-1" d="m1018.79,439.2h-451.57v327.9h125.82c-1.89-4.04-2.91-8.42-3.5-12.84-2.06-16.93-6.95-28.55-12.46-36.51-6.91-9.94-18.06-15.71-30.07-17.22-18.7-2.27-8.13-17.43-8.13-17.43l22.23-23.66c-6.44-11.66-4.46-18.65-4.46-18.65,0,0,9.31,17.05,12.17,10.95,2.86-6.11,17.22-13.81,17.22-13.81,0-6.06-11.83-21.48-11.83-21.48,7.87-3.58,21.48,18.27,21.48,18.27,15.62-2.86,28.51,23.12,28.51,23.12,10.65,23.75,33.64,33.52,52.72,37.48,14.23,2.95,28.93,2.95,43.29.67,19.54-3.03,37.73-7.66,46.74-10.15,6.48-1.77,13.18-2.65,19.88-2.11,13.52,1.05,20.97,6.78,24.89,11.66,2.78,3.45,3.5,8,2.23,12.25-5.01,16.76-5.01,42.61-5.01,42.61v16.84h61.77c52.72-192.56,48.09-327.9,48.09-327.9Zm-164.22,121.9v30.32h-30.32l-21.43,21.43-21.43-21.43h-30.32v-30.32l-21.43-21.43,21.43-21.43v-30.28h30.32l21.43-21.43,21.43,21.43h30.32v30.28l21.43,21.43-21.43,21.43Z"/>
      <polygon class="cls-9" points="864.09 539.67 846.15 557.61 846.15 583 820.76 583 812.33 591.42 802.82 600.94 793.3 591.42 784.88 583 759.49 583 759.49 557.61 751.07 549.19 741.55 539.67 751.07 530.16 759.49 521.74 759.49 496.39 784.84 496.39 802.82 478.41 812.38 487.96 820.8 496.39 846.15 496.39 846.15 521.74 864.09 539.67"/>
      <polygon class="cls-7" points="545.03 439.2 545.03 861 500.56 861 500.56 439.33 545.03 439.2"/>
      <polygon class="cls-4" points="500.56 439.33 500.56 861 446.12 861 446.12 439.46 500.56 439.33"/>
      <polygon class="cls-7" points="446.12 439.46 446.12 861 395.76 861 395.76 439.58 446.12 439.46"/>
      <polygon class="cls-4" points="395.76 439.58 395.76 861 336.09 861 336.09 439.75 395.76 439.58"/>
      <polygon class="cls-7" points="336.09 439.75 336.09 861 281.98 861 281.98 439.88 336.09 439.75"/>
      <polygon class="cls-4" points="281.98 439.88 281.98 861 228.21 861 228.21 440.04 281.98 439.88"/>
      <polygon class="cls-7" points="228.21 440.04 228.21 861 179.49 861 179.49 440.17 228.21 440.04"/>
      <path class="cls-4" d="m179.49,440.17v420.83h-9.64c-16.13-45.9-30.57-94.15-42.7-144.68v-276.02l52.34-.13Z"/>
      <path class="cls-7" d="m127.15,440.3v276.02c-1.09-4.51-2.15-9.01-3.16-13.56-.46-1.98-.88-4-1.31-5.98-.04-.17-.08-.38-.13-.55-17.56-80.09-26.11-164.9-29.85-255.85l34.44-.08Z"/>
      <path class="cls-2" d="m127.16,338.51s600.98,33.33,854.35,0l33.69-45.87s59.85-26.88,63.79-78.84c0,0,36.91-18.99,12.9-58.06,0,0,30.66-34.96-5.58-58.07-6.69-4.26-14.29-6.9-22.13-8.12-18.62-2.89-53.05-2.07-59.01,41.46,0,0-49.81,10.03-31.54,68.09,0,0,18.28,48.38,59.13,18.99,0,0,.36,27.95-32.61,29.74,0,0-52.32,3.23-56.26-22.94,0,0-1.79-13.26,4.3-26.88l-36.55-15.05s-10.29,24.18-31.47,35.75c-10.07,5.5-22.1,6.95-32.64,2.42-8.74-3.76-18.14-12.01-20.83-29.92,0,0-3.58-25.8,4.66-45.51,0,0,20.79,26.52,49.1,6.45,0,0,31.07-27.08,14.91-64.97-4.23-9.91-11.65-18.31-21.43-22.84-3.21-1.49-6.58-2.55-9.61-2.5,0,0,.45-45.33-49.01-43.45,0,0-47.04-1.61-49.72,42.47,0,0-48.65,15.59-28.49,72.03,0,0,12.63,39.24,51.61,20.7,0,0,2.83,46.81-29.33,54.99-7.96,2.03-16.43.91-23.9-2.5-12.6-5.75-30.51-20.09-28.75-54.91h-41.12s3.11,33.48-25.84,43.69c-14.28,5.03-30.35,1.99-42.15-7.5-11.56-9.29-23.98-26.21-23.4-55.81,0,0,26.88,23.38,52.14-1.34,0,0,28.1-30.34,4.65-70.45-2.77-4.74-6.49-8.96-11.14-11.9-4.03-2.55-9.31-4.65-15.28-3.93,0,0,2.69-40.85-47.57-43.81,0,0-46.23-4.57-50.8,43.27,0,0-44.62,12.9-31.98,62.36,0,0,12.9,54.83,59.94,26.61,0,0,7.79,57.25-45.15,64.51,0,0-43.81,5.91-44.08-44.62h-40.05s-1.59,37.93-28.58,52.82c-9.42,5.2-20.58,5.67-30.2.85-12.09-6.05-26.79-20.61-25.07-55.55,0,0,31.89,22.22,52.32-3.58,0,0,13.17-12.35,11.18-42.8-.78-11.91-5.35-23.46-13.63-32.06-5.18-5.38-12.03-10-20.49-10.43,0,0,2.98-30.97-38.04-40.25-10.1-2.29-20.68-2.56-30.62.34-13.23,3.85-29.36,13.84-30.61,39.55,0,0-51.61,13.62-29.03,72.03,0,0,14.69,41.21,59.49,16.13,0,0,17.88,57.66-19.82,71.1-9.24,3.29-19.5,2.82-28.52-1.02-10.67-4.55-25.3-14.5-34.08-36.03l-35.84,11.83s14.34,43.02-17.9,46.7c-3.79.43-7.59.98-11.33,1.76-13.84,2.91-46.27,7.22-53.55-14.06,0,0,34.4,11.11,50.17-23.65,0,0,18.28-55.55-32.25-72.39,0,0-.78-36.06-38.54-42.18-15.48-2.51-31.56,1.43-44.06,10.9-13.77,10.44-25.72,28.54-3.77,55.3,0,0-26.52,38.35,19.35,61.28,0,0,8.96,52.68,65.58,73.82l30.1,45.87Z"/>
      <path class="cls-8" d="m116.76,297.29c2.15,0,54.11,11.11,83.86-46.95,0,0,68.81,44.08,112.89-16.13,0,0,48.38,40.81,97.83-5.62,9.35-8.78,23.67-10.14,34.53-3.32,2.32,1.46,4.79,3.23,7.4,5.36,0,0,41.89,27.18,83.99-8.78,5.35-4.57,12.23-6.99,19.27-6.99h0c5.62,0,11.1,1.98,15.29,5.73,12.97,11.61,47.59,34.43,96.87,5.35,6.77-3.99,14.89-5.44,22.44-3.28,5.93,1.7,12.77,5.22,19.09,12.27,0,0,37.63,37.63,87.08-1.08,0,0,35.12,62,110.38,15.41,0,0,32.61,55.55,84.58,47.3l-17.92,30.46s-359.62-77.77-838.49,0l-19.08-29.74Z"/>
      <path class="cls-8" d="m44.37,222.04l17.92-3.23s27.87,57.24,74.08,44.8c24.87-6.7,41.3-30.75,39.9-56.47-.08-1.55-.21-3.16-.38-4.81l16.84-6.45s31.89,56.62,82.42,30.46c0,0,31.18-13.98,18.64-73.11h16.13s1.92,52.68,36.73,64.89c10.34,3.63,21.85,2.68,31.71-2.1,12.96-6.28,30.67-21.01,36.56-55.27h19.71s3.94,49.81,62.71,43.72c0,0,46.23-1.43,48.02-67.73h18.99s1.79,66.66,61.28,69.88c0,0,40.85,6.09,50.89-44.44h18.64s8.24,64.86,68.81,55.19c0,0,34.76-12.18,35.84-64.51l17.56.36s-13.26,57.89,20.13,75.36c3.97,2.08,8.36,3.18,12.81,3.7,14.22,1.66,46.32.73,64.89-36.41l21.14,6.81s-13.62,50.49,41.57,62.69c0,0,43.72,11.85,72.03-47.28l15.77,4.3s-17.01,62.01-74.56,64.31c-17.03.68-33.9-4.44-47.98-14.06-12.98-8.87-27.26-23.15-27.26-43.08,0,0-72.03,69.88-113.96-12.18,0,0-65.22,64.15-116.11-23.65,0,0-59.85,82.78-130.8-8.6,0,0-53.4,87.08-130.45,9.32,0,0-43.72,83.5-116.11,21.86,0,0-30.46,77.77-113.6,13.62,0,0-16.48,67.11-78.12,56.85,0,0-49.81-5.24-72.39-64.73Z"/>
      <path class="cls-8" d="m19.2,152.25s-31.18-32.25,9.41-47.57c0,0,53.22-20.43,62.09,28.49,0,0-19.35,6.99-24.19,15.59,0,0-27.15-13.71-47.3,3.49Z"/>
      <path class="cls-2" d="m20.54,132.62s24.19-25,48.92-2.42c0,0-20.43-42.74-48.92,2.42Z"/>
      <path class="cls-8" d="m1084.17,149.5s31.18-32.25-9.41-47.57c0,0-53.22-20.43-62.09,28.49,0,0,19.35,6.99,24.19,15.59,0,0,27.15-13.71,47.3,3.49Z"/>
      <path class="cls-8" d="m71.79,153.59s25.71,26.61,0,56.71c0,0,18.59,25.31,41.6,4.09,7.62-7.03,12.38-16.71,13.69-27,1.8-14.19-.26-34.79-23.84-44.24-6.21-2.49-13.22-2.52-19.37.09-4.56,1.93-9.44,5.12-12.07,10.34Z"/>
      <path class="cls-2" d="m99.68,157.08s24.31,23.65,0,49.19c0,0,41.51-26.61,0-49.19Z"/>
      <circle class="cls-4" cx="43.98" cy="182.71" r="31.4"/>
      <circle class="cls-4" cx="299.44" cy="109.89" r="31.4"/>
      <path class="cls-2" d="m25.92,182.08s14.33-15.59,28.13-2.15c0,0,7.33-6.9-6.85-13.23-5.08-2.27-11.12-2.12-15.75.97-3.65,2.44-6.66,6.76-5.53,14.42Z"/>
      <path class="cls-2" d="m284.54,104.76s14.33-15.59,28.13-2.15c0,0,7.33-6.9-6.85-13.23-5.08-2.27-11.12-2.12-15.75.97-3.65,2.44-6.66,6.76-5.53,14.42Z"/>
      <circle class="cls-4" cx="555.84" cy="92.32" r="31.4"/>
      <path class="cls-2" d="m540.95,87.19s14.33-15.59,28.13-2.15c0,0,7.33-6.9-6.85-13.23-5.08-2.27-11.12-2.12-15.75.97-3.65,2.44-6.66,6.76-5.53,14.42Z"/>
      <circle class="cls-4" cx="816.13" cy="110.12" r="31.4"/>
      <path class="cls-2" d="m801.24,104.98s14.33-15.59,28.13-2.15c0,0,7.33-6.9-6.85-13.23-5.08-2.27-11.12-2.12-15.75.97-3.65,2.44-6.66,6.76-5.53,14.42Z"/>
      <circle class="cls-4" cx="1060.51" cy="180.89" r="31.4"/>
      <path class="cls-2" d="m1045.61,175.76s14.33-15.59,28.13-2.15c0,0,7.33-6.9-6.85-13.23-5.08-2.27-11.12-2.12-15.75.97-3.65,2.44-6.66,6.76-5.53,14.42Z"/>
      <path class="cls-8" d="m275.88,78.5s-34.58,31.01,0,61.83c0,0-15.81,20.59-36.22,3.32-7.57-6.41-12.42-15.52-14-25.31-2.04-12.61-1.2-31.24,16.35-44.12,5-3.67,11.02-5.95,17.22-5.78,5.8.15,12.61,2.25,16.64,10.06Z"/>
      <path class="cls-8" d="m325.23,78.5s34.58,31.01,0,61.83c0,0,15.81,20.59,36.22,3.32,7.57-6.41,12.42-15.52,14-25.31,2.04-12.61,1.2-31.24-16.35-44.12-5-3.67-11.02-5.95-17.22-5.78-5.8.15-12.61,2.25-16.64,10.06Z"/>
      <path class="cls-2" d="m250.38,82.09s-24.31,23.65,0,49.19c0,0-41.51-26.61,0-49.19Z"/>
      <path class="cls-8" d="m530.98,60.04s-34.58,31.01,0,61.83c0,0-15.81,20.59-36.22,3.32-7.57-6.41-12.42-15.52-14-25.31-2.04-12.61-1.2-31.24,16.35-44.12,5-3.67,11.02-5.95,17.22-5.78,5.8.15,12.61,2.25,16.64,10.06Z"/>
      <path class="cls-8" d="m580.71,60.04s34.58,31.01,0,61.83c0,0,15.81,20.59,36.22,3.32,7.57-6.41,12.42-15.52,14-25.31,2.04-12.61,1.2-31.24-16.35-44.12-5-3.67-11.02-5.95-17.22-5.78-5.8.15-12.61,2.25-16.64,10.06Z"/>
      <path class="cls-2" d="m350.73,82.09s24.31,23.65,0,49.19c0,0,41.51-26.61,0-49.19Z"/>
      <path class="cls-8" d="m790.41,78.5s-34.58,31.01,0,61.83c0,0-15.81,20.59-36.22,3.32-7.57-6.41-12.42-15.52-14-25.31-2.04-12.61-1.2-31.24,16.35-44.12,5-3.67,11.02-5.95,17.22-5.78,5.8.15,12.61,2.25,16.64,10.06Z"/>
      <path class="cls-8" d="m839.66,78.5s34.58,31.01,0,61.83c0,0,15.81,20.59,36.22,3.32,7.57-6.41,12.42-15.52,14-25.31,2.04-12.61,1.2-31.24-16.35-44.12-5-3.67-11.02-5.95-17.22-5.78-5.8.15-12.61,2.25-16.64,10.06Z"/>
      <path class="cls-2" d="m505.48,63.64s-24.31,23.65,0,49.19c0,0-41.51-26.61,0-49.19Z"/>
      <path class="cls-2" d="m606.21,63.64s24.31,23.65,0,49.19c0,0,41.51-26.61,0-49.19Z"/>
      <path class="cls-2" d="m764.91,82.1s-24.31,23.65,0,49.19c0,0-41.51-26.61,0-49.19Z"/>
      <path class="cls-8" d="m1030.91,148.17s-34.58,31.01,0,61.83c0,0-15.81,20.59-36.22,3.32-7.57-6.41-12.42-15.52-14-25.31-2.04-12.61-1.2-31.24,16.35-44.12,5-3.67,11.02-5.95,17.22-5.78,5.8.15,12.61,2.25,16.64,10.06Z"/>
      <path class="cls-2" d="m865.16,82.1s24.31,23.65,0,49.19c0,0,41.51-26.61,0-49.19Z"/>
      <path class="cls-8" d="m281.26,72.69s20.7-4.3,35.21,0c0,0,17.61-15.85,25.8-14.51,0,0-.95-21.28-28.09-28.53-13.46-3.6-28.01-2.27-39.65,5.39-7.33,4.83-14.3,12.59-16.66,25.02,0,0,19.89,4.84,23.38,12.63Z"/>
      <path class="cls-2" d="m1005.41,151.76s-24.31,23.65,0,49.19c0,0-41.51-26.61,0-49.19Z"/>
      <path class="cls-2" d="m322.79,52.63s-23.65-24.31-49.19,0c0,0,26.61-41.51,49.19,0Z"/>
      <path class="cls-8" d="m537.46,54.58s20.7-4.3,35.21,0c0,0,17.61-15.85,25.8-14.51,0,0-.95-21.28-28.09-28.53-13.46-3.6-28.01-2.27-39.65,5.39-7.33,4.83-14.3,12.59-16.66,25.02,0,0,19.89,4.84,23.38,12.63Z"/>
      <path class="cls-8" d="m796.08,72.69s20.7-4.3,35.21,0c0,0,17.61-15.85,25.8-14.51,0,0-.95-21.28-28.09-28.53-13.46-3.6-28.01-2.27-39.65,5.39-7.33,4.83-14.3,12.59-16.66,25.02,0,0,19.89,4.84,23.38,12.63Z"/>
      <path class="cls-2" d="m837.61,52.63s-23.65-24.31-49.19,0c0,0,26.61-41.51,49.19,0Z"/>
      <circle class="cls-2" cx="210.91" cy="285.81" r="24.92"/>
      <circle class="cls-4" cx="210.91" cy="285.81" r="18.61"/>
      <circle class="cls-2" cx="899.31" cy="285.81" r="24.92"/>
      <circle class="cls-4" cx="899.31" cy="285.81" r="18.61"/>
      <path class="cls-2" d="m578.99,34.52s-23.65-24.31-49.19,0c0,0,26.61-41.51,49.19,0Z"/>
      <circle class="cls-2" cx="432.18" cy="258.55" r="30.66"/>
      <circle class="cls-4" cx="432.18" cy="258.55" r="22.89"/>
      <circle class="cls-2" cx="679.64" cy="258.55" r="30.66"/>
      <circle class="cls-4" cx="679.64" cy="258.55" r="22.89"/>
      <polygon class="cls-2" points="324.98 296.22 279.11 279.02 318.68 250.87 366.37 267.2 324.98 296.22"/>
      <polygon class="cls-12" points="324.3 289.19 292.38 277.22 319.91 257.64 353.09 269 324.3 289.19"/>
      <polygon class="cls-2" points="788.17 296.22 834.04 279.02 794.47 250.87 746.78 267.2 788.17 296.22"/>
      <polygon class="cls-12" points="788.85 289.19 820.76 277.22 793.23 257.64 760.05 269 788.85 289.19"/>
      <polygon class="cls-2" points="554.51 283.68 504.07 255.79 554.51 227.9 610.51 255.79 554.51 283.68"/>
      <polygon class="cls-12" points="555.32 275.52 519.63 255.79 555.32 236.05 594.94 255.79 555.32 275.52"/>
      <ellipse class="cls-5" cx="556.21" cy="322.83" rx="320.92" ry="18.28"/>
      <path class="cls-2" d="m1082.82,129.88s-24.19-25-48.92-2.42c0,0,20.43-42.74,48.92,2.42Z"/>
    </g>
  </g>
</svg>