<?xml version="1.0" encoding="UTF-8"?>
<svg id="Layer_2" data-name="Layer 2" xmlns="http://www.w3.org/2000/svg" viewBox="0 0 278.84 350.83">
  <defs>
    <style>
      .cls-1, .cls-2, .cls-3, .cls-4, .cls-5, .cls-6, .cls-7, .cls-8, .cls-9, .cls-10, .cls-11, .cls-12, .cls-13, .cls-14, .cls-15, .cls-16, .cls-17, .cls-18, .cls-19, .cls-20, .cls-21, .cls-22, .cls-23, .cls-24, .cls-25, .cls-26, .cls-27, .cls-28, .cls-29, .cls-30, .cls-31, .cls-32, .cls-33, .cls-34, .cls-35, .cls-36, .cls-37, .cls-38, .cls-39, .cls-40, .cls-41, .cls-42, .cls-43, .cls-44, .cls-45, .cls-46, .cls-47, .cls-48, .cls-49, .cls-50, .cls-51, .cls-52, .cls-53, .cls-54, .cls-55, .cls-56, .cls-57, .cls-58, .cls-59, .cls-60, .cls-61, .cls-62, .cls-63, .cls-64, .cls-65, .cls-66, .cls-67, .cls-68, .cls-69, .cls-70, .cls-71, .cls-72, .cls-73, .cls-74, .cls-75, .cls-76, .cls-77, .cls-78, .cls-79, .cls-80, .cls-81, .cls-82, .cls-83, .cls-84, .cls-85, .cls-86, .cls-87, .cls-88, .cls-89, .cls-90, .cls-91, .cls-92, .cls-93, .cls-94, .cls-95, .cls-96, .cls-97, .cls-98, .cls-99, .cls-100, .cls-101, .cls-102, .cls-103, .cls-104, .cls-105, .cls-106, .cls-107, .cls-108, .cls-109, .cls-110, .cls-111, .cls-112, .cls-113, .cls-114, .cls-115, .cls-116, .cls-117, .cls-118, .cls-119, .cls-120, .cls-121, .cls-122, .cls-123, .cls-124, .cls-125, .cls-126, .cls-127, .cls-128, .cls-129, .cls-130, .cls-131, .cls-132, .cls-133, .cls-134, .cls-135, .cls-136, .cls-137, .cls-138, .cls-139, .cls-140, .cls-141, .cls-142, .cls-143, .cls-144, .cls-145, .cls-146, .cls-147, .cls-148, .cls-149, .cls-150, .cls-151, .cls-152, .cls-153, .cls-154, .cls-155, .cls-156, .cls-157, .cls-158, .cls-159, .cls-160, .cls-161, .cls-162, .cls-163, .cls-164, .cls-165, .cls-166, .cls-167, .cls-168, .cls-169, .cls-170, .cls-171, .cls-172, .cls-173, .cls-174, .cls-175, .cls-176, .cls-177, .cls-178, .cls-179, .cls-180, .cls-181, .cls-182, .cls-183, .cls-184, .cls-185, .cls-186, .cls-187, .cls-188, .cls-189, .cls-190, .cls-191, .cls-192, .cls-193, .cls-194, .cls-195, .cls-196, .cls-197, .cls-198, .cls-199, .cls-200, .cls-201, .cls-202, .cls-203, .cls-204, .cls-205, .cls-206, .cls-207, .cls-208, .cls-209, .cls-210, .cls-211, .cls-212 {
        stroke-width: 0px;
      }

      .cls-2 {
        fill: #f3f0ea;
      }

      .cls-3 {
        fill: #f8fb21;
      }

      .cls-4 {
        fill: #f8fb2a;
      }

      .cls-5 {
        fill: #f8fb08;
      }

      .cls-6 {
        fill: #f3f411;
      }

      .cls-7 {
        fill: #f3fb12;
      }

      .cls-8 {
        fill: #f3fa33;
      }

      .cls-9 {
        fill: #f3f71a;
      }

      .cls-10 {
        fill: #f7f90e;
      }

      .cls-11 {
        fill: #f7f91b;
      }

      .cls-12 {
        fill: #f7f70c;
      }

      .cls-13 {
        fill: #f7f716;
      }

      .cls-14 {
        fill: #f7f91d;
      }

      .cls-15 {
        fill: #f7f814;
      }

      .cls-16 {
        fill: #f7f812;
      }

      .cls-17 {
        fill: #f7f80f;
      }

      .cls-18 {
        fill: #f7f817;
      }

      .cls-19 {
        fill: #f2f412;
      }

      .cls-20 {
        fill: #f2f446;
      }

      .cls-21 {
        fill: #f2f828;
      }

      .cls-22 {
        fill: #f2f809;
      }

      .cls-23 {
        fill: #f7fb03;
      }

      .cls-24 {
        fill: #f7fb0b;
      }

      .cls-25 {
        fill: #f7f626;
      }

      .cls-26 {
        fill: #f6fb05;
      }

      .cls-27 {
        fill: #f6f710;
      }

      .cls-28 {
        fill: #f6f70f;
      }

      .cls-29 {
        fill: #f6f73d;
      }

      .cls-30 {
        fill: #f6f914;
      }

      .cls-31 {
        fill: #f6f61d;
      }

      .cls-32 {
        fill: #f9fd09;
      }

      .cls-33 {
        fill: #f9fb14;
      }

      .cls-34 {
        fill: #f2f20d;
      }

      .cls-35 {
        fill: #f9f90e;
      }

      .cls-36 {
        fill: #f9f91c;
      }

      .cls-37 {
        fill: #f9f91d;
      }

      .cls-38 {
        fill: #f9fb10;
      }

      .cls-39 {
        fill: #f9fb07;
      }

      .cls-40 {
        fill: #f9fb05;
      }

      .cls-41 {
        fill: #f9fb28;
      }

      .cls-42 {
        fill: #f9f817;
      }

      .cls-43 {
        fill: #f9f819;
      }

      .cls-44 {
        fill: #f9fa04;
      }

      .cls-45 {
        fill: #f6fc05;
      }

      .cls-46 {
        fill: #f8f840;
      }

      .cls-47 {
        fill: #f8fa0a;
      }

      .cls-48 {
        fill: #f8fa09;
      }

      .cls-49 {
        fill: #f8f910;
      }

      .cls-50 {
        fill: #f8f922;
      }

      .cls-51 {
        fill: #f8fa2a;
      }

      .cls-52 {
        fill: #f8f813;
      }

      .cls-53 {
        fill: #4b490a;
      }

      .cls-54 {
        fill: #837613;
      }

      .cls-55 {
        fill: #564905;
      }

      .cls-56 {
        fill: #353108;
      }

      .cls-57 {
        fill: #82810f;
      }

      .cls-58 {
        fill: #0a0906;
      }

      .cls-59 {
        fill: #0e0c0b;
      }

      .cls-60 {
        fill: #111009;
      }

      .cls-61 {
        fill: #110d07;
      }

      .cls-62 {
        fill: #100e09;
      }

      .cls-63 {
        fill: #090807;
      }

      .cls-64 {
        fill: #070704;
      }

      .cls-65 {
        fill: #070805;
      }

      .cls-66 {
        fill: #08030c;
      }

      .cls-67 {
        fill: #080805;
      }

      .cls-68 {
        fill: #080803;
      }

      .cls-69 {
        fill: #231e05;
      }

      .cls-70 {
        fill: #dfe713;
      }

      .cls-71 {
        fill: #c8cb17;
      }

      .cls-72 {
        fill: #dcdb26;
      }

      .cls-73 {
        fill: #dad50f;
      }

      .cls-74 {
        fill: #323515;
      }

      .cls-75 {
        fill: #322d06;
      }

      .cls-76 {
        fill: #969414;
      }

      .cls-77 {
        fill: #fdf911;
      }

      .cls-78 {
        fill: #fdf81b;
      }

      .cls-79 {
        fill: #fdfc09;
      }

      .cls-80 {
        fill: #fdfcfc;
      }

      .cls-81 {
        fill: #fdfe0c;
      }

      .cls-82 {
        fill: #fdfc10;
      }

      .cls-83 {
        fill: #fdfd04;
      }

      .cls-84 {
        fill: #fdfd0c;
      }

      .cls-85 {
        fill: #eced1f;
      }

      .cls-86 {
        fill: #ece62c;
      }

      .cls-87 {
        fill: #f1f212;
      }

      .cls-88 {
        fill: #f1f21b;
      }

      .cls-89 {
        fill: #f1f20b;
      }

      .cls-90 {
        fill: #f1f023;
      }

      .cls-91 {
        fill: #f1f11a;
      }

      .cls-92 {
        fill: #f1f43c;
      }

      .cls-93 {
        fill: #f1f417;
      }

      .cls-94 {
        fill: #f1fb10;
      }

      .cls-95 {
        fill: #f1ef54;
      }

      .cls-96 {
        fill: #f1f61e;
      }

      .cls-97 {
        fill: #edf90b;
      }

      .cls-98 {
        fill: #edf90f;
      }

      .cls-99 {
        fill: #edec23;
      }

      .cls-100 {
        fill: #e8ea35;
      }

      .cls-101 {
        fill: #e8ea26;
      }

      .cls-102 {
        fill: #f4f83f;
      }

      .cls-103 {
        fill: #e6f43b;
      }

      .cls-104 {
        fill: #e3e426;
      }

      .cls-105 {
        fill: #edef1a;
      }

      .cls-106 {
        fill: #e4e722;
      }

      .cls-107 {
        fill: #eff016;
      }

      .cls-108 {
        fill: #efef18;
      }

      .cls-109 {
        fill: #efee30;
      }

      .cls-110 {
        fill: #efef1d;
      }

      .cls-111 {
        fill: #e4e42d;
      }

      .cls-112 {
        fill: #fcfb2f;
      }

      .cls-113 {
        fill: #faf418;
      }

      .cls-114 {
        fill: #faf429;
      }

      .cls-115 {
        fill: #fafa07;
      }

      .cls-116 {
        fill: #e2e42c;
      }

      .cls-117 {
        fill: #e2ea22;
      }

      .cls-118 {
        fill: #fcf913;
      }

      .cls-119 {
        fill: #fcfd07;
      }

      .cls-120 {
        fill: #fcfb18;
      }

      .cls-121 {
        fill: #fcfb1d;
      }

      .cls-122 {
        fill: #fcfb15;
      }

      .cls-123 {
        fill: #fcfbfa;
      }

      .cls-124 {
        fill: #fcfc05;
      }

      .cls-125 {
        fill: #fcf930;
      }

      .cls-126 {
        fill: #fcf926;
      }

      .cls-127 {
        fill: #fcf927;
      }

      .cls-128 {
        fill: #fcf90c;
      }

      .cls-129 {
        fill: #fefe15;
      }

      .cls-130 {
        fill: #faf819;
      }

      .cls-131 {
        fill: #fbfa0b;
      }

      .cls-132 {
        fill: #fbfb05;
      }

      .cls-133 {
        fill: #fbfd06;
      }

      .cls-134 {
        fill: #fbfd09;
      }

      .cls-135 {
        fill: #fbfb09;
      }

      .cls-136 {
        fill: #faf831;
      }

      .cls-137 {
        fill: #faf913;
      }

      .cls-138 {
        fill: #faf915;
      }

      .cls-139 {
        fill: #faf919;
      }

      .cls-140 {
        fill: #fbf812;
      }

      .cls-141 {
        fill: #fbf712;
      }

      .cls-142 {
        fill: #fbfa16;
      }

      .cls-143 {
        fill: #fbfa14;
      }

      .cls-144 {
        fill: #fbfc0d;
      }

      .cls-145 {
        fill: #fbfb04;
      }

      .cls-146 {
        fill: #fbfb0f;
      }

      .cls-147 {
        fill: #fefefe;
      }

      .cls-148 {
        fill: #eaec32;
      }

      .cls-149 {
        fill: #eeec20;
      }

      .cls-150 {
        fill: #ebe92e;
      }

      .cls-151 {
        fill: #ebe91a;
      }

      .cls-152 {
        fill: #ebe82a;
      }

      .cls-153 {
        fill: #ebf017;
      }

      .cls-154 {
        fill: #ebee16;
      }

      .cls-155 {
        fill: #ebfc19;
      }

      .cls-156 {
        fill: #f0f43d;
      }

      .cls-157 {
        fill: #f0f51b;
      }

      .cls-158 {
        fill: #fafb0c;
      }

      .cls-159 {
        fill: #fafd01;
      }

      .cls-160 {
        fill: #fafc09;
      }

      .cls-161 {
        fill: #fafc07;
      }

      .cls-162 {
        fill: #fafc03;
      }

      .cls-163 {
        fill: #fafc0b;
      }

      .cls-164 {
        fill: #fafb1e;
      }

      .cls-165 {
        fill: #fafb07;
      }

      .cls-166 {
        fill: #fafc23;
      }

      .cls-167 {
        fill: #fafb05;
      }

      .cls-168 {
        fill: #fafb04;
      }

      .cls-169 {
        fill: #f5f621;
      }

      .cls-170 {
        fill: #f5f90c;
      }

      .cls-171 {
        fill: #f5f914;
      }

      .cls-172 {
        fill: #f5f532;
      }

      .cls-173 {
        fill: #f5f618;
      }

      .cls-174 {
        fill: #f5f610;
      }

      .cls-175 {
        fill: #f5fa0c;
      }

      .cls-176 {
        fill: #f5f324;
      }

      .cls-177 {
        fill: #e7ee15;
      }

      .cls-178 {
        fill: #e7ec24;
      }

      .cls-179 {
        fill: #e9f31b;
      }

      .cls-180 {
        fill: #e9ec13;
      }

      .cls-181 {
        fill: #e6e915;
      }

      .cls-182 {
        fill: #e6e61f;
      }

      .cls-183 {
        fill: #f4f70c;
      }

      .cls-184 {
        fill: #f4f40e;
      }

      .cls-185 {
        fill: #f4fa10;
      }

      .cls-186 {
        fill: #f4f730;
      }

      .cls-187 {
        fill: #f5f816;
      }

      .cls-188 {
        fill: #f5ed1f;
      }

      .cls-189 {
        fill: #f4f629;
      }

      .cls-190 {
        fill: #e9e72a;
      }

      .cls-191 {
        fill: #e9e920;
      }

      .cls-192 {
        fill: #f4f90b;
      }

      .cls-193 {
        fill: #f4f908;
      }

      .cls-194 {
        fill: #f4f30e;
      }

      .cls-195 {
        fill: #030210;
      }

      .cls-196 {
        fill: #040402;
      }

      .cls-197 {
        fill: #040113;
      }

      .cls-198 {
        fill: #04030f;
      }

      .cls-199 {
        fill: #04020b;
      }

      .cls-200 {
        fill: #010101;
      }

      .cls-201 {
        fill: #010100;
      }

      .cls-202 {
        fill: #060216;
      }

      .cls-203 {
        fill: #060319;
      }

      .cls-204 {
        fill: #050503;
      }

      .cls-205 {
        fill: #050117;
      }

      .cls-206 {
        fill: #05030c;
      }

      .cls-207 {
        fill: #05030b;
      }

      .cls-208 {
        fill: #020213;
      }

      .cls-209 {
        fill: #02010b;
      }

      .cls-210 {
        fill: #020303;
      }

      .cls-211 {
        fill: #020015;
      }

      .cls-212 {
        fill: #020007;
      }
    </style>
  </defs>
  <g id="Layer_1-2" data-name="Layer 1">
    <g>
      <path class="cls-1" d="m0,162.92c1-5.63,1.98-11.27,3-16.9,3.53-19.46,11.37-37.18,22.75-53.18,10.36-14.57,23.11-26.86,38.31-36.51,16.65-10.56,34.5-17.68,54.13-20.43,8.98-1.26,17.95-2.45,26.99-1.85,22.99,1.51,44.68,7.37,64.7,19.26,10.15,6.03,19.56,12.99,27.79,21.22,12.33,12.32,22.22,26.55,29.21,42.65,4.82,11.1,8.14,22.58,10.19,34.54.64,3.72-.5,7.77,1.77,11.21v20.99c-2.42,3.22-1.27,7.19-1.74,10.69-2.58,19-9.69,36.19-19.29,52.53-5.39,9.17-12.14,17.38-19.65,24.8-19.63,19.38-42.98,32.2-70.06,37.88-12.07,2.53-24.36,3.95-36.64,2.94-28.89-2.39-55.19-11.68-78.16-29.95-21.22-16.88-36.3-37.96-45.31-63.46-4-11.33-6.89-22.89-7-35,0-.71-.19-1.28-.99-1.43v-19.99Z"/>
      <path class="cls-204" d="m151.91,0c4.18,8.02,5.25,16.99,7.91,25.5-8.29,1.14-8.6.95-8.95-5.39-.93-1.37-2.2-.76-3.43-.67-1.65.12-3.36.14-2.99-2.38.26-.67.72-1.17,1.31-1.56,1.48-.71,3.18-1.29,2.5-3.51-.63-2.08-2.18-.56-3.29-.77-1.63-1.22-1.64-2.8-.99-4.51.15-.44.38-.85.68-1.2.94-.66,1.92-1.22,3.38-.76-.96-.48-1.65-.13-2.36.02-1.49.3-1.72,1.95-2.84,2.64-.69.22-1.34.2-1.85-.4C141.98,4.66,142.95,2.33,143.92,0c.33,0,.67,0,1,0,1.67,1.43,3.33,1.43,5,0h2Z"/>
      <path class="cls-68" d="m134.92,350.83c-2.14-4.86-.77-9.96-.89-14.93-.08-3.43-.91-5.59-4.57-5.94,1.67-1.73,3.53-1.19,5.4-.44.46.23.87.55,1.23.91,1.7,4.57-.4,9.35.66,15.02-.16-5.5.64-9.89.73-14.32.28-.42.67-.69,1.17-.79.51.01.95.2,1.34.53-.02,4.94-.07,9.88-.06,14.83,0,1.79.1,3.58-1,5.14h-4Z"/>
      <path class="cls-197" d="m149.91,0c-1.67,3.21-3.33,3.18-5,0h5Z"/>
      <path class="cls-200" d="m98.94,329.18c.03,8.92-4.44,13.99-12.03,13.65-4.33-.19-8.88-4.83-9.89-10.09-1.4-7.28,6.81-15.93,14.13-14.88,4.94.71,7.78,4.83,7.8,11.32Z"/>
      <path class="cls-200" d="m164.14,338.91c-.61-3.38-1.25-6.88-1.88-10.38-.34-1.9-1.32-4.24,1.75-4.6,2.13-.25,4.67-.92,4.98,2.92.36,4.42,1.63,8.77,2.12,13.19.59,5.31-2.89,9.01-8.65,9.7-5.38.65-8.69-1.93-9.54-7.41-.65-4.23-1.31-8.46-1.95-12.69-.42-2.76.53-4.47,3.54-4.78,3.23-.33,1.87,2.16,2.48,3.58,1.43,3.36.86,6.82.87,10.23,0,2.81.08,5.87,3.46,6.02,4.26.19,1.87-3.63,2.82-5.79Z"/>
      <path class="cls-200" d="m110.96,338.89c-.34,1.73-.89,3.44-.97,5.18-.1,2.18-.22,4.44-3.1,3.63-2.06-.57-4.7-.97-3.51-4.92,1.48-4.92,1.88-10.17,2.55-15.31.5-3.78,2.15-5.74,6.08-4.33,1.29.46,2.5.71,3.83.73,2.98.06,5.93,1.01,6.83,3.86.92,2.94.57,6.21-2.7,8.12-1.05.73-2.4,1.33-1.27,2.99.52,1.05-.3,2.6,1.21,3.28,1.04,6.21.83,6.51-4.09,5.75-1.73-1.07-.52-2.76-.87-4.12-1.3-1.65.91-6.17-3.99-4.87Z"/>
      <path class="cls-201" d="m220.45,329.84c-2.19.62-3.2-2.01-3.95-1.73-2.39.9-5.98.84-5.84,4.9.12,3.53-2.86,4.06-5.04,4.06-1.51,0-1.78-2.46-1.76-4.24.06-5.93.27-11.88-.97-17.73-.63-2.94,1.21-4.24,3.5-5.05,2.22-.79,2.69.95,3.93,2.4,3.68,4.31,8.08,8,11.98,12.14.88.93,2.96,1.85,2.1,3.44-.73,1.36-2.39,2.27-3.95,1.81Z"/>
      <path class="cls-65" d="m189.63,338.98c-.96-1.27-1.93-2.54-2.89-3.8-.78-2.05,1.24-2.75,1.96-4.07.24-4.05-2.05-7.46-2.79-11.27,5.4-2.9,5.58-2.95,6.91,2.6.85,3.53,4.32,6.3,2.99,10.42-.67.63-.78,1.4-.6,2.26.31-.52.03-1.35.84-1.61,3.03,5.48,2.71,6.31-3.17,8.17-1.34-.59-1.81-2.23-3.25-2.69Z"/>
      <path class="cls-67" d="m189.87,331.81c-.83,1.32-2.75,1.63-3.14,3.37-.62-.79-1.25-1.58-1.87-2.37-1.12-.63-1.87-.19-2.4.85-1.26,1.9-1.36,4.81-4.42,5.16-.41-4.67-1.72-9.14-2.85-13.66-.33-1.3-1.72-3.51.8-4.02,1.85-.37,4.22-1.39,5.79.84,2.07,2.92,4.04,5.9,6.05,8.86.87-.09,1.47.39,2.02.97Z"/>
      <path class="cls-206" d="m73.87,315.88c-1.78.19-2.67-1.26-3.9-2.09-.83-.79-1.84-.18-2.74-.37-.81-.26-1.23.15-1.45.9-.3.94-.52,1.88-.6,2.85-.12,1.02.05,1.93.88,2.63,2.17-.12,3.05,2.15,4.92,2.62,1.63.41,2.53,1.27,1.72,3.11-.89,2.01-2.1.18-3.14.32-1.78.24-2.24-1.72-3.61-2.16-.78-1.06-1.8-1.71-2.74-.43-.97,1.33-1.77,2.4-3.45,1.08-1.56-1.22-1.73-2.64-.55-4.23.5-.67.73-1.44.77-2.27.47-3.15,2.51-5.6,4.02-8.21,1.78-3.05,3.97-.39,5.94.37,1.75.92,3.72,1.33,5.42,2.41.96.61,1.44,1.41,1.13,2.47-.4,1.39-1.34,1.78-2.64,1Z"/>
      <path class="cls-64" d="m134.93,330.84c-1.7-1.04-3.56-1.13-5.47-.88-1.57-3.27-.39-4.39,3.04-4.16,2.95.19,5.93-.02,8.89.07,1.57.05,3.66-.9,3.62,2.33-.04,2.94-1.77,2.55-3.55,2.56-.49,0-.98.08-1.48.12-.35,0-.71-.02-1.06-.03-1.33-1.15-2.66-1.47-3.99,0Z"/>
      <path class="cls-198" d="m178.05,338.83c1.28-2,2.56-3.99,3.84-5.99,3.15,1.88,1.82,5.36,2.85,7.99.23,1.52.69,3.16-1.79,3.11l.05-.05c-2.02,2.19-3.23.77-4.04-1.08-.53-1.23-.62-2.65-.9-3.98Z"/>
      <path class="cls-58" d="m60,317.84c.83.59.92,1.35.29,2.09-.93,1.1-1.55,2.1-.3,3.42,1.87,1.95,1.8-.58,2.65-1.03,1.54-.81,2.89-.71,3.32,1.37-1.41-.79-2.01-.44-2.65,1.16-.65,1.6-2.08,2.88-3.16,4.3-1.36-1.21-2.53-2.68-4.31-3.35.95-2.88,2.19-5.61,4.16-7.96Z"/>
      <path class="cls-66" d="m55.84,325.8c3.69-1.79,4.06.71,4.31,3.35-.56,2.42-1.86,2.04-3.45.98-1.77-1.18-2.98-2.4-.86-4.32Z"/>
      <path class="cls-62" d="m73.87,315.88c2.46-.61,2.73-1.67.64-3.18-1.43-1.04-3.68-.7-4.55-2.69,2.53-.43,4.21,1.52,6.31,2.28,1.43.52,2.21,1.62,1.41,3.06-.94,1.7-2.27,2.37-3.82.53Z"/>
      <path class="cls-63" d="m115.82,347.88c4.94.63,4.08-2.87,4.09-5.75,2.03,1.62.57,4.26,1.84,6.23.71,1.11-.67,1.54-1.74,1.44-1.62-.15-3.12-.58-4.2-1.92Z"/>
      <path class="cls-74" d="m189.87,331.81c-.84.03-1.61-.1-2.02-.97.91-3.94-2.41-7.14-1.95-11,2.16,3.71,3.32,7.76,3.97,11.97Z"/>
      <path class="cls-60" d="m184.74,340.83c-1.73-2.39-.95-5.67-2.85-7.99.96-3.1,1.97-1.68,2.98-.03-2.25,2.64,1.22,5.37-.13,8.02Z"/>
      <path class="cls-63" d="m110.96,338.89c.13-.99.34-2.27,1.65-1.49,1.08.64,2.89.96,2.58,2.99-.17,1.11-.17,2.25-.24,3.37-1.57-1.43-.34-5.15-3.99-4.87Z"/>
      <path class="cls-62" d="m66.97,312.86c1.09,0,2.25-.18,3,.94-3.39.65-3.42,3.48-3.9,6.02-1.05-.28-1.71-.98-2.11-1.96.94-1.23,1.31-2.75,2.08-4.08.23-.39.53-.69.93-.91Z"/>
      <path class="cls-195" d="m196.05,333.51c.09,1.52.18,3.03.28,4.55-.33-1.73-4.29-3.22-.52-5.19.27.15.35.36.24.65Z"/>
      <path class="cls-59" d="m189.63,338.98c2.66-1.01,2.67,1.19,3.25,2.69-2.18.42-2.73-1.12-3.25-2.69Z"/>
      <path class="cls-63" d="m118.7,338.85c-.8-.16-1.69-.39-1.37-1.44.37-1.23,1.46-1.53,2.64-1.55-.54.95-1.7,1.63-1.27,2.99Z"/>
      <path class="cls-201" d="m197.73,35.85c-4.14-1.07-8.6-2.07-12.95-3.45-1.7-.54-2.11-2.05-1.52-4.07,1.77-6.08,3.15-12.28,4.85-18.38.58-2.07,1.34-3.7,4.44-2.42,6.38,2.64,13.57,3.57,16.91,11.08,3.19,7.17-3.48,17.53-11.73,17.24Z"/>
      <path class="cls-201" d="m222.34,21.07c5.77,2.32,10.75,5.91,15.74,9.46,1.09.78,3.69,1.64,2.26,3.68-1.61,2.29-3.16-.13-4.57-.86-1.88-.97-3.57-2.3-5.43-3.3-1.21-.64-2.49-1.27-3.5.68-.85,1.63-.55,2.73.78,3.63,1.76,1.2,3.64,2.24,5.43,3.4,1.51.98,2.72,2.72,1.75,4.08-.53.75-2.85,1.04-4.63.25-1.48-.66-2.17-2.04-3.44-2.71-1.76-.93-3.45-2.54-5.11.69-1.39,2.72-.75,4.02,1.74,4.8,2.63.83,4.66,2.34,6.43,4.38.86.99,1.27,1.79.23,2.97-.96,1.08-1.8,1.24-2.98.42-3.9-2.71-8.42-4.28-12.33-7.12-2.83-2.06-3.25-3.36-1.61-6.31,3.22-5.8,6.05-11.81,9.25-18.15Z"/>
      <path class="cls-200" d="m29.87,39.16q7.53-5.91,18.15,3.47c-1.63-4.1-.45-7.8-1.92-11.36-.97-2.35,3.31-7.45,5.83-7.27,1.57.11,1.81,1.52,1.96,2.88.65,5.84,1.4,11.66,2.02,17.5.34,3.19.22,5.98-3.26,7.99-3.63,2.09-4.91-.61-7.08-2.22-5.12-3.78-10.41-7.32-15.69-11Z"/>
      <path class="cls-200" d="m104.67,26.35c.55,3.14-.48,3.35-2.01,3.68-4.61,1.01-9.35,1.62-13.63,3.91-1.53.82-2.65.52-3.23-1.56-1.82-6.53-4.11-12.93-5.74-19.51-.79-3.21,2.39-3.2,4.5-4.01,2.48-.95,3.04-.07,3.5,2.25.68,3.46,2.05,6.77,2.83,10.21,1.5,6.58,1.69,6.63,8.61,5.07,1.67-.38,4.46-2.55,5.17-.06Z"/>
      <path class="cls-200" d="m115.41,26.98c-5.32,1.78-5.55-1.72-5.6-6.4-.05-4.37-1.21-8.72-1.86-13.08-.48-3.16.2-5.34,4.03-5.55,3.67-.2,3.69,2.27,3.98,4.74.48,4.09.84,8.2,1.58,12.25.48,2.65,1.11,5.12,5.22,3.35,1.91-.82,6.26-1.83,6.89.93,1.11,4.83-3.61,1.97-5.58,2.86-2.44,1.11-5.21.91-8.64.89Z"/>
      <path class="cls-200" d="m70.4,41.53c-2.63-6.95-5.47-13.81-7.74-20.92-1.5-4.68,2.59-3.1,3.92-4.44,1.51-1.51,2.76-.62,3.51,1.42,2.17,5.87,4.69,11.61,6.77,17.51,1.25,3.53.57,4.04-6.47,6.42Z"/>
      <path class="cls-196" d="m145.91,16.18c-.33.27-.67.55-1,.82-.65,1.02-.68,2.45-1.98,3.04-1.22,5.77-5.37,5.33-10.4,4.57,3.94-5.6,5.12-12.08,8.47-17.61.64,0,1.28,0,1.92,0,.66-.59,1.33-.59,1.99,0-.98,1.45-.01,2.82.16,4.22,1.07,1.52.62,3.3.84,4.96Z"/>
      <path class="cls-61" d="m142.94,20.04c.66-1.01,1.32-2.03,1.98-3.04.28,2.1,1.87,2.56,3.17,1.6,2.46-1.81,2.08.65,2.79,1.51-2.65-.02-5.29-.04-7.94-.06Z"/>
      <path class="cls-77" d="m65.92,287.99c-18.67-11.44-33.11-27.01-44.14-45.76-5.55-9.43-10.02-19.41-13.2-29.95-.45-1.48-.37-2.89-.67-4.31.17-.18.34-.36.51-.54.69-.36,1.42-.45,2.18-.36.5.09.95.29,1.36.58,2.77,5.13,3.74,10.93,6.14,16.21,1.44,3.17,2.86,6.34,4.62,9.36,2.98,6.14,6.52,11.93,10.76,17.29,1.04,2.79,2.89,5.02,4.96,7.1,5.42,6.54,11.11,12.8,18.11,17.71,2.91,3.84,8.07,5.35,10.28,9.92.13,1.06,0,2.04-.91,2.76Z"/>
      <path class="cls-77" d="m267.66,218.87c-4.01,14.1-11.66,26.25-20.15,38-3.46,4.78-8.21,8.32-11.59,13.11-1.87-1.78-1.05,1.4-2.09,1.13-1.05.18-1.78-.32-2.36-1.13-.3-.67-.33-1.36-.12-2.06.69-1.53,1.99-2.56,3.08-3.77,2.74-2.73,5.58-5.38,7.57-8.75,1.27-1.84,2.84-3.44,4.06-5.32,6.03-7.43,9.97-16.05,14.02-24.6,1.5-2.73,1.64-6.22,4.53-8.18,1.43-.28,2.55.06,3.06,1.57Z"/>
      <path class="cls-141" d="m49.89,70.89c7.07-6.89,15.3-12.21,23.94-16.8,4.88-2.59,9.57-5.8,15.15-6.95,1.39.24,3.1-.16,3.61,1.82.06.5.02.99-.12,1.47-.24.44-.5.91-.94,1.12-11.78,5.63-23.16,11.94-33.77,19.59-.8.58-1.79.83-2.79.96-1.57.15-3.12.18-4.55-.62-.18-.19-.35-.39-.52-.59Z"/>
      <path class="cls-131" d="m147.93,309.69c-19.28.82-38.08-1.4-56.08-8.79.57-1.66,1.9-2.27,3.48-2.53,4.76,1.24,9.68,1.99,14.06,4.43,1.57.92,3.31.71,5.01.72,3.18-.02,6.23.84,9.32,1.36,2,.73,4.08.64,6.16.63,1.79.03,3.59-.03,5.36.34,1.87.59,3.75.86,5.68.26.75-.12,1.49-.11,2.24.02,1.43.42,2.98.3,4.36.88,1.44.62,2.41,1.47.4,2.68Z"/>
      <path class="cls-28" d="m183,44.93c9.95,1.86,17.94,8.14,27,12-.82.96-2.43,1.15-2.64,2.71-.24.42-.58.7-1.03.86-7.88-2.72-14.99-7.12-22.67-10.28-1.49-1.57-3.59-1.92-5.48-2.69-.42-.3-.67-.7-.78-1.2-.01-.53.14-1,.45-1.43,1.73-1.38,3.44-.51,5.15.04Z"/>
      <path class="cls-48" d="m105.96,41.15c.96-.08,1.91-.15,2.87-.23,3.69-.68,7.5-.74,11.06-2.09,6.28-1.27,12.58-2.27,19.03-1.7,1.98,1.46,4.26.62,6.41.85,1.56.03,3.14-.12,4.65.45,1.36.24,2.8-.28,4.09.52-.21,2.34-2.25,2.42-3.81,3.09-8.65.74-17.32.08-25.97.39-2.96.31-5.76,1.56-8.77,1.58-2.45-.9-4.96.03-7.43-.17-1.31-.43-2.37-1.06-2.14-2.7Z"/>
      <path class="cls-27" d="m14.86,118.88c3.6-8.97,8.32-17.3,14.08-25.06.76.58,1.04,1.68,2.11,1.93.31.3.52.66.64,1.07-.27,3.9-3.43,6.53-4.41,10.12-.17.41-.38.79-.59,1.18-.41.78-.81,1.56-1.24,2.34-.67,1.23-1.66,2.12-2.88,2.79-1.97,1.15-2.37,3.44-3.65,5.08-1.13,1.45-2.36,3.06-4.07.55Z"/>
      <path class="cls-158" d="m273.67,152.93c1.51,8.06,2.52,16.13,2.28,24.38-.1,3.63-1.05,7.07-1.27,10.63-.87,1.6.21,3.5-.79,5.08,0,.32-.08.62-.21.91-.6,1.03-1.25,1.84-2.4.57-.42-.73-.62-1.52-.69-2.35-.16-2.77-.01-5.54-.17-8.31-.02-1.99.04-3.97.42-5.93,1.19-4.1.43-8.31.64-12.46,0-2.86.19-5.72-.17-8.58-.21-.74-.26-1.48-.15-2.24.17-.75.57-1.34,1.19-1.79.46-.23.9-.2,1.33.07Z"/>
      <path class="cls-187" d="m4.16,161.92c.19-2.71-1.23-5.58.78-8.12.62.68.67,1.43.51,1.79-.07-1.26.4-2.97-.3-4.65-.79-2.19,1.23-3.91.99-6,.84-.83,1.32-1.78,1.01-2.99-.85-1.9.9-3.28,1-5,1.1-.38,2.01.01,2.86.7.77.81,1.05,1.81,1.18,2.88-.3,5.58-1.63,10.98-2.94,16.38-1.15,1.58-.67,3.98-2.58,5.18-.35.05-.63-.04-.83-.25-.26-.27-.2-.67-.39-.97,0,.32-.05.63-.17.96-.37.31-.74.33-1.13.09Z"/>
      <path class="cls-49" d="m226.99,277.91c-5.91,5.01-12.03,9.72-19.08,13.07-.91-1.79.39-3.19.84-4.75.52-1.14,1.28-1.97,2.64-2.03,2.35.61,3.27-.79,3.8-2.72,1.9-2.04,3.75-4.16,6.42-5.28.48-.07.96-.07,1.45,0,1.39.39,2.93.42,3.93,1.7Z"/>
      <path class="cls-16" d="m258.9,108.83c3.64,4.06,4.49,9.45,6.79,14.15-.41,1.61.52,2.99.74,4.5-.38,2.29-1.75,1.81-3.2,1.14-2.29-1.78-2.76-4.45-3.43-7.02-.24-3.15-1.7-5.88-3-8.67-.19-.4-.29-.82-.32-1.26.34-1.34,1.19-2.26,2.41-2.85Z"/>
      <path class="cls-162" d="m4.99,161.91c.15-1.03-.37-2.19.79-3.39.1,1.33.18,2.38.25,3.43,1.25,1.18,1.26,2.73,1.33,4.27-.26,5.97.65,11.98-.58,17.92-.81,1.21-1.58,1.31-2.27-.1-.36-.79-.2-1.61-.05-2.43.08-.47-.06-.98.21-1.42-.51.45-.04,1.14-.39,1.64-.36.34-.74.35-1.13.08,0-5.01,0-10.02,0-15.02.51-1.7.43-3.6,1.83-4.98Z"/>
      <path class="cls-165" d="m79.97,295.7c-4.77-.97-8.49-3.79-12.13-6.78.37-1.27,1.37-1.71,2.53-1.97.45-.08.9-.11,1.35-.1.68.02,1.34.15,1.98.4.4.19.76.44,1.09.72,1.17,1.27,2.58,2.11,4.34,2.26,1.87,1.03,4.04,1.68,5.07,3.83.05.46-.09.85-.42,1.18-1.18.96-2.57.04-3.82.45Z"/>
      <path class="cls-184" d="m240.71,82.97c.42,1.71,2.49,1.59,3.25,2.92,0,1.34.66,2.31,1.74,3.04.74.96,1.47,1.93,2.21,2.89.76,2.08,4.9,4.59-.75,5.85-3.96-1.79-5.61-5.58-7.7-8.98.78-1.83-3.24-4.72,1.26-5.73Z"/>
      <path class="cls-163" d="m105.96,41.15c.66.61,1.33,1.22,1.99,1.83.39,1.64-.96,2.01-1.92,2.66-4.54,1.74-9.23,2.86-14.08,3.33-.99-.61-1.98-1.22-2.97-1.83,5.33-2.93,11.48-3.56,16.98-5.99Z"/>
      <path class="cls-174" d="m246.9,96.94c5.22-.74.05-3.53,1.01-5.11,3,3.43,5.68,7.09,7.78,11.15-.47,1.53-.42,3.31-2.1,4.24-3.98-2.29-6-5.85-6.69-10.28Z"/>
      <path class="cls-138" d="m204.71,292.83c-3.68,3.25-8.54,4.05-12.78,6.13-.95-.18-1.62-.76-2.13-1.55-.2-.41-.25-.85-.16-1.3,1.77-2.4,4.91-2.7,7.02-4.59,1.72-.21,3.31-1,5.06-1.1,1.38.32,2.55.91,2.99,2.4Z"/>
      <path class="cls-15" d="m159.01,38.94c1.85-.45,3.21,1.1,4.93,1.21,1.94.9,4.15-.27,6.07.79.32.31.63.61.95.92.33,2.44-1.38,2.55-3.03,2.51-2.09-.05-4.17-.08-6.22.39-2.74-.44-5.9.46-7.89-2.42.36-.99,1.25-1.36,2.03-1.93.3-.22,1.88,1.29,1.16-.83-.4-1.2,1.05-1.16,2.01-.65Z"/>
      <path class="cls-13" d="m226.91,69.86c1.86,2.85,6.69,2.73,7.07,7.07-.92.9-.28,2.34-1.16,3.26-3.29-.26-4.86-3.27-7.45-4.65-1.04-1.04-2.06-2.09-1.99-3.72.54-1.8,2.03-1.9,3.54-1.95Z"/>
      <path class="cls-5" d="m267.66,218.87c-.98-.34-1.95-.68-2.93-1.02-1.54-4,.65-7.24,2.16-10.62,1.22-1.08,2.17-.5,3.06.49.25.39.49.78.73,1.18.21,3.69-1.63,6.76-3.01,9.98Z"/>
      <path class="cls-34" d="m210.99,57.93c2.94,1.57,5.58,3.55,7.94,5.92.78,1.1.47,1.97-.58,2.68-.74.34-1.51.44-2.31.36-2.39-.48-4.29-1.73-5.74-3.67-.82-1.36-1.45-2.77-1.05-4.42.36-.74.79-1.34,1.75-.87Z"/>
      <path class="cls-93" d="m31.92,89.84c1.59-1.42,1.91-3.85,3.94-4.92,1.61-.99,2.94-.45,4.16.74-1.83,4.41-3.17,9.24-8.71,10.61-.13-.1-.26-.22-.38-.33-.51-2.17,1.44-3.93.99-6.09Z"/>
      <path class="cls-107" d="m161.9,43.8c1.86-1.45,4.02-.93,6-.61,1.51.24,2.49.15,3.06-1.34,2.31.68,4.96-.94,7.07,1.07-1.9.94-1.35,1.98-.13,3.05-.05.38-.1.76-.15,1.13-5.89,1.77-10.82-1.03-15.85-3.31Z"/>
      <path class="cls-99" d="m14.86,118.88c2.18,1.28,2.76-.35,3.62-1.84,1.03-1.8,1.28-4.19,3.63-5.05,1.08,1.71.13,3.21-.57,4.68-1.73,3.59-3.12,7.32-4.63,11-.59,1.42-.7,3.41-2.99,3.4-1.19-1.23-1.13-2.71-.87-4.23,1.01-2.18,1.58-4.44,1.11-6.86-.22-.66.14-.94.71-1.1Z"/>
      <path class="cls-33" d="m268.89,131.83c1.6,2.08,1.98,4.51,2.03,7.04-.15.09-.3.19-.45.29-1.48,1.73.63,4.57-1.84,6-3.41-2.5-2.95-6.41-3.63-9.91.07-.47.23-.91.45-1.33.98-.96,2.15-1.63,3.44-2.09Z"/>
      <path class="cls-87" d="m13.99,125.96c-.01,1.64-.02,3.27-.03,4.91,1.63,3.89.49,6.94-2.83,9.32-.14-.87-.25-1.76-1.13-2.27-1.05-1.99.03-4.03-.15-6.04.42-1-.49-2.47,1.08-3.06,1.84-.08.7-3.34,3.06-2.87Z"/>
      <path class="cls-10" d="m253.82,107.03c-.03-1.65.14-3.21,1.87-4.05.81,2.09,2.93,3.47,3.22,5.85.13,1.62-1.44,2.11-2.12,3.19-3.04-.44-3.95-2.15-2.96-4.99Z"/>
      <path class="cls-38" d="m175.9,304.69c-3.58.97-7.06,2.44-10.88,2.21-1.22.54-2.41.92-3.33-.52.08-1.17,1-1.69,1.78-2.3,1.44-1,3.06-1.39,4.79-1.39,2.51.8,5.28-.98,7.7.77.23.42.22.83-.06,1.22Z"/>
      <path class="cls-11" d="m11.02,207.9c-.35,0-.69,0-1.04,0-.33-.35-.62-.73-.8-1.18-.25-.64-.16-1.38-.52-2-.11.62.32,1.21.12,1.84-.14.46-.38.88-.68,1.25,0,0-.19.16-.19.16-1.21-2.2-1.84-4.54-1.75-7.06,1.67-2.43-.89-6.08,2.31-8.08,2.72,4.71,4.14,9.64,2.55,15.08Z"/>
      <path class="cls-6" d="m217.88,65.97c.86-.46.99-1.28,1.05-2.13,2.49,2.24,5.81,3.36,7.99,6.02-1.01.69-2.03,1.39-3.04,2.08-.37.33-.79.38-1.24.18-1.36-2.22-4.47-3.1-4.76-6.15Z"/>
      <path class="cls-193" d="m94.95,299.03c-1.03.62-2.06,1.24-3.09,1.86-2.4-.78-5.04-1.02-6.95-2.95-.23-2.04,1.4-1.89,2.62-2.24,1.61-.11,3.12.26,4.58.92,1.13.58,2.31,1.11,2.84,2.41Z"/>
      <path class="cls-93" d="m37.85,82.92c1.66-1.67,3.33-3.34,4.99-5.01,4.17-.66,2.52,2.04,2.28,3.94-.75,1.71-1.75,3.16-3.79,3.45-1.33-.53-2.63-1.12-3.48-2.38Z"/>
      <path class="cls-88" d="m43.96,81.79c-.24-1.33,2.32-3.47-1.12-3.88.67-.67,1.34-1.34,2.01-2.01.61-.93,2.17,1.82,2.53-.73.15-1.05,1.42-1.74,2.63-1.96.75-.07,1.44.1,2.03.58-.98,4.4-3.45,7.29-8.09,8Z"/>
      <path class="cls-146" d="m147.93,309.69c.4-1,.58-1.82-.97-1.86-1.38-.04-2.89.41-4.04-.81,1.44-1.93,3.75-1.2,5.61-1.84.76-.13,1.51-.1,2.25.11.47.17.91.4,1.33.66,2.14,1.22,5.02-.2,6.91,1.93-3.51,1.72-7.47.68-11.08,1.8Z"/>
      <path class="cls-22" d="m232.84,80.07c.38-1.05-1.57-2.94,1.14-3.15,1.65,1.31,3.29,2.62,4.94,3.93q-.03,2.63-4.26,1.71c-1.16-.42-2.13-1-1.81-2.49Z"/>
      <path class="cls-77" d="m226.99,277.91c-1.4-.2-3.01.44-4.11-1.02.56-2.41,2.59-3.72,4.12-5.39,1.15-1.25,2.31-.99,3.2.44.27,1.57-.69,2.74-1.28,4.03l-1.93,1.93Z"/>
      <path class="cls-161" d="m13.99,125.96c-1.13.7-.81,1.88-1.04,2.92-.69,3.15-1.36.65-2.02-.05,1.07-2.95,2.14-5.89,3.21-8.84,1.29,2.03,2.18,4.04-.16,5.97Z"/>
      <path class="cls-124" d="m187.87,300.68c-2.13,1.22-4.37,2.12-6.86,2.23-1.72.15-3.33.16-3.19-2.29,1.39-1.6,3.28-1.91,5.24-2.06,1.8.26,4.07-.54,4.81,2.12Z"/>
      <path class="cls-160" d="m8.02,192.87c-.85,2.62,1.81,6.06-1.86,8.03-.06-1.73-1.84-3.11-1-5.02.78-1.39.08-2.85.21-4.28.15-.41.42-.72.8-.94,1.04.02,1.48.72,1.8,1.56.01.21.03.43.04.64Z"/>
      <path class="cls-13" d="m234.8,81.97c.85-.04,1.53-1.45,2.53-.27,1.81,2.14,1.19-.32,1.58-.85.86.49,1.78.92,1.8,2.12-3.49,1.18,1.55,3.68-.77,5.04-3.56-.44-4.69-2.95-5.14-6.04Z"/>
      <path class="cls-164" d="m177.9,45.98c-1.53.01-3.36-.14-3.13-2.07.21-1.7,2.15-.61,3.25-.99,1.94-.03,3.64.52,4.98,2-1.71.32-3.68-.64-5.1,1.05Z"/>
      <path class="cls-142" d="m177.9,301.03c1.03.63,2.07,1.26,3.1,1.88-.39,1.15-1.25.98-2.13.78-1.02-.45-1.97.3-2.98.16-2.37-.01-4.73-.03-7.1-.04,2.24-3.52,5.55-3.56,9.11-2.78Z"/>
      <path class="cls-120" d="m159.01,38.94c-.9,2.43-3.21,2.58-5.22,3.21-.07-.18-.14-.36-.22-.54-.12-.9,1.23-1.62.33-2.62-1.33,0-2.66,0-3.99,0-.25-.26-.33-.51-.23-.75.09-.24.18-.37.26-.37,2.98.74,6.25-.99,9.06,1.08Z"/>
      <path class="cls-12" d="m31.92,89.84c1.84,2.38.52,4.25-.99,6.09-2.67,1.19-1.73-1.01-1.98-2.1.99-1.33,1.98-2.66,2.98-3.99Z"/>
      <path class="cls-40" d="m268.89,131.83c-.08,1.94-1.34,2.2-2.9,2.02-2.2-2.75-.65-4.43,1.67-5.89.97,1.11,1.38,2.41,1.23,3.88Z"/>
      <path class="cls-162" d="m228.92,275.98c-.22-1.49.25-2.83.96-4.11-.29-1.62.36-2.3,1.99-2,.66.34,1.32.67,1.98,1.01.3.16.4.34.32.53-.09.19-.18.29-.27.29-1.66,1.43-3.32,2.86-4.98,4.28Z"/>
      <path class="cls-134" d="m3.16,181.91c.28,0,.56,0,.84,0,.6.06.63.7,1,.99.02.82.19,1.56.98,2,.29.33.45.71.48,1.15-.41,1.59.91,3.35-.46,4.85h0c-.7.53-.28,1.61-1.05,2.11-2.09-3.46-.03-7.59-1.79-11.11Z"/>
      <path class="cls-168" d="m159.02,307.89c-2.68-.51-5.61.97-8.1-1.04,2.87-2.29,6.33-.9,9.47-1.52.57,0,1.07.18,1.51.54.77,1.16,2,.94,3.12,1.03-1.74,1.9-4.03.52-6,.99Z"/>
      <path class="cls-185" d="m49.97,73.96c-2.01-.14-1.79,5.57-5.12,1.94,1.68-1.67,3.36-3.34,5.04-5.01,0,0,.18.16.18.16.74.99.7,1.96-.09,2.91Z"/>
      <path class="cls-139" d="m187.87,300.68c-1.5-1.43-3.39-.6-5.08-.86.49-2.82,3.22-2.48,4.97-3.54.76-.14,1.47-.06,2.06.48l.11.15c.26,1.01.64,2.03.01,3.04-.38,1.12-1.23.9-2.07.72Z"/>
      <path class="cls-25" d="m267.66,127.95c-1.59,1.67-2.06,3.66-1.68,5.9,0,0-.21.15-.21.15-3.07-1.21-3.31-3.37-2.05-6.05,1.04.37,2.15.89,2.12-1.01-.32-1.07.15-1.31,1.11-1.05,1.14.38.89,1.23.71,2.06Z"/>
      <path class="cls-31" d="m119.89,38.84c-3.36,2.46-7.23,2.18-11.07,2.09,3.51-1.65,7.28-1.91,11.07-2.09Z"/>
      <path class="cls-81" d="m204.71,292.83c-.96-.69-1.92-1.38-2.88-2.08-.25-.52-.17-.97.26-1.37,1.59-.94,3.2-1.77,5.04-.6.47,1.01.41,1.98-.25,2.89-.79.26-1.85,0-2.17,1.15Z"/>
      <path class="cls-37" d="m88.06,296.78c-1.15.12-2.42-.08-3.15,1.17-.74-.18-1.71.12-2-.98-.68-1.21.44-1.53,1.05-2.1h0c.42-.88,1.04-1.45,2.09-1.38.92.21,1.71.61,2.27,1.39.27.68.23,1.32-.26,1.9Z"/>
      <path class="cls-118" d="m144.91,38.98c-1.99-.65-4.85,1.55-5.99-1.84,2,0,3.99,0,5.99,0,.6.61.59,1.22,0,1.84Z"/>
      <path class="cls-45" d="m271.84,194.91c.61-.33,1.22-.65,1.83-.98.92,2.8-.8,5.28-.99,7.94-3.41-1.94-2.28-4.43-.84-6.96Z"/>
      <path class="cls-50" d="m71.23,287.71c-1.13.4-2.26.8-3.39,1.21-.73-.11-1.65.14-1.92-.93.02-1.08.04-2.15.06-3.23,1.18-.52,2.18.06,3.2.5.95.59,2.02,1.09,2.04,2.45Z"/>
      <path class="cls-171" d="m271.84,194.91c.34,2.31-.79,4.8.84,6.96.21.89.36,1.76-.79,2.14-.77-.17-1.3-.63-1.67-1.31-.41-.9-.52-1.87-.57-2.84,0-1.9-.12-3.82.24-5.71.13-.47.35-.89.65-1.28.43-.31.86-.29,1.29,0l.02,2.03Z"/>
      <path class="cls-26" d="m37.85,82.92c1.4.07,2.96-.13,3.09,1.94-.06.61-.41.95-.99,1.07-1.37-.34-2.73-.68-4.1-1.02.67-.66,1.33-1.33,2-1.99Z"/>
      <path class="cls-43" d="m9.86,131.88c1.36,1.98.28,4.02.15,6.04-.61-.32-1.23-.64-1.84-.96,1.21-1.47.11-3.72,1.69-5.07Z"/>
      <path class="cls-175" d="m144.91,38.98c0-.61,0-1.22,0-1.84,1.69.13,3.57-1.01,5.04.72-.01.37-.02.75-.03,1.12-1.67,0-3.34,0-5,0Z"/>
      <path class="cls-40" d="m270.84,202.9c.35.37.7.74,1.05,1.11-.03,1.72.15,3.5-1.22,4.88-.28,0-.55,0-.83,0-.74-2.18-1.97-4.44,1-6Z"/>
      <path class="cls-42" d="m206.88,291.69v-2.81c-.6-.73-.57-1.48-.09-2.24,1.05-.68,2.06-.6,3.05.13-.64,1.41-1.29,2.81-1.93,4.22-.13.54-.39.91-1.03.71Z"/>
      <path class="cls-33" d="m270.92,138.87c1.23,2.55,2.24,5.14,1.76,8.06-.56.26-1.03.15-1.42-.34-1.37-2.46-2.15-4.97-.49-7.62l.15-.1Z"/>
      <path class="cls-5" d="m210.99,57.93c-.37.35-.74.69-1.11,1.04-1,.82-2,.82-2.99,0-.98-3.79,2.15-1.25,3.12-2.03.33.33.65.66.98.99Z"/>
      <path class="cls-119" d="m271.85,146.93c.28,0,.55,0,.83,0,.14.27.21.57.22.87.66,1.71.72,3.42-.05,5.12-.33.33-.66.66-.99,1-.96-.8-1.17-1.9-1.26-3.06-.01-1.44.05-2.87,1.25-3.93Z"/>
      <path class="cls-121" d="m7.17,141.95c.96.84,1.09,1.96.61,2.99-.33.71-1.07.18-1.62,0-.6-1.31.56-2.03,1.01-2.99Z"/>
      <path class="cls-126" d="m5.16,150.95c1.31,1.58.89,3.31.54,5.12-.98-.59-.6-1.5-.75-2.25.07-.95.14-1.91.21-2.86Z"/>
      <path class="cls-114" d="m233.89,271.7c-.01-.27-.03-.54-.05-.82.11-.94.12-2.08,1.26-2.27.75-.13.71.8.82,1.38-.44.84-.91,1.66-2.02,1.71Z"/>
      <path class="cls-140" d="m83.96,294.86c-.35.7-.7,1.4-1.05,2.1-.98-.42-1.95-.85-2.93-1.27,1.12-1.26,2.62-.71,3.98-.83Z"/>
      <path class="cls-84" d="m4.99,161.91c-.36,1.75-.72,3.5-1.83,4.98-.39-1.8-.31-3.51,1-4.97.28,0,.55,0,.83-.01Z"/>
      <path class="cls-32" d="m266.95,125.89c-.37.35-.74.7-1.11,1.05-1.41-1.27-1.35-2.6-.16-3.97.42.97.84,1.94,1.26,2.92Z"/>
      <path class="cls-169" d="m170.01,40.94c-2.03-.22-4.21.72-6.07-.79,2.04.14,4.27-1.16,6.07.79Z"/>
      <path class="cls-183" d="m189.94,299.96c-.58-1.01-.76-2.03-.01-3.04,1,.36,1.64,1.07,2.01,2.05-.28,1.09-1.27.79-2,1Z"/>
      <path class="cls-133" d="m175.89,303.85c.93-1.26,1.92-1.26,2.98-.16-.95.45-1.66,1.62-2.97,1,0-.28,0-.56,0-.84Z"/>
      <path class="cls-30" d="m272.85,152.92c.02-1.71.03-3.41.05-5.12,1.78,1.48.73,3.38.78,5.12-.27,0-.55,0-.82,0Z"/>
      <path class="cls-122" d="m273.89,193.01c.16-1.71-.63-3.57.79-5.08-.1,1.72.99,3.62-.79,5.08Z"/>
      <path class="cls-166" d="m245.7,88.94c-1.64-.41-2.82-1.07-1.74-3.04.58,1.01,1.16,2.03,1.74,3.04Z"/>
      <path class="cls-36" d="m4.95,193.02c.06-.85.22-1.65,1.05-2.12-.22,1.67.58,3.51-.84,4.97-.07-.95-.14-1.91-.21-2.86Z"/>
      <path class="cls-2" d="m145.91,16.18c-3.01-1.19-.57-3.3-.84-4.96,1.03-.94,1.01-3.75,2.5-3.05,2.1.98,2.31,3.72,2.34,6.01.04,3.23-2.8,1.05-4,2Z"/>
      <path class="cls-205" d="m153.02,19.15c-1.47-2.25-1.41-3.8-.29-5.2.47-.58,1.25-.36,1.65.28,1.14,1.86-.24,3.02-1.36,4.92Z"/>
      <path class="cls-209" d="m144.91,4c2.15.21,4.43-.49,7.14.8-2.63,1.77-5.27-.82-7.13,1.19-.64-.66-.55-1.33,0-1.99Z"/>
      <path class="cls-207" d="m152.27,8.27c.06.76-.34,1.28-1.03,1.33-.35.03-.91-.32-1.08-.65-.31-.63-.1-1.31.62-1.55.72-.24,1.21.2,1.49.86Z"/>
      <path class="cls-202" d="m144.91,4c0,.66,0,1.33,0,1.99,0,.33,0,.66,0,1-.66,0-1.33,0-1.99,0,0-1.44.66-2.43,1.98-2.99Z"/>
      <path class="cls-212" d="m137.92,330.84c1.5,5.86-.64,11.54-.67,17.35-3.46-5.62-1.77-11.52-1.33-17.35.67-.53,1.33-.53,2,0Z"/>
      <path class="cls-199" d="m137.92,330.84h-2c-.33,0-.66,0-.99,0,.18-.83-.46-2.25.94-2.25,1.35,0,3,.2,3.05,2.25-.33,0-.66,0-.99,0Z"/>
      <path class="cls-147" d="m92.98,328.84c-.46,2.29-1.05,5.01-2.76,7.19-.84,1.06-2.04,2.22-3.8,1.53-1.51-.59-2.25-1.56-2.57-3.26-.81-4.26,1.49-7.53,3.26-10.92.55-1.06,2.27-.83,3.2-.36,2.1,1.07,2.71,3.13,2.67,5.82Z"/>
      <path class="cls-123" d="m112.04,328.35c1.89.9,5.48-.29,4.71,3.51-.34,1.7-1.77,2.44-3.38,1.95-3.24-.99-.56-3.62-1.34-5.46Z"/>
      <path class="cls-147" d="m209.01,318.17c.48.11.76.12.78.18.41,2.08,3.66,3.04,2.31,5.74-.2.4-1.48.79-1.62.62-1.59-1.82-2.18-3.94-1.46-6.54Z"/>
      <path class="cls-208" d="m179.37,328.22c.27.29.86.67,1.04,1.18.24.68-.16,1.25-.97,1.24-.69,0-1.28-.28-1.34-1.07-.05-.67.08-1.29,1.27-1.36Z"/>
      <path class="cls-210" d="m66.91,313.84c-.76,1.49-1.16,3.26-2.94,4-.16-1.45.32-2.75,1-3.99.65-.59,1.3-.59,1.95,0Z"/>
      <path class="cls-203" d="m66.91,313.84c-.65,0-1.3,0-1.95,0,.1-.88-.31-2.08.76-2.45,1.11-.38,1.05.76,1.24,1.46,0,.33-.03.66-.06.99Z"/>
      <path class="cls-211" d="m182.99,343.9c-.77-.17-1.75-.16-1.59-1.31.04-.26.83-.67,1.16-.58,1.29.34.42,1.25.38,1.94,0,0,.05-.05.05-.05Z"/>
      <path class="cls-80" d="m201.81,19.78c.49,3.05-.41,5.3-2.17,7.18-1.69,1.82-3.95,2.78-6.26,1.81-2.82-1.18-.75-3.43-.49-5.16.27-1.76.74-3.57,1.53-5.15.79-1.57.16-4.59,3.37-4.09,3.26.51,5.15,2.17,4.01,5.39Z"/>
      <path class="cls-1" d="m263.73,127.95c.29,2.15.69,4.26,2.05,6.05.73,3.75,1.39,7.51,3.03,11.01,1.85,1.84,1.88,4.24,2.02,6.6.06,1.53-.17,3.1.6,4.53.9,2.78,0,5.7.67,8.5.17.52.25,1.05.23,1.6-.17,3.88.36,7.78-.3,11.65-.07,1.97-.14,3.94-.21,5.92-1.35,2.91.44,6.17-1.05,9.06l.03-.04c-1.03,2.21-.16,4.56-.54,6.82-.55,2.49-.84,5.06-2.24,7.29-1.53,3.51-2.54,7.17-3.29,10.92-1.28,2.64-2.56,5.28-3.85,7.93-2.98,2.11-5.37,4.88-8.47,6.91-11.8,7.69-24.49,6.13-37.24,3.9-4.91-.86-9.76-2.13-14.54-3.58-12.08-3.67-24.34-5.18-36.95-3.53-5.17.68-6.66-.24-7.8-5.36-2.95-13.22-3.5-26.69-3.21-40.19.08-3.68,2.33-5.31,5.9-5.28,2.84.02,5.59,1,8.44.83,2.24-.13,5.14.42,5.09-3.13-.04-3.13-2.65-2.9-4.79-3-2.83-.13-5.67.16-8.48-.25-3.51-.51-5.52-2.48-4.92-6.16,1.72-10.55,3.81-21.02,9.35-30.37,2.13-3.59,4.47-7.48,9.32-7.34,4.86.14,6.93,4.22,8.84,7.91,2.55,4.95,3.35,10.39,4.07,15.87.39,2.96-.49,7.57,4.65,7.28,5.1-.29,3.17-4.65,3.28-7.4.27-6.74-1.23-13.27-3.6-19.53-4.23-11.13-13.61-16.13-23.09-12.48-5.36,2.06-8.3,6.51-10.6,11.4-5.8,12.37-8.34,25.59-9.77,39.07-1.98,18.66-1.42,37.21,2.14,55.66.5,2.59,1.33,5.64-1.78,7.1-3.61,1.69-7.56,3-11.54,1.25-2.48-1.09-2.07-3.55-1.68-5.71,1.48-8.36,2.85-16.72,3.45-25.21,1.72-24.58-.84-48.52-10.17-71.51-.44-1.08-.96-2.13-1.54-3.14-7.93-13.63-22.61-13.76-30.56-.18-4.99,8.52-5.82,17.92-5.24,27.55.14,2.25,1.31,3.28,3.55,3.22,2.23-.07,3.41-1.25,3.47-3.41.11-3.86.83-7.61,1.69-11.34.86-3.75,2.12-7.37,4.2-10.64,4.78-7.48,10.78-7.58,15.7-.27,2.62,3.9,4.47,8.2,5.84,12.67,5.12,16.71,7.49,33.71,5.68,51.22-.58,5.61-.41,11.3-1.23,16.91-.39,2.64-.75,5.28-1.43,7.86-.42,1.6-.85,3.45-2.74,3.85-1.86.39-3.1-1-4.13-2.32-4.82-6.17-9.42-12.5-14.31-18.62-.83-1.04-1.58-2.15-2.47-3.14-1.54-1.71-3.33-3.15-5.59-1.48-2.57,1.89-.91,3.91.43,5.56,3.05,3.74,6.11,7.48,9.1,11.27.83,1.04,1.73,2.04,2.4,3.19.93,1.58,2.2,3.34,1.13,5.08-.98,1.59-2.98,1.07-4.63.9-11.44-1.12-22.42.68-33.48,3.83-16.59,4.72-33.52,7.38-50.67,2.29-5.64-7.78-7.42-17.19-10.93-25.87-1-5.01-2-10.02-3-15.03,0,0,.01.03.01.03-.79-1.2-.78-2.63-1.1-3.96-.37-1.94.3-3.95-.41-5.87-.02-5.56-.01-11.12,0-16.68.62-3.11.97-6.27,1.31-9.42,1.1-5.59,2.2-11.18,3.31-16.77,1.15-3.04,2.54-6.02,2.83-9.32,2.71-6.29,5.43-12.58,8.14-18.88,1.28-.09,2.79.17,2.9-1.81.37-.69,1-1.04,1.72-1.24,6.07-1.11,11.36-4.06,16.66-7.01,1.97-.11,3.13-1.62,4.55-2.68,4.06-1.65,7.52-4.24,10.85-7.02,4.52-3.21,9.5-5.72,13.89-9.14,1.41-1.1,3-2.02,4.95-1.78,3.17.98,5.56,3.3,8.37,4.9.93.67,1.74,1.47,2.43,2.38.74,1.12,1.58,2.09,3.06,2.17.92.12,1.83.27,2.7.6,3.28,1.76,6.2,3.88,7.52,7.58.15,2-.98,3.15-2.63,3.96-1.04.47-1.99,1.08-2.8,1.9-2,2.11-4.45,3.85-5.76,7.21,2.66-2.02,3.8-4.72,5.86-6.58,1.06-.93,2.28-1.61,3.5-2.29,3.74-1.49,6.55-3.58,6.75-8.18.09-2.1,1.45-4.02,2.38-5.95.38-.84.71-1.7,1.03-2.57,2.22-5.22,5.99-8.89,11.14-11.2,1.24-.5,2.41-1.11,3.36-2.09,3.82-3.86,6.93-8.29,10.11-12.66,2.3-2.07,4.63-4.07,7.98-4.08,1.66.55,2.7,1.91,3.94,3,5.63,4.01,9.68,9.19,11.81,15.81.23.38.43.78.64,1.17.92,1.82,2.48,2.98,4.15,4.03.91.67,1.7,1.45,2.33,2.39,1.27,2.29,2.32,4.7,3.91,6.8.75,1.3,1.33,2.7,2.07,4.01.41.77.86,1.52,1.33,2.25.63.99,1.02,2.05.83,3.25-1.14,3.21-3.67,5.29-6.09,7.46-1.59,1.4-2.79,3.1-4.03,5.03,1.98-.86,2.73-2.67,3.92-4.04,5.5-3.32,8.05-9.16,11.82-13.94,1.24-.91,2.12-2.12,2.83-3.46.33-.54.72-1.03,1.15-1.5.7-.73,1.35-1.5,1.88-2.37.65-1.05,1.44-1.97,2.3-2.85.88-.87,1.74-1.76,2.66-2.58.31-.28.65-.52,1-.75,1.29-.72,2.29-1.74,3.15-2.92,1.23-1.29,2.28-2.73,3.43-4.1.88-.92,1.86-1.71,3.11-2.09,3.47-.59,6.95-.52,10.42-.05,2.41.74,4.8,1.57,7.27,2.12,2.29,1.27,4.86,1.43,7.38,1.76,2.33,1.75,4.66,3.5,6.99,5.25.65.63,1.31,1.27,1.96,1.9,1.28,2.38,3.07,4.32,5.14,6.04,2.32,2.98,4.64,5.95,6.96,8.93,2.31,3.36,4.61,6.72,6.92,10.09.65,1.86.99,3.9,2.96,4.99,0,0-.04-.02-.04-.02,1.62,2.89,2.75,6,4.09,9.01.74,2.41,1.23,4.92,2.9,6.93Z"/>
      <path class="cls-77" d="m21.94,233.77c.82-1.69,2.45-1.16,3.5-.83,12.7,3.98,25.24,1.63,37.8-.71,12.61-2.35,24.7-7.87,37.97-6.31,2.95.35,5.93.47,9.44.73-2.7-6.59-7.99-10.84-11.7-16.19-.85-1.22-2.15-2.2-2.77-3.51-.88-1.85-4.64-3.49-.83-6.01,3.08-2.03,5.89-3.53,8.82.62,4.69,6.64,9.74,13.04,14.7,19.49,1.57,2.04,2.8,4.44,5.48,6.16,2.17-5.51,2.4-10.97,2.99-16.3,2.53-23.02,2.03-45.79-6.35-67.8-1.24-3.26-2.86-6.29-5.09-9.04-4.04-4.97-7.41-5.17-11.16-.15-4.95,6.64-6.48,14.41-6.74,22.5-.15,4.71-4.91,7.57-9.18,5.45-.9-.44-1.05-1.18-1.09-2.02-.49-11.26.13-22.36,6.31-32.25,5.09-8.13,12.24-11.02,20.81-8.81,5.98,1.54,9.41,6.15,11.97,11.22,6.8,13.49,9.41,28.13,11.07,42.98,1.67,14.95,1.25,29.86-.95,44.73-.68,4.57-1.48,9.14-2.53,13.63-.57,2.43-.09,3.44,2.45,3.49,3.19.05,6.23-.72,9.23-1.61,2.96-.87,1.65-3.06,1.29-4.89-5.26-26.81-4.96-53.55,1.61-80.08,1.98-7.98,4.15-16.11,9.64-22.66,9.36-11.19,22.89-9.93,30.21,2.8,5.52,9.59,6.33,20.12,6.06,30.87-.09,3.63-2.82,2.72-4.71,2.59-2.1-.14-5.24,1.55-5.61-2.75-.5-5.78-.74-11.61-2.68-17.18-.88-2.52-1.87-4.96-3.46-7.13-4.37-5.98-8.18-6.04-12.5-.12-5.11,7-6.99,15.26-8.99,23.46-.63,2.58-.77,5.29-1.55,7.8-1.45,4.66.64,6.01,4.86,5.9,3.49-.09,6.99.05,10.49,0,3.87-.06,2.95,2.77,3,4.94.06,2.33-.22,4.36-3.47,4.07-4.29-.39-8.61-.51-12.91-.83-2.3-.17-3.35.64-3.38,3.07-.16,13.83.6,27.58,3.09,41.2.7,3.81,2.36,4.58,6.47,3.87,14.54-2.49,28.65.56,42.55,4.77,9.9,3,20.03,4.62,30.38,3.91,7.87-.54,14.59-4.02,20.33-9.37,1.79-1.67,1.73-1.74,4.06-1.7-3.59,9-7.68,17.71-14.21,25.04-13.83,2.72-27.4,1.95-40.74-2.82-11.27-4.03-22.95-5.26-34.87-4.66-5.38.27-10.48,1.6-15.51,3.44-9.88,3.61-19.78,3.88-29.66-.12-15.74-6.37-31.76-6.74-47.84-1.67-12.03,3.79-24.32,5.26-36.84,5.32-2.84.01-5.62.56-8.45.57-4.92-4.87-8.08-10.86-10.83-17.1Z"/>
      <path class="cls-77" d="m231.87,269.87c-.95.38-1.62,1.05-1.99,2-3.66-.17-4.1,4.13-6.99,5.02-.41-.03-.81-.06-1.22-.09-10.35.99-19.47-3.44-28.83-6.69-8.29-2.88-16.5-3.06-24.97-.82-7.86,2.08-15.78,4.3-23.91,4.84-10.46.7-20.83.27-30.94-3.51-11.87-4.44-23.66-3.94-35.26,1.8-6.78,3.35-14.16,4.75-21.82,3.44-7.35-4.57-13.24-10.6-17.95-17.83.86-1.06,2.02-1.07,3.18-.81,12.51,2.81,24.5-.18,36.23-3.81,16.18-5.02,31.89-5.68,47.55,1.76,7.53,3.58,15.42,3.83,23.24.59,16.37-6.8,32.86-5.65,49.23-.3,13.45,4.39,26.74,6.81,40.28.54,1.58-.73,3.44-1.48,5.18-.06-1.84,3.66-4.75,6.37-7.84,8.94-1.91,0-2.29,1.69-3.12,2.86-.02.71-.03,1.42-.05,2.13Z"/>
      <path class="cls-1" d="m242.88,255.93c-5.52,1.65-10.98,3.55-16.58,4.88-9.96,2.38-19.32-1.01-28.59-3.86-14.05-4.33-28.14-6.13-42.55-2.12-3.01.84-5.94,1.97-8.86,3.11-7.63,2.99-15.15,1.81-22.14-1.48-14.98-7.07-30.03-6.87-45.39-1.85-10.46,3.42-21.2,4.98-32.19,5.39-3.19.12-5.57-2.13-8.62-1.96-2.72-1.67-4.8-3.81-5.21-7.16.79-1.51,2.13-2.06,3.72-1.98,16.79.87,32.89-2.82,48.96-7.08,14.14-3.74,27.96-1.9,41.31,3.76,8.36,3.54,17.23,3.85,25.28.81,18.58-7.03,36.7-5.51,54.93.47,11.36,3.73,22.85,5.32,34.75,3.18,1.56-.28,3.58-1.16,4.96.78-.1,2.57-3.07,3.01-3.8,5.11Z"/>
      <path class="cls-1" d="m55.92,275.87c4.88-2.3,10.29-.89,15.43-2.51,6.56-2.08,12.52-5.67,19.55-6.72,9.23-1.37,17.97.61,26.25,3.5,13.37,4.66,26.35,3.06,39.56.3,6.61-1.38,13.06-3.48,19.81-4.17,8.32-.86,16.03,1.82,23.46,4.84,6.24,2.53,12.35,4.7,19.16,4.12,1.26-.11,2.37-.06,2.51,1.58-2.13,1.43-3.14,4.18-5.82,4.96-.87,1.62-2.03,2.86-4,3.01-1.38-.05-2.21.45-1.99,2-.99.05-1.97.1-2.96.14-2,1.32-3.93.1-5.9-.15-2.43-.67-4.85-1.4-7.37-1.67-.78-.12-1.53-.35-2.26-.67-11.52-5.08-23.29-6.64-35.46-2.49-4.9,1.4-9.23,4.52-14.67,4.35-4.37-.14-8.58-.67-12.55-2.56-12.45-7.62-25.32-7.04-38.43-2.02-4.55,1.42-9.01,3.17-13.84,3.49-2.53-.21-4.97.5-7.46.77-1.23.22-2-.72-2.96-1.18-3.39-2.92-7.49-5.04-10.06-8.89Z"/>
      <path class="cls-23" d="m8.1,207.81v-4.18c1.87,1.15,1.89,2.7,1.88,4.27-.63-.03-1.25-.06-1.88-.09Z"/>
      <path class="cls-55" d="m231.92,267.73c.2-3.67.71-4.13,3.12-2.86-.73,1.3-1.72,2.3-3.12,2.86Z"/>
      <path class="cls-1" d="m39.95,85.93c.33-.36.66-.71.99-1.07,1.67-.38,2.39-1.68,3.02-3.07,2.79-2.57,5.57-5.14,8.36-7.71-.14-1.92,1.58-2.24,2.67-3.1,5.59-3.49,11.15-7.03,16.77-10.45,6.49-3.95,13.37-7.14,20.28-10.26,4.75-3.53,10.9-3.22,16-5.82,2.34-.53,4.59-1.68,7.09-.96,3.62-.34,7.1-1.42,10.67-1.99,8.8-.16,17.59.29,26.38-.24.63.1,1.15.4,1.56.88,0,0,.03.01.03.01,2.7.55,5.4,1.1,8.1,1.65,5.47.23,10.46,2.73,15.85,3.31,0,0,.03-.02.03-.02,2.05.6,4.25.72,6.07,2.01,7.68,3.62,15.35,7.23,23.03,10.85,2.03-.13,2.79,1.65,4.04,2.7,1.69,1.09,3.38,2.19,5.06,3.28.83,1.54,4.7,1.18,2.78,4.45-1.42.95-3.03.87-4.63.86-1.56-.07-3.05-.43-4.43-1.17-1.94-1.12-4.08-.79-6.18-.79-3.64.06-5.73,2.55-7.83,5.01-1.71,1.65-3.4,3.32-5.07,5.01-1.05,1-2.09,2.01-3.11,3.04-.72.71-1.45,1.41-2.07,2.22-.74.99-1.33,2.09-2.15,3.02-1.04,1.07-1.99,2.21-2.75,3.49-.37.55-.78,1.07-1.22,1.57-1.1,1.11-1.83,2.66-3.56,3.04-.71.09-1.37-.04-1.99-.42-.84-.79-1.22-1.9-1.98-2.75-2.02-2.72-3.16-5.93-4.86-8.82-.51-1.9-1.36-3.54-3.42-4.18-1.07-.35-1.85-1.05-2.42-2.01-.63-1.11-1.18-2.26-1.97-3.28-.41-.53-.75-1.1-1-1.72-1.77-6.25-6.42-10.09-11.41-13.64-.46-.47-.86-.99-1.2-1.55-.58-1.05-.84-2.28-1.68-3.19-.29-.24-.59-.47-.91-.64-.84-.27-1.43.23-2.02.69-.3.31-.61.58-.91.87-1.3,1.19-2.49,2.49-3.8,3.66-4.97,3.82-8.14,9.33-12.66,13.58-.73.53-1.51.99-2.22,1.54-2.55,2.09-5.47,3.73-7.63,6.29-.95,1.15-2.02,2.2-2.75,3.52-.21.37-.45.72-.69,1.07-.79,1.02-1.19,2.22-1.67,3.4-.56,1.19-1.16,2.36-1.71,3.55-.97,1.8-1.77,3.75-3.86,4.61-3.17-.74-4.87-3.58-7.43-5.2-.61-.57-1.25-1.11-2-1.49-1.34-.65-2.83-.98-4.13-1.74-.39-.23-.74-.51-1.06-.82-2.44-2.76-5.47-4.66-8.84-6.07-1.8-.73-3.6-.79-5.19.38-5.02,3.7-10.47,6.82-15.2,10.93-3.53,2.79-7.75,4.31-11.69,6.34-1.27.65-2.42,1.5-3.64,2.23-4.16,2.46-8.74,3.99-13.12,5.94-1.47.65-3.08,1.42-4.71.23.62-4.16,4.49-6.71,5.34-10.75,4.22-2.32,5.23-7.34,8.65-10.33Z"/>
      <path class="cls-149" d="m108.3,45.17c-5.42,1.7-10.84,3.4-16.25,5.1-.03-.43-.07-.86-.1-1.29,4.28-2.65,9.3-2.73,13.97-4.03.85-.53,1.66-.63,2.38.23Z"/>
      <path class="cls-170" d="m55,70.98c-.69,1.21-1.29,2.49-2.67,3.1-.78-.04-1.57-.08-2.35-.12.03-.97.06-1.94.09-2.91,1.64-.02,3.29-.05,4.93-.07Z"/>
      <path class="cls-201" d="m187.84,296.86c-.97,2.21-3.78,1.29-5.06,2.97-1.84-.45-3.18,1.1-4.88,1.21-2.91,1.34-6.35.94-9.11,2.78-1.74-.01-3.5-.12-4.91,1.2-2.12.46-4.31.57-6.38,1.28-2.2-.07-4.42.36-6.6-.28-.66-.04-1.31-.09-1.97-.13-.24,0-.48-.02-.73-.02-2.19-.03-4.38-.02-6.57,0-1.48.07-2.95.44-4.44.24-2.21-.38-4.42-.33-6.63-.09-.47.15-.95.25-1.45.32-1.72-.1-3.47.3-5.16-.29-3.32-.41-6.64-.82-9.96-1.23-1.56-1.04-3.45.03-5.04-.78-4.18-3.04-9.67-2.43-14.02-4.99-.95-.44-1.9-.88-2.85-1.32-1.41-1.19-.41-2.49-.16-3.75.17-.45.4-.85.68-1.24.35-.34.75-.61,1.18-.83,2.32-.87,4.63-1.77,7.09-2.22,4.62-.58,9.12.25,13.61,1.18,5.37,1.46,10.51,3.62,15.87,5.1,11.5,2.01,22.42-.8,33.29-3.99.96-.28,1.92-.54,2.85-.93,1.87-.47,3.76-.84,5.62-1.32,2.75-.27,5.49-.28,8.24-.03,2.36.54,4.7,1.13,6.63,2.7,1.09,1.33,1.21,2.85.84,4.47Z"/>
      <path class="cls-1" d="m148.94,305.88c-1.68,2.1-4.1.3-6.03,1.14-.67,0-1.35,0-2.02,0-1.65.48-3.3.49-4.95,0l-5.91-.22c-.37-.15-.51-.33-.43-.55.08-.24.18-.36.28-.36l.08-.06c2.22-.97,4.56-.24,6.83-.47,1.74,0,3.47,0,5.21,0,2.29.23,4.64-.5,6.87.47l.07.05Z"/>
      <path class="cls-125" d="m129.88,305.9c.01.31.06.61.15.9-2.03-.19-4.19.71-6.06-.77,1.97-.05,3.94-.09,5.91-.14Z"/>
      <path class="cls-4" d="m108.97,304.02c1.71.08,3.6-1,5.04.78-1.7-.12-3.54.62-5.04-.78Z"/>
      <path class="cls-146" d="m135.94,307.02c1.65,0,3.3,0,4.95,0-1.65,1.23-3.3,1.24-4.95,0Z"/>
      <path class="cls-105" d="m210.92,62.65c-1.35-.9-2.69-1.8-4.04-2.7,0-.33,0-.66,0-.99,1,0,1.99,0,2.99,0,.35,1.23.69,2.45,1.04,3.68Z"/>
      <path class="cls-107" d="m183.85,49.11c-2.15-.27-4.25-.71-6.07-2.01,2.33-.25,4.55-.18,6.07,2.01Z"/>
      <path class="cls-20" d="m152.93,42.05c-9.29.05-18.57.1-27.86.14-1.05.23-2.23.68-2.15-1.17,9.33-.01,18.66-.03,27.99-.04,1.2-.65,2.14-.78,2.02,1.07Z"/>
      <path class="cls-31" d="m108.3,45.17c-.79-.08-1.59-.15-2.38-.23.68-.65,1.35-1.3,2.03-1.96,2.32.25,4.64-1.95,6.97-.02.32.17.43.35.34.53-.1.19-.2.28-.31.28-2.21.46-4.43.92-6.64,1.39Z"/>
      <path class="cls-70" d="m114.94,43.78c-.01-.27-.02-.54-.03-.82,2.67-.65,5.33-1.29,8-1.94.72.39,1.44.78,2.16,1.17-3.33.83-6.66,1.7-10.13,1.59Z"/>
      <path class="cls-15" d="m152.93,42.05c-.42-.84-1.19-1.01-2.02-1.07,1-.67,2-1.33,3-2,3.43,1.21-.72,2.07-.15,3.15,0,0-.43.15-.43.15l-.39-.23Z"/>
      <path class="cls-178" d="m25.96,107.01c6.37-1.48,11.88-5.1,17.96-7.29.67.79.71,1.61.15,2.48-4.84,4.48-10.69,6.71-17.11,7.65,1.18-1.45-.06-1.59-1.02-1.88-.02-.32-.01-.63.01-.94Z"/>
      <path class="cls-24" d="m25.94,107.96c.73.14,1.46.28,2.19.43-.39.49-.78.97-1.17,1.46-.65.11-1.3.23-1.96.34-.01-.88.08-1.72.94-2.23Z"/>
      <path class="cls-83" d="m274.11,176.84v-11.64l.39-.02v11.65h-.39Z"/>
      <path class="cls-51" d="m272.03,177.89c-.08-4.31-.15-8.63-.23-12.94.34-.35.69-.37,1.03,0-.45,4.31.99,8.73-.81,12.95Z"/>
      <path class="cls-30" d="m272.83,164.94c-.34,0-.69,0-1.03,0,0,0,.02.03.02.03-.92-2.74-.29-5.56-.4-8.34.14-.24.29-.48.44-.72,1.98,2.83.57,6.02.98,9.02Z"/>
      <path class="cls-30" d="m270.76,155.94c-1.57-1.1-.75-2.65-.75-4.04.41-.69.72-1.58,1.82-.97,0,1,0,1.99.01,2.99,0,.67,0,1.33,0,2,0,0-.02.02-.02.02-.36.46-.71.48-1.07,0Z"/>
      <path class="cls-186" d="m270.77,192.87c.59-2.99-.95-6.23,1.05-9.06,0,3.03,0,6.05.01,9.08-.35,0-.71,0-1.06-.01Z"/>
      <path class="cls-156" d="m7.83,156.96c.25,3.05.56,6.11-1,8.96-.25.46-.49.44-.73,0-.02-1.32-.05-2.64-.07-3.96,1.76-1.25.16-3.7,1.79-4.99Z"/>
      <path class="cls-14" d="m211.84,284.76c.68-1.87,2.75-1.9,4-3.01-.18,2.54-.04,5.51-4,3.01Z"/>
      <path class="cls-110" d="m260.83,121.01c-1.87-2.78-3.52-5.65-4.09-9.01,2.8,2.35,3.65,5.59,4.09,9.01Z"/>
      <path class="cls-29" d="m6.1,165.92c.24,0,.49,0,.73,0,.06,6,.12,12,.19,18.01.54.58.48,1.24.25,1.93-.41.29-.82.3-1.25.05,0-.33-.02-.66-.05-.99.04-6.33.09-12.66.13-18.99Z"/>
      <path class="cls-113" d="m4.99,182.91c-.33-.33-.67-.66-1-.99,0-.96,0-1.92,0-2.88.27-.02.53-.04.8-.06.07,1.31.13,2.62.2,3.93Z"/>
      <path class="cls-115" d="m85.95,293.86c-.67.33-1.33.67-2,1-.93-2.28-3.92-1.97-5.03-4.01-1.75-.83-3.37-1.88-4.96-2.98h0c-.85-1.18-.32-1.98.7-2.65,5.97-.36,11.35-2.96,16.98-4.59.47-.19.93-.16,1.38.06,1.04,2.21-.35,3.08-2.12,3.45-1.76.37-3.47.97-5.25,1.24,1.8-.06,3.41-1.18,5.27-.96,3.44,1.38,2.44,3.07.35,4.84-1.03.48-2.07.65-3.38-.1,1.48,1.14,3.03.39,4.35.93.44.2.81.49,1.1.89.28.74.18,1.42-.28,2.05l.06-.05c-2.2,1.86-4.76.77-7.17.89Z"/>
      <path class="cls-53" d="m68.95,285.93c1.96-2.25,4.53-2.24,7.17-1.92.09.78-.34,1.15-1.04,1.31-1.82-.21-2.06,1.87-3.41,2.35,0,0-.45.04-.45.04-.76-.59-1.52-1.18-2.28-1.77Z"/>
      <path class="cls-73" d="m73.96,287.86c2.4-.24,3.94.94,4.96,2.98-2.84.98-4.07-.72-4.96-2.98Z"/>
      <path class="cls-150" d="m71.68,287.66c-.19-2.48,1.22-3.01,3.31-2.74.33.22.43.43.31.63-.12.2-.23.3-.35.3-.8.44-.97,1.18-.99,2.01-.76-.07-1.52-.13-2.28-.2Z"/>
      <path class="cls-57" d="m187.84,296.86c-1.74-.92-1.11-2.43-.96-3.83-.27-.2-.4-.43-.38-.69.02-.28.06-.42.13-.42,1.33-.88,2.44.32,3.67.38,1.79-.22,3.05-1.67,4.78-2.05.73-.11,1.4.01,1.99.49.24.46.19.89-.13,1.3-1.28,3.23-5.3,2.32-7.13,4.73-.66.03-1.32.06-1.98.09Z"/>
      <path class="cls-54" d="m196.95,292.04c-.02-.37-.04-.73-.06-1.1-.72-1.6.76-1.79,1.55-2.43.43-.18.87-.26,1.34-.27.99.15,1.72.6,1.92,1.66.1.28.15.56.14.86-1.53.79-2.88,2.3-4.89,1.28Z"/>
      <path class="cls-90" d="m225.85,74.82c-2.6,2.72-4.85,1.16-7.07-.59-.3-.4-.42-.84-.32-1.33.19-.45.45-.86.78-1.22.19-.16.38-.31.56-.46,1.27-.82,2.29-.52,3.11.68.32.02.65.03.97.03.66.96,1.32,1.93,1.97,2.89Z"/>
      <path class="cls-78" d="m268.02,206.94c-.13-2.53.59-4.85,1.7-7.08.39-.51.77-.5,1.12.04,0,1,0,2,0,3-1.19,1.86-1.02,3.94-1,6-.61-.65-1.22-1.31-1.82-1.96Z"/>
      <path class="cls-108" d="m222.9,71.9c-.99-.49-1.97-.62-2.95.02-.79-.42-1.08-1.11-1.02-1.97.44-2.39-2.53-2.27-2.95-4.03.63.01,1.26.03,1.9.04,1.74,1.92,4.7,2.81,5.02,5.93Z"/>
      <path class="cls-143" d="m271.84,150.93c-.61.32-1.21.64-1.82.97-.01-2.37-1.64-4.45-1.21-6.89.01-2.12-.36-4.34.15-6.34.52-2.06,1.13.44,1.82.31.36,2.65.72,5.3,1.08,7.96,0,1.33,0,2.67,0,4Z"/>
      <path class="cls-41" d="m157.8,305.81c1.81-1.92,4.04-.66,6.09-.8-.66.29-1.33.57-1.99.86,0,0-.5,0-.5,0h-.5c-1.05.64-2.09.68-3.11-.06Z"/>
      <path class="cls-76" d="m92.88,293.82c-.26,1.3-.52,2.6-.79,3.9-1.35-.31-2.69-.62-4.04-.94,0-.62.02-1.25.03-1.87,1.41-1.19,2.96-1.79,4.8-1.09Z"/>
      <path class="cls-38" d="m157.8,305.81c1.04.02,2.07.04,3.11.06-3.17,2-6.67.53-9.99.98,0-.28,0-.56,0-.84,2.3-.07,4.59-.14,6.89-.21Z"/>
      <path class="cls-36" d="m6.02,185.9c.31,0,.63.02.94.03.97.78.15,2.08.86,2.93.07,1.34.14,2.69.21,4.03-.68-.66-1.36-1.33-2.04-1.99.25-1.67-2.18-3.35.03-5.01Z"/>
      <path class="cls-154" d="m201.69,289.9c-.88-.31-1.76-.62-2.65-.93-1.23-.28-2.59-.42-2.26-2.26,1.25-.94,2.64-1.21,4.16-.87,2.09-.29,3.98.58,5.93,1.07,0,.66,0,1.32,0,1.97-1.73.34-3.46.68-5.19,1.02Z"/>
      <path class="cls-127" d="m92.88,293.82c-1.6.36-3.2.73-4.8,1.09-.85-.06-1.67-.19-2.13-1.05,2.19-1.91,4.77-.67,7.17-.89-.04.29-.11.58-.24.85Z"/>
      <path class="cls-172" d="m270.84,199.9c-.37-.01-.75-.03-1.12-.04.72-2.28-1-4.95,1.08-7.02.01,2.35.03,4.71.04,7.07Z"/>
      <path class="cls-96" d="m58.82,91.55c-.37-2.62,2.16-2.5,3.42-3.46,3.34-2.54,6.9-4.8,10.28-7.29,2.38-1.74,4.69-3.01,7.43-.77.74.42,1.46,1.06.84,1.85-.83,1.04-2.01.58-3.06.17-6.12,2.45-10.9,7.05-16.52,10.31-.72.42-1.32.82-2.15.84-.5-.49-.58-1.04-.24-1.65Z"/>
      <path class="cls-182" d="m146.99,57.78c3.94,2.98,8.33,5.37,10.79,10.09.89,1.71,1.36,3.22,1.27,5.02-.18,1.18.03,2.5-1.22,3.29-2.64-6.35-6.42-11.83-12.1-15.85-.46-1.29.13-2.05,1.26-2.55Z"/>
      <path class="cls-151" d="m122.68,71.86c4.2-4.92,7.9-10.29,13.04-14.35,1.73,1.65-.31,2.67-.66,3.98-2.59,4.82-6.18,8.82-10.11,12.56-1.06-.41-1.85-1.1-2.27-2.18Z"/>
      <path class="cls-188" d="m175.92,95.2c1.26-.94,1.16-2.98,2.88-3.55.96.52,1.33,1.38,1.37,2.43-3.39,5.16-5.78,11.16-11.88,14.02-1.88.13-2.04-.82-1.41-2.26,2.07-2.3,4.14-4.6,6.22-6.9.71-1.43.84-3.29,2.83-3.75Z"/>
      <path class="cls-189" d="m106.03,91c.36-1.26.72-2.53,1.77-3.43.29,1.37,1.4,1.34,2.45,1.42-.96,3.43-3.31,6.17-3.06,10.35.17,2.89-4.39,3.6-7.19,4.71-1.01-.22-2.08-.36-2.01-1.79,1.2-.94,2.98-1.34,3.04-3.32.88-1.15,2.57-1.26,3.3-2.6.96-1.66,2.22-3.21,1.7-5.34Z"/>
      <path class="cls-94" d="m112.84,79.72c1.76-3.38,5.12-4.83,8.09-6.75,2.38.26,1.69,1.57.98,2.88-4.51,2.86-8.46,6.26-10.93,11.13-2.35-.32-1.61-1.8-1.18-3.17l-.07.03c1.28-1.19,2.44-2.46,3.11-4.12Z"/>
      <path class="cls-18" d="m161.68,77.03c.71.57,1.41,1.15,2.12,1.72,1.79,1.02,2.93,2.69,4.19,4.23,1.62,3.03,3.23,6.06,4.85,9.09.87,2.45-.32,2.6-2.21,1.98-.62-1.25-1.24-2.5-1.86-3.75-1.31-2.46-1.95-5.31-4.2-7.23-.6-.59-1.19-1.18-1.79-1.77-.03-1.51-4.48-1.88-1.11-4.28Z"/>
      <path class="cls-7" d="m104.96,96.96c-.31,2.64-2.35,1.84-3.92,1.98-2.07-2.6-4.38-4.96-7.16-6.8-.51-.73-.55-1.48-.11-2.26.77-.44,1.51-.51,2.22.12,2.62,1.54,4.77,3.61,6.77,5.87,1.17-.51,1.79.1,2.21,1.1Z"/>
      <path class="cls-9" d="m58.82,91.55c.08.55.16,1.1.24,1.65-2.99,3.39-6.55,5.87-11.02,6.89-.96-.42-1.56-1.02-1.12-2.16,3.97-2.13,7.93-4.25,11.9-6.38Z"/>
      <path class="cls-179" d="m97.13,106.03c-2,2.38-3.31,5.27-5.75,7.34-.61.52-.5,2.12-1.86,1.56-1.44-.6-.89-2.21-.57-3.01,1.36-3.46,3.88-6.06,6.94-8.14.94.46,1.11,1.35,1.25,2.26Z"/>
      <path class="cls-117" d="m77.72,82.06c.97-.42,3.39.75,2.22-2.02,3.73,1.4,7.37,2.91,9.19,6.87-.99.99-2.29-.76-3.27.36-2.72-1.73-5.43-3.47-8.15-5.2Z"/>
      <path class="cls-103" d="m202.9,68.16c2.41.03,4.91-.98,7.18.65-.06.17-.12.33-.17.49-.18.39-.07.66.35.81.66.32,1.45.41,1.85,1.13.07.43-.07.76-.43.99-3.91-.03-7.83-.07-11.74-.1-1.09-2.88,3.22-1.72,2.97-3.97Z"/>
      <path class="cls-112" d="m166.87,105.84c.07,1,.36,1.87,1.41,2.26-.86,3.09-3.36,4.61-5.89,6.04-.44.25-1.62-.1-1.42-.82.73-2.55,2.9-4.19,4.38-6.28.36-.5,1-.81,1.52-1.2Z"/>
      <path class="cls-148" d="m202.9,68.16c.06.64,2.63,1.2.03,1.94-1.18.34-2.4.75-3,2.03-.62.63-1.24,1.27-1.85,1.9-1.22.6-2.43.98-3.56-.19,2.09-2.92,4.36-5.59,8.38-5.68Z"/>
      <path class="cls-86" d="m135.06,61.48c.22-1.33.44-2.65.66-3.98,1.33-1.23,2.67-2.45,4-3.68,1.95.24,4.32.07,3.14,3.29-3.61-.36-4.72,3.76-7.79,4.36Z"/>
      <path class="cls-153" d="m194.52,73.84c1.19.06,2.37.13,3.56.19-1.1,1.3-2.21,2.6-3.31,3.89-1.25,1.09-2.67,1.98-3.79,3.22l.02-.09c-1.86.01-1.73-1.02-1.2-2.27,1.57-1.65,3.14-3.3,4.72-4.95Z"/>
      <path class="cls-128" d="m142.86,57.12c.28-2.36-2.4-1.9-3.14-3.29,0,0,.02,0,.02,0,1.45-.41,2.63-1.97,4.4-1.04l-.18.2.16-.22c.68,1.37.89,2.99,2.07,4.11.27.3.53.61.8.91-.42.85-.84,1.7-1.26,2.55-.96-1.07-1.91-2.14-2.87-3.21Z"/>
      <path class="cls-177" d="m46.91,97.94c.37.72.75,1.44,1.12,2.16-.56,2.15-2.14,2.34-3.96,2.1-.05-.83-.1-1.65-.15-2.48.76-1,1.62-1.82,2.99-1.78Z"/>
      <path class="cls-191" d="m161.68,77.03c-1.67,1.96,1.41,2.68,1.11,4.28-1.89-1.16-4.27-1.77-4.8-4.4,1.07-.75.73-2.4,1.95-3.05.58,1.06,1.16,2.11,1.73,3.17Z"/>
      <path class="cls-180" d="m121.91,75.85c0-1.07.18-2.21-.98-2.88.27-.86.97-1.04,1.75-1.11,1.35.11,2.21.73,2.27,2.18-.77,1.01-1.52,2.05-3.04,1.81Z"/>
      <path class="cls-97" d="m109.8,83.81c.19,1.13-.06,2.43,1.18,3.17.25.85-.06,1.5-.73,2.01-1.4.54-2.46.48-2.45-1.42.08-1.56.49-2.95,2-3.76Z"/>
      <path class="cls-46" d="m189.8,78.79c.09.92.28,1.79,1.2,2.27-.63,1.39-1.76,2.3-2.99,3.1-1.07-.44-1.64-1.14-1.19-2.35.71-1.29,1.7-2.3,2.99-3.03Z"/>
      <path class="cls-21" d="m179.69,90.57c.32-1.86,1.66-2.89,3.12-3.81,1.07.46,1.64,1.17,1.17,2.39-.28.3-.56.6-.84.9-1.19-.05-1.7,4.32-3.45.52Z"/>
      <path class="cls-155" d="m97.13,106.03c-.96-.45-1.17-1.32-1.25-2.26.36-.98,1.28-1.19,2.11-1.51.67.6,1.34,1.2,2.01,1.79-.37,1.51-2.04,1.13-2.87,1.98Z"/>
      <path class="cls-191" d="m164.58,83.08c3.08,1.43,3.71,4.29,4.2,7.23-2.2-1.94-2.64-4.91-4.2-7.23Z"/>
      <path class="cls-129" d="m186.81,81.81c.4.78.79,1.57,1.19,2.35-.72.91-1.44,1.82-2.16,2.73-2.42-.34-1.29-1.84-1-3.06.66-.67,1.31-1.35,1.97-2.02Z"/>
      <path class="cls-181" d="m179.69,90.57c1.48,2.01,2.22-.89,3.45-.52-.26,1.89-.91,3.48-2.98,4.03-1.02-.49-1.26-1.43-1.37-2.43.3-.36.6-.72.89-1.08Z"/>
      <path class="cls-194" d="m93.94,89.95c-.02.73-.05,1.45-.07,2.18-.95-.03-1.9-.05-2.86-.08-.96-.89-2.33-1.43-2.52-2.97-.03-.75.35-1.22,1.04-1.45.64.14,1.14.57,1.68.89.89.51,2.06.5,2.72,1.43Z"/>
      <path class="cls-98" d="m89.79,87.96c-.29.33-.57.66-.86,1-.38.59-.81.63-1.3.14-.58-.61-1.17-1.22-1.75-1.83-.24-1.36-.79-3.07,1.58-1.31.51.38,1.12.64,1.69.95.3-.02.54.08.74.31.32.21.41.39.28.54-.12.14-.24.21-.37.21Z"/>
      <path class="cls-8" d="m270.76,155.94c.36,0,.71,0,1.07,0,0,3.01-.01,6.03-.02,9.04-2.09-2.81-.37-6.07-1.05-9.04Z"/>
      <path class="cls-100" d="m218.86,72.98c-.03.42-.06.84-.09,1.26-2.36-.67-4.73-1.34-7.09-2.01,0,0,.26-.41.26-.41,1.08-.95,2.36-.84,3.65-.67,1.24.35,2.46.71,3.27,1.83Z"/>
      <path class="cls-192" d="m159.94,73.86c-.17,1.33.18,2.99-1.95,3.05-.16-.22-.21-.46-.16-.72.15-1.19-.11-2.54,1.22-3.29.3.32.6.64.9.96Z"/>
      <path class="cls-190" d="m170.64,94.05c1.25-.09,2.16-.55,2.21-1.98,1.46.38,1.06,1.64,1.24,2.62.1,1.94-.98,1.88-2.32,1.36-1.03-.3-.94-1.23-1.12-2Z"/>
      <path class="cls-71" d="m171.76,96.06c1-.07,1.84-.4,2.32-1.36.61.17,1.23.33,1.84.5-.85,1.32-1.24,2.99-2.83,3.75-.44-.96-.88-1.93-1.33-2.89Z"/>
      <path class="cls-152" d="m184.85,83.83c.11,1.09-.19,2.32,1,3.06-.04,1.23-.92,1.76-1.86,2.25-.39-.8-.78-1.59-1.17-2.39.68-.97.79-2.34,2.03-2.93Z"/>
      <path class="cls-111" d="m190.98,81.14c.61-1.84,1.83-2.96,3.79-3.22-.67,1.77-1.74,3.06-3.79,3.22Z"/>
      <path class="cls-95" d="m7.82,188.87c-.98-.78-.78-1.9-.86-2.93.02-.67.03-1.34.05-2.01,1.71,1.41.78,3.25.81,4.94Z"/>
      <path class="cls-72" d="m87.62,89.09c.44-.05.87-.09,1.31-.14.69,1.03,1.39,2.07,2.08,3.1-2,0-2.6-1.59-3.39-2.97Z"/>
      <path class="cls-17" d="m155.86,280.72c12.54-4.51,24.6-3.29,36.22,3.07-2.24,1.98-4.22.16-6.29-.4-1.8-.28-3.48-1.28-5.39-.87-1.45.79-2.89,1.59-4.64,1.11-2.48-1.67-5.08-2.94-8.19-2.5-1.07,0-2.13.04-3.15.38-1.25.07-1.18,1.6-2.15,1.98-2.2-.1-4.18-1.07-6.31-1.49-.32-.4-.34-.83-.09-1.27Z"/>
      <path class="cls-91" d="m155.86,280.72l.06,1.15c-.08.22-.17.44-.25.66-1.06,1.3-2.84,1.73-3.83,3.14-1.48,1.83-3.48,2.41-5.74,2.55-5.17.32-10.3-.36-15.44-.66-1.06-.06-1.93-.46-2.19-1.63-.56-.38,1.47-1.03-.17-1.36-.96-.19-1.91-.61-1.26-1.94.77-.36,1.51-.16,2.25.11,8.11,3.3,16.03,3.3,23.73-1.29.8-.48,1.88-.49,2.82-.71Z"/>
      <path class="cls-85" d="m129.31,282.72c-.8.05-1.59.1-2.39.15-5.64-.53-10.89-2.99-16.63-3.17-1.93-.06-3.9-.48-5.87-.46-3.9-.03-7.52,2-11.47,1.6-.33,0-.66.02-.99.03-.78.58-1.54.6-2.25-.12,13.53-6.02,26.77-6.03,39.6,1.96Z"/>
      <path class="cls-35" d="m175.89,282.87c1.87.41,2.87-.95,4.03-1.99,1.82,1.26,3.72,2.05,5.93,1,2.02.82,3.82,2.33,6.22,1.9.59.03,1.18.06,1.77.1.63.81,2.66.19,2.17,2.13-2.13,1.81-4.52,1.73-7.03.99-2.73-.8-5.51-1.17-8.35-.68-1.89-.72-4.42-.59-4.75-3.46Z"/>
      <path class="cls-52" d="m89.7,280.76c.75.04,1.5.08,2.25.12-5.62,1.84-10.75,5.31-17.01,4.97,0-.31.02-.62.04-.93.38-.31.76-.61,1.14-.92,4.53-1.08,9.05-2.17,13.58-3.25Z"/>
      <path class="cls-101" d="m195.87,285.88c-.67-.67-1.35-1.33-2.02-2,2.54.02,4.87.8,7.1,1.95-1.26.67-2.56,1.18-4.03,1.05-.92.26-1.25-.1-1.05-1.01Z"/>
      <path class="cls-19" d="m104.96,96.96c-.74-.37-1.48-.73-2.21-1.1,1.1-1.62,2.19-3.24,3.29-4.86,1.97,2.41.45,4.19-1.08,5.96Z"/>
      <path class="cls-3" d="m215.88,71.97c-1.31-.05-2.63-.1-3.94-.15-.68-.29-1.36-.58-2.04-.87-.6-.57-.62-1.17-.1-1.8,0,0,.28-.34.28-.34,1.04,1.18,2.45,1.1,3.83,1.16,1.18,1.19,3.08-.22,4.2,1.16-.29,1.47-1.1,1.56-2.22.84Z"/>
      <path class="cls-191" d="m167.99,82.98c-1.84-.97-3.21-2.41-4.19-4.23,2.64.18,3.58,2.05,4.19,4.23Z"/>
      <path class="cls-100" d="m217.81,71.08c-1.33-.27-2.92.37-3.91-1.11,1.68,0,3.35,0,5.03-.01.78.43.95,1.18,1.02,1.97,0,0-.16.11-.16.11-1,.39-1.46-.33-1.97-.96Z"/>
      <path class="cls-104" d="m112.84,79.72c.1,2.23-1.14,3.45-3.11,4.12.63-1.68,1.67-3.05,3.11-4.12Z"/>
      <path class="cls-116" d="m144.14,52.78c-1.47.35-2.94.7-4.4,1.04,1.15-1.7,2.23-3.66,4.4-1.04Z"/>
      <path class="cls-116" d="m146.19,56.87c-1.71-.86-2.24-2.31-2.07-4.11,1.3,1.06,1.99,2.43,2.07,4.11Z"/>
      <path class="cls-106" d="m93.94,89.95c-1.1-.05-2.27.15-3.04-.96,1.12-.86,2.31-.5,3.5-.19.78.06,1.67-.04,1.57,1.18-.68-.01-1.36-.03-2.03-.04Z"/>
      <path class="cls-72" d="m94.4,88.81c-1.17.06-2.33.13-3.5.19-.37-.35-.74-.69-1.11-1.04.04-.25.07-.5.09-.75,1.51.53,3.01,1.07,4.52,1.6Z"/>
      <path class="cls-144" d="m93.06,293.02c-.04-.72-.07-1.44-.11-2.16-.2-4.2,2.11-4.96,5.6-4.09,1.45.36,2.89.12,4.33-.09,2.21-.35,4.42-.41,6.64-.18,1.57,0,3.14,0,4.72.07,2.74.83,6.31-.28,7.83,3.38-2.1,2.06-4.58,2.2-7.23,1.45-4.96-.26-9.86-2.29-14.88-.41-2.3.68-4.6,1.35-6.9,2.03Z"/>
      <path class="cls-176" d="m167.01,291.9c-12.07,4.38-24.22,8.17-37.3,5.04,1-1.29,2.47-1.32,3.9-1.46,1.62-.1,3.24-.01,4.86-.02,3.23,1.02,5.47-1.57,8.22-2.3,2.75.43,5.47.41,8.16-.44,3.38-.5,6.55-2.1,10.06-1.96.83.13,1.57.44,2.1,1.13Z"/>
      <path class="cls-173" d="m133.95,296.79c-1.41.05-2.82.11-4.24.16-5.23-.78-9.93-3.14-14.81-4.93-.32-.24-.43-.48-.33-.73.1-.25.2-.37.31-.37,2.35-.35,4.71-.7,7.06-1.06,4.1-1.78,4.27,3.48,7.11,3.95.45.1.89.23,1.32.37,1.28.74,3.49.24,3.58,2.61Z"/>
      <path class="cls-35" d="m186.96,292.09c-.09.31-.12.62-.07.94-2.01-.75-4.01-1.49-6.02-2.24-.32-.35-.47-.75-.45-1.23.6-1.65,1.97-2.42,3.46-3.06.96-.11,1.72.33,2.41.93.82,1,2.16,1.43,2.84,2.59.1,1.56-1.62,1.2-2.18,2.07Z"/>
      <path class="cls-92" d="m114.87,290.91c0,.37.02.73.03,1.1-4.98-.4-9.92-1.39-14.95-1.02,4.96-2.83,9.95-.24,14.92-.08Z"/>
      <path class="cls-102" d="m180.86,289.9c0,.3.01.59,0,.89-2.98.03-5.96.07-8.94.1-.35-.54-.29-1.02.19-1.46.46-.33.97-.55,1.53-.69,2.49-.16,5.06-.8,7.22,1.16Z"/>
      <path class="cls-130" d="m171.93,289.88c0,.34,0,.68,0,1.01-1.54.81-3.18,1.17-4.92,1.01-.71-.03-1.42-.06-2.13-.08-.28-.46-.24-.89.1-1.3,1.04-.75,2.27-.85,3.48-1.04,1.19-.17,2.41-.61,3.46.4Z"/>
      <path class="cls-75" d="m136.91,305.84c-2.32,0-4.63,0-6.95,0,2.1-1.91,4.64-.59,6.95-.97.33.22.44.43.33.65-.11.22-.22.32-.33.32Z"/>
      <path class="cls-56" d="m148.88,305.84c-2.32,0-4.63,0-6.95,0-.33-.22-.44-.43-.33-.65.11-.22.22-.32.33-.32,2.31.37,4.85-.94,6.95.97Z"/>
      <path class="cls-69" d="m141.93,304.87c0,.33,0,.65,0,.97-1.67,0-3.34,0-5.01,0,0-.32,0-.65,0-.97,1.67,0,3.34,0,5.01,0Z"/>
      <path class="cls-44" d="m102.94,287.86c-2.9,2.1-6.01-1.78-9.06.42.84,1.31,2.98-.22,3.58,1.82-1.27,1.31-3,.55-4.51.76,0,0,0,0,0,0-.66-.67-1.83-.83-2-2,.91-1.33,2.05-2.66,0-3.99,3.61-3.36,8.85-3.5,12.68-6.42,2.65-.25,5.1.25,7.63,1.21,2.49.95,3.34,2.41,3.17,4.83.11,1.16.51,2.37-.49,3.38h-4.99c-2-3.81-4-2.74-6,0Z"/>
      <path class="cls-52" d="m103.94,278.87c-3.28,4.28-8.55,4.24-12.99,6-2.66.56-5.32,1.12-7.98,1.68l-.33-.92c2.13-.59,4.26-1.21,6.41-1.76,1.76-.45,3.62-.69,3.9-3.02,3.31-2.33,7.3-2.14,11.02-2.93.31.22.42.43.3.64-.11.21-.22.31-.33.31Z"/>
      <path class="cls-82" d="m90.95,288.86c.95.38,1.62,1.05,2,2-2.96.24-5.7-.51-9-1.83,2.66-2.23,4.9.42,7-.17Z"/>
      <path class="cls-167" d="m185.9,287.86c-.67-.33-1.34-.66-2.01-.99-.88.67-1.82.87-2.84.33-.43-.4-.48-.85-.15-1.34,2.15-2.64,4.86-.83,6.93-.32,2.77.68,5.33.8,8.04.34.35.34.7.67,1.05,1.01.71.69,1.42,1.39,2.13,2.08,0,0-.07-.03-.07-.03-.79.5-1.73.41-2.57.67-.81.07-1.56-.13-2.29-.49-.31-.15-.46-.54-.86-.55.08.47.21.93.19,1.42-.72,1.63-1.94,2.78-3.5,3.57-1.39.31-1.76-1.43-2.98-1.48.65-.74,1.29-1.48,1.94-2.23-.47-1.46-2.32-.85-3-2Z"/>
      <path class="cls-89" d="m189.93,293.56l2.96-3.71c.67-.62,1.39-.62,2.15-.17.32.5.3.98-.07,1.44-1.59,1-2.9,2.58-5.04,2.44Z"/>
      <path class="cls-109" d="m194.98,291.12c-.03-.42-.07-.83-.1-1.25.07-.61.64-.71,1.04-.99,1.02.02,2.04.03,3.07.05-.7.67-1.39,1.34-2.09,2.01-.64.06-1.27.12-1.91.18Z"/>
      <path class="cls-157" d="m217.81,71.08c.66.32,1.32.64,1.97.96-.31.31-.61.63-.92.94-1.09-.05-2.26.15-2.98-1.01.77-.03,1.5-.14,1.93-.89Z"/>
      <path class="cls-136" d="m209.8,69.15c.03.6.06,1.2.1,1.8-.92-.22-2.56.48-2.44-1.17.08-1.06,1.46-.71,2.34-.64Z"/>
      <path class="cls-145" d="m180.9,285.86c0,.34,0,.67,0,1.01.01,2.46-1.77,1.76-3.14,1.8-1.88-.35-2.16-3.01-4.31-2.97-.85.07-1.7.05-2.51-.24-1.1-.5-2.19-1.03-3.37-.2-.67.42-1.26.92-1.79,1.51-.25.32-.52.62-.8.91-.73.76-1.47,1.49-2.45,1.93-1.25.35-2.48,1.1-3.78.16-2.41-.77-4.71-2.91-7.3-.62-.74.12.08,1.03-.2.43-.09-.2.02-.3.33-.36,2.5-.52,4.93-.27,7.3.65.56,3.21-2.92,2.4-3.98,3.99-2.66,1.17-5.33,1.87-7.99,0-2.1-.54-3.6-3.33-6.29-1.67-.46.07-.9.03-1.34-.09-4.14-1.67-7.53-.53-10.35,2.76-1.3-.06-3.44.11-3.28-1.36.37-3.26-2.44-2.51-3.71-3.63-2.46-1.49-5.3-1.45-8-2-.33-1-.67-2-1-3,5.43-3.49,7.58-3.31,12.4,1.02,1.31.6,1.67-.73,2.44-1.22.43-.19.81-.12,1.15.2,1.09,3.8,3.77.31,5.74,1.21,4.1,1.86,8.71.46,13.08.79,2.27.17,2.81-1.95,4.16-3,1.63-.88,3.22-.53,4.8.15,2.46,1.8,4.05-1.23,6.2-1.15-.5-1.09-.76-2.05,1-2,1.2.31,2.1-.32,2.99-.97,3.33,0,6.92-.8,8.99,2.98,1.67,1,3.34,1.99,5,2.99Z"/>
      <path class="cls-167" d="m162.9,282.87c-.59,1.25-2.4.84-2.93,2.4-1.53,4.49-2.14.61-3.06-.4-.21-1.04-1.63-1.67-.99-2.99,0,0,0,0,0,0,2.54-1.16,4.6,1.07,6.98,1Z"/>
      <path class="cls-159" d="m185.86,281.89c-2.21,1.06-4.49,2.48-5.93-1,1.98.33,3.96.67,5.93,1Z"/>
      <path class="cls-167" d="m166.9,279.89c-.64.89-.64,2.41-2.08,2.48-.76.03-.83-.86-.91-1.5.72-1.16,1.89-.96,2.99-.97Z"/>
      <path class="cls-135" d="m124.93,287.86c-2.74-6.03-7.5-4-11.99-3,1.46-3.85-1.68-3.81-3.85-5.07-1.79-1.04-3.42-.72-5.14-.93,0-.32,0-.63.02-.95,7.8.96,15.98.16,22.96,4.96.07,1.27,2.47.19,2.01,1.99-.33,0-.66,0-.99,0-.74,1.26-2.82,1.17-3,3Z"/>
      <path class="cls-17" d="m155.92,281.87c.1,1.07,3.03,1.21.99,2.99-1.67-.34-3.33-.67-5-1.01,1.34-.66,2.67-1.32,4.01-1.98Z"/>
      <path class="cls-135" d="m102.94,287.86c.02-1.99-.31-4.18,2.83-3.98,2.57.17,4.1,1.07,3.17,3.98-2-.82-4,.05-6,0Z"/>
      <path class="cls-132" d="m133.95,296.79c-.93-1.51-3.14-.32-4.03-1.92,2.32-4.36,6.11-3.85,10-3.01h0c1.8.75,3.71,1.39,4.1,3.73-1.46,1.58-3.57.04-5.06,1.18-1.67,0-3.34,0-5,.01Z"/>
      <path class="cls-79" d="m138.95,296.78c1.03-1.5,2.82-.49,4.1-1.23-1.05-1.24-2.09-2.46-3.14-3.69,3.6-3.78,5.28-.82,6.99,2-2.28,1.99-4.58,3.92-7.96,2.92Z"/>
      <path class="cls-47" d="m158.91,289.86c1.24-.68,2.54-1.15,4-1,1.12.22,1.78.89,2,2,0,.32,0,.64-.02.96-3.33.68-6.65,1.35-9.98,2.03,0-2.66,3.62-1.7,4-3.99h0Z"/>
      <path class="cls-79" d="m139.92,291.86c-3.38.85-7.24.12-10,3.01-.33,0-.66,0-1-.02,1.77-5.14,6.21-6.34,11-2.99Z"/>
      <path class="cls-130" d="m176.9,287.86c1.38-.14,2.95.47,4-.99,1,0,1.99,0,2.99,0-1.01,1.01-2.02,2.02-3.03,3.03-2.65-.01-5.31-.03-7.96-.04-.24-.27-.32-.54-.26-.82.06-.28.13-.43.2-.43,1.23-.93,2.61-.99,4.06-.75Z"/>
      <path class="cls-130" d="m185.9,287.86c1.41.34,3.1-.83,4.21.79.06.08-.79.79-1.22,1.21-1.45.01-2.91.03-3-2Z"/>
      <path class="cls-38" d="m172.9,288.86c0,.33,0,.67,0,1-.32.01-.65.02-.97.02-1.01.31-2.03.62-3.04.93-.86-1.79-5.42.16-3.98-3.95h0c1.93-2.37,4.19-.26,6.29-.48,1.16.42,2.23.91,1.71,2.48Z"/>
      <path class="cls-167" d="m164.9,286.86c-.22,2.88,4.16,1.11,3.98,3.95-1.33.02-2.65.03-3.98.05-.95-.38-1.62-1.05-2-2,.38-.95,1.05-1.62,2-2Z"/>
      <path class="cls-137" d="m195.91,288.88c-.35.33-.69.66-1.04.99-.66,0-1.32-.01-1.98-.02-.04-.58-.31-1.53-.08-1.68,1.17-.73,2.07.37,3.09.71Z"/>
      <path class="cls-167" d="m158.91,289.86c-3.24.89-6.99-1.18-10.25,2.39,3.29-6.61,4.99-6.9,10.25-2.39,0,0,0,0,0,0Z"/>
      <path class="cls-167" d="m172.9,288.86c-.38-.95-1.04-1.62-2-1.99-.31-2.63,2.41-.72,3-2,2.41-.41,2.66,1.33,3,2.99-1.05,1.47-2.62.86-4,1Z"/>
      <path class="cls-47" d="m173.9,284.86l-3,2c-2,2.68-4-1.98-6,0,.03-1.3.7-1.97,2-2,1.33-.92,2.67-.93,4,0,1,0,2,0,3,0Z"/>
      <path class="cls-39" d="m124.93,287.86c-.66-2.66,1.63-2.36,3-3,.22,2.22-.78,3.22-3,3Z"/>
      <path class="cls-167" d="m170.9,284.86h-4c1.33-2.41,2.67-2.4,4,0Z"/>
    </g>
  </g>
</svg>