<?xml version="1.0" encoding="UTF-8"?>
<svg id="Layer_2" data-name="Layer 2" xmlns="http://www.w3.org/2000/svg" viewBox="0 0 399.18 395.82">
  <defs>
    <style>
      .cls-1 {
        fill: #f7eae7;
      }

      .cls-1, .cls-2, .cls-3, .cls-4, .cls-5, .cls-6, .cls-7, .cls-8, .cls-9, .cls-10, .cls-11, .cls-12, .cls-13, .cls-14, .cls-15, .cls-16, .cls-17, .cls-18, .cls-19, .cls-20, .cls-21, .cls-22, .cls-23, .cls-24, .cls-25, .cls-26, .cls-27, .cls-28, .cls-29, .cls-30, .cls-31, .cls-32, .cls-33, .cls-34, .cls-35, .cls-36, .cls-37, .cls-38, .cls-39, .cls-40, .cls-41, .cls-42, .cls-43, .cls-44, .cls-45, .cls-46, .cls-47, .cls-48, .cls-49, .cls-50, .cls-51, .cls-52, .cls-53, .cls-54, .cls-55, .cls-56, .cls-57, .cls-58, .cls-59, .cls-60, .cls-61, .cls-62, .cls-63, .cls-64, .cls-65, .cls-66, .cls-67, .cls-68, .cls-69, .cls-70, .cls-71, .cls-72, .cls-73, .cls-74, .cls-75, .cls-76, .cls-77, .cls-78, .cls-79, .cls-80, .cls-81, .cls-82, .cls-83, .cls-84, .cls-85, .cls-86, .cls-87, .cls-88, .cls-89, .cls-90, .cls-91, .cls-92, .cls-93, .cls-94, .cls-95, .cls-96, .cls-97, .cls-98, .cls-99, .cls-100, .cls-101, .cls-102, .cls-103, .cls-104, .cls-105, .cls-106, .cls-107, .cls-108, .cls-109, .cls-110, .cls-111, .cls-112, .cls-113, .cls-114, .cls-115, .cls-116, .cls-117, .cls-118, .cls-119, .cls-120, .cls-121, .cls-122, .cls-123, .cls-124, .cls-125, .cls-126, .cls-127, .cls-128, .cls-129, .cls-130, .cls-131, .cls-132, .cls-133, .cls-134, .cls-135, .cls-136, .cls-137, .cls-138, .cls-139, .cls-140, .cls-141, .cls-142, .cls-143, .cls-144, .cls-145, .cls-146, .cls-147, .cls-148, .cls-149, .cls-150, .cls-151, .cls-152, .cls-153, .cls-154, .cls-155, .cls-156, .cls-157, .cls-158, .cls-159, .cls-160, .cls-161, .cls-162, .cls-163, .cls-164, .cls-165, .cls-166, .cls-167, .cls-168, .cls-169, .cls-170, .cls-171, .cls-172, .cls-173, .cls-174, .cls-175, .cls-176, .cls-177, .cls-178, .cls-179, .cls-180, .cls-181, .cls-182, .cls-183, .cls-184, .cls-185, .cls-186, .cls-187, .cls-188, .cls-189, .cls-190, .cls-191, .cls-192, .cls-193, .cls-194, .cls-195, .cls-196, .cls-197, .cls-198, .cls-199, .cls-200, .cls-201, .cls-202, .cls-203, .cls-204, .cls-205, .cls-206 {
        stroke-width: 0px;
      }

      .cls-2 {
        fill: #f2f3f6;
      }

      .cls-3 {
        fill: #f2f2f2;
      }

      .cls-4 {
        fill: #f6f5f5;
      }

      .cls-5 {
        fill: #f6f6f6;
      }

      .cls-6 {
        fill: #fad700;
      }

      .cls-7 {
        fill: #f9f5f4;
      }

      .cls-8 {
        fill: #f8f3f1;
      }

      .cls-9 {
        fill: #4b597c;
      }

      .cls-10 {
        fill: #462d20;
      }

      .cls-11 {
        fill: #5f3628;
      }

      .cls-12 {
        fill: #261810;
      }

      .cls-13 {
        fill: #271e16;
      }

      .cls-14 {
        fill: #262116;
      }

      .cls-15 {
        fill: #2d2316;
      }

      .cls-16 {
        fill: #2d2317;
      }

      .cls-17 {
        fill: #2d2016;
      }

      .cls-18 {
        fill: #2d2215;
      }

      .cls-19 {
        fill: #2d2612;
      }

      .cls-20 {
        fill: #2a261f;
      }

      .cls-21 {
        fill: #4b3c17;
      }

      .cls-22 {
        fill: #4a587b;
      }

      .cls-23 {
        fill: #2d2419;
      }

      .cls-24 {
        fill: #2b2115;
      }

      .cls-25 {
        fill: #2c2015;
      }

      .cls-26 {
        fill: #2b2316;
      }

      .cls-27 {
        fill: #2b2317;
      }

      .cls-28 {
        fill: #2b2513;
      }

      .cls-29 {
        fill: #2a1d17;
      }

      .cls-30 {
        fill: #2a2316;
      }

      .cls-31 {
        fill: #81412c;
      }

      .cls-32 {
        fill: #81422d;
      }

      .cls-33 {
        fill: #465478;
      }

      .cls-34 {
        fill: #546183;
      }

      .cls-35 {
        fill: #81402b;
      }

      .cls-36 {
        fill: #302116;
      }

      .cls-37 {
        fill: #30211c;
      }

      .cls-38 {
        fill: #302917;
      }

      .cls-39 {
        fill: #2f2518;
      }

      .cls-40 {
        fill: #302719;
      }

      .cls-41 {
        fill: #302722;
      }

      .cls-42 {
        fill: #302417;
      }

      .cls-43 {
        fill: #3a4a6f;
      }

      .cls-44 {
        fill: #322319;
      }

      .cls-45 {
        fill: #26231f;
      }

      .cls-46 {
        fill: #3b2919;
      }

      .cls-47 {
        fill: #3b4a6f;
      }

      .cls-48 {
        fill: #353021;
      }

      .cls-49 {
        fill: #2e2418;
      }

      .cls-50 {
        fill: #2e2918;
      }

      .cls-51 {
        fill: #342c1b;
      }

      .cls-52 {
        fill: #342e13;
      }

      .cls-53 {
        fill: #344368;
      }

      .cls-54 {
        fill: #272118;
      }

      .cls-55 {
        fill: #272019;
      }

      .cls-56 {
        fill: #272415;
      }

      .cls-57 {
        fill: #393216;
      }

      .cls-58 {
        fill: #5a5856;
      }

      .cls-59 {
        fill: #2e2519;
      }

      .cls-60 {
        fill: #302518;
      }

      .cls-61 {
        fill: #2f2b23;
      }

      .cls-62 {
        fill: #1a1a19;
      }

      .cls-63 {
        fill: #1a170f;
      }

      .cls-64 {
        fill: #1a160f;
      }

      .cls-65 {
        fill: #3e4c70;
      }

      .cls-66 {
        fill: #372918;
      }

      .cls-67 {
        fill: #41311c;
      }

      .cls-68 {
        fill: #445175;
      }

      .cls-69 {
        fill: #110e0b;
      }

      .cls-70 {
        fill: #110e0d;
      }

      .cls-71 {
        fill: #1c1916;
      }

      .cls-72 {
        fill: #0f0c08;
      }

      .cls-73 {
        fill: #0f0c09;
      }

      .cls-74 {
        fill: #1c1813;
      }

      .cls-75 {
        fill: #100d0a;
      }

      .cls-76 {
        fill: #100d09;
      }

      .cls-77 {
        fill: #090806;
      }

      .cls-78 {
        fill: #090808;
      }

      .cls-79 {
        fill: #090604;
      }

      .cls-80 {
        fill: #090a09;
      }

      .cls-81 {
        fill: #09070a;
      }

      .cls-82 {
        fill: #090708;
      }

      .cls-83 {
        fill: #120f0b;
      }

      .cls-84 {
        fill: #0d0a06;
      }

      .cls-85 {
        fill: #1b1713;
      }

      .cls-86 {
        fill: #151411;
      }

      .cls-87 {
        fill: #070608;
      }

      .cls-88 {
        fill: #070504;
      }

      .cls-89 {
        fill: #070508;
      }

      .cls-90 {
        fill: #070706;
      }

      .cls-91 {
        fill: #070402;
      }

      .cls-92 {
        fill: #080604;
      }

      .cls-93 {
        fill: #080609;
      }

      .cls-94 {
        fill: #080908;
      }

      .cls-95 {
        fill: #425175;
      }

      .cls-96 {
        fill: #435276;
      }

      .cls-97 {
        fill: #0b0906;
      }

      .cls-98 {
        fill: #0b0c0a;
      }

      .cls-99 {
        fill: #0b0a08;
      }

      .cls-100 {
        fill: #231c13;
      }

      .cls-101 {
        fill: #221711;
      }

      .cls-102 {
        fill: #211b16;
      }

      .cls-103 {
        fill: #1f1b10;
      }

      .cls-104 {
        fill: #14110d;
      }

      .cls-105 {
        fill: #13120f;
      }

      .cls-106 {
        fill: #13100d;
      }

      .cls-107 {
        fill: #13100c;
      }

      .cls-108 {
        fill: #251c15;
      }

      .cls-109 {
        fill: #241c14;
      }

      .cls-110 {
        fill: #251b12;
      }

      .cls-111 {
        fill: #15100c;
      }

      .cls-112 {
        fill: #e1401a;
      }

      .cls-113 {
        fill: #df3511;
      }

      .cls-114 {
        fill: #dddcdb;
      }

      .cls-115 {
        fill: #e03a19;
      }

      .cls-116 {
        fill: #ce2804;
      }

      .cls-117 {
        fill: #db2604;
      }

      .cls-118 {
        fill: #d9dce4;
      }

      .cls-119 {
        fill: #db2504;
      }

      .cls-120 {
        fill: #e0e0e0;
      }

      .cls-121 {
        fill: #dfe2ea;
      }

      .cls-122 {
        fill: #da2200;
      }

      .cls-123 {
        fill: #b0561c;
      }

      .cls-124 {
        fill: #dec204;
      }

      .cls-125 {
        fill: #e1e4eb;
      }

      .cls-126 {
        fill: #e42300;
      }

      .cls-127 {
        fill: #d5d8e1;
      }

      .cls-128 {
        fill: #e24322;
      }

      .cls-129 {
        fill: #e2431f;
      }

      .cls-130 {
        fill: #d92200;
      }

      .cls-131 {
        fill: #d92201;
      }

      .cls-132 {
        fill: #d6bc03;
      }

      .cls-133 {
        fill: #dcdfe7;
      }

      .cls-134 {
        fill: #de3410;
      }

      .cls-135 {
        fill: #de3311;
      }

      .cls-136 {
        fill: #dadde6;
      }

      .cls-137 {
        fill: #db2705;
      }

      .cls-138 {
        fill: #db2703;
      }

      .cls-139 {
        fill: #dc2c0a;
      }

      .cls-140 {
        fill: #dc2907;
      }

      .cls-141 {
        fill: #dc2904;
      }

      .cls-142 {
        fill: #c0bfbe;
      }

      .cls-143 {
        fill: #b35a22;
      }

      .cls-144 {
        fill: #b15820;
      }

      .cls-145 {
        fill: #b32609;
      }

      .cls-146 {
        fill: #b45e28;
      }

      .cls-147 {
        fill: #a92409;
      }

      .cls-148 {
        fill: #b25c25;
      }

      .cls-149 {
        fill: #a8250b;
      }

      .cls-150 {
        fill: #b1b8cc;
      }

      .cls-151 {
        fill: #d02404;
      }

      .cls-152 {
        fill: #864833;
      }

      .cls-153 {
        fill: #8d513c;
      }

      .cls-154 {
        fill: #915642;
      }

      .cls-155 {
        fill: #332718;
      }

      .cls-156 {
        fill: #33271a;
      }

      .cls-157 {
        fill: #332517;
      }

      .cls-158 {
        fill: #34281a;
      }

      .cls-159 {
        fill: #312a18;
      }

      .cls-160 {
        fill: #7c85a3;
      }

      .cls-161 {
        fill: #6c708a;
      }

      .cls-162 {
        fill: #fce4dd;
      }

      .cls-163 {
        fill: #fbd800;
      }

      .cls-164 {
        fill: #fbd700;
      }

      .cls-165 {
        fill: #fde300;
      }

      .cls-166 {
        fill: #fdf7f2;
      }

      .cls-167 {
        fill: #7f3d28;
      }

      .cls-168 {
        fill: #7f3c27;
      }

      .cls-169 {
        fill: #7f7c7b;
      }

      .cls-170 {
        fill: #663a29;
      }

      .cls-171 {
        fill: #f1f2f5;
      }

      .cls-172 {
        fill: #f1f1f1;
      }

      .cls-173 {
        fill: #e8eaf0;
      }

      .cls-174 {
        fill: #e55635;
      }

      .cls-175 {
        fill: #e86141;
      }

      .cls-176 {
        fill: #e8e9ef;
      }

      .cls-177 {
        fill: #ef8266;
      }

      .cls-178 {
        fill: #eff0f4;
      }

      .cls-179 {
        fill: #eff0f3;
      }

      .cls-180 {
        fill: #e85e3d;
      }

      .cls-181 {
        fill: #fcefec;
      }

      .cls-182 {
        fill: #ee7d62;
      }

      .cls-183 {
        fill: #faf4f0;
      }

      .cls-184 {
        fill: #fafafa;
      }

      .cls-185 {
        fill: #fbf6f2;
      }

      .cls-186 {
        fill: #fbfbfb;
      }

      .cls-187 {
        fill: #fbf9f8;
      }

      .cls-188 {
        fill: #fefefe;
      }

      .cls-189 {
        fill: #eaecf1;
      }

      .cls-190 {
        fill: #eaebf0;
      }

      .cls-191 {
        fill: #eaebf1;
      }

      .cls-192 {
        fill: #ebedf2;
      }

      .cls-193 {
        fill: #ed7659;
      }

      .cls-194 {
        fill: #fcfcfc;
      }

      .cls-195 {
        fill: #e96748;
      }

      .cls-196 {
        fill: #e9ebf0;
      }

      .cls-197 {
        fill: #e6e8ee;
      }

      .cls-198 {
        fill: #f4f4f4;
      }

      .cls-199 {
        fill: #eb6c4d;
      }

      .cls-200 {
        fill: #040201;
      }

      .cls-201 {
        fill: #060705;
      }

      .cls-202 {
        fill: #060302;
      }

      .cls-203 {
        fill: #060607;
      }

      .cls-204 {
        fill: #050605;
      }

      .cls-205 {
        fill: #050301;
      }

      .cls-206 {
        fill: #050706;
      }
    </style>
  </defs>
  <g id="Layer_1-2" data-name="Layer 1">
    <g>
      <path class="cls-84" d="m47.29,336.86c-9.97.13-19.83-.64-29.33-3.88-5.85-2-8.08-4.92-7.59-11.08.82-10.34,2.18-20.64,3.3-30.96.56-5.22,1.41-10.44,1.56-15.68.6-22.05,2.17-44.06,2.29-66.14.07-12.6-2.44-24.46-5.89-36.28-4.15-14.2-8.05-28.45-11.23-42.89-1.34-6.05.73-9.67,6.59-12.72,3.26-1.7,8.47-1.59,9.46-5.1.89-3.18-1.29-7.2-2.01-10.87-1.45-7.39-3.56-14.65-4.16-22.21-.24-3.03.65-5.19,2.93-7.33,15.27-14.36,33.35-24.27,52.19-32.85,18.41-8.38,37.63-14.58,57.38-18.97,21.56-4.8,43.33-8.1,65.47-8.53,2.32.57,4.63.55,6.95,0,.49-.05,1.01-.23,1.48-.15,8.3,1.43,14.84-1.13,19.44-8.35,2.49-3.91,6.35-2.9,9.85-2.32,35.2,5.83,67.75,19.25,99.78,34.41,16.11,7.63,31.85,15.92,47.61,24.22.84.44,1.77.71,2.66,1.07,2.14,2.76-.23,4.37-1.75,5.86-9.5,9.32-19.11,18.55-28.88,27.59-7.71,7.13-14.96,14.7-22.54,21.94-3.01,2.87-5.89,5.86-9.18,8.45-4.09,3.21-4.05,4.13-.54,7.85,1.58,1.67,3.56,3.11,3.6,5.75,3.6,4.1,8.56,6.57,12.26,10.67,24,26.58,41.92,56.17,50.44,91.56,6.05,25.11,9.53,50.68,15.48,75.77.31,1.33.96,3.13-.62,4.08-1.45.87-2.37-.61-3.37-1.42-3.46-2.8-7-5.51-10.38-8.4-2.58-2.2-4.18-2.73-6.12,1.04-9.33,18.18-18.97,36.21-28.48,54.3-2.69,5.12-3.58,5.2-6.79.44-6.33-9.37-12.71-18.7-18.98-28.11-1.8-2.71-2.88-2.98-5.34-.26-20.71,22.93-46.02,38.5-76.03,45.98-14.71,3.67-29.79,5.74-44.97,4.57-35.5-2.73-67.29-14.65-93.58-39.41-.84-.79-1.53-1.81-2.92-1.49-4.37-2.12-7.22-5.82-9.94-9.65-1.38-.17-2.76-.33-4.14-.5-11.98-.57-23.95-.57-35.93,0Z"/>
      <path class="cls-148" d="m316.71,137.69c-1.91-2.04-3.6-4.35-5.77-6.07-3.34-2.65-2.35-4.42.28-6.92,20.45-19.39,40.79-38.9,61.12-58.42,1.7-1.63,4.26-2.92,3.66-6.03,1.77-1.64,2.32-3.89,3.1-6.04,1.71-4.67,6.15-7.53,10.76-6.99,4.28.5,8.76,4.93,9.22,9.14.61,5.5-1.59,9.68-6.92,11.01-3.51.88-5.7,2.98-8.04,5.24-22.47,21.7-44.94,43.39-67.41,65.08Z"/>
      <path class="cls-148" d="m87.36,337.36c4.06,2.45,6.77,6.29,9.94,9.65-10.91,12.07-23.01,22.93-34.73,34.18-4.43,4.25-8.94,8.44-13.17,12.89-2.3,2.42-4.14,2.21-6.26.07-.82-.82-1.65-1.64-2.54-2.39-3.45-2.88-3.76-5.22-.08-8.68,15.38-14.41,30.44-29.15,45.66-43.72.65-.62,1.08-1.16,1.18-2.01Z"/>
      <path class="cls-200" d="m47.29,336.86c6.34-1.82,12.81-.69,19.21-.73,5.56-.04,11.22-1.04,16.72.73-11.98,0-23.95,0-35.93,0Z"/>
      <path class="cls-200" d="m195.18,11.38c-2.32,1.26-4.63,1.28-6.95,0,2.32,0,4.63,0,6.95,0Z"/>
      <path class="cls-188" d="m349.21,237.01c-.33,81.55-66.41,147.29-147.8,147.03-81.52-.26-147.55-66.49-147.23-147.68.32-81.47,66.64-147.41,147.87-147.05,81.64.36,147.48,66.44,147.15,147.7Z"/>
      <path class="cls-188" d="m4.77,133.41c16.42,4.44,31.88,5.96,46.9-.93,14.23-6.52,29.2-4.53,45.14-5.45-8.46,8.41-15.42,16.58-21.4,25.54-10.36,15.53-17.64,32.41-21.71,50.61-.77,3.44-2.1,4.14-5.33,3.82-7.95-.78-15.94-1.29-23.92-1.74-2.2-.12-3.35-.52-3.23-3.08.48-10.02-2.86-19.35-5.45-28.8-3.59-13.12-7.23-26.22-11.02-39.96Z"/>
      <path class="cls-122" d="m56.26,313.02c-13.68-.47-27.23.3-41.06,4.73.75-7.13,1.46-13.95,2.18-20.76,1.73-16.2,2.51-32.46,3.2-48.73.5-11.8.74-23.6.73-35.4,0-2.94.95-3.71,3.78-3.45,7.61.69,15.24,1.29,22.87,1.58,3.13.12,3.91,1.02,3.51,4.14-2.48,19.3-1.91,38.48,2.75,57.45,3.03,12.32,7.49,24.1,13.44,35.32.81,1.52,2.4,2.95,1.4,5.02-4.26,1.04-8.54.88-12.82.11Z"/>
      <path class="cls-188" d="m98.14,49.68c.08,1.72,0,2.98-2.34,3.4-23.24,4.14-46.32,9.06-69.14,15.16-.91.24-1.94.03-4.27.03C77.48,29.26,138.65,15.78,203.69,14.75c.05,4.6-4.13,3.68-6.03,5.45-1.38,2.08-4.41,2.62-5.04,5.41-1.15,3.03-3.62,4.63-6.34,6.02-17.16,8.76-35.12,14.88-54.39,16.81-5.62.56-11.14,1.79-16.72,2.64-2.61.4-5.22,1.09-7.88.28-.47-.18-.9-.43-1.29-.73-1.99-2.35-4.39-4.05-7.56-4.11-1.88-.03-.97,1.09-.49,1.9.25.39.31.81.19,1.25Z"/>
      <path class="cls-122" d="m118.17,108.26c.53,1.99-1.15,2.53-2.27,3.4-4.08,3.15-8.21,6.24-12.25,9.45-1.35,1.07-2.7,1.87-4.48,1.86-5.8-.03-11.6-.01-18.58-.01,4.51-5.76,8.64-10.81,12.51-16.05,1.78-2.41,5.93-4.61,4.37-7.61-1.56-3-5.8-.96-8.81-.89-5.15.12-10.3.55-15.42,1.18-2.53.31-3.26-.48-3.28-2.85-.03-2.82-.65-5.66-.47-8.46.32-4.92-2.14-6.86-6.64-7.48-8.58-1.19-16.9.8-25.27,1.92-5.76.77-11.42,2.23-17.17,3.1-1.73.26-4.95,2.13-4.94-1.59,0-3.08-3.05-7.38,2.8-9.09,14.37-4.2,28.87-7.9,43.52-10.99,12.67-2.67,25.36-5.25,38.04-7.86,1.87,5.2.56,10.55.76,15.83.53,2.15,1.64,3.9,3.54,5.09,3.55.48,6.51,2.13,8.98,4.66,3.53,3.61,7.72,6.13,12.52,7.65.91.61,1.31,1.42.96,2.51-2.32,2.49-6.16,2.31-8.45,4.83-3.26,3.81-.7,7.6.02,11.4Z"/>
      <path class="cls-122" d="m220.17,27.22c14.03-.04,27.78,2.3,41.48,4.94,16.13,3.12,32.19,6.57,47.78,11.85-.43,1-1.3,1.46-2.23,1.86-2.44.8-5.26.3-7.4,2.15-2.77,1.85-5.26,3.96-6.56,7.16-1,2.48-3.3,3.01-5.51,3.69-2.01.62-3.16,2.22-4.34,3.81-1.44,1.32-2.07,3.12-2.9,4.82-.79,1.75-2.26,2.19-4.03,2.17-4.76-.06-9.42-1.06-14.15-1.38-1.8-.12-3.02-1.21-2.86-3.27,3.9-4.48,4.37-9.24,1.08-14.27-4.86-5.63-12.95-4.39-16.08,2.46-1.29,2.11-1.32,4.32-.54,6.6.51,1.48,1.3,2.84,1.87,4.3.28.93.31,1.85-.06,2.76-.24.42-.58.75-.99.99-2.5.67-4.86,1.72-7.2,2.81-4.95-.35-9.96,1.51-14.87-.34-1.41-.32-2.78-.8-4.15-1.29-1.48-.64-2.9-1.39-4.36-2.09-.83-.41-1.64-.84-2.42-1.36-1.97-1.7-4.02-3.34-5.26-5.72-.41-1.22-.39-2.42.11-3.61,1.53-2.36,4.24-3.09,6.35-4.66,4.22-1.61,5.76-4.57,4.5-8.94-.81-2.42-2.81-3.68-4.82-4.94-.13-.18-.26-.35-.38-.53-.04-2.41.08-4.83-.14-7.23-.36-3.81,1.43-4.1,4.33-2.92-.77.94-1.65.58-2.51.41,2.08.31,4.18.66,6.26-.23Z"/>
      <path class="cls-164" d="m98.14,49.68l.11.09c.83-2.43,1.5-2.93,3.57-2.27,1.68.54,3.13,1.59,4.51,2.7l-.1-.08c2.19,1.98,3.22,4.76,4.9,7.08,1.6,1.25,3.79,1.21,5.41,2.42,2.29,1.77,4.26,3.8,5.37,6.53.31.94.4,1.9.24,2.87-.18.95-.63,1.79-1.13,2.6-3.31,5.93-2.8,7.07,4.77,10.55,2.34.89,4.71.96,7.11.25,1.26-.36,2.52-.71,3.75-1.13,1.26-.36,2.34-1.02,3.25-1.96,2.14-2.29,5.29-3.63,6.37-6.89,1.91-2.89,1.69-4.97-1.83-6.57-2.61-1.19-4.26-3.59-5.16-6.4-.54-2.65-.48-5.21.96-7.61,4.48-5.71,8.89-6.47,16.28-2.84.44.29.82.64,1.15,1.06.8,1.32,1.22,2.78,1.56,4.28.24,1.45.25,2.91.03,4.37-.14.8-.29,1.65-.79,2.27-2.85,3.52-1.55,5.79,2.13,7.4,1.08.5,2.25.74,3.39,1.06,5.91,1.48,11.85,2.07,17.83.47,2.1-.27,3.91-1.33,5.76-2.24.78-.41,1.57-.81,2.3-1.31,1.63-1.07,3.28-2.12,4.54-3.65.69-.84,1.37-1.69,2.07-2.51,1.33-1.69,1.8-3.32-.31-4.79-1.98-1.12-4.12-1.81-6.31-2.39-.46-.19-.88-.45-1.26-.77-5.52-6.67-5.55-6.84-2.09-11.73,4.99-3.57,5.54-8.97,5.96-14.43,1.12-2.71,3.01-4.36,6.08-4.39,2.11.24,4.3-.53,6.36.49,2.28,1.01,3.45,2.93,4.25,5.15,1.33,2.83-.38,6.02,1.02,8.84.68.33,1.36.67,2.04,1,0,0-.08-.04-.08-.04,2.19,2.03,4.74,3.8,5.14,7.12.34,3.43-1.25,5.75-4.22,7.25-1.47,1.95-4.09,1.74-5.86,3.11-.5.38-.97.8-1.31,1.34-.69,1.47-.65,2.93-.03,4.39.33.53.71,1.03,1.13,1.49,1.44,1.52,2.91,3.01,4.46,4.41.65.52,1.36.95,2.1,1.35,1.14.62,2.29,1.19,3.51,1.65,1.09.46,2.25.62,3.39.85,6.09,1.73,12.2.7,18.31.18,2.17-.99,4.41-1.87,6.46-3.12l-.05.05c1.69-1.38,1.36-2.84.15-4.33-.47-1.11-1.12-2.15-1.22-3.39-.35-2.12-.42-4.22.33-6.27,2.28-6.72,9.84-8,16.02-2.72,1.02.99,1.67,2.15,1.68,3.61.17,1.57.44,3.14.1,4.72-.41,2.01-1.39,3.74-2.66,5.31-5.96,4.28-6.09,4.87-2.11,9.69.39.25.74.54,1.09.85.67.63,1.16,1.39,1.55,2.21.88,2.1,2.32,3.47,4.71,3.62.42.02.83.1,1.23.24.37.2.7.45,1,.74.86.86,1.84,1.56,2.98,2.03,1.82.62,3.63.65,5.42-.11.57-.32,1.13-.64,1.69-.96,2.02-.99,3.94-2.11,5.4-3.89,1.26-1.28,1.58-2.68.58-4.26-1.11-2.25-2.94-4.25-2.55-7.05.6-2.09,1.59-3.94,3.27-5.37,1.32-1.86,3.45-2.47,5.35-3.44,2.19-.23,3.28-1.47,4.23-3.5,1.45-3.13,3.53-5.95,7.41-6.51.75.12,1.35.48,1.74,1.16.15.46.2.94.15,1.42-.35,1.39-1.1,2.64-1.53,4-.13.47-.29.93-.46,1.39-.65,3.52.26,7.14-.68,10.64-.56,1.39-1.61,1.97-3.07,1.87-.73-.1-1.4-.38-2.05-.72-1.79-.87-3.61-1.29-5.46-.21-.85,1.52.36,2.69.67,4,.48,1.69,1.48,3.2,1.69,4.98.01,1.14-.35,2.2-.72,3.25-.48,1.28-1.34,2.31-2.27,3.29-.46.51-.96.98-1.48,1.43-.54.48-1.15.86-1.8,1.16-2.34.83-4.54,2.13-7.09,2.31-2.89.13-5.78.09-8.67.07-8.38-1.02-15.03-5.01-20.08-11.73-.98-2.01-2.37-3.01-4.75-2.29-1.89.57-3.83,1.01-5.84,1.03-4.36.02-8.71.14-13.06-.06-.54-.03-1.06-.12-1.58-.25-1.97-.78-4.04-.7-6.1-.74-2.8-.18-5.4-1.06-7.9-2.3-1.75-1.16-3.47-2.36-5.41-3.22-.83-.43-1.63-.91-2.26-1.61-.9-2.15-1.86-3.62-3.92-.85-1.18,1.59-2.74,2.86-4.4,3.97-3.09,2.1-6.21,4.09-10.16,4-2.2-.07-4.37,0-6.32,1.24-.51.12-1.03.14-1.55.09-4.25-.46-8.52-.13-12.77-.23-1.52-.03-3.04-.01-4.53-.35-1.78-.05-3.4-2.61-5.31-.3-1.38,1.86-1.99,4.19-3.64,5.88-5.53,4.7-11.99,7.35-19.08,8.6-1.54.11-3.08.18-4.61-.04-7.34-.59-11.8-5.35-15.76-10.85-1.07-2.51.49-4.59,1.11-6.82.17-.95.66-1.88.1-2.85-1.96-.87-3.79.08-5.67.34-1.42-.21-3.04.14-3.92-1.47v-5.06c.54-1.92.61-3.84-.02-5.75-.71-2.8-.71-6.02-4.23-7.17Z"/>
      <path class="cls-188" d="m342.3,363.15c-.76-.83-1.02-1.04-1.2-1.32-3.38-5.14-8.45-9.93-9.65-15.54-1.23-5.74,4.07-11.2,6.33-16.86,5.85-14.68,12.15-29.2,13.67-45.19.44-4.62-.01-9.2-.51-14.66,11.83,7.95,22.96,15.45,34.1,22.93,1.2.81,1.71,1.93,1.95,3.32.91,5.23,1.88,10.46,3.06,16.92-3-2.39-5.19-4.19-7.44-5.9-7.26-5.53-6.48-7.61-11.63,2.32-8.66,16.68-17.51,33.25-26.3,49.86-.68,1.28-1.44,2.51-2.38,4.13Z"/>
      <path class="cls-122" d="m307.14,45.05c.76-.34,1.53-.69,2.29-1.03,8.72,1.51,16.91,4.86,25.33,7.38,11.43,3.42,22.76,7.17,33.15,10.47-7.38,7.96-14.83,15.97-22.26,24-1.71,1.85-3.43.5-5.04-.05-11.47-3.95-22.84-8.2-34.63-11.17-1.12-.28-2.28-.38-3.42-.56-1.39-.9-1.09-2.54-1.67-3.8-.21-2.26-.08-4.53-.13-6.8.06-2.16-.08-4.33.34-6.47.29-1.23.73-2.41,1.22-3.57,1.6-2.79,3.47-5.44,4.81-8.39Z"/>
      <path class="cls-163" d="m284.15,106.17c-1.97,2.58-3.77.82-5.57-.24-25.49-14.85-52.99-21.79-82.46-20.76-25.4.89-49.05,7.92-71.07,20.56-1.76,1.01-3.4,2.97-5.84,1.43-3.17-2.89-3.92-6.18-1.69-9.98,2.65-2.74,6.83-2.74,9.57-5.34.39-.31.82-.55,1.28-.73,7.6-1.96,14.43-6.02,21.98-8.13,1.59-.46,3.15-.98,4.71-1.54,1.11-.37,2.23-.72,3.34-1.08,1.38-.39,2.79-.63,4.09-1.29,5.02-1.86,10.24-2.8,15.56-3.28.7-.31,1.39-.65,2.15-.76,2.01-.23,4.07-.01,6.03-.69.78-.12,1.57-.16,2.35-.29,1.64-.25,3.26-.12,4.87.23,5.16.87,10.32.83,15.47,0,1.62-.4,3.27-.43,4.92-.38,1.06.12,2.12.33,3.19.42,1.76.56,3.6.52,5.41.68,7.22,1.3,14.34,3.01,21.41,4.99,1.25.33,2.43.84,3.63,1.3,9.82,3.27,19.39,7.19,28.98,11.07,1.75.92,3.49,1.86,5.29,2.69,3.38,1.56,5.18,3.98,4.44,7.85-.25,1.36-.93,2.47-2.05,3.29Z"/>
      <path class="cls-188" d="m288.11,83.11c.74-.97,1.48-1.93,2.22-2.9,2.36-1.94,5.21-2.54,8.14-2.87,14.34,2.96,28.05,7.91,40.62,12.58-5.26,5.84-10.56,12.02-16.18,17.88-5.07,5.28-10.5,10.21-15.79,15.27-1.12,1.07-1.99,2.71-3.98.86-5.38-4.98-11.2-9.43-17.32-13.46-1.45-.95-.89-1.88-.46-2.95.18-1.35.19-2.72.74-4,.09-1.57.12-3.15-.03-4.72-1.86-3.93-6.3-4.07-9.3-6.32-2.16-3.55,1.36-3.03,2.83-3.99,2.33-.77,4.38-2.1,6.45-3.37.37-.35.73-.69,1.1-1.04.37-.28.69-.6.97-.97Z"/>
      <path class="cls-188" d="m344.25,49.01c-2.85.77-4.91-.64-7.05-1.31-31.09-9.86-62.43-18.66-94.87-22.94-9.74-1.29-19.5-2.3-29.33-2.43-2.3-.03-4.7-.2-5.68-2.25-.9-1.9,1.47-3.06,2.56-4.34,11.1-12.89,11.11-12.82,27.73-9.11,32.68,7.31,63.1,20.61,93.12,34.99,4.2,2.01,8.32,4.16,12.47,6.27.26.13.42.45,1.04,1.14Z"/>
      <path class="cls-188" d="m66.21,94.97c0,9.79-.03,18.23.02,26.67.01,2.15-1.49,2.16-2.93,2.6-3.64,1.12-7.37,2.1-10.84,3.65-12.7,5.68-25.84,5.57-39.17,3.33-1.79-.3-3.57-.83-5.28-1.46-1.91-.71-3.55-1.76-3.86-4.12-.36-2.74,1.82-3.29,3.51-4.18,5.16-2.72,10.59-4.75,16.19-6.38,14.66-4.27,29.41-8.39,42.35-20.11Z"/>
      <path class="cls-188" d="m84.26,333.28c-20.38-.76-40.06,1.33-59.55-2.2-2.63-.48-5.21-1.14-7.53-2.53-1.43-.86-2.89-1.87-2.93-3.76-.05-2.21,1.66-3.14,3.33-3.91,5.38-2.49,11.21-3.16,16.99-3.65,11.62-.97,23.27-1.18,34.92-.78,1.67.06,3.2.06,4.33,1.76,3.2,4.81,6.56,9.51,10.43,15.06Z"/>
      <path class="cls-122" d="m385.37,287.66c-11.62-7.87-22.17-15.03-32.75-22.15-1.32-.89-1.61-1.95-1.33-3.4,1.53-7.85,2.15-15.79,2.04-23.78-.04-2.83.64-3.65,3.37-2.12,5.94,3.33,11.97,6.51,17.99,9.69,1.39.74,2.55,1.62,2.87,3.21,2.54,12.43,5.04,24.87,7.81,38.55Z"/>
      <path class="cls-188" d="m335.69,162.63c19.48,23.19,33.5,48.54,39.64,78.82-7.13-3.83-13.64-7.35-20.18-10.82-1.33-.71-1.86-1.72-1.94-3.18-1.28-22.42-7.59-43.41-17.97-63.25-.1-.19.15-.56.45-1.58Z"/>
      <path class="cls-188" d="m55.15,84.77c1.82,0,3.65-.12,5.46.02,5.29.41,5.69,1.3,2.75,5.93-3.56,5.6-9.28,8.43-14.92,11.24-7.9,3.94-16.41,6.25-24.81,8.83-1.98.61-2.98.53-3.42-1.86-.93-5.06-1.98-10.11-3.37-15.06-.73-2.6.21-3.16,2.4-3.51,11.96-1.91,23.75-4.93,35.9-5.58Z"/>
      <path class="cls-131" d="m347.08,287.09c-3.39,18.98-11.21,36.34-19.42,54.36-1.79-2.67-2.98-4.87-4.58-6.74-2.25-2.64-1.89-4.68.17-7.38,10.16-13.35,17.77-28.07,22.87-44.06,2.85.64,1.37,2.37.95,3.82Z"/>
      <path class="cls-194" d="m91.33,102.47c-5.68,7.13-10.7,13.41-15.71,19.69-1.14,1.42-2.74,1.14-4.14.89-1.94-.36-1.1-2.12-1.14-3.27-.14-4.31-.08-8.62-.18-12.93-.04-1.67.1-2.76,2.26-2.88,5.91-.34,11.8-.91,18.91-1.5Z"/>
      <path class="cls-110" d="m111.13,78.15c2.42,2.26,4.88,4.48,7.26,6.78,2.2,2.13,4.79,3.22,7.83,3.34.46,1.03-.24,1.43-.97,1.83-3.44.29-6.11-1.52-8.43-3.58-3.95-3.51-7.91-6.95-12.68-9.31.39-.42.79-.84,1.19-1.26,1.36-.86,2.79-.15,4.19-.21,1.39.24,1,1.66,1.61,2.42Z"/>
      <path class="cls-147" d="m109.35,76.23c-1.46,1.65-2.68-.17-4.02-.28-1.18-1.84-3.57-3.43-1.19-5.98,2.7-.73,5.27-3.18,8.23-.64-.11,2.69-.88,5.09-3.02,6.9Z"/>
      <path class="cls-145" d="m299.98,72.1c-.95,1.33-1.91,2.66-2.86,4-1.53,1.9-3.23,1.85-5.04.43-.63-2.02-1.11-4.08-1.52-6.16.17-1.2.95-1.83,2.05-2.16,2.2-.45,4.12.66,6.15,1.12,1.38.31,2.42,1.14,1.22,2.76Z"/>
      <path class="cls-70" d="m118.26,97.23c-1.9,3.52-.32,6.71.95,9.93-.35.37-.7.73-1.04,1.1-3.2-3.8-4.21-7.8-1.14-12.19,1.1-.34,1.39.16,1.23,1.16Z"/>
      <path class="cls-102" d="m292.27,76.13c1.62.24,3.24.73,4.86-.04.45.41.89.83,1.34,1.24-2.34,2.01-5.05,2.98-8.14,2.87-.5-1.33.61-2.08,1.1-3.05.07-.51.37-.85.85-1.02Z"/>
      <path class="cls-105" d="m299.98,72.1c-1.37-4.12-5.17-2.05-7.76-3.05.79-2.63,2.46-1.42,3.98-.91,1.02-.18,2.32.63,3-.82.16-.42.46-.59.9-.52.58.22,1.02.61,1.29,1.16.34.69.08,1.56.65,2.17.24,1.31-.38,2.73.52,3.95-.86-.66-1.72-1.32-2.57-1.99Z"/>
      <path class="cls-48" d="m197.94,22.1c-2.06.81-3.64,2.18-4.76,4.09-.85-.39-1.55-.85-.97-1.95.72-2.82,2.7-3.95,5.45-4.03.2.29.4.59.61.88.51.54.4.88-.33,1.02Z"/>
      <path class="cls-101" d="m112.06,69.88c-2.66-1.78-5.27.86-7.92.09-.5-.83-1.84-1.03-1.76-2.31,1.46.13,2.92.25,4.37.38,2.53-.48,5.05-.7,7.55.13-.37,1-.74,1.99-1.11,2.99-1.03.15-1.56-.15-1.13-1.28Z"/>
      <path class="cls-101" d="m100.6,72.11c-1.08-5.24.82-10.62-.76-15.83,2.84,5.15,1.32,10.52.76,15.83Z"/>
      <path class="cls-201" d="m56.26,313.02c4.27-.04,8.54-.08,12.82-.11-4.25,2.01-8.53,1.62-12.82.11Z"/>
      <path class="cls-10" d="m347.08,287.09c-.42-1.25.55-2.85-.95-3.83-.08-1.3-.16-2.6,1.64-3.86.35,2.94,1.06,5.36-.68,7.69Z"/>
      <path class="cls-164" d="m210.2,36.2c-2.02-2.75-.56-5.91-1.02-8.84,1.98,2.76.06,5.97,1.02,8.84Z"/>
      <path class="cls-58" d="m352.66,52.6c-2.74.35-3.76-.37-4.71-1.89,1.94-.75,2.86.37,4.71,1.89Z"/>
      <path class="cls-164" d="m197.94,22.1c.11-.34.22-.68.33-1.02,2.17.68,4.71-.84,6.66,1.12-2.33-.03-4.66-.07-6.99-.1Z"/>
      <path class="cls-126" d="m220.17,27.22c-1.85,1.73-3.9.83-5.96.18.73-.12,1.47-.24,2.2-.36,1.25.06,2.5.12,3.75.18Z"/>
      <path class="cls-28" d="m286.9,104.11c-.04,1.35-.47,2.53-1.56,3.4-.4-.45-.8-.9-1.2-1.35.34-1.01.68-2.01,1.02-3.02.33-.35.72-.41,1.16-.22.26.36.45.75.58,1.18Z"/>
      <path class="cls-101" d="m102.37,56.85c1.14,1.92.83,3.83,0,5.75,0-1.92,0-3.83,0-5.75Z"/>
      <path class="cls-84" d="m307.66,235.1c.04,58.05-46.97,105.03-105.19,105.12-58.2.09-105.2-46.72-105.31-104.88-.11-58.43,46.86-105.41,105.34-105.36,58.18.05,105.12,46.97,105.16,105.12Z"/>
      <path class="cls-76" d="m117.08,130.14c2.44.02,4.35.4,4.56,1.45.96,4.74,5.13,5.58,8.3,7.83,2.51,1.78,2.59,4.88,1.05,7.69-.31.57-.8,1.06-1.25,1.55q-8.89,9.95-17.58,0c-.88-1-1.96-1.88-2.62-3-1.33-2.28-5.78-4.25-4.03-6.45,3.18-3.98,7.06-7.95,11.57-9.08Z"/>
      <path class="cls-76" d="m147.25,343.03c0-1.16-.25-2.38.04-3.46.32-1.18-.95-3.57,1.61-3.27,1.98.23,3.67,1.26,3.26,4.03-.71,4.77-1.13,9.58-1.71,14.74,3.35-1.92,5.62-4.66,7.59-7.39,3.43-4.74,7.41-5.09,12.22-2.77,1.46,2.34.03,4.19-1.04,6.1-1.25,4.58-2.58,9.15-3.7,13.76-.5,2.08-1.34,2.74-3.47,2.06-2.32-.74-1.46-2.07-1.02-3.51,1.49-4.9,2.91-9.82,4.36-14.73-.35-.28-.7-.55-1.05-.83-3.93,4.07-7.87,8.13-11.78,12.22-1.41,1.47-2.55,2.79-5.06,1.61-2.57-1.21-2.25-3.02-1.84-4.96.83-3.91.07-8.01,1.47-11.83,1.26,1.77.18,3.64.92,6.25-.65-3.2.26-5.62-.79-8.02Z"/>
      <path class="cls-76" d="m278.8,139.08c.3,4.21.51,7.99-.12,12.01-3.29-.71-4.95-2.39-4.54-5.83.15-1.32.03-2.66.08-3.99.1-2.41.09-5.2-2.46-5.99-2.38-.73-2.54,2.5-3.98,3.67-1.27,1.03-1.21,4.29-4.31,2.29-3.39-2.19-.46-3.62.51-5.09,2.94-4.44,6.15-8.7,9.09-13.14,1.26-1.91,2.31-2.53,4.28-.9,2.05,1.69,4.34,3.08,6.5,4.64,2.81,2.04,5.41,4.39,3.94,8.27-1.5,3.98-4.57,5.57-9,4.06Z"/>
      <path class="cls-76" d="m210.29,352.89c-.17-2-.62-3.88,2.59-4.05,3.29-.18,6.53-1.1,9.8-1.57,2.93-.42,5.22.69,6.57,3.38,1.42,2.83,1.31,5.73-1.23,7.66-2.27,1.71-1.64,2.28.15,3.74,2.27,1.85,4.53,3.85,5.94,6.56-3.16,1.8-5.71,1.36-7.78-1.6-.56-.8-1.37-1.44-2.06-2.15-1.75-1.81-3.77-4.13-6.32-2.65-1.97,1.15.2,3.61.04,5.48-.12,1.44,1.66,3.35-.78,4.24-.98.36-2.44,1.06-3.16-.21-.62-1.09-.68-2.51-.95-3.8-.34-1.62-.66-3.25-.98-4.87-2.62-3.02-1.65-6.69-1.83-10.15Z"/>
      <path class="cls-75" d="m321.82,214.82c-6.19.12-11.41-5.35-11.42-11.97,0-6.16,5.85-11.24,13.26-11.49,6.24-.21,11.35,5.17,11.33,11.92-.02,6.27-5.88,11.4-13.18,11.54Z"/>
      <path class="cls-76" d="m189.09,114.56c.07,5.82-2.76,9.25-8.61,10.45q-9.05,1.85-10.63-7.13c-.23-1.31-.45-2.62-.65-3.94q-1.67-11.47,8.74-12.32c6.57-.54,11.06,4.66,11.15,12.94Z"/>
      <path class="cls-72" d="m252.97,134.17c-6.56.08-11.99-4.78-12.05-10.76-.07-6.97,5.29-13.57,11.2-13.81,6.41-.26,12.38,5.16,12.33,11.19-.06,7.12-5.37,13.32-11.49,13.39Z"/>
      <path class="cls-107" d="m195.01,111.62q0-12.02,12.15-11.99c1,0,1.99.02,2.99,0,1.32-.01,2.2.35,2.25,1.93.06,1.83-.91,2.26-2.47,2.23-2.49-.04-4.99.07-7.48-.03-1.88-.08-2.69.56-2.67,2.54.02,1.96.83,2.65,2.72,2.57,2.16-.09,4.32.03,6.48-.03,1.54-.04,2.57.27,2.54,2.13-.02,1.94-1.24,2.04-2.68,2.02-1.83-.03-3.66.08-5.48-.02-2.22-.13-3.72,0-3.65,3.03.06,2.68.91,3.48,3.45,3.27,2.31-.19,4.65-.04,6.97-.04,1.33,0,2.72-.19,2.82,1.83.09,1.89-.98,2.19-2.5,2.18-4.32-.03-8.64-.09-12.96.02-2.02.05-2.57-.82-2.51-2.67.1-2.99.03-5.98.03-8.97Z"/>
      <path class="cls-73" d="m188.8,353.37c8.84-6.47,14.98-5.99,20.48,1.61,1.5,2.55,2.61,5.14,1.01,8.08-1.8,7.29-5.38,10.34-11.86,10.12-5.88-.21-9.33-3.22-10.38-9.09,0-2.02.55-4.04.1-6.07.24-1.58.48-3.15.72-4.73,0,0-.08.09-.08.09Z"/>
      <path class="cls-75" d="m246.01,340.11c1.36-.13,1.95.77,2.66,1.43,4.73,4.4,9.46,8.79,14.12,13.27.76.73,2.9,1.51,1.08,2.91-1.1.85-2.5,1.94-4.45.63-5.43-3.66-10.57-1.35-11.09,4.98-.19,2.32-1.74,2.87-3.2,3.07-2.07.28-1.42-1.78-1.51-2.82-.51-6.27-.69-12.57-1.36-18.82-.36-3.32,1.87-3.77,3.76-4.64Z"/>
      <path class="cls-76" d="m104.28,172.74c-2.26-.11-4.04-.99-5.61-2.26-3.36-2.71-6.65-5.5-10.03-8.19-1.34-1.07-1.95-1.86-.61-3.57,1.59-2.03,2.57-1.11,3.94.07,2.89,2.5,5.91,4.84,8.8,7.33,2.33,2,4.55,2.66,6.9.07,2.61-2.87,1.36-5.07-1.12-7.13-2.94-2.44-5.8-4.98-8.79-7.35-1.56-1.24-2.08-2.18-.53-3.96,1.55-1.78,2.46-.79,3.62.2,3.28,2.81,6.61,5.56,9.84,8.42,2.67,2.36,4.34,5.17,2.56,8.8-1.9,3.87-4.55,6.93-8.98,7.58Z"/>
      <path class="cls-76" d="m230.22,117.18c-.99-.11-2.07-.01-2.95-.38-3.25-1.36-4.27.16-4.88,3.12-.35,1.69.7,5.02-3.1,4.26-4.15-.84-1.54-3.59-1.23-5.42.85-5.06,2.15-10.04,2.98-15.1.41-2.47,1.47-3,3.68-2.41,2.72.72,5.51,1.19,8.2,1.99,3.9,1.16,5.77,3.88,5.01,7.92-.78,4.11-3.24,6.42-7.69,6.02Z"/>
      <path class="cls-69" d="m82.28,214.85c-10.3-.2-16.41-8.28-12.81-16.34,1.07-2.39,2.71-4.24,5.23-5.03,1.11-.35,2.82-1.37,3.38.46.38,1.23.75,3.17-1.17,3.86-4.58,1.65-5.44,4.73-2.99,8.56,2.03,3.17,9.68,4.62,12.27,2.53,2.8-2.27,3.31-5.2.55-7.68-2.25-2.02-.8-3.31.41-4.43,1.71-1.59,2.65.42,3.47,1.39,2.8,3.33,2.54,7.08.86,10.78-1.86,4.09-5.39,5.65-9.19,5.91Z"/>
      <path class="cls-83" d="m308.26,181.39c5.6-1,10.04-1.6,14.38-2.65,2.55-.62,4.44-.3,5.01,2.3.74,3.38-2.34,1.95-3.62,2.21-5.53,1.14-11.13,1.91-16.69,2.86-2.03.34-3.72.52-4.99-1.84-1.22-2.27.08-3.33,1.28-4.69,4.62-5.22,9.22-10.45,13.88-15.74,2.83,2.36,3.17,4.36.42,6.98-3.19,3.04-5.98,6.5-9.66,10.57Z"/>
      <path class="cls-107" d="m169.21,351.01c-.37-2.16.71-4.06,1.04-6.1,4.81,1.86,9.92,2.38,14.95,3.08,3.67.51,5.03,1.8,3.61,5.37,0,0,.09-.1.08-.09q-6.71-2.01-7.77,4.39c-.58,3.44-1.24,6.86-1.8,10.3-.29,1.75-.41,3.21-3.01,2.58-2.47-.59-2.11-2-1.8-3.68.67-3.59,1.38-7.17,1.91-10.78.25-1.68,1.99-3.99.13-4.97-2.1-1.11-4.88-2.34-7.33-.09Z"/>
      <path class="cls-83" d="m297.03,143.88c-.69-.73-1.45-1.6-2.28-2.41-1.11-1.1-2.21-2.02-.44-3.61,1.57-1.41,2.32-.29,3.23.65,3.12,3.23,6.24,6.47,9.36,9.7.95.99,1.91,1.85.45,3.28-1.39,1.35-2.45.84-3.24-.4-2.49-3.88-4.48-2.16-6.78.28-2.73,2.91-5.77,5.52-8.58,8.35-1.29,1.3-2.18,1.58-3.61.05-1.47-1.57-.94-2.48.33-3.67,3.4-3.19,6.75-6.43,10.06-9.7.65-.64,1.78-1.06,1.49-2.54Z"/>
      <path class="cls-83" d="m103.21,180.31c-2.13,3.93-4.32,8.21-6.75,12.33-.86,1.45-2.07.13-3-.36-5.13-2.68-10.22-5.45-15.37-8.11-1.62-.84-2.82-1.5-1.62-3.67,1.22-2.2,2.49-1.44,4.05-.58,3.77,2.08,7.66,3.95,11.35,6.15,2.27,1.35,3.49.99,4.49-1.4.83-1.98,1.96-3.83,2.99-5.72.49-.9,1.06-1.72,2.31-1.08.89.45,1.89.78,1.54,2.44Z"/>
      <path class="cls-104" d="m232.5,344.81c2.07-.66,2.38.47,2.74,1.64,1.84,6.01,3.63,12.04,5.6,18.01.69,2.09-.39,2.55-1.95,3.11-1.78.64-2.34-.2-2.79-1.7-1.81-6.02-3.63-12.04-5.58-18.01-.8-2.45.58-2.9,1.98-3.04Z"/>
      <path class="cls-106" d="m311.82,156.11c1.29-.14,1.61,1,2.15,1.75.57.78,1.19,1.66-.04,2.5-5.73,3.96-11.42,7.99-17.19,11.9-1.53,1.03-1.85-.76-2.56-1.51-.77-.82-1.11-1.66.05-2.47,5.57-3.91,11.13-7.82,16.7-11.73.26-.19.58-.29.88-.44Z"/>
      <path class="cls-142" d="m210.29,363.05c-.34-2.69-.67-5.39-1.01-8.08.33-.69.67-1.39,1-2.08,1.25,3.27,1.8,6.66,1.83,10.15-.61,0-1.22,0-1.83.01Z"/>
      <path class="cls-205" d="m188.16,358.01c1.57,2.05,1.62,4.08-.1,6.07-1.02-2.04-.7-4.06.1-6.07Z"/>
      <path class="cls-202" d="m147.25,343.03c1.91,2.54.64,5.27.21,7.96-.11-2.06-.23-4.12-.34-6.18.04-.59.09-1.18.13-1.77Z"/>
      <path class="cls-72" d="m192.21,24.23c.32.65.65,1.3.97,1.95.06,5.8-.04,11.55-5.85,15.08-.63.44-1.31.55-2.02.23-1.12-2.54.76-3.93,2.46-6.03-8.94,4.51-17.73,8.03-26.68,11.17-1.93.68-2.83,2.14-3.87,3.6-2,.33-3.3-1.35-5.04-1.78-4.47-1.11-8.17-.04-10.9,3.82-.7-.05-1.41,0-2.11-.12-7.87,0-15.5,1.84-23.21,3.11-1.34.22-2.62.52-3.29,1.9-.64.81-1.57,1.01-2.51,1.19-1.29-2.76-3.51-5.08-3.96-8.25,6.23,1.07,12.12-1.27,18.18-1.87,21.71-2.15,42.4-7.78,61.79-17.96,2.78-1.46,4.92-3.13,6.02-6.05Z"/>
      <path class="cls-20" d="m106.32,50.19c-1.64.62-2.67-.64-3.93-1.26-1.56-.77-3.23-1.75-4.15.83-1.94-.51-2.82-1.98-3.46-3.71,5.26-1.82,9.11-.42,11.54,4.14Z"/>
      <path class="cls-42" d="m118.26,97.23c-.41-.39-.82-.77-1.23-1.16,2.63-2.36,5.76-3.55,9.22-3.99.37-.27.71-.26,1.01.1-1.97,3.52-5.94,3.47-9.01,5.05Z"/>
      <path class="cls-55" d="m127.27,92.18c-.34-.03-.68-.06-1.01-.1-.15-.76-.15-1.59-1.01-1.98.32-.61.64-1.22.97-1.83,1.67,0,3.33,0,5,0,.09,2.1-2.09,2.43-2.97,3.77-.32.05-.65.1-.97.14Z"/>
      <path class="cls-111" d="m281.1,67.16c-.04,2.91,2.4,4.81,3.05,7.44-.11.52-.41.87-.92,1.03-5.7-1.45-11.55-2.09-17.37-2.83-2.39-.3-4.9-1-6.94,1.1-.45.58-1.09.86-1.74,1.12-3.16-1.48-3.46-4.48-3.48-7.31-.02-3.61,3.46-2.58,5.44-3.54.34-.35.66-.32.95.07-.24,1.82.45,2.65,2.39,2.79,4.57.32,9.17.56,13.66,1.37,2.52.45,3.06-.89,3.83-2.48.66.15,1.01.58,1.12,1.23Z"/>
      <path class="cls-100" d="m260.13,51.28c-5.81-4.6-12.56-3.7-14.93,2-.3.3-.65.35-1.04.19-.07-.18-.15-.36-.22-.54-.53-.69-.75-1.31-.23-2.2,2.07-3.55,5.54-4.6,9.18-4.74,3.37-.13,7.11-.22,8.55,4.08-.2.66-.62,1.08-1.31,1.22Z"/>
      <path class="cls-18" d="m240.11,70.92c-5.07.89-10.13,1.42-15.31,1.21-2.06-.08-3.74-.9-5.61-1.25.13-2.03,2-1,2.91-1.66,5.24,1.74,10.73-1.01,15.96.85,1.03-.55,1.85-.59,2.06.85Z"/>
      <path class="cls-56" d="m300.76,49.01c-3.29,1.38-5.77,3.57-6.6,7.15-.65,2.8-2.41,3.51-4.97,3.04-1.16.52-1.73-.14-2.18-1.06,3.24-.98,5.15-3.3,6.7-6.19,1.18-2.21,3.2-3.69,5.44-4.82.92.1,1.8.27,2.3,1.18.09.54-.15.76-.68.71Z"/>
      <path class="cls-12" d="m301.12,48.18c-.82-.04-1.59-.19-1.98-1.05,2.28-2.18,5.16-2.07,8-2.08,1.02,3.85-2.59,5.58-3.83,8.4-1-.34-1.42-1-1.11-2.04.03-.31.06-.62.08-.93.67-1.3-.38-1.73-1.16-2.3Z"/>
      <path class="cls-108" d="m260.13,51.28c.44-.41.87-.81,1.31-1.22,4.22,5.42,3.64,11.58-1.33,14.18-.32,0-.64-.03-.95-.07.05-1.84,1.22-3.17,2.13-4.61.47-1.8.81-3.59-.13-5.35.27-1.19-.57-2-1.03-2.93Z"/>
      <path class="cls-109" d="m212.39,51.2c2.21-1.85,4.71-3.54,4.03-7.05.42-.9.67-1.95,1.88-2.17,1.94,5.84.6,8.63-5.03,10.47-.63-.18-.69-.76-.87-1.25Z"/>
      <path class="cls-13" d="m218.3,41.98c-.63.72-1.25,1.45-1.88,2.17-.04-3.17-4.47-3.67-4.26-6.99,3.52-.27,4.98,2.08,6.14,4.82Z"/>
      <path class="cls-66" d="m211.29,66.98c-2.59-.75-3.37-3.36-5.1-4.98-.29-1.05.15-1.69,1.13-2.04l5.07,5.12c-.04.82-.4,1.46-1.1,1.9Z"/>
      <path class="cls-38" d="m212.39,51.2c.29.42.58.84.87,1.25-1.28,2.37-4.03,2.5-5.96,3.88-1.01-.36-1.57-.98-1.15-2.12,1.31-2.58,4.61-1.07,6.23-3.02Z"/>
      <path class="cls-36" d="m240.11,70.92c-.69-.28-1.37-.57-2.06-.85,1.57-3.01,4.32-3.07,7.17-2.89-1.15,2.01-2.98,3.08-5.11,3.74Z"/>
      <path class="cls-206" d="m287,58.14c.73.35,1.46.71,2.18,1.06-1.65,1-3.3,2-4.95,3-.43.48-.82.45-1.17-.08.03-2.59,2.11-3.17,3.94-3.99Z"/>
      <path class="cls-97" d="m206.16,54.21c.38.71.76,1.41,1.15,2.12,0,1.21,0,2.42,0,3.63-.38.68-.76,1.36-1.13,2.04-.34-.28-.68-.55-1.03-.83-.73-1.98-.65-3.97-.06-5.97.35-.33.71-.66,1.06-.99Z"/>
      <path class="cls-29" d="m216.44,69.76c-1.33-.08-2.57-.32-3.29-1.63-.45-1.05.13-1.59.99-1.98,1.57.28,3.03.81,4.19,1.96-.25.99-.92,1.5-1.9,1.65Z"/>
      <path class="cls-80" d="m216.44,69.76c.63-.55,1.26-1.1,1.9-1.65,1.25.37,2.5.74,3.76,1.11-.97.55-1.94,1.11-2.91,1.66-1.31.59-1.85-.7-2.74-1.11Z"/>
      <path class="cls-41" d="m243,60.42c-.94-2.65-2.42-5.37.93-7.49.19.18.36.38.52.59.34,1.48.19,2.97.11,4.46-.37.91-.5,1.98-1.57,2.44Z"/>
      <path class="cls-99" d="m283.07,62.13c.39.03.78.05,1.17.08-1.04,1.65-2.09,3.3-3.13,4.94-.37-.41-.75-.82-1.12-1.23.38-1.79.93-3.44,3.08-3.79Z"/>
      <path class="cls-98" d="m243,60.42l1.11-2.23c.77.48.41,1.52,1.02,2.08.35.96.71,1.92,1.06,2.87-.12.58-.48.9-1.07.98-1.28-.91-1.83-2.23-2.12-3.7Z"/>
      <path class="cls-27" d="m245.12,64.13c.36-.33.71-.65,1.07-.98,3.7,2.36,1.67,3.3-1.01,4.08-.02-1.04-.04-2.07-.06-3.11Z"/>
      <path class="cls-206" d="m214.14,66.15c-.33.66-.66,1.32-.99,1.98-.85,0-1.57-.24-1.87-1.15.07-.8.2-1.57,1.1-1.9.59.35,1.17.71,1.76,1.06Z"/>
      <path class="cls-130" d="m157.22,50.24c.06-1.46-1.95-3.19,1.22-4.14,5.36-1.62,10.6-3.68,15.79-5.8,5.17-2.11,10.21-4.52,15.9-7.07-.67,3.67-4.69,4.7-4.86,7.94.53,1-.32,1.62-.67,2.37-.57,1.48-.68,2.93.32,4.29,1.17,1.79,2.9,3.02,4.45,4.43.23-.03.45,0,.66.1,1.97,1.35,4.64,1.73,5.83,4.18,1.02,2.38.03,4.38-1.18,6.34-1.31,1.82-3.65,2.25-5.18,3.78-.84.48-1.74.84-2.55,1.37-2.01,1.06-4.2,1.57-6.38,2.12-4.95,1.67-9.9.7-14.85-.02-1.35-.03-2.42-.97-3.73-1.15-5.47-2.68-5.58-3.02-2.89-9.47.72-1.6,1.12-3.22.39-4.94-.51-1.61-1.34-3.04-2.35-4.38l.07.05Z"/>
      <path class="cls-186" d="m258.07,74.19c.14-1.07-2.52-3.26.53-3.06,8.31.56,16.87.01,24.64,4.02,1.23,1.71-.11,2.88-.87,4.17-2.16,1.91-4.87,2.72-7.49,3.73-2.05.49-4.09.57-6.11-.14-.96-.38-1.8-.96-2.6-1.6l-.4-.16h-.43c-2.18-1.03-4.15-2.39-6-3.93-.41-.66-.83-1.31-1.24-1.97-.23-.23-.31-.46-.24-.7.07-.24.14-.36.21-.36Z"/>
      <path class="cls-63" d="m280.2,89.27c-.22,1.69-4.59-.84-2.88,2.83-.17.65-.6,1.04-1.25,1.18-9.64-3.7-19.27-7.41-28.91-11.11.35-.72,1.05-1.11,1.56-1.67.67-1.18-.33-2.34-.04-3.52.28-.67.65-1.16,1.48-.82,5.14,5.58,10.89,10.13,18.76,11.1,3.29.89,6.65.17,9.97.43.94.11,1.66.4,1.31,1.57Z"/>
      <path class="cls-103" d="m188.2,75.14c-.59.04-1.19.08-1.78.12-1.69.74-3.46.25-5.19.38-.52,0-.93-.22-1.24-.64.57-2.54,3.15-.44,4.23-1.83,4.01.5,6.77-2.29,10.01-3.82.58.16,1.02.49,1.29,1.03.14.37.28.73.45,1.07,2.38,1.12,4.87.25,7.28.48,1.75-.06,3.54.24,5.17-.73.62-.31,1.26-.48,1.92-.1,2.67.52,4.97,2.39,7.86,2.07,1.09,1.34,3.53-.6,4.23,1.72-.23.47-.6.73-1.12.75-1.48-.05-2.98.22-4.43-.32-.89-.06-1.78-.13-2.66-.19-4.92-1.16-9.82.27-14.74.17-3.74-.08-7.5-1.54-11.26-.16Z"/>
      <path class="cls-64" d="m128.24,92.04c-.62-2.52,1.78-2.67,2.97-3.77,6.97-1.19,12.87-4.88,18.93-8.17.16.11.32.22.48.33.33.48.52,1.03.64,1.59.12.57.16,1.14-.06,1.7-7.71,2.61-14.83,6.85-22.95,8.33Z"/>
      <path class="cls-85" d="m244.18,81.24c-7.33-1.7-14.66-3.4-21.98-5.1-.33-.2-.45-.41-.34-.62.1-.21.21-.32.32-.32l.09-.13c.5-.62,1.16-.86,1.95-.81.32-.11.64-.13.97-.07,3.65,1.08,7.38.24,11.06.51,1.22.24,2.45.41,3.6.92.7,2.95,4.71,1.38,5.6,4.09-.02.84-.68,1.16-1.25,1.54Z"/>
      <path class="cls-151" d="m204.05,49.03c-.25.1-.51.15-.78.16-3.24,1.45-4.55-1.45-6.51-2.88-.92-1.84-.6-3.56.51-5.21,1.37-1.5,2.58-3.27,4.96-3.23,1.9,1.05,2.56,3.06,3.68,4.73.47,2.46-.39,4.53-1.86,6.43Z"/>
      <path class="cls-25" d="m165.17,69.11c5.36.59,10.72,1,16.08.03,1,.17,1.89.49,1.96,1.72-6.76,1.69-13.49,2.18-20.11-.63.41-.88,1.55-.43,2.06-1.12Z"/>
      <path class="cls-49" d="m160.29,59.36c-1.69,3.48-3.58,7,2.01,8.81-.47.9-1.36,1.01-2.21,1.19-2.35-.9-5.25-2.06-5.3-4.54-.04-1.86,2.25-3.77,3.5-5.66.73-1.64.61-3.29.07-4.95-.96-1.17-1.71-2.41-1.22-4.03,1.84.59,3.04,1.72,3.17,3.75.56,1.81.62,3.62-.03,5.43Z"/>
      <path class="cls-116" d="m203.19,67.03c.75.22,1.67.11,2.05,1.05.29,1.55,2.86,2.03,1.95,4.14-1.46.82-3.04.28-4.56.44-2.39-.68-5.33,1.45-7.29-1.42l-.1-.03c1.97-2.68,3.1-6.96,7.94-4.19Z"/>
      <path class="cls-24" d="m125.28,83.06c-3.38-.6-5.94-2.76-7.59-5.4-1.66-2.65,1.19-4.51,2.55-6.51.88.51,1.28,1.33,1.48,2.29-.93,4.74,3.97,5.45,5.75,8.32-.25,1.25-1.43.92-2.19,1.3Z"/>
      <path class="cls-14" d="m140.32,59.94c2.15,2.46,4.01,4.84,7.39,6.33,3.61,1.59.32,4.57-.59,6.88-.87.2-1.29-.33-1.61-1.01-.14-2.23-.73-4.07-3.01-5.21-1.99-.99-3.33-2.7-3.22-5.17.11-.74.38-1.39,1.04-1.82Z"/>
      <path class="cls-54" d="m203.19,67.03c-4.08-1.33-5.2,2.98-7.94,4.19-.34-.62-.68-1.24-1.03-1.86,1.41-1.34,3.02-2.53,4.18-4.07.97-1.28,2.05-3.15,3.38-2.6,1.1.46,1.77,2.59,1.41,4.34Z"/>
      <path class="cls-39" d="m197.28,46.1c2.53-.01,3.22,3.57,6,3.09-1,3.22-2.12,5.71-4.79.97-.61-1.08-1.53-1.98-2.3-2.96.12-.61.48-.98,1.09-1.1Z"/>
      <path class="cls-86" d="m250.16,76.17c-.33.32-.65.64-.98.97-2.24.02-4.47-.3-6.72-.26-.95-.23-1.61-.93-2.38-1.46-.28-.45-.2-.84.21-1.16,1.73-.31,3.65-.27,5.17-1.02,3.43-1.69,4.38-.04,4.69,2.93Z"/>
      <path class="cls-60" d="m184.09,42.95c.4-.6.79-1.2,1.19-1.8.69.04,1.37.07,2.06.11-2.92,2.87-2.8,5.61.41,8.14.95.75,1.54,1.64,1.63,2.85-2.81.06-4.21-1.72-5.21-4.01-.75-1.75-.6-3.51-.08-5.29Z"/>
      <path class="cls-51" d="m197.28,46.1c-.36.37-.73.73-1.09,1.1-5.2-3.37-.93-5.57.99-8.07.9.45,1.07,1.31,1.24,2.18-1.07,1.43-1.36,3.05-1.13,4.79Z"/>
      <path class="cls-45" d="m296.2,68.14c-1.34.24-2.89-.43-3.98.91-.81.47-.95,1.23-.89,2.07-.37.9-.97,1.35-1.97,1.03-.63-1.66-2.8-2.98-1.16-5.16,2.31-.39,4.63-.58,6.92.11.36.35.72.7,1.08,1.05Z"/>
      <path class="cls-62" d="m301.14,68.18c-.34-.34-.68-.67-1.02-1.01-.79-3.99-.72-7.98-.04-11.97.13-.33.26-.66.39-.99,1.08.05,1.28.77,1.26,1.66.09,2.46.19,4.93.28,7.39-1,1.52.25,3.43-.88,4.93Z"/>
      <path class="cls-157" d="m145.98,71.78c.38.45.76.91,1.14,1.36-.82,3.62-4.56,4.59-6.5,7.2-.9.48-1.38-.03-1.78-.74,1.03-3.84,3.66-6.22,7.14-7.82Z"/>
      <path class="cls-59" d="m198.42,41.3c-.95-.42-1.19-1.25-1.24-2.18,2.02-.64,2.2-6.99,6.06-1.95-.12.66-.5,1.08-1.15,1.26-1.82.19-2.29,2.1-3.67,2.87Z"/>
      <path class="cls-158" d="m204.05,49.03c-.74-2.41,2.04-4.31.98-6.77.15-.64.55-1,1.18-1.13,4.49,4.06.57,5.81-2.17,7.89Z"/>
      <path class="cls-79" d="m259.33,77.22c2.84.03,4.83,1.36,6,3.93-3.55,1.05-5.26-.7-6-3.93Z"/>
      <path class="cls-155" d="m121.19,66.28c-1.69-2.02-3.37-4.03-5.06-6.05.23-.77.72-1.26,1.51-1.44,3.49.52,5.21,2.54,5.14,6.08-.29.74-.81,1.22-1.59,1.41Z"/>
      <path class="cls-88" d="m268.29,82.12c2.33-.04,4.68-.46,6.96.39.69-.08,1.22.15,1.56.77-.22.29-.43.58-.65.86-2.34.81-4.67.81-7.01,0-.62-1.11-2.54-.37-2.83-1.97.64-.6,1.3-.51,1.96-.05Z"/>
      <path class="cls-50" d="m276.81,83.27c-.73.18-1.38.19-1.56-.77,2.03-1.62,4.1-3.16,6.83-3.37.37-.35.74-.35,1.1.01-1.42,2.47-3.75,3.53-6.37,4.12Z"/>
      <path class="cls-44" d="m140.32,59.94c-.07.82-.14,1.64-.2,2.46-4-3.48-4.02-6.85-.05-11.15.4.35.81.69,1.21,1.04-1.62,2.39-.77,5.09-.96,7.66Z"/>
      <path class="cls-90" d="m117.2,59.04c-.36.39-.71.79-1.07,1.18-1.99-.62-3.97-1.24-5.96-1.87.43-.95,1.3-1.15,2.21-1.26,2.36-1.22,4.11-.91,4.82,1.95Z"/>
      <path class="cls-77" d="m183.21,70.85c-.65-.57-1.31-1.15-1.96-1.72,1.97-.69,3.94-1.37,5.92-2.06.6.14.94.52,1.07,1.11-1.4,1.41-3.12,2.2-5.02,2.66Z"/>
      <path class="cls-159" d="m289.36,72.14c.66-.34,1.31-.68,1.97-1.03,1.23,1.5,2.29,3.03.94,5.02-.28.34-.56.68-.84,1.02-.76-1.64-2.01-3.08-2.07-5.01Z"/>
      <path class="cls-132" d="m240.3,74.25c-.18.23-.34.47-.49.72-.76,1.11-1.68.73-2.61.27-4-.47-8.16.83-12.04-1.06,5.04.02,10.09.05,15.13.07Z"/>
      <path class="cls-94" d="m125.28,83.06c.72-.34,1.45-.69,2.17-1.03,1.77-1.41,3.63-1.26,5.54-.31.49.41.59.9.3,1.47-2.7,1.77-5.35,1.02-8-.13Z"/>
      <path class="cls-124" d="m162.99,74.31c4.75.05,9.55-.93,14.25.59-.45.89-1.27,1.13-2.17,1.22-3.17.44-6.35.72-9.55.26-1.18-.28-2.33-.59-2.52-2.07Z"/>
      <path class="cls-17" d="m112.06,69.88c.38.43.75.85,1.13,1.28-.69,2.33-1.38,4.66-2.07,6.99-.59-.64-1.18-1.29-1.78-1.93.91-2.11,1.81-4.23,2.71-6.34Z"/>
      <path class="cls-23" d="m195.2,56.18c-1.69-1.32-4.5-1.12-5.15-3.83,2.7-.87,4.41,1.7,6.78,1.95.45.13.65.44.6.91-.39.55-.94.84-1.58.98-.21,0-.43,0-.64,0Z"/>
      <path class="cls-56" d="m153.12,73.94c1.8-4.3,3.46-.13,5.18.08.35.47.35.94,0,1.41-1.33.98-2.84,1.24-4.45,1.09-1.2-.59-1.28-1.5-.72-2.58Z"/>
      <path class="cls-15" d="m207.14,71.19c-.32-1.23-4.09-.35-1.9-3.11,2.08.36,3.76,1.4,5.09,3.03-.39.36-.77.73-1.16,1.09-1.11.54-1.52-.34-2.03-1.01Z"/>
      <path class="cls-74" d="m280.2,89.27c-.48-.45-.97-.9-1.45-1.34-.01-.34.14-.58.46-.71,2.49-.02,4.18-2.65,6.84-2.11-1.11,2.56-3.4,3.47-5.85,4.16Z"/>
      <path class="cls-26" d="m188.89,66.04c1.46-1.35,2.85-2.82,5.02-2.97.52-.36,1-.31,1.43.16-1.2,2.01-3.18,2.98-5.19,3.91-.65-.11-1.08-.46-1.26-1.1Z"/>
      <path class="cls-203" d="m158.23,75.23c.02-.4.05-.81.07-1.21,1.56.09,3.12.19,4.68.28.74.31,1.47.62,2.21.92.33.52.25.98-.22,1.38-.94.61-1.99.77-3.08.79-1.49-.26-3.44.25-3.66-2.16Z"/>
      <path class="cls-16" d="m153.12,73.94c.08.86.18,1.71,1.02,2.22.33,2.95-.26,4.99-3.93,4.03,0,0-.07-.1-.07-.1.08-2.49,1.9-4.14,2.99-6.15Z"/>
      <path class="cls-6" d="m300.09,55.2c.01,3.99.03,7.98.04,11.97-.32-.01-.63.04-.93.15.38-4.04-1.07-8.2.89-12.12Z"/>
      <path class="cls-40" d="m206.22,41.13c-.39.38-.79.75-1.18,1.13-1.46-.91-2.15-2.41-2.96-3.83.38-.42.77-.84,1.15-1.26,1.56.9,2.07,2.58,2.99,3.96Z"/>
      <path class="cls-23" d="m195.34,63.23c-.48-.05-.95-.1-1.43-.16.57-2.27,2.02-4.37,1.28-6.88l.3-.14c2.19.53,1.6,2.45,1.96,3.9.14.46.06.88-.27,1.24-.62.68-1.23,1.36-1.85,2.05Z"/>
      <path class="cls-81" d="m301.74,55.86c-.42-.55-.84-1.1-1.26-1.65.57-.93,1.15-1.87,1.72-2.8.37.68.74,1.36,1.11,2.04-.26.97-.11,2.21-1.57,2.41Z"/>
      <path class="cls-79" d="m283.19,79.15c-.37,0-.74,0-1.1-.01.38-1.33.77-2.66,1.15-3.99.3-.18.61-.37.91-.55,1.9,1.99,1.02,3.39-.96,4.56Z"/>
      <path class="cls-164" d="m197.19,61.18c.02-.34.04-.68.06-1.03-.92-1.58-.61-3.22-.27-4.87.01-.34-.04-.66-.16-.98,3.27,2.12,2.74,4.45.37,6.88Z"/>
      <path class="cls-6" d="m279.2,87.22c-.16.23-.31.47-.46.71-3.29.08-6.64.96-9.82-.66,3.43-.02,6.85-.03,10.28-.05Z"/>
      <path class="cls-37" d="m121.19,66.28c.34-.37.68-.73,1.01-1.1,2.74,1.68,2.7,3.76.87,6.09-1.75.31-1.29-1.24-1.72-2.04-.05-.98-.11-1.97-.16-2.95Z"/>
      <path class="cls-77" d="m160.1,69.36c.43-.97,1.31-1.1,2.21-1.19.95.31,1.91.63,2.86.94-.4.91-1.28.93-2.06,1.12-1-.29-2.29.41-3.01-.86Z"/>
      <path class="cls-132" d="m224.21,74.25c-.33,1.03-1.17.86-1.95.81-.77-1.9-3.1-.42-4.07-1.89,2.04.19,4.29-.82,6.02,1.08Z"/>
      <path class="cls-124" d="m184.21,73.18c-.89,1.62-3.38-.16-4.06,1.91-.67.67-1.33.7-1.96-.06,1.17-3.33,3.98-1.33,6.02-1.84Z"/>
      <path class="cls-89" d="m133.29,83.19c-.03-.26-.06-.52-.08-.79-.4-2.23,1.23-1.93,2.54-2.03.83.25,1.53.61,1.43,1.66-1.26.51-2.27,1.84-3.88,1.16Z"/>
      <path class="cls-156" d="m137.17,82.03c-.41-.35-.83-.7-1.24-1.05.37-1.76,1.58-2.23,3.19-2.09.5.48,1,.97,1.5,1.45-.95.96-1.88,1.97-3.44,1.69Z"/>
      <path class="cls-6" d="m245.13,60.28c-.34-.69-.68-1.39-1.02-2.08.12-1.56.23-3.12.35-4.67.26-.04.5-.12.74-.24-.02,2.33-.05,4.66-.07,7Z"/>
      <path class="cls-6" d="m269.15,84.14c2.34,0,4.67,0,7.01,0-2.34,1.62-4.67,1.62-7.01,0Z"/>
      <path class="cls-6" d="m295.12,67.09c-2.31-.04-4.62-.07-6.92-.11,2.33-1.2,4.64-1.32,6.92.11Z"/>
      <path class="cls-19" d="m114.31,68.18c-2.52-.04-5.03-.09-7.55-.13,2.52-.43,5.07-2.34,7.55.13Z"/>
      <path class="cls-80" d="m121.35,69.23c.84.49.87,1.35.98,2.18.4,1.07.48,1.94-1.12,1.73-.82-.42-.96-1.17-.97-1.98.37-.64.74-1.28,1.11-1.92Z"/>
      <path class="cls-200" d="m188.89,66.04c.42.37.84.74,1.26,1.1-.64.35-1.27.7-1.91,1.05-.36-.37-.71-.74-1.07-1.11.57-.35,1.15-.69,1.72-1.04Z"/>
      <path class="cls-164" d="m205.1,55.2c.02,1.99.04,3.98.06,5.97-1.48-1.98-1.43-3.97-.06-5.97Z"/>
      <path class="cls-87" d="m178.19,75.02c.65.02,1.3.04,1.96.06,0,0,.05.14.05.14.34.21.45.4.32.6-.12.19-.24.28-.35.28-.54.07-1.08.15-1.63.22-1.23.05-2.88,1.36-3.3-1.07.67-.12,1.33-.23,2-.35.32.04.63.08.95.12Z"/>
      <path class="cls-6" d="m301.12,48.18c.91.22,1.97-1.18,2.57-.07.22.42-.9,1.55-1.4,2.36-.51-.49-1.02-.97-1.53-1.46.09-.29.21-.57.36-.84Z"/>
      <path class="cls-6" d="m261.16,54.22c1.38,1.75.99,3.55.13,5.35-.04-1.78-.08-3.57-.13-5.35Z"/>
      <path class="cls-46" d="m158.37,54.21c1.26,1.67,1.31,3.32-.07,4.95.02-1.65.05-3.3.07-4.95Z"/>
      <path class="cls-91" d="m268.29,82.12c-.65.02-1.31.03-1.96.05-.14-.27-.19-.56-.16-.86.89-.2,1.79-.45,2.12.81Z"/>
      <path class="cls-200" d="m258.07,74.19c0,.35.02.71.02,1.06-.31-.04-.61-.12-.9-.23.29-.28.59-.55.88-.83Z"/>
      <path class="cls-200" d="m288.11,83.11c.15.8-.19,1.1-.97.97.32-.32.64-.65.97-.97Z"/>
      <path class="cls-204" d="m301.14,68.18c.29-1.64-.59-3.5.88-4.93,0,2.3.01,4.59.02,6.88-.76-.44-.89-1.17-.9-1.96Z"/>
      <path class="cls-71" d="m175.24,75.24c.83,1.18,2.19.74,3.3,1.07-5.39,1.31-10.77,2.62-16.16,3.93-1.22.47-2.43.89-3.37-.5.34-1.82,1.87-2.06,3.27-2.48,1.05-.17,2.28.09,2.9-1.16,0-.29.01-.58.01-.88,3.35,0,6.69,0,10.04.01Z"/>
      <path class="cls-61" d="m276.07,93.28c.42-.39.83-.79,1.25-1.18,3.83,1.09,7.63,2.22,9.71,6.1-1.02,1.52.29,3.47-.92,4.95-.31,0-.63,0-.94,0,.56-3.72-.73-6.13-4.58-7.21-1.63-.46-3.02-1.75-4.52-2.66Z"/>
      <path class="cls-21" d="m188.2,75.14c8.67-1.69,17.33-1.67,26-.01-1.68.04-3.36.09-5.04.13-5.31.66-10.62.62-15.93.01-1.68-.04-3.36-.09-5.03-.13Z"/>
      <path class="cls-165" d="m193.23,75.28c5.31-.58,10.62-.62,15.93-.01-5.31,1.45-10.62,1.43-15.93.01Z"/>
      <path class="cls-206" d="m151.19,83.71l-.89-1.62c1.45-1.1,2.86-2.39,4.88-1.23.41.44.43.9.06,1.37-1.14,1.07-2.66,1.09-4.05,1.47Z"/>
      <path class="cls-82" d="m244.18,81.24c.43-.41.86-.82,1.29-1.23,1.74-.96,3.01-.62,3.69,1.34-.67.27-1.33.55-2,.82-.99-.31-1.99-.62-2.98-.93Z"/>
      <path class="cls-52" d="m180.16,76.1c0-.29.01-.58.03-.87,2.07.01,4.15.03,6.22.04-2.01.85-4.1,1.08-6.25.83Z"/>
      <path class="cls-30" d="m159.23,79.35c.84,1.05,2.07.71,3.15.89-1.21.94-2.6,1.17-4.08,1.12-.78-.24-1.24-.75-1.34-1.58.57-1.11,1.31-1.37,2.27-.43Z"/>
      <path class="cls-93" d="m157.15,80.16c.38.4.77.8,1.15,1.21-1.02.29-2.04.59-3.05.88-.04-.42-.07-.84-.11-1.25.24-1.32.94-1.53,2.01-.83Z"/>
      <path class="cls-57" d="m222.17,75.2c0,.31,0,.63.02.94-1.85.21-3.63-.05-5.33-.82,1.77-.04,3.54-.08,5.31-.13Z"/>
      <path class="cls-92" d="m286.11,103.15c.33-1.64-.61-3.53.92-4.95.74,1.99.37,3.95-.13,5.91-.27-.32-.53-.64-.8-.96Z"/>
      <path class="cls-188" d="m103.52,247.13c-.07-.96-.13-1.91-.2-2.87,6.19-1.65,12.42-.49,18.59-.01,3.99.31,7.95.49,11.94.45,2.67-.02,3.9-1.27,3.74-4.05-1.05-18.35,3.4-35.46,10.84-52.16,2.79-6.26,6.26-11.54,10.48-16.86,9.14-11.53,19.08-22.12,30.58-31.29,2.11-1.68,4.42-2.92,6.74-4.2l-.06.03c1.71-.89,3.37-.6,6.22.24-14.49,12.43-29.42,23.27-39.26,39.04.38,2.1,2.07,1.24,3.15,1.25,17.99.05,35.97.06,53.96.03,2.02,0,4.03,0,5.55-1.66,9.78-7.43,20.09-13.95,31.59-18.45,1.72-.67,3.35-1.46,5.23-.75.59.47,1.18.94,1.77,1.41-1.19,3.53-4.65,4.12-7.41,5.24-8.72,3.54-16.33,8.85-24.41,14.36,4.71-.02,8.94.02,13.18-.04,3.96-.05,5.79,1.67,5.74,5.7-.08,5.99.14,11.99-.07,17.98-.12,3.5.95,5.83,3.89,7.93,17.96,12.85,30.99,29.96,41.68,49.03.66,1.18,1.23,2.36,1.13,3.76.08,1.37.07,2.72-.94,3.82-2.52.23-2.75-2.04-3.55-3.46-8.09-14.33-17.45-27.7-29.33-39.2-3.45-3.35-7.28-6.24-10.93-9.33-.5-.35-.98-.74-1.52-1.04-.41-.05-.76.07-1.05.38-.49,14.59-.05,29.15-.23,43.7-.03,2.28.43,4.67-1.05,6.73-4.39.95-7.42-.86-9.46-4.68-.49-.57-.9-1.18-1.17-1.89-.19-1.09.3-1.87,1.15-2.48.44-.18.89-.26,1.36-.27.62.01,1.27.19,1.86-.02.65-.23,1.41.37,1.96-.32-.53-.38-.82-.93-1.08-1.5-1.09-2.25-2.7-3.74-5.36-3.72-1.46.25-2.95.35-4.34.91-2.27.89-4.33,2.06-5.58,4.29-.99,1.69-1.29,3.87-3.37,4.79-3.94,1.02-7.95.46-11.92.51-4.5.24-6.34,4.23-3.88,8.46.52.66,1.16,1.18,1.88,1.6.74.43,1.48.86,1.92,1.64.05.31.02.6-.05.89-.16.61-.67.99-.95,1.52.48-.17.95-.4,1.5-.28,2.96,1.89,2.03,3.43-.67,4.07-1.7.41-3.49.41-5.03,1.4-.48.21-.97.35-1.47.46-2.69-.12-6.6,2.57-6.98-2.97.81-.9,1.65-1.47,2.01-1.09-1.27-.77-3.56.63-5.61.08-2.45-.47-4.88-1-6.89-2.62-.32-.38-.46-.83-.44-1.32,1.01-1.88,3.45-2.21,4.43-4.12.61-2.66,1.72-5.35-.74-7.71-4.59-1.05-9.26.77-13.83-.47-4.45-.82-4.39-6.1-7.83-7.92-2.97-1.76-5.96-3.14-9.26-.73-1.19.81-2.75,1.16-3.4,2.67-.25.4-.81.71-.9,1-.19.61.4.24.66.23,1.27-.06,2.55-.11,3.82.04,3.81,1.78.9,3.97.38,6.02-.99,2.58-4.08,2.52-6.15,4.97,3.9-1.57,7.28-4.59,10.54-.34.19,3.85-1.95,5.9-5.35,6.99-.64.45-1.33.79-2.09,1-.53.13-1.06.18-1.61.17-.84-.04-1.64-.22-2.41-.56-2.67-.92-3.25-3.06-3.29-5.55-.06-3.82,0-7.64-.04-11.46-.02-1.64.25-3.39-1.56-4.4-2.1-.77-4.29-.64-6.43-.51-9.62.56-19.23-.06-28.85-.08-3.94-.01-7.99,0-11.47-2.41Z"/>
      <path class="cls-148" d="m267.36,309.97c-9.39,9.65-21.12,15.42-33.62,19.66-38.86,13.18-84-.02-108.35-31.49.96-1.12,2.27-1.45,3.62-1.29,15.28,1.8,30.48.39,45.68-.94,1.28.11,2.32.82,3.41,1.43.17.1.43.32.69.12-.5-.14-.73-.49-.78-1,4.65-3.13,10.18-3.25,15.36-4.59.66-.03,1.33-.05,1.97.13,3.87,1.07,9.28.67,12.94-.99,9.26-.86,18.53-.27,27.79-.25,5.02.01,8.62-1.79,10.9-6.22.86-1.34,1.73-2.68,3.04-3.65,1.81-.31,2.73.96,3.56,2.17,5.06,7.37,9.44,15.15,13.47,23.13.61,1.2,1.01,2.46.32,3.79Z"/>
      <path class="cls-148" d="m196.23,136.13c-4,3.47-7.99,6.95-11.99,10.42-9.85,8.55-18.63,18.08-26.1,28.79-.93,1.33-1.57,3.02-3.64,3.02-.93,0-1.69.5-1.72,1.44-.23,8-5.61,14.07-8.03,21.27-4.24,12.63-6.33,25.46-5.92,38.73.19,6.12.25,6.18-6.1,6.11-9.83-.11-19.63-.65-29.41-1.66-2.82-24.99,3.74-47.62,18.44-67.65,17.77-24.21,41.88-37.9,71.99-40.58.82-.07,1.65.07,2.48.11Z"/>
      <path class="cls-148" d="m298.09,261.22c-6.68-10.27-12.67-21-20.77-30.33-7.12-8.19-14.74-15.82-23.7-21.97-2.64-1.81-3.64-3.78-3.52-6.98.26-6.64-.05-13.3.14-19.94.08-2.84-.83-3.81-3.67-3.72-5.47.18-10.95.05-17.49.05,10.88-9.79,23.41-14.91,35.31-21.07,21.39,17.19,33.68,39.38,36.95,66.65,1.52,12.7.86,25.13-3.24,37.31Z"/>
      <path class="cls-148" d="m252.11,210.33c.02.25.05.51.09.76-.94,4.27-.51,8.6-.53,12.91-.05,15.22-.01,30.43,0,45.65.02-17.95.02-35.9.02-53.85,0-1.52-.03-3.03,1.58-3.89,11.52,7.85,20.47,18.22,28.75,29.26,5.68,7.57,10.03,15.96,15.13,23.89-3.27,12.52-9.74,23.35-17.81,33.29-3,3.7-6,7.45-9.85,10.36-3.27-2.6-4.11-6.7-6.03-10.11-4.48-7.95-9.73-15.42-14.28-23.33-.48-1.7-.34-3.46-.52-5.19,1.99-18.74.61-37.53,1.02-56.29q.07-3.11,2.42-3.44Z"/>
      <path class="cls-148" d="m162.39,174.16c9.26-13.69,21.59-24.33,34.4-34.48,1.27-1.01,2.57-1.98,3.96-3.04-1.68-1.24-3.17-.22-4.58-.47,6.39-2.53,12.86-.52,19.12.25,17.45,2.15,33.41,8.45,47.32,19.44-12.85,4.54-24.31,11.61-35.36,19.41-2.82,1.61-5.86,1.91-9.08,1.89-16.81-.09-33.62-.03-50.43-.06-2.28,0-4.9.45-5.35-2.94Z"/>
      <path class="cls-148" d="m103.52,247.13c15.55,1.4,31.12,1.7,46.7.77.84-.05,1.66-.09,2.27.64.54,9.83-.37,19.72,1.28,29.5,2.9,12.3,3.11,12.47,15.93,12.65,3.31.05,6.64-.19,9.93.13,1.46.14,3.96-.3,3.25,2.73-7.76,3.35-16.15,3.23-24.29,3.77-9.53.62-19.14.67-28.72-.19-2.38-.21-4.52-.86-6.57-1.96-10.43-12.2-15.92-26.64-19.02-42.14-.39-1.93-.52-3.92-.76-5.88Z"/>
      <path class="cls-183" d="m123.31,295.15c20.07,1.95,40.04,1.81,59.84-2.53,4.32-2.83,7.88-2.75,11.08.25-5.44,1.35-10.88,2.69-16.32,4.04-.49.82-1.07.67-1.69.18-13.29,1.41-26.58,2.64-39.97,1.8-3.62-.22-7.24-.49-10.86-.74-.69-1-1.38-1.99-2.07-2.99Z"/>
      <path class="cls-185" d="m250.47,276.04c7.61,10.14,14.25,20.85,19.01,32.65-.71.42-1.42.85-2.12,1.27-4.77-10.34-10.32-20.24-17.08-29.42-1.4-1.57-1.57-3.08.2-4.5Z"/>
      <path class="cls-3" d="m127.12,144.02c.02,1.68-5.45,7.47-6.27,6.88-1.41-1.02-3.63-2.9-3.38-3.9.74-2.98,3.6-4.6,6.37-5.49,1.77-.57,2.85,1.14,3.29,2.51Z"/>
      <path class="cls-198" d="m119.78,137.76c-1.34,2.28-3.07,4.58-5.91,5.14-.7.14-2.88-2.52-2.62-3.08,1.17-2.55,3.31-4.54,6.23-4.94,1.46-.2,2.27,1.1,2.29,2.88Z"/>
      <path class="cls-5" d="m277.2,126.89c1.98,1.99,5.54,2.5,5.91,5.96.17,1.59-1.2,2.95-2.87,2.57-2.71-.61-5.52-1.85-6.36-4.6-.36-1.17,1.25-3.18,3.32-3.93Z"/>
      <path class="cls-4" d="m221.28,351.51c2.42-.11,4.26.66,3.84,2.96-.67,3.73-4.27,2.93-6.8,3.56-3.16.79-2.6-2.2-2.63-3.5-.1-4.59,4.17-1.45,5.59-3.02Z"/>
      <path class="cls-184" d="m321.01,209.9c-3.25-.18-5.78-1.86-6.1-5.9-.33-4.17,3.84-7.68,9.15-7.8,3.72-.08,6.78,2.81,6.82,6.45.04,3.7-4.33,7.09-9.87,7.25Z"/>
      <path class="cls-186" d="m173.27,109.84c-.19-1.98-.52-3.34,1.13-3.56,2.25-.31,4.77-1.26,6.7.41,3.2,2.76,3.41,6.71,2.92,10.51-.46,3.54-3.62,3.74-6.44,4.24-1.58.28-2.41.15-2.66-1.68-.49-3.59-1.19-7.16-1.66-9.91Z"/>
      <path class="cls-186" d="m245.74,123.4c.05-4.9,3.89-9.58,7.82-9.28,3.85.3,6.13,2.45,6.09,6.44-.04,4.88-4.04,9.7-7.86,9.37-3.82-.33-5.97-2.56-6.05-6.53Z"/>
      <path class="cls-184" d="m205.32,360.88c0,5.13-2.52,8.28-6.57,8.2-3.88-.07-6.4-3.21-6.36-7.91.05-5.1,2.59-8.21,6.67-8.15,4.03.05,6.25,2.84,6.25,7.86Z"/>
      <path class="cls-120" d="m252.74,352.53c-1.56.88-3.64,2.81-4.78,1.7-1.72-1.68-.87-4.57-.92-7.12q3.41,2.1,5.7,5.41Z"/>
      <path class="cls-172" d="m228.65,113.08c-1.17-.83-4.35.56-3.97-2.53.19-1.55-.83-5.04,2.92-4.44,2.35.37,5.39.48,5.47,3.85.06,2.44-1.79,3.31-4.42,3.12Z"/>
      <path class="cls-130" d="m121.21,73.13c.37-.58.75-1.15,1.12-1.73,1.84-2.11,1.42-4.18-.13-6.23-.16-3.27-2.34-4.89-5-6.13-1.36-1.26-2.91-2.07-4.82-1.95-.7-.86-2-2.34-.13-2.57,9.27-1.13,18.3-4.33,27.82-3.29-2.05,3.72-2.9,7.44.05,11.15.24,2.25,1.84,3.51,3.66,4.18,2.77,1.03,3.3,2.7,2.2,5.21-2.29,2.37-4.57,4.74-6.86,7.11-1.06.7-2.13,1.39-3.19,2.09-1.05.21-2.22.18-2.72,1.42-1.92-.12-3.84-.25-5.75-.38-1.53-.86-3.05-1.73-4.59-2.58-2.75-1.53-3.43-3.6-1.65-6.31Z"/>
      <path class="cls-67" d="m184.09,42.95c.03,1.76.06,3.52.09,5.29-1.38-1.74-1.23-3.5-.09-5.29Z"/>
      <path class="cls-46" d="m160.29,59.36c0-1.81.02-3.62.03-5.42,1.09,1.81,1.16,3.62-.03,5.42Z"/>
      <path class="cls-114" d="m249.16,81.35c-1.23-.45-2.46-.89-3.69-1.34-1.7-.59-3.4-1.2-5.1-1.78-1.83-.63-.73-1.31-.04-1.98.53-.68,1.16-.59,1.82-.24,2.33.47,5.24-2.7,7.04,1.13-.41,1.4,3.6,2.83-.02,4.21Z"/>
      <path class="cls-21" d="m195.34,71.24c2.38,2.05,5.26.35,7.82,1.03.33.13.45.28.36.46-.09.19-.18.28-.28.28-2.75.05-5.58.54-8.22.02-2.51-.5-.37-1.25.32-1.79Z"/>
      <path class="cls-170" d="m203.24,73.01c-.03-.25-.06-.49-.08-.74,1.31-.43,3,.57,3.98-1.08.68.34,1.36.67,2.03,1.01-1.78,1.74-3.94.64-5.93.81Z"/>
      <path class="cls-149" d="m157.15,80.16c-.67.28-1.34.56-2.01.83-1.61.37-3.22.74-4.83,1.11-.03-.64-.06-1.27-.09-1.91,2.56-.12,3.11-2.21,3.93-4.03,1.08-1.55,2.67-.86,4.09-.93,1.14,1.06,2.63.78,3.97,1.06.64.45,1.62.72.97,1.85-1.31.4-2.63.81-3.94,1.21-.7.27-1.39.54-2.09.8Z"/>
      <path class="cls-78" d="m242.14,76.01c-.61.08-1.21.16-1.82.24-1.06-.25-2.33.11-3.12-1,.87-.09,1.74-.18,2.61-.27.78.34,1.55.69,2.33,1.03Z"/>
      <path class="cls-200" d="m196.98,55.28c.91,1.58.79,3.22.27,4.87-1.69-.9-.47-3.04-1.75-4.11.17-.88.9-.67,1.48-.76Z"/>
      <path class="cls-11" d="m163.17,78.14c-.32-.62-.64-1.23-.97-1.85.99-.06,1.99-.12,2.98-.18.82,2.15-.91,1.78-2.01,2.03Z"/>
      <path class="cls-152" d="m223.1,188.54c4.36-1.18,5.01,1,4.14,4.56-.8.84-1.73.69-2.75.49-.62-.12-.91.56-.28.33.03-.01.16.24.24.36-.64.3-1.28.6-1.92.9-1.43,3.27-1.27,6.55-.1,9.85,2.8.72,4.53,2.04,4.06,5.42-.5,3.6-3.15,1.95-4.96,2.42-1.77.46-4.81-1.1-5.13,1.29-.45,3.44-1.42,7.26.9,10.56.95,1.35,1.93,2.76,3.17,3.81,7.38,6.27,5.69,14.36,4.63,22.34-5.62-.52-11.24-.51-16.86,0-1.49-3.33-.58-6.83-.63-10.24-.07-4.55-2.71-5.64-6.49-5.61-3.68.04-5.96,1.47-6.05,5.6-.07,3.44,1.59,7.94-.74,10.05-2.48,2.24-6.99.67-10.61.73-6.54.12-5.72-.1-6.74-6.56-1.57-9.94,4.68-15.61,10.05-22,1.04-3.25,1.3-6.48-.18-9.68-2.48-.11-4.97-.19-7.45-.33-1.1-.06-2.61.34-2.9-1.19-.34-1.76-.97-4.39.45-5.2,5.89-3.4,2.99-7.85,1.97-12.14-.89-1.09-3.52,0-3.22-2.58.04-1.48-.07-2.81,2.08-3.15,3.74-.59,7.41.15,11.11.13,1.89-.02,1.71,1.57,1.79,2.84.75,2.1-1.85,1.52-2.22,2.74-2.87,3.16-2,7.35-.89,10.23,1.22,3.19,5.54,1.05,8.48,1.4,2.22.26,2.13-1.52,2.13-3.04,0-3.15-.01-6.3,0-9.45.02-2.46.59-4.91-3.49-4.88-2.79.02-1.32-2.81-1.6-4.39-.3-1.7.63-2.33,2.31-2.3,3.98.07,8-.32,11.93.11,4.67.51,2.64,3.64,1.84,6.13-1.99.58-5.26-1.48-5.51,2.68,0,4.12-.04,8.23.03,12.35.02,1.02-.58,2.39,1.02,2.9,1.16-.02,2.33-.04,3.49-.05,7.68-.03,8.62-1.13,7.62-8.83-.13-1.01-.06-2.12-1.33-2.32-4.04-.62-2.51-3.43-2.33-5.73,3.6-.97,7.29-.35,10.93-.57Z"/>
      <path class="cls-43" d="m194.23,292.86c-3.67-1.13-7.38-.41-11.08-.25-5.71-.95-11.47-.29-17.2-.39-8.65-.15-10.98-1.96-12.75-10.33-.2-.95-.58-1.86-.87-2.79.81-1.91.35-3.92.38-5.88.04-2.67,1.29-3.13,3.5-2.22l1.87.26c.34.99-.63,1.47-.82,2.25.36.82,1.12,1.21,1.75,1.72,1.01.79,2.29,1.31,2.81,2.63,3.57,3.64,6.9,1.67,10.22-.44,1.89-3.34,5.51-.61,7.91-2.24.54-.37-.27.03.22-.4.16-.14-.18-.56-.55-.69-1.03-.66-2.29-1.21-1.08-2.73,3.48-2.2,7.04-2.36,10.68-.43,2.35.7,4.7,1.39,7.05,2.09.11.21.22.42.33.63-.14.46-.41.84-.8,1.12-1.83,1.07-4.01.96-5.9,1.66-1.94.72.04,1.13.47,1.62.42.22.79.49,1.12.81.71,1,1.05,2.12,1.1,3.34-.23,1.38-1.28,2-2.4,2.55-.46.18-.93.31-1.42.4-1.72.19-3.43.24-5.14-.06-.48-.12-.92-.34-1.32-.62-.77-1-.26-1.77.44-2.5.38-.24.81-.36,1.26-.4.35-.46,1.79,1.07,1.36-.77-2.57-.74-4.96-.39-7.19.86,1.14.67,2.8.4,3.36,1.98.06,2.18,1.81,2.92,3.34,2.88,3.94-.08,7.86-.68,11.63-1.95,2.29-2.51,3.43.73,5.17,1.02.68.09,1.36.17,2.04.22,1.41.16,2.9.17,3.77,1.59.29,3.11-2.28,2.98-4.19,3.71,1.16.36,2.44-.19,3.51.53.15.17.3.35.45.52-.11.12-.24.23-.34.35-3.19,3.98-6.39,7.16-10.38.73-.27-.44-1.53-.26-2.33-.37Z"/>
      <path class="cls-146" d="m152.64,191.79c0,16.97.14,33.93-.09,50.9-.06,4.77-4.46,2.62-6.98,3.24-1.98.49-3.93.5-4.1-2.61-.96-18.07,2.14-35.3,11.17-51.52Z"/>
      <path class="cls-47" d="m207.21,288.11c-1.06-1.54-2.7-.89-4.12-1.1-.18-1.57,1.14-1.59,2.08-2.03,1.14-.53.25-.81-.17-1.15-.58-.37-.97-.84-1.07-1.54.14-.46.36-.87.67-1.25.65-.75,1.34-1.46,2.3-1.83,2.24-.5,4.46-.91,6.36.92.21.71.02,1.2-.77,1.36-.42.08-.85-.03-1.27.1.32,0,.63.04.96.15.38.24.67.54.91.9,1.02,2.16,2.66,3.4,5.05,2.71,1.73-.5.44-1.37-.08-2.06-.23-.39-.35-.8-.4-1.23-.43-3.02-3.06-3.01-5.14-3.65-1.52-.46-3.33.07-4.58-1.34,1.06-2.49,3.15-1.72,5.05-1.62.95.05,2.1.14,2.17-1.24.05-1.07-.86-1.21-1.7-1.27-.4-1.7,1.05-1.62,1.97-2.05,2.49-.29,4.98-.19,7.47-.1,1.39.06,2.68.57,4.03.82,4.24.96,8.6.86,12.88,1.47.74.27,1.35.7,1.64,1.47-.23,2.1-2.17,2.1-3.69,2.92,3.83.55,7.14-2.64,10.89-1.03,1.59,1.38,1.14,3.02.61,4.67-2.44.85-4.82,2.35-7.4,2.23-2.6-.12-2.03,1.94-2.86,3.05-3.59,1.87-7.45.64-11.15,1.03-.41.1-1.19.02-1.04.6.22.86,1.25.91,1.97,1.25,2.58.74,5.16.71,7.73.04,1.54-.45,2.39-1.64,3.14-2.93,1.34-1.91,3.73-1.14,5.42-2.16.81-.42,1.62-.82,2.57-.55.17.15.34.29.52.44-1.71,5.76-4.47,8.03-10.12,8.05-10.25.04-20.5-.01-30.75-.03,0,0-.07-.07-.07-.07-.76-1.32,1.69-2.64,0-3.96Z"/>
      <path class="cls-187" d="m240.21,274.08c-4.79.96-9.34-.93-14.03-1.2-1.31-1.44.54-1.94.81-2.87-1.61-.17-2.83-.87-3.58-2.3-.97-2.51-.83-4.46,2.44-4.82,6.08-1.05,8.84,3.83,12.56,7.19-1.26-2.01-2.46-3.88-1.85-6.29.39-.99,1.19-1.46,2.17-1.72,2.04-.35,4.05-.18,5.51,1.38,1.67,1.78,2.83.75,4.1-.39,1.4-1.57.8-3.48.81-5.24.05-14.92-.02-29.84.1-44.76.01-1.38-1.44-5.4,2.87-2.74-3.47-.06-1.82,2.61-1.83,3.94-.12,16.98-.07,33.95-.09,50.93,0,1.99-.12,3.99-.18,5.98-2.69,2.9-6.32,2.62-9.79,2.91Z"/>
      <path class="cls-117" d="m178.44,256.99c5.2.79,10.48-1.44,15.66.4.95.9.44,1.5-.4,2.03-2.75,1.56.34,2.5.42,3.75.57,1.34.83,2.69.22,4.1-.86,2.44-3.37,2.05-5.11,2.97-1.18.23-3.5.52-2.9-.82,1.93-4.35-1.6-3.37-3.41-4.13-3.7-.23-7.58-3.21-10.99.75-.96,1.58-2.14,3-3.47,4.24-2.79,2.62-5.57,2.64-8.21-.28,3.23-.74,5.1-2.81,5.85-5.98.8-1.06.4-2.64,1.54-3.55,1.28-1.41,3.49-.12,4.72-1.67.74-.89,1.25-2,2.46-2.39,1.26-.12,2.46.12,3.63.58Z"/>
      <path class="cls-119" d="m237,264.11c.75,2.68,1.05,5.78,5.25,5.41-3.17,1.89-5.8,2.41-7.86-1.35-1.73-3.16-4.57-4.54-8.21-4.12-2.45-1.5-4.3.62-6.41,1.09-2.21.98-4.96,1.05-6.14,3.73-.81.73-1.72.75-2.69.37-.73-.17-1.54-.22-1.76-1.17-.9-1.88-.74-3.64.54-5.29,1.06-1.4,1.88-2.9,1.86-4.72.08-.43.29-.8.6-1.11,4.57-.31,9.16.65,13.72-.21,2.04-.42,3.04,1.78,4.86,1.93,1.6.29,3.24.49,4.5,1.69,1.08,1.02,1.4,2.4,1.74,3.76Z"/>
      <path class="cls-143" d="m162.39,174.16c1.26,1.97,3.18,1.99,5.24,1.99,17.47-.05,34.95-.2,52.41.16,2.63.05,4.55-2.96,7.21-1.04-1.5,1.88-3.21,3.1-5.84,3.1-20.36-.07-40.71-.04-61.24-.04-.34-2.14,1.27-2.98,2.21-4.17Z"/>
      <path class="cls-137" d="m173.19,260.01c-1.24,2.3-3.5-.09-4.99,1.07-3.31,2.71-5.37,1.04-7.04-2.01-.52-1.22.36-1.7,1.12-2.34,2.22-1.87.46-2.24-1.07-2.66-.48-1.03-.36-2.13-.33-3.22.19-.66.64-1.16,1.05-1.68,3.1.46,6.2.3,9.29-.11,2.03.98,4.16,1.8,4.02,4.72-.1,2.11,2.08,2.18,3.19,3.2-1.42.03-2.83.06-4.25.09-.7.85-1.64,1.62-1,2.93Z"/>
      <path class="cls-140" d="m234.96,261.07c-1.45-1.09-3.14-1.04-4.82-1.02-1.98-2.38-3.54-4.86-2.12-8.13,1.59-2.02,3.58-3.42,6.1-4,1.51.35,2.28,1.51,3,2.72,1.19,1.57,1.68,3.45,2.35,5.26.26.32.52.63.78.95,1.91,2.24,1.14,4.05-.9,5.66-1.81.57-3.12-.37-4.39-1.44Z"/>
      <path class="cls-7" d="m160.24,270.01c5.83,3.02,8.1-1.61,10.92-5.07,2.12-2.3,4.87-1.87,6.98-.69,1.76.98.94,3.12-.18,4.65-3.53.38.04,2.63-.96,3.69-1.23.87-2.65,1.24-4.09,1.56-2.29.31-4.58.26-6.87.1-.5-.04-1-.15-1.49-.28-.96-.28-1.92-.54-2.91-.7-1.09-.42-2.68-.31-2.45-2.2.35-.35.69-.71,1.04-1.06Z"/>
      <path class="cls-144" d="m253.26,211.89c-1.2,1.95-1.1,4.12-1.1,6.29.02,15.99,0,31.98,0,47.97v4.88c-.33,0-.66,0-.99-.01v-13.79c0-13.66-.02-27.31.03-40.97,0-1.75-.67-3.71.99-5.17.35.27.71.54,1.06.81Z"/>
      <path class="cls-154" d="m190.11,193.15c.46-2.89-.54-4.33-3.69-4.05-2.11.19-4.27.19-6.38,0-3.07-.28-4.2,1.07-3.87,3.98-.24.44-.52.43-.82.05-.11-2.34-1.28-5.19,3.08-4.99,1.63.08,1.65-.36-.23-3.04-.59-.61-.59-1.22-.02-1.84,3.33,1.45,6.37-.15,10.06-1.38-.97,2.76-2.92,4.03-4.27,5.76,2.24,1.55,5.4-.76,6.86,1.56.77,1.22,1.05,3.5-.6,4.99-.28-.2-.4-.42-.34-.66.06-.25.13-.38.21-.38Z"/>
      <path class="cls-181" d="m213.2,268.05c-.15-4.39,4.32-1.87,5.77-3.87,2.35.7,2.77,3.46,4.82,4.49,1.53,1.45,3.7.38,5.34,1.38,0,1.96-3.3.49-2.95,2.83-.91-.34-1.82-.68-2.73-1.02-2.79-.38-5.59-.68-8.36.13-.7.07-1.42.1-1.65.97-3.51-.53-.17-1.76-.28-2.64.48-.75,1.32-1.49.03-2.26Z"/>
      <path class="cls-153" d="m223.1,188.54c-3.59,1.1-7.28.39-10.93.57,2.07-1.96,4.77-.06,7.06-1.23-.84-2.13-3.51-2.96-4.16-6.13,4.12,2.37,7.91,2.45,11.88.46,1.6-.8,3.24.22,3.15,2.74-2.64.52-6.65-1.3-7.01,3.59Z"/>
      <path class="cls-1" d="m177.21,271.95c-.52-.98-4.63-1.01-.83-3.13,3.87.75,5.06-2.55,7.04-4.65.78.2,1.65.24,2.31.64,1.36.85,3.8-.08,4.23,1.88.44,2.03-2.81,1.15-3.17,3.1.83.16,1.63.31,2.43.46.01.22.01.44,0,.67-3.69.16-7.47-.39-10.99,1.27-.42.22-.76.13-1.03-.24Z"/>
      <path class="cls-128" d="m161.17,259.08c2.31.8,3.96,3.9,7.04,2.01-.57,1.08-.84,2.37-2.11,2.95-2.75-1.79-5.53-1.32-7.63.76-.85.85-1.04,2.44-2.65,1.94-.58-.18-1.14-1.2-1.27-1.91-.29-1.62.47-2.9,1.97-3.59,1.55-.71,3.76,0,4.65-2.15Z"/>
      <path class="cls-127" d="m213.5,280.91c-2.39-.39-4.78-.78-7.16-1.17-1.25-1.38.03-1.95.85-2.67.25-.1.5-.1.74.02,3.58-.02,7.09.23,10.39,1.91,2.41,1.23,1.2,2.08-.13,3.03-1.28,1.26-2.58.85-3.89.04-.37-.31-.64-.7-.8-1.16Z"/>
      <path class="cls-134" d="m239.35,262.02c0-1.78,2-3.2.9-5.17,1.49,3.63,5.66,3.78,8.08,6.21-.18,1.37.49,3.22-1.36,3.76-1.49.43-2.07-.79-2.61-2.13-.94-2.38-3.61-.58-5.12-1.79-.34-.24-.44-.45-.29-.63.13-.16.27-.25.4-.25Z"/>
      <path class="cls-96" d="m207.18,277.07c-.28.89-.57,1.78-.85,2.67-.16.96-.34,1.91-1.53,2.12-1.07-1.2-2.5-1.5-4.03-1.56-1.82-.1-3.65.1-5.45-.32-.44-.14-.84-.37-1.19-.67-.49-.93-.06-1.72.39-2.5.54-.88,1.09-1.76,1.61-2.66l.02-.05c1.6-.51,3.36-1.66,4.18,1.03.1,2.02.51,3.39,3.09,2.3,1.11-.47,2.5-.26,3.76-.37Z"/>
      <path class="cls-169" d="m156.21,271.01c-2.13-.05-3.18.78-3.06,3.12.08,1.66.71,3.54-.82,4.98.06-10.2.11-20.39.17-30.58.96,5.67.31,11.38.36,17.07.02,2.69.34,4.78,3.36,5.42Z"/>
      <path class="cls-113" d="m241.02,254.27c-.18.04-.37.06-.56.06-1.88.37-1.78-1.64-2.8-2.32-.9-2.09.11-3.63,1.46-5.07,2.9-.12,4.69,1.35,5.68,3.96-1.31,1.06-1.68,3.19-3.78,3.36Z"/>
      <path class="cls-141" d="m171.23,249.07c-2.85,1.79-5.87,2-9.02.99-1.07.2-1.44-.21-1.1-1.25.56-4.2,3.5-1.43,5.32-1.71,1.85-.28,3.46.68,4.81,1.96Z"/>
      <path class="cls-138" d="m211.15,262.96c-1.57,1.36-2.27,3.05-1.97,5.12-.7-1.62-1.55-3.06-4.4-2.39,1.62-1.96,4.34-1.96,3.31-4.86-1.29-3.66,1.26-4.11,4.1-3.88,0,.35,0,.7,0,1.05-.74,1.57-2.4,2.94-1.04,4.95Z"/>
      <path class="cls-168" d="m204.72,206.03c-2.61-1.32-1.38-3.74-1.48-5.67-.19-3.74-.05-7.5-.05-11.25.4-.42.78-.38,1.15.05.13,5.62.26,11.24.38,16.86Z"/>
      <path class="cls-168" d="m208.25,250.87c5.62-1.31,11.24-1.32,16.86,0-5.62.86-11.24.87-16.86,0Z"/>
      <path class="cls-180" d="m161.25,251.06c.62,1.01.62,2.01-.03,3.01-1.51,1.37-3.1-.02-4.43-.27-1.37-.25,1.07-1.62.35-2.69,1.36-.88,2.73-1.21,4.12-.05Z"/>
      <path class="cls-129" d="m239.12,246.95c-.31,1.7-.62,3.4-.94,5.09-1.07.65-1.41-.31-1.93-.87-.71-1.08-1.42-2.17-2.13-3.25,1.41-1.63,3.34-.61,5-.98Z"/>
      <path class="cls-177" d="m241.02,254.27c.31-2.19,1.66-3.21,3.78-3.36.46,1.25,1.42,2.05,3.67,3.32-3.3-.73-5.16,1.85-7.46.03Z"/>
      <path class="cls-174" d="m193.26,259.05c.28-.55.56-1.1.84-1.66,2.16,3.25,1.16,6.57.24,9.89-.39-1.43-.77-2.86-1.16-4.3-.8-1.33-1.22-2.65.08-3.93Z"/>
      <path class="cls-182" d="m228.02,251.92c-1.26,3.22,2.79,5.06,2.12,8.13-1.41-1.1-2.82-2.2-4.23-3.31.7-1.61,1.41-3.21,2.11-4.82Z"/>
      <path class="cls-35" d="m178.19,183.26c0,.61.01,1.23.02,1.84h-5.55c.57-4.95,3.49-2.03,5.53-1.84Z"/>
      <path class="cls-168" d="m186.87,213.18c2.48,3.07,1.13,6.54.98,9.87,0,.03-.28.09-.41.06-.15-.04-.27-.17-.4-.26-.06-3.23-.12-6.45-.18-9.68Z"/>
      <path class="cls-31" d="m204.34,189.16c-.38-.02-.76-.03-1.15-.05,1.61-2.58,3.66-2.65,5.99-1.02-1.61.36-3.23.71-4.84,1.07Z"/>
      <path class="cls-150" d="m200.33,275.13c-1.07-1.66-2.62-1.38-4.18-1.03.04-.37.09-.73.13-1.1,2.43.24,5.08-.68,7.32,1.19-.98,1.3-2.24.68-3.27.94Z"/>
      <path class="cls-32" d="m222.44,205.03c-1.94-3.3-2.11-6.59.1-9.85-.03,3.28-.07,6.57-.1,9.85Z"/>
      <path class="cls-175" d="m213.2,268.05c1.13.15,2.32.14,3.27,1.36-.84,1.25-2.17.77-3.31.9-.74-.35-1.48-.7-2.22-1.05.83-.26,1.85-.15,2.25-1.2Z"/>
      <path class="cls-139" d="m161.25,251.06c-1.37.02-2.74.03-4.12.05.39-2.38,2.41-1.94,3.97-2.29.37.42.73.83,1.1,1.25-.32.33-.64.67-.96,1Z"/>
      <path class="cls-199" d="m236.25,251.18c.64.29,1.29.58,1.93.87.76.76,1.51,1.53,2.27,2.29-.33.52-.66,1.05-.99,1.57-1.61-1.21-2.64-2.81-3.21-4.73Z"/>
      <path class="cls-160" d="m159.2,271.07c.72.99,1.84.89,2.86,1.06-1.9,3.64-4.43,2.07-6.92.83.47-1.44,2.25-.62,2.93-1.7.38-.06.75-.13,1.13-.19Z"/>
      <path class="cls-167" d="m224.46,194.28c-.31-.1-.69-.13-.92-.32-.49-.4-.37-.78.26-.82,1.15-.06,2.3-.03,3.45-.04-.08,2.4-1.58,1.45-2.79,1.18Z"/>
      <path class="cls-167" d="m175.36,193.13c.27-.02.55-.04.82-.05.87.51,2.7-1.1,2.76,1.24-1.38.17-3.12,1.44-3.57-1.18Z"/>
      <path class="cls-167" d="m190.11,193.15c.04.35.08.7.13,1.04-.55.7-1.16.44-1.77.09-.42-.2-.84-.39-1.26-.59.78-1.19,1.94-.35,2.9-.55Z"/>
      <path class="cls-22" d="m240.21,274.08c2.98-1.93,6.56-1.82,9.79-2.91.15,1.62.31,3.25.47,4.87-.06,1.5-.13,3-.2,4.5-.18,1.51-.44,2.97-2.14,3.58,0,0-.15-.3-.15-.3-.7-1.02-.67-1.96.29-2.8,1.28-1.45,1.28-2.8-.29-4.05-1.69-2.65-5.16.67-6.84-2.03l-.95-.87Z"/>
      <path class="cls-123" d="m176.21,297.07c.56-.06,1.13-.12,1.69-.18.76.12,1.53.23,3.33.5-2.45.74-3.82,1.11-5.02-.32Z"/>
      <path class="cls-144" d="m251.91,179.15v25.7c-.14,0-.28,0-.41,0v-25.7c.14,0,.28,0,.41,0Z"/>
      <path class="cls-8" d="m206.27,221.15c.84,4.1-1.8,6.33-4.72,7.94-1.51.83-4.95-4.54-5.3-7.4-.48-4.01,1.36-4.89,4.88-4.55,2.72.27,6.2-.81,5.14,4.01Z"/>
      <path class="cls-32" d="m181.4,203.9v-7.56c.16,0,.33,0,.49-.01v7.56c-.16,0-.33.01-.49.02Z"/>
      <path class="cls-32" d="m205.16,215.83h-6.94c0-.16,0-.32,0-.48h6.94c0,.16,0,.32,0,.48Z"/>
      <path class="cls-2" d="m197.1,285.2c.18,1.07.34,3.23-.89,2.44-3.47-2.21-6.35.12-9.47.3-3.92.22-5.66-1.06-5.56-3.96.35-.36.7-.36,1.05,0,.19.21.42.29.69.21,2.13.5,4.25.78,6.35-.09.34.03.64-.05.93-.23,2.46-.4,5.21-2.27,6.9,1.34Z"/>
      <path class="cls-171" d="m174.14,284.53c-4.59.8-9.04,1.53-13.45,2.52-1.72.39-3.71-.14-3.61-2.25.13-2.8,2.06-.95,3.24-.78,2.06.3,3.87-.53,5.74-1.11,2.9-.91,5.67-.98,8.08,1.62Z"/>
      <path class="cls-136" d="m165.08,273.14c2.82.02,5.65.04,8.47.06,2.64-.65,5.29,1.04,7.93-.03.97.25,1.98.5,1.94,1.78-.04,1.37-1.35,1.04-2.08,1.52-2.61,1.68-5.96-.88-8.35,1.62-.76.77-1.63.82-2.57.38-.52-3.04-4.38-2.72-5.34-5.32Z"/>
      <path class="cls-118" d="m201.47,279.17c1.45.48,4-.41,3.33,2.7-.24-.02-.43.07-.58.27-4.01,2.66-8.05,1.77-12.1.13-1.5-.7-.81-2.12-1.07-3.23,1.06-.86,2.1-.83,3.12.06h-.01c2.43.81,4.87.66,7.31.07Z"/>
      <path class="cls-9" d="m165.08,273.14c1.77,1.42,6.63-.3,4.83,4.75-2.88,2.23-5.79,2.26-8.71.08l-2.96-1.97c1.94-1.12,4.05-1.91,5.97-3.06.26.19.55.26.87.2Z"/>
      <path class="cls-189" d="m161.2,277.97c2.9-.03,5.81-.05,8.71-.08,1.02.06,2.05.13,3.07.19-1.93,2.97-10.65,4.11-12.43,1.55-.19-.27.41-1.1.65-1.67Z"/>
      <path class="cls-173" d="m196.13,274.15c.89,1.41.33,2.38-.95,3.13-1.47,1.14-3.38,1.02-4.99,1.77-1.88-.04-3.91-.85-3.74-2.66.21-2.31,2.58-.94,4-1.2,1.9-.35,3.8-.69,5.7-1.04Z"/>
      <path class="cls-178" d="m184.21,282.12c-.34,0-.67-.01-1.01-.02-2.66.49-5.35,1.33-7.86-.52,3.59-3.37,7.64-3.14,11.87-1.53.83,3.35-1.25,2.47-3,2.06Z"/>
      <path class="cls-176" d="m174.31,290.13c-1.77-.22-4.76,1.41-4.93-1.15-.16-2.44,3.14-1.27,4.85-1.74,1.71-.48,4.52-.33,4.46,1.63-.09,2.82-2.95.42-4.38,1.25Z"/>
      <path class="cls-34" d="m192.12,282.26c4.05,1.15,8.07.15,12.1-.13.38.34.75.68,1.13,1.03-.16,2.52-3.68,1.49-4.01,3.82-2.26,1.43-1.57-4.17-4.24-1.78-2.1-1.48-4.5-1.4-6.9-1.33.64-.53,1.28-1.07,1.92-1.6Z"/>
      <path class="cls-191" d="m207.21,288.11c.93.12,2.27-.13,2.52.93.43,1.85-1.96,1.75-2.52,3.03-2.09.32-4.2,1.02-6.25-.14-.76-.43-1.22-1.14-.99-2.04.29-1.12,1.21-1.05,1.94-.66,2.12,1.12,3.77.39,5.29-1.12Z"/>
      <path class="cls-121" d="m164.21,272.94c-.57,3.79-3.42,3.14-5.97,3.06-1.07-.98-3.36-.71-3.09-3.04,2.25-.77,4.83,1.29,6.92-.83.85-.09,1.63,0,2.15.81Z"/>
      <path class="cls-179" d="m201.34,286.97c-1.47-1.47-2.29-2.77.83-2.91,1.14-.05,2.32.1,3.18-.91,1.57.09,3.7-.13,3.64,2.02-.05,1.74-2.09.68-3.18,1.06-.89.31-1.82.52-2.73.78-.58-.01-1.16-.03-1.75-.04Z"/>
      <path class="cls-95" d="m181.47,273.17c-2.64.98-5.28,1.75-7.93.03.95-1.2,2.37-1.03,3.66-1.25.34.08.69.16,1.03.24.84,1.11,2.12.77,3.24.97Z"/>
      <path class="cls-9" d="m175.34,281.58c2.54,1.37,5.27-.13,7.86.52-.33.62-.65,1.25-.98,1.87-.35,0-.7,0-1.05,0-1.41-2.11-4.78.59-5.83-2.39Z"/>
      <path class="cls-9" d="m189.27,284.09c-2.1,1.47-4.22,1.23-6.35.09,2.12-.03,4.24-.06,6.35-.09Z"/>
      <path class="cls-9" d="m184.21,282.12c1.35-.18,3.72,1.12,3-2.06.99.66,1.33,1.62.44,2.43-1.14,1.04-2.4.78-3.44-.37Z"/>
      <path class="cls-9" d="m190.18,279.05c1.66-.59,3.33-1.18,4.99-1.77-.34.6-.67,1.21-1.01,1.81-1.04-.02-2.08-.04-3.12-.06,0,0-.43.04-.43.04l-.43-.02Z"/>
      <path class="cls-125" d="m228.2,290.15c-1.39-.7-3.51-.27-4.03-2.28-.34-1.29.75-1.61,1.8-1.73,4.63,1.38,9.52-.7,14.11,1.1.29,2.24-1.57,2.3-2.91,2.89-2.99.66-5.98.63-8.96.01Z"/>
      <path class="cls-190" d="m241.16,274.95c1.94.17,3.8-.26,5.7-.55,2.72-.41,2.76.82,1.14,2.57-3.36.71-6.71,1.58-10.1,2.07-1.3.19-3.5.23-3.56-1.65-.05-1.75,1.9-1.35,3.16-1.35,1.34,0,2.65-.02,3.66-1.1Z"/>
      <path class="cls-133" d="m224.74,277.75c-1.39-.37-5.12.38-4.9-1.59.34-3,3.9-1.79,6.22-1.79.63,0,1.24.47,1.88.56,1.13.16,2.58-.02,2.27,1.73-.22,1.21-1.4,1.15-2.42,1.09-.82-.05-1.65,0-3.06,0Z"/>
      <path class="cls-197" d="m248.29,281.03c-.1.93-.2,1.87-.29,2.8-.79-.1-1.53-.06-1.92.8-2.18,1.71-4.59.82-6.94.59-.76-.9-3.07-2.94-1.01-2.74,3.71.36,6.68-2,10.15-1.44Z"/>
      <path class="cls-192" d="m231.98,284.32c-3.01-.2-5.22-1.34-7.49-2.33-.77-.34-1.59-.81-1.08-1.81.43-.85,1.31-.8,2.16-.62,2.71.57,5.22,2.09,8.16,1.54.69-.13,1.39.44,1.23,1.17-.41,1.81-1.92,2.01-2.98,2.06Z"/>
      <path class="cls-196" d="m218.24,283.28c1.42-.06,3.47-.79,3.73,1.18.25,1.95-2.11,1.83-3.35,2.13-2.85.69-5.62.59-6.31-3.23,1.94-2.49,3.95.36,5.92-.08Z"/>
      <path class="cls-65" d="m239.14,285.21c2.32-.08,4.71.58,6.94-.59-1.13,2.87-4.69.16-6,2.62-4.65-1.05-9.58,1.51-14.11-1.1,4.37-.64,8.9.94,13.18-.93Z"/>
      <path class="cls-68" d="m218.24,283.28c-1.95,1.71-3.97-1.13-5.92.08-.04-.43-.08-.86-.12-1.29.46-.72,1.45-.33,1.96-.94,1.34.3,2.68.6,4.02.89.02.42.04.83.06,1.25Z"/>
      <path class="cls-33" d="m228.2,290.15c2.99,0,5.98,0,8.96-.01-2.99,1.5-5.97,1.47-8.96.01Z"/>
      <path class="cls-161" d="m215.09,271.98c2.77-1.38,5.56-1.41,8.36-.13-2.79.04-5.58.09-8.36.13Z"/>
      <path class="cls-53" d="m214.16,281.14c-.44.77-1.17.91-1.96.94-.94,0-1.88,0-2.81,0-.02-.24-.05-.49-.07-.73,1.39-.15,2.79-.29,4.18-.44.27-.07.49,0,.67.23Z"/>
      <path class="cls-135" d="m222.8,269.24c-3.32-.15-2.53-3.39-3.83-5.06,2.39-1.11,4.78-2.02,7.21-.12-3.11.14-2.06,2.36-2.03,4.07.12,1.06-.25,1.53-1.35,1.11Z"/>
      <path class="cls-195" d="m239.35,262.02c-.05.29-.08.58-.11.88-.95.03-1.85.15-2.24,1.22-1.26-.63-1.71-1.79-2.04-3.04,1.59-.3,2.72,1.59,4.39.95Z"/>
      <path class="cls-112" d="m222.8,269.24c.45-.37.9-.74,1.35-1.11,1.46,1.17,3.74.18,4.98,1.92-2.19.32-4.39.81-6.33-.81Z"/>
      <path class="cls-115" d="m183.42,264.17c-.93,5.17-2.99,6.52-7.04,4.65,1.98-.59,2.29-2.17,1.83-3.77-.42-1.47-1.92-.63-2.94-.78-1.43-.2-2.87-.36-4.12.66.21-1.83.97-2.43,3-2.1,3.07.49,6.27.18,9.26,1.34Z"/>
      <path class="cls-166" d="m193.26,259.05c-.03,1.31-.05,2.62-.08,3.93-2.3-.54-2.95-2.58-2.68-4.28.17-1.07,1.86-.36,2.77.35Z"/>
      <path class="cls-193" d="m173.19,260.01c-1.97-1.76-1.08-2.55,1-2.93-.33.98-.66,1.95-1,2.93Z"/>
      <path class="cls-162" d="m211.15,262.96c-1.82.38-2.08-.61-2.06-2.12.03-2.14,1.48-2.53,3.09-2.83,1.66,2.07-.87,3.26-1.04,4.95Z"/>
      <path class="cls-9" d="m201.47,279.17c-2.45,1.23-4.89,1.41-7.31-.08,2.44.03,4.87.05,7.31.08Z"/>
    </g>
  </g>
</svg>