<?xml version="1.0" encoding="utf-8"?>
<!-- Generator: Adobe Illustrator 23.0.0, SVG Export Plug-In . SVG Version: 6.00 Build 0)  -->
<svg version="1.1" id="Capa_1" xmlns="http://www.w3.org/2000/svg" xmlns:xlink="http://www.w3.org/1999/xlink" x="0px" y="0px"
	 viewBox="0 0 606 647" style="enable-background:new 0 0 606 647;" xml:space="preserve">
<style type="text/css">
	.st0{fill:#CE7D36;}
	.st1{fill:#E7B679;}
	.st2{fill:none;stroke:#000000;stroke-width:1.25;stroke-linejoin:round;stroke-miterlimit:10;}
	.st3{fill:none;stroke:#010202;stroke-width:1.25;stroke-linecap:round;stroke-linejoin:round;stroke-miterlimit:3.864;}
	.st4{fill:none;stroke:#000000;stroke-width:1.25;stroke-linecap:round;stroke-linejoin:round;stroke-miterlimit:3.864;}
	.st5{fill:#FFFFFF;}
	.st6{fill:none;stroke:#010202;stroke-width:1.25;stroke-linejoin:bevel;stroke-miterlimit:3.864;}
	.st7{fill:none;stroke:#010202;stroke-width:1.25;stroke-miterlimit:3.864;}
	.st8{fill:#E5AB23;}
	.st9{fill:#010202;}
	.st10{fill:#FBEA25;}
	.st11{clip-path:url(#SVGID_2_);fill:#E20D19;}
	.st12{clip-path:url(#SVGID_2_);fill:none;stroke:#010202;stroke-width:1.25;stroke-miterlimit:3.864;}
	.st13{clip-path:url(#SVGID_4_);fill:none;stroke:#010202;stroke-width:1.25;stroke-miterlimit:3.864;}
	.st14{clip-path:url(#SVGID_4_);fill:#010202;}
	.st15{clip-path:url(#SVGID_6_);fill:#CE7D36;}
	.st16{clip-path:url(#SVGID_6_);fill:none;stroke:#010202;stroke-width:1.25;stroke-miterlimit:3.864;}
	.st17{clip-path:url(#SVGID_8_);fill:#010202;}
	.st18{clip-path:url(#SVGID_10_);fill:#CE7D36;}
	.st19{clip-path:url(#SVGID_10_);fill:none;stroke:#010202;stroke-width:1.25;stroke-miterlimit:3.864;}
	.st20{clip-path:url(#SVGID_12_);fill:#010202;}
	.st21{clip-path:url(#SVGID_14_);fill:#CE7D36;}
	.st22{clip-path:url(#SVGID_14_);fill:none;stroke:#010202;stroke-width:1.25;stroke-miterlimit:3.864;}
	.st23{clip-path:url(#SVGID_16_);fill:#010202;}
	.st24{clip-path:url(#SVGID_18_);fill:#CE7D36;}
	.st25{clip-path:url(#SVGID_18_);fill:none;stroke:#010202;stroke-width:1.25;stroke-miterlimit:3.864;}
	.st26{clip-path:url(#SVGID_20_);fill:#010202;}
	.st27{clip-path:url(#SVGID_22_);fill:#CE7D36;}
	.st28{clip-path:url(#SVGID_22_);fill:none;stroke:#010202;stroke-width:1.25;stroke-miterlimit:3.864;}
	.st29{clip-path:url(#SVGID_24_);fill:#010202;}
	.st30{clip-path:url(#SVGID_26_);fill:#CE7D36;}
	.st31{clip-path:url(#SVGID_26_);fill:none;stroke:#010202;stroke-width:1.25;stroke-miterlimit:3.864;}
	.st32{clip-path:url(#SVGID_28_);fill:#010202;}
	.st33{clip-path:url(#SVGID_30_);fill:#CE7D36;}
	.st34{clip-path:url(#SVGID_30_);fill:none;stroke:#010202;stroke-width:1.25;stroke-miterlimit:3.864;}
	.st35{clip-path:url(#SVGID_32_);fill:#010202;}
	.st36{clip-path:url(#SVGID_34_);fill:#CE7D36;}
	.st37{clip-path:url(#SVGID_34_);fill:none;stroke:#010202;stroke-width:1.25;stroke-miterlimit:3.864;}
	.st38{clip-path:url(#SVGID_36_);fill:#010202;}
	.st39{clip-path:url(#SVGID_38_);fill:#CE7D36;}
	.st40{clip-path:url(#SVGID_38_);fill:none;stroke:#010202;stroke-width:1.25;stroke-miterlimit:3.864;}
	.st41{clip-path:url(#SVGID_40_);fill:#010202;}
	.st42{clip-path:url(#SVGID_42_);fill:#CE7D36;}
	.st43{clip-path:url(#SVGID_42_);fill:none;stroke:#010202;stroke-width:1.25;stroke-miterlimit:3.864;}
	.st44{clip-path:url(#SVGID_44_);fill:#010202;}
	.st45{clip-path:url(#SVGID_46_);fill:#CE7D36;}
	.st46{clip-path:url(#SVGID_46_);fill:none;stroke:#010202;stroke-width:1.25;stroke-miterlimit:3.864;}
	.st47{clip-path:url(#SVGID_48_);fill:#010202;}
	.st48{clip-path:url(#SVGID_50_);fill:#CE7D36;}
	.st49{clip-path:url(#SVGID_50_);fill:none;stroke:#010202;stroke-width:1.25;stroke-miterlimit:3.864;}
	.st50{clip-path:url(#SVGID_52_);fill:#010202;}
	.st51{clip-path:url(#SVGID_54_);fill:#CE7D36;}
	.st52{clip-path:url(#SVGID_54_);fill:none;stroke:#010202;stroke-width:1.25;stroke-miterlimit:3.864;}
	.st53{clip-path:url(#SVGID_56_);fill:#010202;}
	.st54{clip-path:url(#SVGID_58_);fill:#CE7D36;}
	.st55{clip-path:url(#SVGID_58_);fill:none;stroke:#010202;stroke-width:1.25;stroke-miterlimit:3.864;}
	.st56{clip-path:url(#SVGID_60_);fill:#010202;}
	.st57{clip-path:url(#SVGID_62_);fill:#CE7D36;}
	.st58{clip-path:url(#SVGID_62_);fill:none;stroke:#010202;stroke-width:1.25;stroke-miterlimit:3.864;}
	.st59{clip-path:url(#SVGID_64_);fill:#CE7D36;}
	.st60{clip-path:url(#SVGID_64_);fill:none;stroke:#010202;stroke-width:1.25;stroke-miterlimit:3.864;}
	.st61{clip-path:url(#SVGID_66_);fill:#010202;}
	.st62{clip-path:url(#SVGID_68_);fill:#CE7D36;}
	.st63{clip-path:url(#SVGID_68_);fill:none;stroke:#010202;stroke-width:1.25;stroke-miterlimit:3.864;}
	.st64{clip-path:url(#SVGID_70_);fill:#E20D19;}
	.st65{clip-path:url(#SVGID_70_);fill:none;stroke:#010202;stroke-width:1.25;stroke-miterlimit:3.864;}
	.st66{clip-path:url(#SVGID_70_);fill:#FBEA25;}
	.st67{clip-path:url(#SVGID_70_);fill:none;stroke:#010202;stroke-width:1.25;stroke-linejoin:bevel;stroke-miterlimit:3.864;}
	.st68{clip-path:url(#SVGID_72_);fill:#FFFFFF;}
	.st69{clip-path:url(#SVGID_72_);fill:none;stroke:#010202;stroke-width:1.25;stroke-miterlimit:3.864;}
	.st70{clip-path:url(#SVGID_72_);fill:#005095;}
	.st71{clip-path:url(#SVGID_72_);fill:#CF732F;}
	.st72{clip-path:url(#SVGID_72_);fill-rule:evenodd;clip-rule:evenodd;fill:#FFFFFF;}
	.st73{clip-path:url(#SVGID_74_);fill:url(#SVGID_75_);}
	.st74{clip-path:url(#SVGID_77_);fill:none;stroke:#010202;stroke-width:1.25;stroke-miterlimit:3.864;}
	.st75{clip-path:url(#SVGID_77_);fill:#CF732F;}
	.st76{clip-path:url(#SVGID_77_);fill:#0065B1;}
	.st77{clip-path:url(#SVGID_77_);fill:#010202;}
	
		.st78{clip-path:url(#SVGID_77_);fill:none;stroke:#010202;stroke-width:1.25;stroke-linecap:square;stroke-linejoin:bevel;stroke-miterlimit:3.864;}
	.st79{clip-path:url(#SVGID_79_);fill:none;stroke:#010202;stroke-width:1.25;stroke-miterlimit:3.864;}
	.st80{fill:none;stroke:#010202;stroke-width:1.25;stroke-linecap:round;stroke-linejoin:bevel;stroke-miterlimit:3.864;}
</style>
<g>
	<path d="M558.1,240.6c-2.8-2.6-5.9-3.9-8.7-5.1c-2.2-1-4.5-2-5.1-3.1c-0.4-0.7-0.3-3.1-0.3-4.7c0-0.4,0-0.7,0-1c0-4,0-8.8-0.2-13.7
		c-0.5-9.9-1.8-18.5-3.8-26.5c-3.7-14.5-10.4-29.1-21.1-45.7c-5-7.8-10.3-13.8-16.2-18.5c-6.1-4.9-13.1-8.6-20.7-10.9
		c-7.3-2.2-15-3.3-22.9-3c-6.4,0.2-14.7,0.9-22.3,4.8c-7.5,3.8-13.1,10.9-15.9,19.9c-2.6,8.4-2.4,16.6-2.2,24.5l0,0.5
		c0.2,6.8-0.7,10.6-3.1,12.9c-2.7,2.6-7,4.6-11.9,5.4c-1,0.2-2,0.3-2.9,0.3c-2.4,0-5.8-0.5-8.2-3.1c-2.1-2.3-2.3-5.6-0.9-13.9
		c0.2-1.3,0.4-2.7,0.6-4c0.9-5.9,1.7-11.4,4.1-15.2c0.1-0.1,0.2-0.3,0.2-0.4c0.9,0.7,1.8,1.3,2.8,1.8c1,0.4,2.1,0.6,3.2,0.6
		c7.5,0,10.2-9.3,11.1-12.4l0-0.1c0.7-2.3,1.1-4.4,1.5-6.5c0.3-1.7,0.7-3.3,1.1-4.7c0.9-3.3,2.6-6.7,4.2-9.7
		c1.9-3.7,3.6-6.7,5.2-9.3c1.8-2.9,3.9-5.9,6.1-8.7c0.3-0.4,0.6-0.8,0.9-1.2l0.3-0.4c1.2-0.9,7-4.6,14.7-4.6
		c6.6,0,12.4,2.8,17.4,8.4c1.4,1.6,3.3,2.5,5.4,2.5c1.2,0,2.4-0.3,3.5-1c3-1.7,4.5-5.3,3.9-8.9c-0.5-2.9-0.9-5.6-1.3-8l0-0.1
		c-1.6-10.3-2.7-17.8-7.4-24.4c-4.3-6.1-10.8-10.4-23.8-15.9c-0.7-0.7-1.4-1.2-1.9-1.6c-0.1-0.1-0.4-0.3-0.6-0.4
		c-0.7-0.7-1.4-1.8-2.1-2.9l-0.2-0.4c-4.9-7.3-11.4-12.8-18.9-15.8c-4.9-2-10.1-3-15.6-3c-9.5,0-19.4,3.1-27.8,8.9
		C367,29.8,359,40.8,351.1,51.4c-1,1.4-2,2.7-3,4c-2.1,2.8-4.6,6.1-7.2,9.3c-0.7,0.9-1.5,1.7-2.2,2.6l0,0c-1.8,2.1-3.7,4.3-5.4,6.7
		c-0.6,0.8-1.1,1.6-1.7,2.4c-1,1.5-2,3-2.8,3.7c-0.3,0.3-1.7,0.5-2.8,0.7c-1.3,0.2-2.8,0.5-4.3,1c-7.1,2.4-11.2,9.5-9.4,16.6
		c0.9,3.8,3.3,6.8,6.7,8.7c-0.3,0.2-0.6,0.3-0.9,0.5c-0.1,0-0.1,0.1-0.2,0.1l-0.1,0c-5.8,2.7-8.5,6.6-8,11.7
		c0.2,1.7,1.2,6.9,7.4,8.5c0,0,0,0,0,0c-0.6,1.1-1.3,2.1-1.9,3.2c-1.7,2.8-3.5,5.4-5.4,8.3l-1.2,1.8c-0.2,0.3-0.5,0.7-0.7,1
		c-1.8-2.5-3.5-5.2-5.3-7.9c-1-1.5-1.9-3.1-2.9-4.6l-0.1-0.1c-0.4-0.6-0.8-1.2-1.1-1.8c0.3-0.4,0.6-0.9,0.9-1.4
		c2.2-4.2,1.9-9.2-0.7-13.6c-1.4-2.3-3.1-4-4.6-5.4c-0.1-0.1-0.2-0.2-0.2-0.2c0.2-0.1,0.4-0.1,0.6-0.2c6.5-2.4,10.1-8.1,9-14.5
		c-0.9-5.4-4.6-9-6.4-10.7c-1.8-1.7-3.6-3.1-5.4-4.5c-0.5-0.4-1-0.8-1.5-1.1c-4.6-3.6-9.8-8.1-14-13.9c-2.8-3.9-5.2-8.1-7.9-12.5
		c-1.2-2.1-2.5-4.3-3.8-6.4c-5.1-8.2-10.3-14.1-16.4-18.6c-5.1-3.7-13.2-8.5-22.4-10.1c-1.5-0.3-3-0.4-4.4-0.4
		c-8.4,0-15.6,4-20.9,7.5c-7.1,4.7-12.9,10.5-18.2,16.1l-0.3,0.3c-0.2,0.3-0.5,0.5-0.7,0.8c-12.5,5.3-18.7,9.5-23,15.6
		c-4.7,6.6-5.8,14.1-7.4,24.4c-0.4,2.4-0.8,5.1-1.3,8.1c-0.6,3.6,1,7.2,3.9,8.9c1.1,0.6,2.3,1,3.5,1c2,0,3.9-0.9,5.4-2.5
		c5.1-5.7,11-8.5,17.7-8.5c5.7,0,10.4,2.1,12.2,3.1c1.8,1.3,3.3,2.5,4.6,3.7l0.1,0.1c3.2,2.8,5.5,5.4,7.1,8.1
		c3.1,5,4.7,11.5,6.2,17.8c1,4.1,1.9,7.8,2.4,11.3c0,0.1,0.1,0.7,0.1,0.9c0.1,1.6,0.2,3.8,1,6.1c0.9,2.8,2.6,5,4.7,6.2
		c-0.1,0.7-0.1,1.5-0.2,2.2c-0.2,2.6-0.4,5-0.8,7.4c-1,7.1-2.8,13.6-5.3,19.1c-0.7,1.6-1.4,2.3-2.7,3c-2.2,1.1-4.6,1.6-7.6,2
		c-0.3,0-0.5,0.1-0.7,0.1c-0.2-0.9-0.4-2.4-0.3-4.3c0-0.8,1.1-2.7,1.8-4.1c0.6-1.2,1.3-2.4,1.9-3.7c2.1-4.6,3.2-9,3.5-13.4
		c0.7-9.5-1.9-18.5-7.1-24.7c-4.7-5.6-11.7-8.8-20.8-9.5c-1-0.1-2-0.1-3.1-0.1c-3.4,0-6.7,0.4-9.2,0.8c-3.8,0.6-7.6,1-11.3,1.5
		c-7.7,0.9-15.6,1.9-23.5,4.9c-16.1,6.1-27.2,19-33.7,28.8c-4.4,6.6-8.8,13.8-11.3,22.1c-2.6,8.5-4.3,17.3-5.8,25.1
		c-1.7,8.7-3,17.2-4.3,25.8c-0.2,1.1-0.3,2.2-0.4,3.2c-0.7,5.6-1.3,9.1-3.3,10.3c-0.3,0.2-0.5,0.2-0.8,0.2c-0.4,0-0.8-0.1-1.2-0.4
		c-0.4-0.2-0.6-0.5-0.9-0.7c-0.1-0.1-0.2-0.3-0.3-0.4l0,0c-0.8-1.1-2.1-3-4.2-4.3c-1.6-1-3.2-1.5-4.9-1.5c-5.1,0-9.3,4.6-10.2,11.3
		c-0.5,3.8-0.3,8.1,0.8,12.6c2,9,7.8,16.8,15.4,20.8c3.8,2,8,3,12.9,3h0.1c0.8,0,1.6,0,2.5-0.1c-0.5,3.6-0.8,7.5-0.9,11.8
		c-0.1,8.3,0.6,17,2,26.7c1.6,10.6,3.7,21.2,5.7,31.5c1.3,6.4,2.6,13.1,3.7,19.6c3,16.7,4.4,33.3,4.2,49.3l0,0.5
		c-0.1,7.4-0.2,15.1-2,21.7c-1.5,5.7-4.2,10.8-7.8,14.7c-0.9,0.9-2,1.8-3.2,2.8c-1.1,0.9-2.3,1.8-3.6,3c-3.3,3.1-5.2,6.9-5.2,10.8
		c-0.1,3.5,1.3,6.9,3.8,9.5c4.1,4.2,9.7,5.3,13.5,5.8c1.6,0.2,3.2,0.3,4.9,0.3c2.1,0,4.3-0.1,6.9-0.4c0.2,0,0.5,0,0.7-0.1l0.1,0
		c0.9-0.1,1.9-0.2,3-0.4c0,1-0.1,2-0.1,3.1c-0.1,2.1-0.2,4.3-0.1,6.7c0.1,3.3,0.6,6.4,1.1,9.3c0.2,1.3,0.4,2.5,0.5,3.7
		c0.8,6.4,0.1,13.1-0.7,20.2c-0.1,1.1-0.2,2.2-0.4,3.2c-0.2,1.9-0.4,3.8-0.6,5.7l0,0.2c-0.6,6.4-1.3,12.3-2.3,18.3
		c-0.6,3.3-1.5,6.5-2.4,10l-0.3,1.1c-0.2,0.6-0.3,1.2-0.4,1.8c-0.1,0.3-0.2,0.9-0.3,1.5h-0.1c-0.8,0-1.9-0.1-3-0.3l-0.1,0
		c-0.3,0-0.6-0.1-0.9-0.1l-0.3,0c-1.5-0.2-2.9-0.3-4.3-0.3c-3.3,0-6.3,0.6-9.1,1.7C74.4,578,67,591,66.9,605.3
		c0,12.7,5.8,22.8,15.7,27c3.4,1.4,7.2,2.2,11.2,2.2c4.2,0,8.7-0.7,14.1-2.4c7.9-2.4,15.5-5.8,21.8-8.9c8.2-4,14.8-8.5,20.1-13.6
		c1.2-1.2,2.3-2.4,3.4-3.5c1.4-1.5,2.7-3,4.1-4.1c1.6-1.3,3.8-2.4,6-3.6c0.5-0.2,1-0.5,1.4-0.7c3.9-2,7.8-4.5,10.3-9.4
		c0.5-0.9,0.8-1.8,1.1-2.6c3.1,0.1,6.1-0.5,8.7-1.9c4.3-2.2,7.9-6.2,10-11.1c1.7-4,2.3-8,2.9-11.6l0-0.2c0.1-0.5,0.2-1,0.2-1.5
		c0.5-3,1.1-6.2,1.7-9.2l0.1-0.5c0.2-0.8,0.3-1.6,0.5-2.5c1.1-6,2.2-11.9,3.2-17.8c1.9-10.7,3.9-21.8,6.2-32.6
		c0.1-0.4,0.2-1,0.4-1.5c0.4-1.3,0.8-2.8,1-4.6c0.7-5.6-2.1-9.3-3.2-10.7c0,0,0,0,0,0c0-0.1,0-0.5,0.2-1.4
		c1.2-5.2,3.8-10.5,7.1-14.3c1.6-1.8,3.6-3.6,6.4-5.5c0.7-0.5,1.5-1,2.4-1.5c1.9-1.1,4-2.3,6-4.1c4.9-4.4,5.2-10.7,5.5-14.5
		c0-0.4,0-0.8,0.1-1.2l0.1-1.4c0.2-3.2,0.5-6.3,1-9l0-0.2c0.3-1.4,1.3-5.1-0.8-8.8c-1.6-2.9-4.3-4.6-7.4-4.6c-2.9,0-5.2,1.5-6.3,2.3
		l-0.1,0.1c-1.2,0.8-2.7,1.4-4.2,2.1c-0.9,0.4-1.9,0.8-2.8,1.3c0.2-1.9,0.3-3.9,0.1-5.8c-0.2-3.1-0.7-6-1.2-8.9
		c-0.2-1.4-0.5-2.7-0.7-4c-1.1-7.8-2.3-16.1-3.5-25.4c-0.7-5.3-1.4-10.6-2-15.8l0-0.2c-0.4-3.2-0.8-6.4-1.2-9.6l-0.3-2.1
		c-1-7.5-1.9-14.6-1.3-21.5c0.3-3,0.7-6,1.2-9.2c0.1-0.9,0.3-1.8,0.4-2.7c0.3-2,0.6-4.2,0.8-6.4c0-0.2,0-0.4,0.1-0.6
		c0.1,0,0.3,0,0.4,0c3,0,5.9-0.1,8.7-0.3l0.1,0c0.9,0,1.8-0.1,2.7-0.1c12.5-0.5,25.2-0.9,37.5-1.3l0.8,0c2.9-0.1,5.7-0.2,8.6-0.3
		c38.3-1.2,67.7-2.2,95.3-3.2c4.6-0.2,9.2-0.3,13.6-0.5c11-0.4,22.4-0.9,33.6-1c1.9,0,3.8,0,5.7-0.1c-0.1,1.8-0.2,3.5-0.3,5.3
		c-0.1,1.3-0.1,2.5-0.2,3.7c-0.2,3.6-0.5,7.2-0.7,10.7l-0.1,1.5c-0.9,13.8-2,27.7-3,41.3c-0.3,3.7-0.5,7.4-0.8,11
		c-0.2,3-0.4,6-0.7,9c-0.4,5.5-0.8,11.1-1.2,16.7l-0.3,3.3c-0.3,3.1-0.5,6.4-0.7,9.6h-0.1c-3.9,0-8,3.1-8.2,9.2
		c-0.1,2.2,0.4,4.2,0.7,5.6c0.1,0.4,0.2,0.9,0.2,1.1c0.2,1.8,0.3,3.6,0.5,5.6l0.1,1c0.3,4,0.6,8.1,0.7,12c0.1,2,0.2,6,2.7,9.6
		c1.6,2.4,3.7,3.6,5,4.5l0,0c0.1,0.1,0.3,0.2,0.4,0.2c0,0.2,0,0.3,0,0.5c0,0.6,0,1.2,0.1,2c0,0.4,0.1,0.8,0.1,1.2
		c0.1,1.1,0.2,2.2,0.1,2.8c-0.1,0.7-0.3,1.5-0.7,2.3c-0.4,0.8-0.9,1.5-1.6,2.2c-0.2,0.2-0.5,0.5-0.7,0.7l0,0
		c-1.1,1.1-2.6,2.7-3.8,4.9c-2.3,4.2-2.5,8.7-2.7,12.2c0,0.7-0.1,1.4-0.1,2.1c0,0.5-0.1,1.1-0.1,1.7l0,0.1c-0.2,3-0.5,5.9-1,8.4
		c-0.1,0.3-0.1,0.6-0.2,1l0,0.1c-0.4,1.7-0.9,4.1-0.7,6.9c0.3,3.8,2.2,6.9,5,8.3c-0.5,0.9-0.9,1.8-1.4,2.6c-0.3,0.5-0.7,1-1.2,1.7
		c-0.6,0.8-1.4,1.8-2.1,2.9c-1.9,3.1-2.6,6.7-2,10.6c0.3,1.7,0.6,3.2,0.9,4.8c0.1,0.6,0.2,1.1,0.3,1.7c0.5,2.4,1,4.5,1.5,6.4
		l0.1,0.3c0.5,1.8,1.6,5.5,4.8,7.8c1.7,1.2,3.6,1.8,5.6,1.8c4.4,0,7.9-3.1,10-4.9c0.2-0.2,0.7-0.7,0.9-0.8c0,0,0.1,0,0.1-0.1
		c0.3,0.3,0.5,0.6,0.7,0.9c0.1,0.3,0.3,1.4,0.4,2.1l0.1,0.4c0.7,4.7,2.7,9.4,5.9,13.8c2.5,3.5,5.6,6.6,9.3,9.1
		c2.4,1.7,4.8,2.7,6.9,3.7c1,0.5,2,0.9,2.8,1.3c0.2,0.4,0.7,1.2,0.8,1.5c0.4,0.8,0.9,1.7,1.5,2.7c2.2,3.6,5.3,6.7,9.8,9.8
		c2.1,1.4,4.1,2.5,6.2,3.6c1.3,0.7,2.6,1.4,3.8,2.1c2.2,1.4,4.3,3.3,6.6,5.4l0.8,0.7c9.6,8.8,22.6,19.3,38.6,22.6
		c2.8,0.6,5.5,0.8,8.2,0.8c6,0,11.3-1.5,15.9-4.3c7.6-4.7,13-13.4,14.1-22.6c0.7-5.4-0.2-10.4-2.6-14.5c-2-3.4-5-6.2-8.9-8.3
		c-2.9-1.5-5.8-2.4-8.5-3.2c-2.5-0.7-4.9-1.4-6.7-2.6c-3.1-2-4.7-7.1-6.5-12.5c-0.2-0.7-0.5-1.5-0.7-2.2c-2.2-6.7-4.7-14.6-6.4-22.6
		c-2.6-12.1-3.2-24.5-3.8-37.6c-0.2-3.8-0.4-7.8-0.6-11.7c-0.3-4.4-0.6-8.5-1.2-12.4c1,0.4,1.9,0.8,3,1.2c3.5,1.2,7.2,1.8,10.9,1.8
		c5.4,0,10.6-1.3,14.9-3.8c1.9-1.1,4-2.4,5.7-4.8c2.4-3.4,3.6-9.4-0.9-15l-0.7-0.8c-2-2.5-4-4.8-5.7-7.3c-4.2-6.2-7.3-12.1-9.2-18.1
		c-2.1-6.4-3.3-13.6-3.8-22c-0.4-7.5-0.3-15.4-0.2-23l0-2.1c0.1-10.2,0.4-18.5,0.8-26.1c0.2-3.7,0.4-7.5,0.7-11.2l0-0.2
		c0.9-13.5,1.7-27.4,1.2-41.4c-0.4-10.1-1.3-18.9-2.9-26.9c-0.1-0.6-0.2-1.1-0.4-1.7c3.2,1.2,6.6,2,9.8,2.2c0.7,0.1,1.4,0.1,2.1,0.1
		c8,0,15.6-3.4,21.5-9.5c3.1-3.3,5.8-7.2,7.6-11.4C565.3,248.3,559.9,242.2,558.1,240.6"/>
	<path class="st0" d="M553.3,247c-4.6-4.2-12.2-4.3-15.5-10.3c-1.6-3-1.4-6.8-1.4-10.2c0-4.4,0-8.7-0.2-13.1
		c-0.4-8.4-1.5-16.7-3.5-24.8c-3.9-15.7-11.5-29.9-20-43.1c-4.1-6.3-8.7-12-14.4-16.6c-5.5-4.4-11.7-7.6-18.3-9.7
		c-6.7-2.1-13.7-2.9-20.7-2.7c-6.5,0.2-13.4,1-19.3,4c-5.8,3-9.8,8.4-11.9,15c-2.2,7.2-2,14.6-1.8,22.1c0.2,7.2-0.6,14.4-5.7,19.4
		c-4.2,4.1-10.2,6.4-15.7,7.4c-6.2,1.1-13-0.1-17.6-5.2c-5.3-5.8-4.3-13.9-3-21.3c1.2-7.6,1.8-16.1,6-22.5c0.9-1.4,1.9-2.7,3-4
		c1-1.2,2.1-2.8,3.8-2.7c2.6,0.3,2.9,4.1,5.1,5.1c2.3,1,4-4.9,4.5-6.6c1.1-3.7,1.5-7.5,2.5-11.2c1.1-4,3-7.7,4.8-11.3
		c1.7-3.4,3.6-6.8,5.6-10c2-3.3,4.2-6.4,6.5-9.4c0.6-0.8,1.2-1.6,1.9-2.4c6.5-5.4,26.5-13.8,42.6,4.1c-4.4-26.1-2-31.4-28.6-42.4
		c-0.3-0.1-0.5-0.2-0.7-0.2c-0.1-0.2-0.2-0.4-0.4-0.6c-0.9-1.1-2.1-1.7-3.1-2.7c-1.2-1.3-2.2-2.8-3.2-4.3
		c-3.9-5.9-9.2-10.4-15.4-12.9c-12.1-4.9-26.1-2.2-36.9,5.2C370.7,37,362.5,49.4,354,60.8c-2.4,3.3-4.9,6.5-7.5,9.7
		c-2.5,3-5.1,5.8-7.4,9c-1.9,2.6-3.5,5.6-5.9,7.7c-2.8,2.2-6.2,1.9-9.4,3c-2.5,0.8-5.1,3.2-4.3,6.5c0.7,2.8,3.5,4.1,5.8,4.5
		c1.7,0.3,3.3,0.2,5,0.1c1.3-0.1,2.9-0.4,4,0.5c1.6,1.3-0.6,3.6-1.5,4.6c-3.5,3.6-7.5,7.2-11.8,9.3c-1,0.5-4,1.7-3.8,3.3
		c0.1,1.2,1.6,1.3,2.5,1.5c1.9,0.3,3.7,0.5,5.6,0.9c1,0.2,2.4,0.3,3.1,1.1c1,1.2-0.1,2.7-0.7,3.6c-2.2,3.3-4.2,6.8-6.2,10.2
		c-2.2,3.5-4.5,6.9-6.8,10.4c-1,1.4-1.9,2.9-2.8,4.3c-0.8,1.3-1.6,2.9-3.1,3.2c-2.5,0.4-4.3-2.8-5.6-4.6c-2.3-3.2-4.5-6.5-6.6-9.8
		c-2.2-3.4-4.2-6.8-6.4-10.2c-0.8-1.3-1.6-2.6-0.4-3.9c1-1.1,2.5-1.4,3.2-2.8c1.7-3.3-1.7-6.6-3.7-8.5c-2.7-2.5-5.6-4.8-8.3-7.3
		c-1.2-1.1-2.4-2.1-3.6-3.2c-0.7-0.6-1.9-2-1-3c1.3-1.5,5.2-0.4,6.7-0.3c3,0.2,6.2,0.2,9-0.9c2-0.8,4.5-2.4,4-5.1
		c-0.4-2.4-2.3-4.4-3.9-5.9c-2-1.9-4.2-3.5-6.3-5.1c-5.7-4.5-11.1-9.3-15.5-15.4c-4.4-6.1-8-12.9-12-19.4c-3.9-6.4-8.4-12-14.3-16.3
		c-5.8-4.2-12.5-7.6-19.4-8.8c-7.4-1.3-14.1,2-20.3,6.1c-6.3,4.2-11.6,9.4-16.9,15c-0.7,0.8-1.4,1.5-2,2.2
		c-26.5,11-24.1,16.3-28.5,42.4c13.8-15.4,30.5-11.6,39.1-6.8c1.8,1.4,3.7,2.8,5.5,4.4c0.1,0.1,0.2,0.3,0.2,0.4
		c0-0.1-0.1-0.2-0.1-0.3c3.3,2.9,6.4,6.1,8.7,9.9c3.7,6.1,5.5,13.3,7.3,20.3c1,4,2,8.1,2.6,12.2c0.4,2.3-0.1,7.7,3.1,7.5
		c1-0.1,2.4-0.9,3.2,0.4c0.7,1.3,0,3.6-0.2,4.9c-0.4,4.2-0.7,8.5-1.2,12.6c-1,7.5-2.9,14.9-6,21.6c-1.5,3.2-3.3,5.3-6.3,6.8
		c-3.2,1.7-6.5,2.3-10,2.7c-3,0.4-5.9,0-7.7-3.1c-1.5-2.7-1.9-6.8-1.7-9.9c0.2-4,2.9-7.5,4.5-11c1.5-3.3,2.5-6.7,2.8-10.4
		c0.5-6.5-1.1-13.5-5.1-18.4c-4-4.8-10.2-6.4-15.8-6.8c-3.6-0.3-7.2,0.1-10.7,0.6c-3.8,0.6-7.6,1-11.5,1.5
		c-7.4,0.9-14.8,1.8-21.9,4.5c-12.2,4.7-22.5,14.5-30.1,25.8c-4.1,6.1-8,12.6-10.2,19.8c-2.4,7.9-4,16.1-5.5,24.3
		c-1.6,8.5-3,17-4.2,25.5c-1.1,7-1.2,15.7-7.7,19.5c-2.9,1.7-6.2,1.5-9.1-0.2c-1.2-0.7-2.3-1.6-3.1-2.8c-0.8-1-1.5-2.2-2.5-2.9
		c-2.3-1.5-3.6,1.8-3.9,3.8c-0.4,3.1,0,6.4,0.6,9.4c1.5,6.6,5.7,12.4,11.3,15.4c3,1.6,6.3,2.2,9.6,2.2c1.8,0,3.6-0.1,5.4-0.4
		c1.5-0.2,3.2-1,4.7-0.7c1.4,0.2,1.7,1.3,1.5,2.8c-0.3,2-1,4-1.3,6c-0.7,4.2-1,8.4-1.1,12.7c-0.1,8.4,0.6,16.9,1.9,25.2
		c2.6,17.1,6.4,33.9,9.4,50.9c3,16.8,4.5,33.9,4.3,51.1c-0.1,8.2-0.2,16.6-2.3,24.4c-1.8,6.9-5.2,13.3-9.8,18.3
		c-2.2,2.4-4.9,4-7.2,6.1c-2.3,2.2-3.8,5.2-1.2,7.9c2.4,2.4,6.1,3.2,9.2,3.6c3.4,0.4,6.8,0.2,10.2-0.1c1.5-0.2,3.1-0.2,4.6-0.7
		c0.8-0.3,1.5-0.7,2.2-1.3c0.4-0.4,0.9-1,1.5-1.1c1.3-0.1,2.3,2.2,2.7,3.3c0.7,1.6,1,3.4,1.1,5.1c0.2,4-0.4,8-0.3,12
		c0.2,4.1,1,8.1,1.5,12.2c1.1,8.6-0.1,17-1.1,25.6c-0.9,8.3-1.5,16.6-3.1,24.8c-0.7,4-1.8,7.9-2.8,11.8c-0.7,2.7-1.1,6.3-3.4,8
		c-2.7,2-6.5,1.2-9.5,0.9c-0.1,0-0.2,0-0.3,0c-3.3-0.4-6.7-0.4-9.9,0.9c-15.1,6.3-19.1,36.1-2.5,43.1c6.6,2.8,14,1.5,20.6-0.4
		c7.1-2.1,14-5.2,20.7-8.5c6.5-3.2,12.8-7.1,18.2-12.3c2.7-2.6,5-5.6,7.9-8c2.7-2.2,5.8-3.6,8.8-5.2c2.6-1.4,5.4-3,6.9-5.9
		c1.1-2.1,1.5-5.1,3.7-6.4c1.3-0.8,2.9-0.6,4.3-0.5c1.9,0.1,3.6-0.2,5.3-1.1c2.8-1.4,5-4,6.3-7.1c1.5-3.5,1.9-7.5,2.5-11.3
		c0.7-4.1,1.5-8.3,2.3-12.4c3.2-16.9,5.9-33.8,9.5-50.6c0.4-1.8,1.1-3.5,1.3-5.4c0.2-1.8-0.5-2.9-1.5-4.2c-2-2.6-2.1-5.6-1.4-8.8
		c1.5-6.6,4.7-13.1,9-18c2.3-2.7,5-4.9,7.9-6.8c2.5-1.7,5.4-3,7.6-5c2.7-2.4,2.5-6.4,2.8-9.9c0.3-3.9,0.5-7.9,1.3-11.7
		c0.2-0.8,0.6-1.9,0.2-2.7c-0.7-1.3-2.8,0.2-3.6,0.7c-3,1.9-6.5,3-9.6,4.8c-1.5,0.9-3,1.8-4.5,2.8c-1.5,0.9-3.1,2-4.9,1.9
		c-1.1-0.1-2.6-0.6-2.9-2c-0.4-1.6,0.9-3.5,1.4-4.9c1.5-3.7,2.5-7.4,2.2-11.5c-0.3-4.1-1.2-8.2-1.8-12.2c-1.2-8.5-2.4-17-3.5-25.5
		c-1.1-8.5-2.2-17.1-3.2-25.7c-1.1-8.5-2.3-17-1.6-25.6c0.4-4.1,1-8.2,1.6-12.3c0.3-2,0.6-4,0.7-6.1c0.2-1.9,0.1-3.8,0.3-5.7
		c0.2-1.4,0.8-2.4,2.2-2.6c1.8-0.2,3.7,0.2,5.5,0.2c3.7,0,7.5-0.2,11.2-0.4c15.7-0.7,31.3-1.1,47-1.6c31.8-1,63.5-2.1,95.3-3.2
		c15.8-0.6,31.6-1.4,47.4-1.5c3.7,0,7.4-0.1,11.1-0.6c1.1-0.1,2.5-0.6,3.1,0.8c0.7,1.5-0.3,3.6-0.5,5.1c-0.6,4.1-0.6,8.3-0.8,12.4
		c-0.3,4.1-0.5,8.2-0.8,12.3c-1.2,17.5-2.5,34.9-3.8,52.3c-0.6,8.6-1.2,17.2-1.9,25.7c-0.3,4.3-0.7,8.7-1,13.1
		c-0.3,4.1-0.7,8.1-0.3,12.1c0.1,0.6,0.3,2.1-0.3,2.5c-1,0.7-2-1.9-2.5-2.5c-1.1-1.3-2.2-2.6-3.3-3.9c-0.7-0.9-1.8-1.4-1.9,0.3
		c-0.1,1.8,0.7,3.6,0.9,5.4c0.3,2.2,0.4,4.5,0.6,6.8c0.3,4.2,0.6,8.4,0.7,12.6c0,1.7,0.2,3.4,1.1,4.8c0.9,1.3,2.3,2,3.6,2.9
		c1.3,0.9,2.4,1.8,3,3.4c0.5,1.7,0.4,3.5,0.5,5.2c0.2,1.9,0.4,3.8,0.2,5.7c-0.2,1.9-0.8,3.7-1.7,5.4c-0.8,1.5-1.7,2.8-2.8,4
		c-1.2,1.3-2.5,2.4-3.4,4c-1.7,3.2-1.5,7.2-1.8,10.8c-0.3,3.7-0.6,7.5-1.3,11.2c-0.3,1.8-0.9,3.7-0.8,5.5c0.2,3.1,3.3,0.7,4.7-0.1
		c1.4-0.9,2.9-1.5,4.2-2.5c0.5-0.4,1.1-0.9,1.5-1.4c0.3-0.4,0.6-1.1,1-1.4c1.1-0.6,0.9,1,0.6,1.6c-0.6,1.4-1.4,2.7-1.9,4.1
		c-1.5,3.7-3.4,7.2-5.1,10.8c-0.8,1.7-1.6,3.3-2.5,4.9c-1,1.7-2.4,3.1-3.4,4.8c-0.8,1.4-1,2.9-0.8,4.5c0.3,2,0.8,4.1,1.2,6.1
		c0.4,1.9,0.8,3.8,1.3,5.6c0.4,1.3,0.8,2.9,1.9,3.7c2.6,1.9,6.1-2.4,8.1-3.8c2.6-1.9,5.5-2.4,8.2-0.3c1.2,0.9,2.4,2.2,3.2,3.6
		c1,1.7,1.2,3.6,1.5,5.6c0.6,3.7,2.3,7.1,4.4,10c2,2.9,4.6,5.3,7.4,7.2c2.9,2,6.2,3.1,9.3,4.7c2.6,1.4,3.4,4.4,5,6.9
		c1.9,3.1,4.7,5.4,7.5,7.4c3.1,2.1,6.5,3.5,9.6,5.5c3.1,1.9,5.8,4.5,8.5,7c10.2,9.4,21.7,18.1,35.1,20.8c6.4,1.3,13.2,1.1,19-2.5
		c5.4-3.4,9.5-9.6,10.4-16.5c0.4-3.1,0.1-6.2-1.5-8.9c-1.4-2.4-3.5-4.1-5.8-5.3c-5-2.7-10.9-2.9-15.7-6.1c-6.1-4-8.1-12.1-10.4-19
		c-2.5-7.7-5-15.5-6.7-23.5c-3.6-16.6-3.5-33.8-4.6-50.7c-0.2-4.1-0.6-8.2-1.2-12.2c-0.5-3.4-1.4-7.2-0.5-10.6c0.3-1.3,1-3,2.3-3.3
		c1.2-0.3,2.2,0.9,3,1.6c2.3,2.3,4.9,3.8,7.9,4.7c6.5,2.2,14.2,2,20.3-1.4c1.1-0.6,2.4-1.4,3.2-2.5c1.1-1.5,0.4-3-0.6-4.2
		c-2.3-2.9-4.6-5.6-6.7-8.7c-4.3-6.2-7.9-13-10.3-20.4c-2.5-7.8-3.7-16-4.2-24.3c-0.5-8.6-0.3-17.2-0.2-25.8
		c0.1-8.8,0.3-17.7,0.8-26.5c1-17.3,2.5-34.6,1.9-51.9c-0.3-8.5-1.1-17.1-2.7-25.4c-0.7-3.7-1.6-7.3-2.4-11c-0.4-1.8-1.7-6.5,1-6.9
		c1.6-0.3,3,1.6,4.1,2.6c1.4,1.3,3,2.2,4.7,3c3.1,1.5,6.5,2.5,9.9,2.7c6.6,0.5,13.1-2.1,17.9-7.2c2.4-2.5,4.5-5.6,6-9
		C555,252.7,555.8,249.2,553.3,247"/>
	<path class="st1" d="M185.5,46.4c8.3-3.4,12.2,26.8,16.2,40.5c-1.1-3.9-25.7-19.3-44.8,2C161.3,62.7,158.9,57.4,185.5,46.4"/>
	<path class="st2" d="M185.5,46.4c8.3-3.4,12.2,26.8,16.2,40.5c-1.1-3.9-25.7-19.3-44.8,2C161.3,62.7,158.9,57.4,185.5,46.4z"/>
	<path class="st1" d="M441.9,44.7c-8.3-3.4-12.1,27.2-16.1,40.8c1.1-3.9,25.7-19.6,44.7,1.7C466.1,61.1,468.5,55.7,441.9,44.7"/>
	<path class="st2" d="M441.9,44.7c-8.3-3.4-12.1,27.2-16.1,40.8c1.1-3.9,25.7-19.6,44.7,1.7C466.1,61.1,468.5,55.7,441.9,44.7z"/>
	<path class="st3" d="M141.1,235.9c0,7.5-2.7,13.7-7.1,18.6c-6.3,6.9-15.8,10.8-25.5,10.8c9.6,0,19.2-3.9,25.5-10.8
		C138.4,249.7,141.1,243.4,141.1,235.9z M179.9,243.1c-2.9,5.7-5.4,11.2-8.9,15c-2.7,2.9-5.9,5-10.4,5.5c4.5-0.5,7.8-2.6,10.4-5.5
		C174.5,254.2,177,248.8,179.9,243.1z M159.8,241.6c-2.3,5.5-5.1,10.4-8.5,14.2c-4.3,4.8-9.7,7.7-16.6,7.7c6.9,0,12.3-2.9,16.6-7.7
		C154.7,252.1,157.5,247.2,159.8,241.6z M242.2,215.3c5.6-1.2,9.9-3.9,13.3-7.6c4.5-5,7.4-11.9,9.7-19.8
		c9.8,7.6,10.7,21.9,22.8,23.3c-12-1.4-12.9-15.7-22.8-23.3c-2.3,7.9-5.2,14.8-9.7,19.8C252.1,211.4,247.8,214.1,242.2,215.3z
		 M330.4,212c4.9-1.2,8.2-3.6,11-6.7c1-1.1,1.9-2.3,2.9-3.6c3-4.2,5.7-9,9.6-13.4c0.5-0.6,1.1-1.1,1.6-1.7
		c4.7,12.5,9.9,28,16.4,30.4c-6.5-2.4-11.7-17.9-16.4-30.4c-0.6,0.6-1.1,1.1-1.6,1.7c-4,4.4-6.6,9.2-9.6,13.4
		c-0.9,1.3-1.8,2.5-2.9,3.6C338.7,208.4,335.3,210.8,330.4,212z M475.9,210.3c1.8,2.4,3.3,4.2,3.8,7.4
		C479.2,214.5,477.7,212.7,475.9,210.3z M173.2,426.8c-2.3,82.5-7,125.4-14,128.9 M186.3,499c-5,9.6-7.2,25.7-6.8,48.3 M170.6,387.8
		c25.5-6-2.7-82.3,5.4-124.1 M151.3,432.9c19.3-8.2,21.4-15.8,15.2-56c-12.4-61.6-10.6-99-3.6-130.4 M511.9,262
		c-16.1-28.5-19.4-50.3-13.6-73.8c4.1-32-13.2-46.5-52-43.5 M434.4,190.7c8.4-3.2,11.6-10.8,9.6-23h12.6c6.4,1.3,11.6,6.8,15.6,16.4
		 M459.6,191.5c9.7,2.1,12.9,8.9,9.6,20.5 M502.7,463.8c-17.8-75.5-7.7-97.4-5.2-133.7c-0.9-41-16.5-74.9-36.4-91.9 M453.3,277.2
		c15.4,12.2,21.3,35.9,22.6,58.6c-4.6,92-8.3,104.2,22.3,118.1 M440.3,292.4c11,15.7,16.4,31.5,16.3,47.6
		c-5.5,58.1-9.9,88.9,23.2,100.8 M424.1,310.7c12.5,16.9,16,39.9,10.4,68.9c-1.6,27.5,7.3,44.2,26.7,50 M508.6,263.7
		c-18.2-4.8-30.8-14.9-37.9-30.4 M538.7,255.5c-14.8-2.1-25.5-17.4-23.4-32.8c1.8-11.7-2.8-51.8-10-66"/>
	<path class="st4" d="M246,110.9c1.8-0.9,3.3-2.3,4.5-3.9c1.7-2.2,3-4.9,4.2-8c2.5,1.8,1.9,6.9,5.5,6.3c-3.6,0.6-3-4.4-5.5-6.3
		c-1.2,3-2.5,5.8-4.2,8C249.3,108.6,247.8,109.9,246,110.9z"/>
	<path class="st4" d="M274,102.6L274,102.6c-1.6,0.1-2.8-0.5-3.6-1.5c-1.1-1.4-1.5-3.6-1.7-6.2c-3.5,3.6-4.6,8.8-8.4,10.4
		c3.8-1.6,4.9-6.8,8.4-10.4c0.2,2.6,0.7,4.8,1.7,6.2C271.2,102.1,272.3,102.6,274,102.6z"/>
	<path class="st4" d="M218.1,119.2c1.8-0.9,3.3-2.3,4.5-3.9c1.7-2.2,3-4.9,4.2-8c2.5,1.8,1.9,6.9,5.5,6.3c-3.6,0.6-3-4.4-5.5-6.3
		c-1.2,3-2.5,5.8-4.2,8C221.3,116.9,219.9,118.2,218.1,119.2z"/>
	<path class="st4" d="M246,110.9L246,110.9c-1.6,0.1-2.8-0.5-3.6-1.5c-1.1-1.4-1.5-3.6-1.7-6.2c-3.5,3.6-4.6,8.8-8.4,10.4
		c3.8-1.6,4.9-6.8,8.4-10.4c0.2,2.6,0.7,4.8,1.7,6.2C243.2,110.4,244.4,110.9,246,110.9z"/>
	<path class="st4" d="M371.2,110.9L371.2,110.9c-2.3-0.9-4.1-2.3-5.7-3.9c-2.1-2.2-3.8-4.9-5.3-8c-3.2,1.8-2.4,6.9-7,6.3
		c4.5,0.6,3.8-4.4,7-6.3c1.5,3,3.2,5.8,5.3,8C367.1,108.6,369,109.9,371.2,110.9z"/>
	<path class="st4" d="M335.9,102.6c2.1,0.1,3.5-0.5,4.5-1.5c1.4-1.4,1.9-3.6,2.2-6.2c4.4,3.6,5.9,8.8,10.6,10.4
		c-4.8-1.6-6.2-6.8-10.6-10.4c-0.3,2.6-0.8,4.8-2.2,6.2C339.4,102.1,338,102.6,335.9,102.6z"/>
	<path class="st4" d="M406.6,119.2L406.6,119.2c-2.3-0.9-4.1-2.3-5.7-3.9c-2.1-2.2-3.8-4.9-5.3-8c-3.2,1.8-2.4,6.9-7,6.3
		c4.5,0.6,3.8-4.4,7-6.3c1.5,3,3.2,5.8,5.3,8C402.5,116.9,404.3,118.2,406.6,119.2z"/>
	<path class="st4" d="M371.2,110.9c2.1,0.1,3.5-0.5,4.5-1.5c1.4-1.4,1.9-3.6,2.2-6.2c4.4,3.6,5.9,8.8,10.6,10.4
		c-4.8-1.6-6.2-6.8-10.6-10.4c-0.3,2.6-0.8,4.8-2.2,6.2C374.8,110.4,373.3,110.9,371.2,110.9z"/>
	<path class="st3" d="M113.1,476.1c16.8-22.6,21-31.1,14.8-71.4c-12.4-61.6-17.5-105.6-10.5-137"/>
	<path class="st3" d="M127,462c19.3-8.2,29.4-19.4,23.2-59.7c-12.4-61.6-17.5-105.6-10.5-137"/>
	<path class="st3" d="M147.3,195.8c6.7-4.3,12.6-10.2,17.8-17.8c5.5,2.2,13.2-2,18.8-6.4c-3.1,10.7-1.9,19,3.6,24.9"/>
	<path class="st3" d="M174.6,158.7c-15.1-2.9-28.3,3.5-39.7,19.3c-16,59.6-30.4,90.8-43.4,93.5"/>
	<path class="st3" d="M144.6,153.7c-2.7,0-22,2-30.6,25.1c-4.5,60.7-13.7,66.4-25.2,76.7"/>
	<path class="st3" d="M104.9,581.5c12.7,1.7,23.4-3.9,32.2-16.8"/>
	<path class="st3" d="M131.4,476.3c5.8,39.9,3.2,73.1-7.7,99.8"/>
	<path class="st3" d="M149.9,451.2c4.4,57.5,2,93.8-7.2,108.8l1.1,1.9"/>
	<path class="st3" d="M98.1,606.8c14.6,12.5,29,9.3,49.2-6.3"/>
	<path class="st3" d="M180.4,558c-2.6-0.1-13.6,11-30.6,16.4c7,4.1,14.3,5.4,21.6,3.7"/>
	<path class="st3" d="M524.2,607.4c-19.8,15.3-47.1,6.2-46-25.8"/>
	<path class="st3" d="M483,458.5c1.1,44.2,1.4,71.1,17.7,119.9"/>
	<path class="st3" d="M463.3,447.4c1.3,57.2,7.7,94.4,19.3,111.6"/>
	<path class="st3" d="M445.5,435.9c-1.4,54.2,5.3,91.4,20,111.6"/>
	<path class="st3" d="M440,487.6c-0.5,21.5,0.4,40.1,2.6,55.8c0.6,11.5,5.5,18.1,14.8,19.7c-3,6.2-7.9,8.7-14.8,7.8"/>
	<path class="st3" d="M518.4,584.8c-12.8-3.4-21.3-5.8-26.8-10.2"/>
	<path class="st5" d="M218.1,36.9c4.1,0.4,7.7,1.7,10.8,4.1c0,0,7.1,7,6.5,8c-0.5,1-14.3,1.6-15.6,1.7c-8.2,1-13.1-4.5-13.8-4.9
		C209.2,41.1,213.2,38.2,218.1,36.9"/>
	<path class="st6" d="M218.1,36.9c4.1,0.4,7.7,1.7,10.8,4.1c0,0,7.1,7,6.5,8c-0.5,1-14.3,1.6-15.6,1.7c-8.2,1-13.1-4.5-13.8-4.9
		C209.2,41.1,213.2,38.2,218.1,36.9z"/>
	<path class="st7" d="M253.2,131.8L253.2,131.8z"/>
	<path class="st5" d="M408.9,35.2c-4.1,0.4-7.7,1.7-10.8,4.2c0,0-7.1,7-6.5,8c0.5,1,14.3,1.6,15.6,1.7c8.2,1,13.1-4.5,13.8-4.9
		C417.8,39.5,413.8,36.5,408.9,35.2"/>
	<path class="st6" d="M408.9,35.2c-4.1,0.4-7.7,1.7-10.8,4.2c0,0-7.1,7-6.5,8c0.5,1,14.3,1.6,15.6,1.7c8.2,1,13.1-4.5,13.8-4.9
		C417.8,39.5,413.8,36.5,408.9,35.2z"/>
	<path class="st8" d="M217.1,49.2c-2.5,0.9-5.2-0.3-6.2-2.7c-0.9-2.4,0.3-5.2,2.7-6.1c2.5-0.9,5.2,0.3,6.2,2.7
		C220.8,45.5,219.5,48.3,217.1,49.2"/>
	<path class="st9" d="M216.5,47.6c-1.6,0.6-3.3-0.2-3.9-1.7c-0.6-1.6,0.2-3.3,1.7-3.9c1.6-0.6,3.3,0.2,3.9,1.7
		C218.8,45.3,218,47,216.5,47.6"/>
	<path class="st8" d="M412.1,47.9c-2.5,0.9-5.2-0.3-6.2-2.7c-0.9-2.4,0.3-5.2,2.7-6.1c2.5-0.9,5.2,0.3,6.2,2.7
		C415.8,44.2,414.6,47,412.1,47.9"/>
	<path class="st9" d="M411.5,46.3c-1.6,0.6-3.3-0.2-3.9-1.7c-0.6-1.6,0.2-3.3,1.7-3.9c1.6-0.6,3.3,0.2,3.9,1.7
		C413.8,44,413,45.7,411.5,46.3"/>
	<path class="st3" d="M240.6,133.7c4.1,15.4,6.6,32.4,7.5,52.4"/>
	<path class="st3" d="M256.2,129.9c5.5,15.4,8.9,28,11.1,46.4"/>
	<path class="st3" d="M272.4,123.4c5,8.2,11.5,26.8,13.2,38.3"/>
	<path class="st3" d="M356.3,128.5c-4.3,14.1-4,28.8-1.8,43.5"/>
	<path class="st3" d="M372.1,129.9c-3.5,11.2-2.1,38.2,0.3,49.4"/>
	<path class="st3" d="M343.1,123.4c-5.6,13.8-7.1,28.6-8.1,43.8"/>
	<path class="st10" d="M133.7,226.2c3.6-9.9,27.2-32.6,44.5,3.8c9.7,5.2,24.1-0.9,34.9-13.2c-21-0.2-22.4-21.1-7.9-31.5
		c5.7-15.5,12.2-17.3,21-5.2c13.2,1,22.8,16.1,7.4,30.3c19.5,7.8,42.7,5.5,65.7-9c-18.3-10.3-18.7-27.3-0.5-36.2
		c7.4-14.6,14.4-14.9,23.1-0.5c16.3,9.9,19.4,21.6,0.5,36.2c17.4,13.2,38.8,13,64.3,4.7c-13.6-14.2-8.3-30.1,9.7-29.2
		c9.6-9.5,16.6-7.4,21.1,6.2c16.8,10.3,7.5,29.4-8.2,29.9c8.3,11.7,21.6,18.9,37.2,16.7c14.8-41.6,46.3-10.3,46.6-9
		c-16,10.6-26.7,22-38.1,37.5l-10.3-5.6l4-9.3c-22.6-0.2-41.3-8.5-55.8-24.8c-29.5,9.6-57.2,6.2-83.1-10.5
		c-26.2,18.4-55.4,23.6-87.7,15.6c-12.2,16.5-28.5,23.3-49,20.5l8.5,11.2l-9.7,8C159.8,244.6,145.4,229.7,133.7,226.2"/>
</g>
<g>
	<defs>
		<path id="SVGID_1_" d="M298.8,165.2c-18.2,8.9-17.8,25.9,0.5,36.2c-23,14.5-46.2,16.9-65.7,9c15.4-14.3,5.8-29.3-7.4-30.3
			c-8.8-12-15.3-10.3-21,5.2c-14.4,10.4-13,31.3,7.9,31.5c-10.8,12.3-25.2,18.4-34.9,13.2c-17.3-36.4-41-13.7-44.5-3.8
			c11.7,3.5,26,18.4,38.3,36.8l9.7-8l-8.5-11.2c20.5,2.8,36.8-4.1,49-20.5c32.3,8,61.5,2.8,87.7-15.6c26,16.6,53.7,20.1,83.1,10.5
			c14.5,16.3,33.1,24.5,55.8,24.8l-4,9.3l10.3,5.6c11.4-15.5,22.1-26.9,38.1-37.5c-0.3-1.3-31.7-32.6-46.6,9
			c-15.7,2.2-29-4.9-37.2-16.7c15.7-0.5,25-19.6,8.2-29.9c-4.5-13.6-11.5-15.6-21.1-6.2c-18-0.9-23.3,15-9.7,29.2
			c-25.5,8.3-46.9,8.5-64.3-4.7c18.9-14.6,15.8-26.3-0.5-36.2c-4.3-7.1-8.2-10.7-11.9-10.7C306.1,154.1,302.5,157.8,298.8,165.2"/>
	</defs>
	<clipPath id="SVGID_2_">
		<use xlink:href="#SVGID_1_"  style="overflow:visible;"/>
	</clipPath>
	<path class="st11" d="M147.9,222.7c3.1-2.7,11.1-5.1,15.6-0.9c4.5,4.2,4.1,14.1,0.7,16.3C162.2,239.4,147,223.5,147.9,222.7"/>
	<path class="st12" d="M147.9,222.7c3.1-2.7,11.1-5.1,15.6-0.9c4.5,4.2,4.1,14.1,0.7,16.3C162.2,239.4,147,223.5,147.9,222.7z"/>
	<path class="st11" d="M478.9,219c-3.1-2.6-11.3-4.7-15.7-0.2c-4.4,4.4-3.7,14.2-0.3,16.3C465.1,236.3,479.8,219.7,478.9,219"/>
	<path class="st12" d="M478.9,219c-3.1-2.6-11.3-4.7-15.7-0.2c-4.4,4.4-3.7,14.2-0.3,16.3C465.1,236.3,479.8,219.7,478.9,219z"/>
	<path class="st11" d="M301.2,182.3c-0.1-8.7,2.7-15.7,6.4-15.8c3.7-0.1,6.7,6.9,6.9,15.5c0.1,8.7-2.7,15.7-6.4,15.8
		C304.4,197.9,301.3,190.9,301.2,182.3"/>
	<path class="st12" d="M301.2,182.3c-0.1-8.7,2.7-15.7,6.4-15.8c3.7-0.1,6.7,6.9,6.9,15.5c0.1,8.7-2.7,15.7-6.4,15.8
		C304.4,197.9,301.3,190.9,301.2,182.3z"/>
	<path class="st11" d="M321.3,173.8c-0.1-4.3,8,2.2,8.4,8.7c0.4,6.5-8.3,12.5-8.3,8.2C321.4,183.7,321.6,191.9,321.3,173.8"/>
	<path class="st12" d="M321.3,173.8c-0.1-4.3,8,2.2,8.4,8.7c0.4,6.5-8.3,12.5-8.3,8.2C321.4,183.7,321.6,191.9,321.3,173.8z"/>
	<path class="st11" d="M298.9,174.2c-0.1-4.3-7.9,2.5-8.1,9c-0.2,6.5,8.7,12.2,8.5,7.9C299.2,184.2,299.2,192.3,298.9,174.2"/>
	<path class="st12" d="M298.9,174.2c-0.1-4.3-7.9,2.5-8.1,9c-0.2,6.5,8.7,12.2,8.5,7.9C299.2,184.2,299.2,192.3,298.9,174.2z"/>
	<path class="st11" d="M208.6,199.5c-1.6-8.2-0.1-15.5,3.3-16.3c3.4-0.8,7.5,5.2,9.1,13.4c1.6,8.2,0.1,15.5-3.3,16.3
		C214.2,213.7,210.2,207.7,208.6,199.5"/>
	<path class="st12" d="M208.6,199.5c-1.6-8.2-0.1-15.5,3.3-16.3c3.4-0.8,7.5,5.2,9.1,13.4c1.6,8.2,0.1,15.5-3.3,16.3
		C214.2,213.7,210.2,207.7,208.6,199.5z"/>
	<path class="st11" d="M227.5,187.5c-0.8-4.1,7.9,0.5,9.4,6.6c1.5,6.1-5.7,13.6-6.5,9.5C229.2,197,230.8,204.7,227.5,187.5"/>
	<path class="st12" d="M227.5,187.5c-0.8-4.1,7.9,0.5,9.4,6.6c1.5,6.1-5.7,13.6-6.5,9.5C229.2,197,230.8,204.7,227.5,187.5z"/>
	<path class="st11" d="M206.4,192.5c-0.8-4.1-7,4-6.2,10.2c0.9,6.2,10.2,9.8,9.4,5.8C208.3,201.9,209.7,209.7,206.4,192.5"/>
	<path class="st12" d="M206.4,192.5c-0.8-4.1-7,4-6.2,10.2c0.9,6.2,10.2,9.8,9.4,5.8C208.3,201.9,209.7,209.7,206.4,192.5z"/>
	<path class="st11" d="M407.4,196c2-8.1,0.8-15.5-2.6-16.5c-3.4-1-7.7,4.8-9.7,12.9c-2,8.1-0.8,15.5,2.6,16.5
		C401,209.9,405.4,204.1,407.4,196"/>
	<path class="st12" d="M407.4,196c2-8.1,0.8-15.5-2.6-16.5c-3.4-1-7.7,4.8-9.7,12.9c-2,8.1-0.8,15.5,2.6,16.5
		C401,209.9,405.4,204.1,407.4,196z"/>
	<path class="st11" d="M395,182.9c1-4-7.9,0.1-9.7,6.1c-1.8,6,5,13.9,6,9.8C392.8,192.3,390.8,199.9,395,182.9"/>
	<path class="st12" d="M395,182.9c1-4-7.9,0.1-9.7,6.1c-1.8,6,5,13.9,6,9.8C392.8,192.3,390.8,199.9,395,182.9z"/>
	<path class="st11" d="M415.8,189c1-4,6.8,4.4,5.6,10.5s-10.7,9.3-9.7,5.3C413.4,198.3,411.6,206,415.8,189"/>
	<path class="st12" d="M415.8,189c1-4,6.8,4.4,5.6,10.5s-10.7,9.3-9.7,5.3C413.4,198.3,411.6,206,415.8,189z"/>
</g>
<g>
	<defs>
		<rect id="SVGID_3_" x="-133.4" y="-222.8" width="1608.6" height="1083.3"/>
	</defs>
	<clipPath id="SVGID_4_">
		<use xlink:href="#SVGID_3_"  style="overflow:visible;"/>
	</clipPath>
	<path class="st13" d="M133.7,226.2c3.6-9.9,27.2-32.6,44.5,3.8c9.7,5.2,24.1-0.9,34.9-13.2c-21-0.2-22.4-21.1-7.9-31.5
		c5.7-15.5,12.2-17.3,21-5.2c13.2,1,22.8,16.1,7.4,30.3c19.5,7.8,42.7,5.5,65.7-9c-18.3-10.3-18.7-27.3-0.5-36.2
		c7.4-14.6,14.4-14.9,23.1-0.5c16.3,9.9,19.4,21.6,0.5,36.2c17.4,13.2,38.8,13,64.3,4.7c-13.6-14.2-8.3-30.1,9.7-29.2
		c9.6-9.5,16.6-7.4,21.1,6.2c16.8,10.3,7.5,29.4-8.2,29.9c8.3,11.7,21.6,18.9,37.2,16.7c14.8-41.6,46.3-10.3,46.6-9
		c-16,10.6-26.7,22-38.1,37.5l-10.3-5.6l4-9.3c-22.6-0.2-41.3-8.5-55.8-24.8c-29.5,9.6-57.2,6.2-83.1-10.5
		c-26.2,18.4-55.4,23.6-87.7,15.6c-12.2,16.5-28.5,23.3-49,20.5l8.5,11.2l-9.7,8C159.8,244.6,145.4,229.7,133.7,226.2z"/>
	<rect x="189.5" y="258.8" class="st14" width="241.3" height="29.6"/>
</g>
<g>
	<defs>
		<rect id="SVGID_5_" x="189.5" y="258.8" width="241.3" height="29.6"/>
	</defs>
	<clipPath id="SVGID_6_">
		<use xlink:href="#SVGID_5_"  style="overflow:visible;"/>
	</clipPath>
	<path class="st15" d="M188.6,273.6c0-8.8,3.2-15.9,7.1-15.9c3.9,0,7.1,7.1,7.1,15.9c0,8.8-3.2,15.9-7.1,15.9
		C191.8,289.6,188.6,282.4,188.6,273.6"/>
	<path class="st16" d="M188.6,273.6c0-8.8,3.2-15.9,7.1-15.9c3.9,0,7.1,7.1,7.1,15.9c0,8.8-3.2,15.9-7.1,15.9
		C191.8,289.6,188.6,282.4,188.6,273.6z"/>
</g>
<g>
	<defs>
		<rect id="SVGID_7_" x="-133.4" y="-222.8" width="1608.6" height="1083.3"/>
	</defs>
	<clipPath id="SVGID_8_">
		<use xlink:href="#SVGID_7_"  style="overflow:visible;"/>
	</clipPath>
	<path class="st17" d="M194.1,273.6c0-3.7,0.7-6.6,1.6-6.6c0.9,0,1.6,3,1.6,6.6c0,3.7-0.7,6.6-1.6,6.6
		C194.8,280.2,194.1,277.3,194.1,273.6"/>
</g>
<g>
	<defs>
		<rect id="SVGID_9_" x="189.5" y="258.8" width="241.3" height="29.6"/>
	</defs>
	<clipPath id="SVGID_10_">
		<use xlink:href="#SVGID_9_"  style="overflow:visible;"/>
	</clipPath>
	<path class="st18" d="M202.9,273.6c0-8.8,3.2-15.9,7.1-15.9c3.9,0,7.1,7.1,7.1,15.9c0,8.8-3.2,15.9-7.1,15.9
		C206.1,289.6,202.9,282.4,202.9,273.6"/>
	<path class="st19" d="M202.9,273.6c0-8.8,3.2-15.9,7.1-15.9c3.9,0,7.1,7.1,7.1,15.9c0,8.8-3.2,15.9-7.1,15.9
		C206.1,289.6,202.9,282.4,202.9,273.6z"/>
</g>
<g>
	<defs>
		<rect id="SVGID_11_" x="-133.4" y="-222.8" width="1608.6" height="1083.3"/>
	</defs>
	<clipPath id="SVGID_12_">
		<use xlink:href="#SVGID_11_"  style="overflow:visible;"/>
	</clipPath>
	<path class="st20" d="M208.4,273.6c0-3.7,0.7-6.6,1.6-6.6s1.6,3,1.6,6.6c0,3.7-0.7,6.6-1.6,6.6S208.4,277.3,208.4,273.6"/>
</g>
<g>
	<defs>
		<rect id="SVGID_13_" x="189.5" y="258.8" width="241.3" height="29.6"/>
	</defs>
	<clipPath id="SVGID_14_">
		<use xlink:href="#SVGID_13_"  style="overflow:visible;"/>
	</clipPath>
	<path class="st21" d="M217.2,273.6c0-8.8,3.2-15.9,7.1-15.9c3.9,0,7.1,7.1,7.1,15.9c0,8.8-3.2,15.9-7.1,15.9
		C220.4,289.6,217.2,282.4,217.2,273.6"/>
	<path class="st22" d="M217.2,273.6c0-8.8,3.2-15.9,7.1-15.9c3.9,0,7.1,7.1,7.1,15.9c0,8.8-3.2,15.9-7.1,15.9
		C220.4,289.6,217.2,282.4,217.2,273.6z"/>
</g>
<g>
	<defs>
		<rect id="SVGID_15_" x="-133.4" y="-222.8" width="1608.6" height="1083.3"/>
	</defs>
	<clipPath id="SVGID_16_">
		<use xlink:href="#SVGID_15_"  style="overflow:visible;"/>
	</clipPath>
	<path class="st23" d="M222.7,273.6c0-3.7,0.7-6.6,1.6-6.6s1.6,3,1.6,6.6c0,3.7-0.7,6.6-1.6,6.6S222.7,277.3,222.7,273.6"/>
</g>
<g>
	<defs>
		<rect id="SVGID_17_" x="189.5" y="258.8" width="241.3" height="29.6"/>
	</defs>
	<clipPath id="SVGID_18_">
		<use xlink:href="#SVGID_17_"  style="overflow:visible;"/>
	</clipPath>
	<path class="st24" d="M231.5,273.6c0-8.8,3.2-15.9,7.1-15.9c3.9,0,7.1,7.1,7.1,15.9c0,8.8-3.2,15.9-7.1,15.9
		C234.7,289.6,231.5,282.4,231.5,273.6"/>
	<path class="st25" d="M231.5,273.6c0-8.8,3.2-15.9,7.1-15.9c3.9,0,7.1,7.1,7.1,15.9c0,8.8-3.2,15.9-7.1,15.9
		C234.7,289.6,231.5,282.4,231.5,273.6z"/>
</g>
<g>
	<defs>
		<rect id="SVGID_19_" x="-133.4" y="-222.8" width="1608.6" height="1083.3"/>
	</defs>
	<clipPath id="SVGID_20_">
		<use xlink:href="#SVGID_19_"  style="overflow:visible;"/>
	</clipPath>
	<path class="st26" d="M237,273.6c0-3.7,0.7-6.6,1.6-6.6s1.6,3,1.6,6.6c0,3.7-0.7,6.6-1.6,6.6S237,277.3,237,273.6"/>
</g>
<g>
	<defs>
		<rect id="SVGID_21_" x="189.5" y="258.8" width="241.3" height="29.6"/>
	</defs>
	<clipPath id="SVGID_22_">
		<use xlink:href="#SVGID_21_"  style="overflow:visible;"/>
	</clipPath>
	<path class="st27" d="M245.8,273.6c0-8.8,3.2-15.9,7.1-15.9c3.9,0,7.1,7.1,7.1,15.9c0,8.8-3.2,15.9-7.1,15.9
		C249,289.6,245.8,282.4,245.8,273.6"/>
	<path class="st28" d="M245.8,273.6c0-8.8,3.2-15.9,7.1-15.9c3.9,0,7.1,7.1,7.1,15.9c0,8.8-3.2,15.9-7.1,15.9
		C249,289.6,245.8,282.4,245.8,273.6z"/>
</g>
<g>
	<defs>
		<rect id="SVGID_23_" x="-133.4" y="-222.8" width="1608.6" height="1083.3"/>
	</defs>
	<clipPath id="SVGID_24_">
		<use xlink:href="#SVGID_23_"  style="overflow:visible;"/>
	</clipPath>
	<path class="st29" d="M251.3,273.6c0-3.7,0.7-6.6,1.6-6.6s1.6,3,1.6,6.6c0,3.7-0.7,6.6-1.6,6.6S251.3,277.3,251.3,273.6"/>
</g>
<g>
	<defs>
		<rect id="SVGID_25_" x="189.5" y="258.8" width="241.3" height="29.6"/>
	</defs>
	<clipPath id="SVGID_26_">
		<use xlink:href="#SVGID_25_"  style="overflow:visible;"/>
	</clipPath>
	<path class="st30" d="M260.1,273.6c0-8.8,3.2-15.9,7.1-15.9c3.9,0,7.1,7.1,7.1,15.9c0,8.8-3.2,15.9-7.1,15.9
		C263.3,289.6,260.1,282.4,260.1,273.6"/>
	<path class="st31" d="M260.1,273.6c0-8.8,3.2-15.9,7.1-15.9c3.9,0,7.1,7.1,7.1,15.9c0,8.8-3.2,15.9-7.1,15.9
		C263.3,289.6,260.1,282.4,260.1,273.6z"/>
</g>
<g>
	<defs>
		<rect id="SVGID_27_" x="-133.4" y="-222.8" width="1608.6" height="1083.3"/>
	</defs>
	<clipPath id="SVGID_28_">
		<use xlink:href="#SVGID_27_"  style="overflow:visible;"/>
	</clipPath>
	<path class="st32" d="M265.6,273.6c0-3.7,0.7-6.6,1.6-6.6c0.9,0,1.6,3,1.6,6.6c0,3.7-0.7,6.6-1.6,6.6
		C266.4,280.2,265.6,277.3,265.6,273.6"/>
</g>
<g>
	<defs>
		<rect id="SVGID_29_" x="189.5" y="258.8" width="241.3" height="29.6"/>
	</defs>
	<clipPath id="SVGID_30_">
		<use xlink:href="#SVGID_29_"  style="overflow:visible;"/>
	</clipPath>
	<path class="st33" d="M274.4,273.6c0-8.8,3.2-15.9,7.1-15.9c3.9,0,7.1,7.1,7.1,15.9c0,8.8-3.2,15.9-7.1,15.9
		C277.6,289.6,274.4,282.4,274.4,273.6"/>
	<path class="st34" d="M274.4,273.6c0-8.8,3.2-15.9,7.1-15.9c3.9,0,7.1,7.1,7.1,15.9c0,8.8-3.2,15.9-7.1,15.9
		C277.6,289.6,274.4,282.4,274.4,273.6z"/>
</g>
<g>
	<defs>
		<rect id="SVGID_31_" x="-133.4" y="-222.8" width="1608.6" height="1083.3"/>
	</defs>
	<clipPath id="SVGID_32_">
		<use xlink:href="#SVGID_31_"  style="overflow:visible;"/>
	</clipPath>
	<path class="st35" d="M280,273.6c0-3.7,0.7-6.6,1.6-6.6c0.9,0,1.6,3,1.6,6.6c0,3.7-0.7,6.6-1.6,6.6
		C280.7,280.2,280,277.3,280,273.6"/>
</g>
<g>
	<defs>
		<rect id="SVGID_33_" x="189.5" y="258.8" width="241.3" height="29.6"/>
	</defs>
	<clipPath id="SVGID_34_">
		<use xlink:href="#SVGID_33_"  style="overflow:visible;"/>
	</clipPath>
	<path class="st36" d="M288.7,273.6c0-8.8,3.2-15.9,7.1-15.9c3.9,0,7.1,7.1,7.1,15.9c0,8.8-3.2,15.9-7.1,15.9
		C291.9,289.6,288.7,282.4,288.7,273.6"/>
	<path class="st37" d="M288.7,273.6c0-8.8,3.2-15.9,7.1-15.9c3.9,0,7.1,7.1,7.1,15.9c0,8.8-3.2,15.9-7.1,15.9
		C291.9,289.6,288.7,282.4,288.7,273.6z"/>
</g>
<g>
	<defs>
		<rect id="SVGID_35_" x="-133.4" y="-222.8" width="1608.6" height="1083.3"/>
	</defs>
	<clipPath id="SVGID_36_">
		<use xlink:href="#SVGID_35_"  style="overflow:visible;"/>
	</clipPath>
	<path class="st38" d="M294.3,273.6c0-3.7,0.7-6.6,1.6-6.6c0.9,0,1.6,3,1.6,6.6c0,3.7-0.7,6.6-1.6,6.6
		C295,280.2,294.3,277.3,294.3,273.6"/>
</g>
<g>
	<defs>
		<rect id="SVGID_37_" x="189.5" y="258.8" width="241.3" height="29.6"/>
	</defs>
	<clipPath id="SVGID_38_">
		<use xlink:href="#SVGID_37_"  style="overflow:visible;"/>
	</clipPath>
	<path class="st39" d="M303,273.6c0-8.8,3.2-15.9,7.1-15.9c3.9,0,7.1,7.1,7.1,15.9c0,8.8-3.2,15.9-7.1,15.9
		C306.2,289.6,303,282.4,303,273.6"/>
	<path class="st40" d="M303,273.6c0-8.8,3.2-15.9,7.1-15.9c3.9,0,7.1,7.1,7.1,15.9c0,8.8-3.2,15.9-7.1,15.9
		C306.2,289.6,303,282.4,303,273.6z"/>
</g>
<g>
	<defs>
		<rect id="SVGID_39_" x="-133.4" y="-222.8" width="1608.6" height="1083.3"/>
	</defs>
	<clipPath id="SVGID_40_">
		<use xlink:href="#SVGID_39_"  style="overflow:visible;"/>
	</clipPath>
	<path class="st41" d="M308.6,273.6c0-3.7,0.7-6.6,1.6-6.6c0.9,0,1.6,3,1.6,6.6c0,3.7-0.7,6.6-1.6,6.6
		C309.3,280.2,308.6,277.3,308.6,273.6"/>
</g>
<g>
	<defs>
		<rect id="SVGID_41_" x="189.5" y="258.8" width="241.3" height="29.6"/>
	</defs>
	<clipPath id="SVGID_42_">
		<use xlink:href="#SVGID_41_"  style="overflow:visible;"/>
	</clipPath>
	<path class="st42" d="M317.4,273.6c0-8.8,3.2-15.9,7.1-15.9c3.9,0,7.1,7.1,7.1,15.9c0,8.8-3.2,15.9-7.1,15.9
		C320.5,289.6,317.4,282.4,317.4,273.6"/>
	<path class="st43" d="M317.4,273.6c0-8.8,3.2-15.9,7.1-15.9c3.9,0,7.1,7.1,7.1,15.9c0,8.8-3.2,15.9-7.1,15.9
		C320.5,289.6,317.4,282.4,317.4,273.6z"/>
</g>
<g>
	<defs>
		<rect id="SVGID_43_" x="-133.4" y="-222.8" width="1608.6" height="1083.3"/>
	</defs>
	<clipPath id="SVGID_44_">
		<use xlink:href="#SVGID_43_"  style="overflow:visible;"/>
	</clipPath>
	<path class="st44" d="M322.9,273.6c0-3.7,0.7-6.6,1.6-6.6c0.9,0,1.6,3,1.6,6.6c0,3.7-0.7,6.6-1.6,6.6
		C323.6,280.2,322.9,277.3,322.9,273.6"/>
</g>
<g>
	<defs>
		<rect id="SVGID_45_" x="189.5" y="258.8" width="241.3" height="29.6"/>
	</defs>
	<clipPath id="SVGID_46_">
		<use xlink:href="#SVGID_45_"  style="overflow:visible;"/>
	</clipPath>
	<path class="st45" d="M331.7,273.6c0-8.8,3.2-15.9,7.1-15.9c3.9,0,7.1,7.1,7.1,15.9c0,8.8-3.2,15.9-7.1,15.9
		C334.8,289.6,331.7,282.4,331.7,273.6"/>
	<path class="st46" d="M331.7,273.6c0-8.8,3.2-15.9,7.1-15.9c3.9,0,7.1,7.1,7.1,15.9c0,8.8-3.2,15.9-7.1,15.9
		C334.8,289.6,331.7,282.4,331.7,273.6z"/>
</g>
<g>
	<defs>
		<rect id="SVGID_47_" x="-133.4" y="-222.8" width="1608.6" height="1083.3"/>
	</defs>
	<clipPath id="SVGID_48_">
		<use xlink:href="#SVGID_47_"  style="overflow:visible;"/>
	</clipPath>
	<path class="st47" d="M337.2,273.6c0-3.7,0.7-6.6,1.6-6.6s1.6,3,1.6,6.6c0,3.7-0.7,6.6-1.6,6.6S337.2,277.3,337.2,273.6"/>
</g>
<g>
	<defs>
		<rect id="SVGID_49_" x="189.5" y="258.8" width="241.3" height="29.6"/>
	</defs>
	<clipPath id="SVGID_50_">
		<use xlink:href="#SVGID_49_"  style="overflow:visible;"/>
	</clipPath>
	<path class="st48" d="M346,273.6c0-8.8,3.2-15.9,7.1-15.9c3.9,0,7.1,7.1,7.1,15.9c0,8.8-3.2,15.9-7.1,15.9
		C349.2,289.6,346,282.4,346,273.6"/>
	<path class="st49" d="M346,273.6c0-8.8,3.2-15.9,7.1-15.9c3.9,0,7.1,7.1,7.1,15.9c0,8.8-3.2,15.9-7.1,15.9
		C349.2,289.6,346,282.4,346,273.6z"/>
</g>
<g>
	<defs>
		<rect id="SVGID_51_" x="-133.4" y="-222.8" width="1608.6" height="1083.3"/>
	</defs>
	<clipPath id="SVGID_52_">
		<use xlink:href="#SVGID_51_"  style="overflow:visible;"/>
	</clipPath>
	<path class="st50" d="M351.5,273.6c0-3.7,0.7-6.6,1.6-6.6c0.9,0,1.6,3,1.6,6.6c0,3.7-0.7,6.6-1.6,6.6
		C352.2,280.2,351.5,277.3,351.5,273.6"/>
</g>
<g>
	<defs>
		<rect id="SVGID_53_" x="189.5" y="258.8" width="241.3" height="29.6"/>
	</defs>
	<clipPath id="SVGID_54_">
		<use xlink:href="#SVGID_53_"  style="overflow:visible;"/>
	</clipPath>
	<path class="st51" d="M360.3,273.6c0-8.8,3.2-15.9,7.1-15.9c3.9,0,7.1,7.1,7.1,15.9c0,8.8-3.2,15.9-7.1,15.9
		C363.5,289.6,360.3,282.4,360.3,273.6"/>
	<path class="st52" d="M360.3,273.6c0-8.8,3.2-15.9,7.1-15.9c3.9,0,7.1,7.1,7.1,15.9c0,8.8-3.2,15.9-7.1,15.9
		C363.5,289.6,360.3,282.4,360.3,273.6z"/>
</g>
<g>
	<defs>
		<rect id="SVGID_55_" x="-133.4" y="-222.8" width="1608.6" height="1083.3"/>
	</defs>
	<clipPath id="SVGID_56_">
		<use xlink:href="#SVGID_55_"  style="overflow:visible;"/>
	</clipPath>
	<path class="st53" d="M365.8,273.6c0-3.7,0.7-6.6,1.6-6.6c0.9,0,1.6,3,1.6,6.6c0,3.7-0.7,6.6-1.6,6.6
		C366.5,280.2,365.8,277.3,365.8,273.6"/>
</g>
<g>
	<defs>
		<rect id="SVGID_57_" x="189.5" y="258.8" width="241.3" height="29.6"/>
	</defs>
	<clipPath id="SVGID_58_">
		<use xlink:href="#SVGID_57_"  style="overflow:visible;"/>
	</clipPath>
	<path class="st54" d="M374.6,273.6c0-8.8,3.2-15.9,7.1-15.9c3.9,0,7.1,7.1,7.1,15.9c0,8.8-3.2,15.9-7.1,15.9
		C377.8,289.6,374.6,282.4,374.6,273.6"/>
	<path class="st55" d="M374.6,273.6c0-8.8,3.2-15.9,7.1-15.9c3.9,0,7.1,7.1,7.1,15.9c0,8.8-3.2,15.9-7.1,15.9
		C377.8,289.6,374.6,282.4,374.6,273.6z"/>
</g>
<g>
	<defs>
		<rect id="SVGID_59_" x="-133.4" y="-222.8" width="1608.6" height="1083.3"/>
	</defs>
	<clipPath id="SVGID_60_">
		<use xlink:href="#SVGID_59_"  style="overflow:visible;"/>
	</clipPath>
	<path class="st56" d="M380.1,273.6c0-3.7,0.7-6.6,1.6-6.6c0.9,0,1.6,3,1.6,6.6c0,3.7-0.7,6.6-1.6,6.6
		C380.8,280.2,380.1,277.3,380.1,273.6"/>
</g>
<g>
	<defs>
		<rect id="SVGID_61_" x="189.5" y="258.8" width="241.3" height="29.6"/>
	</defs>
	<clipPath id="SVGID_62_">
		<use xlink:href="#SVGID_61_"  style="overflow:visible;"/>
	</clipPath>
	<path class="st57" d="M388.9,273.6c0-8.8,3.2-15.9,7.1-15.9c3.9,0,7.1,7.1,7.1,15.9c0,8.8-3.2,15.9-7.1,15.9
		C392.1,289.6,388.9,282.4,388.9,273.6"/>
	<path class="st58" d="M388.9,273.6c0-8.8,3.2-15.9,7.1-15.9c3.9,0,7.1,7.1,7.1,15.9c0,8.8-3.2,15.9-7.1,15.9
		C392.1,289.6,388.9,282.4,388.9,273.6z"/>
</g>
<g>
	<path class="st9" d="M394.4,273.6c0-3.7,0.7-6.6,1.6-6.6c0.9,0,1.6,3,1.6,6.6c0,3.7-0.7,6.6-1.6,6.6
		C395.1,280.2,394.4,277.3,394.4,273.6"/>
</g>
<g>
	<defs>
		<rect id="SVGID_63_" x="189.5" y="258.8" width="241.3" height="29.6"/>
	</defs>
	<clipPath id="SVGID_64_">
		<use xlink:href="#SVGID_63_"  style="overflow:visible;"/>
	</clipPath>
	<path class="st59" d="M403.2,273.6c0-8.8,3.2-15.9,7.1-15.9c3.9,0,7.1,7.1,7.1,15.9c0,8.8-3.2,15.9-7.1,15.9
		C406.4,289.6,403.2,282.4,403.2,273.6"/>
	<path class="st60" d="M403.2,273.6c0-8.8,3.2-15.9,7.1-15.9c3.9,0,7.1,7.1,7.1,15.9c0,8.8-3.2,15.9-7.1,15.9
		C406.4,289.6,403.2,282.4,403.2,273.6z"/>
</g>
<g>
	<defs>
		<rect id="SVGID_65_" x="-70.9" y="-172.7" width="1608.6" height="1083.3"/>
	</defs>
	<clipPath id="SVGID_66_">
		<use xlink:href="#SVGID_65_"  style="overflow:visible;"/>
	</clipPath>
	<path class="st61" d="M471.3,323.7c0-3.7,0.7-6.6,1.6-6.6c0.9,0,1.6,3,1.6,6.6c0,3.7-0.7,6.6-1.6,6.6
		C472,330.3,471.3,327.3,471.3,323.7"/>
</g>
<g>
	<defs>
		<rect id="SVGID_67_" x="189.5" y="258.8" width="241.3" height="29.6"/>
	</defs>
	<clipPath id="SVGID_68_">
		<use xlink:href="#SVGID_67_"  style="overflow:visible;"/>
	</clipPath>
	<path class="st62" d="M417.5,273.6c0-8.8,3.2-15.9,7.1-15.9c3.9,0,7.1,7.1,7.1,15.9c0,8.8-3.2,15.9-7.1,15.9
		C420.7,289.6,417.5,282.4,417.5,273.6"/>
	<path class="st63" d="M417.5,273.6c0-8.8,3.2-15.9,7.1-15.9c3.9,0,7.1,7.1,7.1,15.9c0,8.8-3.2,15.9-7.1,15.9
		C420.7,289.6,417.5,282.4,417.5,273.6z"/>
</g>
<g>
	<path class="st9" d="M423,273.6c0-3.7,0.7-6.6,1.6-6.6c0.9,0,1.6,3,1.6,6.6c0,3.7-0.7,6.6-1.6,6.6C423.7,280.2,423,277.3,423,273.6
		"/>
	<rect x="189.5" y="258.8" class="st7" width="241.3" height="29.6"/>
	<path class="st10" d="M163.6,251.7c138.4-44.1,160.5-43.1,296.1,0.1L431.2,286c-98.8-38.8-144.7-33.3-242.7-1.2L163.6,251.7z"/>
</g>
<g>
	<defs>
		<path id="SVGID_69_" d="M163.6,251.7l24.9,33.2c97.9-32.2,143.9-37.7,242.7,1.2l28.5-34.3C391.5,230.1,352,219,312,219
			C272.4,219,232.4,229.8,163.6,251.7"/>
	</defs>
	<clipPath id="SVGID_70_">
		<use xlink:href="#SVGID_69_"  style="overflow:visible;"/>
	</clipPath>
	<path class="st64" d="M161.4,257.5c137.1-43.7,165.1-42.9,297.6-0.7l-18.2,27.5c-112.2-44.1-153.5-37.5-260.2-2.4L161.4,257.5z"/>
	<path class="st65" d="M161.4,257.5c137.1-43.7,165.1-42.9,297.6-0.7l-18.2,27.5c-112.2-44.1-153.5-37.5-260.2-2.4L161.4,257.5z"/>
	<path class="st66" d="M205.7,262.7c-1-3.6,4.8-8.6,12.9-11.2c8.2-2.6,15.6-1.7,16.6,1.9c1,3.6-4.8,8.6-12.9,11.2
		C214.1,267.2,206.7,266.4,205.7,262.7"/>
	<path class="st65" d="M205.7,262.7c-1-3.6,4.8-8.6,12.9-11.2c8.2-2.6,15.6-1.7,16.6,1.9c1,3.6-4.8,8.6-12.9,11.2
		C214.1,267.2,206.7,266.4,205.7,262.7z"/>
	<path class="st66" d="M408.9,261.5c1.1-3.6-4.7-8.7-12.8-11.5c-8.1-2.7-15.6-2-16.6,1.6c-1.1,3.6,4.7,8.7,12.8,11.5
		C400.4,265.8,407.8,265.1,408.9,261.5"/>
	<path class="st65" d="M408.9,261.5c1.1-3.6-4.7-8.7-12.8-11.5c-8.1-2.7-15.6-2-16.6,1.6c-1.1,3.6,4.7,8.7,12.8,11.5
		C400.4,265.8,407.8,265.1,408.9,261.5z"/>
	<path class="st66" d="M298.2,241.8c0-4.6,5.3-8.3,11.7-8.2c6.4,0.1,11.6,3.8,11.6,8.4c0,4.6-5.3,8.3-11.7,8.2
		C303.4,250.2,298.2,246.4,298.2,241.8"/>
	<path class="st65" d="M298.2,241.8c0-4.6,5.3-8.3,11.7-8.2c6.4,0.1,11.6,3.8,11.6,8.4c0,4.6-5.3,8.3-11.7,8.2
		C303.4,250.2,298.2,246.4,298.2,241.8z"/>
	<polygon class="st64" points="254.6,244.8 267.8,236.2 283.9,242.5 270.2,250.9 	"/>
	<polygon class="st67" points="254.6,244.8 267.8,236.2 283.9,242.5 270.2,250.9 	"/>
	<polygon class="st64" points="165.2,278 173.6,264 190.7,262.2 181.8,276.1 	"/>
	<polygon class="st67" points="165.2,278 173.6,264 190.7,262.2 181.8,276.1 	"/>
	<polygon class="st64" points="367.4,245.2 354.4,236.3 338.1,242.4 351.7,251 	"/>
	<polygon class="st67" points="367.4,245.2 354.4,236.3 338.1,242.4 351.7,251 	"/>
	<polygon class="st64" points="454.6,280 446.6,265.9 429.5,263.7 438.1,277.8 	"/>
	<polygon class="st67" points="454.6,280 446.6,265.9 429.5,263.7 438.1,277.8 	"/>
</g>
<g>
	<path class="st7" d="M163.6,251.7c138.4-44.1,160.5-43.1,296.1,0.1L431.2,286c-98.8-38.8-144.7-33.3-242.7-1.2L163.6,251.7z"/>
	<path class="st5" d="M189.4,286.8h242v262.5c0,17.6-60.5,15.8-77.5,20.6c-28.5,8.2-34.2,18.8-41,19c-6.9,0.2-12.9-13.9-40.1-20.3
		c-31.2-7.3-83.5,1.8-83.5-17.6V286.8z"/>
</g>
<g>
	<defs>
		<path id="SVGID_71_" d="M189.4,286.8v264.1c0,19.4,52.3,10.3,83.5,17.6c27.2,6.4,33.1,20.5,40.1,20.3c6.8-0.2,12.5-10.8,41-19
			c17-4.9,77.5-3.1,77.5-20.6V286.8H189.4z"/>
	</defs>
	<clipPath id="SVGID_72_">
		<use xlink:href="#SVGID_71_"  style="overflow:visible;"/>
	</clipPath>
	<rect x="178.2" y="277.8" class="st68" width="43.3" height="319.8"/>
	<rect x="178.2" y="277.8" class="st69" width="43.3" height="319.8"/>
	<rect x="256.1" y="277.8" class="st68" width="43.3" height="319.8"/>
	<rect x="256.1" y="277.8" class="st69" width="43.3" height="319.8"/>
	<rect x="329.1" y="277.8" class="st68" width="43.3" height="319.8"/>
	<rect x="329.1" y="277.8" class="st69" width="43.3" height="319.8"/>
	<rect x="391.8" y="277.8" class="st68" width="43.3" height="319.8"/>
	<rect x="391.8" y="277.8" class="st69" width="43.3" height="319.8"/>
	<rect x="216.6" y="277.8" class="st70" width="43.3" height="319.8"/>
	<rect x="216.6" y="277.8" class="st69" width="43.3" height="319.8"/>
	<rect x="291.4" y="277.8" class="st70" width="43.3" height="319.8"/>
	<rect x="291.4" y="277.8" class="st69" width="43.3" height="319.8"/>
	<rect x="364.7" y="278.1" class="st70" width="43.3" height="319.8"/>
	<rect x="364.7" y="278.1" class="st69" width="43.3" height="319.8"/>
	<polygon class="st71" points="160.6,539.4 428.7,263.1 460.4,300.7 192.3,576.9 	"/>
	<polygon class="st69" points="160.6,539.4 428.7,263.1 460.4,300.7 192.3,576.9 	"/>
	<path class="st72" d="M237.7,507.8l7.2-7.4l5,3.2l4.4-4.6l-25-14.5l-4.7,4.8l11.2,28.7l4.3-4.4L237.7,507.8z M231,491.9L231,491.9
		l9.7,6l-5,5.1L231,491.9z"/>
	<path class="st68" d="M259.9,478.3l4.5-4.7c2.8,5.2,0.2,8.7-0.7,9.6c-2.8,2.9-7,4.3-11.9-1.6c-4.7-5.5-3.8-10.5-0.9-13.5
		c2.9-3,6.5-1.7,7.2-0.8l4.1-4.2c-2.7-2.7-8.7-4.6-14.7,1.6c-6.6,6.7-4.9,15.3,0.1,21.2c6.4,7.6,13.8,6.9,18.5,2
		c3.6-3.7,3.4-7.2,3.3-9.5l2.7,2.3l2.7-2.8l-9.8-11.6l-8.1,8.4L259.9,478.3z"/>
	<path class="st68" d="M276.5,435.8l-4.2,4.3l12,14.2c2.2,2.6,2.3,5.3-0.5,8.2c-1.9,2-4.6,2.3-7.1-0.7l-11.8-14l-4.1,4.3l12,14.3
		c1.9,2.1,3.7,3.4,5.9,3.7c3.5,0.3,6.6-1.9,8.4-3.8c4.9-5.1,6-10.7,1.2-16.3L276.5,435.8z"/>
	<polygon class="st68" points="284.8,427.3 280.7,431.5 298.9,453 303,448.8 	"/>
	<polygon class="st68" points="293.2,418.6 289.2,422.8 307.3,444.3 321.1,430.2 317.8,426.3 308.1,436.2 	"/>
	<path class="st72" d="M324.8,418l7.2-7.4l5,3.2l4.4-4.6l-25-14.5l-4.7,4.8l11.2,28.7l4.3-4.4L324.8,418z M318.1,402.1L318.1,402.1
		l9.7,6l-5,5.1L318.1,402.1z"/>
	<path class="st68" d="M338,400.4c2.3,2.7,7.3,5.9,14.4-1.4c1.7-1.8,7.2-8.5,1.7-15c-3.3-3.9-6.7-2.6-10-0.5l-5.8,3.6
		c-1,0.6-2.5,1.6-4-0.1c-1.6-2-0.3-4.5,1.2-6.1c3.6-3.7,5.8-1.7,6.7-0.9l3.9-4c-2.3-2.6-7.5-5.3-13.5,0.9
		c-6.3,6.5-3.9,11.9-1.9,14.3c4,4.7,7.7,2.4,11.5,0l2.5-1.6c2.5-1.6,4.4-2.6,5.8-1c1.9,2.3,0.2,5-1.7,7c-3.6,3.7-6,1.9-7.1,0.8
		L338,400.4z"/>
	<path class="st68" d="M404,318.2c-2.9-3-9-5-14.8,1.1c-5,5.2-5.7,13.1,0.6,20.6c6.3,7.4,13.3,7.5,18.4,2.1c4.9-5,4.9-11.2,1.8-16.7
		l-4.1,4.2c1.7,3.1,1.4,6.2-0.9,8.5c-3.4,3.6-7.8,1.5-11-2.4c-5.1-6.1-3.5-10.5-1.5-12.5c3.4-3.5,6-1.7,7.5-0.7L404,318.2z"/>
	<polygon class="st68" points="419.9,320.7 415.9,324.9 419.6,329.3 423.6,325.1 	"/>
</g>
<g>
	<defs>
		<rect id="SVGID_73_" x="189.4" y="286.8" width="122.6" height="82.1"/>
	</defs>
	<clipPath id="SVGID_74_">
		<use xlink:href="#SVGID_73_"  style="overflow:visible;"/>
	</clipPath>
	
		<linearGradient id="SVGID_75_" gradientUnits="userSpaceOnUse" x1="-6.4492" y1="508.8604" x2="-3.5347" y2="508.8604" gradientTransform="matrix(-2.9942 -34.2235 -34.2235 2.9942 17651.6406 -1356.4608)">
		<stop  offset="0" style="stop-color:#FFFFFF"/>
		<stop  offset="0.797" style="stop-color:#FFFFFF"/>
		<stop  offset="0.9167" style="stop-color:#97B6E1"/>
		<stop  offset="1" style="stop-color:#3B8ACA"/>
	</linearGradient>
	<polygon class="st73" points="190.4,380.7 183,287.4 311.1,275.1 318.4,368.3 	"/>
</g>
<g>
	<defs>
		<rect id="SVGID_76_" x="189.6" y="286.8" width="122.6" height="82.1"/>
	</defs>
	<clipPath id="SVGID_77_">
		<use xlink:href="#SVGID_76_"  style="overflow:visible;"/>
	</clipPath>
	<rect x="172.3" y="273.3" class="st74" width="159.6" height="74.6"/>
	<polygon class="st75" points="224.8,328 225,318.5 232.1,316.8 234.4,300.4 252.4,300.8 258.2,312.3 289.5,311.6 294.5,317.7 
		299.7,336.2 284.2,342.5 269.5,338.4 257.7,337.2 245.9,332.9 235.4,334.3 230.4,330.4 224.5,328.8 	"/>
	<polygon class="st74" points="224.8,328 225,318.5 232.1,316.8 234.4,300.4 252.4,300.8 258.2,312.3 289.5,311.6 294.5,317.7 
		299.7,336.2 284.2,342.5 269.5,338.4 257.7,337.2 245.9,332.9 235.4,334.3 230.4,330.4 224.5,328.8 	"/>
	<path class="st76" d="M314.9,347.5l6.6,19.4l-11.1,11.9l-33.6,2.8l-37.3-1.4c0,0-38.4,0.6-39.3,0.6c-0.9,0-12.1-5.9-12.1-5.9
		l-3.9-25.8l5.3-17.9l14.7,2.4l9.9-1.7c0,0,8-3.6,9.1-3.3c1.1,0.2,7.6,2.6,7.6,2.6s3.2-2.1,3.9-2.9c0.6-0.7,6.9-2.1,6.9-2.1l5-0.2
		l5.8,4.3c0,0,5.2,3.8,6.5,4.1c1.3,0.2,5,0.5,5.8,0.5h5.8c0,0,3.2,1.2,4.8,1.9c1.5,0.7,4.3,1.9,4.3,1.9s2.6,0.7,3.2,1
		c0.6,0.2,3.5-1.7,4.5-2.1c1.1-0.5,5-2.6,6-1.9c1.1,0.7,4.5,0,6.3,0.7c1.7,0.7,5.8,0.5,6.7,1c0.9,0.5,6.7,2.4,6.7,2.4L314.9,347.5z"
		/>
	<path class="st74" d="M314.9,347.5l6.6,19.4l-11.1,11.9l-33.6,2.8l-37.3-1.4c0,0-38.4,0.6-39.3,0.6c-0.9,0-12.1-5.9-12.1-5.9
		l-3.9-25.8l5.3-17.9l14.7,2.4l9.9-1.7c0,0,8-3.6,9.1-3.3c1.1,0.2,7.6,2.6,7.6,2.6s3.2-2.1,3.9-2.9c0.6-0.7,6.9-2.1,6.9-2.1l5-0.2
		l5.8,4.3c0,0,5.2,3.8,6.5,4.1c1.3,0.2,5,0.5,5.8,0.5h5.8c0,0,3.2,1.2,4.8,1.9c1.5,0.7,4.3,1.9,4.3,1.9s2.6,0.7,3.2,1
		c0.6,0.2,3.5-1.7,4.5-2.1c1.1-0.5,5-2.6,6-1.9c1.1,0.7,4.5,0,6.3,0.7c1.7,0.7,5.8,0.5,6.7,1c0.9,0.5,6.7,2.4,6.7,2.4L314.9,347.5z"
		/>
	<rect x="279.2" y="317.8" class="st77" width="6.7" height="4.8"/>
	<rect x="279.2" y="317.8" class="st74" width="6.7" height="4.8"/>
	<rect x="266.9" y="317.5" class="st77" width="4.7" height="6.7"/>
	<rect x="266.9" y="317.5" class="st74" width="4.7" height="6.7"/>
	<rect x="241.7" y="307.5" class="st77" width="5.9" height="6.5"/>
	<rect x="241.7" y="307.5" class="st74" width="5.9" height="6.5"/>
	<path class="st78" d="M194.3,341.3l5.9,1.1l5,2.2c0,0,5.6-2.7,6.1-2.9c1.4-3.4,4-4.6,7.6-3.6c0,0,3.6-0.7,4.9-0.5
		c1.3,0.2,3.8,0.2,4.8,1.3c1,1.1,1.8,2,1.8,2c5.9,2.6,11.7,9.6,8.7,14.6 M218.5,360.8l8.7-4l9.7-0.4c0,0,2.2,1.6,2.8,3.1
		c0.7,1.5,3.6,4.6,3.6,4.6l2.8-6c0,0,0.5-2,4.1-2.4c3.6-0.4,7.6,0.7,7.6,0.7h4c0,0,0.7,4,1.2-1.1c0.5-5.1,1-6.7,0.3-8.2
		c-0.7-1.5-0.8-3.3-2-4.9c-1.2-1.6-0.8-2.4-2.6-3.3c-1.8-0.9-2.1-1.1-4.3-1.6c-2.1-0.6-3.5-0.4-4-1.1c-0.5-0.7-2-2.4-2-2.4
		s-1.8-0.7-2.6-0.9c-0.8-0.2-5.3-6.6-8.6-4.2c-3.3,2.4-3.9,2.4-3.9,2.4 M271.6,338l-3,2.2c0,0-3.1,2.4-0.3,5.1
		c2.8,2.7,4.8,3.5,7.1,3.6c2.3,0.2,4.5,0.2,5.8,0.2s0.3-1.5,3.5,0.7c3.1,2.2,1.1,1.8,5.3,4.5c4.1,2.7,5.1,1.3,6.3,0.6
		c1.2-0.7-4.3-1.1,2.5-2.4c6.8-1.3,6.6-1.3,6.6-1.3 M273.6,360.4c0,0-3.3-0.2-3.6,1.6c-0.3,1.8-2.1,2.2-1.5,3.3
		c0.7,1.1,0.7,1.8,0.7,1.8 M276.5,351.4c10.8,5.5-0.5,12.3,17.1,11.5c0,0,3.3-3.3,3,4.5c-0.4,7.8,8.9-10.3,8.9-10.3
		s-2.2-9.4,3.3-8.6 M217.2,363.8c0.9-6.3-9.1-9.1-9.6-6.6c-0.3,1.8-11,0.9-10.4,2c0.7,1.1,0.7,1.8,0.7,1.8"/>
</g>
<g>
	<defs>
		<path id="SVGID_78_" d="M189.4,286.8v264.1c0,19.4,52.3,10.3,83.5,17.6c27.2,6.4,33.1,20.5,40.1,20.3c6.8-0.2,12.5-10.8,41-19
			c17-4.9,77.5-3.1,77.5-20.6V286.8H189.4z"/>
	</defs>
	<clipPath id="SVGID_79_">
		<use xlink:href="#SVGID_78_"  style="overflow:visible;"/>
	</clipPath>
	<rect x="189.6" y="286.8" class="st79" width="122.6" height="82.1"/>
</g>
<g>
	<path class="st80" d="M189.4,286.8h242v262.5c0,17.6-60.5,15.8-77.5,20.6c-28.5,8.2-34.2,18.8-41,19c-6.9,0.2-12.9-13.9-40.1-20.3
		c-31.2-7.3-83.5,1.8-83.5-17.6V286.8z"/>
	<polygon class="st5" points="373,363.1 381.6,354.2 378.4,350.4 369.8,359.3 365.7,354.4 375.5,344.3 372.3,340.5 358.4,354.8 
		376.6,376.3 380.7,372.1 	"/>
	<polygon class="st5" points="390.8,353.6 386.7,357.8 390.4,362.1 394.5,357.9 	"/>
	<path d="M196,559.7c2.3-0.1,4.6-0.7,6.6-1.7c1.1-0.6,1.8-1.9,1.7-3.3c-0.1-1.4-1-2.5-2.2-2.8c-0.7-0.2-1.4-0.3-2-0.5
		c-0.8-0.2-2.1-0.5-2.8-0.8c5.3-6.4,3.4-13.5,2.1-18.4c-0.5-1.8-0.9-3.5-1-4.8c-0.5-7.2,2.8-11.2,6.5-15.8c4.7-5.8,10-12.4,6.6-25.2
		c0.8-3.9,10.4-8.9,19-10.9c0.4-0.1,0.8-0.3,1.1-0.5c4.7-3.7,5.5-7.7,5.9-10.3c0.2,0.3,0.5,0.7,0.8,1c0.3,0.4,0.6,0.8,1,1.3
		c0.6,0.7,1.4,1.1,2.3,1.1c0.3,0,0.7-0.1,1-0.2c1.1-0.5,1.9-1.8,1.8-3.2c-0.5-10.3-10.4-16.9-19.4-16.6c-1.7,0.1-3.3,0.4-4.7,0.9
		c-5.4,2.1-7.8,7.4-9.9,12c-1,2.2-1.9,4.1-2.8,5.4c0.8-6,3.8-16.8,11.7-25c0.2-0.2,0.4-0.5,0.6-0.8c2.5-5.1,1.6-9.5,0.7-12.4
		c0.8,0.3,1.8,0.6,2.9,0.6c0.3,0,0.7-0.1,1-0.1c1.1-0.2,2-1.2,2.3-2.4c0.3-1.2-0.1-2.5-0.9-3.3c-4-3.8-9-5.9-14-5.7
		c-6.6,0.2-12.3,4.4-14.6,10.6c-1.6,4.4-1.5,9.9-1.3,15.2c0.2,6.3,0.3,12.3-2.1,16.4c-1.1-2.8-1.5-6-1.9-9.1
		c-0.6-5.2-1.4-11.5-6.4-14.5c0.5-0.2,1.1-0.5,1.9-0.8c1-0.4,3.2-1.2,3-3.9c-0.1-1.2-0.8-2.8-3.4-3.1c-0.8-0.1-1.7-0.1-2.5-0.1
		c-10.4,0.4-16.1,11.7-16.8,19.2c-0.6,7.5,3.9,11.9,7.8,15.8c2.8,2.8,5.7,5.7,7.2,9.7c2.7,7.4,1.1,15-1.2,23.4
		c-1.5,5.6-0.2,12.4,0.8,17.8c0.3,1.7,0.6,3.3,0.8,4.6c0,0.1,0,0.1,0,0.2c0.9,5.5-0.8,8.7-2.9,12.4c-1.6,2.8-3.2,5.8-3.4,9.6
		c-0.3,4.4,1.2,8.7,4.3,12.3C185,557.3,190.5,559.9,196,559.7L196,559.7z"/>
	<path class="st1" d="M195.3,527.6c0.4,6.5,6.3,14.8-1.7,22.2c0,4.1,4,4.2,7.7,5.2c-9.7,5-22.4-3.9-21.6-14.1
		c0.5-7.6,8.2-11.7,6.3-22.9c-0.6-5.3-3.3-14.6-1.6-21.1c2.3-8.9,4-17.3,1.1-25.5c-3.9-10.8-15.7-13.6-14.8-24
		c0.6-6.8,6.1-17.4,16-16.1c3.8,0.5-6.7,0.9-4.8,6.5c10.3,2.7,4.3,17.8,11.5,27c9.6-7.9,3.1-25.7,6.6-35.6c3.2-8.9,15-12.1,23.9-3.7
		c-2.5,0.5-4.3-2.3-7.1-0.5c-0.9,1.9,4,6.9,0.5,14.1c-12.5,13-13.7,31.6-12.3,33c8.3-2.1,7.7-16.6,16.3-20
		c7.3-2.8,19.7,2.4,20.2,12.7c-2.8-3.5-2.7-4-5.8-3.8c-2,1.3,0.5,6.4-5.7,11.3c-6.7,1.6-21.2,6.9-21.4,14.4
		C214.4,507.8,194.2,508.9,195.3,527.6"/>
	<path d="M230.9,469.4c1.8-2.2,2.1-4.2,2.3-5.9c0.2-1.4,0.4-2.9,1.6-3.7c0.2-0.1,0.4-0.2,0.5-0.2l0.3,0c1.6-0.1,2.5,0.1,3.3,0.6
		c-0.8-1.5-1.8-2.6-2.6-3.5c-2-1.9-4.7-3.3-7.5-3.9c-1.6,2.1-2.4,4.7-2.3,7.5C226.5,464.1,228.2,467.5,230.9,469.4"/>
	<path d="M217.1,434.5c0.2-2.4-0.6-4.4-1.2-6.1c-0.6-1.5-1-2.9-0.5-4c0.1-0.2,0.3-0.4,0.4-0.5c0.7-0.4,1.3-0.7,2-0.8
		c-2-0.9-4.1-1.3-6.2-1.2c-1.7,0.1-3.3,0.5-4.8,1.1c0,0.2,0,0.5,0,0.7C207.1,429.7,211.6,434.5,217.1,434.5"/>
	<path d="M180.4,446.1c2.1-0.1,4.2-0.9,5.9-2.4c-0.9-2.6-2.4-4-4.9-4.7c-0.4-0.1-0.7-0.4-0.8-0.8c-0.4-1.3-0.4-2.5,0-3.6
		c0.3-0.7,0.8-1.3,1.3-1.8c-4.5,1.3-7.6,5.6-9.2,9.8C174.7,444.9,177.5,446.2,180.4,446.1"/>
	<path d="M195.7,555.1c0.2,0,0.4,0,0.6,0c-2.2-0.8-4.1-2.1-4-5.3c0-0.4,0.2-0.7,0.4-1c2.7-2.5,3.9-5.2,3.7-8.7
		c-0.5-0.1-1-0.1-1.5-0.1c-5.4,0.2-9.7,5.1-9.8,11C188.2,553.7,192,555.3,195.7,555.1"/>
	<path d="M424.8,559.7c-2.3-0.1-4.6-0.7-6.6-1.7c-1.1-0.6-1.8-1.9-1.7-3.3c0.1-1.4,1-2.5,2.2-2.8c0.7-0.2,1.4-0.3,2-0.5
		c0.8-0.2,2.1-0.5,2.8-0.8c-5.3-6.4-3.4-13.5-2.1-18.4c0.5-1.8,0.9-3.5,1-4.8c0.5-7.2-2.8-11.2-6.5-15.8c-4.7-5.8-10-12.4-6.6-25.2
		c-0.8-3.9-10.4-8.9-19-10.9c-0.4-0.1-0.8-0.3-1.1-0.5c-4.7-3.7-5.5-7.7-5.9-10.3c-0.2,0.3-0.5,0.7-0.8,1c-0.3,0.4-0.6,0.8-1,1.3
		c-0.6,0.7-1.4,1.1-2.3,1.1c-0.3,0-0.7-0.1-1-0.2c-1.2-0.5-1.9-1.8-1.8-3.2c0.5-10.3,10.4-16.9,19.4-16.6c1.7,0.1,3.3,0.4,4.7,0.9
		c5.4,2.1,7.8,7.4,9.9,12c1,2.2,1.9,4.1,2.8,5.4c-0.8-6-3.8-16.8-11.7-25c-0.2-0.2-0.4-0.5-0.6-0.8c-2.5-5.1-1.6-9.5-0.7-12.4
		c-0.8,0.3-1.8,0.6-2.9,0.6c-0.3,0-0.7-0.1-1-0.1c-1.1-0.2-2-1.2-2.3-2.4c-0.3-1.2,0.1-2.5,0.9-3.3c4-3.8,9-5.9,14-5.7
		c6.6,0.2,12.3,4.4,14.6,10.6c1.6,4.4,1.5,9.9,1.3,15.2c-0.1,6.3-0.3,12.3,2.1,16.4c1.1-2.8,1.5-6,1.9-9.1
		c0.6-5.2,1.4-11.5,6.4-14.5c-0.5-0.2-1.1-0.5-1.9-0.8c-1-0.4-3.2-1.2-3-3.9c0.1-1.2,0.8-2.8,3.4-3.1c0.8-0.1,1.7-0.1,2.5-0.1
		c10.4,0.4,16.1,11.7,16.8,19.2c0.6,7.5-3.9,11.9-7.8,15.8c-2.8,2.8-5.7,5.7-7.2,9.7c-2.7,7.4-1.1,15,1.2,23.4
		c1.5,5.6,0.2,12.4-0.8,17.8c-0.3,1.7-0.6,3.3-0.8,4.6c0,0.1,0,0.1,0,0.2c-0.9,5.5,0.8,8.7,2.9,12.4c1.6,2.8,3.2,5.8,3.4,9.6
		c0.3,4.4-1.2,8.7-4.3,12.3C435.9,557.3,430.3,559.9,424.8,559.7"/>
	<path class="st1" d="M425.5,527.6c-0.4,6.5-6.3,14.8,1.7,22.2c0,4.1-4,4.2-7.7,5.2c9.7,5,22.3-3.9,21.6-14.1
		c-0.5-7.6-8.2-11.7-6.3-22.9c0.6-5.3,3.3-14.6,1.6-21.1c-2.3-8.9-4-17.3-1.1-25.5c3.9-10.8,15.7-13.6,14.8-24
		c-0.6-6.8-6.1-17.4-16-16.1c-3.8,0.5,6.7,0.9,4.8,6.5c-10.3,2.7-4.3,17.8-11.5,27c-9.6-7.9-3.1-25.7-6.6-35.6
		c-3.2-8.9-15-12.1-23.9-3.7c2.5,0.5,4.3-2.3,7.1-0.5c0.9,1.9-4,6.9-0.5,14.1c12.5,13,13.7,31.6,12.3,33c-8.3-2.1-7.7-16.6-16.3-20
		c-7.3-2.8-19.7,2.4-20.2,12.7c2.8-3.5,2.7-4,5.8-3.8c2,1.3-0.5,6.4,5.7,11.3c6.7,1.6,21.2,6.9,21.4,14.4
		C406.5,507.8,426.7,508.9,425.5,527.6"/>
	<path d="M389.9,469.4c-1.8-2.2-2.1-4.2-2.3-5.9c-0.2-1.4-0.4-2.9-1.6-3.7c-0.2-0.1-0.4-0.2-0.5-0.2l-0.3,0
		c-1.6-0.1-2.5,0.1-3.3,0.6c0.8-1.5,1.7-2.6,2.6-3.5c2-1.9,4.7-3.3,7.5-3.9c1.6,2.1,2.4,4.7,2.3,7.5
		C394.3,464.1,392.6,467.5,389.9,469.4"/>
	<path d="M403.7,434.5c-0.2-2.4,0.6-4.4,1.2-6.1c0.6-1.5,1-2.9,0.5-4c-0.1-0.2-0.3-0.4-0.4-0.5c-0.7-0.4-1.3-0.7-2-0.8
		c2-0.9,4.1-1.3,6.2-1.2c1.7,0.1,3.3,0.5,4.8,1.1c0,0.2,0,0.5,0,0.7C413.7,429.7,409.2,434.5,403.7,434.5"/>
	<path d="M440.5,446.1c-2.1-0.1-4.2-0.9-5.9-2.4c0.9-2.6,2.4-4,4.9-4.7c0.4-0.1,0.7-0.4,0.8-0.8c0.4-1.3,0.4-2.5,0-3.6
		c-0.3-0.7-0.8-1.3-1.3-1.8c4.5,1.3,7.6,5.6,9.2,9.8C446.1,444.9,443.3,446.2,440.5,446.1"/>
	<path d="M425.1,555.1c-0.2,0-0.4,0-0.6,0c2.2-0.8,4.1-2.1,4-5.3c0-0.4-0.2-0.7-0.4-1c-2.7-2.5-3.9-5.2-3.7-8.7
		c0.5-0.1,1-0.1,1.5-0.1c5.4,0.2,9.7,5.1,9.8,11C432.7,553.7,428.8,555.3,425.1,555.1"/>
</g>
</svg>
