<?xml version="1.0" encoding="UTF-8"?>
<svg id="Layer_2" data-name="Layer 2" xmlns="http://www.w3.org/2000/svg" viewBox="0 0 341.76 405.79">
  <defs>
    <style>
      .cls-1 {
        fill: #f3f0ef;
      }

      .cls-1, .cls-2, .cls-3, .cls-4, .cls-5, .cls-6, .cls-7, .cls-8, .cls-9, .cls-10, .cls-11, .cls-12, .cls-13, .cls-14, .cls-15, .cls-16, .cls-17, .cls-18, .cls-19, .cls-20, .cls-21, .cls-22, .cls-23, .cls-24, .cls-25, .cls-26, .cls-27, .cls-28, .cls-29, .cls-30, .cls-31, .cls-32, .cls-33, .cls-34, .cls-35, .cls-36, .cls-37, .cls-38, .cls-39, .cls-40, .cls-41, .cls-42, .cls-43, .cls-44, .cls-45, .cls-46, .cls-47, .cls-48, .cls-49, .cls-50, .cls-51, .cls-52, .cls-53, .cls-54, .cls-55, .cls-56, .cls-57, .cls-58, .cls-59, .cls-60, .cls-61, .cls-62, .cls-63, .cls-64, .cls-65, .cls-66, .cls-67, .cls-68, .cls-69, .cls-70, .cls-71, .cls-72, .cls-73, .cls-74, .cls-75, .cls-76, .cls-77, .cls-78, .cls-79, .cls-80, .cls-81, .cls-82, .cls-83, .cls-84, .cls-85, .cls-86, .cls-87, .cls-88, .cls-89, .cls-90, .cls-91, .cls-92, .cls-93, .cls-94, .cls-95, .cls-96, .cls-97, .cls-98, .cls-99, .cls-100, .cls-101, .cls-102, .cls-103, .cls-104, .cls-105, .cls-106, .cls-107, .cls-108, .cls-109, .cls-110, .cls-111, .cls-112, .cls-113, .cls-114, .cls-115, .cls-116, .cls-117, .cls-118, .cls-119, .cls-120, .cls-121, .cls-122, .cls-123, .cls-124, .cls-125, .cls-126, .cls-127, .cls-128, .cls-129, .cls-130, .cls-131, .cls-132, .cls-133, .cls-134, .cls-135, .cls-136, .cls-137, .cls-138, .cls-139, .cls-140, .cls-141, .cls-142, .cls-143, .cls-144, .cls-145, .cls-146, .cls-147, .cls-148, .cls-149, .cls-150, .cls-151, .cls-152, .cls-153, .cls-154, .cls-155, .cls-156, .cls-157, .cls-158, .cls-159, .cls-160, .cls-161, .cls-162, .cls-163, .cls-164, .cls-165, .cls-166, .cls-167, .cls-168, .cls-169, .cls-170, .cls-171, .cls-172, .cls-173, .cls-174, .cls-175, .cls-176, .cls-177, .cls-178, .cls-179, .cls-180, .cls-181, .cls-182, .cls-183, .cls-184, .cls-185, .cls-186, .cls-187, .cls-188, .cls-189, .cls-190, .cls-191, .cls-192, .cls-193, .cls-194, .cls-195, .cls-196, .cls-197, .cls-198, .cls-199, .cls-200, .cls-201, .cls-202, .cls-203, .cls-204, .cls-205, .cls-206, .cls-207, .cls-208, .cls-209, .cls-210, .cls-211, .cls-212, .cls-213, .cls-214, .cls-215, .cls-216, .cls-217, .cls-218, .cls-219, .cls-220, .cls-221, .cls-222, .cls-223, .cls-224, .cls-225, .cls-226, .cls-227, .cls-228, .cls-229, .cls-230, .cls-231, .cls-232, .cls-233, .cls-234, .cls-235, .cls-236, .cls-237, .cls-238, .cls-239, .cls-240, .cls-241, .cls-242, .cls-243, .cls-244, .cls-245, .cls-246, .cls-247, .cls-248, .cls-249, .cls-250, .cls-251, .cls-252, .cls-253, .cls-254, .cls-255, .cls-256, .cls-257, .cls-258, .cls-259, .cls-260, .cls-261, .cls-262, .cls-263, .cls-264, .cls-265, .cls-266, .cls-267, .cls-268, .cls-269, .cls-270, .cls-271, .cls-272, .cls-273, .cls-274, .cls-275, .cls-276, .cls-277, .cls-278, .cls-279, .cls-280, .cls-281, .cls-282, .cls-283, .cls-284, .cls-285, .cls-286, .cls-287, .cls-288, .cls-289, .cls-290, .cls-291, .cls-292, .cls-293, .cls-294, .cls-295, .cls-296, .cls-297, .cls-298, .cls-299, .cls-300, .cls-301, .cls-302, .cls-303, .cls-304, .cls-305, .cls-306, .cls-307, .cls-308, .cls-309, .cls-310, .cls-311, .cls-312, .cls-313, .cls-314, .cls-315, .cls-316, .cls-317, .cls-318, .cls-319, .cls-320, .cls-321, .cls-322, .cls-323, .cls-324, .cls-325, .cls-326, .cls-327, .cls-328, .cls-329, .cls-330, .cls-331 {
        stroke-width: 0px;
      }

      .cls-2 {
        fill: #624524;
      }

      .cls-3 {
        fill: #62551d;
      }

      .cls-4 {
        fill: #615353;
      }

      .cls-5 {
        fill: #63371e;
      }

      .cls-6 {
        fill: #624325;
      }

      .cls-7 {
        fill: #63301b;
      }

      .cls-8 {
        fill: #5d4921;
      }

      .cls-9 {
        fill: #7a534f;
      }

      .cls-10 {
        fill: #7a5339;
      }

      .cls-11 {
        fill: #782c19;
      }

      .cls-12 {
        fill: #7a573d;
      }

      .cls-13 {
        fill: #776324;
      }

      .cls-14 {
        fill: #776046;
      }

      .cls-15 {
        fill: #77532d;
      }

      .cls-16 {
        fill: #775535;
      }

      .cls-17 {
        fill: #623d26;
      }

      .cls-18 {
        fill: #623e26;
      }

      .cls-19 {
        fill: #621f10;
      }

      .cls-20 {
        fill: #762f1d;
      }

      .cls-21 {
        fill: #75654e;
      }

      .cls-22 {
        fill: #76623e;
      }

      .cls-23 {
        fill: #766223;
      }

      .cls-24 {
        fill: #766027;
      }

      .cls-25 {
        fill: #766126;
      }

      .cls-26 {
        fill: #766623;
      }

      .cls-27 {
        fill: #7a6528;
      }

      .cls-28 {
        fill: #5e4a33;
      }

      .cls-29 {
        fill: #796328;
      }

      .cls-30 {
        fill: #796626;
      }

      .cls-31 {
        fill: #795129;
      }

      .cls-32 {
        fill: #7a6a45;
      }

      .cls-33 {
        fill: #774326;
      }

      .cls-34 {
        fill: #791f13;
      }

      .cls-35 {
        fill: #714846;
      }

      .cls-36 {
        fill: #732f2f;
      }

      .cls-37 {
        fill: #765844;
      }

      .cls-38 {
        fill: #763f23;
      }

      .cls-39 {
        fill: #836348;
      }

      .cls-40 {
        fill: #501b15;
      }

      .cls-41 {
        fill: #765a51;
      }

      .cls-42 {
        fill: #835e42;
      }

      .cls-43 {
        fill: #835e3d;
      }

      .cls-44 {
        fill: #842925;
      }

      .cls-45 {
        fill: #837153;
      }

      .cls-46 {
        fill: #836c29;
      }

      .cls-47 {
        fill: #84331e;
      }

      .cls-48 {
        fill: #842b1c;
      }

      .cls-49 {
        fill: #83603f;
      }

      .cls-50 {
        fill: #7c6b26;
      }

      .cls-51 {
        fill: #7d321f;
      }

      .cls-52 {
        fill: #828282;
      }

      .cls-53 {
        fill: #50281f;
      }

      .cls-54 {
        fill: #522012;
      }

      .cls-55 {
        fill: #755e49;
      }

      .cls-56 {
        fill: #7d361f;
      }

      .cls-57 {
        fill: #756027;
      }

      .cls-58 {
        fill: #756347;
      }

      .cls-59 {
        fill: #7b6728;
      }

      .cls-60 {
        fill: #7b6628;
      }

      .cls-61 {
        fill: #7c2219;
      }

      .cls-62 {
        fill: #7c5433;
      }

      .cls-63 {
        fill: #7c5436;
      }

      .cls-64 {
        fill: #7c582d;
      }

      .cls-65 {
        fill: #7c4632;
      }

      .cls-66 {
        fill: #4b3c29;
      }

      .cls-67 {
        fill: #64594e;
      }

      .cls-68 {
        fill: #65321d;
      }

      .cls-69 {
        fill: #5d271a;
      }

      .cls-70 {
        fill: #5d2914;
      }

      .cls-71 {
        fill: #5c3f3d;
      }

      .cls-72 {
        fill: #641f16;
      }

      .cls-73 {
        fill: #562e2a;
      }

      .cls-74 {
        fill: #704a2c;
      }

      .cls-75 {
        fill: #704a2a;
      }

      .cls-76 {
        fill: #814d38;
      }

      .cls-77 {
        fill: #827126;
      }

      .cls-78 {
        fill: #80807f;
      }

      .cls-79 {
        fill: #6d583a;
      }

      .cls-80 {
        fill: #6d5b42;
      }

      .cls-81 {
        fill: #6d5b23;
      }

      .cls-82 {
        fill: #89673d;
      }

      .cls-83 {
        fill: #896a5f;
      }

      .cls-84 {
        fill: #89654b;
      }

      .cls-85 {
        fill: #896546;
      }

      .cls-86 {
        fill: #896549;
      }

      .cls-87 {
        fill: #877d7c;
      }

      .cls-88 {
        fill: #9a7354;
      }

      .cls-89 {
        fill: #9a796f;
      }

      .cls-90 {
        fill: #8a7452;
      }

      .cls-91 {
        fill: #552114;
      }

      .cls-92 {
        fill: #886a36;
      }

      .cls-93 {
        fill: #882f1e;
      }

      .cls-94 {
        fill: #886140;
      }

      .cls-95 {
        fill: #886242;
      }

      .cls-96 {
        fill: #971d16;
      }

      .cls-97 {
        fill: #967558;
      }

      .cls-98 {
        fill: #96745a;
      }

      .cls-99 {
        fill: #552514;
      }

      .cls-100 {
        fill: #8a6545;
      }

      .cls-101 {
        fill: #8a6a5c;
      }

      .cls-102 {
        fill: #8a633e;
      }

      .cls-103 {
        fill: #8a6644;
      }

      .cls-104 {
        fill: #957453;
      }

      .cls-105 {
        fill: #724a2e;
      }

      .cls-106 {
        fill: #6f5b41;
      }

      .cls-107 {
        fill: #725f24;
      }

      .cls-108 {
        fill: #968029;
      }

      .cls-109 {
        fill: #723320;
      }

      .cls-110 {
        fill: #a28177;
      }

      .cls-111 {
        fill: #a2867b;
      }

      .cls-112 {
        fill: #957259;
      }

      .cls-113 {
        fill: #715b42;
      }

      .cls-114 {
        fill: #6f271a;
      }

      .cls-115 {
        fill: #6e5c22;
      }

      .cls-116 {
        fill: #9b962d;
      }

      .cls-117 {
        fill: #6f6149;
      }

      .cls-118 {
        fill: #6f5d3f;
      }

      .cls-119 {
        fill: #957169;
      }

      .cls-120 {
        fill: #2f171a;
      }

      .cls-121 {
        fill: #582617;
      }

      .cls-122 {
        fill: #5b110f;
      }

      .cls-123 {
        fill: #57302a;
      }

      .cls-124 {
        fill: #575045;
      }

      .cls-125 {
        fill: #582818;
      }

      .cls-126 {
        fill: #3c3221;
      }

      .cls-127 {
        fill: #421716;
      }

      .cls-128 {
        fill: #070602;
      }

      .cls-129 {
        fill: #441918;
      }

      .cls-130 {
        fill: #222009;
      }

      .cls-131 {
        fill: #ab9285;
      }

      .cls-132 {
        fill: #a88c83;
      }

      .cls-133 {
        fill: #c3c1c1;
      }

      .cls-134 {
        fill: #c3c3c3;
      }

      .cls-135 {
        fill: #d2aba9;
      }

      .cls-136 {
        fill: #d2d2d2;
      }

      .cls-137 {
        fill: #dedb37;
      }

      .cls-138 {
        fill: #deda35;
      }

      .cls-139 {
        fill: #deda37;
      }

      .cls-140 {
        fill: #cfcfcf;
      }

      .cls-141 {
        fill: #c9c9c9;
      }

      .cls-142 {
        fill: #cacaca;
      }

      .cls-143 {
        fill: #c6bd30;
      }

      .cls-144 {
        fill: #ccc331;
      }

      .cls-145 {
        fill: #e0d736;
      }

      .cls-146 {
        fill: #af241b;
      }

      .cls-147 {
        fill: #c5c5c5;
      }

      .cls-148 {
        fill: #c8c8c9;
      }

      .cls-149 {
        fill: #c8be37;
      }

      .cls-150 {
        fill: #dfdd36;
      }

      .cls-151 {
        fill: #d5d3d2;
      }

      .cls-152 {
        fill: #ae251c;
      }

      .cls-153 {
        fill: #ac968d;
      }

      .cls-154 {
        fill: #ad8c7c;
      }

      .cls-155 {
        fill: #dcd235;
      }

      .cls-156 {
        fill: #dbd135;
      }

      .cls-157 {
        fill: #dbd034;
      }

      .cls-158 {
        fill: #bea08c;
      }

      .cls-159 {
        fill: #a4725b;
      }

      .cls-160 {
        fill: #b2b1ac;
      }

      .cls-161 {
        fill: #ad9c97;
      }

      .cls-162 {
        fill: #af948a;
      }

      .cls-163 {
        fill: #af7874;
      }

      .cls-164 {
        fill: #a58c85;
      }

      .cls-165 {
        fill: #a9180f;
      }

      .cls-166 {
        fill: #a91a10;
      }

      .cls-167 {
        fill: #a5a6a5;
      }

      .cls-168 {
        fill: #ae9895;
      }

      .cls-169 {
        fill: #ae9083;
      }

      .cls-170 {
        fill: #d7ca34;
      }

      .cls-171 {
        fill: #b09289;
      }

      .cls-172 {
        fill: #b09b94;
      }

      .cls-173 {
        fill: #aa8d81;
      }

      .cls-174 {
        fill: #ac1e1a;
      }

      .cls-175 {
        fill: #ac2117;
      }

      .cls-176 {
        fill: #bcbcbc;
      }

      .cls-177 {
        fill: #ab2118;
      }

      .cls-178 {
        fill: #ab1e15;
      }

      .cls-179 {
        fill: #a8170d;
      }

      .cls-180 {
        fill: #ae2b1d;
      }

      .cls-181 {
        fill: #a8241d;
      }

      .cls-182 {
        fill: #ae261d;
      }

      .cls-183 {
        fill: #b39d97;
      }

      .cls-184 {
        fill: #a89591;
      }

      .cls-185 {
        fill: #a9897a;
      }

      .cls-186 {
        fill: #a6522d;
      }

      .cls-187 {
        fill: #a48679;
      }

      .cls-188 {
        fill: #cecdce;
      }

      .cls-189 {
        fill: #cecccb;
      }

      .cls-190 {
        fill: #cec534;
      }

      .cls-191 {
        fill: #86613a;
      }

      .cls-192 {
        fill: #865e3a;
      }

      .cls-193 {
        fill: #85765c;
      }

      .cls-194 {
        fill: #86341f;
      }

      .cls-195 {
        fill: #936f51;
      }

      .cls-196 {
        fill: #938d4d;
      }

      .cls-197 {
        fill: #866441;
      }

      .cls-198 {
        fill: #8b6647;
      }

      .cls-199 {
        fill: #8b6549;
      }

      .cls-200 {
        fill: #8b6a51;
      }

      .cls-201 {
        fill: #b8a49c;
      }

      .cls-202 {
        fill: #8c1d15;
      }

      .cls-203 {
        fill: #8a8445;
      }

      .cls-204 {
        fill: #b68a45;
      }

      .cls-205 {
        fill: #9e9393;
      }

      .cls-206 {
        fill: #b8a093;
      }

      .cls-207 {
        fill: #b8b9b9;
      }

      .cls-208 {
        fill: #9d786d;
      }

      .cls-209 {
        fill: #9d786a;
      }

      .cls-210 {
        fill: #9e793d;
      }

      .cls-211 {
        fill: #8c6543;
      }

      .cls-212 {
        fill: #8d7757;
      }

      .cls-213 {
        fill: #8d7372;
      }

      .cls-214 {
        fill: #8d6746;
      }

      .cls-215 {
        fill: #8c6644;
      }

      .cls-216 {
        fill: #bba8a1;
      }

      .cls-217 {
        fill: #8e7857;
      }

      .cls-218 {
        fill: #92695e;
      }

      .cls-219 {
        fill: #906f65;
      }

      .cls-220 {
        fill: #906d4e;
      }

      .cls-221 {
        fill: #906e5b;
      }

      .cls-222 {
        fill: #937e64;
      }

      .cls-223 {
        fill: #8f8824;
      }

      .cls-224 {
        fill: #912b20;
      }

      .cls-225 {
        fill: #908b34;
      }

      .cls-226 {
        fill: #b79b8f;
      }

      .cls-227 {
        fill: #b6ad2c;
      }

      .cls-228 {
        fill: #b79e90;
      }

      .cls-229 {
        fill: #735b26;
      }

      .cls-230 {
        fill: #736124;
      }

      .cls-231 {
        fill: #741d15;
      }

      .cls-232 {
        fill: #735743;
      }

      .cls-233 {
        fill: #b58944;
      }

      .cls-234 {
        fill: #99695f;
      }

      .cls-235 {
        fill: #bababa;
      }

      .cls-236 {
        fill: #bb8f47;
      }

      .cls-237 {
        fill: #30171a;
      }

      .cls-238 {
        fill: #8e653c;
      }

      .cls-239 {
        fill: #8e6849;
      }

      .cls-240 {
        fill: #8e6c57;
      }

      .cls-241 {
        fill: #8e654c;
      }

      .cls-242 {
        fill: #8d7e69;
      }

      .cls-243 {
        fill: #8f6a4f;
      }

      .cls-244 {
        fill: #8f7d61;
      }

      .cls-245 {
        fill: #9a312a;
      }

      .cls-246 {
        fill: #977d58;
      }

      .cls-247 {
        fill: #6d2d18;
      }

      .cls-248 {
        fill: #6d2c26;
      }

      .cls-249 {
        fill: #6c5a21;
      }

      .cls-250 {
        fill: #6d211a;
      }

      .cls-251 {
        fill: #7f1b14;
      }

      .cls-252 {
        fill: #9a1d14;
      }

      .cls-253 {
        fill: #6b4522;
      }

      .cls-254 {
        fill: #7d672a;
      }

      .cls-255 {
        fill: #6c5823;
      }

      .cls-256 {
        fill: #80574d;
      }

      .cls-257 {
        fill: #7d593b;
      }

      .cls-258 {
        fill: #7d5f31;
      }

      .cls-259 {
        fill: #7e2f1b;
      }

      .cls-260 {
        fill: #7d6328;
      }

      .cls-261 {
        fill: #8b684b;
      }

      .cls-262 {
        fill: #9c794d;
      }

      .cls-263 {
        fill: #936d51;
      }

      .cls-264 {
        fill: #863720;
      }

      .cls-265 {
        fill: #9f9521;
      }

      .cls-266 {
        fill: #9f786a;
      }

      .cls-267 {
        fill: #855e41;
      }

      .cls-268 {
        fill: #855b50;
      }

      .cls-269 {
        fill: #9f7d72;
      }

      .cls-270 {
        fill: #85593d;
      }

      .cls-271 {
        fill: #875647;
      }

      .cls-272 {
        fill: #881b13;
      }

      .cls-273 {
        fill: #897a5f;
      }

      .cls-274 {
        fill: #881e17;
      }

      .cls-275 {
        fill: #87603c;
      }

      .cls-276 {
        fill: #947050;
      }

      .cls-277 {
        fill: #883820;
      }

      .cls-278 {
        fill: #fdfdfd;
      }

      .cls-279 {
        fill: #92735d;
      }

      .cls-280 {
        fill: #7f2319;
      }

      .cls-281 {
        fill: #7f231f;
      }

      .cls-282 {
        fill: #7e4c28;
      }

      .cls-283 {
        fill: #6b5231;
      }

      .cls-284 {
        fill: #6b5642;
      }

      .cls-285 {
        fill: #6b5d4d;
      }

      .cls-286 {
        fill: #6c1c17;
      }

      .cls-287 {
        fill: #81271b;
      }

      .cls-288 {
        fill: #805a30;
      }

      .cls-289 {
        fill: #822a1a;
      }

      .cls-290 {
        fill: #7f5736;
      }

      .cls-291 {
        fill: #745b26;
      }

      .cls-292 {
        fill: #746458;
      }

      .cls-293 {
        fill: #746a1e;
      }

      .cls-294 {
        fill: #815c39;
      }

      .cls-295 {
        fill: #81643e;
      }

      .cls-296 {
        fill: #7f5a34;
      }

      .cls-297 {
        fill: #7f5b3d;
      }

      .cls-298 {
        fill: #66331c;
      }

      .cls-299 {
        fill: #663d1f;
      }

      .cls-300 {
        fill: #663d20;
      }

      .cls-301 {
        fill: #825c3d;
      }

      .cls-302 {
        fill: #801e13;
      }

      .cls-303 {
        fill: #7f5c2d;
      }

      .cls-304 {
        fill: #745e25;
      }

      .cls-305 {
        fill: #75361e;
      }

      .cls-306 {
        fill: #746651;
      }

      .cls-307 {
        fill: #655124;
      }

      .cls-308 {
        fill: #746124;
      }

      .cls-309 {
        fill: #685621;
      }

      .cls-310 {
        fill: #685b19;
      }

      .cls-311 {
        fill: #997870;
      }

      .cls-312 {
        fill: #e3db37;
      }

      .cls-313 {
        fill: #e4da37;
      }

      .cls-314 {
        fill: #e5db37;
      }

      .cls-315 {
        fill: #faf8f7;
      }

      .cls-316 {
        fill: #fefdfd;
      }

      .cls-317 {
        fill: #fefefe;
      }

      .cls-318 {
        fill: #eae038;
      }

      .cls-319 {
        fill: #030301;
      }

      .cls-320 {
        fill: #6b231f;
      }

      .cls-321 {
        fill: #040401;
      }

      .cls-322 {
        fill: #693e25;
      }

      .cls-323 {
        fill: #67532b;
      }

      .cls-324 {
        fill: #67552a;
      }

      .cls-325 {
        fill: #675525;
      }

      .cls-326 {
        fill: #682421;
      }

      .cls-327 {
        fill: #675f61;
      }

      .cls-328 {
        fill: #6a4a2a;
      }

      .cls-329 {
        fill: #050401;
      }

      .cls-330 {
        fill: #694a30;
      }

      .cls-331 {
        fill: #6a3821;
      }
    </style>
  </defs>
  <g id="Layer_1-2" data-name="Layer 1">
    <g>
      <path class="cls-204" d="m9.97,223.92c.3-2.07,1.85-3.38,2.95-4.97,1.86-1.73,2.08-4.54,4.04-6.2l-.13.1c1.1-.82,1.09-2.32,2.02-3.25,3.39-2.66,4.45,1.49,6.67,2.26,1.1.76,2.15,1.6,3.04,2.61,1.55,1.69,1.23,3.69.93,5.69-.28,1.36-1.15,2.35-2.05,3.33-1.51,1.47-3.01,2.95-3.68,5.05-.15.38-.27.77-.34,1.17.81,1.64,2.41,1.7,3.82,1.73,9.93.21,19.85.09,29.78-.31,7.38,4.22,15.94,6.1,22.75,11.4,1.24.96,4.23,2.09.96,4.31-11.58.96-23.18.2-34.75.44-6.21-.77-12.44-1.4-18.72-1.03-1.38.08-3.02-.68-4.03.96-.09,1.58.74,2.99.87,4.52,0,3.42,1.66,6.19,3.54,8.86,1.71,4.3,4.38,8.14,6.05,12.45-.29,1.73.74,2.76,1.97,3.69,1.67,2.23,2.48,4.85,3.35,7.44.35,2.46,1.57,4.4,3.58,5.85,1.17,1.06,2.13,2.28,2.77,3.73.2,2.92,2.32,4.64,4.12,6.56,1.03,1.21,1.75,2.62,2.47,4.03.94,2.29,2.67,4.02,4.26,5.84.28.34.52.71.75,1.09.66,1.14,1.57,2.09,2.39,3.11.27.34.52.71.75,1.08.91,1.51,2.23,2.65,3.46,3.87,2.07,1.97,3.65,4.32,5.17,6.7.96,1.64,2.32,2.91,3.83,4.03,1.13.95,1.94,2.18,2.91,3.27.79.94,1.36,2.05,2.18,2.97.97,1.14,2.42,1.45,3.66,2.14,2.13,1.82,3.64,4.25,5.93,5.9.99,1.39,1.95,2.81,3.5,3.67,2.38,1.98,5.24,3.41,7.04,6.07,1.23,2.06,3.02,3.4,5.26,4.17,1.68,1.04,3.33,2.12,4.63,3.64,1.28,1.45,2.91,2.41,4.59,3.31,2.22,1.33,4.51,2.56,6.24,4.56.78.96,1.76,1.69,2.82,2.31.9.52,1.89.81,2.86,1.14,2.36.68,4.34,1.97,6,3.76.76.74,1.59,1.41,2.54,1.91.39.19.76.41,1.14.62,2.76,1.28,5.11,3.34,8.05,4.29.82.3,1.62.66,2.4,1.04,1.35.69,2.71,1.38,4.12,1.97.41.16.81.35,1.21.55,3.61,2.16,6.77,1.02,9.77-1.32,1.72-1.18,3.81-1.42,5.68-2.2,2.51-1.17,5.11-2.12,7.63-3.25.37-.22.75-.41,1.12-.61,1.39-.59,2.08-2.02,3.3-2.82,2.67-.99,4.96-2.69,7.47-3.95,2.04-.71,3.95-1.64,5.4-3.32,1.85-1.97,4.13-3.36,6.46-4.66,2.21-.95,4.21-2.21,5.84-4.02,1.62-1.53,3.46-2.74,5.33-3.92,2.78-.94,4.76-2.85,6.36-5.24,3.14-2.91,6.24-5.86,9.49-8.66,1.31-.7,2.87-1.11,3.37-2.8.6-1.21,1.41-2.26,2.37-3.2.47-.47.99-.89,1.54-1.27,2.58-1.69,4.77-3.75,6.31-6.46.44-.79.89-1.57,1.52-2.23,2.17-1.69,4.28-3.44,5.58-5.95.65-1.03,1.36-1.99,2.62-2.34,1.55-.28,2.88.31,4.17,1.05,2.41,1.96,4.8,3.95,5.97,6.97,1.97,3.29-.81,5.37-2,7.86-2.73,2.92-5.47,5.83-8.2,8.75-1.12.82-2.18,1.71-2.92,2.91-.59.4-1.18.8-1.77,1.21-1.84.91-3.47,2.03-4.17,4.1-.96,2.11-3.5,2.28-4.84,3.91-1.46.91-2.52,2.26-3.78,3.39-1.02,1.16-2.37,1.91-3.51,2.93-1.54.95-2.64,2.37-3.95,3.57-.62.35-1.25.71-1.87,1.06-1.53.81-2.78,2.01-4.11,3.1l.11-.09c-1.45.58-2.35,2.02-3.88,2.47-1.79,1.39-3.54,2.82-5.19,4.38-.27.16-.55.22-.86.19-1.19.79-2.41,1.56-3.2,2.82-.26.14-.54.23-.84.26-2.6,1.2-4.71,3.15-7.08,4.7-1.37.52-1.62,2.92-3.72,2.22-3.2,1.74-6.49,3.33-9.26,5.77l-4.64,2.27c-2.24,1.98-5.6,2.23-7.44,4.82-1.6,1.47-3.32,2.61-5.65,2.13-1.32.82-2.74,1.46-4.05,2.28-1.29.88-2.97.75-4.26,1.63h-2c-1.15-.82-2.55-.77-3.84-1.14-1.46-.67-3-1.13-4.47-1.79-1.37.62-1.87-.77-2.78-1.2-1.37-.93-2.89-1.62-4.25-2.56-1.46-.38-2.62-1.36-3.94-2-1.12-.66-2.52-.55-3.59-1.32-2.38-1.34-4.76-2.68-7.13-4.03-1.81-2.23-4.72-2.79-6.86-4.53-1.44-1.19-2.99-2.13-4.89-2.38-.41-.36-.82-.71-1.22-1.07-1.82-2.1-4.35-2.96-6.81-3.94-.4-.46-.8-.92-1.2-1.38-.77-1-1.82-1.68-2.8-2.46-1.82-.93-3.19-2.64-5.31-3.04l.05.04c-.62-1.11-1.6-1.78-2.76-2.21-.87-1.14-2.78-1.06-3.19-2.73-1.55-1.95-3.26-3.67-5.82-4.23l-3.17-3.06c-.84-1.63-2.34-2.38-3.98-2.94-5-4.71-10.01-9.43-15.01-14.14-.61-1.09-1.63-1.75-2.58-2.49-.91-.87-1.68-1.88-2.53-2.81-2.17-1.88-3.69-4.4-6.01-6.12-.3-.35-.54-.73-.74-1.13-1.18-2.45-2.91-4.46-4.9-6.27-1.42-1.95-2.83-3.89-4.25-5.84-.6-1.41-1.25-2.77-2.92-3.19-.66-.95-1.32-1.89-1.98-2.84-.41-1.06-.26-2.37-1.37-3.12-.64-1.11-1.6-2-2.19-3.15-1.44-2.26-2.62-4.7-4.3-6.8-.45-.87-1.61-1.39-1.27-2.63-.42-1.25-1.61-1.97-2.14-3.14-.89-1.41-1.64-2.9-2.55-4.3-1.37-2.38-2.74-4.76-4.11-7.14-.22-1.69-.79-3.26-1.69-4.71-.67-1.36-1.3-2.73-1.85-4.13-1.18-1.4-1.18-3.3-2.04-4.83-1.13-1.18-.61-3.11-1.91-4.22-.54-1.27-1.13-2.53-1.5-3.86-.82-3.9-2.55-7.46-4.08-11.09-.96-.75-1.31-1.71-.95-2.9,1.12-3.83-2.96-6.76-1.83-10.59,1.05-2.18,2.86-3.78,4.28-5.67,1.6-2.19,2.39-4.91,4.48-6.77Z"/>
      <path class="cls-186" d="m300.79,73.9c4.82-2.82,7.86-7.57,12.01-11.12.83-.71.94-1.72.86-2.75-.69-8.74,7.52-13.74,17.17-8.17,4.65,2.68,8.19,6.51,10.92,11.1v2c-1.36,1.67-1.14,4.07-2.66,5.67-2.39,3.62-6.25,3.5-9.91,3.89-5.56-2.3-8.93.17-13.02,4.23-16.98,16.82-33.53,34.07-50.7,50.69-1.67,1.62-3.29,3.39-5.99,2.88-1.04-.4-1.31-1.24-1.29-2.24.36-1.77.51-3.54-.22-5.27-.16-.45-.27-.91-.38-1.37-.38-2.38-1.5-4.71-.42-7.17,2.97-4.12,8.03-6.4,10.05-11.36,6.84-6.03,13.24-12.51,19.42-19.21,4.96-2.83,8.47-7.26,12.32-11.31.53-.46,1.09-.85,1.84-.49Z"/>
      <path class="cls-311" d="m73.71,3c.86-2.54,4.45-.33,5.23-3h4c2.32,1.09,4.77.26,7.15.52,1.92,0,3.83,0,5.75,0,2.69-.27,5.45.57,8.09-.52h4c.18.26.25.55.21.86.1,1.69-1.19,1.97-2.37,2.36-9.58.78-19.24-.41-28.8,1.19-1.16.19-2.77.43-3.24-1.41Z"/>
      <path class="cls-290" d="m2.22,235.82c-.64,2.86.82,5.4,1.32,8.08.22,1.16.68,2.2-.5,3.06C1.67,245.1,2.54,242.14,0,240.87v-5c.73-.55,1.47-.65,2.22-.06Z"/>
      <path class="cls-98" d="m2.22,235.82c-.74.02-1.48.04-2.22.06,0-.33,0-.67,0-1,2.46-.88,3.45-3.28,5.12-4.98.83-.16,1.35-.04.87.97-1.27,1.64-1.9,3.76-3.77,4.95Z"/>
      <path class="cls-53" d="m338.84,69.96c1.34-1.45-.23-4.6,2.92-5v5c-.58.04-1.16.08-1.74.11-.45.51-.84.47-1.18-.12Z"/>
      <path class="cls-42" d="m155.89,405.79c1.03-1.25,2.34-1.93,3.96-2.02.8-.58,1.57-.62,2.3.13-.57.85-2.33.27-2.26,1.89h-4Z"/>
      <path class="cls-129" d="m103.93,0c-2.43,2.1-5.24.7-7.89.87-.39-.15-.53-.32-.44-.53.1-.22.21-.33.33-.33h7.99Z"/>
      <path class="cls-127" d="m89.88.93c-2.33-.17-4.84,1.01-6.94-.93h7c.34.23.44.44.31.64-.12.19-.25.29-.37.29Z"/>
      <path class="cls-82" d="m150.86,403.84c1.01.65,2.02,1.3,3.03,1.95h-5c.04-.33.02-.65-.06-.97.45-.79,1.52-.3,2.03-.98Z"/>
      <path class="cls-35" d="m89.88.93c.07-.31.09-.62.06-.93h6c0,.29.04.58.11.87-2.05.02-4.11.04-6.16.06Z"/>
      <path class="cls-152" d="m10.98,167.99c.69-5.75,4.24-10.22,6.79-15.13.64-.49,1.36-.66,2.15-.47,4.75,3.93,8.25,9.07,12.8,13.2,13.93,12.66,30.06,21.92,46.75,30.3,26.52,13.33,54.31,23.48,82.3,33.24,32.09,11.19,61.98,26.75,88.48,48.29,11.52,9.36,22.04,19.75,30.08,32.4.3,2.91-1.93,4.45-3.43,6.4-.79,2.54-2.21,4.68-4.12,6.51-.57.7-1.33.6-2.09.51-3.36-2.27-5.58-5.68-8.22-8.61-14.78-16.44-32.75-28.58-51.98-39.02-25.28-13.73-52.33-22.69-79.79-31.02-25.97-7.87-50.63-19.24-73.75-33.76-18.11-11.37-34.06-24.89-45.97-42.83Z"/>
      <path class="cls-152" d="m28.98,128.93c2.72-2.86,3.17-6.82,4.91-10.15,1.38-1.03-.05-2.83,1.07-3.93.11-.28.13-.57.05-.86,1.79-.64,2.84.66,3.84,1.67,11.48,11.64,25.59,19.61,39.43,27.86,22.44,13.38,45.56,25.53,68.95,37.16,17.72,8.8,35.75,17.03,52.77,27.12,19.6,11.63,38.43,24.47,56.04,39.03,11.29,9.33,22.28,18.97,32.48,29.5,1.85,1.92,3.72,3.81,5.12,6.11.52.88.94,1.78.55,2.84-.36,4.24-2.6,7.78-4.33,11.51-.57.62-1.27.74-2.06.58-3.17-1.51-4.61-4.72-6.84-7.13-20.48-22.1-45.1-38.69-71.09-53.4-18.23-10.32-36.78-20.05-56.32-27.69-19.83-7.74-39.28-16.37-58.32-25.83-18.02-8.94-35.52-18.9-51.24-31.62-5.82-4.71-11.21-9.93-15.05-16.5-.42-.86-1.08-1.58-1.46-2.46-.5-1.65.45-2.74,1.49-3.79Z"/>
      <path class="cls-317" d="m10.98,167.99c1.09-.15,1.8.22,2.45,1.2,16.45,24.69,40.77,39.57,66.24,52.97,23.92,12.58,49.55,20.54,75.23,28.6,34.29,10.77,66.47,26.04,94.36,49.25,8.06,6.71,15.5,14.06,21.62,22.65-.42,1.16-1.15,2.12-2,3-1.34,2.41-3.93,3.22-6.02,4.67-.84,1.45-2.13,1.33-3.48.99-2.04-.53-2.09-2.84-3.53-3.91-.52-3.09-3.59-4.17-5.11-6.47-.99-1.06-2.27-1.74-3.41-2.62-.77-.71-1.51-1.45-2.27-2.18-1.33-1.36-2.67-2.71-4.48-3.46-.58-.31-1.08-.72-1.52-1.21-1.04-1.41-2.39-2.45-3.93-3.25-5.63-4.57-12.62-7.19-17.78-12.42-1.82-1.67-4.13-2.36-6.35-3.25-1.15-.6-2.18-1.38-3.28-2.06-1.03-.72-2.03-1.47-3.18-1.98-1.34-.61-2.76-1.01-4.08-1.64-1.51-.75-3.01-1.53-4.65-1.98-.42-.12-.82-.28-1.21-.46-1.18-.57-2.29-1.28-3.45-1.89-2.7-1.12-5.72-1.23-8.31-2.68-.88-.26-1.74-.55-2.61-.82-1.55-.54-3.13-.93-4.78-1.05-.5-.04-.99-.13-1.48-.23-8.25-1.39-16.06-4.37-24.09-6.55-3.7-1.01-7.39-1.96-11.2-2.44-.72-.23-1.33-.63-1.82-1.21-1.71-2.73-4.2-3.13-7.08-2.33-.47.02-.89-.12-1.27-.38-1.74-1.99-3.84-2.89-6.49-2.16-8.1,4.36-13.94,2.04-16.34-6.46.93-1.54,2.05-.58,3.09-.25.23-.04.43.6.6.25.29-.58.17.3-.34-.2-1.79-1.21-3.14-1.04-3.91,1.13-4.99,4-10.15,1.34-13.77-1.31-5.6-4.1-11.33-4.97-17.74-4.58-12.28.75-24.56-.42-36.84,0-1.33.04-2.66,0-3.99.06-2.61.12-2.83.97-1.8,3.44,4.43,10.59,10.63,20.26,15.54,30.51,2.76,5.75,5.66,6.41,10.73,6.23,6.47-.24,12.96-.26,19.43.09,1.47.08,4.82-.98,3.64,2.92-4.36,1.62-8.9.85-13.35.84-6.8-.01-13.62.55-20.41-.38-.62-.2-1.16-.53-1.62-.99-.88-1.06-1.76-2.12-2.64-3.18-2.03-1.76-2.87-4.3-4.27-6.48-.47-2.72-2-4.99-3.21-7.39-.64-1.06-2.53-1.34-1.97-3.15-2.03-4.3-4.06-8.59-6.1-12.89-1.58-3.04-2.97-6.16-3.74-9.52-.43-1.52-.86-3.04-1.3-4.56,6.16-2,12.46-.71,18.7-.7,1.3,0,2.63.25,3.96.26,11.51,0,23.03.03,34.54-.05,1.03,0,2.5.92,3.15-.82-3.41-3.1-7.42-5.24-11.65-6.9-4.67-1.83-9.17-3.94-13.44-6.56-1.12.28-2.17-.33-3.28-.22-1.15-.05-2.18-.46-3.17-1-1.55-.85-2.48-2.44-4.01-3.32-2.24-1.34-4.3-3.01-6.89-3.69-2.58-1-4.81-2.59-7.01-4.23-1.97-1.23-2.52-3.89-4.82-4.78-.83-.67-1.67-1.34-2.5-2.01-2.06-2.37-4.65-4.26-6.35-6.95l.05.06c-1.45-1.91-2.85-3.85-4.25-5.79-.99-.95-1.51-2.15-1.76-3.48-1.13-1.82-2.18-3.68-2.09-5.94-1.8-1.73-2.03-3.94-1.9-6.25.36-3.11-.13-6.23,0-9.34-.19-2.41.36-4.58,2.04-6.39-.03-.24-.05-.49-.07-.73Z"/>
      <path class="cls-317" d="m29.77,134.05c5.98,10.89,15.85,17.82,25.69,24.61,25.7,17.73,53.76,31.05,82.6,42.64,35.72,14.35,70.12,31.14,102.01,52.8,17.81,12.09,34.5,25.51,47.9,42.61,1.04,2.65-.92,4.25-2.14,6.11-.15,2.41-1.78,4.06-3.01,5.92-.7,1.14-1.49,2.12-3.05,1.81-26.61-36.09-63.41-58.1-103.99-74.58-26.73-10.86-54.6-18.82-80.77-31.16-21.99-10.36-43.71-21.18-62.21-37.35-4.91-4.29-9.16-9.17-12.88-14.52-.76-.8-.63-1.72-.38-2.66.48-1.57,1.4-2.95,2.07-4.43,1.15-2.55,2.31-5.11,3.8-7.5,1.16-1.74.5-5.32,4.37-4.29Z"/>
      <path class="cls-204" d="m258.81,124.04c-.07.23-.1.46-.09.7-.1,1.74.45,3.47.14,5.22-.05.79.09,1.51.81,1.98,2.5,1.77,1.8,4.55,2.21,6.99,1.12.72,1.32,1.73.94,2.93-1.52,2.25,1.52,3.72,1,5.8,1.33,3.39.95,7.42,3.83,10.24,1.08,3.29,2.16,6.59,3.24,9.88-.73,2.12,1.3,3.47,1.47,5.34.72,2,.63,4.36,2.55,5.85.6,1.31,1.21,2.62,1.81,3.93-.44,1.93,1.15,3.3,1.42,5.03.28,1.34,1.35,2.33,1.69,3.64.95,1.79,1.3,3.91,2.91,5.33-.18,1.78,1.63,2.51,2.09,3.95-.04,1.56.25,3,1.41,4.15,1.57,2.58,2,5.81,4.46,7.88.7,1.28,1.41,2.56,2.11,3.83.64,1.08.91,2.41,2.09,3.13l-.05-.05c.8,2.66,1.74,5.24,3.96,7.11.96,1.66,1.93,3.32,2.89,4.99,1.15,2.08,2.3,4.18,3.92,5.95.39.64.77,1.29,1.16,1.93.72,1.73.71,3.47,0,5.2.06.32.02.62-.12.91-.55,1.45-1.12,2.89-1.68,4.34-1.24,2.9-1.57,6.06-2.57,9.02-1.13,1.41-1.46,3.08-1.54,4.84-1.5,1.75-2.69,4.73-5.5,1.42-1.2-.48-.36-3.38-2.82-2.36-2.13-1.53-3.9-3.38-5.18-5.69-.08-1.3-.2-2.6,0-3.9-.12-1.33,2.26-3.15-.8-3.86-.85.1-1.68.11-2.49-.16-.94-.71-1.96.01-2.94-.14-5.45-2.9-9.17-7.66-13.09-12.2-.13-1.17.19-2.16,1.17-2.87,4.37-1.55,8.89-.52,13.32-.8,1.59-.08,3.24.35,4.77-.39,1.22-2.27-.85-3.32-1.77-4.79-.26-.35-.47-.74-.65-1.14-.49-1.43-1.06-2.83-1.97-4.07-.62-.94-1.05-1.95-1.31-3.04-.88-3.47-2.8-6.46-4.48-9.55-.49-.76-.93-1.54-1.26-2.39-.68-1.9-1.25-3.85-2.41-5.55-.23-.4-.41-.81-.56-1.25-.59-2.65-1.45-5.19-3.01-7.44-.29-.35-.53-.72-.75-1.11-.66-1.42-1.08-2.91-1.6-4.38-.47-1.47-.94-2.94-1.74-4.28-1.09-1.78-1.31-3.86-1.99-5.78-.41-1.55-1.11-2.96-2.01-4.28-1.24-2.05-1.93-4.28-2.26-6.63-.14-1.36-.57-2.65-.99-3.94-.46-1.49-.94-2.98-1.48-4.45-.36-1.06-.7-2.13-1.17-3.15-.78-1.69-1.33-3.46-2.13-5.14-1.23-2.94-1.88-6.03-2.42-9.15-.24-1.44-.74-2.82-.98-4.26-.55-2.12-1.43-4.15-1.75-6.33-.17-2.9-.8-5.67-2.47-8.12-.74-1.88-.93-3.9-1.41-5.84-.29-1.76-.27-3.57-.88-5.28-.42-2.33-.67-4.69-1.21-7-.27-1.89-.18-3.81-.32-5.71-.94-4.62-1.2-9.33-1.9-13.97-1.3-11.26-1.24-22.58-1.37-33.87-.5-.07.42-1.54-.71-.83-.8.5-1.16,1.56-1.81,2.31-.29.32-.63.57-1.02.75-1.03.35-1.95.9-2.83,1.55-1.46.93-3,1.23-4.66.63-.86-.4-1.43-1.09-1.88-1.9-.51-1.42-1.39-2.55-2.72-3.31-.52-.4-.96-.87-1.35-1.4-1.6-2.37-3.24-4.29-5.41-.49-1.31,2.2-3,4.02-5.28,5.23-1.38.58-2.75,1.16-3.13,2.85-.43,1.11-1.25,1.82-2.29,2.33-3.55,1.79-5.83,4.96-8.43,7.78-1.51,1.42-3.09,2.3-5.01.69-2.25-2.71-4.19-5.77-7.78-6.99-.59-.32-1.09-.76-1.51-1.27-1.2-1.24-1.66-3.48-4.11-2.96-1.78.91-2.67,2.67-3.97,4.04-.35.28-.72.52-1.13.72-2.81,1.15-4.51,3.55-6.42,5.71-.47.53-1.02.95-1.64,1.29-1.9.84-3.6,2.31-5.91,1.92-.94-.17-1.72-.62-2.39-1.28-.84-.98-1.45-2.14-2.37-3.06-.99-1.08-2.04-2.1-3.1-3.12-1.45-1.53-2.94-3.02-5.02-3.7-3.11-2.86-6-3.43-8.7.61-.7,1.05-2,1.61-3.14,2.23-1.9.78-3.06,2.36-4.2,3.95-.86.83-1.83,1.31-3.06.94-2.16-1.37-3-4.28-5.77-4.94-1.73-.62-2.93-1.89-4.02-3.29-1.34-1.9-2.53-3.97-4.97-4.7-1.75-.63-2.96-1.91-4.05-3.33-1.47-1.97-2.65-4.25-5.4-4.74-1.98.16-3.16,1.53-4.38,2.85-.44.51-.94.96-1.48,1.36-1.88.91-2.77,2.96-4.56,3.97-2.73.66-3.97-1.17-5.18-3.07-1.1-1.98-2.4-3.77-4.68-5.11-.99,2.74,0,5.46-.98,7.89-.24.44-.58.75-1.03.95-3.78-1.37-6.92-3.48-8.59-7.33-.41-1.88-.28-3.82-.63-5.71-.09-.98.09-1.94.18-2.9,0-.75.03-1.49.05-2.24.01-2.33-.02-4.65-.03-6.98.07-1.82-.13-3.67.59-5.41,3.93-2.28,4.69,2.12,6.97,3.31,1.37,1.46,2.69,2.98,4.42,4.07,1.65,1.1,3.06,2.46,4.14,4.14.79,1.24,1.7,2.35,2.95,3.15,2.79,1.37,3.44-1.31,4.83-2.56.81-.76,1.81-1.21,2.76-1.75,1.37-.73,2.37-1.91,3.56-2.86,4.04-2.41,5.5,1.97,8.21,3.09,2.28,1.81,4.19,4,6.28,6,.78.79,1.57,1.57,2.44,2.25,2.86,2.64,5.34,5.66,8.48,7.99,2.75,2.68,2.82-.97,4.1-1.75.42-.54.91-.99,1.49-1.34,1.43-.6,2.72-1.37,3.34-2.91.63-.99,1.55-1.65,2.54-2.23,1.62-.79,2.99-2.27,5.05-1.83,2.35,1.07,3.73,3.32,5.81,4.73,1.99,2.15,3.99,4.29,5.91,6.52.88,1.31,1.7,2.73,3.65,1.62,1.06-.37,2.13-.42,3.2-.07,1.23.77,2.14.22,2.94-.76,1.07-.99,1.78-2.38,3.23-2.94,1.81-.47,2.58-2.1,3.69-3.35,1.87-1.69,3.6-3.54,5.8-4.83,2.44-.77,4.03.67,5.59,2.15,2.25,2.13,4.32,4.45,6.73,6.41.53.45.97.98,1.33,1.57.74,1.47,1.66,2.56,3.52,1.73,1.32-.68,2.14-1.86,2.95-3.04.26-.36.55-.67.88-.96,3.09-2.19,5.39-5.25,8.32-7.6,1.44-.89,2.8-1.89,3.99-3.1.76-.71,1.95-.81,2.51-1.8.39-.57.78-1.14,1.18-1.71,1.51-.61,2.98-1.37,4.7-1.05.72.71,1.44,1.41,2.16,2.12,1.37,1.73,2.72,3.48,4.49,4.83,3.07,2.49,5.65,2.3,8.07-1.08,1.1-1.54,2.82-2.62,4.26-3.92,1.6-1.19,2.85-2.77,4.38-4.04,1.17-.97,2.42-2.03,3.64,0,1.08,5.36.28,10.77.53,16.16.09,1.95-.22,3.94.52,5.83.33.47.63.96.9,1.47.91,2.8.44,5.69.59,8.54-.13,6.11,1.06,12.13,1.45,18.2.44,1.26.88,2.52,1.18,3.82.3,1.51.26,3.05.36,4.57.05,1.69.76,3.28.82,4.98.09,1.14.23,2.27.64,3.35.48,1.27,1.03,2.53.85,3.94.38,1.44-2.07,3.27.63,4.39,1.87,2.54,2.39,5.3,1.36,8.3-1.42,3.16-.17,5.9,1.33,8.61Z"/>
      <path class="cls-120" d="m261.9,138.92c-1.65-2.04-1.72-4.58-2.21-6.98,1.67-.59,3.17-1.3,4.51-2.65,17.75-17.87,35.82-35.42,53.19-53.64,4.13-4.33,7.08-4.28,11.35-1.73,2.06-.04,4.41-1.9,5.99.98l-.31.21-.37-.05c-2.51.59-5.01.6-7.52,0-.89.26-1.81-.18-2.71.73-20.28,20.52-40.62,40.99-60.93,61.48-.44.44-.66,1.1-.98,1.66Z"/>
      <path class="cls-288" d="m267.66,157.88c-4.21-2.14-2.79-6.88-4.67-10.1.73-.85-.15-2.17.86-2.94,1.65,4.24,1.64,8.96,3.81,13.04Z"/>
      <path class="cls-195" d="m290.72,212.87c-4.25-.97-3.69-4.98-4.96-7.84-.47-.55-.4-1.02.2-1.43,2.3,2.72,4.07,5.71,4.76,9.26Z"/>
      <path class="cls-173" d="m294.19,285.27c-.45-.77-.91-1.53-1.36-2.3,1.07-2.49.76-5.64,3.49-7.34,1.31.2.72,1.58,1.35,2.2-1.65,2.25-.11,6-3.48,7.45Z"/>
      <path class="cls-191" d="m301.69,259.89c.2-3.61,1.26-6.95,3.08-10.06.58.68.58,1.38.05,2.09.1,2.85-.5,5.51-2.02,7.95-.36.43-.73.41-1.11.02Z"/>
      <path class="cls-123" d="m334.72,74.9c-1.77-1.73-4.02-.49-5.99-.98,3.28-1.54,7.59-.47,10.11-3.95.39.04.79.08,1.18.12-.83,2.64-2.5,4.36-5.3,4.82Z"/>
      <path class="cls-43" d="m181.93,392.65c2.01-3.65,5.44-5.03,9.26-5.77-2.25,3.27-5.77,4.5-9.26,5.77Z"/>
      <path class="cls-261" d="m169.85,399.74c1.06-3.8,4.31-4.22,7.44-4.82-1.46,3.18-4.65,3.68-7.44,4.82Z"/>
      <path class="cls-100" d="m298.84,226.9c-3.62-1.09-4.76-3.56-3.96-7.11,1.67,2.18,3.67,4.17,3.96,7.11Z"/>
      <path class="cls-214" d="m194.91,384.67c1.56-2.78,3.72-4.64,7.08-4.7-1.94,2.21-3.84,4.47-7.08,4.7Z"/>
      <path class="cls-85" d="m274.93,178.95c-3.14-.93-2.74-3.69-3.13-6.04-.67-1.02-.69-2.04.03-3.05,1.71,2.8,2.11,6.05,3.1,9.09Z"/>
      <path class="cls-224" d="m279.75,310.54c1.02-.6,2.03-1.21,3.05-1.81-1.11,3.17-2.63,6.02-5.91,7.49.95-1.89,1.91-3.78,2.86-5.67Z"/>
      <path class="cls-258" d="m255.85,327.42c2.14.07,2.1,2.12,3.02,3.3.34.25.44.48.3.7-.13.2-.26.31-.38.31-1.27,1.1-2.55,2.19-3.82,3.29-.52-2.63,3.5-4.73.89-7.6Z"/>
      <path class="cls-215" d="m282.75,196.89c-2.89-.48-2.76-3.25-3.84-5.1.63-.5.13-1.53.91-1.95,1.3,2.21,2.86,4.32,2.93,7.05Z"/>
      <path class="cls-131" d="m285.82,302.81c.71-2.04,1.43-4.07,2.14-6.11.64.03,1.27.05,1.91.08-.8,2.38-1.24,5-4.05,6.03Z"/>
      <path class="cls-103" d="m305.65,237.84c-2.71-1.06-3.87-3.14-3.92-5.95,2.2,1.39,3.55,3.35,3.92,5.95Z"/>
      <path class="cls-14" d="m295.78,264.75c2,2.52,3.36.23,4.9-.66.34.13.47.3.4.5-.08.21-.17.32-.27.32-.4.97-.79,1.95-1.18,2.92-.59.71-1.19,1.38-2.23,1.35-1.53-.52-2.04-1.75-2.2-3.21.06-.47.26-.88.58-1.22Z"/>
      <path class="cls-94" d="m206.89,376.69c.32-3,3.18-3.35,5-4.78.53.38.55.78.05,1.2-1.18,1.91-2.52,3.59-5.05,3.58Z"/>
      <path class="cls-112" d="m221.83,365.78c.23-2.42,1.7-3.61,3.97-4.02.34.22.45.44.35.67-.1.23-.21.35-.32.35-1.08,1.34-1.93,2.98-4,3Z"/>
      <path class="cls-83" d="m297.78,268.79c.37-.78,1.09-.9,1.83-.95-.31,2-.62,3.99-.93,5.99-.58.31-1.05.19-1.41-.35-.8-1.67-.8-3.25.51-4.69Z"/>
      <path class="cls-220" d="m228.78,358.78c.99-1.61,2.14-2.99,4.29-2.88-.25,1.99-1.73,2.94-3.25,3.85-.56-.09-.92-.41-1.04-.97Z"/>
      <path class="cls-263" d="m228.78,358.78c.35.32.69.65,1.04.97-.84,1.66-2.53,2.19-3.99,3.04-.01-.34-.02-.68-.03-1.02.64-1.34,1.71-2.27,2.98-2.99Z"/>
      <path class="cls-267" d="m277.89,187.9c-1.12-1.51-2.71-2.9-1.14-5.02.95,1.57,1.89,3.14,2.07,5.03-.31.48-.62.46-.92,0Z"/>
      <path class="cls-330" d="m237.91,351.98c-.29-3.07,1.95-3.58,4.17-4.1-1.39,1.37-2.78,2.74-4.17,4.1Z"/>
      <path class="cls-37" d="m304.82,251.92c-.02-.7-.03-1.4-.05-2.09.3-1.48.55-2.99,1.92-3.95.18,2.26-.14,4.37-1.87,6.05Z"/>
      <path class="cls-75" d="m263.85,144.84c-.19,1.01.17,2.18-.86,2.94.42-1.99-2.39-3.9-.16-5.94.34,1,.68,2,1.02,2.99Z"/>
      <path class="cls-158" d="m268.88,325.66c-.1-1.51.9-2.28,2-3,.63.02,1.26.03,1.89.05-1,1.37-2,2.74-3.89,2.95Z"/>
      <path class="cls-88" d="m300.8,264.92c-.08-.27-.12-.54-.12-.82-.5-1.6-.57-3.1,1.01-4.21.37,0,.74-.01,1.11-.02-.69,1.67-.54,3.68-2,5.05Z"/>
      <path class="cls-73" d="m326.51,75.06c2.51,0,5.01,0,7.52,0-2.51,1.49-5.02,1.34-7.52,0Z"/>
      <path class="cls-187" d="m297.56,273.83c.38,0,.75,0,1.13,0-.34,1.33-.67,2.66-1.01,4-.34-.73-.68-1.46-1.02-2.19-.47-.98-.35-1.68.9-1.8Z"/>
      <path class="cls-49" d="m162.15,403.9c-.77-.04-1.53-.09-2.3-.13,1.12-1.38,2.58-2.01,4.35-1.89-.15,1.21-.79,1.94-2.05,2.02Z"/>
      <path class="cls-241" d="m202.83,379.7c.12-2.02,1.29-2.84,3.2-2.82-.16,1.97-1.71,2.36-3.2,2.82Z"/>
      <path class="cls-41" d="m258.79,331.72c.03-.34.05-.67.08-1.01,1.33-.13,2.67-.25,4-.38-.56,2.81-1.95,3.17-4.08,1.39Z"/>
      <path class="cls-15" d="m211.94,373.11c-.02-.4-.04-.8-.05-1.2,1.28-.83,2.3-2.2,4.07-2.06-.86,1.68-1.87,3.17-4.02,3.27Z"/>
      <path class="cls-74" d="m215.85,369.93c.77-1.83,2.01-3.03,4.11-3.1-1.08,1.41-1.91,3.17-4.11,3.1Z"/>
      <path class="cls-192" d="m271.83,169.85c0,1.02-.02,2.03-.03,3.05-1.06-1.58-2.59-3.08-.89-5.14.31.7.61,1.39.92,2.09Z"/>
      <path class="cls-95" d="m285.96,203.61c-.06.47-.13.95-.19,1.43-.92-1.26-2.79-2.32-.91-4.2.84.74,1.18,1.67,1.11,2.77Z"/>
      <path class="cls-10" d="m243.85,346.68c.03-1.91,1.01-2.87,2.92-2.91-.42,1.53-1.56,2.33-2.92,2.91Z"/>
      <path class="cls-18" d="m306.81,244.97c0-1.73,0-3.47,0-5.2,1.76,1.73,1.53,3.47,0,5.2Z"/>
      <path class="cls-84" d="m294.93,219.83c-2.33.05-2.2-1.55-2.09-3.13,1.14.74,1.94,1.72,2.09,3.13Z"/>
      <path class="cls-328" d="m277.89,187.9c.31.03.62.03.92,0,.34.64.67,1.29,1.01,1.93-.31.65-.61,1.3-.91,1.95-.34-1.3-.68-2.59-1.02-3.88Z"/>
      <path class="cls-317" d="m208.97,41.99c-2.72,2.86-5.08,6.14-8.87,7.79-6.12-1.49-11.12-5.44-16.88-7.71-.92-.41-1.75-.96-2.5-1.64-5.36-4.6-12.28-5.87-18.58-8.21-15.25-5.68-30.67-11.03-46.91-13.32-1.26-.37-2.52-.72-3.78-1.08-11.56-2.64-23.25-3.89-34.92-1.31-7.38,1.63-14.24,4.62-17.98,12.02-.76,1.5-1.98,2.66-3.73,3.07-.91.08-1.73-.06-2.27-.91-.89-2.06-.7-4.04.46-5.95v-1.52c-.78-1.26.17-2.25.5-3.34,1.36-1.94,1.63-4.51,3.51-6.15.97-1.22,1.94-2.45,2.91-3.67,1.45-1.53,3.67-2.11,4.84-3.97,3.52.54,5.54-3.28,8.94-3.09,10.69-1.06,21.39-1.33,32.12-.92,1.51.71,3.07.23,4.61.16,2.86-.76,5.38.6,8.01,1.25,1.67.12,3.4-.28,5,.53.79-.02,1.58-.04,2.37-.05,2.12,1.11,4.35,1.76,6.77,1.59.91.29,1.8.64,2.66,1.07,3.7.98,7.48,1.62,11.14,2.72,1.34,1.23,3.3-.65,4.58.91,3.91-1.91,5.63,3.32,9.11,2.81.68.86,1.64,1.3,2.6,1.75,3.05,1.42,6.67,1.58,9.19,4.16,4.34-.38,8.2.55,11.13,4.05,1.58,1.12,3.59,1.53,4.96,2.98,2.87.28,5.33,1.62,7.8,2.94,1.9,1.47,4.03,2.56,6.14,3.68,1.03.78,2.35,1.2,3.07,2.38l2.58.9c1.35.8,2.72,1.57,3.6,2.95.24,1.72-1.31,2.18-2.19,3.12Z"/>
      <path class="cls-278" d="m299.76,75.03c-4.11,3.95-6.81,9.53-12.94,11.12-4.35.26-8-2.06-11.68-3.69-8.16-3.62-16.8-6.09-24.65-10.43-.27-.47-.46-.97-.56-1.5-.35-3.71.29-7.45-.47-11.15-.33-1.61.02-2.93,1.99-3.15,2.01.18,3.63,1.62,5.66,1.74,1.64-.03,2.42,1.56,3.8,2.03,1.31.81,2.93.86,4.24,1.68,2.53.82,4.86,2.33,7.66,2.26,3.48,1.16,7.24,1.64,10.19,4.11,2.32,3.1,6.25,2.38,9.24,3.87,1.61.32,3.01,1.24,4.62,1.55,1.29-.07,2.36.25,2.91,1.56Z"/>
      <path class="cls-262" d="m248.7,55.05c-.29-.03-.58-.06-.88-.08-.92-1.93-.39-3.94-.35-5.93.79-5.37.17-10.77.36-16.15.31-2.02-1.49-4.42,1.08-6.04,1.88.55,1.26,2.12,1.16,3.28-.7,7.89-.64,15.77.22,23.65-.3.72-.8,1.17-1.59,1.27Z"/>
      <path class="cls-101" d="m248.7,55.05c.53-.42,1.06-.84,1.59-1.27,1.14.78,2.28,1.57,3.41,2.35.22.87.08,1.38-.96.92-2.51-.53-2.55.92-2.42,2.8.25,3.7.32,7.42.47,11.13-3.32-1.61-.21-4.97-1.91-7.02-.06-2.97-.12-5.95-.18-8.92Z"/>
      <path class="cls-226" d="m146.9,9.98c-4.26-.12-8.23-1.49-12.21-2.81.73-1.25,2.2-.23,3.09-.99,3,1.08,6.43.73,9.16,2.71.25.25.33.5.23.73-.1.23-.19.35-.28.35Z"/>
      <path class="cls-199" d="m246.83,31.01c-2.73,1.14-3.68,4.89-7.17,4.92,1.15-3.14,3.89-4.85,6.23-6.91.84-.4,1.2.08,1.43.79-.02.46-.17.86-.49,1.2Z"/>
      <path class="cls-132" d="m171.88,18.99c-3.5-1.03-6.96-2.13-10.18-3.9,1.18-.93,2.42-.6,3.67-.17,2.31,1.13,5.91.21,6.51,4.07Z"/>
      <path class="cls-164" d="m291.92,72.71c-2.91-1.7-7.32-.5-8.94-4.66,3.36,2.17,7.7,1.48,11.03,3.76-.42.95-1.46.45-2.09.9Z"/>
      <path class="cls-169" d="m272.79,63.93c-3.22,1.69-5.55-.38-8-1.91-.38-.48-.33-.92.13-1.31,2.62,1.07,5.24,2.15,7.87,3.22Z"/>
      <path class="cls-266" d="m201.85,32.97c-2.48-.65-4.85-1.46-6.08-4.01,2.43.24,4.33,1.51,6.05,3.11.32.19.44.38.34.59-.1.21-.2.31-.31.31Z"/>
      <path class="cls-159" d="m210.69,39.05c-.92-1.17-2.64-1.53-3.13-3.12,2.41.25,4.66,2.01,7.23.81-.23,1.19-1.02,1.89-2.09,2.34-.68.25-1.35.03-2.02-.02Z"/>
      <path class="cls-234" d="m117.93,3.77c-2.64-.31-5.27-.63-7.91-.94-.38-.15-.53-.33-.44-.55.09-.24.2-.36.31-.36v.02c1.69-.7,3.4-.57,5.12-.09,1.1.09,2.19.18,2.9,1.21.34.14.46.3.36.46-.11.16-.22.25-.33.25Z"/>
      <path class="cls-76" d="m220.68,33.97c-1.49.68-2.81,2.16-4.7,1.05,1.12-2.35,2.48-3.61,4.7-1.05Z"/>
      <path class="cls-171" d="m187.97,26.02c-1.88-.61-4.12-.64-4.96-2.98,2.32-.12,4.27.38,4.96,2.98Z"/>
      <path class="cls-119" d="m132.47,6.2c-2.45-.03-5,.24-6.64-2.22,2.67.41,5.34.83,8.01,1.24.09,1.09-.47,1.28-1.37.98Z"/>
      <path class="cls-238" d="m246.89,30.17c-.33-.38-.67-.77-1-1.15.6-1.29,1.71-1.87,3.02-2.16-1.31,1.68.36,3.5-.25,5.21-.31.26-.65.31-1.01.12-.45-.6-.08-1.5-.75-2.01Z"/>
      <path class="cls-301" d="m227.32,40.93c-2.3-.87-4.15-2.15-4.49-4.83,2.05,1.09,4.07,2.22,4.49,4.83Z"/>
      <path class="cls-208" d="m165.37,14.92c-1.22.06-2.44.12-3.66.17-1.09-.22-1.97-.62-1.62-2.01,1.79.53,3.77.51,5.28,1.83Z"/>
      <path class="cls-219" d="m291.92,72.71c.7-.3,1.4-.6,2.09-.9.93.42,1.86.83,2.8,1.25.31.17.42.33.32.51-.1.17-.2.26-.31.26-1.63-.37-3.27-.74-4.9-1.11Z"/>
      <path class="cls-110" d="m264.92,60.71c-.04.44-.09.87-.13,1.31-1.41-.46-3.16-.28-3.9-2.03,1.38.02,2.89-.64,4.03.72Z"/>
      <path class="cls-168" d="m252.74,57.06c.32-.31.64-.62.96-.92,1.31.28,2.57.65,3.39,1.83-1.76,1.15-3.05.11-4.36-.91Z"/>
      <path class="cls-89" d="m132.47,6.2c.46-.33.91-.65,1.37-.98,1.31.32,2.63.64,3.94.96-.79,1.07-2.04.72-3.09.99-.74-.33-1.48-.65-2.22-.98Z"/>
      <path class="cls-161" d="m146.9,9.98c.02-.36.03-.72.05-1.08,1.32.54,3.08-.24,4.03,1.37-1.28-1.19-2.85,1.7-4.08-.29Z"/>
      <path class="cls-269" d="m201.85,32.97c-.01-.3-.02-.6-.03-.9,1.58.42,3.34.64,3.16,2.95-1.16-.51-2.47-.79-3.13-2.05Z"/>
      <path class="cls-256" d="m117.93,3.77c.03-.24.02-.47-.03-.71,1.96-.29,3.97-.89,5.56.97-1.84-.09-3.69-.17-5.53-.26Z"/>
      <path class="cls-205" d="m115,1.85c-1.71.03-3.42.06-5.13.09,1.69-1.2,3.4-1.12,5.13-.09Z"/>
      <path class="cls-205" d="m109.88,1.93c.07.3.11.6.14.91-1.47.19-2.93.3-4.18-.75.9-.16,1.78-.35,2.3-1.22.58.36,1.17.71,1.75,1.07Z"/>
      <path class="cls-271" d="m296.82,73.82c0-.26,0-.51,0-.77,1.42-.15,2.88-.51,3.98.85-.34.38-.69.75-1.03,1.13-.98-.4-1.96-.81-2.94-1.21Z"/>
      <path class="cls-186" d="m49.93,330.86c.05.26.06.52.02.78,2.41,2.14,4.99,4.18,4.67,7.93-1.93,3.09-4.37,5.72-7.12,8.15-6.92,6.13-12.97,13.14-19.58,19.6-3.76,3.67-7.58,7.31-10.95,11.37-3.26.12-6.72.94-8.19-3.45-2.41-7.21-1.68-9.65,3.24-14.39,10.84-10.45,21.46-21.11,32.13-31.73.54-.53.71-1.43,1.05-2.16,2.34.38,3.06,2.71,4.71,3.91Z"/>
      <path class="cls-237" d="m16.99,378.69c1.74-6.16,7.38-9.12,11.34-13.37,8.21-8.81,17.02-17.06,25.59-25.54.98-.58.43-3.52,2.86-1.84.8.91,1.6,1.82,2.4,2.73.5,1.9-1.78,1.26-2.16,2.36-11.24,11.35-22.51,22.68-33.7,34.09-1.88,1.92-3.96,2.11-6.33,1.57Z"/>
      <path class="cls-257" d="m3.99,249.85c2.79,3.14,3.92,7.02,4.91,10.96-1.08.59-1.34-.37-1.81-.95-1.59-3.16-2.65-6.49-3.1-10.01Z"/>
      <path class="cls-275" d="m117.01,386.62c2.54,1.38,6.16,1.3,6.87,5.13-2.7-.6-5.23-1.5-7.03-3.77-.46-.52-.4-.97.16-1.36Z"/>
      <path class="cls-239" d="m104.1,379.83c3.02.02,5.99.12,6.81,3.94-2.87-.28-4.89-2.02-6.81-3.94Z"/>
      <path class="cls-282" d="m49.93,330.86c-2.61-.05-3.3-2.42-4.71-3.92-.36-.7-.72-1.4-1.07-2.11,3.17.82,4.9,3.02,5.79,6.02Z"/>
      <path class="cls-297" d="m27.12,299.91c2.52,1.63,3.89,4.1,4.89,6.82.52.97-.1,1.09-.84,1.1-1.84-2.39-3.57-4.83-4.05-7.92Z"/>
      <path class="cls-86" d="m94.79,372.94c3.23-1.47,4.15,1.85,6.13,2.96.15.89,0,1.42-1.06.94-1.9-1.03-3.78-2.08-5.07-3.9Z"/>
      <path class="cls-102" d="m83.07,363.81c3.26-.41,5.2,1.01,5.82,4.23-2.56-.56-4.22-2.35-5.82-4.23Z"/>
      <path class="cls-16" d="m13.97,273.86c1.27,1.04,1.79,2.46,2.04,4.02.25,1.04-.2,1.32-1.15,1.06-1.36-1.38-1.97-3.08-2.11-4.98.37-.52.78-.55,1.22-.09Z"/>
      <path class="cls-97" d="m7.09,259.86c.6.32,1.21.63,1.81.95.78,1.22,1.28,2.52,1.11,4,.49.54.41.99-.23,1.33-1.61-1.79-2.7-3.8-2.68-6.28Z"/>
      <path class="cls-104" d="m14.86,278.93c.38-.35.77-.7,1.15-1.06,1.57,1.35,2.3,2.87,1.04,4.82-1.37-.89-1.78-2.32-2.19-3.77Z"/>
      <path class="cls-294" d="m21.16,289.84c2.24.41,2.47,2.34,3.02,4.02-.43.41-.88.42-1.34.05-1.68-.9-2.08-2.32-1.68-4.07Z"/>
      <path class="cls-211" d="m134.88,396.69c1.56.26,2.99.77,4.03,2.06.45.5.4.95-.13,1.35-1.55-.27-3-.74-3.96-2.12-.32-.45-.3-.88.06-1.29Z"/>
      <path class="cls-270" d="m117.01,386.62c-.05.45-.11.91-.16,1.36-1.64-.94-3.59-1.43-4.71-3.14,2.29-1.24,3.57.31,4.88,1.78Z"/>
      <path class="cls-12" d="m75.92,357.81c2.87-1.11,3.48.84,3.98,2.94-1.71-.45-3.26-1.13-3.98-2.94Z"/>
      <path class="cls-43" d="m150.86,403.84c-.45.81-1.22.93-2.03.98-1.3-.28-2.54-.68-3.24-1.96,1.89-.4,3.52.64,5.28.98Z"/>
      <path class="cls-296" d="m36.98,315.81c3.53-1.29,2.82,1.33,2.92,3.19-1.35-.71-2.26-1.84-2.92-3.19Z"/>
      <path class="cls-240" d="m22.84,293.91c.45-.02.89-.04,1.34-.05,1.36.75,1.83,1.93,1.67,3.42-2.1-.14-2.59-1.72-3.01-3.36Z"/>
      <path class="cls-105" d="m13.97,273.86c-.41.03-.81.06-1.22.09-.64-1.68-1.29-3.36-1.93-5.04.35-.42.72-.43,1.1-.03.68,1.66,1.37,3.32,2.05,4.98Z"/>
      <path class="cls-63" d="m138.78,400.1c.04-.45.09-.9.13-1.35,1.48.73,3.21,1.12,3.9,2.91-1.64.24-2.84-.64-4.02-1.56Z"/>
      <path class="cls-279" d="m134.88,396.69c-.02.43-.04.86-.06,1.29-1.52-.3-2.93-.79-3.81-2.2,1.32.17,2.82-.44,3.87.91Z"/>
      <path class="cls-31" d="m31.17,307.83c.28-.37.56-.73.84-1.1,1.19.68,1.99,1.6,1.93,3.07-.28.46-.55.46-.81-.01-.67-.63-1.88-.73-1.95-1.96Z"/>
      <path class="cls-198" d="m92.08,370.77c2.41-1.12,2.8.28,2.76,2.21-1.31-.25-2.46-.7-2.76-2.21Z"/>
      <path class="cls-17" d="m57.02,343.03c.72-.79,1.44-1.58,2.15-2.36,1.21.64,1.84,1.61,1.74,3-1.21-.75-2.38-1.72-3.89-.64Z"/>
      <path class="cls-221" d="m99.86,376.84c.35-.31.71-.63,1.06-.94,1.26.38,1.96,1.19,1.98,2.54-1.06-.44-2.39-.38-3.04-1.6Z"/>
      <path class="cls-197" d="m33.13,309.79c.27-.03.54-.02.81.01,1.82.57,1.8,1.75,1.05,3.18-.62-1.06-1.24-2.13-1.86-3.19Z"/>
      <path class="cls-62" d="m11.92,268.88c-.37.01-.73.02-1.1.03-1.24-.58-1.05-1.71-1.05-2.77.08-.44.15-.89.23-1.33,1.38,1.01,1.15,2.77,1.92,4.07Z"/>
      <path class="cls-317" d="m297.56,273.83c-.3.6-.6,1.2-.9,1.8-1.82,2.16-.45,5.99-3.83,7.34-25.1-27.21-54.07-49.61-85.37-69.18-24.42-15.27-50.9-26.58-76.31-39.95-28.81-15.15-57.83-29.97-84.13-49.39-4.26-3.14-8.02-6.96-12.01-10.46-.02-2.04-.04-4.08-.06-6.12-.88-1.51-.28-3.17-.46-4.75-.48-1.54,0-3.19-.53-4.73,0-.82,0-1.64,0-2.45-1.57-2.25-.38-4.55-.14-6.83,4.79.02,6.69,4.1,9.54,6.83,1.3,1.25,2.86,2.16,4.36,3.14,3.94,2.89,7.53,6.23,11.54,9.04.93.92,1.98,1.68,3.11,2.32,1.97,1.36,4.36,2.06,6.08,3.83,1.78,1.63,3.79,2.91,5.92,4.04,2.69,1.61,5.76,2.57,8.17,4.66,1.45,1.41,3.13,2.45,5.02,3.17,6.96,3.81,14.02,7.46,20.75,11.69,2.47,1.66,5.03,3.14,7.75,4.34,2.35,1.32,4.81,2.44,7.2,3.7,1.71,1.02,3.29,2.26,5.13,3.04,1.01.49,2.04.96,3.09,1.37,5.14,1.61,9.65,4.62,14.63,6.59,3.42,1.53,6.81,3.1,9.99,5.11,1.81,1.32,3.83,2.25,5.94,2.99,2.54,1.77,5.72,2.28,8.25,4.09.76.49,1.59.86,2.37,1.31,7.22,5.06,15.64,7.93,22.94,12.92,3.93,2.69,7.82,5.62,12.32,7.44.44.17.86.38,1.27.61,7.8,5.04,15.44,10.34,23.14,15.54,4.46,3.21,9.14,6.11,13.15,9.92,1.09,1.4,2.59,2.29,4.05,3.24,2.53,2,5.3,3.7,7.55,6.04,1.01,1.07,2.02,2.14,3.29,2.92,1.06.69,2.03,1.5,2.94,2.39,1.05,1.07,2.11,2.12,3.19,3.16,1.07.84,1.38,2.24,2.34,3.16,4.2,3.78,8.4,7.55,12.6,11.33,1.29.35,2.01,1.4,2.84,2.32.54.63,1.03,1.29,1.55,1.93.97,1.09,1.96,2.17,2.07,3.74,1.67,1.91,3.35,3.81,5.02,5.72,1.16.91,2.25,1.87,2.73,3.33.71.91,1.42,1.82,2.13,2.72-.08,1.68-.15,3.36-.23,5.04Z"/>
      <path class="cls-316" d="m35.03,53.77c1.69-3.13,5.62-2.3,7.85-4.46.49-.81,1.24-.82,2.04-.67,2.25.75,4.67-.05,6.92.72,3.42,2.78,2.77,7.4,4.87,10.77,2.17,7.2,7.26,12.18,12.8,16.81,1.45,1.41,3.08,2.56,4.98,3.3,1.73.69,3.76.83,4.92,2.6.45.93.46,1.87.08,2.81-.24.41-.57.73-.98.96-1.81.64-3.8.94-5.04,2.67-.6.62-1.3,1.1-2.08,1.46-1.53.46-2.3,1.65-2.87,3.03-.66,1.03-1.51,1.75-2.81,1.75-11.88-7.12-22.46-15.25-24.72-30.3-.76-5.07-1.5-5.24-6.1-2.68-1.24.69-2.3,2.04-4.01,1.3-1.46-2.63.35-4.67,1.26-6.87.82-1.19,1.76-2.28,2.87-3.22Z"/>
      <path class="cls-152" d="m31,63.82c2.08-1.32,4.12-2.7,6.24-3.94,2.42-1.41,4.7-.76,4.79,1.99.49,15.2,10.26,23.74,21.75,31.16.81.52,1.46,1.3,2.18,1.95.85.83.43,1.66,0,2.49-.99,1.48-1.57,3.16-2.2,4.8-.85,1.95-.46,3.92-.1,5.89.03.75-.14,1.43-.68,1.98-1.55.13-2.89-.45-4.16-1.25-4.44-2.38-8.07-5.81-11.82-9.1-1.11-1.33-2.01-2.94-4.1-2.84-2.64-2.52-5.28-5.03-7.92-7.55-2.22-1.37-3.82-3.1-3.49-5.96-.58-1.48-.19-3.28-1.47-4.53-1.88-4.16-.83-8.53-.88-12.82.33-.75.64-1.51,1.29-2.07.19-.07.39-.14.58-.21Z"/>
      <path class="cls-216" d="m45.05,48.97c-.72.11-1.44.21-2.16.32.61-1.28,1.79-1.17,2.93-1.24,7-.42,7.39-1.02,7.27-8.04-.04-2.16-1.73-3.95-1.01-6.15.78-.51,1.54-.43,2.29.06,3.24,4.85,1.97,9.9.63,14.95-.21.51-.52.94-.93,1.31-.53.22-1.03.16-1.48-.19-2.37-1.38-5.16.3-7.55-1.02Z"/>
      <path class="cls-327" d="m31.81,83.13c-.51,2.88,2.88,3.8,3.17,6.28-2.2,1.89-.62,4.36-1.01,6.52-2.81-3.81-2.66-8.35-3.13-12.73.29-.46.61-.49.97-.07Z"/>
      <path class="cls-189" d="m9.88,174.79c0,3.42-.02,6.84-.02,10.26-.69.53,0,2.31-1.73,1.89.02-4.38.03-8.76.05-13.13.96-.36,1.26.44,1.71.98Z"/>
      <path class="cls-162" d="m25.85,138.89c-1.07,2.49-1.84,5.15-4.04,6.98-.19.03-.38.05-.58.08.34-3.12,1.84-5.75,3.55-8.29.72.09.81.73,1.07,1.23Z"/>
      <path class="cls-317" d="m28.98,128.93c-.41,1.3-.83,2.59-1.24,3.89-.64,1.51-.04,3.91-2.8,3.92,1.15-2.71-.42-6.82,4.04-7.81Z"/>
      <path class="cls-185" d="m32.91,56.87c-.79,2.27-2.38,4.33-1.91,6.95,0,0,.01.38.01.38-1.74.27-1.3-1.31-1.78-2.1.97-2.03,1.13-4.41,2.69-6.18.91-.29,1.31-.04,1,.95Z"/>
      <path class="cls-55" d="m18.95,205.85c2.55,1.92,5.18,3.77,6.35,6.95-2.52.06-2.94-4.68-6.28-2.75-.51-.42-.56-.89-.17-1.42.03-.93.07-1.85.1-2.78Z"/>
      <path class="cls-276" d="m5.99,230.87c-.29-.32-.58-.65-.87-.97,1.19-2.34,1.98-5,4.84-5.98-1.04,2.48-1.76,5.14-3.98,6.95Z"/>
      <path class="cls-4" d="m53.97,34c-.63-.05-1.26-.09-1.89-.14-.11-.95-.22-1.89-.33-2.84.41-.44.87-.51,1.38-.2.74.12,1.48.24,2.22.36,1.9.57,1.38,1.77.77,2.98-.75.41-1.47.41-2.14-.17Z"/>
      <path class="cls-184" d="m53.12,30.83c-.46.07-.92.13-1.38.2-1.32-2.45-1.4-4.64,1.27-6.28.04,2.03.07,4.06.11,6.09Z"/>
      <path class="cls-153" d="m9.88,174.79c-.57-.33-1.14-.65-1.71-.98.04-2.22.23-4.35,2.88-5.09-.39,2.02-.78,4.04-1.16,6.07Z"/>
      <path class="cls-183" d="m57.02,13.73c-.38,2.4-1.55,4.43-3.02,6.32-.63-.73-.58-1.49-.07-2.26-.11-2.22.74-3.71,3.08-4.06Z"/>
      <path class="cls-200" d="m16.96,212.76c-1.07,2.24-1.13,5.15-4.04,6.2.21-2.81,1.6-4.84,4.04-6.2Z"/>
      <path class="cls-111" d="m24.94,136.74c.93-1.31,1.86-2.61,2.8-3.92.95-.04,1.73.2,2.03,1.23-3.03.21-2.32,3.46-3.91,4.84-.36-.41-.71-.82-1.07-1.23.02-.31.07-.62.15-.92Z"/>
      <path class="cls-201" d="m15.02,199.83c2.01,1.58,3.42,3.55,3.98,6.09-1.93-1.11-3.91-2.18-4.06-4.8-.44-.46-.42-.88.08-1.28Z"/>
      <path class="cls-206" d="m8.12,186.95c.58-.63,1.16-1.26,1.73-1.89.35,1.89.7,3.77,1.05,5.65-2.45-.13-2.55-1.99-2.79-3.76Z"/>
      <path class="cls-209" d="m64.78,6.09c-.51,2.68-2.63,3.38-4.84,3.97.22-3.03,3.31-2.55,4.84-3.97Z"/>
      <path class="cls-61" d="m31.81,83.13l-.49-.05s-.48.12-.48.12c-1.01-1.28-.64-2.83-.82-4.28,2.68.51,1.85,2.53,1.79,4.21Z"/>
      <path class="cls-228" d="m21.24,145.94c.19-.04.38-.07.58-.08-.04,1.58-.37,3.04-1.71,4.07-.37.55-.74.55-1.11,0,.33-1.56.57-3.18,2.25-3.98Z"/>
      <path class="cls-218" d="m53.94,17.8c.02.75.05,1.5.07,2.26-.33,1.06-.67,2.11-1,3.17-2.22-2.25.08-3.71.94-5.43Z"/>
      <path class="cls-154" d="m15.02,199.83c-.03.43-.05.85-.08,1.28-1.51-1.11-2.98-2.24-1.95-4.46.68,1.06,1.35,2.12,2.03,3.18Z"/>
      <path class="cls-243" d="m18.85,208.63c.06.47.12.94.17,1.42-.04,1.47-.81,2.38-2.19,2.81-.41-1.92.73-3.11,2.01-4.23Z"/>
      <path class="cls-87" d="m33.96,98.38c1.08,1.39,1.13,2.97.89,4.61-.3.4-.59.39-.85-.04-1.09-1.51-.67-3.04-.04-4.57Z"/>
      <path class="cls-96" d="m34.96,114.85c0,1.46.4,3.07-.09,4.33-.68,1.74-.69-.09-.98-.4.37-1.31-1.09-3.11,1.07-3.93Z"/>
      <path class="cls-268" d="m18.99,149.93c.37,0,.74,0,1.11,0-.07,1-.13,1.99-.2,2.99-.71-.02-1.42-.04-2.13-.06.41-.98.81-1.96,1.22-2.93Z"/>
      <path class="cls-71" d="m34,102.96c.28-.01.57,0,.85.04.03,1.62.06,3.24.1,4.87-2.14-1.28-.81-3.24-.95-4.91Z"/>
      <path class="cls-172" d="m32.91,56.87c-.33-.32-.66-.63-1-.95.52-1.47,1.61-2.11,3.12-2.15-.23,1.36-1.05,2.32-2.12,3.1Z"/>
      <path class="cls-213" d="m29.22,62.09c.59.7,1.19,1.4,1.78,2.1-.63.63-1.25,1.27-1.88,1.9.03-1.33.06-2.67.09-4Z"/>
      <path class="cls-152" d="m217.95,294.93c5.36,5.03,12.45,7.57,17.92,12.45.99,1.53,2.61,2.37,3.92,3.54.31.29.61.58.92.87,1.95,1.1,3.24,3.05,5.26,4.06.61.51,1.21,1.02,1.82,1.54.9,1.38-.37,1.85-1.07,2.56-.57.64-1.14,1.28-1.72,1.92-1.84,2.29-4.05,4.22-6.12,6.29,0,.72-.14,1.36-.89,1.69-1.99,1.92-3.28,4.75-6.53,5.04-18.34-.34-36.68-.86-55.03-.5-.66.07.3,1.04-.07.49,13.06-.98,26.13-.66,39.2-.15,4.38.28,8.78,0,13.16.16.59.03,1.15.16,1.68.41.57.36.71.85.42,1.46-.29.35-.59.7-.88,1.04-10.63,1.15-21.29.88-31.9.17-5.49-.37-10.97-.37-16.45-.61-4.4-.19-5.94,2.05-6.06,6.01-.22,7.49-.02,14.99-.11,22.49-.05,4.16.28,8.33-.28,12.48-.19.95-.65,1.76-1.25,2.5l-.13-.08c-2.64,1.37-6.01,1.29-7.94,4.03-1.88.69-3.76,1.38-5.64,2.07-3.7,1.62-7.39,3.44-11.46,1.06-.25.01-.49-.03-.72-.14-1.15-1.17-2.18-2.58-4.17-2l-1.89-.96c-2.72-2.18-5.78-3.77-9.02-5.01l-.04.05c-.55-.71-.64-1.5-.42-2.34.16-.54.36-1.06.58-1.58,1.03-11.84.27-23.69.4-35.54.01-1.08-.64-1.83-1.49-2.42-2.25-.89-4.59-.66-6.89-.58-12.08.4-24.09-1.08-36.14-1.37-3.47-1.12-7.01-.95-10.57-.62-1.46.09-2.41-1.11-3.68-1.5-.89-1.07-1.78-2.14-2.67-3.21-1.22-1.44-2.25-3.06-3.98-3.99-1.7-2.16-3.4-4.32-5.1-6.48-.62-2.07-2.35-3.18-3.87-4.47-.1-.19-.14-.4-.14-.61-.43-1.55-1.68-2.42-2.82-3.37-.1-.24-.16-.49-.19-.74-1.41-2.24-2.82-4.47-4.83-6.25-.72-1.23-1.45-2.46-2.17-3.69-.61-2.48-4.3-3.66-2.94-6.97,11.66-.1,23.33-.2,34.99-.31,1.92-1.81,4.34-1.32,6.6-1.37,13.54-.31,27.08.33,40.63.33,1.66,0,3.31.08,4.9-.45.46-.16.93-.33,1.35-.55.32-6.64-.13-13.27.18-19.88.1-2.2-.08-5.09,3.72-4.18,7.3-.36,13.7,3.18,20.55,4.79,5.45,1.28,10.82,2.88,16.22,4.34,2.29,3.84.99,8.07,1.29,12.12.18,2.4.66,4.25,3.56,4.29,11.53.15,23.07-.16,34.58.74,1.16.25,2.43.13,3.43.94Z"/>
      <path class="cls-317" d="m173.94,378.75c0-11.95-.07-23.91.06-35.86.07-6.95.34-6.98,7.21-6.85,14.6.26,29.2.38,43.79.67,1.65.03,3.69-1.03,4.95,1.07-.73.94-1.45,1.89-2.18,2.83-.83,1.61-2.54,2.17-3.83,3.23-3.04,2.92-6.09,5.84-9.13,8.76-2.07,2.07-4.5,3.68-6.91,5.31-1.66,1.33-3.31,2.66-4.97,3.98-1.97,1.4-4.1,2.55-6.03,4-2.11,1.42-4.43,2.55-6.09,4.55-1.77,1.56-4.19,2-6,3.48-2.63,1.36-4.72,3.76-7.89,4.07-.86.8-1.6,2.03-2.98.75Z"/>
      <path class="cls-317" d="m133.55,377.72h-.39s-.28.25-.28.25c-1.05.67-2.06.54-3.04-.16-1.79-1.58-3.58-3.14-5.91-3.91-.91-.91-2.21-1.15-3.23-1.88-.64-.98-1.95-.75-2.71-1.51-1.43-2.29-4.11-2.92-6.02-4.57-1.45-1.4-3.18-2.38-4.96-3.28-.68-2.04-2.98-2.29-4.16-3.78-1.91-1.48-4.15-2.51-5.85-4.28-1.69-2.66-4.49-4.02-6.89-5.84-1.16-1.17-2.02-2.6-3.22-3.74-2.94-1.21-4.26-4.05-6.29-6.18-1.16-.8-2.84-1.33-2.11-3.27.61-1.63,2.13-1.24,3.37-1.21,1.95.04,3.92-.31,5.84.27,13.36.3,26.71.59,40.07.91,1.97.05,3.94.22,5.92.34,1.17,1.08.67,2.5.68,3.77.04,11.48.05,22.95,0,34.43,0,1.22.66,2.7-.8,3.64Z"/>
      <path class="cls-156" d="m33.07,218.74c2.23,1.42,4.45,2.84,6.68,4.25,1.86.96,3.63,2.07,5.31,3.29,2.26,1.64,2.76,3.41-.02,5.1-6.28.95-12.6.51-18.89.3-1.29-.04-4.24.51-3.1-2.78l-.05.04c1.15-2.16,2.66-4.08,3.99-6.12.7-.86,1.4-1.72,2.1-2.58.63-2.34,2.18-2.25,3.97-1.49Z"/>
      <path class="cls-293" d="m23.05,228.89c.05,2.74,2.14,1.96,3.6,1.97,6.43.05,12.87,0,19.3-.01.2-.13.39-.27.59-.4.24-.02.47-.05.71-.08,2.28-.12,4.42,1.59,6.79.53,1.32-.46,2.08.5,2.95,1.16-5.94,2.21-12.04,0-18.09.6-5.05.5-10.24.63-15.38-.56-3.75-.87-2.46-1.83-.46-3.2Z"/>
      <path class="cls-210" d="m44.83,246.81c-7.7,0-15.4.02-23.11.02-1.99-1.75-.86-1.98.93-1.97,7.44.06,14.91-.4,22.3,1,.35.26.45.48.3.68-.14.18-.28.26-.42.26Z"/>
      <path class="cls-66" d="m44.83,246.81c.04-.31.08-.63.12-.94,12.37-.12,24.75-.24,37.12-.35.81.15,1.62.31,2.43.47,0,.28.01.55.02.83h-39.69Z"/>
      <path class="cls-287" d="m148.72,387.91c3.94.95,7.64-.61,11.45-1.06-3.56,3.09-7.29,4.47-11.45,1.06Z"/>
      <path class="cls-45" d="m87.71,334.63c-1.82.04-3.65,0-5.47.15-1.08.09-2.52-.61-3.17.7-.79,1.58,1.18,2.16,1.54,3.37-1.62.08-2.94-.4-3.65-1.99,0-.79.26-1.47.87-2,3.26-1.58,6.56-1.44,9.88-.23Z"/>
      <path class="cls-277" d="m132.92,379.8c3.64.53,7.06,1.45,9.02,5.01-3.47-.83-6.23-2.96-9.02-5.01Z"/>
      <path class="cls-300" d="m56.78,337.94c-1.53-.28-1.79,1.41-2.86,1.84.59-3.64-2.66-5.41-3.96-8.13,3.71.54,4.16,4.62,6.83,6.29Z"/>
      <path class="cls-32" d="m33.07,218.74c-1.58-.18-2.84.47-3.97,1.49-1.13-1.64.55-3.95-1.29-5.42,2.87-.19,3.61,2.48,5.27,3.92Z"/>
      <path class="cls-34" d="m230.82,336.74c.03-.3.05-.59.06-.89.11-1.19,1.29-1.35,1.94-2.02,1.72-1.33,3.45-2.65,5.17-3.98-1.58,3.14-3.37,6.07-7.17,6.9Z"/>
      <path class="cls-242" d="m23.01,251.39c1.67,3.01,3.1,6.1,3.74,9.51-2.74-2.58-4.03-5.74-3.74-9.51Z"/>
      <path class="cls-212" d="m207.9,357.9c1.7-2.55,3.92-4.43,6.91-5.31-1.59,2.69-3.34,5.19-6.91,5.31Z"/>
      <path class="cls-56" d="m45.94,294.12c.1,2.69,3.04,4.19,2.94,6.96-1.78-2.11-5.24-3.28-3.94-7.1.33.05.67.09,1,.14Z"/>
      <path class="cls-93" d="m165.82,384.78c1.61-3.4,4.64-3.99,7.94-4.03-2.15,2.32-5.38,2.51-7.94,4.03Z"/>
      <path class="cls-217" d="m97,354.61c2.7.41,4.52,2,5.85,4.28-3.02.04-4.65-1.83-5.85-4.28Z"/>
      <path class="cls-50" d="m26.99,222.82c-.32,2.7-1.8,4.64-3.99,6.12-.37-3.15,1.73-4.68,3.99-6.12Z"/>
      <path class="cls-289" d="m238.89,328.15c1.37-2.74,3.5-4.76,6.11-6.29-1.04,3.07-3.03,5.21-6.11,6.29Z"/>
      <path class="cls-90" d="m38.03,284.33c2.89,1.19,3.07,4.17,4.27,6.47-2.99-1.13-4.01-3.55-4.27-6.47Z"/>
      <path class="cls-47" d="m51.06,304.78c3.13.9,4.16,3.44,4.83,6.24-2.27-1.57-3.91-3.63-4.83-6.24Z"/>
      <path class="cls-222" d="m196.9,365.89c1.48-2.13,3.42-3.57,6.03-4-1.37,2.29-3.48,3.48-6.03,4Z"/>
      <path class="cls-58" d="m184.8,373.93c1.19-2.57,3.65-2.93,6-3.48-1.4,2.2-3.41,3.34-6,3.48Z"/>
      <path class="cls-264" d="m68.02,326.7c3.07-.41,3.14,2.17,3.98,3.99-1.81-.85-3.07-2.24-3.98-3.99Z"/>
      <path class="cls-106" d="m223.94,343.84c.53-1.96,2.17-2.61,3.83-3.23,0,2.6-1.6,3.28-3.83,3.23Z"/>
      <path class="cls-305" d="m59.05,315.75c2.42.5,3.84,1.88,3.87,4.46-1.55-1.26-3.06-2.56-3.87-4.46Z"/>
      <path class="cls-117" d="m107.02,362.67c2.37,0,3.93,1.23,4.96,3.28-2.06-.48-3.69-1.6-4.96-3.28Z"/>
      <path class="cls-11" d="m143.83,385.77c2.43-1.51,3.45-.07,4.17,2-1.39-.67-2.78-1.33-4.17-2Z"/>
      <path class="cls-284" d="m246.72,319.94c.36-.85.71-1.7,1.07-2.55,1.4.83,2.65,1.8,2.95,3.56-1.34-.33-2.68-.67-4.02-1Z"/>
      <path class="cls-292" d="m173.94,378.75c.99-.25,1.99-.5,2.98-.75-.21,1.8-1.25,2.7-3.03,2.82.02-.69.03-1.38.05-2.07Z"/>
      <path class="cls-65" d="m77.83,334.86c.02.8-.09,1.55-.87,2-.76-.98-1.52-1.97-2.29-2.96,1.21-.22,2.17.43,3.16.96Z"/>
      <path class="cls-295" d="m86.9,345.03c1.68.73,3.06,1.71,3.22,3.74-1.76-.66-2.97-1.79-3.22-3.74Z"/>
      <path class="cls-246" d="m118,370.51c1.15-.1,2.34-.3,3.01,1.02.4.48.35.91-.13,1.29-1.05-.66-2.45-.88-2.88-2.31Z"/>
      <path class="cls-273" d="m120.87,372.82c.04-.43.09-.86.13-1.29,1.23.48,2.59.79,2.93,2.37-1.1-.15-2.32.07-3.06-1.08Z"/>
      <path class="cls-113" d="m129.84,377.81c1.01.05,2.03.11,3.04.16,0,.63,0,1.25,0,1.88-1.42-.08-2.44-.74-3.04-2.04Z"/>
      <path class="cls-259" d="m56.08,311.77c1.98.25,2.93,1.36,2.82,3.37-1.18-.92-2.37-1.83-2.82-3.37Z"/>
      <path class="cls-285" d="m32.85,273.79c.66,1.05,1.31,2.1,1.97,3.15-1.53-.5-3.47-.75-1.97-3.15Z"/>
      <path class="cls-152" d="m250.96,71.79c12.32,3.86,23.99,9.37,35.86,14.36.23.75.85,1.57-.06,2.22-5.41,3.91-9.74,8.92-14.24,13.77-1.18,1.27-3.07,1.9-4.63,2.82-5.55.37-9.27-3.65-13.79-5.76-1.25-.76-1.38-1.94-1.22-3.23,1.33-1.92-.43-3.52-.54-5.3-.23-1.6.5-3.31-.54-4.83-.37-.94-.73-1.89-1.1-2.83-.26-.43-.3-.87-.13-1.34.43-2.15.34-4.27-.23-6.39.17-1.17-.5-2.49.61-3.5Z"/>
      <path class="cls-315" d="m254.1,99.2c5.27.3,9,4.29,13.79,5.76-1.45,5.42-6.02,8.02-10.04,11.11-.52.22-.86.06-1-.49-.27-2.96-.06-6.02-1.8-8.68-1.27-1.22-.65-2.65-.44-4.03-.17-1.22-.34-2.44-.51-3.66Z"/>
      <path class="cls-322" d="m256.84,115.58c.33.16.67.33,1,.49-.51,2.76.93,5.28.96,7.97-3.03-2.27-3.45-5.14-1.97-8.46Z"/>
      <path class="cls-5" d="m258.87,129.95c-1.07-1.71-1.74-3.43-.14-5.22,1.41,1.7,1.72,3.43.14,5.22Z"/>
      <path class="cls-317" d="m133.99,292.87c-.32,1.56-1.6,1.52-2.74,1.51-16.77-.17-33.55-.38-50.32-.57-2.71-1.97-5.79-.84-8.68-.91-7.47-.18-14.96-.1-22.43-.04-2.05.02-2.93-.05-3.05-2.83-.27-6.38-5.06-11.05-8.23-16.05-2.71-4.27-4.18-8.88-6.25-13.27-1.12-2.38-1.71-4.93-3.73-6.81-.72-.66-1.58-1.43-1.11-2.55.51-1.24,1.69-1.48,2.91-1.48,10.63.01,21.27.04,31.9.05,6.57,0,13.14.01,19.71-.08,2.4-.03,4.33.27,6.1,2.34,3.06,3.55,7.78,4.04,11.93,5.56,2.5.92,3.85-1.45,5.87-1.85l.03.04c1.01,2.93,3.39,4.93,5.56,6.7,3.76,3.06,7.32.98,10.46-1.76,2.13,1.58,5.63.77,6.86,3.92.38.02.75.05,1.13.07,2.35-.34,4.85,0,4.81,2.78-.09,8.41,1.21,16.88-.74,25.23Z"/>
      <path class="cls-278" d="m214.78,294.84c-12.53.92-25.07.12-37.61.32-2.58.04-2.31-1.79-2.29-3.44.06-4.96.14-9.92.21-14.88,0,0,.26-.02.26-.02,1.88.09,3.36,2.28,5.49,1.04.68.33,1.35.66,2.03.99,2.13,2.07,4.83,2.8,7.66,3.21,1.49.7,2.87,1.7,4.61,1.79.23,0,.45,0,.68-.01,1.37,1.38,3.24,1.82,4.92,2.63,1.16.9,2.63,1.18,3.89,1.87,1.14.38,2.09,1.18,3.25,1.51,1.39,0,2.37.63,2.94,1.9,1.08,1.34,3.98.34,3.96,3.09Z"/>
      <path class="cls-134" d="m133.99,292.87c-.03-7.31-.25-14.62-.01-21.92.11-3.31-.63-5.44-4.06-6.09,1.87-1.96,5.16-1.24,7.13,1.55-1.67,1.47-1.62,3.4-1.7,5.42-.29,6.93.86,13.9-.6,20.79-.23.14-.49.23-.76.25Z"/>
      <path class="cls-175" d="m134.75,292.62c.03-7.37.07-14.74.09-22.11,0-1.77-.36-3.71,2.2-4.1.42.43.85.87,1.27,1.3-2.95.37-2.39,2.64-2.4,4.53-.05,6.74-.04,13.48-.06,20.21,0,.11-.17.33-.26.32-.28-.01-.56-.1-.84-.16Z"/>
      <path class="cls-136" d="m190.88,282.85c-3.12-.42-6.33-.65-8-3.99,2.8,1.54,6.41.8,8.93,3.15.19.83.08,1.33-.93.84Z"/>
      <path class="cls-188" d="m96.96,251.06c-2.58.33-4.69-.27-7.11-2.24,3.48-.87,5.55.06,7.11,2.24Z"/>
      <path class="cls-265" d="m46.69,230.87h-.37s-.37-.02-.37-.02c1.11-5.12-4.84-4.68-6.19-7.86,3.05.04,5.05,2.09,7.23,3.78.92,1.44,1.32,2.84-.3,4.09Z"/>
      <path class="cls-245" d="m46.69,230.87c.1-1.36.2-2.73.3-4.09,2,.18,2.52,2.23,3.95,3.12-.67,2.66-2.45,1.29-3.9,1.07,0,0-.35-.1-.35-.1Z"/>
      <path class="cls-148" d="m128.78,264.79c-1.92-1.95-5.11-1.67-6.86-3.92,2.39,1.12,6.59-.91,6.86,3.92Z"/>
      <path class="cls-207" d="m119.16,260.34c-1.88-.58-4.24-.04-5.26-2.82,2.4.26,4.13,1.05,5.26,2.82Z"/>
      <path class="cls-147" d="m214.78,294.84c-1.32-1.03-2.64-2.06-3.96-3.09,2.81.1,5.14,1.26,7.14,3.18-1.06-.03-2.12-.06-3.18-.09Z"/>
      <path class="cls-235" d="m200.85,286.86c-1.97-.53-4.39-.29-5.03-3.02,1.87.29,3.49,1.13,5.03,2.19.29.18.39.37.3.55-.1.19-.19.28-.29.28Z"/>
      <path class="cls-44" d="m245.97,315.85c-2.66-.17-3.89-2.21-5.26-4.06,2.52.36,3.82,2.3,5.26,4.06Z"/>
      <path class="cls-250" d="m47.04,230.97c1.32-.29,2.9.38,3.9-1.07,1.03.33,2.06.67,3.09,1-2.31,1.63-4.65,1.57-6.99.07Z"/>
      <path class="cls-140" d="m108.91,256.9c-1-.32-2-.65-3.01-.97,0,0-.03-.04-.03-.04,1.32-3.11,2.78-.52,4.18-.1-.13.63-.52.99-1.14,1.11Z"/>
      <path class="cls-176" d="m200.85,286.86c0-.28,0-.55,0-.83,1.19.91,3.03.44,3.99,1.85.26.19.35.39.27.59-.08.2-.17.3-.25.3-1.64,0-2.95-.7-4-1.91Z"/>
      <path class="cls-167" d="m180.85,277.86c-2.31,2.19-3.83.19-5.49-1.04,1.83.35,3.66.69,5.49,1.04Z"/>
      <path class="cls-142" d="m190.88,282.85c.31-.28.62-.56.93-.84,1.11.62,2.22,1.23,3.34,1.84-1.72.96-3.03.13-4.26-1Z"/>
      <path class="cls-141" d="m204.86,288.78c-.02-.3-.02-.6-.02-.9,1.42.04,2.38.76,3.04,1.97-1.47.93-2.23-.1-3.02-1.07Z"/>
      <path class="cls-202" d="m239.79,310.92c-2.08-.32-3.37-1.52-3.91-3.54,1.65.8,3.35,1.54,3.91,3.54Z"/>
      <path class="cls-142" d="m108.91,256.9c.38-.37.76-.74,1.14-1.11.69.43,1.38.86,2.1,1.32-1.28,1.26-2.28.74-3.24-.21Z"/>
      <path class="cls-141" d="m104.47,253.88c-2.01.57-2.95.04-4.15-.54,1.43-1.66,2.39-.53,4.15.54Z"/>
      <path class="cls-155" d="m107.51,138.78c-6.87-3.98-13.73-7.95-20.6-11.93-.95-1.08-3.06-1.71-1.51-3.79.21-6.24-.17-12.5.19-18.74-.53,6.42.25,12.9-.43,19.32-1.01.9-1.47.07-1.98-.62-1.51-6.4-.22-12.92-.85-19.35-.03-.46-.03-.94-.01-1.39-.77-2.38-3.59-.52-4.69-2.24-.41-.63-.56-1.32-.55-2.06.08-1.25.51-2.42.69-3.65.92-2.59.47-5.45,1.62-8,.81-2.04,2.67-2.73,4.48-3.48,2.7-1.07,4.62-3.5,7.42-4.4,3.1-3.84,2.21-7.43-.68-10.88-2.54-4.47-7.24-7.48-8.63-12.73.04-.28.05-.56.02-.84.44-.54.38-1.2.49-1.84.35-2.11-1.26-5.24,1.51-6.09,2.47-.75,3.48,2.34,4.99,3.92,1.26,1.55,2.1,3.75,4.79,3.07,1.19-1.64,2.57-3.09,4.26-4.23.32-.3.64-.61.95-.91,1.67-1.09,2.85-2.9,4.93-3.4,2.8.88,4.2,3.32,5.97,5.36,1.19,1.06,2.38,2.12,3.56,3.18,2.67.63,3.78,3,5.4,4.8,1.2,1.07,2.39,2.13,3.59,3.2,2.72.61,3.79,3.08,5.47,4.86,1.14.24,2-.43,2.92-.91.98-1.72,2.65-2.74,4.04-4.06,1.04-.77,2.49-1.32,3.06-2.36,3.12-5.74,6.47-4.39,10.05-.58,1.21,1.6,3.16,2.43,4.3,4.1.75,1.03,1.93,1.6,2.76,2.54.97,1.05,2.04,2.03,2.81,3.25.63.36,1.26.72,1.89,1.08,3.15,2.43,4.31-1.78,6.67-2.01.28-.17.44-.42.46-.75,2.47-2.13,4.73-4.52,7.54-6.24l.27.08c1.46-1.79,2.83-3.7,5.16-4.5,2.18.17,2.87,2.14,4.12,3.43.31.31.62.62.93.94,3.66,1.2,5.64,4.32,8,7,1.61,1.24,2.86.64,3.96-.76,3.44-2.42,5.56-6.36,9.5-8.2.54-.52,1.08-1.03,1.62-1.55.29-1.77,2.04-2.26,2.99-3.46,2.14-1.11,3.59-2.93,4.9-4.87,2.85-3.09,5.13-2.03,7.15.97.34.35.69.7,1.03,1.05.88.98,1.82,1.9,2.77,2.81.36.68.72,1.37,1.07,2.05,1.6,1.33,3.15,1.37,4.63-.19.86-1.07,2.14-1.37,3.33-1.83h-.05c1.01-1.36,2.09-2.26,3.59-.56,1.38,4.4-.95,8.91.38,13.31.07,2.36.02,4.73.04,7.09-.58,3.85,1.34,7.47,1,11.3-.07,4.6,1.07,9.05,1.61,13.58.27,2.28.94,4.52-.62,6.6-4.75.5-5.55,3.57-5.48,7.71.54,29.36-1.52,58.69-1.02,88.06.05,2.94.94,6.62-3.43,7.77-5.5-3.62-11.2-6.98-16.41-10.98-2.18-1.68-5.25-2.06-6.71-4.69-1.43-1.86-1.31-4.06-1.31-6.22-.01-11.31-.53-22.66.17-33.93.54-8.79.59-17.59,1.05-26.36,1.02-6.98,1.66-13.97-.24-20.91-1.48-1.36-3.3-1.36-5.14-1.37-8.27,0-16.55.11-24.82-.05-3.91-.08-5.31,1.55-5.21,5.33.33,13.06-1.29,26.07-1.27,39.13-1.36,5-.43,10.11-.7,15.17-.1,1.96.16,3.94-.45,5.86-.25.59-.66,1.05-1.21,1.39-2.21-2.14-5.84-1.74-7.78-4.36-1.87-1.47-3.77-2.89-6.32-2.87-3.16-1.71-6.33-3.42-9.49-5.13-2.04-2.02-1.57-4.63-1.58-7.08-.05-13.32,0-26.63-.04-39.95-.02-5.88-.45-6.28-6.18-6.35-6.66-.08-13.3-.74-19.95-.73-6.28,0-6.82.66-6.86,6.89-.04,6.82.01,13.65-.02,20.48-.01,2.15.18,4.34-.77,6.39-.65,1.36-2.06.91-3.11,1.32Z"/>
      <path class="cls-152" d="m231.88,207.82c1.79-1.18,1.72-2.98,1.74-4.85.31-31.09.67-62.17.99-93.26.07-6.92.03-6.93,7.11-6.04.37-.21.76-.23,1.16-.08.44.44.61,1.05,1.01,1.52,1.42,2.01.9,4.3.96,6.5,1.08,1.69-.26,3.83,1.03,5.48,1.38,1.7,1,3.72,1.01,5.67,2.23,2.21,1.45,5.25,2.19,7.87.31,2.38,1.12,4.63,1.93,6.87.34,1.26.3,2.71,1.67,3.47.71,3.28,1.42,6.57,2.13,9.85.25,1.78.94,3.42,1.52,5.09.48,1.86,1.1,3.68,1.77,5.48.29.56.72,1.03,1.04,1.56.07,1.51.74,2.77,1.59,3.96.26,2.42,1.15,4.63,2.17,6.81-.09,1.89.94,3.47,1.43,5.21.89,2.27,1.27,4.74,2.76,6.76.21.87.66,1.64,1.11,2.4.21,1.75.72,3.39,1.86,4.78.22-.03.45-.02.67.04.53,1.37-.06,2.72-.11,4.08-.08.49-.21.96-.34,1.43-.14,4.39-.6,8.79.62,13.11.57,6.59.58,13.17.05,19.76-.13.54-.35,1.04-.66,1.49-2.87,2.6-5.25.12-7.78-.78-.86-.72-1.72-1.45-2.58-2.17-1.19-.91-1.36-3.07-3.49-2.84-2.53-2.09-5.05-4.18-7.58-6.26-1.01-1.32-1.99-2.68-3.79-3-4.4-3.31-8.8-6.63-13.2-9.94Z"/>
      <path class="cls-152" d="m55.95,33.87c-.14-.91.24-1.93-.61-2.68,6.54-14.14,18.86-17.1,32.79-17.09,8.13,0,16.2.38,24.05,2.75.59,1.45,2.17.17,2.96,1.07,7.94-.38,15.26,2.56,22.63,4.69,13.63,3.94,27.04,8.64,40.09,14.28,1.62.7,3.6.91,4.04,3.13-.75,1.05-2.2,1.08-3,2.06-1.15,2.14-3.06,3.47-5,4.78-1.51.96-2.58,2.47-4.19,3.29-.81.95-1.62,1.9-2.44,2.85-1.21.27-2.08,1.57-3.52,1.15-1.29-.04-2.58-.09-3.87-.13-2.01.81-2.75-1.22-4.11-1.85-2.27-1.71-4.19-3.75-5.78-6.11-1.44-2.09-3.29-3.8-5.1-5.54-2.55-.85-3.31,1.78-5.01,2.58-.64.61-1.28,1.22-1.92,1.83-.57.57-1.25.94-2.06,1.04-4.75-.77-9.36-2.08-13.87-3.74-1.61-.99-3.48-1.03-5.27-1.33-2.33-1.46-4.2-3.43-5.94-5.54-.79-1.54-2.47-2.17-3.51-3.46-1.69-2.09-3.35-1.71-4.96.11-.82.99-2.19,1.5-2.56,2.9-.93.43-1.87.87-2.8,1.3-.68.43-1.38.81-2.18.95-1.59.18-3.18.24-4.76-.16-.76-.24-1.5-.52-2.15-1-1.27-1.31-2.55-2.63-3.82-3.94-1.29-1.57-2.41-3.33-4.51-4-1.79-1.68-3.58-3.36-5.36-5.04-1.59,1.83-.46,4.03-.8,6.03.2,2.65-.45,5.34.41,7.95.01.73.03,1.46.04,2.19-.94.37-1.78.91-2.58,1.53-.7.49-1.41.95-2.18,1.32-.83.4-1.69.67-2.63.59-4.02-2.31-8.02-4.63-10.55-8.73Z"/>
      <path class="cls-278" d="m55.95,33.87c3.53,2.73,7.06,5.46,10.58,8.19,2.23.4,3.85,1.99,5.78,2.98.76.52,1.15,1.33,1.58,2.1,2.08,3.2,5.55,4.94,8.07,7.69,3,4.08,6.7,7.63,9.07,12.16,3.42,5.71,3.49,8.04.36,11.94-2.02,1.66-4.05,3.32-6.07,4.98-.67-.26-1.34-.52-1.96-.88-4.9-13.12-15.49-21.18-26.03-29.31-1.4-1.08-3.24-1.87-3.3-4.07.55-5.22,1.72-10.44-.07-15.65.66-.04,1.32-.09,1.98-.13Z"/>
      <path class="cls-157" d="m269.94,232.81c-.07-7.32-.14-14.63-.21-21.95-.54-4.65-.86-9.31.14-13.95l.16.14c3.06.24,2.35,3.39,3.77,4.9l-.03-.06c1.24,2.02,1.73,4.39,3.04,6.37.3.47.6.93.9,1.4.96,3.81,2.85,7.17,5.1,10.34.3.86.61,1.73.91,2.59.16,1.74,1.32,3.01,2.08,4.46-.02.28,0,.56.08.84.8,1.84,3.58,3.35.99,5.77-5.65-.12-11.37,1.3-16.92-.85Z"/>
      <path class="cls-1" d="m121.86,40.94c4.63,1.4,9.26,2.81,13.9,4.21.83,1.76-1.11,1.92-1.66,2.88-.37.35-.73.71-1.1,1.06-1.62.94-2.05,4.64-5.12,2.19-3.91-1.66-5.87-5.4-8.75-8.16-.73-2.52-.42-2.76,2.73-2.17Z"/>
      <path class="cls-181" d="m183.79,41.13c5.58,2.61,11.38,4.82,16.32,8.65-.06.35-.12.69-.18,1.04-1.49,1.03-2.73,2.36-4.18,3.44-1.8-.02-2.86-1.26-3.96-2.43-.26-.26-.51-.52-.77-.79-1.65-2.32-3.85-4.13-5.74-6.23-.91-1.01-2.68-1.78-1.49-3.69Z"/>
      <path class="cls-26" d="m239.99,83.97c.01-3.73-1.68-7.3-1-11.09.53-2.28.6-4.57-.03-6.85-.06-4.61-.13-9.22-.19-13.83-.55-.9-.59-1.74.31-2.46,1.36-.47,1.77.16,1.69,1.43-.75,11.28-.04,22.52.97,33.76-1.07.58-1.35-.3-1.75-.95Z"/>
      <path class="cls-77" d="m239.99,83.97c.58.32,1.17.63,1.75.95.65,4.73,1.3,9.45,1.95,14.18-.96,1.45.24,3.3-.85,4.73-.38-.05-.75-.09-1.13-.14.66-6.68-2.39-13.03-1.73-19.71Z"/>
      <path class="cls-236" d="m246.89,30.17c.86.33.91,1.1,1.03,1.84.62,5.64.69,11.27-.05,16.9-.02,2.02-.03,4.03-.05,6.05-2.12-4.05-.66-8.38-.94-12.57-.25-3.78-.05-7.59-.05-11.39.02-.28.04-.56.06-.84Z"/>
      <path class="cls-324" d="m88.98,49.99c-.3-.11-.61-.21-.91-.33-1.6-.62-2.14-3.59-4.13-2.65-1.55.73-.49,3-.77,4.57-.17.93.05,2.01-1.18,2.41-.03-1.5-.22-3.01-.06-4.49.22-2.03-1.2-5.07,1.02-5.85,1.99-.7,3.18,2.42,4.86,3.69.85.64,1.15,1.6,1.17,2.65Z"/>
      <path class="cls-114" d="m183.79,41.13c1.11,4.25,6.35,5.49,7.22,9.91-3.06-1.42-4.78-4.32-7.15-6.51-1.43-1.32-2.62-3.01-4.96-2.47.49-1.43,1.52-2.07,3-2.06.63.37,1.26.74,1.88,1.12Z"/>
      <path class="cls-260" d="m269.94,232.81c5.9.19,11.81.51,17.71-.12.68.14,1.09.56,1.24,1.23-1.49,1.59-3.4.75-5.14.9-4.45-1.03-8.97-.13-13.44-.53-.63-.22-.86-.65-.71-1.3l.34-.19Z"/>
      <path class="cls-59" d="m282.79,220c-3.65-2.49-5.41-5.9-5.1-10.34,2.41,3.09,4.12,6.54,5.1,10.34Z"/>
      <path class="cls-92" d="m250.92,81.91c-.07.37-.14.74-.21,1.11-1.16-6.3-2.03-12.62-1.84-19.04,2.1,1.94-.27,5.1,1.91,7.02.15.25.21.51.18.8-.03,1.43-.06,2.87-.09,4.3.72,1.93.63,3.87.06,5.82Z"/>
      <path class="cls-291" d="m273.79,201.95c-2.26-.86-1.93-3.71-3.77-4.9-.42-1.49.07-2.81.71-4.11,1.73,2.76,3.38,5.55,3.06,9.01Z"/>
      <path class="cls-133" d="m284.9,253.97c-.37-.58-.74-1.17-1.11-1.75-.59-1.09-.94-2.18.05-3.25.94-.02,1.87-.04,2.81-.06,3.15.57,1.34,2.38.96,3.83-.7.87-1.55,1.4-2.72,1.23Z"/>
      <path class="cls-304" d="m206.35,57.98c-3.12,2.79-5.21,6.76-9.5,8.2,2.6-3.39,4.84-7.19,9.5-8.2Z"/>
      <path class="cls-20" d="m101.88,31.98c3.62-3.41,6.03-2.51,8.96,3.35-2.95-.22-3.68-5.79-7.78-3.24-.43.35-.82.31-1.18-.11Z"/>
      <path class="cls-323" d="m269.82,233.88c4.63.49,9.4-1.01,13.93.95-4.96.04-9.91.08-14.87.12-.07-.24-.15-.47-.22-.71.27-.5.66-.6,1.16-.36Z"/>
      <path class="cls-25" d="m192.89,66.94c-2.67-2.33-5.33-4.67-8-7,4.68.03,6.28,3.58,8,7Z"/>
      <path class="cls-308" d="m223.02,49.08c-2.21-1.61-4.49-2.68-7.15-.98.28-2.13,1.9-3.57,3.6-3.36,1.97.25,3.16,2.22,3.55,4.34Z"/>
      <path class="cls-30" d="m174.41,59.99c-1.84,2.9-4.31,5.03-7.54,6.24,1.8-2.95,3.72-5.74,7.54-6.24Z"/>
      <path class="cls-64" d="m248.78,130.94c-1.99-2.41-.04-5.73-1.88-8.17,3.12,1.96,2.54,5.23,2.88,8.18-.34.49-.67.46-1,0Z"/>
      <path class="cls-29" d="m288.89,233.92c-.41-.41-.82-.82-1.23-1.23-.63-1.59-1.96-2.92-1.78-4.81,2.69,1.17,3.92,3.07,3.02,6.04Z"/>
      <path class="cls-79" d="m286.84,252.93c.49-1.36,2.17-2.78-.19-4.01,1.22-1.11,2.64-2.13,2.72.62.05,1.48.08,3.3-1.51,4.36-.94.31-1.29,0-1.02-.97Z"/>
      <path class="cls-21" d="m94.86,36.15c.72,0,1.43.02,2.15.03-1.33,2.45-2.06,6.2-6.1,2.85-.23-.19-.35-.41-.34-.66,0-.26.04-.39.1-.39.82-.63,1.92-.33,2.79-.82.53-.26.99-.59,1.4-1.01Z"/>
      <path class="cls-230" d="m109.89,49.88c-1.99-1.61-3.98-3.22-5.96-4.83-.34-.23-.45-.46-.34-.69.11-.23.23-.34.34-.34,3.16.76,5.23,2.62,5.96,5.86Z"/>
      <path class="cls-307" d="m151.99,62.92c-1.1-1.84-4.24-2-4.01-4.91,2.45.29,3.58,2.29,5.03,3.87.26.93-.04,1.31-1.01,1.04Z"/>
      <path class="cls-306" d="m127.88,51.27c2.45,1.01,3.2-1.95,5.12-2.19-.09,1.86-1.38,2.97-2.68,3.92-2.25,1.63-2.38-.08-2.43-1.73Z"/>
      <path class="cls-109" d="m266.76,185.97c-1.88-1.98-2.28-4.58-2.96-7.06-.48-1.03.06-1.13.89-.97.72,1.96,1.44,3.92,2.15,5.88.53.74.55,1.46-.08,2.16Z"/>
      <path class="cls-81" d="m183.96,59c-1.3-.97-2.61-1.94-3.91-2.91-1.13.4-1.37-.14-1.19-1.12,3.69-1.17,4.24,1.63,5.1,4.04Z"/>
      <path class="cls-39" d="m155.79,52.15c1.83-.4,2.77,1.16,4.11,1.85-.16.75-.17,1.87-1.25,1.59-1.65-.44-2.54-1.76-2.86-3.44Z"/>
      <path class="cls-115" d="m232.87,55.07c-1.71,3.31-3.36,3.11-4.97-.08,1.7-.06,3.44.09,4.95-.96.28.23.38.45.29.69-.09.23-.18.35-.27.35Z"/>
      <path class="cls-38" d="m248.78,130.94c.33,0,.67,0,1,0,.61,2.03,1.22,4.05,1.84,6.08-.15.45-.43.78-.87.97-1.52-2.11-1.94-4.53-1.96-7.06Z"/>
      <path class="cls-107" d="m118.86,57.86c-2.26-1.09-3.81-2.96-5.4-4.8,3.49-.31,4.6,2.08,5.4,4.8Z"/>
      <path class="cls-57" d="m166.41,66.98c-2.18.8-2.79,6.85-6.67,2.01,2.61.63,4.14-2.33,6.67-2.01Z"/>
      <path class="cls-48" d="m144.93,39.95c2.12,1.68,4.49,3.14,5.08,6.1-2.31-.97-3.55-3.09-5.18-4.8-.41-.47-.38-.9.1-1.3Z"/>
      <path class="cls-24" d="m127.92,65.92c-2.32-1.06-3.84-3.01-5.47-4.86,3.53-.31,4.56,2.21,5.47,4.86Z"/>
      <path class="cls-231" d="m257.84,161.92c-1.45-1.74-2.04-3.77-1.97-6.01.34-.48.67-.47.99.02,1.03.76.83,1.91.95,2.96.69,1.01.66,2.02.02,3.03Z"/>
      <path class="cls-51" d="m264.69,177.94c-.3.32-.59.65-.89.97-.82-1.63-2.72-3.08-.89-5.17,1.04,1.21,1.76,2.55,1.78,4.19Z"/>
      <path class="cls-13" d="m178.86,54.96c.4.37.79.75,1.19,1.12-1.79,1.33-3.57,2.65-5.36,3.98.38-2.53,2.23-3.86,4.18-5.11Z"/>
      <path class="cls-91" d="m191.79,51.83c1.32.69,2.65,1.38,3.97,2.07.43-.38.83-.35,1.2.09-2.91,2.12-4.46,1-5.16-2.16Z"/>
      <path class="cls-27" d="m103.93,44.02c0,.34,0,.68,0,1.03-1.71.85-2.62,3.08-4.94,2.88.73-2.47,2.6-3.49,4.95-3.91Z"/>
      <path class="cls-68" d="m144.93,39.95c-.03.43-.07.86-.1,1.3-2.12-.68-3.03,1.91-4.93,1.83,1.48-1.36,1.69-4.76,5.03-3.13Z"/>
      <path class="cls-255" d="m276.79,208.26c-2.12-1.6-2.93-3.82-3.04-6.37,2.56,1.38,2.55,4,3.04,6.37Z"/>
      <path class="cls-254" d="m134.87,60.95c-.46,2.23-2.18,3.22-4.03,4.06.27-2.42,1.64-3.76,4.03-4.06Z"/>
      <path class="cls-46" d="m210.97,52.97c-.24,1.81-1.47,2.75-2.99,3.45-1.19-3.04,1.17-3.02,2.99-3.45Z"/>
      <path class="cls-40" d="m73.85,36.97c-1.87-2.48-.58-5.31-.87-7.96.29-.46.58-.48.87,0v7.96Z"/>
      <path class="cls-124" d="m286.84,252.93c.34.32.68.64,1.02.97.27,1.04,1.35,2.06.04,3.11-1-1.01-2-2.02-3.01-3.04.65-.35,1.3-.7,1.94-1.05Z"/>
      <path class="cls-80" d="m134.09,48.03c.55-.96,1.11-1.92,1.66-2.88.74-.08,1.48-.16,2.22-.24-.21,2.39-1.72,3.16-3.88,3.12Z"/>
      <path class="cls-160" d="m70.9,39.79c.84-.95,1.96-.59,2.99-.63-.27.64-.53,1.27-.8,1.91.48.88.35,1.8.21,2.72-.89.87-1.62.33-2.34-.27-.96-1.23.05-2.49-.06-3.73Z"/>
      <path class="cls-163" d="m121.86,40.94c-1.29.25-3.19-.29-2.73,2.16-1.11-.4-1.88-1.16-2.34-2.24,1.71-1.51,3.4-1.15,5.08.07Z"/>
      <path class="cls-283" d="m72.86,43.93c.08-.95.15-1.91.23-2.86,1.66,1.84.54,4.05.8,6.07-.65-.38-1.3-.75-1.95-1.13-.53-1.06.12-1.6.92-2.08Z"/>
      <path class="cls-118" d="m210.69,39.05c.68-1.04,1.35-.13,2.02.02-.67,1.72-1.79,2.85-3.74,2.92.57-.98,1.15-1.96,1.72-2.94Z"/>
      <path class="cls-33" d="m169.72,50.14c.98-1.63,2.16-3.01,4.19-3.29-1,1.6-1.62,3.69-4.19,3.29Z"/>
      <path class="cls-23" d="m98.03,48.84c-.83,2-2.45,3.2-4.26,4.22.29-2.55,1.95-3.72,4.26-4.22Z"/>
      <path class="cls-8" d="m239.09,49.74c-.1.82-.21,1.64-.31,2.46-1.17-.46-2.04.24-2.95.77.23-1.95.74-3.61,3.27-3.23Z"/>
      <path class="cls-309" d="m226.83,52.94c-1.71-.16-2.74-.99-2.78-2.81,1.89-.01,2.55,1.19,2.78,2.81Z"/>
      <path class="cls-69" d="m256.87,155.92c-.33,0-.66,0-.99-.02-.7-1.62-1.94-3.12-1.06-5.07,1.51,1.36,1.57,3.31,2.05,5.09Z"/>
      <path class="cls-331" d="m79.6,28.03c2.67.02,3.89,1.67,4.5,4-2.06-.7-3.14-2.51-4.5-4Z"/>
      <path class="cls-244" d="m295.66,266.07c-1.28-.81-2.09-1.99-2.73-3.33,2.12-.98,2.14,1,2.85,2.02-.04.44-.08.87-.12,1.31Z"/>
      <path class="cls-60" d="m151.99,62.92c.34-.35.67-.7,1.01-1.04,1,1.01,2,2.02,3,3.03-.42.52-.89.57-1.41.15-.86-.71-1.73-1.42-2.59-2.14Z"/>
      <path class="cls-302" d="m252.77,90.95c.76,1.66,1.95,3.31.11,5.03-.27-1.66-.53-3.33-.8-4.99.23-.01.46-.02.69-.04Z"/>
      <path class="cls-19" d="m270.07,192.89c-1.97-1.11-2.22-2.99-2.24-4.97.29-.43.56-.41.81.03.48,1.65.95,3.29,1.43,4.94Z"/>
      <path class="cls-72" d="m196.95,53.99c-.4-.03-.8-.06-1.19-.09,1.02-1.53,2.21-2.83,4.17-3.08-.41,1.6-1.56,2.51-2.98,3.17Z"/>
      <path class="cls-2" d="m242.85,103.82c.31-1.57-.6-3.36.85-4.73.06,2.01.13,4.01.2,6.02-.35-.43-.7-.86-1.04-1.29Z"/>
      <path class="cls-52" d="m283.84,248.97c-.02,1.08-.03,2.16-.05,3.25-1.3-.69-2.16-1.7-2.34-3.2.8-.08,1.58-1.13,2.39-.04Z"/>
      <path class="cls-280" d="m73.84,29.01h-.43s-.43,0-.43,0c.37-2.02-1.1-4.42,1.26-6.02-.13,2.01-.26,4.01-.39,6.02Z"/>
      <path class="cls-323" d="m268.85,237.68c-1.05-.92-2.09-1.84-3.14-2.75.98-.93,2-.91,3.04-.12,0,0,.12.14.12.14,0,.91-.02,1.82-.03,2.73Z"/>
      <path class="cls-194" d="m101.88,31.98c.39.04.78.07,1.18.11-.88,1.17-1.81,2.27-3.25,2.78-.99-2.17,1.04-2.18,2.07-2.9Z"/>
      <path class="cls-3" d="m285.79,227.05c-1.71-1.01-2.83-2.3-2.08-4.46,1.42,1.15,2.02,2.68,2.08,4.46Z"/>
      <path class="cls-232" d="m90.92,38.02c0,.34,0,.67-.01,1.01-1.32-.7-2.4-1.63-2.98-3.05.74.06,1.48.11,2.22.17.41.33.96.5,1.21,1.03.07.39-.08.67-.43.85Z"/>
      <path class="cls-253" d="m257.84,161.92c0-1.01-.02-2.02-.02-3.03,1.36,1.01,1.09,2.75,1.83,4.04-.3.47-.61.48-.94.03-.29-.34-.58-.69-.87-1.03Z"/>
      <path class="cls-6" d="m258.71,162.95c.31-.02.63-.03.94-.03.36,1.34.73,2.67,1.09,4.01-1.78-.77-2.03-2.31-2.03-3.98Z"/>
      <path class="cls-99" d="m245.88,117.09c-1.69-1.57-.93-3.6-1.03-5.48,1.57,1.59.96,3.6,1.03,5.48Z"/>
      <path class="cls-28" d="m254.61,102.86c.15,1.34.29,2.69.44,4.03-2.36-1.1-1.11-2.6-.44-4.03Z"/>
      <path class="cls-299" d="m268.64,187.95c-.27-.02-.54-.03-.81-.04-.76-.42-1-1.14-1.07-1.95.03-.72.05-1.44.08-2.16,1.24,1.1,1.22,2.75,1.8,4.14Z"/>
      <path class="cls-325" d="m232.87,55.07c0-.35-.01-.69-.02-1.04.58-1.56,1.64-1.76,3.02-1.07-1,.7-2,1.4-3,2.11Z"/>
      <path class="cls-70" d="m163.76,54.13c1.17-.38,2.34-.76,3.52-1.15-1.09.62-1.36,3.78-3.52,1.15Z"/>
      <path class="cls-249" d="m154.58,65.05c.47-.05.94-.1,1.41-.15,1.24.62,1.98,1.54,1.86,3-1.48-.5-2.45-1.59-3.27-2.85Z"/>
      <path class="cls-54" d="m252.77,90.95c-.23,0-.46,0-.69.04-.09-1.71-.18-3.42-.27-5.13,1.67,1.44.87,3.35.96,5.1Z"/>
      <path class="cls-298" d="m250.74,137.99c.29-.32.58-.65.88-.97.36,1.32.71,2.64,1.07,3.96-1.87-.2-1.88-1.61-1.95-2.99Z"/>
      <path class="cls-165" d="m115.15,17.91c-1.08.02-2.16.08-3.24.04-.31-.01-1.1.27-.84-.53.09-.29.73-.4,1.13-.59,1.2-.23,2.42-.53,2.96,1.07Z"/>
      <path class="cls-303" d="m247.87,48.91c.02-5.63.03-11.27.05-16.9.25-.01.5,0,.74.05-.28,5.62,1.12,11.31-.79,16.85Z"/>
      <path class="cls-152" d="m208,191.83c-4.91-1.1-8.35-4.83-12.6-7.12-8.1-4.37-16.01-9.07-24-13.63-.85-7.78-.85-15.57,0-23.35.42-3.79.42-7.61.35-11.37-.18-9.94,1.35-19.83.59-29.76-.25-3.26.82-4.3,4.16-4.21,9.31.23,18.64.21,27.95.02,3.95-.08,5.37,1.61,5.39,5.32.08,13.43-1.1,26.81-1.44,40.22-.32,12.81-.05,25.63-.1,38.44,0,1.81.32,3.66-.32,5.44Z"/>
      <path class="cls-152" d="m109.8,137.86c.02-10.29.11-20.58,0-30.87-.03-3.28.75-4.73,4.49-4.59,9.25.35,18.51.38,27.77.23,3.46-.06,4.11,1.33,4.09,4.39-.13,16.93-.1,33.86-.12,50.8-5.3-1.58-10.03-4.39-14.9-6.89-.96-1.23-2.45-1.59-3.73-2.29-1.63-.43-2.68-2.28-4.64-1.87l-6.84-3.42c-1.37-2.57-5.56-2-6.11-5.48Z"/>
      <path class="cls-233" d="m80,86.36c.17,2.95-.03,5.84-1.24,8.59-1.58.31-.77,1.83-1.35,2.66-.82,1.64.31,3.39-.27,5.04-.19,1.33-.61,2.6-.82,3.93-.17,1.16-.31,2.32-.59,3.46-.56,1.63-.49,3.42-1.26,5-.42.68-.99,1.18-1.75,1.46-1.93.23-3.44-1.01-5.17-1.48-1.44-1.86-4.27-1.61-5.57-3.68-.24-.74.41-1.11.7-1.62.03-.58.07-1.16.1-1.75-.38-.73-.33-1.47-.11-2.23.48-3,1.63-5.81,2.39-8.73.84-.43.93-1.19.88-2.02.66-.67,1.31-1.33,1.97-2,1.03-.97,1.96-2.04,3.09-2.9l1.72-1.25c1.65-1.38,3.92-1.63,5.55-3.04l.07.14c.7-.47,1.25-.33,1.64.42Z"/>
      <path class="cls-170" d="m208,191.83c-.3-27.6.16-55.18.95-82.77.14-4.72-1.16-6.46-6.1-6.26-8.81.35-17.64.14-26.46-.03-2.78-.05-3.79.81-3.78,3.66.05,12.76.47,25.55-.33,38.27-.55,8.8.14,17.61-.89,26.38-.85.19-1.42-.15-1.79-.9.09-.44.19-.88.28-1.33,1.07-5.17.2-10.39.5-15.58.1-1.77-.42-3.6.44-5.3.34-14.05.77-28.09.96-42.14.04-3.11,1.18-3.97,4.11-3.93,9.78.13,19.55.06,29.33.04,1.87,0,3.7-.03,4.63,2.05.75,6.98.77,13.95,0,20.93-.33,22.41-1.47,44.81-1.11,67.24-.28-.05-.53-.16-.76-.32Z"/>
      <path class="cls-180" d="m72.95,115.74c.23-.25.46-.5.7-.75,1.79-1.4.03-3.7,1.31-5.23.07-1.26.13-2.52.2-3.78,1.91-1.02,1.26-3.83,3.32-4.75,1.56-.36,3.09-.42,4.51.5,2.4,4.13.64,8.61,1.05,12.91.27,2.76,0,5.57-.01,8.35-.49.6-.9,1.37-1.9.92-2.7-1.59-5.41-3.18-8.11-4.77-1-.93-1.28-2.09-1.06-3.4Z"/>
      <path class="cls-22" d="m72.95,115.74c1.15.89,1.01,2.17,1.06,3.4-2.38-1.02-4.57-2.33-6.45-4.14,1.8.24,3.59.49,5.39.73Z"/>
      <path class="cls-248" d="m268.75,234.81c-1.01.04-2.03.08-3.04.12-1.38-.61-2.38-1.65-3.19-2.89,2.36.32,4.72.64,7.08.96.12.28.19.58.22.88-.36.31-.71.62-1.07.93Z"/>
      <path class="cls-326" d="m109.8,137.86c1.61,2.3,5.16,2.44,6.11,5.48-2.8-1.52-5.6-3.04-8.4-4.57.76-.31,1.53-.61,2.29-.92Z"/>
      <path class="cls-225" d="m155.51,162.95c3.02-1.05,5.03.13,6.32,2.87-2.61.15-4.22-1.91-6.32-2.87Z"/>
      <path class="cls-320" d="m122.75,146.76c2.18-1.57,3.41.82,5.11,1.24.61.52.63,1.08.11,1.68-2.03-.46-3.64-1.65-5.22-2.91Z"/>
      <path class="cls-203" d="m82.12,123.91c.63-.31,1.26-.61,1.9-.92.32.28.64.55.96.83l.06.04c.48,1.09,2.05,1.49,1.88,2.99-2.26.1-3.49-1.48-4.79-2.94Z"/>
      <path class="cls-252" d="m42.9,96.96c2.98-1.38,3.49.81,4.1,2.84-1.66-.52-3.08-1.4-4.1-2.84Z"/>
      <path class="cls-272" d="m127.97,149.68c-.04-.56-.07-1.12-.11-1.68,1.2.84,3.47.5,3.25,2.93-1.28.16-2.25-.44-3.15-1.25Z"/>
      <path class="cls-281" d="m245.08,217.76c2.81-.95,3.25,1.08,3.79,3-1.68-.48-2.87-1.56-3.79-3Z"/>
      <path class="cls-122" d="m62.69,109.7c-.23.54-.47,1.08-.7,1.62-1.1-.75-2.59-.99-3.17-2.42,1.29.27,2.58.53,3.87.8Z"/>
      <path class="cls-251" d="m256.45,227.02c2.94-1.24,2.84,1.26,3.48,2.84-1.62-.38-2.39-1.81-3.48-2.84Z"/>
      <path class="cls-182" d="m54.04,49.65c7.33,5.62,14.8,11.09,21.16,17.85,4.11,4.37,7.74,9.02,8.44,15.28-1.57,1.45-3.17,1.43-4.8.1-1.49-1-3.6-.25-4.9-1.76-1.23-1.72-3.18-2.32-4.93-3.25-5.86-4.36-10.95-9.33-13.1-16.62-.17-3.69-3.16-6.9-1.82-10.84.17-.26.16-.52-.04-.76Z"/>
      <path class="cls-36" d="m54.08,50.41c.03,3.71,2.33,7.04,1.82,10.84-2.25-3.42-2.18-7.66-3.93-11.26.35-.38.75-.46,1.21-.2.3.21.6.41.9.62Z"/>
      <path class="cls-126" d="m78.83,82.88c1.6-.03,3.21-.06,4.8-.1.8.01,1.38.38,1.69,1.13-1.99.35-3.75,1.19-5.32,2.44-.55-.14-1.09-.28-1.64-.42.16-1.02.31-2.04.47-3.06Z"/>
      <path class="cls-67" d="m78.29,85.79c-.77,2.99-3.38,2.61-5.55,3.04,1.06-2.47,3.03-3.25,5.55-3.04Z"/>
      <path class="cls-9" d="m53.18,49.8c-.4.07-.8.13-1.21.2-2.28-.55-4.87,1.05-6.93-1.02,2.68.63,5.56-.86,8.13.82Z"/>
      <path class="cls-274" d="m69,77.87c2.15.32,4.56.24,4.93,3.25-2.08-.42-3.74-1.48-4.93-3.25Z"/>
      <path class="cls-193" d="m71.01,90.09c-.24,1.81-1.28,2.77-3.09,2.9.15-1.91,1.33-2.72,3.09-2.9Z"/>
      <path class="cls-7" d="m65.07,97c-.03,3.16-.45,6.23-2.1,9.01-.76-1.35-.74-2.71-.02-4.07.43-1.76.57-3.65,2.12-4.94Z"/>
      <path class="cls-286" d="m62.96,101.94c0,1.36.01,2.71.02,4.07-.06.65-.12,1.3-.19,1.94-1.21-2.04-1.39-4.05.17-6.02Z"/>
      <path class="cls-146" d="m232.82,333.82c-.65.67-1.29,1.35-1.94,2.02-.38-.03-.75-.06-1.13-.09-4.6-.75-9.2-.7-13.8-.03-2.67-1.32-5.55-.88-8.35-.89-10.8-.03-21.6-.01-32.41-1.02h57.62Z"/>
      <path class="cls-179" d="m133.55,377.72c.05-13.95.09-27.9.14-41.84,1.26.67,1.21,1.86,1.21,3.03,0,11.96,0,23.93,0,35.89,0,1.18,0,2.36-1.35,2.92Z"/>
      <path class="cls-177" d="m117.96,296.09h14.7c0,.15,0,.3,0,.45h-14.7v-.45Z"/>
      <path class="cls-178" d="m215.96,335.73c4.6-1.41,9.2-1.47,13.8.03-4.6-.01-9.2-.02-13.8-.03Z"/>
      <path class="cls-121" d="m250.92,81.91c-.02-1.94-.04-3.88-.06-5.82,1.48,1.93,1.51,3.86.06,5.82Z"/>
      <path class="cls-319" d="m206.01,93.94c-.41,1.6-.82,3.2-1.23,4.79-1.95,1.14-3.9,1.05-5.87.05-1.95-2.66-1.68-5.99-2.71-8.92-.38-.86-.76-1.72-.85-2.82-.97,2.72-.99,5.34-1.07,7.99-.04,1.49.95,3.39-1.15,4.41-1.31-.2-2.85.52-3.8-1-.61-7.83-1.25-15.66.85-23.39,7.37.13,7.22.17,8.99,7.43.45,1.84,0,3.98,1.47,5.56,1.15.14.07,2.86,2.18,1.89h0c.95-3.67,1.58-7.41,2.84-10.99.62-4.22,3.76-3.96,6.72-3.58,3.27.42,2.29,3.16,2.28,5.1-.03,4.76-.23,9.54-.3,14.29-.06,4.51-1.8,4.98-5.3,4.14-1.43-1.5-.4-3.35-.72-5,.02-2.42.42-4.82.36-7.24,0-.25-.16-.54-.43-.68.3.4.38.86.38,1.36-.24,2.47-1.25,4.63-2.66,6.62Z"/>
      <path class="cls-128" d="m166.16,75.07c5.13.02,10.27.04,15.4.07,1.68,0,3.5-.17,3.44,2.35-.06,2.56-2,2.16-3.6,2.18-2.65.03-5.3,0-7.95-.03-1.36-.01-2.2.47-2.24,1.98-.05,1.51.29,2.64,2.1,2.65,2.48,0,4.97.03,7.45.03,1.69,0,3.01.51,2.92,2.49-.07,1.74-1.34,2.08-2.8,2.05-1.82-.03-3.65.05-5.46-.1-4.36-.36-5.35,1.43-3.48,5.19,3.21,1.18,6.53.3,9.8.52,1.82.13,3.76-.24,3.66,2.64-.09,2.5-1.74,2.36-3.43,2.35-4.46,0-8.93-.05-13.39.02-1.85.03-3.49-.3-3.54-2.45-.16-6.93-.55-13.86.22-20.78.06-.53.56-.8.89-1.15Z"/>
      <path class="cls-329" d="m106.95,86.81c-1.09-9.54,8.18-15.34,17.08-11.73,1.43.58,2.63,1.43,3.56,2.61,1.11,1.4,2.77,3.25,1.15,4.71-1.44,1.29-3.85,1.06-5.2-.95-1.71-2.55-3.97-3.57-6.8-2.39-4.24,1.77-3.99,5.56-3.95,9.29.04,3.08,1.58,5.07,4.28,6.03,2.44.87,4.64.06,6.01-2.2,1.37-2.27,3.62-3.15,5.34-1.58,1.78,1.62-.12,3.68-1.34,5.16-2.77,3.35-8.47,4.36-13.3,2.44-5.16-2.04-7.13-6.05-6.84-11.4Z"/>
      <path class="cls-321" d="m144.95,81.74c2.38-2.25-1.49-7.23,3.81-6.64,4.23.47,1.82,4.27,1.99,6.45.38,4.79.1,9.63.05,14.45-.01,1.28.1,3.36-1.71,2.82-3.63-1.07-7.06.68-10.55.18-4.12-.58-6.44-4.14-6.31-9.31.13-5.24,2.54-8.38,6.84-8.86,2.16-.24,4.25.1,5.87.9Z"/>
      <path class="cls-170" d="m166.16,75.07c-.88,7.1-.15,14.23-.43,21.33-.07,1.92.82,2.63,2.68,2.6,4.64-.06,9.28-.02,13.92-.02,1.4,0,2.67-.1,2.75-1.99.11-2.25-1.4-2.15-2.96-2.29-3.39-.3-6.89.87-10.17-.79,3.81,0,7.63.03,11.44.02,1.55,0,2.68.69,2.8,2.21.11,1.45-.07,3.61-1.78,3.58-6.52-.12-13.14,1.49-19.56-.83-.74-7.97-.74-15.95,0-23.92.44.03.87.06,1.31.09Z"/>
      <path class="cls-170" d="m190.19,75.05c-.97,7.97-.49,15.95-.33,23.93.36.22.48.43.36.65-.12.22-.24.32-.36.32-.49-.43-1.39-.83-1.42-1.29-.5-7.95-2.11-15.99,1.75-23.61Z"/>
      <path class="cls-130" d="m157.14,80.97c.3-1.71-5.76-5.51,1.23-6.02,2.42-.17,2.7,1.51,2.42,3.27-.34,2.08-.94,4.27-3.37,4.76-1.63.33-1.58-.61-.28-2.02Z"/>
      <path class="cls-223" d="m193.83,98.93v-15.38c.45-.02.91-.03,1.36-.05.73,2.04,2.7,3.8,1.01,6.37-2.52,2.72-.56,6.11-1.34,9.09-.35.36-.7.35-1.03-.03Z"/>
      <path class="cls-314" d="m164.85,74.98c0,7.97,0,15.95,0,23.92-1.6-7.98-1.61-15.95,0-23.92Z"/>
      <path class="cls-138" d="m233.59,105.12v20.72c-.16,0-.33,0-.49,0v-20.61c.16-.04.33-.08.49-.12Z"/>
      <path class="cls-139" d="m84.97,123.82v-20.78c.4,6.94,2.04,13.91.06,20.82,0,0-.06-.04-.06-.04Z"/>
      <path class="cls-196" d="m91.4,78.93c3.12-4.08.53-7.98-.36-11.94,4.58,3.55,4.77,9.75.36,11.94Z"/>
      <path class="cls-139" d="m209.87,124.91c0-6.98,0-13.95,0-20.93,1.57,6.98,1.58,13.95,0,20.93Z"/>
      <path class="cls-137" d="m170.84,147.96c-.52,6.95,1.15,14.01-.94,20.89.5-6.95-1.17-14.01.94-20.89Z"/>
      <path class="cls-227" d="m205.68,78.95c-.51,3.77-1.27,7.48-2.84,10.98-.06-3.92.54-7.67,2.84-10.98Z"/>
      <path class="cls-108" d="m82.98,101.73c-1.73.09-3.45.18-5.18.27-.61.55-1.21.53-1.81-.02,1.29-1.11-.77-3.02.95-4.03.32-.49.65-.48.98-.01.04.67.09,1.35.13,2.02,1.41,1.24,3.42-.26,4.81,1.04.05.24.08.48.11.73Z"/>
      <path class="cls-145" d="m136.89,100.26h7.37c-3.05.77-4.65,2.55-7.37,0Z"/>
      <path class="cls-190" d="m206.01,93.94c.63-2.32,1.25-4.64,1.88-6.96,2.2-.05,1.16,1.62,1.4,2.61-.42,1.14-.44,2.46-1.46,3.34-.6.34-1.21.67-1.81,1.01Z"/>
      <path class="cls-312" d="m114.95,100.6c2.31-1.06,4.62-.48,6.94-.3-2.31,1.07-4.62.49-6.94.3Z"/>
      <path class="cls-318" d="m207.83,92.93c.07-1.01-.2-2.11.77-2.89,1.19.88.7,1.99.41,3.06.02,1.93.05,3.85.07,5.78-2.25-1.6-.81-3.98-1.26-5.96Z"/>
      <path class="cls-229" d="m77.92,97.94c-.33,0-.66,0-.98.01.2-1.36-.45-2.8.43-4.08.46.36.93.72,1.39,1.08-.28,1-.56,2-.84,2.99Z"/>
      <path class="cls-310" d="m238.96,66.03c1.31,2.28,1.28,4.56.03,6.85-.01-2.28-.02-4.56-.03-6.85Z"/>
      <path class="cls-227" d="m202.84,89.94c-.04.68-.37,1.64-.93,1.44-1.56-.54-.73-2.24-1.25-3.33.73.63,1.46,1.26,2.18,1.89Z"/>
      <path class="cls-149" d="m198.91,98.79c1.96-.02,3.91-.03,5.87-.05-1.94,1.89-3.9,1.83-5.87.05Z"/>
      <path class="cls-150" d="m82.87,101c-1.61-.31-3.56.94-4.82-1.04,1.53.67,3.67-1.41,4.82,1.04Z"/>
      <path class="cls-143" d="m193.83,98.93c.34,0,.69.02,1.03.02-1.4,1.69-3.32.77-5.01,1,0-.32,0-.65,0-.97,1.33-.02,2.65-.04,3.98-.05Z"/>
      <path class="cls-313" d="m186.36,79.12c-.69-1.04-.6-2.05-.04-3.41.73,1.31.78,2.31.04,3.41Z"/>
      <path class="cls-174" d="m269.86,196.91c-.05,4.65-.09,9.3-.14,13.95-1.42-4.66-1.63-9.32.14-13.95Z"/>
      <path class="cls-166" d="m97.75,15.77h-16.71c0-.16,0-.32,0-.49h16.6c.04.16.08.32.12.49Z"/>
      <path class="cls-78" d="m72.86,43.93c-.31.69-.61,1.39-.92,2.08-2.27-.68-3.84-2.3-5.41-3.95.79-.27,1.59-.54,2.38-.81.96.33,1.16,1.59,2.2,1.82.58.29,1.16.57,1.74.86Z"/>
      <path class="cls-317" d="m71.12,43.07c-2.23,1.2-1.57-1.1-2.2-1.83.66-.48,1.32-.97,1.98-1.46,1.71.99.16,2.19.22,3.29Z"/>
      <path class="cls-135" d="m90.83,37c-.23-.29-.46-.57-.69-.86,1.57,0,3.14,0,4.71,0,0,.75-.02,1.48-.84,1.85-1.14-.08-2.25-.26-3.19-1Z"/>
      <path class="cls-151" d="m90.83,37c1.18-.04,2.44-.34,3.19,1-1.02,1.33-2.06.51-3.09.01-.03-.34-.06-.68-.09-1.02Z"/>
      <path class="cls-247" d="m75.99,101.98c.61,0,1.21.01,1.81.02-.17,1.8-.47,3.52-2.66,3.97.28-1.33.56-2.66.84-3.99Z"/>
      <path class="cls-125" d="m74.95,109.76c-.27,1.78.92,3.93-1.3,5.23.44-1.74-.19-3.75,1.3-5.23Z"/>
      <path class="cls-116" d="m209.02,93.11c-.14-1.02-.27-2.04-.41-3.06.14-1.11.37-2.24-.71-3.06-.07-.94-.25-1.92.92-2.73,1.33,2.99.97,5.91.2,8.85Z"/>
      <path class="cls-144" d="m146.08,89.63c-.27,3.25-1.47,5.73-4.63,5.67-2.89-.06-4.26-2.59-4.23-5.2.03-2.48.93-5.12,4.06-5.28,3.37-.17,4.32,2.33,4.8,4.8Z"/>
    </g>
  </g>
</svg>