<?xml version="1.0" encoding="UTF-8"?>
<svg id="Layer_2" data-name="Layer 2" xmlns="http://www.w3.org/2000/svg" viewBox="0 0 120.31 177.36">
  <defs>
    <style>
      .cls-1 {
        stroke-width: .33px;
      }

      .cls-1, .cls-2, .cls-3, .cls-4, .cls-5, .cls-6, .cls-7, .cls-8 {
        fill-rule: evenodd;
      }

      .cls-1, .cls-2, .cls-3, .cls-9, .cls-10, .cls-7, .cls-8 {
        stroke: #7e6a26;
        stroke-miterlimit: 2.61;
      }

      .cls-1, .cls-6 {
        fill: #7e6a26;
      }

      .cls-2 {
        stroke-width: 1.07px;
      }

      .cls-2, .cls-4 {
        fill: #a53729;
      }

      .cls-3 {
        fill: #008ed1;
      }

      .cls-3, .cls-9, .cls-7, .cls-8 {
        stroke-width: 1.93px;
      }

      .cls-4, .cls-5, .cls-6 {
        stroke-width: 0px;
      }

      .cls-5, .cls-7 {
        fill: #fff;
      }

      .cls-9, .cls-10 {
        fill: none;
      }

      .cls-10 {
        stroke-width: 2.79px;
      }

      .cls-8 {
        fill: #30358a;
      }
    </style>
  </defs>
  <g id="Layer_1-2" data-name="Layer 1">
    <g>
      <path class="cls-5" d="m73.95,30.57c.1.18.2.36.3.55.2.5.32,1.27.28,2.12-.01.27-.04.53-.08.78-1,5.55-3.41,10.01-6.48,12.07h0c.51-.41.8-.84.8-1.31,0-1.7-3.87-3.08-8.61-3.08s-8.61,1.38-8.61,3.08c0,.46.29.9.8,1.29h0c-3-2.01-5.37-6.33-6.41-11.71h0s0,0,0,0c-.02-.1-.04-.2-.06-.3-.04-.26-.07-.53-.08-.82-.04-.85.07-1.63.28-2.13.09-.18.19-.36.29-.54h0c-.06.11-.12.21-.18.32,3.66-1.7,8.57-2.74,13.97-2.74s10.31,1.04,13.97,2.74c-.06-.11-.12-.21-.18-.32h0Z"/>
      <path class="cls-4" d="m65.8,22.9h0c3.64,1.92,6.56,4.7,8.33,7.99-3.66-1.7-8.57-2.74-13.97-2.74s-10.31,1.04-13.97,2.74c1.77-3.29,4.69-6.07,8.33-7.99h0c1.39-.6,3.41-.97,5.64-.97s4.25.37,5.64.97h0Z"/>
      <path class="cls-4" d="m54.48,19.72c-.1-.44-.42-.84-.86-1.12-2.11-1.09-3.55-3.2-3.55-5.6,0-2,.99-3.79,2.54-4.97,3.03-1.96,5.57-4.15,7.54-6.52,1.97,2.37,4.52,4.56,7.55,6.53,1.54,1.18,2.53,2.96,2.53,4.96,0,2.41-1.43,4.51-3.55,5.6-.45.28-.76.68-.86,1.12-.22-1.77-2.68-3.18-5.67-3.18s-5.45,1.4-5.67,3.18h0Z"/>
      <path class="cls-2" d="m93.57,42.77c5.01,0,9.09,4.52,9.09,10.06,0,1.69-.38,3.29-1.06,4.69.07,0,.14,0,.21,0,.74,0,1.43-.12,2.01-.34.03-.02.07-.03.1-.05,1.86-.92,4.36-1.32,6.91-1.03,2.55.29,4.76,1.17,6.45,2.37,1.01.72,1.84,1.58,2.39,2.51-.55.93-1.38,1.79-2.39,2.52-1.68,1.2-3.9,2.09-6.45,2.37-2.55.29-5.04-.11-6.91-1.03-.04-.02-.07-.04-.1-.05-.58-.21-1.27-.34-2-.34-.07,0-.14,0-.22,0,.67,1.4,1.06,3,1.06,4.69,0,5.54-4.08,10.06-9.09,10.06-3.39,0-6.36-2.07-7.92-5.13,1,.69,2.22,1.1,3.55,1.1,3.33,0,6.04-2.58,6.04-5.75,0-2.96-2.37-5.41-5.39-5.72H30.46c-3.02.31-5.39,2.76-5.39,5.72,0,3.17,2.71,5.75,6.04,5.75,1.32,0,2.55-.41,3.55-1.1-1.56,3.06-4.53,5.13-7.92,5.13-5.01,0-9.09-4.52-9.09-10.06,0-1.69.38-3.29,1.06-4.69-.07,0-.14,0-.22,0-.74,0-1.43.12-2,.34-.03.02-.07.04-.1.05-1.86.92-4.36,1.32-6.91,1.03-2.55-.29-4.76-1.17-6.45-2.37-1.01-.72-1.84-1.58-2.39-2.52.55-.93,1.38-1.79,2.39-2.51,1.68-1.21,3.9-2.09,6.45-2.37,2.55-.29,5.04.11,6.91,1.03.03.02.07.03.1.05.58.21,1.27.34,2.01.34.07,0,.14,0,.21,0-.67-1.4-1.05-3-1.05-4.69,0-5.54,4.09-10.06,9.09-10.06,3.39,0,6.36,2.07,7.92,5.13-1-.69-2.22-1.1-3.55-1.1-3.33,0-6.04,2.58-6.04,5.75,0,2.96,2.37,5.41,5.39,5.72h59.38c3.03-.31,5.4-2.76,5.4-5.72,0-3.17-2.71-5.75-6.04-5.75-1.32,0-2.55.41-3.55,1.1,1.56-3.06,4.53-5.13,7.92-5.13h0Z"/>
      <path class="cls-3" d="m60.15,96.09c-13.17-9.57-22.12-26-22.87-44.78h45.74c-.75,18.78-9.7,35.21-22.87,44.78h0Z"/>
      <path class="cls-5" d="m60.15,90.49c-9.88-7.18-16.59-19.5-17.15-33.59h34.3c-.06,1.43-.18,2.84-.36,4.23h-27.87c.39,5.48,2.14,10.81,4.96,15.58,2.47,4.18,5.74,7.91,9.6,10.91-1.11,1.03-2.27,1.98-3.48,2.86h0Z"/>
      <path class="cls-5" d="m76.17,65.47c-.29,1.27-.63,2.52-1.02,3.74h-12.98c1.42,3.9,4.08,7.69,7.66,11.11-.84,1.26-1.74,2.46-2.69,3.6-1.32-1.25-2.57-2.57-3.72-3.94-3.75-4.44-6.54-9.4-8-14.51h20.75Z"/>
      <path class="cls-2" d="m62.71,94.09v5.91l10.76,7.52-13.32,69.73-13.32-69.73,11.1-7.77v-5.38c.72.59,1.46,1.16,2.21,1.71.87-.63,1.73-1.3,2.56-1.99h0Z"/>
      <polygon class="cls-1" points="57.94 46.93 62.71 46.93 62.71 51.3 60.15 51.3 57.94 51.3 57.94 46.93 57.94 46.93"/>
      <path class="cls-8" d="m60.15,41.7c4.74,0,8.61,1.38,8.61,3.08s-3.87,3.08-8.61,3.08-8.61-1.38-8.61-3.08,3.87-3.08,8.61-3.08h0Z"/>
      <path class="cls-9" d="m65.8,20.09v2.82m0,0c3.72,1.96,6.69,4.82,8.45,8.21.2.5.32,1.27.28,2.12-.01.27-.04.53-.08.78-1,5.55-3.41,10.01-6.48,12.07m0,0h0m0-.01c.51-.39.8-.83.8-1.29,0-1.7-3.87-3.08-8.61-3.08s-8.61,1.38-8.61,3.08c0,.46.29.9.8,1.29m0,0h0m0,.01c-3-2.02-5.37-6.34-6.41-11.72m0,0h0m0,0s0,0,0,0c-.02-.1-.04-.2-.06-.3-.04-.26-.07-.53-.08-.82-.04-.85.07-1.63.28-2.13,1.76-3.39,4.73-6.25,8.44-8.21m0,0v-2.99m0,0c-.04-.53-.38-.99-.89-1.32-2.11-1.09-3.55-3.2-3.55-5.6,0-2,.99-3.79,2.54-4.97,3.03-1.96,5.57-4.15,7.54-6.52,1.97,2.37,4.52,4.56,7.55,6.53,1.54,1.18,2.53,2.96,2.53,4.96,0,2.41-1.43,4.51-3.55,5.6-.51.32-.85.79-.89,1.32m0,0v.17"/>
      <path class="cls-7" d="m65.8,20.09v2.82c-1.39-.59-3.41-.97-5.64-.97s-4.25.38-5.64.97v-2.98c0-.07-.02-.13-.03-.2.22-1.77,2.68-3.18,5.67-3.18s5.45,1.4,5.67,3.18c-.01.07-.03.13-.03.2v.17h0Z"/>
      <line class="cls-9" x1="60.15" y1="16.45" x2="60.15" y2="21.75"/>
      <path class="cls-6" d="m64.37,42.7c-.69-.13-1.43-.23-2.21-.3,1.94-.59,3.63-1.94,4.82-3.75,1.18-1.79,1.87-4.04,1.84-6.45-.03-2.81-1.02-5.32-2.58-7.13-1.54-1.79-3.66-2.9-5.99-2.92-2.33-.02-4.49,1.05-6.09,2.8-1.62,1.78-2.69,4.28-2.81,7.08-.1,2.41.51,4.67,1.63,6.49,1.13,1.84,2.78,3.22,4.7,3.84-.78.06-1.52.14-2.22.26-1.92-.91-3.53-2.38-4.61-4.18-1.08-1.79-1.65-3.91-1.54-6.14.14-2.97,1.46-5.61,3.46-7.48,1.97-1.85,4.62-2.98,7.49-2.95,2.87.03,5.48,1.21,7.39,3.1,1.93,1.91,3.16,4.58,3.21,7.54.04,2.24-.61,4.34-1.74,6.11-1.14,1.79-2.79,3.22-4.74,4.1h0Z"/>
      <line class="cls-10" x1="60.15" y1="22.36" x2="60.15" y2="41.26"/>
    </g>
  </g>
</svg>