<?xml version="1.0" encoding="UTF-8"?>
<svg id="Layer_2" data-name="Layer 2" xmlns="http://www.w3.org/2000/svg" viewBox="0 0 285.22 385.84">
  <defs>
    <style>
      .cls-1, .cls-2 {
        stroke-width: 0px;
      }

      .cls-2 {
        fill: #fff;
      }
    </style>
  </defs>
  <g id="Layer_1-2" data-name="Layer 1">
    <g>
      <path class="cls-1" d="m142.61,385.84c33.02-13.82,142.61-87.88,142.61-230.62,0-59.8-19.63-101.66-19.63-101.66h-30.94l-8.06-12.48-7.8-37.18L142.61,0l-76.18,3.9-7.8,37.18-8.06,12.48h-30.94S0,95.42,0,155.22c0,142.74,109.59,216.8,142.61,230.62Z"/>
      <path class="cls-2" d="m220.11,38.22c-1.72-8.19-5.01-23.89-6.04-28.81-7.82-.4-70.91-3.63-71.46-3.66-.55.03-63.65,3.26-71.46,3.66-1.03,4.92-4.32,20.62-6.04,28.8h155.01Z"/>
      <path class="cls-2" d="m142.61,372.69c16.02-7.9,46.89-28.08,74.49-61.43,37.28-45.04,56.18-97.54,56.18-156.04,0-46.8-12.54-82.16-17.7-95.91h-8.97s18.53,39.75,18.53,95.33c0,131.62-100.04,197.92-122.53,207.48-22.49-9.55-122.52-75.85-122.52-207.48,0-55.58,18.52-95.33,18.52-95.33h-8.97c-5.16,13.75-17.7,49.11-17.7,95.91,0,58.51,18.9,111.01,56.18,156.04,27.6,33.35,58.47,53.53,74.49,61.43Z"/>
      <path class="cls-2" d="m75.27,288.11c2.61,3.53,5.33,7.02,8.18,10.46,6.05,7.31,12.24,13.9,18.34,19.82V42.9h-26.52v245.21ZM209.95,42.9h-26.52v275.49c6.11-5.92,12.29-12.5,18.34-19.82,2.85-3.44,5.57-6.93,8.18-10.46V42.9h0Zm-79.56,299.26c4.42,3.11,8.54,5.76,12.22,7.93,3.68-2.18,7.8-4.83,12.22-7.93V42.9h-24.44v299.26Z"/>
      <path class="cls-2" d="m238.55,69.94h-1.04v169.19c10.54-26.13,15.87-54.17,15.87-83.91,0-45.24-10.16-69.59-14.83-85.28ZM31.84,155.22c0,29.74,5.33,57.78,15.87,83.91V69.94h-1.04c-4.68,15.69-14.83,40.04-14.83,85.28Z"/>
      <g>
        <path class="cls-2" d="m145.48,63.64c-1,1.7-1.51,4.73,1.79,9.44,2.11,3.01,2.75,6.49,1.59,8.64-1.15,2.13-3.79,2.5-5.81,2.44-.26,0-6.39-.29-7.52-5.56-.37-1.73-1.6-2.98-3.28-3.34-1.83-.39-3.81.36-4.92,1.87-1.2,1.64-1.19,3.81.02,5.96,2.03,3.57,1.42,4.28.09,5.83-.57.67-2.21,1.82-3.61,1.6-.96-.15-1.78-1.03-2.44-2.61-.72-1.74-2.13-2.82-3.77-2.88-1.6-.06-3.11.87-3.86,2.37-.91,1.82-.53,4.06,1.03,5.99,2.39,2.97,2.01,3.86,1.8,4.34-.6,1.41-1.4,8.49-.95,14.26.08.97-.37,1.72-.56,1.86-.98.56-1.9,2.05-4.26,6.16l-1.84,3.13c-1.15,1.88-2.2,1.95-5.06,1.9l-1.22-.02c-2.92,0-4.98,2.12-5.72,4.21-.74,2.09-.26,4.15,1.25,5.37,1.45,1.18,5.43,4.84,7.53,7.36.97,1.17,2.55,1.79,4.01,1.58.94-.13,2.69-.74,3.81-3.28,1.2-2.72,5.57-8.06,9.96-10.57,4.2-2.4,10.04-3.14,13.63.61.92.96,1.93,1.42,3.01,1.38,1.74-.07,2.86-1.45,3.53-2.27l.32-.38c.37-.34,1.95-.64,2.54-.47,1.65.47,2.88,0,3.88-.85-.13.23-.26.45-.35.74-.09.32-.13.63-.13.94,0,1.19.58,2.27,1.06,3.05.33.53.4.85.4.95h0c-.05-.02-.77.2-1.93-.08-.57-.13-2.31-.54-3.68.47-1.38,1.03-1.49,2.75-1.59,4.27l-.06.88c-.14,1.64-1.03,3.74-2.29,4.42-.27.15-1.09.59-2.77-.3-1.67-.89-3.6-1.68-5.25-.75-1.86,1.06-1.97,3.51-2.07,5.66-.09,1.99-1.18,3.83-2.66,4.46-.94.41-1.85.23-2.74-.53-.65-.56-2.64-2.27-4.84-1.65-2.25.63-3.06,3.1-3.77,5.28l-.19.58c-.09.27-.37,1.09-1.78,1.62-2.31.85-6.19.35-8.64-1.12-1.98-1.19-3.69-1.39-5.09-.6-2.39,1.35-2.4,4.81-2.4,7.11,0-.03-.03.4-.03.4-.22,3.13-.53,7.41-8.08,7.82-1.49.08-4.26.24-5.25,2.4-1.02,2.26.72,4.96,2.56,7.3,1.63,2.07,2.29,4.02,1.91,5.65-.28,1.23-1.17,2.29-2.44,2.91,0,0-.23.11-.23.11-1.89.92-3.68,1.79-4.04,3.73-.35,1.88.88,3.64,2.82,5.71.75.8,1.05,1.57.96,2.44-.2,1.84-2.08,3.66-2.74,4.12,0,0-.3.18-.3.18-.98.56-3.02,1.74-3.04,4.11-.02,2.37,1.98,4.64,6.52,7.38,1.23.74,1.36,1.13,1.36,1.13.05.58-1.7,2.66-2.64,3.78-1.33,1.58-3,3.94-2.01,6.16,1.03,2.32,4.1,2.72,6.97,2.82,5.21.16,6.96.21,8.1,6.94.53,3.12,2.01,4.09,3.15,4.35,1.7.39,3.52-.58,4.99-2.66.19-.27,1.08-.66,2.1-.42,1.57.36,2.67,1.96,3.09,4.51.21,1.3.87,5.28,3.78,6.04,1.81.48,3.8-.5,5.61-2.75.6-.75,1.14-1.01,1.26-.99,0,0,.72.26,1.54,2.6,1,2.84,2.53,4.39,4.54,4.59,2.76.28,4.93-2.26,5.53-3.26-.03.05.07-.04.31-.04.25,0,1.17.16,2.63,1.82,3.6,4.08,7.37,5.46,9.62,6.29,1.35.5,2.43,2.33,2.43,3.05,0,.05,0,.09-.01.13-.02,0-.29.32-.29.32-.54.61-1.26,1.42-1.26,2.54,0,.15.01.31.04.47.28,1.58,1.74,2.53,5.02,4.3.86.47,1.65,1.54,1.68,2.29v.07c0,.2-.06.56-.7.98-1.16.78-2.68,2-2.68,3.79,0,.04,0,.08,0,.12.08,2,1.98,3.07,3.24,3.78.58.33.77.63.81.73-.04,0-.15.11-.36.24-1.61,1-1.86,2.29-1.86,2.99,0,.02,0,.03,0,.05.03,1.94,1.81,3.26,2.87,3.88.14.09.41.38.41.6h0c0,.27-.45,1.01-2.11,1.9-1.91,1.04-2.45,2.36-2.57,3.29-.02.15-.03.3-.03.45,0,1.15.55,2.28,1.58,3.24.26.24.3.36.3.36,0,0-.06.61-1.58,1.96l-.12.11-.12.15s-1.76,2.11-6.34,3.48c-2.47.74-3.42,1.64-4.39,2.73l-.69.72c-1.28,1.14-1.81,1.62-4-.3-3.06-2.68-5.31-1.16-6.39-.42l-.51.33c-.66.37-1.19.66-3.11-1.26l-.51-.51c-2.42-2.44-4.02-4.05-7.25-5.28-.68-.26-1.14-.61-1.25-.94-.02-.07-.03-.14-.03-.22,0-.24.1-.48.21-.64.5-.75.69-1.42.69-2.02,0-1.31-.92-2.27-1.49-2.87l-.52-.56c-.15-.17-.28-.57-.28-1.05,0-.07,0-.14,0-.21.04-.52.22-.83.29-.89l.45-.37.26-.71-.06.2s.29-.56,1.46-1.56c.46-.26,1.35-.85,3.38-2.43.78-.61,1.8-.33,2.43.09,1.76,1.18,2.96,1.07,4.12.84,0,0,.02,0,.03,0,.1.18.2.38.2.38.24.54.4,1.44.4,2.04,0,.12-.03.18-.04.27-.11-.01-.18,0-.42-.09-3.56-1.23-5.38-.36-6.29.58-.99,1.04-1.24,2.61-.65,4.09.75,1.87,2.45,5.07,5.42,5.5,2.04.3,4.02-.74,5.91-3.09,0,0,.41-.46.64-.71.76.06,1.41-.16,1.92-.63,1.24-1.14,1.67-3.84,1.51-5.35.03-.05,1.02-1.84,1.02-1.84.72-2.17,1.04-7.71-2.62-10.98-2.05-1.83-2.45-2.72-2.8-3.51l-.44-.9c-1.21-2.11-3.06-1.74-4.28-1.49l-1.08.2c-1.12.17-1.48,0-2.84-.66l-.94-.45c-3.08-1.42-8.33.1-10.24,4.12-1.07,2.27-2.6,3.87-4.36,5.72l-1,1.06c-2.26,2.42-4.27,5.17-1.89,9.72.88,1.69.36,2.31-.69,3.53l-.55.66c-2.29,2.94.15,5.66,1.2,6.83,1.16,1.29,2.38,3.42,2.5,5.3.21,3.21,7.42,14.43,14.66,15,4.05.32,4.27.55,4.81,1.1l1.04.98c3.04,2.53,6.29,2.41,9.41-.36.19-.17.4-.24.64-.22.42.04.88.32,1.24.77,1.82,2.28,6.01,3.01,10.19-.13.76-.57,1.59-.82,2.03-.6,2.96,1.47,5.16-1.46,6.76-3.6,1.69-2.25,2.17-2.29,3.33-2.38,3.29-.27,3.93-1.94,4.62-4.66.21-.83.22-.88,2.41-.87h.41c.55,0,2.23,0,3.28-1.35.53-.69.73-1.5.73-2.42,0-1.11-.29-2.37-.66-3.79,0,0-.01-.07-.01-.09.29.02.6.05.6.05l1.31.15c1.94.14,3.52-.6,4.23-1.97.26-.51.39-1.05.39-1.63,0-1.3-.67-2.77-2-4.4-.46-.56-.56-.82-.59-.95.18-.13.66-.38,1.78-.58,1.55-.28,3.44-1.53,3.92-3.58.06-.26.11-.58.11-.94,0-1.12-.46-2.64-2.39-4.1-.66-.5-.71-.89-.71-1.08,0-.01,0-.03,0-.04.02-.96,1.06-2.25,2.06-2.94,1.33-.92,2.19-2.52,2.36-4.38.02-.23.03-.46.03-.7,0-2.28-1-4.62-2.75-6.37-.63-.63-.75-1.12-.75-1.46,0-.05,0-.1,0-.14.07-.85.85-1.82,1.59-2.34,1.28-.89,1.99-2.14,1.99-3.49,0-.14,0-.27-.02-.41-.23-2.09-2.03-3.82-5.51-5.27-.42-.18-1.12-.47-1.12-1.74,0-.39.06-.87.22-1.46.16-.59.3-1.26.3-1.94,0-.71-.16-1.42-.62-2.05-.97-1.33-2.58-1.41-4.28-1.49l-.55-.03c-.79-.04-1.59-.6-1.92-1.32-.1-.22-.15-.44-.15-.66,0-.42.17-.85.52-1.28.32-.41,1.15-1.46,1.15-2.69,0-.34-.06-.7-.22-1.06-.72-1.68-2.63-1.87-4.17-2.02l-1.54-.22c-1.89-.58-2.75-1.11-2.75-2.42,0-.31.05-.67.14-1.09.17-.73.3-1.48.3-2.19,0-.79-.17-1.53-.64-2.15-.85-1.12-2.12-1.18-2.96-1.21l-1.06-.13c-.41-.12-1.65-1.12-2.18-2.75-.16-.49-.24-.98-.24-1.48,0-1.19.46-2.4,1.36-3.61.52-.69.78-1.52.78-2.32,0-.84-.29-1.66-.86-2.27-.46-.49-2.17-1.93-5.13-.01-.91.56-5.05.1-6.31-1.43-.17-.2-.6-.73.77-2.2,1.37-1.47,1.92-2.96,1.63-4.45-.32-1.7-1.68-3.08-4.14-4.25-.77-.37-1.07-.86-1.05-1.04.03-.24.78-1.24,3.91-1.87,3-.6,3.52-2.4,3.6-3.15.21-1.88-1.23-3.66-3.97-4.89-.67-.3-.77-.89-.68-1.13.08-.2.69-.32,1.73.06,2.45.88,4.27.72,5.43-.48.71-.74.97-1.66.97-2.61,0-1.17-.39-2.38-.78-3.4-.01-.06-.05-.23-.05-.48,0-.61.2-1.65,1.34-2.48,2.72-1.97,3.08-1.48,3.73-.59,1.49,2.04,4.55,2.68,6.68,1.38.89-.54,3.57-2.7.98-7.89-.87-1.75-.83-3.3.1-4.26,1.06-1.09,3.47-1.57,6.46-.17,2.02.94,4.37.51,5.59-1.04.66-.84,1.89-3.17-.98-6.75-.92-1.15-.5-2.75.2-3.86,1.09-1.72,3.57-3.44,6.97-2.63,2.61.62,5.88.24,7.33-2.02,1.35-2.1.68-4.89-1.98-8.27-1.23-1.58-1-2.6-.92-2.94.66-2.86,5.79-5.33,7.48-6.15l.53-.26c1.28-.64,3.43-1.72,3.45-3.92.01-1.94-1.62-3.63-5.48-5.64-1.54-.8-3.85-3.21-3.93-5.82-.06-2.05,1.3-3.93,4.06-5.58,2.3-1.38,2.67-4.33,1.56-6.22-1.01-1.74-3.3-2.79-6.12-1.19l-.71.4c-3,1.71-3.63,2.07-6.05.7-1.13-.64-1.86-2.18-1.82-3.84.02-.85.31-2.95,2.52-4.05,1.84-.92,3.05-2.79,3.16-4.86.1-1.95-.8-3.76-2.33-4.73-1.07-.68-3.4-1.53-6.98.39-3.22,1.73-5.8,2.32-7.08,1.62-1.07-.58-1.41-2.25-1.51-3.54-.08-.98.8-2.07,2.59-3.25,2.64-1.73,2.88-4.49,1.74-6.33-1.21-1.96-4.13-3.09-7.16-1.33,0,0-.43.26-.43.26-4.94,3.05-8.02,3.04-9.99,0-.04-.07-1.84-3.26-.72-9.26.69-3.67.29-6.52-1.17-8.48-1.17-1.57-2.93-2.49-5.23-2.73-2.28-.24-4.36.74-5.44,2.55Z"/>
        <path class="cls-1" d="m102.71,127.02c3.34,0,5.92.52,7.98-2.83,1.82-2.95,4.51-8.11,5.41-8.62.9-.52,1.67-2.06,1.54-3.73-.44-5.65.39-12.35.77-13.26.39-.9,1.16-2.44-2.06-6.43-3.22-3.99,1.67-7.21,3.22-3.47,2.64,6.37,7.85,3.34,9.39,1.54,1.54-1.8,2.83-3.35.13-8.11-2.7-4.76,3.73-6.69,4.5-3.09,1.48,6.91,9.4,7.13,9.4,7.13,9.27.28,10.34-7.87,5.91-14.21-4.44-6.34-1.2-9.2,1.81-8.88,2.9.3,5.92,2.06,4.65,8.86-1.29,6.94,1.01,10.7,1.01,10.7,4.19,6.5,11.64,1.24,13.09.39,3.77-2.19,6.73,2.06,3.33,4.28-1.42.93-3.67,2.67-3.49,5.07.46,5.78,4.17,7.47,11.52,3.52,6.53-3.5,8.2,3.73,4.32,5.67-4.96,2.48-4.44,9.35-.79,11.41,3.64,2.06,5.07.95,8.71-1.11,3.64-2.06,4.93,2.55,2.55,3.98-9.18,5.51-3.67,12.97-.02,14.88,6.79,3.54,4.28,4.91,2.06,6.02-2.21,1.11-12.98,5.7-7.76,12.36,5.23,6.65,0,7.92-3.32,7.13-7.31-1.73-12.36,5.7-9.19,9.67,3.17,3.96.16,5.86-2.22,4.75-6.68-3.12-12.2,1.11-9.19,7.13,3.01,6.02-2.54,6.81-4.27,4.44-1.75-2.37-3.65-1.9-6.5.16-2.85,2.06-2.06,5.07-2.06,5.07,2.08,5.2-.79,4.91-3.01,4.12-4.88-1.74-5.7,3.33-2.54,4.76,3.17,1.42,3.96,3.64.79,4.28-7.1,1.42-6.33,5.23-3.32,6.65,3.01,1.42,4.12,3.17,1.9,5.54-5.46,5.86,5.39,8.4,8.08,6.66,2.69-1.75,3.48.47,2.53,1.74-4.11,5.48,0,10.3,2.06,10.93,2.06.63,3.96-.79,3.01,3.33-.94,4.12,1.9,5.23,3.96,5.86,2.06.63,6.18-.16,3.81,2.85-2.38,3.01.15,6.34,3,6.49,2.85.16,4.12,0,3.33,3.01-.8,3.01.15,4.75,2.06,5.54,5.46,2.28,4.75,4.6,3.16,5.71-1.58,1.11-3.96,4.12-1.11,6.97,2.85,2.85,2.69,6.97.63,8.4-2.06,1.42-4.59,4.91-1.42,7.29,3.16,2.38.95,4.75-.79,5.07-1.75.32-5.23,1.26-2.38,4.75,2.85,3.49,1.27,4.91-.95,4.75-2.22-.16-4.91-1.27-3.96,2.37.95,3.65.95,5.07-1.43,5.07s-4.12-.16-4.75,2.38c-.64,2.53-.95,3-2.85,3.16-1.91.16-2.85.63-4.76,3.17-1.9,2.53-3,3.65-4.28,3.01-1.26-.64-2.85-.16-4.11.79-3.14,2.35-6.18,2.06-7.44.48-1.27-1.59-3.33-2.06-4.75-.79-2.76,2.45-4.91,1.9-6.81.32-1.9-1.58-.95-2.06-6.97-2.54-6.02-.47-12.68-10.77-12.83-13.15-.16-2.37-1.58-4.91-3.01-6.5-1.42-1.58-2.22-2.85-1.11-4.28,1.11-1.43,3.17-3.01,1.43-6.34-1.74-3.33-.64-5.07,1.58-7.44,2.22-2.38,4.28-4.28,5.7-7.29,1.42-3.01,5.54-4.12,7.6-3.17,2.06.95,2.85,1.58,4.91,1.27,2.06-.32,2.69-.79,3.33.31.63,1.11.63,2.22,3.64,4.92,3.01,2.7,2.53,7.45,2.06,8.87-.48,1.42-1.27,1.26-1.11,2.69.16,1.43-.47,3.96-1.26,3.81-.79-.16-1.11-.16-2.38,1.43-4.55,5.68-7.28-.32-7.92-1.9-.63-1.58.32-3.49,4.44-2.06,4.12,1.42,3.17-3.48,2.53-4.91-.63-1.42-1.11-1.74-2.06-1.58-.95.16-1.59.48-3.01-.48-1.43-.95-3.33-1.11-4.75,0-2.78,2.16-3.33,2.38-3.33,2.38-1.92,1.6-2.15,2.48-2.15,2.48-1.3,1.01-1.44,3.75-.29,5.05,1.15,1.3,2.02,1.73,1.15,3.03-.86,1.3-1.01,3.61,2.02,4.76,3.03,1.15,4.33,2.59,7.07,5.34,2.74,2.74,4.19,2.31,5.49,1.59,1.3-.72,2.31-2.17,4.62-.15,3.63,3.17,5.34,1.44,6.63.29,1.3-1.16,1.44-2.16,4.33-3.03,5.38-1.61,7.33-4.16,7.33-4.16,2.98-2.63,2.55-4.13,1.32-5.27-1.23-1.14-1.5-2.63.61-3.77,5.01-2.71,2.81-5.35,1.75-5.97-1.05-.61-3.07-2.19-.96-3.51,2.1-1.31,1.48-3.24-.53-4.38-2.02-1.14-3.59-2.19-.44-4.3,3.17-2.11.97-5.61-1.13-6.75-5.18-2.8-4.39-2.89-2.9-4.65,1.41-1.66-.79-5.35-3.16-6.23-2.17-.8-5.61-2.02-8.95-5.79-3.33-3.78-5.62-2.36-6.14-1.49-.53.88-4.3,5.26-6.49-.97-2.19-6.23-5.18-3.51-6.23-2.19-1.06,1.31-4.65,5.09-5.88-2.37-1.23-7.46-7.28-7.02-8.77-4.91-1.49,2.11-3.86,3.24-4.56-.87-1.38-8.08-4.39-8.42-10-8.6-5.61-.18-6.84-1.75-3.51-5.7,3.33-3.95,4.56-5.62.79-7.9-9.48-5.73-4.21-7.54-3.07-8.33,1.14-.79,6.06-5.35,2.11-9.56-3.95-4.21-2.37-4.83.88-6.41,3.24-1.58,5.7-5.88,1.23-11.58-4.47-5.7-2.02-6.31,1.23-6.49,9.83-.53,9.75-7.14,10-10.17,0-2.9.09-7.46,4.47-4.83,4.06,2.43,11.84,2.9,13.33-1.58,1.03-3.11,1.84-6.58,5.62-3.33,3.77,3.24,8.47-.44,8.68-5.35.18-3.95.62-5.26,4.39-3.25,5.24,2.81,7.72-2.63,7.98-5.7.22-2.54-.08-4.56,2.9-3.86,2.98.7,5.7-.61,3.68-3.86-1.41-2.25-.62-2.98.44-3.51,1.05-.53,2.22-2.03,1.58-4.03-.62-1.93-3.07-1.41-3.95.17-1.49,2.68-2.46,2.98-3.68,2.63-1.23-.35-3.68.09-4.56,1.05-.87.97-2.11,3.16-3.95,1.23-4.29-4.49-11.14-3.77-16.05-.96-4.91,2.81-9.47,8.51-10.79,11.49-1.31,2.98-3.6,2.28-4.47,1.23-2.19-2.62-6.22-6.35-7.81-7.63-2.06-1.67-.12-6.05,3.23-6.05Zm54.34-35.46s-5.7,5.82-8.43,10.6c0,0-2.16,3.3,1.71,5.13,3.87,1.82,4.33,2.85,7.41-.23,3.07-3.08,4.9-4.67,6.49-7.29,1.6-2.62.46-2.85-.56-4.33-1.03-1.48-1.03-7.97-6.61-3.87Zm16.15,20.29c-5.6,3.67-5.28,3.74-9.47,7.72-2.3,2.18-.23,6.49,4.42,4.6,2.23-.9,3.98-1.57,6.09-2.05,1.6-.37,2.84-.48,4.48-1.65,2.15-1.54.79-2.47-.5-3.65-1.85-1.7-1.55-1.72-2-3.99-.31-1.59-1.95-1.68-3.03-.98Zm-.77-7.12c-.62-.25-1.73.2-2.92-1.02-1.59-1.64-2.9-.86-4.59.27-1.57,1.05-6.2,5.29-6.98,8.7-1.03,4.5,1.85,5.78,4.89,3.88,3.15-1.96,8.99-7.31,8.99-7.31,2.92-2.36,1.39-4.2.62-4.51Zm-6.2,26.54c2.61,1.43,7.44,1.41,10.73,3.18,2.85,1.53,4.09,1.73,4.71.74.62-.99,1.23-1.11,2.47-1.73,1.24-.62,1.61-1.86.75-2.85-.87-.99-.89-.55-1.24-2.47-.4-2.21.37-3.46-4.09-3.21-4.46.25-13.26,2.25-13.26,2.25-1.11.37-3.62,2.14-.07,4.09Zm-3.2,2.5c-1.76,0-2.41,1.2-2.49,2.92-.15,3.9,1.2,2.55,4.47,4.26,3.26,1.7,4.11,2.98,7.09,5.81,2.98,2.84,8.96-2.58,6.38-6.32-2.68-3.89-7.3-4.82-11.47-5.64-.78-.16-2.29-1.03-3.99-1.03Zm-9.98,8.96c1.64,4.57,7.14,9.05,7.68,9.41.78.52,1.64,1.03,2.33,2.42,2.38,4.77,4.09,1.11,4.32.26.26-1.01-.12-1.71.69-2.68.97-1.17,1.48-2.42.17-3.28-.55-.36-1.38-.52-2.5-1.81-2.89-3.35-9.76-7.51-9.76-7.51-.6-.35-4.58-1.38-2.93,3.19Zm-7.15,9.72c1.34,1.48,4.72,5.93,6.6,9.84,1.89,3.91,5.12,1.89,5.94,1.08.81-.81.99-2.22.39-3.08-.67-.96-1.3-1.11-1.88-2.86-1.59-4.82-2.03-5.94-2.96-7.28-.65-.94-.56-.59-1.75-2.7-1.46-2.57-4.59-.81-4.59-.81-3.77,1.62-3.09,4.31-1.75,5.8Zm-9.2.15c-1.23,1.23-1.58,2.63-3.86,3.51-2.28.88-3.16,2.98-1.23,4.21,1.93,1.23,5.26,4.03,9.13,8.42,3.86,4.39,5.44,1.05,6.84.35,1.4-.7,2.63-2.81.7-4.39-6.08-4.98-8.77-11.22-8.77-11.22-.35-1.58-1.58-2.11-2.81-.88Zm-24.71,15.21s6.68,8.02,12.79,11.35c1.94,1.06,1.74.59,3.24,2.16,1.59,1.67,7.51,4.86,9.73,2.7,2.28-2.22,2.55-4.14,0-6.85-2.27-2.42-3.24-4.14-4.86-7.03-1.62-2.88-6.03-5.61-7.2-7.93-.81-1.6-2.34-5.04-5.23-.72-2.88,4.32-10.68-.48-8.46,6.3Zm-8.71,1.47c-1.21,1.96-1.34,2.39-2.78,4.02-5.84,6.61,9.57,13.3,12.15,14.16,2.58.86,6.79,3.51,6.79,3.51,9.56,4.93,10.04-2.66,6.37-4.34-3.51-1.61-9.85-5.79-12.45-9.85-2.61-4.06-7.5-11.72-10.09-7.51Zm-7.56,14.92c.38,1.82.67,2.2,0,4.69-1.45,5.41.38,5.74,2.87,6.22,2.49.48,3.43,1.1,7.75,2.3,14.54,4.02,14.64,3.92,15.12.95.24-1.51-1.15-2.01-2.49-2.11-11.01-.78-20-12.53-20-12.53-.86-1.82-3.63-1.34-3.25.48Zm-2.58,15.69c.76,1.82.67,4.11-.86,6.31-1.53,2.2-2.29,4.69,2.2,4.21,4.5-.48,13.68.77,18.18.86,4.59.1,4.21-1.14,4.59-2.49.36-1.25-.57-2.58-1.72-2.87-1.82-.45-4.11-.29-6.02-1.24-1.76-.88-6.6-4.02-8.61-4.3-2.01-.29-4.5-2.1-4.5-2.1-1.72-1.25-4.02-.2-3.25,1.62Zm22.2,14.16c-2.3.77-3.54.96-9.95.29-3.74-.39-7.56-.57-9.09,1.43-1.13,1.48-2.87,5.45.09,8.23,6.32,5.91,21.43-6.51,21.43-6.51,1.82-1.82-.19-4.21-2.49-3.45Zm-9.76,19.6c2.27,1.86,7.95.21,9.7-1.65,1.76-1.86,7.95-6.71,10.01-7.33,2.07-.62,2.07-2.89,1.03-3.61-1.03-.72-2.89-.2-3.92.52-1.03.72-2.79.93-5.67,1.55-2.89.62-9.53,4.53-10.01,4.75-2.48,1.14-3.4,3.92-1.13,5.78Zm31.15-10.5c-7.18,4.77-13.64,5.92-16.9,9.81-2.78,3.31.22,10.37,4.73,6.37,13.64-12.07,13.34-11.17,15.26-12.89,2.72-2.44-.06-5.3-3.08-3.29Zm-6.46,16.06c-.74,1.49.2,3.15.43,3.41.21.24,1.92,2.37,3.87-.21,2.28-3.01,10.11-8.46,13.78-12.38,2.36-2.52.43-3.98,0-4.27-.44-.3-2.15-.46-4.16,1.32-1.8,1.58-13.3,10.93-13.91,12.14Zm7.78-147.02c-.82-.58-1.94-.21-2.12-.11-.17.1-1.65.85-.29,2.24,1.58,1.61,4.03,6.66,6.02,9.17,1.27,1.61,2.37.66,2.6.44.23-.22.51-1.18-.34-2.52-.77-1.2-5.19-8.74-5.86-9.22Zm-5.43,2.87c-.82-.58-1.94-.21-2.12-.11-.16.09-1.65.85-.3,2.24,1.58,1.61,4.04,6.67,6.02,9.17,1.27,1.61,2.37.66,2.59.44.23-.22.52-1.18-.34-2.52-.77-1.2-5.18-8.74-5.85-9.22Zm1.78,16.41c.04-.94-.91-1.58-1.11-1.66-.17-.07-1.68-.78-2.12,1-.52,2.08-3.55,6.69-4.61,9.55-.69,1.84.77,2.15,1.09,2.2.32.05,1.33-.26,2.01-1.64.61-1.23,4.72-8.69,4.75-9.46Zm9.29-.48c.17-.86-.59-1.6-.75-1.7-.14-.09-1.38-.98-2.03.6-.77,1.84-4.14,5.64-5.51,8.13-.88,1.6.37,2.1.65,2.2.28.1,1.22-.04,2.03-1.21.73-1.05,5.48-7.32,5.62-8.02Zm4.57,123.62s-4.56,4.34-7.38,6.75c-2.71,2.33-.45,4.94.05,5.44.5.5,2.82,1.2,4.69-1.43,1.88-2.62,4.51-4.75,6.51-7,2-2.25,1.6-4.7.63-5.38-1-.7-2.38-.75-4.51,1.62Zm6.33,6.53s-4.75,4.97-5.97,5.97c-1.92,1.57-.83,3.88-.48,4.23.72.72,2,1.25,4.36-.92,2.35-2.17,4.22-3.82,5.71-4.94,2-1.51,1.92-3.73,1.08-5.07-.9-1.45-3.44-.73-4.7.72Zm5.66,9.49s-6.4.73-4.63,4.91c1.19,2.8,3.9,2.51,6.16.94,1.59-1.1,1.8-1.53,3.75-2.01,1.82-.45,2.07-2.53,1.39-3.28-1.16-1.28-.85-1.13-1.46-2.05-.34-.52-1.16-.67-2.41.23-1.18.86-1.13.79-2.81,1.25Zm4.18,11.41s-4.86-.38-4.08,3.29c.13.6.8,2.33,3.09,1.43,3.03-1.19,5.01-2.08,7.65-2.16,2.64-.08,3.44-2.94,1.98-4.45-.64-.65-2.33-.84-4.73.61-1.75,1.06-2.23,1.13-3.91,1.27Zm-.68,13.65s8.32-.99,10.35-.7c2.04.29,2.83-.46,3.12-2.49.29-2.03-1.46-4.36-3.35-3.78-1.89.58-6.73,1.65-8.91,1.51-2.18-.15-3.81,1.3-3.88,2.41-.08,1.32.59,3.22,2.67,3.05Zm.42,5.97c.11,1.6,1.5,2.71,3.32,2.82,2.5.15,3.51.71,5.15,1.13,1.64.41,4.7-3.09,1.23-6.01-2.48-2.09-6.41-1.22-6.41-1.22-1.36.14-3.45.93-3.29,3.29Zm-1.21,10.15c-.15,1.37.41,2.21,1.71,2.51,1.3.3,1.64-.39,3.97.13,3.2.72,3.71-.44,3.92-1.96.22-1.55-1.08-3.26-2.67-2.86-1.6.4-3.32.15-3.32.15,0,0-3.29-1-3.6,2.02Zm-.7,10.4c1.93.58,3.18,1.66,3.92,1.81,1.1.21,2.16-1.35,1.49-2.99-.48-1.2-2.78-2.19-4.02-2.34-2.94-.11-3.07,3.02-1.39,3.53Zm-3.9,4.73c1.68.82,2.66,2,3.32,2.25.97.36,2.17-.92,1.81-2.52-.26-1.17-2.22-2.43-3.33-2.75-2.68-.54-3.26,2.31-1.8,3.02Zm-5.53,3.76c1.27,1.16,1.85,2.47,2.36,2.85.76.57,2.16-.25,2.25-1.76.07-1.11-1.34-2.72-2.24-3.29-2.24-1.17-3.49,1.2-2.38,2.2Zm-6.63,3.78c1.05,1.37,1.37,2.75,1.82,3.23.66.7,2.17.15,2.54-1.33.26-1.08-.83-2.92-1.62-3.65-2-1.55-3.65.56-2.74,1.75Zm-10.82.16c-.61,4.18,2.03,3.88,3.54,3.71,1.52-.17,2.66-1.78,1.67-2.95-.69-.82-4.5-5.57-5.21-.76Zm-4.8-.84c-.87-2.22-2.82-3.19-3.8-2.22-.98.97-1.95,2.92-.98,3.9,1.95.97,3.9,1.95,4.79-1.37,0-.11,0-.21-.02-.32Zm-7.58-3.47c-.87-2.22-2.82-3.19-3.8-2.22-.98.98-1.95,2.93-.98,3.9,1.95.97,3.9,1.95,4.79-1.37,0-.1,0-.21-.02-.32Zm-5.39-5.72c-.71-1.81-2.3-2.6-3.09-1.81-.79.8-1.59,2.39-.79,3.18,1.59.79,3.18,1.59,3.9-1.12,0-.09,0-.17-.02-.25Zm-3.65-7.67c-.71-1.8-2.3-2.6-3.09-1.8-.79.79-1.59,2.38-.79,3.17,1.59.79,3.18,1.59,3.9-1.12,0-.08,0-.17-.02-.26Zm7.74-19.06c.43-2.2-1.66-3.25-2.71-2.2-1.05,1.05-3.14,3.14-2.1,5.24,2.1,1.05,5.24,0,4.77-2.73.02-.1.03-.21.04-.32Zm-6.88,7.64c.36-1.83-1.38-2.7-2.26-1.83-.87.88-2.61,2.62-1.74,4.36,1.74.87,4.35,0,3.97-2.27.02-.09.03-.18.03-.26Zm16.01-7.42c-.9-2.3-2.93-3.31-3.94-2.3-1.01,1.01-2.02,3.04-1.01,4.05,2.02,1.02,4.05,2.03,4.97-1.42,0-.11,0-.21-.02-.32Zm4.09,4.29c-.56-1.42-1.81-2.05-2.43-1.42-.62.62-1.25,1.87-.62,2.5,1.25.63,2.5,1.25,3.07-.88,0-.06,0-.13-.01-.2Zm-10.93-172.3c.22-3.83,1.74-4.95,2.97-4.23,1.23.73.98,3.61.98,3.61l2.41-.4c.6-1.04,1.51-5.03-.87-6.91-2.37-1.89-6.11-.78-7.45,1.98-1.34,2.76-.32,6.33-.32,6.33l2.29-.38Z"/>
      </g>
      <g>
        <path class="cls-1" d="m87.35,34.06l-1.37-4.97h-7.23l-1.41,4.97h-2.92l6.41-20.45h3.23l6.25,20.45h-2.95Zm-7.93-7.39h5.85l-2.87-9.88-2.98,9.88Z"/>
        <path class="cls-1" d="m93.67,34.06v-3.14h2.71v3.14h-2.71Z"/>
        <path class="cls-1" d="m112.16,27.75v.46c0,1.94-.51,3.45-1.54,4.54-1.03,1.09-2.46,1.63-4.29,1.63-.87,0-1.68-.12-2.44-.37-.75-.25-1.36-.59-1.82-1.03-.78-.71-1.33-1.74-1.65-3.08-.32-1.34-.48-3.51-.48-6.51,0-2.1.1-3.71.3-4.84.2-1.13.53-2.07,1.01-2.83.46-.76,1.13-1.34,2-1.75.87-.41,1.89-.61,3.04-.61,1.86,0,3.27.52,4.25,1.56.98,1.04,1.46,2.55,1.46,4.54h-2.88v-.3c0-1.22-.24-2.13-.73-2.73-.49-.6-1.22-.9-2.2-.9-.62,0-1.16.12-1.63.36-.47.24-.84.59-1.13,1.05-.29.46-.49,1.16-.61,2.1-.12.94-.18,2.72-.18,5.34,0,3.09.26,5.17.78,6.22.52,1.05,1.45,1.58,2.77,1.58,1.06,0,1.84-.34,2.34-1.03.5-.69.76-1.74.76-3.17v-.23h2.85Z"/>
        <path class="cls-1" d="m115.71,34.06v-3.14h2.71v3.14h-2.71Z"/>
        <path class="cls-1" d="m134.21,27.75v.46c0,1.94-.51,3.45-1.54,4.54-1.03,1.09-2.46,1.63-4.29,1.63-.87,0-1.68-.12-2.44-.37-.75-.25-1.36-.59-1.82-1.03-.78-.71-1.33-1.74-1.65-3.08-.32-1.34-.48-3.51-.48-6.51,0-2.1.1-3.71.3-4.84.2-1.13.53-2.07,1.01-2.83.46-.76,1.13-1.34,2-1.75.87-.41,1.89-.61,3.04-.61,1.86,0,3.27.52,4.25,1.56.98,1.04,1.46,2.55,1.46,4.54h-2.88v-.3c0-1.22-.24-2.13-.73-2.73-.49-.6-1.22-.9-2.2-.9-.62,0-1.16.12-1.63.36-.47.24-.84.59-1.13,1.05-.29.46-.49,1.16-.61,2.1-.12.94-.18,2.72-.18,5.34,0,3.09.26,5.17.78,6.22.52,1.05,1.45,1.58,2.77,1.58,1.06,0,1.84-.34,2.34-1.03.5-.69.76-1.74.76-3.17v-.23h2.85Z"/>
        <path class="cls-1" d="m137.58,34.06V13.61h10.21v2.24h-7.51v6.58h7.29v2.29h-7.29v7.09h7.51v2.24h-10.21Z"/>
        <path class="cls-1" d="m149.95,28.14h2.95v.37c0,1.3.24,2.25.73,2.85.48.6,1.25.89,2.3.89,1,0,1.82-.3,2.46-.89.65-.59.97-1.34.97-2.23,0-1.17-1.26-2.55-3.79-4.13-.36-.23-.64-.41-.83-.53-1.98-1.26-3.23-2.29-3.77-3.08-.54-.79-.8-1.76-.8-2.9,0-1.55.56-2.81,1.67-3.78,1.11-.97,2.57-1.45,4.37-1.45s3.26.46,4.24,1.38c.98.92,1.47,2.25,1.47,3.98v.51h-2.8v-.43c0-1.09-.25-1.92-.75-2.48-.51-.56-1.26-.85-2.26-.85-.91,0-1.68.27-2.28.8-.6.53-.9,1.19-.9,1.99,0,1.31,1.36,2.84,4.08,4.57.5.31.88.56,1.16.73,1.61,1.06,2.67,1.95,3.19,2.68.51.73.77,1.59.77,2.58,0,1.8-.54,3.2-1.63,4.18-1.09.99-2.62,1.48-4.61,1.48s-3.46-.47-4.46-1.42c-1-.94-1.5-2.35-1.5-4.22,0-.06,0-.17.01-.3,0-.14.01-.25.01-.32Z"/>
        <path class="cls-1" d="m165.71,34.06V13.61h10.21v2.24h-7.51v6.58h7.29v2.29h-7.29v7.09h7.51v2.24h-10.21Z"/>
        <path class="cls-1" d="m190.25,31.7c-.04-.66-.06-1.3-.08-1.92-.02-.62-.03-1.23-.03-1.82v-14.35h2.49v20.45h-3.65l-7.88-18.59c.07.88.13,1.63.17,2.26.04.63.05,1.16.05,1.59v14.74h-2.44V13.61h3.84l7.53,18.09Z"/>
        <path class="cls-1" d="m207.88,34.06l-1.37-4.97h-7.23l-1.41,4.97h-2.92l6.42-20.45h3.23l6.25,20.45h-2.95Zm-7.93-7.39h5.85l-2.87-9.88-2.98,9.88Z"/>
      </g>
    </g>
  </g>
</svg>