<?xml version="1.0" encoding="UTF-8"?>
<svg id="Layer_2" data-name="Layer 2" xmlns="http://www.w3.org/2000/svg" viewBox="0 0 272.84 352.83">
  <defs>
    <style>
      .cls-1 {
        fill: #f7f7f2;
      }

      .cls-1, .cls-2, .cls-3, .cls-4, .cls-5, .cls-6, .cls-7, .cls-8, .cls-9, .cls-10, .cls-11, .cls-12, .cls-13, .cls-14, .cls-15, .cls-16, .cls-17, .cls-18, .cls-19, .cls-20, .cls-21, .cls-22, .cls-23, .cls-24, .cls-25, .cls-26, .cls-27, .cls-28, .cls-29, .cls-30, .cls-31, .cls-32, .cls-33, .cls-34, .cls-35, .cls-36, .cls-37, .cls-38, .cls-39, .cls-40, .cls-41, .cls-42, .cls-43, .cls-44, .cls-45, .cls-46, .cls-47, .cls-48, .cls-49, .cls-50, .cls-51, .cls-52, .cls-53, .cls-54, .cls-55, .cls-56, .cls-57, .cls-58, .cls-59, .cls-60, .cls-61, .cls-62, .cls-63, .cls-64, .cls-65, .cls-66, .cls-67, .cls-68, .cls-69, .cls-70, .cls-71, .cls-72, .cls-73, .cls-74, .cls-75, .cls-76, .cls-77, .cls-78, .cls-79, .cls-80, .cls-81, .cls-82, .cls-83, .cls-84, .cls-85, .cls-86, .cls-87, .cls-88, .cls-89, .cls-90, .cls-91, .cls-92, .cls-93, .cls-94, .cls-95, .cls-96, .cls-97, .cls-98, .cls-99, .cls-100, .cls-101, .cls-102, .cls-103, .cls-104, .cls-105, .cls-106, .cls-107, .cls-108, .cls-109, .cls-110, .cls-111, .cls-112, .cls-113, .cls-114, .cls-115, .cls-116, .cls-117, .cls-118, .cls-119, .cls-120, .cls-121, .cls-122, .cls-123, .cls-124, .cls-125, .cls-126, .cls-127, .cls-128 {
        stroke-width: 0px;
      }

      .cls-2 {
        fill: #f6f2f6;
      }

      .cls-3 {
        fill: #f9f7f9;
      }

      .cls-4 {
        fill: #f9faf8;
      }

      .cls-5 {
        fill: #f9faf9;
      }

      .cls-6 {
        fill: #f8f6f9;
      }

      .cls-7 {
        fill: #f8f8f8;
      }

      .cls-8 {
        fill: #f8f8f7;
      }

      .cls-9 {
        fill: #f8f9f8;
      }

      .cls-10 {
        fill: #7a3b76;
      }

      .cls-11 {
        fill: #7a3c73;
      }

      .cls-12 {
        fill: #7a3c78;
      }

      .cls-13 {
        fill: #783874;
      }

      .cls-14 {
        fill: #7a3f73;
      }

      .cls-15 {
        fill: #76387b;
      }

      .cls-16 {
        fill: #76357a;
      }

      .cls-17 {
        fill: #76337c;
      }

      .cls-18 {
        fill: #773775;
      }

      .cls-19 {
        fill: #7a3a81;
      }

      .cls-20 {
        fill: #793b74;
      }

      .cls-21 {
        fill: #793977;
      }

      .cls-22 {
        fill: #793a76;
      }

      .cls-23 {
        fill: #73327a;
      }

      .cls-24 {
        fill: #73317a;
      }

      .cls-25 {
        fill: #7b3d73;
      }

      .cls-26 {
        fill: #7b3f72;
      }

      .cls-27 {
        fill: #76347b;
      }

      .cls-28 {
        fill: #9b7348;
      }

      .cls-29 {
        fill: #89575e;
      }

      .cls-30 {
        fill: #a2852e;
      }

      .cls-31 {
        fill: #966d50;
      }

      .cls-32 {
        fill: #9b7648;
      }

      .cls-33 {
        fill: #a28431;
      }

      .cls-34 {
        fill: #956956;
      }

      .cls-35 {
        fill: #a38337;
      }

      .cls-36 {
        fill: #8a508f;
      }

      .cls-37 {
        fill: #8a5763;
      }

      .cls-38 {
        fill: #834a6e;
      }

      .cls-39 {
        fill: #c4af6f;
      }

      .cls-40 {
        fill: #d1c496;
      }

      .cls-41 {
        fill: #c6a7c9;
      }

      .cls-42 {
        fill: #e2d8e3;
      }

      .cls-43 {
        fill: #c8b87c;
      }

      .cls-44 {
        fill: #dad0ab;
      }

      .cls-45 {
        fill: #dad0a5;
      }

      .cls-46 {
        fill: #dad0da;
      }

      .cls-47 {
        fill: #a471a8;
      }

      .cls-48 {
        fill: #a4823c;
      }

      .cls-49 {
        fill: #b29848;
      }

      .cls-50 {
        fill: #ad9142;
      }

      .cls-51 {
        fill: #a48730;
      }

      .cls-52 {
        fill: #a48731;
      }

      .cls-53 {
        fill: #ab8d36;
      }

      .cls-54 {
        fill: #a58933;
      }

      .cls-55 {
        fill: #a68a35;
      }

      .cls-56 {
        fill: #bfa75e;
      }

      .cls-57 {
        fill: #a98b32;
      }

      .cls-58 {
        fill: #a98b33;
      }

      .cls-59 {
        fill: #a6873a;
      }

      .cls-60 {
        fill: #a6882e;
      }

      .cls-61 {
        fill: #a6882f;
      }

      .cls-62 {
        fill: #a6862e;
      }

      .cls-63 {
        fill: #a6872f;
      }

      .cls-64 {
        fill: #a78833;
      }

      .cls-65 {
        fill: #a7892f;
      }

      .cls-66 {
        fill: #a78930;
      }

      .cls-67 {
        fill: #a7882f;
      }

      .cls-68 {
        fill: #a78830;
      }

      .cls-69 {
        fill: #a78b34;
      }

      .cls-70 {
        fill: #a88933;
      }

      .cls-71 {
        fill: #a4852e;
      }

      .cls-72 {
        fill: #864f66;
      }

      .cls-73 {
        fill: #864f64;
      }

      .cls-74 {
        fill: #86545b;
      }

      .cls-75 {
        fill: #86565d;
      }

      .cls-76 {
        fill: #93675a;
      }

      .cls-77 {
        fill: #b89c4b;
      }

      .cls-78 {
        fill: #8b5c5b;
      }

      .cls-79 {
        fill: #b9a04e;
      }

      .cls-80 {
        fill: #b89b49;
      }

      .cls-81 {
        fill: #9d7941;
      }

      .cls-82 {
        fill: #9d7a3f;
      }

      .cls-83 {
        fill: #8d566f;
      }

      .cls-84 {
        fill: #9c7a3d;
      }

      .cls-85 {
        fill: #906451;
      }

      .cls-86 {
        fill: #91664b;
      }

      .cls-87 {
        fill: #b59a3e;
      }

      .cls-88 {
        fill: #74327b;
      }

      .cls-89 {
        fill: #74337b;
      }

      .cls-90 {
        fill: #74327c;
      }

      .cls-91 {
        fill: #ba9f3a;
      }

      .cls-92 {
        fill: #977049;
      }

      .cls-93 {
        fill: #9a6f53;
      }

      .cls-94 {
        fill: #9c7943;
      }

      .cls-95 {
        fill: #9f7e3b;
      }

      .cls-96 {
        fill: #854e68;
      }

      .cls-97 {
        fill: #9f7d3c;
      }

      .cls-98 {
        fill: #875265;
      }

      .cls-99 {
        fill: #fdfdfd;
      }

      .cls-100 {
        fill: #fdfdfc;
      }

      .cls-101 {
        fill: #fdfcfd;
      }

      .cls-102 {
        fill: #7e4668;
      }

      .cls-103 {
        fill: #81476b;
      }

      .cls-104 {
        fill: #75357c;
      }

      .cls-105 {
        fill: #75347c;
      }

      .cls-106 {
        fill: #f1eddf;
      }

      .cls-107 {
        fill: #f1eee3;
      }

      .cls-108 {
        fill: #ede6ee;
      }

      .cls-109 {
        fill: #efe7d3;
      }

      .cls-110 {
        fill: #efebef;
      }

      .cls-111 {
        fill: #efecec;
      }

      .cls-112 {
        fill: #fcfbfc;
      }

      .cls-113 {
        fill: #fcfbf8;
      }

      .cls-114 {
        fill: #fbfafb;
      }

      .cls-115 {
        fill: #fbfafa;
      }

      .cls-116 {
        fill: #fafaf9;
      }

      .cls-117 {
        fill: #fbfbfa;
      }

      .cls-118 {
        fill: #fefefe;
      }

      .cls-119 {
        fill: #eee7ef;
      }

      .cls-120 {
        fill: #f0ecf1;
      }

      .cls-121 {
        fill: #f0e9f0;
      }

      .cls-122 {
        fill: #f0ede2;
      }

      .cls-123 {
        fill: #fafbf9;
      }

      .cls-124 {
        fill: #fafbfa;
      }

      .cls-125 {
        fill: #fcfcfb;
      }

      .cls-126 {
        fill: #fcfcfd;
      }

      .cls-127 {
        fill: #fcfcfc;
      }

      .cls-128 {
        fill: #f4eff4;
      }
    </style>
  </defs>
  <g id="Layer_1-2" data-name="Layer 1">
    <g>
      <path class="cls-61" d="m0,177.91c2.05-5.01,1.79-10.44,2.89-15.65,4.51-21.38,13.34-40.62,26.96-57.75,13.86-17.44,30.9-30.69,51.13-39.85,4.15-1.88,8.57-3.17,12.87-4.73,2.35-.64,4.7-1.23,7.07-1.8,1.31-.4,2.62-.8,3.93-1.2,1.56.53,1.97,1.69,1.72,3.19-.28.8-.84,1.33-1.6,1.67-26.86,6.94-49.4,20.8-67.64,41.78-16.75,19.26-26.58,41.64-30.49,66.7-.84,5.4-1.64,10.85-1.57,16.36.02,1.81.19,3.69-1,5.28-.45-.18-1.34.19-1.35.57-.08,2.69-.94,2.71-2.4.69-.29-4.42.59-8.88-.52-13.26v-2Z"/>
      <path class="cls-61" d="m247.93,265.95c-2.89,6.86-8.34,11.82-13.28,17.01-10.86,11.39-23.42,20.71-37.57,27.67-5.1,2.51-10.17,5.33-15.85,6.46-5.48,1.09-9.24,4.97-13.22,8.29-10.26,8.57-20.25,17.45-30.34,26.23-.34.3-.5.81-.74,1.22h-1c-.68-.96-1.36-1.93-2.04-2.89-1.57-3.6,2.85-2.27,3.39-4.15,4.85-5.79,11.1-10.01,16.71-14.93,2.5-2.19,5.04-4.35,7.44-6.64,6.47-6.16,13.91-10.44,22.36-13.6,24.17-9.04,43.66-24.44,58.95-45.22,1.1-1.5,1.68-3.8,4.26-3.64,1.22,1.19.94,2.72.93,4.19Z"/>
      <path class="cls-67" d="m272.84,200.9c-1.73,3.28-1.3,6.98-2,10.46-.24,1.21.32,2.63-.99,3.54-3.43-1.82-.96-4.56-.87-6.8.07-1.73.78-3.18-1.88-2.9-.71-2.19-.9-4.32.65-6.26,1.37-.14,2.42-.48,1.56-2.23-.48-.98-1.22-1.84-1.48-2.95-.6-9.28-.95-18.57-2.41-27.78-.83-5.27-2.9-10.24-3.49-15.54.41-2.1,1.43-4.09,1.21-6.33.26-.71.63-1.28,1.53-1.15,3.65,10.88,6.79,21.87,7.18,33.45.02.71.26,1.27,1,1.5v4c-.84,5-.84,10,0,14.99v4Z"/>
      <path class="cls-33" d="m126.93,13.04c-2.75-5.6,1.33-9.1,4-13.04h6c7.21,5.3,5.04,12.13,3.11,18.93-1.49,0-2.96,1.35-4.46.05-.57-.84-.65-1.77-.44-3.46-.42,1.64-.17,2.72-.86,3.54-.35.33-.74.57-1.2.73-3.05.53-4.35-1.24-5.02-3.83-.26-1.02.2-2.31-1.13-2.92Z"/>
      <path class="cls-60" d="m1.04,193.91c3.2-.49-.62-3.08,1.57-3.85.29.43.78,1.14,1.26,1.85,2.15,2.25,2.11,5.27,2.26,7.97.76,14.15,5.32,27.41,9.22,40.82.64,2.77-.1,4.14-3.18,3.15-.13-.27-.2-.56-.21-.87-1.23-3.37-2.28-6.81-3.8-10.07-4.28-9.22-5.66-19.15-7.14-29.06-.2-1.34.8-3.02-1.02-3.95v-2c1.15-1.12-.12-2.88,1.04-4Z"/>
      <path class="cls-77" d="m1.04,193.91c-.22,1.37.5,2.97-1.04,4v-17.99c2.14,4.53.45,9.35,1.04,13.99Z"/>
      <path class="cls-80" d="m272.84,196.9c-1.6-5-1.64-10,0-14.99v14.99Z"/>
      <path class="cls-30" d="m108.73,30c.04.16.07.33.12.48,1.07,2.99,1.01,8.8,5.64,1.86,1.82-2.72,5.58-2.6,8.5-3.06,3.25-.51,4.13-1.9,4.03-4.84-.11-3.12.06-6.26.1-9.39,2.6,1.15,1.76,3.75,2.13,5.67.56,2.89,1.44.17,2.1.32,1.48-.39,2.97-.39,4.47-.2,1.02.18,1.92.57,2.55,1.44.86.38-.4,2.02,1.2,1.97.01-.02.4-.27.4-.27,1.16,5.37,4.36,7.84,9.96,8.4,3.13.31,6.1,2.46,6,6.57.61,1.4,2.33,2.11,2.43,3.84,0,.68-.09,1.36-.18,2.04-.16,1.39-.08,2.84-.88,4.09-.35.35-.76.57-1.24.67-.48.02-.94-.08-1.38-.27-3.02-2.69-2.08-7.06-4.11-10.16-1.65.26-1.49,1.68-2.02,2.59-.57,4.09.02,8.19-.38,12.26-.17,1.7-.63,3.33-2.6,3.69-2.21.4-3.41-.67-3.59-2.89-.07-1.32-.04-2.64-.05-3.96.02-1.34-.1-2.67-.61-3.95.49,1.49.68,3.02.6,4.59-.3,1.95.81,4.24-1.44,5.69-2.12.08-3.49-.97-4.32-2.84-.4-1.48,0-3.07-.58-4.75.12,2.71,1.56,5.57-1.82,7.17-1.32.23-2.47,0-3.31-1.14-.82-1.42-.25-3.06-.69-4.64-.55,2.32,2.15,5.91-2.69,6.27-3.27-2.45-5.92.44-8.84,1.05-5.25-2.55-4.27-7.68-5.03-12.07-2.23-.76-2.53,1.48-3.69,2.37-1.59.69-4.02-.29-4.62,2.35-1.8-6.59-.52-13.3-.72-19.94.89-1.09,2.11-1.49,3.46-1.6.45.05.82.24,1.12.58Z"/>
      <path class="cls-66" d="m175.64,59.03c10.01,3.38,19.88,6.89,29.16,12.24,16.16,9.31,29.52,21.54,40.74,36.24,6.14,8.04,10.91,16.88,14.42,26.38-.39,1.1-1.19,1.57-2.33,1.53-2.35-.82-2.87-3.1-3.84-4.96-12-23.11-29.01-41.5-51.51-54.69-10.22-5.99-21.09-10.48-32.56-13.47-1.45-.38-2.94-.59-4.09-1.68-1.11-1.35-1.64-2.67.31-3.76.66.09,1.31.19,1.97.28,1.18,1.12,2.82-.12,4.03.79l-.04-.03c1.05.99,2.5.7,3.72,1.13Z"/>
      <path class="cls-64" d="m157.9,42.99c-.55-1.4-2.17-2.28-1.98-4.05,1.46,1.59,2.64,1.21,4.02-.27,2.58-2.75,3.55-6.11,4.15-9.66.77-.14,1.19.31,1.55.88.53,1.13,1.17,2.2,2.05,3.1-2,4.44-1.76,9.15-1.72,13.84-1.53.66-2.33,3.76-4.76,1.42-.68-1.29-1.25-2.65-2.43-3.62-.46-.46-.81-.99-.88-1.66Z"/>
      <path class="cls-70" d="m164.89,29.9c-.26-.29-.52-.59-.79-.88.09-3.04-2.79-6.01-.2-9.1,3.03-.65,5.26.47,6.8,3.09-.47,3.05-1.09,6.06-2.64,8.78-1.3-.22-2.35-.86-3.17-1.89Z"/>
      <path class="cls-32" d="m170.7,23c-2.27-1.03-4.54-2.06-6.8-3.08.3-.74.39-1.75.94-2.17,1.56-1.2,2.39-4.55,4.74-3.2,2.04,1.17,2.46,3.97,1.38,6.51-.25.58-.18,1.3-.26,1.95Z"/>
      <path class="cls-62" d="m257.42,135.07c.85-.39,1.7-.79,2.55-1.18.95,2.07,1.9,4.15,2.84,6.22.41,1.26.47,2.61,1.04,3.82.07,1.73,1.93,3.78-.88,4.99-3.73-3.87-5.59-8.48-5.54-13.85Z"/>
      <path class="cls-96" d="m161.9,47.99c1.9,1.54,2.16-2.73,4.07-1.15,0,.41,0,.82.01,1.24,1.12,2.61-.67,4.72-1.37,6.95-.53,1.71-2.03,1.17-3.22.34-1.73-1.7-2.12-3.96-2.2-6.17-.07-2.01.71-3.27,2.71-1.21Z"/>
      <path class="cls-48" d="m161.89,54.98c4.89-.21,2.75-4.58,4.09-6.9,2.17,2.93-1.33,5.85-.03,8.78-.58,1.01-.75,2.03-.05,3.06-.4,1.01-1.06,1.53-2.18,1.15-1.13-1.98-3.04-3.58-2.98-6.14.4-.37.78-.36,1.15.04Z"/>
      <path class="cls-73" d="m137.96,22.96c-.69-.35-1.37-.7-2.06-1.05-.45-.63-.27-1.38-.39-2.07.02-.38.18-.68.45-.93,1.35,1.25,2.72-3.2,4.06.02-.02,1.68-.04,3.36-.06,5.05,0,0-.1.05-.1.05-1.12.51-1.4-.48-1.9-1.07Z"/>
      <path class="cls-83" d="m164.89,29.9c1.37.11,2.95-.14,3.17,1.89-.12.4-.24.81-.36,1.21-2.26.17-3.07-.98-2.81-3.1Z"/>
      <path class="cls-58" d="m263.85,143.93c-1.33-1.01-1.94-2.21-1.04-3.82,1.4.44,1.34,1.84,1.86,2.86-.27.32-.55.64-.82.97Z"/>
      <path class="cls-57" d="m171.96,57.93c-1.39,0-3.08,1.48-4.03-.79,1.4-.02,2.95-.8,4.03.79Z"/>
      <path class="cls-57" d="m175.64,59.03c-1.63.9-2.78.25-3.72-1.13,1.21.47,2.92-.7,3.72,1.13Z"/>
      <path class="cls-71" d="m108.7,16c2.26,2.99-.35,6.02.05,9.02-.87,3.44-2.88,3.6-5.54,1.95-.16-2.38-1.92-4.51-1.11-7.04.22-3.44,3.82-2.35,5.36-4.03.43-.21.84-.17,1.23.1Z"/>
      <path class="cls-31" d="m107.89,16.02c-.17,3.89-4.93,1.03-5.78,3.92-1.91-2.63-1.37-5.35.27-7.68,1.15-1.64,2.95-2.37,3.6.7.53,1.08,1.48,1.92,1.91,3.06Z"/>
      <path class="cls-38" d="m104.87,50.96c.2-1.38-.48-2.85.35-4.09,1.64-.73,1.92,2.53,3.7,1.1,2.07-.13,1.83,1.49,2.07,2.74-.19,2.15-.97,4.04-3.31,4.35-2.07.27-2.03-1.75-2.55-3.07-.09-.35-.18-.69-.27-1.04Z"/>
      <path class="cls-34" d="m131.1,21.8c-1.43,1.58-2.43,1.67-3.02-.7-.5-2,.52-4.22-.96-6.05-.06-.67-.13-1.34-.19-2.01,2.01-2.74,1.84-.07,1.97.89.32,2.53.32,5.18,3.97,5.01.82,1.82-1.15,1.92-1.76,2.86Z"/>
      <path class="cls-30" d="m105.14,51.99c2.47,4.1,3.83,2.48,4.85-.93,1.17-1.48-.44-3.55,1.25-5.22,2.34,1.14,1.88,3.26,1.85,5.21-.53,2.74-2.32,4.53-4.51,6.03-1.89.72-2.68-.49-3.35-1.91-.03-1.06-.05-2.11-.08-3.17Z"/>
      <path class="cls-14" d="m107.9,29.97c-1.12.81-2.37,1.15-3.74,1.04-.06-.98-.12-1.96-.17-2.93,3.62-1.05,4.02-.86,3.92,1.89Z"/>
      <path class="cls-59" d="m107.9,29.97c-.36-2.59-2.25-2.01-3.92-1.9-.25-.37-.51-.74-.76-1.1,2.08.02,4.28.37,5.54-1.95,0,1.66-.02,3.31-.03,4.97-.28,0-.56,0-.83-.02Z"/>
      <path class="cls-53" d="m100.91,58.13c-2.15,1.42-4.51,2-7.07,1.8,2.2-1.2,4.42-2.35,7.07-1.8Z"/>
      <path class="cls-38" d="m105.22,55.16c.88.54,1.77,1.08,2.65,1.62.82,1.27.16,2.26-.62,3.23-.44.27-.87.24-1.28-.08-.38-1-.75-2-1.13-3,.13-.59.26-1.18.38-1.77Z"/>
      <path class="cls-59" d="m107.89,16.02c-1.31-.6-1.95-1.62-1.91-3.06,1.18.77,2.38,1.53,2.72,3.05-.27,0-.54,0-.81.01Z"/>
      <path class="cls-65" d="m12.16,243.85c.64-1.06,2.76.42,2.82-1.64,2.65-.42,2.5,2.01,3.18,3.34,13.65,27.03,33.79,47.55,60.98,61.03,1.34.67,2.65,1.47,4.09,1.84,14.86,3.89,26.16,13.35,37.03,23.51,3.99,3.73,8.75,6.62,12.02,11.12.23,1.09-.05,2.62,1.92,2.26,1.32.1,2.61.27,3.64,1.23.05,1.22-.29,1.85-1.73,1.47-1.52-.41-2.1.55-2.23,1.91-6.44-5.35-13.32-10.25-19.22-16.14-10.23-10.21-22.31-16.9-35.66-22.03-12.38-4.75-23.03-12.53-32.91-21.31-13.19-11.71-23.68-25.52-31.77-41.16-.89-1.73-1.44-3.63-2.15-5.45Z"/>
      <path class="cls-65" d="m8.16,232.91c2.71,2.81,3.27,6.44,3.8,10.07-2.13-3.03-3.37-6.4-3.8-10.07Z"/>
      <path class="cls-60" d="m267.95,205.9c.47-.83.95-1.66,1.77-3.1,1.91,4.35-1.58,8.33.12,12.1-1.68,11.2-5.56,21.69-10.26,31.93-1.92,2.48-4.11,4.81-4.64,8.09-.06.33-.15.65-.28.96-1.62.9-1.94,2.67-2.78,4.1-.01.3-.08.59-.22.86-1.95,1.19-2.48,3.43-3.76,5.12,0,0,.02-.01.02-.01-1.51-1.04-.95-2.62-1.06-4.03-.9-2.26.68-3.8,1.67-5.43,8.69-14.38,14.4-29.84,17.13-46.41.27-1.66.59-3.29,2.29-4.18Z"/>
      <path class="cls-61" d="m254.95,254.92c-.62-3.94,1.87-6.1,4.64-8.09l-4.64,8.09Z"/>
      <path class="cls-61" d="m247.91,265.96c.92-1.95-.01-5.27,3.76-5.12-.73,2.09-1.75,3.97-3.76,5.12Z"/>
      <path class="cls-61" d="m251.89,259.98c-.14-2.09.21-3.85,2.78-4.1-.65,1.56-1.14,3.22-2.78,4.1Z"/>
      <path class="cls-118" d="m267.95,205.9c-2.62,15.55-6.87,30.58-14.45,44.51-2.12,3.89-4.42,7.67-6.63,11.51-17.74,25.75-41.36,43.61-71.2,53.2-4.56,1.46-7.54,5.35-11.06,8.34-8.97,7.65-17.86,15.4-26.78,23.11-1.32-.17-2.63-.35-3.95-.52-1.58.14-2.2-.7-2.21-2.16-10.1-9.59-20.91-18.35-31.56-27.3-2.23-1.87-5.17-2.16-7.8-3.12-34.69-12.81-60.02-35.88-76.05-69.2-.35-.72-.85-1.37-1.29-2.05-5.15-12.16-8.2-24.88-9.94-37.94-.54-4.1-.79-8.25-1.17-12.37.18-29.15,7.82-55.96,24.95-79.81,17.2-23.93,39.98-40.16,67.89-49.34,2.64-.87,5.15-2.22,8.07-1.72,1.62.68,2.09,1.77,1.2,3.35-2.44,2.23-5.66,2.75-8.63,3.72-33.46,11-58.62,32.12-74.36,63.46-17.39,34.61-18.77,70.56-3.72,106.34,15.19,36.11,42.07,60.08,79.39,72.21,3.17,1.03,6.38,1.94,9.67,2.46,6.2.98,12.17,2.13,11.63,10.88.59-12.49.56-24.59.58-36.69,0-2-.12-4.01.29-5.98.32-1.53.96-3.01,2.75-3.08,1.95-.07,2.98,1.23,3.39,3.04.41,1.81.32,3.64.32,5.47.01,12.49,0,24.98.02,37.47,0,2.15-.21,4.34.53,6.49,1.28-.93.65-2.24.65-3.33.05-13.66-.03-27.31.08-40.97.02-3-.73-7.46,3.64-7.42,4.26.04,2.98,4.49,3.01,7.19.15,14.82.04,29.65.1,44.47,0,2.09-.5,4.31,1.07,6.58,1.57-2.03,1.1-4.2,1.11-6.2.05-15.16-.05-30.31.1-45.47.02-2.54-1.07-6.63,3.14-6.6,3.82.03,3.49,3.86,3.51,6.62.12,14.81-.02,29.62.1,45.67,1.47-2.86,1.15-4.77,1.16-6.58.04-12.82-.05-25.65.07-38.47.03-2.96-1.02-7.65,3.24-7.7,4.86-.05,3.33,4.91,3.39,7.87.21,10.82.06,21.65.11,32.48,0,1.57-.42,3.24,1.3,6.13-.87-8.87,4.04-10.36,10.18-11.66,50.66-10.65,91.01-53.21,98.29-104.3,6.08-42.7-6.25-79.8-36.7-110.39-15.43-15.5-34.07-26-55.31-31.68-2.51-.67-5.38-.91-6.6-3.86-.08-.57.06-1.09.4-1.56.68-.36,1.35-.73,2.03-1.09,9.12,2.66,18.26,5.26,26.86,9.4,26.94,12.98,47.58,32.48,61.23,59.22,1.12,2.19,2.29,4.35,3.43,6.53,1.85,4.62,3.7,9.24,5.54,13.85,4.12,15.05,6.27,30.36,5.98,45.99.85,1.3,1.11,2.55-.23,3.71-1.11,2.34-.84,4.82-.76,7.28Z"/>
      <path class="cls-82" d="m105.76,63.66c-.33-.87-.65-1.74-.98-2.61.4-.37.79-.74,1.19-1.11.3.05.61.09.91.13,1.38.5,2.82.69,4.29.68.64.35,1.08.86,1.31,1.55-.03,3.53-2.7,5.49-4.66,7.88-.87-.02-1.38-.54-1.77-1.25-.68-1.73-1.31-3.46-.3-5.28Z"/>
      <path class="cls-60" d="m268.71,198.62c.08-1.24.15-2.48.23-3.71,3.27,1.11,1.54,3.74,1.69,5.77.01.19-.9.71-1.06.6-.94-.62-.67-1.73-.86-2.66Z"/>
      <path class="cls-102" d="m135.96,18.91c-.01.36-.03.72-.04,1.08-1.16.42-1.79-.15-2.17-1.17-.01-.96.05-1.93-.05-2.89-.11-1.12-1.43-2.77,1-2.74,1.82.03,1.75,1.39,1.38,2.83-.23.91-.09,1.92-.12,2.89Z"/>
      <path class="cls-78" d="m131.25,4.11c1.08.19,1.63.69,1.49,1.66-.19,1.29-1.03,2.04-2.3,2.05-.91.01-1.46-.63-1.34-1.6.17-1.33,1.12-1.85,2.15-2.11Z"/>
      <path class="cls-90" d="m133.75,18.82c.72.39,1.45.78,2.17,1.17,1.14.65.11,1.28-.02,1.92-1.6-.04-3.2-.07-4.8-.11-.33-1.52,1.36-1.79,1.77-2.86.29-.04.59-.08.88-.12Z"/>
      <path class="cls-76" d="m138.77,7.72c-1.16-.25-2.05-.98-2.3-2.13-.15-.68.61-1.18,1.29-1,.91.24,1.93.59,2.04,1.77.07.67-.13,1.29-1.03,1.37Z"/>
      <path class="cls-27" d="m147.89,39.91c.72-1.22,1.02-3.31,2.57-3.21,2.03.13,1.56,2.53,2.08,3.92,1.01,2.7,1.63,5.55,2.42,8.34.52.59.63,1.26.45,2.01-.43,1.11-1.25,2.01-1.76,3.07-.67,3.53-.75,7.04.17,10.54,1.27,4.02,4.88,7.02,5.1,11.51-.29,1.87-.61,3.72-2.94,4.13-3.72-5.28-7.35-10.62-9.31-16.89,1.57-7.75.07-15.66,1.23-23.43Z"/>
      <path class="cls-16" d="m118.98,58.03c1.92-3.5,4.44-4.62,7.89-1.96,1.39,1.7-.42,2.59-.94,3.81-3.93,7.16-8.72,13.84-12,21.38-3.03-.32-3.55-2.63-3.99-5.01.26-3.45,2.69-5.88,4.14-8.78,2.74-2.56,1.43-7.24,4.9-9.43Z"/>
      <path class="cls-94" d="m118.98,58.03c-1.77,3.15-.9,7.37-4.04,9.96-.87-.49-1.28-1.29-1.46-2.23-.28-2.35,2.71-4.85-.34-7.07-.36-.32-.63-.69-.83-1.12-.34-4.14,1.09-8.17.78-12.31.22-.45.49-.86.81-1.24.34.7,1.04,1.43.97,2.09-.46,4.64.23,8.82,4.12,11.92Z"/>
      <path class="cls-15" d="m147.89,39.91c-.01,8.07-.02,16.14-.04,24.21-2.38-1.49-3.65-4.31-6.41-5.36.26-1.62-1.31-3.79,1.38-4.69.15,1.53.32,3.02,2.49,2.72,1.88-.26,1.57-1.71,1.7-2.98.45-4.62-1.22-9.38.88-13.89Z"/>
      <path class="cls-22" d="m133.92,33.01c1.79.1,4.13-.1,4.48,2.01.29,1.72-1.52,2.96-3.32,2.74-1.76-.21-3.76-.93-3.99-3.04-.23-2,1.6-1.59,2.83-1.72Z"/>
      <path class="cls-98" d="m124.89,58.9c.66-.94,2.21-1.27,1.98-2.84.89.12,2.02.73,2.02-.98,0-1.74,0-3.48,0-5.62,2.31,1.73,1.98,3.71,1.93,5.61-.19,1.56.52,3.36-1.24,4.49-1.69.67-3.3.81-4.69-.67Z"/>
      <path class="cls-17" d="m129.82,59.1c.28-1.36-.39-2.95,1-4.03.74,1.1,1.99.79,3.02,1.09.66.43.72,1.07.67,1.77-.08.67-.23,1.33-.31,2-.18,1.36-.09,2.79-.96,3.99-.4.3-.84.38-1.32.28-1.3-1.45-2.31-3.02-2.09-5.1Z"/>
      <path class="cls-75" d="m113.89,44.01c-.01.35-.02.71-.03,1.06-.87,1.65-.25,3.43-.45,5.14-.1.92.02,2.01-1.47,1.76v-5.39c-1.59,1.5-.45,3.56-1.95,4.47-.12-1.11.16-2.36-1.07-3.09.88-2.29,2.37-3.81,4.96-3.95Z"/>
      <path class="cls-74" d="m133.94,57.96c-.03-.6-.07-1.2-.1-1.8,2.2-2.39.35-5.43,1.41-8.31,1.54,1.94,1.83,3.99,1.58,6.2-.53.71.03,1.52-.19,2.26-.1.4-.28.76-.52,1.09-.63.57-1.28,1.05-2.18.56Z"/>
      <path class="cls-72" d="m142.82,54.06c-1.49,1.39-.66,3.21-.87,4.83-.31.34-.69.52-1.15.54-1.06-.24-1.45-.91-1.27-1.95.14-.17.27-.35.41-.52,1.91-1.71.59-4,1.05-5.96.48-.58.73-1.6,1.84-.95,0,1.34,0,2.68-.01,4.02Z"/>
      <path class="cls-93" d="m137.96,22.96c.63.36,1.27.71,1.9,1.07-.09,1.5.66,3.18-1.05,4.73-1.43-1.98-.69-3.97-.85-5.8Z"/>
      <path class="cls-86" d="m157.9,42.99c.33.33.66.66.99.99,1.37,2.8.42,5.72.45,8.6-1.67,1.35-1.82-.27-2.33-1.19-.07-2.44,1.12-4.88-.03-7.32.31-.36.61-.72.92-1.08Z"/>
      <path class="cls-85" d="m142.83,50.05c-.61.32-1.22.64-1.84.95,0-1.63,0-3.25,0-5.6,1.26,1.77,1.86,3.06,1.84,4.64Z"/>
      <path class="cls-37" d="m156.99,44.07c1.78,2.12.57,4.62.89,6.93-.44.29-.86.26-1.25-.09-.35-.71-.3-1.37.21-1.99.05-1.62.1-3.23.16-4.85Z"/>
      <path class="cls-84" d="m154.83,50.93c.04-.66.08-1.31.12-1.97.32,0,.64.01.96.02.59,2.23,1.79,4.43.38,6.77-.48.47-1.02.54-1.61.21-1.3-1.72-.66-3.38.15-5.04Z"/>
      <path class="cls-92" d="m155.91,55.97c0-2.33,0-4.66,0-6.99.31-.01.61-.03.92-.06.04.69.07,1.39.11,2.08.63,1.52,1.22,3.04.39,4.68-.39.49-.87.59-1.42.3Z"/>
      <path class="cls-11" d="m135.93,55.98c0-.78.12-1.51.9-1.92.46,1.59,2.29,1.72,3.11,2.91,0,0-.17.04-.17.04-1.71,1.27-2.91.6-3.85-1.02Z"/>
      <path class="cls-35" d="m158.87,53c0-3.01.02-6.02.03-9.02,2.39.3,2.68,2.17,3,4.01-.91-.27-2.15-.81-1.79.94.42,2.05,1.17,4.04,1.78,6.05-.36,0-.71.02-1.07.03-.99.42-1.61-.12-2.17-.83-.16-.43-.08-.82.22-1.16Z"/>
      <path class="cls-18" d="m159,53.89c.61.37,1.22.74,1.82,1.11.98,2.02,3.74,3.14,3.06,6.01.04.29,0,.56-.14.81-.17.81-.54,1.46-1.42,1.68-3.82-.71-4.98-3.43-5.21-6.87.73-.85-.45-3.01,1.89-2.75Z"/>
      <path class="cls-25" d="m111.94,51.98c2.27-1.85-.21-5.02,1.92-6.9.44,4.35-.36,8.6-.99,12.87.07,1.46-.45,2.55-1.93,3.03-2.04,2.78-3.14,1.34-4.06-.91.33-1.09.66-2.19.99-3.28,1.36-1.6,2.71-3.2,4.07-4.81Z"/>
      <path class="cls-61" d="m131.68,343.89c.74.72,1.47,1.44,2.21,2.16-.55.8-1.15,1.84-2.23.84-.96-.89-.97-2.01.02-3Z"/>
      <path class="cls-63" d="m162.9,62.96c.28-.38.56-.75.84-1.13.85,2.7,3.51,2.32,5.4,2.88,50.14,14.76,82.34,47.45,92.97,98.45,9.98,47.89-4.63,89.28-41.13,122.25-17.49,15.8-38.13,25.64-61.47,29.57-3.1.52-4.75,2.11-4.47,5.4.08.99.02,2-.04,2.99-.1,1.6-.61,3.29-2.4,3.23-2.32-.08-1.48-2.2-1.49-3.51-.05-13.49,0-26.98-.08-40.46,0-1.58.97-4.22-1.9-4.23-2.64,0-2.17,2.41-2.17,4.18-.01,14.49,0,28.97-.02,43.46,0,1.66.03,3.35-.27,4.97-.24,1.31-1.11,2.78-2.55,2.68-2.05-.14-1.17-2.08-1.18-3.19-.08-15.15-.06-30.31-.06-45.46,0-1.33.04-2.67-.09-3.99-.13-1.34-.96-2.14-2.34-2.03-1.23.1-1.58,1.1-1.64,2.14-.09,1.49-.13,2.99-.13,4.49,0,15.49,0,30.97,0,46.46,0,1,.09,2.01-.01,3-.19,1.89.28,4.81-2.3,4.71-2.47-.1-2.07-3.01-2.08-4.91-.06-16.32-.04-32.64-.05-48.95,0-1.5.02-3-.08-4.49-.08-1.18-.29-2.44-1.88-2.42-1.4.02-2.07.99-2.2,2.26-.13,1.32-.09,2.66-.09,3.99,0,14.65.02,29.31-.03,43.96,0,1.57.54,3.26-.58,4.93-3.18-1.08-3.44-3.56-3.44-6.34.02-14.65-.02-29.31-.04-43.96,0-1-.02-2-.02-3,0-1.63-.96-2.61-2.43-2.55-1.46.06-1.58,1.43-1.58,2.65,0,6.33,0,12.66-.01,18.98,0,7.99.02,15.99-.02,23.98,0,1.08.37,2.59-1.32,2.74-1.35.12-2.51-1.12-2.35-2.12,1.63-10.66-6.61-9.38-12.82-11.1-46.22-12.84-78.21-41.69-91.77-87.71-14.61-49.56-2.22-93.55,34.51-130.07,14.96-14.88,33.3-24.53,53.51-30.55,1.42-.42,2.79-.98,4.19-1.47.29,1.89,1.51,3.61,1.06,5.64-1.62,1.92-4.02,2.3-6.21,2.95-18.73,5.53-35.18,15.22-49.05,28.74-20.17,19.64-32.39,43.63-36.22,71.68-1.38,10.08-1.75,20.19-.12,30.3,0,3.6.81,7.08,1.59,10.56,3.83,20.07,12.82,37.66,25.64,53.41.8.94,1.67,1.81,2.56,2.67,17.14,19.51,38.5,31.98,63.66,38.07,6.36,1.54,6.95,1.06,6.98-5.45.02-6-.19-12,.07-17.99.18-4.25-1.58-6.34-5.56-7.51-15.51-4.57-28.82-12.87-40.07-24.44-9.92-10.21-16.76-22.3-21.35-35.73-2.02-7.18-3.58-14.45-4.16-21.9.09-3.62-.07-7.25.03-10.86,1.51-21.69,9.43-40.7,24.07-56.82,2.01-2.21,3.84-4.61,6.1-6.6.99-.74,2-1.46,3-2.18,7.39-5.69,15.21-10.67,23.86-14.26,2.62-.87,5.28-1.65,7.83-2.7,1.01-.45,2-.93,2.68-1.85.85-2.55.38-5.17.46-7.75.27-3.64.51-7.29,1.29-10.87,1.7-6.58,4.29-12.66,9.47-17.37,1.23-1.12-.07-3.36,1.54-4.5,1.64.07,3.29.13,4.93.2,1.09,1.46,2.3,2.86,2.15,4.86.97,5.67.17,11.37.43,17.05-.06,4.11,1.08,8.2.61,10.69.43-2.45-.58-6.51-.58-10.61.26-5.71-.54-11.44.44-17.12.05-1.58.09-3.17.14-4.75,1.23-1.16,2.74-1.11,4.27-.98,2.61,1,2.97,3.27,3.11,5.62.29,4.9.74,9.8.53,14.72.06,3.81-.12,7.63.11,11.43.32,1.4.63,2.81.54,4.21.48-1.19-.35-2.23-.24-3.34-.9-10.2.11-20.45-1.02-30.63-.06-.5.46-.85.79-1.21.3,0,.58-.04.86-.14,4.66-1.3,4.76,2.54,5.9,5.22,2.12,5.48,6.67,9.72,7.99,15.61,1.01,4.7.66,9.52,1.14,14.28.43,4.23,2.12,6,6,7.25,25.49,8.23,44.78,23.96,56.17,48.44,13.83,29.71,11.97,58.92-4.67,86.96-12,20.23-29.97,33.18-52.39,39.9-4.24,1.27-6.03,3.45-5.92,7.82.17,6.49,0,12.99.06,19.49.05,5.11.58,5.55,5.57,4.54,17.76-3.6,33.88-10.91,48.28-21.88,24.89-18.96,40.93-43.77,46.56-74.52,11.53-63.04-24.37-119.26-80.36-138.66-3.3-1.14-6.59-2.36-10.02-3.09-1.66-.36-3.23-.88-4.09-2.55-.66-1.71-.49-3.3.71-4.73Z"/>
      <path class="cls-118" d="m113.88,80.77c1.91,3.74.04,7.45-.06,11.18-1.79,2.74-2.47,5.6-.97,8.71-.84.66-1.56,1.59-2.83,1.32-2.68.99-6.44-1.03-8.06,2.9-8.36,3.96-16.23,8.72-23.65,14.24-1.43.46-2.33-.4-3.27-1.19.2.93,2.37,1.35.92,2.85-14.29,14.48-24.93,30.99-28.54,51.39-.63,3.57-1.06,7.18-1.59,10.78-.64,1.29.16,4.09-3.04,2.61-2.01-.93-3.73.81-5.63,1.13-3.1.07-3.74-2.28-4.34-4.55-.7-2.64-2.01-4.57-4.97-4.76-2.28-.15-4.42.38-5.56,2.52-1.39,2.6-1.54,5.52-.38,8.17.95,2.16,3.51,1.39,5.34,1.98,2.45.93,5.25,0,7.61,1.39.61.52.9,1.21,1.02,1.98.13,1.14.04,2.29.03,3.44,0,1.76.45,3.88-1.91,4.51-2.16.58-2.71-1.31-3.49-2.74-.23-.42-.53-.82-1.13-.77q-3.03,5.14-6.87.29c-1.94.98-.95,3.32-2.06,4.61.26.66-1.56-.19-.7,1.09.87,1.3-.35,2.06-1.22,2.72-1.17.89-2.1.16-2.98-.63-.91-.81-.89-2.05-1.44-3.02-2.53-13.97-1.51-27.9,2-41.45,12.46-48.08,42.64-79,90.71-92.18.39.28.77.57,1.16.85.95.19,1.43.88,1.8,1.69.74,1.33.41,2.9.97,4.28.33,2.03,1.3,3.64,3.13,4.67Z"/>
      <path class="cls-13" d="m108.95,71.64c-.32-.5-.65-1-.97-1.49-.52-3.62,3.85-4.87,3.95-8.18.15-1.63.91-2.92,2.14-3.96,3.96,2.74.62,5.31-.18,7.94-.86,2.58-.87,5.9-4.94,5.69Z"/>
      <path class="cls-30" d="m114.07,58.01c-.37,1.5-.91,2.92-2.14,3.96-.33-.33-.66-.66-.99-.99.64-1.01,1.29-2.02,1.93-3.03.4.02.8.04,1.2.06Z"/>
      <path class="cls-118" d="m162.94,67.95c17.93,4.37,34.56,11.59,49.08,23.1,26.39,20.93,42.69,47.82,46.87,81.5,5.13,41.35-7.39,76.77-37.15,105.75-17.27,16.82-38.06,27.4-61.92,31.86-3.94.74-4.78-.49-4.76-3.86.05-8.16.12-16.32-.02-24.48-.06-3.44,1.43-5.03,4.64-5.94,32.62-9.25,54.14-30.27,63.7-62.61,13.99-47.33-14.35-97.67-62.01-111.12-4.24-1.2-5.63-3.04-5.58-7.2.06-5.07-2.08-10.16.06-15.24,1.44-.81,2-2.2,2.45-3.67.14-1.51.21-3.04,1.03-4.39.76-1.34,1.23-2.86,2.43-3.93.45-.2.84-.13,1.2.21Z"/>
      <path class="cls-81" d="m160.02,72.1c-.12,1.52-.88,2.76-1.74,3.95-1.81-3.67-3.62-7.33-5.42-10.99-.55-1.23-.9-2.43.54-3.34,4.19,2.19,4.88,6.62,6.62,10.38Z"/>
      <path class="cls-28" d="m153.9,61.97c-1.19.75-.93,1.98-1.04,3.09-1.37-4.04-1.58-8.07.04-12.1,2.58,1.23,1.44,3.89,2.25,5.81-.03,1.22-.24,2.37-1.26,3.2Z"/>
      <path class="cls-29" d="m154.02,59.06c-.51-2.01.75-4.34-1.12-6.09.64-.68,1.29-1.36,1.93-2.03.04,1.68.08,3.36.12,5.05.71.84.87,1.75.36,2.76-.36.41-.79.51-1.29.32Z"/>
      <path class="cls-95" d="m108.95,71.64c2.73-.95,2.89-4.15,4.94-5.69.84.43,1.02,1.2,1.05,2.04-1.4,2.71-2.79,5.41-4.19,8.12-.98-1.34-1.74-2.76-1.81-4.47Z"/>
      <path class="cls-12" d="m132.88,63.96c.02,6,.04,12,.05,18-.32.46-.64.44-.96,0,0-6,0-12,0-17.99.3,0,.6,0,.9,0Z"/>
      <path class="cls-11" d="m136.9,58.87c-1.3.11-2.6.22-3.89.34.31-.41.62-.83.93-1.24.66-.34,1.31-.68,1.97-1.01.77.41,1.48.86,1,1.92Z"/>
      <path class="cls-21" d="m136.9,58.87c-.33-.64-.67-1.28-1-1.92,0-.32.01-.65.03-.97,1.28.34,2.57.68,3.85,1.02.18.84.39,1.66,1.3,2.03.51,11.24,1.21,22.46.92,33.72.57,1.75.71,3.5-.08,5.23-2.12-2.02-.7-4.58-1.06-6.87-1.15-3.97.29-8.12-.82-12.1-.06-4.42-.18-8.84-.16-13.27.01-2.77-.59-5.18-2.96-6.87Z"/>
      <path class="cls-103" d="m159,53.89c-1.27.75-1.06,2.03-1.18,3.2-.79.04-1.18-.26-.97-1.1.03-1.67.07-3.33.1-5,.31-.01.62-.01.93,0,.04.81.23,1.55.99,2.01.05.3.09.59.13.89Z"/>
      <path class="cls-97" d="m156.84,56c.33.37.65.73.98,1.1,1.18,2.4,1.68,5.39,5.08,5.86.01,1.66.03,3.33.04,4.99-.25.17-.52.24-.82.2-4.49-1.4-5.95-5.22-7.26-9.15.03-1.01.06-2.02.09-3.02.32,0,.64,0,.96,0,.31,0,.62.01.93.03Z"/>
      <path class="cls-118" d="m49.88,216.9c4.34,10.24,9.05,20.2,16.2,28.93,12.09,14.74,27.22,24.77,45.46,29.9,4.64,1.3,6.04,3.34,5.79,7.94-.38,6.98-.08,13.99-.11,20.98-.02,5.71-.52,6.17-5.94,5.02-17.94-3.83-34.36-11.15-48.98-22.21-6.75-5.11-13.35-10.48-18.39-17.44-.23-.45-.26-.91-.12-1.39.2-.7.82-1.14,1.12-1.78-.61.23-.98.81-1.57,1.06-.46.2-.92.21-1.38-.02-13.41-15.63-22.41-33.39-26.05-53.76-.69-1.36-.29-2.83-.41-4.23.68-2.17,2.92-.38,3.99-1.57,2.86.38,3.8,2.5,4.09,4.9.16,1.34.22,2.62,1.02,3.76.14.3.23.62.34.93,1.08,2.98.07,7.92,3.63,8.5,4.42.72,9.01-1.51,13.13-3.62,2.32-1.18.55-4.13,1.97-5.84,2.06-.85,4.13-1.14,6.21-.05Z"/>
      <path class="cls-127" d="m200.23,132.84c11.52,12.04,17.87,26.66,20.47,42.86,5.79,36.04-12.39,71.7-44.85,88.71-39.02,20.45-88.21,7.16-111.62-30.19-.87-1.39-1.49-2.94-2.22-4.42,1.04-3.02,2.86-.86,4.39-.68,1.93,1.16,2.97,3.1,4.19,4.88,26.21,38.12,79.72,46.03,115.74,17.05,20.14-16.2,29.98-37.62,30.04-63.1.05-17.93-5.96-34.29-17.29-48.49-2.13-2.67-5.07-4.9-5.67-8.61,3.69-4.17,4.62,1.07,6.82,1.99Z"/>
      <path class="cls-125" d="m66.05,229.86c-1.35.42-2.66-1.71-4.03-.07-8.39-13.71-11.45-28.88-10.83-44.62.66-16.52,5.89-31.8,15.63-45.33,1.09-1.52,1.72-3.72,4.1-4.01,1.03.59,1.53,1.52,1.73,2.65.12,2.71-1.58,4.65-2.92,6.71-8.73,13.43-13.3,28.22-13.31,44.17,0,12.26,3.22,23.93,8.55,35,.83,1.72,2.37,3.36,1.07,5.51Z"/>
      <path class="cls-127" d="m49.88,216.9c-2.05.51-4.09,1.41-6.16.07-1.16.03-1.67-.85-2.3-1.6-4.77-5.65-9.81-5.84-14.85-.54-.78.82-1.39,1.85-2.64,2.07-1.36-.13-2.15-.84-1.71-2.22,1-3.13-.64-4.69-3.23-5.77-1,.81-2-.91-3,0-.03,1.74-.05,3.48-.08,5.22-1.24-3.63-2.16-7.31-1.8-11.2.79.79,1.59,1.57,2.36,2.37.54.56,1.07,1.4,1.75.21.26-.46,1.37-.38.43-1.7-1.22-1.71,1.02-.38,1.4-.92,4.44,5.1,10.01,2.94,15.23,2.17,4.65-.68,2.98-4.65,3.3-7.52.03-2.68.1-5.34,2.23-7.39.97-.93,1.98-2,3.42-1.58,1.74.51,1.1,2.15,1.21,3.39.08.98-.13,1.99.38,2.92,1.35,7.34,2.7,14.68,4.05,22.02Z"/>
      <path class="cls-117" d="m72.12,138c-.94-.43-1.14-1.26-1.21-2.17,2.2-5.59,6.95-8.96,11.32-12.54,12.38-10.13,26.31-16.87,42.44-18.42,1.23-.78,2.62-.28,3.85-.22,2.83.15,3.47,1.56,1.49,3.81-1.28.83-2.71,1.32-4.2,1.48-18.5,1.98-33.62,10.76-46.92,23.23-.49.45-1.02.86-1.56,1.24-1.6.88-2.78,2.22-3.99,3.55-.4.26-.81.28-1.24.06Z"/>
      <path class="cls-115" d="m200.23,132.84c-2.33.13-3.25-4.73-6.37-1.81-3.01.17-4.76-2.09-6.74-3.7-11.31-9.22-24.01-15.25-38.56-17.17-1.34-.18-2.62-.45-3.64-1.41q-1.77-4.14,3.99-3.74c15.62,1.51,29.07,8.15,41.16,17.76,3.73,2.96,7.64,5.85,10.16,10.08Z"/>
      <path class="cls-9" d="m148.91,104.99c-.49.88-1.01,1.91-2.21,1.14-3.79-2.44-1.37,1.06-1.78,1.83-5.02,2.34-10.02,2.51-14.99-.14.79-1.53.6-2.81-1.36-2.53-1.42.2-2.58-.42-3.88-.42,8.08-1.52,16.16-1.56,24.22.13Z"/>
      <path class="cls-123" d="m45.83,194.88c-.11-.12-.22-.24-.33-.36-1.38-1.44.54-5.15-1.71-4.86-2.7.35-4.17,3.32-3.82,6.49.07.65-.04,1.31-.07,1.97-2.2-.7-2.93-3.14-4.88-4.13-.01-.6-.03-1.2-.04-1.8.32-1.32,2.04-1.17,2.45-2.38.46-1.21-.1-2.57.52-3.75,1.64-2.14,3.38-3.08,6.07-1.37,1.46.93.67-1.67,1.82-1.74,0,3.98,0,7.95.01,11.93Z"/>
      <path class="cls-26" d="m131.97,81.96c.32,0,.64,0,.96,0,1.08,5.13,1.4,10.27.54,15.43-.5.03-1,.06-1.5.09v-15.52Z"/>
      <path class="cls-116" d="m112.85,100.66c-3.82-3.22-3.7-4.26.97-8.71-.16,2.92,1.09,6-.97,8.71Z"/>
      <path class="cls-116" d="m101.95,104.88c.24-7.77,5.08-2.77,8.06-2.9-2.54,1.38-5.25,2.29-8.06,2.9Z"/>
      <path class="cls-4" d="m41.96,267.88c2.3-.13,2.26-5.47,4.81-3.08,1.99,1.87-2.57,2.98-2.86,5.2-.65-.71-1.3-1.42-1.95-2.12Z"/>
      <path class="cls-20" d="m140.03,79.01c1.82,3.93.5,8.07.82,12.1-1.8-3.93-.63-8.06-.82-12.1Z"/>
      <path class="cls-8" d="m75.94,120.78c-.17-.45-.24-.97-.52-1.32-.56-.71-2.74-.5-1.46-2.21,1.07-1.42,1.37.62,2.16.79.77.17,1.46.71,2.18,1.08-.6.81-1.19,1.65-2.36,1.65Z"/>
      <path class="cls-20" d="m141.92,97.99c.03-1.74.06-3.49.08-5.23,1.2,1.76,1.46,3.51-.08,5.23Z"/>
      <path class="cls-89" d="m22.78,159.95c4.67-6.88,11.7-8.06,17.03-2.87,3.87,3.78,3.94,9.65.16,13.85-3.47,3.86-9.82,4.26-13.91.74-1.24-1.06-2.15-2.5-3.21-3.77-.58-2.65-.49-5.3-.06-7.96Z"/>
      <path class="cls-88" d="m81.31,87.59c5.72.08,9.75,4.4,9.7,10.41-.05,5.11-4.78,9.81-9.93,9.88-5.34.07-10.29-5.31-10.08-10.95.2-5.34,4.7-9.41,10.31-9.33Z"/>
      <path class="cls-23" d="m51.06,141.92c-.82,3.05-2.71,4.74-5.94,5.06-2.45.24-3.11,1.24-.7,2.83,1.58,1.04,2.36,2.42,1.24,4.17-1.14,1.79-2.82,1.36-4.41.67-3.62-1.57-7.22-3.19-10.85-4.74-2.39-1.02-3.08-2.5-2.17-5.09,2.68-7.63,5.69-9.59,12.71-7.87,1.27.8,2.72,1.43,2.93,3.19.82,1.29,2.01.79,3.13.64,1.5-.13,3.33-1.46,4.06,1.14Z"/>
      <path class="cls-89" d="m35,193.98c3.76-1.14,4.07,1.79,4.88,4.13q.27,8.12-7.97,8.78c-1.3.11-2.63.2-3.88.55-4.24,1.17-7.42.64-7.97-4.56.69-2.32-1.85-5.95,1.75-6.92,4.19-1.13,2.29,3.88,4.2,5.35,1.29-.1,1.07-1.08,1.03-1.78-.11-1.91-.21-3.99,2.26-4.22,2.19-.21,2.49,1.71,2.72,3.42.13.98.29,2.18,1.63,2,1.29-.17,1.29-1.37,1.14-2.37-.22-1.48-.52-2.95.21-4.38Z"/>
      <path class="cls-24" d="m37.93,186.05c1.3,1.34,1.11,2.97.92,4.61-3.92,1.42-7.92.68-11.9.4q-7.61-.32-6.98-8.48c.38-4.88,3.4-7.38,8.33-6.76,3.57.45,5.68,2.4,5.9,6.12.14,2.36.74,4.31,3.71,4.09Z"/>
      <path class="cls-89" d="m72.83,114.25c-.28,1.81-1.23,2.83-3.05,2.07-5.17-2.17-10.28-4.45-15.4-6.73-.96-.43-1.75-1.2-1.15-2.33.84-1.55,2.33-2.98,4-2.03,6.68,3.77,8.63,2.64,5.61-4.83-.71-1.75.55-3.37,2.26-3.88,2.08-.62,2.34,1.47,2.78,2.71,1.74,4.97,3.31,10.01,4.95,15.03Z"/>
      <path class="cls-23" d="m52.98,137.09c-2.79.23-4.62-1.73-6.48-3.21-2.39-1.91-4.06-3.73-7.53-1.31-1.83,1.27-4.04-.76-2.87-3.27,1.39-2.97,3.45-5.62,5.28-8.38.71-1.07,1.82-1.5,3.04-1.02,1.23.48,1.96,1.63,1.43,2.79-1.46,3.18,1.11,3.87,2.82,5.34,2.51,2.15,6.76,2.49,7.25,6.79-.73,1.08-.52,3.38-2.94,2.25Z"/>
      <path class="cls-89" d="m64.81,122.62c-1.11,2.74-2.91,5.13-5.42,6.26-2.72,1.21-2.75-1.6-3.66-3.34-1.63-3.13-4.1-5.49-8.01-5.76-1.39-.1-2.9-1.06-2.57-2.51.61-2.62,2.37-4.81,4.72-6.08,1.53-.83,2.68.34,3.37,1.96,1.63,3.84,4,6.84,8.71,6.93,1.49.03,2.23,1.23,2.86,2.54Z"/>
      <path class="cls-7" d="m52.98,137.09c1.43-.17,1.98-1.47,2.94-2.25,1.97,4.57,1.56,5.17-4.87,7.09-1.02-1.55-2.72-.7-4.06-1.14,1.54-1.45,3.45-.8,5.19-.81,3.95-.02,1.18-1.75.8-2.88Z"/>
      <path class="cls-7" d="m43.87,140.14c-.98-1.06-1.96-2.13-2.93-3.19.65-.05,1.59.15,1.89-.2.83-.95,1.3-2.27,2.86-.91,1.69,1.48-.42,1.81-.77,2.65-.25.59-.69,1.1-1.04,1.65Z"/>
      <path class="cls-46" d="m26.96,191.07c3.96-.44,7.96.64,11.9-.4-.76,1.9-2.55,1.12-3.9,1.52-2.62-.68-5.53.64-8-1.11Z"/>
      <path class="cls-110" d="m22.78,159.95c.02,2.65.04,5.3.06,7.96-1.46-2.64-1.37-5.29-.06-7.96Z"/>
      <path class="cls-5" d="m54.56,146c-.26.81-.93.99-1.55.74-.56-.22-1.28-.69-1.4-1.18-.18-.72.51-1.21,1.25-1.03.76.19,1.62.43,1.71,1.47Z"/>
      <path class="cls-89" d="m245.81,206.1c-3.29-.38-6.57-.75-9.85-1.15-.77-.09-1.75.19-2.09-.86-.35-1.08.15-1.9.98-2.58,1.02-.84,2.07-1.65,3.04-2.55,1.16-1.08,3.3-1.75,2.88-3.67-.51-2.27-2.73-1.17-4.22-1.36-1.53-.2-2.58-.77-2.58-2.39,0-1.85,1.13-2.71,2.89-2.58,4.62.32,9.25.54,13.83,1.17,2.47.34,2.33,1.97.7,3.45-1.71,1.56-3.56,2.96-5.27,4.53-1.63,1.5-2.02,2.63.89,3.05,1.92.27,5.12-.16,4.61,3.04-.57,3.54-3.83,1.17-5.81,1.92Z"/>
      <path class="cls-105" d="m229.8,218.25c.08-5.35,2.7-8.78,7.42-9.62,4.43-.79,8.22.44,10.57,4.58,2.07,3.64,1.18,9.22-1.98,11.84-1.48,1.22-3.56,3.09-5.23,1.36-2.04-2.12.75-3.39,2-4.69,1.91-1.99,2.17-4.29.75-6.34-1.46-2.11-3.98-2.45-6.29-1.47-2.37,1-3.54,2.8-2.41,5.55.71,1.73,2.46,4.23-.26,5.08-2.81.88-3.61-2.13-4.4-4.26-.28-.74-.14-1.64-.16-2.04Z"/>
      <path class="cls-89" d="m218.63,133.04c-1.6.93-2.46-.11-3.17-1.29-1.01-1.68.45-2.49,1.45-3.17,3.55-2.41,7.18-4.71,10.84-6.98.65-.4,1.82-.84,2.26-.54,3.13,2.16,4.99,5.42,5.66,8.99.57,3.03-1.38,5.3-4.12,6.71-3.35,1.72-6.03.62-8.32-1.99-1.24-1.41-2.39-2.9-4.59-1.73Z"/>
      <path class="cls-105" d="m228.86,152.97c.12-2.96-1.2-5.58-4.04-7.5-1.09-.74-2.32-1.64-1.82-3.2.54-1.69,2.16-1.22,3.4-1.21,4.47.03,8.95,0,13.4.27,3.29.2,4.15,1.74,1.76,4.42-2.86,3.21-5.66,6.47-8.58,9.63-.92,1-1.67,3.05-3.42,2.07-1.38-.76-1.13-2.56-.71-4.49Z"/>
      <path class="cls-89" d="m228.76,254.91c-4.69-.77-9.4-1.5-14.07-2.35-.9-.16-2.07-.46-2.3-1.57-.22-1.09.56-2.05,1.44-2.35,4.28-1.44,6.39-4.24,6.3-8.83-.02-1.01.67-2.32,1.91-2.67,1.55-.44,1.92,1.08,2.46,1.96,2.4,3.93,4.63,7.96,7,11.91,2.08,3.46.78,4.41-2.73,3.91Z"/>
      <path class="cls-105" d="m247.92,172.98c1.13.14,3.69-.77,3.82,1.87.16,3.02,2.67,6.5-.02,9-2.6,2.41-2.96-.82-3.69-2.46-.48-1.07.44-3.23-1.55-3.01-1.63.18-1.2,1.98-1.08,3.31.12,1.43-.29,2.75-1.94,2.96-1.56.19-1.63-1.32-2.19-2.27-.67-1.13.4-3.53-1.96-3.35-2.29.18-1.28,2.27-1.44,3.58-.18,1.44.24,3.23-2.04,3.22-2.25,0-1.89-1.83-2.07-3.25-.21-1.64-.5-3.27-.72-4.91-.3-2.24.7-3.51,2.94-3.71,3.79-.34,7.58-.63,11.93-.98Z"/>
      <path class="cls-51" d="m188.51,100.35c-3.85-2.82-7.41-3.08-11.28.01,1.72-4.6.3-7.85-4.5-10.9,5.33-.17,9.15-.78,9.94-6.24,1.55,4.86,4.37,6.68,9.37,6.21-3.9,2.85-5.63,6.14-3.53,10.92Z"/>
      <path class="cls-52" d="m175.83,277.78c5.11,2.95,8.68,4.67,12.48.74-1.34,4.67-.45,8,4.78,11.13-6.12-.46-9.21,1.39-9.89,7.31-2.3-3.87-2.67-8.37-7.74-7.21-1.44.33-1.7-1.17-.67-1.77,3.76-2.19,3.83-5.26,1.05-10.2Z"/>
      <path class="cls-89" d="m243.27,234.44c-.76,2.18-1.21,4.78-3.16,6.02-2.28,1.45-2.69-1.45-3.99-2.43-2.65-2.01-5.27-4.52-9.2-3.31-1.43.44-2.89.07-2.96-1.66-.11-2.59,1.15-4.87,2.89-6.63,1.22-1.23,2.3-.17,3.15,1.09,2.49,3.69,5.91,5.44,10.44,4.81,1.54-.21,2.53.52,2.82,2.11Z"/>
      <path class="cls-104" d="m245.74,156.95c1.75.02,2.79.4,3.04,1.82.26,1.53-.33,2.61-1.86,3.03-2.54.7-5.07,1.57-7.67,1.96-2.81.42-3.86,1.78-3.04,4.4.54,1.72.37,3-1.45,3.55-2.12.63-2.48-1.1-2.87-2.51-.49-1.75-.75-3.56-1.25-5.3-.42-1.47-.34-2.81,1.23-3.26,4.74-1.36,9.54-2.54,13.86-3.68Z"/>
      <path class="cls-55" d="m201.15,106.55c2.67-.57,5.41-.72,5.56-4.7,1.7,2.96,4.62,3.54,5.91,5.15,1.27,1.58-3.66,3.72-.78,6.98-2.92.02-4.81-1.99-6.91-.2-.7.59-2.38.29-1.61-1.16,1.5-2.82-1.75-3.53-2.16-6.06Z"/>
      <path class="cls-54" d="m207.5,277.53c-1.79-3-2.65-5.83-7.52-4.32,2.88-3.28,4.8-5.2,2.59-8.64,3.21,1.09,5.5,2.38,8,.12.58,2.99-.18,5.78,2.97,7.33-3.35.5-5.19,2.1-6.04,5.51Z"/>
      <path class="cls-10" d="m154.87,59c2.81,2.74,4.11,6.68,7.26,9.15-.7,1.32-1.4,2.64-2.1,3.95-3.32-2.61-4.07-6.76-6.12-10.13.04-.97.08-1.95.12-2.92.28-.04.56-.06.84-.05Z"/>
      <path class="cls-88" d="m33.79,242.31c0-2.94,6.05-8.89,10.34-10.06,4.01-1.1,6.15,1.32,7.96,4.35q3.51,5.9-2.17,9.67c-1.76,1.16-3.48,2.42-5.37,3.34-5.97,2.93-10.76-.36-10.76-7.3Z"/>
      <path class="cls-89" d="m23.93,216.89c1.93-4.35,4.88-7.08,10-7.23,5.37-.16,7.84,3.12,9.78,7.31q1.28,6.56-5.38,8.68c-.63.2-1.29.32-1.92.52-11.16,3.47-12.04,2.82-12.49-9.27Z"/>
      <path class="cls-89" d="m79.95,275.59c-2.1.3-4.51.29-4.79-2.18-.29-2.53,2.41-2.92,4.23-3.34,4.7-1.09,10.56,3.18,11.45,8.11.94,5.21-2.65,10.66-7.7,11.69-5.32,1.09-10.91-2.26-11.94-7.27-.33-1.6-.8-3.69,1.12-4.4,1.81-.67,2.98,1.01,3.8,2.48,1.33,2.38,2.59,5.03,5.98,3.55,2.38-1.04,3.32-3.19,2.76-5.79-.59-2.71-2.61-3.06-4.91-2.87Z"/>
      <path class="cls-23" d="m58.87,248.08c7.22,5.96,7.21,9.8.01,15.79-1.27,1.06-2.44,2.25-3.73,3.29-1.59,1.28-3.39,2.66-5.08.33-1.38-1.91-.15-3.37,1.39-4.62,1.92-1.57,3.84-3.15,5.68-4.82,1.09-.99,2.38-2.07.73-3.69-1.4-1.38-2.64-.87-3.91.21-1.77,1.49-3.57,2.95-5.36,4.42-3.52,2.89-4.55,2.5-5.65-2.14.78-1.13,1.72-2.12,2.77-3,2.92-2.87,5.9-5.62,10.23-6.13,1.06-.6,2.06-.75,2.91.36Z"/>
      <path class="cls-89" d="m68.12,258.14c2.87,1.43,5.14,3.92,7.1,6.51,1.68,2.22-1.03,3.43-2.19,4.84-2.22,2.68-4.55,5.26-6.87,7.85-1.3,1.45-2.68,2.52-4.63.81-1.97-1.72-1.08-3.16.26-4.61,1.24-1.34,2.48-2.67,3.77-3.96,2.17-2.16,3.92-4.27.56-6.92-.94-.74-1.55-1.8-.64-3.03.6-.81,1.29-1.51,2.65-1.49Z"/>
      <path class="cls-124" d="m58.87,248.08c-.97-.12-1.94-.24-2.91-.36.49-.99,1.31-1.95,1.38-2.96.15-2.17,3.13-.97,3.22-2.98.71,1.41,1.94,2.8,2,4.25.09,2.03-2.04.8-3.06,1.33-.27.14-.42.48-.63.73Z"/>
      <path class="cls-120" d="m45.73,253.85c-.43,1.46-1.84,2.01-2.77,3,.02-1.83.94-2.84,2.77-3Z"/>
      <path class="cls-118" d="m15.99,208.9c1-1.59,2-.26,3,0-1,2.57-2,.74-3,0Z"/>
      <path class="cls-24" d="m129.92,107.82c5,.05,10,.1,14.99.14,8.08,1.61,16.14,3.13,23.8,6.45,9.4,4.07,17.36,10.18,25.14,16.61,11.35,12.54,19.19,26.73,22.58,43.56,8.26,41.04-20.63,84.99-61.8,93.31-35.76,7.23-67.96-6.36-87.63-36.97-.25-.4-.63-.71-.96-1.07-5.13-10.27-9.07-20.85-10.32-32.42-2.15-20.02,2.9-38.08,13.92-54.67,1-1.51,2.34-2.83,2.47-4.78.3.01.57-.07.81-.26,1.18-1.16,2-2.64,3.27-3.71,14.82-15.07,32.64-23.97,53.72-26.21Z"/>
      <path class="cls-111" d="m76.21,134.03c-.72,1.56-1.51,3.06-3.27,3.71.25-1.98,1.44-3.13,3.27-3.71Z"/>
      <path class="cls-3" d="m32.12,159.35c2.93.36,5.35,1.68,5.36,4.8.01,2.5-1.9,4.48-4.46,4.48-2.79,0-5.13-1.21-5.13-4.73,0-2.94,1.74-4.06,4.23-4.55Z"/>
      <path class="cls-114" d="m80.9,92.87c3.24.14,4.77,2.15,4.87,5.1.09,2.76-1.96,4.47-4.39,4.45-2.98-.03-4.89-2.22-4.87-5.23.02-2.54,1.41-4.39,4.39-4.31Z"/>
      <path class="cls-119" d="m38.85,143.89c-.55,1.4-1.07,2.71-2.71,2.45-1.13-.18-2.36-.77-2.09-2.19.27-1.45,1.07-2.82,2.88-2.57,1.27.18,1.8,1.22,1.91,2.32Z"/>
      <path class="cls-121" d="m27.08,185.89c-1.6.09-2.6-.68-2.5-2.25.1-1.54.78-2.89,2.71-2.77,1.81.12,2.61,1.32,2.54,2.95-.07,1.61-1.28,2.12-2.75,2.07Z"/>
      <path class="cls-2" d="m228.43,132.85c-1.65-.3-2.75-1.22-2.86-2.87-.15-2.18,1.7-2.74,3.21-2.83,1.45-.09,2.06,1.29,2.16,2.73.12,1.83-.92,2.62-2.5,2.98Z"/>
      <path class="cls-108" d="m233.07,148.07c-.72-.09-1.21-.44-1.21-1.2,0-.97.68-1.53,1.48-1.63.94-.12,1.5.56,1.42,1.49-.08.95-.8,1.31-1.69,1.34Z"/>
      <path class="cls-42" d="m223.15,246.95c.98-.07,1.54.52,1.66,1.36.08.61-.2,1.33-1.06,1.28-.86-.05-1.61-.54-1.75-1.36-.11-.62.39-1.19,1.15-1.28Z"/>
      <path class="cls-119" d="m45.69,237.66c1.73.25,2.35,1.15,2.41,2.41.04.87-.38,1.74-1.41,1.49-.99-.24-1.61-1.05-1.78-2.13-.15-.95.23-1.5.79-1.77Z"/>
      <path class="cls-128" d="m40.15,241.84c.92.15,1.57.74,1.7,1.58.15.98-.54,1.59-1.49,1.45-.91-.13-1.37-.85-1.37-1.8,0-.77.35-1.22,1.16-1.23Z"/>
      <path class="cls-6" d="m38.71,218.78c-1.62,2.51-4.55,2.62-7.14,3.19-1.97.43-2.69-1.09-2.49-2.71.38-3.14,2.49-4.46,5.5-4.36,2.29.08,3.51,1.51,4.14,3.88Z"/>
      <path class="cls-118" d="m126.14,238.76c1.27-3.85-1.05-4.88-4.16-5.9-20.59-6.76-33.53-26.33-31.95-48,1.48-20.18,17.8-38.02,38.21-41.74,25.63-4.68,49.61,12.65,54.35,39.26,4.24,23.77-14.02,48.55-38.89,52.3-5.18.78-10.66-.17-14.67,4.33-1.02.63-2.01.78-2.9-.23Z"/>
      <path class="cls-99" d="m185.36,136.13c5.74,0,11.42,5.92,11.26,11.73-.17,5.78-5.99,11.21-11.89,11.09-5.77-.12-10.86-5.44-10.84-11.34.02-5.78,5.71-11.48,11.48-11.48Z"/>
      <path class="cls-99" d="m108.37,119.92c5.45-.09,8.56,2.95,8.57,7.91,0,2.53.31,4.46,2.8,5.76,1.1.58,3.27,1.39,2.11,3.15-.94,1.42-2.82,2.35-4.79,1.69-.92-.31-1.75-.93-2.58-1.47-1.1-.71-2.26-1.9-3.55-1.2-1.87,1.01-.64,2.49-.16,3.87.58,1.69-.23,2.76-1.81,3.56-1.95.98-2.86-.17-3.53-1.55-2.37-4.93-4.61-9.91-6.94-14.86-.59-1.26-.47-2.27.81-2.93,3.22-1.66,6.3-3.68,9.09-3.94Z"/>
      <path class="cls-114" d="m184.72,211.88c-.04-6.22,4.42-11.04,10.3-11.14,6.3-.11,11.53,4.55,11.7,10.42.17,5.98-4.99,11.55-10.69,11.56-6.18,0-11.27-4.87-11.31-10.84Z"/>
      <path class="cls-101" d="m151.1,131.45c-1.97-1.5-3.51-2.94-5.29-3.97-3.68-2.11-3.93-5.39-2.58-8.63,1.37-3.29,4.6-4.26,7.97-3.68,3.01.52,5.65,1.93,7.08,4.93.45.95.81,1.9.1,2.8-.69.88-1.6.99-2.67.49-.88-.42-1.84-.72-2.8-.92-1.48-.32-3.14-3.27-4.36-.41-.86,2.02,1.95,2.26,3.14,2.73,3.5,1.38,6.65,3.02,5.89,7.35-.65,3.73-3.61,5.66-7.25,5.63-4.13-.04-7.84-1.36-9.67-5.67-.43-1.01-.69-1.94.31-2.65,1.06-.75,2.15-.35,3.29.09,2.03.77,3.32,3.59,6.83,1.92Z"/>
      <path class="cls-101" d="m78.65,145.57c-.11-6.15,5.65-12.09,11.22-11.52,1.48.15,3.34.39,3.65,1.98.32,1.61-1.29,2.53-2.66,3.16-.74.34-1.59.45-2.39.64-3.02.69-4.87,2.63-4.29,5.66.57,2.97,2.86,5.1,5.95,5.19,2.97.09,5-1.58,4.99-4.93,0-.66-.06-1.38.16-1.97.59-1.59,1.57-3.4,3.29-3.25,1.51.13,1.94,2.11,2.23,3.57,1.07,5.53-4.23,11.81-10.38,12.4-5.95.57-11.66-4.73-11.77-10.93Z"/>
      <path class="cls-101" d="m192.99,232.74c0,5.97-5.08,11.03-10.87,11.16-5.89.13-11.21-5.11-11.23-11.04-.02-5.97,4.77-11.16,10.45-11.11,1.66.02,4.23-.56,4.39,1.96.13,1.99-1.73,2.96-3.79,3.17-2.45.26-4.54,1.16-5.17,3.88-.49,2.1.06,3.91,1.64,5.45,3.33,3.24,8.12,1.93,9.29-2.58.08-.32.08-.66.08-.99-.05-2.2.69-4.53,2.96-4.39,2.53.15,2.04,2.91,2.24,4.49Z"/>
      <path class="cls-99" d="m81.21,213.86c.33,0,.68-.06.99,0,2.78.57,6.75-2.41,8.16.96,1.11,2.65-2.55,4.99-4.18,7.4-2.14,3.15-4.41,6.22-6.68,9.27-.65.87-1.23,2.31-2.59,1.85-1.31-.44-2.11-1.75-1.97-3.16.54-5.21-1.26-8.96-6.23-11.08-1.01-.43-1.73-1.61-1.59-2.9.18-1.71,1.66-1.24,2.7-1.45,3.76-.75,7.57-.93,11.39-.9Z"/>
      <path class="cls-99" d="m129.01,240.8c1.89.43,4.6.42,3.94,3.26-1.06,4.52-5.41.15-7.56,2.5.05,1.9,1.53,2.14,3.04,2.3,1.79.2,2.75,1.05,2.47,2.95-.29,2.02-1.76,2.03-3.35,2.08-1.5.04-3.91-1.22-4.23,1.04-.35,2.5,2.53,2.19,4.07,2.6,1.91.51,3.08,1.11,2.62,3.28-.51,2.38-2.2,2.08-3.89,1.68-11.49-2.68-9.94-.38-8.13-11.75.28-1.79.85-3.56.97-5.36.3-4.5,2.33-6.6,6.96-5.53,1.13-.02,2.21.1,3.09.92Z"/>
      <path class="cls-101" d="m86.95,242.98c-1.35.1-2.19-.73-2.79-1.74-.7-1.16-.23-2.24.63-3.15,2.16-2.3,4.28-4.63,6.51-6.86,1.58-1.58,3.23-2.99.97-5.29-1.16-1.19-.79-2.39.37-3.43,1.23-1.1,2.39-.91,3.5.18,2.5,2.43,5,4.85,7.48,7.3.99.98,1.78,2.07.74,3.48-1.06,1.43-2.38,1.87-3.79.56-2.14-1.99-3.54-.6-4.98.93-1.93,2.06-3.89,4.09-5.84,6.12-.8.83-1.49,1.82-2.8,1.9Z"/>
      <path class="cls-101" d="m175.24,130.72c-2.36-1.34-3.12.46-3.92,1.82-1.68,2.84-3.25,5.74-4.82,8.63-.94,1.72-2.23,2.45-4.05,1.43-1.85-1.04-1.79-2.52-.81-4.21,1.32-2.28,2.51-4.64,3.82-6.92,1.34-2.34,2.98-4.62-.42-6.7-1.25-.77-.97-1.88-.25-3,.88-1.36,1.93-1.63,3.34-.85,2.88,1.6,5.78,3.17,8.66,4.76,1.51.83,2.96,1.74,2.05,3.84-.78,1.8-2.22,1.69-3.59,1.21Z"/>
      <path class="cls-112" d="m153.98,241.82c-.04.31.05,1.13-.18,1.24-7.03,3.25-2.26,8.37-2.04,12.75.05.99.2,1.99.33,2.97.21,1.61-.56,2.58-2.06,2.89-1.69.35-2.9-.2-3.28-2.1-.55-2.76-1.27-5.48-1.77-8.24-.45-2.5-.52-5.08-4.22-4.82-1.54.11-2.37-1.17-2.52-2.59-.15-1.41.93-2.07,2.13-2.34,3.7-.84,7.41-1.71,11.14-2.38,1.65-.29,2.33.91,2.46,2.63Z"/>
      <path class="cls-101" d="m165.19,250.13c-.61-2.43-1.76-6.1-5.32-8.47-4.02-2.67-4-3.62.2-6.07,5.54-3.22,5.66-2.9,6.81,3.55.64,3.55,1.88,7.25,6.02,8.98,2.8,1.17,3.25,3.21.31,5.08-.98.62-2.01,1.18-3.05,1.69-4.23,2.09-5.36,1.37-4.98-4.75Z"/>
      <path class="cls-112" d="m126.93,136.32c-1.29-.24-2.74-1.21-1.26-4.1,2.32-4.52,1.84-8.7-1.41-12.7-1.62-2-1.8-4.02,1.56-4.59,1.47-.25,2.92-.7,4.39-.79,3.1-.18,4.5,1.11,2.98,4.21-2.26,4.61-1.3,8.72,1.72,12.58,2,2.55,1.51,4.28-1.74,4.88-1.62.3-3.29.29-6.25.52Z"/>
      <path class="cls-126" d="m112.71,237.18c-1.51,3.06-2.84,6.09-4.46,8.96-1.67,2.95-1.96,5.23,1.83,6.63,1.7.63,2.91,1.76,1.79,3.81-1.11,2.03-2.59,1.35-4.25.69q-9.35-3.71-4.88-12.79c1.45-2.96,2.82-5.97,4.34-8.9.66-1.27,1.69-2.05,3.26-1.17,1.17.65,2.36,1.24,2.37,2.78Z"/>
      <path class="cls-41" d="m129.01,240.8c-1.12,0-2.32.25-3.09-.92.07-.37.14-.75.22-1.12.97.08,1.93.16,2.9.23,0,.6-.02,1.21-.03,1.81Z"/>
      <path class="cls-61" d="m170.03,195.05c-1.74,10.14-6.76,18.01-15.99,22.92-1.02.63-1.83-.47-2.79-.32-1.26-.01-2.59.33-3.63-.75-.18-.43-.25-.87-.2-1.33,1.04-2.3,3.77-3.2,4.62-5.72.79-2.36,2.12-4.73.01-6.97-2.07-2.2-4.37-3.94-7.8-3.51-4.38.55-7.33,3.47-10.67,5.81-1.13-.28-1.47-1.18-1.74-2.15-1.31-8.54-5.03-12.12-12.34-11.84-4.94.19-7.08,3.09-5.73,7.97.8,2.87,2.6,5.4,3.01,8.42.06.74-.06,1.44-.44,2.08-2.15,1.29-2.82-.7-3.8-1.8-1.29-1.45-1.91-3.38-3.27-4.85-.9.79-.11,1.91-.59,2.74-.3.69-.7,1.24-1.58,1.08-5.57-9.37-6.66-19.23-3.1-29.54.42-1.21,1.26-2.27,1.9-3.4.64-.43,1.26-.16,1.89.04,4.52-.48,5.26-4.72,8.15-7.59-3.27.52-3.54,4.91-7.02,3.81,1.62-5.42,5.91-8.44,10.37-11.12,21.06-12.65,48.29,2.16,50.72,23.76.48,1.09.63,2.17-.15,3.2-.39.17-.78.16-1.16-.01-.72-.51-1.37-.21-2,.26-.41.16-.81.23-1.25.19-.44-.13-.81-.36-1.11-.71-1.76-3.3-3.63-6.67-8.16-5.76-3.47.7-6.05,5.26-6.06,9.87,0,2.17.12,4.27,1.59,6.1,4.24,5.27,7.04,5.1,12.36-.84.31-.32.68-.56,1.09-.75.4-.12.82-.19,1.24-.23.84-.08,1.48-.54,2.06-1.13.36-.27.76-.36,1.19-.27.88.66.78,1.47.37,2.33Z"/>
      <path class="cls-68" d="m147.81,215.57c.04.41.07.83.11,1.24-.06.7-.43,1.22-.96,1.64-.87.61-1.84.99-2.85,1.31-.91.28-1.8.59-2.14,1.63-.24.54-.61.99-1.06,1.36-12.69,1.46-23.24-2.29-31.02-12.78-.41-.9.17-1.24.87-1.5,1.9.02,2.49,1.8,3.71,2.75,2.37,1.85.46-1.4,1.45-1.24.02-.72.04-1.45.05-2.17.66-.22,1.35-.18,1.85.25,4.25,3.63,8.59,3.09,13.01.38.78.05,1.34.44,1.76,1.08,2.98,6.06,5.11,7.11,11.94,5.8,1.13-.22,2.24-.47,3.28.27Z"/>
      <path class="cls-1" d="m108.92,170.15c2.89-.89,3.66-4.12,6.09-5.49.67-.38,1.6-.77,2.24-.58.85.26,1.05,1.49.56,2.08-2.83,3.34-5.13,7.19-8.79,9.76-.67.47-1.58.02-1.98-.88.31-1.55.49-3.16,1.91-4.2-.03-.23-.04-.46-.04-.69Z"/>
      <path class="cls-39" d="m169.02,185.86c1.1-.77.65-2.05.99-3.07,1.32,4.08,1.27,8.17.02,12.26-.34-.69-.67-1.38-1.01-2.07-1.97-2.37-1.97-4.75,0-7.12Z"/>
      <path class="cls-109" d="m144.01,219.01c.96-.38,1.92-.76,2.88-1.14.93-.68,1.69-.57,2.27.46.08.89-.71,1.09-1.2,1.52-.67.34-1.35.68-2.02,1.02-.33.33-.72.41-1.16.26-.75-.53-1.35-1.12-.78-2.13Z"/>
      <path class="cls-69" d="m147.97,219.86c.29-.36.58-.72.87-1.08.6-1.27,2.42-1.28,2.84-2.74.79.64,1.58,1.28,2.37,1.92-1.63,1.9-3.81,2.04-6.07,1.9Z"/>
      <path class="cls-56" d="m108.96,170.84c.02,1.7-.91,2.96-1.91,4.2-.38-.38-.76-.76-1.14-1.14.03-2,1.11-2.96,3.05-3.06Z"/>
      <path class="cls-50" d="m145,220.69c.3.12.62.18.95.2-1.14,2.09-3.15,1.81-5.04,1.86,0-.63.02-1.25.03-1.88,1.31-1.13,2.69-.72,4.07-.18Z"/>
      <path class="cls-79" d="m110.86,208.93c-.33.35-.65.69-.98,1.04-1.17-.82-2.39-1.61-2.78-3.13.3-.34.59-.68.89-1.02,2.1-.01,3.31.79,2.87,3.12Z"/>
      <path class="cls-19" d="m190.42,147.37c-.53,3.2-2.28,5.43-5.81,5.34-2.81-.07-4.67-1.83-4.62-4.71.07-3.54,2.34-5.43,5.73-5.45,2.86-.02,4.45,1.8,4.7,4.81Z"/>
      <path class="cls-36" d="m108.7,125.39c1.36.11,2.2.76,2.23,2.14.05,1.83-1.3,2.75-2.73,3-1.61.28-2.21-1.11-2.36-2.51-.24-2.16,1.66-2.03,2.86-2.63Z"/>
      <path class="cls-89" d="m195.95,217.22c-3.38-.23-5.99-1.85-6.14-5.61-.14-3.53,2.11-5.66,5.59-5.58,3.55.08,6.16,2.18,6.14,5.85-.01,3.09-2,5.16-5.6,5.35Z"/>
      <path class="cls-47" d="m79.46,218.95c.69-.05,1.35.08,1.51.84.19.89-.19,1.64-1.06,1.93-.93.31-1.61-.14-1.78-1.08-.17-.97.46-1.46,1.33-1.69Z"/>
      <path class="cls-99" d="m130.59,208.7c-2.94,4.29-8.23,4.85-12.01,1.3-.83-.78-1.74-1.47-2.62-2.2-1.34-3.15-3.1-6.19-3.91-9.47-.73-2.93.32-5.97,2.67-8.07,1.5-1.34,11.34-.76,12.39.76,2.45,3.55,6.49,6.4,5.66,11.57-.81,2.01.67,4.83-2.18,6.11Z"/>
      <path class="cls-99" d="m147.81,215.57c-4.4,1.12-8.81,3.83-13.07-.49-1.41-1.42-2.95-2.61-2.63-4.89.09-1.93-.08-3.95,1.73-5.32,3.43-6.4,11.93-8.95,16.78-5.02,5.56,4.49,5.06,10.96-1.13,14.76-.55.34-1.12.64-1.67.96Z"/>
      <path class="cls-99" d="m120.53,186.78c-2.31-.36-5.51,1.45-6.89-2.02-1.44-3.62-2.25-7.3.91-10.59,1.72-1.79,3.23-3.87,5.21-5.31,3.23-2.36,7.18-3.38,10.54-.83,3.26,2.48,3.46,9.85,1.17,12.9-2.74,3.64-5.2,7.65-10.93,5.84Z"/>
      <path class="cls-100" d="m165.06,194.92c-1.23,4.2-4.51,6.25-8.42,6.44-2.95.15-7.66-6.54-7.64-9.95.02-3.6-.62-7.45,2.99-10.02,2.05-1.46,3.57-4.42,6.75-2.93,3.16,1.48,6.38,3.13,6.35,7.43,1.69,3.02,1.71,6.03-.03,9.03Z"/>
      <path class="cls-99" d="m133.67,166.56c.39-2.69,3.1-3.81,5.79-4.47,3.2-.78,13.08,5.21,14.37,8.33,1.73,4.18-1.58,9.64-6.13,10.11-6.01.61-14.31-7.2-14.03-13.97Z"/>
      <path class="cls-122" d="m110.86,208.93c-.54-1.42-1.42-2.53-2.87-3.12.46-1.88-2.51-4.37-.32-5.26,2.33-.95,2.94,2.45,4.2,4.03,1.39,1.76,1.98,4.12,4.04,5.4.41,1.54,2.22,2.53,1.68,4.84-3.32-.85-4.44-4.1-6.73-5.88Z"/>
      <path class="cls-107" d="m140,157.42c5.7-.1,9.52,1.62,13.22,3.71.83.47,1.94,1.17,1.27,2.29-.55.91-1.83.85-2.73.49-3.73-1.52-7.64-2.75-11.76-6.49Z"/>
      <path class="cls-87" d="m133.83,204.87c-.06,1.94-.79,3.66-1.73,5.32-.5-.5-1-.99-1.51-1.49.41-2.15.98-4.24,2.18-6.11.35.76.7,1.52,1.05,2.28Z"/>
      <path class="cls-49" d="m166.73,194.95c-.27-.02-.55-.04-.82-.05-.77-2.99-.77-5.99,0-8.98.26,0,.52-.01.78-.02.22.16.44.33.66.49.97,2.1.43,4.31.5,6.48-.07.86-.35,1.6-1.12,2.09Z"/>
      <path class="cls-91" d="m165.9,185.91c0,2.99,0,5.99,0,8.98-.28,0-.56.01-.84.03,0-3.01.02-6.02.03-9.03.27.01.54.02.82.02Z"/>
      <path class="cls-113" d="m169.02,185.86c0,2.37,0,4.75,0,7.12,0,0-.11-.06-.11-.06-.52.35-.97.28-1.36-.22-.28-2.12-.09-4.25-.13-6.37.08-.83.22-1.6,1.37-1.29,0,.29.07.56.22.81Z"/>
      <path class="cls-44" d="m151.67,216.04c.29,2.19-1.35,2.38-2.84,2.74-.42-.79-1.19-.82-1.94-.9.34-.36.68-.71,1.02-1.07,1.36.25,2.58-.17,3.76-.77Z"/>
      <path class="cls-45" d="m167.91,192.89c.33,0,.67.02,1,.03-.27,1.17.73,3.71-2.19,2.03.1-.7.19-1.4.29-2.1.32-.42.62-.41.89.04Z"/>
      <path class="cls-43" d="m168.8,185.04c-.29.3-.59.6-.88.9-.25.4-.52.41-.81.03,0,0-.43-.08-.43-.08.54-.87-.17-2.65,1.61-2.55.67.04.63,1.03.51,1.7Z"/>
      <path class="cls-40" d="m145,220.69c-1.36.06-2.71.12-4.07.18.16-2.06,1.59-2.01,3.08-1.85.33.56.66,1.11.99,1.67Z"/>
      <path class="cls-106" d="m167.11,185.97c.27-.03.54-.04.81-.03,0,2.32,0,4.63,0,6.95,0,0-.45.01-.45.01,0,0-.45-.06-.45-.06.03-2.29.06-4.58.09-6.87Z"/>
    </g>
  </g>
</svg>