<?xml version="1.0" encoding="UTF-8"?>
<svg id="Layer_2" data-name="Layer 2" xmlns="http://www.w3.org/2000/svg" xmlns:xlink="http://www.w3.org/1999/xlink" viewBox="0 0 342.96 454.8">
  <defs>
    <style>
      .cls-1 {
        clip-path: url(#clippath);
      }

      .cls-2, .cls-3, .cls-4, .cls-5, .cls-6, .cls-7 {
        stroke-width: 0px;
      }

      .cls-2, .cls-8, .cls-9 {
        fill: none;
      }

      .cls-3 {
        fill: #000200;
      }

      .cls-3, .cls-4, .cls-5, .cls-6, .cls-7 {
        fill-rule: evenodd;
      }

      .cls-4 {
        fill: #3d9f62;
      }

      .cls-5 {
        fill: #dfbc58;
      }

      .cls-6 {
        fill: #fff;
      }

      .cls-7 {
        fill: #b99c40;
      }

      .cls-8 {
        stroke: #1b1918;
      }

      .cls-8, .cls-9 {
        stroke-width: .43px;
      }

      .cls-9 {
        stroke: #fff;
      }
    </style>
    <clipPath id="clippath">
      <rect class="cls-2" width="342.96" height="454.8"/>
    </clipPath>
  </defs>
  <g id="Layer_1-2" data-name="Layer 1">
    <g>
      <g class="cls-1">
        <path class="cls-3" d="m25.73,107.22l74.94-38.27c14.69,22.85,37.4,34.28,70.55,34.28s55.87-11.43,70.56-34.28l74.94,38.27c-3.95,50.14,3.94,86.98,25.51,108.43.79,124.95-67.63,207.63-171.01,237.98C67.85,423.28-.57,340.59.22,215.64c21.57-21.45,29.46-58.28,25.51-108.43h0Z"/>
        <path class="cls-8" d="m25.73,107.22l74.94-38.27c14.69,22.85,37.4,34.28,70.55,34.28s55.87-11.43,70.56-34.28l74.94,38.27c-3.95,50.14,3.94,86.98,25.51,108.43.79,124.95-67.63,207.63-171.01,237.98C67.85,423.28-.57,340.59.22,215.64c21.57-21.44,29.46-58.28,25.51-108.43h0Z"/>
      </g>
      <path class="cls-4" d="m283.65,98.68l-39.48-20.16c-17.66,23.37-43.17,32.15-72.95,32.15s-55.28-8.78-72.95-32.15l-64.78,33.08c2.32,35.88-.49,79.62-25.85,107.05.17,63.12,18.73,123.53,64.03,169.1,1.93,1.94,3.89,3.83,5.87,5.68l41.98-60.04c-23.71-16.28-39.27-43.59-39.27-74.53,0-49.9,40.45-90.35,90.35-90.35,19.56,0,37.68,6.22,52.47,16.78l60.56-86.61Z"/>
      <path class="cls-6" d="m334.8,218.65c-25.36-27.42-28.17-71.17-25.85-107.05l-18.61-9.5-61.38,87.78c19.58,16.57,32.02,41.33,32.02,68.99,0,49.9-40.45,90.35-90.36,90.35-16.29,0-31.58-4.32-44.78-11.86l-42.71,61.08c25.49,22.08,55.7,37.63,88.09,47.41,37.39-11.29,71.87-30.27,99.54-58.11,45.3-45.57,63.86-105.98,64.03-169.1h0Z"/>
      <path class="cls-5" d="m170.27.79l8.81,27.71,29.07-.19-23.63,16.94,9.16,27.59-23.41-17.24-23.41,17.24,9.16-27.59-23.63-16.94,29.07.19L170.27.79Z"/>
      <path class="cls-7" d="m191.19,69.41l-20.16-14.84-.9-14.16-20.78,29,7.89-23.76,12.46-5.75-33.27-10.29,25.03.16,8.76,9.84.05-34.59,7.58,23.85-7.15,10.66,33.42-9.93-20.35,14.59-13.14-4.01,20.56,29.22Z"/>
      <path class="cls-6" d="m170.63,175.95c45.79,0,82.91,37.13,82.91,82.92,0,33.54-20.2,63.77-51.18,76.6-30.98,12.84-66.64,5.74-90.35-17.97-23.71-23.71-30.81-59.38-17.98-90.36,12.84-30.98,43.07-51.18,76.6-51.18h0Z"/>
      <path class="cls-9" d="m170.63,175.95c45.79,0,82.91,37.12,82.91,82.91,0,33.54-20.2,63.77-51.18,76.6-30.98,12.84-66.64,5.74-90.35-17.97-23.71-23.71-30.81-59.37-17.98-90.36,12.84-30.98,43.07-51.18,76.6-51.18h0Z"/>
      <path class="cls-3" d="m141.02,317.76l5.76,14.97c-31.19-10.06-53.75-39.33-53.75-73.86,0-37.24,26.23-68.35,61.22-75.87l-5.89,13.82c-25.44,9.13-43.64,33.46-43.64,62.05,0,25.75,14.77,48.05,36.3,58.9h0Z"/>
      <path class="cls-3" d="m212.28,309.94v14.41c21.61-13.77,35.94-37.95,35.94-65.48s-14.33-51.7-35.94-65.48v106.37l12.36-15.15v-63.51c7,9.98,11.29,22,11.83,34.98l-7.45-6.15v14.35l5.42,11.1c-3.55,13.79-11.46,25.83-22.16,34.57h0Z"/>
      <path class="cls-3" d="m171.23,321.23v17.18c-26.12-16.43-43.45-45.26-43.45-78.1s17.33-61.66,43.45-78.09v126.86l-14.94-18.07v-75.74c-8.46,11.91-13.65,26.23-14.3,41.72l9-7.34v17.11l-6.55,13.24c4.3,16.44,13.85,30.8,26.79,41.22h0Z"/>
      <path class="cls-3" d="m174.82,196.21c-2.1-22.66,32.08-14.93,31.89,11.86v21.08h-12.41v-12.91c0-4.35-6.33-4.32-6.33-.4v23.52l18.73,24.22-1.1,50.72c-.27,12.72-2.56,19.43-11.31,18.75-12.14-.93-19.49-12.28-19.49-23.04v-24.21l11.51-.05v19.78c0,5.05,10.02,4.62,10.02.2v-33.09l-21.53-23.91v-52.52Z"/>
    </g>
  </g>
</svg>