<?xml version="1.0" encoding="UTF-8"?>
<svg id="Layer_2" data-name="Layer 2" xmlns="http://www.w3.org/2000/svg" viewBox="0 0 100.44 131.81">
  <defs>
    <style>
      .cls-1 {
        fill: none;
        stroke: #1b1918;
        stroke-width: .16px;
      }

      .cls-2 {
        fill: #67b738;
      }

      .cls-2, .cls-3, .cls-4, .cls-5, .cls-6, .cls-7, .cls-8, .cls-9, .cls-10, .cls-11, .cls-12, .cls-13, .cls-14, .cls-15, .cls-16 {
        fill-rule: evenodd;
      }

      .cls-2, .cls-3, .cls-4, .cls-5, .cls-6, .cls-7, .cls-8, .cls-9, .cls-10, .cls-11, .cls-12, .cls-13, .cls-14, .cls-15, .cls-16, .cls-17 {
        stroke-width: 0px;
      }

      .cls-3 {
        fill: #00c8de;
      }

      .cls-4, .cls-17 {
        fill: #1b1918;
      }

      .cls-5 {
        fill: #201a1a;
      }

      .cls-6 {
        fill: #c60b1e;
      }

      .cls-7 {
        fill: #c3c5c6;
      }

      .cls-8 {
        fill: #ffb764;
      }

      .cls-9 {
        fill: #ff0645;
      }

      .cls-10 {
        fill: #ffc400;
      }

      .cls-11 {
        fill: #f6bd64;
      }

      .cls-12 {
        fill: #fff;
      }

      .cls-13 {
        fill: #00a43e;
      }

      .cls-14 {
        fill: #735c48;
      }

      .cls-15 {
        fill: #9c9e9f;
      }

      .cls-16 {
        fill: #faba60;
      }
    </style>
  </defs>
  <g id="Layer_1-2" data-name="Layer 1">
    <g>
      <path class="cls-4" d="m96.91,45.47c-1.11,3.34-9.71,8.02-13.74,6.15,10.04-.07,14.85-8.77,17.27-11.2-2.32-.91-5.07,3.26-5.07,3.26,1.22-1.49-.36-9.18-.57-8.21-.21.96-1.95-.08-2.46-2.81-.51-2.73-7.76-11.21-9.45-5.14,8.6,4.02,1.04,16.12,1.04,16.12,0,0-2.18-3.31-2.18-1.8s-3.19,3.46-4.84,4.43c-1.65.96-7.15,2.88-7.64,5.59-.49,2.71,5.41,3.73,5.41,4.41s-3.43,2.2-4.68,1.91c-1.26-.29-2.88-2.25-2.88-2.25,0,0,1.82-.07,1.82-.63s-3.74-5.99-2.72-5.51c1.02.47,3.9-1.24,3.6-1.55-.3-.3-3.92.44-3.92-.76,3.05.22,2.12-.32,2.12-.32,0,0-1.11-.66-1.21-2.02-.34-4.55,4.19-4.57,4.45-4.84.26-.27,2.33,1.03,3.91-.54,1.58-1.58,3.73-.42,3.73-.42,0,0,.82-1.73-.18-2.73-1-1-5.68-.98-5.68-.98,0,0,.2-.65-1.95-1.09-2.14-.43-4.27,1.43-6.99.84-2.28-.49-1.97,1-3.55-.71-.83,2.36.97,1.72.48,2.66-1.57,2.97-3.39-.09-3.96,1.2-.57,1.28,1.93,3.67-.63,2.4-2.57-1.27-2.23-1.12-2.05.12.21,1.67,3.31,2.63,1.5,3.13-1.81.5-3.13-1.55-3.13-.56,0,2.62,2,3.01,2,3.01,0,0,.22.15-.72.47-.93.32-1.28-.99-1.28-.16,0,1.45.86,2.44.86,2.44l-3.02.55-3.8-.55s.85-.99.85-2.44c0-.84-.34.47-1.28.16-.93-.32-.72-.47-.72-.47,0,0,2-.39,2-3.01,0-.99-1.32,1.07-3.12.56-1.81-.5,1.28-1.46,1.5-3.13.17-1.24.52-1.39-2.05-.12-2.57,1.27-.07-1.12-.64-2.4-.57-1.28-2.39,1.77-3.96-1.2-.49-.94,1.31-.3.48-2.66-1.58,1.71-1.27.23-3.56.71-2.72.58-4.85-1.28-6.99-.84-2.14.43-1.95,1.09-1.95,1.09,0,0-4.68-.02-5.68.98-1,1-.18,2.73-.18,2.73,0,0,2.15-1.16,3.73.42s3.64.28,3.91.54c.26.27,4.79.29,4.45,4.84-.1,1.35-1.2,2.02-1.2,2.02,0,0-.93.53,2.13.32,0,1.21-3.62.47-3.93.76-.3.3,2.58,2.02,3.6,1.55,1.02-.47-2.71,4.96-2.71,5.51s1.82.63,1.82.63c0,0-1.62,1.96-2.88,2.25-1.26.29-4.69-1.23-4.69-1.91s5.9-1.7,5.41-4.41c-.49-2.71-5.99-4.63-7.65-5.59-1.65-.97-4.84-2.92-4.84-4.43s-2.17,1.8-2.17,1.8c0,0-7.57-12.1,1.04-16.12-1.7-6.07-8.95,2.41-9.46,5.14-.51,2.73-2.24,3.77-2.45,2.81-.21-.96-1.8,6.72-.58,8.21,0,0-2.75-4.17-5.07-3.26,2.42,2.42,7.23,11.13,17.28,11.2-4.04,1.87-12.64-2.8-13.74-6.15-1.1-3.34-3.32,11.7,7.37,11.08.56,1.07-6.69,1.37-6.04,7.05,3.18-.41,5.52-2.71,6.41-1.18.89,1.53-3.56,4.83-3.56,5.62s7.81-1.83,6.83-.54c-.99,1.29-2.72,3.06-2.72,3.99s4.53-1.65,4.53-.72-5.45,4.33-5.45,4.33c4.48.93,5.93-3.85,6.36-3.42.42.42-1.12,3.81-2.92,5.61-1.8,1.8,2.97.86,6.11-2.28,1.55-.49,0,3.87-1.01,5.26.54.54,5.1-3.3,5.1-3.3,0,0-.6,3.11-1.09,4.24,1,0,1.74-4.54,2.18-4.54s-.09,1.2.21,1.5c.3.31,1.41-1.84,1.9-1.81.49.03,2.93,6.09,2.93,6.09,0,0-1.36.93-.98,2.4.38,1.47,1.18.65,1.89.63.71-.03-1.27.61-.22,1.95,1.05,1.34,2.05.3,2.05.3,0,0-.66,1.74-.06,2.65.61.92,3.18-.48,3.42-1.62.23-1.14,2.96,2.9.27,3.57-5.88-.04-1.22,3.81-.31,3.7.9-.12.03-1.48,1.3-.58,1.71,3.76,3.31-3.56,3.88-3.56s-.99,6.29-3.42,6.29c-1.69,0,.76-1.97-6.91-.59-1.26.6.68,2.23.54,2.86-.13.63-1.61.95-1.61,1.37.11.88,1.62,2.29,1.62,2.29,0,0-4.64-.46-4.55-4.26.09-3.8,5.09-4.1,5.09-5.64s-3.75-5.89-8.69-.15c-3.28,3.89,1.33,9.49,1.33,10.45-2.83.29-4.7,3.56-4.7,4.74s2.12,1.24,2.12,1.24c0,0-1,2.84,1.05,2.84,2.34,0,.65-4.72,6.32-5.85,5.68-1.12,9.35-6.92,10.16-5.89,2.12,2.12-14.17,6.46-13.6,14.03.36,2.44,1.75.95,1.75.95,0,0,1.54,4.87,3.44,4.87s.17-2.07.17-2.07c0,0,5.6.7,4.48-.74-1.12-1.44-4.88-1.74-2.81-5.93,2.07-4.19,8.99-11.61,8.99-11.61,0,0-4.06,12.59-.19,13.72,3.87,1.12.04-2.73.62-6.7.59-3.97,1.98-6.11,2.83-6.11s-.96,2.36-.16,2.13c.8-.23,1.04-2.53,2.37-3.86,1.33-1.33-2.04,9.63-3.57,10.22-1.53.59.39,2.39,3.9,1.31.79.79-1.58,4.7-7.16,4.95-.43,1.6,1.07,1.96,2.32,1.96s-.14,1.18.65,1.55c.79.38,1.46-.88,2.49-.88s-1.78,3.44-.71,5.72c.63,2.07,1.01-1.56,2.03-1.56s.09,6.28,2.08,8.26h.07c1.98-1.98,1.06-8.26,2.08-8.26s1.4,3.63,2.03,1.56c1.07-2.28-1.74-5.72-.71-5.72s1.7,1.26,2.49.88c.79-.38-.59-1.55.65-1.55s2.75-.36,2.33-1.96c-5.58-.24-7.94-4.16-7.16-4.95,3.51,1.08,5.43-.72,3.9-1.31-1.53-.59-4.9-11.56-3.57-10.22,1.33,1.33,1.57,3.63,2.37,3.86.79.23-1.02-2.13-.17-2.13s2.24,2.13,2.83,6.11c.58,3.97-3.25,7.82.63,6.7,3.87-1.12-.19-13.72-.19-13.72,0,0,6.92,7.43,8.98,11.61,2.07,4.19-1.69,4.49-2.81,5.93-1.12,1.43,4.47.74,4.47.74,0,0-1.71,2.07.18,2.07s3.44-4.87,3.44-4.87c0,0,1.39,1.49,1.75-.95.57-7.58-15.72-11.92-13.6-14.03.81-1.03,4.48,4.77,10.16,5.89,5.68,1.12,3.99,5.85,6.32,5.85,2.06,0,1.05-2.84,1.05-2.84,0,0,2.13-.07,2.13-1.24s-1.87-4.45-4.71-4.74c0-.96,4.61-6.56,1.33-10.45-4.95-5.75-8.69-1.4-8.69.15s5,1.84,5.1,5.64c.09,3.8-4.55,4.26-4.55,4.26,0,0,1.5-1.4,1.62-2.29,0-.43-1.48-.74-1.62-1.37-.14-.63,1.8-2.26.54-2.86-7.66-1.38-5.21.59-6.91.59-2.43,0-3.99-6.29-3.42-6.29s2.16,7.32,3.88,3.56c1.27-.9.4.46,1.3.58.9.11,5.56-3.74-.31-3.7-2.69-.67.04-4.71.27-3.57.23,1.13,2.8,2.54,3.41,1.62.61-.92-.06-2.65-.06-2.65,0,0,1,1.03,2.04-.3,1.05-1.33-.93-1.97-.22-1.95.71.02,1.5.84,1.89-.63.38-1.47-.98-2.4-.98-2.4,0,0,2.43-6.05,2.92-6.09.49-.03,1.6,2.12,1.91,1.81.31-.3-.24-1.5.21-1.5s1.18,4.54,2.18,4.54c-.49-1.12-1.09-4.24-1.09-4.24,0,0,4.56,3.84,5.1,3.3-1.02-1.4-2.56-5.75-1.01-5.26,3.14,3.14,7.9,4.07,6.1,2.28-1.8-1.8-3.34-5.19-2.92-5.61.42-.42,6.14,5.02,6.35,3.42-1.32-1.63-5.44-3.4-5.44-4.33s4.53,1.65,4.53.72-1.74-2.7-2.73-3.99c-.98-1.28,6.84,1.33,6.84.54s-4.46-4.09-3.56-5.62c.89-1.53,3.23.77,6.41,1.18.66-5.68-6.59-5.98-6.04-7.05,10.7.62,8.48-14.43,7.38-11.08h0Z"/>
      <path class="cls-12" d="m73.19,35.88s-.91,3.1-2.14,3.5c-1.23.4.51.77.51.77,0,0,1.4.59,2.42.23,1.03-.36,1.04-1.12,2.24-1.46,1.37-.39,2.56.27,2.56.27.36-.55,1.8-3.78-5.59-3.31h0Z"/>
      <path class="cls-1" d="m73.19,35.87s-.91,3.1-2.14,3.5c-1.23.4.51.77.51.77,0,0,1.4.59,2.42.23,1.03-.36,1.04-1.12,2.24-1.46,1.37-.39,2.56.27,2.56.27.36-.55,1.8-3.78-5.59-3.31h0Z"/>
      <path class="cls-12" d="m72.07,37.49c-1.76-.29-1.61.38-2.27.38s-1.2-.3-1.2-.67.53-.68,1.2-.68,2.64,1.03,2.27.97h0Z"/>
      <path class="cls-1" d="m72.07,37.49c-1.76-.29-1.61.38-2.27.38s-1.2-.3-1.2-.67.53-.68,1.2-.68,2.64,1.03,2.27.97h0Z"/>
      <path class="cls-12" d="m27.3,35.88s.91,3.1,2.14,3.5c1.23.4-.51.77-.51.77,0,0-1.39.59-2.42.23-1.03-.36-1.03-1.12-2.23-1.46-1.37-.39-2.56.27-2.56.27-.37-.55-1.8-3.78,5.59-3.31h0Z"/>
      <path class="cls-1" d="m27.3,35.87s.91,3.1,2.14,3.5c1.23.4-.51.77-.51.77,0,0-1.39.59-2.42.23-1.03-.36-1.03-1.12-2.23-1.46-1.37-.39-2.56.27-2.56.27-.37-.55-1.8-3.78,5.59-3.31h0Z"/>
      <path class="cls-12" d="m28.42,37.49c1.76-.29,1.61.38,2.27.38s1.2-.3,1.2-.67-.54-.68-1.2-.68-2.64,1.03-2.27.97h0Z"/>
      <path class="cls-1" d="m28.42,37.49c1.76-.29,1.61.38,2.27.38s1.2-.3,1.2-.67-.54-.68-1.2-.68-2.64,1.03-2.27.97h0Z"/>
      <path class="cls-12" d="m71.23,70.89c0,11.98-9.71,21.68-21.68,21.68s-21.68-9.71-21.68-21.68,9.71-21.68,21.68-21.68,21.68,9.71,21.68,21.68h0Z"/>
      <path class="cls-1" d="m71.23,70.89c0,11.98-9.71,21.68-21.68,21.68s-21.68-9.71-21.68-21.68,9.71-21.68,21.68-21.68,21.68,9.71,21.68,21.68h0Zm0,0c0,11.98-9.71,21.68-21.68,21.68s-21.68-9.71-21.68-21.68,9.71-21.68,21.68-21.68,21.68,9.71,21.68,21.68h0Zm-7.67-.11c0,7.9-6.4,14.3-14.3,14.3s-14.31-6.4-14.31-14.3,6.4-14.3,14.31-14.3,14.3,6.41,14.3,14.3h0Z"/>
      <path class="cls-4" d="m51.41,63.38v-5.18h.26v5.24l-.26-.06Z"/>
      <path class="cls-7" d="m51.73,58.21s1.1-.29,1.51.59c.41.88,2.07.9,2.41.9,0,0-.03.23-.4.6-.38.38-.14.98.53,1.11,0,0-.98.55-2.93-.62-1.03-.62-1.07-.11-1.11-.07v-2.51Z"/>
      <path class="cls-1" d="m51.73,58.21s1.1-.29,1.51.59c.41.88,2.07.9,2.41.9,0,0-.03.23-.4.6-.38.38-.14.98.53,1.11,0,0-.98.55-2.93-.62-1.03-.62-1.07-.11-1.11-.07v-2.52Z"/>
      <path class="cls-4" d="m51.73,59.95s1.16-.23,1.48.39c.31.62,1.74.97,2,.76,0,0,.25.28.57.32,0,0-.98.55-2.93-.62-1.03-.62-1.07-.11-1.11-.07v-.78Z"/>
      <path class="cls-1" d="m51.73,59.95s1.16-.23,1.48.39c.31.62,1.74.97,2,.76,0,0,.25.28.57.32,0,0-.98.55-2.93-.62-1.03-.62-1.07-.11-1.11-.07v-.78Z"/>
      <path class="cls-4" d="m51.73,58.21s.99-.26,1.43.46c.49.89,1.27.95,2.49,1.03,0,0-.11.34-.17.34,0,0-1.61.14-2.63-.99-.55-.43-1.07-.11-1.11-.06v-.78Z"/>
      <path class="cls-1" d="m51.73,58.21s.99-.26,1.43.46c.49.89,1.27.95,2.49,1.03,0,0-.11.34-.17.34,0,0-1.61.14-2.63-.99-.55-.43-1.07-.11-1.11-.06v-.78Z"/>
      <path class="cls-4" d="m48.81,77.23c.38-.07,1.24.55.4,1.79l-.4-1.79Z"/>
      <path class="cls-1" d="m48.81,77.23c.38-.07,1.24.55.4,1.79l-.4-1.79Zm0,0c.38-.07,1.24.55.4,1.79l-.4-1.79Z"/>
      <rect class="cls-17" x="46.2" y="59.78" width=".47" height="3.68"/>
      <path class="cls-4" d="m49.04,60.32c0-.19-.12-.35-.3-.42,0-.01,0-.02,0-.04,0-.21-.13-.39-.31-.46.08-.07.13-.16.13-.28,0-.2-.15-.36-.34-.36h-.02c0-.25-.15-.45-.35-.56-.04-.23-.16-.42-.32-.56-.09-.22-.31-.37-.57-.37-.27,0-.49.18-.58.42,0,0-.01.02-.02.03-.03,0-.07-.02-.1-.02-.31,0-.55.19-.61.43-.17.05-.32.14-.39.3-.44.02-.79.37-.82.81-.27.01-.48.23-.48.5,0,.12.05.23.13.32-.05.09-.08.2-.08.31,0,.39.31.7.7.7.12,0,.23-.04.33-.09.14.13.34.22.55.22.07,0,.13-.01.19-.03.14.24.39.41.69.41.17,0,.32-.06.45-.15.09.09.21.15.36.15.24,0,.43-.17.47-.39.02,0,.02,0,.04,0,.06,0,.11-.02.17-.04.08.07.18.12.29.12.25,0,.46-.22.46-.5,0-.02,0-.02-.01-.04.2-.06.35-.23.35-.43h0Z"/>
      <path class="cls-1" d="m49.04,60.32c0-.19-.12-.35-.3-.42,0-.01,0-.02,0-.03,0-.22-.13-.39-.31-.46.08-.07.13-.16.13-.28,0-.2-.15-.36-.34-.36h-.02c0-.25-.15-.45-.35-.56-.04-.23-.16-.42-.32-.56-.09-.21-.31-.37-.57-.37-.27,0-.49.18-.58.42,0,0-.01.02-.02.03-.03,0-.07-.02-.1-.02-.31,0-.55.19-.61.43-.17.05-.32.14-.39.3-.44.02-.79.37-.82.8-.27.01-.48.23-.48.5,0,.12.05.23.13.32-.05.09-.08.2-.08.31,0,.39.31.7.7.7.12,0,.23-.04.33-.09.14.13.34.22.55.22.07,0,.13-.01.19-.03.14.24.39.41.69.41.17,0,.32-.06.45-.15.09.09.21.15.36.15.24,0,.43-.17.47-.39.02,0,.02,0,.04,0,.06,0,.11-.02.17-.03.08.07.18.12.29.12.25,0,.46-.22.46-.5,0-.02,0-.02-.01-.04.2-.06.35-.23.35-.43h0Z"/>
      <path class="cls-12" d="m66.23,87.37s-1.28-1.85-1.88-1.24c-.6.61-1.92,1.01-.73,2.34,1.19,1.33,2.78,2.11,2.94,1.86.16-.25.8-1.73-.34-2.96h0Z"/>
      <path class="cls-1" d="m66.23,87.37s-1.28-1.85-1.88-1.24c-.6.61-1.92,1.01-.73,2.34,1.19,1.33,2.78,2.11,2.94,1.86.16-.25.8-1.73-.34-2.96h0Z"/>
      <path class="cls-15" d="m71.35,70.88c0,6.05-2.45,11.53-6.42,15.5-3.97,3.96-9.45,6.42-15.5,6.42s-11.53-2.45-15.5-6.42c-3.96-3.97-6.42-9.45-6.42-15.5s2.45-11.53,6.42-15.5c3.97-3.97,9.45-6.42,15.5-6.42s11.53,2.45,15.5,6.42c3.97,3.96,6.42,9.44,6.42,15.5h0Zm-6.75,15.16c3.88-3.88,6.28-9.24,6.28-15.16s-2.4-11.28-6.28-15.16c-3.88-3.88-9.24-6.28-15.16-6.28s-11.28,2.4-15.16,6.28c-3.88,3.88-6.28,9.24-6.28,15.16s2.4,11.28,6.28,15.16c3.88,3.88,9.24,6.28,15.16,6.28s11.28-2.4,15.16-6.28h0Z"/>
      <path class="cls-4" d="m66.17,87.41s-1.22-1.77-1.75-1.22c-.13.13-.29.25-.46.38-.12.1-.25.19-.36.29-.39.35-.6.79.09,1.56.53.59,1.15,1.08,1.67,1.41.3.19.58.33.79.41.19.07.31.09.35.06.09-.16.38-.79.29-1.53-.05-.43-.22-.89-.62-1.33h0Zm-1.87-1.34c.65-.66,1.91,1.12,2,1.24.43.46.61.96.66,1.42.09.79-.22,1.46-.32,1.63,0,.01-.02.02-.03.03h0c-.08.07-.26.06-.51-.03-.22-.08-.51-.22-.82-.42-.54-.34-1.16-.83-1.71-1.43-.79-.88-.54-1.38-.08-1.79.12-.1.25-.2.37-.3.16-.12.32-.23.44-.36h0Z"/>
      <path class="cls-12" d="m67.93,84.94s-1.39-1.72-1.96-1.09c-.57.62-1.88,1.08-.6,2.3,1.27,1.22,2.91,1.9,3.06,1.64.14-.25.71-1.72-.5-2.85h0Z"/>
      <path class="cls-1" d="m67.93,84.94s-1.39-1.72-1.96-1.09c-.57.62-1.88,1.08-.6,2.3,1.27,1.22,2.91,1.9,3.06,1.64.14-.25.71-1.71-.5-2.85h0Z"/>
      <path class="cls-4" d="m67.86,84.99s-1.33-1.65-1.84-1.09c-.12.14-.28.26-.44.39-.14.12-.29.23-.4.36-.34.35-.47.77.23,1.45.49.48,1.05.87,1.54,1.15.37.21.71.36.97.45.23.07.39.1.43.06.09-.16.34-.78.21-1.5-.07-.41-.27-.86-.7-1.26h0Zm-1.95-1.2c.62-.68,2.02,1.02,2.07,1.09.45.43.66.9.74,1.34.13.77-.14,1.43-.24,1.6,0,.01-.01.02-.02.03-.09.09-.3.08-.6-.02-.27-.08-.61-.24-.99-.46-.51-.29-1.07-.69-1.57-1.18-.8-.77-.63-1.26-.24-1.68.12-.13.27-.25.42-.37.15-.12.31-.25.42-.38h0Zm2.45,3.96h0,0Z"/>
      <path class="cls-12" d="m69.69,82.61s-1.51-1.69-2.07-1.02-1.88,1.2-.52,2.39c1.37,1.19,3.1,1.8,3.24,1.53.14-.27.65-1.79-.65-2.9h0Z"/>
      <path class="cls-1" d="m69.69,82.61s-1.51-1.69-2.07-1.02c-.56.67-1.88,1.2-.52,2.39,1.37,1.19,3.1,1.8,3.24,1.53.14-.27.65-1.79-.65-2.9h0Z"/>
      <path class="cls-4" d="m69.63,82.67s-1.45-1.62-1.95-1.02c-.12.14-.27.28-.43.42-.15.13-.29.26-.41.4-.32.37-.43.81.32,1.46.52.45,1.08.82,1.59,1.08.4.21.77.35,1.06.43.25.07.42.09.46.04.09-.16.31-.81.15-1.54-.09-.42-.32-.86-.78-1.25h0s0,0,0,0Zm-2.07-1.13c.6-.72,2.09.91,2.19,1.02.49.42.73.89.83,1.34.18.78-.07,1.48-.16,1.65,0,.01-.01.02-.02.03-.08.09-.31.09-.63,0-.29-.08-.67-.23-1.09-.45-.52-.27-1.1-.64-1.62-1.1-.86-.75-.72-1.25-.34-1.69.12-.14.27-.28.42-.41.15-.13.3-.27.42-.4h0Zm2.71,3.93h0"/>
      <path class="cls-12" d="m34.09,87.21s1.43-1.9,2.07-1.25c.64.64,2.08,1.08.75,2.44-1.33,1.36-3.08,2.15-3.25,1.88-.17-.26-.84-1.8.42-3.07h0Z"/>
      <path class="cls-1" d="m34.09,87.21s1.43-1.9,2.07-1.25c.64.64,2.08,1.08.75,2.44-1.33,1.36-3.08,2.14-3.25,1.88-.17-.27-.84-1.8.42-3.07h0Zm0,0s1.43-1.9,2.07-1.25c.64.64,2.08,1.08.75,2.44-1.33,1.36-3.08,2.14-3.25,1.88-.17-.27-.84-1.8.42-3.07h0Z"/>
      <path class="cls-12" d="m32.34,84.74s1.38-1.86,2.01-1.23c.63.63,2.02,1.05.74,2.39-1.29,1.34-2.99,2.11-3.15,1.86-.16-.26-.83-1.77.4-3.01h0Z"/>
      <path class="cls-1" d="m32.34,84.74s1.38-1.86,2.01-1.23c.63.63,2.02,1.05.74,2.39-1.29,1.34-2.99,2.11-3.15,1.86-.16-.26-.83-1.77.4-3.01h0Zm0,0s1.38-1.86,2.01-1.23c.63.63,2.02,1.05.74,2.39-1.29,1.34-2.99,2.11-3.15,1.86-.16-.26-.83-1.77.4-3.01h0Z"/>
      <path class="cls-12" d="m30.54,82.8s1.23-1.69,1.79-1.12c.55.58,1.78.96.65,2.18-1.14,1.21-2.65,1.92-2.79,1.68-.14-.23-.73-1.61.36-2.74h0Z"/>
      <path class="cls-1" d="m30.54,82.8s1.23-1.69,1.79-1.12c.55.57,1.78.96.65,2.17-1.14,1.21-2.65,1.92-2.79,1.68-.14-.23-.73-1.61.36-2.74h0Zm0,0s1.23-1.69,1.79-1.12c.55.57,1.78.96.65,2.17-1.14,1.21-2.65,1.92-2.79,1.68-.14-.23-.73-1.61.36-2.74h0Z"/>
      <path class="cls-2" d="m71.55,20.16c4.25-5.79-4.77-11.62-9.89-9.5-1.24-2.54-6.38-3.97-9.44-1.87.88-.6.3-1.84-.5-1.43,1.27-1.62.33-3.12-.9-3.56v-1.53h.84v-1.09h-.93V0h-1.03v1.18h-.93v1.09h.84v1.53c-1.22.44-2.16,1.94-.89,3.56-.81-.41-1.38.83-.5,1.43-3.07-2.1-8.2-.67-9.45,1.87-5.1-2.13-14.13,3.71-9.88,9.5-.19.66.2.87-.36,1.32-.18.18-.24.45-.37.85.96.04,2.28.91,2.87,1.73-.39.85.37,1.31.77,1.04,1.33.63,1.57,2.17,2.93,2.61.11.23-.1.58.11.75l.96.52c.08.2-.33.76-.37,1l1.25.67.14.33c-.59,0-1.01.89-.25,1.06,4.45.48,8.99.72,13.65.76,4.67-.04,9.2-.28,13.66-.76.75-.17.34-1.06-.25-1.06l.14-.33,1.25-.67c-.04-.24-.45-.8-.38-1l.97-.52c.2-.16,0-.52.1-.75,1.37-.44,1.61-1.98,2.94-2.61.4.28,1.16-.19.77-1.04.59-.82,1.91-1.69,2.87-1.73-.13-.41-.19-.67-.37-.85-.55-.45-.17-.66-.35-1.32h0Zm-.2-.35c-.6.09-.54-.59-.25-1,.5-.73,1.22-1.89.96-3.19.44,1.33.38,2.67-.71,4.19h0Zm-8.36-8.41c1.45-.39,3.5.14,5.27,1.06,1.68,1.04,4.18,2.96,2.09,5.54-1.97-1.59-7.08-2.09-9.57-1.7-.42.13,3.11-3.58,1.26-4.58.06-.06.55-.32.96-.32h0Zm-10.72-1.29c2.7-2.61,11.59-.43,7.88,5.29-2.62-1.34-4.16-2-7.71-2.23-.15-.93.03-2.04-.17-3.06h0Zm-4.27,3.06c-3.54.22-5.07.89-7.7,2.23-3.71-5.71,5.17-7.9,7.87-5.29-.2,1.02-.01,2.13-.17,3.06h0Zm-8.65,2.76c-4.03-1.41-7.3.46-9.27,2.05-2.07-2.58.42-4.5,2.11-5.54,1.76-.92,3.81-1.45,5.26-1.06.14.11,1.06.16,1.18.25-.76,1.46-.33,3.72.72,4.29h0Zm-10.98-.32c-.25,1.3.46,2.46.96,3.19.29.41.35,1.09-.25,1-1.09-1.52-1.15-2.85-.71-4.19h0Zm.23,6.4c.59-1.1,1.37-.84,2.01-.24.13-.13.37-.35.43-.6.73.73.73,1.93.19,2.56-.44-.54-1.71-1.63-2.64-1.72h0Zm2.64,1.72c.34-.59,3.16-.76,3.62-.59-.2.28-2.17,2.41-2.83,2.06-.07-.35-.57-1.31-.79-1.47h0Zm32.28,6.81c-.07.19-.1.26-.21.28-4.22-1.08-8.66-1.39-13.09-1.37-4.42-.02-8.86.29-13.08,1.37-.11-.02-.15-.09-.22-.28l.79-.98c0-.08-.02-.15-.09-.22l-1.39-.45v-.14c3.98-1.12,7.91-1.52,11.9-1.72.66,0,1.32.01,2.08.01s1.43-.01,2.08-.01c4,.2,7.93.61,11.91,1.72v.14l-1.4.45c-.07.08-.09.15-.09.22l.8.98Zm.31.98c-4.46.41-8.84.61-13.61.75-4.76-.14-9.15-.34-13.61-.75,4.05-1.35,9.79-1.65,13.61-1.65s9.56.3,13.61,1.65h0Zm1.46-3.35c-.52.05-.55.25-.62.27-4.78-1.09-9.4-1.91-14.45-1.85-2.52-.03-4.94.16-7.32.49-.28.06-.56.1-.83.12-1.86.29-3.71.66-5.58,1.08-.11.05-.24.08-.38.08-.11.03-.22.05-.33.07-.08-.02-.69-.31-.69-.31l.22-.07-.46-.73s-.58-.37-.92-.81c1.7.94,2.22-.69,2.44-1.19,1.14,1.34,3.85,1.27,4.02-1.72-.05-.12-3.23-.81-3.58-1.05.32-.38,2.06-1.46,2.62-1.39-.34-.9.32-3.19.32-3.19,0,0,1.26,2.15,1.24,2.98.55-.3,2.47.13,2.88.29-.19.44-2.96,2.08-2.97,2.27,1.14,1.66,3.45,2.64,4.46.05,1.57,2.39,3.9,1.03,4.53-.69-.03-.19-3.69-1.49-3.96-1.86.25-.52,2.57-1.5,3.25-1.33-.26-.61,1.07-4.81,1.07-4.81l-1.04,2.32-1.11-1.3c.86-2.54-.16-5.77,1.43-7.81h1.43c1.58,2.04.58,5.27,1.43,7.81l-1.11,1.3-1.04-2.32s1.27,4.2.96,4.8c.75-.16,3.11.82,3.37,1.34-.27.37-3.98,1.7-3.99,1.77.57,1.76,2.95,3.22,4.56.79,1,2.6,3.33,1.6,4.46-.06,0-.17-2.79-1.82-2.97-2.26.41-.16,2.41-.5,2.88-.1-.02-.91,1.24-3.17,1.24-3.17,0,0,.68,2.28.36,3.21.51-.08,2.25,1,2.57,1.37-.35.24-3.47,1.12-3.56,1.35.32,2.69,2.89,2.71,3.98,1.42.22.5.74,2.14,2.44,1.19-1.41.95-.83,1.54-1.23,1.65h0Zm3.34-3.09c-.66.35-2.85-1.67-3.05-1.94.45-.17,3.28,0,3.62.59-.22.16-.5,1-.57,1.35h0Zm.57-1.35c-.54-.63-.54-1.84.19-2.56.07.25.3.47.44.6.64-.6,1.41-.86,2.01.24-.93.09-2.19,1.18-2.64,1.72h0Zm-10.47,4.45l-2.21-.31c-.26-.03-.49.16-.53.45l-.02.26c-.03.28.14.53.4.57l2.22.32c.26.03.49-.16.52-.45l.03-.26c.04-.28-.14-.53-.4-.57h0Zm-7.33-.48l-2.24.09c-.26.02-.46.25-.44.53v.26c.02.29.23.51.49.5l2.22-.09c.26,0,.46-.24.46-.52l-.02-.26c0-.28-.22-.5-.47-.5h0Zm-7.47.17l-2.21.31c-.25.04-.44.29-.4.57l.04.26c.03.29.26.48.52.45l2.22-.32c.26-.04.44-.29.4-.57l-.02-.26c-.04-.29-.27-.48-.53-.45h0Z"/>
      <path class="cls-8" d="m50.23,14.89l-1.04,2.32-1.11-1.3c.86-2.54-.16-5.77,1.43-7.81h1.43c1.58,2.04.58,5.27,1.43,7.81l-1.11,1.3-1.04-2.32Zm-4.32,6.14c.25-.52,2.57-1.5,3.25-1.33-.26-.61,1.07-4.81,1.07-4.81,0,0,1.27,4.2.96,4.8.75-.16,3.11.82,3.37,1.34-.27.37-3.98,1.7-3.99,1.77.57,1.76,2.95,3.22,4.56.79,1,2.6,3.33,1.6,4.46-.06,0-.17-2.79-1.82-2.97-2.26.41-.16,2.41-.5,2.88-.1-.02-.91,1.24-3.17,1.24-3.17,0,0,.68,2.28.36,3.21.51-.08,2.25,1,2.57,1.37-.35.24-3.47,1.12-3.56,1.35.32,2.69,2.89,2.71,3.98,1.42.22.5.74,2.14,2.44,1.19-1.41.95-.83,1.54-1.23,1.65-.52.05-.55.25-.62.27-4.78-1.09-9.4-1.91-14.45-1.85-2.52-.03-4.94.16-7.32.49-.28.06-.56.1-.83.12-1.86.29-3.71.66-5.58,1.08-.11.05-.24.08-.38.08l-.33.07c-.08-.02-.69-.31-.69-.31l.22-.07-.46-.73s-.58-.37-.92-.81c1.7.94,2.22-.69,2.44-1.19,1.14,1.34,3.85,1.27,4.02-1.72-.05-.12-3.23-.81-3.58-1.05.32-.38,2.06-1.46,2.62-1.39-.34-.9.32-3.19.32-3.19,0,0,1.26,2.15,1.24,2.98.55-.3,2.47.13,2.88.29-.19.44-2.96,2.08-2.97,2.27,1.14,1.66,3.45,2.64,4.46.05,1.57,2.39,3.9,1.03,4.53-.69-.03-.19-3.69-1.49-3.96-1.86h0Zm6.4,6c4,.2,7.93.61,11.91,1.72v.14l-1.4.45c-.07.08-.09.15-.09.22l.8.98c-.07.19-.1.26-.21.28-4.22-1.08-8.66-1.39-13.09-1.37-4.42-.02-8.86.29-13.08,1.37-.11-.02-.15-.09-.22-.28l.79-.98c0-.08-.02-.15-.09-.22l-1.39-.45v-.14c3.98-1.12,7.91-1.52,11.9-1.72.66,0,1.32.01,2.08.01s1.43-.01,2.08-.01h0Zm-20.27-1.82c-.07-.35-.57-1.31-.79-1.47-.44-.54-1.71-1.63-2.64-1.72.59-1.1,1.37-.84,2.01-.24.13-.13.37-.35.43-.6.7.7.73,1.84.25,2.48.53-.53,3.12-.67,3.56-.51-.2.28-2.17,2.41-2.83,2.06h0Zm31.73,5.43l1.25-.67c-.04-.24-.45-.8-.38-1l.97-.52c.2-.16,0-.52.1-.75,1.36-.44,1.6-1.96,2.91-2.61-.68.3-2.83-1.67-3.03-1.95.43-.16,3.02-.01,3.55.51-.47-.65-.45-1.79.25-2.48.07.25.3.47.44.6.64-.6,1.41-.86,2.01.24-.93.09-2.19,1.18-2.64,1.72-.22.16-.5,1-.57,1.35.4.28,1.16-.19.77-1.04.59-.82,1.91-1.69,2.87-1.73-.13-.41-.19-.67-.37-.85-.55-.45-.17-.66-.35-1.32,4.25-5.79-4.77-11.62-9.89-9.5-1.24-2.54-6.38-3.97-9.44-1.87.88-.6.3-1.84-.5-1.43,1.27-1.62.33-3.12-.9-3.56v-1.53h.84v-1.09h-.93V0h-1.03v1.18h-.93v1.09h.84v1.53c-1.22.44-2.16,1.94-.89,3.56-.81-.41-1.38.83-.5,1.43-3.07-2.1-8.2-.67-9.45,1.87-5.1-2.13-14.13,3.71-9.88,9.5-.19.66.2.87-.36,1.32-.18.18-.24.45-.37.85.96.04,2.28.91,2.87,1.73-.39.85.37,1.31.77,1.04.08.04.15.07.22.12,1.14.69,1.43,2.08,2.71,2.5.11.23-.1.58.11.75l.96.52c.08.2-.33.76-.37,1l1.25.67.14.33c-.59,0-1.01.89-.25,1.06,4.45.48,8.99.72,13.65.76,4.67-.04,9.2-.28,13.66-.76.75-.17.34-1.06-.25-1.06l.14-.33Zm-11.32-17.47c-.15-.93.03-2.04-.17-3.06,2.7-2.61,11.59-.43,7.88,5.29-2.62-1.34-4.16-2-7.71-2.23h0Zm-4.44,0c-3.54.22-5.07.89-7.7,2.23-3.71-5.71,5.17-7.9,7.87-5.29-.2,1.02-.01,2.13-.17,3.06h0Zm22.35,4.82c-1.97-1.59-7.08-2.09-9.57-1.7-.42.13,3.11-3.58,1.26-4.58.06-.06.55-.32.96-.32,1.45-.39,3.5.14,5.27,1.06,1.68,1.04,4.18,2.96,2.09,5.54h0Zm-31-2.05c-4.03-1.41-7.3.46-9.27,2.05-2.07-2.58.42-4.5,2.11-5.54,1.76-.92,3.81-1.45,5.26-1.06.14.11,1.06.16,1.18.25-.76,1.46-.33,3.72.72,4.29h0Zm-2.74,15.59c4.05-1.35,9.79-1.65,13.61-1.65s9.56.3,13.61,1.65c-4.46.41-8.84.61-13.61.75-4.76-.14-9.15-.34-13.61-.75h0Zm34.74-11.72c-.6.09-.54-.59-.25-1,.5-.73,1.22-1.89.96-3.19.44,1.33.38,2.67-.71,4.19h0Zm-42.98-4.19c-.25,1.3.46,2.46.96,3.19.29.41.35,1.09-.25,1-1.09-1.52-1.15-2.85-.71-4.19h0Z"/>
      <path class="cls-9" d="m45.33,23.58c-1.01,2.59-3.32,1.61-4.46-.05.01-.19,2.79-1.83,2.97-2.27-.4-.16-2.32-.59-2.88-.29.02-.84-1.24-2.98-1.24-2.98,0,0-.66,2.29-.32,3.19-.55-.07-2.3,1.02-2.62,1.39.35.24,3.53.93,3.58,1.05-.16,2.98-2.88,3.06-4.02,1.72-.22.5-.74,2.14-2.44,1.19.34.44.92.81.92.81l.46.73-.22.07s.61.29.69.31l.33-.07c.13,0,.26-.04.38-.08,1.87-.42,3.72-.79,5.58-1.08.27-.02.55-.06.83-.12,2.38-.33,4.8-.52,7.32-.49,5.05-.06,9.67.76,14.45,1.85.08-.02.11-.22.62-.27.4-.11-.18-.7,1.23-1.65-1.7.94-2.22-.69-2.44-1.19-1.09,1.29-3.66,1.27-3.98-1.42.09-.23,3.21-1.11,3.56-1.35-.32-.38-2.06-1.45-2.57-1.37.32-.93-.36-3.21-.36-3.21,0,0-1.26,2.26-1.24,3.17-.47-.4-2.48-.06-2.88.1.18.44,2.96,2.09,2.97,2.26-1.13,1.66-3.46,2.66-4.46.06-1.61,2.44-3.99.98-4.56-.79.01-.07,3.73-1.4,3.99-1.77-.25-.52-2.62-1.5-3.37-1.34.31-.6-.96-4.8-.96-4.8,0,0-1.33,4.2-1.07,4.81-.69-.17-3,.82-3.25,1.33.27.37,3.93,1.67,3.96,1.86-.63,1.72-2.96,3.09-4.53.69h0Z"/>
      <path class="cls-9" d="m50.22,29.88c-3.82,0-9.56.3-13.61,1.65,4.45.41,8.84.61,13.61.75,4.77-.14,9.15-.34,13.61-.75-4.05-1.35-9.79-1.65-13.61-1.65h0Z"/>
      <path class="cls-9" d="m37.14,30.83c4.22-1.08,8.66-1.39,13.08-1.37,4.43-.02,8.86.29,13.09,1.37.11-.02.14-.09.21-.28l-.8-.98c0-.08.02-.15.09-.22l1.4-.45v-.14c-3.98-1.12-7.91-1.52-11.91-1.72-.65,0-1.31.01-2.08.01s-1.43-.01-2.08-.01c-4,.2-7.92.61-11.9,1.72v.14l1.39.45c.07.08.09.15.09.22l-.79.98c.07.19.11.26.22.28h0Zm11.57-2.5c-.02-.29.19-.52.44-.53l2.24-.09c.26,0,.47.21.47.5l.02.26c0,.29-.2.52-.46.52l-2.22.09c-.26.01-.48-.21-.48-.5v-.26Zm7.27,0c.03-.29.27-.48.53-.45l2.21.31c.25.04.43.29.4.57l-.03.26c-.03.29-.26.48-.52.45l-2.22-.32c-.26-.04-.43-.29-.4-.57l.02-.26Zm-12.06-.45c.26-.03.49.16.53.45l.02.26c.04.28-.14.53-.4.57l-2.22.32c-.26.03-.49-.16-.52-.45l-.04-.26c-.03-.28.15-.53.4-.57l2.21-.31Z"/>
      <path class="cls-9" d="m40.31,15.4c2.62-1.34,4.16-2,7.7-2.23.16-.93-.03-2.04.17-3.06-2.7-2.61-11.58-.43-7.87,5.29h0Z"/>
      <path class="cls-9" d="m52.28,10.11c.2,1.02.02,2.13.17,3.06,3.54.22,5.08.89,7.71,2.23,3.71-5.71-5.17-7.9-7.88-5.29h0Z"/>
      <path class="cls-9" d="m62.04,11.71c1.86,1-1.68,4.71-1.26,4.58,2.5-.39,7.6.11,9.57,1.7,2.08-2.58-.41-4.5-2.09-5.54-1.77-.92-3.82-1.45-5.27-1.06-.41,0-.89.26-.96.32h0Z"/>
      <path class="cls-9" d="m39.36,15.94c-1.05-.57-1.48-2.83-.72-4.29-.12-.09-1.04-.14-1.18-.25-1.45-.39-3.5.14-5.26,1.06-1.68,1.04-4.18,2.96-2.11,5.54,1.98-1.59,5.24-3.47,9.27-2.05h0Z"/>
      <path class="cls-9" d="m34.86,23.15c-.43-.16-3.02-.01-3.56.51-.02.03-.04.06-.06.08.22.16.72,1.12.79,1.47.66.35,2.63-1.78,2.83-2.06h0Z"/>
      <path class="cls-9" d="m31.3,23.66c.48-.65.45-1.79-.25-2.48-.06.25-.3.47-.43.6-.64-.6-1.42-.86-2.01.24.93.09,2.2,1.18,2.64,1.72.02-.03.04-.05.06-.08h0Z"/>
      <path class="cls-9" d="m29.09,19.81c.6.09.54-.59.25-1-.5-.73-1.21-1.89-.96-3.19-.44,1.33-.38,2.67.71,4.19h0Z"/>
      <path class="cls-9" d="m49.51,8.11c-1.59,2.04-.57,5.27-1.43,7.81l1.11,1.3,1.04-2.32,1.04,2.32,1.11-1.3c-.86-2.54.15-5.77-1.43-7.81h-1.43Z"/>
      <path class="cls-9" d="m69.14,23.66c-.54-.53-3.12-.67-3.55-.51.19.27,2.34,2.25,3.03,1.95,0,0,.02,0,.02,0,.06-.36.34-1.2.57-1.35-.02-.02-.04-.05-.06-.08h0Z"/>
      <path class="cls-9" d="m69.39,21.18c-.7.7-.72,1.83-.25,2.48.03.02.05.05.06.08.44-.54,1.71-1.63,2.64-1.72-.6-1.1-1.37-.84-2.01-.24-.13-.13-.37-.35-.44-.6h0Z"/>
      <path class="cls-9" d="m71.11,18.81c-.29.41-.35,1.09.25,1,1.08-1.52,1.15-2.85.71-4.19.26,1.3-.45,2.46-.96,3.19h0Z"/>
      <path class="cls-8" d="m43.93,27.88l-2.21.31c-.25.04-.44.29-.4.57l.04.26c.03.29.26.48.52.45l2.22-.32c.26-.04.44-.29.4-.57l-.02-.26c-.04-.29-.27-.48-.53-.45h0Z"/>
      <path class="cls-8" d="m49.16,27.8c-.26.02-.46.25-.44.53v.26c.02.29.23.51.49.5l2.22-.09c.26,0,.46-.24.46-.52l-.02-.26c0-.28-.22-.5-.47-.5l-2.24.09Z"/>
      <path class="cls-8" d="m55.97,28.58c-.03.28.14.53.4.57l2.22.32c.26.03.49-.16.52-.45l.03-.26c.04-.28-.14-.53-.4-.57l-2.21-.31c-.26-.03-.49.16-.53.45l-.02.26Z"/>
      <path class="cls-16" d="m71.56,40.15s1.4.59,2.42.23c1.03-.36,1.04-1.12,2.24-1.46,1.37-.39,2.56.27,2.56.27.36-.55,1.8-3.78-5.59-3.31,0,0-.91,3.1-2.14,3.5-1.23.4.51.77.51.77h0Z"/>
      <path class="cls-16" d="m29.44,39.38c-1.23-.4-2.14-3.5-2.14-3.5-7.39-.47-5.96,2.76-5.59,3.31,0,0,1.19-.66,2.56-.27,1.2.34,1.2,1.11,2.23,1.46,1.03.35,2.42-.23,2.42-.23,0,0,1.74-.37.51-.77h0Z"/>
      <path class="cls-13" d="m46.91,61.45c.09.09.21.15.36.15.24,0,.43-.17.47-.39h.04c.06,0,.11-.02.17-.03.08.07.18.12.29.12.25,0,.46-.22.46-.5v-.04c.19-.06.34-.23.34-.43,0-.19-.12-.35-.3-.42v-.04c0-.21-.12-.39-.3-.46.08-.07.13-.16.13-.28,0-.2-.15-.36-.34-.36h-.02c0-.25-.15-.45-.35-.56-.04-.23-.16-.42-.32-.56-.09-.22-.31-.37-.57-.37-.27,0-.49.18-.58.42l-.02.03s-.07-.02-.1-.02c-.31,0-.55.19-.61.43-.17.05-.32.14-.39.3-.44.02-.79.37-.82.81-.27.01-.48.23-.48.5,0,.12.05.23.13.32-.05.09-.08.2-.08.31,0,.39.31.7.7.7.12,0,.23-.04.33-.09.14.13.34.22.55.22.07,0,.13-.01.19-.03.09.17.25.3.43.37.08.03.17.05.26.05.07,0,.14-.01.21-.03.09-.03.17-.07.24-.12h0Z"/>
      <path class="cls-14" d="m46.67,63.47v-1.9c-.06.02-.13.03-.21.03-.09,0-.18-.02-.26-.05v1.91h.47Z"/>
      <path class="cls-3" d="m50.05,77.28v-4.42s-.17-.66-.94-.72c-.77.06-.92.72-.92.72l-.02,4.48c.25-.05.41-.09.65-.11.02,0,.06,0,.09,0,.05,0,.12,0,.18,0,.06,0,.29,0,.35,0,.27-.01.44.02.62.05h0Z"/>
      <path class="cls-3" d="m47.05,68.97h1.06c0-.7.16-1.6-.53-1.6s-.53.94-.53,1.6h0Z"/>
      <path class="cls-3" d="m50.65,67.38c-.71,0-.54.94-.54,1.6h1.07c0-.7.16-1.6-.53-1.6h0Z"/>
      <path class="cls-12" d="m32.97,83.86c1.17-1.22-.09-1.6-.65-2.18-.32-.34-.87.1-1.28.52-.29.31-.51.6-.51.6-1.09,1.13-.5,2.51-.36,2.74.12.21,1.28-.3,2.34-1.24.16-.14.31-.29.46-.45h0Z"/>
      <path class="cls-4" d="m32.91,83.8c.65-.67.5-1.07.17-1.39-.11-.11-.25-.21-.39-.32-.15-.11-.3-.23-.43-.36h-.01c-.12-.12-.27-.11-.44-.04-.19.09-.4.25-.58.43-.04.04-.08.09-.12.12-.29.3-.5.59-.5.6h0c-.38.41-.55.84-.61,1.23-.09.68.16,1.27.25,1.41h0s.16.01.34-.05c.21-.08.5-.21.8-.4.34-.21.71-.48,1.07-.8.08-.07.16-.15.23-.22.07-.07.15-.15.22-.23h0Zm.29-1.5c.4.38.57.84-.17,1.62-.07.07-.15.15-.23.23-.08.08-.16.15-.23.22-.37.32-.75.6-1.1.81-.32.2-.61.34-.84.42-.25.09-.44.09-.51,0h0s0-.01,0-.01h0c-.09-.16-.38-.79-.28-1.53.05-.43.23-.89.64-1.31.02-.03.23-.32.51-.61.04-.04.09-.09.13-.13.2-.19.42-.36.62-.46.23-.1.45-.11.63.06h.01c.12.13.27.24.41.36.14.11.28.21.41.33h0Z"/>
      <path class="cls-12" d="m33.89,83.39c-.45.11-.98.66-1.29,1.02-.16.19-.26.32-.26.32-1.23,1.25-.56,2.75-.4,3.01.14.22,1.38-.3,2.53-1.28.21-.18.42-.37.62-.58,1.28-1.34-.11-1.76-.74-2.39-.02-.02-.04-.04-.05-.05-.12-.09-.26-.1-.41-.07h0Z"/>
      <path class="cls-4" d="m33.91,83.47c-.17.04-.36.16-.55.31-.26.21-.51.48-.7.69-.16.18-.25.31-.25.31h0s0,.02,0,.02c-.43.44-.63.91-.68,1.35-.1.75.19,1.39.29,1.55h0s.21.01.46-.08c.28-.11.65-.29,1.05-.54.29-.19.6-.41.91-.67.11-.09.21-.18.32-.28.1-.09.2-.19.3-.29.71-.74.55-1.17.19-1.52-.13-.12-.29-.25-.45-.36-.17-.13-.34-.25-.48-.39l-.03-.02-.02-.02s-.09-.05-.14-.06c-.06,0-.12,0-.19.01h0Zm-.65.18c.2-.16.41-.29.61-.34.09-.02.17-.03.25-.01.08.01.15.04.22.09h0s.03.03.03.03h0s.03.03.03.03h0c.13.13.29.25.46.38.16.12.32.24.46.38.43.41.62.92-.18,1.75-.1.11-.2.2-.3.3h0c-.11.1-.21.19-.32.29-.31.26-.63.49-.93.68-.41.26-.79.45-1.08.56-.32.12-.55.14-.64.04h0s0-.01,0-.01h0c-.11-.18-.43-.86-.32-1.67.06-.47.27-.97.73-1.44.04-.05.13-.17.26-.32.18-.22.45-.49.72-.71h0Z"/>
      <path class="cls-12" d="m34.61,86.61c-.3.31-.52.6-.52.6-1.27,1.27-.59,2.8-.42,3.07.17.26,1.86-.5,3.18-1.81.02-.02.05-.05.07-.07.95-.98.47-1.48-.11-1.93h0s-.08-.06-.08-.06c-.2-.15-.4-.29-.56-.45-.39-.39-1.08.16-1.55.65h0Z"/>
      <path class="cls-4" d="m34.67,86.66c-.3.31-.52.6-.52.6h0c-.44.45-.64.94-.7,1.38-.11.77.19,1.42.29,1.59h0c.05.05.23.02.49-.08.29-.11.68-.3,1.09-.57.48-.31,1-.7,1.47-1.17l.07-.07c.45-.47.57-.81.5-1.09-.06-.27-.3-.48-.56-.68h0s-.05-.03-.05-.03l-.08-.07-.07-.05c-.18-.13-.35-.26-.49-.4-.16-.17-.4-.13-.65,0-.27.15-.55.4-.79.64h0Zm-.64.5s.24-.31.52-.6c.24-.25.54-.52.83-.67.31-.17.61-.21.84.02.13.13.3.26.47.39l.07.05h0s.04.04.04.04h0l.04.03c.3.23.58.48.66.81.08.33-.04.73-.54,1.24h0s-.07.07-.07.07c-.48.48-1.01.88-1.5,1.2-.42.26-.81.46-1.12.58-.33.12-.57.14-.66.05l-.02-.02h0s0,0,0,0c-.11-.18-.43-.88-.32-1.7.06-.48.27-.99.75-1.46h0Z"/>
      <path class="cls-4" d="m43.08,77.29s.75-.25,1.25-.23c.5.03.87.39,2.45.38,1.58-.02,1.57-.25,2.3-.22h.35c.73-.03.72.2,2.3.22,1.58.01,1.95-.36,2.45-.38.51-.03,1.25.23,1.25.23.51-.02.83-.21,1.09-1.16.09.4.03.78-.2,1.17.26-.09.47-.26.63-.52,0,.3-.19.57-.55.82,0,0,.06.57.25.88.2.31.2.31.2.31l-.51.44s-.39-.66-.83-.39c-.43.27-1.14,1.37-.97,2.52.05.38.16.46.16.46h-.37c-.31-.59-.4-1.09-.43-1.13l.29,1.55h-.34s-.31-1.96-2.21-2.17c-.38-.04-1.14-.16-1.26.1-.2.44.05.9.11,1.01.06.11.07.11.07.11h-.36s-.47-1.01-.57-1.74c-.09-.7-.42-.79-.53-.31-.26,1.12-.8,2.05-.8,2.05h-.36s.02,0,.07-.11c.05-.11.31-.57.11-1.01-.12-.26-.88-.15-1.27-.1-1.89.21-2.2,2.18-2.2,2.18h-.34s.29-1.55.29-1.55c-.04.04-.12.54-.44,1.13h-.37s.11-.09.16-.46c.17-1.16-.53-2.25-.97-2.52-.44-.27-.83.39-.83.39l-.52-.44s.02,0,.2-.31c.19-.31.25-.88.25-.88-.36-.24-.54-.52-.54-.82.16.25.37.43.63.52-.22-.38-.29-.77-.2-1.17.26.96.58,1.15,1.09,1.16h0Z"/>
      <path class="cls-12" d="m43.07,77.25c.07-.02.78-.25,1.26-.22.17,0,.33.06.52.12.37.11.88.27,1.92.26.9,0,1.28-.09,1.57-.14.23-.05.41-.09.73-.08.03,0,.1,0,.17,0,.07,0,.14,0,.17,0,.32-.01.5.03.73.08.3.06.68.14,1.57.14,1.04.01,1.56-.15,1.93-.26.19-.06.35-.11.52-.12.48-.03,1.19.2,1.26.22.24,0,.44-.05.61-.21.17-.16.31-.45.44-.91h.08c.05.2.05.41.02.6-.03.16-.09.33-.17.49.09-.04.16-.09.24-.15.1-.08.19-.19.27-.31l.07.02c0,.16-.06.31-.15.45-.09.13-.22.26-.4.38.02.11.07.57.24.84.18.29.17.29.17.29l.03.07-.52.44-.04.03-.02-.04s-.37-.62-.77-.38h0c-.24.15-.57.57-.78,1.11-.16.41-.25.89-.17,1.37.05.36.15.44.15.44l-.03.07h-.39v-.02c-.12-.21-.2-.41-.27-.58l.18.97v.05s-.04,0-.04,0h-.34s-.04,0-.04,0v-.04s-.31-1.94-2.18-2.15h-.1c-.39-.06-1.02-.13-1.12.09-.19.4.03.82.1.95v.02c.05.09.04.09.04.09v.08h-.38v-.02s-.48-1.01-.58-1.75c-.04-.26-.11-.44-.18-.52-.03-.03-.06-.05-.08-.05-.02,0-.05,0-.07.02-.05.04-.09.12-.12.24-.26,1.13-.8,2.05-.8,2.06v.02h-.39s.03,0,.08-.08h.25c.08-.15.55-1,.79-2.02.03-.14.09-.24.15-.29.04-.03.09-.05.13-.04.04,0,.09.03.13.08.09.09.17.28.2.56.09.66.48,1.55.55,1.7h.25s-.01-.03-.03-.05v-.02c-.08-.14-.31-.59-.11-1.02.12-.27.8-.19,1.21-.15h.1c1.78.21,2.18,1.93,2.24,2.19h.26s-.27-1.5-.27-1.5l.07-.03s.04.08.07.18c.06.2.16.54.36.94h.27c-.04-.07-.09-.2-.12-.42-.07-.5.01-1,.18-1.42.21-.55.55-.98.81-1.15.4-.25.76.22.86.36l.46-.38s-.09-.13-.19-.29c-.2-.32-.25-.9-.25-.9v-.02l.02-.02c.17-.12.3-.24.39-.38.05-.08.09-.16.11-.25-.06.07-.12.14-.19.2-.11.09-.23.16-.37.2l-.05-.06c.11-.18.18-.37.21-.56.02-.13.03-.27.01-.41-.12.39-.25.64-.41.79-.19.18-.4.23-.67.24h-.01s-.74-.25-1.24-.23c-.16.01-.32.06-.5.11-.38.12-.89.28-1.95.27-.9,0-1.29-.09-1.58-.15-.22-.05-.4-.08-.71-.07h-.35c-.31-.01-.49.02-.71.07-.3.06-.69.14-1.59.15-1.05,0-1.57-.15-1.94-.27-.19-.05-.34-.1-.5-.11-.5-.02-1.24.22-1.24.22h-.01c-.27,0-.48-.06-.67-.23-.16-.15-.29-.4-.41-.79-.02.14-.01.27.01.41.03.19.1.38.21.56l-.05.06c-.13-.04-.25-.11-.36-.2-.07-.06-.13-.12-.19-.19.02.08.06.17.11.25.09.13.22.26.39.38l.02.02v.02s-.06.58-.25.9c-.09.16-.15.24-.19.29l.46.38c.1-.14.46-.61.86-.36.25.16.6.59.81,1.15.16.42.25.91.18,1.41-.03.22-.08.35-.12.42h.26c.2-.39.3-.74.36-.93.03-.1.05-.16.07-.18l.07.03-.28,1.5h.26c.05-.26.46-1.98,2.23-2.18h.1c.41-.06,1.09-.14,1.21.13.2.43-.03.88-.1,1.02v.02s-.03.04-.04.05m-.08.08v-.08s-.01,0,.03-.09h.04s.04.04.04.04m-.07-.04h0v-.02c.07-.13.29-.55.11-.95-.1-.22-.73-.14-1.12-.1h-.1c-1.86.22-2.17,2.15-2.17,2.16v.04s-.04,0-.04,0h-.34s-.05,0-.05,0v-.05s.19-.97.19-.97c-.06.17-.14.37-.26.58v.02h-.4l-.03-.07s.1-.08.15-.44h.04s.04.01.04.01m-.12.42c-.03.05-.05.07-.05.07l-.03-.03-.03-.03m.15-.44c.07-.49-.02-.97-.17-1.37-.21-.54-.54-.96-.78-1.11-.4-.25-.77.37-.77.38l-.02.04-.04-.03-.52-.43.03-.07s0,0,.17-.29l.03.02.04.02m-.19.29c-.04.05-.05.05-.05.05v-.08m.17-.29c.16-.27.22-.74.24-.84-.17-.12-.3-.25-.39-.38-.1-.14-.15-.3-.15-.45l.07-.02c.07.12.16.23.26.31.07.06.15.11.24.15-.08-.17-.14-.33-.17-.5-.03-.19-.02-.4.02-.6h.08c.13.47.27.75.44.91.17.16.36.21.61.21"/>
      <path class="cls-11" d="m55.43,77.29s-.67-.23-1.17-.23c-.03,0-.06,0-.09,0-.5.03-.87.39-2.45.38-1-.01-1.36-.11-1.68-.17-.18-.04-.35-.06-.62-.05h-.35c-.07,0-.13,0-.18,0,.21.02.48.18.61.49.12.3.09.73-.28,1.29.14-.15.35.03.42.56.1.73.57,1.73.57,1.73h.36s-.01,0-.07-.11c-.05-.11-.31-.57-.11-1,.12-.26.88-.15,1.26-.11,1.9.21,2.21,2.18,2.21,2.18h.34s-.29-1.55-.29-1.55c.04.04.12.54.43,1.13h.37s-.11-.09-.16-.46c-.17-1.16.53-2.25.97-2.52.44-.27.83.39.83.39l.5-.42.02-.02s0,0-.2-.32c-.19-.31-.25-.88-.25-.88.36-.24.54-.52.55-.82-.16.26-.37.43-.63.52.22-.38.29-.77.2-1.16-.26.95-.58,1.14-1.09,1.16h0Z"/>
      <path class="cls-12" d="m63.59,86.86c-.25.22-.42.48-.34.83.05.21.18.44.43.73.53.59,1.15,1.08,1.67,1.41.3.19.58.33.79.41.19.07.31.09.35.06.09-.16.38-.79.29-1.53-.05-.43-.22-.89-.62-1.33h0s-.67-.98-1.23-1.26c-.2-.1-.38-.11-.52.03-.13.13-.29.25-.46.38-.12.09-.25.19-.36.29h0Z"/>
      <path class="cls-12" d="m65.42,86.09c.68.66,1.7,1.34,2.5,1.6.23.07.39.1.43.06.09-.16.34-.78.21-1.5-.11-.61-.29-.78-.7-1.27,0,0-.53-.65-1.04-1-.3-.2-.6-.3-.79-.09-.54.6-1.64.99-.81,1.97.06.07.13.14.21.22h0Z"/>
      <path class="cls-12" d="m67.16,83.92c.73.64,1.81,1.28,2.65,1.51l.46.04s.72-1.64-.63-2.8h-.01s-.66-.75-1.24-1.05c-.28-.14-.54-.18-.71.01-.54.65-1.7,1.11-.69,2.12.05.05.11.1.17.15h0Z"/>
      <path class="cls-5" d="m67.77,62.73c.07.07.15.24.25.48.17.39.27.99-.41,1.28-.5.21-.98-.02-1.25-.64l-.19-.44,1.59-.67Zm-4.91.81l.45,1.08,2.12-.9.15.37c.22.51.1.83-.51,1.26-.57.4-.97.73-1.09.88l.47,1.11c.15-.2.71-.61,1.26-1.03.47-.35.74-.73.71-1.18h.02c.41.44,1.07.68,1.7.41,1.4-.59.88-2.06.57-2.77-.23-.55-.5-1.06-.72-1.41l-5.15,2.18Z"/>
      <path class="cls-5" d="m63.53,83.04c.36.31.24.71.09.88-.16.19-.42.26-.69.03-.41-.35-.15-.85.2-1.25l.41.34Zm-2.22.22c.04-.28.18-.6.4-.86.35-.41.64-.33.92-.09-.76.89-.97,1.82-.25,2.44.46.39,1.12.39,1.56-.12.27-.31.37-.7.29-1.04v-.02s.34.2.34.2l.57-.67c-.2-.12-.45-.32-.7-.53l-1.03-.88c-.62-.52-1.37-.76-2.12.12-.38.44-.55.9-.59,1.18l.61.27Z"/>
      <path class="cls-5" d="m58.53,85.29l-.34-.38-.68.51c.21.25.43.53.69.87l1.55,2.07.79-.59-1.32-1.76c-.34-.45-.17-.83.05-.99.33-.25.66-.05.93.31l1.29,1.73.79-.59-1.35-1.81c-.62-.83-1.32-.89-1.86-.49-.43.32-.54.78-.51,1.1l-.02.02Z"/>
      <path class="cls-5" d="m56.61,84.7c-.11-.28-.39-.41-.69-.28-.28.11-.4.4-.29.68.11.28.39.41.68.29.29-.12.42-.39.3-.69h0Zm-.56,1.32l1.38,3.42.91-.37-1.38-3.43-.91.37Z"/>
      <path class="cls-5" d="m53.73,88.1c-.04-.36.06-.88.52-.97.47-.09.72.34.78.72l-1.3.25Zm2.3.25c0-.11-.02-.25-.05-.39-.23-1.17-.93-1.69-1.8-1.52-1.06.21-1.48,1.22-1.28,2.27.22,1.12.99,1.7,2.11,1.49.45-.09.86-.25,1.13-.44l-.27-.64c-.23.14-.5.25-.86.32-.52.1-1.01-.06-1.16-.67l2.17-.43Z"/>
      <path class="cls-5" d="m49.88,86.45c.08-.03.23-.05.45-.06.36-.02.86.09.88.74.02.48-.3.82-.86.85l-.4.02-.07-1.55Zm-.77,4.4l.97-.05-.1-2.07h.33c.46-.04.68.16.84.81.15.61.29,1.05.38,1.19l1.01-.05c-.11-.19-.27-.79-.45-1.39-.14-.51-.36-.84-.72-.97v-.02c.47-.21.84-.68.81-1.3-.06-1.37-1.36-1.39-2.01-1.36-.5.02-.97.09-1.31.17l.24,5.03Z"/>
      <path class="cls-5" d="m45.11,88.99c-.16.44-.58.46-.8.39-.23-.09-.38-.3-.26-.64.18-.5.75-.43,1.24-.25l-.18.5Zm-.96-2.01c.27-.05.62-.04.94.07.5.19.53.49.4.84-1.1-.41-2.04-.28-2.37.61-.21.56.02,1.19.66,1.42.39.14.78.11,1.08-.09h.02s-.07.39-.07.39l.83.3c.04-.23.14-.53.25-.84l.47-1.27c.28-.76.24-1.55-.84-1.95-.54-.2-1.03-.2-1.31-.15l-.05.66Z"/>
      <path class="cls-5" d="m38.52,83.82c.26-.25.74-.48,1.09-.17.36.32.16.78-.1,1.06l-.99-.89Zm1.19,1.98c.09-.06.18-.16.28-.27.8-.89.79-1.75.12-2.35-.8-.72-1.87-.45-2.58.34-.77.86-.76,1.82.09,2.59.34.3.71.53,1.03.64l.35-.6c-.25-.1-.5-.24-.77-.49-.4-.35-.56-.84-.16-1.33l1.64,1.47Z"/>
      <path class="cls-5" d="m62.45,63l-2.33-2.81,4.42-3.66,2.24,2.71-.81.67-1.36-1.65-.98.81,1.27,1.54-.8.67-1.27-1.53-1.01.84,1.45,1.76-.81.67Z"/>
      <path class="cls-5" d="m63.39,55.3l-4.9,3.6-1.28-.88,1.63-5.85,1.22.84-1.3,4.19h.02s3.42-2.72,3.42-2.72l1.19.81Z"/>
      <path class="cls-5" d="m51.3,55.76l-3.63-.02.03-5.74h1.37s-.03,4.7-.03,4.7l2.25.02v1.05Z"/>
      <path class="cls-5" d="m44.88,54.15l-1.12-1.67c-.09-.12-.17-.28-.25-.46h-.03c.04.18.06.34.06.52l.02,2.04,1.32-.42Zm2.59,1.58l-1.33.43-.72-1.14-1.8.58.07,1.32-1.32.42-.06-6,1.85-.59,3.32,4.99Z"/>
      <path class="cls-5" d="m40.86,52.97l-1.48.9,2.44,4-1.17.71-2.44-4-1.48.9-.55-.9,4.14-2.52.55.9Z"/>
      <path class="cls-5" d="m33.49,58.68l-1.16,1.81,1.18.76,1.07-1.66.88.57-1.07,1.66,1.87,1.21-.74,1.15-4.82-3.11,1.91-2.96.89.57Z"/>
      <path class="cls-5" d="m35.13,65.61c-.17.35-.67.54-1.05.35-.39-.19-.56-.72-.38-1.08.18-.36.69-.53,1.08-.34.4.2.53.7.35,1.07h0Z"/>
      <path class="cls-5" d="m34.34,66.4c.11.47.09,1.06-.06,1.77-.19.91-.59,1.58-1.21,2-.62.42-1.34.54-2.19.37-.9-.18-1.57-.63-2.01-1.34-.43-.7-.55-1.53-.36-2.47.12-.58.29-1.06.52-1.43l1.22.25c-.31.35-.52.78-.62,1.29-.11.56-.04,1.05.22,1.46.26.42.67.68,1.24.79.54.11,1.01.04,1.4-.21.39-.26.64-.66.75-1.21.11-.52.09-1.03-.06-1.52l1.16.24Z"/>
      <path class="cls-5" d="m55.14,54.6l.05-2.01c0-.15.02-.33.07-.52h-.03c-.07.15-.15.29-.25.43l-1.16,1.68,1.32.42Zm1.19,2.79l-1.32-.42.07-1.34-1.8-.57-.71,1.12-1.32-.42,3.42-4.93,1.85.59-.18,5.99Z"/>
      <path class="cls-5" d="m66.8,70.57l1.88-.71c.14-.05.31-.1.51-.14v-.03c-.17,0-.34-.02-.51-.06l-1.99-.44.11,1.37Zm-2.13,2.16l-.11-1.39,1.27-.44-.15-1.89-1.3-.24-.11-1.38,5.86,1.3.15,1.93-5.61,2.1Z"/>
      <path class="cls-5" d="m38.13,60.95c-.17.35-.67.53-1.05.34-.39-.19-.55-.72-.38-1.08.18-.35.69-.53,1.08-.33.4.2.53.7.35,1.07h0Z"/>
      <path class="cls-13" d="m48.02,81.19c.05-.11.31-.57.11-1-.12-.26-.88-.15-1.27-.11-1.89.21-2.21,2.18-2.21,2.18h-.34s.29-1.55.29-1.55c-.04.04-.12.54-.44,1.13h-.37s.11-.09.16-.46c.17-1.16-.53-2.25-.97-2.52-.44-.27-.83.39-.83.39l-.52-.43s.02,0,.2-.32c.07-.11.12-.25.16-.39-1.8.39-2.92,1.17-2.92,2.74.23.23,3.51,3.42,8.21,4.11.64.09,1.29.13,1.95.13.89,0,1.76-.08,2.61-.24,3.79-.83,5.65-2.47,6.91-3.4.01,0,.02-.01.03-.02,0-1.21-.75-2.04-1.97-2.61l-.5.42s-.39-.66-.83-.39c-.44.27-1.14,1.37-.97,2.52.05.38.16.46.16.46h-.37c-.31-.59-.4-1.09-.44-1.13l.29,1.55h-.34s-.31-1.96-2.21-2.17c-.38-.04-1.14-.16-1.26.11-.2.43.05.9.11,1,.06.11.07.11.07.11h-.35s-.47-1.01-.57-1.73c-.07-.53-.27-.71-.42-.56,0,0,0,.01,0,.01-.04.05-.08.13-.11.23-.26,1.12-.8,2.05-.8,2.05h-.36s.02,0,.07-.11h0Z"/>
      <path class="cls-3" d="m54.02,72.61l.25,4.46c.5,0,1.17.23,1.17.23.51-.02.83-.21,1.09-1.16.09.4.03.78-.2,1.17.26-.09.47-.26.63-.52,0,.3-.19.57-.55.82,0,0,.06.57.25.88.2.32.2.32.2.32l-.02.02c1.22.57,1.97,1.4,1.97,2.61,2.91-2.62,4.75-6.42,4.75-10.64,0-7.9-6.4-14.3-14.3-14.3s-14.31,6.41-14.31,14.3c0,3.92,1.58,7.48,4.14,10.06,0-1.57,1.12-2.36,2.92-2.74.07-.26.09-.5.09-.5-.36-.24-.54-.52-.54-.82.16.26.37.43.63.52-.23-.38-.29-.77-.2-1.17.26.96.58,1.15,1.09,1.16,0,0,.45-.15.88-.21l.25-4.48,1.38-2.75.22-3.4s-.75-2.02-.75-2.83,1.08-.72,1.08-.72l.05.16v-1.51c-.18-.07-.33-.2-.43-.37-.06.02-.12.03-.19.03-.21,0-.4-.09-.55-.22-.1.05-.21.09-.33.09-.39,0-.7-.32-.7-.7,0-.11.04-.21.08-.31-.07-.09-.13-.2-.13-.32,0-.27.22-.49.48-.5.03-.44.38-.78.82-.81.07-.16.22-.25.39-.3.06-.25.31-.43.61-.43.03,0,.07.01.1.02l.02-.03c.09-.24.31-.42.58-.42.25,0,.47.16.57.37.17.14.29.34.32.56.2.11.35.32.35.56h.02c.19,0,.34.16.34.36,0,.11-.05.21-.13.28.18.07.31.24.31.46v.04c.17.07.3.23.3.42,0,.21-.15.38-.35.43v.04c.01.28-.2.5-.45.5-.11,0-.21-.05-.29-.12-.06.01-.11.04-.17.04h-.04c-.04.21-.23.39-.47.39-.15,0-.27-.06-.36-.15-.07.06-.15.09-.24.12v1.9l.99-.08v-.83c.56-.38,2.46-.41,2.91,0v.83l1.32.11.19-.59s1.09.08,1.09.72-.75,2.83-.75,2.83l.22,3.4,1.38,2.75Zm1.76-11.19s-.98.55-2.93-.62c-1.03-.62-1.07-.11-1.11-.07v-2.51s.57-.15,1.03.09c.19.09.36.25.48.5v.02c.15.21.31.38.5.49.22.13.48.22.74.27.34.06.72.09,1.17.12,0,0-.01.05-.05.15-.04.09-.09.19-.12.19-.06.08-.13.16-.23.26-.24.24-.23.58-.02.82.05.05.15.14.28.2.08.04.17.07.26.09h0Zm-4.1-3.22v5.24l-.26-.06v-5.18h.26Z"/>
      <path class="cls-10" d="m55.49,60.04s-1.62.13-2.64-.99c-.55-.43-1.12-.11-1.17-.07v.96s1.23-.22,1.54.39c.31.62,1.75.96,2,.75,0,0,0,.02.03.03-.21-.24-.23-.58.02-.82.1-.1.18-.18.24-.26h0Z"/>
      <path class="cls-6" d="m52.84,59.05c1.02,1.12,2.64.99,2.64.99.08-.09.08-.14.11-.19.04-.08.05-.15.05-.15-.16-.02-.64-.03-1.17-.13-.27-.05-.52-.14-.74-.27-.21-.12-.34-.29-.49-.48,0,0,0,0,0-.02-.02-.04-.05-.09-.07-.14-.11-.17-.25-.28-.4-.36-.47-.24-1.1-.09-1.1-.09v.78s.62-.36,1.17.07h0Z"/>
      <path class="cls-6" d="m53.21,60.34c-.31-.61-1.54-.39-1.54-.39v.91s.14-.67,1.17-.06c1.96,1.18,2.94.62,2.94.62-.1-.03-.19-.04-.27-.09-.11-.06-.19-.12-.27-.2-.02-.02-.03-.03-.03-.03-.25.21-1.69-.14-2-.75h0Z"/>
      <path class="cls-15" d="m63.75,70.79c0,4.01-1.62,7.63-4.25,10.26s-6.25,4.25-10.26,4.25-7.63-1.62-10.25-4.25-4.25-6.25-4.25-10.26,1.62-7.63,4.25-10.25,6.25-4.25,10.25-4.25,7.63,1.62,10.26,4.25,4.25,6.25,4.25,10.25h0Zm-4.53,9.97c2.55-2.55,4.13-6.08,4.13-9.97s-1.58-7.42-4.13-9.97c-2.55-2.56-6.08-4.13-9.97-4.13s-7.42,1.58-9.97,4.13c-2.55,2.55-4.13,6.07-4.13,9.97s1.58,7.42,4.13,9.97c2.56,2.55,6.08,4.13,9.97,4.13s7.42-1.58,9.97-4.13h0Z"/>
      <path class="cls-5" d="m43.66,83.87l-2.65,4.63.85.49,2.65-4.63-.85-.48Z"/>
      <path class="cls-5" d="m35.9,82.7c-.41.42-.82.31-1.03.11-.33-.33-.22-.84.25-1.32.45-.46.99-.66,1.35-.3.23.23.28.64-.09,1.03l-.48.48Zm2.57-2.62l-1.29,1.32h0c.07-.29-.03-.64-.34-.94-.57-.56-1.55-.55-2.43.35-.78.8-.89,1.77-.3,2.36.33.31.77.43,1.17.3h.02s-.34.42-.34.42l.62.6c.18-.2.46-.51.72-.77l2.83-2.89-.65-.74Z"/>
      <path class="cls-14" d="m48.16,77.34l.02-4.48s.16-.66.92-.72c.77.06.93.72.93.72v4.42c.86.17,2.06.38,3.62-.1.23-.07.43-.11.61-.12l-.25-4.46-1.38-2.75-.22-3.4s.75-2.2.75-2.83-1.09-.72-1.09-.72l-.19.59-1.32-.11v-.83c-.45-.41-2.35-.38-2.91,0v.83l-.99.08h-.47v-.4l-.05-.16s-1.08-.1-1.08.72.75,2.83.75,2.83l-.22,3.4-1.38,2.75-.25,4.48c.89-.1.99.38,2.82.36.8,0,1.11-.06,1.38-.11h0Zm1.95-8.37c0-.66-.17-1.6.54-1.6s.53.89.53,1.6h-1.07Zm-2.01,0h-1.06c0-.66-.18-1.6.53-1.6s.53.89.53,1.6h0Z"/>
    </g>
  </g>
</svg>