<?xml version="1.0" encoding="UTF-8"?>
<svg id="Layer_2" data-name="Layer 2" xmlns="http://www.w3.org/2000/svg" viewBox="0 0 524.84 657.85">
  <defs>
    <style>
      .cls-1 {
        stroke-width: 2px;
      }

      .cls-1, .cls-2, .cls-3, .cls-4, .cls-5, .cls-6, .cls-7, .cls-8 {
        stroke-miterlimit: 10;
      }

      .cls-1, .cls-2, .cls-3, .cls-5, .cls-6, .cls-7, .cls-8 {
        stroke: #1a171b;
      }

      .cls-1, .cls-9 {
        fill: #1a171b;
      }

      .cls-2 {
        stroke-width: .98px;
      }

      .cls-2, .cls-5, .cls-10 {
        fill: #fff;
      }

      .cls-3 {
        stroke-width: 6.66px;
      }

      .cls-3, .cls-4, .cls-11, .cls-7, .cls-12, .cls-13 {
        fill: none;
      }

      .cls-4 {
        stroke: #1b171b;
        stroke-width: 3.08px;
      }

      .cls-5 {
        stroke-width: 10.65px;
      }

      .cls-11 {
        stroke-width: 7.04px;
      }

      .cls-11, .cls-12 {
        stroke-miterlimit: 3.86;
      }

      .cls-11, .cls-12, .cls-13 {
        stroke: #000;
      }

      .cls-6 {
        fill: #f5e600;
      }

      .cls-6, .cls-7 {
        stroke-width: 1.33px;
      }

      .cls-14, .cls-12, .cls-15, .cls-9, .cls-16, .cls-17, .cls-10, .cls-18 {
        stroke-width: 0px;
      }

      .cls-13 {
        stroke-width: .18px;
      }

      .cls-15, .cls-8 {
        fill: #2a519c;
      }

      .cls-16 {
        fill: #1b171b;
      }

      .cls-17 {
        fill: #e0141a;
      }

      .cls-8 {
        stroke-width: 1.31px;
      }

      .cls-18 {
        fill-rule: evenodd;
      }
    </style>
  </defs>
  <g id="Capa_1" data-name="Capa 1">
    <path class="cls-5" d="m519.51,9.02c-44.01,24.23-88.6,35.16-133.7,33.79h0c-30.38-.94-61.01-7.5-91.63-19.36-10.44-4.1-20.87-8.79-31.3-13.99v-.43c-.17,0-.33.09-.42.17-.17-.09-.34-.17-.42-.17v.43c-11.02,5.46-21.96,10.32-32.98,14.5-30.46,11.69-60.84,18-91.04,18.86-44.76,1.19-89.1-9.73-132.69-33.79v100c7.23,175.01,54.1,309.82,132.69,412.55,26.76,35.07,57.22,66.38,91.04,94.29,10.07,8.28,20.38,16.25,31.04,23.92,1.79-1.53,4.23-1.94,6.39-1.25,9.43-6.93,18.67-14.06,27.7-21.4,33.99-27.9,64.7-59.22,91.63-94.29,79.09-102.9,126.38-238.06,133.7-413.84V9.28c0-.08,0-.17,0-.26Z"/>
    <polygon id="polyline1949" class="cls-13" points="261.09 554.2 262.05 553.45 263.01 552.67 264 551.87 265 551.03 266.02 550.16 267.06 549.26 268.11 548.32 269.18 547.36 270.27 546.36 271.38 545.32 272.51 544.25 273.65 543.16 274.81 542.02 275.98 540.85 277.18 539.65 278.38 538.41 279.62 537.14 280.86 535.82 282.12 534.48 283.39 533.1 284.68 531.69 285.99 530.23 287.31 528.75 288.65 527.23 290 525.67 291.37 524.08 292.75 522.45 294.14 520.78 295.55 519.08 296.97 517.35 298.4 515.58 299.84 513.78 301.3 511.94 302.77 510.07 304.24 508.16 305.73 506.23 307.22 504.25 308.73 502.25 310.24 500.22 311.76 498.16 313.29 496.06 314.82 493.94 316.36 491.79 317.91 489.61 319.46 487.4 321.01 485.16 322.56 482.9 324.12 480.61 325.68 478.3 327.24 475.97 328.79 473.62 330.35 471.24 331.91 468.84 333.46 466.43 335.01 463.99 336.56 461.54 338.1 459.08 339.64 456.59 341.17 454.09 342.69 451.59 344.2 449.07 345.71 446.54 347.22 444.01 348.7 441.46 350.18 438.91 351.65 436.35 353.1 433.79 354.54 431.23 355.97 428.66 357.38 426.1 358.78 423.54 360.16 420.98 361.53 418.43 362.88 415.87 364.22 413.33 365.53 410.8 366.83 408.26 368.11 405.74 369.36 403.24 370.6 400.75 371.82 398.26 373.02 395.79 374.2 393.34 375.36 390.9 376.49 388.48 377.6 386.08 378.69 383.7 379.76 381.33 380.8 378.99 381.82 376.67 382.82 374.37 383.79 372.1 384.74 369.85 385.67 367.63 386.57 365.43 387.45 363.26 388.3 361.11 389.13 358.99 389.94 356.9 390.72 354.83 391.48 352.81 392.22 350.79 392.93 348.82 393.61 346.88 394.28 344.96 394.92 343.08 395.53 341.22 396.12 339.41 396.69 337.62 397.24 335.86 397.76 334.13 398.27 332.43 398.75 330.77 399.21 329.13 399.64 327.54 400.06 325.97 400.45 324.43 400.81 322.93 401.17 321.45 401.5 320.01 401.81 318.6 402.1 317.22 402.38 315.87 402.63 314.56 402.86 313.27 403.07 312.02 403.27 310.8 403.45 309.6 362.74 309.6 318.74 309.6 264.09 309.6 222.2 309.6 177.56 309.6 120.18 309.6 120.36 310.8 120.56 312.02 120.77 313.27 121.01 314.56 121.26 315.87 121.53 317.22 121.82 318.6 122.14 320.01 122.46 321.45 122.82 322.93 123.19 324.43 123.58 325.97 123.99 327.54 124.43 329.13 124.88 330.77 125.36 332.43 125.87 334.13 126.39 335.86 126.94 337.62 127.51 339.41 128.1 341.22 128.72 343.08 129.35 344.96 130.02 346.88 130.7 348.82 131.42 350.79 132.15 352.81 132.91 354.83 133.69 356.9 134.5 358.99 135.33 361.11 136.18 363.26 137.06 365.43 137.96 367.63 138.89 369.85 139.84 372.1 140.81 374.37 141.81 376.67 142.83 378.99 143.88 381.33 144.95 383.7 146.03 386.08 147.15 388.48 148.28 390.9 149.43 393.34 150.61 395.79 151.81 398.26 153.03 400.75 154.27 403.24 155.53 405.74 156.8 408.26 158.1 410.8 159.42 413.33 160.75 415.87 162.1 418.43 163.47 420.98 164.86 423.54 166.25 426.1 167.66 428.66 169.09 431.23 170.53 433.79 171.99 436.35 173.45 438.91 174.93 441.46 176.42 444.01 177.92 446.54 179.43 449.07 180.94 451.59 182.46 454.09 183.99 456.59 185.53 459.08 187.07 461.54 188.62 463.99 190.17 466.43 191.73 468.84 193.28 471.24 194.84 473.62 196.4 475.97 197.96 478.3 199.51 480.61 201.07 482.9 202.63 485.16 204.17 487.4 205.73 489.61 207.27 491.79 208.81 493.94 210.34 496.06 211.87 498.16 213.39 500.22 214.9 502.25 216.41 504.25 217.9 506.23 219.39 508.16 220.87 510.07 222.33 511.94 223.79 513.78 225.23 515.58 226.66 517.35 228.08 519.08 229.49 520.78 230.89 522.45 232.27 524.08 233.63 525.67 234.98 527.23 236.32 528.75 237.64 530.23 238.95 531.69 240.24 533.1 241.52 534.48 242.78 535.82 244.02 537.14 245.25 538.41 246.46 539.65 247.65 540.85 248.82 542.02 249.99 543.16 251.12 544.25 252.25 545.32 253.36 546.36 254.45 547.36 255.52 548.32 256.58 549.26 257.61 550.16 258.63 551.03 259.64 551.87 260.62 552.67 261.59 553.45 262.54 554.2 261.09 554.2"/>
    <polyline class="cls-6" points="120.18 309.6 173.01 309.6 243.11 309.6 318.74 309.6 358.46 309.6 403.45 309.6 398.27 332.43 387.45 363.26 374.2 393.34 360.16 420.98 342.69 451.59 327.24 475.97 310.24 500.22 296.97 517.35 284.68 531.69 272.51 544.25 262.54 554.2 251.12 544.25 237.64 530.23 223.79 513.78 213.39 500.22 201.07 482.9 188.62 463.99 177.92 446.54 162.1 418.43 151.81 398.26 143.88 381.33 135.33 361.11 128.1 341.22 122.82 322.93 120.77 313.27"/>
    <rect class="cls-17" x="161.18" y="309.6" width="32.79" height="107.37"/>
    <rect class="cls-17" x="220.77" y="309.6" width="32.78" height="199.65"/>
    <rect class="cls-17" x="280.37" y="309.6" width="32.79" height="185.46"/>
    <rect class="cls-17" x="339.96" y="309.6" width="32.79" height="88.73"/>
    <polyline class="cls-17" points="162.1 418.43 165.51 424.49 169.68 431.9 174.58 440.6 177.92 446.54 180.81 451.25 183.66 456.01 188.62 463.99 191.37 468.17 193.97 472.11 193.97 460.45 193.97 447.14 193.97 434.27 193.97 426.73 193.97 423.63 193.97 420.52 193.97 416.97 161.18 416.97"/>
    <polyline class="cls-17" points="220.77 509.25 223.79 513.78 229.8 521.24 233.58 525.41 238.67 531.44 242.43 535.21 246.35 539.28 249.39 542.45 251.12 544.25 254.22 546.95 253.55 537.65 253.55 528.1 253.55 520.79 253.55 515.91 253.55 512.37 253.55 509.25"/>
    <polyline class="cls-17" points="313.16 495.06 313.16 496.24 310.24 500.22 305.11 506.85 298.69 515.12 292.06 523.08 286.92 529.07 283.12 533.3 280.37 536.13 280.37 528.1 280.37 513.25 280.37 503.05 280.37 499.05 280.37 495.06"/>
    <polyline class="cls-17" points="372.74 396.36 367.37 406.78 362.9 416.08 357.14 426.29 351.82 435.61 347.37 443.59 342.69 451.59 339.96 456.08 339.96 447.58 339.96 426.22 339.96 413.42 339.96 405.43 339.96 400.55 339.96 398.33"/>
    <path id="_61470056" data-name=" 61470056" class="cls-8" d="m8.14,102.61c43.23-19.14,85.45-28.83,126.84-28.57,33.92.26,67.2,7.1,99.74,20.87,9.13,3.81,18.16,8.23,27.1,13.08v76.8c-9.68.95-18.8,3.72-27.1,7.79-19.36,9.7-33.73,27.1-38.62,47.71H25.93c-9.77-44.76-15.58-90.91-17.79-137.66h0Z"/>
    <polygon class="cls-15" points="261.82 179.57 261.81 195.34 261.81 210.01 261.81 221.56 261.81 240.27 243.05 240.27 226.55 240.27 208.93 240.27 194.63 240.27 184.72 240.27 184.72 234.84 192.8 218.51 204 205.12 223.27 191.07 238.65 183.16 255.31 180.37 261.82 179.57"/>
    <polygon class="cls-14" points="77.39 193.33 96.94 187.5 183.95 186.77 204.59 194.29 205.06 215.41 144.51 235.13 100.36 227.14 76.97 210.07 77.39 193.33"/>
    <polygon class="cls-11" points="77.39 193.33 96.94 187.5 183.95 186.77 204.59 194.29 205.06 215.41 144.51 235.13 100.36 227.14 76.97 210.07 77.39 193.33"/>
    <polygon class="cls-10" points="115.88 184.91 125.29 229.96 148.26 230.88 121.65 183.84 115.88 184.91"/>
    <polygon class="cls-10" points="139.23 96.76 131.62 106.92 126.54 127.21 115.75 131.69 111.31 146.1 108.13 168.92 110.03 184.17 133.48 186.41 163.75 185.8 173.95 179.11 173.95 157.52 165.07 136.12 149.85 118.99 145.38 98.02 139.23 96.76"/>
    <path class="cls-18" d="m117.95,151.84l-1.22,3.69-1.23-3.69h2.45m11.08,2.47l-2.46-2.47h2.46v2.47Zm13.54,8.6l1.22-12.3,1.24,12.3h-2.46Zm8.63,0c-5.54-2.17,0-9.55-1.25-12.3,2.18,3.7.95,6.77,1.25,12.3m34.5,24.64l-88.75-.04v-3.13c1.5.48,3.5.4,6.23-.54,3.07-20.93-8.92-49.56,16.01-60.31,16.91-.31,2.14-24.32,17.22-30.78,3.39-5.55-3.08-14.79,6.16-14.79,4.01,3.99,2.78,7.39,1.22,12.3,11.09,7.71,9.26,20.64,11.09,32.01,34.48,6.48,20.92,37.85,25.86,61.56h4.96v3.71Zm-50.52-81.26h2.48v-4.92l-2.48,4.92Zm11.08,0l-.81-3.27.81,3.27Zm-3.69,14.75l-3.09.78c-2.69-.13-3.9-2.75-4.3-5.04v-3.11,8.6l11.08-1.23c-.29-2.47.94-6.77-1.23-7.37l-2.46,7.37Zm12.31,18.47l-3.68-3.68-8.63-7.4,12.31,11.08Zm-39.39,0l13.53-1.22-7.39-6.14-6.15,7.37Zm-2.46,17.24h6.16v-7.36h-6.16v7.36Zm18.44,0v-7.36c-7.37-2.48-5.21,3.37-7.37,7.36h7.37Zm24.63-7.36h-16v34.45l29.57-1.23c1.53-10.18-.66-21.87,0-33.22h-9.89l-1.22,14.77h-2.47c-1.84-4.31-1.84-10.48,0-14.77m-34.47,34.45v-9.83h-6.23c.93,3.36-4.69,10.9,6.23,9.83"/>
    <path class="cls-12" d="m121.65,183.84v-9.83h-6.23c.93,3.36-4.69,10.9,6.23,9.83Z"/>
    <path class="cls-12" d="m131.48,156.75v-7.39c-7.37-2.46-5.23,3.35-7.37,7.39h7.37Z"/>
    <rect class="cls-12" x="113.03" y="149.36" width="6.14" height="7.39"/>
    <polygon class="cls-12" points="115.48 139.5 129.01 138.27 121.63 132.12 115.48 139.5"/>
    <polygon class="cls-12" points="154.87 139.5 151.17 135.83 142.56 128.41 154.87 139.5"/>
    <path class="cls-12" d="m142.56,121.01l-3.11.79c-2.68-.15-3.88-2.74-4.28-5.02v-3.14,8.62l11.08-1.24c-.3-2.44.93-6.75-1.23-7.38l-2.46,7.38Z"/>
    <path class="cls-12" d="m146.25,106.28l-.8-3.26.8,3.26Z"/>
    <path class="cls-12" d="m151.2,162.9c-5.54-2.16,0-9.55-1.22-12.3,2.15,3.72.92,6.76,1.22,12.3Z"/>
    <polygon class="cls-12" points="142.59 162.9 143.82 150.6 145.03 162.9 142.59 162.9"/>
    <polygon class="cls-12" points="129.07 154.31 126.6 151.84 129.07 151.84 129.07 154.31"/>
    <polygon class="cls-12" points="117.96 151.84 116.74 155.53 115.51 151.84 117.96 151.84"/>
    <path id="_60888488" data-name=" 60888488" class="cls-7" d="m501.94,242.6h-175.14c-4.77-20.87-19.07-38.55-38.34-48.5-8.13-4.26-17.21-7.11-26.65-8.26v-78.08c8.14-5.51,17.11-10.57,26.65-15.01,29.08-13.59,63.77-21.67,101.83-21.85,40.11-.18,83.97,8.53,128.57,29.13-2.34,47.97-7.01,96.64-16.92,142.57h0Z"/>
    <polygon class="cls-10" points="261.81 185.95 261.81 194.05 261.81 201.15 261.81 215.34 261.81 236.62 261.81 242.02 290.35 242.02 305.12 242.02 340.67 242.02 333.76 224.35 322.82 208.79 313.49 199.73 301.24 191.07 294.22 187.29 278.12 181.11 261.81 177.85 261.81 185.95"/>
    <rect class="cls-14" x="320.12" y="214.13" width="30" height="28.47"/>
    <rect class="cls-9" x="350.12" y="185.66" width="30" height="28.47"/>
    <rect class="cls-14" x="410.11" y="185.66" width="30" height="28.47"/>
    <rect class="cls-14" x="291.81" y="185.66" width="30" height="28.47"/>
    <rect class="cls-14" x="380.11" y="213.55" width="30" height="28.47"/>
    <rect class="cls-14" x="440.11" y="213.55" width="30" height="28.47"/>
    <rect class="cls-14" x="471.01" y="185.66" width="30" height="28.47"/>
    <rect class="cls-9" x="261.81" y="156.75" width="30" height="28.47"/>
    <rect class="cls-14" x="410.11" y="128.28" width="30" height="28.47"/>
    <rect class="cls-14" x="290.12" y="128.28" width="30" height="28.47"/>
    <rect class="cls-14" x="440.11" y="156.75" width="30" height="28.47"/>
    <rect class="cls-14" x="350.87" y="73.7" width="28.5" height="25.67"/>
    <rect class="cls-14" x="261.81" y="213.55" width="30" height="28.47"/>
    <rect class="cls-9" x="380.11" y="156.75" width="30" height="28.47"/>
    <rect class="cls-14" x="320.12" y="99.03" width="30" height="28.47"/>
    <rect class="cls-14" x="350.12" y="128.28" width="30" height="28.47"/>
    <rect class="cls-14" x="380.11" y="99.8" width="30" height="28.47"/>
    <rect class="cls-14" x="410.86" y="76.8" width="28.5" height="23.9"/>
    <rect class="cls-14" x="320.12" y="156.75" width="30" height="28.47"/>
    <rect class="cls-14" x="441.02" y="100.7" width="30" height="28.47"/>
    <rect class="cls-14" x="471.01" y="128.28" width="30" height="28.47"/>
    <rect class="cls-14" x="470.83" y="90.28" width="24.4" height="10.72"/>
    <rect class="cls-14" x="274.54" y="99.03" width="17.27" height="28.47"/>
    <rect class="cls-14" x="290.12" y="92.33" width="30.94" height="6.62"/>
    <polyline class="cls-14" points="274.54 127.5 267.65 127.5 261.81 127.5 261.81 117.73 261.81 111.74 261.81 107.76 274.54 107.76 274.54 117.63"/>
    <rect class="cls-14" x="501.01" y="156.75" width="12.35" height="28.47"/>
    <rect class="cls-14" x="495.23" y="100.7" width="20.19" height="28.47"/>
    <rect class="cls-14" x="499.57" y="213.32" width="5.08" height="28.47"/>
    <g>
      <path class="cls-15" d="m177.83,281.06l16.56,2.99c-2.54,5.26-6.76,9.17-12.67,11.73-5.9,2.56-13.4,3.83-22.48,3.83-11.23,0-20.47-2.19-27.7-6.56-7.23-4.37-10.85-10.36-10.85-17.95,0-8.03,3.64-14.26,10.91-18.71,7.27-4.44,16.83-6.66,28.69-6.66,10.35,0,18.75,1.74,25.22,5.23,3.85,2.06,6.73,5.02,8.66,8.88l-16.91,2.3c-1-2.5-3.08-4.48-6.26-5.92-3.17-1.45-7.03-2.17-11.57-2.17-6.27,0-11.36,1.28-15.26,3.85-3.91,2.57-5.86,6.72-5.86,12.47,0,6.1,1.92,10.44,5.77,13.03,3.85,2.59,8.85,3.88,15,3.88,4.54,0,8.44-.82,11.72-2.47,3.27-1.64,5.62-4.23,7.05-7.77Z"/>
      <path class="cls-15" d="m208.94,298.8v-9.25h16.21v9.25h-16.21Z"/>
      <path class="cls-15" d="m242.01,298.8v-48.23h58v8.16h-40.92v11.42h35.32v8.16h-35.32v20.5h-17.08Z"/>
      <path class="cls-15" d="m300.88,298.8v-9.25h16.22v9.25h-16.22Z"/>
      <path class="cls-15" d="m364.36,250.56h17.02v30.53c0,3.99-.62,7.06-1.85,9.21-1.66,2.81-4.66,5.06-9,6.76-4.35,1.7-10.08,2.55-17.19,2.55-8.35,0-14.77-1.33-19.28-4-4.5-2.66-6.77-6.57-6.81-11.73l16.1-1.05c.19,2.76.9,4.72,2.14,5.86,1.85,1.73,4.65,2.6,8.42,2.6s6.5-.62,8.08-1.86c1.58-1.24,2.37-3.81,2.37-7.71v-31.16Z"/>
      <path class="cls-15" d="m399.45,298.8v-9.25h16.22v9.25h-16.22Z"/>
    </g>
    <line class="cls-3" x1="60.82" y1="343.32" x2="115.48" y2="383.25"/>
    <line class="cls-3" x1="74.81" y1="381.7" x2="108.23" y2="344.86"/>
    <line class="cls-3" x1="466.68" y1="334" x2="412.03" y2="373.93"/>
    <line class="cls-3" x1="452.7" y1="372.38" x2="419.28" y2="335.55"/>
    <path id="_103228056" data-name=" 103228056" class="cls-2" d="m261.85,354.83c.33,0,.59,0,.91,0,9.08.2,17.63,3.13,24.62,8.16,11.23,8.03,18.61,21.16,18.61,36.04s-7.38,28.01-18.61,36.04c-6.99,4.96-15.54,7.96-24.62,8.16h-.91c-9.27,0-17.89-2.87-25.01-7.84-11.56-7.96-19.2-21.29-19.2-36.37s7.64-28.47,19.2-36.43c7.12-4.9,15.74-7.77,25.01-7.77h0Z"/>
    <path id="_61763976" data-name=" 61763976" class="cls-2" d="m284.73,384.83s-.1-.04-.09-.03c-1.93-1.3-3.75-1.74-5.38-1.29-2.08.56-3.99,2.59-5.66,6,4.16,6.14,6.25,12.38,6.25,18.64,0,2.89-.44,5.77-1.32,8.65-2.51,8.36-8.69,16.9-18.33,25.39.62.02,1.65.05,1.65.05,5.63,0,11.05-1.07,16.11-3.16,9.31-12.18,13.97-23.45,13.97-33.72,0-7.37-2.4-14.23-7.21-20.52h0Z"/>
    <path id="_103226976" data-name=" 103226976" class="cls-2" d="m304.64,401.13c0-2.75-.33-5.5-1.02-8.18-1.24-4.77-3.53-9.04-6.77-12.67-2.27-1.73-4.28-2.36-5.99-1.88-1.91.53-3.53,2.49-4.84,5.79,4.88,6.5,7.33,13.55,7.33,21.11,0,10.01-4.3,20.92-12.83,32.63,14.63-7.05,24.13-22.05,24.13-36.81h0Z"/>
    <path id="_102820960" data-name=" 102820960" class="cls-2" d="m263.68,394.3c2.1-4.22,5.04-6.07,8.75-5.49,1.83-3.77,3.96-6.04,6.37-6.72,1.86-.53,3.9-.09,6.06,1.24,1.51-3.64,3.41-5.81,5.64-6.41,2.09-.57,4.52.21,7.2,2.3l.09.09c2.63,2.93,4.64,6.18,6,9.69-.42-1.84-.93-3.61-1.57-5.26-.16-.02-.35-.09-.49-.38-2.63-4.9-6.53-8.61-11.26-10.74-3.39-1.57-7.12-2.27-11.06-2.07-3.82.2-7.58,1.27-10.87,3.11-5.17,2.79-9.22,7.2-11.7,12.7-.12.9-.18,1.71-.18,2.44,0,1.69.32,2.93.98,3.72,1.04,1.23,2.97,1.8,6.03,1.81h0Z"/>
    <path id="_103684072" data-name=" 103684072" class="cls-2" d="m291.07,371.34c2.91,1.3,5.59,3.28,7.9,5.75-2.79-4.64-6.4-8.82-10.67-12.14-8.1-5.08-15.67-6.42-22.52-3.95-6.56,2.31-12.76,8.08-18.41,17.11-.35.9-.52,1.72-.52,2.46s.18,1.44.54,2.04c1.07,1.79,3.81,2.97,8.12,3.51.03-.08.05-.17.05-.17l-.07.16.02-.22c2.6-5.75,6.88-10.4,12.37-13.42,3.64-1.99,7.52-3.1,11.52-3.29,4.12-.21,8.15.55,11.66,2.17h0Z"/>
    <path id="_103207840" data-name=" 103207840" class="cls-2" d="m238,372.58c.84,2.66,3.61,4.28,8.23,4.8,5.75-9.27,12.16-15.23,19.08-17.73,4.19-1.45,8.47-1.55,12.99-.48-5.27-2.2-10.79-3.38-16.44-3.38-3.85,0-7.79.54-11.69,1.62l.1-.06s-.35.19-.26.17c-6.13,3-10.05,7.92-12,15.06h0Z"/>
    <path id="_103751000" data-name=" 103751000" class="cls-2" d="m229.2,380.37c0,2.95.53,5.76,1.59,8.39,2.56,6.24,7.97,11.34,16.07,15.15,2.41,1.07,4.43,1.89,6.49,2.41,1.97.47,3.85.64,5.91.52,0,0,.79-.24.74-.21,2.13-1.92,3.1-3.28,3.46-4.85.17-.63.25-1.3.25-2.02,0-1.22-.22-2.58-.54-4.11-3.24-.09-5.34-.8-6.58-2.23-.91-1.12-1.35-2.65-1.35-4.75,0-.36.02-.75.05-1.15-4.65-.61-7.7-1.95-9.04-3.99-.55-.83-.82-1.79-.82-2.86,0-.61.13-1.28.31-1.96-5.11-.63-8.18-2.63-9.11-6v-.32c1.43-5.46,4.13-9.76,7.9-12.92-4.7,2.1-8.92,4.88-12.51,8.34-1.87,4.42-2.81,8.61-2.81,12.54h0Z"/>
    <path id="_62010096" data-name=" 62010096" class="cls-2" d="m261.05,416.59c.22-.63.33-1.32.33-2.08s-.12-1.62-.34-2.56c-.27-1.2-.79-2.49-1.49-3.74-2.3.17-4.44,0-6.5-.53-2.41-.56-4.68-1.53-6.77-2.5-8.33-3.89-14.13-9.4-16.76-15.92-1.14-2.8-1.71-5.78-1.71-8.92s.6-6.44,1.73-9.89c-4.31,4.93-7.52,10.69-9.25,16.79.03.12.06.29.06.27,1.51,11.43,5.5,19.95,11.87,25.32,5.91,5.02,14.18,7.48,24.56,7.33.76-.13,1.34-.43,1.82-.69,1.15-.64,2.01-1.66,2.44-2.88h0Z"/>
    <path id="_62009896" data-name=" 62009896" class="cls-2" d="m231.27,413.9c-6.02-5.11-9.96-12.89-11.78-23.09-.52,2.8-.84,5.57-.84,8.23,0,4.02.59,8.1,1.75,12.14,3.15,8.15,7.19,14.26,12,18.18,5.16,4.09,11.27,5.73,18.18,4.85,1.18-.11,2.31-.43,3.44-.95,1.25-.66,2.16-1.55,2.71-2.64.46-.93.69-1.97.69-3.12,0-.34-.02-.7-.06-1.06-.2-1.52-.73-3.15-1.56-4.83-10.41-.03-18.44-2.54-24.55-7.69h0Z"/>
    <path id="_103303712" data-name=" 103303712" class="cls-2" d="m250.78,435.57c-6.02.79-11.44-.29-16.2-3.11,6.73,5.51,15.01,8.9,23.67,9.64,10.04-8.67,16.41-17.31,18.93-25.68.85-2.78,1.28-5.57,1.28-8.34,0-6.02-2.02-12.01-6.04-17.89-3.32-.52-5.86,1.19-7.73,5.14,0,0-.07.12-.12.22.33,1.56.56,2.96.56,4.24,0,.83-.09,1.62-.31,2.38-.44,1.84-1.6,3.46-3.93,5.55.67,1.37,1.19,2.69,1.52,3.94.25.95.37,1.86.37,2.73,0,.95-.14,1.85-.44,2.69-.54,1.55-1.56,2.77-3.05,3.66-.61.31-1.3.54-2.02.73.78,1.74,1.29,3.37,1.49,4.84.06.44.1.87.1,1.3,0,1.28-.28,2.51-.84,3.68-.76,1.39-1.87,2.45-3.29,3.16-1.18.62-2.5,1-3.93,1.13h0Z"/>
    <path class="cls-17" d="m112.24,446.63v-32.22h9.74l5.85,21.98,5.78-21.98h9.76v32.22h-6.05v-25.36l-6.39,25.36h-6.27l-6.37-25.36v25.36h-6.04Z"/>
    <path class="cls-17" d="m139.24,472.3c0-3.28.49-6.04,1.47-8.26.73-1.64,1.73-3.11,3-4.42,1.27-1.3,2.66-2.27,4.16-2.9,2.01-.85,4.32-1.28,6.95-1.28,4.75,0,8.55,1.47,11.4,4.42,2.85,2.94,4.27,7.04,4.27,12.29s-1.41,9.27-4.24,12.21c-2.83,2.94-6.61,4.41-11.34,4.41s-8.6-1.46-11.43-4.38c-2.83-2.92-4.24-6.95-4.24-12.08Zm6.71-.21c0,3.65.84,6.41,2.53,8.29,1.68,1.88,3.82,2.82,6.42,2.82s4.72-.93,6.38-2.8c1.66-1.87,2.5-4.67,2.5-8.41s-.81-6.45-2.43-8.26c-1.62-1.82-3.77-2.72-6.45-2.72s-4.85.92-6.49,2.76c-1.64,1.84-2.46,4.61-2.46,8.32Z"/>
    <path class="cls-17" d="m173.38,525.23v-31.96h6.51v26.53h16.18v5.43h-22.69Z"/>
    <path class="cls-17" d="m207.31,562.93v-31.96h6.51v26.53h16.17v5.43h-22.68Z"/>
    <path class="cls-17" d="m234.59,603.22v-32.22h23.89v5.45h-17.39v7.14h16.18v5.43h-16.18v8.77h18v5.43h-24.51Z"/>
    <path class="cls-17" d="m270.61,603.22v-32.22h13.69c3.44,0,5.94.29,7.51.86,1.56.58,2.81,1.61,3.75,3.09.94,1.48,1.41,3.17,1.41,5.07,0,2.42-.71,4.42-2.13,5.99-1.42,1.58-3.54,2.57-6.37,2.98,1.41.82,2.57,1.72,3.48,2.7.92.98,2.15,2.73,3.71,5.23l3.93,6.29h-7.78l-4.7-7.01c-1.67-2.51-2.81-4.09-3.43-4.74-.62-.65-1.27-1.1-1.96-1.34-.69-.24-1.78-.36-3.28-.36h-1.32v13.45h-6.5Zm6.5-18.6h4.81c3.12,0,5.07-.13,5.85-.39.78-.27,1.39-.72,1.83-1.37.44-.64.66-1.45.66-2.42,0-1.08-.29-1.96-.87-2.62-.58-.67-1.39-1.09-2.45-1.27-.53-.07-2.11-.11-4.75-.11h-5.08v8.18Z"/>
    <path class="cls-17" d="m308.96,530.97h6.5v17.45c0,2.77.08,4.57.24,5.39.28,1.32.94,2.38,1.99,3.17,1.05.8,2.48,1.2,4.3,1.2s3.24-.38,4.18-1.14c.94-.75,1.5-1.68,1.69-2.78.19-1.1.29-2.92.29-5.47v-17.83h6.5v16.92c0,3.87-.17,6.6-.53,8.2-.35,1.6-1,2.94-1.94,4.05-.95,1.1-2.21,1.97-3.79,2.63-1.58.65-3.65.98-6.2.98-3.08,0-5.41-.35-7-1.07-1.59-.71-2.85-1.63-3.77-2.77-.93-1.13-1.53-2.33-1.83-3.57-.42-1.85-.63-4.57-.63-8.17v-17.19Z"/>
    <path class="cls-17" d="m341.21,514.87l6.33-.61c.38,2.12,1.15,3.68,2.32,4.68,1.16,1,2.74,1.49,4.71,1.49,2.1,0,3.67-.44,4.74-1.33,1.06-.88,1.59-1.92,1.59-3.11,0-.76-.22-1.41-.67-1.94-.45-.53-1.23-1-2.34-1.4-.76-.26-2.5-.73-5.21-1.41-3.49-.86-5.93-1.92-7.34-3.19-1.98-1.77-2.97-3.94-2.97-6.49,0-1.64.47-3.18,1.4-4.6.93-1.43,2.27-2.52,4.02-3.27,1.75-.75,3.86-1.12,6.34-1.12,4.04,0,7.09.88,9.13,2.66,2.04,1.77,3.12,4.14,3.22,7.1l-6.51.29c-.28-1.66-.88-2.85-1.79-3.57-.91-.72-2.29-1.09-4.12-1.09s-3.37.39-4.44,1.16c-.69.5-1.03,1.16-1.03,2,0,.76.32,1.42.97,1.96.82.69,2.81,1.41,5.98,2.16,3.16.75,5.5,1.52,7.02,2.32,1.52.8,2.7,1.89,3.56,3.28.85,1.39,1.29,3.09,1.29,5.13,0,1.85-.51,3.58-1.54,5.19-1.03,1.61-2.48,2.81-4.35,3.59-1.87.78-4.21,1.18-7.01,1.18-4.08,0-7.21-.94-9.39-2.83-2.18-1.88-3.49-4.62-3.91-8.23Z"/>
    <path class="cls-17" d="m366.26,477.72l6.33-.61c.38,2.12,1.16,3.68,2.32,4.68,1.16,1,2.74,1.5,4.71,1.5,2.1,0,3.67-.44,4.74-1.33,1.06-.88,1.59-1.92,1.59-3.11,0-.76-.22-1.41-.67-1.95-.45-.53-1.23-1-2.34-1.4-.76-.26-2.5-.73-5.21-1.41-3.49-.86-5.93-1.93-7.34-3.19-1.98-1.77-2.97-3.94-2.97-6.49,0-1.64.47-3.18,1.39-4.6.93-1.43,2.27-2.52,4.03-3.26,1.75-.75,3.86-1.12,6.34-1.12,4.04,0,7.09.88,9.13,2.66,2.04,1.77,3.12,4.14,3.22,7.1l-6.51.29c-.28-1.66-.87-2.85-1.79-3.57-.91-.72-2.29-1.09-4.12-1.09s-3.37.39-4.44,1.16c-.69.5-1.04,1.17-1.04,2,0,.76.32,1.42.97,1.96.82.69,2.81,1.41,5.98,2.15,3.16.74,5.5,1.52,7.02,2.32,1.51.8,2.7,1.89,3.56,3.28.86,1.39,1.28,3.09,1.28,5.13,0,1.85-.51,3.58-1.54,5.19-1.02,1.61-2.48,2.81-4.35,3.59-1.88.78-4.22,1.18-7.01,1.18-4.08,0-7.2-.94-9.38-2.83-2.19-1.88-3.49-4.62-3.91-8.23Z"/>
    <path class="cls-17" d="m419.62,446.63h-7.08l-2.82-7.32h-12.88l-2.66,7.32h-6.9l12.55-32.22h6.88l12.9,32.22Zm-11.98-12.75l-4.44-11.95-4.35,11.95h8.79Z"/>
    <polyline class="cls-16" points="120.18 509.08 143.36 540.75 162.38 563.74 189.23 592.49 211.14 613.33 234.59 633.44 249.2 644.99 260.62 653.52 265.36 650.62 262.55 639.79"/>
    <polygon class="cls-16" points="265.36 650.62 278.46 640.55 293.06 628.77 305.99 617.64 318.05 606.67 329.99 595.2 334.65 587.11 280.51 633.8 270.61 639.79 265.36 650.62"/>
    <path class="cls-16" d="m263.48,642.04c-.83.88-1.09,1.97-1.53,3.05l.25-.6c-.09.21-.19.4-.32.58l.39-.51s-.08.09-.12.14l3.93,3.03c.05-.07.1-.14.16-.2l-.39.51c1-1.29,2.16-2.44,3.31-3.6,1.28-1.28,2.5-2.59,3.59-4.04l-4.57-.6c.01.08.03.16.04.24l-.09-.66c.07.55.09,1.09.02,1.64l.09-.66c-.05.36-.15.71-.29,1.04l.25-.6c-.14.3-.3.58-.5.85l.39-.51c-.9,1.15-2.23,1.88-3.26,2.9-.93.92-.99,2.63,0,3.54s2.54.98,3.54,0,2.2-1.65,3.1-2.7c.68-.8,1.22-1.66,1.5-2.69.33-1.25.25-2.46.05-3.72-.06-.38-.38-.84-.64-1.1-.39-.39-.89-.61-1.44-.69-.46-.06-.87,0-1.3.17-.54.23-.84.55-1.2,1.02-.05.07-.1.14-.16.2l.39-.51c-1,1.29-2.16,2.44-3.31,3.6-1.28,1.28-2.5,2.59-3.59,4.04-.35.46-.42,1.39-.25,1.93s.46.96.9,1.3c.95.74,2.42.72,3.28-.2s1.09-1.97,1.53-3.05l-.25.6c.09-.21.19-.4.32-.58l-.39.51s.08-.09.12-.14c.9-.95,1.02-2.6,0-3.54s-2.58-1.02-3.54,0h0Z"/>
    <path id="_104265104" data-name=" 104265104" class="cls-4" d="m385.53,37.9c-30.65-.96-61.56-7.72-92.47-19.92-10.53-4.22-21.06-9.04-31.59-14.4v-.44c-.17,0-.34.09-.42.18-.17-.09-.34-.18-.42-.18v.44c-11.12,5.62-22.16,10.62-33.28,14.92-30.74,12.03-61.39,18.52-91.87,19.4C90.29,39.13,45.55,27.89,1.56,3.14v102.88c7.3,180.05,54.6,318.75,133.9,424.44,27,36.08,57.74,68.29,91.87,97,10.78,9.04,21.82,17.73,33.28,26.07v.62c.08-.08.25-.18.42-.26.09.08.25.18.42.26v-.62c10.78-7.99,21.31-16.24,31.59-24.75,34.3-28.71,65.29-60.92,92.47-97,79.81-105.86,127.53-244.92,134.92-425.75V3.4c0-.09,0-.18,0-.26-44.41,24.93-89.41,36.17-134.92,34.76h0Z"/>
    <line class="cls-1" x1="261.81" y1="242.02" x2="326.94" y2="242.02"/>
    <polyline class="cls-14" points="470.83 90.28 470.83 86.53 470.83 83.8 470.83 82.18 477.45 84.14 480.99 85.25 484.91 86.53 488.29 87.68 491.33 88.75 495.23 90.28"/>
    <polyline class="cls-14" points="410.86 76.8 410.86 71.58 415.96 71.99 421.54 72.53 425.11 73.7 430.85 73.7 434.22 74.19 439.36 75.03 439.36 76.8"/>
    <polyline class="cls-14" points="379.36 73.7 379.36 71.58 377.58 71.58 372.31 71.58 368.25 72.64 365.12 72.2 360.98 72.64 358.92 72.88 356.58 74.19"/>
    <polyline class="cls-14" points="290.12 92.33 291.81 91.22 293.95 90.28 295.91 89.45 297.58 88.75 300.01 87.77 303.19 86.53 305.59 85.63 306.81 85.19 309.89 84.11 312.3 83.29 315.75 82.18 317.53 81.63 320.12 80.85 320.12 82.18 320.12 86.53 321.06 92.33"/>
    <polyline class="cls-14" points="274.54 99.03 272.63 101 271.01 101.94 268.17 103.65 266.51 104.7 264.64 105.89 261.81 107.76 264.91 107.76 269.58 107.76 271.01 107.76 272.58 107.76 274.54 107.76"/>
  </g>
</svg>