<?xml version="1.0" encoding="UTF-8"?>
<svg id="Layer_2" data-name="Layer 2" xmlns="http://www.w3.org/2000/svg" viewBox="0 0 156.76 156.77">
  <defs>
    <style>
      .cls-1 {
        fill: #231f20;
        fill-rule: evenodd;
        stroke-width: 0px;
      }
    </style>
  </defs>
  <g id="Layer_1-2" data-name="Layer 1">
    <path class="cls-1" d="m65.54,8.39C72.12,5.05,84.39-.59,95.15.05c-1.83,1.57-11.63,9.34-15.03,12.56,4.84,1.87,14.78,5.62,17.82,8.02-6,.26-17.67.88-24.67.98-2.4,3.61-6.56,13.7-7.49,19.57-3.94-2.79-7.83-9.86-11.1-15.16-5,.76-13.53,4.42-18.08,5.74,4.31-6.01,7.91-9.8,13.7-14.4-1.77-3.21-3.85-8.6-4.5-12.18,11.68.12,16.78,2.73,19.74,3.2h0Z"/>
    <path class="cls-1" d="m42.11,74.04c5.25-3.85,14.56-8.21,20.32-9.27-.38-10.5,1.34-16.36,2.35-24.33,4.91,7.03,8.24,12.97,12.9,18.61,8.47-2.33,17.95-5.29,25.66-6.98-6.65,9.35-10.5,14.27-15.5,21.21,5.46,7.31,11.17,13.37,16.89,19.42.05.05.09.1.14.14-8.3-.85-17.99-3.6-25.53-5.84-4.7,6.14-8.26,13.42-12.58,20.2-2.2-6.69-4.02-16.18-4.44-25.28-6.61-2.5-13.21-5-20.2-7.87h0Z"/>
    <path class="cls-1" d="m132.66,32.45c9.69,5.05,15.14,11.69,19.4,17.5-4.5-.59-9.32-1.25-14.46-1.39,1.05,6.03,1.41,14.2,1.08,21.3-4.43-7.33-9.83-14.51-13.57-21.05-8.04.44-16.69,2.28-21.74,3.3,3.32-4.17,8.85-11.11,11.85-15.72-3.48-3.2-10.49-10.88-17.81-15.97,10.51,0,17.36,2.73,23.01,4.94,1.99-2.29,3.4-8.18,4.95-11.98,4.07,6.21,6.38,12.87,7.29,19.08h0Z"/>
    <path class="cls-1" d="m104.43,92.65c10.25.52,15.98.53,23.18.63,4.47-7.73,8.68-17.86,11.12-24.7,1.37,5.61,2.49,14.33,2.48,21.39,5.31-1.38,11.13-3.7,15.56-5.84-2.11,7.13-6.62,14.33-14.35,21.34.84,6.62,1.31,10.71,1.02,16.01-4.07-1.32-8.2-3.58-12.64-6.03-5.51,3.21-12.92,6.24-19.88,7.18,3.32-5,7.15-12.27,8.83-15.12-5.21-3.84-10.92-9.06-15.3-14.86h0Z"/>
    <path class="cls-1" d="m79.46,137.81c6.46.55,12.66.97,18.42.89,5.35-5.63,9.69-11.58,13.27-16.32.48,5.11.68,7.96.38,15.88,6.99-.38,14.92-2.54,20.77-2.99-4.36,4.78-19.51,18.46-44.71,21.34-3.13.32-7.22.13-9.46-.19,4.46-2.8,9.24-6.22,11.18-9.08-3.28-2.84-6.94-5.74-9.84-9.53h0Z"/>
    <path class="cls-1" d="m32.02,105.86c5.72,5.16,12.5,10,18.09,14.15,5.89-4.25,12.28-9.52,16.83-13.07-.85,6.94-2.14,14.52-2.98,21.46,5.08,2.96,10.86,6.56,15.94,9.52-4.79.4-10.33.56-16.57.89-.21,6.52.47,11.2.89,16.96-1.32-.38-2.65-.46-4.34-2.19-4.14-4.2-9.61-11.3-11.92-16.04-6.72.2-17.67-1.69-25.91-6.1,7.09-1.64,13.6-3.96,18.1-6.8-2.01-5.97-5.67-12.95-8.13-18.79h0Z"/>
    <path class="cls-1" d="m21.41,60.26c.76,4.7,1.59,11.8,2.03,15.24,6.67-1.37,12.89-1.86,19.12-1.84-4.25,3.55-10.8,8.47-15.94,16.39,2.5,6.72,4.48,12.56,5.78,16.57-4.13-2.12-8.83-5.25-13.15-7.93-1.64,2.9-6.08,8.65-9.46,15.62-1.35-.83-1.82-2.48-2.74-4.25-.7-4.4.63-14.03,2.03-19.75-3.05-2.27-7.23-4.66-9.08-7.81,3.84-2.72,8.74-3.81,13.08-4.76,1.89-6.85,5.23-13.71,8.32-17.46h0Z"/>
    <path class="cls-1" d="m2.5,62.95c-.02-14.59,14.53-40.31,27.01-46.6-2.01,4.63-3.7,9.7-4.44,15.6,3.97-.04,7.6-.12,11.57-.16-5.68,3.85-9.25,7-14.11,11.76-.72,3.54-1.18,11.62-1.07,17.37-2.73-3.04-5.13-5.9-7.67-9.64-3.32,2.44-7.65,6.96-11.28,11.67h0Z"/>
  </g>
</svg>