<?xml version="1.0" encoding="UTF-8"?>
<svg id="Layer_2" data-name="Layer 2" xmlns="http://www.w3.org/2000/svg" viewBox="0 0 435.05 435.05">
  <defs>
    <style>
      .cls-1 {
        fill: #f4ffff;
      }

      .cls-1, .cls-2, .cls-3, .cls-4, .cls-5 {
        fill-rule: evenodd;
        stroke-width: 0px;
      }

      .cls-2 {
        fill: #fffcfd;
      }

      .cls-3 {
        fill: #fff;
      }

      .cls-4 {
        fill: #fffcff;
      }

      .cls-5 {
        fill: #860037;
      }
    </style>
  </defs>
  <g id="Layer_1-2" data-name="Layer 1">
    <g>
      <path class="cls-3" d="m405.61,291.66l-6.45,14.18-31.36-14.27-1.19,2.61,36.77,16.72,6.45-14.18c1.52-3.34,2.51-5.89,2.98-7.61.47-1.73.64-3.31.52-4.72-.16-2.09-.85-3.98-2.09-5.67-.81-1.09-1.79-2.02-2.93-2.8.45,1.07.72,2.2.8,3.41.12,1.41-.05,3-.52,4.72-.46,1.73-1.46,4.27-2.98,7.61h0Z"/>
      <path class="cls-3" d="m395.88,293.64l3.2-7.03c1.01-2.22,1.4-3.91,1.18-5.09-.22-1.16-1.07-2.09-2.56-2.76-1.34-.61-2.53-.65-3.6-.1-1.05.53-1.97,1.64-2.73,3.32l-3.62,7.96,8.13,3.7Z"/>
      <path class="cls-3" d="m380.79,286.78l3.4-7.47c.71-1.57.95-2.88.71-3.93-.23-1.04-.95-1.84-2.15-2.38-1.12-.51-2.13-.53-3.02-.07-.9.46-1.68,1.4-2.32,2.81l-3.58,7.87,6.96,3.16Z"/>
      <path class="cls-5" d="m217.52,3.19c-59.19,0-112.77,23.99-151.56,62.78C27.18,104.75,3.19,158.34,3.19,217.52s23.99,112.77,62.78,151.56c38.79,38.79,92.37,62.78,151.56,62.78s112.77-23.99,151.56-62.78c38.79-38.78,62.78-92.37,62.78-151.56s-23.99-112.77-62.78-151.56C330.3,27.18,276.71,3.19,217.52,3.19h0ZM63.71,63.71C103.07,24.35,157.46,0,217.52,0s114.45,24.35,153.81,63.71c39.37,39.36,63.71,93.75,63.71,153.81s-24.35,114.45-63.71,153.81c-39.36,39.37-93.74,63.71-153.81,63.71s-114.45-24.35-153.81-63.71C24.35,331.97,0,277.59,0,217.52S24.35,103.07,63.71,63.71h0Z"/>
      <path class="cls-5" d="m377.67,193.47l14.93-1.77,23.07-16.65,1.35,11.41-15.11,9.18,16.84,5.37,1.36,11.46-26.34-10.9-14.92,1.77-1.17-9.86Z"/>
      <path class="cls-5" d="m368.99,160.2l30.08-10.31-3.71-10.82,7.66-2.62,10.73,31.29-7.66,2.62-3.71-10.81-30.08,10.31-3.31-9.66Z"/>
      <path class="cls-5" d="m359.79,140.14l35.63-17.95,4.59,9.12-35.63,17.95-4.59-9.12Z"/>
      <path class="cls-5" d="m329.41,369.44c1.86,4.47,2.14,8.62.84,12.46-1.3,3.84-4.04,7.01-8.23,9.5-5.02,2.98-10.04,3.75-15.06,2.31-5.02-1.45-9.12-4.85-12.3-10.19-3.31-5.55-4.38-10.92-3.22-16.09,1.16-5.17,4.37-9.32,9.61-12.44,4.16-2.47,8.21-3.4,12.14-2.78,3.94.63,7.22,2.73,9.85,6.29l-8.25,4.91c-1.39-1.41-2.89-2.19-4.5-2.35-1.63-.16-3.35.3-5.18,1.39-2.46,1.46-3.82,3.59-4.09,6.38-.27,2.79.59,5.87,2.6,9.24,1.99,3.34,4.22,5.55,6.67,6.6,2.45,1.05,4.91.85,7.36-.61,1.97-1.17,3.27-2.59,3.88-4.26.62-1.67.53-3.51-.27-5.51l8.15-4.85Z"/>
      <path class="cls-5" d="m296.73,75.26l23.07-32.55,13.9,9.86c4.82,3.42,7.51,7.44,8.1,12.07.58,4.63-.99,9.57-4.72,14.83-3.85,5.44-8.07,8.56-12.64,9.37-4.57.81-9.54-.68-14.89-4.48l-12.82-9.09Zm13.22-.9l4.53,3.21c2.58,1.83,5,2.41,7.28,1.74,2.27-.67,4.56-2.61,6.86-5.86,2.31-3.26,3.4-6.07,3.27-8.43-.13-2.36-1.48-4.45-4.06-6.28l-4.53-3.21-13.35,18.83Z"/>
      <path class="cls-5" d="m261.5,60.81l14.77-37.06,17.73,7.07c4.7,1.88,7.82,4.09,9.38,6.65,1.55,2.56,1.62,5.61.22,9.13-.83,2.08-2.01,3.67-3.55,4.78-1.55,1.11-3.51,1.77-5.91,1.98,1.38,1.27,2.18,2.56,2.43,3.89.25,1.33-.11,3.36-1.08,6.09-.25.78-.6,1.81-1.06,3.1-1.07,3.04-1.24,4.97-.52,5.81l-.51,1.28-9.95-3.96c.04-1.5.47-3.41,1.32-5.72.84-2.3,1.35-3.76,1.52-4.38.42-1.5.36-2.75-.2-3.75-.55-1-1.65-1.82-3.29-2.48l-6.34-2.52-5.52,13.86-9.43-3.76Zm17.88-17.43l7.07,2.82c1.91.76,3.46.97,4.63.62,1.18-.34,2.08-1.29,2.69-2.83.54-1.37.5-2.55-.1-3.55-.61-1.01-1.81-1.88-3.61-2.59l-7.32-2.91-3.37,8.45Z"/>
      <path class="cls-5" d="m221.89,34.66c.86-6.43,3.32-11.27,7.38-14.53,4.05-3.25,9.13-4.48,15.21-3.66,6.11.82,10.69,3.34,13.78,7.56,3.08,4.23,4.2,9.55,3.34,15.96-.86,6.41-3.34,11.24-7.43,14.51-4.09,3.25-9.19,4.47-15.29,3.65-6.09-.82-10.66-3.34-13.71-7.54-3.05-4.21-4.14-9.53-3.28-15.96h0Zm10.29,1.38c-.54,4.03-.14,7.22,1.21,9.6,1.35,2.37,3.55,3.75,6.61,4.16,3.07.41,5.59-.34,7.53-2.26,1.95-1.93,3.19-4.91,3.73-8.93.54-4,.13-7.2-1.24-9.58-1.36-2.38-3.59-3.78-6.66-4.19-3.06-.41-5.55.34-7.48,2.27-1.93,1.93-3.16,4.91-3.7,8.93h0Z"/>
      <path class="cls-5" d="m189.83,57.4l-3.31-39.76,28.54-2.38.68,8.24-18.41,1.53.69,8.24,15.98-1.33.68,8.24-15.98,1.33,1.25,15.04-10.12.84Z"/>
      <path class="cls-5" d="m152.76,53.94l9.44-2.72c.7,2.17,1.82,3.64,3.36,4.39,1.54.76,3.47.8,5.82.12,1.99-.57,3.44-1.35,4.34-2.33.9-.97,1.19-2.06.84-3.26-.18-.61-.46-1.12-.86-1.52-.4-.41-.87-.66-1.41-.77-.82-.18-2.73-.28-5.75-.29-3.01-.02-5.58-.13-7.72-.34-3.07-.3-5.59-1.14-7.53-2.52-1.95-1.38-3.27-3.27-3.96-5.66-1.05-3.66-.52-6.97,1.6-9.93,2.12-2.95,5.54-5.11,10.24-6.47,4.61-1.33,8.6-1.25,11.96.25,3.37,1.49,5.61,4.18,6.72,8.05l-9.22,2.66c-.72-1.73-1.73-2.86-3.03-3.41-1.29-.54-2.94-.53-4.92.04-1.58.46-2.77,1.15-3.57,2.09-.8.93-1.06,1.9-.77,2.91.49,1.7,3.31,2.63,8.46,2.78.93.03,1.64.05,2.13.06h.43c5.31.2,8.72.6,10.21,1.21,1.51.65,2.79,1.57,3.83,2.74,1.03,1.18,1.79,2.6,2.27,4.26,1.11,3.82.5,7.22-1.81,10.19-2.31,2.96-6.1,5.21-11.38,6.74-4.98,1.44-9.11,1.39-12.37-.14-3.26-1.54-5.71-4.57-7.34-9.13h0Z"/>
      <path class="cls-5" d="m116.29,89.39l-20.37-34.31,12.07-7.17,14.44,14.01c1.27,1.23,2.49,2.46,3.64,3.64,1.15,1.2,2.24,2.38,3.28,3.55-.53-1.57-1.07-3.23-1.61-4.98-.53-1.75-1.09-3.64-1.64-5.68l-5.09-18.27,12.07-7.17,20.37,34.3-8.01,4.76-9.03-15.2c-.64-1.07-1.51-2.59-2.6-4.56-1.09-1.96-2.34-4.25-3.73-6.84l9.09,30.32-8.72,5.18-22.14-22.57c1.91,2.97,3.62,5.67,5.12,8.05,1.51,2.4,2.67,4.27,3.48,5.64l7.43,12.51-8.06,4.79Z"/>
      <path class="cls-5" d="m94.61,111.17l-27.67-28.74,7.39-7.12,21.66,22.5,13.91-13.39,6,6.23-21.31,20.51Z"/>
      <path class="cls-5" d="m75.87,137.68l-32.73-22.81,17.33-24.87,6.69,4.66-11.5,16.5,5.78,4.03,10.5-15.07,6.55,4.57-10.5,15.07,7.01,4.89,11.86-17.03,6.69,4.66-17.7,25.4Z"/>
      <path class="cls-5" d="m60.99,172.84l-36.99-14.96,3.85-9.52,13.12,5.3,5.24-12.96-13.12-5.3,3.85-9.51,36.99,14.95-3.85,9.52-15.59-6.3-5.24,12.96,15.59,6.3-3.85,9.52Z"/>
      <path class="cls-5" d="m45.93,174.65c4.65,1.35,8.05,3.73,10.23,7.15,2.18,3.42,2.93,7.54,2.25,12.37-.82,5.78-3.36,10.17-7.63,13.18-4.27,3.01-9.5,4.08-15.65,3.21-6.4-.9-11.26-3.43-14.56-7.57-3.3-4.14-4.52-9.24-3.67-15.28.68-4.79,2.49-8.53,5.44-11.21,2.96-2.68,6.64-3.92,11.07-3.74l-1.34,9.5c-1.96.2-3.51.88-4.65,2.04-1.14,1.16-1.86,2.8-2.16,4.91-.4,2.83.4,5.22,2.4,7.19,2,1.95,4.94,3.21,8.83,3.76,3.86.54,6.97.19,9.32-1.07,2.35-1.26,3.74-3.29,4.13-6.11.32-2.27.03-4.17-.89-5.69-.91-1.53-2.41-2.61-4.46-3.25l1.33-9.39Z"/>
      <path class="cls-5" d="m339.91,324.46l5.78-8.2,20.04,14.15c2.21,1.56,4.08,2.25,5.62,2.06,1.54-.18,2.99-1.26,4.38-3.22,1.37-1.94,1.88-3.65,1.54-5.16-.35-1.5-1.62-3.03-3.83-4.59l-20.04-14.15,5.85-8.28,19.07,13.46c2.69,1.9,4.64,3.67,5.87,5.33,1.22,1.66,1.96,3.5,2.2,5.5.24,2.09.05,4.2-.57,6.3-.63,2.11-1.7,4.23-3.21,6.37-1.51,2.14-3.15,3.85-4.93,5.15-1.77,1.29-3.69,2.17-5.74,2.65-1.99.45-3.99.37-5.98-.21-1.99-.59-4.32-1.83-6.98-3.71l-19.07-13.46Z"/>
      <path class="cls-5" d="m344.97,375.01l-27.63-29.46,7.48-7.01,21.64,23.07,14.07-13.19,5.99,6.39-21.54,20.2Z"/>
      <path class="cls-5" d="m186.41,375.95l11,1.78,7.45,42.12-10.82-1.75-1.21-7.71-13.15-2.13-3.43,6.96-10.45-1.69,20.61-37.59Zm-2.99,24.44l8.6,1.39-2.15-14.45-6.44,13.06Z"/>
      <path class="cls-5" d="m128.88,400.9l13.84-37.95,18.17,6.63c4.35,1.59,7.28,3.55,8.77,5.9,1.5,2.34,1.65,5.16.45,8.45-.75,2.05-1.82,3.56-3.23,4.55-1.41,1-3.18,1.51-5.35,1.54,1.96,1.36,3.25,2.98,3.87,4.87.61,1.9.52,3.93-.27,6.11-.78,2.12-1.96,3.88-3.54,5.25-1.59,1.36-3.42,2.2-5.49,2.52-1.4.23-2.99.17-4.75-.16-1.76-.33-4.37-1.12-7.82-2.38l-14.64-5.34Zm11.91-4.21l7.25,2.65c2.29.84,4.01,1.09,5.16.79,1.14-.31,2-1.23,2.56-2.76.5-1.38.45-2.58-.17-3.59-.61-1.01-1.79-1.84-3.52-2.47l-8.22-3-3.06,8.39Zm5.68-15.57l7.71,2.81c1.62.59,2.95.73,3.97.41,1.02-.31,1.76-1.09,2.21-2.33.42-1.15.36-2.16-.17-3.02-.53-.86-1.52-1.56-2.98-2.09l-8.12-2.96-2.62,7.18Z"/>
      <path class="cls-5" d="m101.99,385.39l16.89-27.41-9.71-5.99,4.3-6.98,28.12,17.33-4.31,6.98-9.72-5.99-16.89,27.4-8.68-5.35Z"/>
      <path class="cls-5" d="m51.75,294.32c5.33-3.22,10.48-4.24,15.42-3.05,4.95,1.2,9.01,4.42,12.18,9.67,3.18,5.26,4.15,10.38,2.92,15.35-1.24,4.97-4.52,9.06-9.83,12.27-5.31,3.21-10.46,4.21-15.44,2.99-4.97-1.22-9.05-4.46-12.23-9.73-3.17-5.25-4.13-10.34-2.89-15.28,1.24-4.93,4.54-9.01,9.86-12.23h0Zm5.36,8.87c-3.34,2.02-5.47,4.27-6.4,6.76-.93,2.49-.59,5.05,1,7.69,1.6,2.65,3.73,4.16,6.36,4.51,2.65.35,5.64-.49,8.98-2.5,3.32-2.01,5.45-4.27,6.38-6.77.93-2.5.59-5.09-1.01-7.74-1.6-2.64-3.71-4.12-6.34-4.46-2.64-.34-5.62.51-8.96,2.52h0Z"/>
      <path class="cls-5" d="m22.11,270.86l38.12-13.36,9.46,26.98-7.9,2.77-6.1-17.41-7.9,2.77,5.29,15.11-7.9,2.77-5.3-15.11-14.42,5.05-3.35-9.57Z"/>
      <path class="cls-5" d="m369.77,127.5c-4.25,2.31-8.36,3-12.31,2.1-3.95-.9-7.39-3.31-10.29-7.22-3.48-4.69-4.75-9.6-3.83-14.75.93-5.14,3.89-9.57,8.88-13.28,5.19-3.86,10.42-5.47,15.68-4.84,5.26.63,9.71,3.4,13.35,8.3,2.88,3.88,4.22,7.82,4,11.79-.23,3.98-1.98,7.46-5.26,10.44l-5.72-7.71c1.25-1.52,1.88-3.09,1.88-4.72,0-1.63-.64-3.3-1.91-5.01-1.7-2.3-3.96-3.43-6.76-3.43-2.8.02-5.78,1.19-8.92,3.53-3.12,2.32-5.09,4.76-5.88,7.31-.79,2.55-.34,4.96,1.35,7.25,1.37,1.84,2.91,2.99,4.63,3.43,1.72.45,3.54.17,5.46-.83l5.66,7.62Z"/>
      <path class="cls-5" d="m74.09,330.68c4.43-4.37,9.2-6.55,14.29-6.54,5.09.02,9.79,2.21,14.09,6.58,4.32,4.38,6.45,9.13,6.41,14.25-.06,5.13-2.29,9.87-6.71,14.22-4.43,4.36-9.2,6.52-14.32,6.49-5.12-.04-9.83-2.24-14.15-6.63-4.3-4.37-6.42-9.1-6.36-14.19.07-5.08,2.32-9.82,6.76-14.19h0Zm7.27,7.39c-2.78,2.73-4.34,5.42-4.66,8.06-.32,2.64.6,5.05,2.76,7.25,2.17,2.21,4.59,3.18,7.24,2.91,2.66-.27,5.38-1.78,8.16-4.52,2.76-2.72,4.31-5.41,4.63-8.07.32-2.65-.61-5.09-2.78-7.29-2.16-2.2-4.57-3.15-7.21-2.88-2.64.29-5.36,1.8-8.13,4.54h0Z"/>
      <path class="cls-5" d="m249.74,417.54l-9.31-39.3,9.98-2.36,7.29,30.78,18.76-4.45,2.02,8.53-28.74,6.81Z"/>
      <path class="cls-5" d="m212.1,420.04l-1.86-40.35,10.24-.48,1.46,31.6,19.26-.89.4,8.75-29.5,1.36Z"/>
      <path class="cls-5" d="m34.4,234.35c-.75,0-1.44.3-1.93.8-.49.49-.8,1.18-.8,1.93s.31,1.44.8,1.93c.5.49,1.18.8,1.93.8s1.44-.31,1.93-.8c.5-.5.8-1.18.8-1.93s-.3-1.44-.8-1.93c-.49-.5-1.18-.8-1.93-.8h0Zm-3.43-.7c.88-.88,2.09-1.42,3.43-1.42s2.56.54,3.44,1.42c.88.88,1.42,2.09,1.42,3.44s-.54,2.55-1.42,3.43c-.88.88-2.09,1.43-3.44,1.43s-2.55-.55-3.43-1.43c-.88-.88-1.43-2.09-1.43-3.43s.54-2.56,1.43-3.44h0Z"/>
      <path class="cls-5" d="m401.49,234.49c-.75,0-1.44.31-1.93.8-.5.49-.8,1.18-.8,1.93s.3,1.44.8,1.93c.5.49,1.18.8,1.93.8s1.44-.31,1.93-.8c.49-.5.8-1.18.8-1.93s-.31-1.44-.8-1.93c-.5-.5-1.18-.8-1.93-.8h0Zm-3.44-.7c.88-.88,2.09-1.43,3.44-1.43s2.56.55,3.44,1.43c.88.88,1.42,2.09,1.42,3.44s-.54,2.55-1.42,3.43c-.88.88-2.1,1.43-3.44,1.43s-2.56-.55-3.44-1.43-1.42-2.09-1.42-3.43.54-2.56,1.42-3.44h0Z"/>
      <path class="cls-5" d="m399.15,305.84l-36.77-16.72,8.01-17.61c1.92-4.22,4.1-6.98,6.56-8.29,2.45-1.31,5.28-1.24,8.46.21,1.98.9,3.41,2.09,4.29,3.57.89,1.48,1.26,3.29,1.12,5.45,1.51-1.85,3.22-3.01,5.15-3.48,1.94-.46,3.96-.22,6.07.74,2.06.94,3.72,2.25,4.97,3.94,1.24,1.69,1.93,3.57,2.09,5.67.12,1.41-.05,3-.52,4.72-.46,1.73-1.46,4.27-2.98,7.61l-6.45,14.18Zm-3.27-12.2l3.2-7.03c1.01-2.22,1.4-3.91,1.18-5.09-.22-1.16-1.07-2.09-2.56-2.76-1.34-.61-2.53-.65-3.6-.1-1.05.53-1.97,1.64-2.73,3.32l-3.62,7.96,8.13,3.7Zm-15.09-6.86l3.4-7.47c.71-1.57.95-2.88.71-3.93-.23-1.04-.95-1.84-2.15-2.38-1.12-.51-2.13-.53-3.02-.07-.9.46-1.68,1.4-2.32,2.81l-3.58,7.87,6.96,3.16Z"/>
      <path class="cls-3" d="m399.55,239.16c.5.49,1.18.8,1.93.8s1.44-.31,1.93-.8c.49-.5.8-1.18.8-1.93s-.31-1.44-.8-1.93c-.5-.5-1.18-.8-1.93-.8s-1.44.31-1.93.8c-.5.49-.8,1.18-.8,1.93s.3,1.44.8,1.93h0Z"/>
      <path class="cls-3" d="m36.34,239.02c.5-.5.8-1.18.8-1.93s-.3-1.44-.8-1.93c-.49-.5-1.18-.8-1.93-.8s-1.44.3-1.93.8c-.49.49-.8,1.18-.8,1.93s.31,1.44.8,1.93c.5.49,1.18.8,1.93.8s1.44-.31,1.93-.8h0Z"/>
      <path class="cls-3" d="m66.07,300.66c-2.64-.34-5.62.51-8.96,2.52-3.34,2.02-5.47,4.27-6.4,6.76-.93,2.49-.59,5.05,1,7.69,1.6,2.65,3.73,4.16,6.36,4.51,2.65.35,5.64-.49,8.98-2.5,3.32-2.01,5.45-4.27,6.38-6.77.93-2.5.59-5.09-1.01-7.74-1.6-2.64-3.71-4.12-6.34-4.46h0Z"/>
      <path class="cls-3" d="m89.49,333.53c-2.64.29-5.36,1.8-8.13,4.54-2.78,2.73-4.34,5.42-4.66,8.06-.32,2.64.6,5.05,2.76,7.25,2.17,2.21,4.59,3.18,7.24,2.91,2.66-.27,5.38-1.78,8.16-4.52,2.76-2.72,4.31-5.41,4.63-8.07.32-2.65-.61-5.09-2.78-7.29-2.16-2.2-4.57-3.15-7.21-2.88h0Z"/>
      <path class="cls-3" d="m149.1,373.95l-2.62,7.18,7.71,2.81c1.62.59,2.95.73,3.97.41,1.02-.31,1.76-1.09,2.21-2.33.42-1.15.36-2.16-.17-3.02-.53-.86-1.52-1.56-2.98-2.09l-8.12-2.96Z"/>
      <path class="cls-3" d="m152.08,391.3l-8.22-3-3.06,8.39,7.25,2.65c2.29.84,4.01,1.09,5.16.79,1.14-.31,2-1.23,2.56-2.76.5-1.38.45-2.58-.17-3.59-.61-1.01-1.79-1.84-3.52-2.47h0Z"/>
      <path class="cls-3" d="m189.86,387.33l-6.44,13.06,8.6,1.39-2.15-14.45Z"/>
      <path class="cls-3" d="m321.76,79.31c2.27-.67,4.56-2.61,6.86-5.86,2.31-3.26,3.4-6.07,3.27-8.43-.13-2.36-1.48-4.45-4.06-6.28l-4.53-3.21-13.35,18.83,4.53,3.21c2.58,1.83,5,2.41,7.28,1.74h0Z"/>
      <path class="cls-3" d="m291.08,46.82c1.18-.34,2.08-1.29,2.69-2.83.54-1.37.5-2.55-.1-3.55-.61-1.01-1.81-1.88-3.61-2.59l-7.32-2.91-3.37,8.45,7.07,2.82c1.91.76,3.46.97,4.63.62h0Z"/>
      <path class="cls-3" d="m251.26,38.61c.54-4,.13-7.2-1.24-9.58-1.36-2.38-3.59-3.78-6.66-4.19-3.06-.41-5.55.34-7.48,2.27-1.93,1.93-3.16,4.91-3.7,8.93-.54,4.03-.14,7.22,1.21,9.6,1.35,2.37,3.55,3.75,6.61,4.16,3.07.41,5.59-.34,7.53-2.26,1.95-1.93,3.19-4.91,3.73-8.93h0Z"/>
      <path class="cls-3" d="m206.93,67.01c-.83,1.14-2.43,1.38-3.56.55-1.13-.83-1.38-2.42-.55-3.56,1.52-2.09,2.91-3.65,4.66-4.86,1.8-1.23,3.86-1.99,6.67-2.39,2.56-.37,5.17.27,7.23,1.83,1.88,1.43,3.27,3.59,3.71,6.43.38,2.49-.13,4.73-1.25,6.8-1.03,1.89-2.56,3.57-4.38,5.16-1.09.96-1.85,1.69-2.28,2.38-.25.4-.34.83-.36,1.37,3.95.64,7.48,2.51,10.18,5.21.14.14.27.28.4.42l6.25-5.82c1.46-1.35,3.36-2.36,5.29-2.78-.5,1.67-1.64,3.52-3.01,4.84l-6.56,6.27c1.94,2.93,3.07,6.45,3.07,10.23,0,4.86-1.86,9.27-4.91,12.59l6.94,6.46,3.09-3.12c.42-.42,1.35-.38,1.78.03.4.38.36,1.22.02,1.66l-2.79,3.66,8.32,7.85h8.84c.46,0,.77.25.93.68.15.4.24.93.24,1.33,0,.47-.06,1.07-.25,1.4-.25.43-.55.84-1.02.84l-79.34-.02c-.47,0-.85-.42-1.09-.85-.2-.36-.22-.68-.22-1.13,0-.41.06-.86.29-1.27.25-.43.58-.99,1.05-.99h8.51l8.32-7.85-2.78-3.66c-.33-.44-.38-1.28.02-1.66.43-.4,1.36-.44,1.78-.03l3.09,3.12,6.92-6.44c-3.06-3.31-4.93-7.74-4.93-12.61,0-3.79,1.14-7.32,3.09-10.26l-6.53-6.24c-1.37-1.31-2.51-3.17-3.01-4.84,1.93.42,3.83,1.43,5.29,2.78l6.23,5.8c.12-.13.25-.27.38-.39,2.9-2.89,6.75-4.84,11.04-5.33.07-1.52.37-2.75,1.12-3.94.74-1.19,1.8-2.24,3.26-3.52,1.4-1.23,2.56-2.47,3.26-3.77.6-1.11.88-2.3.68-3.62-.22-1.43-.87-2.48-1.73-3.14-.95-.73-2.2-1.02-3.45-.84-1.98.28-3.38.78-4.52,1.55-1.18.81-2.22,2.01-3.42,3.66h0Zm9.89,18.48v10.72l7.16-6.66c-.09-.1-.19-.2-.29-.3-1.85-1.85-4.22-3.18-6.88-3.76h0Zm9.1,6.66l-9.1,8.7v.84l7.3,6.79c2.27-2.48,3.65-5.77,3.65-9.4,0-2.52-.67-4.89-1.85-6.93h0Zm-22.31,16.36l7.76-7.23-9.58-9.15c-1.18,2.05-1.86,4.43-1.86,6.96,0,3.64,1.39,6.95,3.68,9.42h0Zm.14-18.99l8.01,7.46v-11.66c-3,.45-5.69,1.87-7.75,3.92-.09.09-.18.18-.27.27h0Zm2.63,21.31c1.6,1.02,3.42,1.73,5.38,2.02v-7.16l-5.38,5.14Zm10.44,1.86c1.64-.35,3.17-1,4.54-1.88l-4.54-4.33v6.21Zm7.99,1.43c-2.32,1.69-5.03,2.86-7.99,3.33v10.76h18.93c1.01-.83,1.52-1.95.76-2.67l-2.73-2.61-2.67,2.64c-.32.32-1.43.3-1.76-.01-.29-.29-.39-1.44-.12-1.76l2.53-3.04-6.95-6.64Zm-13.05,3.45c-3.28-.37-6.3-1.59-8.84-3.43l-6.93,6.62,2.53,3.04c.26.32.17,1.47-.12,1.76-.32.31-1.44.33-1.76.01l-2.67-2.64-2.73,2.61c-.75.73-.25,1.84.76,2.67h19.75v-10.64Z"/>
      <path class="cls-3" d="m306.59,320.91l-7.72-8.93-2.61,2.25-1.57-1.81,6.99-6.05,1.57,1.82-2.61,2.26,7.72,8.93-1.77,1.53Zm-181.68-4.93l8.92-11.05,2.73,2.2-4.45,8.88,7.72-6.24,2.75,2.22-8.92,11.05-1.7-1.37,7.03-8.71-8.84,7.26-1.75-1.41,5.23-10.17-7.03,8.71-1.7-1.37Zm19.13,7.82l1.53-5.3-4.2,3.55,2.68,1.75Zm.54,7.05l-2.13-1.39.92-3.24-3.92-2.55-2.56,2.17-2.09-1.37,11.54-9.42,2.1,1.37-3.86,14.43Zm1.21,1.51l6.04-12.85,2.06.97.3,10.62,4.03-8.58,1.98.93-.17.36,2.31.59,1.29,6.08,3.97-4.75,2.64.67-6.15,6.92-1.47,5.8-2.27-.57,1.47-5.82-2-8.48-5.66,12.06-2.13-1-.32-10.38-3.94,8.38-1.98-.93Zm25.14,9.19l3.85-13.67,3.38.95-.59,9.91,4.64-8.78,3.4.96-3.85,13.67-2.1-.59,3.03-10.78-5.26,10.15-2.16-.61.8-11.41-3.03,10.78-2.1-.59Zm12.27,3.61l4.34-13.52,2.23.72-4.34,13.52-2.23-.71Zm3.37,1.4l5.72-12.99,2.09.92.55,10.61,3.82-8.68,2,.88-5.72,12.99-2.16-.95-.57-10.37-3.73,8.47-2-.88Zm17.52-4.75l-4.55,8.22,1.54.86c.66.37,1.18.57,1.54.61.36.04.71-.02,1.04-.16.33-.15.71-.46,1.13-.93.42-.47.88-1.15,1.37-2.04.51-.92.85-1.68,1.02-2.28.16-.6.2-1.13.1-1.58-.1-.45-.32-.84-.64-1.14-.25-.23-.79-.58-1.61-1.04l-.93-.52Zm-.88-3.23l3.75,2.08c.95.53,1.6,1.03,1.97,1.51.36.48.61,1.08.74,1.81.13.73.09,1.55-.13,2.48-.21.93-.65,1.99-1.31,3.18-.6,1.07-1.23,1.94-1.92,2.6-.68.66-1.34,1.12-1.96,1.37-.63.26-1.27.36-1.93.3-.66-.06-1.41-.32-2.23-.78l-3.86-2.14,6.88-12.42Zm5.97,14.98l2.3-.03c.06,1.83.81,2.82,2.24,2.98.71.08,1.29-.05,1.73-.37.45-.33.7-.76.76-1.31.03-.32,0-.6-.13-.84-.12-.24-.31-.45-.59-.62-.27-.18-.95-.5-2.03-.96-.96-.41-1.66-.81-2.08-1.21-.42-.41-.74-.91-.95-1.51-.21-.6-.28-1.23-.21-1.9.08-.77.33-1.44.75-2.02.42-.58.95-.99,1.6-1.24.65-.24,1.43-.32,2.34-.22,1.37.15,2.39.63,3.07,1.45.69.82.98,1.93.87,3.3l-2.36-.14c-.02-.77-.18-1.32-.49-1.65-.31-.34-.78-.54-1.41-.61-.63-.07-1.13,0-1.5.23-.37.22-.57.53-.62.91-.04.38.08.72.37,1.01.28.29.97.66,2.04,1.1,1.14.47,1.95.93,2.43,1.36.48.43.83.96,1.04,1.58.21.63.27,1.36.18,2.21-.13,1.22-.63,2.21-1.47,2.96-.84.75-2.07,1.04-3.67.87-2.84-.31-4.24-2.09-4.21-5.34h0Zm18.52-2.35c.73,1.46,1.57,2.41,2.48,2.85.92.45,1.79.46,2.61.05.83-.42,1.33-1.12,1.5-2.12.18-.99-.11-2.24-.87-3.73-.74-1.46-1.55-2.41-2.44-2.84-.88-.43-1.75-.44-2.6,0-.85.43-1.36,1.14-1.55,2.11-.18.98.11,2.21.86,3.69h0Zm-2.12,1.18c-.76-1.5-1.17-2.86-1.22-4.06-.05-1.2.17-2.23.65-3.07.48-.84,1.23-1.52,2.25-2.04,1.49-.75,2.98-.8,4.49-.14,1.51.66,2.8,2.04,3.86,4.13,1.08,2.12,1.42,4.02,1.03,5.72-.34,1.49-1.25,2.62-2.74,3.37-1.5.76-2.95.84-4.35.24-1.59-.69-2.92-2.07-3.97-4.15h0Zm13.9.37l-5.12-13.25,2.12-.82,7.88,7.12-3.42-8.84,2.04-.79,5.12,13.24-2.2.85-7.73-6.94,3.34,8.63-2.03.79Zm10.39-4.12l-4.85-13.34,8.11-2.95.82,2.25-5.91,2.15,1.07,2.94,5.5-2,.82,2.25-5.5,2,1.32,3.63,6.11-2.23.82,2.26-8.31,3.02Zm12.63-4.66l-3.15-13.84,2.28-.52,1.24,5.45,4.5-1.02-1.24-5.46,2.28-.52,3.15,13.84-2.29.52-1.38-6.05-4.51,1.03,1.38,6.05-2.28.52Zm11.96-2.93l-4.62-13.43,8.16-2.81.78,2.27-5.95,2.05,1.02,2.96,5.53-1.91.79,2.27-5.53,1.91,1.26,3.66,6.15-2.12.78,2.27-8.36,2.88Zm13.47-12.24l-4.08-3.71,1.34,5.34,2.74-1.63Zm6.57,2.62l-2.19,1.3-2.5-2.25-4.02,2.39.82,3.25-2.15,1.28-3.37-14.52,2.15-1.28,11.25,9.83Zm-2.19-9.44l1.41-1.02c.87-.62,1.39-1.06,1.57-1.3.18-.25.26-.54.24-.87-.02-.34-.17-.7-.44-1.08-.27-.37-.55-.61-.86-.73-.31-.12-.62-.13-.93-.03-.22.07-.76.41-1.61,1.03l-1.49,1.08,2.11,2.93Zm2.89,8.01l-8.3-11.52,4.02-2.89c1.03-.74,1.84-1.16,2.43-1.28.59-.11,1.21,0,1.86.3.65.31,1.23.82,1.75,1.53.65.9.95,1.79.92,2.64-.03.86-.4,1.65-1.09,2.37.62,0,1.19.07,1.71.23.52.16,1.34.51,2.45,1.08l2.77,1.42-2.28,1.64-3.19-1.51c-1.15-.55-1.89-.87-2.24-.97-.34-.1-.65-.12-.91-.06-.26.06-.61.24-1.05.56l-.39.29,3.47,4.81-1.9,1.37Z"/>
      <path class="cls-4" d="m164.98,152.76c-.22-.66-.1-1.69.49-2.06,1.3-.81,2.05.02,2.46.99.86,2.02,1.7,4.09,2.74,6,.46.84,1.06,1.58,2.16,1.88.41.11.89.04,1.28-.12.72-.32,1.56-.68,2-1.33.37-.53.32-1.34.09-1.95-.35-.95-1.61-1.62-1.76-2.51-.14-.84-.35-1.96.28-2.53.72-.65,1.71-1.01,2.65-.96,1.74.1,3.2,1.14,5.04,1.38,1.5.2,3.07.21,4.52,0,.45-.06.43.32.4.54-.53,4.03-2.21,7.04-4.44,9.21-.72.71-1.28,1.93-.94,2.88,1.39,3.8,3.75,7.19,5.88,10.64.62,1,1.41,1.91,2.34,2.62.58.45,1.32.8,2.05.84.66.04,1.07-.67,1.21-1.2.36-1.41-.03-2.95.11-4.39.02-.17.2-.34.36-.39.73-.19,1.82-.38,2.25-.24.84.28,1.23,1.42,1.31,2.3.17,1.82-.02,4.08-.89,5.39-1.31,1.98-3,2.81-4.88,3.38-.84.25-1.89.94-2.02,1.78-.07.51,0,1.1.15,1.59.44,1.35,1.92,2.73,3.08,3.77.7.62,1.45,1.62.98,2.34-1.06,1.66-2.14,3.1-2.88,4.85-.25.59-.32,1.3.05,1.92-2.03.58-4.09,1.2-6.12,1.78-.12-.55-.06-1.49.33-2.06.72-1.08,2.14-2.75,2.98-3.73.4-.47-.05-1.37-.52-1.78-.46-.41-1.53-.05-2.23.24-1.04.43-2.09.48-3.12.3-.55-.09-1.03-.54-1.31-1.06-.4-.74-.67-1.61-.8-2.95-.03-.59.02-1.48-.52-1.78-.73-.41-1.74-.24-2.51.09-.58.25-.92.92-1.17,1.5-.19.45-.09.97-.07,1.45.03.61-.36.9-.91,1.36-.74.63-1.73.73-2.6.19-2.06-1.29-4.17-2.21-6.41-3.66-.42-.27-.73-1.1-.59-1.49.29-.83,1.08-.78,1.83-.56.8.23,1.54.37,2.34.57.13.04.39-.02.4-.15.07-.97-.15-1.9-.16-2.72,0-.5.2-.82.49-1.1,1.78-1.69,4.03-2.48,6.05-3.61.31-.18.55-.54.59-.89.05-.49-.15-1-.38-1.43-.96-1.83-1.94-3.09-3.19-5.32-.46-.83-1.54-1.46-2.48-1.36-1.54.16-2.22-.18-3.12-.75-.97-.62-2.05-1.18-2.81-2.01-.95-1.05-1.94-2.08-2.91-3.12-.44-.47-1.08-.82-1.4-1.38-.17-.31-.22-.82-.1-1.15.11-.31.49-.66.79-.74.5-.15,1.17-.05,1.65.15.75.31,1.28,1.01,1.92,1.5.76.58,1.53,1.2,2.44,1.5.46.15.97-.08,1.43-.21.54-.16.66-.4.84-.7.22-.36.26-.99.07-1.38-1.68-3.47-3.51-6.21-4.84-10.18h0Z"/>
      <path class="cls-4" d="m248.06,163.64c.23.99,1.06,1.59,2.16,1.88.41.11.89.04,1.28-.13.72-.32,1.56-.67,2-1.32.36-.54.32-1.34.09-1.95-.36-.95-1.61-1.62-1.76-2.51-.14-.84-.35-1.96.28-2.53.72-.65,1.71-1.01,2.65-.96,1.74.1,3.2,1.14,5.04,1.38,1.5.2,3.06.21,4.52,0,.45-.06.43.32.4.54-.53,4.03-2.21,7.04-4.44,9.21-.72.71-1.29,1.93-.94,2.88,1.39,3.81,3.75,7.2,5.88,10.64.62,1,.61,1.21,1.55,1.92.58.45,1.32.8,2.05.84.65.04,1.07-.67,1.21-1.19.36-1.41.39-2.32-.06-3.97-1.24-4.52-4.22-9.2-4.66-12.39-.55-4.06.55-4.81,1.29-6,.66-1.05,1.86-2.42,4.62-2.77,1.38-.18,3.16,1.07,4.27,1.81.98.66,1.65,3.66,2.13,5.05.19.55,1.04.97,1.39,1.5.29.44.3,1.68.03,2.29-.54,1.2-1.14,1.53-2.31,1.18-1.57-.47-1.59-2.12-1.71-2.72-.32-1.6-.71-2.87-1.27-3.71-.64-.96-.92-1.94-1.97-1.78-.59.09-1.22.37-2.06,1.69-.48.77-.69,2.14-.43,3.47.45,2.36,1.4,4.39,2.2,6.49,1.06,2.77,1.33,3.14,1.62,4.31.32,1.28.94,3.05,1.09,3.91.31,1.75.57,3.49-.57,4.71-1.57,1.68-2.77,2.72-4.64,3.28-.84.25-1.8,1.31-1.92,2.16-.07.51,0,1.1.15,1.59.44,1.35,1.92,2.73,3.08,3.77.7.62,1.45,1.62.98,2.34-1.06,1.66-2.3,3.07-3.16,4.66-.3.56-1.68,2.75-2.02,3.39-1.28.28-2.63.23-4.45.36-.13-.55.53-1.6.91-2.18.72-1.08,2.23-2.49,3.07-3.47.4-.47-.05-1.37-.52-1.78-.46-.41-1.54-.05-2.23.24-1.04.43-2.09.48-3.12.3-.56-.09-1.03-.54-1.31-1.06-.4-.74-.67-1.61-.8-2.95-.03-.59.02-1.48-.52-1.78-.73-.41-1.74-.24-2.51.09-.58.25-.93.92-1.17,1.5-.19.45-.09.97-.07,1.45.03.61-.36.9-.91,1.36-.74.63-1.73.73-2.6.19-2.06-1.29-4.17-2.21-6.41-3.66-.43-.27-.73-1.1-.59-1.49.29-.83,1.08-.78,1.83-.56.8.24,1.53.37,2.34.57.13.04.39-.02.4-.15.08-.97-.16-1.9-.16-2.72,0-.5.2-.82.49-1.1,1.78-1.69,4.03-2.48,6.05-3.61.31-.18.56-.54.59-.89.04-.49-.14-1-.38-1.43-.96-1.83-1.94-3.09-3.19-5.32-.46-.82-1.55-1.46-2.48-1.36-1.54.16-2.22-.18-3.12-.75-.97-.62-2.05-1.17-2.81-2.01-.95-1.05-1.94-2.08-2.91-3.12-.44-.47-1.09-.82-1.39-1.38-.17-.31-.45-.9-.25-1.27.15-.27.51-.7.81-.79.5-.15,1.28.12,1.77.32.75.31,1.28,1.01,1.92,1.5.76.58,1.54,1.2,2.44,1.5.46.15.97-.08,1.43-.21.54-.16.66-.4.84-.7.22-.36.36-1.06.07-1.38-2.47-2.72-2.51-4.74-1.64-5.67.73-.79,2.22-.83,2.5.42h0Z"/>
      <path class="cls-4" d="m242.71,157.53c.53-.36,1.06-.72,1.59-1.08.12-1.52-3.83-8.04-9.05-8.02-4.18.02-8,1.69-9.7,4.74-3.49,6.23-.7,10.38.89,13.69.17.37.28.93,0,1.22l-8.92,9.25-7.43-9.09c-.41-.5-.31-1.14.05-1.59,1.61-2.06,3.14-4.45,2.95-7.31-.06-.94-.33-1.52-.84-2.72-.65-1.52-2.17-2.91-3.52-3.66-1.6-.88-3.62-1.18-5.86-.52-3.94,1.17-5.47,4.3-6.33,8.2-.22,1-.78,1.91-1.17,2.86,1.59.22,2.95.77,4.41,1.22.62.19,1.1-.4,1.41-.91.4-.66.29-1.54-.02-2.3-.36-.86-.25-1.72.02-2.51.28-.82.84-1.61,1.57-2.09,1.14-.75,2.86-.97,4.27-.21,1.48.81,2.01,2.81,1.94,4.55-.07,1.86-.88,2.53-1.64,3.61-.52.74-1.59.99-2.11,1.74-.77,1.11-.14,2.87.75,3.8l9.15,9.44-10.23,10.61c-.24.25-.32.71-.19,1.03.21.54.77.76,1.15,1.41l11.77-10.47,9.54,9.85c.45-.53.86-1.02,1.31-1.55l-8.5-10.4,9.8-8.71c1.26-1.13,2.12-2.5,1.55-4.74-.6-2.32-2.2-4.54-2.48-6.8-.32-2.49.18-4.12,2.04-5.67,1.67-1.4,3.4-1.88,5.53-1.36,2.66.65,4.68,2.22,6.31,4.5h0Z"/>
      <path class="cls-3" d="m138.71,284.39c-.36-.96-.81-1.84-1.39-2.59h0c-.86-1.11-1.99-1.96-3.48-2.42-.83-.26-1.58-.43-2.24-.46-.38-.01-.73.02-1.07.11.09.15.19.29.28.39,1.07,1.21,2.3,2.15,3.62,2.93,1.36.81,2.81,1.44,4.27,2.02h0Zm.64-4.13c1.18,1.54,1.95,3.44,2.41,5.51.75.4,1.48.82,2.17,1.27,2.26,1.5,3.8,3.05,5.05,4.94,1.22,1.82,2.95,5.65,3.98,8.34l-3.86-2.61c-.97-2.52-1.14-2.67-2.24-4.33-1.06-1.59-2.38-2.92-4.34-4.22-.74-.49-1.51-.93-2.28-1.32-.8-.4-1.62-.76-2.45-1.09-1.59-.64-3.16-1.32-4.64-2.2-1.52-.9-2.96-2-4.23-3.44-.25-.28-.51-.66-.71-1.05-.19-.37-.33-.78-.37-1.18-.06-.62.1-1.2.59-1.64.11-.1.24-.19.39-.27.93-.47,1.87-.64,2.88-.6.93.04,1.88.25,2.9.56,2.03.62,3.58,1.78,4.75,3.3h0Z"/>
      <path class="cls-3" d="m314.72,311.21c.94-1.41,1.93-2.59,2.97-3.66,1.02-1.06,2.09-2.01,3.2-2.97.79-.68,1.57-1.37,2.14-2.1.52-.65.89-1.36.98-2.17.12-1.04-.01-2-.31-2.79-.3-.79-.75-1.39-1.25-1.7-.63-.38-1.18-.68-1.73-.97-.62-.33-1.23-.66-1.82-1.02-5.34-3.26-9.51-8.25-13.17-12.63l-.79-.94,1.95-1.63.78.94c3.54,4.24,7.57,9.06,12.54,12.09.58.35,1.14.65,1.69.95.65.34,1.3.69,1.88,1.04.97.6,1.8,1.65,2.3,2.98.43,1.15.63,2.52.46,3.97-.16,1.34-.74,2.46-1.52,3.45-.73.92-1.6,1.7-2.47,2.45-1.06.92-2.08,1.82-3.04,2.82-.94.97-1.84,2.04-2.69,3.3l-2.11-1.41Z"/>
      <path class="cls-3" d="m293.35,286.93c.64-2.55,1.55-4.8,3.13-6.45,1.77-1.85,4.29-2.88,8.01-2.63.13,0,.16,0,.2.01.73.03,1.77.07,2.33.89.47.69.42,1.44.17,2.13-.18.48-.44.9-.64,1.2-1.72,2.58-4.24,3.7-6.74,4.81-.35.16-.7.31-.99.45-.72.33-1.43.62-2.14.92-1.5.62-3,1.24-4.32,2.11-1.71,1.12-3.23,2.62-4.5,4.34-1.31,1.79-1.52,1.82-2.2,3.93-1.38.78-2.61,1.62-3.77,2.47.76-2.37,2.44-5.9,3.91-7.91,1.44-1.97,3.19-3.68,5.16-4.97.77-.5,1.57-.92,2.39-1.31h0Zm4.96-4.68c-.84.88-1.45,2.04-1.92,3.38.46-.2.93-.39,1.37-.6.37-.17.69-.31,1.01-.45h0c2.16-.96,4.33-1.93,5.64-3.9.06-.08.12-.18.18-.28h-.28c-2.87-.2-4.74.52-6,1.84h0Z"/>
      <path class="cls-3" d="m119.46,311.66c-.06.07-.11.47-.15,1.02-.07.88.07,1.93.4,2.8,1.26,3.29,4.03,7.1,7.49,10.71,3.67,3.82,8.1,7.39,12.35,9.88,5.07,2.97,10.19,5.44,15.38,7.67,5.23,2.25,10.47,4.23,15.79,6.25,5.26,1.99,10.38,4,15.56,6.03,6.18,2.43,12.44,4.88,18.75,7.24,2.08.78,4.11,1.39,6.2,1.8,2.08.4,4.21.6,6.49.53,2.88-.08,5.48-.53,8.23-1.26,2.78-.74,5.76-1.79,9.33-3.05,8.99-3.18,17.82-6.56,26.66-9.95,4.28-1.64,8.56-3.28,13.24-5.04,5.48-2.15,11-4.48,16.09-7.16,5.05-2.66,9.69-5.67,13.45-9.21,2.36-2.22,4.95-4.73,7.01-7.38,2-2.55,3.51-5.24,3.82-7.9.16-1.33-.63-1.72-1.58-2.19l-.22-.11h0c-.72-.36-1.45-.78-2.16-1.25-.66-.44-1.29-.91-1.87-1.42-3.93-3.5-7.18-7.15-10.43-10.79l-.79-.89c-.09.23-.2.47-.32.71-.87,1.76-2.43,3.97-4.39,6.37-1.27,1.54-2.84,2.89-4.49,4.06-1.62,1.16-3.28,2.14-4.75,2.96-9.27,5.19-18.43,8.46-27.62,11.75-3.59,1.29-7.19,2.57-10.6,3.89-1.46.57-2.57.99-3.62,1.39-4.44,1.69-7.91,3.01-12.48,5.31-2.21,1.11-4.43,1.88-6.59,2.37-2.47.57-4.86.78-7.07.76-2.05-.01-4.29-.39-6.65-1.08-2.38-.7-4.89-1.72-7.47-3.03-2.15-1.09-4.14-2.09-6.11-2.98-1.98-.9-3.97-1.71-6.1-2.43-7.24-2.46-14.4-5.41-21.45-8.32l-.82-.34c-.8-.33-1.82-.74-2.84-1.16-5.82-2.36-11.89-4.81-17.79-8.84l-1.12-.77.84-1.07c.78-.99,1.47-2.06,2.1-3.13.44-.75.86-1.52,1.25-2.25-.3-.2-.62-.42-.94-.64-4.14-2.81-10.42-7.07-11.45-5.79l-.04.06-.06.06c-1.15,1.13-2.28,2.28-3.42,3.45-4.46,4.56-8.96,9.16-14.96,12.33l-.06.03Zm-2.69.84c.05-.72.21-1.38.47-1.93-.54-.57-1.07-1.12-1.59-1.66-2.23-2.29-4.34-4.48-6.19-7.32-.68-1.04-1.09-2.61-1.02-4.18.05-1.38.47-2.8,1.36-3.95.84-1.07,1.78-1.53,2.8-2.02.33-.16.68-.32.99-.5,2.25-1.28,4.85-3.48,7.44-5.95,2.61-2.5,5.22-5.29,7.4-7.71l1.9,1.7c-2.21,2.45-4.85,5.28-7.54,7.86-2.72,2.6-5.49,4.92-7.95,6.32-.41.24-.78.41-1.14.59-.75.36-1.44.7-1.91,1.29-.54.7-.79,1.59-.83,2.49-.04,1.06.2,2.07.61,2.7,1.71,2.62,3.74,4.72,5.88,6.93.57.59,1.14,1.18,1.71,1.78,5.24-2.97,9.38-7.2,13.48-11.39,1.13-1.16,2.26-2.31,3.41-3.44,2.55-2.97,9.93,2.03,14.8,5.34.69.47,1.33.9,1.88,1.26l.96.63-.53,1.02c-.55,1.06-1.16,2.21-1.84,3.36-.47.78-.95,1.57-1.48,2.32,5.34,3.45,10.87,5.69,16.2,7.84.89.36,1.78.72,2.86,1.16l.82.34c6.99,2.88,14.09,5.81,21.3,8.26,2.23.76,4.29,1.6,6.33,2.53,2.06.93,4.07,1.94,6.21,3.03,2.45,1.25,4.82,2.22,7.03,2.87,2.15.63,4.15.97,5.94.98,2.02.02,4.21-.18,6.49-.7,1.97-.45,4-1.15,6.01-2.16,4.72-2.38,8.23-3.71,12.72-5.42h0c1.21-.46,2.49-.95,3.61-1.38,3.69-1.43,7.18-2.68,10.66-3.92,9.09-3.25,18.17-6.49,27.23-11.57.49-.27.99-.56,1.51-.87l-3.32-5.69-.55-.95.86-.68c.35-.28.75-.58,1.2-.89,2.29-1.61,5.65-3.54,8.5-4.98,3.24-1.64,6.11-2.53,6.87-1.79,1,1.1,1.92,2.12,2.83,3.15,3.2,3.59,6.41,7.18,10.22,10.58.49.43,1.02.84,1.58,1.21.6.4,1.25.77,1.89,1.09h0l.22.11c1.82.9,3.35,1.66,2.98,4.76-.37,3.19-2.09,6.29-4.34,9.18-2.18,2.8-4.86,5.39-7.27,7.66-3.95,3.72-8.77,6.86-14.01,9.62-5.2,2.74-10.8,5.1-16.36,7.29h-.01c-4.18,1.57-8.72,3.31-13.25,5.05-8.81,3.37-17.61,6.75-26.71,9.96-3.61,1.28-6.63,2.34-9.53,3.11-2.93.78-5.71,1.25-8.81,1.34-2.5.07-4.8-.14-7.04-.57-2.23-.43-4.39-1.09-6.61-1.92-6.61-2.47-12.74-4.88-18.79-7.25-5.22-2.05-10.39-4.07-15.53-6.02-5.4-2.04-10.7-4.05-15.9-6.29-5.24-2.25-10.44-4.77-15.65-7.82-4.45-2.61-9.08-6.34-12.9-10.31-3.69-3.84-6.65-7.95-8.04-11.57-.46-1.2-.65-2.66-.56-3.88h0Zm179.72-16.74l-.02-.02-.05-.05-.02-.02c-.21-.18-1.52,1.28-3.77,2.43-2.75,1.4-6,3.25-8.19,4.79l-.2.14,2.7,4.64c.29-.19.58-.39.86-.6,1.48-1.06,2.89-2.26,4-3.6,1.85-2.25,3.3-4.3,4.08-5.88.5-1.01.73-1.66.59-1.81h0Z"/>
      <path class="cls-3" d="m147.39,309.42c-1.55-.95-2.98-2.07-4.25-3.25-2.44-2.27-4.35-4.8-5.57-6.88-1.41-2.4-1.91-4.48-1.39-5.31h0c.05-.09.11-.17.18-.25l1.16,1.07.83.5c-.05.08.48,1.12,1.41,2.7,1.11,1.9,2.86,4.21,5.11,6.3,1.16,1.07,2.44,2.08,3.84,2.94l-1.32,2.17Zm-9.86-14.61l.7.65s.09-.12.11-.15l-.81-.5Z"/>
      <path class="cls-2" d="m144.87,304.31c.88.82,1.84,1.61,2.87,2.31.5-.72.97-1.46,1.41-2.2.44-.75.86-1.51,1.25-2.25l-.94-.64c-3.76-2.55-9.3-6.31-11.04-6,.17.4.64,1.28,1.35,2.48,1.11,1.9,2.86,4.21,5.11,6.3h0Z"/>
      <path class="cls-2" d="m284.25,303.02l2.7,4.64c.29-.19.58-.39.86-.6,1.48-1.06,2.89-2.26,4-3.6,1.85-2.25,3.3-4.3,4.08-5.88.5-1.01.73-1.66.59-1.81h0s-.02-.03-.02-.03l-.05-.05-.02-.02c-.21-.18-1.52,1.28-3.77,2.43-2.75,1.4-6,3.25-8.19,4.79l-.2.14Z"/>
      <path class="cls-1" d="m156.35,241.5h15.85v-9.34c0-4.68,3.82-7.23,8.5-7.23h.4c4.68,0,8.5,2.55,8.5,7.23v9.34h17.52v-11.82c0-4.68,3.85-8.15,8.5-8.61.86-.09,1.71-.07,2.57,0,4.66.35,8.5,3.93,8.5,8.61v11.82h17.56v-9.13c0-4.68,3.83-7.44,8.5-7.44h.4c4.68,0,8.5,2.76,8.5,7.44v9.13h16.29v-24.81c-10.57-12.58-34.52-20.05-59.91-20.28-21.75-.2-44.77,4.07-61.72,19.64v25.44Z"/>
      <path class="cls-2" d="m149.84,138.8h136.68v116.69c0,17.66-7.52,33.14-18.77,45.66-13.39,14.88-32.09,25.58-49.63,30.76l-.57.17-.59-.16c-20.83-5.69-37.86-16.23-49.81-29.25-12.54-13.66-19.5-30.07-19.42-46.53h0v-117.33h2.13Zm3.87,131.35c8.94,3.55,19.29,4.82,27.54.99,7.44-3.46,14.05-3.23,21.73-.95,9.22,2.74,13.77,5.36,24.89,1.02,8.45-3.31,17.98-3.84,26.23.07,8.3,3.93,17.49,2.97,26.12-.63-1.65,6.01-4.22,11.67-7.51,16.93-6.06,1.34-12.62.99-18.61-1.84-8.25-3.91-17.77-3.38-26.23-.07-11.12,4.34-15.67,1.72-24.89-1.02-7.68-2.28-14.29-2.51-21.73.95-6.11,2.84-13.61,3.02-20.48,1.47-3.21-5.43-5.59-11.12-7.07-16.91h0Zm128.56-16.13c-9.35,4.42-19.16,6.01-28.17,1.74-8.25-3.91-17.77-3.38-26.23-.07-11.12,4.34-15.67,1.72-24.89-1.02-7.68-2.28-14.29-2.51-21.73.95-8.82,4.1-19.89,2.46-29.28-1.67v-110.89h130.3v110.96Zm-108.72,49.15c2.54-.39,5.44-1.22,7.7-2.27,7.44-3.46,14.05-3.23,21.73-.95,9.22,2.74,13.77,5.36,24.89,1.02,8.45-3.3,17.69-3.48,25.94.42,1.67.79,4.26,1.23,6.21,1.62-12.19,11.7-27.76,20.2-42.55,24.66-17.91-5-32.85-13.71-43.93-24.5h0Z"/>
      <path class="cls-5" d="m282.27,254.01v-110.96h-130.3v110.89c9.39,4.13,20.47,5.77,29.28,1.67,7.44-3.46,14.05-3.23,21.73-.95,9.22,2.74,13.77,5.36,24.89,1.02,8.45-3.3,17.98-3.84,26.23.07,9.01,4.26,18.82,2.68,28.17-1.74h0Zm-110.06-12.51h-15.85v-25.44c8.34-7.66,18.15-12.59,28.56-15.59.02-.46.14-.98.38-1.34.72-1.08,2.14-2.75,2.98-3.73.4-.47-.05-1.37-.52-1.78-.46-.41-1.53-.05-2.23.24-1.04.43-2.09.48-3.12.3-.55-.09-1.03-.54-1.31-1.06-.4-.74-.67-1.61-.8-2.95-.03-.59.02-1.48-.52-1.78-.73-.41-1.74-.24-2.51.09-.58.25-.92.92-1.17,1.5-.19.45-.09.97-.07,1.45.03.61-.36.9-.91,1.36-.74.63-1.73.73-2.6.19-2.06-1.29-4.17-2.21-6.41-3.66-.42-.27-.73-1.1-.59-1.49.29-.83,1.08-.78,1.83-.56.8.23,1.54.37,2.34.57.13.04.39-.02.4-.15.07-.97-.15-1.9-.16-2.72,0-.5.2-.82.49-1.1,1.78-1.69,4.03-2.48,6.05-3.61.31-.18.55-.54.59-.89.05-.49-.15-1-.38-1.43-.96-1.83-1.94-3.09-3.19-5.32-.46-.83-1.54-1.46-2.48-1.36-1.54.16-2.22-.18-3.12-.75-.97-.62-2.05-1.18-2.81-2.01-.95-1.05-1.94-2.08-2.91-3.12-.44-.47-1.08-.82-1.4-1.38-.17-.31-.22-.82-.1-1.15.11-.31.49-.66.79-.74.5-.15,1.17-.05,1.65.15.75.31,1.28,1.01,1.92,1.5.76.58,1.53,1.2,2.44,1.5.46.15.97-.08,1.43-.21.54-.16.66-.4.84-.7.22-.36.26-.99.07-1.38-1.68-3.47-3.51-6.21-4.84-10.18-.22-.66-.1-1.69.49-2.06,1.3-.81,2.05.02,2.46.99.86,2.02,1.7,4.09,2.74,6,.46.84,1.06,1.58,2.16,1.88.41.11.89.04,1.28-.12.72-.32,1.56-.68,2-1.33.37-.53.32-1.34.09-1.95-.35-.95-1.61-1.62-1.76-2.51-.14-.84-.35-1.96.28-2.53.72-.65,1.71-1.01,2.65-.96,1.74.1,3.2,1.14,5.04,1.38,1.5.2,3.07.21,4.52,0,.45-.06.43.32.4.54-.53,4.03-2.21,7.04-4.44,9.21-.72.71-1.28,1.93-.94,2.88,1.39,3.8,3.75,7.19,5.88,10.64.62,1,1.41,1.91,2.34,2.62.58.45,1.32.8,2.05.84.66.04,1.07-.67,1.21-1.2.36-1.41-.03-2.95.11-4.39.02-.17.2-.34.36-.39.73-.19,1.82-.38,2.25-.24.84.28,1.23,1.42,1.31,2.3.17,1.82-.02,4.08-.89,5.39-1.31,1.98-3,2.81-4.88,3.38-.84.25-1.89.94-2.02,1.78-.07.51,0,1.1.15,1.59.44,1.35,1.92,2.73,3.08,3.77.7.62,1.45,1.62.98,2.34-1.06,1.66-2.14,3.1-2.88,4.85-.19.45-.28.98-.14,1.48,8.93-1.94,18.16-2.62,27.18-2.54,16.39.15,32.19,3.32,44.17,8.94.12-.2.24-.39.34-.54.72-1.08,2.23-2.49,3.07-3.47.4-.47-.05-1.37-.52-1.78-.46-.41-1.54-.05-2.23.24-1.04.43-2.09.48-3.12.3-.56-.09-1.03-.54-1.31-1.06-.4-.74-.67-1.61-.8-2.95-.03-.59.02-1.48-.52-1.78-.73-.41-1.74-.24-2.51.09-.58.25-.93.92-1.17,1.5-.19.45-.09.97-.07,1.45.03.61-.36.9-.91,1.36-.74.63-1.73.73-2.6.19-2.06-1.29-4.17-2.21-6.41-3.66-.43-.27-.73-1.1-.59-1.49.29-.83,1.08-.78,1.83-.56.8.24,1.53.37,2.34.57.13.04.39-.02.4-.15.08-.97-.16-1.9-.16-2.72,0-.5.2-.82.49-1.1,1.78-1.69,4.03-2.48,6.05-3.61.31-.18.56-.54.59-.89.04-.49-.14-1-.38-1.43-.96-1.83-1.94-3.09-3.19-5.32-.46-.82-1.55-1.46-2.48-1.36-1.54.16-2.22-.18-3.12-.75-.97-.62-2.05-1.17-2.81-2.01-.95-1.05-1.94-2.08-2.91-3.12-.44-.47-1.09-.82-1.39-1.38-.17-.31-.45-.9-.25-1.27.15-.27.51-.7.81-.79.5-.15,1.28.12,1.77.32.75.31,1.28,1.01,1.92,1.5.76.58,1.54,1.2,2.44,1.5.46.15.97-.08,1.43-.21.54-.16.66-.4.84-.7.22-.36.36-1.06.07-1.38-2.47-2.72-2.51-4.74-1.64-5.67.73-.79,2.22-.83,2.5.42.23.99,1.06,1.59,2.16,1.88.41.11.89.04,1.28-.13.72-.32,1.56-.67,2-1.32.36-.54.32-1.34.09-1.95-.36-.95-1.61-1.62-1.76-2.51-.14-.84-.35-1.96.28-2.53.72-.65,1.71-1.01,2.65-.96,1.74.1,3.2,1.14,5.04,1.38,1.5.2,3.06.21,4.52,0,.45-.06.43.32.4.54-.53,4.03-2.21,7.04-4.44,9.21-.72.71-1.29,1.93-.94,2.88,1.39,3.81,3.75,7.2,5.88,10.64.62,1,.61,1.21,1.55,1.92.58.45,1.32.8,2.05.84.65.04,1.07-.67,1.21-1.19.36-1.41.39-2.32-.06-3.97-1.24-4.52-4.22-9.2-4.66-12.39-.55-4.06.55-4.81,1.29-6,.66-1.05,1.86-2.42,4.62-2.77,1.38-.18,3.16,1.07,4.27,1.81.98.66,1.65,3.66,2.13,5.05.19.55,1.04.97,1.39,1.5.29.44.3,1.68.03,2.29-.54,1.2-1.14,1.53-2.31,1.18-1.57-.47-1.59-2.12-1.71-2.72-.32-1.6-.71-2.87-1.27-3.71-.64-.96-.92-1.94-1.97-1.78-.59.09-1.22.37-2.06,1.69-.48.77-.69,2.14-.43,3.47.45,2.36,1.4,4.39,2.2,6.49,1.06,2.77,1.33,3.14,1.62,4.31.32,1.28.94,3.05,1.09,3.91.31,1.75.57,3.49-.57,4.71-1.57,1.68-2.77,2.72-4.64,3.28-.84.25-1.8,1.31-1.92,2.16-.07.51,0,1.1.15,1.59.44,1.35,1.92,2.73,3.08,3.77.7.62,1.45,1.62.98,2.34-1.06,1.66-2.3,3.07-3.16,4.66-.3.56-1.68,2.75-2.02,3.39-.32.07-.66.12-1,.16,5.28,2.8,9.67,6.12,12.85,9.91v24.81h-16.29v-9.13c0-4.68-3.83-7.44-8.5-7.44h-.4c-4.68,0-8.5,2.76-8.5,7.44v9.13h-17.56v-11.82c0-4.68-3.84-8.26-8.5-8.61-.86-.07-1.71-.09-2.57,0-4.66.46-8.5,3.93-8.5,8.61v11.82h-17.52v-9.34c0-4.68-3.83-7.23-8.5-7.23h-.4c-4.68,0-8.5,2.55-8.5,7.23v9.34Zm72.09-85.04l-1.59,1.08c-1.63-2.28-3.65-3.85-6.31-4.5-2.13-.52-3.86-.04-5.53,1.36-1.86,1.55-2.36,3.18-2.04,5.67.29,2.26,1.89,4.47,2.48,6.8.57,2.24-.28,3.61-1.55,4.74l-9.8,8.71,8.5,10.4-1.31,1.55-9.54-9.85-11.77,10.47c-.38-.65-.94-.87-1.15-1.41-.13-.32-.05-.78.19-1.03l10.23-10.61-9.15-9.44c-.89-.93-1.52-2.69-.75-3.8.52-.75,1.59-.99,2.11-1.74.76-1.08,1.57-1.75,1.64-3.61.06-1.74-.46-3.74-1.94-4.55-1.4-.76-3.12-.53-4.27.21-.73.47-1.29,1.26-1.57,2.09-.27.79-.38,1.64-.02,2.51.32.75.43,1.63.02,2.3-.31.51-.78,1.11-1.41.91-1.46-.45-2.82-1-4.41-1.22.39-.95.95-1.86,1.17-2.86.85-3.91,2.39-7.04,6.33-8.2,2.24-.67,4.26-.37,5.86.52,1.34.74,2.87,2.13,3.52,3.66.51,1.2.78,1.77.84,2.72.18,2.87-1.34,5.25-2.95,7.31-.36.46-.46,1.09-.05,1.59l7.43,9.09,8.92-9.25c.28-.29.17-.85,0-1.22-1.59-3.31-4.38-7.46-.89-13.69,1.7-3.05,5.52-4.71,9.7-4.74,5.22-.03,9.17,6.5,9.05,8.02h0Z"/>
      <path class="cls-5" d="m254.09,271.27c-8.25-3.91-17.77-3.38-26.23-.07-11.12,4.34-15.67,1.72-24.89-1.02-7.68-2.28-14.29-2.51-21.73.95-8.25,3.84-18.61,2.56-27.54-.99,1.47,5.8,3.85,11.48,7.07,16.91,6.86,1.55,14.36,1.37,20.48-1.47,7.44-3.46,14.05-3.23,21.73-.95,9.22,2.74,13.77,5.36,24.89,1.02,8.45-3.31,17.98-3.84,26.23.07,5.99,2.83,12.55,3.18,18.61,1.84,3.29-5.26,5.86-10.92,7.51-16.93-8.63,3.6-17.82,4.56-26.12.63h0Z"/>
      <path class="cls-5" d="m253.81,301.39c-8.25-3.91-17.49-3.72-25.94-.42-11.12,4.34-15.67,1.72-24.89-1.02-7.68-2.28-14.29-2.51-21.73.95-2.26,1.05-5.16,1.88-7.7,2.27,11.07,10.79,26.01,19.5,43.93,24.5,14.78-4.46,30.36-12.96,42.55-24.66-1.95-.38-4.55-.83-6.21-1.62h0Z"/>
      <path class="cls-5" d="m137.33,281.8c-.85-1.11-1.99-1.96-3.48-2.41-.83-.26-1.58-.43-2.24-.46-.37-.01-.73.02-1.07.11.09.15.19.29.28.39,1.07,1.21,2.3,2.15,3.62,2.93,1.36.81,2.81,1.44,4.27,2.02-.36-.96-.81-1.84-1.39-2.59h0Z"/>
      <path class="cls-5" d="m164.09,333.31l-1.47,5.8-2.27-.57,1.47-5.82-2-8.48-5.66,12.06-2.13-1-.32-10.38-3.94,8.38-1.98-.93,6.04-12.85,2.06.97.3,10.62,4.03-8.58,1.98.93-.17.36,2.31.59,1.29,6.08,3.97-4.75,2.64.67-6.15,6.92Zm1.03-15.09c-5.81-2.35-11.85-4.79-17.73-8.8-.02-.01-.04-.02-.05-.03-1.53-.95-2.93-2.05-4.19-3.22-2.44-2.27-4.35-4.8-5.57-6.88-.43-.73-.77-1.43-1.03-2.08-.69.69-1.38,1.39-2.06,2.09-4.46,4.56-8.96,9.16-14.96,12.33l-.06.03c-.06.07-.11.47-.15,1.02-.07.88.07,1.93.4,2.8,1.26,3.29,4.03,7.1,7.49,10.71,3.67,3.82,8.1,7.39,12.35,9.88,5.07,2.97,10.19,5.44,15.38,7.67,5.23,2.25,10.47,4.23,15.79,6.25,5.26,1.99,10.38,4,15.56,6.03,6.18,2.43,12.44,4.88,18.75,7.24,2.08.78,4.11,1.39,6.2,1.8,2.08.4,4.21.6,6.49.53,2.88-.08,5.48-.53,8.23-1.26,2.78-.74,5.76-1.79,9.33-3.05,8.99-3.18,17.82-6.56,26.66-9.95,4.28-1.64,8.56-3.28,13.24-5.04,5.48-2.15,11-4.48,16.09-7.16,5.05-2.66,9.69-5.67,13.45-9.21,2.36-2.22,4.95-4.73,7.01-7.38,2-2.55,3.51-5.24,3.82-7.9.16-1.33-.63-1.72-1.58-2.19l-.22-.11h0c-.72-.36-1.45-.78-2.16-1.25-.66-.44-1.29-.91-1.87-1.42-3.93-3.5-7.18-7.15-10.43-10.79l-.79-.89c-.09.23-.2.47-.32.71-.87,1.76-2.43,3.97-4.39,6.37-1.27,1.54-2.84,2.89-4.49,4.06-1.62,1.16-3.28,2.14-4.75,2.96-9.27,5.19-18.43,8.46-27.62,11.75-3.59,1.29-7.19,2.57-10.6,3.89-1.46.57-2.57.99-3.62,1.39-4.44,1.69-7.91,3.01-12.48,5.31-2.21,1.11-4.43,1.88-6.59,2.37-2.47.57-4.86.78-7.07.76-2.05-.01-4.29-.39-6.65-1.08-2.38-.7-4.89-1.72-7.47-3.03-2.15-1.09-4.14-2.09-6.11-2.98-1.98-.9-3.97-1.71-6.1-2.43-7.24-2.46-14.4-5.41-21.45-8.32l-.82-.34-2.84-1.16Zm5.81,23.34l3.85-13.67,3.38.95-.59,9.91,4.64-8.78,3.4.96-3.85,13.67-2.1-.59,3.03-10.78-5.26,10.15-2.16-.61.8-11.41-3.03,10.78-2.1-.59Zm12.27,3.61l4.34-13.52,2.23.72-4.34,13.52-2.23-.71Zm3.37,1.4l5.72-12.99,2.09.92.55,10.61,3.82-8.68,2,.88-5.72,12.99-2.16-.95-.57-10.37-3.73,8.47-2-.88Zm108.62-16.56l-8.3-11.52,4.02-2.89c1.03-.74,1.84-1.16,2.43-1.28.59-.11,1.21,0,1.86.3.65.31,1.23.82,1.75,1.53.65.9.95,1.79.92,2.64-.03.86-.4,1.65-1.09,2.37.62,0,1.19.07,1.71.23.52.16,1.34.51,2.45,1.08l2.77,1.42-2.28,1.64-3.19-1.51c-1.15-.55-1.89-.87-2.24-.97-.34-.1-.65-.12-.91-.06-.26.06-.61.24-1.05.56l-.39.29,3.47,4.81-1.9,1.37Zm11.39-9.09l-7.72-8.93-2.61,2.25-1.57-1.81,6.99-6.05,1.57,1.82-2.61,2.26,7.72,8.93-1.77,1.53Zm-158.15-4.49l-3.86,14.43-2.13-1.39.92-3.24-3.92-2.55-2.56,2.17-2.09-1.37,11.54-9.42,2.1,1.37Zm-5.86-4.43l-8.92,11.05-1.7-1.37,7.03-8.71-8.84,7.26-1.75-1.41,5.23-10.17-7.03,8.71-1.7-1.37,8.92-11.05,2.73,2.2-4.45,8.88,7.72-6.24,2.75,2.22Zm53.75,39l6.88-12.42,3.75,2.08c.95.53,1.6,1.03,1.97,1.51.36.48.61,1.08.74,1.81.13.73.09,1.55-.13,2.48-.21.93-.65,1.99-1.31,3.18-.6,1.07-1.23,1.94-1.92,2.6-.68.66-1.34,1.12-1.96,1.37-.63.26-1.27.36-1.93.3-.66-.06-1.41-.32-2.23-.78l-3.86-2.14Zm12.85,2.56l2.3-.03c.06,1.83.81,2.82,2.24,2.98.71.08,1.29-.05,1.73-.37.45-.33.7-.76.76-1.31.03-.32,0-.6-.13-.84-.12-.24-.31-.45-.59-.62-.27-.18-.95-.5-2.03-.96-.96-.41-1.66-.81-2.08-1.21-.42-.41-.74-.91-.95-1.51-.21-.6-.28-1.23-.21-1.9.08-.77.33-1.44.75-2.02.42-.58.95-.99,1.6-1.24.65-.24,1.43-.32,2.34-.22,1.37.15,2.39.63,3.07,1.45.69.82.98,1.93.87,3.3l-2.36-.14c-.02-.77-.18-1.32-.49-1.65-.31-.34-.78-.54-1.41-.61-.63-.07-1.13,0-1.5.23-.37.22-.57.53-.62.91-.04.38.08.72.37,1.01.28.29.97.66,2.04,1.1,1.14.47,1.95.93,2.43,1.36.48.43.83.96,1.04,1.58.21.63.27,1.36.18,2.21-.13,1.22-.63,2.21-1.47,2.96-.84.75-2.07,1.04-3.67.87-2.84-.31-4.24-2.09-4.21-5.34h0Zm16.4-1.17c-.76-1.5-1.17-2.86-1.22-4.06-.05-1.2.17-2.23.65-3.07.48-.84,1.23-1.52,2.25-2.04,1.49-.75,2.98-.8,4.49-.14,1.51.66,2.8,2.04,3.86,4.13,1.08,2.12,1.42,4.02,1.03,5.72-.34,1.49-1.25,2.62-2.74,3.37-1.5.76-2.95.84-4.35.24-1.59-.69-2.92-2.07-3.97-4.15h0Zm8.77-12.88l2.12-.82,7.88,7.12-3.42-8.84,2.04-.79,5.12,13.24-2.2.85-7.73-6.94,3.34,8.63-2.03.79-5.12-13.25Zm10.66-4.22l8.11-2.95.82,2.25-5.91,2.15,1.07,2.94,5.5-2,.82,2.25-5.5,2,1.32,3.63,6.11-2.23.82,2.26-8.31,3.02-4.85-13.34Zm17.48,8.69l-3.15-13.84,2.28-.52,1.24,5.45,4.5-1.02-1.24-5.46,2.28-.52,3.15,13.84-2.29.52-1.38-6.05-4.51,1.03,1.38,6.05-2.28.52Zm7.34-16.36l8.16-2.81.78,2.27-5.95,2.05,1.02,2.96,5.53-1.91.79,2.27-5.53,1.91,1.26,3.66,6.15-2.12.78,2.27-8.36,2.88-4.62-13.43Zm14.62,9.78l-3.37-14.52,2.15-1.28,11.25,9.83-2.19,1.3-2.5-2.25-4.02,2.39.82,3.25-2.15,1.28Z"/>
      <path class="cls-5" d="m144.04,323.8l1.53-5.3-4.2,3.55,2.68,1.75Z"/>
      <path class="cls-5" d="m204.09,341.81l-4.55,8.22,1.54.86c.66.37,1.18.57,1.54.61.36.04.71-.02,1.04-.16.33-.15.71-.46,1.13-.93.42-.47.88-1.15,1.37-2.04.51-.92.85-1.68,1.02-2.28.16-.6.2-1.13.1-1.58-.1-.45-.32-.84-.64-1.14-.25-.23-.79-.58-1.61-1.04l-.93-.52Z"/>
      <path class="cls-5" d="m226.83,347.52c-.18.98.11,2.21.86,3.69.73,1.46,1.57,2.41,2.48,2.85.92.45,1.79.46,2.61.05.83-.42,1.33-1.12,1.5-2.12.18-.99-.11-2.24-.87-3.73-.74-1.46-1.55-2.41-2.44-2.84-.88-.43-1.75-.44-2.6,0-.85.43-1.36,1.14-1.55,2.11h0Z"/>
      <path class="cls-5" d="m283.85,325.11l1.34,5.34,2.74-1.63-4.08-3.71Z"/>
      <path class="cls-5" d="m290.2,319.07l2.11,2.93,1.41-1.02c.87-.62,1.39-1.06,1.57-1.3.18-.25.26-.54.24-.87-.02-.34-.17-.7-.44-1.08-.27-.37-.55-.61-.86-.73-.31-.12-.62-.13-.93-.03-.22.07-.76.41-1.61,1.03l-1.49,1.08Z"/>
      <path class="cls-5" d="m211.37,101.28l-9.58-9.15c-1.18,2.05-1.86,4.43-1.86,6.96,0,3.64,1.39,6.95,3.68,9.42l7.76-7.23Z"/>
      <path class="cls-5" d="m203.74,89.52l8.01,7.46v-11.66c-3,.45-5.69,1.87-7.75,3.92l-.27.27Z"/>
      <path class="cls-5" d="m216.81,85.49v10.72l7.16-6.66-.29-.3c-1.85-1.85-4.22-3.18-6.88-3.76h0Z"/>
      <path class="cls-5" d="m225.91,92.16l-9.1,8.7v.84l7.3,6.79c2.27-2.48,3.65-5.77,3.65-9.4,0-2.52-.67-4.89-1.85-6.93h0Z"/>
      <path class="cls-5" d="m211.75,112.85v-7.16l-5.38,5.14c1.6,1.02,3.42,1.73,5.38,2.02h0Z"/>
      <path class="cls-5" d="m216.81,106.48v6.21c1.64-.35,3.17-1,4.54-1.88l-4.54-4.33Z"/>
      <path class="cls-5" d="m211.75,117.57c-3.28-.37-6.3-1.59-8.84-3.43l-6.93,6.62,2.53,3.04c.26.32.17,1.47-.12,1.76-.32.31-1.44.33-1.76.01l-2.67-2.64-2.73,2.61c-.75.73-.25,1.84.76,2.67h19.75v-10.64Z"/>
      <path class="cls-5" d="m216.81,117.45v10.76h18.93c1.01-.83,1.52-1.95.76-2.67l-2.73-2.61-2.67,2.64c-.32.32-1.43.3-1.76-.01-.29-.29-.39-1.44-.12-1.76l2.53-3.04-6.95-6.64c-2.32,1.69-5.03,2.86-7.99,3.33h0Z"/>
      <path class="cls-5" d="m304.32,280.39c-2.87-.19-4.74.54-6,1.85-.84.88-1.45,2.04-1.92,3.38.46-.2.93-.39,1.37-.6l1.01-.45h0c2.16-.96,4.33-1.93,5.64-3.9l.18-.28h-.28Z"/>
      <path class="cls-5" d="m147.71,256.13v-117.33h138.8v116.69c0,17.66-7.52,33.14-18.77,45.66-13.39,14.88-32.09,25.58-49.63,30.76l-.57.17-.59-.16c-20.83-5.69-37.86-16.23-49.81-29.25-12.54-13.66-19.5-30.07-19.42-46.53h0Zm220.96-38.61c0-81.22-61.09-147.48-141.45-151,.23-3.26-1.38-6.19-3.07-8.09-1.54-1.73-5.39-3.68-9.23-3.65-7.11.07-13.26,3.74-15.33,13.02-73.58,10.18-133.21,73.33-133.21,149.71,0,83.48,67.67,151.15,151.15,151.15s151.15-67.67,151.15-151.15h0Zm-115.04-85.07l-79.34-.02c-.47,0-.85-.42-1.09-.85-.2-.36-.22-.69-.22-1.13,0-.41.06-.86.29-1.27.25-.43.58-.99,1.05-.99h8.51l8.32-7.85-2.78-3.66c-.33-.44-.38-1.28.02-1.66.43-.4,1.36-.44,1.78-.03l3.09,3.12,6.92-6.44c-3.06-3.31-4.93-7.74-4.93-12.61,0-3.79,1.14-7.32,3.09-10.26l-6.53-6.24c-1.37-1.31-2.51-3.17-3.01-4.84,1.93.42,3.83,1.43,5.29,2.78l6.23,5.8.38-.39c2.9-2.89,6.75-4.84,11.04-5.33.07-1.52.37-2.75,1.12-3.94.74-1.19,1.8-2.24,3.26-3.52,1.4-1.23,2.56-2.47,3.26-3.77.6-1.11.88-2.3.68-3.62-.22-1.43-.87-2.48-1.73-3.14-.95-.73-2.2-1.02-3.45-.84-1.98.28-3.38.78-4.52,1.55-1.18.81-2.22,2.01-3.42,3.66-.83,1.14-2.43,1.38-3.56.55-1.13-.83-1.38-2.42-.55-3.56,1.52-2.09,2.91-3.65,4.66-4.86,1.8-1.23,3.86-1.99,6.67-2.39,2.56-.37,5.17.27,7.23,1.83,1.88,1.43,3.27,3.59,3.71,6.43.38,2.49-.13,4.73-1.25,6.8-1.03,1.89-2.56,3.57-4.38,5.16-1.09.96-1.85,1.69-2.28,2.38-.25.4-.34.83-.36,1.37,3.95.64,7.48,2.51,10.18,5.21l.4.42,6.25-5.82c1.46-1.35,3.36-2.36,5.29-2.78-.5,1.67-1.64,3.52-3.01,4.84l-6.56,6.27c1.94,2.93,3.07,6.45,3.07,10.23,0,4.86-1.86,9.27-4.91,12.59l6.94,6.46,3.09-3.12c.42-.42,1.35-.38,1.78.03.4.38.36,1.22.02,1.66l-2.79,3.66,8.32,7.85h8.84c.46,0,.77.25.93.68.15.4.24.93.24,1.33,0,.47-.06,1.07-.25,1.4-.25.43-.55.84-1.02.84h0Zm-119.04,144.5c2.03.62,3.58,1.78,4.75,3.3h0c1.18,1.54,1.95,3.44,2.41,5.51.75.4,1.48.82,2.17,1.27,2.26,1.5,3.8,3.05,5.05,4.94,1.22,1.82,2.95,5.65,3.98,8.34l-3.86-2.61c-.97-2.52-1.14-2.67-2.24-4.33-1.06-1.59-2.38-2.92-4.34-4.22-.74-.49-1.51-.93-2.28-1.32-.8-.4-1.62-.76-2.45-1.09-1.59-.64-3.16-1.32-4.64-2.2-1.52-.9-2.96-2-4.23-3.44-.08-.09-.16-.2-.25-.31-1.82,1.96-3.82,4.06-5.87,6.02-2.72,2.6-5.49,4.92-7.95,6.32-.41.24-.78.41-1.14.59-.75.36-1.44.7-1.91,1.29-.54.7-.79,1.59-.83,2.49-.04,1.06.2,2.07.61,2.7,1.71,2.62,3.74,4.72,5.88,6.93.57.59,1.14,1.18,1.71,1.78,5.24-2.97,9.38-7.2,13.48-11.39,1.13-1.16,2.26-2.31,3.41-3.44.03-.04.06-.07.1-.11,0,0,0,0,0,0,.05-.08.11-.16.18-.24l.04.04c2.81-2.26,9.8,2.49,14.48,5.66.69.47,1.33.9,1.88,1.26l.96.63-.53,1.02c-.55,1.06-1.16,2.21-1.84,3.36-.47.78-.95,1.57-1.48,2.31,5.34,3.46,10.87,5.69,16.2,7.85.89.36,1.78.72,2.86,1.16l.82.34c6.99,2.88,14.09,5.81,21.3,8.26,2.23.76,4.29,1.6,6.33,2.52,2.06.94,4.07,1.94,6.21,3.03,2.45,1.25,4.82,2.22,7.03,2.87,2.15.63,4.15.97,5.94.98,2.02.02,4.21-.18,6.49-.7,1.97-.45,4-1.15,6.01-2.16,4.72-2.38,8.23-3.71,12.72-5.42h0c1.21-.46,2.49-.95,3.61-1.38,3.69-1.43,7.18-2.68,10.66-3.92,9.09-3.25,18.17-6.49,27.23-11.57.48-.27.99-.56,1.51-.87l-3.32-5.69-.55-.95.86-.68c.35-.28.75-.58,1.2-.89,2.29-1.61,5.65-3.54,8.5-4.98,3.24-1.64,6.11-2.53,6.87-1.79,1,1.1,1.92,2.12,2.83,3.15,3.2,3.59,6.41,7.18,10.22,10.58.49.43,1.02.84,1.58,1.21.6.4,1.25.77,1.89,1.09l.22.11c.09.04.17.09.26.13.75-1.02,1.52-1.91,2.33-2.74,1.02-1.06,2.09-2.01,3.2-2.97.79-.68,1.57-1.37,2.14-2.1.52-.65.89-1.36.98-2.17.12-1.04-.01-2-.31-2.79-.3-.79-.75-1.39-1.25-1.7-.63-.38-1.18-.68-1.73-.98-.62-.32-1.23-.66-1.82-1.02-4.96-3.03-8.92-7.56-12.39-11.7-1.72,2.55-4.22,3.66-6.71,4.76l-.99.45c-.72.33-1.43.62-2.14.92-1.5.62-3,1.24-4.32,2.11-1.71,1.12-3.23,2.62-4.5,4.34-1.31,1.79-1.52,1.82-2.2,3.93-1.38.78-2.61,1.61-3.77,2.47.76-2.37,2.44-5.9,3.91-7.91,1.44-1.97,3.19-3.68,5.16-4.97.77-.5,1.57-.92,2.39-1.31.64-2.55,1.56-4.8,3.14-6.45,1.77-1.85,4.29-2.88,8.01-2.63h.2c.73.04,1.77.09,2.33.9,0,.02.02.03.03.04l.65.78c3.54,4.24,7.57,9.06,12.54,12.09.58.35,1.14.65,1.69.95.65.34,1.3.69,1.88,1.04.97.6,1.8,1.65,2.3,2.97.43,1.15.63,2.52.46,3.98-.16,1.34-.74,2.46-1.52,3.45-.73.92-1.6,1.7-2.47,2.45-1.06.92-2.08,1.82-3.04,2.82-.71.74-1.41,1.54-2.07,2.43.55.69.82,1.64.64,3.17-.37,3.19-2.09,6.29-4.34,9.18-2.18,2.8-4.85,5.38-7.27,7.66-3.95,3.72-8.77,6.85-14.01,9.62-5.2,2.74-10.8,5.1-16.36,7.28h-.01c-4.18,1.58-8.72,3.32-13.25,5.05-8.81,3.38-17.61,6.75-26.71,9.96-3.61,1.28-6.63,2.34-9.53,3.11-2.93.78-5.71,1.25-8.81,1.34-2.5.07-4.8-.14-7.04-.57-2.23-.43-4.39-1.09-6.61-1.92-6.61-2.47-12.73-4.88-18.79-7.25-5.22-2.05-10.39-4.07-15.53-6.02-5.4-2.04-10.7-4.05-15.9-6.29-5.24-2.26-10.44-4.77-15.65-7.82-4.45-2.61-9.08-6.34-12.9-10.32-3.69-3.84-6.65-7.95-8.04-11.56-.46-1.2-.65-2.66-.56-3.88.05-.72.21-1.38.47-1.93-.54-.57-1.07-1.12-1.59-1.66-2.23-2.29-4.34-4.48-6.19-7.32-.68-1.04-1.09-2.61-1.02-4.18.05-1.38.47-2.8,1.36-3.95.84-1.07,1.78-1.53,2.8-2.02.33-.16.68-.32.99-.5,2.25-1.28,4.85-3.48,7.44-5.95,2.46-2.35,4.91-4.97,7.01-7.29.09-.16.21-.31.37-.44.11-.1.24-.19.39-.27.93-.47,1.87-.64,2.88-.6.93.04,1.88.25,2.9.56h0Z"/>
      <path class="cls-3" d="m368.68,217.52c0,83.48-67.67,151.15-151.15,151.15s-151.15-67.67-151.15-151.15c0-76.38,59.63-139.54,133.21-149.71,2.07-9.29,8.22-12.95,15.33-13.02,3.84-.04,7.69,1.91,9.23,3.65,1.69,1.89,3.3,4.83,3.07,8.09,80.36,3.52,141.45,69.78,141.45,151h0Zm25.09-15.96l-14.92,1.77-1.17-9.86,14.93-1.77,23.07-16.65,1.35,11.41-15.11,9.18,16.84,5.37,1.36,11.46-26.34-10.9ZM93.57,112.28l-17.7,25.4-32.73-22.81,17.33-24.87,6.69,4.66-11.5,16.5,5.78,4.03,10.5-15.07,6.55,4.57-10.5,15.07,7.01,4.89,11.87-17.03,6.69,4.66Zm-33.34,145.22l9.46,26.98-7.9,2.77-6.1-17.41-7.9,2.77,5.29,15.11-7.9,2.77-5.3-15.11-14.42,5.05-3.35-9.57,38.12-13.36Zm109.43,117.98c1.5,2.34,1.65,5.16.45,8.45-.75,2.05-1.82,3.56-3.23,4.55-1.41,1-3.18,1.51-5.35,1.54,1.96,1.36,3.25,2.98,3.87,4.87.61,1.9.52,3.93-.27,6.11-.78,2.12-1.96,3.88-3.54,5.25-1.59,1.36-3.42,2.2-5.49,2.52-1.4.23-2.99.17-4.75-.16-1.76-.33-4.37-1.12-7.82-2.38l-14.64-5.34,13.84-37.95,18.17,6.63c4.35,1.59,7.28,3.55,8.77,5.9h0Zm155.15-36.95l21.64,23.07,14.07-13.19,5.99,6.39-21.54,20.2-27.63-29.46,7.48-7.01Zm60.6-75.1c1.98.9,3.41,2.09,4.29,3.57.89,1.48,1.26,3.29,1.12,5.45,1.51-1.85,3.22-3.01,5.15-3.48,1.94-.46,3.96-.22,6.07.74,2.06.94,3.72,2.25,4.97,3.94,1.24,1.69,1.93,3.57,2.09,5.67.12,1.41-.05,3-.52,4.72-.46,1.73-1.46,4.27-2.98,7.61l-6.45,14.18-36.77-16.72,8.01-17.61c1.92-4.22,4.1-6.98,6.56-8.29,2.45-1.31,5.28-1.24,8.46.21h0Zm-26.17,33.64l19.07,13.46c2.69,1.9,4.64,3.67,5.87,5.33,1.22,1.66,1.96,3.5,2.2,5.5.24,2.09.05,4.2-.57,6.3-.63,2.11-1.7,4.23-3.21,6.37-1.51,2.14-3.15,3.85-4.93,5.15-1.77,1.29-3.69,2.17-5.74,2.65-1.99.45-3.99.37-5.98-.21-1.99-.59-4.32-1.83-6.98-3.71l-19.07-13.46,5.78-8.2,20.04,14.15c2.21,1.56,4.08,2.25,5.62,2.06,1.54-.18,2.99-1.26,4.38-3.22,1.37-1.94,1.88-3.65,1.54-5.16-.35-1.5-1.62-3.03-3.83-4.59l-20.04-14.15,5.85-8.28Zm-29.83,72.36c1.86,4.47,2.14,8.62.84,12.46-1.3,3.84-4.04,7.01-8.23,9.5-5.02,2.98-10.04,3.75-15.06,2.31-5.02-1.45-9.12-4.85-12.3-10.19-3.31-5.55-4.38-10.92-3.22-16.09,1.16-5.17,4.37-9.32,9.61-12.44,4.16-2.47,8.21-3.4,12.14-2.78,3.94.63,7.22,2.72,9.85,6.29l-8.25,4.91c-1.39-1.41-2.89-2.19-4.5-2.35-1.63-.16-3.35.3-5.18,1.39-2.46,1.46-3.82,3.59-4.09,6.38-.27,2.79.59,5.87,2.6,9.24,1.99,3.34,4.22,5.55,6.67,6.6,2.45,1.05,4.91.85,7.36-.61,1.97-1.17,3.27-2.59,3.88-4.26.62-1.67.53-3.51-.27-5.51l8.15-4.85Zm-262.25-78.16c4.95,1.2,9.01,4.42,12.18,9.67,3.18,5.26,4.15,10.38,2.92,15.35-1.24,4.97-4.52,9.06-9.83,12.27-5.31,3.21-10.46,4.21-15.44,2.99-4.97-1.22-9.05-4.46-12.23-9.73-3.17-5.25-4.13-10.34-2.89-15.28,1.24-4.93,4.54-9.01,9.86-12.23,5.33-3.22,10.48-4.24,15.42-3.05h0Zm60.39,72.06l-16.89,27.4-8.68-5.35,16.89-27.41-9.71-5.99,4.3-6.98,28.12,17.33-4.31,6.98-9.72-5.99Zm-62.72-200.01l-3.85,9.52-36.99-14.96,3.85-9.52,13.12,5.3,5.24-12.96-13.12-5.3,3.85-9.51,36.99,14.95-3.85,9.52-15.59-6.3-5.24,12.96,15.59,6.3Zm74.33-87.52l-8.71,5.18-22.14-22.57c1.91,2.97,3.62,5.67,5.12,8.05,1.51,2.4,2.67,4.27,3.48,5.64l7.43,12.51-8.06,4.79-20.37-34.31,12.07-7.17,14.44,14.01c1.27,1.23,2.49,2.46,3.64,3.64,1.15,1.2,2.24,2.38,3.28,3.55-.53-1.57-1.07-3.23-1.61-4.98-.53-1.75-1.09-3.64-1.64-5.68l-5.09-18.27,12.07-7.17,20.37,34.3-8.01,4.76-9.03-15.2c-.64-1.07-1.51-2.59-2.6-4.56-1.09-1.96-2.34-4.25-3.73-6.84l9.09,30.32Zm59.53-34.28l1.25,15.04-10.12.84-3.31-39.76,28.54-2.38.68,8.24-18.41,1.53.69,8.24,15.98-1.33.68,8.24-15.98,1.33Zm55.47,12.99c-4.09,3.25-9.19,4.47-15.29,3.65-6.09-.82-10.66-3.34-13.71-7.54-3.05-4.21-4.14-9.53-3.28-15.96.86-6.43,3.32-11.27,7.38-14.53,4.05-3.25,9.13-4.48,15.21-3.66,6.11.82,10.69,3.34,13.78,7.56,3.08,4.23,4.2,9.55,3.34,15.96-.86,6.41-3.34,11.24-7.43,14.51h0Zm103.29,75.09c-3.95-.9-7.39-3.31-10.29-7.22-3.48-4.69-4.75-9.6-3.83-14.75.93-5.14,3.89-9.57,8.88-13.28,5.19-3.86,10.42-5.47,15.68-4.84,5.26.63,9.71,3.4,13.35,8.3,2.88,3.88,4.22,7.82,4,11.79-.23,3.98-1.98,7.46-5.26,10.44l-5.72-7.71c1.25-1.52,1.88-3.09,1.88-4.72,0-1.63-.64-3.3-1.91-5.01-1.7-2.3-3.96-3.43-6.76-3.43-2.8.02-5.78,1.19-8.92,3.53-3.12,2.32-5.09,4.76-5.88,7.31-.79,2.55-.34,4.96,1.35,7.25,1.37,1.84,2.91,2.99,4.63,3.43,1.72.45,3.54.17,5.46-.83l5.66,7.62c-4.25,2.31-8.36,3-12.31,2.1h0Zm-20.38-50.14c-3.85,5.44-8.07,8.56-12.64,9.37-4.57.81-9.54-.68-14.89-4.48l-12.82-9.09,23.07-32.55,13.9,9.86c4.82,3.42,7.51,7.44,8.1,12.07.58,4.63-.99,9.57-4.72,14.83h0Zm-37.02-28.09c-1.55,1.11-3.51,1.77-5.91,1.98,1.38,1.27,2.18,2.56,2.43,3.89.25,1.33-.11,3.36-1.08,6.09-.25.78-.6,1.81-1.06,3.1-1.07,3.04-1.24,4.97-.52,5.81l-.51,1.28-9.95-3.96c.04-1.5.47-3.41,1.32-5.72.84-2.3,1.35-3.76,1.52-4.38.42-1.5.36-2.75-.2-3.75-.55-1-1.65-1.82-3.3-2.48l-6.34-2.52-5.52,13.86-9.43-3.76,14.77-37.06,17.73,7.07c4.7,1.88,7.82,4.09,9.38,6.65,1.55,2.56,1.62,5.61.22,9.13-.83,2.08-2.01,3.67-3.55,4.78h0Zm102.32,108.18l-30.08,10.31-3.31-9.66,30.08-10.31-3.71-10.82,7.66-2.62,10.72,31.29-7.66,2.62-3.71-10.81Zm-2.36-28.24l-35.63,17.95-4.59-9.12,35.63-17.95,4.59,9.12ZM183.85,56.47c-2.31,2.96-6.1,5.21-11.38,6.74-4.98,1.44-9.11,1.39-12.37-.14-3.26-1.54-5.71-4.57-7.34-9.13l9.44-2.72c.7,2.17,1.82,3.64,3.36,4.39,1.54.76,3.47.8,5.82.12,1.99-.57,3.44-1.35,4.34-2.33.91-.97,1.19-2.06.84-3.26-.18-.61-.46-1.12-.86-1.52-.4-.41-.87-.66-1.41-.77-.82-.18-2.73-.28-5.75-.29-3.01-.02-5.58-.13-7.72-.34-3.07-.3-5.59-1.14-7.53-2.52-1.95-1.38-3.27-3.27-3.96-5.66-1.05-3.66-.52-6.97,1.6-9.93,2.12-2.95,5.54-5.11,10.24-6.47,4.61-1.33,8.6-1.25,11.96.25,3.36,1.49,5.6,4.18,6.72,8.05l-9.22,2.66c-.72-1.73-1.73-2.86-3.03-3.41-1.29-.54-2.94-.53-4.92.04-1.58.46-2.77,1.16-3.57,2.09-.8.93-1.06,1.9-.77,2.91.49,1.7,3.31,2.63,8.46,2.78l2.13.06h.43c5.31.2,8.72.6,10.21,1.21,1.51.65,2.79,1.57,3.83,2.74,1.03,1.18,1.79,2.6,2.27,4.26,1.11,3.82.5,7.22-1.81,10.19h0ZM217.52,3.19c-59.19,0-112.77,23.99-151.56,62.78C27.18,104.75,3.19,158.34,3.19,217.52s23.99,112.77,62.78,151.56c38.79,38.79,92.37,62.78,151.56,62.78s112.77-23.99,151.56-62.78c38.79-38.78,62.78-92.37,62.78-151.56s-23.99-112.77-62.78-151.56C330.3,27.18,276.71,3.19,217.52,3.19h0ZM88.38,324.14c5.09.02,9.79,2.21,14.09,6.58,4.32,4.38,6.45,9.13,6.41,14.25-.06,5.13-2.29,9.87-6.71,14.22-4.43,4.36-9.2,6.52-14.32,6.49-5.12-.04-9.83-2.24-14.15-6.63-4.3-4.37-6.42-9.1-6.36-14.19.07-5.08,2.32-9.82,6.76-14.18,4.43-4.37,9.2-6.55,14.29-6.54h0Zm27.54-233.49l-21.31,20.51-27.67-28.74,7.39-7.12,21.66,22.5,13.91-13.39,6,6.23Zm81.49,287.07l7.45,42.12-10.82-1.75-1.21-7.71-13.15-2.13-3.43,6.96-10.45-1.69,20.61-37.59,11,1.78ZM45.93,174.65c4.65,1.35,8.05,3.73,10.23,7.15,2.18,3.42,2.93,7.54,2.25,12.37-.82,5.78-3.36,10.17-7.63,13.18-4.27,3.01-9.5,4.08-15.65,3.21-6.4-.9-11.26-3.43-14.56-7.57-3.3-4.14-4.52-9.24-3.67-15.28.68-4.79,2.49-8.53,5.44-11.21,2.96-2.68,6.64-3.92,11.07-3.74l-1.34,9.5c-1.96.2-3.51.88-4.65,2.04-1.14,1.16-1.86,2.8-2.16,4.91-.4,2.83.4,5.22,2.4,7.19,2,1.95,4.94,3.21,8.83,3.76,3.86.54,6.97.19,9.32-1.07,2.35-1.26,3.74-3.29,4.13-6.11.32-2.27.03-4.17-.89-5.69-.91-1.53-2.41-2.61-4.46-3.25l1.33-9.39Zm-6.66,62.43c0,1.34-.54,2.55-1.42,3.43-.88.88-2.09,1.43-3.44,1.43s-2.55-.55-3.43-1.43c-.88-.88-1.43-2.09-1.43-3.43s.54-2.56,1.43-3.44c.88-.88,2.09-1.42,3.43-1.42s2.56.54,3.44,1.42c.88.88,1.42,2.09,1.42,3.44h0Zm181.21,142.14l1.46,31.6,19.26-.89.4,8.75-29.5,1.36-1.86-40.35,10.24-.48Zm29.93-3.35l7.29,30.78,18.76-4.45,2.02,8.53-28.74,6.81-9.31-39.3,9.98-2.36Zm147.65-135.22c-.88-.88-1.42-2.09-1.42-3.43s.54-2.56,1.42-3.44c.88-.88,2.09-1.43,3.44-1.43s2.56.55,3.44,1.43c.88.88,1.42,2.09,1.42,3.44s-.54,2.55-1.42,3.43c-.88.88-2.1,1.43-3.44,1.43s-2.56-.55-3.44-1.43h0Z"/>
    </g>
  </g>
</svg>