<?xml version="1.0" encoding="UTF-8"?>
<svg id="Layer_2" data-name="Layer 2" xmlns="http://www.w3.org/2000/svg" viewBox="0 0 209.48 209.48">
  <defs>
    <style>
      .cls-1 {
        fill: #d1d3d4;
      }

      .cls-1, .cls-2, .cls-3, .cls-4, .cls-5, .cls-6 {
        stroke-width: 0px;
      }

      .cls-2 {
        fill: #dba111;
      }

      .cls-3 {
        fill: #fff;
      }

      .cls-4 {
        fill: #ed1c24;
      }

      .cls-5 {
        fill: #6a7ab5;
      }

      .cls-6 {
        fill: #034694;
      }
    </style>
  </defs>
  <g id="Layer_1-2" data-name="Layer 1">
    <path id="path3381" class="cls-2" d="m209.48,104.74c0,57.85-46.9,104.74-104.74,104.74S0,162.59,0,104.74,46.89,0,104.74,0s104.74,46.89,104.74,104.74"/>
    <path id="path3383" class="cls-6" d="m205.98,104.74c0,55.92-45.33,101.24-101.24,101.24S3.49,160.66,3.49,104.74,48.82,3.49,104.74,3.49s101.24,45.33,101.24,101.25"/>
    <path id="path3385" class="cls-2" d="m176.89,104.74c0,39.85-32.3,72.15-72.15,72.15s-72.15-32.3-72.15-72.15S64.89,32.58,104.74,32.58c39.85,0,72.15,32.3,72.15,72.15"/>
    <path id="path3387" class="cls-3" d="m174.71,104.74c0,38.64-31.33,69.97-69.97,69.97s-69.97-31.33-69.97-69.97,31.33-69.97,69.97-69.97,69.97,31.33,69.97,69.97"/>
    <path id="path3389" class="cls-2" d="m44.79,165.1c.77.74,2.68,2.55,2.68,2.55l1.83-1.92-5.45-5.19-.7.74-7.31,7.67,2.78,2.64s2.34-2.46,3.2-3.35c.72.68,2.44,2.32,2.44,2.32l1.83-1.92s-1.72-1.64-2.43-2.32c.45-.48.69-.72,1.14-1.2"/>
    <path id="path3391" class="cls-2" d="m57.92,173.85c-.25-1.47-1.07-2.77-2.32-3.66-1.24-.88-2.74-1.23-4.21-.99-1.58.27-3.01,1.19-4.01,2.59-1,1.41-1.4,3.06-1.13,4.65.25,1.47,1.07,2.76,2.31,3.64,1.25.89,2.75,1.24,4.22.99,1.58-.27,3.01-1.19,4-2.6.8-1.12,1.22-2.39,1.22-3.67,0-.32-.03-.65-.08-.96m-7.82,4.07c-1.27-.9-.22-2.78.52-3.82.74-1.04,2.17-2.66,3.45-1.76,1.33.95.09,3-.51,3.84-.6.84-2.13,2.69-3.46,1.74Z"/>
    <path id="path3393" class="cls-2" d="m66.48,176.76c-2.93-1.48-6.32-.27-7.88,2.82-.78,1.54-.93,3.24-.43,4.76.46,1.42,1.47,2.57,2.83,3.26,1.36.69,2.9.82,4.32.35,1.52-.5,2.79-1.62,3.57-3.16,1.56-3.09.52-6.54-2.41-8.02m-3.24,8.58c-.34.11-.67.08-1.04-.11-.58-.3-.79-.83-.79-1.42,0-.82.39-1.78.73-2.44.58-1.14,1.75-2.95,3.15-2.25.37.19.59.43.7.77.23.7,0,1.86-.63,3.09-.62,1.24-1.42,2.11-2.12,2.34Z"/>
    <path id="path3395" class="cls-2" d="m72.53,181l-.54,1.55s1.38.48,1.8.62c-.53,1.51-2.96,8.46-2.96,8.46l3.61,1.27s2.44-6.94,2.96-8.45c.42.15,1.8.63,1.8.63l.88-2.5-7.22-2.53-.34.96"/>
    <path id="path3397" class="cls-2" d="m87.53,184.36l-4.88-1.03-.21.99-2.18,10.36,4.97,1.05c1.59.33,2.63-.06,3.23-.45.76-.49,1.29-1.3,1.49-2.27.06-.26.08-.52.08-.77,0-.7-.22-1.33-.62-1.87.56-.44.96-1.07,1.13-1.85.04-.2.07-.43.07-.67,0-1.33-.76-3.01-3.07-3.49m-1.34,7.91c-.05.24-.15.55-.33.67-.17.11-.48.12-.9.03,0,0-.19-.04-.41-.09.16-.75.26-1.25.42-1.99.21.05.48.1.48.1.64.14.76.61.76.95,0,.14-.02.26-.03.32h0Zm-.33-5.55c.43.1.74.25.87.44.06.08.08.2.08.34,0,.08-.01.18-.03.3-.07.3-.15.72-1,.55,0,0-.11-.03-.25-.06.13-.63.2-.94.34-1.57h0Z"/>
    <path id="path3399" class="cls-2" d="m96.55,186.04l-5.3,10.86,3.03.23s.82-1.73,1.15-2.42c.64.05,1.28.1,1.91.15.23.73.83,2.57.83,2.57l4.03.31-4.5-13.96-1.14,2.25"/>
    <path id="path3401" class="cls-2" d="m108.51,194.71c-.07-1.59-.37-8.81-.37-8.81l-3.83.16.48,11.6,7.67-.32-.12-2.78s-2.74.12-3.84.16"/>
    <path id="path3403" class="cls-2" d="m119,193.6c-.25-1.57-1.37-8.71-1.37-8.71l-1,.16-2.78.43,1.8,11.47,7.59-1.19-.43-2.75s-2.71.43-3.8.59"/>
    <path id="path3405" class="cls-2" d="m140.96,185.89c-.03.99-.62,1.85-1.53,2.21-.51.2-.99.2-1.48,0-.74-.32-1.43-1.12-1.85-2.16-.49-1.22-.59-2.26-.27-2.99.22-.51.65-.89,1.31-1.16.71-.28,1.39-.02,2.32.52l.85.5,1.41-2.23-.84-.55c-1.54-1.01-3.45-1.22-5.1-.56-1.53.61-2.72,1.75-3.35,3.21-.64,1.48-.64,3.18,0,4.78,1.22,3.05,4.66,4.55,7.67,3.34,2.18-.87,3.41-2.52,3.57-4.78l.07-1.01-2.77-.21-.03,1.06"/>
    <path id="path3407" class="cls-2" d="m149.9,182.72c-.78-1.39-4.31-7.71-4.31-7.71l-.88.5-2.46,1.38,5.66,10.13,6.7-3.74-1.36-2.43s-2.4,1.34-3.35,1.88"/>
    <path id="path3409" class="cls-2" d="m157.35,167.09l-.82.6-1.44,1.06,4.7,6.41c.22.29.22.48.2.6-.04.33-.39.69-.69.91-.14.1-.48.24-.82.19-.24-.04-.43-.17-.61-.4l-4.65-6.33-3.1,2.27,4.62,6.3c.69.93,1.54,1.48,2.53,1.64,1.12.17,2.38-.21,3.56-1.08,2.42-1.77,2.38-4.13,1.33-5.57l-4.82-6.59"/>
    <path id="path3411" class="cls-2" d="m171.45,164.76c-.71-.74-1.59-1.07-2.51-1.02-.05-.72-.33-1.4-.89-1.98-.97-1-3.13-1.78-5.13.16l-3.58,3.47,8.08,8.34,3.65-3.54c1.17-1.13,1.42-2.22,1.43-2.93.02-.91-.35-1.79-1.05-2.51m-6.1-.28c.12.13.27.28.27.49,0,.17-.09.38-.37.65,0,0-.08.08-.18.18-.45-.47-.67-.69-1.13-1.16.81-.74,1.14-.42,1.41-.15h0Zm1.91,2.87c.65-.63,1.29-.08,1.46.11.17.17.37.42.37.63h0c0,.2-.17.48-.47.77,0,0-.14.14-.3.29-.53-.55-.89-.91-1.42-1.46.16-.16.35-.35.35-.35h0Z"/>
    <path id="path3413" class="cls-3" d="m44.76,164.02c.32.3,2.67,2.55,2.67,2.55l.78-.82-4.35-4.14-.17.18-6.78,7.12,1.67,1.59s2.89-3.03,3.2-3.36c.32.3,2.44,2.33,2.44,2.33l.78-.82s-2.13-2.02-2.44-2.32c.28-.3,1.92-2.01,2.2-2.31"/>
    <path id="path3415" class="cls-3" d="m55.16,170.82c-1.08-.77-2.37-1.07-3.63-.86-1.39.24-2.63,1.05-3.52,2.29-.88,1.24-1.24,2.69-1,4.07.21,1.27.92,2.39,2,3.15,1.08.77,2.38,1.07,3.65.86,1.38-.23,2.63-1.05,3.51-2.28.7-.99,1.08-2.12,1.08-3.24,0-.28-.02-.56-.07-.84-.22-1.27-.93-2.39-2.02-3.16m-.98,5.82c-.73,1.02-2.63,3.26-4.51,1.92-1.88-1.34-.39-3.86.34-4.89.73-1.03,2.63-3.26,4.51-1.93,1.89,1.35.4,3.87-.33,4.9h0Z"/>
    <path id="path3417" class="cls-3" d="m66.14,177.44c-2.54-1.29-5.49-.22-6.85,2.49-.69,1.36-.82,2.84-.39,4.18.4,1.22,1.27,2.21,2.46,2.81,1.18.61,2.51.71,3.74.31,1.33-.44,2.44-1.43,3.13-2.78,1.36-2.7.47-5.71-2.08-7m-4.28,8.46c-2.06-1.04-.96-3.76-.39-4.88.57-1.12,2.11-3.62,4.16-2.58.55.27.91.68,1.09,1.21.4,1.23-.25,2.83-.68,3.67-.43.84-1.32,2.32-2.56,2.72-.53.18-1.07.12-1.62-.15h0Z"/>
    <path id="path3419" class="cls-3" d="m73.25,181.25l-.29.83s1.44.51,1.8.63c-.16.45-2.96,8.45-2.96,8.45l2.18.77s2.81-8,2.96-8.45c.36.13,1.8.63,1.8.63l.38-1.06-5.78-2.03-.08.24"/>
    <path id="path3421" class="cls-3" d="m87.38,185.1l-4.14-.87-.06.25-2.02,9.62,4.22.89c1.07.22,1.97.11,2.66-.34.6-.39,1-1.01,1.16-1.79.04-.21.07-.41.07-.61,0-.84-.42-1.55-1.16-2.07.86-.25,1.48-.88,1.68-1.83.03-.15.05-.32.05-.52,0-.96-.51-2.33-2.46-2.74m-1.45.85c.7.15,1.18.41,1.42.79.14.22.21.47.21.76,0,.14-.02.29-.05.45-.27,1.28-1.3,1.27-1.9,1.14,0,0-.63-.13-1-.21.08-.39.57-2.68.65-3.07.26.05.67.14.67.14h0Zm-.32,4.3c1.18.25,1.36,1.17,1.36,1.74,0,.24-.04.41-.04.44-.12.56-.33.93-.66,1.14-.34.23-.84.27-1.47.14,0,0-.75-.16-1.16-.24.09-.41.65-3.08.73-3.49.34.07,1.23.26,1.23.26h0Z"/>
    <path id="path3423" class="cls-3" d="m97.23,186.38l-4.81,9.85,1.39.1s1.02-2.14,1.15-2.41c.29.02,2.65.21,2.94.23.09.28.83,2.57.83,2.57l2.39.18-3.58-11.08-.3.56m-.53,3.96c.23.74.68,2.18.83,2.65-.48-.04-1.57-.12-2.04-.16.22-.44.87-1.79,1.21-2.49h0Z"/>
    <path id="path3425" class="cls-3" d="m107.78,195.51c-.02-.48-.37-8.81-.37-8.81h-.25s-2.06.09-2.06.09l.42,10.08,6.15-.26-.05-1.26s-3.39.14-3.84.16"/>
    <path id="path3427" class="cls-3" d="m118.37,194.48c-.08-.48-1.37-8.72-1.37-8.72l-.25.04-2.03.32,1.56,9.97,6.08-.96-.2-1.25s-3.36.53-3.8.6"/>
    <path id="path3429" class="cls-3" d="m141.72,185.91c-.04,1.31-.81,2.42-2.01,2.91-.7.28-1.39.27-2.06-.02-.94-.4-1.76-1.34-2.26-2.58-.56-1.41-.65-2.65-.26-3.57.3-.7.88-1.22,1.73-1.56,1.11-.44,2.12.06,2.98.57l.22.13.62-.97-.21-.14c-1.33-.87-2.98-1.06-4.4-.49-1.34.54-2.39,1.53-2.93,2.81-.56,1.29-.55,2.79.02,4.2,1.06,2.66,4.06,3.97,6.69,2.92,1.91-.77,2.94-2.15,3.08-4.13l.02-.25-1.22-.08v.26"/>
    <path id="path3431" class="cls-3" d="m149.6,183.76c-.24-.42-4.31-7.71-4.31-7.71l-.22.12-1.79,1,4.91,8.8,5.37-3-.61-1.1s-2.97,1.66-3.35,1.88"/>
    <path id="path3433" class="cls-3" d="m157.18,168.16l-.21.15-.82.61,4.25,5.79c.28.39.4.78.34,1.16-.1.69-.73,1.22-.99,1.41-.3.23-.85.42-1.38.33-.45-.07-.82-.3-1.11-.7l-4.2-5.73-1.86,1.37,4.17,5.68c.56.77,1.25,1.22,2.03,1.34,1.24.19,2.41-.5,2.99-.93,2.01-1.48,2.04-3.33,1.17-4.51l-4.38-5.98"/>
    <path id="path3435" class="cls-3" d="m170.9,165.29c-.78-.81-1.78-.99-2.81-.59.08-.24.13-.49.13-.73,0-.6-.24-1.18-.72-1.68-.65-.67-2.33-1.49-4.05.18l-3.04,2.94,7.01,7.24,3.11-3.01c.78-.75,1.19-1.56,1.2-2.38.01-.72-.28-1.39-.83-1.97m-4.53-.31c0,.51-.33.92-.6,1.18,0,0-.47.45-.73.71-.28-.29-1.91-1.97-2.19-2.26.19-.18.49-.47.49-.47.95-.92,1.78-.99,2.55-.19.35.36.48.71.48,1.03h0Zm1.93,5.26c-.29-.3-2.18-2.26-2.47-2.55.25-.24.9-.87.9-.87,1.24-1.19,2.49.07,2.55.13.39.4.58.78.58,1.16h0c0,.43-.25.87-.7,1.32,0,0-.6.58-.85.81h0Z"/>
    <path id="path3437" class="cls-2" d="m58.2,35.74l-4.23,1.14.49,1.52c.58,1.84.06,3.76-1.38,5.02-.8.7-1.72,1.02-2.73.95-1.54-.1-3.28-1.1-4.66-2.67-1.62-1.85-2.42-3.64-2.32-5.15.07-1.1.61-2.07,1.64-2.97,1.14-.99,2.58-.96,4.53-.57l1.45.29.94-4.05-1.46-.36c-3.14-.78-6.41-.01-8.74,2.03-4.57,4-4.94,10.53-.87,15.19,3.79,4.33,10.36,4.8,14.64,1.06,3.09-2.69,4.16-6.14,3.11-9.96l-.4-1.46"/>
    <path id="path3439" class="cls-2" d="m69.7,14.5l-4.32,2.04s2.41,5.12,3.24,6.88c-1.23.58-2.43,1.14-3.66,1.73-.83-1.76-3.25-6.88-3.25-6.88l-5.69,2.69,8.67,18.39,5.7-2.69s-2.69-5.69-3.55-7.53c1.23-.58,2.43-1.14,3.67-1.72.87,1.84,3.55,7.53,3.55,7.53l5.7-2.69-8.67-18.39-1.38.65"/>
    <path id="path3441" class="cls-2" d="m88.98,25.9c-.28-1.37-.56-2.76-.83-4.13,1.76-.35,6.43-1.3,6.43-1.3l-.82-4.09s-4.68.95-6.44,1.3c-.25-1.25-.46-2.3-.72-3.55,1.83-.37,6.83-1.38,6.83-1.38l-.82-4.08-1.5.3-11.51,2.33,4.02,19.93,13.11-2.65-.82-4.08s-5.09,1.03-6.93,1.4"/>
    <path id="path3443" class="cls-2" d="m107.57,8.2l-6.3-.13-.03,1.52-.39,18.81,13.23.28.09-4.4s-5.08-.11-6.94-.15c.05-2.49.34-15.93.34-15.93"/>
    <path id="path3445" class="cls-2" d="m128,18.45c-1.64-1.2-2.11-1.68-1.95-2.34.08-.34.45-1.43,1.63-1.14.71.18,1.41.55,1.72,2.08l.34,1.69,4.16-1.41-.26-1.31c-.51-2.57-2.69-4.77-5.42-5.45-1.96-.49-3.92-.23-5.53.74-1.48.89-2.52,2.28-2.93,3.94-1.04,4.17,1.77,6.18,3.62,7.51,1.91,1.36,2.39,1.9,2.1,3.03-.09.36-.3.64-.63.84-.38.22-.86.31-1.25.2-1-.25-1.43-.72-1.86-2.01l-.51-1.55-4.18,1.71.4,1.33c.78,2.58,2.65,4.2,5.71,4.97,3.44.86,7.61-.72,8.65-4.85,1.08-4.35-1.88-6.53-3.83-7.97"/>
    <path id="path3447" class="cls-2" d="m143.04,29.3c1.6.81,5.86,2.96,5.86,2.96l1.88-3.72s-4.26-2.15-5.86-2.96c.57-1.14,1.06-2.1,1.63-3.24,1.66.84,6.22,3.14,6.22,3.14l1.88-3.72-11.84-5.98-.68,1.36-8.49,16.79,11.94,6.03,1.88-3.72s-4.64-2.34-6.31-3.19c.63-1.25,1.27-2.52,1.9-3.76"/>
    <path id="path3449" class="cls-2" d="m166.62,31.2l-18.97,9.81,3.63,3.16s3.13-1.66,4.27-2.26c.85.74,2.09,1.82,2.93,2.54-.41,1.21-1.57,4.61-1.57,4.61l5,4.35,8.11-23.91-3.4,1.7"/>
    <path id="path3451" class="cls-3" d="m57.49,36.98l-2.24.61.16.51c.71,2.23.07,4.57-1.68,6.09-1,.88-2.17,1.28-3.47,1.2-1.83-.12-3.78-1.22-5.35-3.02-1.8-2.06-2.69-4.09-2.57-5.89.09-1.36.76-2.59,1.98-3.66,1.61-1.4,3.63-1.15,5.39-.8l.49.09.49-2.12-.49-.12c-2.82-.69-5.74-.02-7.83,1.81-4.13,3.62-4.46,9.53-.77,13.75,3.42,3.91,9.34,4.34,13.21.96,2.8-2.46,3.75-5.46,2.8-8.92l-.13-.49"/>
    <path id="path3453" class="cls-3" d="m70.13,15.42l-3.4,1.61s2.86,6.08,3.24,6.88c-.73.35-4.77,2.25-5.5,2.59-.38-.8-3.24-6.88-3.24-6.88l-3.87,1.82,7.81,16.55,3.86-1.82s-3.17-6.72-3.55-7.53c.73-.35,4.77-2.25,5.5-2.59.38.81,3.55,7.53,3.55,7.53l3.86-1.82-7.81-16.56-.46.21"/>
    <path id="path3455" class="cls-3" d="m88.18,27.1c-.16-.8-1.07-5.32-1.23-6.12.85-.17,6.43-1.3,6.43-1.3l-.42-2.09s-5.58,1.12-6.44,1.3c-.15-.78-.96-4.77-1.12-5.54.85-.17,6.83-1.38,6.83-1.38l-.42-2.09-11.01,2.22,3.62,17.94,11.12-2.24-.42-2.09s-6.07,1.23-6.93,1.4"/>
    <path id="path3457" class="cls-3" d="m106.54,9.19l-4.27-.09v.5s-.39,17.8-.39,17.8l11.21.24.05-2.38s-6.07-.13-6.94-.15c.02-.95.34-15.92.34-15.92"/>
    <path id="path3459" class="cls-3" d="m127.93,14c1.36.34,2.14,1.25,2.47,2.85l.12.56,2.23-.75-.08-.44c-.44-2.19-2.32-4.07-4.67-4.66-1.69-.42-3.38-.2-4.76.63-1.24.75-2.12,1.93-2.47,3.32-.88,3.5,1.4,5.13,3.23,6.43,1.85,1.32,2.97,2.23,2.49,4.1-.19.78-.7,1.23-1.09,1.46-.61.37-1.36.48-2.02.32-1.35-.34-2.04-1.06-2.57-2.68l-.17-.52-2.31.94.13.44c.67,2.21,2.3,3.61,4.99,4.28,2.95.74,6.53-.6,7.41-4.11.92-3.69-1.5-5.47-3.46-6.9-1.66-1.23-2.67-2.05-2.32-3.4.3-1.21,1.3-2.26,2.86-1.87"/>
    <path id="path3461" class="cls-3" d="m146.11,20.98c.78.39,6.21,3.14,6.21,3.14l.97-1.91-10.03-5.06-.23.45-8.03,15.89,10.12,5.11.96-1.91s-5.52-2.79-6.31-3.19c.36-.73,2.45-4.84,2.81-5.57.77.39,5.86,2.96,5.86,2.96l.97-1.91s-5.09-2.57-5.86-2.96c.36-.71,2.19-4.34,2.55-5.05"/>
    <path id="path3463" class="cls-3" d="m167.08,32.1l-17.64,9.13,1.97,1.71s3.74-1.98,4.27-2.26c.44.38,3.54,3.08,3.97,3.45-.19.56-1.57,4.61-1.57,4.61l3.35,2.91,6.82-20.1-1.16.54m-9.36,7.53c.83-.43,2.97-1.54,4.27-2.22-.48,1.38-1.28,3.66-1.59,4.54-.68-.59-2-1.74-2.68-2.33Z"/>
    <path id="path3465" class="cls-1" d="m154.78,101.99c-1.45-3.83-6.43-5.5-11.14-3.72-1.96.74-3.57,1.97-4.67,3.43,3.11-8.87,15.77-10.76,15.77-19.01,0-13.84-19.65-9.96-16.79,0,0-4.52,7.19-5.35,7.19,0s-12.54,8.86-12.54,17.9c0,9.96,9.97,10.89,8.96,20-.17,1.57-1.86,3.64-4.31,3.64-15.26,0-9.81-18.79-15.15-24.51l.28-3.86c3.08,1.89,11.26-2.54,5.88-9.29,0,3.32-6.91,3.14-6.91-3.14,0-8.49,7.93-4.06,8.32-2.18-.38-3.09-.52-5.05-.01-6.83-4.28,1.38-4.68-1.09-4.14-2.05.62-1.11,1.45-2.4,3.12-2.4.9,0,1.44.13,1.76.35.53.36.92-.47.85.31.46-.7.27.17.72-.53.45-.69,1.06-1.48,2.12-2.52l-.05-1.57,1.25.46,1.2-1.94c-1.29-2.68-3.04-1.39-4.33-4.71-1.08-.28-17.89,1.55-17.4-5.16-1.37,0-4.62.75-2.61,3.48-1.56.19-2.69-1.59-5.04,3.21,2.95-.55,1.42,2.74,1.42,3.68,0,6.08-8.09,5.98-8.09,3.13-1.95,1.9-.84,6.04,2.11,7.06,0,0-1.12,4.43-3.89,7.24-4.11-.16-10.71-.88-14.5-4.46-1.64-1.55-2.94-2.39-4.04-2.82v-2.01c1.62-.79,3.4-2.2,5.24-4.54,1.44-1.76,2.22-4.01,2.01-6.41-.03-.29-.07-.57-.12-.84-.02-.09-.04-.17-.06-.26-.04-.19-.09-.38-.14-.57-.03-.09-.05-.19-.08-.28-.06-.19-.13-.37-.21-.56-.03-.08-.05-.16-.09-.23-.1-.24-.22-.47-.34-.71-.05-.09-.11-.18-.16-.27-.09-.14-.17-.28-.26-.41-.07-.11-.15-.21-.22-.32-.08-.1-.16-.21-.24-.31-.09-.11-.18-.23-.27-.34-.06-.07-.13-.14-.2-.21-.24-.26-.5-.51-.77-.75-.02-.02-.05-.04-.08-.06-.15-.13-.31-.25-.47-.37-.04-.03-.08-.06-.13-.09-.17-.12-.34-.24-.53-.35-.01,0-.02-.01-.03-.02-1.73-1.06-3.81-1.61-6.02-1.44-5.31.42-9.25,4.86-8.81,9.91.35,3.93,3.25,7.08,7.02,8.08-1.32.74-2.44,1.16-2.69,1.16.04.03.1.06.16.1.02,0,.03.02.05.03.05.03.11.07.17.1.02,0,.03.02.05.03.09.04.17.09.27.13.02,0,.03.01.05.02.09.04.18.08.27.12.03.01.06.02.08.03.23.1.49.18.78.26.04.01.08.02.12.03.12.03.23.06.35.08.04,0,.08.02.12.02.15.03.31.05.47.07.01,0,.03,0,.04,0v1.14c-.06.01-.11.02-.17.03-1.73.28-2.85.82-3.36,2.35-.5,1.54.01,2.1.82,3.18-.68,1.22-2.47,1.68-.14,4.38-.17,1.02.05,2.64,1.53,3.13.48.16.89.25,1.31.32v20.23c-1.48.78-2.21,1.76-2.61,2.67,0,0-1.19-2.64-1.11,2.59,1.35-1.05.82,1.21.82,1.21-1.84,2.38.5,2.25.5,2.25,1.58-1.58,1.26.72,1.26.72,0,2.8,1.14,3.9,1.15,3.9v15.41h-1.34s.01,4.26.01,4.26h2.35c-1.32.54-2.19,1.85-2.06,3.28.16,1.81,1.84,3.16,3.74,3.02,1.91-.15,3.32-1.74,3.16-3.56-.11-1.26-.94-2.28-2.07-2.75h2.17s0-4.26,0-4.26h-1.29s0-13.66,0-13.66c.27.15.55.25.87.32.12.02.25.04.38.05.06,0,.11,0,.17.01-.35-1.8.73-2.99.73-2.99.55-.83,1.35-1.48,2.26-1.93,2.71-1.36,6.42-1.02,7.52,1.2,7.01-1.85,13.04-8.9,13.04-8.9l3.45,5.87c-7.32,2.45-23.26,16.3-12.19,21.1,0,1.4-.19,11.76-6.84,10.94-9.57-1.18-11.96,2.78-10.12,7.24-.86,3.76,2.03,5.06,2.03,5.06-.43-2.17.61-3.97,4.57-3.94-.02,3.96,2.54,4.67,2.54,4.67.02-3.39,2.37-4.64,4.46-4.63-.02,2.79,3.23,3.85,3.23,3.85,0,0-.82-3.22,2.84-3.85,9.28-1.62.56-11.16,14.68-13.79,0,0-7.03-1.06-7.03-4.9,0-3.5,6.36-5.89,8.55-5.89,4.49,8.58,9.37,8.65,10.65,8.71,1.99,2.22,1.32,9.71-1.55,9.57-10.52-.56-10.13,5.83-8.95,7.14-.13,2.48,1.8,3.92,1.8,3.92,0-2.66,2.53-3.41,5.78-3.23-.17,3.25,1.9,3.74,1.9,3.74.06-3.27,2.48-3.83,4.2-3.74-.13,2.29,2.15,2.97,2.15,2.97,0,0-.22-2.91,2.84-2.91,5.81,0-2.63-12.46,8.71-24.78-9.96,4.61-15.26-6.92-15.26-9.13,5.12,5.99,21.72,7.19,21.72-3.05s-10.75-13.42-5.72-17.16c2.92-2.17,8.68,2.22,5.39,6.76,4.72-1.75,7.35-6.32,5.91-10.15m-63.69.31c-3.76,2.21-6.27,5-9.7,6.23-.52.18-.93.23-1.3.21v-19.09c.91.08,3.26.41,6.01,1.55,2.73,1.49,2.73,4.56-.71,5.29,2.17,4.16,9.71,2.13,11.35-1.27.8-.07,1.52,1.36,2.18,2.72-1.06.55-3.22,1.64-7.84,4.36Zm42.04-31.64c-.41.56-.82,1.12-1.18,1.6.95,1.58,2.74,2.57,4.71,2.39,2.71-.26,4.71-2.67,4.46-5.38-.01-.1-.03-.19-.04-.28-.29,1.41-1.95,2.6-4.06,2.79-1.6.15-3.04-.31-3.89-1.11Z"/>
    <path id="path3467" class="cls-6" d="m72.44,59.17s0,0,0,.02h0c.04-.1.09-.2.14-.3-.05.09-.09.19-.13.28m.17,80.06s.01,0,.01,0h0s0,0-.01,0h0Zm-.12-88.21h0,0Zm-1.44,87.74h2.35c-.29.12-.55.27-.78.46.23-.09.48-.14.74-.14,1.18,0,2.13.95,2.13,2.13s-.95,2.13-2.13,2.13c-.95,0-1.75-.63-2.02-1.49v.19c.16,1.82,1.83,3.17,3.74,3.01,1.91-.15,3.32-1.74,3.16-3.56-.11-1.25-.94-2.28-2.07-2.75h2.17s-.01-4.26-.01-4.26h-1.29s0-13.66,0-13.66c-1.26-.66-1.99-2.08-1.71-3.55.81,0,1.53.21,2.02.54-.75,1.64,1.11,3.38,1.11,3.38-.35-1.8.72-2.98.72-2.98.56-.83,1.35-1.48,2.26-1.94,2.72-1.36,6.42-1.02,7.52,1.2,7.01-1.85,13.04-8.9,13.04-8.9l3.45,5.87c8.09,0,5.28-6.06,4.75-6.59,1.86,0,4.48,1.37,4.48,4.41,0,7.45-21.67,8.52-21.67,17.56,0,3.8,3.77,5.24,3.77,5.24,0,8.25-5.66,13.15-9.54,13.15-6.2,0-10.94-1.26-10.94,5.5h2.16c-2.05,2.05-.14,5.06-.14,5.06-.43-2.17.61-3.96,4.57-3.94h2.47c-1.57,1.57-.65,3.95.07,4.67.01-3.39,2.37-4.65,4.46-4.63h1.79c-.49.48.3,2.71,1.44,3.85,0,0-.83-3.21,2.84-3.85,9.28-1.62.56-11.16,14.68-13.8,0,0-7.02-1.06-7.02-4.9,0-3.49,6.36-5.89,8.55-5.89,1.72-.25,3.37-.18,4.77.12.57,5.54,6.93,5.27,8.32,5.27,5.4,5.4-1.37,14.06-1.37,14.06-8.28,0-11.56,1.14-11.56,5.97h1.57c-.88.88-.38,3.31.22,3.92,0-2.66,2.54-3.41,5.78-3.24h1.71c-.83.83-.69,2.86.2,3.74.05-3.27,2.47-3.83,4.19-3.74h1.42c-.53.54,0,2.24.73,2.97,0,0-.22-2.91,2.84-2.92,5.81,0-2.63-12.46,8.72-24.78-9.96,4.61-15.27-6.92-15.27-9.13,5.12,5.99,21.73,7.19,21.73-3.04,0-8.26-7.66-12.14-7.03-15.4.22-2.5,2.31-4.45,4.87-4.45,2.7,0,4.89,2.19,4.89,4.89,0,2.06-1.26,3.81-3.06,4.54,0,0,0,0,0,0,0,0-.01.01-.01.02,4.71-1.75,7.35-6.32,5.91-10.15-1.45-3.83-6.43-5.5-11.14-3.72-1.97.74-3.57,1.97-4.67,3.43,3.1-8.87,15.77-10.75,15.77-19.01,0-13.84-19.65-9.96-16.79,0,0-.15,0-.3.03-.44.5-5.63,10.57-6.78,10.57.56,0,6.27-12.89,9.75-12.89,18.19s9.52,10.83,9.52,19.95c0,1.09-.57,5.76-6.9,5.76s-9.04-3.41-10.71-7.87h0c-3.11-6.01-1.97-15.39-5.47-19.14l.28-3.86c3.08,1.89,11.27-2.54,5.89-9.29,0,3.32-6.92,3.14-6.92-3.13,0-8.49,7.93-4.06,8.32-2.19-.38-3.09-.53-5.06,0-6.83-4.28,1.38-4.68-1.1-4.14-2.05.63-1.11,1.45-2.4,3.12-2.4,2.4,0,2.25.88,2.13,2.13.92-1.39,1.18-2.43,3.32-4.52l-.05-1.57,1.24.46,1.21-1.94c-1.29-2.68-3.04-1.38-4.34-4.7-1.07-.28-15.21-1.59-14.72-8.29-1.25,0-4.65,4.31-2.35,6.62h-2.93c-1.57.19-5.23-.91-7.58,3.89,5.79-5.79,9.54,8.02-1.12,8.02h0c-1.57,0-2.92-.65-3.01-1.76-1.06,4.66,5.65,6.11,5.65,6.11,0,1.38-3.36,8.88-5,10.51,1.1,1.1,1.44,7.76-3.65,7.76,1.84-4.97-3.57-9.18-8.81-11.96h0c-.95-.36-1.85-.8-2.69-1.33-3.22-1.47-5.84-2.3-5.84-2.3v-3.89c1.62-.79,3.4-2.2,5.24-4.54,1.44-1.76,2.22-4.01,2.01-6.41-.02-.29-.06-.56-.12-.84-.01-.09-.03-.17-.05-.26-.04-.19-.09-.38-.14-.57-.03-.09-.05-.18-.08-.28-.06-.19-.13-.38-.2-.56-.03-.08-.06-.15-.09-.23-.11-.24-.22-.48-.34-.7-.05-.1-.11-.18-.16-.28-.09-.14-.17-.28-.26-.41-.07-.11-.15-.22-.23-.32-.08-.1-.16-.21-.24-.31-.09-.12-.18-.23-.28-.34-.06-.07-.13-.14-.2-.21-.24-.26-.5-.51-.77-.74-.03-.02-.05-.05-.08-.07-.15-.13-.31-.25-.47-.37-.04-.03-.08-.06-.13-.09-.17-.12-.34-.24-.53-.35-.01,0-.02-.01-.03-.02-1.73-1.06-3.81-1.61-6.02-1.44-.47.04-.94.12-1.39.22-3.06,1.17-5.28,4.75-5.28,8.98,0,3.99,1.98,7.39,4.76,8.75.04.01.08.03.12.04-1.33.74-2.44,1.17-2.7,1.17.04.03.1.06.16.1.02,0,.03.02.05.03.05.03.11.06.18.1.02,0,.03.02.05.02.08.04.17.09.27.14.02,0,.04.01.05.02.08.04.17.08.27.12.03.01.05.02.08.03.24.09.49.18.78.26.04,0,.08.02.12.03.11.03.23.06.35.08.04.01.08.02.13.03.15.03.31.06.47.08.01,0,.02,0,.04.01,1.01.08,2.21-.17,2.21-.17v2.26c-.18,0-1.77-.51-2.21-.95-.05,0-.11.02-.17.03-1.72.28-2.85.81-3.35,2.35-.5,1.54.01,2.1.82,3.18-.69,1.22-2.47,1.68-.14,4.38-.17,1.02.05,2.64,1.53,3.14.49.16.89.25,1.31.32.88,0,2.21.73,2.21,2.56v17.38c.8.05,1.67.15,2.46.22v-19.09c.91.09,3.26.41,6.01,1.54.03.02.06.03.08.05,0,0,0,0,0,0,.25.03.51.08.76.16,1.83.56,2.97,2.15,2.54,3.56-.43,1.4-2.26,2.09-4.09,1.53,2.17,4.17,9.71,2.13,11.35-1.26.8-.07,1.51,1.36,2.18,2.72,0,0,1.89.72,6.56.72,0,0-18.93,12.08-24.4,12.08-2.34,0-7.53,0-7.53,1.77-1.43,0-3.48,2.42-3.48,3.81,1.35-1.05,2.45-1.05,2.45-1.05,1.15,0,1.8.34,1.8.34-.42.42-2.31,2.55-2.31,4.2,1.58-1.58,2.27-1.58,2.27-1.58,0,0,1.65-.21,2.24.38-.4.4-1.1,1.83-1.1,3.52,0,0,.98-1.89,2.21-1.89v18.17c0,.56-2.51,1.09-3.54,1.09m.77-52.68c-.47.02-.69-.59-.69-.81-.01-.22.16-.84.63-.86,1.11-.04,3.33.49,3.34.71,0,.22-2.16.91-3.27.95Zm-.72-3c-.64-.05-.86-.91-.83-1.22.02-.3.36-1.13,1-1.08,1.53.12,4.51,1.18,4.48,1.49-.02.31-3.12.93-4.65.82Zm-.26-3.84c-.68-.18-.74-1.15-.65-1.48.08-.32.61-1.14,1.3-.97,1.62.43,4.61,2.17,4.52,2.49-.08.32-3.54.38-5.16-.05h0Zm5.03-10.83c.28-.67.22-1.59.05-2.46-.03,0-.06,0-.09,0-1.95,0-3.53-1.58-3.53-3.53-.03-.33.02-.66.13-.95h0s0-.01,0-.02c.42-1.48,1.78-2.57,3.4-2.57,1.95,0,3.53,1.58,3.53,3.54,0,2.25-1.59,4.33-3.49,5.99h0Z"/>
    <path id="path3469" class="cls-4" d="m128.92,69.21c.95,1.58,2.74,2.57,4.71,2.39,2.72-.25,4.71-2.66,4.46-5.38-.01-.1-.03-.19-.04-.28-.29,1.4-1.95,2.6-4.06,2.79-1.6.15-3.04-.31-3.9-1.11-.41.56-.82,1.12-1.17,1.6"/>
    <path id="path3471" class="cls-3" d="m122.32,60.05l1.71.09-.85,1.17s-1.14.36-.85-1.26m-4.07,0h2.46s-.09,1.98,1.71,2.16l-.38.63s-4.83-1.26-3.78-2.79Z"/>
    <path id="path3473" class="cls-5" d="m76.01,77c.08-.32-2.9-2.07-4.52-2.49-.68-.18-1.21.64-1.3.97-.08.32-.03,1.3.65,1.48,1.62.43,5.08.37,5.16.05m-.24,2.98c.03-.3-2.95-1.37-4.48-1.49-.64-.05-.98.78-1,1.08-.02.31.19,1.17.83,1.22,1.53.11,4.63-.51,4.65-.82Zm-3.38-8.98v1.14c.44.44,2.03.95,2.21.95v-2.26s-1.2.25-2.21.17Zm-.62,11.13c-.47.02-.64.64-.63.86,0,.22.23.83.69.81,1.11-.04,3.28-.74,3.27-.95,0-.22-2.23-.75-3.34-.71Zm-2.28,30.11c-1.83,2.38-.51,4.55-.51,4.55,0-1.66,1.89-3.79,2.31-4.2,0,0-.65-.34-1.8-.34Zm5.85,5.04c-.28,1.47.45,2.89,1.71,3.55.27.14.56.25.87.31.13.03.25.05.38.06.06,0,.11,0,.17,0,0,0-1.86-1.74-1.11-3.38-.48-.33-1.21-.54-2.02-.54h0Zm-3.36-48.52c-2.78-1.36-4.76-4.76-4.76-8.75,0-4.23,2.22-7.81,5.28-8.98-4.59,1.02-7.83,5.09-7.42,9.69.34,3.89,3.19,7.01,6.9,8.04Zm29.54-9.76c2.95-.56,3.95,2.07,3.95,3.01,0,3.56-2.77,4.99-5.07,5.01h0c10.66,0,6.9-13.8,1.12-8.02h0Zm-7.12,30.63c5.09,0,4.75-6.65,3.65-7.76,1.63-1.63,5-9.13,5-10.51,0,0-6.72-1.45-5.65-6.12,0,0,0,0,0,0l-.09-.02c-1.83,1.93-.72,5.97,2.19,6.97,0,0-1.12,4.43-3.89,7.24-2.76-.11-6.62-.47-10.02-1.77,5.25,2.78,10.65,6.99,8.81,11.96h0Zm-19.9-31.94c1.32-.11,2.48.83,2.59,2.09.11,1.25-.87,2.36-2.19,2.46-1.32.11-2.48-.83-2.59-2.08,0,1.95,1.58,3.53,3.53,3.53.03,0,.06,0,.09,0,.17.86.23,1.78-.05,2.46,1.91-1.66,3.49-3.73,3.49-5.99,0-1.95-1.59-3.54-3.53-3.54-1.63,0-2.99,1.1-3.4,2.58.31-.82,1.09-1.43,2.06-1.51h0Zm37.54-2.57c-2.3-2.31,1.1-6.62,2.35-6.62-1.37,0-7.3,3.88-5.29,6.62h2.93Zm-29.68,38.34c1.83.56,3.66-.12,4.09-1.53.43-1.41-.71-3-2.54-3.56-.25-.08-.51-.13-.76-.16,2.64,1.51,2.61,4.53-.79,5.25Zm-5.3-19.41s2.62.83,5.84,2.3c-.65-.4-1.25-.85-1.8-1.37-1.64-1.55-2.94-2.39-4.04-2.82v1.88h0Zm.99,33.68c5.47,0,24.4-12.09,24.4-12.09-4.68,0-6.56-.72-6.56-.72-1.06.55-3.22,1.64-7.84,4.36-3.76,2.21-6.27,5.01-9.7,6.23-.52.19-.94.23-1.29.21-.79-.07-1.66-.17-2.46-.22v-17.38c0-1.82-1.33-2.56-2.21-2.56v20.23c-1.48.78-2.21,1.76-2.61,2.67,0,0-2.82-.38-2.74,4.85,0-1.39,2.06-3.81,3.48-3.81,0-1.77,5.19-1.77,7.53-1.77Zm47.22,27.98c-1.39,0-7.75.27-8.32-5.27-1.41-.3-3.05-.36-4.77-.12,4.5,8.58,9.38,8.65,10.66,8.72,1.99,2.22,1.32,9.71-1.55,9.56-10.52-.56-10.13,5.84-8.95,7.15,0-4.82,3.28-5.97,11.56-5.97,0,0,6.77-8.67,1.37-14.06Zm2.16,20.71h-1.42c-.12,2.3,2.15,2.97,2.15,2.97-.73-.73-1.26-2.44-.73-2.97Zm-13.31,3.24c-.61-.61-1.1-3.03-.22-3.92h-1.57c-.13,2.49,1.79,3.92,1.79,3.92Zm31.39-79.87c0-7.34-10.07-6.19-10.57-.55.44-4.13,7.17-4.74,7.17.43s-12.55,8.85-12.55,17.9c0,9.96,9.96,10.89,8.95,19.99-.17,1.58-1.86,3.64-4.31,3.64-5.24,0-8.05-2.23-9.68-5.37,1.67,4.45,4.6,7.87,10.71,7.87s6.9-4.68,6.9-5.76c0-9.12-9.52-11.29-9.52-19.96,0-8.44,12.89-11.92,12.89-18.19h0Zm-74.26,35.43c0,2.81,1.15,3.9,1.15,3.9,0-1.7.7-3.13,1.1-3.52-.59-.59-2.24-.38-2.24-.38Zm72.77-15.54c-2.56,0-4.65,1.96-4.87,4.45.12-.6.52-1.18,1.3-1.76,2.93-2.18,8.67,2.21,5.39,6.74,1.8-.72,3.06-2.48,3.06-4.54,0-2.7-2.19-4.89-4.88-4.89Zm-22.4,56.74h-1.71c-.17,3.25,1.9,3.74,1.9,3.74-.88-.88-1.03-2.9-.2-3.74Zm-48.24-17.32c-.26,0-.51.05-.75.14-.81.62-1.31,1.58-1.28,2.63.27.87,1.07,1.49,2.02,1.49,1.18,0,2.13-.95,2.13-2.13s-.95-2.13-2.13-2.13Zm12,15.77h-2.47c-.02,3.96,2.54,4.67,2.54,4.67-.72-.73-1.64-3.11-.07-4.67Zm7.65-25.02c0-9.05,21.67-10.11,21.67-17.56,0-3.04-2.62-4.41-4.48-4.41.53.53,3.35,6.59-4.75,6.59-7.32,2.45-23.26,16.3-12.19,21.11,0,1.39-.19,11.76-6.84,10.95-9.57-1.18-11.96,2.77-10.12,7.23,0-6.76,4.74-5.5,10.94-5.5,3.87,0,9.54-4.9,9.54-13.15,0,0-3.77-1.44-3.77-5.24Zm-18.42,5.55v-18.17c-1.23,0-2.21,1.89-2.21,1.89v15.5-.1h-1.34s.01,1.96.01,1.96c1.03,0,3.54-.53,3.54-1.09h0Zm3.73,23.41s-1.92-3.01.14-5.06h-2.16c-.87,3.76,2.02,5.06,2.02,5.06Zm13.36-3.9h-1.79c-.01,2.79,3.23,3.85,3.23,3.85-1.14-1.14-1.93-3.37-1.44-3.85Z"/>
    <path id="path3477" class="cls-3" d="m31.43,124.72l-.12-.37-.05-.38c-.17-1.31-.49-3.74-2.37-4.18-.5-.12-1.02-.06-1.58.17.15-.58.13-1.1-.05-1.58-.69-1.8-3.15-1.78-4.46-1.76h-.39l-.38-.07c-1.29-.24-3.71-.69-4.7.96-.27.44-.37.95-.33,1.55-.5-.32-1.01-.47-1.52-.44-1.93.1-2.67,2.44-3.06,3.7l-.12.37-.18.34c-.63,1.16-1.8,3.31-.54,4.77.34.39.79.65,1.37.79-.46.38-.76.82-.89,1.31-.5,1.86,1.5,3.28,2.57,4.05l.31.23.27.27c.91.96,2.59,2.74,4.37,1.98.47-.2.86-.55,1.17-1.06.22.56.54.97.97,1.25,1.62,1.05,3.59-.41,4.65-1.19l.31-.23.35-.17c1.19-.57,3.41-1.62,3.24-3.54-.04-.52-.26-.99-.65-1.44.59-.04,1.08-.22,1.48-.54,1.5-1.21.72-3.54.3-4.79"/>
    <path id="path3479" class="cls-4" d="m22.98,126.28c10.79,6.38,7.47-.64,7.23-1.67-.24-1.03-.33-8.79-7.23,1.67"/>
    <path id="path3481" class="cls-4" d="m22.3,127.88c-2.73,12.23,2.91,6.9,3.82,6.36.91-.55,8.26-3.03-3.82-6.36"/>
    <path id="path3483" class="cls-4" d="m20.57,127.73c-12.48,1.18-5.67,4.9-4.87,5.6.8.69,5.43,6.92,4.87-5.6"/>
    <path id="path3485" class="cls-4" d="m20.18,126.03c-4.98-11.5-6.42-3.87-6.83-2.89-.41.97-4.9,7.3,6.83,2.89"/>
    <path id="path3487" class="cls-3" d="m198.39,123.03l-.18-.34-.12-.37c-.39-1.26-1.13-3.6-3.05-3.7-.52-.02-1.02.12-1.52.44.05-.59-.07-1.1-.33-1.54-1-1.65-3.41-1.2-4.7-.96l-.39.07h-.39c-1.31-.02-3.77-.04-4.46,1.76-.19.48-.2,1-.05,1.58-.55-.23-1.07-.29-1.57-.17-1.88.43-2.2,2.87-2.37,4.18l-.06.38-.12.37c-.42,1.25-1.2,3.57.3,4.79.4.32.89.5,1.48.54-.39.45-.6.93-.65,1.44-.17,1.92,2.05,2.97,3.24,3.54l.34.17.31.23c1.06.78,3.03,2.24,4.65,1.19.44-.28.75-.7.97-1.25.31.51.7.86,1.17,1.06,1.77.75,3.46-1.03,4.37-1.99l.27-.27.31-.23c1.07-.76,3.07-2.19,2.57-4.05-.13-.5-.43-.93-.89-1.31.58-.14,1.03-.4,1.37-.79,1.27-1.46.1-3.61-.54-4.77"/>
    <path id="path3489" class="cls-4" d="m188.85,125.14c-9.4-8.29-1.7-7.3-.64-7.39,1.05-.09,8.46-2.4.64,7.39"/>
    <path id="path3491" class="cls-4" d="m187.54,126.28c-10.79,6.38-7.47-.64-7.23-1.67.24-1.03.33-8.79,7.23,1.67"/>
    <path id="path3493" class="cls-4" d="m188.22,127.88c2.73,12.23-2.91,6.9-3.82,6.36-.91-.55-8.25-3.03,3.82-6.36"/>
    <path id="path3495" class="cls-4" d="m189.95,127.73c12.48,1.18,5.67,4.9,4.87,5.6-.8.69-5.43,6.92-4.87-5.6"/>
    <path id="path3497" class="cls-4" d="m190.34,126.03c4.98-11.5,6.42-3.87,6.83-2.89.41.97,4.9,7.3-6.83,2.89"/>
    <path id="path3499" class="cls-3" d="m192.76,126.39c-.01-.1-.04-.19-.06-.29,1-.74,2.08-1.52,2.08-1.52l-.1-.23s-1.26.22-2.47.43c-.61-1-1.64-1.67-2.83-1.79-.38-1.13-.75-2.29-.75-2.29l-.25.02s-.17,1.2-.34,2.38c-.73.2-1.38.61-1.88,1.2-.27.32-.46.68-.61,1.05-1.22,0-2.51,0-2.51,0l-.05.25s1.2.59,2.31,1.13c0,.1,0,.2,0,.3.09.98.54,1.86,1.28,2.5-.39,1.22-.83,2.58-.83,2.58l.22.13s1.01-1.05,1.91-1.97c.47.15.97.22,1.48.17.51-.04.99-.19,1.43-.42,1.04.75,2.22,1.6,2.22,1.6l.19-.17s-.67-1.26-1.26-2.39c.62-.76.91-1.71.83-2.69"/>
    <path id="path3501" class="cls-4" d="m188.83,124.51c-.59.05-1.12.33-1.5.78-.38.45-.56,1.03-.51,1.61.1,1.22,1.18,2.12,2.4,2.02.6-.05,1.12-.33,1.51-.78.38-.46.56-1.03.51-1.62-.11-1.22-1.19-2.12-2.4-2.01"/>
    <path id="path3503" class="cls-4" d="m21.67,125.14c9.4-8.29,1.7-7.3.65-7.39-1.06-.09-8.47-2.4-.65,7.39"/>
    <path id="path3505" class="cls-3" d="m25.23,126.75c1.12-.54,2.31-1.13,2.31-1.13l-.06-.25s-1.29,0-2.51,0c-.15-.38-.34-.74-.61-1.05-.5-.59-1.15-1-1.88-1.2-.17-1.18-.34-2.38-.34-2.38l-.26-.02s-.37,1.15-.75,2.29c-1.19.12-2.23.79-2.84,1.79-1.21-.21-2.48-.43-2.48-.43l-.1.23s1.08.79,2.08,1.52c-.02.1-.05.19-.06.29-.08.98.21,1.93.83,2.69-.6,1.13-1.27,2.39-1.27,2.39l.2.17s1.18-.85,2.22-1.6c.44.23.92.38,1.43.42.51.05,1.01-.02,1.48-.17.9.93,1.91,1.97,1.91,1.97l.22-.13s-.44-1.36-.83-2.58c.74-.64,1.19-1.52,1.28-2.5.01-.1,0-.2,0-.3"/>
    <path id="path3507" class="cls-4" d="m23.2,125.3c-.38-.46-.91-.74-1.51-.78-1.21-.11-2.29.79-2.4,2.01-.05.59.13,1.16.51,1.62.38.45.92.73,1.51.78,1.21.11,2.29-.8,2.4-2.02.05-.59-.13-1.16-.51-1.61"/>
    <path id="path3509" class="cls-3" d="m23.05,73c-5.25-.93-10.28,2.6-11.21,7.85-.93,5.26,2.6,10.28,7.85,11.21,5.26.93,10.29-2.6,11.21-7.85.93-5.25-2.59-10.28-7.85-11.21"/>
    <path id="path3511" class="cls-4" d="m25.24,80.32c-.08-.05-.23-.15-.41-.27-.79-.53-2.35-1.56-2.39-1.59-.22-.15-.43-.29-.63-.43-.69-.46-1.31-.87-1.89-1.2-.22-.13-.44-.25-.66-.35-.92-.47-1.81-.75-2.86-.84-.81.58-1.51,1.3-2.07,2.14,2.41.87,4.76,2.26,9.65,5.3.28-.65,1.22-2.64,1.27-2.76"/>
    <path id="path3513" class="cls-4" d="m22.98,85.51c.1-.24.53-1.33.7-1.75-5.01-3.11-7.34-4.49-9.75-5.34-.37.67-.65,1.4-.84,2.18,1.38,1.89,5.07,3.75,9.89,4.91"/>
    <path id="path3515" class="cls-4" d="m22.44,77.6c1.88-1.11,4.01-.81,5.66-.25-.61-.79-1.36-1.49-2.22-2.02-1.56-.31-3.7-.36-5.41,1,.62.37,1.26.79,1.98,1.27"/>
    <path id="path3517" class="cls-4" d="m14.95,86.57c.25.17.51.34.78.49.55.31,1.15.57,1.77.8.26.1.53.19.8.28.94.31,3.1.87,3.26.91.03-.08.84-2.08,1.15-2.84-3.74-.93-7.83-2.55-9.78-4.66-.12.97-.07,1.94.13,2.85.41.89,1.07,1.61,1.88,2.18"/>
    <path id="path3519" class="cls-4" d="m21.68,89.82l-.78-.2c-.72-.18-1.51-.39-2.3-.63.39.83,1,1.47,1.65,1.97.87.12,1.74.09,2.57-.05-.6-.47-1.13-1.09-1.13-1.09"/>
    <path id="path3521" class="cls-4" d="m29.5,80.07c-.18-.58-.41-1.14-.7-1.67-1.47-.66-3.72-1.3-5.68-.34l2.7,1.79c.56-.05,1.08-.07,1.56-.05.26,0,.5.02.73.04.53.05.98.13,1.39.24"/>
    <path id="path3523" class="cls-4" d="m28.12,80.56c-.08,4.44-2.17,7.87-3.98,10.01,2.83-.98,5.05-3.42,5.61-6.56.19-1.07.16-2.13-.04-3.14-.44-.14-.96-.25-1.59-.31"/>
    <path id="path3525" class="cls-4" d="m19.79,75.95c1.27-1.12,2.76-1.49,4.14-1.52-.35-.11-.71-.21-1.08-.27-1.96-.35-3.89.02-5.52.9.87.17,1.66.48,2.46.89"/>
    <path id="path3527" class="cls-4" d="m25.92,80.57c-.64,1.34-1.02,2.16-1.33,2.91-.1.23-.19.45-.29.67-.15.37-.61,1.54-.61,1.54l-.28.68-1.19,2.96c.33.44.73.79,1.12,1.07,1.77-2.02,3.98-5.42,4.05-9.87-.45-.02-.94,0-1.47.05"/>
    <path id="path3529" class="cls-4" d="m17.7,88.69c-.6-.2-1.19-.44-1.75-.71.21.65.51,1.22.82,1.72.64.41,1.34.73,2.08.96-.48-.54-.9-1.19-1.15-1.96"/>
    <path id="path3531" class="cls-4" d="m15.08,87.5c-.4-.24-.78-.51-1.13-.81.39.7.89,1.35,1.46,1.91-.14-.35-.26-.72-.34-1.11"/>
    <path id="path3533" class="cls-3" d="m178.58,84.21c.93,5.26,5.96,8.78,11.21,7.85,5.26-.93,8.78-5.96,7.85-11.21-.93-5.25-5.96-8.78-11.21-7.85-5.26.93-8.78,5.96-7.85,11.21"/>
    <path id="path3535" class="cls-4" d="m184.24,80.32c.08-.05.23-.15.42-.27.79-.53,2.35-1.56,2.39-1.59.22-.15.43-.29.64-.43.68-.46,1.31-.87,1.89-1.2.22-.13.44-.25.66-.35.92-.47,1.81-.75,2.86-.84.81.58,1.51,1.3,2.07,2.14-2.4.87-4.75,2.26-9.65,5.3-.28-.65-1.21-2.64-1.27-2.76"/>
    <path id="path3537" class="cls-4" d="m186.49,85.51c-.1-.24-.53-1.33-.7-1.75,5-3.11,7.34-4.49,9.75-5.34.37.67.65,1.4.84,2.18-1.38,1.89-5.07,3.75-9.89,4.91"/>
    <path id="path3539" class="cls-4" d="m187.04,77.6c-1.88-1.11-4.01-.81-5.66-.25.61-.79,1.36-1.49,2.23-2.02,1.55-.31,3.7-.36,5.41,1-.62.37-1.26.79-1.98,1.27"/>
    <path id="path3541" class="cls-4" d="m194.52,86.57c-.25.17-.5.34-.78.49-.55.31-1.15.57-1.76.8-.26.1-.53.19-.8.28-.94.31-3.1.87-3.26.91-.04-.08-.85-2.08-1.15-2.84,3.74-.93,7.83-2.55,9.78-4.66.12.97.07,1.94-.14,2.85-.41.89-1.07,1.61-1.89,2.18"/>
    <path id="path3543" class="cls-4" d="m187.79,89.82l.77-.2c.73-.18,1.51-.39,2.31-.63-.39.83-1,1.47-1.65,1.97-.87.12-1.74.09-2.56-.05.59-.47,1.13-1.09,1.13-1.09"/>
    <path id="path3545" class="cls-4" d="m179.97,80.07c.18-.58.41-1.14.71-1.67,1.47-.66,3.71-1.3,5.67-.34l-2.7,1.79c-.56-.05-1.08-.07-1.56-.05-.26,0-.5.02-.73.04-.53.05-.98.13-1.39.24"/>
    <path id="path3547" class="cls-4" d="m181.36,80.56c.08,4.44,2.18,7.87,3.98,10.01-2.83-.98-5.06-3.42-5.61-6.56-.19-1.07-.16-2.13.04-3.14.44-.14.96-.25,1.59-.31"/>
    <path id="path3549" class="cls-4" d="m189.69,75.95c-1.27-1.12-2.76-1.49-4.14-1.52.35-.11.7-.21,1.08-.27,1.96-.35,3.89.02,5.52.9-.87.17-1.65.48-2.46.89"/>
    <path id="path3551" class="cls-4" d="m183.55,80.57c.64,1.34,1.02,2.16,1.34,2.91.09.23.18.45.28.67.15.37.61,1.54.61,1.54l.27.68,1.2,2.96c-.33.44-.73.79-1.12,1.07-1.77-2.02-3.98-5.42-4.05-9.87.44-.02.94,0,1.47.05"/>
    <path id="path3553" class="cls-4" d="m191.77,88.69c.6-.2,1.19-.44,1.75-.71-.22.65-.51,1.22-.82,1.72-.64.41-1.33.73-2.08.96.48-.54.9-1.19,1.15-1.96"/>
    <path id="path3555" class="cls-4" d="m194.4,87.5c.4-.24.77-.51,1.12-.81-.39.7-.89,1.35-1.46,1.91.13-.35.25-.72.34-1.11"/>
  </g>
</svg>