<?xml version="1.0" encoding="UTF-8"?>
<svg id="Layer_2" data-name="Layer 2" xmlns="http://www.w3.org/2000/svg" viewBox="0 0 555.4 658.75">
  <defs>
    <style>
      .cls-1 {
        fill: #aa0634;
      }

      .cls-1, .cls-2, .cls-3, .cls-4, .cls-5 {
        stroke-width: 0px;
      }

      .cls-2 {
        fill: #fff;
      }

      .cls-3 {
        fill: #eb2124;
      }

      .cls-4 {
        fill: #ee3e40;
      }

      .cls-5 {
        fill: #00488e;
      }
    </style>
  </defs>
  <g id="Layer_1-2" data-name="Layer 1">
    <g>
      <path class="cls-5" d="m28.22,53.37s239.79-121.51,501.08,2.15c0,0,51.61,170.97,9.68,313.98-60.21,207.53-260.21,289.25-260.21,289.25,0,0-174.19-66.67-253.76-266.67-58.06-166.67,3.23-338.71,3.23-338.71Z"/>
      <path class="cls-2" d="m36.82,64.12s233.33-118.28,481.72,1.08c54.84,183.87,5.38,309.68,5.38,309.68,0,0-44.09,170.97-245.16,267.74-16.13-2.15-181.72-88.17-243.01-253.76-1.08-10.75-56.99-138.71,1.08-324.73Z"/>
      <path class="cls-5" d="m47.58,72.73s232.26-112.9,460.21,4.3c51.61,166.67,6.45,295.7,6.45,295.7,0,0-49.46,173.12-236.56,256.99-188.17-87.1-237.63-255.91-237.63-255.91,0,0-45.16-143.01,7.53-301.08Z"/>
      <path class="cls-2" d="m47.58,151.22s147.31-68.82,282.8-48.39c51.61,238.71-158.06,438.71-158.06,438.71,0,0-174.19-133.33-124.73-390.32Z"/>
      <path class="cls-2" d="m334.53,102.91s82,7,169,43c53,238-86,361-86,361,0,0,10-234-83-404Z"/>
      <path class="cls-1" d="m335.2,110.58s54,210.67-133.33,432c58.67-20,94-61.33,94-61.33,0,0,97.33-128,39.33-370.67Z"/>
      <path class="cls-4" d="m335.45,111.5s54.68,145.6-1.32,325.45c-6.59,27.01,7.25,36.89,7.25,36.89,0,0,13.18,13.18,15.15,1.32,1.98-11.86,48.09-178.54-21.08-363.66Z"/>
      <path class="cls-4" d="m335.45,110.83s41.5,100.8,45.46,182.49c7.91,84.99-10.54,185.78-10.54,185.78,0,0-1.98,12.52,7.25,18.45,9.22,5.93,19.76,13.18,19.76,13.18,0,0,4.61-163.38-2.64-205.55-13.18-95.53-59.29-194.35-59.29-194.35Z"/>
      <g>
        <path class="cls-2" d="m113,100.53c.13.39.24.73.31,1.01.07.28.11.53.13.74.02.21.01.4-.02.57-.03.17-.1.37-.21.61-.11.24-.37.58-.77,1.04-.4.45-.91.93-1.54,1.43-.63.5-1.37,1-2.23,1.48-.86.49-1.83.91-2.89,1.27-2.09.71-4.09,1.03-5.99.96-1.9-.07-3.66-.55-5.27-1.43-1.61-.88-3.06-2.17-4.34-3.88-1.28-1.7-2.35-3.83-3.22-6.38-.88-2.59-1.32-5.01-1.31-7.26,0-2.25.4-4.27,1.18-6.06.78-1.79,1.91-3.33,3.41-4.63,1.5-1.3,3.29-2.3,5.38-3.01.85-.29,1.69-.5,2.52-.62.83-.13,1.62-.19,2.37-.19.75,0,1.44.06,2.07.18.64.12,1.1.25,1.38.39.28.14.49.27.62.38.13.11.25.27.37.48.12.2.25.45.37.74.12.29.26.66.41,1.1.16.47.28.88.36,1.22.08.34.12.63.11.86,0,.23-.05.41-.13.54-.08.13-.19.22-.33.27-.24.08-.58.04-1.04-.11-.46-.15-1.03-.3-1.72-.44-.69-.14-1.48-.22-2.36-.22-.89,0-1.88.18-2.98.55-1.21.41-2.21,1.03-2.99,1.84-.78.82-1.35,1.8-1.71,2.95-.36,1.15-.48,2.43-.39,3.85.1,1.42.42,2.95.98,4.58.61,1.79,1.32,3.28,2.14,4.47.81,1.19,1.71,2.09,2.68,2.71.97.62,2.01.97,3.12,1.06,1.11.09,2.27-.07,3.48-.49,1.1-.37,2.01-.83,2.72-1.36.71-.53,1.3-1.05,1.77-1.56.47-.51.84-.95,1.13-1.33.28-.38.53-.6.73-.67.16-.05.29-.06.41-.03.12.03.24.13.36.3.13.17.26.41.41.74.15.33.32.77.51,1.34Z"/>
        <path class="cls-2" d="m143.94,95.93c.04.16.03.32-.04.48-.07.16-.21.31-.43.45-.22.15-.52.3-.91.46-.39.16-.88.32-1.49.49-.62.17-1.15.29-1.57.36-.42.06-.76.09-1.01.07-.25-.02-.45-.07-.59-.17-.14-.1-.23-.23-.28-.39l-3.48-12.55-11.62,3.22,3.48,12.55c.04.16.04.32-.02.47-.06.16-.2.31-.42.45-.22.15-.52.3-.91.46-.39.16-.89.32-1.52.5-.61.17-1.12.29-1.54.35-.42.07-.76.09-1.02.08s-.46-.07-.6-.17c-.14-.1-.23-.23-.28-.39l-8.13-29.33c-.04-.16-.03-.32.04-.48.07-.16.21-.31.43-.46.22-.15.52-.3.92-.46.39-.16.9-.33,1.5-.49.62-.17,1.14-.29,1.56-.35.41-.06.75-.09,1.01-.07.26.01.46.07.59.17.13.1.22.23.26.39l3.16,11.4,11.62-3.22-3.16-11.4c-.04-.16-.03-.32.04-.48.07-.16.21-.31.42-.45.21-.14.51-.3.91-.46.39-.16.9-.33,1.53-.5.61-.17,1.12-.28,1.53-.35.41-.06.75-.09,1.01-.07.26.01.46.07.6.17.14.1.23.23.28.39l8.13,29.33Z"/>
        <path class="cls-2" d="m170.01,88.29c.1.47.17.87.2,1.19.03.32.03.59-.01.81-.04.21-.11.38-.21.49-.1.12-.23.19-.37.22l-15.8,3.53c-.53.12-1.02.06-1.45-.17-.44-.23-.73-.71-.89-1.42l-6.12-27.42c-.16-.71-.09-1.27.2-1.67.29-.4.71-.66,1.24-.77l15.7-3.5c.15-.03.28-.02.42.03.13.06.26.18.39.36.13.18.24.43.36.74.11.31.22.7.33,1.19.1.45.17.84.2,1.17.03.32.03.59-.01.81-.04.21-.1.38-.2.49-.09.11-.21.19-.36.22l-11.23,2.51,1.71,7.68,9.5-2.12c.15-.03.29-.02.43.04.14.06.27.18.4.35.12.17.24.41.35.71.11.31.22.69.32,1.14.1.47.17.86.2,1.18s.02.58-.02.78c-.04.2-.11.36-.21.47-.1.11-.23.18-.37.21l-9.5,2.12,1.98,8.87,11.33-2.53c.15-.03.29-.02.43.04.14.06.27.18.4.36.12.18.24.42.35.72.11.31.22.7.32,1.17Z"/>
        <path class="cls-2" d="m193.84,76.71c.3,1.67.25,3.19-.14,4.55-.4,1.37-1.05,2.57-1.96,3.6-.91,1.03-2.04,1.89-3.39,2.57-1.35.68-2.83,1.16-4.44,1.45-1.1.2-2.13.29-3.1.28-.97-.01-1.84-.08-2.6-.2-.76-.12-1.41-.28-1.94-.47-.53-.19-.92-.37-1.17-.55-.25-.17-.46-.45-.62-.84-.16-.38-.31-.95-.44-1.7-.09-.51-.15-.93-.18-1.28-.03-.35-.03-.64,0-.86.04-.23.11-.39.21-.51.11-.11.24-.18.4-.21.23-.04.58.04,1.04.23.46.19,1.05.4,1.77.61.71.21,1.55.37,2.5.48.95.11,2.03.05,3.22-.16.78-.14,1.47-.36,2.06-.66.59-.3,1.07-.66,1.44-1.08.37-.42.63-.9.76-1.45.14-.55.15-1.13.04-1.75-.13-.72-.44-1.3-.92-1.75-.48-.44-1.08-.81-1.78-1.1-.7-.29-1.48-.54-2.35-.74-.86-.21-1.76-.43-2.68-.67-.92-.24-1.83-.54-2.72-.89-.89-.35-1.71-.82-2.47-1.4-.75-.58-1.41-1.31-1.97-2.19-.56-.88-.96-1.98-1.2-3.3-.27-1.52-.23-2.91.13-4.16.36-1.25.95-2.35,1.77-3.28.82-.93,1.85-1.7,3.08-2.31,1.23-.61,2.57-1.04,4.03-1.3.75-.13,1.51-.21,2.29-.23s1.5,0,2.19.09c.69.08,1.31.2,1.86.35.55.15.92.3,1.11.43.19.13.33.25.41.36.08.1.15.25.23.43.07.18.15.41.21.7.07.28.14.64.22,1.06.08.47.14.88.18,1.21.03.33.04.61.02.83-.02.22-.07.39-.16.51-.09.12-.22.19-.4.22-.18.03-.49-.03-.92-.19-.43-.16-.96-.32-1.58-.49-.62-.17-1.33-.29-2.12-.38-.79-.09-1.64-.05-2.53.11-.7.13-1.3.32-1.79.59-.49.27-.89.58-1.18.95-.3.37-.49.78-.59,1.23-.1.46-.1.92-.02,1.39.13.7.43,1.28.9,1.72.48.45,1.07.81,1.79,1.1.72.29,1.52.53,2.4.73.88.21,1.78.43,2.7.67.92.24,1.83.54,2.74.89.91.35,1.74.82,2.5,1.4.76.58,1.42,1.31,1.98,2.17.56.87.96,1.94,1.18,3.22Z"/>
        <path class="cls-2" d="m218.3,53.24c.06.48.1.89.1,1.23,0,.34-.02.62-.07.84-.05.22-.14.38-.25.5-.11.12-.24.18-.39.2l-8,1.08,3.49,25.74c.02.16-.01.32-.1.47-.09.15-.25.28-.49.39-.24.12-.56.23-.97.33-.41.11-.93.2-1.56.29-.63.08-1.15.13-1.58.14-.43,0-.77-.01-1.03-.06-.26-.05-.45-.13-.57-.25s-.2-.26-.22-.42l-3.49-25.74-8,1.08c-.17.02-.31,0-.44-.09s-.25-.22-.36-.42c-.11-.19-.21-.46-.3-.79-.09-.33-.16-.74-.23-1.21-.07-.49-.1-.92-.11-1.27,0-.35.02-.63.07-.85.05-.22.13-.38.24-.48.1-.11.24-.17.4-.19l22.51-3.05c.15-.02.29,0,.43.08.14.07.26.21.37.4.11.19.21.46.3.8.09.34.16.76.23,1.25Z"/>
        <path class="cls-2" d="m245.85,77.78c.04.48.06.88.05,1.21s-.05.59-.12.8c-.06.21-.16.36-.27.46-.12.1-.25.16-.4.17l-16.12,1.45c-.55.05-1.02-.07-1.42-.36-.4-.29-.63-.8-.7-1.52l-2.52-27.98c-.07-.73.07-1.27.42-1.62.34-.36.79-.56,1.33-.61l16.02-1.44c.15-.01.28.02.41.09.12.07.23.21.34.41.1.2.19.46.26.78.07.32.13.73.17,1.22.04.46.06.86.04,1.18-.01.33-.05.59-.12.8-.06.21-.15.36-.26.46-.11.1-.24.16-.38.17l-11.46,1.03.7,7.84,9.7-.87c.15-.01.29.02.42.1.13.08.25.21.35.39.1.18.18.43.26.75.07.32.13.71.17,1.17.04.48.06.88.05,1.2-.01.32-.05.58-.12.77-.07.2-.16.34-.27.44-.12.09-.25.15-.4.16l-9.7.87.81,9.05,11.56-1.04c.15-.01.29.02.42.1.13.08.25.22.35.41s.19.45.26.76c.07.32.13.72.17,1.2Z"/>
        <path class="cls-2" d="m276.66,78.06c0,.18-.02.34-.08.46-.06.13-.21.24-.46.33-.25.09-.61.17-1.09.22-.48.05-1.13.1-1.96.13-.7.03-1.25.03-1.67.02-.42-.02-.75-.07-.99-.15-.24-.08-.42-.19-.52-.33-.1-.14-.2-.3-.27-.5l-3.18-7.07c-.38-.8-.75-1.51-1.11-2.12-.36-.62-.75-1.13-1.17-1.54-.42-.41-.91-.71-1.44-.9-.54-.19-1.16-.28-1.85-.25l-2.04.08.5,12.27c0,.17-.04.32-.14.45-.1.14-.28.25-.52.35-.25.09-.57.17-.99.24s-.94.11-1.59.14c-.63.03-1.16.02-1.58-.01-.42-.03-.76-.09-1.02-.16-.25-.07-.43-.17-.54-.3s-.16-.28-.17-.44l-1.18-29.24c-.03-.73.14-1.26.5-1.6.36-.34.81-.52,1.36-.54l8.34-.34c.85-.03,1.54-.05,2.09-.03.55.01,1.05.03,1.5.06,1.3.13,2.48.4,3.53.8,1.05.41,1.96.96,2.71,1.65.75.69,1.34,1.52,1.76,2.5.42.97.66,2.1.71,3.37.04,1.08-.05,2.07-.29,2.97-.24.9-.61,1.71-1.11,2.42-.5.72-1.13,1.35-1.89,1.9-.76.55-1.63,1-2.61,1.35.49.21.95.48,1.39.79.44.31.85.7,1.24,1.16.39.46.77.98,1.12,1.57.36.59.71,1.26,1.05,2.01l2.97,6.23c.27.62.46,1.07.55,1.36.09.29.15.51.15.68Zm-9.32-21.5c-.04-1.06-.32-1.95-.83-2.66-.51-.71-1.32-1.19-2.43-1.45-.33-.07-.71-.12-1.14-.15-.42-.03-1.01-.03-1.76,0l-2.94.12.37,9.13,3.33-.13c.93-.04,1.74-.18,2.42-.43.69-.25,1.26-.59,1.7-1.02.45-.43.78-.92.99-1.5.21-.57.3-1.21.27-1.91Z"/>
        <path class="cls-2" d="m300.8,49.56c0,.5-.03.92-.07,1.26-.04.34-.11.61-.21.81-.09.2-.2.35-.32.45-.12.1-.25.15-.4.15l-10.53-.09-.08,8.67,9.89.09c.15,0,.28.04.4.13s.22.23.31.43c.09.2.15.47.19.8.04.33.05.75.05,1.25,0,.5-.03.91-.07,1.24-.04.33-.11.6-.21.82-.09.22-.2.37-.32.46-.12.09-.25.13-.4.13l-9.89-.09-.11,12c0,.18-.05.34-.15.47-.1.13-.28.24-.54.33-.26.09-.59.16-1.01.2-.41.05-.95.07-1.59.06-.63,0-1.16-.04-1.58-.09-.42-.05-.76-.13-1.01-.22-.25-.09-.43-.21-.53-.34-.11-.13-.16-.29-.16-.47l.26-29.21c0-.73.2-1.26.57-1.58.38-.32.84-.48,1.39-.47l15.16.13c.15,0,.28.05.4.14.11.09.22.24.31.45.09.21.15.49.19.84.04.35.05.77.05,1.27Z"/>
        <path class="cls-2" d="m313.57,78.79c0,.17-.07.31-.18.44-.11.13-.3.23-.55.3-.25.07-.59.12-1,.15s-.95.03-1.6,0c-.63-.03-1.16-.08-1.58-.15-.42-.07-.75-.15-1-.25-.25-.09-.42-.21-.52-.35-.1-.14-.15-.29-.14-.46l1.39-30.4c0-.17.07-.31.18-.44.11-.13.3-.23.56-.3.26-.07.6-.12,1.02-.15s.94-.03,1.57,0c.65.03,1.18.08,1.59.15.41.07.74.15.99.24.25.09.42.21.52.35.1.14.15.29.14.46l-1.39,30.4Z"/>
        <path class="cls-2" d="m340.82,79.16c-.04.48-.1.88-.16,1.2-.07.32-.15.57-.25.77-.1.19-.22.33-.35.41-.13.08-.27.11-.42.1l-16.13-1.37c-.54-.05-.99-.25-1.34-.6-.34-.35-.49-.89-.42-1.62l2.37-27.99c.06-.73.29-1.24.69-1.53.4-.29.87-.41,1.42-.37l16.03,1.36c.15.01.28.07.39.16.11.09.2.25.26.46.06.21.1.48.12.81.01.33,0,.74-.04,1.23-.04.46-.09.85-.16,1.17-.07.32-.15.57-.25.77-.1.19-.21.33-.33.41-.12.08-.26.12-.41.1l-11.46-.97-.67,7.84,9.7.82c.15.01.28.07.4.17.12.1.21.25.27.45.07.2.11.46.12.78.01.33,0,.72-.04,1.18-.04.48-.09.87-.16,1.19-.07.31-.15.56-.25.74-.1.18-.21.31-.34.38-.13.07-.27.1-.42.09l-9.7-.82-.77,9.06,11.56.98c.15.01.28.07.4.17.12.1.21.25.27.46.07.21.11.47.12.8s0,.73-.04,1.21Z"/>
        <path class="cls-2" d="m365.24,82.14c-.07.49-.14.91-.23,1.24-.09.33-.19.6-.3.81-.11.21-.24.36-.37.44-.14.08-.29.11-.45.09l-14.64-1.95c-.54-.07-.98-.29-1.31-.66-.33-.37-.44-.92-.35-1.64l3.86-29c.02-.16.09-.31.22-.42.12-.12.32-.2.57-.25.26-.05.6-.07,1.03-.06.43,0,.95.05,1.58.13.64.09,1.17.18,1.57.28.4.1.73.21.96.33.24.12.4.25.49.39.09.15.12.3.1.47l-3.42,25.7,10.05,1.34c.16.02.3.09.41.19.11.11.19.27.25.49s.08.5.08.84c0,.34-.04.76-.1,1.25Z"/>
        <path class="cls-2" d="m398.98,74.28c-.55,2.9-1.41,5.31-2.56,7.23-1.15,1.92-2.56,3.39-4.23,4.43-1.67,1.03-3.58,1.66-5.72,1.89-2.15.22-4.62.07-7.43-.47l-7.56-1.44c-.54-.1-.96-.35-1.27-.74-.31-.39-.39-.94-.25-1.66l5.26-27.59c.14-.72.42-1.2.85-1.45.43-.25.91-.32,1.45-.22l8.12,1.55c2.82.54,5.15,1.32,6.99,2.36,1.84,1.04,3.31,2.33,4.41,3.88,1.1,1.55,1.82,3.35,2.15,5.39s.27,4.32-.21,6.83Zm-6.7-1.05c.29-1.5.38-2.93.27-4.28-.11-1.35-.46-2.58-1.05-3.67-.59-1.09-1.45-2.02-2.56-2.78-1.11-.76-2.66-1.33-4.63-1.71l-3.25-.62-4.11,21.53,3.35.64c1.76.34,3.29.39,4.58.16,1.29-.23,2.43-.72,3.42-1.49.98-.77,1.8-1.8,2.46-3.09.66-1.29,1.17-2.85,1.51-4.68Z"/>
        <path class="cls-2" d="m439.66,71.63c-.13.48-.27.88-.4,1.19-.13.32-.27.56-.41.73s-.28.28-.42.35c-.14.06-.28.08-.42.04l-10.14-2.85-2.35,8.34,9.52,2.68c.14.04.26.12.35.23.09.11.15.28.18.49.03.22.03.49-.02.82-.05.33-.14.74-.28,1.22-.13.48-.27.87-.4,1.18-.13.31-.27.55-.41.74-.15.18-.29.3-.42.36-.14.06-.28.06-.42.02l-9.52-2.68-3.25,11.55c-.05.18-.14.31-.27.41-.13.1-.33.16-.61.18-.27.02-.62,0-1.03-.07-.41-.06-.93-.18-1.55-.36-.61-.17-1.11-.34-1.5-.5-.39-.16-.7-.32-.91-.48-.21-.16-.36-.31-.42-.47-.07-.16-.08-.32-.03-.5l7.92-28.12c.2-.7.52-1.16.97-1.37.45-.21.93-.24,1.46-.09l14.6,4.11c.14.04.26.12.35.24.09.12.15.29.18.52.03.22.02.51-.03.86-.06.35-.15.76-.29,1.24Z"/>
        <path class="cls-2" d="m459.94,104.38c-.13.39-.26.72-.38.99-.12.27-.23.49-.35.67-.11.18-.24.33-.36.44-.13.11-.31.23-.54.35-.24.12-.65.24-1.24.35-.59.11-1.29.18-2.09.19-.8.02-1.69-.05-2.67-.19-.98-.14-2-.39-3.07-.76-2.09-.71-3.87-1.68-5.33-2.9-1.46-1.22-2.56-2.67-3.3-4.35-.74-1.68-1.1-3.59-1.07-5.72.03-2.13.47-4.47,1.34-7.01.88-2.59,2.02-4.78,3.39-6.55,1.38-1.77,2.92-3.13,4.63-4.08,1.71-.94,3.55-1.47,5.53-1.59,1.98-.11,4.01.18,6.1.9.85.29,1.64.64,2.38,1.05.74.41,1.4.84,1.99,1.3.59.46,1.1.92,1.53,1.4.43.48.72.86.86,1.15.14.28.22.51.25.68.03.17.03.37,0,.61-.03.24-.08.51-.16.81-.08.31-.19.68-.34,1.12-.16.47-.31.87-.46,1.19-.14.32-.29.57-.44.75-.15.18-.29.29-.44.35-.14.06-.28.06-.43.01-.24-.08-.49-.32-.75-.72-.27-.4-.63-.86-1.09-1.4-.46-.53-1.04-1.07-1.74-1.62-.7-.55-1.6-1.01-2.7-1.38-1.21-.41-2.37-.53-3.49-.36-1.12.17-2.17.6-3.15,1.29-.98.69-1.87,1.63-2.66,2.82-.79,1.19-1.46,2.6-2.02,4.23-.61,1.79-.96,3.41-1.04,4.84-.08,1.44.08,2.7.47,3.78.39,1.08,1,2,1.83,2.74.82.75,1.84,1.33,3.05,1.74,1.1.37,2.09.57,2.98.58.89.01,1.67-.04,2.36-.16.68-.12,1.25-.24,1.7-.37.45-.12.79-.15.99-.08.16.05.27.13.34.22.07.1.11.25.11.46,0,.21-.04.49-.13.84-.08.35-.22.81-.42,1.37Z"/>
      </g>
      <g>
        <path class="cls-3" d="m117.94,170.49v92.69h-7.74v25.52h7.74v111.16h25.52v-111.16h78.98v-25.52h-78.98v-67.17h96.27v-25.51h-121.78Z"/>
        <polygon class="cls-5" points="237.69 193.98 237.69 172.52 119.97 172.52 119.97 172.52 119.97 265.21 112.22 265.21 112.22 286.66 119.97 286.66 119.97 397.82 141.43 397.82 141.43 286.66 220.39 286.66 220.39 265.21 141.43 265.21 141.43 193.98 237.69 193.98"/>
        <path class="cls-3" d="m81.58,279.66c0,38.67,31.46,70.14,70.13,70.14,23.66,0,45.57-11.85,58.6-31.67l.91-1.37-18.71-18.92-1.28,2.45c-7.75,14.8-22.9,23.98-39.52,23.98-24.6,0-44.61-20.01-44.61-44.61s20.01-44.6,44.61-44.6c16.62,0,31.76,9.19,39.52,23.98l1.28,2.45,18.71-18.93-.91-1.37c-13.04-19.82-34.95-31.66-58.6-31.66-38.66,0-70.13,31.45-70.13,70.12Z"/>
        <path class="cls-5" d="m193.02,301.23c-7.8,14.88-23.38,25.07-41.32,25.07-25.71,0-46.63-20.93-46.63-46.64s20.92-46.63,46.63-46.63c17.93,0,33.51,10.19,41.32,25.07l15.59-15.78c-12.17-18.5-33.09-30.75-56.91-30.75-37.61,0-68.1,30.49-68.1,68.1s30.49,68.1,68.1,68.1c23.81,0,44.73-12.23,56.91-30.74l-15.59-15.78Z"/>
        <path class="cls-3" d="m153.1,279.66c0,38.67,31.46,70.14,70.13,70.14,23.66,0,45.57-11.85,58.6-31.67l.91-1.37-18.7-18.92-1.29,2.45c-7.75,14.8-22.9,23.98-39.52,23.98-24.6,0-44.6-20.01-44.6-44.61s20-44.6,44.6-44.6c16.62,0,31.76,9.19,39.52,23.98l1.29,2.45,18.7-18.93-.91-1.37c-13.03-19.82-34.95-31.66-58.6-31.66-38.66,0-70.13,31.45-70.13,70.12Z"/>
        <path class="cls-5" d="m264.55,301.23c-7.8,14.88-23.38,25.07-41.31,25.07-25.71,0-46.63-20.93-46.63-46.64s20.92-46.63,46.63-46.63c17.93,0,33.51,10.19,41.31,25.07l15.59-15.78c-12.17-18.5-33.09-30.75-56.91-30.75-37.61,0-68.1,30.49-68.1,68.1s30.49,68.1,68.1,68.1c23.81,0,44.74-12.23,56.91-30.74l-15.59-15.78Z"/>
      </g>
    </g>
  </g>
</svg>