<?xml version="1.0" encoding="UTF-8"?>
<svg id="Layer_2" data-name="Layer 2" xmlns="http://www.w3.org/2000/svg" viewBox="0 0 425.19 425.19">
  <defs>
    <style>
      .cls-1 {
        fill: #279042;
      }

      .cls-1, .cls-2 {
        fill-rule: evenodd;
        stroke-width: 0px;
      }

      .cls-2 {
        fill: #fff;
      }
    </style>
  </defs>
  <g id="Layer_1-2" data-name="Layer 1">
    <g>
      <path class="cls-1" d="m212.6,0c117.39,0,212.6,95.2,212.6,212.6s-95.2,212.6-212.6,212.6S0,329.99,0,212.6,95.2,0,212.6,0h0Z"/>
      <path class="cls-2" d="m212.6,4.28c115.03,0,208.31,93.28,208.31,208.31s-93.28,208.31-208.31,208.31S4.28,327.63,4.28,212.6,97.57,4.28,212.6,4.28h0Z"/>
      <path class="cls-1" d="m211.93,43.29c93.77,0,169.8,76.04,169.8,169.8s-76.04,169.81-169.8,169.81S42.12,306.86,42.12,213.09,118.16,43.29,211.93,43.29h0Z"/>
      <path class="cls-2" d="m211.93,47.57c91.4,0,165.51,74.12,165.51,165.52s-74.12,165.52-165.51,165.52S46.41,304.49,46.41,213.09,120.53,47.57,211.93,47.57h0Z"/>
      <path class="cls-1" d="m38.09,175.8c-.34,1.39-.86,2.62-1.56,3.69-.69,1.07-1.55,1.94-2.57,2.58-1.02.65-2.19,1.06-3.52,1.23-1.33.17-2.79.06-4.38-.33-1.48-.36-2.76-.91-3.86-1.65-1.09-.74-1.98-1.63-2.63-2.69-.63-1.02-1.03-2.18-1.18-3.49-.16-1.31-.07-2.68.28-4.1.19-.79.41-1.49.65-2.1.24-.61.5-1.16.77-1.67.29-.52.6-.98.91-1.39.3-.41.59-.76.84-1.07l4.53,1.11-.13.55c-.26.18-.57.42-.93.71-.36.29-.73.62-1.11,1.01-.38.4-.73.84-1.04,1.33-.32.49-.54,1.04-.69,1.65-.16.68-.22,1.34-.15,2.01.07.66.29,1.31.65,1.95.35.61.89,1.16,1.6,1.66.71.5,1.63.88,2.75,1.16,1.17.28,2.19.36,3.06.22.87-.14,1.59-.41,2.16-.8.59-.4,1.05-.89,1.4-1.46.35-.58.6-1.18.75-1.78.14-.59.2-1.19.16-1.81-.03-.62-.15-1.2-.33-1.76-.15-.47-.31-.92-.5-1.34-.19-.42-.36-.76-.5-1.04l.12-.5,4.47,1.09c.09.52.18,1.02.26,1.48.08.47.13.96.15,1.46.03.65.02,1.26-.02,1.82-.04.55-.17,1.3-.4,2.24h0Z"/>
      <path class="cls-1" d="m45.28,149.38l-1.61,4.69-8.02-2.76-2.38,6.92,8.01,2.76-1.61,4.69-18.19-6.26,1.62-4.69,6.65,2.29,2.39-6.92-6.66-2.29,1.62-4.69,18.18,6.27Z"/>
      <path class="cls-1" d="m51.26,136.25l-4.76,10.21-3.09-1.44,1.34-2.86-11.25-5.25-1.33,2.86-3.09-1.44,4.76-10.21,3.09,1.44-1.34,2.85,11.25,5.25,1.33-2.86,3.09,1.44Z"/>
      <path class="cls-1" d="m57.21,125.29c-.72,1.23-1.56,2.27-2.53,3.11-.96.84-2.03,1.42-3.19,1.76-1.16.34-2.4.4-3.72.19-1.32-.21-2.69-.73-4.11-1.55-1.32-.76-2.4-1.65-3.25-2.66-.84-1.02-1.44-2.12-1.77-3.32-.32-1.15-.38-2.38-.16-3.68.21-1.3.69-2.59,1.42-3.86.41-.7.81-1.31,1.21-1.83.41-.51.81-.98,1.21-1.38.43-.41.85-.78,1.26-1.08.41-.31.78-.57,1.1-.79l4.04,2.33-.29.49c-.3.1-.66.24-1.09.42-.43.17-.88.39-1.36.66-.47.27-.93.6-1.37.98-.44.38-.81.84-1.13,1.39-.35.6-.59,1.23-.71,1.88-.12.66-.1,1.34.07,2.06.17.68.53,1.37,1.07,2.04.55.68,1.32,1.3,2.32,1.88,1.05.61,2,.96,2.88,1.07.87.11,1.64.05,2.3-.16.67-.22,1.26-.56,1.75-1.01.5-.46.91-.96,1.22-1.51.3-.52.52-1.08.66-1.68.14-.6.19-1.19.18-1.78,0-.49-.04-.96-.11-1.42-.06-.45-.13-.83-.19-1.14l.26-.45,3.99,2.3c-.06.52-.11,1.03-.16,1.5-.06.48-.15.95-.27,1.44-.16.63-.33,1.21-.52,1.74-.2.52-.53,1.21-1.02,2.04h0Z"/>
      <path class="cls-1" d="m71.88,102.61l-2.91,4.01-6.86-4.98-4.3,5.93,6.86,4.98-2.91,4.01-15.56-11.3,2.92-4.01,5.69,4.14,4.31-5.93-5.69-4.14,2.91-4.01,15.56,11.3Z"/>
      <path class="cls-1" d="m83.91,88.7l-9.18,10.45-14.45-12.7,9.18-10.45,2.79,2.46-5.93,6.74,2.5,2.19,5.5-6.26,2.8,2.46-5.5,6.26,3.57,3.14,5.92-6.75,2.8,2.46Z"/>
      <path class="cls-1" d="m93.7,71.34c1.29,1.39,1.75,3.06,1.38,5.02-.36,1.96-1.56,3.88-3.57,5.76-1.17,1.09-2.28,1.93-3.33,2.54-1.06.6-2.11,1.1-3.16,1.49l-3.15-3.37.4-.37c1.31-.1,2.57-.43,3.8-.97,1.23-.54,2.27-1.22,3.13-2.02.22-.21.49-.49.82-.86.32-.38.56-.71.7-1.01.17-.37.26-.73.29-1.07.02-.34-.12-.67-.43-1-.29-.31-.67-.45-1.14-.43-.47.02-1.01.21-1.63.56-.64.37-1.31.76-2.01,1.21-.69.44-1.38.81-2.05,1.13-1.54.71-2.88.99-4.02.82-1.13-.17-2.16-.75-3.07-1.73-1.22-1.31-1.63-2.93-1.23-4.85.4-1.92,1.53-3.75,3.37-5.46.93-.86,1.93-1.63,3-2.29,1.07-.66,2.06-1.17,2.98-1.51l3.02,3.24-.39.36c-.99.08-2.04.34-3.15.81-1.1.46-2.09,1.09-2.94,1.89-.3.28-.58.59-.84.9-.26.32-.48.67-.65,1.04-.16.32-.24.66-.24,1.02,0,.36.12.66.35.9.34.37.75.53,1.22.46.47-.06,1.17-.38,2.11-.95.61-.37,1.21-.73,1.77-1.07.57-.34,1.22-.68,1.93-1.02,1.41-.65,2.65-.91,3.73-.79,1.08.13,2.07.68,2.98,1.65h0Z"/>
      <path class="cls-1" d="m102.39,52.51l-4.74,3.7,9.55,12.23-3.91,3.05-9.56-12.23-4.73,3.7-2.29-2.93,13.38-10.45,2.29,2.93Z"/>
      <path class="cls-1" d="m125.93,56.52l-11.8,7.37-10.19-16.31,11.8-7.38,1.97,3.15-7.61,4.76,1.76,2.82,7.07-4.41,1.97,3.16-7.07,4.41,2.52,4.03,7.61-4.76,1.97,3.16Z"/>
      <path class="cls-1" d="m133.11,38.37c-.22-.44-.48-.76-.81-.99-.33-.22-.75-.31-1.27-.28-.36.02-.75.12-1.16.29-.42.17-.89.38-1.43.64l-1.61.79,2.27,4.66,1.37-.67c.71-.35,1.29-.68,1.74-.98.45-.3.77-.66.97-1.06.19-.4.29-.77.29-1.13,0-.36-.11-.78-.35-1.27h0Zm12.8,8.6l-5.44,2.66-7.81-4.04-2.06,1,3.09,6.34-4.44,2.16-8.43-17.29,7.47-3.65c1.02-.5,1.93-.87,2.72-1.11.79-.25,1.61-.33,2.44-.25.84.07,1.6.32,2.28.75.68.43,1.25,1.11,1.7,2.03.63,1.28.84,2.47.64,3.56-.2,1.09-.72,2.18-1.55,3.25l9.38,4.59Z"/>
      <path class="cls-1" d="m163.85,41.64c-1.38.37-2.71.51-3.99.42-1.27-.09-2.44-.43-3.5-1.01-1.05-.58-1.98-1.41-2.76-2.49-.79-1.08-1.39-2.41-1.82-3.99-.39-1.47-.53-2.87-.42-4.18.12-1.32.48-2.52,1.09-3.6.59-1.04,1.41-1.95,2.48-2.71,1.07-.77,2.31-1.35,3.73-1.73.78-.21,1.5-.36,2.15-.44.65-.08,1.27-.12,1.84-.13.6,0,1.15.05,1.66.13.51.07.95.14,1.34.22l1.22,4.5-.55.15c-.28-.14-.64-.3-1.07-.47-.43-.18-.9-.34-1.43-.49-.52-.14-1.08-.23-1.66-.27-.58-.04-1.17.02-1.78.19-.67.18-1.28.46-1.84.84-.55.38-1.01.88-1.4,1.51-.36.61-.59,1.34-.68,2.2-.09.87.01,1.85.31,2.96.32,1.17.74,2.09,1.28,2.79.54.69,1.12,1.2,1.74,1.51.63.32,1.29.5,1.96.52.68.03,1.32-.04,1.93-.21.59-.16,1.14-.39,1.66-.72.52-.33.99-.71,1.38-1.14.34-.36.65-.71.93-1.08.27-.37.5-.68.67-.95l.5-.13,1.2,4.44c-.41.33-.8.65-1.18.95-.38.3-.78.57-1.21.84-.56.34-1.09.62-1.6.86-.51.23-1.23.48-2.16.73h0Z"/>
      <path class="cls-1" d="m183.85,36.8l-11.05,2.21-.67-3.34,3.09-.62-2.43-12.18-3.09.62-.67-3.34,11.05-2.21.67,3.34-3.09.62,2.43,12.18,3.09-.62.67,3.34Z"/>
      <path class="cls-1" d="m200.6,19.55l-5.99.48,1.24,15.46-4.94.4-1.25-15.47-5.98.48-.3-3.71,16.92-1.36.3,3.7Z"/>
      <path class="cls-1" d="m221.52,15.5l-6.93,11.89.1,7.44-4.96.07-.1-7.21-7.37-11.92,5.63-.08,4.26,7.38,3.91-7.49,5.45-.07Z"/>
      <path class="cls-1" d="m248.03,22.47l-8.75-1.31-.53,3.54,8.11,1.21-.55,3.68-8.11-1.21-1.21,8.12-4.88-.73,2.84-19.02,13.63,2.04-.55,3.68Z"/>
      <path class="cls-1" d="m269.28,33.63c-.65,3-2.03,5.19-4.13,6.58-2.1,1.39-4.66,1.75-7.69,1.09-3.02-.66-5.2-2.06-6.53-4.19-1.33-2.14-1.67-4.7-1.02-7.7.66-3.02,2.03-5.22,4.13-6.6,2.1-1.38,4.66-1.74,7.68-1.08,3.01.66,5.19,2.05,6.53,4.18,1.34,2.13,1.69,4.7,1.03,7.72h0Zm-7.46,3.36c.59-.47,1.09-1.07,1.49-1.8.4-.73.71-1.62.94-2.67.25-1.12.32-2.11.23-2.97-.09-.84-.29-1.56-.6-2.14-.32-.6-.74-1.07-1.24-1.42-.51-.35-1.07-.59-1.68-.72-.62-.13-1.22-.15-1.81-.05-.59.1-1.17.35-1.73.76-.53.38-1.01.96-1.46,1.73-.44.77-.79,1.7-1.02,2.8-.24,1.12-.33,2.1-.24,2.95.09.84.28,1.55.59,2.15.32.59.73,1.06,1.24,1.42.52.36,1.08.61,1.7.74.62.14,1.24.14,1.86.03.62-.12,1.19-.38,1.72-.79h0Z"/>
      <path class="cls-1" d="m290.63,42.26c-1.11,2.86-2.82,4.81-5.11,5.85-2.29,1.04-4.88,1-7.77-.12-2.88-1.12-4.81-2.85-5.8-5.16-.98-2.32-.91-4.91.2-7.77,1.12-2.88,2.83-4.84,5.11-5.87,2.29-1.04,4.88-.99,7.76.13,2.87,1.12,4.8,2.84,5.79,5.15,1,2.31.93,4.91-.19,7.79h0Zm-7.9,2.15c.66-.37,1.25-.89,1.75-1.54.51-.66.95-1.49,1.35-2.49.42-1.07.65-2.04.7-2.89.05-.85-.04-1.59-.26-2.21-.22-.64-.56-1.17-1-1.6-.45-.43-.97-.75-1.54-.98-.59-.23-1.18-.34-1.77-.33-.6,0-1.21.16-1.83.48-.58.29-1.14.78-1.71,1.48-.56.69-1.04,1.56-1.45,2.6-.42,1.07-.65,2.02-.7,2.87-.05.84.04,1.58.25,2.21.22.63.55,1.16,1,1.6.45.43.97.77,1.56,1,.59.23,1.2.34,1.83.32.63-.02,1.23-.19,1.82-.52h0Z"/>
      <path class="cls-1" d="m310.33,46.36l-5.28-2.87-7.4,13.64-4.36-2.37,7.4-13.64-5.28-2.86,1.77-3.27,14.92,8.1-1.77,3.26Z"/>
      <path class="cls-1" d="m321.57,65.88c-.54.76-1.17,1.33-1.89,1.71-.73.38-1.5.58-2.32.6-.95.02-1.86-.13-2.74-.46-.88-.32-1.89-.89-3.03-1.7l-6.85-4.85,11.11-15.7,6.09,4.32c1.27.89,2.16,1.59,2.69,2.09.53.5.98,1.1,1.35,1.79.39.73.54,1.45.47,2.16-.07.72-.34,1.41-.8,2.06-.54.76-1.21,1.29-2.02,1.59-.81.3-1.7.35-2.66.15l-.06.08c.89.93,1.4,1.93,1.55,3,.15,1.07-.15,2.12-.89,3.17h0Zm-.62-10.12c.18-.26.3-.56.36-.92.05-.35-.04-.71-.28-1.07-.21-.32-.54-.65-.98-.97-.43-.32-1.04-.77-1.84-1.33l-.38-.27-2.35,3.32.64.45c.64.45,1.19.83,1.65,1.13.46.3.87.48,1.21.54.48.09.87.05,1.16-.12.3-.18.56-.43.8-.77h0Zm-3.53,7.09c.35-.5.53-.95.52-1.36,0-.41-.19-.84-.55-1.3-.25-.32-.65-.68-1.2-1.08-.55-.4-1.12-.81-1.73-1.24l-.89-.63-2.77,3.91.3.21c1.14.8,1.96,1.38,2.45,1.72.5.34,1.01.57,1.55.69.55.12,1,.09,1.37-.09.37-.18.68-.46.95-.84h0Z"/>
      <path class="cls-1" d="m333.93,84.34l-3.83-3.42,1.6-3.79-5.32-4.75-3.59,2.01-3.73-3.33,18.12-9.6,4.26,3.81-7.52,19.07Zm-.77-10.63l2.83-6.72-6.36,3.57,3.53,3.15Z"/>
      <path class="cls-1" d="m345.05,95.77l-9.37-10.23,14.18-13,3.35,3.66-11.44,10.48,6.02,6.57-2.74,2.52Z"/>
      <path class="cls-1" d="m355.55,108.66l-8.73-10.78,14.95-12.1,3.12,3.85-12.05,9.76,5.61,6.93-2.89,2.34Z"/>
      <path class="cls-1" d="m365.41,125.27c-.66-1.27-1.09-2.53-1.28-3.8-.19-1.27-.12-2.48.22-3.64.34-1.16.95-2.24,1.82-3.24.89-1,2.05-1.89,3.5-2.65,1.35-.71,2.68-1.14,3.99-1.32,1.31-.17,2.56-.08,3.75.28,1.14.35,2.21.96,3.19,1.83.99.88,1.82,1.96,2.5,3.26.38.72.68,1.38.9,2,.22.62.39,1.21.52,1.77.13.58.2,1.13.24,1.64.04.51.07.96.08,1.36l-4.13,2.17-.26-.5c.07-.31.15-.69.23-1.15.08-.46.14-.95.16-1.5.02-.54-.01-1.11-.1-1.68-.09-.58-.28-1.14-.57-1.7-.33-.62-.72-1.15-1.21-1.61-.49-.45-1.08-.8-1.78-1.04-.67-.22-1.44-.28-2.3-.18-.87.09-1.81.41-2.83.95-1.07.56-1.88,1.18-2.44,1.86-.55.68-.92,1.36-1.09,2.03-.18.69-.2,1.36-.08,2.03.12.67.33,1.28.62,1.84.28.53.64,1.02,1.07,1.46.43.44.91.8,1.41,1.1.42.26.84.48,1.26.67.42.19.77.34,1.07.45l.24.46-4.07,2.14c-.41-.32-.81-.64-1.18-.94-.38-.31-.73-.63-1.08-1-.45-.47-.85-.93-1.19-1.37-.34-.45-.73-1.09-1.18-1.95h0Z"/>
      <path class="cls-1" d="m376.4,146.91l-5.82-12.59,17.46-8.07,2.08,4.5-14.08,6.51,3.74,8.09-3.38,1.56Z"/>
      <path class="cls-1" d="m389.23,162.87c-2.26.73-4.21.61-5.86-.38-1.65-.98-2.91-2.82-3.79-5.49-.87-2.68-.93-4.9-.17-6.66.76-1.76,2.26-3.01,4.52-3.74l11.68-3.8,1.54,4.74-11.41,3.71c-1.27.41-2.13.98-2.58,1.72-.45.74-.48,1.7-.09,2.9.38,1.18.97,1.94,1.74,2.29.78.35,1.82.31,3.14-.12l11.41-3.71,1.54,4.75-11.67,3.79Z"/>
      <path class="cls-1" d="m392.91,183.74c-.91.19-1.76.17-2.56-.05-.79-.22-1.49-.61-2.09-1.15-.7-.63-1.27-1.37-1.69-2.21-.42-.84-.77-1.95-1.04-3.32l-1.68-8.23,18.85-3.84,1.49,7.32c.31,1.52.49,2.64.53,3.37.04.72-.04,1.47-.24,2.23-.22.79-.6,1.42-1.14,1.9-.54.48-1.21.8-1.99.95-.91.19-1.76.11-2.56-.23-.8-.34-1.48-.91-2.05-1.71l-.1.02c0,1.28-.3,2.37-.93,3.24-.62.88-1.56,1.45-2.82,1.7h0Zm6.48-7.8c.31-.06.61-.21.89-.43.28-.22.45-.54.53-.97.06-.38.04-.84-.05-1.38-.09-.53-.23-1.27-.43-2.22l-.09-.45-3.99.81.16.76c.16.76.3,1.42.43,1.96.14.53.31.94.52,1.23.28.4.59.63.93.71.34.07.71.07,1.11-.01h0Zm-7.43,2.75c.6-.12,1.03-.33,1.31-.63.28-.3.45-.74.49-1.33.03-.4-.02-.94-.14-1.61-.12-.67-.26-1.36-.41-2.09l-.22-1.06-4.7.96.07.35c.28,1.37.48,2.35.61,2.94.13.59.35,1.11.66,1.56.32.46.66.75,1.05.87.39.12.81.13,1.27.04h0Z"/>
      <path class="cls-1" d="m107.63,382.46l-11.13-7.12,9.84-15.39,11.13,7.12-1.9,2.97-7.18-4.59-1.7,2.66,6.67,4.26-1.91,2.98-6.66-4.26-2.43,3.8,7.18,4.59-1.9,2.98Z"/>
      <path class="cls-1" d="m123.35,386.44c-.71,1.24-1.84,1.91-3.38,2.02-1.54.12-3.27-.38-5.19-1.49-1.06-.61-1.96-1.27-2.71-1.96-.75-.7-1.32-1.32-1.71-1.86l1.82-3.15.35.2c.12.25.25.52.41.83.16.3.42.68.77,1.13.3.39.67.79,1.11,1.2.43.41.94.78,1.51,1.11.75.43,1.36.67,1.81.71.46.04.78-.1.97-.43.17-.29.18-.56.04-.82-.13-.25-.46-.61-.99-1.08-.25-.23-.59-.52-1.03-.87-.44-.36-.83-.7-1.16-1.04-.92-.91-1.47-1.82-1.65-2.71-.18-.9-.01-1.8.5-2.69.66-1.15,1.76-1.79,3.29-1.92,1.52-.14,3.23.34,5.12,1.43.89.51,1.69,1.1,2.41,1.75.71.66,1.24,1.22,1.58,1.69l-1.74,3.02-.33-.19c-.34-.72-.81-1.41-1.39-2.07-.59-.66-1.25-1.21-1.99-1.64-.62-.36-1.19-.57-1.71-.64-.52-.07-.87.05-1.05.36-.16.29-.19.55-.09.82.11.26.47.67,1.09,1.22.35.3.72.62,1.12.96.41.33.81.69,1.19,1.06.86.84,1.36,1.68,1.52,2.52.15.84-.01,1.69-.5,2.53h0Z"/>
      <path class="cls-1" d="m132.25,395.16c-.48-.09-.98-.22-1.49-.38-.51-.16-1.11-.41-1.81-.73-1.55-.72-2.57-1.58-3.03-2.56-.46-.99-.34-2.24.37-3.77l2.72-5.84-1.65-.77,1.27-2.71,1.65.77,1.66-3.57,4,1.86-1.66,3.57,3.75,1.75-1.27,2.72-3.75-1.75-2.06,4.43c-.2.44-.38.82-.52,1.15-.14.33-.22.65-.23.96-.02.31.07.6.26.88.19.27.54.53,1.05.76.21.1.5.18.88.25.38.07.65.1.82.08l.34.16-1.28,2.75Z"/>
      <path class="cls-1" d="m144.24,395.77l.91-2.73c-.58-.14-1.21-.28-1.9-.42-.69-.14-1.22-.21-1.6-.22-.46,0-.85.08-1.15.26-.31.18-.53.47-.67.88-.09.27-.14.5-.15.69-.01.19.05.39.18.6.13.21.3.4.53.55.22.16.6.32,1.12.5.42.14.87.2,1.36.18.49-.03.94-.13,1.36-.3h0Zm-.68,2.02c-.28.1-.63.21-1.05.34-.42.12-.79.21-1.13.25-.48.05-.95.04-1.42-.02-.48-.06-.98-.18-1.5-.35-1.24-.41-2.15-1.15-2.74-2.2-.58-1.05-.67-2.17-.27-3.36.32-.96.79-1.66,1.42-2.12.63-.46,1.39-.74,2.29-.83.89-.09,1.94-.01,3.14.23,1.2.23,2.43.52,3.68.87l.02-.07c.24-.72.11-1.32-.39-1.79-.5-.47-1.32-.9-2.47-1.29-.69-.23-1.46-.35-2.33-.38-.87-.01-1.49-.01-1.88,0l-.38-.13,1.05-3.15c.48.03,1.25.13,2.3.31,1.05.17,2.07.43,3.07.76,2.38.8,3.98,1.74,4.79,2.82.81,1.09.96,2.41.43,3.99l-2.97,8.89-4.16-1.39.46-1.39Z"/>
      <path class="cls-1" d="m166.77,399.7c-.57,2.09-1.62,3.63-3.14,4.63-1.52,1-3.14,1.26-4.86.79-.75-.2-1.38-.46-1.89-.77-.52-.31-.98-.69-1.41-1.12l-.36.61-4.08-1.12,5.07-18.41,4.26,1.18-1.79,6.51c.8-.34,1.58-.58,2.35-.72.77-.13,1.61-.08,2.5.17,1.68.46,2.8,1.42,3.38,2.88.57,1.46.57,3.25-.02,5.39h0Zm-4.41-1.13c.33-1.18.38-2.14.15-2.9-.22-.75-.86-1.27-1.89-1.55-.4-.11-.83-.16-1.29-.16-.46,0-.92.07-1.36.19l-1.84,6.67c.28.2.55.35.82.47.26.11.59.22.98.33,1.12.31,2.06.21,2.79-.3.73-.51,1.29-1.43,1.65-2.75h0Z"/>
      <path class="cls-1" d="m172.64,407.57l-4.33-.89,3.84-18.7,4.33.89-3.84,18.7Z"/>
      <path class="cls-1" d="m181.17,409.28l-4.35-.77,2.4-13.57,4.35.76-2.39,13.57Zm2.85-15.49l-4.59-.81.58-3.3,4.59.81-.58,3.3Z"/>
      <path class="cls-1" d="m197.95,406.97c-.17,1.41-.94,2.48-2.31,3.19-1.37.71-3.16.93-5.36.67-1.21-.15-2.3-.4-3.26-.74-.97-.35-1.73-.69-2.3-1.05l.44-3.61.4.05c.2.18.43.38.7.6s.65.46,1.16.74c.43.24.93.46,1.49.66.55.21,1.17.35,1.82.43.86.11,1.51.09,1.95-.05.43-.14.68-.4.72-.77.04-.33-.05-.59-.28-.77-.22-.18-.67-.38-1.34-.6-.31-.11-.75-.25-1.29-.39-.55-.16-1.04-.32-1.48-.5-1.2-.48-2.06-1.09-2.58-1.85-.52-.76-.72-1.65-.59-2.67.16-1.32.91-2.34,2.27-3.06,1.35-.72,3.1-.95,5.26-.69,1.02.13,1.99.35,2.9.67.91.32,1.62.63,2.12.93l-.42,3.46-.38-.05c-.59-.53-1.29-.98-2.09-1.36-.8-.38-1.63-.62-2.48-.73-.71-.09-1.31-.06-1.82.08-.5.13-.78.38-.82.74-.04.32.04.59.24.79.2.2.69.43,1.49.7.44.14.91.29,1.41.44.5.14,1.01.32,1.51.51,1.11.44,1.91,1.01,2.38,1.73.48.72.65,1.56.54,2.52h0Z"/>
      <path class="cls-1" d="m214.46,411.61l-4.44-.16.24-6.83c.02-.55,0-1.11-.03-1.66-.04-.55-.12-.96-.25-1.23-.15-.31-.38-.54-.69-.69-.31-.15-.75-.23-1.31-.25-.4-.01-.81.04-1.23.15-.42.12-.87.31-1.36.58l-.34,9.76-4.42-.15.67-19.08,4.41.16-.24,6.83c.8-.58,1.57-1.03,2.31-1.33.74-.3,1.55-.44,2.43-.41,1.48.05,2.63.53,3.44,1.42.81.89,1.18,2.2,1.12,3.93l-.31,8.96Z"/>
      <path class="cls-1" d="m232.12,404.04l-10.07.88c.16,1.07.64,1.86,1.45,2.36.8.5,1.94.69,3.41.57.93-.08,1.81-.33,2.66-.74.84-.41,1.5-.83,1.97-1.26l.49-.04.31,3.53c-.96.49-1.87.85-2.73,1.11-.87.25-1.83.43-2.9.53-2.75.24-4.92-.2-6.49-1.3-1.57-1.11-2.46-2.81-2.66-5.1-.2-2.27.34-4.12,1.61-5.57,1.27-1.44,3.12-2.27,5.54-2.49,2.23-.19,3.96.23,5.18,1.25,1.23,1.04,1.93,2.6,2.11,4.73l.13,1.54Zm-4.6-2.2c-.1-.92-.39-1.59-.87-2.02-.47-.43-1.16-.6-2.07-.52-.85.07-1.52.35-2.03.84-.51.48-.75,1.22-.74,2.2l5.71-.5Z"/>
      <path class="cls-1" d="m249.37,407.43l-4.36.71-.24-1.42c-.65.74-1.28,1.3-1.89,1.7-.6.4-1.34.67-2.19.81-1.65.27-3.08-.15-4.29-1.26-1.2-1.11-1.98-2.75-2.33-4.91-.19-1.15-.19-2.2,0-3.15.19-.95.52-1.79,1-2.52.45-.69,1.04-1.27,1.77-1.74.73-.46,1.48-.76,2.27-.89.82-.13,1.49-.15,2.04-.07.55.09,1.12.22,1.71.4l-.94-5.79,4.35-.71,3.09,18.84Zm-4.97-3.04l-1.09-6.67c-.33-.08-.67-.12-1.02-.12-.35,0-.66.02-.94.07-1.15.19-1.95.69-2.4,1.5-.46.81-.58,1.85-.38,3.11.22,1.33.6,2.26,1.16,2.79.56.52,1.35.7,2.36.54.39-.07.8-.21,1.22-.43.42-.22.78-.48,1.08-.78h0Z"/>
      <path class="cls-1" d="m274.84,400.29l-11.66,3.59-.94-3.05,3.68-1.13-2.84-9.23-3.68,1.13-.87-2.85c.56-.17,1.09-.38,1.59-.6.5-.23.89-.47,1.18-.74.35-.32.57-.67.68-1.04.11-.38.1-.8,0-1.28l3.88-1.19,4.45,14.46,3.6-1.11.94,3.05Z"/>
      <path class="cls-1" d="m290.93,388.36c.61,1.5.46,2.99-.43,4.46-.89,1.47-2.45,2.66-4.68,3.56-1.25.51-2.38.81-3.38.91-1,.11-1.88.05-2.65-.17-.76-.21-1.4-.57-1.92-1.05-.52-.49-.92-1.08-1.19-1.77-.34-.85-.4-1.7-.17-2.56.23-.85.86-1.78,1.88-2.77l-.03-.07c-1.17-.05-2.12-.33-2.87-.84-.74-.5-1.3-1.21-1.66-2.12-.54-1.34-.37-2.69.53-4.06.9-1.36,2.34-2.44,4.34-3.25,2.09-.84,3.89-1.12,5.39-.82,1.5.3,2.51,1.1,3.03,2.4.32.8.37,1.62.12,2.45-.25.83-.79,1.68-1.65,2.53l.03.07c1.37-.03,2.48.22,3.36.75.88.53,1.52,1.31,1.94,2.34h0Zm-7.86-5.93c-.23-.58-.64-.95-1.22-1.11-.58-.16-1.24-.09-1.97.2-.28.11-.54.26-.8.44-.26.18-.48.39-.66.61-.17.22-.28.46-.34.73-.06.27-.03.54.07.8.18.45.45.75.81.89.35.15.87.23,1.55.25.25,0,.59,0,1-.01.42-.02.93-.05,1.52-.1.19-.55.29-1.02.31-1.4.02-.39-.06-.82-.26-1.3h0Zm3.59,7.88c-.22-.55-.52-.9-.91-1.07-.39-.17-1.08-.27-2.08-.29-.29-.02-.71,0-1.26.02-.54.02-1,.04-1.38.05-.21.43-.36.9-.44,1.43-.09.53-.04,1.06.18,1.58.32.79.85,1.3,1.61,1.53.75.24,1.59.18,2.5-.19.24-.1.51-.25.8-.45.3-.21.54-.43.71-.68.2-.29.34-.57.41-.88.07-.3.03-.65-.14-1.06h0Z"/>
      <path class="cls-1" d="m301.69,371.82l-.43,16.8-4.64,2.46.65-17.07-8.28,4.41-1.64-3.09,12.64-6.72,1.7,3.21Z"/>
      <path class="cls-1" d="m318.48,368.56c.52.08,1.01.25,1.45.5.44.26.87.71,1.28,1.36.46.72.74,1.49.85,2.31.11.81,0,1.63-.3,2.45-.3.8-.78,1.57-1.41,2.3-.64.73-1.52,1.45-2.64,2.15-1.28.81-2.44,1.4-3.48,1.78-1.05.38-1.93.63-2.67.74l-2.14-3.39.4-.25c.82-.02,1.73-.15,2.72-.41.99-.26,1.83-.61,2.52-1.04.4-.25.82-.56,1.25-.92.43-.37.73-.76.92-1.19.14-.33.22-.67.22-1.01,0-.34-.15-.75-.45-1.21-.29-.44-.61-.73-.97-.84-.36-.11-.75-.12-1.15,0-.41.11-.85.3-1.34.59-.48.29-.93.56-1.34.82l-.85.54-1.74-2.76.88-.55c.53-.34,1-.66,1.39-.96.39-.29.7-.6.91-.91.22-.33.34-.64.35-.96.02-.31-.11-.68-.38-1.11-.2-.31-.44-.51-.72-.6-.28-.09-.57-.11-.89-.07-.35.04-.72.16-1.11.35-.39.19-.72.37-.98.53-.65.41-1.29.97-1.9,1.68-.62.7-1.15,1.49-1.6,2.37l-.38.24-2.12-3.35c.42-.59,1.06-1.29,1.89-2.12.85-.82,1.77-1.55,2.77-2.19.98-.62,1.88-1.07,2.72-1.37.84-.3,1.59-.45,2.25-.47.78-.02,1.46.12,2.04.43.58.31,1.08.79,1.49,1.44.54.86.76,1.79.66,2.8-.11,1.01-.54,1.89-1.29,2.62l.09.14c.39-.17.82-.32,1.3-.42.49-.1.98-.12,1.48-.05h0Z"/>
      <path class="cls-1" d="m176.25,226.18l35-16.96v13.6l-18.01,8.71c-2.5,1.21-2.58,2.54-2.58,5.31v81.54c0,2.53.81,3.51,3.35,3.51h17.78v11.09h-32.38c-5.05,0-9.78-8.54-9.78-12.95v-79.42c0-5.3.21-11.31,6.63-14.43h0Z"/>
      <path class="cls-1" d="m270.17,235.11l35.35,18.03v13.06l-16.91-8.93c-3.16-1.67-3.51-.41-3.51,3.13v57.97c0,2.53.63,3.51,3.17,3.51h17.42v11.09h-31.49c-5.05,0-10.32-5.86-10.32-10.28v-82.09c0-5.3.87-8.26,6.28-5.5h0Z"/>
      <path class="cls-1" d="m259.04,230.07v13.06l-21.62-11.27v35.28h19.7v10.55h-19.7v55.26h-21.72v-124.54l43.34,21.66Z"/>
      <path class="cls-1" d="m132.34,247.45l33.2-16.1v13.42l-18.37,8.89c-2.5,1.21-2.58,2.54-2.58,5.31v59.4c0,2.53.81,3.51,3.35,3.51h17.78v11.09h-32.74c-5.05,0-9.42-7.64-9.42-12.06v-58.17c0-7.78,1.67-11.84,8.78-15.29h0Z"/>
      <path class="cls-1" d="m212.5,89.93l-14.55,121.82,15.38-7.92,14.2,7.06-15.02-120.96Z"/>
    </g>
  </g>
</svg>