<?xml version="1.0" encoding="UTF-8"?>
<svg id="Layer_2" data-name="Layer 2" xmlns="http://www.w3.org/2000/svg" viewBox="0 0 98.22 95.28">
  <defs>
    <style>
      .cls-1 {
        fill: #203c92;
      }

      .cls-1, .cls-2, .cls-3 {
        fill-rule: evenodd;
        stroke-width: 0px;
      }

      .cls-2 {
        fill: #231f20;
      }

      .cls-3 {
        fill: #ffdd15;
      }
    </style>
  </defs>
  <g id="Layer_1-2" data-name="Layer 1">
    <g>
      <path class="cls-3" d="m48.74,0h.77c6.57,2.16,13.67,3.62,21.48,3.9,7.82.26,16.32-.68,25.67-3.36l1.57-.45v1.64c0,12.98-.19,23.6-1.03,32.76-.84,9.16-2.3,16.77-4.84,23.71-3.08,8.38-9.04,15.69-15.94,21.63-8.81,7.59-19.2,12.94-26.93,15.35l-.37.1-.37-.1c-7.75-2.4-18.12-7.75-26.95-15.35-6.88-5.94-12.85-13.25-15.94-21.63-2.54-6.93-4.01-14.54-4.84-23.71C.21,25.33,0,14.7,0,1.72V.09l1.58.45c9.34,2.68,17.84,3.62,25.66,3.36,7.82-.28,14.93-1.74,21.49-3.9h0Z"/>
      <path class="cls-1" d="m49.12,2.46c-6.67,2.16-13.9,3.64-21.79,3.92-7.61.24-15.87-.59-24.86-3.03.02,12.25.23,22.31,1.01,30.92.8,8.95,2.23,16.36,4.7,23.08,2.93,7.94,8.62,14.93,15.24,20.61,8.41,7.25,18.25,12.38,25.69,14.75,7.42-2.37,17.26-7.51,25.69-14.75,6.6-5.68,12.3-12.66,15.22-20.61,2.47-6.72,3.9-14.13,4.7-23.08.78-8.6.99-18.67,1.01-30.92-8.99,2.44-17.23,3.27-24.84,3.03-7.91-.28-15.12-1.76-21.79-3.92h0Z"/>
      <path class="cls-3" d="m49.12,86.72c-16.39-8.01-25.81-17.68-30.88-29.61-5.47-12.87-5.91-28.39-5.91-46.47,13.22,2.73,26.27,1.76,36.79-2.25,10.5,4.01,23.55,4.98,36.79,2.25,0,18.08-.45,33.6-5.92,46.47-5.07,11.93-14.49,21.6-30.86,29.61h0Z"/>
      <polygon class="cls-2" points="40.03 54.55 40.22 55.09 40.41 55.04 40.51 55.37 41.21 57.45 41.21 57.48 41.44 58.51 41.75 59.43 41.77 59.45 42.12 60.62 42.15 60.77 42.07 60.91 41.49 61.85 41.46 61.9 40.83 62.57 41.02 63.11 41.72 63.26 43.08 63.51 44.21 63.51 44.66 63.21 44.7 55.95 44.64 53.2 44.63 53.21 44.52 53.25 44.24 53.28 44.16 53.77 44.14 53.86 43.91 54.29 43.77 54.45 43.11 54.81 42.94 54.85 40.92 54.78 40.83 54.78 40.03 54.55 40.03 54.55"/>
      <path class="cls-1" d="m36.98,56.24v-.07l-.23-5.05v-.02l.03-1.1-.21-1.12-.64-1.32-.16-.28-.12.33-.61,1.39-.16.16-.82.45-.12.05-1.36.14h-.14l-1.01-.31-.21-.16-.35-.61-.05-.16-.23-3.13-.35-.47-.04-.03-.35-.63-.03-.1-.23-.87.02-.23.26-.64.42-.94-.07-.33-.89-1.76-.05-.12-.04-.66.07-.24.42-.57.12-.14h.61v-.66l.02-.05.1-.66.09-.19.43-.5.14-.14.19.03.98.16.19.1.4.38.07-.05c.14-.21.5-.7,1.03-.59.5.1.64.23.64.23v.02l.5.42.12.21.42,2.39,4.65,1.97,2.79,1.13.07.05.63.45-.07-.09-.04-.04-.58-.91-.1-.16.07-.17.37-.89.05-.09.31-.38-.47-12.16.71-.09,2.11,10.9.28-.1.33-.28.07-.05.28-.14v-.87l.12-.11.05-.05-.44-.31-.12-.09-.02-.16-.09-.66v-1.24l.16-.77.07-.14.71-.96.16-.12,1.38-.61.12-.02.98-.09h.12l.71.17.16.09,1.03.87.09.09.71,1.29.05.17.05,1.27h.04l1.76-.09h.04l1.34.07.21-.28.07-.07.5-.35.11-.05.89-.24.1-.02h1.06l.63.17.17.05.07.16.35.85.02.23-.17.71-.02.45.11,1.06.03.31-.31.07-.35.07-.49.28-.73.64-.19.09-.96.07h-.09l-.24-.05.02.04.02.14-.07.14-.24.4-.12.12-3.17,2v3.48l.98.05h.02l1.6.16,1.38.16.09.02,1.59.63.09.04,1.41,1.08.04.05,2.09,2.18.09.16.99,3.8.1.09.1.16,1.36,3.61.02.02.35,1.17v.05l.24,1.29-.04.19-.45,1.17-.09.14-.91.82-.07.05-1.64.9.09,1.06-.04.19-.35.7-.11.21h-1.72v-.92l-.12-.14-1.03.85-.07.04-.66.37-.16.04h-1.62l-.26-.11-.68-.7-.05-.1-4.01-8.05-5.38.04.05,6.01-.02.1-.23.79-.07.12s-.45.61-1.08.61c-.23,0-.37.35-.37.35l-.12.16-.66.78-.57.19-.44-.14-.47-.47-.12-.12-.37-.64-1.06-.11h-.77l-.75.82-.04.03-.92.57-.52-.16-.35-.82-.07-.21.12-.16.59-.71-.02.02.17-.66-.19-1.08-.8-2.68-.02-.04-.77-3.73h0Z"/>
      <path class="cls-3" d="m37.69,56.12l.75,3.69.8,2.68.02.04.23,1.25.02.16.91.38h.92l1.27.1c.73.07,1.18.19,1.41.16.24-.02.45.04.73-.03.19-.03.31-.23.73-.23.21,0,.4-.19.49-.28l.19-.68-.07-6.32v-.35h.37l5.96-.05h.23l.09.21,4.07,8.2.54.56h1.39l.56-.3,1.24-1.03c.24-.21,1.71-.75,1.9-.87l1.81-.99.82-.75.38-.99-.21-1.15-.33-1.15-1.32-3.52-.12-.11-.12-.17-.99-3.83-2-2.07-1.34-1.04-1.5-.57-1.32-.16-1.6-.16.02.02-1.31-.09-.35-.02v-4.56l.17-.11,3.27-2.07.12-.21-.11-.44-.12-.54.54.1.71.16.8-.07.23-.19-.64.07-.21.04-.12-.17-.3-.4-.07-.17-.05-.35h-.44l-.56.63-.14.09-1.01.4-.21.12.24.16.09.1.23.33.16.23-.17.21-.49.58-.12.09-1.36.64-.49.24-.02-.56-.04-2.04-.02-.17.14-.12.28-.23v-.21l-.16-.09-.4-.07-.49-.09.23-.44.16-.33.17-.17.8-.35.12-.02,1.04-.09h.05l1.18.09c.68.14.63.05,1.41.05l.16-.63.12-.19.42-.33.21-.07h1.48l-.09-.19-.42-.12h-.89l-.78.23-.4.28-.3.38-.12.16-.17-.02-1.5-.09-1.74.09h-.77l-.02-.35-.05-1.53-.62-1.15h-.02l.07.17.07,1.46-.02.12-.42,1.2-.68-.05-.21-.91-.09-.09.04.16v1.48l.63.42.1.1.47.75v-.02l.54.82.05.24-.09,1.15v-.02l-.16,5.78.23.99,1.71.07h.02l2.75.23.1.04,1.2.54.1.07,1.83,1.67.09.12,1.2,2.68.02.02.92,2.21.35-.05.02.35.78,1.81.92,1.85.03.16v2.23l-.09.23-.58.7-.1.09-1.74.94-.52.28v-2.74l-.51-1.03-1.9-1.46-.02-.04-1.83-1.72.02.02-.89-.79-1.53-.56-.16-.05-.05-.16-.61-1.74.02.02-1.08-2.67-1.1-2.02h-.02l-.94-1.9-.59-.77-.07-.24.07-1.32-.37-.16-.12.03-.19.96-.07,1.5.45.07.54.07.19.03.07.17,3.17,6.74-.56.43-.51-.43-.09-.12-3.19-6.39-.1-.19v.07l-.14.1-.68.52-.09.05-1.15.47-.21.02-1.22-.23-.23-.16-.56-.77-.05-.23.05-1.03.04-.1.45-1.1.05-.09.31-.4.19-.12,1.08-.23,1.62-.54,1.17-.96.4-.7.12-.59-.07-.04-.23.19-.44.75-.04.05-.56.64-.09.09-.52.3-.7.56-.16.07-1.17.16h-.09l-.71-.09-.31-.04v-.31l-.02-.56v-.28l.28-.07.63-.16.02-.02,1.11-.23.98-.57.5-.73.5-.82.04-.24h-.02l-.52.3-.91,1.32-.31.47-.09.16-.17.02-.87.07-.16-.02-.4-.16-.04-.03-.17-.09-.09.1-.3.38-.28.37-.28-.35-.4-.49-.12-.16.05-.17.14-.56.07-.24.24-.02.73-.09.68-.28,1.12-1.17.09-.07.96-.58.05-.03.21-.07-.16-.02-.03-.26-.09-.5-.04-.23.19-.12.17-.12-.17-.12-.73-.5-.14-.1v-.19l-.02-.66.02-.09.09-.35.03-.21.21-.05.12-.05-.4.05.3-.59.58-1.11.17-.16.68-.3-.14.02-1.24.54-.63.82-.12.64v1.06l.05.49.68.5.38.26-.37.3-.26.23v.98l-.19.1-.44.23-.37.31-.12.05-.71.24-.38.14-.07-.4-1.32-6.76.3,7.66-.07.24-.37.45-.28.66.45.71.7.77.07.16.26.96-.58.37-1.1-.94-.84-.61-2.73-1.13-4.84-2.04-.17-.07-.04-.21-.44-2.44-.38-.33s-.1-.05-.35-.1c-.14-.02-.31.33-.31.33l-.12.12-.38.26-.23.16-.21-.21-.52-.51-.38-.07.47.49.44.44.47.12.38-.12.31-.28.56-.51.04.75.1,1.83.02.28,4.63,2.26,3.31,1.27.07.04,1.62,1.1.54.23.33.14-.16.35-.4.85.02.87v.68l-.05.21-3.07,4.91-.07.07-1.24,1.17.02-.02-.26.26.14.12.47.14.28-.33.91-1.1,1.1-1.48,1.39-1.85.64-1.25.16-.31.31.16.77.38.35.17-.19.33-1.24,2.07-.44,1.24-.07.21-.21.03-.91.12-.23.33-.19.66-.12.59-.05.21h.09l.47-.26.14-.3.12-.68.05-.26.24-.03.49-.07.49-.21.52-1.43.04-.05,1.5-2.4.09-.16.19-.02,1.15-.07.7-.35.31-.16.16.33,2.18,4.34.26.52h-.71l1.29,2.93.21.5h-7.11l.02-.38.09-2.51-.38.02.05,2.51-.05,7.47v.19l-.16.1-.7.45-.19.05h-1.32l-1.39-.24h-.02l-.91-.21-.17-.04-.07-.19-.35-.94-.09-.21.16-.16.77-.8.47-.77-.3-1.01v.02l-.19-.57.09,1.12v.09l-.1.82-.04.19-.16.09-.7.35-.35.17-.14-.37-.58-1.39-.03-.09-.23-1.62-.7-2.19-.02-.1-.1-4.15-.09-1.9-.45-1.9-.82-1.86-.68-1.06-.51-.16-.28.03-.38.65-.09.71-.02.07-.26.84-.19.68-.09.16-.35.38-.23.11-.84.09-.26.02-.09-.24-.38-.92-.04-.14s0-1.34.09-1.62c.02-.14.02-.56,0-.78l-.4-.37-.04-.03-.59-.7-.09-.21-.04-.73.05-.23.64-.92-.03-.47-.63-1.39-.12-.28.24-.17.45-.31.14-.07.16-.04-.02-.24v-.04l.03-1.92.02-.75-.17-.02-.24.28-.09.52v.97l-.02.37h-.96l-.24.33.04.45.89,1.72.02.09.12.47-.02.24-.47,1.04-.23.52.19.71.31.56.4.52.09.19.23,3.19.23.4.82.24,1.2-.14.66-.37.56-1.25.4-1.01.28-.68.35.64.52.92v.02l.68,1.39.04.09.21,1.22.02.05-.04,1.1.23,5.03h0Z"/>
      <path class="cls-1" d="m82.13,26.35l-.09-.1c-.21-.24-.35-.5-.47-.8-.07-.21-.12-.42-.16-.66l-1.52,1.46-.05.05-.07-.02c-.5-.12-.89-.33-1.13-.63-.26-.3-.4-.66-.4-1.1,0-.24.03-.47.1-.68.07-.21.17-.4.3-.59.09-.12.19-.24.31-.38.12-.14.24-.28.38-.42l.58-.59-.7-.87c-.09-.09-.16-.19-.23-.28-.05-.09-.1-.17-.16-.26-.05-.09-.09-.17-.11-.26-.02-.1-.03-.21-.03-.31,0-.12.02-.24.05-.35.04-.1.11-.21.17-.3.09-.09.17-.16.28-.19.09-.05.21-.07.31-.07.14,0,.24.02.35.07.11.05.21.14.28.23.07.09.12.17.16.28.04.09.05.19.05.3,0,.17-.04.33-.12.45-.02.04-.04.05-.05.09.23-.1.45-.23.64-.37.35-.26.64-.61.89-1.03l.11-.16.12.14.8.89.44-.38.12-.1.09.12.24.33.07.1-.1.09-.8.71v2.86-.02.02c0,.26.04.49.09.7.02.12.07.24.12.35l.33-.31.1-.1.11.12.22.33.07.1-.09.09-1.52,1.36-.11.1h0Z"/>
      <polygon class="cls-1" points="56.23 55.95 56.38 56.02 58.58 57.86 58.61 57.9 60.2 59.66 60.23 59.71 60.7 60.41 60.75 60.62 60.75 63.07 60.67 63.31 59.74 64.34 59.67 64.39 58.77 64.99 58.51 65.04 57.36 64.8 57.18 64.76 57.11 64.6 56.64 63.7 56.64 63.71 53.44 57.74 53.09 57.11 53.79 57.2 54.48 57.29 54.89 56.66 54.89 55.7 55.3 55.77 56.23 55.95 56.23 55.95"/>
      <path class="cls-3" d="m80.4,24.82l.98-.94v-3.03l-.21-.23c-.16.12-.33.23-.51.31-.16.07-.31.14-.49.21l.99,1.22.09.1-.09.09-.3.28-.1.1-.09-.12-.33-.38-.31.31c-.21.21-.35.4-.45.58-.09.17-.14.31-.14.45,0,.07.02.14.04.21.04.09.07.17.12.26.05.09.11.17.17.24.05.05.12.12.19.17.07.05.14.09.22.1.07.04.14.05.21.05h0Z"/>
      <path class="cls-1" d="m27.16,23.5c0,.3.02.58.07.78.04.14.07.24.1.33l.33-.31.1-.1.09.12.24.31.09.09-.09.09-1.45,1.41-.1.09-.09-.09c-.24-.24-.43-.54-.54-.91-.12-.35-.17-.75-.17-1.18v-3.34l-.26-.28-1.18,1.13v2.8l.24.26.24-.24.1-.09.09.1.26.31.07.1-.09.09-1.32,1.27-.1.1-.09-.1-.82-.87-.42.4-.1.1-.1-.12-.24-.31-.07-.1.09-.07.85-.84v-8.03c0-.16-.02-.37-.04-.59-.02-.23-.05-.49-.09-.75l-.02-.12.1-.04.33-.1.14-.05.03.14c.04.21.09.4.12.61,0,.02,0,.04.02.07.05-.14.12-.28.21-.42.17-.28.38-.56.64-.8l.09-.07.09.05.26.19.12.07-.09.12c-.09.12-.16.23-.21.33-.07.1-.1.17-.14.24-.05.14-.1.31-.14.51-.02.23-.03.47-.03.75v4.15l1.83-1.74.09-.1.1.1.78.85.44-.4.1-.1.09.12.24.31.09.11-.09.09-.82.78v2.79h0Z"/>
      <path class="cls-1" d="m66.69,25.83l-.42-.54.84-.82v-3.64h-.4v-.71c.17.02.35.02.54.02.35,0,.68-.04.99-.1.49-.1.92-.31,1.32-.61.21-.16.4-.33.59-.5l1.15.92.52-.52.42.54-.82.84v3.71h.38v.7h-.31c-.4,0-.78.04-1.12.12-.52.1-.9.26-1.32.57-.16.12-.37.28-.59.47l-.09.07-.09-.07-1.1-.91-.5.47h0Z"/>
      <path class="cls-1" d="m62.17,25.83l-.42-.52.87-.87v-2.77c0-.23-.02-.44-.05-.63-.04-.14-.09-.28-.17-.42l-.45.44-.42-.54,1.72-1.64c.19.26.38.52.54.82.07.14.14.3.17.47l.89-1.32c.11.16.21.31.31.47.11.16.16.23.21.3.09.12.16.21.23.3.09.1.16.17.21.19.04,0,.07-.04.14-.14l.24-.4.52.44-.47.7-.17.24c-.05.09-.12.16-.17.21-.07.07-.16.11-.23.16-.05.02-.12.05-.19.07-.07,0-.12.02-.19.02-.14,0-.28-.04-.42-.1-.14-.07-.28-.17-.42-.31-.04-.05-.09-.09-.12-.12v-.02l-.3.44v3.14l.61.49.73-.57.38.57-1.85,1.45-1.25-.99-.49.49h0Z"/>
      <path class="cls-3" d="m69.25,24.84c.12-.07.24-.12.37-.16.12-.05.26-.09.4-.12v-3.71l-.59-.47c-.14.07-.28.14-.44.19-.16.05-.31.1-.47.16v3.52l.73.59h0Z"/>
      <path class="cls-1" d="m57.25,25.87l-.09-.12-.24-.33-.07-.1.09-.07.75-.78v-3.62h-.02c-.05.02-.1.02-.14.02-.05,0-.12-.02-.19-.02s-.14-.02-.26-.02l-.12-.02v-.7l.16.02c.07,0,.1,0,.16.02h.12c.33,0,.64-.04.94-.1.3-.07.56-.19.82-.33.11-.05.24-.16.38-.26.16-.12.33-.28.5-.45l.12-.11.09.12,1.72,2.39.09.1-.12.09-2.84,2.09v.87l.61.38,1.37-1.01.12-.09.07.14.21.35.07.1-.11.07-2.4,1.78-.09.05-.07-.05-1.2-.84-.31.33-.12.1h0Z"/>
      <path class="cls-3" d="m59.1,22.84l1.3-.97-1.03-1.43c-.05.02-.09.04-.12.05-.05.02-.11.03-.16.05v2.3h0Z"/>
      <path class="cls-1" d="m50.3,30.31l-.16-.02c-.24-.02-.47-.05-.68-.12-.21-.07-.4-.17-.57-.3-.19-.12-.37-.28-.52-.45-.16-.17-.28-.37-.38-.59-.1-.21-.19-.44-.24-.68-.05-.24-.09-.49-.09-.73,0-.38.07-.77.19-1.11.12-.35.31-.66.58-.98.24-.3.52-.54.84-.75.3-.17.63-.31.97-.42v-3.54s-.07-.05-.1-.07c-.04-.04-.09-.04-.14-.04-.1,0-.19.02-.26.09-.07.05-.14.16-.19.28-.02.05-.02.1-.04.16-.02.05-.02.12-.02.17,0,.07.02.12.02.19.02.07.04.14.05.21l.04.12-.1.03-.37.17-.14.05-.05-.14c-.05-.23-.1-.42-.14-.61-.03-.19-.05-.38-.05-.56s.02-.33.05-.49c.04-.16.09-.31.16-.44.07-.14.16-.26.26-.35.1-.1.21-.17.33-.21.1-.05.23-.09.37-.11.1-.02.21-.02.33-.02v-2.16c0-.23-.02-.44-.05-.59-.04-.16-.09-.28-.16-.35-.09-.1-.16-.17-.26-.23-.09-.05-.17-.07-.28-.07-.19,0-.35.05-.5.17-.16.12-.3.3-.42.54-.05.09-.09.21-.12.33-.04.12-.05.26-.07.4l-.04.16-.14-.03-.35-.1-.1-.02v-.12c.03-.28.09-.56.14-.8.05-.26.12-.52.21-.75.21-.56.45-.96.73-1.24.3-.3.63-.44,1.03-.44.3,0,.58.09.84.24.24.17.47.42.66.75.12.21.23.47.3.77.05.28.09.59.09.94l.47-.38v-2.12h.64v1.62l2.23-1.79.11-.07.09.09,1.24,1.38.45-.35.12-.09.09.12.21.35.07.1-.09.07-.99.84v7.98c.07,0,.14.02.23.04.12.02.24.04.37.07l.14.04-.04.14-.12.43-.05.14-.12-.03c-.12-.04-.24-.05-.37-.07-.1,0-.24-.02-.37-.02-.37,0-.73.04-1.08.12-.33.09-.66.19-.96.37h-.02c-.28.14-.54.31-.78.49-.22.17-.44.37-.63.58l-.09.1-.11-.1c-.12-.1-.24-.21-.4-.3-.14-.09-.3-.16-.47-.23-.35-.14-.68-.19-1.03-.19-.29,0-.57.04-.82.14-.26.09-.49.24-.68.44-.19.17-.33.37-.44.58-.09.21-.14.44-.14.68,0,.26.05.51.14.73.09.23.21.44.38.63.17.19.37.35.58.45.19.1.42.16.66.17h.14v.7h0Z"/>
      <path class="cls-3" d="m52.85,18.03c.14.07.28.14.42.17.17.05.37.07.56.07s.38-.02.58-.07c.17-.05.33-.1.5-.17v-1.93l-.64-.75-1.41,1.13v1.55h0Z"/>
      <path class="cls-3" d="m52.85,21.46c.14-.05.28-.09.4-.12.21-.03.38-.07.57-.07.16,0,.35.02.58.07.16.04.31.07.5.14v-2.7c-.16.05-.31.09-.47.12-.19.05-.4.07-.58.07-.19,0-.38-.02-.59-.07-.14-.03-.28-.07-.42-.12v2.68h0Z"/>
      <path class="cls-3" d="m52.71,24.63c.26.12.5.28.75.45.44-.28.96-.47,1.59-.61v-2.32c-.44-.23-.84-.33-1.19-.33s-.75.1-1.15.33v2.47h0Z"/>
      <path class="cls-3" d="m51.75,24.14c.09.02.17.04.26.07.07.02.12.03.19.05v-7.25l-.45.37v6.76h0Z"/>
      <path class="cls-1" d="m42.27,25.83l-.42-.54.84-.82v-3.64h-.4v-.71c.17.02.37.02.54.02.35,0,.7-.04.99-.1.31-.07.59-.17.87-.31.14-.07.3-.17.45-.3.21-.16.4-.33.59-.5l1.15.92.54-.52.4.54-.82.84v3.71h.38v.7h-.31c-.4,0-.78.04-1.12.12-.33.07-.64.17-.92.31-.38.21-.75.52-1.08.8l-1.18-.97-.5.47h0Z"/>
      <path class="cls-3" d="m44.83,24.84c.12-.07.24-.12.37-.16.12-.05.26-.09.4-.12v-3.71l-.59-.47c-.14.07-.28.14-.44.19-.16.05-.3.1-.47.16v3.52l.73.59h0Z"/>
      <path class="cls-1" d="m36.39,25.81l-.42-.54.87-.87v-3.64c-.3-.16-.52-.37-.68-.63-.17-.26-.24-.58-.24-.94,0-.38.07-.71.21-.99.14-.3.35-.56.63-.77v.02c.19-.16.42-.24.66-.31l.17.63-.09.05c-.21.1-.37.21-.47.35-.09.12-.14.26-.14.4,0,.26.09.45.28.58.21.14.52.21.94.23h.14v5.03l.56.49c.14-.07.28-.14.44-.19.16-.07.31-.12.5-.17v-3.55l-.38-.4-.38.37-.42-.52,1.52-1.53.97,1.06.56-.56.44.52-.89.89v3.57c.14-.02.28.02.42.04v.68c-.17,0-.35-.02-.52-.02-.61,0-1.15.1-1.62.3-.47.19-.87.49-1.22.89l-.09.09-.1-.07-1.15-.94-.49.49h0Z"/>
      <path class="cls-1" d="m31.49,25.87l-.4-.56.84-.85v-3.62c-.24.02-.49-.02-.73-.04v-.7c.14.02.3.04.44.04.33,0,.64-.04.94-.1.28-.07.56-.19.82-.33.1-.05.24-.16.38-.26.23-.17.42-.37.63-.56l1.88,2.61-2.94,2.18v.87l.59.38,1.5-1.1.37.59-2.6,1.9-1.27-.89-.44.44h0Z"/>
      <path class="cls-3" d="m33.34,22.84l1.29-.97-1.03-1.43s-.07.04-.12.05c-.03.02-.09.03-.14.07v2.28h0Z"/>
      <polygon class="cls-1" points="29.44 18.31 28.51 17.38 28.17 17.71 27.75 17.17 29.25 15.73 30.15 16.65 30.48 16.32 30.92 16.86 29.44 18.31 29.44 18.31"/>
      <path class="cls-1" d="m29.65,26.34l-.09-.07c-.28-.21-.47-.49-.59-.84-.12-.33-.19-.73-.17-1.2v-3.4l-.3-.3-.52.5-.42-.54,1.66-1.6.92.92.5-.47.42.52-.87.85v2.94-.02.02c.02.28.03.5.1.68.04.1.09.21.14.28l.33-.31.1-.1.09.12.26.31.07.09-.09.09-1.46,1.43-.09.09h0Z"/>
      <path class="cls-1" d="m22.73,23.6l-.05.1c-.19.33-.38.63-.57.89-.21.28-.44.5-.68.71-.4.37-.84.64-1.31.82-.47.17-.96.26-1.48.26-.66,0-1.27-.12-1.83-.4-.54-.28-1.03-.7-1.45-1.24-.42-.52-.71-1.13-.92-1.83-.21-.68-.31-1.43-.31-2.26s.12-1.69.35-2.44c.23-.75.56-1.45,1.01-2.09.26-.35.54-.71.87-1.12.33-.38.7-.78,1.12-1.18l.1-.1.09.12.3.35.07.09-.07.09c-.26.3-.49.59-.68.85-.19.26-.37.5-.51.71-.31.54-.57,1.15-.73,1.81-.03.14-.07.3-.1.45l.07-.07,3.88-4.3.14-.16.09.19c.14.3.28.52.42.66.12.12.24.19.35.19.05,0,.12-.02.19-.05.07-.05.16-.1.26-.19l.49-.44.12-.1.09.12.24.33.07.1-.09.07-1.01,1.03c-.12.16-.24.26-.35.35-.07.07-.14.12-.19.16v8.62c.07-.04.16-.09.23-.14.16-.1.33-.24.51-.4.16-.14.28-.28.4-.42.12-.14.21-.26.3-.4l.07-.14.12.1.3.21.11.07h0Z"/>
      <path class="cls-3" d="m15.94,18.25c-.1.52-.14,1.06-.14,1.66,0,.45.03.87.09,1.29.07.4.16.79.28,1.13.12.37.26.68.44.96.17.3.37.54.59.75.31.3.68.52,1.06.68.4.16.82.23,1.29.23.11,0,.21,0,.31-.02.07,0,.14-.02.19-.04v-8.74c-.17-.03-.35-.09-.51-.17-.16-.07-.3-.16-.43-.28l-.37.38v6.1l-.04.09-1.43,1.57-.1.1-.1-.1-.26-.31-.09-.09.09-.09.42-.47v-5.07l-.75.82-.1.12-.1-.12-.26-.3-.07-.07h0Z"/>
      <path class="cls-1" d="m52.86,76.88v-.28c.17,0,.35-.02.52-.05.16-.04.3-.09.44-.16.14-.07.28-.16.42-.28.12-.12.26-.28.4-.45.12-.17.22-.35.33-.54.05-.14.12-.28.16-.44-.14.09-.29.16-.44.19-.19.07-.37.1-.54.1-.19,0-.37-.03-.54-.1-.16-.07-.31-.17-.45-.33-.3-.3-.4-.7-.4-1.11,0-.21.04-.44.11-.63.05-.21.16-.38.3-.56.16-.23.35-.38.57-.49.21-.11.45-.16.71-.16.22,0,.44.04.62.12.23.12.42.28.59.49.16.19.28.4.37.63.09.26.14.56.14.87,0,.28-.04.54-.1.82-.07.26-.19.5-.33.75-.14.24-.31.47-.52.66-.19.21-.44.38-.68.54-.23.14-.44.23-.66.3-.24.07-.49.1-.73.1h-.28Z"/>
      <path class="cls-3" d="m55.25,74.24c.02-.14.04-.28.04-.4.02-.12.02-.23.02-.31,0-.12,0-.24-.03-.37-.02-.12-.04-.24-.09-.38-.04-.12-.09-.24-.14-.35-.07-.1-.12-.17-.19-.24-.07-.07-.16-.12-.22-.16-.09-.03-.17-.05-.26-.05-.11,0-.19.03-.3.07-.09.05-.17.12-.24.21-.09.09-.14.19-.19.33-.04.14-.05.29-.05.49,0,.24.02.47.09.66.05.19.12.35.24.49.07.1.16.17.24.23.1.04.19.07.31.07.05,0,.11-.02.18-.02.07-.02.14-.04.22-.07.07-.02.14-.05.21-.09.05-.03.12-.07.18-.1h0Z"/>
      <path class="cls-1" d="m52.48,75.7l-.42,1.08h-3.19v-.23l.03-.04c.45-.38.84-.73,1.15-1.06.31-.31.56-.59.75-.84.17-.24.31-.47.4-.7.09-.21.14-.42.14-.63,0-.26-.09-.52-.3-.71-.17-.19-.42-.28-.68-.28-.23,0-.45.07-.64.19-.09.07-.17.16-.24.24-.09.12-.14.26-.19.4h-.28c.04-.24.09-.47.19-.7.17-.35.45-.61.8-.75.17-.05.37-.09.58-.09.42,0,.8.12,1.1.4.28.26.45.58.45.96,0,.14-.02.26-.05.4-.04.12-.07.26-.14.38-.09.19-.23.4-.38.61-.16.23-.33.44-.56.66-.35.37-.7.73-1.06,1.08h1.18c.28,0,.47-.02.57-.04.05-.02.11-.02.14-.04.05-.02.09-.05.14-.07.11-.07.16-.16.23-.26h.28Z"/>
      <path class="cls-1" d="m45.39,76.88v-.28h.07c.16,0,.31-.02.47-.05.14-.04.3-.09.43-.16.12-.07.26-.16.4-.28.14-.12.26-.28.4-.45.12-.17.24-.35.33-.54.07-.14.12-.28.17-.44-.16.09-.3.16-.45.19-.17.07-.37.1-.52.1-.19,0-.38-.03-.54-.1-.17-.07-.31-.17-.45-.33-.14-.14-.24-.3-.31-.49-.07-.17-.1-.38-.1-.63,0-.21.04-.44.1-.63.07-.21.17-.38.3-.56.17-.23.37-.38.57-.49.21-.11.45-.16.71-.16.23,0,.44.04.63.12.19.09.37.23.52.4.19.21.35.45.44.71.1.26.14.56.14.87,0,.28-.03.54-.1.82-.07.26-.17.5-.33.75-.14.24-.31.47-.5.66-.21.21-.44.38-.7.54-.21.14-.44.23-.66.3-.23.07-.47.1-.71.1h-.3Z"/>
      <path class="cls-3" d="m47.78,74.24c.02-.14.04-.28.05-.4,0-.12.02-.23.02-.31,0-.12-.02-.24-.03-.37-.02-.12-.05-.24-.09-.38-.05-.12-.11-.24-.16-.35-.05-.1-.12-.17-.19-.24-.07-.07-.14-.12-.23-.16-.09-.03-.16-.05-.26-.05s-.19.03-.28.07c-.1.05-.17.12-.26.21-.09.09-.14.19-.17.33-.05.14-.07.29-.07.49,0,.24.03.47.09.66.05.19.14.35.24.49.07.1.16.17.26.23.09.04.19.07.3.07.05,0,.12-.02.19-.02.05-.02.14-.04.21-.07.07-.02.16-.05.21-.09.07-.03.12-.07.17-.1h0Z"/>
      <path class="cls-1" d="m42.13,72.23l1.34-.63h.23v4.56c.02.14.02.23.14.28.16.07.35.05.5.07v.26h-2.09v-.26c.12-.02.24-.02.37-.03.21-.02.28-.09.3-.3,0-.09.02-.21.02-.35v-2.66c0-.17-.02-.31-.02-.44,0-.1-.02-.19-.04-.24,0-.04-.02-.05-.02-.07-.03-.07-.1-.1-.17-.1-.05,0-.09.02-.16.04-.09.02-.17.07-.28.1l-.12-.23h0Z"/>
      <path class="cls-1" d="m72.39,25.87l-.09-.1-.24-.33-.07-.1.09-.09.82-.75v-2.89c0-.14-.02-.28-.02-.4-.02-.12-.04-.23-.05-.33-.04-.1-.05-.19-.09-.26,0-.02-.02-.03-.02-.03l-.38.35-.1.1-.09-.12-.24-.33-.07-.09.09-.09,1.5-1.41.09-.09.09.09c.12.12.24.24.33.37.09.14.16.28.21.42.05.14.09.33.12.56.02.14.02.3.04.47l1.88-1.81.09-.09.1.1.8.78.4-.37.12-.1.09.12.24.31.07.1-.09.09-.8.75v2.94c0,.3.02.52.07.73.02.1.07.21.11.28l.33-.31.11-.1.09.12.24.31.09.1-.09.09-1.45,1.39-.11.09-.09-.09c-.24-.23-.44-.52-.56-.87-.1-.35-.17-.75-.16-1.2v-3.4l-.26-.24-1.22,1.18v2.8l.21.23.31-.28.12-.1.09.12.24.31.07.1-.09.07-1.31,1.27-.11.1-.09-.1-.82-.87-.43.4-.12.09h0Z"/>
    </g>
  </g>
</svg>