<?xml version="1.0" encoding="UTF-8"?>
<svg id="Layer_2" data-name="Layer 2" xmlns="http://www.w3.org/2000/svg" viewBox="0 0 420.31 420.31">
  <defs>
    <style>
      .cls-1 {
        fill: #2a4999;
      }

      .cls-1, .cls-2, .cls-3 {
        fill-rule: evenodd;
      }

      .cls-1, .cls-2, .cls-3, .cls-4, .cls-5 {
        stroke-width: 0px;
      }

      .cls-2, .cls-4 {
        fill: #2c489b;
      }

      .cls-3 {
        fill: #fff;
      }

      .cls-5 {
        fill: #2a4a9b;
      }
    </style>
  </defs>
  <g id="Layer_1-2" data-name="Layer 1">
    <g>
      <path class="cls-2" d="m233.48,205.19v-44.01h-17.52v-10.57h47.53v10.57h-17.23v44.01h-12.78Z"/>
      <rect class="cls-5" x="261.95" y="193.24" width="13.03" height="11.73"/>
      <path class="cls-2" d="m149.85,270.41v-53.94h40.94v10.05h-28.1v12.28h24.25v9.41h-24.25v22.2h-12.84Z"/>
      <path class="cls-1" d="m275.52,383.08l3.11-1.91c1.21,1.71,2.45,2.79,3.72,3.21,1.27.43,2.57.35,3.89-.23,1.57-.69,2.65-1.82,3.24-3.36.59-1.55.54-3.12-.17-4.71-.67-1.52-1.72-2.55-3.15-3.11-1.43-.55-2.91-.49-4.44.19-.63.28-1.35.74-2.18,1.4l-.91-3.06c.23-.07.42-.14.55-.2,1.42-.62,2.52-1.55,3.33-2.79.8-1.23.87-2.61.2-4.13-.53-1.21-1.39-2.03-2.56-2.46-1.17-.43-2.41-.36-3.7.21-1.29.57-2.18,1.45-2.68,2.65-.5,1.19-.51,2.66-.04,4.4l-3.57.86c-.57-2.4-.42-4.53.48-6.38.89-1.85,2.41-3.25,4.54-4.19,1.47-.65,2.96-.93,4.48-.84,1.52.08,2.84.52,3.97,1.32,1.14.8,1.98,1.81,2.52,3.04.51,1.16.66,2.35.46,3.58-.21,1.23-.8,2.4-1.77,3.5,1.75-.34,3.32-.12,4.72.65,1.39.77,2.46,2.03,3.23,3.77,1.04,2.35,1.06,4.73.07,7.12-1,2.39-2.8,4.17-5.43,5.32-2.36,1.04-4.64,1.2-6.83.48-2.19-.72-3.88-2.15-5.09-4.3h0Z"/>
      <path class="cls-1" d="m249.8,372.5l-1.02-3.3,18.2-5.6.82,2.67c-1.2,2.46-2.2,5.54-2.99,9.24-.79,3.71-1.14,7.38-1.07,11.02.04,2.56.38,5.29,1.06,8.15l-3.54,1.09c-.64-2.23-1.04-5.04-1.17-8.43-.13-3.4.12-6.79.78-10.19.66-3.39,1.55-6.36,2.68-8.89l-13.75,4.23Z"/>
      <path class="cls-1" d="m236.45,392.37c.18,1.02.59,1.95,1.24,2.82.64.86,1.49,1.47,2.54,1.81,1.04.35,2.12.43,3.2.23,1.71-.31,3.02-1.11,3.92-2.39.9-1.29,1.2-2.78.9-4.47-.31-1.71-1.13-3.03-2.46-3.94-1.33-.92-2.86-1.22-4.59-.91-1.68.31-2.97,1.11-3.86,2.41-.89,1.31-1.19,2.79-.89,4.45h0Zm-1.23-13.61c.25,1.38.89,2.42,1.91,3.13,1.03.71,2.26.95,3.68.69,1.38-.25,2.43-.88,3.14-1.9.71-1.02.96-2.16.73-3.41-.24-1.31-.88-2.33-1.93-3.06-1.05-.73-2.26-.97-3.61-.73-1.37.25-2.42.89-3.15,1.92-.73,1.03-.99,2.14-.77,3.36h0Zm1.79,5.92c-1.57-.27-2.8-.86-3.7-1.72-.89-.88-1.46-2.02-1.71-3.41-.38-2.11.06-4.01,1.31-5.72,1.26-1.71,3.14-2.79,5.66-3.24,2.52-.45,4.69-.08,6.49,1.11,1.8,1.2,2.89,2.84,3.27,4.95.24,1.34.1,2.58-.42,3.7-.52,1.12-1.45,2.08-2.79,2.88,1.88.26,3.39.95,4.54,2.08,1.16,1.12,1.9,2.58,2.22,4.37.45,2.48-.06,4.71-1.5,6.71-1.45,2-3.6,3.26-6.45,3.77-2.86.51-5.3.08-7.36-1.3-2.05-1.38-3.3-3.33-3.76-5.86-.34-1.88-.14-3.55.59-4.99.73-1.45,1.94-2.55,3.62-3.33h0Z"/>
      <path class="cls-1" d="m225.08,402.41l-3.61.18-1.17-23.01c-.83.88-1.93,1.77-3.3,2.66-1.37.9-2.61,1.59-3.71,2.06l-.18-3.49c1.97-1.05,3.68-2.29,5.12-3.72,1.45-1.43,2.45-2.79,3.02-4.09l2.32-.12,1.5,29.53Z"/>
      <path class="cls-1" d="m192.07,402.06l.34-4.1,4.1.34-.34,4.1-4.1-.34Z"/>
      <path class="cls-1" d="m179.14,400.42l3.89-25.7-9.6-1.45.52-3.42,23.06,3.49-.52,3.41-9.6-1.45-3.88,25.7-3.86-.59Z"/>
      <path class="cls-1" d="m146.46,382.49l3.6.73c-.26,1.47-.21,2.75.12,3.84.34,1.09,1.07,2.11,2.18,3.05,1.11.94,2.48,1.65,4.08,2.13,1.43.43,2.74.59,3.96.48,1.22-.1,2.2-.45,2.95-1.03.75-.58,1.26-1.31,1.52-2.18.26-.88.23-1.72-.08-2.54-.32-.81-1-1.61-2.05-2.42-.67-.51-2.21-1.47-4.62-2.87-2.41-1.4-4.05-2.52-4.92-3.38-1.14-1.11-1.87-2.29-2.22-3.52-.35-1.24-.33-2.52.05-3.81.43-1.43,1.23-2.64,2.4-3.64,1.18-1,2.63-1.59,4.38-1.77,1.74-.18,3.56,0,5.46.57,2.09.62,3.84,1.5,5.23,2.66,1.4,1.14,2.33,2.5,2.8,4.07.47,1.56.49,3.18.06,4.86l-3.67-.79c.34-1.84.09-3.38-.75-4.61-.84-1.24-2.35-2.18-4.52-2.83-2.26-.67-4.03-.75-5.31-.23-1.28.52-2.09,1.37-2.44,2.54-.3,1.01-.18,1.96.36,2.83.53.87,2.2,2.1,5.03,3.69,2.83,1.59,4.73,2.81,5.71,3.66,1.41,1.24,2.34,2.56,2.78,3.95.44,1.39.43,2.84-.02,4.35-.45,1.5-1.29,2.78-2.55,3.85-1.25,1.07-2.79,1.74-4.62,2-1.83.26-3.75.09-5.76-.51-2.55-.76-4.57-1.77-6.07-3.02-1.51-1.25-2.52-2.77-3.05-4.56-.54-1.78-.55-3.63-.04-5.52h0Z"/>
      <path class="cls-1" d="m119.96,380.96l12.22-26.79,19.34,8.83-1.43,3.14-15.79-7.2-3.75,8.23,14.78,6.74-1.43,3.14-14.78-6.74-4.16,9.13,16.43,7.49-1.43,3.14-19.98-9.11Z"/>
      <path class="cls-1" d="m152.5,54.57l-8.23-28.84,5.98-1.71,3.07,10.75,11.91-3.4-3.07-10.75,5.98-1.7,8.23,28.84-5.98,1.71-3.65-12.8-11.91,3.4,3.65,12.8-5.98,1.71Z"/>
      <path class="cls-1" d="m125.44,67.42l-13.29-26.89,5.79-2.86,20.06,13.08-9.13-18.47,5.46-2.7,13.29,26.89-5.72,2.83-20.13-13.04,9.13,18.47-5.46,2.7Z"/>
      <path class="cls-1" d="m103.9,82.67l-17.55-24.32,17.67-12.75,3.05,4.23-12.73,9.18,3.73,5.18,11.65-8.4,3,4.16-11.65,8.4,4.51,6.26,13.33-9.61,3.25,4.5-18.27,13.17Z"/>
      <path class="cls-1" d="m367.22,158.83l5.86-1.8,1.8,5.86-5.86,1.8-1.8-5.86Z"/>
      <path class="cls-1" d="m360.04,139.93l27.91-10.99,7.67,19.48-4.85,1.91-5.44-13.82-6.33,2.49,4.77,12.11-4.85,1.91-4.77-12.11-11.87,4.68-2.23-5.67Z"/>
      <path class="cls-1" d="m313.48,80.82l13.83-27.96,4.73,4.3-10.45,19.1,17.44-12.73,4.88,4.43-11.04,18.56,18.04-12.19,4.7,4.27-26.54,16.4-4.35-3.96,12.03-20.11-18.91,13.85-4.35-3.96Z"/>
      <path class="cls-1" d="m288.18,47.02c2.44-4.18,5.52-6.84,9.24-7.97,3.72-1.12,7.51-.56,11.38,1.7,3.87,2.25,6.23,5.29,7.09,9.09.86,3.81.07,7.79-2.37,11.97-2.44,4.17-5.52,6.82-9.25,7.95-3.73,1.13-7.53.56-11.4-1.7-3.87-2.26-6.22-5.28-7.07-9.07-.84-3.8-.05-7.79,2.39-11.96h0Zm5.44,3.18c-1.66,2.85-2.32,5.43-1.98,7.75.35,2.32,1.66,4.14,3.93,5.46,2.3,1.34,4.54,1.6,6.74.77,2.2-.84,4.13-2.67,5.79-5.52,1.66-2.86,2.32-5.43,1.96-7.76-.36-2.32-1.68-4.15-3.98-5.49-2.27-1.32-4.5-1.57-6.69-.74-2.18.83-4.11,2.68-5.78,5.54h0Z"/>
      <path class="cls-1" d="m264.49,54.05l8.57-23.12-8.33-3.09,1.85-5.01,22.41,8.31-1.86,5-8.29-3.07-8.57,23.12-5.79-2.14Z"/>
      <path class="cls-1" d="m210.43,44.12l2.82-29.86,9.1.86,3.78,23.29,8-22.17,9.14.86-2.82,29.86-5.77-.54,2.28-24.08-8.34,23.51-6.27-.59-3.87-24.66-2.28,24.08-5.77-.54Z"/>
      <path class="cls-1" d="m186.5,16.18l7.09-.72,13.79,28.75-6.45.65-2.65-5.94-11.57,1.18-1.34,6.34-6.47.66,7.59-30.92Zm4.18,5.61l-2.85,13.12,8.28-.84-5.44-12.28Z"/>
      <path class="cls-1" d="m62.66,113.34l8.74,6.14-3.55,5.05-24.54-17.25,7.67-10.92c1.81-2.58,3.85-4.05,6.13-4.45,2.27-.39,4.7.32,7.28,2.14,2.53,1.78,4.02,3.8,4.48,6.07.46,2.26-.16,4.6-1.85,7.02l-4.36,6.2Zm-4.41-3.15l3.43-4.89c.93-1.32,1.32-2.48,1.19-3.48-.14-.99-.83-1.93-2.08-2.8-1.16-.82-2.25-1.15-3.27-.98-1.01.17-1.93.84-2.75,2l-3.62,5.16,7.1,4.99Z"/>
      <path class="cls-1" d="m62.03,135.81l-26.52-14,2.88-5.46,26.53,14-2.88,5.46Z"/>
      <path class="cls-1" d="m50.51,163.88l-28.09-10.52,2.18-5.82,10.47,3.92,4.35-11.6-10.47-3.92,2.18-5.82,28.09,10.52-2.18,5.82-12.46-4.67-4.35,11.6,12.46,4.67-2.18,5.82Z"/>
      <path class="cls-1" d="m39.29,165.43c3.31.84,5.75,2.61,7.29,5.33,1.55,2.71,1.97,5.97,1.29,9.76-.79,4.37-2.77,7.52-5.94,9.44-3.16,1.93-7.21,2.45-12.12,1.56-5.03-.91-8.65-2.85-10.87-5.81-2.23-2.95-2.91-6.75-2.07-11.38.68-3.76,2.14-6.58,4.38-8.42,2.24-1.85,5.05-2.58,8.45-2.18l-1.09,5.99c-1.71-.05-3.11.4-4.19,1.34-1.08.95-1.79,2.37-2.13,4.25-.48,2.67,0,4.85,1.48,6.55,1.47,1.7,3.86,2.85,7.17,3.45,3.2.58,5.81.34,7.81-.72,2-1.06,3.24-2.87,3.7-5.42.34-1.84.14-3.44-.59-4.78-.72-1.35-1.94-2.35-3.64-3.02l1.08-5.95Z"/>
      <path class="cls-1" d="m385.5,194.19c-3.4.35-6.29-.49-8.68-2.52-2.38-2.02-3.9-4.93-4.55-8.73-.75-4.38.04-8.01,2.35-10.91,2.31-2.9,5.94-4.77,10.86-5.61,5.04-.86,9.1-.28,12.2,1.74,3.1,2.02,5.05,5.34,5.84,9.99.64,3.77.24,6.91-1.23,9.41-1.47,2.51-3.86,4.15-7.19,4.94l-1.03-6c1.63-.54,2.79-1.44,3.48-2.7.69-1.26.87-2.84.55-4.72-.46-2.67-1.67-4.56-3.63-5.66-1.96-1.1-4.6-1.35-7.92-.79-3.21.55-5.58,1.66-7.09,3.35-1.52,1.68-2.06,3.8-1.62,6.35.32,1.84,1.05,3.28,2.19,4.29,1.14,1.02,2.63,1.55,4.45,1.6l1.02,5.96Z"/>
      <path class="cls-1" d="m81.28,89.73l7.57,7.54-4.36,4.37-21.25-21.16,9.42-9.46c2.22-2.23,4.48-3.34,6.79-3.34,2.3,0,4.57,1.12,6.81,3.35,2.19,2.18,3.32,4.43,3.39,6.74.07,2.3-.94,4.51-3.02,6.6l-5.35,5.37Zm-3.81-3.86l4.22-4.23c1.14-1.14,1.73-2.21,1.76-3.22.03-1-.49-2.04-1.57-3.11-1.01-1.01-2.03-1.51-3.06-1.52-1.03,0-2.04.5-3.05,1.5l-4.45,4.46,6.14,6.12Z"/>
      <path class="cls-1" d="m336.72,103.29l24.3-17.58,3.79,5.24-9.55,21.95,16.69-12.08,3.57,4.93-24.3,17.58-3.74-5.17,9.5-22.02-16.69,12.08-3.57-4.93Z"/>
      <path class="cls-1" d="m375.14,200.48l6.12-.25.25,6.13-6.13.25-.25-6.12Z"/>
      <path class="cls-2" d="m160.18,177.94c0-10.54,3.71-18.41,15.91-18.41,7.37,0,11.38,4.92,12.5,9.58h12.32c.02-10.12-11.24-19.34-24.82-19.43-17.45-.11-28.89,11.9-28.84,28.27.05,16.54,11.34,27.64,27.92,28.09,16.25.45,25.38-9.27,26.34-21.72h-12.5c-1.11,7.5-5.95,11.94-12.98,11.94-11.02,0-15.86-8.56-15.86-18.32h0Z"/>
      <path class="cls-2" d="m218.49,243.53c0-10.54,3.71-18.41,15.91-18.41,7.36,0,11.38,4.92,12.5,9.58h12.32c.02-10.12-11.24-19.34-24.82-19.43-17.44-.11-28.89,11.9-28.84,28.27.05,16.54,11.34,27.64,27.92,28.09,16.25.45,25.38-9.26,26.34-21.72h-12.5c-1.11,7.51-5.95,11.94-12.98,11.94-11.01,0-15.86-8.56-15.86-18.32h0Z"/>
      <rect class="cls-4" x="201.36" y="193.24" width="13.03" height="11.73"/>
      <rect class="cls-4" x="190.56" y="258.7" width="13.03" height="11.73"/>
      <rect class="cls-4" x="261.99" y="258.7" width="13.03" height="11.73"/>
      <path class="cls-1" d="m210.21,338.23l-.36-.14c-32.76-12.45-65.63-35.37-86.79-68.11-17.89-27.68-27.93-63.07-27.14-107.11.07-4,.77-7.96,1.71-11.08,2.14,2.58,5.98,4.78,8.88,5.4,1.82.39,3.82.03,5.23-.67,1.25-.63,2.21-1.57,2.64-2.65.05-.13.11-.33.16-.58.08-.37.08-.89,0-1.5-.13-1.07-.51-2.17-1.18-3.03-.55-.72-1.4-1.34-2.47-1.76-.83-.33-1.98-.69-3.11-.55-5.25-.04-10.62,1.31-16.02,3.07l9.94-13.3,19.57-26.44,9.57-12.93c-.19,2.21-.61,7.45.42,11.3.66,2.46,2.09,3.83,4.15,4.63,2.01.44,4.14.93,7.54.34,5.35-.93,11.75-3.26,18.44-6.06,8.48-3.54,15.41-6.29,22.43-7.41,7.57-1.21,14.67-.47,22.71,3.24,1.52.72,2.73,1.57,3.69,2.53.96-.96,2.17-1.81,3.69-2.53,8.03-3.71,15.14-4.45,22.71-3.24,7.01,1.12,13.95,3.87,22.43,7.41,6.7,2.8,13.09,5.13,18.45,6.06,3.4.59,5.54.11,7.54-.34,2.07-.8,3.49-2.17,4.15-4.63,1.03-3.86.61-9.09.42-11.3l9.57,12.93,19.58,26.44,9.93,13.3c-5.4-1.76-10.77-3.11-16.02-3.07-1.13-.14-2.28.22-3.11.55-1.07.42-1.92,1.04-2.47,1.76-.67.86-1.05,1.97-1.18,3.03-.08.62-.07,1.14,0,1.5.05.25.1.44.16.58.43,1.08,1.39,2.02,2.64,2.65,1.41.71,3.41,1.06,5.23.67,2.91-.62,6.74-2.82,8.88-5.4.93,3.12,1.64,7.08,1.71,11.08.79,44.04-9.25,79.43-27.14,107.11-21.16,32.75-54.03,55.67-86.79,68.11l-.35.14Zm0-213.85c-1.39,2.13-3.36,3.64-6.22,4.56-7.99,2.41-13.54-.1-14.88-5.61-.8-3.28-.14-4.15.05-7.93.06-1.31-1.42-2.55-3.21-2.13-5.34,1.27-11.59,3.34-19.27,6.54-7.6,3.18-15.01,5.53-21.41,6.65-5.12.89-9.68,1.04-13.4-.13-1.64-.52-3.05-1.25-4.42-1.97l-8.31,11.45c2.07,1.21,3.77,2.77,5.13,4.54,2.3,2.99,3.57,6.5,3.98,9.78.26,2.09.18,4.18-.22,6.04-.19.9-.48,1.83-.86,2.78-1.7,4.25-5.05,7.76-9.28,9.88-2.52,1.26-5.35,2.05-8.33,2.21.04,37.36,9.69,67.62,25.11,91.49,19.47,30.13,45.27,49.38,75.54,60.82,30.27-11.44,56.07-30.69,75.54-60.82,15.43-23.87,25.07-54.13,25.11-91.49-2.98-.17-5.82-.95-8.33-2.21-4.23-2.12-7.58-5.63-9.28-9.88-.38-.95-.67-1.88-.86-2.78-.39-1.86-.48-3.95-.22-6.04.41-3.27,1.69-6.79,3.98-9.78,1.36-1.77,3.06-3.33,5.13-4.54l-8.73-11.43c-1.37.72-2.4,1.39-4.03,1.91-3.86,1.25-8.25,1.06-13.37.16-6.4-1.12-13.81-3.47-21.41-6.65-7.67-3.2-13.93-5.27-19.27-6.54-1.79-.43-3.28.82-3.21,2.13.18,3.79.85,4.66.05,7.93-1.35,5.51-6.89,8.02-14.88,5.61-2.86-.92-4.83-2.43-6.21-4.56h0Z"/>
      <g>
        <path class="cls-1" d="m210.15,60.99c-41.19,0-78.48,16.7-105.48,43.69-27,26.99-43.69,64.29-43.69,105.48s16.7,78.48,43.69,105.48c26.99,26.99,64.28,43.69,105.48,43.69s78.48-16.7,105.48-43.69c26.99-27,43.69-64.28,43.69-105.48s-16.7-78.49-43.69-105.48c-27-27-64.29-43.69-105.48-43.69h0Zm-108.03,41.14c27.65-27.65,65.84-44.75,108.03-44.75s80.39,17.1,108.04,44.75c27.65,27.65,44.75,65.84,44.75,108.03s-17.1,80.39-44.75,108.04c-27.65,27.65-65.84,44.75-108.04,44.75s-80.38-17.1-108.03-44.75c-27.65-27.65-44.75-65.84-44.75-108.04s17.1-80.38,44.75-108.03h0Z"/>
        <path class="cls-1" d="m210.15,3.61c-57.03,0-108.67,23.12-146.04,60.5C26.73,101.49,3.61,153.12,3.61,210.15s23.12,108.67,60.5,146.05c37.38,37.37,89.01,60.49,146.04,60.49s108.67-23.12,146.05-60.49c37.37-37.38,60.49-89.01,60.49-146.05s-23.12-108.67-60.49-146.04C318.82,26.73,267.19,3.61,210.15,3.61h0ZM61.55,61.55C99.58,23.52,152.12,0,210.15,0s110.57,23.52,148.6,61.55c38.03,38.03,61.55,90.57,61.55,148.6s-23.52,110.57-61.55,148.6c-38.03,38.03-90.57,61.56-148.6,61.56s-110.57-23.52-148.6-61.56C23.52,320.72,0,268.19,0,210.15S23.52,99.58,61.55,61.55h0Z"/>
      </g>
      <path class="cls-3" d="m263.55,368.27l-13.75,4.23-1.02-3.3,18.2-5.6.82,2.67c-1.2,2.46-2.2,5.54-2.99,9.24-.79,3.71-1.14,7.38-1.07,11.02.04,2.56.38,5.29,1.06,8.15l-3.54,1.09c-.64-2.23-1.04-5.04-1.17-8.43-.13-3.4.12-6.79.78-10.19.66-3.39,1.55-6.36,2.68-8.89h0Zm54.64-50.08c-27.65,27.65-65.84,44.75-108.04,44.75s-80.38-17.1-108.03-44.75c-27.65-27.65-44.75-65.84-44.75-108.04s17.1-80.38,44.75-108.03c27.65-27.65,65.84-44.75,108.03-44.75s80.39,17.1,108.04,44.75c27.65,27.65,44.75,65.84,44.75,108.03s-17.1,80.39-44.75,108.04h0ZM198.28,38.92l-11.57,1.18-1.34,6.34-6.47.66,7.59-30.92,7.09-.72,13.79,28.75-6.45.65-2.65-5.94Zm17.92,5.74l-5.77-.54,2.82-29.86,9.1.86,3.78,23.29,8-22.17,9.14.86-2.82,29.86-5.77-.54,2.28-24.08-8.34,23.51-6.27-.59-3.87-24.66-2.27,24.08Zm-85.31,20.05l-5.46,2.7-13.29-26.89,5.79-2.86,20.06,13.08-9.13-18.47,5.46-2.7,13.29,26.89-5.72,2.83-20.13-13.04,9.13,18.47Zm27.58-11.86l-5.98,1.71-8.23-28.84,5.98-1.71,3.07,10.75,11.91-3.4-3.07-10.75,5.98-1.7,8.23,28.84-5.98,1.71-3.65-12.8-11.91,3.4,3.65,12.8Zm91.9,343.52c-1.45,2-3.6,3.26-6.45,3.77-2.86.51-5.3.08-7.36-1.3-2.05-1.38-3.3-3.33-3.76-5.86-.34-1.88-.14-3.55.59-4.99.73-1.45,1.94-2.55,3.62-3.33-1.57-.27-2.8-.86-3.7-1.72-.89-.88-1.46-2.02-1.71-3.41-.38-2.11.06-4.01,1.31-5.72,1.26-1.71,3.14-2.79,5.66-3.24,2.52-.45,4.69-.08,6.49,1.11,1.8,1.2,2.89,2.84,3.27,4.95.24,1.34.1,2.58-.42,3.7-.52,1.12-1.45,2.08-2.79,2.88,1.88.26,3.39.95,4.54,2.08,1.16,1.12,1.9,2.58,2.22,4.37.45,2.48-.06,4.71-1.5,6.71h0Zm-26.8-23.5l1.5,29.53-3.61.18-1.17-23.01c-.83.88-1.93,1.77-3.3,2.66-1.37.9-2.61,1.59-3.71,2.06l-.18-3.49c1.97-1.05,3.68-2.29,5.12-3.72,1.45-1.43,2.45-2.79,3.02-4.09l2.32-.12Zm-36.69,2.42l-3.88,25.7-3.86-.58,3.89-25.7-9.6-1.45.52-3.42,23.06,3.49-.52,3.41-9.6-1.45Zm-18.37-6.52c1.4,1.14,2.33,2.5,2.8,4.07.47,1.56.49,3.18.06,4.86l-3.67-.79c.34-1.84.09-3.38-.75-4.61-.84-1.24-2.35-2.18-4.52-2.83-2.26-.67-4.03-.75-5.31-.23-1.28.52-2.09,1.37-2.44,2.54-.3,1.01-.18,1.96.35,2.83.53.87,2.2,2.1,5.04,3.69,2.83,1.59,4.73,2.81,5.71,3.66,1.41,1.24,2.34,2.56,2.78,3.95.44,1.39.43,2.84-.02,4.35-.45,1.5-1.29,2.78-2.55,3.85-1.25,1.07-2.79,1.74-4.62,2-1.83.26-3.75.09-5.76-.51-2.55-.76-4.57-1.77-6.07-3.02-1.51-1.25-2.52-2.77-3.05-4.56-.54-1.78-.55-3.63-.04-5.52l3.6.73c-.26,1.47-.21,2.75.12,3.84.34,1.09,1.07,2.11,2.18,3.05,1.11.94,2.48,1.65,4.08,2.13,1.43.43,2.74.59,3.96.48,1.22-.1,2.2-.45,2.95-1.03.75-.58,1.26-1.31,1.52-2.18.26-.88.23-1.72-.08-2.54-.32-.81-1-1.61-2.05-2.42-.67-.51-2.21-1.47-4.62-2.87-2.41-1.4-4.05-2.52-4.92-3.38-1.14-1.11-1.87-2.29-2.22-3.52-.35-1.24-.33-2.52.05-3.81.43-1.43,1.23-2.64,2.4-3.64,1.18-1,2.63-1.59,4.38-1.77,1.74-.18,3.56.01,5.46.57,2.09.62,3.84,1.5,5.23,2.66h0Zm-16.99-5.79l-1.43,3.14-15.79-7.2-3.75,8.23,14.78,6.74-1.43,3.14-14.78-6.74-4.16,9.13,16.43,7.49-1.43,3.14-19.98-9.11,12.22-26.79,19.34,8.83Zm44.98,35.31l-.34,4.1-4.1-.34.34-4.1,4.1.34ZM210.15,3.61c-57.03,0-108.67,23.12-146.04,60.5C26.73,101.49,3.61,153.12,3.61,210.15s23.12,108.67,60.5,146.05c37.38,37.37,89.01,60.49,146.04,60.49s108.67-23.12,146.05-60.49c37.37-37.38,60.49-89.01,60.49-146.05s-23.12-108.67-60.49-146.04C318.82,26.73,267.19,3.61,210.15,3.61h0ZM64.39,94.06c2.53,1.78,4.02,3.8,4.48,6.07.46,2.26-.16,4.6-1.85,7.02l-4.36,6.2,8.74,6.14-3.55,5.05-24.54-17.25,7.67-10.92c1.81-2.58,3.85-4.05,6.13-4.45,2.27-.39,4.7.32,7.28,2.14h0Zm291.22-15.46l-26.54,16.4-4.35-3.96,12.03-20.11-18.91,13.85-4.35-3.96,13.83-27.96,4.73,4.3-10.45,19.1,17.44-12.73,4.88,4.43-11.04,18.56,18.04-12.19,4.7,4.27Zm-266.76,18.67l-4.36,4.37-21.25-21.16,9.42-9.46c2.22-2.23,4.48-3.34,6.79-3.34,2.3,0,4.57,1.12,6.81,3.35,2.19,2.18,3.32,4.43,3.39,6.74.07,2.3-.94,4.51-3.02,6.6l-5.35,5.37,7.57,7.54Zm193.88,267.1c-.53-1.21-1.39-2.03-2.56-2.46-1.17-.43-2.41-.36-3.7.21-1.29.57-2.18,1.45-2.68,2.65-.5,1.19-.51,2.66-.04,4.4l-3.57.86c-.57-2.4-.42-4.53.48-6.38.89-1.85,2.41-3.25,4.54-4.19,1.47-.65,2.96-.93,4.48-.84,1.52.08,2.84.52,3.97,1.32,1.14.8,1.98,1.81,2.52,3.04.51,1.16.66,2.35.46,3.58-.21,1.23-.8,2.4-1.77,3.5,1.75-.34,3.32-.12,4.72.65,1.39.77,2.46,2.03,3.23,3.77,1.04,2.35,1.06,4.73.07,7.12-1,2.39-2.8,4.17-5.43,5.32-2.36,1.04-4.64,1.2-6.83.48-2.19-.72-3.88-2.15-5.09-4.3l3.11-1.91c1.21,1.71,2.45,2.79,3.72,3.21,1.27.43,2.57.35,3.89-.23,1.57-.69,2.65-1.82,3.24-3.36.59-1.55.54-3.12-.17-4.71-.67-1.52-1.72-2.55-3.15-3.11-1.43-.55-2.91-.49-4.44.19-.63.28-1.35.74-2.18,1.4l-.91-3.06c.23-.07.42-.14.55-.2,1.42-.62,2.52-1.55,3.33-2.79.8-1.23.87-2.61.2-4.13h0ZM57.04,146.46l-12.46-4.67-4.35,11.6,12.46,4.67-2.18,5.82-28.09-10.52,2.18-5.82,10.47,3.92,4.35-11.6-10.47-3.92,2.18-5.82,28.09,10.52-2.18,5.82Zm5-10.65l-26.52-14,2.88-5.46,26.53,14-2.88,5.46Zm41.87-53.14l-17.55-24.32,17.67-12.75,3.05,4.23-12.73,9.18,3.73,5.18,11.65-8.4,3,4.16-11.65,8.4,4.52,6.26,13.33-9.61,3.25,4.5-18.27,13.17Zm211.98-32.84c.86,3.81.07,7.79-2.37,11.97-2.44,4.17-5.52,6.82-9.25,7.95-3.73,1.13-7.53.56-11.4-1.7-3.87-2.26-6.22-5.28-7.07-9.07-.84-3.8-.05-7.79,2.39-11.96,2.44-4.18,5.52-6.84,9.24-7.97,3.72-1.12,7.51-.56,11.38,1.7,3.87,2.25,6.23,5.29,7.09,9.09h0Zm41.11,46.31l-16.69,12.08-3.57-4.93,24.3-17.58,3.79,5.24-9.55,21.95,16.69-12.08,3.57,4.93-24.3,17.58-3.74-5.17,9.5-22.02Zm17.16,44.78l-11.87,4.68-2.23-5.67,27.91-10.99,7.67,19.48-4.85,1.91-5.44-13.82-6.33,2.49,4.77,12.11-4.85,1.91-4.77-12.11Zm-327.56,29.84c1.55,2.71,1.97,5.97,1.29,9.76-.79,4.37-2.77,7.52-5.94,9.44-3.16,1.93-7.21,2.45-12.12,1.56-5.03-.91-8.65-2.85-10.87-5.81-2.23-2.95-2.91-6.75-2.07-11.38.68-3.76,2.14-6.57,4.38-8.42,2.24-1.85,5.05-2.58,8.45-2.18l-1.09,5.99c-1.71-.05-3.11.4-4.19,1.34-1.08.95-1.79,2.37-2.13,4.25-.48,2.67,0,4.85,1.48,6.55,1.47,1.7,3.86,2.85,7.17,3.45,3.2.58,5.81.34,7.81-.72,2-1.06,3.24-2.87,3.7-5.42.34-1.84.14-3.44-.59-4.78-.72-1.35-1.94-2.35-3.64-3.02l1.08-5.95c3.31.84,5.75,2.61,7.29,5.33h0Zm328.8,35.84l-.25-6.12,6.12-.25.25,6.13-6.13.25Zm10.12-12.42c-3.4.35-6.29-.49-8.68-2.52-2.38-2.02-3.9-4.93-4.55-8.73-.75-4.38.04-8.01,2.35-10.91,2.31-2.9,5.94-4.77,10.86-5.61,5.04-.86,9.1-.28,12.2,1.74,3.1,2.02,5.05,5.34,5.84,9.99.64,3.77.24,6.91-1.23,9.41-1.47,2.51-3.86,4.15-7.19,4.94l-1.03-6c1.63-.54,2.79-1.44,3.48-2.7.69-1.26.87-2.84.55-4.72-.46-2.67-1.67-4.56-3.63-5.66-1.96-1.1-4.6-1.35-7.92-.79-3.21.55-5.58,1.66-7.09,3.35-1.52,1.68-2.06,3.8-1.62,6.35.32,1.84,1.05,3.28,2.19,4.29,1.14,1.02,2.62,1.55,4.45,1.6l1.02,5.96Zm-16.49-29.49l-1.8-5.86,5.86-1.8,1.8,5.86-5.86,1.8Zm-98.74-108.5l-5.79-2.14,8.57-23.12-8.33-3.09,1.85-5.01,22.41,8.31-1.86,5-8.29-3.07-8.57,23.12Z"/>
      <path class="cls-3" d="m248.25,390.38c-.31-1.71-1.13-3.03-2.46-3.94-1.33-.92-2.86-1.22-4.59-.91-1.68.31-2.97,1.11-3.86,2.41-.89,1.31-1.19,2.79-.89,4.45.18,1.02.59,1.95,1.24,2.82.64.86,1.49,1.47,2.54,1.81,1.04.35,2.12.43,3.2.23,1.71-.31,3.02-1.11,3.92-2.39.9-1.29,1.2-2.78.9-4.47h0Z"/>
      <path class="cls-3" d="m240.81,382.58c1.38-.25,2.43-.88,3.14-1.9.71-1.02.96-2.16.73-3.41-.24-1.31-.88-2.33-1.94-3.06-1.05-.73-2.25-.97-3.61-.73-1.37.25-2.42.89-3.15,1.92-.73,1.03-.99,2.14-.77,3.36.25,1.38.89,2.42,1.91,3.13,1.03.71,2.26.95,3.68.69h0Z"/>
      <path class="cls-3" d="m58.24,110.19l3.43-4.89c.93-1.32,1.32-2.48,1.19-3.48-.14-.99-.83-1.93-2.08-2.8-1.16-.82-2.25-1.15-3.27-.98-1.01.17-1.93.84-2.75,2l-3.62,5.16,7.1,4.99Z"/>
      <path class="cls-3" d="m71.32,79.75l6.14,6.12,4.22-4.23c1.14-1.14,1.73-2.21,1.76-3.22.03-1-.49-2.04-1.57-3.11-1.01-1.01-2.03-1.51-3.06-1.52-1.03,0-2.04.5-3.05,1.5l-4.45,4.46Z"/>
      <path class="cls-3" d="m190.67,21.79l-2.85,13.12,8.28-.84-5.44-12.28Z"/>
      <path class="cls-3" d="m293.62,50.2c-1.66,2.85-2.32,5.43-1.98,7.75.35,2.32,1.66,4.14,3.93,5.46,2.3,1.34,4.54,1.6,6.74.77,2.2-.84,4.13-2.67,5.79-5.52,1.66-2.86,2.32-5.43,1.96-7.76-.36-2.32-1.68-4.15-3.98-5.49-2.27-1.32-4.5-1.57-6.69-.74-2.18.83-4.11,2.68-5.78,5.54h0Z"/>
      <path class="cls-3" d="m175.18,206.03c-16.58-.46-27.87-11.56-27.92-28.09-.05-16.36,11.39-28.38,28.84-28.27,13.58.09,24.83,9.3,24.82,19.43h-12.32c-1.12-4.66-5.13-9.58-12.5-9.58-12.2,0-15.91,7.87-15.91,18.41,0,9.75,4.85,18.32,15.86,18.32,7.03,0,11.87-4.44,12.98-11.94h12.5c-.96,12.45-10.09,22.17-26.34,21.72h0Zm41.24-77.09c-2.86-.92-4.83-2.43-6.21-4.56-1.39,2.13-3.36,3.64-6.22,4.56-7.99,2.41-13.54-.1-14.88-5.61-.8-3.28-.14-4.15.05-7.93.06-1.31-1.42-2.55-3.21-2.13-5.34,1.27-11.59,3.34-19.27,6.54-7.6,3.18-15.01,5.53-21.41,6.65-5.12.89-9.68,1.04-13.4-.13-1.64-.52-3.05-1.25-4.42-1.97l-8.31,11.45c2.07,1.21,3.77,2.77,5.13,4.54,2.3,2.99,3.57,6.5,3.98,9.78.26,2.09.18,4.18-.22,6.04-.19.9-.48,1.83-.86,2.78-1.7,4.25-5.05,7.76-9.28,9.88-2.52,1.26-5.35,2.05-8.33,2.21.04,37.36,9.69,67.62,25.11,91.49,19.47,30.13,45.27,49.38,75.54,60.82,30.27-11.44,56.07-30.69,75.54-60.82,15.43-23.87,25.07-54.13,25.11-91.49-2.98-.17-5.82-.95-8.33-2.21-4.23-2.12-7.58-5.63-9.28-9.88-.38-.95-.67-1.88-.86-2.78-.39-1.86-.48-3.95-.22-6.04.41-3.27,1.69-6.79,3.98-9.78,1.36-1.77,3.06-3.33,5.13-4.54l-8.73-11.43c-1.37.72-2.4,1.39-4.03,1.91-3.86,1.25-8.25,1.06-13.37.16-6.4-1.12-13.81-3.47-21.41-6.65-7.67-3.2-13.93-5.27-19.27-6.54-1.79-.43-3.28.82-3.21,2.13.18,3.79.85,4.66.05,7.93-1.35,5.51-6.89,8.02-14.88,5.61h0Zm-15.06,76.04v-11.73h13.03v11.73h-13.03Zm32.12.21v-44.01h-17.52v-10.57h47.53v10.57h-17.23v44.01h-12.78Zm28.47-.21v-11.73h13.03v11.73h-13.03Zm-112.1,11.49h40.94v10.05h-28.1v12.28h24.25v9.41h-24.25v22.2h-12.84v-53.94Zm40.71,42.24h13.03v11.73h-13.03v-11.73Zm15.01-15.18c-.05-16.36,11.39-28.37,28.84-28.27,13.58.09,24.83,9.3,24.82,19.43h-12.32c-1.12-4.66-5.14-9.58-12.5-9.58-12.2,0-15.91,7.87-15.91,18.41,0,9.75,4.85,18.32,15.86,18.32,7.03,0,11.87-4.43,12.98-11.94h12.5c-.96,12.45-10.09,22.17-26.34,21.72-16.58-.46-27.87-11.56-27.92-28.09h0Zm56.42,15.18h13.03v11.73h-13.03v-11.73Z"/>
      <path class="cls-3" d="m123.06,269.98c-17.89-27.68-27.93-63.07-27.14-107.11.07-4,.77-7.96,1.71-11.08,2.14,2.58,5.98,4.78,8.88,5.4,1.82.39,3.82.03,5.23-.67,1.25-.63,2.21-1.57,2.64-2.65.05-.13.11-.33.16-.58.08-.37.08-.89,0-1.5-.13-1.07-.51-2.17-1.18-3.03-.55-.72-1.4-1.34-2.47-1.76-.83-.33-1.98-.69-3.11-.55-5.25-.04-10.62,1.31-16.02,3.07l9.94-13.3,19.57-26.44,9.57-12.93c-.19,2.21-.61,7.45.42,11.3.66,2.46,2.09,3.83,4.15,4.63,2.01.44,4.14.93,7.54.34,5.35-.93,11.75-3.26,18.44-6.06,8.48-3.54,15.41-6.29,22.43-7.41,7.57-1.21,14.67-.47,22.71,3.24,1.52.72,2.73,1.57,3.69,2.53.96-.96,2.17-1.81,3.69-2.53,8.03-3.71,15.14-4.45,22.71-3.24,7.01,1.12,13.95,3.87,22.43,7.41,6.7,2.8,13.09,5.13,18.45,6.06,3.4.59,5.54.11,7.54-.34,2.07-.8,3.49-2.17,4.15-4.63,1.03-3.86.61-9.09.42-11.3l9.57,12.93,19.58,26.44,9.93,13.3c-5.4-1.76-10.77-3.11-16.02-3.07-1.13-.14-2.28.22-3.11.55-1.07.42-1.92,1.04-2.47,1.76-.67.86-1.05,1.97-1.18,3.03-.08.62-.07,1.14,0,1.5.05.25.1.44.16.58.43,1.08,1.39,2.02,2.64,2.65,1.41.71,3.41,1.06,5.23.67,2.91-.62,6.74-2.82,8.88-5.4.93,3.12,1.64,7.08,1.71,11.08.79,44.04-9.25,79.43-27.14,107.11-21.16,32.75-54.03,55.67-86.79,68.11l-.35.14-.36-.14c-32.76-12.45-65.63-35.37-86.79-68.11h0Zm87.09,89.35c41.19,0,78.48-16.7,105.48-43.69,26.99-27,43.69-64.28,43.69-105.48s-16.7-78.49-43.69-105.48c-27-27-64.29-43.69-105.48-43.69s-78.48,16.7-105.48,43.69c-27,26.99-43.69,64.29-43.69,105.48s16.7,78.48,43.69,105.48c26.99,26.99,64.28,43.69,105.48,43.69h0Z"/>
    </g>
  </g>
</svg>