<?xml version="1.0" encoding="UTF-8"?>
<svg id="Layer_2" data-name="Layer 2" xmlns="http://www.w3.org/2000/svg" viewBox="0 0 255.76 443.75">
  <defs>
    <style>
      .cls-1, .cls-2, .cls-3, .cls-4, .cls-5, .cls-6, .cls-7 {
        stroke-width: 0px;
      }

      .cls-2 {
        fill: #f57e26;
      }

      .cls-3 {
        fill: #3e58a8;
      }

      .cls-4 {
        fill: #231f20;
      }

      .cls-5 {
        fill: #fee900;
      }

      .cls-6 {
        fill: #fee749;
      }

      .cls-7 {
        fill: #010101;
      }
    </style>
  </defs>
  <g id="Capa_1" data-name="Capa 1">
    <g>
      <path class="cls-7" d="m205.05,105.27h0c-1.74,0,.36.81.36.81,0,0,3.01-4.7,3.46-6.59.86-3.56,1.26-7.19,1.5-10.86,1.5-22.69-4.87-42.94-19.89-59.92C169.92,5.49,143.87-3.83,113.23,1.43c-25.17,4.32-44.18,18.19-57.02,40.15-10.54,18.02-13.31,37.54-9.24,57.97.65,3.26.96,6.39.96,6.27l6.82-.55h150.31Z"/>
      <g>
        <path class="cls-2" d="m116.7,44.75c2.3-.66,3.85-1.98,4.87-4.16,4.34-9.27,2.2-19.87-5.34-26.38-2.92-2.52-6.94-5.42-12.08-5.42-1.87,0-3.79.39-5.71,1.16-29.26,11.79-48.95,41.08-49,72.98.04.67.06,1.34.08,2.01.05,1.54.11,3.13.3,4.72.31,2.58.74,5.17,1.15,7.68l.37,2.29c.53,3.34,2.26,4.89,5.43,4.89.17,0,.35,0,.53-.01,1.17-.05,4.28-.18,4.83-4.03.13-.92.38-1.93.78-3.2,8.64-27.1,26.73-44.77,53.77-52.54Z"/>
        <path class="cls-2" d="m196.42,44.55c-12.73-22.37-32.41-35.6-58.52-39.32l-7.25-1.03,5.52,4.81c.16.14.31.28.47.42.42.38.84.77,1.3,1.1,8.8,6.4,15.91,14.38,21.15,23.72,9.91,17.66,12.5,36.4,7.71,55.7-1.11,4.48-.14,7.87,3.25,11.33,2.17,2.21,4.51,3.24,7.36,3.24.15,0,.31,0,.47,0,2.21-.08,4.63-.12,7.64-.12,1.55,0,3.11,0,4.66.02,1.56,0,3.13.02,4.69.02h1.02c.11,0,.22,0,.33.02,1.21.09,2.34-.13,3.18-.85l.21-.18c2.5-2.14,5.33-4.56,5.91-8.93,2.44-18.22-.63-35.03-9.12-49.95Z"/>
        <path class="cls-2" d="m114.51,10.88c9.92,6.75,13.47,18.56,8.83,29.39-1.43,3.35-.44,5.15,1.63,6.99,9.58,8.51,11.74,21.78,5.37,33.03-1.13,1.99-1.07,3.82.19,5.77,4.71,7.3,12.64,11.66,21.21,11.66,2.8,0,5.58-.47,8.26-1.39,2.01-.69,4.41-1.92,5.26-5.4,2.56-10.53,3.06-20.7,1.48-30.22-3.51-21.14-14.25-38.16-31.94-50.59-4.17-2.93-8.77-5.64-14.19-5.64-2.36,0-4.77.53-7.16,1.57l-3.41,1.49,3.45,2.59c.36.27.69.52,1.03.76Z"/>
        <path class="cls-2" d="m124.89,81.78h.23c1.75,0,3.06-.77,4.02-2.37,6.28-10.44,3.16-25.27-6.81-32.38-1.66-1.19-3.21-1.46-5.17-.9-2.51.72-5.36,1.54-8.1,2.67-23.3,9.59-38.53,26.81-45.27,51.18-.17.63-.58,2.11.34,3.31.9,1.18,2.38,1.19,2.94,1.19h.18c2.03-.04,4.07-.05,6.1-.05l7.79.02,7.5-.02c1.97,0,3.93,0,5.9.05h.18c2.44,0,3.9-1.13,4.47-3.46,2.77-11.25,13.91-19.64,25.68-19.23Zm-30.15,20.52h0s0,0,0,0h0Z"/>
        <path class="cls-2" d="m162.62,97.3c-.78,0-1.64.17-2.63.51-2.78.95-5.65,1.44-8.54,1.44-8.5,0-16.56-4.24-21.56-11.35-2.09-2.98-3.36-4.77-6.24-4.77-1.19,0-2.57.32-4.47.77l-.21.05c-.77.18-1.57.37-2.38.66-8.1,2.93-13.49,8.64-16,16.98l-.84,2.79h69l-1.15-2.95c-.4-1.02-1.6-4.11-4.99-4.11Z"/>
      </g>
      <g>
        <g>
          <path class="cls-6" d="m254.97,301.65V106.08H.79v195.57c-.52,4.67-.79,9.41-.79,14.22,0,70.63,57.25,127.88,127.88,127.88s127.88-57.25,127.88-127.88c0-4.81-.27-9.55-.79-14.22Z"/>
          <path class="cls-3" d="m212.34,294.12v-140.51H43.42v140.51c-.34,3.35-.53,6.76-.53,10.21,0,50.74,38.05,91.88,84.98,91.88s84.98-41.13,84.98-91.88c0-3.45-.18-6.86-.53-10.21Z"/>
        </g>
        <g>
          <path class="cls-5" d="m144.56,255.04c-3.25-2.33-6.4-4.78-10.44-5.48-6.53-1.12-13.03-1.5-18.79,2.68-2.49,1.81-5.11,3.59-7.15,5.86-4.01,4.48-5.87,9.94-5.96,15.97-.08,4.98,1.2,9.57,3.65,13.92,1.81,3.21,4.66,5.31,7.39,7.56,1.06.87,2.18,1.79,3.43,2.28,3.49,1.37,7,2.86,10.79,2.33,4.13.42,7.82-.81,11.33-2.51,1.77-.86,3.3-2.22,4.87-3.43,1.58-1.22,3.34-2.35,4.57-3.88,2.96-3.68,4.31-8.09,4.91-12.74.58-4.46.03-8.82-1.55-12.97-1.45-3.8-3.6-7.12-7.06-9.6Z"/>
          <path class="cls-5" d="m159.69,282.44c-.58-.25-1.2-.72-1.48-1.25-.55-1.04.35-1.2,1.08-1.32,2.1-.34,4.24-.52,6.31-1,2.51-.59,5.07-1.18,7.41-2.22,4.16-1.84,8.45-3.04,13.01-3.91-.8-.25-1.6-.49-2.39-.74-5.11-1.64-10.38-1.95-15.7-1.95-2.61,0-5.22.06-7.81-.1-.71-.04-1.7-.63-2-1.25-.46-.95.66-1.12,1.29-1.55,3.11-2.12,6.28-4.19,9.24-6.51,3.01-2.36,5.77-5.04,8.71-7.49,1-.83,2.22-1.39,3.26-2.27-3.37.02-6.65.2-9.81,1.46-4.81,1.91-9.66,3.71-14.49,5.56-.15.06-.29.19-.43.18-.97-.11-2.23.08-2.83-.45-1.02-.91.29-1.75.83-2.28,2.66-2.59,4.71-5.57,6.29-8.9,1.46-3.09,2.83-6.22,4.37-9.26.61-1.21,1.26-2.47,2.41-3.13l-2.76.33c-3.22,2.41-6.61,4.61-9.69,7.18-2.56,2.14-4.79,4.69-7.13,7.08-.95.97-2.76,1.35-3.82.56-.26-.2-.34-.92-.22-1.32.48-1.57,1.22-3.08,1.57-4.67.55-2.52.86-5.08,1.28-7.63.69-4.2,1.37-8.39,2.07-12.59.09-.55.29-1.08.43-1.61-.13-.1-.26-.19-.39-.29-1.53,1.76-3.16,3.45-4.57,5.3-3.09,4.02-5.04,8.66-6.94,13.32-.66,1.63-1.42,3.23-2.29,4.75-.26.45-1.12.87-1.62.78-.46-.08-1.15-.85-1.15-1.32-.02-6.83-2.7-13.02-4.43-19.45-.55-2.06-.67-4.24-1.06-6.84-.47.78-.88,1.19-.98,1.67-.77,3.53-1.74,7.04-2.13,10.61-.49,4.42-.45,8.9-.74,13.34-.04.6-.6,1.65-.92,1.65-.63,0-1.51-.43-1.86-.96-1.85-2.83-3.44-5.84-5.39-8.6-1.35-1.91-3.23-3.44-4.69-5.28-1.66-2.08-3.11-4.33-4.66-6.5-.17-.25-.34-.5-.89-.72,0,1.19-.09,2.38.02,3.56.52,5.82,2.68,11.16,4.86,16.5.76,1.86,1.53,3.74,1.98,5.69.33,1.4-.53,1.96-1.84,1.28-1.18-.61-2.36-1.36-3.29-2.3-2.91-2.89-6.68-4.22-10.27-5.87-3.49-1.6-7.04-3.06-10-5.59-.16-.14-.43-.14-1.07-.32.5,1.07.74,1.9,1.22,2.55,1.71,2.33,3.43,4.65,5.27,6.88,1.89,2.29,3.88,4.5,5.91,6.67.98,1.05,2.2,1.87,3.22,2.88.77.76,1.47,1.61,2.08,2.51.25.37.41,1.21.21,1.39-.35.31-1.04.43-1.53.34-2.65-.5-5.27-1.14-7.92-1.62-1.52-.28-3.08-.37-4.63-.49-5.04-.39-10.08-.75-15.02-1.11.49.4,1.19.98,1.91,1.54,5.54,4.35,11.93,7.02,18.49,9.38,1.06.38,2.11.86,3.08,1.44.44.26,1.02,1.05.9,1.3-.24.5-.87,1.04-1.41,1.14-1.62.29-3.34.17-4.92.58-3.96,1.03-7.85,2.3-11.8,3.4-3.08.85-6.19,1.58-9.7,2.47,3.56.87,6.85,1.95,10.23,2.43,3.58.5,7.25.45,10.88.6,1.55.06,3.11-.1,4.64.07.65.07,1.24.72,1.86,1.1-.42.47-.78,1.02-1.26,1.41-2.98,2.4-6.02,4.73-8.98,7.15-1.68,1.37-3.25,2.88-4.88,4.33-1.63,1.45-3.25,2.92-4.92,4.32-.52.44-1.22.66-2.25,1.19.8.06,1.19.15,1.55.1,4.14-.54,8.24-1.13,12.02-3.19,2.08-1.13,4.4-1.82,6.61-2.74,1.72-.72,3.41-1.5,5.13-2.2,1.05-.43,2.12-.64,2.95.59-1.96,2.74-4.15,5.35-5.84,8.25-2.4,4.13-4.39,8.51-6.66,12.73-.87,1.62-2.05,3.07-2.92,4.92.94-.5,1.9-.95,2.82-1.49,5.93-3.5,11.13-7.84,15.45-13.26,1.23-1.55,2.88-2.94,5.57-2.67-3.7,9.01-2.11,18.6-4.62,27.89.68-.18,1.13-.16,1.29-.36,1.55-2.04,3.33-3.96,4.5-6.21,1.84-3.52,3.26-7.27,4.87-10.91.69-1.56,1.32-3.16,2.21-4.6.34-.56,1.31-.75,1.99-1.1.21.54.59,1.07.62,1.62.32,5.19,2.1,10.01,3.62,14.9.88,2.82,1.63,5.68,2.47,8.51.19.62.52,1.2.78,1.8.15,0,.3.01.45.02.4-1.85.85-3.69,1.19-5.55,1.17-6.45.79-12.97.9-19.47.03-1.81.47-2.29,2.08-2.06.48.07,1.11.53,1.3.98,2.03,4.76,5.24,8.58,8.92,12.16,2.23,2.17,4.01,4.81,6,7.23.58.71,1.16,1.41,2,2-.2-1.35-.32-2.72-.61-4.05-.7-3.21-1.19-6.52-2.3-9.59-1.32-3.66-3.26-7.1-4.81-10.69-.3-.69-.06-1.62-.08-2.43.87.02,2.03-.32,2.56.11,3.85,3.2,8.16,5.55,12.69,7.64,3.55,1.64,6.92,3.68,10.64,5.7-.17-.5-.21-.86-.39-1.13-1.54-2.32-2.93-4.78-4.72-6.9-2.98-3.55-6.2-6.89-9.36-10.28-.78-.83-1.74-1.49-2.54-2.31-.21-.21-.3-.85-.14-1.06.71-.9,1.47-1.79,2.86-1.29,5.24,1.88,10.7,1.97,16.18,2.09,3.25.07,6.5.49,9.72.76-4.39-2.85-8.46-6.36-13.7-8.03-2.95-.94-5.75-2.32-8.59-3.57Zm-5.6.21c-2.13,7.07-6.72,12.18-13.04,15.67-3.99,2.21-8.29,3.8-12.95,3.28-5.34.39-10.15-1.03-14.53-3.83-5.12-3.28-9.21-7.33-11.27-13.4-1.64-4.84-2.19-9.64-1.34-14.53,1.17-6.72,4.21-12.52,9.82-16.71,5.25-3.91,11.14-6.1,17.7-5.94,2.59.07,5.14,1.01,7.73,1.43,3.48.57,6.12,2.73,8.78,4.69,4.76,3.51,7.78,8.25,9.34,14.03,1.4,5.18,1.28,10.23-.25,15.31Z"/>
          <path class="cls-5" d="m127.48,300.17c-3.79.53-7.3-.96-10.79-2.33-1.25-.49-2.37-1.41-3.43-2.28-2.73-2.24-5.58-4.34-7.39-7.56-2.45-4.35-3.72-8.94-3.65-13.92.09-6.03,1.94-11.5,5.96-15.97,2.03-2.27,4.65-4.05,7.15-5.86,5.76-4.18,12.26-3.8,18.79-2.68,4.04.69,7.19,3.14,10.44,5.48,3.46,2.48,5.61,5.8,7.06,9.6,1.58,4.16,2.13,8.51,1.55,12.97-.6,4.65-1.96,9.05-4.91,12.74-1.23,1.53-2.99,2.65-4.57,3.88-1.57,1.22-3.11,2.58-4.87,3.43-3.51,1.7-7.2,2.93-11.33,2.51Zm4.99-19.89c-.06.17-.12.33-.17.5-1.83,0-3.66-.06-5.48.03-.63.03-1.25.43-1.88.66.03.22.07.45.1.67.66.13,1.32.35,1.99.37,1.37.03,2.74.01,4.1-.1.51-.04,1.05-.33,1.48-.64.43-.31.73-.79,1.08-1.19.34-.32.38-.84.27-1.33-.68-3.17-1.39-6.33-2.09-9.49-.15-.66,0-1.75-1.07-1.41-.49.15-.9,1.11-1.03,1.76-.13.68.21,1.43.21,2.14,0,2.92-.41,5.94,2.47,8.03Zm-7.29-11.37c.8-1.13.43-2.25-1.05-2.64-3.03-.8-6.05-.63-9,.34-.55.18-1.21.92-1.26,1.47-.05.44.73.97,1.2,1.53,1.06-1.53,2.3-1.65,3.29-.59,1.2,1.29,2.24,1.14,3.16-.32.21-.34.86-.63,1.25-.57.77.11,1.5.48,2.42.8Zm-5.92,18.6c.67,2.06.97,2.21,2.49,1.69.29-.1.6-.13.91-.15,2.67-.11,5.37,0,8-.39,2.35-.35,4.6-.42,6.92.01.43.08,1-.57,1.5-.89-.46-.33-.88-.84-1.38-.94-.98-.19-2-.19-3.01-.21-.76-.02-1.53.02-2.29.08-1.53.12-3.06.31-4.59.4-2.81.16-5.63.26-8.54.39Zm18.15-19.92c.88.68,1.41,1.41,1.93,1.4.59,0,1.13-.79,1.77-1.02.53-.2,1.2-.19,1.77-.08.52.1.98.53,1.51.64.13.03.64-.68.56-.92-.15-.52-.47-1.16-.91-1.38-2.91-1.48-5.9-1.19-8.88-.14-.28.1-.57.29-.76.51-.5.59-.89,1.37-.03,1.83.48.26,1.29.11,1.88-.07.52-.16.95-.62,1.15-.77Zm-5.2-4.86c.09.21.18.41.27.62.79,0,1.59.07,2.37-.01,1.74-.18,3.47-.43,5.21-.65.51-.07,1.06-.06,1.52-.25.26-.11.54-.55.53-.83,0-.23-.41-.59-.68-.65-2.69-.54-5.35-.32-7.95.47-.51.15-.85.86-1.27,1.31Zm-12.46-2.11c-1.1.18-2.18.3-3.23.57-.35.09-.6.6-.89.91.35.25.66.58,1.04.72.31.11.7-.04,1.06-.03,2.01.06,4.02.16,6.04.17.51,0,1.02-.24,1.52-.37-.33-.46-.59-1.22-1-1.31-1.5-.34-3.05-.46-4.55-.66Zm15.23,30.03c-.05-.14-.1-.28-.15-.42-.23-.04-.47-.13-.7-.13-2.62.08-5.24.15-7.85.28-.33.02-.64.39-.96.59.21.31.35.76.65.91,2.55,1.29,5.08.71,7.56-.22.53-.2.97-.67,1.44-1.01Z"/>
          <path class="cls-1" d="m132.48,280.28c-2.88-2.09-2.47-5.11-2.47-8.03,0-.72-.34-1.47-.21-2.14.12-.65.53-1.61,1.03-1.76,1.08-.34.93.75,1.07,1.41.7,3.16,1.41,6.32,2.09,9.49.1.49.06,1.01-.27,1.33-.36.41-.66.89-1.08,1.19-.43.31-.97.6-1.48.64-1.36.11-2.73.14-4.1.1-.67-.02-1.33-.24-1.99-.37-.03-.22-.07-.45-.1-.67.62-.23,1.24-.63,1.88-.66,1.82-.09,3.65-.03,5.48-.03.06-.17.12-.33.17-.5Z"/>
          <path class="cls-1" d="m125.19,268.91c-.92-.32-1.65-.69-2.42-.8-.39-.06-1.04.24-1.25.57-.92,1.46-1.96,1.61-3.16.32-.99-1.06-2.23-.94-3.29.59-.47-.56-1.24-1.09-1.2-1.53.06-.54.71-1.29,1.26-1.47,2.95-.97,5.98-1.14,9-.34,1.48.39,1.85,1.51,1.05,2.64Z"/>
          <path class="cls-1" d="m119.27,287.51c2.92-.13,5.73-.23,8.54-.39,1.53-.09,3.06-.28,4.59-.4.76-.06,1.53-.1,2.29-.08,1.01.02,2.03.01,3.01.21.5.1.93.61,1.38.94-.5.31-1.07.97-1.5.89-2.32-.43-4.57-.37-6.92-.01-2.63.4-5.33.27-8,.39-.31.01-.62.05-.91.15-1.52.52-1.82.37-2.49-1.69Z"/>
          <path class="cls-1" d="m137.42,267.59c-.21.14-.63.61-1.15.77-.59.18-1.4.33-1.88.07-.86-.46-.47-1.24.03-1.83.19-.23.48-.41.76-.51,2.97-1.05,5.96-1.34,8.88.14.44.22.76.87.91,1.38.07.25-.43.95-.56.92-.52-.11-.98-.54-1.51-.64-.57-.11-1.24-.11-1.77.08-.64.23-1.18,1.01-1.77,1.02-.52,0-1.05-.72-1.93-1.4Z"/>
          <path class="cls-1" d="m132.23,262.74c.42-.45.76-1.15,1.27-1.31,2.6-.79,5.27-1.01,7.95-.47.27.06.67.42.68.65.01.28-.27.72-.53.83-.46.19-1.01.18-1.52.25-1.73.22-3.47.47-5.21.65-.78.08-1.58.01-2.37.01-.09-.21-.18-.41-.27-.62Z"/>
          <path class="cls-1" d="m119.77,260.63c1.5.2,3.05.32,4.55.66.41.09.67.86,1,1.31-.51.13-1.02.38-1.52.37-2.01-.02-4.02-.12-6.04-.17-.35,0-.75.14-1.06.03-.38-.14-.7-.47-1.04-.72.29-.32.54-.82.89-.91,1.04-.28,2.13-.39,3.23-.57Z"/>
          <path class="cls-1" d="m134.99,290.66c-.48.34-.91.81-1.44,1.01-2.49.93-5.02,1.52-7.56.22-.29-.15-.44-.6-.65-.91.32-.21.63-.58.96-.59,2.62-.13,5.23-.2,7.85-.28.23,0,.47.08.7.13.05.14.1.28.15.42Z"/>
        </g>
      </g>
      <g>
        <path class="cls-4" d="m36.15,193.64h-8.95v-.74c2.34-.56,4.13-1.6,5.37-3.12s1.87-3.25,1.87-5.18c0-1.61-.46-3.09-1.39-4.44s-2.14-2.33-3.64-2.95c-1.92-.8-4.05-1.2-6.4-1.2s-4.42.29-6.31.87c-1.9.58-3.33,1.5-4.31,2.74-.97,1.24-1.46,2.86-1.46,4.84,0,1.62.36,3.11,1.07,4.47.71,1.35,1.94,2.78,3.68,4.28h-2.23c-1.51-1.45-2.61-2.96-3.29-4.52-.68-1.57-1.02-3.4-1.02-5.5,0-2.76.55-5.2,1.66-7.34,1.1-2.14,2.69-3.79,4.76-4.95,2.07-1.16,4.27-1.74,6.61-1.74,2.46,0,4.8.64,7.01,1.93,2.21,1.29,3.92,3.03,5.14,5.22,1.22,2.19,1.83,4.52,1.83,6.98,0,1.82-.39,3.73-1.18,5.75-.46,1.17-.69,1.91-.69,2.23,0,.41.15.76.45,1.06.3.3.77.49,1.42.58v.74Z"/>
        <path class="cls-4" d="m18.8,220.4l-9.07-.97v-22.94h.7v.86c0,.75.13,1.35.4,1.81.18.33.48.58.91.76.3.14,1.1.21,2.4.21h16.99c1.32,0,2.15-.07,2.48-.21s.62-.42.87-.85c.25-.42.37-1,.37-1.72v-.86h.71v13.77h-.71v-1.12c0-.75-.13-1.35-.4-1.81-.18-.33-.48-.59-.91-.78-.3-.14-1.1-.21-2.4-.21H14.68c-1.32,0-2.16.08-2.52.23-.36.15-.63.45-.81.9-.11.32-.17,1.09-.17,2.3v2.15c0,1.37.24,2.51.72,3.43s1.24,1.7,2.29,2.37c1.04.67,2.58,1.3,4.61,1.9v.78Z"/>
        <path class="cls-4" d="m35.56,222.71v13.34h-.71v-.67c0-1-.1-1.69-.31-2.07-.21-.38-.5-.64-.87-.8-.37-.16-1.29-.24-2.76-.24h-12.65c-2.31,0-3.84.17-4.59.52-.75.35-1.37.92-1.87,1.72s-.74,1.81-.74,3.03c0,1.4.31,2.59.94,3.57.63.98,1.5,1.72,2.6,2.21,1.1.49,3.03.73,5.77.73h10.54c1.16,0,1.98-.12,2.48-.36s.84-.55,1.03-.91c.29-.57.44-1.38.44-2.42h.71v8.93h-.71v-.53c0-.72-.15-1.33-.44-1.81s-.73-.83-1.32-1.05c-.41-.17-1.14-.25-2.19-.25h-9.81c-3.04,0-5.23-.2-6.57-.6-1.35-.4-2.59-1.37-3.72-2.92s-1.69-3.66-1.69-6.34c0-2.24.3-3.96.89-5.18.81-1.67,1.85-2.84,3.12-3.52,1.27-.69,2.98-1.03,5.13-1.03h12.65c1.49,0,2.41-.08,2.77-.25.36-.17.65-.45.87-.86s.32-1.16.3-2.25h.71Z"/>
        <path class="cls-4" d="m23.43,267.32c-.57,2.45-1.26,4.17-2.08,5.16-1.16,1.42-2.65,2.13-4.5,2.13-1.94,0-3.55-.78-4.82-2.34-1.54-1.92-2.3-4.7-2.3-8.36v-13.13h.7c0,1.19.11,2,.33,2.43.22.42.51.72.87.89.36.17,1.23.26,2.63.26h16.76c1.4,0,2.28-.08,2.64-.26.36-.17.65-.47.87-.9s.32-1.24.32-2.42h.71v12.38c0,2.96-.26,5.05-.79,6.29-.53,1.23-1.32,2.2-2.36,2.92-1.05.71-2.16,1.07-3.34,1.07-1.24,0-2.35-.45-3.32-1.35-.97-.9-1.74-2.49-2.32-4.76Zm-.97-6.93h-8.29s-.95-.02-.95-.02c-.69,0-1.2.17-1.55.52s-.52.87-.52,1.55c0,1.02.22,1.95.68,2.81.45.86,1.1,1.51,1.96,1.97.86.46,1.81.69,2.87.69,1.21,0,2.29-.28,3.25-.84.96-.56,1.63-1.33,2.01-2.3.38-.98.57-2.44.55-4.38Zm1.49,0c0,1.8.2,3.13.61,3.99.41.86.98,1.51,1.71,1.97s1.68.69,2.82.69,2.08-.23,2.81-.68c.73-.45,1.29-1.1,1.67-1.93s.57-2.18.55-4.04h-10.17Z"/>
      </g>
      <g>
        <path class="cls-4" d="m222.83,301.92h10.61s0-.74,0-.74c0-1.14-.17-2.08-.51-2.8-.34-.72-.92-1.34-1.73-1.84-.81-.5-1.91-.83-3.3-.98v-.67h12.97v.67c-2.45.24-4.07.9-4.85,1.97-.78,1.07-1.17,2.29-1.17,3.65v.74s7.91,0,7.91,0c1.32,0,2.15-.07,2.48-.22.33-.15.62-.43.87-.86.25-.43.37-1,.37-1.72v-.86h.7v13.51h-.7v-.86c0-.75-.13-1.35-.4-1.81-.18-.33-.48-.58-.91-.76-.3-.14-1.1-.21-2.4-.21h-16.99c-1.32,0-2.15.07-2.48.21s-.62.42-.87.85c-.25.42-.37,1-.37,1.72v.86h-.7v-21.79h7.41v.78c-1.74.18-3.03.63-3.87,1.36-.84.73-1.43,1.79-1.77,3.17-.19.76-.29,2.17-.29,4.23v2.4Z"/>
        <path class="cls-4" d="m221.35,287.9v-13.34h.7v.67c0,1,.1,1.69.31,2.07.21.38.5.64.87.8.37.16,1.29.24,2.76.24h12.65c2.31,0,3.84-.17,4.59-.52.75-.35,1.37-.92,1.87-1.72s.74-1.81.74-3.03c0-1.4-.31-2.59-.94-3.57-.63-.98-1.5-1.72-2.6-2.21-1.1-.49-3.03-.73-5.77-.73h-10.53c-1.16,0-1.98.12-2.48.36s-.84.55-1.03.91c-.29.57-.44,1.38-.44,2.42h-.7v-8.94h.7v.53c0,.72.15,1.33.44,1.81.29.48.73.83,1.31,1.05.41.17,1.14.25,2.19.25h9.81c3.04,0,5.23.2,6.57.6,1.35.4,2.58,1.37,3.71,2.92s1.7,3.66,1.7,6.34c0,2.24-.3,3.96-.9,5.18-.81,1.66-1.85,2.84-3.12,3.52s-2.98,1.03-5.12,1.03h-12.65c-1.49,0-2.41.08-2.77.25-.36.17-.65.45-.87.86s-.32,1.16-.3,2.25h-.7Z"/>
        <path class="cls-4" d="m221.35,236.02h6.99v.69c-1.61.41-2.77.86-3.48,1.35-.7.5-1.27,1.18-1.69,2.04-.23.48-.34,1.33-.34,2.53v1.92s19.93,0,19.93,0c1.32,0,2.15-.07,2.48-.22.33-.15.62-.43.87-.86.25-.42.37-1.01.37-1.74v-.86h.7v13.53h-.7v-.86c0-.75-.13-1.35-.4-1.81-.18-.33-.48-.59-.91-.78-.3-.14-1.1-.21-2.4-.21h-19.93s0,1.87,0,1.87c0,1.74.37,3,1.1,3.79,1.03,1.1,2.5,1.8,4.4,2.1v.72h-6.99v-23.2Z"/>
        <path class="cls-4" d="m233.48,217.26c.57-2.45,1.26-4.17,2.08-5.16,1.16-1.42,2.65-2.13,4.5-2.13,1.94,0,3.55.78,4.82,2.34,1.54,1.92,2.31,4.71,2.31,8.36v13.12h-.7c0-1.19-.11-2-.33-2.43-.22-.42-.51-.72-.87-.89-.36-.17-1.23-.26-2.63-.26h-16.76c-1.4,0-2.28.09-2.64.26-.36.17-.65.47-.87.9s-.32,1.24-.32,2.42h-.7v-12.38c0-2.96.26-5.05.79-6.29.53-1.23,1.31-2.2,2.36-2.91,1.05-.71,2.16-1.07,3.34-1.07,1.24,0,2.35.45,3.32,1.35.97.9,1.74,2.49,2.31,4.76Zm.97,6.93h8.29s.95.02.95.02c.69,0,1.2-.17,1.55-.52s.52-.87.52-1.55c0-1.01-.23-1.95-.68-2.81-.45-.86-1.1-1.51-1.96-1.97-.86-.46-1.81-.69-2.87-.69-1.21,0-2.29.28-3.25.84-.96.56-1.63,1.33-2.01,2.31s-.57,2.44-.55,4.38Zm-1.49,0c0-1.8-.2-3.13-.61-3.99-.41-.86-.98-1.51-1.71-1.97s-1.68-.69-2.82-.69-2.08.23-2.81.68c-.73.45-1.29,1.1-1.67,1.93s-.57,2.19-.55,4.04h10.17Z"/>
        <path class="cls-4" d="m220.98,193.52c-.15-4.11,1.05-7.46,3.6-10.03,2.55-2.57,5.75-3.86,9.58-3.86,3.28,0,6.16.96,8.65,2.88,3.3,2.54,4.95,6.13,4.95,10.76,0,4.65-1.57,8.24-4.72,10.78-2.49,2.01-5.44,3.01-8.86,3.01-3.84,0-7.03-1.31-9.59-3.91-2.56-2.61-3.76-5.82-3.61-9.63Zm1.22-.23c0,2.36,1.21,4.16,3.62,5.39,1.98,1,4.83,1.5,8.53,1.5,4.41,0,7.66-.77,9.77-2.32,1.47-1.08,2.21-2.59,2.21-4.54,0-1.31-.32-2.4-.95-3.28-.81-1.12-2.11-1.99-3.9-2.61s-4.11-.93-6.98-.93c-3.42,0-5.97.32-7.67.95-1.69.64-2.89,1.44-3.59,2.43-.7.98-1.05,2.12-1.05,3.4Z"/>
        <path class="cls-4" d="m238.11,153.61l9.07.97v22.94h-.7v-.86c0-.75-.13-1.35-.4-1.81-.18-.33-.48-.58-.91-.76-.3-.14-1.1-.21-2.4-.21h-16.99c-1.32,0-2.15.07-2.48.21s-.62.42-.87.85c-.25.42-.37,1-.37,1.72v.86h-.7v-13.77h.7v1.12c0,.75.13,1.35.4,1.81.18.33.48.59.91.78.3.14,1.1.21,2.4.21h16.46c1.32,0,2.16-.08,2.52-.23.36-.15.63-.45.81-.9.11-.32.17-1.09.17-2.3v-2.15c0-1.37-.24-2.51-.72-3.43s-1.24-1.7-2.29-2.37c-1.04-.67-2.58-1.3-4.61-1.9v-.78Z"/>
      </g>
      <g>
        <path class="cls-4" d="m101.92,431.34v-.7h.86c.75,0,1.32-.12,1.72-.35.4-.23.69-.56.89-.96.11-.27.17-1.07.17-2.4v-16.99c0-1.32-.07-2.15-.21-2.48s-.42-.62-.85-.87c-.43-.25-1-.37-1.72-.37h-.86v-.7h11.56c3.09,0,5.57.42,7.45,1.26,2.3,1.03,4.04,2.58,5.23,4.67,1.19,2.08,1.78,4.44,1.78,7.07,0,1.82-.29,3.49-.88,5.02-.58,1.53-1.34,2.79-2.27,3.79s-2,1.8-3.21,2.4c-1.21.6-2.7,1.07-4.45,1.4-.77.15-1.99.23-3.66.23h-11.56Zm9.85-24.37v20.15c0,1.07.05,1.72.15,1.96s.27.43.51.55c.34.19.84.29,1.49.29,2.12,0,3.74-.72,4.86-2.17,1.52-1.96,2.29-4.99,2.29-9.11,0-3.31-.52-5.96-1.56-7.94-.83-1.55-1.89-2.6-3.18-3.16-.91-.39-2.43-.58-4.55-.57Z"/>
        <path class="cls-4" d="m140.21,406.99v10.52h.52c1.64,0,2.83-.51,3.56-1.54s1.21-2.55,1.41-4.55h.72v13.53h-.72c-.15-1.47-.47-2.68-.96-3.62-.49-.94-1.06-1.57-1.7-1.9-.65-.32-1.59-.49-2.82-.49v7.28c0,1.42.06,2.29.18,2.61.12.32.35.58.68.78s.86.3,1.6.3h1.54c2.41,0,4.35-.56,5.8-1.68,1.45-1.12,2.5-2.82,3.13-5.11h.7l-1.16,8.21h-22.33v-.7h.86c.75,0,1.35-.13,1.81-.4.33-.18.58-.48.76-.91.14-.3.21-1.1.21-2.4v-16.99c0-1.17-.03-1.89-.1-2.15-.13-.44-.36-.79-.7-1.03-.48-.36-1.14-.53-1.98-.53h-.86v-.7h21.62v7.64h-.72c-.37-1.87-.89-3.21-1.55-4.02-.67-.81-1.61-1.41-2.83-1.79-.71-.23-2.04-.34-4-.34h-2.67Z"/>
      </g>
      <g>
        <path class="cls-4" d="m79.81,117.64v10.52h.52c1.64,0,2.83-.51,3.56-1.54s1.21-2.55,1.41-4.55h.72v13.53h-.72c-.15-1.47-.47-2.68-.96-3.62-.49-.94-1.06-1.57-1.7-1.9-.65-.32-1.59-.49-2.82-.49v7.28c0,1.42.06,2.29.18,2.61.12.32.35.58.68.78s.86.3,1.6.3h1.54c2.41,0,4.35-.56,5.8-1.68,1.45-1.12,2.5-2.82,3.13-5.11h.7l-1.16,8.21h-22.33v-.7h.86c.75,0,1.35-.13,1.81-.4.33-.18.58-.48.76-.91.14-.3.21-1.1.21-2.4v-16.99c0-1.17-.03-1.89-.1-2.15-.13-.44-.36-.79-.7-1.03-.48-.36-1.14-.53-1.98-.53h-.86v-.7h21.62v7.64h-.72c-.37-1.87-.89-3.21-1.55-4.02-.67-.81-1.61-1.41-2.83-1.79-.71-.23-2.04-.34-4-.34h-2.67Z"/>
        <path class="cls-4" d="m121.24,115.57v8.95h-.74c-.56-2.34-1.6-4.13-3.12-5.37s-3.25-1.87-5.18-1.87c-1.61,0-3.09.46-4.44,1.39-1.35.93-2.33,2.14-2.95,3.64-.8,1.92-1.2,4.05-1.2,6.4s.29,4.42.88,6.32c.58,1.9,1.5,3.33,2.74,4.31,1.24.97,2.86,1.46,4.84,1.46,1.63,0,3.12-.36,4.47-1.07,1.35-.71,2.78-1.94,4.28-3.68v2.23c-1.45,1.51-2.96,2.61-4.52,3.29-1.57.68-3.4,1.02-5.5,1.02-2.76,0-5.2-.55-7.34-1.66-2.14-1.1-3.79-2.69-4.95-4.76-1.16-2.07-1.74-4.27-1.74-6.61,0-2.46.64-4.8,1.93-7.01,1.29-2.21,3.03-3.92,5.22-5.14,2.19-1.22,4.52-1.83,6.98-1.83,1.81,0,3.73.39,5.75,1.18,1.17.46,1.91.69,2.23.69.41,0,.76-.15,1.06-.45.3-.3.49-.77.58-1.42h.74Z"/>
        <path class="cls-4" d="m137.66,141.28v.7h-13.51v-.7h.86c.75,0,1.35-.13,1.81-.4.33-.18.58-.48.76-.91.14-.3.21-1.1.21-2.4v-16.99c0-1.32-.07-2.15-.21-2.48-.14-.33-.42-.62-.85-.87-.43-.25-1-.37-1.72-.37h-.86v-.7h13.51v.7h-.86c-.75,0-1.35.13-1.81.4-.33.18-.59.48-.78.91-.14.3-.21,1.1-.21,2.4v16.99c0,1.32.07,2.15.22,2.48.15.33.43.62.86.87.42.25,1,.37,1.72.37h.86Z"/>
        <path class="cls-4" d="m144.1,116.86v-.7h13.74v.7h-.84c-.76,0-1.37.13-1.83.4-.32.18-.57.48-.76.91-.14.3-.21,1.1-.21,2.4v12.65c0,2.48-.25,4.28-.74,5.4-.5,1.12-1.37,2.06-2.64,2.82-1.26.76-2.78,1.13-4.56,1.13-2.17,0-3.93-.57-5.27-1.71-1.34-1.14-2.01-2.41-2.01-3.79,0-.89.27-1.61.82-2.16.54-.55,1.21-.83,2-.83s1.43.25,1.95.74c.53.5.79,1.1.79,1.83,0,.36-.05.67-.13.93-.05.13-.25.45-.6.96-.35.52-.52.88-.52,1.1,0,.33.17.62.5.86.48.36,1.11.53,1.89.53.54,0,1-.14,1.35-.42s.61-.71.75-1.31c.15-.59.22-2.23.22-4.92v-13.81c0-1.32-.07-2.15-.22-2.48-.15-.33-.43-.62-.86-.87-.43-.25-1-.37-1.72-.37h-1.09Z"/>
        <path class="cls-4" d="m174.3,134.64h-9.12l-1.09,2.51c-.36.84-.53,1.53-.53,2.08,0,.72.29,1.26.88,1.6.34.2,1.19.36,2.53.46v.7h-8.59v-.7c.93-.14,1.69-.52,2.29-1.15.6-.63,1.33-1.93,2.21-3.9l9.24-20.61h.36l9.32,21.18c.89,2.01,1.62,3.27,2.19,3.79.43.39,1.04.62,1.83.69v.7h-12.5v-.7h.51c1,0,1.71-.14,2.12-.42.28-.2.42-.5.42-.88,0-.23-.04-.46-.11-.7-.03-.11-.22-.59-.57-1.43l-1.37-3.22Zm-.65-1.41l-3.85-8.9-3.96,8.9h7.81Z"/>
      </g>
    </g>
  </g>
</svg>