<?xml version="1.0" encoding="UTF-8"?>
<svg id="Layer_2" data-name="Layer 2" xmlns="http://www.w3.org/2000/svg" viewBox="0 0 278.59 278.64">
  <defs>
    <style>
      .cls-1 {
        fill: #770101;
      }

      .cls-1, .cls-2, .cls-3 {
        stroke-width: 0px;
      }

      .cls-2 {
        fill: #fbc201;
      }

      .cls-3 {
        fill: #fff;
      }
    </style>
  </defs>
  <g id="Ebene_1" data-name="Ebene 1">
    <g>
      <path class="cls-1" d="m278.59,134.8v9.06c-.15.33-.04.69-.07,1.03,0,.27,0,.55,0,.82,0,.27,0,.54,0,.82.03,6.25-.85,12.41-1.98,18.54-1.25,6.8-3.04,13.46-5.31,19.99-2.42,6.96-5.39,13.68-8.88,20.18-3.46,6.45-7.41,12.6-11.85,18.42-2.76,3.62-5.69,7.1-8.79,10.44-2.07,2.23-4.21,4.4-6.41,6.49-4.75,4.51-9.8,8.66-15.15,12.45-6.7,4.75-13.76,8.91-21.19,12.42-12.95,6.11-26.52,10.14-40.72,12.05-3.99.54-7.98.97-12.02,1.03-2.51.04-5.03.12-7.54.1-2.68-.02-5.36.02-8.04-.14-5.36-.32-10.69-.95-15.97-1.91-6.97-1.26-13.81-3-20.51-5.31-7.08-2.44-13.93-5.42-20.54-8.95-8.75-4.67-16.88-10.23-24.46-16.6-4.02-3.38-7.81-7.01-11.41-10.83-5.26-5.56-10.02-11.54-14.29-17.9-5.19-7.75-9.58-15.93-13.15-24.54-2.61-6.3-4.73-12.76-6.38-19.37-1.62-6.45-2.75-12.98-3.43-19.59-.32-3.07-.51-6.15-.51-9.24-.02-3.32-.02-6.65,0-9.97.02-6.63.83-13.18,1.97-19.7,1.13-6.5,2.77-12.88,4.84-19.15,1.86-5.62,4.09-11.1,6.65-16.45,4.77-9.97,10.66-19.22,17.63-27.79,2.71-3.33,5.59-6.5,8.59-9.57,5.27-5.4,10.93-10.33,17-14.8,5.7-4.2,11.69-7.94,17.96-11.23,6.91-3.63,14.08-6.65,21.5-9.07,8.38-2.73,16.95-4.65,25.71-5.73,3.28-.4,6.56-.74,9.88-.75.74,0,1.48-.05,2.22-.06.28,0,.55,0,.83,0,.33,0,.65,0,.98,0,.29,0,.59,0,.88,0,.26,0,.52,0,.78,0,1.2,0,2.41,0,3.61,0,.35,0,.7,0,1.05,0,.38,0,.76,0,1.14,0,.4,0,.81,0,1.21,0,7.94-.03,15.76,1.04,23.51,2.65,10.04,2.07,19.71,5.26,29.05,9.49,9.34,4.23,18.08,9.45,26.27,15.61,3.64,2.74,7.13,5.65,10.48,8.74,7.22,6.64,13.7,13.93,19.38,21.92,3.85,5.41,7.29,11.08,10.34,16.99,3.33,6.44,6.14,13.1,8.42,19.98,2.98,8.99,5.01,18.19,6.1,27.6.36,3.1.51,6.2.52,9.31,0,.35,0,.7,0,1.05,0,.23,0,.46,0,.7.03.26-.08.53.07.78Z"/>
      <path class="cls-2" d="m140.45,11.05c70.71.63,127.96,58.65,127.03,129.8-.92,70.42-58.83,127.36-129.73,126.47-70.58-.88-127.47-58.93-126.49-129.89C12.24,67.21,69.88,10.52,140.45,11.05Z"/>
      <path class="cls-1" d="m261.61,139.24c-.04,67.34-54.79,122.19-122.21,122.2-67.53,0-122.27-55.04-122.24-122.34.02-67.23,54.71-122.16,122.25-122.15,67.58.01,122.16,55.01,122.2,122.29Z"/>
      <path class="cls-3" d="m138.42,224.85c-46.92-.47-85-38.92-84.69-86.19.31-47.3,38.95-85.57,86.62-85.04,47.39.53,85.08,39.4,84.66,86.37-.42,47.35-39.32,85.43-86.6,84.86Z"/>
      <path class="cls-3" d="m214.91,88.06c-.7-.89-1.37-1.76-2.08-2.68,2.46-1.9,4.9-3.78,7.39-5.7-.8-1.04-1.59-2.05-2.36-3.05-.31.11-.5.31-.71.47-2.09,1.6-4.18,3.21-6.26,4.82-.43.33-.43.42-.82-.1-.46-.61-.93-1.21-1.41-1.81-.39-.49-.29-.45.11-.76,2.55-1.95,5.09-3.91,7.64-5.86,2.89-2.22,5.77-4.43,8.66-6.65.61-.47,1.25-.88,2-1.1,1.01-.31,1.94-.14,2.8.45.22.15.43.31.61.5.96,1.04,1.87,2.12,2.64,3.31.99,1.53.84,2.96-.37,4.34-.33.38-.71.71-1.11,1.02-5.49,4.22-10.98,8.43-16.47,12.64-.06.04-.12.08-.25.16Z"/>
      <path class="cls-3" d="m64.02,88.08c-4.44-3.41-8.81-6.76-13.18-10.12-1.16-.89-2.32-1.78-3.47-2.67-.57-.44-1.1-.92-1.51-1.52-.68-.98-.8-2.03-.37-3.14.08-.2.16-.4.28-.58.85-1.31,1.79-2.55,2.91-3.64,1.05-1.02,2.31-1.18,3.65-.61.55.24,1.06.55,1.54.92,5.49,4.21,10.98,8.42,16.47,12.64.07.06.14.13.27.25-.65.83-1.29,1.65-1.93,2.47-.11.15-.23.13-.37.03-.13-.1-.27-.2-.4-.3-2.11-1.62-4.21-3.24-6.32-4.87-.46-.35-.47-.35-.82.11-.66.85-1.32,1.7-2.03,2.63,2.46,1.9,4.91,3.79,7.39,5.7-.71.91-1.38,1.78-2.1,2.69Z"/>
      <path class="cls-3" d="m144.48,48.21c.2-1.74.38-3.4.57-5.07.27-2.33.54-4.66.8-6.99.35-3.04.69-6.09,1.04-9.13.07-.62.23-1.22.5-1.79.55-1.12,1.45-1.75,2.69-1.89,1.13-.13,2.24.11,3.36.23.62.07,1.23.14,1.83.35,1.26.45,2.01,1.33,2.24,2.65.11.59.13,1.19.06,1.79-.42,3.66-.83,7.32-1.25,10.99-.36,3.19-.75,6.37-1.1,9.56-.06.54-.12.51-.56.46-.81-.09-1.62-.19-2.42-.29-.46-.06-.46-.06-.41-.54.33-2.78.64-5.56.99-8.34.05-.41-.08-.5-.42-.54-1.02-.1-2.05-.2-3.07-.32-.36-.04-.39.18-.42.42-.16,1.35-.31,2.71-.47,4.06-.16,1.35-.31,2.71-.47,4.06-.08.69-.1.71-.76.64-.88-.09-1.75-.2-2.72-.32Z"/>
      <path class="cls-3" d="m177.48,32.16c-.02.68-.15,1.38-.36,2.07-1.61,5.33-3.22,10.67-4.83,16,0,.02-.02.05-.02.07-.71,2.2-2.12,3.05-4.36,2.47-2.24-.59-4.45-1.3-6.68-1.94-.41-.12-.29-.35-.22-.61.47-1.56.94-3.11,1.41-4.67,1.87-6.16,3.73-12.31,5.61-18.47.29-.94.15-.77,1.01-.52,1.7.49,3.39,1.02,5.08,1.53.48.15.95.33,1.38.59,1.32.77,1.95,1.92,1.98,3.48Z"/>
      <path class="cls-3" d="m131.86,244.6c-.58.32-1.09.58-1.58.87-.38.23-.77.37-1.22.24-.18-.05-.38-.04-.57-.06-1.87-.22-3.04-1.42-3.21-3.29-.07-.81-.02-1.63.05-2.44.18-1.98.36-3.96.53-5.94.05-.62.14-1.24.33-1.83.53-1.69,1.7-2.59,3.47-2.56,1.27.02,2.54.13,3.78.4,1.52.32,2.44,1.39,2.63,2.94.1.77.04,1.53-.03,2.3-.31,3.43-.63,6.87-.94,10.3-.16,1.76-.32,3.53-.47,5.29-.07.84-.22,1.66-.59,2.43-.57,1.19-1.52,1.84-2.83,1.9-1.37.06-2.73-.06-4.08-.31-1.59-.3-2.56-1.49-2.72-3.19-.08-.86-.03-1.72.09-2.58.04-.32.16-.4.45-.36.93.11,1.86.2,2.79.28.27.02.38.13.34.41-.04.36-.08.72-.07,1.07.03,1.36,1.43,2.13,2.64,1.46.44-.25.6-.68.65-1.14.16-1.52.31-3.05.44-4.58.04-.5.17-.99.11-1.6Z"/>
      <path class="cls-3" d="m69.52,54.71c-.85.76-1.64,1.45-2.42,2.16-.21.19-.34.19-.52-.03-.4-.48-.81-.94-1.23-1.4-.77-.84-1.37-.85-2.2-.05-1.12,1.08-1.14,1.55-.07,2.69.82.88,1.66,1.73,2.44,2.63.54.62,1.14.78,1.92.57,1.59-.42,3.2-.79,4.8-1.17.18-.04.38-.05.57-.08,1.06-.16,1.89.21,2.6,1.03,1.21,1.39,2.49,2.72,3.74,4.07.44.48.84.98,1.14,1.56.64,1.24.57,2.44-.21,3.59-.16.24-.33.47-.54.67-.69.67-1.36,1.35-2.1,1.96-1.58,1.3-3.22,1.3-4.85.07-.71-.54-1.28-1.21-1.95-1.89.83-.76,1.63-1.5,2.47-2.28.22.23.4.44.6.63.22.22.43.46.67.64.56.41,1.04.39,1.57-.04.28-.23.53-.49.77-.75.4-.46.42-.94.08-1.44-.11-.16-.24-.3-.37-.44-.96-1-1.94-1.99-2.89-3-.47-.5-.96-.69-1.66-.52-1.62.4-3.27.73-4.9,1.1-1.26.28-2.29-.04-3.15-1.04-1.18-1.38-2.42-2.72-3.63-4.08-.43-.48-.83-.99-1.12-1.57-.56-1.12-.52-2.21.16-3.27.09-.14.18-.29.29-.41.96-1.11,2.05-2.09,3.27-2.89,1.22-.8,2.49-.75,3.71.04.3.2.59.41.84.66.73.73,1.43,1.48,2.19,2.28Z"/>
      <path class="cls-3" d="m163.16,239.86c.49.13.84.21,1.17.32,1.02.33,1.68,1.03,1.9,2.06.46,2.05.88,4.12,1.29,6.18.1.49.09,1,.02,1.5-.18,1.31-.91,2.2-2.13,2.66-1.28.48-2.64.67-3.98.88-.36.06-.71.03-1.07,0-1.08-.12-1.88-.67-2.42-1.59-.58-.99-.7-2.12-.9-3.23-.04-.21.06-.31.25-.36.89-.19,1.78-.39,2.66-.58.23-.05.35.02.4.27.08.42.15.85.28,1.26.23.75.65.99,1.42.87.4-.06.8-.14,1.19-.26.78-.24,1.07-.73.92-1.53-.32-1.67-.64-3.33-.97-5-.05-.23-.12-.46-.21-.68-.23-.53-.63-.82-1.21-.87-.48-.04-.95.02-1.42.15-.27.07-.46.04-.52-.29-.14-.7-.29-1.4-.45-2.1-.06-.25.05-.36.27-.4.35-.07.7-.15,1.02-.33.63-.34.91-.84.78-1.54-.31-1.65-.62-3.29-.97-4.93-.21-.97-.72-1.29-1.72-1.17-.1.01-.19.02-.28.04-1.1.22-1.41.68-1.2,1.77.13.7.25,1.41.41,2.11.07.32.04.47-.33.54-.82.15-1.64.35-2.45.54-.27.06-.46.03-.52-.29-.2-1.18-.58-2.32-.66-3.52-.03-.48-.02-.96.1-1.43.3-1.16,1.05-1.93,2.16-2.31,1.18-.4,2.39-.69,3.64-.79,1.95-.15,3.19.7,3.79,2.57.32,1,.46,2.05.69,3.08.18.82.32,1.64.51,2.46.14.62.14,1.24.07,1.86-.11.91-.59,1.6-1.51,2.09Z"/>
      <path class="cls-3" d="m94.8,39.41c-.19.1-.31.17-.44.24-.83.42-1.66.84-2.49,1.25-.22-.17-.28-.41-.38-.62-.29-.57-.57-1.16-.87-1.73-.5-.91-1.03-1.08-1.95-.64-.28.13-.56.27-.82.43-.57.36-.73.87-.47,1.49.11.26.26.51.39.77,2.35,4.63,4.69,9.26,7.04,13.89.08.15.14.3.23.45.39.64.91.83,1.59.56.4-.16.79-.35,1.15-.57.62-.38.77-.88.47-1.54-.21-.48-.47-.94-.73-1.45.9-.5,1.77-.98,2.65-1.47.16-.09.28-.07.35.09.46,1.07,1.1,2.07,1.23,3.27.13,1.23-.25,2.25-1.23,2.97-1.32.97-2.78,1.7-4.34,2.17-1.3.39-2.46.03-3.38-1-.39-.43-.7-.91-.96-1.43-2.53-4.99-5.06-9.98-7.59-14.98-.38-.75-.66-1.53-.68-2.39-.02-.92.3-1.68.93-2.33.32-.33.68-.61,1.09-.81.89-.46,1.79-.91,2.69-1.34.45-.22.93-.35,1.44-.41,1.11-.12,2.02.25,2.77,1.05.35.37.64.78.87,1.23.48.93.95,1.88,1.45,2.86Z"/>
      <path class="cls-3" d="m194.14,39.92c-1.29-.66-2.55-1.3-3.8-1.93-.79-.4-.65-.43-1.03.31-.98,1.92-1.95,3.84-2.92,5.76-.23.46-.23.47.21.69.98.5,1.97.98,2.95,1.48.19.09.41.14.56.37-.4.79-.81,1.6-1.2,2.41-.13.27-.27.26-.5.14-1.04-.54-2.09-1.06-3.14-1.58-.5-.25-.51-.25-.74.21-1.14,2.27-2.27,4.53-3.41,6.8-.04.08-.07.18-.13.33,1.48.76,2.96,1.52,4.46,2.3-.47.94-.92,1.83-1.4,2.79-2.51-1.31-4.99-2.59-7.48-3.89.14-.29.25-.53.36-.76,3.55-7.1,7.1-14.21,10.66-21.31.4-.8.25-.76,1.08-.35,2.12,1.06,4.24,2.12,6.35,3.17.52.26.52.27.27.78-.37.75-.75,1.49-1.15,2.27Z"/>
      <path class="cls-3" d="m133.64,22.98c1.41-.07,2.82-.13,4.24-.2.68-.03.61,0,.64.61.03.62.09,1.24.12,1.86.03.56.02.56-.57.59-.69.03-1.39.06-2.08.09-.5.02-.51.03-.49.53.1,2.25.21,4.5.32,6.75.12,2.32.25,4.64.36,6.96.12,2.51.23,5.02.35,7.54.03.63.03.63-.59.67-.72.04-1.43.08-2.15.13-.59.03-.59.03-.62-.53-.08-1.41-.16-2.82-.23-4.23-.26-5.43-.52-10.86-.78-16.29-.02-.41.06-.92-.15-1.18-.24-.3-.76-.02-1.16-.02-.57,0-1.15.05-1.72.09-.23.02-.36-.05-.37-.31-.04-.77-.1-1.53-.14-2.29-.02-.47-.01-.48.51-.5,1.51-.08,3.01-.15,4.52-.23h0Z"/>
      <path class="cls-3" d="m119.7,50.41c-.2-.99-.4-1.95-.59-2.9-1.24-6.17-2.47-12.33-3.71-18.5-.11-.56-.12-.57-.67-.47-.73.13-1.46.27-2.18.42-.3.06-.48.02-.53-.35-.11-.73-.26-1.46-.43-2.18-.08-.32,0-.42.31-.48,1.88-.37,3.75-.76,5.62-1.14,1.1-.23,2.2-.46,3.3-.68.47-.09.48-.08.58.37.15.7.28,1.41.43,2.11.07.32,0,.46-.36.52-.8.14-1.58.37-2.39.5-.39.06-.46.22-.39.57.22,1.05.43,2.11.64,3.16,1.19,5.95,2.38,11.91,3.56,17.87.1.49.09.49-.4.59-.91.19-1.82.38-2.78.59Z"/>
      <path class="cls-3" d="m143.31,255.57c1.03-7.46,2.05-14.89,3.08-22.38-1.12.06-2.17.11-3.21.16-.91.05-1.82.09-2.73.15-.29.02-.38-.07-.39-.35-.05-.88-.11-1.77-.17-2.7.63-.05,1.22-.1,1.81-.14,2.18-.12,4.35-.23,6.53-.37.43-.03.61.14.84.47.6.85.73,1.71.57,2.76-.68,4.66-1.27,9.34-1.88,14.01-.35,2.61-.69,5.22-1.03,7.83-.07.54-.07.55-.59.56-.91,0-1.81,0-2.82,0Z"/>
      <path class="cls-3" d="m195.44,67.4c-2.24-1.6-4.4-3.14-6.58-4.69.16-.23.29-.43.43-.62,4.6-6.54,9.2-13.08,13.8-19.61q.46-.65,1.11-.19c.53.37,1.05.75,1.58,1.13.7.51.59.37.18.96-1.69,2.41-3.4,4.81-5.1,7.21-2.35,3.32-4.7,6.65-7.04,9.97-.07.1-.13.2-.21.29-.24.26-.19.43.1.62.91.62,1.8,1.27,2.7,1.9q.75.53.24,1.27c-.39.57-.78,1.14-1.2,1.76Z"/>
      <path class="cls-3" d="m219.22,54.31c-5.14,5.44-10.23,10.83-15.38,16.28,1.12,1.06,2.23,2.1,3.39,3.2-.68.78-1.35,1.55-2.09,2.4-1.97-1.87-3.92-3.72-5.88-5.58.16-.18.28-.33.41-.47,5.52-5.86,11.03-11.72,16.55-17.59.08-.09.17-.17.24-.26.16-.2.31-.26.53-.05.73.69,1.47,1.36,2.24,2.06Z"/>
      <path class="cls-3" d="m117.14,232.49c-.57.03-1.14.05-1.7.1-.36.03-.51-.08-.52-.46,0-.52-.08-1.05-.14-1.57-.03-.26.04-.38.33-.42,1.44-.18,2.59-.93,3.63-1.88.47-.43.52-.43,1-.01.4.35.77.72,1.18,1.05.31.25.35.5.26.87-1.25,5.25-2.48,10.51-3.72,15.77-.52,2.19-1.03,4.37-1.55,6.56-.02.09-.06.18-.07.28-.04.33-.18.45-.53.37-.84-.2-1.68-.39-2.52-.55-.3-.06-.32-.18-.26-.45.39-1.6.76-3.21,1.14-4.81,1.12-4.72,2.25-9.44,3.36-14.16.05-.2.15-.4.08-.67Z"/>
      <path class="cls-3" d="m108.39,53.71c-.58-1.73-1.15-3.4-1.72-5.08-2.08-6.14-4.17-12.27-6.25-18.41-.05-.14-.09-.27-.14-.41-.07-.2,0-.32.19-.38.95-.32,1.9-.64,2.83-.96.23.19.25.45.32.67,2.57,7.59,5.14,15.18,7.71,22.76.03.09.06.18.1.27.17.35.04.5-.32.61-.89.28-1.76.59-2.74.93Z"/>
      <path class="cls-1" d="m139.39,59.5c43.96.01,79.79,35.85,79.74,79.76-.05,44.02-35.78,79.72-79.76,79.71-43.98-.01-79.75-35.78-79.74-79.74,0-43.95,35.81-79.74,79.77-79.73Z"/>
      <path class="cls-1" d="m220.23,74.8c.99-.77,1.93-1.5,2.88-2.23,1.17-.91,2.34-1.82,3.52-2.73.21-.16.42-.32.65-.44.53-.28,1.02-.23,1.45.19.37.37.72.77,1.01,1.21.44.64.35,1.2-.21,1.73-.14.13-.29.25-.44.36-1.97,1.53-3.93,3.05-5.9,4.58q-.56.43-1.01-.15c-.64-.83-1.28-1.66-1.94-2.51Z"/>
      <path class="cls-1" d="m48.86,71.43c.02-.17.04-.36.13-.53.29-.5.6-.98,1.01-1.39.46-.46.93-.51,1.51-.21.17.09.32.21.47.32,2.07,1.58,4.14,3.17,6.22,4.75.37.28.5.24.09.76-.59.75-1.19,1.5-1.76,2.27-.21.28-.35.37-.67.11-2.11-1.66-4.23-3.3-6.35-4.94-.37-.29-.66-.63-.66-1.15Z"/>
      <path class="cls-1" d="m153.12,36.71c-1.18-.15-2.32-.3-3.45-.42-.39-.04-.39-.25-.35-.54.16-1.31.31-2.61.47-3.92.13-1.07.25-2.14.39-3.2.04-.36.08-.72.17-1.06.18-.7.62-1.03,1.35-1.04.43,0,.86.06,1.28.14.88.18,1.27.67,1.2,1.58-.07.83-.18,1.66-.28,2.49-.23,1.9-.46,3.8-.69,5.7,0,.07-.03.14-.07.27Z"/>
      <path class="cls-1" d="m170.78,30.14c.81.25,1.59.46,2.36.73.75.26,1.03.77.93,1.57-.04.31-.12.61-.21.91-1.53,5-3.06,10.01-4.59,15.01-.04.14-.08.27-.13.41-.25.66-.65.89-1.35.71-.76-.19-1.51-.45-2.28-.63-.41-.09-.42-.26-.31-.6.46-1.46.9-2.92,1.35-4.38,1.34-4.36,2.68-8.73,4.02-13.09.06-.2.14-.4.22-.63Z"/>
      <path class="cls-1" d="m130.95,242.94c-.38-.04-.77,0-1.14-.09-.64-.16-.99-.53-1.07-1.18-.07-.53-.01-1.05.04-1.58.18-1.83.37-3.66.55-5.49.01-.14.03-.29.05-.43.18-.98.75-1.38,1.74-1.25.14.02.28.05.42.07,1.03.13,1.43.6,1.34,1.64-.19,2.12-.41,4.24-.62,6.35-.05.52-.11,1.05-.15,1.57-.02.29-.12.43-.44.39-.24-.03-.48,0-.72,0Z"/>
      <path class="cls-3" d="m76.71,178.23c-.05-.06-.12-.12-.17-.2-1.17-1.89-2.28-3.82-3.3-5.81-.19-.38-.16-.63.11-.95,7.41-9.31,16.33-16.81,26.89-22.33.56-.29.76-.59.76-1.24-.02-19.1-.02-38.2-.01-57.3,0-1.04-.17-.91.91-.91,4.53,0,9.06,0,13.59,0,.07,0,.14,0,.22,0,.76,0,.67-.07.67.71,0,1.7,0,3.4,0,5.1,0,2.92,0,5.85,0,8.77,0,.68-.11.68.63.68,4.67,0,9.35,0,14.02,0,.12,0,.24,0,.36,0,.23.01.29-.11.28-.31,0-.19,0-.38,0-.58,0-4.53,0-9.06,0-13.59,0-.91-.08-.79.82-.79,4.55,0,9.11,0,13.66,0,.07,0,.14,0,.22,0,.68,0,.61,0,.61.64,0,4.6,0,9.2,0,13.8q0,.82.84.82c4.53,0,9.06,0,13.59,0,.17,0,.34,0,.5,0,.24.01.36-.07.34-.33-.01-.17,0-.34,0-.5,0-4.53,0-9.06,0-13.59,0-.17,0-.34,0-.5-.01-.24.07-.37.32-.35.14,0,.29,0,.43,0,4.6,0,9.2,0,13.81,0,.14,0,.29,0,.43,0,.21,0,.31.08.3.3,0,.22,0,.43,0,.65,0,19,0,38.01,0,57.01,0,.17.02.34,0,.5-.05.37.12.55.44.71,1.71.87,3.38,1.81,5.01,2.8,8.62,5.21,16.05,11.77,22.3,19.67.35.45.38.76.12,1.26-.98,1.9-2.02,3.75-3.16,5.55-.06.1-.14.19-.21.29-17.82-16.06-38.65-24.45-62.66-24.46-24.02,0-44.84,8.44-62.68,24.45Z"/>
      <path class="cls-3" d="m200.05,156.5c-.93-.81-1.73-1.52-2.56-2.2-4.23-3.54-8.72-6.71-13.51-9.45-.32-.18-.56-.34-.55-.8.02-4.79.01-9.58.02-14.37,0-.09.01-.18.03-.38,2.84,1.41,5.5,3.04,8.23,4.73v-11.66c.25-.17.37,0,.5.08,2.57,1.53,5.02,3.24,7.52,4.89.25.17.37.35.33.65-.01.07,0,.14,0,.22,0,9.22,0,18.44,0,27.66v.65Z"/>
      <path class="cls-3" d="m78.82,156.58c0-.37,0-.6,0-.83,0-9.13,0-18.25-.01-27.38,0-.54.16-.86.6-1.17,2.29-1.61,4.6-3.19,7.08-4.51.17-.09.34-.17.61-.31.03,1.04.01,2.01.01,2.97,0,.98,0,1.96,0,2.95v2.87c0,.97,0,1.95,0,3.05,2.71-1.76,5.42-3.26,8.17-4.71.16.16.1.33.1.48,0,4.69,0,9.39,0,14.08,0,.36-.05.59-.42.8-5.65,3.23-10.9,7.02-15.76,11.36-.09.08-.18.15-.4.33Z"/>
    </g>
  </g>
</svg>