<?xml version="1.0" encoding="UTF-8"?>
<svg id="Layer_2" data-name="Layer 2" xmlns="http://www.w3.org/2000/svg" xmlns:xlink="http://www.w3.org/1999/xlink" viewBox="0 0 33.56 19.57">
  <defs>
    <style>
      .cls-1 {
        clip-path: url(#clippath);
      }

      .cls-2 {
        fill: none;
      }

      .cls-2, .cls-3, .cls-4, .cls-5, .cls-6, .cls-7 {
        stroke-width: 0px;
      }

      .cls-8 {
        clip-path: url(#clippath-1);
      }

      .cls-9 {
        clip-path: url(#clippath-4);
      }

      .cls-10 {
        clip-path: url(#clippath-3);
      }

      .cls-11 {
        clip-path: url(#clippath-2);
      }

      .cls-12 {
        clip-path: url(#clippath-7);
      }

      .cls-13 {
        clip-path: url(#clippath-8);
      }

      .cls-14 {
        clip-path: url(#clippath-6);
      }

      .cls-15 {
        clip-path: url(#clippath-5);
      }

      .cls-16 {
        clip-path: url(#clippath-9);
      }

      .cls-17 {
        clip-path: url(#clippath-10);
      }

      .cls-18 {
        clip-path: url(#clippath-11);
      }

      .cls-3 {
        fill: #f4c533;
      }

      .cls-4 {
        fill: #4d72c0;
      }

      .cls-5 {
        fill: #508e38;
      }

      .cls-6 {
        fill: #bc0030;
      }

      .cls-7 {
        fill: #fff;
      }
    </style>
    <clipPath id="clippath">
      <rect class="cls-2" width="33.56" height="19.57"/>
    </clipPath>
    <clipPath id="clippath-1">
      <rect class="cls-2" width="33.56" height="19.57"/>
    </clipPath>
    <clipPath id="clippath-2">
      <rect class="cls-2" width="33.56" height="19.57"/>
    </clipPath>
    <clipPath id="clippath-3">
      <rect class="cls-2" width="33.56" height="19.57"/>
    </clipPath>
    <clipPath id="clippath-4">
      <rect class="cls-2" width="33.56" height="19.57"/>
    </clipPath>
    <clipPath id="clippath-5">
      <rect class="cls-2" width="33.56" height="19.57"/>
    </clipPath>
    <clipPath id="clippath-6">
      <rect class="cls-2" width="33.56" height="19.57"/>
    </clipPath>
    <clipPath id="clippath-7">
      <rect class="cls-2" width="33.56" height="19.57"/>
    </clipPath>
    <clipPath id="clippath-8">
      <rect class="cls-2" width="33.56" height="19.57"/>
    </clipPath>
    <clipPath id="clippath-9">
      <rect class="cls-2" width="33.56" height="19.57"/>
    </clipPath>
    <clipPath id="clippath-10">
      <rect class="cls-2" width="33.56" height="19.57"/>
    </clipPath>
    <clipPath id="clippath-11">
      <rect class="cls-2" width="33.56" height="19.57"/>
    </clipPath>
  </defs>
  <g id="Layer_1-2" data-name="Layer 1">
    <g id="COMOROS">
      <g>
        <g class="cls-1">
          <rect class="cls-3" width="33.56" height="19.57"/>
        </g>
        <g class="cls-8">
          <rect class="cls-7" y="4.89" width="33.56" height="14.68"/>
        </g>
        <g class="cls-11">
          <rect class="cls-6" y="9.79" width="33.56" height="9.79"/>
        </g>
        <g class="cls-10">
          <rect class="cls-4" y="14.68" width="33.56" height="4.89"/>
        </g>
        <g class="cls-9">
          <polygon class="cls-5" points="0 0 0 19.57 16.32 9.79 0 0"/>
        </g>
        <g class="cls-15">
          <g>
            <g class="cls-14">
              <path class="cls-7" d="m9.95,9.79c0,2.43-1.97,4.41-4.4,4.41-2.43,0-4.4-1.97-4.4-4.41h0c0-2.43,1.97-4.41,4.4-4.41s4.4,1.97,4.4,4.4h0Z"/>
            </g>
            <g class="cls-12">
              <path class="cls-5" d="m11.91,9.79c0,2.43-1.97,4.41-4.4,4.41-2.43,0-4.4-1.97-4.4-4.41h0c0-2.43,1.97-4.41,4.4-4.41s4.41,1.97,4.41,4.4h0Z"/>
            </g>
            <g class="cls-13">
              <polygon class="cls-7" points="5.75 12.69 6.34 12.69 6.53 12.12 6.71 12.69 7.3 12.69 6.82 13.04 7.01 13.61 6.53 13.25 6.05 13.61 6.23 13.04 5.75 12.69"/>
            </g>
            <g class="cls-16">
              <polygon class="cls-7" points="5.75 6.38 6.34 6.38 6.53 5.82 6.71 6.38 7.3 6.38 6.82 6.73 7.01 7.29 6.53 6.95 6.05 7.29 6.23 6.73 5.75 6.38"/>
            </g>
            <g class="cls-17">
              <polygon class="cls-7" points="5.75 8.48 6.34 8.48 6.53 7.92 6.71 8.48 7.3 8.48 6.82 8.83 7.01 9.4 6.53 9.05 6.05 9.4 6.23 8.83 5.75 8.48"/>
            </g>
            <g class="cls-18">
              <polygon class="cls-7" points="5.75 10.59 6.34 10.59 6.53 10.02 6.71 10.59 7.3 10.59 6.82 10.94 7.01 11.5 6.53 11.15 6.05 11.5 6.23 10.94 5.75 10.59"/>
            </g>
          </g>
        </g>
      </g>
    </g>
  </g>
</svg>