<?xml version="1.0" encoding="UTF-8"?>
<svg id="Layer_2" data-name="Layer 2" xmlns="http://www.w3.org/2000/svg" viewBox="0 0 311 321.61">
  <defs>
    <style>
      .cls-1 {
        fill: #114169;
      }

      .cls-1, .cls-2, .cls-3, .cls-4, .cls-5, .cls-6, .cls-7 {
        stroke-width: 0px;
      }

      .cls-2 {
        fill: #114168;
      }

      .cls-3 {
        fill: #c4d0da;
      }

      .cls-4 {
        fill: #97acbd;
      }

      .cls-5 {
        fill: #fdfefe;
      }

      .cls-6 {
        fill: #fefefe;
      }

      .cls-7 {
        fill: #00527e;
      }
    </style>
  </defs>
  <g id="Ebene_1" data-name="Ebene 1">
    <g>
      <path class="cls-3" d="m311,175.51c-3.2.02-6.41.04-9.61.04-11.81,0-23.62-.02-35.43-.03-.01-.67.53-.59.92-.66.56-.1,1.14-.05,1.71-.05,13.04,0,26.09,0,39.13,0,.48,0,.97-.01,1.45,0,.77,0,1.12-.35,1.12-1.12,0-.53.01-1.05.01-1.58,0-20.38,0-40.76,0-61.14,0-.82-.18-1.68.38-2.42l.31-.03v66.99Z"/>
      <path class="cls-4" d="m189.14,321.33c0,.09.01.19.02.28h-66.72c-.03-.08-.03-.17,0-.26.72-.6,1.58-.43,2.4-.43,17.43,0,34.86,0,52.28,0,3.38,0,6.76,0,10.14,0,.65,0,1.33-.08,1.88.41Z"/>
      <path class="cls-2" d="m189.14,321.33c-19.64,0-39.29.01-58.93.02-2.59,0-5.19,0-7.78,0-.03-.52-.08-1.05-.08-1.57,0-11.6-.02-23.2.02-34.81,0-.96-.3-1.48-1.12-1.96-13.41-7.95-26.07-16.93-37.41-27.67-13.82-13.1-24.84-28.12-31.65-46.05-3.99-10.49-6.11-21.32-6.19-32.54,0-1.1-.29-1.36-1.38-1.36-14.37.04-28.74.01-43.11.06-1.22,0-1.51-.32-1.5-1.52C.04,152.62.04,131.31,0,109.99c0-1.22.32-1.49,1.51-1.49,14.33.04,28.65.01,42.98.06,1.16,0,1.44-.27,1.44-1.44-.04-18.59-.01-37.18-.07-55.77,0-1.32.45-1.69,1.61-1.92,7.47-1.47,15.03-2.15,22.62-2.62,16.94-1.04,33.9-1.13,50.86-1.1,1.21,0,1.43-.35,1.43-1.48-.04-14.24-.01-28.48-.05-42.72,0-1.17.25-1.53,1.49-1.52,21.31.04,42.63.04,63.94,0,1.11,0,1.46.21,1.46,1.41-.05,14.28-.02,28.57-.06,42.85,0,1.15.26,1.46,1.43,1.45,13.53-.04,27.07.04,40.6.59,10.01.41,20.01.91,29.91,2.61,1.21.21,2.39.58,3.61.74,1.07.14,1.27.66,1.27,1.66-.03,18.5,0,37-.05,55.51,0,1.31.24,1.74,1.67,1.74,14.37-.06,28.74-.03,43.11-.02.01.44.04.88.04,1.32,0,21.34-.01,42.68.03,64.02,0,1.24-.36,1.49-1.53,1.49-13.96-.04-27.92-.03-41.89-.02-.46,0-.96-.18-1.39.17-.27,3.28-.5,6.56-.82,9.83-1.1,11.39-4.34,22.16-9.39,32.4-7.42,15.05-17.81,27.81-30.09,39.12-10.79,9.95-22.67,18.42-35.26,25.93-.89.53-1.25,1.08-1.25,2.16.04,11.64.03,23.28.03,34.92,0,.48-.03.96-.04,1.45Z"/>
      <path class="cls-6" d="m155.87,56.67c18.37,0,36.74-.06,55.11.02,9.67.04,19.33.33,28.98.94,4.65.29,9.29.62,13.92,1.13.87.1,1.23.31,1.22,1.33-.04,37.01,0,74.02-.07,111.02-.02,11.48-1.32,22.78-5.48,33.61-.99,2.58-2.09,5.11-3.26,7.61-.31.67-.76,1.12-1.4,1.48-8.34,4.7-17.36,7.25-26.76,8.64-8.95,1.32-17.94,1.52-26.95.77-6.17-.51-12.29-1.49-18.44-2.23-11.6-1.39-23.06-3.67-34.62-5.31-10.81-1.54-21.67-2.3-32.58-1.13-11.47,1.23-22.58,3.74-32.84,9.26-.74.4-1.01.21-1.4-.41-6.88-11.08-11.74-22.94-13.66-35.9-.74-5-.89-10.06-.89-15.12,0-37.4,0-74.81-.05-112.21,0-1.46.74-1.39,1.66-1.48,13.26-1.36,26.56-1.75,39.88-1.97,19.21-.32,38.41-.06,57.62-.04Z"/>
      <path class="cls-6" d="m239.11,224.88c-3.58,5.38-7.51,10.32-11.8,14.98-12.29,13.38-26.7,24.1-42.19,33.45-9.36,5.65-19.08,10.63-28.97,15.27-.56.26-1.01.29-1.59,0-14.76-7.4-29.32-15.13-42.87-24.63-4.79-3.36-9.43-6.9-14.01-10.81,1.28-.32,2.47-.27,3.65-.26,8.11.04,15.91,1.93,23.69,3.98,8.69,2.29,17.28,4.98,26.14,6.6,9.12,1.67,18.23,2.18,27.24-.65,7.69-2.42,14.02-6.91,19.49-12.81-.63-.32-.98.13-1.37.32-9.02,4.44-18.57,5.62-28.47,4.7-9.58-.89-18.77-3.6-28.01-6.06-8.1-2.16-16.21-4.27-24.6-5-7.93-.69-15.7.01-23.17,2.95-.56.22-1.02.5-1.64-.1-4.03-3.93-7.87-8.04-11.43-12.41-.1-.13-.17-.29-.31-.52,4.48-1.08,8.96-1.58,13.45-1.92,10.35-.79,20.63.17,30.88,1.47,11.54,1.45,22.99,3.56,34.49,5.26,10.44,1.54,20.9,2.85,31.48,2.68,12.96-.21,25.49-2.45,37.18-8.35,4.13-2.08,7.99-4.59,11.53-7.58.28-.24.49-.64,1.18-.57Z"/>
      <path class="cls-1" d="m188.9,133.18c-.79,3.53-1.58,7.07-2.37,10.6-2.19,9.8-4.38,19.6-6.58,29.4-.35,1.56-.97,2.06-2.54,2.08-.83,0-1.67,0-2.5,0-1.69-.01-2.27-.46-2.65-2.11-1.67-7.4-3.32-14.81-4.98-22.21-1.24-5.56-2.48-11.13-3.72-16.69-.07-.32-.19-.64-.47-.93v1.89c0,12.52,0,25.05,0,37.57,0,2.11-.36,2.47-2.43,2.47-2.02,0-4.04,0-6.06,0-1.72,0-2.18-.46-2.18-2.19,0-5.41,0-10.81,0-16.22,0-15.34,0-30.67,0-46.01,0-2.38.28-2.67,2.64-2.67,2.9,0,5.8,0,8.7,0,2.14,0,2.57.36,3.03,2.45,2.99,13.53,5.97,27.07,8.96,40.6.08.38.2.76.38,1.39,1.03-4.63,2.02-9.01,2.98-13.4,2.13-9.64,4.24-19.27,6.37-28.91.36-1.64.95-2.12,2.64-2.13,3.21-.01,6.42-.01,9.62,0,1.69,0,2.2.52,2.2,2.21,0,20.87,0,41.75,0,62.62,0,1.75-.51,2.25-2.28,2.25-2.02,0-4.04,0-6.06,0-1.95,0-2.4-.45-2.4-2.4,0-12.74,0-25.49,0-38.23v-1.45c-.09,0-.19,0-.28-.01Z"/>
      <path class="cls-1" d="m244,141.85c0,7.29,0,14.58,0,21.88,0,6.93-3.16,10.72-10.08,11.37-4.62.43-9.31.49-13.94-.12-5.75-.76-9.11-4.59-9.13-10.38-.05-15.15-.06-30.31,0-45.46.03-6.42,3.86-10.49,10.24-10.93,4.29-.3,8.61-.31,12.9.02,5.93.46,9.93,4.75,9.98,10.7.06,7.64.02,15.29.02,22.93h0Z"/>
      <path class="cls-1" d="m110.28,141.8c0-7.86-.07-15.73.03-23.59.06-4.69,2.95-8.27,7.44-9.56.71-.21,1.45-.36,2.19-.41,4.47-.28,8.96-.34,13.43,0,5.92.44,9.9,4.61,9.93,10.56.08,15.42.08,30.84,0,46.25-.03,5.83-3.56,9.47-10.01,10.05-4.62.42-9.31.49-13.94-.12-5.77-.76-9.05-4.56-9.08-10.38-.04-7.6-.01-15.2-.01-22.8,0,0,.02,0,.03,0Z"/>
      <path class="cls-1" d="m67.82,141.8c0-7.38,0-14.77,0-22.15.01-7.01,3.65-11.09,10.64-11.45,4.72-.24,9.51-.6,14.19.33,4.83.95,8,4.75,8.19,9.66.14,3.47.08,6.94.05,10.41-.01,1.52-.37,1.84-1.91,1.85-2.24.02-4.48-.02-6.72.02-1.3.02-1.83-.6-1.82-1.84.01-2.02.02-4.04,0-6.06-.03-2.58-1.05-3.74-3.6-3.92-1.62-.11-3.26-.11-4.87,0-2.56.17-3.6,1.32-3.61,3.89-.02,6.42,0,12.83,0,19.25,0,6.24,0,12.48,0,18.72,0,3.06,1.16,4.21,4.22,4.24,1.19.01,2.37,0,3.56,0,3.16-.02,4.3-1.16,4.31-4.28,0-1.85.03-3.69,0-5.54-.02-1.16.46-1.68,1.65-1.66,2.37.04,4.75.04,7.12,0,1.24-.02,1.74.52,1.73,1.74-.03,3.38.06,6.77-.05,10.15-.17,5.18-2.92,8.77-8.05,9.59-5.94.95-12.01,1.19-17.92-.27-4.42-1.09-7.01-4.66-7.05-9.2-.07-7.82-.02-15.65-.02-23.47h-.02Z"/>
      <path class="cls-1" d="m94.72,207.82c3.43-5.37,8.15-9.13,13.82-11.71,8.42-3.84,17.32-4.93,26.48-4.37,10.52.65,20.68,3.33,30.93,5.52,8.21,1.75,16.44,3.33,24.9,3.08,8.71-.26,16.92-2.3,24.52-6.61.18-.1.37-.19.56-.29.27.44-.08.62-.26.82-7.03,8.23-15.69,13.68-26.5,15.42-6.17.99-12.34.78-18.51,0-10.11-1.3-19.95-4-29.91-6.07-7.58-1.57-15.19-2.84-22.99-2.26-7.76.57-15.13,2.42-21.97,6.23-.28.16-.53.5-1.08.25Z"/>
      <path class="cls-7" d="m174.63,84.13c0,2.24.02,4.48,0,6.72-.02,2.98-1.08,4.17-4.08,4.31-3.15.15-6.32.18-9.48-.03-2.62-.17-3.67-1.29-3.75-3.93-.06-1.8-.02-3.6-.02-5.4,0-2.9-.03-5.8,0-8.69.04-3.2,1.32-4.43,4.53-4.45,2.81-.01,5.62-.02,8.43,0,3.01.03,4.32,1.34,4.36,4.36.03,2.37,0,4.74,0,7.11Z"/>
      <path class="cls-7" d="m142.32,85.41c0,2.9-.03,5.79.02,8.69.02.99-.33,1.34-1.3,1.26-.87-.07-1.76-.08-2.63,0-1.1.11-1.36-.38-1.32-1.37.06-1.45-.02-2.9.03-4.34.03-.77-.25-.97-.98-.95-2.15.04-4.3.05-6.45,0-3.55-.08-4.62-1.2-4.63-4.71,0-2.41-.02-4.83.01-7.24.04-2.73,1.35-4.04,4.06-4.08,3.03-.04,6.06-.04,9.08,0,2.74.04,4.01,1.28,4.08,4.05.07,2.89.02,5.79.02,8.69,0,0,0,0,.01,0Z"/>
      <path class="cls-7" d="m197.06,72.64c2.42,0,4.83.03,7.24-.02.89-.02,1.2.24,1.25,1.18.13,2.43-.34,4.61-1.55,6.78-2.46,4.39-4.71,8.91-7,13.4-.48.95-1.08,1.39-2.15,1.3-.92-.08-1.84-.01-2.76-.02-1.63,0-1.69-.1-.9-1.61,1.99-3.8,3.99-7.6,5.99-11.41.61-1.16,1.18-2.36,1.85-3.48.57-.95.57-1.31-.72-1.28-2.81.08-5.62,0-8.43.04-.99.02-1.4-.24-1.41-1.31-.03-3.57-.07-3.57,3.46-3.57,1.71,0,3.42,0,5.14,0Z"/>
      <path class="cls-7" d="m111.71,83.86c0,3.34-.04,6.68.02,10.02.02,1.12-.38,1.48-1.45,1.4-1-.07-2.02-.03-3.03-.01-.66,0-.94-.26-.94-.94.01-6.94.01-13.88,0-20.82,0-.59.19-.93.83-.9.09,0,.18,0,.26,0,1.35.07,3.05-.54,3.96.24.96.82.29,2.57.32,3.91.07,2.37.02,4.74.02,7.12Z"/>
      <path class="cls-6" d="m233.47,141.75c0,6.33,0,12.65,0,18.98,0,2.71-1.21,3.95-3.9,4-1.49.03-2.99.03-4.48,0-2.43-.07-3.68-1.36-3.72-3.81-.03-1.54,0-3.07,0-4.61,0-11.07,0-22.14,0-33.21,0-3.29,1.14-4.45,4.41-4.49,1.4-.02,2.82-.06,4.21.06,2.49.21,3.48,1.35,3.48,3.86,0,6.41,0,12.83,0,19.24Z"/>
      <path class="cls-6" d="m132.83,141.68c0,6.28,0,12.56,0,18.84,0,3.06-1.13,4.19-4.21,4.22-1.49.01-2.99.03-4.48-.03-2.02-.09-3.27-1.31-3.34-3.33-.08-2.11-.04-4.22-.04-6.32,0-10.63,0-21.26,0-31.88,0-3.46,1.09-4.55,4.56-4.57,1.19,0,2.37-.03,3.56.02,2.85.12,3.94,1.25,3.94,4.1.01,6.32,0,12.65,0,18.97Z"/>
      <path class="cls-5" d="m169.33,83.97c0,1.62-.02,3.25,0,4.87.01,1-.44,1.45-1.43,1.44-1.32-.01-2.63,0-3.95,0-.94,0-1.35-.48-1.35-1.39,0-3.34,0-6.67,0-10.01,0-.86.39-1.29,1.28-1.27,1.32.02,2.64.03,3.95,0,1.06-.03,1.52.42,1.5,1.49-.04,1.62-.01,3.25-.01,4.87Z"/>
      <path class="cls-6" d="m133.63,83.73c-3.63,0-3.28.35-3.28-3.35,0-2.83-.34-2.79,2.78-2.77.88,0,1.75.02,2.63,0,.89-.01,1.27.41,1.24,1.29-.03,1.1-.05,2.19,0,3.29.06,1.13-.4,1.63-1.54,1.54-.61-.05-1.23,0-1.84,0Z"/>
    </g>
  </g>
</svg>