<?xml version="1.0" encoding="UTF-8"?>
<svg id="Layer_2" data-name="Layer 2" xmlns="http://www.w3.org/2000/svg" xmlns:xlink="http://www.w3.org/1999/xlink" viewBox="0 0 33.45 17.92">
  <defs>
    <style>
      .cls-1 {
        clip-path: url(#clippath);
      }

      .cls-2 {
        fill: none;
      }

      .cls-2, .cls-3, .cls-4, .cls-5, .cls-6, .cls-7, .cls-8, .cls-9, .cls-10 {
        stroke-width: 0px;
      }

      .cls-3 {
        fill: #7b98ac;
      }

      .cls-4 {
        fill: #1b1d4d;
      }

      .cls-5 {
        fill: #cf102d;
      }

      .cls-6 {
        fill: #d73b3f;
      }

      .cls-7 {
        fill: #00a19c;
      }

      .cls-8 {
        fill: #00bbb4;
      }

      .cls-9 {
        fill: #0088d1;
      }

      .cls-10 {
        fill: #0075c9;
      }
    </style>
    <clipPath id="clippath">
      <rect class="cls-2" width="33.45" height="17.92"/>
    </clipPath>
  </defs>
  <g id="Layer_2-2" data-name="Layer 2">
    <g id="g10">
      <g id="g12">
        <g class="cls-1">
          <g id="g14">
            <g id="g20">
              <path id="path22" class="cls-9" d="m7.64,2.65c.12.12.22.26.3.41.04.08.08.16.11.25.03.08.08.14.12.21.1.16.18.33.24.5.03.09.05.18.06.28.01.08,0,.16.02.24,0-.02.02-.07.03-.09,0-.03.01-.06.02-.09.02-.1.04-.21.05-.32.02-.19.04-.41-.06-.59-.1-.17-.22-.32-.37-.46-.08-.07-.16-.13-.24-.19-.08-.05-.17-.12-.27-.15Zm-1.13.07c.16.09.31.2.44.33.07.07.14.15.2.22.06.08.14.14.22.2.17.13.31.28.43.45.06.09.12.18.16.27.04.08.06.16.1.23,0-.09-.01-.19-.02-.28-.02-.12-.04-.23-.07-.35-.05-.2-.11-.4-.28-.55-.16-.15-.35-.27-.55-.36-.11-.05-.22-.09-.33-.12-.09-.03-.2-.06-.29-.06Zm2.1.17c.09.17.16.34.19.52.02.1.03.19.06.28.03.09.06.19.08.28.05.24.04.49,0,.73.08-.14.14-.28.19-.43.05-.15.12-.34.08-.5-.04-.17-.13-.35-.24-.5-.05-.08-.11-.15-.18-.22-.06-.06-.12-.13-.19-.17Zm-3.03.19c-.11,0-.2,0-.17.03.05.03.18.04.57.27.08.05.16.11.23.16.09.07.17.11.28.16.23.1.44.22.63.37.09.07.18.15.26.24.04.04.07.08.11.12.02.03.04.06.07.08,0-.06-.05-.15-.08-.21-.04-.1-.09-.2-.14-.29-.09-.16-.19-.31-.3-.46-.12-.15-.3-.23-.49-.29-.17-.06-.49-.13-.67-.16-.06,0-.18-.01-.29-.01Zm3.95.24c.02.14.02.27,0,.42-.01.13-.03.26-.03.4.01.16,0,.32-.04.48-.02.07-.03.13-.06.19-.02.06-.06.12-.08.18.13-.11.23-.26.32-.39.09-.13.18-.26.17-.42,0-.16-.04-.32-.09-.48-.05-.13-.11-.27-.21-.38Zm-4.27.39c-.09,0-.18,0-.27,0-.12,0-.24.03-.36.05-.05.01-.1.03-.16.04-.02,0-.05.01-.07.02-.01,0-.06.03-.05.03.02,0,.27.05.33.06.1.03.2.07.3.11.18.07.35.19.55.22.13.02.26.04.38.07.18.05.35.1.52.18.1.04.2.09.29.15.04.02.08.05.12.08.02.02.06.05.09.06,0-.02-.02-.04-.03-.06-.03-.05-.07-.1-.1-.14-.08-.1-.16-.19-.25-.29-.08-.09-.17-.17-.26-.25-.08-.07-.17-.16-.27-.21-.14-.08-.34-.1-.51-.11-.09,0-.18-.01-.27-.01Zm4.97.16c-.03.05-.04.13-.06.19-.02.06-.04.11-.07.17-.03.06-.07.12-.09.18-.03.06-.03.12-.05.19-.03.13-.07.25-.12.37-.03.07-.07.13-.11.19-.03.04-.07.08-.09.13.05-.02.11-.07.15-.1.07-.05.13-.1.19-.15.12-.1.26-.2.29-.35.03-.14.05-.29.04-.43,0-.08-.01-.15-.03-.22-.01-.05-.02-.13-.06-.17Zm-5.22.65c-.1,0-.21,0-.31.02-.21.02-.42.06-.61.12-.09.03-.18.06-.27.1-.09.04-.2.08-.28.15-.08.06,0,.05.07.05.11,0,.21.02.32.04.11.02.22.05.33.08.1.03.21.08.31.09.1.01.2,0,.29-.01.06,0,.12,0,.18,0,.23,0,.47.01.7.04.38.06.6.16.6.13,0-.04-.42-.35-.47-.38-.18-.13-.38-.24-.57-.35-.1-.05-.18-.08-.29-.08Zm5.75.08s-.03.03-.03.04c-.02.02-.04.05-.06.07-.04.05-.08.09-.12.13-.08.08-.14.14-.19.24-.05.11-.11.22-.19.32-.03.05-.07.09-.11.13,0,0-.04.05-.04.05.03,0,.16-.06.19-.07.06-.03.12-.06.18-.09.06-.03.13-.06.18-.1.05-.04.07-.1.09-.16.04-.11.07-.21.09-.32,0-.03.04-.23,0-.24h0Zm.31.73s-.08.04-.1.05c-.05.02-.1.05-.14.07-.06.03-.14.05-.19.1-.07.07-.12.14-.18.21-.04.04-.08.07-.12.1,0,0-.06.05-.06.05.04,0,.09,0,.12,0,.05,0,.1-.01.15-.02.08-.01.19-.02.25-.07.07-.06.13-.16.17-.24.02-.04.05-.09.07-.13,0-.02.04-.09.02-.1Zm-6.71.27c-.12,0-.23.05-.34.08-.11.03-.23.07-.34.12-.17.07-.34.16-.49.26-.06.04-.12.09-.18.14-.03.03-.08.06-.1.1-.05.06.11.06.15.06.12.01.24.02.36.04.16.02.31.05.46.06.12.01.23-.04.34-.07.13-.04.27-.07.41-.1.27-.05.55-.09.83-.09.06,0,.11,0,.17,0,.04,0,.09,0,.13,0,.05-.01.03-.03,0-.05-.04-.02-.09-.04-.13-.06-.2-.09-.4-.19-.61-.27-.11-.04-.22-.08-.33-.12-.1-.03-.21-.09-.32-.09Zm-.54,1.37c-.1.01-.19.07-.27.11-.2.1-.38.21-.55.35-.07.06-.14.12-.2.19-.04.04-.07.08-.1.12-.02.03-.07.08-.06.12.01.05.13.04.18.05.26.02.5.06.65.08.13.01.23-.05.34-.11.11-.06.23-.11.35-.16.24-.1.48-.18.73-.26.11-.03.23-.06.34-.09.04-.01.19-.04.1-.08-.08-.04-.18-.05-.27-.07-.1-.03-.21-.05-.31-.08-.22-.05-.45-.1-.68-.14-.08-.01-.16-.04-.25-.03Zm-.25,1.58s-.08.02-.12.04c-.09.06-.18.12-.26.19-.15.12-.3.26-.39.43-.03.06-.08.14-.06.21.02.06.09.08.15.09.17.05.35.1.52.12.12.01.18-.03.27-.09.1-.07.2-.14.31-.2.2-.13.42-.24.63-.35.09-.04.17-.09.26-.13.05-.02.09-.04.14-.07.03-.01.1-.04.1-.07,0-.05-.29-.06-.32-.07-.36-.04-.73-.07-1.09-.11-.05,0-.09,0-.13,0Zm.08,1.64s-.08.01-.12.04c-.13.1-.27.24-.35.38-.21.38.41.54.71.57.1.01.17-.06.24-.11.08-.07.16-.13.25-.2.18-.13.36-.26.54-.39.08-.05.15-.1.23-.16.02-.01.08-.05.07-.08-.01-.03-.07-.03-.1-.03-.1,0-.2.01-.3.01-.24,0-.49,0-.73-.02-.1,0-.2-.01-.31-.02-.05,0-.09,0-.13,0Zm2.21,1.39c-.06,0-.15.02-.18.03-.37.06-.75.09-1.13.08-.09,0-.18-.01-.27-.01-.08,0-.13.04-.19.09-.06.06-.12.11-.18.17-.05.05-.13.11-.09.18.14.28.56.4.87.43.09.01.15-.03.21-.08.06-.05.13-.11.19-.16.15-.12.29-.24.43-.36.09-.08.18-.15.27-.23.03-.02.13-.09.1-.13,0,0-.02-.01-.04-.01Zm.9,1.2s-.03,0-.05,0c-.18.04-.36.1-.54.13-.2.04-.39.06-.59.07-.1,0-.2,0-.3,0-.08,0-.16-.01-.23.03-.07.04-.12.09-.19.14-.03.02-.06.04-.09.06-.01,0-.07.02-.07.03,0,.03.1.1.12.11.05.04.11.07.17.1.21.11.44.22.69.25.09.01.15-.01.22-.06.08-.06.15-.12.23-.18.15-.13.3-.27.44-.41.06-.06.13-.12.18-.19.03-.04.06-.08.02-.09Zm.97.95s-.05.02-.06.02c-.05.02-.11.05-.16.07-.12.05-.25.09-.38.12-.25.07-.51.11-.77.12-.07,0-.13,0-.2,0-.05,0-.1.04-.14.06-.05.03-.1.05-.15.07-.01,0-.12.02-.12.02,0,.01.03.03.03.04.07.05.15.09.23.13.24.12.49.19.75.22.11.01.19-.02.28-.09.11-.08.21-.17.3-.26.09-.08.17-.17.24-.26.04-.04.08-.09.11-.14.02-.02.07-.07.07-.1,0-.02-.02-.03-.04-.02Zm1.05.71s-.03,0-.04.01c-.04.02-.08.04-.11.06-.09.05-.19.1-.29.14-.19.08-.39.13-.6.16-.1.01-.2.01-.29.03-.05.01-.1.04-.14.06-.09.04-.12.04-.03.07.24.1.41.13.66.16.05,0,.1,0,.15,0,.05,0,.09-.02.13-.05.08-.06.16-.12.23-.19.07-.07.13-.14.19-.21.03-.04.06-.08.09-.12.02-.03.06-.07.07-.11,0-.02,0-.03,0-.03h0Z"/>
            </g>
            <g id="g24">
              <path id="path26" class="cls-7" d="m7.46,9.16c-.06,0-.15.07-.19.11-.05.04-.3.24-.38.29-.04.03-.08.07-.12.09-.01,0-.07.06-.03.06.04,0,.09,0,.13,0,.09,0,.41-.06.6-.09.05,0,.15-.02.18-.06.05-.06-.03-.19-.06-.24-.03-.05-.07-.16-.14-.17Zm.46.77s0,.01-.02.03c-.07.17-.17.31-.28.46-.06.08-.12.15-.19.23,0,.01-.14.14-.08.15.03,0,.07-.02.1-.03.04-.02.09-.03.13-.05.11-.04.22-.09.33-.14.08-.04.17-.08.24-.14.04-.03.05-.05.04-.1,0-.04-.03-.07-.05-.1-.05-.07-.09-.14-.14-.21-.02-.03-.04-.07-.07-.09-.01-.01-.02-.02-.03-.01Zm.48.58c.02.21-.03.42-.1.61-.05.12-.1.24-.16.36-.03.06-.06.11-.09.17,0,.01-.07.11-.03.11.03,0,.09-.05.11-.06.04-.03.08-.06.12-.08.07-.05.14-.11.21-.17.09-.08.24-.22.25-.34.02-.12-.07-.26-.14-.36-.05-.08-.11-.16-.17-.23Zm.52.58c.01.11.04.22.04.34,0,.15,0,.29-.01.44-.01.11-.03.21-.05.32-.01.07-.03.13-.05.2,0,.03-.06.14-.03.16.04-.01.08-.07.1-.1.05-.06.1-.12.15-.19.09-.13.16-.27.21-.42.02-.07.04-.15.02-.23-.02-.08-.06-.15-.1-.22-.07-.11-.16-.22-.26-.3Zm3.49.05c-.09,0-.18,0-.26.02.17,0,.35.05.51.12.16.06.27.12.43.19.16.07.34.19.48.28.06.04.13.09.19.13.03.03.07.05.1.08.01.01.03.04.05.04,0-.02-.02-.05-.03-.06-.02-.04-.04-.07-.07-.11-.05-.07-.1-.14-.16-.21-.11-.13-.25-.25-.41-.34-.16-.09-.37-.11-.56-.13-.08,0-.17-.02-.26-.02Zm-.56.21c.19.05.37.15.53.26.16.11.29.26.44.38.15.12.3.23.43.37.06.06.11.13.17.2.03.04.06.08.08.11.01.02.02.05.04.06,0-.02,0-.06-.01-.07-.01-.05-.03-.09-.04-.14-.03-.09-.07-.18-.11-.27-.09-.17-.2-.35-.35-.48-.15-.14-.38-.22-.58-.28-.18-.06-.39-.12-.59-.13Zm-2.41.16c.04.06.08.12.11.19.06.17.1.36.12.54.02.18.03.37.01.56,0,.03-.05.36-.02.36.02-.01.03-.04.04-.06.02-.04.05-.08.07-.12.04-.09.08-.18.11-.28.05-.18.08-.37.06-.55-.02-.17-.14-.3-.25-.43-.06-.07-.15-.16-.24-.2Zm2.05.07c.18.07.35.17.49.3.15.13.25.28.39.41.14.13.26.28.37.43.06.08.11.16.16.25.02.04.04.08.06.13.01.03.02.07.05.09.01-.03,0-.08,0-.1,0-.05-.02-.09-.03-.14-.02-.1-.05-.21-.09-.3-.07-.18-.17-.37-.3-.52-.12-.14-.33-.25-.5-.33-.19-.09-.39-.16-.6-.2Zm-.46.17c.08.04.17.07.24.13.09.06.16.13.23.2.13.13.22.29.33.43.13.16.24.34.33.53.05.09.09.19.12.29.02.05.03.09.04.14,0,.02.01.06.03.08.02-.02,0-.08,0-.11,0-.05,0-.1,0-.15,0-.11-.02-.21-.05-.31-.05-.19-.12-.39-.23-.56-.11-.17-.3-.29-.47-.4-.18-.11-.38-.21-.6-.26Zm-.94.02c.2.26.29.58.35.89.03.16.05.33.05.5,0,.09,0,.17,0,.26,0,.03-.04.19,0,.21.02.01.16-.38.17-.41.05-.18.07-.36.06-.54-.01-.2-.09-.35-.21-.51-.11-.15-.24-.29-.4-.39Zm.45.02c.16.11.28.24.37.41.09.16.18.33.25.5.08.17.14.35.18.53.02.09.04.18.05.26,0,.03,0,.07.01.1,0,.02,0,.08.02.09.02-.01.03-.09.03-.12,0-.05.02-.1.02-.15.01-.1.02-.2.01-.29,0-.19-.04-.38-.1-.56-.07-.19-.22-.34-.38-.47-.14-.12-.31-.23-.48-.31Z"/>
            </g>
            <g id="g28">
              <path id="path30" class="cls-5" d="m6.18,4.77s-.02,0,.19.17c.13.1.27.26.38.32.09.05.15.11.22.19,0-.12-.03-.26-.1-.37-.04-.07-.13-.12-.2-.15-.11-.05-.23-.09-.35-.13-.03,0-.12-.04-.13-.03Zm-.66.78s-.1,0-.07.03c.02.02.08.05.11.06.25.11.5.22.73.37.08.05.15.11.23.15.06.03.14.05.21.07.07.03.14.06.2.1.05.03.09.08.14.11,0-.07-.05-.15-.07-.22-.03-.07-.07-.13-.11-.2-.08-.12-.16-.22-.29-.29-.1-.05-.22-.08-.33-.11-.16-.03-.33-.06-.5-.07-.08,0-.17-.01-.25-.01Zm.33.97c-.17,0-.33,0-.5.02-.11.01-.22.02-.33.04-.07.01-.15.02-.22.04-.12.04-.02.07.05.09.08.02.15.04.23.07.37.11.71.25,1.07.38.09.03.16.03.26.03.09,0,.18,0,.27.01.19.01.34.05.5.14-.06-.18-.21-.34-.36-.47-.13-.12-.29-.29-.49-.31-.16-.02-.33-.03-.5-.04Zm.31,1.05c-.1-.01-.21.02-.31.04-.08.02-.17.04-.25.06-.2.05-.4.1-.59.17-.17.06-.35.12-.51.18-.06.03-.17.08-.05.11.1.02.2.03.3.04.22.03.43.06.65.09.18.03.36.07.54.09.1.01.19-.02.29-.05.12-.04.24-.07.36-.1.12-.03.24-.06.37-.08.06,0,.11-.02.17-.02.04,0,.09,0,.05-.04-.05-.05-.13-.09-.19-.13-.08-.05-.17-.09-.26-.13-.09-.04-.19-.08-.28-.12-.09-.03-.18-.08-.27-.09Zm-.07,1.22s-.07,0-.11,0c-.1.02-.19.07-.27.11-.11.05-.22.1-.33.15-.22.1-.43.21-.64.33-.11.06-.21.12-.32.18-.05.03-.22.13-.07.14.11.01.22.01.33.01.14,0,.28,0,.41,0,.22,0,.44,0,.67,0,.12,0,.21-.01.31-.07.08-.04.16-.09.24-.14.2-.12.4-.23.6-.35.09-.05.19-.1.28-.16.08-.05.02-.07-.05-.08-.24-.03-.48-.07-.72-.1-.1-.01-.22-.04-.33-.04h0Zm1.41,1.15s-.05.01-.06.01c-.23.04-.47.08-.7.11-.12.02-.24.03-.36.04-.11.01-.21.02-.31.08-.16.1-.31.22-.46.33-.17.12-.34.25-.51.37-.09.06-.17.13-.26.19-.04.03-.14.11-.03.12.12.01.25,0,.37-.02.14-.01.29-.03.43-.05.26-.03.52-.08.77-.13.11-.02.2-.05.28-.12.05-.05.1-.09.15-.14.16-.15.32-.3.48-.46.07-.07.14-.15.21-.23.02-.02.1-.1.07-.12-.01,0-.04,0-.06,0Zm.57.89s-.07.04-.09.05c-.04.02-.09.05-.13.07-.1.05-.21.1-.31.14-.2.08-.41.14-.62.22-.2.07-.34.26-.48.4-.16.15-.33.31-.49.46-.08.07-.16.15-.25.22-.03.02-.18.13-.07.15.06,0,.12,0,.18-.02.07,0,.13-.02.2-.03.13-.02.26-.05.38-.09.22-.06.44-.13.66-.21.1-.03.2-.07.28-.13.07-.06.13-.14.18-.22.13-.18.25-.36.36-.55.05-.09.1-.18.15-.27.02-.05.05-.1.07-.15,0-.03.02-.06-.02-.05Zm.64.76s-.08.08-.09.09c-.04.04-.08.09-.13.13-.09.08-.18.16-.28.23-.16.12-.34.21-.51.32-.18.11-.28.3-.4.45-.13.17-.28.33-.42.49-.07.08-.14.15-.22.23-.02.02-.13.11-.06.12.1,0,.21-.04.31-.06.14-.04.27-.08.4-.13.23-.09.45-.19.65-.31.09-.05.19-.1.25-.18.07-.09.11-.2.16-.3.1-.2.18-.41.25-.62.03-.1.06-.2.08-.3,0-.02.04-.13.02-.15Zm.67.61s-.03.06-.04.08c-.02.04-.04.09-.07.13-.05.1-.12.19-.19.27-.12.15-.26.29-.41.42-.07.06-.14.12-.2.19-.06.08-.1.17-.15.26-.11.18-.23.36-.36.53-.06.08-.13.17-.2.24-.01.01-.15.14-.1.15.04,0,.09-.02.12-.03.06-.02.13-.04.19-.07.13-.05.25-.11.37-.17.21-.11.41-.24.59-.4.08-.07.15-.14.19-.24.04-.09.06-.18.09-.27.05-.17.09-.35.12-.52.01-.1.03-.21.03-.31,0-.05,0-.11,0-.16,0-.03.01-.09-.01-.12Zm.72.46s-.03.12-.04.15c-.01.05-.03.1-.05.15-.04.11-.09.22-.15.33-.06.11-.13.21-.2.31-.06.08-.14.16-.19.25-.05.09-.08.19-.12.29-.05.11-.1.22-.16.33-.06.1-.12.2-.19.29-.04.05-.08.1-.12.15,0,0-.08.08-.05.08.05,0,.11-.03.15-.05.04-.02.09-.04.13-.06.11-.06.22-.12.32-.18.17-.12.33-.25.46-.4.06-.07.14-.14.17-.23.04-.09.05-.19.06-.28.03-.2.05-.4.04-.6,0-.1,0-.2-.02-.3,0-.05-.01-.09-.02-.14,0-.03,0-.06-.02-.08h0Zm.84.26c-.02.07,0,.17-.01.24,0,.1-.03.19-.05.28-.05.21-.14.41-.25.6-.06.1-.1.19-.13.29-.03.12-.07.23-.11.34-.04.11-.09.21-.15.31-.03.05-.06.1-.1.15-.03.04-.09.09-.11.13.05,0,.1-.04.14-.06.04-.02.09-.05.13-.08.09-.06.18-.12.27-.2.15-.13.29-.28.4-.44.06-.08.11-.16.13-.25.02-.09.02-.19.03-.29,0-.17,0-.34-.03-.51-.02-.1-.04-.21-.06-.31-.01-.05-.03-.09-.04-.14,0-.02-.01-.07-.03-.09Zm.79.02s0,.09.01.13c0,.05,0,.1,0,.16,0,.1,0,.19-.01.29-.01.15-.04.3-.09.45-.04.11-.09.21-.12.32-.03.11-.04.22-.07.33-.06.2-.15.39-.29.54,0,0,0,0,0,0,.21-.1.39-.27.53-.43.08-.09.15-.19.21-.29.05-.09.12-.19.13-.3.03-.21-.03-.44-.08-.64-.03-.11-.06-.22-.11-.33-.02-.04-.04-.08-.05-.13-.01-.03-.03-.08-.05-.11h0Z"/>
            </g>
            <g id="g32">
              <path id="path34" class="cls-6" d="m9.39,12.21s-.03.06-.04.08c-.02.04-.04.09-.07.13-.05.1-.12.19-.19.27-.12.15-.26.29-.41.42-.07.06-.13.11-.18.17.19.15.39.28.59.4.02-.03.04-.07.06-.1.04-.09.06-.18.09-.27.05-.17.09-.35.12-.52.01-.1.03-.21.03-.31,0-.05,0-.11,0-.16,0-.03.01-.09-.01-.12m-.69-.46s.04-.13.02-.15c-.02,0-.08.08-.09.09-.04.04-.08.09-.13.13-.09.08-.18.16-.28.23-.16.12-.34.21-.51.32-.03.02-.07.05-.1.07.18.2.36.39.56.57.02-.01.03-.03.04-.04.07-.09.11-.2.16-.3.1-.2.18-.41.25-.62.03-.1.06-.2.08-.3m1.45,1.14s-.01-.09-.02-.14c0-.03,0-.06-.02-.08-.03.03-.03.12-.04.15-.01.05-.03.1-.05.15-.04.11-.09.22-.15.32-.06.11-.13.21-.2.31-.06.08-.14.16-.19.25,0,.01-.01.02-.02.03.19.09.38.16.58.22,0-.01.02-.03.02-.04.04-.09.05-.19.06-.28.03-.2.05-.4.04-.6,0-.1,0-.2-.02-.3m1.8.61c-.03-.11-.07-.22-.11-.33-.02-.04-.03-.08-.05-.13-.01-.03-.03-.08-.05-.11-.01.04,0,.09.01.13,0,.05,0,.1,0,.16,0,.1,0,.19-.01.29-.01.15-.04.3-.09.44-.03.09-.08.19-.11.28.16-.02.33-.05.49-.1,0,0,0,0,0,0,.03-.21-.03-.44-.08-.64m-.86-.04c-.02-.1-.04-.21-.06-.31-.01-.05-.02-.09-.04-.14,0-.02-.01-.07-.03-.09-.02.07,0,.17-.01.24,0,.1-.03.19-.05.28-.05.21-.14.41-.25.6-.04.06-.07.12-.09.18.18.03.36.04.55.04,0,0,0,0,0-.01.02-.09.02-.19.02-.29,0-.17,0-.34-.03-.51m-3.07-2.43s.05-.1.07-.15c0-.03.02-.06-.02-.05-.03,0-.07.04-.09.05-.04.02-.09.05-.13.07-.1.05-.21.1-.31.14-.2.08-.41.14-.62.22-.03.01-.06.03-.09.04.15.24.31.48.49.71,0,0,.01,0,.02-.01.07-.06.13-.14.18-.22.13-.18.25-.36.36-.55.05-.09.1-.18.15-.27m-.74-.74c.07-.07.14-.15.21-.22.02-.02.1-.1.07-.12-.02-.02-.1,0-.13.01-.23.04-.47.08-.7.11-.12.02-.24.03-.36.04-.05,0-.1.01-.15.02.1.26.22.53.36.81.02-.01.05-.03.07-.05.05-.05.1-.09.15-.14.16-.15.32-.3.47-.46m-.31-4.85c0-.12-.03-.26-.1-.37,0,0,0,0,0,0-.03.06-.06.13-.09.2.08.05.13.1.19.17m-.25.79c.07.03.14.06.2.1.05.03.09.08.14.11,0-.07-.05-.15-.07-.22-.03-.07-.07-.13-.11-.2-.07-.11-.15-.22-.28-.28-.04.12-.08.26-.12.39,0,0,.02.01.03.02.06.03.14.05.21.07m.2,2.94c.09-.05.19-.1.28-.16.08-.05.02-.07-.05-.08-.24-.03-.48-.07-.72-.1-.13-.02-.3-.06-.44-.04,0,0,0,0-.01,0,0,.25.03.54.11.85.08-.04.16-.09.23-.14.2-.12.4-.23.6-.34m-.34-.98c.12-.03.24-.06.37-.08.06,0,.11-.02.17-.02.04,0,.09,0,.05-.04-.05-.05-.13-.09-.19-.13-.08-.05-.17-.09-.26-.13-.09-.04-.19-.08-.28-.12-.09-.03-.18-.08-.27-.09,0,0,0,0-.01,0-.05.25-.09.5-.13.77.07,0,.13-.03.19-.05.12-.04.24-.07.36-.1m-.16-.99c.09,0,.18,0,.27.01.19.01.34.05.5.14-.06-.18-.21-.34-.36-.47-.13-.12-.28-.27-.46-.31-.05.2-.1.4-.14.62.06.01.12.01.19.01"/>
            </g>
            <g id="g36">
              <path id="path38" class="cls-8" d="m9.28,11.62s0,0,0-.01c-.02-.08-.06-.15-.1-.22-.07-.11-.16-.22-.26-.3,0,.05.01.09.02.14.11.14.23.27.35.39"/>
            </g>
            <g id="g40">
              <path id="path42" class="cls-8" d="m10.48,12.17c-.11-.15-.24-.29-.4-.39.15.19.23.41.29.64.1.04.19.07.29.1-.04-.12-.1-.23-.18-.34"/>
            </g>
            <g id="g44">
              <path id="path46" class="cls-8" d="m12.66,11.16c-.17-.02-.36-.03-.52,0,.17,0,.35.05.51.12.15.06.25.11.39.17.05-.08.08-.14.11-.2-.15-.06-.32-.08-.48-.09"/>
            </g>
            <g id="g48">
              <path id="path50" class="cls-8" d="m11.01,12.1c-.14-.12-.31-.23-.48-.31.16.11.28.24.37.41.07.12.13.24.19.36.1,0,.19,0,.28,0-.07-.18-.22-.33-.37-.45"/>
            </g>
            <g id="g52">
              <path id="path54" class="cls-8" d="m11.62,12.02c-.18-.11-.38-.21-.6-.26.08.04.17.07.25.13.09.06.16.13.23.2.11.12.2.26.3.38.09-.03.18-.06.26-.1-.11-.14-.28-.25-.43-.35"/>
            </g>
            <g id="g56">
              <path id="path58" class="cls-8" d="m12.08,11.79c-.19-.09-.39-.16-.6-.2.18.07.35.17.49.3.12.11.22.23.33.35.08-.05.15-.11.22-.17-.12-.11-.29-.2-.44-.27"/>
            </g>
            <g id="g60">
              <path id="path62" class="cls-8" d="m12.43,11.49c-.18-.06-.39-.12-.59-.13.19.05.37.15.53.26.12.08.22.18.32.28.07-.07.13-.15.18-.22-.14-.08-.3-.14-.45-.19"/>
            </g>
            <g id="g64">
              <path id="path66" class="cls-8" d="m9.92,12.14c-.02-.17-.14-.3-.25-.43-.06-.07-.15-.16-.24-.2.04.06.08.12.11.19.03.07.05.15.07.23.1.09.21.17.32.24,0-.01,0-.02,0-.03"/>
            </g>
            <g id="g68">
              <path id="path70" class="cls-10" d="m7.68,13.84s.07-.07.07-.1c0-.05-.08-.01-.1,0-.05.02-.11.05-.16.07-.12.05-.25.09-.38.12-.25.07-.51.11-.77.12-.07,0-.13,0-.2,0,0,0,0,0-.01,0,.25.18.51.35.8.51.03-.01.06-.03.09-.06.11-.08.21-.17.3-.26.09-.08.17-.17.24-.26.04-.04.08-.09.11-.14m1.53-10.07c-.13-.1-.26-.18-.4-.26.01.06.02.12.04.18.03.09.06.19.08.28.05.24.04.49,0,.73.08-.14.14-.28.19-.43.05-.15.12-.34.08-.5,0,0,0,0,0,0m-3.68,8.17c.09-.08.18-.15.27-.23.03-.02.13-.09.1-.13-.04-.04-.18,0-.22.01-.37.06-.75.09-1.13.08-.09,0-.18-.01-.27-.01-.02,0-.04,0-.06.01.14.3.3.59.49.87.08,0,.14-.03.2-.08.06-.05.13-.11.19-.16.15-.12.29-.24.43-.36m1.2.91c.05-.05.07-.11-.03-.09-.18.04-.36.1-.54.13-.2.04-.39.06-.59.07-.1,0-.2,0-.3,0-.08,0-.15-.01-.22.03.2.25.42.48.67.7.07,0,.12-.02.17-.07.08-.06.15-.12.23-.18.15-.13.3-.27.44-.41.06-.06.13-.12.18-.19m3.09-8.52c-.1-.11-.2-.21-.3-.31,0,.04,0,.08,0,.11.01.16,0,.32-.04.48-.02.07-.03.13-.06.19-.02.06-.06.12-.08.18.13-.11.23-.26.32-.39.06-.09.12-.17.15-.27m.83,1.21s0,0,0,0c-.07.07-.12.14-.18.21-.04.04-.08.07-.12.1,0,0-.06.05-.06.05.04,0,.09,0,.12,0,.05,0,.1-.01.15-.02.07-.01.17-.02.23-.06-.05-.09-.09-.18-.14-.27m-.43-.7c-.07-.11-.15-.21-.23-.31,0,.02,0,.04-.01.06-.03.13-.07.25-.12.37-.03.07-.07.13-.11.19-.03.04-.07.08-.09.13.05-.02.11-.07.15-.1.07-.05.13-.09.19-.15.07-.06.16-.12.22-.2m.33.51c-.05-.09-.11-.19-.17-.28,0,0,0,0,0,0-.05.11-.11.22-.19.32-.03.05-.07.09-.11.13,0,0-.04.05-.04.05.03,0,.16-.06.19-.07.06-.03.12-.06.18-.09.04-.02.09-.04.13-.07m-1.81,9.1s-.08.04-.11.06c-.09.05-.19.1-.29.14-.19.08-.39.13-.6.16-.08.01-.15.01-.23.02.23.09.46.18.71.25.08-.06.16-.12.23-.19.07-.07.13-.14.19-.21.03-.04.06-.08.09-.12.02-.03.06-.07.07-.11.01-.04-.02-.03-.05-.01m-2.81-10.12c.18.05.35.1.52.18.1.04.2.09.29.15.04.02.08.05.12.08.02.02.06.05.09.06,0-.02-.02-.04-.03-.06-.03-.05-.07-.1-.1-.14-.08-.1-.16-.19-.25-.29-.08-.09-.17-.17-.26-.25-.08-.07-.17-.16-.27-.21,0,0-.02,0-.03-.01-.2.12-.38.26-.56.42.03,0,.05.01.08.02.13.02.26.04.38.07m1.18-.26c.09.07.18.15.26.24.04.04.07.08.1.12.02.03.04.06.07.08,0-.06-.05-.15-.08-.21-.04-.1-.09-.2-.14-.29-.09-.16-.18-.31-.3-.46-.05-.06-.1-.11-.17-.15-.1.04-.2.08-.3.12-.07.03-.15.07-.22.11.04.02.09.05.14.07.23.1.44.22.63.37m1.07-.55c.1.16.18.33.24.5.03.09.05.18.06.28.01.08,0,.16.02.24,0-.02.02-.06.03-.09,0-.03.01-.06.02-.09.02-.1.04-.21.05-.32.02-.19.04-.41-.06-.59-.02-.03-.03-.06-.05-.08-.14-.05-.28-.09-.43-.11,0,0,0,0,0,0,0,.02.01.03.02.05.03.08.08.14.12.21m-.81-.04c.17.13.31.28.43.45.06.09.12.18.16.27.04.08.06.16.1.23,0-.09-.01-.19-.02-.28-.02-.12-.04-.23-.07-.35-.05-.2-.12-.4-.28-.55,0,0-.02-.02-.03-.03-.15,0-.31.03-.48.07.06.06.12.12.19.17m-2.76,5.5c.09-.04.17-.09.26-.13.05-.02.09-.04.14-.07.03-.01.1-.04.1-.07,0-.05-.29-.06-.32-.07-.36-.04-.73-.07-1.09-.11-.04,0-.08,0-.12,0-.01.34,0,.68.04,1.03.02-.01.04-.02.05-.04.1-.07.2-.14.31-.2.2-.13.41-.24.63-.35m.28,1.5c.08-.05.15-.1.23-.16.02-.01.08-.05.07-.08-.01-.03-.07-.03-.1-.03-.1,0-.2.01-.3.01-.24,0-.49,0-.73-.02-.1,0-.2-.01-.31-.02-.02,0-.04,0-.06,0,.07.33.16.65.27.97.04-.02.08-.06.12-.09.08-.07.17-.13.25-.2.18-.13.35-.26.54-.39m-.74-2.76c.24-.1.48-.18.73-.26.11-.03.23-.06.34-.09.04-.01.19-.04.1-.08-.08-.04-.18-.05-.27-.07-.1-.03-.21-.05-.31-.08-.22-.05-.45-.1-.68-.14-.08-.01-.16-.04-.25-.03,0,0,0,0,0,0-.09.32-.15.66-.19,1,.07-.02.13-.06.19-.09.11-.06.23-.11.35-.16m.48-1.43c.27-.05.55-.09.83-.1.06,0,.11,0,.17,0,.04,0,.09,0,.13,0,.05-.01.03-.03,0-.05-.04-.02-.09-.04-.13-.06-.2-.09-.4-.19-.61-.27-.11-.04-.22-.08-.33-.12-.1-.03-.21-.09-.32-.09-.15.27-.28.56-.39.86.09-.01.18-.05.26-.07.13-.04.27-.07.41-.1m.41-1.13c.23,0,.47.01.7.04.38.06.6.16.6.13,0-.04-.42-.35-.47-.38-.18-.13-.38-.24-.57-.35-.06-.03-.11-.05-.17-.07-.19.2-.36.41-.52.64.08,0,.17-.01.25-.02.06,0,.12,0,.18,0"/>
            </g>
            <g id="g72">
              <path id="path74" class="cls-4" d="m19.32,6.43c-.88,0-1.43.45-1.57,1.22l-.19,1.06c-.13.78.28,1.29,1.17,1.29s1.43-.43,1.56-1.21l.18-1.06c.13-.78-.27-1.3-1.16-1.3Zm5.87,0c-.87,0-1.36.36-1.47.97-.14.84.53,1.02,1.1,1.08.4.04.74.12.68.45-.06.35-.36.5-.85.5-.37,0-.6-.16-.67-.45-.03-.12-.07-.14-.19-.1l-.28.1c-.12.04-.16.09-.14.21.11.51.47.8,1.21.8.91,0,1.4-.35,1.51-.99.14-.81-.48-1.04-1.03-1.1-.43-.05-.81-.12-.75-.46.05-.3.3-.44.77-.44.38,0,.54.16.62.4.04.11.08.13.2.08l.27-.12c.12-.05.16-.09.12-.2-.14-.43-.43-.75-1.11-.75Zm-11.86.05c-.11,0-.16.02-.22.14l-2.17,3.83c-.06.11-.04.16.08.16h.24c.21,0,.26-.03.32-.14l.75-1.32.26-.5.55-1.02c.15-.29.21-.58.21-.58h.03s-.04.29,0,.59l.38,2.13c.01.12.07.14.27.14h.23c.12,0,.16-.05.13-.16l-.64-3.14c-.02-.11-.07-.13-.18-.13h-.25Zm-4.24.02c-.12,0-.17.04-.19.16l-.54,3.09c-.02.12.01.16.13.16h.27c.12,0,.17-.04.19-.16l.26-1.51c.08-.46.06-.92.07-.96h.03s.08.47.24.81l.86,1.74c.03.06.06.08.14.08h.27c.12,0,.17-.04.19-.16l.54-3.09c.02-.12-.01-.16-.13-.16h-.27c-.12,0-.17.04-.19.16l-.26,1.49c-.08.49-.05.93-.06.97h-.03s-.08-.45-.26-.82l-.86-1.74s-.07-.08-.16-.08h-.25Zm5.34,0c-.12,0-.17.04-.19.16l-.04.24c-.02.12.01.16.13.16h.83l-.48,2.69c-.02.12.01.16.13.16h.27c.12,0,.17-.04.19-.16l.47-2.69h.83c.12,0,.17-.04.19-.16l.04-.24c.02-.12-.01-.16-.13-.16h-2.25Zm2.83,0c-.12,0-.17.04-.19.16l-.54,3.09c-.02.12.01.16.13.16h.28c.12,0,.17-.04.19-.16l.54-3.09c.02-.12-.01-.16-.13-.16h-.28Zm3.85,0c-.12,0-.17.04-.19.16l-.54,3.09c-.02.12.01.16.13.16h.27c.12,0,.17-.04.19-.16l.26-1.51c.08-.46.06-.92.07-.96h.03s.08.47.24.81l.86,1.74c.03.06.06.08.14.08h.27c.12,0,.17-.04.19-.16l.54-3.09c.02-.12-.01-.16-.13-.16h-.27c-.12,0-.17.04-.19.16l-.26,1.49c-.08.49-.05.93-.06.97h-.03s-.08-.45-.26-.82l-.86-1.74s-.07-.08-.16-.08h-.25Zm-1.86.49c.49,0,.72.24.65.69l-.19,1.06c-.08.45-.39.69-.89.69s-.73-.24-.65-.69l.19-1.06c.08-.45.4-.69.89-.69Zm4.82,3.39c-.88,0-1.44.42-1.58,1.21l-.18,1.06c-.13.78.26,1.3,1.15,1.3s1.44-.42,1.56-1.09l.12-.69c.02-.13-.01-.16-.13-.16h-1.15c-.12,0-.17.04-.19.16l-.04.23c-.02.13.01.17.13.17h.72l-.04.25c-.06.33-.38.57-.88.57s-.73-.24-.65-.69l.19-1.07c.08-.44.39-.68.89-.68.4,0,.6.15.66.44.02.12.07.14.19.1l.25-.09c.12-.04.15-.09.13-.21-.09-.49-.43-.81-1.13-.81Zm-3,.07c-.11,0-.16.02-.22.13l-2.17,3.84c-.06.11-.04.16.08.16h.24c.21,0,.26-.03.32-.14l.75-1.32.26-.5.55-1.02c.15-.29.21-.58.21-.58h.03s-.04.29,0,.59l.38,2.14c.01.12.07.14.27.14h.23c.12,0,.16-.05.13-.16l-.64-3.14c-.02-.11-.07-.13-.18-.13h-.25Zm-6.21,0c-.12,0-.17.04-.19.16l-.54,3.09c-.02.12.01.16.13.16h1.82c.12,0,.17-.04.19-.16l.04-.24c.02-.12,0-.16-.13-.16h-1.38l.48-2.69c.02-.12-.01-.16-.13-.16h-.28Zm2.4,0c-.12,0-.17.04-.19.16l-.54,3.09c-.02.12.01.16.13.16h1.96c.12,0,.17-.04.19-.16l.04-.24c.02-.12-.01-.16-.13-.16h-1.53l.15-.89h1.24c.12,0,.17-.04.2-.16l.04-.24c.02-.12-.01-.16-.13-.16h-1.24l.14-.84h1.47c.12,0,.17-.04.19-.16l.04-.24c.02-.12-.01-.16-.14-.16h-1.91Zm8.58,0c-.12,0-.17.04-.19.16l-.36,2.02c-.13.76.24,1.31,1.13,1.31s1.4-.43,1.54-1.19l.38-2.14c.02-.12-.01-.16-.14-.16h-.27c-.12,0-.17.04-.19.16l-.36,2.09c-.08.43-.36.68-.86.68s-.7-.25-.62-.68l.36-2.09c.02-.12-.01-.16-.13-.16h-.27Zm2.92,0c-.12,0-.17.04-.19.16l-.54,3.09c-.02.12.01.16.13.16h1.96c.12,0,.17-.04.19-.16l.04-.24c.02-.12-.01-.16-.13-.16h-1.53l.15-.89h1.24c.12,0,.17-.04.2-.16l.04-.24c.02-.12-.01-.16-.13-.16h-1.24l.14-.84h1.47c.12,0,.17-.04.19-.16l.04-.24c.02-.12-.01-.16-.14-.16h-1.91Z"/>
            </g>
            <g id="g100">
              <path id="path102" class="cls-3" d="m13.31,5.44s.03,0,.03.03c-.05.4-.38.64-.8.64s-.83-.28-.83-.92.43-.92.83-.92.75.25.8.64c0,.02,0,.03-.03.03h-.26s-.03,0-.03-.03c-.07-.25-.25-.35-.48-.35-.24,0-.5.2-.5.63s.26.63.5.63c.23,0,.41-.09.48-.35,0-.02.02-.03.03-.03h.26Z"/>
            </g>
            <g id="g104">
              <path id="path106" class="cls-3" d="m14.1,4.77c.39,0,.68.28.68.67s-.29.67-.68.67-.68-.28-.68-.67.29-.67.68-.67m0,1.06c.21,0,.36-.16.36-.39s-.15-.39-.36-.39-.36.16-.36.39.15.39.36.39"/>
            </g>
            <g id="g108">
              <path id="path110" class="cls-3" d="m14.94,4.82s0-.03.03-.03h.26s.03,0,.03.03v.09c.1-.09.22-.14.39-.14.28,0,.45.17.45.43v.85s0,.03-.03.03h-.26s-.03,0-.03-.03v-.74c0-.19-.08-.27-.22-.27-.16,0-.31.12-.31.43v.58s0,.03-.03.03h-.26s-.03,0-.03-.03v-1.24Z"/>
            </g>
            <g id="g112">
              <path id="path114" class="cls-3" d="m16.52,5.44c0,.25.14.39.34.39.15,0,.26-.07.3-.2,0-.02.02-.02.04-.02h.25s.02,0,.02.02c0,0,0,.02,0,.03-.04.25-.26.46-.6.46-.38,0-.67-.27-.67-.67s.29-.67.67-.67c.34,0,.56.21.6.46,0,.01,0,.02,0,.03,0,.01,0,.02-.02.02h-.25s-.03,0-.04-.02c-.05-.13-.16-.2-.3-.2-.2,0-.34.14-.34.39"/>
            </g>
            <g id="g116">
              <path id="path118" class="cls-3" d="m18.82,6.05s0,.03-.03.03h-.26s-.03,0-.03-.03v-.06c-.09.07-.19.11-.36.11-.32,0-.6-.25-.6-.67s.28-.67.6-.67c.16,0,.27.04.36.11v-.06s0-.03.03-.03h.26s.03,0,.03.03v1.24Zm-.62-1.01c-.2,0-.33.17-.33.39s.13.39.33.39.33-.17.33-.39-.13-.39-.33-.39"/>
            </g>
            <g id="g120">
              <path id="path122" class="cls-3" d="m19.31,5.44c0,.25.14.39.34.39.15,0,.26-.07.3-.2,0-.02.02-.02.04-.02h.25s.02,0,.02.02c0,0,0,.02,0,.03-.04.25-.26.46-.6.46-.38,0-.67-.27-.67-.67s.29-.67.67-.67c.34,0,.56.21.6.46,0,.01,0,.02,0,.03,0,.01,0,.02-.02.02h-.25s-.03,0-.04-.02c-.05-.13-.16-.2-.3-.2-.2,0-.34.14-.34.39"/>
            </g>
            <g id="g124">
              <path id="path126" class="cls-3" d="m21.61,6.05s0,.03-.03.03h-.26s-.03,0-.03-.03v-.06c-.09.07-.19.11-.36.11-.32,0-.6-.25-.6-.67s.28-.67.6-.67c.16,0,.27.04.36.11v-.06s0-.03.03-.03h.26s.03,0,.03.03v1.24Zm-.62-1.01c-.2,0-.33.17-.33.39s.12.39.33.39.33-.17.33-.39-.12-.39-.33-.39"/>
            </g>
            <g id="g128">
              <path id="path130" class="cls-3" d="m22.25,5.07v.98s0,.03-.03.03h-.26s-.03,0-.03-.03v-.98h-.2s-.03,0-.03-.03v-.23s0-.03.03-.03h.2v-.11c0-.27.16-.42.42-.42.09,0,.19.02.27.05.02,0,.02.02.02.04v.22s0,.02-.02.02c0,0,0,0-.02,0-.08-.04-.15-.06-.21-.06-.1,0-.15.06-.15.17v.08h.35s.03,0,.03.03v.23s0,.03-.03.03h-.35Z"/>
            </g>
            <g id="g132">
              <path id="path134" class="cls-3" d="m12.54,4.26c-.4,0-.83.28-.83.92s.43.92.83.92.75-.25.8-.64c0-.02,0-.03-.03-.03h-.26s-.03,0-.03.03c-.07.25-.25.35-.48.35-.24,0-.5-.2-.5-.63s.26-.63.5-.63c.23,0,.41.09.48.35,0,.02.02.03.03.03h.26s.03,0,.03-.03c-.05-.4-.38-.64-.8-.64Zm9.82,0c-.26,0-.42.16-.42.42v.11h-.2s-.03,0-.03.03v.23s0,.03.03.03h.2v.98s0,.03.03.03h.26s.03,0,.03-.03v-.98h.35s.03,0,.03-.03v-.23s0-.03-.03-.03h-.35v-.08c0-.12.05-.17.15-.17.06,0,.12.02.21.06.01,0,.02,0,.02,0,.01,0,.02,0,.02-.02v-.22s0-.04-.02-.04c-.08-.03-.18-.05-.27-.05Zm-8.26.51c-.39,0-.68.28-.68.67s.29.67.68.67.68-.28.68-.67-.29-.67-.68-.67Zm1.53,0c-.16,0-.28.06-.39.14v-.09s0-.03-.03-.03h-.26s-.03,0-.03.03v1.24s0,.03.03.03h.26s.03,0,.03-.03v-.58c0-.31.15-.43.31-.43.14,0,.22.07.22.27v.74s0,.03.03.03h.26s.03,0,.03-.03v-.85c0-.27-.17-.43-.45-.43Zm1.24,0c-.38,0-.67.27-.67.67s.29.67.67.67c.34,0,.56-.21.6-.46,0-.01,0-.02,0-.03,0-.01,0-.02-.02-.02h-.25s-.03,0-.04.02c-.05.13-.16.2-.3.2-.2,0-.34-.14-.34-.39s.14-.39.34-.39c.15,0,.26.07.3.2,0,.02.02.02.04.02h.25s.02,0,.02-.02c0,0,0-.02,0-.03-.04-.25-.26-.46-.6-.46Zm1.29,0c-.32,0-.6.25-.6.67s.28.67.6.67c.16,0,.27-.04.36-.11v.06s0,.03.03.03h.26s.03,0,.03-.03v-1.24s0-.03-.03-.03h-.26s-.03,0-.03.03v.06c-.09-.07-.19-.11-.36-.11Zm1.5,0c-.38,0-.67.27-.67.67s.29.67.67.67c.34,0,.56-.21.6-.46,0-.01,0-.02,0-.03,0-.01,0-.02-.02-.02h-.25s-.03,0-.04.02c-.05.13-.16.2-.3.2-.2,0-.34-.14-.34-.39s.14-.39.34-.39c.15,0,.26.07.3.2,0,.02.02.02.04.02h.25s.02,0,.02-.02c0,0,0-.02,0-.03-.04-.25-.26-.46-.6-.46Zm1.29,0c-.32,0-.6.25-.6.67s.28.67.6.67c.16,0,.27-.04.36-.11v.06s0,.03.03.03h.26s.03,0,.03-.03v-1.24s0-.03-.03-.03h-.26s-.03,0-.03.03v.06c-.09-.07-.19-.11-.36-.11Zm-6.84.28c.21,0,.36.16.36.39s-.15.39-.36.39-.36-.16-.36-.39.15-.39.36-.39Zm4.1,0c.2,0,.33.17.33.39s-.13.39-.33.39-.33-.17-.33-.39.13-.39.33-.39Zm2.79,0c.2,0,.33.17.33.39s-.12.39-.33.39-.33-.17-.33-.39.13-.39.33-.39Z"/>
            </g>
          </g>
        </g>
      </g>
    </g>
  </g>
</svg>