<?xml version="1.0" encoding="UTF-8"?>
<svg id="Layer_2" data-name="Layer 2" xmlns="http://www.w3.org/2000/svg" viewBox="0 0 22.69 19.58">
  <defs>
    <style>
      .cls-1 {
        fill: #28282a;
      }

      .cls-1, .cls-2 {
        stroke-width: 0px;
      }

      .cls-2 {
        fill: #d5ba81;
      }
    </style>
  </defs>
  <g id="Layer_2-2" data-name="Layer 2">
    <g id="logo">
      <g id="type">
        <path class="cls-1" d="m1.93,19.58c-1.09,0-1.93-.86-1.93-1.95s.85-1.95,1.93-1.95c.68,0,1.31.36,1.66.96v.02s-.52.33-.52.33v-.03c-.25-.44-.65-.7-1.14-.7-.74,0-1.32.59-1.32,1.36s.58,1.35,1.31,1.35c.52,0,.95-.28,1.17-.76v-.03s.56.3.56.3v.03c-.35.67-.99,1.07-1.72,1.07Z"/>
        <path class="cls-1" d="m5.18,17.42c-.42,0-.75.34-.75.79s.33.79.75.79.76-.35.76-.79-.34-.79-.76-.79Zm0,2.16c-.76,0-1.34-.6-1.34-1.37s.59-1.37,1.34-1.37,1.35.6,1.35,1.37-.61,1.37-1.35,1.37Z"/>
        <path class="cls-1" d="m8.64,19.53v-1.48c0-.43-.21-.66-.59-.66s-.61.29-.61.7v1.45h-.6v-2.62h.6v.29c.19-.22.45-.33.76-.33.65,0,1.06.44,1.06,1.15v1.53h-.61Z"/>
        <path class="cls-1" d="m10.89,19.58c-.76,0-1.35-.6-1.35-1.37s.6-1.37,1.35-1.37c.55,0,1.02.31,1.23.8v.03s-.53.23-.53.23v-.03c-.13-.3-.39-.47-.7-.47-.43,0-.77.34-.77.79s.34.79.78.79c.31,0,.57-.18.69-.49v-.03s.56.23.56.23v.03c-.24.53-.69.82-1.26.82v.02Z"/>
        <path class="cls-1" d="m13.69,17.41c-.43,0-.78.35-.78.8s.34.81.78.81.78-.35.78-.81-.34-.8-.78-.8Zm-.08,2.17c-.63,0-1.3-.51-1.3-1.37s.67-1.37,1.3-1.37c.31,0,.61.12.81.33v-.29h.6v2.62h-.6v-.31c-.2.23-.5.35-.82.35v.02Z"/>
        <path class="cls-1" d="m16.7,19.58c-.76,0-1.35-.6-1.35-1.37s.6-1.37,1.35-1.37c.55,0,1.02.31,1.23.8v.03s-.53.23-.53.23v-.03c-.13-.3-.39-.47-.7-.47-.43,0-.77.34-.77.79s.34.79.78.79c.31,0,.57-.18.69-.49v-.03s.55.23.55.23v.03c-.24.53-.69.82-1.26.82v.02Z"/>
        <path class="cls-1" d="m19.5,17.41c-.43,0-.78.35-.78.8s.34.81.78.81.78-.35.78-.81-.34-.8-.78-.8Zm-.08,2.17c-.63,0-1.3-.51-1.3-1.37s.67-1.37,1.3-1.37c.31,0,.61.12.81.33v-.29h.6v2.62h-.6v-.31c-.2.23-.5.35-.82.35v.02Z"/>
        <path class="cls-1" d="m21.55,19.53v-2.08h-.43v-.55h.43v-.11c0-.81.26-1.07,1.07-1.07h.08v.56h-.03c-.47,0-.51.08-.51.52v.11h.54v.55h-.54v2.08h-.61Z"/>
      </g>
      <g id="mark">
        <path class="cls-2" d="m11.31,2.7l-.29-1.33L11.31.03s.07-.04.08,0l.29,1.34-.29,1.33s-.07.04-.08,0Z"/>
        <path class="cls-2" d="m10.65,2.76l-.49-1.27.09-1.37s.06-.05.08,0l.49,1.27-.09,1.37s-.06.05-.08,0h0Z"/>
        <path class="cls-2" d="m10,2.91l-.68-1.19-.11-1.36s.05-.06.07-.02l.68,1.19.12,1.36s-.05.06-.07.02h0Z"/>
        <path class="cls-2" d="m9.39,3.17l-.85-1.06-.32-1.33s.04-.07.07-.03l.85,1.06.32,1.33s-.04.07-.07.03Z"/>
        <path class="cls-2" d="m8.83,3.51l-1-.92-.52-1.26s.03-.07.06-.05l1,.92.52,1.26s-.03.07-.06.05Z"/>
        <path class="cls-2" d="m8.32,3.94l-1.13-.76-.7-1.17s.02-.08.06-.05l1.13.76.7,1.17s-.02.08-.06.05Z"/>
        <path class="cls-2" d="m7.89,4.45l-1.23-.57-.87-1.04s0-.08.05-.06l1.23.57.87,1.04s0,.08-.05.06Z"/>
        <path class="cls-2" d="m7.53,5.01l-1.3-.37-1.02-.9s0-.08.04-.07l1.3.37,1.02.9s0,.08-.04.07Z"/>
        <path class="cls-2" d="m7.26,5.63l-1.34-.17-1.14-.74s-.02-.08.03-.07l1.34.17,1.14.73s.02.08-.03.07h0Z"/>
        <path class="cls-2" d="m7.09,6.27l-1.35.04-1.24-.55s-.03-.07,0-.08l1.35-.04,1.24.55s.03.07,0,.08Z"/>
        <path class="cls-2" d="m7.03,6.94l-1.33.25-1.3-.35s-.04-.07,0-.08l1.33-.25,1.3.34s.04.07,0,.08h0Z"/>
        <path class="cls-2" d="m7.05,7.61l-1.28.45-1.34-.14s-.05-.06,0-.08l1.28-.45,1.34.14s.05.06,0,.08Z"/>
        <path class="cls-2" d="m7.19,8.26l-1.19.64-1.35.07s-.06-.05-.02-.08l1.19-.64,1.35-.07s.06.05.02.08Z"/>
        <path class="cls-2" d="m7.41,8.89l-1.09.82-1.32.28s-.07-.05-.03-.07l1.09-.81,1.32-.28s.07.05.03.07h0Z"/>
        <path class="cls-2" d="m7.73,9.47l-.95.98-1.27.48s-.07-.04-.04-.07l.95-.98,1.27-.48s.07.04.04.07Z"/>
        <path class="cls-2" d="m8.14,10.01l-.78,1.11-1.18.67s-.08-.02-.05-.06l.79-1.11,1.18-.67s.08.02.05.06h0Z"/>
        <path class="cls-2" d="m8.62,10.47l-.61,1.22-1.07.84s-.08,0-.06-.05l.61-1.22,1.07-.84s.08,0,.06.05Z"/>
        <path class="cls-2" d="m9.16,10.85l-.42,1.3-.93,1s-.08,0-.07-.04l.43-1.3.93-1s.08,0,.07.04h0Z"/>
        <path class="cls-2" d="m9.76,11.14l-.22,1.35-.77,1.13s-.08,0-.07-.03l.22-1.35.77-1.13s.08,0,.07.03Z"/>
        <path class="cls-2" d="m10.39,11.34v1.37s-.6,1.23-.6,1.23c-.02.04-.08.02-.08-.02l.02-1.37.59-1.23s.08-.02.08.02h0Z"/>
        <path class="cls-2" d="m11.05,11.44l.19,1.35-.4,1.31s-.07.04-.08,0l-.19-1.35.4-1.31s.07-.04.08,0Z"/>
        <path class="cls-2" d="m11.71,11.43l.4,1.31-.19,1.35s-.06.05-.08,0l-.4-1.31.19-1.35s.06-.05.08,0Z"/>
        <path class="cls-2" d="m12.37,11.32l.59,1.23v1.37s-.05.06-.07.02l-.59-1.23-.02-1.37s.06-.06.08-.02h0Z"/>
        <path class="cls-2" d="m12.99,11.11l.77,1.13.22,1.35s-.05.06-.07.03l-.77-1.13-.22-1.35s.05-.06.07-.03Z"/>
        <path class="cls-2" d="m13.59,10.81l.93,1,.42,1.3s-.04.07-.07.04l-.93-1-.43-1.3s.04-.07.07-.04h0Z"/>
        <path class="cls-2" d="m14.12,10.42l1.07.84.61,1.22s-.03.07-.06.05l-1.07-.84-.61-1.22s.03-.07.06-.05Z"/>
        <path class="cls-2" d="m14.59,9.95l1.18.67.78,1.11s0,.08-.05.06l-1.18-.67-.78-1.11s0-.08.05-.06Z"/>
        <path class="cls-2" d="m14.99,9.42l1.27.48.95.98s0,.08-.04.07l-1.27-.48-.95-.98s0-.08.04-.07Z"/>
        <path class="cls-2" d="m15.3,8.82l1.32.28,1.09.82s0,.08-.03.07l-1.32-.28-1.09-.81s0-.08.03-.07h0Z"/>
        <path class="cls-2" d="m15.52,8.19l1.35.07,1.19.64s.02.08-.02.08l-1.35-.07-1.19-.64s-.02-.08.02-.08Z"/>
        <path class="cls-2" d="m15.64,7.53l1.34-.14,1.28.45s.03.07,0,.08l-1.34.14-1.28-.45s-.03-.07,0-.08Z"/>
        <path class="cls-2" d="m15.66,6.86l1.3-.35,1.33.25s.04.07,0,.08l-1.3.34-1.33-.25s-.04-.07,0-.08h0Z"/>
        <path class="cls-2" d="m15.58,6.2l1.24-.55,1.35.04s.05.06,0,.08l-1.24.55-1.35-.04s-.05-.06,0-.08Z"/>
        <path class="cls-2" d="m15.4,5.56l1.14-.74,1.34-.17s.06.05.03.07l-1.14.73-1.34.17s-.06-.05-.03-.07h0Z"/>
        <path class="cls-2" d="m15.12,4.95l1.02-.9,1.3-.37s.07.04.04.07l-1.02.9-1.3.37s-.07-.04-.04-.07Z"/>
        <path class="cls-2" d="m14.76,4.39l.87-1.04,1.23-.57s.07.03.05.06l-.87,1.04-1.23.57s-.07-.03-.05-.06Z"/>
        <path class="cls-2" d="m14.32,3.89l.7-1.17,1.13-.76s.08.02.06.05l-.7,1.17-1.13.76s-.08-.02-.06-.05Z"/>
        <path class="cls-2" d="m13.8,3.47l.52-1.26,1-.92s.08,0,.06.05l-.52,1.26-1,.92s-.08,0-.06-.05Z"/>
        <path class="cls-2" d="m13.23,3.13l.32-1.33.85-1.06s.08,0,.07.03l-.32,1.33-.85,1.06s-.08,0-.07-.03Z"/>
        <path class="cls-2" d="m12.61,2.89l.11-1.36.68-1.19s.08-.02.07.02l-.12,1.36-.68,1.19s-.08.02-.07-.02h0Z"/>
        <path class="cls-2" d="m11.97,2.74l-.09-1.37.49-1.27s.07-.03.08,0l.09,1.37-.49,1.27s-.07.03-.08,0h0Z"/>
      </g>
    </g>
  </g>
</svg>