<?xml version="1.0" encoding="UTF-8"?>
<svg id="Layer_2" data-name="Layer 2" xmlns="http://www.w3.org/2000/svg" viewBox="0 0 7.16 19.49">
  <defs>
    <style>
      .cls-1, .cls-2 {
        stroke-width: .06px;
      }

      .cls-1, .cls-2, .cls-3, .cls-4, .cls-5, .cls-6, .cls-7, .cls-8, .cls-9, .cls-10, .cls-11 {
        stroke: #fc0;
      }

      .cls-1, .cls-5, .cls-7, .cls-11 {
        fill: #ffd42a;
      }

      .cls-2, .cls-12, .cls-4, .cls-13, .cls-6, .cls-10 {
        fill: #fd5;
      }

      .cls-14 {
        stroke-width: .07px;
      }

      .cls-14, .cls-15, .cls-12, .cls-3, .cls-16, .cls-13 {
        stroke-linecap: round;
        stroke-linejoin: round;
      }

      .cls-14, .cls-17 {
        fill: #003380;
        stroke: #025;
      }

      .cls-15, .cls-12 {
        stroke-width: .06px;
      }

      .cls-15, .cls-12, .cls-16, .cls-13, .cls-18, .cls-19 {
        stroke: #ffd42a;
      }

      .cls-15, .cls-16, .cls-8, .cls-18, .cls-19 {
        fill: #ffe680;
      }

      .cls-3 {
        fill: #fff6d5;
        stroke-width: .07px;
      }

      .cls-4, .cls-5 {
        stroke-width: .07px;
      }

      .cls-16, .cls-13 {
        stroke-width: .08px;
      }

      .cls-17 {
        stroke-width: .08px;
      }

      .cls-6, .cls-7, .cls-8, .cls-18, .cls-20 {
        stroke-width: .08px;
      }

      .cls-20 {
        fill: #1a1a1a;
        stroke: #000;
      }

      .cls-19 {
        stroke-width: .06px;
      }

      .cls-9 {
        fill: #fea;
        stroke-width: .07px;
      }

      .cls-10, .cls-11 {
        stroke-width: .07px;
      }
    </style>
  </defs>
  <g id="Layer_2-2" data-name="Layer 2">
    <g id="layer1">
      <path id="path3101" class="cls-20" d="m.08,18.52l.35.48c.09.32,1.9.45,3.12.45h.07c1.22,0,3.04-.13,3.12-.45l.35-.48H.08Z"/>
      <path id="path3103" class="cls-17" d="m.87,15.78L.05,18.55c.04.33,1.84.5,3.49.51h.08s0,0,0,0c1.65,0,3.45-.18,3.49-.51l-.82-2.77H.87Z"/>
      <circle id="path3109" class="cls-13" cx="2.13" cy="17.47" r=".94"/>
      <circle id="path3105" class="cls-16" cx="2.08" cy="17.39" r=".94"/>
      <circle id="path3111" class="cls-12" cx="2.08" cy="17.41" r=".74" transform="translate(-.03 0) rotate(-.1)"/>
      <circle id="path3107" class="cls-15" cx="2.02" cy="17.35" r=".74" transform="translate(-.03 0) rotate(-.1)"/>
      <path id="path3113" class="cls-18" d="m.69,16.37c-.09.55-.26,1.04-.45,1.52-.06-.04-.11-.08-.11-.19l.36-1.25c.05-.1.12-.09.19-.09h0Z"/>
      <path id="path3115" class="cls-19" d="m.53,16.44c-.07.46-.21.87-.38,1.27-.05-.03-.09-.07-.09-.16l.31-1.04c.04-.08.1-.08.16-.07Z"/>
      <path id="path3117" class="cls-18" d="m1.17,17.16l-.65-.14c-.13-.03-.19.16-.09.18l.71.15c0-.07.02-.13.03-.2Z"/>
      <circle id="path3125" class="cls-13" cx="5.03" cy="17.47" r=".94"/>
      <circle id="path3121" class="cls-16" cx="5.08" cy="17.39" r=".94"/>
      <circle id="path3127" class="cls-12" cx="5.08" cy="17.41" r=".74"/>
      <circle id="path3123" class="cls-15" cx="5.14" cy="17.35" r=".74"/>
      <path id="path3129" class="cls-18" d="m6.47,16.37c.09.55.26,1.04.45,1.52.06-.04.11-.08.11-.19l-.36-1.25c-.05-.1-.12-.09-.19-.09h0Z"/>
      <path id="path3131" class="cls-19" d="m6.63,16.44c.07.46.21.87.38,1.27.05-.03.09-.07.09-.16l-.31-1.04c-.04-.08-.1-.08-.16-.07Z"/>
      <ellipse id="path3067" class="cls-14" cx="3.58" cy="15.78" rx="2.71" ry=".39"/>
      <path id="path3119" class="cls-18" d="m3.07,17.34c-.05,0-.06.2.01.2h1c.07,0,.07-.2.01-.2h-1.03Z"/>
      <path id="path3144" class="cls-8" d="m1.71,5.76c-.11,3.64,1.28,8.15-.37,9.93,0,.25,1.46.33,2.24.33s2.24-.09,2.24-.33c-1.65-1.79-.26-6.3-.37-9.93H1.71Z"/>
      <path id="path3165" class="cls-7" d="m5.02,12.75l.04.06c.49.67-1.34,1.84-1.32,2.89v.12c-.23-2.76,1.27-1.38,1.28-2.97v-.1Z"/>
      <path id="path3149" class="cls-6" d="m3.74,15.71c0-2.66,1.34-1.24,1.34-2.87.83,1.53-1.31,1.33-1.34,2.87Z"/>
      <path id="path3167" class="cls-5" d="m5.17,10.14l.06.13v.86l-3.12,1.49v.88s-.02.24-.02.24c-1.5-2.41,3.11-1.79,3.09-3.6h0Z"/>
      <path id="path3151" class="cls-4" d="m2.08,13.72c0-1.6,4.39-1.38,3.14-3.47,0,1.66-4.58,1.27-3.14,3.47Z"/>
      <path id="path3169" class="cls-18" d="m6,17.16l.65-.14c.13-.03.19.16.09.18l-.71.15c0-.07-.02-.13-.03-.2Z"/>
      <path id="path3171" class="cls-11" d="m2.06,11.14c-.16-.57-.04-1.02,0-1.51l3.21-2.07c.23-.48.39-1.02.4-1.66v-.31l-.16.31c0,2.52-5.21,2.05-3.59,5.26l.16.27-.02-.29Z"/>
      <path id="path3153" class="cls-10" d="m2.11,11.42C.03,8.15,5.67,8.39,5.67,5.89c0,4.11-4.1,2.56-3.56,5.54Z"/>
      <circle id="path3071" class="cls-3" cx="3.58" cy="3.43" r="3.39" transform="translate(.14 6.99) rotate(-89.71)"/>
      <path id="path3073" class="cls-9" d="m5.99,5.81l.06-.09-.38.15-.1-.02.15-.16-.1-.21-.38.28-.74-.02-.35.17-.19.63.46.19c.82-.24,1.19-.58,1.58-.91h0Z"/>
      <path id="path3075" class="cls-9" d="m5.76.84l.09.27.32.31.02.39-.12-.24-.21-.25-.02.24.31.41-.3.05-.19.14-.23-.31.12.26v.17s-.2.35-.2.35l-.28.12-.06.09v.35l-.27.12-.23.11-.12-.37-.21-.17v-.2l-.09-.05-.26.25-.31.08v.28l-.3.39-.25-.23.1-.41-.05-.35-.22.17v-.32h-.26s-.05-.14-.05-.14l-.49-.13.16.24.33.12.1.12-.47.16-.02.14-.28.1-.28-.4-.14-.54-.05.42.19.41.25.23h.25s-.08.17-.08.17l-.18.23v.17l-.21.24v.14s-.06.19-.06.19l.04.11.16.06v.24s-.11.13-.11.13v.31s.09.38.09.38l-.1.06-.32-.06-.79-1.15-.28-.9h-.03c.02-1.18.46-1.94.99-2.49C2.54-.37,4.85-.1,5.76.84h0Z"/>
      <path id="path3077" class="cls-9" d="m2.24,4.51l.19.14.02.14.1.12-.1.47h-.21v-.25s-.13-.09-.13-.09v-.1s.16-.08.16-.08l-.03-.35Z"/>
      <path id="path3079" class="cls-9" d="m5.91,2.26v.32s-.13.09-.13.09l-.1-.17v-.15s.13-.11.13-.11l.1.02Z"/>
      <path id="path3081" class="cls-9" d="m5.67,2.88l.12-.07.16.08-.19.2h-.12s.03-.21.03-.21Z"/>
      <path id="path3083" class="cls-9" d="m5.38,2.96l-.06.16-.14.05-.06-.21.08-.07h.1s.09.08.09.08Z"/>
      <path id="path3085" class="cls-9" d="m4.8,3.47l-.05.35-.25-.1.09-.21.22-.03Z"/>
      <path id="path3087" class="cls-9" d="m5.01,3.97s.5-.31.5-.31l.28.1s-.21.2-.19.2.49.01.49.01l-.71.36-.37-.36Z"/>
      <path id="path3089" class="cls-9" d="m4.82,3.98l-.41-.18.05.2.19.21.03.19.34.27.23-.13-.32-.21-.1-.35Z"/>
      <path id="path3091" class="cls-9" d="m5.45,4.57l-.11.09-.18.02.14.13.32-.02.11.09.39-.23-.06-.09-.48.08-.14-.09Z"/>
      <path id="path3093" class="cls-9" d="m6.4,2.33v.51s-.34.24-.34.24h.21s-.06.29-.06.29l.3-.56-.12-.49Z"/>
      <path id="path3095" class="cls-9" d="m6.59,2.05l-.17.2.09.02v.1s.2-.14.2-.14l-.12-.07v-.12Z"/>
      <path id="path3097" class="cls-9" d="m6.03,3.17l-.16.08-.03.16.19-.09h.08s-.07-.15-.07-.15Z"/>
      <path id="path3173" class="cls-1" d="m1.79,8.06l-.05-.11c-.42-1.76-.05-3.41.24-5.08h.07c.2,1.48-.62,3.04-.26,5.18h0Z"/>
      <path id="path3155" class="cls-2" d="m1.75,7.97c-.38-2.17.45-3.54.24-5.1-.49,1.69-1.02,3.38-.24,5.1Z"/>
    </g>
  </g>
</svg>