<?xml version="1.0" encoding="UTF-8"?>
<svg id="Layer_2" data-name="Layer 2" xmlns="http://www.w3.org/2000/svg" viewBox="0 0 33.59 5.69">
  <defs>
    <style>
      .cls-1 {
        fill: #005ca4;
        stroke-width: 0px;
      }
    </style>
  </defs>
  <g id="Layer_2-2" data-name="Layer 2">
    <g id="g1493">
      <path id="path855" class="cls-1" d="m4.72,5.69c-.17,0-.33-.03-.49-.07-.17-.05-.32-.13-.46-.24-.14-.13-.25-.28-.33-.46-.09-.23-.14-.47-.13-.71V1.45c0-.19.04-.39.11-.57.13-.35.39-.62.73-.77.36-.14.76-.14,1.12,0,.17.07.32.18.44.31.13.14.23.3.29.48.07.19.11.4.11.6v.33s-.03.07-.07.07h-.82s-.07-.03-.07-.07v-.27c0-.14-.04-.29-.13-.4-.07-.11-.2-.17-.33-.16-.14-.02-.27.05-.35.16-.07.15-.1.31-.09.48v2.54c0,.14.02.28.09.4.08.11.21.17.35.15h.16l.15-.09s.09-.1.11-.16c.03-.09.04-.18.04-.27v-.27s.03-.07.07-.07h.8s.07.03.07.07v.35c0,.37-.15.73-.4,1.01-.13.13-.27.24-.44.31-.17.07-.35.11-.53.11Z"/>
      <path id="path857" class="cls-1" d="m8.12,5.69c-.17,0-.35-.03-.51-.09-.18-.07-.34-.17-.48-.29-.14-.13-.25-.3-.33-.48-.09-.21-.13-.44-.13-.68V1.52c0-.23.04-.45.13-.66.08-.18.19-.34.33-.48.14-.13.3-.23.48-.29.34-.13.71-.13,1.04,0,.18.07.34.17.48.29.14.13.25.3.33.48.09.21.13.43.13.66v2.65c0,.23-.04.46-.13.68-.08.18-.19.34-.33.48-.14.13-.3.23-.48.29-.17.06-.35.08-.53.07Zm0-4.72c-.26-.01-.49.19-.5.45,0,.03,0,.07,0,.1v2.65c-.01.15.04.3.15.4.21.18.51.18.71,0,.11-.11.16-.25.15-.4V1.52c0-.15-.04-.29-.15-.4-.1-.09-.23-.13-.37-.13v-.02Z"/>
      <path id="path859" class="cls-1" d="m13.09,5.66h-.75s-.06-.02-.07-.05l-1.06-2.76s-.06-.02-.08,0c0,0-.01.01-.01.02v2.71s-.03.07-.07.07h-.82s-.07-.03-.07-.07V.13s.03-.07.07-.07h.77s.06.02.07.05l1.04,2.76s.06.02.08,0c0,0,.01-.01.01-.02V.13s.03-.07.07-.07h.8s.07.03.07.07v5.43s-.01.08-.05.09c0,0,0,0,0,0h0Z"/>
      <path id="path861" class="cls-1" d="m17.68,5.66h-.8s-.07-.03-.07-.07v-2.71s-.04-.04-.07-.03c0,0-.02,0-.02.01l-.62,1.94-.05.04h-.44l-.05-.04-.6-1.94s-.06-.02-.08,0c0,0-.01.01-.01.02v2.69s-.03.07-.07.07h-.8s-.07-.03-.07-.07h0V.13s.03-.07.07-.07h.77s.06.02.07.05l.97,2.61s.05.03.08.02c0,0,.01,0,.02-.02l.95-2.63s.04-.06.07-.05h.79s.07.03.07.07v5.43s0,.08-.03.1c-.01,0-.03.01-.05,0h0Z"/>
      <path id="path863" class="cls-1" d="m20.99,5.66h-2.43s-.07-.03-.07-.07V.13s.03-.07.07-.07h2.45s.07.03.07.07v.79s-.03.07-.07.07h-1.52s-.05.02-.05.05h0v1.26s.02.05.05.05h1.3s.07.03.07.07v.79s-.03.07-.07.07h-1.3s-.05.02-.05.05h0v1.26s.02.05.05.05h1.52s.07.03.07.07v.82s0,.08-.05.09c-.01,0-.03,0-.04,0h0Z"/>
      <path id="path865" class="cls-1" d="m22.8,5.66h-1.12s-.07-.03-.07-.07V.13s.03-.07.07-.07h1.19c.24,0,.47.04.69.13.18.08.34.2.48.35.22.27.34.59.37.93.04.51-.07,1.02-.49,1.33h-.02c.16.1.28.24.37.4.15.35.19.73.13,1.1-.03.33-.16.64-.37.9-.26.29-.68.46-1.23.46Zm-.24-1.04s.02.05.05.05h.24c.13,0,.25-.02.37-.07.38-.2.4-.9.11-1.19l-.05-.05c-.18-.13-.44-.09-.66-.09-.03,0-.05.02-.05.05h0v1.3Zm0-2.29s.02.05.05.05h.26c.26,0,.42-.05.51-.18.19-.32.18-.71-.02-1.02-.14-.14-.33-.21-.53-.18h-.24s-.05.02-.05.05h0l.02,1.28Z"/>
      <path id="path867" class="cls-1" d="m26.41,5.69c-.17,0-.35-.03-.51-.09-.18-.07-.34-.17-.48-.29-.14-.13-.25-.3-.33-.48-.09-.21-.13-.44-.13-.68V1.52c0-.23.04-.45.13-.66.08-.18.19-.34.33-.48.14-.13.3-.23.48-.29.34-.13.71-.13,1.04,0,.18.07.34.17.48.29.14.13.25.3.33.48.09.21.13.43.13.66v2.65c0,.23-.04.46-.13.68-.08.18-.19.34-.33.48-.14.13-.3.23-.48.29-.17.06-.35.08-.53.07Zm0-4.72c-.26-.01-.49.19-.5.45,0,.03,0,.07,0,.1v2.65c-.01.15.04.3.15.4.21.18.51.18.71,0,.11-.11.16-.25.15-.4V1.52c0-.15-.04-.29-.15-.4-.1-.09-.23-.13-.37-.13v-.02Z"/>
      <path id="path869" class="cls-1" d="m31.11,5.66h-2.45s-.07-.03-.07-.07V.13s.03-.07.07-.07h.8s.07.03.07.07v4.48s.02.05.05.05h1.52s.07.03.07.07v.82s-.01.08-.05.09c0,0-.01,0-.02,0Z"/>
      <rect id="rect871" class="cls-1" x="31.78" y="2.36" width="1.81" height=".99" rx=".02" ry=".02"/>
      <rect id="rect873" class="cls-1" y="2.36" width="1.81" height=".99" rx=".02" ry=".02"/>
    </g>
  </g>
</svg>