<?xml version="1.0" encoding="UTF-8"?>
<svg id="Layer_2" data-name="Layer 2" xmlns="http://www.w3.org/2000/svg" xmlns:xlink="http://www.w3.org/1999/xlink" viewBox="0 0 33.56 19.58">
  <defs>
    <style>
      .cls-1 {
        clip-path: url(#clippath);
      }

      .cls-2 {
        fill: none;
      }

      .cls-2, .cls-3, .cls-4, .cls-5 {
        stroke-width: 0px;
      }

      .cls-6 {
        clip-path: url(#clippath-1);
      }

      .cls-3 {
        fill: #c8102e;
      }

      .cls-4 {
        fill: #fff;
      }

      .cls-5 {
        fill: #012169;
      }
    </style>
    <clipPath id="clippath">
      <rect class="cls-2" width="33.56" height="19.58"/>
    </clipPath>
    <clipPath id="clippath-1">
      <path class="cls-2" d="m0,0v4.2h22.37v6.99L0,0Zm16.78,0h-8.39v11.19H-5.59L16.78,0Z"/>
    </clipPath>
  </defs>
  <g id="Layer_2-2" data-name="Layer 2">
    <g class="cls-1">
      <g>
        <path class="cls-5" d="m0,0h33.56v19.58H0V0Z"/>
        <g>
          <path class="cls-5" d="m0,0l16.78,8.39M0,8.39L16.78,0"/>
          <polygon class="cls-4" points="16.4 9.14 8.39 5.13 .38 9.14 -.38 7.64 6.51 4.19 -.38 .75 .38 -.75 8.39 3.26 16.4 -.75 17.16 .75 10.27 4.19 17.16 7.64 16.4 9.14"/>
        </g>
        <g class="cls-6">
          <g>
            <path class="cls-5" d="m0,0l16.78,8.39M0,8.39L16.78,0"/>
            <polygon class="cls-3" points="16.53 8.89 8.39 4.82 .25 8.89 -.25 7.89 7.14 4.19 -.25 .5 .25 -.5 8.39 3.57 16.53 -.5 17.03 .5 9.64 4.19 17.03 7.89 16.53 8.89"/>
          </g>
        </g>
        <g>
          <path class="cls-5" d="m8.39,0v11.19M0,4.2h19.58"/>
          <polygon class="cls-4" points="9.79 11.19 6.99 11.19 6.99 5.59 0 5.59 0 2.8 6.99 2.8 6.99 0 9.79 0 9.79 2.8 19.58 2.8 19.58 5.59 9.79 5.59 9.79 11.19"/>
        </g>
        <g>
          <path class="cls-5" d="m8.39,0v11.19M0,4.2h19.58"/>
          <polygon class="cls-3" points="9.23 11.19 7.55 11.19 7.55 5.03 0 5.03 0 3.36 7.55 3.36 7.55 0 9.23 0 9.23 3.36 19.58 3.36 19.58 5.03 9.23 5.03 9.23 11.19"/>
        </g>
        <path class="cls-5" d="m0,8.39h16.78V0h16.78v19.58H0v-11.19Z"/>
      </g>
    </g>
    <g>
      <g id="t">
        <g id="s">
          <path class="cls-4" d="m25.17,1.43l.28.87h.91l-.74.53.28.87-.74-.53-.74.53.28-.87-.74-.53h.91l.28-.87Z"/>
        </g>
        <g id="s-2" data-name="s">
          <path class="cls-4" d="m28,2.03l-.1.91.83.37-.89.19-.1.91-.46-.79-.89.19.61-.68-.46-.79.83.37.61-.68Z"/>
        </g>
        <g id="s-3" data-name="s">
          <path class="cls-4" d="m30.35,3.73l-.46.79.61.68-.89-.19-.46.79-.1-.91-.89-.19.84-.37-.1-.91.61.68.84-.37Z"/>
        </g>
      </g>
      <g id="t-2" data-name="t">
        <g id="s-4" data-name="s">
          <path class="cls-4" d="m31.79,6.24l-.74.54.28.87-.74-.54-.74.54.28-.87-.74-.54h.92s.28-.87.28-.87l.28.87h.92Z"/>
        </g>
        <g id="s-5" data-name="s">
          <path class="cls-4" d="m32.1,9.12l-.9.19-.1.91-.45-.79-.9.19.61-.68-.45-.79.84.37.61-.68-.1.91.84.37Z"/>
        </g>
        <g id="s-6" data-name="s">
          <path class="cls-4" d="m31.2,11.87l-.9-.19-.46.79-.09-.91-.9-.19.83-.37-.09-.91.61.68.83-.37-.46.79.61.68Z"/>
        </g>
      </g>
      <g id="t-3" data-name="t">
        <g id="s-7" data-name="s">
          <path class="cls-4" d="m29.26,14.02l-.74-.54-.74.54.28-.87-.74-.54h.91s.29-.87.29-.87l.28.87h.91s-.74.54-.74.54l.28.87Z"/>
        </g>
        <g id="s-8" data-name="s">
          <path class="cls-4" d="m26.62,15.2l-.46-.79-.89.19.61-.68-.46-.79.84.37.61-.68-.1.91.83.37-.89.19-.1.91Z"/>
        </g>
        <g id="s-9" data-name="s">
          <path class="cls-4" d="m23.72,15.2l-.1-.91-.89-.19.83-.37-.1-.91.61.68.84-.37-.46.79.61.68-.89-.19-.46.79Z"/>
        </g>
      </g>
      <g id="t-4" data-name="t">
        <g id="s-10" data-name="s">
          <path class="cls-4" d="m21.08,14.02l.28-.87-.74-.54h.91s.28-.87.28-.87l.29.87h.91s-.74.54-.74.54l.28.87-.74-.54-.74.54Z"/>
        </g>
        <g id="s-11" data-name="s">
          <path class="cls-4" d="m19.14,11.87l.61-.68-.46-.79.83.37.61-.68-.09.91.83.37-.9.19-.09.91-.46-.79-.9.19Z"/>
        </g>
        <g id="s-12" data-name="s">
          <path class="cls-4" d="m18.24,9.12l.84-.37-.1-.91.61.68.84-.37-.45.79.61.68-.9-.19-.45.79-.1-.91-.9-.19Z"/>
        </g>
      </g>
      <g id="t-5" data-name="t">
        <g id="s-13" data-name="s">
          <path class="cls-4" d="m18.55,6.24h.92s.28-.87.28-.87l.28.87h.92s-.74.54-.74.54l.28.87-.74-.54-.74.54.28-.87-.74-.54Z"/>
        </g>
        <g id="s-14" data-name="s">
          <path class="cls-4" d="m19.99,3.73l.84.37.61-.68-.1.91.84.37-.89.19-.1.91-.46-.79-.89.19.61-.68-.46-.79Z"/>
        </g>
        <g id="s-15" data-name="s">
          <path class="cls-4" d="m22.34,2.03l.61.68.83-.37-.46.79.61.68-.89-.19-.46.79-.1-.91-.89-.19.83-.37-.1-.91Z"/>
        </g>
      </g>
    </g>
  </g>
</svg>