<?xml version="1.0" encoding="UTF-8"?>
<svg id="Layer_2" data-name="Layer 2" xmlns="http://www.w3.org/2000/svg" viewBox="0 0 33.56 6.5">
  <defs>
    <style>
      .cls-1 {
        stroke-width: 0px;
      }
    </style>
  </defs>
  <g id="Layer_2-2" data-name="Layer 2">
    <g id="g18">
      <g id="g22">
        <path id="path24" class="cls-1" d="m1.53,6.49c-.12,0-.26,0-.3-.01-.04,0-.14-.03-.21-.05-.07-.02-.21-.08-.3-.12-.1-.05-.22-.15-.32-.24-.1-.1-.18-.22-.24-.34-.05-.1-.1-.25-.13-.34-.03-.12-.04-.26-.04-.51s.01-.39.04-.51c.02-.09.09-.25.14-.36.08-.15.14-.24.27-.36.1-.1.24-.19.33-.24.09-.04.24-.09.33-.12.11-.03.27-.04.45-.04.17,0,.36.02.47.04.1.02.29.07.42.11.13.04.24.07.24.07,0,0-.04.13-.09.29-.09.27-.1.28-.17.28-.04,0-.16-.03-.27-.06-.12-.03-.3-.06-.46-.07-.15,0-.3,0-.36.01-.06.02-.15.06-.21.1-.06.04-.14.12-.18.18-.04.06-.09.17-.11.24-.03.09-.04.23-.04.42,0,.2.01.33.04.43.02.08.07.19.11.25.04.05.11.13.17.17.05.04.17.09.27.11.15.04.21.04.42.01.14-.02.34-.06.46-.09s.21-.06.22-.05.05.14.11.29c.05.15.09.28.09.29,0,0-.12.04-.25.08-.13.04-.34.09-.46.11-.12.02-.32.04-.44.03h0Zm3.02,0c-.18,0-.38,0-.44-.01-.06-.01-.18-.05-.26-.07s-.22-.09-.3-.14c-.08-.05-.2-.16-.27-.24-.07-.08-.17-.22-.22-.32s-.1-.26-.13-.35c-.03-.11-.04-.28-.04-.47,0-.22.01-.35.05-.49.03-.11.09-.27.14-.37.05-.1.15-.24.24-.33.09-.09.22-.19.32-.24.1-.05.26-.12.37-.15.15-.04.26-.05.49-.05.22,0,.35.01.49.05.11.03.26.09.35.13s.23.15.32.24c.13.13.19.21.26.37.06.12.12.3.14.41.03.16.04.28.03.51,0,.21-.03.35-.07.47-.03.1-.09.24-.14.32s-.15.22-.24.3-.22.19-.29.23c-.07.04-.21.1-.31.13-.13.04-.25.06-.51.06h0Zm-.06-.56c.08,0,.21-.02.28-.04.09-.03.17-.08.25-.15.07-.06.14-.16.17-.24.03-.07.07-.2.09-.29s.03-.24.03-.34-.02-.25-.04-.34-.06-.22-.08-.27-.09-.15-.14-.21-.15-.13-.22-.16c-.1-.05-.17-.06-.35-.06-.19,0-.24,0-.36.07-.09.05-.17.11-.23.18-.05.06-.11.19-.14.28-.05.14-.06.21-.06.5,0,.29,0,.36.06.52.05.15.08.21.2.33.1.1.17.15.26.18.07.02.19.04.27.04h0Zm13.69.56c-.07,0-.17,0-.22-.02-.05-.01-.11-.05-.14-.08-.03-.03-.07-.08-.09-.12-.02-.03-.17-.47-.34-.96l-.31-.9v1.03s-.01,1.03-.01,1.03h-.69v-1.4c0-.89,0-1.44.03-1.49.01-.05.05-.12.09-.17.03-.04.11-.09.18-.12.07-.03.18-.05.29-.05s.22.02.29.04c.06.02.15.09.2.14.08.08.12.21.39,1.02l.3.92.3-.89c.17-.49.32-.92.34-.96.02-.04.06-.1.1-.13.03-.03.1-.07.15-.09.05-.02.14-.04.21-.05.07,0,.19,0,.27.01.1.02.17.05.23.11.05.04.1.11.12.16.03.06.03.37.03,1.51v1.43h-.72v-1.03s-.01-1.03-.01-1.03l-.31.9c-.17.49-.33.94-.35.98s-.08.11-.12.13-.13.05-.2.05h0Zm11.25,0c-.12,0-.28-.02-.36-.03-.08-.02-.21-.06-.29-.09-.08-.03-.21-.1-.29-.16-.08-.06-.18-.16-.23-.22-.05-.06-.13-.19-.18-.29-.05-.1-.11-.27-.13-.37-.02-.11-.04-.3-.04-.48,0-.22.01-.35.05-.49.03-.11.09-.27.14-.37.06-.11.15-.24.24-.33.1-.1.21-.18.33-.24.1-.05.25-.11.34-.13.11-.03.25-.04.46-.04.2,0,.37.02.52.05.12.03.34.09.48.13.14.04.25.08.25.09s-.02.07-.05.15-.06.15-.07.17c-.01.01-.02.04-.02.06s-.02.07-.04.12l-.04.08-.12-.04c-.07-.02-.23-.06-.37-.1-.17-.04-.32-.06-.46-.06-.12,0-.27.02-.34.04-.09.03-.16.07-.25.16-.08.08-.14.17-.17.26-.04.11-.06.22-.07.41,0,.16,0,.33.02.42.02.08.06.2.09.27.03.06.09.15.14.19s.14.1.21.14c.1.05.16.06.38.05.19,0,.32-.02.48-.06.12-.03.22-.05.23-.05,0,0-.04.15-.1.31-.06.17-.12.32-.13.35-.02.03-.08.05-.21.07-.1.02-.28.03-.4.03h0Zm-22.47-.02c-.21,0-.39,0-.4-.02s-.02-.64-.02-1.4c0-.76.01-1.43.02-1.48.01-.06.05-.13.11-.18.05-.04.13-.09.18-.1.05-.02.33-.03.65-.03.31,0,.62.01.69.02s.2.05.28.08c.09.03.19.1.29.19.1.09.16.18.21.28.04.08.08.22.09.31.02.11.02.21,0,.34-.02.1-.06.23-.09.3s-.11.18-.18.24c-.06.07-.17.15-.23.18s-.18.08-.26.1c-.1.03-.27.04-.56.04h-.41v1.14h-.38Zm.73-1.71c.3,0,.37-.02.45-.06.07-.03.12-.09.16-.16.05-.09.06-.14.05-.28,0-.12-.02-.19-.06-.23-.03-.04-.09-.09-.14-.12-.07-.04-.14-.05-.45-.06h-.36s0,.45,0,.45v.46h.35Zm1.46,1.71c-.16,0-.28,0-.28-.02s.24-.67.53-1.47.54-1.47.55-1.49c.01-.03.07-.08.11-.12.05-.04.13-.09.18-.1.05-.01.15-.03.23-.03.09,0,.18.02.26.06.07.03.15.09.18.13.03.04.28.72.56,1.52.28.79.52,1.46.52,1.49.01.04-.02.04-.39.04h-.4s-.1-.29-.1-.29l-.1-.28h-.58s-.58.01-.58.01l-.07.18c-.04.1-.1.21-.13.24-.03.03-.09.08-.14.1-.05.02-.18.03-.36.03Zm1.29-1.16c.32,0,.41,0,.4-.03,0-.02-.1-.29-.2-.61l-.19-.58-.21.6c-.11.33-.21.61-.21.61,0,0,.18,0,.41,0h0Zm2.79,1.16c-.16,0-.28,0-.28-.02s.24-.67.53-1.47c.29-.8.54-1.47.55-1.49.01-.03.07-.08.11-.12.05-.04.13-.09.18-.1s.15-.03.23-.03c.09,0,.18.02.26.06.07.03.15.09.18.13.03.04.28.72.56,1.52.28.79.52,1.46.52,1.49.01.04-.02.04-.39.04h-.4s-.1-.29-.1-.29l-.1-.28h-.58s-.58.01-.58.01l-.07.18c-.04.1-.1.21-.13.24-.03.03-.09.08-.14.1-.05.02-.18.03-.36.03h0Zm1.29-1.16c.32,0,.41,0,.4-.03,0-.02-.1-.29-.2-.61l-.19-.58-.21.6c-.11.33-.21.61-.21.61,0,0,.18,0,.41,0Zm7.34,1.15c-.56,0-1.05,0-1.09-.02-.04-.01-.11-.05-.15-.09-.04-.04-.09-.11-.1-.17-.02-.06-.03-.51-.03-1.32,0-.73,0-1.26.02-1.31.01-.05.06-.12.1-.16.04-.04.13-.09.18-.1.06-.02.45-.03,1.08-.03.86,0,.98,0,1,.04,0,.02,0,.1,0,.17-.01.1-.04.16-.1.23-.04.05-.11.1-.16.12-.06.03-.24.03-.71.03h-.63v.69h1.38v.57h-.69s-.69.01-.69.01v.38s-.01.38-.01.38h.8s.8.01.8.01v.57h-1.01Zm1.91,0h-.39s0-1.46,0-1.46v-1.47l.06-.08s.09-.11.14-.13c.08-.05.13-.05.77-.06.54,0,.72,0,.86.03.1.02.24.06.31.1.07.03.18.11.25.18.06.06.15.18.19.27.04.09.08.22.09.32,0,.09,0,.22-.01.29-.02.07-.05.19-.09.26-.03.07-.11.18-.18.24-.07.06-.14.13-.17.15-.05.03-.05.05.25.69.17.36.3.66.3.67,0,.01-.19.02-.41.01h-.41s-.25-.58-.25-.58l-.25-.57h-.32s-.32-.01-.32-.01v.58s-.01.58-.01.58h-.39Zm.77-1.72c.2,0,.4-.01.44-.03.04-.01.11-.06.15-.1.04-.04.1-.13.12-.2.03-.08.03-.16.02-.24-.01-.09-.04-.14-.11-.21-.05-.05-.14-.1-.19-.12-.05-.02-.26-.03-.45-.03h-.35s0,.46,0,.46v.46h.37Zm2.45,1.72h-.4s0-1.6,0-1.6v-1.61h.4s.4.01.4.01v3.19h-.4Zm3.71,0c-.16,0-.28,0-.28-.02s.24-.67.53-1.47c.29-.8.54-1.47.55-1.49.01-.03.07-.08.11-.12.05-.04.13-.09.18-.1.05-.01.15-.03.23-.03.09,0,.18.02.26.06.07.03.15.09.18.13.03.04.28.72.56,1.52.28.79.52,1.46.52,1.49.01.04-.02.04-.39.04h-.4s-.1-.29-.1-.29l-.1-.28h-.58s-.58.01-.58.01l-.07.18c-.04.1-.1.21-.13.24-.03.03-.09.08-.14.1-.05.02-.18.03-.36.03h0Zm1.29-1.16c.32,0,.41,0,.4-.03,0-.02-.1-.29-.2-.61l-.19-.58-.21.6c-.11.33-.21.61-.21.61,0,0,.18,0,.41,0ZM12.7,1.95c-.09,0-.17-.02-.24-.06-.07-.04-.13-.09-.16-.16-.06-.1-.06-.13-.06-.74,0-.56,0-.64.05-.73.03-.06.09-.13.14-.17.07-.05.13-.07.22-.08.07,0,.17,0,.22.02.05.02.12.06.16.11s.09.12.1.16c.02.05.03.13.03.19v.11h-.15s-.15-.01-.15-.01v-.11c-.02-.06-.04-.12-.06-.13-.02-.01-.06-.02-.08-.02s-.07.01-.09.02c-.03.02-.04.12-.04.6,0,.38,0,.6.02.63.02.04.05.05.11.05.05,0,.09-.01.11-.03.01-.02.03-.08.03-.13v-.1s.16,0,.16,0h.15s0,.13,0,.13c0,.08-.01.16-.03.19-.02.03-.06.09-.09.12s-.09.09-.13.11c-.04.02-.13.03-.2.03h0Zm1.14,0c-.07,0-.16-.02-.2-.04-.04-.02-.1-.06-.13-.09s-.07-.09-.09-.13c-.03-.06-.03-.23-.03-.71,0-.59,0-.64.05-.73.03-.05.1-.13.15-.17.09-.06.13-.07.27-.07.13,0,.18.01.26.06.05.03.12.11.16.16l.06.11v.66s-.01.66-.01.66l-.07.09s-.11.11-.17.14c-.06.03-.15.05-.23.05h0Zm0-.32s.09-.02.11-.04c.03-.03.04-.12.04-.61s0-.58-.04-.62c-.02-.02-.07-.05-.11-.05s-.09.02-.11.04c-.03.03-.04.12-.04.62s0,.58.04.62c.02.02.07.04.11.04h0Zm.91.32c-.1,0-.15,0-.15-.02,0-.02,0-.45,0-.97V.01s.13,0,.13,0c.07,0,.14,0,.15.01.02.01.1.23.2.49l.17.47v-.48s.02-.48.02-.48h.3v1.93h-.13c-.08.01-.13,0-.15-.02-.01-.02-.09-.21-.17-.43-.08-.22-.16-.42-.17-.46-.02-.05-.03.04-.04.42v.48s-.15,0-.15,0Zm1.26,0c-.1,0-.15,0-.15-.02,0-.02,0-.45,0-.97V.01h.3l.16.46c.09.25.17.46.17.45,0,0,.08-.21.16-.45l.15-.44h.15s.15-.01.15-.01v.96s-.01.96-.01.96h-.3v-.48s-.02-.48-.02-.48l-.1.31-.1.31h-.09s-.09.02-.09.02l-.11-.32-.11-.32v.48s-.02.48-.02.48h-.14Zm1.8,0c-.32,0-.42,0-.43-.02,0-.02,0-.45,0-.97V.01h.85v.3h-.27s-.27.01-.27.01v.49h.23s.23.01.23.01v.14s.01.14.01.14h-.23s-.23.01-.23.01v.49h.26s.26.02.26.02v.3h-.41Zm.87,0c-.12,0-.22,0-.23-.02,0,0-.02-.44-.02-.96V.02h.28c.18,0,.31.01.36.03.04.02.12.07.16.12.04.05.09.13.1.18,0,.05.01.16,0,.26,0,.15-.02.18-.08.24-.06.06-.06.07-.03.1.02.02.06.06.08.1.02.05.04.15.03.3,0,.17-.01.26-.05.33-.03.06-.08.12-.12.15-.04.03-.12.06-.18.08s-.2.03-.32.03h0Zm.19-.33s.11-.03.13-.05c.03-.03.04-.09.04-.22s-.01-.19-.04-.22c-.02-.02-.08-.04-.14-.04h-.1s0,.24,0,.24c0,.13,0,.26,0,.28.01.03.04.03.1.02h0Zm0-.84s.1-.03.12-.05c.02-.02.04-.07.05-.12,0-.05,0-.12,0-.15,0-.03-.03-.08-.05-.1-.02-.02-.08-.04-.14-.04h-.1v.22c0,.12,0,.23.02.24.01.01.06.01.1,0h0Zm1.16,1.17c-.07,0-.16-.02-.2-.03-.04-.02-.1-.07-.14-.1s-.08-.1-.09-.14c-.02-.04-.03-.31-.03-.7s.01-.65.03-.7c.01-.04.05-.1.08-.13.03-.03.1-.08.15-.1.05-.03.15-.05.2-.05.06,0,.15.02.2.04.05.02.11.06.14.08.03.02.07.08.09.14.04.09.05.14.04.76v.66s-.08.09-.08.09c-.04.05-.11.11-.17.14-.06.03-.14.05-.23.05h0Zm0-.32s.09-.02.11-.04c.03-.03.04-.12.04-.61s0-.58-.04-.62c-.02-.02-.07-.05-.11-.05s-.09.02-.11.04c-.03.03-.04.12-.04.62s0,.58.04.62c.02.02.07.04.11.04h0Zm1.11.32c-.23,0-.42,0-.43-.01s-.02-.44-.02-.95c0-.69,0-.94.03-.96.02-.02.08-.03.14-.03s.13.01.14.03c.02.02.03.24.03.82v.79h.52v.15s-.01.15-.01.15h-.41Zm-9.76-.82c-.16,0-.29,0-.3-.01,0,0-.02-.07-.02-.13,0-.06,0-.13.02-.14.01-.02.09-.03.3-.02h.28v.3h-.29Zm10.78,0c-.22,0-.28,0-.29-.03,0-.02,0-.09,0-.16v-.12h.58v.3h-.28s0,0,0,0Z"/>
      </g>
    </g>
  </g>
</svg>