<?xml version="1.0" encoding="UTF-8"?>
<svg id="Layer_2" data-name="Layer 2" xmlns="http://www.w3.org/2000/svg" viewBox="0 0 199.68 351.1">
  <defs>
    <style>
      .cls-1 {
        fill: #33835c;
      }

      .cls-1, .cls-2, .cls-3, .cls-4, .cls-5 {
        stroke-width: 0px;
      }

      .cls-2 {
        fill: #aa182c;
      }

      .cls-3 {
        fill: #fff;
      }

      .cls-4 {
        fill: #fefefe;
      }

      .cls-5 {
        fill: #eba900;
      }
    </style>
  </defs>
  <g id="Layer_1-2" data-name="Layer 1">
    <g>
      <path class="cls-1" d="m194.41,70.39H5.27c-2.91,0-5.27,2.39-5.27,5.35,0,.65.07,1.27.32,1.84l96.48,271.34c.38,1.26,1.64,2.16,3.05,2.16s2.67-.91,3.04-2.16L199.37,77.59c.24-.58.32-1.19.32-1.84,0-2.96-2.36-5.35-5.27-5.35Z"/>
      <path class="cls-4" d="m196.91,76.64l-96.53,271.47c-.02.1-.25.36-.54.36s-.52-.26-.54-.36L2.77,76.64c-.06-.13-.14-.44-.14-.89,0-1.54,1.22-2.72,2.64-2.72h189.14c1.42,0,2.64,1.18,2.64,2.72,0,.45-.08.76-.14.89Z"/>
      <path class="cls-5" d="m117.96,239.57c-4.14,1.47-6.25,5.21-7.13,9.25,5.02,2.93,8.65,5.58,11.11,9.1,1.37-6.25.06-12.98-3.97-18.36Z"/>
      <path class="cls-5" d="m109.88,250.54c-4.43,3.17-6.83,6.91-7.18,12.58,4.32,1.35,8.02,3.38,10.55,8.22.68-.51,1.34-1.06,1.98-1.66,2.81-2.62,4.81-5.79,5.98-9.18-2.2-3.95-5.76-6.71-11.34-9.96Z"/>
      <path class="cls-5" d="m101.91,264.93c-4.78,3.33-12.5,1.77-15.43-1.93-3.58.04-6.23-1.06-8.21-2.97.98,3.1,2.65,6.05,5.01,8.58,7.34,7.89,19.02,9.32,27.96,4.06.11-.12.2-.25.29-.38-2.24-4.08-5.46-6.08-9.63-7.36Z"/>
      <path class="cls-5" d="m85.83,260.91c-.43-8.21,5.65-24.09,18.52-29.92-6.9-1.38-14.34.48-19.89,5.65-5.45,5.08-7.85,12.2-7.09,19.07,1.75,3.5,4.8,4.94,8.47,5.2Z"/>
      <path class="cls-5" d="m87.87,261.57c1.97,2.68,8.61,4.59,12.87,1.78.39-6.22,2.74-10.75,8.06-14.45.67-3.77,2.86-8.85,7.85-10.93l-.22-.25c-2.56-2.74-5.64-4.71-8.96-5.88-13.99,4.76-20.51,22.12-19.59,29.73Z"/>
      <path class="cls-1" d="m90.48,276.76v38.74l9.36,26.32,9.36-26.32v-38.74c-2.9,1.15-6.05,1.8-9.36,1.8s-6.46-.64-9.36-1.8Z"/>
      <polygon class="cls-1" points="15.6 104.91 34.32 157.56 34.32 75.65 15.6 75.65 15.6 104.91"/>
      <polygon class="cls-1" points="165.36 75.65 165.36 157.56 184.08 104.92 184.08 75.65 165.36 75.65"/>
      <path class="cls-1" d="m50.94,75.65v100.97c0,2.81.77,5.43,2.1,7.69v25.89l18.72,52.65v-71.03h14.85c1.32.01,2.62.18,3.87.49v37.26c2.9-1.15,6.05-1.8,9.36-1.8s6.46.64,9.36,1.8v-37.26c1.25-.31,2.55-.47,3.87-.48h.72s14.13,0,14.13,0v71.03l18.72-52.65v-25.89c1.33-2.26,2.1-4.89,2.1-7.69v-100.97H50.94Z"/>
      <path class="cls-3" d="m72.64,117.48c2.3,0,4.56-.55,6.55-1.52l1.85-1.09c1.53-1.05,2.84-2.39,3.79-3.96l.93-1.85c.55-1.38.86-2.89.86-4.51v-26.92h26.44v26.92c0,1.61.3,3.13.86,4.51l.93,1.85c.96,1.57,2.27,2.91,3.79,3.96l1.85,1.09c2,.97,4.25,1.52,6.55,1.52h19.71v32.52h-19.71c-2.3,0-4.56.54-6.55,1.52l-1.85,1.08c-1.46,1-2.72,2.28-3.66,3.76l-.98,1.85c-.6,1.43-.94,3.02-.94,4.71v26.93c-4.25.03-8.16,1.48-11.28,3.9l-1.94,1.51-1.94-1.51c-3.12-2.42-7.03-3.87-11.27-3.9v-26.93c0-1.7-.35-3.28-.95-4.71l-.98-1.85c-.95-1.48-2.2-2.75-3.66-3.76l-1.85-1.08c-2-.98-4.25-1.52-6.55-1.52h-19.71v-32.52h19.71Z"/>
      <path class="cls-3" d="m115.07,77.63v26.91c0,6.24,5.59,10.92,11.99,10.92h19.69v-37.83h-31.68Z"/>
      <path class="cls-3" d="m115.08,162.93v26.9s18.45,0,18.45,0c7.31,0,13.23-5.92,13.23-13.22v-24.6h-19.69c-6.4,0-11.98,4.68-11.98,10.92"/>
      <path class="cls-2" d="m145.58,78.81v35.47h-18.52c-5.88,0-10.8-4.28-10.8-9.74v-25.73s29.32,0,29.32,0Z"/>
      <path class="cls-2" d="m127.06,153.19h18.52v23.42c0,6.66-5.39,12.06-12.05,12.06h-17.28v-25.73c0-5.46,4.93-9.74,10.81-9.74"/>
      <path class="cls-3" d="m84.61,77.63v26.91c0,6.24-5.59,10.92-11.99,10.92h-19.69v-37.83h31.68Z"/>
      <path class="cls-3" d="m84.6,162.93v26.9s-18.45,0-18.45,0c-7.31,0-13.23-5.92-13.23-13.22v-24.6h19.69c6.4,0,11.98,4.68,11.98,10.92"/>
      <path class="cls-2" d="m54.11,78.81v35.47h18.52c5.88,0,10.8-4.28,10.8-9.74v-25.73s-29.32,0-29.32,0Z"/>
      <path class="cls-2" d="m72.62,153.19h-18.52v23.42c0,6.66,5.39,12.06,12.05,12.06h17.28v-25.73c0-5.46-4.93-9.74-10.81-9.74"/>
      <path class="cls-2" d="m88.17,127.4c.22.24.44.36.88.36l1.22-.03c0-1.55.59-2.73,1.54-3.69.16-.16.33-.3.5-.44l-.8-.05-1.65-.1c-.48-.03-.74-.3-.91-.45l-1.82-1.55c-.19-.13-.31-.26-.31-.45-.02-1.75-1.12-3.24-2.64-3.36-.4,0-.5.27-.5.45v4.21c0,.37.12.56.34.83l4.15,4.26Z"/>
      <path class="cls-2" d="m93.46,120.72c-.08,0-.16,0-.24-.02-.08,0-.28.04-.24.25l.23,1.38c.04.27.3.3.46.27.29-.07.63-.15.96-.23.49-.21.96-.42,1.5-.68,3.03-1.46,6-3.32,5.37-7.82l-.03-.18c-.1-.5-.55-.69-.83-.69-.26,0-3.13.46-3.13.46-.68.11-.84.72-1.46.92l-2.7,1.12c-1.32.46-1.03,1.27-1.03,1.27l.18.96c.04.15.22.33.44.26.16-.03.28-.05.51-.05.54,0,1.01.21,1.28.6-1.4-.21-2.66,1.18-3.8-.16-.1-.15-.29,0-.22.13,1.1,2.5,2.59,1.08,4.24,1.04-.12.66-.75,1.17-1.51,1.17Zm4.68-5.75l-1.31,1.26c-.21-.34-.3-.63-.42-.79.33-.35,1.09-.56,1.72-.48Z"/>
      <path class="cls-2" d="m96.66,152.56c-.06.15-.14.33-.42.33-1.99.06-3.32.59-3.53,2.42-.03.3.1.72.6.72h4.73c.57,0,.98-.57,1.12-.89l2.4-4.81c.16-.33.23-.49-.09-1.02-1.21-1.64-.62-3.25.83-3.77-1.18-1.64-1.92-3.61-2.01-5.7-.06-.02-.09-.05-.14-.08-.23-.05-.45-.09-.69-.15-.1.03-.23.08-.38.14-2.46.95-3.86,3.28-3.86,5.61,0,1.54.73,3.33,1.93,4.32.33.31.51.43.08,1.36l-.58,1.53Z"/>
      <path class="cls-2" d="m114.65,147.11c-2.56-.39-4.49-2.39-4.49-3.9.2-.48,1.48-2.82.93-4.71-.12-.4,0-.8.19-1.06,1.91-2.5,1.47-6.62-1.74-8.17-3.2-1.22-3.01-5.79-.2-7.22.13-.08.4-.11.56-.07.4.06,1,.04,1.69-.56.6-.53.92-1.5.93-2.21.01-.7-.07-1.3-.22-1.61-.12-.24-.29-.23-.5.05l-.42.59c-.14.19-.25.2-.62.27-.39.06-.94.13-1.49.67-.45.44-.61.74-.66,1.27-.02.32-.08.41-.19.48-3.47,2.01-3.82,7.94.54,9.63,2.13,1.03,2.54,3.63,1.48,5.44-.8,1.07-2.84.07-3.51-.31-4.61-2.6-4.78-7.45-3.9-8.57,1.53-2.01,2.25-4.56,1.94-7.39-.04-.31-.3-.32-.41-.04-1.67,4.54-10.2,4.82-9.25,8.99-2.13-4.45,9.74-5.18,8.63-12.01-.22-1.35-.9-2.41-1.37-3.02-.16-.21-.42-.11-.38.14.71,5.01-2.71,7.06-5.75,8.53-.8.38-1.45.66-2.25,1-.76.33-1.36.69-1.88,1.22-.96.96-1.5,2.15-1.31,3.83.07.43.15.65-.16.78l-.81.33c-.49.16-.96-.07-1.21-.15l-1.34-.41c-.63-.13-.69-.68-.69-.68-.17-1.63-1.13-2.89-2.63-3.01-.33,0-.48.24-.48.39v4.42c0,.47.09.78.64,1.12l6.19,3.2c.33.17.67.18,1.03.02l.81-.35.85-.37c.37-.2.66-.04.78.34,1.25,3.3,3.93,4.71,6.49,5.12.39.07.5.27.5.6.13,4.31,3.25,8.11,7.29,9.19l2.29.59c.32.08.37.37.31.58l-.84,2.55s-.1.35-.42.35c-1.57.14-2.95.66-3.19,2.43-.05.4.3.62.57.62h4.72c.64,0,1.04-.82,1.19-1.37l2.23-6.64c.24-.61-.17-.84-.47-.91Z"/>
      <path class="cls-2" d="m100.43,99.27s-.06-.03-.09-.05c-.16-.03-.33-.07-.49-.1-.08.02-.16.05-.27.09-1.75.67-2.73,2.32-2.73,3.97,0,1.09.52,2.36,1.37,3.05.23.21.35.3.06.96l-.41,1.08c-.04.11-.09.24-.29.24-1.42.04-2.36.42-2.5,1.7-.02.21.07.51.43.51h3.34c.4,0,.69-.4.79-.63l1.7-3.4c.11-.23.16-.35-.06-.72-.86-1.16-.44-2.3.58-2.67-.84-1.15-1.36-2.55-1.42-4.03Z"/>
      <path class="cls-2" d="m89.14,93.14l4.38,2.26c.23.12.48.13.73.01l.57-.24.6-.27c.27-.14.46-.02.55.24.88,2.33,2.78,3.33,4.59,3.62.27.05.35.19.35.42.09,3.05,2.3,5.74,5.15,6.5l1.62.42c.23.06.27.26.23.42l-.59,1.8s-.08.24-.29.25c-1.11.09-2.08.46-2.25,1.71-.04.29.22.44.4.44h3.34c.45,0,.73-.58.84-.96l1.58-4.69c.17-.44-.12-.59-.34-.65-1.81-.27-3.17-1.69-3.17-2.76.14-.35,1.05-2,.66-3.33-.08-.29,0-.56.13-.74,1.35-1.77,1.04-4.69-1.23-5.78-2.26-.86-2.13-4.1-.14-5.11.09-.05.28-.08.39-.04.28.04.72.02,1.2-.4.42-.38.65-1.06.66-1.56,0-.5-.05-.92-.16-1.14-.08-.17-.2-.16-.35.03l-.3.42c-.1.13-.17.15-.43.19-.27.04-.66.09-1.05.48-.32.32-.43.52-.46.89,0,.23-.06.29-.14.34-2.45,1.42-2.7,5.61.38,6.8,1.5.73,1.79,2.57,1.04,3.85-.55.75-2,.04-2.48-.22-3.26-1.84-3.38-5.26-2.76-6.06,1.08-1.42,1.6-3.22,1.37-5.23-.02-.22-.21-.23-.28-.02-1.18,3.21-7.21,3.41-6.54,6.35-1.5-3.15,6.89-3.67,6.09-8.49-.15-.95-.63-1.7-.96-2.13-.11-.15-.3-.08-.27.09.5,3.54-1.91,4.99-4.06,6.03-.57.28-1.03.47-1.59.71-.54.23-.96.49-1.32.86-.68.68-1.07,1.52-.93,2.72.04.3.1.46-.12.55l-.57.23c-.35.11-.68-.05-.85-.1l-.94-.29c-.44-.09-.49-.47-.49-.47-.12-1.15-.8-2.05-1.86-2.13-.24,0-.34.17-.34.28v3.13c0,.33.06.55.45.79Z"/>
      <path class="cls-2" d="m96.67,84.93c-.09.47-.53.83-1.06.83-.06,0-.12,0-.17,0-.06,0-.19.03-.17.17l.17.97c.03.19.21.21.32.19.21-.05.44-.1.68-.16.35-.15.68-.29,1.06-.48,2.14-1.03,4.24-2.34,3.8-5.53l-.02-.13c-.08-.35-.39-.49-.59-.49s-2.21.33-2.21.33c-.48.08-.6.5-1.03.65l-1.91.79c-.94.32-.72.9-.72.9l.12.68c.03.11.16.23.32.18.1-.02.2-.04.36-.04.38,0,.72.15.9.43-.98-.15-1.88.83-2.68-.12-.07-.1-.2,0-.15.09.78,1.77,1.84.76,2.99.73Zm2.25-3.23l-.92.9c-.15-.24-.21-.45-.3-.56.23-.25.77-.4,1.22-.34Z"/>
      <path class="cls-2" d="m91.86,90.48c.16.17.31.25.62.25l.87-.02c0-1.09.42-1.93,1.09-2.61.11-.11.23-.21.35-.31l-.56-.03-1.17-.08c-.34-.02-.52-.21-.64-.31l-1.29-1.1c-.13-.09-.22-.18-.22-.32-.01-1.24-.79-2.29-1.86-2.37-.28,0-.36.19-.36.31v2.97c0,.27.08.41.24.59l2.93,3.01Z"/>
      <path class="cls-2" d="m95.6,164.18c-.06,0-.12,0-.17,0-.06,0-.19.03-.17.17l.17.97c.03.19.21.21.32.19.21-.05.44-.1.68-.16.35-.15.68-.3,1.06-.48,2.14-1.03,4.24-2.34,3.8-5.53l-.02-.12c-.08-.36-.39-.49-.59-.49s-2.21.33-2.21.33c-.48.08-.6.5-1.03.65l-1.91.79c-.94.32-.72.9-.72.9l.12.68c.03.11.16.24.32.19.1-.02.2-.03.36-.03.38,0,.72.15.9.43-.98-.15-1.88.83-2.68-.12-.07-.1-.2,0-.15.09.78,1.77,1.84.76,2.99.73-.09.47-.53.83-1.06.83Zm3.31-4.06l-.92.89c-.15-.24-.21-.44-.3-.55.23-.25.77-.4,1.22-.34Z"/>
      <path class="cls-2" d="m110.58,182.84c-1.81-.27-3.17-1.69-3.17-2.75.14-.35,1.05-1.99.66-3.33-.08-.28,0-.56.13-.74,1.35-1.78,1.04-4.69-1.23-5.78-2.26-.86-2.13-4.1-.14-5.11.09-.05.28-.08.39-.04.28.04.72.02,1.2-.4.42-.38.65-1.06.66-1.56,0-.49-.05-.92-.16-1.14-.08-.17-.2-.16-.35.03l-.3.42c-.1.13-.17.14-.43.19-.27.04-.66.09-1.05.47-.32.31-.43.53-.46.9,0,.23-.06.29-.14.34-2.45,1.42-2.7,5.61.38,6.8,1.5.73,1.79,2.57,1.04,3.85-.55.75-2,.05-2.48-.22-3.26-1.84-3.38-5.26-2.76-6.06,1.08-1.42,1.6-3.22,1.37-5.23-.02-.22-.21-.23-.28-.02-1.18,3.21-7.21,3.41-6.54,6.35-1.5-3.15,6.89-3.67,6.09-8.49-.15-.95-.63-1.7-.96-2.13-.11-.14-.3-.08-.27.1.5,3.54-1.91,4.99-4.06,6.03-.57.28-1.03.46-1.59.71-.54.23-.96.48-1.32.86-.68.68-1.07,1.52-.93,2.71.04.31.1.47-.12.56l-.57.23c-.35.11-.68-.05-.85-.1l-.94-.29c-.44-.09-.49-.48-.49-.48-.12-1.15-.8-2.04-1.86-2.13-.24,0-.34.17-.34.28v3.13c0,.34.06.55.45.79l4.38,2.26c.23.13.48.13.73.01l.57-.25.6-.26c.27-.14.46-.03.55.23.88,2.34,2.78,3.33,4.59,3.62.27.05.35.19.35.42.09,3.05,2.3,5.73,5.15,6.5l1.62.42c.23.06.27.25.23.41l-.59,1.8s-.08.25-.29.25c-1.11.1-2.08.46-2.25,1.71-.04.29.22.44.4.44h3.34c.45,0,.73-.58.84-.96l1.58-4.7c.17-.43-.12-.59-.34-.65Z"/>
      <path class="cls-2" d="m101.85,181.73c-.84-1.17-1.36-2.55-1.42-4.03-.04,0-.06-.03-.09-.05-.16-.03-.33-.07-.49-.11-.08.02-.16.05-.27.1-1.75.67-2.73,2.32-2.73,3.96,0,1.09.52,2.36,1.37,3.06.23.21.35.3.06.96l-.41,1.08c-.04.11-.09.24-.29.24-1.42.04-2.36.42-2.5,1.71-.02.21.07.51.43.51h3.34c.4,0,.69-.4.79-.63l1.7-3.41c.11-.23.16-.34-.06-.72-.86-1.15-.44-2.3.58-2.66Z"/>
      <path class="cls-2" d="m91.13,164.7c-.13-.09-.22-.18-.22-.32-.01-1.24-.79-2.29-1.86-2.38-.28,0-.36.19-.36.32v2.97c0,.27.08.4.24.59l2.93,3.01c.16.16.31.25.62.25l.87-.02c0-1.1.42-1.94,1.09-2.61.11-.11.23-.21.35-.31l-.56-.04-1.17-.07c-.34-.02-.52-.21-.64-.31l-1.29-1.1Z"/>
      <path class="cls-2" d="m134.74,141.68c-.84-1.15-1.36-2.55-1.43-4.03-.03,0-.06-.03-.09-.05-.16-.03-.32-.07-.49-.1-.07.02-.16.05-.26.09-1.75.67-2.73,2.32-2.73,3.97,0,1.09.52,2.36,1.37,3.05.23.21.36.3.06.96l-.41,1.09c-.04.11-.1.24-.3.24-1.41.04-2.35.42-2.49,1.7-.02.22.07.51.43.51h3.34c.41,0,.69-.4.79-.63l1.7-3.4c.12-.23.16-.35-.06-.72-.86-1.16-.44-2.3.58-2.67Z"/>
      <path class="cls-2" d="m143.47,142.8c-1.81-.27-3.17-1.69-3.17-2.76.14-.35,1.04-2,.65-3.33-.08-.29,0-.56.14-.74,1.35-1.78,1.04-4.69-1.23-5.78-2.27-.86-2.13-4.1-.14-5.11.09-.05.28-.08.4-.04.28.04.71.02,1.19-.4.42-.38.65-1.06.66-1.56,0-.5-.05-.92-.16-1.14-.08-.17-.2-.16-.35.03l-.3.42c-.09.13-.17.15-.43.19-.28.04-.66.09-1.06.48-.32.31-.43.52-.46.89,0,.23-.06.29-.14.34-2.45,1.42-2.7,5.61.39,6.8,1.5.73,1.79,2.57,1.04,3.85-.56.75-2,.04-2.48-.22-3.26-1.84-3.38-5.26-2.76-6.06,1.08-1.42,1.59-3.22,1.37-5.23-.02-.22-.21-.23-.29-.02-1.18,3.21-7.21,3.41-6.53,6.35-1.51-3.15,6.89-3.67,6.09-8.49-.15-.95-.63-1.7-.96-2.13-.12-.15-.3-.08-.27.09.5,3.54-1.91,4.99-4.06,6.03-.57.28-1.03.47-1.59.71-.54.23-.96.49-1.33.86-.68.68-1.06,1.52-.92,2.71.05.31.1.46-.12.55l-.57.23c-.35.11-.68-.05-.85-.1l-.95-.29c-.44-.09-.49-.48-.49-.48-.12-1.15-.8-2.04-1.86-2.12-.23,0-.34.17-.34.28v3.12c0,.34.07.56.45.79l4.38,2.26c.23.12.47.13.73.01l.57-.25.6-.26c.26-.14.47-.02.55.24.88,2.33,2.78,3.33,4.59,3.62.27.05.35.19.35.42.1,3.05,2.29,5.74,5.16,6.5l1.61.42c.22.06.27.26.22.42l-.59,1.8s-.08.25-.29.25c-1.11.09-2.09.46-2.26,1.71-.04.29.22.44.4.44h3.33c.45,0,.74-.58.84-.96l1.58-4.69c.17-.44-.12-.59-.33-.65Z"/>
      <path class="cls-2" d="m124.75,128.86c.15.17.31.25.62.25l.87-.02c0-1.1.42-1.93,1.09-2.61.11-.11.23-.21.35-.31l-.56-.03-1.16-.07c-.35-.02-.52-.21-.65-.31l-1.28-1.1c-.14-.09-.22-.18-.22-.32,0-1.24-.79-2.29-1.87-2.37-.28,0-.35.19-.36.31v2.97c0,.27.09.4.24.59l2.93,3.01Z"/>
      <path class="cls-2" d="m129.55,123.31c-.08.47-.53.83-1.06.83-.06,0-.12,0-.17,0-.05,0-.19.03-.17.17l.17.97c.03.19.21.21.32.19.21-.05.44-.1.68-.16.35-.15.68-.29,1.06-.48,2.14-1.03,4.24-2.34,3.8-5.53l-.02-.13c-.07-.36-.4-.49-.59-.49s-2.21.33-2.21.33c-.48.08-.59.5-1.03.64l-1.92.79c-.93.32-.72.9-.72.9l.12.68c.03.11.15.23.32.18.11-.02.19-.04.36-.04.38,0,.71.15.9.43-.99-.15-1.88.83-2.68-.12-.08-.1-.2,0-.16.09.78,1.77,1.84.76,3,.73Zm2.25-3.23l-.92.9c-.15-.24-.21-.45-.3-.56.23-.25.77-.4,1.22-.34Z"/>
      <path class="cls-2" d="m63.56,123.31c-.09.47-.53.83-1.06.83-.06,0-.11,0-.17,0-.06,0-.19.03-.17.17l.17.97c.03.19.21.21.32.19.21-.05.44-.1.68-.16.35-.15.68-.29,1.06-.48,2.14-1.03,4.24-2.34,3.8-5.53l-.02-.13c-.08-.36-.39-.49-.58-.49s-2.21.33-2.21.33c-.48.08-.6.5-1.03.64l-1.91.79c-.93.32-.72.9-.72.9l.12.68c.03.11.16.23.32.18.1-.02.2-.04.36-.04.38,0,.72.15.9.43-.98-.15-1.87.83-2.68-.12-.07-.1-.2,0-.15.09.78,1.77,1.84.76,2.99.73Zm2.25-3.23l-.92.9c-.15-.24-.21-.45-.3-.56.23-.25.77-.4,1.22-.34Z"/>
      <path class="cls-2" d="m68.74,141.68c-.84-1.15-1.36-2.55-1.42-4.03-.04,0-.06-.03-.09-.05-.16-.03-.33-.07-.49-.1-.08.02-.16.05-.27.09-1.75.67-2.73,2.32-2.73,3.97,0,1.09.52,2.36,1.36,3.05.23.21.35.3.06.96l-.41,1.09c-.05.11-.1.24-.3.24-1.42.04-2.36.42-2.49,1.7-.02.22.06.51.43.51h3.34c.4,0,.69-.4.79-.63l1.7-3.4c.11-.23.16-.35-.06-.72-.86-1.16-.44-2.3.58-2.67Z"/>
      <path class="cls-2" d="m77.47,142.8c-1.81-.27-3.17-1.69-3.17-2.76.15-.35,1.05-2,.66-3.33-.08-.29-.01-.56.13-.74,1.36-1.78,1.04-4.69-1.23-5.78-2.26-.86-2.13-4.1-.14-5.11.09-.05.28-.08.39-.04.28.04.71.02,1.19-.4.43-.38.65-1.06.66-1.56,0-.5-.05-.92-.16-1.14-.08-.17-.2-.16-.36.03l-.3.42c-.09.13-.17.15-.44.19-.27.04-.66.09-1.05.48-.32.31-.43.52-.47.89,0,.23-.05.29-.13.34-2.45,1.42-2.7,5.61.38,6.8,1.5.73,1.8,2.57,1.04,3.85-.56.75-2,.04-2.48-.22-3.26-1.84-3.38-5.26-2.76-6.06,1.08-1.42,1.6-3.22,1.37-5.23-.02-.22-.21-.23-.28-.02-1.18,3.21-7.21,3.41-6.54,6.35-1.5-3.15,6.88-3.67,6.1-8.49-.15-.95-.63-1.7-.96-2.13-.11-.15-.3-.08-.27.09.5,3.54-1.91,4.99-4.06,6.03-.57.28-1.03.47-1.59.71-.54.23-.96.49-1.33.86-.68.68-1.07,1.52-.93,2.71.04.31.1.46-.12.55l-.57.23c-.35.11-.68-.05-.85-.1l-.95-.29c-.44-.09-.48-.48-.48-.48-.12-1.15-.8-2.04-1.86-2.12-.24,0-.34.17-.34.28v3.12c0,.34.06.56.45.79l4.38,2.26c.23.12.48.13.73.01l.57-.25.6-.26c.27-.14.46-.02.55.24.88,2.33,2.78,3.33,4.59,3.62.27.05.35.19.35.42.09,3.05,2.3,5.74,5.15,6.5l1.62.42c.23.06.27.26.23.42l-.59,1.8s-.08.25-.29.25c-1.11.09-2.08.46-2.25,1.71-.04.29.21.44.39.44h3.34c.45,0,.74-.58.85-.96l1.57-4.69c.17-.44-.12-.59-.34-.65Z"/>
      <path class="cls-2" d="m58.75,128.86c.16.17.32.25.62.25l.87-.02c0-1.1.42-1.93,1.09-2.61.11-.11.23-.21.35-.31l-.56-.03-1.17-.07c-.34-.02-.52-.21-.64-.31l-1.29-1.1c-.13-.09-.22-.18-.22-.32-.01-1.24-.79-2.29-1.86-2.37-.28,0-.36.19-.36.31v2.97c0,.27.08.4.24.59l2.93,3.01Z"/>
      <path class="cls-5" d="m74.74,98.23c0-.2-.15-.36-.34-.4-1.81-.39-3.69-.6-5.63-.6s-3.83.21-5.64.6c-.19.04-.34.2-.33.4-.16,2.49-1.3,4.71-3.04,6.28v6.35c0,.23.18.42.41.42h5.62v-3.78c0-1.63,1.34-2.95,2.96-2.95h.02c1.63,0,2.96,1.32,2.96,2.95v3.78h5.63c.23,0,.41-.19.41-.42v-6.35c-1.73-1.57-2.88-3.8-3.03-6.28Z"/>
      <path class="cls-5" d="m74.13,96.36s.08.01.1.01c.23,0,.42-.18.42-.41v-5.42c0-.21-.14-.39-.35-.41-1.8-.29-3.65-.45-5.53-.46-1.88,0-3.73.16-5.53.46-.21.02-.36.2-.36.41v5.42c0,.23.19.41.42.41.04,0,.08,0,.11-.01,1.18-.23,2.39-.38,3.62-.46v-1.53c0-.95.81-1.72,1.76-1.72s1.72.77,1.72,1.72v1.53c1.24.08,2.45.23,3.63.46Z"/>
      <path class="cls-5" d="m63.03,88.7h.06c1.85-.3,3.75-.46,5.69-.46s3.82.16,5.67.46h.06c.19,0,.34-.12.4-.28l1.3-3.44v-2.16c0-.21-.15-.38-.36-.41-.8-.14-1.63-.26-2.45-.35h-.03c-.23,0-.41.18-.41.41v1.59c0,.22-.19.4-.42.4h-.04c-.53-.05-1.06-.09-1.6-.12-.23-.02-.39-.22-.37-.45v-1.65c0-.22-.2-.41-.42-.41-.46-.01-.88-.02-1.34-.02s-.86,0-1.32.02c-.23,0-.42.19-.42.41v1.65c.01.23-.15.43-.38.45-.53.03-1.07.07-1.59.12h-.04c-.23,0-.42-.18-.42-.4v-1.59c0-.23-.18-.41-.41-.41h-.04c-.82.09-1.65.21-2.45.35-.21.03-.36.2-.36.41v2.16l1.31,3.44c.06.16.21.29.4.29Z"/>
      <path class="cls-5" d="m136.88,98.23c0-.2-.14-.36-.33-.4-1.81-.39-3.7-.6-5.63-.6s-3.83.21-5.64.6c-.19.04-.34.2-.34.4-.15,2.49-1.29,4.71-3.04,6.28v6.35c0,.23.18.42.41.42h5.62v-3.78c0-1.63,1.33-2.95,2.96-2.95h.01c1.63,0,2.96,1.32,2.96,2.95l.02,3.78h5.62c.23,0,.41-.19.41-.42v-6.35c-1.74-1.57-2.88-3.8-3.04-6.28Z"/>
      <path class="cls-5" d="m136.27,96.36s.07.01.11.01c.23,0,.41-.18.41-.41v-5.42c0-.21-.15-.39-.35-.41-1.8-.29-3.65-.46-5.53-.46s-3.72.16-5.53.46c-.21.02-.36.2-.36.41v5.42c0,.23.19.41.42.41.03,0,.07,0,.11-.01,1.18-.23,2.39-.38,3.62-.46v-1.53c0-.95.81-1.72,1.76-1.72s1.73.77,1.73,1.72v1.53c1.24.08,2.44.23,3.62.46Z"/>
      <path class="cls-5" d="m125.18,88.7h.05c1.86-.3,3.75-.46,5.69-.46s3.82.16,5.67.46h.06c.18,0,.34-.12.4-.28l1.31-3.44v-2.16c0-.21-.16-.38-.36-.41-.8-.14-1.64-.26-2.45-.35h-.04c-.23,0-.41.18-.41.41v1.59c0,.22-.19.4-.42.4h-.04c-.53-.05-1.06-.09-1.6-.12-.22-.02-.38-.22-.37-.45v-1.65c0-.22-.2-.41-.43-.41-.46-.01-.88-.02-1.34-.02s-.86,0-1.31.02c-.23,0-.41.19-.42.41v1.65c.01.23-.15.43-.38.45-.53.03-1.07.07-1.59.12h-.04c-.23,0-.42-.18-.42-.4v-1.59c0-.23-.18-.41-.41-.41h-.03c-.82.09-1.65.21-2.46.35-.21.03-.37.2-.37.41v2.16l1.31,3.44c.06.16.21.29.4.29Z"/>
      <path class="cls-5" d="m136.88,172.62c0-.2-.14-.37-.33-.41-1.81-.39-3.7-.6-5.63-.6s-3.83.21-5.64.6c-.19.04-.34.2-.34.41-.15,2.48-1.29,4.71-3.04,6.28v6.35c0,.23.18.41.41.41h5.62v-3.78c0-1.63,1.33-2.96,2.96-2.96h.02s0,0,0,0c1.63,0,2.96,1.33,2.96,2.96l.02,3.78h5.62c.23,0,.41-.18.41-.41v-6.35c-1.74-1.57-2.88-3.8-3.04-6.28Z"/>
      <path class="cls-5" d="m126.32,156.44h-.03c-.82.09-1.65.21-2.46.35-.21.03-.37.2-.37.41v2.15l1.31,3.44c.06.16.21.29.4.29h.06c1.85-.3,3.75-.46,5.69-.46s3.82.16,5.67.46h.06c.19,0,.34-.12.4-.28l1.31-3.44v-2.15c0-.21-.16-.38-.36-.41-.8-.14-1.63-.26-2.45-.35h-.04c-.23,0-.41.18-.41.41v1.59c0,.22-.19.4-.42.4h-.04c-.53-.05-1.06-.09-1.6-.12-.22-.02-.38-.23-.37-.45v-1.65c0-.22-.2-.41-.42-.41-.46-.01-.88-.02-1.34-.02s-.86,0-1.32.02c-.23,0-.41.19-.42.41v1.65c.01.23-.15.43-.38.45-.53.03-1.07.07-1.59.12h-.04c-.23,0-.42-.18-.41-.4v-1.59c0-.23-.18-.41-.42-.41Z"/>
      <path class="cls-5" d="m136.27,170.74s.07.01.11.01c.23,0,.41-.18.41-.42v-5.42c0-.21-.15-.38-.35-.41-1.8-.3-3.65-.46-5.53-.46s-3.72.16-5.53.46c-.2.02-.35.2-.35.41v5.42c0,.23.19.42.42.42.03,0,.07,0,.11-.01,1.18-.23,2.39-.39,3.62-.46v-1.53c0-.95.81-1.72,1.76-1.72s1.73.77,1.73,1.72v1.53c1.24.07,2.44.23,3.62.46Z"/>
      <path class="cls-5" d="m74.74,172.62c0-.2-.15-.37-.34-.41-1.81-.39-3.69-.6-5.63-.6s-3.83.21-5.64.6c-.19.04-.34.2-.33.41-.16,2.48-1.3,4.71-3.04,6.28v6.35c0,.23.18.41.41.41h5.62v-3.78c0-1.63,1.34-2.96,2.96-2.96h.02s0,0,0,0c1.63,0,2.96,1.33,2.96,2.96v3.78h5.63c.23,0,.41-.18.41-.41v-6.35c-1.73-1.57-2.88-3.8-3.03-6.28Z"/>
      <path class="cls-5" d="m74.13,170.74s.08.01.1.01c.23,0,.42-.18.42-.42v-5.42c0-.21-.14-.38-.35-.41-1.8-.3-3.65-.46-5.53-.46s-3.73.16-5.53.46c-.21.02-.36.2-.36.41v5.42c0,.23.19.42.42.42.04,0,.08,0,.11-.01,1.18-.23,2.39-.39,3.62-.46v-1.53c0-.95.81-1.72,1.76-1.72s1.72.77,1.72,1.72v1.53c1.24.07,2.45.23,3.63.46Z"/>
      <path class="cls-5" d="m64.17,156.44h-.04c-.82.09-1.65.21-2.45.35-.21.03-.36.2-.36.41v2.15l1.31,3.44c.06.16.21.29.4.29h.06c1.85-.3,3.75-.46,5.69-.46s3.82.16,5.67.46h.06c.19,0,.34-.12.4-.28l1.3-3.44v-2.15c0-.21-.15-.38-.36-.41-.8-.14-1.63-.26-2.45-.35h-.03c-.23,0-.41.18-.41.41v1.59c0,.22-.19.4-.42.4h-.04c-.53-.05-1.06-.09-1.6-.12-.23-.02-.39-.23-.37-.45v-1.65c0-.22-.2-.41-.42-.41-.46-.01-.88-.02-1.34-.02s-.86,0-1.32.02c-.23,0-.42.19-.42.41v1.65c.01.23-.15.43-.38.45-.53.03-1.07.07-1.59.12h-.04c-.23,0-.42-.18-.42-.4v-1.59c0-.23-.18-.41-.41-.41Z"/>
      <path class="cls-5" d="m38.65,64.11c1.04,1.63,2.96,2.65,5.06,2.65,1.03,0,1.93-.22,2.77-.67,15.56-9.33,33.85-14.7,53.36-14.7s37.8,5.37,53.36,14.7c.85.45,1.74.67,2.77.67,2.1,0,4.02-1.02,5.06-2.65-17.47-11.75-38.54-18.59-61.19-18.59s-43.72,6.85-61.19,18.59Z"/>
      <path class="cls-5" d="m32.26,54.19l5.29,7.84c17.76-11.96,39.25-18.94,62.29-18.94s44.53,6.98,62.29,18.94l5.29-7.84c-19.27-12.98-42.58-20.55-67.58-20.55s-48.31,7.57-67.58,20.55Z"/>
      <path class="cls-5" d="m178.12,30.86c-.44.66-.94,1.41-1.23,2.11-.62-.79-1.38-1.51-2.27-2.1-2.95-1.99-6.48-2.08-9.51-.76.69.19,1.34.48,1.96.89,2.93,1.97,3.7,5.95,1.73,8.88-1.98,2.93-5.95,3.71-8.89,1.73-1.52-1.02-2.46-2.59-2.73-4.28,2.01.37,4.03-.83,4.64-2.83.66-2.17-.55-4.46-2.71-5.12-2.17-.66-4.46.56-5.12,2.72-.47,1.54-.02,3.18,1.05,4.22-1.47.84-3.29,1.1-5.04.56-3.38-1.03-5.28-4.61-4.25-7.99,1.04-3.38,4.61-5.28,7.99-4.25.71.21,1.34.54,1.92.96-.87-3.19-3.17-5.88-6.58-6.92-1.01-.31-2.05-.46-3.05-.44.37-.66.63-1.52.87-2.28,1.01-3.3.23-6.72-1.79-9.22-3.07.94-5.63,3.34-6.64,6.64-.23.76-.5,1.62-.56,2.38-.82-.57-1.76-1.03-2.78-1.34-3.4-1.04-6.81-.1-9.32,2.06.72-.02,1.42.06,2.13.28,3.38,1.03,5.28,4.61,4.25,7.99-1.03,3.38-4.61,5.28-8,4.25-1.73-.53-3.08-1.73-3.84-3.23,2.02-.25,3.58-1.98,3.58-4.07,0-2.26-1.83-4.1-4.1-4.1s-4.1,1.84-4.1,4.1c0,1.6.92,2.99,2.24,3.67-1.17,1.24-2.83,2.02-4.66,2.02-3.54,0-6.4-2.87-6.4-6.4s2.86-6.4,6.4-6.4c.74,0,1.45.12,2.12.36-1.78-2.8-4.93-4.67-8.31-4.65-1.06,0-2.1.12-3.05.43.16-.74.16-1.64.16-2.43,0-3.45-1.75-6.49-4.4-8.29-2.66,1.8-4.4,4.84-4.4,8.29,0,.79,0,1.7.16,2.43-.95-.31-1.98-.43-3.05-.43-3.38-.01-6.54,1.86-8.31,4.65.67-.23,1.37-.36,2.12-.36,3.54,0,6.4,2.86,6.4,6.4s-2.86,6.4-6.4,6.4c-1.83,0-3.49-.78-4.66-2.02,1.32-.67,2.24-2.07,2.24-3.67,0-2.26-1.84-4.1-4.1-4.1s-4.1,1.84-4.1,4.1c0,2.09,1.57,3.82,3.58,4.07-.76,1.5-2.1,2.7-3.83,3.23-3.38,1.03-6.96-.87-8-4.25-1.03-3.38.87-6.96,4.25-7.99.71-.22,1.41-.3,2.13-.28-2.51-2.16-5.92-3.1-9.32-2.06-1.02.31-1.96.77-2.78,1.34-.06-.75-.33-1.61-.56-2.38-1.01-3.3-3.57-5.69-6.64-6.64-2.01,2.5-2.79,5.92-1.79,9.22.23.76.5,1.62.86,2.28-1-.02-2.04.13-3.05.44-3.4,1.04-5.7,3.73-6.58,6.92.58-.42,1.21-.75,1.92-.96,3.38-1.03,6.96.87,7.99,4.25,1.03,3.38-.87,6.96-4.25,7.99-1.76.54-3.57.28-5.04-.56,1.07-1.04,1.52-2.68,1.05-4.22-.66-2.16-2.95-3.38-5.12-2.72-2.16.66-3.38,2.96-2.72,5.12.61,2,2.63,3.2,4.64,2.83-.27,1.68-1.21,3.25-2.74,4.28-2.94,1.98-6.91,1.21-8.89-1.73-1.97-2.93-1.2-6.91,1.73-8.88.62-.42,1.27-.7,1.96-.89-3.03-1.32-6.57-1.23-9.51.76-.89.59-1.65,1.31-2.27,2.1-.28-.71-.79-1.45-1.23-2.11-1.93-2.86-5.08-4.4-8.29-4.41l17.81,25.95c19.62-13.21,43.31-20.91,68.75-20.91s49.13,7.7,68.75,20.91l17.81-25.95c-3.21,0-6.36,1.55-8.29,4.41Z"/>
      <path class="cls-2" d="m62.29,43.76c0-1.8,1.46-3.27,3.28-3.27s3.28,1.46,3.28,3.27-1.47,3.27-3.28,3.27-3.28-1.46-3.28-3.27"/>
      <polygon class="cls-1" points="37.13 61.4 38.97 55.57 32.88 55.1 37.13 61.4"/>
      <path class="cls-2" d="m137.39,43.76c0-1.8-1.46-3.27-3.28-3.27s-3.28,1.46-3.28,3.27,1.47,3.27,3.28,3.27,3.28-1.46,3.28-3.27"/>
      <polygon class="cls-1" points="162.56 61.4 160.71 55.57 166.8 55.1 162.56 61.4"/>
      <polygon class="cls-1" points="99.84 34.82 95.05 38.62 99.84 42.42 104.63 38.62 99.84 34.82"/>
    </g>
  </g>
</svg>