<?xml version="1.0" encoding="UTF-8"?>
<svg id="Layer_2" data-name="Layer 2" xmlns="http://www.w3.org/2000/svg" viewBox="0 0 535.23 535.23">
  <defs>
    <style>
      .cls-1 {
        fill: #fff;
        fill-rule: evenodd;
      }

      .cls-1, .cls-2 {
        stroke-width: 0px;
      }

      .cls-2 {
        fill: #ed1c24;
      }
    </style>
  </defs>
  <g id="Layer_1-2" data-name="Layer 1">
    <g>
      <path class="cls-2" d="m267.61,0h0v.02c73.9,0,140.81,29.95,189.22,78.37,48.42,48.42,78.37,115.32,78.37,189.22h.02s-.02,0-.02,0c0,73.9-29.95,140.8-78.37,189.22s-115.32,78.37-189.22,78.37v.02h0v-.02c-73.9,0-140.8-29.95-189.22-78.37C29.98,408.42.02,341.52.02,267.62h-.02s.02,0,.02,0c0-73.9,29.95-140.81,78.37-189.22C126.81,29.98,193.71.02,267.61.02v-.02h0Zm0,67.13h0v.02c55.37,0,105.49,22.44,141.76,58.71,36.27,36.27,58.7,86.39,58.71,141.75h.02s-.02,0-.02,0c0,55.37-22.44,105.49-58.71,141.76-36.27,36.27-86.39,58.7-141.75,58.71v.02h0v-.02c-55.37,0-105.49-22.44-141.76-58.71-36.27-36.27-58.7-86.39-58.7-141.75h-.02s.02,0,.02,0c0-55.37,22.44-105.49,58.71-141.76,36.27-36.27,86.39-58.7,141.75-58.7v-.02h0Zm0,11.98v.02h0v-.02c-52.02,0-99.14,21.11-133.27,55.24-34.13,34.13-55.24,81.25-55.24,133.27h.02s-.02,0-.02,0c0,52.02,21.11,99.14,55.24,133.27,34.13,34.12,81.25,55.24,133.27,55.24v-.02h0v.02c52.02,0,99.14-21.11,133.27-55.24s55.24-81.25,55.24-133.27h-.02s.02,0,.02,0c0-52.02-21.11-99.14-55.24-133.27-34.12-34.13-81.25-55.24-133.27-55.24h0Zm0-67.13v.02h0v-.02c-70.56,0-134.46,28.63-180.73,74.9C40.6,133.15,11.98,197.05,11.98,267.61h.02s-.02,0-.02,0c0,70.56,28.63,134.46,74.9,180.73,46.27,46.28,110.18,74.9,180.74,74.9v-.02h0v.02c70.56,0,134.46-28.62,180.73-74.9,46.28-46.27,74.9-110.18,74.9-180.74h-.02s.02,0,.02,0c0-70.56-28.62-134.46-74.9-180.73-46.27-46.27-110.18-74.9-180.74-74.9h0Z"/>
      <path class="cls-1" d="m267.65,447.26h-.03s-.03,0-.03,0c-23.43-9.22-40.65-21.81-68.85-44.01-28.22-22.21-52.73-60.2-52.73-97.97v-166.84l121.58-.17h.06l121.59.17v166.84c0,37.77-24.51,75.76-52.73,97.97-28.2,22.19-45.42,34.79-68.85,44.01h0Z"/>
      <path class="cls-2" d="m231.66,435.12c-11.09-7.29-22.52-16.04-36.64-27.15h0c-4.08-3.21-8.12-6.78-12.07-10.66-3.87-3.81-7.63-7.91-11.22-12.27-18.45-22.43-31.74-51.08-31.74-79.75v-172.81h6s121.58-.18,121.58-.18v-.02h.06v.02l121.59.17h6v172.82h0s-.02,0-.02,0c0,20-6.43,39.94-16.56,57.77-1.59,2.8-3.33,5.63-5.2,8.46-9.37,14.23-20.98,26.78-33.25,36.44-14.12,11.11-25.54,19.85-36.64,27.15-11.3,7.43-23.23,13.84-35.94,18.53-12.71-4.64-24.68-11.11-35.96-18.53h0Zm-79.67-196.73h231.23v-93.98l-115.59-.16v.02h-.06v-.02l-115.58.16v93.98h0Zm231.23,10.34h-110.95v190.1c8.58-3.83,16.48-8.27,24.72-13.7,10.42-6.85,21.71-15.5,35.79-26.59,11.35-8.94,22.07-20.51,30.68-33.58,1.63-2.47,3.22-5.08,4.77-7.81,9.18-16.16,15.01-34.09,15.01-51.86h-.02v-56.57h0Zm-121.29,189.65v-189.65h-109.94v56.56c0,25.72,12.13,51.68,28.97,72.15,3.27,3.98,6.75,7.77,10.38,11.34,3.55,3.49,7.26,6.76,11.09,9.77h0c14.08,11.09,25.37,19.73,35.79,26.59,7.92,5.21,15.52,9.51,23.71,13.24h0Z"/>
      <path class="cls-2" d="m207.96,279.35v93.85c8.38.36,18.13-.76,26.59-1.74,2.71-.31,5.28-.61,8.44-.91,6.35-.59,11.57-.64,15.9.11,3.37.58,6.25,1.62,8.72,3.21,2.46-1.59,5.34-2.63,8.72-3.21,4.33-.74,9.55-.7,15.9-.11,3.16.29,5.73.59,8.44.91,8.46.98,18.21,2.1,26.59,1.74v-93.85c-9.35.43-19.59-.75-28.5-1.78-3.21-.37-6.26-.72-8.21-.91-5.34-.5-9.61-.56-12.93.01-2.58.44-4.44,1.26-5.7,2.57l-4.31-4.3-4.31,4.3c-1.25-1.31-3.12-2.13-5.69-2.57-3.32-.57-7.59-.51-12.93-.01-1.96.18-5.01.54-8.22.91-8.91,1.03-19.15,2.21-28.5,1.78h0Zm43.56,17.75c-2.83.04-5.45.12-8.02.3-2.63.19-5.31.49-8.27.99h-.08c-.58.11-1.48.24-2.68.41-1.1.15-2,.27-2.69.34-4.31.48-8.76.71-13.12.73v-7.99c4.17,0,8.45-.23,12.62-.69,1.05-.12,1.89-.22,2.5-.3.52-.07,1.33-.2,2.43-.38h.08c3.06-.53,6.02-.86,9.06-1.07,2.69-.19,5.35-.27,8.18-.31v7.98h0Zm0,12.6v7.98c-2.83.04-5.45.12-8.02.3-2.63.19-5.31.49-8.27.99h-.08c-.58.11-1.48.24-2.68.41-1.1.15-2,.27-2.69.34-4.31.48-8.76.71-13.12.73v-7.99c4.17-.01,8.45-.23,12.62-.69,1.05-.12,1.89-.22,2.5-.3.52-.07,1.33-.2,2.43-.38h.08c3.06-.53,6.02-.86,9.06-1.07,2.69-.19,5.35-.27,8.18-.32h0Zm0,20.58v7.98c-2.83.04-5.45.12-8.02.3-2.63.19-5.31.49-8.27.99h-.08c-.58.11-1.48.24-2.68.41-1.1.15-2,.27-2.69.34-4.31.48-8.76.71-13.12.73v-7.99c4.17-.01,8.45-.23,12.62-.69,1.05-.12,1.89-.22,2.5-.3.52-.07,1.33-.2,2.43-.38h.08c3.06-.53,6.02-.86,9.06-1.07,2.69-.19,5.35-.27,8.18-.32h0Zm0,20.58v7.98c-2.83.04-5.45.12-8.02.3-2.63.19-5.31.49-8.27.99h-.08c-.58.11-1.48.24-2.68.41-1.1.15-2,.27-2.69.34-4.31.48-8.76.71-13.12.73v-7.99c4.17-.01,8.45-.22,12.62-.69,1.05-.12,1.89-.22,2.5-.3.52-.07,1.33-.2,2.43-.38h.08c3.06-.53,6.02-.86,9.06-1.07,2.69-.19,5.35-.27,8.18-.32h0Zm32.18-53.77c2.83.04,5.45.12,8.02.3,2.63.19,5.31.49,8.27.99h.08c.58.11,1.48.24,2.68.41,1.1.15,1.99.27,2.69.34,4.31.48,8.76.71,13.12.73v-7.99c-4.17,0-8.45-.23-12.62-.69-1.05-.12-1.88-.22-2.5-.3-.52-.07-1.33-.2-2.43-.38h-.08c-3.06-.53-6.02-.86-9.05-1.07-2.69-.19-5.36-.27-8.18-.31v7.98h0Zm0,12.6v7.98c2.83.04,5.45.12,8.02.3,2.63.19,5.31.49,8.27.99h.08c.58.11,1.48.24,2.68.41,1.1.15,1.99.27,2.69.34,4.31.48,8.76.71,13.12.73v-7.99c-4.17-.01-8.45-.23-12.62-.69-1.05-.12-1.88-.22-2.5-.3-.52-.07-1.33-.2-2.43-.38h-.08c-3.06-.53-6.02-.86-9.05-1.07-2.69-.19-5.36-.27-8.18-.32h0Zm0,20.58v7.98c2.83.04,5.45.12,8.02.3,2.63.19,5.31.49,8.27.99h.08c.58.11,1.48.24,2.68.41,1.1.15,1.99.27,2.69.34,4.31.48,8.76.71,13.12.73v-7.99c-4.17-.01-8.45-.23-12.62-.69-1.05-.12-1.88-.22-2.5-.3-.52-.07-1.33-.2-2.43-.38h-.08c-3.06-.53-6.02-.86-9.05-1.07-2.69-.19-5.36-.27-8.18-.32h0Zm0,20.58v7.98c2.83.04,5.45.12,8.02.3,2.63.19,5.31.49,8.27.99h.08c.58.11,1.48.24,2.68.41,1.1.15,1.99.27,2.69.34,4.31.48,8.76.71,13.12.73v-7.99c-4.17-.01-8.45-.22-12.62-.69-1.05-.12-1.88-.22-2.5-.3-.52-.07-1.33-.2-2.43-.38h-.08c-3.06-.53-6.02-.86-9.05-1.07-2.69-.19-5.36-.27-8.18-.32h0Zm-21.03,34.18c-1.25-1.31-3.12-2.13-5.69-2.57-3.32-.57-7.59-.51-12.93-.01-1.96.18-5.01.54-8.22.91-10.85,1.25-23.68,2.73-34.45,1.26h-.04s-5.07-.71-5.07-.71v-19.62h-12.33v-14.34h12.33v-15.87h-12.33v-14.34h12.33v-20.24h-12.33v-14.34h12.33v-17.75c12.79,0,26.22-.27,38.92-1.73,2.71-.31,5.28-.61,8.44-.91,6.35-.59,11.57-.64,15.9.1,3.09.53,5.77,1.45,8.09,2.82,2.32-1.37,5-2.29,8.09-2.82,4.33-.74,9.55-.7,15.9-.1,3.16.3,5.73.59,8.44.91,12.7,1.46,26.13,1.73,38.92,1.73v17.75h12.33v14.34h-12.33v20.24h12.33v14.34h-12.33v15.87h12.33v14.34h-12.33v19.62l-5.07.71h-.02s-.02,0-.02,0c-10.78,1.47-23.61,0-34.46-1.26-3.21-.37-6.26-.72-8.21-.91-5.34-.5-9.61-.56-12.93.01-2.58.44-4.9,1.26-6.15,2.57h-9.43Z"/>
      <path class="cls-1" d="m208.19,157.92h30.69v41.57c0,9.96-21.04,21.33-30.67,27-9.71-5.85-30.67-17.29-30.67-27v-41.57h30.64Z"/>
      <path class="cls-2" d="m208.19,151.92h.05v.02h30.64s6,0,6,0v47.55h0s-.02,0-.02,0c0,11.91-17.58,22.81-29.24,29.62-3.04,1.78,3.64-2.2-4.38,2.53l-3.07,1.81-3.04-1.83c-1.28-.77-2.05-1.23-2.87-1.71-11.55-6.84-30.71-18.19-30.71-30.43v-47.55h6s30.64,0,30.64,0v-.02h0Zm-24.64,23.19h49.33v-11.21h-24.64s0,.02,0,.02h-.05v-.02h-24.64v11.21h0Zm49.33,11.4h-49.33v12.99c0,5.4,15.35,14.52,24.7,20.05l1.34-.79h0c9.3-5.44,23.32-13.91,23.32-19.26h-.02v-13h0Z"/>
      <path class="cls-1" d="m326.99,157.92h30.69v41.57c0,9.96-21.04,21.33-30.67,27-9.71-5.85-30.67-17.29-30.67-27v-41.57h30.64Z"/>
      <path class="cls-2" d="m326.99,151.92h.05v.02h30.64s6,0,6,0v47.55h0s-.02,0-.02,0c0,11.91-17.58,22.81-29.24,29.62-3.04,1.78,3.64-2.2-4.38,2.53l-3.07,1.81-3.04-1.83c-1.28-.77-2.05-1.23-2.87-1.71-11.55-6.84-30.71-18.19-30.71-30.43v-47.55h6s30.64,0,30.64,0v-.02h0Zm-24.64,32.48l24.67-17.02,24.67,17.02v-20.5h-24.64s0,.02,0,.02h-.05v-.02h-24.64v20.5h0Zm49.33,13.78l-24.67-17.02-24.67,17.02v1.31c0,5.4,15.35,14.52,24.7,20.05l1.34-.79h0c9.3-5.44,23.32-13.91,23.32-19.26h-.02v-1.32h0Z"/>
      <path class="cls-2" d="m52.6,241.35c.75,1.82,1.08,5.31.82,8.21-.69,7.87-6.74,12.02-14.24,11.36-7.55-.66-12.94-5.92-12.28-13.52.23-2.64.82-5.14,2.65-7.8l-6.18-1.07c-1.29,2.6-2.05,5.78-2.26,8.21-1.09,12.51,5.31,20.84,17.92,21.94,12.46,1.09,19.16-6.68,20.2-18.61.24-2.8-.03-5.75-.44-8.5l-6.21-.22h0Zm-10.38-16.44c10.9,3.13,20.23-.71,23.5-12.12,3.23-11.26-2.76-19.65-13.51-22.73-10.75-3.08-20.09,1.02-23.29,12.18-3.24,11.31,2.39,19.54,13.29,22.67h0Zm2.13-7.44c-6.27-1.8-11.85-6.54-9.82-13.62,2.03-7.08,9.28-8.15,15.55-6.35,6.42,1.84,12.12,6.4,10.03,13.68-2.09,7.29-9.33,8.13-15.75,6.29h0Zm7.58-56.62l1.14-2.15c1.74-3.28,4.01-6.75,7.94-4.66,4.07,2.16,2.57,6.11.86,9.34l-1.15,2.15-8.8-4.68h0Zm24.03,21.18l3.48-6.55-13.57-7.22,1.12-2.11c1.47-2.76,2.85-3.11,5.78-2.75l12.29,1.49,3.88-7.3-15.56-1.55c-1.8-.12-4.12-.03-5.21,1.67l-.09-.05c1.65-4.46-.16-8.73-4-10.77-9.08-4.83-13.3,3.67-17.03,10.69l-3.76,7.07,32.66,17.37h0Zm19.98-35.33l4.47-5.52-21.5-17.41.07-.08,30.41,6.41,5.7-7.04-28.75-23.28-4.47,5.52,21.5,17.41-.07.08-30.37-6.45-5.74,7.08,28.75,23.28h0Zm30.8-35.11l17.29-13.51-3.59-4.59-11.44,8.94-6.4-8.19,10.4-8.12-3.59-4.59-10.4,8.12-5.61-7.18,11.36-8.88-3.59-4.59-17.21,13.44,22.78,29.15h0Zm30.47-22.23l19.05-10.56-2.83-5.1-12.56,6.96-15.11-27.26-6.49,3.6,17.93,32.36h0Zm30.64-15.68l20.72-6.73-1.8-5.54-13.66,4.44-9.63-29.64-7.06,2.29,11.43,35.18h0Zm46.17-26.59c.69,9.89,6.58,13.57,16.04,12.91,9.46-.66,14.78-5.13,14.09-15.02l-1.65-23.58-7.4.52,1.49,21.31c.44,6.29-1.28,10.56-6.94,10.95-5.66.4-7.95-3.59-8.39-9.88l-1.49-21.31-7.4.52,1.65,23.58h0Zm47.12,11.43l7.05.87,3.37-27.46h.11s10.67,29.2,10.67,29.2l9,1.1,4.51-36.72-7.05-.87-3.37,27.46h-.11s-10.62-29.19-10.62-29.19l-9.05-1.11-4.51,36.72h0Zm45.37,8.6l7.06,2.29,11.43-35.18-7.06-2.29-11.43,35.18h0Zm30.05,11.25l8.12,4.14,27.89-27.31-6.56-3.34-21.54,21.62-.09-.05,4.73-30.19-7.08-3.61-5.46,38.74h0Zm30.21,17.3l17.29,13.51,3.59-4.59-11.44-8.94,6.39-8.19,10.4,8.12,3.59-4.59-10.4-8.12,5.61-7.18,11.36,8.87,3.59-4.59-17.21-13.44-22.78,29.15h0Zm56.44,8.59l1.6,1.84c2.43,2.8,4.87,6.16,1.51,9.08-3.48,3.02-6.63.21-9.03-2.55l-1.6-1.84,7.52-6.54h0Zm-28.39,14.85l4.87,5.6,11.6-10.08,1.56,1.8c2.05,2.36,1.88,3.78.49,6.38l-5.8,10.94,5.43,6.24,7.03-13.97c.75-1.64,1.51-3.84.31-5.46l.08-.07c3.57,3.14,8.21,2.98,11.49.13,7.76-6.75,1.34-13.73-3.88-19.73l-5.25-6.04-27.92,24.27h0Zm68.12,31.36c-.57-2.79-1.69-5.57-3.28-8.33-3.26-5.65-9.08-9.69-16.24-5.55-10.6,6.12.03,18.71-6.07,22.23-2.89,1.67-6.01-.87-7.42-3.31-1.46-2.52-2.13-5.5-2.21-8.39l-6.13,2.74c1.04,3.62,1.48,5.45,3.5,8.94,3.74,6.47,9.61,10.48,16.63,6.43,10.74-6.2.29-18.89,5.85-22.1,3.49-2.01,6.09.28,7.37,2.48,1.3,2.25,2.09,4.79,2.38,7.31l5.62-2.45h0Zm-24.06,32.88l2.78,6.88,34.3-13.86-2.78-6.88-34.3,13.86h0Zm9.61,28.41l2.04,7.13,29.96-8.59,2.92,10.19,5.6-1.61-7.89-27.51-5.6,1.61,2.92,10.19-29.96,8.59h0Zm7.09,40.02l.65,7.39,14.57-1.27,23.44,11.25-.68-7.81-16.25-7.52,14.71-10.07-.76-8.66-21.1,15.41-14.57,1.28h0Z"/>
      <path class="cls-2" d="m26.91,325.12l1.92,7.17,15.67-4.2,3.24,12.08,5.63-1.51-3.24-12.08,8.81-2.36,3.4,12.7,5.63-1.51-5.32-19.86-35.73,9.57h0Zm27.39,26.51c-10.19,4.97-14.56,14.06-9.35,24.73,5.13,10.53,15.19,12.76,25.25,7.85,10.05-4.9,14.24-14.2,9.16-24.63-5.16-10.58-14.85-12.92-25.05-7.95h0Zm3.39,6.96c5.86-2.86,13.19-3.07,16.41,3.55,3.23,6.62-1.45,12.27-7.31,15.12-6,2.93-13.28,3.35-16.61-3.46-3.32-6.81,1.5-12.29,7.5-15.21h0Zm18.28,43.73c-7.81,6.1-7.57,13.05-1.73,20.52,5.84,7.47,12.52,9.38,20.33,3.28l18.63-14.55-4.57-5.85-16.83,13.15c-4.97,3.88-9.47,4.84-12.96.37-3.49-4.47-1.47-8.6,3.5-12.48l16.83-13.15-4.57-5.85-18.63,14.55h0Zm23.67,47.74l5.6,4.37,17.03-21.8.08.06-5.88,30.51,7.14,5.58,22.78-29.15-5.6-4.37-17.03,21.8-.08-.06,5.92-30.48-7.18-5.61-22.78,29.15h0Zm45.44,32.39l9.02,4.6c10.11,5.15,20.76,6.29,27.43-6.79,6.67-13.08-.53-21.03-10.63-26.18l-9.02-4.6-16.8,32.96h0Zm20.76-24.4l3.68,1.88c5.52,2.82,8.77,9.64,5.11,16.82s-11.09,8.57-16.61,5.75l-3.68-1.88,11.5-22.57h0Zm26.37,44.83l21.09,6.05,1.61-5.6-13.96-4,2.86-9.98,12.69,3.64,1.61-5.6-12.69-3.64,2.51-8.76,13.86,3.97,1.61-5.6-20.99-6.02-10.2,35.56h0Zm45.07,9.79l10.08.88c11.3.99,21.61-1.94,22.89-16.56s-8.37-19.3-19.67-20.29l-10.08-.88-3.22,36.85h0Zm10.11-30.4l4.12.36c6.18.54,11.74,5.65,11.04,13.68-.7,8.03-7.07,12.1-13.25,11.56l-4.12-.36,2.21-25.24h0Zm71.03,11.85l-10.49,2.62,1.5-16.11.1-.03,8.89,13.52h0Zm-19.68,19.65l7.46-1.86,1.09-9.01,14.55-3.63,5.14,7.46,7.97-1.99-23.04-32.38-8.12,2.03-5.04,39.38h0Zm46.1-11.74l6.97-2.54-2.54-6.97-6.97,2.54,2.54,6.97h0Zm25.28-9.71l9.02-4.6c10.11-5.15,17.3-13.1,10.63-26.18-6.66-13.08-17.32-11.93-27.43-6.78l-9.02,4.59,16.79,32.96h0Zm-7.54-31.14l3.68-1.88c5.53-2.81,12.95-1.42,16.61,5.75,3.66,7.18.41,14-5.11,16.82l-3.68,1.88-11.5-22.57h0Zm42.37,11.33l6-4.36-4.36-6-6,4.36,4.36,6h0Zm9.81-43l6.06.58.54-8.04,20.89,19.48,5.06-5.43-27.06-25.23-4.48,4.81-1.02,13.84h0Zm35.04-25.93c-.77,4.89.23,8.44,3.62,10.81,6.17,4.32,12.08,1.34,16.21-4.56,4.2-5.99,4.6-12.31-1.53-16.6-3.47-2.43-7.36-2.43-12.02.26l-.04-.03c1-4.29-.99-8.2-3.72-10.11-5.08-3.56-10.67-.29-14.41,5.05-3.86,5.51-4.19,11.43,1.24,15.23,3.17,2.22,7.09,1.99,10.56-.11l.09.06h0Zm-6.4-5.65c-2.43-1.7-2.1-4.77-.54-6.98,1.61-2.3,4.18-2.64,6.44-1.06,1.87,1.31,2.59,4.34,2.01,6.46-2.24,1.54-5.3,3.41-7.9,1.58h0Zm14.19,10.32c-2.56-1.79-2.77-4.46-2.29-7.36,2.59-1.94,5.81-3.5,8.81-1.4,2.52,1.76,2.7,4.74,1,7.17-1.7,2.43-5,3.36-7.52,1.59h0Zm3.3-58.42c-1.86,1.96-3.28,4.11-4.38,6.58-4.87,10.94,3.88,18.38,13.04,22.45,7.94,3.53,16.67,4.93,20.85-4.47,3.4-7.65.15-13.39-7.16-16.65-6.25-2.78-11.87-1.11-14.71,5.29-1.27,2.86-1.13,5.41.48,8.04l-.14.05c-4.95-2.44-9.49-6.84-6.88-12.7,1.01-2.28,2.41-3.86,3.99-5.3l-5.08-3.31h0Zm12.01,16.95c1.44-3.24,5.1-3.24,8.39-1.78,3,1.34,5.47,4,4.07,7.15-1.49,3.34-4.9,3.45-8.09,2.02-3.39-1.51-5.83-4.1-4.37-7.4h0Zm-1.32-51.86l-5.5,20.53,19.1,5.5c-.1-2.28.15-4.46.74-6.66,1.1-4.1,3.78-7.77,8.39-6.53,4.56,1.22,5.25,5.58,4.25,9.31-.84,3.12-2.57,5.29-3.75,6.84l6.36,1.87c1.2-2.2,2.53-5.3,3.27-8.07,2.47-9.21-1.71-15.38-8.41-17.18-9.27-2.48-13.36,3.39-14.71,8.4-.37,1.38-.45,2.51-.52,3.37l-7.59-2.2,3.69-13.77-5.32-1.43h0Z"/>
    </g>
  </g>
</svg>