<svg xmlns="http://www.w3.org/2000/svg" width="426.67728pt" height="577.95306pt" viewBox="0 0 426.67729 577.95307"><defs><clipPath id="a"><path d="M0 0h429v577.738H0Zm0 0"/></clipPath></defs><path d="M214.555 6.61c-15.25 0-16.75 7.75-25.75 14.25s-23.72 17.902-71.25 28c-40 8.5-89.5 11.75-102 13.25 0 0-5 25-6 39.75s-3.668 69.667-2.668 90c1 20.335 1.332 73 13 116.667 11.668 43.668 26.758 104.996 72 162.332 45.242 57.336 102 100 122.668 100 20.664 0 77.425-42.664 122.668-100 45.242-57.336 60.332-118.664 72-162.332 11.664-43.668 12-96.332 13-116.668 1-20.332-1.668-75.25-2.668-90-1-14.75-6-39.75-6-39.75-12.5-1.5-62-4.75-102-13.25-47.532-10.097-62.25-21.5-71.25-28s-10.5-14.25-25.75-14.25" style="fill:#877843;fill-opacity:1;fill-rule:nonzero;stroke:none" transform="matrix(1.02429 0 0 1.02429 -6.427 -6.77)"/><path d="M214.555 14.527c-10.668 0-14.922 10.04-25.332 15.668-16.899 9.13-36.668 21-85.336 30-48.664 9-80.664 3.332-82.664 13-2 9.664-5.668 71-6 87.332-.336 16.332-2.336 65.332 5.996 112.668 8.336 47.332 16.336 76.664 28.668 105 12.336 28.332 34.668 74.332 64.668 108 30 33.664 82.668 77 100 77 17.332 0 70-43.336 100-77 30-33.668 52.332-79.668 64.668-108 12.332-28.336 20.332-57.668 28.664-105 8.336-47.336 6.336-96.336 6-112.668-.332-16.332-4-77.668-6-87.332-2-9.668-34-4-82.664-13-48.668-9-68.442-20.87-85.336-30-10.414-5.629-14.664-15.668-25.332-15.668" style="fill:#fff;fill-opacity:1;fill-rule:nonzero;stroke:none" transform="matrix(1.02429 0 0 1.02429 -6.427 -6.77)"/><g clip-path="url(#a)" style="fill:#213a57;fill-opacity:1;stroke:none" transform="matrix(1.02429 0 0 1.02429 -6.427 -6.77)"><path d="M2145.547 5632.127c-106.68 0-149.219-100.391-253.32-156.68-168.985-91.29-366.68-210-853.36-300-486.64-90-806.64-33.32-826.64-130-20-96.64-56.68-710-60-873.32-3.36-163.32-23.36-653.32 59.96-1126.68 83.36-473.32 163.36-766.64 286.68-1050 123.36-283.32 346.68-743.32 646.68-1080 300-336.64 826.68-770 1000-770 173.32 0 700 433.36 1000 770 300 336.68 523.32 796.68 646.68 1080 123.32 283.36 203.32 576.68 286.64 1050 83.36 473.36 63.36 963.36 60 1126.68-3.32 163.32-40 776.68-60 873.32-20 96.68-340 40-826.64 130-486.68 90-684.414 208.71-853.36 300-104.14 56.289-146.64 156.68-253.32 156.68zm0 0" style="fill:#213a57;fill-opacity:1;stroke:none;stroke-width:10;stroke-linecap:butt;stroke-linejoin:miter;stroke-miterlimit:10;stroke-opacity:1" transform="matrix(.1 0 0 -.1 0 577.74)"/></g><path d="M114.887 38.527s-30.332 15.332 7 23l-3 25s-57.332 6-67 7.668c-9.664 1.664-19.664 3.664-18.332 8.664 1.332 5 6 8.668 10.332 13.336 0 0-10.242-.406-28.664-23.336-15-18.664-9-36 2.332-39.664 11.332-3.668 37.668-8.668 46.332-10.336 8.668-1.664 36-4 51-4.332" style="fill:#2b602d;fill-opacity:1;fill-rule:nonzero;stroke:none" transform="matrix(1.02429 0 0 1.02429 -6.427 -6.77)"/><path d="M314.219 38.527s30.336 15.332-7 23l3 25s57.336 6 67 7.668c9.668 1.664 19.668 3.664 18.336 8.664-1.336 5-6 8.668-10.336 13.336 0 0 10.246-.406 28.668-23.336 15-18.664 9-36-2.332-39.664-11.336-3.668-37.668-8.668-46.336-10.336-8.664-1.664-36-4-51-4.332" style="fill:#cd2a2a;fill-opacity:1;fill-rule:nonzero;stroke:none" transform="matrix(1.02429 0 0 1.02429 -6.427 -6.77)"/><path d="M214.555 191.195h-17.25V547.43a356.116 356.116 0 0 0 17.25 9.765 357.364 357.364 0 0 0 18.043-10.25v-355.75" style="fill:#213a57;fill-opacity:1;fill-rule:nonzero;stroke:none" transform="matrix(1.02429 0 0 1.02429 -6.427 -6.77)"/><path d="M232.598 191.195v355.75c13.004-7.898 24.699-16.195 35.289-24.84v-330.91" style="fill:#cd2a2a;fill-opacity:1;fill-rule:nonzero;stroke:none" transform="matrix(1.02429 0 0 1.02429 -6.427 -6.77)"/><path d="M267.887 191.195v330.91a282.929 282.929 0 0 0 35.293-34.285V191.195" style="fill:#213a57;fill-opacity:1;fill-rule:nonzero;stroke:none" transform="matrix(1.02429 0 0 1.02429 -6.427 -6.77)"/><path d="M303.18 191.195V487.82c4.722-5.457 9.172-11 13.375-16.625 8.047-10.77 15.367-22.547 21.918-33.582V191.195" style="fill:#cd2a2a;fill-opacity:1;fill-rule:nonzero;stroke:none" transform="matrix(1.02429 0 0 1.02429 -6.427 -6.77)"/><path d="M338.473 437.613c6.18-10.414 11.672-20.164 16.414-27.754 7.3-11.68 13.558-25.297 18.875-39.144v-179.52h-35.29" style="fill:#213a57;fill-opacity:1;fill-rule:nonzero;stroke:none" transform="matrix(1.02429 0 0 1.02429 -6.427 -6.77)"/><path d="M395.887 295.195c5.332-22 14-86 10.668-104h-32.793v179.52c11.414-29.723 18.488-60.512 22.125-75.52M22.555 191.195c-3.332 18 5.332 82 10.668 104 3.718 15.352 11.035 47.211 22.914 77.555V191.195" style="fill:#cd2a2a;fill-opacity:1;fill-rule:nonzero;stroke:none" transform="matrix(1.02429 0 0 1.02429 -6.427 -6.77)"/><path d="M56.137 191.195V372.75c5.144 13.145 11.144 26.004 18.086 37.11 4.941 7.913 10.699 18.171 17.207 29.085v-247.75" style="fill:#213a57;fill-opacity:1;fill-rule:nonzero;stroke:none" transform="matrix(1.02429 0 0 1.02429 -6.427 -6.77)"/><path d="M91.43 191.195v247.75c6.343 10.649 13.398 21.914 21.125 32.25a294.301 294.301 0 0 0 14.168 17.543V191.195" style="fill:#cd2a2a;fill-opacity:1;fill-rule:nonzero;stroke:none" transform="matrix(1.02429 0 0 1.02429 -6.427 -6.77)"/><path d="M126.723 191.195v297.543a283.468 283.468 0 0 0 35.289 34.008v-331.55" style="fill:#213a57;fill-opacity:1;fill-rule:nonzero;stroke:none" transform="matrix(1.02429 0 0 1.02429 -6.427 -6.77)"/><path d="M162.012 191.195v331.551c10.597 8.586 22.289 16.836 35.293 24.684V191.195" style="fill:#cd2a2a;fill-opacity:1;fill-rule:nonzero;stroke:none" transform="matrix(1.02429 0 0 1.02429 -6.427 -6.77)"/><path d="M214.555 107.195c9.668 0 38.07-3 50.664-3 6.336 0 28.668 2 35 7 6.336 5 10 1.664 10 1.664l27-29.332c3.336-2.918 2-8.332-1-10-3-1.668-16.664-16.332-55-16.332-21.164 0-46.164 4.164-66.664 4.164s-45.5-4.164-66.668-4.164c-38.332 0-52 14.664-55 16.332-3 1.668-4.332 7.082-1 10l27 29.332s3.668 3.336 10-1.664c6.336-5 28.668-7 35-7 12.597 0 41 3 50.668 3" style="fill:#877843;fill-opacity:1;fill-rule:nonzero;stroke:none" transform="matrix(1.02429 0 0 1.02429 -6.427 -6.77)"/><path d="M214.555 107.195c9.668 0 38.07-3 50.664-3 6.336 0 28.668 2 35 7 6.336 5 10 1.664 10 1.664l27-29.332c3.336-2.918 2-8.332-1-10-3-1.668-16.664-16.332-55-16.332-21.164 0-46.164 4.164-66.664 4.164s-45.5-4.164-66.668-4.164c-38.332 0-52 14.664-55 16.332-3 1.668-4.332 7.082-1 10l27 29.332s3.668 3.336 10-1.664c6.336-5 28.668-7 35-7 12.597 0 41 3 50.668 3zm0 0" style="fill:none;stroke:none;stroke-width:1;stroke-linecap:butt;stroke-linejoin:miter;stroke-miterlimit:10;stroke-opacity:1" transform="matrix(1.02429 0 0 1.02429 -6.427 -6.77)"/><path d="M214.555 102.527c10.668 0 41.332-3.332 59.664-3.332 18.336 0 33 10.332 33 10.332l25.336-28.668c-8-10.664-27-20.332-48-20.332-28.668 0-55.332 5.668-70 5.668s-41.332-5.668-70-5.668c-21.004 0-40 9.668-48 20.332l25.332 28.668s14.668-10.332 33-10.332c18.336 0 49 3.332 59.668 3.332" style="fill:#213a57;fill-opacity:1;fill-rule:nonzero;stroke:none" transform="matrix(1.02429 0 0 1.02429 -6.427 -6.77)"/><path d="M214.555 102.527c10.668 0 41.332-3.332 59.664-3.332 18.336 0 33 10.332 33 10.332l25.336-28.668c-8-10.664-27-20.332-48-20.332-28.668 0-55.332 5.668-70 5.668s-41.332-5.668-70-5.668c-21.004 0-40 9.668-48 20.332l25.332 28.668s14.668-10.332 33-10.332c18.336 0 49 3.332 59.668 3.332zm0 0" style="fill:none;stroke:none;stroke-width:1;stroke-linecap:butt;stroke-linejoin:miter;stroke-miterlimit:10;stroke-opacity:1" transform="matrix(1.02429 0 0 1.02429 -6.427 -6.77)"/><path d="m187.347 72.872-1.927.01c-.173.001-.26-.1-.261-.3l-.007-.975c0-.212.076-.368.227-.462l2.871-1.611c.29-.167.526-.25.714-.25l1.044-.004c.2-.002.3.122.3.37l.156 22.314c.002.734.093 1.254.267 1.56.174.307.5.483.974.526.258.038.387.19.388.462l.007 1.01c.001.238-.094.357-.282.357l-5.713.024c-.227.003-.343-.123-.347-.37l-.006-.906c0-.32.17-.52.514-.606.426-.096.737-.286.929-.57.196-.286.29-.783.282-1.493M205.965 82.07l-.017-2.838c-.025-3.275-.184-5.464-.474-6.568-.295-1.104-.728-1.657-1.297-1.654-.565.001-.971.45-1.222 1.344-.251.894-.367 2.411-.356 4.552l.024 2.892c.014 2.293.555 3.437 1.622 3.434.597-.005 1.173-.39 1.72-1.162m.015 2.113c-.8 1.351-1.725 2.029-2.772 2.033-1.087.005-1.985-.674-2.698-2.036-.713-1.365-1.08-3.24-1.1-5.628-.018-2.79.413-5.039 1.299-6.745.882-1.71 2.027-2.565 3.424-2.573 1.447-.004 2.638.937 3.572 2.824.93 1.887 1.412 5.068 1.442 9.537.033 4.802-.488 8.437-1.56 10.909-1.075 2.468-2.537 3.709-4.38 3.716-.935.006-1.713-.297-2.337-.902-.623-.608-.936-1.365-.942-2.277-.004-.567.149-1.066.458-1.493.314-.424.706-.64 1.184-.64.97-.007 1.46.642 1.47 1.944 0 .317-.055.633-.167.938-.064.157-.096.269-.096.338.003.225.167.338.5.334.832 0 1.491-.717 1.993-2.143.499-1.43.744-3.414.725-5.954M218.887 72.774l-1.93.007c-.173 0-.26-.098-.261-.3l-.006-.976c0-.212.075-.365.227-.462l2.87-1.608c.29-.166.526-.25.715-.253l1.044-.004c.2.002.3.123.3.373L222 91.865c.002.732.094 1.251.268 1.558.174.307.5.482.973.529.26.034.388.186.39.458l.006 1.01c.001.238-.094.358-.282.357l-5.713.028c-.227 0-.343-.123-.347-.373l-.007-.903c0-.32.17-.523.513-.606.427-.096.738-.29.93-.573.196-.284.29-.78.285-1.49M234.75 76.737l-3.741 10.984 3.818-.018zm.092 12.971-5.03.023c-.314.003-.47-.18-.474-.547l-.004-.602c-.003-.475.095-1 .292-1.58l5.86-17.43c.066-.2.202-.302.414-.303l1.574-.007c.149.001.227.07.227.212l.128 18.216 1.498-.006c.189 0 .285.09.285.264l.012 1.457c.003.19-.066.283-.2.283l-1.584.007.021 3.088c.006.662.27 1.08.791 1.257.205.068.303.205.305.405l.009.956c0 .215-.086.32-.255.32l-4.743.022c-.154.002-.23-.08-.232-.248l-.007-1.08c0-.177.089-.307.27-.392.58-.237.866-.774.859-1.6" style="fill:#fff;fill-opacity:1;fill-rule:nonzero;stroke:none;stroke-width:.898486" transform="matrix(1.02429 0 0 1.02429 -6.427 -6.77)"/><path d="M71.191 160.563c-.21 2.906-1.175 5.199-2.894 6.878-1.719 1.68-3.953 2.52-6.695 2.52-3.922 0-7.07-1.582-9.446-4.742-2.37-3.164-3.558-7.79-3.558-13.88 0-6.01 1.156-10.644 3.465-13.901 2.308-3.258 5.28-4.883 8.906-4.883 1.5 0 3.156.375 4.968 1.129.254.093.446.14.57.14.15 0 .36-.093.634-.285a.803.803 0 0 1 .539-.258h1.8c.403 0 .602.227.602.68v7.687c0 .438-.2.657-.602.657h-1.39c-.442 0-.742-.086-.903-.258-.156-.172-.374-.64-.648-1.406-1.285-3.61-2.984-5.414-5.094-5.414-1.246 0-2.207.468-2.879 1.406-.675.933-1.191 2.707-1.55 5.312a57.98 57.98 0 0 0-.54 7.918c0 5.84.446 10.125 1.333 12.86.886 2.73 2.437 4.097 4.652 4.097 2.66 0 4.402-2.18 5.227-6.539M85.555 167.43c.949 0 1.82-.453 2.61-1.36.792-.906 1.355-3.386 1.694-7.449.336-4.058.504-7.781.504-11.172 0-3.058-.25-5.574-.758-7.55-.507-1.977-1.054-3.247-1.644-3.817-.594-.57-1.352-.855-2.277-.855-.782 0-1.485.218-2.106.656-.621.437-1.11 1.219-1.457 2.351-.348 1.133-.652 3.348-.918 6.641a129.637 129.637 0 0 0-.394 10.258c0 4.418.39 7.574 1.171 9.46.782 1.891 1.973 2.837 3.575 2.837m.347 2.53c-4.41 0-7.691-1.64-9.855-4.917-2.16-3.281-3.242-7.816-3.242-13.61 0-5.792 1.09-10.386 3.273-13.785 2.184-3.394 5.352-5.093 9.508-5.093 3.902 0 7 1.562 9.285 4.695 2.29 3.133 3.434 7.766 3.434 13.902 0 6.262-1.133 10.961-3.399 14.102-2.27 3.137-5.27 4.707-9.004 4.707M104.477 169.492h-1.582c-.528 0-.79-.21-.79-.633v-8.836c0-.593.282-.89.852-.89h1.36c.359 0 .597.09.714.27.114.179.278.8.489 1.863.867 4.093 2.835 6.14 5.918 6.14 1.601 0 2.863-.515 3.78-1.547.919-1.03 1.376-2.28 1.376-3.75 0-1.515-.489-2.921-1.473-4.218-.976-1.297-2.871-3.047-5.676-5.25-2.175-1.688-3.718-2.996-4.636-3.926a11.5 11.5 0 0 1-2.215-3.152c-.559-1.172-.84-2.461-.84-3.868 0-2.593.883-4.726 2.644-6.398 1.758-1.672 3.907-2.508 6.438-2.508 1.16 0 2.406.242 3.734.73.59.223.993.333 1.203.333.207 0 .442-.067.696-.192.254-.113.57-.168.949-.168h1.172c.61 0 .914.211.914.633v7.758c0 .39-.23.586-.695.586h-1.454c-.382 0-.628-.074-.746-.223-.113-.148-.32-.715-.617-1.7-.988-3.39-2.605-5.085-4.84-5.085-1.203 0-2.168.375-2.894 1.125-.73.75-1.094 1.617-1.094 2.602 0 1.14.43 2.308 1.281 3.503.856 1.196 2.559 2.762 5.114 4.7 3.27 2.484 5.53 4.668 6.785 6.55 1.254 1.883 1.883 3.926 1.883 6.13 0 2.968-1.051 5.382-3.149 7.242-2.098 1.859-4.594 2.789-7.484 2.789-1.285 0-2.793-.254-4.524-.758-.547-.172-.937-.258-1.172-.258-.21 0-.484.078-.82.238-.254.11-.457.168-.601.168M146.875 169.492h-21.676c-.504 0-.758-.187-.758-.562v-1.032c0-.328.348-.687 1.043-1.078.614-.36.918-.922.918-1.687v-27.75c0-.813-.39-1.422-1.172-1.828-.527-.266-.789-.578-.789-.938v-1.125c0-.297.254-.445.758-.445h16.266c.293 0 .851-.024 1.676-.07.738-.047 1.203-.07 1.39-.07.7 0 1.047.14 1.047.421v6.89c0 .36-.05.575-.144.645-.094.07-.364.106-.805.106h-1.172c-.508 0-.793-.219-.855-.656-.23-1.22-.649-2.262-1.25-3.13-.598-.867-1.809-1.3-3.622-1.3h-3.988v13.265h1.457c.906 0 1.528-.128 1.867-.386.336-.258.758-1.067 1.266-2.426.168-.438.285-.68.348-.727.062-.047.254-.07.57-.07h1.39c.548 0 .825.195.825.586v8.836c0 .375-.254.562-.762.562h-1.453c-.316 0-.54-.058-.664-.175-.129-.118-.297-.48-.508-1.09-.379-1.11-.789-1.785-1.234-2.028-.442-.242-1.055-.363-1.836-.363h-1.266v14.836h4.274c1.582 0 2.675-.277 3.289-.832.613-.555 1.37-2.074 2.277-4.558.211-.563.594-.844 1.14-.844h1.36c.527 0 .793.195.793.586M167.219 152.777v-15.386c0-.797-.403-1.403-1.2-1.809-.55-.266-.824-.586-.824-.965v-1.031c0-.36.274-.54.825-.54h7.148c.465 0 .695.165.695.493v1.078c0 .36-.261.68-.789.961-.824.422-1.234 1.024-1.234 1.805v31.523c0 .5-.309.75-.918.75h-1.399c-.632 0-1.078-.25-1.332-.75l-13.12-25.547v21.774c0 .812.406 1.422 1.214 1.828.54.266.809.578.809.937v1.055c0 .36-.27.54-.817.54h-7.066c-.461 0-.691-.165-.691-.493v-1.102c0-.343.277-.656.824-.937.8-.422 1.203-1.031 1.203-1.828v-27.75c0-.797-.402-1.399-1.203-1.805-.547-.266-.824-.586-.824-.96v-1.032c0-.36.273-.54.82-.54h6.683c.485 0 .809.044.977.13.168.086.336.293.504.62M177.09 133.047h18.637c.699 0 1.046.21 1.046.633 0 .656-.222 1.515-.668 2.578l-12.703 30.469h3.793c3.243 0 5.192-1.602 5.844-4.805.145-.734.29-1.172.426-1.313.137-.14.375-.21.71-.21h1.52c.446 0 .664.171.664.515v8.578h-20.027c-.59 0-.887-.226-.887-.68v-1.03l13.399-31.97h-3.946c-1.539 0-2.613.266-3.222.797-.61.532-1.074 1.579-1.39 3.141-.145.703-.266 1.09-.364 1.16-.094.07-.332.106-.711.106h-1.453c-.446 0-.668-.157-.668-.47M211.09 145.188l-3.309 12.023h6.555zm-2.184-7.532-.297-1.59c-.097-.515-.144-.804-.144-.867 0-.156.156-.289.473-.398l5.363-1.848a.794.794 0 0 1 .285-.047c.293 0 .484.14.57.418l8.574 31.785c.149.578.333.993.551 1.243.223.25.653.515 1.285.796.485.22.727.47.727.75v1.032c0 .375-.2.562-.602.562h-10.57c-.566 0-.851-.187-.851-.562v-1.032c0-.359.34-.664 1.015-.914.828-.332 1.242-.777 1.242-1.34 0-.156-.02-.335-.062-.539l-1.32-4.894h-8.27l-1.324 4.71c-.063.208-.094.352-.094.446 0 .469.469.985 1.414 1.547.61.375.91.703.91.984v1.032c0 .375-.304.562-.918.562h-6.609c-.738 0-1.11-.187-1.11-.562v-1.22c0-.327.235-.593.696-.796.867-.39 1.433-1.055 1.71-1.992M262.617 160.563c-.21 2.906-1.18 5.199-2.898 6.878-1.715 1.68-3.95 2.52-6.692 2.52-3.922 0-7.07-1.582-9.441-4.742-2.375-3.164-3.563-7.79-3.563-13.88 0-6.01 1.157-10.644 3.465-13.901 2.313-3.258 5.282-4.883 8.907-4.883 1.5 0 3.156.375 4.968 1.129.254.093.446.14.57.14.145 0 .356-.093.633-.285a.802.802 0 0 1 .54-.258h1.8c.403 0 .602.227.602.68v7.687c0 .438-.2.657-.602.657h-1.39c-.442 0-.746-.086-.903-.258-.16-.172-.375-.64-.648-1.406-1.285-3.61-2.985-5.414-5.094-5.414-1.242 0-2.207.468-2.879 1.406-.676.933-1.191 2.707-1.55 5.312a57.98 57.98 0 0 0-.54 7.918c0 5.84.442 10.125 1.328 12.86.891 2.73 2.442 4.097 4.657 4.097 2.66 0 4.402-2.18 5.222-6.539M275.89 145.188l-3.312 12.023h6.555zm-2.183-7.532-.297-1.59c-.098-.515-.148-.804-.148-.867 0-.156.16-.289.476-.398l5.36-1.848a.825.825 0 0 1 .285-.047c.297 0 .488.14.57.418l8.578 31.785c.145.578.332.993.551 1.243.223.25.648.515 1.281.796.489.22.73.47.73.75v1.032c0 .375-.202.562-.6.562h-10.571c-.567 0-.852-.187-.852-.562v-1.032c0-.359.34-.664 1.016-.914.828-.332 1.242-.777 1.242-1.34 0-.156-.02-.335-.062-.539l-1.325-4.894h-8.27l-1.32 4.71c-.066.208-.097.352-.097.446 0 .469.473.985 1.418 1.547.605.375.91.703.91.984v1.032c0 .375-.305.562-.918.562h-6.613c-.738 0-1.106-.187-1.106-.562v-1.22c0-.327.23-.593.696-.796.863-.39 1.433-1.055 1.71-1.992M294.7 165.133v-27.75c0-.797-.4-1.399-1.204-1.805-.547-.265-.82-.586-.82-.96v-1.032c0-.36.273-.54.82-.54h9.875c.465 0 .695.165.695.493v1.078c0 .36-.277.68-.824.961-.8.422-1.203 1.024-1.203 1.805v29.32h2.691c1.583 0 2.81-.363 3.684-1.09.875-.726 1.524-1.965 1.945-3.715.172-.671.293-1.058.368-1.16.074-.101.257-.152.554-.152h1.485c.57 0 .855.172.855.516v8.39h-20.156c-.695 0-1.043-.234-1.043-.703v-.89c0-.36.305-.672.918-.938.906-.406 1.36-1.016 1.36-1.828M338.742 160.563c-.21 2.906-1.176 5.199-2.894 6.878-1.72 1.68-3.95 2.52-6.692 2.52-3.926 0-7.07-1.582-9.445-4.742-2.371-3.164-3.559-7.79-3.559-13.88 0-6.01 1.157-10.644 3.465-13.901 2.309-3.258 5.278-4.883 8.906-4.883 1.497 0 3.153.375 4.97 1.129.25.093.44.14.566.14.148 0 .359-.093.632-.285a.802.802 0 0 1 .54-.258h1.804c.399 0 .602.227.602.68v7.687c0 .438-.203.657-.602.657h-1.394c-.442 0-.743-.086-.899-.258-.16-.172-.375-.64-.648-1.406-1.29-3.61-2.989-5.414-5.098-5.414-1.242 0-2.203.468-2.879 1.406-.676.933-1.191 2.707-1.55 5.312a58.608 58.608 0 0 0-.536 7.918c0 5.84.442 10.125 1.328 12.86.887 2.73 2.438 4.097 4.657 4.097 2.66 0 4.398-2.18 5.222-6.539M350.008 165.133c0 .812.398 1.422 1.203 1.828.547.266.82.578.82.937v1.055c0 .36-.273.54-.82.54h-9.871c-.469 0-.7-.165-.7-.493v-1.102c0-.343.274-.656.825-.937.8-.422 1.2-1.031 1.2-1.828v-27.75c0-.797-.4-1.399-1.2-1.805-.55-.265-.824-.586-.824-.96v-1.032c0-.36.273-.54.824-.54h9.87c.466 0 .696.165.696.493v1.078c0 .36-.273.68-.82.961-.805.422-1.203 1.024-1.203 1.805M367.727 167.43c.949 0 1.82-.453 2.609-1.36.793-.906 1.355-3.386 1.695-7.449.336-4.058.504-7.781.504-11.172 0-3.058-.254-5.574-.758-7.55-.507-1.977-1.054-3.247-1.644-3.817-.594-.57-1.352-.855-2.281-.855a3.58 3.58 0 0 0-2.106.656c-.621.437-1.105 1.219-1.453 2.351-.348 1.133-.652 3.348-.918 6.641a129.636 129.636 0 0 0-.395 10.258c0 4.418.391 7.574 1.172 9.46.778 1.891 1.97 2.837 3.575 2.837m.347 2.53c-4.41 0-7.695-1.64-9.855-4.917-2.164-3.281-3.242-7.816-3.242-13.61 0-5.792 1.09-10.386 3.273-13.785 2.184-3.394 5.352-5.093 9.508-5.093 3.902 0 6.996 1.562 9.285 4.695 2.289 3.133 3.434 7.766 3.434 13.902 0 6.262-1.133 10.961-3.403 14.102-2.265 3.137-5.265 4.707-9 4.707" style="fill:#fff;fill-opacity:1;fill-rule:nonzero;stroke:none" transform="matrix(1.02429 0 0 1.02429 -6.427 -6.77)"/><path d="M225.723 393.664c13.582-1.367 10.62-26.613 22.851-32.156-16.5.418-28.797 17.648-22.851 32.156m-13.54-44.008c-14.44 19.41-29.511 42.707-33.007 70.246 5.863-6.152 15.566-4.093 20.312-11.004 4.73-6.89 4.168-17.644 8.461-26.234-1.523-3.832-4.015-6.703-3.383-12.695 2.79-1.156 6.766-1.13 10.157-1.692 3.316-4.297 6.87-8.363 7.617-15.234-3.61-.906-6.211-2.816-10.156-3.387m26.234-26.234c-5.64.848-11.25 1.726-15.234 4.23 5.117.422 7.695.164 9.308.848.613 2.586-.863 3.086-.844 5.078 3.688 2.55 11.977 8.461 16.926 4.23-5.535-.105-9.21-2.074-10.156-6.769 7.516-3.394 12.05 3.059 16.926 5.078.261-1.996 2.941-1.574 2.539-4.23.027-2.617-4.985-4.543-3.387-5.926 1.168-.035 1.86.398 2.54.848-4.845-6.16-13.532-8.473-24.544-8.465-.652 4.32 4.438 2.898 5.926 5.078m-57.55-4.23c-1.009 5.242 4.69 3.773 4.234 8.46-2.286 5.559-6.88 3.727-9.309 9.313 12.605.992 23.285-7.149 26.234-18.621-6.843.492-15.699-1.031-21.16.847m36.395-77.863c13.8 16.387-5.88 43.656 1.691 64.32 5.113-.808 5.781-6.062 9.309-8.46 22.324.718 29.804 21.03 44.008 30.464 10.464 6.95 26.125 12.196 42.316 13.543 6.863.57 14.992-1.863 19.465 2.54.726 6.081-2.172 8.546-5.922 10.156 6.555 10.699-8.492 10.882-10.156 18.617-2.688-5.453-11.207-3.336-12.696 1.691-2.07-.75-.914-4.722-4.23-4.23-3.445-1.926-4.324 4.988-8.465 5.078-.445-2.66-1.484-4.723-2.539-6.77-4.156-.77-3.223 3.547-6.77 3.387.239-1.934-.203-3.184-1.695-3.387-5.656 3.246-7.004-1.836-12.691 3.387-.957-4.172-6.469-.805-9.313-4.234-2.93 4.968-7.304 8.492-7.613 16.082 4.887 3.3 11.098 3.015 16.078 4.23.828.2 3.906-.351 2.54-.847 4.523 1.636 7.327 8.398 11.847 4.23.894 2.773 2.414 4.926 5.078 5.926 3.336.512 4.394-1.246 5.926-2.535 1.93 2.863 2.765 6.824 6.77 7.613 3.652-.016 3.12-4.215 6.769-4.23-1.621 10.285 11.55 13.261 2.539 21.16-18.762-.43-39.078-8.301-55.856-11.004-8.367-1.352-12.562 5.605-20.312 2.539-.461-3.207-2.047-5.29-1.692-9.313-17.191 2.84-19.394 20.664-27.082 33.008 3.25 9.047 11.747.535 14.387-3.387 6.059 3.809 4.34 11.782 6.77 19.465 2.902 9.18 12.32 14.676 6.77 26.238-12.259-.507-13.427-11.015-22.848-13.542-12.883-3.45-25.383 13.144-35.547 0 2.672-15.68 3.996-29.989-20.313-25.387.004-8.742 4.672-12.82 4.235-22.004-3.649-3.406-13.942-.164-17.774-3.387-.562-4.512.656-7.246 2.54-9.308-2-4.207-9.165-3.25-12.696-5.926.164-2.942 2.992-3.211 3.387-5.926-2.454-3.824-8.223-3.723-7.618-9.309.32-2.988 3.77-2.882 5.922-5.078 2.828-2.879 3.246-7.793 5.926-12.691 4.309-7.879 12.996-12.258 13.543-16.93-3.367-9.48 2.313-10.289 7.613-17.77 3.93-5.542 4.852-12.324 13.543-12.695-2.629-5.07.48-11.578-4.23-15.234.738-17.031 4.285-31.258 8.46-44.855 2.216 2.867 1.923 8.234 2.54 12.695 13.355 4.133 17.367 17.613 25.39 27.082 2.864-2.215 4.395-5.762 5.079-10.156-1.13-1.41-3.766-1.313-5.079-2.54-4.039-16.331 3.77-33.503 12.696-42.316" style="fill:#877843;fill-opacity:1;fill-rule:evenodd;stroke:none" transform="matrix(1.02429 0 0 1.02429 -6.427 -6.77)"/><path d="M202.027 318.344c-2.949 11.472-13.629 19.613-26.234 18.62 2.43-5.585 7.023-3.753 9.309-9.312.457-4.687-5.243-3.218-4.23-8.46 5.456-1.876 14.312-.356 21.155-.848M232.492 318.344c11.012-.008 19.7 2.304 24.543 8.465-.68-.45-1.37-.883-2.539-.848-1.598 1.383 3.418 3.309 3.387 5.926.402 2.656-2.278 2.234-2.54 4.23-4.874-2.02-9.41-8.472-16.925-5.078.945 4.7 4.621 6.664 10.156 6.77-4.949 4.23-13.238-1.68-16.926-4.23-.02-1.993 1.457-2.493.844-5.079-1.613-.68-4.191-.426-9.308-.848 3.984-2.504 9.593-3.382 15.234-4.23-1.488-2.18-6.578-.758-5.926-5.078M222.34 353.043c-.746 6.871-4.3 10.937-7.617 15.234-3.391.563-7.368.536-10.157 1.692-.632 5.992 1.86 8.863 3.383 12.695-4.293 8.59-3.73 19.344-8.46 26.234-4.747 6.91-14.45 4.852-20.313 11.004 3.496-27.539 18.566-50.836 33.008-70.246 3.945.57 6.546 2.48 10.156 3.387M248.574 361.508c-12.23 5.543-9.27 30.789-22.851 32.156-5.946-14.508 6.351-31.738 22.851-32.156" style="fill:#191919;fill-opacity:1;fill-rule:evenodd;stroke:none" transform="matrix(1.02429 0 0 1.02429 -6.427 -6.77)"/><path d="M204.566 283.645c1.313 1.226 3.95 1.128 5.079 2.539-.684 4.394-2.215 7.941-5.079 10.156-8.023-9.465-12.035-22.95-25.39-27.082-.617-4.461-.324-9.828-2.54-12.695-4.175 13.597-7.722 27.824-8.46 44.855 4.71 3.656 1.601 10.164 4.23 15.234-8.691.375-9.613 7.149-13.543 12.696-5.3 7.48-10.98 8.289-7.613 17.77-.543 4.671-9.234 9.05-13.543 16.929-2.68 4.898-3.098 9.812-5.926 12.691-2.152 2.196-5.601 2.09-5.922 5.082-.605 5.582 5.164 5.48 7.618 9.305-.391 2.715-3.223 2.984-3.387 5.926 3.531 2.676 10.695 1.719 12.695 5.926-1.883 2.066-3.101 4.8-2.539 9.308 3.832 3.223 14.125-.023 17.774 3.387.437 9.183-4.23 13.262-4.23 22.004 24.304-4.602 22.98 9.707 20.308 25.39 10.164 13.141 22.664-3.453 35.547 0 9.421 2.524 10.59 13.028 22.847 13.54 5.551-11.563-3.863-17.06-6.77-26.235-2.429-7.687-.71-15.66-6.769-19.469-2.64 3.922-11.137 12.434-14.387 3.387 7.688-12.344 9.891-30.168 27.082-33.008-.355 4.024 1.23 6.106 1.692 9.313 7.75 3.07 11.945-3.89 20.312-2.54 16.778 2.704 37.094 10.575 55.856 11 9.012-7.89-4.16-10.87-2.54-21.156-3.648.016-3.116 4.215-6.769 4.23-4.004-.788-4.84-4.75-6.77-7.616-1.53 1.293-2.59 3.05-5.925 2.539-2.664-1-4.184-3.149-5.078-5.926-4.52 4.168-7.324-2.594-11.848-4.23 1.367.496-1.71 1.046-2.539.847-4.98-1.215-11.191-.93-16.078-4.23.309-7.59 4.684-11.114 7.613-16.082 2.844 3.43 8.356.062 9.313 4.234 5.687-5.223 7.035-.14 12.695-3.387 1.488.203 1.93 1.457 1.691 3.387 3.547.16 2.614-4.156 6.774-3.387 1.05 2.047 2.09 4.11 2.535 6.77 4.14-.09 5.02-7.004 8.465-5.078 3.316-.492 2.16 3.48 4.23 4.23 1.489-5.027 10.008-7.144 12.696-1.691 1.664-7.735 16.71-7.918 10.156-18.617 3.75-1.61 6.648-4.07 5.922-10.157-4.469-4.402-12.602-1.968-19.465-2.539-16.191-1.351-31.852-6.593-42.316-13.543-14.204-9.433-21.684-29.746-44.008-30.465-3.528 2.395-4.196 7.653-9.309 8.465-7.57-20.668 12.11-47.937-1.691-64.324-8.926 8.809-16.735 25.984-12.696 42.317m143.028 60.09v3.382h-.848c-1.77 17.574-10.242 23.473-25.39 27.93-.352 3.598-1.5 6.394-4.227 7.617-2.23-1.16-.402-6.371-4.234-5.926-6.887-1.523-5.149 5.574-10.157 5.926-2.265-.836-1.05-5.156-4.23-5.078-5.047-.816-3.281 5.184-7.617 5.078-2.473-.633-1.637-4.566-5.079-4.23-2.996-.461-2.082 2.996-5.078 2.539.36-1.77-.578-2.243-.847-3.387-7.996 5.027-16.899-7.656-22.004 3.387 3.344 1.734 10.234-.078 12.695 2.539-.508-2.2.34-3.047 2.54-2.54 1.745.227.202 3.747 2.538 3.383 1.352-.62-.195-4.14 2.54-3.382 1.222 1.035 1.284 3.226 2.538 4.23 2.774-.047 3.235-2.406 6.77-1.691-.879 3.98 1.953 4.254 3.387 5.922 3.14-.243 2.293-4.477 5.921-4.23 3.032 1.765 4.122 5.472 5.926 8.464 4.07-.16 3.442-5.023 6.77-5.926-.016 3.68 2.617 4.719 1.695 9.309 23.41 5.277 4.817 28.633-8.465 31.312-22.187-3.812-39.433-5.773-65.168-4.23-1.82 1.281-2.355 3.847-4.23 5.078.066 3.883 2.152 5.75 1.691 10.156 13.281 9.496 29.418 37.895 13.543 55.856-1.34.07-3.226-.407-3.387.847h-1.69c-15.567-2.43-27.438-11.508-38.93-20.312-22.055 7.906-49.438-2.09-43.165-27.926-4.52 2.012-9.84 1.57-15.23.844-6.82-5.567-5.09-17.43-4.235-29.621-12.32-6.297-26.398-10.836-33.851-22.004v-3.383c1.617-20.328 16.144-33.711 22.851-51.625 20.633-17.734 30.614-46.117 33.004-82.094 5.938-10.426 4.399-28.328 15.235-33.855 2.422 17.89 8.043 32.582 16.926 44.011 1.617-20.671 13.234-31.343 21.16-45.703 22.894 3.496 15.207 44.125 13.539 62.63 17.707 6.835 31.793 17.292 44.008 29.62 11.183 5.985 35.296 18 54.164 19.465 10.25.797 15.867-2.176 18.62 7.617" style="fill:#191919;fill-opacity:1;fill-rule:evenodd;stroke:none" transform="matrix(1.02429 0 0 1.02429 -6.427 -6.77)"/></svg>