<?xml version="1.0" encoding="UTF-8"?>
<svg id="Layer_2" data-name="Layer 2" xmlns="http://www.w3.org/2000/svg" viewBox="0 0 362.21 425.2">
  <defs>
    <style>
      .cls-1 {
        fill: #1f1f1f;
      }

      .cls-1, .cls-2, .cls-3 {
        fill-rule: evenodd;
      }

      .cls-1, .cls-2, .cls-3, .cls-4 {
        stroke-width: 0px;
      }

      .cls-2 {
        fill: #2aa451;
      }

      .cls-3, .cls-4 {
        fill: #fff;
      }
    </style>
  </defs>
  <g id="Layer_1-2" data-name="Layer 1">
    <g>
      <path class="cls-1" d="m1.69,0h356.63v211.25c-9.27,41.14-31.93,75.66-53.11,103.74-40.43,53.6-81.53,80.08-125.47,91.67-31.5-8.14-72.36-29.79-109.19-71.13-26.88-30.17-55.31-73.29-68.86-125.36V0Z"/>
      <rect class="cls-4" x="7.18" y="5.49" width="345.65" height="51.55"/>
      <path class="cls-2" d="m179.73,400.97c51.54-14.01,89.4-47.26,121.11-89.3,23.06-30.57,43.36-63.28,52-101.04V61.68H123.84v313.22c17.4,11.61,36.31,20.82,55.89,26.08h0Z"/>
      <path class="cls-3" d="m179.73,400.97c21.65-5.88,40.87-15.16,58.25-27.05V61.68h-114.14v313.22c17.4,11.61,36.31,20.82,55.89,26.08h0Z"/>
      <path class="cls-1" d="m85.48,367.91c31.25,2.91,66.83,3.11,97.86,3.07,28.7-.04,64.87-1.11,93.39-3.74v-11.27c41.69-2.73,68.62-9.02,85.09-17.57l-12.49,30.13,12.89,22.22c-11,6.58-25.48,10.05-41.86,11.62l.77,8.35c-1.46,3.14-5.81,4.8-13.17,6.44-27.56,6.14-90.98,8.1-128.38,8.04-34.45-.05-93.02-1.09-122.04-6.66-9.67-1.86-14.88-4.01-16.36-7.05l.75-8.23c-16.41-1.55-30.92-5.03-41.93-11.62l12.89-22.22L.4,339.28c16.47,8.55,43.4,14.84,85.08,17.57v11.06Z"/>
      <path class="cls-3" d="m48.64,365.89l-4.08,44.73c2.34,2.43,11.18,4.2,13.6,4.67,9.51,1.83,19.46,2.8,29.1,3.59,11.98.98,24,1.58,36.01,2.02,18.75.69,37.55.97,56.32,1,18.83.03,37.71-.38,56.53-1.17,13.4-.56,26.84-1.32,40.2-2.54,5.75-.52,11.5-1.12,17.21-1.9,4.58-.62,9.2-1.35,13.71-2.36,2.19-.49,8.58-1.85,10.51-4.03l-4.15-44.88c-4.75,1.27-9.71,2.14-14.55,2.89-6.76,1.04-13.58,1.8-20.38,2.45-16.16,1.54-32.46,2.41-48.68,3.02-15.53.57-31.1.87-46.64.89-16.87.02-33.74-.04-50.61-.48-14.84-.39-29.71-1.05-44.5-2.34-13.22-1.15-26.61-2.78-39.59-5.57h0Zm231.39-6.84v7.88c13.62-1.34,25.27-3.06,33.21-5.21l-32.61-2.71-.61.04Zm40.03,40.06c13.71-1.32,27.09-4.12,37.62-9.6l-12.02-20.74,9.9-23.88c-8.41,3.42-17.45,5.84-26.14,7.69-10.46,2.23-21.17,3.79-31.89,4.93l18.84,1.3.63,6.55-.07-.15,3.14,33.89Zm-237.87-39.18l-.61-.04-32.56,2.71c.05.02.1.04.15.05,9.98,2.15,21.16,3.76,33.02,4.95v-7.66Zm-36.87,6.11l-.1.21.63-6.55h.05v-.03s.06.01.09.02l18.7-1.29c-10.73-1.14-21.44-2.71-31.89-4.93-8.69-1.85-17.73-4.27-26.14-7.69l9.9,23.88-12.02,20.74c10.55,5.48,23.96,8.29,37.7,9.61l3.09-33.96Z"/>
      <path class="cls-1" d="m155.21,243.81h12.1c-3.72-11.87-11.5-22.91-15.6-22.59-8.65.67-12.35,11.32-14.13,20.45-7.68-13.45-9.21-26.96-6.96-36.27,1.61-6.66,6.25-11.26,11.81-12.78,4.32-1.19,9.2-.56,13.65,2.7,11.91,8.71,17.79,36.06,19.78,48.5h.05c.12-1.96.22-3.95.27-5.96.43-15.36-2.62-22.06-5.66-31.76-2.86-9.11-5.37-18.45-5.81-32-.54-16.71,2.39-33.88,15.6-47.99,13.34,14.18,15.65,30.7,15.67,47.11.01,9.01-2.66,22.21-5.46,31.96-3.59,12.54-7.12,15.76-5.58,33.14.15,1.68.27,3.37.35,5.07,2.14-12.84,8.01-39.02,19.62-47.52,4.44-3.25,9.33-3.88,13.65-2.7,5.56,1.53,10.2,6.13,11.81,12.79,2.25,9.3.71,22.83-6.96,36.27-1.78-9.13-5.48-19.79-14.13-20.46-4.03-.31-11.64,10.38-15.42,22.04h12.08c2,0,3.64,1.64,3.64,3.64v7.61c0,2-1.64,3.64-3.64,3.64h-14.08c.23,6.21,2.39,11.65,7.82,14.31l-3.22,9.12c-5.36-1.26-8.65-5.69-10.46-11.5.71,11.13.13,20.66-5.54,26.23-5.47-6.02-6.88-14-6.76-23.38-1.94,4.1-4.9,7.1-9.15,8.1l-3.22-9.12c5.27-2.58,7.45-7.78,7.79-13.76h-13.9c-2,0-3.64-1.64-3.64-3.64v-7.61c0-2,1.64-3.64,3.64-3.64h0Z"/>
      <path class="cls-1" d="m44.68,32.45l3.64,1.12c-.56,1.98-1.48,3.45-2.79,4.41-1.29.96-2.94,1.44-4.94,1.44-2.47,0-4.5-.82-6.09-2.46-1.59-1.64-2.39-3.89-2.39-6.74,0-3.02.8-5.36,2.4-7.03,1.6-1.67,3.7-2.5,6.31-2.5,2.27,0,4.12.66,5.54,1.97.85.77,1.48,1.89,1.91,3.34l-3.72.87c-.22-.94-.68-1.68-1.38-2.23-.7-.54-1.55-.81-2.54-.81-1.38,0-2.5.48-3.36,1.45-.86.97-1.29,2.52-1.29,4.69,0,2.29.42,3.92,1.27,4.89.84.97,1.94,1.46,3.3,1.46,1,0,1.86-.31,2.58-.93.72-.62,1.23-1.59,1.55-2.92h0Z"/>
      <path class="cls-1" d="m53.09,39.11v-18.12h7.91c1.99,0,3.43.16,4.33.49.9.32,1.62.9,2.17,1.73.54.84.81,1.79.81,2.86,0,1.36-.41,2.48-1.23,3.37-.82.88-2.05,1.45-3.68,1.67.81.46,1.49.97,2.01,1.52.53.55,1.24,1.53,2.14,2.94l2.27,3.53h-4.49l-2.72-3.95c-.96-1.41-1.62-2.3-1.98-2.66-.36-.37-.73-.61-1.13-.75-.4-.14-1.03-.2-1.9-.2h-.76v7.57h-3.76Zm3.76-10.46h2.78c1.8,0,2.93-.07,3.38-.22.44-.15.8-.41,1.05-.77.25-.36.38-.81.38-1.36,0-.61-.17-1.1-.5-1.48-.33-.38-.8-.61-1.42-.71-.3-.04-1.22-.06-2.74-.06h-2.93v4.59Z"/>
      <path class="cls-1" d="m89.61,39.11h-4.09l-1.62-4.12h-7.44l-1.53,4.12h-3.99l7.25-18.12h3.97l7.45,18.12Zm-6.92-7.17l-2.56-6.73-2.51,6.73h5.07Z"/>
      <path class="cls-1" d="m95.31,39.11v-7.63l-6.81-10.5h4.41l4.38,7.17,4.29-7.17h4.33l-6.84,10.52v7.6h-3.75Z"/>
      <path class="cls-1" d="m120.46,39.11l-6.65-18.12h4.07l4.7,13.41,4.56-13.41h3.98l-6.66,18.12h-4.01Z"/>
      <path class="cls-1" d="m149.11,39.11h-4.09l-1.62-4.12h-7.43l-1.54,4.12h-3.98l7.25-18.12h3.97l7.45,18.12Zm-6.92-7.17l-2.56-6.73-2.51,6.73h5.07Z"/>
      <path class="cls-1" d="m152.52,39.11v-17.98h3.75v14.92h9.34v3.05h-13.09Z"/>
      <path class="cls-1" d="m169.38,39.11v-17.98h3.75v14.92h9.34v3.05h-13.09Z"/>
      <path class="cls-1" d="m186.36,39.11v-18.12h13.79v3.07h-10.03v4.01h9.34v3.05h-9.34v4.93h10.39v3.05h-14.14Z"/>
      <path class="cls-1" d="m209.89,39.11v-7.63l-6.81-10.5h4.41l4.38,7.17,4.28-7.17h4.33l-6.84,10.52v7.6h-3.75Z"/>
      <path class="cls-1" d="m235.86,44.44h-2.45c-1.29-1.9-2.28-3.88-2.96-5.94-.68-2.05-1.02-4.04-1.02-5.96,0-2.38.42-4.63,1.26-6.76.72-1.85,1.64-3.55,2.76-5.11h2.44c-1.16,2.5-1.96,4.62-2.39,6.38-.43,1.75-.65,3.61-.65,5.57,0,1.35.12,2.73.38,4.15.26,1.41.61,2.77,1.06,4.04.29.84.82,2.05,1.56,3.62h0Z"/>
      <path class="cls-1" d="m238.85,39.11v-18.12h6.02c2.28,0,3.77.09,4.47.28,1.07.27,1.96.86,2.68,1.77.72.91,1.08,2.09,1.08,3.53,0,1.11-.21,2.05-.63,2.81-.42.76-.94,1.35-1.58,1.79-.64.43-1.29.71-1.94.86-.9.17-2.2.26-3.9.26h-2.45v6.84h-3.75Zm3.75-15.05v5.14h2.06c1.48,0,2.47-.09,2.97-.28.5-.19.89-.48,1.18-.89.28-.41.42-.88.42-1.41,0-.66-.2-1.2-.6-1.63-.39-.43-.9-.7-1.5-.8-.45-.09-1.35-.12-2.7-.12h-1.82Z"/>
      <path class="cls-1" d="m257.67,39.11v-18.12h5.62l3.37,12.36,3.34-12.36h5.64v18.12h-3.49v-14.26l-3.7,14.26h-3.62l-3.68-14.26v14.26h-3.49Z"/>
      <path class="cls-1" d="m279.01,44.44c.7-1.47,1.2-2.59,1.49-3.38.29-.79.56-1.69.8-2.71.25-1.02.43-1.99.55-2.91.12-.91.18-1.86.18-2.82,0-1.96-.21-3.82-.64-5.57-.43-1.75-1.23-3.88-2.39-6.38h2.43c1.28,1.77,2.27,3.65,2.97,5.64.71,1.98,1.06,4,1.06,6.04,0,1.72-.28,3.57-.84,5.54-.63,2.21-1.68,4.39-3.13,6.54h-2.46Z"/>
      <path class="cls-1" d="m296.47,39.11v-18.12h12.75v3.07h-9v4.28h7.77v3.07h-7.77v7.7h-3.76Z"/>
      <path class="cls-1" d="m325.71,32.45l3.64,1.12c-.56,1.98-1.49,3.45-2.79,4.41-1.3.96-2.94,1.44-4.94,1.44-2.47,0-4.5-.82-6.09-2.46-1.59-1.64-2.39-3.89-2.39-6.74,0-3.02.8-5.36,2.4-7.03,1.6-1.67,3.7-2.5,6.3-2.5,2.27,0,4.12.66,5.54,1.97.85.77,1.48,1.89,1.91,3.34l-3.72.87c-.22-.94-.68-1.68-1.38-2.23-.7-.54-1.55-.81-2.54-.81-1.37,0-2.5.48-3.36,1.45-.86.97-1.29,2.52-1.29,4.69,0,2.29.42,3.92,1.27,4.89.84.97,1.94,1.46,3.29,1.46,1,0,1.86-.31,2.58-.93.72-.62,1.23-1.59,1.55-2.92h0Z"/>
      <path class="cls-1" d="m149.8,339.63h-5.5v-20.73c-2.01,1.89-4.38,3.27-7.1,4.17v-4.99c1.43-.47,2.99-1.36,4.68-2.66,1.68-1.32,2.84-2.84,3.46-4.59h4.46v28.8Z"/>
      <path class="cls-1" d="m158.79,333l5.32-.59c.13,1.08.47,1.88,1.02,2.4.55.52,1.26.78,2.17.78,1.14,0,2.1-.52,2.89-1.56.8-1.04,1.31-3.21,1.53-6.5-1.38,1.61-3.11,2.41-5.18,2.41-2.26,0-4.21-.87-5.84-2.61-1.64-1.74-2.46-4.01-2.46-6.8s.87-5.26,2.6-7.04c1.72-1.78,3.93-2.67,6.6-2.67,2.91,0,5.3,1.13,7.17,3.38,1.86,2.25,2.8,5.95,2.8,11.1s-.97,9.03-2.92,11.35c-1.94,2.32-4.47,3.48-7.59,3.48-2.24,0-4.06-.59-5.44-1.79-1.38-1.2-2.27-2.98-2.66-5.35h0Zm12.45-12.02c0-1.78-.41-3.15-1.22-4.12-.81-.98-1.76-1.47-2.83-1.47-1.01,0-1.86.4-2.53,1.2-.67.8-1.01,2.12-1.01,3.95s.37,3.21,1.1,4.07c.73.87,1.64,1.3,2.74,1.3s1.95-.41,2.67-1.25c.73-.83,1.09-2.06,1.09-3.68h0Z"/>
      <path class="cls-1" d="m195.91,339.63h-5.5v-20.73c-2.01,1.89-4.38,3.27-7.1,4.17v-4.99c1.43-.47,2.99-1.36,4.68-2.66,1.68-1.32,2.84-2.84,3.46-4.59h4.46v28.8Z"/>
      <path class="cls-1" d="m205.02,333l5.32-.59c.13,1.08.47,1.88,1.02,2.4.55.52,1.27.78,2.17.78,1.14,0,2.1-.52,2.89-1.56.8-1.04,1.31-3.21,1.53-6.5-1.38,1.61-3.11,2.41-5.18,2.41-2.26,0-4.21-.87-5.84-2.61-1.64-1.74-2.46-4.01-2.46-6.8s.87-5.26,2.6-7.04c1.72-1.78,3.93-2.67,6.6-2.67,2.91,0,5.3,1.13,7.17,3.38,1.86,2.25,2.8,5.95,2.8,11.1s-.97,9.03-2.92,11.35c-1.95,2.32-4.48,3.48-7.59,3.48-2.24,0-4.06-.59-5.44-1.79-1.38-1.2-2.27-2.98-2.66-5.35h0Zm12.45-12.02c0-1.78-.41-3.15-1.22-4.12-.81-.98-1.76-1.47-2.83-1.47s-1.86.4-2.53,1.2c-.67.8-1.01,2.12-1.01,3.95s.37,3.21,1.09,4.07c.73.87,1.64,1.3,2.74,1.3s1.95-.41,2.67-1.25c.73-.83,1.09-2.06,1.09-3.68h0Z"/>
      <path class="cls-1" d="m67.85,403.79l2.13-18.29,13.56,1.58-.36,3.1-9.87-1.15-.47,4.05,9.18,1.07-.36,3.08-9.18-1.07-.58,4.98,10.21,1.19-.36,3.09-13.91-1.63Z"/>
      <path class="cls-1" d="m84.17,405.45l7.07-9.05-4.95-9.25,4.33.36,3.19,6.2,4.09-5.6,4.29.36-6.45,8.44,5.49,9.96-4.47-.37-3.54-6.68-4.61,6.01-4.45-.37Z"/>
      <path class="cls-1" d="m103.95,406.74l1.1-18.38,5.95.36c2.25.13,3.72.32,4.39.54,1.04.34,1.89.99,2.54,1.96.66.97.94,2.18.85,3.64-.07,1.13-.33,2.07-.79,2.81-.46.75-1.01,1.32-1.67,1.72-.66.4-1.31.65-1.97.75-.9.12-2.19.14-3.87.03l-2.42-.14-.41,6.93-3.71-.22Zm4.62-15.05l-.31,5.21,2.03.12c1.47.09,2.45.06,2.95-.11.5-.16.91-.44,1.21-.84.3-.39.47-.86.5-1.4.04-.67-.12-1.23-.49-1.69-.36-.46-.85-.76-1.44-.9-.44-.11-1.33-.2-2.66-.29l-1.79-.11Z"/>
      <path class="cls-1" d="m122.6,407.71l.75-18.4,13.64.56-.12,3.11-9.93-.4-.17,4.08,9.24.38-.13,3.1-9.23-.38-.2,5.01,10.28.42-.13,3.1-13.99-.57Z"/>
      <path class="cls-1" d="m145.1,408.74l.46-15.29-5.46-.16.09-3.11,14.62.43-.09,3.12-5.45-.17-.46,15.29-3.72-.11Z"/>
      <path class="cls-1" d="m156.49,399.48c0-1.88.28-3.45.84-4.72.42-.93.99-1.78,1.71-2.53.72-.74,1.51-1.29,2.38-1.65,1.15-.49,2.47-.73,3.97-.73,2.72,0,4.88.84,6.51,2.53,1.63,1.68,2.44,4.02,2.44,7.02s-.81,5.3-2.43,6.98c-1.61,1.68-3.77,2.52-6.48,2.52s-4.92-.84-6.53-2.5c-1.62-1.67-2.43-3.97-2.43-6.9h0Zm3.83-.12c0,2.09.49,3.67,1.45,4.74.96,1.08,2.19,1.61,3.67,1.61s2.69-.53,3.65-1.61c.95-1.07,1.42-2.66,1.42-4.8s-.46-3.68-1.38-4.72c-.93-1.04-2.16-1.56-3.69-1.56s-2.77.53-3.71,1.58c-.93,1.05-1.41,2.63-1.41,4.75h0Z"/>
      <path class="cls-1" d="m178.8,408.49l-.19-18.26,3.72-.04.16,15.16,9.24-.1.03,3.11-12.96.14Z"/>
      <path class="cls-1" d="m218.05,407.64l-4.05.15-1.76-4.12-7.36.27-1.36,4.24-3.94.14,6.5-18.66,3.93-.14,8.05,18.13Zm-7.11-7.03l-2.79-6.73-2.23,6.92,5.02-.18Z"/>
      <path class="cls-1" d="m220.74,389.28l3.72-.14.38,9.96c.06,1.58.14,2.61.25,3.07.19.75.59,1.34,1.2,1.77.62.43,1.44.63,2.48.59,1.05-.04,1.84-.29,2.36-.74.52-.45.82-.99.91-1.62.09-.63.1-1.68.04-3.13l-.38-10.18,3.71-.14.37,9.67c.09,2.21.04,3.77-.12,4.69-.17.92-.51,1.7-1.02,2.35-.52.64-1.22,1.17-2.11,1.58-.89.41-2.07.64-3.52.69-1.75.07-3.09-.09-4.02-.46-.92-.38-1.66-.87-2.21-1.5-.55-.62-.92-1.29-1.12-2-.28-1.04-.46-2.59-.54-4.66l-.37-9.81Z"/>
      <path class="cls-1" d="m240.92,407l-1.13-18.38,7.81-.48c1.96-.12,3.4-.04,4.31.23.91.27,1.66.82,2.25,1.62.59.82.91,1.76.98,2.85.09,1.38-.25,2.55-1,3.5-.75.94-1.93,1.59-3.53,1.92.84.42,1.53.89,2.09,1.42.55.53,1.32,1.48,2.29,2.85l2.47,3.45-4.44.27-2.93-3.84c-1.04-1.37-1.75-2.23-2.12-2.58-.38-.35-.76-.58-1.16-.7-.4-.11-1.03-.14-1.88-.09l-.75.05.47,7.67-3.71.23Zm3.06-10.84l2.74-.17c1.78-.11,2.89-.25,3.32-.43.43-.18.76-.46.99-.84.23-.39.33-.85.29-1.4-.04-.62-.23-1.11-.59-1.47-.35-.36-.83-.57-1.44-.64-.3-.02-1.21.01-2.71.1l-2.89.18.28,4.66Z"/>
      <path class="cls-1" d="m259.6,387.78l3.71-.29.79,9.94c.12,1.58.25,2.6.38,3.06.21.74.64,1.31,1.27,1.72.64.41,1.47.57,2.5.49,1.05-.08,1.83-.36,2.33-.83.5-.47.78-1.02.84-1.66.06-.64.03-1.68-.09-3.13l-.8-10.16,3.71-.29.76,9.65c.18,2.2.2,3.76.07,4.69-.13.93-.44,1.72-.93,2.39-.49.67-1.17,1.22-2.04,1.67-.88.44-2.04.72-3.49.83-1.75.14-3.1.04-4.04-.29-.94-.33-1.69-.8-2.27-1.41-.57-.6-.98-1.25-1.2-1.95-.33-1.04-.57-2.57-.73-4.63l-.77-9.79Z"/>
      <path class="cls-1" d="m279.03,398.84l3.55-.75c.35,1.18.89,2.02,1.61,2.51.72.49,1.64.68,2.77.55,1.19-.13,2.06-.48,2.61-1.05.55-.57.79-1.19.71-1.86-.05-.44-.22-.79-.5-1.06-.29-.28-.76-.5-1.42-.65-.45-.1-1.46-.26-3.05-.48-2.04-.27-3.49-.72-4.37-1.35-1.24-.88-1.93-2.05-2.09-3.5-.11-.93.06-1.83.5-2.7.44-.87,1.13-1.57,2.08-2.11.95-.53,2.12-.88,3.53-1.04,2.3-.25,4.08.06,5.36.93,1.27.88,2.03,2.16,2.27,3.84l-3.68.57c-.26-.93-.68-1.57-1.24-1.92-.57-.36-1.37-.47-2.41-.36-1.07.12-1.89.43-2.45.94-.36.32-.52.73-.46,1.2.05.43.27.79.67,1.05.51.34,1.69.62,3.53.85,1.84.23,3.22.52,4.13.88.91.36,1.66.9,2.23,1.64.57.74.93,1.68,1.05,2.84.11,1.05-.07,2.06-.55,3.04-.48.98-1.23,1.75-2.25,2.32-1.02.56-2.32.93-3.91,1.11-2.31.25-4.15-.08-5.51-1.01-1.36-.93-2.27-2.41-2.74-4.43h0Z"/>
    </g>
  </g>
</svg>