<?xml version="1.0" encoding="UTF-8"?>
<svg id="Layer_2" data-name="Layer 2" xmlns="http://www.w3.org/2000/svg" xmlns:xlink="http://www.w3.org/1999/xlink" viewBox="0 0 425.76 426.72">
  <defs>
    <style>
      .cls-1 {
        clip-path: url(#clippath);
      }

      .cls-2 {
        fill: none;
      }

      .cls-2, .cls-3, .cls-4, .cls-5, .cls-6, .cls-7 {
        stroke-width: 0px;
      }

      .cls-3 {
        fill: #0a130c;
      }

      .cls-3, .cls-4, .cls-5, .cls-6, .cls-7 {
        fill-rule: evenodd;
      }

      .cls-4 {
        fill: #52402f;
      }

      .cls-5 {
        fill: #51402f;
      }

      .cls-6 {
        fill: #ffdf00;
      }

      .cls-7 {
        fill: #fff;
      }
    </style>
    <clipPath id="clippath">
      <rect class="cls-2" width="425.76" height="426.72"/>
    </clipPath>
  </defs>
  <g id="Layer_1-2" data-name="Layer 1">
    <g>
      <g class="cls-1">
        <path class="cls-3" d="m212.6.56c117.41,0,212.6,95.18,212.6,212.6,0,85.99-51.8,163.51-131.24,196.42-79.44,32.91-170.89,14.71-231.69-46.09C1.46,302.69-16.72,211.25,16.18,131.81,49.09,52.36,126.61.56,212.6.56h0Z"/>
      </g>
      <path class="cls-6" d="m212.6,16.91c108.39,0,196.25,87.87,196.25,196.25,0,79.38-47.82,150.94-121.15,181.32-73.34,30.38-157.75,13.59-213.88-42.54C17.7,295.81.91,211.4,31.28,138.06,61.66,64.72,133.22,16.91,212.6,16.91h0Z"/>
      <path class="cls-3" d="m212.6,71.02c78.5,0,142.14,63.64,142.14,142.14,0,57.49-34.63,109.32-87.75,131.32-53.12,22-114.26,9.84-154.91-30.81-40.65-40.65-52.81-101.79-30.81-154.91,22-53.12,73.83-87.75,131.32-87.75h0Z"/>
      <path class="cls-7" d="m212.6,78.94c74.13,0,134.22,60.09,134.22,134.22,0,54.29-32.7,103.23-82.86,124-50.15,20.77-107.88,9.29-146.27-29.09-38.39-38.39-49.87-96.12-29.1-146.27,20.78-50.16,69.72-82.86,124-82.86h0Z"/>
      <path class="cls-3" d="m48.96,214.39l1.63-6.73c3.75.76,6.59,2.24,8.55,4.47,1.95,2.22,3.05,5.14,3.3,8.76.31,4.47-.96,8.25-3.81,11.35-2.86,3.09-6.94,4.83-12.23,5.2-5.61.39-10.06-.75-13.37-3.43-3.3-2.68-5.12-6.37-5.45-11.09-.28-4.12.7-7.55,2.95-10.3,1.33-1.64,3.32-2.93,5.96-3.88l2.08,6.62c-1.72.52-3.04,1.44-3.96,2.79-.93,1.33-1.32,2.91-1.19,4.71.17,2.5,1.21,4.46,3.11,5.89,1.9,1.43,4.85,2,8.87,1.72,4.26-.3,7.24-1.27,8.94-2.93,1.7-1.66,2.47-3.71,2.29-6.16-.12-1.81-.8-3.32-2.05-4.55-1.23-1.22-3.11-2.03-5.62-2.43h0Z"/>
      <path class="cls-3" d="m61.36,200.81l-33.26-5.87,2.49-14.14c.63-3.55,1.38-6.08,2.26-7.59.88-1.5,2.17-2.61,3.86-3.31,1.7-.7,3.53-.87,5.5-.52,2.49.44,4.43,1.54,5.8,3.29,1.36,1.75,2,4.13,1.91,7.12,1.11-1.3,2.25-2.34,3.43-3.1,1.18-.77,3.2-1.72,6.07-2.87l7.21-2.92-1.42,8.03-8.09,3.58c-2.89,1.27-4.73,2.16-5.51,2.68-.79.52-1.36,1.11-1.74,1.78-.38.67-.7,1.77-.97,3.32l-.24,1.35,13.88,2.45-1.18,6.72Zm-18.01-10.1l.88-4.96c.57-3.22.79-5.26.66-6.11-.13-.85-.49-1.56-1.08-2.13-.59-.57-1.38-.95-2.38-1.12-1.12-.2-2.07-.05-2.87.42-.79.47-1.37,1.24-1.75,2.3-.16.53-.49,2.16-.97,4.88l-.92,5.23,8.43,1.49Z"/>
      <path class="cls-3" d="m79.75,139.18l-2.81,6.87-8.22-.18-5.11,12.5,6.05,5.48-2.74,6.7-26.27-24.96,2.73-6.67,36.38.27Zm-17.12,6.56l-13.36-.44,9.87,8.96,3.49-8.53Z"/>
      <path class="cls-3" d="m84.8,132.52l-11.85-7.85-23.13-.48,4.42-6.67,15.53.75-6.84-13.87,4.34-6.55,9.49,21.17,11.81,7.82-3.76,5.67Z"/>
      <path class="cls-3" d="m110.06,101.43l-27.08-21.72,5.51-4.28,18.25,15.2-9.35-22.11,6.4-4.97,19.15,15-10.38-21.8,5.42-4.21,14.24,31.7-5.72,4.44-20.8-15.82,10.19,24.05-5.84,4.53Z"/>
      <path class="cls-3" d="m168.17,67.92l-6.82,2.93-5.74-5.89-12.4,5.33.47,8.15-6.65,2.85-1.23-36.22,6.63-2.84,25.75,25.69Zm-16.81-7.32l-9.22-9.68.75,13.31,8.47-3.64Z"/>
      <path class="cls-3" d="m171.9,67.07l-5.99-33.23,6.53-1.18,17.6,19.74-4-22.2,6.23-1.12,5.99,33.23-6.74,1.22-17.3-19.26,3.91,21.67-6.24,1.12Z"/>
      <path class="cls-3" d="m207.04,28.08l12.45.51c2.8.11,4.93.42,6.39.91,1.95.66,3.61,1.77,4.95,3.32,1.36,1.54,2.36,3.41,3.01,5.59.64,2.19.9,4.86.77,8.03-.11,2.77-.56,5.16-1.33,7.14-.94,2.41-2.22,4.35-3.86,5.8-1.23,1.1-2.86,1.94-4.89,2.5-1.52.42-3.54.57-6.06.47l-12.82-.52,1.38-33.74Zm6.57,5.99l-.91,22.34,5.08.21c1.9.08,3.28.03,4.14-.15,1.11-.23,2.05-.66,2.81-1.28.76-.63,1.39-1.7,1.91-3.19.52-1.49.84-3.55.95-6.16.1-2.61-.05-4.61-.45-6.03-.41-1.42-1.01-2.54-1.8-3.35-.8-.82-1.83-1.39-3.09-1.72-.94-.26-2.8-.44-5.58-.55l-3.06-.12Z"/>
      <path class="cls-3" d="m239.83,64.32l8.74-32.62,24.18,6.48-1.48,5.52-17.6-4.72-1.94,7.23,16.37,4.39-1.47,5.49-16.37-4.39-2.38,8.88,18.22,4.88-1.47,5.5-24.8-6.65Z"/>
      <path class="cls-3" d="m270.18,72.63l15.88-29.8,12.67,6.75c3.18,1.7,5.35,3.2,6.51,4.5,1.16,1.3,1.81,2.87,1.95,4.7.13,1.84-.27,3.62-1.21,5.39-1.19,2.23-2.83,3.74-4.92,4.5-2.08.75-4.55.63-7.36-.39.9,1.46,1.53,2.86,1.89,4.22.36,1.36.64,3.58.84,6.66l.55,7.75-7.2-3.83-.89-8.81c-.31-3.14-.59-5.16-.84-6.07s-.63-1.64-1.15-2.21c-.52-.56-1.47-1.21-2.86-1.95l-1.21-.64-6.63,12.44-6.02-3.21Zm15.19-13.99l4.45,2.37c2.89,1.54,4.75,2.38,5.61,2.52.84.14,1.63.01,2.36-.37.72-.38,1.33-1.01,1.8-1.91.54-1.01.69-1.96.49-2.86-.21-.9-.75-1.7-1.64-2.38-.45-.32-1.9-1.14-4.34-2.44l-4.69-2.5-4.03,7.55Z"/>
      <path class="cls-3" d="m299.81,89.57l21.65-25.92,19.21,16.05-3.66,4.39-13.98-11.68-4.8,5.74,13.01,10.87-3.64,4.36-13.01-10.87-5.89,7.05,14.47,12.09-3.65,4.37-19.71-16.46Z"/>
      <path class="cls-3" d="m323.94,110.06l26.75-20.61,8.76,11.37c2.2,2.85,3.56,5.12,4.08,6.78.52,1.67.47,3.36-.16,5.09-.63,1.73-1.73,3.19-3.32,4.41-2.01,1.55-4.12,2.24-6.34,2.07-2.21-.17-4.4-1.3-6.55-3.39.22,1.7.21,3.24-.02,4.63-.23,1.39-.89,3.52-1.97,6.41l-2.7,7.29-4.98-6.46,2.81-8.4c1.01-2.99,1.59-4.95,1.73-5.88.15-.92.1-1.75-.14-2.48-.24-.73-.84-1.7-1.8-2.95l-.84-1.09-11.16,8.6-4.17-5.41Zm19.6-6.49l3.08,3.99c2,2.59,3.35,4.12,4.07,4.61.71.47,1.48.69,2.3.64.81-.05,1.62-.38,2.43-1,.9-.7,1.44-1.5,1.62-2.4.18-.91,0-1.86-.52-2.85-.28-.48-1.26-1.82-2.95-4.01l-3.25-4.21-6.78,5.23Z"/>
      <path class="cls-3" d="m352.92,131.9l3.56,5.64c-1.82,1.35-2.92,2.81-3.3,4.38-.38,1.55-.11,3.26.82,5.11.98,1.96,2.14,3.23,3.48,3.8,1.33.58,2.55.59,3.66.04.72-.36,1.21-.88,1.5-1.55.3-.67.36-1.62.2-2.85-.1-.84-.49-2.68-1.12-5.54-.84-3.67-.99-6.47-.46-8.37.73-2.69,2.28-4.63,4.67-5.83,1.54-.77,3.19-1.05,4.97-.86,1.77.2,3.43.95,4.95,2.23,1.52,1.29,2.86,3.09,4.03,5.41,1.91,3.79,2.51,7.05,1.81,9.8-.71,2.75-2.41,4.87-5.14,6.36l-3.33-5.96c1.43-1.04,2.26-2.16,2.5-3.35.25-1.2-.06-2.66-.92-4.37-.89-1.77-1.95-2.98-3.18-3.61-.79-.42-1.57-.42-2.35-.03-.72.36-1.18.97-1.38,1.83-.26,1.09,0,3.3.8,6.61.79,3.32,1.16,5.88,1.13,7.67-.04,1.8-.5,3.42-1.39,4.88-.9,1.45-2.3,2.66-4.2,3.61-1.73.87-3.59,1.21-5.58,1-2-.2-3.8-1-5.41-2.39-1.62-1.38-3.09-3.39-4.4-6.02-1.91-3.81-2.51-7.18-1.77-10.12.74-2.93,2.69-5.44,5.87-7.53h0Z"/>
      <path class="cls-3" d="m360.35,179.3l33.43-4.81,3.3,22.92-5.66.81-2.33-16.16-7.91,1.14,2.01,13.95-5.66.81-2.01-13.95-14.2,2.05-.97-6.75Z"/>
      <path class="cls-3" d="m375.29,230.23l-2.45,6.48c-3.62-1.22-6.27-3.05-7.92-5.5-1.65-2.45-2.38-5.49-2.18-9.11.25-4.48,1.98-8.07,5.2-10.79,3.22-2.71,7.49-3.92,12.78-3.63,5.61.31,9.89,2.01,12.84,5.08,2.94,3.07,4.28,6.96,4.02,11.69-.23,4.12-1.63,7.41-4.21,9.84-1.52,1.46-3.66,2.49-6.4,3.11l-1.23-6.83c1.77-.3,3.2-1.05,4.28-2.27,1.08-1.21,1.67-2.72,1.77-4.52.14-2.5-.64-4.58-2.36-6.24-1.7-1.65-4.57-2.59-8.59-2.82-4.26-.23-7.34.36-9.23,1.8-1.9,1.43-2.91,3.37-3.05,5.82-.1,1.82.39,3.4,1.47,4.77,1.08,1.37,2.84,2.4,5.27,3.11h0Z"/>
      <path class="cls-3" d="m77.25,340.05l21.46-23.41,16.97,15.55-2.53,2.76-13.64-12.5-6.65,7.25,11.8,10.82-2.54,2.76-11.8-10.82-9.75,10.63-3.33-3.05Z"/>
      <path class="cls-3" d="m103.87,348.83c2.37-3.57,5.2-5.51,8.48-5.81,2.73-.24,5.37.48,7.94,2.19,2.85,1.89,4.61,4.31,5.25,7.26.66,2.94-.04,5.94-2.07,9-1.66,2.49-3.36,4.18-5.1,5.06-1.75.89-3.65,1.22-5.69,1-2.06-.23-3.98-.95-5.79-2.15-2.9-1.93-4.67-4.34-5.3-7.27-.64-2.92.12-6.01,2.29-9.27h0Zm3.61,2.4c-1.64,2.47-2.29,4.71-1.95,6.7.34,2,1.39,3.59,3.14,4.75,1.75,1.16,3.61,1.51,5.59,1.04,1.97-.47,3.8-1.97,5.49-4.5,1.59-2.39,2.21-4.59,1.86-6.59-.35-2-1.39-3.58-3.12-4.73-1.75-1.16-3.62-1.52-5.59-1.07-1.97.45-3.78,1.91-5.42,4.38h0Z"/>
      <path class="cls-3" d="m136.17,381.12l1.46-3.1c-2.9,1.55-5.85,1.61-8.88.18-1.33-.63-2.48-1.46-3.41-2.48-.93-1.02-1.51-2.03-1.73-3.01-.23-1-.2-2.06.06-3.21.18-.78.62-1.93,1.34-3.45l6.16-13.07,3.84,1.81-5.51,11.69c-.88,1.87-1.39,3.16-1.55,3.89-.19,1.06-.03,2.03.49,2.94.54.91,1.38,1.63,2.53,2.17,1.15.54,2.35.78,3.62.71,1.27-.07,2.34-.49,3.2-1.24.87-.75,1.73-2.03,2.58-3.82l5.32-11.3,3.84,1.81-9.94,21.09-3.43-1.62Z"/>
      <path class="cls-3" d="m146.2,384.95l7-22.09,3.62,1.15-1,3.14c2.52-1.88,5.42-2.29,8.71-1.25,1.43.46,2.67,1.11,3.71,1.97,1.05.86,1.75,1.77,2.09,2.74.36.96.48,2.02.38,3.16-.08.74-.39,1.98-.93,3.71l-4.31,13.58-4.03-1.28,4.26-13.44c.48-1.52.69-2.71.62-3.57-.07-.85-.44-1.63-1.09-2.33-.66-.71-1.52-1.23-2.59-1.57-1.71-.54-3.35-.5-4.92.11-1.57.62-2.79,2.34-3.69,5.18l-3.83,12.06-4.02-1.27Z"/>
      <path class="cls-3" d="m188.14,395.29l.45-2.89c-1.91,2.03-4.37,2.81-7.39,2.34-1.96-.3-3.68-1.08-5.16-2.34-1.49-1.25-2.54-2.86-3.17-4.8-.62-1.94-.75-4.07-.38-6.42.35-2.27,1.09-4.28,2.18-6.02,1.11-1.73,2.55-2.96,4.34-3.7,1.79-.74,3.69-.95,5.71-.64,1.47.23,2.75.73,3.81,1.48,1.07.76,1.89,1.66,2.47,2.71l1.75-11.32,4.14.64-4.9,31.54-3.86-.6Zm-11.38-13.45c-.45,2.93-.13,5.22.97,6.88,1.1,1.65,2.55,2.62,4.36,2.9,1.82.28,3.47-.18,4.95-1.36,1.48-1.18,2.45-3.2,2.89-6.04.48-3.13.19-5.52-.87-7.18-1.07-1.67-2.55-2.64-4.45-2.94-1.84-.29-3.5.18-4.96,1.39-1.46,1.21-2.42,3.33-2.89,6.36h0Z"/>
      <path class="cls-3" d="m216.07,389.52l4.31.65c-.77,2.33-2.09,4.11-3.98,5.35-1.89,1.23-4.27,1.8-7.14,1.7-3.61-.12-6.44-1.26-8.48-3.4-2.05-2.14-3-5.09-2.87-8.82.13-3.87,1.31-6.84,3.52-8.9,2.22-2.06,5.03-3.04,8.44-2.92,3.3.11,5.97,1.26,7.98,3.42,2.02,2.16,2.97,5.15,2.84,8.94,0,.23-.03.58-.06,1.04l-18.41-.64c.06,2.53.77,4.5,2.1,5.88,1.33,1.4,3.02,2.13,5.09,2.2,1.53.05,2.85-.28,3.97-.99,1.11-.71,2.01-1.88,2.71-3.5h0Zm-13.52-6.78l13.79.48c-.11-1.93-.59-3.41-1.43-4.4-1.28-1.55-2.98-2.36-5.1-2.44-1.92-.07-3.56.48-4.91,1.63-1.35,1.15-2.13,2.73-2.34,4.73h0Z"/>
      <path class="cls-3" d="m241.85,394.9l-.32-2.93c-1.32,2.47-3.52,3.87-6.58,4.2-1.98.21-3.86-.09-5.63-.93-1.77-.83-3.22-2.11-4.34-3.84-1.11-1.73-1.79-3.77-2.05-6.14-.25-2.31-.06-4.45.56-6.43.62-1.97,1.71-3.55,3.25-4.73,1.55-1.18,3.35-1.89,5.4-2.11,1.5-.16,2.86-.01,4.09.45,1.24.46,2.27,1.12,3.11,1.99l-1.25-11.47,4.19-.45,3.47,31.97-3.91.43Zm-14.58-10.11c.32,2.97,1.24,5.12,2.74,6.44,1.5,1.32,3.16,1.89,5,1.69,1.84-.2,3.33-1.08,4.46-2.62,1.13-1.54,1.55-3.75,1.23-6.64-.34-3.17-1.25-5.42-2.72-6.76-1.47-1.35-3.17-1.91-5.09-1.7-1.87.2-3.36,1.09-4.46,2.64-1.1,1.56-1.49,3.88-1.16,6.94h0Z"/>
      <path class="cls-3" d="m279.89,384.78l-3.96,1.36-8.09-23.49c-.66,1.18-1.62,2.45-2.88,3.83-1.26,1.38-2.43,2.5-3.52,3.34l-1.22-3.56c1.88-1.73,3.41-3.57,4.6-5.52,1.18-1.95,1.89-3.69,2.14-5.23l2.55-.87,10.38,30.15Z"/>
      <path class="cls-3" d="m288.12,362.74c-1.86.3-3.43.16-4.72-.43-1.28-.59-2.3-1.57-3.03-2.96-1.11-2.09-1.24-4.27-.39-6.56.86-2.28,2.62-4.14,5.3-5.57,2.7-1.43,5.25-1.86,7.67-1.28,2.41.59,4.18,1.92,5.29,4.02.71,1.33.95,2.68.73,4.07-.23,1.39-.96,2.75-2.21,4.1,2.19-.43,4.13-.28,5.81.48,1.66.75,2.97,2.02,3.92,3.79,1.31,2.46,1.47,5.02.5,7.68-.98,2.66-2.99,4.81-6.04,6.43-3.04,1.62-5.94,2.09-8.7,1.41-2.76-.68-4.81-2.28-6.15-4.79-1-1.87-1.32-3.7-.97-5.51.34-1.8,1.34-3.43,2.98-4.89h0Zm-3.94-5.57c.72,1.36,1.79,2.22,3.18,2.58,1.4.36,2.86.14,4.36-.65,1.46-.78,2.43-1.84,2.91-3.2.48-1.36.38-2.65-.28-3.89-.69-1.3-1.74-2.13-3.17-2.5-1.43-.37-2.86-.18-4.3.59-1.45.77-2.41,1.84-2.91,3.21-.5,1.37-.42,2.66.22,3.86h0Zm5.84,13.91c.54,1,1.31,1.84,2.32,2.51,1.01.67,2.16.99,3.45.97,1.29-.02,2.51-.34,3.67-.96,1.81-.96,3.02-2.3,3.61-4.02.6-1.71.46-3.4-.43-5.07-.9-1.7-2.25-2.78-4.06-3.25-1.8-.46-3.62-.21-5.45.77-1.78.95-2.96,2.28-3.55,4-.58,1.73-.44,3.41.43,5.05h0Z"/>
      <path class="cls-3" d="m318.09,335.72l-3.2,2.79c-1.23-1.03-2.34-1.62-3.31-1.76-1.6-.22-3.07.18-4.42,1.19-1.09.81-1.82,1.81-2.22,3-.53,1.53-.58,3.24-.16,5.11.43,1.86,1.59,4.11,3.49,6.73-.04-1.79.31-3.41,1.08-4.87.76-1.45,1.8-2.67,3.1-3.65,2.27-1.71,4.78-2.38,7.54-2,2.76.37,5.05,1.79,6.89,4.27,1.21,1.64,1.95,3.43,2.24,5.4.29,1.96.05,3.81-.71,5.54-.76,1.73-1.97,3.22-3.64,4.47-2.84,2.13-5.88,2.9-9.12,2.27-3.24-.61-6.52-3.16-9.85-7.65-3.72-5.02-5.43-9.41-5.14-13.18.25-3.28,1.84-6.02,4.77-8.22,2.17-1.64,4.39-2.4,6.64-2.3,2.24.1,4.25,1.06,6.02,2.87h0Zm-5.61,21.64c.82,1.1,1.85,1.97,3.09,2.6,1.24.63,2.5.87,3.79.73,1.29-.14,2.43-.59,3.41-1.32,1.44-1.08,2.27-2.55,2.5-4.41.23-1.87-.35-3.73-1.73-5.59-1.33-1.8-2.89-2.83-4.68-3.1-1.79-.27-3.45.18-5,1.34-1.54,1.16-2.46,2.65-2.77,4.49-.31,1.84.16,3.6,1.4,5.27h0Z"/>
      <path class="cls-3" d="m325.18,341.24c-2.69-2.72-4.55-5.21-5.59-7.46-1.04-2.25-1.41-4.42-1.12-6.49.3-2.07,1.34-4,3.14-5.77,1.33-1.31,2.74-2.21,4.23-2.7,1.49-.5,3.02-.59,4.6-.3,1.58.29,3.21.93,4.91,1.91,1.7.98,3.68,2.6,5.93,4.88,2.67,2.7,4.52,5.17,5.57,7.42,1.04,2.25,1.42,4.41,1.12,6.49-.29,2.08-1.34,4.01-3.15,5.8-2.38,2.36-5.03,3.41-7.96,3.16-3.52-.3-7.42-2.62-11.69-6.93h0Zm3.12-3.08c3.73,3.78,6.69,5.82,8.88,6.13,2.18.31,3.97-.21,5.36-1.59,1.4-1.38,1.94-3.17,1.65-5.36-.29-2.19-2.29-5.18-6.02-8.94-3.74-3.79-6.71-5.83-8.89-6.13-2.18-.31-3.98.23-5.39,1.63-1.4,1.38-1.96,3.03-1.71,4.95.34,2.43,2.38,5.54,6.11,9.31h0Z"/>
      <path class="cls-5" d="m212.66,331.42c-12.64-4.96-26.98-13.25-34.77-24.68-9.95-14.61-12.08-34.55-12.08-51.77v-39.35h95.87v40.58c0,17.67-1.93,36-12.67,50.68-4.79,6.55-11.14,11.98-18,16.28-5.39,3.39-11.52,6.36-17.61,8.29l-.38.12-.37-.14Z"/>
      <path class="cls-6" d="m166.93,216.73h93.64v1.34h-93.64v-1.34Zm93.64,2.12v1.14h-93.64v-1.14h93.64Zm0,1.92v1.23h-93.64v-1.23h93.64Zm0,2.02v1.32h-7.8v-.07h-78.04v.07h-7.8v-1.32h93.64Zm0,2.11v1.32h-7.8v-1.32h7.8Zm-85.84,1.32h-7.8v-1.32h7.8v1.32Zm85.84.79v1.32h-7.8v-1.32h7.8Zm-85.84,1.32h-7.8v-1.32h7.8v1.32Zm85.84.79v1.32h-7.8v-1.32h7.8Zm-85.84,1.32h-7.8v-1.32h7.8v1.32Zm85.84.79v1.32h-7.8v-1.32h7.8Zm-85.84,1.32h-7.8v-1.32h7.8v1.32Zm85.84.79v1.32h-7.8v-1.32h7.8Zm-85.84,1.32h-7.8v-1.32h7.8v1.32Zm85.84.79v1.32h-7.8v-1.32h7.8Zm-85.84,1.32h-7.8v-1.32h7.8v1.32Zm85.84.79v1.32h-7.8v-1.32h7.8Zm-85.84,1.32h-7.8v-1.32h7.8v1.32Zm85.84.79v1.32h-7.8v-1.32h7.8Zm-85.84,1.32h-7.8v-1.32h7.8v1.32Zm85.84.79v1.32h-7.8v-1.32h7.8Zm-85.84,1.32h-7.8v-1.32h7.8v1.32Zm85.84.79v1.5h-7.8v-1.5h7.8Zm-85.84,1.5h-7.8v-1.5h7.8v1.5Zm85.84.79v1.41h-7.8v-1.41h7.8Zm-85.84,1.41h-7.8v-1.41h7.8v1.41Zm85.84.79v1.68h-7.8v-1.68h7.8Zm-85.84,1.68h-7.8v-1.68h7.8v1.68Zm85.84.79v1.32h-7.8v-1.32h7.8Zm-85.84,1.32h-7.8v-1.32h7.8v1.32Zm85.84.79v1.68h-7.8v-1.68h7.8Zm-85.84,1.68h-7.8v-1.68h7.8v1.68Zm85.84.79v1.41h-7.8v-.58s0-.82,0-.82h7.8Zm-85.83,1.41h-7.8c0-.47,0-.94,0-1.41h7.8c0,.47,0,.94,0,1.41h0Zm85.83.79c0,.59-.01,1.19-.02,1.77h-7.8c0-.59.01-1.18.02-1.77h7.8Zm-85.8,1.77h-7.79c-.01-.59-.02-1.18-.03-1.77h7.8c0,.59.01,1.18.02,1.77h0Zm85.76.79c-.01.5-.02,1-.04,1.5h-7.79c.02-.5.02-1,.03-1.5h7.8Zm-85.71,1.5h-7.77c-.02-.5-.03-1-.05-1.5h7.78c.01.5.02,1,.04,1.5h0Zm85.65.79c-.02.44-.03.88-.05,1.32h-7.79c.02-.44.03-.88.05-1.32h7.79Zm-85.58,1.32h-7.75c-.02-.44-.04-.88-.06-1.32h7.76c.01.44.03.88.05,1.32h0Zm85.5.79c-.03.56-.05,1.12-.09,1.68h-7.78c.03-.56.06-1.12.08-1.68h7.79Zm-85.38,1.68h-7.73c-.03-.56-.07-1.12-.1-1.68h7.75c.03.56.06,1.12.09,1.68h0Zm85.25.79c-.04.57-.07,1.12-.11,1.68h-7.77c.04-.56.08-1.12.11-1.68h7.78Zm-85.08,1.68h-7.71c-.05-.56-.09-1.12-.13-1.68h7.72c.04.56.07,1.12.12,1.68h0Zm84.91.79c-.05.57-.09,1.12-.14,1.68h-7.77c.05-.56.1-1.12.14-1.68h7.77Zm-84.69,1.68h-7.7c-.06-.56-.11-1.12-.16-1.68h7.71c.05.56.1,1.12.15,1.68h0Zm84.47.79c-.05.54-.11,1.07-.17,1.59h-7.78c.06-.53.12-1.06.18-1.59h7.77Zm-84.21,1.59h-7.7c-.06-.53-.12-1.06-.18-1.59h7.7c.05.54.12,1.06.18,1.59h0Zm83.95.79c-.06.54-.13,1.07-.2,1.59h-7.79c.08-.53.15-1.06.21-1.59h7.78Zm-83.63,1.59h-7.71c-.07-.53-.14-1.06-.21-1.59h7.7c.07.53.15,1.06.22,1.59h0Zm83.31.79c-.06.44-.13.88-.2,1.32h-7.81c.08-.44.15-.88.21-1.32h7.79Zm-82.97,1.32h-7.74c-.07-.43-.14-.88-.2-1.32h7.72c.07.44.14.88.22,1.32h0Zm82.65.79c-.07.44-.15.88-.23,1.32h-7.83c.08-.44.16-.88.24-1.32h7.82Zm-82.22,1.5h-7.77c-.09-.5-.18-1-.27-1.5h7.75c.09.5.19,1,.29,1.5h0Zm81.84.6c-.1.5-.19,1-.3,1.5h-7.87c.11-.5.22-1,.32-1.5h7.84Zm-81.29,1.86h-7.84c-.12-.55-.23-1.12-.34-1.68h7.79c.12.56.25,1.12.38,1.68h0Zm80.82.42c-.1.47-.21.95-.32,1.41h-7.92c.12-.47.24-.94.36-1.41h7.88Zm-8.45,2.2h7.94c-.13.54-.27,1.07-.42,1.59h-7.99c.16-.53.32-1.06.47-1.59h0Zm-70.97,2.32h-8.05c-.14-.49-.27-.99-.39-1.5h7.97c.15.5.3,1,.47,1.5h0Zm-.7-2.29h-7.94c-.15-.61-.29-1.24-.43-1.87h7.86c.16.63.33,1.25.5,1.87h0Zm78.98,2.34c-.14.5-.29,1.01-.45,1.5h-8.08c.18-.5.35-1,.51-1.5h8.02Zm-77.58,1.96h-8.17c-.12-.41-.24-.82-.36-1.23h8.09c.14.41.28.82.44,1.23h0Zm76.88.33c-.19.6-.4,1.19-.6,1.77h-8.2c.24-.59.47-1.18.7-1.77h8.11Zm-75.95,2.05h-8.34c-.18-.52-.35-1.05-.52-1.59h8.22c.21.54.42,1.07.64,1.59h0Zm75.06.51c-.2.54-.41,1.07-.62,1.59h-8.35c.25-.53.49-1.06.72-1.59h8.25Zm-73.83,2.23h-8.59c-.25-.64-.49-1.29-.72-1.96h8.41c.28.66.59,1.31.9,1.96h0Zm72.89.15c-.25.6-.51,1.19-.78,1.77h-8.56c.32-.59.63-1.18.93-1.77h8.41Zm-71.56,2.41h-8.85c-.26-.59-.5-1.18-.75-1.78h8.66c.3.6.61,1.19.93,1.78h0Zm70.41.15c-.3.63-.61,1.25-.94,1.86h-8.83c.39-.61.78-1.23,1.14-1.86h8.63Zm-68.85,2.5h-9.17c-.31-.61-.6-1.23-.89-1.86h8.94c.36.62.73,1.25,1.12,1.86h0Zm67.49.15c-.34.63-.7,1.25-1.07,1.87h-9.21c.46-.61.91-1.23,1.34-1.87h8.93Zm-66.02,2.05h-9.48c-.26-.47-.51-.93-.76-1.41h9.27c.19.29.39.59.59.88.12.18.25.35.38.53h0Zm64.48.6c-.37.6-.75,1.19-1.15,1.77h-9.69c.53-.59,1.04-1.18,1.51-1.77h9.34Zm-11.57,2.56h9.88c-.19.27-.38.54-.58.8-.31.42-.62.84-.94,1.24h-10.4c.72-.68,1.4-1.36,2.04-2.05h0Zm-2.89,2.83h10.62c-.52.64-1.04,1.26-1.59,1.87h-11.18c.74-.62,1.46-1.24,2.15-1.87h0Zm-42.17,2.32h-11.45c-.54-.61-1.07-1.23-1.58-1.86h10.94c.68.64,1.37,1.26,2.09,1.86h0Zm-2.91-2.65h-10.74c-.45-.59-.88-1.19-1.3-1.8l-.1-.16h10.25c.61.66,1.24,1.32,1.89,1.96h0Zm-2.6-2.75h-10.07c-.45-.7-.89-1.41-1.31-2.14h9.63c.55.73,1.14,1.44,1.75,2.14h0Zm56,5.73c-.59.64-1.19,1.26-1.8,1.87h-12.07c.83-.61,1.64-1.23,2.43-1.87h11.43Zm-47.77,1.87h-12.08c-.46-.46-.92-.93-1.37-1.41h11.67c.59.48,1.18.95,1.78,1.41h0Zm45.17.79c-.64.61-1.28,1.2-1.94,1.77h-13.02c.89-.58,1.76-1.17,2.61-1.77h12.35Zm-41.58,1.77h-12.9c-.66-.57-1.32-1.17-1.96-1.77h12.32c.84.61,1.68,1.2,2.53,1.77h0Zm38.73.79c-.75.64-1.52,1.26-2.29,1.86h-14.12c1.04-.6,2.07-1.22,3.09-1.86h13.33Zm-34.49,1.86h-13.89c-.79-.6-1.57-1.22-2.33-1.86h13.18c1.01.65,2.03,1.27,3.04,1.86h0Zm31.16.79c-.96.71-1.92,1.39-2.88,2.05h-15.54c1.32-.65,2.64-1.33,3.94-2.05h14.49Zm-25.79,2.05h-15.27c-.98-.65-1.97-1.34-2.94-2.05h14.23c1.35.74,2.68,1.42,3.98,2.05h0Zm21.72.79c-1.22.79-2.44,1.53-3.65,2.23h-28.44c-1.22-.7-2.45-1.44-3.69-2.23h15.76c.7.31,1.39.6,2.06.88.66-.29,1.31-.58,1.96-.88h16Zm-5.05,3.01c-1.03.56-2.05,1.09-3.05,1.59h-19.58c-.98-.5-1.99-1.03-3.01-1.59h25.64Zm-4.68,2.38c-1.5.7-2.94,1.32-4.31,1.86h-8c-1.25-.55-2.62-1.17-4.05-1.86h16.36Zm-6.39,2.65c-.77.28-1.51.53-2.22.75-.57-.23-1.2-.48-1.86-.75h4.08Z"/>
      <path class="cls-7" d="m213.43,321.25c9.55-4.21,20.56-11.21,26.96-19.38,6.12-7.8,8.96-17.35,10.25-27.16-1.67-.78-3.55-1.34-5.05-1.39-2.5-.08-4.93.56-7.32,1.2-2.64.71-5.23,1.38-7.99,1.3-2.5-.07-5.15-.52-7.53-1.3-1.75-.57-3.44-1.31-5.19-1.88-1.31-.43-2.61-.71-3.98-.72-1.8-.01-3.35.4-5.02,1.05-4.2,1.65-8.68,3.32-13.24,3.36-4.21.04-6.98-1.28-10.68-3.02-1.84-.86-3.7-1.72-5.72-2.07-.76-.13-1.58-.14-2.41-.07,1.06,10.56,3.67,20.69,9.95,29.91,6.17,8.77,17.14,16.09,26.98,20.17h0Zm37.9-53.72c.14-2.23.23-4.45.27-6.65-1.85-.43-3.73-.6-5.7-.44-2.48.21-4.88.94-7.28,1.54-2.63.66-5.19,1.12-7.91,1.03-2.22-.07-4.3-.63-6.39-1.34-3.36-1.15-6.57-2.64-10.21-2.57-3.15.06-5.46,1.1-8.28,2.34-3.44,1.52-6.41,2.49-10.23,2.44-.7-.01-1.41-.08-2.1-.2-3.36-.56-6.27-2.23-9.44-3.34-2.84-1-5.39-1.31-8.18-.91.03,1.78.08,3.56.16,5.32,1.32-.1,2.65-.07,3.95.14,2.67.46,4.78,1.64,7.19,2.77,2.76,1.29,5.34,2.25,8.44,2.22,1.96-.01,3.8-.32,5.66-.94,1.68-.56,3.28-1.33,4.93-1.98,2.44-.95,4.78-1.51,7.41-1.5,2.05.02,3.99.41,5.94,1.04,3.63,1.18,6.61,2.77,10.54,2.88.88.02,1.76-.05,2.63-.19,4.57-.73,8.56-2.93,13.35-2.78,1.86.06,3.6.48,5.26,1.11h0Zm.32-13.21v-29.17h-75.8v27.81c3.4-.34,6.57.17,10.07,1.4,2.79.98,5.74,2.58,8.64,3.07,2.83.47,6.12-.75,8.67-1.88,3.67-1.62,6.67-2.81,10.76-2.88,2.87-.05,5.56.51,8.27,1.42,2.01.68,3.98,1.55,6.04,2.09.86.22,1.75.38,2.64.41,2.09.07,4.1-.33,6.11-.84,2.76-.7,5.45-1.47,8.31-1.71,2.15-.18,4.24-.07,6.29.29h0Z"/>
      <path class="cls-6" d="m175.84,254.08c.41-.04.81-.07,1.22-.09v4.2c-.4.03-.79.07-1.2.12-.01-1.11-.02-2.23-.02-3.34v-.89Zm75.78,5.66c.02-1.19.02-2.38.02-3.55v-.74c-.36-.07-.72-.12-1.08-.18v4.26c.35.06.7.13,1.06.21h0Zm-73.78-5.77c.44,0,.88.02,1.31.04v4.16c-.43-.03-.87-.04-1.31-.03v-4.18Zm2.09.11c.41.04.81.1,1.22.17v4.17c-.41-.07-.81-.13-1.22-.18v-4.16Zm2.01.32c.31.06.62.13.95.21v4.2c-.32-.09-.63-.17-.95-.24v-4.18Zm1.73.42c.37.1.75.22,1.12.34v4.27c-.12-.05-.25-.09-.38-.14-.25-.09-.5-.17-.75-.25v-4.22Zm1.91.61c.37.13.75.27,1.12.42v4.34c-.38-.16-.75-.31-1.12-.46v-4.3Zm1.91.74c.31.13.63.26.95.39v4.36c-.32-.13-.63-.26-.95-.39v-4.36Zm1.73.71c.31.13.63.26.95.38v4.35c-.32-.12-.63-.24-.95-.37v-4.36Zm1.73.68c.35.13.69.25,1.04.36v4.29c-.35-.1-.7-.21-1.04-.32v-4.32Zm1.82.61c.41.11.81.21,1.22.29v4.18c-.11-.01-.22-.03-.33-.05-.3-.05-.59-.11-.89-.18v-4.24Zm2,.42c.4.05.81.07,1.22.06v4.12h-.4c-.27,0-.54-.02-.82-.04v-4.14Zm2,.02c.38-.04.75-.08,1.13-.15v4.2c-.37.04-.74.07-1.13.09v-4.14Zm1.91-.31c.35-.08.7-.17,1.04-.26v4.33c-.34.07-.69.14-1.04.19v-4.26Zm1.82-.51c.48-.16.94-.32,1.4-.5v4.48c-.46.15-.93.29-1.4.41v-4.39Zm2.19-.82c.32-.13.64-.27.95-.41l.26-.12v4.58c-.41.16-.82.32-1.22.47v-4.52Zm2-.87c.38-.16.76-.32,1.13-.47v4.57l-.48.21c-.22.1-.43.19-.65.28v-4.59Zm1.92-.79c.32-.12.63-.24.95-.35v4.5c-.31.12-.62.26-.95.4v-4.54Zm1.73-.61c.34-.11.69-.21,1.04-.3v4.39c-.34.11-.69.24-1.04.36v-4.45Zm1.82-.49c.31-.07.62-.13.95-.18v4.29c-.32.07-.64.15-.95.23v-4.34Zm1.73-.3c.28-.04.56-.06.85-.09v4.23c-.29.03-.58.07-.85.11v-4.25Zm1.64-.13c.14,0,.29-.01.44-.01.23,0,.46,0,.69,0v4.21c-.2,0-.41,0-.61,0-.17,0-.34.01-.52.02v-4.21Zm1.91.02c.38.02.75.06,1.13.1v4.25c-.37-.06-.75-.1-1.13-.13v-4.22Zm1.91.2c.44.07.88.15,1.31.24v4.35c-.43-.11-.87-.21-1.31-.3v-4.28Zm2.09.42c.41.1.81.21,1.22.33v4.44c-.4-.13-.81-.27-1.22-.39v-4.38Zm2.01.58c.13.04.27.09.4.13.21.07.42.14.63.22v4.48c-.34-.12-.69-.25-1.04-.37v-4.46Zm1.82.64c.38.14.75.28,1.13.42v4.47c-.38-.13-.75-.27-1.13-.4v-4.48Zm1.91.71c.41.15.81.29,1.22.43v4.39c-.41-.11-.82-.24-1.22-.38v-4.44Zm2,.68c.26.08.52.15.78.22.21.05.42.11.62.15v4.28c-.47-.08-.94-.18-1.4-.3v-4.35Zm2.19.52c.49.08.98.13,1.47.15h.02v4.21h-.16c-.45-.02-.89-.06-1.33-.11v-4.25Zm2.28.15c.47,0,.94-.04,1.4-.08v4.22c-.46.04-.93.06-1.4.07v-4.21Zm2.19-.18c.44-.06.87-.13,1.31-.22v4.28c-.44.07-.87.14-1.31.19v-4.25Zm2.09-.38c.41-.09.81-.19,1.22-.29v4.33c-.41.09-.81.18-1.22.26v-4.3Zm2-.49l1.31-.34v4.35c-.32.08-.64.16-.95.24l-.36.09v-4.34Zm2.1-.54c.44-.11.87-.21,1.31-.31v4.32c-.44.1-.87.22-1.31.33v-4.34Zm2.1-.49c.43-.09.87-.17,1.31-.25v4.27c-.44.09-.88.18-1.31.28v-4.3Zm2.09-.36c.37-.05.75-.09,1.13-.12v4.23c-.38.04-.75.09-1.13.15v-4.25Zm1.91-.18c.47-.03.94-.04,1.4-.03v4.21c-.46,0-.93,0-1.4.04v-4.21Zm2.19-.01c.47.02.94.05,1.4.1v4.24c-.46-.06-.93-.1-1.4-.12v-4.21Z"/>
      <path class="cls-6" d="m176.1,265.87c.32-.02.64-.04.96-.05v4.21c-.22,0-.44.02-.66.04-.12-1.4-.22-2.79-.3-4.2h0Zm74.69,7.69c.19-1.62.34-3.24.46-4.87-.23-.09-.45-.17-.68-.25v5.02l.22.1Zm-72.94-7.75c.44.01.88.04,1.31.09v4.25h-.06c-.41-.08-.83-.12-1.25-.13v-4.21Zm2.09.21c.42.07.83.17,1.22.28v4.36c-.4-.13-.81-.25-1.22-.34v-4.3Zm2.01.53c.32.11.63.23.95.35v4.41c-.32-.13-.63-.25-.95-.37v-4.39Zm1.73.69c.38.17.75.34,1.12.52v4.41c-.38-.18-.75-.35-1.12-.52v-4.41Zm1.91.9c.36.18.73.36,1.11.54h.01v4.38c-.37-.17-.74-.34-1.12-.52v-4.4Zm1.91.9c.32.14.63.28.95.41v4.36c-.31-.12-.63-.26-.95-.4v-4.37Zm1.73.72c.31.12.63.24.95.34v4.34c-.32-.1-.63-.21-.95-.32v-4.36Zm1.73.59c.34.1.69.19,1.04.27v4.3c-.36-.07-.7-.15-1.04-.24v-4.33Zm1.82.42c.4.07.8.12,1.22.16v4.24c-.42-.03-.82-.07-1.22-.12v-4.28Zm2,.22c.27.01.55.01.83.01.13,0,.26,0,.39,0v4.2c-.24.01-.48.02-.72.02-.17,0-.34,0-.5,0v-4.22Zm2-.03c.38-.02.76-.06,1.13-.11v4.16c-.38.05-.75.1-1.13.13v-4.18Zm1.91-.22c.35-.06.69-.13,1.04-.21v4.15c-.35.07-.69.14-1.04.2v-4.14Zm1.82-.4c.36-.1.73-.21,1.09-.33.1-.04.21-.07.31-.1v4.22c-.46.13-.93.26-1.4.38v-4.16Zm2.19-.73c.41-.16.81-.32,1.22-.49v4.37c-.41.14-.81.27-1.22.4v-4.28Zm2-.82c.38-.16.75-.32,1.13-.48v4.5c-.38.14-.75.28-1.13.41v-4.43Zm1.92-.79c.32-.12.63-.24.95-.35v4.5c-.31.12-.63.24-.95.36v-4.51Zm1.73-.61c.35-.1.69-.2,1.04-.29v4.38c-.34.11-.68.23-1.04.36v-4.45Zm1.82-.46c.31-.06.62-.12.95-.16v4.27c-.32.06-.63.14-.95.22v-4.32Zm1.73-.26c.28-.03.57-.05.85-.06v4.21c-.29.01-.57.04-.85.08v-4.23Zm1.64-.07h.03c.37,0,.73.02,1.09.05v4.23c-.37-.04-.74-.06-1.12-.06h0v-4.21Zm1.91.12c.38.05.75.11,1.13.18v4.31c-.38-.09-.75-.17-1.13-.24v-4.25Zm1.91.35c.44.1.87.22,1.31.35v4.43c-.27-.09-.54-.19-.81-.27-.17-.05-.34-.11-.5-.16v-4.36Zm2.09.6c.42.14.82.29,1.22.43v4.5c-.41-.16-.81-.31-1.22-.46v-4.47Zm2.01.71l1.04.39v4.5c-.35-.12-.69-.25-1.04-.38v-4.51Zm1.82.68c.38.14.75.27,1.13.39v4.41c-.38-.1-.76-.21-1.13-.33v-4.47Zm1.91.64c.4.12.81.23,1.22.33v4.28c-.41-.07-.82-.16-1.22-.25v-4.35Zm2,.5c.45.09.92.16,1.4.21v4.2c-.47-.05-.93-.11-1.4-.18v-4.24Zm2.19.28c.21.01.42.02.64.03.29,0,.57,0,.86,0v4.21c-.2,0-.4,0-.61,0-.29,0-.58-.02-.89-.04v-4.19Zm2.28-.03c.47-.04.93-.1,1.4-.18v4.27c-.46.06-.93.11-1.4.15v-4.24Zm2.19-.33c.44-.09.87-.19,1.31-.3v4.34c-.43.1-.87.19-1.31.26v-4.3Zm2.09-.52c.41-.11.81-.23,1.22-.35v4.4c-.41.11-.81.21-1.22.32v-4.36Zm2-.59c.44-.13.88-.26,1.31-.39v4.46c-.44.11-.88.23-1.31.35v-4.42Zm2.1-.61c.43-.12.87-.23,1.31-.34v4.53c-.44.09-.88.19-1.31.29v-4.49Zm2.1-.5c.43-.09.87-.16,1.31-.22v4.6c-.44.04-.88.1-1.31.18v-4.55Zm2.09-.31c.38-.03.75-.05,1.13-.06v4.66c-.38,0-.76,0-1.13.02v-4.63Zm1.91-.05c.47.02.94.07,1.4.14v4.79c-.47-.1-.94-.18-1.4-.23v-4.7Zm2.19.28c.47.1.94.21,1.4.35v4.96c-.46-.18-.93-.33-1.4-.47v-4.84Z"/>
      <path class="cls-5" d="m213.63,275.47c11,0,19.91,8.79,19.91,19.64,0,7.95-4.85,15.11-12.29,18.15-7.44,3.04-16.01,1.36-21.7-4.26-5.7-5.61-7.4-14.06-4.32-21.4,3.08-7.34,10.34-12.12,18.4-12.12h0Z"/>
      <path class="cls-6" d="m213.63,276.46c2.9,0,6.17,1.03,8.46,2.3.67.37.41,1.04-.27.79-2.76-.97-5.81-1.69-9.09-1.38-4.08.38-7.27,1.46-10.73,3.96-1.16.84-2.02.22-1.13-.74,2.62-2.82,7.93-4.94,12.77-4.94h0Z"/>
      <path class="cls-6" d="m223.77,279.81c.34,0,.62.27.62.62,0,.55-.67.82-1.05.43-.39-.39-.11-1.05.44-1.05h0Z"/>
      <path class="cls-6" d="m225.43,281.4c.33,0,.59.27.59.59,0,.53-.64.79-1.01.42-.38-.37-.11-1.01.42-1.01h0Z"/>
      <path class="cls-6" d="m214.52,303.13v6.76h-.73s.02-6.33.02-6.33h-.9c.01.54-.63.68-.65,1.22-.08,1.8.23,2.27.5,3.09.18.57.26,1.42.29,2.53-.02.66-.25,1.87.58,2,.6.09,1.85.19,2.02-.41l.04.08c.29.57,0,1.39-.51,1.39h-2.16c-1.42.02-1.22-.92-1.21-2.25,0-1.96-.67-2.53-.67-3.59v-4.52s-1.67,0-1.67,0c-.8,0-1.04,1.9-2.81,2.09-1.51.17-2.44-.6-2.44-1.99,0-1.34,1.21-2.05,2.58-2.05h3.35v-.97l1.78.02v1.01l2.76.02v-1s2.57.03,2.57.03v.87s3.87,0,3.87,0c1.55,0,2.35.97,2.38,1.95.04,1.55-1.13,2.28-2.31,2.2-2.11-.15-2.1-2.13-3.25-2.13h-3.43Zm-.79,7.45l.8-.02c.35.34.6.62.86,1-.19.51-1.25.36-1.68.3-.19-.03-.23-1.29.02-1.28h0Zm7.27-8.28c.43,0,.79.36.79.79s-.35.79-.79.79-.79-.36-.79-.79.35-.79.79-.79h0Zm-13.99.07c.44,0,.79.35.79.79s-.35.79-.79.79-.78-.35-.78-.79.35-.79.78-.79h0Z"/>
      <path class="cls-6" d="m211.86,295.23h1.65l.2-12.34.34,12.34h1.57v-10.09c0-1.85-.93-5.01-1.91-6.3-.99,1.5-1.85,4.45-1.85,6.3v10.09Z"/>
      <path class="cls-5" d="m180.05,235.28l3.1,11.35c.6,2.21,6.45,3.55,11.95,3.66,5.17.09,10.7-.61,11.42-3.2l3.14-11.43c-1.58-.64-3.82-1.22-5.74-1.63l-.49,3.51-1.46-.14.25-3.68c-2.19-.39-3.83-.55-5.93-.65l-.03,3.44-2.53.02v-3.51c-2.23-.06-3.83.05-6.01.3l.12,3.44-1.79.3-.49-3.4c-2.25.48-3.73.86-5.51,1.64h0Z"/>
      <path class="cls-6" d="m181.38,235.94l.68,2.49c.96-.29,1.95-.53,2.95-.73l-.39-2.71c-1.11.26-2.17.55-3.24.95h0Zm.88,3.21l.62,2.28c2.54-.8,5.31-1.22,8-1.41l-.15-1.93.74-.05.14,1.94c.21-.01.43-.02.64-.03h.37s.03.73.03.73h-.37c-1.33.07-2.7.18-4.07.36l.29,1.68c1.47-.24,2.95-.37,4.41-.42h.37s.03.73.03.73h-.37c-3.07.12-6.28.6-9.18,1.66l.45,1.66c.01.06.04.12.08.18,3-1.48,7.71-1.91,11-1.83.13,0,.26,0,.39.01h.37s-.02.75-.02.75h-.37c-.13-.02-.26-.02-.39-.02-.66-.01-1.39,0-2.15.02-.42.05-.86.12-1.21.3-.73.38-.64.89-.26,1.27.63.65,1.84.76,2.67.93-1.52.07-3.22-.11-3.74-.24-2.25-.57-1.31-1.8-.8-1.96-1.78.25-3.52.67-4.91,1.3.72.47,1.81.85,2.25.99,2.14.67,4.59.98,6.82,1.09.38.02.77.03,1.15.04.35,0,.71,0,1.07,0,1.59,0,7.7-.2,9.03-1.96-.62-.25-1.35-.5-1.96-.68-.52.96-1.56,1.3-4.87,1.29.96-.23,1.6-.82,1.64-1.13.08-.6-1.06-1-1.91-1.09l-.37-.04.07-.74.37.04c2.35.24,5.07.74,7.31,1.66l.45-1.64c-3.29-1.21-7.05-1.77-10.53-1.87v-1.33h.74v.61c1.52.07,3.08.23,4.62.49l.13-.57c1.21.12,2.34.36,3.31.66l-.18.62c.72.2,1.42.42,2.11.67l.47-1.73c-3.42-1.21-7.54-1.7-11.12-1.79v.81h-.75v-1.56c1.11,0,2.23.05,3.34.14l.08-1.69.74.04-.08,1.72c.92.08,1.86.2,2.79.35l.11-1.06c1,.17,2.13.38,2.99.62l-.29,1.01c.82.2,1.62.43,2.38.7l.62-2.25c-.43-.15-.88-.28-1.31-.38l-.36-.07.15-.73.36.07c.44.09.91.23,1.35.38l.67-2.43c-1.11-.38-2.29-.7-3.44-.96l-.24,1.49,1.05.24-.38,1.46c-1.36-.2-2.58-.32-3.84-.47-.61-.05-1.23-.08-1.84-.09h-.37s0-.75,0-.75h.37c.41,0,.83.02,1.25.05l.16-2.66c-1.22-.19-2.42-.32-3.66-.41l-.03,3.37-4.75.03v-3.53c-1.27,0-2.49.07-3.75.19l.1,2.86c.46-.04.93-.07,1.39-.11l.37-.02.05.74-.37.02c-2.69.17-5.56.55-8.14,1.35h0Zm.82,3l.49,1.81c1.36-.49,2.77-.86,4.21-1.12l-.29-1.69c-1.5.23-2.99.56-4.41,1h0Z"/>
      <path class="cls-5" d="m216.68,234.19l3.01,11.57c.58,2.22,6.98,3.33,12.74,3.43,5.41.09,10.79-1.18,11.32-2.7l4.19-11.85c-1.66-.64-3.38-1.17-5.39-1.58l-.52,3.96-2.25-.27.17-4.04c-2.29-.39-3.91-.64-6.11-.75l-.03,3.94-1.69.02v-4.01c-2.33-.06-4.33.05-6.62.3l-.02,4.35-1.78.21-.23-4.32c-2.74.39-4.95.95-6.81,1.73h0Z"/>
      <path class="cls-6" d="m218.01,234.87l.87,3.35c.57-.1,1.14-.18,1.71-.25l.37-.04.09.74-.37.04c-.53.06-1.07.14-1.61.23l1.25,4.81c.63-.12,1.27-.21,1.91-.29l.37-.04.09.74-.37.04c-.6.07-1.21.16-1.82.27l.27,1.03c.18.68,2.32,1.36,2.89,1.52,2.19.61,4.68.88,6.94,1,.61.03,1.23.06,1.84.07,2.29.04,4.74-.16,6.98-.66.61-.14,2.92-.75,3.28-1.32l.52-1.46c-.41-.12-.84-.23-1.25-.33l-.36-.09.17-.72.36.09c.44.1.89.22,1.33.35l.69-1.94c-1.9-.67-5.25-1.34-7.45-1.45l-.36-.02.04-2.43-1.58-.05.02-.74,2.32.07-.05,2.45c2.24.14,5.14.62,7.39,1.19l2.02-5.7c-1-.35-2-.64-3.02-.89l-.23,1.77c.55.13,1.08.28,1.62.44l.35.11-.21.71-.36-.11c-.5-.15-1-.29-1.5-.41l-.18,1.33-4.37-.53.17-4.09c-1.29-.21-2.55-.39-3.85-.5l-.03,3.85-3.91.04v-1.36c-.51-.01-1.02-.01-1.52,0l-.37.02-.03-.74h.37c.51-.04,1.03-.04,1.55-.02v-1.93c-1.48,0-2.92.07-4.39.21v3.58c.73-.09,1.48-.13,2.23-.13h.36l.11,3.91-3.34.23.14,1.88,2.54-.16.05.74-3.32.21-.12-3.42,3.29-.23-.07-2.43c-1.71.04-3.63.32-5.1.51l.23,2.97-2.02.28v-.75l1.28-.27-.23-2.73-.2-3.69c-1.5.26-3,.6-4.43,1.12h0Zm21.57,7.97c.34.06.68.12,1.01.19l.36.07-.14.73-.37-.07c-.33-.07-.66-.12-.99-.18l-.37-.06.12-.73.37.06Zm-3.64-.21c.65.03,1.3.1,1.95.18l.37.05-.09.73-.37-.05c-.63-.08-1.26-.14-1.89-.17l-.37-.02.04-.74h.37Zm-.05-7.95c.65.03,1.3.1,1.95.18l.37.04-.09.74-.37-.05c-.62-.08-1.26-.14-1.89-.17h-.37s.04-.76.04-.76l.37.02Zm-3.89,9.93c4.69,0,8.49.52,8.49,1.16s-3.8,1.17-8.49,1.17-8.48-.52-8.48-1.17c0-.57,3-1.05,6.95-1.14l-.02-2.04h2.51v-2.35l-1.59-.05.02-.74,2.31.07v3.82h-2.5l.02,1.28c.26,0,.52,0,.78,0h0Zm.07.46c2.88,0,5.22.32,5.22.71s-2.34.71-5.22.71-5.22-.32-5.22-.71,2.34-.71,5.22-.71h0Z"/>
      <path class="cls-6" d="m207.3,296.68c.16-.49.5-.87,1.04-.89,1.05-.04,1.48-.05,2.44,0,.55.03,1.25.84,1.32,1.73.03.7-.64.66-.91.46-.28-.21-.22-1.07-.75-1.11-.55-.04-1.24-.11-1.71.01-.21.05-.31.15-.45.29-.45.46-1.18.12-.98-.5h0Z"/>
      <path class="cls-6" d="m216.18,291.2c.32-.12,1.27-.33,1.85-.41.81-.11,1.42.14,1.89,1.07.33.67-.48.94-1.14.88-.54-.06-.78-.04-1.31,0-.22.02-.93.07-1.29.18v-1.73Z"/>
      <path class="cls-6" d="m216.53,296.66c-.16-.49-.5-.86-1.04-.88-1.05-.04-1.94-.04-2.9.02-.55.03-1.25.84-1.32,1.73-.03.7.64.66.91.46.28-.21.22-1.08.75-1.12.55-.04,1.7-.12,2.17,0,.21.05.32.15.45.3.45.47,1.19.12.98-.5h0Z"/>
      <path class="cls-6" d="m203.32,295.75c.16-.46.43-.8.94-.94.17-.05.2-.33.57-.6.7-.5,1.07.13.84.49.27.14.67.13.9.23.57.24.54,1.52-.07,1.32-.83-.27-1.75-.22-2.14.09-.54.42-1.25.05-1.03-.59h0Z"/>
      <path class="cls-6" d="m219.23,296.45c-.27.04-.5.03-.84.07-.45.05-.86.16-1.12.05-.85-.38-.68-1.41.68-1.6.68-.1,1.7-.2,1.75.75.03.43-.15.68-.46.73h0Z"/>
      <path class="cls-6" d="m202.93,297.17c-.39.18-1.38.08-1.91-.47-.65-.66-.57-1.49-.44-1.88.21-.62.78-.86,1.27-.45.58.49-.07,1.41.84,1.69.66.2.84.83.23,1.11h0Z"/>
      <path class="cls-6" d="m221.44,298.49c.36.64,1.41.57,2.12.3.37-.14.73-.36,1.17-.72.61-.49,1.22-1.2,1.31-1.75.11-.74-.62-1.15-1.04-.66-.75.89-1.87,1.88-2.82,1.75-.68-.09-.99.65-.74,1.09h0Z"/>
      <path class="cls-6" d="m220.53,296.15c0-.71.34-1.03,1.06-1.29.46-.16,1.47-.58,2.04-.5,1.09.16.62,1.27.16,1.27-.55-.01-1.47.2-1.86.46-.16.11-.21.58-.36.68-.58.37-1.02-.11-1.03-.62h0Z"/>
      <path class="cls-6" d="m207.23,292.86c0-.89.58-1.39,1.25-1.41,1.05-.03,1.86.02,2.82.05v1.85c.03.7-.48.54-.75.34-.28-.21-.37-1.07-.71-1.14-.63-.13-.99.13-1.44.59-.37.38-1.17.61-1.18-.27h0Z"/>
      <path class="cls-6" d="m202.1,293.88c.16-.79.8-1.25,1.34-1.55.31-.18.69-.35,1.09-.5.5-.18.99-.29,1.38-.06.35.2.59.61.63,1.15.03.69-.66.91-.91.8-.25-.12-.11-.66-.6-.6-.57.07-1.11.34-1.54.99-.34.51-1.53.39-1.4-.24h0Z"/>
      <path class="cls-6" d="m225.95,293.76c-.16-.79-.8-1.25-1.34-1.55-.31-.18-.68-.35-1.09-.49-.5-.18-.99-.29-1.38-.07-.36.2-.59.61-.63,1.16-.03.69.66.91.91.8.25-.12.12-.66.61-.6.57.07,1.1.34,1.53.99.34.51,1.54.39,1.4-.24h0Z"/>
      <path class="cls-6" d="m203.09,298.04c.03.77.59,1.06,1.14,1.26.63.22,1.94.11,2.44-.11.38-.17.71-.44.75-.98.03-.69-.63-.81-.82-.63-.19.18-.67.35-1.22.34-.33,0-.85.01-1.07-.26-.38-.48-1.24-.22-1.21.39h0Z"/>
      <path class="cls-6" d="m213.53,299.86c.96.1,1.43.09,1.93-.14.84-.39.39-1.21-.39-1.18-.58.02-.23-.7-.45-1.05-.1-.16-.49-.09-.59-.09-.25,0,.07,1.18-.42,1.17-1.21,0-1.08,1.19-.07,1.29h0Z"/>
      <path class="cls-6" d="m219.4,293.22c.98-.15,1.44-.11,1.93.14.62.32.39,1.17-.32,1.12-.47-.03-1.05,0-1.54.03-1.08.06-1.05-1.14-.07-1.29h0Z"/>
      <path class="cls-6" d="m208.09,295.23c.18.02.59.02.73.01.8-.03,1.02-1.1.09-1.27-.31-.06-.76-.05-1.05,0-.64.09-.65,1.18.22,1.27h0Z"/>
      <path class="cls-6" d="m216.18,295.08c.18.02.95-.02,1.09-.03.8-.02,1.23-1.07.3-1.24-.31-.06-1.09-.03-1.38-.02l-.02,1.29Z"/>
      <path class="cls-6" d="m210.76,295.33c.18.02.43.01.57,0l-.02-1.24c-.1,0-.32,0-.41,0-1.25-.14-1.15,1.14-.14,1.24h0Z"/>
      <path class="cls-6" d="m216.31,298.02c-.15.64.47,1.07,1.02,1.34.71.36,2.21.38,2.85.01.35-.2.67-.63.71-1.17.03-.69-.61-.78-.82-.63-.25.18-.62.24-1.12.27-.39.02-1.04.04-1.41-.18-.48-.28-1.11-.19-1.23.36h0Z"/>
      <path class="cls-6" d="m207.76,298.57c.03.77.65,1.11,1,1.18.76.14,1.83.18,2.75.03.42-.07.65-.36.69-.91.03-.69-.95-.63-1.06-.54-.11.09-.15.16-.42.23-.34.09-.83.12-1.45.03-.19-.03-.41-.12-.52-.3-.29-.46-1.02-.33-.99.28h0Z"/>
      <path class="cls-4" d="m268.46,148.51c1,2.88,1.02,5.98-1.04,8.49-.92,1.12-2.17,1.98-3.55,2.52,3.51,2.6,5.63,5.96,8.1,9.34.25-2.67.82-5.11,1.75-7.85.3-.86.61-1.73.91-2.59l.5-1.44,1.22.92c.87.65,1.61,1.41,2.34,2.2.61-1.17,1.48-2.12,2.7-2.87,1.69-1.04,3.61-1.43,5.35-2.31l1.5-.75.11,1.68c.07,1.07.18,2.12.3,3.19.2,1.78.36,3.49.39,5.25,1.09-.04,2.2-.07,3.26.06l2.09.25-1.39,1.59c-1.8,2.06-2.86,4.84-4.23,7.2-1.23,2.12-2.77,4.06-3.86,6.25-1.52,3.04-1.75,6.81-2.78,10.05-.46,1.46-.95,2.7-1.55,3.8,2.71-.24,5.17-.96,7.71-2,2.45-1,4.82-2.23,7.32-3.09.8-.27,1.6-.5,2.43-.68,2.74-.59,7.18-.32,9.42,1.48l.88.71-.73.87c-.99,1.18-2.17,2.44-2.92,3.84,3.08,1.82,5.86,2.98,9.46,3.94l1.71.46-1.16,1.34c-2.95,3.44-7,5.2-11.36,5.24,1.01,1.4,1.72,2.99,2.04,4.71l.23,1.24-1.25.08c-2.71.17-5.93-.16-8.39-1.04,2.78,4.24,2.8,8.98.62,11.49,1.66,1.5,2.86,3.59,3.33,5.78.62,2.93.09,5.91-1.2,8.57,2.49,2.19,3.88,4.43,4.09,7.92.12,2.15-.04,3.87.81,5.94l.8,1.96-2.07-.44c-1.74-.38-2.93-.97-4.05-1.81-.02,1.37-.17,2.69-.14,4.16.02.87.13,1.71.41,2.54l.56,1.59-1.68-.11c-3.04-.2-5.72-2.26-7.52-4.7-.71.94-1.46,1.63-2.6,2.5l-1.69,1.26-.09-2.11c-.11-2.46-1.41-4.98-1.49-7.52-.03-.96.11-1.71.4-2.61.26-.82.43-1.37.44-2.25,0-.27-.02-1.17-.21-1.47-.16.05-.43.33-.5.42-.41.53-.61,1.26-.65,1.91-.03.44-.02.86.03,1.3.13,1.33.39,2.61.5,3.96.41,5.27-1.51,10.9-6.28,13.66l-1.26.73-.38-1.41c-.48-1.79-1.22-3.49-1.86-5.23-.65.76-1.4,1.42-2.25,2.06-1,.76-2.33,1.59-3.09,2.59-.34.45-.56.93-.68,1.48l-.19.94c2.54,3.59,6.8,4.41,11.27,3.6l1.61-.29-.32,1.6c-.98,4.97-3.66,8.45-8.67,9.08-.15,3.29-1.34,6.36-4.29,8.19-2.59,1.61-5.88,1.82-8.83,1.32l-2.47-.43,1.98-1.55c3.25-2.56,4.27-5.39,4.17-9.41-.13-5.48-1.84-10.82-1.99-16.26-.15-5.75.98-9.75,4.46-13.7-1.07.09-2.14.14-3.16.07l-1.61-.11.68-1.47c2.34-5.1,5.53-8.86,10.19-10.79-3.75-1.17-6.57-3.21-10.4-5.72l-1.9-1.25,2.15-.74c.79-.27,1.43-.64,2.14-1.07.65-.39,1.25-.72,1.9-.99-1.3-5.95-.8-11.24,5.62-13.78l1.2-.48.29,1.26c.68,2.95,2.16,4.25,3.52,6.39,1.66-1.19,3.79-1.87,5.75-2.06l1.04-.1.17,1.02c.31,1.82,1.07,3.56,2.55,4.72.84.66,2.05,1.2,3.14,1.16.33-.01.62-.04.89-.07-2.07-4.28-5.43-7.38-9.63-9.72-6.33-3.53-14.34-5.25-21.61-6.19l.57.9-1.6.32c-1.34.26-3.03.33-4.53.16-.11,2.98-.49,5.65-1.34,8.61l-.41,1.43-1.25-.79c-2.33-1.46-3.75-3.04-5.54-5.05-.16-.19-.33-.38-.5-.56-.85.67-1.69,1.21-2.7,1.77l-.05.03c.54,1.2,1.04,2.29,1.34,4.34l-16.15-.24c-.79-2.18-2.01-4.61-3.62-6.22-2.16,1.1-5.49,4.23-9.58,7.45-2.59,2.05-6.28,4.04-10.11,4.14l-2.12,2.53c-7.77-9.95-2.97-16.53-1.62-19.68-.89-1.26-1.87-2.44-2.92-3.55-.65,1.39-1.46,2.63-2.45,4.04-1.31,1.87-2.29,3.42-2.98,5.64l-.54,1.75-1.31-1.29c-1.09-1.06-1.9-2.4-2.46-3.82-.79.67-1.66,1.27-2.45,1.86-1.57,1.18-2.98,2.38-4.17,3.96l-.75.99-.91-.85c-1.8-1.68-2.64-5.91-1.96-8.69-1.09.3-2.27.45-3.22.47l-1.63.04.56-1.53c.07-.2.14-.39.2-.58-3.21,1.84-6.85,3.09-10.35,4.18-1.52.47-3.09.93-4.66,1.41,4.98,3.05,7.14,8.11,4.96,13.66.11.06.21.12.31.18.44.29.83.62,1.22.97.7.64,1.69,1.8,2.56,2.14l2.61,1c-1.41.79-4.11,1.88-5.38,2.62-3.23,1.88-5.08,3.09-9.81,3.12,2.89,1.06,6.1,1.63,8.63,3.73,2.21,1.84,3.83,3.93,4.61,6.59l.17,20.63c-.76,2.18-1.53,4.37-1.86,6.59-.74,4.94-.18,9.11,4.05,12.33l1.67,1.27-1.98.67c-1.97.67-4.34.83-6.38.39-4.14-.89-6.19-3.93-6.41-7.92-5.39-1.1-8.63-4.78-8.5-10.14.03-1.18.25-2.33.45-3.49.79.38,1.59.76,2.4,1.11,1.97.85,4.19,1.53,6.26.8.4-.14.78-.31,1.15-.5.55-.27.92-.52,1.25-.81.73-.65.88-1.89.39-2.73-.43-.74-1.37-1.53-1.8-1.95-1.39-1.35-2.85-2.84-4.01-4.47-1.35,2.11-3.62,3.89-5.38,5.4l-1.4,1.21-.42-1.81c-.53-2.33-2.53-4.31-2.83-6.72-.21-1.67-.11-2.85.24-4.47.11-.52.21-1.03.25-1.56.05-.6-.05-1.24-.3-1.79-.07-.16-.28-.55-.47-.69-.34.34-.36,1.5-.32,1.86.16,1.77.29,3.5-.13,5.24-.22.91-.44,1.71-.57,2.65l-.25,1.78-1.49-1.02c-.51-.35-1.07-1.06-1.58-1.78-1.66,2.96-4.45,5.24-7.76,6.15l-1.84.51.46-1.85c.78-3.15-.63-6.43-.93-9.62-1.03.8-2.12,1.55-3.18,2.2l-2.23,1.37.55-2.55c.38-1.74.48-3.32.67-5.07.08-.72.18-1.42.34-2.12.52-2.27,1.63-4.33,2.91-6.26-2.28-3.71-1.46-7.48,1.41-10.72-1.75-5.17-1.12-10.2,1.92-14.81.57-.87,1.21-1.69,1.89-2.48-2.59.73-5.32.89-8.32.37l-1.11-.2c.24-1.27.55-2.32,1.1-3.51-3.35-.22-6.29-2.05-9.34-3.68l-2.21-1.18,2.36-.85c1.75-.63,2.71-1.47,4.11-2.59,1.67-1.33,3.17-2.02,5-2.36-.35-.4-.7-.8-1.04-1.2-1.1-1.3-2.29-2.73-3.22-4.16l-1.17-1.8,2.14.08c.7.03,1.39,0,2.09-.06,2.74-.23,5.04-.66,7.85-.4,3.01.27,6.18,1.65,8.93,2.86,2.23.98,4.88,2.25,7.36,2.85-2.32-3.74-3.24-8.12-3.05-13.02-3.25-1.76-5.04-6.12-6.59-9.23-.8-1.61-1.66-3.27-2.76-4.69l-1.4-1.8h2.28c1.21.01,2.82.12,4.24.41-.17-1.82-.16-3.62-.02-5.47.13-1.88.4-3.79.42-5.66l.03-2.66,1.88,1.89c1.31,1.32,3.08,2.35,4.58,3.46,1.51,1.12,2.8,2.34,3.74,3.9,1.36-1,2.96-1.74,4.58-2.09l1.44-.31-.09,1.47c-.2,3.13-.81,6.67-.45,9.87,2.38-3.92,5.37-7.29,9.15-9.98-3.63-1.87-6.03-5.62-4.54-9.84-4.91-1.61-6.09-6.18-2.82-10.7l.8-1.11.92,1.02c.2.21.41.41.64.58,1.33,1,3.25,1.3,4.86,1.46,2.37.23,4.77.23,7.15.44,7.02.61,12.34,6.27,12.91,13.23.57,6.95-3.48,10.8-8.94,14.39-1.78,1.17-3.69,2.18-5.5,3.31-.35.22-.7.45-1.04.68,4.38-.66,8.81.85,13.19.95l1.55.04-.53,1.46c-1.3,3.61-4.09,5.65-7.22,7.43.45.96.71,1.96.76,2.96,4.66-3.93,9.5-7.62,14.31-11.37.02-.11.04-.2.06-.29-.21-.26-.42-.54-.61-.84-.67-1.04-1.24-2.23-1.07-3.18.21-1.14.43-1.68,2.09-2.84.54-.38.15-1.32.61-1.83.74-.8,1.68-.7,2.7-.8.75-1.25,2.23-2.8,4.65-2.05,1.56.49,2.81-1.18,4.58-.07,1.27-1.16,2.83-1.37,5.25-.87,1.15.24,2.81-.95,5.31.7,1.72-.15,4.29-.67,7.41.17,1.38-.29,2.03.31,2.86.36.74.04,1.09.06,1.81.16.93.12,2.01.28,2.88,1.05.66.16,1.27.34,1.68.68.84.62,1.96.68,2.93.95.96.28,1.77.77,2.68,1.59,2.35,2.12,3.14,7.16,1.03,8.42,3.89,3.86,8.07,7.43,12.41,10.77l-.05-.51c.04-.94.27-1.87.68-2.77-3.54-2.03-4.96-4.43-5.41-8.7l-.18-1.78,1.68.61c2.63.97,4.37,1.1,7.09.72,1.11-.16,2.14-.3,3.24-.32-1.86-1.49-3.78-2.9-5.58-4.45-4.86-4.2-9.16-10.59-8.5-17.31.55-5.51,4.09-9.38,9.52-10.29,2.75-.46,5.71-.33,8.49-.21,3.18.14,7.73.46,10.72-.74l1.53-.61v1.64c0,4.11-2.31,6.65-5.86,8h0Zm-114.15,61.38c-1.82.61-3.61,1.27-5.29,2.06-1.35.64-2.87,1.39-4.35,2.3,2.18,0,4.27.72,5.91,2.21.7-.76,1.46-1.46,2.1-2.28,1.03-1.31,1.5-2.66,1.62-4.29h0Zm-12.55,6.45c-1.69,1.45-3.02,3.18-3.5,5.26l-.05.24c.45.12.9.18,1.33.15,2.74-.19,3.18-3.57,2.22-5.65h0Zm19.64-25.08h0c2.32-.04,5.37-.5,7.51-1.39-.97-1.5-2.77-2.58-4.56-2.33-1.51.21-2.44,1.35-2.8,2.77-.08.32-.13.64-.16.95h0Zm9.85-36.4c1.8-1.18,3.82-3.41,5.09-5.07-.17-.02-.34-.02-.51-.02-3.06.04-4.25,2.47-4.59,5.09h0Zm88.26,2.07c-.19-2.25-1.52-4.38-3.77-5.09-.7-.22-1.51-.2-2.09-.16.22,1.04,1.13,2.83,2.59,3.74,1.05.64,2.21.98,3.27,1.51h0Zm8.7,34.51c-.44-.46-.87-.92-1.32-1.38-.5-.5-1.05-1.02-1.63-1.43-.74-.52-1.73-.93-2.64-1.02-1.21-.13-2.36.34-2.3,1.57.03.51.25,1.05.41,1.54,2.25,1,4.79,1.54,7.2.82l.29-.09Z"/>
      <path class="cls-6" d="m216.18,170.57c1.62,3.73-.48,8.38,3.49,11.73,2-1.25,2.93-2.45,4.62-5.96-.71,2.89-1.68,5.2-1,7.46.47,1.55,1.73,3.37,3.25,4.56,2.14-1.72,3.38-3,4.78-5.64-.53,3.04-2.27,6.2-1.6,8.94.67,2.75,3.69,5.03,4.66,7.86,2.32-2.54,3.68-4.55,4.4-8.16.65,1.91-1.91,5.72-1.58,11.37.19,3.19,1.08,6.21,2.86,9.02,1.29-.71,2.11-1.25,3.33-2.31,2,2,3.36,4.17,6.55,6.18.89-3.11,1.29-5.76,1.33-9.62,1.72.43,4.01.34,5.41.07-2.91-4.59-5.54-9.82-7.91-14.71,4.89,3.39,10.39,6,14.73,6,2.32,0,3.54-.9,4.25-2.53-1.27.69-5.35,1.9-9.44.45,2.35.21,4.05.23,4.89-.24-1.47-.72-2.18-.82-2.85-1.36,2.72.72,5.44.68,7.71.1.06-.35.16-.79.19-1.2-2.54.76-5.49.39-8.77-1.24-2.96,1.27-5.86-.22-7.76-3.38.21,1.63,1.02,2.91,3.17,5.11-2.59-1.61-9.79-8.15-14.59-12.48.94,2.17,2.14,3.77,4.57,7.14-2.77-2.54-5.04-6.45-7.54-9.54-.19-.23-.32,2.19-.37,2.59-1.23-.95-2.02-1.99-2.97-3.24-.38.4-.59.84-.59.82.72,1.29,1.44,2.73,2.69,4.32.38.47,1.06,1.97,1.87,3.98.39-.25.41-1.16.75-2.4.02,2.19,1.85,4.63,2.98,5.81,2.95,3.06,5.43,5.32,5.68,7.08-1.15-1.22-4.44-5.91-6.95-5.16.06-.39.33-1.93-.16-2.54-.49-.61-1.47-.5-2.13-.61.04,1.02,0,2.07-.59,3.06.14-2.8-.42-8.61-5.95-11.37.27-2.52.18-5.67-2.12-8-1.64-.04-3.2-.41-4.62-1.06-.94,0-1.93.05-2.66-.06-1.14-.18-2.41-1.14-3.31-1.14-.67.19-1.65.28-2.72.28h0Zm18.93,25.58c-1.14-2.83-2.05-3.11-2.78-4.59-.9-1.84-.43-5.61.81-7.3,0,.12-.8,2.42-.46,4.12.07.31.59.22.62.55.05.69.16.97.27,1.44.11.46.65.02.71.71.12,1.47.56,2.61.84,3.05.58-.81.86-1.13,1.09-3.67.51,2.35-.11,4.31-1.11,5.69h0Zm-8.59-10.83c-1.21-1.91-1.55-3.77-1.34-5.41.15-1.14.72-1.86.82-3.04.12-1.35-.39-1.45-.78-1.71-.81-.56-1.16-1.86.29-1.41.65.21,1.47,1.14,1.15,3.61-.13,1.02-.65,1.68-.64,2.91,0,.84.21,1.79.84,2.82.22-.09.59-1.44.5-2.73.31.52.51.99.61,1.97.57-.61,1.64-2.15,1.99-3.29-.12,3.43-1.97,5.09-3.43,6.29h0Zm-6.26-5.83c-.93-1.6-2-3.81-1.79-5.45.5,1.52.94,2.51,1.81,3.14.13-.23.89-1.27.81-2.56.32.52.45,1.12.54,2.11.57-.4,1.19-1.52,1.55-3.19.22,3.16-1.45,4.74-2.92,5.95h0Zm16.39-1.96c-.81-.65-1.55-.67-2.06-.41.5.75,1.21,1.6,1.83,2.31.01-.59.02-1.18.23-1.9h0Zm4.29,15.34c-1.69,4.56-2.8,7.51-.11,15.78,1.32-.23,2.07-.82,2.38-1.36.19-.34.15-1,.28-1.32.14-.31.46-.28.56.34,0,.65.31,1.54,1,2.36,1.31,1.56,2.23,1.71,3.92,4.08.59-2.45.71-6.81.27-7.27.13.89-5.32-2.98-3.8-5.42.67-.74,2.82,3.65,7.99,3.88-.88-2.2-4.34-8.05-5.38-11.15-.17,1.04,1.18,4.72,2.63,7.83.25.88-.8.59-1.18.15-.44-.49-.33-1.79-.66-1.87-.22-.05-.55.21-.63.46-.18.55.25,1.34-1.14.6-.32-.17-.2-1.01-.46-1.14-1.35-.61-1.28.31-1.85.73-.39.29-1.13-.29-.86,1.23.25,1.44,2,3.44,3.6,5.12-.02.02-.45.97-2.4-.41.47,1.47,1.43,2.14,1.09,2.22-2.34-.27-1.44-2.77-2.32-3.12-.42-.17-.92,1.83-1.33,1.99-.29.12.02-1.44-.54-2.93-.27,1.95-.7,3.01-.92,2.43-1.25-3.31-1.41-8.11.89-11.98.26-.43-.52-1.1-1.04-1.27h0Z"/>
      <path class="cls-6" d="m252.59,196.63c9.01,4.55,17.13,4.58,22.91.64,3.08-2.11,4.38-4.15,5.58-7.94,1-3.14,1.29-7.09,2.84-10.21,1.13-2.26,2.68-4.21,3.89-6.32,1.56-2.71,2.47-5.22,4.35-7.38-1.34-.16-3.17-.04-4.24,0,.07-3.84-.48-6.31-.68-9.53-3.14,1.58-6.91,1.65-8.14,6.24-1.14-1.17-2.14-2.4-3.42-3.36-1.29,3.7-2.57,6.84-2.72,12.13.32,4.4,1.24,6.42,2.77,8.02.04-.77.05-1.61.02-2.5-.11-2.63-.85-5.78-.79-8.31.08-3.03.77-5.08,1.03-6.4,2.5,1.66,3.3,4.79,3.55,7.23.02-.14.05-.28.09-.42.22-.95.7-2.21.84-3.21.43-3.12,1.69-5.56,5.33-7.16-.11,2.88.84,6.16.25,8.68,1.21-.2,2.26-.47,3,.03-1.34,1.41-1.11,2.78-1.69,3.84-1.73,3.2-3.5,4.53-4.61,7.63-1.16,3.23-1.6,6.43-2.35,9.25-.52,1.92-1.12,3.63-2.42,5.14-2.3,2.69-4.89,4.44-8.09,5.11l1.07-2.99c2.35-.17,4.74-.42,6.57-2.63.4-.48.75-1.05,1.07-1.68.83-1.62.8-2.8.86-4.64.05-1.68.1-3.47.18-3.72.25-.79.36,1.5.6,3.72.1-.44.35-1.54.44-1.99.34-1.67.52-3.5,1-5.02,1.78-5.65,4.2-5.82,5.13-10.25.19-.92-.96-.54-1.29-.32-.9,1.06-1.69,2.09-2.73,2.72.97-1.38,2.06-2.45,2.43-4.22.31-1.47-.21-3.28-.49-4.32-.65,1.07-1.24,2.99-2.1,5.12-.67,1.66-1.48,3.51-2.74,4.48.51-.75,1.3-2.2,1.98-3.86,1.05-2.59,1.76-5.63,1.43-6.8-2.07,1.21-1.44,3.27-2.49,5.52-.53,1.13-.8,2.63-1.02,3.97-.05.31-.09.62-.11.9-.04.56-.18.68-.22.1-.03-.35-.06-.71-.14-1.05-.37-1.8-.71-3.93-2.7-5.53-1.21,3.16-.35,9.14-.27,11.89.09,3.23-.72,5.48-.99,6.29-.11-.93-.28-2.16-.89-3.92-.3-.88-.66-1.62-1.01-2.4-.18.04-.41-.07-.62-.43-.27-.46-1.5-2.23-2.88-4.11-.27.36-.37.9-.26,1.11,1.07,2.16,1.72,4.31,2.14,5.28.28.65-.13,1.31-.45.31-.52-1.58-1.26-3.2-2.06-4.7-.34.11-.8.16-.39.91,1.12,2.11,2.17,4.77,2.29,6.43.06.75-.48.87-.62-.06-.2-1.32-.85-3.3-1.72-4.79-.87-1.48-2.21-3.02-3.12-4.29-.29-.4-.7-.99-1.04-1.49.09.36-.37.57-.79.25-1.53-1.16-2.73-2.11-3.52-3.04-.86-1,.06-1.39.62-.64,1,1.35,2.31,2.34,3.27,2.96.08.05.15.1.2.16-.07-.11-.13-.2-.18-.29-1.05-1.72-1.98-2.57-2.34-2.94-.72-.76-.15-1.22.38-.72.98.93,2.26,2.33,3.55,3.97.52.66,1.13.64,1.55.45-.97-1.49-1.85-2.64-2.36-3.16-.66-.67-.34-1.62.39-.52.41.62,1.39,1.71,2.27,2.84.39.5.85.65,1.16.6-1.3-1.72-2.54-3.28-3.09-3.73-.73-.6-.44-1.53.42-.54.58.68,1.5,1.67,2.54,2.87.57.65,1.09.8,1.49.92-2.2-2.98-5.84-7.67-6.76-8.43-.73-.6-.64-1.39.37-.54.68.57,1.7,1.67,2.69,2.92,1.65,2.07,3.55,4.64,4.96,6.53.19-.03.38-.11.55-.19v-.23c-3.2-4.12-5.21-7.96-9.46-10.87-.77.16-1.54.27-3.52.07.13-.55.32-1.26.3-1.94-1.83-1.07-5.93-1.61-6.86-6.22-.49.15-.87.36-1.19.6,1.12,1.98,2.53,3.61,3.33,4.53.47.55.41.84-.36.13-.93-.85-2.01-2.09-3.54-4.07-.15.2-.27.41-.38.64,1.48,1.63,3.04,3.33,3.91,4.21.51.51.44,1.16-.33.46-1.05-.97-2.42-2.22-3.96-3.7-.09.34-.14.69-.16,1.04,1.22,1.41,2.5,2.8,3.39,3.55.55.47.54,1.03-.33.46-.85-.57-1.91-1.45-3-2.57.08.7.25,1.36.44,1.93.91,1.07,1.85,2.02,2.77,2.66.59.41.51,1.07-.33.46-.61-.45-1.07-.8-1.5-1.19,2.39,3.68,7.92,7.24,12.03,10.4.4,1.73.05,3.28-.91,4.66-1.07-.52-2.23-2.15-3.46-2.53-4.04-.18-6.02,1.55-11.56-.48.39,3.7,1.39,6.15,5.82,8.37-3.52,5.56,2.35,10.9,6.16,8.71-.86-2.55,1.34-4.45,4.34-3.47,1.37.45,2.71,1.09,4.62,3.26-.93-2.6-1.66-3.15-3.21-4.8-.38-.76.72-.16,1.27.4,2.13,2.2,3.13,5.98,2.85,7.88-.63,4.16-3.74,5.73-8.74,4.68-2.53-.54-5.55-1.66-8.95-3.63.3.71.73,1.42,1.02,2.12h0Zm5.95-21.79c-1.3.21-3.41,1.02-9.47.48.79,2.42,2.39,3.54,5.19,4.07,1.91.36,4.44.11,6.6.32,2.08.21,3.42,1.01,4.47.72-1.27-1.43-4.45-1.33-7.03-1.36-1.88-.03-3.11-.24-4.32-.96,3.04-.22,4.7-.84,5.58-1.59-1.89.35-4.43,1.03-6.66.09,2.34-.13,4.93-1.11,5.63-1.76h0Zm1.95,10.92c-1.76.63-2.35,2.03-2.45,3.64-3.89-1.92-4.78-3.57-3.93-5.59.66-1.57,3.28-3.02,6.13-2.82-1.67.37-2.84.93-3.48,1.5.71,0,1.24-.04,1.99.03.45.04.31.71-.15.71-.85,0-2.27-.08-2.31.05-.04.1-.52.87-.22.88.71.03,1.18.03,1.83.08.34.02.39.74-.26.77-.59.03-.97-.09-1.64-.01-.2.02-.15.47-.13.54-.11.55,1.13.13,1.53.44.16.12.11.64-.26.7-.43.06-1.17-.1-1.1.02.14.25.53.98,1.32,1.45.61-2.2,2.54-2.79,3.13-2.39h0Zm9.61-.54c.82.67,1.4,2.09,1.77,3.62.13.65.49-.02.48-.11-.13-1.02-.4-1.86-.73-2.43-.44-.77.13-.63.37-.37.71.8,1.07,2.31,1.19,3.9.13,1.66.37-.07.37-.2,0-.84-.05-1.59-.1-2.29-.06-.89.36-.5.42-.15.17,1.01.2,1.92.19,2.9.34-.14.35-.55.42-.9.09-.47.12-1.1.14-1.81.02-.89.41-.46.43-.11.05.93.08,1.38.04,2.07.42-.08.65-.59.69-.82.15-1.09.17-2.04.19-2.9.03-.89.41-.46.43-.11.08,1.12.07,2.03-.03,2.98.81-.2,1.29-.95,1.33-1.7.05-.99.07-1.9.09-2.7.03-.89.49-.48.5-.12.09,3.22-.45,6.25-1.2,7.56-.16.28-.84.17-1.04.17-.44.86-1.41.7-1.78.76-.18.33-.81.45-1.25.36,0,.47-1.77,1-1.59.52.41-3.63-.63-6.41-1.65-7.68-.55-.69.03-.64.3-.42h0Zm-5.09-9.63c3.23,1.51,4.66,5.32,4.75,6.63.03.4-.45.59-.53.2-.71-3.49-2.27-4.57-4.48-6.18-.9-.66-.23-.87.26-.64h0Z"/>
      <path class="cls-6" d="m262.07,174.41c-2.69-2.62-5.87-4.74-8.76-7.23-5.45-4.71-8.67-10.78-8.12-16.35.55-5.53,4.17-8.56,8.59-9.31,6.05-1.02,14.33,1.03,19.43-1.01,0,3.47-1.84,6.04-6.22,7.31,3.37,7.57-2.37,11.27-6.5,11.21.95-4.53-2.24-8.46-5.98-8.51-3.27-.05-5.81,1.9-6.03,5.21-.1,1.51.12,3.32,1.38,5.32,2.92,4.64,8.03,7.55,12.61,11.14.36.81-.06,1.93-.41,2.22h0Zm-4.55-25.06c1.67,1.3,3.31,2.55,4.25,5.17.35.98.44,2.36.12,3.4,3.69-1.04,5.57-5.45,3.46-10.31-.19-.45-.42.57-.53,1.1-.11.5-.57.37-.93.67,1.7.61,1.68,2.35,1.2,3.37-.32-.65-.76-1.75-1.88-2.49.82,1.41.75,2.18.54,3.2-.42-.2-.8-.92-1.13-1.63-.45-.97-.7-1.43-1.56-2.07.73,1.19.98,2.36.92,3.06-1.38-1.89-3.52-3.24-4.45-3.47h0Zm14.26-6.94c-.75,1.79-1.96,2.55-2.99,2.88-1.96.61-3.82.16-5.56-.29.31.04,2.99.05,4.41-.72-.66-.21-2.98-.54-4.2-1.39,1.55.23,6.06.59,8.33-.47h0Zm-24.63,11.48c-1.14-5.28,2.24-10.67,7.9-10.45-.11.04-2.28.66-3.1,1.59-.24.28.73.39,1.15.91-1.15.41-2.65,1.61-3,3.52,1.34-.49,2.94-.45,4.43-.02-3.88.19-6.1,1.47-7.39,4.44h0Z"/>
      <path class="cls-6" d="m250.54,186.17c-4.98-3.82-9.3-7.62-13.1-11.41-.72.05-2.32-.34-2.84-.51,1.24,1.04,3.23,2.65,4.7,3.95,3.72,3.29,7.78,7.09,11.62,10.34-.1-.79-.27-1.58-.38-2.37h0Z"/>
      <path class="cls-6" d="m279.98,194.63c7.87-.46,12.44-4.58,18.3-5.84,2.86-.62,6.77-.12,8.48,1.26-1.39,1.66-2.78,3.12-3.48,4.99,3.35,2.07,6.15,3.4,10.59,4.57-3.02,3.51-7.62,5.52-13.19,4.65,2.37,2.12,3.3,4.49,3.62,6.22-5.92.37-10.39-1.55-13.39-4.11,5.13,4.73,6.66,8.99,6.02,12.38-.25,1.33-.91,2.48-1.92,3.41,3.72,2.47,5.75,8.39,2.32,14.5,6.66,5.42,3.12,8.79,5.27,14.01-3.04-.65-4.52-2.33-5.61-3.35.71,3.6-.57,6.52.55,9.71-3.3-.21-6.11-3.02-7.59-5.61-1.12,1.85-1.82,2.53-3.28,3.62-.1-2.26-1.42-5.33-1.48-7.5-.06-2.12.81-2.55.84-4.82.02-1.65-.39-2.47-1.06-2.59-1.12-.2-2.39,1.32-2.52,3.37-.1,1.77.31,2.61.53,5.41.32,4.1-.89,9.8-5.73,12.61-.73-2.73-1.87-4.78-2.6-7.51-2,4.31-6.68,4.67-7.45,8.48-.05-.12-.11-.25-.16-.38.1-1.3.29-2.76,1.3-3.7,2.34-2.18,4.98-5,7.09-6.48.23-1.14.59-2.2,1.08-3.41.33-.83.02-.51-.25-.18-.88,1.08-1.5,2.45-2.34,3.55-1.34,1.26-2.55,2.86-4,3.91.05-.78,1.35-2.42,2.63-3.77.25-.26.01-.77-.27-.55-1.14.88-1.94,2.31-2.67,3.32-.17.24-.27-.67.02-1.46.5-1.36,1.47-2.05,2.14-2.79.18-.19-.04-.87-.48-.48-1.15,1.01-2.04,2.37-2.63,3.43-.11.2-.11-.46-.07-.69.25-1.23,1.09-2.49,2.23-4.08.46-.64-.02-1.04-.41-.59-1.64,1.88-2.46,4.03-3.32,5.62-.4.74-.94.84-1.43.84.22-3.83,2.02-7.67,6.4-10.59.22-.15.18-.62-.05-.48-9.55,5.56-7.49,15.49-5.79,19.05,2.06,4.3,6.44,7,13.37,5.75-.88,4.45-3.23,8.04-8.68,8.27.15,8.39-6.12,10.42-11.82,9.44,4.32-3.39,4.67-7.26,4.6-10.31-.14-5.53-1.85-11.25-1.99-16.26-.14-5.34.6-9.88,6.28-15.05-2.26.16-4.31.45-6.02.34,3.5-7.6,8.32-10.69,14.29-11.41-6.53-.55-9.84-3.17-14.9-6.49,2.05-.71,2.8-1.75,4.99-2.39-1.91-7.74-.27-11.49,4.71-13.46.91,3.92,2.71,4.76,4.3,7.86,1.3-1.34,3.55-2.42,6.15-2.67.88,5.27,4.72,6.89,6.84,6.81,1.9-.08,2.62-.41,3.72-1.03,2.89-1.6,2.79-5.06,1.92-7.87-1.21-3.89-6.27-9.83-17.8-12.41-.16-1.54-.14-2.87,1.62-2.91,2.82-.07,5.31-.03,8.13-.07.7,0,.62-.72.14-.72-1.61,0-2.3,0-4.52-.07-.93-.02-1.66-.83-.68-.85,2.16-.1,2.83-.17,5.4-.04.67.04.74-.48.31-.51-.98-.09-2.22-.25-3.32-.21,3.49-.24,5.75-1.26,8.63-2.39,2.8-1.1,5.36-2.32,6.72-1.97-.6.65-1.7,1.14-2.94,1.61,1.41.02,2.28-.06,3.8-.65.74.59.79,1.16-.05,1.76-1.08.77-2.78,1.5-5.63,2.04,1.93.21,4.48.4,6.81-.82.64.69.97.85.32,1.22-.94.53-1.3.51-2.23.6,1.72.53,2.83.12,3.93.41.75.2,1.32.5,1.55,1-.41.51-.87.8-1.2.91-.3.11-3.28-1.02-4.01-1.86.3,1.35,2.64,2.51,2.28,2.54-1.74.15-4.21-.59-6.69-1.75-.47-.22-.49.11-.17.35,3.43,2.53,10.33,3.84,15.22.96-3-1.14-5.73-2.7-8.45-4.66.5-1.43,2.03-3.3,3.11-4.83-2.48-.45-4.46-.33-6.52-.03-3.39.49-6.86,2.79-10.25,3.93-3.12,1.06-5.52,1.55-9.04,1.61.57-.53,1.08-1.1,1.54-1.71h0Zm14.45,31.14c4.87,4.48,3.04,8.51,1.23,11.35-.31.48-.85.26-.51-.24.86-1.31,1.24-2.16,1.4-3.29-.82,1.01-1.47,2.27-2.46,3.02-.23.18-.68-.12-.38-.52,1.13-1.49,2.27-2.57,2.33-4.25.04-1.04.11-1.7-.81-.42-.78,1.1-1.52,2.12-2.48,3.19-.35.39-.89-.18-.48-.62,1.22-1.3,1.81-2.37,2.57-3.6-1.05.85-2.07,1.91-2.98,2.54-.46.32-.96-.13-.51-.48.91-.73,1.41-1.24,2.4-2.34,1.3-1.46-.35-1.25-1.01-.57-.52.54-1.04,1.07-1.6,1.57-.4.36-.64-.09-.55-.28.33-.68.99-.98.96-1.57-.68.71-1.27,1.24-2.02,1.88-.31.27-.67-.19-.41-.45,1.76-1.7,3.52-3.25,5.3-4.94h0Zm-11.98,7.64c.57-.36.97-.57,1.61-1.11.6-.5.12-1.18-.42-.74-.48.4-.84.7-1.56,1.16-.67.43-.09.98.37.69h0Zm5.06-4.01c1.86-1.14,3.62-2.46,5.39-4.06.19-.18.12-.62-.09-.79-.11-.28-.43-.49-.75-.32-1.52.79-2.61,1.75-5.2,2.83-.73.31-.27.8.23.6,1.34-.52,2.64-1.12,3.95-1.83-1,.93-1.96,1.79-3.85,3.02-.67.43-.13.84.34.55h0Zm-7.49-10.17c1.19,3.09,3.26,5.01,5.5,5.75.38.12.52-.39.14-.51-4.08-2.32-4.13-3.94-5.09-6.04-.3-.66-.43-.52-1.07-.3-.88.31-1.8.85-2.42,1.49-.44.46-.46.58-.34,1.21.34,1.65,1.24,3.36,2.14,4.33.33.36.73,0,.42-.4-1.14-1.5-1.55-2.48-1.86-3.61-.1-.38,0-.62.19-.16.69,1.68,1.59,3.02,2.75,3.85.3.21,1.05.06.26-.58-1.35-1.1-2-2.23-2.39-3.46-.18-.56.41-1.27.71-.45.8,2.12,2.33,3.56,3.76,4.24.54.26.7-.22.35-.49-2.12-1.66-2.91-2.42-3.42-4.05-.18-.58.22-1.03.34-.83h0Zm-2.12,40.22c-.65-2.3-1.36-4-1.39-5.73-.04-2.56,1.04-5,1.8-6.55.03-.06.43-.72.29.05-1.05,2.69-1.88,6.37-.61,9.06.03-.52.38-1.72,1.04-3.06.67-1.36-1.42-2.06.67-3.7-.49.75-.48,1.33-.44,1.72.09.84.86.99.41,1.83-.86,1.65-1.11,2.87-.52,3.54.81-.94,2.22-2.31,2.26-5.19.8,2.12-.07,4.11-3.52,8.02h0Zm9.89-7.09c-1.02-1.35-1.1-2.02-1.26-3.09-.34-2.23.35-3.17.6-5.8.17-1.8-.32-3.52.24-4.93.23-.58.75-1.35,1.07-1.73.97-1.14,1.81-1.27.97.16-.57.97-1.07,1.11-1.32,2.29-.2.94-.01,2.7-.12,3.67-.3,2.7-.88,4.72-.39,6.49.7-.67,1.04-1.98,1.79-3.54-.1,1.56-.9,4.71-1.58,6.48h0Zm12.49-4.37c-3.67-2.13-2.76-4.62-4.37-7.28,1.72.84,1.56,3.21,3.14,4.55.15-.67.08-3.29-1.16-5.46,2.42,1.61,1.94,5.81,2.39,8.2h0Zm-25.78-27.31c-1.5-1.93-4.51-4.01-4.3-7.75-2.33,1.72-3.29,4.48-3.35,6.86-.06,2.17.69,4.32,2.05,6.16-2.01-.16-2.85.84-4.45,1.09,2.16,1.85,6.01,3.56,8.3,3.87,1.74.23,3.5.39,5.19.65,1,.15,2.21,1.1,2.46,1.09.29-.01-.23-1.25-1.75-1.88-1.64-.68-4.34-.57-6.53-.92-1.99-.32-3.41-1-4.02-2.25,1.22-.13,2.52-.07,4.15.68.31.19.93-.02.54-.34-.96-.49-1.8-.88-2.73-1.86-.96-1.01-1.56-2.04-1.74-3.6.52.7,1.78,2.01,2.8,2.7.19.13.37-.35.21-.52-.85-.86-1.95-2.14-2.63-3.21-.5-.78-.84-1.44-.38-1.75,1.34,1.5,2.46,2.47,3.75,3.73.53.53.71-.06.56-.24-1.54-1.87-3.44-3.25-3.84-4.59-.13-.45.02-.98.25-1.4.96,2.08,3.47,6.53,5.67,7.8.72.42,1.13-.14.68-.48-3.38-2.6-4.87-5.62-5.68-7.93,1.71,1.97,2.41,3.09,4.51,4.71.4.31.59-.21.27-.61h0Zm21.01,34.02c-4.86-4.45-4.79-8.15-4.73-12.47,0-.27.31-.7.43.08.74,4.85.57,4.38,1.94,7.01.02-1.19.42-1.81.34-3.66,1.02,1.8-.22,4.01,1.02,5.32,1.03-4.49.08-7.11-1.09-9.45-.53-1.06.2-.84.45-.45.46.67,1.45,2.29,1.79,4.48.31,1.99-.08,5.45-.15,9.14h0Zm-30.73-12.05c1.5-2.21,3.13-4.12,5.79-5.64,3.55-2.04,6.09-2.55,8.45-2.71.07,0,.83.11.07.29-5.43,1.32-8.21,2.6-10.16,4.84,1.11-.42,1.83-.67,3.49-.86-1.94,1.13-3.76,1.1-4.52,2.74.16.03.79.29,1.78.03.97-.25,1.97-.72,3.56-1.74-.42.66-.92,1.15-1.79,1.85,2.45-.82,4.63-1.75,6.78-3.63.9-.78.92-.06.59.26-1.27,1.21-4.09,5.16-14.02,4.57h0Zm-1.21,16.38c.86,4.5,2.31,7.85,6.28,9.5,2.68,1.11,5.58,1.77,8.37,1.17-2.05,5.62-5.94,5.65-8.96,4.73.92,7.71-3.67,9.84-6.85,10.34,3.4-4.66,2.78-10.95,2.27-13.74-.14-.81.82-.36.89-.06.41,1.47.26,7.74-.74,11.31,1.54-.57,1.6-2.82,1.62-4.75.57,1.47-.16,4.7.44,3.73,2.67-4.2,1.18-8.49.82-9.65,1.45,1.28,3.69,1.72,5.22,1.65.8-.03,1.13-.91-1.44-1.62,1.11-.26,2.79.43,3.48.1.28-.13.73-.82.12-.88-7.39-.85-12.18-5.95-11.54-11.83h0Zm38.22-50.11c-2.78-5.12-4.67-6.9-9.11-7.9.31.02,3.45,1.87,4.93,3.76-.98,1.28-5.01-2.71-5.63-2.23,1.47,1.11,2.46,1.98,2.66,2.8.26,1.05-8.71-5.29-17.55-4.13.7.01,5.16.39,9.89,2.08,5.95,2.12,10.12,5.27,14.81,5.62h0Z"/>
      <path class="cls-6" d="m257.15,204.73c19.84,2.43,29.22,8.56,33.12,16.89.38-.13.76-.31,1.23-.57.31-.17.58-.38.8-.6-1.93-2.68-5.09-6.59-8.88-9.04-.78-.5-.68-1.15.21-.62,3.31,1.97,6.36,5.11,9.2,8.97.23-.4.38-.84.47-1.3-1.77-2.15-6.19-6.92-11.2-9.66-.82-.45-.75-1.1.16-.64,3.15,1.61,7.57,5.06,11.13,9.38.01-.5-.04-1.01-.12-1.52-2.08-2.41-5.01-5.35-8.21-7.42-.78-.5-.67-1.16.21-.63,2.18,1.32,5.01,3.64,7.64,6.54l-.02-.04c-.9-2.91-3.58-5.5-6.02-7.17-4.83-3.29-10.98-4.82-16.72-5.41l-6.07-.62.26-.07c-3.71-.24-7.44-1.35-10.86-2.91.27.5.54,1,.81,1.5.04.02.09.05.14.08,1.97,1.21,6.18,2.86,11.49,3.76.92.16.75.99-.25.78-3.25-.67-7.37-1.57-10.7-3.39.27.48.54.96.82,1.43.57.07,1.16.14,1.75.2.93.09.82.93-.19.79-.34-.05-.7-.09-1.06-.14.29.48.57.95.86,1.42h0Z"/>
      <path class="cls-6" d="m194.94,200.68c-1.71,3.93-4.22,5.56-5.65,10.21-1.62-1.59-2.38-3.71-2.73-5.09-1.73,2.11-5.27,3.58-8.02,7.21-1.73-1.62-2.44-6.58-1.25-8.62.83-.83,5.23-4.77,7.32-8.1.46-.73.11-.47-.04-.25-1.69,2.48-4.67,5.48-7.14,7.21-1.26.88-3.57,1.22-4.86,1.25.77-2.12,1.17-4.17,2.69-6.8,1.35-2.34,2.25-3.46,3.86-5.84-3.05,2.82-5.87,4.97-8.44,6.3-.48-.04-1.09-.12-1.78-.27,1.66-1,2.91-2.04,4.03-2.95.31-.25.02-.46-.32-.23-1.63,1.12-3.17,2.03-4.88,2.88-.54-.16-1.09-.36-1.65-.59,3.02-1.3,4.24-2.04,6.43-3.45.34-.22.09-.54-.26-.34-2.35,1.37-4.51,2.37-7.18,3.3-.43-.23-.83-.48-1.22-.76,3.66-.95,6.43-2.12,8.78-3.26.36-.18.23-.45-.15-.31-3.16,1.19-6.24,2.24-9.52,2.81-.28-.27-.54-.57-.75-.89,4.05-.5,7.23-1.48,9.52-2.54.12-.06.18-.11.18-.17,2.53-.37,4.91-2.48,5.5-5.34,4.7-4.02,8.76-7.12,13.99-11.18-.04.14-.07.28-.1.41-.1.31-.22.63-.35.95-2.33,1.98-5,4.2-7.48,6.32-.3.26-.13.62.2.38,2.17-1.58,4.43-3.3,6.38-4.83-.36.66-.77,1.32-1.19,1.98-1.22,1.12-2.5,2.27-3.84,3.34-.43.34.73.82,1.08.58l-.03.05c-1.86,2.54-3.97,5.27-5.36,8.11l-.68,1.39.16.02c-2.01,2.06-4.05,5.01-4.98,9.08,3.27-.77,5.12-3.31,6.04-5.06-1.65,1.44-1.64,1.85-2.8,2.56.93-1.22,1.25-2.65,1.52-3.37-.63.86-2.26,3.37-3.23,3.61.5-1.57,2-4.24,3.96-6.75l.87.11c1.54.2,3.09.22,4.63.1,3.27,2.11,6.22,4.31,8.76,6.82h0Zm-6.03-2.6c-1.24,1.09-1.57,1.98-2.09,3.2-.62,1.45-.85,2.52-1.57,3.35-1.93,2.25-3.28,2.36-6.16,5.42-.83-5.3,2.78-9.75,6.03-12.89.56-.55.35-.13.2.03-.61.69-1.6,1.64-2.73,3.21-1.2,1.68-2.07,3.54-2.2,4.68.62-.37,1.85-3.19,3.23-4.15-.89,1.01-.98,1.34-1.25,1.84-.81,1.49-1.12,2.71-.6,2.89.75-.09.93-.75,1.22-1.7.44-1.41,1.04-3.47,3.08-6.04-1.07,2.15-2.42,4.51-2.49,7.1.4-.35.89-.84,1.2-1.21.92-1.11,1.1-2.94,3.79-6.53.16-.21.45-.03.56.23l.03-.06v.1c.03.11.02.24-.04.34-.08.9-.16,1.45-.21,1.96-.09.87-.03,1.49.05,2.67.07.96.8,1.19,1.08.06.27-1.1.35-2.61.41-4.24.41,1.52.04,2.77.36,4.77.11.67,1.4-1.39,1.8-3.23.47,2.96-1.73,3.54-3.09,7.82-1.09-.59-1.49-3.64-1.21-6.57.1-1.1.26-2.04.61-3.05h0Zm-27.19-4.82c-.12-.28-.22-.58-.29-.89,2.87-.05,6.09-.7,8-1.51l.13.35c.45.15.91.23,1.37.24-3.14.98-5.93,1.61-9.22,1.8h0Z"/>
      <path class="cls-6" d="m169.06,199.02c-5.92,2.24-11.31.86-15.05-1.69-6.27-4.28-9.04-10.49-8.53-18.92-4.57-1.78-6.05-9.32-9.62-13.91,1.62,0,4.16.23,5.56.82-.84-5.11.15-9.17.19-12.66,2.65,2.68,6.96,4.07,8.74,8.33,1.75-1.66,3.79-2.45,5.18-2.75-.17,2.7-.97,7.64-.26,11.25-1.11,3.89-1.29,7.16-.58,11.04.05-2.96.05-6.86,1.31-9.77,2.82-5.3,6.31-9.14,10.41-11.95.5.16,1.16.38,1.97.54-2.23,1.38-4.22,3.11-6.13,4.92-3.37,3.17-7.27,9.66-7.28,14.58.53-1.98,1.03-3.8,1.95-5.76,1.26-2.69,3.1-5.46,5.01-7.52,1.84-2.04,4.49-4.22,6.92-5.71.19-.12.38-.23.58-.34.53.07,1.1.11,1.71.12-.06-.21-.12-.55-.16-.95,1.19-.61,2.38-1.2,3.6-2.02.83-.57,1.85-1.32,2.67-2.03,1.12,1.48-3.61,4.7-6,6.37.39,0,.7-.11,1.12-.35,1.52-.85,3.31-2.27,4.92-3.59.22-.18.44-.37.66-.56.31.39.45.74-.24,1.52-1.08,1.22-3.28,3.05-5.47,4.41.43-.11.98.02,1.48-.25,1.49-.81,2.92-2.1,4.92-4.3,1.14,1.36-1.79,3.49-5.5,6.09.38-.03.69-.16,1.12-.39,1.52-.83,3.26-2.23,4.93-3.69.09.03.1.18-.28.74-1.64,2.1-3.43,3.49-5.82,5.05-2.83,1.85-5.93,3.76-8.6,5.73-.74.55-1.52,1.22-2.29,1.98-.11.03-.23.05-.3.03-.3-.09-.51-.4-.06-.79.43-.38.85-.76,1.29-1.12.74-.6-.44-.54-.78-.19-.36.37-.67.65-1.02.99-.4.39-.57,0-.66-.2,1.08-1.17,2.27-2.34,3.51-3.35.74-.6-.44-.53-.78-.19-1.01,1.04-1.81,1.71-2.6,2.58-.39.43-.99.06-.61-.39,1.09-1.27,2.68-3.09,3.94-4.32.68-.67-.35-.63-.68-.28-1.32,1.42-2.73,3.01-4.03,4.71-.81,1.06-.92-.2-1.05,0-1.07,1.64-2.33,4.44-2.59,5.91-.04.24.1.11.18-.05.26-.48.54-1.34.92-1.82.38-.47.78-.14.42.47-.05.08-.29.62-.46.96-.19.4.02.47.12.28.17-.32.46-.76.77-1.17.47-.61.58-.07.43.21-.57.99-1.43,2.66-1.83,3.65-.05.14.1.24.25.01.63-.98,1.36-2.39,2.3-3.44.39-.43,1.01,0,.49.82-.2.32-.32.56-.38.71-.47.82-.85,1.65-1.08,2.47-.14.49.08.69.32.14,1.86-4.34,4.85-6.76,7.01-8.29,3.37-2.4,7.25-4.47,10.28-6.64,2.52-1.8,6.15-4.72,6.51-9.25.34-4.29-2.98-7.24-6.25-7.2-3.74.05-6.32,3.27-5.71,9.67-5.06-.17-10.92-4.8-7.76-10.72-4.82-.94-6.77-4.73-3.46-9.3,2.63,2.92,7.73,2.36,13.37,2.85,5.72.49,11.31,5.03,11.89,12.21.46,5.58-2.06,9.17-8.44,13.37-2.79,1.83-7.9,4.24-11.75,8.19-1.44,1.48-1.96,2.28-.69,1.28,1.07-.85,2.09-1.54,3.34-2.16.99-.49,1.99-.93,2.57-1.15,4.39-.97,8.98.71,13.79.82-1.38,3.81-4.75,5.76-7.68,7.38,3.52,5.57-1.79,9.93-4.89,9.2-.89-2.26-3.44-4.25-6.18-3.87-1.59.22-3.15,1.34-3.72,3.61-1.48,5.88,5.57,8.52,8.58,8.98h0Zm-3.72-14.22c1.86.37,4.75,1.25,5.92,3.84,3.04-.88,4.98-4.89,2.07-8.02,4.16-1.82,6.76-4.55,7.57-5.84-2.66-.07-4.49-.75-6.73-.99-1.14-.12-2.59-.2-3.88.12-3.04.73-3.66,3.16-7.34,3.71.94.75,2.04.55,3.11-.14,1.21-.79,2.43-2.27,4.47-2.74,2.46-.56,6.6.46,7.57.68-1.66.85-2.6,1.06-5.97,1.39,2.95.68,5.04-.3,6.53-.72-.69,1.05-2.43,2.44-3.85,2.84-1.03.29-2.02.19-3.11.14.49.38,1.78.48,2.39.53-.35.27-.82.47-1.54.76-.94-.06-1.96-.41-3.58-.24.73.29,4.58.54,4.78,3.3-.99-.76-2.21-1.29-3.83-1.02,1.28.36,2.81.84,3.47,1.65.34.42.11,1.06-.25,1.65-.88-.68-2.69-2.12-5.47-2.19,1.23.29,6.02,2.65,3.86,3.6-2.14-2.01-4.11-2.57-6.17-2.31h0Zm9.79-37.75c2.25-.24,4.47-.24,7.07,3.47-.42-1.18-1.1-2.43-1.99-3.63-2.57-3.46-4.77-3.95-6.76-3.66,2.04.38,2.71.86,3.5,1.78-1.23-.38-2.08-.2-2.84.3,1.59-.19,2.94.31,3.59,1.09-.76-.18-1.91.13-2.56.65h0Zm-8.15-4.6c-3.47-.04-5.88-.24-7.33-1.46-1.06,4.27,3.15,5.65,6.45,3.98-1.66.14-3.02-.06-3.88-.59.95.05,1.59,0,2.53-.53-2.04.06-2.89-.44-3.38-1,2.1.51,4.25.36,5.62-.41h0Zm5.29,5.84c-2.24,1.98-3.77,4.4-3.35,8.53-4.76-1.53-6.46-5.34-5.37-7.83.36-.83,1.08-1.66,2.4-2.2-1.21,1.31-1.88,1.91-1.93,3.79.23-.6.86-1.33,1.75-1.64-.94,1.02-1.6,2.78.23,3.93.03-1.54,1.07-3.12,2.66-3.48-1.45,1.2-2,3.09-1.26,4.12.12.17.43.33.65.43.13-2.16,1.69-4.54,4.21-5.64h0Zm-28.65,26.41c-1.43-1.66-2.37-4.43-5.18-8.87,6.46,1.75,8.21,5.8,9.2,9.53-1.38-2.79-2.04-4.48-4.14-6.06,1.7,3.11,1.74,3.79,2.04,5.57-.9-1.61-2.11-5.77-4.9-7.05,1.08,2.07,2.27,5.03,2.97,6.88h0Zm9.54-3.85c-.22-3.46.09-8.2.79-10.36-1.59.41-2.66,1.34-3.17,2.38.18,2.01.25,3.11.16,5.52.52-2.67.4-3.88,1.67-5.91-.17,2.34-.09,6.46.55,8.38h0Zm-8.47-3.54c-2.31-2.68-1.32-6.54-1.5-11.38,4.96,2.83,5.89,6.46,6.14,11.73-.84-3.16-1.99-5.2-3.45-6.18.42,1.92,1.14,4.66,2.46,6.59-2.88-2.21-2.43-5.68-4.29-7.49-.59,2.22-.15,4.69.63,6.73h0Zm26.26-9.4c-.02-.6,0-1.21.08-1.65,1.63-.81,3.78-2.83,5.53-4.96.41.65.69,1.92-.12,2.69-1.02.99-1.54,1.49-2.56,2.17-1,.67-1.98,1.22-2.94,1.74h0Zm-10.25,20.42c-.83,1.32-1.4,2.64-1.93,4.04-.15.4.46.43.6.13.52-1.16,1.08-2.58,1.97-3.97.17-.27-.36-.64-.64-.2h0Zm2.03.7c-.55.67-.95,1.34-1.28,1.97-.15.29.23.54.5.16.39-.55.78-1.06,1.44-1.98.16-.22-.49-.37-.66-.16h0Zm-4.12,14.65c.89,2.12,2,3.76,4.22,4.68-5.02-.27-8.7-2-11.25-4.56-3.44-3.45-5.05-8.63-5.04-14.41,0-.51.57-.47.57.04-.03,6.23,2.44,10.59,4.71,12.8,2.33,2.27,4.2,3.09,6.75,3.33,0-.61.04-1.28.04-1.89h0Zm-.33-7.17c-.16,2.32-.22,5.67.36,7.04-3.36.27-4.99-.81-6.69-2.52-2.3-2.31-3.66-6.04-3.52-9.86.01-.34.32-.39.32-.05,0,2.39.54,3.34.68,3.87.09-1.04-.07-2.07.14-2.77.04-.11.29-.17.31.21.07,1.12.05,2.68.15,3.64.18.25.53.73.67.99.14-1.32.18-2.58.29-3.75.06-.66.52-.54.44.59-.02.28-.07,2.8-.05,3.88.2.38.57.66.82.89.09-1.61.15-3.09.29-4.35.09-.77.62-.28.59.35-.04.64-.09,2.73-.04,4.66.3.2.87.59,1.26.78.02-1.16.03-3.48.13-4.77.05-.67.57-.53.61-.08.06.81.03,3.9.05,5.27.2.1.74.33.86.35.05-1.54.16-3.76.25-4.71.04-.46.62-.55.59.22-.04,1.39-.11,4.32.01,4.86.27.08.47.15.66.18,0-.23.04-3.44.27-4.78.17-1.01.57-.66.53-.14h0Z"/>
      <path class="cls-6" d="m148.28,193.43c-5.23-.81-11.82-5.42-17.29-5.91-3.93-.35-6.7.59-9.88.47,1.12,1.72,3.76,4.86,5.61,6.84-6.51.33-6.37,3.45-11.03,5.12,3.73,1.99,6.75,4.1,10.79,3.45-1.12,1.25-1.5,2.42-1.77,3.82,6.47,1.13,11.04-1.27,14.27-3.5-2.83,2.61-13.21,9.67-8.68,21.78-3.94,4.05-3.29,7.73-1.34,10.46-1.95,2.82-2.77,4.76-3.17,6.5-.53,2.31-.31,3.99-1.01,7.18,1.95-1.2,3.87-2.71,4.95-3.73-.71,3.6,1.88,8.1.81,12.38,4.72-1.3,7.04-5.09,7.86-7.3.84,1.14,1.77,2.64,2.41,3.08.45-3.21,1.15-2.76.7-7.62-.15-1.64.4-2.86,1.17-3.08,1.09-.32,2.3,1.65,2.14,3.7-.16,1.92-.86,2.94-.5,5.8.26,2.03,2.27,4.21,2.82,6.61,2.04-1.75,5.25-4.18,5.98-6.92,1.15,2.29,3.31,4.47,4.93,6.04.45.44.85.82,1.19,1.18.32-.23.53-.54.57-1.01-2.09-2.14-4.41-4.82-7.23-9.44-1.15-1.89-1.78-3.28-4.21-6.18-.26-.31,0-.57.32-.33,1.84,1.44,4.35,5.85,6.93,9.57,1.57,2.25,3.28,4.21,4.77,5.65.39.37.69-.45.53-.78-.42-.49-.86-1.06-1.98-2.42-.25-.3.06-.64.33-.34.76.87,1.34,1.54,2.02,2.32.38-.06.53-.26.44-.59-.38-.47-.83-1.08-1.75-2.33-.24-.32.03-.64.27-.33.75.97,1.26,1.61,1.79,2.25.22,0,.32-.01.4-.61-.61-.78-1.04-1.3-1.83-2.32-.25-.31.08-.8.34-.5.95,1.09,1.36,1.59,1.93,2.32.34.03.54-.23.61-.8-1.3-1.86-2.6-3.61-4.31-5.51-.27-.3-.02-.6.27-.33,1.08,1.04,2.42,2.74,3.72,4.51.85,1.16,1.06.29,1.19-.32-.74-2.29-2.98-4.81-7.15-7.96,2.66.83,6.41,1.19,8.46.58-.5-3.12-2.15-5.43-4.57-7.45-3.67-3.06-8.91-2.66-12.61-5.99,10.1,1.64,12.28-2.35,17.27-4.16-1.83-.71-3.37-3.27-5.55-3.91,3.11-6.38-.22-11.22-4.77-13.68-.26,4.85-3.15,6.18-4.8,8.46-2.06-2.54-5.14-3.18-8.01-2.55,1.58,2.96.54,7.27-3.01,7.51-1.89.13-4.22-1.05-5.43-2.75-1.38-1.93-1.96-4.13-1.47-6.53.52-2.54,3.06-6.57,8.76-9.46,3.21-1.64,7.51-2.92,12.25-3.32-3.25-1.14-8.15-1.07-10.84-.34-2.16.59-3.66,1.4-5.46,2.17-3.3,1.42-6.15,3.27-9.92,3.02.51-1.75,1.84-3.6,2.94-4.63-2.94.62-7.14.53-11.11-1.31,2.43-.62,2.79-2.01,6.27-3.15,1.36-.45,3.49-.81,5.99-1.15-3.42-1.43-5.69-3.97-7.25-6.32,1.18.24,2.06.08,3.3.09,2.67.04,4.15,0,6.33.71,3.4,1.1,6.29,2.85,11.02,4.37.89.29.8.45-.22.21-3.65-.83-7.35-2.62-10.31-3.48-1.65-.48-3-.53-4.14-.33,1.9,1.79,3.88,2.25,6.07,2.85-2.4-.17-5.24-1.15-7.36-2.25-.03,2.15,1.99,3.75,9.15,4.74-9.79-.35-11.65,1.3-12.7,2.78,1.05.07,3.86-1.58,7.8-1.74-1.69.33-2.36.59-3.47.99-2.07.74-3.15,1.57-4.73,2.37,1.87.13,3.62.24,5.91-.3,1.61-.39,3.11-1.04,4.75-1.42,2.41-.56,4.86-.72,6.95-.38-2.36.11-4.28.31-6.09.76-1.16.29-2.63.79-3.46,1.21-.95.47-2.44,1.75-2.84,2.33,1.47-.57,2.05-.92,4.99-2.11-1.98,1.16-3.66,1.92-4.47,2.59-.61.5-1.25,1.29-1.36,1.53,3.69.06,8.23-4.19,15.1-5.21,3.88-.58,7.53-.16,10.78,1.34.01.03.01.05.01.07.6.4,1.08.69.45.71-10.89.67-16.59,4.64-19.81,8.14-.39.42-.73.87-1.02,1.34,2.21-2.13,4.76-3.76,7.59-5.16.36-.18.41.41.07.61-2.38,1.39-5.34,3.2-7.71,5.79-.72.79-.75,2.4-.1,1.94,2.9-3.06,7.11-5.95,9.73-7.25.36-.18.15.52-.19.73-2.46,1.43-6.82,4.68-9.49,7.57-.74.81.43,1.26.79,1.07,1.38-1.61,2.68-2.73,4.6-4.33,1.89-1.58,2.91-2.74,4.93-3.57.37-.15.43.03.07.2-1.85.87-2.8,2.21-4.62,3.7-1.97,1.62-3.47,3.1-4.69,4.69-.39.51-.1,1.47.25,1.17.41-.34.84-.94,1.29-1.48,3.37-3.93,9.86-9,13.58-9.84.39-.09.45.3.07.44-5.3,2.06-10.61,6.9-13.56,10.59-.33.41-.17,1.03.4,1,1.55-2.94,4.85-5.46,10.53-8.16,6.85-3.25,16.77-4.64,23.55-8.94.97-2.09.98-2.56,2.13-4.75-.7.5-1.49,1.02-2.33,1.51-3,2.56-7.61,5.13-17.15,7.79-.39.11-.5-.34-.12-.46,3.87-1.25,9.13-3.19,12.93-5.46-.82.23-1.68.4-2.56.48-.14.01-.27.02-.39.04-2.84,1.18-6.87,2.55-11.14,3.69-.39.1-.49-.35-.1-.47,2.52-.77,5.7-1.86,8.69-3.14-.42-.01-.8-.04-1.15-.09-1.56.53-3.31,1.08-5.25,1.66-.38.12-.49-.35-.1-.46,1.3-.4,2.7-.88,4.07-1.43-.89-.22-1.68-.52-2.73-.81-3.78-1.51-6.78-4.21-8.6-6.66h0Zm-5.65,40.02c1.12,1.25,1.84,2.15,2.57,2.91.74.75,1.49,1.37,2.07,2.26.22.33-.37.75-.63.44-.66-.8-.89-.92-1.57-1.58-1.21-1.18-2.75-2.63-3.72-3.54-1.32-1.25.91-.9,1.27-.49h0Zm1.16-1.11l2.68,3.01c.26.3-.3.73-.58.45l-2.82-2.88c-.6-.62.12-1.24.71-.57h0Zm1.99-.26c.37.28.64,1.14.64,1.43,0,.4-.46.61-.63.25-.21-.46-.52-.83-.66-1-.45-.56-.08-1.23.64-.68h0Zm1.25-1.3c.05.34-.05.54.04.93.11.49.09.88-.35.59-.36-.25-.52-.89-.48-1.21.07-.5.65-1.2.78-.3h0Zm3.38-.16c-.25-.04-.32-.3-.63-.45-.6-.28-1.14-.21-1.49-.17-.34.04-.41-.17,0-.51.5-.41,1.64-.42,2.06-.25,1.2.48,1.36,1.56.06,1.38h0Zm-9.88,3.94l3.89,3.56c.29.27-.28.7-.58.45l-4.02-3.43c-.66-.56.05-1.18.71-.57h0Zm.65,2.66l1.52,1.65c.27.29-.29.71-.58.45l-1.66-1.52c-.64-.59.11-1.23.71-.57h0Zm-8.92-7.12c.57.52,1.19,1,1.92,1.43.34.21.85-.2.55-.46-.78-.68-1.14-.88-1.68-1.47-.35-.38.16-1.34.41-1.12.86.77,1.73,1.69,2.5,2.06.36.17.71-.2.4-.44-.67-.53-1.4-.98-2.2-1.92-.27-.32.23-.61.58-.36.86.62,1.59,1.19,2.52,1.5.38.13.65-.41.31-.62-.8-.49-1.54-.82-2.25-1.56-.27-.48.29-.56,1.23-.11.6.29,1.83.75,2.88.86.49.06.72-.39.33-.46-1.16-.21-2.25-.71-2.76-.98-.54-.29-.55-.81.03-.73,1.16.16,1.91.24,2.95-.03.39-.1.33-.7-.07-.72-1.07-.04-2.01,0-2.82-.23-.56-.15-.97-.69-1.59-1-1.91,1.94-4.05,3.9-5.68,5.79.13.99.97,2.25,1.61,2.5.36.14-.13-.88.42-.53.42.26.72.49,1.23.57.39.06.58-.25.2-.37-.68-.22-1.05-.72-1.27-1.04-.42-.59-.18-.96.25-.57h0Zm21.91-.13c3.2.85,5.59-1.89,8.91-2.74-1.88-2.27-3.39-2.7-4.6-2.76,1.26.61,3.17,2.16,2.4,2.45-.9,0-3.02-1.48-3.9-1.4,1.17.65,3.07,2.04,2.55,2.15-1.11.22-1.07-.49-2.7-.5.76.38,1.53.99,1.48,1.12-.71.94-1.85,1.34-4.14,1.69h0Zm-1.73-11.57c1.14-1.57,4.07-3.13,3.61-7.01,4.15,3.07,4.98,9.07,1.33,12.65-.19.19-.39.3-.02-.29,1.84-2.95,1.81-5.01,1.47-6.51-.23-.97-1.1-1.72-1.6.7-.18.88-1.01,1.74-1.53,1.91.62-.79.78-1.29.69-2.08-.07-.58-.89-.89-1.12-.32-.3.74-.2.92-.71,1.49.16-.47.27-1.14-.45-1.24-.48-.09-.9.42-1.66.7h0Zm-9.8,4.78c1.61-1.75,2.81-3.65,1.67-6.81,5.28.53,5.91,3.82,4.37,7.86-.09.25-.18.45-.14-.26.05-.83,0-1.94-.26-2.57-.19-.46-1.1.18-1.54,1.4-.2-1.29.4-2.06.91-2.3-.47-1.26-1.36-1.62-2.34-1.67-.17,1.11-.3,1.83-.49,2.1.52.31.87.78.44,1.77.05-.49-.54-.96-.76-.83-.28-.05-.73.93-1.86,1.32h0Zm5.05,9.77c2.75,1.94,6.69,1.96,9.83,3.53,2.3,1.15,4.29,3.78,5.41,6.84-3.3.49-6.66-1.11-11.54-4.69,1.6.65,5.97,3.06,8.28,3-.66-1.76-2.11-1.91-3.35-2.55-1.1-.57-1.77-1.12-1.99-1.45.38.31,4.97,1.98,4.03.67-.61-.68-1.68-1.36-3.11-1.82-2.72-.88-5.74-1.11-7.56-3.51h0Zm-7.49,17.54c-.93-.91-1.59-1.86-1.93-2.82-.69-1.93-.26-4.56.29-5.81-.12,1.23-.14,2.34-.02,3.09.14.85.45,1.59.52,1.32.2-.66.62-1.55.97-1.96-.2,1.55-.13,3.74.17,6.2h0Zm-8.09-17.39c-.45.99-.91,1.95-1.44,2.94-1.53,2.87-3.03,6.4-4.01,10.65,2-1.79,3.13-2.74,4.8-3.89-.63.2-1.98.72-2.62,1.01.78-1.4,2.8-3.04,4.23-4.42-.9.29-3.13,2.06-4.09,2.89,1.33-1.91,2.18-2.71,2.84-3.4-.98.44-1.71,1.02-2.4,1.68.19-.59.04-.35.75-1.56,1.22-2.09,2.53-3.29,3.18-3.97-.16.04-.66.09-1.24.22-.18-.81-.07-1.48-.01-2.15h0Zm11.81,7.38c2.69,4.65.86,7.01,1.94,11.43.36,1.47,1.46,2.57,2.04,4.87,2.03-1.64,3.23-3.91,3.51-6-.6,1.47-1.54,2.85-2.27,3.79-.18-1.16.34-2.1.63-3.45.27-1.26.29-1.96.14-2.73-.05.64-.93,3.98-1.61,4.79-.29-1.63.18-2.56-.58-4.27.14,1.85-.06,2.34-.2,3.8-1-1.32-.78-4.16-1.09-6.89-.25-2.26-.91-4.47-2.51-5.34h0Zm-12.02,6.43c-.46,2.29.59,5.38.04,9.25,4.5-2.75,5-9.14,4.54-13.84-.02-.27-.18-.77-.2-.06-.03,1.07-.14,6.82-1.32,8.08-.12-.71-.16-1.44-.43-1.98-.16,2.56-1.23,3.8-1.62,3.57-.23-.71-.06-.84-.17-1.69.15-.79.88-1.67,1.01-2.92-.29.8-1.04,1.41-1.33,1.76-.26-.37-.42-1.29-.52-2.17h0Z"/>
      <path class="cls-6" d="m163.27,248.27c.94,1.11,1.63,2.23,2.04,3.38.21.59.47,1.41.5,2.04,0-2.59,0-5.18,0-7.77-1.29.39-2.84.43-4.53.27.69.65,1.38,1.34,1.99,2.07h0Zm2.52,5.84c0,1.08-.32,2.12-.76,3.15-.66,1.55-1.69,3.02-2.71,4.33-.53.68-1.14,1.47-1.82,2.21-.96,1.04-1.34,1.48-2.57,2.09-2.29,1.13-4.32,1.62-9.45-.78-1.14,6.68,2.85,10.27,8.3,11.05-.13,8.41,7.48,8.73,11.33,7.42-4.82-3.66-5.22-8.43-4.48-13.38.39-2.61,1.43-5.39,2.33-8.07-.09-.86-.11-5.16-.16-8.02h0Zm-2.19,8.6c-.99,4.2-1.59,6.78-1.52,11.07.05,2.9.89,7.71,2.6,8.97-6.11.14-6.86-5.83-6.09-8.65.21,2.23.94,4.57,2.01,5.34.41.3.71.37.92-.29-1.03-6.42.21-12.69,2.08-16.45h0Zm-2.74,2.28c-2.17,1.76-6.64,5.07-11.05,2.03-.09,6.11,4.67,7.12,7.89,6.62-.81-.07-1.36-.24-1.79-.48-1.59-.89.11-1.73.95-1.67-.25-.23-1.55-.46-2.3.53-.69-.39-1.1-.95-1.14-1.64-.06-.99.27-1.14,1.37-.83.66.19,1.4.33,2.27.28.33-.02.69-.14.1-.44-.66-.33-1.07-.42-.45-.71,1.7-.82,3.36-2.17,4.18-3.69h0Z"/>
      <path class="cls-6" d="m193.8,164.84c-.01.06-.02.15-.02.2-.07.74-.16,1.37-.82,1.83-1.01.71-1.41.96-1.63,2.14-.12.66.55,1.82.91,2.37.5.77,1.42,1.91,2.44,1.91,1.97,0,5.44-2.16,7.26-3.34-1.09-1.95-3.07-3.94-5.05-5.14-.71-.43-.95-.37-1.76-.33-.49.02-1.02.08-1.33.36h0Zm10.49-.77c1.35,1.46,2.16,2.64,3.14,4.1-1.05-.51-1.79-.91-2.63-1.05-.66-.11-1.14.47-1.88.32-.55-.76-1.18-1.7-2.41-2.69.61.14,1.58.78,2.6,1.28.2-.46.44-1.28,1.18-1.96h0Zm-5.93,3.43c.42.46.66,1.5.25,1.37-1.09-.33-1.79-.7-3.17-.7.73,1.14.87,2.11.61,2.38-.52.54-1.86.62-2.16-.13-.63-1.62-.73-3.02,4.47-2.92h0Zm16.28-4.34c1.62,1.59,1.75,3.37,1.68,4.23-1.3.09-5.26-.39-5.83-1.09-.92-1.14,1.11-.98.47-1.83-.4-.54-1.13-.98-1.98-1.32,2.34-.18,3.27,2.06,4.28,2.56,2.61,1,2.04-.91,1.37-2.56h0Zm8,1.28c1.05,1.6.91,4.52.13,4.33-.35-.08-.64-.48-.89-.55-.75-.21-1.1-.06-1.41-.42-.79-.91-.42-2.21-1.77-3.91,1.38.5,1.52,2.33,2.5,3.16.3.14.71.25.94.07.44-.35.57-1.38.49-2.67h0Zm5.09-.64c1.55,1.24,2.06,2.92,2.23,4.03.13.86.04,1.43-.65,1.35-.77-.08-2.08.36-2.16-.42-.19-1.86-.5-3.08-1.7-4.78,1.21.5,1.69,2.02,2.52,2.93.35.38.77.34.97.16.38-.34-.23-1.61-1.21-3.26h0Zm8.07,3.47c.91.88,1.05,2.01,1.22,3.11.13.86.04,1.38-.65,1.35-1.09-.04-2.33-.27-2.38-1.06-.1-1.5-.27-2.48-1.2-4.23.77.32,2.04,2.18,2.39,2.33.28.12,1.28.37.62-1.5h0Zm-32.59,2.41c1.25.49,2.57-.18,3.95.15.36.09,1.07.17,1.66.08.95-.14,1.02-.58.66-1.36-.83-1.78-3.68-5.08-4.76-6.1l-.45-.28c-1.14-.71-2.5.76-4.32.19-1.44-.45-2.47.19-3.22,1.34,2.02,1.06,4.1,2.95,5.45,4.93.38.55.42.81,1.04,1.05h0Zm8.73-.59c1.82.35,4.68.51,6.27.2.13-2.29-1.88-5.63-3.38-7.3l-.02-.02c-.79-.52-1.54-.76-2.48-.7-.82.06-1.63.33-2.45.16-1.48-.31-3.07-.5-4.27.6h0c1.23,1.21,3.36,3.71,4.4,5.62.6,1.11.58,1.17,1.94,1.43h0Zm7.16.08c1.21.09,2.18.98,3.27,1.15.63.09,1.27.13,1.91.14h0c.75-1.39-.57-5.34-1.15-6.68-.22-.52-.46-1.03-.74-1.52-2.35-.61-4.07-.37-6.32-.15,1.49,1.91,3.06,4.82,3.02,7.07h0Zm6.14,1.16c1.88,1.02,3.95,1.27,5.98,1l.36-.05c.68-.38-.21-4.26-1.13-6.55-.52-1.31-1.73-1.71-3.1-1.89-.58-.08-1.14-.12-1.73-.15-.85-.05-1.41-.47-2.22-.43,1.04,2.1,2.58,6.03,1.84,8.07h0Zm9.68,2.83c.78.14,1.47.39,2.24.43.66.03,1.3-.31,1.53-.98.37-1.06-.04-2.81-.35-3.6-.31-.79-.78-1.6-1.41-2.17-.68-.61-1.36-1.1-2.24-1.35-1.33-.38-2.24-.53-3.45-1.25.97,2.27,1.96,6.39,1.17,7.66-.41,1.2,2.12,1.18,2.52,1.25h0Z"/>
      <path class="cls-6" d="m192.35,175.64c-1.78,5.45-8.07,11.71-10.66,17.02,1.62.21,3.22.21,4.77.06,7.52,4.79,12.5,9.3,16.21,17.17,5.84-2.01,5.79-3.03,9.1-5.01,2.43-1.45,5.17-2.76,7.71-3.88-2.86-7.88-5.3-16.26-6.3-24.47,1.14-.21,2.28-.32,3.4-.35v-1.96c-.87-.07-1.51.03-2.25.14-3.68.55-5.96,1.98-7.94,3.66-.64.54-.79-.17-.45-.44,1.3-1.03,2.94-2.12,4.57-3.29,1-.71,1.77-2.04.76-1.46l-6.46,4.47c-.69.48-1.08-.05-.72-.31l6.98-4.89c.68-.48-.27-.81-.62-.57-.36.24-.33.3-.9.76-.21.17-.75.2-.86.26l-5.67,3.89c-.69.47-1.08-.05-.72-.31l5.81-4.09c.57-.4-.72-.39-1.29-.22l-5.69,3.86c-.69.47-1.08-.05-.72-.31l4.75-3.32c.32-.25.03-1.01-2.27-.03-1.79.76-3.46,2.33-4.69,2.81-1.03.4-1.8.2-2.15.17-.07.49-.19,1-.37,1.52l.4-.32c.33-.27,1.07-.03.46.51l-.85.75c-.17.15-.32.21-.45.22-.9,2.02-2.3,3.88-3.38,4.53,1.8-4.5,1.4-5.57.46-6.57h0Zm-3.14,16.65c1.48-.32,2.88-.75,4.18-1.24,2.6-.9,4.69-1.98,6.36-3.26.08-.06.16-.12.23-.19.77-.54,1.33-1,1.63-1.31,1.53-1.56,2.65-3.09,3.72-4.46,1.3-1.54,2.58-2.97,4.03-3.93.48-.28.99-.54,1.56-.76,1.91,7.69,4.24,15.37,6.96,22.92-.61.42-1.24.81-1.87,1.2-1.53.95-2.71,1.55-3.28,1.96-.48.34-.74.06-.27-.31.73-.58,2.59-1.65,4.72-3.07l-.27-.71-.45.29-5.52,3.54c-.59.38-.84-.06-.32-.4l4.95-3.24c.75-.4,1.23-1.5.44-1.14l-5.94,3.66c-.6.37-.8-.07-.27-.41,1.79-1.16,3.69-2.4,5.48-3.48.56-.33.75-1.55.12-1.27-1.99.89-3.67,2.17-5.29,3.31-.57.4-.89-.12-.38-.48,1.68-1.18,3.53-2.32,5.43-3.43.47-.28.44-.47.36-.71-.06-.18-.13-.36-.19-.53-2.32,1.3-4.25,2.42-6.35,3.91-.57.41-.81-.14-.31-.51,2.03-1.49,4.03-2.67,6.43-4.04-.16-.46-.32-.93-.48-1.39-2.54,1.8-5.48,3.23-8.29,4.84l.11.3c.23.66-.24.97-.45.39l-.15-.4c-.32.19-.64.38-.95.57.17.35.33.7.49,1.03.35-.2.69-.38,1.03-.54.62-.3.79.16.27.49-1.55.96-3.14,1.89-4.59,2.98.19.28.37.51,1.05.12,1.34-.75,2.64-1.53,3.93-2.33.59-.37.69.09.16.43-1.45,1.02-2.96,1.98-4.49,2.93.22.42.4.68,1.24.28,1.23-.58,2.47-1.25,3.7-2.02.59-.37.7.11.16.43-1.29.99-2.78,1.84-4.37,2.6.26.31.33.94,1.2.51,1.03-.51,2.07-1.07,3.1-1.75.58-.38.65.04.17.43-1.01.79-2.31,1.51-3.67,2.22.24.25.33.74,1.13.36.99-.48,2.23-1.12,3.12-1.78.56-.41.67-.05.24.39-.86.88-2.82,1.82-3.77,2.28l.4.7-1.13.62c-3.86-7.95-8.95-11.93-15.05-16.61h0Zm15.43,5.7c-.15-.31-.31-.63-.47-.95.36-.24.72-.46,1.07-.68.13.34.27.67.39,1-.33.21-.66.41-.99.62h0Zm1.5-.93c-.12-.34-.25-.68-.38-1.01,3.3-2,6.03-3.29,8.29-4.93.12.35.23.7.36,1.05-2.71,1.79-5.59,3.29-8.27,4.9h0Zm-1.71,1.75c-.41.26-.8.52-1.2.79.17.33.32.66.46.98.41-.27.83-.53,1.24-.77-.16-.33-.33-.66-.5-1h0Zm-1.66,1.12c-.32.24-.65.48-.96.74.17.29.34.58.5.87.31-.22.62-.45.95-.66-.16-.31-.32-.62-.49-.94h0Zm-1.22.28c.31-.26.64-.51.96-.75-.17-.31-.35-.62-.53-.93-.33.23-.66.48-1,.73.19.32.38.64.56.96h0Zm1.43-1.1c.39-.28.78-.55,1.18-.81-.16-.31-.33-.62-.5-.93-.39.26-.79.53-1.19.81.18.32.35.62.51.93h0Zm10.42-9.98c-1.13.85-4.3,2.75-7.43,4.73-.28.18-.56.36-.84.54.13.31.25.63.38.95,2.75-1.68,5.5-3.16,8.29-5.03l-.39-1.18Zm-8.82,5.62c-.4.26-.8.52-1.19.78.15.29.3.57.45.86.38-.24.75-.48,1.13-.72-.13-.31-.25-.62-.39-.93h0Zm-1.73,1.14c-.43.29-.84.56-1.23.83.17.28.33.56.5.84.4-.28.81-.55,1.2-.82-.15-.28-.31-.57-.47-.85h0Zm-1.73,1.17c-.36.25-.7.49-1.01.71.17.29.35.59.53.88.33-.25.66-.5,1-.74-.17-.28-.34-.56-.51-.85h0Zm-.39-.62c-.2-.32-.39-.63-.59-.95-.96.66-1.02,1.35-.49,1.38.25.01.61-.11,1.08-.43h0Zm.5-.35c.4-.27.82-.55,1.25-.84l-.55-.98c-.45.3-.88.59-1.29.86l.58.95Zm1.82-1.21c.41-.26.82-.53,1.24-.8-.15-.35-.31-.7-.46-1.04-.45.29-.88.57-1.3.85.18.33.35.66.53.99h0Zm1.81-1.16l1.13-.72c-.18-.34-.35-.68-.53-1.02l-1.04.68c.15.35.3.7.45,1.06h0Zm1.43-.92l.93-.59c-.2-.34-.38-.67-.57-1l-.89.58.53,1.01Zm1.37-.88c.47-.3.92-.59,1.36-.88l-.62-.98c-.42.28-.85.56-1.29.85l.55,1.01Zm1.94-1.26c.53-.35,1.04-.7,1.52-1.03l-.63-.95c-.47.32-.99.66-1.52,1.02l.63.97Zm2.06-1.41c.54-.39,1.03-.76,1.44-1.1l-.49-1.02c-.45.35-.89.7-1.57,1.18l.62.95Zm-11.43,5.18c.41-.29.85-.59,1.3-.9l-.48-.86c-.43.28-.84.54-1.22.78.04.18.08.35.1.49l.29.48Zm1.9-1.3c.44-.29.88-.59,1.34-.89-.14-.29-.28-.58-.42-.87-.47.31-.93.61-1.38.9l.46.85Zm1.94-1.29l.97-.64-.46-.85c-.3.2-.61.4-.9.6.13.29.26.58.39.89h0Zm1.29-.84l.87-.57-.49-.88c-.28.19-.56.38-.84.57l.45.87Zm1.32-.86c.42-.27.84-.55,1.25-.81l-.57-.89c-.38.27-.77.54-1.16.81l.49.89Zm1.8-1.18c.53-.35,1.04-.69,1.52-1.01l-.63-.96c-.47.34-.96.7-1.48,1.07l.58.9Zm2.07-1.38c.72-.49,1.2-.79,1.68-1.17l-.53-1.27c-.48.43-1.1.92-1.8,1.45l.65.98Zm-6.04,1.8c.27-.19.55-.38.82-.57l-.51-.93c-.26.19-.52.39-.79.57h0s.48.93.48.93Zm1.27-.88c.38-.26.75-.53,1.12-.79l-.62-.97c-.33.27-.67.55-1.01.81l.52.95Zm1.64-1.17c.51-.37,1-.73,1.46-1.09l-.73-1.11c-.45.4-.92.8-1.39,1.19l.65,1Zm1.99-1.5c.71-.56,1.42-1.08,1.9-1.54l-.56-1.46c-.56.54-1.47,1.28-2.09,1.85l.75,1.15Zm-5.3-6.57l-.86,1.12c-.27.35.31.88.79.19l.64-.93c.47-.68-.31-.72-.57-.39h0Zm-1.63-.91l-.98,1.03c-.31.32.22.91.76.28l.74-.86c.54-.62-.23-.75-.52-.44h0Zm-1.78-1.06l-.98,1.03c-.3.32.22.91.76.27l.74-.86c.54-.62-.23-.75-.52-.45h0Zm-2.2-.62l-1.11.88c-.34.28.09.93.72.38l.85-.75c.62-.54-.12-.78-.45-.51h0Zm-9.01,6.92c-2.16,2.88-4.14,5.38-5.75,7.89,6.02.34,13.66-3.61,17.65-7.34-3.62.46-8.35.85-11.97,2.27.09-.82.12-1.85.07-2.81h0Zm8.3,2.07c-2.47.33-5.78.92-7.96,1.77l-1.72.67.11-1c-.8,1.05-1.59,2.12-2.35,3.19,3.75-.41,9.2-2.5,11.91-4.64h0Z"/>
      <path class="cls-6" d="m215.83,184.96c1.27,5.4,3.01,10.9,4.68,15.43.82-.48,1.31-.81,2.11-1.36-.43-1.11-.83-2.21-1.2-3.31.19,0,.48,0,.66,0,.29,1.01.59,2.01.97,3.02l.17-.12c.87,2.26,1.66,4.42,2.53,6.69.78-.02,1.59.06,2.36.1l-.09.03h.19c1.01.04,1.99.17,2.91.38l-.03-.04,4.4-.81c.05-.39.11-.79.14-1.18,0-.03,0-.07-.03-.1l-5.27.98-.34-.5,5.04-.92c-.14-.1-.24-.19-.26-.28-.05-.34.69-.64.64-.94-.03-.03-.05-.07-.07-.1l-3.66.76-1.68.55.12-.78-1.07.03-.23-.6,6.27-.54c-.08-.25-.15-.51-.32-.7l-7.52.07.97,4.51c-.86-1.4-1.55-3.18-2.13-5.22l7.8-.02c-.47-.39.05-.92-.52-1.23l-5.64-.21c-.55-.02-1.49-.57-.28-1.05.25-.1.62-.14,1.07-.24.39-.09.37-.47-.03-.69-.35-.2-1.04.05-1.43-.15-.38-.2-.43-.68-.07-1.02.12-.12.52-.14.74-.26.28-.15.37-.44.19-.48-1.5-.27-2.49.12-2.72-.21-.2-.28-.15-.58.12-.75.26-.18.92-.36.7-.54-.42-.34-.93-.07-1.23-.12-.69-.12-.83-.92-.02-1.1.42-.09.92-.04,1-.43.05-.25-.34-.36-.74-.34-1.88.09-1.84-.64-1.09-.96.25-.11.68-.08,1.02-.09-2.97-2.07-3.54-5.67-3.41-8.21-.61.63-1.2,1-1.71,1.12.47,2.1.95,4.14,1.68,6.26-.18.01-.35.03-.53.05-.69-2.03-1.23-4.09-1.7-6.16l-.24.02c.02.37-.02.71-.19,1,.68,2.71,1.47,5.42,2.39,8.12-.18.02-.35.04-.53.06-.88-2.55-1.65-5.13-2.31-7.75-.16.09-.34.17-.57.23.68,2.58,1.42,5.12,2.25,7.63-.18.02-.36.04-.53.06-.91-2.53-1.65-5.05-2.27-7.59-.16.02-.32.03-.5.04.65,2.5,1.34,4.99,2.22,7.49-.18.02-.36.04-.53.06-.83-2.47-1.55-5-2.23-7.54-.12,0-.26,0-.4-.01h0Zm9.82,21.09c-.8.21-1.57.43-2.25.75-3.57,1.65-6.41,3.9-9.15,6.29l-.27-.75c2.93-2.37,5.72-4.42,9.78-6.41l-.15-.53c-2.1,1.16-3.54,1.56-5.27,2.57-1.43.83-3.53,2.55-4.57,3.59l-.23-.57c1.36-1.22,3.06-2.63,4.71-3.6,1.66-.98,2.79-1.38,5.4-2.5l-.34-.75c-1.96.69-3.73,1.24-5.19,2.1-1.93,1.15-3.59,2.88-4.91,4.13l-.39-.74c1.62-1.45,3.24-3.03,5.1-4.09,1.45-.82,2.99-1.44,4.66-1.78l-.64-.89c-1.57.61-3,1.22-4.32,1.95-2.06,1.13-3.71,2.59-5.38,3.88l-.45-.68c1.75-1.27,3.5-2.64,5.47-3.74,1.26-.7,2.57-1.31,3.95-1.88l-.38-.79c-3.47,1.49-6.33,2.87-8.91,4.53-3.4,2.2-4.22,3.34-8.75,4.77.02.36.02.73,0,1.11,2.54-.64,3.57-1.04,5.74-2.27l.31.55c-2.35,1.4-3.56,1.88-6.09,2.57-.02.33-.06.67-.11,1.02,1.78-.25,4.35-1.3,6.43-2.42l.27.75c-2.25,1.43-3.68,1.97-6.86,2.82-.05.33-.12.6-.19.93,2.2-.17,4.8-1.14,7.23-2.45l.27.62c-2.41,1.52-4.94,2.69-7.77,3.08-.13.5-.28.65-.44,1.15,2.77-.18,5.45-1.01,8.73-2.96l.27.55c-3.27,2.39-6.28,3.36-9.39,3.66l-.06.15c-.33.87.54,1.52,1.83,1.34,2.86-.4,5.09-1.37,8.02-3.54,3.44-2.54,7.1-5.98,10.27-7.98,2.07-1.31,4.52-1.84,6.56-1.78,3.07.09,5.46,1.28,8.07,2.62.25-.44.44-.88.58-1.32-2.56-1.81-6.9-3.7-11.21-3.04h0Zm10.31,1.75c-.5-.69-.58-1.47-.53-2.28l-3.18.59c1.43.44,2.69,1.05,3.71,1.68h0Zm-14.84-8.85c-.41-.85-.9-2.32-1.32-3.47.18-.02.52-.04.69-.05.32,1.17.65,2.35,1.21,3.52-.18,0-.4,0-.59,0h0Zm3.19.66c-.49-1.32-.98-2.64-1.46-3.96.18,0,.54,0,.73-.01.41,1.34.68,2.68,1.23,3.98-.18.02-.33-.02-.5,0h0Z"/>
      <path class="cls-6" d="m199.46,206.2c-4.29,6.66-2.07,13.25,1.88,17.89.48-.8.99-1.09,1.47-1.88-1.21-.09-1.89-.5-2.2-1.16-.55-1.17.08-2.08.58-3.82.56-1.93.93-4.28.84-5.99-.89-2.32-1.81-3.61-2.56-5.04h0Z"/>
      <path class="cls-4" d="m211.76,139.43c0,1.87.28,3.47-.22,5.45-.31,1.24-1.62,1.3-2.65,1.18-1.47-.18-2.94-.99-4.33-1.52-1.38-.52-3.4-1.02-4.86-.87l-.65.07-.38-.53c-.29-.42-1.05-1.35-1.6-1.31-1.56.12-1.94,1.02-2.71,2.17l-.5.75-5.32-2.06,1.05-1.2c1.08-1.23,3.66-3.73,5.24-3.99,2.55-.42,4.29.91,6.54,1.77,1.26.48,2.71.81,4.12,1.14-.47-2.71-1.21-6.04-.77-8.3.21-1.1,1.32-2.05,2.39-2.25,1.03-.2,2.24-.1,3.39.04-2.12-2.23-3.54-5.25-4.33-8.1l-.16-.57c-1.88-.43-3.61-1.17-5.34-2.01-.63-.31-2.06-1.07-2.85-1.27-.75.39-2.86,2.39-3.59,2.92-.92.66-1.24,1.69-2.14,2.26.02.83.05,1.67,0,2.5l-.03.53-.44.31c-1.26.88-2.54,1.22-3.93,1.77l-2.17.84.71-2.22c.49-1.51.84-2.9,1.46-4.38.05-1.01.41-2.6,1.29-3.06,1.53-.82,3.35-1.91,4.67-3.03,1.02-.86,2.06-2.02,3.26-2.6.89-.43,1.73-.34,2.68-.25.88.08,1.76.16,2.65.27v-.03c.2-3.1-1.66-4.45-3.87-6.08-.94.06-1.95.23-2.75.72-.66.4-1.07.78-1.9.88-.76.09-1-.06-1.56-.25-.66.66-.86,2.73-1.05,3.52l-.09.39-.32.24c-1.26.96-3.38,1.23-4.88.8l-1-.28.21-1.02c.26-1.27.81-2.39,1.53-3.45.72-1.06,1.73-1.86,2.03-3.14.07-.31.07-.31.26-.57.5-.66,1.34-.68,2.09-.68.68,0,1.33.02,2-.07.85-.13,1.78-.45,2.59-.73.88-.31,1.75-.64,2.64-.91.78-.24,1.83-.54,2.53.04,1.23,1.02,2.39,2.13,3.65,3.12,1.16.9,2.71,2.06,3.59,3.3.09-.08.18-.16.27-.23l.07-.05c.05-1.52.52-3.63,1.17-3.74,1.69-.28,2.99-.09,4.15.34h.02c1.19-.75,2.67-.87,3.77-1.6.72-.48,1.14-1.25,1.39-2.1-.66.41-1.45.63-2.17.55-.99-.11-1.46-.48-2.32-.82-.19-.07-.37-.12-.58-.11-1.02.05-1.74,2.38-3.35,2.41-1.13.02-2.07-.79-2.51-1.8-.61,0-1.21-.1-1.63-.59-.28-.33-.4-.74-.37-1.16.15-2.26,2.59-2.45,4.02-3.48,1.72-1.24,3.55-2.93,5.52-3.71.15-.06.3-.12.46-.17-.22-1.46-.11-3.36.24-4.86,1.07,1.58,2,2.05,2.88,2.84.18-.34.42-.68.74-1.01l.97-1,.76,1.17c.43.67.7,1.38.84,2.1,1.67-.48,3.18.75,3.4,2.51,2.25.65,2.56,2.66,2.3,4.69,1.43.82,1.48,3.05.06,4.09,0,.02,0,.04.01.05.25,1.16.71,2.77-.14,3.78-.17.2-.37.36-.59.46.04,1.08-.34,1.93-1.41,2.36-.18.5-.47.93-.93,1.25-.25.18-.52.3-.78.38-.77,2.2-2.16,4.04-3.49,3.82-.42.8-.81,1.66-.94,2.16,3.07,5.13,5.82,10.36,8.5,15.69,1.07.47,1.98,1.05,2.95,1.73.5.36,1.24.92,1.84,1.07.26.06.51.05.77,0,1.74-.38.41-6.11.97-7.71l1.3.91c.27-2.85,2.69-5.84,3.41-8.34.45-1.53.13-2.44-.71-3.83,1.09.33,2.66.76,3.57,1.48.96.76,1.33,1.93,1.29,3.32.18.31.38.67.56,1.04,1.51-.63,3.16-.33,4.74.37.72.32,1.32.82,1.87,1.37.21.22.97,1.16,1.47,1.72.97,1.09,2.02.67,3.58.38-1.55,1.87-3.86,3.89-6.43,2.54.07.57.16,1.07.09,1.6-1.8-.89-3.39-.46-4.88,1.48,2.88.12,4.52.98,6.28,3.21-1.41-.28-2.96-.57-4.55.14-1.51.68-2.44,1.89-3.69,3.2-1.74,1.81-3.3,3.22-5.95,3.36-1.97.1-3.84-1.07-5.34-2.23-.42-.32-1.88-1.62-2.96-2.47.03,2.7-.4,5.34-2.86,6.84.12.99.61,2.12,1.01,2.93.33.67.71,1.25,1.12,1.86.39.57.84,1.21.55,1.93-.1.25-.15.31-.32.48-.29.27-.58.53-.86.8-1.98,1.8-4.93,4.12-6.34,6.36l-.22.35-.4.12c-.32.1-1.02.1-1.26.17-.03.09-.05.25-.05.31-.07,1.08.45,2.15.15,3.32l-.22.81-4.51.11-.31-.66c-.88-1.93-.11-3.65,1.06-5.22.7-.95,2.06-2.07,2.96-2.85.53-.45,1.06-.89,1.59-1.33.77-.63,2.59-2.2,3.38-3.36-2.35-1.34-4.59-3.16-5.34-5.84-.25-.9-.31-1.77-.33-2.69-.01-.52-.02-1.21-.19-1.7-.04-.11-.1-.22-.16-.32l-.13.11h-.39c-.81,0-2.22-.52-3.03-.78-.29-.09-1.05-.34-1.62-.46h0Z"/>
      <path class="cls-6" d="m190.44,142.29l3.01,1.16c.68-1.02,1.35-2.5,3.55-2.66,1.01-.08,1.94.84,2.6,1.78,1.54-.16,3.67.3,5.37.94,1.5.57,2.83,1.3,4.07,1.45.48.06,1.31.14,1.43-.34.53-2.12.11-3.72.2-5.88-.24-1.57-.42-3.91-1.81-7.79-.56-.02-1.08,0-1.53.08-.63.12-1.38.73-1.5,1.36-.45,2.35.66,6.52,1.02,9.57-1.54-.41-4.41-1.01-5.86-1.57-2.33-.89-3.79-2.06-5.96-1.71-.96.16-3.15,1.98-4.58,3.62h0Zm21.1-4.02c.27.03.58.09.91.18-.22-1.56-.47-3.8-1.74-7.34-.4-.05-.81-.1-1.22-.13,1.26,2.36,1.66,5.28,2.05,7.29h0Zm1.91.47c.28.09.56.18.83.26-.23-1.52-.41-3.73-1.67-7.33-.18-.13-.35-.25-.51-.39-.23-.02-.47-.05-.71-.09,1.29,2.48,1.66,5.55,2.06,7.54h0Zm1.86.58c.33.1.62.17.85.21-.22-1.38-.36-3.37-1.36-6.53-.41-.23-.82-.47-1.21-.71,1.03,2.47,1.34,5.29,1.73,7.03h0Zm1.71-.29c2.72-2.5,1.07-4.03-1.23-5.43.65,1.92.94,3.94,1.23,5.43h0Z"/>
      <path class="cls-6" d="m212.1,120.24c.72-.17,1.27.71.29,1.18-.99.47-2.06-.05-2.49-.13-.74.3-1.82.39-2.66.26,1.03,3.72,3.2,7.74,6.57,9.59l.78.43c-.07-.31-.12-.63-.15-.95-.05-.59.73-.81.86-.2.14.66.28,1.24.49,1.82.64.37,1.18.7,1.63,1.04-.02-.04-.04-.09-.05-.14-.26-1.25-.52-2.18-1.23-3.39-.29-.48.59-.88.9-.39.48.75,1.05,2.16,1.18,3.57.03.38-.27.6-.53.56.81.64,1.32,1.31,1.68,2.26.7,1.82-.76,3.14-1.59,4.08,1.82,2.41-1.9,6.4,6.63,10.8-.29,1.29-2.32,3.21-4.12,4.7-1.57,1.29-3.74,3.14-4.37,3.99-.98,1.32-1.61,2.63-.95,4.09l2.94-.07c.2-.79-.24-2.21-.18-3.11.11-1.72,1.39-1.26,2.1-1.48,1.52-2.43,4.64-4.79,7.38-7.38.32-.3-.61-1-1.58-2.96-.63-1.26-1.23-2.8-1.15-4.08,3.08-1.43,3.01-4.71,2.8-8.07,1.61-.21,5.68,5.66,9.43,5.46,2.35-.12,3.74-1.48,5.21-3.01,1.47-1.53,2.82-3.44,5.73-3.96-2.4-.87-3.28-.77-5.12-.61,1.02-2.23,1.95-3.34,4.44-4.3-.26-.46-1.96-1.22-3.66-.93.85-1.94,3.55-.91,5.16.37-.78-1.55-.73-1.73-2.12-2.93,1.68-.34,2.28,1.09,3.49,2.2.55.5.94.8,1.71.61.48-.12.98-.37,1.23-.62-1.07.01-2.29-2.8-4.23-3.67-1.17-.52-3-1.23-4.72.22-1.43,1.21-2.15,3.75-2.75,6.2-.7,2.87-.94,5.49-3.9,6.69-.54.21-.77-.51-.37-.61.32-.08,1.74-1,2.25-2.19,1.56-3.59,1.05-7.86,4.28-11.16-.1-.21-.2-.41-.31-.57-1.83,1.63-3.16,3.63-3.96,5.81-.64,1.75-.76,3.82-.94,5.48-.05.39-.54.47-.62.28-.13-.33-.14-3.1.86-6.05.78-2.31,2.14-4.53,4.18-6.24.18-2.1-.69-2.88-1.8-3.22.58,1.91-1.07,4.45-2.35,7.13-.88,1.84-1.55,3.78-1.37,5.5-.25-.77-.88-1.48-1.3-1.64.14,1.27.2,2.5.17,3.5-.06,2.05-.54,3.38-1.79,3.69-2.23.55-3.23-1.64-6.63-3.01-2.8-5.58-5.39-10.55-8.82-16.27-.14-.24.36-1.56,1-2.84-2.2-.95-4.93-2.75-7.22-3.67-1.76-.71-3.63-.69-4-1.23-.29.32-1.36,2.46-1.56,3.69,1.15-.33,2.29-1.67,3.17-1.75,1.11-.1.97.57.95.7-.08,0-1.05.53-1.95,1.12-.95.63-1.9,1.33-2.72,1.16-2.29-.47-4.7-.73-6.86-.91-.73-.07-1.45-.17-2.09.14-.98.48-1.82,1.44-3.03,2.45-1.36,1.15-3.49,2.43-4.87,3.16-.27.14-.72,1.22-.7,2.32-.79,1.82-1.08,3.14-1.5,4.47.82-.32,2.46-.77,3.69-1.64.06-.96-.01-2.33-.02-3.16,1.14-.23,1.3-1.47,2.62-2.43,1.29-.93,3.32-3.07,4.17-3.16,1.59.19,4.65,2.47,8.54,3.35,1.02.16,2.46.17,3.6-.18.77.39,2.1.25,2.21.22h0Zm-4.93-9.77c-.66-1.05-2.1-2.18-3.5-3.26-1.29-1-2.39-2.08-3.68-3.13-.61-.5-4.59,1.51-6.88,1.84-1.79.26-3.28-.18-3.44.48-.39,1.65-1.22,2.08-2.19,3.51-.75,1.11-1.16,2.09-1.36,3.05,1.05.3,2.85.18,3.9-.62.2-.87.39-3.46,1.64-4.29.67-.44.87.31,1.91.18.57-.07,1-.45,1.46-.73.77-.46,1.84-.83,3.67-.9,2.65,1.96,4.89,3.53,4.65,7.29.96.07,1.85.34,2.53.48.24-1.37.75-2.63,1.29-3.9h0Zm14.53,18.92l-.98-1.89c-.26-.51-1.16-.11-.9.39l1.06,2.02c.29.55,1.09.01.82-.52h0Zm-1.25,2.96c-.21-1.4-.86-2.77-1.38-3.5-.34-.47-1.19-.03-.88.44.77,1.17,1.09,2.09,1.41,3.31.16.6.93.34.84-.25h0Zm-1.62-12.07l-1.25-2.1c-.29-.5-1.19-.09-.9.39l1.33,2.22c.32.53,1.12,0,.82-.51h0Zm23.48,16.68c-.75.97-1.76,1.98-2.9,2.7-.5.3-1.22-.07-.55-.65.84-.73,1.85-1.51,2.97-2.8.32-.37.79.35.48.75h0Zm-22.11,3.66c.69.52.96,1.53,2.32,2.08,1.58-.48,2.13-2.16,2.08-4.23-.01-.49.98-.11,1.03.38.21,2.2-1.54,4.51-3.01,4.81-.71.05-2.45-.78-3.45-2.56-.31-.55.52-.86,1.03-.47h0Zm-3.32-41.52c1.13-1.92-.56-2.8-1.61-2.5-1.21.34-.65,1.68,0,1.71.3.02.59-.36.89-.34.39.18.74.47.72,1.13h0Zm3.61,10.76c.52-.5.83-1.26.55-2.25.6.23,1.16.16,1.38-.24.14-.25.21-.47.05-.76.33-.14.5-.39.6-.63.1-.25.05-.66-.17-.94.44-.11.76-.29.84-.57.1-.39-.06-.81-.17-1.2.29-.23.49-.56.51-.86.02-.36-.28-.68-.54-1.05.29-.34.48-1.29.4-1.7-.15-.77-.26-1.47-.61-2-.19-.29-.56-.75-.93-.97-.63-.37-1.32-.44-1.35-.73.51-2.18.22-3.68-.54-4.85-1.09,1.12-.96,2.73-.98,3.48-.11.23-.47.32-.67.14-.2-.18-.24-.62-.38-.66-.88-.19-2.03.25-2.66.5-1.73.69-3.23,2.1-5.28,3.59-1.45,1.04-3.46,1.19-3.56,2.65-.03.48.38.58.91.57.26,0,.5-.06.75-.16.2-.08.36-.16.45-.17.1-.04.29.11.23.22-.1.19-.55.55-.36.92.28.55.79,1,1.39.99.9-.02,1.68-2.32,3.31-2.4,1.17-.06,1.82.79,3.08.93.8.09,2.61-.68,2.48-2.03-.06-.61,1.05-.48,1.01-.16-.08,6.25-3.12,6.12-5.34,7.04.49.27.97.56,1.48.87,1.07.66,2.48,1.57,4.12,2.44h0Z"/>
      <path class="cls-6" d="m222.37,109.09c.13-.34.48-.7.66-.91.25-.29.55-.51.87-.66,0-.26-.04-.73.13-1.02.12-.22.49-.34.76-.43-.05-.26-.18-.62-.07-.87.19-.47.59-.65.69-1.15.07-.33-.32-.76-.28-1.09.03-.24.05-.49.07-.73.14-2.37-.5-4.88-2.37-6.46-.17-.14-.34-.27-.52-.39.09-.55.13-1.1.12-1.64,1.14-.45,2.24.38,2.19,1.91,0,.26.15.55.46.57,1.76.17,2.22,1.73,1.68,4.39,1.68-.01,1.64,2.27.07,2.64.27,1.88,1.28,4.2-.72,4.05.39,1.67-.02,2.16-1.09,2.37-.14,1.03-.66,1.36-1.35,1.52-.73.17-1.75-.82-1.27-2.08h0Z"/>
      <path class="cls-6" d="m223,112.24c-.75-.3-1.48-.63-2.19-.98l1.27,2.68c.37-.5.68-1.1.92-1.7h0Zm-3.26-1.54c-.43-.23-.86-.48-1.28-.72l2.3,4.85.11.04s.05.01.08.01c.19,0,.42-.16.62-.35l-1.83-3.82Zm-2.41-1.4c-.41-.25-.82-.5-1.23-.75l2.52,5.31c.39.2.78.39,1.16.57l-2.45-5.13Zm-2.37-1.45c-.44-.26-.87-.49-1.29-.68l2.54,5.36.27.15c.35.19.71.4,1.08.6l-2.6-5.43Zm-2.28-1.04c-.3-.09-.61-.15-.94-.19l2.16,4.72c.42.2.83.41,1.25.62l-2.47-5.15Zm-1.77-.23c-.31,0-.64.03-.99.08-.03.05-.05.1-.07.16l1.66,3.63c.46.11.91.25,1.35.43l.06.02-2-4.33Zm-1.36,1.37c-.13.74-.2,1.56-.15,2.03.31.1.83.19,1.04.23l.18.04-1.07-2.3Z"/>
      <path class="cls-6" d="m216.88,91.04c-.04.68,0,1.36.07,1.98.67-.13,1.17-.12,1.57-.09,0-.14.01-.26.06-.42-.23-.24-.47-.46-.76-.7-.35-.28-.66-.53-.94-.78h0Z"/>
    </g>
  </g>
</svg>