<?xml version="1.0" encoding="UTF-8"?>
<svg id="Layer_2" data-name="Layer 2" xmlns="http://www.w3.org/2000/svg" viewBox="0 0 271.8 346.53">
  <defs>
    <style>
      .cls-1 {
        fill: #151329;
      }

      .cls-1, .cls-2, .cls-3, .cls-4 {
        fill-rule: evenodd;
        stroke-width: 0px;
      }

      .cls-2 {
        fill: #e32329;
      }

      .cls-3 {
        fill: #fff;
      }

      .cls-4 {
        fill: #f1d222;
      }
    </style>
  </defs>
  <g id="Layer_1-2" data-name="Layer 1">
    <g>
      <path class="cls-3" d="m222.58,4.82c48.25,0,44.32,42.92,44.32,42.92v185.16c0,4.21-2.53,36.46-21.6,58.92-22.41,26.35-51.9,29.73-69.58,34.21-17.67,4.49-39.83,15.15-39.83,15.15,0,0-22.16-10.66-39.82-15.15-17.68-4.48-47.17-7.86-69.57-34.21-19.08-22.45-21.6-54.71-21.6-58.92V47.75S.97,4.82,49.22,4.82h173.36Z"/>
      <path class="cls-1" d="m222.58,4.82V0c10.98,0,19.75,2.11,26.63,5.63,10.37,5.27,16.17,13.63,19.14,21.3,3.01,7.7,3.44,14.79,3.44,18.52,0,1.62-.09,2.6-.09,2.73l-4.8-.44h4.81v185.16c0,1.44-.17,4.3-.73,8.47-1.71,12.39-6.73,35.5-22.01,53.56-23.69,27.87-55.01,31.39-72.06,35.77-8.43,2.14-18.25,5.86-25.88,9.04-3.82,1.59-7.09,3.04-9.41,4.1-1.16.52-2.07.95-2.7,1.24-.63.3-.94.45-.94.45l-2.09,1.01-2.09-1.01s-.32-.15-.94-.45c-4.34-2.05-23.18-10.63-37.98-14.38h0c-17.05-4.38-48.37-7.9-72.06-35.77-10.2-12.03-15.8-26.34-18.94-38.19-1.57-5.92-2.52-11.24-3.08-15.38-.56-4.17-.73-7.03-.73-8.47V47.75h4.82l-4.8.44c-.01-.13-.1-1.11-.1-2.73.03-4.95.73-15.97,7.43-26.29,3.35-5.14,8.27-10.04,15.16-13.54C29.48,2.11,38.24,0,49.22,0h173.36s0,9.65,0,9.65H49.22c-9.77,0-16.93,1.85-22.25,4.57-7.96,4.08-12.14,10.15-14.55,16.23-2.39,6.07-2.78,12.06-2.78,15.01,0,.64.02,1.13.03,1.45l.02.34v.06s-.9.07-.9.07l.91-.08h0s-.91.08-.91.08l.91-.08.02.22v185.37c0,.67.14,3.41.65,7.18,1.5,11.4,6.47,33.01,19.81,48.61,21.12,24.84,48.78,28.08,67.08,32.66l-.58-.14.59.14c18.4,4.71,40.57,15.43,40.72,15.48l-2.09,4.35-2.09-4.35c.15-.06,22.33-10.77,40.74-15.48,18.3-4.58,45.96-7.82,67.09-32.66,8.87-10.42,14.08-23.46,16.96-34.41,1.45-5.47,2.33-10.41,2.84-14.2.51-3.77.65-6.51.64-7.18V47.53l.02-.22.92.08-.92-.07h0s.92.07.92.07l-.92-.07c0-.06.05-.73.05-1.85.04-3.94-.72-13.24-5.85-21.02-2.57-3.91-6.15-7.5-11.47-10.22-5.33-2.72-12.49-4.57-22.25-4.57v-4.83h0Z"/>
      <path class="cls-2" d="m147.96,207.07l-.03.19v-.19h.03l-.03.19v-.19c.15,0,2.35-.14,6.99-5.58l1.11.95c-4.76,5.56-7.25,6.06-8.1,6.08l-.23-.02.27-1.44h0Zm-.8,8.32s.07-1.06.07-2.69c0-2.95-.24-7.79-1.5-11.33l1.38-.49c1.36,3.87,1.58,8.78,1.59,11.82,0,1.67-.08,2.77-.08,2.78l-1.46-.09h0Zm-25.91-19.46c.06-.02,7.11-5.87,14.64-5.91,7.52.04,14.57,5.89,14.64,5.91l-.92,1.13s-.41-.34-1.17-.86c-2.25-1.59-7.48-4.73-12.54-4.71-3.37,0-6.83,1.37-9.42,2.78-1.3.7-2.37,1.41-3.13,1.93-.75.52-1.16.86-1.16.86l-.93-1.13h0Zm-.22-2.11c.05.75,1.27,2.59,2.47,4.04,1.2,1.48,2.38,2.68,2.38,2.69l-.52.51-.5-.53c3.9-3.58,10.9-3.48,11.02-3.52v.73l-.62-.39.62-.34v.73l-.62-.39.62.39-.69-.26.06-.13.62.39-.69-.26.18-.48h1.09l.14.55-.71.18.67-.29.04.11-.71.18.67-.29-.1-.17-.57.46v-.73l.57.27-.57.46v-.73c.11.04,7.11-.06,11.02,3.52l-.5.53-.52-.51s1.17-1.21,2.38-2.69c1.21-1.45,2.42-3.3,2.47-4.04l1.45.18c-.23,1.5-1.54,3.23-2.79,4.79-1.25,1.54-2.46,2.77-2.46,2.78l-.5.52-.53-.49c-1.59-1.5-4.09-2.32-6.2-2.71-2.11-.4-3.81-.4-3.81-.4l-.57-.27-.14-.28.71-.18v.73h-.01v-.73l.68.26-.06.13-.62.34s-1.7,0-3.82.4c-2.11.39-4.62,1.21-6.21,2.71l-.52.49-.5-.52s-1.21-1.24-2.46-2.78c-1.25-1.57-2.56-3.29-2.79-4.79l1.45-.18h0Zm18.96,4.04s1.75,6.62,1.76,12.98v1.04s-1.47-.04-1.47-.04v-.99c.01-3.04-.41-6.21-.84-8.61-.43-2.4-.85-4-.85-4.01l1.42-.37h0Zm-15.91,10.65l-.23.02c-.84-.01-3.35-.52-8.1-6.08l1.11-.95c4.63,5.44,6.83,5.58,6.98,5.58v.18l-.03-.18h.03v.18l-.03-.18.27,1.44h0Zm-.93,6.98s-.07-1.11-.07-2.78c0-3.04.22-7.96,1.59-11.82l1.38.49c-1.26,3.54-1.51,8.38-1.5,11.33,0,1.63.07,2.69.07,2.69l-1.46.09h0Zm10.04-17.26s-.43,1.61-.86,4.01c-.43,2.39-.86,5.56-.86,8.61l.02.99-1.46.04-.02-1.04c0-6.36,1.76-12.95,1.77-12.98l1.41.37h0Zm2.7-12.2v.73c-10.8.01-19.55,8.76-19.57,19.57.02,10.81,8.76,19.54,19.57,19.56,10.8-.01,19.54-8.75,19.56-19.56-.02-10.81-8.76-19.55-19.56-19.57v-1.46c11.61,0,21.03,9.41,21.03,21.03s-9.42,21.02-21.03,21.03c-11.61,0-21.03-9.41-21.03-21.03,0-11.62,9.42-21.02,21.03-21.03v.73h0Z"/>
      <path class="cls-1" d="m36.21,142.46l1.8-3.9c2.19.9,3.74,2.15,4.66,3.74.91,1.58,1.23,3.49.95,5.72-.34,2.76-1.57,4.9-3.68,6.44-2.1,1.55-4.79,2.11-8.05,1.7-3.46-.43-6.03-1.66-7.71-3.68-1.69-2.03-2.35-4.49-1.99-7.41.32-2.54,1.33-4.5,3.03-5.9,1.01-.83,2.37-1.38,4.09-1.65l.47,4.27c-1.11.11-2.02.52-2.74,1.22-.72.7-1.15,1.61-1.29,2.72-.2,1.54.2,2.86,1.19,3.95.99,1.1,2.71,1.8,5.18,2.11,2.63.32,4.56.09,5.79-.72,1.23-.8,1.94-1.96,2.13-3.47.14-1.11-.09-2.12-.7-3-.61-.89-1.65-1.61-3.13-2.15h0Z"/>
      <path class="cls-1" d="m38.22,129.87l.28-.8c.33-.91.64-1.56.94-1.93l1.24-.9c.53-.24,1.75-.59,3.64-1.07l5.31-1.36,1.68-4.76-4.7,1.04c-1.87.42-3.21.79-4.01,1.14-.8.35-1.6.86-2.41,1.55.36-1.82.22-3.33-.44-4.55-.66-1.21-1.72-2.08-3.2-2.6-1.17-.41-2.31-.5-3.42-.24-1.11.25-2,.8-2.7,1.62-.7.83-1.42,2.3-2.16,4.4l-2.97,8.38,19.72,6.99,1.41-3.99-8.23-2.92h0Zm-7.05-5.99c.57-1.62.94-2.58,1.1-2.88.33-.61.77-1.01,1.3-1.23.54-.21,1.13-.19,1.8.04.59.22,1.04.52,1.34.93l.44,1.41c0,.53-.35,1.75-1.03,3.66l-1.04,2.95-5-1.77,1.1-3.1h0Z"/>
      <polygon class="cls-1" points="60.61 104.16 52.29 117.71 34.46 106.76 42.59 93.54 45.6 95.4 39.69 105.01 43.64 107.45 49.14 98.49 52.14 100.34 46.64 109.28 51.49 112.27 57.61 102.31 60.61 104.16 60.61 104.16"/>
      <polygon class="cls-1" points="67.52 96.31 64.25 99.52 46.03 88.1 49.12 85.07 61.43 93.11 54.1 80.18 57.68 76.66 70.53 84.51 62.58 71.84 65.61 68.86 76.65 87.34 73.45 90.48 59.52 82.25 67.52 96.31 67.52 96.31"/>
      <polygon class="cls-1" points="95.03 75.64 81.39 83.83 70.62 65.89 83.93 57.91 85.75 60.94 76.07 66.76 78.46 70.73 87.46 65.33 89.27 68.35 80.27 73.75 83.2 78.63 93.22 72.62 95.03 75.64 95.03 75.64"/>
      <path class="cls-1" d="m105.11,49.91l-2.7,22.28,4.34-1.11.49-5.03,8.09-2.08,2.95,4.15,4.45-1.14-13.31-18.19-4.32,1.11h0Zm3.32,4.18l4.72,6.8-5.52,1.42.81-8.22h0Z"/>
      <polygon class="cls-1" points="138.78 66.36 124.08 67.16 122.95 46.44 127.16 46.21 128.1 63.42 138.59 62.84 138.78 66.36 138.78 66.36"/>
      <polygon class="cls-1" points="156.61 68.58 140.84 66.48 143.62 45.74 158.99 47.8 158.52 51.3 147.33 49.81 146.71 54.41 157.12 55.8 156.66 59.29 146.25 57.9 145.5 63.54 157.08 65.09 156.61 68.58 156.61 68.58"/>
      <polygon class="cls-1" points="161.87 70.19 157.08 68.54 167.39 60.55 164.51 48.98 169.18 50.59 170.96 58.31 177.04 53.29 181.67 54.88 172.2 62.37 175.46 74.87 170.65 73.22 168.62 64.86 161.87 70.19 161.87 70.19"/>
      <path class="cls-1" d="m194.59,61.91l-18.03,13.39,3.8,2.38,3.99-3.1,7.08,4.45-.98,5,3.89,2.45,4.03-22.17-3.78-2.38h0Zm-.75,5.3l-1.68,8.1-4.84-3.04,6.52-5.06h0Z"/>
      <polygon class="cls-1" points="197.94 90.09 195.13 87.36 209.74 72.38 212.68 75.26 209.05 91.23 218.81 81.24 221.62 83.97 207.01 98.94 203.98 95.98 207.47 80.33 197.94 90.09 197.94 90.09"/>
      <path class="cls-1" d="m213.39,107.9c.86,1.29,1.68,2.25,2.44,2.87,1.03.81,2.04,1.32,3.04,1.54,1.33.28,2.76.22,4.32-.19,1.28-.33,2.63-.98,4.06-1.93,1.63-1.09,2.88-2.2,3.73-3.31.86-1.12,1.43-2.31,1.71-3.55.28-1.24.23-2.47-.14-3.69-.29-.91-.91-2.09-1.88-3.54l-4.28-6.42-17.4,11.6,4.41,6.62h0Zm15.2-8.17c.3.76.38,1.47.27,2.18-.12.69-.46,1.4-1.02,2.11-.56.72-1.51,1.53-2.87,2.43-1.34.9-2.48,1.49-3.42,1.77-.93.29-1.7.35-2.29.2-.6-.14-1.15-.46-1.67-.93-.4-.37-.93-1.04-1.58-2.01l-1.75-2.63,11.53-7.69,1.06,1.58c.95,1.44,1.54,2.43,1.75,3h0Z"/>
      <path class="cls-1" d="m229.35,118.57l.31.79c.36.9.55,1.59.57,2.06l-.34,1.5c-.25.52-.93,1.6-2.05,3.2l-3.1,4.52,1.86,4.69,2.85-3.87c1.15-1.54,1.9-2.7,2.28-3.49.38-.79.64-1.71.8-2.75.92,1.61,2.03,2.66,3.32,3.13,1.29.48,2.66.44,4.13-.14,1.15-.45,2.06-1.14,2.73-2.06.66-.92.98-1.92.96-3-.03-1.08-.45-2.67-1.27-4.74l-3.27-8.26-19.45,7.71,1.55,3.92,8.12-3.21h0Zm9.25-.13c.63,1.6.99,2.56,1.07,2.9.14.68.09,1.27-.18,1.78-.26.5-.72.89-1.38,1.15-.59.23-1.12.29-1.61.18l-1.26-.78c-.35-.4-.89-1.55-1.63-3.44l-1.15-2.9,4.93-1.95,1.22,3.06h0Z"/>
      <path class="cls-1" d="m248.76,141.64l-21.84-5.15.62,4.44,4.94,1.04,1.17,8.28-4.46,2.47.64,4.55,19.55-11.21-.63-4.43h0Zm-4.52,2.85l-7.28,3.94-.8-5.66,8.08,1.72h0Z"/>
      <polygon class="cls-1" points="34.08 211.76 32.09 208.04 50.51 198.14 57.3 210.78 54.18 212.45 49.39 203.54 45.03 205.88 49.16 213.57 46.04 215.25 41.91 207.55 34.08 211.76 34.08 211.76"/>
      <path class="cls-1" d="m45.04,225.38c-.3,2.62.54,5.14,2.53,7.54,1.95,2.37,4.25,3.66,6.89,3.87,2.64.2,5.27-.77,7.87-2.92,2.63-2.17,4.09-4.57,4.39-7.22.3-2.64-.53-5.15-2.49-7.54-1.09-1.31-2.26-2.29-3.51-2.95-.94-.5-1.99-.8-3.17-.89-1.17-.09-2.33.01-3.45.32-1.52.42-3.1,1.32-4.75,2.67-2.57,2.12-4,4.49-4.3,7.11h0Zm12.36-6.05c1.6.06,2.95.77,4.06,2.11,1.1,1.34,1.54,2.79,1.3,4.36-.24,1.56-1.28,3.1-3.13,4.63-1.88,1.54-3.62,2.28-5.24,2.22-1.62-.06-2.97-.74-4.04-2.04-1.07-1.3-1.48-2.76-1.24-4.38.25-1.62,1.28-3.19,3.11-4.69,1.86-1.53,3.59-2.26,5.19-2.21h0Z"/>
      <path class="cls-1" d="m61.06,243.25c.26,2.62,1.62,4.9,4.06,6.83,2.42,1.9,4.93,2.67,7.56,2.31,2.62-.36,4.98-1.87,7.07-4.52,2.11-2.67,3.03-5.34,2.76-7.98-.27-2.64-1.61-4.93-4.04-6.83-1.34-1.06-2.69-1.77-4.05-2.14-1.02-.29-2.12-.35-3.29-.19-1.17.15-2.27.5-3.3,1.04-1.4.75-2.75,1.95-4.07,3.62-2.07,2.61-2.96,5.24-2.69,7.87h0Zm10.79-8.54c1.58-.28,3.05.12,4.42,1.21,1.37,1.08,2.1,2.4,2.19,3.97.1,1.58-.6,3.31-2.08,5.2-1.5,1.9-3.05,3-4.65,3.28-1.6.3-3.06-.09-4.38-1.13-1.32-1.05-2.04-2.39-2.14-4.02-.1-1.64.58-3.38,2.05-5.25,1.48-1.89,3.02-2.97,4.59-3.25h0Z"/>
      <polygon class="cls-1" points="85.71 262.63 81.96 260.7 89.89 245.24 84.38 242.41 85.99 239.26 100.78 246.85 99.16 250 93.66 247.17 85.71 262.63 85.71 262.63"/>
      <path class="cls-1" d="m110.57,262.37l1.01,1.28c.17.5.18,1.06.02,1.66-.2.71-.54,1.24-1.05,1.56-.49.31-1.06.45-1.7.39-.42-.03-1.36-.24-2.82-.65l-3.77-1.05,1.5-5.39,3.28.91c1.85.51,3.02.94,3.53,1.29h0Zm-6.46,7.37c2.6.7,4.25,1.11,4.94,1.22,1.11.18,2.11.11,3-.2.88-.32,1.66-.84,2.32-1.6.67-.74,1.13-1.58,1.38-2.49.32-1.16.27-2.27-.15-3.31-.42-1.04-1.2-1.92-2.32-2.62.97-.16,1.83-.55,2.56-1.2.73-.65,1.22-1.45,1.48-2.38.25-.87.25-1.72.04-2.54-.22-.81-.58-1.52-1.08-2.11-.5-.59-1.13-1.06-1.88-1.42-.74-.35-1.91-.75-3.51-1.19l-8.06-2.24-5.59,20.16,6.86,1.9h0Zm7.66-15.9c.66.27,1.11.65,1.34,1.14.24.49.27,1.03.1,1.66-.18.66-.52,1.12-1.03,1.41-.51.29-1.13.38-1.85.27-.4-.06-1.39-.31-2.97-.75l-2.67-.74,1.29-4.66,2.34.65c1.92.53,3.07.88,3.46,1.03h0Z"/>
      <path class="cls-1" d="m126.5,252.86l-9.68,20.25,4.47.34,2.07-4.61,8.34.61,1.47,4.88,4.58.34-6.8-21.48-4.45-.34h0Zm1.81,5.03l2.3,7.95-5.7-.42,3.4-7.53h0Z"/>
      <polygon class="cls-1" points="154.86 272.93 140.2 274.33 138.23 253.68 142.44 253.28 144.08 270.42 154.53 269.42 154.86 272.93 154.86 272.93"/>
      <polygon class="cls-1" points="173.02 268.34 158.79 272.11 153.47 252.06 157.55 250.98 161.97 267.63 172.12 264.93 173.02 268.34 173.02 268.34"/>
      <path class="cls-1" d="m190.29,251.73l4.23-.78c.52,2.31.4,4.3-.37,5.96-.77,1.67-2.14,3.02-4.12,4.09-2.45,1.31-4.92,1.55-7.38.71-2.48-.83-4.49-2.71-6.03-5.61-1.64-3.07-2.12-5.88-1.44-8.43.68-2.54,2.32-4.5,4.9-5.88,2.26-1.21,4.45-1.52,6.57-.93,1.26.34,2.5,1.13,3.7,2.39l-3.22,2.84c-.73-.84-1.59-1.36-2.57-1.54-.99-.18-1.98,0-2.97.52-1.37.73-2.21,1.81-2.54,3.25-.33,1.44.1,3.26,1.27,5.46,1.25,2.33,2.55,3.77,3.92,4.31,1.37.55,2.72.46,4.07-.25.98-.54,1.67-1.3,2.04-2.31.38-1.02.37-2.28-.05-3.79h0Z"/>
      <polygon class="cls-1" points="213.21 244.42 201.69 253.6 188.78 237.36 192.08 234.73 202.81 248.21 211.02 241.67 213.21 244.42 213.21 244.42"/>
      <path class="cls-1" d="m207.76,236.24l-8.29-7.47,2.83-3.13,8.41,7.59c1.33,1.2,2.24,1.95,2.7,2.23.76.44,1.56.58,2.4.42.84-.17,1.66-.68,2.45-1.55.8-.89,1.22-1.73,1.26-2.51.05-.77-.15-1.45-.6-2.02-.45-.57-1.29-1.41-2.52-2.52l-8.59-7.75,2.83-3.14,8.15,7.36c1.87,1.68,3.11,2.95,3.72,3.82.62.86.99,1.77,1.11,2.7.12.93-.01,1.92-.38,2.97-.38,1.05-1.12,2.19-2.23,3.42-1.34,1.49-2.52,2.45-3.56,2.91-1.03.45-2.03.66-2.98.61-.95-.05-1.79-.27-2.52-.68-1.07-.6-2.48-1.67-4.22-3.25h0Z"/>
      <path class="cls-1" d="m228.04,211.22l1.49-.65c.53-.04,1.07.11,1.61.42.63.39,1.05.86,1.23,1.42.18.57.15,1.15-.07,1.75-.14.39-.59,1.24-1.37,2.55l-2,3.36-4.81-2.85,1.74-2.93c.98-1.65,1.7-2.67,2.17-3.07h0Zm5.41,8.17c1.35-2.33,2.18-3.82,2.47-4.46.47-1.03.66-2,.6-2.94-.08-.93-.39-1.82-.93-2.65-.55-.85-1.23-1.51-2.05-1.99-1.03-.62-2.11-.86-3.23-.73-1.12.14-2.17.65-3.13,1.57.11-.99-.05-1.92-.48-2.79-.43-.87-1.08-1.55-1.92-2.05-.77-.47-1.59-.7-2.44-.7s-1.61.16-2.32.49c-.7.33-1.33.81-1.86,1.44-.53.63-1.22,1.65-2.07,3.08l-4.26,7.19,17.99,10.68,3.64-6.12h0Zm-13.33-11.57c.43-.57.91-.89,1.44-.99.53-.1,1.08,0,1.63.34.58.34.94.8,1.09,1.37.15.57.07,1.18-.23,1.85-.16.37-.66,1.26-1.5,2.67l-1.41,2.39-4.16-2.48,1.23-2.08c1.02-1.71,1.65-2.74,1.91-3.07h0Z"/>
      <path class="cls-4" d="m171.31,98.84s-8.71,6.77-17.2,6.66c-8.49-.11-13.42-3.46-14.26-4.18-.84-.72-3.96-2.92-3.96-2.92,0,0,3.18-2.14,4.03-2.83.85-.69,5.87-3.92,14.36-3.82,8.48.1,17.02,7.08,17.02,7.08h0Z"/>
      <path class="cls-1" d="m171.31,98.84l.25.32s-8.62,6.72-17.25,6.75h-.21c-8.6-.12-13.6-3.5-14.51-4.28-.8-.68-3.93-2.9-3.93-2.9l-.49-.34.49-.33s3.19-2.15,4.01-2.81c.91-.74,5.85-3.9,14.2-3.91h.42c8.7.12,17.25,7.16,17.28,7.18l.4.33-.41.31-.25-.32-.26.32s-2.11-1.72-5.27-3.46c-3.16-1.74-7.37-3.48-11.5-3.53h-.41c-8.13,0-12.94,3.11-13.69,3.72-.89.72-4.06,2.84-4.07,2.85l-.23-.34.23-.34s3.12,2.21,4,2.95c.75.64,5.62,3.97,13.99,4.07h.2c4.1,0,8.3-1.64,11.46-3.28,3.17-1.65,5.27-3.29,5.28-3.29l.25.32-.26.32.26-.32h0Z"/>
      <path class="cls-4" d="m172.03,98.74s-11.03.09-17.71-5.15c-6.68-5.23-8.57-10.89-8.79-11.96-.23-1.07-1.37-4.74-1.37-4.74,0,0,3.83.24,4.92.21,1.1-.04,7.05.44,13.73,5.68,6.68,5.24,9.23,15.96,9.23,15.96h0Z"/>
      <path class="cls-1" d="m172.03,98.74v.4s-.04,0-.04,0c-.72-.02-11.3-.06-17.93-5.24-6.76-5.31-8.69-11.03-8.94-12.21-.22-1.02-1.37-4.68-1.37-4.69l-.18-.56.59.04s3.38.2,4.67.2h.34c1.44,0,7.3.62,13.87,5.76,6.83,5.38,9.36,16.16,9.38,16.19l.11.49h-.5s-.01-.39-.01-.39l-.4.09s-.63-2.64-2.09-5.95c-1.45-3.31-3.74-7.24-7-9.79-6.39-5.01-12.1-5.6-13.36-5.6h-.34c-1.34,0-4.71-.2-4.72-.2l.03-.41.39-.11s1.14,3.64,1.38,4.76c.2.98,2.05,6.58,8.64,11.74,6.29,4.94,16.77,5.07,17.42,5.06h.03v.41s-.39.09-.39.09l.4-.09h0Z"/>
      <path class="cls-4" d="m188.66,112.04s-10.32,3.89-18.39,1.29c-8.08-2.6-11.81-7.26-12.39-8.18-.58-.93-2.92-3.97-2.92-3.97,0,0,3.67-1.11,4.68-1.51,1.02-.41,6.76-2.03,14.85.58,8.08,2.6,14.18,11.79,14.18,11.79h0Z"/>
      <path class="cls-1" d="m188.66,112.04l.14.38s-5.85,2.21-12.25,2.22c-2.14,0-4.34-.25-6.41-.92-8.18-2.64-11.97-7.34-12.61-8.35-.56-.88-2.9-3.93-2.91-3.94l-.36-.47.57-.17s3.68-1.1,4.65-1.49c.65-.26,2.83-.9,6.15-.9,2.45,0,5.5.34,8.97,1.47,8.27,2.68,14.36,11.92,14.39,11.94l.28.43-.48.18-.14-.38-.34.22s-1.5-2.27-4.01-4.86c-2.51-2.6-6.01-5.5-9.95-6.77-3.39-1.09-6.36-1.42-8.73-1.42-3.2,0-5.33.62-5.84.84-1.06.42-4.71,1.52-4.72,1.52l-.12-.4.32-.25s2.33,3.03,2.95,4c.53.84,4.21,5.46,12.17,8.02,1.97.63,4.09.88,6.16.88,6.21,0,11.95-2.18,11.96-2.16l.15.38-.34.22.34-.22h0Z"/>
      <path class="cls-4" d="m188.85,112.72s-10.45-3.51-15.07-10.63c-4.61-7.12-4.54-13.09-4.41-14.18.13-1.09.24-4.91.24-4.91,0,0,3.54,1.46,4.59,1.79,1.05.33,6.51,2.72,11.13,9.84,4.61,7.12,3.52,18.1,3.52,18.1h0Z"/>
      <path class="cls-1" d="m188.85,112.72l-.13.39s-10.54-3.51-15.28-10.8c-3.94-6.09-4.52-11.37-4.52-13.56l.04-.9c.13-1.04.24-4.87.24-4.88l.02-.59.55.22s3.55,1.47,4.56,1.78c1.14.36,6.67,2.79,11.35,10.01,3.21,4.96,3.7,11.65,3.7,15.43,0,1.79-.11,2.92-.11,2.94l-.05.51-.48-.16.13-.39-.41-.04s.11-1.1.11-2.85c0-3.71-.51-10.28-3.57-14.98-4.55-7.04-9.96-9.38-10.91-9.68-1.1-.34-4.62-1.8-4.63-1.8l.16-.38h.41s-.11,3.82-.24,4.96l-.04.8c0,2.05.54,7.17,4.39,13.11,2.24,3.47,5.96,6.11,9.12,7.86,3.16,1.75,5.73,2.61,5.74,2.61l-.13.39-.41-.04.41.04h0Z"/>
      <path class="cls-4" d="m200.57,130.12s-11.01.49-17.88-4.49c-6.86-4.99-8.96-10.58-9.23-11.65-.27-1.06-1.55-4.67-1.55-4.67,0,0,3.83.09,4.93.02,1.09-.07,7.06.19,13.93,5.17,6.87,4.99,9.81,15.62,9.81,15.62h0Z"/>
      <path class="cls-1" d="m200.57,130.12l.02.41-.84.02c-2.72-.02-11.41-.32-17.3-4.59-6.95-5.06-9.09-10.71-9.39-11.87-.25-1-1.54-4.63-1.54-4.63l-.2-.56h.59s2.03.06,3.54.06c.57,0,1.07,0,1.34-.02h.34c1.73-.01,7.4.57,13.85,5.24,7.03,5.12,9.94,15.81,9.96,15.84l.14.5-.51.02-.02-.41-.39.11s-.73-2.62-2.3-5.87c-1.58-3.25-4.01-7.1-7.35-9.53-6.28-4.55-11.79-5.09-13.37-5.09h-.29c-.32.03-.82.04-1.4.04-1.53,0-3.56-.05-3.56-.06v-.4s.4-.14.4-.14c0,0,1.27,3.61,1.56,4.71.24.96,2.3,6.5,9.07,11.42,5.59,4.06,14.17,4.43,16.82,4.42h.8s.02.4.02.4l-.39.11.39-.11h0Z"/>
      <path class="cls-4" d="m201.23,130.54s-9.02-6.35-11.4-14.49c-2.38-8.15-.62-13.85-.17-14.86.43-1,1.64-4.65,1.64-4.65,0,0,2.97,2.43,3.88,3.04.92.6,5.47,4.46,7.86,12.61,2.38,8.14-1.8,18.35-1.8,18.35h0Z"/>
      <path class="cls-1" d="m201.23,130.54l-.24.34s-9.09-6.37-11.56-14.71c-.93-3.18-1.23-5.99-1.23-8.31,0-3.71.77-6.14,1.08-6.83.42-.96,1.62-4.6,1.62-4.6l.19-.57.46.38s2.98,2.42,3.85,3c1,.67,5.6,4.58,8.02,12.84.54,1.85.75,3.8.75,5.71,0,6.68-2.55,12.89-2.56,12.92l-.19.47-.42-.3.24-.34-.38-.16s.62-1.52,1.25-3.86c.63-2.35,1.25-5.5,1.25-8.74,0-1.85-.2-3.71-.72-5.48-2.35-8.04-6.87-11.84-7.69-12.39-.95-.64-3.9-3.05-3.91-3.06l.26-.32.39.13s-1.19,3.63-1.65,4.68c-.24.55-1.01,2.92-1.01,6.51,0,2.24.3,4.98,1.2,8.08,1.16,3.96,3.97,7.55,6.5,10.13,2.53,2.58,4.75,4.14,4.75,4.14l-.24.34-.38-.16.38.16h0Z"/>
      <path class="cls-4" d="m207.07,150.81s-10.68-2.78-15.76-9.58c-5.09-6.79-5.44-12.75-5.38-13.85.05-1.09-.1-4.92-.1-4.92,0,0,3.64,1.22,4.7,1.47,1.07.25,6.69,2.26,11.78,9.05,5.09,6.79,4.76,17.82,4.76,17.82h0Z"/>
      <path class="cls-1" d="m207.07,150.81l-.1.4s-10.76-2.77-15.98-9.73c-4.87-6.49-5.46-12.24-5.47-13.85v-.26s.02-.62.02-.62c0-1.48-.11-4.26-.11-4.26l-.03-.6.57.2s3.65,1.22,4.66,1.46c1.17.28,6.85,2.33,12.01,9.2,4.61,6.18,4.83,15.56,4.84,17.65v.42s-.02.51-.02.51l-.5-.13.1-.4-.41-.02v-.4c.01-2.02-.27-11.31-4.68-17.16-5.02-6.7-10.59-8.67-11.55-8.9-1.11-.27-4.72-1.49-4.74-1.49l.13-.39h.41s.12,2.77.12,4.28v.66s-.02.22-.02.22c0,1.45.56,7.05,5.3,13.36,2.47,3.31,6.36,5.68,9.63,7.21,3.27,1.52,5.9,2.21,5.9,2.21l-.1.4-.41-.02.41.02h0Z"/>
      <path class="cls-4" d="m207.43,151.63s-6.65-8.8-6.43-17.29c.22-8.48,3.64-13.37,4.37-14.2.72-.82,2.98-3.92,2.98-3.92,0,0,2.09,3.21,2.77,4.06.68.86,3.85,5.93,3.63,14.41-.22,8.49-7.31,16.93-7.31,16.93h0Z"/>
      <path class="cls-1" d="m207.43,151.63l-.33.24s-6.5-8.56-6.52-17.12v-.42c.23-8.6,3.68-13.55,4.47-14.46.69-.78,2.95-3.89,2.96-3.89l.35-.49.32.5s2.1,3.22,2.75,4.03c.72.92,3.72,5.75,3.73,13.84v.84c-.26,8.7-7.41,17.14-7.42,17.18l-.33.4-.31-.42.33-.24-.32-.26s1.75-2.08,3.53-5.22c1.79-3.14,3.59-7.32,3.69-11.45v-.82c.01-7.87-2.95-12.58-3.54-13.33-.71-.89-2.79-4.09-2.79-4.1l.34-.22.33.24s-2.25,3.09-3,3.95c-.66.75-4.06,5.57-4.26,13.94v.4c0,4.07,1.57,8.24,3.16,11.39,1.59,3.14,3.18,5.24,3.18,5.24l-.33.24-.32-.26.32.26h0Z"/>
      <path class="cls-4" d="m206.73,172.99s-9.26-6-11.96-14.04c-2.7-8.06-1.15-13.82-.75-14.84.39-1.03,1.46-4.71,1.46-4.71,0,0,3.06,2.31,3.99,2.87.93.58,5.64,4.25,8.33,12.3,2.7,8.05-1.08,18.41-1.08,18.41h0Z"/>
      <path class="cls-1" d="m206.73,172.99l-.22.35s-9.34-6.02-12.12-14.26c-1.21-3.6-1.58-6.74-1.58-9.25,0-3.15.59-5.23.84-5.87.38-.98,1.44-4.66,1.44-4.67l.17-.57.47.35s3.08,2.31,3.96,2.86c1.02.62,5.77,4.36,8.51,12.52.73,2.17.99,4.49.99,6.73,0,6.27-2.07,11.92-2.08,11.95l-.18.48-.43-.27.22-.35-.39-.14s.51-1.39,1.01-3.54c.51-2.16,1.02-5.08,1.01-8.13,0-2.18-.26-4.41-.95-6.47-2.65-7.94-7.32-11.56-8.16-12.08-.97-.6-4.02-2.9-4.03-2.9l.25-.33.39.12s-1.06,3.67-1.47,4.73c-.2.51-.78,2.54-.78,5.58,0,2.42.36,5.48,1.53,8.99,1.31,3.92,4.26,7.39,6.88,9.87,2.63,2.48,4.91,3.95,4.91,3.96l-.22.34-.39-.14.39.14h0Z"/>
      <path class="cls-4" d="m206.49,173.42s-3.55-10.45-.68-18.43c2.87-7.98,7.65-11.56,8.6-12.11.95-.55,4.06-2.8,4.06-2.8,0,0,.98,3.71,1.36,4.74.37,1.03,1.79,6.84-1.08,14.82-2.87,7.98-12.26,13.78-12.26,13.78h0Z"/>
      <path class="cls-1" d="m206.49,173.42l-.39.13s-1.82-5.35-1.82-11.36c0-2.43.3-4.98,1.15-7.33,2.92-8.1,7.74-11.73,8.79-12.33.9-.53,4.02-2.77,4.02-2.77l.48-.34.15.57s.98,3.72,1.34,4.71c.21.6.7,2.49.7,5.33,0,2.57-.4,5.92-1.78,9.76-2.96,8.18-12.4,13.97-12.43,13.99l-.44.27-.17-.49.39-.13-.21-.34s2.31-1.43,5-3.86c2.68-2.42,5.7-5.83,7.09-9.72,1.35-3.74,1.74-6.98,1.74-9.48,0-2.75-.48-4.58-.66-5.06-.39-1.07-1.36-4.76-1.36-4.76l.4-.12.24.34s-3.1,2.23-4.09,2.81c-.86.5-5.6,4.02-8.42,11.9-.81,2.24-1.1,4.7-1.1,7.06,0,5.85,1.78,11.09,1.78,11.1l-.39.13-.21-.34.21.34h0Z"/>
      <path class="cls-4" d="m199.32,193.52s-7.1-8.45-7.32-16.94c-.22-8.48,2.95-13.54,3.63-14.41.68-.85,2.77-4.07,2.77-4.07,0,0,2.26,3.1,2.98,3.92.72.82,4.15,5.71,4.36,14.2.22,8.49-6.42,17.29-6.42,17.29h0Z"/>
      <path class="cls-1" d="m199.32,193.52l-.31.26s-7.17-8.48-7.42-17.18v-.86c0-8.08,3-12.9,3.72-13.82.65-.82,2.74-4.04,2.75-4.04l.32-.5.35.49s2.26,3.1,2.95,3.89c.79.9,4.24,5.85,4.46,14.46v.42c-.01,8.56-6.49,17.08-6.5,17.11l-.31.41-.33-.4.31-.26-.33-.24s1.58-2.11,3.18-5.25c1.59-3.14,3.17-7.31,3.17-11.38v-.4c-.21-8.38-3.61-13.2-4.27-13.95-.75-.86-3-3.94-3-3.95l.33-.24.34.22s-2.08,3.21-2.79,4.1c-.59.75-3.56,5.44-3.55,13.31l.02.83c.1,4.13,1.9,8.31,3.69,11.45,1.78,3.14,3.53,5.22,3.53,5.22l-.31.27-.33-.24.33.24h0Z"/>
      <path class="cls-4" d="m197.97,193.49s.15-11.02,5.53-17.59c5.38-6.56,11.09-8.33,12.16-8.53,1.07-.22,4.76-1.27,4.76-1.27,0,0-.32,3.81-.31,4.91.01,1.1-.6,7.04-5.98,13.6-5.38,6.57-16.16,8.88-16.16,8.88h0Z"/>
      <path class="cls-1" d="m197.97,193.49h-.41s.12-11.11,5.62-17.85c5.46-6.66,11.22-8.45,12.4-8.67,1.03-.2,4.72-1.26,4.72-1.26l.57-.17-.05.59s-.31,3.77-.31,4.85v.06c0,1.28-.67,7.24-6.07,13.82-5.52,6.72-16.36,9-16.39,9.03l-.5.11v-.52s.42,0,.42,0l-.09-.4s2.66-.58,5.99-1.96c3.33-1.38,7.32-3.58,9.94-6.78,5.26-6.41,5.89-12.23,5.88-13.31v-.06c0-1.17.31-4.91.31-4.91l.41.04.12.39s-3.67,1.06-4.79,1.28c-.97.18-6.62,1.92-11.92,8.39-2.62,3.2-4,7.54-4.7,11.08-.7,3.54-.73,6.25-.74,6.26h-.41s-.09-.4-.09-.4l.09.4h0Z"/>
      <path class="cls-4" d="m185.21,211.05s-4.02-10.28-1.51-18.38c2.51-8.11,7.12-11.89,8.04-12.49.92-.6,3.94-2.98,3.94-2.98,0,0,1.14,3.66,1.56,4.67.42,1.01,2.1,6.75-.4,14.85-2.51,8.1-11.63,14.32-11.63,14.32h0Z"/>
      <path class="cls-1" d="m185.21,211.05l-.38.15s-2.36-6.02-2.36-12.54c0-2.04.23-4.13.84-6.11,2.54-8.22,7.21-12.05,8.21-12.71.88-.57,3.9-2.95,3.9-2.95l.46-.37.18.57s1.15,3.67,1.55,4.63c.27.67.97,2.96.97,6.45,0,2.4-.33,5.35-1.36,8.69-2.59,8.3-11.76,14.51-11.78,14.54l-.43.29-.18-.47.38-.15-.23-.34s2.25-1.53,4.81-4.07c2.57-2.54,5.43-6.09,6.65-10.03,1.01-3.25,1.33-6.12,1.33-8.44,0-3.36-.69-5.6-.91-6.14-.44-1.06-1.57-4.69-1.58-4.71l.39-.12.25.32s-3,2.37-3.96,3c-.83.54-5.41,4.25-7.87,12.26-.58,1.88-.81,3.9-.81,5.87,0,6.33,2.31,12.24,2.3,12.24l-.38.15-.23-.34.23.34h0Z"/>
      <path class="cls-4" d="m184.83,210.91s3.36-10.5,10.41-15.23c7.06-4.71,13.03-4.73,14.11-4.62,1.09.12,4.93.17,4.93.17,0,0-1.42,3.56-1.73,4.61-.31,1.05-2.62,6.56-9.68,11.27-7.05,4.72-18.05,3.79-18.05,3.79h0Z"/>
      <path class="cls-1" d="m184.83,210.91l-.39-.13s3.35-10.58,10.57-15.44c6.19-4.14,11.57-4.72,13.65-4.72l.73.04c1.04.11,4.88.16,4.89.17h.59s-.22.55-.22.55c0,0-1.42,3.57-1.71,4.58-.34,1.15-2.69,6.72-9.84,11.5-5.2,3.46-12.35,3.92-15.99,3.93-1.43,0-2.31-.08-2.32-.08l-.51-.04.15-.49.39.13.04-.41s.85.08,2.25.08c3.56,0,10.6-.5,15.54-3.8,6.96-4.64,9.23-10.1,9.51-11.05.33-1.1,1.73-4.64,1.74-4.64l.38.14v.42s-3.83-.06-4.97-.17l-.65-.03c-1.94,0-7.16.55-13.2,4.59-3.44,2.29-6.02,6.04-7.72,9.23-1.7,3.18-2.53,5.76-2.53,5.77l-.39-.12.04-.41-.04.41h0Z"/>
      <path class="cls-4" d="m166.9,223.09s-.8-10.99,4-18.01c4.79-7,10.32-9.25,11.38-9.54,1.06-.3,4.63-1.68,4.63-1.68,0,0,0,3.84.11,4.93.1,1.09,0,7.06-4.78,14.06-4.79,7-15.34,10.24-15.34,10.24h0Z"/>
      <path class="cls-1" d="m166.9,223.09l-.41.03s-.05-.7-.05-1.86c0-3.46.44-11.01,4.12-16.4,4.86-7.09,10.45-9.38,11.6-9.71,1.01-.29,4.59-1.67,4.6-1.67l.55-.21v.6s.02,3.84.11,4.89l.02.6c0,1.98-.57,7.45-4.87,13.74-4.93,7.16-15.52,10.38-15.55,10.4l-.49.15-.04-.51.41-.03-.12-.39s2.6-.8,5.8-2.46c3.21-1.67,6.98-4.2,9.32-7.62,4.2-6.13,4.73-11.45,4.73-13.28l-.02-.52c-.11-1.14-.12-4.95-.12-4.96h.41l.14.38s-3.56,1.37-4.67,1.69c-.96.27-6.43,2.47-11.15,9.39-3.51,5.12-3.98,12.55-3.97,15.94,0,1.13.05,1.8.05,1.8l-.41.03-.12-.39.12.39h0Z"/>
      <path class="cls-4" d="m165.91,223.38s6.4-8.98,14.55-11.32c8.16-2.33,13.85-.54,14.86-.09,1,.44,4.63,1.67,4.63,1.67,0,0-2.44,2.96-3.05,3.86-.62.9-4.49,5.45-12.66,7.78-8.15,2.34-18.34-1.9-18.34-1.9h0Z"/>
      <path class="cls-1" d="m165.91,223.38l-.33-.24s6.42-9.06,14.77-11.47c3.11-.89,5.88-1.19,8.17-1.19,3.8,0,6.28.81,6.97,1.11.96.42,4.6,1.65,4.6,1.65l.56.19-.38.46s-2.44,2.97-3.03,3.84c-.68.99-4.61,5.57-12.88,7.94-1.81.52-3.71.72-5.57.72-6.73,0-13.01-2.62-13.04-2.63l-.47-.2.3-.42.33.24.16-.38s1.54.64,3.91,1.29c2.37.64,5.56,1.28,8.82,1.28,1.8,0,3.63-.2,5.35-.69,8.05-2.3,11.88-6.79,12.43-7.61.64-.95,3.07-3.89,3.07-3.9l.31.26-.13.39s-3.62-1.22-4.66-1.68c-.56-.25-2.97-1.04-6.64-1.04-2.22,0-4.91.29-7.94,1.16-3.97,1.14-7.57,3.92-10.16,6.44-2.59,2.51-4.16,4.72-4.17,4.73l-.33-.24.16-.38-.16.38h0Z"/>
      <path class="cls-4" d="m145.87,229.25s2.7-10.7,9.45-15.83c6.75-5.14,12.71-5.53,13.8-5.49,1.1.05,4.93-.14,4.93-.14,0,0-1.19,3.65-1.44,4.72-.24,1.06-2.21,6.7-8.97,11.84-6.75,5.14-17.77,4.9-17.77,4.9h0Z"/>
      <path class="cls-1" d="m145.87,229.25l-.4-.1s2.69-10.78,9.6-16.06c6.54-4.98,12.34-5.58,13.88-5.58h.19s.03,0,.03,0h-.02.46c1.43,0,4.43-.14,4.43-.14l.59-.03-.18.56s-1.2,3.66-1.43,4.68c-.27,1.17-2.27,6.87-9.12,12.09-6.34,4.81-16.14,4.97-17.79,4.99h-.24s-.51-.02-.51-.02l.12-.5.4.1v-.4h.23c1.58,0,11.29-.23,17.29-4.82,6.67-5.07,8.6-10.65,8.82-11.61.26-1.12,1.45-4.74,1.45-4.75l.39.12.02.41s-3,.15-4.47.15h-.49s.01-.42.01-.42v.42s-.17,0-.17,0c-1.37,0-7.02.55-13.38,5.41-3.29,2.49-5.63,6.4-7.13,9.68-1.5,3.28-2.16,5.92-2.17,5.92l-.4-.1v-.4s0,.4,0,.4h0Z"/>
      <path class="cls-4" d="m145.31,228.22s8.98-6.41,17.45-5.96c8.48.46,13.27,4.02,14.07,4.76.8.75,3.84,3.09,3.84,3.09,0,0-3.27,2-4.15,2.66-.88.65-6.02,3.68-14.5,3.23-8.47-.45-16.72-7.77-16.72-7.77h0Z"/>
      <path class="cls-1" d="m145.31,228.22l-.24-.34s8.43-6.04,16.83-6.05l.88.02c8.59.47,13.45,4.05,14.33,4.86.77.71,3.81,3.05,3.81,3.06l.47.37-.51.3s-3.28,2.01-4.12,2.64c-.9.67-5.48,3.35-13.05,3.36-.56,0-1.13-.01-1.72-.05-8.68-.49-16.94-7.85-16.97-7.88l-.38-.34.42-.3.24.34.27-.31s2.03,1.8,5.12,3.67c3.09,1.87,7.22,3.78,11.35,4,.57.03,1.13.04,1.67.04,7.36,0,11.83-2.64,12.57-3.2.92-.68,4.17-2.67,4.18-2.67l.21.34-.25.32s-3.03-2.33-3.87-3.11c-.72-.67-5.45-4.21-13.81-4.65l-.84-.02c-4.01,0-8.11,1.47-11.2,2.95-3.09,1.48-5.15,2.95-5.16,2.95l-.23-.33.27-.31-.27.31h0Z"/>
      <path class="cls-4" d="m135.9,238.66s.31-11.04,5.78-17.52c5.47-6.49,11.2-8.17,12.28-8.36,1.08-.19,4.77-1.2,4.77-1.2,0,0-.38,3.82-.38,4.91,0,1.1-.69,7.03-6.17,13.51-5.47,6.49-16.28,8.66-16.28,8.66h0Z"/>
      <path class="cls-1" d="m135.9,238.66l-.41-.02s.28-11.11,5.87-17.76c5.55-6.58,11.34-8.3,12.52-8.51,1.03-.18,4.74-1.19,4.74-1.19l.57-.16-.06.6s-.38,3.82-.38,4.86c0,1.21-.72,7.2-6.26,13.77-5.62,6.65-16.48,8.78-16.52,8.79l-.5.11v-.52s.42.02.42.02l-.08-.4s2.67-.54,6.02-1.88c3.35-1.34,7.37-3.48,10.03-6.65,5.41-6.4,6.07-12.26,6.07-13.25,0-1.15.38-4.94.38-4.95l.41.04.11.4s-3.68,1.01-4.81,1.21c-.98.17-6.65,1.82-12.04,8.23-2.67,3.15-4.1,7.48-4.85,11.01-.75,3.53-.83,6.25-.83,6.25h-.41s-.08-.41-.08-.41l.08.4h0Z"/>
      <path class="cls-4" d="m100.47,98.84s8.71,6.77,17.19,6.66c8.48-.11,13.42-3.46,14.25-4.18.84-.72,3.97-2.92,3.97-2.92,0,0-3.19-2.14-4.04-2.83-.85-.69-5.87-3.92-14.36-3.82-8.48.1-17.02,7.08-17.02,7.08h0Z"/>
      <path class="cls-1" d="m100.47,98.84l.25-.32s2.11,1.64,5.28,3.29c3.16,1.64,7.36,3.28,11.47,3.28h.19c8.37-.1,13.24-3.43,13.99-4.07.88-.75,3.99-2.94,4-2.95l.24.34-.23.34s-3.18-2.13-4.07-2.85c-.76-.62-5.57-3.73-13.69-3.73h-.41c-4.13.05-8.34,1.8-11.5,3.54-3.16,1.75-5.26,3.46-5.27,3.46l-.26-.32.25-.32-.25.32-.26-.32s8.58-7.06,17.27-7.18h.42c8.35,0,13.28,3.17,14.2,3.91.81.66,4,2.81,4,2.81l.5.33-.49.34s-3.15,2.22-3.94,2.9c-.91.78-5.91,4.15-14.51,4.28h0-.21c-8.63-.02-17.21-6.73-17.24-6.75l-.41-.31.4-.33.26.32h0Z"/>
      <path class="cls-4" d="m99.76,98.74s11.02.09,17.7-5.15c6.68-5.23,8.57-10.89,8.79-11.96.23-1.07,1.38-4.74,1.38-4.74,0,0-3.82.24-4.92.21-1.09-.04-7.05.44-13.73,5.68-6.67,5.24-9.22,15.96-9.22,15.96h0Z"/>
      <path class="cls-1" d="m99.76,98.74v-.41h.04c.65,0,11.13-.12,17.41-5.06,6.6-5.16,8.44-10.76,8.65-11.73.24-1.12,1.38-4.76,1.38-4.76l.39.11.03.41s-3.37.21-4.72.21h-.24s-.1,0-.1,0c-1.25,0-6.97.59-13.36,5.6-3.25,2.54-5.54,6.48-6.99,9.79-1.46,3.3-2.08,5.94-2.08,5.95l-.4-.09v-.41s0,.41,0,.41l-.4-.1s2.54-10.81,9.37-16.19c6.56-5.14,12.42-5.76,13.86-5.77h.13s.21,0,.21,0c1.29,0,4.66-.2,4.67-.2l.59-.04-.18.56s-1.14,3.67-1.36,4.7c-.25,1.17-2.18,6.89-8.94,12.2-6.63,5.17-17.19,5.22-17.92,5.24h-.05s-.5-.02-.5-.02l.12-.49.4.1h0Z"/>
      <path class="cls-4" d="m83.12,112.04s10.32,3.89,18.39,1.29c8.08-2.6,11.81-7.26,12.39-8.18.58-.93,2.92-3.97,2.92-3.97,0,0-3.67-1.11-4.68-1.51-1.02-.41-6.76-2.03-14.84.58-8.08,2.6-14.18,11.79-14.18,11.79h0Z"/>
      <path class="cls-1" d="m83.12,112.04l.15-.38s1.42.53,3.64,1.08c2.22.54,5.21,1.08,8.32,1.08,2.07,0,4.19-.24,6.16-.88,7.97-2.56,11.64-7.18,12.17-8.02.61-.96,2.94-3.98,2.94-4l.32.25-.12.4s-3.65-1.11-4.71-1.52c-.52-.22-2.64-.85-5.85-.84-2.37,0-5.33.33-8.72,1.42-3.94,1.27-7.44,4.17-9.95,6.77-2.51,2.59-4.01,4.86-4.02,4.86l-.34-.22.15-.38-.15.38-.34-.23s6.12-9.26,14.4-11.94c3.47-1.13,6.53-1.47,8.97-1.47,3.32,0,5.5.64,6.15.9.97.39,4.64,1.49,4.64,1.49l.57.17-.36.47s-2.34,3.06-2.9,3.94c-.64,1.01-4.43,5.71-12.61,8.35-2.07.67-4.28.92-6.41.92-6.4,0-12.23-2.21-12.25-2.22l-.48-.18.28-.43.34.23h0Z"/>
      <path class="cls-4" d="m82.93,112.72s10.46-3.51,15.07-10.63c4.6-7.12,4.54-13.09,4.41-14.18-.13-1.09-.24-4.91-.24-4.91,0,0-3.53,1.46-4.58,1.79-1.05.33-6.52,2.72-11.13,9.84-4.61,7.12-3.53,18.1-3.53,18.1h0Z"/>
      <path class="cls-1" d="m82.93,112.72l-.13-.39s2.58-.86,5.74-2.61c3.16-1.75,6.88-4.38,9.11-7.86,3.84-5.95,4.39-11.07,4.39-13.12l-.04-.79c-.14-1.14-.25-4.94-.25-4.96h.41s.16.37.16.37c0,0-3.52,1.46-4.61,1.8-.95.3-6.36,2.64-10.91,9.68-3.06,4.71-3.58,11.28-3.57,14.99,0,1.75.11,2.85.11,2.85l-.41.04-.13-.39.13.39-.41.04s-.11-1.14-.11-2.93c0-3.78.49-10.46,3.71-15.43,4.68-7.22,10.2-9.65,11.35-10.01,1-.31,4.54-1.78,4.54-1.78l.55-.22.02.59s.11,3.84.24,4.88l.04.89c0,2.18-.57,7.46-4.52,13.57-4.74,7.29-15.25,10.78-15.28,10.8l-.49.16-.05-.51.41-.04h0Z"/>
      <path class="cls-4" d="m71.22,130.12s11.02.49,17.88-4.49c6.87-4.99,8.96-10.58,9.23-11.65.27-1.06,1.54-4.67,1.54-4.67,0,0-3.83.09-4.92.02-1.09-.07-7.06.19-13.93,5.17-6.86,4.99-9.81,15.62-9.81,15.62h0Z"/>
      <path class="cls-1" d="m71.22,130.12l.02-.4h.8c2.65.02,11.24-.35,16.82-4.42,6.78-4.92,8.83-10.46,9.07-11.42.28-1.1,1.55-4.7,1.55-4.71l.39.14v.4s-2.02.06-3.55.06c-.58,0-1.07,0-1.39-.03h-.29c-1.58,0-7.09.53-13.37,5.09-3.34,2.43-5.77,6.28-7.35,9.53-1.58,3.25-2.3,5.87-2.31,5.87l-.39-.11.02-.4-.02.4-.39-.11s2.94-10.71,9.96-15.84c6.45-4.68,12.12-5.26,13.85-5.26h.34c.28.03.77.04,1.34.04,1.52,0,3.54-.05,3.54-.05h.59s-.2.55-.2.55c0,0-1.27,3.63-1.53,4.63-.3,1.16-2.43,6.81-9.39,11.87-5.89,4.27-14.58,4.58-17.3,4.59l-.84-.02-.51-.02.14-.5.39.11h0Z"/>
      <path class="cls-4" d="m70.56,130.54s9.02-6.35,11.4-14.49c2.38-8.15.61-13.85.17-14.86-.43-1-1.63-4.65-1.63-4.65,0,0-2.97,2.43-3.88,3.04-.91.6-5.48,4.46-7.85,12.61-2.38,8.14,1.79,18.35,1.79,18.35h0Z"/>
      <path class="cls-1" d="m70.56,130.54l-.24-.34s2.23-1.56,4.75-4.14c2.53-2.58,5.34-6.17,6.5-10.13.9-3.1,1.2-5.83,1.2-8.08,0-3.58-.77-5.96-1.01-6.51-.46-1.05-1.65-4.67-1.65-4.68l.39-.13.26.32s-2.96,2.42-3.91,3.06c-.82.55-5.35,4.35-7.69,12.39-.52,1.76-.72,3.64-.72,5.48,0,3.24.62,6.39,1.25,8.74.63,2.34,1.25,3.86,1.25,3.86l-.38.16-.24-.34.24.34-.38.16s-2.55-6.24-2.56-12.91c0-1.9.21-3.85.75-5.71,2.41-8.26,7.02-12.17,8.02-12.84.86-.58,3.84-3,3.85-3l.46-.38.19.57s1.2,3.65,1.62,4.61c.3.69,1.07,3.12,1.08,6.83,0,2.32-.31,5.13-1.24,8.31-2.46,8.34-11.53,14.68-11.56,14.71l-.42.29-.19-.47.38-.16h0Z"/>
      <path class="cls-4" d="m64.72,150.81s10.67-2.78,15.76-9.58c5.09-6.79,5.44-12.75,5.38-13.85-.06-1.09.1-4.92.1-4.92,0,0-3.63,1.22-4.7,1.47-1.07.25-6.69,2.26-11.78,9.05-5.09,6.79-4.76,17.82-4.76,17.82h0Z"/>
      <path class="cls-1" d="m64.72,150.81l-.1-.4s2.63-.69,5.9-2.21c3.27-1.53,7.16-3.9,9.63-7.21,4.77-6.34,5.31-11.96,5.31-13.39v-.19s-.02-.73-.02-.73c0-1.54.11-4.22.11-4.22h.41s.13.4.13.4c0,0-3.62,1.22-4.73,1.49-.97.22-6.53,2.2-11.55,8.9-4.41,5.86-4.69,15.15-4.68,17.17v.39s-.4.02-.4.02l-.1-.4.1.4h-.41s0-.4,0-.4c.01-2.1.24-11.48,4.85-17.66,5.16-6.88,10.84-8.92,12.01-9.2,1.01-.24,4.66-1.46,4.66-1.46l.56-.19-.03.6s-.11,2.69-.11,4.19v.69s.02.24.02.24c0,1.6-.59,7.36-5.47,13.88-5.23,6.96-15.95,9.71-15.98,9.73l-.5.13-.02-.51h.41Z"/>
      <path class="cls-4" d="m64.36,151.63s6.65-8.8,6.44-17.29c-.22-8.48-3.65-13.37-4.37-14.2-.72-.82-2.97-3.92-2.97-3.92,0,0-2.1,3.21-2.78,4.06-.68.86-3.85,5.93-3.62,14.41.21,8.49,7.31,16.93,7.31,16.93h0Z"/>
      <path class="cls-1" d="m64.36,151.63l-.33-.25s1.59-2.1,3.18-5.24c1.6-3.15,3.18-7.31,3.18-11.39v-.4c-.22-8.37-3.62-13.19-4.27-13.94-.75-.86-2.99-3.94-3-3.95l.33-.24.34.22s-2.09,3.2-2.8,4.1c-.59.75-3.55,5.45-3.55,13.31v.83c.12,4.13,1.91,8.31,3.69,11.45,1.78,3.14,3.53,5.22,3.53,5.22l-.31.26-.33-.25.33.25-.32.26s-7.16-8.48-7.4-17.18v-.86c0-8.09,2.99-12.9,3.71-13.82.65-.82,2.75-4.04,2.75-4.04l.32-.5.35.49s2.26,3.1,2.95,3.89c.79.9,4.24,5.86,4.47,14.46v.42c-.02,8.55-6.51,17.1-6.52,17.12l-.31.42-.33-.4.32-.26h0Z"/>
      <path class="cls-4" d="m65.06,172.99s9.26-6,11.95-14.04c2.7-8.06,1.15-13.82.76-14.84-.4-1.03-1.46-4.71-1.46-4.71,0,0-3.06,2.31-3.99,2.87-.93.58-5.64,4.25-8.33,12.3-2.69,8.05,1.08,18.41,1.08,18.41h0Z"/>
      <path class="cls-1" d="m65.06,172.99l-.22-.34s2.28-1.48,4.91-3.96c2.63-2.48,5.57-5.95,6.88-9.87,1.18-3.52,1.54-6.59,1.54-9,0-3.04-.57-5.06-.77-5.57-.42-1.06-1.47-4.73-1.47-4.73l.39-.12.25.33s-3.05,2.3-4.02,2.9c-.85.52-5.51,4.14-8.16,12.08-.69,2.06-.95,4.3-.95,6.47,0,6.09,2.03,11.66,2.03,11.67l-.39.14-.22-.34.22.34-.38.14s-2.07-5.68-2.08-11.95c0-2.24.27-4.56.99-6.73,2.73-8.15,7.49-11.89,8.51-12.52.89-.55,3.96-2.85,3.96-2.86l.47-.35.16.57s1.07,3.69,1.45,4.67c.24.63.83,2.71.83,5.86,0,2.49-.37,5.66-1.58,9.25-2.78,8.24-12.09,14.23-12.12,14.26l-.43.27-.18-.49.38-.14h0Z"/>
      <path class="cls-4" d="m65.3,173.42s3.55-10.45.68-18.43c-2.87-7.98-7.65-11.56-8.6-12.11-.94-.55-4.06-2.8-4.06-2.8,0,0-.98,3.71-1.35,4.74-.38,1.03-1.8,6.84,1.07,14.82,2.87,7.98,12.26,13.78,12.26,13.78h0Z"/>
      <path class="cls-1" d="m65.3,173.42l-.39-.13s.44-1.3.89-3.36c.45-2.03.89-4.82.89-7.75,0-2.36-.29-4.82-1.1-7.06-2.83-7.88-7.56-11.4-8.42-11.9-.99-.58-4.08-2.81-4.09-2.81l.24-.34.4.11s-.97,3.69-1.36,4.76c-.18.48-.66,2.32-.66,5.07,0,2.48.39,5.73,1.74,9.47,1.39,3.89,4.41,7.31,7.09,9.72,2.68,2.43,4.99,3.85,4.99,3.86l-.22.34-.39-.13.39.13-.22.35s-9.46-5.81-12.42-13.99c-1.38-3.84-1.78-7.18-1.78-9.75,0-2.85.49-4.74.71-5.35.36-.98,1.34-4.7,1.34-4.7l.15-.58.48.34s3.12,2.24,4.02,2.77c1.04.6,5.86,4.23,8.78,12.33.85,2.36,1.14,4.9,1.14,7.33,0,6.02-1.82,11.34-1.82,11.36l-.16.49-.44-.27.22-.35h0Z"/>
      <path class="cls-4" d="m72.48,193.52s7.09-8.45,7.31-16.94c.22-8.48-2.95-13.54-3.63-14.41-.68-.85-2.77-4.07-2.77-4.07,0,0-2.26,3.1-2.98,3.92-.72.82-4.15,5.71-4.36,14.2-.22,8.49,6.43,17.29,6.43,17.29h0Z"/>
      <path class="cls-1" d="m72.48,193.52l-.31-.27s1.75-2.08,3.53-5.22c1.79-3.14,3.58-7.32,3.69-11.45v-.81c.01-7.88-2.95-12.58-3.54-13.33-.71-.9-2.79-4.1-2.79-4.1l.34-.22.33.24s-2.25,3.1-3,3.95c-.66.75-4.05,5.57-4.26,13.95v.4c0,4.07,1.57,8.24,3.17,11.38,1.6,3.14,3.18,5.24,3.18,5.25l-.33.24-.31-.27.31.27-.33.24s-6.5-8.56-6.52-17.11v-.42c.23-8.61,3.68-13.56,4.47-14.46.69-.79,2.95-3.89,2.96-3.89l.35-.49.32.5s2.1,3.22,2.75,4.04c.72.92,3.73,5.74,3.73,13.84v.83c-.26,8.69-7.41,17.14-7.42,17.18l-.33.4-.31-.41.33-.24h0Z"/>
      <path class="cls-4" d="m73.82,193.49s-.15-11.02-5.53-17.59c-5.38-6.56-11.08-8.33-12.16-8.53-1.08-.22-4.76-1.27-4.76-1.27,0,0,.32,3.81.31,4.91,0,1.1.6,7.04,5.98,13.6,5.38,6.57,16.16,8.88,16.16,8.88h0Z"/>
      <path class="cls-1" d="m73.82,193.49h-.41s-.04-2.71-.74-6.25c-.7-3.54-2.08-7.88-4.7-11.08-5.3-6.47-10.94-8.21-11.92-8.39-1.12-.22-4.79-1.28-4.8-1.28l.12-.39.41-.04s.31,3.74.31,4.91v.05c0,1.04.6,6.88,5.88,13.32,2.62,3.21,6.61,5.4,9.94,6.78,3.34,1.39,5.99,1.95,6,1.96l-.09.4h-.41s.41,0,.41,0l-.08.4s-10.87-2.31-16.4-9.03c-5.42-6.62-6.07-12.6-6.07-13.84v-.05c0-1.08-.31-4.85-.31-4.85l-.05-.59.57.17s3.69,1.06,4.72,1.26c1.18.22,6.94,2.02,12.4,8.67,5.5,6.74,5.62,17.8,5.63,17.84v.52s-.49-.11-.49-.11l.08-.4h0Z"/>
      <path class="cls-4" d="m86.58,211.05s4.02-10.28,1.51-18.38c-2.5-8.11-7.12-11.89-8.04-12.49-.92-.6-3.93-2.98-3.93-2.98,0,0-1.15,3.66-1.57,4.67-.42,1.01-2.1,6.75.41,14.85,2.51,8.1,11.62,14.32,11.62,14.32h0Z"/>
      <path class="cls-1" d="m86.58,211.05l-.38-.15s.57-1.46,1.15-3.74c.58-2.27,1.16-5.35,1.15-8.52,0-1.97-.22-3.98-.8-5.86-2.46-8-7.04-11.72-7.88-12.26-.96-.62-3.95-2.99-3.96-3l.25-.32.39.13s-1.14,3.64-1.58,4.7c-.22.53-.91,2.77-.91,6.13,0,2.32.32,5.19,1.33,8.44,1.22,3.94,4.08,7.5,6.65,10.03,2.57,2.54,4.81,4.07,4.82,4.07l-.23.34-.38-.15.38.15-.23.34s-9.2-6.24-11.78-14.54c-1.03-3.34-1.36-6.29-1.36-8.69,0-3.48.7-5.78.97-6.45.41-.96,1.55-4.63,1.56-4.63l.18-.57.47.37s3.02,2.38,3.9,2.95c1.01.66,5.67,4.49,8.21,12.71.61,1.98.84,4.07.84,6.1,0,6.53-2.35,12.52-2.36,12.55l-.19.47-.42-.29.23-.34h0Z"/>
      <path class="cls-4" d="m86.96,210.91s-3.36-10.5-10.41-15.23c-7.06-4.71-13.03-4.73-14.12-4.62-1.09.12-4.93.17-4.93.17,0,0,1.41,3.56,1.72,4.61.31,1.05,2.62,6.56,9.68,11.27,7.06,4.72,18.05,3.79,18.05,3.79h0Z"/>
      <path class="cls-1" d="m86.96,210.91l-.39.12s-.83-2.59-2.53-5.77c-1.7-3.19-4.28-6.94-7.72-9.23-6.03-4.04-11.26-4.59-13.2-4.59l-.65.03c-1.14.11-4.95.17-4.96.17v-.42s.38-.14.38-.14c0,0,1.41,3.54,1.74,4.64.28.95,2.55,6.41,9.51,11.05,4.93,3.3,11.97,3.8,15.54,3.8,1.4,0,2.25-.08,2.25-.08l.04.41-.39.12.39-.12.03.4s-.89.08-2.32.08c-3.63,0-10.79-.47-15.99-3.93-7.15-4.78-9.5-10.35-9.84-11.5-.3-1-1.71-4.57-1.71-4.58l-.22-.55h.59s3.84-.07,4.89-.17l.73-.04c2.08,0,7.46.58,13.66,4.72,7.22,4.85,10.55,15.41,10.57,15.44l.16.49-.51.04-.03-.4h0Z"/>
      <path class="cls-4" d="m104.88,223.09s.8-10.99-3.99-18.01c-4.79-7-10.32-9.25-11.38-9.54-1.06-.3-4.63-1.68-4.63-1.68,0,0-.01,3.84-.12,4.93-.1,1.09-.01,7.06,4.78,14.06,4.8,7,15.33,10.24,15.33,10.24h0Z"/>
      <path class="cls-1" d="m104.88,223.09l-.41-.03s.05-.67.05-1.8c0-3.39-.46-10.84-3.96-15.94-4.72-6.92-10.2-9.12-11.15-9.39-1.1-.32-4.66-1.69-4.67-1.69l.15-.38h.41s0,3.82-.12,4.96l-.02.52c0,1.83.53,7.15,4.73,13.28,2.33,3.41,6.11,5.95,9.31,7.62s5.79,2.46,5.8,2.46l-.12.39-.41-.03.41.03-.12.39s-10.62-3.23-15.54-10.4c-4.31-6.29-4.88-11.76-4.88-13.74l.02-.6c.1-1.04.11-4.88.11-4.89v-.6l.56.21s3.59,1.38,4.6,1.67c1.16.32,6.74,2.61,11.6,9.71,3.67,5.4,4.1,12.94,4.11,16.4,0,1.15-.05,1.85-.05,1.86l-.04.51-.49-.15.12-.39h0Z"/>
      <path class="cls-4" d="m105.88,223.38s-6.4-8.98-14.55-11.32c-8.16-2.33-13.86-.54-14.86-.09-1,.44-4.63,1.67-4.63,1.67,0,0,2.44,2.96,3.05,3.86.62.9,4.49,5.45,12.65,7.78,8.16,2.34,18.34-1.9,18.34-1.9h0Z"/>
      <path class="cls-1" d="m105.88,223.38l-.33.24s-1.58-2.22-4.17-4.73c-2.59-2.51-6.19-5.3-10.16-6.44-3.04-.87-5.72-1.16-7.94-1.16-3.67,0-6.08.79-6.64,1.04-1.05.46-4.66,1.67-4.66,1.68l-.13-.39.31-.26s2.43,2.95,3.07,3.89c.55.83,4.38,5.32,12.43,7.62,1.72.49,3.54.69,5.35.69,3.26,0,6.45-.64,8.82-1.28,2.37-.65,3.9-1.29,3.9-1.29l.16.38-.33.24.33-.24.16.38s-6.3,2.62-13.04,2.63c-1.86,0-3.76-.2-5.57-.72-8.27-2.37-12.2-6.95-12.88-7.95-.58-.86-3.02-3.83-3.03-3.83l-.38-.46.56-.19s3.64-1.23,4.6-1.65c.69-.3,3.17-1.1,6.97-1.11,2.29,0,5.05.3,8.17,1.19,8.35,2.41,14.74,11.46,14.78,11.47l.3.42-.48.2-.16-.38h0Z"/>
      <path class="cls-4" d="m125.91,229.25s-2.7-10.7-9.46-15.83c-6.74-5.14-12.7-5.53-13.79-5.49-1.09.05-4.92-.14-4.92-.14,0,0,1.19,3.65,1.44,4.72.24,1.06,2.21,6.7,8.95,11.84,6.75,5.14,17.78,4.9,17.78,4.9h0Z"/>
      <path class="cls-1" d="m125.91,229.25l-.4.1s-.66-2.64-2.17-5.92c-1.5-3.28-3.85-7.19-7.14-9.68-6.36-4.86-12.01-5.41-13.37-5.41h-.16s-.01-.41-.01-.41l.02.42h-.49c-1.47,0-4.46-.14-4.47-.14l.02-.41.39-.12s1.19,3.64,1.45,4.75c.22.96,2.15,6.54,8.8,11.61,6.01,4.59,15.72,4.83,17.3,4.82h.22v.4s-.39.1-.39.1l.4-.1v.41s-.23,0-.23,0c-1.65-.02-11.45-.18-17.79-4.99-6.83-5.22-8.84-10.92-9.11-12.09-.23-1.02-1.43-4.67-1.43-4.68l-.19-.56.59.03s3,.14,4.43.14h.45s0,0,0,0h.19c1.53,0,7.34.59,13.87,5.57,6.91,5.28,9.58,16.03,9.6,16.06l.13.5-.51.02v-.41h-.01Z"/>
      <path class="cls-4" d="m126.47,228.22s-8.98-6.41-17.45-5.96c-8.47.46-13.27,4.02-14.06,4.76-.81.75-3.84,3.09-3.84,3.09,0,0,3.27,2,4.14,2.66.88.65,6.02,3.68,14.5,3.23,8.47-.45,16.71-7.77,16.71-7.77h0Z"/>
      <path class="cls-1" d="m126.47,228.22l-.24.33s-2.06-1.47-5.15-2.95c-3.09-1.48-7.19-2.95-11.2-2.95l-.84.02c-8.35.44-13.08,3.98-13.81,4.65-.84.78-3.86,3.1-3.87,3.11l-.25-.32.21-.34s3.26,1.99,4.18,2.67c.74.55,5.2,3.2,12.56,3.2.54,0,1.1-.01,1.67-.04,4.12-.22,8.26-2.14,11.34-4,3.09-1.87,5.11-3.67,5.12-3.67l.27.31-.24.33.24-.33.27.3s-8.28,7.39-16.97,7.88c-.59.04-1.16.05-1.71.05-7.57,0-12.15-2.69-13.04-3.36-.84-.63-4.11-2.63-4.11-2.64l-.51-.3.47-.37s3.04-2.35,3.81-3.06c.88-.82,5.73-4.4,14.32-4.86l.88-.02c8.4,0,16.8,6.04,16.83,6.05l.42.3-.39.34-.27-.3h0Z"/>
      <path class="cls-4" d="m135.88,238.66s-.31-11.04-5.78-17.52c-5.47-6.49-11.21-8.17-12.28-8.36-1.08-.19-4.77-1.2-4.77-1.2,0,0,.37,3.82.38,4.91,0,1.1.7,7.03,6.17,13.51,5.47,6.49,16.29,8.66,16.29,8.66h0Z"/>
      <path class="cls-1" d="m135.88,238.66h-.41s-.08-2.72-.83-6.24c-.75-3.53-2.19-7.85-4.85-11.01-5.39-6.41-11.07-8.05-12.04-8.23-1.13-.2-4.8-1.21-4.81-1.21l.11-.4.41-.04s.37,3.8.38,4.95c0,.99.67,6.85,6.07,13.25,2.66,3.16,6.68,5.31,10.04,6.65,3.35,1.34,6.02,1.87,6.02,1.88l-.08.4h-.41s.41,0,.41,0l-.08.4s-10.9-2.15-16.53-8.79c-5.54-6.58-6.25-12.57-6.26-13.77,0-1.04-.37-4.86-.37-4.86l-.06-.6.57.16s3.71,1.01,4.74,1.19c1.18.21,6.97,1.93,12.52,8.51,5.59,6.65,5.86,17.72,5.87,17.76v.52s-.49-.11-.49-.11l.08-.4h0Z"/>
      <path class="cls-4" d="m135.9,238.66s-6.87-8.64-6.87-17.12,3.3-13.46,4-14.31c.7-.84,2.87-4,2.87-4,0,0,2.17,3.16,2.88,4,.7.84,3.99,5.82,3.99,14.31s-6.87,17.12-6.87,17.12h0Z"/>
      <path class="cls-1" d="m135.9,238.66l-.32.25s-6.94-8.67-6.96-17.37c0-8.6,3.32-13.64,4.1-14.56.66-.8,2.84-3.97,2.85-3.97l.34-.49.34.49s2.18,3.17,2.85,3.97c.76.93,4.09,5.96,4.09,14.56-.02,8.7-6.95,17.34-6.96,17.37l-.32.4-.32-.4.32-.25-.32-.26s1.69-2.13,3.39-5.32c1.71-3.18,3.39-7.42,3.39-11.55,0-8.37-3.26-13.29-3.9-14.04-.73-.88-2.89-4.02-2.9-4.03l.34-.24.34.24s-2.17,3.15-2.89,4.03c-.64.75-3.91,5.67-3.91,14.04,0,4.13,1.69,8.36,3.39,11.55,1.7,3.19,3.39,5.31,3.4,5.32l-.32.26-.32-.26.32.26h0Z"/>
      <path class="cls-2" d="m108.76,169.01s1.96.56,3.01,2.46c.55.99.7,2.59.7,2.59,0,0-2.33-.15-3.78,1.12-2.71,2.34-.78,5.68-.78,5.68,0,0,2.25-2.11,2.94-2.24.7-.14,1.62-.14,1.97-.07l.84.77s-1.33,1.82-.98,3.16c.34,1.33,2.1,3.99,2.1,3.99,0,0-.14-2.16.56-3.43.7-1.26,1.05-1.47,1.61-1.54.56-.07,1.87.65,3.02,1.96,1.89,2.18,3.79,2.18,3.79,2.18l-.22,2.52s4.07-.78,5.61-3.02c1.55-2.24,2.05-4.73,3.16-5.54,2.04-1.47,3.36-.77,3.36-.77,0,0-2.66-4.14-2.38-6.45.27-2.31,1.47-4.21,1.47-4.21,0,0-8.36-4.15-11.92,2.46-1.47,2.73.91,6.52.91,6.52,0,0-2,.95-3.02.06-1.33-1.13-2.6-1.96-2.6-1.96,0,0-.16-3.83-3.01-5.76-3.65-2.45-6.38-.49-6.38-.49h0Z"/>
      <path class="cls-2" d="m113.1,151.34s2.88-.91,4.21-.5c1.33.42,3.42,1.2,4.7,1.06,2.45-.28,5.26-3.58,5.26-3.58,0,0-6.8.36-8.62-.7-1.83-1.05-2.45-1.96-2.73-2.67-.28-.7-.07-5.11-.56-6.1-.5-.98-1.61-3-3.86-3.08-3.93-.14-5.12,1.96-5.12,1.96,0,0,2.8-.21,3.86,1.54-7.01-.42-6.73,4.14-6.73,4.14,0,0,1.53-1.07,2.31-.98,1.26.14,1.75,1.34,1.75,1.34,0,0-3.92.27-4.28,5.47,1.12.21,2.53-1.9,4.42-2.18,1.16-.17,3.79.42,5.4,4.28h0Z"/>
      <path class="cls-2" d="m150,171.26l2.81-4.77s1.89,1.47,3.23,1.33c1.33-.14,3.36-2.45,3.36-7.36,0-10.03-6.31-11.08-6.31-21.6s2.87-14.51,2.52-16.83c2.38,1.4.64,7.01,1.06,12.83,1.18,16.74,7.08,12.62,7.08,28.89,0,9.54-8.14,10.1-9.05,10.1-3.23,0-4.7-2.59-4.7-2.59h0Z"/>
      <path class="cls-2" d="m155.11,121.34s1.56-.12,2.21,2.35c.29,1.06.19,3.5-.05,6.87,1.4-.5,3.18-3.7,3.18-6.72,0-3.01-2.1-5.89-3.86-7.15-1.76-1.26-3.01-3.3-3.01-3.3l-.14.28s.51,1.36.35,2.1c-.77,3.51-3.3,5.22-3.65,7.86-.74,5.61,2.81,7.96,2.81,7.96,0,0,.31-2.39,1.14-5.05.84-2.67,1.03-4.08,1.03-5.2h0Z"/>
      <path class="cls-2" d="m124.95,128.09s.57-1.32,1.76-1.51c1.01-.16,1.93.34,1.93.34,0,0-1.29,2.21-3.68,1.16h0Zm-6.03,3.61l-.6-.59.6-.6.59.6-.59.59h0Zm36.4,46.22c-.91.56-2.31,1.05-2.94.98,1.55-1.19,1.68-2.03,1.68-3.44-.49.34-1.26,1.27-2.73.77-1.3-.42-1.2-1.61-1.61-2.24-.42-.63-1.47-1.19-1.47-1.19l4.42-7.29s1.03-4.45-2.25-8.91c-4.06-5.54-4.06-10.59-4.06-10.59,0,0,1.05.84,2.53,0-1.96-2.52-3.79-4.63-3.65-7.44.56.14,2.03.42,2.66-.21-1.75-1.26-3.5-5.12-3.29-7.23.76.36,2.03.36,2.94-.35-1.03-.76-2.59-3.01-3.01-4.77-.42-1.75-2.17-5.18-4.34-5.82-2.17-.62-3.37-.7-3.37-.7,0,0,2.17-2.1.56-4.49-1.55,2.88-3.72,3.72-3.72,3.72,0,0,.07-3.02-.84-3.72-.7,1.9-2.53,4.14-3.58,4.84-.63-.7-1.61-1.83-.35-4.28-1.03.19-3.65,1.33-3.86,3.64-.14,1.48.28,3.16,0,3.58-.28.42-3.29,2.24-3.57,2.88-.28.63-.19,1.77-.49,2.1-.63.7-1.62,1.19-2.39,1.47-.77.28-2.03,1.18-1.82,1.82.21.62.7,1.11.7,1.11,0,0-.29,1.69.28,2.53.55.84,1.75,1.61,2.59,1.4.84-.21,3.16-1.68,3.79-1.61.63.07,1.82.42,1.82,1.05s-.22,2.13-1.96,1.97c-1.47-.14-2.81-.35-3.09.56-.15.5-.07,1.96.49,2.24.56.28,2.25.42,2.25.42,0,0-.28,1.47.78,1.47s.7-1.69.7-1.69c0,0,2.45.28,4.7-.28,2.25-.56,3.34-1.89,3.67-3.69.39-2.14.68-3.84,1.73-4.16l.21.29s-.93.95-.93,3.48c0,1.54-1.17,3.3-1.82,4.09-1.69,2.03-2.79,6.95-4.61,8.49-1.29,1.09-4.9,4-7.22,4.48-2.31.49-3.15-2.04-6.17-1.61-3.02.42-4.27,2.59-4.27,2.59,0,0,2.66-.64,3.86.91,1.19,1.54,2.45,1.33,2.45,1.33,0,0-1.89,1.4-2.87,1.33-.98-.07-2.88-.7-2.88-.7,0,0,.38,2.74,1.54,3.37,2.59,1.4,4.91,0,4.91,0,0,0,.14,1.4-.28,2.24-.42.84-1.55,1.96-1.55,1.96,0,0,3.02.63,4.49-.84,1.48-1.48,1.61-3.64,1.61-3.64,0,0,4.42.35,10.66-2.25,6.24-2.59,8.06-5.89,8.06-5.89,0,0,.07,1.41-1.33,3.09-3.3,3.92-10.03,5.19-10.03,5.19,0,0,1.54,3.08,3.58,4.14,2.04,1.06,5.26,1.9,5.26,1.9,0,0-4.06,3.22-3.65,6.59.42,3.37,3.3,5.68,3.3,5.68,0,0,6.53-.23,7.99,1.54.83.99,1.19,1.62.28,3.93-.53,1.34-2.6,1.82-3.44,1.05-.99-.9-1.74-2.82-3.02-3.36-1.48-.63-5.76-1.75-8.27,3.15,0,0,2.66-2.11,4.42,0-4.07.77-3.09,5.68-3.09,5.68,0,0,.84-1.83,2.6-2.11,1.75-.28,2.59.5,2.59.5,0,0-1.81.84-1.89,2.1-.21,3.16,2.73,4.77,2.73,4.77,0,0-.7-2.17.28-2.81.99-.62,2.67-.28,3.65.57.98.84,3.51-.77,4.49-2.46.98-1.68,2.17-.56,3.57-.7,1.4-.14,1.61-1.89,1.48-3.29-.14-1.41-.42-3.44-.42-3.44l1.13-.7-.07-1.05s2.8-1.34,2.8-4.08h0Z"/>
    </g>
  </g>
</svg>