<?xml version="1.0" encoding="UTF-8"?>
<svg id="Layer_2" data-name="Layer 2" xmlns="http://www.w3.org/2000/svg" xmlns:xlink="http://www.w3.org/1999/xlink" viewBox="0 0 166.8 209.76">
  <defs>
    <style>
      .cls-1 {
        clip-path: url(#clippath);
      }

      .cls-2 {
        fill: none;
      }

      .cls-2, .cls-3, .cls-4, .cls-5, .cls-6, .cls-7, .cls-8 {
        stroke-width: 0px;
      }

      .cls-9 {
        fill: #231f20;
        font-family: f-0-0, 'f 0-0';
        font-size: 6.38px;
      }

      .cls-3 {
        fill: #004990;
      }

      .cls-3, .cls-4, .cls-5, .cls-6, .cls-7 {
        fill-rule: evenodd;
      }

      .cls-4, .cls-8 {
        fill: #a7a9ac;
      }

      .cls-5 {
        fill: #d1d2d4;
      }

      .cls-6 {
        fill: #fff;
      }

      .cls-7 {
        fill: #c41230;
      }
    </style>
    <clipPath id="clippath">
      <rect class="cls-2" width="166.8" height="209.76"/>
    </clipPath>
  </defs>
  <g id="Layer_1-2" data-name="Layer 1">
    <g>
      <path class="cls-6" d="m18.52,175.38l.13,2.63c-.53-.22-.87-.4-1.31-.45-.44-.05-.89,0-1.3.14-.78.27-.87.5-1.23,1.17-.35.65-.34,1.34-.16,2.23.16.83.46,1.44,1.11,1.85.45.28.62.44,1.42.47.43.02.8-.17,1.19-.33.39-.17.81-.38,1.18-.78l.77,2.42c-.4.3-1.25.67-1.68.83-.46.17-.75.22-1.21.3-.57.1-.7.13-1.2.09-.5-.04-1-.06-1.46-.25-.87-.37-1.59-.9-2.15-1.61-.56-.71-.83-1.59-1.02-2.57-.16-.79-.14-1.52-.02-2.22.13-.7.37-1.29.78-1.92.39-.6.82-1.09,1.4-1.44.55-.33.75-.45,1.5-.6.45-.09.92-.21,1.39-.18.46.02,1.38.09,1.87.22h0Z"/>
      <path class="cls-6" d="m52.72,195.13l8.01-7.76,3.1,1.45-1.25,10.61-3.09-.88.37-2.02-3.04-1.38-1.21,1.27-2.89-1.29Z"/>
      <path class="cls-3" d="m58.27,193.41l1.96.88.56-3.51-2.52,2.62Z"/>
      <path class="cls-6" d="m64.11,200.47l3.26-9.91,2.73.89-2.34,7.5,2.8.88-.34,2.57-6.11-1.93Z"/>
      <path class="cls-6" d="m48.35,192.59l3.61-7.06-2.36-1.25,1.13-2.15,7.34,3.77-.82,2.39-2.53-1.35-3.61,7.06-2.77-1.42Z"/>
      <path class="cls-6" d="m40.14,185.21c.38.54,1.16,1.29,1.55,1.57.35.26.64.5,1.01.68.34.17.61.27.87.23.31-.05.48-.08.6-.37.13-.32.02-.66-.17-.88-.18-.22-.64-.69-1.14-1.16-.81-.75-1.24-1.21-1.45-1.79-.21-.57-.25-1.2.02-1.93.35-.95.98-1.6,1.85-1.92.88-.32,1.8-.22,2.8.15.54.2,1.02.42,1.45.75s1.2.91,1.52,1.38l-1.35,2.08c-.27-.36-1.17-1.24-1.45-1.49-.26-.24-.55-.38-.85-.54-.31-.17-.52-.23-.78-.15-.26.08-.36.16-.42.41-.07.25-.02.39.1.61.18.34.53.62.82.88.88.78,1.44,1.45,1.7,1.91.17.31.36.69.35,1.07-.01.39-.03.8-.2,1.21-.41,1.04-1.11,1.78-2.26,2.05-.98.23-1.81.07-2.95-.39-.66-.27-1.17-.66-1.7-1.05-.52-.38-.82-.64-1.33-1.19l1.41-2.12Z"/>
      <path class="cls-6" d="m32.75,186.36l.98-3.57-1.81-7.06,3.34.35.8,4.5,2.94-3.35,3.08.88-5.36,5.43-1.05,3.59-2.92-.78Z"/>
      <path class="cls-6" d="m21.88,185.13l.55-10.38,3.37.14c1.17.05,1.99.25,2.45.38.46.13.85.33,1.17.6.36.3.64.69.82,1.14.18.46.26.95.23,1.49-.04.82-.2,1.45-.59,1.95-.4.52-.71.68-1.41,1.12l2.12,3.63-3.26.32-1.73-3.52h-.5s-.12,3.26-.12,3.26l-3.11-.12Z"/>
      <path class="cls-3" d="m25.18,179.97c.58,0,1.24.16,1.75-.13.3-.18.55-.63.57-1.08.02-.53-.1-.94-.33-1.19-.43-.46-1.26-.36-1.88-.39l-.12,2.79Z"/>
      <path class="cls-6" d="m151.14,184.74c.13-.39.36-.67.72-.85.35-.18.71-.2,1.1-.08.4.13.68.37.86.72.18.35.2.72.08,1.11-.13.39-.37.67-.72.85-.36.18-.73.21-1.12.08-.39-.12-.66-.37-.84-.72-.18-.36-.2-.73-.07-1.11h0Z"/>
      <path class="cls-6" d="m150.95,175.72l-.57,2.57c-.45-.35-.73-.62-1.14-.78-.41-.16-.86-.23-1.29-.2-.82.05-.98.25-1.5.8-.51.54-.68,1.2-.75,2.11-.06.84.07,1.51.58,2.07.36.39.48.59,1.25.83.41.13.82.05,1.23,0,.43-.06.88-.15,1.34-.44l.1,2.54c-.47.19-1.38.31-1.84.35-.49.04-.78.02-1.24-.03-.57-.06-.7-.07-1.18-.24-.47-.17-.95-.32-1.34-.62-.74-.59-1.29-1.29-1.65-2.12-.35-.83-.38-1.75-.3-2.75.06-.8.26-1.5.57-2.14.31-.64.7-1.14,1.26-1.64.53-.47,1.08-.84,1.73-1.02.62-.17.84-.24,1.61-.18.46.04.94.05,1.38.19.44.14,1.31.45,1.75.71h0Z"/>
      <path class="cls-6" d="m117.21,182.21l.87,2.48c-.57-.06-.95-.14-1.38-.06-.43.08-.85.25-1.21.51-.67.48-.7.73-.85,1.47-.15.72.05,1.38.48,2.18.39.75.85,1.25,1.59,1.46.52.14.71.25,1.5.05.41-.11.72-.39,1.05-.66.33-.27.67-.59.91-1.08l1.42,2.1c-.3.41-1,1-1.38,1.27-.39.29-.66.42-1.07.63-.52.25-.63.32-1.12.42-.49.11-.98.23-1.46.17-.94-.11-1.78-.41-2.51-.93-.74-.52-1.24-1.29-1.71-2.18-.37-.71-.57-1.41-.64-2.12-.07-.71-.01-1.34.2-2.06.21-.69.48-1.28.94-1.78.44-.47.59-.65,1.27-1,.41-.21.82-.46,1.27-.57.45-.11,1.35-.3,1.86-.32h0Z"/>
      <path class="cls-6" d="m139.09,183.93c-.06-.4.03-.76.26-1.08.23-.31.55-.5.95-.56.41-.06.78.03,1.09.26.32.23.5.55.57.95.06.41-.03.77-.27,1.09-.23.32-.55.51-.97.57-.4.06-.76-.03-1.07-.27-.32-.24-.51-.56-.57-.96h0Z"/>
      <path class="cls-6" d="m133.29,186.5l-2.1-10.12,6.32-1.31.47,2.27-3.33.67.37,1.79,2.44-.49,1,2.31-2.94.59.76,3.65-2.99.64Z"/>
      <path class="cls-6" d="m122.99,190.46l-3.96-9.51,6.35-2.62.89,2.14-3.66,1.5.63,1.5,2.73-1.12,1.19,1.95-3.05,1.25.69,1.7,3.66-1.5.88,2.11-6.35,2.62Z"/>
      <path class="cls-6" d="m104.39,199.41l-.82-11.12,3.1-1.46,7.34,7.77-2.66,1.81-1.31-1.58-3,1.45.2,1.74-2.85,1.39Z"/>
      <path class="cls-3" d="m106.62,194.05l1.94-.94-2.34-2.68.4,3.62Z"/>
      <path class="cls-6" d="m84.39,203.77l2.38-10.9,3.39-.51,4.82,9.53-3.06.98-.81-1.88-3.29.53-.3,1.73-3.12.52Z"/>
      <path class="cls-3" d="m88.06,199.27l2.13-.35-1.48-3.23-.65,3.58Z"/>
      <path class="cls-6" d="m97.18,201.62l-3.06-9.98,2.75-.85,2.41,7.48,2.8-.89,1.2,2.3-6.1,1.95Z"/>
      <path class="cls-6" d="m79.09,203.49l-2.94-.08.36-10.3,3.03.05c1.18.02,1.93.16,2.42.34.45.18.85.36,1.17.64.38.34.65.72.84,1.21.19.49.27,1.03.23,1.62-.05.65-.17,1.1-.39,1.58-.21.47-.53.82-.93,1.11-.31.22-.58.39-.98.5-.99.27-1.71.34-2.7.27l-.1,3.05Z"/>
      <g class="cls-1">
        <path class="cls-3" d="m79.25,198.22c.59.07,1.35-.04,1.75-.5.19-.22.32-.48.33-.94.01-.44-.07-.7-.28-.92-.22-.24-.43-.53-1.11-.52l-.65.02-.04,2.86Z"/>
        <path class="cls-7" d="m21.73,194c-2.36-.06-4.6.04-6.9.47-2.53.48-5.37.84-5.76-.51l-1.34.68c-.11.05-.27,0-.35-.1.52,1.75,3.26,2.63,7.61,1.57-.05,1.37.02,2.65.25,4,1.93-1.68,4.51-1.44,6.93-.77,1.98.54,4.02.72,4.31-1.82.15-1.34-.57-2.07-1.36-2.75-1.42-1.22-2.74-2.65-3.62-4.11-.64.03-1.28.07-1.92.14.68,1.28,1.17,1.93,2.23,3.05.1.11.08.14-.07.13h0Zm-4.75,1.84c5.4-.55,7.86.08,7.89,1.35,0,.46-.43.97-.93.87-.52-.1-1.17-.34-1.75-.48-1.95-.47-3.56-.43-5.29-.16-.13.02-.25.01-.24-.16.03-.41.06-.81.03-1.23.09-.07.08-.18.29-.2h0Zm-8.21-3.62c-.5-7.62-4.02-13.2-6.04-15.64-.08-.13.02-.23.11-.27,5.61-2.46,11.5-3.87,17.41-4.7,15.63-2.17,27.12,5.16,39.29,10.95,7.33,3.48,14.54,6.81,23.86,7.09,7.51.23,16.14-1.79,26.79-7.43,6.92-3.67,8.16-5.84,16.94-8.42,12.19-3.57,27.15-3.52,36.71,2.95.07.06.01.16-.03.21-2.34,3.05-5.51,9.08-6.25,15.74-.01.12-.15.12-.24.07-12.8-7.98-25.21-3.16-44.45,6.39-10.37,5.15-19.86,7.75-29.47,8.02-10.22.28-19.89-1.89-34.02-10.62-16.46-8.54-30.18-9.54-40.48-4.3-.05.03-.11-.02-.11-.05h0Zm.73,1.53c3.25-1.65,6.64-2.57,10.08-2.93.64-.07,1.28-.11,1.92-.14,9.32-.42,18.91,3.06,27.08,7.29,9.99,6.17,19.86,10.55,31.75,10.83,1.03.02,2.07.02,3.1,0,10.71-.3,20.59-3.44,30.13-8.18,5.98-2.97,12.26-6.07,18.6-8.16,4.04-1.33,8.3-2.29,12.56-2.11.61.03,1.22.07,1.84.15.1.01.21.03.31.04,3.55.48,6.77,1.8,9.79,3.73l.61.39,1.33.85c.09.06.23,0,.24-.08l.26-2.33c.56-5.04,2.86-11.29,6.06-15.28l1-1.25s.03-.16-.03-.2l-1.32-.87c-10.5-7.1-26.42-6.66-38.14-3.22-3.68,1.08-6.81,2.32-10.1,4.29-2.39,1.44-4.65,2.93-7.13,4.24-7.95,4.22-16.87,7.53-25.99,7.25-8.68-.27-15.57-3.3-23.22-6.94-4.62-2.2-9.14-4.62-13.84-6.66-8.64-3.76-16.88-5.74-26.35-4.43-6.26.87-12.31,2.31-18.09,4.93l-1.81.78c-.14.08-.16.2-.04.3l1.28,1.39c3.33,4.01,5.48,9.84,5.82,15l.1,1.6h0s0,.08,0,.08c.01.15.04.3.08.44.09.09.24.14.35.1l1.34-.68.43-.21Zm131.61,1.35c-.79.6-1.68,1.07-1.67,2.61,0,2.68,2.23,2.61,4.16,2.14,2.39-.59,4.89-.65,7.09,1.18l.23-4.11c4.64,1.58,7.83.28,7.93-1.5-.02.09-.15.13-.24.08l-1.33-.85c-.06,1.89-3.48,1.33-5.95.69-2.28-.59-4.71-.83-6.97-.75-.15,0-.25-.09-.16-.19,1.02-1.15,1.93-2.47,2.37-3.91-.61-.08-1.22-.12-1.84-.15-.61,1.84-2.13,3.63-3.61,4.76h0Zm8.24,1.74c-.07.41-.07.82-.09,1.22,0,.18-.12.18-.25.14-1.69-.43-3.44-.43-5.33-.01-.57.13-1.19.37-1.71.42-.51.05-.9-.5-.84-.96.14-1.26,2.63-2.08,7.96-1.04.2.04.18.15.27.23h0Z"/>
      </g>
      <path class="cls-3" d="m8.87,192.27c10.3-5.24,24.03-4.24,40.48,4.3,14.13,8.73,23.79,10.89,34.02,10.62,9.62-.27,19.11-2.87,29.47-8.02,19.23-9.55,31.65-14.37,44.45-6.39.09.05.23.05.24-.07.74-6.66,3.91-12.69,6.25-15.74.04-.06.11-.16.03-.21-9.56-6.47-24.52-6.53-36.71-2.95-8.78,2.57-10.01,4.75-16.94,8.42-10.65,5.64-19.28,7.66-26.79,7.43-9.32-.28-16.52-3.61-23.86-7.09-12.17-5.79-23.66-13.12-39.29-10.95-5.91.82-11.8,2.23-17.41,4.7-.09.04-.19.14-.11.27,2.03,2.45,5.54,8.02,6.04,15.64,0,.03.06.08.11.05h0Zm2.7-12.96c.13-.7.37-1.29.78-1.92.39-.6.82-1.09,1.4-1.44.55-.33.75-.45,1.5-.6.45-.09.92-.21,1.39-.18.46.02,1.38.09,1.87.22l.13,2.63c-.53-.22-.87-.4-1.31-.45-.44-.05-.89,0-1.3.14-.78.27-.87.5-1.23,1.17-.35.65-.34,1.34-.16,2.23.16.83.46,1.44,1.11,1.85.45.28.62.44,1.42.47.43.02.8-.17,1.19-.33.39-.17.81-.38,1.18-.78l.77,2.42c-.4.3-1.25.67-1.68.83-.46.17-.75.22-1.21.3-.57.1-.7.13-1.2.09-.5-.04-1-.06-1.46-.25-.87-.37-1.59-.9-2.15-1.61-.56-.71-.82-1.59-1.02-2.57-.16-.79-.14-1.52-.02-2.22h0Zm10.3,5.83l.55-10.38,3.37.14c1.17.05,1.99.25,2.45.38.46.13.85.33,1.17.6.36.3.64.69.82,1.14.18.46.26.95.23,1.49-.04.82-.2,1.45-.59,1.95-.4.52-.71.68-1.41,1.12l2.12,3.63-3.26.32-1.73-3.52h-.5s-.12,3.26-.12,3.26l-3.11-.12Zm10.87,1.22l.98-3.57-1.81-7.06,3.34.35.8,4.5,2.94-3.35,3.08.88-5.36,5.43-1.05,3.59-2.92-.78Zm5.98.98l1.41-2.12c.38.54,1.16,1.29,1.55,1.57.35.26.64.5,1.01.68.34.17.61.27.87.23.31-.05.48-.08.6-.37.13-.32.02-.66-.17-.88-.18-.22-.64-.69-1.14-1.16-.81-.75-1.24-1.21-1.45-1.79-.21-.57-.25-1.2.02-1.93.35-.95.98-1.6,1.85-1.92.88-.32,1.8-.22,2.8.15.54.2,1.02.42,1.45.75s1.2.91,1.52,1.38l-1.35,2.08c-.27-.36-1.17-1.24-1.45-1.49-.26-.24-.55-.38-.85-.54-.31-.17-.52-.23-.78-.15-.26.08-.36.16-.42.41-.07.25-.02.39.1.61.18.34.53.62.82.88.88.78,1.44,1.45,1.7,1.91.17.31.36.69.35,1.07-.01.39-.03.8-.2,1.21-.41,1.04-1.11,1.78-2.26,2.05-.98.23-1.81.07-2.95-.39-.66-.27-1.17-.66-1.7-1.05-.52-.38-.82-.64-1.33-1.19h0Zm13.24-1.8l-2.36-1.25,1.13-2.15,7.34,3.77-.82,2.39-2.53-1.35-3.61,7.06-2.77-1.42,3.61-7.06Zm.75,9.6l8.01-7.76,3.1,1.45-1.25,10.61-3.09-.88.37-2.02-3.04-1.38-1.21,1.27-2.89-1.29Zm11.4,5.33l3.26-9.91,2.73.89-2.34,7.5,2.8.88-.34,2.57-6.11-1.93Zm12.04,2.95l.36-10.3,3.03.05c1.18.02,1.93.16,2.42.34.45.18.85.36,1.17.64.38.34.65.72.84,1.21.19.49.27,1.03.23,1.62-.05.65-.17,1.1-.39,1.58-.21.47-.53.82-.93,1.11-.31.22-.58.39-.98.5-.99.27-1.71.34-2.7.27l-.1,3.05-2.94-.08Zm17.97-11.78l2.75-.85,2.41,7.48,2.8-.89,1.2,2.3-6.1,1.95-3.06-9.98Zm-9.73,12.13l2.38-10.9,3.38-.51,4.83,9.53-3.06.98-.81-1.88-3.29.53-.3,1.73-3.12.52Zm20-4.36l-.82-11.12,3.1-1.46,7.34,7.77-2.66,1.81-1.31-1.58-3,1.45.2,1.74-2.85,1.39Zm9.7-16.32c.41-.21.82-.46,1.27-.57.45-.11,1.35-.3,1.86-.32l.87,2.48c-.57-.06-.95-.14-1.38-.06-.43.08-.85.25-1.21.51-.67.48-.7.73-.85,1.47-.15.72.05,1.38.48,2.18.39.75.85,1.25,1.59,1.46.52.14.71.25,1.5.05.41-.11.72-.39,1.05-.66.33-.27.67-.59.91-1.08l1.42,2.1c-.3.41-1,1-1.38,1.27-.39.29-.66.42-1.07.63-.52.25-.63.32-1.12.42-.49.11-.98.23-1.46.17-.94-.11-1.78-.41-2.51-.93-.74-.52-1.24-1.29-1.71-2.18-.37-.71-.57-1.41-.64-2.12-.07-.71-.01-1.34.2-2.06.21-.69.48-1.28.94-1.78.44-.47.59-.65,1.27-1h0Zm8.91,7.37l-3.96-9.51,6.35-2.62.89,2.14-3.66,1.5.63,1.5,2.73-1.12,1.19,1.95-3.05,1.25.7,1.7,3.66-1.5.88,2.11-6.35,2.62Zm10.3-3.97l-2.1-10.12,6.32-1.31.47,2.27-3.33.67.37,1.79,2.44-.49,1,2.31-2.94.59.76,3.65-2.99.64Zm5.8-2.57c-.06-.4.03-.76.26-1.08.23-.31.55-.5.95-.56.41-.06.78.03,1.09.26.32.23.5.55.57.95.06.41-.03.77-.27,1.09-.23.32-.55.51-.97.57-.4.06-.76-.03-1.07-.27-.32-.24-.51-.56-.57-.96h0Zm3.56-4.13c.06-.8.26-1.5.57-2.14.31-.64.7-1.14,1.26-1.64.53-.47,1.08-.84,1.73-1.02.62-.17.84-.24,1.61-.18.46.04.94.05,1.38.19.44.14,1.31.45,1.75.71l-.57,2.57c-.45-.35-.73-.62-1.14-.78-.41-.16-.86-.23-1.29-.2-.82.05-.98.25-1.5.8-.51.54-.68,1.2-.75,2.11-.06.84.07,1.51.58,2.07.36.39.48.59,1.25.83.41.13.82.05,1.23,0,.43-.06.88-.15,1.34-.44l.1,2.54c-.47.19-1.38.31-1.84.35-.49.04-.78.02-1.24-.03-.57-.06-.7-.07-1.18-.24-.47-.17-.95-.32-1.34-.62-.74-.59-1.29-1.29-1.65-2.12-.35-.83-.38-1.75-.3-2.75h0Zm8.49,4.95c.13-.39.36-.67.72-.85.35-.18.71-.2,1.1-.08.4.13.68.37.86.72.18.35.2.72.08,1.11-.13.39-.37.67-.72.85-.36.18-.73.21-1.12.08-.39-.12-.66-.37-.84-.72-.18-.36-.2-.73-.07-1.11h0Z"/>
      <path class="cls-4" d="m151.87,127.11c.92-.05,1.82-.05,2.73,0v-.85c0-.09-.08-.27-.22-.27h-2.32c-.11.01-.19.18-.19.29v.82Z"/>
      <path class="cls-4" d="m151.85,127.68c.96-.07,1.86-.07,2.74.01,1.77,1.71,3.56,3.46,5.34,5.18-4.4-1.91-8.87-1.98-13.39-.01,1.77-1.73,3.55-3.45,5.32-5.18h0Z"/>
      <path class="cls-4" d="m152.68,133.87c.35-.01.71-.01,1.06,0,.57.02,1.13.07,1.7.15.39.05.78.13,1.17.21.53.12,1.06.26,1.59.43.14.05.29.1.43.15.43.15.85.32,1.28.5v-1.7c-4.41-1.91-8.87-1.95-13.4,0v1.69c.39-.17.78-.33,1.17-.46.18-.07.35-.12.53-.18.53-.17,1.06-.32,1.59-.43.39-.09.78-.16,1.17-.21.57-.08,1.14-.13,1.7-.15h0Z"/>
      <path class="cls-4" d="m158.64,135.77v1c.43-.15.85-.32,1.28-.5-.43-.19-.85-.35-1.28-.5h0Z"/>
      <path class="cls-4" d="m147.69,136.78v-.97c-.39.14-.78.29-1.17.46v.05c.39.17.78.32,1.17.46h0Z"/>
      <path class="cls-4" d="m158.64,143.31v1c.43-.15.85-.32,1.28-.5-.43-.18-.85-.35-1.28-.5h0Z"/>
      <path class="cls-4" d="m147.69,144.32v-.97c-.39.14-.78.29-1.17.46v.05c.39.17.78.32,1.17.46h0Z"/>
      <path class="cls-4" d="m156.62,135.19v4.25c.53.12,1.06.26,1.59.43v-4.25c-.53-.17-1.06-.32-1.59-.43h0Z"/>
      <path class="cls-4" d="m155.44,139.22v-4.25c-.57-.08-1.13-.13-1.7-.15v4.25c.57.02,1.13.07,1.7.15h0Z"/>
      <path class="cls-4" d="m152.68,139.07v-4.25c-.57.02-1.13.07-1.7.15v4.25c.57-.08,1.14-.13,1.7-.15h0Z"/>
      <path class="cls-4" d="m149.81,139.44v-4.25c-.53.12-1.06.26-1.59.43v4.25c.53-.17,1.06-.32,1.59-.43h0Z"/>
      <path class="cls-4" d="m152.68,151.19c-.57.02-1.13.07-1.7.15v7.78c.57-.08,1.14-.13,1.7-.16v-7.77Z"/>
      <path class="cls-4" d="m149.81,159.34v-7.78c-.53.12-1.06.26-1.59.43v7.77c.53-.17,1.06-.31,1.59-.43h0Z"/>
      <path class="cls-4" d="m153.75,151.19v7.77c.57.02,1.13.07,1.7.15v-7.77c-.57-.08-1.13-.13-1.7-.15h0Z"/>
      <path class="cls-4" d="m156.62,151.56v7.77c.53.12,1.06.26,1.59.43v-7.76c-.53-.17-1.06-.32-1.59-.43h0Z"/>
      <path class="cls-4" d="m158.21,160.74c-.53-.17-1.06-.32-1.59-.43v9.89c.53.15,1.07.32,1.59.5v-9.96Z"/>
      <path class="cls-4" d="m155.44,169.88v-9.78c-.57-.08-1.13-.13-1.7-.15v9.54c.57.12,1.14.25,1.7.39h0Z"/>
      <path class="cls-4" d="m152.68,169.28v-9.33c-.57.02-1.13.07-1.7.15v8.91c.57.08,1.14.18,1.7.28h0Z"/>
      <path class="cls-4" d="m149.81,168.84v-8.55c-.53.12-1.06.26-1.59.43v7.96c.53.04,1.06.1,1.59.16h0Z"/>
      <path class="cls-4" d="m148.22,151.14c.53-.17,1.06-.32,1.59-.43v-7.97c-.53.12-1.06.26-1.59.43v7.97Z"/>
      <path class="cls-4" d="m150.98,142.53v7.97c.57-.08,1.14-.13,1.7-.15v-7.97c-.57.02-1.13.07-1.7.15h0Z"/>
      <path class="cls-4" d="m153.75,142.38v7.97c.57.02,1.13.07,1.7.15v-7.97c-.57-.08-1.13-.13-1.7-.15h0Z"/>
      <path class="cls-4" d="m156.62,142.74v7.97c.53.12,1.06.26,1.59.43v-7.97c-.53-.17-1.06-.32-1.59-.43h0Z"/>
      <path class="cls-4" d="m146.52,142.86c4.53-1.96,9-1.91,13.4,0v-1.61c-4.41-1.91-8.87-1.95-13.4.02v1.59Z"/>
      <path class="cls-4" d="m12.51,127.11c.92-.05,1.83-.05,2.73,0v-.85c0-.09-.08-.27-.22-.27h-2.32c-.11.01-.19.18-.19.29v.82Z"/>
      <path class="cls-4" d="m12.5,127.68c.96-.07,1.86-.07,2.74.01,1.77,1.71,3.56,3.46,5.34,5.18-4.4-1.91-8.87-1.98-13.39-.01,1.77-1.73,3.55-3.45,5.32-5.18h0Z"/>
      <path class="cls-4" d="m13.32,133.87c.36-.01.71-.01,1.06,0,.57.02,1.14.07,1.7.15.39.05.78.13,1.17.21.53.12,1.06.26,1.59.43.14.05.29.1.42.15.43.15.85.32,1.28.5v-1.7c-4.4-1.91-8.87-1.95-13.39,0v1.69c.39-.17.78-.33,1.17-.46.18-.07.36-.12.53-.18.53-.17,1.06-.32,1.59-.43.39-.09.78-.16,1.17-.21.57-.08,1.13-.13,1.7-.15h0Z"/>
      <path class="cls-4" d="m19.28,135.77v1c.43-.15.85-.32,1.28-.5-.43-.19-.85-.35-1.28-.5h0Z"/>
      <path class="cls-4" d="m8.33,136.78v-.97c-.39.14-.78.29-1.17.46v.05c.39.17.78.32,1.17.46h0Z"/>
      <path class="cls-4" d="m19.28,143.31v1c.43-.15.86-.32,1.28-.5-.42-.18-.85-.35-1.28-.5h0Z"/>
      <path class="cls-4" d="m8.33,144.32v-.97c-.39.14-.78.29-1.17.46v.05c.39.17.78.32,1.17.46h0Z"/>
      <path class="cls-4" d="m17.26,135.19v4.25c.53.12,1.06.26,1.59.43v-4.25c-.53-.17-1.06-.32-1.59-.43h0Z"/>
      <path class="cls-4" d="m16.09,139.22v-4.25c-.56-.08-1.13-.13-1.7-.15v4.25c.57.02,1.14.07,1.7.15h0Z"/>
      <path class="cls-4" d="m13.32,139.07v-4.25c-.57.02-1.13.07-1.7.15v4.25c.57-.08,1.13-.13,1.7-.15h0Z"/>
      <path class="cls-4" d="m10.45,139.44v-4.25c-.53.12-1.06.26-1.59.43v4.25c.53-.17,1.06-.32,1.59-.43h0Z"/>
      <path class="cls-4" d="m13.32,151.19c-.57.02-1.13.07-1.7.15v7.78c.57-.08,1.13-.13,1.7-.16v-7.77Z"/>
      <path class="cls-4" d="m10.45,159.34v-7.78c-.53.12-1.06.26-1.59.43v7.77c.53-.17,1.06-.31,1.59-.43h0Z"/>
      <path class="cls-4" d="m14.39,151.19v7.77c.57.02,1.14.07,1.7.15v-7.77c-.56-.08-1.13-.13-1.7-.15h0Z"/>
      <path class="cls-4" d="m17.26,151.56v7.77c.53.12,1.06.26,1.59.43v-7.76c-.53-.17-1.06-.32-1.59-.43h0Z"/>
      <path class="cls-4" d="m18.85,160.74c-.53-.17-1.06-.32-1.59-.43v8.79c.53-.09,1.06-.17,1.59-.25v-8.11Z"/>
      <path class="cls-4" d="m16.09,169.31v-9.21c-.56-.08-1.13-.13-1.7-.15v9.7c.57-.12,1.13-.23,1.7-.33h0Z"/>
      <path class="cls-4" d="m13.32,169.87v-9.93c-.57.02-1.13.07-1.7.15v9.98c.48-.07.97-.12,1.46-.14l.24-.05Z"/>
      <path class="cls-4" d="m10.45,170.28v-9.98c-.53.12-1.06.26-1.59.43v9.99c.53-.17,1.06-.32,1.59-.43h0Z"/>
      <path class="cls-4" d="m8.86,151.14c.53-.17,1.06-.32,1.59-.43v-7.97c-.53.12-1.06.26-1.59.43v7.97Z"/>
      <path class="cls-4" d="m11.62,142.53v7.97c.57-.08,1.13-.13,1.7-.15v-7.97c-.57.02-1.13.07-1.7.15h0Z"/>
      <path class="cls-4" d="m14.39,142.38v7.97c.57.02,1.14.07,1.7.15v-7.97c-.56-.08-1.13-.13-1.7-.15h0Z"/>
      <path class="cls-4" d="m17.26,142.74v7.97c.53.12,1.06.26,1.59.43v-7.97c-.53-.17-1.06-.32-1.59-.43h0Z"/>
      <path class="cls-4" d="m7.16,142.86c4.53-1.96,8.99-1.91,13.39,0v-1.61c-4.4-1.91-8.87-1.95-13.39.02v1.59Z"/>
      <rect class="cls-8" x="102.15" y="161.2" width="11.59" height="4.46"/>
      <path class="cls-4" d="m129.64,170.13h-8.88v2.88c1.86-.81,3.77-1.47,5.8-2.07,1-.29,2.03-.56,3.08-.81h0Z"/>
      <path class="cls-4" d="m104.71,181.75v-7.37h-2.56v8.48c.86-.35,1.71-.72,2.56-1.11h0Z"/>
      <path class="cls-4" d="m105.77,174.39v6.87c.6-.29,1.21-.59,1.8-.89v-5.98h-1.8Z"/>
      <path class="cls-4" d="m108.53,174.39v5.49c.2-.1.4-.21.59-.31.41-.22.81-.44,1.22-.67v-4.51h-1.81Z"/>
      <path class="cls-4" d="m111.51,174.39v3.83c.75-.45,1.49-.9,2.23-1.36v-2.48h-2.23Z"/>
      <path class="cls-4" d="m114.91,170.13v6.01c.43-.27.87-.53,1.3-.79.17-.1.34-.2.51-.3v-4.92h-1.81Z"/>
      <path class="cls-4" d="m117.89,170.13v4.27c.6-.32,1.2-.62,1.81-.91v-3.36h-1.81Z"/>
      <path class="cls-4" d="m110.34,165.67h3.4v-4.46h-11.59v4.46h8.19Z"/>
      <path class="cls-4" d="m156.62,159.32c.53.12,1.06.26,1.59.43v-7.76c-.53-.17-1.06-.32-1.59-.43v7.77Z"/>
      <path class="cls-4" d="m155.44,159.12v-7.77c-.57-.08-1.13-.13-1.7-.15v7.77c.57.02,1.13.07,1.7.15h0Z"/>
      <path class="cls-4" d="m152.68,158.97v-7.77c-.57.02-1.13.07-1.7.15v7.78c.57-.08,1.14-.13,1.7-.16h0Z"/>
      <path class="cls-4" d="m149.81,159.34v-7.78c-.53.12-1.06.26-1.59.43v7.77c.53-.17,1.06-.31,1.59-.43h0Z"/>
      <path class="cls-4" d="m148.22,151.14c.53-.17,1.06-.32,1.59-.43v-7.97c-.53.12-1.06.26-1.59.43v7.97Z"/>
      <path class="cls-4" d="m150.98,142.53v7.97c.57-.08,1.14-.13,1.7-.15v-7.97c-.57.02-1.13.07-1.7.15h0Z"/>
      <path class="cls-4" d="m153.75,142.38v7.97c.57.02,1.13.07,1.7.15v-7.97c-.57-.08-1.13-.13-1.7-.15h0Z"/>
      <path class="cls-4" d="m156.62,142.74v7.97c.53.12,1.06.26,1.59.43v-7.97c-.53-.17-1.06-.32-1.59-.43h0Z"/>
      <path class="cls-4" d="m146.52,142.86c4.53-1.96,9-1.91,13.4,0v-1.61c-4.41-1.91-8.87-1.95-13.4.02v1.59Z"/>
      <path class="cls-4" d="m149.81,139.44v-4.25c-.53.12-1.06.26-1.59.43v4.25c.53-.17,1.06-.32,1.59-.43h0Z"/>
      <path class="cls-4" d="m150.98,134.98v4.25c.57-.08,1.14-.13,1.7-.15v-4.25c-.57.02-1.13.07-1.7.15h0Z"/>
      <path class="cls-4" d="m153.75,134.82v4.25c.57.02,1.13.07,1.7.15v-4.25c-.57-.08-1.13-.13-1.7-.15h0Z"/>
      <path class="cls-4" d="m156.62,135.19v4.25c.53.12,1.06.26,1.59.43v-4.25c-.53-.17-1.06-.32-1.59-.43h0Z"/>
      <path class="cls-4" d="m153.75,133.87c.57.02,1.13.07,1.7.15.39.05.78.13,1.17.21.53.12,1.06.26,1.59.43l.43.15c.43.15.85.32,1.28.5v-1.7c-4.41-1.91-8.87-1.95-13.4,0v1.69c.39-.17.78-.33,1.17-.46l.53-.18c.53-.17,1.06-.32,1.59-.43.39-.09.78-.16,1.17-.21.57-.08,1.14-.13,1.7-.15.35-.01.71-.01,1.06,0h0Z"/>
      <path class="cls-4" d="m146.53,132.86c4.53-1.96,8.99-1.9,13.39.01l-5.34-5.18c-.88-.08-1.78-.08-2.74-.01l-5.32,5.18Z"/>
      <path class="cls-4" d="m151.87,127.11c.92-.05,1.82-.05,2.73,0v-.85c0-.09-.08-.27-.22-.27h-2.32c-.11.01-.19.18-.19.29v.82Z"/>
      <path class="cls-4" d="m147.69,135.81c-.39.14-.78.29-1.17.46v.05c.39.17.78.32,1.17.46v-.97Z"/>
      <path class="cls-4" d="m158.64,135.77v1c.43-.15.85-.32,1.28-.5-.43-.19-.85-.35-1.28-.5h0Z"/>
      <path class="cls-4" d="m100.98,162.4c0-9.79-7.93-17.72-17.72-17.72s-17.72,7.93-17.72,17.72v3.27h35.44v-3.27Z"/>
      <path class="cls-4" d="m100.98,166.73h-35.44v15.29c5.78,2.55,11.44,4.47,18.12,4.67,5.93.18,11.78-1.2,17.32-3.36v-16.6Z"/>
      <path class="cls-7" d="m69.94,159.49c1.73,5.21,7.26,9.42,13.65,10.47.41.07.56-.12.56-.59,0-1.77-.09-3.44-.51-5.03-.1-.4-.16-.67-.73-.97-4.9-2.57-8.48-5.26-9.82-8.44-.23-.55-.65-.64-1.06-.1-.97,1.38-1.69,2.96-2.09,4.66h0Z"/>
      <path class="cls-7" d="m73.71,152.87c-.86.87,1.13,3.55,2.83,5.14.25.23.46.12.67-.15,2.58-3.45,5.77-6.05,9.98-7.18.6-.15.82-.68.11-.94-1.27-.41-2.62-.64-4.03-.66-3.7-.05-7.07,1.4-9.54,3.77,0,0,0,.01-.02.01h0Z"/>
      <path class="cls-7" d="m90.23,158.81c-1.98.89-3.87,2.23-5.64,4.18-.24.24-.29.54-.21.77,1.32,5.19.83,8.8-.86,11.37-.39.59.08.98.74.94,1.25-.1,2.45-.38,3.58-.8,3.27-2.93,5.68-7.97,3.19-16.12-.13-.46-.46-.5-.81-.34h0Z"/>
      <path class="cls-7" d="m91.85,158.69c1.55,5.07,1.4,9.43-.31,13.12-.27.58.36,1.05.88.58,2.55-2.42,4.15-5.83,4.2-9.62.02-1.9-.34-3.71-1.03-5.35-1.18.06-2.3.3-3.28.65-.35.12-.57.27-.47.62h0Z"/>
      <path class="cls-7" d="m83.6,170.89c-5.66-1.05-9.91-3.74-12.86-7.85-.47-.65-1.16-.6-1.14.4.4,6.59,5.51,11.93,12.05,12.62,1.13-1.25,1.93-2.68,2.31-4.51.07-.34.03-.58-.36-.66h0Z"/>
      <path class="cls-6" d="m73.09,154.93c1.34,3.18,4.92,5.87,9.82,8.44.57.3.63.57.73.97.42,1.59.51,3.26.51,5.03,0,.47-.15.66-.56.59-6.4-1.05-11.92-5.26-13.65-10.47.4-1.7,1.12-3.27,2.09-4.66.41-.54.82-.45,1.06.1h0Zm3.45,3.08c-1.7-1.59-3.69-4.27-2.83-5.14,0,0,.01-.01.02-.01,2.47-2.38,5.84-3.82,9.54-3.77,1.41.02,2.76.25,4.03.66.71.25.49.79-.11.94-4.21,1.13-7.4,3.73-9.98,7.18-.21.27-.42.38-.67.15h0Zm-5.8,5.02c2.95,4.11,7.2,6.8,12.86,7.85.39.07.43.32.36.66-.38,1.83-1.18,3.26-2.31,4.51-6.53-.7-11.65-6.04-12.05-12.62-.02-.99.67-1.05,1.14-.4h0Zm12.55-15.34c-8.23-.1-14.99,6.49-15.09,14.72-.11,8.23,6.49,14.99,14.72,15.09,8.23.11,14.99-6.48,15.09-14.72.1-8.23-6.49-14.99-14.72-15.09h0Zm11.61,8.29c.09.15.1.28.05.39h0c.04-.11.03-.23-.05-.39h0Zm-11.37,19.15c1.69-2.56,2.17-6.18.86-11.37-.08-.24-.02-.53.21-.77,1.76-1.95,3.66-3.29,5.64-4.18.35-.16.68-.12.81.34,2.48,8.15.07,13.19-3.19,16.12-1.13.42-2.33.7-3.58.8-.66.04-1.12-.36-.74-.94h0Zm8.02-3.32c1.71-3.7,1.85-8.06.31-13.12-.11-.35.12-.5.47-.62.97-.35,2.09-.58,3.28-.65.69,1.64,1.05,3.46,1.03,5.35-.05,3.79-1.65,7.2-4.2,9.62-.52.47-1.15,0-.88-.58h0Z"/>
      <path class="cls-7" d="m90.45,151.25c-5.16.06-9.14,2.87-12.48,7.18-.2.26-.36.53.06.85,1.61,1.16,3.22,2.24,5.17,3.16.37.18.5.18.8-.15,2.95-3.32,6.51-5.12,10.48-5.66.42-.06.63-.28.43-.65h0c-1.08-1.92-2.61-3.54-4.45-4.74h0Z"/>
      <path class="cls-4" d="m110.34,165.67h3.4v-4.46h-11.59v4.46h8.19Z"/>
      <path class="cls-4" d="m104.71,181.75v-7.37h-2.56v8.48c.86-.35,1.71-.72,2.56-1.11h0Z"/>
      <path class="cls-4" d="m105.77,174.39v6.87c.6-.29,1.21-.59,1.8-.89v-5.98h-1.8Z"/>
      <path class="cls-4" d="m108.53,174.39v5.49l.59-.31c.41-.22.81-.44,1.22-.67v-4.51h-1.81Z"/>
      <path class="cls-4" d="m111.51,174.39v3.83c.75-.45,1.49-.9,2.23-1.36v-2.48h-2.23Z"/>
      <path class="cls-4" d="m114.91,170.13v6.01c.43-.27.87-.53,1.3-.79.17-.1.34-.2.51-.3v-4.92h-1.81Z"/>
      <path class="cls-4" d="m117.89,170.13v4.27c.6-.32,1.2-.62,1.81-.91v-3.36h-1.81Z"/>
      <path class="cls-4" d="m120.76,170.13v2.88c1.86-.81,3.77-1.47,5.8-2.07,1-.29,2.03-.56,3.08-.81h-8.88Z"/>
      <rect class="cls-8" x="102.15" y="166.73" width="2.56" height="6.59"/>
      <rect class="cls-8" x="105.77" y="166.73" width="1.8" height="6.59"/>
      <rect class="cls-8" x="108.53" y="166.73" width="1.81" height="6.59"/>
      <rect class="cls-8" x="111.51" y="166.73" width="2.23" height="6.59"/>
      <path class="cls-5" d="m114.91,166.73v2.34h20.44c3.42-.48,6.98-.68,10.5-.54v-14.75c-1.43,1.02-2.83,2.06-4.25,3.08v4.14h-2.12v-2.65c-3.8,2.58-7.91,4.93-13.09,6.41,5.91-3.26,10.07-6.06,13.09-8.57v-5.25c-7.4,6.61-15.71,11.69-24.55,15.8h0Z"/>
      <path class="cls-5" d="m141.59,148.96v5.32c1.88-1.79,3.2-3.44,4.25-5.02v-4.68c-1.38,1.53-2.8,2.99-4.25,4.38h0Z"/>
      <path class="cls-4" d="m56.5,165.67h-3.38v-4.46h11.5v4.46h-8.12Z"/>
      <path class="cls-4" d="m62.1,180.43v-6.04h2.53v7.22c-.84-.38-1.68-.78-2.53-1.18h0Z"/>
      <path class="cls-4" d="m61.04,174.39v5.54l-.15-.07c-.55-.26-1.1-.53-1.64-.8v-4.67h1.79Z"/>
      <path class="cls-4" d="m58.3,174.39v4.2c-.6-.3-1.2-.6-1.8-.89v-3.31h1.8Z"/>
      <path class="cls-4" d="m55.34,174.39v2.73c-.74-.37-1.48-.74-2.21-1.11v-1.62h2.21Z"/>
      <path class="cls-4" d="m51.97,170.13v5.31c-.6-.29-1.2-.58-1.8-.86v-4.44h1.8Z"/>
      <path class="cls-4" d="m49.01,170.13v3.9c-.59-.28-1.19-.55-1.79-.81v-3.09h1.79Z"/>
      <path class="cls-4" d="m46.16,170.13v2.63c-2.44-1.04-4.86-1.93-7.28-2.63h7.28Z"/>
      <rect class="cls-8" x="62.1" y="166.73" width="2.53" height="6.59"/>
      <rect class="cls-8" x="59.25" y="166.73" width="1.79" height="6.59"/>
      <rect class="cls-8" x="56.5" y="166.73" width="1.8" height="6.59"/>
      <rect class="cls-8" x="53.13" y="166.73" width="2.21" height="6.59"/>
      <path class="cls-5" d="m51.97,166.73v2.34h-17.43c-4.18-.82-8.43-1.06-12.95-.55h-.33s0-14.74,0-14.74c1.41,1.02,2.81,2.06,4.22,3.08v4.14h2.11v-2.65c3.77,2.58,7.85,4.93,13,6.41-5.87-3.26-10-6.06-13-8.57v-5.25c7.35,6.61,15.59,11.69,24.38,15.8h0Z"/>
      <path class="cls-5" d="m25.48,148.96v5.32c-1.86-1.79-3.18-3.44-4.22-5.02v-4.68c1.37,1.53,2.78,2.99,4.22,4.38h0Z"/>
      <text class="cls-9" transform="translate(75.51 183.99)"><tspan x="0" y="0">1905</tspan></text>
      <path class="cls-3" d="m116.45,122.52c.11.07.14.18.09.27-.34.65-1.2,1.2-1.7,1.27,1.47,1.27,5.68.59,6.85-1.48.31-.54.46-1.06.45-1.7-.02-1.5-.51-3.16-.76-4.78-.12-.8-.14-.92.17-1.77.24-.77.54-1.52.7-2.31.13-.62.2-1.18.11-1.86-.75-5.75-5.86-11.32-9.79-15.5.08,1.02.04,2.07.23,3.07-5.89-3.29-13.67-8.93-16.37-11.8-7.1-7.54-12.72-15.46-15.53-21.64-1.07-2.65-2.72-4.74-5.73-6.47-18.38-10.54-26.29-28.3-19.86-56.56.25-1.09-.05-.88-.49-.32-7.36,9.31-12.01,19.62-11.67,31.75-4.95-9.82-7.48-20.4-6.41-32.09.02-.27-.15-.38-.42-.08-.79.46-2.09,3.1-3.77,7.02-3.25,7.61-5.71,17.91-3.41,30.33-2.24-1.79-4.39-4.6-6.68-10.35-1.43-3.61-2.44-8.48-4.09-15.02-2,4.63-1.84,28.16,12.11,42.76.07.07.01.22-.12.19-4.7-1.05-9.43-2.01-14.04-2.75,3.89,2.98,7.63,6.28,11.25,9.77,8.24.6,19.46,4.85,25.03,9.29-7-3.41-14.38-4.96-21.09-5.49,3.84,3.57,7.68,7.08,11.64,10.6-2.69-.14-5.62-.53-8.43-.83,3.92,3.29,7.98,6.51,11.97,9.7,5.65-.15,11.21.38,16.48,3.09-3.89-1.07-8.11-1.08-12.66.05,2.76,2.23,5.51,4.46,8.27,6.7,2.23.05,4.46.11,6.7.17-9.46,6.19-18.89,4.19-28.97-3.43,1.16,3.27,4.25,5.72,6.64,8.32-6.83-.38-14.16-2.49-20.6-5.71,3.22,5.45,7.6,10.69,12.73,14.27.54.38,1.18.64,1.8.68,5.62.32,10.65-.5,16.12-2.28.19-.06.3.1.13.2-5.79,3.55-11.73,6.32-18.75,5.64,4.48,1.83,9.84,2.72,14.84,3.35.65.08,1.34-.1,1.91-.34,4.03-1.7,7.96-3.67,11.85-5.88.11-.06.29.11.2.18-2.88,2.38-5.77,4.74-8.65,7.11-.1.09,0,.18.09.18,5.36.59,10.61.72,14.85-.9.21-.07.42.05.09.22-.96.61-2,1.23-2.97,1.84-.16.1-.13.29-.03.42.63,1.16,1.2,2.34,1.89,3.49.07.14-.05.28-.18.2-.64-.27-1.26-.59-1.85-.95-.09-.05-.21.02-.16.11,1.13,1.96,1.16,2.99,4.13,5.12.09.48.24.97.45,1.46.05.11-.05.25-.16.2-1.1-.57-2.11-1.29-3.08-2.08-.19-.15-.24-.01-.2.14.38,1.77,1.32,3.09,2.89,4.08.77.55,1.6,1.27,1.89,2.16.52,1.62,1.16,3.27,1.74,4.89.29.96.07,2.05-.31,2.74-.44.8-1.8,1.98-2.56,2.41-1.48.84-4.05,2.42-1.78,6.31.06.12.23.16.25-.03.93-2.64,2.41-4.53,5.57-4.23.69.07,1.3-.15,1.73-.53,2.9-2.58,7.78-2.94,11.46-.62-.46-.83-.89-1.43-1.52-1.97-.39-.33-.82-.6-1.26-.76-.99-.36-1.9-.6-2.88-.88-.16-.06-.09-.2.22-.17,3.78.17,6.28,1.55,8.45,5.02.07,0,.14.02.22.03.09-2.03-1.09-3.85-2.88-5.57-1.18-.58-6.32-1.09-9.51-1.29-.56-.03-1.04-.32-1.43-.7-.59-.69-.95-1.42-1.21-2.33-.08-.29.14-.36.32-.22.62.47,1.55.7,2.37.75.14.01.22-.11.19-.21-.31-1.35-.59-2.78-1.06-4.09-.09-.24.13-.33.34-.2.39.24.87.37,1.32.48.16.04.27-.11.23-.25-1.08-3.32-1.84-6.59.34-9.42.05-.06.13-.11.24-.02.63.5,1.26,1,1.88,1.51.21.17.15.42.2.63.71,3.05.72,2.46,2.84,4.55.1.1.12.25-.06.2-1.03-.3-2.05-.64-3.08-.93-.17-.05-.23,0-.18.12.68,1.59,1.93,2.9,3.11,3.81.17.13.36.29.55.34,2,.54,3.92,1.69,3.75,4.28-.01.2-.25.34-.38.25-1.98-1.23-3.45-.88-5.73.88-.16.12-.12.24.04.23,1.96-.15,4.08.21,5.73.98.41.19.64.39.86.68.78,1.02,1.49,2,2.87,2.73,1.24.65,2.21,2.19,2.14,3.7-.03.55-.05,1.1-.07,1.67,0,.14.15.19.22.11,1.22-1.55,1.25-3.5.82-5.38-.04-.14.17-.26.3-.05,1.56,2.45,1.61,4.98.87,7.52-.05.18.07.29.18.18,2.04-1.88,3.13-4.02,2.22-6.71-.2-.59-.64-1.11-1.09-1.46-2.66-2.09-4.14-3.29-4.95-5.18-.45-1.04-.85-2.12-1.18-3.25-.04-.15-.05-.27.2-.19.43.15.87.22,1.3.26.11,0,.17-.11.14-.21-.68-2.04-.91-4.14-1.28-6.23-.02-.11.07-.24.15-.18.49.38.96.77,1.61.91-.66-1.55-1.22-3.09-1.81-4.64.18-1.2.31-2.2.78-3.38.07-.17.21-.15.2.02-.04,1.42.74,2.32,1.44,3.12.06.08.23.04.23-.07.09-3.37,2.89-6.1,5.79-7.85.1-.06.15.07.14.15,0,.61.06,1.24.4,1.66.07.09.15.1.2-.03.52-1.37,1.73-2.01,3.06-2.48.3-.1.5,0,.76.13,1.43.67,3.52,1.47,4.37,1.81.29.11.39.35.44.61.22,1.14.8,1.86,1.76,2.57,1.23.79,2.44,1.6,3.67,2.38h0Z"/>
      <path class="cls-6" d="m113.32,117.24c1.29,1.12,2.31,2.32,3.06,3.87.06.11-.01.26-.18.13-.75-.59-1.51-1.16-2.25-1.76-.15-.12-.21-.28-.24-.44-.11-.55-.29-1.02-.51-1.56-.09-.22-.01-.37.12-.24h0Z"/>
      <path class="cls-6" d="m119.98,116.41c.57,1.55.98,3.18,1.07,4.9.06,1.11-2.09,2.48-4.29,2.74-.11,0-.21-.12-.08-.23,3.68-2.15-2.65-6.76-4.92-8.65-.12-.11-.1-.3.11-.25.88.23,2.89,1.7,4.46,2.43.25.12.48.14.7.09,1.07-.25,2.12-.58,2.95-1.03h0Z"/>
      <path class="cls-6" d="m115.28,115.85c-.71-.64-1.42-1.33-1.75-2.22.75.29,1.45.67,2.23.59-1.52-.87-1.95-1.9-1.53-3.25.05-.16-.02-.36-.14-.55-.56-.91-1.82-3-.83-4.25,1.3,2.86,2.99,5.6,3.89,8.54.77-.74,1.23-2.57,1-3.57-.04-.16-.22-.27-.05-.48.38.24,1.59,3.5,1.04,4.57,0,.1.18.16.28.04,1.18-1.4,1.43-2.82,1.32-4.26-1.55-4.15-3.99-7.96-6.89-11.59.06,1.19.11,2.38.17,3.57-2.86-2.91-6.31-6.31-10.02-8.16-.09,1.93-.08,3.74-.34,5.62-.62-1.89-1.98-4.81-4.16-7.11.23,3.58.6,3.63.42,4.92-1.84-5.88-22.29-28.52-24.07-35.02-.12-.22-.33-.34-.56-.49-20.07-13.46-29.21-31.11-24.3-49.22-9.05,22.96-.36,38.26,9.96,46.72-18.4-10.02-28.03-35.92-25.99-52.31-5.21,16.41-2.88,44.57,29.14,62.44,13.92,7.76,22.39,15.1,28.04,28.28-8.66-9.2-19.19-15.18-38.56-20.4,7.61,3.77,17,8.53,24.33,14.16-2.39.46-5.6,1.4-7.06,3.33,4.95-1.03,9.76-.52,14.23,2.1-4.37-1.1-10.11.27-14.57,2.79-2.82,1.6-6.28,2.95-9.2,3.32-.35.04-.65.06-.9.39,1.78.17,3.66.45,5.62.51,4.4.14,7.98-2.37,13.81-2.28,2.84.05,5.57.3,7.96,1.69-6.38-.73-12.63,1.53-18.55,5.67,4.19.32,8.38.64,12.57.96-2.9,2.03-5.79,4.06-8.69,6.09-.2,3.55.22,6.93,2.03,10.07.04.06.19.12.21,0,.43-3.02.93-6.15,2.96-8.63,2.29.7,6.1.84,8.64-1.01-1.21,2.84.03,8.64,3.31,12.19-1.12-2.67.09-14.7,7.75-16.77.15-.05.15-.26-.06-.32-2.66-.8-6.55-2.49-7.21-4.41,2.43,1.32,5.11,1.96,8.04,2.23.86.08,1.58.22,2.41.52.11.03.12-.06.06-.11-1.49-1.39-2.99-2.79-4.49-4.18,2.71.38,5.98,1.96,9.22,3.66-1.27-1.48-2.59-2.86-3.82-4.45,1.61.75,3.2,1.55,4.8,2.41.51,1.04,1.09,2.04,1.63,3.07.1.19.24.39.42.52,1.87,1.37,3.79,2.91,5.75,4.03.2.11.3.13.48.04h0Z"/>
      <path class="cls-3" d="m108.89,93.72c-1.62-.98-2.94-2.22-4.32-3.27.45-17.75,9.5-41.85,15.26-50.26.03-.04-.05-.15-.1-.11-9.53,9.3-15.49,24.74-18.72,38.44-.1-.02-.22-.09-.28-.18-.86-.95-1.7-1.96-2.58-2.86-.06-.06-.18-.03-.19.06.03,2.83.05,5.6.08,8.43-4.67-5.03-8.8-10.71-12.43-16.96.38-1.93.91-3.9.97-5.86,1.94,3.34,4.06,6.34,6.72,8.29.08.06.18,0,.11-.09-2.59-3.94-4.71-8.07-6.54-12.32.52-4.5.51-9.39,1.43-13.56.71-4.1,2.07-7.97,3.81-11.82-1.02,12.75,1.47,21.2,5.19,28.42-1.63-5.31-2.33-9.96-2.79-15.24,5.26-17.42,19.75-30.6,31.19-35.91.34-.16.69.12.46.39-2.27,2.7-4.42,5.51-5.94,8.47-9.13,8.83-15.33,20.41-15.51,29.48,0,.09.17.13.18.03,2.14-8.07,9.34-19.4,15.17-24,7.52-5.94,15.76-8.53,25.19-7.87.22.01.52.48.33.56-8.79,3.42-15.34,8.33-19.34,14.87-.11.18-.03.34.11.25,8.96-5.85,23.65-5.25,26.23-4.39.46.15.32.57.03.7-17.88,8-28.88,20.5-30.13,35-4.44,4.23-7.48,9.84-10.29,14.91-2.28,4.12-3.42,8.52-4.66,13.01-.07.27-.08.61.04.89.38.87.77,1.7,1.32,2.52h0Z"/>
    </g>
  </g>
</svg>