<?xml version="1.0" encoding="UTF-8"?>
<svg id="Layer_2" data-name="Layer 2" xmlns="http://www.w3.org/2000/svg" xmlns:xlink="http://www.w3.org/1999/xlink" viewBox="0 0 33.56 19.58">
  <defs>
    <style>
      .cls-1 {
        clip-path: url(#clippath);
      }

      .cls-2 {
        fill: none;
      }

      .cls-2, .cls-3, .cls-4, .cls-5 {
        stroke-width: 0px;
      }

      .cls-6 {
        clip-path: url(#clippath-1);
      }

      .cls-7 {
        clip-path: url(#clippath-4);
      }

      .cls-8 {
        clip-path: url(#clippath-3);
      }

      .cls-9 {
        clip-path: url(#clippath-2);
      }

      .cls-10 {
        clip-path: url(#clippath-7);
      }

      .cls-11 {
        clip-path: url(#clippath-8);
      }

      .cls-12 {
        clip-path: url(#clippath-6);
      }

      .cls-13 {
        clip-path: url(#clippath-5);
      }

      .cls-14 {
        clip-path: url(#clippath-9);
      }

      .cls-15 {
        clip-path: url(#clippath-20);
      }

      .cls-16 {
        clip-path: url(#clippath-21);
      }

      .cls-17 {
        clip-path: url(#clippath-24);
      }

      .cls-18 {
        clip-path: url(#clippath-23);
      }

      .cls-19 {
        clip-path: url(#clippath-22);
      }

      .cls-20 {
        clip-path: url(#clippath-25);
      }

      .cls-21 {
        clip-path: url(#clippath-26);
      }

      .cls-22 {
        clip-path: url(#clippath-14);
      }

      .cls-23 {
        clip-path: url(#clippath-13);
      }

      .cls-24 {
        clip-path: url(#clippath-12);
      }

      .cls-25 {
        clip-path: url(#clippath-10);
      }

      .cls-26 {
        clip-path: url(#clippath-15);
      }

      .cls-27 {
        clip-path: url(#clippath-17);
      }

      .cls-28 {
        clip-path: url(#clippath-16);
      }

      .cls-29 {
        clip-path: url(#clippath-19);
      }

      .cls-30 {
        clip-path: url(#clippath-11);
      }

      .cls-31 {
        clip-path: url(#clippath-18);
      }

      .cls-3 {
        fill: #2c6752;
      }

      .cls-4 {
        fill: #dd7d21;
      }

      .cls-5 {
        fill: #fff;
      }
    </style>
    <clipPath id="clippath">
      <rect class="cls-2" width="33.56" height="19.58"/>
    </clipPath>
    <clipPath id="clippath-1">
      <rect class="cls-2" width="33.56" height="19.58"/>
    </clipPath>
    <clipPath id="clippath-2">
      <rect class="cls-2" width="33.56" height="19.58"/>
    </clipPath>
    <clipPath id="clippath-3">
      <rect class="cls-2" width="33.56" height="19.58"/>
    </clipPath>
    <clipPath id="clippath-4">
      <rect class="cls-2" width="33.56" height="19.58"/>
    </clipPath>
    <clipPath id="clippath-5">
      <rect class="cls-2" width="33.56" height="19.58"/>
    </clipPath>
    <clipPath id="clippath-6">
      <rect class="cls-2" width="33.56" height="19.58"/>
    </clipPath>
    <clipPath id="clippath-7">
      <rect class="cls-2" width="33.56" height="19.58"/>
    </clipPath>
    <clipPath id="clippath-8">
      <rect class="cls-2" width="33.56" height="19.58"/>
    </clipPath>
    <clipPath id="clippath-9">
      <rect class="cls-2" width="33.56" height="19.58"/>
    </clipPath>
    <clipPath id="clippath-10">
      <rect class="cls-2" width="33.56" height="19.58"/>
    </clipPath>
    <clipPath id="clippath-11">
      <rect class="cls-2" width="33.56" height="19.58"/>
    </clipPath>
    <clipPath id="clippath-12">
      <rect class="cls-2" width="33.56" height="19.58"/>
    </clipPath>
    <clipPath id="clippath-13">
      <rect class="cls-2" width="33.56" height="19.58"/>
    </clipPath>
    <clipPath id="clippath-14">
      <rect class="cls-2" width="33.56" height="19.58"/>
    </clipPath>
    <clipPath id="clippath-15">
      <rect class="cls-2" width="33.56" height="19.58"/>
    </clipPath>
    <clipPath id="clippath-16">
      <rect class="cls-2" width="33.56" height="19.58"/>
    </clipPath>
    <clipPath id="clippath-17">
      <rect class="cls-2" width="33.56" height="19.58"/>
    </clipPath>
    <clipPath id="clippath-18">
      <rect class="cls-2" width="33.56" height="19.58"/>
    </clipPath>
    <clipPath id="clippath-19">
      <rect class="cls-2" width="33.56" height="19.58"/>
    </clipPath>
    <clipPath id="clippath-20">
      <rect class="cls-2" width="33.56" height="19.58"/>
    </clipPath>
    <clipPath id="clippath-21">
      <rect class="cls-2" width="33.56" height="19.58"/>
    </clipPath>
    <clipPath id="clippath-22">
      <rect class="cls-2" width="33.56" height="19.58"/>
    </clipPath>
    <clipPath id="clippath-23">
      <rect class="cls-2" width="33.56" height="19.58"/>
    </clipPath>
    <clipPath id="clippath-24">
      <rect class="cls-2" width="33.56" height="19.58"/>
    </clipPath>
    <clipPath id="clippath-25">
      <rect class="cls-2" width="33.56" height="19.58"/>
    </clipPath>
    <clipPath id="clippath-26">
      <rect class="cls-2" width="33.56" height="19.58"/>
    </clipPath>
  </defs>
  <g id="Layer_1-2" data-name="Layer 1">
    <g id="CYPRUSS">
      <g>
        <g class="cls-1">
          <rect class="cls-5" width="33.56" height="19.58"/>
        </g>
        <g class="cls-6">
          <g>
            <g class="cls-9">
              <path class="cls-4" d="m14.35,5.95c0,.26.03.29.05.34.02.05.04.94-.09,1.18-.13.24-.39.38-.5.4-.1.02-.44-.21-.74-.3-.31-.1-.29-.08-.42-.08s-.42.11-.5.18c-.05-.01-.07-.03-.1,0-.03.03-.16.16-.19.24-.03.08-.11.39-.21.42-.09.03-.36.3-.53.3-.17.01-.13,0-.24-.02-.11,0-.13-.13-.24-.19-.11-.07-.14-.11-.14-.11,0,0-.03-.13-.08-.13-.05,0-.09.23-.09.29s.13.3.19.36c.06.05.06.34.03.42-.03.08.06.16.08.24.01.08-.1.14-.05.16.05.01.11.11.11.21s.24.13.29.23c.05.1.07.26.08.36.01.1.07.05.08.29.08.04.19.11.29.16.1.05.08.16.21.21.13.05.13,0,.19.02.06.01-.03.03.08.06.11.03.16-.02.25.03.1.05.15.16.21.2.07.03.34.11.36.13.02.02.19.08.22.08s.13-.06.13-.06c0,0,.11.03.21,0,.1-.03.16-.13.23-.13s.08.03.15.03.16-.03.16-.03c0,0,.15-.03.26.03.11.07.37.37.37.5s-.02.19-.02.19c0,0,.13-.01.18.01.05.03.04-.02.4.03-.02-.09-.37-.34-.05-.69.32-.35.34-.21.42-.27.07-.06.37-.25.87-.08.49-.08.13-.15.4-.16.05-.02.14,0,.24.03.03-.06.1-.12.21-.1.02-.06.15-.13.29-.15.02-.11.36-.24.56-.26.08-.07.17-.4.62-.24.01-.1.09-.27.21-.31.03-.22-.06-.66.16-.8.22-.2.42-.15.79-.14.25.05.37.24.45.26.08.01.11.01.21-.05.1-.06-.01-.19.07-.19.08,0,.05.02.18,0,.13-.01.11-.06.19-.08.13.06.28.02.34.06.06.05.07.04.21.06.05.08.18.08.18.08,0,0-.1-.03-.07-.08.03-.05,0-.19-.06-.25-.07-.06-.1-.08-.15-.15-.05-.06.02-.06-.06-.14-.08-.08-.26-.16-.3-.26s-.03-.16-.11-.24c-.08-.08-.4-.36-.42-.64-.02-.29.01-.57.21-.66,0-.17.03-.2.21-.29.18-.1.2-.03.31-.03s.18.02.29-.07c.11-.08.01-.26.3-.51.29-.26.41-.39.5-.4.09-.02.45-.26.59-.24.1-.12.21-.27.34-.37.13-.1.27-.1.34-.18.07-.08.05-.23.24-.35.19-.13.36-.21.43-.27.08-.07.26-.02.32-.08.07-.07.07-.31.13-.36.06-.05-.21.11-.36.18-.14.06-.35.18-.53.16-.18-.02-.08.1-.18.13-.1.03-.26.02-.32.08-.07.07-.18.23-.27.29-.1.06-.15.05-.24.1-.1.05-.18.1-.26.13s-.32.02-.32.02c0,0-.21.27-.31.37-.09.1-.21.08-.3.13s-.92.58-1.48.66c-.57.08-.31-.05-.49,0-.18.05-.43.39-.65.4-.21.02-.28,0-.32,0-.05,0-.31.16-.47.13-.24.07-.41.06-.48.05-.07,0-.19.08-.37,0-.14-.05-.14.05-.4-.03-.27-.08-.45.03-.58-.03-.13-.07-.11-.12-.21-.12-.09,0-.09.07-.21.07s-.13-.07-.22-.07-.21.07-.36.05c-.14-.02-.19-.08-.29-.08-.09,0-.63-.23-.63-.23h0Z"/>
            </g>
            <g class="cls-8">
              <path class="cls-3" d="m16,15.79c.28-.2.53-.27.91-.34s.78-.18.99-.23c.21-.06-.72.27-.95.33-.23.07-.95.24-.95.24h0Z"/>
            </g>
            <g class="cls-7">
              <path class="cls-3" d="m17.53,15.19c-.08-.48.11-.98.55-1.18.1.35-.21.94-.55,1.18h0Z"/>
            </g>
            <g class="cls-13">
              <path class="cls-3" d="m18.27,14.95c-.23-.4.16-.91.45-1.16.14.24-.1.96-.45,1.16h0Z"/>
            </g>
            <g class="cls-12">
              <path class="cls-3" d="m18.95,14.64c-.25-.34.05-.94.36-1.18.12.34,0,.94-.36,1.18h0Z"/>
            </g>
            <g class="cls-10">
              <path class="cls-3" d="m19.64,14.21c-.23-.32-.07-.82.26-1.15.23.27.03.85-.26,1.15h0Z"/>
            </g>
            <g class="cls-11">
              <path class="cls-3" d="m20.19,13.78c-.19-.3.04-1.03.35-1.23.13.27.03,1.03-.35,1.23h0Z"/>
            </g>
            <g class="cls-14">
              <path class="cls-3" d="m20.62,13.66c-.05-.44.71-.92,1.02-.9-.03.35-.36.75-1.02.9h0Z"/>
            </g>
            <g class="cls-25">
              <path class="cls-3" d="m20.19,14.15c.36-.37,1.05-.37,1.3-.29-.06.21-.89.68-1.3.29h0Z"/>
            </g>
            <g class="cls-30">
              <path class="cls-3" d="m19.7,14.52c.5-.14.83-.24,1.13.07-.21.27-1.03.19-1.13-.07h0Z"/>
            </g>
            <g class="cls-24">
              <path class="cls-3" d="m18.98,14.85c.48-.26,1.07.12,1.15.34-.54.23-1.16-.29-1.15-.34h0Z"/>
            </g>
            <g class="cls-23">
              <path class="cls-3" d="m18.32,15.22c.44-.17.94.05,1.14.3-.23.11-.85.24-1.14-.3h0Z"/>
            </g>
            <g class="cls-22">
              <path class="cls-3" d="m17.72,15.41c.5-.06.99.33,1.09.54-.64.06-.89-.13-1.09-.54h0Z"/>
            </g>
            <g class="cls-26">
              <path class="cls-3" d="m17.56,15.79c-.28-.2-.53-.27-.91-.34s-.78-.18-1-.23c-.21-.06.72.27.96.33.23.07.95.24.95.24h0Z"/>
            </g>
            <g class="cls-28">
              <path class="cls-3" d="m16.03,15.19c.08-.48-.11-.98-.55-1.18-.1.35.21.94.55,1.18h0Z"/>
            </g>
            <g class="cls-27">
              <path class="cls-3" d="m15.29,14.95c.24-.4-.16-.91-.45-1.16-.14.24.1.96.45,1.16h0Z"/>
            </g>
            <g class="cls-31">
              <path class="cls-3" d="m14.6,14.64c.25-.34-.04-.94-.35-1.18-.12.34,0,.94.35,1.18h0Z"/>
            </g>
            <g class="cls-29">
              <path class="cls-3" d="m13.92,14.21c.22-.32.07-.82-.26-1.15-.23.27-.03.85.26,1.15h0Z"/>
            </g>
            <g class="cls-15">
              <path class="cls-3" d="m13.38,13.78c.19-.3-.04-1.03-.35-1.23-.13.27-.03,1.03.35,1.23h0Z"/>
            </g>
            <g class="cls-16">
              <path class="cls-3" d="m12.94,13.66c.06-.44-.7-.92-1.01-.9.03.35.35.75,1.01.9h0Z"/>
            </g>
            <g class="cls-19">
              <path class="cls-3" d="m13.37,14.15c-.36-.37-1.05-.37-1.3-.29.07.21.89.68,1.3.29h0Z"/>
            </g>
            <g class="cls-18">
              <path class="cls-3" d="m13.86,14.52c-.5-.14-.83-.24-1.13.07.21.27,1.03.19,1.13-.07h0Z"/>
            </g>
            <g class="cls-17">
              <path class="cls-3" d="m14.57,14.85c-.48-.26-1.06.12-1.15.34.54.23,1.16-.29,1.15-.34h0Z"/>
            </g>
            <g class="cls-20">
              <path class="cls-3" d="m15.23,15.22c-.44-.17-.94.05-1.14.3.24.11.85.24,1.14-.3h0Z"/>
            </g>
            <g class="cls-21">
              <path class="cls-3" d="m15.84,15.41c-.51-.06-.99.33-1.09.54.64.06.89-.13,1.09-.54h0Z"/>
            </g>
          </g>
        </g>
      </g>
    </g>
  </g>
</svg>