<?xml version="1.0" encoding="UTF-8"?>
<svg id="Layer_2" data-name="Layer 2" xmlns="http://www.w3.org/2000/svg" viewBox="0 0 327.31 426.77">
  <defs>
    <style>
      .cls-1 {
        stroke-width: 1.88px;
      }

      .cls-1, .cls-2, .cls-3, .cls-4, .cls-5, .cls-6, .cls-7, .cls-8, .cls-9, .cls-10, .cls-11, .cls-12, .cls-13, .cls-14, .cls-15, .cls-16, .cls-17, .cls-18, .cls-19, .cls-20, .cls-21, .cls-22, .cls-23, .cls-24, .cls-25, .cls-26, .cls-27, .cls-28, .cls-29, .cls-30, .cls-31, .cls-32, .cls-33, .cls-34, .cls-35 {
        stroke-miterlimit: 3.86;
      }

      .cls-1, .cls-2, .cls-3, .cls-5, .cls-6, .cls-7, .cls-9, .cls-11, .cls-14, .cls-15, .cls-16, .cls-17, .cls-18, .cls-20, .cls-21, .cls-24, .cls-27, .cls-29, .cls-31, .cls-32, .cls-33, .cls-34, .cls-35 {
        stroke: #000;
      }

      .cls-1, .cls-4, .cls-5, .cls-6, .cls-8, .cls-9, .cls-10, .cls-11, .cls-13, .cls-14, .cls-16, .cls-17, .cls-18, .cls-19, .cls-20, .cls-23, .cls-24, .cls-26, .cls-27, .cls-28, .cls-29, .cls-30, .cls-31, .cls-32, .cls-34 {
        fill: none;
      }

      .cls-2, .cls-3, .cls-7, .cls-12, .cls-15, .cls-21, .cls-22, .cls-25, .cls-36, .cls-37, .cls-38, .cls-33, .cls-35, .cls-39 {
        fill-rule: evenodd;
      }

      .cls-2, .cls-8 {
        stroke-width: 2.22px;
      }

      .cls-3, .cls-11, .cls-21 {
        stroke-width: .67px;
      }

      .cls-4 {
        stroke-width: .5px;
      }

      .cls-4, .cls-8, .cls-10, .cls-12, .cls-13, .cls-19, .cls-22, .cls-23, .cls-25, .cls-26, .cls-28, .cls-30 {
        stroke: #fff;
      }

      .cls-5 {
        stroke-width: 1.55px;
      }

      .cls-6 {
        stroke-width: 1.56px;
      }

      .cls-7, .cls-12 {
        stroke-width: .56px;
      }

      .cls-9 {
        stroke-width: 1.66px;
      }

      .cls-10 {
        stroke-width: .83px;
      }

      .cls-12, .cls-21, .cls-22, .cls-25, .cls-36, .cls-33, .cls-35 {
        fill: #fff;
      }

      .cls-13, .cls-25 {
        stroke-width: .42px;
      }

      .cls-14 {
        stroke-width: .43px;
      }

      .cls-15, .cls-33 {
        stroke-width: .44px;
      }

      .cls-16 {
        stroke-width: .89px;
      }

      .cls-17 {
        stroke-width: 1.78px;
      }

      .cls-18 {
        stroke-width: 2.15px;
      }

      .cls-19 {
        stroke-width: .65px;
      }

      .cls-20 {
        stroke-width: .71px;
      }

      .cls-22, .cls-28 {
        stroke-width: .54px;
      }

      .cls-23 {
        stroke-width: .75px;
      }

      .cls-24 {
        stroke-width: .39px;
      }

      .cls-26 {
        stroke-width: 1.08px;
      }

      .cls-27 {
        stroke-width: 1.11px;
      }

      .cls-36, .cls-37, .cls-38, .cls-39 {
        stroke-width: 0px;
      }

      .cls-37 {
        fill: #e5493b;
      }

      .cls-38 {
        fill: #c2c1c0;
      }

      .cls-29, .cls-30 {
        stroke-width: .58px;
      }

      .cls-31 {
        stroke-width: .47px;
      }

      .cls-32 {
        stroke-width: .57px;
      }

      .cls-34 {
        stroke-width: .33px;
      }

      .cls-35 {
        stroke-width: .5px;
      }
    </style>
  </defs>
  <g id="Layer_1-2" data-name="Layer 1">
    <g>
      <path class="cls-39" d="m48.51,117.74s-2.71-1.6-2.71-1.6c-2.55-1.44-5.51-2.41-8.1-2.64l-2.34-.21-.38,2.32c-.15.93-.22,1.8-.22,2.64,0,2.52.62,4.74,1.53,7.13.34.89.54,1.56.66,2.05-.14-.11-.3-.22-.42-.31-1.15-.87-2.34-1.78-3.77-2.01-.29-.05-7.26-1.14-11.08.08-2.19.71-4.29,2.31-6.13,3.73l-1.29.97c-2.53,1.84-5.5,4.43-6.09,8.25l-.47,3.08,2.63-.2,2.93-.18,1.15-.15c1.73-.04,3,.31,4.87,1.33l5.27,3.46,1.72,1.23c3.21,2.25,5.57,4.19,7.22,5.95,0,0,.45.47.45.47.57.6.88,1.01,1.29,1.49-.77-.13-1.59-.28-1.59-.28-3.82-.35-7.45.68-9.96,2.85-2.12,1.83-3.32,4.34-3.48,7.28l-.27,5.08,4.21-2.87c3.37-2.3,8.18-.26,12.41,1.83l3.25,2.22c1.4,1.09,2.84,2.22,4.64,3,2.15.94,4.92,1.08,8.45.42,3.48-.64,4.02-2.78,4.02-4.67,0-.47-.03-.92-.07-1.34-.19-2.59-.92-3.71-2.39-5.2,0,0-1.84-1.24-2.5-1.69,1.49-.3,2.99-.86,3.86-2.31.31-.51.58-1.24.58-2.17,0-.68-.15-1.48-.53-2.39-.58-1.38-1.81-2.29-2.89-3.1l-.95-.76s-.9-.8-1.84-1.63c1.07.29,2.15.52,3.22.19,4.59-1.42,4.29-8.6,4.07-13.85l-.05-2.75.15-1.2c.3-2.07.7-4.9-1.37-7.36-1.7-2.02-4.21-4.05-7.7-6.21h0Z"/>
      <path class="cls-39" d="m323.73,141.58c-.6-3.66-3.6-6.11-6.15-7.84l-1.28-.91c-1.84-1.32-3.93-2.82-6.11-3.47-3.78-1.14-10.72-.12-11.01-.08-1.4.21-2.59,1.05-3.73,1.86-.12.08-.27.19-.41.28.12-.42.27-.9.56-1.61.93-2.27,1.55-4.38,1.55-6.77,0-.81-.07-1.64-.22-2.53l-.39-2.27-2.3.19c-2.58.22-5.52,1.11-8.06,2.46h-.02s.02,0,.02,0l-2.7,1.49c-7.39,4.27-14.23,9.64-14.2,19.88l-.07,1.29c-.15,2.26-.35,5.08,1.28,6.83.22.23.44.41.67.6-1.48,5-.79,11.84,1.27,14.6.35.47.76.86,1.22,1.19-.99.58-1.71,1.1-2.18,1.74l-.25.33c-.54.72-1.13,1.52-1.13,2.57,0,.22.03.45.08.69.34,1.41,1.44,1.95,2.6,2.52,3.46,1.71,11.6,1.67,14.65.43,1.79-.73,3.23-1.78,4.63-2.8l3.26-2.08c4.27-1.97,9.11-3.88,12.53-1.7l4.15,2.64-.29-4.91c-.16-2.68-1.29-5.01-3.28-6.73-2.51-2.17-6.21-3.22-10.15-2.88,0,0-.65.11-1.32.22.33-.35.52-.6.94-1.01l.45-.44c1.64-1.64,4-3.46,7.21-5.56l1.72-1.14,5.28-3.24c1.88-.96,3.17-1.29,4.93-1.25,0,0,1.18.15,1.18.15l6.01.34-.96-3.08h0Z"/>
      <path class="cls-39" d="m53.11,202.31c.76-.63,1.37-1.34,1.63-2.23l-.36-2.74c-.78-1.28-2.21-1.72-3.56-1.89,1.08-.72,2.15-1.44,2.15-1.44-.07-.1-.16-.18-.23-.28,1.29-.28,2.44-.96,3.3-2.11,1.13-1.53,1.58-3.52,1.58-5.19,0-.47-.03-.91-.1-1.3-.37-2.27-1.88-3.31-2.88-4l-.7-.51-1.38-1.19-3.09-2.47c-3.68-2.43-7.15-4.06-12.14-4.11l-2.64-.1c-2.97-.14-6.34-.3-9.28.62-5.05,1.58-11.44,4.38-13.2,8.81l-1.28,3.23,3.47.21c4.16.26,9.09,1.01,11.34,4.03-.19.13-.4.27-.4.27l-.8.5s-4.84,3.51-4.84,3.51l-3.28,2.42c-5.48,4.05-10.65,8.9-12.87,15.53-1.14,3.4-1.02,6.79-1.19,10.34-.22,4.48-.56,8.96-.56,13.45,0,7.07-.39,13.74-.74,20.73-.13,2.75-.13,5.45-.09,8.2l-.02,1.88-.14,4.84-.11,3v2.45c.02.53.03,1.06.03,1.57,0,1.13-.05,2.19-.27,3.14-.32,1.39-.44,2.83-.44,4.29,0,2.42.35,4.9.73,7.29.69,4.32,2.67,7.94,6.04,11.06l.26.24c3.24,3,8.14,7.54,13.8,6.67l1.77-.27.33-1.76c.06-.3.08-.6.08-.9,0-1.92-1.09-3.72-1.98-5.21l-.84-1.52c-.2-.51-.16-1.11-.24-1.66.34.31.67.63.98.92l2.49,2.16c3.19,2.22,6.31,3.44,9.29,3.65,4.22.29,7.39.15,9.68-.43,3.37-.86,6.66-3.06,8.32-4.31,4.77-3.56,4.73-8.64,4.29-13.54-.33-3.64-2.58-5.76-4.38-7.46l-1.86-1.9-1.26-1.7-2.48-3.09s-2.25-1.63-2.25-1.63l-1.13-.74c-1.48-1.2-2.78-2.64-3.75-3.76,0,0-.98-1.09-.98-1.09-2.18-2.38-2.88-3.38-2.21-5.33.16-.48,1.92-1.02,2.68-1.25l.89-.28s.34-.12.34-.12c2.1-.71,4.71-1.59,6.64-3.26,2.2-1.91,3.58-5.48,3.28-8.48-.22-2.24-1.34-4.03-3.14-5.05-2.62-1.49-5.56-1.14-8.16-.82l-2.55.22-1.36.03c-2.93.08-5.63-1.06-7.7-3.2-3.46-3.56-4.66-6.22-4.66-11.25,0-2.82.63-4.66,1.92-5.6.96-.7,2.19-1.04,3.22-.88.78.12,1.38.5,1.86,1.16l.32.53,1.12,1.59.32.39c.06.23.36,1.19.36,1.19.97,2.75,3.05,4.29,6,4.44,3.41.17,6.29-1.55,7.53-4.51.86-2.06.78-4.29.7-6.26l-.03-1.93c.05-1.66.44-2.6,1.58-3.88,1.14-1.28,1.99-2.17,3.31-2.82.89-.44,1.98-.7,3.32-.8h.43c.72.05,2.06.13,3.3-.85.91-.72,1.52-1.84,1.62-2.99l-.89-2.85c-.99-1.14-2.53-1.41-3.81-1.59h0Z"/>
      <path class="cls-39" d="m324.85,78.52c-.33-.74-.65-1.47-.92-2.17-.95-2.5-1.83-4.91-4.12-6.4-.2-.13-.42-.26-.64-.4,1.51-.72,2.92-1.79,4.15-3.2,3.12-3.57,4.53-8.63,3.59-12.89-.75-3.38-3.15-5.68-5.27-7.72l-.95-.92s-1.98-1.72-1.98-1.72c-1.05-.87-3.24-2.66-3.4-3.46-.24-1.21.52-1.9,3.89-3.51,2.41-1.15,5.13-2.45,5.63-5.25.46-2.6-1.34-4.82-2.75-6.26-5.33-5.48-14.73-6.45-21.34-6.71l-2.54-.13c-4.44-.25-9.47-.54-13.36.81-5.59,1.94-10.64,5.35-15.52,8.65l-3.35,2.24c-2.31,1.51-8.5,4.02-11.62,3.23-.72-.18-.96-.48-1.09-.72-1.88-3.48.93-8.14,3.43-10.19l4.17-3,1.2-.82c1.04-.72,1.68-.74,2.95-.77l3.59-.47c1.89-.54,3.5-2.07,4.21-4.01.67-1.83.44-3.79-.63-5.38-2.2-3.28-7.36-3.15-10.76-3.06l-1,.02c-5.62.02-11.99,2.06-16.21,5.22-7.54,5.63-12.79,11.45-16.07,17.79-1.16,2.24-1.71,4.56-2.25,6.79l-.11.43c-.9,3.73-4.98,12.57-7.1,13.53-.1-.12-.25-.32-.42-.65-1.33-2.51-1.51-5.64-1.51-8.37l.13-6.6-.14-6.9-4.06,3.26-1.26.99-4.53,3.67c-2.82,2.97-5.29,6.55-6.95,10.06-.88,1.85-1.13,3.74-1.35,5.42l-.26,1.73c-.27,1.48-.76,2.29-1.52,3.52l-.98,1.68c-1.4,2.59-1.78,5.29-2.15,7.91-.36,2.53-.69,4.93-1.97,6.9-2.8,4.32-5.39,7.73-8.41,11.06-.75.83-1.31,1.75-1.74,2.72-.06-.23-.1-.45-.18-.69-.84-2.66-3.93-4.37-5.79-4.86-1.91-.51-3.8-.41-5.46-.31-2.52.14-4.01.16-5.29-.98-1.83-1.63-3.39-3.61-5.05-5.71-2.62-3.32-5.34-6.76-9.38-9.11-3.42-2-10.67-2.08-14.15-1.26-2.83.67-4.78,2.84-6.35,4.94,1.73-5.2,2.6-10.99,2.6-17.85,0-5.69-.61-9.67-3.8-14.41l-.78-1.26c-1.93-3.23-5.17-8.62-9.75-7.5-5.27,1.3-4.42,10.22-3.86,16.12l.15,1.81c.1,2.51-.41,3.55-.6,3.72-.06-.09-1.49-.79-3.05-3.74-1.15-2.15-1.92-4.44-2.73-6.86-.98-2.9-1.98-5.91-3.71-8.78-2.52-4.18-6.11-8.16-9.59-12.02l-.85-.95c-5.01-5.57-10.91-9.95-17.08-12.68-7.68-3.4-17.77-3.27-21.77,5.05-1.5,3.12-.25,5.85.67,7.84l.78,1.99c.39,1.65,1.01,1.76,5.02,2.48,2.61.47,8.74,1.55,9.83,2.04,1.97,1.33,2.74,3.14,1.98,5-.85,2.09-3.57,3.97-6.92,3.34-1.76-.33-4.13-1.75-6.41-3.12l-4.91-2.66s-3.21-1.39-3.21-1.39c-3.58-1.56-7.28-3.18-11.17-4.21-.24-.06-23.6-6.06-31.01,3.59l-.89,1.16.56,1.35c1.27,3.04,4.92,6.98,8.44,9.43-.5.43-1.17,1.01-1.17,1.01-4.43,3.64-9.46,7.76-9.46,15.54,0,.01-.03,2.91-.03,2.91l.03,5.68c0,.06.5,4.54,1.94,7.64l-1.15,1.91c-2.25,3.43-4.34,7.73-5.13,11.79-.55,2.85-1.82,5.75-1.88,8.61-.03,1.67.02,3.38.11,5.05l.09,1.65c.14,2.85.53,6.14,2.36,9.01,1.37,2.14,4.07,4.58,9.13,3.99,3.98-.46,7.04-5.43,7.32-8.52.27-3.02-1.1-5.55-2.88-7.68,1.72-.08,3.52-.38,5.29-.68,4.43-.75,7.63-1.16,8.48.52.6,1.18.53,2.95-.18,4.85-.88,2.32-2.57,4.37-4.1,4.99l-2.57,1.02,1.26,2.46c1.77,3.44,7.37,3.63,14.51,3.51h2.67c6.52.35,10.97-2.17,15.27-4.61l4.83-2.56c4.22-1.94,9.45-1.58,14.51-1.24l5.98.27,3.53.25c5.22.48,9.42.74,11.93-.62.93-.5,2.07-1.49,2.88-3.44,1.24.43,2.58.74,4.07.82,3.78.22,5.86-.84,7.29-2.44.12.87.44,1.63.96,2.25,1.32,1.6,3.31,1.77,5.42,1.95l.84.08c4.66.44,9.44.37,14.06.28l5.33-.06,18.51.22,5.88-.03c1.92-.1,3.21-.73,4.36-1.3l2.26-1.04.44-1.11c.23-.72.33-1.39.33-2,0-.04-.01-.07-.01-.11,3.84-.08,7.67-.17,11.48-.23.96,1.64,2.24,3.18,3.83,4.44,1.96,1.56,4.2,2.07,6.47,1.49,2.72-.7,4.97-2.9,6.64-5.3-.04.57-.21,1.12-.21,1.69,0,.34,0,.69.03,1.04,0,0,1.09,2.2,1.09,2.2,1.54,1.33,4.29,1.34,9.15.87l.85-.08h24.13l6.09-.21.69-.59,3.72-2.94-1.79,3.33,4.61-.37c5.94-.49,11.71-.87,17.16-.1,7.02.99,12.97,3.5,18.17,7.66l2.49,2.13,4.73,3.79c2.63,1.7,5.42,1.88,7.27.48.63-.48,1.8-1.68,1.8-3.93,0-.73-.12-1.57-.43-2.54-.52-1.65-1.91-3.28-3.51-5.18-1.05-1.24-3.46-4.08-3.46-5.12,0-.03,0-.07,0-.1,0,0,.13-.19.66-.44,2.33-1.12,4.87-.54,7.31-.29,1.27.13,3.1-.21,4.08.83,1.16,1.23.7,3.64,1.72,5.19,2.79,4.24,7.29,4.97,11.32,5.12,2.41.09,3.89-.57,5.45-2.43,1.34-1.6,2.67-3.38,3.25-5.62l.22-.83c.49-1.85,1.05-3.94,1.15-6.04v-6.37c0-2.62-1.31-5.31-2.46-7.83h0Z"/>
      <path class="cls-39" d="m326.09,277.44c-.15-1.25-.09-2.59-.18-3.8-.24-3.14-.57-6.28-.57-9.44,0-9.63-.42-19.22-.42-28.86,0-4.9-.41-9.78-.52-14.67-.09-4.1-.15-8.4-1.97-12.17-1.95-4.05-5.51-6.71-9.3-9.3-3.78-2.59-6.31-5.79-6.31-8.03,0-.44.02-1.77,2.41-3.32,0,0,1.12-.55,1.12-.55,2.86-1.35,5.82-2.74,5.9-5.31v-.13c0-3.88-5.17-4.38-7.96-4.65l-.61-.07c-8.43-1.24-16.69-1-24.56.73l-.53.12c-3.68.8-8.26,1.8-11.56,4.03-1.58,1.06-2.67,2.96-3.09,5.35-.13.73-.19,1.48-.19,2.22,0,2.29.6,4.5,1.69,6,1.2,1.65,2.81,2.72,4.54,3.58-1.54.11-2.6.57-3.15,1.7-.15.31-.3.74-.3,1.25,0,.74.37,1.65,1.37,2.62-.47.52-.82,1.11-.91,1.81-.02.15-.03.3-.03.45,0,2.31,2.35,4.16,4.25,5.66l.87.71c1.81,2.03,3.26,4.29,3.76,5.86l.72,2.67c.5,2.06,1.02,4.2,2.47,6.48,1.75,2.76,4.76,7.52,9.3,6.59l1.83-.38.17-1.86c.14-1.54-.35-2.77-.72-3.67l-.39-1.17c-.13-.85-.13-2.22.03-3.86.22-2.33,1.69-4.96,5.12-4.69,3.02.25,5.29,2.07,7.84,6.3.61,1.01.96,1.93,1.04,2.74,0,0-.04,1.04-.04,1.04-.09,1.03-.21,2.44.5,3.88.25.5.59.92,1,1.27-.46.28-.81.49-.81.49-2.68,1.64-5.46,3.34-8.28,4.64-1.34.62-2.85.98-4.45,1.37l-2.61.68c-.15.05-.26.08-.26.08-.04,0-5.62,2.34-5.62,2.34l-.62.29c-1.84.85-3.93,1.81-4.13,5.53,0,0-.01.27-.01.27-.1,1.72-.22,3.86.57,5.58,1.11,2.42,3.33,3.31,5.11,4.02l2.02.98c1,.75,1.65,1.73,2.04,3.07.7,2.42.31,3.81-3.79,5.58,0,0-1.23.51-1.23.51-1.53.62-3.11,1.26-4.58,2.35,0,0-.95.8-.95.8l-.77.64s-1.4.85-1.4.85c-1.53.89-3.27,1.89-4.48,3.68,0,0-1,1.53-1,1.53l-1.78,2.59c-1.33,1.72-2.78,3.6-3.33,6.03-.42,1.86-1.53,9.55.66,13.27,2.25,3.83,7.67,6.06,11.62,6.21l.96.04c3.5.16,7.85.36,11.12-2.18,1.7-1.33,2.97-3.06,4.09-4.58l.59-.8s.83-1.18.83-1.18c.64-.93,1.71-2.49,2.37-2.69,1.36-.41,3.34-.03,3.89.56.35.38.33,1.23.25,2.58l-.02.42s-.35,3.92-.35,3.92c-.25,2.41-.52,4.9-.36,7.61l.11,1.98,1.96.35c8.31,1.49,13.38-8.82,16.11-14.37l.4-.8c2.64-5.32,5.1-11.28,4.54-17.35-.11-1.14-.56-1.97-.84-3.04-.08-.31-.14-.64-.18-.97h0Z"/>
      <path class="cls-39" d="m163.28,406.43s112.11-49.95,112.11-175.38V92.86H51.17v138.2c0,125.43,112.11,175.38,112.11,175.38h0Z"/>
      <path class="cls-37" d="m71.18,103.4h-13.72v127.65c0,109.38,89.52,160.06,105.82,168.37,12.77-6.51,70.46-39.03,94.86-105.38L71.18,103.4h0Z"/>
      <path class="cls-36" d="m260.57,287c5.32-16.62,8.54-35.23,8.54-55.95v-127.65H80.51l180.05,183.6h0Z"/>
      <polygon class="cls-38" points="159.69 262.14 178 261.7 187.69 261.51 188.44 261.51 188.44 262.23 187.63 262.33 187.42 268.7 188.72 268.55 189.12 268.95 189.33 269.48 184.64 270.11 179.69 270.83 171.15 271.99 165.06 272.91 160.45 273.53 158.41 273.34 158.62 271.6 159.35 271.6 159.69 262.14 159.69 262.14"/>
      <polygon class="cls-38" points="108.24 236.25 111.59 236.8 115.7 237.58 123.25 238.93 126.57 239.56 134.51 241.05 140.48 242.14 149.86 243.85 153.76 244.58 154.04 244.86 154.68 245.25 155.7 246.15 156.61 247.16 157.05 248.1 157.56 249.07 157.93 250.06 158.34 251.94 158.45 253.8 158.38 255.71 158.07 256.7 152.24 256.54 144.21 256.39 136.21 256.19 128.78 256.02 121.19 255.86 121.19 254.63 121.09 252.13 120.75 250.14 120.41 248.66 119.9 247.23 118.99 245.4 118.1 243.9 116.48 241.9 114.11 239.8 112.99 238.76 110.27 237.16 108.24 236.25 108.24 236.25"/>
      <polygon class="cls-33" points="134.52 223.37 135.17 223.72 124.39 233.91 123.74 233.56 134.52 223.37 134.52 223.37"/>
      <path class="cls-36" d="m111.04,278.11c-.04-8.14,5.89-15.16,13.23-15.64,7.27-.47,13.08,5.69,13.07,13.7,0,7.97-5.8,14.89-13,15.48-7.25.61-13.24-5.44-13.3-13.54h0Z"/>
      <path class="cls-18" d="m111.04,278.11c-.04-8.14,5.89-15.16,13.23-15.64,7.27-.47,13.07,5.69,13.07,13.7s-5.8,14.89-13,15.48c-7.25.61-13.24-5.44-13.3-13.54h0Z"/>
      <path class="cls-39" d="m112.6,278c-.05-7.19,5.2-13.39,11.68-13.81,6.42-.43,11.58,5,11.57,12.09,0,7.06-5.14,13.18-11.51,13.7-6.42.52-11.7-4.82-11.74-11.98h0Z"/>
      <path class="cls-26" d="m124.56,289.96l-.11-25.78m-5.68,24.69l11.67-23.12m-17.81,11.21l23.2-.09m-22.16,6.41l21.11-12.3m-3.93,16.24l-12.78-20.64m16.28,16.12l-20.03-11.67"/>
      <path class="cls-14" d="m112.6,278c-.05-7.19,5.2-13.39,11.68-13.81,6.42-.43,11.57,5,11.57,12.09s-5.14,13.18-11.51,13.7c-6.42.52-11.7-4.82-11.74-11.98h0Z"/>
      <path class="cls-36" d="m122.77,277.03c0-1.11.8-2.05,1.79-2.12.98-.08,1.79.75,1.79,1.86s-.8,2.04-1.78,2.11c-.99.08-1.8-.75-1.8-1.85h0Z"/>
      <path class="cls-23" d="m122.77,277.03c0-1.11.8-2.05,1.79-2.12.98-.08,1.79.75,1.79,1.86s-.8,2.04-1.78,2.11c-.99.08-1.8-.75-1.8-1.85h0Z"/>
      <path class="cls-36" d="m116.32,269.64c0-.55.39-1.02.89-1.05.49-.04.89.38.89.93,0,.55-.39,1.01-.88,1.05-.49.04-.9-.38-.9-.92h0Z"/>
      <path class="cls-28" d="m116.32,269.64c0-.55.39-1.02.89-1.05.49-.04.89.38.89.93s-.39,1.01-.88,1.05c-.49.04-.9-.38-.9-.92h0Z"/>
      <path class="cls-36" d="m121.02,266.62c0-.54.4-1.01.88-1.05.49-.04.89.38.89.93,0,.54-.39,1.01-.88,1.05-.49.03-.89-.38-.89-.93h0Z"/>
      <path class="cls-28" d="m121.02,266.62c0-.54.4-1.01.88-1.05.49-.04.89.38.89.93s-.39,1.01-.88,1.05c-.49.03-.89-.38-.89-.93h0Z"/>
      <path class="cls-36" d="m113.66,274.55c0-.54.39-1.02.88-1.05.5-.03.9.38.9.92.01.54-.39,1.01-.88,1.05-.5.03-.9-.38-.9-.93h0Z"/>
      <path class="cls-28" d="m113.66,274.55c0-.54.39-1.02.88-1.05.5-.03.9.38.9.92s-.39,1.01-.88,1.05c-.5.03-.9-.38-.9-.93h0Z"/>
      <path class="cls-36" d="m113.69,280.31c0-.55.39-1.02.89-1.06.49-.04.89.38.89.92,0,.55-.39,1.01-.88,1.05-.5.04-.9-.37-.9-.91h0Z"/>
      <path class="cls-28" d="m113.69,280.31c0-.55.39-1.02.89-1.06.49-.04.89.38.89.92s-.39,1.01-.88,1.05c-.5.04-.9-.37-.9-.91h0Z"/>
      <path class="cls-36" d="m116.71,285.47c0-.54.4-1.01.88-1.05.49-.04.89.37.89.92,0,.53-.4,1-.89,1.04-.49.04-.88-.37-.89-.91h0Z"/>
      <path class="cls-28" d="m116.71,285.47c0-.54.4-1.01.88-1.05.49-.04.89.37.89.92s-.4,1-.89,1.04c-.49.04-.89-.37-.89-.91h0Z"/>
      <path class="cls-22" d="m121.6,288.2c0-.53.39-1,.87-1.04.49-.04.88.36.88.9s-.39,1.01-.87,1.04c-.49.04-.88-.36-.88-.91h0Z"/>
      <path class="cls-22" d="m130.42,268.59c0-.54.39-1.01.87-1.04.49-.03.88.38.88.92s-.39,1.01-.88,1.04c-.49.03-.87-.38-.87-.92h0Z"/>
      <path class="cls-36" d="m125.5,266.33c-.01-.55.39-1.01.87-1.04.49-.03.88.39.88.93s-.39,1.01-.88,1.04c-.49.03-.88-.38-.88-.93h0Z"/>
      <path class="cls-28" d="m125.5,266.33c0-.55.39-1.01.87-1.04.49-.03.88.39.88.93s-.39,1.01-.88,1.04c-.49.03-.88-.38-.88-.93h0Z"/>
      <path class="cls-22" d="m133.35,273.14c0-.53.39-1,.87-1.03.48-.03.87.37.87.91s-.39.99-.87,1.04c-.48.04-.87-.38-.87-.92h0Z"/>
      <path class="cls-22" d="m133.34,278.82c0-.54.39-1,.88-1.03.48-.05.87.37.87.9s-.39,1-.87,1.04c-.49.05-.88-.37-.88-.9h0Z"/>
      <path class="cls-36" d="m130.42,284.39c0-.53.39-1,.88-1.03.48-.04.87.36.87.89s-.39,1.01-.87,1.05c-.49.04-.88-.37-.88-.91h0Z"/>
      <path class="cls-28" d="m130.42,284.39c0-.53.39-1,.88-1.03.48-.04.87.36.87.89s-.39,1.01-.87,1.05c-.49.04-.88-.37-.88-.91h0Z"/>
      <path class="cls-22" d="m126.29,287.75c0-.54.4-1,.88-1.05.48-.04.88.37.88.9s-.39,1-.88,1.04c-.48.04-.88-.36-.88-.89h0Z"/>
      <path class="cls-19" d="m116.44,277.71c-.02-4.82,3.5-8.98,7.84-9.28,4.32-.29,7.8,3.36,7.8,8.13s-3.46,8.89-7.76,9.24c-4.32.34-7.86-3.27-7.89-8.09h0Z"/>
      <path class="cls-22" d="m119.32,272.33c0-.33.24-.62.55-.64.3-.02.55.23.55.57s-.24.62-.55.65c-.3.02-.55-.23-.55-.57h0Z"/>
      <path class="cls-22" d="m117.6,275.49c0-.33.25-.62.54-.64.31-.03.56.22.56.56s-.24.63-.55.65c-.29.02-.55-.24-.55-.57h0Z"/>
      <path class="cls-36" d="m117.61,279.36c0-.33.24-.62.55-.64.3-.02.55.23.55.57s-.25.62-.54.64c-.31.02-.55-.23-.56-.56h0Z"/>
      <path class="cls-28" d="m117.61,279.36c0-.33.24-.62.55-.64.3-.02.55.23.55.57s-.25.62-.54.64c-.31.02-.56-.23-.56-.56h0Z"/>
      <path class="cls-22" d="m119.5,282.55c0-.33.24-.62.54-.64.3-.02.55.23.55.56s-.24.62-.54.65c-.31.02-.54-.23-.54-.56h0Z"/>
      <path class="cls-22" d="m122.58,284.16c0-.33.24-.62.54-.64.3-.02.54.23.54.56s-.24.62-.54.64c-.31.03-.55-.22-.55-.55h0Z"/>
      <path class="cls-22" d="m122.15,270.3c0-.34.25-.63.54-.65.31-.01.55.24.55.57s-.24.62-.54.64c-.3.02-.55-.23-.55-.56h0Z"/>
      <path class="cls-22" d="m128.32,271.69c0-.33.24-.62.54-.64.3-.02.54.23.54.57s-.24.62-.54.64c-.3.02-.54-.23-.54-.56h0Z"/>
      <path class="cls-22" d="m130.04,274.59c0-.34.24-.62.54-.64.3-.02.54.23.54.57s-.24.61-.54.63c-.3.02-.54-.23-.54-.56h0Z"/>
      <path class="cls-22" d="m130.04,278.3c0-.33.24-.61.54-.64.3-.02.54.23.54.56s-.24.62-.53.64c-.3.02-.54-.23-.54-.56h0Z"/>
      <path class="cls-22" d="m128.47,281.63c0-.33.24-.61.53-.64.3-.02.54.23.54.56s-.23.62-.53.64c-.3.02-.54-.23-.54-.56h0Z"/>
      <path class="cls-22" d="m125.6,283.78c0-.33.24-.62.54-.64.3-.03.54.22.54.55s-.24.62-.54.64c-.3.02-.54-.23-.54-.56h0Z"/>
      <path class="cls-22" d="m125.5,270.06c0-.33.24-.61.54-.64.3-.02.54.23.54.57s-.24.61-.54.64c-.3.02-.54-.23-.54-.57h0Z"/>
      <path class="cls-36" d="m138.1,274.15c-.04-6.26,4.53-11.67,10.17-12.03,5.58-.36,10.07,4.37,10.06,10.54,0,6.13-4.46,11.45-10,11.92-5.6.46-10.19-4.18-10.23-10.42h0Z"/>
      <path class="cls-9" d="m138.1,274.15c-.04-6.26,4.53-11.67,10.17-12.03,5.58-.36,10.06,4.37,10.06,10.54s-4.46,11.45-10,11.92c-5.6.46-10.19-4.18-10.23-10.42h0Z"/>
      <path class="cls-39" d="m139.29,274.06c-.03-5.53,4.01-10.3,8.98-10.63,4.95-.32,8.91,3.85,8.9,9.31,0,5.43-3.95,10.14-8.84,10.54-4.94.4-9-3.71-9.04-9.22h0Z"/>
      <path class="cls-10" d="m148.5,283.26l-.09-19.84m-4.37,19l8.98-17.79m-13.7,8.63l17.85-.08m-17.04,4.92l16.24-9.46m-3.02,12.49l-9.84-15.87m12.52,12.39l-15.41-8.97"/>
      <path class="cls-34" d="m139.29,274.06c-.03-5.53,4.01-10.3,8.98-10.63,4.95-.32,8.9,3.85,8.9,9.31s-3.95,10.14-8.84,10.54c-4.94.4-9-3.71-9.04-9.22h0Z"/>
      <path class="cls-36" d="m147.13,273.32c-.01-.85.61-1.58,1.37-1.63.77-.05,1.38.58,1.38,1.43s-.61,1.58-1.36,1.63c-.77.05-1.39-.58-1.39-1.43h0Z"/>
      <path class="cls-30" d="m147.13,273.32c0-.85.61-1.58,1.37-1.63.77-.05,1.38.58,1.38,1.43s-.61,1.58-1.36,1.63c-.77.05-1.39-.58-1.39-1.43h0Z"/>
      <path class="cls-36" d="m142.16,267.62c0-.42.3-.78.68-.81.38-.02.69.3.69.72s-.3.79-.68.81c-.38.03-.69-.29-.69-.72h0Z"/>
      <path class="cls-13" d="m142.16,267.62c0-.42.3-.78.68-.81.38-.02.69.3.69.72s-.3.79-.68.81c-.38.03-.69-.29-.69-.72h0Z"/>
      <path class="cls-36" d="m145.77,265.3c0-.42.31-.79.68-.81.38-.02.69.3.69.72,0,.41-.29.77-.68.8-.38.03-.68-.29-.69-.71h0Z"/>
      <path class="cls-13" d="m145.77,265.3c0-.42.31-.79.68-.81.38-.02.69.3.69.72s-.29.77-.68.8c-.38.03-.69-.29-.69-.71h0Z"/>
      <path class="cls-25" d="m140.11,271.41c0-.42.31-.78.69-.81.38-.02.69.29.69.71s-.31.78-.68.81c-.38.03-.71-.29-.71-.71h0Z"/>
      <path class="cls-25" d="m140.14,275.84c0-.43.31-.79.69-.81.37-.03.69.29.69.71s-.31.78-.68.8c-.39.03-.7-.28-.7-.7h0Z"/>
      <path class="cls-36" d="m142.46,279.81c0-.42.31-.78.68-.81.38-.03.68.28.68.7,0,.41-.3.77-.67.81-.37.03-.69-.28-.69-.7h0Z"/>
      <path class="cls-13" d="m142.46,279.81c0-.42.31-.78.68-.81.38-.03.68.28.68.7s-.3.77-.67.81c-.37.03-.69-.28-.69-.7h0Z"/>
      <path class="cls-25" d="m146.22,281.91c0-.41.31-.77.67-.81.37-.03.68.29.68.69s-.29.78-.68.8c-.36.04-.67-.27-.67-.69h0Z"/>
      <path class="cls-25" d="m153,266.81c0-.41.31-.77.68-.79.37-.03.68.29.68.71s-.31.77-.68.8c-.37.03-.68-.29-.68-.71h0Z"/>
      <path class="cls-36" d="m149.22,265.09c0-.42.31-.78.68-.8.38-.03.67.29.69.71,0,.42-.31.78-.69.81-.37.02-.68-.29-.68-.71h0Z"/>
      <path class="cls-13" d="m149.22,265.09c0-.42.31-.78.68-.8.38-.03.69.29.69.71s-.31.78-.69.81c-.37.02-.68-.29-.68-.71h0Z"/>
      <path class="cls-25" d="m155.26,270.32c0-.41.3-.76.67-.8.38-.03.67.29.67.71s-.29.76-.67.8c-.37.03-.67-.29-.67-.71h0Z"/>
      <path class="cls-36" d="m155.26,274.69c0-.41.3-.77.67-.8.37-.03.66.29.66.7s-.29.78-.66.8c-.37.03-.67-.28-.67-.7h0Z"/>
      <path class="cls-13" d="m155.26,274.69c0-.41.3-.77.67-.8.37-.03.66.29.66.7s-.29.78-.66.8c-.37.03-.67-.28-.67-.7h0Z"/>
      <path class="cls-25" d="m153.01,278.98c0-.42.31-.77.67-.8.37-.03.68.28.68.7s-.29.77-.68.79c-.36.03-.67-.28-.67-.69h0Z"/>
      <path class="cls-36" d="m149.83,281.56c0-.41.3-.77.67-.81.37-.02.68.29.68.7s-.29.78-.68.8c-.37.04-.67-.28-.67-.69h0Z"/>
      <path class="cls-13" d="m149.83,281.56c0-.41.3-.77.67-.81.37-.02.68.29.68.7s-.29.78-.68.8c-.37.04-.67-.28-.67-.69h0Z"/>
      <path class="cls-4" d="m142.25,273.84c0-3.71,2.68-6.92,6.03-7.15,3.32-.22,6,2.58,6,6.26s-2.66,6.84-5.96,7.1c-3.33.27-6.05-2.51-6.07-6.21h0Z"/>
      <path class="cls-25" d="m144.47,269.69c0-.25.18-.48.42-.49.23-.02.41.18.41.44s-.18.48-.41.49c-.23.01-.42-.18-.42-.44h0Z"/>
      <path class="cls-25" d="m143.14,272.13c0-.25.19-.48.42-.49.24-.02.43.17.43.44s-.19.48-.43.49c-.23.02-.42-.18-.42-.44h0Z"/>
      <path class="cls-25" d="m143.16,275.11c0-.26.19-.48.41-.5.24-.02.43.17.43.44s-.19.47-.41.49c-.23.02-.42-.17-.42-.43h0Z"/>
      <path class="cls-25" d="m144.6,277.56c0-.26.19-.48.41-.5.24-.02.43.17.43.43s-.19.48-.41.5c-.24.02-.43-.18-.43-.43h0Z"/>
      <path class="cls-25" d="m146.97,278.8c0-.26.19-.48.43-.5.23-.02.41.18.41.43s-.18.48-.41.5c-.23.02-.43-.18-.43-.43h0Z"/>
      <path class="cls-25" d="m146.65,268.13c0-.26.18-.48.41-.5.23-.01.42.18.42.44s-.19.47-.41.49c-.24.02-.42-.17-.42-.43h0Z"/>
      <path class="cls-36" d="m151.39,269.21c0-.25.19-.48.41-.49.23-.02.41.17.41.43s-.18.48-.41.5c-.22,0-.41-.18-.41-.44h0Z"/>
      <path class="cls-13" d="m151.39,269.21c0-.25.19-.48.41-.49.23-.02.41.17.41.43s-.18.48-.41.5c-.22,0-.41-.18-.41-.44h0Z"/>
      <path class="cls-25" d="m152.7,271.44c0-.26.2-.48.43-.5.22,0,.41.18.41.44s-.19.48-.41.49c-.23.02-.41-.17-.43-.42h0Z"/>
      <path class="cls-25" d="m152.72,274.29c0-.26.18-.47.41-.49.22-.02.41.17.41.43s-.19.47-.41.49c-.23.02-.41-.17-.41-.43h0Z"/>
      <path class="cls-36" d="m151.5,276.86c0-.25.19-.47.42-.5.22-.01.42.17.42.43,0,.25-.18.47-.42.49-.23.02-.42-.18-.42-.43h0Z"/>
      <path class="cls-13" d="m151.5,276.86c0-.25.19-.47.42-.5.22-.01.42.17.42.43,0,.25-.18.47-.42.49-.23.02-.42-.18-.42-.43h0Z"/>
      <path class="cls-36" d="m149.3,278.5c0-.26.18-.47.42-.5.22-.02.42.17.42.43s-.2.47-.42.5c-.23.02-.41-.17-.42-.43h0Z"/>
      <path class="cls-13" d="m149.3,278.5c0-.26.18-.47.42-.5.22-.02.42.17.42.43s-.2.47-.42.5c-.23.02-.42-.17-.42-.43h0Z"/>
      <path class="cls-36" d="m149.22,267.96c0-.26.19-.48.42-.49.23-.02.42.18.42.44s-.18.47-.42.49c-.23.01-.42-.18-.42-.44h0Z"/>
      <path class="cls-13" d="m149.22,267.96c0-.26.19-.48.42-.49.23-.02.42.18.42.44s-.18.47-.42.49c-.23.01-.42-.18-.42-.44h0Z"/>
      <path class="cls-11" d="m112.27,238.25l42.39,7.04m-40.13-5.4l41.09,6.28m-39.22-4.49l40.03,5.56m-38.64-3.78l39.4,4.88m-38.31-3.23l38.95,4.65m-36.68,3.17l37.28,1.83m-37.77-5.02l37.67,2.99m-38.38-5.32l38.24,3.79m-22.87-10c3.27,1.73,5.51,5.68,5.51,10.26,0,1.73-.32,3.36-.9,4.82m-2.83-14.75c2.96,1.87,4.95,5.62,4.95,9.93,0,1.74-.32,3.38-.92,4.85m-15.76-16.96c3.18,1.92,6.24,7.38,6.24,11.83,0,1.73-.32,3.37-.91,4.84m-3.63-16.35c3,2.15,5.76,7.29,5.76,11.51,0,1.73-.33,3.37-.91,4.84"/>
      <path class="cls-13" d="m158.1,256.7c.29-1.04.35-1.82.35-3.01,0-4.38-2.21-8.17-5.18-9.15l-45.31-8.43c7.67,2.76,13.22,9.72,13.22,17.89,0,.48.03,1.38,0,1.85l36.93.84h0Z"/>
      <polygon class="cls-21" points="129.71 252.25 129.57 250.03 143.41 251.09 143.41 253.03 129.71 252.25 129.71 252.25"/>
      <polygon class="cls-39" points="130.49 250.63 130.76 250.65 130.77 251.65 131.41 251.7 131.41 251.92 130.5 251.86 130.49 250.63 130.49 250.63"/>
      <path class="cls-39" d="m132.43,251.69c.06-.07.1-.17.1-.31,0-.14-.03-.25-.1-.33-.06-.08-.15-.12-.25-.13-.11-.01-.2.02-.26.09-.06.07-.1.17-.1.31s.04.25.1.32c.07.08.16.12.26.13.11,0,.19-.03.25-.1h0Zm.17.2c-.1.09-.24.13-.43.11-.18,0-.32-.07-.42-.17-.14-.12-.2-.29-.2-.52,0-.23.06-.39.19-.49.1-.09.24-.12.43-.11.19.01.33.07.42.17.13.13.2.3.2.52,0,.22-.07.38-.19.49h0Z"/>
      <path class="cls-39" d="m133.12,250.94c.1-.1.23-.14.4-.12.22,0,.38.09.48.23.06.08.09.15.09.23l-.26-.02c-.02-.06-.05-.1-.07-.13-.05-.06-.13-.09-.22-.09-.11,0-.18.03-.24.1-.05.07-.09.17-.09.31s.03.24.09.31c.06.07.13.11.23.11.09.01.16,0,.22-.07.02-.03.05-.07.07-.14l.26.02c-.02.13-.08.23-.18.31-.09.07-.22.11-.37.1-.19,0-.34-.08-.45-.2-.1-.12-.16-.28-.16-.48,0-.22.06-.38.18-.48h0Z"/>
      <path class="cls-39" d="m135.13,251.86c.06-.07.09-.17.09-.31s-.03-.25-.09-.32c-.06-.08-.15-.13-.26-.13-.11,0-.2.02-.26.1-.06.07-.09.17-.09.31s.04.24.1.32c.06.07.15.12.25.13.11,0,.2-.03.26-.1h0Zm.17.2c-.1.08-.24.12-.43.12-.18-.02-.32-.08-.42-.18-.13-.12-.19-.29-.19-.52s.06-.39.19-.48c.1-.1.24-.13.42-.12.19,0,.33.06.42.17.13.12.2.29.2.51s-.07.38-.19.49h0Z"/>
      <path class="cls-39" d="m136.55,251.03l.39.03v1.22l-.25-.02v-1.03l-.24,1.01h-.27s-.24-1.06-.24-1.06v1.03l-.25-.02v-1.22l.39.03.23.97.23-.94h0Z"/>
      <path class="cls-39" d="m138.02,252.05c.06-.07.09-.17.09-.31s-.03-.24-.09-.32c-.06-.08-.15-.12-.26-.12-.1-.02-.19.02-.25.09-.07.06-.1.17-.1.31,0,.14.04.25.1.33.06.08.15.12.25.13.11,0,.19-.02.26-.1h0Zm.16.2c-.09.09-.24.13-.42.12-.18,0-.32-.08-.43-.17-.12-.13-.19-.29-.19-.51s.07-.38.19-.49c.1-.09.25-.12.43-.11.19,0,.33.06.42.17.13.12.2.3.2.51s-.07.38-.2.49h0Z"/>
      <polygon class="cls-39" points="139.52 251.22 139.52 251.44 139.13 251.42 139.13 252.42 138.86 252.4 138.86 251.39 138.48 251.36 138.48 251.15 139.52 251.22 139.52 251.22"/>
      <polygon class="cls-39" points="139.92 252.47 139.65 252.44 139.65 251.23 139.92 251.25 139.92 252.47 139.92 252.47"/>
      <path class="cls-39" d="m141,252.24c.06-.08.09-.18.09-.32s-.03-.24-.09-.32c-.07-.08-.15-.12-.26-.13-.11,0-.19.03-.26.1-.06.07-.09.17-.09.31s.03.25.09.33c.07.08.15.12.26.12.11.01.19-.02.26-.09h0Zm.16.19c-.1.09-.23.13-.42.12-.19-.01-.32-.07-.42-.17-.13-.13-.19-.29-.19-.51,0-.23.06-.39.19-.49.1-.09.24-.13.42-.11.18,0,.32.07.42.17.13.12.19.29.19.51s-.06.38-.19.48h0Z"/>
      <polygon class="cls-39" points="141.55 251.36 141.84 251.37 142.34 252.25 142.34 251.4 142.59 251.43 142.59 252.64 142.33 252.61 141.8 251.73 141.8 252.58 141.55 252.57 141.55 251.36 141.55 251.36"/>
      <path class="cls-3" d="m119.14,263.16c1.69-.97,3.77-1.44,6.09-1.44,4.54,0,7.94,2.22,9.9,5.26h4.33c1.7-3.04,4.68-5.31,8.98-5.52,2.08-.11,4.04.47,5.6,1.47l.71-.95.76-1.15.82-1.13.76-1.2.58-1.15-36.42-.93c-.1,2.84-.88,5.13-2.11,6.75h0Z"/>
      <polygon class="cls-3" points="135.6 267.68 136.69 269.67 138.4 267.68 135.6 267.68 135.6 267.68"/>
      <polygon class="cls-3" points="97.88 214.38 116.07 214.38 136.09 215.58 135.94 216.37 116.49 216.47 108.51 215.98 97.74 215.28 97.88 214.38 97.88 214.38"/>
      <path class="cls-33" d="m114.95,215.43c0-.36.56-.65,1.26-.65s1.25.29,1.25.65-.56.65-1.25.65-1.26-.29-1.26-.65h0Z"/>
      <polygon class="cls-3" points="121.66 218.57 138.18 218.77 153.44 219.57 153.58 220.36 137.76 220.77 121.66 219.27 121.66 218.57 121.66 218.57"/>
      <path class="cls-33" d="m136.86,219.79c0-.26.48-.47,1.08-.47s1.08.21,1.08.47-.49.47-1.08.47-1.08-.21-1.08-.47h0Z"/>
      <path class="cls-5" d="m111.16,231.83l.84-16.26,10.92,16.76,1.14-16.46,9.93,17.16,2.37-.1,1.55-12.26m-38.48,10.97l.14-5.99,9.52.5.27-3.21m-1.4,3.01v6.38"/>
      <polygon class="cls-3" points="115.51 216.27 115.38 227.44 116.22 227.44 117.33 216.37 115.51 216.27 115.51 216.27"/>
      <line class="cls-5" x1="128.11" y1="223.45" x2="141.83" y2="220.57"/>
      <polygon class="cls-33" points="147.02 266.38 147.07 266.02 147.32 265.88 147.72 265.88 148.12 266.13 153.7 272.6 153.79 272.92 153.39 273.38 152.64 273.59 151.93 273.49 151.58 273.09 147.42 267.05 147.02 266.38 147.02 266.38"/>
      <polygon class="cls-35" points="125.45 268.42 148.43 267.05 148.4 267.49 125.46 268.86 125.45 268.42 125.45 268.42"/>
      <polygon class="cls-35" points="123.71 268.24 125.62 268.13 125.63 269 123.72 269.11 123.71 268.24 123.71 268.24"/>
      <polygon class="cls-35" points="147.15 266.9 149.57 266.76 149.53 267.54 147.11 267.67 147.15 266.9 147.15 266.9"/>
      <path class="cls-11" d="m123.81,277.04c0-.48.36-.86.8-.86s.81.38.81.86-.36.86-.81.86-.8-.38-.8-.86h0Z"/>
      <path class="cls-32" d="m147.81,273.35c0-.41.3-.74.69-.74s.69.33.69.74-.31.74-.69.74-.69-.33-.69-.74h0Z"/>
      <path class="cls-36" d="m78.64,277.19c-.05-8.15,5.89-15.17,13.22-15.64,7.26-.46,13.08,5.68,13.08,13.7-.01,7.97-5.81,14.89-13,15.49-7.26.6-13.24-5.44-13.3-13.54h0Z"/>
      <path class="cls-18" d="m78.64,277.19c-.05-8.15,5.89-15.17,13.22-15.64,7.26-.46,13.08,5.68,13.08,13.7s-5.81,14.89-13,15.49c-7.26.6-13.24-5.44-13.3-13.54h0Z"/>
      <path class="cls-39" d="m80.19,277.07c-.05-7.2,5.2-13.4,11.67-13.82,6.42-.41,11.57,5.01,11.57,12.1,0,7.05-5.13,13.17-11.5,13.7-6.42.52-11.7-4.83-11.74-11.98h0Z"/>
      <path class="cls-14" d="m80.19,277.07c-.05-7.2,5.2-13.4,11.67-13.82,6.42-.41,11.57,5.01,11.57,12.1s-5.13,13.17-11.5,13.7c-6.42.52-11.7-4.83-11.74-11.98h0Z"/>
      <path class="cls-36" d="m90.36,276.09c0-1.09.8-2.05,1.79-2.12.99-.08,1.79.77,1.79,1.86,0,1.09-.8,2.05-1.79,2.12-.99.07-1.8-.76-1.8-1.86h0Z"/>
      <path class="cls-23" d="m90.36,276.09c0-1.09.8-2.05,1.79-2.12.99-.08,1.79.77,1.79,1.86s-.8,2.05-1.79,2.12c-.99.07-1.8-.76-1.8-1.86h0Z"/>
      <path class="cls-36" d="m83.92,268.71c0-.55.4-1.03.89-1.04.49-.04.89.37.89.92,0,.54-.39,1.01-.88,1.05-.49.03-.9-.38-.9-.93h0Z"/>
      <path class="cls-28" d="m83.92,268.71c0-.55.4-1.03.89-1.04.49-.04.89.37.89.92s-.39,1.01-.88,1.05c-.49.03-.9-.38-.9-.93h0Z"/>
      <path class="cls-36" d="m88.61,265.68c0-.55.4-1.02.89-1.05.48-.03.88.39.88.94,0,.53-.39,1-.88,1.04-.49.03-.9-.38-.9-.93h0Z"/>
      <path class="cls-28" d="m88.61,265.68c0-.55.4-1.02.89-1.05.48-.03.88.39.88.94s-.39,1-.88,1.04c-.49.03-.9-.38-.9-.93h0Z"/>
      <path class="cls-36" d="m81.25,273.63c0-.55.4-1.02.9-1.05.49-.03.89.38.9.92,0,.55-.4,1.03-.89,1.06-.49.04-.9-.38-.9-.92h0Z"/>
      <path class="cls-28" d="m81.25,273.63c0-.55.4-1.02.9-1.05.49-.03.9.38.9.92s-.4,1.03-.89,1.06c-.49.04-.9-.38-.9-.92h0Z"/>
      <path class="cls-36" d="m81.28,279.38c0-.55.4-1.01.9-1.06.49-.04.89.37.9.92,0,.54-.4,1.01-.89,1.05-.49.04-.89-.38-.9-.91h0Z"/>
      <path class="cls-28" d="m81.28,279.38c0-.55.4-1.01.9-1.06.49-.04.9.37.9.92s-.4,1.01-.89,1.05c-.49.04-.9-.38-.9-.91h0Z"/>
      <path class="cls-36" d="m84.31,284.55c0-.54.39-1.02.88-1.05.5-.03.89.36.9.9,0,.54-.4,1.01-.89,1.06-.49.03-.89-.38-.89-.91h0Z"/>
      <path class="cls-28" d="m84.31,284.55c0-.54.39-1.02.88-1.05.5-.03.9.36.9.9s-.4,1.01-.89,1.06c-.49.03-.89-.38-.89-.91h0Z"/>
      <path class="cls-36" d="m89.19,287.28c0-.54.39-1.01.87-1.05.49-.04.89.37.89.9,0,.54-.39,1-.88,1.05-.48.03-.88-.36-.88-.9h0Z"/>
      <path class="cls-28" d="m89.19,287.28c0-.54.39-1.01.87-1.05.49-.04.89.37.89.9s-.39,1-.88,1.05c-.48.03-.88-.36-.88-.9h0Z"/>
      <path class="cls-22" d="m98.01,267.65c0-.54.39-1,.87-1.03.49-.03.88.38.88.92s-.39,1-.88,1.04c-.49.04-.87-.38-.87-.92h0Z"/>
      <path class="cls-36" d="m93.09,265.41c0-.55.39-1.02.88-1.05.49-.03.88.39.88.93,0,.54-.4,1.01-.88,1.04-.48.03-.88-.39-.88-.92h0Z"/>
      <path class="cls-28" d="m93.09,265.41c0-.55.39-1.02.88-1.05.49-.03.88.39.88.93s-.4,1.01-.88,1.04c-.48.03-.88-.39-.88-.92h0Z"/>
      <path class="cls-22" d="m100.94,272.22c0-.54.39-1,.86-1.05.49-.03.88.38.88.92s-.39,1-.88,1.04c-.48.03-.86-.38-.86-.91h0Z"/>
      <path class="cls-22" d="m100.94,277.89c0-.54.39-1.01.86-1.04.49-.04.87.36.87.9s-.39,1-.87,1.04c-.48.04-.86-.37-.86-.9h0Z"/>
      <path class="cls-36" d="m98.02,283.46c0-.54.39-1,.88-1.04.49-.04.88.37.88.9s-.4,1-.88,1.04c-.48.04-.86-.36-.88-.89h0Z"/>
      <path class="cls-28" d="m98.02,283.46c0-.54.39-1,.88-1.04.49-.04.88.37.88.9s-.4,1-.88,1.04c-.48.04-.88-.36-.88-.89h0Z"/>
      <path class="cls-36" d="m93.89,286.81c0-.54.39-1,.87-1.04.49-.04.87.37.87.9,0,.54-.39,1-.86,1.04-.49.04-.88-.37-.88-.9h0Z"/>
      <path class="cls-28" d="m93.89,286.81c0-.54.39-1,.87-1.04.49-.04.87.37.87.9s-.39,1-.86,1.04c-.49.04-.88-.37-.88-.9h0Z"/>
      <path class="cls-36" d="m86.91,271.4c0-.34.24-.63.54-.64.31-.02.55.23.55.56s-.25.62-.54.65c-.31.02-.55-.24-.55-.57h0Z"/>
      <path class="cls-28" d="m86.91,271.4c0-.34.24-.63.54-.64.31-.02.55.23.55.56s-.25.62-.54.65c-.31.02-.55-.24-.55-.57h0Z"/>
      <path class="cls-22" d="m85.19,274.56c0-.33.24-.62.55-.64.3-.02.55.24.55.57s-.24.62-.55.64c-.3.02-.55-.23-.55-.57h0Z"/>
      <path class="cls-36" d="m85.2,278.44c0-.34.25-.62.55-.65.3-.02.55.23.55.56s-.24.62-.54.64c-.3.02-.54-.23-.56-.56h0Z"/>
      <path class="cls-28" d="m85.2,278.44c0-.34.25-.62.55-.65.3-.02.55.23.55.56s-.24.62-.54.64c-.3.02-.56-.23-.56-.56h0Z"/>
      <path class="cls-22" d="m87.09,281.62c0-.34.24-.62.54-.65.31-.03.55.23.55.57s-.24.62-.54.64c-.3.03-.54-.22-.54-.55h0Z"/>
      <path class="cls-22" d="m90.18,283.23c0-.34.24-.62.54-.64.31-.03.55.22.55.56s-.25.61-.54.64c-.3.02-.55-.23-.55-.56h0Z"/>
      <path class="cls-36" d="m89.75,269.36c0-.33.24-.62.55-.63.29-.02.54.23.54.56,0,.34-.25.63-.54.65-.3.02-.55-.23-.55-.57h0Z"/>
      <path class="cls-28" d="m89.75,269.36c0-.33.24-.62.55-.63.29-.02.54.23.54.56s-.25.63-.54.65c-.3.02-.55-.23-.55-.57h0Z"/>
      <path class="cls-22" d="m95.91,270.76c0-.33.24-.62.54-.63.3-.02.54.23.54.57s-.24.62-.54.63c-.3.02-.54-.23-.54-.57h0Z"/>
      <path class="cls-22" d="m97.63,273.66c0-.32.23-.61.53-.64.3-.02.54.23.54.57s-.24.61-.53.63c-.3.02-.54-.23-.54-.56h0Z"/>
      <path class="cls-22" d="m97.63,277.37c0-.32.24-.62.54-.64.3-.02.53.23.53.56s-.23.62-.53.64c-.3.02-.54-.23-.54-.56h0Z"/>
      <path class="cls-36" d="m96.06,280.71c0-.33.24-.62.54-.64.3-.02.54.23.54.56s-.24.62-.54.64c-.29.02-.54-.22-.54-.55h0Z"/>
      <path class="cls-28" d="m96.06,280.71c0-.33.24-.62.54-.64.3-.02.54.23.54.56s-.24.62-.54.64c-.29.02-.54-.22-.54-.55h0Z"/>
      <path class="cls-36" d="m93.19,282.84c0-.33.25-.62.54-.64.3-.02.54.23.54.56s-.23.61-.53.63c-.3.02-.54-.23-.55-.56h0Z"/>
      <path class="cls-28" d="m93.19,282.84c0-.33.25-.62.54-.64.3-.02.54.23.54.56s-.23.61-.53.63c-.3.02-.55-.23-.55-.56h0Z"/>
      <path class="cls-36" d="m93.09,269.13c0-.34.24-.62.54-.64.31-.02.55.24.55.57s-.24.62-.54.64c-.31.02-.55-.23-.55-.57h0Z"/>
      <path class="cls-28" d="m93.09,269.13c0-.34.24-.62.54-.64.31-.02.55.24.55.57s-.24.62-.54.64c-.31.02-.55-.23-.55-.57h0Z"/>
      <path class="cls-2" d="m96.86,235.5c.68-.06,1.31-.1,2.01-.1,11.16,0,20.21,8.32,20.21,18.56s-9.05,18.56-20.21,18.56-20.22-8.3-20.22-18.56l3.81-77.09,1.75,1.25,1.76-1.53,1.66,1.51,1.55-1.51,1.96,1.67,1.38-1.58,1.55,1.85,1.95-1.81,1.65,1.95,1.7-1.41-2.5,58.23h0Z"/>
      <path class="cls-8" d="m87.53,177.87l-.73,17.07m-5.37.78c1.97-.64,4.61-1.03,7.57-1.03,4.07,0,7.61.74,9.51,1.84m-17.88,16.4c1.97-.64,4.62-1.03,7.57-1.03,4.07,0,7.61.74,9.51,1.84m-17.88,14.43c1.97-.64,4.61-1.03,7.57-1.03,4.06,0,7.62.74,9.51,1.84m-11.84-17.11l-.71,15.47m12.4,8.29l-.54,13.76.26,3.26.54,1.92,1.68,1.77,1.61,1.15,1.88.57c1.71,1.53,2.7,3.5,2.7,5.66,0,4.42-4.36,8.09-10.01,8.69m-6.21-45.25l-1.41,25.3m.54-2.68l3.3.39h3.22l1.62-.39m-6.46,6.77l3.49.19,2.97-.19,2.22-.58m-19.57-3.31l10.09.19v1.53l.27,1.58.54,1.72.81,1.73,1.07,1.77,1.89,1.73,2.42,1.72,2.76,1.34,3.22.77,2.69.24m-8.95-38.48l-1.62,1.15-.81,1.01-.27.96v1.34l.54.77,1.07.38h1.08l1.35-.57m16.55,22.05h5.72"/>
      <polygon class="cls-3" points="91.36 272.54 91.23 274.62 92.59 274.81 91.46 275.07 90.93 275.7 90.83 276.52 91.23 277.38 91.91 277.66 94.87 277.75 106.26 277.75 106.26 279.3 109.5 279.3 109.65 277.26 109.78 275.92 109.91 274.66 110.06 273.7 110.46 272.63 110.87 271.76 111.13 270.98 109.91 271.66 108.88 271.96 107.41 272.22 105.63 272.48 104.02 272.64 102.18 272.79 100.2 272.9 97.77 272.9 95.05 272.74 91.36 272.54 91.36 272.54"/>
      <polygon class="cls-3" points="124.55 268.21 136.09 214.94 137.51 215.52 124.55 268.21 124.55 268.21"/>
      <polygon class="cls-3" points="152.96 272.06 153.76 219.09 154.87 219.21 152.96 272.06 152.96 272.06"/>
      <line class="cls-27" x1="121.97" y1="217.98" x2="122.72" y2="232.14"/>
      <polygon class="cls-33" points="142.16 237.52 142.25 225.36 126.2 219.5 125.36 239.31 126.2 239.5 126.85 220.3 141.7 225.56 141.61 237.26 142.16 237.52 142.16 237.52"/>
      <polygon class="cls-33" points="126.86 255.92 130.39 223.27 129.31 223.36 126.05 255.92 126.86 255.92 126.86 255.92"/>
      <line class="cls-5" x1="116.35" y1="223.05" x2="129.78" y2="219.77"/>
      <path class="cls-11" d="m109.31,222.94l21.06,13.86m-3.91.47l15.46-11.68"/>
      <polygon class="cls-33" points="141.64 231.19 137.3 229.26 137.16 229.74 138.7 230.47 138.52 233.22 139.07 233.22 139.41 230.81 141.55 231.75 141.64 231.19 141.64 231.19"/>
      <polygon class="cls-3" points="97.2 232.24 110.38 234.87 110.21 236.6 122.26 238.77 122.42 237.28 130.77 239.11 130.45 240.37 140.1 242.08 140.43 238.54 142.05 238.54 141.96 237.24 138.18 236.87 138.17 235.67 139.93 235.67 139.93 234.87 138.18 234.86 138.17 233.51 139.85 233.49 139.85 233.06 138.1 233.06 138.1 232.62 133.89 232.59 133.88 232.99 132.23 232.99 132.05 233.42 133.72 233.42 133.72 234.55 132.05 234.55 132.05 235.11 133.63 235.11 133.63 236.3 131.08 236.3 130.39 236.87 129.33 237.93 122.93 236.36 122.93 234.36 124.35 234.18 124.35 233.12 122.49 233.12 122.49 231.93 117.86 231.93 117.86 230.75 119.08 230.75 119.08 229.93 117.68 229.93 117.68 229.05 118.91 229.05 118.91 228.24 118.03 228.24 118.03 227.49 114.08 227.49 114.08 228.18 113.03 228.18 113.03 228.93 114.16 228.93 114.16 229.68 112.86 229.68 112.86 230.62 113.64 230.62 113.64 231.81 111.71 231.81 110.23 232.06 109 232.12 107.25 232.3 105.77 232.62 104.09 232.8 102.6 232.56 103.3 231.81 106.46 231.75 106.29 231.24 105.77 230.68 105.58 230 105.49 229.43 105.66 228.75 105.58 228.06 105.31 227.75 104.88 227.43 104.26 227.31 104.26 224.69 103.39 224.69 103.39 227.31 102.77 227.37 102.34 227.75 102.07 228.24 101.98 228.87 101.9 229.61 101.73 230.25 101.46 230.75 100.77 231.18 99.89 231.5 97.25 230.93 97.2 232.24 97.2 232.24"/>
      <polygon class="cls-3" points="155.76 263.64 157.5 260.95 163.57 260.95 163.57 255.59 178.51 255.59 188.04 255.79 188.04 261.29 178.6 261.77 160 262.19 159.6 271.86 158.73 271.75 158.73 270.23 158.64 269.54 158.45 269.06 158.34 268.51 158.06 267.96 157.87 267.54 157.59 266.94 156.63 265.56 156.15 264.87 155.47 264.19 155.76 263.64 155.76 263.64"/>
      <polyline class="cls-17" points="161.25 261.22 161.63 260.48 162.02 259.92 162.79 259.59 164.14 259.38"/>
      <polygon class="cls-12" points="178.31 256.08 178.89 256.08 178.89 261.43 178.12 261.43 178.6 260.95 178.8 260.27 178.8 257.59 178.7 256.83 178.31 256.08 178.31 256.08"/>
      <line class="cls-11" x1="162.2" y1="267.42" x2="186.36" y2="265.57"/>
      <polygon class="cls-21" points="161.22 263.15 162.76 263.15 162.76 272.27 161.22 272.27 161.22 263.15 161.22 263.15"/>
      <polygon class="cls-21" points="169.25 262.45 170.79 262.45 170.79 271.58 169.25 271.58 169.25 262.45 169.25 262.45"/>
      <polygon class="cls-21" points="175.99 262.16 177.44 262.16 177.44 270.65 175.99 270.65 175.99 262.16 175.99 262.16"/>
      <polygon class="cls-21" points="180.93 262.04 182.39 262.04 182.39 270.13 180.93 270.13 180.93 262.04 180.93 262.04"/>
      <polygon class="cls-21" points="186.04 262.1 187.49 262.1 187.49 269.27 186.04 269.27 186.04 262.1 186.04 262.1"/>
      <polygon class="cls-21" points="158.64 271.99 160.42 272.11 189.12 268.52 189.2 269.5 160.25 273.54 158.64 273.43 158.64 271.99 158.64 271.99"/>
      <path class="cls-1" d="m169.79,273.44c0-2.22,1.94-4.13,4.31-4.26,2.36-.13,4.25,1.54,4.25,3.73s-1.9,4.1-4.25,4.26c-2.38.16-4.3-1.51-4.3-3.73h0Z"/>
      <path class="cls-39" d="m173.12,273.24c0-.51.43-.96.98-.98.54-.03.99.35.99.86,0,.5-.45.94-.99.98-.55.04-.98-.34-.98-.85h0Z"/>
      <path class="cls-31" d="m173.12,273.24c0-.51.43-.96.98-.98.54-.03.99.35.99.86s-.45.94-.99.98c-.55.04-.98-.34-.98-.85h0Z"/>
      <path class="cls-20" d="m169.85,273.44l8.58-.53m-4.27-3.69v7.9m-3.68-5.65l7.43,3.55m-5.87-5.12l4.28,6.67m1.25-5.53l-7.45,4.47m5.92-5.85l-4.31,7.21"/>
      <path class="cls-6" d="m182.5,271.02c0-1.84,1.6-3.42,3.57-3.54,1.96-.11,3.53,1.28,3.53,3.1s-1.57,3.4-3.53,3.53c-1.97.13-3.57-1.25-3.57-3.09h0Z"/>
      <path class="cls-39" d="m185.25,270.85c0-.42.37-.78.82-.81.45-.02.82.29.82.71s-.37.79-.82.82c-.45.03-.82-.29-.82-.71h0Z"/>
      <path class="cls-24" d="m185.25,270.85c0-.42.37-.78.82-.81.45-.02.82.29.82.71s-.37.79-.82.82c-.45.03-.82-.29-.82-.71h0Z"/>
      <path class="cls-29" d="m182.54,271.02l7.12-.44m-3.53-3.06l-.02,6.55m-3.04-4.68l6.16,2.94m-4.87-4.25l3.56,5.54m1.04-4.59l-6.18,3.71m4.92-4.85l-3.57,5.99"/>
      <polygon class="cls-21" points="160.25 262.33 188.47 261.53 188.47 262.28 160.17 263.31 160.25 262.33 160.25 262.33"/>
      <polygon class="cls-15" points="187.66 266.15 188.23 265.98 189.2 265.98 190.02 266.09 190.75 266.5 191.39 266.72 192.04 266.9 192.78 266.62 193.09 266.38 193.42 266.27 193.75 266.38 193.5 266.72 192.94 267.02 192.12 267.25 191.15 267.25 190.43 267.02 189.7 266.72 189.12 266.62 188.56 266.62 187.99 266.67 187.5 266.84 187.66 266.15 187.66 266.15"/>
      <polyline class="cls-16" points="190.83 268.12 190.99 267.54 191.32 266.96 192.2 266.67 192.94 266.79 193.42 267.07 193.75 267.42 193.83 268.05"/>
      <polygon class="cls-15" points="190.58 268.12 194.56 268.12 194.56 268.34 193.83 268.34 193.18 269.67 191.15 269.67 190.58 268.12 190.58 268.12"/>
      <polygon class="cls-7" points="162.18 272.41 164.06 272.16 164.26 272.55 163.5 272.68 163.82 273.26 165.12 273.09 165.73 273.59 162.52 274.06 162.03 273.54 163.34 273.32 162.95 272.8 162.26 272.86 162.18 272.41 162.18 272.41"/>
      <polygon class="cls-39" points="257.08 202.75 257.08 199.42 235.99 193.87 226.55 113.39 193.25 113.39 183.82 193.87 162.73 199.42 162.73 202.75 257.08 202.75 257.08 202.75"/>
      <path class="cls-36" d="m203.85,180.86h12.54v-9.21h-12.54v9.21h0Zm-3.27,6.88v-22.98h19.09v22.98h-19.09Z"/>
      <path class="cls-39" d="m204.3,180.42v-8.33h11.66v8.33h-11.66Zm15.82-16.1h-19.98v23.87h19.98v-23.87h0Zm-16.71,16.98h13.43v-10.1h-13.43v10.1h0Zm15.82-16.1v22.09h-18.21v-22.09h18.21Z"/>
      <path class="cls-37" d="m187.24,168.48c-.09.73-1.72,14.65-1.82,15.56h14.27c0-.82,0-14.74,0-15.56h-12.45Z"/>
      <path class="cls-39" d="m187.64,168.92h11.61v14.67h-13.33l1.72-14.67h0Zm12.5-.89h-13.29l-1.93,16.44h15.21v-16.44h0Z"/>
      <path class="cls-37" d="m220.56,168.48v15.56h13.83c-.11-.91-1.74-14.83-1.82-15.56h-12.01Z"/>
      <path class="cls-39" d="m221,168.92h11.17l1.72,14.67h-12.89v-14.67h0Zm11.96-.89h-12.85v16.44h14.78l-1.93-16.44h0Z"/>
      <path class="cls-39" d="m325.86,394.93c0-.11.37-10.83.37-29.01,0-9.42-7.38-16.8-16.8-16.8-.3,0-.62.02-.93.03.8-1.92,1.27-3.72,1.27-5.43s-1.67-40.48-146.49-40.48-146.49,38.83-146.49,40.48.47,3.51,1.27,5.43c-.31-.01-.63-.03-.93-.03-9.42,0-16.8,7.38-16.8,16.8,0,18.18.37,28.91.37,29.01l.22,6.47c-.22,2.22-.23,4.23-.23,5.68v.18c0,4.71,1.79,8.87,5.18,12.02,7.03,6.54,19.4,7.48,25.83,7.48h.2c1.92,0,3.28-.09,3.77-.12l8.22-.6-5.07-6.5c-.07-.09-5.36-6.98-11.78-19.99,3.7,1.8,7.64,4.19,11.7,6.65,11.3,6.86,24.12,14.63,38.7,14.63s23.64-10.14,23.64-19.95c0-6.85-5.62-11.72-10.98-14.82.09-.61.16-1.22.16-1.83,0-2.13-.62-4.04-1.62-5.75,17.82-4.1,42.44-7.61,74.64-7.61s56.82,3.5,74.64,7.61c-1,1.71-1.62,3.61-1.62,5.75,0,.61.07,1.22.16,1.83-5.36,3.1-10.98,7.97-10.98,14.82,0,9.8,8.85,19.95,23.65,19.95s27.39-7.77,38.69-14.63c4.06-2.46,8-4.84,11.7-6.65-6.41,13.01-11.71,19.9-11.78,19.98l-5.07,6.5,8.22.6c.48.04,1.84.12,3.76.12h.2c6.43,0,18.79-.95,25.83-7.48,3.39-3.15,5.18-7.31,5.18-12.02v-.18c0-1.46,0-3.46-.23-5.68l.23-6.47h0Z"/>
      <path class="cls-36" d="m163.28,366.47c79.92,0,113.77,21.09,113.77,21.09,12.39-20.72,28.31-36.08,28.31-43.84,0-6.11-16.1-36.08-142.08-36.08s-142.08,29.97-142.08,36.08c0,7.77,15.91,23.13,28.3,43.84,0,0,33.85-21.09,113.77-21.09h0Z"/>
      <path class="cls-36" d="m88.59,390.31c-3.01,5.21-10.19,9.33-22.24,9.33h-2.45c-7.32.03-10.99.04-13.9-2.86-2.09-2.09-3.84-5.86-4.41-7.17-5.12-8.53-10.82-16.09-15.85-22.77-3.83-5.09-7.02-9.32-9.27-13.02-1.17-.18-2.31-.3-3.34-.3-6.66,0-12.39,5.18-12.39,12.4,0,18.31.37,28.86.37,28.86,0,0,6.04-2.77,11.29-2.77,16.46,0,36.72,24.42,61.05,24.42,11.75,0,19.24-7.49,19.24-15.54,0-4.5-3.96-8.06-8.1-10.57h0Z"/>
      <path class="cls-36" d="m59.58,388.74c1.7,1.64,3.63,3.5,5.54,4.88.81.59,1.63,1.1,2.45,1.59,12.21-.32,18.29-5.34,18.29-10.98,0-1.72-.71-3.26-1.79-4.65-11.72,2.95-20.06,6.07-25.34,8.35l.84.8h0Z"/>
      <path class="cls-36" d="m16.39,396.41c-3.48,0-8,1.71-9.45,2.37l-1.26.57c-.59,3.06-.58,6.07-.58,7.91,0,17.2,30.25,14.98,30.25,14.98,0,0-6.71-8.59-14.34-25.1-1.62-.46-3.17-.75-4.62-.75h0Z"/>
      <path class="cls-36" d="m57.43,390.98l-1.31-1.25-.46-.4c-2.49,1.18-3.77,1.94-3.83,1.98l-.31.19c.5.83,1.05,1.62,1.6,2.17,1.45,1.45,3.96,1.58,9.04,1.58-1.67-1.34-3.28-2.87-4.72-4.26h0Z"/>
      <path class="cls-36" d="m237.98,390.31c3.01,5.21,10.19,9.33,22.24,9.33h2.45c7.32.03,10.99.04,13.9-2.86,2.09-2.09,3.84-5.86,4.41-7.17,5.12-8.53,10.81-16.09,15.84-22.77,3.83-5.09,7.02-9.32,9.27-13.02,1.17-.18,2.31-.3,3.34-.3,6.66,0,12.39,5.18,12.39,12.4,0,18.31-.37,28.86-.37,28.86,0,0-6.04-2.77-11.29-2.77-16.46,0-36.72,24.42-61.05,24.42-11.75,0-19.24-7.49-19.24-15.54,0-4.5,3.96-8.06,8.1-10.57h0Z"/>
      <path class="cls-36" d="m266.98,388.74c-1.7,1.64-3.63,3.5-5.54,4.88-.81.59-1.63,1.1-2.45,1.59-12.21-.32-18.29-5.34-18.29-10.98,0-1.72.71-3.26,1.78-4.65,11.72,2.95,20.07,6.07,25.34,8.35l-.84.8h0Z"/>
      <path class="cls-36" d="m310.17,396.41c3.48,0,8,1.71,9.45,2.37l1.26.57c.59,3.06.57,6.07.57,7.91,0,17.2-30.25,14.98-30.25,14.98,0,0,6.71-8.59,14.34-25.1,1.62-.46,3.16-.75,4.62-.75h0Z"/>
      <path class="cls-36" d="m269.14,390.98l1.31-1.25.46-.4c2.49,1.18,3.77,1.94,3.83,1.98l.31.19c-.5.83-1.04,1.62-1.6,2.17-1.45,1.45-3.96,1.58-9.04,1.58,1.67-1.34,3.28-2.87,4.72-4.26h0Z"/>
      <path class="cls-39" d="m73.94,329.33l.88.51c-.13,1.53-.41,2.76-.86,3.7-.42.92-1.12,1.71-2.1,2.33-.98.63-2.12,1.01-3.48,1.18-.71.07-1.59.13-2.63.17l2.8,23.4c2.13-.97,3.8-2.09,5-3.36,1.17-1.28,2.2-3.04,3.08-5.28l.86.33c-.4,2.14-.94,3.89-1.65,5.24-1.12,2.18-2.68,3.99-4.7,5.44-2.01,1.43-4.45,2.32-7.28,2.66-2.75.32-5.4.08-7.93-.75-1.47-.48-2.86-1.24-4.17-2.27-1.28-1.03-2.42-2.36-3.36-3.93-.93-1.57-1.52-3.42-1.77-5.54-.26-2.12-.09-4.21.48-6.25.58-2.03,1.54-4.05,2.9-6.01.86-1.24,2.12-2.62,3.78-4.18l-2.79.17c-1.04.06-2.15.43-3.33,1.09-1.19.68-2.08,1.47-2.68,2.42-.58.95-1.03,2.31-1.35,4.08l-.88-.4c.24-2.26.68-4.04,1.33-5.35.85-1.75,2.11-3.18,3.74-4.27,1.61-1.09,3.54-1.77,5.75-2.04,1.55-.19,4.3-.17,8.28.05,3.99.21,6.71.23,8.18.06.99-.13,1.71-.36,2.18-.74.49-.39,1.05-1.19,1.71-2.46h0Zm-17.66,7.33l-1.18.02c-1.75,2.02-3,3.97-3.7,5.84-.97,2.54-1.29,5.08-.99,7.61.52,4.31,2.63,7.63,6.34,9.97.95-1.07,1.51-1.91,1.67-2.52.16-.61.14-1.82-.08-3.64l-2.07-17.28h0Zm8.42.48c-1.42-.04-2.67-.11-3.76-.23l1.65,13.87c.19,1.6.25,2.66.18,3.11-.07.45-.3.98-.69,1.57-.71,1.07-2.16,2.77-4.38,5.15,1.31.48,2.35.79,3.14.9,1.36.22,2.65.27,3.88.11.64-.07,1.59-.27,2.85-.58l-2.86-23.9h0Z"/>
      <path class="cls-39" d="m85.52,326.07l.28.52c-.97.82-1.59,1.64-1.91,2.5-.3.84-.35,2.13-.19,3.89l.78,7.55,6.24-6.38c1.56.84,2.6,1.7,3.13,2.57.53.88.91,2.41,1.14,4.63l1.07,10.5c.22,2,.16,3.52-.13,4.46-.49,1.58-1.5,3.12-3.08,4.63-2.05,1.99-4.74,3.79-8.06,5.43l-.4-.83c2.69-1.51,4.53-2.82,5.52-3.93,1.01-1.12,1.61-2.27,1.84-3.43.15-.87.07-3.09-.3-6.65l-.98-9.74c-.12-1.08-.29-1.81-.54-2.21-.36-.56-1-1.05-1.87-1.52l-3.44,3.61,1.32,12.93,1.73,1.48-3.55,3.72-4.26-2.92,1.55-2.01-2.15-21.12c-.2-1.92-.49-3.21-.89-3.88-.39-.7-1.09-1.26-2.11-1.75l.19-.58c.79.15,1.45.35,1.95.6.5.23,1.16.66,2,1.3.82-.99,1.6-1.75,2.38-2.24.78-.49,1.7-.88,2.75-1.13h0Z"/>
      <path class="cls-39" d="m107.51,331.85l6.74,7.25-9.41,7.95.28,4.23,5.27,1.81,3.32-2.72.53.66-6.82,5.73c-1.52-.72-2.76-1.24-3.72-1.54-.97-.29-2.33-.57-4.11-.84l-.03-.58c.46-.34.77-.75.92-1.21.13-.46.16-1.47.05-2.99l-.89-13.31c1.36-.61,2.47-1.17,3.36-1.68.64-.37,2.14-1.28,4.5-2.78h0Zm-3.18,2.9l-.3.17.7,10.56,5.52-4.67-5.93-6.05h0Z"/>
      <path class="cls-39" d="m151.47,349.5c-3.32,2.85-6.62,4.37-9.89,4.59-2.45.16-4.86-.33-7.25-1.47-2.38-1.13-4.29-2.78-5.69-4.95-1.41-2.19-2.19-4.64-2.38-7.36-.09-1.59-.04-3.09.18-4.55.2-1.48.63-3.21,1.27-5.15,1.41-.86,3.06-2.02,4.93-3.49.99-.79,3.52-2.74,7.59-5.83.81-.61,1.73-1.34,2.75-2.23,2.59.09,4.62.36,6.1.75,2.23.61,4.21,1.5,5.93,2.75,1.74,1.24,3.13,2.72,4.18,4.49,1.04,1.77,1.64,3.73,1.78,5.87.14,1.96-.19,3.84-.95,5.65-1.09,2.59-2.81,5.16-5.16,7.69l6.13,4.04,1.37-1.32.64.68-4.38,4.49-7.13-4.64h0Zm-9.86-25.7c-1.01,0-2.01.03-2.98.06l.91,13.75c.11,1.45.09,2.47-.05,3.05-.15.58-.42,1.19-.84,1.79-.42.61-1.73,2.14-3.95,4.57,1.37,1.16,2.71,1.98,4.01,2.44,1.3.47,2.85.68,4.64.65l-1.74-26.31h0Zm1.36,6.15c1.12.9,2.17,1.51,3.14,1.9.99.34,2.05.5,3.17.42,1.03-.08,1.96-.34,2.8-.82.87-.5,1.74-1.25,2.65-2.28-.9-1.1-1.74-1.89-2.51-2.4-1.39-.92-2.88-1.62-4.44-2.1-1.56-.45-3.3-.75-5.22-.87l.42,6.15h0Zm-8.67-2.74c-1.19,1.05-2.03,1.94-2.54,2.64-.66.93-1.19,2.06-1.6,3.35-.4,1.32-.55,2.74-.45,4.25.22,3.27,1.63,6.27,4.22,8.96.64-.72,1.03-1.41,1.19-2.07.16-.69.18-1.98.05-3.9l-.88-13.22h0Zm9.31,12.46c.98-1.16,1.9-1.99,2.77-2.48.89-.5,1.93-.77,3.12-.86,1.26-.09,2.4.07,3.43.46,1.05.4,2.16,1.13,3.39,2.22.3-1.56.4-2.9.32-4.04-.07-1.06-.2-1.94-.39-2.72-.16-.55-.45-1.26-.88-2.08-1.21,1.16-2.27,1.98-3.19,2.44-.92.46-1.95.72-3.11.8-1.04.06-2.01-.05-2.9-.36-.89-.3-1.93-.91-3.12-1.76l.55,8.38h0Zm.7,10.38c1.86-.21,3.34-.64,4.47-1.23,1.72-.91,3.17-2.1,4.38-3.58,1.2-1.48,2.16-3.22,2.86-5.25-2.16-1.88-4.3-2.74-6.43-2.61-1.24.08-2.39.5-3.47,1.28-.79.56-1.59,1.44-2.4,2.68l.58,8.72h0Z"/>
      <path class="cls-39" d="m177.78,327.42l3.96,3.47-1.81,1.72-.05,12.25c0,1.41.19,2.43.55,3.03.22.44.5.64.76.63.22,0,.62-.26,1.21-.75l.58.75-4.7,3.77c-1.17-.87-1.94-1.64-2.32-2.33-.34-.7-.54-1.8-.56-3.31-2.3,1.56-4.62,3.42-7.02,5.61-1.44-1.16-2.37-2.21-2.8-3.1-.45-.91-.67-2.09-.65-3.54l.02-11.53c.02-.81-.05-1.33-.16-1.59-.2-.42-.5-.64-.84-.64-.27,0-.66.24-1.2.71l-.59-.65,4.94-4.52,4,3.48-1.65,1.56-.04,12.38c.01.92.11,1.59.32,2.04.23.42.75.96,1.62,1.62l4.06-3.15.05-12.71-1.56-1.73,3.88-3.45h0Z"/>
      <path class="cls-39" d="m200.18,328.46l.79.36c-.88,1.28-1.46,2.24-1.72,2.93-.23.68-.38,1.6-.46,2.78l-.54,9.91c-.1,1.65-.05,2.7.16,3.12.22.42.52.64.86.67.17-.01.37-.03.55-.13.13-.06.49-.31,1.1-.77l.44.82-5.18,4c-1.06-1-1.78-1.87-2.13-2.63-.34-.75-.51-1.8-.46-3.13l-7.05,5.22c-2.41-2.31-3.56-4.53-3.43-6.65.07-1.4.43-2.71,1.06-3.92.79-1.59,2.14-3.42,4.04-5.51l-2.32-6.11.33-.63c.59.09,1.01.17,1.29.17,1.75.09,3.32-.55,4.73-1.93,1.04.73,2.18,1.31,3.43,1.81,1.25.47,2.22.72,2.91.78.3,0,.54-.04.71-.14.18-.1.47-.44.88-1h0Zm-5.82,4.13l-7.42-2.87,2.35,6.16,4.74,2.66.34-5.95h0Zm-.39,6.93l-5.2-2.95c-.95,1.84-1.43,3.49-1.53,4.91-.13,2.5.85,4.66,2.92,6.39l3.5-2.65.31-5.71h0Z"/>
      <path class="cls-39" d="m213.31,319.55v.62c-1.16.74-1.92,1.55-2.31,2.42-.41.85-.63,2.25-.66,4.14l-.19,8.05,6.76-6.6,4.37,5.31-5.23,4.64c1.14.89,2,1.86,2.56,2.89.56,1.03.98,2.52,1.28,4.51.29,1.96.52,3.1.7,3.38.19.32.35.46.51.46.19,0,.67-.29,1.5-.92l.4.76-5.24,3.84c-.6-.67-1.03-1.36-1.31-2.1-.29-.74-.48-1.81-.62-3.21l-6.37,5.14c-.88-.92-1.73-1.65-2.57-2.18-.82-.53-1.84-1.01-3.08-1.46v-.43c.7-.49,1.15-.98,1.34-1.47.21-.53.33-1.85.38-3.94l.34-16.96c.04-1.33,0-2.25-.11-2.79-.14-.78-.38-1.38-.7-1.81-.29-.45-.79-.85-1.5-1.23l.36-.66c.87.36,1.53.69,1.97.99.45.3.99.77,1.65,1.43.97-.93,1.9-1.63,2.78-2.04.88-.44,1.87-.69,2.98-.8h0Zm.92,12.43l-4.1,3.99-.15,6.23,7.43-6.4-3.19-3.82h0Zm-4.26,11.42l-.09,4.05,2.57,1.96,3.32-2.73c-.35-2.64-1.38-4.5-3.13-5.65l-2.66,2.37h0Z"/>
      <path class="cls-39" d="m232.92,330.72l6.08,7.81-10.09,7.12-.07,4.23,5.08,2.26,3.53-2.44.48.72-7.3,5.11c-1.45-.84-2.63-1.46-3.58-1.84-.93-.38-2.25-.77-3.98-1.2v-.58c.5-.31.84-.68,1.02-1.13.21-.46.3-1.46.34-2.97l.26-13.33c1.41-.5,2.56-.96,3.5-1.39.67-.31,2.26-1.1,4.73-2.36h0Zm-3.44,2.62l-.3.14-.22,10.58,5.93-4.19-5.4-6.53h0Z"/>
      <path class="cls-39" d="m250.78,333.34l3.04,4.45-3.57,2.88-2.52-3.9-2.34,1.93-1,13.56,2.39,2.11,2.41-1.75.46.79-6,4.34c-1.15-1.21-2.07-2.1-2.87-2.68-.79-.55-1.64-.99-2.6-1.34l.04-.51c.68-.44,1.14-.89,1.37-1.35.25-.48.41-1.41.52-2.79l.69-9.49c.09-1.19.02-1.99-.21-2.4-.24-.42-.5-.64-.8-.66-.36-.04-.82.24-1.47.82l-.48-.72,4.98-3.86c1.17,1.09,1.97,2.02,2.37,2.81.27.49.37,1.14.3,1.96l5.3-4.19h0Z"/>
      <path class="cls-39" d="m267.14,345.93l4.26,4-2.41,9.54c-1.22-.2-2.39-.16-3.5.1-1.09.25-2.41.82-3.94,1.69-.89-.92-1.71-1.62-2.43-2.09-.71-.45-1.51-.78-2.37-.99-1.36-.36-2.67-.22-3.92.38-.47.2-.78.3-.95.26-.16-.05-.31-.17-.42-.38-.11-.21-.15-.38-.11-.54.03-.18.25-.39.64-.62.21-.13.6-.39,1.15-.82l2.59-2.05,3.76-3.16-4.03-3.88,2.13-8.43c1.61-.1,2.88-.34,3.87-.72,1-.38,2.01-1.01,3.05-1.85,1.63,1.28,2.95,2.22,4,2.84.76.42,1.48.72,2.21.92.8.21,1.47.18,2.01-.07.53-.27.85-.59.95-1.03.07-.26,0-.57-.23-.91-.41-.68-.58-1.26-.43-1.74.1-.48.33-.81.64-1.03.33-.22.62-.29.93-.22.39.09.72.38.92.85.24.46.27,1.01.11,1.65-.16.65-.45,1.24-.86,1.8-.42.54-1.11,1.23-2.11,2.02l-5.52,4.47h0Zm-6.69-.02l2.54,2.34,6.34-5.37c-1.03.05-1.89-.02-2.61-.19-1.74-.43-3.32-1.5-4.65-3.16l-1.62,6.39h0Zm3.16,2.99l-7.01,5.99c.69-.06,1.31-.08,1.88-.06.57.05,1.08.11,1.53.22,1.65.43,3.21,1.43,4.7,3.02l1.66-6.54-2.75-2.62h0Z"/>
      <path class="cls-36" d="m310.69,94.89c1.69-.17,3.5-1.27,5.01-2.01,1.36-.67,2.18-1.89,3.07-3.07,1.22-1.61,1.87-2.83,2.44-4.72.58-1.95-.2-3.96,0-5.93.15-1.5.33-2.68-.04-4.22-.34-1.4-1.79-2.27-2.92-3.01-2.86-1.86-5.94-3.05-9.37-2.04-2.76.8-4.81,3.12-3.51,6.04.6,1.36,5.02,5.76.87,6.06-2.12.15-3.09-2.43-3.47-5.25-.29.44-.65.84-1.03,1.14-7.49,5.95-16.76-9.24-18.79-14.44-.8-2.05-1.71-5.4-3.94-6.39-4.8-2.12-4.61,5.15-4.18,8.05.38,2.54,1.69,4.19,3.13,6.31,1.23,1.79,2.92,3.92,2.69,6.18-.69,6.91-8.16,3.94-12.42,5.77-6.32,2.71-13.04,4.09-17.53,9.5h24.68s0,7.34,0,7.34c3.36,1.37,6.49,3.2,9.42,5.55,2.27,1.82,4.79,4.33,7.01,5.76,3.19,2.06,6.17.98,4.87-3.12-1.16-3.68-11.41-10.81-4.96-13.88,4.06-1.93,8.73-.24,12.95.06,2.05.14,3.91.54,6,.33h0Z"/>
      <path class="cls-36" d="m316.16,135.82c-1.92-1.3-4.43-3.37-6.71-4.05-2.46-.74-7.4-.37-9.92,0-1.97.29-4.56,3.73-6.34,2.72-1.79-1.02-.47-4.3.07-5.62,1.13-2.78,1.69-4.99,1.18-7.92-2.39.2-5,1.07-7.09,2.17-.83.44-1.72.93-2.63,1.45-3.7,2.14-6.99,4.39-9.33,7.26v18.58c3.89.81,8.41-2.48,11.62-3.52,4.5-1.47,9.26-6.26,14.16-5.41-1.42,1.56-3.59,2.58-5.46,3.47-3.63,1.72-6.86,4.45-10.21,6.74-2.38,1.62-3.86,2.93-6.54,3.91-1.08.4-2.44.86-3.57,1.55v4.64c2.49.01,6.32-1.01,7.04,1.29.62,2-4.18,4.01-7.04,5.59v4.25c3.19.79,8.96.67,11.07-.19,2.87-1.17,4.97-3.53,7.79-4.83,4.41-2.03,10.34-4.47,14.94-1.54-.31-5.37-5.61-7.68-10.69-7.25-1.86.16-4.28.97-6.04.84-.44-2.13,2.69-4.94,4.12-6.36,2.14-2.14,5.01-4.18,7.61-5.88,2.43-1.59,4.62-3.19,7.23-4.51,2.02-1.03,3.74-1.57,6.12-1.53,1.24.02,2.46.48,3.7.33-.44-2.69-2.84-4.65-5.08-6.16h0Z"/>
      <path class="cls-36" d="m38.71,130.5c-1.78,1.08-4.38-2.59-6.34-2.91-2.52-.4-7.46-.79-9.92,0-2.28.73-4.79,2.95-6.71,4.34-2.24,1.63-4.64,3.72-5.08,6.6,1.24.17,2.46-.33,3.7-.35,2.38-.05,4.1.53,6.13,1.64,2.61,1.42,4.8,3.14,7.23,4.83,2.6,1.82,5.47,4.01,7.61,6.3,1.42,1.52,4.56,4.53,4.12,6.81-1.76.14-4.18-.72-6.04-.9-5.08-.47-10.38,2.01-10.7,7.76,4.6-3.14,10.53-.52,14.94,1.65,2.82,1.39,4.92,3.92,7.79,5.17,1.69.74,3.82.7,5.73.44v-8.22c-1.77-.99-3.67-1.53-3.3-4.37.77-.2,2.09-.22,3.3-.42v-5.78c-.37-.28-.71-.55-.96-.81-1.21-1.26-2.38-2.33-3.81-3.38-3.35-2.44-6.58-5.37-10.21-7.21-1.9-.96-3.64-1.93-5.57-2.82-1.36-.63-5.19-1.24-5.32-2.93,2.94-1.1,8.25,2.56,10.88,3.72,3,1.32,5.62,3.02,8.71,4.1,1.65.58,4.2,2.5,6.28,2.92v-24.05c-1.27-1-2.64-1.93-3.99-2.77-.9-.56-1.79-1.08-2.63-1.55-2.09-1.18-4.7-2.11-7.09-2.33-.51,3.13.05,5.51,1.18,8.48.54,1.42,1.86,4.93.07,6.02h0Z"/>
      <path class="cls-36" d="m198.15,92.86c.46-.76.86-1.52,1.15-2.22.95-2.25,1.05-4.28,2.21-6.51.95-1.82,2.72-3.31,3.4-5.14,1.71-4.58-.56-11.26-.56-16.1,0-1.89-.89-6.42,0-8.04,1.88-3.43,2.85,1.18,2.78,3.04-.11,2.87-1.45,12.63,1.3,14.24,3.42,2,8.89-5.36,11.39-7.37,3.2-2.57,4.96-4.11,5.97-8,.81-3.11,1.65-6.15,3.34-8.87,3.33-5.37,4.75-11.17,7.21-16.91.92-2.15,2.71-4.42,4.85-5.53,2.16,5.18-2.22,11.06-4.86,14.97-2.98,4.42-4.71,10.51-4.75,15.79,2.22-.09,3.28-1.64,5.18-2.19,3.96-1.16,8.48.77,12.04-1.91,3.15-2.37,5.16-4.65,9.39-5.6,3.15-.7,5.4-.72,8.28-2.55,5.21-3.33,10.65-8.36,16.39-10.48,1.45-.54,6.08-2.29,7.42-.95,3.65,3.68-7.4,4.32-8.43,4.89-1.65.92-4.02,3.87-4.18,5.73,5.79.31,11.57-.83,17.43-.25,2.62.26,3.82,1.12,5.82,2.5,1.46,1.01,4.18,1.24,5.3,2.15.99.81,1.76,2.37.56,3.36-1.45,1.2-4.63-.83-5.85-1.43-3.24-1.59-5.97-2.83-9.67-2.65-.21.01,3.55,3.51,3.79,3.73,1.34,1.2,3.69,3.14,3.66,5.11-.04,2.35-1.97,2.63-3.89,1.6-2.8-1.5-5.74-5.94-8.06-8.2-1.71-1.66-2.34-2.49-4.72-2.84-2.25-.33-4.93-.09-7.19,0-5.6.22-18.59,5.37-12.51,12.49,1.72,2.01,4.41,4.02,4.14,6.9-1.96-.34-3.63-2.98-5.35-4.13-1.91-1.29-4.6-2.81-6.83-3.61-4.38-1.57-10.92-.36-15.25.77-11.61,3.04-19.83,12.99-28.11,20.83-3.98,3.77-7.36,8.21-8.56,13.37h43.72c1.43-1.38,2.81-2.67,4.61-3.82,2.92-1.86,6.09-2.99,9.1-4.57,1.7-.9,5.73-2.26,6.61-3.82-4.6-6.25-12.94-6.91-18.95-11.12,1.13.76,1.19,5.23.69,6.68-.74,2.16-3.33,4.35-5.22,5.34-2.94,1.53-6.9,2.15-10.26,1.88-3.19-.25-4.97-2.49-5.84-5.54-4.35-15.23,18.82-13.82,27.39-10.56,4.35,1.66,7.92,4.1,11.36,6.96,2.14,1.77,5.55,4.59,8.72,4.44,7.46-.35-.18-8.55-.57-12.23-.27-2.56-.16-5.29-.28-7.75-.16-3.31.69-4.78,4.41-4.19,3.58.57,5.07,2.69,6.42,5.56.86,1.84,1.91,3.8,3.03,5.61,1.73,2.8,3.53,5.79,5.77,8.06,1.39,1.4,4.79,3.32,6.85,2.83,1.37-.33,2.26-1.13,2.65-2.36-.04-1.69.07-3.21.23-3.97,1.39-6.87,6.42-2.56,10.99-2.18,6.97.58,12.05-7.78,10.66-14.09-.68-3.09-3.41-5.28-5.54-7.4-1.68-1.67-5.61-4.15-6.07-6.48-1.48-7.53,15.3-5.67,7.44-13.75-4.64-4.77-13.34-5.71-19.64-5.96-4.53-.18-10.81-.9-14.98.54-6.55,2.27-12.57,6.86-18.31,10.62-3.19,2.09-13.71,6.4-16.31,1.6-2.52-4.66.59-10.49,4.04-13.33,1.56-1.28,3.73-2.7,5.55-3.95,2.72-1.87,4.37-.77,7.28-1.59,2.02-.57,3.68-3.32,2.17-5.56-1.65-2.45-7.31-1.94-9.66-1.93-5.02.01-10.86,1.84-14.71,4.72-6.11,4.56-11.81,10.1-15.33,16.93-1.09,2.1-1.58,4.31-2.15,6.66-.83,3.41-7.84,21.66-12.19,13.47-2.77-5.21-1.46-12.09-1.71-17.89,0,.03-5.09,3.95-5.62,4.5-2.56,2.71-4.91,6.04-6.5,9.41-.98,2.06-1.01,4.31-1.4,6.51-.48,2.66-1.59,3.79-2.76,5.94-2.51,4.64-1.23,10.37-4.22,14.97-2.7,4.16-5.4,7.78-8.65,11.38-2.57,2.84-2.27,6.41-.64,9.43h13.64Z"/>
      <path class="cls-36" d="m309.98,232.17c.85,1.71,3.72.67,5-.28,3.43-2.55,6.05-5.22,6.73-9.57.63-4.04.25-8.97-1.55-12.72-1.73-3.59-5.15-6.06-8.46-8.32-5.27-3.6-11.46-10.59-3.85-15.54.97-.63,5.83-2.44,5.87-3.82.06-1.92-5.3-2.11-6.42-2.27-7.83-1.15-15.91-1-23.65.7-2.53.55-5.59,1.2-8.26,2.26v14.58c2.52,1.16,5.47,1.58,8,1.84,2.36.24,4.44,1.27,6.8,1.5,2.28.22,4.22.35,6.4,1.05,1.59.51,3.59.85,5.1,1.55,3.46,1.61-1.76,2.15-3.06,2.17-3.79.07-7.7-.95-11.39-1.68-2.32-.46-4.51-.91-6.85-1.24-.35-.05-2.98-.61-4.99-.76v2.28c1.04.36,2.23.64,3.02,1.02,1,.49,2.02.94,3,1.41,1.19.58,2.31,1.19,3.27,1.96,1.12.91,3.05,1.93,2.9,3.67-2.39.53-5.4-2.6-7.23-3.86-.88-.6-3.31-1.87-4.96-2.11v3.56c1.04.9,2.19,1.71,2.55,2.11,1.61,1.81,3.56,4.46,4.31,6.81,1,3.15,1.12,5.74,2.91,8.55,1.29,2.03,3.74,6.08,6.67,5.48.15-1.58-.84-2.69-1.09-4.22-.21-1.34-.12-3.14,0-4.49.4-4.28,3.44-7.32,7.83-6.96,4.7.38,7.52,3.73,9.79,7.51.69,1.14,1.25,2.44,1.39,3.77.14,1.34-.42,2.78.21,4.06h0Z"/>
      <path class="cls-36" d="m43.96,212.53c1.27-1.42,2.36-2.56,4.07-3.4,1-.49,2.06-.77,3.14-.93v-3.64c-2.37-.29-4.59.56-6.47,1.98-1.44,1.08-1.75,3.11-3.24,4.19-.97.7-1.21.01-1.11-1.06.12-1.32,1.01-2.38,1.94-3.31,1.74-1.74,3.68-2.83,5.76-4,.52-.29,2.03-.94,3.12-1.71v-2.59c-.92-.23-2.14-.21-2.69-.21-1.68,0-3.38-.05-5.05.09-2.02.17-3.81.36-5.69,1.13-1.74.71-3.22,1.73-4.79,2.73-2.06,1.31-4.58,2.17-6.51,3.63-1.18.89-2.47,1.96-3.58,2.96-1.45,1.3-2.74,2.49-4.45,3.42-.73.4-.97.77-1.26-.33-.17-.65.02-1.28.35-1.81.52-.84,1.44-1.35,2.14-2.02.75-.73,1.41-1.4,2.3-2.01,1.25-.84,2.25-1.96,3.45-2.82,3.45-2.49,7.37-3.73,11.17-5.45,1.11-.5,2.36-.75,3.51-1.09,1.09-.32,2.11-.7,3.24-.74,1.29-.05,2.58-.02,3.86-.1.44-.03,3.51-.32,3.71-.02-2.52-3.78-7.67-4.95-10.89-7.81-.95-.85-3.36-3.71-.19-2.72,2.63.82,4.96,3.34,7.4,4.71,1.28.72,2.51,1.66,3.98,1.79v-9.82c-1-.88-1.99-1.77-3.1-2.5-3.54-2.34-6.5-3.65-10.78-3.69-3.51-.04-7.79-.64-11.14.41-3.44,1.07-10.14,3.64-11.61,7.33,4.6.28,10.89,1.08,13.66,5.55,1.3,2.1-.79,2.85-2.28,3.85-2.76,1.85-5.36,3.96-8.07,5.89-6.98,4.96-12.94,11.54-12.94,20.48,0,.37.02.74.04,1.11.92,2.49,2.97,4.83,4.77,6.69,2.28,2.36,4.63,4.66,6.67,7.24,1.43,1.81,3.18,3.23,5.13,4.44-.5-.6-.96-1.22-1.37-1.88-1.69-2.72-1.73-5.37-1.73-8.5,0-2.82.56-5.88,2.94-7.63,2.58-1.9,6.48-2.12,8.61.83.58.8.54,1.11,1.25,1.89.96,1.05.76,1.16,1.21,2.43.64,1.82,1.87,2.67,3.76,2.77,2.19.11,4.2-.89,5.07-2.96.91-2.17.4-4.97.47-7.3.07-2.27.7-3.78,2.22-5.48h0Z"/>
      <path class="cls-36" d="m239.39,68.11c-2.54.02-4.45.65-6.45,2.3-1.45,1.19-2.43,2.58-2.5,4.49-.09,2.69,2.23,4.59,4.9,4.55,1.28-.02,2.43-.28,3.72-.28,1.41,0,2.77-.14,3.87-1.01,1.7-1.36,1.94-3.18,1.94-5.28,0-.98-.08-1.87-.48-2.77-.84-1.89-3.21-2-5-1.99h0Z"/>
      <path class="cls-36" d="m12.66,65.32c.17.03.36.04.56.05,3.26.05,2.7-1.8,4.23-3.79.9-1.17,2.8-1.53,4.27-1.84,1.63-.35,3.93-.62,5.64-.37,3.36.5,1.73,6.22,1.69,8.34-.1,6.04,5.98,2.38,8.02-.58,1.88-2.73,4.38-4.54,6.87-6.66,2.44-2.08,4.65-4.45,7.44-6.1,1.53-.91,7.89-2.97,9.25-1.11,1.73,2.38-4.77,8.32-6.11,10-1.23,1.53-2.49,2.93-3.55,4.62-1.05,1.66-1.86,4.15-1.26,6.34.93,3.41,4.57,1.44,6.09-.24,2.24-2.46,4.3-4.44,7.28-6.07,5.49-3,11.95-4.98,18.18-5.6,8.44-.83,18.92,1.21,18.33,11.8-6.21,3.79-11.82-2.76-16.77-5.67-5.15-3.03-10.21-2.22-15.56.26-3.67,1.7-6.89,3.83-8.02,7.9,0,.02-.15.67-.38,1.59,10.9,1.97,21.64,4.68,31.63,9.57,2.89,1.42,5.22,3.44,7.72,5.08h13.56c.53-.86,1.04-1.87,1.68-3.07,1.5-2.79,2.87-3.37,3.23-6.73.35-3.3-.78-5.48-1.93-8.43-2.42-6.22-6.09-11.05-11.1-15.25-4.76-3.99-9.45-4.52-15.49-4.82-4.37-.21-8.2-.05-12.17,1.49-2.44.95-4.83,2.08-7.37,2.53,1.1-7.96,14.06-4.44,19.88-5.93.27-.6.4-1.09.38-1.73-6.43-4.46-14.57-4.58-22.22-5.26-4.37-.39-9.35-1.84-13.61-.71-2.98.79-5.33,4.15-8.41,3.54,1.37-1.47,5.15-4.31,4.96-6.37-3.6-.45-7.56-.05-10.96.96-2.85.84-4.82,3.68-7.75,4.03,2.08-8.12,10.04-5.4,15.42-8.27-5.34-6.05-13.02-10.27-20.55-12.41,5.86-.15,10.12,2.73,15.08,5.18,5.58,2.76,11.04,3.64,17.04,5.54,5.76,1.82,9.98,3.82,16.01,4.83,4.7.79,9.69,3.89,14.57,2.84,1.46-6.04-6.34-10.29-5.38-16.47,5.82-.3,6.33,12.12,7.72,15.84.77,2.07,2.39,5.91,5.27,4.74,2.63-1.06.76-7.99,3.98-6.98,1.68.52,1.99,7.72,2.5,9.36.97,3.12,2.07,4.96,4.62,7.23,4.72,4.19,6.58,8.86,9.22,14.51,1.55,3.32,3.03,9.73,6.21,3.7l-2.22,2.22c7.36-9.07,9.62-18.69,9.62-30.34,0-5.19-.49-8.74-3.37-13.02-1.41-2.1-4.5-8.54-7.83-7.72-3.77.93-1.9,12.7-1.79,15.39.33,8.18-4.76,8.09-8.39,1.27-2.68-5.03-3.41-10.6-6.38-15.52-2.59-4.3-6.44-8.46-10.15-12.58-4.47-4.96-10.1-9.35-16.23-12.06-5.92-2.62-14.98-3.43-18.48,3.84-1.43,2.98,1.01,5.53,1.63,8.16.03.15,12.32,2.04,13.62,2.9,7.83,5.23,1.45,14.52-6.63,13.01-3.65-.69-8.27-4.44-11.83-5.94-4.66-1.96-9.22-4.21-14.05-5.48-6.95-1.83-23.33-3.89-28.37,2.69,1.42,3.41,6.91,8.66,10.47,9.96-5.37,5.21-12.49,8.41-12.47,17.04,0,2.79-.15,5.62,0,8.41.13,2.46.1,5.89,2.93,6.33h0Z"/>
      <path class="cls-36" d="m122.22,80.83c-2,2.87-4.55,5.4-5.92,8.69-.44,1.05-.68,2.19-.85,3.34h52.24c-1.09-1.12-2.89-1.84-4.2-2.78-2.18-1.54-4.04-3.44-5.99-5.13-2.03-1.77-3.81-3.78-5.25-5.82-1.44-2.05-3.47-3.7-4.8-5.84,2.07-1.99,3.59,1.71,4.69,2.78,1.74,1.69,3.9,3.11,5.62,4.9,2.89,3.03,6.08,6.01,9.78,8.03,4.35,2.37,14.07,3.78,11.45-4.47-.48-1.52-2.59-2.81-4.05-3.2-3.95-1.06-8.34,1.23-11.79-1.85-4.96-4.43-7.96-10.99-14.01-14.52-2.69-1.57-9.19-1.72-12.3-.98-3.18.75-5.15,4.52-7.04,6.9-2.61,3.31-5.2,6.55-7.58,9.94h0Z"/>
      <path class="cls-36" d="m316.12,283.75c-.18-2.24,1.6-3.88,2.79-5.51,1.21-1.65,2.62-3.25,3.48-5.12,1.07-2.31.48-4.41.36-6.88-.14-2.92-.36-3.64-3.32-2.02-1.46.8-3.27,1.94-4.31,3.27-1.73,2.22-2.96,4.72-4.9,6.72-1.33,1.36-2.37,2.36-4.45,2.54-2.21.19-3.46-.69-1.88-2.74,1.59-2.05,4.58-3.11,6.47-4.85,2.55-2.34,3.99-5.68,6.39-8.15,1.28-1.31,2.88-1.29,4.11-2.63,1.45-1.58,1.25-5.21,1.49-7.27.13-1.16.67-5.9-1.26-6.01-1.02-.06-2.4,1.26-3.18,1.71-2.31,1.32-4.55,2.65-7.34,2.53-.12-2.13,2.41-2.07,3.89-2.69,1.67-.71,3.41-1.8,4.74-3.02,1.03-.94,2.94-2.24,3.37-3.51.88-2.59,1.27-12-3.52-9.58-1.05.53-2.24,1.51-3,2.32-.47.51-.66,1.2-1.42,1.67-.63.39-1.57.36-2.2.73-3.85,2.26-7.65,4.82-11.74,6.71-2.36,1.09-4.97,1.46-7.4,2.17-.09.03-.18.05-.27.08-1.87.58-3.49,1.36-5.23,2.19-2.11,1.01-3.19,1.21-3.33,3.69-.08,1.45-.24,3.43.33,4.67,1.11,2.41,4.33,2.53,6.34,4.04,1.5,1.12,2.44,2.6,2.95,4.39,1.33,4.61-1.14,6.83-5.21,8.59-1.83.79-3.73,1.41-5.3,2.57-.61.45-1.16,1.06-1.83,1.51-1.79,1.2-3.97,2.04-5.19,3.85-1,1.48-1.7,2.74-2.87,4.25-1.2,1.55-2.44,3.14-2.87,5.04-.63,2.81-1.09,8.95.37,11.44,1.76,3,6.36,4.85,9.55,4.98,3.46.14,7.64.56,10.43-1.61,1.7-1.32,2.93-3.2,4.21-4.91,1.21-1.62,2.59-4.2,4.48-4.77,2.03-.62,5.11-.21,6.47,1.26,1.19,1.29.99,3.05.89,4.85-.2,3.82-.93,7.33-.71,11.26,6.81,1.22,11.44-9.06,13.8-13.81,2.23-4.5,4.38-9.56,4.32-14.67-.01-1.25-.04-2.64-.43-3.84-2.49-1.31-5.03,5.34-8.08,4.57h0Z"/>
      <path class="cls-36" d="m324.79,86.47c-.05-.93-1.21-6.1-2.23-5.94-.59.09.06.75.13,1.04.39,1.5.31,3.72-.12,5.2-.45,1.56-1.25,2.91-2.15,4.26-2.46,3.67-7.39,4.58-11.34,5.83-1.01.32-1.63.67-1.78,1.75-.14.99.19,1.73.71,2.52,2.16,3.28,5.69,3.85,9.31,3.99,1.65.06,2.35-.25,3.43-1.53,1.16-1.38,2.27-2.86,2.74-4.63.53-2.05,1.19-4.24,1.29-6.36.1-2.01.1-4.12,0-6.13h0Z"/>
      <path class="cls-36" d="m46.79,280.4c-1.16-1.42-2.33-3.38-3.55-4.59-.9-.89-2.22-1.41-3.2-2.21-1.5-1.22-2.82-2.63-4.07-4.07-2.27-2.61-5.08-4.8-3.67-8.89.68-1.98,3.41-2.51,5.15-3.1,2.06-.7,4.49-1.47,6.14-2.9,2.36-2.05,3.82-7.58.54-9.44-2.73-1.55-6.53-.28-9.46-.28-.3,0-.6.01-.91.02-.12,0-.24,0-.36,0-1.37.04-2.76.08-4.02-.27-.38-.1-.73-.25-1.06-.41-.03,0-.07-.01-.1-.02-2.93-.6-5.23-3.08-7.82-4.44-1.84-.96-2.41-2.46-3.92-3.76-1.06-.91-2.09-1.78-3.21-2.6-1.43-1.06-2.73-2.05-3.68-3.46-1.01-1.5-2.07-3.13-3.01-4.58-.46-.71-1.01-1.38-1.53-2.08h0c-.1,1.15-.39,2.18-.39,3.39v10.89c0,1.31-.29,2.49.45,3.63,1.18,1.82,3.46,2.9,5.33,3.87,1.71.89,3.61,1.53,5.42,2.11,1.49.48,3.91,1.03,4.24,2.85-2.74-.45-5.66-1.74-8.2-2.94-1.45-.69-2.81-1.45-4.01-2.37-.65-.49-1.72-.86-2.52-.94-1.42-.15-1.28.46-1.47,1.64-.25,1.51,1.09,2.41,2.22,3.27,1.43,1.09,3.16,1.83,4.48,3.11,1.41,1.37,2.54,3.22,3.67,4.82,1.39,1.97,3.06,3.74,4.42,5.68,1.2,1.72,2.11,3.81,3,5.68.77,1.61,2.94,4.76,2.3,6.52-1.14-.4-1.48-1.01-2.13-1.91-.36-.5-.61-.8-.84-1.34-.23-.55-.25-1.21-.47-1.75-.32-.77-.83-1.43-1.14-2.2-.29-.72-.86-1.31-1.26-1.97-.67-1.1-1.07-2.32-1.93-3.33-.99-1.16-2.22-2.17-3.13-3.42-1.34-1.83-2.63-3.74-4.08-5.46-.85-1-1.63-1.38-2.94-1.38-1.45,0-2.89.4-2.7,2,.23,1.84,1.7,2.55,2.83,3.83.71.81,1.03,1.79,1.45,2.76.4.92,1.07,1.58,1.53,2.44.47.88.65,1.7.84,2.66.36,1.84.17,3.85.46,5.73.33,2.14.44,4.3.48,6.45.03,1.84.32,3.78.17,5.59-.06.68.08,1.19-.66,1.37-.52.13-1.13-.25-1.35-.65-.37-.67-.11-2.12-.11-2.89,0-3.8-.29-7.57-.65-11.35-.14-1.5-.35-2.99-.55-4.44-.16-1.19-.89-2.14-1.31-3.23-.36-.95-.19-1.92-.72-2.79-.37-.6-1.26-1.11-1.94-.72-.77.43-.48,1.12-.41,1.81.18,2.02.05,4.11.05,6.13,0,2.64-.18,5.27-.25,7.91-.07,2.48.26,5.23-.3,7.66-.77,3.34-.22,7.24.32,10.62.61,3.82,2.32,6.89,5.27,9.61,3.06,2.83,7.38,6.97,11.96,6.27.37-1.96-1.95-4.54-2.61-6.25-.85-2.2-.76-4.47-.68-6.83,2.88-.03,5.5,3.76,7.69,5.28,2.35,1.63,5.16,3.01,8.02,3.2,2.78.19,6.36.28,8.89-.36,2.56-.65,5.35-2.33,7.43-3.88,3.74-2.79,3.68-6.92,3.29-11.29-.34-3.81-3.51-5.34-5.68-8h0Z"/>
      <path class="cls-36" d="m96.41,70.75c-.44-3.62-6.75-6.41-9.94-6.26-7.2.34-.95,4.32,2.46,5.51,2.53.88,8.08,5.76,7.49.75h0Z"/>
      <path class="cls-36" d="m20.79,81.14c1.77-1.11,3.78-1.58,5.83-1.88,1.06-.15,2.67-.73,3.59-1.26.55-.31.92-1.11,1.5-1.31,1.01-.35.81.45,1.52.96,1.04.77,3.35,1.18,4.63,1.32,1.58.17,3.16.06,4.75.14,3.18.15,7.56.9,10.53-.31.66-.27,1.84-1.44,2.51-1.45.81-.02,1.34,1.66.92,1.74-.7.13-1.07.71-.96,1.41.18,1.11,1.98,1.45,2.93,1.54,1.57.15,3.21-.05,4.79,0,2.21,3.01-4.36,3.25-6.16,2.76-1.71-.46-2.79-1.72-4.36-2.33-1.88-.73-4.07-.45-6.05-.45-2.19,0-4.36.09-6.52-.25-1.43-.23-2.77-.64-4.22-.76-3.44-.28-9.1-1.95-11.77.72-.92.92-1.82,2.21-3.11,2.63-.91.3-2.11-.24-2.13-1.29-.02-.93,1.09-1.53,1.78-1.96h0Zm-7.81,8.29c5.1,2.7,17.11-4.18,20.17,1.84,2.26,4.44-1.52,11.69-5.6,13.31,1.51,2.96,11.95,1.98,15.08,2.15,3.34.18,6.05-.51,8.55-1.56v-12.32h45.9c-.59-.4-1.17-.81-1.74-1.23-1.6-1.17-3.26-2.37-5.13-3.29-8.62-4.22-18.38-7.17-31.67-9.56l-.5-.09c-.28-.05.17-2.59-.08-2.84-.7-.72-2.51.04-3.24.29-2.35.82-4.53,2.33-6.58-.03-.42-.48-.58-1.16-.58-1.92,0-2.87,2.31-7.03,2.34-7.08.91-1.6,2.4-3.11,3.98-4.71,2.56-2.6,5.2-5.28,5.2-8.32,0-.12-.02-.24-.03-.36-5.17-.43-11.02,3.74-14.55,7.56l-2.19,2.84c-.97,1.38-1.98,2.8-3.23,3.86-1.76,1.49-7.39,5.55-9.83,4.4-1.99-.94-1.17-4.68-1.27-6.39-.07-1.29.02-3.23-1.12-4.14-1.54-1.22-4.79-.7-6.29.26-1.84,1.18-2.86,3.36-4.86,4.3-1.57.74-2.81.87-4.18,2.16-2.63,2.5-4.56,6.23-5.16,9.81-.85,5.1,2.3,8.77,6.6,11.04h0Z"/>
      <path class="cls-36" d="m5.69,103.42c1.54,2.4,3.91,3.17,6.72,2.85,2.41-.28,4.89-3.97,5.1-6.24.36-4.05-3.48-7.21-6.39-9.85-.31-.28-.67-.55-1.04-.82-.95-.68-2-1.35-2.67-2.14-1.01-1.19-1.36-2.83-2.4-3.99-1.3.85-1.43,4.28-1.5,5.67-.11,2.25.1,4.5.21,6.75.13,2.73.5,5.46,1.97,7.77h0Z"/>
    </g>
  </g>
</svg>