<?xml version="1.0" encoding="UTF-8"?>
<svg id="Layer_2" data-name="Layer 2" xmlns="http://www.w3.org/2000/svg" viewBox="0 0 406.25 406.26">
  <defs>
    <style>
      .cls-1 {
        fill: #050408;
      }

      .cls-1, .cls-2, .cls-3 {
        fill-rule: evenodd;
        stroke-width: 0px;
      }

      .cls-2 {
        fill: #fff;
      }

      .cls-3 {
        fill: #bb993d;
      }
    </style>
  </defs>
  <g id="Layer_1-2" data-name="Layer 1">
    <g>
      <path class="cls-1" d="m406.25,203.13c0,112.18-90.95,203.13-203.14,203.13S0,315.31,0,203.13,90.94,0,203.11,0s203.14,90.96,203.14,203.13h0Z"/>
      <path class="cls-3" d="m401.9,203.13c0,109.8-89,198.79-198.78,198.79S4.36,312.93,4.36,203.13,93.35,4.36,203.11,4.36s198.78,89,198.78,198.77h0Z"/>
      <path class="cls-2" d="m397.54,203.13c0,107.39-87.03,194.43-194.42,194.43S8.69,310.52,8.69,203.13,95.74,8.71,203.11,8.71s194.42,87.04,194.42,194.41h0Z"/>
      <path class="cls-1" d="m348.23,203.13c0,80.15-64.97,145.1-145.12,145.1S58.03,283.27,58.03,203.13,122.98,58.03,203.11,58.03s145.12,64.97,145.12,145.1h0Z"/>
      <path class="cls-3" d="m343.86,203.13c0,77.74-63,140.74-140.75,140.74S62.38,280.87,62.38,203.13,125.38,62.4,203.11,62.4s140.75,63,140.75,140.73h0Z"/>
      <path class="cls-2" d="m339.5,203.13c0,75.33-61.06,136.4-136.39,136.4s-136.37-61.06-136.37-136.4S127.79,66.75,203.11,66.75s136.39,61.06,136.39,136.38h0Z"/>
      <path class="cls-3" d="m78.24,92.19l-4.25-3.54c-1.43-1.21-2.71-1.95-3.88-2.25-1.15-.32-2.19-.24-3.13.19-.95.45-1.86,1.2-2.76,2.27-.79.97-1.41,1.77-1.9,2.41l15.4,12.87c.54-.58,1.23-1.33,2.02-2.31.89-1.05,1.47-2.08,1.74-3.08.27-1.01.16-2.05-.34-3.14-.5-1.08-1.47-2.22-2.9-3.42h0Zm4.7-5.61c1.72,1.45,3.03,2.97,3.96,4.53.92,1.59,1.41,3.19,1.53,4.83.09,1.65-.18,3.29-.83,4.97-.68,1.65-1.69,3.3-3.04,4.91-1.1,1.32-2.27,2.6-3.51,3.88-1.23,1.26-2.19,2.17-2.84,2.75-.65.55-1.31.55-1.98-.02l-21.83-18.26c-.64-.55-.76-1.18-.33-1.91.26-.47.66-1.11,1.19-1.88.52-.79,1.18-1.69,1.98-2.76.78-1.05,1.53-1.99,2.19-2.82,1.4-1.66,2.85-2.95,4.36-3.87,1.53-.93,3.09-1.49,4.71-1.68,1.61-.19,3.28.04,4.99.65,1.7.61,3.42,1.65,5.18,3.11l4.25,3.56h0Z"/>
      <path class="cls-3" d="m110.34,78.81l-.09,1.23c-.66.78-1.48,1.62-2.36,2.52-.9.91-2.1,2.01-3.61,3.3-1.18,1-2.31,1.79-3.42,2.39-1.08.59-2.21.96-3.36,1.07-1.16.12-2.35-.1-3.55-.69-1.22-.59-2.42-1.59-3.62-3.01l-9.28-10.86c-1.57-1.89-2.47-3.65-2.64-5.27-.17-1.65.17-3.14,1.03-4.48.86-1.35,2.05-2.7,3.66-4.07,1.51-1.29,2.82-2.32,3.93-3.11,1.11-.8,2.02-1.42,2.75-1.84l1.2.09,2.6,3.06.2.62-.3.58-6.66,5.67c-.78.66-1.18,1.28-1.21,1.87-.06.59.28,1.3.99,2.13l2.55,2.99,8.5-7.23.62-.2.58.3,2.65,3.11.19.64-.28.57-8.5,7.23,2.96,3.47c.72.82,1.35,1.29,1.93,1.34.61.06,1.28-.24,2.05-.91l6.65-5.66.64-.2.57.3,2.61,3.06h0Z"/>
      <path class="cls-3" d="m117.39,49.95l-.29-.49c-.66-1.12-1.56-1.69-2.71-1.75-1.13-.06-2.52.39-4.1,1.34-1.04.63-1.98,1.23-2.8,1.81l4.26,7.13c.57-.26,1.44-.76,2.64-1.48,1.9-1.13,3.06-2.18,3.51-3.16.43-.99.27-2.11-.5-3.39h0Zm18.03,13.92l-.27.8-5.64,3.36-.52.07-.67-.37-10.51-6.4-.39.26-1.36.75-1.28.74,5.58,9.39.08.66-.38.51-4.78,2.86-.65.09-.52-.37-14.79-24.83-.37-1.5.99-1.26c1.83-1.54,4.22-3.18,7.19-4.94,1.65-.99,3.25-1.74,4.74-2.24,1.5-.48,2.95-.68,4.32-.6,1.41.08,2.71.53,3.94,1.33,1.21.79,2.29,1.98,3.23,3.55l.29.48c1.12,1.87,1.62,3.66,1.49,5.43-.13,1.78-.75,3.36-1.84,4.82l11.78,7.11.34.32h0Z"/>
      <path class="cls-3" d="m151.31,48.32l-.15-.43c-.41-1.08-1.05-1.82-1.97-2.22-.91-.41-2.13-.33-3.64.23l-4.52,1.67,2.79,7.52c.69-.25,1.26-.47,1.77-.64l1.56-.56c1.97-.72,3.28-1.56,3.9-2.45.63-.9.72-1.94.27-3.14h0Zm-4.56-11.97l-.23-.62c-.42-1.14-1.15-1.78-2.2-1.99-1.04-.2-2.57.08-4.6.84-1.68.62-2.71,1-3.07,1.18l2.62,7.02,4.53-1.67c2.76-1.04,3.74-2.6,2.96-4.76h0Zm11.36,9.65c.64,1.7.86,3.25.63,4.68-.21,1.41-.78,2.67-1.67,3.78-.9,1.1-2.05,2.08-3.46,2.92-1.4.85-3.02,1.62-4.91,2.31-1.18.45-2.54.89-4.04,1.35-1.49.47-2.68.77-3.53.92l-1.47.07-.99-.5-.75-1.37-9.07-24.5c-.34-.91-.42-1.6-.24-2.08.19-.48.64-.94,1.39-1.34.83-.44,1.89-.95,3.26-1.56,1.38-.6,2.64-1.11,3.82-1.56,2.69-.99,5.08-1.59,7.14-1.75,2.07-.17,3.85.18,5.37,1.05,1.51.86,2.65,2.33,3.42,4.39l.26.74c.49,1.3.61,2.6.42,3.88-.23,1.28-.75,2.4-1.62,3.31.87.1,1.68.34,2.41.7.74.38,1.42.91,2,1.56.61.68,1.05,1.46,1.4,2.37l.2.62h0Z"/>
      <path class="cls-3" d="m181.09,18.92v.29s-3.58,15.87-3.58,15.87c-.22.99-.5,1.78-.84,2.38l-1.28,1.4,2.22,11.76-.14.65-.54.37-5.53,1.04-.62-.13-.37-.54-2.24-11.76-1.72-.84c-.52-.39-1.08-1.03-1.7-1.91l-9.15-13.41-.09-.28.09-.51.47-.27,6.08-1.17.98.57,6.83,11.06.37.44.39.06.34-.21.15-.52,2.3-12.8.7-.89,6.08-1.14.54.07.27.43h0Z"/>
      <path class="cls-3" d="m219.37,48.76l-.22.57-.77.36c-1.47.42-3.63.55-6.43.4-1.74-.09-3.35-.4-4.8-.96-1.46-.55-2.76-1.39-3.92-2.52-1.11-1.13-1.98-2.59-2.6-4.42-.6-1.82-.83-3.95-.7-6.38l.25-5.41c.12-2.44.58-4.53,1.34-6.27.8-1.74,1.8-3.12,3.03-4.12,1.26-1.02,2.63-1.71,4.13-2.11,1.52-.41,3.13-.56,4.86-.48,1.4.07,2.68.22,3.9.45,1.21.22,2.03.42,2.45.61l.9.98-.2,4.14-.84.82h-.13c-1.43-.19-2.57-.34-3.35-.43-.79-.1-1.8-.17-3-.23-1.08-.04-2,.12-2.79.51-.81.41-1.47,1.13-1.99,2.18-.5,1.04-.79,2.49-.88,4.32l-.26,5.41c-.1,1.84.06,3.3.47,4.39.37,1.09.96,1.87,1.74,2.34.75.49,1.68.74,2.76.79.4.02.94.03,1.61.05h1.8l1.72-.03,1.24-.04h.13s.77.91.77.91l-.21,4.17h0Z"/>
      <path class="cls-3" d="m241.86,40.44l1.02-5.02c.51-2.51.46-4.42-.15-5.72-.63-1.34-1.83-2.16-3.63-2.52-1.17-.23-2.19-.21-3.06.15-.88.34-1.62,1-2.19,1.99-.61,1.01-1.07,2.33-1.4,3.99l-1.03,5.02c-.33,1.67-.42,3.07-.26,4.19.14,1.14.55,2.03,1.21,2.69.65.67,1.59,1.12,2.79,1.37,1.81.37,3.24.05,4.33-.9,1.08-.99,1.86-2.73,2.38-5.23h0Zm7.24,1.47c-.94,4.64-2.77,7.82-5.51,9.56-2.74,1.73-6,2.22-9.74,1.46-3.72-.77-6.51-2.48-8.36-5.15-1.87-2.67-2.32-6.31-1.38-10.94l1.02-5.04c.95-4.63,2.79-7.81,5.53-9.54,2.73-1.73,5.96-2.22,9.72-1.46,1.83.38,3.43.97,4.86,1.78,1.41.82,2.55,1.87,3.46,3.18.9,1.29,1.49,2.87,1.74,4.75.27,1.86.15,3.99-.33,6.36l-1.01,5.03h0Z"/>
      <path class="cls-3" d="m277.86,54.73c-.92,2.22-1.97,3.93-3.14,5.18-1.2,1.23-2.49,2.07-3.88,2.5-1.4.45-2.89.56-4.42.35-1.54-.21-3.14-.66-4.78-1.34-1.65-.67-3.1-1.48-4.29-2.4-1.24-.93-2.19-2.04-2.85-3.35-.7-1.32-1.02-2.83-.97-4.58.03-1.73.51-3.68,1.39-5.83l7.32-17.73.49-.44h.63l5.18,2.15.46.43v.65l-7.33,17.72c-.57,1.39-.88,2.57-.95,3.52-.05.95.18,1.76.72,2.45.51.67,1.35,1.26,2.54,1.75,1.17.48,2.18.66,3.04.56.86-.11,1.62-.52,2.24-1.22.63-.72,1.24-1.77,1.81-3.17l7.34-17.73.45-.44h.66s5.12,2.13,5.12,2.13l.5.45.03.65-7.34,17.74h0Z"/>
      <polygon class="cls-3" points="299.61 80.73 298.55 81.42 297.3 81.16 293.78 78.83 292.87 77.9 292.65 76.47 293.94 56.95 293.79 56.44 293.42 56.61 283.78 71.13 283.22 71.5 282.57 71.37 278.31 68.55 277.96 67.99 278.08 67.35 294.4 42.8 295.43 42.12 296.67 42.34 300.29 44.76 300.99 45.6 301.08 46.89 299.67 67.26 299.8 67.72 300.18 67.53 310.25 52.36 310.77 52.02 311.43 52.16 315.68 54.99 316.06 55.53 315.95 56.15 299.61 80.73 299.61 80.73"/>
      <polygon class="cls-3" points="335.33 79.77 334.74 80.01 334.11 79.74 329.04 74.95 311.84 93.21 311.23 93.48 310.61 93.25 306.53 89.39 306.27 88.78 306.48 88.18 323.7 69.93 318.6 65.1 318.32 64.51 318.53 63.93 321.55 60.7 322.16 60.46 322.76 60.7 338.29 75.33 338.56 75.93 338.36 76.54 335.33 79.77 335.33 79.77"/>
      <path class="cls-3" d="m358.3,101.58l-.25.15-15.79,3.84c-.97.26-1.81.36-2.5.31l-1.8-.52-9.5,7.22-.66.15-.54-.31-3.41-4.48-.16-.63.33-.58,9.49-7.23v-1.89c.08-.66.41-1.44.93-2.37l7.9-14.17.22-.21.48-.15.44.31,3.76,4.93-.07,1.12-6.81,11-.23.52.13.38.34.21.53-.1,12.44-3.63,1.08.23,3.77,4.93.16.52-.28.42h0Z"/>
      <path class="cls-3" d="m81.99,306.21l-.65.17-.56-.36-5.24-6.98c-.6-.82-1.2-1.27-1.78-1.33-.58-.08-1.32.22-2.19.89l-3.13,2.35,6.67,8.9.17.65-.34.57-3.27,2.44-.66.15-.56-.31-6.69-8.94-10.06,7.53-.63.18-.56-.34-3.33-4.44-.15-.62.32-.58,17.82-13.34c1.98-1.48,3.79-2.25,5.42-2.32,1.66-.07,3.11.35,4.4,1.29,1.29.93,2.57,2.22,3.82,3.89,1.19,1.58,2.15,2.98,2.88,4.14.72,1.15,1.28,2.1,1.66,2.84l-.17,1.2-3.19,2.38h0Z"/>
      <path class="cls-3" d="m88.54,331.9l3.52-3.71c1.74-1.85,2.72-3.49,2.9-4.93.17-1.43-.4-2.78-1.72-4.03-.87-.82-1.75-1.32-2.67-1.49-.93-.17-1.89,0-2.92.54-1.02.54-2.11,1.41-3.27,2.63l-3.5,3.71c-1.18,1.24-2,2.37-2.45,3.4-.47,1.05-.6,2.01-.4,2.91.21.9.75,1.77,1.65,2.62,1.32,1.25,2.69,1.74,4.12,1.5,1.43-.26,3.01-1.31,4.76-3.17h0Zm5.38,5.1c-3.24,3.42-6.48,5.15-9.71,5.18-3.23.04-6.24-1.26-9-3.88-2.76-2.61-4.2-5.53-4.37-8.75-.15-3.24,1.39-6.58,4.63-10.01l3.53-3.71c3.25-3.44,6.48-5.17,9.71-5.18,3.22-.04,6.23,1.26,8.99,3.89,1.35,1.27,2.42,2.63,3.18,4.06.75,1.43,1.17,2.93,1.23,4.51.08,1.56-.26,3.22-1.03,4.95-.76,1.72-1.98,3.47-3.63,5.23l-3.53,3.71h0Z"/>
      <path class="cls-3" d="m113.52,350.37l2.83-4.28c1.38-2.16,2.04-3.96,1.95-5.41-.07-1.44-.88-2.67-2.43-3.68-1-.67-1.97-.98-2.9-.99-.97-.02-1.88.34-2.81,1.04-.91.72-1.83,1.78-2.77,3.2l-2.8,4.28c-.93,1.44-1.53,2.7-1.81,3.82-.27,1.11-.22,2.08.12,2.96.38.84,1.07,1.61,2.1,2.29,1.54.99,2.99,1.25,4.37.75,1.34-.51,2.73-1.84,4.13-4h0Zm6.22,4.05c-2.59,3.96-5.46,6.24-8.65,6.84-3.18.6-6.38-.15-9.58-2.24-3.18-2.08-5.14-4.69-5.87-7.86-.74-3.15.18-6.71,2.77-10.65l2.8-4.29c2.57-3.96,5.45-6.23,8.63-6.84,3.18-.6,6.36.15,9.58,2.23,1.56,1.02,2.84,2.17,3.85,3.47.99,1.27,1.68,2.68,2.02,4.21.36,1.53.32,3.22-.11,5.04-.44,1.85-1.33,3.79-2.64,5.81l-2.81,4.29h0Z"/>
      <polygon class="cls-3" points="150.21 353.51 149.72 353.95 149.05 353.9 142.66 351.13 132.66 374.09 132.2 374.55 131.55 374.52 126.41 372.3 125.95 371.82 125.98 371.16 135.98 348.2 129.54 345.4 129.09 344.95 129.07 344.31 130.84 340.25 131.33 339.82 131.96 339.85 151.47 348.35 151.96 348.8 151.98 349.46 150.21 353.51 150.21 353.51"/>
      <path class="cls-3" d="m169.81,363.24l.15-.64c.29-1.18.04-2.13-.7-2.86-.77-.74-2.19-1.35-4.31-1.87-1.73-.41-2.8-.65-3.2-.73l-1.73,7.25,4.7,1.13c2.87.67,4.56-.08,5.1-2.29h0Zm-2.88,12.49l.11-.44c.28-1.11.15-2.11-.4-2.97-.54-.85-1.59-1.46-3.14-1.84l-4.69-1.11-1.9,7.85c.73.17,1.33.32,1.85.45l1.6.42c2.05.48,3.57.54,4.6.12,1.02-.39,1.68-1.23,1.97-2.48h0Zm6.93,1.86c-.43,1.78-1.13,3.2-2.1,4.25-.96,1.08-2.13,1.81-3.49,2.24-1.35.43-2.87.61-4.49.52-1.65-.07-3.42-.32-5.34-.8-1.24-.3-2.6-.67-4.12-1.13-1.49-.46-2.64-.85-3.43-1.21l-1.26-.75-.52-.97.14-1.54,6.11-25.47c.23-.95.53-1.56.97-1.87.43-.32,1.05-.43,1.89-.35.9.1,2.09.26,3.58.53,1.48.26,2.8.53,4.02.83,2.78.67,5.09,1.5,6.89,2.52,1.81,1,3.09,2.28,3.86,3.84.78,1.56.9,3.42.38,5.56l-.18.75c-.33,1.36-.93,2.51-1.83,3.46-.91.94-1.94,1.56-3.18,1.85.69.56,1.22,1.2,1.62,1.94.41.72.66,1.53.8,2.42.12.89.05,1.81-.17,2.76l-.15.61h0Z"/>
      <path class="cls-3" d="m195.26,374.94l-1.87-12.03-.53-.67-.64.59-3.39,11.68,6.42.42h0Zm9.51,13.67l-.78.64-6-.37-.8-.84-1.11-7.13-8.78-.55-2,6.92-.91.72-5.97-.38-.72-.73.06-.09v-.12s8.07-26.21,8.07-26.21c.58-1.85,1.52-3.03,2.81-3.61,1.27-.57,2.81-.79,4.61-.67,1.19.07,2.21.26,3.1.56.88.3,1.65.82,2.34,1.55.65.75,1.12,1.76,1.35,3.07l4.69,27.02.02.12.02.11h0Z"/>
      <path class="cls-3" d="m230.54,386l-.76.98c-1.73.53-4.04.92-6.94,1.18-1.53.15-2.91.15-4.16,0-1.24-.14-2.38-.48-3.39-1.04-1.01-.57-1.85-1.43-2.52-2.62-.64-1.19-1.07-2.7-1.25-4.57l-2.05-22.11.23-.62.56-.31,5.62-.53.61.21.32.56,2.05,22.11c.1,1.09.37,1.82.82,2.2.44.39,1.17.54,2.19.43l7.35-.67.59.22.34.56.36,4.01h0Z"/>
      <path class="cls-3" d="m253.51,381.09l-.63,1.05c-1.64.74-3.87,1.43-6.72,2.07-1.51.33-2.88.51-4.14.53-1.24,0-2.41-.19-3.49-.62-1.06-.43-2.02-1.18-2.82-2.27-.79-1.1-1.4-2.56-1.79-4.36l-4.87-21.74.14-.64.5-.39,5.51-1.24.62.14.41.5,4.86,21.74c.22,1.07.58,1.78,1.08,2.1.49.33,1.22.38,2.23.15l7.21-1.59.64.12.39.51.86,3.92h0Z"/>
      <path class="cls-3" d="m290.66,365.25l.11.63-.48.69c-1.05,1.12-2.83,2.32-5.32,3.65-1.54.81-3.05,1.35-4.6,1.62-1.55.27-3.09.23-4.62-.16-1.56-.38-3.06-1.2-4.49-2.46-1.47-1.25-2.76-2.95-3.9-5.1l-2.54-4.78c-1.16-2.16-1.83-4.19-2.05-6.07-.23-1.9-.07-3.58.46-5.08.56-1.51,1.38-2.81,2.47-3.93,1.08-1.11,2.4-2.06,3.94-2.89,1.22-.65,2.41-1.19,3.57-1.62,1.16-.44,1.96-.68,2.41-.74l1.29.39,1.96,3.67-.33,1.14-.12.06c-1.31.57-2.35,1.04-3.09,1.36-.73.32-1.62.77-2.69,1.34-.95.5-1.65,1.12-2.16,1.89-.49.75-.68,1.7-.58,2.85.1,1.16.55,2.54,1.45,4.15l2.53,4.77c.86,1.62,1.75,2.79,2.65,3.52.9.72,1.8,1.1,2.7,1.11.91.01,1.83-.23,2.77-.73l1.43-.8,1.54-.92,1.46-.91,1.05-.66.12-.05,1.14.37,1.94,3.7h0Z"/>
      <path class="cls-3" d="m314.16,351l-.2,1.23c-1.28,1.28-3.11,2.74-5.53,4.35-1.27.86-2.5,1.53-3.67,1.99-1.15.47-2.32.69-3.47.67-1.16,0-2.3-.37-3.44-1.09-1.15-.73-2.21-1.87-3.27-3.41l-12.36-18.47-.11-.64.35-.56,4.69-3.14.64-.09.56.33,12.36,18.46c.6.9,1.2,1.43,1.76,1.55.59.12,1.29-.09,2.13-.66l6.15-4.12.64-.09.56.33,2.21,3.35h0Z"/>
      <path class="cls-3" d="m329.58,322.93c1.61,1.76,2.73,3.44,3.34,5.04.63,1.6.83,3.12.64,4.58-.2,1.45-.72,2.83-1.57,4.13-.83,1.31-1.93,2.57-3.22,3.76-1.32,1.21-2.66,2.17-4.02,2.89-1.34.72-2.76,1.09-4.25,1.16-1.48.05-2.98-.29-4.53-1.06-1.54-.77-3.11-2.03-4.7-3.74l-12.93-14.13-.18-.59.28-.59,4.15-3.8.6-.25.57.27,12.95,14.12c1,1.11,1.92,1.89,2.78,2.36.81.45,1.65.58,2.48.4.85-.19,1.71-.71,2.65-1.56.93-.85,1.52-1.68,1.79-2.5.26-.81.19-1.67-.18-2.53-.37-.88-1.07-1.89-2.09-2.98l-12.91-14.12-.22-.59.29-.6,4.11-3.76.64-.26.59.25,12.94,14.12h0Z"/>
      <path class="cls-3" d="m347.14,305.79l-.35-.32c-.87-.76-1.79-1.1-2.79-1.03-1.02.09-2.04.71-3.1,1.92l-3.2,3.6,6,5.35,1.26-1.4,1.12-1.22c1.39-1.56,2.15-2.9,2.27-4,.12-1.09-.26-2.06-1.22-2.9h0Zm-9.72-8.39l-.47-.44c-.89-.8-1.86-1.03-2.87-.71-1.01.32-2.22,1.29-3.65,2.89-1.18,1.32-1.88,2.15-2.14,2.46l5.54,4.93,3.22-3.6c1.93-2.18,2.06-4.04.36-5.53h0Zm14.62,3.15c1.35,1.21,2.27,2.48,2.78,3.85.47,1.35.56,2.74.29,4.13-.25,1.41-.82,2.82-1.65,4.21-.83,1.41-1.89,2.85-3.22,4.33-.85.95-1.83,1.99-2.92,3.09-1.1,1.11-2,1.94-2.68,2.47l-1.26.76h-1.11s-1.29-.85-1.29-.85l-19.59-17.35c-.72-.66-1.11-1.24-1.19-1.74-.07-.53.14-1.13.61-1.85.5-.75,1.21-1.73,2.12-2.88.94-1.19,1.81-2.25,2.64-3.18,1.9-2.16,3.71-3.78,5.45-4.9,1.76-1.11,3.49-1.63,5.23-1.59,1.73.06,3.44.82,5.07,2.28l.59.52c1.04.92,1.78,2,2.18,3.23.44,1.25.49,2.47.15,3.67.82-.32,1.64-.49,2.46-.52.83-.02,1.66.13,2.5.44.84.31,1.61.79,2.33,1.44l.5.42h0Z"/>
      <path class="cls-1" d="m164.34,322.08l-.6.31c-.56-.11-1.16-.25-1.83-.41-.67-.18-1.51-.44-2.52-.8-.78-.28-1.48-.57-2.04-.92l-1.42-1.28c-.37-.51-.56-1.13-.64-1.86-.04-.72.07-1.56.4-2.53l2.55-7.3c.45-1.27,1.01-2.16,1.74-2.69.72-.52,1.51-.77,2.37-.74.84.01,1.83.21,2.89.59,1.03.35,1.88.68,2.56.99.68.31,1.19.55,1.59.79l.28.58-.7,2.06-.25.27h-.34s-4.47-1.55-4.47-1.55l-1.21-.06-.72,1.06-.69,2.01,5.7,1.98.25.24.02.37-.72,2.08-.25.27h-.35s-5.71-1.97-5.71-1.97l-.8,2.34-.1,1.28.99.7,4.48,1.57.27.23v.37l-.72,2.04h0Z"/>
      <path class="cls-1" d="m176.66,322.1c-.28,1.13-.93,1.95-1.9,2.46-1,.5-2.28.58-3.87.19-.66-.15-1.37-.38-2.08-.62-.72-.25-1.35-.54-1.94-.87l-.31-.62.45-1.84.17-.27.34-.05h.08c.8.31,1.57.58,2.27.8.73.22,1.23.38,1.54.45l1.09.07.44-.62-.07-.54-.52-.6-2.55-2.41c-.54-.5-.91-1.1-1.13-1.76-.21-.65-.23-1.35-.07-2.08.2-.76.52-1.36.99-1.81.47-.42,1.08-.7,1.83-.8.76-.11,1.64-.03,2.68.23l1.55.42,1.18.5,1.17.57.32.62-.45,1.84-.51.34-.04-.02c-.5-.19-1.12-.41-1.85-.65-.73-.25-1.33-.42-1.85-.55l-.98-.08-.39.45.05.42.45.56,2.46,2.26c.73.72,1.2,1.4,1.39,2.03.17.64.2,1.3.05,1.99h0Z"/>
      <path class="cls-1" d="m184.95,327.11l-.53.39c-.75-.04-1.36-.1-1.81-.19-.67-.14-1.22-.3-1.67-.51l-1.07-.82-.47-1.36c-.07-.53-.02-1.21.15-1.98l1.32-6.59-1.75-.67-.31-.23-.06-.34.3-1.53.2-.33.37-.07,1.83.36.38-1.85.55-.37,2.9.1h.07s.27.17.27.17l.07.3-.49,2.4,1.88.39.28.21.07.36-.4,1.85-.18.31-.35.07-1.89-.38-1.34,6.62-.1.7.15.34.48.17,1.13.25.41.47-.38,1.76h0Z"/>
      <polygon class="cls-1" points="190.28 328.07 190.09 328.38 189.73 328.47 187.02 328.02 186.72 327.84 186.61 327.49 187.07 324.6 187.29 324.31 187.64 324.23 190.36 324.67 190.66 324.85 190.73 325.17 190.28 328.07 190.28 328.07"/>
      <polygon class="cls-1" points="208.05 328.3 207.95 328.63 207.64 328.8 204.59 328.96 204.26 328.83 204.11 328.52 203.39 315.67 200.84 316.88 200.56 316.97 200.29 316.67 200.15 314.02 200.36 313.67 204.04 311.72 204.57 311.58 206.67 311.47 206.98 311.57 207.14 311.89 208.05 328.3 208.05 328.3"/>
      <path class="cls-1" d="m219.61,322.63l-.04-.24-.72-1.46c-.4-.41-.94-.55-1.65-.45l-.71.09c-.72.09-1.2.38-1.49.86l-.33,1.59.03.24c.09.66.36,1.19.81,1.57.46.37,1.06.51,1.82.41l.25-.02c.75-.09,1.29-.38,1.63-.86.35-.48.48-1.06.39-1.73h0Zm-.93-7.22l-.02-.12-.77-1.48c-.4-.33-1.03-.43-1.82-.33l-.26.04c-.83.12-1.39.37-1.7.8l-.38,1.62v.12s.75,1.4.75,1.4c.41.32.95.44,1.64.35l.72-.09c.69-.09,1.17-.34,1.51-.76l.33-1.54h0Zm4.74,6.82c.12,1.1,0,2.06-.4,2.9-.39.83-1.04,1.49-1.92,2.02-.86.49-1.91.83-3.12,1l-.27.04c-1.21.14-2.3.09-3.28-.18-.99-.26-1.78-.76-2.38-1.45-.6-.69-.97-1.6-1.13-2.68l-.04-.31c-.08-.73,0-1.44.27-2.14.26-.68.68-1.29,1.22-1.81-1.35-.68-2.13-1.75-2.33-3.22v-.25c-.15-1.05-.02-1.96.38-2.73.39-.78,1.02-1.4,1.9-1.87.84-.46,1.88-.78,3.1-.94l.29-.03c1.89-.25,3.42-.05,4.56.62,1.2.66,1.87,1.77,2.08,3.36l.04.25c.2,1.45-.29,2.68-1.45,3.71.67.37,1.21.83,1.66,1.42.43.58.69,1.25.79,2l.04.31h0Z"/>
      <path class="cls-1" d="m234.16,319.77l-.04-.23-.83-1.43c-.44-.36-.99-.47-1.67-.32l-.71.16c-.69.15-1.15.46-1.39.97l-.17,1.65.06.23.92,1.51c.48.34,1.08.45,1.8.28l.27-.04c.72-.17,1.22-.5,1.54-.99.31-.52.36-1.1.23-1.78h0Zm-1.51-7.14l-.02-.12-.85-1.39c-.46-.29-1.05-.34-1.86-.17l-.26.04c-.78.17-1.33.48-1.62.92l-.23,1.62.04.12.82,1.32,1.65.21.71-.16c.67-.13,1.14-.42,1.43-.86l.2-1.55h0Zm5.27,6.47c.24,1.07.18,2.06-.15,2.92-.35.86-.92,1.57-1.76,2.16-.81.59-1.83.99-3.02,1.26l-.26.05c-1.2.25-2.31.28-3.29.09-.99-.19-1.83-.61-2.5-1.25-.65-.66-1.1-1.53-1.34-2.59l-.05-.31c-.13-.73-.11-1.45.11-2.14.2-.71.59-1.34,1.09-1.92-1.42-.57-2.3-1.58-2.57-3.02l-.08-.25c-.2-1.04-.15-1.97.18-2.76.34-.8.92-1.49,1.73-2,.84-.53,1.84-.93,3.06-1.19l.25-.04c1.86-.39,3.41-.32,4.63.26,1.21.54,2,1.61,2.33,3.17l.05.24c.3,1.45-.08,2.7-1.15,3.82.68.29,1.26.71,1.73,1.27.5.55.82,1.2.96,1.94l.07.31h0Z"/>
      <path class="cls-1" d="m245.96,314l-1.8-4.81-.14-.1-.03.07-1.71,5.97v.14s.18.06.18.06l3.49-1.32h0Zm6.4.38v.38s-.26.23-.26.23l-1.45.54,1.21,3.2-.02.36-.23.25-2.92,1.08-.32-.02-.25-.27-1.19-3.22-6.32,2.36-.34-.02-.24-.25-.8-2.13v-.76s3.52-11.62,3.52-11.62l.44-.53,2.35-.87h.35s.26.27.26.27l3.45,9.27,1.43-.54h.38s.24.28.24.28l.72,1.99h0Z"/>
      <path class="cls-1" d="m92.67,188.06s9.02-.39,9.02-8.89c0-11.03-13.8-11.56-13.8-26.5,0-11.16,12.14-14.08,12.14-14.08l.32.15-.18.32s-8.3,2.59-8.3,12.66c0,11.14,12.96,13.75,13.23,24.76.28,11.27-7.93,12.45-9.79,12.45s-2.74-.36-2.74-.36l-.17-.31.26-.19h0Z"/>
      <path class="cls-1" d="m284.22,262.79c2.37-2.47,3.73-4.27,4.27-5.12l.06-.24v-.12c-1.43-3.68-3.08-7.11-4.65-10-3.38-2.46-6.88-4.65-10.49-6.57l-.12-.04-.26.25.04.14h.03s-.02,0-.02,0l.73,1.04c.85,1.22,2.03,3,3.34,5.21,2.32,3.92,4.65,9.43,6.58,15.34l.29.2.21-.09h0Z"/>
      <path class="cls-1" d="m103.13,152.97c0-1.88.21-4.01.67-6.4,1.24-6.49,5.25-11.32,10.5-14.48,5.27-3.17,11.79-4.71,18.13-4.71,3.39,0,6.71.44,9.76,1.3,6.45,1.84,12.58,5.56,17.11,10.51,4.53,4.94,7.44,11.12,7.44,17.86,0,2.31-.34,4.68-1.07,7.1-1.32,4.3-3.39,7.59-5.79,10.07-3.61,3.73-7.95,5.67-11.61,6.68-3.02.83-5.56,1.04-6.84,1.08,5.48-3.61,9.2-9.12,9.2-14.81v-.12l.76-.88c.96-1.22,2.07-3.07,2.87-5.67.45-1.43.72-3.12.72-4.93h0c0-2.59-.42-5.63-2.05-8.44-1.47-2.56-3.79-5.2-7.73-7-2.91-1.34-5.91-2.01-8.8-2.01h0c-3.63.01-7.33,1.14-10.31,3.19-3.04,2.13-5.26,5.45-6.83,9.43-1.62,4.09-2.87,7.1-4.3,9.51-.69,1.16-1.4,2.03-2.27,2.66-.77.56-1.81.91-2.9.91h-.07c-.84,0-1.7-.23-2.47-.66-1.16-.67-2.19-1.84-2.93-3.53-.73-1.7-1.18-3.9-1.18-6.67h0Zm-4.77,0c0,3.26.51,6.13,1.57,8.57,1.06,2.44,2.72,4.5,4.95,5.77,1.3.75,2.74,1.17,4.21,1.26l.1.41c.1.44.32,1.46.45,2.18.26,1.41.52,3.19.53,4.67.02,1.44-.14,2.92-.3,4.05-.1.7-.2,1.25-.26,1.59l-1.91.03c-1.66.26-4.01,1.06-4.01,1.06,0,0,6.27,3.91,13.46,10.84,6.3,6.07,8.67,10.72,9.18,11.81l.3.2h.04c.71-.06,2.96-.21,5.77.09,2.74.29,4.87.92,5.59,1.15h.07s.21-.15.21-.15c.07-.72.2-2.84-.56-4.74-1.45-3.63-3.95-4.23-4.7-4.33h-.02l-.21.17-.25,2.52h0s.22.23.22.23h.01c.43-.02,1.35.03,2.44.62,1.73.94,1.66,2.62,1.66,2.62,0,0-1.83-.7-4.55-1.1-2.71-.4-5.03-.28-5.03-.28,0,0-2.1-4.3-6.34-10.17-3.62-5.01-7.15-8.71-8.09-9.67.06-.25.22-.96.38-1.94l.08-.46c1.69-.91,2.79-2.38,2.79-4.04s-1.05-3.06-2.65-3.96l-.21-1.43c-.17-1.1-.36-1.97-.45-2.41.96-.31,1.85-.75,2.66-1.34,1.59-1.15,2.7-2.62,3.58-4.09,1.67-2.85,3-6.06,4.64-10.19,1.33-3.4,3.14-5.89,5.12-7.27,2.06-1.44,4.99-2.35,7.59-2.33,2.16,0,4.47.5,6.8,1.57,3.05,1.44,4.42,3.06,5.61,5.06,1.03,1.76,1.41,3.98,1.41,6.02v.07h0c0,1.3-.22,2.54-.51,3.46l-.49,1.35c-2.14-4.77-6.59-8.12-12.45-8.12-8.42,0-14.59,5.7-14.59,14.92,0,8.3,6.65,13.87,7.95,14.88l.29.1.14-.02.86-.28c1.19-.4,2.37-.94,3.5-1.58l.12-.23-.07-.18c-1.3-1.22-6.83-6.78-6.83-12.69,0-7.49,5.5-9.62,8.96-9.62s8.69,2.52,8.69,9.49-6.56,13.66-13.6,16.05c-7.03,2.38-14.5,1.27-14.5,1.27l-.32.18.16.34s6.1,3.18,16.44.39l1.74-.53c-.1,1.48-.18,4.91.61,9.53.89,5.29,2.95,9.4,3.3,10.02l.17.1.14-.08,1.71-2.7.07-.25-.03-.17c-.34-1.05-1.59-5.19-1.78-9.96.46.76.95,1.57,1.46,2.44,1.91,3.25,4.14,7.24,6.44,11.79-.69.08-1.38.15-2.08.18.8,1.57,1.59,3.2,2.4,4.9.68-.09,1.35-.2,2.02-.33,1.1,2.33,2.21,4.78,3.29,7.33,6.8,16.05,10.16,28.87,10.54,30.33l.04.14.66,2.63.48.36.16-.02,2.54-.9c2.07-.73,4.17-1.08,6.25-1.08,2.77,0,5.52.62,8.16,1.87,3.24,1.55,5.58,3.95,7.21,7.09,1.62,3.14,2.47,7.04,2.47,11.35v.02h0c0,1.21-.07,2.47-.2,3.72v.04s.3.3.3.3l.15-.04c3.3-1.73,4.86-2.96,5.48-3.51l.18-.39v-.12c0-5.08-.99-9.93-3.13-14.08-2.13-4.16-5.48-7.62-9.93-9.73-3.39-1.61-7.03-2.44-10.68-2.44h0c-1.73,0-3.45.18-5.16.55-1.4-4.94-4.68-15.66-10.07-28.4-.98-2.32-1.98-4.56-2.99-6.71,3.75-1.48,7.22-3.63,10.26-6.3,6.02-5.26,10.5-12.49,12.71-20.63,1.43-5.24,2.11-10.51,2.07-15.68-.04-6.95-1.57-14.02-4.28-20.38,8.36,2.11,27.47,6.48,51.66,9.08,24.09,2.59,44.04,3.11,52.84,3.21,1.55,2.84,4.07,7.09,7.49,11.85-.88,1.05-2.3,2.62-4.39,4.68l-1.21,1.19-.15.36.04.19.7,1.56s5.39,12.13,10.54,21.11c3.84,6.67,9.12,13.58,11.68,16.82-.82,1.11-1.87,2.66-2.92,4.57-2.21,4.03-4.47,9.72-4.47,16.38,0,5.4.59,10.5,1.45,15.09-2.77-3.06-6.08-6.21-10.01-9.25-17.27-13.34-37.84-19.36-58.9-19.36h-.03c-7.96,0-14.68,1.05-20.13,2.73-5.44,1.68-9.61,3.96-12.48,6.57-1.9,1.75-3.27,3.66-3.85,5.84-.31,1.17-.45,2.34-.45,3.47h0,0c0,3.22,1.02,6.11,2.14,9.01,1.13,2.9,2.43,5.87,3.37,9.24,1.97,7,3.03,13.13,3.3,14.83l.3.25.18-.06c2.57-1.6,4.01-2.79,4.73-3.46l.15-.36v-.07c-.55-2.94-1.53-7.59-2.98-12.73-1.08-3.84-2.49-7.05-3.55-9.78-1.07-2.72-1.74-4.94-1.74-6.81v-.05c0-.67.08-1.32.25-1.98.16-.65.8-1.78,2.13-2.99,1.32-1.21,3.3-2.51,5.89-3.66,5.18-2.32,12.82-4.09,22.71-4.09h.03c19.96,0,39.17,5.66,55.32,18.13,10.31,7.96,15.81,16.73,18.53,21.95,1.26,2.39,1.83,3.77,2.16,4.49l.26.16.22-.1c2.46-2.58,3.33-3.87,3.78-4.64l.07-.25h0s-.05-.23-.05-.23c-.28-.59-.48-.97-.78-1.78-.59-1.48-1.37-3.32-2.04-5.37-2.05-6.31-4.1-15.06-4.1-24.7v-.05c0-5.12,1.74-9.77,3.57-13.2,1.83-3.42,3.75-5.6,3.88-5.75l1.73-1.89-1.64-1.98-.32-.4-.94-1.17c-.8-1.02-1.92-2.46-3.2-4.17-2.55-3.41-5.73-7.92-8.15-12.14-3.74-6.5-7.75-15.03-9.44-18.72,3.79-3.78,5.68-6.82,5.9-7.17l.09-.28-.11-.32-1.02-1.38c-4.61-6.15-7.75-11.72-9.16-14.43l-.67-1.32-.45-.27h-1.47c-7.52-.05-28.43-.45-54.02-3.19-28.53-3.06-51.36-9.04-55.97-10.29-.48-.77-.97-1.51-1.49-2.24-2.72-.2-5.13-.9-6.83-1.85,7.71,8.09,12.05,20.29,11.9,32.29-.07,4.73-.78,9.57-2.19,14.36-2.12,7.22-6.02,13.15-11.37,17.64-2.81,2.35-5.93,4.18-9.27,5.39-3.7-7.42-7.26-13.48-9.78-17.52,1.53-.17,3.46-.48,5.61-1.08,4.22-1.17,9.39-3.44,13.77-7.95,2.92-3.01,5.4-6.99,6.92-12.01.88-2.85,1.3-5.71,1.3-8.49,0-8.15-3.54-15.46-8.71-21.08-5.18-5.65-12.03-9.79-19.33-11.87-3.52-1-7.27-1.48-11.06-1.48-7.1,0-14.42,1.69-20.59,5.39-6.18,3.68-11.22,9.67-12.73,17.67-.51,2.65-.75,5.07-.75,7.3h0Z"/>
      <path class="cls-2" d="m111.6,177.78c.59-.04,1.95-.29,2.05-1.77.11-1.59-1.46-2.31-2.14-2.52l-.21-1.45c.6.14,4.07,1.13,3.86,4.23-.19,2.81-3.14,2.9-3.71,2.9l.14-1.38h0Z"/>
    </g>
  </g>
</svg>