<?xml version="1.0" encoding="UTF-8"?>
<svg id="Layer_2" data-name="Layer 2" xmlns="http://www.w3.org/2000/svg" viewBox="0 0 506.34 357.99">
  <defs>
    <style>
      .cls-1, .cls-2, .cls-3, .cls-4 {
        stroke-width: 0px;
      }

      .cls-2 {
        fill: #d82127;
      }

      .cls-3 {
        fill: #fff;
      }

      .cls-4 {
        fill: #ecd981;
      }
    </style>
  </defs>
  <g id="Layer_1-2" data-name="Layer 1">
    <g>
      <path class="cls-1" d="m499.79,280.82c-8.57,0-72.02-64.75-94.58-87.3-22.55-22.55-88.59-64.26-105.73-64.26v-2.18c.81,0,1.94-1.78,1.94-3.88,0-8.49-12.05-10.48-18.48-15.39,23.45-25.84,44.2-48.69,51.64-56.9,20.62-22.72,13.4-34.42,13.4-34.42,0,0-13.1-4.69-34.11,16.33-7.39,7.39-28.15,27.95-51.96,51.5-1.92-3.01-3.17-5.66-3.17-7.45,0-11.99-1.87-23.46-4.93-33.72,2.29-.28,4.63-.47,7.03-.47,33.63,0,34.4-34.92,33.3-40.26-20.05,9.13-39.99,7.94-55.25,10.41-6.29-8.06-13.23-12.83-19.45-12.83-15.76,0-46.07,35.89-46.07,58.2,0,5.58-6.31,7.28-6.31,11.16,0,2.67,6.06,3.88,6.06,6.55v11.64s-2.18,2.67-2.18,4.12,4.12,5.09,4.12,5.09v3.64c0,1.33.61,2.18,1.94,2.18v15.76c0,4.49,2.55,7.52,5.82,7.52h9.7c2.79,0,7.76,2.06,7.76,5.09v1.94c-16.89,0-73.57,36.59-94.58,57.23-21,20.64-55.69,54.48-70.08,68.87-14.39,14.39-23.93,21.82-30.31,21.82-2.91,0-5.34,1.09-5.34,2.91,0,3.03,7.03,6.55,14.55,6.55,42.76,0,31.61,20.61,63.29,20.61,42.68,0,20.37,22.55,72.99,22.55,21.75,0,25.3,5.82,36.13,5.82,10.08,0,23.6-3.65,35.84-7.86,9.01,6.69,18.65,14.39,28.52,24.26l2.33,2.33,2.33-2.33c9.4-9.4,18.59-16.82,27.23-23.29,11.14,3.9,24.13,7.13,36.64,7.13s15.36-5.82,38.8-5.82c47.53,0,32.17-23.28,70.08-23.28s18.67-19.89,62.81-19.89c10.83,0,14.79-3.07,14.79-6.06,0-1.7-2.67-3.64-6.55-3.64Z"/>
      <g>
        <path class="cls-4" d="m370.03,169.7c-27.54-19.04-60.41-37.15-70.54-37.15,0,0-6.31-1.12-11.88-1.12-3.88,0-7.52,1.21-7.52,3.39,0,2.67,11.64,1.7,27.4,20.13,15.04,1.46,62.54,14.74,62.54,14.74Z"/>
        <path class="cls-4" d="m14.55,286.97c-4.36,0-8.54-1.54-10.29-2.74.33-.05.63-.12,1.08-.12,7.09,0,16.24-6.39,32.65-22.79,0,0,32.1-31.43,52.96-44.53l-65.96,65.96s-3.64,4.22-10.43,4.22Z"/>
        <path class="cls-4" d="m243.55,40.09c-4.53,0-5.33-3.88-14.87-3.88-4.85,0-8.89,4.04-8.89,12.45v3.32c9.07-5.13,23.77-12.6,41.06-12.6,9.82,0,17.43-3.23,22.62-9.59,5.9-7.22,7.48-16.86,7.64-22.54-13.35,5.17-26.35,6.33-37.95,7.34-21.44,1.85-35.71,3.1-37.89,28.25-.07,1.38-.35,7.61.8,7.61,1.29,0,2.1-3.07,2.1-8.41,0-13.09,5.66-22.96,32.82-22.96,19.89,0,34.76-8.08,36.21-8.08,0,9.54-5.17,15.84-5.98,15.84-3.07,0-8.08-5.82-14.06-5.82-1.45,0-3.88.48-3.88,1.78s9.38,5.98,9.38,7.6-11.32-6.14-14.07-6.14c-1.29,0-3.56.32-3.56,1.45s13.1,10.99,10.99,10.99-11.97-9.86-14.87-9.86-2.26,1.13-2.26,2.26,7.07,6.18,6.63,6.63c-6.14,0-11.8-7.27-16.33-7.27-4.85,0-7.76.16-7.76,1.13,0,1.78,14.55,5.17,14.55,9.54-.97.97,0,.97-2.43.97Z"/>
        <path class="cls-4" d="m208.57,57.96c0,3.11,2.53,5.64,5.64,5.64s5.64-2.53,5.64-5.64-2.53-5.64-5.64-5.64-5.64,2.53-5.64,5.64Z"/>
        <path class="cls-4" d="m221.39,54.87c.42.95.66,1.99.66,3.09,0,.84-.17,1.62-.41,2.38,9.41.36,17.46.72,20.71.86-.18-4.55-1.16-9.65-2.65-14.8-7.32,2.49-13.56,5.78-18.31,8.46Z"/>
        <path class="cls-4" d="m206.37,57.96c0-1.59.48-3.06,1.29-4.29l2.61-37.33c-3.45,2.75-7.54,6.93-11.53,12.26-7.89,10.56-12.53,21.65-12.98,30.75,5.6.03,13.1.22,20.85.46-.14-.59-.24-1.21-.24-1.85Z"/>
        <path class="cls-4" d="m242.39,45.54c1.85,6.29,2.94,12.35,2.94,17.19v1.52l-1.52-.07c-.21-.01-10.95-.51-23.79-1-1.44,1.59-3.49,2.61-5.81,2.61-2.51,0-4.72-1.2-6.16-3.04-8.99-.29-17.79-.52-23.83-.52h-1.45v-1.45c0-9.95,4.97-22.32,13.65-33.93,5.21-6.98,12.15-14.01,17.58-16.34l-2.82,40.22c.16-.07.34-.1.51-.16-.03-14.79,2.96-23.71,8.16-29.24l.76-10.92c2.33.97,4.69,2.92,6.97,5.54,2.35-1.05,4.92-1.83,7.67-2.43-5.37-6.49-11.01-10.22-15.78-10.22-13.62,0-42.78,34.47-42.78,54.9,0,4.4-2.62,7.04-4.54,8.97-.57.57-1.13,4.25-.7,4.43,2.06.85,5.82-3.82,7.52-3.82,66.45,0,76.44,5.81,76.44,5.81-.31-10.75-2.13-20.9-4.88-29.97-2.82.49-5.54,1.14-8.14,1.92Z"/>
        <path class="cls-4" d="m249.05,80.27c-.97,0-1.7.85-1.7,1.7s5.82,7.15,5.82,7.15c0,0-.12,1.58-1.58,1.58-3.4,0-8.12-12.97-10.06-12.97s-3.27,1.09-3.27,1.94c0,2.55,7.4,12.97,7.4,14.19s-.73,2.55-1.46,2.55-4.97-11.28-9.46-13.34c-.79-.79-1.09-.85-2.42-.85s-4.36-.12-4.36,2.3-1.58,3.82-3.82,3.82-6.37-5.27-6.37-7.94c0-1.7-.12-3.15-1.58-3.15s-2.18,1.94-2.18,3.03c0,1.94-.85,2.36-2.36,2.36h-4.67s-.73,2-.73,3.09c0,1.82,6.06,4.61,6.06,6.06s-4.12,1.94-4.12,9.58c0,1.58-.85,2-2,2s-1.7-.91-1.7-1.7c0-5.27,4.18-6.61,4.18-10.37,0-2.86-.97-3.27-1.94-3.27-3.88,0-5.46,12.37-6.55,12.37s-2.55-.12-2.55-.85c0-4.73,6.06-13.22,6.06-19.76,0-2.91-4-6.55-8.12-6.55-6.31,0-6.06,2.18-8.85,2.18-1.82,0-1.46-2.06-4-2.06l-3.35-.06c0,1.17.4,3.16,1.8,4.17,0,0,5.72-.07,5.72,1.89s-7.68,1.72-7.68,1.72c-1.62,0-2.76.81-2.76,1.86v5.78s-3.7,2.47-3.13,3.92c.56,1.45,4.35-.74,6.72-1.12l1.28,3.05s-5.09,3.07-4.08,5.86c.53.53,5.94.2,5.94.2v5.51s-3.48,8.23-3.48,12.19c0,2.67,1.69,4.22,3.15,4.22h9.7c1.96,0,10.02-1.14,10.02-4.38s-7.86-11.38-5.74-13.5c1.09-1.09,11.32,7.35,11.32,14.23,0,1.74-1.78,2.71-1.78,4.89s.97,3.88,4.85,3.88c5.58,0,6.79-2.3,6.79-8,0-4.49-3.88-4.97-3.88-10.19,0-2.67,1.45-4.85,1.45-4.85h2.55v5.33c0,4.73,3.64,5.94,3.64,8.37s-1.33.97-1.33,5.46c0,.47.07.92.18,1.36,4.32-4.27,8.73-8.63,13.17-13.02-.08-.74-.13-1.48-.13-2.17,0-5.09-4.12-7.76-4.12-7.76,0,0,.12-2.06,1.09-2.06s6.79,4.37,6.79,5.7.46,1.39,1.32,1.39c7.62-7.53,15.26-15.09,22.62-22.37-5.01-1.92-10.36-4.61-12.3-4.61Zm-32.25,15.76c0-2.79,1.58-3.64,1.58-6.3,0-1.09,2.26-1.38,3.03-.61,2.18,2.18-2.67,3.03-2.67,7.64-1.34,0-1.94.49-1.94-.73Zm8.85,19.64c-.97,0-1.82-.73-1.82-2.79,0-7.76-4-1.21-4-8.97,0-3.88,2.67-7.76,3.52-6.91.85.85-.97,3.03-.97,4.85,0,4.36,4.97,4.61,4.97,9.09,0,2.91-.73,4.73-1.7,4.73Z"/>
        <path class="cls-4" d="m288.67,114.83c-2.77-1.35-5.63-2.74-7.95-4.56,0,0,0,0,0,0-1.47,1.62-2.95,3.26-4.44,4.9v.82c0,2.97,2.97,4.61,4.61,4.61,5.76,0,7.21,7.21,7.21,7.21,0,0-3.4-3.76-7.64-3.76-2.3,0-4.3-2.18-4.3-4.06s-2.12-2.12-2.12-2.12l-.18-.03c-3.03,3.34-6.09,6.71-9.15,10.08,2.96,1.89,6.94,3.78,11.02,3.78,7.64,0,1.58-1.94,11.88-1.94,11.64,0,10.52-6.55,10.52-6.55,0-3.51-3.58-5.5-9.46-8.36Z"/>
        <path class="cls-4" d="m170.84,174.33c1.45-1.43,3.12-3.08,4.94-4.88l-1.57-4.21h5.83c8.71-8.61,20.24-19.99,32.92-32.53-33.8,5.05-85.22,40.4-104.92,59.76,0,0,14.41-8.29,38.62-14-.14-1.24-.22-2.61-.22-4.11,0-6.26,3.54-13,11.3-13s12.55,8.31,12.85,13c.08,0,.16-.02.25-.03Z"/>
        <path class="cls-4" d="m226.35,165.24c41.73-45.98,105.79-116.55,105.79-116.55,11.59-12.77,13.74-21.56,13.74-26.33,0-.3-.01-.58-.03-.85l-137.11,143.73h17.61Z"/>
        <path class="cls-4" d="m204.18,165.24L343.29,19.43c-4.77.3-14.18,2.83-27.08,15.72-15.93,15.93-94.89,93.95-131.47,130.09h19.45Z"/>
        <path class="cls-4" d="m180.84,189.7c-1.04-7.01-2.77-13.2-3.89-16.78-3.76,3.71-6.69,6.61-8.56,8.45,1.7,1.66,6.04,5.9,10.56,10.31l1.89-1.98Z"/>
        <path class="cls-4" d="m181.29,207.65c-7.76-8.29-22.45-23.94-23.91-25.41-2-2-2.67-4.24-2.67-6.55,0-1.46,1.58-5.09,2.91-5.09s2,.85,2,2c0,2.73-1.76-.06-1.76,3.82,0,3.39,2.18,5.21,2.18,5.21l21.56,22.68c.07-1.13.11-2.3.11-3.52,0-.61-.02-1.21-.04-1.82l-18-17.58s.29-.28.83-.82l-.83.1s3.64-1.58,3.64-5.82c0-3.27-3.52-10.19-9.58-10.19s-8,5.58-8,9.7c0,4.73.79,7.94,2.18,9.34,1.14,1.14,21.12,22.18,28.27,29.71.46-1.81.83-3.71,1.1-5.76Z"/>
        <path class="cls-4" d="m308.7,165.24v-1.07c0-2.18-14.79-21.58-29.58-21.58-17.22,0-22.31,13.58-22.31,19.16v3.49h51.9Z"/>
        <path class="cls-4" d="m329.61,161.96c-4.71-1-9.3-1.58-13.63-1.58-2.8,0-3.39,1.34-3.51,4.87h15.7l1.44-3.28Z"/>
        <path class="cls-4" d="m491.55,287.22c7.72,0,9.71-2.68,8.25-3.1-30.8-8.88-98.46-106.61-165.58-121.07-.39.71-.78,1.45-1.12,2.19l-1.66,4.45c-.06.16-5.86,15.91-5.86,31.1,0,10.43,2.71,17.17,5.58,24.3,3.18,7.9,6.78,16.85,6.78,31.47,0,36.34-19.07,50.04-43.2,67.38-2.69,1.93-5.44,3.93-5.44,6.01,0,0,18.19,4.45,29.58,4.45,5.82,0,9.7-1.94,9.7-3.88,0-3.15-11.4-21.83-8.73-21.83s10.18,20.61,14.31,20.61c2.67,0,5.46-1.94,5.46-5.46,0-5.21-10.79-25.34-8.61-25.34s13.58,29.1,19.16,29.1c3.64,0,5.33-1.94,5.33-6.06,0-8.73-20.73-32.5-18.67-36.62,3.64-3.64,26.67,40.25,34.43,40.25,3.88,0,7.52-1.94,7.52-5.33,0-4.37-35.65-50.92-32.98-50.92s37.59,52.38,42.92,52.38c1.82-1.82-32.62-54.93-35.16-59.9,3.88,0,40.25,52.62,43.89,52.62,2.67,0,4.73-.97,4.73-4.73s-46.92-55.41-52.26-67.05c3.15,0,54.32,65.72,57.96,65.72,1.7,0,2.67-.73,2.67-3.15,0-4.12-66.2-77.36-64.26-79.3,5.82,1.94,66.2,78.33,71.54,78.33,2.67,0,3.64-1.21,3.64-3.64,0-4.12-34.67-44.07-37.1-48.99,3.39,0,45.59,53.59,49.71,53.59,1.94,0,3.15,0,3.15-3.15,0-5.82-74.93-78.33-77.36-85.36,3.88,0,79.54,83.66,85.12,83.66,1.83,0,2.67-.97,2.67-2.42,0-2.91-89.48-89.48-92.88-95.3,5.09,0,92.63,93.61,98.7,93.61,2.18,0,4.49-1.94,4.49-4.49,0-4.49-77.36-80.27-101.97-99.55,23.28,7.27,98.75,96.52,107.19,96.52,1.4,0,2.91-.97,2.91-4.85,0-8.49-70.92-73.36-76.87-80.03,9.46,2.42,80.03,80.27,89,82.21,2.78.6,5.62,1.55,13.34,1.55Z"/>
        <path class="cls-4" d="m176.14,225.09c1.07-2.65,2.11-5.25,3-8-5.11-5.39-12.06-12.7-17.96-18.9-2.57-.26-5.24-.47-7.2-.47-6.47,0-17.46,12.77-17.46,17.46s-6.95,6.15-6.95,12.61c0,2.27,1.29,2.91,4.53,2.91,3.4,0,9.38,9.54,15.36,9.54,3.23,0,7.44,8.08,17.3,8.08,1.04,0,2.06-.09,3.05-.25,1.06-9.83,3.82-16.74,6.34-22.98Z"/>
        <path class="cls-4" d="m138.31,249.78c-1.05-1.05,2.1-3.88,2.1-8.08,0-1.68-.59-3-1.43-4.04-2.63-1.77-5.72-3.07-8.76-3.07-6.31,0-9.38,4.53-9.38,7.76,0,3.78,2.33,7.43,6.22,9.68,1.54,0,1.38-3.86,2.51-3.86.67,0,.69,2.73,1.02,5.36,1.66.5,3.48.78,5.44.78,6.14,0,10.02-2.27,10.02-7.92,0-.91-.6-2.18-1.6-3.56-1.96,0-3.58,8.01-6.16,6.95Z"/>
        <path class="cls-4" d="m212.56,323.95c-24.14-17.34-43.2-31.04-43.2-67.38,0-1.79.06-3.49.16-5.12-.9.11-1.82.17-2.76.17-7.45,0-12.14-3.85-15.25-6.4-.8-.66-1.88-1.55-2.31-1.71-.2,0-.39-.05-.58-.07.47,1.05.75,2.05.75,2.94,0,3.38-1.3,11.22-13.32,11.22s-18.5-7.76-18.5-15.27c0-4.65,3.7-9.61,9.85-10.79-.74-.96-1.12-2.21-1.12-3.75,0-4.84,2.79-7.6,4.82-9.62,1.48-1.47,2.13-2.19,2.13-2.99,0-6.35,12.06-20.76,20.76-20.76,1.1,0,2.4.06,3.77.16-4.45-4.67-7.74-8.13-8.16-8.55-.52-.52-.97-1.14-1.36-1.86-.44-.06-.87-.11-1.28-.11-28.13,0-113.49,92.15-113.49,98.46,0,3.39.97,3.52,3.52,3.52,6.18,0,72.14-78.45,104.64-95.42-36.38,33.71-98.46,93.12-98.46,98.46,0,2.43,2.91,3.64,5.82,3.64,4.85,0,67.78-69.72,69.11-68.38,1.33,1.33-61.35,67.66-61.35,71.29,0,5.82,5.34,6.55,8,6.55,5.09,0,47.04-53.59,48.26-52.38,2.18,2.18-34.68,45.83-34.68,48.5s1.94,3.64,3.64,3.64c4.37,0,28.37-38.56,31.04-38.56,0,3.64-24.25,32.98-24.25,39.77,0,1.7,1.21,2.42,3.15,2.42,4.12,0,28.98-40.13,30.8-38.31,1.82,1.82-23.28,33.46-23.28,38.07,0,3.39,2.67,4.61,3.88,4.61,3.64,0,33.1-44.98,34.92-43.17-11.64,17.95-28.13,49.47-26.68,50.92,2.91,2.91,41.23-53.11,42.2-52.14.97.97-33.22,48.5-33.22,52.87s5.09,5.33,7.52,5.33c4.61,0,33.34-43.53,35.16-41.71,1.82,1.82-19.16,32.5-19.16,38.32,0,3.88,2.18,5.33,4.37,5.33,7.52,0,18.43-30.8,20.61-30.8s-9.21,23.28-9.21,27.89c0,3.39,2.67,4.85,4.85,4.85,3.64,0,13.58-21.83,15.52-21.83s-8.73,18.92-8.73,22.07c0,4.36,7.52,5.58,16.25,5.58,11.4,0,27.89-2.42,27.89-6.06,0-.32.03-.74.08-1.2-1.04-.75-2.08-1.5-3.09-2.23Z"/>
      </g>
      <g>
        <path class="cls-2" d="m287.82,263.91c.85,1.33,1.55,2.78,2.06,4.33.62,1.91.92,3.87.92,5.8,0,4.8-1.93,9.36-5.25,12.83,4.36,3.12,8.95,6.41,8.95,6.41l-10.89-.07c.12.78.2,1.55.2,2.33,0,5.89-2.76,11.64-7.77,15.28-5.67,4.12-13,4.59-19.08,1.72-1.62,5.09-3.31,10.42-3.31,10.42l-3.31-10.42c-6.08,2.88-13.41,2.41-19.08-1.71-5-3.63-7.77-9.39-7.77-15.28,0-.78.08-1.56.2-2.33-5.33.03-10.89.07-10.89.07l8.95-6.42c-3.32-3.47-5.25-8.03-5.25-12.83,0-1.93.3-3.88.92-5.8.51-1.55,1.21-3,2.06-4.33h-46.52c3.57,44.41,40.14,48.87,80.69,89.42,40.54-40.54,77.12-45.01,80.69-89.42h-46.52Z"/>
        <path class="cls-3" d="m324.78,217.35h-142.25c-3.61,11.59-9.87,20.07-9.87,39.22,0,1.59.04,3.13.11,4.62h48.85c2.72-2.88,6.29-4.87,10.21-5.62-1.68-5.04-3.42-10.31-3.42-10.31l8.79,6.48c3.23-5.9,9.44-9.82,16.45-9.82s13.22,3.92,16.45,9.82l8.79-6.47-3.42,10.31c3.92.75,7.5,2.74,10.22,5.62h48.85c.07-1.5.11-3.04.11-4.62,0-19.15-6.26-27.63-9.87-39.22Z"/>
        <path class="cls-3" d="m183.31,214.63h140.7c-1.04-4-1.72-8.44-1.72-13.84,0-16,6.06-32.25,6.06-32.25h-149.38s6.06,16.25,6.06,32.25c0,5.4-.68,9.84-1.72,13.84Z"/>
        <path class="cls-3" d="m270.46,261.48l-3.66.44-.71-3.62c-1.17-5.91-6.4-10.2-12.43-10.2s-11.26,4.29-12.43,10.2l-.71,3.62-3.67-.44c-5.98-.72-11.68,2.92-13.54,8.67-1.86,5.73.6,12.03,5.86,14.97l3.22,1.8-1.55,3.35c-2.53,5.47-.83,12.01,4.06,15.56,4.88,3.55,11.63,3.15,16.05-.95l2.7-2.51,2.71,2.51c4.42,4.1,11.17,4.49,16.05.95,4.88-3.55,6.59-10.09,4.06-15.56l-1.55-3.35,3.22-1.8c5.26-2.94,7.73-9.23,5.86-14.97-1.86-5.74-7.56-9.38-13.54-8.67Zm-6.48,22.89c.08.37.13.76.13,1.15,0,.34-.03.68-.08,1.02-.27,1.7-1.19,3.19-2.58,4.21-2.08,1.51-4.69,1.47-6.79.28l-1.01,3.19-1.01-3.19c-2.1,1.19-4.71,1.24-6.79-.28-1.73-1.26-2.65-3.22-2.65-5.22,0-.39.05-.77.13-1.15l-3.18.02,2.63-1.89c-1.28-1.2-2.07-2.84-2.07-4.62,0-.66.1-1.33.32-1.99.79-2.43,2.91-4.03,5.29-4.34l-1.01-3.05,2.63,1.94c1.01-2.19,3.15-3.73,5.71-3.73s4.7,1.54,5.72,3.72l2.63-1.94-1.01,3.05c2.38.31,4.5,1.9,5.29,4.34.21.66.32,1.33.32,2,0,1-.24,2-.71,2.92-.34.67-.82,1.21-1.36,1.69l2.63,1.89-3.18-.02Z"/>
        <path class="cls-3" d="m287.79,268.92c-2.5-7.69-10.07-12.31-17.8-11.39-1.51-7.65-8.25-13.41-16.33-13.41s-14.82,5.77-16.33,13.41c-7.74-.93-15.3,3.69-17.8,11.39-2.5,7.69.9,15.88,7.71,19.68-3.27,7.07-1.22,15.69,5.33,20.45,6.54,4.76,15.38,4.05,21.1-1.25,5.71,5.3,14.55,6,21.09,1.25,6.54-4.75,8.6-13.38,5.33-20.45,6.81-3.8,10.21-11.98,7.71-19.68Zm-8.99,17.39s-1.43.79-2.12,1.18c.33.72,1.02,2.2,1.02,2.2.87,1.88,1.29,3.88,1.29,5.86,0,4.38-2.06,8.67-5.78,11.37-5.4,3.93-12.88,3.49-17.77-1.05,0,0-1.2-1.11-1.78-1.65-.58.54-1.78,1.65-1.78,1.65-4.89,4.54-12.37,4.98-17.77,1.05-3.73-2.71-5.78-6.99-5.78-11.37,0-1.98.42-3.98,1.29-5.86,0,0,.69-1.48,1.02-2.2-.69-.39-2.12-1.19-2.12-1.19-4.52-2.53-7.18-7.29-7.18-12.27,0-1.44.22-2.89.68-4.32,2.06-6.35,8.37-10.39,15-9.59,0,0,1.62.2,2.41.29.15-.78.47-2.38.47-2.38,1.29-6.55,7.08-11.3,13.76-11.3s12.47,4.75,13.76,11.3c0,0,.32,1.6.47,2.38.79-.09,2.41-.29,2.41-.29,6.62-.79,12.93,3.24,15,9.59.46,1.42.68,2.88.68,4.32,0,4.97-2.66,9.74-7.18,12.26Z"/>
        <path class="cls-3" d="m264.19,276.58c-.72-2.23-3.12-3.45-5.35-2.72-.43.14-.81.36-1.16.61.13-.41.22-.84.22-1.3,0-2.34-1.9-4.24-4.24-4.24s-4.24,1.9-4.24,4.24c0,.46.09.89.22,1.3-.35-.25-.73-.47-1.17-.62-2.23-.72-4.62.5-5.35,2.72-.72,2.23.5,4.63,2.73,5.35.43.14.87.19,1.31.19-.35.26-.68.55-.95.92-1.38,1.9-.96,4.55.94,5.93,1.9,1.38,4.55.96,5.93-.94.27-.37.45-.77.58-1.18.13.41.31.81.58,1.18,1.38,1.89,4.03,2.32,5.93.94,1.9-1.37,2.32-4.03.94-5.93-.27-.37-.59-.66-.94-.92.43,0,.87-.04,1.3-.19,2.23-.72,3.45-3.12,2.72-5.35Zm-10.53,6.03c-1.44,0-2.61-1.17-2.61-2.61s1.17-2.61,2.61-2.61,2.61,1.17,2.61,2.61-1.17,2.61-2.61,2.61Z"/>
      </g>
      <g>
        <path class="cls-1" d="m191.55,183.19h8.48c2.1,0,3.84.12,5.22.35,1.38.23,2.54.6,3.49,1.11,1.65.87,2.91,2.12,3.77,3.76.86,1.64,1.29,3.59,1.29,5.87s-.43,4.21-1.29,5.83c-.86,1.63-2.12,2.88-3.77,3.76-.97.51-2.14.87-3.51,1.11-1.37.23-3.1.35-5.19.35h-8.48v-22.13Zm6.21,4.55v13h2.18c2.33,0,4.1-.55,5.31-1.65,1.21-1.1,1.82-2.72,1.82-4.85s-.61-3.75-1.82-4.85c-1.21-1.1-2.98-1.65-5.31-1.65h-2.18Z"/>
        <path class="cls-1" d="m217.41,199.41h5.76v5.91h-5.76v-5.91Z"/>
        <path class="cls-1" d="m227.68,183.19h9c1.74,0,3.12.05,4.16.14,1.04.1,1.93.26,2.69.48,1.24.35,2.21.99,2.92,1.92.7.92,1.05,2.03,1.05,3.33,0,1.42-.37,2.6-1.11,3.52-.74.92-1.73,1.43-2.97,1.55v.15c1.32.23,2.24.68,2.74,1.33.5.66.76,1.97.76,3.94v1.71c0,1.14.09,2.01.27,2.61.18.6.48,1.08.9,1.45h-6.78c-.19-.28-.32-.64-.4-1.08-.08-.43-.12-1.12-.12-2.06v-1.09c0-.55,0-.96-.02-1.25-.01-.29-.03-.56-.04-.83-.06-.89-.33-1.52-.8-1.89-.47-.37-1.25-.56-2.35-.56h-3.86v8.76h-6.06v-22.13Zm6.06,4.49v4.46h4.2c1.13,0,1.99-.19,2.58-.57.59-.38.89-.94.89-1.66s-.3-1.27-.89-1.65c-.59-.38-1.45-.57-2.58-.57h-4.2Z"/>
        <path class="cls-1" d="m251.68,199.41h5.76v5.91h-5.76v-5.91Z"/>
        <path class="cls-1" d="m261.95,183.19h16.4v4.55h-10.28v3.85h8.85v4.55h-8.85v9.18h-6.12v-22.13Z"/>
        <path class="cls-1" d="m274.58,199.41h5.76v5.91h-5.76v-5.91Z"/>
        <path class="cls-1" d="m306.65,190.31h-6.7c-.29-1.08-.77-1.88-1.43-2.4-.66-.52-1.52-.78-2.56-.78-1.62,0-2.92.64-3.89,1.93-.97,1.29-1.46,3.01-1.46,5.18s.51,3.86,1.53,5.16c1.02,1.3,2.36,1.95,4.01,1.95,1.14,0,2.09-.33,2.84-.99.75-.66,1.19-1.54,1.33-2.65h6.67c-.48,2.55-1.72,4.57-3.73,6.05-2.01,1.48-4.5,2.22-7.47,2.22-1.71,0-3.26-.25-4.66-.76-1.4-.5-2.67-1.27-3.8-2.29-1.17-1.05-2.04-2.29-2.61-3.71-.57-1.42-.86-3.07-.86-4.95,0-3.62,1.11-6.48,3.33-8.59,2.22-2.1,5.23-3.16,9.01-3.16,2.81,0,5.13.68,6.96,2.05,1.83,1.37,3,3.28,3.49,5.74Z"/>
        <path class="cls-1" d="m310.21,199.41h5.76v5.91h-5.76v-5.91Z"/>
      </g>
    </g>
  </g>
</svg>