<?xml version="1.0" encoding="UTF-8"?>
<svg id="Layer_2" data-name="Layer 2" xmlns="http://www.w3.org/2000/svg" xmlns:xlink="http://www.w3.org/1999/xlink" viewBox="0 0 425.76 426.72">
  <defs>
    <style>
      .cls-1 {
        clip-path: url(#clippath);
      }

      .cls-2 {
        fill: none;
      }

      .cls-2, .cls-3, .cls-4, .cls-5, .cls-6 {
        stroke-width: 0px;
      }

      .cls-3 {
        fill: #154c90;
      }

      .cls-3, .cls-4, .cls-5, .cls-6 {
        fill-rule: evenodd;
      }

      .cls-4 {
        fill: #1f357d;
      }

      .cls-5 {
        fill: #e31324;
      }

      .cls-6 {
        fill: #fff;
      }
    </style>
    <clipPath id="clippath">
      <rect class="cls-2" width="425.76" height="426.72"/>
    </clipPath>
  </defs>
  <g id="Layer_1-2" data-name="Layer 1">
    <g>
      <g class="cls-1">
        <path class="cls-3" d="m212.6.56c117.41,0,212.6,95.18,212.6,212.6,0,85.99-51.8,163.51-131.24,196.42-79.44,32.91-170.89,14.71-231.69-46.09C1.46,302.69-16.72,211.25,16.18,131.81,49.09,52.36,126.61.56,212.6.56h0Z"/>
        <path class="cls-6" d="m212.6,6.84c54.72,0,107.2,21.74,145.89,60.43,38.69,38.69,60.43,91.17,60.43,145.89,0,83.45-50.27,158.68-127.36,190.61-77.09,31.93-165.84,14.28-224.84-44.72C7.7,300.04-9.95,211.3,21.98,134.21,53.92,57.11,129.15,6.84,212.6,6.84h0Z"/>
        <path class="cls-5" d="m212.6,13.13c110.48,0,200.04,89.56,200.04,200.03,0,80.91-48.73,153.85-123.48,184.81-74.75,30.96-160.79,13.85-218-43.36C13.94,297.4-3.17,211.36,27.79,136.61,58.75,61.86,131.69,13.13,212.6,13.13h0Z"/>
      </g>
      <path class="cls-6" d="m212.6,57.09c86.33,0,156.31,69.98,156.31,156.31,0,63.22-38.08,120.22-96.49,144.41-58.41,24.2-125.64,10.82-170.34-33.88-44.7-44.7-58.08-111.93-33.88-170.34,24.19-58.41,81.19-96.49,144.41-96.49h0Z"/>
      <path class="cls-3" d="m212.6,63.62c39.73,0,77.82,15.78,105.92,43.87,28.09,28.09,43.87,66.19,43.87,105.91,0,60.58-36.5,115.2-92.47,138.39-55.97,23.18-120.4,10.37-163.23-32.47-42.84-42.84-55.65-107.26-32.47-163.23,23.18-55.97,77.8-92.46,138.38-92.46h0Z"/>
      <path class="cls-4" d="m244.24,79.85c58.11,13.72,101.97,64.4,105.36,125.86l10.05-20.85c.88,4.54,1.55,9.15,2.01,13.82l-19.09,39.74c-2.96,21.39-15.04,44.18-29.43,61.24l-10.73,22.34-2.64-8.44h-.36c-4.88,4.13-9.77,7.45-14.46,9.7-1.41.93.62,6.38-.85,7.28-20.82,12.74-45.31,20.08-71.5,20.08-75.77,0-137.22-61.45-137.22-137.22,0-45.28,21.95-85.45,55.78-110.44v-15.27c2.53-1.64,5.11-3.21,7.74-4.7v23.83c4.7-3,9.6-6.21,14.67-8.63v-14.93h82.95v-13.34h-67.04c13.66-4.1,28.14-6.32,43.13-6.32,10.85,0,21.44,1.16,31.64,3.36v12.88Zm-13.97,128.87l-43.59,103.89,14.39.07,38.18-86.8,10.76,10.71,10.64,19.12,15.3,37.23,10.56-9.64-18.18-44.07-32.32-30.4-5.75-.13Zm-11.77-20.76v-14.49h-64.95v-41.26c-5.32,4.08-10.89,9.17-14.67,14.21v134.77c4.44,4.95,9.35,9.45,14.67,13.43v-106.66h64.95Zm-30.63,132.82h-11.73v-6.24c-5.15-1.9-10.11-4.19-14.84-6.84v27.51l51.31-.04c31.48,0,60.18-11.23,81.79-30.84v-17.39c-18.96,18.92-37.4,28.8-59.02,32.73-9.45,1.71-18.6,2.19-27.8,1.98-6.5-.16-13.02-.86-19.7-.86h0Zm-11.73-14.63v-110.45h-14.84v103.7c4.31,2.76,9.14,5.07,14.84,6.75h0Zm0-201.94h30.67c10.13,0,21.51.45,31.55,2.78,22.83,5.29,42,17.34,56.02,36.25v-22.14c-26.23-23.6-57.69-28.83-79.04-30.08h-54.05v27.26c4.74-2.73,9.7-5.11,14.84-7.07v-6.99Zm0,61.53v-46.57c-5.31,1.87-10.14,4.46-14.84,7.43v39.14h14.84Zm-70.81,25.55l25.83,56.16v-38.38l-8.62-17.78h-17.21Zm25.83,71.6l-1.16.55-16.03-34.85c2.39,15.7,8.41,30.31,17.19,42.87v-8.56Zm-24.84-50.96l-9.5-20.64h-3.97c-1.32,7.17-2.01,14.56-2.01,22.12,0,45.81,25.32,85.72,62.72,106.5v-16.98c-28.57-19.39-47.26-52.48-47.26-89.52,0-.49,0-.98.01-1.47h0Zm-11.78-28.38h15.96c3.23-11.29,8.23-21.91,14.68-31.47,4.91-7.28,10.32-13.59,16.75-19.54,3.66-3.38,7.55-6.52,11.64-9.37v-16.28c-4.48,2.5-8.8,5.27-12.91,8.29-4.04,2.96-10.37,8.42-13.54,11.54-15.59,15.38-27.05,34.92-32.57,56.83h0Zm207.6-54.78v26.51c10.62,16.98,16.05,37,16.05,58.12s-5.43,40.94-16.05,57.69v24.83c20.01-21.7,32-50.68,32-82.51s-11.99-62.68-32-84.63h0Z"/>
      <path class="cls-6" d="m293.89,197.72c-20.26-23.5-22.14-19.1-34.57-28.02-5.38-3.86-10.51-9.98-16.08-13.76-3.17-2.15-7.05-3.81-10.51-3.3-7.09,1.05-9.12,4.5-14.01,6.75-4.9,2.25-9.2,2.49-15.27,1.65-2.72-.37-7.58-2.27-11.93-6.46-5.73-5.53-8.05-14.86-11.41-17.44-5.18-3.99-5.09-7.98-4.13-11.28,1.15-3.98,4.54-7.09,7.65-7.65.37,0,.26-.38-.02-.93-.94-1.91-2.27-4.35.51-5.76,1.18-.6,3.77.04,7.14.94,1.52.41,3.4.93,4.8.97.84.02,1.73-.09,2.53.03,1.65.26,3.23,1.48,5.25,2.73.31-1.53-.38-5.39-1.1-7.12-.37-.89-2.07-2.48-3.6-3.99-1.35-1.33-2.56-2.59-3.59-3.49-3.97-3.46-4.77-3.35-7.73-5.93-.76-.66-1.54-1.61-.68-2.46.94-.93,3.75-2.11,6.39-1.01,2.05.86,3.37,2.12,5.56,3.12,3.91,1.79,8.49,3.73,12.43,5.5,3.98,1.79,8.36,3.98,11.76,6.42,1.02-2.08-2.36-11.56-8.7-18.76-1.58-1.79-3.83-3.23-5.61-3.91-2.03-.77-3.72-.66-5.17-1.39-2.23-1.14-2.78-4.77-1.58-4.86,1.44-.1,3.02.04,4.32.13,1.05.08,3.26.43,4.96.61,6.05.65,9.76,1.59,13.42,3.11,13.28,5.53,15.92,15.31,17.96,13.96.54-.35-.1-6.11-2.81-11.34-.69-1.33-1.25-2.16-2.22-3.32-1.18-1.41-.92-2.89.36-2.85,2.76.09,5.85,1.61,8.34,3.64,4.91,3.98,8.31,8.42,13.09,16.77,9.39,16.37,12.85,31.93,22.96,46.05,1.91,2.68,4.65,4.97,6.67,7.05,7.56,7.77,10.56,15.2-6.74,23.03,7.98,5.73,27.23,21.61,19.62,33.59-3.91-3.12-8.65-5.63-13.71-7.25-6.88-2.19-14.26-2.32-21.41-1.57-1.14.12-.35.96.57,1.1,1.09.17,2.9.46,5.25.59,2.2.12,4.91.07,6.96.89,5.55,2.21,9.33,7.65,9.1,11.98-.34,6.53-4.85,14.36-8.65,22.41-1.98,4.19-3.19,11.29-3.57,17.63-.23,3.76.1,7.04-.18,10.1-.43,4.53-3.56,8.73-8.5,9.93-4.53,1.1-14.78-.32-18.29-1.8-6.88-2.89-12.79-11.57-16.27-20.54-1.41-3.64-2.02-7.52-.39-12.44,2.01-6.06,4.71-13.84,3.77-18.07-.64-2.85-3.18-6.29-4.89-8.61-4.01-5.45-7.56-9.67-11.45-14.41-1.77-2.16-3.87-4.34-4.78-6.68-2.66-6.85-1.88-13.57.64-18.71,1.77-3.62,4.52-6.39,7.08-8.16,6.31-4.37,12.71-4.94,19.91-2.43,8.06,2.81,14.25,9.5,15.78,18.77.71,4.3-.79,8.18,2.65,11.68,13.38-1.65,23.82-.29,32.1,4.6h0Zm-56.64-29.32c4.7,0,8.52,3.81,8.52,8.52s-3.82,8.52-8.52,8.52-8.52-3.82-8.52-8.52,3.81-8.52,8.52-8.52h0Z"/>
      <path class="cls-6" d="m176.62,179.57c.87-.47.38.66-.39,1.28-11.53,9.46-21.39,22.81-28.21,36.82-5.4,11.1-9.43,22.7-12.25,33.34-8.59,32.44-8.18,56.33-10.01,75.34-.38,3.87-1.21,9.14-2.85,11.71l-12.38-10.3c1.33-14.86,2.95-36.79,6-52.33,2.87-14.6,6.62-28.05,11.43-39.4,5.08-11.99,11.22-21.75,17.86-30.21,8.53-10.88,16.84-18.8,30.81-26.26h0Z"/>
      <path class="cls-6" d="m249.42,280.57c6.43,9.61,13.07,18.94,18.7,28.32,7.41,12.36,14.88,26.73,19.27,36.55l12.25-6.26c-3.89-8.42-7.9-15.34-12.67-22.16-7.57-10.82-14.76-19.04-22.55-26.05-4.83-4.35-10.02-7.83-14.51-10.77-.68-.44-1.37-.94-.49.38h0Z"/>
      <path class="cls-6" d="m230.65,51.2l-8.09-.1-10.87-14.19-.17,14.05-5.87-.07.37-30.12,5.88.07-.16,12.48,11.11-12.35,7.79.09-13.06,13.86,13.06,16.27Z"/>
      <path class="cls-6" d="m271.8,61.18l-4.14-1.2-11.83-24.34-5.59,19.3-5.53-1.61,8.29-28.59,4.14,1.2,11.99,23.81,5.44-18.76,5.53,1.6-8.29,28.6Z"/>
      <path class="cls-6" d="m191.49,31.4c-.54-2.94-3.05-3.94-6.02-3.53l-2.03.28,1.18,8.71,2.03-.27c3.08-.42,5.39-2.24,4.85-5.18h0Zm11.23,19.39l-7.22.97-10.47-11.81,1.76,12.99-5.82.78-3.99-29.5,8.05-1.09c3.35-.45,6.55-.18,8.75,1.18,1.94,1.2,3.43,3.76,3.61,6.37.26,3.59-.89,6.77-5.25,8.93l10.59,11.18Z"/>
      <path class="cls-6" d="m152.1,29.79c8.48-2.85,17.55,1.38,20.43,9.95,2.88,8.57-1.81,17.42-10.29,20.26-8.48,2.85-17.55-1.38-20.43-9.95-2.88-8.57,1.81-17.42,10.29-20.26h0Zm1.78,5.31c-5.66,1.9-7.92,7.58-6.12,12.95,1.8,5.38,7.04,8.54,12.7,6.64,5.66-1.9,7.92-7.58,6.12-12.95-1.8-5.38-7.03-8.54-12.69-6.64h0Z"/>
      <path class="cls-6" d="m123.73,77.59l-14.84-26.43,7.38-4.2c3.16-1.8,6.79-2.95,10.04-2.69,4.74.38,9.12,3.22,11.75,7.91,2.56,4.56,2.66,9.55.67,13.73-1.45,3.05-4.47,5.88-7.78,7.7l-7.23,3.98Zm-7.12-24.69l9.53,16.97,1.87-1.04c1.96-1.08,3.41-2.28,4.54-3.84,2.12-2.93,1.75-6.49.02-9.58-1.34-2.39-3.46-4.3-5.82-4.95-2.52-.68-5.56-.09-8.25,1.4l-1.87,1.03Z"/>
      <path class="cls-6" d="m303.12,42.34c4.92,2.75,7.78,7.42,8.16,12.46h-6.04c-.11-3.02-.83-5.38-5.04-7.72-4.21-2.35-10.33-.46-13.07,4.46-2.74,4.92-2.17,10.54,3.07,13.47,4.06,2.26,7.7,1.89,10.69-.98l-6.88-3.84,2.66-4.77,12.27,6.85c-4.75,9.33-13.12,12.25-21.45,7.6-7.86-4.38-10.25-13.56-5.88-21.4,4.38-7.84,13.66-10.5,21.51-6.12h0Z"/>
      <path class="cls-6" d="m153.79,396.62l-3.86-1.53-8.86-24.4-7.18,18-5.16-2.05,10.64-26.68,3.86,1.54,9.06,23.9,6.98-17.51,5.16,2.06-10.64,26.68Z"/>
      <path class="cls-6" d="m229.13,384.39c-.34-2.86-2.68-3.97-5.55-3.78l-1.97.13.58,8.43,1.96-.14c2.98-.2,5.32-1.8,4.98-4.65h0Zm9.54,19.32l-6.99.47-9.29-12,.86,12.58-5.64.38-1.94-28.56,7.79-.53c3.24-.22,6.3.25,8.32,1.7,1.78,1.27,3.04,3.83,3.06,6.34.02,3.47-1.29,6.44-5.61,8.23l9.45,11.4Z"/>
      <path class="cls-6" d="m273.58,373.89c-1.07-2.67-3.63-3.13-6.36-2.18l-1.86.65,2.78,7.98,1.86-.65c2.82-.98,4.65-3.14,3.58-5.8h0Zm14.3,16.13l-6.62,2.3-12.13-9.14,4.14,11.91-5.34,1.86-9.4-27.06,7.38-2.56c3.07-1.07,6.14-1.42,8.47-.56,2.05.76,3.95,2.89,4.62,5.31.93,3.34.45,6.55-3.25,9.42l12.13,8.51Z"/>
      <path class="cls-6" d="m163.08,399.31l5.97-28.4,7.97,1.63c3.41.7,6.75,2.15,8.93,4.39,3.18,3.27,4.54,8.07,3.48,13.11-1.03,4.9-4.11,8.55-8.17,10.31-2.97,1.28-6.93,1.42-10.46.65l-7.72-1.69Zm10.43-22.28l-3.84,18.24,2,.43c2.09.45,3.89.5,5.69.09,3.38-.77,5.36-3.57,6.06-6.89.54-2.57.22-5.28-1.08-7.24-1.39-2.09-3.95-3.57-6.83-4.2l-2-.44Z"/>
      <path class="cls-6" d="m194.38,404.78l1.5-28.84,15.64.84-.25,4.72-10.05-.52-.36,6.86,10.05.52-.25,4.72-10.05-.52-.41,7.82,10.05.52-.25,4.72-15.64-.86Z"/>
      <path class="cls-6" d="m245.28,402.67l-5.93-28.25,15.34-3.19.97,4.62-9.84,2.07,1.41,6.72,9.85-2.07.97,4.63-9.84,2.07,1.61,7.67,9.84-2.06.97,4.62-15.34,3.17Z"/>
      <path class="cls-6" d="m329.34,365.6l-4.42,3.45-17.77-22.76,12.18-9.46,2.91,3.73-7.74,6.04,4.08,5.23,7.17-5.59,2.91,3.73-7.17,5.59,7.85,10.06Z"/>
      <path class="cls-6" d="m330.93,324.37c1.79-1.84,3.9-3.15,6.16-3.93l4.94,4.8c-2.57-.2-5.19.69-7.27,2.84-3.93,4.05-3.34,9.82.54,13.59,3.88,3.76,9.66,4.17,13.59.12,2.09-2.15,2.9-4.79,2.62-7.35l4.94,4.8c-.7,2.28-1.95,4.43-3.73,6.27-5.89,6.07-15.38,6.41-21.56.41-6.18-6-6.12-15.49-.23-21.56h0Z"/>
      <path class="cls-6" d="m305.94,372.59c2.25,5.22-.72,9.94-4.75,12-3.68,1.88-7.8,2.07-11.51.09l1.5-4.74c2.49,1.16,4.98,1.34,7.1.27,1.88-.95,3.12-2.93,2-5.3-.39-.83-1.25-1.78-2.64-1.98-1.14-.16-3,.4-5.52.52-3.17.15-6.87-.21-8.89-4.21-1.1-2.18-1.16-4.57-.24-6.66.93-2.11,2.22-3.66,4.92-5.02,2.78-1.41,5.84-1.73,8.69-.74l-.54,4.92c-3.47-1.04-4.84-.33-6.11.32-1.41.71-2.43,2.48-1.66,3.99,1.21,2.4,5.6,1.13,7.88,1.11,3.41-.02,7.49.1,9.79,5.44h0Z"/>
      <path class="cls-6" d="m116.05,347.01l-27.45,13.56-3.17-2.97,7.68-17.4-17.06,8.61-3.17-2.97,12.27-27.77,4.65,4.36-8.68,18.3,18.32-9.26,2.3,2.15-8.73,18.91,18.36-9.89,4.67,4.38Z"/>
      <path class="cls-6" d="m119.56,369.31l2.12-10.85-8.96,6.57,6.84,4.29Zm3.47,14.5l-5.55-3.48,1.24-6.14-9.9-6.21-5.1,3.73-5.35-3.35,25.61-17.53,3.67,2.3-4.61,30.68Z"/>
    </g>
  </g>
</svg>