<?xml version="1.0" encoding="UTF-8"?>
<svg id="Layer_2" data-name="Layer 2" xmlns="http://www.w3.org/2000/svg" xmlns:xlink="http://www.w3.org/1999/xlink" viewBox="0 0 33.56 19.57">
  <defs>
    <style>
      .cls-1 {
        clip-path: url(#clippath);
      }

      .cls-2 {
        fill: none;
      }

      .cls-2, .cls-3, .cls-4, .cls-5 {
        stroke-width: 0px;
      }

      .cls-6 {
        clip-path: url(#clippath-1);
      }

      .cls-7 {
        clip-path: url(#clippath-3);
      }

      .cls-8 {
        clip-path: url(#clippath-2);
      }

      .cls-3 {
        fill: #4279fc;
      }

      .cls-4 {
        fill: #bc002c;
      }

      .cls-5 {
        fill: #efd630;
      }
    </style>
    <clipPath id="clippath">
      <rect class="cls-2" width="33.56" height="19.57"/>
    </clipPath>
    <clipPath id="clippath-1">
      <rect class="cls-2" width="33.56" height="19.57"/>
    </clipPath>
    <clipPath id="clippath-2">
      <rect class="cls-2" width="33.56" height="19.57"/>
    </clipPath>
    <clipPath id="clippath-3">
      <rect class="cls-2" width="33.56" height="19.57"/>
    </clipPath>
  </defs>
  <g id="Layer_1-2" data-name="Layer 1">
    <g id="CONGO_DEMOCRATIC_REPUBLIC" data-name="CONGO DEMOCRATIC REPUBLIC">
      <g>
        <g class="cls-1">
          <rect class="cls-3" width="33.56" height="19.57"/>
        </g>
        <g class="cls-6">
          <polygon class="cls-5" points="31.47 0 0 14.68 0 19.57 0 19.57 2.1 19.57 33.56 4.89 33.56 0 31.47 0"/>
        </g>
        <g class="cls-8">
          <polygon class="cls-4" points="33.56 0 0 15.66 0 19.57 0 19.57 0 19.57 33.56 3.91 33.56 0"/>
        </g>
        <g class="cls-7">
          <polygon class="cls-5" points="6.01 1.34 6.85 3.9 9.54 3.9 7.36 5.48 8.19 8.04 6.01 6.46 3.83 8.04 4.67 5.48 2.49 3.9 5.18 3.9 6.01 1.34"/>
        </g>
      </g>
    </g>
  </g>
</svg>