<?xml version="1.0" encoding="UTF-8"?>
<svg id="Layer_2" data-name="Layer 2" xmlns="http://www.w3.org/2000/svg" viewBox="0 0 566.93 564.65">
  <defs>
    <style>
      .cls-1, .cls-2 {
        fill-rule: evenodd;
      }

      .cls-1, .cls-2, .cls-3 {
        stroke-width: 0px;
      }

      .cls-1, .cls-3 {
        fill: #3c3b90;
      }

      .cls-2 {
        fill: #df94b6;
      }
    </style>
  </defs>
  <g id="Layer_1-2" data-name="Layer 1">
    <g>
      <path class="cls-1" d="m.94,273.33c7.69-7.48,15.44-15.34,23.53-25.49.54-.67.38-.74.15-1.58-5.98-21.72-7.69-41.51-5.97-59.27,2.51-26.04,14.53-48.17,31.23-66.37,13.48,5,26.95,6.83,37.31,1.43.51-12.7-.87-25.17-8.69-37.4,15.51-13.79,32.49-21.62,61.37-21.14,23.1-28.47,48.44-50.24,76.67-52.38,13.3-1.01,27.31,2.57,42.66,12.85L285.93.8c1.39-1.21,3.16-.89,3.95-.09,7.72,7.85,16.16,16.71,24.75,22.84.82.58.76.61,1.68.22,17.74-7.64,33.93-10.22,49.1-7.68,27.06,4.53,51.01,23.51,71.8,51.43,25.7,2.18,43.71,12.12,56.92,29.59-3.33,11.4-6.6,22.95-7.38,33.9,11.42,3.58,24.51,5.8,33.42,2.67,13.78,19.85,24.14,40.12,27.06,62.76,2.13,16.52,1.5,32.22-6,52.93,8.09,7.64,16.18,15.43,24.27,23.82,2.17,2.25,1.65,3.98.09,5.71-5.89,6.49-18.07,18.93-22.75,24.52-.84,1-.84.94-.45,2.18,15.16,48.83,9.8,90.86-17.79,125.21-7.69-3.75-18.47-7.07-31.8-2.43-3.34,8.36.44,25.09,6.27,34.56-19.61,20.16-35.82,31.95-56.93,32-14.24,26.19-31.8,42.75-52.25,49.67-20.45,6.92-42.66,3.76-69.62-8.59-10.59,9.39-19.93,17.75-30.55,28.63-9.59-9.16-20.34-18.97-31.24-27.73-.64-.51-.57-.38-1.24.08-21.29,14.51-46.97,19.09-67.32,13.66-23.32-6.22-43.48-24.29-62.49-52.42-28.06-3.83-51.45-14.48-59.62-32.02,5.07-11.74,10.11-22.75,10.26-37.27-10.4-2.39-21.61-3.33-35.13-1.26-14.76-17.69-23.47-35.85-27.04-55.69-4.06-22.55-1.81-47.11,6.34-72.37-3.23-3.34-19.13-18.75-21.75-22.59-.85-1.24-.42-2.84.49-3.72h0Z"/>
      <path class="cls-2" d="m51.71,127.66c-14.79,17.05-24.82,37.06-27.03,59.91-1.85,19.18.69,38.58,5.78,57.09.74,2.71.57,4.67-1.26,6.96-6.86,8.61-14.24,16.42-22.05,24.1.62.67,1.25,1.33,1.77,1.89,2.13,2.27,4.31,4.49,6.5,6.7,3.69,3.72,7.49,7.37,11.13,11.13l2.52,2.61-1.11,3.46c-7.19,22.27-10.31,46.25-6.14,69.44,3.42,19,11.71,35.37,23.62,50.3,11.49-1.38,22.52-.81,33.94,1.81l4.75,1.09-.05,4.87c-.14,13.98-4.37,24.75-9.62,36.96,9.8,16.86,36.15,23.86,53.75,26.27l2.68.37,1.52,2.24c14.23,21.06,33.51,43.15,59.03,49.96,20.9,5.57,44.82-.86,62.35-12.82,2.87-1.96,5.65-2.04,8.44.2,9.43,7.58,18.49,15.68,27.32,23.98,8.62-8.55,17.56-16.62,26.66-24.7l2.95-2.62,3.59,1.64c20.39,9.34,43.13,15.82,65.16,8.36,22.33-7.56,37.96-26.77,48.87-46.83l1.71-3.15h3.59c4.17-.02,8.27-.55,12.29-1.65,14.19-3.87,26.78-14.91,37.21-25.38-4.97-10.43-8.33-26.03-4.45-35.74l1.02-2.57,2.61-.91c10.94-3.8,21.54-3.28,31.89.72,25.79-34.71,26.63-75.03,13.91-115.98-1.01-3.25-.59-5.25,1.59-7.86,3.81-4.56,8.11-8.97,12.2-13.29,3.18-3.36,6.39-6.7,9.52-10.11-7.43-7.65-15.1-15.04-22.85-22.36l-2.89-2.73,1.35-3.74c6.24-17.24,8.02-32.04,5.69-50.09-2.68-20.8-12.11-39.41-23.66-56.61-10.47,1.9-23.07-.82-32.62-3.81l-4.57-1.43.34-4.78c.78-10.85,3.7-21.7,6.74-32.18-13.06-15.94-29.92-23.09-50.75-24.85l-2.72-.23-1.63-2.19c-16.63-22.34-39.41-44.3-67.94-49.08-15.63-2.62-31.35,1.09-45.7,7.27-2.87,1.24-5.06.95-7.59-.85-8.46-6.04-16.02-13.79-23.34-21.26l-28.1,24.37-3.84-2.57c-11.7-7.84-24.56-12.92-38.84-11.84-29.42,2.23-54.94,28.61-72.42,50.15l-1.86,2.29-2.94-.05c-21.43-.35-37.52,3.64-53.49,16.44,5.95,11.38,7.48,23.23,6.96,36.29l-.14,3.5-3.11,1.62c-11.81,6.16-25.95,4.27-38.28.25h0Zm236.15-10.22c91.26,0,165.27,74.01,165.27,165.27s-74.01,165.27-165.27,165.27-165.27-74.01-165.27-165.27,74.01-165.27,165.27-165.27h0Zm0,6.05c87.92,0,159.21,71.3,159.21,159.21s-71.3,159.21-159.21,159.21-159.21-71.3-159.21-159.21,71.3-159.21,159.21-159.21h0Zm0-63.56c123.02,0,222.78,99.76,222.78,222.78s-99.76,222.78-222.78,222.78-222.78-99.76-222.78-222.78S164.84,59.93,287.86,59.93h0Zm0,6.05c119.67,0,216.73,97.05,216.73,216.73s-97.05,216.73-216.73,216.73-216.73-97.05-216.73-216.73,97.05-216.73,216.73-216.73h0Z"/>
      <path class="cls-1" d="m170.28,192.68c-6.59,5.1-13,12.73-15.52,24.06,13.37,7.18,19.2,18.21,19.2,30.08l-.03,62.66c0,16.65-10.1,30.62-26.52,35.62l16.49,22.09c10.88-5.21,21.09-6.98,30.8-6.62,14.68.55,23.95,5.75,35.25,12.58-2.51,12.9-8.85,34.21-23.43,32.28,21.61,17.18,45.8,23.76,70.42,23.89-12.51-13.93-16.58-28.62-15.27-48.12,7.76,2.18,16.7,3.99,26.22,4.2,9.51.21,20.15-2.55,28.33-6.27,1.75,20.54-2.16,35.77-15.11,50.19,24.62-.13,48.81-6.71,70.42-23.89-15.57,2.06-21.73-22.39-23.89-34.78,10.46-3.31,19.55-8.36,27.76-14.43,21.18-15.65,39.37-37.05,58.2-67.9-19.58-46.34-51.22-78.65-85.68-96.03,1.79-12.34,8.68-22.5,18.67-30.35-21.61-17.18-43.52-23.3-65.13-25.76,12.15,14.21,14.4,29.45,14.51,45.57-9.57-1.8-19.08-2.63-27.76-2.92-9.35-.31-17.96.8-26.02,2.7.13-16.04,2.41-31.2,14.51-45.35-21.61,2.47-43.52,8.58-65.13,25.76,10.13,7.97,17.08,18.31,18.74,30.9-1.82.74-3.63,1.44-5.43,2.11-9.63,3.56-19.56,5.85-28.28,5.77-9.23-.08-17.84-2.18-26.32-8.03h0Zm92.17,76.73c10.58-.87,18.79-5.41,26.43-13.07,6.98,6.28,14.4,10.88,26.64,11.09v-58.11c-8.66-2.44-17.91-3.77-27.52-3.77-8.88,0-17.46,1.13-25.55,3.23v60.63h0Zm53.07,23.53c-8.44,1.31-16.06,3.56-26.96,12.37-7.65-6.41-18.49-10.65-26.11-12.96v61.5c8.09,2.1,16.66,3.23,25.55,3.23,9.61,0,18.86-1.33,27.52-3.77v-60.38h0Zm31.68-67.79v112.34c17.82-13.87,29.02-33.9,29.02-56.17s-11.2-42.3-29.02-56.17h0Zm-116.44,113.83v-115.31c-18.96,13.9-30.99,34.57-30.99,57.66s12.03,43.76,30.99,57.66h0Z"/>
      <polygon class="cls-3" points="109.69 386.45 112.94 391.43 124.47 383.91 133.78 398.2 138.32 395.24 129 380.96 136.73 375.92 147.24 392.03 151.77 389.07 138.02 367.99 109.69 386.45 109.69 386.45"/>
      <path class="cls-3" d="m140.78,427.75c1.43,1.52,2.97,2.73,4.64,3.65,1.67.92,3.39,1.54,5.18,1.87,1.78.33,3.56.38,5.34.15,1.77-.23,3.5-.74,5.14-1.51,1.65-.78,3.18-1.82,4.58-3.12l.07-.07c1.4-1.31,2.54-2.75,3.43-4.34.89-1.58,1.51-3.25,1.87-4.99.35-1.75.42-3.51.22-5.3-.21-1.79-.7-3.54-1.5-5.26-.79-1.71-1.9-3.34-3.32-4.87-1.43-1.52-2.97-2.74-4.64-3.65-1.67-.92-3.39-1.54-5.18-1.87-1.78-.33-3.57-.38-5.34-.15-1.78.23-3.49.73-5.15,1.51-1.65.78-3.17,1.82-4.58,3.12l-.07.07c-1.39,1.31-2.54,2.75-3.42,4.34-.89,1.59-1.52,3.25-1.87,4.99-.35,1.75-.42,3.51-.22,5.3.21,1.79.71,3.55,1.5,5.26.79,1.71,1.9,3.34,3.32,4.87h0Zm4.09-3.69c-1.14-1.24-1.96-2.59-2.46-4.03-.5-1.45-.7-2.92-.6-4.42.1-1.49.49-2.95,1.17-4.33.67-1.39,1.61-2.66,2.82-3.79l.07-.07c1.21-1.12,2.53-1.97,3.96-2.55,1.42-.58,2.89-.87,4.37-.87,1.49,0,2.93.29,4.33.89,1.4.6,2.68,1.51,3.84,2.73,1.15,1.24,1.96,2.59,2.46,4.04.5,1.45.69,2.93.59,4.43-.11,1.5-.5,2.95-1.18,4.35-.68,1.4-1.62,2.67-2.82,3.8l-.07.07c-1.21,1.12-2.53,1.97-3.96,2.55-1.42.58-2.87.86-4.36.86-1.49,0-2.92-.3-4.32-.9-1.39-.6-2.68-1.51-3.83-2.74h0Z"/>
      <path class="cls-3" d="m174.49,455.76c1.84,1.24,3.67,2.1,5.51,2.57,1.83.47,3.63.54,5.39.2,1.76-.34,3.45-1.1,5.08-2.3,1.63-1.19,3.14-2.83,4.56-4.92l10.73-15.9-4.93-3.32-10.89,16.14c-1.17,1.72-2.42,2.96-3.76,3.74-1.34.77-2.73,1.09-4.17.96-1.45-.13-2.9-.69-4.36-1.68-1.48-1-2.53-2.15-3.19-3.47-.65-1.32-.85-2.76-.62-4.32.23-1.56.93-3.22,2.09-4.96l10.75-15.94-4.93-3.32-10.89,16.14c-1.37,2.04-2.29,4.01-2.77,5.93-.48,1.91-.55,3.74-.21,5.47.34,1.74,1.07,3.35,2.19,4.86,1.11,1.52,2.58,2.89,4.41,4.12h0Z"/>
      <polygon class="cls-3" points="198.54 469.56 203.97 471.73 212.9 449.39 221.28 478.65 225.9 480.5 238.46 449.1 233.03 446.93 224.35 468.64 216.21 440.2 211.1 438.16 198.54 469.56 198.54 469.56"/>
      <path class="cls-3" d="m239.14,483.92l12.43,2.12c2.1.35,4.1.41,6.01.17,1.9-.24,3.67-.74,5.3-1.5,1.62-.76,3.07-1.74,4.35-2.94,1.27-1.2,2.32-2.6,3.17-4.18.83-1.58,1.42-3.31,1.75-5.19l.02-.1c.39-2.36.33-4.62-.17-6.77-.51-2.15-1.42-4.11-2.74-5.88-1.32-1.77-2.98-3.25-5-4.46-2.02-1.2-4.35-2.03-6.97-2.5l-12.43-2.12-5.7,33.34h0Zm17.22-25.88c1.75.31,3.29.86,4.62,1.66,1.32.81,2.4,1.8,3.25,3,.84,1.19,1.42,2.52,1.72,3.99.31,1.47.33,3.02.05,4.66l-.02.1c-.29,1.63-.82,3.1-1.6,4.37-.77,1.27-1.75,2.33-2.94,3.16-1.19.83-2.54,1.4-4.05,1.71-1.52.31-3.15.32-4.91.03l-6.57-1.12,3.87-22.67,6.57,1.12h0Z"/>
      <polygon class="cls-3" points="280.51 489.47 305.82 488.94 305.71 483.63 286.34 484.03 286.15 474.95 303.1 474.6 302.99 469.28 286.03 469.64 285.85 460.85 304.98 460.45 304.87 455.13 279.8 455.66 280.51 489.47 280.51 489.47"/>
      <path class="cls-3" d="m317.2,487.76l12.34-2.6c2.09-.45,3.97-1.13,5.65-2.05,1.68-.92,3.14-2.04,4.37-3.34,1.23-1.31,2.22-2.75,2.96-4.34.74-1.59,1.2-3.27,1.4-5.05.19-1.78.1-3.6-.29-5.47l-.02-.09c-.5-2.34-1.39-4.41-2.65-6.23-1.26-1.82-2.84-3.3-4.71-4.46-1.87-1.16-3.97-1.93-6.29-2.3-2.33-.37-4.79-.29-7.4.24l-12.34,2.6,6.97,33.09h0Zm6.48-30.4c1.74-.36,3.38-.41,4.91-.15,1.53.26,2.9.79,4.12,1.59,1.22.8,2.24,1.82,3.07,3.07.83,1.25,1.41,2.69,1.77,4.32l.02.09c.33,1.62.38,3.18.12,4.65-.25,1.47-.77,2.81-1.57,4.02-.8,1.21-1.84,2.24-3.14,3.08-1.29.85-2.81,1.46-4.55,1.83l-6.52,1.37-4.74-22.5,6.52-1.37h0Z"/>
      <polygon class="cls-3" points="390.63 462.22 395.73 459.26 378.65 429.8 375.1 431.86 368.65 438.94 372.16 442.49 376.58 437.98 390.63 462.22 390.63 462.22"/>
      <path class="cls-3" d="m414.83,446.45c1.47-1.14,2.69-2.36,3.66-3.67.96-1.31,1.65-2.65,2.05-4.04.4-1.38.49-2.74.27-4.09-.23-1.35-.8-2.63-1.71-3.83l-.06-.08c-.81-1.05-1.73-1.83-2.73-2.33-1.01-.49-2.1-.77-3.28-.81-1.17-.05-2.43.09-3.76.41.46-.97.77-1.96.94-2.96.17-1,.13-2-.12-3.01-.24-1-.74-2.01-1.49-3.01l-.06-.08c-.81-1.04-1.78-1.81-2.91-2.34-1.13-.52-2.36-.79-3.7-.8-1.34,0-2.71.24-4.12.74-1.41.5-2.79,1.28-4.14,2.3-1.34,1.04-2.44,2.18-3.29,3.41-.85,1.23-1.44,2.5-1.78,3.79-.33,1.3-.39,2.56-.18,3.79.21,1.23.71,2.36,1.49,3.4l.06.08c.77.99,1.61,1.73,2.52,2.22.91.5,1.87.8,2.88.9,1.01.1,2.04.06,3.1-.14-.69,1.2-1.16,2.37-1.42,3.53-.25,1.16-.25,2.29,0,3.4.25,1.12.78,2.21,1.6,3.29l.06.08c.9,1.16,1.97,2.01,3.2,2.57,1.23.55,2.57.81,4.01.78,1.44-.03,2.92-.33,4.44-.92,1.52-.59,3.02-1.45,4.5-2.58h0Zm-12.18-15.87c-.93.7-1.89,1.16-2.86,1.38-.98.22-1.9.18-2.78-.1-.86-.28-1.6-.81-2.21-1.59l-.06-.08c-.52-.69-.8-1.47-.83-2.33-.04-.87.18-1.74.64-2.63.46-.88,1.17-1.7,2.12-2.44.97-.73,1.94-1.2,2.92-1.43.97-.21,1.87-.19,2.7.07.83.26,1.52.74,2.06,1.44l.06.08c.59.78.9,1.62.94,2.52.04.91-.17,1.8-.62,2.69-.47.89-1.16,1.69-2.08,2.41h0Zm9.15,11.92c-1.19.9-2.34,1.48-3.44,1.76-1.12.28-2.13.28-3.03.01-.9-.26-1.64-.77-2.21-1.5l-.06-.08c-.62-.83-.93-1.74-.91-2.72.02-.98.33-1.96.91-2.94.58-.97,1.41-1.87,2.48-2.7.8-.61,1.61-1.09,2.44-1.42.83-.33,1.64-.51,2.42-.55.79-.03,1.51.09,2.17.37.67.28,1.24.73,1.71,1.33l.06.08c.57.75.86,1.6.88,2.55.02.95-.26,1.92-.82,2.92-.56,1-1.43,1.96-2.61,2.87h0Z"/>
      <path class="cls-3" d="m435.39,420.22c-.66.7-1.37,1.28-2.12,1.74-.76.46-1.59.83-2.5,1.1-.9.27-1.91.47-3,.6l1.08,5.47c1.23-.14,2.43-.4,3.61-.76,1.19-.37,2.34-.9,3.47-1.6,1.12-.7,2.23-1.61,3.3-2.74,1.56-1.67,2.63-3.46,3.22-5.38.58-1.91.7-3.88.37-5.91-.33-2.03-1.09-4.05-2.28-6.06-1.19-2.02-2.77-3.96-4.76-5.83l-.07-.07c-1.62-1.51-3.12-2.71-4.53-3.57-1.4-.87-2.74-1.48-4-1.84-1.26-.36-2.47-.51-3.64-.48-1.12.04-2.19.21-3.2.51-1.02.3-2,.77-2.97,1.41-.96.63-1.93,1.46-2.89,2.48-1.28,1.37-2.24,2.82-2.87,4.35-.63,1.52-.94,3.05-.93,4.6,0,1.53.31,3,.93,4.42.62,1.41,1.53,2.69,2.73,3.84l.07.07c1.19,1.12,2.46,1.92,3.81,2.41,1.34.49,2.72.67,4.13.55,1.4-.13,2.79-.55,4.16-1.27,1.37-.73,2.68-1.75,3.92-3.06,1.19-1.27,2-2.6,2.44-3.99.44-1.4.58-2.83.39-4.29.66.63,1.28,1.35,1.86,2.16.58.81,1.08,1.68,1.48,2.61.4.93.65,1.88.76,2.86.1.98.01,1.95-.29,2.91-.3.96-.85,1.88-1.67,2.76h0Zm-7.99-9.06c-.97,1.02-2,1.72-3.08,2.12-1.08.4-2.15.5-3.19.29-1.04-.21-2-.72-2.86-1.53l-.07-.07c-.85-.81-1.44-1.73-1.76-2.76-.33-1.04-.34-2.11-.06-3.22.28-1.11.89-2.18,1.85-3.21.99-1.04,2.06-1.76,3.17-2.16,1.12-.39,2.21-.48,3.29-.25,1.07.22,2.04.74,2.91,1.55l.07.07c.6.57,1.06,1.21,1.38,1.94.32.73.48,1.5.48,2.32,0,.81-.17,1.63-.51,2.47-.35.84-.89,1.65-1.63,2.44h0Z"/>
      <path class="cls-3" d="m461.19,396.02c.98-1.47,1.66-2.96,2.04-4.44.37-1.5.45-2.95.24-4.35-.21-1.4-.7-2.69-1.46-3.9-.77-1.2-1.8-2.24-3.09-3.12l-.08-.05c-1.29-.86-2.56-1.38-3.8-1.55-1.24-.18-2.43-.1-3.58.26-1.15.36-2.22.91-3.24,1.65-1.02.75-1.95,1.61-2.8,2.6l-2.74-13.21-3.68-2.49-12.51,18.54,4.29,2.89,8.19-12.14,2.94,13,3.62,1.28,1.54-2.28c.89-1.32,1.83-2.34,2.81-3.08.98-.74,1.98-1.15,2.97-1.24,1-.1,1.96.17,2.89.78l.08.05c.86.59,1.46,1.31,1.81,2.15.35.85.45,1.75.31,2.71-.13.96-.52,1.91-1.14,2.84-.7,1.03-1.49,1.89-2.35,2.56-.87.67-1.83,1.2-2.88,1.56-1.05.37-2.19.62-3.43.76l.88,5.61c1.5-.13,2.97-.47,4.41-1.03,1.44-.54,2.82-1.34,4.14-2.39,1.31-1.04,2.51-2.37,3.62-4h0Z"/>
      <path class="cls-3" d="m114.89,279.13l1.5-12.59c.25-2.13.2-4.14-.14-6.04-.34-1.9-.93-3.65-1.77-5.24-.85-1.59-1.9-3-3.17-4.22-1.27-1.21-2.73-2.2-4.36-2.97-1.63-.76-3.4-1.25-5.3-1.49h-.1c-2.39-.29-4.65-.11-6.79.51-2.14.62-4.06,1.64-5.76,3.05-1.71,1.41-3.12,3.16-4.22,5.25-1.11,2.09-1.82,4.47-2.16,7.13l-1.5,12.59,33.77,4.03h0Zm-26.87-15.97c.22-1.78.7-3.35,1.44-4.72.74-1.37,1.69-2.51,2.85-3.41,1.15-.91,2.46-1.55,3.92-1.93,1.46-.39,3.02-.48,4.68-.29h.1c1.66.22,3.15.67,4.47,1.39,1.32.71,2.43,1.64,3.32,2.79.9,1.15,1.54,2.48,1.92,3.98.39,1.51.48,3.15.28,4.93l-.79,6.66-22.96-2.74.79-6.66h0Z"/>
      <path class="cls-3" d="m124.68,229.58c.67-2.12.98-4.14.92-6.05-.07-1.9-.51-3.65-1.34-5.26-.83-1.6-2.04-3.02-3.66-4.24-1.61-1.23-3.62-2.23-6.04-3l-18.39-5.83-1.81,5.7,18.66,5.92c1.99.64,3.54,1.5,4.67,2.57,1.12,1.08,1.83,2.33,2.11,3.75.28,1.43.16,2.99-.38,4.68-.54,1.71-1.36,3.05-2.44,4.06-1.09,1-2.42,1.6-3.99,1.83-1.57.22-3.37.02-5.38-.61l-18.43-5.85-1.81,5.7,18.66,5.92c2.36.74,4.52,1.07,6.51.99,1.98-.08,3.76-.53,5.34-1.36,1.58-.82,2.93-1.98,4.07-3.49,1.15-1.5,2.05-3.31,2.72-5.42h0Z"/>
      <polygon class="cls-3" points="131.68 209.55 143.09 188.6 138.32 186 129.76 201.69 104.68 188.02 101.81 193.27 131.68 209.55 131.68 209.55"/>
      <polygon class="cls-3" points="148.53 181.25 151.86 177.32 138.63 155.14 162.67 164.58 166.04 160.61 147.55 129.45 143.5 134.23 157.48 156.73 132.77 146.73 129.5 150.58 143.4 173.33 118.92 163.21 114.74 168.14 148.53 181.25 148.53 181.25"/>
      <polygon class="cls-3" points="178.64 149.63 183.31 145.9 162.09 119.32 157.42 123.05 178.64 149.63 178.64 149.63"/>
      <path class="cls-3" d="m203.3,133.24c1.81-1.07,3.31-2.23,4.47-3.49,1.17-1.25,2.09-2.6,2.78-4.03.69-1.45,1.23-3,1.6-4.66l-5.28-1.41c-.37,1.27-.81,2.43-1.32,3.49-.51,1.06-1.15,2.02-1.93,2.88-.78.86-1.77,1.65-2.96,2.35-1.41.82-2.87,1.31-4.36,1.46-1.49.16-2.95.01-4.37-.43-1.42-.45-2.73-1.15-3.95-2.12-1.21-.97-2.24-2.18-3.09-3.62l-.05-.08c-.84-1.45-1.39-2.94-1.64-4.46-.25-1.53-.22-3.02.1-4.48.31-1.46.9-2.79,1.77-4.01.86-1.22,1.99-2.25,3.39-3.08,1.11-.65,2.23-1.1,3.37-1.36,1.13-.26,2.27-.36,3.43-.3,1.16.05,2.35.21,3.55.49l1.07-5.76c-1.46-.36-2.93-.56-4.42-.6-1.49-.05-3.04.14-4.64.57-1.61.43-3.31,1.16-5.1,2.2-1.78,1.05-3.29,2.29-4.53,3.7-1.24,1.41-2.21,2.95-2.91,4.62-.7,1.66-1.12,3.38-1.27,5.17-.15,1.78-.02,3.57.4,5.36.41,1.79,1.11,3.52,2.08,5.2l.05.08c1,1.69,2.18,3.14,3.55,4.38,1.37,1.23,2.86,2.21,4.48,2.94,1.63.73,3.33,1.19,5.09,1.39,1.77.19,3.56.09,5.36-.29,1.8-.38,3.56-1.07,5.28-2.07h0Z"/>
      <polygon class="cls-3" points="219.48 124.2 225.19 122.23 220.48 108.55 235.97 103.22 240.68 116.9 246.38 114.94 235.21 82.47 229.5 84.43 234.15 97.93 218.66 103.27 214.01 89.77 208.31 91.73 219.48 124.2 219.48 124.2"/>
      <polygon class="cls-3" points="266.91 110.89 272.88 110.69 272.38 96.36 288.6 95.79 289.1 110.12 295.07 109.91 293.88 75.92 287.91 76.13 288.41 90.26 272.19 90.83 271.69 76.7 265.72 76.9 266.91 110.89 266.91 110.89"/>
      <path class="cls-3" d="m299.43,109.81l6.04,1.01,4.81-7.52,15.86,2.65,2.05,8.67,6.23,1.04-9.11-36.25-5.46-.91-20.41,31.31h0Zm13.87-11.37l8-12.45,3.55,14.39-11.55-1.93h0Z"/>
      <polygon class="cls-3" points="338.58 116.77 344.01 119.02 353.31 96.58 357.04 115.37 357.22 115.44 373.28 104.74 363.94 127.27 369.46 129.56 382.48 98.14 376.6 95.7 360.88 106.6 357.48 87.78 351.6 85.35 338.58 116.77 338.58 116.77"/>
      <polygon class="cls-3" points="375.55 133.63 395.37 146.9 398.4 142.38 383.54 132.43 399.44 108.69 394.47 105.37 375.55 133.63 375.55 133.63"/>
      <polygon class="cls-3" points="398.97 150.12 417.35 167.74 421.05 163.88 406.98 150.4 413.31 143.8 425.62 155.61 429.31 151.75 417.01 139.95 423.13 133.56 437.01 146.88 440.71 143.02 422.51 125.57 398.97 150.12 398.97 150.12"/>
      <polygon class="cls-3" points="426.06 178.82 429.6 183.69 452.63 166.96 458.97 175.68 463.46 172.43 447.23 150.1 442.75 153.36 449.09 162.08 426.06 178.82 426.06 178.82"/>
      <polygon class="cls-3" points="444.8 209.39 447 214.95 459.88 209.85 466.19 225.8 471.25 223.79 464.94 207.85 473.56 204.43 480.68 222.41 485.74 220.41 476.42 196.87 444.8 209.39 444.8 209.39"/>
      <path class="cls-3" d="m459.55,267.18c.22,2.09.65,3.94,1.31,5.52.65,1.58,1.49,2.98,2.51,4.21,1.03,1.23,2.22,2.36,3.57,3.4l3.48-4.21c-1-.87-1.88-1.75-2.62-2.65-.75-.9-1.36-1.89-1.81-2.96-.46-1.07-.76-2.29-.9-3.67-.16-1.63,0-3.15.49-4.57.48-1.42,1.22-2.69,2.21-3.8,1-1.1,2.18-2,3.57-2.71,1.39-.69,2.91-1.13,4.58-1.3h.1c1.67-.17,3.25-.05,4.74.35,1.5.41,2.84,1.05,4.03,1.95,1.2.89,2.16,1.98,2.91,3.28.75,1.29,1.21,2.74,1.39,4.36.13,1.28.07,2.49-.17,3.63-.23,1.13-.62,2.21-1.15,3.24-.53,1.04-1.17,2.05-1.92,3.03l4.79,3.37c.93-1.18,1.73-2.43,2.38-3.77.66-1.34,1.14-2.83,1.42-4.46.28-1.64.32-3.49.12-5.56-.22-2.05-.71-3.94-1.48-5.66-.77-1.71-1.76-3.24-2.99-4.56-1.22-1.32-2.61-2.43-4.17-3.3-1.55-.88-3.24-1.5-5.04-1.87-1.8-.37-3.66-.46-5.6-.27h-.1c-1.95.22-3.76.68-5.46,1.42-1.68.73-3.2,1.68-4.54,2.85-1.35,1.18-2.47,2.53-3.38,4.05-.91,1.53-1.56,3.19-1.97,4.99-.4,1.8-.51,3.68-.31,5.66h0Z"/>
      <path class="cls-1" d="m103.29,320.95c3.56,0,6.44,2.88,6.44,6.44s-2.88,6.44-6.44,6.44-6.44-2.88-6.44-6.44,2.88-6.44,6.44-6.44h0Z"/>
      <path class="cls-1" d="m472.72,320.95c3.56,0,6.44,2.88,6.44,6.44s-2.88,6.44-6.44,6.44-6.44-2.88-6.44-6.44,2.88-6.44,6.44-6.44h0Z"/>
      <path class="cls-1" d="m470.86,231.53c3.09,0,5.6,2.51,5.6,5.6s-2.51,5.6-5.6,5.6-5.6-2.51-5.6-5.6,2.51-5.6,5.6-5.6h0Z"/>
    </g>
  </g>
</svg>