<?xml version="1.0" encoding="UTF-8"?>
<svg id="Layer_2" data-name="Layer 2" xmlns="http://www.w3.org/2000/svg" xmlns:xlink="http://www.w3.org/1999/xlink" viewBox="0 0 425.76 383.76">
  <defs>
    <style>
      .cls-1 {
        clip-path: url(#clippath);
      }

      .cls-2 {
        fill: none;
      }

      .cls-2, .cls-3, .cls-4, .cls-5 {
        stroke-width: 0px;
      }

      .cls-3 {
        fill: #042394;
      }

      .cls-3, .cls-4, .cls-5 {
        fill-rule: evenodd;
      }

      .cls-4 {
        fill: #252678;
      }

      .cls-5 {
        fill: #fff;
      }
    </style>
    <clipPath id="clippath">
      <rect class="cls-2" width="425.76" height="383.76"/>
    </clipPath>
  </defs>
  <g id="Layer_1-2" data-name="Layer 1">
    <g>
      <g class="cls-1">
        <path class="cls-4" d="m212.37.18c87.19,0,160.77,58.36,183.81,138.13,6.43,1.71,13.13,3.68,16.94,5.66,4,2.08,7.16,5.18,9.21,9.01,1.7,3.17,3.11,6.91,2.83,11.91-.45,8.11-3.52,12.52-7.11,15.99-1.55,1.5-3.36,2.74-5.24,3.81-1.75,1-6.24,2.78-9.16,3.95.01.95.04,1.9.04,2.85,0,105.64-85.67,191.31-191.31,191.31S21.06,297.13,21.06,191.49c0-1.01.02-2.01.04-3.02-2.49-1.02-6.61-2.65-8.61-3.78-3.33-1.89-5.97-3.97-7.99-6.72C1.55,173.93.12,169.21,0,164.51c-.12-4.79,1.32-9.54,4.1-13.53,2.62-3.74,6.42-6.91,11.65-8.66,4.48-1.56,8.36-2.83,12.74-3.84C51.5,58.62,125.12.18,212.37.18h0Z"/>
      </g>
      <path class="cls-5" d="m212.51,7.88c82.28,0,151.94,54.2,175.19,128.84-2.15-.41-4.23-.68-6.35-.95-23.34-70.92-90.12-122.14-168.84-122.14S66.96,64.88,43.64,135.84c-2.12.29-4.33.58-6.33.89C60.57,62.08,130.22,7.88,212.51,7.88h0Zm183.46,182.71c0,.25,0,.5,0,.76,0,101.3-82.16,183.46-183.47,183.46S29.04,292.65,29.04,191.35c0-.27.01-.54.01-.8l5.75,2.32c.82,97.43,80.08,176.19,177.71,176.19s176.86-78.74,177.7-176.15c2.11-.77,4.02-1.55,5.76-2.32h0Z"/>
      <path class="cls-5" d="m225.5,77.57c36.69,4.07,68.28,25.05,86.83,54.96h-4.35c-17.59-27.14-46.41-46.31-79.88-50.93-.61-1.26-1.49-2.61-2.6-4.03h0Zm103.27,133.02c-5.78,41.75-33.51,76.5-71.16,92.22-.29-1.2-.64-2.39-1.05-3.54,35.9-15.13,62.42-48.14,68.39-87.88,1.28-.26,2.55-.53,3.82-.8h0Zm-161.51,92.25c-37.72-15.71-65.5-50.53-71.25-92.35,1.27.27,2.55.54,3.82.8,5.95,39.8,32.5,72.86,68.45,88-.4,1.15-.74,2.34-1.02,3.55h0Zm30.62-221.4c-33.98,4.32-63.28,23.64-81.07,51.09h-4.35c18.77-30.29,50.93-51.41,88.2-55.11-1.03,1.27-1.94,2.62-2.77,4.02h0Z"/>
      <path class="cls-5" d="m191.18,140.25h-117.53c-8.8,0-25.17,2.11-37.24,4.97-7.05,1.67-13.14,3.6-17.32,5.01-4.57,1.55-7.37,4.52-8.73,7.15-.36.69-.66,1.43-.91,2.19h60.93c3.91-6.2,10.82-10.32,18.69-10.32s14.78,4.12,18.69,10.32h55.2v52.22c5.52.31,11.25.59,16.73.82,4.1.17,7.59,1.69,10.24,4.29,2.06,2.03,3.61,4.88,4.55,7.87h2.58s-5.87-30.88-5.87-30.88v-53.64Zm145.63,19.86c6.16,0,11.16,5,11.16,11.16s-5,11.16-11.16,11.16-11.16-5-11.16-11.16,5-11.16,11.16-11.16h0Zm-247.74.06c6.16,0,11.16,5,11.16,11.16s-5,11.16-11.16,11.16-11.16-5-11.16-11.16,5-11.16,11.16-11.16h0Zm92.94,130.06c-5.31,4.32-8.05,9.55-9.06,15.4,9.03,4.14,17.84,7.62,31.63,8.98l4.68-3.68v-3.65h-.1c-8.85-.23-18.33-2.59-26.34-6.31l-.8-.37v-10.37Zm60.87.27c4.7,3.76,7.93,9.26,8.93,15.3-9.03,4.14-18.21,7.57-31.68,8.92l-4.39-3.79v-3.6h0c8.86-.22,18.33-2.59,26.34-6.31l.8-.37v-10.15Zm-32.31,30.21l1.92,1.04,1.83-1.04v-30.02l-1.86-14.54-1.89,14.6v29.95Zm2.39-111.9h-.98v60.34l-2.79,21.52v15.16c-9.11-.23-18.51-2.86-25.8-6.24v-10.41c4.32-3.17,15.4-6.02,23.69-6.34l.02-14.5-11.87-75.36v-78.2c0-3.95,2.03-8.1,5.5-10.66,2.23-1.64,5.24-2.57,8.51-2.57h7.27c3.34,0,6.01,1.03,8.36,2.89,3.04,2.39,5.14,6.12,5.14,10.57v77.97l-11.93,75.36-.02,14.8c9.77.6,19.03,2.93,23.44,6.26v10.36c-7.29,3.39-16.69,5.95-25.8,6.18v-15.34l-2.73-21.39v-60.41Zm-12.28-108.45c2.03-1.41,4.47-2.43,6.64-2.43h11.07c2.31,0,4.94,1.16,6.72,2.57.39-15.14-8.57-21.64-12.14-23.46-4.29,2.03-12.56,9.12-12.29,23.32h0Zm4.07-6.67c1.12-.56,2.19-.88,3.4-.88h9.12c.86,0,2.2.27,2.95.62-1.03-4.88-3.61-8.3-7.64-10.65-3.84,2.14-6.54,5.55-7.83,10.91h0Zm-41.61,6.57h33.73c0-2.09.11-4.2.4-6.29l-26.91,2.96c-2.38.9-5.4,2.4-7.21,3.32h0Zm99.29-.01h-33.72c0-2.09-.12-4.2-.4-6.29l26.92,2.96c2.38.9,5.4,2.4,7.21,3.32h0Zm-61.06,54.09c0-1.89,1.1-4.69,2.08-6.19l2.28,8.97-4.36,2.69v-5.47Zm3.44-6.89l7.65-4,6.94,3.59-2.5,9.81h-9.69l-2.4-9.39Zm16,.07c1.49,1.54,2.66,4.99,2.66,7.19v5l-5.11-2.59,2.44-9.6Zm2.66,13.84v23.14l-.27,2.13-4.84-2.45v-25.44l5.11,2.62Zm-.56,26.79l-4.06,16.37-12.85.02-4.09-16.38,4.73-2.8h10.77l5.5,2.79Zm-21.26-1.56l-.27-2.41v-22.64l4.45-2.74v25.31l-4.17,2.47Zm15.22-28.32h-9.55v25.65h9.55v-25.65Zm9.48-45.55l1.83,1.45v26.04l-1.83-1.44v-26.04Zm-27.5-.77l-1.83,2.1v26.16l1.83-2.1v-26.16Zm35.23,28.27h117.53c8.8,0,25.18,2.11,37.25,4.97,7.05,1.67,13.14,3.6,17.32,5.01,4.57,1.55,7.37,4.52,8.73,7.15.38.74.7,1.52.95,2.34h-60.23c-3.89-6.32-10.86-10.53-18.82-10.53s-14.93,4.21-18.82,10.53h-56.24v52.1c-5.35.3-10.89.57-16.18.79-4.1.17-7.59,1.69-10.24,4.29-2.06,2.03-3.61,4.88-4.55,7.87h-2.58s5.87-30.88,5.87-30.88v-53.64Zm182.14,20.85c.31,1.49.41,3.02.25,4.48-.43,4-1.91,6.63-4.12,8.76-1.07,1.04-2.22,1.88-3.6,2.66-2.02,1.15-4.54,2.2-6.05,2.82-4.14,1.71-8.3,3.36-12.48,4.93l-1.16-12.42-31.68,6.93c.97-2.49,1.5-5.19,1.5-8.02,0-3.67-.89-7.12-2.47-10.16h59.8Zm-94.74,26.04l-13.14,2.88v16.78c-16.81,2.88-31.04,4.14-45.14,4.95h-.07s0-50.64,0-50.64h54.08c-1.58,3.04-2.48,6.5-2.48,10.16,0,6.23,2.59,11.86,6.74,15.88h0Zm67.4-1.88c-10.92,4.08-21.87,7.66-32.5,10.68-15.85,4.5-31.5,7.96-46.66,10.61v-15.43l13.02-2.85c3.82,3.16,8.72,5.06,14.07,5.06,8.76,0,16.33-5.1,19.89-12.5l31.13-6.82,1.04,11.24ZM9.07,160.95c-.34,1.53-.45,3.12-.29,4.63.43,4,1.92,6.63,4.12,8.76,1.07,1.04,2.22,1.88,3.6,2.66,2.01,1.15,4.55,2.2,6.05,2.82,4.05,1.68,8.12,3.29,12.19,4.82l1.14-12.25,32.69,7.13c-1.02-2.54-1.58-5.31-1.58-8.21,0-3.75.94-7.28,2.59-10.37H9.07Zm95.2,26.38l12.34,2.69v16.73c16.76,2.88,30.94,4.15,44.97,4.97v-50.76h-53.02c1.65,3.09,2.59,6.62,2.59,10.37,0,6.3-2.64,11.98-6.87,16h0Zm-68.18-2.16c11.02,4.12,22.07,7.73,32.79,10.78,15.75,4.47,31.28,7.92,46.35,10.56v-15.37l-12.25-2.67c-3.8,3.09-8.64,4.94-13.92,4.94-8.68,0-16.19-5.01-19.79-12.3l-32.16-7.02-1.03,11.08Z"/>
      <path class="cls-5" d="m206.54,30.76l4.39.07-.38,23.83,8.36.13.07-4.54,4.39.07-.14,8.9-17.15-.27.44-28.2Z"/>
      <path class="cls-5" d="m243.92,33.74l16.57,4.12-1.06,4.26-12.3-3.06-1.8,7.23,5.81,1.45-1.06,4.26-5.81-1.45-1.84,7.37,12.36,3.08-1.06,4.26-16.62-4.16,6.81-27.36Z"/>
      <path class="cls-5" d="m75.59,103.44l10.29-13.63,3.51,2.65-7.64,10.12,5.95,4.49,3.6-4.78,3.51,2.65-3.61,4.78,6.07,4.57,7.67-10.17,3.5,2.64-10.34,13.66-22.51-16.98Z"/>
      <path class="cls-5" d="m287.23,53.92l-8.87,17.3,5.61,2.88-2.01,3.91-15.2-7.8,2-3.91,5.69,2.91,8.87-17.3-5.71-2.93,2-3.91,15.23,7.81-2.01,3.91-5.61-2.88Z"/>
      <path class="cls-5" d="m180.97,38.38l5.01,23.27-4.3.93-5-23.27-6.21,1.34-.92-4.29,16.73-3.6.92,4.3-6.22,1.34Z"/>
      <path class="cls-5" d="m338.86,90.05l2.64,3.52-9.47,7.1,4.98,6.64,9.47-7.1,2.63,3.52-22.56,16.92-2.63-3.52,9.57-7.18-4.98-6.65-9.58,7.18-2.64-3.51,22.56-16.92Z"/>
      <path class="cls-5" d="m313.74,65.77l11.18,9.47-2.84,3.35-9.68-8.2-12.56,14.83,6.34,5.37,4.88-5.75-2.8-2.38,2.84-3.35,4.31,3.65c.96.82,1.32,2.16.14,3.57l-7.03,8.36c-1.12,1.34-2.59,1.45-3.85.38l-8.91-7.54c-1.3-1.1-1.45-2.57-.23-4l14.66-17.3c1.11-1.3,2.61-1.25,3.55-.45h0Z"/>
      <path class="cls-5" d="m107.43,68.74l3.2-2.6,24.19,16.68-3.36,2.73-5.88-4.12-6.85,5.57,2.56,6.82-3.41,2.77-10.45-27.84Zm14.75,10.31l-8.78-6.09,3.85,10.09,4.93-4.01Z"/>
      <path class="cls-5" d="m136.93,49.08l10.89-5.16c1.28-.61,2.82-.05,3.42,1.22l2.71,5.73-4,1.89-1.94-4.1-7.53,3.57,3.23,6.82,8.93-4.23c.85-.4,1.65-.47,2.35-.17.61.26,1.05.61,1.46,1.47l4.7,9.92c.6,1.28.05,2.82-1.22,3.42l-10.89,5.16c-1.27.6-2.82.05-3.42-1.22l-2.73-5.77,4-1.9,1.96,4.15,7.54-3.57-3.25-6.86-8.84,4.18c-1.06.5-2.87.9-3.96-1.41l-4.61-9.74c-.61-1.28-.05-2.82,1.22-3.42h0Z"/>
      <path class="cls-5" d="m312.2,289l2.3-2.68,14.53,12.48,4.38-5.1-2.77-2.37,2.3-2.68,5.43,4.66-8.98,10.46-17.2-14.77Z"/>
      <path class="cls-5" d="m242.94,328.36l3.4-.94,5.11,18.46,6.48-1.79-.97-3.52,3.4-.94,1.91,6.9-13.29,3.67-6.04-21.84Z"/>
      <path class="cls-5" d="m212.61,331.38h3.53v19.16h6.73v-3.65h3.53v7.16s-13.78,0-13.78,0v-22.67Z"/>
      <path class="cls-5" d="m130.05,308.43l-11.4,15.38-2.84-2.1,11.4-15.38-4.11-3.05,2.11-2.84,11.06,8.2-2.11,2.84-4.11-3.05Z"/>
      <path class="cls-5" d="m89.02,254.63l4.57,8.5c.54,1,.16,2.25-.84,2.79l-16.33,8.77c-1,.54-2.25.16-2.79-.84l-4.57-8.5c-.54-1-.16-2.25.84-2.79l16.32-8.77c1-.53,2.25-.16,2.79.84h0Zm-2.38,2.96l-13.79,7.41,3.16,5.88,13.79-7.41-3.16-5.89Z"/>
      <path class="cls-5" d="m105.3,280.22l6.32,7.3c.74.86.65,2.16-.21,2.9l-14.01,12.14c-.85.74-2.16.64-2.9-.21l-6.32-7.3c-.74-.86-.64-2.16.21-2.91l14.01-12.13c.86-.74,2.16-.65,2.9.21h0Zm-1.67,3.42l-11.83,10.25,4.37,5.05,11.83-10.25-4.37-5.05Z"/>
      <path class="cls-5" d="m186.41,329.26l3.25.6,2.41,23.36-3.41-.63-.55-5.71-6.94-1.28-2.82,5.1-3.45-.64,11.51-20.8Zm1.39,14.32l-.86-8.5-4.14,7.58,5,.92Z"/>
      <path class="cls-5" d="m78.26,224.02l3.68,13.24-3.41.94-2.73-9.83-5.77,1.6,1.28,4.64-3.41.95-1.28-4.64-9.28,2.57-.95-3.41,21.86-6.07Z"/>
      <path class="cls-5" d="m150.71,317.1l10.64,4.72c1.03.46,1.5,1.68,1.04,2.71l-2.78,6.27c-.43.95-.97,1.43-2.36,1.4,1.21,1.02.79,2.12.5,2.79l-2.86,6.44c-.46,1.03-1.68,1.5-2.71,1.04l-10.63-4.72,9.16-20.64Zm-.65,10.08l6.09,2.7,2.43-5.47-6.09-2.7-2.43,5.47Zm4.64,5.96l-6.09-2.7-2.46,5.54,6.09,2.7,2.46-5.54Z"/>
      <path class="cls-5" d="m343.31,237.18l3.07-11.22c.3-1.09,1.43-1.74,2.52-1.44l6.61,1.81c1.01.27,1.56.74,1.74,2.12.83-1.35,1.98-1.11,2.68-.91l6.79,1.85c1.09.3,1.73,1.44,1.44,2.52l-3.07,11.22-21.79-5.95Zm10.06-.87l1.76-6.42-5.77-1.58-1.76,6.42,5.77,1.58Zm5.2-5.48l-1.76,6.43,5.84,1.6,1.76-6.43-5.84-1.6Z"/>
      <path class="cls-5" d="m337.11,252.72l18.18,9.68c1,.53,1.38,1.78.85,2.78l-4.52,8.5c-.53,1-1.78,1.38-2.78.85l-18.18-9.68,1.66-3.12,16.91,9,3.13-5.88-16.91-9,1.66-3.12Z"/>
      <path class="cls-5" d="m290.65,307.39l9.43-7.01,2.09,2.81-8.24,6.12,9.34,12.57,8.23-6.12,2.09,2.81-9.43,7.01c-.91.68-2.21.48-2.88-.42l-11.06-14.88c-.68-.91-.48-2.21.43-2.88h0Z"/>
      <path class="cls-3" d="m142.19,171.04h6.22c.72,0,1.26.54,1.26,1.28v12.14c0,.73-.54,1.28-1.26,1.28h-7.48v-2.15s6.59,0,6.59,0v-4.12h-5.28c-.77,0-1.31-.41-1.31-1.39v-5.75c0-.73.54-1.28,1.26-1.28h0Zm5.33,6.29v-4.14h-4.44v4.14h4.44Z"/>
      <path class="cls-3" d="m296.54,185.74h-6.22c-.72,0-1.26-.55-1.26-1.28v-12.14c0-.73.54-1.28,1.26-1.28h7.48v2.14s-6.59.01-6.59.01v4.12h5.28c.77,0,1.3.41,1.3,1.39v5.75c0,.73-.53,1.28-1.25,1.28h0Zm-5.33-6.3v4.14h4.44v-4.14h-4.44Z"/>
      <path class="cls-3" d="m283.89,171.09v14.56h-2.15v-6.19h-5.34c-.76,0-1.31-.41-1.31-1.39v-6.98h2.15v6.24h4.5v-6.24h2.15Z"/>
      <path class="cls-3" d="m133.71,183.55h3.34v2.17h-8.78v-2.17h3.27v-10.35h-3.28v-2.17h5.46v12.52Z"/>
    </g>
  </g>
</svg>