<?xml version="1.0" encoding="UTF-8"?>
<svg id="Layer_2" data-name="Layer 2" xmlns="http://www.w3.org/2000/svg" viewBox="0 0 302.1 302.1">
  <defs>
    <style>
      .cls-1 {
        fill: #1b1918;
      }

      .cls-1, .cls-2, .cls-3, .cls-4, .cls-5 {
        fill-rule: evenodd;
        stroke-width: 0px;
      }

      .cls-2 {
        fill: #d90e22;
      }

      .cls-3 {
        fill: #e30016;
      }

      .cls-4 {
        fill: #fff;
      }

      .cls-5 {
        fill: #ffec00;
      }
    </style>
  </defs>
  <g id="Layer_1-2" data-name="Layer 1">
    <g>
      <path class="cls-1" d="m302.1,151.05c0,83.42-67.63,151.05-151.05,151.05S0,234.47,0,151.05,67.63,0,151.05,0s151.05,67.63,151.05,151.05h0Z"/>
      <path class="cls-3" d="m131.02,234.71c6.43,1.53,13.13,2.34,20.03,2.34s13.61-.81,20.03-2.34c4.06.22,7.97.49,11.71.82-9.88,3.71-20.58,5.75-31.75,5.75s-21.87-2.04-31.75-5.75c3.74-.33,7.66-.61,11.72-.82h0Zm134.52-26.41c-10.68,21.32-27.14,39.24-47.32,51.71-19.54,12.07-42.55,19.03-67.17,19.03s-48.27-7.16-67.98-19.53c-20.35-12.78-36.84-31.13-47.35-52.91l-.9-1.86,1.84-.93,33.71-17.05,1.93-.98.92,1.96c6.73,14.24,17.25,26.34,30.27,35l.21,2.26.28,3.05c-.4-.24-.79-.49-1.19-.74-13.8-8.75-25.06-21.14-32.44-35.83l-29.94,15.15c10.19,20.25,25.79,37.32,44.89,49.32,19.04,11.96,41.57,18.87,65.74,18.87s46.09-6.73,64.96-18.39c18.93-11.7,34.48-28.35,44.82-48.15l-29.93-15.2c-7.52,14.25-18.74,26.25-32.4,34.71-.14.09-.27.17-.41.25l.28-3.05.21-2.25c12.53-8.32,22.76-19.85,29.51-33.42l.94-1.9,1.9.96,33.68,17.1,1.87.95-.94,1.87Z"/>
      <path class="cls-3" d="m240.23,164.81c-.59,3.89-1.44,7.71-2.52,11.43l31.68,11.16c1.68-5.48,3-11.11,3.91-16.86,1-6.32,1.52-12.83,1.52-19.49,0-34.18-13.86-65.12-36.25-87.52-22.4-22.39-53.34-36.25-87.51-36.25s-65.12,13.86-87.51,36.25c-22.4,22.4-36.25,53.34-36.25,87.52,0,6.25.46,12.38,1.35,18.36.8,5.39,1.94,10.64,3.4,15.75l31.73-11.18c-.88-3.37-1.58-6.83-2.07-10.36-.57-4.13-.87-8.32-.87-12.56h0c0-24.92,10.09-47.48,26.42-63.8,16.33-16.33,38.88-26.43,63.8-26.43s47.47,10.1,63.8,26.43c16.32,16.32,26.42,38.88,26.42,63.8,0,4.67-.35,9.26-1.04,13.75h0Zm-7.14,12.12c1.3-4.12,2.29-8.37,2.96-12.75.66-4.28,1-8.66,1-13.13,0-23.75-9.63-45.25-25.19-60.81-15.56-15.56-37.06-25.19-60.81-25.19s-45.25,9.62-60.81,25.19c-15.57,15.57-25.2,37.07-25.2,60.81h0c0,4.09.28,8.09.82,11.98.55,3.98,1.39,7.88,2.47,11.69l.55,1.91-1.88.66-35.67,12.58-2.07.73-.64-2.11c-1.84-6-3.24-12.18-4.18-18.47-.92-6.2-1.4-12.54-1.4-18.97,0-35.34,14.33-67.34,37.49-90.5,23.16-23.16,55.16-37.49,90.5-37.49s67.34,14.33,90.5,37.49c23.16,23.16,37.49,55.16,37.49,90.5,0,6.83-.54,13.56-1.59,20.15-1.06,6.72-2.64,13.26-4.7,19.57l-.67,2.05-2.04-.71-35.63-12.56-1.92-.68.61-1.94Z"/>
      <path class="cls-5" d="m197.61,106.04c11.27,11.66,18.21,27.52,18.21,45.02,0,35.77-29,64.76-64.76,64.76-17.49,0-33.36-6.94-45.02-18.21l91.57-91.57Z"/>
      <path class="cls-3" d="m103.5,195.01c-10.68-11.54-17.21-26.99-17.21-43.96,0-35.77,28.99-64.76,64.76-64.76,16.97,0,32.41,6.53,43.96,17.21l-91.52,91.52Z"/>
      <path class="cls-4" d="m173.28,151.99c-13.46-2.03-26.03,7.25-28.06,20.72-2.03,13.47,7.25,26.04,20.72,28.06,13.47,2.03,26.03-7.24,28.06-20.71,2.03-13.46-7.25-26.03-20.72-28.06h0Z"/>
      <path class="cls-1" d="m166.11,199.59h0,0Zm2.65-46.66l.14.18s-11.84,9.63-9.61,23.99c2.86-.19,6.04-.76,9.46-1.96.44-10.94,7.6-17.66,10.69-20.07-1.97-.91-4.09-1.55-6.34-1.89h0c-1.46-.22-2.92-.3-4.35-.25h0Zm-22.58,22.28c1.51.61,5.37,1.92,10.71,1.96-1.64-11.46,4.83-20.09,8.36-23.84-3.5.66-6.76,2.11-9.56,4.18-4.83,3.57-8.3,8.98-9.27,15.39h0c-.12.78-.2,1.55-.23,2.32h0Zm4.83,15.48c2.59.36,15.9,1.74,25.88-5.93-2.38-3.95-5.3-6.49-6.73-7.59-11.19,4.13-20.3,1.88-23.97.59.27,4.63,1.9,8.98,4.55,12.57.09.12.18.24.27.36h0Zm29.5,6.5c-.09-4.01-1.1-7.44-2.47-10.29-8.66,6.45-19.44,6.74-24.69,6.42,3.38,3.26,7.77,5.53,12.77,6.29h0c5.13.77,10.12-.18,14.39-2.41h0Zm10.39-10.89l-.1.03c-3.38-11.56-13.68-18.55-17.16-20.64-1.31,2.57-2.29,5.66-2.48,9.26,2.31,1.69,10.82,8.72,11.68,20.84.24-.16.48-.33.72-.51,3.12-2.3,5.67-5.38,7.35-8.99h0Zm-16.08-22.67c3.42,2.05,13.04,8.58,17.33,19.33.29-.99.52-2.01.67-3.06.96-6.41-.76-12.61-4.32-17.43-1.8-2.44-4.08-4.54-6.72-6.14-1.05.72-4.32,3.16-6.96,7.3h0Zm-1.36-12.8h0c7.06,1.07,13.02,4.89,16.95,10.22,3.91,5.3,5.82,12.09,4.79,19.11h0s-.02.1-.02.1c-1.06,7.06-4.89,13.02-10.21,16.95-5.3,3.91-12.09,5.82-19.11,4.79h-.03s-.07-.02-.07-.02h0c-7.06-1.06-13.02-4.89-16.95-10.21-3.93-5.32-5.83-12.15-4.77-19.21h0c1.06-7.06,4.89-13.02,10.21-16.95,5.33-3.93,12.15-5.84,19.21-4.77h0Z"/>
      <path class="cls-1" d="m116.87,141.47c.91.49,7.65,4.16,8.03,4.16h9.27v2.07c0,.47,1.28.14,1.79.08.56-.06,1.31-.16,1.88-.28,1.05-.22,2.4-.65,3.32-1.09,1.03-.49,1.91-.97,2.78-1.62.73-.55,1.73-1.81,2.19-2.12,0,.65.18.76.18,1.35v.54c0,1.83-.69,3.91-1.32,5.16-.48.94-1.83,3.36-2.55,3.84-.63-.42-3.99-3.6-4.32-3.6h-.27c-.75,0-2.92,2.82-3.69,3.33-.63-.42-5.61-3.96-5.85-3.96h-.36c-.69,0-1.45,3.6-1.98,3.6-.13,0-6.1-4.86-6.75-4.86-.82,0-2.43,3.06-3.24,3.6-.54-.36-3.02-2.84-2.97-3.42l.29-3.21,3.56-3.55Zm5.43-10.03l.07.08,1.88,1.19-.14,5.27-3.84-3.99,2.02-2.55Zm13.53.79c1.15.74,4.75,3.06,5.35,3.95-.98.66-3.45,2.13-4.92,2.16l-.43-6.11Zm-27.03,1.8c0-.65,1.66-2.73,2.16-3.06l1,1.79-.09-.02-1.59,3.7c-.13-.11-1.48-2.18-1.48-2.41h0Zm7.19-4.67l1.36.09.16.19.48,1.81h.1s-.09.05-.09.05l-2-2.13Zm14.82.71c.65,0,3.45,1.06,3.45,1.44v7.19l-2.95.27-.5-8.9Zm-11.75-.12l1.96.85-1.18,1.26-.88-2.04.09-.07Zm9.34,5.79c.36,0,.63-.33.63-.72,0-.5-1.76-3.59-1.8-5.4h1.89c.21,0,.27.06.27.27v9h-.45l-2.43-.18v-.8l-.11-3.51c.44.28,1.56,1.35,2,1.35h0Zm-17.36,4.5c0-.97.6-3.3.9-4.05.17-.44,1.53-3.32,1.53-3.33v-.27c0-.14-3.65-6.44-4.05-7.2l.62-.37c.59.4,1.46,1.61,2.05,2.2.74.74,1.25,1.43,1.98,2.16.73.73,1.32,1.51,2.02,2.2.69.69,1.41,1.36,1.99,2.15.39.53,1.54,1.66,2.05,2.18.68.68,1.3,1.5,1.98,2.16.71.7,1.1,1.77,2.41,1.82,1.05.04,2.64.45,3.69.45h3.51c2.08,0,4.52-.39,6.11-.91.85-.28,1.71-.61,2.5-1.01.31-.16,2.09-1.32,2.1-1.32.26,0,1.88,1.88,2.11,2.21.46.68,1.32,1.95,1.4,2.91-1.16.27-5.59,3.24-6.39,3.24h-2.16c-.3,0-.63-.68-.63-.9,0-.16,2.42-2.37,2.7-2.79-1.49.35-5.42,2.25-6.66,2.25h-8.18c-.16,0-4.61-2.78-5.16-3.11-.76-.46-4.71-2.99-5.18-3.09v1.08l-.23,3.23-2.82,1.83-.22-1.45.03-2.25Zm28.16-20.96c-.43,1.62-.99,2.88-.99,5.04v1.8c0,1.01.35,2.84.58,3.74.29,1.17.82,2.34,1.04,3.27-.39-.1-1.94-1.34-2.49-1.65-.9-.51-1.62-.99-2.58-1.47-1.39-.7-4.28-1.83-6.27-1.83h-1.44v-.81c0-2.63,1.49-6.98,2.88-7.91l9.27-.18Zm-32.93,7.29c0-2.67,1.05-5.89,1.98-7.64h4.41c-.6,1.13-1.64,2.33-2.15,3.34-.2.4-.81,1.32-1.16,1.54-.35.21-1.55.75-1.55,1.15v.27c0,.68,2.21,3.68,2.43,4.59-.64.34-2.16,2.13-2.34,2.88-.92-.68-1.62-4.27-1.62-6.12h0Zm22.4-7.96c-1.68,2.55-3.06,4.95-3.06,9.14v.09c0,.71.14,1.93.26,2.53.11.52.54,1.75.55,2.15-.66-.35-1.8-1.16-2.5-1.64-.83-.57-1.67-.98-2.6-1.45-2.03-1.01-3.68-1.5-6.69-1.5l-3.59-3.88,3.41-5.2,14.21-.24Zm-17.11-3.03l.74,1.91-2.63-.02,1.89-1.89Zm3.89,1.82c.07-.25,1.16-1.86,1.37-2.05.38-.32,1.72-.96,2.32-1.01v.99l.26,2.07h-3.95Zm10.7-1.71l2.46,1.48-2.46.05v-1.53Zm-2.25,1.44l.72-.72.16-.2.02.83c0,.21-.06.27-.27.27h-.72l.09-.18Zm10.96-.72l2.29,1.5-2.16.03-.13-1.53Zm-.88-.36v1.98h-1.89c-.21-.91-1.05-1.94-1.08-3.24.58.05,2.97.83,2.97,1.26h0Zm-13.4-1.89h.9c.85,0,2.05.46,2.79.63-.11.17-2.43,2.52-2.43,2.52h-.99c0-.6-.27-.97-.27-1.8v-1.35Zm18.53-7.13c-.56.87-1.16,1.54-1.58,2.58-.26.65-.82,2.41-.66,3.38l.42,3.24c-1.76-.95-4.02-2.76-6.54-2.97v-1.71c0-1.43.93-3.44,1.44-4.39l6.93-.13Zm-26.36,7.49c0-.09,3.67-3.71,4.07-4.11.7-.7,1.33-1.33,2.03-2.02.36-.37.67-.67,1.03-1.03.19-.19.31-.31.5-.5.11-.11.17-.16.27-.27.07-.07.07-.08.13-.14.02-.02.04-.14.07-.11l.11.07c-.33.38-1.58,2.24-1.83,2.7-.52.95-1.28,1.79-1.74,2.67-.44.84-1.22,1.9-1.75,2.66-.12.17-.91.86-1.15,1.1-.31.31-.61,1.04-1.01,1.15-.12-.49-.72-1.58-.72-2.16h0Zm6.93-9.07l-7,7.03c-.02-2.39,1.44-5.5,2.41-6.92l4.59-.11Zm12.05-.22c-1.33,2.02-2.43,3.98-2.43,7.32v.81c0,1.07.47,2.1.54,2.97-1.21-.64-2.29-1.69-3.77-2.26-1.15-.45-3.02-1.34-4.6-1.34h-1.17c-.82,0-1.41.2-2.07.36l5.04-7.72,8.45-.13Zm-6.6-2.7l.04,1.38h-.9s.87-1.38.87-1.38Zm.1-2.05l.02.72h-.63c-1.78,0-3.85-.22-4.44-1.5-.82-1.79-3.26-1.2-3.3-2.64h.72c1.12,0,2.72.39,3.52.71,1.01.39,1.51,1.27,2.87,1.27h.27c.43,0,.7-.18,1.08-.27l-.11,1.71Zm-9.43-4.23l.36,2.07c.64.43,1.1.49,1.8.81.97.44,1.01.25,1.43,1.26.42,1,2.32,1.62,3.8,1.64l-2,1.93-6.66.12c-.91.61-1.91,2.96-2.4,4.16-.71,1.75-.93,3.21-.93,5.64-1.01,1.51-3.51,2.97-4.32,4.59-.73,1.45-1.98,4.83-1.98,6.93v2.88c0,.65.52,2.54.71,3.07.33.94.77,1.71,1.24,2.54.33.58,3.02,4.39,2.96,4.64l-.24,2.79v.9c0,2.84,1.11,4.82,2.1,6.72.43.82,3.59,4.53,4.38,4.53.89,0,2.54-3.16,3.33-3.69.9.6,6.51,5.04,7.02,5.04h.09c.55,0,1.74-3.05,1.89-3.69,1.02.24,5.09,3.78,5.85,3.78s2.92-2.81,3.69-3.33c.6.4,4.14,3.69,4.41,3.69h.36c.61,0,2.8-3.45,3.15-4.14.63-1.24,1.8-3.78,1.8-5.58v-2.07c0-1.6-1.07-3.72-1.74-4.74-.69-1.04-2.23-2.5-3.24-3.23-1.36-.98-3.02-7.31-3.02-10.02v-.54c0-1.38.14-2.34.38-3.49.12-.6.97-2.84.97-2.9v-.09c0-.59-.8-.63-1.44-.63-.55-1.04-1.26-2.94-1.26-4.5v-.9c0-1.25.7-2.9,1.24-3.62.36-.48.74-.84,1.16-1.26.37-.37,1.19-.77,1.19-1.32v-.09c0-.21-.32-.54-.54-.54l-4.68-.02-3.51.11c.26-.38.81-.64.81-1.17v-.18c0-.95-3.51-.45-4.5-.45h-3.6v-1.62c0-.29.27-.19.27-.89,0-.53,0-.79.07-1.19.09-.56.11-1.82.11-2.41-.11-.15-.2-.36-.45-.36-.24,0-.88.63-1.8.63h-.36c-.3,0-2.21-1.19-3.05-1.45-1.12-.35-2.56-.53-4.06-.53h-.45c-.15,0-.29.11-.36.18h0Z"/>
      <path class="cls-5" d="m109.43,125.38c.4.76,4.05,7.06,4.05,7.2v.27s-1.36,2.88-1.53,3.32c-.29.75-.9,3.08-.9,4.05l-.03,2.25.22,1.45,2.82-1.82.23-3.24v-1.08c.47.11,4.42,2.63,5.18,3.09.55.33,5.01,3.11,5.16,3.11h8.18c1.24,0,5.17-1.9,6.66-2.25-.28.42-2.7,2.64-2.7,2.79,0,.22.33.9.63.9h2.16c.8,0,5.23-2.97,6.39-3.24-.08-.96-.94-2.23-1.4-2.91-.23-.33-1.85-2.21-2.11-2.21-.02,0-1.79,1.17-2.1,1.32-.79.4-1.64.73-2.5,1.01-1.59.52-4.02.91-6.11.91h-3.51c-1.05,0-2.64-.41-3.69-.45-1.3-.05-1.7-1.12-2.41-1.82-.68-.66-1.3-1.48-1.98-2.16-.51-.51-1.66-1.64-2.05-2.18-.59-.79-1.3-1.46-1.99-2.15-.7-.69-1.29-1.47-2.02-2.2-.72-.73-1.24-1.42-1.98-2.16-.59-.59-1.47-1.79-2.05-2.19l-.62.37Z"/>
      <path class="cls-5" d="m113.32,145.02l-.29,3.21c-.05.58,2.43,3.06,2.97,3.42.81-.54,2.42-3.6,3.24-3.6.65,0,6.62,4.86,6.75,4.86.53,0,1.29-3.6,1.98-3.6h.36c.24,0,5.22,3.54,5.85,3.96.77-.51,2.94-3.33,3.69-3.33h.27c.33,0,3.69,3.18,4.32,3.6.72-.48,2.07-2.89,2.55-3.84.63-1.25,1.32-3.33,1.32-5.16v-.54c0-.59-.18-.7-.18-1.35-.46.31-1.47,1.57-2.19,2.12-.87.66-1.75,1.14-2.78,1.62-.92.44-2.27.87-3.32,1.09-.57.12-1.32.22-1.88.28-.51.06-1.79.39-1.79-.09v-2.07h-9.27c-.38,0-7.11-3.67-8.03-4.16l-3.56,3.55Z"/>
      <path class="cls-5" d="m114.47,118.83l-3.41,5.2,3.59,3.88c3.01,0,4.65.48,6.69,1.5.93.47,1.77.88,2.6,1.45.69.48,1.83,1.29,2.5,1.64-.01-.4-.44-1.63-.55-2.15-.13-.59-.26-1.82-.26-2.53v-.09c0-4.19,1.38-6.59,3.06-9.13l-14.21.23Z"/>
      <path class="cls-5" d="m129.94,119.45c-1.39.93-2.88,5.28-2.88,7.92v.81h1.44c1.99,0,4.88,1.13,6.27,1.83.96.48,1.68.96,2.58,1.47.55.31,2.1,1.55,2.49,1.65-.22-.94-.75-2.1-1.04-3.28-.23-.9-.58-2.74-.58-3.74v-1.8c0-2.17.56-3.42.99-5.04l-9.27.18Z"/>
      <path class="cls-5" d="m123.28,105.34l-5.04,7.72c.66-.16,1.25-.36,2.07-.36h1.17c1.58,0,3.45.89,4.6,1.34,1.48.57,2.56,1.62,3.77,2.26-.08-.87-.54-1.9-.54-2.97v-.81c0-3.33,1.1-5.3,2.43-7.31l-8.45.13Z"/>
      <path class="cls-5" d="m132.19,107.14c-.51.96-1.44,2.96-1.44,4.39v1.71c2.52.21,4.78,2.02,6.54,2.97l-.42-3.24c-.15-.97.4-2.73.66-3.38.43-1.05,1.02-1.71,1.58-2.58l-6.93.13Z"/>
      <path class="cls-5" d="m106.28,126.56c0,1.85.7,5.44,1.62,6.12.17-.75,1.69-2.54,2.34-2.88-.21-.91-2.43-3.91-2.43-4.59v-.27c0-.4,1.2-.93,1.55-1.15.35-.22.96-1.14,1.16-1.54.5-1.01,1.55-2.21,2.15-3.34h-4.41c-.93,1.76-1.98,4.97-1.98,7.64h0Z"/>
      <path class="cls-5" d="m115.1,105.54c-.96,1.41-2.43,4.53-2.41,6.92l7-7.03-4.59.11Z"/>
      <path class="cls-4" d="m124.63,101.19h.63l-.02-.72.11-1.71c-.38.09-.65.27-1.08.27h-.27c-1.36,0-1.86-.88-2.87-1.27-.8-.31-2.4-.7-3.52-.7h-.72c.03,1.45,2.48.85,3.3,2.64.59,1.28,2.66,1.5,4.44,1.5h0Z"/>
      <path class="cls-5" d="m112.76,114.5c0,.58.61,1.67.72,2.16.4-.11.7-.84,1.01-1.15.24-.24,1.04-.93,1.15-1.1.53-.76,1.31-1.82,1.75-2.66.46-.88,1.21-1.72,1.74-2.67.25-.46,1.5-2.32,1.83-2.7l-.11-.07s-.06.09-.07.11c-.05.07-.06.07-.13.14-.1.11-.16.16-.27.27-.19.19-.31.31-.5.5-.37.37-.67.67-1.03,1.03-.7.7-1.33,1.33-2.03,2.02-.4.4-4.07,4.02-4.07,4.11h0Z"/>
      <path class="cls-5" d="m119.85,132.05l1.18-1.26-1.96-.85-.09.07.88,2.04Z"/>
      <path class="cls-4" d="m73.89,219.07c-1.24.38-2.46,1.2-3.52,2.21-2.34,2.24-3.75,5.49-1.23,8.12,1.43,1.5,3.13,1.73,4.75,1.24,1.23-.38,2.41-1.15,3.41-2.12,2.46-2.35,3.87-5.6,1.35-8.23-1.43-1.5-3.12-1.73-4.76-1.23h0Zm15.66,13.16c1.22-.34,2.51-.17,3.8.74,2.98,2.11,2.22,5.56.25,8.34-1.06,1.5-2.48,2.75-4.06,3.17-1.2.32-2.5.16-3.79-.75-2.98-2.1-2.21-5.56-.35-8.21,1.11-1.57,2.56-2.86,4.14-3.29h0Zm31.41,22.41l1.76.5c1.67.47,2.6,1.55,2.05,3.46-.55,1.94-2.04,2.08-3.59,1.64l-.23-.06-3.95-1.12,1.46-5.13,2.5.71Zm0-7.75l3.19.9c1.39.4,2.58,1.12,2.08,2.91-.44,1.58-1.65,1.94-3.02,1.55l-2.25-.64-1.7-.48,1.23-4.38.47.13Zm18.82,7.09l.74-1.62h.05s1.59,7.34,1.59,7.34l-2.38-.25-2.38-.25,2.38-5.23Zm97.44-38.05l2.27-3.16c.38-.53.8-.93,1.26-1.17.78-.4,1.69-.33,2.7.4,1.64,1.17,1.27,2.62.33,3.93l-2.53,3.53-.51-.36-3.52-2.53-.31-.22.31-.43Zm-3.03-8.15c.64-.41,1.41-.47,2.31.18.32.22.55.47.72.73.44.67.39,1.44,0,2.18-.08.15-.17.31-.28.46l-2.39,3.34-.36-.25-3.34-2.39,2.22-3.09c.33-.47.7-.88,1.12-1.15h0Zm11.82,1.06c-1.72-1.23-3.58-1.48-5.26-.57-.24.13-.48.29-.72.47.27-1.78-.29-3.3-1.84-4.4-.33-.24-.65-.43-.97-.58-1.09-.54-2.1-.6-3.03-.29-1.22.4-2.32,1.43-3.34,2.86l-5.05,7.06,8.4,6.01,3.03,2.17,3.52,2.52.85.6,5.21-7.28c1.94-2.71,2.42-6.29-.79-8.58h0Zm-21.71,6.35l-2.91,2.83,8.42,8.67c2.01,2.07,2.27,3.68.2,5.7-2.36,2.29-4.19,1.14-5.67-.38l-8.42-8.67-2.91,2.83,8.42,8.68c3.68,3.79,7.52,3.59,11.08.13,3.54-3.44,3.87-7.33.22-11.1l-8.42-8.68Zm-10.61,29.81l-9.01-13.03-3.34,2.31,11.06,15.98,10.74-7.43-2.05-2.96-7.4,5.12Zm-12.19,2.8c.81,2.45.31,4.67-1.94,5.72-3.3,1.55-5.93-.82-7.31-3.76-1.44-3.09-1.59-6.62,1.71-8.17,1.83-.86,4.04-.27,5.1,1.37l3.56-1.68c-2.36-3.85-6.51-4.67-10.19-2.94-5.17,2.43-6.31,7.92-3.85,13.15,2.38,5.08,7.34,7.71,12.51,5.29,4.1-1.92,5.66-6.08,3.98-10.64l-3.57,1.67Zm-29.43,14.2l-3.18-15.52-3.98.82,3.91,19.04,12.79-2.62-.72-3.52-8.82,1.81Zm-16.57,1.87l-.87-15.82-4.05.22,1.07,19.41,13.04-.72-.2-3.59-8.99.5Zm-15.73-1.22l3.11.32.95,4.45,4.19.43-4.89-20.04-3.36-.34-.78-.09-8.95,18.62,4.09.42,1.88-4.16,3.76.38Zm-9.57-11.59c.16-.57.25-1.09.25-1.58v-.21c-.05-2.34-1.86-3.68-4.62-4.46l-4.89-1.38-3.47-.99-5.3,18.71,8.61,2.43.15.04c3.17.84,6.59.06,7.65-3.68.66-2.34.06-4.4-1.92-5.66,1.77-.35,3-1.38,3.52-3.22h0Zm-13.72-8.97l-13.68-6.46-1.54,3.25,5,2.36-6.76,14.33,3.67,1.74,6.77-14.33,5.01,2.37,1.54-3.25Zm-35.25-24.28c-2.14-2.24-4.75-3.06-7.36-2.72-2.21.29-4.42,1.42-6.33,3.25-2.08,2-3.34,4.44-3.53,6.9v1.25c.14,1.89.94,3.75,2.51,5.39,2.14,2.23,4.76,3.06,7.35,2.73,2.19-.28,4.36-1.38,6.22-3.15,2.14-2.05,3.43-4.51,3.64-6.97v-1.41c-.16-1.85-.96-3.66-2.5-5.27h0Zm14.18,12.21c-1.91-1.35-3.93-1.86-5.88-1.66-2.82.28-5.49,2.03-7.46,4.82-1.32,1.86-2.07,3.9-2.19,5.88v1.07c.15,2.49,1.36,4.82,3.78,6.53,1.91,1.35,3.93,1.85,5.86,1.67,2.81-.27,5.46-1.98,7.37-4.69,1.38-1.96,2.16-4.07,2.27-6.1v-.97c-.14-2.51-1.34-4.84-3.76-6.55h0Zm-28.33-15.39l-4.32-6.41,3.73-2.51,4.99,7.4,2.98-2.01-7.25-10.77-16.12,10.87,2.27,3.37,6.66-4.49,4.32,6.41,2.75-1.85Z"/>
      <path class="cls-4" d="m190.94,219.18c2.06.25,4.06.51,5.97.79l-5.67-5.66-.3,4.87Z"/>
      <path class="cls-4" d="m117.02,234.8c5.16-.5,10.68-.89,16.47-1.15,5.65-.25,11.53-.39,17.56-.39s11.92.14,17.56.39c5.79.26,11.32.65,16.47,1.15,2.12.2,4.14.42,6.06.65,1.81.22,3.57.45,5.27.7l1.04-11.25.35-3.86c-6.36-.97-13.66-1.76-21.61-2.29-7.83-.53-16.3-.81-25.14-.81s-17.31.29-25.13.81c-7.96.54-15.25,1.32-21.62,2.29l.36,3.86,1.04,11.25c1.66-.23,7.29-1,11.33-1.36h0Z"/>
      <path class="cls-4" d="m111.11,219.18l-.3-4.88-5.68,5.67c1.92-.29,3.91-.55,5.98-.8h0Z"/>
      <path class="cls-1" d="m111.69,233.04l2.26-.27-.98-8.14,2.75-.33-.23-1.91-7.73.93.23,1.91,2.71-.33.98,8.14Z"/>
      <path class="cls-1" d="m117.63,222.12l.81,10.09,2.27-.18-.33-4.21,3.75-.3.34,4.21,2.28-.18-.8-10.09-2.27.18.31,3.89-3.76.3-.31-3.89-2.27.18Z"/>
      <path class="cls-1" d="m134.98,224.95l-3.72.18-.1-2.1,3.95-.19-.09-1.88-6.22.3.49,10.11,6.43-.32-.09-1.88-4.16.2-.12-2.4,3.72-.18-.09-1.86Z"/>
      <path class="cls-1" d="m147.23,230.74l2.28-.05-.09-4.07,3.63-.08-.04-1.86-3.63.09-.05-2.31,3.89-.09-.04-1.88-6.17.14.23,10.12Z"/>
      <path class="cls-1" d="m156.44,230.93l6.31.14.04-1.92-4.02-.09.18-8.2-2.29-.05-.22,10.12Z"/>
      <path class="cls-1" d="m171.51,225.28l-3.72-.17.1-2.1,3.95.18.09-1.88-6.23-.29-.46,10.11,6.44.3.09-1.88-4.16-.19.11-2.4,3.72.17.09-1.86Z"/>
      <path class="cls-1" d="m181.2,225.92l-3.72-.27.16-2.1,3.94.29.14-1.88-6.22-.46-.75,10.1,6.42.47.14-1.87-4.14-.31.18-2.39,3.71.27.14-1.85Z"/>
      <path class="cls-1" d="m186.34,232.56l2.26.23.87-8.15,2.75.29.2-1.91-7.74-.82-.2,1.91,2.72.28-.86,8.16Z"/>
      <path class="cls-2" d="m240.23,164.81c-.59,3.89-1.44,7.71-2.52,11.43l31.68,11.16.08-.27c.07,0,.15.01.22.01h.79c.26.18.52.3.79.38.39.41.94.67,1.55.67h.74c-.26.86-.53,1.72-.81,2.58l-.67,2.05-2.04-.71-35.63-12.56-1.92-.68.61-1.94c1.3-4.12,2.29-8.37,2.96-12.75.66-4.28,1-8.66,1-13.13,0-23.75-9.63-45.25-25.19-60.81-15.56-15.56-37.06-25.19-60.81-25.19s-45.25,9.62-60.81,25.19c-15.57,15.57-25.2,37.07-25.2,60.81h0c0,4.09.28,8.09.82,11.98.55,3.98,1.39,7.88,2.47,11.69l.55,1.91-1.88.66-35.67,12.58-2.07.73-.64-2.11-.18-.58c.39-.17.73-.45,1.06-.9.27-.11.52-.27.74-.48.9-.9,1.34-1.41,1.53-2.23.08.29.16.57.24.86l31.73-11.18c-.88-3.37-1.58-6.83-2.07-10.36-.57-4.13-.87-8.32-.87-12.56h0c0-24.92,10.09-47.48,26.42-63.8,16.33-16.33,38.88-26.43,63.8-26.43s47.47,10.1,63.8,26.43c16.32,16.32,26.42,38.88,26.42,63.8,0,4.67-.35,9.26-1.04,13.75h0Z"/>
      <path class="cls-4" d="m35.92,139.4l2.7-15.3,3.96.7-1.69,9.57,2.95.52,1.56-8.87,3.77.67-1.56,8.87,3.64.64,1.73-9.85,4.19.74-2.74,15.59-18.51-3.26Zm4.47-22.05l3.84-10.18c.64-1.7,1.55-2.84,2.73-3.43,1.18-.59,2.39-.66,3.63-.19,1.04.39,1.81,1.05,2.3,1.98.34.62.49,1.4.46,2.34.78-1.15,1.65-1.88,2.62-2.2.97-.32,2-.27,3.12.16.91.34,1.65.87,2.22,1.56.57.7.92,1.5,1.07,2.39.09.56.02,1.32-.2,2.28-.3,1.29-.53,2.12-.68,2.53l-3.54,9.38-17.59-6.63Zm8.96-2.88l.89-2.37c.32-.85.4-1.5.23-1.94-.17-.45-.53-.77-1.08-.98-.51-.19-.98-.18-1.39.05-.41.22-.78.75-1.09,1.58l-.91,2.41,3.34,1.26Zm6.9,2.6l1.05-2.77c.35-.94.43-1.66.25-2.17-.19-.51-.56-.87-1.12-1.08-.52-.2-1.01-.16-1.47.1-.46.26-.87.87-1.23,1.82l-1.04,2.76,3.56,1.34Zm-6.27-22.51l6.04-9.05c1.01-1.5,2.15-2.42,3.44-2.72,1.29-.31,2.48-.1,3.58.64.93.62,1.53,1.43,1.8,2.45.19.68.16,1.47-.08,2.38,1.02-.94,2.03-1.46,3.04-1.55,1.01-.09,2.02.2,3.01.86.81.54,1.41,1.21,1.81,2.02.39.81.56,1.67.5,2.57-.04.56-.28,1.29-.72,2.18-.58,1.18-.99,1.95-1.23,2.31l-5.57,8.34-15.64-10.43Zm9.39-.77l1.41-2.11c.5-.75.72-1.37.66-1.84-.06-.47-.34-.87-.83-1.2-.45-.3-.91-.39-1.36-.26-.46.12-.93.55-1.42,1.29l-1.43,2.14,2.97,1.98Zm6.14,4.09l1.64-2.46c.56-.83.8-1.52.74-2.06-.07-.54-.35-.97-.84-1.3-.46-.31-.94-.39-1.45-.24-.5.15-1.04.65-1.61,1.5l-1.64,2.45,3.17,2.11Zm6.66-13.25l3.6-4.18c.72.54,1.38.84,1.97.9.96.1,1.83-.24,2.61-1.04.58-.59.89-1.18.92-1.77.04-.59-.13-1.07-.5-1.43-.35-.34-.81-.5-1.38-.46-.57.03-1.52.49-2.85,1.36-2.19,1.42-4,2.18-5.44,2.3-1.44.12-2.68-.33-3.73-1.36-.69-.67-1.14-1.51-1.37-2.51-.22-1-.12-2.08.32-3.22.44-1.15,1.34-2.42,2.71-3.82,1.68-1.72,3.27-2.72,4.8-2.99,1.52-.28,3.06.18,4.62,1.38l-3.59,4.13c-.71-.49-1.37-.71-1.97-.65-.61.06-1.19.39-1.76.97-.47.48-.73.95-.76,1.39-.04.44.09.81.39,1.1.21.21.5.29.86.27.37-.02.98-.32,1.85-.9,2.16-1.43,3.83-2.34,5-2.73,1.17-.4,2.22-.48,3.16-.26.94.22,1.78.69,2.51,1.41.86.84,1.43,1.86,1.69,3.05.26,1.19.16,2.39-.3,3.62-.46,1.22-1.32,2.48-2.59,3.78-2.23,2.28-4.22,3.43-5.96,3.45-1.74.02-3.34-.57-4.81-1.78h0Zm8.07-24.91l11.76-8.23,2.32,3.31-6.99,4.89,1.88,2.69,5.98-4.18,2.18,3.12-5.98,4.18,4.4,6.28-4.77,3.34-10.78-15.4Zm17.92-11.59l5.33-2.29,5.6,13.02,8.34-3.59,1.82,4.24-13.67,5.88-7.43-17.27Zm19.29-7.77l15.12-3.57.92,3.91-9.45,2.24.69,2.91,8.76-2.07.88,3.73-8.76,2.07.85,3.6,9.73-2.3.98,4.14-15.4,3.64-4.33-18.29Zm22.24-4.4l15.53-.55.14,4.02-9.71.34.11,2.99,9-.32.13,3.83-9,.32.13,3.7,10-.36.15,4.25-15.82.56-.66-18.78Zm21.52-.34l17.4,3.07-.8,4.58-5.84-1.03-2.45,13.93-5.71-1,2.46-13.94-5.84-1.03.81-4.58Zm44.44,13.67l5.18,2.61-5.03,10c-.5.99-1.12,1.85-1.88,2.57-.75.73-1.63,1.25-2.62,1.58-.99.33-1.92.44-2.78.35-1.19-.14-2.5-.56-3.91-1.27-.82-.41-1.68-.92-2.59-1.51-.91-.6-1.6-1.24-2.08-1.9-.48-.67-.83-1.45-1.05-2.34-.22-.9-.27-1.73-.13-2.49.22-1.23.53-2.25.95-3.08l5.03-10,5.18,2.61-5.15,10.24c-.46.91-.57,1.76-.32,2.52.25.77.82,1.38,1.72,1.84.89.45,1.71.54,2.48.29.76-.25,1.37-.84,1.84-1.77l5.15-10.24Zm12.03,7.08l4.17,3.46-1.19,12.49,6.62-7.99,4.22,3.5-11.99,14.47-4.23-3.5,1.19-12.42-6.58,7.95-4.21-3.48,11.99-14.47Zm18.52,16.74l3.85,4.37-14.1,12.43-3.85-4.37,14.1-12.43Zm7.92,8.92l9.25,15.05-3.96,2.43-3.11-5.06-12.05,7.41-3.04-4.94,12.05-7.41-3.11-5.05,3.96-2.43Zm12.04,20.62l5.48,14.54-3.76,1.42-3.43-9.09-2.8,1.05,3.18,8.43-3.59,1.35-3.18-8.42-3.46,1.3,3.53,9.36-3.98,1.5-5.59-14.81,17.59-6.63Zm7.47,21.52l1.4,8.52c.28,1.67.27,3.07-.01,4.18-.29,1.11-.8,2.07-1.54,2.89-.74.82-1.65,1.47-2.73,1.95-1.08.49-2.25.84-3.52,1.05-1.98.32-3.55.35-4.72.08-1.16-.27-2.18-.75-3.05-1.43-.87-.68-1.5-1.46-1.9-2.34-.54-1.2-.9-2.32-1.07-3.33l-1.39-8.52,18.55-3.04Zm-3.26,6.41l-10.13,1.66.23,1.41c.19,1.2.47,2.04.82,2.5.35.46.88.79,1.59.96.72.18,1.81.15,3.29-.1,1.96-.32,3.25-.86,3.88-1.62.62-.76.8-1.89.56-3.38l-.23-1.43Z"/>
    </g>
  </g>
</svg>