<?xml version="1.0" encoding="UTF-8"?>
<svg id="Layer_2" data-name="Layer 2" xmlns="http://www.w3.org/2000/svg" xmlns:xlink="http://www.w3.org/1999/xlink" viewBox="0 0 33.56 19.58">
  <defs>
    <style>
      .cls-1 {
        clip-path: url(#clippath);
      }

      .cls-2 {
        fill: none;
      }

      .cls-2, .cls-3, .cls-4, .cls-5, .cls-6, .cls-7 {
        stroke-width: 0px;
      }

      .cls-8 {
        clip-path: url(#clippath-1);
      }

      .cls-9 {
        clip-path: url(#clippath-4);
      }

      .cls-10 {
        clip-path: url(#clippath-3);
      }

      .cls-11 {
        clip-path: url(#clippath-2);
      }

      .cls-12 {
        clip-path: url(#clippath-7);
      }

      .cls-13 {
        clip-path: url(#clippath-8);
      }

      .cls-14 {
        clip-path: url(#clippath-6);
      }

      .cls-15 {
        clip-path: url(#clippath-5);
      }

      .cls-16 {
        clip-path: url(#clippath-9);
      }

      .cls-17 {
        clip-path: url(#clippath-60);
      }

      .cls-18 {
        clip-path: url(#clippath-69);
      }

      .cls-19 {
        clip-path: url(#clippath-20);
      }

      .cls-20 {
        clip-path: url(#clippath-21);
      }

      .cls-21 {
        clip-path: url(#clippath-24);
      }

      .cls-22 {
        clip-path: url(#clippath-23);
      }

      .cls-23 {
        clip-path: url(#clippath-22);
      }

      .cls-24 {
        clip-path: url(#clippath-25);
      }

      .cls-25 {
        clip-path: url(#clippath-40);
      }

      .cls-26 {
        clip-path: url(#clippath-42);
      }

      .cls-27 {
        clip-path: url(#clippath-41);
      }

      .cls-28 {
        clip-path: url(#clippath-47);
      }

      .cls-29 {
        clip-path: url(#clippath-43);
      }

      .cls-30 {
        clip-path: url(#clippath-46);
      }

      .cls-31 {
        clip-path: url(#clippath-48);
      }

      .cls-32 {
        clip-path: url(#clippath-49);
      }

      .cls-33 {
        clip-path: url(#clippath-84);
      }

      .cls-34 {
        clip-path: url(#clippath-88);
      }

      .cls-35 {
        clip-path: url(#clippath-86);
      }

      .cls-36 {
        clip-path: url(#clippath-81);
      }

      .cls-37 {
        clip-path: url(#clippath-83);
      }

      .cls-38 {
        clip-path: url(#clippath-85);
      }

      .cls-39 {
        clip-path: url(#clippath-80);
      }

      .cls-40 {
        clip-path: url(#clippath-87);
      }

      .cls-41 {
        clip-path: url(#clippath-82);
      }

      .cls-42 {
        clip-path: url(#clippath-98);
      }

      .cls-43 {
        clip-path: url(#clippath-89);
      }

      .cls-44 {
        clip-path: url(#clippath-27);
      }

      .cls-45 {
        clip-path: url(#clippath-28);
      }

      .cls-46 {
        clip-path: url(#clippath-26);
      }

      .cls-47 {
        clip-path: url(#clippath-29);
      }

      .cls-48 {
        clip-path: url(#clippath-34);
      }

      .cls-49 {
        clip-path: url(#clippath-35);
      }

      .cls-50 {
        clip-path: url(#clippath-36);
      }

      .cls-51 {
        clip-path: url(#clippath-37);
      }

      .cls-52 {
        clip-path: url(#clippath-39);
      }

      .cls-53 {
        clip-path: url(#clippath-33);
      }

      .cls-54 {
        clip-path: url(#clippath-32);
      }

      .cls-55 {
        clip-path: url(#clippath-30);
      }

      .cls-56 {
        clip-path: url(#clippath-38);
      }

      .cls-57 {
        clip-path: url(#clippath-31);
      }

      .cls-58 {
        clip-path: url(#clippath-95);
      }

      .cls-59 {
        clip-path: url(#clippath-99);
      }

      .cls-60 {
        clip-path: url(#clippath-93);
      }

      .cls-61 {
        clip-path: url(#clippath-94);
      }

      .cls-62 {
        clip-path: url(#clippath-91);
      }

      .cls-63 {
        clip-path: url(#clippath-96);
      }

      .cls-64 {
        clip-path: url(#clippath-90);
      }

      .cls-65 {
        clip-path: url(#clippath-92);
      }

      .cls-66 {
        clip-path: url(#clippath-97);
      }

      .cls-67 {
        clip-path: url(#clippath-53);
      }

      .cls-68 {
        clip-path: url(#clippath-54);
      }

      .cls-69 {
        clip-path: url(#clippath-50);
      }

      .cls-70 {
        clip-path: url(#clippath-51);
      }

      .cls-71 {
        clip-path: url(#clippath-52);
      }

      .cls-72 {
        clip-path: url(#clippath-55);
      }

      .cls-73 {
        clip-path: url(#clippath-56);
      }

      .cls-74 {
        clip-path: url(#clippath-57);
      }

      .cls-75 {
        clip-path: url(#clippath-58);
      }

      .cls-76 {
        clip-path: url(#clippath-79);
      }

      .cls-77 {
        clip-path: url(#clippath-61);
      }

      .cls-78 {
        clip-path: url(#clippath-64);
      }

      .cls-79 {
        clip-path: url(#clippath-62);
      }

      .cls-80 {
        clip-path: url(#clippath-68);
      }

      .cls-81 {
        clip-path: url(#clippath-67);
      }

      .cls-82 {
        clip-path: url(#clippath-73);
      }

      .cls-83 {
        clip-path: url(#clippath-59);
      }

      .cls-84 {
        clip-path: url(#clippath-65);
      }

      .cls-85 {
        clip-path: url(#clippath-63);
      }

      .cls-86 {
        clip-path: url(#clippath-66);
      }

      .cls-87 {
        clip-path: url(#clippath-70);
      }

      .cls-88 {
        clip-path: url(#clippath-75);
      }

      .cls-89 {
        clip-path: url(#clippath-72);
      }

      .cls-90 {
        clip-path: url(#clippath-78);
      }

      .cls-91 {
        clip-path: url(#clippath-71);
      }

      .cls-92 {
        clip-path: url(#clippath-77);
      }

      .cls-93 {
        clip-path: url(#clippath-74);
      }

      .cls-94 {
        clip-path: url(#clippath-76);
      }

      .cls-95 {
        clip-path: url(#clippath-14);
      }

      .cls-96 {
        clip-path: url(#clippath-13);
      }

      .cls-97 {
        clip-path: url(#clippath-12);
      }

      .cls-98 {
        clip-path: url(#clippath-10);
      }

      .cls-99 {
        clip-path: url(#clippath-15);
      }

      .cls-100 {
        clip-path: url(#clippath-17);
      }

      .cls-101 {
        clip-path: url(#clippath-16);
      }

      .cls-102 {
        clip-path: url(#clippath-19);
      }

      .cls-103 {
        clip-path: url(#clippath-11);
      }

      .cls-104 {
        clip-path: url(#clippath-18);
      }

      .cls-4 {
        fill: #f4d134;
      }

      .cls-5 {
        fill: #bc0030;
      }

      .cls-6 {
        fill: #fff;
      }

      .cls-7 {
        fill: #f0c727;
      }

      .cls-105 {
        clip-path: url(#clippath-113);
      }

      .cls-106 {
        clip-path: url(#clippath-112);
      }

      .cls-107 {
        clip-path: url(#clippath-111);
      }

      .cls-108 {
        clip-path: url(#clippath-110);
      }

      .cls-109 {
        clip-path: url(#clippath-115);
      }

      .cls-110 {
        clip-path: url(#clippath-114);
      }

      .cls-111 {
        clip-path: url(#clippath-116);
      }

      .cls-112 {
        clip-path: url(#clippath-117);
      }

      .cls-113 {
        clip-path: url(#clippath-118);
      }

      .cls-114 {
        clip-path: url(#clippath-119);
      }

      .cls-115 {
        clip-path: url(#clippath-105);
      }

      .cls-116 {
        clip-path: url(#clippath-100);
      }

      .cls-117 {
        clip-path: url(#clippath-102);
      }

      .cls-118 {
        clip-path: url(#clippath-103);
      }

      .cls-119 {
        clip-path: url(#clippath-107);
      }

      .cls-120 {
        clip-path: url(#clippath-109);
      }

      .cls-121 {
        clip-path: url(#clippath-104);
      }

      .cls-122 {
        clip-path: url(#clippath-101);
      }

      .cls-123 {
        clip-path: url(#clippath-108);
      }

      .cls-124 {
        clip-path: url(#clippath-106);
      }

      .cls-125 {
        clip-path: url(#clippath-122);
      }

      .cls-126 {
        clip-path: url(#clippath-120);
      }

      .cls-127 {
        clip-path: url(#clippath-121);
      }

      .cls-128 {
        clip-path: url(#clippath-123);
      }

      .cls-129 {
        clip-path: url(#clippath-124);
      }
    </style>
    <clipPath id="clippath">
      <rect class="cls-2" width="33.56" height="19.58"/>
    </clipPath>
    <clipPath id="clippath-1">
      <rect class="cls-2" width="33.56" height="19.58"/>
    </clipPath>
    <clipPath id="clippath-2">
      <rect class="cls-2" width="33.56" height="19.58"/>
    </clipPath>
    <clipPath id="clippath-3">
      <rect class="cls-2" width="33.56" height="19.58"/>
    </clipPath>
    <clipPath id="clippath-4">
      <rect class="cls-2" width="33.56" height="19.58"/>
    </clipPath>
    <clipPath id="clippath-5">
      <rect class="cls-2" width="33.56" height="19.58"/>
    </clipPath>
    <clipPath id="clippath-6">
      <rect class="cls-2" width="33.56" height="19.58"/>
    </clipPath>
    <clipPath id="clippath-7">
      <rect class="cls-2" width="33.56" height="19.58"/>
    </clipPath>
    <clipPath id="clippath-8">
      <rect class="cls-2" width="33.56" height="19.58"/>
    </clipPath>
    <clipPath id="clippath-9">
      <rect class="cls-2" width="33.56" height="19.58"/>
    </clipPath>
    <clipPath id="clippath-10">
      <rect class="cls-2" width="33.56" height="19.58"/>
    </clipPath>
    <clipPath id="clippath-11">
      <rect class="cls-2" width="33.56" height="19.58"/>
    </clipPath>
    <clipPath id="clippath-12">
      <rect class="cls-2" width="33.56" height="19.58"/>
    </clipPath>
    <clipPath id="clippath-13">
      <rect class="cls-2" width="33.56" height="19.58"/>
    </clipPath>
    <clipPath id="clippath-14">
      <rect class="cls-2" width="33.56" height="19.58"/>
    </clipPath>
    <clipPath id="clippath-15">
      <rect class="cls-2" width="33.56" height="19.58"/>
    </clipPath>
    <clipPath id="clippath-16">
      <rect class="cls-2" width="33.56" height="19.58"/>
    </clipPath>
    <clipPath id="clippath-17">
      <rect class="cls-2" width="33.56" height="19.58"/>
    </clipPath>
    <clipPath id="clippath-18">
      <rect class="cls-2" width="33.56" height="19.58"/>
    </clipPath>
    <clipPath id="clippath-19">
      <rect class="cls-2" width="33.56" height="19.58"/>
    </clipPath>
    <clipPath id="clippath-20">
      <rect class="cls-2" width="33.56" height="19.58"/>
    </clipPath>
    <clipPath id="clippath-21">
      <rect class="cls-2" width="33.56" height="19.58"/>
    </clipPath>
    <clipPath id="clippath-22">
      <rect class="cls-2" width="33.56" height="19.58"/>
    </clipPath>
    <clipPath id="clippath-23">
      <rect class="cls-2" width="33.56" height="19.58"/>
    </clipPath>
    <clipPath id="clippath-24">
      <rect class="cls-2" width="33.56" height="19.58"/>
    </clipPath>
    <clipPath id="clippath-25">
      <rect class="cls-2" width="33.56" height="19.58"/>
    </clipPath>
    <clipPath id="clippath-26">
      <rect class="cls-2" width="33.56" height="19.58"/>
    </clipPath>
    <clipPath id="clippath-27">
      <rect class="cls-2" width="33.56" height="19.58"/>
    </clipPath>
    <clipPath id="clippath-28">
      <rect class="cls-2" width="33.56" height="19.58"/>
    </clipPath>
    <clipPath id="clippath-29">
      <rect class="cls-2" width="33.56" height="19.58"/>
    </clipPath>
    <clipPath id="clippath-30">
      <rect class="cls-2" width="33.56" height="19.58"/>
    </clipPath>
    <clipPath id="clippath-31">
      <rect class="cls-2" width="33.56" height="19.58"/>
    </clipPath>
    <clipPath id="clippath-32">
      <rect class="cls-2" width="33.56" height="19.58"/>
    </clipPath>
    <clipPath id="clippath-33">
      <rect class="cls-2" width="33.56" height="19.58"/>
    </clipPath>
    <clipPath id="clippath-34">
      <rect class="cls-2" width="33.56" height="19.58"/>
    </clipPath>
    <clipPath id="clippath-35">
      <rect class="cls-2" width="33.56" height="19.58"/>
    </clipPath>
    <clipPath id="clippath-36">
      <rect class="cls-2" width="33.56" height="19.58"/>
    </clipPath>
    <clipPath id="clippath-37">
      <rect class="cls-2" width="33.56" height="19.58"/>
    </clipPath>
    <clipPath id="clippath-38">
      <rect class="cls-2" width="33.56" height="19.58"/>
    </clipPath>
    <clipPath id="clippath-39">
      <rect class="cls-2" width="33.56" height="19.58"/>
    </clipPath>
    <clipPath id="clippath-40">
      <rect class="cls-2" width="33.56" height="19.58"/>
    </clipPath>
    <clipPath id="clippath-41">
      <rect class="cls-2" width="33.56" height="19.58"/>
    </clipPath>
    <clipPath id="clippath-42">
      <rect class="cls-2" width="33.56" height="19.58"/>
    </clipPath>
    <clipPath id="clippath-43">
      <rect class="cls-2" width="33.56" height="19.58"/>
    </clipPath>
    <clipPath id="clippath-46">
      <rect class="cls-2" width="33.56" height="19.58"/>
    </clipPath>
    <clipPath id="clippath-47">
      <rect class="cls-2" width="33.56" height="19.58"/>
    </clipPath>
    <clipPath id="clippath-48">
      <rect class="cls-2" width="33.56" height="19.58"/>
    </clipPath>
    <clipPath id="clippath-49">
      <rect class="cls-2" width="33.56" height="19.58"/>
    </clipPath>
    <clipPath id="clippath-50">
      <rect class="cls-2" width="33.56" height="19.58"/>
    </clipPath>
    <clipPath id="clippath-51">
      <rect class="cls-2" width="33.56" height="19.58"/>
    </clipPath>
    <clipPath id="clippath-52">
      <rect class="cls-2" width="33.56" height="19.58"/>
    </clipPath>
    <clipPath id="clippath-53">
      <rect class="cls-2" width="33.56" height="19.58"/>
    </clipPath>
    <clipPath id="clippath-54">
      <rect class="cls-2" width="33.56" height="19.58"/>
    </clipPath>
    <clipPath id="clippath-55">
      <rect class="cls-2" width="33.56" height="19.58"/>
    </clipPath>
    <clipPath id="clippath-56">
      <rect class="cls-2" width="33.56" height="19.58"/>
    </clipPath>
    <clipPath id="clippath-57">
      <rect class="cls-2" width="33.56" height="19.58"/>
    </clipPath>
    <clipPath id="clippath-58">
      <rect class="cls-2" width="33.56" height="19.58"/>
    </clipPath>
    <clipPath id="clippath-59">
      <rect class="cls-2" width="33.56" height="19.58"/>
    </clipPath>
    <clipPath id="clippath-60">
      <rect class="cls-2" width="33.56" height="19.58"/>
    </clipPath>
    <clipPath id="clippath-61">
      <rect class="cls-2" width="33.56" height="19.58"/>
    </clipPath>
    <clipPath id="clippath-62">
      <rect class="cls-2" width="33.56" height="19.58"/>
    </clipPath>
    <clipPath id="clippath-63">
      <rect class="cls-2" width="33.56" height="19.58"/>
    </clipPath>
    <clipPath id="clippath-64">
      <rect class="cls-2" width="33.56" height="19.58"/>
    </clipPath>
    <clipPath id="clippath-65">
      <rect class="cls-2" width="33.56" height="19.58"/>
    </clipPath>
    <clipPath id="clippath-66">
      <rect class="cls-2" width="33.56" height="19.58"/>
    </clipPath>
    <clipPath id="clippath-67">
      <rect class="cls-2" width="33.56" height="19.58"/>
    </clipPath>
    <clipPath id="clippath-68">
      <rect class="cls-2" width="33.56" height="19.58"/>
    </clipPath>
    <clipPath id="clippath-69">
      <rect class="cls-2" width="33.56" height="19.58"/>
    </clipPath>
    <clipPath id="clippath-70">
      <rect class="cls-2" width="33.56" height="19.58"/>
    </clipPath>
    <clipPath id="clippath-71">
      <rect class="cls-2" width="33.56" height="19.58"/>
    </clipPath>
    <clipPath id="clippath-72">
      <rect class="cls-2" width="33.56" height="19.58"/>
    </clipPath>
    <clipPath id="clippath-73">
      <rect class="cls-2" width="33.56" height="19.58"/>
    </clipPath>
    <clipPath id="clippath-74">
      <rect class="cls-2" width="33.56" height="19.58"/>
    </clipPath>
    <clipPath id="clippath-75">
      <rect class="cls-2" width="33.56" height="19.58"/>
    </clipPath>
    <clipPath id="clippath-76">
      <rect class="cls-2" width="33.56" height="19.58"/>
    </clipPath>
    <clipPath id="clippath-77">
      <rect class="cls-2" width="33.56" height="19.58"/>
    </clipPath>
    <clipPath id="clippath-78">
      <rect class="cls-2" width="33.56" height="19.58"/>
    </clipPath>
    <clipPath id="clippath-79">
      <rect class="cls-2" width="33.56" height="19.58"/>
    </clipPath>
    <clipPath id="clippath-80">
      <rect class="cls-2" width="33.56" height="19.58"/>
    </clipPath>
    <clipPath id="clippath-81">
      <rect class="cls-2" width="33.56" height="19.58"/>
    </clipPath>
    <clipPath id="clippath-82">
      <rect class="cls-2" width="33.56" height="19.58"/>
    </clipPath>
    <clipPath id="clippath-83">
      <rect class="cls-2" width="33.56" height="19.58"/>
    </clipPath>
    <clipPath id="clippath-84">
      <rect class="cls-2" width="33.56" height="19.58"/>
    </clipPath>
    <clipPath id="clippath-85">
      <rect class="cls-2" width="33.56" height="19.58"/>
    </clipPath>
    <clipPath id="clippath-86">
      <rect class="cls-2" width="33.56" height="19.58"/>
    </clipPath>
    <clipPath id="clippath-87">
      <rect class="cls-2" width="33.56" height="19.58"/>
    </clipPath>
    <clipPath id="clippath-88">
      <rect class="cls-2" width="33.56" height="19.58"/>
    </clipPath>
    <clipPath id="clippath-89">
      <rect class="cls-2" width="33.56" height="19.58"/>
    </clipPath>
    <clipPath id="clippath-90">
      <rect class="cls-2" width="33.56" height="19.58"/>
    </clipPath>
    <clipPath id="clippath-91">
      <rect class="cls-2" width="33.56" height="19.58"/>
    </clipPath>
    <clipPath id="clippath-92">
      <rect class="cls-2" width="33.56" height="19.58"/>
    </clipPath>
    <clipPath id="clippath-93">
      <rect class="cls-2" width="33.56" height="19.58"/>
    </clipPath>
    <clipPath id="clippath-94">
      <rect class="cls-2" width="33.56" height="19.58"/>
    </clipPath>
    <clipPath id="clippath-95">
      <rect class="cls-2" width="33.56" height="19.58"/>
    </clipPath>
    <clipPath id="clippath-96">
      <rect class="cls-2" width="33.56" height="19.58"/>
    </clipPath>
    <clipPath id="clippath-97">
      <rect class="cls-2" width="33.56" height="19.58"/>
    </clipPath>
    <clipPath id="clippath-98">
      <rect class="cls-2" width="33.56" height="19.58"/>
    </clipPath>
    <clipPath id="clippath-99">
      <rect class="cls-2" width="33.56" height="19.58"/>
    </clipPath>
    <clipPath id="clippath-100">
      <rect class="cls-2" width="33.56" height="19.58"/>
    </clipPath>
    <clipPath id="clippath-101">
      <rect class="cls-2" width="33.56" height="19.58"/>
    </clipPath>
    <clipPath id="clippath-102">
      <rect class="cls-2" width="33.56" height="19.58"/>
    </clipPath>
    <clipPath id="clippath-103">
      <rect class="cls-2" width="33.56" height="19.58"/>
    </clipPath>
    <clipPath id="clippath-104">
      <rect class="cls-2" width="33.56" height="19.58"/>
    </clipPath>
    <clipPath id="clippath-105">
      <rect class="cls-2" width="33.56" height="19.58"/>
    </clipPath>
    <clipPath id="clippath-106">
      <rect class="cls-2" width="33.56" height="19.58"/>
    </clipPath>
    <clipPath id="clippath-107">
      <rect class="cls-2" width="33.56" height="19.58"/>
    </clipPath>
    <clipPath id="clippath-108">
      <rect class="cls-2" width="33.56" height="19.58"/>
    </clipPath>
    <clipPath id="clippath-109">
      <rect class="cls-2" width="33.56" height="19.58"/>
    </clipPath>
    <clipPath id="clippath-110">
      <rect class="cls-2" width="33.56" height="19.58"/>
    </clipPath>
    <clipPath id="clippath-111">
      <rect class="cls-2" width="33.56" height="19.58"/>
    </clipPath>
    <clipPath id="clippath-112">
      <rect class="cls-2" width="33.56" height="19.58"/>
    </clipPath>
    <clipPath id="clippath-113">
      <rect class="cls-2" width="33.56" height="19.58"/>
    </clipPath>
    <clipPath id="clippath-114">
      <rect class="cls-2" width="33.56" height="19.58"/>
    </clipPath>
    <clipPath id="clippath-115">
      <rect class="cls-2" width="33.56" height="19.58"/>
    </clipPath>
    <clipPath id="clippath-116">
      <rect class="cls-2" width="33.56" height="19.58"/>
    </clipPath>
    <clipPath id="clippath-117">
      <rect class="cls-2" width="33.56" height="19.58"/>
    </clipPath>
    <clipPath id="clippath-118">
      <rect class="cls-2" width="33.56" height="19.58"/>
    </clipPath>
    <clipPath id="clippath-119">
      <rect class="cls-2" width="33.56" height="19.58"/>
    </clipPath>
    <clipPath id="clippath-120">
      <rect class="cls-2" width="33.56" height="19.58"/>
    </clipPath>
    <clipPath id="clippath-121">
      <rect class="cls-2" width="33.56" height="19.58"/>
    </clipPath>
    <clipPath id="clippath-122">
      <rect class="cls-2" width="33.56" height="19.58"/>
    </clipPath>
    <clipPath id="clippath-123">
      <rect class="cls-2" width="33.56" height="19.58"/>
    </clipPath>
    <clipPath id="clippath-124">
      <rect class="cls-2" width="33.56" height="19.58"/>
    </clipPath>
  </defs>
  <g id="Layer_1-2" data-name="Layer 1">
    <g id="EGYPT">
      <g>
        <g class="cls-1">
          <rect class="cls-3" y="13.05" width="33.56" height="6.53"/>
        </g>
        <g class="cls-8">
          <g class="cls-11">
            <path class="cls-3" d="m33.6,19.61H-.03v-6.59h33.63v6.59h0ZM.04,19.55h33.5v-6.46H.04v6.46H.04Z"/>
          </g>
        </g>
        <g class="cls-10">
          <rect class="cls-6" y="6.53" width="33.56" height="6.52"/>
        </g>
        <g class="cls-9">
          <g class="cls-15">
            <path class="cls-6" d="m33.6,13.09H-.03v-6.59h33.63v6.59h0ZM.04,13.02h33.5v-6.46H.04v6.46H.04Z"/>
          </g>
        </g>
        <g class="cls-14">
          <rect class="cls-5" width="33.56" height="6.53"/>
        </g>
        <g class="cls-12">
          <g>
            <g class="cls-13">
              <path class="cls-5" d="m33.6,6.56H-.03V-.03h33.63v6.59h0ZM.04,6.49h33.5V.04H.04v6.46H.04Z"/>
            </g>
            <g class="cls-16">
              <path class="cls-6" d="m16.6,12.88c.64,0,1.25-.05,1.61-.15.15-.02.15-.11.15-.21.15-.05.07-.23.18-.23-.11.03-.13-.18-.26-.15,0-.18-.18-.21-.33-.16-.3.1-.85.12-1.36.12-.51-.02-1.05-.02-1.36-.12-.15-.05-.33-.03-.33.16-.13-.03-.15.18-.26.15.11,0,.03.18.18.23,0,.1,0,.18.16.21.35.1.97.15,1.61.15h0Z"/>
            </g>
            <g class="cls-98">
              <path class="cls-7" d="m16.6,12.95c-.69,0-1.28-.06-1.63-.15-.18-.03-.2-.14-.2-.23-.08-.05-.1-.13-.11-.18,0-.01,0-.02-.01-.03h-.01s-.05-.04-.05-.07c0-.03.03-.05.07-.05h.02s.04-.03.05-.05c.03-.04.07-.09.14-.11.03-.15.21-.21.41-.15.25.08.64.1,1.07.11h.27c.65.01,1.09-.03,1.34-.11.2-.06.38,0,.41.16.07.02.11.06.14.1.02.02.04.04.04.05h.02s.06.02.07.05c0,.04-.02.06-.05.07,0,0,0,0-.01,0,0,0,0,0,0,0h0s0,.02,0,.03c-.01.05-.03.13-.11.18,0,.09-.02.2-.2.23-.34.09-.94.15-1.63.15h0Zm-1.83-.63s.01.03.02.05c.01.05.02.08.06.1.02,0,.04.03.04.06,0,.1,0,.13.11.15.33.1.93.15,1.6.15s1.26-.05,1.6-.15c.11-.02.11-.05.11-.15,0-.03.02-.05.04-.06.05-.02.05-.04.07-.1,0-.02,0-.04.01-.05-.01-.02-.03-.04-.05-.05-.03-.04-.05-.06-.07-.06-.02,0-.04,0-.06-.02-.01-.01-.03-.03-.03-.04,0-.03,0-.12-.13-.12-.04,0-.08,0-.12.02-.26.09-.71.12-1.38.12h-.28c-.43-.03-.84-.04-1.1-.12-.04-.02-.08-.02-.12-.02-.13,0-.13.09-.13.12,0,.02-.01.03-.02.04-.01.02-.03.02-.05.02-.04,0-.05.02-.08.06-.01.02-.03.04-.05.05h0Z"/>
            </g>
            <g class="cls-103">
              <path class="cls-4" d="m15.14,12.24c-.05,0-.05.03,0,.03.02,0,.02-.03,0-.03h0Z"/>
            </g>
            <g class="cls-97">
              <path class="cls-7" d="m15.14,12.31c-.07,0-.07-.04-.07-.05,0-.03.04-.05.07-.05.02,0,.05.03.05.05,0,.02-.03.05-.05.05h0Z"/>
            </g>
            <g class="cls-96">
              <path class="cls-4" d="m15.14,12.14s-.03.05,0,.05c.05,0,.05-.05,0-.05h0Z"/>
            </g>
            <g class="cls-95">
              <path class="cls-7" d="m15.14,12.22s-.05-.04-.05-.05c0-.02.04-.06.05-.06.05,0,.07.03.07.06s-.02.05-.07.05h0Z"/>
            </g>
            <g class="cls-99">
              <path class="cls-4" d="m15.14,12.52s-.03.05,0,.05c.02,0,.02-.05,0-.05h0Z"/>
            </g>
            <g class="cls-101">
              <path class="cls-7" d="m15.14,12.61s-.05-.04-.05-.06.04-.06.05-.06c.02,0,.05.04.05.06s-.03.06-.05.06h0Z"/>
            </g>
            <g class="cls-100">
              <path class="cls-4" d="m15.24,12.55s-.05.05,0,.05c.03,0,.03-.05,0-.05h0Z"/>
            </g>
            <g class="cls-104">
              <path class="cls-7" d="m15.24,12.64s-.07-.03-.07-.06c0-.03.04-.06.07-.06.02,0,.06.04.06.06,0,.03-.03.06-.06.06h0Z"/>
            </g>
            <g class="cls-102">
              <path class="cls-4" d="m15.34,12.57s-.02.05,0,.05c.05,0,.05-.05,0-.05h0Z"/>
            </g>
            <g class="cls-19">
              <path class="cls-7" d="m15.34,12.66s-.05-.04-.05-.06c0-.02.03-.05.05-.05.05,0,.08.03.08.05,0,.03-.02.06-.08.06h0Z"/>
            </g>
            <g class="cls-20">
              <path class="cls-4" d="m16.93,12.32s-.03.05,0,.05c.02,0,.02-.05,0-.05h0Z"/>
            </g>
            <g class="cls-23">
              <path class="cls-7" d="m16.93,12.41s-.05-.04-.05-.06.03-.06.05-.06c.02,0,.05.04.05.06s-.04.06-.05.06h0Z"/>
            </g>
            <g class="cls-22">
              <path class="cls-4" d="m16.96,12.42c-.05,0-.05.02,0,.02.03,0,.03-.02,0-.02h0Z"/>
            </g>
            <g class="cls-21">
              <path class="cls-2" d="m16.96,12.42c-.05,0-.05.02,0,.02.03,0,.03-.02,0-.02Z"/>
            </g>
            <g class="cls-24">
              <path class="cls-4" d="m17.03,12.68s-.03.05,0,.05c.02,0,.02-.05,0-.05h0Z"/>
            </g>
            <g class="cls-46">
              <path class="cls-7" d="m17.03,12.77s-.05-.04-.05-.07c0-.02.03-.06.05-.06.02,0,.05.04.05.06,0,.02-.04.07-.05.07h0Z"/>
            </g>
            <g class="cls-44">
              <path class="cls-4" d="m17.14,12.68c-.05,0-.05.05,0,.05.02,0,.02-.05,0-.05h0Z"/>
            </g>
            <g class="cls-45">
              <path class="cls-7" d="m17.14,12.77c-.05,0-.08-.04-.08-.07,0-.03.02-.06.08-.06.02,0,.05.04.05.06,0,.03-.03.07-.05.07h0Z"/>
            </g>
            <g class="cls-47">
              <path class="cls-4" d="m18.19,12.47c-.05,0-.05.03,0,.03.02,0,.02-.03,0-.03h0Z"/>
            </g>
            <g class="cls-55">
              <path class="cls-7" d="m18.19,12.54c-.07,0-.07-.04-.07-.05,0-.03.04-.05.07-.05.02,0,.05.03.05.05,0,.02-.04.05-.05.05h0Z"/>
            </g>
            <g class="cls-57">
              <path class="cls-7" d="m15.42,12.57s-.04,0-.06-.01c-.02,0-.05-.02-.08-.04-.02,0-.05,0-.08-.02-.02,0-.07-.04-.07-.12.02-.05.04-.12.06-.2l.02-.06s.02-.03.04-.02c.02,0,.03.02.02.04l-.02.07c-.02.08-.04.15-.06.2,0,.01.02.03.02.03.02,0,.04.02.05.02,0-.02.01-.04.01-.05,0-.05.02-.07.04-.08,0,0,.01.02.02.04h.01s0,.02,0,.03h0s-.01.06-.02.07c0,0,.01.01.04.02.02,0,.04.01.05,0,.02,0,.02-.04.03-.09h.01s-.03-.04-.03-.04c0-.01.03-.02.05-.02.01,0,.04.05.04.06-.01.06-.03.11-.07.14-.02.01-.03.01-.05.01h0Z"/>
            </g>
            <g class="cls-54">
              <path class="cls-7" d="m15.21,12.51h0c-.08-.02-.13-.07-.13-.11,0-.03.02-.07.11-.08.02,0,.04,0,.04.03,0,.02-.01.03-.03.04-.04,0-.05.02-.05.02,0,0,.02.03.08.04.02,0,.02.03.02.04,0,.02-.01.03-.03.03h0Z"/>
            </g>
            <g class="cls-53">
              <path class="cls-7" d="m15.95,12.72s-.04-.01-.05-.02c0,.01-.06,0-.06-.1-.01,0-.04,0-.06-.02-.07.03-.14.04-.19.02-.02.03-.04.05-.06.06-.02,0-.04,0-.05-.02-.01-.02,0-.04.02-.05s.03-.02.04-.04c-.01-.02-.01-.04-.01-.05,0-.02-.02-.05,0-.07.06,0,.08.01.09.06,0,.02,0,.04,0,.05.02,0,.06,0,.1,0-.03-.04-.03-.08-.01-.11.02-.05.07-.07.12-.05.04.02.06.05.06.1,0,.04-.01.07-.04.09.02,0,.02.02.04.02.02.07.03.07.04.07h0s.04-.04.04-.09v-.23s.07-.04.07,0v.23c0,.06-.04.14-.08.16,0,0,0,0,0,0h0Z"/>
            </g>
            <g class="cls-48">
              <path class="cls-7" d="m16.09,12.64s-.04-.02-.04-.04c0-.04,0-.09.02-.15,0-.05.01-.09.01-.13,0-.04.07-.04.07,0s0,.09-.01.14c0,.05-.01.11-.01.14,0,.02-.01.03-.03.03h0Z"/>
            </g>
            <g class="cls-49">
              <path class="cls-7" d="m16.16,12.79s-.02,0-.02-.01c-.01-.02-.01-.04,0-.05.05-.04.07-.07.08-.1-.02,0-.03-.02-.04-.03-.02-.03-.02-.06,0-.08,0-.01.04-.02.05-.02.02,0,.05.03.07.07,0,0,0,.02,0,.02h.02s.01,0,.01-.05c-.01-.01-.02-.02-.02-.04,0-.02.02-.06.04-.06.02,0,.04.03.05.04h.05c.06.03.16.03.18.01.06-.01.08.03.08.1,0,0-.01.05-.02.05-.02.05-.03.08-.06.09-.03,0-.06-.02-.08-.04-.01-.04-.01-.04-.05-.04h-.18s-.02,0-.03,0c-.01.04-.04.08-.11.12,0,0-.01,0-.02,0h0Zm.23-.2h.11c.09,0,.11.05.11.09l.03-.05s0-.04,0-.05c-.06.02-.16,0-.21-.02,0,0-.02,0-.03,0,0,.01,0,.02,0,.03h0Z"/>
            </g>
            <g class="cls-50">
              <path class="cls-7" d="m16.78,12.66s-.02,0-.02,0c-.02,0-.04,0-.05,0-.02,0-.05-.02-.05-.03,0-.02,0-.04.02-.04v.04l.02-.04s.02,0,.04,0c0-.04.01-.06.02-.07.02-.03.05-.03.08-.02.03.02.05.05.05.08,0,.05-.08.09-.11.09h0Z"/>
            </g>
            <g class="cls-51">
              <path class="cls-7" d="m16.99,12.65s-.02,0-.03,0c-.01,0-.03-.03-.03-.05.03-.04.06-.06.09-.07,0-.05,0-.13-.01-.2,0-.02,0-.04.02-.04.02,0,.04,0,.04.03.02.06.03.16.02.23,0,0,.05.02.05.02.02,0,.04-.01.04-.06-.02-.02-.04-.05-.03-.07,0-.02.04-.03.05-.02.01,0,.04.04.04.05,0,0,0,.02,0,.02,0,0,0,0,0,.01,0,.1-.03.13-.11.13-.04.02-.06,0-.08,0,0,0,0,0,0,0-.02.02-.05.03-.07.03h0Z"/>
            </g>
            <g class="cls-56">
              <path class="cls-7" d="m17.29,12.74s-.02,0-.02-.01c-.01,0-.01-.04,0-.05.02-.02.04-.05.05-.09-.06-.03-.07-.07-.07-.09,0-.02,0-.06.04-.08.04,0,.07.02.1.05.04.08-.01.2-.07.25,0,0-.01.01-.03.01h0Z"/>
            </g>
            <g class="cls-52">
              <path class="cls-7" d="m17.47,12.69s-.03-.01-.03-.02c0-.02,0-.04.02-.05.02,0,.04-.02.05-.04-.05,0-.08-.02-.08-.05,0-.04.01-.07.05-.1.01,0,.05-.02.06-.01.03.01.04.04.05.09.09-.02.22-.05.3-.1.01-.01.04,0,.05,0,.01.02,0,.04-.01.05-.11.07-.25.1-.34.11-.01.04-.03.08-.09.1,0,0,0,0-.01,0h0Z"/>
            </g>
            <g class="cls-25">
              <path class="cls-7" d="m17.78,12.59s-.02,0-.04,0c-.02-.03-.04-.06-.05-.1,0,.02,0,.03,0,.04,0,.04-.07.04-.07,0,0-.05.02-.1.05-.12,0,0,0-.02,0-.02l-.02-.1s0-.04.02-.04c.02,0,.04,0,.05.03l.02.1s0,0,0,0c.01,0,.04,0,.06,0,.04.02.06.05.06.09.01.02,0,.06-.02.09-.02.02-.04.02-.07.02h0Z"/>
            </g>
            <g class="cls-27">
              <path class="cls-7" d="m17.97,12.52s-.08-.03-.1-.07c0,0,0-.05,0-.06.04-.07.16-.07.21-.03.02.04.01.07,0,.1-.02.03-.07.05-.11.05h0Z"/>
            </g>
            <g class="cls-26">
              <path class="cls-2" d="m18.06,12.42s.05-.03.08-.05l-.08.05Z"/>
            </g>
            <g class="cls-29">
              <path class="cls-7" d="m18.18,12.43s-.03,0-.04,0c-.06-.03-.09-.11-.09-.23,0-.02,0-.04-.02-.04-.02-.01-.05,0-.07.02-.02.01-.04.01-.05,0-.01-.01-.01-.04,0-.04.04-.04.1-.06.15-.04.04.02.06.06.06.11,0,.11.03.16.05.18h.03s0,0,0,0c0-.02.04-.05.06-.05.02,0,.03.05.03.06-.05.05-.09.06-.12.06h0Z"/>
            </g>
            <g class="cls-30">
              <path class="cls-6" d="m16.62,9.95l2.2,2.04-.16-3.71c-.02-.56-.51-.44-.87-.23-.36.23-.77.23-1.2.08-.44.15-.85.15-1.2-.08-.35-.2-.84-.33-.86.23l-.16,3.71,2.25-2.04Z"/>
            </g>
            <g class="cls-28">
              <path class="cls-7" d="m14.37,12.02h-.01s-.02-.02-.02-.04l.16-3.71c.02-.36.21-.44.38-.44.2,0,.43.11.55.18.33.21.72.23,1.17.08.51.16.87.13,1.2-.08.11-.06.34-.18.54-.18.17,0,.37.08.38.44l.16,3.71s0,.03-.02.04c-.01,0-.03,0-.04,0l-2.18-2.02-2.23,2.02s0,0-.02,0h0Zm.5-4.11c-.2,0-.3.12-.31.37l-.15,3.63,2.19-1.99s.03-.02.05,0l2.14,1.99-.16-3.63c-.02-.42-.34-.47-.82-.2-.34.22-.76.25-1.23.08-.42.17-.86.14-1.21-.08-.19-.11-.37-.17-.51-.17h0Z"/>
            </g>
            <g class="cls-31">
              <path class="cls-6" d="m16.96,8.25c.13.08.25.08.33.08-.26-.18-.33-.67-.31-.87.05-.41-.05-.64-.3-.69-.05,0-.08-.03-.18-.03-.08-.02-.14.05-.17.1-.08-.05-.14-.02-.22-.07-.08-.03-.21,0-.21.18l.05-.02s.07.03.12.05c.06.05.16.09.19.27.05.39,0,.74-.36,1.08.08,0,.21,0,.33-.08-.05.08-.07.1-.12.16.15-.03.28-.08.36-.21.03.05.1.13.13.18.03-.05.1-.13.13-.18.07.13.2.18.36.21-.05-.06-.08-.08-.13-.16h0Z"/>
            </g>
            <g class="cls-32">
              <path class="cls-7" d="m16.02,8.45l.07-.07s.03-.04.05-.05c-.09.03-.18.03-.24.03h-.08l.06-.06c.3-.28.41-.59.34-1.05-.02-.14-.08-.18-.14-.22l-.04-.02c-.05-.03-.09-.05-.1-.05l-.08.04v-.05c0-.21.15-.25.25-.21.04.03.07.03.1.04.03,0,.06,0,.1.02.02-.04.08-.1.14-.1.09,0,.13.02.16.03.02,0,.03,0,.05,0,.28.06.39.3.33.73-.02.21.06.67.3.83l.09.06h-.11c-.06,0-.14,0-.23-.03.01.01.03.03.05.05l.07.06h-.1c-.12-.03-.26-.07-.35-.19-.01.02-.03.03-.04.05-.02.03-.05.06-.06.08l-.03.05-.03-.05s-.04-.05-.06-.08c-.01-.02-.03-.04-.04-.05-.09.12-.23.16-.35.18l-.1.02h0Zm.71-.31l.03.05c.05.07.12.13.23.16-.01-.02-.03-.04-.06-.08l.04-.05c.08.05.16.06.23.07-.22-.22-.27-.64-.25-.83.05-.4-.05-.61-.28-.66-.02.01-.04,0-.06-.01-.03,0-.06-.01-.12-.01-.08,0-.12.06-.13.08v.03s-.04-.02-.04-.02c-.03-.03-.07-.03-.1-.04-.04,0-.08-.01-.12-.04-.02,0-.13-.04-.15.1h0s.08.02.13.05l.05.04c.07.05.15.1.17.27.04.3.04.69-.31,1.04.07,0,.16-.02.24-.07l.04.05s-.04.06-.06.08c.12-.03.19-.09.24-.16l.03-.05.02.05s.04.05.06.08c.02.02.03.03.04.05.01-.02.02-.04.04-.05.02-.03.05-.06.06-.08l.03-.05h0Z"/>
            </g>
            <g class="cls-69">
              <path class="cls-7" d="m16.98,8.31s-.02,0-.03-.02c-.07-.14-.15-.3-.15-.53,0-.04.07-.04.07,0,0,.21.07.35.14.5,0,.02,0,.04-.02.05,0,0,0,0-.01,0h0Z"/>
            </g>
            <g class="cls-70">
              <path class="cls-7" d="m16.73,8.23s-.02,0-.03-.02c-.05-.08-.08-.24-.08-.46,0-.04.07-.04.07,0,0,.2.02.35.07.42.01.02,0,.04-.01.05,0,0-.01,0-.02,0h0Z"/>
            </g>
            <g class="cls-71">
              <path class="cls-7" d="m16.22,8.31s-.01,0-.02,0c-.02-.01-.02-.03-.01-.05.07-.14.14-.29.14-.5,0-.04.07-.04.07,0,0,.22-.07.38-.15.53,0,.01-.02.02-.03.02h0Z"/>
            </g>
            <g class="cls-67">
              <path class="cls-7" d="m16.47,8.23s-.01,0-.02,0c-.02-.01-.02-.03-.01-.05.05-.07.08-.22.08-.42,0-.04.07-.04.07,0,0,.22-.03.38-.08.46,0,.01-.02.02-.03.02h0Z"/>
            </g>
            <g class="cls-68">
              <path class="cls-7" d="m15.92,6.92c.05,0,.07.02.15.06.05.03.16.09.19.25-.03-.08.02-.16.08-.13-.08-.18-.32-.23-.42-.18h0Z"/>
            </g>
            <g class="cls-72">
              <path class="cls-7" d="m16.26,7.24s-.01,0-.02,0h0s0-.03,0-.04h0c-.03-.12-.13-.18-.17-.2l-.03-.03h-.01s-.07-.03-.11-.03c.02-.05.06-.05.1-.05.12,0,.28.06.34.21,0,0-.01,0-.01.01h-.02s-.05.06-.05.09c0,0,0,0,0,.01,0,0,0,.02.01.02,0,0,0,.02-.01.02h0Zm-.29-.32s.04,0,.07.02l.04.02s.12.07.17.16c0-.01.02-.03.02-.03.01-.02.03-.03.05-.03-.05-.11-.24-.18-.35-.16h0Z"/>
            </g>
            <g class="cls-73">
              <polygon class="cls-7" points="16.7 10.36 17.01 11.76 16.9 11.86 16.8 11.78 16.63 10.53 16.7 11.78 16.6 11.91 16.5 11.78 16.57 10.53 16.4 11.78 16.29 11.86 16.19 11.76 16.5 10.36 16.7 10.36"/>
            </g>
            <g class="cls-74">
              <path class="cls-7" d="m16.6,11.96l-.12-.16.03-.6-.08.59-.12.1-.14-.11.3-1.43.23-.03.34,1.43-.11.13-.15-.08-.09-.62.04.59-.13.17h0Zm0-1.41l-.07,1.23.07.09.08-.1-.08-1.21h0Zm.07-.19l-.17.02-.28,1.38.09.07.07-.08.17-1.23h.05s.05,0,.05,0l.18,1.25.09.06.06-.1-.32-1.38h0Z"/>
            </g>
            <g class="cls-75">
              <path class="cls-7" d="m14.78,8.14l-.15,3.61-.26.23.16-3.71c.07-.05.2-.13.25-.13h0Z"/>
            </g>
            <g class="cls-83">
              <path class="cls-7" d="m15.09,8.41l-.13,3.02-.26.27.16-3.49c.05.05.2.18.23.21h0Z"/>
            </g>
            <g class="cls-17">
              <path class="cls-7" d="m15.37,8.64l-.1,2.52-.21.2.13-2.88c.05.05.15.12.18.15h0Z"/>
            </g>
            <g class="cls-77">
              <path class="cls-7" d="m15.67,8.77l-.1,2.14-.2.16.1-2.39c.05.02.15.08.2.08h0Z"/>
            </g>
            <g class="cls-79">
              <path class="cls-7" d="m15.96,8.77l-.07,1.79-.21.2.08-1.97c.05,0,.18,0,.2-.02h0Z"/>
            </g>
            <g class="cls-85">
              <path class="cls-7" d="m18.41,8.14l.15,3.61.26.23-.16-3.71c-.07-.05-.2-.13-.26-.13h0Z"/>
            </g>
            <g class="cls-78">
              <path class="cls-7" d="m18.11,8.41l.13,3.02.26.23-.16-3.46c-.05.05-.2.18-.23.21h0Z"/>
            </g>
            <g class="cls-84">
              <path class="cls-7" d="m17.83,8.64l.11,2.52.2.16-.13-2.83c-.05.05-.15.12-.18.15h0Z"/>
            </g>
            <g class="cls-86">
              <path class="cls-7" d="m17.52,8.77l.1,2.11.2.17-.1-2.35c-.05.02-.15.08-.2.08h0Z"/>
            </g>
            <g class="cls-81">
              <path class="cls-7" d="m17.24,8.77l.08,1.79.21.2-.08-1.97s-.18,0-.2-.02h0Z"/>
            </g>
            <g class="cls-80">
              <polygon class="cls-6" points="15.9 9.74 15.29 11.91 16.14 12.04 16.5 10.4 15.9 9.74"/>
            </g>
            <g class="cls-18">
              <path class="cls-7" d="m16.14,12.07h0l-.84-.13s-.02,0-.02-.02c0,0,0-.01,0-.02l.61-2.18s.01-.02.02-.02c.01,0,.02,0,.03,0l.59.67-.35,1.66s-.02.02-.03.02h0Zm-.81-.19l.77.12.36-1.61-.54-.6-.59,2.09h0Z"/>
            </g>
            <g class="cls-87">
              <polygon class="cls-6" points="17.29 9.74 17.9 11.91 17.06 12.04 16.7 10.4 17.29 9.74"/>
            </g>
            <g class="cls-91">
              <path class="cls-7" d="m17.06,12.07s-.02,0-.03-.02l-.36-1.64.6-.7s.02,0,.03,0c.01,0,.02.01.02.02l.62,2.18s0,.01,0,.02c0,0-.02.01-.02.02l-.84.13s0,0,0,0h0Zm.22-2.27l-.55.62.36,1.58.78-.12-.59-2.08h0Z"/>
            </g>
            <g class="cls-89">
              <path class="cls-7" d="m15.78,10.69h0s-.02,0-.03-.02l-.07-.18s0-.04.02-.04c.02-.01.04,0,.05.02l.05.13.2-.21s.03-.02.04,0c.02.01.02.03,0,.04l-.23.26s-.02,0-.02,0h0Z"/>
            </g>
            <g class="cls-82">
              <path class="cls-7" d="m16.06,10.84h0s-.02-.01-.02-.03l-.08-.71s.02-.04.03-.04c.02,0,.03.01.04.03l.07.63.2-.26s.03-.02.05,0c.01,0,.02.03,0,.05l-.25.34s-.01,0-.03,0h0Z"/>
            </g>
            <g class="cls-93">
              <path class="cls-7" d="m16.37,11.02s-.02-.01-.03-.02l-.15-.39s0-.03.02-.04c.02,0,.04,0,.05.02l.15.38s0,.04-.02.05c0,0,0,0-.01,0h0Z"/>
            </g>
            <g class="cls-88">
              <path class="cls-7" d="m16.14,11.33h-.01s-.02-.01-.02-.02l-.11-.34-.09.16s-.02.03-.03.02c-.01,0-.02-.01-.03-.02l-.09-.21-.19.17s-.03.02-.05,0c-.01-.02-.01-.04,0-.05l.23-.21s.02,0,.03,0c.01,0,.02,0,.02.02l.08.19.09-.17s.02-.01.03-.01c.02,0,.02,0,.03.02l.11.36.17-.17s.03-.01.05,0c.01.01.01.04,0,.05l-.21.21s-.01,0-.02,0h0Z"/>
            </g>
            <g class="cls-94">
              <path class="cls-7" d="m16.22,11.79s-.03-.01-.04-.03l-.06-.31-.16.2s-.02.02-.03.01c-.01,0-.02-.01-.02-.02l-.08-.25-.14.18s-.01.01-.03.02c-.01,0-.02-.01-.03-.02l-.16-.38s0-.04.02-.04c.02-.01.04,0,.04.02l.14.33.14-.19s.02-.01.03-.01c.01,0,.02.01.03.02l.08.25.16-.21s.02-.02.04-.01c.01,0,.02.02.02.03l.08.39s0,.04-.02.04h0Z"/>
            </g>
            <g class="cls-92">
              <path class="cls-7" d="m16.01,12.07s0,0,0,0c-.01,0-.02,0-.02-.02l-.08-.24-.11.2s-.02.02-.03.01c-.01,0-.02,0-.03-.02l-.11-.28-.12.16s-.03.02-.05,0c-.01-.02-.02-.03,0-.05l.15-.21s.02-.02.03-.02c.01,0,.02.01.02.02l.11.27.11-.2s.02-.02.03-.02c.02,0,.02.01.03.02l.09.26.11-.1s.04,0,.05,0c.01.02.01.04,0,.04l-.16.13s-.01,0-.02,0h0Z"/>
            </g>
            <g class="cls-90">
              <path class="cls-7" d="m17.42,10.69s-.02,0-.02,0l-.23-.26s-.01-.03,0-.04c.01-.02.04-.02.05,0l.2.21.05-.13s.03-.03.05-.02c.01,0,.02.02.02.04l-.08.18s-.01.02-.02.02t0,0h0Z"/>
            </g>
            <g class="cls-76">
              <path class="cls-7" d="m17.14,10.84s-.02,0-.03,0l-.26-.34s0-.04,0-.05c.02-.01.04-.01.05,0l.21.26.07-.63s.02-.04.04-.03c.02,0,.03.02.03.04l-.07.71s-.02.02-.02.03h-.01Z"/>
            </g>
            <g class="cls-39">
              <path class="cls-7" d="m16.83,11.02s-.01,0-.02,0c-.02,0-.02-.03-.02-.05l.15-.38s.02-.03.04-.02c.02,0,.02.03.02.04l-.15.39s-.02.02-.03.02h0Z"/>
            </g>
            <g class="cls-36">
              <path class="cls-7" d="m17.06,11.33s-.02,0-.02,0l-.2-.21s-.01-.04,0-.05c.01-.01.03-.01.05,0l.16.17.09-.36s.01-.02.03-.02c.02,0,.03,0,.03.01l.12.18.08-.2s.02-.02.02-.02c.02,0,.02,0,.03,0l.23.21s.02.03,0,.05c-.01.02-.03.02-.05,0l-.2-.17-.09.21s-.01.02-.03.02c-.01,0-.02,0-.03-.02l-.11-.17-.08.34s-.01.02-.02.02t-.01,0h0Z"/>
            </g>
            <g class="cls-41">
              <path class="cls-7" d="m16.98,11.79h0s-.03-.02-.02-.04l.08-.39s.01-.02.02-.03c.01,0,.03,0,.04.02l.16.21.08-.25s.01-.02.03-.02c.01,0,.03,0,.03.01l.14.19.13-.33s.03-.03.05-.02c.02,0,.03.03.02.04l-.16.38s-.02.02-.02.02c-.01,0-.02,0-.03-.02l-.14-.18-.08.25s-.01.02-.02.02c-.01,0-.02,0-.03-.01l-.16-.2-.07.31s-.02.03-.03.03h0Z"/>
            </g>
            <g class="cls-37">
              <path class="cls-7" d="m17.19,12.07s-.01,0-.02,0l-.16-.13s-.02-.03,0-.04c.01-.02.04-.02.05,0l.12.1.08-.26s.02-.02.03-.02c.01,0,.03,0,.03.02l.12.2.1-.27s.02-.02.02-.02c.01,0,.02,0,.03.02l.15.21s0,.04,0,.05c-.01,0-.04,0-.05,0l-.11-.16-.11.28s-.02.02-.03.02c-.01,0-.02,0-.03-.01l-.11-.19-.08.23s-.02.02-.02.02c0,0,0,0-.01,0h0Z"/>
            </g>
            <g class="cls-33">
              <path class="cls-6" d="m16.6,8.48c.26.2.59.3.98.28-.03.89-.28,1.51-.98,1.97-.69-.46-.95-1.07-.97-1.97.38.02.72-.08.97-.28h0Z"/>
            </g>
            <g class="cls-38">
              <path class="cls-7" d="m16.6,10.76s-.01,0-.02,0c-.66-.45-.95-1.04-.98-1.99.06-.02.09-.02.13-.02h0c.33,0,.62-.1.85-.29.29.2.61.3.99.28,0,.98-.3,1.57-.96,2.02,0,0-.01,0-.01,0h0Zm-.98-1.97c.05.91.34,1.48.98,1.92.64-.43.92-1.01.95-1.94-.01.03-.05.03-.08.03-.34,0-.64-.1-.89-.29-.2.19-.51.29-.85.29h0s-.07,0-.11,0h0Z"/>
            </g>
            <g class="cls-35">
              <path class="cls-7" d="m16.6,10.63c.54-.36.84-.97.87-1.79-.33,0-.67-.07-.87-.25-.23.18-.54.25-.9.25.05.82.36,1.43.9,1.79h0Z"/>
            </g>
            <g class="cls-40">
              <path class="cls-7" d="m16.6,10.66s-.02,0-.02,0c-.55-.37-.86-1-.91-1.82,0-.01,0-.02.01-.03,0,0,.01-.01.02-.01.38,0,.66-.08.88-.25.01,0,.03,0,.04,0,.18.15.48.24.85.24,0,0,.02,0,.02.01,0,0,.01.02.01.03-.03.82-.34,1.45-.89,1.82,0,0-.01,0-.02,0h0Zm-.86-1.8c.06.78.36,1.38.86,1.73.51-.36.81-.95.84-1.73-.22,0-.59-.04-.84-.24-.22.16-.5.23-.86.24h0Z"/>
            </g>
            <g class="cls-34">
              <path class="cls-6" d="m15.73,11.91c.21.02.43.05.62.02.1,0,.17.18-.02.21-.18.02-.46,0-.62-.03-.13-.02-.41-.07-.59-.12-.18-.07-.05-.23.05-.21.16.05.36.1.56.13h0Z"/>
            </g>
            <g class="cls-43">
              <path class="cls-7" d="m16.14,12.18c-.16,0-.34-.02-.44-.04-.12-.02-.41-.08-.59-.13-.12-.05-.12-.12-.11-.16.02-.07.08-.12.15-.12.14.04.35.1.59.13.16.02.42.05.61.03h0c.07,0,.14.06.14.12,0,.06-.04.12-.16.14-.06,0-.12.01-.18.01h0Zm-.99-.37s-.09.03-.09.06c-.01.04.04.07.07.08.18.05.46.1.58.12.14.03.42.05.6.03.07,0,.1-.04.1-.07,0-.03-.03-.07-.06-.07-.18.03-.46,0-.62-.03-.25-.03-.47-.09-.57-.13h0Z"/>
            </g>
            <g class="cls-64">
              <path class="cls-6" d="m17.47,11.91c-.21.02-.44.05-.62.02-.1,0-.18.18.02.21.18.02.46,0,.61-.03.13-.02.41-.07.59-.12.18-.07.05-.23-.05-.21-.16.05-.36.1-.56.13h0Z"/>
            </g>
            <g class="cls-62">
              <path class="cls-7" d="m17.06,12.18c-.07,0-.13,0-.18-.01-.12-.02-.16-.08-.16-.14,0-.07.07-.12.14-.12.2.02.45,0,.61-.03.24-.03.45-.09.56-.12.1-.02.17.05.18.11,0,.03.01.11-.11.16-.19.05-.48.11-.6.13-.11.02-.28.04-.45.04h0Zm-.2-.21s-.07.04-.07.07c0,.04.04.07.1.07.18.02.46,0,.61-.03.12-.02.41-.07.59-.12.02-.02.07-.04.06-.08,0-.03-.05-.06-.08-.06-.11.03-.33.1-.58.12-.18.03-.44.06-.62.03h0Z"/>
            </g>
            <g class="cls-65">
              <path class="cls-6" d="m15.09,11.81c-.15-.03-.23.15-.18.25.02-.05.13-.05.15-.11.03-.08-.02-.08.03-.15h0Z"/>
            </g>
            <g class="cls-60">
              <path class="cls-7" d="m14.91,12.1s-.02,0-.03-.02c-.03-.06-.02-.15.01-.21.04-.06.1-.1.16-.1.01,0,.04.01.04.03,0,0,.02.02.02.03-.02.03-.02.04-.02.05,0,.02,0,.04,0,.09-.02.05-.06.06-.09.07-.02.01-.05.02-.06.04,0,.01-.01.02-.03.02h0Zm.12-.25s-.07.04-.08.06c-.02.02-.02.06-.02.09.01,0,.03-.02.05-.02.02-.01.05-.02.05-.04.01-.02,0-.03,0-.05,0-.02,0-.03,0-.05h0Z"/>
            </g>
            <g class="cls-61">
              <path class="cls-6" d="m15.7,12.28c0-.11.1-.09.1-.19,0-.05-.02-.13-.08-.13s-.1.05-.1.11c-.03.1.08.11.08.21h0Z"/>
            </g>
            <g class="cls-58">
              <path class="cls-7" d="m15.7,12.32s-.03-.02-.03-.04c0-.04-.02-.06-.04-.08-.02-.04-.06-.07-.04-.14,0-.06.06-.13.14-.13s.11.1.11.16-.04.1-.06.12c-.02.02-.04.04-.04.07,0,.02-.02.04-.04.04h0Zm.03-.32s-.07.04-.07.07c0,.05,0,.06.02.09,0,0,.01.02.02.03,0-.01.02-.02.02-.02.02-.02.04-.03.04-.07,0-.04-.03-.09-.04-.09h0Z"/>
            </g>
            <g class="cls-63">
              <path class="cls-6" d="m16.43,11.99c.15,0,.14.2.06.3,0-.07-.13-.1-.13-.15,0-.08.12-.08.07-.16h0Z"/>
            </g>
            <g class="cls-66">
              <path class="cls-7" d="m16.5,12.33s0,0-.01,0c-.01,0-.02-.02-.02-.03,0-.02-.03-.04-.06-.06-.03-.02-.07-.05-.07-.09,0-.05.03-.08.06-.1,0-.01,0-.04,0-.05,0-.01.02-.04.04-.04.06,0,.11.03.13.08.04.09.01.21-.04.29,0,0-.02.01-.03.01h0Zm-.02-.3s-.03.05-.05.07c-.02.02-.03.03-.03.05,0,0,.03.02.04.03.02.01.04.03.06.05.02-.05.02-.12,0-.16,0-.01-.01-.02-.02-.03h0Z"/>
            </g>
            <g class="cls-42">
              <path class="cls-6" d="m18.11,11.81c.16-.03.23.15.18.25-.02-.05-.13-.05-.15-.11-.03-.08.02-.08-.03-.15h0Z"/>
            </g>
            <g class="cls-59">
              <path class="cls-7" d="m18.29,12.1s-.02,0-.03-.02c0-.01-.03-.02-.06-.04-.03-.02-.08-.03-.09-.07-.01-.05-.01-.07,0-.09,0-.02,0-.02-.01-.05,0,0,0-.02,0-.03,0-.01.01-.02.02-.02.11,0,.17.04.2.09.04.06.05.15.01.21,0,.01-.01.02-.03.02h0Zm-.12-.25s0,.04,0,.05c0,.02,0,.02,0,.05,0,.01.03.02.06.03.02,0,.03.01.04.02,0-.03,0-.07-.02-.09-.01-.02-.04-.05-.08-.06h0Z"/>
            </g>
            <g class="cls-116">
              <path class="cls-6" d="m17.49,12.28c0-.11-.1-.09-.1-.19,0-.05.03-.13.08-.13s.1.05.1.11c.02.1-.08.11-.08.21h0Z"/>
            </g>
            <g class="cls-122">
              <path class="cls-7" d="m17.49,12.32s-.03-.02-.03-.04c0-.04-.02-.05-.04-.07-.02-.02-.06-.05-.06-.12s.04-.16.11-.16c.07,0,.14.07.14.14.01.06-.02.1-.05.13-.02.02-.03.05-.03.08,0,.02-.02.03-.04.03h0Zm-.02-.32s-.05.05-.05.09c0,.04.02.05.04.07,0,0,.02.01.02.02,0-.01.02-.02.02-.03.02-.03.04-.04.03-.09,0-.04-.04-.07-.07-.07h0Z"/>
            </g>
            <g class="cls-117">
              <path class="cls-6" d="m16.76,11.99c-.15,0-.14.2-.07.3,0-.07.13-.1.13-.15,0-.08-.12-.08-.07-.16h0Z"/>
            </g>
            <g class="cls-118">
              <path class="cls-7" d="m16.7,12.33s-.02,0-.03-.01c-.05-.08-.08-.2-.04-.29.02-.05.07-.08.13-.08.01,0,.02,0,.03.02,0,.02,0,.03,0,.04.04.05.07.08.07.14,0,.04-.04.06-.07.09-.03.02-.06.04-.06.06,0,.02-.01.03-.02.03,0,0,0,0-.01,0h0Zm.02-.3s-.02.02-.02.03c-.02.04-.01.1,0,.16.01-.02.04-.04.05-.05.02,0,.04-.02.04-.03,0-.02-.01-.03-.03-.05-.02-.02-.04-.03-.04-.07h0Z"/>
            </g>
            <g class="cls-121">
              <path class="cls-6" d="m15.14,11.86c.05,0,.13.02.15.05l-.15-.05Z"/>
            </g>
            <g class="cls-115">
              <path class="cls-7" d="m15.29,11.93s0,0,0,0l-.15-.05s-.02-.02-.01-.02c0-.02.01-.02.02-.02.05,0,.14.02.17.06,0,0,0,.02,0,.03,0,0-.01,0-.02,0h0Z"/>
            </g>
            <g class="cls-124">
              <path class="cls-6" d="m15.39,11.94s.13.02.18.05l-.18-.05Z"/>
            </g>
            <g class="cls-119">
              <path class="cls-7" d="m15.57,12.02s0,0,0,0l-.18-.05s-.02-.02-.02-.03c0-.04.14,0,.22.04.01,0,.01.02.01.03,0,.01-.01.02-.02.02h0Z"/>
            </g>
            <g class="cls-123">
              <path class="cls-6" d="m16.32,12.04c-.05,0-.16,0-.18.03l.18-.03Z"/>
            </g>
            <g class="cls-120">
              <path class="cls-7" d="m16.14,12.09s-.02,0-.02-.02c0,0,0-.02,0-.02.03-.03.1-.03.2-.03.01,0,.02,0,.02.02,0,.02-.01.03-.02.03l-.18.02h0Z"/>
            </g>
            <g class="cls-108">
              <path class="cls-6" d="m16.04,12.04s-.13-.03-.18,0h.18Z"/>
            </g>
            <g class="cls-107">
              <path class="cls-7" d="m16.04,12.07h-.18s-.02,0-.02-.02c0-.01,0-.02.01-.03.05-.02.15-.06.21,0,0,0,0,.02,0,.03,0,0-.01.02-.02.02h0Z"/>
            </g>
            <g class="cls-106">
              <path class="cls-6" d="m18.06,11.86c-.05,0-.12.02-.15.05l.15-.05Z"/>
            </g>
            <g class="cls-105">
              <path class="cls-7" d="m17.9,11.93s-.01,0-.02-.01c0,0,0-.02,0-.03.03-.03.11-.06.17-.06.01,0,.02,0,.02.02,0,0,0,.02-.02.02l-.15.05s0,0,0,0h0Z"/>
            </g>
            <g class="cls-110">
              <path class="cls-6" d="m17.8,11.94s-.13.02-.18.05l.18-.05Z"/>
            </g>
            <g class="cls-109">
              <path class="cls-7" d="m17.62,12.02s-.02,0-.02-.02c0-.01,0-.03.01-.03.08-.04.21-.07.21-.04,0,.01,0,.02-.02.03l-.18.05s0,0,0,0h0Z"/>
            </g>
            <g class="cls-111">
              <path class="cls-6" d="m16.88,12.04c.05,0,.16,0,.18.03l-.18-.03Z"/>
            </g>
            <g class="cls-112">
              <path class="cls-7" d="m17.06,12.09h0l-.18-.02s-.02-.02-.02-.03c0-.01.01-.02.02-.02.11,0,.17,0,.2.03,0,0,.01.02,0,.02,0,0-.02.02-.03.02h0Z"/>
            </g>
            <g class="cls-113">
              <path class="cls-6" d="m17.16,12.04s.13-.03.18,0h-.18Z"/>
            </g>
            <g class="cls-114">
              <path class="cls-7" d="m17.34,12.07h-.18s-.02,0-.02-.02c0-.01,0-.02,0-.03.06-.06.16-.02.21,0,.01,0,.01.02.01.03,0,.01,0,.02-.02.02h0Z"/>
            </g>
            <g class="cls-126">
              <path class="cls-7" d="m16.96,7c-.05-.12-.14-.23-.27-.26-.06-.01-.13-.01-.2-.01-.08-.02-.14.06-.17.11.08.05.09.11.13.13.08.03.12,0,.2-.07.08-.07.26-.05.31.1h0Z"/>
            </g>
            <g class="cls-127">
              <path class="cls-7" d="m16.51,7s-.04,0-.06-.02c-.02,0-.04-.03-.05-.05-.02-.02-.04-.05-.08-.08.01-.05.07-.14.15-.14h.07c.08,0,.12,0,.17.02.11.02.2.1.26.22-.1-.07-.23-.11-.3-.04-.06.05-.1.09-.15.09h0Zm-.03-.25c-.07,0-.12.05-.15.11.04.01.07.04.08.06.02.02.03.04.05.04.07.02.09,0,.18-.07.06-.05.17-.06.24,0-.06-.06-.12-.1-.19-.12-.04-.01-.08-.02-.12-.02h-.09Z"/>
            </g>
            <g class="cls-125">
              <path class="cls-6" d="m16.47,6.8s-.05.08,0,.08c.05,0,.05-.08,0-.08h0Z"/>
            </g>
            <g class="cls-128">
              <path class="cls-6" d="m16.47,6.91s-.07-.03-.07-.07c0-.08.15-.08.15,0,0,.04-.03.07-.08.07h0Z"/>
            </g>
            <g class="cls-129">
              <path class="cls-6" d="m16.91,8.75v1.61c-.09.1-.2.19-.31.26-.12-.07-.22-.16-.31-.26v-1.62c.11-.04.22-.1.31-.16.09.07.19.13.31.17h0Z"/>
            </g>
          </g>
        </g>
      </g>
    </g>
  </g>
</svg>