<?xml version="1.0" encoding="UTF-8"?>
<svg id="Livello_2" data-name="Livello 2" xmlns="http://www.w3.org/2000/svg" viewBox="0 0 418.94 646.43">
  <defs>
    <style>
      .cls-1 {
        fill: #1c2c6c;
      }

      .cls-1, .cls-2, .cls-3, .cls-4, .cls-5 {
        stroke-width: 0px;
      }

      .cls-2 {
        fill: #fff;
      }

      .cls-3 {
        fill: #0070b8;
      }

      .cls-4 {
        fill: #a40a3e;
      }

      .cls-5 {
        fill: #e49f00;
      }
    </style>
  </defs>
  <g id="_Ñëîé_1" data-name="Ñëîé 1">
    <g>
      <path class="cls-1" d="m418.94,231.57l-69.93-85.36s-18.27,22.99-60.17,34.33c-33.29,9.01-58.85,10.55-79.38,10.55h0c-20.53,0-46.09-1.54-79.38-10.55-41.9-11.34-60.17-34.33-60.17-34.33L0,231.57l209.48,414.85,209.47-414.85Z"/>
      <path class="cls-1" d="m298.63,89.16c0,49.24-39.92,89.16-89.16,89.16s-89.16-39.92-89.16-89.16S160.23,0,209.48,0s89.16,39.92,89.16,89.16Z"/>
      <path class="cls-2" d="m347.6,167.6c-10.88,8.7-28.88,20.03-54.93,27.08-36.22,9.8-63.49,11.06-83.2,11.06s-46.99-1.26-83.21-11.06c-26.05-7.05-44.05-18.38-54.93-27.08-13.14,16.04-45.45,55.48-53.97,65.88,5.61,11.12,92.73,183.65,148.51,294.11l181.72-360Z"/>
      <path class="cls-3" d="m347.6,167.6c13.14,16.04,45.45,55.48,53.97,65.88-7.72,15.29-169.61,335.92-192.1,380.45-6.14-12.15-22.66-44.87-43.59-86.34l181.72-360Z"/>
      <path class="cls-5" d="m143.67,54.23c12.54-23.53,37.33-39.59,65.81-39.59s53.6,16.27,66.06,40.05l-.21.6c-2.88,5.58-8.9,12.38-14.86,16.12-8.35,5.23-14.99,4.48-22.39,1.74l-1.6-.6c-5.51-2.09-13.05-4.96-26.9-5.28-14.03.32-21.58,3.19-27.09,5.28l-1.61.61c-7.4,2.74-14.04,3.49-22.39-1.74-6.14-3.85-12.34-10.96-15.11-16.62l.3-.56Z"/>
      <path class="cls-5" d="m180.54,157.06c5.18-9.22,10.54-22.86,10.54-39.83s-5.14-28.3-10.42-34.89l-.49-.58c1.19-.35,2.34-.75,3.46-1.16l1.67-.63c4.64-1.76,10.28-3.91,20.16-4.58l.04.42v87.73h-.52c-8.75-.52-17.1-2.56-24.79-5.86l.34-.62Z"/>
      <path class="cls-5" d="m136.42,99.71c3.59,3.73,11.49,10.57,22.86,13.01,9.15,1.96,17.57,2.42,23.35,2.43l.49-.04c-.49-18.05-7.21-27.14-11.98-31.35l-.64-.53c-4.9-.04-10.29-1.38-16.22-5.09-4.93-3.09-10.68-8.55-14.8-14.49l-.33.89c-2.71,7.71-4.18,15.99-4.18,24.62,0,3.3.22,6.55.63,9.74l.82.82Z"/>
      <path class="cls-5" d="m139.21,112.45c4.74,3.26,10.91,6.42,18.41,8.03,9.69,2.08,18.51,2.6,24.69,2.62l.59.03c-1.07,12.79-5.47,23.23-9.58,30.47l-.31.51c-16.18-9.12-28.63-24.11-34.43-42.05l.65.4Z"/>
      <path class="cls-5" d="m238.56,157.33c-5.22-9.22-10.69-22.97-10.69-40.1s5.16-28.33,10.45-34.92l.36-.58c-1.16-.35-2.28-.73-3.37-1.13l-1.67-.63c-4.66-1.77-10.33-3.93-20.16-4.59l-.05.66v87.57l.76-.1c8.68-.55,16.97-2.59,24.6-5.87l-.24-.32Z"/>
      <path class="cls-5" d="m245.64,153.6c-4.05-7.12-8.36-17.34-9.53-29.83l-.1-.66c6.21,0,15.3-.48,25.32-2.63,7.46-1.6,13.6-4.73,18.33-7.98l.7-.39c-5.81,17.9-18.22,32.85-34.36,41.96l-.37-.48Z"/>
      <path class="cls-5" d="m235.86,114.47c.64-17.95,7.49-26.88,12.22-30.93l.46-.3c4.88-.06,10.25-1.4,16.14-5.09,4.79-3,10.36-8.24,14.45-13.99l.34-.57c2.92,7.98,4.52,16.59,4.52,25.57,0,3.3-.22,6.54-.63,9.73l-.35.33c-3.34,3.58-11.43,10.95-23.33,13.5-9.4,2.01-18.03,2.45-23.81,2.43v-.68Z"/>
      <polygon class="cls-4" points="190.69 362.28 221.43 331.54 191.03 301.23 221.43 270.83 190.69 240.09 160.36 270.42 129.98 240.09 99.24 270.83 129.53 301.25 99.24 331.54 129.98 362.28 160.33 331.93 190.69 362.28"/>
      <path class="cls-2" d="m251.1,492.73c-2.74,5.42-5.97,8.67-11.2,10.35l-1.75-5.46c3.96-1.3,6.23-3.78,8.09-7.47,2.38-4.71,1.73-8.46-1.76-10.23-1.57-.79-3.11-1-4.46-.47-1.32.48-2.13,1.21-3.51,3.18l-2.75,3.94c-1.89,2.73-4.08,4.55-6.33,5.38-2.57.93-5.28.64-8.21-.84-6.28-3.17-8.28-9.9-4.5-17.39,2.4-4.76,5.3-7.49,9.75-9.12l1.68,5.23c-3.25,1.15-5.21,3.4-6.75,6.44-2.15,4.25-.89,7.81,2.3,9.41,1.32.66,2.69.85,4.03.32,1.27-.5,2.62-1.66,3.71-3.21l2.68-3.79c2.19-3.09,3.95-4.55,6.08-5.38,2.72-1.1,5.78-.76,8.87.8,6.63,3.35,7.84,10.76,4.04,18.3Z"/>
      <path class="cls-2" d="m269.87,446.37c1.13,3.43.58,7.28-1.31,11.03l-6.39,12.65-36.04-18.19,6.39-12.65c1.89-3.75,4.66-6.47,8.09-7.6,5.86-1.93,11,.98,16.21,3.61,5.21,2.63,11.11,5.29,13.04,11.16Zm-27.2-9.03c-2.44.68-4.22,2.32-5.52,4.9l-3.35,6.63,26.22,13.24,3.35-6.63c1.3-2.58,1.57-4.99.66-7.35-1.13-2.92-5-4.94-9.96-7.44-4.96-2.5-8.38-4.17-11.4-3.34Z"/>
      <polygon class="cls-2" points="279.7 435.35 243.95 417.3 257.04 391.38 264 394.89 255.17 412.37 261.76 415.7 269.69 399.99 276.39 403.37 268.46 419.08 277 423.39 286.61 404.36 293.57 407.88 279.7 435.35"/>
      <rect class="cls-2" x="275.61" y="369.7" width="9.39" height="40.04" transform="translate(-193.92 464.29) rotate(-63.21)"/>
      <path class="cls-2" d="m303.96,387.3l-35.75-18.05,7.72-15.29c2.33-4.62,4.76-7.66,7.28-9.11,2.52-1.45,5.29-1.42,8.31.11,2.57,1.3,4.22,3.03,4.93,5.2.72,2.17.47,4.62-.73,7.38,2.01-3.2,4.07-5.2,6.19-6.02,2.12-.82,4.55-.53,7.31.86,1.93.97,3.4,2.3,4.43,3.98,1.03,1.68,1.49,3.52,1.39,5.52-.1,1.42-.39,2.89-.88,4.42-.49,1.52-1.5,3.8-3.04,6.84l-7.16,14.17Zm-24.94-23.46l7.59,3.83,2.42-4.8c1.36-2.7,2.01-4.68,1.94-5.93-.07-1.25-.81-2.22-2.21-2.93-1.42-.72-2.65-.74-3.69-.08-1.04.67-2.25,2.37-3.63,5.1l-2.42,4.8Zm13.96,7.33l8.8,4.45,2.69-5.32c1.54-3.05,2.25-5.26,2.12-6.63-.12-1.37-1-2.47-2.63-3.29-1.65-.83-3.06-.89-4.22-.18-1.16.71-2.52,2.6-4.07,5.66l-2.69,5.32Z"/>
      <path class="cls-2" d="m324.3,347.01l-4.62,9.15-29.18-31.05,4.58-9.07,42.31,5.05-4.63,9.17-6.55-1.04-6.57,13.02,4.67,4.77Zm-10.24-10.13l4.5-8.92-16.41-2.67,11.91,11.59Z"/>
      <path class="cls-2" d="m339.1,317.7l-35.75-18.05,7.63-15.1c2.52-5,5.31-8.25,8.37-9.76,3.06-1.51,6.47-1.31,10.25.6,2.54,1.28,4.35,2.97,5.45,5.06,1.1,2.09,1.46,4.55,1.08,7.38l18.44-.76-4.82,9.55-16.16.55-2.88,5.7,12.65,6.39-4.26,8.43Zm-24.9-23.16l9.91,5,3.1-6.15c1.23-2.43,1.72-4.36,1.48-5.79-.24-1.43-1.23-2.58-2.97-3.46-1.84-.93-3.38-1.1-4.61-.51-1.24.59-2.51,2.17-3.81,4.75l-3.1,6.15Z"/>
    </g>
  </g>
</svg>