<?xml version="1.0" encoding="UTF-8"?>
<svg id="Livello_2" data-name="Livello 2" xmlns="http://www.w3.org/2000/svg" xmlns:xlink="http://www.w3.org/1999/xlink" viewBox="0 0 281.97 427.35">
  <defs>
    <style>
      .cls-1 {
        fill: #952430;
      }

      .cls-1, .cls-2, .cls-3, .cls-4, .cls-5, .cls-6, .cls-7, .cls-8, .cls-9, .cls-10, .cls-11, .cls-12, .cls-13, .cls-14, .cls-15, .cls-16, .cls-17, .cls-18, .cls-19 {
        stroke-width: 0px;
      }

      .cls-2 {
        fill: url(#linear-gradient);
      }

      .cls-3 {
        fill: url(#linear-gradient-6);
      }

      .cls-4 {
        fill: #d2252d;
      }

      .cls-6 {
        fill: url(#linear-gradient-5);
      }

      .cls-7 {
        fill: #ffdda7;
      }

      .cls-8 {
        fill: #fff;
      }

      .cls-9 {
        fill: url(#linear-gradient-2);
      }

      .cls-10 {
        fill: url(#linear-gradient-7);
      }

      .cls-11 {
        fill: url(#radial-gradient-2);
      }

      .cls-12 {
        fill: url(#linear-gradient-3);
      }

      .cls-13 {
        fill: url(#radial-gradient);
      }

      .cls-14 {
        fill: url(#linear-gradient-8);
      }

      .cls-15 {
        fill: #dd9f3a;
      }

      .cls-16 {
        fill: url(#radial-gradient-3);
      }

      .cls-17 {
        fill: #ebac10;
      }

      .cls-18 {
        fill: url(#linear-gradient-4);
      }

      .cls-19 {
        fill: #2516e8;
      }
    </style>
    <radialGradient id="radial-gradient" cx="63.8" cy="57.75" fx="63.8" fy="57.75" r="28.72" gradientUnits="userSpaceOnUse">
      <stop offset=".33" stop-color="#c92a2e"/>
      <stop offset=".9" stop-color="#933"/>
    </radialGradient>
    <radialGradient id="radial-gradient-2" cx="217.43" cy="56.65" fx="217.43" fy="56.65" r="29.61" xlink:href="#radial-gradient"/>
    <radialGradient id="radial-gradient-3" cx="141.17" cy="38.32" fx="141.17" fy="38.32" r="41.35" xlink:href="#radial-gradient"/>
    <linearGradient id="linear-gradient" x1="140.79" y1="64.36" x2="141.34" y2="8.81" gradientUnits="userSpaceOnUse">
      <stop offset="0" stop-color="#ecdc00"/>
      <stop offset="1" stop-color="#f80"/>
    </linearGradient>
    <linearGradient id="linear-gradient-2" x1="139.81" y1="3.12" x2="142.72" y2="106.16" xlink:href="#linear-gradient"/>
    <linearGradient id="linear-gradient-3" x1="143.28" y1="356.4" x2="143.28" y2="331.65" gradientUnits="userSpaceOnUse">
      <stop offset="0" stop-color="#fff"/>
      <stop offset="1" stop-color="#eb9409"/>
    </linearGradient>
    <linearGradient id="linear-gradient-4" x1="111.5" y1="364.36" x2="117.55" y2="324.21" xlink:href="#linear-gradient-3"/>
    <linearGradient id="linear-gradient-5" x1="133.75" y1="329.27" x2="146.95" y2="296.27" xlink:href="#linear-gradient-3"/>
    <linearGradient id="linear-gradient-6" x1="118.69" y1="333.98" x2="124.19" y2="303.73" xlink:href="#linear-gradient-3"/>
    <linearGradient id="linear-gradient-7" x1="163.38" y1="328.92" x2="175.48" y2="310.77" xlink:href="#linear-gradient-3"/>
    <linearGradient id="linear-gradient-8" x1="140.23" y1="379.29" x2="158.38" y2="346.84" xlink:href="#linear-gradient-3"/>
  </defs>
  <g id="Layer_1" data-name="Layer 1">
    <g>
      <path class="cls-5" d="m154.37,427.35c19.8,0,23.1-17.6,38.5-17.6h9.16c22.73,0,41.43-26.04,46.57-55.74,0,0,33.37-213.03,33.37-227.33,0-36.67-31.53-75.9-140.98-75.9S0,90.02,0,126.68c0,14.3,33.37,227.33,33.37,227.33,5.13,29.7,23.83,55.74,46.57,55.74h9.17c15.4,0,18.7,17.6,38.5,17.6h26.77Z"/>
      <path class="cls-15" d="m140.98,53.9C16.55,53.9,3.12,104.8,3.12,126.68c0,11.12,21.8,153.25,33.33,226.85,5.23,30.25,23.93,53.1,43.49,53.1h9.17c8.36,0,13.59,4.43,18.64,8.71,5.39,4.57,10.48,8.89,19.86,8.89h26.77c9.38,0,14.47-4.32,19.86-8.89,5.05-4.28,10.28-8.71,18.64-8.71h9.16c19.56,0,38.26-22.85,43.5-53.14,11.52-73.55,33.32-215.69,33.32-226.8,0-21.88-13.44-72.78-137.87-72.78Zm97.79,298.42c-4.6,26.61-20.74,47.46-36.74,47.46h-9.16c-10.88,0-17.64,5.73-23.07,10.34-4.97,4.22-8.56,7.26-15.43,7.26h-26.77c-6.86,0-10.45-3.05-15.43-7.26-5.43-4.61-12.2-10.34-23.07-10.34h-9.17c-16,0-32.14-20.84-36.71-47.3C29.89,267.31,10.02,136.9,9.98,126.68c0-41.89,47.75-65.92,131.01-65.92s131,24.03,131,65.92c-.04,10.21-19.91,140.62-33.22,225.64Z"/>
      <path class="cls-8" d="m262.96,172.15c3.53-24.48,5.84-41.83,5.91-45.51,0-39.87-46.61-62.77-127.89-62.77S13.11,86.76,13.1,126.67c.07,3.71,2.39,21.04,5.91,45.48h243.96Z"/>
      <path class="cls-19" d="m209.68,172.15l-.27,222.82c11.87-5.23,22.67-22.31,26.28-43.18.42-2.69.85-5.44,1.29-8.24l.2-171.4h-27.5ZM44.73,341.89c.54,3.44,1.06,6.81,1.58,10.1,3.55,20.52,14.18,37.46,25.92,42.85v-222.69h-27.5v169.74Zm109.67,72.36c5.46,0,8.2-2.12,13.38-6.52,3.61-3.06,8.1-6.84,14.14-9.11l.27-226.47h-27.5l-.29,242.1Zm-54.66-15.75c6.2,2.25,10.79,6.12,14.46,9.23,5.07,4.3,7.82,6.41,13.04,6.5v-242.08h-27.5v226.35Z"/>
      <path class="cls-4" d="m127.23,414.23c.13,0,.24.02.37.02h26.77c.13,0,.24-.02.37-.02v-242.08h-27.5v242.08Zm54.68-15.61c3.19-1.19,6.8-1.97,10.95-1.97h9.16c2.47,0,4.95-.62,7.39-1.68l.27-222.82h-27.5l-.27,226.47Zm55.27-226.47l-.2,171.4c8.33-53.33,19.32-125.12,25.98-171.4h-25.78ZM44.73,341.89v-169.74h-25.72c6.59,45.76,17.41,116.48,25.72,169.74Zm27.5,52.95c2.54,1.16,5.12,1.81,7.71,1.81h9.17c4.01,0,7.52.72,10.63,1.85v-226.35h-27.5v222.69Z"/>
      <g>
        <g>
          <path class="cls-1" d="m35.71,136.98h19.56v5.05h-12.24v3.75h11.34v4.81h-11.34v4.64h12.58v5.36h-19.9v-23.62Z"/>
          <path class="cls-1" d="m67.43,136.98h7.29v17.81h11.41v5.81h-18.7v-23.62Z"/>
          <path class="cls-1" d="m97.43,136.98h10.85c2.14,0,3.87.29,5.19.87,1.32.58,2.41,1.41,3.27,2.5.86,1.08,1.48,2.35,1.87,3.79.39,1.44.58,2.96.58,4.58,0,2.52-.29,4.48-.86,5.87-.58,1.39-1.37,2.56-2.4,3.5-1.02.94-2.12,1.56-3.29,1.88-1.6.43-3.05.64-4.35.64h-10.85v-23.62Zm7.29,5.36v12.89h1.8c1.53,0,2.63-.17,3.27-.51.65-.34,1.16-.93,1.52-1.77.37-.84.55-2.21.55-4.1,0-2.5-.41-4.21-1.23-5.13-.82-.92-2.18-1.38-4.09-1.38h-1.83Z"/>
          <path class="cls-1" d="m130.88,136.98h19.56v5.05h-12.24v3.75h11.34v4.81h-11.34v4.64h12.58v5.36h-19.9v-23.62Z"/>
          <path class="cls-1" d="m162.67,136.98h6.83l8.88,13.06v-13.06h6.87v23.62h-6.87l-8.83-12.98v12.98h-6.87v-23.62Z"/>
        </g>
        <g>
          <path class="cls-1" d="m49.32,118.49l6.39,1.94c-.43,1.79-1.11,3.29-2.03,4.49-.92,1.2-2.07,2.11-3.44,2.72-1.37.61-3.12.92-5.23.92-2.57,0-4.67-.37-6.3-1.12-1.63-.75-3.03-2.06-4.22-3.94-1.18-1.88-1.77-4.29-1.77-7.22,0-3.91,1.04-6.91,3.12-9.02,2.08-2.1,5.02-3.15,8.82-3.15,2.98,0,5.32.6,7.02,1.8,1.7,1.2,2.97,3.05,3.8,5.54l-6.46,1.43c-.23-.72-.46-1.24-.71-1.57-.41-.55-.91-.98-1.5-1.28-.59-.3-1.25-.45-1.98-.45-1.65,0-2.92.67-3.79,2-.66.99-1,2.54-1,4.66,0,2.62.4,4.42,1.19,5.39.8.97,1.91,1.46,3.36,1.46s2.46-.39,3.17-1.18c.72-.79,1.23-1.93,1.56-3.43Z"/>
          <path class="cls-1" d="m59.4,121.58h7.01v6.57h-7.01v-6.57Z"/>
        </g>
        <g>
          <path class="cls-1" d="m224.53,103.98h10.86c2.14,0,3.87.29,5.19.87,1.31.58,2.4,1.41,3.27,2.5.86,1.08,1.48,2.35,1.87,3.79.39,1.44.58,2.96.58,4.58,0,2.52-.29,4.48-.86,5.87-.57,1.39-1.37,2.56-2.39,3.5-1.02.94-2.12,1.56-3.29,1.88-1.6.43-3.05.64-4.35.64h-10.86v-23.62Zm7.29,5.36v12.89h1.8c1.53,0,2.63-.17,3.27-.51.65-.34,1.16-.93,1.53-1.77.37-.84.55-2.21.55-4.1,0-2.5-.41-4.21-1.23-5.13-.83-.92-2.19-1.38-4.09-1.38h-1.83Z"/>
          <path class="cls-1" d="m249.12,121.03h7.01v6.57h-7.01v-6.57Z"/>
        </g>
        <path class="cls-1" d="m229.19,136.98h19.56v5.05h-12.24v3.75h11.34v4.81h-11.34v4.64h12.58v5.36h-19.9v-23.62Z"/>
        <path class="cls-1" d="m203.98,147.8c-3.24,6.02-5.79,10.78-14.42,10.78v6.6c12.57,0,16.82-7.91,20.23-14.26,3.41-6.35,5.68-9.94,12.59-9.94v-6.6c-11.2,0-15.19,7.44-18.4,13.42Z"/>
      </g>
      <g>
        <path class="cls-5" d="m140.98,83.6c47.21,0,78.28,25.3,78.28,25.3,7.15-24.48,39.6-36.03,39.6-64.35,0-7.15-9.35-22.55-42.35-22.55-18.97,0-25.85,4.95-25.85,4.95,0-6.32-13.47-26.95-49.68-26.95s-49.68,20.63-49.68,26.95c0,0-6.87-4.95-25.85-4.95-33,0-42.35,15.4-42.35,22.55,0,28.32,32.45,39.87,39.6,64.35,0,0,31.08-25.3,78.28-25.3Z"/>
        <g>
          <g>
            <path class="cls-1" d="m48.11,44.62c-3.53,2.9-5.39,6.93-5.39,11.66,0,10.19,10.03,20.53,17.23,20.53,1.27,0,2.39-.82,4.79-2.67,4.38-3.37,11.68-8.89,28.63-13.07-1.55-9.58-12.23-21.3-29.02-21.3-6.77,0-12.39,1.67-16.24,4.84Z"/>
            <path class="cls-13" d="m64.35,39.79c-6.77,0-12.39,1.67-16.24,4.84-3.53,2.9-5.39,6.93-5.39,11.66,0,10.19,10.03,20.53,17.23,20.53,1.27,0,2.39-.82,4.79-2.67,4.38-3.37,11.68-8.89,28.63-13.07-1.55-9.58-12.23-21.3-29.02-21.3Zm-.75,32.88c-2.06,1.58-3.02,2.28-3.65,2.28-6.35,0-15.36-9.65-15.36-18.66,0-4.15,1.63-7.68,4.71-10.22,3.51-2.89,8.72-4.41,15.05-4.41,15.5,0,24.55,10.1,26.73,18.11-16.18,4.27-23.52,9.84-27.48,12.89Z"/>
          </g>
          <g>
            <path class="cls-1" d="m188.6,61.08c16.95,4.18,24.25,9.69,28.62,13.07,2.4,1.85,3.52,2.67,4.79,2.67,7.21,0,17.24-10.35,17.24-20.53,0-4.73-1.87-8.76-5.39-11.66-3.85-3.16-9.47-4.84-16.24-4.84-16.78,0-27.47,11.72-29.02,21.3Z"/>
            <path class="cls-11" d="m233.86,44.62c-3.85-3.16-9.47-4.84-16.24-4.84-16.78,0-27.47,11.72-29.02,21.3,16.95,4.18,24.25,9.69,28.62,13.07,2.4,1.85,3.52,2.67,4.79,2.67,7.21,0,17.24-10.35,17.24-20.53,0-4.73-1.87-8.76-5.39-11.66Zm-11.84,30.32c-.63,0-1.59-.69-3.65-2.28-3.96-3.05-11.3-8.62-27.48-12.89,2.18-8.01,11.24-18.11,26.73-18.11,6.33,0,11.54,1.53,15.05,4.41,3.08,2.53,4.71,6.06,4.71,10.22,0,9.01-9.01,18.66-15.36,18.66Z"/>
          </g>
          <g>
            <path class="cls-1" d="m102.85,43.63c0,6.1,2.2,10.96,3.53,13.36,4.6-.89,16.29-2.73,34.6-2.73s30.01,1.84,34.6,2.73c1.34-2.41,3.53-7.27,3.53-13.36,0-15.11-16.75-26.95-38.13-26.95s-38.13,11.84-38.13,26.95Z"/>
            <path class="cls-16" d="m140.98,16.69c-21.38,0-38.13,11.84-38.13,26.95,0,6.1,2.2,10.96,3.53,13.36,4.6-.89,16.29-2.73,34.6-2.73s30.01,1.84,34.6,2.73c1.34-2.41,3.53-7.27,3.53-13.36,0-15.11-16.75-26.95-38.13-26.95Zm33.55,38.22c-5.82-1.04-16.95-2.51-33.55-2.51s-27.73,1.47-33.55,2.51c-1.21-2.46-2.71-6.41-2.71-11.27,0-14.06,15.93-25.08,36.26-25.08s36.26,11.02,36.26,25.08c0,4.86-1.5,8.82-2.71,11.27Z"/>
          </g>
        </g>
        <g>
          <path class="cls-17" d="m216.52,25.12c-17.41,0-24,4.34-24.06,4.39l-4.87,3.31-.03-5.87c0-4.85-12.16-23.83-46.57-23.83s-46.57,18.98-46.57,23.83v5.89l-4.91-3.34c-.06-.04-6.65-4.39-24.06-4.39-29.64,0-39.23,13.09-39.23,19.43,0,14.68,9.55,24.56,19.67,35.01,7.1,7.34,14.2,15.01,18.15,24.47,9.25-6.48,37.37-23.56,76.95-23.56s67.7,17.08,76.95,23.56c3.95-9.46,11.05-17.13,18.15-24.47,10.11-10.46,19.67-20.33,19.67-35.01,0-6.34-9.59-19.43-39.24-19.43ZM59.95,79.93c-8.8,0-20.35-11.55-20.35-23.65,0-11.37,9.17-19.62,24.75-19.62,20.53,0,32.45,15.58,32.45,26.77-28.78,6.42-30.25,16.5-36.85,16.5Zm117.15-19.43s-12.65-3.12-36.12-3.12-36.12,3.12-36.12,3.12c0,0-5.13-6.97-5.13-16.87,0-17.05,17.97-30.07,41.25-30.07s41.25,13.02,41.25,30.07c0,9.9-5.13,16.87-5.13,16.87Zm44.91,19.43c-6.6,0-8.06-10.08-36.85-16.5,0-11.18,11.92-26.77,32.45-26.77,15.58,0,24.75,8.25,24.75,19.62,0,12.1-11.55,23.65-20.35,23.65Z"/>
          <path class="cls-2" d="m140.98,11.07c-24.53,0-43.74,14.3-43.74,32.56,0,7.35,2.65,13.23,4.23,16.08l1.97,3.56,4-.77c4.09-.79,15.54-2.63,33.54-2.63s29.45,1.84,33.54,2.63l4,.77,1.98-3.56c1.58-2.85,4.23-8.73,4.23-16.09,0-18.26-19.22-32.56-43.74-32.56Zm36.12,49.43s-12.65-3.12-36.12-3.12-36.12,3.12-36.12,3.12c0,0-5.13-6.97-5.13-16.87,0-17.05,17.97-30.07,41.25-30.07s41.25,13.02,41.25,30.07c0,9.9-5.13,16.87-5.13,16.87Zm60.32-20.21c-4.87-4-11.72-6.11-19.8-6.11-18.99,0-32.48,13.23-34.56,26.01l-.83,5.11,5.02,1.24c16.02,3.95,22.61,9.03,26.55,12.06,2.78,2.14,4.98,3.83,8.21,3.83,10.89,0,22.85-13.68,22.85-26.14,0-6.37-2.64-12.05-7.44-16Zm-15.4,39.65c-6.6,0-8.06-10.08-36.85-16.5,0-11.18,11.92-26.77,32.45-26.77,15.58,0,24.75,8.25,24.75,19.62,0,12.1-11.55,23.65-20.35,23.65ZM64.35,34.17c-8.09,0-14.94,2.11-19.8,6.11h0c-4.8,3.94-7.44,9.62-7.44,16,0,12.46,11.96,26.14,22.84,26.14,3.24,0,5.44-1.69,8.22-3.83,3.94-3.03,10.53-8.11,26.54-12.06l5.02-1.24-.83-5.11c-2.07-12.79-15.56-26.01-34.56-26.01Zm-4.4,45.76c-8.8,0-20.35-11.55-20.35-23.65,0-11.37,9.17-19.62,24.75-19.62,20.53,0,32.45,15.58,32.45,26.77-28.78,6.42-30.25,16.5-36.85,16.5Z"/>
          <path class="cls-9" d="m216.52,25.12c-17.41,0-24,4.34-24.06,4.39l-4.87,3.31-.03-5.87c0-4.85-12.16-23.83-46.57-23.83s-46.57,18.98-46.57,23.83v5.89l-4.91-3.34c-.06-.04-6.65-4.39-24.06-4.39-29.64,0-39.23,13.09-39.23,19.43,0,14.68,9.55,24.56,19.67,35.01,7.1,7.34,14.2,15.01,18.15,24.47,9.25-6.48,37.37-23.56,76.95-23.56s67.7,17.08,76.95,23.56c3.95-9.46,11.05-17.13,18.15-24.47,10.11-10.46,19.67-20.33,19.67-35.01,0-6.34-9.59-19.43-39.24-19.43Zm17.33,52.28c-6.45,6.67-13.05,13.54-17.37,21.91-11.95-7.69-39.02-21.95-75.49-21.95s-63.54,14.26-75.49,21.95c-4.32-8.38-10.92-15.24-17.37-21.91-9.66-9.99-18.79-19.42-18.79-32.85,0-3.24,6.43-16.31,36.11-16.31,16.12,0,22.28,3.83,22.34,3.87l9.34,5.86.4-10.92c.28-2.59,10.41-20.82,43.45-20.82s43.17,18.22,43.45,20.82v-.1s.54,11.05.54,11.05l9.2-5.9c.06-.04,6.22-3.87,22.34-3.87,29.69,0,36.12,13.08,36.12,16.31,0,13.42-9.13,22.86-18.79,32.85Z"/>
        </g>
      </g>
      <g>
        <circle class="cls-5" cx="140.98" cy="336.88" r="46.29" transform="translate(-196.98 475.22) rotate(-89.55)"/>
        <g>
          <path class="cls-7" d="m161.34,327.86c-1.15,0-2.83,1.21-4.31,2.28-1.84,1.32-3.58,2.58-5.32,2.58h-7.89c-1.54,0-2.66-.99-3.48-1.72,0,0-.15-.12-.29-.25-.29.45-.69,1.04-.69,1.04-1.27,2.09-3,4.95-5.44,4.95h-14.12c-.13,0-.42.41-.59.84v9.1c0,2.81,6.25,9.38,18.37,9.38,21.43,0,28.12-13.22,28.37-13.72,0,0,1.2-2.84,1.37-3.25v-4.88c-1.86-3.11-4.61-6.36-5.99-6.36Z"/>
          <path class="cls-7" d="m122.41,362.27c0-3.5.81-5.91,1.29-7.04-4.44-2.47-6.97-5.84-6.97-8.54v-9.54l.05-.18c.23-.77.86-1.95,1.92-2.46.09-.63.22-1.5.23-1.5-.5-2.54-12.05-15.69-15.26-15.69-.68,0-1.32.06-1.89.14-2.92,5.86-4.6,12.44-4.6,19.42,0,19.73,13.12,36.44,31.08,41.9-2.83-3.62-5.86-9.18-5.86-16.51Z"/>
          <path class="cls-7" d="m147.34,293.59c-2.08-.31-4.19-.52-6.35-.52-6.28,0-12.25,1.35-17.65,3.75,4.75,4.02,18.07,16.36,18.07,28.59,0,1.04-.1,2.11-.22,3.06.28.2.55.42.81.65.58.51,1.23,1.09,1.83,1.09h7.89c.94,0,2.49-1.12,3.86-2.11.91-.66,1.84-1.33,2.78-1.84.41-1.97.91-4.71.91-6.36,0-12.05-8.27-22.36-11.92-26.32Z"/>
          <path class="cls-7" d="m138.66,328.5c.14-.95.25-2.04.25-3.08,0-11.86-14.68-24.62-18.05-27.4-7.35,3.83-13.48,9.68-17.66,16.81.16,0,.31-.01.48-.01,4.87,0,17.75,15.07,17.75,18.12l-.19,1.32h12.69c1.03,0,2.51-2.44,3.3-3.75.55-.9.98-1.57,1.43-2.01Z"/>
          <path class="cls-7" d="m151.34,294.37c4.28,5.2,10.42,14.57,10.42,25.55,0,1.47-.33,3.61-.68,5.47.09,0,.17-.03.26-.03,3.56,0,7.55,6.55,8.32,7.86l.17.29v6.09l-1.59,3.77c-.07.15-.57,1.14-1.61,2.55.31,3.1,5.59,10.88,11.12,10.88.98,0,1.74-.14,2.35-.33,2.97-5.9,4.68-12.55,4.68-19.6,0-20.58-14.28-37.84-33.44-42.51Z"/>
          <path class="cls-7" d="m177.75,359.3c-6.35,0-12.14-6.34-13.39-10.72-4.27,4.4-12.48,9.98-26.76,9.98-4.52,0-8.44-.9-11.64-2.26-.38.93-1.04,2.98-1.04,5.96,0,8.7,4.85,14.77,7.68,17.58,2.72.53,5.53.83,8.4.83,15.97,0,29.93-8.62,37.59-21.43-.28.02-.52.06-.83.06Z"/>
        </g>
        <g>
          <path class="cls-12" d="m161.34,327.86c-1.15,0-2.83,1.21-4.31,2.28-1.84,1.32-3.58,2.58-5.32,2.58h-7.89c-1.54,0-2.66-.99-3.48-1.72,0,0-.15-.12-.29-.25-.29.45-.69,1.04-.69,1.04-1.27,2.09-3,4.95-5.44,4.95h-14.12c-.13,0-.42.41-.59.84v9.1c0,2.81,6.25,9.38,18.37,9.38,21.43,0,28.12-13.22,28.37-13.72,0,0,1.2-2.84,1.37-3.25v-4.88c-1.86-3.11-4.61-6.36-5.99-6.36Zm3.5,10.74c-.37.87-1.12,2.66-1.12,2.66-.25.51-6.27,12.31-26.12,12.31-11.03,0-15.71-5.71-15.87-6.89v-7.44h12.21c3.26,0,5.33-2.63,6.76-4.88.85.48,1.89.85,3.14.85h7.89c2.55,0,4.7-1.55,6.77-3.04h0c.69-.51,2-1.45,2.62-1.71.68.47,2.19,2.1,3.72,4.51v3.63Z"/>
          <path class="cls-18" d="m122.41,362.27c0-3.5.81-5.91,1.29-7.04-4.44-2.47-6.97-5.84-6.97-8.54v-9.54l.05-.18c.23-.77.86-1.95,1.92-2.46.09-.63.22-1.5.23-1.5-.5-2.54-12.05-15.69-15.26-15.69-.68,0-1.32.06-1.89.14-2.92,5.86-4.6,12.44-4.6,19.42,0,19.73,13.12,36.44,31.08,41.9-2.83-3.62-5.86-9.18-5.86-16.51Zm-22.73-25.39c0-5.92,1.32-11.64,3.81-17.07,2.45.71,11.3,10.38,12.8,13.39-1.22,1.13-1.75,2.56-1.9,3.07l-.16.52v9.9c0,3.3,2.51,6.81,6.51,9.54-.43,1.5-.82,3.5-.82,6.04,0,4.45,1.06,8.24,2.46,11.42-13.64-6.95-22.7-21.2-22.7-36.81Z"/>
          <path class="cls-6" d="m147.34,293.59c-2.08-.31-4.19-.52-6.35-.52-6.28,0-12.25,1.35-17.65,3.75,4.75,4.02,18.07,16.36,18.07,28.59,0,1.04-.1,2.11-.22,3.06.28.2.55.42.81.65.58.51,1.23,1.09,1.83,1.09h7.89c.94,0,2.49-1.12,3.86-2.11.91-.66,1.84-1.33,2.78-1.84.41-1.97.91-4.71.91-6.36,0-12.05-8.27-22.36-11.92-26.32Zm8.75,31.2c-.89.58-1.98,1.3-1.98,1.3-.74.53-2.11,1.52-2.4,1.63h-7.49c-.13-.11-.33-.27-.46-.37.07-.95.14-1.93.14-1.93,0-10.97-9.33-21.58-15.7-27.56,4.14-1.37,8.39-2.28,12.78-2.28,1.55,0,3.23.14,5.11.38,3.62,4.07,10.67,13.34,10.67,23.96,0,.95-.27,2.72-.68,4.87Z"/>
          <path class="cls-3" d="m120.86,298.02c-7.35,3.83-13.48,9.68-17.66,16.81.16,0,.31-.01.48-.01,4.87,0,17.75,15.07,17.75,18.12l-.19,1.32h12.69c1.03,0,2.51-2.44,3.3-3.75.55-.9.98-1.57,1.43-2.01.14-.95.25-2.04.25-3.08,0-11.86-14.68-24.62-18.05-27.4Zm15.37,29.64c-.52.72-1.14,1.56-1.14,1.56-.32.52-1.21,1.97-1.76,2.54h-9.74c-1.38-4.6-10.04-14.93-16.44-18.29,3.52-5.08,8.09-9.3,13.47-12.38,4.48,3.89,15.8,14.67,15.8,24.33,0,0-.13,1.59-.19,2.25Z"/>
          <path class="cls-10" d="m151.34,294.37c4.28,5.2,10.42,14.57,10.42,25.55,0,1.47-.33,3.61-.68,5.47.09,0,.17-.03.26-.03,3.56,0,7.55,6.55,8.32,7.86l.17.29v6.09l-1.59,3.77c-.07.15-.57,1.14-1.61,2.55.31,3.1,5.59,10.88,11.12,10.88.98,0,1.74-.14,2.35-.33,2.97-5.9,4.68-12.55,4.68-19.6,0-20.58-14.28-37.84-33.44-42.51Zm27.02,59.86c-.29.04-.61.08-.61.08-3.65,0-7.61-5.51-8.45-7.96.54-.86,1.2-1.93,1.24-2l1.79-4.24v-7.28l-.51-.86c-1.59-2.73-4.51-6.81-7.92-8.36.21-1.46.37-2.76.37-3.69,0-7.95-2.92-15.02-6.39-20.65,14.67,6.55,24.42,21.09,24.42,37.61,0,6.02-1.35,11.85-3.93,17.35Z"/>
          <path class="cls-14" d="m177.75,359.3c-6.35,0-12.14-6.34-13.39-10.72-4.27,4.4-12.48,9.98-26.76,9.98-4.52,0-8.44-.9-11.64-2.26-.38.93-1.04,2.98-1.04,5.96,0,8.7,4.85,14.77,7.68,17.58,2.72.53,5.53.83,8.4.83,15.97,0,29.93-8.62,37.59-21.43-.28.02-.52.06-.83.06Zm-36.76,18.88c-2.35,0-4.77-.28-7.18-.71-2.61-2.75-6.41-7.93-6.41-15.21,0-1.13.13-2.04.28-2.84,3.12.98,6.39,1.63,9.91,1.63,12.62,0,20.82-4.14,25.94-8.37,2.15,3.58,5.98,7.22,10.63,8.54-7.75,10.51-20.1,16.95-33.19,16.95Z"/>
        </g>
      </g>
    </g>
  </g>
</svg>