<?xml version="1.0" encoding="UTF-8"?>
<svg id="Layer_2" data-name="Layer 2" xmlns="http://www.w3.org/2000/svg" xmlns:xlink="http://www.w3.org/1999/xlink" viewBox="0 0 298.8 358.8">
  <defs>
    <style>
      .cls-1 {
        clip-path: url(#clippath);
      }

      .cls-2 {
        fill: none;
      }

      .cls-2, .cls-3, .cls-4, .cls-5 {
        stroke-width: 0px;
      }

      .cls-3 {
        fill: #151f62;
      }

      .cls-3, .cls-4, .cls-5 {
        fill-rule: evenodd;
      }

      .cls-4 {
        fill: #fff;
      }

      .cls-5 {
        fill: #ecd23b;
      }
    </style>
    <clipPath id="clippath">
      <rect class="cls-2" width="298.8" height="358.8"/>
    </clipPath>
  </defs>
  <g id="Layer_1-2" data-name="Layer 1">
    <g>
      <path class="cls-4" d="m191.99,54.48c.84.04,2.12,0,2.81-.15,1.84-1.57,3.34-3.36,4.85-5.5.39-.54.7-1.01.9-1.52,1.16-2.96-.35-3.57-2.64-3.21-2.15.34-3.8,1.31-4.95,2.64-1.91,2.22-1.42,5.14-.97,7.73h0Z"/>
      <path class="cls-3" d="m194.29,51.71c-.48-1.57-.31-2.82.51-3.77.98-1.14,2.22-1.29,3.49-1.12-1.04,2.06-2.39,3.66-4,4.89h0Z"/>
      <path class="cls-3" d="m175.38,50.59c-.53.1-.55.54-.54.93.07,1.66.17,3.29,1.21,4.41.17.19.39.15.59-.2.86-1.47,1.78-2.91,2.58-4.42.23-.41-.12-.5-.53-.59-1.11-.23-2.23-.34-3.32-.14h0Z"/>
      <path class="cls-3" d="m181.46,52.09c.41-.49.56-.69,1.26.05.7.75,1.2,1.88,1.47,2.81.09.62.19,1.24.28,1.86.03.83.07,1.67.11,2.5-2.19.48-4.44.38-6.86-1.09,1.04-2.18,2.21-4.28,3.74-6.13h0Z"/>
      <path class="cls-4" d="m182.98,71.34c-.16-1.11.14-1.97.79-2.75,1.09-1.31,2.17-2.63,3.74-3.52.96-.54,1.95-.38,2.59.62,1.03,1.61.92,4.55-.5,6.58-4.74,6.78-10.41,13.32-16.37,19.8-1.36,1.48-2.43,3.35-2.98,5.85-.39,1.78-.59,3.56-1.21,5.16-.38.99-1.12,1.83-1.04,2.88.12,1.61-.23,3.01-1.04,4.05-1.09,1.41-2.04,1.25-3.18,1.3-.99.04-1.56-.4-1.91-1.18-1.09-2.43-1.12-4.75.28-6.86.7-1.06,1.34-2.06,1.18-3.43-.23-1.96-.23-3.87,1.29-5.23,3.64-4.63,7.78-9.04,12.32-13.67.77-.79,1.2-1.84,1.8-2.76.28-1.34.76-2.45,1.74-2.98,1.5-.81,2.79-1.82,2.5-3.86h0Z"/>
      <path class="cls-3" d="m187.6,68.12c.55-.66.79-.02.79.28,0,.53-.87,2.92-1.67,4.11-2.65,3.89-5.04,6.44-5.59,7.31-2.4,3.83-6.48,7.91-9.96,11.64-1.71,1.84-2.57,4.11-3.21,6.3-.11.69-.29,1.39-.58,2.02-.22.47-.19.99-.37,1.47-.19.5-.34,1.02-.51,1.52-.17.49-.59.39-.68.84-.09.47-.35.94-.28,1.41.22,1.59.09,2.79-.5,3.38-.51.5-1.05.68-1.18-.44-.14-1.18-.05-2.27.39-3.38.49-1.21,1.21-2.32,1.52-3.6.24-1.03.09-2.69.24-3.76.02-.69.49-.69.66-1.41.13-.55,3.48-4.12,5.12-6.24,2.5-2.74,4.99-5.48,7.48-8.21.68-.74,1.18-1.6,1.57-2.59.3-.75.7-1.49,1.41-2.14.67-.62,1.58-1.1,2.14-1.75.57-.65,1.25-1.48,1.12-2.42-.17-1.35.19-2.51,1.09-3.39.32-.31.71-.6.99-.94h0Z"/>
      <path class="cls-3" d="m156.39,120.47c.52.03.79.49.57.91-.22.42-.32.79-.34,1.19-.08.8-.06,1.34-.09,2.71-.02.84-.5,1.51-.5,2.62,0,.91-.45,2.12-.79,2.48-1.58,1.42-3.05,2.88-4.33,4.42-.4.48-.39.95-.47,1.46-.38,2.48-.22,3.84,2.2,5.41,1.26.82,8.62,2.81,12.99,3.88,2.56.63,3.8,2.73,2.93,4.05-1.52,2.27-2.77,4.69-4.16,7.03-1.87,3.11-2.61,5.41-1.8,6.64.98,1.49,2.04,2.29,3.53,2.43.66.07.84.15,1.33,0,.34-.1.9.3.38.91-.76.89-.86,1.64-1.31,2.46-.28.5-.95.73-1.46.23-1.12-1.12-1.96-2.32-3-3.5-.34-.39-.76-.79-.75-1.36.03-1.42-.08-2.91.53-4.25.95-2.05,2.28-4.16,3.29-6.3.36-.76.54-1.6.82-2.39.31-.88.61-1.82-.47-2.35-1.92-.95-4.92-1.94-8.25-2.83-.88-.23-1.75-.6-2.48-1.12-.69-.5-1.45-.93-2.08-1.52-.59-.55-1.02-1.23-1.52-1.86-1.41-1.76-2.81-3.52-4.22-5.29,1.95-1.59,3.86-3.23,5.85-4.78.89-.7,1.33-1.55,1.35-2.65.04-2.44-.25-4.85.11-7.31.09-.65.51-.98,1.12-1.18.49-.16.65-.17,1.01-.15h0Z"/>
      <path class="cls-3" d="m172.91,49.2c-.56,5.59.95,8.21,3.29,10.87.63.71-1.26,1.74-1.91,1.23-8.35-6.54-11.64-11.29-12.6-11.7-2.84-1.24-3.24-2.86-6.16-2.73-.59.11-.72,1.9.03,1.85.74-.04,1.35.04,2.46.76,2.7,1.76,10.12,10.54,15.82,14.29-1.44,1.29-3.11,1.89-5.15,1.98.05.67-.09,1-.39,1.39-2.47-.96-4.03-2.27-5.61-4.62-.95-1.41-1.62-3.02-1.57-5.17-1.16-.86-2.14-1.99-3.3-2.86-2.5-2.53-3.86-4.38-3.83-6.53.03-2.03,1.08-2.81,3.54-2.88,2.38-.06,4.63.27,6.97,2.03,1.55-1.22,3.49-2.02,5.51-2.93,1.13-.5,2.81-.98,4.73-1.01,2.4-.05,4.8.07,7.2.11,1.02-2.88,2.96-4.31,6.25-3.77,2.61.43,2.77,1.87,2.87,4.44.04.95,1.23.55,1.69-.45.35-.77,1.19-.75,1.97-1.07,1.09-.44,2.32-1.02,3.26-1.75,1.51-1.16,2.78-2.7,4.95-2.7,2.21,0,4.32,1.87,2.64,4.73-.86,1.47-1.31,2.86-1.52,4.33-.8,5.72-2.98,9.83-6.47,12.27-1.04.72-1.97,1.16-3.54,1.23-.51.03-.63,1.13,0,1.35,1,.35.64,1.91.7,2.95.43,7.21-1.75,12.5-5.96,16.88-5.82,6.05-10.33,12.52-13.61,19.35-8.26,17.23-7.42,31.61,4.61,40.05,6.39,4.48,9.84,10.42,13.39,16.99,2.29,4.25,5.12,9,10.12,8.78,2.42-.11,4.03-1.23,3.94-4.39-.08-2.69-.78-9.31-3.83-15.98-2.23-4.86-4.28-9.52-6.41-14.29-5.25-13.13,1.61-23.1,8.33-34.88,1.34-2.35,2.07-5.05,2.03-7.88-.05-3.14-.02-6.24.9-9.34.48-1.6,2.8-4.43,4.73-4.16,2.99.42,3.1,4.22,2.47,9-.19,1.47-.07,1.57,1.02,1.47,1.8-.17,1.55,3.07,1.46,5.06-.05,1.1.39,1.11,1.69,1.12,1.69.01,2.26,4.36,2.02,7.2-.1,1.21-.45,2.35-1.35,3.26-2.92,2.96-5.45,6.14-7.88,9.34-1.5,1.98-.11,2.48.68,1.41,2.18-3,3.52-5.26,6.97-7.73,2.77-1.97,3.7.79,4.39,3.62.2,5.14-2.31,10.04-7.81,14.79-2.54,2.19-5.99,5.05-6.68,6.77-.38.95.16,1.67.77,1.07,1.24-1.12,2.17-2.36,3.6-3.5,1.22-.98,2.55-1.69,2.92.21.33,1.62-.09,3.57-.55,4.66-.21.51-.39,1.06-.02,1.77.57-.19.97-2,1.57-2.93.84-1.27,1.89-1.49,2.93.45,1.09,2.27.96,5.16.23,8.32-.23,1,.86,1.11,1.11.23.79-2.74,2.1-4.73,3.84-6.87.51-.62,1.12-1.09,1.8.49.75,1.76,1.88,4.88,1.69,7.95-.25,4.05-4.74,11.85-8.21,16.65-1.37,1.9-1.65,3.47-1.69,5.29-.06,2.93-.28,5.99-.34,8.78-.08,3.84-4.56,7.61-13.27,7.2-5.32-.25-7.12-1.36-10.06-.92-1.59.23-2.48,1.6-2.94,2.27-4.52,6.55-6.89,12.93-7.59,20.36-.3,1.63-.09,2.85.79,4.05,1.7,2.31,3.48,5.21,2.93,7.99-.3,1.5-1.12,2.85-1.69,4.27-2.14,5.36-2.48,11.18-3.71,16.76-1.17,4.41-2.48,8.35-6.09,11.49-1.82,1.59-3.88,2.89-6.73,3.02.19,1.95.17,3.89-.11,5.85-.22,1.56-1.8,2.28-2.84,1.69-1.41-.79-1.72-1.52-2.3-3.54-.23-.79-1.56-1.03-1.86-.1-.44,1.4-.63,2.18-1.77,3.52-.82.96-2.77.46-3.04-.45-.5-1.68-.45-4.07-1.61-3.08-1.25,1.5-2.46,2.55-4.01,3.31-1.68.82-2.88.42-2.81-1.69.08-2.35,1.66-4.51,4.28-6.07,1.12-.68,1.35-1.25.34-2.25-.55-.54-1.12-1.05-1.69-1.58-.58-.47-.71-1.52-.08-2.38,5.44-6.93,10.31-1.2,13.91-1.21,2.45-5.4,4.33-10.8,5.29-16.2.98-5.53,2.77-7.18,4.84-10.58,1.1-1.8,1.36-3.58-.34-5.29-2.02-2.03-4.2-3.9-6.3-5.85-1.23-1.34-2.35-2.71-2.51-4.88-.21-2.76-.45-6.75-.97-8.28-3.57-9.84-1.41-13.51-3.43-15.41-.2-.19-.03-.55.28-.79.41-.34.77.07,1.15.11,2.7-7.06,7.18-10.93,7.43-12.15.23-1.18-1.04-2.37-2.36-1.24-1.55,1.32-2.88,1.78-4.48,1.39-2.55-.61-2.4-2.35-1.31-4.26,1.5-2.64,3.78-4.96,5.46-7.59,1.78-2.81,1.74-5.6-3.21-7.71-5.35-2.27-10.31-1.9-13.78-4.44-3.12-2.5.69-5.05,3.09-7.09,1.56-1.32,2.15-3.47,2.14-6.41,0-2.09.08-4.09,1.58-5.93.92-1.12,2.29-2.29,4.27-3.41.81-.46,1.1-1.17.68-1.97-.42-.77-1.2-.74-1.97-.17-3,2.19-5.97,3.69-6.75,3.88-2.81.69-4.2,1.82-4.5,3.38-.52,2.66-.18,5.12-.06,7.65.03.55-.17,1.06-.62,1.41-2.49,1.95-5.05,3.8-7.59,5.68-.49.36-.34.6,0,.68.75.17,1.18.58.62.96-1.35,1.15-2.58,2.41-3.71,3.77-.96,1.19-3.67,1.16-4.47-.14-1.32-2.12-.36-4.34-1.15-5.15-.46-.49-1.07-.77-1.46-.11-.46.76-.84,1.48-1.57,1.91-2.22,1.29-3.56.5-4.16-1.91-.76-3.04-.62-7.28.35-11.68-3.12-1.45-5.26-3.18-7.66-6.21-.66-.82-1.46-.46-2.36.11-2.42,1.53-4.27.34-4.95-3.04-.67-3.29-1.44-6.91-3.66-11.53-.95-1.98-2.18-2.62-3.94-2.75-2.1-.16-3.77-1.02-5.4-2.14-1.17-.8-1.16-1.88-.11-3.15,1.36-1.64,3.18-2.36,5.2-3.16.69-.27,1.26-.54,2.22-.55.47,0,.54.57.62,1.07.16.92,1.32,1.1,2.25,1.07.65-.03,1.09-.37,1.86-1.18,1.67-1.77,2.97-4.42,4.3-7.73.41-1.03,1.31-1,1.8,0,2.16,4.43,1.56,9.42.68,14.4-.11.58.45.93.78,1.12,1.08-1.74,2.26-3.32,3.49-4.84.51,1.81,2.1,2.93,3.82,3.31,2.04.45,2.61,1.29,3.27,3.44.96-1.1.69-3.2.67-5.51-.03-6.35,2.71-12.87,9.9-14.68.59-.15,1.03-.3.62-1.12-.4-1.33-2.02-3.71-1.91-6.35.06-1.64.82-3.16,2.02-4.67.38-.47.88-.43,1.29.05,1.56,1.85,3.88,4.4,6.54,4.32.61-.02,1.25-.18,1.45-1.17.2-1,.25-2.24,0-3.6-.13-.73.18-1.72,1.07-1.74,3.68.03,6.14,1.6,7.37,5.57.12.38.77.4.84-.06.14-.95.12-2.04.73-2.81.59.5.41,1.37.79,1.97.66,1.05,1.82,1.44,3.21.68,1.79-.98,3.21-2.84,3.89-5.87,3.82.43,6.95-1.91,8.76-5.38.41-.78.32-1.55,1.38-2,.38.21.67.82,1.09.82,2.03-.03,4.05-.02,6.08-.05.43,0,.62-.57.67-1.24.28-3.52.19-7.13-2.87-9.73-2.5-2.13-6.4-1.81-10.13-1.75-.54.01-.79.21-.84.73h0Z"/>
      <path class="cls-4" d="m155.86,89.49c.52-.22,1.11.03,1.33.54.22.52-.02,1.11-.54,1.33-5.03,2.13-9.51,4.11-12.69,6.66-3.04,2.44-4.91,5.45-4.91,9.73,0,.03,0,.05,0,.08h0c-.27,3.52-1.26,6.52-2.8,9.23-1.52,2.68-3.56,5.06-5.95,7.39-.4.39-1.05.38-1.44-.02-.39-.4-.38-1.05.02-1.44,2.26-2.2,4.19-4.45,5.6-6.94,1.39-2.46,2.29-5.18,2.53-8.38h0c.03-4.96,2.17-8.43,5.67-11.24,3.38-2.71,8-4.75,13.18-6.95h0Z"/>
      <path class="cls-4" d="m187.39,162.1c-.01-1.11,1.21-1.13,1.91-.34,2.41,2.71,4.29,5.83,4.95,9,.31,2.03-1.29,3.31-2.7,4.84-4.52,5.73-9.32,11.3-9.68,18.56-.15,3.09.31,6.55,1.43,9.51.65,1.68-1.52,2.93-2.38.74-1.52-3.87-2.41-7.06-3.11-10.81-.32-1.76.44-6.77,1.58-9.9,1.8-4.97,4.46-9.74,7.09-14.4.81-1.44,1.15-2.9,1.01-4.61-.03-.86-.1-1.73-.11-2.59h0Z"/>
      <path class="cls-3" d="m180.25,190.09c1.02-4.48,6.71-12.52,11.54-18.48.19-1.84-.38-3.43-1.52-4.84-.42-.51-.68-.49-.73.11-.09,1.18-.13,2.36-.73,3.43-3.16,5.14-6.32,10.33-8.04,15.75-.36,1.11-.6,2.35-.51,4.03h0Z"/>
      <path class="cls-3" d="m114.07,85.56c-1.01-1.88-.92-4.19-1.01-6.41-.09-2.22-.3-4.43-.45-6.64,2.51-4.88,4.98-9.77,7.54-14.62.51-.96.5-1.8,0-2.59-.73-1.23-1.84-2.86-3.42-3.61-.14,1.48.75,3.02.61,4.4-.16,1.37-.55,2.43-1.24,3.6-1.99,3.38-4.6,9.05-5.74,10.35-.4-1.43-1.27-4.46-1.39-8.13-.12-3.46-1.4-5.95-1.65-9.99-.03-.56-.53-1.09-1.01-1.8-1.45-2.12-4.26-3.22-5.03-3.12-.79.1-.73-.9-2.66-.92.66.68.89,1.6,1.41,2.26,1.21,2.01,1.61,4.92.58,5.92-3.05,2.96-4.88,4.75-2.41,7.12,1.35,1.3,2.83,2.51,3.71,3.71,1.2,1.64,1.12,2.48-1.23,2.7-1.81.17-3.71-1.16-5.57-1.97-1.02-.44-1.6-.88-2.7-.84-1.88.06-3.18-1.13-5.06-1.24-2.71-.16-4.2.64-4.73,2.59.32.12.64.25.96.37,2.11-.34,3.51.33,4.69,1.8,1.34,1.66,2.81,3.14,3.97,4.86,1.33.08,2.55.15,4.33-.73,1.38-.68,2.65-.91,3.94-.62,2.19.49,2.04,2.6,1.07,3.32-1.07.8-2.11.47-2.49.83-.94.7-.35,1.76-.89,2.43-.36.45-.56.9-.56,1.46-.02,2.27.15,4.72-1.12,5.79-1.9,1.59-3.51,1.72-4.21,3.15-.28.56-.33.93.42,1,1.37.12,2.77.3,3.84-.27,1.07-.56,1.74-.44,2.6-.41.29,0,.68-.23.94-.61,2.13-3.03,3.34-6.13,3.77-9.51.08-.65.57-1.31,1.24-1.97,1.05,1.38,2.01,2.84,2.19,4.67.41,4.08,1.33,5.09,1.7,6.61.24.97-.27,3.44,1.56,3.69,1.73-2.18,2.88-4.39,3.49-6.64h0Z"/>
      <path class="cls-3" d="m144.51,176.06c.3-.14.95-.68,1.44-.28.56.45,2.13,1.24,2.52,2.12.16.38-.3.77-.74.75-.55-.02-2.76-1.85-3.23-2.59h0Z"/>
      <path class="cls-3" d="m147.83,175.05c.3-.14.94-.68,1.44-.28.56.45,2.12,1.24,2.51,2.12.17.38-.3.77-.73.75-.55-.02-2.76-1.85-3.23-2.59h0Z"/>
      <path class="cls-3" d="m147.52,166.12c.79,2.02,1.32,3.98,1.29,5.85-.01.46.22.62.79.78,1.52.45,2.77,1.3,3.6,2.31.42.47.78.75,1.17.5.57-.22.7-1.33,1.25-1.73.47-.22.38-1.03,0-1.63-.63-1.09-1.09-2.65-1.52-3.71-.31-.77-.43-1.58-1.35-1.63-1.04-.11-2.08-.42-3.15-1.18-.96-.76-1.65-.59-2.08.45h0Z"/>
      <path class="cls-3" d="m145.61,179.51c-.32.53-.74.78-1.21.9-.38.11-.44.16-.19.76.86,2.1.07,3.77-1.07,5.12-1.55,1.2-1.72,2.65-1.79,4.16-.07,1.52.06,2.66.33,4.08.08.52.57.41.59.14.1-1.51.17-3.22.59-4.02.59-1.12,1.72-2.21,2.61-2.42.89-.2,1.47.09,1.97,1.29,1.1-.91,1.05-2.63,1.29-4.16.1-.59-.14-1.14-.39-1.66-.53-1.1-1.13-2.18-1.8-3.21-.25-.38-.62-.66-.93-.98h0Z"/>
      <path class="cls-3" d="m157.77,167.14c.1-.41.49-.33.9.39.31.54.68,1.07.79,1.69.07.39.12.78.17,1.18.07.56.25.86.51,1.01,1.07.64,1.82,1.61,3.76,1.38.76-.1,1.32-.88.35-1.49-1.2-.7-5.57-3.77-5.09-8.07.4-3.59,2.38-7.73,4.46-11.42.2-.39.52-.95.08-1.33-.36-.31-.72-.64-1.32-.74-.56-.1-1.39-.55-1.78.07-.36.59-.67.95-1.35.85-4.43-.31-8.8.14-13.16.11-6.65-.05-9.91,2.54-10.41,8.16-1.72,9.3-1.87,18.78-2.19,28.24-.48,2.46-2.47,3.12-4.9,2.87-4.11-.43-7.95-1.5-12.26-1.75-1.62-.09-4.29-1.9-4.67-4.33-.44-2.8-3.84-6.6-5.15-7.2-1.51-.69-1.93.48-1.78,1.75.18,1.62.87,3.08,1.64,4.55.54,1.02-.22,1.76-.9.96-1.43-1.7-3.1-2.14-5.23-2.08-1.71.05-3.33.88-4.95,1.12-.98.1-1.01,1.17-.23,1.41,3.71,1.12,8.45,1.93,8.38,4.78-.05,2.3-4.27,2.41-7.31,2.7-1.38.17-1.81,1.36-.86,1.57,1,.3,1.98.16,3.04.18,1.71.04,3.38.1,3.67,1.62.23,1.21-.95,1.61-1.43,2.49-1.34,2.39-1.53,4.46-.51,6.46.24.53.52.65.95.28,2.86-2.57,5.58-5.25,7.99-8.42.42-.54.7-.89,1.45-.94,1.29,0,2.37.32,3.21,1.91.33.59.47,1.43,1.18,1.46,1.02,0,2.25-1.15,3.16-1.83,1.35-1,5.96-.31,8.58,1.41,2.29,1.5,11.67,3.74,14.6,3.77,1.03.05,1.57-.25,1.8-.68,1.64-3.02,2.58-6.4,3.04-9.79.11-.84-.71-1.07-.93-.17-.49,2.04-1.08,4.06-1.8,6.08-.34.94-.9,1.56-1.66,1.6-1.11.06-1.78-1.13-2.21-2.5-.99-3.19-.6-8.64,1.34-11.08.76-.96,2.46-1.57,1.12-3.45-.81-1.14-.9-1.99.34-2.81.75-.51,1.62-.92.65-1.77-1.84-.53-3.52-1.99-1.38-2.61,1.39-1,3.07-1.43,5.14-1.07-.03-1.76-.52-3.56-1.09-5.51-.85-2.89-.78-5.8,2.98-5.28,3.46.47,6.89,1.56,7.76,4.75.02.63.35.93.84.84.39-.06.51-.65.67-1.3h0Z"/>
      <path class="cls-3" d="m107.49,205.54l.99-1.38c-1.39.51-2.72,1.13-3.98,1.85l3-.48Zm2.24-1.8l-1.5,2.09,3.4,3.05h12.57s3.07-2.81,3.07-2.81l-2.09-2.58c-1.93-.54-3.95-.87-6.02-.97h-.05s-.07,0-.07,0h-.05s-.24-.01-.24-.01h-.06s-.06,0-.06,0h-.06s-.12,0-.12,0h-.06s-.24,0-.24,0h-.06s-.51,0-.51,0h-.07s-.2,0-.2,0h-.07s-.07,0-.07,0h-.07s-.06,0-.06,0h-.07s-.06,0-.06,0c-.13,0-.26.01-.4.01h0c-2.36.11-4.64.53-6.81,1.21h0Zm19.62,50.38l-1.85.14-.69.89c.87-.3,1.72-.65,2.54-1.04h0Zm-1.91-.62l3.66-.29c2.17-1.22,4.16-2.73,5.91-4.48,1.95-1.95,3.6-4.19,4.88-6.65l-.21-3.29-4.19-2.36-9.18,4.82c-.24,1.73-.7,3.38-1.33,4.98-.61,1.56-1.39,3.08-2.28,4.55l2.73,2.7Zm-1.91,2.07l1.26-1.64-2.72-2.7-12.39-.16-2.49,2.75.21,1.49c2.21.73,4.54,1.18,6.95,1.31h.04s.09,0,.09,0h.05s.23.01.23.01h.05s.07,0,.07,0h.14s.01,0,.01,0h.12s.01,0,.01,0h.13s.21,0,.21,0h.07s.59,0,.59,0h.06s.19,0,.19,0h.05s.13,0,.13,0h.06s.06,0,.06,0h.06s.06,0,.06,0h.06s.13,0,.13,0h.05s0,0,0,0h.06s.05,0,.05,0h.07s.05,0,.05,0h0c2.13-.12,4.2-.48,6.16-1.06h0Zm-20.72-2.26h3.82s2.41-2.65,2.41-2.65c-.99-1.46-1.79-2.98-2.38-4.56-.59-1.57-.97-3.19-1.14-4.86-1.63-.58-3.17-1.29-4.65-2.11-1.49-.83-2.92-1.79-4.28-2.85l-4.56,2.85-.22,2.9c1.29,2.49,2.95,4.75,4.91,6.71,1.8,1.8,3.85,3.34,6.09,4.58h0Zm3.65.77h-2.16c.75.35,1.51.67,2.29.95l-.13-.95Zm-15.32-13.43l.12-1.58-1.09-.92c.29.86.61,1.69.97,2.5h0Zm49.32-1.9l.12,1.93c.4-.89.76-1.82,1.06-2.76l-1.18.83Zm-34.18,2.5c.17,1.57.54,3.1,1.09,4.58.57,1.54,1.36,3.03,2.35,4.48l12.3.16c.88-1.46,1.66-2.96,2.26-4.51.6-1.52,1.04-3.1,1.28-4.73l-9.68-4.69-9.59,4.71Zm-9.54-16.25l.17,10.56c1.38,1.08,2.82,2.06,4.33,2.9,1.49.83,3.05,1.54,4.68,2.12l9.57-4.7.11-11.71-9.68-5.39c-1.7.72-3.3,1.58-4.78,2.57-1.53,1.02-2.95,2.2-4.26,3.52l-.14.14Zm-.59,10.65l-.17-10.91h.11c-.76-.43-1.56-.84-2.36-1.25-.85-.43-1.7-.87-2.5-1.33l-1.8,1.55c-.34,1.54-.55,3.12-.61,4.74v.08s0,.05,0,.05v.06s0,.03,0,.03v.05s0,.14,0,.14v.05s0,.2,0,.2v.04s0,.34,0,.34v.05s0,.1,0,.1v.06s0,.36,0,.36v.06s0,.12,0,.12v.05s0,.13,0,.13v.11s0,.01,0,.01v.06s.01.16.01.16v.07c.09,2.07.42,4.07.95,5.99l1.93,1.63,4.45-2.78Zm20.22-11.48l-.11,11.71,9.71,4.7,9.16-4.81-.05-10.91c-1.3-1.28-2.73-2.4-4.26-3.4-1.53-1-3.17-1.87-4.88-2.66l-9.57,5.37Zm19.47.75l.05,10.86,4.16,2.33,1.95-1.37c.53-1.92.85-3.93.94-6v-.13s0-.05,0-.05v-.06s0-.01,0-.01v-.16s0-.05,0-.05v-.18s0-.24,0-.24v-.06s0-.48,0-.48v-.04s0-.25,0-.25v-.04s0-.15,0-.15v-.03s0-.11,0-.11v-.05s0-.05,0-.05v-.14s0-.03,0-.03v-.09s0-.02,0-.02c-.07-1.6-.29-3.16-.62-4.68l-1.58-1.39c-.87.4-1.7.83-2.5,1.28-.82.45-1.61.91-2.39,1.38h0Zm5.35-3.28l.8.7c-.21-.75-.45-1.5-.72-2.23l-.07,1.53Zm-51.45.79l1.06-.92.05-2.32c-.43,1.05-.81,2.13-1.11,3.24h0Zm36.25-16.69l3.17.23c-1.48-.83-3.03-1.53-4.67-2.08l1.5,1.85Zm4.61,1.1l-4.66-.34-3.09,2.81c.83,1.33,1.53,2.72,2.09,4.16.58,1.49,1.01,3.03,1.31,4.63,1.75.81,3.41,1.7,4.97,2.71,1.54,1,2.97,2.12,4.28,3.39.77-.46,1.55-.92,2.35-1.36.82-.45,1.68-.89,2.57-1.31l.15-3.1c-1.36-3.01-3.25-5.72-5.55-8.03-1.34-1.34-2.82-2.54-4.42-3.58h0Zm-5.11,11.33c-.29-1.53-.71-3-1.26-4.42-.56-1.43-1.25-2.81-2.09-4.12h-12.44c-.85,1.35-1.56,2.76-2.15,4.22-.55,1.36-1,2.77-1.36,4.21l9.79,5.45,9.5-5.33Zm-20.12,0c.38-1.59.87-3.13,1.47-4.62.59-1.46,1.3-2.88,2.15-4.23l-3.39-3.04-4.79.76c-1.47.99-2.85,2.12-4.1,3.37-2.04,2.04-3.76,4.41-5.07,7.03l-.08,4.03c.8.46,1.65.89,2.5,1.33.84.43,1.68.86,2.48,1.31,1.28-1.27,2.68-2.4,4.17-3.4,1.46-.98,3.02-1.82,4.66-2.54h0Zm-10.09-9.2c5.27-5.27,12.55-8.53,20.59-8.53s15.32,3.26,20.59,8.53c5.27,5.27,8.53,12.55,8.53,20.59s-3.26,15.32-8.53,20.59c-5.27,5.27-12.55,8.53-20.59,8.53s-15.32-3.26-20.59-8.53c-5.27-5.27-8.53-12.55-8.53-20.59s3.26-15.32,8.53-20.59h0Z"/>
      <g class="cls-1">
        <path class="cls-3" d="m47.79,201.19l-.45-170.55,47.89-.05c6.87,0,17.69-.72,28.24-4.2,8.28-2.73,16.83-8.19,25.9-16,9.07,7.81,17.64,13.26,25.92,16,10.55,3.48,21.36,4.19,28.24,4.2l47.89.05-.45,170.55c-.09,33.87-9.06,61.7-47.25,72.45-25.34,7.93-45.8,19.45-54.34,39.39-8.54-19.94-28.99-31.45-54.33-39.39-38.2-10.75-47.16-38.58-47.25-72.45h0Zm-5.06-175.14l.46,175.15c.1,37.73,11.54,65.83,50.53,76.84,19.92,6.24,42.67,16.36,51.42,36.79l4.22,9.85,4.22-9.85c8.75-20.43,31.51-30.55,51.43-36.79,38.99-11.01,50.43-39.11,50.53-76.84l.46-175.15-52.49-.06c-8.91,0-18.33-1.17-26.8-3.97-8.9-2.94-17.33-9.06-24.36-15.12l-3-2.58-3,2.58c-7.04,6.05-15.45,12.18-24.34,15.12-8.47,2.8-17.89,3.96-26.8,3.97l-52.49.06Z"/>
        <path class="cls-5" d="m65.16,274.78l-9.98-2.04c-14.14-2.89-28.66-5.84-42.13-11.09l-.08-.03-.08-.03c-1.73-.57-3.61-1.19-5.4-1.49-1.82-.31-3.74-.23-5.14,1.16-2.61,2.59-.69,7.4.34,10.32l7.29,21.78-8.98,18.83c-2.34,4.66-.52,9.13,4.48,10.85l22.49,8.22-.55,7.86c-.17,2.45.05,5.04,2.08,6.72,1.27,1.06,2.75,1.34,4.32,1.63,38.01,7.13,76.7,10.37,115.36,10.37s77.11-3.29,115.03-10.37c4.38-.82,7-3.98,6.43-8.47-.2-2.58-.37-5.17-.57-7.75,7.51-2.74,15.02-5.49,22.53-8.23,2.13-.78,4.45-1.76,5.4-3.99.97-2.29,0-4.69-.95-6.79l-.02-.05-8.98-18.84c1.14-3.51,2.13-7.11,3.12-10.65.91-3.28,1.79-6.57,2.67-9.86.48-1.8.94-3.66,1.47-5.45.56-1.9.69-4.04-.89-5.52-1.7-1.59-3.98-1.17-5.91-.36-7.3,2.67-15.02,4.64-22.6,6.38-7.65,1.76-15.35,3.28-23.04,4.85l-9.98,2.04c-3.89.79-5.26,3.57-5.13,7.3l.03,5.1c-18.1,2.14-29.74,3.11-46.48,3.84,7.91-4.34,16.56-7.53,24.6-10.05,40.22-11.37,52.62-40.5,52.72-79.77l.47-178.21-55.56-.06c-8.6-.01-17.65-1.11-25.84-3.82-8.51-2.81-16.59-8.73-23.32-14.53l-4.99-4.3-5,4.3c-6.73,5.8-14.8,11.72-23.3,14.53-8.19,2.7-17.24,3.8-25.84,3.82l-55.56.06.47,178.21c.1,39.27,12.5,68.39,52.72,79.77,8.11,2.54,16.82,5.77,24.78,10.16-17.11-.56-28.99-1.62-47.38-3.95l.03-5.23v-.08c-.17-3.49-1.39-6.33-5.13-7.09h0Zm109.68,16.51h0l-.13.08c-1.47.94-2.9,1.93-4.29,2.96l-.14.1c-7.15,5.36-13.1,12.01-16.69,20.4l-4.22,9.85-4.22-9.85c-3.58-8.37-9.51-15-16.64-20.35h0l-.06-.05-.06-.05c-.28-.21-.58-.42-.89-.63-1.15-.84-2.33-1.64-3.54-2.41l-.04-.03c-9.34-5.97-20.14-10.12-30.21-13.27-38.99-11.01-50.43-39.11-50.53-76.84l-.46-175.15,52.49-.06c8.91,0,18.33-1.17,26.8-3.97,8.9-2.93,17.31-9.06,24.34-15.12l3-2.58,3,2.58c7.03,6.06,15.46,12.18,24.36,15.12,8.47,2.8,17.89,3.96,26.8,3.97l52.49.06-.46,175.15c-.1,37.73-11.54,65.83-50.53,76.84-10.06,3.15-20.84,7.29-30.18,13.25h0Zm.98,3.01c19.82-.55,34.37-1.69,55.03-4.43l-.05-7.86c-.11-2.6.56-3.81,2.68-4.24l9.98-2.03c14.2-2.9,32.48-6.38,46.14-11.38,2.68-1.14,3.5-.35,2.75,2.16-.62,2.09-5.04,19.36-7.61,27.03l9.5,19.95c1.89,4.17,1.5,5.09-2.71,6.64l-23.4,8.55c-.84.24-1.31.57-1.2,1.87.25,3.06.41,5.7.65,8.77.39,2.82-1.04,4.64-3.94,5.13-37.76,7.09-76.07,10.32-114.47,10.32s-76.97-3.21-114.79-10.32c-2.69-.5-4.24-.76-3.91-5.13l.59-8.41c.09-1.26-.15-1.86-1.18-2.23l-23.4-8.55c-3.31-1.14-4.21-3.66-2.71-6.64l9.51-19.95-7.7-23c-2.98-8.39-1.83-8.74,6.36-6.06,13.52,5.28,28.43,8.34,42.63,11.24l9.98,2.03c2.02.41,2.56,1.81,2.68,4.24l-.05,7.85c20.94,2.77,35.73,3.93,55.82,4.48,8.34,5.47,15.4,12.48,19.34,21.69l7.04,16.42,7.04-16.42c3.96-9.23,11.04-16.26,19.41-21.73h0Z"/>
      </g>
      <path class="cls-4" d="m34.68,344.62c37.82,7.11,76.32,10.32,114.8,10.32s76.71-3.23,114.47-10.32c2.9-.5,4.33-2.31,3.94-5.13-.23-3.06-.4-5.7-.64-8.76-.11-1.3.37-1.62,1.2-1.87l23.4-8.55c4.2-1.55,4.6-2.47,2.71-6.64l-9.51-19.94c2.57-7.67,6.99-24.94,7.61-27.03.75-2.51-.07-3.3-2.75-2.16-13.66,5-31.94,8.48-46.14,11.38l-9.98,2.04c-2.12.43-2.78,1.64-2.68,4.24l.05,7.85c-20.66,2.75-35.2,3.71-55.02,4.26-7.05.35-13.8.43-52.75.06-20.09-.54-34.97-1.55-55.9-4.33l.05-7.85c-.11-2.43-.66-3.83-2.68-4.24l-9.98-2.04c-14.2-2.9-29.11-5.96-42.63-11.24-8.19-2.68-9.34-2.33-6.36,6.05l7.7,23.01-9.51,19.94c-1.5,2.98-.6,5.49,2.71,6.64l23.4,8.55c1.03.38,1.27.96,1.18,2.23l-.59,8.4c-.33,4.37,1.21,4.64,3.91,5.13h0Z"/>
      <path class="cls-3" d="m149.66,349.9c38.79-.05,76.59-3.29,113.58-10.23-1.27-16.53-2.24-33.11-2.76-49.78-36.94,7.54-73.88,9.46-110.81,9.79-36.94-.33-74.21-2.25-111.15-9.79-.52,16.67-1.49,33.25-2.75,49.78,36.99,6.95,75.11,10.19,113.9,10.23h0Zm86.48-66.85c4.62.82,9.3,2.62,13.95,3.38-4.49,1.12-9.09,1.98-13.91,2.51l-.04-5.88Zm-173.28,0c-4.62.82-9.3,2.62-13.95,3.38,4.49,1.12,9.09,1.98,13.91,2.51l.04-5.88Zm182.06-2.59c15.29-3.12,30.4-6.39,43.43-11.48-2.77,8.29-5.55,16.58-8.32,24.86,3.45,7.24,6.9,14.48,10.35,21.71-7.8,2.85-15.6,5.7-23.4,8.55-.75-12.15-1.23-24.21-1.86-36.36-.09-1.76-1.07-2.74-2.36-3.07-5.13-1.3-11.95-2.72-17.83-4.22h0Zm-190.83,0c-15.28-3.12-30.4-6.39-43.43-11.48,2.78,8.29,5.55,16.58,8.33,24.86-3.45,7.24-6.9,14.48-10.35,21.71,7.8,2.85,15.6,5.7,23.4,8.55.75-12.15,1.23-24.21,1.86-36.36.09-1.76,1.07-2.74,2.36-3.07,5.13-1.3,11.95-2.72,17.83-4.22h0Z"/>
      <path class="cls-4" d="m53.36,313.12l-.57,3.81,7.58,1.12-.56,3.78-7.58-1.12-.71,4.82,8.43,1.24-.56,3.78-11.96-1.76,2.95-19.97,11.68,1.72-.56,3.78-8.14-1.2Z"/>
      <path class="cls-4" d="m72.61,324.28l1.47-12.28,3.49.42-2.41,20.12-3.63-.44-4.59-12.69-1.43,11.97-3.49-.42,2.41-20.11,3.52.42,4.66,13.01Z"/>
      <path class="cls-4" d="m62.3,330.74l2.35-19.61,3.11.38,4.98,13.88,1.57-13.09,2.98.36-2.34,19.61-3.22-.39-4.91-13.55-1.53,12.78-2.98-.36Z"/>
      <path class="cls-4" d="m83.66,316.93l-.38,4.16,6.7.61-.35,3.83-6.69-.61-.76,8.35-3.72-.34,1.83-20.17,11.44,1.04-.35,3.83-7.73-.7Z"/>
      <path class="cls-4" d="m78.73,332.7l1.79-19.67,10.94.99-.3,3.32-7.73-.7-.43,4.67,6.7.61-.3,3.32-6.7-.61-.76,8.35-3.21-.29Z"/>
      <path class="cls-4" d="m91.76,334.34l1.52-20.2,3.72.28-1.52,20.2-3.72-.28Z"/>
      <path class="cls-4" d="m92.03,334.1l1.48-19.69,3.22.24-1.48,19.69-3.22-.24Z"/>
      <path class="cls-4" d="m103.14,318.8l-.22,3.84,8.05.46-.22,3.84-8.05-.46-.28,4.86,8.95.52-.22,3.84-12.68-.73,1.17-20.22,12.37.71-.22,3.84-8.65-.5Z"/>
      <path class="cls-4" d="m98.73,334.73l1.14-19.71,11.87.69-.19,3.33-8.65-.5-.25,4.35,8.05.46-.19,3.33-8.05-.46-.31,5.37,8.95.52-.19,3.33-12.17-.7Z"/>
      <path class="cls-4" d="m117.6,332.07l8.05.31-.15,3.84-11.79-.45.78-20.08,3.73.14-.63,16.23Z"/>
      <path class="cls-4" d="m113.99,335.53l.76-19.57,3.22.12-.63,16.23,8.06.31-.13,3.34-11.28-.44Z"/>
      <path class="cls-4" d="m128.2,316.15l6.16.12c1.09.02,2.47.12,3.48.59.87.4,1.58,1.07,2.16,1.82.73.94,1.19,2.08,1.5,3.22.41,1.54.5,3.25.47,4.84-.03,1.51-.2,3.07-.67,4.51-.34,1.07-.83,2.18-1.55,3.05-.62.74-1.37,1.32-2.25,1.7-1.02.43-2.22.54-3.33.52l-6.33-.12.38-20.25Zm3.66,3.92l-.23,12.56,2.18.04c.63.01,1.58,0,2.18-.24.42-.17.78-.43,1.05-.8.37-.47.59-1.21.73-1.78.26-1.06.33-2.26.35-3.34.02-1.09,0-2.34-.23-3.41-.15-.67-.4-1.37-.84-1.89-.38-.45-.84-.75-1.4-.91-.7-.19-1.84-.2-2.57-.21l-1.22-.02Z"/>
      <path class="cls-4" d="m128.45,316.42l5.91.11c1.49.03,2.62.22,3.37.57.76.35,1.44.93,2.07,1.75.62.8,1.11,1.85,1.45,3.13.34,1.29.49,2.88.46,4.77-.03,1.7-.25,3.18-.66,4.44-.41,1.25-.91,2.24-1.51,2.97-.6.73-1.32,1.27-2.16,1.63-.84.36-1.91.52-3.22.5l-6.08-.11.37-19.74Zm3.16,3.39l-.24,13.07,2.43.05c1.04.02,1.8-.06,2.27-.25.47-.19.86-.48,1.16-.88.31-.4.57-1.02.78-1.88.21-.86.33-1.99.36-3.4.03-1.46-.05-2.62-.24-3.47-.18-.84-.49-1.52-.9-2.01-.42-.49-.93-.82-1.53-.99-.45-.12-1.33-.2-2.63-.22l-1.47-.03Z"/>
      <path class="cls-4" d="m213.25,326.14l-1.24-12.3,3.5-.36,2.04,20.16-3.64.37-7.25-11.39,1.21,12-3.5.35-2.04-20.15,3.53-.36,7.39,11.68Z"/>
      <path class="cls-4" d="m204.6,334.69l-1.99-19.65,3.12-.31,7.88,12.46-1.32-13.12,2.99-.3,1.98,19.65-3.23.32-7.74-12.16,1.29,12.81-2.99.3Z"/>
      <path class="cls-4" d="m186.6,328.06l2.09-12.62,4.25-.2,3.21,12.57,1.65-12.8,3.77-.18-2.97,20.42-3.88.18-3.65-13.67-2.31,13.95-3.92.19-4.88-20.05,3.84-.18,2.8,12.39Z"/>
      <path class="cls-4" d="m185.03,335.64l-4.75-19.55,3.32-.16,3.04,13.46,2.27-13.71,3.84-.18,3.49,13.66,1.79-13.91,3.25-.15-2.9,19.91-3.46.16-3.9-14.61-2.47,14.92-3.51.16Z"/>
      <path class="cls-4" d="m163.71,326.87c-.1-1.97.03-4.11.76-5.96.56-1.41,1.38-2.73,2.61-3.65,1.21-.9,2.63-1.29,4.12-1.37,2.36-.12,4.35.7,5.93,2.46,1.85,2.05,2.47,4.91,2.6,7.59.14,2.79-.26,5.71-1.96,8.01-1.36,1.84-3.26,2.72-5.53,2.84-2.27.11-4.27-.55-5.81-2.24-1.91-2.09-2.6-4.92-2.74-7.68h0Z"/>
      <path class="cls-4" d="m163.96,326.86c-.12-2.34.13-4.29.74-5.85.61-1.56,1.46-2.73,2.53-3.53,1.08-.8,2.4-1.24,3.98-1.32,2.29-.12,4.2.67,5.73,2.37,1.53,1.69,2.38,4.17,2.54,7.44.16,3.3-.47,5.91-1.91,7.84-1.26,1.71-3.04,2.62-5.34,2.74-2.32.11-4.19-.61-5.61-2.16-1.62-1.78-2.51-4.29-2.67-7.53h0Z"/>
      <path class="cls-4" d="m154.16,320.3h-4.75v-3.85h13.24v3.85h-4.75v16.41h-3.74v-16.41Z"/>
      <path class="cls-4" d="m154.41,336.46v-16.41h-4.75v-3.34h12.74v3.34h-4.75v16.41h-3.23Z"/>
      <path class="cls-4" d="m249.73,321.21l3.79.92-.02.22c-.16,1.84-.62,3.85-1.85,5.28-1.08,1.26-2.48,1.94-4.12,2.16-2.13.28-4.01-.32-5.57-1.82-2.02-1.95-2.93-4.67-3.29-7.39-.37-2.79-.24-5.82,1.24-8.29,1.15-1.92,2.88-2.98,5.09-3.27,1.82-.24,3.46.18,4.91,1.31,1.18.93,1.95,2.38,2.47,3.76l.09.23-3.53,1.56-.09-.27c-.28-.83-.72-1.63-1.44-2.15-.62-.45-1.31-.62-2.07-.52-1.14.15-1.94.79-2.48,1.79-.75,1.4-.62,3.58-.42,5.09.2,1.53.63,3.79,1.71,4.97.75.83,1.67,1.26,2.79,1.11.8-.11,1.42-.52,1.89-1.17.62-.88.81-2.16.87-3.21v-.3Z"/>
      <path class="cls-4" d="m249.97,321.53l3.27.79c-.19,2.27-.79,3.98-1.79,5.14-.99,1.16-2.31,1.85-3.96,2.07-2.07.27-3.86-.32-5.36-1.75-1.73-1.67-2.8-4.08-3.21-7.24-.44-3.34-.04-6.05,1.2-8.13,1.09-1.81,2.72-2.86,4.91-3.15,1.79-.23,3.36.19,4.72,1.26.97.77,1.77,1.98,2.39,3.65l-3.05,1.34c-.34-1.03-.86-1.79-1.54-2.27-.68-.48-1.43-.67-2.25-.57-1.17.16-2.06.8-2.67,1.92-.61,1.13-.76,2.88-.45,5.25.32,2.46.91,4.16,1.77,5.11.86.95,1.86,1.34,3.02,1.19.84-.11,1.53-.54,2.06-1.28.53-.75.84-1.85.92-3.34h0Z"/>
      <path class="cls-4" d="m228.73,315.44l.44,4.16,6.68-.71.41,3.83-6.69.71.88,8.33-3.72.39-2.13-20.14,11.43-1.21.4,3.83-7.72.81Z"/>
      <path class="cls-4" d="m226.96,331.88l-2.07-19.64,10.92-1.15.35,3.32-7.72.81.49,4.66,6.68-.71.35,3.32-6.69.7.88,8.34-3.21.34Z"/>
      <path class="cls-3" d="m167.29,326.56c.11,2.26.62,3.94,1.53,5.03.91,1.09,2,1.6,3.26,1.54,1.27-.06,2.3-.68,3.08-1.84.78-1.16,1.11-2.91,1-5.24-.11-2.28-.6-3.95-1.47-5-.87-1.05-1.96-1.54-3.28-1.48-1.31.07-2.35.67-3.13,1.81-.77,1.14-1.1,2.87-.98,5.18h0Z"/>
      <path class="cls-4" d="m167.54,326.55c.08,1.62.4,3.59,1.47,4.88.79.95,1.79,1.51,3.05,1.45,1.26-.06,2.18-.69,2.88-1.73.93-1.39,1.03-3.46.95-5.08-.08-1.57-.37-3.59-1.41-4.84-.8-.97-1.81-1.45-3.07-1.39-1.27.06-2.23.65-2.93,1.7-.93,1.37-1.02,3.42-.94,5.02h0Z"/>
      <path class="cls-3" d="m32.03,324.1c.75-12.15,1.23-24.21,1.86-36.36.09-1.76,1.07-2.74,2.36-3.07,5.13-1.3,11.95-2.72,17.83-4.22-15.28-3.12-30.4-6.39-43.43-11.48l8.33,24.86-10.35,21.71,23.4,8.55Z"/>
      <path class="cls-3" d="m48.91,286.43c4.49,1.12,9.09,1.98,13.91,2.51l.04-5.88c-4.62.82-9.3,2.62-13.95,3.38h0Z"/>
      <path class="cls-3" d="m236.14,283.05l.04,5.88c4.82-.53,9.43-1.38,13.91-2.51-4.65-.76-9.33-2.56-13.95-3.38h0Z"/>
      <path class="cls-3" d="m262.75,284.68c1.29.33,2.27,1.3,2.36,3.07.63,12.16,1.11,24.21,1.86,36.36l23.4-8.55-10.35-21.71,8.32-24.86c-13.02,5.08-28.14,8.36-43.43,11.48,5.89,1.5,12.7,2.91,17.83,4.22h0Z"/>
      <path class="cls-3" d="m175.9,326.06c-.08-1.57-.37-3.59-1.41-4.84-.8-.97-1.81-1.45-3.07-1.39-1.27.06-2.23.65-2.93,1.7-.93,1.37-1.02,3.42-.94,5.02.08,1.62.4,3.59,1.47,4.88.79.95,1.79,1.51,3.05,1.45,1.26-.06,2.18-.69,2.88-1.73.93-1.39,1.03-3.46.95-5.08h0Z"/>
    </g>
  </g>
</svg>