<?xml version="1.0" encoding="UTF-8"?>
<svg id="Layer_2" data-name="Layer 2" xmlns="http://www.w3.org/2000/svg" xmlns:xlink="http://www.w3.org/1999/xlink" viewBox="0 0 33.56 19.57">
  <defs>
    <style>
      .cls-1 {
        clip-path: url(#clippath);
      }

      .cls-2 {
        fill: none;
      }

      .cls-2, .cls-3, .cls-4, .cls-5, .cls-6, .cls-7, .cls-8, .cls-9, .cls-10, .cls-11, .cls-12 {
        stroke-width: 0px;
      }

      .cls-13 {
        clip-path: url(#clippath-1);
      }

      .cls-14 {
        clip-path: url(#clippath-4);
      }

      .cls-15 {
        clip-path: url(#clippath-3);
      }

      .cls-16 {
        clip-path: url(#clippath-2);
      }

      .cls-17 {
        clip-path: url(#clippath-7);
      }

      .cls-18 {
        clip-path: url(#clippath-8);
      }

      .cls-19 {
        clip-path: url(#clippath-6);
      }

      .cls-20 {
        clip-path: url(#clippath-5);
      }

      .cls-21 {
        clip-path: url(#clippath-9);
      }

      .cls-22 {
        clip-path: url(#clippath-60);
      }

      .cls-23 {
        clip-path: url(#clippath-69);
      }

      .cls-24 {
        clip-path: url(#clippath-20);
      }

      .cls-25 {
        clip-path: url(#clippath-21);
      }

      .cls-26 {
        clip-path: url(#clippath-24);
      }

      .cls-27 {
        clip-path: url(#clippath-23);
      }

      .cls-28 {
        clip-path: url(#clippath-22);
      }

      .cls-29 {
        clip-path: url(#clippath-25);
      }

      .cls-30 {
        clip-path: url(#clippath-44);
      }

      .cls-31 {
        clip-path: url(#clippath-45);
      }

      .cls-32 {
        clip-path: url(#clippath-40);
      }

      .cls-33 {
        clip-path: url(#clippath-42);
      }

      .cls-34 {
        clip-path: url(#clippath-41);
      }

      .cls-35 {
        clip-path: url(#clippath-47);
      }

      .cls-36 {
        clip-path: url(#clippath-43);
      }

      .cls-37 {
        clip-path: url(#clippath-46);
      }

      .cls-38 {
        clip-path: url(#clippath-48);
      }

      .cls-39 {
        clip-path: url(#clippath-49);
      }

      .cls-40 {
        clip-path: url(#clippath-27);
      }

      .cls-41 {
        clip-path: url(#clippath-28);
      }

      .cls-42 {
        clip-path: url(#clippath-26);
      }

      .cls-43 {
        clip-path: url(#clippath-29);
      }

      .cls-44 {
        clip-path: url(#clippath-34);
      }

      .cls-45 {
        clip-path: url(#clippath-35);
      }

      .cls-46 {
        clip-path: url(#clippath-36);
      }

      .cls-47 {
        clip-path: url(#clippath-37);
      }

      .cls-48 {
        clip-path: url(#clippath-39);
      }

      .cls-49 {
        clip-path: url(#clippath-33);
      }

      .cls-50 {
        clip-path: url(#clippath-32);
      }

      .cls-51 {
        clip-path: url(#clippath-30);
      }

      .cls-52 {
        clip-path: url(#clippath-38);
      }

      .cls-53 {
        clip-path: url(#clippath-31);
      }

      .cls-54 {
        clip-path: url(#clippath-53);
      }

      .cls-55 {
        clip-path: url(#clippath-54);
      }

      .cls-56 {
        clip-path: url(#clippath-50);
      }

      .cls-57 {
        clip-path: url(#clippath-51);
      }

      .cls-58 {
        clip-path: url(#clippath-52);
      }

      .cls-59 {
        clip-path: url(#clippath-55);
      }

      .cls-60 {
        clip-path: url(#clippath-56);
      }

      .cls-61 {
        clip-path: url(#clippath-57);
      }

      .cls-62 {
        clip-path: url(#clippath-58);
      }

      .cls-63 {
        clip-path: url(#clippath-61);
      }

      .cls-64 {
        clip-path: url(#clippath-64);
      }

      .cls-65 {
        clip-path: url(#clippath-62);
      }

      .cls-66 {
        clip-path: url(#clippath-68);
      }

      .cls-67 {
        clip-path: url(#clippath-67);
      }

      .cls-68 {
        clip-path: url(#clippath-73);
      }

      .cls-69 {
        clip-path: url(#clippath-59);
      }

      .cls-70 {
        clip-path: url(#clippath-65);
      }

      .cls-71 {
        clip-path: url(#clippath-63);
      }

      .cls-72 {
        clip-path: url(#clippath-66);
      }

      .cls-73 {
        clip-path: url(#clippath-70);
      }

      .cls-74 {
        clip-path: url(#clippath-72);
      }

      .cls-75 {
        clip-path: url(#clippath-71);
      }

      .cls-76 {
        clip-path: url(#clippath-14);
      }

      .cls-77 {
        clip-path: url(#clippath-13);
      }

      .cls-78 {
        clip-path: url(#clippath-12);
      }

      .cls-79 {
        clip-path: url(#clippath-10);
      }

      .cls-80 {
        clip-path: url(#clippath-15);
      }

      .cls-81 {
        clip-path: url(#clippath-17);
      }

      .cls-82 {
        clip-path: url(#clippath-16);
      }

      .cls-83 {
        clip-path: url(#clippath-19);
      }

      .cls-84 {
        clip-path: url(#clippath-11);
      }

      .cls-85 {
        clip-path: url(#clippath-18);
      }

      .cls-4 {
        fill: #612c0d;
      }

      .cls-5 {
        fill: #549b14;
      }

      .cls-6 {
        fill: #2b6a0c;
      }

      .cls-7 {
        fill: #3970ca;
      }

      .cls-8 {
        fill: #3b9312;
      }

      .cls-9 {
        fill: #cacaca;
      }

      .cls-10 {
        fill: #d00428;
      }

      .cls-11 {
        fill: #fff;
      }

      .cls-12 {
        fill: #f5d028;
      }
    </style>
    <clipPath id="clippath">
      <rect class="cls-2" width="33.56" height="19.57"/>
    </clipPath>
    <clipPath id="clippath-1">
      <rect class="cls-2" width="33.56" height="19.57"/>
    </clipPath>
    <clipPath id="clippath-2">
      <rect class="cls-2" width="33.56" height="19.57"/>
    </clipPath>
    <clipPath id="clippath-3">
      <rect class="cls-2" width="33.56" height="19.57"/>
    </clipPath>
    <clipPath id="clippath-4">
      <rect class="cls-2" width="33.56" height="19.57"/>
    </clipPath>
    <clipPath id="clippath-5">
      <rect class="cls-2" width="33.56" height="19.57"/>
    </clipPath>
    <clipPath id="clippath-6">
      <rect class="cls-2" width="33.56" height="19.57"/>
    </clipPath>
    <clipPath id="clippath-7">
      <rect class="cls-2" width="33.56" height="19.57"/>
    </clipPath>
    <clipPath id="clippath-8">
      <rect class="cls-2" width="33.56" height="19.57"/>
    </clipPath>
    <clipPath id="clippath-9">
      <rect class="cls-2" width="33.56" height="19.57"/>
    </clipPath>
    <clipPath id="clippath-10">
      <rect class="cls-2" width="33.56" height="19.57"/>
    </clipPath>
    <clipPath id="clippath-11">
      <rect class="cls-2" width="33.56" height="19.57"/>
    </clipPath>
    <clipPath id="clippath-12">
      <rect class="cls-2" width="33.56" height="19.57"/>
    </clipPath>
    <clipPath id="clippath-13">
      <rect class="cls-2" width="33.56" height="19.57"/>
    </clipPath>
    <clipPath id="clippath-14">
      <rect class="cls-2" width="33.56" height="19.57"/>
    </clipPath>
    <clipPath id="clippath-15">
      <rect class="cls-2" width="33.56" height="19.57"/>
    </clipPath>
    <clipPath id="clippath-16">
      <rect class="cls-2" width="33.56" height="19.57"/>
    </clipPath>
    <clipPath id="clippath-17">
      <rect class="cls-2" width="33.56" height="19.57"/>
    </clipPath>
    <clipPath id="clippath-18">
      <rect class="cls-2" width="33.56" height="19.57"/>
    </clipPath>
    <clipPath id="clippath-19">
      <rect class="cls-2" width="33.56" height="19.57"/>
    </clipPath>
    <clipPath id="clippath-20">
      <rect class="cls-2" width="33.56" height="19.57"/>
    </clipPath>
    <clipPath id="clippath-21">
      <rect class="cls-2" width="33.56" height="19.57"/>
    </clipPath>
    <clipPath id="clippath-22">
      <rect class="cls-2" width="33.56" height="19.57"/>
    </clipPath>
    <clipPath id="clippath-23">
      <rect class="cls-2" width="33.56" height="19.57"/>
    </clipPath>
    <clipPath id="clippath-24">
      <rect class="cls-2" width="33.56" height="19.57"/>
    </clipPath>
    <clipPath id="clippath-25">
      <rect class="cls-2" width="33.56" height="19.57"/>
    </clipPath>
    <clipPath id="clippath-26">
      <rect class="cls-2" width="33.56" height="19.57"/>
    </clipPath>
    <clipPath id="clippath-27">
      <rect class="cls-2" width="33.56" height="19.57"/>
    </clipPath>
    <clipPath id="clippath-28">
      <rect class="cls-2" width="33.56" height="19.57"/>
    </clipPath>
    <clipPath id="clippath-29">
      <rect class="cls-2" width="33.56" height="19.57"/>
    </clipPath>
    <clipPath id="clippath-30">
      <rect class="cls-2" width="33.56" height="19.57"/>
    </clipPath>
    <clipPath id="clippath-31">
      <rect class="cls-2" width="33.56" height="19.57"/>
    </clipPath>
    <clipPath id="clippath-32">
      <rect class="cls-2" width="33.56" height="19.57"/>
    </clipPath>
    <clipPath id="clippath-33">
      <rect class="cls-2" width="33.56" height="19.57"/>
    </clipPath>
    <clipPath id="clippath-34">
      <rect class="cls-2" width="33.56" height="19.57"/>
    </clipPath>
    <clipPath id="clippath-35">
      <rect class="cls-2" width="33.56" height="19.57"/>
    </clipPath>
    <clipPath id="clippath-36">
      <rect class="cls-2" width="33.56" height="19.57"/>
    </clipPath>
    <clipPath id="clippath-37">
      <rect class="cls-2" width="33.56" height="19.57"/>
    </clipPath>
    <clipPath id="clippath-38">
      <rect class="cls-2" width="33.56" height="19.57"/>
    </clipPath>
    <clipPath id="clippath-39">
      <rect class="cls-2" width="33.56" height="19.57"/>
    </clipPath>
    <clipPath id="clippath-40">
      <rect class="cls-2" width="33.56" height="19.57"/>
    </clipPath>
    <clipPath id="clippath-41">
      <rect class="cls-2" width="33.56" height="19.57"/>
    </clipPath>
    <clipPath id="clippath-42">
      <rect class="cls-2" width="33.56" height="19.57"/>
    </clipPath>
    <clipPath id="clippath-43">
      <rect class="cls-2" width="33.56" height="19.57"/>
    </clipPath>
    <clipPath id="clippath-44">
      <rect class="cls-2" width="33.56" height="19.57"/>
    </clipPath>
    <clipPath id="clippath-45">
      <rect class="cls-2" width="33.56" height="19.57"/>
    </clipPath>
    <clipPath id="clippath-46">
      <rect class="cls-2" width="33.56" height="19.57"/>
    </clipPath>
    <clipPath id="clippath-47">
      <rect class="cls-2" width="33.56" height="19.57"/>
    </clipPath>
    <clipPath id="clippath-48">
      <rect class="cls-2" width="33.56" height="19.57"/>
    </clipPath>
    <clipPath id="clippath-49">
      <rect class="cls-2" width="33.56" height="19.57"/>
    </clipPath>
    <clipPath id="clippath-50">
      <rect class="cls-2" width="33.56" height="19.57"/>
    </clipPath>
    <clipPath id="clippath-51">
      <rect class="cls-2" width="33.56" height="19.57"/>
    </clipPath>
    <clipPath id="clippath-52">
      <rect class="cls-2" width="33.56" height="19.57"/>
    </clipPath>
    <clipPath id="clippath-53">
      <rect class="cls-2" width="33.56" height="19.57"/>
    </clipPath>
    <clipPath id="clippath-54">
      <rect class="cls-2" width="33.56" height="19.57"/>
    </clipPath>
    <clipPath id="clippath-55">
      <rect class="cls-2" width="33.56" height="19.57"/>
    </clipPath>
    <clipPath id="clippath-56">
      <rect class="cls-2" width="33.56" height="19.57"/>
    </clipPath>
    <clipPath id="clippath-57">
      <rect class="cls-2" width="33.56" height="19.57"/>
    </clipPath>
    <clipPath id="clippath-58">
      <rect class="cls-2" width="33.56" height="19.57"/>
    </clipPath>
    <clipPath id="clippath-59">
      <rect class="cls-2" width="33.56" height="19.57"/>
    </clipPath>
    <clipPath id="clippath-60">
      <rect class="cls-2" width="33.56" height="19.57"/>
    </clipPath>
    <clipPath id="clippath-61">
      <rect class="cls-2" width="33.56" height="19.57"/>
    </clipPath>
    <clipPath id="clippath-62">
      <rect class="cls-2" width="33.56" height="19.57"/>
    </clipPath>
    <clipPath id="clippath-63">
      <rect class="cls-2" width="33.56" height="19.57"/>
    </clipPath>
    <clipPath id="clippath-64">
      <rect class="cls-2" width="33.56" height="19.57"/>
    </clipPath>
    <clipPath id="clippath-65">
      <rect class="cls-2" width="33.56" height="19.57"/>
    </clipPath>
    <clipPath id="clippath-66">
      <rect class="cls-2" width="33.56" height="19.57"/>
    </clipPath>
    <clipPath id="clippath-67">
      <rect class="cls-2" width="33.56" height="19.57"/>
    </clipPath>
    <clipPath id="clippath-68">
      <rect class="cls-2" width="33.56" height="19.57"/>
    </clipPath>
    <clipPath id="clippath-69">
      <rect class="cls-2" width="33.56" height="19.57"/>
    </clipPath>
    <clipPath id="clippath-70">
      <rect class="cls-2" width="33.56" height="19.57"/>
    </clipPath>
    <clipPath id="clippath-71">
      <rect class="cls-2" width="33.56" height="19.57"/>
    </clipPath>
    <clipPath id="clippath-72">
      <rect class="cls-2" width="33.56" height="19.57"/>
    </clipPath>
    <clipPath id="clippath-73">
      <rect class="cls-2" width="33.56" height="19.57"/>
    </clipPath>
  </defs>
  <g id="Layer_1-2" data-name="Layer 1">
    <g id="EQUATORIAL_GUINEA" data-name="EQUATORIAL GUINEA">
      <g>
        <g class="cls-1">
          <rect class="cls-5" width="33.56" height="6.57"/>
        </g>
        <g class="cls-13">
          <rect class="cls-11" y="6.57" width="33.56" height="6.44"/>
        </g>
        <g class="cls-16">
          <rect class="cls-10" y="13.01" width="33.56" height="6.57"/>
        </g>
        <g class="cls-15">
          <g>
            <g class="cls-14">
              <path class="cls-9" d="m13.24,7.89v3.14c0,.25.16.5.48.5h.65c.16,0,.32.25.32.25,0,0,.16-.25.32-.25h.65c.32,0,.49-.25.49-.5v-3.14h-2.91Z"/>
            </g>
            <g class="cls-20">
              <path class="cls-3" d="m14.69,11.81v-.02s-.17-.25-.32-.25h-.65c-.35,0-.5-.27-.5-.52v-3.14l2.93-.02.02,3.16c0,.25-.16.52-.5.52h-.65c-.16,0-.31.24-.31.25v.02h-.01Zm1.44-3.93l-2.89.02.02,3.13c0,.23.15.48.47.48h.65c.14,0,.28.18.32.23.04-.06.18-.23.32-.23h.65c.32,0,.47-.25.47-.48v-3.14h0Z"/>
            </g>
            <g class="cls-19">
              <path class="cls-9" d="m12.57,11.28c-.17,0-.33-.13-.33-.25v-.63c.14.11.81.5.65.63-.17.12-.33,0-.33,0,0,0,0,.25,0,.25h0Z"/>
            </g>
            <g class="cls-17">
              <path class="cls-3" d="m12.58,11.3h-.01c-.18,0-.35-.13-.35-.27v-.63c.05.01.1.04.16.09.27.18.54.37.54.49,0,.02-.01.05-.03.07-.11.09-.28.04-.33,0,.01.03.01.11.01.23v.02h0Zm-.35-.88l.03.62c0,.11.15.22.29.23v-.23s.1.04.18.04c.05,0,.1-.02.15-.05.02-.01.02-.02.02-.04,0-.12-.33-.34-.53-.47-.06-.04-.11-.07-.14-.09h0Z"/>
            </g>
            <g class="cls-18">
              <path class="cls-9" d="m12.56,11.03c.16-.13.16.12.33,0l-.17.75c-.15-.02-.16,0-.25-.12,0-.13,0-.53.09-.62h0Z"/>
            </g>
            <g class="cls-21">
              <path class="cls-9" d="m16.8,11.28c.17,0,.33-.13.33-.25v-.63c-.15.11-.81.5-.65.63.16.12.33,0,.32,0v.25h0Z"/>
            </g>
            <g class="cls-79">
              <path class="cls-3" d="m16.8,11.3l-.02-.02c0-.12,0-.2,0-.23-.03.04-.21.08-.32,0-.02-.02-.03-.04-.03-.07,0-.12.27-.31.54-.49.06-.05.11-.07.14-.1l.03.64c0,.13-.17.27-.34.27h0Zm-.01-.28s.03.19.03.25c.15-.01.29-.12.29-.23v-.63s-.05.07-.11.11c-.2.13-.53.36-.53.47,0,.01,0,.02.02.04.11.09.29.02.3,0h0Z"/>
            </g>
            <g class="cls-84">
              <path class="cls-9" d="m16.78,11.03c-.16-.13-.16.12-.33,0l.17.75c.16-.02.16,0,.25-.12,0-.13,0-.53-.09-.62h0Z"/>
            </g>
            <g class="cls-78">
              <path class="cls-9" d="m15.32,12.16c0-.13-.32-.38-.32-.5s.32.12.98.12.97-.63.81-.75c.16.25.16.5.16.62,0,.25-.32.5-.97.5h-.65Z"/>
            </g>
            <g class="cls-77">
              <path class="cls-3" d="m15.97,12.18h-.65c-.01-.07-.1-.17-.17-.25-.08-.1-.17-.2-.17-.27,0-.03.04-.06.22-.01.16.05.42.12.78.12.39,0,.62-.23.7-.33.09-.12.15-.25.13-.34-.01-.02-.02-.04-.04-.05.05,0,.06.02.07.05h-.03c.16.23.16.45.16.57,0,.25-.31.52-.99.52h0Zm-.94-.54c-.03.07.06.16.14.26.09.1.17.19.17.26l.63-.02c.66,0,.96-.25.96-.49,0-.11,0-.32-.11-.55.04.09-.02.22-.11.34-.08.1-.32.35-.73.35-.36,0-.63-.08-.78-.12-.07-.02-.12-.04-.15-.04h0Z"/>
            </g>
            <g class="cls-76">
              <path class="cls-9" d="m14.02,12.16c0-.13.32-.38.32-.5s-.32.12-.97.12-.97-.63-.81-.75c-.16.25-.16.5-.16.62,0,.25.32.5.97.5h.65Z"/>
            </g>
            <g class="cls-80">
              <path class="cls-3" d="m14.04,12.18h-.66c-.68,0-.99-.27-.99-.52,0-.12,0-.34.13-.57,0-.03.02-.05.04-.07.01.04,0,.07-.01.08h-.03c.01.09.07.21.16.34.08.1.31.33.7.33.36,0,.62-.07.78-.12.17-.05.22-.02.22.01,0,.07-.08.16-.16.26-.08.09-.16.18-.16.24v.02h0Zm-1.53-1.09c-.09.24-.09.46-.09.57,0,.24.3.49.96.49h.64c.01-.07.09-.16.16-.25.08-.09.16-.18.16-.24-.05-.02-.1,0-.18.02-.16.05-.42.12-.78.12-.41,0-.65-.25-.73-.35-.1-.13-.16-.27-.14-.37h0Z"/>
            </g>
            <g class="cls-82">
              <path class="cls-9" d="m14.02,12.03c0-.12.32-.25.32-.38v.63h-.32v-.25Z"/>
            </g>
            <g class="cls-81">
              <path class="cls-9" d="m15.32,12.03c0-.12-.32-.25-.32-.38v.63h.32v-.25Z"/>
            </g>
            <g class="cls-85">
              <path class="cls-9" d="m14.02,12.03c0,.13,1.3.13,1.3,0v.5c0,.12-1.3.12-1.3,0v-.5Z"/>
            </g>
            <g class="cls-83">
              <path class="cls-3" d="m14.67,12.65c-.16,0-.66-.01-.66-.11v-.5s.26.08.66.08.64-.05.64-.08c0,0,0,.02,0,.02l.03.48c0,.1-.51.11-.67.11h0Zm-.66-.61l.03.5s.23.08.64.08.64-.04.64-.08v-.48c-.03.09-.49.1-.64.1s-.65-.01-.66-.11h0Z"/>
            </g>
            <g class="cls-24">
              <path class="cls-3" d="m14.67,12.15c-.17,0-.33-.01-.45-.03-.19-.02-.22-.06-.22-.09,0-.07.08-.13.17-.2.08-.06.16-.12.16-.18-.02-.03-.09,0-.18.02-.16.04-.42.12-.78.12-.48,0-.78-.34-.85-.55-.03-.11-.03-.19.03-.23.09-.07.15-.03.18,0s.07.06.14,0l.02.03c-.09.07-.15.03-.18,0s-.07-.05-.14,0c-.04.03-.05.1-.02.2.07.21.35.53.82.53.36,0,.62-.07.77-.12.11-.04.17-.05.2-.03h0s.01.04.01.04c0,.07-.08.14-.17.2-.08.06-.16.12-.16.18,0,.03.23.08.64.08s.64-.05.64-.08c0-.05-.08-.11-.16-.18-.09-.06-.17-.12-.17-.2l.02-.04s.09,0,.2.03c.16.05.42.12.78.12.46,0,.74-.32.81-.53.03-.09.03-.16-.01-.2-.07-.05-.1-.03-.14,0s-.09.07-.18,0c.09.03.12,0,.16-.03.04-.03.09-.07.18,0,.05.04.06.12.03.23-.07.21-.37.55-.85.55-.36,0-.63-.08-.78-.12-.08-.03-.15-.05-.17-.03,0,.07.08.13.15.19.09.07.17.13.17.2,0,.1-.51.12-.66.12h0Z"/>
            </g>
            <g class="cls-25">
              <polygon class="cls-3" points="16.67 11.95 16.51 11.67 16.54 11.66 16.7 11.94 16.67 11.95"/>
            </g>
            <g class="cls-28">
              <path class="cls-3" d="m16.57,11.89h.03s.01.06,0,.08c0,.02-.02.04-.05.04s-.05,0-.07,0c-.02-.01-.04-.02-.06-.05-.02-.02-.04-.04-.05-.07-.02-.03-.02-.05-.03-.08,0-.02,0-.05.02-.07.01-.01.03-.03.05-.03.02,0,.04,0,.07,0,.02.01.04.03.06.05l-.03.02s-.03-.04-.05-.04c-.02,0-.03,0-.04,0-.02,0-.03.01-.04.03,0,.02,0,.03,0,.05,0,.02.01.04.02.06.01.02.03.05.04.06.01.02.03.03.05.03s.03,0,.05,0c.02,0,.03-.02.03-.03,0-.01,0-.04,0-.06h0Z"/>
            </g>
            <g class="cls-27">
              <polygon class="cls-3" points="16.36 12.08 16.26 11.78 16.29 11.77 16.4 12.07 16.36 12.08"/>
            </g>
            <g class="cls-26">
              <polygon class="cls-3" points="16.16 12.11 16.13 11.84 16.05 11.84 16.05 11.81 16.24 11.8 16.24 11.83 16.16 11.84 16.19 12.11 16.16 12.11"/>
            </g>
            <g class="cls-29">
              <path class="cls-3" d="m15.85,12.03h.03s0,.02.01.04c0,.01.01.02.03.03.01,0,.02.01.04.01.01,0,.02,0,.03-.01.01,0,.02-.01.02-.02,0,0,0-.02,0-.02,0-.01,0-.02,0-.03,0,0-.01-.02-.02-.02,0,0-.02,0-.04-.02-.02,0-.04-.02-.05-.02-.01,0-.02-.02-.03-.02,0-.02-.01-.03-.01-.04,0-.01,0-.03.01-.04,0-.01.01-.02.03-.03.01,0,.03-.01.04-.01.02,0,.03,0,.05.01.01,0,.02.02.03.03,0,.02.01.04.01.05h-.03s0-.03-.02-.04c0-.01-.02-.01-.04-.01-.02,0-.04,0-.04.01-.01,0-.01.02-.01.04,0,0,0,.02.01.03,0,0,.02.02.05.02.03,0,.05,0,.05.02.01,0,.03.02.03.04,0,0,.01.02.01.04,0,.02,0,.03-.01.05,0,.01-.02.02-.03.04-.02,0-.03.01-.05.01-.02,0-.04,0-.06-.01-.02-.01-.02-.02-.03-.04,0-.01-.01-.03-.01-.06h0Z"/>
            </g>
            <g class="cls-42">
              <path class="cls-3" d="m15.76,11.81h.03s-.01.18-.01.18c0,.03,0,.05-.01.07,0,.02-.02.03-.03.04-.02.01-.04.02-.06.02-.02,0-.04,0-.05-.02-.01,0-.02-.02-.03-.04,0-.02,0-.05,0-.08v-.18h.04v.18s-.01.05,0,.06c0,.01.01.02.02.03,0,0,.02.01.03.02.02,0,.04,0,.05-.02.01-.01.02-.04.02-.07v-.18Z"/>
            </g>
            <g class="cls-40">
              <path class="cls-3" d="m15.36,12.02h.03s0,.04.01.04c0,.01.02.02.03.02.01,0,.02,0,.02,0,0,0,0-.01.01-.02,0,0,0-.02,0-.04v-.21h.03v.21s0,.05,0,.06c0,.02-.01.03-.02.03-.01,0-.02.01-.04.01-.02,0-.04,0-.05-.02-.01-.02-.02-.05-.02-.07h0Z"/>
            </g>
            <g class="cls-41">
              <path class="cls-3" d="m14.8,12.54v-.04l.13-.23s.02-.03.03-.04h-.14v-.04h.18v.04l-.14.24-.02.03h.16v.04h-.19Z"/>
            </g>
            <g class="cls-43">
              <polygon class="cls-3" points="13.02 12.11 13.1 11.77 13.12 11.77 13.05 12.12 13.02 12.11"/>
            </g>
            <g class="cls-51">
              <polygon class="cls-3" points="12.67 11.97 12.87 11.67 12.9 11.68 12.86 11.97 13.01 11.73 13.04 11.74 12.84 12.05 12.81 12.04 12.85 11.75 12.7 11.99 12.67 11.97"/>
            </g>
            <g class="cls-53">
              <path class="cls-3" d="m12.84,11.63l.02.02-.17.14s-.06.04-.08.05-.04.02-.07.02c-.02,0-.04,0-.05-.02-.02-.02-.02-.03-.03-.05,0-.02,0-.04.02-.05.01-.02.04-.04.07-.07l.17-.15.02.02-.17.14s-.04.04-.05.05c0,.01-.01.02-.01.04s0,.02.02.03c.02.02.03.02.06.02.02,0,.05-.02.09-.05l.17-.14Z"/>
            </g>
            <g class="cls-50">
              <path class="cls-3" d="m13.19,12.14v-.35h.1s.03,0,.04,0c.02,0,.03.01.03.02.01.02.02.04.03.06,0,.02.01.05,0,.08,0,.03,0,.05-.01.07,0,.02-.01.04-.02.05,0,.02-.02.02-.02.03,0,.01-.02.02-.03.02-.01,0-.03,0-.04,0h-.09Zm.03-.04h.05s.03,0,.04,0c.01,0,.02-.02.02-.02.01-.02.02-.03.02-.05,0-.02,0-.04,0-.07,0-.03,0-.06,0-.08,0-.02-.02-.03-.03-.04,0,0-.02,0-.04,0h-.05s0,.27,0,.27Z"/>
            </g>
            <g class="cls-49">
              <path class="cls-3" d="m13.42,12.14l.09-.36h.04l.1.36h-.04l-.03-.11h-.1l-.03.11h-.04Zm.07-.15h.09l-.03-.1s-.01-.05-.02-.07c0,.02,0,.04-.01.07l-.03.1Z"/>
            </g>
            <g class="cls-44">
              <path class="cls-3" d="m13.67,12.14v-.36h.08s.03,0,.04,0c.01,0,.02,0,.03.02.02.02.03.04.03.06,0,.02.01.05.01.08s0,.05-.01.07c0,.02,0,.04-.02.05,0,.02-.02.02-.02.03,0,0-.02.02-.03.02-.01,0-.02,0-.04,0h-.09Zm.03-.04h.05s.03,0,.04,0c0,0,.02-.01.02-.02,0-.01.01-.02.02-.04,0-.02,0-.04,0-.07,0-.04,0-.06-.01-.08,0-.02-.02-.04-.03-.04-.01,0-.02,0-.04,0h-.05v.27h0Z"/>
            </g>
            <g class="cls-45">
              <path class="cls-3" d="m14.36,12.54v-.35h.09s.03,0,.04,0c.01,0,.02,0,.03.01,0,.01.02.02.02.04,0,.01,0,.03,0,.05,0,.03,0,.05-.02.07-.01.02-.04.03-.07.03h-.06v.14h-.03Zm.03-.18h.06s.04,0,.05-.02c0-.01.01-.03.01-.05,0-.01,0-.03-.01-.04,0,0-.01-.02-.02-.02h-.09v.13h0Z"/>
            </g>
            <g class="cls-46">
              <path class="cls-3" d="m14.57,12.54l.09-.35h.03l.1.35h-.04l-.03-.11h-.1l-.03.11h-.03Zm.07-.14h.08l-.03-.09s-.01-.06-.02-.08c0,.03,0,.05-.01.07l-.02.1Z"/>
            </g>
            <g class="cls-47">
              <path class="cls-3" d="m16.75,11.92l-.17-.3.03-.02.31.21-.03.02-.09-.07-.08.05.05.09-.02.02Zm-.04-.14l.06-.04-.08-.06s-.04-.04-.06-.05c.01.02.03.04.04.06l.05.08Z"/>
            </g>
            <g class="cls-52">
              <path class="cls-4" d="m14.65,9.56c0,.19.11.75-.21,1.62-.03.06.04.09.09.11.05,0,.08-.06.08-.07,0-.02.01.11.07.09.05-.01.11-.09.11-.09,0,0,.03.12.09.12s.06-.15.06-.15c0,.01.05.12.1.12s.13-.05.09-.13c-.34-.57-.32-1.52-.32-1.63s.16-.3.31-.3l-.06-.09s-.08.02-.17.09c-.08.07-.13.14-.13.14v-.46h-.13v.41s-.03-.05-.1-.11c-.07-.05-.18-.05-.25-.04v.09c.07.02.18-.02.24.06.06.07.12.12.12.21h0Z"/>
            </g>
            <g class="cls-48">
              <path class="cls-3" d="m14.87,11.36c-.06,0-.09-.07-.1-.11,0,.03-.05.07-.09.09-.05,0-.07-.04-.08-.07,0,.02-.03.04-.06.04h0c-.05,0-.1-.02-.12-.06-.01-.02-.01-.04,0-.07.27-.73.24-1.25.22-1.49,0-.05,0-.09,0-.12,0-.08-.05-.13-.11-.19-.05-.06-.1-.06-.16-.06-.03,0-.06,0-.09,0v-.11c.12-.07.22-.02.27.03.07.06.11.11.11.11l-.04-.4.15-.02.02.43s.05-.07.1-.11c.07-.06.12-.08.16-.09l.09.1c-.16.03-.31.22-.31.31,0,.69.11,1.27.32,1.62.03.04.02.07,0,.1-.02.04-.07.06-.1.06-.04,0-.08-.05-.1-.09,0,.05-.02.1-.07.1h0Zm-.11-.14s.07.11.11.11c.04,0,.05-.09.05-.13.04.02.08.11.12.11.03,0,.06,0,.08-.04.01-.02,0-.04,0-.07-.28-.48-.32-1.22-.32-1.62,0-.13.16-.33.33-.34l-.07-.07s-.07.04-.14.09c-.08.06-.12.13-.12.13h0s0-.02,0-.04l-.03-.43-.12.02.03.39s-.07-.04-.14-.1c-.07-.06-.18-.05-.24-.04v.07s.05,0,.07,0c.07,0,.13,0,.18.06.07.07.13.13.13.22,0,.03,0,.07,0,.12.02.25.06.77-.22,1.51.01.06.04.08.08.09.04,0,.06-.04.06-.05.05.07.07.08.08.08.04,0,.09-.07.1-.09h0Z"/>
            </g>
            <g class="cls-32">
              <path class="cls-8" d="m13.69,9.05h0s0,0,0-.02c0-.02.02-.03.03-.05.03,0,.06,0,.08,0,.02-.02.05.03.05,0,.03,0,.03-.03.04-.04.03,0,.04-.03.07-.01.02,0,0,0,.04,0,.02,0,.03.01.05,0,0-.02.01-.04.02-.06-.01-.02,0-.04,0-.07.02-.02.05.02.08.01.01-.02.03-.02.02-.04,0-.02,0-.04,0-.07.01-.02.03-.02.05-.03.01-.02,0-.04,0-.05.03,0,.03,0,.03-.03,0-.02.02-.03.04-.05s.03-.01.04-.03c.01-.02.01-.03.04-.04.02,0,.04,0,.05-.02.01-.02.03-.03.04-.05.02,0,.12.02.15.02.02-.02.04-.04.06-.05.03-.01.04-.02.08-.02.03,0,.04.02.08,0,.02-.02.03-.02.06-.02.03.02.04.02.05.04.02.03.01.04.05.04.04,0,.05,0,.07.02.04.02.03,0,.03.04.03,0,.03,0,.03.02.02,0,.04.02.05.02.01.01.02.02.06.02.03-.01.04-.01.04-.03.02,0,.02-.02.03-.04.02-.02.03-.02.06-.02.04,0,.03.02.03.04.02,0,.03,0,.03.02.01.01,0,.03,0,.04.02.01.03.02.03.04-.01.02,0,.04,0,.05.02,0,.03.02.07.03.01,0,.05.01.08.02.03,0,.04,0,.08.01.02.02.02.04.03.05.02.01.05.02.06.03.02.01.03.03.06.03.01.02.03.04.04.05,0,.02.01.04.02.06v.07s0,.04,0,.07c0,.02-.01.02-.01.04-.01.02-.02.03-.03.05-.01.03-.02.04-.03.06,0,.02,0,.04,0,.07-.02.01-.03.02-.06.04-.02.02-.03.02-.04.05-.01.02-.01.02-.04.02h-.09s-.04,0-.05,0c-.03-.01-.06-.01-.09,0-.02-.01-.03-.02-.06-.02-.03,0-.05,0-.08,0-.02-.02-.03-.02-.07-.02-.02,0-.05,0-.08,0-.03,0-.03-.01-.04-.03-.02-.01-.03-.02-.06-.02-.03,0-.07,0-.08,0-.02,0-.04,0-.06-.01-.01-.02-.03-.03-.04-.04-.03,0-.04,0-.06,0-.02-.01-.04-.04-.07-.05-.02-.01-.04-.02-.05-.05,0-.02,0-.02-.03-.03-.02.02-.03.02-.07.02-.03,0-.05,0-.07,0-.03-.01-.04-.02-.07-.02-.02,0-.05.02-.08.02-.03,0-.04.01-.05.04-.03.02-.04.02-.07.03-.02.02-.04.02-.05.04,0,.02-.01.04-.01.06,0,.03,0,.04-.01.05-.01.02-.04.02-.06.04-.03,0-.03,0-.06,0-.02,0-.05-.01-.08-.02-.03,0-.05-.01-.06-.03l.06.03s-.05-.01-.06-.03c-.04-.01-.04-.03-.09-.03-.04,0-.06,0-.06.03.02,0,0,.01,0,.02-.02.02-.04.02-.06.03-.01,0-.01,0-.03,0-.03-.01-.04-.02-.06-.03-.02-.01-.03-.03-.05-.05-.01-.01-.03-.02-.04-.04-.01-.01-.03-.01-.04-.02-.01-.02-.02-.05-.02-.07.01-.01.02-.04.04-.05.03-.01.04,0,.07,0,.03,0-.04-.04-.01-.04.03,0,.03-.02.04-.03h.08Z"/>
            </g>
            <g class="cls-34">
              <path class="cls-3" d="m14.13,9.4h-.05s-.05-.02-.07-.02l-.04-.02s-.02,0-.04-.02c-.04-.02-.05-.02-.08-.02-.04,0-.04,0-.05,0-.03.04-.05.05-.08.06l-.06-.02s-.02-.01-.04-.02c-.02-.02-.03-.02-.04-.04l-.11-.09s-.02-.05-.02-.07c.02-.04.03-.05.05-.06h.05s.04-.06.04-.06l.1-.02s.02-.05.03-.05h0s.16-.04.16-.04l.05-.03h.1s.02-.03.03-.04c0,0,0-.04,0-.05v-.02l.03-.02.06.02c0-.05,0-.07.01-.09,0-.02.02-.03.04-.03h0s.02-.06.02-.06l.03-.03s.03-.04.04-.05l.06-.02h-.01s.02-.04.05-.05h.06s-.01-.01-.01-.01c.01-.02.03-.03.04-.06.06,0,.09,0,.11,0,.02,0,.04,0,.05,0,.01-.02.03-.04.05-.05.03-.02.04-.02.09-.02l.06.02s.04-.02.06-.02h.05s.03.03.04.05l.03.05v-.02s.05,0,.07.02c.05.02.06.02.06.05.04,0,.05.02.08.03.02.02.02.02.05.02h0s.06-.07.06-.07c.02-.02.04-.02.08-.02.05.01.05.03.04.06l.04.04s.01.03.02.05v.05s.03.01.05.02c.02.01.05.02.07.02.04,0,.06,0,.08,0h0s.02.07.02.07h.03s.03,0,.04.02h0l.05.03s.04.04.05.05l.02.07-.02.18s-.03.04-.04.05c0,.02-.01.02-.02.04h0v.07s-.04.04-.07.05c-.02.01-.03.02-.03.04v.02s-.05.01-.05.01h0s-.07,0-.1,0c-.03,0-.05,0-.07-.02,0,0-.02,0-.04,0h-.05s-.02-.01-.05-.01c-.02,0-.04,0-.08,0-.03-.02-.03-.02-.07-.02,0,0-.03,0-.05,0-.07,0-.08-.02-.09-.04l-.05-.04v.02c-.06,0-.08,0-.09,0-.03,0-.05,0-.06-.02-.02-.02-.03-.03-.04-.04-.03,0-.05,0-.06-.01-.03-.03-.04-.03-.06-.04-.03-.02-.05-.03-.06-.06-.03,0-.04,0-.08,0-.03,0-.05,0-.07,0-.03-.01-.04-.02-.07-.02-.02.01-.04.02-.07.02h0s-.04.04-.04.04c-.03.02-.04.02-.08.04l-.05.02h.02s-.01.04-.01.06c0,.03,0,.04-.01.07-.01.02-.03.02-.04.03l-.05.02h0Zm-.11-.06s.05,0,.08.02l.03.02.02-.02.06-.02h-.01s.01-.03.01-.05c0-.03,0-.04,0-.05.02-.04.03-.05.04-.05.05-.02.06-.03.09-.05,0-.01.02-.02.04-.03.05,0,.07-.02.09-.03.04,0,.05,0,.08.02.02,0,.04,0,.07,0,.04,0,.04,0,.06-.02h.01s.03,0,.03,0c.01.04.03.05.05.07.02,0,.03.02.04.03l.05.03s.06.02.08.04c0,0,.03.01.05.01.01,0,.04,0,.05,0,.06,0,.07,0,.08,0l.06.05h0s.07-.01.08-.01c.04,0,.06,0,.08.02.02,0,.04,0,.07-.01.01.01.04,0,.06.02.03,0,.06,0,.1,0h.05s.05,0,.09,0c.03-.03.04-.04.06-.05.03-.02.05-.03.06-.05v-.06s.02-.04.02-.06c.02-.02.03-.03.04-.05l.03-.03v-.04s0-.09,0-.09v-.06s-.02,0-.02,0c0,0-.02-.02-.03-.03-.03-.01-.04-.02-.05-.03l-.1-.07s-.04-.03-.05-.03c-.06,0-.1-.02-.11-.03-.02,0-.03,0-.04,0-.03-.04-.04-.07-.03-.09,0,0-.02,0-.03-.02l.02-.04-.05-.05s-.05-.02-.07,0c0,.02-.01.04-.04.05.01.02,0,.02-.03.03-.05,0-.06,0-.07-.02-.02-.01-.04-.02-.05-.02h-.02l-.07-.06s-.02-.01-.05-.01c-.04,0-.05-.01-.06-.04l-.03-.03h0s-.07,0-.07,0c-.04,0-.05,0-.07,0-.05,0-.07,0-.09,0-.01,0-.03.03-.05.05-.03,0-.05,0-.07,0-.03,0-.05,0-.08,0-.03.02-.04.03-.05.05h0s-.08.04-.08.04c-.01.02-.03.03-.04.04-.03.02-.04.03-.05.05,0,.03-.01.04-.04.04h0s0,.05,0,.05l-.06.02h.02v.07l-.04.05h-.04s-.02.02-.01.03c0,.03,0,.05-.01.07h-.17s.01.02.01.02c-.01.02-.02.04-.06.04h0s-.08,0-.08,0c-.05.01-.06.03-.06.04h-.03s.01.02.01.02l-.08.02s-.01.02-.04.03l.03.02h-.05s-.05.03-.05.03c-.02.03,0,.06,0,.07l.03.03h.01s.03.04.03.04h.01s.03.03.05.04c.01,0,.02,0,.04,0l.04.02s.04-.02.05-.03c.01-.05.04-.05.08-.05.04,0,.05.01.07.03.04.02.05.02.08.03h0,0Z"/>
            </g>
            <g class="cls-33">
              <path class="cls-6" d="m14.43,8.69s-.04,0-.07-.01c-.01-.03-.02-.04-.04-.04h0s-.06-.01-.07-.02l.02-.03s.03.02.06.02c.04,0,.05.02.06.05,0,0,.01,0,.04,0,.03,0,.04.01.05.02h-.05s0,0,0,0h0Z"/>
            </g>
            <g class="cls-36">
              <path class="cls-6" d="m14.15,8.95s-.07,0-.08,0v-.03s.07,0,.1,0c.01,0,.02-.02.03-.02.06-.01.07,0,.09,0l.08.03h-.05s-.03,0-.04,0c-.02,0-.03,0-.05,0-.02.01-.03.02-.05.03h-.02Z"/>
            </g>
            <g class="cls-30">
              <path class="cls-6" d="m14.33,8.86l-.02-.03s.03-.02.05-.02c.02-.01.04-.02.06-.02h.05s.03.02.03.02h-.03s-.03,0-.03,0c-.03.01-.05.02-.07.02-.02,0-.04.02-.05.02h0Z"/>
            </g>
            <g class="cls-31">
              <path class="cls-6" d="m14.91,9h-.05s-.06-.03-.08-.04c-.01,0-.03-.02-.05-.03-.04-.03-.06-.04-.08-.07-.01-.03-.02-.05-.03-.09l.02-.03h0c.02.05.03.07.04.1.02.02.03.03.05.04.04.03.05.03.06.04.02.02.04.03.07.04h.04l.03.02h-.04Z"/>
            </g>
            <g class="cls-37">
              <path class="cls-6" d="m14.8,8.67s.03-.05.05-.07l.05-.04h-.01s.02-.05.06-.07c0-.01.02-.03.02-.04l.02-.04v.02s-.02.07-.03.09c-.03.01-.04.02-.05.05l-.04.06s-.03.04-.07.05h0Z"/>
            </g>
            <g class="cls-35">
              <path class="cls-6" d="m15.25,8.76s-.02,0-.02,0c0,0-.01-.01-.02-.02h0s0,0,0,0c0,0,0,0,0,0-.02-.04-.02-.06-.02-.08,0-.03.01-.06.02-.08l.05-.03v.02s-.03.07-.04.09c0,.02,0,.05,0,.07.02.02.02.03.05.04h0,0s-.03,0-.04,0h0Z"/>
            </g>
            <g class="cls-38">
              <path class="cls-6" d="m15.57,8.85h-.08l.06-.04s.04,0,.07,0c.01,0,.03-.02.04-.04l.06-.03h-.01s.03,0,.03,0l-.04.03s-.05.04-.06.05c-.03,0-.04.01-.06.01h0Z"/>
            </g>
            <g class="cls-39">
              <path class="cls-6" d="m15.73,9.23s-.03,0-.03,0c-.03-.02-.05-.03-.07-.05.04,0,.05,0,.07,0,.03.01.06.01.08,0h.04s0,.02,0,.02v-.02.02s-.07.02-.09.02h0Z"/>
            </g>
            <g class="cls-56">
              <path class="cls-6" d="m15.57,9.38h0s-.05-.04-.07-.05c-.05-.04-.05-.05-.06-.09,0-.04-.01-.06,0-.08l.03.05s.02.05.04.08c.03.02.05.03.06.04l.04.03h-.03Z"/>
            </g>
            <g class="cls-57">
              <path class="cls-6" d="m15.11,9.3v-.04s.06,0,.09,0c.01,0,.03-.01.05-.02.02-.03.03-.05.03-.07.03.03.03.05.02.06l-.03.04s-.03.01-.05.02c-.03,0-.09.01-.1.01h0Z"/>
            </g>
            <g class="cls-58">
              <path class="cls-2" d="m14.71,9.11s-.03-.05-.04-.08c0-.02,0-.05,0-.07l.04.15Z"/>
            </g>
            <g class="cls-54">
              <path class="cls-6" d="m13.86,9.31h-.03v-.03h.05s.05-.02.09-.02l.04-.02s.02-.02.03-.04l.04-.04v.05s-.03.03-.06.05l-.06.02s-.05,0-.08.02c-.01,0-.03,0-.04,0h0Z"/>
            </g>
            <g class="cls-55">
              <path class="cls-2" d="m14.26,9.21s-.07,0-.1,0c-.01-.01-.03-.02-.04-.04t0,0l.13.05Z"/>
            </g>
            <g class="cls-59">
              <path class="cls-6" d="m14.35,9.05v-.03s0,.01,0,.01h0s.04-.03.06-.03c0,0,.02-.01.04-.02h.05s-.04.04-.04.04c-.02,0-.03,0-.04.02-.02,0-.03,0-.06.02h0Z"/>
            </g>
            <g class="cls-60">
              <path class="cls-6" d="m13.59,9.28h-.03v-.03.02s.01-.02.01-.02c.05,0,.07-.02.09-.02.04-.02.07-.04.09-.05,0,.04-.03.05-.05.07-.05.02-.07.03-.11.03h0Z"/>
            </g>
            <g class="cls-61">
              <path class="cls-6" d="m15.5,9.05s-.04,0-.06-.02c-.03-.02-.03-.02-.07-.03-.02,0-.03,0-.04-.01-.05,0-.07-.02-.1-.02l-.04-.03.03-.02c.05.02.07.03.09.03.04.02.05.02.08.02.04.01.05.02.07.04.02,0,.03.01.06.01.01,0,.04-.02.06-.03,0,.04-.04.05-.05.06h-.02Z"/>
            </g>
            <g class="cls-62">
              <path class="cls-3" d="m14.63,11.21s-.03-.06-.04-.08c0-.06,0-.09,0-.12-.01-.02,0-.04,0-.07.02-.05.04-.09.05-.11,0-.03.01-.06.02-.09v-.08s.02-.05.02-.08c0-.03,0-.05,0-.08v-.05s.02-.05.02-.09c.01-.04.02-.08.02-.12v-.13h.03v.13s0,.09-.02.12c0,.04,0,.08-.02.11,0,.05,0,.08,0,.11-.01.03-.01.05-.02.08v.04c-.01.07-.02.1-.02.12-.02.04-.04.08-.06.1,0,.04,0,.05,0,.06.01.04.01.07.01.1,0,.05,0,.08,0,.11h0Z"/>
            </g>
            <g class="cls-69">
              <path class="cls-3" d="m14.8,11.19s-.04-.02-.04-.04c0-.02-.01-.03-.02-.04,0-.01-.01-.02-.02-.05,0-.06,0-.1.01-.12l.02-.12s.03-.06.03-.11c0-.04,0-.08,0-.12v-.19s-.01-.07-.02-.09l.03-.03h-.02s.02.02.02.02c0,.03.02.07.02.1v.19s0,.08,0,.12c0,.06-.01.08-.04.12l-.02.11s-.01.06-.01.1c0,.04.01.05.02.06,0,.01.01.03.02.05,0,.02,0,.03,0,.05h0Z"/>
            </g>
            <g class="cls-22">
              <path class="cls-3" d="m14.94,11.18l-.02-.02s-.01-.03-.02-.04l-.02-.04s-.02-.02-.03-.04c-.01-.01-.03-.03-.03-.04,0-.06,0-.09.02-.12.02-.02.03-.04.04-.08,0-.02,0-.03,0-.05,0-.02,0-.04,0-.07-.01-.02-.01-.07-.01-.11h.03c0,.07,0,.1,0,.11,0,.03,0,.05,0,.07,0,.02,0,.04,0,.06,0,.04-.01.07-.04.09-.01.02-.02.05-.02.09,0,0,.02.01.03.03.01.01.02.02.03.03l.03.03s.02.03.03.06v.03h-.01Z"/>
            </g>
            <g class="cls-63">
              <polygon class="cls-12" points="15.06 7.55 14.96 7.4 14.77 7.4 14.86 7.25 14.77 7.1 14.96 7.09 15.06 6.95 15.16 7.09 15.34 7.1 15.25 7.25 15.34 7.4 15.16 7.4 15.06 7.55"/>
            </g>
            <g class="cls-65">
              <path class="cls-3" d="m15.06,7.57l-.11-.16h-.17l.07-.18-.09-.13.2-.04.08-.14.13.15h.17s-.07.17-.07.17l.09.13-.2.03-.1.16h0Zm-.1-.19l.1.14.08-.12.2-.02-.1-.12.09-.17-.17.02-.11-.16-.07.15h-.2s.1.13.1.13l-.09.17.17-.02h0Z"/>
            </g>
            <g class="cls-71">
              <polygon class="cls-12" points="14.3 7.55 14.2 7.4 14.01 7.4 14.1 7.25 14.01 7.1 14.2 7.09 14.3 6.95 14.4 7.09 14.58 7.1 14.49 7.25 14.58 7.4 14.4 7.4 14.3 7.55"/>
            </g>
            <g class="cls-64">
              <path class="cls-3" d="m14.3,7.57l-.11-.16h-.17l.07-.18-.09-.13.2-.04.09-.14.12.15h.17s-.07.17-.07.17l.09.13-.2.03-.1.16h0Zm-.1-.19l.1.14.08-.12.2-.02-.1-.12.09-.17-.17.02-.11-.16-.07.15h-.2s.1.13.1.13l-.09.17.17-.02h0Z"/>
            </g>
            <g class="cls-70">
              <polygon class="cls-12" points="13.64 7.68 13.53 7.55 13.34 7.56 13.4 7.4 13.3 7.27 13.48 7.23 13.56 7.08 13.68 7.21 13.86 7.2 13.79 7.36 13.9 7.5 13.72 7.52 13.64 7.68"/>
            </g>
            <g class="cls-72">
              <path class="cls-3" d="m13.65,7.71l-.14-.15-.17.02.05-.18-.11-.12.2-.05.06-.14.14.13.17-.02-.05.18.1.12-.19.05-.08.17h0Zm-.12-.18l.11.12.06-.13.2-.04-.12-.11.06-.17-.17.04-.13-.13-.05.15-.2.04.12.11-.06.18.17-.04h0Z"/>
            </g>
            <g class="cls-67">
              <polygon class="cls-12" points="15.78 7.66 15.89 7.53 16.08 7.54 16.01 7.38 16.12 7.25 15.94 7.21 15.86 7.06 15.74 7.2 15.56 7.18 15.62 7.34 15.52 7.47 15.7 7.5 15.78 7.66"/>
            </g>
            <g class="cls-66">
              <path class="cls-3" d="m15.77,7.68l-.09-.17-.17-.02.1-.16-.07-.14h.2s.11-.13.11-.13l.1.16.17.02-.1.17.07.14h-.2s-.12.14-.12.14h0Zm-.21-.49l.08.14-.11.15h.17s.08.14.08.14l.1-.11h.2s-.08-.12-.08-.12l.11-.16h-.17l-.09-.16-.09.14h-.2Z"/>
            </g>
            <g class="cls-23">
              <polygon class="cls-12" points="16.39 7.95 16.53 7.84 16.71 7.89 16.68 7.72 16.82 7.61 16.65 7.54 16.61 7.38 16.46 7.48 16.28 7.43 16.31 7.6 16.17 7.72 16.35 7.78 16.39 7.95"/>
            </g>
            <g class="cls-73">
              <path class="cls-3" d="m16.38,7.97l-.05-.19-.16-.05.13-.14-.03-.15.2.03.13-.1.07.18.16.05-.13.14.03.15-.2-.03-.15.12h0Zm-.1-.52l.05.15-.14.13.17.04.05.15.12-.1.19.05-.05-.15.14-.13-.17-.03-.05-.18-.12.12-.19-.05h0Z"/>
            </g>
            <g class="cls-75">
              <polygon class="cls-12" points="13.01 7.91 12.86 7.8 12.69 7.85 12.71 7.68 12.58 7.57 12.75 7.51 12.79 7.34 12.94 7.45 13.11 7.39 13.09 7.57 13.22 7.68 13.05 7.74 13.01 7.91"/>
            </g>
            <g class="cls-74">
              <path class="cls-3" d="m13.02,7.93l-.17-.12-.16.05v-.19s-.12-.1-.12-.1l.18-.09.03-.16.17.09.16-.05v.19s.12.1.12.1l-.18.09-.03.18h0Zm-.16-.15l.14.09.03-.14.19-.07-.15-.09.03-.18-.16.07-.16-.11v.16s-.2.07-.2.07l.14.09-.03.18.16-.07h0Z"/>
            </g>
            <g class="cls-68">
              <polygon class="cls-7" points="0 0 0 19.57 9.79 9.79 0 0"/>
            </g>
          </g>
        </g>
      </g>
    </g>
  </g>
</svg>