<?xml version="1.0" encoding="UTF-8"?>
<svg id="Layer_2" data-name="Layer 2" xmlns="http://www.w3.org/2000/svg" xmlns:xlink="http://www.w3.org/1999/xlink" viewBox="0 0 33.56 19.58">
  <defs>
    <style>
      .cls-1 {
        clip-path: url(#clippath);
      }

      .cls-2 {
        fill: none;
      }

      .cls-2, .cls-3, .cls-4, .cls-5, .cls-6 {
        stroke-width: 0px;
      }

      .cls-7 {
        clip-path: url(#clippath-1);
      }

      .cls-8 {
        clip-path: url(#clippath-4);
      }

      .cls-9 {
        clip-path: url(#clippath-3);
      }

      .cls-10 {
        clip-path: url(#clippath-2);
      }

      .cls-3 {
        fill: #f4c638;
      }

      .cls-4 {
        fill: #49ae32;
      }

      .cls-5 {
        fill: #5784d9;
      }

      .cls-6 {
        fill: #d6003f;
      }
    </style>
    <clipPath id="clippath">
      <rect class="cls-2" width="33.56" height="19.58"/>
    </clipPath>
    <clipPath id="clippath-1">
      <rect class="cls-2" width="33.56" height="19.58"/>
    </clipPath>
    <clipPath id="clippath-2">
      <rect class="cls-2" width="33.56" height="19.58"/>
    </clipPath>
    <clipPath id="clippath-3">
      <rect class="cls-2" width="33.56" height="19.58"/>
    </clipPath>
    <clipPath id="clippath-4">
      <rect class="cls-2" width="33.56" height="19.58"/>
    </clipPath>
  </defs>
  <g id="Layer_1-2" data-name="Layer 1">
    <g id="ERITREA">
      <g>
        <g class="cls-1">
          <rect class="cls-6" width="33.56" height="19.58"/>
        </g>
        <g class="cls-7">
          <g>
            <g class="cls-10">
              <path class="cls-3" d="m7.63,14.46c-.42.12-.67.45-.66.75h2.09c.02-.34-.26-.65-.67-.77,2.04-.05,3.81-.81,4.13-1.3-.32-.14-.69.09-.95.03.62-.28,2.49-1.5,2.19-2.79-.23.72-.95,1.32-1.26,1.48.7-1.06,1.65-2.16.82-3.02.04.5-.31,1.03-.47,1.08.41-1.12.8-2.52-.08-3.45.11.33.07,1.27-.09,1.32-.05-.76-.18-2.36-.98-2.34.26.23.36.84.37,1.47-.18-.43-.39-.75-.83-1.07-.36-.69-1-1.26-1.64-1.68.07.5.13.9.83,1.42-.36-.03-.73-.72-1.12-.73-.31-.02-.55.28-1.06.11.06.17.3.24.35.36-.11.08-.37-.01-.58-.12.3.4.75.64,1.14.56.46-.09.96-.04,1.43.23-.12.07-.59.07-.89.02.27.28.46.46.93.46.43,0,.65-.22.76-.09.27.32.45.64.67,1.01-.49.05-.34-.56-.89-.87-.31.64.36,1.4.8,1.71,0,.48.08.88.28,1.25.14.26.32.52.25,1.1-.27-.19-.54-.86-.44-1.39-.34.09-.47.69-.31.99.12.22.2.66.06.86-.13.18-.15.16-.14.55,0,.23-.13.51-.34.7.05-.16.1-.45.05-.62-.17.29-.59.58-.72.89-.13.31-.16.84-.79.96-.81.16-1.09.3-1.61.51-.06-.4.11-1.22.45-1.17.32.06,1.3-.34.95-1.16-.07.26-.3.52-.55.53.27-.35.75-.71.52-1.3-.13.25-.33.55-.64.72.33-.64.04-.83-.36-.3-.15.2-.24.61-.33,1.13-.15-.42-.14-.98-.33-1.43-.19-.48.25-.61.46-.57.52.14,1.38.14,1.32-.71-.22.28-.61.38-1.03.27.48-.35.85-1,.32-1.34-.02.36-.3.77-.67.95-.09-.3-.09-.63-.01-.98-.21.22-.36.68-.48,1.2,0-.51.09-.88.16-1.16.11-.4.38-.14.79-.11.4.02.95-.2.84-.74-.14.22-.41.3-.7.27.34-.21.95-.58.62-1.15-.14.21-.19.4-.58.47.1-.24.12-.58.43-.72-.55-.11-.87.25-1.03.82-.07-.39-.14-.53-.16-.82.3-.34.33-.98-.32-1.12-.04.33-.03.41.05.69-.3-.18-.73-.28-1.02-.03.19.21.49.39.95.17-.11.36-.39.29-.78.16.24.45.54.53.87.47.17.46.18.81-.33,1.47.02-.41,0-.72-.33-1.06-.28-.27-.51.02-.07.63-.27-.2-.57-.6-.66-1-.09.49-.01,1.07.26,1.4-.13.14-.28-.01-.49-.35.08,1.08.54,1.28,1.16,1.05.02.59.02,1.14.05,1.86-.36-.52-.82-.91-1.08-1-.08.29.22.67.39.88-.26-.05-.81-.47-.81-.47-.06.48.57.93.97,1.12-.47-.02-.68-.2-.99-.49,0,1.34,1.45,1.1,1.72.9.04.65.08,1.41.12,2.07-.41-.07-.38-.19-.73-.22-.97-.04-1.73-1.16-1.99-1.99-.07.14-.02.28-.08.44-.15-.41-.35-.92-.62-1.17.07.24.07.48.05.92-.09-.28-.18-.38-.18-.71,0-.26.25-.45.23-.81,0-.26-.25-.84-.29-1.28-.12.46-.19.94-.37,1.23.09-.49.06-.82.21-1.15.17-.35.32-.66.21-1-.11.13-.07.25-.36.58-.06-.35.36-.93.77-1.16.29-.15.65-.7.42-1.07-.27.2-.4.46-.78.91.27-1.07.98-1.35,1.83-1.35.19,0,.57-.07.67-.32-.24.09-.52.1-.77.05.18-.27.57-.23.93-.23.29,0,.73-.03.9-.44-.34.15-.88.18-1.22.07.54-.28,1.38-.31,1.82-.67-.49-.37-1.73.08-2.51.61.22-.2.56-.55.75-.83-.43-.2-1.5.99-1.88,1.7-.35.2-.49.52-.63.73.19-.64.21-1.09.36-1.61-1.21.41-.7,2.65-.97,3.18.03-.59,0-1.35-.24-1.74-.37.28-.4,1.95-.05,3.35-.13-.38-.36-.72-.44-1.18-.55,1,.32,2.19,1.05,3.13-.55-.28-1.1-.9-1.45-1.42.1,1.8,1.98,2.17,2.27,2.61-.4-.18-1.15-.55-1.47-.16.52.12.94.26,1.27.48.48.61,1.41.88,3.01.94h0Z"/>
            </g>
            <g class="cls-9">
              <polygon class="cls-5" points="0 19.58 33.56 19.57 33.56 9.79 0 19.58"/>
            </g>
            <g class="cls-8">
              <polygon class="cls-4" points="0 0 33.56 .01 33.56 9.79 0 0"/>
            </g>
          </g>
        </g>
      </g>
    </g>
  </g>
</svg>