<?xml version="1.0" encoding="UTF-8"?>
<svg id="Layer_2" data-name="Layer 2" xmlns="http://www.w3.org/2000/svg" viewBox="0 0 32.2 36.56">
  <defs>
    <style>
      .cls-1, .cls-2 {
        stroke-width: 0px;
      }

      .cls-2 {
        fill: #fa6e07;
      }
    </style>
  </defs>
  <g id="svg337">
    <polygon class="cls-1" points="9.56 36.56 22.59 36.56 21.51 33.48 10.7 33.48 9.56 36.56"/>
    <polygon class="cls-1" points="14.18 32.01 17.97 32.01 16.07 23.44 14.18 32.01"/>
    <polygon class="cls-1" points="11.18 32.01 13.22 32.01 15.6 21.38 15.6 0 8.38 3.16 14.35 23.19 11.18 32.01"/>
    <polygon class="cls-1" points="16.55 .02 23.72 3.17 17.86 23.25 20.99 32.01 18.95 32.01 16.59 21.37 16.55 .02"/>
    <g>
      <path class="cls-2" d="m23.91,34.5c4.94-2.73,8.29-7.98,8.29-14s-3.02-10.73-7.55-13.57l-.77,2.72c3.3,2.41,5.44,6.31,5.44,10.71,0,4.8-2.55,9-6.36,11.33l.96,2.8Z"/>
      <path class="cls-2" d="m8.23,34.47C3.32,31.73,0,26.5,0,20.5c0-5.67,2.97-10.65,7.44-13.49l.81,2.69c-3.27,2.41-5.38,6.29-5.38,10.67,0,4.81,2.56,9.02,6.38,11.34l-1.02,2.75Z"/>
    </g>
  </g>
</svg>