<?xml version="1.0" encoding="UTF-8"?>
<svg id="Layer_2" data-name="Layer 2" xmlns="http://www.w3.org/2000/svg" viewBox="0 0 17.35 19.58">
  <defs>
    <style>
      .cls-1, .cls-2 {
        stroke-width: 0px;
      }

      .cls-2 {
        fill: #ff6900;
      }
    </style>
  </defs>
  <g id="Layer_2-2" data-name="Layer 2">
    <path class="cls-2" d="m13.32,3.58l-.47,1.59c1.76,1.29,2.91,3.38,2.91,5.73,0,2.57-1.37,4.82-3.42,6.07l.54,1.51c2.66-1.48,4.46-4.32,4.46-7.58,0-3.08-1.6-5.78-4.02-7.32ZM1.58,10.9c0-2.35,1.15-4.44,2.91-5.73l-.47-1.59C1.6,5.11,0,7.82,0,10.9c0,3.26,1.8,6.1,4.46,7.58l.54-1.51c-2.05-1.25-3.42-3.5-3.42-6.07h0Z"/>
    <path class="cls-1" d="m9.69,17.17l-1.03-4.6-1.02,4.6h2.05Zm-3.94.79l-.58,1.63h6.99l-.58-1.63h-5.83Zm5.55-.79l-1.69-4.72L12.79,1.65l-3.86-1.65v11.45l1.27,5.72h1.1Zm-5.26,0h1.1l1.27-5.72V0l-3.86,1.65,3.18,10.8-1.69,4.72h0Z"/>
  </g>
</svg>