<?xml version="1.0" encoding="UTF-8"?>
<svg id="Layer_2" data-name="Layer 2" xmlns="http://www.w3.org/2000/svg" viewBox="0 0 19.12 19.08">
  <defs>
    <style>
      .cls-1 {
        fill: #d3b91c;
        stroke-width: 0px;
      }
    </style>
  </defs>
  <g id="Layer_2-2" data-name="Layer 2">
    <polygon class="cls-1" points="10.46 10.52 10.5 10.74 10.81 11.03 10.99 10.61 10.89 10.35 10.46 10.52"/>
    <polygon class="cls-1" points="5.56 10.76 5.72 10.52 5.82 10.66 5.71 10.89 5.78 11.03 6.14 11.12 6.15 11.13 6.35 11.44 6.3 11.73 5.86 11.69 5.81 12.01 5.97 12.27 5.66 12.42 5.74 12.61 6.21 12.69 6.21 12.69 5.94 12.8 5.51 13.29 5.67 13.38 5.87 13.2 6.15 13.26 6.34 13.04 6.48 13.13 6.99 13 7.38 13.01 7.65 12.76 7.53 12.51 7.68 12.37 7.72 12.06 7.36 11.97 7.28 11.77 7.09 11.2 6.89 11.12 6.62 10.51 6.6 10.45 6.29 10.42 6.56 9.94 6.64 9.49 6.31 9.49 6.01 9.57 6.33 8.96 5.97 9 5.74 8.96 5.5 9.41 5.4 9.98 5.55 10.26 5.56 10.76"/>
    <path class="cls-1" d="m8.9,8.99l.41.29.4-.13.59-.66.2.35h0s.23.8.23.8l.25.62.09.5.34-.02.17-.42.36.05.17-.5.11-.94.31-.13.27-.66-.28-.33-.21-.43.22-.89.57-.57.47-.54-.05-.43.29-.5.51-.21.41.34.03.3-.2.15-.68.74-.27.42-.14.38.14.57-.07.61.29.2.17.32.48-.12.52-.22.54-.05.64-.78.28-.37.11-.33-.44-.45.12-.44-.27-.51.2-.61-.35-.84.27-.58-.46-.53.28-.65.5-.34-.32-.54.38-.24-.93-.66-.53.18-.54-.04-.45.74-.49-.05-.65.38-.82,1.05-.5.6-.71,1.46-.54.98-.59.7-.78.55-.27.41.09,1.4.11.62Zm3.3-6.28h0s0,0,0,0h0Z"/>
    <polygon class="cls-1" points="9.96 17.02 10.06 16.72 10.01 16.37 9.82 16.53 9.76 16.68 9.82 16.94 9.96 17.02"/>
    <polygon class="cls-1" points="4.68 12.58 5.2 12.3 5.43 11.86 5.38 11.5 5.54 11.16 5.22 10.84 4.97 10.86 4.97 10.86 4.75 11.1 4.34 11.5 4.5 12 4.26 12.51 4.68 12.58"/>
    <polygon class="cls-1" points="11.6 18.27 11.3 18.31 10.95 18.27 10.91 18.47 11.32 18.66 11.47 18.7 11.7 18.83 11.76 18.65 11.72 18.53 11.83 18.24 11.6 18.27"/>
    <polygon class="cls-1" points="9.81 17.21 9.64 17.19 9.71 17.42 9.72 17.88 9.83 17.98 9.96 17.85 10.09 17.88 10.13 17.37 9.95 17.09 9.81 17.21"/>
    <polygon class="cls-1" points="2.91 3.9 2.42 3.84 1.94 4.24 1.56 4.03 1.11 4.43 .65 3.93 .2 4.04 0 4.51 .62 4.68 .64 4.89 .11 5.02 .76 5.36 .46 5.66 1.29 5.88 1.68 5.97 1.94 5.85 2.79 5.39 3.18 4.86 2.85 4.37 2.91 3.9"/>
    <polygon class="cls-1" points="19.12 13.68 19.11 13.55 18.67 13.4 18.5 13.4 18.32 13.19 18.09 13.26 17.71 13.1 17.72 13 17.61 12.8 17.38 12.78 17.35 12.63 17.43 12.53 17.24 12.26 16.93 12.31 16.84 12.28 16.76 12.39 16.65 12.37 16.58 12.06 16.51 11.9 16.57 11.85 16.81 11.87 16.92 11.76 16.84 11.63 16.64 11.54 16.66 11.45 16.53 11.36 16.35 11.02 16.41 10.89 16.38 10.64 16.09 10.52 15.94 10.58 15.9 10.45 15.58 10.31 15.49 10 15.46 9.73 15.32 9.61 15.45 9.43 15.36 8.91 15.57 8.58 15.52 8.47 15.22 8.49 14.9 8.39 14.52 8.48 14.15 8.64 14.17 8.97 14.36 9.17 14.47 9.1 14.44 9.43 14.38 9.85 14.14 9.86 13.91 9.45 13.63 9.64 13.48 9.99 13.47 10.39 13.53 10.83 13.84 10.92 13.97 11 13.94 11.14 13.97 11.27 13.42 11.28 13.06 11.22 12.77 11.22 12.75 11.09 12.45 11 12.08 11.18 11.61 11.41 11.41 11.56 11.27 11.4 10.93 11.2 10.77 11.34 10.47 11.43 10.47 11.25 10.17 11.13 10.16 10.94 10.08 10.68 10.3 10.3 10.39 10.36 10.46 10.16 10.3 10.08 10.26 9.93 10.35 9.75 10.36 9.47 10.12 9.62 10.02 9.77 9.76 9.81 9.67 9.97 9.62 10.12 9.63 10.66 9.75 10.95 9.76 11.24 9.83 11.43 9.63 11.67 9.57 11.56 9.33 11.59 9.27 11.7 9.02 11.68 8.62 11.89 8.36 12.6 8.2 12.73 7.97 12.83 7.97 12.83 7.71 12.92 7.62 13.3 6.93 13.66 6.65 13.46 6.74 13.98 6.24 13.86 5.86 13.96 5.89 14.28 6.34 14.45 6.56 14.67 6.86 15.12 6.81 15.96 6.66 16.2 6.66 16.21 6.18 16.19 5.93 16.21 5.61 16.14 5.21 16.15 4.85 16.07 4.43 16.37 4.55 16.54 4.54 16.83 4.55 16.96 4.61 17.1 4.62 17.27 4.55 17.5 4.53 17.66 4.42 17.8 4.39 18.05 4.46 18.19 4.6 18.22 4.62 18.45 4.58 18.74 4.73 18.7 4.89 18.76 5.01 18.66 5.28 18.72 5.37 18.93 5.48 19.05 5.62 19.08 5.74 18.94 5.92 18.81 6.21 18.82 6.58 18.82 6.79 18.53 7.02 18.46 7.08 18.21 7.25 18.04 7.14 17.83 7.25 17.51 7.43 17.3 7.46 17.17 7.84 17.08 8.12 16.82 8.14 16.35 8.57 16.21 9.16 16.32 9.55 16.07 9.72 15.88 9.86 15.82 10.1 15.96 10.25 16.01 10.34 16.41 10.54 16.64 10.81 16.9 11.05 17.08 11.27 17.1 11.39 17.26 11.58 17.33 11.67 17.5 11.79 17.55 11.89 17.74 12 17.96 11.94 18.04 11.88 18.25 11.87 18.36 12 18.33 12.16 18.01 12.28 17.98 12.32 17.79 12.1 17.64 12.23 17.39 12.48 17.46 12.65 17.64 12.7 17.5 12.67 17.43 12.42 17.22 12.2 17.11 11.94 16.96 12.02 16.88 11.95 16.8 11.71 16.8 11.38 16.48 11.24 16.14 10.96 15.93 10.86 15.72 10.9 15.6 10.88 15.4 11.12 15.25 11.36 15.31 11.29 15.34 11.28 15.35 11.27 15.5 11.36 15.64 11.45 15.46 11.64 15.52 11.65 15.66 11.78 15.84 11.72 15.87 11.97 16.17 12.24 16.29 12.42 16.44 12.7 16.59 12.82 16.67 12.91 16.8 12.97 16.83 13.02 16.89 12.98 17.01 12.95 17.28 12.98 17.47 13.14 17.6 13.15 17.68 13.22 17.82 13.37 17.94 13.35 18.01 13.37 18.04 13.49 18.21 13.62 18.2 13.75 18.18 13.81 18.2 13.91 18.2 13.86 18.27 13.81 18.25 13.73 18.2 13.67 18.22 13.65 18.26 13.59 18.25 13.55 18.3 13.49 18.36 13.54 18.46 13.58 18.47 13.63 18.51 13.66 18.59 13.61 18.65 13.65 18.75 13.72 18.81 13.74 18.78 13.73 18.69 13.8 18.69 13.86 18.8 13.85 18.88 13.89 18.91 13.92 18.77 13.98 18.78 14.03 18.91 14.09 18.91 13.96 18.49 14.07 18.56 14.17 18.54 14.08 18.35 14.21 18.33 14.35 18.45 14.35 18.24 14.2 18.13 14.04 17.96 14.15 17.87 14 17.69 13.93 17.46 13.99 17.38 14.15 17.58 14.31 17.58 14.46 17.51 14.26 17.3 14.62 17.19 14.77 17.23 14.95 17.32 15.04 17.5 15.29 17.29 15.42 17.17 15.77 17.15 15.82 17.06 15.56 16.93 15.53 16.78 15.53 16.78 15.43 16.55 15.54 16.26 15.7 16.09 15.78 15.59 15.87 15.63 16.01 15.54 16.01 15.43 16.24 15.12 16.35 14.88 16.62 14.83 16.64 14.99 17.1 15.1 17.15 15.12 17.2 15.08 17.24 15.16 16.91 15.34 16.85 15.42 17.18 15.54 17.11 15.74 17.28 15.82 17.68 15.58 18 15.51 18.06 15.36 17.76 15.38 17.61 15.28 17.46 15.13 17.6 15.02 17.85 14.86 18.13 14.83 18.33 14.69 18.56 14.66 18.57 14.47 18.73 14.34 19.01 14.31 19.06 14.16 19 13.92 19.12 13.68"/>
  </g>
</svg>