<?xml version="1.0" encoding="UTF-8"?>
<svg id="Layer_2" data-name="Layer 2" xmlns="http://www.w3.org/2000/svg" viewBox="0 0 461.65 463.11">
  <defs>
    <style>
      .cls-1 {
        fill: #001f7a;
      }

      .cls-1, .cls-2 {
        fill-rule: evenodd;
        stroke-width: 0px;
      }

      .cls-2 {
        fill: #fff;
      }
    </style>
  </defs>
  <g id="Layer_1-2" data-name="Layer 1">
    <g>
      <path class="cls-1" d="m440.39,270.68c-1.53,2.57-2.75,5.29-3.68,8.13l24.3,9.23-.56,1.35c-38.88,93.77-111.85,151.03-214.63,159.45l-14.99,14.27-14.99-14.27C113.05,440.42,40.08,383.16,1.2,289.38l-.56-1.35,24.3-9.23c-.93-2.84-2.15-5.56-3.68-8.13l-14.85,6.65-.65-.43c-5.55-3.66-6.28-10.37-5.5-16.46.52-4.11,3.96-6.56,7.51-8.06,12.55-5.3,24.97-10.91,37.62-15.95,2.78-1.11,5.73-1.29,8.44.1,1.9.98,3.76,2.11,5.52,3.33l.13.09.1.11c12.16,13.2,11.97,27.49,13.85,44.2l.13,1.13-12.27,4.24c22.59,43.39,57.71,76.96,104.17,93.57,20.98,7.5,43.1,11.08,65.37,11.08s44.39-3.58,65.37-11.08c46.46-16.62,81.58-50.18,104.17-93.57l-12.28-4.24.13-1.13c1.88-16.71,1.69-31.01,13.85-44.2l.1-.11.13-.09c1.76-1.22,3.62-2.35,5.52-3.33,2.71-1.39,5.66-1.21,8.44-.1,12.66,5.04,25.08,10.64,37.62,15.95,3.55,1.5,6.99,3.96,7.51,8.06.78,6.08.04,12.8-5.5,16.46l-.65.43-14.85-6.65h0Z"/>
      <path class="cls-2" d="m230.82,461.16l14.38-13.69c110.29-8.86,178.46-73.08,213.94-158.63l-24.18-9.19c1.13-3.84,2.74-7.44,4.88-10.78l15.28,6.84c3.8-2.5,5.7-7.21,4.87-15.09-.42-2.82-2.48-5.18-6.66-6.94-12.53-5.31-25.06-10.62-37.59-15.94-2.74-1.02-5.15-.99-7.27.05-1.76.95-3.64,2.04-5.36,3.24-11.89,12.91-11.66,27.13-13.48,43.4l12.75,4.41c-36.73,71.8-101.44,105.15-171.55,106.87-70.11-1.73-134.82-35.08-171.55-106.87l12.75-4.41c-1.83-16.27-1.59-30.49-13.48-43.4-1.72-1.19-3.6-2.29-5.36-3.24-2.11-1.04-4.53-1.07-7.27-.05-12.53,5.31-25.06,10.62-37.59,15.94-4.17,1.76-6.23,4.12-6.66,6.94-.83,7.88,1.08,12.59,4.88,15.09l15.28-6.84c2.13,3.34,3.74,6.94,4.87,10.78l-24.18,9.19c35.47,85.55,103.64,149.76,213.94,158.63l14.38,13.69h0Z"/>
      <path class="cls-1" d="m405.92,244.26c-9.87,10.96-10.37,23.56-11.72,37.26,3.47,1.2,6.93,2.4,10.4,3.59,1.69-3.85,3.38-7.71,5.07-11.56.36-.68-.61-.96-1.55-.16-2.37,2.06-4.47,5.58-6.94,6.3-1.72.02-3.44.03-5.16.05.17-1.41.34-2.53.52-3.94,2.38.68,4.27,1.02,4.78.37,1.58-1.91,3.54-3.87,5.12-5.78.97-.74,1.83-.89,3.36-.5,7.05,2.74,14.11,5.48,21.16,8.21,1.16-3.84,2.78-7.49,4.88-10.9-6.04-2.54-12.08-5.08-18.12-7.62-1.11-.42-1.22-1.63-1.22-3.75.68-4.34,2.68-10.05,0-13.18-1.41-1.35-3.94-1.98-6.11-1.07-1.54.79-3.05,1.7-4.49,2.68h0Zm-350.2,0c9.87,10.96,10.37,23.56,11.72,37.26-3.47,1.2-6.93,2.4-10.4,3.59-1.69-3.85-3.38-7.71-5.07-11.56-.36-.68.61-.96,1.55-.16,2.37,2.06,4.47,5.58,6.94,6.3,1.72.02,3.44.03,5.16.05-.17-1.41-.34-2.53-.52-3.94-2.38.68-4.27,1.02-4.78.37-1.58-1.91-3.54-3.87-5.12-5.78-.97-.74-1.83-.89-3.36-.5-7.05,2.74-14.11,5.48-21.16,8.21-1.16-3.84-2.78-7.49-4.88-10.9,6.04-2.54,12.08-5.08,18.12-7.62,1.11-.42,1.22-1.63,1.22-3.75-.68-4.34-2.68-10.05,0-13.18,1.41-1.35,3.94-1.98,6.11-1.07,1.54.79,3.05,1.7,4.49,2.68h0Zm-48.39,26.45c-1.92-2.58-1.84-6.52-1.45-9.54.22-1.75,2.7-2.97,4.09-3.56,10-4.23,19.92-8.65,29.95-12.82.24,3.71.47,7.43.71,11.14.02.37-.18.7-.53.84-11.29,4.63-21.63,8.95-32.78,13.94h0Zm45.93,15.72c.74,1.45,1.49,2.91,2.23,4.36,23.22,45.38,59.71,80.49,108.06,97.78,21.59,7.72,44.36,11.41,67.28,11.41s45.68-3.69,67.28-11.41c48.35-17.29,84.84-52.4,108.06-97.78.74-1.45,1.49-2.91,2.23-4.36,1.55-3.52,3.1-7.03,4.65-10.55.19-.43.69-.62,1.12-.44,5.2,2.27,10.4,4.53,15.61,6.8,7.91,3.01,15.83,6.01,23.74,9.02-38.53,89.56-109.22,143.99-208.64,151.98-.5.04-1,.08-1.5.12-4.18,3.98-8.36,7.96-12.54,11.94-4.18-3.98-8.36-7.96-12.54-11.94-.5-.04-1-.08-1.5-.12-99.42-7.99-170.11-62.42-208.64-151.98,7.91-3.01,15.83-6.01,23.74-9.02,5.2-2.27,10.4-4.53,15.61-6.8.43-.19.93,0,1.12.44,1.55,3.52,3.1,7.03,4.65,10.55h0Zm401.06-15.72c1.92-2.58,1.84-6.52,1.45-9.54-.22-1.75-2.7-2.97-4.09-3.56-10-4.23-19.92-8.65-29.95-12.82-.24,3.71-.47,7.43-.71,11.14-.02.37.18.7.53.84,11.29,4.63,21.63,8.95,32.78,13.94h0Z"/>
      <path class="cls-1" d="m250.23,388.69c-6.13,6.3-12.26,12.6-18.38,18.9l-1.02,1.04-1.02-1.04c-6.13-6.3-12.26-12.6-18.39-18.9-36.05-3.93-70.76-17.28-99.08-40.12-24.59-19.84-43.96-46.74-51.97-77.54-7.78-29.94-2.91-61.29,5.87-90.44,3.7-12.29,9.28-23.94,12.51-36.38,2.38-9.18,4.6-19.5,3.19-29-2.77-18.67-18.67-35.71-32.17-47.81l-1.16-1.04,1.15-1.06C73,43.85,96.21,22.4,119.43.96l1.04-.96.96,1.03c15,16.07,42.08,19.93,62.92,17.97,15.82-1.49,32.85-6.58,45.61-16.33l.86-.66.86.66c12.76,9.75,29.79,14.83,45.61,16.33,20.84,1.96,47.92-1.9,62.92-17.97l.96-1.03,1.04.96c23.22,21.44,46.44,42.89,69.66,64.33l1.14,1.06-1.16,1.04c-13.5,12.1-29.4,29.13-32.17,47.81-1.41,9.5.81,19.82,3.19,29,3.23,12.44,8.81,24.09,12.51,36.38,8.78,29.15,13.66,60.5,5.87,90.44-8.01,30.81-27.37,57.7-51.96,77.54-28.32,22.85-63.03,36.2-99.08,40.12h0Z"/>
      <path class="cls-2" d="m230.82,3.8c29.9,22.84,86.94,23.36,110.43-1.8,23.22,21.44,46.44,42.89,69.66,64.33-17.33,15.53-29.86,31.86-32.62,48.66-1.22,9.24.87,19.1,3.23,29.57,3.66,12.45,8.75,24.17,12.52,36.43,9.13,30.99,11.92,60.75,5.86,89.67-17.72,56.83-72.22,108.35-150.33,116.67-6.25,6.42-12.49,12.84-18.74,19.27-6.25-6.42-12.49-12.84-18.74-19.27-78.11-8.32-132.61-59.84-150.33-116.67-6.06-28.93-3.27-58.68,5.86-89.67,3.78-12.26,8.86-23.98,12.52-36.43,2.36-10.47,4.44-20.33,3.22-29.57-2.76-16.79-15.3-33.13-32.62-48.66C73.96,44.89,97.18,23.44,120.39,2c23.49,25.16,80.53,24.64,110.43,1.8h0Z"/>
      <path class="cls-1" d="m230.82,12.61c-13.41,8.76-29.95,13.49-45.66,14.97-21.38,2.01-47.44-1.66-64.78-15.77-19.68,18.18-39.37,36.36-59.05,54.54,13.4,12.93,26.43,29.24,29.15,47.59,1.6,10.8-.67,21.99-3.38,32.43-3.27,12.61-8.86,24.29-12.6,36.7-8.31,27.58-13.16,57.43-5.79,85.78,7.54,29.01,25.89,54.33,49.04,73.01,27.16,21.91,60.51,34.64,95.09,38.32l2.59.28,1.81,1.86c4.53,4.65,9.05,9.31,13.58,13.96,4.53-4.65,9.05-9.31,13.58-13.96l1.81-1.86,2.58-.28c34.58-3.68,67.93-16.41,95.09-38.32,23.15-18.67,41.49-44,49.04-73.01,7.37-28.35,2.52-58.2-5.79-85.78-3.74-12.41-9.33-24.09-12.6-36.7-2.71-10.44-4.98-21.63-3.38-32.43,2.72-18.35,15.75-34.66,29.15-47.59-19.68-18.18-39.37-36.36-59.05-54.54-17.34,14.11-43.4,17.78-64.78,15.77-15.71-1.48-32.26-6.21-45.66-14.97h0Z"/>
      <path class="cls-2" d="m322.46,110.67l-.1.1c3.2,2.13,5.93,4.48,8.44,6.93-1.12,1.27-2.25,2.53-3.37,3.8-1.55-3.45-3.43-6.74-6.05-9.68-2.62,2.94-4.5,6.23-6.05,9.68-1.12-1.27-2.25-2.53-3.37-3.8,2.51-2.45,5.24-4.8,8.44-6.93l-.1-.1c.24-.25.48-.5.73-.75l.35.22.35-.22.73.75h0Zm-181.12,0l-.1.1c3.2,2.13,5.93,4.48,8.44,6.93-1.13,1.27-2.25,2.53-3.37,3.8-1.55-3.45-3.43-6.74-6.05-9.68-2.62,2.94-4.5,6.23-6.05,9.68-1.12-1.27-2.25-2.53-3.37-3.8,2.51-2.45,5.24-4.8,8.44-6.93l-.1-.1c.24-.25.48-.5.73-.75l.35.22.35-.22c.24.25.48.5.73.75h0Zm-26.95-49.14c3.33-4.66,2.8-9.25.74-14.09-3.1,4.78-3.56,9.66-.74,14.09h0Zm3.48-2.63c5.24-2.61,6.74-6.29,7.36-11.52-5.07,2.61-7.6,6.26-7.36,11.52h0Zm-3.49,7.78c5.2-1.09,7.54-3.62,8.46-7.95-3.93.9-7.22,2.65-8.46,7.95h0Zm-2.23,3.27c2.29-5.39,1.04-9.16-1.89-13.53-2.15,5.28-1.71,9.7,1.89,13.53h0Zm-1.16,5.69c-4.63-2.32-7.67-7.03-6.34-11.94,4.83,2.23,7.05,6.43,6.34,11.94h0Zm1.1,2.63c5.29-3.45,5.86-6,6.2-11.27-4.88,2.94-6.55,5.84-6.2,11.27h0Zm.84,6.45c-4.96-1.48-8.76-5.6-8.3-10.67,5.14,1.36,8.05,5.12,8.3,10.67h0Zm2.56-6.81c-1.83,5.8-.96,10.65,2.44,14.11,1.79-5.28,1.29-10.14-2.44-14.11h0Zm-.28,12.89c-5.98-.31-10.12-2.42-11.34-7.36,5.3-.4,9.04,2.13,11.34,7.36h0Zm4.64,8.44c-5.98-.31-10.12-2.42-11.34-7.36,5.3-.4,9.04,2.13,11.34,7.36h0Zm-.33-8.86c-.89,5.59,1.41,9.88,6.19,12-.3-6.09-1.82-10.19-6.19-12h0Zm17.52,17.53c-4.99-.11-9.29-3.48-10.25-8.04,5.73.15,9.65,3.64,10.25,8.04h0Zm-12.73-4.13c-3.58-3.69-7.93-4.87-13.17-2.44,3.71,3.87,8.15,4.74,13.17,2.44h0Zm6.67,3.12c-4.59-2.32-9.09-2.01-13.24,2,4.77,2.45,9.25,1.82,13.24-2h0Zm8.24,2.76c-4.75-1.97-9.21-1.33-13.05,2.98,4.94,2.08,9.36,1.13,13.05-2.98h0Zm26.93-48.14c-3.33-4.66-2.8-9.25-.74-14.09,3.1,4.78,3.56,9.66.74,14.09h0Zm-3.48-2.63c-5.24-2.61-6.74-6.29-7.36-11.52,5.07,2.61,7.6,6.26,7.36,11.52h0Zm3.49,7.78c-5.2-1.09-7.54-3.62-8.46-7.95,3.93.9,7.22,2.65,8.46,7.95h0Zm2.23,3.27c-2.29-5.39-1.04-9.16,1.89-13.53,2.15,5.28,1.71,9.7-1.89,13.53h0Zm1.16,5.69c4.63-2.32,7.67-7.03,6.34-11.94-4.83,2.23-7.05,6.43-6.34,11.94h0Zm-1.1,2.63c-5.29-3.45-5.86-6-6.2-11.27,4.88,2.94,6.55,5.84,6.2,11.27h0Zm-.84,6.45c4.96-1.48,8.76-5.6,8.3-10.67-5.14,1.36-8.05,5.12-8.3,10.67h0Zm-2.56-6.81c1.83,5.8.96,10.65-2.44,14.11-1.79-5.28-1.29-10.14,2.44-14.11h0Zm.28,12.89c5.98-.31,10.12-2.42,11.34-7.36-5.3-.4-9.04,2.13-11.34,7.36h0Zm-4.64,8.44c5.98-.31,10.12-2.42,11.34-7.36-5.3-.4-9.04,2.13-11.34,7.36h0Zm.33-8.86c.89,5.59-1.41,9.88-6.19,12,.3-6.09,1.82-10.19,6.19-12h0Zm-17.52,17.53c4.99-.11,9.29-3.48,10.25-8.04-5.73.15-9.65,3.64-10.25,8.04h0Zm12.73-4.13c3.58-3.69,7.93-4.87,13.17-2.44-3.71,3.87-8.15,4.74-13.17,2.44h0Zm-6.67,3.12c4.59-2.32,9.09-2.01,13.24,2-4.77,2.45-9.25,1.82-13.24-2h0Zm-8.24,2.76c4.75-1.97,9.21-1.33,13.05,2.98-4.94,2.08-9.36,1.13-13.05-2.98h0Zm154.19-48.14c3.33-4.66,2.8-9.25.74-14.09-3.1,4.78-3.56,9.66-.74,14.09h0Zm3.48-2.63c5.24-2.61,6.74-6.29,7.36-11.52-5.07,2.61-7.6,6.26-7.36,11.52h0Zm-3.49,7.78c5.2-1.09,7.54-3.62,8.46-7.95-3.93.9-7.22,2.65-8.46,7.95h0Zm-2.23,3.27c2.29-5.39,1.04-9.16-1.89-13.53-2.15,5.28-1.71,9.7,1.89,13.53h0Zm-1.16,5.69c-4.63-2.32-7.67-7.03-6.34-11.94,4.83,2.23,7.05,6.43,6.34,11.94h0Zm1.1,2.63c5.29-3.45,5.86-6,6.2-11.27-4.88,2.94-6.55,5.84-6.2,11.27h0Zm.84,6.45c-4.96-1.48-8.76-5.6-8.3-10.67,5.14,1.36,8.05,5.12,8.3,10.67h0Zm2.56-6.81c-1.83,5.8-.96,10.65,2.44,14.11,1.79-5.28,1.29-10.14-2.44-14.11h0Zm-.28,12.89c-5.98-.31-10.12-2.42-11.34-7.36,5.3-.4,9.04,2.13,11.34,7.36h0Zm4.64,8.44c-5.98-.31-10.12-2.42-11.34-7.36,5.3-.4,9.04,2.13,11.34,7.36h0Zm-.33-8.86c-.9,5.59,1.41,9.88,6.19,12-.3-6.09-1.82-10.19-6.19-12h0Zm17.52,17.53c-4.99-.11-9.29-3.48-10.25-8.04,5.73.15,9.65,3.64,10.25,8.04h0Zm-12.73-4.13c-3.58-3.69-7.93-4.87-13.17-2.44,3.71,3.87,8.15,4.74,13.17,2.44h0Zm6.67,3.12c-4.59-2.32-9.09-2.01-13.24,2,4.77,2.45,9.25,1.82,13.24-2h0Zm8.24,2.76c-4.75-1.97-9.21-1.33-13.05,2.98,4.94,2.08,9.36,1.13,13.05-2.98h0Zm26.93-48.14c-3.33-4.66-2.8-9.25-.74-14.09,3.1,4.78,3.56,9.66.74,14.09h0Zm-3.48-2.63c-5.24-2.61-6.74-6.29-7.36-11.52,5.07,2.61,7.6,6.26,7.36,11.52h0Zm3.49,7.78c-5.2-1.09-7.54-3.62-8.46-7.95,3.93.9,7.22,2.65,8.46,7.95h0Zm2.23,3.27c-2.29-5.39-1.04-9.16,1.89-13.53,2.15,5.28,1.71,9.7-1.89,13.53h0Zm1.16,5.69c4.63-2.32,7.67-7.03,6.34-11.94-4.83,2.23-7.05,6.43-6.34,11.94h0Zm-1.1,2.63c-5.29-3.45-5.86-6-6.2-11.27,4.88,2.94,6.55,5.84,6.2,11.27h0Zm-.84,6.45c4.96-1.48,8.76-5.6,8.3-10.67-5.14,1.36-8.05,5.12-8.3,10.67h0Zm-2.56-6.81c1.83,5.8.96,10.65-2.44,14.11-1.79-5.28-1.29-10.14,2.44-14.11h0Zm.28,12.89c5.98-.31,10.12-2.42,11.34-7.36-5.3-.4-9.04,2.13-11.34,7.36h0Zm-4.64,8.44c5.98-.31,10.12-2.42,11.34-7.36-5.3-.4-9.04,2.13-11.34,7.36h0Zm.33-8.86c.9,5.59-1.41,9.88-6.19,12,.3-6.09,1.82-10.19,6.19-12h0Zm-17.52,17.53c4.99-.11,9.29-3.48,10.25-8.04-5.73.15-9.65,3.64-10.25,8.04h0Zm12.73-4.13c3.58-3.69,7.93-4.87,13.17-2.44-3.71,3.87-8.15,4.74-13.17,2.44h0Zm-6.67,3.12c4.59-2.32,9.09-2.01,13.24,2-4.77,2.45-9.25,1.82-13.24-2h0Zm-8.24,2.76c4.75-1.97,9.21-1.33,13.06,2.98-4.94,2.08-9.37,1.13-13.06-2.98h0Z"/>
      <path class="cls-2" d="m229.47,39.32c.71-1.27,2.11-1.54,3.5-1.57,1.87.1,3.14,1.04,3.76,2.68.39,1.57.08,3.26.71,4.77,11.48,24.03,22.92,48.24,34.41,72.27.49,1.03,1.17,1.78,2.14,2.38,3.05,1.89,6.56,3.71,7.53,7.29.49,2.98-2.18,5.02-4.46,6.37-.02,29.61-.5,59.23-.25,88.85,1.04.8,2.45,2,2.43,4.46l-.28,21.11c-1.14,3.27-5.28,2.63-8.03,2.67-.04-1.78.1-3.86-.2-5.61-1.08-1.03-2.58-1.42-3.95-1.93-25.06-8.48-48.73-17.23-77.26-27.28-1.51-.45-2.79-1.74-2.73-3.38-.1-4.74-.12-9.49,0-14.22-.03-1.72,1.93-2.34,3.06-3.26-.02-20.14,0-40.28-.14-60.41-1.72-.87-3.73-1.83-4.23-3.87-1.16-3.44,1.21-6.81,3.84-8.85,1.41-1.27,3.45-1.98,4.29-3.77,10.69-22.42,21.35-44.86,32.07-67.28.96-2.06,2.09-4.05,2.83-6.21.21-1.75-.15-3.68.95-5.21h0Zm-26.8,76.52c10.05-21.16,20.16-42.29,30.08-63.51,1.45,2.67,2.68,5.46,4.03,8.19-2.34.42-5.89-.26-6.08,1.95-.4.84,4.59.2,7.22.77.52.75.66,1.85,1.11,2.64-1.71.64-4.89.81-4.69,2-.42,1.02,4.16.56,6.26.7.72,1.61,1.21,3.42,1.97,5.01-3.49.36-5.87.27-9.34.9-1.1.32-.14.88,1.71,1.13,3.43.52,6.15.44,9.44,1.62,1.02.9,1.16,2.81,1.8,3.97-3.37.33-9.71-.57-9.32.62,3.02,2.8,7.36.32,10.97,2.39,1.06,1.52,1.54,3.65,2.35,5.3-3.12.05-8.01-.99-11.7.77-2.21,2.19,10.42.8,14.2,4.04,1.12,1.68,1.84,3.57,2.72,5.38-6.55-.59-12.81-.84-19.4-.43-1.33.16-1.58.97-.31,1.18,7.24,1,14.67,1.06,21.65,3.45,1.05,2.16,2.09,4.32,3.13,6.48-5.72-.72-11.54-2.04-17.32-1.12-.85.27-.51.92.44,1.12,6.09,1.18,12.37,1.51,18.23,3.68.82.49,1.27.97,1.47,1.47-10.19-1.42-20.43-2.75-30.73-2.91-10.04.16-20.06,1.19-29.89,3.19h0Zm60.56,107.48l7.54,2.06.11,15.42-7.53-2.82-.12-14.66h0Zm-13.38-3.8l8.68,2.59-.02,14.13-8.66-2.79v-13.93h0Zm-13.72-4.5l8.73,2.76.04,13.99-8.73-3.51-.04-13.25h0Zm-12.86-4.73l8.09,2.69.08,13.77-8.2-2.96.02-13.5h0Zm-13.24-4.6l8.6,3.23.09,13.81-8.39-2.93-.3-14.11h0Zm-12.77-4.76l7.85,3.08.21,14.19-7.95-2.77-.11-14.5h0Zm43.52-64.8c9.92.85,19.94,1.7,29.42,4.85-.03,1.16-.05,2.33-.08,3.5-6.02-1.36-12.3-2.92-18.48-2.01-1.22.25-1.69,1.07-.99,1.2,6.7.62,13.79.94,19.59,4.71.02,1.66,0,3.33-.03,4.99-4.65-1.19-9.4-1.92-14.14-2.65-5.61-1.11-10.1-1.21-16.1-1.3l.8-13.28h0Zm-13.88,0c3.69-.37,7.41-.26,11.11-.22-.44,5.86-.57,11.74-1,17.61-3.05-.09-6.11-.12-9.16,0-.23-5.8-.6-11.6-.96-17.4h0Zm-25.31-5.24c17.17-3.17,34.8-3.17,52.15-1.62,5.53.62,11.23,1.12,16.3,3.55.02,1.25.04,3.07.07,4.32-8.82-1.21-20.15-3.12-29.07-3.28-.88-1.14-1.58-1.34-3.91-1.49-4.45,0-8.92-.19-13.36.19-.75.06-1.32.7-1.3,1.46.16,5.31.6,10.89.85,16.2-5.03.53-10.04.91-15.04,1.6-1.63.27-3.48.34-4.69,1.53-.08.08-.11.2-.06.31.05.11.15.18.27.17,6.56-.18,13.1-.65,19.67-.9.06.79.14,1.46.22,2.17.09.72.69,1.25,1.41,1.25,3.76,0,7.51-.14,11.27,0,1.02-.09,2.25.3,3.1-.46.24-1.03.43-2.08.58-3.14,4.39-.02,8.76.54,13.1,1.14,5.87.97,11.83,1.98,17.24,4.53,0,1.28-.02,2.57-.04,3.86-6.21-1.21-12.39-2.46-18.78-2.12-1.2.18-1.87.3-2.4.88-.07.08-.09.19-.06.29.04.1.12.17.23.18,6.87.87,14.47,1.5,20.58,5l.29,4.17c-13.73-2.82-27.43-4.52-41.49-3.57-5.8.46-11.06.04-16.65,1.81-.68.28-.08,1.21,1.17,1.33,11.47-.53,22.25-.53,33.7.41,8.03,1.05,16.16,1.96,23.67,5.09.02,1.61.03,3.23.03,4.84-10.86-2.46-21.97-3.14-33.12-2.72-1.25.18-1.07,1.18-.15,1.16,11.23.7,22.53,1.45,33.03,5.78,0,1.64.03,3.28.06,4.93-5.53-.75-10.29-1.2-15.87-.69-1.48.4-1.13,1.11-.05,1.44,5.71.29,10.92.65,16.24,2.85-.01,2.16-.03,4.33-.03,6.5-7.65-2.64-15.87-2.11-23.85-1.76-1.46.3-1.83.9-2.04,1.55-.03.09-.01.18.04.25.05.07.13.12.23.12,8.68.11,17.5.32,25.73,3.32,0,1.99-.02,3.99-.03,5.98-4.63-1.07-9.35-1.34-14.12-1.37-2.42,0-3.69,1.69-2.01,2.07,3.12.22,5.2-.1,8.3.29,2.69.28,5.25,1.15,7.84,1.83-.02,3.05.14,7.13.06,10.18l-65.86-21.94c-2.71-1.11-6.85-2.78-7.72-6.22-.82-8.36-.6-15.28-.65-23.67-.11-11.74-.15-23.47-.25-35.21-.34-2.73,2.99-3.83,5.14-4.37h0Zm-.17-9.06c21-4.06,43.05-4.88,63.85.75,3.25.99,6.17,1.3,7.82,4.59.17.76.03,2.3-.66,2.42-2.43-.03-4.51-1.51-6.8-2.08-12.17-3.47-24.97-4.27-37.59-4.03-10.81.31-21.68,1.56-32.02,4.78-1.01.25-2.04.61-3.09.44-1.22-.47-2.05-1.94-1.33-2.85,2.73-2.78,6.19-3.27,9.83-4.02h0Z"/>
      <path class="cls-2" d="m113.56,256.93c1.42,3.7,1.23,7.63,1.32,11.45l.07,27.71c-.03,3.95-.39,7.68-1.02,11.35-.03.12.05.17.12.16,10.59-.06,21.05-.29,31.62.27.12.01.13-.08.15-.15.55-2.53,1.49-5.46,2.2-8.04.26-.93-.28-2.22-1.59-1.22-2.67,2.04-5.93,3.65-9.24,3.68h-4.1c-5.94-.02-7.04-2.15-7.01-8.35v-10.78c0-.14.15-.17.26-.17,5.14.02,10.09.07,15.18.67.09.01.11-.05.12-.09.57-2.15,1.14-4.12,1.72-6.18.15-.41.02-.71-.52-.6-5.42.72-11.12.51-16.68.6-.06,0-.11-.09-.11-.12.05-5.02-.04-9.99.25-15.01.01-.16.05-.23.24-.22,6.56-.27,12.9-.34,15.4,3.78.27.52.87.33.98.02.85-2.98,1.65-5.83,2.5-8.81.02-.08-.07-.2-.2-.2-10.43.26-20.96.23-31.44.03-.21,0-.31.07-.26.22h0Zm197.41,14.68c-.07-.2-.01-.32.21-.32,3.5.04,7.05.03,10.46-.26.2-.02.4.1.39.32-.09,2.14-.2,4.69-.26,6.14,3.61-3.93,8.65-6.99,13.25-6.96,7.1.05,11.58,3.45,11.51,12.89.02,4.24.03,8.49.05,12.73,0,4.01.49,8.43,1.49,11.19.08.24-.04.27-.23.26-3.75-.24-7.64-.21-11.49,0-.29.02-.38-.13-.35-.33.59-3.69.86-7.19.86-10.82v-11.47c.06-2.9-.93-7.33-6.57-7.33-3.69,0-8.07,3.11-8.18,8.46v9.7c.04,4.02.4,8.31,1.49,11.5.08.26-.09.35-.32.32-3.85-.18-7.58-.16-11.33-.03-.24.01-.34-.06-.29-.26.7-4.36.81-8.98.86-13.43l.03-9.55c.01-4.15-.53-9.54-1.58-12.73h0Zm-20.49-1.05c-12.74.37-19.64,8-19.72,19.62-.07,11.72,6.45,18.92,18.84,18.61,11.82-.29,18.98-7.8,19.3-20.08.26-9.68-5.84-18.52-18.43-18.15h0Zm-1.2,4.27c7.6-.25,8.97,8.4,9.1,14.62.14,6.72-.81,15.1-8.64,15.17-7.04.06-8.53-8.51-8.55-15.26-.01-4.66.42-14.27,8.09-14.52h0Zm-40.31-9.75c-.1.04-.07.11-.04.21.21,2.12.29,4.25.31,6.35,0,.09-.03.25-.17.24-1.39-.05-2.72.01-4.11-.19-.12,0-.25.05-.28.16l-1.32,4.72c-.14.64.1.84.71.71,1.54-.23,3.16-.36,4.57-.37.28-.04.34.15.34.37l.05,20.02c-.05,8.52,4.39,11.59,10.2,11.49,2.89-.05,5.86-.65,8.66-1.47.16-.05.24-.1.31-.25l1.4-4.84c.28-.82-.43-1.25-.99-.91-1.08.63-2.76,1.37-4.49,1.37-4.41,0-5.62-3.11-5.64-8.21v-12.55c.01-1.52.15-4.28.2-4.78,0-.12.1-.19.27-.19,3.14.05,6.35-.07,9.48.33.1.01.17-.06.2-.14l1.36-4.98c.19-.55.08-1.05-.77-.83-1.14.27-2.37.5-3.56.49l-6.8.05c-.1,0-.13-.11-.13-.2,0-3.18.28-6.61.62-9.85.1-1.03-.42-1.26-1.33-.74-2.58,1.52-5.91,3.01-9.06,3.98h0Zm-32.77,6.62c-.18,0-.23.11-.2.24.86,2.45,1.63,8.17,1.55,12.25l-.05,12.22c-.29,3.63-.14,7.78-.83,11.01-.02.12.01.2.17.19,3.78-.24,7.63-.19,11.53-.05.09,0,.25,0,.18-.18-1.16-3.12-1.5-7.06-1.56-11.01l.05-7.31c0-5.9,3.08-9.63,6.48-9.56,1.67.04,2.39,1.02,3.42,2.24.34.41.98.38,1.13-.06l2.82-10.11c.09-.21-.01-.28-.27-.44-.7-.41-1.93-.57-3.15-.57-5.24.02-8.22,4.89-11.44,9.28.05-2.75.1-5.49.15-8.24-.11-.07-.21-.14-.32-.21-3.22.15-6.41.24-9.65.29h0Zm-25.11,17.21c-.1,0-.16.02-.17.1.13,7.58,4.39,13.59,12.52,13.56,2.78-.01,5.19-.7,7.65-2.46.55-.38,1.35-.13,1.1.91l-1.53,5.52c-.03.09-.13.16-.23.2-3.62,1.13-7.81,2.1-11.33,2.12-10.21.09-18.78-7.13-18.36-19.3.42-12.3,7.82-18.89,17.79-18.89,7.14,0,14.46,3.71,14.52,14.11,0,1.28.02,3.1-.71,3.76-.14.14-.33.15-.55.15l-20.71.23h0Zm-.15-4.56c.19-4.53,1.49-9.31,6.89-9.35,3.46.08,5.76,2.42,5.77,5.54,0,5.25-5.37,3.22-12.66,3.81h0Zm-45.48-12.95c-.07,0-.11.09-.05.13,2.33,2.66,3.7,5.75,4.81,8.71,2.36,7.06,4.72,14.12,7.08,21.19.63,1.99,1.2,4.06,1.42,5.96,0,.15.1.23.24.22,2.72-.2,5.65-.2,8.43-.16.09,0,.22-.03.23-.13.43-2.05.91-3.92,1.67-5.93l8.74-20.35c1.35-3.12,3.18-6.41,5.1-9.05.54-.61.6-1.19-.69-1.03-2.99.23-5.95.4-8.89.28-.24-.01-.32.08-.3.22.22,3.91-.81,7.64-2.18,11.19l-5.65,14.94-5.51-18.84c-.6-2.48-.97-4.92-1.33-7.54-.02-.12-.02-.28-.26-.26-4.2.4-8.55.49-12.86.45h0Z"/>
      <path class="cls-2" d="m196.57,330.88c-.14,0-.27.05-.31.23-.13.73-.41,1.41-.76,2.1-.12.22.14.39.34.32,1.12-.42,4.09-1.21,4.88-1.17.99.05,1.58.37,1.56,3.3l-.04,15.05c-.11,2.06-.12,4.19-.47,5.94,0,.07.02.12.12.11,1.46-.1,2.83-.14,4.29-.02.06.01.12-.02.09-.11-.42-1.61-.68-3.53-.75-5.92v-14.98c.19-2.13.17-4.27.5-6.39.05-.28-.23-.43-.54-.36-2.06.67-7.61,1.92-8.91,1.9h0Zm53.44,4.33c.03-3.57,3.12-6.86,8-6.94,4.28-.07,7.35,3.08,7.29,6.5-.06,3.59-3.34,5.82-5.27,6.68,3.59,1.88,6.13,4.23,6.17,7.94.04,4.03-3.4,8.13-9.39,8-4.48-.09-8.22-2.62-8.2-7.26.02-3.46,2.53-5.97,6.3-7.93-2.69-1.6-4.92-3.25-4.89-7h0Zm6.95,8.14c2.86,1.47,5.89,3.32,5.85,6.74-.03,2.93-2.61,5.29-5.74,5.25-2.29-.03-5.43-1.6-5.36-5.42.07-3.83,2.99-5.38,5.24-6.57h0Zm1.17-2.98c2.76-1.45,4.3-3.32,4.3-5.35,0-2.57-1.57-4.86-4.7-4.82-2.29.03-4.53,1.85-4.42,4.48.11,2.63,2.54,4.25,4.82,5.69h0Zm-46.58-5.16c.03-3.57,3.12-6.86,8-6.94,4.28-.07,7.35,3.08,7.29,6.5-.06,3.59-3.34,5.82-5.27,6.68,3.59,1.88,6.13,4.23,6.17,7.94.04,4.03-3.4,8.13-9.39,8-4.48-.09-8.22-2.62-8.2-7.26.02-3.46,2.53-5.97,6.3-7.93-2.69-1.6-4.92-3.25-4.89-7h0Zm6.95,8.14c2.86,1.47,5.89,3.32,5.85,6.74-.03,2.93-2.61,5.29-5.74,5.25-2.29-.03-5.43-1.6-5.36-5.42.07-3.83,2.99-5.38,5.24-6.57h0Zm1.17-2.98c2.76-1.45,4.3-3.32,4.3-5.35,0-2.57-1.57-4.86-4.7-4.82-2.29.03-4.53,1.85-4.42,4.48.11,2.63,2.54,4.25,4.81,5.69h0Zm11.78-10.76c-.1.02-.13.13-.13.21-.2,1.36-.5,2.69-.94,4.01-.03.11.01.13.06.16l.22.11c.09.04.23-.04.33-.13,1.3-.85,2.67-1.05,3.94-1.08l9.79.02-14.14,23.84c-.09.13-.14.26-.1.37l.14.26c.05.1.17.15.31.13,1.54-.2,3.21-.11,4.81-.12.17.03.22-.05.19-.24.41-6.51,9.18-21.21,12.33-24.81.09-.1.08-.24.04-.36-.2-.71-.31-1.42-.39-2.15-.02-.15-.08-.29-.32-.28-5.32.18-10.6.15-15.92.08-.08,0-.17-.03-.25-.02h0Z"/>
      <path class="cls-2" d="m41.73,333.64l18.39-11.49-2.14-3.42-11.92,7.45,7.58-14.41-3.02-4.83-18.39,11.49,2.14,3.42,14.13-8.83-9.12,16.83,2.36,3.78h0Zm11.97,16.56l2.54-1.85-1.99-2.74,12.46-9.05,1.99,2.74,2.54-1.85-6.61-9.1-2.54,1.85,1.99,2.74-12.46,9.05-1.99-2.74-2.54,1.85,6.61,9.1h0Zm15.13,17.36l2.61-2.35-6.4-7.11,13.51-12.16-3-3.33-16.12,14.51,9.4,10.44h0Zm35.42,9.57l2.87-3.43c-.49-.96-1.12-1.87-1.77-2.73-.81-1.05-1.73-2-2.75-2.85-1.75-1.47-3.8-2.56-6.12-2.65-1.98-.08-3.66.59-4.94,2.12-.84,1.01-1.46,2.17-1.55,3.5-.1,1.43.5,2.88,1.21,4.09.42.71.89,1.39,1.4,2.03.53.66,1.04,1.34,1.54,2.04.4.56.76,1.22.84,1.91.07.62-.07,1.2-.48,1.68-.35.42-.8.76-1.37.82-.46.05-.92,0-1.37-.14-.46-.13-.9-.39-1.3-.65-.37-.24-.74-.5-1.07-.78-1.07-.9-1.93-2.02-2.62-3.24-.71-1.27-1.19-2.62-1.43-4.05l-3.02,3.6c.51,1.03,1.11,2.01,1.78,2.95.85,1.18,1.93,2.24,3.04,3.17,1.83,1.53,4.01,2.77,6.45,2.82,2.09.04,3.79-.73,5.13-2.33.81-.96,1.42-2.1,1.47-3.38.05-1.34-.47-2.66-1.14-3.79-.39-.66-.81-1.31-1.27-1.92-.45-.6-.9-1.19-1.35-1.78-.48-.63-1.15-1.57-1.32-2.35-.15-.67.05-1.29.49-1.82.32-.38.74-.62,1.23-.7.45-.08.91-.05,1.35.08.46.14.9.32,1.31.58.4.24.77.51,1.13.81,1.02.86,1.84,1.89,2.46,3.07.55,1.04.98,2.16,1.19,3.32h0Zm12.52,27.28l5.27-22.28-4.68-2.93-17.72,14.5,3.79,2.37,3.63-3.11,7.02,4.39-1.2,4.62,3.9,2.44h0Zm-1.83-10.39l-5.29-3.31,7.9-6.76-2.61,10.07h0Zm30.42,4.52l1.54-3.15-15.62-7.62-1.54,3.15,5.8,2.83-7.97,16.34,4.02,1.96,7.97-16.34,5.8,2.83h0Zm9.04,22.68l1.13-2.93-3.16-1.21,5.52-14.38,3.16,1.21,1.13-2.93-10.5-4.03-1.13,2.93,3.16,1.21-5.52,14.38-3.16-1.21-1.13,2.93,10.5,4.03h0Zm27.39-9.05l1.16-4.32c-.85-.66-1.8-1.23-2.76-1.72-1.18-.61-2.42-1.08-3.7-1.42-2.2-.59-4.53-.71-6.67.18-1.85.77-3.06,2.07-3.58,4.01-.34,1.27-.41,2.59.07,3.83.51,1.34,1.67,2.4,2.82,3.19.68.47,1.39.88,2.13,1.25.76.38,1.51.78,2.25,1.2.6.34,1.2.79,1.57,1.37.33.53.44,1.11.28,1.72-.14.53-.41,1.03-.89,1.32-.4.24-.84.38-1.3.45-.47.07-.98.03-1.45-.04-.43-.06-.88-.14-1.3-.25-1.36-.36-2.6-1.01-3.74-1.83-1.18-.85-2.19-1.87-3.01-3.07l-1.22,4.54c.9.72,1.86,1.35,2.86,1.92,1.27.72,2.69,1.22,4.1,1.59,2.3.62,4.81.81,7.04-.17,1.91-.84,3.12-2.26,3.66-4.28.32-1.21.4-2.5-.09-3.68-.52-1.23-1.55-2.21-2.64-2.95-.63-.43-1.29-.84-1.96-1.2-.66-.35-1.32-.7-1.98-1.04-.7-.37-1.7-.94-2.19-1.57-.42-.55-.5-1.19-.32-1.85.13-.48.41-.87.82-1.16.38-.26.8-.43,1.26-.49.47-.07.96-.09,1.43-.03.46.05.92.14,1.37.26,1.29.34,2.47.93,3.53,1.74.94.71,1.8,1.54,2.48,2.51h0Zm32.93,21.72l3.02-21.48-3.99-.56-1.96,13.92-6.17-15.06-5.64-.79-3.02,21.47,3.99.56,2.32-16.49,7.03,17.81,4.42.62h0Zm20.28.72l.05-3.14-3.39-.06.27-15.4,3.38.06.05-3.14-11.25-.2-.05,3.14,3.38.06-.27,15.4-3.39-.06-.05,3.14,11.25.2h0Zm22.23-18.58l-.47-4.45c-1.03-.31-2.12-.5-3.19-.62-1.32-.15-2.64-.14-3.96,0-2.27.24-4.48.96-6.16,2.56-1.45,1.38-2.12,3.03-1.91,5.03.14,1.31.55,2.56,1.44,3.55.96,1.07,2.42,1.64,3.78,1.97.8.19,1.61.33,2.43.4.85.08,1.69.18,2.53.31.68.1,1.4.3,1.96.72.5.38.81.88.87,1.51.06.54,0,1.11-.36,1.55-.29.37-.65.66-1.05.89-.41.24-.91.38-1.37.48-.43.1-.87.18-1.31.23-1.39.15-2.8-.01-4.15-.37-1.41-.37-2.71-.96-3.91-1.78l.49,4.68c1.09.35,2.22.6,3.36.77,1.44.21,2.95.17,4.39.02,2.37-.25,4.78-.96,6.51-2.68,1.48-1.47,2.11-3.23,1.89-5.3-.13-1.25-.52-2.48-1.41-3.4-.93-.97-2.24-1.51-3.52-1.81-.75-.18-1.5-.32-2.26-.42-.74-.09-1.48-.18-2.22-.26-.78-.09-1.92-.27-2.61-.68-.59-.36-.9-.93-.97-1.62-.05-.5.07-.96.35-1.37.26-.38.59-.69.99-.91.42-.23.86-.42,1.33-.54.45-.12.91-.2,1.37-.25,1.33-.14,2.64-.01,3.92.36,1.13.33,2.23.79,3.21,1.45h0Zm20.91,13.01l-.6-3.08-3.32.65-2.94-15.12,3.32-.65-.6-3.09-11.04,2.15.6,3.09,3.32-.65,2.94,15.12-3.32.65.6,3.08,11.04-2.15h0Zm33.67-21.14c-.98-2.85-2.59-5.46-5.29-6.96-2.57-1.42-5.33-1.35-8.07-.41-2.74.94-4.96,2.58-6.11,5.29-1.2,2.84-.85,5.89.13,8.74.98,2.84,2.58,5.44,5.27,6.94,2.57,1.44,5.34,1.37,8.07.42,2.75-.95,4.97-2.59,6.11-5.31,1.19-2.84.86-5.87-.12-8.71h0Zm-4.01,7.69c-.25.75-.64,1.42-1.21,1.97-.54.52-1.16.9-1.86,1.14-.7.24-1.43.33-2.17.26-.78-.07-1.5-.36-2.16-.78-.76-.5-1.39-1.19-1.92-1.93-.69-.96-1.19-2.1-1.57-3.22-.39-1.13-.68-2.33-.74-3.53-.04-.91.02-1.89.33-2.75.27-.73.67-1.4,1.24-1.93.53-.49,1.14-.85,1.83-1.08.69-.24,1.4-.33,2.13-.26.78.07,1.51.36,2.16.78.76.49,1.4,1.19,1.92,1.92.7.97,1.2,2.11,1.59,3.23.37,1.07.66,2.21.74,3.35.07.96-.02,1.92-.32,2.83h0Zm6.54-20.41l9.17,19.65,4.06-1.89-3.1-6.65,3.39-1.58c1.09-.51,2.2-1.19,2.99-2.11.72-.83,1.23-1.79,1.57-2.84.27-.85.31-1.74.21-2.62-.11-.96-.37-1.88-.77-2.75-.45-.97-1.06-1.92-1.9-2.61-.73-.61-1.56-1-2.5-1.17-.83-.15-1.66-.14-2.49,0-1.05.18-2.1.59-3.06,1.04l-7.56,3.53h0Zm13.34,1.31c.25.54.46,1.13.53,1.72.06.54-.01,1.07-.21,1.57-.24.6-.66,1.08-1.17,1.47-.61.46-1.34.83-2.03,1.15l-1.77.82-3.21-6.89,1.21-.57c.64-.3,1.29-.59,1.94-.87.57-.24,1.18-.34,1.79-.35.58-.01,1.13.17,1.63.47.59.35,1,.87,1.29,1.48h0Zm21.41-16.03l-1.86-2.97-14.74,9.21,1.86,2.97,5.47-3.42,9.63,15.42,3.8-2.37-9.63-15.42,5.47-3.42h0Zm24.21,4.54l-1.94-2.48-2.67,2.08-9.48-12.13,2.67-2.08-1.94-2.48-8.86,6.92,1.94,2.48,2.67-2.08,9.48,12.13-2.67,2.08,1.94,2.48,8.86-6.92h0Zm21.86-20.09l-15.06-15.6-3.94,3.81,4.8,12.05-11.88-5.2-3.94,3.8,15.06,15.6,3-2.9-11.75-12.17,11.35,5.2,2.23-2.15-4.81-11.52,11.75,12.17,3.2-3.09h0Zm.23-34.43l-2.77,3.55,10.74,8.39c1,.78,2.1,1.87,2.38,3.16.26,1.23-.26,2.38-1.01,3.33-.76.97-1.76,1.76-3.05,1.76-1.3,0-2.58-.76-3.57-1.53l-10.74-8.39-2.77,3.55,11.01,8.6c1.77,1.38,3.86,2.34,6.14,2.01,2.38-.35,4.28-2.05,5.71-3.88,1.43-1.83,2.62-4.08,2.38-6.48-.23-2.31-1.67-4.1-3.45-5.48l-11-8.59h0Zm34.01-11.93l-18.39-11.49-2.9,4.65,7.57,10.53-12.79-2.17-2.9,4.64,18.39,11.49,2.21-3.54-14.35-8.97,12.27,2.3,1.64-2.62-7.45-10.02,14.35,8.97,2.36-3.77h0Z"/>
    </g>
  </g>
</svg>