<?xml version="1.0" encoding="UTF-8"?>
<svg id="Layer_2" data-name="Layer 2" xmlns="http://www.w3.org/2000/svg" viewBox="0 0 422.19 425.2">
  <defs>
    <style>
      .cls-1 {
        fill: #131d17;
      }

      .cls-1, .cls-2, .cls-3, .cls-4, .cls-5, .cls-6 {
        fill-rule: evenodd;
      }

      .cls-1, .cls-2, .cls-3, .cls-4, .cls-5, .cls-6, .cls-7, .cls-8, .cls-9 {
        stroke-width: 0px;
      }

      .cls-2 {
        fill: #141d18;
      }

      .cls-3 {
        fill: #d0043b;
      }

      .cls-4, .cls-9 {
        fill: #ffd800;
      }

      .cls-5, .cls-8 {
        fill: #fff;
      }

      .cls-6, .cls-7 {
        fill: #f2be25;
      }
    </style>
  </defs>
  <g id="Layer_1-2" data-name="Layer 1">
    <g>
      <path class="cls-2" d="m410.04,45.94c-.15,15.44-1.16,30.96-2.71,46.31-1.94,19.31-4.78,38.57-8.46,57.62-8.44,43.66-21.53,87.52-40.86,127.64-2.34,4.86-4.78,9.68-7.32,14.44h64.37l7.12,36.52-7.12,35.27h-115.04c-18.71,19.91-38.13,35.67-61.35,49.02-8.04,4.62-16.68,8.64-24.69,12.43-8.6-3.8-16.76-7.68-24.8-12.35-22.68-13.16-43.02-29.8-60.9-49.09H0l7.43-35.53-7.43-36.27h76.88c-16.39-30.44-28.65-64.39-37.62-97.23-13.16-48.21-20.37-98.59-21.91-148.52l-.12-3.77,3.46-1.5C81.54,14.57,147.5.04,213.89,0c65.82-.04,133.22,12.74,192.96,40.86l3.22,1.52-.04,3.56Z"/>
      <path class="cls-5" d="m22.89,46.04C85.07,19.09,150.35,5.59,213.89,5.55c63.54-.04,130.55,12.07,190.6,40.33-.54,55.84-14.06,165.06-63.2,251.62h69.2l6.04,30.95-6.01,29.74h-112.9c-24.95,26.97-50.21,45.52-83.68,61.12-32.2-14.47-59.96-35.58-83.22-61.12H6.83l6.27-29.96-6.3-30.73h79.53C53.12,239.78,26.05,148.44,22.89,46.04h0Z"/>
      <path class="cls-3" d="m398.38,51.7c-58.72-28.66-121.36-40.51-184.35-40.47-63.61.04-127.22,12.31-184.94,40.96,1.04,40.4,5.65,78.56,14.49,116.96,7.98,34.64,18.71,69.26,33.68,101.54,5.33,11.49,11.36,22.88,18.28,34.04,9.9,16.24,19.14,28.24,31.43,42.74,19.86,23.6,47.44,46.95,86.81,64.98,36.07-16.31,63.02-36.78,89.29-67.37,10.4-12.1,20.29-26.68,28.63-40.25,6.38-10.39,11.73-21.14,17.02-32.12,18.9-39.25,31-82.22,39.26-124.93,6.14-31.8,9.55-63.7,10.41-96.07h0Z"/>
      <path class="cls-1" d="m213.72,412.42V11.23c-63.51.08-127,12.35-184.64,40.96,1.04,40.4,5.65,78.56,14.49,116.96,7.98,34.64,18.71,69.26,33.68,101.54,5.33,11.49,11.36,22.88,18.28,34.04,9.9,16.24,19.14,28.24,31.43,42.74,19.85,23.59,47.41,46.93,86.75,64.95h0Z"/>
      <path class="cls-3" d="m12.76,301.21l5.3,27.04-5.25,26.25h392.81l5.03-26.05-5.09-27.23H12.76Z"/>
      <path class="cls-1" d="m213.72,354.5h191.9l5.03-26.05-5.09-27.23h-191.85v53.29Z"/>
      <path class="cls-2" d="m239.75,232.41c.76,1.51,1.79,2.99,2.91,4.31,7.41-1.72,15.04-3.82,22.57-6.2-2.35-2.41-5.77-4.2-8.5-5.29-2.23-.88-6.32-2.02-9.2-1.52.2.63.3,1.3.3,1.99,0,3.77-3.06,6.83-6.83,6.83-.42,0-.84-.04-1.24-.11h0Zm-49.72,0c-.76,1.51-1.79,2.99-2.91,4.31-7.41-1.72-15.4-3.46-22.93-5.84,2.35-2.41,6.13-4.56,8.86-5.65,2.23-.88,6.32-2.02,9.2-1.52-.19.63-.29,1.3-.29,1.99,0,3.77,3.06,6.83,6.83,6.83.42,0,.84-.04,1.24-.11h0Zm-65.14,31.46c2.3,1.28,5.07,1.49,7.54,1.27-.93-1.14-1.65-3.02-1.88-4.83-1.64,1.32-3.62,2.6-5.66,3.56h0Zm22.21-.59c6.4-.39,11.76.23,18.65,1.29,2.09.32,5.93.77,8.82,1.68,2.89.91,4.85,2.3,4.87,5.37,0,1.52-.68,2.93-1.95,3.82-3.66,2.56-11,4.36-16.69,5.4-2.04.38-2.96.73-4.96.34-5.11-1.01-6.12-7.2-1.81-9.02,2.26-.95,6.21-2.45,7.29.32l-3.43.61c-1.24,2.76,2.23,6.1,3.97,5.77,1.42-.56,2.18-4.65.57-7.17-1.25-1.96-4.18-2.44-5.66-2.68-2.78-.46-8.21-.28-12.15.44-6.15,1.12-8.52,3.44-14.41,2.72-4.52-.56-9.32-2.91-11.84-5.82-.18.02-.35.04-.53.07-9.1,1.06-20.1.7-25.15-8.72,6.98,3.79,15.7,2.65,18.91,1.17-5.51.25-11.89-.09-16.92-3.07-4.73-2.81-9.14-6.84-9.66-13.34,5.62,3.3,12.24,6.05,19.39,4.57-8.63-1.19-14.33-7.85-12.32-19.61,1.36,3.46,2.5,5.38,4.44,7.5,5.01,5.49,12.15,6.95,18.57,6.27,3.6-.38,6.34-1.54,9.91-2.79,4.79-4.12,16.71-9.34,29.92-9.49,3.38-3.95,8.3-6.63,13.19-8.49.57-.22.12-1.44,1.18-1.94,1.1-.51,1.39.96,1.71.85l5.68-1.96c6.8-1.92,16.92-3.19,21.39,3.23,3.29,4.73,1.31,10.63-1.12,15.25-.48.9-.98,1.79-1.52,2.66,5.24,1.3,8.93,2.34,13.24,2.73,1.73.16,3.69.33,5.43.19,6.19-.49,13.04-1.5,20.23-2.92-.53-.87-1.04-1.76-1.52-2.66-2.43-4.62-4.41-10.53-1.12-15.25,4.46-6.42,14.59-5.15,21.39-3.23l.13-1.28,5.56,3.24c5.6,1.8,12.09,4.9,16.09,9.58,14.34.16,27.15,6.29,30.98,10.51,4.97,1.59,8.09,2.22,13.85,1.29,2.2-.36,4.88-1.3,6.76-2.46,1.82-1.12,3.32-2.44,4.64-3.89,1.94-2.12,3.29-3.9,4.66-7.36.57,3.3.84,7.5-.37,10.95-1.75,5-5.84,7.68-11.02,9.09,7.15,1.48,13.19-2.14,18.81-5.44-.52,6.5-4.5,10.53-9.22,13.34-5.03,2.99-10.98,4.05-16.49,3.8,7.25,1.91,11.49,1.89,18.48-1.9-5.05,9.42-14.9,10.65-24,9.59-.18-.02-.36-.04-.53-.07-2.53,2.91-7.33,5.26-11.84,5.82-5.89.72-10.72-1.66-16.87-2.78-3.94-.72-9.37-.9-12.15-.44-1.48.24-4.41.72-5.66,2.68-1.61,2.52-.85,6.6.57,7.17,1.74.32,5.21-3.02,3.97-5.78l-3.43-.61c1.08-2.77,5.03-1.28,7.29-.32,4.32,1.82,3.3,8.02-1.8,9.02-2,.39-2.93.03-4.96-.34-5.69-1.04-13.03-2.84-16.69-5.4-1.27-.89-1.96-2.31-1.94-3.82.02-3.06,1.98-4.45,4.87-5.37,2.89-.92,6.73-1.36,8.82-1.68,6.88-1.06,14.7-1.62,21.1-1.23-.65-1.13-.94-2.4-1.06-4.07.88.67,2.34,1.03,3.96,1.18,2.22.21,3.6-1.62,3.09-3.74-.54-2.21-3.2-4.28-4.75-5.2l-1.58-.93c-6.23.74-11.99,2.24-17.71,3.98.82.73,1.6,1.48,2.35,2.25,1.4,1.44.62,3.82-1.28,4.78-1.29.71-3.93.79-5.36.47l-11.16-2.67c-2.21.64-4.46,1.26-6.8,1.81-9.29,2.23-16.94,4.06-27.23,5.09-1.61.16-2.83.26-4.38.18-9.66-.48-14.04-3.05-23.36-5.28-2.33-.55-6.89-1.17-9.1-1.81l-11.16,2.67c-1.43.32-4.07.25-5.37-.47-1.89-.96-2.68-3.34-1.28-4.78.75-.77,1.53-1.52,2.35-2.25-5.72-1.74-9.16-3.24-15.39-3.98l-1.58.93c-1.55.92-4.21,2.99-4.75,5.2-.51,2.11.87,3.94,3.09,3.74,1.62-.15,3.08-.51,3.96-1.18-.12,1.67-.42,2.94-1.06,4.07h0Zm155.33.3c-2.3,1.28-5.06,1.49-7.54,1.27.93-1.14,1.66-3.02,1.88-4.83,1.64,1.32,3.62,2.6,5.66,3.56h0Z"/>
      <path class="cls-5" d="m266.44,230.13c-2.12-2.36-5.38-4.43-9.29-5.98-3.44-1.36-7.31-2.07-10.06-1.53-.84-1.68-2.36-2.96-4.2-3.49l-.29,1c2.41.7,4.18,2.92,4.18,5.56,0,3.2-2.59,5.79-5.79,5.79s-5.65-2.46-5.78-5.54l-1.04.02c.1,2.7,1.77,4.99,4.11,6,.73,1.7,1.8,3.43,3.11,5.04-1.96.45-3.91.87-5.84,1.26-3.33-5.4-6.34-12.06-2.9-17.01,3.75-5.39,12.68-5.13,21.45-2.38l.09-.88,4.11,2.4c7.04,2.23,11.96,5.34,15,8.52-1.25.02-2.5.09-3.76.21-1.03.34-2.07.68-3.1,1.01h0Zm-3.46,24.89c1.05.95,2.05,1.89,2.96,2.84.65.67.46,1.84-.79,2.53-.97.54-3.18.57-4.41.29l-8.97-2.1c3.82-1.17,7.52-2.4,11.21-3.55h0Z"/>
      <path class="cls-5" d="m284.62,250.19c4.09,2.18,5.45,4.85,5.68,6.52.3,2.16-.84,4.8-3.52,5.21-.93.14-2.08.09-3.53-.41,1.93,4.12,5.61,4.83,7.61,4.57,2.12-.29,5.05-2.23,4.95-8.47,7.81,8.9,27.29,10.22,35.51,3.04-11.2,2.9-18.81-.91-25.19-5.35l1.01-1.44c2.4,1.69,5.11,2.57,7.88,3,1.26-8.1-4.17-13.44-11.59-16.62l-.23-.1c-7.55,1.93-12.57,4.88-18.58,10.04h0Zm32.01,6.88c1.27.12,2.54.16,3.79.16,6.61-.04,17.9-4.27,20.58-12.38-7.18,4.19-15.1,5.53-22.3,1.52,8.13.04,16.3-4.83,16.31-14.44-4.48,6.82-11.11,9.7-14.66,10.28-4.14.67-7.02.58-10.54-.24,4.89,3.56,7.83,8.55,6.82,15.1h0Z"/>
      <path class="cls-5" d="m272.45,272.13c2.48.89,3.29,2.55,3.19,4.12-.15,2.5-2.11,4.26-4.47,4.59-1.69.24-3.63.04-5.05-1.27-.22-.2-.3-.63.35-.43,3.34,1.04,5.48,0,6.48-1.49.92-1.37,1.19-3.62-.69-5.29-.2-.18-.05-.32.19-.24h0Z"/>
      <path class="cls-5" d="m163.09,230.63c2.13-2.36,5.64-4.94,9.54-6.49,3.44-1.36,7.31-2.07,10.06-1.53.84-1.68,2.36-2.96,4.2-3.49l.29,1c-2.41.7-4.18,2.92-4.18,5.56,0,3.2,2.59,5.79,5.79,5.79s5.65-2.46,5.78-5.54l1.04.02c-.1,2.7-1.77,4.99-4.11,6-.73,1.7-1.8,3.72-3.11,5.33,1.97.45,3.91.87,5.84,1.26,3.33-5.4,6.34-12.35,2.89-17.3-3.34-4.8-10.79-5.12-18.57-3.19-2.78.69-5.62,1.84-8.31,2.85l-.22-.71-.8.03-.11,1.12c-6.22,2.14-9.75,4.72-12.59,7.7,1.25.02,1.31-.02,2.57.1,1.03.34,2.97,1.15,4,1.48h0Zm1.63,24.38c-1.06.95-2.05,1.89-2.95,2.84-.65.67-.46,1.84.79,2.53.97.54,3.18.57,4.41.29l8.97-2.1c-3.82-1.17-7.52-2.4-11.22-3.55h0Z"/>
      <path class="cls-5" d="m142.85,250.19c-4.09,2.18-5.23,4.63-5.46,6.31-.25,1.75.47,4.02,2.06,4.98,1.39.85,3.55.61,4.99.11-1.93,4.12-5.61,4.76-7.61,4.5-2.13-.29-5.12-2.16-5.03-8.39-7.82,8.89-27,10.14-35.23,2.96,11.2,2.9,18.38-.91,24.76-5.35l-1.01-1.44c-2.41,1.69-4.54,2.57-7.3,3-1.3-8.33,3.31-14.24,11.03-16.71,8.77,2.23,12.78,4.88,18.79,10.04h0Zm-31.43,6.95c-1.27.12-3.12.09-4.36.08-6.61-.04-17.68-4.27-20.36-12.38,7.18,4.19,14.88,5.53,22.09,1.52-8.13.04-15.79-4.47-15.8-14.08,4.48,6.82,11.11,9.34,14.66,9.92,4.14.67,5.72.65,9.23-.16-4.82,3.92-6.45,8.56-5.45,15.1h0Z"/>
      <path class="cls-5" d="m155.26,272.13c-2.48.89-3.28,2.55-3.19,4.12.15,2.5,2.11,4.26,4.47,4.59,1.69.24,3.63.04,5.05-1.27.22-.2.3-.63-.35-.43-3.34,1.04-5.48,0-6.48-1.49-.92-1.37-1.19-3.62.7-5.29.2-.18.05-.32-.19-.24h0Z"/>
      <path class="cls-2" d="m178.16,123.53h71v53.61c-3.72,13.86-17.33,25.6-35.2,31.76-16.64-4.34-27.48-14.58-35.8-33.84v-51.53Z"/>
      <path class="cls-3" d="m213.72,207.16v-82.01h-33.94v49.58c7.08,16.27,16.56,27.68,33.94,32.44h0Z"/>
      <path class="cls-2" d="m201.78,176.2c.07.16.11.34.11.54v8.54c0,.59-.37,1.07-.82,1.07h-13.57c-.45,0-.82-.48-.82-1.07v-8.54c0-.59.37-1.07.82-1.07h.88v-22.1h-.95c-.42,0-.76-.35-.76-.77v-6.19c0-.43.34-.77.76-.77h12.48c.41,0,.76.35.76.77v3.39l6.63-10.29v-1.95h-.95c-.42,0-.76-.35-.76-.77v-6.2c0-.43.34-.77.76-.77h12.48c.41,0,.76.35.76.77v6.2c0,.43-.34.77-.76.77h-.62v1.69l6.88,10.33v-3.4c0-.42.34-.77.76-.77h12.48c.42,0,.76.35.76.77v6.19c0,.43-.34.77-.76.77h-.62v22.11h1.78c.45,0,.82.48.82,1.07v8.53c0,.59-.37,1.07-.82,1.07h-13.57c-.45,0-.82-.48-.82-1.07v-7.6l-12.5-8.08-10.79,6.84Z"/>
      <rect class="cls-9" x="188.18" y="177.17" width="12.21" height="7.66"/>
      <path class="cls-4" d="m197.79,153.56v2.1h-7.9v-2.1h7.9Zm-4.77,18.06v-2.14c0-.94,1.52-.94,1.52,0v2.14c0,.35-.24.76-.76.76s-.76-.44-.76-.76h0Zm-1.42-11.91h1.42v-2.54h-3.14v8.98h1.67c.42,0,.76.34.76.76h0c0,.41-.34.76-.76.76h-1.67v4.03h1.67c.42,0,.76.34.76.76s-.34.76-.76.76h-1.67v2.45h7.9v-2.45h-1.89c-.42,0-.76-.34-.76-.76s.34-.76.76-.76h1.89v-4.03h-1.89c-.42,0-.76-.34-.76-.76h0c0-.42.34-.76.76-.76h1.89v-8.98h-3.25v2.54h1.28c.42,0,.76.34.76.76s-.34.76-.76.76h-1.28v5.07c0,.35-.24.76-.76.76s-.76-.44-.76-.76v-5.07h-1.42c-.42,0-.76-.34-.76-.76s.34-.76.76-.76h0Z"/>
      <path class="cls-4" d="m188.18,147.32h2.7v4.73h-2.7v-4.73Zm4.21,0h2.75v4.73h-2.75v-4.73Zm4.25,0h2.53v4.73h-2.53v-4.73Z"/>
      <path class="cls-4" d="m216.7,137.74v2.11h-7.9v-2.11h7.9Zm-4.76,17.27v-1.36c0-.94,1.52-.93,1.52,0v1.36h3.25v-3.16h-1.89c-.42,0-.76-.34-.76-.76s.34-.76.76-.76h1.89v-8.98h-3.25v2.54h1.28c.42,0,.76.34.76.76s-.34.76-.76.76h-1.28v5.07c0,.35-.23.76-.76.76s-.76-.44-.76-.76v-5.07h-1.42c-.42,0-.76-.34-.76-.76s.34-.76.76-.76h1.42v-2.54h-3.13v8.98h1.67c.42,0,.76.34.76.76s-.34.76-.76.76h-1.67v3.16h3.13Z"/>
      <path class="cls-4" d="m207.09,131.5h2.7v4.73h-2.7v-4.73Zm4.21,0h2.75v4.73h-2.75v-4.73Zm4.25,0h2.52v4.73h-2.52v-4.73Z"/>
      <rect class="cls-9" x="226.59" y="176.94" width="12.21" height="7.66"/>
      <path class="cls-4" d="m236.19,153.33v2.11h-7.9v-2.11h7.9Zm-4.76,18.06v-2.15c0-.94,1.52-.93,1.52,0v2.15c0,.35-.23.76-.76.76s-.76-.44-.76-.76h0Zm-1.42-11.91h1.42v-2.54h-3.13v8.98h1.67c.42,0,.76.34.76.76s-.34.76-.76.76h-1.67v4.03h1.67c.42,0,.76.34.76.76s-.34.76-.76.76h-1.67v2.45h7.9v-2.45h-1.89c-.42,0-.76-.34-.76-.76s.34-.76.76-.76h1.89v-4.03h-1.89c-.42,0-.76-.34-.76-.76s.34-.76.76-.76h1.89v-8.98h-3.25v2.54h1.28c.42,0,.76.34.76.76s-.34.76-.76.76h-1.28v5.07c0,.35-.23.76-.76.76s-.76-.44-.76-.76v-5.07h-1.42c-.42,0-.76-.34-.76-.76s.34-.76.76-.76h0Z"/>
      <path class="cls-4" d="m226.59,147.09h2.7v4.73h-2.7v-4.73Zm4.21,0h2.75v4.73h-2.75v-4.73Zm4.25,0h2.52v4.73h-2.52v-4.73Z"/>
      <path class="cls-4" d="m207.3,142.4l-6.52,10.12,1.76,1.69,4.76-7.89v-3.92Zm-3.65,12.88l1.97,1.89,1.68-2.87v-5.06l-3.65,6.05Zm-4.29-1.71l-.07.12v4.76l.43.43,2.02-3.34-2.05-1.97h-.33Zm-.07,13.01l.51.5,2.21-3.77-2.72-2.73v6Zm3.5-4.6l2.04-3.47-1.98-1.9-2.04,3.38,1.99,2Zm-1.89,6.21l1.06,1.05,2.16-3.8-1.01-1.02-2.2,3.77Zm3.99-4.11l2.03-3.57-.97-.93-2.06,3.5,1,1Zm-1.82,6.26l2.01,2,3.62-2.3-3.48-3.5-2.15,3.79Zm6.93-1.12l1.88-1.19v-9.7l-3.19,2.13-2.69,4.73,4,4.03Zm-10.18,6.46l3.96-2.51-4.48-4.46v6.97h.52Zm14.18-7.18l2.31,1.49,3.83-4.2-2.6-4.58-4.16-2.91v8.79l.09-.06c.36-.22.83-.11,1.05.24h0c.23.35.12.82-.24,1.05l-.28.18Zm7.2-3.89l.99-1.09-2.05-3.5-1,.96,2.06,3.63Zm2.05-2.25l1.95-2.13-1.97-3.16-1.97,1.89,2,3.41Zm-.84-6.6l-4.2-6.73v4.73l2.27,3.86,1.94-1.86Zm3.84,3.31l.54-.59v-3.42l-.58-.86-1.88,1.8,1.92,3.07Zm-8.04-16.91v4.03l5.31,8.51,1.81-1.78-7.12-10.76Zm-.62,28.66l3.86,2.5,1.86-1.96-2.38-4.19-3.34,3.66Zm5.14,3.32l2.57,1.66c.15-.22.37-.35.61-.35h.89v-5.61l-4.07,4.3Zm4.07-13.43l-2.74,3.01,2.47,4.22.27-.28v-6.94Zm-1.35,8.36l-2.45-4.19-1.01,1.1,2.4,4.21,1.07-1.12Z"/>
      <path class="cls-2" d="m286.57,89.36c.17-.42.21-1.16.14-1.55-.91.18-1.71.67-2.38.69-1.48.05-2.53-.91-3.92-3.52,2.48,1.01,3.07,1,4.33.11-.43-.43-.37-1.04-.54-3.25.37.62,1.18,2.09,1.84,2.41.8.39,1.99.05,2.64-.7-.46-.66-.77-2.11-.86-3.33-.05-.63-.1-1.17.02-1.54.12-.39.39-.42.76-.28.43.17.95.56,1.52.96-.03-.38.05-.77.22-1.06.2-.35.54-.44.91-.3,1.23.48,3.64,3.09,5.52,3.61,4.41-1.13,8.97-1.07,13.19,1.15,3.7.06,7.09,2.75,7.5,4.9,3.23,3.07,7.11,10.16,5.53,16.49-.69,2.79-2.39,5.59-4.27,7.89-.41.5-.77,2.56,1.55,1.29,10.96-11.14,14.2-23.43,12.65-39.08,3.25,4.77,5.22,8.73,5.18,13.93.84-2.86,1.22-7.5,1.14-11.17,2.75,3.23,3.63,7.51,2.94,11.65.47-1.06,1.05-2.75,1.26-4.76.25,1.25,1.37,4.46.54,8.06.51-.42,1.53-2.46,2.18-4.81.29,1.37.41,3.16.25,4.99.46-.64.97-1.32,1.06-1.69.86-3.51,1.14-7.71,1.23-11.27,3.55,4.18,4.74,8.63,4.58,13.14-.11.54-.34,1.4-.37,1.91,2.67-2.79,5.69-5.73,8.25-9.2-1.84,7.82-4.31,12.24-5.45,13.85,2.81-1.97,5.12-4.52,7.48-8.27-.85,3.43-.92,6.85-5.94,13.94,3.35-2.48,6.02-5.08,8.46-8.46-1.42,6.58-1.59,8.53-7.62,16.22,1.31-.71,2.97-1.23,5.03-2.26-2.37,4-3.88,6.11-6.64,8.44,1.05.7,1.82-.06,3.21-1.43l-.1,1.87c-.64,1.33-1.73,2.47-3.21,3.56,1.14.97,2.73-.18,3.6-.93-.41,2.21-1.48,3.68-3.53,4.98,1.22-.25,2.15-.53,3.24-1.1-.49,2.07-1.82,4.35-3.38,5.37.96.21,1.72.15,2.6.01-1,1.86-2.55,3.22-4.6,4.7.91.32,1.84.05,3-.6-.62,3.69-3.65,5.49-6.47,6.71,1.27.51,3.75-.54,4.39-.81-.38,2.42-2.09,3.75-4.35,4.85-3.53,1.71-7.45,2.45-7.52,3.1-.12,1.14,4.58.84,5.22.89-2.17,2-6.83,3.18-10.53,3.57,1.52.78,3.17.56,4.07,1.23-1.49,1.54-2.82,2.59-4.27,3.27-1.75.82-3.18,1.23-6.25.97-.42.99-1.14,2.75-4.68,2.87-.7,1.51-1.4,1.89-3.89,1.45-.96,1.67-2.74,1.88-5.4,1.44-1.14,1.16-2.11,1.71-3.11,2.19l6.75,7.37,3.11-4.28c2.56-1.46,7.26-2.35,10.3-.62,3.93,2.24,5.18,7.28,5.15,11.64-.02,2.98-.98,7.65-2.22,10.37-1.01,2.22-2.24,3.66-3.6,5.62-1.64,2.35-2.4,4.86-2.69,8.32-.25,3.04,1.41,7.56,5.63,8.45-2.89.24-6.4.01-8.81-1.35-4.14-1.98-5.92-5.31-4.97-10.4.52-2.74,1.51-5.6,2.55-8.19,1.02-2.54,2.07-5.04,3.02-7.6.65-1.75,1.46-3.8,1.48-5.68.01-2.86-2.04-4.41-4.28-4.54-2.53-.15-4.13.75-5.43,2.81-.95,1.51-1.61,3.19-1.8,3.75-1.88,5.61-3.87,13.23-5.3,22.48-.27,1.75.99,3.26,3.79,5.19.57.39,1.89.75,2.55.82.94.11.85,1.07.45,1.86-2.2,4.33-3.17,8.77-2.41,13.59.09.55,1.4.74,1.79,1.39.59,1,.12,2.12-.82,3.01l3.07,10.49-9.36.78c.2-.12,2.69-9.46,2.53-10.41-.68-.77-1.33-1.53-1.38-2.12-.07-.75.41-1.66.35-2.19l-4.09-10.91c-.14-.54-.11-1.06-.15-1.63-.1-1.47-.3-1.91-1.31-2.84-4.04-3.73-13.31-14.69-14.13-17.29-.55-1.73-.67-3.38-.68-5.05l-7.42,2.45-6.89-4.26,4.65,15.4c.06.2.36.96-.39,1.29-5.29,2.38-12.47,5.57-18.09,6.24-.64,1.07-1.31,2.01-2.16,2.85-.98.99-2.26,1.46-3.16,1.05l-.88,5.65c-1.21-.61-12.56-4.97-9.12-7,1.58-.93,3.9-1.87,6.08-2.74,1.56-2.46,2.48-3.19,6.7-3.5,1.17-1.07,1.63-.96,3.07-1.05l10.21-5.03-6.75-17c-1.31-3.29-.61-6.54,2.81-8.32,3.07-1.59,6.19-2.52,9.72-3.65-3.75-2.7-7.84-6.55-10.54-9.71-4.16-4.86-8.12-12.26-9.22-19.15-.54.39-1.15,1-1.79,2.06-1.38,2.27-2.49,7.43-3,9.91-.3,1.43-1.8,2.93-1.66,4.09.08.69.33,1.4.33,2.21,0,.66-.16,1.39-.61,1.91l2.27,1.71c.26.19.42.58-.04,1.15l-5.66,6.89c-.43.52-1.29.44-1.33-.35-.2-3.83-.1-7.14.05-9.89.1-1.75.61-2.77,1.17-3.76.02-.53-.21-.89-.32-1.41-.22-1-.29-2.16-.11-3.17.69-3.84,2.42-7.38,3.56-11.32,0-.72-.32-3.35-.24-4.39.09-1.09,1.44-2.11,2.17-2.58.47-1.08,1.71-1.91,2.01-1.97.91-.18,2.48-.35,3.71-.41,1-3.49,2.85-6.46,5.12-9.43-3.57-4.04-6.15-7.36-7.3-10.77-.34-1.53-.25-2.87-1.47-4.98l-2.82.03c-1.01.22-6.39,5.99-7.59,7.53-.02.03.77,1.37.45,2.15-.37.88-1.59,1.71-2.64,1.59l1.3,1.94c.46.69.72,2.48-.42,2.43l-12.4-.46c1.63-2.05,2.68-3.53,5.17-4.9-.16-2.38,1.51-4.14,4.09-3.95.56-.8,1.09-1.56,1.71-2.31,2.23-2.68,5.23-6.19,7.71-8.87.68-1.63,1.49-3.45,3.44-4.07,1.08-.34,2.61-.11,3.68.23,2.67.85,3.18,3.91,2.88,5.84,1.71,1.74,3.88,2.66,5.96,3.88,3.14,1.85,6.66,4.17,7.84,7.83.86-.39,1.7-.74,2.5-1.07,2.68-1.1,5.32-1.34,8.67-4.13,1.09-.91,1.89-1.68,2.82-2.75.93-1.07,2.52-3.27,2.66-5.33-.21-.7-1.52-.55-2.38-.93-.75-.33-1.12-.67-1.75-.88-1.66-.52-4.28.76-6.67,1.67-1.63.62-3.09.83-4.12,1.56-.33.23-.61.66-.82.98-.53.8-1.15,1.21-2.11,1.34-.95.12-2.06-.58-2.75-1.31-.78.07-1.38-.07-1.54-.63-3.06.07-4.81-.88-5.91-2.84,1.55.54,3.15.85,3.78-.38-1.85-1.87-1.48-4.67.73-5.89.92-.52,2.23-.79,3.89-.18,2.78-1.73,8.88-6.27,12.18-7.3h0Z"/>
      <path class="cls-5" d="m294.16,101.79c-.54-.92-.81-2.21-2.19-2.43-2.29-.37-5.1,1.41-8.79,3.31-.77.4-1.3.89-2.2,1.27-.68.29-1.91.64-2.35.95-.97.69-.85,1.97-2.55,2.2-.83.11-1.76-.6-2.66-1.82,2.39-.55,8.18-2.32,7.61-4.74-.29-1.2-1.46-1.48-2.53-1.11-1.23.43-2.7,1.31-4.55,1.12-1.77-.18-1.56-1.23.13-2.28.91-.57,2.55-.67,3.79-1.59.61-.45.95-1.02,1.16-2.08,3.14-2.18,5.8-3.82,8.71-4.76.03.07.07.15.11.21-.66,1.02-.96,2.1-.63,3.09-.52.12-.95.31-1.53.68l.5.58c.27-.22.54-.45.94-.57,1.2-.35,2.4-.44,4.91-.48,1.18-1.98-.43-3.65-3.77-3.82.67-.74,1.84-1.91,3.5-3.3,1.61-1.35,3.14-2.32,5.3-2.27,1.78,1.3,2.96,1.03,4.89,1.47.82.19,1.76.74,2.3,1.32,1.96,2.08,2.58,6.69-.42,9.33.88.52,1.9.46,3.16.2-1.88,6.02-11.11,8.39-10.05,15.19,1-1.26,2.38-2.26,3.89-3-.97,3.18-2.99,5.84-5.51,7.08-2.23,1.09-5.93,1.62-8.86.73-.09,1.37,1.33,3.1,3.63,3.62-7.72.81-14.69,5.14-14.28,10.91,2.8-2.36,6.73-3.98,9.71-4.03,4.38-.08,5.39,2.36,7.85,2.97,2.31.57,4.65-.48,6.3-2.17.7,1.9,3.63,3.34,2.96,5.31-.23.69-1.14,1.95-2.51,2.58-.27.12-.32.82.03.79,2.76-.31,4.53-2.02,4.77-3.61.4-2.66-3-4.64-3.76-6.63-.55-1.45.94-2.54,2.54-3.16,3.93-1.51,13.74-4.51,23.04-8.95,6.07-2.9,10.64-5.94,14.88-11.08,2.14-2.61,3.88-5.25,5.26-8.42,1.14-2.63,2.17-7.36,2.48-12.82,3.58,4.2,3.56,9.59,2.09,13.55-1.19,1.42-1.49,2.01-2.38,3.17-1.73,2.27-4.96,5.31-7.37,6.71-.38.22.21,1.09.65.82,1.93-1.2,4-2.91,5.64-4.49.99-.96,2.18-2.4,3.07-3.43,1.88-2.16,3.76-4.14,5.54-6.3,1.26-1.53,2.61-3.44,3.61-4.78-.61,2.59-2.02,6.11-3.96,9.13-2.49,3.89-6.55,8.16-14.05,13.21-1.41.95-2.76,1.8-4.62,2.84-.43.24-.19,1.4.48,1.02,6.35-3.63,14.87-9.76,22.77-17.62-1.8,5.84-6.41,11.27-12.66,15.81-3.8,2.76-8.57,5.03-13.48,6.69-.57.2-.38,1.25.32,1.02,6.27-2.09,12.37-5.77,18.72-10.47,3.44-2.55,6.77-5.31,10.2-8.41-1.8,6.26-5.55,11.36-10.27,14.94-3.02,2.3-5.67,3.88-10.38,5.36-.34.11-.09.96.25.87,3.18-.81,6.89-2.61,10.01-4.68,2.94-1.94,3.72-3.42,7.89-4.86-2.21,3.04-3.21,4.86-7.02,7.12.61,1.04,1.77,1.34,3.57,1.19-2.18,2.64-3.56,3.52-4.85,3.51-1.59,0-2.73-1.83-4.98-1.48-1.63.25-3.25,1.91-5.24,1.98-1.69.06-3.45-1.95-5.27-2.07-2.78-.17-4.77,1.65-7.14,1.66-1.9,0-4.02-1.78-5.77-1.44-1.2.24-2.36.86-3.69,1.18-2.08.5-4.66.61-8.99.12-.59-.06-.52.38-.04.46,9.68,1.62,10.95-.8,12.93-.89,1.71-.08,3.37,1.37,5.2,1.41,3,.06,4.93-1.84,7.26-1.7,1.93.12,3.31,2.02,5.57,2.06,2.05.03,3.71-1.84,5.36-1.95,2.03-.13,3.2,1.37,4.46,1.47,1.27.1,1.61-.15,2.36-.55,1.02.32,2.39.02,3.52-.54-1.51,2.64-3.79,3.6-6.53,4.54,2.05-.04,4.82-.32,6.1-.99-1,2.43-3.8,5.12-6.67,4.24-1.42-.44-2.27-1.68-4.65-1.62-1.77.03-3.68,1.4-5.73,1.47-1.81.06-4-1.46-5.92-1.38-2.22.09-3.25,1.6-6.38,1.7-2.52.08-3.44-1.34-7.43-1.35-4.24,0-6.71,1.57-8.88,1.55-.84,0-1.27-.05-2.04-.42-.84-.41-1.17.14-.45.6.68.43,1.8.71,2.79.69,2.03-.05,4.02-1.49,8.46-1.56,3.8-.06,4.91,1.44,7.8,1.3,3.65-.16,4.04-1.66,6.25-1.74,1.97-.08,4.1,1.46,5.95,1.42,2.09-.04,3.99-1.5,5.75-1.49,2.16.03,3.58,1.8,4.96,1.84,1.06.03,1.59-.06,2.46-.36.51.22,1.07.38,2.78.34-.64.92-4.01,3.95-6.63,5.16-1,.46-.9-.34-1.94-.29-.77.04-1.82.47-5.59.68-3.22.18-3.26-1.66-7.13-1.3-1.43.13-5.25,1.55-7.27,1.58-3.01.03-5-2.13-8.16-2.02-2.54.09-4.1,2.25-6.07,2.33-3.55.13-6.69-.02-8.71-.09l-.05.48c3.46.18,4.51.23,8.67.18,1.02-.01,1.8-.25,2.68-.67,1.2-.56,2.24-1.4,3.57-1.48,2.53-.14,5.16,2.02,7.87,1.97,3.17-.06,5.38-1.4,7.89-1.57,2.44-.17,3.79,1.41,5.92,1.38,2.4-.03,5.38-.51,6.9-.68.25.1.38.49,1.48.34.37-.05,1.78-.83,2.54-1.51.82.57,1.88.11,2.73-.04-.91,2.21-3.33,4.2-7.87,5.5,1.04.86,2.87,1.33,5.12.49-.92,2.12-3.68,3.02-5.66,2.94-2.98-.12-6.53-1.69-8.48-1.72-1.98-.04-3.79,2.02-5.8,2.05-1.89.03-2.87-1.95-5.48-2.11-1.98-.12-4.41,1.57-6.36,1.66-2.22.11-3.95-1.33-5.98-1.34-1.7,0-3.8,1.53-6.86,1.68-3.97.19-5.96,0-6.05-.02-.46-.09-.35.62-.01.86,1.59-.04,5.26.16,7.7-.24,2.31-.38,3.93-1.46,5.29-1.43,1.88.03,3.77,1.45,5.78,1.35,2.15-.1,4.2-1.71,6.27-1.61,2.55.13,3.52,2.1,5.69,2.08,2.29-.02,4.17-2.15,5.81-2.06,2.32.13,3.88,1.1,8.02,1.71-3.32.85-4.97,1.64-5.11,2.54-.09.59.26,1.56,3.21,1.81-1.78,1.18-8.16,2.12-10.42,1.82-.89-.36-2.05-.63-3.51-.62-.75,0-1.91.24-2.56.49-.84.33-1.32.7-2.2.7-1.44,0-3.87-.38-5.84-.79-1.97-.41-3.47-.68-4.25-.46-1.3.36-3.3.88-4.83,1.12-3.2.5-8.95.07-9.83-.03-1.12-.13-1.79-.04-2.69-1.46-.6-.94-1.92-.09-1.46.84.54,1.09,1.48,1.81,3.12,1.97,2.27.21,6.41.62,9.17.41,3.06-.23,5.29-.96,6.69-1.31.59-.15,1.15-.03,1.53.12l12.54,5.06c-1.25,1.81-3.57,2.1-6.04,1.11l-10.37-4.2c-.88-.36-1.45.62-.63,1.06,5.27,2.16,9.44,4.11,12.93,4.58-.67,1.14-2.52,1.5-4.69.9-4-1.11-9.74-3.91-13.49-5.83-.75-.39-1.28.56-.62.95,4.61,2.77,10.17,4.83,14.21,5.87-.33,1.49-4.02,1.17-6.23.67-3.45-.79-9.16-3.71-11.88-6.52-.55-.57-1.71-.07-.69.87,1.76,1.61,4.26,3.55,5.53,4.12,1.43.64,3.08,1.49,5.16,2,.45.11.65.32,1.08.54-1.51.57-2.79.7-4.27.75-3.04.11-5.74-.64-6.87-1.39-1.22-.81-2.4-2.55-3.17-4.43l-.91-2.2c-.43-1.04-1.69-.43-1.36.38l1.23,3.03c-1.21,1.52.56,4,2.32,6.55-9-1.35-10.08-6.92-10.24-13.51-.01-.57-1.21-.83-1.22.18-.08,4.96,1.08,8.84,3.84,11.69,1.85,1.91,4.18,3.54,6.41,4.96,3.72,2.37,7.45,4.1,10.07,5.07,2.29.84,3.12,2.89,3.06,5.25-.17,7.48-3,13.22-3.25,19.89-.07,1.85.1,4.01,1.11,5.46,1.25,1.77,2.73,3.19,4.11,4.12,1.07.72,2.04,1.18,3.14,1.1.72-.05.6.84.55.93-2.39,4.69-3.6,8.14-2.48,13.94.2,1,1.18,1.13,1.52,1.7.56.95-.09,2.08-.96,2.88l-1.93.21c-.56-.35-1.04-.95-1.29-1.24-1.07-1.26.43-1.77.19-2.79-1.56-6.66-4.05-10.79-3.7-14.5-2.97-3.75-6.13-7.45-9.27-11.1-2.15-2.5-4.54-5.38-5.55-7.36-1.85-3.6.31-9.91-1.39-14.35-1.34-3.5-3.89-5.07-9.72-7.81-8.03-6.27-16.8-13.35-21.27-28.07,1.64.21,2.68,1.51,4.16,3.43,1.18,1.53,1.64,3.47,4,5.39,1.55,1.26,4.03,2.36,6.53,2.95,1.05.25,1.33-1.48.4-1.79-1.95-.66-4.25-1.36-5.76-2.72-2.05-1.85-1.68-2.59-2.66-3.72-2.61-2.97-5.22-5.61-8.17-8.16-2.29-.37-3.17-1.05-3.41-1.67-.29-.74.04-2.11,1.51-2.75,1.74-.76,3.04-.11,3.86.26,2.55,1.13,6.64,4.29,9.5,6.43,1.48,1,2.13-.71,1.47-1.52-2.34-2.88-4.73-5.72-7.09-8.58.8-3.69,2.15-6.13,3.68-8.07,2.71-3.43,5.86-4.98,9.35-6.42,2.46-1.01,5.2-1.81,7.63-3.88,2.92-2.48,6.88-7.25,6.67-9.4,1.51,0,8.39-1.32,5.93-9.19.25,7.52-4.21,8.14-5.98,8.03-.7-.04-.77-.07-1.16-.72h0Zm-43.89,112.39c2.82,1.95,5.05,3.18,8.3,4.69.14-1.44.36-2.96.79-4.4l-3.97-2.53c-2.61.62-3.96,1.39-5.12,2.24h0Zm33.27-41c-2.72.86-7.12,2.12-10.53,3.75-3.16,1.5-2.88,4.3-2.02,6.42l6.93,17.15c.33.78.17,1.24-.59,1.62l-11.04,5.48c-.59.12-2.15-.07-2.77.04-.44.07-.71.7-1.07.7-1.7.01-3.6-.67-5.98,2.87l3.31,1.65c.63.31,1.79.14,2.43-.5.89-.89,1.84-2.21,2.42-3.32,5.51-.53,11.89-3.37,17.83-5.92l-4.07-13.56-3.07-6.59c-.29-.63.48-.98.94-.36.79,1.07,1.57,1.83,1.93,2.04.98.59,3.62.01,3.89.15,1.25.65,2.52,1.88,3.83,3,.6.52.92,1.06.89,2.02l6.64-1.8c.08-1.64.05-5.4-.59-6.45-2.25-3.61-7.16-6.89-9.29-8.42h0Zm-32.25-8.43c.07,2.22.1,5.16.24,7.38l5.59-6.61-2.02-1.79c-1.32.96-2.49.95-3.81,1.01h0Zm6.36-27.83c.27,2.72.3,4.18,3.42,3.52l.72.82c-1.23,1.03-2.05,1.67-2.71,2.69-1.32,2.06-1.75,6.38-2.42,9.66-.42,2.04-2.13,4.31-1.95,5.11.09.39.43.78.71,1.42.46,1.05.23,2.23-.68,2.88-1.34.95-3.34.34-3.35-.93,0-1.04,1.23-1.96,1.26-2.91.04-1.03-.86-1.89-.4-4.48.65-3.64,2.73-7.43,3.56-11.09.13-.57.08-1.42-.04-2.12-.11-.7-.29-1.25-.2-1.57.21-.86,1.4-1.93,2.08-2.99h0Zm-17.34-17.22c-1.35.75-3.18,2.52-3.9,3.38l10.88.05c.35-.11.27-.7-.13-1.28l-1.36-1.95-5.49-.19Zm31.07,1.4c-1.68-1.54-4.55-1.45-5.99-2.82-1.14-1.08-2.95-3.22-3.86-5.26-.23-1.55-.62-3.21-1.41-4.61,1.39-.66,1.19-2.59.98-3.67-.22-1.12-.86-1.95-2.06-2.19-.65-.13-1.51.08-2.1.65-.37.36-.34.65.14.48,1.4-.47,2.15-.2,2.64.61.28.47.58,1.52.25,2.65-.06.22-.27.28-.64.32-.77.09-2.16-.11-3.2-.02-.46.04-.46.11-.81.39-2.83,2.21-5.69,5.71-7.43,7.96-.62.92.89,1.12.42,2.24-.18.43-1.1,1.54-1.96,1.28-.52-.16-1.79-.44-2.41-.46l-2.74-.07c-.32-1.63.79-2.77,1.92-2.85.6-.05,1.29.07,1.65-.43.61-.87.95-1.4,1.67-2.27,3.05-3.66,5.72-5.28,7.62-7.09.5-2.81,1.98-5.02,3.16-5.39.87-.28,2-.19,3.01.14,1.3.43,2.19,1.7,2.43,3.05.17.93-.19,2.3.05,2.54,1.79,1.87,3.96,2.82,6.31,4.21,3.22,1.89,6.59,4.34,7.4,7.22-1.51,1.09-3.7,2.18-5.01,3.38h0Zm51.1,53.44l-.29,1.09c4.04-1.95,8.87-.39,8.99,4.38.14,5.18-5.63,14.14-7.06,21.75-.69,3.67.19,6.85,2.4,7.72-1.64-5.05,1.37-10.43,4.25-16.95,2.43-5.48,3.53-8.88,3.52-11.88,0-4.02-1.92-7.51-5.67-7.86-2.15-.2-4.96,1.16-6.14,1.73h0Zm.72-1.38c3.25-1.88,6.8-1.71,8.74-.36,3.22,2.23,4.26,7.26,3.1,11.86-1.7,6.77-6.75,14.53-7.94,19.95-.92,4.21.32,7.32,6,7.97-3.43-3.57-3.16-9.02-1.58-13.12,1.35-3.49,3.39-4.72,5.29-8.9,1.58-3.48,2.11-7.92,2.09-9.64-.12-9.68-5.28-14.27-13.45-10.68l-2.24,2.91Zm-7.59,58.82c-.39,2.63-.77,5.11-1.45,7.89,2.37-.08,4.46-.32,6-.87-.77-2.29-.89-4.73-2.1-7.52l-2.45.5Zm-26.52-149.25c.27.06.67.1.95,0,.27-.1.42-.42.64-.63-.3-.46-1.08-1.73-1.7-2.08-.18-.1-.48-.43-.5.16-.04.88.38,1.75.61,2.55h0Zm1.84.62c.16.72.39,1.31.65,1.84-1.15.88-2.11,1.76-2.96,2.64-.77-.69-1.24-.79-1.79-.78-1.16.03-2.04.66-2.81.62-.52-.03-1.08-.36-1.4-1.03,1.87.25,2.36-1.23,4.05-.76-.08-.33-.17-.36-.25-.69,1.45.06,2.86-.36,3.72-1.7l.79-.14Zm1.3,1.37c1.23-.87,2.1-1.37,4.27-1.63l-.36-.83c-1.89-.94-2.84-1.78-4.48-3.07-.67-.53-.85-.06-.83.18.19,1.88.57,3.21,1.41,5.35h0Zm-21.6,18.34l-1.62,1.52c1.12.49,3.01.52,5.46-.29,1.57-.51,3.67-1.25,5.41-2.64.73-.59.16-1.68-.54-1.59-1.07.14-1.95.67-2.88,1.09-1.56.71-2.88,1.34-4.42,1.9-.45.17-.98.11-1.4,0h0Zm1.55-4.59c-.77.6-1.36,1.21-2.02,1.88-.49-.32-.62-.38-1.01-.69.81-1.1,1.86-1.6,3.04-1.19h0Zm25.21-16.24c.76,2.52,2.94,1.69,4.99,2.32,1.85.57,3.03,1.85,3.66,3.26.93,2.07.83,4.82-.41,7.73,1.25-.75,1.64-1.28,2.39-2.6.69,2.96-.38,5.34-2.19,7.34-2.48,2.74-6.82,5.39-7.64,8.94,1.9-1.47,3.01-2.07,4.62-3.04-1.45,3.67-3.1,8.31-6.98,10.08-2.16.99-4.79,1.63-7.83,1.06.82,2.8,6.84.68,8.38,2.53-10.15.72-18.1,3.76-19.51,9.12,4.22-2.84,7.3-3.32,10.13-3.15,3.69.23,4.68,2.75,7.38,3.07,1.46.18,3.4-.77,4.96-2.32-.14-1.86.21-2.9,1.73-3.93,1.76-1.2,4.02-1.86,6.79-3.03,1.08-.46,2.67-1.6,3.87-2.46,6.84-4.92,9.45-9.96,10.26-13.22,1.16-4.68-.49-9.76-3.79-13.75.38,2.94-.07,6.01-1.69,7.98-3.32,4.03-9,5.18-8.85,10.83-.12.02-.24.05-.36.07-.8-7.9,7.93-8.12,9.18-13.92.34-1.58.28-4.01-.03-5.79-.42-2.44-1.57-4.53-4.46-5.39,2.25,3.07,1.93,6.24,1.05,7.76-.35.6-.43.3-.45-.24-.16-4.31-2.07-5.95-4.4-7.48-2.91-1.91-6.87-2.4-10.79-1.78h0Zm9.9,30.75l-8.6,5.79c4.23-.41,7.19-2.58,8.6-5.79h0Zm11.96,2.31c10.15-9.64,16.4-21.16,14.8-37.32,1.37,2.51,3.46,5.21,3.32,11.7-.27,1.23-.61,2.03-.98,3.15-.59,1.75-1.27,3.71-1.95,5-.27.51-.53.97-.79,1.38-.37.59.36.66.51.4,1.98-3.46,2.99-5.91,3.78-8.4,1.05-3.31,1.76-6.69,2.06-11.67,1.6,1.88,3.04,7.76.11,13.43-.54,1.05.43,1.1.65.72,1.05-1.8,1.89-3.84,2.6-6.17.35,2.28.17,4.55-.74,6.69-1.61,3.82-5.25,7.53-8.65,9.91-.33.23-.14.75.39.36,5.5-4.02,9.39-9.03,11.48-14.58.34,2.15-.3,4.89-.86,6.1-2.54,4.2-5.23,7.39-8.27,10.08-4.76,4.19-10.93,6.95-17.46,9.23h0Zm13.09-10.27c-2.08,1.12-3.94,2.22-5.44,3.8-.18.18.16.57.4.33,1.73-1.76,3.08-2.42,5.29-3.73.28-.16.08-.58-.25-.4h0Zm-12.12,48.25l10.59,4.57c2.17.27,6.68.82,9.93-2.98-1.32-.48-6.25-1.76-9.23-2.03-1.36-.12-3.5,1.06-4.86.94-2.5.34-4.32-.24-6.43-.51h0Zm-29.27-62.55c.38.18.67.43.83.75.2.39.28.64.01,1.32-.36,0-.76,0-1.18.02.23-.58.39-1.54.33-2.09h0Zm-1.45,2.15c-.33.02-.66.05-1,.08-.36.04-.67.07-.94.12-.2-.94.13-1.97.74-2.47.28,1.02.62,1.66,1.2,2.27h0Zm.71,2.35c2.81-.86,5.41-.27,5.89-.69,1.14-.98.72-3.11-.11-4.05.2,1.34.06,2.53-.39,2.86-.95.7-3.91.3-5.39,1.88h0Z"/>
      <path class="cls-2" d="m141,89.36c-.17-.42-.21-1.16-.14-1.55.91.18,1.71.67,2.38.69,1.48.05,2.52-.91,3.92-3.52-2.48,1.01-3.07,1-4.32.11.43-.43.37-1.04.54-3.25-.38.62-1.18,2.09-1.84,2.41-.81.39-1.99.05-2.64-.7.46-.66.77-2.11.86-3.33.05-.63.1-1.17-.02-1.54-.13-.39-.39-.42-.76-.28-.43.17-.95.56-1.52.96.04-.38-.05-.77-.21-1.06-.21-.35-.54-.44-.91-.3-1.23.48-3.64,3.09-5.52,3.61-4.4-1.13-8.97-1.07-13.19,1.15-3.7.06-7.09,2.75-7.5,4.9-3.23,3.07-7.1,10.16-5.53,16.49.69,2.79,2.39,5.59,4.27,7.89.41.5.77,2.56-1.55,1.29-10.96-11.14-14.2-23.43-12.64-39.08-3.25,4.77-5.22,8.73-5.18,13.93-.84-2.86-1.22-7.5-1.14-11.17-2.75,3.23-3.62,7.51-2.94,11.65-.47-1.06-1.05-2.75-1.26-4.76-.25,1.25-1.37,4.46-.54,8.06-.51-.42-1.53-2.46-2.19-4.81-.29,1.37-.41,3.16-.24,4.99-.46-.64-.97-1.32-1.06-1.69-.86-3.51-1.14-7.71-1.23-11.27-3.56,4.18-4.74,8.63-4.58,13.14.11.54.34,1.4.37,1.91-2.67-2.79-5.69-5.73-8.25-9.2,1.84,7.82,4.31,12.24,5.45,13.85-2.81-1.97-5.11-4.52-7.48-8.27.85,3.43.92,6.85,5.94,13.94-3.35-2.48-6.02-5.08-8.46-8.46,1.42,6.58,1.59,8.53,7.62,16.22-1.3-.71-2.97-1.23-5.03-2.26,2.37,4,3.87,6.11,6.64,8.44-1.05.7-1.82-.06-3.21-1.43l.1,1.87c.64,1.33,1.73,2.47,3.22,3.56-1.14.97-2.73-.18-3.61-.93.41,2.21,1.48,3.68,3.53,4.98-1.22-.25-2.15-.53-3.24-1.1.48,2.07,1.82,4.35,3.38,5.37-.96.21-1.72.15-2.61.01,1,1.86,2.56,3.22,4.6,4.7-.91.32-1.84.05-3-.6.61,3.69,3.64,5.49,6.47,6.71-1.27.51-3.75-.54-4.39-.81.38,2.42,2.09,3.75,4.35,4.85,3.52,1.71,7.44,2.45,7.51,3.1.12,1.14-4.58.84-5.21.89,2.17,2,6.83,3.18,10.53,3.57-1.52.78-3.17.56-4.07,1.23,1.49,1.54,2.82,2.59,4.27,3.27,1.75.82,3.18,1.23,6.25.97.42.99,1.14,2.75,4.68,2.87.7,1.51,1.4,1.89,3.88,1.45.96,1.67,2.74,1.88,5.41,1.44,1.14,1.16,2.11,1.71,3.11,2.19l-6.75,7.37-3.11-4.28c-2.56-1.46-7.27-2.35-10.3-.62-3.93,2.24-5.18,7.28-5.15,11.64.01,2.98.98,7.65,2.22,10.37,1.01,2.22,2.24,3.66,3.6,5.62,1.63,2.35,2.4,4.86,2.69,8.32.25,3.04-1.41,7.56-5.63,8.45,2.89.24,6.4.01,8.8-1.35,4.15-1.98,5.92-5.31,4.97-10.4-.51-2.74-1.51-5.6-2.54-8.19-1.02-2.54-2.07-5.04-3.02-7.6-.65-1.75-1.47-3.8-1.48-5.68-.01-2.86,2.04-4.41,4.28-4.54,2.53-.15,4.13.75,5.43,2.81.95,1.51,1.61,3.19,1.79,3.75,1.88,5.61,3.87,13.23,5.3,22.48.27,1.75-.99,3.26-3.79,5.19-.57.39-1.88.75-2.55.82-.93.11-.85,1.07-.45,1.86,2.21,4.33,3.18,8.77,2.41,13.59-.09.55-1.4.74-1.79,1.39-.59,1-.12,2.12.83,3.01l-3.07,10.49,9.36.78c-.2-.12-2.69-9.46-2.53-10.41.68-.77,1.33-1.53,1.38-2.12.07-.75-.41-1.66-.35-2.19l4.09-10.91c.14-.54.11-1.06.15-1.63.1-1.47.3-1.91,1.31-2.84,4.04-3.73,13.3-14.69,14.13-17.29.55-1.73.67-3.38.68-5.05l7.42,2.45,6.89-4.26-4.65,15.4c-.06.2-.36.96.39,1.29,5.29,2.38,12.47,5.57,18.09,6.24.64,1.07,1.31,2.01,2.15,2.85.98.99,2.26,1.46,3.16,1.05l.88,5.65c1.21-.61,12.56-4.97,9.12-7-1.58-.93-3.9-1.87-6.07-2.74-1.56-2.46-2.48-3.19-6.7-3.5-1.18-1.07-1.63-.96-3.08-1.05l-10.2-5.03,6.75-17c1.3-3.29.61-6.54-2.82-8.32-3.07-1.59-6.19-2.52-9.72-3.65,3.75-2.7,7.84-6.55,10.55-9.71,4.16-4.86,8.12-12.26,9.21-19.15.54.39,1.15,1,1.79,2.06,1.38,2.27,2.49,7.43,3,9.91.29,1.43,1.8,2.93,1.66,4.09-.08.69-.33,1.4-.33,2.21,0,.66.16,1.39.61,1.91l-2.27,1.71c-.26.19-.43.58.04,1.15l5.66,6.89c.43.52,1.29.44,1.34-.35.2-3.83.1-7.14-.05-9.89-.1-1.75-.61-2.77-1.17-3.76-.02-.53.21-.89.32-1.41.22-1,.29-2.16.11-3.17-.69-3.84-2.42-7.38-3.57-11.32.01-.72.33-3.35.24-4.39-.09-1.09-1.44-2.11-2.16-2.58-.47-1.08-1.71-1.91-2.01-1.97-.91-.18-2.48-.35-3.71-.41-1-3.49-2.85-6.46-5.12-9.43,3.57-4.04,6.15-7.36,7.3-10.77.34-1.53.25-2.87,1.47-4.98l2.81.03c1.02.22,6.39,5.99,7.59,7.53.02.03-.78,1.37-.45,2.15.37.88,1.59,1.71,2.64,1.59l-1.29,1.94c-.46.69-.72,2.48.42,2.43l12.39-.46c-1.63-2.05-2.67-3.53-5.17-4.9.16-2.38-1.51-4.14-4.09-3.95-.56-.8-1.08-1.56-1.71-2.31-2.23-2.68-5.23-6.19-7.71-8.87-.68-1.63-1.49-3.45-3.45-4.07-1.08-.34-2.61-.11-3.67.23-2.67.85-3.18,3.91-2.88,5.84-1.71,1.74-3.88,2.66-5.96,3.88-3.14,1.85-6.66,4.17-7.84,7.83-.86-.39-1.7-.74-2.5-1.07-2.68-1.1-5.32-1.34-8.67-4.13-1.09-.91-1.89-1.68-2.82-2.75-.93-1.07-2.52-3.27-2.67-5.33.21-.7,1.52-.55,2.38-.93.75-.33,1.12-.67,1.75-.88,1.66-.52,4.28.76,6.67,1.67,1.64.62,3.09.83,4.12,1.56.32.23.61.66.82.98.53.8,1.15,1.21,2.11,1.34.95.12,2.06-.58,2.75-1.31.78.07,1.38-.07,1.54-.63,3.06.07,4.81-.88,5.91-2.84-1.55.54-3.14.85-3.78-.38,1.85-1.87,1.48-4.67-.73-5.89-.92-.52-2.23-.79-3.89-.18-2.79-1.73-8.88-6.27-12.18-7.3h0Z"/>
      <path class="cls-5" d="m133.4,101.79c.54-.92.81-2.21,2.19-2.43,2.28-.37,5.09,1.41,8.79,3.31.76.4,1.3.89,2.19,1.27.69.29,1.91.64,2.35.95.97.69.85,1.97,2.55,2.2.83.11,1.76-.6,2.66-1.82-2.39-.55-8.19-2.32-7.61-4.74.29-1.2,1.46-1.48,2.53-1.11,1.23.43,2.7,1.31,4.55,1.12,1.78-.18,1.57-1.23-.13-2.28-.91-.57-2.55-.67-3.79-1.59-.61-.45-.95-1.02-1.16-2.08-3.14-2.18-5.8-3.82-8.71-4.76-.03.07-.07.15-.12.21.66,1.02.96,2.1.63,3.09.52.12.95.31,1.53.68l-.5.58c-.27-.22-.54-.45-.94-.57-1.2-.35-2.41-.44-4.91-.48-1.19-1.98.43-3.65,3.77-3.82-.67-.74-1.84-1.91-3.5-3.3-1.61-1.35-3.14-2.32-5.3-2.27-1.78,1.3-2.96,1.03-4.89,1.47-.82.19-1.75.74-2.3,1.32-1.95,2.08-2.58,6.69.42,9.33-.89.52-1.9.46-3.16.2,1.88,6.02,11.11,8.39,10.05,15.19-1-1.26-2.38-2.26-3.89-3,.96,3.18,2.99,5.84,5.51,7.08,2.23,1.09,5.93,1.62,8.86.73.09,1.37-1.33,3.1-3.63,3.62,7.71.81,14.69,5.14,14.28,10.91-2.81-2.36-6.73-3.98-9.72-4.03-4.39-.08-5.39,2.36-7.85,2.97-2.31.57-4.64-.48-6.3-2.17-.7,1.9-3.62,3.34-2.96,5.31.23.69,1.13,1.95,2.51,2.58.27.12.32.82-.03.79-2.76-.31-4.53-2.02-4.77-3.61-.4-2.66,3-4.64,3.76-6.63.56-1.45-.94-2.54-2.53-3.16-3.93-1.51-13.74-4.51-23.04-8.95-6.07-2.9-10.64-5.94-14.87-11.08-2.14-2.61-3.88-5.25-5.26-8.42-1.15-2.63-2.17-7.36-2.48-12.82-3.58,4.2-3.56,9.59-2.09,13.55,1.19,1.42,1.49,2.01,2.38,3.17,1.73,2.27,4.96,5.31,7.37,6.71.39.22-.2,1.09-.64.82-1.93-1.2-4-2.91-5.65-4.49-.99-.96-2.18-2.4-3.07-3.43-1.88-2.16-3.76-4.14-5.54-6.3-1.26-1.53-2.61-3.44-3.61-4.78.61,2.59,2.02,6.11,3.96,9.13,2.49,3.89,6.55,8.16,14.05,13.21,1.41.95,2.76,1.8,4.62,2.84.43.24.18,1.4-.49,1.02-6.35-3.63-14.87-9.76-22.77-17.62,1.8,5.84,6.41,11.27,12.66,15.81,3.8,2.76,8.57,5.03,13.48,6.69.57.2.38,1.25-.32,1.02-6.26-2.09-12.38-5.77-18.72-10.47-3.44-2.55-6.77-5.31-10.2-8.41,1.8,6.26,5.55,11.36,10.27,14.94,3.03,2.3,5.67,3.88,10.38,5.36.34.11.09.96-.25.87-3.18-.81-6.89-2.61-10.02-4.68-2.93-1.94-3.71-3.42-7.88-4.86,2.21,3.04,3.21,4.86,7.02,7.12-.61,1.04-1.77,1.34-3.57,1.19,2.19,2.64,3.57,3.52,4.85,3.51,1.59,0,2.73-1.83,4.98-1.48,1.63.25,3.25,1.91,5.24,1.98,1.69.06,3.44-1.95,5.27-2.07,2.79-.17,4.77,1.65,7.14,1.66,1.91,0,4.02-1.78,5.77-1.44,1.2.24,2.35.86,3.69,1.18,2.08.5,4.66.61,8.99.12.59-.06.52.38.04.46-9.68,1.62-10.96-.8-12.93-.89-1.71-.08-3.37,1.37-5.2,1.41-3,.06-4.93-1.84-7.26-1.7-1.93.12-3.31,2.02-5.57,2.06-2.05.03-3.71-1.84-5.37-1.95-2.03-.13-3.19,1.37-4.46,1.47-1.27.1-1.6-.15-2.36-.55-1.02.32-2.39.02-3.52-.54,1.52,2.64,3.8,3.6,6.53,4.54-2.05-.04-4.82-.32-6.1-.99,1,2.43,3.8,5.12,6.67,4.24,1.42-.44,2.27-1.68,4.65-1.62,1.77.03,3.68,1.4,5.73,1.47,1.81.06,4-1.46,5.92-1.38,2.22.09,3.25,1.6,6.38,1.7,2.52.08,3.45-1.34,7.42-1.35,4.24,0,6.72,1.57,8.88,1.55.85,0,1.27-.05,2.04-.42.83-.41,1.16.14.45.6-.68.43-1.8.71-2.79.69-2.03-.05-4.02-1.49-8.46-1.56-3.8-.06-4.91,1.44-7.8,1.3-3.66-.16-4.04-1.66-6.25-1.74-1.97-.08-4.09,1.46-5.94,1.42-2.09-.04-3.99-1.5-5.75-1.49-2.16.03-3.58,1.8-4.96,1.84-1.06.03-1.58-.06-2.45-.36-.51.22-1.07.38-2.79.34.64.92,4.02,3.95,6.63,5.16,1.01.46.91-.34,1.95-.29.77.04,1.82.47,5.59.68,3.22.18,3.26-1.66,7.13-1.3,1.42.13,5.25,1.55,7.27,1.58,3.01.03,5-2.13,8.16-2.02,2.54.09,4.09,2.25,6.07,2.33,3.55.13,6.69-.02,8.71-.09l.05.48c-3.45.18-4.51.23-8.67.18-1.02-.01-1.81-.25-2.68-.67-1.19-.56-2.23-1.4-3.56-1.48-2.54-.14-5.16,2.02-7.88,1.97-3.16-.06-5.38-1.4-7.88-1.57-2.45-.17-3.79,1.41-5.92,1.38-2.4-.03-5.38-.51-6.9-.68-.26.1-.38.49-1.48.34-.37-.05-1.78-.83-2.54-1.51-.81.57-1.88.11-2.73-.04.91,2.21,3.33,4.2,7.86,5.5-1.04.86-2.87,1.33-5.12.49.92,2.12,3.68,3.02,5.65,2.94,2.99-.12,6.54-1.69,8.48-1.72,1.97-.04,3.79,2.02,5.8,2.05,1.89.03,2.87-1.95,5.48-2.11,1.97-.12,4.41,1.57,6.36,1.66,2.21.11,3.95-1.33,5.98-1.34,1.7,0,3.8,1.53,6.86,1.68,3.96.19,5.96,0,6.05-.02.46-.09.35.62,0,.86-1.59-.04-5.26.16-7.7-.24-2.31-.38-3.94-1.46-5.3-1.43-1.88.03-3.76,1.45-5.78,1.35-2.14-.1-4.2-1.71-6.27-1.61-2.55.13-3.52,2.1-5.69,2.08-2.29-.02-4.17-2.15-5.8-2.06-2.33.13-3.89,1.1-8.02,1.71,3.32.85,4.98,1.64,5.11,2.54.09.59-.26,1.56-3.21,1.81,1.79,1.18,8.17,2.12,10.42,1.82.9-.36,2.05-.63,3.51-.62.76,0,1.91.24,2.56.49.84.33,1.32.7,2.2.7,1.44,0,3.87-.38,5.84-.79,1.97-.41,3.48-.68,4.25-.46,1.3.36,3.3.88,4.83,1.12,3.2.5,8.95.07,9.83-.03,1.11-.13,1.79-.04,2.69-1.46.59-.94,1.92-.09,1.46.84-.54,1.09-1.47,1.81-3.12,1.97-2.27.21-6.41.62-9.18.41-3.06-.23-5.28-.96-6.69-1.31-.59-.15-1.15-.03-1.53.12l-12.54,5.06c1.24,1.81,3.57,2.1,6.04,1.11l10.37-4.2c.88-.36,1.45.62.62,1.06-5.27,2.16-9.44,4.11-12.93,4.58.67,1.14,2.52,1.5,4.68.9,4-1.11,9.74-3.91,13.49-5.83.76-.39,1.28.56.62.95-4.61,2.77-10.17,4.83-14.21,5.87.33,1.49,4.02,1.17,6.23.67,3.45-.79,9.16-3.71,11.88-6.52.55-.57,1.71-.07.68.87-1.75,1.61-4.26,3.55-5.53,4.12-1.43.64-3.07,1.49-5.16,2-.45.11-.65.32-1.08.54,1.5.57,2.79.7,4.27.75,3.04.11,5.75-.64,6.87-1.39,1.23-.81,2.4-2.55,3.17-4.43l.91-2.2c.43-1.04,1.69-.43,1.36.38l-1.22,3.03c1.21,1.52-.56,4-2.32,6.55,9-1.35,10.08-6.92,10.24-13.51.02-.57,1.21-.83,1.23.18.08,4.96-1.08,8.84-3.84,11.69-1.85,1.91-4.18,3.54-6.41,4.96-3.73,2.37-7.45,4.1-10.07,5.07-2.28.84-3.11,2.89-3.06,5.25.17,7.48,3.01,13.22,3.25,19.89.07,1.85-.1,4.01-1.11,5.46-1.25,1.77-2.73,3.19-4.11,4.12-1.08.72-2.04,1.18-3.14,1.1-.72-.05-.6.84-.55.93,2.39,4.69,3.59,8.14,2.48,13.94-.19,1-1.18,1.13-1.51,1.7-.56.95.08,2.08.95,2.88l1.94.21c.56-.35,1.04-.95,1.29-1.24,1.07-1.26-.43-1.77-.19-2.79,1.57-6.66,4.05-10.79,3.7-14.5,2.97-3.75,6.13-7.45,9.27-11.1,2.14-2.5,4.53-5.38,5.55-7.36,1.85-3.6-.31-9.91,1.39-14.35,1.34-3.5,3.89-5.07,9.72-7.81,8.03-6.27,16.8-13.35,21.27-28.07-1.64.21-2.68,1.51-4.17,3.43-1.18,1.53-1.64,3.47-4,5.39-1.54,1.26-4.03,2.36-6.53,2.95-1.05.25-1.34-1.48-.4-1.79,1.95-.66,4.25-1.36,5.76-2.72,2.06-1.85,1.68-2.59,2.66-3.72,2.61-2.97,5.22-5.61,8.16-8.16,2.29-.37,3.17-1.05,3.41-1.67.29-.74-.03-2.11-1.51-2.75-1.74-.76-3.04-.11-3.86.26-2.55,1.13-6.64,4.29-9.5,6.43-1.49,1-2.13-.71-1.47-1.52,2.34-2.88,4.73-5.72,7.09-8.58-.8-3.69-2.15-6.13-3.68-8.07-2.71-3.43-5.86-4.98-9.35-6.42-2.46-1.01-5.19-1.81-7.63-3.88-2.92-2.48-6.88-7.25-6.67-9.4-1.51,0-8.39-1.32-5.93-9.19-.25,7.52,4.22,8.14,5.98,8.03.7-.04.77-.07,1.16-.72h0Zm43.9,112.39c-2.82,1.95-5.06,3.18-8.3,4.69-.14-1.44-.36-2.96-.8-4.4l3.97-2.53c2.61.62,3.96,1.39,5.13,2.24h0Zm-33.27-41c2.72.86,7.12,2.12,10.54,3.75,3.16,1.5,2.88,4.3,2.02,6.42l-6.93,17.15c-.33.78-.17,1.24.58,1.62l11.04,5.48c.6.12,2.15-.07,2.76.04.44.07.71.7,1.08.7,1.69.01,3.6-.67,5.97,2.87l-3.31,1.65c-.63.31-1.79.14-2.42-.5-.89-.89-1.84-2.21-2.42-3.32-5.51-.53-11.89-3.37-17.83-5.92l4.08-13.56,3.07-6.59c.29-.63-.48-.98-.94-.36-.78,1.07-1.57,1.83-1.93,2.04-.97.59-3.62.01-3.89.15-1.25.65-2.51,1.88-3.82,3-.61.52-.92,1.06-.9,2.02l-6.64-1.8c-.08-1.64-.05-5.4.6-6.45,2.25-3.61,7.16-6.89,9.29-8.42h0Zm32.25-8.43c-.07,2.22-.1,5.16-.24,7.38l-5.59-6.61,2.02-1.79c1.32.96,2.49.95,3.8,1.01h0Zm-6.36-27.83c-.27,2.72-.31,4.18-3.42,3.52l-.72.82c1.22,1.03,2.06,1.67,2.71,2.69,1.33,2.06,1.75,6.38,2.43,9.66.42,2.04,2.13,4.31,1.95,5.11-.09.39-.43.78-.71,1.42-.45,1.05-.23,2.23.69,2.88,1.34.95,3.34.34,3.35-.93,0-1.04-1.23-1.96-1.26-2.91-.04-1.03.86-1.89.4-4.48-.65-3.64-2.73-7.43-3.56-11.09-.12-.57-.07-1.42.04-2.12.11-.7.28-1.25.2-1.57-.21-.86-1.4-1.93-2.08-2.99h0Zm17.34-17.22c1.35.75,3.18,2.52,3.9,3.38l-10.89.05c-.35-.11-.27-.7.14-1.28l1.36-1.95,5.49-.19Zm-31.07,1.4c1.68-1.54,4.55-1.45,6-2.82,1.14-1.08,2.95-3.22,3.86-5.26.22-1.55.62-3.21,1.41-4.61-1.4-.66-1.19-2.59-.98-3.67.22-1.12.86-1.95,2.06-2.19.65-.13,1.51.08,2.1.65.37.36.34.65-.14.48-1.4-.47-2.15-.2-2.63.61-.28.47-.58,1.52-.25,2.65.07.22.28.28.65.32.77.09,2.16-.11,3.2-.02.46.04.46.11.82.39,2.82,2.21,5.68,5.71,7.42,7.96.63.92-.89,1.12-.42,2.24.18.43,1.1,1.54,1.96,1.28.52-.16,1.8-.44,2.41-.46l2.74-.07c.32-1.63-.78-2.77-1.92-2.85-.59-.05-1.29.07-1.64-.43-.61-.87-.95-1.4-1.68-2.27-3.05-3.66-5.71-5.28-7.62-7.09-.49-2.81-1.98-5.02-3.16-5.39-.87-.28-2-.19-3.01.14-1.3.43-2.19,1.7-2.43,3.05-.17.93.18,2.3-.05,2.54-1.79,1.87-3.96,2.82-6.31,4.21-3.22,1.89-6.59,4.34-7.39,7.22,1.51,1.09,3.69,2.18,5.01,3.38h0Zm-51.1,53.44l.29,1.09c-4.03-1.95-8.87-.39-8.99,4.38-.13,5.18,5.63,14.14,7.06,21.75.68,3.67-.2,6.85-2.4,7.72,1.64-5.05-1.36-10.43-4.25-16.95-2.43-5.48-3.52-8.88-3.52-11.88,0-4.02,1.92-7.51,5.67-7.86,2.14-.2,4.96,1.16,6.14,1.73h0Zm-.72-1.38c-3.25-1.88-6.8-1.71-8.74-.36-3.22,2.23-4.25,7.26-3.1,11.86,1.7,6.77,6.75,14.53,7.94,19.95.92,4.21-.31,7.32-6,7.97,3.43-3.57,3.17-9.02,1.58-13.12-1.36-3.49-3.39-4.72-5.28-8.9-1.58-3.48-2.11-7.92-2.09-9.64.12-9.68,5.27-14.27,13.44-10.68l2.24,2.91Zm7.59,58.82c.39,2.63.77,5.11,1.45,7.89-2.37-.08-4.47-.32-6-.87.77-2.29.89-4.73,2.09-7.52l2.46.5Zm26.52-149.25c-.27.06-.67.1-.94,0-.27-.1-.42-.42-.64-.63.3-.46,1.08-1.73,1.7-2.08.18-.1.48-.43.5.16.04.88-.38,1.75-.61,2.55h0Zm-1.84.62c-.16.72-.39,1.31-.65,1.84,1.15.88,2.1,1.76,2.96,2.64.77-.69,1.24-.79,1.78-.78,1.17.03,2.04.66,2.81.62.52-.03,1.08-.36,1.4-1.03-1.87.25-2.36-1.23-4.05-.76.09-.33.17-.36.25-.69-1.45.06-2.86-.36-3.72-1.7l-.8-.14Zm-1.3,1.37c-1.23-.87-2.09-1.37-4.26-1.63l.36-.83c1.89-.94,2.84-1.78,4.48-3.07.67-.53.86-.06.83.18-.19,1.88-.57,3.21-1.41,5.35h0Zm21.6,18.34l1.63,1.52c-1.12.49-3.01.52-5.47-.29-1.57-.51-3.67-1.25-5.41-2.64-.74-.59-.16-1.68.54-1.59,1.07.14,1.95.67,2.88,1.09,1.56.71,2.88,1.34,4.42,1.9.46.17.98.11,1.4,0h0Zm-1.55-4.59c.77.6,1.36,1.21,2.02,1.88.49-.32.63-.38,1.01-.69-.81-1.1-1.86-1.6-3.04-1.19h0Zm-25.21-16.24c-.76,2.52-2.94,1.69-4.99,2.32-1.85.57-3.03,1.85-3.66,3.26-.93,2.07-.83,4.82.41,7.73-1.25-.75-1.64-1.28-2.38-2.6-.69,2.96.38,5.34,2.19,7.34,2.48,2.74,6.82,5.39,7.63,8.94-1.9-1.47-3.01-2.07-4.62-3.04,1.45,3.67,3.1,8.31,6.98,10.08,2.16.99,4.79,1.63,7.83,1.06-.82,2.8-6.84.68-8.38,2.53,10.15.72,18.1,3.76,19.51,9.12-4.22-2.84-7.3-3.32-10.14-3.15-3.69.23-4.68,2.75-7.38,3.07-1.46.18-3.4-.77-4.96-2.32.14-1.86-.21-2.9-1.73-3.93-1.76-1.2-4.02-1.86-6.79-3.03-1.09-.46-2.68-1.6-3.87-2.46-6.83-4.92-9.45-9.96-10.26-13.22-1.16-4.68.48-9.76,3.79-13.75-.38,2.94.08,6.01,1.7,7.98,3.32,4.03,9,5.18,8.85,10.83.12.02.24.05.36.07.8-7.9-7.93-8.12-9.18-13.92-.34-1.58-.28-4.01.03-5.79.42-2.44,1.57-4.53,4.46-5.39-2.25,3.07-1.93,6.24-1.05,7.76.35.6.43.3.45-.24.16-4.31,2.06-5.95,4.4-7.48,2.91-1.91,6.87-2.4,10.79-1.78h0Zm-9.9,30.75l8.6,5.79c-4.23-.41-7.19-2.58-8.6-5.79h0Zm-11.96,2.31c-10.16-9.64-16.4-21.16-14.8-37.32-1.37,2.51-3.46,5.21-3.32,11.7.27,1.23.6,2.03.98,3.15.59,1.75,1.27,3.71,1.94,5,.27.51.54.97.79,1.38.37.59-.35.66-.5.4-1.98-3.46-2.99-5.91-3.78-8.4-1.05-3.31-1.76-6.69-2.07-11.67-1.59,1.88-3.04,7.76-.11,13.43.55,1.05-.43,1.1-.65.72-1.05-1.8-1.89-3.84-2.6-6.17-.36,2.28-.17,4.55.73,6.69,1.61,3.82,5.25,7.53,8.65,9.91.33.23.15.75-.4.36-5.5-4.02-9.39-9.03-11.48-14.58-.34,2.15.3,4.89.87,6.1,2.54,4.2,5.22,7.39,8.27,10.08,4.76,4.19,10.93,6.95,17.46,9.23h0Zm-13.09-10.27c2.08,1.12,3.94,2.22,5.44,3.8.17.18-.16.57-.4.33-1.73-1.76-3.09-2.42-5.29-3.73-.28-.16-.09-.58.25-.4h0Zm12.12,48.25l-10.59,4.57c-2.16.27-6.68.82-9.93-2.98,1.32-.48,6.25-1.76,9.23-2.03,1.35-.12,3.5,1.06,4.86.94,2.5.34,4.33-.24,6.43-.51h0Zm29.27-62.55c-.37.18-.66.43-.83.75-.2.39-.28.64-.02,1.32.37,0,.76,0,1.18.02-.23-.58-.39-1.54-.34-2.09h0Zm1.46,2.15c.32.02.66.05,1,.08.36.04.66.07.94.12.2-.94-.13-1.97-.74-2.47-.27,1.02-.62,1.66-1.2,2.27h0Zm-.71,2.35c-2.8-.86-5.4-.27-5.89-.69-1.15-.98-.72-3.11.11-4.05-.2,1.34-.06,2.53.38,2.86.95.7,3.91.3,5.39,1.88h0Z"/>
      <path class="cls-1" d="m187.07,41.95v1c.57-.76,1.46-1.22,2.43-1.22,1.67,0,3.03,1.36,3.03,3.03s-1.36,3.03-3.03,3.03c-.97,0-1.87-.46-2.43-1.22v3.28c.11.02.21.04.31.06l-.29-.24,1.58-.22c2.7-.38,4.99-.19,7.56.69,2.05.71,3.83,1.82,5.58,3.07,1.71-.56,3.37-.41,5.12.02l.95.23-.53.82s-.05.07-.07.11c.97-.12,1.97-.04,2.94.06,1.62.17,3.41.59,5.03.55.5-.01,1.01-.04,1.5-.18.37-.1.72-.28.98-.57.29-.32.4-.67.35-1.09-.03-.28-.11-.43-.34-.61l-.03-.03c-.43.37-.91.66-1.48.79-1.55.36-2.69-.32-4.02-.1-1.29.21-1.93-1.53-1.09-2.37l-1.58.03c-1.4.02-3.38-1.17-3.89-2.5l-.36-.95,1,.17c1.18.2,2.4.07,3.53-.28v-.04c-.16-.08-.58-.18-.71-.22-.58-.18-1.12-.44-1.39-1.03l-.07-.16.02-.18c.08-.87.51-1.9,1.27-2.38.46-.3,1.18-.17,1.66-.47.42-.26.79-.74,1.11-1.11.62-.73,1.23-1.27,2-1.5l-3.76-6.34c.66-.13,1.43-.17,2.15-.09,1.37.15,2.59.72,3.66,1.57l3.68-4.09,3.27,3.94c.16-.39.46-.7.91-.94,2.01-1.06,3.89-.41,5.43.79-1.09,1-2.03,1.95-2.57,3.38-.41,1.09-.45,2.12-.54,3.27,2.22.77,2.87,1.97,3.71,4.04.24.6.37,1.46.52,2.07-.45-.07-.81-.05-1.32-.25.24.43.48.82.7,1.18.89,1.52,1.07,3.42,1.09,5.14-.43-.43-.83-.7-1.2-.96-.39-.27-.33-.22-.32.24.06,2.39-.36,3.81-.79,4.88-.76,1.91-1.91,2.16-2.38,2.31-.06.18-.14.36-.22.54-1.06,2.28-3.23,3.12-5.13,4.51-1.3.95-2.3,2.46-2.69,4.02-.26,1.05-.25,2.29.15,3.31.19.49.59.92,1.01,1.24.55.43.94.63,1.27,1.3.5,1,.54,2.72.25,4.03.56.05,1.12.12,1.68.19.07-.6.15-1.21.26-1.81.08-.49.21-1.02.24-1.51.11-1.57-.26-3.22-.15-4.8.29.26.59.47.97.61.3.11.53.2.77.34h.11c-.54-1.05-.59-1.92.01-2.95.48-.83,1.2-1.51,2.14-2.3-.19.98.18.89.29,1.89.47-.47,1.09-.91,1.61-1.36-.02-1.8,1.47-3.04,3.37-3.68-.31.61-.24,1.14-.3,1.79,1.6-1.07,3.43-2.34,4.1-4.02.23-.59.38-1.67,0-2.24-.78-1.19-2.29-.44-3.09.32-.31.3-.68.57-1.09,1.41-.58,1.19-.81,2.09-1.45,2.82-.27.31-.5.44-.99.66-.14-.14-.38-.45-.34-.74-1.31,1.38-3.35,1-4.11.58,1.61-.94,2.4-1.77,3.54-3.63.64-1.03,1.29-2.45,2.07-3.25,1.04-1.07,2.36-1.9,4.14-1.92,3.78-.06,5.38,4.29,3.74,7.34-1.39,2.6-3.89,4.22-6.09,6.04-1.57,1.3-3.03,2.45-4.38,3.99-1.17,1.34-1.79,2.28-2.16,4.07-.19.93-.38,1.83-.54,2.75,1.7.29,3.35.63,4.9.99,1.27.3,1.4,1.22,1.01,2.27.55,1-.79,2.53-1.77,2.59.21,1.53.58,2.85.69,8.7.12,6.45-.52,12.74-1.87,19.12,2.33,1.94,5.5,6.25,6.07,7.37.98,1.94.45,5.04.34,7.19l-2.54-1.28c-1.38-.7-3.6-1.64-5.18-1.26-1.88.45-3.91,2.01-5.44,3.16-1.24.93-2.01,1.88-3.34,2.67-2.15,1.29-4.13,1.88-6.58,1.66-.77-.07-1.56-.21-2.06-1.43-.24-.59-.4-.64-.56-.7-.26-.08-.53.22-1.17.77-.93.79-1.72,1.68-2.84,2.21-1.14.53-2.5.43-3.67.15-1.29-.31-2.78-.78-3.67-1.78-1-1.11-.73-2.91-.36-4.24-.27-.03-.54-.06-.71-.1-1.7-.38-3.29-1.41-3.08-3.4.19-1.78,1.19-3.18,2.38-4.47,1.48-1.58,2.96-2.34,4.71-3.49.33-.22.66-.45.98-.68.22-.16.44-.29.66-.37l-2.49-7.6c-.28-.85-.69-1.64-1.38-2.24-1.47-1.28-3.03-2.39-4.49-3.72-1.6-1.46-1.81-3.54-.53-5.28l6.44-8.76c-.36-.25-.72-.5-1.09-.75-.6-.41-1.06-.72-1.29-1.48-.18-.59-.09-1.2.2-1.73.62-1.12,1.5-2.41,2.86-2.62.54-3.26.78-4.03,1.68-4.92-.69-1.55-1.24-3.22-.68-4.84-2.04-.35-4.04-.86-5.81-1.06-2.65-.3-4.84.93-7.58.55-1.93-.26-4-1.38-4.98-3.11l-.62-1.09,5.36.21c-.05-.14-.11-.28-.16-.42-.58.12-1.18.18-1.79.18-4.77,0-8.64-3.84-8.64-8.59,0-4.1,2.89-7.53,6.75-8.38v-3.34c-.57.76-1.46,1.22-2.43,1.22-1.68,0-3.03-1.36-3.03-3.03s1.35-3.03,3.03-3.03c.97,0,1.87.46,2.43,1.22v-1c-.8-.56-1.3-1.48-1.3-2.49,0-1.67,1.36-3.03,3.03-3.03s3.03,1.36,3.03,3.03c0,1-.49,1.93-1.3,2.49h0Zm6.11,12.42c.61,1.18.96,2.51.96,3.93,0,3.19-1.75,5.98-4.36,7.46.14.05.26.11.37.15,1.08.41,2.2.73,3.36.75,1.7.02,3.41.03,5.1-.05.13-.06.26-.13.38-.2l-.06-.15c-.93-2.24-.82-3.82.17-5.67-.25.07-.5.16-.76.28l-1.06.46.08-1.15c.09-1.14.64-2.14,1.44-2.94-1.57-.66-2.38-2.43-3.74-3.07-.59-.28-1.16-.22-1.72.11l-.17.1Z"/>
      <path class="cls-5" d="m204.4,83.74c6.25-3.39,12.39-3.69,24-1.09.48.11.38,1.44-.05,1.4-7.45-.62-16.38-.65-21.06.51-1,.25-.97.99-.38,1.77-.28.77-.8,1.91-1.36,2.68-.71.98-1.71,1.67-2.45,2.7-1.19,1.66-1.97,3.02-2.65,4.13-.67,1.1-.81,2.03-.32,3.3.3.78,1.2,1.39,2.14,1,.54-.22,1.18-1.1,1.41-1.82l.77-.63c-.45,1.32-.29,2.4.46,3.09.76.71,4.25.79,5.83,1.85.6.41.95,1.6,1.34,2.44.27.56-.09.71-.55.7-2.41-.1-5.75.27-6.88,1.29-.35.31-.4.56-.35.79.58,2.99,3.83,11.25,4.21,14.26.11.81-.49,1.4-1.44,1.43l-2.97.08c-.23,0-.38-.25-.37-.52l.27-6.95-2.87-8.79c-.5-1.51-1.21-2.44-1.93-3.06-1.06-.92-2.66-2.05-4.46-3.69-.95-.87-.96-1.91-.29-2.82l6.78-9.23c.25-.34.68-1.06.1-1.5-.94-.72-1.62-1.16-1.98-1.4-.38-.26-.72-.41-.51-.79.38-.68.97-1.61,1.52-1.69,1.1-.16,2.99.12,4.03.55h0Z"/>
      <path class="cls-5" d="m203.11,117.9c.07,1.9.06,3.79-.01,5.84-.7.73-.62,1.88.55,2.03,1.2.16,3.27.14,4.62-.11.84-.15,1.11-.5,1.32-1.36,1.68-.49,3.98-1.15,5.79-2.4,2.06-1.41,4.88-4.37,6-5.29.63-.52,3.22-1.3,5.09-1.77,2.49,2.62,4.15,4.57,5.81,7.3.38.63.35,2.4.32,3.03-1.72-.87-4.29-1.92-6.45-1.41-3.37.8-6.56,4.12-9.76,6.04-1.68,1-2.79,1.11-5.45,1.29-.54-1.84-.61-2.8-1.39-2.86-.9-.06-1.86.79-2.84,1.55-1.11.86-2.21,2-3.15,2.43-.78.37-1.52.17-2.1.03-1.07-.25-2.23-.86-2.78-1.47-.39-.43-.12-1.53.23-2.74.14-.48.29-1.32-.28-1.59-.56-.27-1.2-.2-1.94-.36-.83-.19-1.74-.52-1.65-1.39.13-1.16.67-2.15,1.8-3.35,1.38-1.48,2.78-2.16,4.38-3.21.37-.25.72-.49,1.06-.74.5-.37.8-.1.82.5h0Z"/>
      <path class="cls-5" d="m227.57,89.09c.58,8.44.29,16.31-1.38,24.19-.14.64-.59.69-1.23.43-.66-.27-1.16-1.02-1.19-1.51-.15-2.76.26-5.44.57-8.1l-1.5-1.66c-.33-.36-1.19-.39-1.4.31l-1.2,3.84-2.18-1.14c-.8-.42-1.2-.07-1.2.73l.05,4-1.56.1c-.6.04-1,.14-1.04.78l-.21,3.84c-.05.88-1.43,1.07-1.66.1l-.78-3.22,4.73-8.52,1.05.95c.16.14.7,0,.82-.17l2.7-3.9-3.17-5.35c-.33-.56-1.02-.93-1.09-.93.24-1.66.28-2.6.31-4.05.25-.24,1.01-.95,1.61-.93,1.39,1.64,2.51,5.53,3.27,9.64.09.5.21.95.43,1.42.43.95,1.86.55,1.53-.57-.31-1.05-.39-2.05-.13-2.92.28-.96.52-1.3.9-1.97.29-.51.43-.96.44-1.55v-2.11c.01-.43.03-.7.34-1.05.42-.49,1.19-1.08,1.71-1.21.49-.13.45.45.46.52h0Z"/>
      <path class="cls-5" d="m215.2,94.23l-1.71,1.45-2.59,4.92,1.81,1.62c.54.48,1.34.26,1.92-.06.24-.13.98-.82,1.52-2.12.46-1.09.63-3.74.36-4.22-.31-.55-1.11-1.39-1.31-1.59h0Z"/>
      <path class="cls-5" d="m215.98,90.34v3.16c-1.76.1-3.52,1.61-5.03,3.27l-.83-3.42c-.64-.95-1.02-1.65-1.09-2.49-.12-1.25.43-2.48,1.15-3.83,1.95,2.28,3.6,3.21,5.81,3.32h0Z"/>
      <path class="cls-4" d="m219.77,79.26c.3-1.2.26-2.84-.17-3.68-.27-.55-.65-.73-1.08-1.07-.52-.4-.99-.93-1.23-1.53-.38-.97-.52-2.33-.17-3.73.38-1.53,1.38-3.27,2.96-4.42,1.91-1.39,4.06-2.18,5.01-4.24.53-1.14.54-2.12.65-3.96.55.62.85,1.19,1.4,2.13,1.13-1.58,1.35-4,1.17-6.52-.02-.2-.19-.85.66-.45.42.2.5.23.82.43-.15-2.52-1.99-4.05-2.39-5.71.19.04.97.31,1.87.36-1.16-2.98-1.73-3.98-4.21-4.67.3-2.02-.09-2.7.21-3.95-1.75-.05-2.53,1.36-2.92,2.63-.3.98-.25,1.96-.86,2.68-.32.38-.85-.1-.57-.42.64-.73.46-1.64.78-2.54-2.46-1.27-5.67-.76-6.59.27-2.3-.4-2.8,1.73-4.14,2.56-.59.37-1.41.31-1.66.47-.26.17-.86.77-.95,1.86.36.82,1.94.6,2.09,1.29.18.52.53,1.09.86,1.4.61-1.52,1.01-2,1.82-1.92,1.27.11,2.77,1.09,3.03,2.25.12.52,0,1.16-.25,1.98-.41.18-1.02.21-1.38.18l-1.25.02c-.34,0-.89.07-1.4.23-.78.26-.45,1.46.21,1.35,1.42-.23,2.49.45,3.97.11.58-.14,1.09-.49,1.66-1.12.95-1.06.87-1.86,1.08-2.73.1-.41.2-.63.64-.79.51-.19,1.3-.24,1.85-.13-.07-.38-.29-.7-.53-1.05-.31-.45.24-.87.57-.41.36.31.78,1.45.81,2.2-1.11-.2-2.14-.31-2.7.21-.25,1.24-.42,2.23-1.27,3.19.37.3.55.62.59,1.08.06.6-.1,1.16-.53,1.63-.33.37-.78.62-1.32.77-.52.15-1.05.19-1.66.21-1.53.04-3.42-.38-5.12-.55-1.7-.18-2.84-.18-3.89.19l-.28-.64c.21-.12.59-.47.8-.79-2.21-.55-3.7-.45-5.06.08-1.88-1.36-3.64-2.47-5.7-3.18-2.33-.81-4.47-1.05-7.23-.66.64.52,1.56,1.3,2.39,1.58.65.22,1.54-.35,2.12-.44.76-.12.59.77.18.81-.52.04-1.18.22-1.32.57-.14.36.46.69.85,1.01.9-.52,1.71-.44,2.36-.14,1.43.67,2.47,2.67,3.93,3.13.46-.29,2.43-1.54,3.09-1.33.25.08.15.61-.1.68-3.02.85-4.12,2.99-4.21,4.21.83-.36,1.56-.52,2.39-.52-1.85,2.72-1.73,4.24-.88,6.29,1.55-.94,2.91-2.56,4.5-2.92.29-.07.75-.09,1.06-.04.31.04.35.58.05.67-.38.12-.93,0-1.25.15-2.04.96-3.3,2.59-5.15,3.44-1.58.08-3.28.09-5.29.05-2.66-.04-5-1.56-5.76-1.57.14.55.49,1.42.83,2.07l-5.24-.21c.7,1.22,2.34,2.48,4.47,2.76,2.85.39,4.59-.89,7.57-.55,3.83.44,9.63,2.59,13.33.54,1.7-.94,2.74-1.97,3.55-4.68.2-.67.93-.31.78.21-.93,3.12-2.57,4.6-4.57,5.46-2,.85-4.35.86-6.7.41-.44,1.25-.07,2.66.47,3.95.49-1.26,1.25-2.09,2.13-1.88,1.01.24,1.16,1.25,1.18,2.68.9-1.14,2.05-1.92,3.27-1.8,1.66.17,3.51,1.71,4.76,4.5l6.2.02Zm-6.77-35.47l.21-.03c.29-.51.64-.88,1.1-1.12.08.57.37,1.09.77,1,.44-.09.48-.79.34-1.3.67-.05,1.5.04,2.54.3-2.04-.77-4.04-.76-4.95,1.14h0Z"/>
      <path class="cls-4" d="m225.59,38.86c.43-1.38,1-2.52,2.34-3.74-1.24-.84-2.69-.94-3.99-.25-.61.32-.72.79-.71,1.27,0,.22-.35.34-.49.18l-3.32-4-4,4.44c-.11.12-.39.1-.46-.14-.06-.18.03-.62.15-.9-1.07-.86-2.65-1.38-4-1.27l2.53,4.28c3.33-2.01,8.36-1.72,11.31.6l.07.06.58-.52Zm-11.8.14l.84,1.42,8.41.73,1.72-1.54-.03-.02c-2.84-2.23-7.73-2.52-10.94-.58h0Z"/>
      <path class="cls-4" d="m224.35,79.79c.16-1.08.34-2.04.5-2.83.42-2.02,1.15-3.03,2.29-4.33,1.4-1.61,2.79-2.7,4.49-4.11,2.04-1.68,4.51-3.25,5.85-5.76,1.53-2.87-.02-6.44-3.17-6.39-2.88.05-4.3,2.16-5.67,4.38-.82,1.33-1.61,2.66-3.16,3.67,1.26.34,2.53-.06,3.43-1.32,0,.4.11.8.26,1.12,1.3-.63,1.31-2.21,2.07-3.67.23-.44.58-.85.95-1.2,1.12-1.07,2.99-1.72,3.97-.21.5.78.3,1.82.02,2.54-.88,2.21-3.3,3.91-5.32,5.14.31-.82.24-1.58.39-2.21-1.59.54-2.35,1.91-2.29,3.27-1.09.9-1.69,1.49-2.59,2.47.15-.95-.21-1.8-.06-2.59-.99.94-1.83,1.83-1.84,2.82,0,.59.05,1.14.73,1.91l-.87.53c-.63-.48-.97-.4-1.44-.73.08,1.05.22,2.22.25,3.5.02.95-.29,1.66-.52,3.77.58.08,1.16.16,1.73.25h0Z"/>
      <path class="cls-5" d="m210.05,47.84c-1.36.43-2.68.52-3.87.32.35.92,1.97,2.15,3.34,2.13l3.49-.06,1.18-1.24.76,1.23c.13,0,.27-.02.39-.05.11-.41.22-.92.14-1.27-.21-.92-1.54-1.64-2.42-1.72-.61-.05-.94,1.06-1.11,1.49l-.38.95-.75-.71c-.29-.28-.57-.68-.78-1.08h0Z"/>
      <path class="cls-4" d="m185.5,50.4c1.25,0,2.43.29,3.48.8.12.09.23.18.35.27h-7.72l-4.01,5.97c.43-3.95,3.8-7.03,7.9-7.03h0Zm5.1,1.84c.32.26.61.55.88.86.09.25.3.47.52.66.78,1.11,1.29,2.43,1.41,3.86l-3.81-5.96c.32.22.65.43.99.58h0Zm2.83,6.52c-.17,2.93-1.95,5.44-4.49,6.65-.45-.17-.9-.32-1.2-.33l-.9-.02.22.88.02.09c-.51.11-1.04.16-1.58.16-4.1,0-7.48-3.09-7.9-7.06l3.91,5.89h8.11l3.81-6.26Z"/>
      <rect class="cls-7" x="180.6" y="53.88" width="9.77" height="8.94"/>
      <path class="cls-6" d="m182.04,52.27h6.99l.73,1.14h-8.49l.77-1.14Zm8.8,2.83l1.98,3.09-1.98,3.25v-6.34Zm-1.12,8.18l-.56.92h-7.23l-.61-.92h8.4Zm-9.58-1.77l-2.14-3.23,2.14-3.19v6.41Z"/>
      <path class="cls-4" d="m186.38,41.55v2.22h1c.37-.8,1.18-1.36,2.12-1.36,1.29,0,2.34,1.05,2.34,2.34s-1.05,2.34-2.34,2.34c-.9,0-1.67-.5-2.07-1.24h-1.06v3.89c-.29-.03-.59-.04-.88-.04-.41,0-.81.03-1.2.08v-3.93h-1.06c-.39.74-1.17,1.24-2.06,1.24-1.29,0-2.34-1.05-2.34-2.34s1.04-2.34,2.34-2.34c.94,0,1.75.55,2.12,1.36h1v-2.22c-.77-.38-1.3-1.18-1.3-2.09,0-1.29,1.04-2.34,2.34-2.34s2.34,1.05,2.34,2.34c0,.92-.53,1.71-1.3,2.09h0Z"/>
      <path class="cls-5" d="m159.87,243.9c.15-.5.2-.97.17-1.42-.03-.44-.15-.85-.38-1.22-.17-.29-.41-.55-.72-.79-.31-.24-.71-.47-1.2-.68l-1.28-.56c-.22-.1-.41-.21-.57-.34-.15-.13-.27-.26-.35-.39-.09-.15-.14-.3-.15-.45-.01-.16,0-.3.04-.45.07-.26.2-.48.39-.66.19-.18.43-.3.73-.35.29-.05.64-.03,1.03.08.25.07.5.16.76.27.25.11.5.26.73.44.23.18.43.43.61.71l1.78-.99c-.23-.4-.5-.75-.82-1.05-.31-.3-.67-.55-1.08-.76s-.87-.39-1.39-.53c-.61-.17-1.19-.24-1.71-.21-.54.03-1.01.15-1.44.36-.43.21-.79.5-1.08.87-.3.37-.52.81-.66,1.31-.13.47-.18.91-.15,1.32.03.41.14.78.33,1.12.19.32.44.6.76.86.32.26.71.49,1.17.69l1.31.57c.17.07.3.14.41.21.12.07.21.14.29.22.07.07.14.15.19.24.09.14.13.31.15.48.01.18-.01.37-.07.57-.13.45-.4.75-.8.9-.41.14-.94.12-1.59-.06-.35-.09-.68-.22-.99-.37-.31-.15-.59-.34-.83-.56-.25-.22-.47-.49-.64-.79l-1.83,1.03c.27.48.57.88.93,1.22.36.34.77.62,1.23.85.46.23.98.43,1.55.58.6.17,1.17.24,1.72.24.55,0,1.05-.11,1.51-.29.46-.19.86-.46,1.19-.83.33-.37.57-.82.73-1.37h0Z"/>
      <path class="cls-5" d="m167.98,249.77l.55-1.97-5.24-1.47.77-2.75,4.46,1.25.55-1.97-4.46-1.25.74-2.65,5.24,1.47.55-1.97-7.45-2.09-3.16,11.3,7.44,2.08Z"/>
      <path class="cls-5" d="m179.91,253.11l3.16-11.3-2.17-.61-4.65,5.29-1.24-6.94-2.18-.6-3.16,11.3,2.21.62,1.84-6.59.98,4.89,1.49.42,3.36-3.68-1.85,6.59,2.21.62Z"/>
      <path class="cls-5" d="m192.35,248.2c.14-.49.18-.96.12-1.44-.05-.47-.19-.91-.42-1.32-.23-.41-.55-.78-.96-1.09-.41-.31-.9-.55-1.49-.72l-4.38-1.23-3.16,11.3,2.21.62,1.19-4.25,2.17.61c.59.16,1.14.21,1.64.16.52-.06.98-.2,1.39-.43.41-.23.76-.54,1.05-.92.29-.38.5-.8.64-1.29h0Zm-2.21-.62c-.09.31-.23.56-.42.75-.2.19-.44.32-.72.38-.28.06-.59.05-.92-.05l-2.06-.58.87-3.09,2.06.58c.34.1.61.24.81.44.21.2.35.43.41.7.07.27.06.56-.03.87h0Z"/>
      <path class="cls-5" d="m199,258.45l.55-1.97-5.24-1.46.77-2.75,4.46,1.25.55-1.97-4.46-1.25.74-2.65,5.24,1.47.55-1.97-7.45-2.09-3.16,11.3,7.44,2.08Z"/>
      <path class="cls-5" d="m209.24,261.32l-1.16-5.58c.31-.02.61-.09.9-.19.29-.11.57-.25.83-.45.26-.19.49-.43.69-.73.2-.29.35-.63.47-1.03.13-.48.17-.95.13-1.41-.05-.46-.19-.9-.42-1.3-.22-.4-.54-.76-.94-1.07-.4-.3-.89-.54-1.47-.71l-4.42-1.24-3.16,11.31,2.21.62,1.26-4.51,1.59.45.95,5.12,2.55.71Zm-.47-8.59c-.08.29-.22.53-.42.72-.19.19-.43.31-.7.37-.28.06-.58.04-.9-.04l-2.08-.59.83-2.98,2.08.58c.32.09.59.24.79.43.2.19.34.42.41.68.07.26.07.54-.02.83h0Z"/>
      <path class="cls-5" d="m231.63,248.36l-.54-1.97-7.46,2.04,3.1,11.32,2.21-.61-1.26-4.59,4.47-1.23-.54-1.97-4.47,1.22-.76-2.78,5.25-1.44Z"/>
      <path class="cls-5" d="m237.85,256.71l-3.1-11.32-2.21.6,3.1,11.32,2.21-.6Z"/>
      <path class="cls-5" d="m246.5,248.2c-.11-.43-.22-.84-.34-1.25-.11-.41-.25-.79-.42-1.15-.16-.37-.38-.7-.64-1.01-.26-.31-.59-.58-.99-.81-.48-.27-1-.42-1.56-.46-.56-.04-1.14.03-1.73.2l-4.09,1.12,3.1,11.32,4.09-1.12c.59-.16,1.12-.4,1.58-.71.46-.32.83-.71,1.11-1.19.23-.4.37-.81.44-1.21.06-.41.07-.82.02-1.22-.05-.41-.13-.82-.24-1.24-.11-.41-.22-.84-.35-1.26h0Zm-2.21.61c.16.57.28,1.05.36,1.44.09.4.13.73.13,1.01s-.04.51-.13.71c-.12.28-.3.52-.54.71-.23.19-.54.34-.92.44l-1.67.46-2.02-7.38,1.67-.46c.38-.1.72-.14,1.02-.09.3.04.57.16.82.34.14.1.26.22.37.36.11.15.21.33.31.55.09.21.19.48.29.79.09.31.2.68.32,1.11h0Z"/>
      <path class="cls-5" d="m257.46,251.33l-.54-1.97-5.25,1.44-.75-2.75,4.47-1.23-.54-1.97-4.47,1.22-.73-2.66,5.25-1.44-.54-1.97-7.46,2.04,3.1,11.32,7.46-2.04Z"/>
      <path class="cls-5" d="m266.5,248.86l-.54-1.97-5.14,1.41-2.56-9.35-2.21.61,3.1,11.32,7.34-2.01Z"/>
      <path class="cls-5" d="m270.03,247.9l-3.11-11.32-2.21.61,3.1,11.32,2.21-.6Z"/>
      <path class="cls-5" d="m278.75,241.91c-.14-.5-.33-.94-.58-1.3-.25-.37-.57-.65-.95-.85-.3-.16-.64-.26-1.02-.31-.39-.05-.85-.04-1.38.03l-1.39.17c-.24.03-.46.03-.66,0-.2-.03-.37-.08-.51-.16-.15-.08-.27-.18-.36-.31-.09-.12-.16-.26-.2-.41-.07-.26-.07-.52,0-.77.07-.25.22-.48.44-.68.22-.2.53-.35.92-.46.25-.07.51-.12.79-.16.27-.04.56-.03.85,0s.59.14.89.3l1.02-1.77c-.41-.22-.82-.38-1.24-.48-.42-.09-.86-.12-1.32-.1-.46.03-.95.12-1.46.26-.61.17-1.14.41-1.58.7-.44.3-.79.65-1.05,1.05-.26.4-.42.83-.48,1.3-.07.47-.03.96.11,1.46.13.48.32.88.56,1.21.23.34.52.6.87.79.32.18.68.29,1.09.35.41.06.86.05,1.36,0l1.42-.18c.18-.02.34-.04.47-.03.13,0,.25.01.35.04.1.02.2.06.29.11.15.08.28.19.38.34.1.14.18.32.23.52.12.46.05.85-.23,1.18-.28.33-.74.59-1.39.77-.35.1-.7.16-1.04.19-.34.03-.68.02-1-.05-.33-.06-.64-.18-.95-.35l-1.04,1.82c.47.27.95.46,1.43.57.48.1.98.13,1.49.09.52-.03,1.06-.14,1.62-.3.6-.16,1.12-.39,1.59-.68.46-.29.85-.63,1.15-1.03.3-.4.5-.84.59-1.32.09-.48.07-1-.08-1.55h0Z"/>
      <path class="cls-5" d="m48.89,345.95v-7.85h-15.54v-6.29h13.28v-7.85h-13.28v-5.93h15.54v-7.85h-24.35v35.76h24.35Z"/>
      <path class="cls-5" d="m83.39,345.95l-11.17-18.34,10.46-17.43h-10.01l-5.23,10.09-5.23-10.09h-10.01l10.46,17.43-11.16,18.34h10.06l5.89-11,5.88,11h10.06Z"/>
      <path class="cls-5" d="m111.36,345.95v-7.85h-15.55v-6.29h13.28v-7.85h-13.28v-5.93h15.55v-7.85h-24.35v35.76h24.35Z"/>
      <path class="cls-5" d="m141.66,318.04v-7.85h-26.41v7.85h8.81v27.92h8.8v-27.92h8.81Z"/>
      <path class="cls-5" d="m171.14,345.95v-7.85h-15.54v-6.29h13.28v-7.85h-13.28v-5.93h15.54v-7.85h-24.35v35.76h24.35Z"/>
      <path class="cls-5" d="m205.46,345.95l-7.75-14.91c.72-.36,1.42-.8,2.11-1.37.69-.56,1.31-1.23,1.87-2,.56-.77,1.01-1.66,1.35-2.65.34-1,.5-2.11.51-3.32,0-1.18-.17-2.33-.51-3.46-.34-1.12-.84-2.16-1.5-3.13-.67-.97-1.49-1.83-2.47-2.57-.98-.73-2.12-1.31-3.41-1.73-1.29-.41-2.73-.62-4.32-.63h-14.19v35.76h8.8v-13.3h2.97l6.34,13.3h10.21Zm-10.71-24.25c0,.63-.15,1.21-.45,1.76-.3.55-.74.99-1.31,1.34-.57.34-1.26.51-2.06.52h-4.98v-7.23h4.98c.8,0,1.49.18,2.06.52.57.34,1,.79,1.31,1.33.3.54.45,1.13.45,1.76h0Z"/>
      <path class="cls-5" d="m249.89,334.58h-8.96c-.18.68-.43,1.31-.79,1.89-.34.58-.82,1.04-1.42,1.39-.61.35-1.4.54-2.36.54-.81,0-1.51-.15-2.1-.44-.59-.27-1.05-.64-1.38-1.07-.2-.25-.39-.56-.55-.91-.17-.36-.31-.85-.43-1.47-.12-.62-.21-1.45-.28-2.49-.07-1.04-.1-2.37-.1-3.99s.03-2.95.1-3.99c.07-1.05.16-1.88.28-2.49.12-.62.26-1.11.43-1.46.17-.35.35-.66.55-.91.33-.44.79-.8,1.38-1.07.59-.29,1.29-.43,2.1-.43.96,0,1.75.19,2.36.54.6.35,1.08.81,1.42,1.39.35.58.61,1.21.79,1.89h8.96c-.34-1.98-.91-3.69-1.72-5.16-.82-1.46-1.82-2.67-3.02-3.64-1.2-.96-2.55-1.68-4.04-2.16-1.5-.48-3.1-.71-4.8-.71-2.08,0-3.93.34-5.57,1.03-1.63.68-3.09,1.68-4.39,2.99-.93.95-1.65,1.96-2.16,3.05-.51,1.09-.86,2.23-1.07,3.44-.2,1.2-.33,2.45-.36,3.74-.03,1.29-.04,2.61-.03,3.96,0,1.35,0,2.67.03,3.96.04,1.29.16,2.54.36,3.74.21,1.21.56,2.35,1.07,3.44.5,1.09,1.23,2.1,2.16,3.05,1.3,1.31,2.77,2.3,4.39,2.99,1.63.68,3.48,1.02,5.57,1.03,1.7,0,3.3-.23,4.8-.71,1.49-.48,2.84-1.19,4.04-2.16,1.2-.96,2.2-2.18,3.02-3.64.81-1.46,1.38-3.18,1.72-5.16h0Z"/>
      <rect class="cls-8" x="254.29" y="310.19" width="8.8" height="35.77"/>
      <path class="cls-5" d="m294.63,318.04v-7.85h-26.41v7.85h8.8v27.92h8.81v-27.92h8.8Z"/>
      <path class="cls-5" d="m326.34,310.19h-9.61l-5.59,12.86-5.63-12.86h-9.61l10.81,21.2v14.57h8.8v-14.57l10.81-21.2Z"/>
      <path class="cls-5" d="m365.48,318.04v-7.85h-24.35v35.76h8.8v-13.84h13.28v-7.84h-13.28v-6.24h15.54Z"/>
      <path class="cls-5" d="m396.8,334.58h-8.95c-.18.68-.44,1.31-.79,1.89-.34.58-.82,1.04-1.43,1.39-.61.35-1.4.54-2.36.54-.8,0-1.51-.15-2.1-.44-.59-.27-1.05-.64-1.38-1.07-.2-.25-.38-.56-.55-.91-.17-.36-.31-.85-.43-1.47-.12-.62-.21-1.45-.28-2.49-.07-1.04-.1-2.37-.1-3.99s.03-2.95.1-3.99c.07-1.05.16-1.88.28-2.49.12-.62.26-1.11.43-1.46.17-.35.35-.66.55-.91.33-.44.79-.8,1.38-1.07.59-.29,1.29-.43,2.1-.43.96,0,1.75.19,2.36.54.61.35,1.08.81,1.43,1.39.35.58.61,1.21.79,1.89h8.95c-.34-1.98-.91-3.69-1.72-5.16-.81-1.46-1.82-2.67-3.02-3.64-1.2-.96-2.55-1.68-4.04-2.16-1.5-.48-3.1-.71-4.8-.71-2.08,0-3.93.34-5.57,1.03-1.62.68-3.09,1.68-4.39,2.99-.93.95-1.65,1.96-2.15,3.05-.51,1.09-.86,2.23-1.07,3.44-.2,1.2-.33,2.45-.36,3.74-.03,1.29-.04,2.61-.03,3.96,0,1.35,0,2.67.03,3.96.03,1.29.16,2.54.36,3.74.21,1.21.56,2.35,1.07,3.44.5,1.09,1.22,2.1,2.15,3.05,1.3,1.31,2.77,2.3,4.39,2.99,1.64.68,3.49,1.02,5.57,1.03,1.7,0,3.3-.23,4.8-.71,1.49-.48,2.84-1.19,4.04-2.16,1.2-.96,2.21-2.18,3.02-3.64.81-1.46,1.38-3.18,1.72-5.16h0Z"/>
    </g>
  </g>
</svg>