<?xml version="1.0" encoding="UTF-8"?>
<svg id="Layer_2" data-name="Layer 2" xmlns="http://www.w3.org/2000/svg" xmlns:xlink="http://www.w3.org/1999/xlink" viewBox="0 0 431.76 416.88">
  <defs>
    <style>
      .cls-1 {
        clip-path: url(#clippath);
      }

      .cls-2 {
        fill: none;
      }

      .cls-2, .cls-3, .cls-4, .cls-5, .cls-6, .cls-7, .cls-8, .cls-9 {
        stroke-width: 0px;
      }

      .cls-3 {
        fill: #03036d;
      }

      .cls-3, .cls-4, .cls-5, .cls-6, .cls-7, .cls-8, .cls-9 {
        fill-rule: evenodd;
      }

      .cls-4 {
        fill: #090663;
      }

      .cls-5 {
        fill: #4e8f38;
      }

      .cls-6 {
        fill: #a90611;
      }

      .cls-7 {
        fill: #ad060f;
      }

      .cls-8 {
        fill: #fff;
      }
    </style>
    <clipPath id="clippath">
      <rect class="cls-2" width="431.76" height="416.88"/>
    </clipPath>
  </defs>
  <g id="Layer_1-2" data-name="Layer 1">
    <g>
      <path class="cls-9" d="m410.4,53.95l-2.23-4.8,4.94-2.29,2.23,4.8-4.94,2.29Z"/>
      <path class="cls-9" d="m380.52,40.76l6.48,17.46,3.75-1.52c1.48-.6,2.59-1.01,3.21-1.41.8-.53,1.34-1.2,1.74-1.91.39-.72.53-1.79.48-3.09-.05-1.3-.43-2.96-1.15-4.97-.72-2.02-1.45-3.49-2.2-4.44-.75-.95-1.55-1.61-2.43-1.98-.87-.37-1.84-.48-2.93-.33-.8.1-2.32.54-4.52,1.33l-2.42.86Zm-7.25-2.86l10.12-3.31c2.46-.8,3.94-1.34,5.27-1.28,1.71.08,3.36.18,4.89.93,1.53.75,2.88,2.02,4.06,3.49,1.18,1.45,2.2,3.41,3.07,5.85.77,2.14,1.25,4.09,1.26,5.84,0,2.14-.37,4.08-1.19,5.69-.63,1.22-1.57,2.48-2.98,3.54-1.06.8-2.59,1.76-4.59,2.47l-10.17,3.62-9.75-26.83Z"/>
      <path class="cls-9" d="m371.55,67.64l-1.4-5.11,5.25-1.44,1.4,5.11-5.25,1.44Z"/>
      <path class="cls-9" d="m337.94,45.84l6-1.14,2.38,15.32c.37,2.36.74,3.86,1.01,4.52.43,1.07,1.16,1.88,2.18,2.39,1.03.52,2.32.64,3.89.36,1.59-.28,2.73-.8,3.43-1.59.7-.78,1.04-1.65,1.04-2.61s-.19-2.52-.57-4.67l-2.72-15.64,5.68-1,2.59,14.89c.57,3.27.83,5.61.77,7.02-.07,1.41-.43,2.64-1.09,3.72-.65,1.07-1.62,2-2.89,2.8-1.28.79-3.02,1.39-5.23,1.78-2.67.47-4.75.52-6.23.16-1.48-.36-2.71-.95-3.68-1.77-.97-.82-1.67-1.73-2.11-2.75-.65-1.49-1.23-3.77-1.77-6.82l-2.66-14.97Z"/>
      <path class="cls-9" d="m316.31,63.81l-3.6-9.96-3.85,9.77,7.45.19Zm10.56,11.27l-6.35.04-2.53-6.36-10.82-.27-2.58,6.41-6.27-.14,11.4-28.14,6.41.17,10.75,28.28Z"/>
      <path class="cls-9" d="m271.58,70.65l4.18-27.83,11.88,1.77c3.01.45,5.2,1.14,6.5,1.83,1.3.69,2.3,1.79,2.93,3.17.64,1.38.66,3.09.43,4.7-.3,2.06-1.16,3.66-2.59,4.82-1.43,1.16-3.41,1.73-5.93,1.72,1.13.87,2.03,1.79,2.7,2.73.68.95,1.62,2.56,2.58,4.91l2.52,6.16-7.02-.99-3.11-6.71c-1.09-2.36-1.93-3.89-2.39-4.52-.46-.62-.76-1.2-1.34-1.49-.58-.29-1.52-.54-2.84-.72l-1.16-.17-1.66,11.43-5.71-.83Zm8.16-15.31l4.14.82c2.7.54,4.32.46,5.04.34.71-.12,1.23-.33,1.71-.81.48-.47.84-1.06.97-1.89.13-.92.05-1.74-.38-2.39-.42-.64-1.15-1.06-2.05-1.34-.45-.14-1.65-.5-3.95-.87l-4.42-.71-1.06,6.85Z"/>
      <path class="cls-9" d="m250.07,36.08l5.81,1.5-4.16,14.44c-.66,2.29-1.06,3.78-1.11,4.5-.09,1.15.21,2.19.89,3.11.69.92,1.65,1.71,3.18,2.16,1.54.46,2.95.55,3.92.16.97-.39,1.74-1.18,2.17-2.04.43-.86.93-2.31,1.51-4.42l4.14-15.1,5.63,1.68-4.03,14.33c-.9,3.2-1.76,5.39-2.45,6.62-.69,1.23-1.57,2.38-2.64,3.05-1.07.67-2.38,1.15-3.88,1.28-1.5.14-3.6-.14-5.76-.78-2.6-.77-4.45-1.73-5.61-2.72-1.16-.98-1.81-2.22-2.31-3.39-.5-1.17-.64-2.3-.57-3.4.09-1.63.65-3.91,1.46-6.9l3.82-14.09Z"/>
      <path class="cls-9" d="m225.42,36.66l-2.29,18.17,4.24.53c1.59.2,2.74.25,3.47.17.95-.11,1.76-.39,2.44-.85.68-.46,1.38-1.24,1.82-2.46.43-1.18.66-2.84.93-4.96.27-2.12.31-3.73.07-4.92-.24-1.18-.67-2.14-1.28-2.86-.61-.72-1.19-1.3-2.22-1.66-.77-.27-2.32-.56-4.63-.85l-2.55-.32Zm-5.28-5.43l10.55,1.38c2.64.35,4.18.27,5.3,1.2,1.33,1.1,2.9,1.7,3.93,3.06,1.03,1.36,1.74,2.95,2.14,4.79.39,1.82.42,4.03.1,6.6-.29,2.26-.88,4.14-1.6,5.73-.89,1.95-2.17,3.4-3.63,4.47-1.11.81-2.4,1.41-4.1,1.9-1.31.37-3.36.36-5.46.09l-10.54-1.39,3.32-27.83Z"/>
      <path class="cls-9" d="m205.3,49.46l-5.25-9.29-2.27,10.35,7.52-1.06Zm12.15,9.75l-6.36.88-3.47-5.98-10.77,1.43-1.62,6.72-6.09.99,7.08-29.57,5.96-.9,15.28,26.41Z"/>
      <path class="cls-9" d="m160.88,70.04l-6-27.75,8.81-1.74,8.84,17.66.72-19.73,8.74-1.77,5.79,27.68-5.46.91-4.45-21.95-.64,23.3-5.53,1.09-10.18-20.29,4.87,21.42-5.5,1.16Z"/>
      <path class="cls-9" d="m134.11,73.2l-3.67-27.82,21.11-2.74.61,4.84-15.04,1.86.69,5.98,13.87-1.47.61,4.64-14.05,1.75.97,7.61,15.66-2.14.61,4.64-21.38,2.85Z"/>
      <path class="cls-9" d="m104.39,74.04l-.38-28.29,12.04-.2c3.04-.05,5.19.31,6.57.78,1.39.47,2.51,1.34,3.36,2.59.85,1.26,1.43,2.7,1.46,4.34.04,2.08-.7,3.81-1.93,5.18-1.23,1.37-3.09,2.25-5.57,2.65,1.25.68,2.28,1.44,3.1,2.27.82.83,1.9,2.33,3.34,4.44l4.09,6-7.4-.03-4.22-6.5c-1.42-2.18-2.72-3.32-3.29-3.87-.55-.54-1.17-.87-1.78-1.07-.62-.2-1.17-.37-2.49-.35l-1.17.02.29,11.9-6.01.13Zm5.72-16.58l3.97-.03c2.76-.02,4.47-.19,5.16-.43.68-.23,1.21-.64,1.59-1.2.38-.56.56-1.26.55-2.09-.02-.93-.29-1.68-.81-2.25-.52-.57-1.25-.92-2.18-1.05-.47-.06-1.87-.07-4.2-.03l-4.27.07.18,7Z"/>
      <path class="cls-9" d="m85.38,72.33l2.35-23.24-8.04-.75.36-4.76,22.37,2.36-.54,4.76-8.44-1-2.32,23.42-5.74-.79Z"/>
      <path class="cls-9" d="m48.98,65.72l12.99-12.32-5.61-15.12,6.76,1.6,3.4,9.92,7.27-7.51,6.77,1.57-11.75,11.38,6.39,16.44-7.19-1.64-3.74-10.83-8.19,8.04-7.11-1.52Z"/>
      <path class="cls-9" d="m25.82,56.24l10.36-26.07,19.6,7.76-1.72,4.35-14.24-5.43-2.26,5.71,13.13,5.28-1.72,4.35-13.31-5.14-2.76,6.97,14.75,5.84-1.72,4.34-20.12-7.97Z"/>
      <g class="cls-1">
        <path class="cls-4" d="m47.8,202.14h-3.4l-1.34-3.63h-6.25l-1.29,3.63h-3.34l6.05-15.95h3.34l6.25,15.95Zm-5.77-6.32l-2.17-5.9-2.1,5.9h4.27Zm7.53,6.32v-15.81h3.16v13.11h7.82v2.7h-10.97Zm13.17,0v-15.95h4.73l2.8,10.88,2.76-10.88h4.74v15.95h-2.92v-12.55s-3.09,12.55-3.09,12.55h-3.03l-3.06-12.55v12.55h-2.93Zm18.18,0v-15.95h11.54v2.7h-8.38v3.54h7.79v2.69h-7.79v4.32h8.69v2.7h-11.84Zm14.52,0v-15.95h3.06l6.41,10.69v-10.69h2.92v15.95h-3.15l-6.32-10.48v10.48h-2.92Zm15.72-15.95h5.74c1.3,0,2.28.1,2.96.3.91.28,1.7.77,2.34,1.47.65.7,1.15,1.56,1.49,2.58.34,1.01.51,2.27.51,3.76,0,1.32-.16,2.45-.48,3.4-.39,1.16-.94,2.1-1.66,2.82-.54.55-1.28.97-2.21,1.27-.69.23-1.62.34-2.78.34h-5.91v-15.95Zm3.16,2.7v10.55h2.34c.87,0,1.5-.05,1.89-.15.51-.13.93-.36,1.27-.67.34-.31.61-.82.82-1.54.22-.71.32-1.69.32-2.92s-.1-2.18-.32-2.84c-.21-.66-.51-1.17-.89-1.54-.38-.37-.86-.62-1.45-.75-.44-.1-1.3-.15-2.57-.15h-1.41Zm12.56,13.25v-15.95h6.63c1.66,0,2.88.15,3.63.43.76.28,1.36.79,1.82,1.52.45.74.68,1.57.68,2.51,0,1.2-.34,2.19-1.02,2.97-.69.78-1.71,1.26-3.07,1.47.68.4,1.23.85,1.68,1.34.44.49,1.04,1.35,1.79,2.59l1.9,3.11h-3.76l-2.25-3.48c-.81-1.23-1.37-2.01-1.67-2.34-.3-.32-.61-.54-.94-.66-.34-.12-.87-.18-1.59-.18h-.64v6.66h-3.16Zm3.16-9.2h2.33c1.51,0,2.45-.07,2.82-.2.37-.13.67-.35.88-.68.22-.32.32-.72.32-1.2,0-.54-.14-.97-.42-1.3-.28-.33-.68-.54-1.18-.62-.26-.04-1.02-.05-2.3-.05h-2.45v4.05Zm26.61,9.2h-3.4l-1.35-3.63h-6.25l-1.3,3.63h-3.34l6.05-15.95h3.34l6.24,15.95Zm-5.77-6.32l-2.16-5.9-2.1,5.9h4.27Zm7.54,6.32v-15.81h3.16v13.11h7.82v2.7h-10.97Zm13.21,0v-15.95h11.54v2.7h-8.38v3.54h7.79v2.69h-7.79v4.32h8.69v2.7h-11.84Zm20.12-15.95h3.16v10.11c0,1.32-.11,2.34-.34,3.05-.3.93-.86,1.67-1.66,2.24-.8.56-1.86.84-3.17.84-1.54,0-2.72-.44-3.55-1.32-.83-.88-1.25-2.17-1.25-3.87l2.98-.35c.03.91.16,1.55.39,1.93.34.57.85.86,1.54.86s1.19-.21,1.47-.62.43-1.26.43-2.55v-10.31Zm5.86,8.07c0-1.62.24-2.99.71-4.1.35-.81.84-1.54,1.45-2.19.61-.65,1.29-1.12,2.01-1.44.97-.42,2.09-.63,3.36-.63,2.3,0,4.14.73,5.52,2.19,1.38,1.46,2.07,3.49,2.07,6.09s-.68,4.6-2.05,6.05c-1.37,1.46-3.2,2.18-5.49,2.18s-4.16-.72-5.53-2.17c-1.37-1.45-2.05-3.45-2.05-5.99h0Zm3.24-.11c0,1.81.41,3.18,1.23,4.11.82.93,1.86,1.4,3.11,1.4s2.29-.47,3.1-1.39c.81-.93,1.21-2.32,1.21-4.17s-.39-3.2-1.18-4.09c-.79-.9-1.83-1.35-3.13-1.35s-2.35.46-3.14,1.37c-.8.91-1.2,2.29-1.2,4.12h0Z"/>
        <path class="cls-9" d="m219.92,14.36c37.72,12.47,73.96,18.39,108.59,17.12,34.57-1.27,67.56-9.71,98.85-25.97l3.28-1.7.12,3.71c.93,27.26,1.29,51.62.66,75.08-.63,23.48-2.26,46.05-5.32,69.71-6.54,50.49-28.5,97.31-63.63,140.98-35.03,43.55-83.15,83.98-142.1,121.83l-1.26.81-1.26-.81c-50.98-32.67-96.35-69.51-131.82-110.98-35.55-41.56-61.14-87.78-72.47-139.1-5.73-25.96-9.51-52.18-11.59-78.94C-.11,59.36-.49,32.03.58,3.85L.72.02l3.33,1.88c34.68,19.53,70.23,28.61,106.1,29.82,35.93,1.22,72.23-5.44,108.31-17.35l.73-.24.73.24ZM32.37,209.45l184.65.04.27-138.27c-35.4,11.54-69.78,15.92-103.36,14.54-34.39-1.41-67.92-8.86-100.8-20.83l1.45-3.99c32.49,11.83,65.59,19.19,99.52,20.59,33.91,1.39,68.66-3.17,104.47-15.19l.68-.23.67.23c33.79,11.45,67.94,16.64,102.46,15.49,34.5-1.16,69.41-8.68,104.71-22.65.02-15.16-.3-30.94-.85-47.83-30.93,15.48-63.48,23.56-97.55,24.81-34.99,1.28-71.53-4.63-109.49-17.1-36.31,11.92-72.89,18.56-109.19,17.33-35.46-1.21-70.6-9.92-104.9-28.57-.89,26.62-.45,52.52,1.53,77.93,2.07,26.59,5.82,52.6,11.49,78.28,3.45,15.61,8.24,30.75,14.25,45.42h0ZM427.07,63.74c-35.2,13.74-70.05,21.15-104.56,22.31-34.02,1.14-67.68-3.79-100.98-14.71l-.27,138.14,185.38.04c7.29-18.72,12.29-37.98,14.85-57.8,3.04-23.49,4.66-45.91,5.29-69.23.16-6.17.26-12.41.3-18.74h0Zm-22.12,150.01l-370.8-.07c13.36,31.2,32.25,60.3,55.44,87.41,34.86,40.75,79.43,77.03,129.54,109.28,57.97-37.35,105.28-77.19,139.73-120.02,19.72-24.52,35.23-50.02,46.11-76.6h0Z"/>
      </g>
      <path class="cls-9" d="m114.03,123.17l7.44-.11-.37,19.13c-.06,2.94.08,4.84.26,5.7.29,1.4,1,2.53,2.12,3.37,1.12.85,2.65,1.27,4.59,1.27,1.96,0,3.45-.39,4.45-1.2,1-.8,1.6-1.78,1.8-2.95.2-1.17.3-3.1.31-5.8l.03-19.59h7.03l-.03,18.65c0,4.1-.18,7-.57,8.69-.38,1.69-1.07,3.12-2.09,4.29-1.01,1.17-2.37,2.09-4.06,2.78-1.7.69-3.92,1.04-6.66,1.04-3.3,0-5.81-.37-7.51-1.12-1.7-.75-3.05-1.73-4.05-2.94-.99-1.21-1.64-2.47-1.96-3.79-.46-1.95-.68-4.85-.69-8.67l-.04-18.76Z"/>
      <path class="cls-9" d="m169.27,129.21l.25,23,4.88-.21c1.93-.08,3.36-.09,4.21-.3,1.13-.28,2.02-.84,2.76-1.5.74-.67,1.33-1.86,1.8-3.38.47-1.53.71-3.62.72-6.25,0-2.64-.22-4.66-.69-6.08-.46-1.41-1.11-2.51-1.95-3.31-.84-.79-1.9-1.33-3.19-1.61-.96-.22-2.86-.33-5.67-.34h-3.11Zm-7.07-6.34l12.84.38c3.12.09,5.02.08,6.51.7,1.91.8,3.74,1.61,5.18,3.12,1.43,1.51,2.45,3.56,3.2,5.75.74,2.18,1.11,4.88,1.1,8.07,0,2.81-.25,5.27-.95,7.31-.86,2.48-2.08,4.59-3.67,6.12-1.21,1.16-2.79,2.22-4.83,2.87-1.53.48-3.66.96-6.21.95l-13.03-.03-.13-35.25Z"/>
      <path class="cls-9" d="m148.8,157.73l-.02-6.71,6.91-.02.02,6.71-6.91.02Z"/>
      <path class="cls-9" d="m196.75,157.66l-.02-6.71,6.91-.02.02,6.71-6.91.02Z"/>
      <path class="cls-7" d="m155.28,95.14l-120.12-.02h0s-7.44,0-7.44,0l22.1,82.28,6.86.02v-.02s146.97,0,146.97,0v-6.89H54.89l-7.9-30.2h47.12v-6.89h-48.92l-8.17-31.23,118.26-.16v-6.89Z"/>
      <path class="cls-5" d="m289.19,134.81c-1.79-.05-3.27,1.38-3.32,3.18-.05,1.8,1.36,3.31,3.14,3.36,1.79.05,3.27-1.38,3.32-3.18.05-1.8-1.36-3.31-3.14-3.35h0Z"/>
      <path class="cls-5" d="m296.78,146.76c-1.79-.05-3.27,1.38-3.32,3.18-.05,1.8,1.36,3.31,3.14,3.36,1.79.05,3.27-1.38,3.32-3.18.05-1.8-1.36-3.31-3.14-3.36h0Z"/>
      <path class="cls-5" d="m328,148.86c-1.79-.05-3.27,1.26-3.32,2.92-.05,1.66,1.36,3.03,3.14,3.08,1.79.04,3.28-1.26,3.33-2.92.05-1.65-1.36-3.03-3.14-3.07h0Z"/>
      <path class="cls-5" d="m310.77,139.22c-1.79-.05-3.27,1.26-3.32,2.91-.05,1.65,1.36,3.03,3.14,3.08,1.79.04,3.28-1.26,3.32-2.92.05-1.65-1.36-3.03-3.14-3.07h0Z"/>
      <path class="cls-5" d="m305.85,115.46c-1.79-.05-3.27,1.26-3.32,2.91-.05,1.65,1.36,3.03,3.14,3.08,1.79.04,3.28-1.26,3.32-2.92.05-1.65-1.36-3.03-3.14-3.07h0Z"/>
      <path class="cls-5" d="m356.05,141.47c-1.79-.05-3.27,1.26-3.32,2.91-.05,1.65,1.36,3.03,3.14,3.08,1.79.04,3.28-1.26,3.32-2.92.05-1.65-1.36-3.03-3.14-3.07h0Z"/>
      <path class="cls-5" d="m316.05,129.46c-1.86-.05-3.41,1.44-3.46,3.32-.05,1.88,1.42,3.45,3.28,3.5,1.86.05,3.41-1.44,3.46-3.32.05-1.88-1.42-3.45-3.28-3.5h0Z"/>
      <path class="cls-5" d="m328.38,124.19c-1.85-.05-3.39,1.42-3.44,3.29-.05,1.87,1.41,3.42,3.26,3.47,1.85.05,3.39-1.43,3.44-3.29.05-1.87-1.41-3.42-3.25-3.47h0Z"/>
      <path class="cls-5" d="m341.37,132.44c-1.93-.06-3.55,1.49-3.6,3.45-.05,1.96,1.47,3.58,3.41,3.64,1.94.05,3.55-1.49,3.6-3.45.05-1.96-1.47-3.59-3.41-3.64h0Z"/>
      <path class="cls-5" d="m345.33,121.8c-1.85-.05-3.39,1.42-3.44,3.29-.05,1.87,1.41,3.42,3.26,3.47,1.85.05,3.39-1.43,3.44-3.29.05-1.87-1.41-3.42-3.25-3.47h0Z"/>
      <path class="cls-5" d="m317.82,178.99c.26-3.21.63-9.62.98-14.48-3.01-2.04-6.42-3.59-10.02-4.4-.42-.1-.88-.08-1.3.04-4.51,1.21-9.09,2.32-13.78,2.81-1.02.11-2.08.04-3.06-.25-3.83-1.12-7.16-2.88-9.91-5.17-1.23-1.02-2.36-2.25-2.64-4.22-.35-2.44-.13-5.11.63-7.8.4-1.43.72-2.79.6-4.27-.03-.33-.11-.45-.35-.56-1.03-.5-1.75-1.32-2-2.85-.21-1.26-.32-2.51-.21-3.76.03-.31-.03-.66.14-.91,3.04-4.48,6.23-8.3,9.14-10.09.41-.25.86-.48,1.34-.6.29-.07.59.04.88.07.73.07.86-.38.74-.84-.35-1.33-1.21-2.47-1.93-3.64-.52-.83-.25-1.45.39-1.97,3.63-2.95,7.47-5.2,11.43-6.26.47-.12.99-.08,1.48,0,.31.05.54.38.86.41.3.03.66-.04.88-.25.77-.7,1.35-1.54,1.82-2.74.18-.46.62-.67.94-.58,1.96.34,3.83,1.07,5.66,1.97,1.06.52,1.3,1.27,1.34,2.22.06,1.64,1.66,2.68,2.88,3.66.5.4,1.14.6,1.58.17,2.49-2.42,4.73-4.24,7.31-5.13.82-.28,1.73-.16,2.6-.25.73.04,1.47.25,2.18.1,1.84-.39,4.11-1.35,5.98-1.55,1.28-.14,2.03.03,3.2.56,1.79.81,3.31,2.12,4.9,3.27.42.3.7.34,1.12,0,1.13-.9,2.36-1.67,3.52-2.53.27-.21.58-.32.84-.07,2.2,2.09,4.25,4.33,6.26,6.75.89,1.06.9,2.45.63,3.87-.13.68-.42,1.31-.63,1.97-.18.55.16.61.42.84.81.71,1.72,1.09,2.67,1.08.4,0,.95-.11,1.34-.19.35-.08.63-.56.88-.3.93.98,1.3,2.29,1.48,3.57.07.55.01,1.1.04,1.65.04.73-.07,1.48.14,2.18.43,1.41,1.35,2.63,1.76,4.04.19.65.14,1.38,0,2.04-.25,1.24-.77,2.41-1.16,3.62-.22.67.05.69.7.56.77-.15,1.56-.23,2.34-.14.29.03.46.4.74.47.24.07.6-.27.75-.07.29.39.38.96.27,1.43-.6,2.36-.65,5.22-1.12,7.28-.16.69-.35.46-.91.49-.9.06-1.77-.01-2.6.28-.43.15-.83.4-1.23.63-.24.14-.34.47-.07.7.7.6,1.26,1.3,1.55,2.14.43,1.24.21,2.32-.63,3.41-1.27,1.32-2.57,2.62-3.81,3.96-.42.45-.78.28-1.18.11-2.96-1.3-6.17-2.28-10-2.74-1.25-.15-2.04.33-2.71,1.05-1.08,1.17-1.82,2.77-2.64,4.32-.29.55-.82.4-1.37.39-3.78-.07-7.17-.84-10.23-2.6-.85-.49-1.59-.4-1.55.67.4,11.07.84,22.14,1.44,33.2.03.51.14,1.05.42,1.48,3.2,4.87,6.87,8.75,10.57,12.27h32.21s.28-129.57.28-129.57c-16.91,3.51-33.73,5.55-50.48,6.11-17.68.59-35.26-.45-52.74-3.12v126.57h38.66s8.23-8.21,8.23-8.21c.16-5.86.44-11.69.7-17.54.07-1.55.2-1.54.46-4.75h0Z"/>
      <path class="cls-5" d="m319.25,204.54c-1.93,1.43-3.43,3.21-4.96,4.96h3.92c.81-1.48,1.68-3.01,2.11-4.78.13-.55-.06-.93-1.07-.18h0Z"/>
      <path class="cls-5" d="m324.91,204.86c-1.21,1.48-2.24,3.09-3.35,4.64h6.34c-.07-1.45-.12-2.91-.29-4.36-.1-.88-1.64-1.57-2.71-.28h0Z"/>
      <path class="cls-5" d="m331.84,205.95c-.65.79-1.02,2.07-1.26,3.55h4.9c-1.21-.95-2.22-2.03-2.86-3.34-.2-.41-.41-.65-.77-.21h0Z"/>
      <path class="cls-8" d="m308.79,160.11c3.6.81,7.01,2.36,10.02,4.4-.35,4.86-.73,11.28-.98,14.48-.26,3.2-.39,3.19-.46,4.75-.26,5.86-.54,11.68-.7,17.54l-8.23,8.22h5.86c1.53-1.74,3.03-3.52,4.96-4.95,1.02-.75,1.21-.37,1.07.18-.43,1.77-1.3,3.3-2.11,4.78h3.35c1.11-1.55,2.14-3.16,3.35-4.64,1.06-1.29,2.61-.6,2.71.28.17,1.45.22,2.91.29,4.36h2.67c.24-1.48.61-2.76,1.26-3.55.36-.44.58-.19.77.21.64,1.31,1.66,2.39,2.86,3.34h5.02c-3.69-3.52-7.37-7.4-10.57-12.27-.28-.43-.4-.96-.42-1.48-.59-11.06-1.04-22.13-1.44-33.2-.04-1.07.7-1.16,1.55-.67,3.06,1.76,6.45,2.53,10.23,2.6.55,0,1.08.16,1.37-.39.82-1.55,1.55-3.16,2.64-4.32.67-.73,1.46-1.21,2.71-1.05,3.83.46,7.04,1.44,10,2.74.4.17.76.34,1.18-.11,1.25-1.34,2.54-2.64,3.81-3.96.84-1.09,1.06-2.17.63-3.41-.29-.84-.84-1.54-1.55-2.14-.27-.23-.17-.56.07-.7.4-.23.8-.48,1.23-.63.83-.29,1.7-.22,2.6-.28.57-.04.75.2.91-.49.48-2.05.53-4.91,1.12-7.28.12-.47.03-1.04-.27-1.43-.15-.2-.51.14-.75.07-.28-.07-.45-.44-.74-.47-.78-.09-1.57,0-2.34.14-.65.12-.92.11-.7-.56.39-1.21.91-2.38,1.16-3.62.14-.66.19-1.39,0-2.04-.41-1.41-1.33-2.64-1.76-4.04-.21-.7-.11-1.45-.14-2.18-.02-.55.04-1.1-.04-1.65-.18-1.29-.54-2.59-1.48-3.57-.25-.26-.53.22-.88.3-.39.09-.93.19-1.34.19-.95.02-1.86-.37-2.67-1.08-.27-.23-.6-.3-.42-.84.21-.66.5-1.29.63-1.97.27-1.41.25-2.81-.63-3.87-2.01-2.42-4.06-4.66-6.26-6.75-.26-.25-.57-.14-.84.07-1.16.86-2.39,1.63-3.52,2.54-.42.34-.7.3-1.12,0-1.59-1.15-3.12-2.46-4.9-3.27-1.17-.54-1.92-.7-3.2-.56-1.87.2-4.14,1.16-5.98,1.55-.71.15-1.45-.07-2.18-.1-.87.08-1.78-.04-2.6.25-2.58.89-4.82,2.71-7.31,5.13-.44.43-1.09.23-1.58-.17-1.22-.98-2.82-2.01-2.88-3.66-.04-.95-.28-1.7-1.34-2.22-1.83-.9-3.7-1.63-5.66-1.97-.32-.09-.76.13-.94.58-.47,1.21-1.05,2.04-1.82,2.74-.22.2-.57.27-.88.25-.32-.03-.55-.35-.86-.41-.48-.08-1-.12-1.48,0-3.95,1.06-7.8,3.31-11.43,6.26-.64.52-.9,1.14-.39,1.97.73,1.17,1.59,2.31,1.93,3.64.12.47-.01.92-.74.84-.29-.03-.59-.14-.88-.07-.48.11-.92.34-1.34.6-2.91,1.79-6.1,5.6-9.14,10.09-.17.25-.11.61-.14.91-.11,1.25,0,2.5.21,3.76.25,1.52.97,2.35,2,2.85.25.12.32.23.35.56.12,1.49-.2,2.85-.6,4.27-.76,2.7-.98,5.36-.63,7.8.28,1.96,1.4,3.2,2.64,4.22,2.76,2.28,6.09,4.04,9.91,5.17.98.29,2.04.35,3.06.25,4.69-.5,9.27-1.6,13.78-2.81.42-.11.88-.13,1.3-.04h0Zm15.89-8.33c.05-1.66,1.54-2.96,3.32-2.92,1.79.04,3.2,1.42,3.14,3.07-.05,1.66-1.54,2.96-3.33,2.92-1.78-.05-3.19-1.42-3.14-3.08h0Zm17.21-26.68c.05-1.87,1.59-3.34,3.44-3.29,1.85.05,3.31,1.61,3.25,3.47-.05,1.87-1.59,3.34-3.44,3.29-1.85-.05-3.31-1.61-3.26-3.47h0Zm-4.11,10.79c.05-1.96,1.66-3.5,3.6-3.45,1.94.05,3.46,1.68,3.41,3.64-.05,1.95-1.66,3.5-3.6,3.45-1.93-.05-3.46-1.68-3.41-3.64h0Zm-12.84-8.4c.05-1.87,1.59-3.34,3.44-3.29,1.85.05,3.3,1.61,3.25,3.47-.05,1.87-1.59,3.34-3.44,3.29-1.85-.05-3.31-1.6-3.26-3.47h0Zm-14.35,17.73c-1.79-.05-3.19-1.42-3.14-3.08.05-1.66,1.54-2.96,3.32-2.91,1.79.04,3.2,1.42,3.14,3.07-.05,1.66-1.53,2.96-3.32,2.92h0Zm5.27-8.93c-1.86-.05-3.34-1.62-3.28-3.5.05-1.88,1.6-3.37,3.46-3.32,1.86.05,3.33,1.62,3.28,3.5-.05,1.88-1.6,3.37-3.46,3.32h0Zm36.86,8.1c.05-1.66,1.54-2.96,3.32-2.91,1.79.04,3.2,1.42,3.14,3.07-.05,1.66-1.54,2.96-3.32,2.92-1.79-.05-3.19-1.43-3.14-3.08h0Zm-47.06-22.94c-1.79-.05-3.19-1.43-3.14-3.08.05-1.66,1.54-2.96,3.32-2.91,1.79.04,3.2,1.42,3.14,3.07-.05,1.66-1.54,2.96-3.32,2.92h0Zm-8.89,25.31c1.79.05,3.2,1.55,3.14,3.36-.05,1.8-1.54,3.23-3.32,3.18-1.79-.05-3.19-1.55-3.14-3.36.05-1.8,1.54-3.23,3.32-3.18h0Zm-4.45-8.6c-.05,1.81-1.54,3.23-3.32,3.18-1.79-.05-3.2-1.55-3.14-3.36.05-1.8,1.54-3.23,3.32-3.18,1.79.05,3.2,1.55,3.14,3.35h0Z"/>
      <path class="cls-8" d="m372.98,79.94l-.28,129.57h33.93c7.29-18.72,12.29-37.97,14.85-57.79,3.04-23.49,4.66-45.91,5.29-69.23.07-2.42.12-4.85.16-7.3v-11.4c-18.08,7.05-36.06,12.43-53.95,16.15h0Z"/>
      <path class="cls-8" d="m269.77,209.49v-126.57c-16.16-2.47-32.25-6.34-48.24-11.59l-.27,138.14h48.51Z"/>
      <path class="cls-3" d="m52.22,249.22v-35.54h-18.07c5.21,12.16,11.26,24,18.07,35.54h0Z"/>
      <path class="cls-3" d="m89.34,213.69v87.12c.08.09.16.19.24.28,11.24,13.14,23.48,25.82,36.61,38.04v-125.44h-36.84Z"/>
      <path class="cls-3" d="m163.31,213.7v157.11c12.03,9.45,24.57,18.59,37.55,27.45v-184.56h-37.55Z"/>
      <path class="cls-3" d="m236.86,213.72v184.92c13.08-8.89,25.55-17.92,37.41-27.09v-157.82h-37.41Z"/>
      <path class="cls-3" d="m310.83,213.74v127.2c13.84-12.59,26.52-25.45,37.97-38.59v-88.61h-37.97Z"/>
      <path class="cls-3" d="m385.64,213.75v38.36c7.52-12.53,13.97-25.32,19.31-38.36h-19.31Z"/>
      <path class="cls-6" d="m89.34,300.81v-87.12h-37.13s0,35.53,0,35.53c10.61,17.94,23.07,35.13,37.13,51.59h0Z"/>
      <path class="cls-6" d="m126.19,213.7v125.44c11.71,10.92,24.12,21.47,37.12,31.68v-157.11h-37.12Z"/>
      <path class="cls-6" d="m200.86,213.71v184.56c6,4.1,12.09,8.13,18.26,12.1,6.03-3.89,11.94-7.8,17.74-11.73v-184.92h-36Z"/>
      <path class="cls-6" d="m274.27,213.73v157.82c12.95-10.02,25.15-20.23,36.56-30.61v-127.2h-36.56Z"/>
      <path class="cls-6" d="m348.8,213.74v88.61c3.46-3.97,6.81-7.97,10.05-11.99,10.05-12.49,19-25.23,26.8-38.24v-38.36h-36.84Z"/>
      <path class="cls-8" d="m49.83,177.4l-22.1-82.28h7.44s120.12.02,120.12.02v6.89l-118.26.16,8.17,31.23h48.92v6.89h-47.12l7.9,30.2h148.78v6.89H56.69v.02s-6.86-.02-6.86-.02Zm64.23-35.48l-.04-18.76,7.44-.11-.37,19.13c-.06,2.94.08,4.84.26,5.7.29,1.4,1,2.53,2.12,3.37,1.12.85,2.65,1.27,4.59,1.27,1.96,0,3.45-.4,4.45-1.2,1-.8,1.6-1.78,1.8-2.95.2-1.17.3-3.1.31-5.8l.03-19.59h7.03l-.03,18.65c0,4.1-.18,7-.57,8.69-.38,1.69-1.07,3.12-2.09,4.29-1.01,1.17-2.37,2.09-4.06,2.78-1.7.69-3.92,1.04-6.66,1.04-3.3,0-5.81-.37-7.51-1.12-1.7-.75-3.05-1.73-4.05-2.94-.99-1.21-1.64-2.47-1.95-3.79-.47-1.95-.68-4.85-.69-8.67h0Zm34.73,15.8l-.02-6.71,6.91-.02.02,6.71-6.91.02Zm68.22,51.75l.27-138.27c-35.4,11.54-69.78,15.92-103.36,14.54-34.39-1.41-67.92-8.86-100.8-20.83l1.45-3.99c32.49,11.83,65.59,19.19,99.52,20.59,33.91,1.39,68.66-3.17,104.47-15.19l.68-.23.67.23c33.79,11.45,67.94,16.64,102.46,15.49,34.5-1.16,69.41-8.68,104.71-22.65.02-15.16-.3-30.94-.85-47.83-30.93,15.48-63.48,23.56-97.55,24.81-34.99,1.28-71.53-4.63-109.49-17.1-36.31,11.92-72.89,18.56-109.19,17.33-35.46-1.21-70.6-9.92-104.9-28.57-.89,26.62-.45,52.52,1.53,77.93,2.07,26.59,5.82,52.6,11.49,78.28,3.45,15.61,8.24,30.75,14.25,45.42l184.65.04Zm-54.68-51.37l-.13-35.25,12.85.38c3.12.09,5.02.08,6.51.7,1.91.8,3.74,1.61,5.18,3.12,1.43,1.51,2.45,3.56,3.2,5.75.74,2.18,1.11,4.88,1.1,8.07,0,2.81-.25,5.27-.95,7.31-.86,2.48-2.08,4.59-3.67,6.12-1.21,1.16-2.79,2.22-4.83,2.87-1.53.48-3.66.96-6.21.95l-13.03-.03Zm34.41-.45l-.02-6.71,6.91-.02.02,6.71-6.91.02Zm-155.2,28.53l6.25,15.95h-3.4l-1.34-3.63h-6.25l-1.29,3.63h-3.34l6.05-15.95h3.34Zm8.01,15.95v-15.81h3.16v13.11h7.82v2.7h-10.97Zm13.17,0v-15.95h4.73l2.8,10.88,2.76-10.88h4.74v15.95h-2.92v-12.55s-3.09,12.55-3.09,12.55h-3.03l-3.06-12.55v12.55h-2.93Zm18.18,0v-15.95h11.54v2.7h-8.38v3.54h7.79v2.69h-7.79v4.32h8.69v2.7h-11.84Zm14.52,0v-15.95h3.06l6.41,10.69v-10.69h2.92v15.95h-3.15l-6.32-10.48v10.48h-2.92Zm15.72-15.95h5.74c1.3,0,2.28.1,2.96.3.91.28,1.7.77,2.34,1.47.65.7,1.15,1.56,1.49,2.58.34,1.01.51,2.27.51,3.76,0,1.32-.16,2.45-.48,3.4-.39,1.16-.94,2.1-1.66,2.82-.54.55-1.28.97-2.21,1.27-.69.23-1.62.34-2.78.34h-5.91v-15.95Zm15.72,15.95v-15.95h6.63c1.66,0,2.88.15,3.63.43.76.28,1.36.79,1.82,1.52.45.74.68,1.57.68,2.51,0,1.2-.34,2.19-1.02,2.97-.69.78-1.71,1.26-3.07,1.47.68.4,1.23.85,1.68,1.34.44.49,1.04,1.35,1.79,2.59l1.9,3.11h-3.76l-2.25-3.48c-.81-1.23-1.37-2.01-1.67-2.34-.3-.32-.61-.54-.94-.66-.34-.12-.87-.18-1.59-.18h-.64v6.66h-3.16Zm14.13,0l6.05-15.95h3.34l6.24,15.95h-3.4l-1.35-3.63h-6.25l-1.3,3.63h-3.34Zm17.4,0v-15.81h3.16v13.11h7.82v2.7h-10.97Zm13.21,0v-15.95h11.54v2.7h-8.38v3.54h7.79v2.69h-7.79v4.32h8.69v2.7h-11.84Zm20.12-15.95h3.16v10.11c0,1.32-.11,2.34-.34,3.05-.3.93-.86,1.67-1.66,2.24-.8.56-1.86.84-3.17.84-1.54,0-2.72-.44-3.55-1.32-.83-.88-1.25-2.17-1.25-3.87l2.98-.35c.03.91.16,1.55.39,1.93.34.57.85.86,1.54.86s1.19-.21,1.47-.62.43-1.26.43-2.55v-10.31Zm5.86,8.07c0-1.62.24-2.99.71-4.1.35-.81.84-1.54,1.45-2.19.61-.65,1.29-1.12,2.01-1.44.97-.42,2.09-.63,3.36-.63,2.3,0,4.14.73,5.52,2.19,1.38,1.46,2.07,3.49,2.07,6.09s-.68,4.6-2.05,6.05c-1.37,1.46-3.2,2.18-5.49,2.18s-4.16-.72-5.53-2.17c-1.37-1.45-2.05-3.45-2.05-5.99h0ZM68.02,70.03l-3.74-10.83-8.19,8.04-7.11-1.52,12.99-12.32-5.61-15.12,6.76,1.6,3.4,9.92,7.27-7.51,6.25,1.44v-.16s22.38,2.36,22.38,2.36l-.54,4.76-8.44-1-2.32,23.42-5.74-.79,2.35-23.24-8.04-.75.3-3.92-11.17,10.82,6.39,16.44-7.19-1.64Zm36.37,4.01l-.38-28.29,12.04-.2c3.04-.05,5.19.31,6.58.78,1.39.47,2.51,1.34,3.35,2.59.85,1.26,1.43,2.7,1.46,4.34.04,2.08-.7,3.81-1.93,5.18-1.23,1.37-3.09,2.25-5.57,2.65,1.25.68,2.28,1.44,3.1,2.27.82.83,1.9,2.33,3.34,4.44l4.09,6-7.4-.03-4.22-6.5c-1.42-2.18-2.73-3.32-3.28-3.87-.55-.54-1.17-.87-1.79-1.07-.62-.2-1.17-.37-2.49-.35l-1.17.02.29,11.9-6.01.13Zm29.72-.83l-3.67-27.82,21.11-2.74.61,4.84-15.04,1.86.69,5.98,13.87-1.47.61,4.64-14.05,1.75.97,7.61,15.66-2.14.61,4.64-21.38,2.85Zm-88.18-9l-20.12-7.97,10.36-26.07,19.6,7.76-1.72,4.35-14.24-5.43-2.26,5.71,13.13,5.28-1.72,4.35-13.31-5.14-2.76,6.97,14.75,5.84-1.72,4.34Zm114.95,5.84l-6-27.75,8.81-1.74,8.84,17.66.72-19.73,8.74-1.77,5.79,27.68-5.46.91-4.45-21.95-.64,23.3-5.53,1.09-10.18-20.29,4.87,21.42-5.5,1.16Zm28.24-6.78l7.08-29.57,5.96-.9,14.75,25.5,3.23-27.07,10.55,1.38c2.64.35,4.18.27,5.3,1.2,1.33,1.1,2.9,1.7,3.93,3.06,1.03,1.36,1.74,2.95,2.14,4.79.39,1.82.42,4.03.1,6.6-.29,2.26-.88,4.14-1.6,5.73-.89,1.95-2.17,3.4-3.63,4.47-1.11.81-2.4,1.41-4.1,1.9-1.31.37-3.36.36-5.46.09l-9.96-1.31.04.07-6.36.88-3.47-5.98-10.77,1.43-1.62,6.72-6.09.99Zm57.13-13.09l3.82-14.09,5.81,1.5-4.16,14.44c-.66,2.29-1.06,3.78-1.11,4.5-.09,1.15.21,2.19.89,3.11.69.92,1.65,1.71,3.18,2.16,1.54.46,2.95.55,3.92.16.97-.39,1.74-1.18,2.17-2.04.43-.86.93-2.31,1.51-4.42l4.15-15.1,5.63,1.68-4.03,14.33c-.9,3.2-1.76,5.39-2.45,6.62-.69,1.23-1.57,2.38-2.64,3.05-1.07.67-2.38,1.15-3.88,1.28-1.5.14-3.6-.14-5.76-.78-2.6-.77-4.45-1.73-5.61-2.72-1.16-.98-1.81-2.22-2.31-3.39-.5-1.17-.63-2.3-.57-3.4.09-1.63.65-3.91,1.46-6.9h0Zm25.32,20.47l4.18-27.83,11.88,1.77c3.01.45,5.2,1.14,6.5,1.83,1.3.69,2.3,1.79,2.93,3.17.64,1.38.66,3.09.43,4.7-.3,2.06-1.16,3.66-2.59,4.82-1.43,1.16-3.41,1.73-5.93,1.72,1.13.87,2.03,1.79,2.7,2.73.68.95,1.62,2.56,2.58,4.91l2.52,6.16-7.02-.99-3.11-6.71c-1.09-2.36-1.93-3.89-2.39-4.52-.46-.62-.76-1.2-1.34-1.49-.58-.29-1.52-.54-2.84-.72l-1.16-.17-1.66,11.43-5.71-.83Zm26.74,4.11l11.4-28.14,6.41.17,10.75,28.28-6.35.04-2.53-6.36-10.82-.27-2.58,6.41-6.27-.14Zm39.63-28.91l6-1.14,2.38,15.32c.37,2.36.74,3.86,1.01,4.52.43,1.07,1.16,1.88,2.18,2.39,1.03.52,2.32.64,3.89.36,1.59-.28,2.73-.8,3.43-1.59.7-.78,1.04-1.65,1.04-2.61s-.19-2.52-.57-4.67l-2.72-15.64,5.68-1,2.59,14.89c.57,3.27.83,5.61.77,7.02-.07,1.41-.43,2.64-1.09,3.72-.65,1.07-1.62,2-2.89,2.8-1.28.79-3.02,1.39-5.23,1.78-2.67.47-4.75.52-6.23.16-1.48-.36-2.71-.95-3.68-1.77-.97-.82-1.67-1.73-2.11-2.75-.65-1.49-1.23-3.77-1.77-6.82l-2.66-14.97Zm45.08,18.9l-9.75-26.83,10.12-3.31c2.46-.8,3.94-1.34,5.27-1.28,1.71.08,3.36.18,4.89.93,1.53.75,2.88,2.02,4.06,3.49,1.18,1.45,2.2,3.41,3.07,5.85.77,2.14,1.25,4.09,1.26,5.84,0,2.14-.37,4.08-1.19,5.69-.63,1.22-1.57,2.48-2.98,3.54-1.06.8-2.59,1.76-4.59,2.47l-10.17,3.62Zm-11.47,2.9l-1.4-5.11,5.25-1.44,1.4,5.11-5.25,1.44Zm38.85-13.68l-2.23-4.8,4.94-2.29,2.23,4.8-4.94,2.29Z"/>
      <path class="cls-8" d="m169.27,129.21l.25,23,4.88-.21c1.93-.08,3.36-.09,4.21-.3,1.13-.28,2.02-.84,2.76-1.5.74-.67,1.33-1.86,1.8-3.38.47-1.53.71-3.62.72-6.25,0-2.64-.22-4.66-.69-6.08-.46-1.41-1.11-2.51-1.95-3.31-.84-.79-1.9-1.33-3.19-1.61-.96-.22-2.86-.33-5.67-.34h-3.11Z"/>
      <path class="cls-8" d="m42.03,195.82l-2.17-5.9-2.1,5.9h4.27Z"/>
      <path class="cls-8" d="m130.03,188.89v4.05h2.33c1.51,0,2.45-.07,2.82-.2.37-.13.67-.35.88-.68.22-.32.32-.72.32-1.2,0-.54-.14-.97-.42-1.3-.28-.33-.68-.54-1.18-.62-.26-.04-1.02-.05-2.3-.05h-2.45Z"/>
      <path class="cls-8" d="m120.95,194.17c0-1.23-.1-2.18-.32-2.84-.21-.66-.51-1.17-.89-1.54-.38-.37-.86-.62-1.45-.75-.44-.1-1.3-.15-2.57-.15h-1.41v10.55h2.34c.87,0,1.5-.05,1.89-.15.51-.13.93-.36,1.27-.67.34-.31.61-.82.82-1.54.22-.71.32-1.69.32-2.92h0Z"/>
      <path class="cls-8" d="m148.71,189.92l-2.1,5.9h4.27l-2.16-5.9Z"/>
      <path class="cls-8" d="m202.04,190.04c-.8.91-1.2,2.29-1.2,4.12s.41,3.18,1.23,4.11c.82.93,1.86,1.4,3.11,1.4s2.29-.47,3.1-1.39c.81-.93,1.21-2.32,1.21-4.17s-.39-3.2-1.18-4.09c-.79-.9-1.83-1.35-3.13-1.35s-2.35.46-3.14,1.37h0Z"/>
      <path class="cls-8" d="m174.39,152c1.93-.08,3.36-.09,4.21-.3,1.13-.28,2.02-.84,2.76-1.5.74-.67,1.33-1.86,1.8-3.38.47-1.53.71-3.62.72-6.25,0-2.64-.22-4.66-.69-6.08-.46-1.41-1.11-2.51-1.95-3.31-.84-.79-1.9-1.33-3.19-1.61-.96-.22-2.86-.33-5.67-.34h-3.11s.25,22.99.25,22.99l4.88-.21Z"/>
      <path class="cls-8" d="m114.09,57.43c2.76-.02,4.47-.19,5.16-.43.68-.23,1.21-.64,1.59-1.2.38-.56.56-1.26.55-2.09-.02-.93-.29-1.68-.81-2.25-.52-.57-1.25-.92-2.18-1.05-.47-.06-1.87-.07-4.2-.03l-4.27.07.18,7,3.97-.03Z"/>
      <path class="cls-8" d="m200.05,40.17l-2.27,10.35,7.52-1.06-5.25-9.29Z"/>
      <path class="cls-8" d="m225.42,36.66l-2.29,18.17,4.24.53c1.59.2,2.74.25,3.47.17.95-.11,1.76-.4,2.44-.85.68-.46,1.38-1.24,1.82-2.46.43-1.18.66-2.84.93-4.96.27-2.12.31-3.73.07-4.92-.24-1.18-.67-2.14-1.28-2.86-.61-.72-1.19-1.3-2.22-1.66-.77-.27-2.32-.56-4.63-.85l-2.55-.32Z"/>
      <path class="cls-8" d="m280.8,48.48l-1.06,6.85,4.14.82c2.7.54,4.32.46,5.04.34.71-.12,1.23-.33,1.71-.81.48-.47.84-1.06.97-1.89.13-.92.05-1.74-.38-2.39-.42-.64-1.15-1.06-2.05-1.34-.45-.14-1.65-.5-3.95-.87l-4.42-.71Z"/>
      <path class="cls-8" d="m312.71,53.84l-3.85,9.77,7.45.19-3.6-9.96Z"/>
      <path class="cls-8" d="m380.52,40.76l6.48,17.46,3.75-1.52c1.48-.6,2.59-1.01,3.21-1.41.8-.53,1.34-1.2,1.74-1.91.39-.72.53-1.79.48-3.09-.05-1.3-.43-2.96-1.15-4.97-.72-2.02-1.45-3.49-2.2-4.44-.75-.95-1.55-1.61-2.43-1.98-.87-.37-1.84-.48-2.93-.33-.8.1-2.32.54-4.52,1.33l-2.42.86Z"/>
    </g>
  </g>
</svg>