<?xml version="1.0" encoding="UTF-8"?>
<svg id="Layer_2" data-name="Layer 2" xmlns="http://www.w3.org/2000/svg" viewBox="0 0 375.27 375.27">
  <defs>
    <style>
      .cls-1, .cls-2, .cls-3, .cls-4, .cls-5, .cls-6, .cls-7, .cls-8, .cls-9, .cls-10, .cls-11 {
        stroke-linecap: round;
        stroke-linejoin: round;
      }

      .cls-1, .cls-2, .cls-3, .cls-4, .cls-5, .cls-6, .cls-7, .cls-8, .cls-9, .cls-10, .cls-11, .cls-12, .cls-13, .cls-14, .cls-15, .cls-16, .cls-17, .cls-18, .cls-19, .cls-20, .cls-21, .cls-22, .cls-23 {
        fill: none;
        stroke-width: .16px;
      }

      .cls-1, .cls-22 {
        stroke: #fff;
      }

      .cls-2, .cls-23 {
        stroke: #e7ecf4;
      }

      .cls-3, .cls-19 {
        stroke: #12438e;
      }

      .cls-4, .cls-20 {
        stroke: #4169a5;
      }

      .cls-5, .cls-17 {
        stroke: #b8c7dd;
      }

      .cls-6, .cls-18 {
        stroke: #a0b4d2;
      }

      .cls-7, .cls-16 {
        stroke: #89a1c7;
      }

      .cls-8, .cls-15 {
        stroke: #2a5699;
      }

      .cls-9, .cls-14 {
        stroke: #718ebb;
      }

      .cls-10, .cls-13 {
        stroke: #597bb0;
      }

      .cls-11, .cls-12 {
        stroke: #d0d9e8;
      }

      .cls-21 {
        stroke: #0e257c;
      }

      .cls-24 {
        fill: #0f3384;
      }

      .cls-24, .cls-25, .cls-26, .cls-27, .cls-28, .cls-29, .cls-30, .cls-31, .cls-32, .cls-33, .cls-34, .cls-35, .cls-36, .cls-37 {
        fill-rule: evenodd;
        stroke-width: 0px;
      }

      .cls-25 {
        fill: #0e2d81;
      }

      .cls-26 {
        fill: #0e2a7f;
      }

      .cls-27 {
        fill: #0e3082;
      }

      .cls-28 {
        fill: #0f408c;
      }

      .cls-29 {
        fill: #0e287e;
      }

      .cls-30 {
        fill: #0f3586;
      }

      .cls-31 {
        fill: #0f3b89;
      }

      .cls-32 {
        fill: #0f3d8a;
      }

      .cls-33 {
        fill: #0e257c;
      }

      .cls-34 {
        fill: #0f3887;
      }

      .cls-35 {
        fill: #c72f34;
      }

      .cls-36 {
        fill: #d2ab63;
      }

      .cls-37 {
        fill: #fff;
      }
    </style>
  </defs>
  <g id="Layer_1-2" data-name="Layer 1">
    <g>
      <path class="cls-36" d="m187.64,63.8c-68.4,0-123.84,55.45-123.84,123.84s55.45,123.84,123.84,123.84,123.84-55.44,123.84-123.84-55.45-123.84-123.84-123.84h0Z"/>
      <path class="cls-33" d="m58.17,187.64c0-71.5,57.96-129.47,129.47-129.47s129.47,57.96,129.47,129.47-57.96,129.47-129.47,129.47S58.17,259.14,58.17,187.64h0ZM187.64,9.38C89.19,9.38,9.38,89.19,9.38,187.64s79.81,178.25,178.25,178.25,178.25-79.81,178.25-178.25S286.08,9.38,187.64,9.38h0Z"/>
      <path class="cls-36" d="m62.02,81.66l4.08,2.96-6.49,8.78c-1.05,1.43-.84,4.43.07,5.16l2.04,1.64,8.75-12.1,4.07,3.03-8.71,11.86,8.36,6.41-3.48,4.75-15.16-11.88c-2.32-1.79-2.76-8.03-.71-10.95l7.19-9.67Z"/>
      <path class="cls-36" d="m85.99,78.26l-8.7-3.79,3.84,8.35,4.85-4.56Zm15,.59l-4.25,4.15-5.81-2.44-7.51,7.42,2.73,5.77-4.53,4.35-10.77-25.87,4.52-4.55,25.61,11.18Z"/>
      <path class="cls-36" d="m109.66,64.88c-1.74-.95-3.5-1.76-5.19-.59l-3.12,2.15,6.18,8.59-4.88,3.33-14.87-21.61,11.2-7.49c4.41-2.94,8.52-3.45,11.75,1.23,1.69,2.45,2.77,6,.16,9.03,2.02,1.31,8.91,4.05,11.59,5.24l-5.8,3.95-7.02-3.82Zm-10.67-2.29l5.11-3.32c2.12-1.38,3.69-2.75,1.94-5.29-1.5-2.19-3.14-1.48-5.14-.18l-5.5,3.58,3.58,5.21Z"/>
      <path class="cls-36" d="m145.96,54.59l-6.57,2.65-16.91-13.02,7.81,16.96-5.7,2.57-10.8-24.02,6.84-2.98,16.57,12.63-7.89-16.34,5.77-2.61,10.88,24.16Z"/>
      <path class="cls-36" d="m171.32,42.09c.86,4.82-2.56,7.35-7.52,8.33l-14.21,2.8-5.32-25.26,13.55-2.73c4.49-.91,9.31.24,10.43,4.93.48,2,.96,4.63-1.43,6.87,2.61.63,4.06,2.62,4.49,5.06h0Zm-18.82-5.18l6.59-1.15c2.06-.36,3.54-1.1,3.03-3.2-.59-2.45-3.08-2.25-5.2-1.87l-5.46.98,1.04,5.24Zm2.07,10.6l5.01-.96c3.16-.61,5.44-1.84,4.93-4.01-.71-2.98-4.07-2.04-6.74-1.48l-4.24.89,1.04,5.56Z"/>
      <path class="cls-36" d="m186.69,21.34c8.85-.3,12.9,5.94,13.11,13.15.29,9.62-3.91,14.14-12.22,14.36-8.8.24-13.35-3.49-13.69-13.18-.25-7.24,3.19-14,12.8-14.33h0Zm.68,22.56c5.28-.16,6.26-4.33,6.12-8.87-.14-4.5-1.44-8.54-6.66-8.38-5.23.16-6.83,4.13-6.72,8.65.12,4.68,2.02,8.75,7.26,8.59h0Z"/>
      <path class="cls-36" d="m249.59,32.81c8.22,3.29,9.41,10.64,6.7,17.32-3.62,8.91-9.37,11.56-17.05,8.48-8.29-3.33-10.73-8.84-7.14-17.85,2.69-6.73,8.57-11.52,17.49-7.95h0Zm-8.48,20.92c4.9,1.98,7.48-1.43,9.18-5.64,1.68-4.18,1.81-8.43-2.72-10.36-4.82-2.04-7.92,1.03-9.64,5.21-1.78,4.32-1.68,8.82,3.18,10.79h0Z"/>
      <path class="cls-36" d="m217.54,43.97c-.61-1.87-1.43-3.22-3.52-3.57l-3.61-.6-1.62,9.91-6.03-1.02,4.22-25.66,11.18,1.7c7.17,1.09,11.24,3.97,10.28,10.21-.63,4.12-2.64,5.18-6.13,6.15.21,1.02,3.57,9.9,4.2,11.49l-6.48-.93-2.5-7.68Zm-6.35-8.85l4.79.81c3.45.58,5.85.96,6.33-2,.42-2.55-2-3.17-4.91-3.63l-5.28-.85-.94,5.67Z"/>
      <path class="cls-36" d="m262.86,70.29c-7.37-4.73-6.9-10.13-2.87-16.22l7.94-11.98,4.98,3.23-7.91,11.94c-2.32,3.51-3.24,6.11.67,8.77,3.99,2.71,6,.7,8.32-2.81l7.91-11.95,4.96,3.3-8,12.09c-4.05,6.12-8.34,8.54-16,3.62h0Z"/>
      <path class="cls-36" d="m298.25,70.6c-3.89-3.47-6.41-1.05-9.64,2.32-3.13,3.26-4.45,6.07-.71,9.63l3.84,3.66,3.77-3.7-5.33-4.89,3.81-3.87,9.55,8.95-11.25,11.51-8.3-7.98c-6.66-6.41-6.29-10.5.3-18.02,5.46-6.24,11.52-6.65,17.38-1.43.44.39,8.52,8.51,8.54,8.53-1.09,1.24-2.68,2.43-3.39,3.56-2.89-2.64-5.79-5.81-8.56-8.27h0Z"/>
      <path class="cls-36" d="m307.59,114.12l-3.5-4.75,8.64-6.33-5.54-7.63-8.64,6.32-3.48-4.9,20.83-15.25,3.48,4.89-8.32,6.04,5.54,7.63,8.32-6.04,3.5,4.75-20.83,15.25Z"/>
      <path class="cls-36" d="m91.71,291.73l-3.01,2.96-6.91-7.16c-1.03-1.07-3.55-1.3-4.27-.66l-1.64,1.47,9.35,9.49-3.07,2.94-9.15-9.42-6.45,6.02-3.44-3.53,11.91-10.89c1.8-1.67,7.01-1.18,9.14.93l7.55,7.85Z"/>
      <path class="cls-36" d="m181.8,342.48l-2.58-7.65-3,7.21,5.58.43Zm8.12,9.79l-5.03-.03-1.84-5.33-8.55-.44-1.96,5.03-5.52-.38,9.94-21.63,5.38.23,7.57,22.54Z"/>
      <path class="cls-36" d="m165.29,345.28c-.91,4.09-4.38,5-8.5,4.06l-12.74-2.93,5.22-21.57,11.23,2.37c3.75.79,6.97,3.55,6.31,7.63-.28,1.73-.76,3.97-3.34,4.94,1.81,1.38,2.27,3.43,1.81,5.51h0Zm-12.9-10.42l5.55,1.32c1.7.4,3.08.32,3.37-1.52.34-2.14-1.64-2.81-3.39-3.22l-4.52-1.06-1.01,4.48Zm-1.88,8.53l4.33,1.09c2.61.66,4.66.75,5.07-1.13.56-2.57-2.4-3.12-4.61-3.67l-3.71-.91-1.07,4.62Z"/>
      <path class="cls-36" d="m313.46,285.84c3.13,2.79,2.23,6.27-.6,9.4l-8.77,9.69-16.29-15.07,7.54-8.65c2.52-2.9,6.5-4.36,9.74-1.79,1.38,1.09,3.1,2.61,2.69,5.33,2.08-.91,4.11-.31,5.69,1.1h0Zm-15.39,6.19l3.85-4.2c1.18-1.29,1.78-2.54.32-3.69-1.69-1.34-3.25.07-4.46,1.39l-3.13,3.44,3.41,3.06Zm6.53,5.8l3.06-3.25c1.85-1.96,2.93-3.7,1.48-4.97-1.97-1.74-3.89.57-5.45,2.24l-2.61,2.79,3.51,3.19Z"/>
      <path class="cls-36" d="m120.86,311.63c6.42,3.96,6.36,10.3,3.1,15.53-4.34,6.96-9.59,8.36-15.6,4.6-6.36-3.98-7.69-8.95-3.35-15.99,3.24-5.26,8.88-8.43,15.85-4.13h0Zm-10.18,16.34c3.83,2.38,6.49-.12,8.53-3.41,2.03-3.26,3.01-6.74-.77-9.09-3.79-2.35-6.8-.29-8.86,2.97-2.12,3.38-2.7,7.16,1.1,9.53h0Z"/>
      <path class="cls-36" d="m101.79,299.04c5.86,4.76,4.96,11.04,1.06,15.8-5.21,6.33-10.6,7.05-16.06,2.54-5.79-4.78-6.46-9.88-1.25-16.29,3.89-4.79,9.89-7.21,16.25-2.04h0Zm-12.21,14.88c3.49,2.86,6.45.73,8.9-2.27,2.43-2.97,3.86-6.29.41-9.11-3.45-2.83-6.7-1.17-9.16,1.79-2.54,3.07-3.61,6.75-.15,9.59h0Z"/>
      <path class="cls-36" d="m146.09,328.23l-6.52-2.59-6.42,16.88-5-1.99,6.42-16.88-6.44-2.56,1.56-3.93,17.96,7.14-1.56,3.94Z"/>
      <path class="cls-36" d="m228.57,348.01l-9,1.48c-3.89.64-7.12-2.19-7.84-6.43l-2.47-14.55,5.34-.91,2.41,14.67c.24,1.46.88,2.94,3.28,2.53l7.55-1.28.73,4.5Z"/>
      <path class="cls-36" d="m281.29,323.93l-7.69,4.91c-3.32,2.12-7.45.82-9.74-2.82l-7.98-12.68,4.54-2.95,7.98,12.8c.79,1.26,1.97,2.35,4.01,1.03l6.43-4.15,2.45,3.84Z"/>
      <path class="cls-36" d="m209.62,351.05l-9.09.76c-3.92.33-6.94-2.75-7.3-7.04l-1.23-14.73,5.39-.48,1.17,14.84c.12,1.48.64,3,3.07,2.79l7.63-.67.37,4.54Z"/>
      <path class="cls-36" d="m292.07,316.25c-5.67,4.49-9.36,3.92-14.02-1.96l-7.74-9.8,3.98-3.14,7.69,9.77c2.45,3.12,4.34,4.48,7.56,1.86,3.1-2.54,2.18-4.44-.28-7.56l-7.56-9.59,3.93-3.1,7.64,9.7c4.26,5.4,4.51,9.31-1.2,13.83h0Z"/>
      <path class="cls-36" d="m253,314.19l2.3,4.2-7.44,3.96c-3.09,1.73-1.97,5.7-.56,8.23,1.82,3.25,4.13,5.05,7.21,3.36l6.88-3.76,2.22,4.07-7.41,4.04c-4.72,2.57-10.5,1.48-14.3-5.29-3.43-6.12-1.88-11.59,1.98-13.82l9.1-4.99Z"/>
      <path class="cls-37" d="m339.48,203.8c-.29.23-.6.44-.95.62-1.5.79-3.54.47-5-.26-2.31-1.16-2.44-3.25-3.74-4.24-1.31-.99-3.38-.59-5.1-2.5-1.1-1.22-1.93-3.11-1.53-4.76.09-.37.2-.71.35-1.03-.31-.17-.6-.38-.89-.63-1.29-1.11-1.73-3.12-1.55-4.75.27-2.56,2.18-3.45,2.65-5.02.47-1.57-.65-3.33.54-5.63.75-1.45,2.21-2.91,3.89-3.15.39-.06.77-.07,1.13-.05.07-.38.19-.77.35-1.16.67-1.6,2.49-2.67,4.12-3.03,2.59-.57,4.08,1.01,5.79.95,1.71-.05,3.09-1.73,5.71-1.33,1.65.25,3.54,1.2,4.31,2.75.25.5.41.99.5,1.47.44-.06.91-.06,1.41,0,1.72.2,3.26,1.65,4.06,3.12,1.27,2.32.17,4.19.7,5.82.53,1.62,2.52,2.49,2.86,5.12.21,1.66-.17,3.74-1.45,4.91-.36.33-.75.61-1.15.82.22.44.37.94.46,1.49.29,1.71-.68,3.59-1.87,4.76-1.88,1.87-3.98,1.33-5.4,2.29-1.41.96-1.69,3.11-4.12,4.17-1.54.67-3.64.88-5.12-.02-.36-.22-.68-.46-.96-.73h0Z"/>
      <path class="cls-35" d="m353.43,190.23c.87.38,1.84.38,2.91-.61.86-.79.95-2.44.84-3.25-.25-1.91-2.22-3.04-2.78-4.77-.56-1.73.36-3.81-.55-5.5-.4-.72-1.43-2-2.59-2.14-1.45-.16-2.21.41-2.71,1.22-.52.82-.8,1.86-1.26,2.63-.03.06-.07.11-.12.16-.91,1.27-2.9,3.32-2.73,3.82.23.68.56.98,1.15,1.18.37.12.93.37,1.52.18.28-.09.59-.37.84-.51.41-.25,1.51-.23,1.91.16-.11.55-1,1.2-1.47,1.23-.29.03-.7-.02-.98.07-.6.19-.91.71-1.14,1.02-.37.5-.2,1.06.03,1.75.2.61,3.05,1.32,4.57,1.98h0c.92.33,1.67,1,2.56,1.39h0Zm-7.92-13.64s.04-.07.07-.1c.57-.69,1.45-1.31,2.05-2.07.58-.75.87-1.66.22-2.97-.52-1.05-2.08-1.59-2.89-1.71-1.9-.29-3.54,1.29-5.36,1.34-1.82.06-3.55-1.41-5.44-.99-.8.18-2.32.81-2.77,1.9-.56,1.35-.22,2.23.41,2.95.64.73,1.57,1.29,2.18,1.94l.03.03c1.11,1.22,2.62,3.66,3.34,3.66.73-.01,1.11-.23,1.47-.73.23-.31.64-.77.64-1.4,0-.29-.17-.67-.23-.95-.11-.46.25-1.51.74-1.77.48.27.83,1.32.71,1.78-.06.28-.23.66-.23.95,0,.62.39,1.09.62,1.4.36.5.81.7,1.53.66,1.08-.05,2.89-3.91,2.9-3.91h0Zm-12.93,1.64l-.06-.06h0c-.06-.08-.11-.16-.16-.25-.37-.77-.76-1.71-1.28-2.49-.51-.76-1.26-1.29-2.66-1.08-1.13.16-2.1,1.43-2.46,2.13-.85,1.66.1,3.62-.4,5.3-.5,1.68-2.38,2.83-2.58,4.67-.08.79.04,2.36.9,3.1,1.07.91,1.99.86,2.84.5.86-.38,1.66-1.05,2.45-1.42h0c.05-.02.1-.04.16-.05,1.56-.55,4.53-.99,4.68-1.66.21-.7.12-1.12-.24-1.63-.23-.32-.54-.84-1.13-1.04-.28-.09-.69-.05-.97-.08-.48-.04-1.36-.7-1.46-1.25.41-.38,1.51-.38,1.91-.13.25.14.55.43.83.51.59.2,1.15-.04,1.52-.16.59-.18,1.23-.58,1.48-1.26.16-.53-2.25-2.43-3.37-3.65h0Zm-2.63,12.47l-.11.04c-.82.27-1.9.09-2.81.3-.9.2-1.68.71-2,2.07-.26,1.1.57,2.45,1.1,3.03,1.24,1.38,3.44,1.2,4.84,2.27,1.39,1.06,1.78,3.21,3.44,4.05.71.36,2.23.81,3.25.28,1.25-.66,1.55-1.53,1.51-2.44-.03-.93-.3-1.92-.42-2.77-.02-.14-.01-.27.01-.4.09-1.68.87-4.65.26-5.05-.59-.41-1.03-.47-1.62-.28-.37.12-.96.25-1.34.75-.17.23-.26.64-.38.9-.18.44-1.09,1.07-1.64,1-.23-.5.11-1.56.47-1.86.21-.19.57-.4.75-.63.37-.5.32-1.11.32-1.5,0-.62-.21-1.07-.79-1.52-.62-.41-3.22,1.17-4.83,1.76h0Zm10.71,6.44c.01.09.02.19,0,.29-.11.88-.53,1.88-.62,2.85-.09.95.15,1.87,1.4,2.62,1,.61,2.61.24,3.36-.09,1.77-.77,2.31-2.98,3.81-4,1.51-1.02,3.76-.71,5.13-2.06.58-.58,1.52-1.93,1.33-3.08-.24-1.44-1.01-2.01-1.92-2.27-.93-.27-2.01-.25-2.88-.47-.06-.02-.12-.04-.17-.07h0c-1.55-.65-4.2-2.23-4.64-1.94-.58.44-.76.84-.77,1.46,0,.39-.06,1,.3,1.5.17.24.53.45.74.64.36.31.68,1.37.44,1.87-.55.07-1.45-.58-1.62-1.02-.11-.26-.2-.67-.37-.91-.36-.51-.96-.65-1.32-.77-.59-.2-1.36.14-1.96.55-.43.77-.32,2.89-.23,4.92h0Z"/>
      <path class="cls-35" d="m341.19,189.55c-1.88.61-3.91-.42-4.53-2.31-.61-1.89.42-3.91,2.31-4.53,1.89-.61,3.91.42,4.53,2.31.61,1.89-.42,3.92-2.31,4.53h0Z"/>
      <path class="cls-37" d="m34.61,203.8c-.28.23-.6.44-.95.62-1.5.79-3.54.47-5-.26-2.31-1.16-2.44-3.25-3.74-4.24-1.3-.99-3.37-.59-5.09-2.5-1.1-1.22-1.93-3.11-1.54-4.76.09-.37.2-.71.35-1.03-.3-.17-.6-.38-.89-.63-1.29-1.11-1.72-3.12-1.55-4.75.27-2.56,2.18-3.45,2.65-5.02.47-1.57-.65-3.33.53-5.63.75-1.45,2.22-2.91,3.89-3.15.39-.06.77-.07,1.14-.05.07-.38.19-.77.35-1.16.66-1.6,2.49-2.67,4.12-3.03,2.59-.57,4.08,1.01,5.79.95,1.71-.05,3.09-1.73,5.71-1.33,1.65.25,3.54,1.2,4.31,2.75.25.5.41.99.5,1.47.45-.06.91-.06,1.41,0,1.72.2,3.25,1.65,4.05,3.12,1.27,2.32.17,4.19.7,5.82.53,1.62,2.52,2.49,2.86,5.12.22,1.66-.17,3.74-1.45,4.91-.36.33-.75.61-1.14.82.22.44.37.94.46,1.49.29,1.71-.68,3.59-1.87,4.76-1.88,1.87-3.99,1.33-5.4,2.29-1.41.96-1.69,3.11-4.12,4.17-1.53.67-3.64.88-5.12-.02-.36-.22-.68-.46-.96-.73h0Z"/>
      <path class="cls-35" d="m48.56,190.23c.88.38,1.84.38,2.91-.61.87-.79.95-2.44.84-3.25-.25-1.91-2.22-3.04-2.79-4.77-.56-1.73.37-3.81-.55-5.5-.39-.72-1.43-2-2.59-2.14-1.45-.16-2.21.41-2.71,1.22-.52.82-.8,1.86-1.26,2.63-.04.06-.07.11-.12.16-.91,1.27-2.9,3.32-2.73,3.82.24.68.56.98,1.15,1.18.37.12.93.37,1.52.18.28-.09.59-.37.84-.51.41-.25,1.51-.23,1.91.16-.11.55-1,1.2-1.47,1.23-.29.03-.7-.02-.98.07-.59.19-.91.71-1.14,1.02-.37.5-.2,1.06.03,1.75.2.61,3.05,1.32,4.57,1.98h0c.92.33,1.67,1,2.56,1.39h0Zm-7.92-13.64s.05-.07.07-.1c.57-.69,1.45-1.31,2.05-2.07.59-.75.87-1.66.22-2.97-.52-1.05-2.08-1.59-2.89-1.71-1.91-.29-3.54,1.29-5.36,1.34-1.82.06-3.55-1.41-5.44-.99-.8.18-2.32.81-2.77,1.9-.57,1.35-.22,2.23.41,2.95.64.73,1.57,1.29,2.18,1.94l.03.03c1.11,1.22,2.62,3.66,3.34,3.66.73-.01,1.11-.23,1.48-.73.23-.31.63-.77.64-1.4,0-.29-.16-.67-.22-.95-.11-.46.25-1.51.74-1.77.49.27.83,1.32.72,1.78-.06.28-.23.66-.24.95,0,.62.39,1.09.62,1.4.36.5.81.7,1.53.66,1.08-.05,2.88-3.91,2.9-3.91h0Zm-12.93,1.64l-.06-.06h0c-.06-.08-.11-.16-.16-.25-.37-.77-.76-1.71-1.29-2.49-.51-.76-1.26-1.29-2.66-1.08-1.13.16-2.1,1.43-2.46,2.13-.85,1.66.1,3.62-.4,5.3-.5,1.68-2.39,2.83-2.58,4.67-.08.79.04,2.36.89,3.1,1.07.91,1.99.86,2.84.5.86-.38,1.66-1.05,2.45-1.42h0c.05-.02.1-.04.16-.05,1.56-.55,4.53-.99,4.68-1.66.22-.7.13-1.12-.24-1.63-.23-.32-.54-.84-1.13-1.04-.28-.09-.69-.05-.97-.08-.47-.04-1.36-.7-1.46-1.25.41-.38,1.52-.38,1.91-.13.25.14.55.43.83.51.59.2,1.15-.04,1.52-.16.59-.18,1.24-.58,1.48-1.26.16-.53-2.25-2.43-3.37-3.65h0Zm-2.63,12.47l-.11.04c-.82.27-1.9.09-2.81.3-.91.2-1.68.71-2,2.07-.26,1.1.57,2.45,1.1,3.03,1.24,1.38,3.44,1.2,4.83,2.27,1.39,1.06,1.78,3.21,3.44,4.05.71.36,2.24.81,3.24.28,1.25-.66,1.55-1.53,1.51-2.44-.03-.93-.3-1.92-.43-2.77-.02-.14-.01-.27.02-.4.09-1.68.87-4.65.26-5.05-.59-.41-1.03-.47-1.62-.28-.37.12-.97.25-1.34.75-.17.23-.26.64-.38.9-.18.44-1.09,1.07-1.64,1-.24-.5.1-1.56.46-1.86.21-.19.58-.4.75-.63.37-.5.32-1.11.32-1.5,0-.62-.21-1.07-.79-1.52-.62-.41-3.22,1.17-4.83,1.76h0Zm10.71,6.44c.02.09.02.19,0,.29-.11.88-.53,1.88-.62,2.85-.09.95.15,1.87,1.4,2.62,1,.61,2.61.24,3.36-.09,1.77-.77,2.31-2.98,3.81-4,1.51-1.02,3.76-.71,5.13-2.06.58-.58,1.53-1.93,1.33-3.08-.25-1.44-1.01-2.01-1.93-2.27-.93-.27-2.01-.25-2.88-.47-.06-.02-.12-.04-.17-.07h0c-1.55-.65-4.2-2.23-4.64-1.94-.58.44-.76.84-.77,1.46,0,.39-.06,1,.31,1.5.17.24.53.45.74.64.36.31.68,1.37.44,1.87-.55.07-1.45-.58-1.62-1.02-.11-.26-.2-.67-.37-.91-.36-.51-.96-.65-1.32-.77-.59-.2-1.36.14-1.96.55-.43.77-.32,2.89-.23,4.92h0Z"/>
      <path class="cls-35" d="m36.33,189.55c-1.89.61-3.91-.42-4.53-2.31-.61-1.89.42-3.91,2.31-4.53,1.89-.61,3.92.42,4.53,2.31.62,1.89-.42,3.92-2.3,4.53h0Z"/>
      <path class="cls-36" d="m187.64,9.38c98.45,0,178.25,79.8,178.25,178.25s-79.81,178.25-178.25,178.25S9.38,286.08,9.38,187.64,89.19,9.38,187.64,9.38h0Zm0-9.38C84.01,0,0,84.01,0,187.64s84.01,187.64,187.64,187.64,187.64-84.01,187.64-187.64S291.27,0,187.64,0h0Z"/>
      <path class="cls-33" d="m202.77,242.32l2.85-1.52.43.33-3.03,1.6-.24-.42Z"/>
      <path class="cls-33" d="m214.64,272.29c1.6,2,2.45,4.9,3.2,7.61.15.57.42,1.51.59,2.11l-.46.13c-.16-.55-.43-1.52-.59-2.11-.73-2.67-1.57-5.52-3.1-7.44l.38-.3Z"/>
      <path class="cls-33" d="m200.78,292.16c1.34.36,2.92.64,4.26.73,1.34.08,3.23-.02,4.57-.16l.05.48c-1.37.14-3.28.24-4.65.16-1.37-.08-2.99-.37-4.36-.74l.12-.47Z"/>
      <path class="cls-33" d="m188.14,261.2c2.12.08,4.58.19,6.69.33,2.11.14,4.53.31,6.68.52l-.05.48c-2.11-.2-4.53-.38-6.66-.52-2.12-.14-4.57-.25-6.68-.33l.02-.48Z"/>
      <path class="cls-33" d="m188.47,242.51l-6.62,9.08-.39-.29,6.62-9.08.39.29Z"/>
      <path class="cls-33" d="m170.79,255.41l-4.31-3.36.29-.39,4.31,3.36-.29.39Z"/>
      <path class="cls-33" d="m170.7,268.37c-.96,1.16-2.04,2.59-2.88,3.86-.84,1.27-1.89,3.02-2.62,4.41l-.43-.23c.74-1.39,1.79-3.16,2.64-4.45.85-1.29,1.94-2.73,2.91-3.91l.38.31Z"/>
      <path class="cls-33" d="m180.37,271.58c.66,1.89,1.57,4.12,2.44,5.91.88,1.79,1.99,3.84,3.04,5.53l-.41.25c-1.06-1.71-2.18-3.77-3.05-5.57-.88-1.8-1.8-4.06-2.46-5.97l.46-.16Z"/>
      <path class="cls-33" d="m170.83,255.1c3.66-1.32,7.31-2.64,10.97-3.96,2.25,3.38,4.41,6.94,6.66,10.31-3.52,2.84-6.24,6.2-8.18,10.61-3.05-1.71-6.5-2.67-9.96-3.63-.92-4.38-.43-8.84.51-13.33h0Z"/>
      <path class="cls-33" d="m207.36,272.95c-1.01,2.09-2.3,4.49-3.58,6.39-1.28,1.9-3.08,3.54-4.6,5.29l-.37-.32c1.5-1.73,3.29-3.36,4.56-5.25,1.27-1.89,2.55-4.27,3.55-6.33l.43.21Z"/>
      <path class="cls-33" d="m202.14,244.12l5.4,9.6-.42.24-5.4-9.59.42-.24Z"/>
      <path class="cls-33" d="m201.19,262.29c2.42-2.32,4.89-4.57,5.99-8.77,3.78,1.7,6.96,3.87,8.77,7.09.58,4.06.21,8.89-1.39,12.02-2.97.13-5.65-.64-7.55.63-.9-4.7-3.34-7.86-5.82-10.97h0Z"/>
      <path class="cls-33" d="m170.29,287.98c1.51.55,3.74,1.23,5.33,1.65,1.58.42,3.62.75,5.27,1.04l-.08.48c-1.66-.29-3.72-.62-5.31-1.05-1.59-.42-3.84-1.11-5.37-1.66l.16-.46Z"/>
      <path class="cls-33" d="m185.5,282.85c4.53.93,9.18,1.57,13.71,1.37,1.26,2.99,1.81,5.93,1.73,8.25-3.12,2.19-7.03,3.41-11.05,4.47-3.93-.94-6.82-3.43-9.62-6.07,2.26-2.03,3.87-4.87,5.23-8.02h0Z"/>
      <path class="cls-33" d="m184.88,238.95c1.11.98,2.27,1.71,3.21,3.71,4.81.17,9.85-.28,13.92,1.86.33-.77.88-1.4,1.27-2.11-2.21-1.31-4.67-2.41-7.51-3.21-3.83-.41-7.39-.4-10.89-.25h0Z"/>
      <path class="cls-33" d="m165.26,276.11c.29,5.2,2.71,8.84,5.48,12.23-.54.31-1.07.62-1.6.93-3.91-5.08-8.42-10.02-8.02-16.03,1.18,1.03,2.32,2.07,4.14,2.87h0Z"/>
      <path class="cls-33" d="m164.27,253.08c.94-1.01,2.51-.96,2.59-.99,0-.31.13-.89.13-1.91-.32.42-1.44.73-1.79,1.12-.43.47-.76,1-.93,1.78h0Z"/>
      <path class="cls-21" d="m164.27,253.08c.94-1.01,2.51-.96,2.59-.98,0-.31.13-.89.13-1.91-.32.42-1.44.73-1.79,1.12-.43.47-.76,1-.93,1.78h0Z"/>
      <path class="cls-33" d="m285.55,165.42c.08-2-.71-4.15-3.35-4.53-4.05-.57-9.02-.89-11.73-1.14-2.41-.22-2.85-3.56-2.93-4.84-.08-1.24-1.54-2.97-3.66-3.14-10.1-.78-14.26,2.64-22.11,3.12-5.93.36-11.06,1-18.27-1.79,9.42,5.89,23.7,15.79,33.09,25.23,1.06-.06,9.69-8.51,16.96-8.9,3.02-.16,5.43.09,8.77,1.96.5.28,1.31.77,1.79,1.14.87-2.85,1.32-4.09,1.44-7.12h0Z"/>
      <path class="cls-36" d="m259.6,160.31c-2.14.02-3.89-.83-3.9-1.9-.02-1.74,4.15-2.65,6.61-1.45,2.46,1.2.75,3.31-2.71,3.35h0Z"/>
      <path class="cls-33" d="m252.41,179.39c-36.66-32.75-104.77-66.42-172.29-45.56,60.91-7.94,100.66,14.34,131.21,39.93.76.63-.01,1.97-1.11,1.15-33.12-24.5-79.88-43.16-126.04-26.91,62.75-7.52,102.05,30.24,114.73,42.28.93.95.29,1.4-.61.63-31.32-26.78-78.41-37.91-105.52-23.67,40.55-6.79,74.56,15.46,92.63,33.07.77.83.1,1.66-.78.93-21.82-18.04-54.99-29.43-78.94-19.16,34.77-1.46,62.23,13.55,85.13,42.02,15.66-17.68,41.02-45.89,61.59-44.72h0Z"/>
      <path class="cls-33" d="m205.98,241.16c9.08,5.56,15.14,15.57,15.14,27,0,4.72-1.03,9.19-2.88,13.21l.08.27-.23.07c-2.1,4.42-5.2,8.29-9,11.29l.03.25c-.14.02-.27.03-.41.04-5.32,4.08-11.98,6.5-19.21,6.5-17.47,0-31.63-14.16-31.63-31.63s14.16-31.64,31.63-31.64c5.84,0,11.3,1.58,16,4.34l.49.29Zm-50.55,27c0,18.81,15.25,34.05,34.06,34.05s34.06-15.25,34.06-34.05-15.25-34.06-34.06-34.06-34.06,15.25-34.06,34.06h0Z"/>
      <path class="cls-33" d="m143.94,90.18c-1.67,0-2.22.44-2.22,1.33v2.05c0,1.27.96,1.53,2.43,1.53h9.86c.98,0,1.84.37,1.84,1.32v1.63c-.09.9-.76,1.29-1.66,1.29h-7.41c-2.95,0-5.07,1.96-5.07,5.97v6.78c0,1.28.75,1.74,1.75,1.74l17.64.03c.84,0,1.4-.45,1.4-1.14v-2.8c0-.82-1.09-1.06-2.25-1.06h-11.67c-.75.03-.95-.3-.95-.89v-1.54c0-1.52.82-2.32,2.54-2.32h7.53c2.95.01,4.59-1.8,4.59-4.89v-3.7c0-4.02-2.43-5.33-5.72-5.33h-12.63Z"/>
      <path class="cls-22" d="m143.94,90.18c-1.67,0-2.22.44-2.22,1.33v2.05c0,1.27.96,1.53,2.43,1.53h9.86c.98,0,1.84.37,1.84,1.32v1.63c-.09.9-.76,1.29-1.66,1.29h-7.41c-2.95,0-5.07,1.96-5.07,5.96v6.78c0,1.28.75,1.74,1.75,1.74l17.64.03c.84,0,1.4-.45,1.4-1.14v-2.8c0-.82-1.09-1.05-2.25-1.05h-11.67c-.75.03-.95-.31-.95-.89v-1.54c0-1.52.82-2.32,2.54-2.32h7.53c2.95.01,4.59-1.8,4.59-4.89v-3.7c0-4.02-2.43-5.33-5.72-5.33h-12.63Z"/>
      <path class="cls-29" d="m143.94,90.34c-.88,0-2.05.03-2.05,1.16v2.05c0,1.32,1.23,1.37,2.26,1.37h9.86c.96,0,2,.36,2,1.49v1.64c-.09,1.01-.88,1.43-1.82,1.43h-7.41c-3.45.01-4.91,2.6-4.9,5.8v6.78c0,1.06.54,1.57,1.58,1.58l17.64.03c.61,0,1.24-.28,1.24-.97v-2.8c0-.85-1.52-.89-2.09-.89h-11.66c-.77.03-1.12-.3-1.12-1.06v-1.53c0-1.74,1.03-2.49,2.71-2.49h7.53c2.97,0,4.42-1.86,4.42-4.73v-3.7c0-3.68-2.06-5.16-5.56-5.16h-12.63Z"/>
      <path class="cls-23" d="m143.94,90.34c-.88,0-2.05.03-2.05,1.16v2.05c0,1.32,1.23,1.37,2.26,1.37h9.86c.96,0,2,.36,2,1.49v1.64c-.09,1.01-.88,1.43-1.82,1.43h-7.41c-3.45.01-4.91,2.6-4.9,5.8v6.78c0,1.06.54,1.58,1.58,1.58l17.64.03c.61,0,1.24-.29,1.24-.97v-2.8c0-.85-1.52-.89-2.09-.89h-11.66c-.77.03-1.12-.3-1.12-1.06v-1.54c0-1.74,1.03-2.48,2.71-2.48h7.53c2.97,0,4.42-1.86,4.42-4.73v-3.7c0-3.68-2.06-5.16-5.56-5.16h-12.63Z"/>
      <path class="cls-26" d="m143.94,90.5c-.77,0-1.89,0-1.89,1v2.05c0,1.2,1.17,1.21,2.1,1.21h9.86c1.05,0,2.17.43,2.17,1.65v1.66c-.11,1.1-.96,1.58-1.99,1.58h-7.41c-3.35,0-4.74,2.53-4.74,5.64v6.78c0,.97.47,1.41,1.43,1.41l17.64.03c.52,0,1.07-.22,1.07-.81v-2.8c0-.7-1.48-.73-1.93-.73h-11.66c-.86.04-1.28-.37-1.28-1.22v-1.53c0-1.83,1.11-2.65,2.87-2.64h7.53c2.88,0,4.26-1.79,4.26-4.57v-3.7c0-3.59-1.99-5-5.4-5h-12.63Z"/>
      <path class="cls-12" d="m143.94,90.5c-.77,0-1.89,0-1.89,1v2.05c0,1.2,1.17,1.21,2.1,1.21h9.86c1.05,0,2.17.43,2.17,1.65v1.66c-.11,1.1-.96,1.58-1.99,1.58h-7.41c-3.35,0-4.74,2.53-4.74,5.64v6.78c0,.97.47,1.41,1.43,1.41l17.64.03c.52,0,1.07-.22,1.07-.81v-2.8c0-.7-1.48-.73-1.93-.73h-11.66c-.86.04-1.28-.37-1.28-1.22v-1.54c0-1.83,1.11-2.65,2.87-2.65h7.53c2.88,0,4.26-1.79,4.26-4.57v-3.7c0-3.59-1.99-5-5.4-5h-12.63Z"/>
      <path class="cls-25" d="m143.94,90.67c-.67,0-1.73-.04-1.73.84v2.05c0,1.08,1.11,1.04,1.94,1.04h9.86c1.15,0,2.33.49,2.33,1.81v1.67c-.11,1.19-1.04,1.73-2.15,1.73h-7.41c-3.26.01-4.58,2.46-4.58,5.48v6.78c0,.88.39,1.25,1.26,1.25l17.64.03c.42,0,.91-.16.91-.65v-2.8c0-.54-1.43-.57-1.77-.57h-11.66c-.95.04-1.45-.44-1.45-1.38v-1.53c0-1.92,1.18-2.81,3.04-2.81h7.53c2.79,0,4.1-1.71,4.1-4.41v-3.7c0-3.5-1.92-4.84-5.24-4.84h-12.63Z"/>
      <path class="cls-17" d="m143.94,90.67c-.67,0-1.73-.04-1.73.84v2.05c0,1.08,1.11,1.04,1.94,1.04h9.86c1.15,0,2.33.49,2.33,1.81v1.67c-.11,1.19-1.04,1.73-2.15,1.73h-7.41c-3.26.01-4.58,2.46-4.58,5.48v6.78c0,.88.39,1.25,1.26,1.25l17.64.03c.42,0,.91-.16.91-.65v-2.8c0-.54-1.43-.57-1.77-.57h-11.66c-.95.04-1.45-.44-1.45-1.38v-1.54c0-1.92,1.18-2.81,3.04-2.81h7.53c2.79,0,4.1-1.71,4.1-4.41v-3.7c0-3.5-1.92-4.84-5.24-4.84h-12.63Z"/>
      <path class="cls-27" d="m143.94,90.83c-.56,0-1.57-.07-1.57.68v2.05c0,.96,1.06.88,1.78.88h9.86c1.24,0,2.49.56,2.49,1.97v1.69c-.12,1.27-1.11,1.87-2.31,1.88h-7.41c-3.17,0-4.42,2.39-4.42,5.32v6.78c0,.79.33,1.09,1.1,1.09l17.64.03c.32,0,.75-.1.75-.49v-2.8c0-.36-1.38-.41-1.61-.41h-11.65c-1.05.04-1.62-.51-1.62-1.54v-1.53c0-2.01,1.25-2.97,3.2-2.97h7.53c2.7,0,3.94-1.64,3.94-4.25v-3.7c0-3.41-1.85-4.68-5.07-4.68h-12.63Z"/>
      <path class="cls-18" d="m143.94,90.83c-.56,0-1.57-.07-1.57.68v2.05c0,.96,1.06.88,1.78.88h9.86c1.24,0,2.49.56,2.49,1.97v1.69c-.12,1.27-1.11,1.87-2.31,1.88h-7.41c-3.17,0-4.42,2.39-4.42,5.32v6.78c0,.79.33,1.09,1.1,1.09l17.64.03c.32,0,.75-.1.75-.49v-2.8c0-.36-1.38-.41-1.61-.41h-11.65c-1.05.04-1.62-.51-1.62-1.54v-1.54c0-2.01,1.25-2.97,3.2-2.97h7.53c2.7,0,3.94-1.64,3.94-4.25v-3.7c0-3.41-1.85-4.68-5.07-4.68h-12.63Z"/>
      <path class="cls-24" d="m143.94,90.99c-.41,0-1.41-.09-1.41.52v2.05c0,.83,1.02.72,1.62.72h9.86c1.33,0,2.65.62,2.65,2.14v1.7c-.13,1.35-1.19,2.02-2.47,2.02h-7.41c-3.08,0-4.26,2.32-4.25,5.16v6.77c0,.7.25.93.94.93l17.64.03c.22,0,.59-.04.59-.32v-2.79c-.18-.22-1.18-.25-1.45-.25h-11.65c-1.14.04-1.78-.58-1.78-1.7v-1.54c0-2.1,1.32-3.13,3.36-3.13h7.53c2.61,0,3.78-1.57,3.78-4.08v-3.7c0-3.31-1.78-4.52-4.91-4.52h-12.63Z"/>
      <path class="cls-16" d="m143.94,90.99c-.41,0-1.41-.09-1.41.52v2.05c0,.82,1.02.72,1.62.72h9.86c1.33,0,2.65.62,2.65,2.14v1.7c-.13,1.36-1.19,2.02-2.47,2.02h-7.41c-3.08,0-4.26,2.32-4.25,5.16v6.77c0,.7.25.93.94.93l17.64.03c.22,0,.59-.04.59-.32v-2.79c-.18-.22-1.18-.25-1.45-.25h-11.65c-1.14.04-1.78-.58-1.78-1.7v-1.54c0-2.1,1.32-3.13,3.36-3.13h7.53c2.61,0,3.78-1.57,3.78-4.08v-3.7c0-3.31-1.78-4.52-4.91-4.52h-12.63Z"/>
      <path class="cls-30" d="m143.94,91.15c-.21,0-1.06.02-1.22.19-.02.04-.02.13-.02.17v2.05c0,.68.98.56,1.45.56h9.86c1.43,0,2.82.69,2.82,2.3v1.72c-.14,1.44-1.27,2.16-2.64,2.17h-7.41c-2.98,0-4.09,2.25-4.09,4.99v6.77c0,.61.18.77.78.77l17.64.03c.09,0,.42,0,.42-.16l.06-2.66c-.21-.18-1.07-.22-1.34-.22h-11.64c-1.23.05-1.95-.65-1.95-1.87v-1.54c0-2.19,1.4-3.29,3.52-3.29h7.53c2.52,0,3.61-1.5,3.61-3.92v-3.7c0-3.22-1.7-4.35-4.75-4.35h-12.63Z"/>
      <path class="cls-14" d="m143.94,91.15c-.21,0-1.06.02-1.22.19-.02.04-.02.13-.02.17v2.05c0,.68.98.56,1.45.56h9.86c1.43,0,2.82.69,2.82,2.3v1.72c-.14,1.44-1.27,2.16-2.64,2.17h-7.41c-2.98,0-4.09,2.25-4.09,4.99v6.77c0,.61.18.77.78.77l17.64.03c.09,0,.42,0,.42-.16l.06-2.66c-.21-.18-1.07-.22-1.34-.22h-11.64c-1.23.05-1.95-.65-1.95-1.87v-1.54c0-2.19,1.4-3.29,3.52-3.29h7.53c2.52,0,3.61-1.5,3.61-3.92v-3.7c0-3.22-1.7-4.36-4.75-4.36h-12.63Z"/>
      <path class="cls-34" d="m142.87,91.44s0,.05,0,.07v2.05s0,.18.03.22c.17.16,1.04.17,1.26.17h9.86c1.52,0,2.98.76,2.98,2.46v1.68s0,.06,0,.06c-.14,1.52-1.34,2.31-2.79,2.31h-7.41c-2.89,0-3.93,2.18-3.93,4.83v6.78c0,.52.11.61.61.61l17.64.03c.06,0,.19,0,.26-.04v-2.55c-.3-.1-.9-.13-1.12-.13h-11.64c-1.32.05-2.11-.72-2.11-2.03v-1.54c0-2.28,1.47-3.45,3.68-3.45h7.53c2.43,0,3.45-1.43,3.45-3.76v-3.7c0-3.13-1.63-4.2-4.59-4.2h-12.63c-.2,0-.84.02-1.08.13h0Z"/>
      <path class="cls-13" d="m142.87,91.44s0,.05,0,.07v2.05s0,.17.03.22c.17.16,1.04.17,1.26.17h9.86c1.52,0,2.98.76,2.98,2.46v1.68s0,.05,0,.05c-.14,1.52-1.34,2.31-2.79,2.31h-7.41c-2.89,0-3.93,2.18-3.93,4.83v6.78c0,.52.11.61.61.61l17.64.03c.06,0,.19,0,.26-.04v-2.55c-.3-.1-.9-.13-1.12-.13h-11.64c-1.32.05-2.11-.72-2.11-2.03v-1.54c0-2.28,1.47-3.45,3.68-3.45h7.53c2.43,0,3.45-1.43,3.45-3.76v-3.7c0-3.13-1.63-4.2-4.59-4.2h-12.63c-.2,0-.84.02-1.08.13h0Z"/>
      <path class="cls-31" d="m143.03,91.56v2s0,.08,0,.11c.24.11.91.12,1.12.12h9.86c1.61,0,3.14.83,3.14,2.62v1.75c-.16,1.6-1.43,2.46-2.96,2.46h-7.41c-2.8,0-3.77,2.11-3.77,4.67v6.77c0,.08.01.32.07.38.07.05.31.07.39.07l17.64.03s.06,0,.1,0v-2.3c-.29-.07-.76-.09-.96-.09h-11.63c-1.41.05-2.28-.79-2.28-2.19v-1.53c0-2.37,1.54-3.62,3.84-3.62h7.53c2.34,0,3.29-1.35,3.29-3.6v-3.7c0-3.03-1.56-4.03-4.43-4.03h-12.63c-.18,0-.66.01-.92.08h0Z"/>
      <path class="cls-20" d="m143.03,91.56v2s0,.07,0,.11c.24.11.91.12,1.12.12h9.86c1.61,0,3.14.83,3.14,2.62v1.75c-.16,1.61-1.43,2.46-2.96,2.46h-7.41c-2.8,0-3.77,2.11-3.77,4.67v6.77c0,.08.01.32.07.38.07.05.31.07.39.07l17.64.03s.06,0,.1,0v-2.31c-.29-.07-.76-.08-.96-.08h-11.63c-1.41.05-2.28-.79-2.28-2.19v-1.54c0-2.37,1.54-3.62,3.84-3.62h7.53c2.34,0,3.29-1.35,3.29-3.6v-3.7c0-3.03-1.56-4.03-4.43-4.03h-12.63c-.18,0-.66.01-.92.08h0Z"/>
      <path class="cls-32" d="m143.19,91.69v1.86c.27.07.78.07.97.07h9.86c1.7,0,3.3.9,3.3,2.79v1.77c-.16,1.69-1.5,2.61-3.12,2.61h-7.41c-2.7,0-3.61,2.04-3.6,4.51v6.77c0,.06.01.18.03.26.07.02.2.02.26.02l17.58.03v-2.02c-.27-.05-.63-.06-.8-.06h-11.62c-1.51.06-2.45-.86-2.45-2.35v-1.53c0-2.46,1.61-3.78,4-3.78h7.53c2.24,0,3.13-1.28,3.13-3.43v-3.7c0-2.94-1.49-3.87-4.26-3.87h-12.63c-.15,0-.51,0-.76.05h0Z"/>
      <path class="cls-15" d="m143.19,91.69v1.86c.27.07.78.07.97.07h9.86c1.7,0,3.3.9,3.3,2.79v1.77c-.16,1.69-1.5,2.61-3.12,2.61h-7.41c-2.7,0-3.61,2.04-3.6,4.51v6.77c0,.06.01.18.03.26.07.02.2.02.26.02l17.58.03v-2.02c-.27-.05-.63-.06-.8-.06h-11.62c-1.51.06-2.45-.86-2.45-2.35v-1.54c0-2.46,1.61-3.78,4-3.78h7.53c2.24,0,3.13-1.28,3.13-3.43v-3.7c0-2.94-1.49-3.87-4.26-3.87h-12.63c-.15,0-.51,0-.76.05h0Z"/>
      <path class="cls-28" d="m143.35,91.83v1.59c.26.04.64.05.8.05h9.86c1.79,0,3.46.97,3.46,2.95v1.78c-.17,1.77-1.58,2.75-3.28,2.75h-7.41c-2.6,0-3.45,1.97-3.45,4.34v6.77s0,.07.01.12c.04,0,.09,0,.12,0l17.41.03v-1.71c-.23-.03-.49-.04-.63-.04h-11.62c-1.6.06-2.62-.93-2.62-2.52v-1.53c0-2.55,1.68-3.95,4.17-3.94h7.53c2.15,0,2.96-1.21,2.96-3.27v-3.7c0-2.84-1.41-3.7-4.1-3.7h-12.63c-.12,0-.38,0-.59.03h0Z"/>
      <path class="cls-19" d="m143.35,91.83v1.59c.26.04.64.05.8.05h9.86c1.79,0,3.46.97,3.46,2.95v1.78c-.17,1.77-1.58,2.75-3.28,2.75h-7.41c-2.6,0-3.45,1.97-3.45,4.34v6.77s0,.08.01.12c.04,0,.09,0,.12,0l17.41.03v-1.71c-.23-.03-.49-.04-.63-.04h-11.62c-1.6.06-2.62-.93-2.62-2.52v-1.54c0-2.56,1.68-3.95,4.17-3.94h7.53c2.15,0,2.96-1.21,2.96-3.27v-3.7c0-2.84-1.41-3.7-4.1-3.7h-12.63c-.12,0-.38,0-.59.03h0Z"/>
      <path class="cls-33" d="m197.24,90.18h5.16c5,0,9.08,4.09,9.08,9.08v5.5c0,4.99-4.08,9.08-9.08,9.08h-5.16c-4.99,0-9.08-4.09-9.08-9.08v-5.5c0-4.99,4.09-9.08,9.08-9.08h0Zm1.44,4.55h2.41c2.33,0,4.24,1.91,4.24,4.24v6.02c0,2.33-1.91,4.24-4.24,4.24h-2.41c-2.33,0-4.24-1.91-4.24-4.24v-6.02c0-2.33,1.91-4.24,4.24-4.24h0Z"/>
      <path class="cls-22" d="m197.24,90.18h5.16c5,0,9.08,4.09,9.08,9.08v5.5c0,4.99-4.08,9.08-9.08,9.08h-5.16c-4.99,0-9.08-4.09-9.08-9.08v-5.5c0-4.99,4.09-9.08,9.08-9.08h0Zm1.44,4.55h2.41c2.33,0,4.24,1.91,4.24,4.24v6.02c0,2.33-1.91,4.24-4.24,4.24h-2.41c-2.33,0-4.24-1.91-4.24-4.24v-6.02c0-2.33,1.91-4.24,4.24-4.24h0Z"/>
      <path class="cls-29" d="m197.24,90.34c-4.9,0-8.91,4.02-8.91,8.92v5.5c0,4.9,4.01,8.91,8.91,8.91h5.16c4.91,0,8.92-4.01,8.92-8.91v-5.5c0-4.9-4.01-8.92-8.92-8.92h-5.16Zm1.44,4.23h2.41c2.42,0,4.4,1.98,4.4,4.4v6.02c0,2.42-1.98,4.4-4.4,4.4h-2.41c-2.42,0-4.4-1.98-4.4-4.4v-6.02c0-2.42,1.98-4.4,4.4-4.4h0Z"/>
      <path class="cls-23" d="m197.24,90.34c-4.9,0-8.91,4.02-8.91,8.92v5.5c0,4.9,4.01,8.91,8.91,8.91h5.16c4.91,0,8.92-4.01,8.92-8.91v-5.5c0-4.9-4.01-8.92-8.92-8.92h-5.16Zm1.44,4.23h2.41c2.42,0,4.4,1.98,4.4,4.4v6.02c0,2.42-1.98,4.4-4.4,4.4h-2.41c-2.42,0-4.4-1.98-4.4-4.4v-6.02c0-2.42,1.98-4.4,4.4-4.4h0Z"/>
      <path class="cls-26" d="m197.24,90.5c-4.81,0-8.75,3.94-8.75,8.75v5.5c0,4.81,3.94,8.75,8.75,8.75h5.16c4.82,0,8.75-3.94,8.75-8.75v-5.5c0-4.82-3.94-8.75-8.75-8.75h-5.16Zm1.44,3.9h2.41c2.51,0,4.57,2.05,4.57,4.57v6.02c0,2.51-2.05,4.57-4.57,4.57h-2.41c-2.51,0-4.56-2.05-4.56-4.57v-6.02c0-2.51,2.06-4.57,4.56-4.57h0Z"/>
      <path class="cls-12" d="m197.24,90.5c-4.81,0-8.75,3.94-8.75,8.75v5.5c0,4.81,3.94,8.75,8.75,8.75h5.16c4.82,0,8.75-3.94,8.75-8.75v-5.5c0-4.82-3.94-8.75-8.75-8.75h-5.16Zm1.44,3.9h2.41c2.51,0,4.57,2.05,4.57,4.57v6.02c0,2.51-2.05,4.57-4.57,4.57h-2.41c-2.51,0-4.56-2.06-4.56-4.57v-6.02c0-2.51,2.06-4.57,4.56-4.57h0Z"/>
      <path class="cls-25" d="m197.24,90.66c-4.72,0-8.59,3.87-8.59,8.59v5.5c0,4.73,3.87,8.59,8.59,8.59h5.16c4.73,0,8.59-3.86,8.59-8.59v-5.5c0-4.73-3.87-8.59-8.59-8.59h-5.16Zm1.44,3.58h2.41c2.6,0,4.73,2.13,4.73,4.73v6.02c0,2.6-2.12,4.73-4.73,4.73h-2.41c-2.6,0-4.73-2.13-4.73-4.73v-6.02c0-2.6,2.13-4.73,4.73-4.73h0Z"/>
      <path class="cls-17" d="m197.24,90.66c-4.72,0-8.59,3.87-8.59,8.59v5.5c0,4.73,3.87,8.59,8.59,8.59h5.16c4.73,0,8.59-3.86,8.59-8.59v-5.5c0-4.73-3.87-8.59-8.59-8.59h-5.16Zm1.44,3.58h2.41c2.6,0,4.73,2.12,4.73,4.73v6.02c0,2.6-2.12,4.73-4.73,4.73h-2.41c-2.6,0-4.73-2.12-4.73-4.73v-6.02c0-2.6,2.13-4.73,4.73-4.73h0Z"/>
      <path class="cls-27" d="m197.24,90.83c-4.64,0-8.43,3.79-8.43,8.43v5.5c0,4.64,3.79,8.43,8.43,8.43h5.16c4.64,0,8.43-3.79,8.43-8.43v-5.5c0-4.64-3.79-8.43-8.43-8.43h-5.16Zm1.44,3.25h2.41c2.69,0,4.89,2.2,4.89,4.89v6.02c0,2.69-2.2,4.89-4.89,4.89h-2.41c-2.69,0-4.89-2.2-4.89-4.89v-6.02c0-2.69,2.2-4.89,4.89-4.89h0Z"/>
      <path class="cls-18" d="m197.24,90.83c-4.64,0-8.43,3.79-8.43,8.43v5.5c0,4.64,3.79,8.43,8.43,8.43h5.16c4.64,0,8.43-3.79,8.43-8.43v-5.5c0-4.64-3.79-8.43-8.43-8.43h-5.16Zm1.44,3.25h2.41c2.69,0,4.89,2.2,4.89,4.89v6.02c0,2.69-2.2,4.89-4.89,4.89h-2.41c-2.69,0-4.89-2.2-4.89-4.89v-6.02c0-2.69,2.2-4.89,4.89-4.89h0Z"/>
      <path class="cls-24" d="m197.24,90.99c-4.55,0-8.27,3.72-8.27,8.27v5.5c0,4.55,3.72,8.27,8.27,8.27h5.16c4.55,0,8.27-3.72,8.27-8.27v-5.5c0-4.55-3.72-8.27-8.27-8.27h-5.16Zm1.44,2.93h2.41c2.78,0,5.05,2.27,5.05,5.05v6.02c0,2.78-2.27,5.05-5.05,5.05h-2.41c-2.78,0-5.05-2.27-5.05-5.05v-6.02c0-2.78,2.27-5.05,5.05-5.05h0Z"/>
      <path class="cls-16" d="m197.24,90.99c-4.55,0-8.27,3.72-8.27,8.27v5.5c0,4.55,3.72,8.27,8.27,8.27h5.16c4.55,0,8.27-3.72,8.27-8.27v-5.5c0-4.55-3.72-8.27-8.27-8.27h-5.16Zm1.44,2.93h2.41c2.78,0,5.05,2.27,5.05,5.05v6.02c0,2.78-2.27,5.05-5.05,5.05h-2.41c-2.78,0-5.05-2.27-5.05-5.05v-6.02c0-2.78,2.27-5.05,5.05-5.05h0Z"/>
      <path class="cls-30" d="m197.24,91.15c-4.46,0-8.11,3.65-8.11,8.1v5.5c0,4.46,3.65,8.11,8.11,8.11h5.16c4.46,0,8.11-3.65,8.11-8.11v-5.5c0-4.46-3.65-8.1-8.11-8.1h-5.16Zm1.44,2.6h2.41c2.87,0,5.21,2.34,5.21,5.22v6.02c0,2.87-2.34,5.22-5.21,5.22h-2.41c-2.87,0-5.21-2.34-5.21-5.22v-6.02c0-2.87,2.34-5.22,5.21-5.22h0Z"/>
      <path class="cls-14" d="m197.24,91.15c-4.46,0-8.11,3.65-8.11,8.11v5.5c0,4.46,3.65,8.1,8.11,8.1h5.16c4.46,0,8.11-3.65,8.11-8.1v-5.5c0-4.46-3.65-8.11-8.11-8.11h-5.16Zm1.44,2.61h2.41c2.87,0,5.21,2.34,5.21,5.21v6.02c0,2.87-2.34,5.21-5.21,5.21h-2.41c-2.87,0-5.21-2.34-5.21-5.21v-6.02c0-2.87,2.34-5.21,5.21-5.21h0Z"/>
      <path class="cls-34" d="m197.24,91.31c-4.37,0-7.94,3.58-7.94,7.95v5.5c0,4.37,3.57,7.95,7.94,7.95h5.16c4.37,0,7.95-3.58,7.95-7.95v-5.5c0-4.37-3.58-7.95-7.95-7.95h-5.16Zm1.44,2.29h2.41c2.96,0,5.38,2.41,5.38,5.38v6.02c0,2.96-2.42,5.38-5.38,5.38h-2.41c-2.96,0-5.38-2.41-5.38-5.38v-6.02c0-2.96,2.42-5.38,5.38-5.38h0Z"/>
      <path class="cls-13" d="m197.24,91.31c-4.37,0-7.94,3.58-7.94,7.95v5.5c0,4.37,3.57,7.95,7.94,7.95h5.16c4.37,0,7.95-3.58,7.95-7.95v-5.5c0-4.37-3.58-7.95-7.95-7.95h-5.16Zm1.44,2.29h2.41c2.96,0,5.38,2.41,5.38,5.38v6.02c0,2.96-2.42,5.38-5.38,5.38h-2.41c-2.96,0-5.38-2.41-5.38-5.38v-6.02c0-2.96,2.42-5.38,5.38-5.38h0Z"/>
      <path class="cls-31" d="m197.24,91.48c-4.28,0-7.78,3.5-7.78,7.78v5.5c0,4.28,3.5,7.78,7.78,7.78h5.16c4.28,0,7.79-3.5,7.79-7.78v-5.5c0-4.28-3.51-7.78-7.79-7.78h-5.16Zm1.44,1.96h2.41c3.05,0,5.54,2.48,5.54,5.54v6.02c0,3.05-2.49,5.54-5.54,5.54h-2.41c-3.05,0-5.53-2.49-5.53-5.54v-6.02c0-3.05,2.49-5.54,5.53-5.54h0Z"/>
      <path class="cls-20" d="m197.24,91.48c-4.28,0-7.78,3.5-7.78,7.78v5.5c0,4.28,3.5,7.78,7.78,7.78h5.16c4.28,0,7.79-3.5,7.79-7.78v-5.5c0-4.28-3.51-7.78-7.79-7.78h-5.16Zm1.44,1.96h2.41c3.05,0,5.54,2.48,5.54,5.54v6.02c0,3.05-2.49,5.54-5.54,5.54h-2.41c-3.05,0-5.53-2.49-5.53-5.54v-6.02c0-3.05,2.49-5.54,5.53-5.54h0Z"/>
      <path class="cls-32" d="m197.24,91.64c-4.19,0-7.62,3.43-7.62,7.62v5.5c0,4.19,3.43,7.62,7.62,7.62h5.16c4.19,0,7.62-3.43,7.62-7.62v-5.5c0-4.19-3.43-7.62-7.62-7.62h-5.16Zm1.44,1.64h2.41c3.14,0,5.7,2.56,5.7,5.7v6.02c0,3.14-2.56,5.7-5.7,5.7h-2.41c-3.14,0-5.7-2.56-5.7-5.7v-6.02c0-3.14,2.56-5.7,5.7-5.7h0Z"/>
      <path class="cls-15" d="m197.24,91.64c-4.19,0-7.62,3.43-7.62,7.62v5.5c0,4.19,3.43,7.62,7.62,7.62h5.16c4.19,0,7.62-3.43,7.62-7.62v-5.5c0-4.19-3.43-7.62-7.62-7.62h-5.16Zm1.44,1.64h2.41c3.14,0,5.7,2.56,5.7,5.7v6.02c0,3.14-2.56,5.7-5.7,5.7h-2.41c-3.14,0-5.7-2.56-5.7-5.7v-6.02c0-3.14,2.56-5.7,5.7-5.7h0Z"/>
      <path class="cls-28" d="m197.24,91.8c-4.1,0-7.46,3.36-7.46,7.46v5.5c0,4.1,3.36,7.46,7.46,7.46h5.16c4.1,0,7.46-3.36,7.46-7.46v-5.5c0-4.1-3.36-7.46-7.46-7.46h-5.16Zm1.44,1.31h2.41c3.23,0,5.86,2.63,5.86,5.86v6.02c0,3.23-2.63,5.86-5.86,5.86h-2.41c-3.23,0-5.86-2.64-5.86-5.86v-6.02c0-3.23,2.63-5.86,5.86-5.86h0Z"/>
      <path class="cls-19" d="m197.24,91.8c-4.1,0-7.46,3.36-7.46,7.46v5.5c0,4.1,3.36,7.46,7.46,7.46h5.16c4.1,0,7.46-3.36,7.46-7.46v-5.5c0-4.1-3.36-7.46-7.46-7.46h-5.16Zm1.44,1.31h2.41c3.23,0,5.86,2.63,5.86,5.86v6.02c0,3.23-2.63,5.86-5.86,5.86h-2.41c-3.23,0-5.86-2.64-5.86-5.86v-6.02c0-3.23,2.63-5.86,5.86-5.86h0Z"/>
      <path class="cls-33" d="m172.69,90.18h5.16c5,0,9.08,4.09,9.08,9.08v5.5c0,4.99-4.08,9.08-9.08,9.08h-5.16c-4.99,0-9.08-4.09-9.08-9.08v-5.5c0-4.99,4.09-9.08,9.08-9.08h0Zm1.44,4.55h2.41c2.33,0,4.24,1.91,4.24,4.24v6.02c0,2.33-1.91,4.24-4.24,4.24h-2.41c-2.33,0-4.24-1.91-4.24-4.24v-6.02c0-2.33,1.91-4.24,4.24-4.24h0Z"/>
      <path class="cls-22" d="m172.69,90.18h5.16c5,0,9.08,4.09,9.08,9.08v5.5c0,4.99-4.08,9.08-9.08,9.08h-5.16c-4.99,0-9.08-4.09-9.08-9.08v-5.5c0-4.99,4.09-9.08,9.08-9.08h0Zm1.44,4.55h2.41c2.33,0,4.24,1.91,4.24,4.24v6.02c0,2.33-1.91,4.24-4.24,4.24h-2.41c-2.33,0-4.24-1.91-4.24-4.24v-6.02c0-2.33,1.91-4.24,4.24-4.24h0Z"/>
      <path class="cls-29" d="m172.69,90.34c-4.9,0-8.92,4.02-8.92,8.92v5.5c0,4.9,4.01,8.91,8.92,8.91h5.16c4.91,0,8.92-4.01,8.92-8.91v-5.5c0-4.9-4.01-8.92-8.92-8.92h-5.16Zm1.44,4.23h2.41c2.42,0,4.4,1.98,4.4,4.4v6.02c0,2.42-1.98,4.4-4.4,4.4h-2.41c-2.42,0-4.4-1.98-4.4-4.4v-6.02c0-2.42,1.98-4.4,4.4-4.4h0Z"/>
      <path class="cls-23" d="m172.69,90.34c-4.9,0-8.92,4.02-8.92,8.92v5.5c0,4.9,4.01,8.91,8.92,8.91h5.16c4.91,0,8.92-4.01,8.92-8.91v-5.5c0-4.9-4.01-8.92-8.92-8.92h-5.16Zm1.44,4.23h2.41c2.42,0,4.4,1.98,4.4,4.4v6.02c0,2.42-1.98,4.4-4.4,4.4h-2.41c-2.42,0-4.4-1.98-4.4-4.4v-6.02c0-2.42,1.98-4.4,4.4-4.4h0Z"/>
      <path class="cls-26" d="m172.69,90.5c-4.81,0-8.75,3.94-8.75,8.75v5.5c0,4.81,3.94,8.75,8.75,8.75h5.16c4.82,0,8.75-3.94,8.75-8.75v-5.5c0-4.82-3.94-8.75-8.75-8.75h-5.16Zm1.44,3.9h2.41c2.51,0,4.56,2.05,4.56,4.57v6.02c0,2.51-2.05,4.57-4.56,4.57h-2.41c-2.51,0-4.56-2.05-4.56-4.57v-6.02c0-2.51,2.05-4.57,4.56-4.57h0Z"/>
      <path class="cls-12" d="m172.69,90.5c-4.81,0-8.75,3.94-8.75,8.75v5.5c0,4.81,3.94,8.75,8.75,8.75h5.16c4.82,0,8.75-3.94,8.75-8.75v-5.5c0-4.82-3.94-8.75-8.75-8.75h-5.16Zm1.44,3.9h2.41c2.51,0,4.56,2.05,4.56,4.57v6.02c0,2.51-2.05,4.57-4.56,4.57h-2.41c-2.51,0-4.56-2.06-4.56-4.57v-6.02c0-2.51,2.05-4.57,4.56-4.57h0Z"/>
      <path class="cls-25" d="m172.69,90.66c-4.73,0-8.59,3.87-8.59,8.59v5.5c0,4.73,3.86,8.59,8.59,8.59h5.16c4.73,0,8.59-3.86,8.59-8.59v-5.5c0-4.73-3.87-8.59-8.59-8.59h-5.16Zm1.44,3.58h2.41c2.6,0,4.73,2.13,4.73,4.73v6.02c0,2.6-2.12,4.73-4.73,4.73h-2.41c-2.6,0-4.73-2.13-4.73-4.73v-6.02c0-2.6,2.13-4.73,4.73-4.73h0Z"/>
      <path class="cls-17" d="m172.69,90.66c-4.73,0-8.59,3.87-8.59,8.59v5.5c0,4.73,3.86,8.59,8.59,8.59h5.16c4.73,0,8.59-3.86,8.59-8.59v-5.5c0-4.73-3.87-8.59-8.59-8.59h-5.16Zm1.44,3.58h2.41c2.6,0,4.73,2.12,4.73,4.73v6.02c0,2.6-2.12,4.73-4.73,4.73h-2.41c-2.6,0-4.73-2.12-4.73-4.73v-6.02c0-2.6,2.13-4.73,4.73-4.73h0Z"/>
      <path class="cls-27" d="m172.69,90.83c-4.64,0-8.43,3.79-8.43,8.43v5.5c0,4.64,3.79,8.43,8.43,8.43h5.16c4.64,0,8.43-3.79,8.43-8.43v-5.5c0-4.64-3.79-8.43-8.43-8.43h-5.16Zm1.44,3.25h2.41c2.69,0,4.89,2.2,4.89,4.89v6.02c0,2.69-2.2,4.89-4.89,4.89h-2.41c-2.69,0-4.89-2.2-4.89-4.89v-6.02c0-2.69,2.2-4.89,4.89-4.89h0Z"/>
      <path class="cls-18" d="m172.69,90.83c-4.64,0-8.43,3.79-8.43,8.43v5.5c0,4.64,3.79,8.43,8.43,8.43h5.16c4.64,0,8.43-3.79,8.43-8.43v-5.5c0-4.64-3.79-8.43-8.43-8.43h-5.16Zm1.44,3.25h2.41c2.69,0,4.89,2.2,4.89,4.89v6.02c0,2.69-2.2,4.89-4.89,4.89h-2.41c-2.69,0-4.89-2.2-4.89-4.89v-6.02c0-2.69,2.2-4.89,4.89-4.89h0Z"/>
      <path class="cls-24" d="m172.69,90.99c-4.55,0-8.27,3.72-8.27,8.27v5.5c0,4.55,3.72,8.27,8.27,8.27h5.16c4.55,0,8.27-3.72,8.27-8.27v-5.5c0-4.55-3.72-8.27-8.27-8.27h-5.16Zm1.44,2.93h2.41c2.78,0,5.05,2.27,5.05,5.05v6.02c0,2.78-2.27,5.05-5.05,5.05h-2.41c-2.78,0-5.05-2.27-5.05-5.05v-6.02c0-2.78,2.27-5.05,5.05-5.05h0Z"/>
      <path class="cls-16" d="m172.69,90.99c-4.55,0-8.27,3.72-8.27,8.27v5.5c0,4.55,3.72,8.27,8.27,8.27h5.16c4.55,0,8.27-3.72,8.27-8.27v-5.5c0-4.55-3.72-8.27-8.27-8.27h-5.16Zm1.44,2.93h2.41c2.78,0,5.05,2.27,5.05,5.05v6.02c0,2.78-2.27,5.05-5.05,5.05h-2.41c-2.78,0-5.05-2.27-5.05-5.05v-6.02c0-2.78,2.27-5.05,5.05-5.05h0Z"/>
      <path class="cls-30" d="m172.69,91.15c-4.46,0-8.11,3.65-8.11,8.1v5.5c0,4.46,3.65,8.11,8.11,8.11h5.16c4.46,0,8.11-3.65,8.11-8.11v-5.5c0-4.46-3.65-8.1-8.11-8.1h-5.16Zm1.44,2.6h2.41c2.87,0,5.21,2.34,5.21,5.22v6.02c0,2.87-2.34,5.22-5.21,5.22h-2.41c-2.87,0-5.21-2.34-5.21-5.22v-6.02c0-2.87,2.34-5.22,5.21-5.22h0Z"/>
      <path class="cls-14" d="m172.69,91.15c-4.46,0-8.11,3.65-8.11,8.11v5.5c0,4.46,3.65,8.1,8.11,8.1h5.16c4.46,0,8.11-3.65,8.11-8.1v-5.5c0-4.46-3.65-8.11-8.11-8.11h-5.16Zm1.44,2.61h2.41c2.87,0,5.21,2.34,5.21,5.21v6.02c0,2.87-2.34,5.21-5.21,5.21h-2.41c-2.87,0-5.21-2.34-5.21-5.21v-6.02c0-2.87,2.34-5.21,5.21-5.21h0Z"/>
      <path class="cls-34" d="m172.69,91.31c-4.37,0-7.95,3.58-7.95,7.95v5.5c0,4.37,3.58,7.95,7.95,7.95h5.16c4.37,0,7.95-3.58,7.95-7.95v-5.5c0-4.37-3.58-7.95-7.95-7.95h-5.16Zm1.44,2.29h2.41c2.96,0,5.38,2.41,5.38,5.38v6.02c0,2.96-2.42,5.38-5.38,5.38h-2.41c-2.96,0-5.37-2.41-5.37-5.38v-6.02c0-2.96,2.42-5.38,5.37-5.38h0Z"/>
      <path class="cls-13" d="m172.69,91.31c-4.37,0-7.95,3.58-7.95,7.95v5.5c0,4.37,3.58,7.95,7.95,7.95h5.16c4.37,0,7.95-3.58,7.95-7.95v-5.5c0-4.37-3.58-7.95-7.95-7.95h-5.16Zm1.44,2.29h2.41c2.96,0,5.38,2.41,5.38,5.38v6.02c0,2.96-2.42,5.38-5.38,5.38h-2.41c-2.96,0-5.37-2.41-5.37-5.38v-6.02c0-2.96,2.42-5.38,5.37-5.38h0Z"/>
      <path class="cls-31" d="m172.69,91.48c-4.28,0-7.78,3.5-7.78,7.78v5.5c0,4.28,3.5,7.78,7.78,7.78h5.16c4.28,0,7.78-3.5,7.78-7.78v-5.5c0-4.28-3.5-7.78-7.78-7.78h-5.16Zm1.44,1.96h2.41c3.05,0,5.54,2.48,5.54,5.54v6.02c0,3.05-2.49,5.54-5.54,5.54h-2.41c-3.05,0-5.53-2.49-5.53-5.54v-6.02c0-3.05,2.49-5.54,5.53-5.54h0Z"/>
      <path class="cls-20" d="m172.69,91.48c-4.28,0-7.78,3.5-7.78,7.78v5.5c0,4.28,3.5,7.78,7.78,7.78h5.16c4.28,0,7.78-3.5,7.78-7.78v-5.5c0-4.28-3.5-7.78-7.78-7.78h-5.16Zm1.44,1.96h2.41c3.05,0,5.54,2.48,5.54,5.54v6.02c0,3.05-2.49,5.54-5.54,5.54h-2.41c-3.05,0-5.53-2.49-5.53-5.54v-6.02c0-3.05,2.49-5.54,5.53-5.54h0Z"/>
      <path class="cls-32" d="m172.69,91.64c-4.19,0-7.62,3.43-7.62,7.62v5.5c0,4.19,3.43,7.62,7.62,7.62h5.16c4.19,0,7.62-3.43,7.62-7.62v-5.5c0-4.19-3.43-7.62-7.62-7.62h-5.16Zm1.44,1.64h2.41c3.14,0,5.7,2.56,5.7,5.7v6.02c0,3.14-2.56,5.7-5.7,5.7h-2.41c-3.14,0-5.7-2.56-5.7-5.7v-6.02c0-3.14,2.56-5.7,5.7-5.7h0Z"/>
      <path class="cls-15" d="m172.69,91.64c-4.19,0-7.62,3.43-7.62,7.62v5.5c0,4.19,3.43,7.62,7.62,7.62h5.16c4.19,0,7.62-3.43,7.62-7.62v-5.5c0-4.19-3.43-7.62-7.62-7.62h-5.16Zm1.44,1.64h2.41c3.14,0,5.7,2.56,5.7,5.7v6.02c0,3.14-2.56,5.7-5.7,5.7h-2.41c-3.14,0-5.7-2.56-5.7-5.7v-6.02c0-3.14,2.56-5.7,5.7-5.7h0Z"/>
      <path class="cls-28" d="m172.69,91.8c-4.1,0-7.46,3.36-7.46,7.46v5.5c0,4.1,3.36,7.46,7.46,7.46h5.16c4.1,0,7.46-3.36,7.46-7.46v-5.5c0-4.1-3.36-7.46-7.46-7.46h-5.16Zm1.44,1.31h2.41c3.23,0,5.86,2.63,5.86,5.86v6.02c0,3.23-2.63,5.86-5.86,5.86h-2.41c-3.23,0-5.86-2.64-5.86-5.86v-6.02c0-3.23,2.63-5.86,5.86-5.86h0Z"/>
      <path class="cls-19" d="m172.69,91.8c-4.1,0-7.46,3.36-7.46,7.46v5.5c0,4.1,3.36,7.46,7.46,7.46h5.16c4.1,0,7.46-3.36,7.46-7.46v-5.5c0-4.1-3.36-7.46-7.46-7.46h-5.16Zm1.44,1.31h2.41c3.23,0,5.86,2.63,5.86,5.86v6.02c0,3.23-2.63,5.86-5.86,5.86h-2.41c-3.23,0-5.86-2.64-5.86-5.86v-6.02c0-3.23,2.63-5.86,5.86-5.86h0Z"/>
      <path class="cls-33" d="m211.47,91.48c0-.87.38-1.3,1.3-1.3h18.29c.69,0,1.57.28,1.57,1.01v1.88c0,1.02-.27,2.13-.81,2.89l-12.47,17.35c-.24.34-.75.52-1.22.52h-5.9c-.67,0-.76-.78-.36-1.29l12.53-16.27c.43-.55-.04-1.11-.93-1.11-3.47,0-6.94-.09-10.4,0-1.22.03-1.59-.25-1.59-1.14v-2.54Z"/>
      <path class="cls-1" d="m211.47,91.48c0-.87.38-1.3,1.3-1.3h18.29c.69,0,1.57.29,1.57,1.01v1.88c0,1.02-.27,2.13-.81,2.89l-12.47,17.35c-.24.34-.75.52-1.22.52h-5.9c-.67,0-.76-.78-.36-1.29l12.53-16.27c.43-.55-.04-1.11-.93-1.11-3.47,0-6.94-.09-10.4,0-1.22.04-1.59-.25-1.59-1.14v-2.54Z"/>
      <path class="cls-29" d="m211.63,91.48v2.54c0,.96.57,1,1.42.98,3.47-.09,6.94,0,10.41,0,.79,0,1.68.57,1.06,1.37l-12.53,16.26c-.26.34-.34,1.03.23,1.03h5.9c.38,0,.86-.14,1.09-.46l12.47-17.35c.55-.77.79-1.86.79-2.8v-1.87c0-.66-.9-.85-1.41-.85h-18.29c-.8,0-1.13.34-1.13,1.14h0Z"/>
      <path class="cls-2" d="m211.63,91.48v2.54c0,.96.57,1,1.42.98,3.47-.09,6.94,0,10.41,0,.79,0,1.68.57,1.06,1.37l-12.53,16.26c-.26.34-.34,1.04.23,1.04h5.9c.38,0,.86-.14,1.09-.46l12.47-17.35c.55-.76.79-1.86.79-2.8v-1.87c0-.66-.9-.85-1.41-.85h-18.29c-.8,0-1.13.34-1.13,1.14h0Z"/>
      <path class="cls-26" d="m211.79,91.48v2.54c0,.85.5.84,1.26.82,3.47-.09,6.94,0,10.41,0,.94,0,1.89.72,1.19,1.63l-12.53,16.27c-.17.21-.32.77.11.77h5.9c.32,0,.76-.12.95-.39l12.47-17.35c.53-.74.76-1.81.75-2.7v-1.87c0-.54-.84-.69-1.25-.69h-18.29c-.71,0-.97.27-.97.98h0Z"/>
      <path class="cls-11" d="m211.79,91.48v2.54c0,.85.5.84,1.26.82,3.47-.09,6.94,0,10.41,0,.94,0,1.89.72,1.19,1.63l-12.53,16.26c-.17.22-.32.77.11.77h5.9c.32,0,.76-.12.95-.39l12.47-17.35c.53-.74.76-1.8.75-2.7v-1.87c0-.54-.84-.69-1.25-.69h-18.29c-.71,0-.97.27-.97.98h0Z"/>
      <path class="cls-25" d="m211.96,91.48v2.54c0,.74.42.67,1.09.65,3.47-.09,6.94,0,10.41,0,1.09,0,2.1.88,1.32,1.89l-12.53,16.27c-.07.09-.26.51-.02.51h5.9c.27,0,.66-.1.82-.32l12.47-17.35c.51-.71.72-1.74.72-2.6v-1.87c0-.41-.78-.53-1.09-.53h-18.29c-.62,0-.81.2-.81.82h0Z"/>
      <path class="cls-5" d="m211.96,91.48v2.54c0,.74.42.67,1.09.65,3.47-.09,6.94,0,10.41,0,1.09,0,2.1.88,1.32,1.89l-12.53,16.27c-.07.09-.26.51-.02.51h5.9c.27,0,.66-.1.82-.33l12.47-17.35c.51-.71.72-1.74.72-2.61v-1.87c0-.41-.78-.53-1.09-.53h-18.29c-.62,0-.81.2-.81.82h0Z"/>
      <path class="cls-27" d="m212.28,113.19h5.85c.21,0,.56-.08.69-.26l12.47-17.35c.49-.68.7-1.68.69-2.51v-1.87c0-.28-.72-.37-.92-.37h-18.29c-.53,0-.65.13-.65.66v2.54c0,.61.35.5.93.49,3.47-.09,6.94,0,10.42,0,1.23,0,2.31,1.03,1.45,2.15l-12.53,16.26c-.04.05-.1.17-.1.25h0Z"/>
      <path class="cls-6" d="m212.28,113.19h5.85c.21,0,.56-.08.69-.26l12.47-17.35c.49-.68.7-1.68.69-2.51v-1.87c0-.28-.72-.37-.92-.37h-18.29c-.53,0-.65.13-.65.66v2.54c0,.61.35.5.93.49,3.47-.09,6.94,0,10.42,0,1.23,0,2.31,1.03,1.45,2.15l-12.53,16.26c-.04.05-.1.17-.1.25h0Z"/>
      <path class="cls-24" d="m212.51,113.03h5.62c.15,0,.47-.07.56-.19l12.47-17.35c.47-.65.66-1.62.66-2.42v-1.87c-.1-.15-.59-.21-.76-.21h-18.29c-.43,0-.49.06-.49.5v2.54c0,.06-.01.21.01.27.12.08.6.06.75.06,3.47-.09,6.94,0,10.42,0,1.3,0,2.54,1.15,1.57,2.41l-12.52,16.26Z"/>
      <path class="cls-7" d="m212.51,113.03h5.62c.15,0,.47-.07.56-.19l12.47-17.35c.47-.65.66-1.62.66-2.42v-1.87c-.1-.15-.59-.21-.76-.21h-18.29c-.43,0-.49.06-.49.5v2.54c0,.06-.01.21.01.27.12.08.6.06.75.05,3.47-.09,6.94,0,10.42,0,1.3,0,2.54,1.15,1.57,2.41l-12.52,16.26Z"/>
      <path class="cls-30" d="m212.44,94.16c.18.03.48.03.59.03,3.47-.09,6.95,0,10.43,0,1.43,0,2.75,1.31,1.7,2.68l-12.32,16h5.29c.11,0,.35-.04.43-.12l12.47-17.35c.45-.62.63-1.56.63-2.32l.04-1.76c-.11-.11-.49-.16-.64-.16h-18.29c-.07,0-.23,0-.3.03-.03.06-.03.23-.03.3v2.54s0,.09,0,.14h0Z"/>
      <path class="cls-9" d="m212.44,94.16c.18.03.48.03.59.03,3.47-.09,6.95,0,10.43,0,1.43,0,2.75,1.31,1.7,2.68l-12.32,16h5.29c.11,0,.35-.04.43-.12l12.47-17.35c.45-.62.63-1.56.63-2.32l.04-1.76c-.11-.11-.49-.16-.64-.16h-18.29c-.07,0-.23,0-.3.03-.03.06-.03.23-.03.3v2.54s0,.09,0,.14h0Z"/>
      <path class="cls-34" d="m212.6,94.02c.15.02.34.01.42,0,3.48-.09,6.96,0,10.43,0,1.57,0,2.97,1.46,1.83,2.93l-12.12,15.74h4.96c.09,0,.25-.03.3-.05l12.47-17.35c.43-.59.6-1.5.6-2.22v-1.69c-.14-.05-.34-.07-.44-.07h-18.29s-.1,0-.15.02c0,.05,0,.12,0,.16v2.54Z"/>
      <path class="cls-10" d="m212.6,94.02c.15.02.34.01.42,0,3.48-.09,6.96,0,10.43,0,1.57,0,2.97,1.46,1.83,2.93l-12.12,15.73h4.96c.09,0,.25-.03.3-.05l12.47-17.35c.43-.59.6-1.5.6-2.22v-1.69c-.14-.05-.34-.07-.44-.07h-18.29s-.1,0-.15.02c0,.05,0,.12,0,.16v2.54Z"/>
      <path class="cls-31" d="m212.76,93.87c.1,0,.2,0,.26,0,3.48-.09,6.96,0,10.44,0,1.7,0,3.18,1.61,1.96,3.2l-11.92,15.47h4.63c.06,0,.18-.02.16.01l12.47-17.35c.41-.56.57-1.45.57-2.13v-1.56c-.1-.02-.21-.03-.27-.03h-18.3s0,2.39,0,2.39Z"/>
      <path class="cls-4" d="m212.76,93.87c.1,0,.2,0,.26,0,3.48-.09,6.96,0,10.44,0,1.7,0,3.18,1.61,1.96,3.2l-11.92,15.47h4.63c.06,0,.18-.02.16.01l12.47-17.35c.41-.56.57-1.45.57-2.13v-1.56c-.1-.02-.21-.03-.27-.03h-18.3s0,2.39,0,2.39Z"/>
      <path class="cls-32" d="m212.93,93.71s.07,0,.09,0c3.48-.09,6.96,0,10.44,0,1.84,0,3.39,1.76,2.09,3.46l-11.72,15.21h4.3s.09,0,.06.05l12.45-17.32c.38-.54.54-1.39.54-2.04v-1.42s-.09,0-.11,0h-18.13s0,2.07,0,2.07Z"/>
      <path class="cls-8" d="m212.93,93.71s.07,0,.09,0c3.48-.09,6.96,0,10.44,0,1.84,0,3.39,1.76,2.09,3.46l-11.72,15.21h4.3s.09,0,.06.05l12.45-17.32c.38-.54.54-1.39.54-2.04v-1.42s-.09,0-.11,0h-18.13s0,2.07,0,2.07Z"/>
      <path class="cls-28" d="m213.09,93.54c3.46-.09,6.92,0,10.38,0,1.97,0,3.6,1.92,2.21,3.72l-11.52,14.95h3.97s0,0,.01,0l12.36-17.2c.36-.51.51-1.33.51-1.94v-1.27h-17.92s0,1.74,0,1.74Z"/>
      <path class="cls-3" d="m213.09,93.54c3.46-.09,6.92,0,10.38,0,1.97,0,3.6,1.91,2.21,3.71l-11.52,14.95h3.97s0,0,.01,0l12.36-17.2c.36-.51.51-1.33.51-1.94v-1.27h-17.92s0,1.74,0,1.74Z"/>
      <path class="cls-37" d="m179.96,271.89c-2.89-1.56-6.13-2.48-9.37-3.38-.93,1.13-1.96,2.5-2.77,3.73-.81,1.23-1.81,2.91-2.54,4.27.38,4.84,2.62,8.33,5.22,11.55,1.5.53,3.6,1.17,5.11,1.57,1.47.39,3.35.71,4.93.98,2.04-1.93,3.54-4.55,4.81-7.44-1.04-1.69-2.12-3.7-2.98-5.46-.86-1.75-1.75-3.94-2.41-5.82h0Z"/>
      <path class="cls-37" d="m180.43,271.73c.65,1.86,1.54,4.02,2.39,5.76.86,1.75,1.93,3.74,2.96,5.41,4.33.88,8.78,1.48,13.12,1.33,1.48-1.7,3.23-3.31,4.49-5.16,1.27-1.88,2.54-4.24,3.53-6.29-.94-4.32-3.2-7.33-5.54-10.25-2.09-.2-4.47-.37-6.57-.51-2.11-.14-4.53-.25-6.63-.33-3.29,2.72-5.87,5.91-7.75,10.05h0Z"/>
      <path class="cls-37" d="m188.3,261.2c2.09.08,4.46.19,6.53.32,2.09.14,4.48.31,6.61.51,2.26-2.16,4.52-4.33,5.63-8.15l-5.35-9.51s0,0,0-.01c-3.95-1.92-8.75-1.55-13.36-1.69l-6.37,8.74c2.13,3.21,4.19,6.59,6.33,9.8h0Z"/>
      <path class="cls-37" d="m171.07,255.01l10.44-3.77,6.45-8.84c-.91-1.8-2.02-2.5-3.08-3.44,3.49-.15,7.06-.16,10.89.25,2.7.76,5.05,1.8,7.18,3.02l2.55-1.35c-4.7-2.76-10.16-4.34-16-4.34-17.47,0-31.63,14.16-31.63,31.64s14.16,31.63,31.63,31.63c7.23,0,13.89-2.42,19.21-6.51-1.22.09-2.62.14-3.7.08-1.36-.08-2.95-.37-4.31-.73-3.08,2.09-6.88,3.27-10.8,4.3-3.81-.91-6.65-3.29-9.38-5.85-1.61-.28-3.52-.6-5.02-1-1.49-.39-3.57-1.02-5.08-1.56l-1.27.74c-3.91-5.08-8.42-10.02-8.02-16.03,1.12.98,2.22,1.97,3.89,2.75.72-1.32,1.65-2.87,2.41-4.03.83-1.26,1.89-2.67,2.84-3.83-.82-4.19-.38-8.45.5-12.75l-4.21-3.28c-.52.04-1.58.2-2.29.97.16-.78.49-1.31.93-1.78.36-.39,1.47-.69,1.79-1.12,0,.72-.07,1.23-.1,1.57l4.17,3.26Z"/>
      <path class="cls-37" d="m203.78,279.34c-1.24,1.84-2.97,3.45-4.46,5.13,1.15,2.79,1.66,5.52,1.63,7.73,1.3.34,2.8.6,4.08.68,1.28.08,3.05-.01,4.37-.14,3.56-2.89,6.49-6.54,8.52-10.7l-.56-2c-.72-2.65-1.56-5.48-3.07-7.4-2.71.07-5.17-.55-6.99.45-1,2.06-2.27,4.4-3.52,6.26h0Z"/>
      <path class="cls-37" d="m207.5,253.66c3.64,1.68,6.69,3.82,8.45,6.94.57,3.95.24,8.62-1.26,11.76,1.57,2,2.41,4.86,3.15,7.55l.41,1.47c1.85-4.02,2.88-8.5,2.88-13.21,0-11.43-6.06-21.44-15.14-27l-2.87,1.52c-.3.5-.67.97-.94,1.5l5.34,9.48Z"/>
      <path class="cls-36" d="m325.95,176.48c-.85,1.66.1,3.62-.4,5.3-.5,1.68-2.38,2.83-2.58,4.67-.08.79.04,2.36.9,3.1,1.07.91,1.99.86,2.84.5.86-.38,1.66-1.05,2.45-1.42h0l.16-.05c1.56-.55,4.53-.99,4.68-1.66.21-.7.12-1.12-.24-1.63-.23-.32-.54-.84-1.13-1.04-.28-.09-.69-.05-.97-.08-.48-.04-1.36-.7-1.46-1.25.41-.38,1.51-.38,1.91-.13.25.14.55.43.83.51.59.2,1.15-.04,1.52-.15.59-.19,1.23-.59,1.48-1.27.16-.53-2.25-2.43-3.37-3.65l-.06-.06h0c-.06-.07-.11-.16-.16-.25-.37-.77-.76-1.71-1.28-2.49-.51-.76-1.26-1.29-2.66-1.08-1.13.16-2.1,1.43-2.46,2.13h0Z"/>
      <path class="cls-36" d="m331.8,174.93c.64.73,1.57,1.29,2.18,1.94l.03.03c1.11,1.22,2.62,3.66,3.34,3.66.73-.01,1.11-.23,1.47-.73.23-.31.64-.77.64-1.4,0-.29-.17-.67-.23-.95-.11-.46.25-1.51.74-1.77.48.27.83,1.32.71,1.78-.06.28-.23.66-.23.95,0,.62.39,1.09.62,1.4.36.5.81.7,1.53.66,1.08-.05,2.89-3.91,2.9-3.91l.07-.1c.57-.69,1.45-1.31,2.05-2.07.58-.75.87-1.66.22-2.97-.52-1.05-2.08-1.59-2.89-1.71-1.9-.29-3.54,1.29-5.36,1.34-1.82.06-3.55-1.41-5.44-.99-.8.18-2.32.81-2.77,1.9-.56,1.35-.22,2.23.41,2.95h0Z"/>
      <path class="cls-36" d="m349.85,182.79c-.11.55-1,1.2-1.47,1.23-.29.03-.7-.02-.98.07-.6.19-.91.71-1.14,1.02-.37.5-.2,1.06.03,1.75.2.61,3.05,1.32,4.57,1.98h0c.92.33,1.67,1,2.56,1.39.87.38,1.84.38,2.91-.61.86-.79.95-2.44.84-3.25-.25-1.91-2.22-3.04-2.78-4.77-.56-1.73.36-3.81-.55-5.5-.4-.72-1.43-2-2.59-2.14-1.45-.16-2.21.41-2.71,1.22-.52.82-.8,1.86-1.26,2.63-.03.06-.07.11-.12.16-.91,1.27-2.9,3.32-2.73,3.82.23.68.56.98,1.15,1.18.37.12.93.37,1.52.18.28-.09.59-.37.84-.51.41-.25,1.51-.23,1.91.16h0Z"/>
      <path class="cls-36" d="m353.14,191.38c-.93-.27-2.02-.25-2.88-.47-.06-.02-.12-.04-.18-.06-1.54-.65-4.2-2.24-4.64-1.95-.58.44-.76.84-.77,1.46,0,.39-.06,1,.3,1.5.17.24.53.45.74.64.36.31.68,1.37.44,1.87-.55.07-1.45-.58-1.62-1.02-.11-.26-.2-.67-.37-.91-.36-.51-.96-.65-1.33-.77-.59-.2-1.36.14-1.96.55-.43.77-.32,2.89-.23,4.92.01.09.02.19,0,.29-.11.88-.53,1.88-.62,2.85-.09.95.15,1.87,1.4,2.62,1,.61,2.61.24,3.36-.09,1.77-.77,2.31-2.98,3.81-4,1.51-1.02,3.76-.71,5.13-2.06.58-.58,1.52-1.93,1.33-3.08-.24-1.44-1.01-2.01-1.92-2.27h0Z"/>
      <path class="cls-36" d="m338.74,197.11c.09-1.68.87-4.65.26-5.05-.59-.41-1.03-.47-1.62-.28-.37.12-.96.25-1.34.75-.17.23-.26.64-.38.9-.18.44-1.09,1.07-1.64,1-.23-.5.11-1.56.47-1.86.21-.19.57-.4.75-.63.37-.5.32-1.11.32-1.5,0-.62-.21-1.07-.79-1.52-.62-.41-3.22,1.17-4.83,1.76l-.11.04c-.82.27-1.9.09-2.81.3-.9.2-1.68.71-2,2.07-.26,1.1.57,2.45,1.1,3.03,1.24,1.38,3.44,1.2,4.84,2.27,1.39,1.06,1.78,3.21,3.44,4.05.71.36,2.23.81,3.25.28,1.25-.66,1.55-1.53,1.51-2.44-.03-.93-.3-1.92-.42-2.77-.02-.14-.01-.27.01-.4h0Z"/>
      <path class="cls-36" d="m336.66,187.25c.61,1.89,2.64,2.92,4.53,2.31,1.89-.61,2.92-2.64,2.31-4.53-.61-1.88-2.64-2.92-4.53-2.31-1.89.61-2.92,2.64-2.31,4.53h0Z"/>
      <path class="cls-36" d="m31.08,181.88c.16-.53-2.25-2.43-3.37-3.65l-.06-.06h0c-.06-.08-.11-.16-.16-.25-.37-.77-.76-1.71-1.29-2.49-.51-.76-1.26-1.29-2.66-1.08-1.13.16-2.1,1.43-2.46,2.13-.85,1.66.1,3.62-.4,5.3-.5,1.68-2.39,2.83-2.58,4.67-.08.79.04,2.36.89,3.1,1.07.91,1.99.86,2.84.5.86-.38,1.66-1.05,2.45-1.42h0l.16-.05c1.56-.55,4.53-.99,4.68-1.66.22-.7.13-1.12-.24-1.63-.23-.32-.54-.84-1.13-1.04-.28-.09-.69-.05-.97-.08-.47-.04-1.36-.7-1.46-1.25.41-.38,1.52-.38,1.91-.13.25.14.55.43.83.51.59.2,1.15-.04,1.52-.16.59-.18,1.24-.58,1.48-1.26h0Z"/>
      <path class="cls-36" d="m29.14,176.89c1.11,1.22,2.62,3.66,3.34,3.66.73-.01,1.11-.23,1.48-.73.23-.31.63-.77.64-1.4,0-.29-.16-.67-.22-.95-.11-.46.25-1.51.74-1.77.49.27.83,1.32.72,1.78-.06.28-.23.66-.24.95,0,.62.39,1.09.62,1.4.36.5.81.7,1.53.66,1.08-.05,2.88-3.91,2.9-3.91l.07-.1c.57-.69,1.45-1.31,2.05-2.07.59-.75.87-1.66.22-2.97-.52-1.05-2.08-1.59-2.89-1.71-1.91-.29-3.54,1.29-5.36,1.34-1.82.06-3.55-1.41-5.44-.99-.8.18-2.32.81-2.77,1.9-.57,1.35-.22,2.23.41,2.95.64.73,1.57,1.29,2.18,1.94l.03.03Z"/>
      <path class="cls-36" d="m34.1,182.72c-1.89.61-2.92,2.64-2.31,4.53.62,1.89,2.64,2.92,4.53,2.31,1.89-.61,2.92-2.64,2.3-4.53-.61-1.88-2.64-2.92-4.53-2.31h0Z"/>
      <path class="cls-36" d="m41.39,185.11c-.37.5-.2,1.06.03,1.75.2.61,3.05,1.32,4.57,1.98h0c.92.33,1.67,1,2.56,1.39.88.38,1.84.38,2.91-.61.87-.79.95-2.44.84-3.25-.25-1.91-2.22-3.04-2.79-4.77-.56-1.73.37-3.81-.55-5.5-.39-.72-1.43-2-2.59-2.14-1.45-.16-2.21.41-2.71,1.22-.52.82-.8,1.86-1.26,2.63-.04.06-.07.11-.12.16-.91,1.27-2.9,3.32-2.73,3.82.24.68.56.98,1.15,1.18.37.12.93.37,1.52.18.28-.09.59-.37.84-.51.41-.25,1.51-.23,1.91.16-.11.55-1,1.2-1.47,1.23-.29.03-.7-.02-.98.07-.59.19-.91.71-1.14,1.02h0Z"/>
      <path class="cls-36" d="m45.22,190.85c-1.55-.65-4.2-2.24-4.64-1.95-.58.44-.76.84-.77,1.46,0,.39-.06,1,.31,1.5.17.24.53.45.74.64.36.31.68,1.37.44,1.87-.55.07-1.45-.58-1.62-1.02-.11-.26-.2-.67-.37-.91-.36-.51-.96-.65-1.32-.77-.59-.2-1.36.14-1.96.55-.43.77-.32,2.89-.23,4.92.02.09.02.19,0,.29-.11.88-.53,1.88-.62,2.85-.09.95.15,1.87,1.4,2.62,1,.61,2.61.24,3.36-.09,1.77-.77,2.31-2.98,3.81-4,1.51-1.02,3.76-.71,5.13-2.06.58-.58,1.53-1.93,1.33-3.08-.25-1.44-1.01-2.01-1.93-2.27-.93-.27-2.01-.25-2.88-.47-.06-.02-.12-.04-.17-.06h0Z"/>
      <path class="cls-36" d="m33.88,197.11c.09-1.68.87-4.65.26-5.05-.59-.41-1.03-.47-1.62-.28-.37.12-.97.25-1.34.75-.17.23-.26.64-.38.9-.18.44-1.09,1.07-1.64,1-.24-.5.1-1.56.46-1.86.21-.19.58-.4.75-.63.37-.5.32-1.11.32-1.5,0-.62-.21-1.07-.79-1.52-.62-.41-3.22,1.17-4.83,1.76l-.11.04c-.82.27-1.9.09-2.81.3-.91.2-1.68.71-2,2.07-.26,1.1.57,2.45,1.1,3.03,1.24,1.38,3.44,1.2,4.83,2.27,1.39,1.06,1.78,3.21,3.44,4.05.71.36,2.24.81,3.24.28,1.25-.66,1.55-1.53,1.51-2.44-.03-.93-.3-1.92-.43-2.77-.02-.14-.01-.27.02-.4h0Z"/>
    </g>
  </g>
</svg>