<?xml version="1.0" encoding="UTF-8"?>
<svg id="Layer_2" data-name="Layer 2" xmlns="http://www.w3.org/2000/svg" xmlns:xlink="http://www.w3.org/1999/xlink" viewBox="0 0 391.92 426.72">
  <defs>
    <style>
      .cls-1 {
        clip-path: url(#clippath);
      }

      .cls-2 {
        fill: none;
      }

      .cls-2, .cls-3, .cls-4, .cls-5, .cls-6 {
        stroke-width: 0px;
      }

      .cls-7 {
        clip-path: url(#clippath-1);
      }

      .cls-3 {
        fill: #009746;
      }

      .cls-3, .cls-4, .cls-5, .cls-6 {
        fill-rule: evenodd;
      }

      .cls-4 {
        fill: #010101;
      }

      .cls-5 {
        fill: #fff;
      }

      .cls-6 {
        fill: #9d9d9d;
      }
    </style>
    <clipPath id="clippath">
      <rect class="cls-2" width="391.92" height="426.72"/>
    </clipPath>
    <clipPath id="clippath-1">
      <rect class="cls-2" width="391.92" height="426.72"/>
    </clipPath>
  </defs>
  <g id="Layer_1-2" data-name="Layer 1">
    <g>
      <g class="cls-1">
        <path class="cls-6" d="m70.6,95.4c-.84-1.1-2.86-2.01-4.09-2.54-2.19-.93-4.49-1.68-6.73-2.49-2.02-.73-4.09-1.49-6.01-2.46l-.24-.12.1-.25c2.91-7.41,6.78-11.41,13.53-15.18-.59-9.38.86-20.53,3.65-29.49,2.52-8.05,7.49-16.03,13.27-22.17,3.97-4.22,8.65-7.83,13.65-10.73,3.44-2,7.07-3.76,10.86-4.98,4.04-1.3,8.24-2,12.48-2.19,10.49-.46,20.54,1.69,30.43,5.02,4.76,1.6,9.62,3.93,13.9,6.59,5.95-4.98,11.15-8.78,18.55-11.45,4.52-1.64,9.34-2.5,14.16-2.39,12.76.3,23.79,6.69,32.82,15.33,11.54-6.88,27.51-10.67,40.88-10.57,11.24.08,19.77,3.31,29.01,9.71,7.73,5.35,13.98,11.86,18.55,20.11,7.17,12.94,8.42,27.73,7.75,42.25,6.18,3.1,10.75,9.27,12.95,15.71l.09.27-.27.09c-4.56,1.58-9.17,2.97-13.7,4.63-2,.74-3,1.6-3.64,3.66-2,6.51-4.34,12.77-7.26,18.92-.99,2.08-2.02,4.13-3.1,6.16-1.51,2.87-3.1,5.7-4.82,8.45l40.34,14.01v4.05c.04,11.99-1.14,23.83-3.26,35.62-2.19,12.21-5.34,24.22-8.8,36.13-1.25,4.28-2.52,8.55-3.79,12.82-3.65,12.3-7.66,24.5-11.78,36.65,8.43-4.9,18.13-6.92,28.35-6.04,2.54.22,5.29.75,7.73,1.47h2.38c8.92.09,17.84-.03,26.75-.13h.29l.92,62.55,4.52,1.19-.05.27c-1.01,5.3-1.97,10.66-3.76,15.77-5.42,15.47-17.2,24.87-33.93,24.52-10.36-.21-20.54-3.95-29.26-9.4-5.67-3.55-10.77-7.83-15.04-12.97l.43,12.72-.34-.04c-11.69-1.31-23.39-2.62-35.09-3.85-11.16,14.24-23.89,26.87-37.11,39.29-4.14,3.89-8.3,7.74-12.59,11.46-3.49,3.04-7.05,6.03-10.84,8.69-2.11,1.48-4.42,2.73-6.8,3.73-5.17,2.18-10.22,2.55-15.64,1.14-3.54-.92-7-2.63-9.92-4.82-9.34-7-18.06-14.84-26.59-22.79-12.49-11.64-24.56-23.97-35.45-37.17-12.79,1.52-25.55,3.29-38.28,5.23l-.34.05v-9.51c-3.53,3.79-7.52,7.1-11.98,9.76-9.1,5.42-19.12,8.08-29.71,8.01-11.35-.04-22.18-5.33-29.18-14.28-4.17-5.34-6.75-11.48-8.21-18.07-1.93-8.74-1.67-18.33-.04-27.1,1.96-10.51,6.54-20.04,13.82-27.9,9.67-10.44,23.46-15.01,37.51-14.11,2.64.17,5.28.58,7.85,1.22l16.02-.2c-2.02-4.84-4.06-9.68-6.04-14.54-4.24-10.42-8.3-20.92-11.87-31.59-2.4-7.17-4.59-14.42-6.4-21.76-1.69-6.87-3.22-13.79-4.33-20.77-1.66-10.43-2.67-21.26-2.07-31.82l.23-3.97,40.98-12.56c-1.95-2.84-3.71-5.83-5.25-8.91-4.97-9.94-8.48-21.13-11.15-31.91h0Z"/>
      </g>
      <path class="cls-5" d="m46.3,149l41.16-12.62c-1.91-2.74-3.77-5.83-5.46-9.2-4.59-9.17-8.29-20.37-11.14-31.91-2.05-2.82-11.18-4.73-16.97-7.62,3.37-8.57,8.1-12.09,13.56-15.12-.6-9.11.8-20.5,3.63-29.56,2.4-7.68,7.23-15.71,13.2-22.07,4.09-4.35,8.83-7.92,13.59-10.68,3.44-2,7.06-3.75,10.8-4.96,3.99-1.29,8.14-1.99,12.4-2.18,9.85-.43,19.59,1.39,30.33,5,4.96,1.67,10.06,4.18,14.02,6.67,6.18-5.18,11.18-8.85,18.63-11.54,4.46-1.61,9.23-2.48,14.05-2.37,11.98.28,23,5.99,32.79,15.4,11.54-6.95,27.64-10.74,40.92-10.65,10.46.08,18.95,2.8,28.85,9.66,8.45,5.86,14.31,12.52,18.46,20.01,6.27,11.32,8.54,24.74,7.71,42.29,6.96,3.41,11.15,10.27,12.98,15.63-4.27,1.48-9.04,2.91-13.7,4.64-2.16.8-3.18,1.76-3.82,3.84-3.1,10.11-6.23,17.27-10.34,25.03-1.59,3.02-3.23,5.92-5,8.74l40.49,14.06v3.84c.07,25.16-5.08,47.7-12.05,71.67-1.25,4.28-2.52,8.55-3.79,12.82-5.42,18.25-11.63,36.29-17.82,54.29l-.15.43-.22.4c-5.48,10.06-10.84,20.17-16.39,30.2-3.31,5.99-6.67,11.96-10.16,17.85-2.72,4.59-5.57,9.34-8.72,13.64-12.26,16.79-26.37,30.88-41.46,45.05-4.13,3.88-8.31,7.73-12.58,11.45-3.46,3.01-7.06,6.03-10.82,8.67-2.09,1.47-4.39,2.71-6.74,3.7-5.09,2.14-10.08,2.53-15.46,1.12-3.49-.91-6.94-2.61-9.82-4.77-9.27-6.95-18.1-14.88-26.57-22.77-14.23-13.26-28.13-27.66-40.12-42.98-11.01-14.08-17.96-32.6-24.52-49.11-2.79-7.04-5.61-14.09-8.77-20.97l-.05-.12-.05-.12c-3.41-8.43-7.01-16.79-10.45-25.22-4.24-10.41-8.29-20.91-11.87-31.57-2.4-7.16-4.59-14.41-6.4-21.75-1.69-6.86-3.21-13.77-4.32-20.75-1.65-10.33-2.66-21.3-2.07-31.76l.21-3.76Z"/>
      <path class="cls-4" d="m51.49,153.07l51.76-15.87,178.44-4.79,60.34,20.95c.08,31.18-7.84,56.72-15.63,82.93-4.91,16.52-10.76,33.74-17.75,54.07-7.98,14.65-25.93,48.83-34.88,61.09-12.96,17.75-27.16,31.49-40.8,44.29-8.74,8.21-16.81,15.43-22.8,19.64-1.82,1.28-3.85,2.35-5.73,3.14-3.73,1.57-7.49,2.05-11.99.87-2.87-.75-5.68-2.17-7.94-3.86-7.93-5.94-16.94-13.83-26.12-22.4-13.7-12.77-28-27.6-39.55-42.36-14.24-18.21-21.86-45.58-32.64-69-7.36-18.19-21.45-49.3-28.47-77.8-1.57-6.37-3.11-13.3-4.23-20.31-1.69-10.58-2.54-21.33-2.01-30.59h0Z"/>
      <path class="cls-6" d="m65.25,161.28c.75,24.56,4.94,39.23,10.54,55.25,36.91,6.11,80.19,9.25,120.09,9.25s85.4-2.9,122.5-9.3c7.38-18.18,10.54-35.38,9.96-55.13-16.35-4.52-31.29-7.79-50.03-11.34l-170.94,1.51c-11.63,1.92-25.86,5.2-42.12,9.75h0Zm71.75,189.3c.66.7,1.31,1.41,1.93,2.13,9.15,10.57,19.13,20.81,29.26,30.25,7.96,7.43,16.97,15.22,25.69,21.75,3.43,2.57,4.03,1.86,7.26-.4,7.34-5.15,15.25-12.57,21.8-18.71,11.54-10.83,22.55-21.63,32.46-33.77,1.08-1.32,2.32-2.6,3.56-3.89l-121.95,2.65Z"/>
      <path class="cls-5" d="m86.91,266.46h18.39v-7.13h-5.06v-10.97h7.15v-7.13h-7.15v-9.73h9.92v5.83h6.32v-12.96h-29.57v7.13h4.72v27.84h-4.72v7.13Z"/>
      <path class="cls-5" d="m148.02,259.75h-3.93l-6.98-24.43h4.47v-6.26h-21.77v6.26h4.47l-6.54,24.43h-4.18v6.26h14.84v-6.26h-4.47l1.82-6.31h8.65l1.57,6.31h-4.18v6.26h16.21v-6.26Zm-14.99-11.75h-5.8l3-11.16h.1l2.7,11.16Z"/>
      <path class="cls-5" d="m183.29,259.68h-4.29l-5.36-11.06c1.92-.97,3.35-2.2,4.29-3.71.94-1.5,1.41-3.31,1.41-5.4,0-1.41-.22-2.72-.65-3.95-.43-1.24-1.07-2.32-1.91-3.27-.84-.95-1.88-1.68-3.12-2.22-1.23-.54-2.65-.81-4.26-.82h-20.6v6.2h4.53v24.23h-4.53v6.21h17.29v-6.21h-4.14v-9.88h3.8l7.45,16.08h10.08v-6.21Zm-21.34-15.76v-8.47h4.38c.8.01,1.46.16,1.99.43.53.29.94.65,1.24,1.08.3.43.51.89.63,1.36.12.47.19.9.18,1.29.01.5-.07.99-.23,1.49-.16.5-.43.97-.81,1.39-.37.42-.88.77-1.52,1.03-.64.26-1.44.4-2.41.4h-3.46Z"/>
      <path class="cls-5" d="m185.52,265.32h5.57v-2.84h.1c.73,1.1,1.64,1.92,2.75,2.47,1.1.55,2.38.82,3.83.82.71,0,1.48-.08,2.33-.27.85-.18,1.69-.5,2.54-.95.84-.44,1.61-1.05,2.31-1.82.71-.76,1.28-1.73,1.7-2.89.42-1.16.64-2.54.65-4.15,0-1.49-.22-2.8-.65-3.91-.42-1.11-.99-2.09-1.71-2.9-.72-.82-1.53-1.54-2.43-2.14-.89-.6-1.82-1.13-2.78-1.59-.96-.46-1.89-.89-2.79-1.29-.89-.4-1.7-.81-2.42-1.21-.72-.42-1.29-.88-1.71-1.39-.43-.51-.65-1.1-.65-1.78,0-.54.14-1.01.42-1.42.27-.41.66-.73,1.15-.96.48-.23,1.04-.36,1.68-.36.85,0,1.6.21,2.25.61.66.4,1.2.97,1.63,1.71.43.74.72,1.63.86,2.67h5.51v-10.28h-5.51v2.79h-.1c-.68-1.05-1.53-1.84-2.55-2.36-1.02-.52-2.16-.78-3.45-.78-.82,0-1.64.11-2.48.32-.83.23-1.63.57-2.39,1.03-.76.46-1.44,1.06-2.04,1.78-.6.72-1.06,1.6-1.41,2.6-.35,1.02-.52,2.18-.53,3.5,0,1.32.21,2.48.63,3.48.4,1,.95,1.87,1.65,2.62.69.75,1.48,1.41,2.34,1.99.86.57,1.75,1.09,2.67,1.55.92.46,1.82.91,2.68,1.35.86.44,1.64.89,2.33,1.36.69.47,1.24,1,1.66,1.58.4.58.61,1.26.62,2.03,0,.69-.18,1.3-.5,1.85-.32.55-.76.98-1.31,1.3-.55.32-1.15.48-1.82.49-.96-.01-1.83-.27-2.59-.79-.76-.51-1.37-1.23-1.81-2.14-.44-.91-.65-1.99-.63-3.21h-5.57v11.53Z"/>
      <path class="cls-5" d="m210.25,265.05h29.57v-15.84h-6.48v10.23h-9.75v-21.88h4.82v-5.6h-18.17v5.6h4.73v21.88h-4.73v5.61Z"/>
      <path class="cls-5" d="m241.75,264.91c4.85-.05,9.7-.09,14.55-.14,4.85-.05,9.71-.1,14.56-.15,0-1.89.02-3.79.02-5.69.01-1.9.02-3.89.03-5.79-2.1.07-4.3.14-6.4.21,0,1.76-.01,3.5-.02,5.26-1.72.04-3.34.07-5.05.11-1.72.03-3.34.07-5.05.1,0-1.51,0-2.94,0-4.46,0-1.51,0-3.03,0-4.55,1.38-.04,2.68-.09,4.06-.15,1.39-.05,2.77-.1,4.16-.16,0-1.99.01-3.97.02-5.96-1.39.07-2.78.14-4.16.2-1.39.07-2.68.13-4.06.19,0-2.66.01-5.31.02-7.97,1.72-.1,3.35-.21,5.07-.31,1.72-.1,3.44-.21,5.17-.33,0,1.74-.01,3.47-.02,5.21,2.11-.12,4.21-.25,6.32-.38,0-1.89.02-3.78.03-5.66,0-1.89.02-3.79.03-5.68-4.88.4-9.76.79-14.64,1.12-4.88.34-9.76.64-14.63.92v5.77c1.3-.07,2.61-.13,3.91-.2,0,3.78,0,7.55,0,11.32,0,3.77,0,7.45,0,11.23-1.3.02-2.6.05-3.9.07v5.86h0Z"/>
      <g class="cls-7">
        <path class="cls-5" d="m280.53,264.38l18.04-.25v-6.53s-4.64.16-4.64.16l.34-10.25,8.41-15.86,4.05-.44-.02-6.7c-4.83.65-9.77,1.3-14.82,1.95l-.03,6.41,3.55-.41-4.88,9.43-4.68-8.3,3.31-.4.05-6.34c-5.5.58-11.09,1.23-16.82,1.78l-.09,6.19,4.14-.42,8.9,13.63-.09,10-4.64.15-.07,6.2Z"/>
        <path class="cls-5" d="m307.94,285.04c.7-.77,1.42-1.53,2.16-2.26,10.46-10.77,24.05-15.19,38.3-13.96,2.43.21,5.36.77,7.71,1.47l2.42-.02c9.09.1,17.68-.02,26.76-.12l.92,62.48,4.47,1.17c-1,5.26-1.96,10.65-3.75,15.73-5.17,14.75-16.45,24.69-33.66,24.33-10.3-.21-20.43-3.93-29.11-9.36-5.89-3.69-11.15-8.15-15.51-13.58l.45,13.25c-19.78-2.21-39.54-4.42-59.36-6.29-11.53-1.08-23.04-2.48-34.61-3.1-7.42-.4-14.86-.23-22.28-.14-13.76.16-27.53.74-41.25,1.88-23.71,1.96-47.39,4.97-70.89,8.55v-9.91c-3.65,4-7.77,7.48-12.42,10.25-9.08,5.41-19.03,8.04-29.55,7.97-11.25-.04-22-5.27-28.95-14.16-4.15-5.31-6.71-11.39-8.16-17.96-1.92-8.69-1.66-18.27-.04-26.98,1.95-10.46,6.5-19.94,13.75-27.76,9.61-10.37,23.29-14.92,37.28-14.01,2.6.17,5.26.58,7.83,1.22,81.71-1.04,163.43-2.05,245.14-2.96l2.34-.02v14.28Z"/>
      </g>
      <path class="cls-4" d="m305.62,291.83c1.71-2.69,3.82-5.12,6.12-7.41,9.67-9.66,22.92-14.36,36.46-13.19,3.44.3,6.84,1.14,9.86,2.37l-.03-1c8.38.09,16.37.29,24.74.2l1.07,61.64,4.02,1.06-1.45,6.95c-3.71,17.3-14.55,29.3-33.09,28.92-9.88-.21-19.61-3.7-27.93-8.91-6.31-3.95-11.9-9.33-16.36-15.29-1.02-1.36-1.96-2.75-2.84-4.19l.34,18.39c-18.5-2.21-37.57-3.99-56.57-5.78-11.64-1.09-23.25-2.49-34.7-3.11-7.44-.4-14.93-.23-22.44-.14-13.84.16-27.73.75-41.41,1.89-22.37,1.86-45.16,4.44-68.29,8.05v-13.69c-4.21,5.94-9.7,11.07-16.02,14.84-8.71,5.18-18.14,7.42-28.26,7.36-10.54-.04-20.43-4.65-26.94-12.98-3.94-5.04-6.54-10.8-7.91-17.03-1.85-8.36-1.59-17.67-.02-26.06,1.87-10.04,6.12-18.71,13.07-26.22,9.16-9.89,22.15-14.33,35.43-13.47,3.46.23,7.1.93,10.29,1.99l-.04-.79c80.72-1.02,161.82-2.22,242.89-3.12v18.73Z"/>
      <path class="cls-5" d="m154.97,348.71c19.28-.93,38.33-1.4,57.53-1.45l-.18-22.8c-4.2-.06-12.06-.21-16.25-.06l.15,9.88c-6.31.18-9.04.11-15.35.26l-.24-42.3c3.1-.02,6.22-.04,9.33-.06l-.07-12.88c-11.7.06-23.4.08-35.1.31l.03,12.88c3.04-.05,5.22-.11,8.27-.15l.07,43c-2.04.11-5.06.26-8.11.49l-.06,12.87Z"/>
      <path class="cls-3" d="m156.91,346.68c17.87-.83,35.75-1.28,53.64-1.35l-.15-18.96c-2.07-.03-4.14-.06-6.21-.08-2.04-.02-4.1-.04-6.16,0l.15,9.88-1.91.05c-5.12.14-10.24.13-15.36.26l-1.97.05-.26-46.2h1.93c2.46-.02,4.93-.04,7.4-.06l-.06-9.02c-10.41.05-20.83.08-31.24.26l.02,9.02c2.11-.04,4.21-.09,6.31-.12l1.96-.03.08,46.8-1.84.1c-2.1.11-4.2.22-6.29.36l-.05,9.03Z"/>
      <path class="cls-5" d="m249.46,291.94h-6.48l.35,44.09c2.75.18,5.5.41,8.26.57l1.82.11v13.06l-2.08-.16c-11.14-.84-22.29-1.68-33.45-2.03l-1.87-.06v-12.8l1.97.04c2.66.05,5.32.15,7.97.28l-.35-43.2h-6.21v9.42h-16.09l-.12-21.93,62.04-.72.46,23.25-16.12-.13-.1-9.79Z"/>
      <path class="cls-3" d="m263.32,280.56l-58.2.68.1,18.09h12.23v-9.42h10.06l.39,47.17c-3.84-.2-6.96-.32-9.96-.38v8.95c11.15.36,22.39,1.2,33.53,2.04v-9.15c-2.68-.16-6.73-.5-10.06-.68l-.39-47.85h10.35l.09,9.8,12.24.1-.39-19.34Z"/>
      <path class="cls-5" d="m275.75,338.72l-.71-46.68h-7.98l-.13-13.47,33.96-.22v13.88h-8.14l.54,48.35,8.05.96.27,14.15-2.25-.32c-10-1.41-20.01-2.67-30.04-3.86l-1.7-.2v-13.35l2.1.19c2.01.18,4.02.38,6.02.57h0Z"/>
      <path class="cls-3" d="m269.55,349.6c10.02,1.19,19.57,2.38,30.08,3.87l-.19-10.2-8.07-.96-.58-52h8.16v-10l-30.08.19.1,9.62h7.97l.77,50.74c-2.72-.26-5.25-.51-8.16-.77v9.52Z"/>
      <path class="cls-5" d="m96.3,341.62v-47.39l-8.33.39v-14.01l62.28-.93v21.65l-15.69.64v-8.84l-20.83.66v13.41c6.24-.36,12.48-.82,18.72-1.04l2-.07v13.79l-20.82,1.45v18.15c6.88-.65,13.76-1.3,20.64-1.96v-10.5l16.07-1.15v23.42l-1.76.16c-19.5,1.7-38.93,4.13-58.34,6.66l-2.18.29v-13.8l8.24-.97Z"/>
      <path class="cls-3" d="m90,354.19c19.81-2.58,39.32-5,58.42-6.67v-19.57l-12.21.88v10.46c-8.17.77-16.34,1.55-24.5,2.32v-22.08l20.82-1.45v-9.98c-6.39.23-13.55.77-20.72,1.16v-17.34l24.7-.77v8.82l11.82-.48v-17.84l-58.41.87v10.08l8.33-.39v51.14l-8.23.96v9.88Z"/>
      <path class="cls-5" d="m67.69,285l-.18-3.89,15.22-.39v28.2l-14.66,1-.47-1.42c-2.62-7.83-8.98-11.77-17.13-11.68-7.82.12-14.53,3.1-19.17,9.51-3.86,5.33-5.71,12.33-5.66,18.87.05,5.43,1.07,11.65,4.16,16.23,4.67,6.93,13.57,8,21.13,6.16,8.57-2.09,13.84-7.07,17.53-15.1l.45-.97,17.23-2.2-.74,2.78c-2.05,7.71-5.29,13.36-10.87,19.03-.64.65-1.3,1.29-1.97,1.93-9.12,8.69-21.19,12.96-33.7,12.89-9.05-.03-17.55-3.96-23.15-11.13-3.5-4.48-5.78-9.56-7-15.1-1.7-7.69-1.43-16.41.01-24.13,1.7-9.14,5.51-16.96,11.86-23.82,8.16-8.8,19.73-12.5,31.57-11.73,5.73.37,10.93,1.88,15.52,4.96h0Z"/>
      <path class="cls-3" d="m69.53,283l.29,6.14c-5.62-5.17-11.99-6.8-17.78-7.18-11.69-.75-22.51,3.01-30.03,11.13-6.33,6.83-9.8,14.4-11.38,22.86-1.39,7.44-1.66,15.95-.02,23.36,1.16,5.25,3.31,10.06,6.64,14.32,5.25,6.71,13.19,10.35,21.63,10.38,11.39.08,23.2-3.63,32.36-12.36,5.18-4.93,9.66-10.12,12.3-20.05l-13.32,1.7c-4.51,9.82-10.95,14.25-18.83,16.16-8.36,2.04-18.03.71-23.19-6.95-3.12-4.62-4.44-10.93-4.5-17.3-.12-13.24,7.27-30.03,26.73-30.33,9.43-.11,16.24,4.75,18.99,13l11.36-.77v-24.41l-11.27.29Z"/>
      <path class="cls-5" d="m378.03,295.38l.69,16.51-14.8-1.56-.37-1.23c-2.73-9.04-9.11-15.27-18.8-15.4-3.36-.04-6.71.44-9.81,1.8-9.17,4.01-13.61,12.85-13.4,22.6.33,15.59,10.97,28.37,26.73,30.04,8.32.88,13.23-3,16.42-10.45l.61-1.43,16.81,3.24-.41,1.93c-3.22,15.03-12.1,25.24-28.26,24.9-8.99-.18-17.89-3.44-25.46-8.18-5.81-3.63-10.96-8.41-15.05-13.89-5.81-7.76-9.26-16.89-9.46-26.63-.23-11.12,3.79-21.91,11.7-29.8,8.66-8.64,20.5-12.55,32.64-11.5,6.04.52,10.86,2.21,15.21,5.69l-.16-4.43,2.03.02c3.76.04,7.52.24,11.27.2l1.96-.02-.08,17.6Z"/>
      <path class="cls-3" d="m364.85,279.54l.25,7.1c-5.79-6.29-11.68-7.88-17.48-8.38-12.27-1.06-23.32,3.17-31.1,10.94-7.08,7.07-11.36,17.1-11.13,28.4.19,9.36,3.52,18.09,9.07,25.51,3.92,5.24,8.9,9.88,14.53,13.41,7.28,4.56,15.85,7.7,24.48,7.88,14.9.31,23.22-8.87,26.33-23.38l-13.34-2.57c-3.52,8.23-9.22,12.59-18.4,11.61-16.91-1.8-28.12-15.55-28.46-31.92-.26-12.41,6.27-20.79,14.56-24.42,3.37-1.47,6.95-2,10.61-1.96,8.66.12,17.07,4.97,20.63,16.77l11.3,1.19-.6-14.32.07-15.68c-3.78.04-7.55-.15-11.32-.2h0Z"/>
      <path class="cls-5" d="m326.82,77.57c6.96,3.41,11.15,10.27,12.98,15.63-4.27,1.48-9.04,2.91-13.7,4.64-2.16.8-3.18,1.76-3.82,3.84-3.1,10.11-6.23,17.27-10.34,25.03-2.34,4.42-4.4,8.27-6.81,11.91-.2.3-1.65.59-1.85.89-3.02,4.42-5.49,7.57-10.73,13.18-1.89,3.9-5.8,6.2-9.67,7.9-3.04,1.33-6.16,2.43-8.14,3.3-.88,2.9-2.15,5.31-3.66,7.93-.5.87-.77,2.02-1.38,2.84-.41.56-.86.91-1.32,1.43-.89,1-1.96,2.28-2.91,3.27-1.18,1.24-2.25,2.2-3.22,3.53-1.35,1.85-2.37,3.98-3.5,6-.93,1.67-3.21,3.95-4.29,5.49-1.36,1.93-1.74,3.14-3.49,4.81-.41.39-.84.48-1.27.84-.82.69-1.58,1.9-2.46,2.55-.89.66-2.21,1.37-3.42,2.23-1.12.8-2.19,1.73-2.99,2.29-.55.39-.96.55-1.18.58-1.75.27-5.98.26-7.96.26-1.27,0-2,.7-2.28.96-2.68,2.54-6.56,5.62-10.66,8.42-4.54,3.11-9.34,5.86-13.06,7.15-1.22.42-2.96.57-3.72-.46l-4.34-5.93-4.27,5.97c-.94,1.31-3.13,1.24-4.66.75-8.13-2.63-17.06-9.75-19.07-12.81-.68-.4-1.94-.87-2.81-1.57-.92-.75-1.46-1.82-2.33-2.16-1.46-.57-4.95-.16-7.72-.43-1.54-.15-2.71-.78-3.84-1.12-.77-.24-1.54-.24-2.09-.27-2.37-3.21-6.16-5.25-8.94-8.1-1.9-1.95-2.86-4.63-4.44-6.94-.84-1.22-2.13-2.56-3.1-3.92-.75-1.06-1.3-2.13-1.85-3.18-.51-.98-.17-1.71-1.11-2.88-1.34-1.66-2.12-1.55-3.11-2.76-1.46-1.8-2.84-3.87-4.1-5.69-1.51-2.17-3.15-3.63-3.97-6.05-.46-1.36-.23-2.96-.41-4.45,0-.02-.5-.26-.97-.46-.37-.16-.85-.26-1.38-.48-1.93-.81-4.69-2.61-7.5-4.25-1.34-.79-2.68-1.35-3.91-2.24-2.33-1.69-4.19-4.29-6.25-6.02-5.48-4.6-7.91-7.79-9.12-9.3-.61-.77-1.86-1.43-2.38-2.14-2.21-3.02-4.38-6.54-6.32-10.41-4.59-9.17-8.29-20.37-11.14-31.91-2.05-2.82-11.18-4.73-16.97-7.62,3.37-8.57,8.1-12.09,13.56-15.12-.6-9.11.8-20.5,3.63-29.56,2.4-7.68,7.23-15.71,13.2-22.07,4.09-4.35,8.83-7.92,13.59-10.68,3.44-2,7.06-3.75,10.8-4.96,3.99-1.29,8.14-1.99,12.4-2.18,9.85-.43,19.59,1.39,30.33,5,4.96,1.67,10.06,4.18,14.02,6.67,6.18-5.18,11.18-8.85,18.63-11.54,4.46-1.61,9.23-2.48,14.05-2.37,11.98.28,23,5.99,32.79,15.4,11.54-6.95,27.64-10.74,40.92-10.65,10.46.08,18.95,2.8,28.85,9.66,8.45,5.86,14.31,12.52,18.46,20.01,6.27,11.32,8.54,24.74,7.71,42.29h0Z"/>
      <path class="cls-4" d="m128.77,155.21c-3.16,1.02-6.42,1.21-9.83.18-7.5-2.25-15.24-9.07-21.75-18.1-7.13-9.89-15.71-24.72-20.24-44.88-.34-1.48-1.99-2.68-4.15-3.88-2.78-1.54-6.4-2.99-9.12-4.35,2.63-3.98,7.43-6.48,13.53-7.34,3.03-.42,6.55-.4,10.46-.04.81.07,1.74.26,2.58.07-2.97-3.73-7.51-3.99-14.84-4.78-.81-.09-1.14-.07-1.21-.92-.36-4.36.08-8.28.47-11.79,1.16-10.34,4.07-19.97,9.87-28.1,4.99-7,11.68-12.53,19.05-16.35,5.55-2.88,11.87-5.01,17.75-5.27,7-.31,14.14.74,21.33,2.62,9.1,2.38,18.06,6.23,24.11,11.56.36.32.72.17.79.09.09-.11.2-.15.13-.54-.36-1.14-.58-2.55-.67-3.79,3.81-4.51,13.32-10.75,21.73-13.27,3.23-.97,6.12-1.22,8.98-1.16,10.11.24,21.01,5.82,30.13,14.3.52.48.6,1,.3,1.54l-1.32,2.18c.43.23,1.29.72,1.89,1.05.6.32,1.03.57,1.57.14,1.89-1.4,4.33-3.21,7.09-4.67,2.82-1.48,6.43-2.66,10.12-3.84,10.16-3.25,23.8-4.81,32.41-3,5.5,1.16,11.44,3.94,16.93,7.57,8.56,5.66,16.27,14.08,20.5,26.96,2.68,8.15,3.55,17.19,3.12,29.17-2.42.14-7.38.4-9.21.76-2.39.46-4.64,1.63-6.89,3.2,1.16.22,2.24.24,3.43.16,1.88-.12,3.31-.22,5.03-.12,3.79.22,7.56,1.06,10.4,2.34,3.34,1.5,6.03,3.63,7.36,6.57-4.28,1.46-7.66,2.77-10.02,4.02-2.08,1.1-3.39,2.22-3.78,3.63-2.77,9.82-6.88,19.6-11.66,28.34-5.41,9.91-11.78,18.48-18.54,24.29-4.54,3.9-9.05,6.96-13.55,8.36-1.09.34-2.35.61-3.61.58-2.79-.06-5.57-.81-6.83-.44-.79.23-.09,1.48.18,1.74,1.07,1.04,1.96,2.07,2.79,3.03.87,1.02,1.67,1.95,2.48,2.27-1.93,3.93-4.31,7.32-6.49,9.73-1.49,1.64-2.8,2.56-4.21,4.5-3.04,4.17-4.3,7.18-6.7,10.5-2.12,2.94-4.72,5.45-7.2,7.3-5.22,3.9-7.1,4.86-16.52,5.68-2.66,3.92-6.3,6.83-9.83,9.14-4.04,2.65-8.82,5.71-13,7.29l-6.77-9.46-6.79,9.57c-5.07-2.2-9.89-5.21-13.85-7.97-1.58-1.1-3.23-2.21-4.5-3.3-2.13-1.83-3.48-3.75-4.47-5.48-3.64.24-7-.36-9.94-1.53-3.78-1.5-6.87-3.88-8.96-5.9-3.74-3.62-6.66-7.95-8.94-11.75-.75-1.25-1.68-3.5-2.68-4.48-3.3-3.22-5.87-6.15-7.91-9.08-2.2-3.16-3.57-6.19-3.89-8.78,1.13-1.15,2.36-1.79,4.18-2.55l-.81-3.49Zm123.75-98.43l3.53,12.01,8.01,1.46c1.14,6.89.88,14.04-.41,21.36l-3.2,1.05c.34.82.72,1.8.57,2.93-.2,1.45-.99,3.14-2.09,5.09l10.32-7.04-.54-1.14c6.75-5.54,10.68-11.76,10.68-18.32,0-2.59-.56-5.27-1.82-8.01-1.3-2.82-3.36-5.72-5.93-8.66l4.56,2.02-6.09-13.86c-7.09,1.86-12.09,5.51-15.19,10.95l-2.41.17Zm-110.74.02l-3.53,12.01-8.01,1.45c-1.14,6.89-.88,14.04.41,21.36l3.2,1.05c-.34.82-.73,1.8-.58,2.93.19,1.44.99,3.14,2.09,5.08l-10.32-7.04.54-1.15c-6.75-5.54-10.68-11.76-10.68-18.32,0-2.59.56-5.27,1.82-8.01,1.3-2.82,3.36-5.72,5.93-8.66l-4.56,2.01,6.09-13.86c7.09,1.86,12.09,5.51,15.19,10.95l2.41.17Z"/>
      <path class="cls-6" d="m179.33,23.96l17.3-10.55,18.24,10.65c-6.37,11.6-8.9,21.67-8.24,30.47.81,10.75,6.46,19.41,15.58,26.85-2.79,6.03-8.01,10.43-12.28,14.74-2.39,2.42-4.52,5.14-5.81,7.59-1.52,2.88-2.18,6.03-2.48,9.37-.3,3.36.07,6.97,1.32,10.89l-5.82,6.67-5.25-6.45c1.21-4.25,1.48-7.69,1.19-10.88-.46-5.04-2.39-8.77-4.85-12.18-5.04-6.99-12.7-12.34-16.47-20.37,10.05-6.99,15-15.11,15.96-24.68.95-9.58-1.99-20.43-8.39-32.11h0Z"/>
      <path class="cls-5" d="m197.33,17.23l-14.39,7.68c5.51,11.93,8.57,22.64,8.18,32.16-.39,9.23-3.52,17.18-9.89,24.26,1.29,5.04,7.58,7.43,10.66,10.86,1.2,1.34,2.15,3.51,2.01,5.39-.11,1.38-.76,2.9-1.93,4.58,1.93,6.91,2.98,14.31.93,21.68l4.44,2.23V17.23Z"/>
      <path class="cls-4" d="m213.92,82.9c.25,1.09,1.41,2.04,1.78,3.27.59,2-.86,3.11-3.07,4.71-3.02,2.2-7.51,4.33-9.96,8.19-.69-2.44-.38-4.46.94-6.23,1.84-2.49,5.28-3.94,7.7-6.09,1.18-1.05,2-2.41,2.61-3.85h0Z"/>
      <path class="cls-5" d="m180.36,82.64c-.25.99-1.89,2.33-2.26,3.56-.59,2,1.06,3.31,3.26,4.91,3.02,2.19,7.8,4.62,10.24,8.48.7-2.44.47-5.14-.84-6.91-1.84-2.49-5.38-3.94-7.8-6.09-1.18-1.04-2-2.5-2.61-3.95h0Z"/>
      <path class="cls-6" d="m164.94,82.52c-7.94.51-16.87-.96-26.8-5.18-.61,3.31-.17,7,.94,10.31,11.06,6.62,21.14,7.27,31.06,5.34l-5.2-10.48Z"/>
      <path class="cls-6" d="m229.43,82.59c7.93.51,16.87-.96,26.79-5.18.61,3.31.16,7-.94,10.31-11.06,6.62-21.14,7.26-31.05,5.34l5.2-10.48Z"/>
      <path class="cls-6" d="m145.93,94.84l-.82,9.39-2.92-1.91-.08-8.98,3.82,1.5Z"/>
      <path class="cls-6" d="m248.19,94.82l.82,9.39,2.92-1.91.08-8.99-3.82,1.5Z"/>
      <path class="cls-6" d="m173.79,27.03l2.68,6c-9.71,9.74-18.54,22.92-25.5,40.54l-4.49-1.16c1.86-8.75,5.07-16.28,8.94-23.04,4.98-8.69,11.18-15.88,18.38-22.33h0Z"/>
      <path class="cls-6" d="m220.56,27.04l-2.68,6c9.71,9.75,18.54,22.92,25.49,40.54l4.49-1.16c-1.86-8.75-5.07-16.28-8.93-23.04-4.98-8.7-11.18-15.88-18.38-22.33h0Z"/>
      <path class="cls-6" d="m149.46,97.7c-.16,7.95,1.09,14.3,4,19.79,3.06,5.75,7.95,10.03,14.56,13.34l1.07,27.91c-4.94-1.71-9.49-4.12-13.54-7.68-3.46-3.04-6.65-7.15-9.3-11.9-.74,1.28-1.43,2.16-2.23,2.73-.23.16-.82.24-1.39.19,1.15-1.73,2.28-3.51,3.22-5.38,1.02-2.01,1.96-4.13,2.85-6.4.14-.37.57-.95.66-.12.03.27-.05.66-.09.81-.27,1.01-.9,2.61-1.63,4.17,3.12,4.98,6.34,9.21,9.25,12.42,3.62,4,6.89,6.46,10.25,7.44l-1.57-23.93c-6.25-3.48-11.09-8.12-14.02-14.43-2.39-5.14-3.34-11.92-3.1-19.14l1,.18Z"/>
      <path class="cls-6" d="m173.09,131.83l.56,9.45c2.07-2.61,3.91-4.88,5.89-6.34,1.74-1.29,3.62-1.82,5.25-1.77l-1.26,4.94,9.26-6.03-3.36-6.69c-2.16-.2-4.33.04-6.53.72-3.22.98-6.49,2.98-9.8,5.73h0Z"/>
      <path class="cls-6" d="m133.73,150.76l5.55,11.64c1.12-3.06,2.47-5.83,4.01-7.77,1.64-2.07,3.32-3.23,5.59-4.14l-6.29-8.03c-3.05,3.06-5.71,5.54-8.85,8.31h0Z"/>
      <path class="cls-6" d="m244.92,97.68c.16,7.94-1.09,14.3-4,19.79-3.06,5.75-7.95,10.03-14.56,13.34l-1.07,27.91c4.93-1.71,9.49-4.12,13.54-7.68,3.46-3.04,6.65-7.15,9.3-11.9.74,1.28,1.43,2.16,2.23,2.72.23.17.82.25,1.39.2-1.15-1.73-2.28-3.51-3.22-5.38-1.02-2.02-1.96-4.13-2.85-6.41-.15-.37-.57-.95-.66-.12-.03.27.05.66.09.81.26,1.01.89,2.61,1.63,4.17-3.13,4.98-6.34,9.21-9.25,12.42-3.62,4-6.89,6.47-10.24,7.44l1.57-23.93c6.25-3.48,11.08-8.12,14.01-14.42,2.39-5.14,3.35-11.92,3.11-19.14l-1,.18Z"/>
      <path class="cls-6" d="m221.29,131.81l-.55,9.44c-2.08-2.61-3.92-4.88-5.89-6.34-1.74-1.28-3.62-1.82-5.26-1.77l1.26,4.94-9.26-6.03,3.37-6.69c2.15-.2,4.33.04,6.53.72,3.21.98,6.48,2.98,9.8,5.73h0Z"/>
      <path class="cls-6" d="m260.65,150.74l-5.54,11.64c-1.12-3.07-2.47-5.84-4.01-7.77-1.64-2.07-3.32-3.23-5.59-4.14l6.29-8.03c3.05,3.06,5.71,5.54,8.86,8.31h0Z"/>
      <path class="cls-6" d="m202.81,149.79c-3.77.02-7.54.11-11.31-.12,1.46,1.39,2.13,2.29,2.04,3.68-.31,4.85-.43,9.92-.82,14.93-.02.2-.14.69-1,.4-.88-.29-1.13-.14-1.38-1.04-.64-2.32-1.39-4.67-2.13-6.96-2.22,2.06-3.42,3.81-4.27,4.78-.63.72-1.79.89-2.78,0-.79-.71-2.05-2.33-4.13-4.04-.07,3.2.38,6.68.07,9.8-.27,2.78-1.41,2.78-3.41,2.3-2.95-.71-8.28-3.69-12.86-6.91-4.73-3.32-8.73-7.12-12.23-10.42-2.59,8.46-1.05,17.84,2.17,24.12,2.35,4.58,5.91,8.57,10.73,11.19.46-3.72.8-8.25,2.03-12.44.28-.96.68-2.38,1.74-2.75.92-.32,1.3.47,1.56,1.15,2.57,6.52,5.5,12.81,9.7,18.31,3.62,4.76,9.43,10.72,14.55,12.47.57-.49,1.71-1.82,2.42-2.62,1.14-1.3,2.79-2.68,4.06-2.67.66,0,1.37.51,2.14,1.32,1.27,1.34,2.76,3.47,4.23,4.28,3.88-1.32,7.27-4.36,10.09-7.29,6.34-6.59,10.09-12.47,13.67-23.29.23-.69.93-1.47,1.85-1.15,1.06.37,1.46,1.79,1.74,2.75,1.22,4.2,1.57,8.43,2.03,12.15,5.52-2.74,8.67-6.51,11.02-11.09,1.22-2.38,2.18-5.06,2.77-8.18.59-3.14.53-6.01.28-9.19-.19-2.41-.39-4.58-.78-7.23-3.5,3.3-7.89,7.29-12.62,10.61-4.58,3.21-9.63,6.29-12.57,7-2,.48-3.24.48-3.51-2.3-.3-3.11-.34-5.53-.41-8.74-.59.19-1.05.5-1.44.85-.99.9-1.45,1.62-2.01,2.12-.99.89-2.44.72-3.07,0-.85-.96-2.14-2.62-4.37-4.69-.74,2.29-1.39,4.45-2.03,6.76-.25.9-.41,1.13-1.29,1.42-.87.29-.88-.59-.91-.79-.39-3.09-1.04-11-.91-16.9l1.37-1.6Z"/>
      <path class="cls-5" d="m223.87,178.93c-1.55,2.66-3.19,5.41-4.77,7.33-1.73,2.12-3.38,3.3-4.75,3.45l-1.34-4.2c-1.16-.13-2.08,1.32-3.15,2.44-.68.71-1.39,1.02-2.18,1.34-1.59.65-4.15.68-5.46.69-1.05-3.76-2.39-6.52-3.9-9.43-.31-.59-1.81.15-2.31.96-1.35,2.22-2.04,5.76-3.27,8.21-.22.45-.32.67-.82.8-.87.22-2.29-.03-3.63-.51-2.1-.75-4.75-2.01-5.06-3.75-.09-.52-1.53-.55-1.76.12-.45,1.32-.23,2.47-.45,3.76-.75-.12-1.24-.34-1.89-.62-2.12-.91-5-5.45-7.83-9.05-.48,2.56.24,5.6,1.76,8.52,2.06,3.97,5.72,7.93,8.9,10.93,3.18,3,6.01,5.25,7.39,5.4,2.41-.1,5.36-4.84,8.09-4.95,2.27-.09,3.59,3.31,7.16,4.16,1.1.26,1.77.27,2.74-.29,2.47-1.42,6.66-5.33,9.19-8.35,3.56-4.27,7.78-10.7,7.34-16.99h0Z"/>
      <path class="cls-5" d="m157.6,173.6l-.16,10.81c-.02,1.66-1.51.07-1.94-.44-.57-.68-1.32-1.6-1.71-2.49-.34-.79-.51-1.55-1.05-2.11-.56-.58-1.16-.14-1.94-1.39-.14-2.58-.43-7.91.09-10.99.03-.19.13-.37.22-.54.09-.17.1-.33.15-.48.29-.82,1.43-.55,2.3.32.6.6,1.03,1.53,1.08,2.05.1,1.3.28,3.09.33,4.64,1.05-.02,2.05.24,2.62.62h0Z"/>
      <path class="cls-5" d="m236.39,173.16l.22,11.54c.02,1,.58,1.06,1.18.71.52-.3,1.07-.95,1.3-1.25.96-1.27,1.83-3.58,2.67-4.5.18.43.38,1.16.99-.27.54-1.28.82-2.96.94-4.34.23-2.48.25-5.64-.25-7.67-.35-1.39-1.5-2.73-2.77-1.47-.94.94-1.35,2.36-1.55,3.61-.19,1.16-.28,2.44-.31,3.6-.72-.01-1.52-.34-2.01-.41-.42-.07-.41.13-.4.46h0Z"/>
      <path class="cls-3" d="m75.58,81.4c7.47-.67,15.49,1.14,23.06,4.05,6.67,2.57,13.4,6.16,19.82,10.33,9.07,5.91,18.51,13.74,24.1,23.78-1.5,11.59-5.67,18.32-12.21,21.01l-3.16-9.43c4.73-4.02,7.84-9.37,9.31-16.06-3.04,4.83-6.77,8.69-11.29,11.15l-3.79-7.91c3.09-3.32,5.1-6.53,6.41-10.82-3.18,3.3-6.17,5.96-9.35,6.69l-4.94-7c1.72-2.49,2.88-5.25,2.82-8.33-2.57,2.28-4.87,3.92-6.55,4.42l-5.88-5.46,2.27-5.88-4.68,3.41c-7.9-6.18-16.85-10.55-25.93-13.96h0Z"/>
      <path class="cls-3" d="m317.19,86.2c-7.5-.62-15.56,1.04-23.16,3.72-6.71,2.36-13.46,5.66-19.91,9.5-9.11,5.43-18.6,12.62-24.21,21.85,1.51,10.65,5.7,16.83,12.27,19.31l3.18-8.66c-4.76-3.7-7.88-8.61-9.36-14.76,3.05,4.44,6.8,7.99,11.34,10.25l3.8-7.27c-3.1-3.05-5.12-6-6.44-9.94,3.2,3.04,6.2,5.48,9.4,6.15l4.96-6.44c-1.73-2.28-2.89-4.82-2.83-7.65,2.59,2.09,4.89,3.6,6.58,4.06l5.91-5.02-2.28-5.4,4.7,3.14c7.94-5.68,16.93-9.98,26.05-12.83h0Z"/>
      <path class="cls-3" d="m87.89,43.52c3.2-4,7.01-6.46,11.64-6.89,3.08-7.3,9.27-11.67,16.02-15.09-5.54,5.59-9.09,9.84-9.47,14.76l6.44.11c3.62-7.77,8.66-11.59,13.2-14.74-3.64,4.5-6.81,9.98-8.88,15.33l5.24,2.08c4.85-7.63,10.68-12.79,16.19-15.3-4.18,4.67-8.59,9.74-12.06,16.42l6.96,3.29c5.37-7.64,10.65-11.96,16.02-14.6-4.16,3.65-8.32,8.36-11.76,17.16l5.1,3.75,3.81-2.06c3.94-8.44,8.53-14.46,13.66-18.45-12.75-9.46-28.64-13.84-40.44-12.22-12.56,1.71-23.4,10-31.66,26.45h0Z"/>
      <path class="cls-3" d="m304.73,43.57c-3.2-4-7.02-6.46-11.64-6.89-3.08-7.3-9.27-11.67-16.02-15.09,5.54,5.59,9.08,9.84,9.47,14.75l-6.45.11c-3.62-7.77-8.66-11.59-13.2-14.74,3.64,4.49,6.81,9.97,8.88,15.32l-5.24,2.08c-4.85-7.63-10.68-12.79-16.19-15.3,4.19,4.68,8.59,9.74,12.06,16.43l-6.96,3.29c-5.38-7.63-10.65-11.96-16.02-14.6,4.16,3.65,8.32,8.35,11.77,17.16l-5.1,3.75-3.81-2.06c-3.94-8.44-8.53-14.45-13.66-18.45,12.75-9.45,28.64-13.83,40.44-12.22,12.55,1.72,23.4,10,31.66,26.45h0Z"/>
      <path class="cls-5" d="m121.83,16.82l-6.93,10.62c1.31-1.27,3.36-3.13,5.87-4.62,2.67-1.58,5.86-2.75,9.21-3.21l-4.85,10.63c5.73-5.95,10.7-8.01,16.64-7.75l-6.88,11.9c6.3-4.66,12.27-7,18-7.09-4.07,5.04-6.5,9.84-7.58,14.44l15.1-12.82c-4.85-3.74-10.01-6.16-15.04-7.99-7.71-2.8-14.53-4.46-23.55-4.13h0Z"/>
      <path class="cls-5" d="m270.79,16.86l6.93,10.62c-1.31-1.26-3.36-3.13-5.87-4.61-2.67-1.58-5.86-2.76-9.21-3.21l4.85,10.63c-5.73-5.95-10.7-8.01-16.64-7.75l6.88,11.91c-6.3-4.66-12.27-7-18-7.09,4.07,5.04,6.5,9.83,7.57,14.44l-15.1-12.81c4.85-3.74,10.01-6.16,15.04-7.99,7.71-2.8,14.53-4.46,23.55-4.13h0Z"/>
    </g>
  </g>
</svg>