<?xml version="1.0" encoding="UTF-8"?>
<svg id="Layer_2" data-name="Layer 2" xmlns="http://www.w3.org/2000/svg" viewBox="0 0 288.76 425.19">
  <defs>
    <style>
      .cls-1, .cls-2, .cls-3 {
        fill-rule: evenodd;
      }

      .cls-1, .cls-2, .cls-3, .cls-4 {
        stroke-width: 0px;
      }

      .cls-1, .cls-4 {
        fill: #1b1918;
      }

      .cls-2 {
        fill: #e00e1f;
      }

      .cls-3 {
        fill: #fff;
      }
    </style>
  </defs>
  <g id="Layer_1-2" data-name="Layer 1">
    <g>
      <path class="cls-2" d="m0,0h288.76v320.05c0,15.99-1.65,25.98-16.75,34.41l-127.64,70.73-126.77-70.97C.9,344.89,0,335.86,0,318.22V0Z"/>
      <path class="cls-3" d="m6.57,6.57h275.62v313.49c0,13.7-.67,21.58-13.37,28.67l-124.44,68.96-123.58-69.18c-14.21-7.95-14.23-14.78-14.23-30.28V6.57Z"/>
      <path class="cls-2" d="m78.69,230.44c.31-.8,1.02-.64,1.57.11.7.97,2.94,1.2,4.32-.88,1.67-2.53,1.74-6.01,1.65-10.62,0-.31-.62-.71-1.31-.48-2.66.88-3.37,3.31-3.79,2.75-2.32-3-.1-7.82,2.22-10.44-1.84-1.62-2.51-2.63-3.02-3.9-1.51-3.72.52-6.66,1.47-7.08.31-.14,1.38-.1,1.73.74,1.3,3.11,3.69,3.1,5.51,1.04,1.23-1.4,1.41-3.18,1.22-5.01-.28-2.63-1.3-5.64-1.57-8.3-.13-1.35-.3-3.87,1.61-3.85,1.21.01,2.8.48,3.11-.26,1.67-3.95,3.49-9.32,10.44-9.96.5-.05.62.38.65,1.13.07,1.91-.22,5.57.28,6.17.33.4.94.62,1.81.64,1.12.03,3.28-1.32,4.05-2.93.59-1.23.44-3.71.14-5.42-.23-1.27.55-1.61,1.16-1.84,1.16-.44,6.7.61,5.09,10.13-.16.92,1.94,1.71,3.69.72,1.16-.66,1.95-2.46,2.14-3.93.1-.79.48-.53.72-.38,2.48,1.46,6.47,6.2,2.88,15.23-.86,2.15,1.23,1.7,2.53,2.37,1.1.57.91,1.52.73,1.98-1.01,2.5-5.2,3.78-7.7,6.14-1.31,1.23-1.96,2.91-1.83,4.67.09,1.16,2.7,1.92,4.64.48.79-.58,1.6-1.7,1.8-2.71.24-1.2.77-.8,1.33-.29,1.34,1.21,2.19,5.52-1.55,8.45-1.98,1.55-4.65,3.75-10.62,1.96-1.57-.47-.23,1.52-1,2.28-.61.59-.73,1.25-.59,1.91.4,1.99,2.93,2.98,1.88,4.36-.63.82-1.6,1.6-2.82,1.98-1.38.43-3.07.36-4.93-.71-.71-.41-1.45-1.51-2.19-1.94-.29-.17-1.4-.74-1.57.85-.2,1.84-2.22,7.95-6.42,9.24-1.56.48.93-5.75-2.4-6.77-1.14,4.13-4.48,8.81-8.23,10.5-5.85,2.65-10.91-2.81-8.83-8.11h0Z"/>
      <path class="cls-2" d="m78.69,321.93c.31-.79,1.02-.64,1.57.11.7.97,2.94,1.2,4.32-.88,1.67-2.53,1.74-6.01,1.65-10.62,0-.31-.62-.71-1.31-.48-2.66.89-3.37,3.3-3.79,2.76-2.32-3-.1-7.83,2.22-10.44-1.84-1.62-2.51-2.64-3.02-3.9-1.51-3.72.52-6.67,1.47-7.09.31-.14,1.38-.1,1.73.74,1.3,3.11,3.69,3.1,5.51,1.04,1.23-1.39,1.41-3.17,1.22-5.01-.28-2.63-1.3-5.65-1.57-8.31-.13-1.35-.3-3.87,1.61-3.85,1.21.02,2.8.48,3.11-.26,1.67-3.95,3.49-9.31,10.44-9.96.5-.05.62.38.65,1.13.07,1.91-.22,5.56.28,6.17.33.4.94.62,1.81.64,1.12.03,3.28-1.32,4.05-2.93.59-1.23.44-3.71.14-5.42-.23-1.28.55-1.61,1.16-1.84,1.16-.45,6.7.61,5.09,10.13-.16.92,1.94,1.71,3.69.71,1.16-.66,1.95-2.46,2.14-3.93.1-.79.48-.53.72-.38,2.48,1.46,6.47,6.2,2.88,15.23-.86,2.16,1.23,1.7,2.53,2.38,1.1.57.91,1.52.73,1.98-1.01,2.5-5.2,3.78-7.7,6.14-1.31,1.24-1.96,2.91-1.83,4.68.09,1.16,2.7,1.92,4.64.48.79-.58,1.6-1.7,1.8-2.71.24-1.2.77-.8,1.33-.29,1.34,1.21,2.19,5.52-1.55,8.45-1.98,1.55-4.65,3.75-10.62,1.96-1.57-.47-.23,1.52-1,2.27-.61.59-.73,1.25-.59,1.92.4,1.99,2.93,2.98,1.88,4.35-.63.83-1.6,1.6-2.82,1.98-1.38.43-3.07.36-4.93-.71-.71-.41-1.45-1.51-2.19-1.94-.29-.17-1.4-.75-1.57.85-.2,1.83-2.22,7.95-6.42,9.23-1.56.48.93-5.76-2.4-6.77-1.14,4.14-4.48,8.81-8.23,10.51-5.85,2.65-10.91-2.8-8.83-8.11h0Z"/>
      <path class="cls-2" d="m77.5,211.34c.32.26.47.38.24.84-1.55,3.09-1.71,8.44-.1,11.52-1.73,2.9-2.1,4.81-2.43,7.04-.88,2.03-.52,4.85-.03,6.69.29,1.05-1.59,1.12-2.6.7-4.62-1.93-7.52-6.98-7.24-9.98.14-1.53,2.59-.93,4.02-1.74,1.34-.75,1.72-3,.69-4.05-1.74-1.78-3.9-1.57-5.66-2.14-.86-.27-1.63-.78-2.2-1.71-.38-.61-.17-1.09.6-1.16,1.05-.09,2.16-.88,2.53-1.97.69-2.07-.78-3.96-3.25-4.18-4.23-.36-11.24,1.41-12.92-3.26-.11-.3-.17-1.76,1.34-1.82.98-.04,2.05-.25,2.62-.63,1.75-1.16.87-2.33.48-2.51-5.63-2.65-5.82-4.95-5.46-8.06.09-.78-.25-1.2-.59-1.28-1.54-.35-3.03,1.71-5.19,2.03-3.11.45-2.47-2.37-4.3-1.67-1.21.47-1.51.81-2.24,2.08-.1.16-.34.17-.37.07-.61-1.72-.33-3.24-.14-3.53,1.62-2.47,6.53-3.78,9.47-3.9.9-.04,1.51-1.54.11-2.3-1.66-.9-3.86-1.85-4.9-2.6-.52-.38-.71-.73-.76-1.08-.11-.65.03-1.17.41-1.71.21-.31.44-.66.52-1.18.19-1.35-.74-1.71-2.06-2.88-.29-.26-.51-.61-.14-.7,1.03-.26,4.46-.36,5.04.14,1.55,1.31,2.96,3.71,4.26,5.56,1.04,1.48,1.95,2.62,3.09,2.58.63-.02,1.24-.93.85-2.39-.27-.99-1.62-1.6-1.43-3.05.13-1,1.03-1.7,1.65-2.23.79-.67.99-1.53.63-2.55-.21-.6-.55-.97-.8-1.43-.41-.76.11-1.15.74-.93,2.32.8,3.88,3.62,3.9,4.68.16,9.76-1,17.02,2.48,22.11,2.31,3.38,7.09,5.71,11.82,8.15,1.27.65,2.69,1.21,3.87,1.92,1.23.73,2.16,1.46,3.46,2.52h0Z"/>
      <path class="cls-2" d="m77.5,302.82c.32.26.47.38.24.84-1.55,3.08-1.71,8.45-.1,11.52-1.73,2.91-2.1,4.81-2.43,7.04-.88,2.03-.52,4.85-.03,6.69.29,1.05-1.59,1.12-2.6.7-4.62-1.93-7.52-6.98-7.24-9.98.14-1.53,2.59-.93,4.02-1.74,1.34-.76,1.72-3,.69-4.05-1.74-1.78-3.9-1.57-5.66-2.13-.86-.28-1.63-.79-2.2-1.71-.38-.61-.17-1.09.6-1.16,1.05-.09,2.16-.88,2.53-1.97.69-2.07-.78-3.96-3.25-4.18-4.23-.36-11.24,1.41-12.92-3.26-.11-.31-.17-1.77,1.34-1.82.98-.04,2.05-.25,2.62-.63,1.75-1.16.87-2.33.48-2.51-5.63-2.64-5.82-4.95-5.46-8.06.09-.79-.25-1.2-.59-1.28-1.54-.34-3.03,1.72-5.19,2.03-3.11.45-2.47-2.37-4.3-1.66-1.21.46-1.51.8-2.24,2.07-.1.17-.34.17-.37.07-.61-1.72-.33-3.24-.14-3.53,1.62-2.47,6.53-3.79,9.47-3.9.9-.04,1.51-1.54.11-2.3-1.66-.9-3.86-1.86-4.9-2.6-.52-.38-.71-.74-.76-1.08-.11-.66.03-1.18.41-1.71.21-.31.44-.65.52-1.18.19-1.35-.74-1.72-2.06-2.88-.29-.26-.51-.61-.14-.7,1.03-.26,4.46-.35,5.04.14,1.55,1.32,2.96,3.71,4.26,5.56,1.04,1.49,1.95,2.62,3.09,2.58.63-.02,1.24-.93.85-2.39-.27-1-1.62-1.6-1.43-3.06.13-1,1.03-1.7,1.65-2.23.79-.68.99-1.53.63-2.55-.21-.6-.55-.97-.8-1.43-.41-.76.11-1.15.74-.93,2.32.8,3.88,3.62,3.9,4.68.16,9.76-1,17.02,2.48,22.11,2.31,3.38,7.09,5.71,11.82,8.15,1.27.65,2.69,1.21,3.87,1.92,1.23.74,2.16,1.46,3.46,2.52h0Z"/>
      <path class="cls-2" d="m121.49,221c-.66.04-.59.56-.58.88.21,5.56-4.9,11.66-12.96,8.27-1.1-.46-.89-.48-1.34.62-2.24,5.54-4.66,7.55-12.79,7.6-4.28,4.97-8.87,6.1-14.99,5.84-2.75-.12-4.88-.5-6.8-1.3-13.18-5.44-9.42-22.89-16.94-25.09-2.91-.86-1.72,1.38-1.65,1.6.21.7.9,1.65,1.68,2.75-1.09.75-2.25,1.75-2.02,2.8.26,1.24.98,3.07,1.69,4.39.43.8-.82,1.34-1.82.68-3.21-2.11-4.85-4.65-6.73-5.56-2.45-1.19-3.98-.37-4.94.44-.26.22-.14.39.21.54,1.42.59,2.12,1.27,2.66,1.8.29.29.5.65.3,1.03-.48.91-1.18,2.35-.27,3.6.96,1.31,3.61,1.63,5.73,2.52.67.28.52,1.93-.57,2.71-.73.52-2.08.1-3.78.39-1.09.19-2.51.66-3.05,1.32-.52.63-.5,3.82.31,5.12.31.5.79.67,1.15-.12.45-1.01.51-1.96,1.56-2.28,1.32-.4,1.53,1.44,2.7,1.58,1.5.17,3.17-1.92,4.62-3.52.78-.86,2.02-.73,2.12.16.16,1.38-.74,3.88.46,5.11,1.66,1.72,2.23,1.31,5.5,2.15.53.14,1.28.14,1.89.52.47.3.47,1.68-.23,2.5-.66.77-1.45.88-3.36,1.11-1.2.15-1.22,1.38.02,1.95,1.83.84,5.24,1.05,9.17.38,4.06-.69,8.73-2.47,11.36-1.97,1.42.27,1.55,2.03,1.06,2.79-.54.84-1.38,1.3-3.01,2.12-.61.31-.61.74.01,1.22.75.57,2.54,1.15,4.27.7,3.1-.8,6.78-4.02,9.82-5.29,1.1-.46,2.6-.48,3.39-.3.48.11.39,1.67.43,3.3,0,.37.27.56.55.34,1.64-1.32,3.29-2.6,7.23-2.64.83-.01,2.06-3.32,2.41-4.67.13-.49.65-.27,1.19-.02.72.33,2.85,1.66,4.57,2.36,1.03.42,2.22.3,3.38.54.93.2,1.38.68,2.32.86.8.16,2.65.02,3.49-1.74.11-.23.18-.83-.62-1.1-1.11-.38-2.53-2.39-2.52-4.26,0-1.89,1.25-3.2,2.89-3.04,1.32.13.47,1.81,1.6,2.54,2.7,1.72,5.56,3.03,10.59,2.72,1.14-.07,3.11-.55,5.5-1.2,1.99-.53,4.65-.77,6.5-1.91,3.9-2.41,7.47-6.66,11.45-9.96,3.5-2.91,5.96-4.3,8.84-5.29.94-.32,2.31-.71,3.35-.75.17,0,.64.32.43,1.05-.75,2.62-2.21,8.57,7.28,13.88,1.14.64.81,2.11-1.36,1.67-3.96-.81-8.35-2.55-11.85-3.26-2.72-.55-5.12-.08-6.15.96-.9.91-1.29,2.71-1.93,3.45-.14.17.32.35.66.32.83-.09,1.39-1.09,2.3-.75,1.5.57.81,1.99,4.52,4.85-.84.67-3.33,2.82-3.58,3.59-.28.84-.19,2.53-.09,3.57.03.36.38.98.77,1.33.62-.74.92-1.29,1.46-1.51.58-.24,1.15-.36,1.76-.16.17.05.59.46.63,1,.57-.34,1.3-1.04,1.53-1.78.23-.74-.03-1.51.42-2.4.83-1.67,2.62-3.41,3.98-3.81,2.82-.84,5.69,1.3,7.54,3.34,2.46.28,7.08-.23,9.42-.75,2.09-.47,2.42-2.42,3.64-2.86.48-.17,1.13-.26,1.58.16.66.64,1.18,1.63,2.61,2.28.86.39,2.35.64,3.44.55,1.76-.12,1.56-3.36,1.64-5.35.03-.63.37-.75.94-.73,5.42.17,8.93-1.85,9.16-5.44.07-.99-5.5-.14-11.13-.71-2.65-.27-5.23-.89-7.39-2.09-5.43-3.02-5.88-9.06-4.18-10.85.48-.5,1.17-.68,1.5-.12,4.74,7.93,17.78,8.52,25.72,7.98,1.47-.1,2.56-.27,3.98-.11.26.03.18.24-.16,1.03-.34.79-.94,2.15-1.32,3.04-.37.85.11,1.04.4,1.11,1.51.39,3.77-.26,5.69-2.13,1.75-1.71,3.02-4.24,5.07-6.03,1.49-1.3,3.63-2.14,5.48-2.15,1.29,0,3.12,1.63,3.04,4.19-.03.87.09,3.02-2.81,4.54-2.44,1.27-6.52,1.91-9.24,3.32-2.72,1.42-4.07,3.63-3.31,7.02,2.94-1.76,4.53-1.09,6.11.08,1.69,1.26,4.21-1.92,5.36-2.49,1.14-.57,2.1.72,1.4,1.55-1.5,1.78-3.65,5.05-3.36,7.95.15,1.51,1.08,3.7,2.91,3.97.41.06.81-.07.74-.55-.07-.46-.29-2.23.11-2.5.5-.34,1.3-.17,2.26-.24,1.69-.12,2.53-1.39,2.56-2.95.03-1.66-.07-3.52.3-4.36.28-.62,1.58-.06,1.5.95-.35,4.26,2.4,8.09,5.85,9.21.72.24,1.5.36,2.39.2.7-.12.99-.93.29-1.51-.51-.42-1.91-.46-1.85-1.4.08-1.39,2.64-2.32,2.76-4.07.2-2.8-3.31-3.43-3.37-4.92-.06-1.49,2.88-3.66,3.09-5.3.39-2.95-2.88-6.1-2.54-7.99.03-.15.07-1.32,1.21-1.42,1.66-.14,4.34.6,4.82-.66.34-.88.17-2.86-.7-3.98-1.01-1.32-2.68-1.87-3.59-2.4-.48-.28-.66-.77-.62-.88,1.39-3.76,1.34-9.41.97-11.36-.26-1.38-1.33-1.15-1.84-.32-2,3.29-8.44,8.24-15.12,9.03-3.73.44-9.92.19-12.91.07-1.29-.05-.84-1.23-.4-1.45,1.14-.57,2.9-1.3,4.81-1.83,5.08-1.43,11.99-2.99,15.93-5.84,4.38-3.16,5.47-7.35,5.41-10.14-.04-1.67-.38-2.7-.61-3.19-1.67-3.54-4.64-3.76-4.81-5.41-.09-.85.37-1.5,1.24-2.25.7-.6,2.33-1,1.86-1.78-1.01-1.66-4.38-2.74-6.67-2.17-1.13.28-2.75,2-3.65,4.59-.31.89-.11,1.71-.46,2.35-.35.65-1.39,1.05-1.72,1.15-12.34,3.88-35.92,6.82-45.54,3.07-6.75-2.63-.75-7.78-3.67-7.34-5.35.82-5.59,7.72-6.21,7.68-2.4-.14-5-1.41-6.53-2.89-1.89-1.84-1.93-5.06-.04-6.98.91-.92,2.39-1.65,4.84-1.93,3.41-.38,8.33-.13,9.12.18,3.35,1.31,8.95,4.71,12.89,4.94,1.51.09,3.13-1.02,3.35-2.54.2-1.43-.65-2.77-2.57-3.98-.6-.37-.71-.82-.15-1.16,3.58-2.14,4.38-4.32,4.48-6.33.21-3.85-2.44-6.89-8.13-7.21-2.75-.16-14.61,2.64-16.52,1.37-1.14-.76-1.81-1.62-2.44-2.17-1.05-.93-1.81-1.31-3.1-1.01-.79.18-2.42,2.38-2.49,4.56-.06,1.8,1.29,3.58,3.69,4.33,3.69,1.14,12.98-1.04,17.57-.89,1.06.03,2.22.53,2.56,1.32.76,1.74-2.75,3.74-3.83,3.74-3.31-.02-6.85-.21-10.68-.28-3.37-.06-7.53-.3-10.98.19-9.38,1.34-8.59,12.16-2.81,17.3,3.43,3.05,8.35,4.59,12.85,6.02,5.52,1.76,19.25,1.65,32.88-.7,10.36-1.79,20.79-5.88,26.75-5.36,3.35.3,4.9,1.94,4.99,3.63.14,2.74-3.91,5.54-8.4,7.15-5.78,2.07-12.52,2.87-15.2,2.87-11.9.01-25.74-3.04-47.39-4.79-6.62-.53-13.05-.66-18.47-.62-7.2.05-14.26,1.33-17.26,2.01-.97.22-1.99,4.08-4.78,6.53-2.24,1.96-4.24,2.29-7.49,2.48h0Z"/>
      <path class="cls-2" d="m121.49,312.48c-.66.04-.59.56-.58.88.21,5.56-4.9,11.66-12.96,8.27-1.1-.46-.89-.48-1.34.62-2.24,5.54-4.66,7.55-12.79,7.61-4.28,4.97-8.87,6.09-14.99,5.84-2.75-.11-4.88-.5-6.8-1.29-13.18-5.45-9.42-22.89-16.94-25.09-2.91-.86-1.72,1.38-1.65,1.6.21.69.9,1.65,1.68,2.75-1.09.75-2.25,1.75-2.02,2.8.26,1.24.98,3.07,1.69,4.39.43.8-.82,1.34-1.82.69-3.21-2.12-4.85-4.66-6.73-5.57-2.45-1.19-3.98-.37-4.94.44-.26.22-.14.39.21.53,1.42.59,2.12,1.27,2.66,1.8.29.29.5.65.3,1.04-.48.91-1.18,2.34-.27,3.59.96,1.32,3.61,1.63,5.73,2.52.67.29.52,1.93-.57,2.71-.73.52-2.08.09-3.78.39-1.09.19-2.51.67-3.05,1.33-.52.63-.5,3.82.31,5.12.31.5.79.67,1.15-.12.45-1.01.51-1.96,1.56-2.29,1.32-.4,1.53,1.45,2.7,1.58,1.5.17,3.17-1.92,4.62-3.52.78-.85,2.02-.73,2.12.16.16,1.39-.74,3.88.46,5.11,1.66,1.71,2.23,1.31,5.5,2.15.53.14,1.28.14,1.89.52.47.3.47,1.68-.23,2.5-.66.77-1.45.88-3.36,1.11-1.2.15-1.22,1.38.02,1.95,1.83.84,5.24,1.05,9.17.38,4.06-.69,8.73-2.47,11.36-1.97,1.42.27,1.55,2.03,1.06,2.79-.54.84-1.38,1.3-3.01,2.12-.61.31-.61.74.01,1.22.75.57,2.54,1.15,4.27.7,3.1-.81,6.78-4.02,9.82-5.29,1.1-.46,2.6-.48,3.39-.3.48.11.39,1.66.43,3.3,0,.37.27.56.55.34,1.64-1.33,3.29-2.6,7.23-2.65.83,0,2.06-3.32,2.41-4.66.13-.49.65-.26,1.19-.02.72.33,2.85,1.66,4.57,2.36,1.03.41,2.22.29,3.38.54.93.2,1.38.68,2.32.86.8.16,2.65.02,3.49-1.74.11-.23.18-.83-.62-1.1-1.11-.38-2.53-2.39-2.52-4.26,0-1.9,1.25-3.2,2.89-3.04,1.32.12.47,1.81,1.6,2.54,2.7,1.72,5.56,3.02,10.59,2.72,1.14-.07,3.11-.56,5.5-1.21,1.99-.53,4.65-.77,6.5-1.91,3.9-2.41,7.47-6.65,11.45-9.97,3.5-2.9,5.96-4.3,8.84-5.28.94-.33,2.31-.72,3.35-.75.17,0,.64.33.43,1.06-.75,2.62-2.21,8.57,7.28,13.88,1.14.64.81,2.11-1.36,1.67-3.96-.81-8.35-2.54-11.85-3.26-2.72-.55-5.12-.07-6.15.97-.9.9-1.29,2.71-1.93,3.44-.14.16.32.35.66.32.83-.09,1.39-1.09,2.3-.75,1.5.57.81,1.98,4.52,4.84-.84.68-3.33,2.82-3.58,3.59-.28.84-.19,2.53-.09,3.57.03.36.38.97.77,1.33.62-.74.92-1.29,1.46-1.52.58-.24,1.15-.36,1.76-.16.17.06.59.47.63,1,.57-.33,1.3-1.04,1.53-1.78.23-.73-.03-1.51.42-2.4.83-1.67,2.62-3.41,3.98-3.82,2.82-.84,5.69,1.3,7.54,3.34,2.46.28,7.08-.23,9.42-.76,2.09-.47,2.42-2.42,3.64-2.86.48-.17,1.13-.27,1.58.17.66.64,1.18,1.63,2.61,2.28.86.39,2.35.63,3.44.55,1.76-.13,1.56-3.36,1.64-5.35.03-.64.37-.75.94-.73,5.42.17,8.93-1.86,9.16-5.45.07-.99-5.5-.15-11.13-.71-2.65-.26-5.23-.89-7.39-2.08-5.43-3.02-5.88-9.05-4.18-10.85.48-.5,1.17-.68,1.5-.12,4.74,7.94,17.78,8.52,25.72,7.98,1.47-.1,2.56-.26,3.98-.1.26.03.18.24-.16,1.03-.34.79-.94,2.15-1.32,3.03-.37.85.11,1.04.4,1.11,1.51.39,3.77-.25,5.69-2.13,1.75-1.71,3.02-4.24,5.07-6.03,1.49-1.3,3.63-2.14,5.48-2.15,1.29,0,3.12,1.62,3.04,4.19-.03.87.09,3.02-2.81,4.54-2.44,1.27-6.52,1.91-9.24,3.32-2.72,1.42-4.07,3.63-3.31,7.02,2.94-1.76,4.53-1.09,6.11.08,1.69,1.26,4.21-1.92,5.36-2.49,1.14-.57,2.1.72,1.4,1.55-1.5,1.78-3.65,5.05-3.36,7.95.15,1.52,1.08,3.71,2.91,3.97.41.06.81-.06.74-.55-.07-.46-.29-2.23.11-2.5.5-.34,1.3-.17,2.26-.24,1.69-.12,2.53-1.39,2.56-2.95.03-1.66-.07-3.53.3-4.36.28-.62,1.58-.06,1.5.95-.35,4.26,2.4,8.08,5.85,9.21.72.23,1.5.36,2.39.2.7-.12.99-.93.29-1.51-.51-.42-1.91-.46-1.85-1.4.08-1.39,2.64-2.32,2.76-4.07.2-2.8-3.31-3.43-3.37-4.92-.06-1.49,2.88-3.66,3.09-5.3.39-2.95-2.88-6.1-2.54-7.99.03-.14.07-1.32,1.21-1.42,1.66-.14,4.34.6,4.82-.67.34-.88.17-2.85-.7-3.98-1.01-1.32-2.68-1.88-3.59-2.4-.48-.28-.66-.77-.62-.88,1.39-3.76,1.34-9.41.97-11.36-.26-1.38-1.33-1.15-1.84-.32-2,3.29-8.44,8.24-15.12,9.03-3.73.44-9.92.19-12.91.07-1.29-.05-.84-1.23-.4-1.45,1.14-.57,2.9-1.29,4.81-1.83,5.08-1.42,11.99-2.99,15.93-5.84,4.38-3.16,5.47-7.36,5.41-10.14-.04-1.67-.38-2.7-.61-3.19-1.67-3.54-4.64-3.76-4.81-5.42-.09-.85.37-1.5,1.24-2.25.7-.6,2.33-.99,1.86-1.78-1.01-1.66-4.38-2.74-6.67-2.17-1.13.28-2.75,2-3.65,4.59-.31.89-.11,1.71-.46,2.35-.35.64-1.39,1.05-1.72,1.15-12.34,3.88-35.92,6.82-45.54,3.07-6.75-2.63-.75-7.79-3.67-7.34-5.35.82-5.59,7.71-6.21,7.68-2.4-.13-5-1.41-6.53-2.89-1.89-1.84-1.93-5.06-.04-6.98.91-.92,2.39-1.65,4.84-1.93,3.41-.38,8.33-.13,9.12.18,3.35,1.31,8.95,4.71,12.89,4.94,1.51.09,3.13-1.02,3.35-2.54.2-1.43-.65-2.77-2.57-3.97-.6-.37-.71-.83-.15-1.16,3.58-2.14,4.38-4.32,4.48-6.33.21-3.84-2.44-6.89-8.13-7.21-2.75-.16-14.61,2.64-16.52,1.37-1.14-.75-1.81-1.61-2.44-2.17-1.05-.93-1.81-1.3-3.1-1.01-.79.18-2.42,2.38-2.49,4.56-.06,1.8,1.29,3.58,3.69,4.32,3.69,1.14,12.98-1.04,17.57-.89,1.06.04,2.22.54,2.56,1.32.76,1.74-2.75,3.74-3.83,3.73-3.31-.02-6.85-.21-10.68-.28-3.37-.06-7.53-.3-10.98.19-9.38,1.34-8.59,12.16-2.81,17.3,3.43,3.05,8.35,4.59,12.85,6.02,5.52,1.75,19.25,1.65,32.88-.7,10.36-1.78,20.79-5.88,26.75-5.35,3.35.29,4.9,1.94,4.99,3.63.14,2.74-3.91,5.54-8.4,7.15-5.78,2.07-12.52,2.86-15.2,2.87-11.9,0-25.74-3.05-47.39-4.79-6.62-.54-13.05-.67-18.47-.63-7.2.05-14.26,1.33-17.26,2.02-.97.22-1.99,4.07-4.78,6.52-2.24,1.96-4.24,2.29-7.49,2.48h0Z"/>
      <path class="cls-3" d="m103.18,191.42c.11-.86-.28-2.98-1.53-3.11-1.61-.16-2.24.92-2.19,2.45.06,1.88,1.35,3.16,2.91,5.16-1.59,1.52-2.21,2.15-2.35,3.55-.12,1.32.11,2.35,1.63,4.15.35.42.28,1.16-.32,1.41-.37.15-.86.04-1.21-.39-.7-.86-1.37-2.57-2.3-3.17-.84-.54-1.79-.37-1.98.46-.34,1.44.15,3.79.11,5.63-.05,2.09-.73,4.74-.06,5.82.47.75,1.3,1.02,2.29.5,1.29-.67,1.05-3.23,2.3-3.98.45-.27,1.01-.17,1.38.41.31.5.38,1.13-.1,1.81-.73,1.02-2.58,1.51-2.65,3.54-.06,1.71,1.8,1.57,2.65,1.17,2.84-1.32,3.07-3.18,4.68-4.44.62-.49,1.19-.53,1.83-.78.64-.25,1.37-.73,2.11-1.87.38-.59.33-1.51-.41-1.94-1.15-.66-2.7-.41-4.49-.31-.04-.58-.12-1.69.72-1.73,2.66-.14,3.98-1.03,4.51-2.37.25-.61.39-3.06.98-3.04,1.81.07,4.54.51,5.88-.71.49-.44,1.26-2.05.47-2.94-.45-.51-1.25-.62-2.2-.64-.4,0-1.16.24-1.62.58-.48.37-.87.34-1,.03-.23-.54.17-1.71-.71-2.36-.69-.51-1.38-.36-1.91-.03-1.39.85-1.52,2.96-1.95,4.64-.23.88-.52,1.67-1.16,2.07-.41.25-.82.31-1.37.22-.98-.16-2.21-.96-2.1-2.11.12-1.21.93-2.01,1.73-3.09.62-.84,1.23-1.77,1.49-2.79.47-1.81-2.2-3-3.33-1.29-.26.39-.75-.09-.7-.5h0Z"/>
      <path class="cls-3" d="m103.18,282.91c.11-.86-.28-2.99-1.53-3.11-1.61-.15-2.24.92-2.19,2.44.06,1.88,1.35,3.16,2.91,5.16-1.59,1.52-2.21,2.14-2.35,3.55-.12,1.32.11,2.35,1.63,4.15.35.42.28,1.16-.32,1.41-.37.16-.86.04-1.21-.39-.7-.86-1.37-2.57-2.3-3.17-.84-.54-1.79-.37-1.98.46-.34,1.45.15,3.79.11,5.63-.05,2.09-.73,4.74-.06,5.82.47.75,1.3,1.02,2.29.5,1.29-.67,1.05-3.23,2.3-3.98.45-.27,1.01-.17,1.38.42.31.5.38,1.12-.1,1.81-.73,1.02-2.58,1.51-2.65,3.54-.06,1.71,1.8,1.57,2.65,1.17,2.84-1.32,3.07-3.18,4.68-4.44.62-.49,1.19-.53,1.83-.78.64-.25,1.37-.73,2.11-1.87.38-.59.33-1.52-.41-1.94-1.15-.66-2.7-.41-4.49-.3-.04-.58-.12-1.69.72-1.73,2.66-.14,3.98-1.04,4.51-2.37.25-.61.39-3.06.98-3.04,1.81.07,4.54.51,5.88-.71.49-.45,1.26-2.05.47-2.94-.45-.51-1.25-.62-2.2-.64-.4,0-1.16.23-1.62.58-.48.37-.87.33-1,.02-.23-.54.17-1.71-.71-2.36-.69-.51-1.38-.36-1.91-.03-1.39.85-1.52,2.96-1.95,4.64-.23.88-.52,1.67-1.16,2.07-.41.25-.82.31-1.37.22-.98-.16-2.21-.96-2.1-2.11.12-1.21.93-2.01,1.73-3.09.62-.84,1.23-1.77,1.49-2.79.47-1.81-2.2-3-3.33-1.29-.26.39-.75-.09-.7-.5h0Z"/>
      <path class="cls-2" d="m78.69,138.08c.31-.79,1.02-.64,1.57.11.7.97,2.94,1.2,4.32-.88,1.67-2.53,1.74-6.01,1.65-10.62,0-.31-.62-.71-1.31-.48-2.66.88-3.37,3.3-3.79,2.76-2.32-3-.1-7.82,2.22-10.44-1.84-1.62-2.51-2.64-3.02-3.9-1.51-3.72.52-6.67,1.47-7.09.31-.14,1.38-.1,1.73.74,1.3,3.11,3.69,3.1,5.51,1.04,1.23-1.4,1.41-3.18,1.22-5.01-.28-2.63-1.3-5.64-1.57-8.31-.13-1.35-.3-3.87,1.61-3.85,1.21.02,2.8.48,3.11-.26,1.67-3.95,3.49-9.31,10.44-9.96.5-.05.62.38.65,1.13.07,1.91-.22,5.56.28,6.17.33.4.94.62,1.81.64,1.12.03,3.28-1.32,4.05-2.93.59-1.23.44-3.71.14-5.42-.23-1.28.55-1.61,1.16-1.84,1.16-.44,6.7.62,5.09,10.14-.16.92,1.94,1.71,3.69.72,1.16-.66,1.95-2.47,2.14-3.93.1-.79.48-.52.72-.38,2.48,1.46,6.47,6.2,2.88,15.23-.86,2.15,1.23,1.7,2.53,2.37,1.1.57.91,1.52.73,1.98-1.01,2.5-5.2,3.78-7.7,6.14-1.31,1.23-1.96,2.91-1.83,4.67.09,1.16,2.7,1.92,4.64.48.79-.58,1.6-1.7,1.8-2.71.24-1.2.77-.8,1.33-.29,1.34,1.21,2.19,5.52-1.55,8.45-1.98,1.56-4.65,3.75-10.62,1.97-1.57-.47-.23,1.52-1,2.27-.61.59-.73,1.25-.59,1.91.4,1.99,2.93,2.98,1.88,4.36-.63.83-1.6,1.6-2.82,1.99-1.38.43-3.07.36-4.93-.71-.71-.41-1.45-1.51-2.19-1.94-.29-.17-1.4-.75-1.57.85-.2,1.83-2.22,7.95-6.42,9.23-1.56.48.93-5.76-2.4-6.77-1.14,4.14-4.48,8.81-8.23,10.51-5.85,2.65-10.91-2.8-8.83-8.11h0Z"/>
      <path class="cls-2" d="m77.5,118.98c.32.26.47.38.24.83-1.55,3.09-1.71,8.45-.1,11.52-1.73,2.91-2.1,4.81-2.43,7.04-.88,2.03-.52,4.84-.03,6.69.29,1.05-1.59,1.12-2.6.7-4.62-1.93-7.52-6.98-7.24-9.98.14-1.53,2.59-.93,4.02-1.74,1.34-.76,1.72-3,.69-4.05-1.74-1.78-3.9-1.57-5.66-2.13-.86-.28-1.63-.79-2.2-1.72-.38-.61-.17-1.09.6-1.16,1.05-.09,2.16-.87,2.53-1.97.69-2.07-.78-3.96-3.25-4.18-4.23-.36-11.24,1.41-12.92-3.26-.11-.3-.17-1.77,1.34-1.82.98-.04,2.05-.25,2.62-.63,1.75-1.16.87-2.33.48-2.51-5.63-2.64-5.82-4.95-5.46-8.06.09-.79-.25-1.2-.59-1.28-1.54-.34-3.03,1.71-5.19,2.03-3.11.45-2.47-2.37-4.3-1.66-1.21.46-1.51.8-2.24,2.07-.1.17-.34.17-.37.07-.61-1.72-.33-3.24-.14-3.53,1.62-2.47,6.53-3.78,9.47-3.9.9-.04,1.51-1.54.11-2.3-1.66-.9-3.86-1.85-4.9-2.6-.52-.38-.71-.74-.76-1.08-.11-.66.03-1.18.41-1.72.21-.3.44-.65.52-1.18.19-1.35-.74-1.71-2.06-2.87-.29-.26-.51-.61-.14-.7,1.03-.26,4.46-.35,5.04.14,1.55,1.32,2.96,3.71,4.26,5.56,1.04,1.48,1.95,2.62,3.09,2.58.63-.02,1.24-.93.85-2.39-.27-1-1.62-1.6-1.43-3.06.13-1,1.03-1.7,1.65-2.23.79-.68.99-1.53.63-2.56-.21-.6-.55-.97-.8-1.43-.41-.76.11-1.15.74-.93,2.32.8,3.88,3.62,3.9,4.68.16,9.76-1,17.02,2.48,22.11,2.31,3.38,7.09,5.71,11.82,8.15,1.27.65,2.69,1.21,3.87,1.92,1.23.74,2.16,1.46,3.46,2.52h0Z"/>
      <path class="cls-2" d="m121.49,128.64c-.66.04-.59.56-.58.88.21,5.56-4.9,11.66-12.96,8.27-1.1-.46-.89-.48-1.34.62-2.24,5.54-4.66,7.55-12.79,7.61-4.28,4.97-8.87,6.1-14.99,5.84-2.75-.11-4.88-.5-6.8-1.29-13.18-5.45-9.42-22.89-16.94-25.1-2.91-.85-1.72,1.38-1.65,1.6.21.7.9,1.65,1.68,2.76-1.09.75-2.25,1.75-2.02,2.8.26,1.24.98,3.07,1.69,4.39.43.8-.82,1.34-1.82.68-3.21-2.11-4.85-4.65-6.73-5.56-2.45-1.19-3.98-.37-4.94.44-.26.22-.14.39.21.53,1.42.59,2.12,1.27,2.66,1.8.29.29.5.65.3,1.04-.48.91-1.18,2.34-.27,3.59.96,1.32,3.61,1.63,5.73,2.52.67.29.52,1.93-.57,2.71-.73.52-2.08.09-3.78.39-1.09.19-2.51.66-3.05,1.33-.52.63-.5,3.82.31,5.12.31.5.79.67,1.15-.12.45-1.01.51-1.96,1.56-2.28,1.32-.4,1.53,1.45,2.7,1.58,1.5.17,3.17-1.92,4.62-3.52.78-.85,2.02-.73,2.12.16.16,1.39-.74,3.88.46,5.11,1.66,1.71,2.23,1.31,5.5,2.15.53.14,1.28.14,1.89.52.47.3.47,1.68-.23,2.5-.66.77-1.45.88-3.36,1.11-1.2.14-1.22,1.38.02,1.95,1.83.84,5.24,1.05,9.17.38,4.06-.69,8.73-2.47,11.36-1.97,1.42.27,1.55,2.03,1.06,2.79-.54.84-1.38,1.3-3.01,2.12-.61.31-.61.74.01,1.22.75.57,2.54,1.15,4.27.7,3.1-.81,6.78-4.02,9.82-5.29,1.1-.46,2.6-.48,3.39-.3.48.11.39,1.67.43,3.31,0,.37.27.56.55.34,1.64-1.32,3.29-2.6,7.23-2.65.83-.01,2.06-3.32,2.41-4.67.13-.49.65-.26,1.19-.02.72.33,2.85,1.66,4.57,2.36,1.03.41,2.22.29,3.38.54.93.2,1.38.68,2.32.86.8.16,2.65.02,3.49-1.74.11-.23.18-.83-.62-1.1-1.11-.38-2.53-2.4-2.52-4.26,0-1.89,1.25-3.2,2.89-3.05,1.32.13.47,1.82,1.6,2.54,2.7,1.72,5.56,3.02,10.59,2.72,1.14-.07,3.11-.56,5.5-1.21,1.99-.53,4.65-.77,6.5-1.91,3.9-2.41,7.47-6.65,11.45-9.97,3.5-2.91,5.96-4.3,8.84-5.28.94-.32,2.31-.72,3.35-.75.17,0,.64.32.43,1.06-.75,2.62-2.21,8.57,7.28,13.88,1.14.64.81,2.11-1.36,1.67-3.96-.81-8.35-2.55-11.85-3.26-2.72-.55-5.12-.08-6.15.96-.9.91-1.29,2.72-1.93,3.45-.14.17.32.35.66.32.83-.09,1.39-1.09,2.3-.75,1.5.56.81,1.98,4.52,4.84-.84.68-3.33,2.82-3.58,3.59-.28.84-.19,2.53-.09,3.57.03.36.38.98.77,1.34.62-.74.92-1.29,1.46-1.52.58-.24,1.15-.35,1.76-.16.17.05.59.47.63,1,.57-.34,1.3-1.04,1.53-1.78.23-.74-.03-1.51.42-2.4.83-1.67,2.62-3.41,3.98-3.82,2.82-.84,5.69,1.3,7.54,3.34,2.46.27,7.08-.23,9.42-.76,2.09-.47,2.42-2.42,3.64-2.86.48-.17,1.13-.27,1.58.17.66.64,1.18,1.63,2.61,2.28.86.39,2.35.63,3.44.55,1.76-.13,1.56-3.36,1.64-5.35.03-.64.37-.75.94-.73,5.42.17,8.93-1.86,9.16-5.45.07-.98-5.5-.14-11.13-.71-2.65-.27-5.23-.89-7.39-2.09-5.43-3.02-5.88-9.05-4.18-10.85.48-.5,1.17-.68,1.5-.12,4.74,7.93,17.78,8.52,25.72,7.98,1.47-.1,2.56-.26,3.98-.1.26.03.18.24-.16,1.03-.34.79-.94,2.15-1.32,3.04-.37.85.11,1.04.4,1.11,1.51.39,3.77-.25,5.69-2.13,1.75-1.71,3.02-4.24,5.07-6.03,1.49-1.3,3.63-2.14,5.48-2.15,1.29,0,3.12,1.63,3.04,4.19-.03.87.09,3.02-2.81,4.53-2.44,1.27-6.52,1.91-9.24,3.33-2.72,1.42-4.07,3.63-3.31,7.02,2.94-1.77,4.53-1.1,6.11.08,1.69,1.26,4.21-1.92,5.36-2.49,1.14-.57,2.1.72,1.4,1.55-1.5,1.78-3.65,5.05-3.36,7.95.15,1.52,1.08,3.7,2.91,3.97.41.06.81-.06.74-.55-.07-.46-.29-2.23.11-2.5.5-.34,1.3-.17,2.26-.24,1.69-.12,2.53-1.39,2.56-2.95.03-1.66-.07-3.52.3-4.36.28-.62,1.58-.06,1.5.95-.35,4.26,2.4,8.08,5.85,9.21.72.23,1.5.36,2.39.2.7-.12.99-.93.29-1.51-.51-.42-1.91-.46-1.85-1.4.08-1.39,2.64-2.32,2.76-4.07.2-2.8-3.31-3.44-3.37-4.92-.06-1.49,2.88-3.66,3.09-5.3.39-2.95-2.88-6.1-2.54-7.99.03-.14.07-1.32,1.21-1.42,1.66-.14,4.34.6,4.82-.67.34-.88.17-2.86-.7-3.98-1.01-1.32-2.68-1.87-3.59-2.4-.48-.28-.66-.77-.62-.88,1.39-3.76,1.34-9.41.97-11.36-.26-1.38-1.33-1.15-1.84-.32-2,3.29-8.44,8.24-15.12,9.04-3.73.44-9.92.19-12.91.07-1.29-.05-.84-1.23-.4-1.45,1.14-.57,2.9-1.3,4.81-1.83,5.08-1.42,11.99-2.99,15.93-5.84,4.38-3.16,5.47-7.36,5.41-10.14-.04-1.67-.38-2.69-.61-3.19-1.67-3.54-4.64-3.76-4.81-5.42-.09-.85.37-1.5,1.24-2.25.7-.6,2.33-1,1.86-1.78-1.01-1.66-4.38-2.74-6.67-2.17-1.13.28-2.75,2-3.65,4.59-.31.89-.11,1.71-.46,2.35-.35.64-1.39,1.05-1.72,1.15-12.34,3.88-35.92,6.82-45.54,3.07-6.75-2.63-.75-7.79-3.67-7.34-5.35.82-5.59,7.71-6.21,7.68-2.4-.14-5-1.41-6.53-2.89-1.89-1.84-1.93-5.06-.04-6.98.91-.93,2.39-1.66,4.84-1.93,3.41-.38,8.33-.13,9.12.18,3.35,1.31,8.95,4.71,12.89,4.94,1.51.09,3.13-1.02,3.35-2.54.2-1.43-.65-2.77-2.57-3.97-.6-.37-.71-.83-.15-1.16,3.58-2.14,4.38-4.32,4.48-6.33.21-3.85-2.44-6.89-8.13-7.21-2.75-.16-14.61,2.64-16.52,1.37-1.14-.75-1.81-1.61-2.44-2.17-1.05-.93-1.81-1.3-3.1-1.01-.79.18-2.42,2.38-2.49,4.56-.06,1.8,1.29,3.58,3.69,4.33,3.69,1.14,12.98-1.04,17.57-.89,1.06.04,2.22.54,2.56,1.32.76,1.74-2.75,3.74-3.83,3.73-3.31-.02-6.85-.21-10.68-.28-3.37-.06-7.53-.3-10.98.2-9.38,1.34-8.59,12.16-2.81,17.3,3.43,3.05,8.35,4.59,12.85,6.02,5.52,1.75,19.25,1.65,32.88-.7,10.36-1.79,20.79-5.88,26.75-5.35,3.35.29,4.9,1.94,4.99,3.63.14,2.74-3.91,5.54-8.4,7.15-5.78,2.07-12.52,2.86-15.2,2.87-11.9,0-25.74-3.05-47.39-4.79-6.62-.53-13.05-.66-18.47-.62-7.2.05-14.26,1.33-17.26,2.01-.97.22-1.99,4.08-4.78,6.53-2.24,1.96-4.24,2.29-7.49,2.48h0Z"/>
      <path class="cls-3" d="m103.18,99.06c.11-.86-.28-2.99-1.53-3.11-1.61-.16-2.24.92-2.19,2.45.06,1.88,1.35,3.16,2.91,5.16-1.59,1.52-2.21,2.14-2.35,3.55-.12,1.32.11,2.35,1.63,4.15.35.42.28,1.16-.32,1.41-.37.16-.86.04-1.21-.39-.7-.86-1.37-2.58-2.3-3.17-.84-.54-1.79-.37-1.98.46-.34,1.44.15,3.79.11,5.63-.05,2.09-.73,4.74-.06,5.82.47.75,1.3,1.02,2.29.5,1.29-.67,1.05-3.23,2.3-3.98.45-.27,1.01-.17,1.38.42.31.5.38,1.12-.1,1.81-.73,1.02-2.58,1.51-2.65,3.54-.06,1.71,1.8,1.57,2.65,1.17,2.84-1.32,3.07-3.18,4.68-4.44.62-.49,1.19-.53,1.83-.79.64-.25,1.37-.73,2.11-1.87.38-.59.33-1.51-.41-1.94-1.15-.66-2.7-.41-4.49-.31-.04-.58-.12-1.69.72-1.73,2.66-.14,3.98-1.04,4.51-2.37.25-.61.39-3.06.98-3.04,1.81.07,4.54.51,5.88-.71.49-.44,1.26-2.05.47-2.94-.45-.51-1.25-.62-2.2-.64-.4,0-1.16.24-1.62.59-.48.36-.87.33-1,.02-.23-.54.17-1.71-.71-2.36-.69-.51-1.38-.36-1.91-.03-1.39.85-1.52,2.96-1.95,4.64-.23.88-.52,1.67-1.16,2.07-.41.25-.82.31-1.37.22-.98-.16-2.21-.96-2.1-2.11.12-1.21.93-2.01,1.73-3.09.62-.84,1.23-1.77,1.49-2.79.47-1.81-2.2-3-3.33-1.29-.26.39-.75-.09-.7-.5h0Z"/>
      <path class="cls-1" d="m45.68,36.55V13.19h16.02v3.96h-11.3v5.53h9.75v3.95h-9.75v9.93h-4.72Z"/>
      <path class="cls-1" d="m84.85,36.55h-5.14l-2.04-5.31h-9.34l-1.92,5.31h-5.01l9.1-23.36h4.99l9.36,23.36Zm-8.69-9.24l-3.22-8.67-3.16,8.67h6.38Z"/>
      <path class="cls-1" d="m90.89,36.55l-8.35-23.36h5.12l5.91,17.29,5.72-17.29h5l-8.37,23.36h-5.04Z"/>
      <path class="cls-1" d="m106.7,36.55V13.19h17.32v3.96h-12.61v5.18h11.73v3.93h-11.73v6.36h13.05v3.94h-17.77Z"/>
      <path class="cls-1" d="m128.48,36.55V13.19h9.93c2.5,0,4.31.21,5.44.63,1.13.42,2.04,1.16,2.72,2.24.68,1.08,1.02,2.3,1.02,3.68,0,1.75-.52,3.2-1.55,4.35-1.03,1.14-2.57,1.86-4.62,2.15,1.02.6,1.87,1.25,2.53,1.96.66.71,1.55,1.97,2.68,3.79l2.86,4.56h-5.64l-3.41-5.09c-1.21-1.82-2.04-2.96-2.49-3.43-.45-.47-.92-.79-1.42-.97-.5-.17-1.29-.26-2.38-.26h-.95v9.75h-4.72Zm4.72-13.49h3.49c2.26,0,3.68-.09,4.24-.28.56-.19,1-.52,1.32-.99.32-.46.48-1.05.48-1.75,0-.79-.21-1.42-.63-1.9-.42-.48-1.01-.79-1.78-.92-.38-.05-1.53-.07-3.44-.07h-3.68v5.92Z"/>
      <path class="cls-1" d="m150.84,28.96l4.59-.45c.27,1.54.84,2.68,1.68,3.4.84.71,1.98,1.08,3.41,1.08,1.52,0,2.66-.32,3.43-.97.77-.64,1.16-1.4,1.16-2.25,0-.55-.16-1.02-.49-1.41-.32-.39-.89-.73-1.69-1.01-.55-.2-1.81-.53-3.78-1.02-2.53-.62-4.3-1.4-5.32-2.31-1.43-1.28-2.15-2.85-2.15-4.7,0-1.19.33-2.3,1.01-3.34.68-1.04,1.65-1.82,2.91-2.37,1.27-.54,2.8-.81,4.6-.81,2.94,0,5.14.64,6.62,1.93,1.48,1.29,2.26,3,2.34,5.15l-4.72.21c-.2-1.2-.64-2.07-1.3-2.59-.66-.52-1.66-.79-2.98-.79s-2.45.28-3.22.84c-.5.36-.75.84-.75,1.45,0,.55.23,1.03.7,1.42.59.5,2.04,1.02,4.34,1.56,2.3.54,3.99,1.11,5.09,1.68,1.1.58,1.96,1.37,2.59,2.38.62,1.01.93,2.25.93,3.72,0,1.34-.37,2.59-1.12,3.76-.74,1.17-1.79,2.04-3.15,2.61-1.36.57-3.06.85-5.09.85-2.95,0-5.22-.68-6.8-2.04-1.59-1.37-2.53-3.36-2.84-5.97h0Z"/>
      <path class="cls-1" d="m173.82,36.55V13.19h4.72v9.2h9.24v-9.2h4.71v23.36h-4.71v-10.21h-9.24v10.21h-4.72Z"/>
      <path class="cls-1" d="m218.45,36.55h-5.14l-2.04-5.31h-9.34l-1.93,5.31h-5l9.1-23.36h4.99l9.36,23.36Zm-8.69-9.24l-3.22-8.67-3.15,8.67h6.38Z"/>
      <path class="cls-1" d="m220.88,36.55V13.19h7.06l4.24,15.94,4.19-15.94h7.07v23.36h-4.38v-18.39l-4.64,18.39h-4.54l-4.62-18.39v18.39h-4.38Z"/>
      <path class="cls-1" d="m102.25,67.45v-19.41h-6.93v-3.95h18.56v3.95h-6.91v19.41h-4.72Z"/>
      <path class="cls-1" d="m115.38,55.91c0-2.38.35-4.38,1.07-6,.53-1.18,1.25-2.25,2.18-3.2.92-.94,1.93-1.64,3.02-2.1,1.46-.62,3.13-.93,5.04-.93,3.44,0,6.19,1.07,8.26,3.2,2.07,2.13,3.1,5.1,3.1,8.91s-1.03,6.72-3.08,8.86c-2.05,2.12-4.79,3.19-8.22,3.19s-6.24-1.06-8.29-3.18c-2.05-2.12-3.07-5.04-3.07-8.76h0Zm4.86-.16c0,2.64.61,4.65,1.84,6.02,1.22,1.36,2.77,2.04,4.66,2.04s3.42-.68,4.62-2.04c1.2-1.35,1.81-3.38,1.81-6.09s-.59-4.67-1.76-6c-1.18-1.32-2.73-1.97-4.68-1.97s-3.52.67-4.71,2c-1.19,1.34-1.79,3.34-1.79,6.04h0Z"/>
      <path class="cls-1" d="m145.04,67.45l-5.58-23.36h4.83l3.52,16.05,4.27-16.05h5.61l4.09,16.32,3.59-16.32h4.75l-5.68,23.36h-5l-4.65-17.47-4.64,17.47h-5.11Z"/>
      <path class="cls-1" d="m172.57,67.45v-23.36h4.59l9.56,15.6v-15.6h4.39v23.36h-4.74l-9.42-15.24v15.24h-4.38Z"/>
      <path class="cls-1" d="m116.01,384.88v-23.96h16.43v4.05h-11.59v5.67h10.01v4.05h-10.01v10.18h-4.84Z"/>
      <rect class="cls-4" x="132.69" y="380.29" width="4.59" height="4.59"/>
      <path class="cls-1" d="m157.36,376.07l4.69,1.48c-.72,2.62-1.91,4.56-3.59,5.83-1.67,1.26-3.79,1.9-6.37,1.9-3.18,0-5.8-1.09-7.84-3.26-2.05-2.17-3.07-5.15-3.07-8.91,0-3.99,1.03-7.09,3.09-9.3,2.06-2.2,4.77-3.31,8.13-3.31,2.93,0,5.31.86,7.14,2.6,1.09,1.02,1.91,2.49,2.46,4.42l-4.79,1.14c-.28-1.24-.87-2.23-1.77-2.95-.9-.72-2-1.08-3.28-1.08-1.77,0-3.22.64-4.33,1.91-1.1,1.27-1.66,3.34-1.66,6.2,0,3.03.54,5.19,1.63,6.47,1.09,1.29,2.51,1.93,4.25,1.93,1.29,0,2.4-.41,3.32-1.23.93-.82,1.59-2.11,2-3.86h0Z"/>
      <rect class="cls-4" x="166.17" y="380.29" width="4.59" height="4.59"/>
    </g>
  </g>
</svg>