<?xml version="1.0" encoding="UTF-8"?>
<svg id="Livello_2" data-name="Livello 2" xmlns="http://www.w3.org/2000/svg" viewBox="0 0 600 600">
  <defs>
    <style>
      .cls-1 {
        fill: #ff0b10;
      }

      .cls-1, .cls-2, .cls-3, .cls-4 {
        fill-rule: evenodd;
        stroke-width: 0px;
      }

      .cls-2 {
        fill: #000d88;
      }

      .cls-3 {
        fill: #fff;
      }

      .cls-4 {
        fill: #ffb500;
      }
    </style>
  </defs>
  <g id="svg17">
    <path id="path313" class="cls-2" d="m87.87,87.87C142.16,33.58,217.16,0,300,0s157.84,33.58,212.13,87.87c54.29,54.29,87.87,129.29,87.87,212.13s-33.58,157.84-87.87,212.13c-54.29,54.29-129.29,87.87-212.13,87.87s-157.84-33.58-212.13-87.87C33.58,457.84,0,382.84,0,300S33.58,142.16,87.87,87.87Z"/>
    <path id="path317" class="cls-4" d="m300,22.5c-76.63,0-146.01,31.06-196.22,81.28-50.22,50.22-81.28,119.59-81.28,196.22s31.06,146.01,81.28,196.22c50.22,50.22,119.59,81.28,196.22,81.28s146.01-31.06,196.22-81.28c50.22-50.22,81.28-119.59,81.28-196.22s-31.06-146.01-81.28-196.22c-50.22-50.22-119.59-81.28-196.22-81.28Z"/>
    <path id="path321" class="cls-1" d="m119.69,119.7c46.15-46.14,109.9-74.68,180.31-74.68s134.17,28.54,180.31,74.68c46.15,46.14,74.69,109.89,74.69,180.3s-28.54,134.16-74.69,180.3c-46.15,46.14-109.9,74.68-180.31,74.68s-134.17-28.54-180.31-74.68c-46.15-46.14-74.69-109.89-74.69-180.3s28.54-134.16,74.69-180.3h0Z"/>
    <path id="path325" class="cls-2" d="m300,67.5c-64.2,0-122.33,26.02-164.4,68.1-42.07,42.07-68.1,100.2-68.1,164.4s26.02,122.33,68.1,164.4c42.07,42.07,100.2,68.1,164.4,68.1s122.33-26.02,164.4-68.1c42.07-42.07,68.1-100.2,68.1-164.4s-26.02-122.33-68.1-164.4c-42.07-42.07-100.2-68.1-164.4-68.1Z"/>
    <path id="path6" class="cls-3" d="m259.97,343.75l80.4-.02-40.05-62.6-40.34,62.62Zm-116.64,61.57l-24.58-15.54L288.41,124.66l24.19.12,168.66,263.9-24.81,16.14-94.74-148.26-43.12-.02,107.72,168.4-24.16,15.4-43.45-67.95h-42.5s55.1,87.67,55.1,87.67l-24.27,15.28-46.49-73.95-47.35,73.83-24.16-15.51,56-87.3h-43.51s-43.41,67.44-43.41,67.44l-24.16-15.51,108.08-167.81-43.78-.02-94.9,148.81Zm201.03-177.38l-43.9-68.64-44.07,68.56,87.96.08Z"/>
  </g>
</svg>