<?xml version="1.0" encoding="UTF-8"?>
<svg id="Layer_2" data-name="Layer 2" xmlns="http://www.w3.org/2000/svg" viewBox="0 0 581 581">
  <defs>
    <style>
      .cls-1 {
        fill: none;
        stroke: #939598;
        stroke-width: 3px;
      }

      .cls-1, .cls-2 {
        stroke-miterlimit: 10;
      }

      .cls-2 {
        stroke: #c0940a;
        stroke-width: 5px;
      }

      .cls-2, .cls-3, .cls-4 {
        fill: #1f3856;
      }

      .cls-3, .cls-5 {
        fill-rule: evenodd;
      }

      .cls-3, .cls-5, .cls-6, .cls-7, .cls-4, .cls-8, .cls-9 {
        stroke-width: 0px;
      }

      .cls-5, .cls-9 {
        fill: #fff;
      }

      .cls-6 {
        fill: #838689;
      }

      .cls-7 {
        fill: #1e5896;
      }

      .cls-8 {
        fill: #b89c50;
      }
    </style>
  </defs>
  <g id="Layer_1-2" data-name="Layer 1">
    <g>
      <path class="cls-2" d="m290.5,2.5C131.44,2.5,2.5,131.44,2.5,290.5s128.94,288,288,288,288-128.94,288-288S449.56,2.5,290.5,2.5Zm0,500c-117.08,0-212-94.92-212-212s94.92-212,212-212,212,94.92,212,212-94.92,212-212,212Z"/>
      <g>
        <path class="cls-9" d="m126.97,455.63l22.95,21.1-5.55,6.03-7.7-7.08-16.92,18.4-7.55-6.94,16.92-18.4-7.7-7.08,5.55-6.03Z"/>
        <path class="cls-9" d="m153.24,479.36l8.54,5.67-6.42,9.68,9.34,6.2,6.42-9.68,8.58,5.69-18.35,27.65-8.58-5.69,7.42-11.19-9.34-6.2-7.42,11.19-8.54-5.67,18.35-27.65Z"/>
        <path class="cls-9" d="m185.35,499.85l24.99,11.44-2.95,6.44-15.64-7.16-2.2,4.8,14.51,6.64-2.82,6.15-14.51-6.64-2.72,5.95,16.1,7.37-3.13,6.83-25.44-11.64,13.81-30.18Z"/>
        <path class="cls-9" d="m224.68,539.39l9.67,1.42c-.12,1.59.05,2.86.51,3.81.76,1.53,2.09,2.5,4.01,2.91,1.43.3,2.61.2,3.52-.31.92-.51,1.47-1.2,1.66-2.09.18-.84-.03-1.67-.63-2.49-.6-.82-2.18-1.81-4.74-2.97-4.19-1.92-7.05-3.9-8.58-5.93-1.54-2.04-2.05-4.33-1.51-6.87.35-1.67,1.17-3.14,2.45-4.42,1.28-1.28,2.98-2.14,5.1-2.58,2.12-.44,4.87-.3,8.25.42,4.15.88,7.15,2.32,9,4.32,1.85,2,2.63,4.73,2.33,8.19l-9.57-1.45c.06-1.51-.24-2.69-.91-3.52-.67-.83-1.71-1.4-3.12-1.7-1.17-.25-2.1-.19-2.79.18-.7.37-1.12.91-1.27,1.62-.11.52.03,1.03.44,1.55.38.53,1.42,1.16,3.11,1.91,4.18,1.87,7.12,3.49,8.82,4.86,1.69,1.37,2.82,2.86,3.38,4.48.56,1.62.65,3.31.28,5.08-.44,2.08-1.42,3.88-2.95,5.39-1.52,1.51-3.41,2.51-5.67,2.98-2.26.47-4.96.37-8.11-.29-5.52-1.17-9.12-3.04-10.8-5.62-1.67-2.58-2.31-5.53-1.89-8.87Z"/>
        <path class="cls-9" d="m263.44,524.58l10.24.51-.57,11.6,11.19.55.57-11.6,10.29.51-1.64,33.15-10.29-.51.66-13.41-11.19-.55-.66,13.41-10.24-.51,1.64-33.15Z"/>
        <path class="cls-9" d="m324.88,551.04l-11.57,1.33-.98,5.63-10.4,1.19,8.61-34.39,11.11-1.27,16.17,31.55-10.67,1.22-2.27-5.25Zm-2.93-6.89l-5-11.44-2.24,12.27,7.24-.83Z"/>
        <path class="cls-9" d="m329.85,522.86l11.02-2.88,9.29,9.15,3.66-12.53,10.96-2.86-7.62,21.92,3.51,13.45-9.95,2.59-3.51-13.45-17.38-15.4Z"/>
        <path class="cls-9" d="m367.22,512.93l12.26-5.61,13.13,16.2-3.7-20.51,12.26-5.61,13.8,30.18-7.64,3.49-10.53-23.02,4.64,25.71-6.91,3.16-16.4-20.33,10.53,23.01-7.64,3.49-13.81-30.18Z"/>
        <path class="cls-9" d="m406.11,494.09l22.7-15.49,3.99,5.85-14.21,9.7,2.97,4.36,13.18-8.99,3.82,5.59-13.18,8.99,3.69,5.4,14.62-9.98,4.24,6.21-23.11,15.77-18.7-27.42Z"/>
        <path class="cls-9" d="m433.28,475.18l6.95-6.59,21.7,4.73-12.63-13.33,7.02-6.65,22.83,24.09-7.02,6.65-21.55-4.68,12.53,13.23-7,6.63-22.83-24.09Z"/>
      </g>
      <g>
        <path class="cls-9" d="m18.68,234.55l9.43-34.27,9.64,2.65-5.6,20.35,7.83,2.15,4.78-17.38,9.06,2.49-4.78,17.38,18.33,5.04-3.83,13.92-44.86-12.34Z"/>
        <path class="cls-9" d="m71.6,171.23l9.05-9.56c2.78,2.34,4.82,4.85,6.13,7.54,1.3,2.69,1.89,5.51,1.76,8.46-.13,2.95-1.13,6.29-2.99,10.02-2.26,4.52-4.77,7.89-7.52,10.1s-6.3,3.52-10.65,3.95c-4.35.42-9.11-.66-14.27-3.24-6.88-3.45-11.25-7.93-13.12-13.44-1.86-5.51-1.12-11.62,2.24-18.31,2.62-5.24,5.75-8.83,9.37-10.77,3.62-1.94,7.99-2.54,13.11-1.79l-3.16,12.62c-1.47-.24-2.6-.29-3.41-.14-1.34.23-2.54.73-3.59,1.5-1.05.78-1.9,1.81-2.54,3.09-1.46,2.91-1.41,5.73.16,8.46,1.15,2.04,3.59,4,7.31,5.86,4.61,2.31,8.12,3.19,10.53,2.65,2.41-.54,4.25-2.08,5.52-4.62,1.23-2.46,1.47-4.66.72-6.61-.75-1.95-2.3-3.87-4.64-5.75Z"/>
        <path class="cls-9" d="m75.55,115.66l10.01-10.32,11.69,11.34,10.94-11.28-11.69-11.34,10.05-10.37,33.4,32.39-10.05,10.37-13.51-13.1-10.94,11.28,13.51,13.1-10.01,10.32-33.4-32.39Z"/>
        <path class="cls-9" d="m165.15,89.51l-13.61,9.01,2.35,7.66-12.24,8.1-11.09-48.45,13.08-8.65,40.25,29.16-12.56,8.31-6.18-5.12Zm-8.04-6.75l-13.51-11.12,4.99,16.75,8.52-5.64Z"/>
        <path class="cls-9" d="m168.66,42.92l13.3-5.46,13.31,32.45,20.76-8.52,4.35,10.6-34.06,13.97-17.66-43.05Z"/>
        <path class="cls-9" d="m214.41,26.05l13.97-3.51,11.34,45.13-13.97,3.51-11.34-45.13Z"/>
        <path class="cls-9" d="m243.28,19.21l35.36-3.68,1.03,9.94-20.99,2.18.84,8.08,17.93-1.87.97,9.34-17.93,1.87,1.97,18.91-14.36,1.49-4.82-46.28Z"/>
        <path class="cls-9" d="m312.12,55.81l-16.29-1.03-2.75,7.52-14.65-.93,20.4-45.33,15.65.99,14.5,47.54-15.03-.95-1.84-7.81Zm-2.34-10.23l-4.07-17.02-6.13,16.37,10.2.65Z"/>
        <path class="cls-9" d="m340.56,19.79l15.25,4.28,4.07,16.01,11.58-11.62,15.1,4.23-20.03,17.79,8.78,27.38-15.55-4.36-4.81-16.87-12.88,11.91-15.46-4.34,22-19.01-8.03-25.39Z"/>
        <path class="cls-9" d="m417.95,47.06l36.88,23.45-6.16,9.7-12.37-7.87-18.8,29.57-12.13-7.71,18.8-29.57-12.37-7.87,6.17-9.7Z"/>
        <path class="cls-9" d="m446.28,92.97c5.27-5.47,10.89-8.27,16.87-8.39,5.98-.12,11.7,2.44,17.14,7.68,5.58,5.37,8.44,11,8.58,16.9.14,5.9-2.39,11.55-7.58,16.95-3.77,3.92-7.52,6.5-11.25,7.74-3.73,1.24-7.52,1.36-11.35.36-3.84-1-7.61-3.29-11.33-6.87-3.78-3.64-6.33-7.25-7.65-10.84-1.32-3.59-1.5-7.43-.53-11.52.97-4.09,3.34-8.09,7.11-12.01Zm10.32,10.01c-3.26,3.39-4.97,6.42-5.13,9.11-.16,2.69.84,5.08,3,7.16,2.23,2.14,4.65,3.07,7.26,2.8,2.61-.27,5.72-2.29,9.33-6.04,3.04-3.16,4.62-6.08,4.75-8.76.13-2.68-.9-5.07-3.08-7.17-2.09-2.01-4.48-2.88-7.17-2.62-2.69.26-5.68,2.1-8.96,5.52Z"/>
        <path class="cls-9" d="m504.56,117.03l7.29,11.55-19.4,18.07,25.87-7.83,7.27,11.5-18.14,19.99,24.62-9.73,7.25,11.49-44.82,16.17-7.53-11.92,20.41-22.54-29.11,8.77-7.53-11.92,33.81-33.6Z"/>
        <path class="cls-9" d="m543.96,184.93l4.16,12.76-19.04,24.63,24.47-7.98,4.2,12.89-44.24,14.42-4.2-12.89,18.89-24.48-24.29,7.92-4.19-12.85,44.24-14.42Z"/>
      </g>
      <path class="cls-7" d="m148.27,231.83s17-7.33,70.33-15c1.33,46,0,230.33,0,230.33,0,0-49.33-39.33-70.67-95.33-1.33-11.33.33-120,.33-120Z"/>
      <path class="cls-7" d="m427.85,231.83s-17-7.33-70.33-15c-1.33,46,0,230.33,0,230.33,0,0,49.33-39.33,70.67-95.33,1.33-11.33-.33-120-.33-120Z"/>
      <g>
        <polygon class="cls-8" points="179.69 159.59 185.97 178.93 206.3 178.93 189.85 190.88 196.14 210.21 179.69 198.26 163.24 210.21 169.52 190.88 153.07 178.93 173.41 178.93 179.69 159.59"/>
        <polygon class="cls-8" points="233.44 149.59 239.72 168.93 260.05 168.93 243.6 180.88 249.89 200.21 233.44 188.26 216.99 200.21 223.27 180.88 206.82 168.93 227.16 168.93 233.44 149.59"/>
        <polygon class="cls-8" points="287.69 144.84 293.97 164.18 314.3 164.18 297.85 176.13 304.14 195.46 287.69 183.51 271.24 195.46 277.52 176.13 261.07 164.18 281.41 164.18 287.69 144.84"/>
        <polygon class="cls-8" points="342.69 148.84 348.97 168.18 369.3 168.18 352.85 180.13 359.14 199.46 342.69 187.51 326.24 199.46 332.52 180.13 316.07 168.18 336.41 168.18 342.69 148.84"/>
        <polygon class="cls-8" points="397.36 159.17 403.64 178.51 423.97 178.51 407.52 190.46 413.8 209.8 397.36 197.85 380.91 209.8 387.19 190.46 370.74 178.51 391.07 178.51 397.36 159.17"/>
      </g>
      <path class="cls-6" d="m239.73,265.12h48.81l-2.57,12.1h-34.52l-3.36,15.83h30.22l-2.52,11.96h-30.22l-6.12,28.86h-14.29l14.57-68.75Z"/>
      <path class="cls-6" d="m284.84,272.22c6.82-5.67,14.56-8.5,23.21-8.5,11.58,0,19.24,3.8,22.98,11.4,2.05,4.27,2.72,8.55,2.01,12.84h-14.38c-.22-3.3-.89-5.79-2.01-7.47-1.96-2.99-5.51-4.48-10.65-4.48s-9.81,2.11-13.73,6.33c-3.92,4.22-6.7,10.19-8.31,17.91-1.65,7.72-1.29,13.51,1.08,17.35,2.36,3.85,6.01,5.77,10.93,5.77s9.25-1.65,12.61-4.95c1.84-1.77,3.61-4.44,5.33-7.99h14.24c-2.83,7.5-7.31,13.61-13.43,18.31-6.12,4.7-13.18,7.05-21.18,7.05-9.9,0-17.02-3.18-21.35-9.53-4.3-6.38-5.26-15.13-2.9-26.25,2.55-12.02,7.74-21.28,15.55-27.79Z"/>
      <path class="cls-7" d="m235.65,389.3l14.17-66.75h13.81l-5.43,25.45h26.08l5.43-25.45h13.86l-14.17,66.75h-13.86l6.29-29.8h-26.08l-6.29,29.8h-13.81Z"/>
      <path class="cls-7" d="m351.9,323.21l-2.54,11.82h-19.97l-11.64,54.93h-14.04l11.64-54.93h-20.06l2.54-11.82h54.07Z"/>
      <path class="cls-1" d="m149.67,161.24s128.95-48.57,276.88-.56c3.35,53.59,0,190.91,0,190.91,0,0-30.14,97.69-138.44,131.18-106.62-31.82-140.11-131.18-140.11-131.18l1.67-190.35Z"/>
      <g>
        <path class="cls-3" d="m62.42,312.01c1.08-.07,4.67.23,4.88.89.22.66-2.51,3.02-3.42,3.59l-7.04,21.65c.4,1,1.23,4.51.66,4.92-.56.41-3.64-1.45-4.47-2.15h-22.77c-.83.7-3.91,2.56-4.47,2.15-.57-.41.25-3.92.66-4.92l-7.04-21.65c-.92-.57-3.64-2.93-3.42-3.59.22-.67,3.8-.97,4.88-.89l18.43-13.38c.26-1.05,1.66-4.37,2.36-4.37s2.09,3.32,2.36,4.37l18.42,13.38h0Z"/>
        <path class="cls-5" d="m38.54,326l-8.3,11.61c-1.22,2.27.22,7.9,11.4,7.9s12.62-5.63,11.39-7.9l-8.3-11.61h-6.2Z"/>
        <polygon class="cls-4" points="39.01 326.34 30.72 337.95 29.77 337.28 38.07 325.66 39.01 326.34 39.01 326.34"/>
        <path class="cls-4" d="m30.76,337.89c-.18.34-.29.77-.29,1.27,0,.65.19,1.38.65,2.1.48.75,1.24,1.47,2.37,2.08,1.75.95,4.37,1.6,8.15,1.6s6.4-.65,8.15-1.59c1.14-.61,1.9-1.34,2.37-2.08.46-.72.65-1.45.65-2.1,0-.49-.11-.93-.29-1.27l1.02-.55c.27.5.43,1.13.43,1.82,0,.85-.25,1.81-.83,2.73-.57.9-1.48,1.77-2.8,2.48-1.91,1.02-4.71,1.74-8.7,1.74s-6.8-.71-8.7-1.74c-1.33-.71-2.23-1.58-2.8-2.48-.59-.92-.83-1.87-.83-2.73,0-.69.16-1.32.43-1.82l1.02.55h0Z"/>
        <polygon class="cls-4" points="52.56 337.95 44.27 326.34 45.21 325.66 53.51 337.28 52.56 337.95 52.56 337.95"/>
        <path class="cls-5" d="m45.21,325.66l8.48,11.48c1.78,1.86,7.58,2.23,11.04-8.4,3.45-10.63-1.46-13.74-3.99-13.28l-13.61,4.3-1.91,5.89h0Z"/>
        <polygon class="cls-4" points="45.67 325.31 54.16 336.79 53.22 337.48 44.74 326 45.67 325.31 45.67 325.31"/>
        <path class="cls-4" d="m54.11,336.74c.27.28.65.52,1.12.67.62.2,1.37.25,2.2.03.85-.22,1.78-.72,2.71-1.61,1.44-1.37,2.87-3.66,4.04-7.26,1.17-3.61,1.36-6.3,1-8.26-.23-1.27-.69-2.21-1.25-2.89-.54-.66-1.18-1.06-1.79-1.26-.47-.15-.92-.18-1.29-.11l-.21-1.14c.56-.1,1.21-.06,1.87.15.81.26,1.64.79,2.33,1.63.68.82,1.23,1.95,1.5,3.42.39,2.13.2,5.02-1.04,8.83-1.23,3.8-2.78,6.24-4.34,7.74-1.08,1.04-2.19,1.63-3.22,1.89-1.06.28-2.04.21-2.85-.05-.65-.21-1.21-.56-1.6-.97l.84-.8h0Z"/>
        <polygon class="cls-4" points="60.91 316.02 47.3 320.32 46.95 319.21 60.56 314.91 60.91 316.02 60.91 316.02"/>
        <path class="cls-5" d="m46.95,319.21l13.53-4.52c2.32-1.12,4.47-6.52-4.57-13.09-9.04-6.57-13.52-2.86-13.86-.3l-.12,14.27,5.02,3.64h0Z"/>
        <polygon class="cls-4" points="46.76 318.66 60.3 314.15 60.67 315.24 47.13 319.76 46.76 318.66 46.76 318.66"/>
        <path class="cls-4" d="m60.23,314.17c.35-.16.69-.46.98-.85.38-.52.65-1.23.71-2.08.05-.88-.14-1.92-.69-3.08-.87-1.8-2.6-3.86-5.65-6.09-3.06-2.22-5.56-3.23-7.54-3.5-1.27-.17-2.32-.03-3.14.29-.79.31-1.38.79-1.76,1.32-.29.4-.46.81-.51,1.19l-1.15-.16c.08-.56.32-1.16.72-1.72.5-.69,1.26-1.32,2.28-1.72.99-.39,2.23-.56,3.72-.36,2.15.29,4.83,1.37,8.06,3.71,3.23,2.35,5.08,4.57,6.02,6.52.65,1.36.87,2.59.81,3.65-.07,1.09-.43,2-.93,2.69-.4.56-.9.97-1.41,1.22l-.51-1.05h0Z"/>
        <polygon class="cls-4" points="42.63 301.3 42.51 315.57 41.35 315.56 41.46 301.29 42.63 301.3 42.63 301.3"/>
        <path class="cls-5" d="m41.35,315.57l-.12-14.27c-.35-2.56-4.82-6.27-13.86.3-9.04,6.57-6.89,11.97-4.57,13.09l13.54,4.52,5.02-3.64h0Z"/>
        <polygon class="cls-4" points="40.77 315.57 40.65 301.3 41.82 301.29 41.93 315.56 40.77 315.57 40.77 315.57"/>
        <path class="cls-4" d="m40.66,301.38c-.05-.38-.22-.8-.51-1.19-.38-.53-.97-1.01-1.76-1.32-.82-.32-1.87-.46-3.14-.29-1.97.27-4.47,1.27-7.53,3.5-3.06,2.22-4.8,4.29-5.66,6.09-.56,1.16-.74,2.19-.69,3.08.05.85.33,1.56.7,2.08.29.4.63.69.98.86l-.51,1.04c-.51-.25-1.01-.66-1.41-1.22-.5-.69-.86-1.6-.93-2.69-.06-1.06.16-2.29.81-3.65.94-1.95,2.79-4.17,6.02-6.52,3.23-2.35,5.91-3.42,8.06-3.71,1.49-.2,2.73-.03,3.72.36,1.02.4,1.78,1.03,2.28,1.72.4.55.64,1.16.72,1.72l-1.15.16h0Z"/>
        <polygon class="cls-4" points="22.98 314.14 36.52 318.66 36.15 319.76 22.61 315.24 22.98 314.14 22.98 314.14"/>
        <path class="cls-5" d="m36.16,319.76l-13.61-4.3c-2.54-.46-7.45,2.65-3.99,13.28,3.45,10.63,9.26,10.26,11.04,8.39l8.48-11.47-1.92-5.9h0Z"/>
        <polygon class="cls-4" points="35.98 320.32 22.37 316.02 22.72 314.91 36.33 319.21 35.98 320.32 35.98 320.32"/>
        <path class="cls-4" d="m22.44,316.04c-.38-.07-.83-.04-1.3.11-.61.2-1.25.61-1.79,1.26-.56.68-1.02,1.63-1.25,2.89-.36,1.96-.17,4.65,1,8.25,1.17,3.6,2.6,5.89,4.04,7.26.93.89,1.86,1.39,2.71,1.61.83.22,1.58.17,2.2-.03.47-.15.85-.39,1.12-.67l.84.8c-.39.41-.94.76-1.6.97-.81.26-1.79.33-2.85.05-1.03-.27-2.14-.85-3.22-1.89-1.57-1.5-3.11-3.94-4.34-7.74-1.23-3.81-1.43-6.7-1.04-8.83.27-1.47.82-2.6,1.49-3.42.7-.84,1.52-1.37,2.33-1.63.65-.21,1.31-.25,1.86-.15l-.21,1.14h0Z"/>
        <polygon class="cls-4" points="29.12 336.79 37.6 325.31 38.54 326 30.06 337.48 29.12 336.79 29.12 336.79"/>
        <path class="cls-4" d="m35.67,302.41c-.69.19-1.38.13-2.05.07-.63-.06-1.24-.11-1.62.08-.5.25-.85.84-1.19,1.4-.31.52-.62,1.02-1.06,1.37-.59.46-1.29.7-1.94.92-.57.19-1.11.37-1.34.66h0c-.55.66-.51,1.01-.47,1.4.05.46.11.96-.23,1.74l-1.06-.46c.22-.49.18-.83.14-1.15-.08-.64-.14-1.23.73-2.28h0c.44-.53,1.13-.76,1.87-1.02.56-.19,1.16-.39,1.59-.73.28-.22.53-.63.78-1.06.42-.71.87-1.45,1.67-1.85.69-.34,1.45-.27,2.24-.2.58.05,1.17.1,1.65-.02l.3,1.12h0Z"/>
        <path class="cls-4" d="m35.4,339.74c.66.25,1.19.72,1.7,1.16.47.41.93.81,1.36.89.55.09,1.18-.18,1.79-.44.56-.24,1.1-.47,1.66-.49h0c.75-.03,1.45.19,2.11.4.58.18,1.12.35,1.48.26.84-.21,1.01-.52,1.2-.86h0c.23-.41.48-.85,1.21-1.28l.59,1c-.46.27-.63.57-.79.85h0c-.32.56-.61,1.08-1.93,1.42-.67.17-1.36-.04-2.1-.28-.57-.17-1.17-.36-1.72-.34h0,0,0c-.36.01-.79.2-1.25.39-.75.33-1.55.67-2.44.51-.74-.13-1.32-.63-1.93-1.16-.43-.38-.88-.77-1.35-.95l.41-1.09h0Z"/>
        <path class="cls-5" d="m41.64,326.92c3.14,0,5.68-2.54,5.68-5.68s-2.54-5.68-5.68-5.68-5.68,2.54-5.68,5.68,2.54,5.68,5.68,5.68h0Z"/>
        <path class="cls-4" d="m41.64,326.34c1.41,0,2.68-.57,3.6-1.49.92-.92,1.49-2.2,1.49-3.6s-.57-2.69-1.49-3.61c-.92-.92-2.2-1.49-3.6-1.49s-2.69.57-3.61,1.49c-.92.92-1.49,2.2-1.49,3.61s.57,2.68,1.49,3.6c.92.92,2.2,1.49,3.61,1.49h0Zm0,1.16c-1.73,0-3.29-.7-4.43-1.83-1.14-1.13-1.84-2.7-1.84-4.43s.7-3.29,1.83-4.42c1.13-1.13,2.7-1.84,4.43-1.84s3.29.7,4.42,1.84c1.13,1.13,1.84,2.7,1.84,4.43s-.7,3.29-1.84,4.43c-1.14,1.13-2.7,1.83-4.42,1.83h0Z"/>
        <path class="cls-4" d="m22.37,320.49c-.04.7-.31,1.35-.58,1.98-.25.58-.49,1.14-.42,1.56h0c.08.55.53,1.07.96,1.57.4.46.79.9.98,1.43.26.71.27,1.44.27,2.13,0,.61.01,1.18.21,1.48.46.73.81.8,1.19.87h0c.46.1.95.2,1.59.76l-.78.87c-.4-.36-.74-.42-1.04-.49h0c-.64-.13-1.22-.24-1.95-1.4-.37-.59-.38-1.31-.39-2.09,0-.59-.02-1.23-.2-1.74-.12-.33-.44-.69-.76-1.07-.54-.62-1.11-1.28-1.25-2.16h0c-.11-.75.19-1.45.51-2.19.23-.53.46-1.07.48-1.58l1.17.06h0Z"/>
        <path class="cls-4" d="m58.26,310.14c-.39-.6-.54-1.28-.7-1.94-.14-.61-.27-1.21-.58-1.51-.39-.4-1.06-.55-1.7-.7h0c-.6-.13-1.17-.27-1.64-.58-.62-.42-1.06-1.01-1.47-1.56-.36-.49-.7-.94-1.04-1.08-.81-.32-1.12-.17-1.48-.01-.43.2-.88.4-1.73.32l.11-1.15c.53.05.85-.09,1.13-.22.59-.27,1.13-.52,2.39-.02.65.26,1.08.84,1.55,1.46.35.47.73.98,1.19,1.29.29.2.76.3,1.24.41h0c.8.18,1.65.38,2.28,1.02.53.54.7,1.29.88,2.07.13.56.26,1.14.54,1.56l-.97.63h0Z"/>
        <path class="cls-4" d="m57.79,333.27c.45-.55,1.04-.91,1.63-1.26.54-.32,1.06-.63,1.26-1.02h0c.25-.49.19-1.18.13-1.84-.05-.6-.11-1.18.05-1.73.21-.72.63-1.32,1.03-1.88.35-.5.68-.95.7-1.32.06-.87-.18-1.13-.44-1.41-.32-.35-.66-.72-.84-1.55l1.13-.25c.11.52.35.77.56,1.01.44.48.84.92.76,2.28-.04.69-.47,1.28-.92,1.92-.34.48-.71,1-.86,1.53-.1.33-.05.81,0,1.32.07.82.15,1.68-.27,2.48h0c-.35.67-1.01,1.06-1.7,1.47-.49.29-1,.6-1.32.99l-.91-.73h0Z"/>
        <polygon class="cls-9" points="41.68 300.18 40.09 298.44 41.53 295.25 43.19 298.67 41.68 300.18"/>
        <polygon class="cls-9" points="61.58 314.29 63.05 312.44 66.42 313.37 63.31 315.55 61.58 314.29"/>
        <polygon class="cls-9" points="21.69 314.36 20.22 312.52 16.85 313.44 19.96 315.62 21.69 314.36"/>
        <polygon class="cls-9" points="28.97 338.47 26.69 339.1 26.22 342.56 29.44 340.56 28.97 338.47"/>
        <polygon class="cls-9" points="54.53 338.37 54.03 340.68 56.88 342.7 56.6 338.92 54.53 338.37"/>
      </g>
      <g>
        <path class="cls-3" d="m558.39,312.01c1.08-.07,4.67.23,4.88.89.22.66-2.51,3.02-3.42,3.59l-7.04,21.65c.4,1,1.22,4.51.66,4.92-.56.41-3.64-1.45-4.47-2.15h-22.77c-.83.7-3.91,2.56-4.47,2.15-.57-.41.25-3.92.66-4.92l-7.04-21.65c-.91-.57-3.64-2.93-3.42-3.59.22-.67,3.8-.97,4.88-.89l18.43-13.38c.26-1.05,1.66-4.37,2.36-4.37s2.09,3.32,2.36,4.37l18.42,13.38h0Z"/>
        <path class="cls-5" d="m534.51,326l-8.3,11.61c-1.22,2.27.22,7.9,11.4,7.9s12.62-5.63,11.39-7.9l-8.3-11.61h-6.2Z"/>
        <polygon class="cls-4" points="534.99 326.34 526.69 337.95 525.75 337.28 534.04 325.66 534.99 326.34 534.99 326.34"/>
        <path class="cls-4" d="m526.73,337.89c-.18.34-.29.77-.29,1.27,0,.65.19,1.38.65,2.1.48.75,1.24,1.47,2.37,2.08,1.75.95,4.37,1.6,8.15,1.6s6.4-.65,8.15-1.59c1.14-.61,1.9-1.34,2.37-2.08.46-.72.65-1.45.65-2.1,0-.49-.11-.93-.29-1.27l1.02-.55c.27.5.43,1.13.43,1.82,0,.85-.25,1.81-.83,2.73-.57.9-1.48,1.77-2.8,2.48-1.91,1.02-4.71,1.74-8.7,1.74s-6.8-.71-8.7-1.74c-1.33-.71-2.23-1.58-2.8-2.48-.59-.92-.83-1.87-.83-2.73,0-.69.16-1.32.43-1.82l1.02.55h0Z"/>
        <polygon class="cls-4" points="548.53 337.95 540.24 326.34 541.19 325.66 549.48 337.28 548.53 337.95 548.53 337.95"/>
        <path class="cls-5" d="m541.18,325.66l8.48,11.48c1.78,1.86,7.58,2.23,11.04-8.4,3.45-10.63-1.46-13.74-3.99-13.28l-13.61,4.3-1.91,5.89h0Z"/>
        <polygon class="cls-4" points="541.65 325.31 550.13 336.79 549.2 337.48 540.71 326 541.65 325.31 541.65 325.31"/>
        <path class="cls-4" d="m550.08,336.74c.26.28.65.52,1.12.67.62.2,1.37.25,2.2.03.85-.22,1.78-.72,2.71-1.61,1.44-1.37,2.87-3.66,4.04-7.26,1.17-3.61,1.36-6.3,1-8.26-.23-1.27-.69-2.21-1.25-2.89-.54-.66-1.18-1.06-1.79-1.26-.47-.15-.92-.18-1.29-.11l-.21-1.14c.56-.1,1.21-.06,1.87.15.81.26,1.64.79,2.33,1.63.68.82,1.23,1.95,1.5,3.42.39,2.13.2,5.02-1.04,8.83-1.23,3.8-2.78,6.24-4.34,7.74-1.08,1.04-2.19,1.63-3.22,1.89-1.06.28-2.04.21-2.85-.05-.66-.21-1.21-.56-1.6-.97l.84-.8h0Z"/>
        <polygon class="cls-4" points="556.88 316.02 543.27 320.32 542.92 319.21 556.53 314.91 556.88 316.02 556.88 316.02"/>
        <path class="cls-5" d="m542.92,319.21l13.54-4.52c2.32-1.12,4.47-6.52-4.57-13.09-9.04-6.57-13.52-2.86-13.86-.3l-.12,14.27,5.02,3.64h0Z"/>
        <polygon class="cls-4" points="542.73 318.66 556.27 314.15 556.64 315.24 543.1 319.76 542.73 318.66 542.73 318.66"/>
        <path class="cls-4" d="m556.2,314.17c.35-.16.69-.46.98-.85.38-.52.65-1.23.71-2.08.05-.88-.13-1.92-.69-3.08-.87-1.8-2.6-3.86-5.65-6.09-3.06-2.22-5.56-3.23-7.54-3.5-1.27-.17-2.32-.03-3.14.29-.79.31-1.38.79-1.76,1.32-.29.4-.46.81-.51,1.19l-1.15-.16c.08-.56.32-1.16.72-1.72.5-.69,1.26-1.32,2.28-1.72.99-.39,2.23-.56,3.72-.36,2.15.29,4.83,1.37,8.06,3.71,3.23,2.35,5.08,4.57,6.02,6.52.65,1.36.87,2.59.81,3.65-.07,1.09-.43,2-.93,2.69-.4.56-.9.97-1.41,1.22l-.51-1.05h0Z"/>
        <polygon class="cls-4" points="538.6 301.3 538.49 315.57 537.32 315.56 537.43 301.29 538.6 301.3 538.6 301.3"/>
        <path class="cls-5" d="m537.33,315.57l-.12-14.27c-.35-2.56-4.82-6.27-13.87.3-9.04,6.57-6.89,11.97-4.57,13.09l13.54,4.52,5.02-3.64h0Z"/>
        <polygon class="cls-4" points="536.74 315.57 536.63 301.3 537.79 301.29 537.9 315.56 536.74 315.57 536.74 315.57"/>
        <path class="cls-4" d="m536.63,301.38c-.05-.38-.22-.8-.51-1.19-.38-.53-.97-1.01-1.76-1.32-.82-.32-1.87-.46-3.14-.29-1.97.27-4.47,1.27-7.53,3.5-3.06,2.22-4.8,4.29-5.66,6.09-.56,1.16-.74,2.19-.69,3.08.05.85.33,1.56.71,2.08.29.4.63.69.98.86l-.51,1.04c-.51-.25-1.01-.66-1.41-1.22-.5-.69-.86-1.6-.93-2.69-.06-1.06.16-2.29.81-3.65.94-1.95,2.79-4.17,6.02-6.52,3.23-2.35,5.91-3.42,8.06-3.71,1.49-.2,2.73-.03,3.72.36,1.02.4,1.78,1.03,2.28,1.72.4.55.64,1.16.72,1.72l-1.15.16h0Z"/>
        <polygon class="cls-4" points="518.96 314.14 532.49 318.66 532.12 319.76 518.59 315.24 518.96 314.14 518.96 314.14"/>
        <path class="cls-5" d="m532.13,319.76l-13.61-4.3c-2.54-.46-7.45,2.65-3.99,13.28,3.45,10.63,9.25,10.26,11.04,8.39l8.48-11.47-1.92-5.9h0Z"/>
        <polygon class="cls-4" points="531.96 320.32 518.35 316.02 518.7 314.91 532.31 319.21 531.96 320.32 531.96 320.32"/>
        <path class="cls-4" d="m518.42,316.04c-.38-.07-.83-.04-1.3.11-.61.2-1.25.61-1.79,1.26-.56.68-1.02,1.63-1.24,2.89-.36,1.96-.17,4.65,1,8.25,1.17,3.6,2.6,5.89,4.04,7.26.93.89,1.86,1.39,2.71,1.61.83.22,1.58.17,2.2-.03.47-.15.85-.39,1.12-.67l.84.8c-.39.41-.94.76-1.6.97-.81.26-1.79.33-2.85.05-1.03-.27-2.14-.85-3.22-1.89-1.57-1.5-3.11-3.94-4.34-7.74-1.23-3.81-1.43-6.7-1.04-8.83.27-1.47.82-2.6,1.49-3.42.7-.84,1.52-1.37,2.33-1.63.65-.21,1.3-.25,1.86-.15l-.21,1.14h0Z"/>
        <polygon class="cls-4" points="525.1 336.79 533.58 325.31 534.51 326 526.03 337.48 525.1 336.79 525.1 336.79"/>
        <path class="cls-4" d="m531.64,302.41c-.69.19-1.38.13-2.05.07-.63-.06-1.24-.11-1.62.08-.5.25-.86.84-1.19,1.4-.31.52-.62,1.02-1.06,1.37-.59.46-1.29.7-1.94.92-.57.19-1.11.37-1.34.66h0c-.55.66-.51,1.01-.47,1.4.05.46.11.96-.23,1.74l-1.06-.46c.22-.49.18-.83.14-1.15-.08-.64-.14-1.23.73-2.28h0c.44-.53,1.13-.76,1.87-1.02.56-.19,1.16-.39,1.59-.73.28-.22.53-.63.78-1.06.42-.71.87-1.45,1.67-1.85.69-.34,1.45-.27,2.24-.2.58.05,1.17.1,1.65-.02l.3,1.12h0Z"/>
        <path class="cls-4" d="m531.37,339.74c.66.25,1.19.72,1.7,1.16.47.41.93.81,1.36.89.55.09,1.18-.18,1.79-.44.56-.24,1.1-.47,1.66-.49h0c.75-.03,1.45.19,2.11.4.58.18,1.12.35,1.48.26.84-.21,1.01-.52,1.2-.86h0c.23-.41.48-.85,1.21-1.28l.59,1c-.46.27-.63.57-.79.85h0c-.32.56-.61,1.08-1.93,1.42-.67.17-1.36-.04-2.1-.28-.57-.17-1.17-.36-1.72-.34h0,0,0c-.36.01-.79.2-1.25.39-.75.33-1.55.67-2.44.51-.74-.13-1.32-.63-1.93-1.16-.43-.38-.88-.77-1.35-.95l.41-1.09h0Z"/>
        <path class="cls-5" d="m537.61,326.92c3.14,0,5.68-2.54,5.68-5.68s-2.54-5.68-5.68-5.68-5.68,2.54-5.68,5.68,2.54,5.68,5.68,5.68h0Z"/>
        <path class="cls-4" d="m537.61,326.34c1.41,0,2.68-.57,3.6-1.49.92-.92,1.49-2.2,1.49-3.6s-.57-2.69-1.49-3.61c-.92-.92-2.2-1.49-3.6-1.49s-2.69.57-3.61,1.49c-.92.92-1.5,2.2-1.5,3.61s.57,2.68,1.49,3.6c.92.92,2.2,1.49,3.61,1.49h0Zm0,1.16c-1.73,0-3.29-.7-4.43-1.83-1.14-1.13-1.84-2.7-1.84-4.43s.7-3.29,1.83-4.42c1.13-1.13,2.7-1.84,4.43-1.84s3.29.7,4.42,1.84c1.13,1.13,1.83,2.7,1.83,4.43s-.7,3.29-1.83,4.43c-1.14,1.13-2.7,1.83-4.42,1.83h0Z"/>
        <path class="cls-4" d="m518.35,320.49c-.04.7-.31,1.35-.58,1.98-.25.58-.49,1.14-.42,1.56h0c.08.55.53,1.07.96,1.57.4.46.79.9.98,1.43.26.71.26,1.44.27,2.13,0,.61.01,1.18.21,1.48.46.73.81.8,1.19.87h0c.46.1.95.2,1.59.76l-.78.87c-.4-.36-.74-.42-1.04-.49h0c-.64-.13-1.22-.24-1.95-1.4-.37-.59-.38-1.31-.39-2.09,0-.59-.02-1.23-.2-1.74-.12-.33-.44-.69-.76-1.07-.54-.62-1.11-1.28-1.24-2.16h0c-.11-.75.19-1.45.51-2.19.23-.53.46-1.07.48-1.58l1.17.06h0Z"/>
        <path class="cls-4" d="m554.24,310.14c-.39-.6-.54-1.28-.7-1.94-.14-.61-.27-1.21-.58-1.51-.39-.4-1.06-.55-1.7-.7h0c-.6-.13-1.17-.27-1.64-.58-.62-.42-1.06-1.01-1.47-1.56-.36-.49-.7-.94-1.04-1.08-.81-.32-1.12-.17-1.48-.01-.43.2-.88.4-1.73.32l.11-1.15c.53.05.85-.09,1.13-.22.59-.27,1.13-.52,2.39-.02.65.26,1.08.84,1.55,1.46.35.47.73.98,1.19,1.29.29.2.76.3,1.24.41h0c.8.18,1.65.38,2.28,1.02.53.54.7,1.29.88,2.07.13.56.26,1.14.54,1.56l-.97.63h0Z"/>
        <path class="cls-4" d="m553.76,333.27c.45-.55,1.04-.91,1.63-1.26.54-.32,1.06-.63,1.26-1.02h0c.25-.49.19-1.18.13-1.84-.05-.6-.11-1.18.05-1.73.21-.72.63-1.32,1.03-1.88.35-.5.68-.95.7-1.32.06-.87-.18-1.13-.44-1.41-.32-.35-.66-.72-.84-1.55l1.13-.25c.11.52.35.77.56,1.01.44.48.84.92.76,2.28-.04.69-.47,1.28-.92,1.92-.34.48-.71,1-.86,1.53-.09.33-.05.81,0,1.32.07.82.15,1.68-.27,2.48h0c-.35.67-1.01,1.06-1.7,1.47-.49.29-1,.6-1.32.99l-.91-.73h0Z"/>
        <polygon class="cls-9" points="537.65 300.18 536.06 298.44 537.5 295.25 539.17 298.67 537.65 300.18"/>
        <polygon class="cls-9" points="557.55 314.29 559.02 312.44 562.39 313.37 559.29 315.55 557.55 314.29"/>
        <polygon class="cls-9" points="517.67 314.36 516.19 312.52 512.82 313.44 515.93 315.62 517.67 314.36"/>
        <polygon class="cls-9" points="524.94 338.47 522.67 339.1 522.19 342.56 525.42 340.56 524.94 338.47"/>
        <polygon class="cls-9" points="550.5 338.37 550 340.68 552.85 342.7 552.57 338.92 550.5 338.37"/>
      </g>
    </g>
  </g>
</svg>