<?xml version="1.0" encoding="UTF-8"?>
<svg id="Layer_2" data-name="Layer 2" xmlns="http://www.w3.org/2000/svg" viewBox="0 0 248.83 356.3">
  <defs>
    <style>
      .cls-1 {
        fill: #f7f7f7;
      }

      .cls-1, .cls-2, .cls-3, .cls-4, .cls-5, .cls-6, .cls-7, .cls-8, .cls-9, .cls-10, .cls-11, .cls-12, .cls-13, .cls-14, .cls-15, .cls-16, .cls-17, .cls-18, .cls-19, .cls-20, .cls-21, .cls-22, .cls-23, .cls-24, .cls-25, .cls-26, .cls-27, .cls-28, .cls-29, .cls-30, .cls-31, .cls-32, .cls-33, .cls-34, .cls-35, .cls-36, .cls-37, .cls-38, .cls-39, .cls-40, .cls-41, .cls-42, .cls-43, .cls-44, .cls-45, .cls-46, .cls-47, .cls-48, .cls-49, .cls-50, .cls-51, .cls-52, .cls-53, .cls-54, .cls-55, .cls-56, .cls-57, .cls-58, .cls-59, .cls-60, .cls-61, .cls-62, .cls-63, .cls-64, .cls-65, .cls-66, .cls-67, .cls-68, .cls-69, .cls-70, .cls-71, .cls-72, .cls-73, .cls-74, .cls-75, .cls-76, .cls-77, .cls-78, .cls-79, .cls-80, .cls-81, .cls-82, .cls-83, .cls-84, .cls-85, .cls-86, .cls-87, .cls-88, .cls-89, .cls-90, .cls-91, .cls-92, .cls-93, .cls-94, .cls-95, .cls-96, .cls-97, .cls-98, .cls-99, .cls-100, .cls-101, .cls-102, .cls-103, .cls-104, .cls-105, .cls-106, .cls-107, .cls-108, .cls-109, .cls-110, .cls-111, .cls-112, .cls-113 {
        stroke-width: 0px;
      }

      .cls-2 {
        fill: #f6f3eb;
      }

      .cls-3 {
        fill: #f6f6f6;
      }

      .cls-4 {
        fill: #5e5140;
      }

      .cls-5 {
        fill: #757575;
      }

      .cls-6 {
        fill: #76cae1;
      }

      .cls-7 {
        fill: #343434;
      }

      .cls-8 {
        fill: #79cfe6;
      }

      .cls-9 {
        fill: #79d0e7;
      }

      .cls-10 {
        fill: #7ad0e7;
      }

      .cls-11 {
        fill: #5c4f40;
      }

      .cls-12 {
        fill: #652a02;
      }

      .cls-13 {
        fill: #70604d;
      }

      .cls-14 {
        fill: #9b634b;
      }

      .cls-15 {
        fill: #893802;
      }

      .cls-16 {
        fill: #956a58;
      }

      .cls-17 {
        fill: #322a17;
      }

      .cls-18 {
        fill: #38251d;
      }

      .cls-19 {
        fill: #3a2d2c;
      }

      .cls-20 {
        fill: #2f2f2f;
      }

      .cls-21 {
        fill: #2f1e18;
      }

      .cls-22 {
        fill: #1b1513;
      }

      .cls-23 {
        fill: #0a0905;
      }

      .cls-24 {
        fill: #0a0805;
      }

      .cls-25 {
        fill: #1a100c;
      }

      .cls-26 {
        fill: #18140b;
      }

      .cls-27 {
        fill: #0e0907;
      }

      .cls-28 {
        fill: #0e0c07;
      }

      .cls-29 {
        fill: #3e2f2f;
      }

      .cls-30 {
        fill: #372a2a;
      }

      .cls-31 {
        fill: #37231b;
      }

      .cls-32 {
        fill: #0e0e0e;
      }

      .cls-33 {
        fill: #100b08;
      }

      .cls-34 {
        fill: #0d0b06;
      }

      .cls-35 {
        fill: #16130a;
      }

      .cls-36 {
        fill: #151515;
      }

      .cls-37 {
        fill: #0c0a06;
      }

      .cls-38 {
        fill: #0b0905;
      }

      .cls-39 {
        fill: #201b14;
      }

      .cls-40 {
        fill: #221c16;
      }

      .cls-41 {
        fill: #1f1f1f;
      }

      .cls-42 {
        fill: #14110a;
      }

      .cls-43 {
        fill: #17120d;
      }

      .cls-44 {
        fill: #252120;
      }

      .cls-45 {
        fill: #15110c;
      }

      .cls-46 {
        fill: #c3c3c3;
      }

      .cls-47 {
        fill: #c47d5e;
      }

      .cls-48 {
        fill: #c77f60;
      }

      .cls-49 {
        fill: #d3794e;
      }

      .cls-50 {
        fill: #dc752f;
      }

      .cls-51 {
        fill: #ca7f60;
      }

      .cls-52 {
        fill: #cd703b;
      }

      .cls-53 {
        fill: #cd764c;
      }

      .cls-54 {
        fill: #b06f54;
      }

      .cls-55 {
        fill: #b07055;
      }

      .cls-56 {
        fill: #c86a42;
      }

      .cls-57 {
        fill: #ad6e53;
      }

      .cls-58 {
        fill: #c67e60;
      }

      .cls-59 {
        fill: #dc8055;
      }

      .cls-60 {
        fill: #c97f61;
      }

      .cls-61 {
        fill: #d85704;
      }

      .cls-62 {
        fill: #d75704;
      }

      .cls-63 {
        fill: #d65704;
      }

      .cls-64 {
        fill: #c16a51;
      }

      .cls-65 {
        fill: #c16937;
      }

      .cls-66 {
        fill: #c06e43;
      }

      .cls-67 {
        fill: #be795b;
      }

      .cls-68 {
        fill: #ab6657;
      }

      .cls-69 {
        fill: #a66950;
      }

      .cls-70 {
        fill: #d97f54;
      }

      .cls-71 {
        fill: #af6f54;
      }

      .cls-72 {
        fill: #af7055;
      }

      .cls-73 {
        fill: #af7054;
      }

      .cls-74 {
        fill: #b26a5b;
      }

      .cls-75 {
        fill: #b37256;
      }

      .cls-76 {
        fill: #b27156;
      }

      .cls-77 {
        fill: #a86a50;
      }

      .cls-78 {
        fill: #a76a50;
      }

      .cls-79 {
        fill: #ce8263;
      }

      .cls-80 {
        fill: #b57357;
      }

      .cls-81 {
        fill: #b8b8b8;
      }

      .cls-82 {
        fill: #b97559;
      }

      .cls-83 {
        fill: #9e654d;
      }

      .cls-84 {
        fill: #ba765a;
      }

      .cls-85 {
        fill: #c37c5e;
      }

      .cls-86 {
        fill: #b76d5e;
      }

      .cls-87 {
        fill: #c27c5e;
      }

      .cls-88 {
        fill: #bb775a;
      }

      .cls-89 {
        fill: #33251f;
      }

      .cls-90 {
        fill: #312917;
      }

      .cls-91 {
        fill: #979797;
      }

      .cls-92 {
        fill: #806d58;
      }

      .cls-93 {
        fill: #fdfdfd;
      }

      .cls-94 {
        fill: #fdfcfb;
      }

      .cls-95 {
        fill: #7d7d7d;
      }

      .cls-96 {
        fill: #663615;
      }

      .cls-97 {
        fill: #825440;
      }

      .cls-98 {
        fill: #ed4159;
      }

      .cls-99 {
        fill: #ededed;
      }

      .cls-100 {
        fill: #e8e8e8;
      }

      .cls-101 {
        fill: #fc8537;
      }

      .cls-102 {
        fill: #fefdfd;
      }

      .cls-103 {
        fill: #fbfaf6;
      }

      .cls-104 {
        fill: #fbfaf7;
      }

      .cls-105 {
        fill: #fefefe;
      }

      .cls-106 {
        fill: #ebebeb;
      }

      .cls-107 {
        fill: #f0f0f0;
      }

      .cls-108 {
        fill: #ec4058;
      }

      .cls-109 {
        fill: #030202;
      }

      .cls-110 {
        fill: #010101;
      }

      .cls-111 {
        fill: #010000;
      }

      .cls-112 {
        fill: #050505;
      }

      .cls-113 {
        fill: #020202;
      }
    </style>
  </defs>
  <g id="Layer_1-2" data-name="Layer 1">
    <g>
      <path class="cls-110" d="m0,155.92v-9.99c1.08-1.95.25-4.05.51-6.07,0-1.56,0-3.11,0-4.67.49-31.41,12-57.55,37.12-77.06,7.69-5.97,16.52-9.89,25.65-13.12,1.87-.66,3.76-1.43,5.81-.73.72.3.95,1.07,1.46,1.58-.32-.56-.78-1.07-.65-1.8,1.8-1.92,3.98-2.41,6.47-1.74,3.84,3.21-.1,6.23-.23,9.35-2.66,2.54-6.3,2.73-9.53,3.83-20,6.81-35.18,19.35-45.49,37.79-.57,1.01-1.16,2.01-1.46,3.14-.29,1.13-.57,2.45-1.46,3.08-4.08,2.87-1.17,5.41.34,7.88,1.13,1.84,3.17,3.51-.47,4.82-3.43.5-5.22,2.56-5.91,5.86-.71,3.42-1.53,6.83-2.05,10.29-.74,4.98.01,5.86,5.17,5.95,13.81.24,27.63.12,41.45.11,35.95-.01,71.89.02,107.84.02,22.8,0,45.6.15,68.4-.12,5.96-.07,6.62-.92,5.58-6.88-.6-3.44-1.27-6.88-2.14-10.27-.76-2.96-2.5-4.56-5.66-4.58-2-.01-4-.05-5.99-.05-57.79,0-115.57,0-173.36-.02-2.81,0-5.67.33-8.41-.67-2.58-1.78-.68-3.03.6-4.18,1.11-.99,2.73-1.09,4-1.85,3.65-1.69,7.46-1.42,11.28-.84,1.65.25,1.46,2.35,2.9,2.94.89-1.01.82-2.83,2.59-3.04,6.67-.53,13.34-.49,20-.06,1.88.28,1.96,1.96,2.5,3.36-.14.54.42.13.32-.05-.84-1.61.34-2.36,1.53-3.06,3.28-.76,6.57-.62,9.86-.17,1.08.08,1.98,2.93,3.25.2,2.15-.64,4.3-.66,6.43.05.74-.07,1.26,3.11,2.25.14.12-.34.84-.41,1.33-.55,19.76-.38,39.51-.15,59.26-.22,19.26-.07,38.51.15,57.75-.12,1.24-.29,2.45-.79,4.07-.81-1.06-2.76-3-4.91-4.09-7.5-6.24-15.58-17.7-26.26-32.02-34.31-7.88-4.43-16.5-7.01-24.9-10.13-1.07-3.1-6.05-6.02-.46-9.47,8.08-.11,15.3,3.14,22.33,6.38,37.49,17.24,53.15,48.2,54.56,87.93,0,1.98,0,3.95,0,5.93,0,6.59,0,13.17,0,19.75,0,1.68,0,3.36,0,5.04-.12,29.45-7.76,57.29-18.48,84.37-10.14,25.62-25.61,47.82-45.39,66.89-15.44,14.89-32.85,27.12-52.39,36.16-2.17,1-4.45,1.31-6.74,1.64-3.56.09-6.83-.85-10.04-2.42-20.63-10.15-39.04-23.42-55.16-39.76-6.29-6.38-12.11-13.25-17.38-20.53-1.17-1.61-2.43-3.19-2.65-5.28-.06-.49-.02-1.01-.16-1.48-.66-2.17-1.08-4.64,1.15-5.82,2.16-1.14,2.63,2,4.22,2.67.3.13.57.35.85.53,4.7,4.03,7.71,9.51,11.94,13.97,2.5,2.64,4.86,5.43,7.46,8,5.52,5.97,11.63,11.28,18.11,16.17,7.16,5.55,14.39,10.99,22.58,15,3.35,1.52,6.58,3.25,9.9,4.8,2.63,1.23,4.16.66,4.19-2.49.02-1.33.03-2.66.03-4,0-60.8,0-121.59,0-182.39q0-9.79-9.96-9.79c-1.83,0-3.66.12-5.49-.06-7.61.1-15.21.15-22.81-.01-5.38.15-10.76.12-16.13.01-7.59.08-15.17.17-22.76-.02-4.89.17-9.79.04-14.68.05-4.76-.18-9.54.15-14.3-.12-4.16-.24-6.03,1.54-6.42,5.57-.24,2.45-.16,4.94-.68,7.36-2.57,4.29-4.74-.2-7.11-.35Z"/>
      <path class="cls-113" d="m40.83,288.17c-12.68-16.97-21.18-36.04-27.6-56.06-5.75-17.93-9.55-36.32-11.96-54.99-.34-2.63-.26-5.32-.38-7.97-.99-1.62.31-3.64-.89-5.23v-8c2.59-1.03,4.24.81,6.1,2,2.39,1.23,2.19,3.54,2.26,5.66,1.09,29.61,8.21,57.86,19.14,85.25,3.99,10.83,10.09,20.55,16.13,30.3.73,1.9,3.13,3.19,2.11,5.73-2.9.81-2.39-2.68-4.08-3.36-2.49,2.02.2,4.56-.84,6.67Z"/>
      <path class="cls-43" d="m248,163.18c0-7.16-.01-14.33-.02-21.49.36-.19.64-.11.84.24v20.99c-.2.32-.48.41-.83.27Z"/>
      <path class="cls-39" d="m117.63.84c.02-.31.11-.59.29-.84h12.99c-.09.33-.04.63.18.9-4.5,2.57-8.98,2.64-13.46-.06Z"/>
      <path class="cls-45" d="m.85,139.71c-.1,2.1.96,4.35-.85,6.22v-6c.21-.36.5-.42.85-.22Z"/>
      <path class="cls-13" d="m248.83,141.93c-.27-.12-.55-.19-.85-.24-.04-1.94-.08-3.88-.12-5.82.32.02.64.04.96.06v6Z"/>
      <path class="cls-40" d="m0,163.92c1.65,1.51,1.09,3.4.89,5.23-.26-.22-.56-.3-.89-.23v-5Z"/>
      <path class="cls-92" d="m248,163.18c.3-.03.57-.11.83-.27v5l-.48-.09s-.45.16-.45.16c.03-1.6.07-3.2.1-4.81Z"/>
      <path class="cls-11" d="m.85,139.71c-.29.06-.57.13-.85.22v-5c.18-.37.46-.47.84-.3,0,1.69,0,3.38,0,5.08Z"/>
      <path class="cls-105" d="m211.08,153.81c-1.31.7.08,3.21-2.21,3.29-2.09.08-1.52-1.6-1.95-2.71-.36-.92-1.35-.66-2.16-.49-.28.84-.89,1.36-1.63,1.76-3.41,2.9-3.91,2.75-5.29-1.62-.33-.04-.66-.08-.98-.13-3.82,3.38-2.66,7.59-1.96,11.73.92.13,1.85.26,2.77.4,2.96,4.43,1.72,9.45,1.43,14.09-.38,6.24-.27,12.53-1.18,18.75-1.06,1.31-2.62,2.23-3.07,4-.93,2.68.15,5.46-.43,8.2-.34,1.6-.87,2.31-2.48,2.3-3.79-.03-7.57.04-11.36-.03-1.59-.03-2.6-.61-1.74-2.45,1.13-2.21,2.39-4.35,3.33-6.64.7-1.7,4.02-4.54-1.48-4.46-1.21.02-.79-1.6-.85-2.5-.29-4.56.8-8.94,2.25-13.19.67-1.96.35-3.02-1.64-2.88-6.3.43-5.49-3.31-4.4-7.24.52-1.88,1.16-3.74,1.8-5.78-1.54-.21-2.84-.46-4.15-.55-2.54-.19-4.04-.92-2.97-3.96.42-1.2,1.2-3.11-1.18-3.58-2.28-.46-1.86,1.6-2,2.62-.45,3.22-2.56,2.37-4.47,2.06-8.82-1.44-9.05-1.31-11.37,7-.17.6-.39,1.71-.57,1.71-7.68-.07-4.73,6.81-6.8,10.37-.31.54-.28,1.29-.36,1.95q-1.11,8.99-10.14,6.05c-1.08-.35-2.16-.68-3.66-.71,5.91,6.11,8.24,13.92,11.41,21.26-.38.28-.49.42-.61.43q-13.63,1.14-13.57-12.34c.03-17.98.09-35.95-.06-53.93-.03-3.33.69-4.56,4.34-4.55,35.28.14,70.56.14,105.84.02,3.33-.01,4.54.71,4.67,4.27.78,21.61-1.99,42.81-7.07,63.75-.24.99.18,2.61-1.47,2.78-1.47.16-1.59-1.15-1.36-2.04,1.84-7.2-4.36-12.87-3.47-20.12.85-6.89.21-13.96.17-20.95-.01-2.05-.16-4.07,2.75-4.12-.05-3.84,1.58-7.67-.02-11.51l-.15-.29c-.89-.31-1.47.16-1.99.78-.58.78-1.05,1.64-1.8,2.28-3.64,1.93-2.36-2.6-4.13-3.14-2.41-.37-2.47,2.21-3.88,3.09-2.63.69-4.3.02-4.26-3.04-1.49-.8-2.98.33-4.46,0Z"/>
      <path class="cls-10" d="m103.91,337.51c-7.49-4.26-14.79-8.78-21.14-14.68-1.47-2.57-1.46-5.39-1.46-8.23,0-55.66.02-111.33,0-166.99,0-1.81-.21-3.67.77-5.35,7.52-.02,15.05-.05,22.57-.07,1.17,1.99.91,4.2.91,6.34.01,60.3.02,120.6-.02,180.9,0,2.76.59,5.73-1.62,8.08Z"/>
      <path class="cls-102" d="m41.97,111.07c20.63.1,41.26.28,61.88.3,42.78.04,85.56.06,128.34-.1,3.54-.01,5.11,1.04,5.68,4.36.91,5.23,1.94,10.44,3.02,15.63.77,3.7-.15,5.05-4.37,5.03-42.28-.18-84.57-.11-126.85-.12-32.46,0-64.92-.09-97.38.09-4.13.02-5.22-1.17-4.38-4.98,1.06-4.85,2.22-9.7,2.82-14.61.53-4.39,2.54-6.07,6.82-5.34.78.13,1.63-.17,2.44-.28,1.39-1.56,3.28-1.43,5.11-1.53,5.14-.03,10.29-.48,15.4.44.55.28,1.04.64,1.46,1.09Z"/>
      <path class="cls-105" d="m103.91,337.51c0-62.99.01-125.98.04-188.97,0-2.14-.4-4.34.7-6.36,4.15-.05,8.34.14,12.47-.23,3.86-.35,4.69,1.11,4.67,4.77-.14,28.97-.07,57.94-.07,86.91,0,35.96-.08,71.93.08,107.89.02,4.51-1.11,5.23-4.84,3.12-4.31-2.44-8.7-4.76-13.05-7.13Z"/>
      <path class="cls-10" d="m45.74,284.86c-.92-1.59-1.83-3.18-2.75-4.77-.64-3.95-.66-7.93-.66-11.91.02-39.56,0-79.11.03-118.67,0-2.46-.46-5.01.84-7.33,7.51,0,15.01.02,22.52.02,1.19,1.99.85,4.2.85,6.34.01,49.95.03,99.89-.02,149.84,0,2.91.7,6.06-1.7,8.54-7.36-6.5-12.95-14.53-19.11-22.06Z"/>
      <path class="cls-105" d="m64.86,306.93c.04-52.79.08-105.57.14-158.36,0-2.14-.37-4.34.73-6.37,5.45.02,10.89.04,16.34.05.69,1.38.78,2.84.77,4.36-.04,58.74-.05,117.48-.08,176.22-6.71-4.47-12.63-9.83-17.91-15.91Z"/>
      <path class="cls-111" d="m117.63.84c4.49.02,8.97.04,13.46.06,17.66,1.46,34.96,17.31,38.74,35.5.44,2.11.8,4.23,1.2,6.34-2.84,3.03,1.78,5.29.85,8.12-.96,15.14-7.88,27.06-20.35,35.39-27,18.04-64.37,5.93-74.03-26.92-.81-2.74-.86-5.58-1.51-8.33-.77-.14-2.05-.46-1.05-1.3,2.25-1.89,2.23-4.21,2.01-6.7,1.87-9.25,4.55-18.16,10.8-25.57,7.86-9.33,17.61-15.24,29.89-16.58Z"/>
      <path class="cls-101" d="m205.83,230.93c1.91,19.53-3.97,29.63-22.01,37.75-9.44,4.25-18.56,9.04-26.27,16.07-14.58,13.3-15.32,27.4-2.33,42.29.97,1.11,3.05,2.06.49,3.78-7.99,5.35-16.21,10.28-25.86,14.45,0-2.49,0-4.4,0-6.3-.02-17.15.12-34.3-.17-51.45-.07-4.12,1.58-5.96,4.99-7.38,8.67-3.6,17.89-5.04,26.92-7.25,4.69-1.15,9.35-2.41,13.6-4.77,9.81-5.47,10.07-16.21.57-22.06-.7-.43-1.4-.85-2.09-1.28-1.77-1.1-4.74-1.69-4.48-4.02.27-2.47,2.73-3.76,5.39-4.06.79-.09,1.54-.55,2.32-.84,1.64-1.04,3.64.08,5.29-.87,5.02.8,9.31-1.42,13.68-3.31,3.12-2.95,6.53-3.2,9.97-.74Z"/>
      <path class="cls-105" d="m214.94,230.19c6.34-1.94,7.2.86,8.29,5.63,2.85,12.55-4.34,21.82-9.56,31.44-12.27,22.61-29.1,41.5-49.44,57.29-2.47,1.92-3.84,2.04-6.1-.32-11.7-12.14-10.26-26.93,3.99-38.21,6.93-5.48,14.51-9.96,22.67-13.26,16.38-6.63,28.85-20.98,25.36-40.78-.82-4.64,3.97-1.01,4.78-1.8Z"/>
      <path class="cls-105" d="m75.99,50.99c1.83.62,1.64,2.29,1.9,3.71,4.13,22.48,22.81,38.28,45.7,38.63,22.57.35,41.55-14.83,46.56-37.04.41-1.8-.08-4.04,1.73-5.44,17.09,4.48,32.8,11.56,45.02,24.77,5.48,5.92,10.86,12.06,12.91,20.24-3.09.56-4.44-2-5.99-3.72-11.04-12.27-24.87-19.84-40.5-24.45-6.47-1.91-6.42-1.66-9.34,4.31-8.98,18.37-24.4,27.85-44.17,30.04-18.32,2.03-34.6-3.13-47.73-16.65-4.11-4.23-7.38-9.06-9.47-14.56-1.29-3.39-3.15-4.12-6.52-3.08-15.03,4.63-28.68,11.5-39.73,23.03-2.08,2.17-3.68,5.31-7.4,5.34,3.08-9.27,9.19-16.49,16.03-23.12,10.94-10.6,24.2-17.07,38.77-21.06.77-.21,1.48-.63,2.22-.95Z"/>
      <path class="cls-105" d="m43.21,142.18c.94,1.69.73,3.55.73,5.37,0,42.44,0,84.89-.03,127.33,0,1.75.62,3.7-.91,5.21-6.58-9.33-12.08-19.24-16.13-29.93-1.12-4.21-1.55-8.47-1.54-12.83.05-28.98,0-57.96.07-86.94,0-2.89-.69-6.14,2.42-8.17,5.13-.01,10.26-.03,15.39-.04Z"/>
      <path class="cls-9" d="m27.81,142.22c-1.06,2.02-.74,4.21-.74,6.35-.01,32.21,0,64.42-.02,96.63,0,1.65-.12,3.31-.18,4.97-7.3-15.04-11.21-31.15-14.94-47.31-3.42-14.78-4.61-29.86-5.83-44.93.19-4.11.55-8.22.52-12.33-.02-2.9,1.21-3.58,3.88-3.49,5.76.19,11.54.1,17.31.12Z"/>
      <path class="cls-109" d="m18.97,96.12c1.7-.53,2.62-2.03,3.68-3.24,12.21-13.98,27.87-22.07,45.47-27.01,2.69-.76,3.82-.58,4.89,2.37,6.8,18.7,25.23,31.75,45.21,32.76,20.64,1.05,37.79-5.51,50.49-22.26,2.41-3.18,4.52-6.64,5.36-10.56.8-3.69,2.8-3.63,5.71-2.85,18.02,4.82,33.93,13.12,46.33,27.44,1.03,1.19,1.82,2.83,3.69,3.1,1,1.67,1.85,3.45,3.03,4.99,2.37,3.08.6,3.81-2.14,4.14-.46.25-.92.24-1.37-.02-5.51-6.4-10.24-13.41-17.14-18.66-8.89-6.76-18.65-11.48-29.2-14.87-3.49-1.12-4.77.66-6.13,3.26-7.65,14.66-19.73,23.95-35.37,28.84-3.03.95-6.12,1.61-9.33,1.41-5.8.61-11.6.8-17.4,0-11.13-.24-20.73-4.75-29.2-11.45-6.4-5.06-12.02-11.1-15.39-18.76-1.32-3.01-3.19-3.31-6-2.37-17.86,5.96-33.19,15.35-43.38,31.71.65,1.41,2.38.51,3.19,1.5.28,1.83,1.48,3.5,1,5.48-1.66.5-3.33.47-4.99,0-2.25-2.55-4.31-5.22-5.89-8.26-.58-1.12.42-1.04.76-1.31,1.84-1.45,3.12-3.3,4.12-5.38Z"/>
      <path class="cls-9" d="m181.52,231.77c-4.75-.3-9.08,1.05-12.95,3.66-1.44.97-2.9,2.3-2.68,4.44-2.31.84-4.64.65-6.98.1-7.21-2.47-14.49-3.5-22-1.39-1.11.31-2.3.38-3.45.42-1.94.08-4.88,1.07-5.54-.72-.91-2.49-.48-5.57-.24-8.36.14-1.66,1.82-.96,2.86-.95,2.83.02,5.62-.02,8.36-.94,4.88-1.63,9.87-1.62,14.69.06,7.45,2.61,14.61,2.22,21.77-1.06,4.88-2.23,10.05-1.96,15.17-.95,1.13.22,3.05.19,3.06,1.84.01,1.59-1.63,1.73-2.97,1.99-1.28.24-2.51.76-3.76,1.15-1.71.7-3.63-.14-5.32.7Z"/>
      <path class="cls-9" d="m127.48,262.02c-1.32-4.15,1.16-5.13,5.58-5.76,7.46-1.06,14.72-2.03,22.08.53,6.56,2.28,12.74.2,18.82-2.23,1.31-.53,2.8-1.61,4.07-.14,1.07,1.23.71,2.83.36,4.3-1.4,5.81-11.78,10.78-19.13,8.58-8.39-2.51-16.38-3.08-24.72.42-6.78,2.85-7.08,2.33-7.06-5.69Z"/>
      <path class="cls-8" d="m175.43,249.46c-8.34,4.34-15.87,5.29-23.87,2.47-6.38-2.24-12.78-.36-19.16.56-1.9.27-5.26,1.89-4.83-2.36.27-2.73-2.34-6.22,3.95-7.35,11.45-2.06,22.39-.17,33.41,1.5,3.46.53,6.6,3.18,10.5,5.18Z"/>
      <path class="cls-8" d="m161.12,218.93c9.97,0,19.93,0,29.9,0,1.62,0,3.63-.49,3.36,2.22-.29,2.87-2.12,1.12-3.31.94-6.34-.97-12.55-1.02-18.54,1.79-5.35,2.51-10.92,2.73-16.49.83-6.35-2.16-12.63-2.27-19.06-.29-2,.62-4.26.36-6.4.54-2.36.2-3.14-.8-3.16-3.18-.02-2.56,1.12-2.96,3.32-2.94,10.13.08,20.27.04,30.4.04,0,.02,0,.03,0,.05Z"/>
      <path class="cls-93" d="m161.59,194.6c-4.08-.93-7.94-2.01-11.86-2.62-2.69-.42-3.21-1.74-2.92-4.09.45-3.78.16-9.37,3.06-10.47,4.02-1.53,8.94,1.23,13.43,2.38,1.55.4.74,1.64.49,2.44-1.23,3.98-1.75,8.08-2.19,12.36Z"/>
      <path class="cls-96" d="m23.98,106.1c-1.56-.71-3.69.97-4.91-1.16,2.15-1.55,4.64-1.61,7.15-1.61,24.72-.01,49.44.06,74.15-.06,4.48-.02,8.79,1.95,13.3.87,6.47.98,12.94.91,19.41-.06,4.67.95,9.17-.83,13.81-.81,25.09.12,50.17.05,75.26.06,2.67,0,5.34-.02,7.66,1.62.3-.02.59,0,.89.04-1.64,1.74-3.77.94-5.66.95-38.37.09-76.74.13-115.11.17-.34.37-.68.35-1.01,0-2.64,0-5.29,0-7.93,0-.36.31-.73.31-1.1,0-3.98,0-7.97,0-11.95,0-.68.43-1.36.52-2.04,0-7.65,0-15.29,0-22.94,0-1.01.7-2.01.69-3.01,0-4,.09-8.07-.94-11.96.8-1.23.06-2.47.02-3.7.1-1.55.29-3.11.29-4.68.31-1.4.02-2.8.03-4.21.04-3.84-.16-7.82,1.03-11.43-1.24Z"/>
      <path class="cls-98" d="m165.89,211.84c-2.66,0-5.33-.01-7.99-.02-.22-.43-.38-1.2-.76-1.16-.54.05.13.82-.27,1.16-.65.07-1.3.18-1.96.19-11.3.23-11.59,0-14.72-11.8,3.69.62,7.21,1.21,10.73,1.81,1.68.88,3.62-.08,5.3.76.55.04,1.11.08,1.66.12,2.73,1.55,5.58,1.01,8.5.69,1.48-.16,3.68-1.36,4.4,1.16.68,2.38-.98,3.44-2.94,4.11-.47.16-.94.26-1.43.24-.62-.24.18.04-.44-.2-.46-.17-.91-.34-1.38-.48.36.27.84.2,1.23.43,1.63.96,1.74,1.95.08,2.98Z"/>
      <path class="cls-108" d="m165.89,211.84c.64-.98.59-1.97,0-2.95h0c.81-.55,1.6-1.54,2.42-1.57,2.26-.08.15-2.4,1.6-2.74-.72-1.39-2.06-.82-2.84-.49-3.35,1.43-6.47,2.01-9.17-1.19,6.11.09,12.23.25,18.34.25,2.24,0,2.94.37,2,2.8-2.46,6.35-2.59,6.51-12.34,5.88Z"/>
      <path class="cls-6" d="m154.13,270.47c-9.5,2.23-18.19,4.12-26.31,8.83-.68-3.63-1.12-6.11,3.49-6.62,3.38-.37,6.64-1.9,9.95-2.94,4.09-1.29,8.12-1.3,12.87.72Z"/>
      <path class="cls-3" d="m178.64,184.41c-.57,3.08-1.27,6.14-1.66,9.23-.24,1.87.07,3.72-2.86,3.18-2.3-.42-4.86-.23-4.19-3.83.18-.97.09-1.99.22-2.97q.95-7.49,8.49-5.61Z"/>
      <path class="cls-1" d="m165.73,167.88c-1.62,3.83-.11,9.74-7.14,7.05-2.13-.82-4.77-.58-3.75-4.2,1.93-6.84,6.55-2.41,10.89-2.85Z"/>
      <path class="cls-31" d="m197.92,198.88c-.08-10.95-.17-21.89-.25-32.84.67.27,1.35.54,2.02.81.94.62,1.03,1.57,1.01,2.56-.36,2.73-1.6,5.57,1.02,7.91.85,1.06-.02,1.86-.39,2.74-.05,1,.86,1.32,1.36,1.92.98,1.23,1.27,2.5.26,3.85-5.87.18-4.44,3.64-3.15,7.03.66.71.57,1.4-.06,2.08-1.47.91-.25,3.06-1.82,3.93Z"/>
      <path class="cls-49" d="m224.74,221.93c-3.66-1.6-1.96-4.79-1.98-7.34,0-1.1,1.55-.93,2.52-.77,2.94.5,4.71,2.42,5.48,5.14.65,2.28-.92,2.88-2.82,2.97-1.07.87-2.13.86-3.2,0Z"/>
      <path class="cls-27" d="m202.09,178.1c-5.7-1.46-3.14-5.06-2.14-8.25,1.72-1.25,3.37-1.44,4.92.28-.33.54-.67,1.08-1,1.62-.28.74-1.16.97-1.37,1.7.82.26,1.55-.1,2.31-.17.7-.04,1.34.12,1.88.57,2.08,2.66,1.43,4.33-1.83,5.05-.99-.04-2.02.05-2.77-.81Z"/>
      <path class="cls-66" d="m222.81,194.03c-1.97-.22-4.15.57-4.08-2.44.05-1.96,1.05-2.48,2.79-2.46,2.33.02,4.62.6,4.73,3.16.11,2.57-2.57.91-3.45,1.73Z"/>
      <path class="cls-56" d="m206.08,219.91c-4.19,1.82-7.8,1.58-10.19-2.92,2.64-1.92,5.67-.69,8.47-.83,2-.1,2.24,1.97,1.71,3.75Z"/>
      <path class="cls-25" d="m178.84,210.9c-.37,1.93.76,2.13,2.28,2.1,3.31-.06,6.64-.2,9.93.04,2.7.2,3.38-.82,3.34-3.35-.03-2.25-.7-4.61.47-6.81.24,1.06-.09,2.33,1.09,3.06.73,1,.73,1.99-.07,2.95-.6,4.53-3.32,5.68-7.54,5.11-2.62-.35-5.32,0-7.98-.11-2.1-.08-3.37-.8-1.52-2.99Z"/>
      <path class="cls-99" d="m168.42,173.74c.58-1.58-.03-4.06,2.89-3.61,1.21.19,3.19.27,2.17,2.14-.87,1.61.74,4.8-2.79,4.79-2.4,0-2.43-1.64-2.27-3.33Z"/>
      <path class="cls-57" d="m201.96,214.71c-.02-1.64-.1-3.28-.05-4.91.04-1.2-.45-2.84,1.66-2.83,1.82.01,2.01,1.34,2.05,2.72.04,1.64.05,3.27.07,4.91-1.2,1.49-2.45,1.38-3.73.11Z"/>
      <path class="cls-65" d="m204.87,170.13c-1.64-.09-3.28-.19-4.92-.28-.09-1-.17-2-.26-2.99,1.51-1.55,3.4-.93,5.16-.85,1.35.06,2.76.33,2.84,2.09.08,1.98-1.66,1.66-2.82,2.04Z"/>
      <path class="cls-64" d="m224.74,221.93c1.07,0,2.13,0,3.2,0,.5,1.74,3.06,3.17,1.16,5.22-1.08,1.17-2.82,1-4.14.07-2.28-1.61-.89-3.49-.22-5.29Z"/>
      <path class="cls-52" d="m225.96,207.8c1.09.38,3.5-.75,3.71,1.66.24,2.83-2.34,2.2-3.98,2.35-1.38.13-3.32.41-3.23-1.88.07-1.85,1.41-2.47,3.5-2.13Z"/>
      <path class="cls-68" d="m220.96,199.95c-3.63,0-6.18.02-8.72,0-1.05-.01-2.02-.24-1.94-1.6.06-.99.74-1.41,1.66-1.42,2.87-.01,5.79-.13,9.01,3.02Z"/>
      <path class="cls-70" d="m210.01,163.98c-1.32-.2-3.12.57-3.16-1.88-.04-2.47,1.59-2.56,3.28-2.33,1.39.19,3.6-.88,3.72,1.8.12,2.91-2.27,2.06-3.83,2.41Z"/>
      <path class="cls-53" d="m222.67,178.31c-1.6-.41-3.87.4-3.9-2.54-.02-1.99,1.14-2.07,2.58-1.92,2.04.21,4.39.71,4.67,2.86.26,2.08-2.12,1.18-3.35,1.61Z"/>
      <path class="cls-112" d="m205.83,230.93c-3.57-3.04-6.76-.96-9.97.74.33-1.21.66-2.43.99-3.64.62-.66,1.29-.75,2.01-.15,1.69,1.45,3.37,1.49,5.02-.07,1.03-.71.95-2.17,1.96-2.9.14-.46.15-1.02.44-1.35.36-.41.85-.27.9.35.21,2.46-.07,4.84-1.36,7.01Z"/>
      <path class="cls-109" d="m35.93,106.11c1.37,0,2.73,0,4.1-.01,1.63.76,3.26.77,4.89,0,1.11-.07,2.3-.42,3.08.8-1.84,1.64-5.26,1-6.03,4.18-.33,0-.66,0-.99,0-.93-1.78-2.85-1.33-4.3-1.96-1.33-.58-3.16-1.34-.74-2.99Z"/>
      <path class="cls-59" d="m202.96,185.84c-.35-1.3-.7-2.6-1.05-3.9.38-.41.86-.65,1.41-.72,1.79.59,3.79-.41,5.5.75,1.03,5.82-3.36,3.41-5.87,3.87Z"/>
      <path class="cls-107" d="m167.02,189.39v8.45c-.57-.02-1.15-.04-1.72-.06-1.05-3.93-.55-7.88.72-11.84,2.36.57,1.02,2.2,1,3.45Z"/>
      <path class="cls-4" d="m219.3,208.75c-3.54,1.96-7.24.81-10.87,1.19,3.41-2.68,7.17-1.87,10.87-1.19Z"/>
      <path class="cls-82" d="m208.68,197.97c-1.88,2.65-3.2,4.39-5.69,3.78-1.03-.25-1.59-1.69-1.18-2.43,1.51-2.65,3.97-1.08,6.87-1.35Z"/>
      <path class="cls-55" d="m220.83,170.76c-3.11-.03-5.43,1.21-7.4-.63-.52-.49-.31-1.79.67-2,2.28-.5,4.51-.47,6.73,2.63Z"/>
      <path class="cls-33" d="m201.96,214.71c1.24-.04,2.49-.07,3.73-.11.76,1.72,2.05,3.41.39,5.3.23-2.16-.44-3.43-2.91-3.24-2.42.19-4.85.22-7.27.32.32-.71.65-1.41.97-2.12.94-.76,1.91-.87,2.91-.14.74,1.14,1.46,1.11,2.18-.02Z"/>
      <path class="cls-69" d="m225.6,173.53c-1.87-1.59-1.86-3.16-2.27-4.54-.34-1.16-1.13-2.78,1.11-2.85,1.49-.05,2.51.92,2.29,2.51-.22,1.58-.71,3.12-1.13,4.88Z"/>
      <path class="cls-74" d="m217.26,180.66c-.7.09-1.47.34-2.19.25-1.69-.22-3.68.96-4.99-.88-.23-.32.1-1.53.45-1.69,1.76-.78,3.54-.34,5.25.34.76.3,1.56.61,1.48,1.97Z"/>
      <path class="cls-30" d="m209.92,189.67h-10.11c4-2.47,7.03-1.75,10.04-1.33.03.44.05.88.08,1.33Z"/>
      <path class="cls-18" d="m194.9,165.64c-1.41-3.44-.49-7.01-.57-10.52-.04-1.59,1.3-1.58,2.53-1.2-1.32,3.8-2.2,7.67-1.96,11.73Z"/>
      <path class="cls-14" d="m222.02,205.63c-1.98-.31-2.03-1.61-2.02-2.95,0-1.53.93-1.93,2.23-1.79,1.55.17,1.57,1.33,1.56,2.51,0,1.35-.67,2.07-1.77,2.22Z"/>
      <path class="cls-86" d="m199.74,194.95c.02-.69.04-1.39.06-2.08,2.61-.33,5.21-.67,7.64,1.71-2.73.77-5.15,1.51-7.7.37Z"/>
      <path class="cls-19" d="m215.16,164.49c3.33-2.1,6-1.9,8.79,0h-8.79Z"/>
      <path class="cls-76" d="m214.99,186.03c-.28.97.53,2.76-1.24,2.54-1.83-.23-1.58-2.13-1.68-3.54-.07-.99-.06-2.18,1.23-2.2,2.48-.04,1.25,2.06,1.69,3.2Z"/>
      <path class="cls-5" d="m177.19,200.72c-3.29.18-6.18.57-9.29-.36q3.36-1.99,9.29.36Z"/>
      <path class="cls-83" d="m229.87,160.04c-3.14,1.41-5.04,3.03-7.75.44,2.25-1.29,4.24-1.59,7.75-.44Z"/>
      <path class="cls-21" d="m231.75,154.13c1.13,3.83,1.04,7.67.02,11.51-.35-.27-.7-.53-1.05-.8-.71-.98-.68-1.94.06-2.89,1.79-2.42.37-5.25.98-7.82Z"/>
      <path class="cls-44" d="m197.84,154.04c1.73.24-.01,3.03,2.29,3,2.19-.03,1.15-1.95,1.86-2.78.66-.77,1-.01,1.33.49.4.71-.03,1.4-.07,2.1-.1.67-.21,1.34-.31,2-1.38,1.2-2.76,1.2-4.14.02-.84-1.5-1.26-3.09-.96-4.82Z"/>
      <path class="cls-88" d="m211.08,153.81c1.49-.9,2.98-.99,4.47,0-2.35.29.51,3.49-1.95,3.58-2.5.09-1.01-2.84-2.52-3.58Z"/>
      <path class="cls-100" d="m167.02,189.39c-.27-1.17.13-2.53-1-3.45.74-2.18.01-5.22,4.38-6.4-2.23,3.56-2.24,6.85-3.38,9.85Z"/>
      <path class="cls-60" d="m203.32,163.68c-2.46.56-4.78.75-7.47-.15,3.63-2.15,3.84-2.14,7.47.15Z"/>
      <path class="cls-71" d="m219.81,156.85c-.2-2.91.5-4.69,3.88-3.09-.91,1.51-.12,5.16-3.88,3.09Z"/>
      <path class="cls-109" d="m59.95,106.1c1,0,2.01,0,3.01,0-.29,1.13,1.45,2.22.34,3.16-.61.51-2,.57-2.83.27-1.95-.71-.37-2.26-.53-3.43Z"/>
      <path class="cls-50" d="m227.32,235.27c.06-1.88-2.13-3.96.17-5.71.33-.25,1.66.09,1.7.31.37,2-.38,3.73-1.88,5.39Z"/>
      <path class="cls-16" d="m217.32,204.27c-3.03.71-5.2,1.53-7.24-1.08,2.42-.32,4.55-.89,7.24,1.08Z"/>
      <path class="cls-85" d="m199.91,173.75c.05-3.17,2.68-1.25,3.96-2.01,1.15.42,2.55.51,2.82,2.11-.62.08-1.24.16-1.86.24-1.67.28-3.36.84-4.92-.34Z"/>
      <path class="cls-29" d="m198.8,158.86c1.38,0,2.76-.01,4.14-.02.7.18,2.09.6,1.95.67-2.36,1.11-4.84,2.27-7.22,0-.03-.03.09-.33.19-.38.3-.13.63-.19.95-.27Z"/>
      <path class="cls-54" d="m195.88,208.89c.02-.98.04-1.97.07-2.95,1.4.16,3.69-.85,3.42,1.79-.21,2.02-2.17,1.17-3.48,1.17Z"/>
      <path class="cls-78" d="m213.97,176.36c-1.24-.41-1.71-1.49-1.83-2.59-.13-1.19.93-1.08,1.7-1.04,1.14.06,1.86.62,1.45,1.86-.23.69-.25,1.63-1.32,1.76Z"/>
      <path class="cls-51" d="m202.09,178.1c.95.19,2.05-.16,2.77.81-.32.36-.63.72-.95,1.08-.64.71-1.48,1.07-2.36,1.35-.94,0-1.93.1-1.87-1.31.16-1.45,1.66-1.23,2.42-1.92Z"/>
      <path class="cls-46" d="m153.68,199.17c-2.35-.34-4.82.14-7.02-1.13.8-1.17,2.25-.22,3.17-.97,1.66.31,3.32.62,4.98.94.24.99-.1,1.41-1.13,1.17Z"/>
      <path class="cls-58" d="m214.85,192.99c-.33,1.05-1.17,1.05-1.99.9-1.08-.19-1.15-1.05-.97-1.9.23-1.09,1.11-1.09,1.94-.92,1.06.21,1.1,1.06,1.02,1.92Z"/>
      <path class="cls-75" d="m198.86,227.89c-.67.05-1.34.1-2.01.15-.44-1.08-1.66-2.59.27-3.03,2.44-.55,1.84,1.48,1.74,2.88Z"/>
      <path class="cls-97" d="m219.96,160.9c-.26,1.02-.94,1.24-1.83.92-.89-.33-1.22-1.08-1.01-1.95.24-.99,1.06-1.18,1.9-.94.99.28.97,1.15.93,1.98Z"/>
      <path class="cls-72" d="m199.78,214.73c-.97.05-1.94.09-2.91.14-.03-1.14-.92-2.77,1.15-2.88,1.83-.09,1.63,1.52,1.76,2.74Z"/>
      <path class="cls-95" d="m153.68,199.17c.38-.39.76-.78,1.13-1.17,1.71.37,3.42.75,6.45,1.41-3.47.73-5.54.87-7.59-.24Z"/>
      <path class="cls-79" d="m203.25,156.84c.02-.7.05-1.4.07-2.1.23-.7.53-1.29,1.44-.84.26,1,1.6,1.74.9,2.94-.7,1.18-1.59.24-2.4.01Z"/>
      <path class="cls-108" d="m156.88,211.83c-.88-.57-1.76-1.14-2.64-1.71,1.23.58,4.71-3.2,3.67,1.71-.34,0-.68,0-1.02,0Z"/>
      <path class="cls-109" d="m99.89,106.1c.37,0,.73,0,1.1,0,.37.93,2.25,1.03,1.44,2.58-.31.6-.9.93-1.56.54-1.21-.73-1.88-1.68-.98-3.11Z"/>
      <path class="cls-85" d="m225.25,185.86c1.06.12,1.53.67,1.48,1.63-.03.69-.22,1.34-1.08,1.25-1.13-.11-1.77-.78-1.72-1.94.04-.87.77-.87,1.31-.95Z"/>
      <path class="cls-31" d="m201.73,180.8c.58-.66,1.31-.93,2.18-.81,1.17,1.83,3.82-.01,4.92,1.99-2.01-.07-4.03-.14-6.04-.22-.37-.3-.97-.35-1.06-.96Z"/>
      <path class="cls-84" d="m211.72,167.47c-.09.42-.03,1.18-.93,1.17-1.16-.01-1.71-.68-1.75-1.79-.04-.88.63-1.06,1.26-1.06.91.01,1.44.54,1.43,1.68Z"/>
      <path class="cls-91" d="m142.99,197.72c-1.7.38-3.09-.46-4.9-1.23,1.93-.93,3.4-.66,4.81.38.32.16.44.34.36.54-.09.21-.18.31-.28.31Z"/>
      <path class="cls-73" d="m201.32,202.65c-.76.71-1.16,1.42-1.6,1.44-1.13.06-1.45-1.03-1.75-1.86-.23-.64.15-1.41.91-1.17.8.25,1.47.93,2.44,1.59Z"/>
      <path class="cls-87" d="m229.65,203.84c-.11.97-.6,1.9-1.38,1.83-.53-.05-1.15-1.04-1.42-1.73-.27-.7.25-1.2,1.05-1.18.82.02,1.65.05,1.74,1.08Z"/>
      <path class="cls-106" d="m142.99,197.72c.08-.29.05-.58-.08-.85,2.32-.22,4.64-.4,6.94.2-.82,1.1-2.15.54-3.17.97-1.23-.11-2.45-.22-3.68-.33Z"/>
      <path class="cls-109" d="m108.92,106.1c.34,0,.67,0,1.01,0,.39.97.8,1.93,1.11,2.93.02.05-.89.62-1.16.5-1.56-.74-.73-2.25-.97-3.43Z"/>
      <path class="cls-47" d="m230.78,161.95c-.02.96-.04,1.92-.06,2.89-1.44.15-2.28-.56-2.19-1.94.1-1.52,1.34-.99,2.25-.94Z"/>
      <path class="cls-77" d="m228.89,153.7c.94-.49,1.86-.79,2.72.15-1.82.33.68,3.29-1.92,3.14-.8-.97-.86-2.12-.8-3.29Z"/>
      <path class="cls-112" d="m158.9,239.97c2.33-.03,4.65-.07,6.98-.1-2.3,1.67-4.63,1.49-6.98.1Z"/>
      <path class="cls-111" d="m69.78,44.76c3.17,1.97,1.07,2.69-.49,4.1-1.27-2.05,1.3-2.67.45-4.07,0,0,.05-.04.05-.04Z"/>
      <path class="cls-109" d="m85.9,106.1c.68,0,1.36,0,2.04,0-.26,1.17-.33,2.97-1.68,2.83-1.06-.11-.99-1.75-.36-2.84Z"/>
      <path class="cls-80" d="m224.23,198.9c-.72-.01-1.3-.22-.88-1.07.27-.53.86-1.41,1.12-1.35.75.18,1.46.79,1.28,1.73-.15.81-.92.66-1.52.68Z"/>
      <path class="cls-48" d="m205.85,224.92c.42,1.7.71,3.3-1.96,2.9-.2-1.54-.5-3.16,1.96-2.9Z"/>
      <path class="cls-89" d="m228.89,153.7c1.25.86.77,2.14.8,3.29-.62-.03-1.25-.06-1.87-.09.29-1.09-.74-2.62,1.08-3.2Z"/>
      <path class="cls-108" d="m156.23,202.79c-1.79-.08-3.71.73-5.3-.76,1.82-.08,3.64-.23,5.3.76Z"/>
      <path class="cls-112" d="m181.52,231.77c1.69-.88,3.51-.78,5.32-.7-1.62,1.4-3.52.67-5.32.7Z"/>
      <path class="cls-112" d="m182.17,234.98c-1.65.99-3.48.86-5.29.87,1.54-1.64,3.49-.79,5.29-.87Z"/>
      <path class="cls-67" d="m224.75,183.58c-.8-.51-.72-1.11-.39-1.65.28-.45.51-1.36,1.32-.7.39.32,1.23.75.58,1.46-.39.43-1.04.63-1.51.89Z"/>
      <path class="cls-36" d="m174.01,152.46c5.31,1.48,8.55-1.78,12.68-1.6-3.37,3.54-6.76,5.84-12.68,1.6Z"/>
      <path class="cls-32" d="m139.87,167.83q-2.39,2.02-7.08.37c1.55-2.29,4.08-.38,5.91-1.41,1.14-.49,1.29.13,1.17,1.05Z"/>
      <path class="cls-41" d="m143.91,153.95c-2.43,3.89-4.38.76-6.52-.84,1.79-.09,3.58-.17,5.38-.26,1.13-.41,1.34.13,1.14,1.1Z"/>
      <path class="cls-7" d="m139.87,167.83c-.39-.35-.78-.7-1.17-1.05,1.12-1.25,2.44-1.26,3.95-.67-.62,1.18-1.79,1.29-2.78,1.71Z"/>
      <path class="cls-20" d="m143.91,153.95c-.38-.37-.76-.73-1.14-1.1.69-.37,1.38-.74,2.07-1.12,1.02-.31,2.09-.72,1.91,1.09-.95.38-1.89.75-2.84,1.13Z"/>
      <path class="cls-81" d="m146.75,152.82c-.23-1.08-1.21-.84-1.91-1.09,1.06-.92,2.4-1.38,3.33-.25.49.6-.49,1.32-1.41,1.33Z"/>
      <path class="cls-23" d="m135.12,125.09c1.25,1.8,2.48,3.34,3.44,5.05.55.98.82,2.37-.43,3.11-1.28.76-2.2-.18-2.87-1.18-1.12-1.64-2.13-3.35-3.24-4.99-.71-1.06-1.82-1.51-3.04-1.28-1.76.33-.9,1.83-1.06,2.83-.13.81-.05,1.66-.05,2.49,0,1.34-.59,2.32-1.98,2.26-1.06-.04-1.8-.83-1.81-1.98-.02-4.65-.02-9.3.01-13.95,0-.46.18-1.13.51-1.33,3.21-2.03,6.75-.95,10.13-.78,2.13.11,3.57,1.76,4.01,3.87.65,3.11-1.13,4.94-3.63,5.88Z"/>
      <path class="cls-24" d="m116.9,125.29c.55.65.78.89.98,1.16,1.51,2.01,4.9,4.55,2.21,6.51-2.73,1.98-3.35-2.51-4.81-4.16-1.21-1.37-2.03-3.4-4.14-2.96-2.46.5-.96,2.73-1.18,4.16-.23,1.47.08,3.34-1.92,3.39-2.03.06-2-1.76-2-3.29,0-3.82.08-7.64-.02-11.45-.07-2.58,1.09-3.65,3.58-3.55,1.49.06,2.99.06,4.48,0,3.08-.11,5.72.69,6.64,3.94.89,3.15-1.11,4.93-3.81,6.26Z"/>
      <path class="cls-38" d="m102.96,124.44c-.2,6.02-3.32,9.29-8.76,9.16-5.1-.12-8.9-4.17-8.84-9.42.07-5.84,3.69-9.42,9.33-9.23,5.5.19,8.46,3.59,8.27,9.48Z"/>
      <path class="cls-37" d="m46.39,123.86c0-.33-.07-.68,0-.99.77-2.94-2.4-7.82,4.25-7.83,7.61-.01,10.87,2.07,11.28,7.94.45,6.41-1.81,9.48-7.38,10.02q-8.12.79-8.16-9.14Z"/>
      <path class="cls-28" d="m142.05,123.9c-.02-8.83,2.74-10.89,11.75-8.8,1.03.24,2,.49,1.87,1.79-.12,1.16-1.14,1.02-1.91,1.04-1.99.06-3.99,0-5.98.05-1.53.03-1.84,1.03-1.9,2.35-.08,1.64.85,1.72,2.15,1.93,2.28.36,6.5-1.29,6.43,1.33-.09,3.38-4.25,1.32-6.59,1.66-1.91.28-1.9,1.29-2.02,2.71-.16,1.95.89,2.16,2.42,2.13,1.99-.05,3.99,0,5.98.05.94.02,1.56.54,1.6,1.52.04,1.14-.8,1.24-1.65,1.3-3.3.23-6.58.45-9.9.05-1.75-.21-2.25-1.09-2.25-2.61,0-2.16,0-4.32,0-6.48Z"/>
      <path class="cls-37" d="m183.9,124.11c0-9.07,2.54-11.04,11.52-9.03,1.09.24,2.04.7,2.01,1.73-.04,1.39-1.39,1.1-2.31,1.13-1.83.05-3.66.08-5.48,0-1.64-.07-1.88.81-1.88,2.17,0,1.4.39,2.2,1.95,2.1,1.16-.07,2.33-.1,3.48.02,1.34.14,3.56-.6,3.42,1.64-.13,1.97-2.28,1.29-3.64,1.44-.82.09-1.66.07-2.49,0-1.78-.14-2.72.32-2.76,2.42-.04,2.18,1.04,2.2,2.71,2.41,2.44.31,6.92-1.43,6.88,1.31-.06,3.21-4.53,1.65-7.03,1.73-6.38.21-6.39.03-6.39-9.06Z"/>
      <path class="cls-38" d="m213.12,130.63c1.93-4.47,3.9-9.71,6.47-14.64,1-1.92,3.28-1.56,4.25.64,2,4.5,3.84,9.08,5.69,13.65.46,1.14.47,2.31-.9,2.95-1.53.71-1.98-.55-2.62-1.47-2.86-4.17-6.21-4.06-9.38.33-.58.81-1.11,1.73-2.32,1.22-.81-.34-1.31-.98-1.19-2.67Z"/>
      <path class="cls-34" d="m24.69,124.4c-.01,2.45.32,4.84,3.07,5.64,2.48.71,4.56.1,5.66-2.6.47-1.15,1.42-2.06,2.72-1.12,1.17.85.71,2.06.2,3.16-1.65,3.59-6.53,5.14-10.81,3.32-3.74-1.59-4.83-4.92-4.85-8.54-.03-3.87,1.34-7.16,5.36-8.69,3.21-1.22,6.26-.91,8.84,1.35,1.16,1.02,2.79,2.68,1.5,4.21-1.83,2.16-2.72-.37-3.69-1.43-1.36-1.49-2.87-2.3-4.85-1.49-2.8,1.14-3.14,3.6-3.15,6.19Z"/>
      <path class="cls-37" d="m165.54,128.9c1.63-4.67,2.88-8.24,4.13-11.81.39-1.12.83-2.47,2.32-2.01,1.5.46,1.71,1.56,1.08,3.14-1.71,4.3-3.17,8.7-4.77,13.04-.49,1.33-1.43,2.34-2.95,2.23-1.25-.09-2.02-.95-2.47-2.16-1.54-4.19-3.22-8.33-4.67-12.55-.43-1.27-1.2-3.17.99-3.7,1.71-.41,2.15,1.18,2.57,2.43,1.16,3.43,2.28,6.87,3.77,11.38Z"/>
      <path class="cls-26" d="m77,115.08c1.82,0,3.64,0,5.47,0,1.13,0,1.98.64,2.08,1.65.11,1.23-1.03,1.78-2,1.64-3.9-.55-3.78,1.88-3.68,4.55.1,2.65-.01,5.3.03,7.95.02,1.32-.47,2.44-1.78,2.52-1.67.11-2.14-1.16-2.13-2.65.02-2.15.02-4.31,0-6.46-.03-2.95,1.16-6.73-4.23-6-.74.1-1.69-.74-1.4-1.65.2-.62,1.07-1.39,1.7-1.45,1.97-.19,3.97-.07,5.95-.07,0-.01,0-.03,0-.04Z"/>
      <path class="cls-42" d="m207.23,121.99c.94-1.98-1.79-6.61,2.04-6.63,3.82-.02,1.61,4.49,1.94,6.96.3,2.25.03,4.64-.41,6.89-.64,3.28-3.11,4.54-6.23,4.36-3-.17-4.79-1.97-5.42-4.88-.22-1.01-.12-2.02.98-2.53.82-.38,1.73-.29,2.16.56.85,1.65,1.02,4.53,3.81,3.12,2.01-1.02.98-3.56,1.14-5.46.05-.66,0-1.32,0-2.39Z"/>
      <path class="cls-110" d="m35.93,106.11c-1,2.68,1.04,2.39,2.36,2.11,2.71-.58,2.66,1.09,2.68,2.84-5.33.5-10.66.52-15.99,0-1.1-1.5-2.9-2.85-1-4.95,3.98,0,7.97,0,11.95,0Z"/>
      <path class="cls-35" d="m179.9,124.39c0,2.15-.04,4.29.02,6.44.04,1.3-.31,2.41-1.66,2.56-1.37.15-2.12-.84-2.13-2.16-.04-4.62-.07-9.24,0-13.86.02-1.2.6-2.31,2.04-2.33,1.62-.02,1.71,1.23,1.71,2.43.01,2.31,0,4.62,0,6.93Z"/>
      <path class="cls-17" d="m42.78,131.43c-.34,1.42-1.01,2.23-2.13,2.08-.98-.13-1.75-.79-1.73-2.02.02-1.36.85-1.61,1.96-1.61,1.27,0,1.63.83,1.89,1.55Z"/>
      <path class="cls-90" d="m65.39,133.65c-1.42-.42-2.25-.97-2.18-2.16.07-1.24.95-1.61,2.07-1.61,1.27,0,1.74.66,1.71,1.87-.03,1.35-1.23,1.29-1.6,1.9Z"/>
      <path class="cls-62" d="m131.4,88.37c4.07-13.75.8-26.61-4.54-39.15-.91-2.14-.85-3.65.7-5.35,2.23-2.44,3.91-5.37,7.08-7.76,8.34,14.89,13.09,30.06,7.21,46.93-1.35,3.87-2.51,4.34-10.45,5.33Z"/>
      <path class="cls-61" d="m155.29,18.51c-13.43,3.1-22.48,12.14-30.63,22.4-2.27,2.86-12.1,3.59-14.85,1.18-1.21-1.06-.21-1.82.22-2.5,7.62-12.33,17.24-22.33,31.62-26.62,7.15-2.13,8.9-1.38,13.64,5.54Z"/>
      <path class="cls-61" d="m126.33,61.05c-14.31.19-27.46-2.74-38.81-11.69-7.01-5.53-7.32-6.93-4.13-16.13,10.25,9.97,23.09,13.25,36.6,14.81,1.29.15,2.24.64,2.69,1.84,1.35,3.53,3.3,6.88,3.66,11.17Z"/>
      <path class="cls-61" d="m146.58,82.55c4.46-17.58.26-32.58-7.53-47.03-2.87-5.32,3.17-5.35,5.3-7.53,2.39-2.45,3.33.37,4.19,1.97,7.15,13.23,10.81,27.06,7.37,42.18-1.1,4.83-4.13,7.65-9.33,10.4Z"/>
      <path class="cls-62" d="m81.42,49.49c9.82,9.16,21.17,13.41,33.6,15.04,3.29.43,6.65.26,9.95.6,5.57.58,3.07,5.26,3.82,8.16.82,3.17-1.72,2.86-3.72,2.84-12.57-.13-24.32-2.99-34.96-9.99-5.71-3.75-9.16-8.55-8.69-16.66Z"/>
      <path class="cls-61" d="m142.26,8.43c-16.33,4.83-26.97,15.16-35.36,28.29-.87,1.37-1.07,3.95-3.55,3.41-2.92-.63-5.72-1.85-8.04-3.78-.96-.79.05-1.84.54-2.65,7.46-12.19,16.83-22.2,30.55-27.5,5.53-2.14,10.29-.77,15.85,2.22Z"/>
      <path class="cls-63" d="m161.04,54.93c-1.11-9.33-4.2-18.01-8.53-26.31-.67-1.29-3.27-3.12-.3-4.35,2.14-.88,4.74-2.63,6.84.94,7.49,12.68,10.66,25.64,3.7,39.62-2.71-.56-1.02-2.64-1.29-3.99-.39-1.92.31-3.97-.43-5.91Z"/>
      <path class="cls-63" d="m89.83,71.79c1.37.26,2.06.23,2.59.51,10,5.34,20.72,7.69,31.99,7.89,1.43.03,3.8-.75,3.56,2.02-.19,2.21-.24,4.71-3.25,5.46-11.05,2.74-28.11-4.76-34.89-15.88Z"/>
      <path class="cls-62" d="m117.73,5.86c-10.33,5.65-17.87,14.12-24.29,23.8-.81,1.22-.94,4.83-3.97,2.61-2.24-1.64-4.18-3.3-2.12-6.93,6.41-11.29,15.85-18.03,28.49-20.5.99-.32,2.05-.76,1.89,1.03Z"/>
      <path class="cls-15" d="m161.04,54.93c2.2,3.02-.43,6.87,1.72,9.9-.3.73-.61,1.47-.91,2.2-.27,0-.54-.02-.8-.03v-12.07Z"/>
      <path class="cls-12" d="m117.73,5.86c-.63-.34-1.26-.68-1.89-1.03,1.16-1.1,2.53-1,4.15-.67-.31,1.26-1.27,1.49-2.25,1.7Z"/>
      <path class="cls-101" d="m229.81,104.94c-30.68,0-61.36.02-92.05,0-1.57,0-3.35.65-4.68-.86,19.95-3.51,35.1-13.52,43.78-32.31.67-1.45.82-3.19,3.36-2.47,20.66,5.9,38.12,16.26,49.55,35.15.08.13.03.33.04.49Z"/>
      <path class="cls-101" d="m113.67,104.14c-1.43,1.23-3.16.8-4.78.81-29.94.02-59.88,0-89.82,0,5.89-11.25,15.08-19.18,25.82-25.46,3.7-2.17,7.65-3.98,11.62-5.63,3.66-1.52,7.59-3.85,11.23-3.58,4.32.32,4.13,5.97,6.26,9.07,9.66,14.11,22.87,22.26,39.67,24.8Z"/>
      <path class="cls-110" d="m44.92,106.09c-1.63,1.77-3.26,1.78-4.89,0,1.63,0,3.26,0,4.89,0Z"/>
      <path class="cls-108" d="m165.88,208.89c-1.45.85-2.78.29-4.46-.5,1.81-.68,3.31-2.01,4.46.5h0Z"/>
      <path class="cls-108" d="m157.2,206.7c-1.87-.65-2.75-.96-3.64-1.27.14-.28.21-.74.43-.82,1.1-.4,1.85.16,3.21,2.09Z"/>
      <path class="cls-110" d="m201.73,180.8c.35.32.71.64,1.06.96-.28.12-.57.18-.87.18q-2.76-.23-2.24-1.92c.68.26,1.37.52,2.05.77Z"/>
      <path class="cls-22" d="m199.91,173.75c1.64.11,3.28.23,4.92.34-1.73,1.11-3.4,1.48-4.92-.34Z"/>
      <path class="cls-94" d="m129.59,123.1c-1.08.22-1.78-.62-1.77-2.84,0-2.15.95-2.5,2.7-2.33,1.91.19,4.46-.24,4.34,2.66-.1,2.41-2.43,2.16-5.26,2.51Z"/>
      <path class="cls-104" d="m111.65,123.09c-1.25.26-1.82-.71-1.83-2.87-.01-2.22,1.05-2.43,2.75-2.28,1.93.17,4.46-.22,4.29,2.7-.14,2.44-2.48,2.12-5.21,2.45Z"/>
      <path class="cls-93" d="m99.18,124.2c.06,3.4-1.01,6.05-4.91,6.03-3.99-.02-4.8-2.96-4.82-6.19-.02-3.32,1.1-6.11,4.96-6.05,3.88.06,4.74,2.95,4.76,6.22Z"/>
      <path class="cls-2" d="m49.79,124.18c1.66-2.03-1.61-5.75,2.96-5.88,3.97-.11,5.55,2.15,5.36,5.95-.16,3.23-.8,5.89-4.91,5.86-5.49-.05-1.2-4.47-3.4-5.92Z"/>
      <path class="cls-103" d="m223.7,125.85h-4.78c.79-2.1,1.51-3.99,2.27-6.03,1.56,1.83,1.87,3.88,2.5,6.03Z"/>
    </g>
  </g>
</svg>