<?xml version="1.0" encoding="UTF-8"?>
<svg id="Layer_2" data-name="Layer 2" xmlns="http://www.w3.org/2000/svg" viewBox="0 0 436.2 436.2">
  <defs>
    <style>
      .cls-1 {
        fill: #61358b;
      }

      .cls-1, .cls-2, .cls-3 {
        stroke-width: 0px;
      }

      .cls-2 {
        fill: #dd3224;
      }

      .cls-3 {
        fill: #fff;
      }
    </style>
  </defs>
  <g id="Layer_1-2" data-name="Layer 1">
    <g id="g6626">
      <path id="path6616" class="cls-3" d="m0,218.1L218.11,0l218.09,218.1-218.1,218.1L0,218.1Z"/>
      <path id="path6618" class="cls-1" d="m9.93,218.1L218.1,9.93l208.18,208.17-208.18,208.17L9.93,218.1Z"/>
      <path id="path6620" class="cls-3" d="m39.7,218.1L218.14,39.67l178.43,178.43-178.44,178.43L39.7,218.1Z"/>
      <path id="path6622" class="cls-2" d="m310.29,157.61l-23.02-23.04c-6.19-6.22-16.23-6.33-22.55-.24-12.73,12.25-26.26,27.33-35.22,45.06,4.05-26.7,13.21-55.32,25.31-77.3l-33.56-33.58-33.56,33.58c12.11,22.03,21.26,50.65,25.31,77.3-9.01-17.78-22.49-32.81-35.22-45.06-6.32-6.09-16.35-5.98-22.55.24l-23.02,23.04,37.32,37.34v-34.53c11.2,3.34,34.17,16.7,42.33,34.53h-14.64v7.58h16.26l-13.58,11.11c-3.19,2.62-3.64,7.32-1.03,10.51.14.17.29.34.45.5l22.02,22.09,21.97-22.09c2.9-2.91,2.89-7.62-.02-10.51-.18-.18-.36-.34-.55-.5l-13.58-11.11h16.26v-7.58h-14.64c8.11-17.83,31.13-31.19,42.33-34.53v34.53l37.32-37.34h-.14Z"/>
      <path id="path6624" class="cls-1" d="m68.55,221.28h89.75l59.83,58.56,59.83-58.56h89.75l-149.58,146.4L68.55,221.28Z"/>
    </g>
  </g>
</svg>