<?xml version="1.0" encoding="UTF-8"?>
<svg id="Layer_2" data-name="Layer 2" xmlns="http://www.w3.org/2000/svg" viewBox="0 0 295.5 295.5">
  <defs>
    <style>
      .cls-1 {
        fill: #1e1e1c;
      }

      .cls-1, .cls-2, .cls-3, .cls-4, .cls-5 {
        stroke-width: 0px;
      }

      .cls-2 {
        fill: #252626;
      }

      .cls-3 {
        fill: #dedede;
      }

      .cls-4 {
        fill: #cd1719;
      }

      .cls-5 {
        fill: #fff;
      }
    </style>
  </defs>
  <g id="Ebene_1" data-name="Ebene 1">
    <g>
      <path class="cls-3" d="m147.75,295.5C66.25,295.5,0,229.25,0,147.75S66.25,0,147.75,0s147.75,66.25,147.75,147.75-66.25,147.75-147.75,147.75"/>
      <path class="cls-4" d="m147.75,285.63c-76,0-137.88-61.88-137.88-137.88S71.75,9.87,147.75,9.87s137.88,61.88,137.88,137.88-61.82,137.88-137.88,137.88"/>
      <path class="cls-5" d="m259.09,147.69c0,61.58-49.94,111.52-111.52,111.52s-111.52-49.94-111.52-111.52,49.94-111.52,111.52-111.52c61.58,0,111.52,49.94,111.52,111.52"/>
      <path class="cls-2" d="m147.75,269.97c-67.37,0-122.22-54.84-122.22-122.22S80.38,25.53,147.75,25.53s122.16,54.79,122.16,122.22-54.79,122.22-122.16,122.22m0-227.83c-58.21,0-105.61,47.4-105.61,105.61s47.4,105.61,105.61,105.61,105.61-47.4,105.61-105.61-47.4-105.61-105.61-105.61"/>
      <path class="cls-1" d="m150.41,104.13c.41.89.89,1.71,1.3,2.6.3.53.12.95,0,1.6l.77,2.07v.18l-1.48,2.13-.06.53.71,2.01v.18l-1.3,1.95-.06.53.83,2.36v.18l-1.6,2.36-.18.95.83,2.25v.18l-.95,1.36.35.24c1.24-.71,2.48-1.6,4.08-1.18.89.24,1.71.71,2.54,1.12,1.12-.65,2.19-1.36,3.49-1.18.95.12,1.83.71,2.66,1.06,1.3-.71,2.6-1.71,4.14-1.36,1.12.24,2.3.95,3.37,1.42,1.3-.71,2.66-1.77,4.26-1.42,1.12.24,2.3.95,3.37,1.42,1.3-.71,2.72-1.77,4.31-1.42,1.18.24,2.36,1,3.43,1.48,2.66,0,5.38.18,8.04.3,2.72.12,7.56-.47,7.74,3.43,0,.95,0,1.83.06,2.78,0,1.24.24,2.66-.18,3.84,5.91-3.49,11.82-7.15,18.03-10.17,3.55-1.77,7.15-3.43,10.7-5.26.06-.06.12-.12.12-.18l-.06-5.38c0-.53-12.12-.71-13.36-.71-1.12-.53-2.25-1-3.37-1.54-.53-.24-2.42,1.24-2.9,1.54h-1.36c-1.12-.53-2.25-1-3.31-1.54-.53-.24-2.42,1.24-2.95,1.54h-1.3c-1.12-.53-2.25-1-3.37-1.54-.53-.24-2.54,1.3-3.07,1.6h-.77c-.77-.35-1.95-1.24-2.78-1.24-.47-.24-2.19,1.12-2.6,1.42h-.77c-.53-.24-1.12-.47-1.65-.77-.41-.18-1.06-.65-1.54-.65-.41,0-1.12.59-1.48.83-.53.3-1.06.59-1.6.89h-.59c-.71-.53-1.48-1.06-2.13-1.71-.71-.71-1.6-.83-2.6-1.18l.12-.65,1.6-2.36c.06-.06.06-.12,0-.18l-.83-2.25.18-1,1.6-2.36c.06-.06.06-.12,0-.18l-.83-2.36.06-.53,1.3-1.95c.06-.06.06-.12,0-.18l-.71-2.01.06-.59,1.48-2.13c.06-.06.06-.12,0-.18l-.77-2.07c.12-.59.3-1,0-1.54-.47-.95-.95-1.89-1.42-2.84-.53-1.12-1.06-2.25-1.71-3.31-1.83-3.01-3.66-6.09-5.56-9.1-.06-.06-.12-.12-.18-.12s-.12.06-.18.12l-3.07,7.74c-1.65-.24-3.37-.53-5.02-.77-.47-.06-.83.35-1.24.65-.71.53-1.48,1.06-2.19,1.6-.71-.24-1.42-.41-2.13-.65-.35-.12-1.42-.65-1.77-.47-.59.06-1.42.65-1.95.89-.71.35-1.48.65-2.19,1l-4.2-6.68c-.06-.06-.12-.12-.24-.12-.06,0-.12.06-.18.18l-2.72,12.65c1.71,2.84,3.49,5.73,5.2,8.57.65,1.06,1.18,2.19,1.71,3.31"/>
      <path class="cls-1" d="m113.06,80.97c1.06,2.95,2.13,5.91,3.25,8.86.89,2.48,2.01,4.85,3.31,7.21,1.24-.53,2.95-1.42,4.31-1.24l-6.38-16.49,1.36-.53c.12-.06.18-.18.12-.3l-7.45-9.99c-.12-.12-.35-.06-.35.12l-.06,12.77c-.06.53,1.65-.3,1.89-.41"/>
      <path class="cls-1" d="m106.79,89.48c.53,1.65,1.12,3.31,1.65,4.96.41,1.3.59,3.25,1.83,4.02.24-1,.41-2.07.65-3.07.24-1.24.35-1.71,1.36-3.61l-1.3-3.84,1.42-.53c.12-.06.18-.18.12-.3l-7.45-9.99c-.12-.18-.35-.06-.35.12l-.06,12.82c0,.41,1.89-.47,2.13-.59"/>
      <path class="cls-1" d="m123.81,82.8l2.95,8.27-1.77,5.02,1.48.41,1.77-1.3c.53-.35,1.18-.59,1.83-.65.41-1.24.83-2.42,1.24-3.66.3-.83-.12-1.36-.41-2.19-1-2.48-1.95-5.02-2.95-7.51l1.77-.65c.12-.06.18-.18.12-.3l-7.51-9.93c-.06-.06-.12-.12-.24-.06s-.12.12-.12.18l-.06,12.77c0,.53,1.65-.3,1.89-.41"/>
      <path class="cls-1" d="m186.58,203.01c-.18,1.71-1.6,3.07-3.37,3.07h-4.55c-1.42,0-2.72-.89-3.19-2.25l-2.3-6.56-7.56.95c-.12.12-.24.24-.35.3l3.55,7.09c2.42,1.48,4.79,3.01,7.15,4.55,1.48.95,2.01,2.9,1.12,4.49-1.65,2.78-3.01,5.67-4.49,8.51,5.5,1.06,11.29-1.3,14.54-5.85,3.66-5.14,3.55-12.23-.35-17.2l-.18,2.9Z"/>
      <path class="cls-4" d="m157.68,219.85s0-.06-.06-.12c-.12-.41-.18-.65-.18-.65,0,.06.12.47.18.65-1.89-7.03-9.1-11.82-16.37-10.58-6.86,1.12-12.59,7.45-12.17,14.6.18,7.86,6.97,14.42,14.89,14.18,9.16-.24,16.02-9.34,13.65-18.2.06,0,.06.06.06.12"/>
      <path class="cls-1" d="m216.48,172.93c-1.42-.65-2.84-1.3-4.31-1.95-.89-.41-1.3-.35-2.3-.24-3.13.18-6.21.35-9.34.53l-.24.06,6.15,4.85s.59.65.3.89c-.3.3-1.65,2.42-1.65,2.42l2.01-.24,3.13,8.98c0,.06.12.12.18.12h4.55c.12,0,.18-.06.24-.18l1.36-15.07c.06-.06,0-.12-.06-.18"/>
      <path class="cls-1" d="m235.16,161.93c-.77-.47-1.54-.89-2.3-1.3-1.24-.65-2.48-1.3-3.72-1.95-.83-.41-1.65-.83-2.42-1.24-.06-.06-1.06-.83-1.12-.35,0,.65-.06,1.24-.06,1.83-9.87,0-12.82-.12-22.28-.53-.95-6.03-4.31-11.58-7.21-16.84-3.07,1.54-6.15,3.01-9.22,4.49-3.37,1.65-6.62,3.72-9.93,5.61-2.9,1.65-5.73,3.37-8.63,5.08,1.77,3.19,4.49,8.33,5.79,13.12,6.74.3,9.99.41,16.9.41.59-1.36,2.01-2.19,3.49-2.01,1.18.12,2.42,1.06,3.49,1.6l4.49-6.56,23.17.47v1.83c0,.06.06.12.06.18.24.18,1.24-.3,1.48-.41,1.12-.35,2.3-.77,3.43-1.12,1.71-.59,3.49-1.12,5.2-1.71.41-.12-.53-.59-.59-.59"/>
      <path class="cls-1" d="m198.16,193.26c-1.54-3.13-3.13-6.26-4.67-9.34,0,0-.53-1.77-.71-2.19-.18-.41-.35-.35-.35-.35h-2.78l-17.43-.35-1.48,2.01.06.06,8.45-.59h0l.24-.06c1.12,0,2.48.18,3.49.65,1,.47,3.13,1.48,4.2,1.95,1.3.59,1,1.42.83,2.78l-.77,8.45,6.03,4.49c-.83,5.44-1.65,10.87-2.36,16.31,0,.06.06.18.12.24.47.18,4.43,2.07,4.61,1.65,1.65-3.49,3.43-6.91,5.2-10.34,1.77-3.37,3.43-6.86,5.32-10.17.06-.12,0-.24-.06-.3-2.66-1.54-5.26-3.25-7.92-4.91"/>
      <path class="cls-4" d="m112.88,159.27l-.24-.59c-2.36-5.32-4.79-10.64-7.15-15.96l1.18-.77c5.79,5.97,10.82,9.69,13.47,11.7,1.24.89,1.95,1.48,2.3,1.83l.77.83-10.34,2.95Zm87.64,16.37c-1.24-.71-2.54-1.36-3.84-2.01-.71-.35-1.42-.71-2.19-1.06,0,.3,0,.65-.06.95v.71h-.71c-9.93,0-12.82-.12-22.34-.53h-.59l-.06-.59c-.71-4.73-3.01-8.98-5.32-13.12-.71-1.3-1.42-2.6-2.07-3.96l-.3-.59,3.96-2.36c1.95-1.18,3.96-2.36,5.91-3.49,1.06-.59,2.07-1.24,3.13-1.83,2.95-1.77,5.97-3.55,9.1-5.08,1.36-.65,2.72-1.3,4.08-1.95,2.6-1.24,5.26-2.54,7.86-3.84l-.06-4.55c-2.01-.3-10.4-.53-12.59-.53h-.18l-3.43-1.54c-.41.12-1.36.77-1.77,1-.3.18-.47.35-.65.41l-.18.12h-1.71l-3.37-1.54c-.41.12-1.36.77-1.77,1.06-.24.18-.47.35-.59.41l-.18.12h-1.6l-3.43-1.54c-.41.12-1.48.83-1.89,1.12-.3.18-.53.35-.65.41l-.18.12h-1.12l-.12-.06c-.3-.12-.59-.3-.89-.47-.59-.35-1.24-.65-1.71-.77h-.06c-.35.12-1.24.71-1.54.95-.24.18-.41.3-.53.35l-.18.06-1.12.06-1.83-.83c-.12-.06-.3-.18-.47-.24-.18-.12-.59-.35-.71-.35-.18,0-.53.3-.71.41-.18.12-.3.24-.41.3l-1.71,1-1.06.06s-.65-.47-.83-.65c-.53-.41-1.06-.83-1.6-1.3-.47-.47-1-.59-1.77-.83l-.53-.12-.59-.18.24-1.42,1.54-2.25-.77-2.19.06-.41c.06-.24.12-.47.12-.71v-.18l1.54-2.3-.83-2.3.12-.89,1.24-1.83-.71-1.95.12-.89,1.42-2.07-.71-2.01.06-.18c.18-.89.18-.95-.3-1.83l-1.95-3.9c-.65-1.3-1.42-2.6-2.19-3.84-.24-.41-.47-.83-.77-1.18l-.18-.3-2.66-4.37-2.66,6.56.12.83-6.03-.95c-.41.06-1.71,1.12-2.19,1.54-.3.24-.53.47-.65.53l-.3.24-2.42-.77c-.12,0-.3-.12-.47-.18-.24-.12-.77-.3-.83-.35l-.12.06h-.12c-.24,0-.77.3-1.12.47-.24.12-.41.24-.65.35l-2.54.95-3.84-6.15-3.49,16.08c0,.12.24.53.3.71.06.12.18.3.24.41l.06.18-.06,1.65,1.36,1.06.83,1.71-.06,2.3,1.77,1.42.35.77-.06,2.07,1.54,1.18.35.77-.06,2.36,1.83,1.48.3.65-1.42,2.72-.59-.24c-4.85-2.13-9.87-4.26-15.01-6.32l-.3-.12-.12-.3c-.65-1.65-1.36-3.25-2.07-4.91l-.18-.47c-1,0-2.01.06-2.95.12l-1.65.06c-.3-.95-.41-1.3-.47-1.42l-.77-1.89,4.08-12.06c.06-.18.12-.41.12-.59.06-.77-.24-1.48-.59-2.25v-.06c-.12-.3-.24-.53-.35-.77l-2.36-6.09,1.95-.71-7.51-10.11-.06,13,.83-.3c.18-.06.41-.18.65-.3l.35-.12,2.95,8.27-2.3,6.5-6.97-18.14,1.54-.59-7.51-10.11-.06,12.94.83-.3c.18-.06.41-.18.71-.3l.35-.12,6.74,18.56-6.32-3.78-2.6-7.92,1.6-.59-7.51-10.11-.06,12.94.77-.3c.24-.12.59-.24.95-.35l.35-.12,2.78,8.45.12.12c.06.06.18.18.47.3l.12.06c.06,0,.12.06.12.06l10.76,6.56.95,2.19-1.06.12c-.53.65-1.06,1.3-1.54,1.95-.41.53-.77,1.06-1.18,1.54l3.43,4.96c.35.53.71,1.06,1.06,1.6.71,1.06,1.42,2.13,2.13,3.07.24,0,.41,0,.65-.06.53,0,1.06-.06,1.6-.12l.53-.06,1.95,4.14c2.95,6.21,5.85,12.41,8.75,18.62l.18.41-1.36,1.65,3.72,8.27,2.6,1.06.12.24c3.9,8.63,7.21,16.37,10.22,23.64,1.48,3.66,2.9,7.27,4.2,10.7.65,1.71,1.3,3.43,1.89,5.14.3.83.59,1.65.95,2.54.06.12.12.3.18.53.06.3.24.83.35,1.24,1.12-1.12,2.25-2.19,3.43-3.19-4.49-12.65-9.63-25.59-15.25-38.53l-.41-1h24.82l-10.93,14.83c.12.24.35.47.53.71.12.18.24.3.35.47l9.87,13.47c.89,1.24,1.48,2.01,2.6,2.84l17.55,13s-.47,3.19-.71,4.61c-.59,3.84-1.18,7.8-1.65,11.76.06.06.18.06.24.12,1.65.71,2.72,1.18,3.25,1.3,1.42-3.01,2.95-6.03,4.49-8.92l.59-1.18c.47-.89.89-1.71,1.3-2.6,1.18-2.3,2.42-4.73,3.72-7.03-1.18-.77-2.42-1.54-3.61-2.3-1.3-.83-2.54-1.65-3.9-2.42l-.18-.12-.12-.18c-2.01-4.08-4.02-8.16-6.09-12.06l-.12-.3.18-.77,16.08-1.95,3.19,9.16h3.72l1.3-14.24-4.61-2.13h-.12c-.18,0-.35,0-.59.06-.18,0-.3.06-.47.06l-14.77.89,6.74-9.69,24.23.47v1.89c.12-.06.53-.24.59-.24l7.51-2.48c-.59-.53-1.24-.89-2.07-1.3"/>
    </g>
  </g>
</svg>