<?xml version="1.0" encoding="UTF-8"?>
<svg id="Layer_2" data-name="Layer 2" xmlns="http://www.w3.org/2000/svg" xmlns:xlink="http://www.w3.org/1999/xlink" viewBox="0 0 425.76 426.72">
  <defs>
    <style>
      .cls-1 {
        clip-path: url(#clippath);
      }

      .cls-2 {
        fill: none;
      }

      .cls-2, .cls-3, .cls-4, .cls-5 {
        stroke-width: 0px;
      }

      .cls-3 {
        fill: #1b1918;
      }

      .cls-3, .cls-4, .cls-5 {
        fill-rule: evenodd;
      }

      .cls-4 {
        fill: #e1d805;
      }

      .cls-5 {
        fill: #fff;
      }
    </style>
    <clipPath id="clippath">
      <rect class="cls-2" width="425.76" height="426.72"/>
    </clipPath>
  </defs>
  <g id="Layer_1-2" data-name="Layer 1">
    <g>
      <g class="cls-1">
        <path class="cls-3" d="m212.6.56c117.41,0,212.6,95.18,212.6,212.6,0,85.99-51.8,163.51-131.24,196.42-79.44,32.91-170.89,14.71-231.69-46.09C1.46,302.69-16.72,211.25,16.18,131.81,49.09,52.36,126.61.56,212.6.56h0Z"/>
        <path class="cls-4" d="m212.6,7.7c54.49,0,106.75,21.65,145.29,60.18,38.53,38.53,60.18,90.79,60.18,145.28,0,83.1-50.06,158.02-126.83,189.82-76.78,31.8-165.15,14.22-223.91-44.54C8.55,299.68-9.02,211.31,22.78,134.54,54.58,57.76,129.5,7.7,212.6,7.7h0Z"/>
      </g>
      <path class="cls-3" d="m212.6,46.99c91.78,0,166.18,74.4,166.18,166.18,0,67.22-40.49,127.81-102.59,153.53-62.1,25.72-133.57,11.5-181.1-36.02-47.53-47.53-61.75-119-36.02-181.1,25.72-62.09,86.32-102.58,153.53-102.58h0Z"/>
      <path class="cls-5" d="m212.6,49.91c43.3,0,84.82,17.2,115.44,47.82,30.62,30.62,47.82,72.14,47.82,115.44,0,66.03-39.77,125.56-100.78,150.83-61,25.27-131.22,11.3-177.91-35.39-46.69-46.69-60.66-116.91-35.39-177.91,25.27-61,84.8-100.78,150.83-100.78h0Z"/>
      <path class="cls-3" d="m104.42,135.19l-.18-1.11c-2.54-.87-4.51-2.32-5.64-4.18-2.32-3.8-1.84-8.6-.03-10.66,1.26-1.44,3.8-2.71,8.82-1.81l.43.03c-1.15-1.61-.11-3,1-3.58.61-.32,1.78-.5,2.52-.37.87.15,1.86.74,2.63,2.55,1.12-3.91,5.96-5.09,9.12-4.71,2.64.32,4.55,2.08,5.19,4.66.5,1.99.49,5.05-.62,9.29,1.86-1.56,3.92-2.52,6.24-2.78,1.79.94,2.32,2.11,2.31,3.43-.02,1.65-1.04,3.49-2.86,5.52,4,3.52,7.12,9.21,10.37,14.97l-1.19-.5c.49,2.18,1.07,4.41,1.34,6.56,6.08,6.13,10.85,14.2,11.8,27.66l-.4,4.37v7.32c6.69,5.55,10.08,13.06,11.73,20.63l-.34,4.75-3.7-1.52-.39,3.97-1.99-2.14-1.67,3.29c-1.03-4.07-2.41-4.96-3.72-6.65-.85-1.1-1.2-2.32-1.03-3.92-1.37-.3-1.35,1.04-1.64,1.91-.91-1.6-.88-2.94-.84-5.7l-1.68-2.65-6.71,11.55c-.71,1.22-1.47,2.35-2.56,3.13-.72.52-1.92.75-4.14,1.17l-2.08,1.54-1.15,4.07-1.19-3.17-2.45,3.8c-3.48,3.69-5.82,6.34-5.82,7.81,0,.86,3.15,1.36,6.46,1.11,1.25-.09,2.31-.32,3.68-.39,2.85-.12,8.21.02,11.46,2.54,3.89,3.01,4.56,7.06,3.39,11.8-.5,2.03-.3,4.82,1.36,5.77-.99,1.07-1.79.59-2.53-1.29-.75,1.52-.09,2.75,1.48,3.58-1.18.69-2.11.25-2.69-.39-2.17,5.44-4.24,9.65-3.74,17.44,2.38-.21,5.55-.09,8.72.27,1.9.21,3.33.47,4.41,1.02,4.03,2.02,3.46,6.35.96,5.68-.36-.32-.88-.76-1.4-.97,1.29,1.92.45,3.5-2.79,4.14l-1.72-1.8c-.7.3-1.07,1.02-.78,1.91-1.02-.23-2.01-1.1-2.92-1.98-1.01.18-1.38.78-1.25,1.79-1.62-.61-2.27-1.49-3-2.3l-1.13,1.75c-1.88-.25-1.88-2.28-3.25-2.27-1.68.02-4.22.73-6.56,2.23.86-1.55,1.55-2.24,1.77-3.16.22-.92-1.25-.99-3.25-.19.59-1.69,1.21-3.69,1.05-5.06,1.24-4.31,1.71-11.14.43-17.92-1.79-3.41-8.18-4.09-16.04-1.93-.44,4.23-3.23,8-5.39,10.89-1.27,1.71-2.4,2.81-2.75,3.87-.18.56-.15,1.06.17,1.55.29.43.79.92,1.39,1.24-1.06.88-2.35.64-3.66-.74-1.61,1.84-2.51,3.8-.93,5.84-1.26.15-2.09-.47-2.73-1.56l-5.72,5.82c-2.03,3.44-2.73,6.52-2.03,9.21.67,2.6,2.65,4.84,5.99,6.7l3.05,2.68,1.05,2.64-4.84-.04-5.28-1.01c.5,1.09.97,2.1.9,3.15-1.85-.42-3.52-.92-5.27-1.34-.68-.16-1.45-.27-2.13-.41-2.24-.46-2.71-1.56-3.31-3.4-.72-2.21-1.16-4.32-1.48-6.61l-4.94-.59,2.96-2.26,2.33-3.39-5.72-1.44,3.9-2.92,3.89-4.55h-3.07l6.54-4.2c1.83-3,3.82-5.91,4.16-9.65-.04-1.37-.3-3.59-.35-6.3-.06-2.97.16-6.59.35-10.75-1.24,4.29-4.11,5.22-7.32,5.45-3.39.93-6.64.09-8.78-1.66-2.13-1.75-3.21-4.41-3.08-7.43.25-6.05,4.31-10.76,8.41-15.5,1.25-1.44,2.51-3.01,3.71-4.59,5.14-6.77,8.99-15.58,8.52-22.75-.3-4.55-1.65-8.6-4.16-12.2-2.37-3.4-5.85-6.59-10.3-9.38-1.2-.75-3-1.65-4.31-2.19-.49-.2-.99-.27-1.27.2-.51.86-1.04,1.02-1.73,1.18.02-.24,0-.38-.08-.62-1.07,1.28-2.05,1.43-3.07,1.41.28-.27,1.1-.75.64-1.06-1.45,1.41-3.83,1.06-4.63.5-1.03-.71-2.16-2.4-.15-4.91.07,1.19.45,2.5.93,2.52,1.02.03,1.93-2.11,3.3-3.41.88-.83,2.01-.99,2.73-.94.7.05,1.92.4,3,1.44.72.7.81,1.36,1.44,1.62,5.65,2.3,11.93,6.8,15.57,12.54,3.76,5.93,5.63,12.71,4.75,18.95-.28,1.97-.75,4.24-1.68,6.57-.99,2.46-2.61,5.27-3.84,7.12-2.69,4.05-6.31,8.14-9.07,11.46-2.08,2.5-3.62,4.56-4.2,5.84-1.58,3.5-2.71,7.04.08,10.26,2.02,2.33,7.86,3.26,12.12-1.28.53-.56,1.14-1.64,1.84-2.91.75-1.35,1.6-2.91,2.23-4.28,1.03-3.47,2.64-7.12,4.72-11.35.73-1.5,1.57-2.91,2.38-4.31,1.99-3.46,3.86-6.1,5.12-10.86,3.41-12.91,3.09-20,3.28-30.51-1.84-1.11-3.01-3.65-3.19-8.29l-.82,1.48c.16-1.88.27-6.25-.76-6.65-.24-.09-.59.23-.95.61-.26-1.14-.09-2.44.04-3.62l-2.08,1.17.93-7.57-1.89,2.34c-.23-1.2-.21-2.5.08-3.67l.18-3.32.82-1.62.47-5.12-1.46-5.53c-2.45-.68-5.05-1.75-5.71-3.25-.91-2.07.34-4.55,2.8-5.28,1.48-.44,3.39-.09,5.73,1.05h0Z"/>
      <path class="cls-5" d="m97.82,266.28c.12,1.69.29,4.05.17,5.89-.08,1.18-.37,2.15-.91,2.59-.03.52.28.57.59.56.48-.03.91-.69,1.09-1.26.16-.51.18-1.07.2-1.36.07-1.35-.33-4.77-1.13-6.42h0Z"/>
      <path class="cls-5" d="m95.35,269.08c.05,1.89.18,4.26,0,6.1-.09.91-.36,1.66-.78,2.1-.03.5.15.56.44.57.51.02.98-.63,1.14-1.19.15-.5.17-1.04.18-1.32.07-1.31-.25-4.66-1-6.26h0Z"/>
      <path class="cls-5" d="m93.13,271.81c.16,1.86.34,4.47.19,6.43-.07.97-.31,1.77-.7,2.24-.14.18-.22.19-.16.44.07.3.32.34.57.32.48-.03.94-.72,1.12-1.32.16-.54.16-1.07.18-1.37.07-1.41-.39-5.01-1.19-6.74h0Z"/>
      <path class="cls-5" d="m138.8,270.22c.16,1.86.22,4.37.06,6.33-.08.96-.28,1.61-.61,2.08-.13.18-.22.19-.16.44.07.3.32.34.57.32.48-.03.94-.72,1.12-1.32.16-.53.16-1.06.18-1.37.07-1.41-.36-4.76-1.16-6.49h0Z"/>
      <path class="cls-5" d="m136.5,268.17c.16,1.86.21,4.37.06,6.33-.08.96-.28,1.61-.61,2.08-.12.18-.22.18-.16.44.07.31.32.34.57.32.48-.02.94-.71,1.12-1.32.16-.54.16-1.07.18-1.37.07-1.41-.36-4.76-1.16-6.49h0Z"/>
      <path class="cls-5" d="m134.54,265.46c.16,1.86.21,4.37.06,6.33-.08.97-.28,1.6-.61,2.08-.13.18-.22.18-.16.44.07.31.32.34.57.32.48-.02.94-.71,1.12-1.32.16-.54.17-1.07.18-1.37.07-1.41-.36-4.76-1.16-6.48h0Z"/>
      <path class="cls-5" d="m106.14,236.65c5.19,1.4,7.72,4.01,8.9,6.88,1.64,4,.64,8.5-.98,13.31,2.41-4.48,3.49-10.07,1.87-14.04-1.3-3.18-4.13-5.48-9.79-6.15h0Z"/>
      <path class="cls-5" d="m120.54,244.02c-1.05-1.11-1.48-1.93-1.61-2.98-.23-1.88.61-4.13,3.32-8.37-1.83,2.01-4.66,5.82-4.35,8.5.15,1.31.93,2.36,2.64,2.85h0Z"/>
      <path class="cls-5" d="m136.4,139.08c-.01-.07-.08-.14-.19-.17-.11-.02-.34.07-.39.25-.23,1.16.9,2.49,1.21,2.91,1.09,1.48,2.33,2.21,3.43,4,.49.79.93,2.08.95,3.67.01.64-.26,2.39-.55,3.58-.09.37.21.38.32.11.63-1.75,1.68-5.33-.13-8.3-1.14-1.87-3.15-2.83-4.26-4.5-.19-.28-.34-.57-.38-.8-.04-.24.06-.4,0-.73h0Z"/>
      <path class="cls-3" d="m156.52,184.73v6.73c2.49,1.62,5.02,4.3,7.27,8.51l10.5,5.95-.54-3.62,3.3.78-.7-3.15,3.23.86c.1-2.21-.9-4.18-2.74-5.57-1.68-1.27-3.95-2.49-6.99-3.47-4.41-1.43-8.27-1.67-13.32-7.02h0Z"/>
      <path class="cls-5" d="m100.06,125.17c.54,1.12,1.91,2.05,3.15,2.58l21.44-7.41.08-3.64c-.44.77-.96,1.44-1.56,2.01v-.02c-.17-.64-.41-1.23-.67-1.83.29-.14.56-.25.96-.3.39-.04.55-.29.55-.49,0-.27-.29-.54-.77-.48-.47.06-.71.23-1.12.38-.11-.27-.15-.43-.23-.74-.1-.36-.29-.55-.68-.45-.31.07-.39.43-.3.75.09.31.19.47.31.77-.37.12-.76.23-1.09.25-.43.03-.55.31-.51.54.04.23.14.38.57.41.37.03.94-.17,1.4-.32.21.47.32.96.55,1.41.08.15.11.52.14.86-.65.46-1.37.82-2.18,1.09-1.68.56-3.76.77-6.14.35l-1.09.35c-.15-.39-.32-.78-.5-1.16.34-.12.68-.25,1.02-.32.38-.08.48-.3.48-.5,0-.27-.18-.46-.66-.43-.41.03-.79.27-1.19.42-.12-.27-.22-.58-.31-.87-.11-.35-.3-.6-.71-.49-.31.08-.34.43-.24.75.09.31.21.61.33.9-.32.17-.71.23-1,.2-.43-.04-.65.4-.58.63.07.23.24.38.68.39.43.02.84-.09,1.29-.25.17.36.34.68.48,1.03l-.91.29c-.94,1.47-2.59,2.61-4.3,3.14-.98.3-2.21.49-3.52.51-.2-.73-.39-1.31-.73-1.94.34-.13.69-.25,1.04-.32.38-.08.46-.3.46-.5,0-.27-.27-.55-.74-.45-.41.09-.75.25-1.16.4-.12-.27-.18-.56-.27-.85-.11-.35-.3-.58-.71-.47-.31.08-.38.43-.28.75.09.31.19.64.31.94-.36.13-.71.15-1.04.18-.43.04-.53.38-.48.61.04.23.14.39.58.39.5,0,.82-.13,1.39-.36.25.53.41,1.05.57,1.59-.71-.04-1.43-.13-2.13-.28h0Z"/>
      <path class="cls-5" d="m119.55,126.01c.67.03,1.65-.45,2.2-.64.14-.38.21-.9.07-1.52-.35-.71-1.08-.96-1.7-.87-.42.07-1.02.14-1.06.69l-.13,1.56.63.78Z"/>
      <path class="cls-5" d="m123.32,124.74c.68.03,1.65-.45,2.2-.64.14-.38.21-.9.07-1.52-.35-.71-1.08-.97-1.69-.87-.42.07-1.02.14-1.06.69l-.13,1.55.63.79Z"/>
      <path class="cls-5" d="m116.57,185.91c1.88,1.89,4.79,4.69,8.7,4.24-2.25-1.27-3.88-3.28-3.23-6.59,2.13,3.71,5.91,6.39,13.07,5.54-2.48-.46-3.2-2.21-1.69-4.53,2.37,1.24,5.75,2.51,10.93,1.34-.7-.9-.99-1.4-1.31-2.57,3.09,1.05,6.3,1.06,8.89.8-2.78-2.65-6.08-5.47-7.63-8.5.87,2.62,2.91,5.43,4.9,7.45-2.28.07-4.39-.18-7.18-.62.27.98.4,1.78.76,2.74-3.47.55-6.41-.05-9.61-1.58-1.71,1.54-1.91,3.01-1.19,4.34-1.46.45-3.41,0-4.66-.64-2.3-1.19-3.83-2.92-5.49-5.4-1.25,3.09-.36,5.41.72,7.2-2.17-.85-4.26-2.02-5.99-3.23h0Z"/>
      <path class="cls-5" d="m145.98,158.51c-1.35.11-2.64,1-2.6,2.21.05,1.45,1.69,2.8,3.27,3.91,1.92,1.34,3.57,2.65,4.62,4.79,1.71,3.45.42,8.43.43,10.08,0,.43.27.42.35.06.61-2.69,1.29-6.65.35-9.84-.47-1.6-1.31-3.23-2.58-4.39-1.78-1.63-3.7-2.52-4.82-4.01-.37-.49-.71-.97-.34-1.59.2-.32.58-.64,1.19-.9.29-.13.42-.36.13-.33h0Z"/>
      <path class="cls-5" d="m116.52,181.49c.33.62.63,1.14,1,1.61l2.37,3.02c-1.3-.34-2.1-1.12-2.57-1.74-.61-.8-.97-1.67-.8-2.9h0Z"/>
      <path class="cls-5" d="m108.3,173.74v-5.56c-.56.62-.99,1.87-.99,2.65,0,1.01.29,2.14.99,2.91h0Z"/>
      <path class="cls-5" d="m106.59,168.47v-5.56c-.56.62-.99,1.89-.97,2.76.03,1.02.27,2.02.97,2.79h0Z"/>
      <path class="cls-5" d="m113.23,157.73l-2.45-3.61c-.1.66.18,1.71.55,2.26.5.75,1.14,1.18,1.9,1.35h0Z"/>
      <path class="cls-5" d="m104.12,131.47c.75.08,1.64-.4,2.18-.59.14-.38.23-.95.08-1.57-.35-.71-1.08-.97-1.7-.87-.42.06-1.01.14-1.06.69l-.14,1.56.63.79Z"/>
      <path class="cls-5" d="m108.04,130.2c.67.03,1.64-.42,2.18-.61.14-.38.23-.93.08-1.55-.35-.71-1.08-.97-1.7-.87-.42.07-1.01.15-1.06.69l-.14,1.55.63.79Z"/>
      <path class="cls-5" d="m111.94,128.76c.67.03,1.62-.43,2.16-.62.14-.38.25-.91.1-1.54-.35-.71-1.08-.96-1.7-.87-.42.07-1.01.14-1.06.69l-.14,1.56.63.78Z"/>
      <path class="cls-5" d="m115.82,127.45c.67.03,1.65-.45,2.2-.64.14-.38.21-.9.07-1.52-.35-.72-1.08-.97-1.7-.87-.42.07-1.01.14-1.06.69l-.13,1.55.63.79Z"/>
      <path class="cls-5" d="m137.87,149.12c-.25-1.56-.52-2.99-.9-4.2.78.47,1.18,1.3,1.31,1.96.18.88.02,1.73-.42,2.25h0Z"/>
      <path class="cls-5" d="m104.83,164.29c.18-1.14.32-2.34.52-3.5.12-.69.27-1.36.46-1.99-.73.52-1.34,1.45-1.51,2.6-.15,1-.07,2.14.53,2.89h0Z"/>
      <path class="cls-5" d="m102.7,158.39c.35-.44.58-1.86.99-3.28.2-.68.42-1.41.67-2.02-.78.45-1.49,1.42-1.77,2.54-.25.98-.25,2.28.11,2.75h0Z"/>
      <path class="cls-5" d="m110.46,176.04c.33.73.82,1.45,1.23,2.09,1.25,1.91,2.57,3.82,3.91,5.65-2.11-1.2-3.18-2.53-3.72-3.35-.87-1.3-1.57-2.58-1.42-4.39h0Z"/>
      <path class="cls-5" d="m123.63,180.86l3.38,4.51c-1.05-.22-2.05-1.07-2.53-1.69-.62-.81-1-1.78-.85-2.82h0Z"/>
      <path class="cls-5" d="m127.03,181.71c.3.49.49.79.77,1.15l2.62,3.4c-1.05-.22-2.05-1.07-2.53-1.69-.62-.81-1.06-1.78-.86-2.86h0Z"/>
      <path class="cls-5" d="m135.91,182.13c.35.24.79.42,1.2.56l4.2,1.52c-1.08.32-2.33.19-3.06-.08-.95-.35-1.95-1.02-2.34-2h0Z"/>
      <path class="cls-5" d="m141.9,179.96l5.28,1.96c-1,.34-2.21.21-2.94-.06-.95-.35-2.01-1.06-2.34-1.91h0Z"/>
      <path class="cls-5" d="m109.02,144.58c2.91-.64,4.74-1.5,6.66-1.21,2.05.31,3.26,1.19,5.76,3.03-.7-1.27-2.85-3.96-5.17-4.25-1.38-.17-5.23,1.53-7.25,2.43h0Z"/>
      <path class="cls-5" d="m132.96,136.03l-4.78,2.59c-.6.32-1.14.69-1.46,1.09-.52.65-.73,1.08-.88,1.7-.35,1.35-.18,2.83-.68,3.7-.37-1.4-.86-5.2.59-6.23l7.21-2.85Z"/>
      <path class="cls-5" d="m112.78,145.02c1.67.79,4.19,1.12,5.66,1,.21-.02.32-.25.08-.45-.54-.41-1.48-.92-2.74-1.1-.89-.13-2.35-.06-2.95.12-.29.09-.24.33-.04.43h0Z"/>
      <path class="cls-5" d="m129.58,138.92c-.31,1.21-2.14,3.94-2.98,4.44-.17.1-.41.04-.38-.23.06-.65.39-1.77,1.09-2.71.5-.66,1.37-1.46,1.88-1.73.24-.12.44.04.39.23h0Z"/>
      <path class="cls-5" d="m121.55,146.71l.4.93c-.26,2.07-.42,4.15-.58,6.22l-.09.14c-.1-2.38.06-5.04.26-7.3h0Z"/>
      <path class="cls-5" d="m125.33,145.42l.05.81,5.41,4.19.16-.08-5.61-4.92Z"/>
      <path class="cls-5" d="m121.44,154.19l-.02.15,5.91.65,3.4-4.36-.12-.04-3.79,3.36-5.38.25Z"/>
      <path class="cls-5" d="m118.61,159.86c.27,1.63,1.07,2.35,2.18,2.32,1.86-.04,4.87-2.01,7.62-4.32,3.64.08,6.47,0,8.32-.54,1.27-.36,1.96-.97,1.96-1.75,0-.77-.74-1.67-1.32-2.03-.11-.07-.24-.04-.12.1.63.74.98,1.16.97,1.92-.01,1.03-1.47,1.53-3.53,1.69-1.66.12-3.7-.01-5.68-.25-.86-.83-1.38-1.8-1.97-2.66l.56,1.75c.16.49.34,1,.06,1.55-2.3,2.12-5.3,4.08-6.97,3.98-.79-.05-1.38-.49-1.77-1.68l-.32-.08Z"/>
      <path class="cls-5" d="m124.16,161.11l-.03.03c.46.93,1.62,2.15,2.49,2.81,1.68.07,3.39-.25,4.82-.78,1.35-.5,2.96-1.59,3.04-2.19.12-.97.01-1.82-.17-2.65-.06-.14-.22-.23-.3-.37.06,1,.03,1.83-.08,2.57-.09.62-1.44,1.56-3.23,2.15-1.47.48-3.65.72-3.85.6-.94-.57-2.05-1.66-2.68-2.19h0Z"/>
      <path class="cls-5" d="m134.52,125.98c-1.34.27-2.53.67-3.02,1.15-.8.78-1.34,2.52-1.84,4.33-.25.88-.23,2.54-.47,3.85-.27.33-.6.78-.86,1.12,1.4-.07,2.06-1.64,2.18-2.75.23-2.13.28-3.43.77-4.75.45-1.2,1.53-2.05,3.24-2.94h0Z"/>
      <path class="cls-5" d="m99.6,136.84c1.53-.14,3.18.15,4.44.83,1.6.86,1.79,1.97,2.55,2.64,1.23,1.09,1.91,1.62,3.84,2.66-1.08.53-3.64-.75-4.43-1.55-1.12-1.14-.86-1.6-1.57-2.21-.81-.7-2.26-1.29-4.83-2.37h0Z"/>
      <path class="cls-5" d="m107.52,145.36c-.02-.13.16-.07.25.02.19.21.25.55.24.84-.03,1.59-1.54,2.85-2.07,4.6-.53,1.75-.03,2.74.36,3.56.08.17-.06.28-.14.16-.56-.82-1.29-2.17-.96-4.14.35-2.09,2.53-3.31,2.32-5.05h0Z"/>
      <path class="cls-5" d="m107.16,153.01c-.05-.04-.11-.13-.07-.23.05-.1.19-.2.35-.13.86.36,1.42,2.2,1.56,2.65.5,1.63.56,3.07,1.27,4.88.32.8.88,1.81,2.01,2.75.68.57,1.61,1.01,2.61,1.52.32.16.14.38-.12.3-1.65-.5-4.32-1.93-5.4-4.59-.77-1.88-.74-4.21-1.31-5.84-.21-.59-.47-.98-.9-1.32h0Z"/>
      <path class="cls-5" d="m137.4,198.21c-.73,1.76-1.52,3.5-2.36,5.21.97-.45,1.76-1.5,2.08-2.21.42-.93.64-2.14.27-3h0Z"/>
      <path class="cls-5" d="m139.36,199.82c-.73,1.77-1.52,3.5-2.36,5.21.97-.45,1.76-1.5,2.08-2.21.42-.93.64-2.14.27-3h0Z"/>
      <path class="cls-5" d="m141.08,201.87c-.73,1.76-1.52,3.5-2.36,5.21.97-.45,1.76-1.5,2.08-2.21.42-.93.64-2.14.27-3h0Z"/>
      <path class="cls-5" d="m142.13,211.96c-1.84.52-3.69.97-5.55,1.38.94.59,2.15.47,2.91.28.98-.25,2.19-.84,2.64-1.66h0Z"/>
      <path class="cls-5" d="m141.54,214.35c-1.84.52-3.69.97-5.55,1.38.84.52,2.09.47,2.85.28.98-.25,2.25-.85,2.7-1.66h0Z"/>
      <path class="cls-5" d="m162.66,205.77c.52,1.93,1.86,6.22,2.38,7.55.26-1.08.11-2.32-.4-3.86-.42-1.28-1.05-2.57-1.98-3.69h0Z"/>
      <path class="cls-5" d="m160.28,207.11c.52,1.93,1.52,5.9,2.04,7.23.26-1.08.29-2.38-.22-3.93-.42-1.28-.9-2.2-1.82-3.31h0Z"/>
      <path class="cls-5" d="m157.48,208.74c.47,2.45,1.19,7.89,1.71,9.57.43-1.88.44-3.03-.02-5-.39-1.63-.77-2.98-1.68-4.57h0Z"/>
      <path class="cls-5" d="m172.77,203.56l-5.96-3.61c2.42.41,3.51,1,4.19,1.39.88.5,1.59,1.34,1.77,2.23h0Z"/>
      <path class="cls-5" d="m178.11,199.15l-5.59-3.97c1.89.31,2.98.79,3.79,1.38.81.61,1.69,1.69,1.8,2.58h0Z"/>
      <path class="cls-5" d="m175.64,201.05l-5.43-3.15c1.42-.12,2.7.34,3.42.76.77.45,1.48,1.09,2.01,2.39h0Z"/>
      <path class="cls-5" d="m137.19,192.12l-.02,4.47,1.3-.86.1,3.83,2.55-3.43-.24,5.21,2.05-2.25-.4,3.59,3.53-2.35-2.55.78v-3.57l-1.7,1.84-.22-4.27-2.31,2.34-.24-2.88-1.18.9-.68-3.33Z"/>
      <path class="cls-3" d="m311.05,151.51c-.77.53-2.39.95-3.79,1.45-1.03.36-1.91.77-2.64.85-3.79,2.31-6.57,4.47-9.5,6.71-3.8,3.86-7.49,9.91-9.4,15.66-1.16,3.52-2.23,7.28-2.59,11.32-.14,1.56-.22,2.77-.45,3.93-.41,2.03-1.48,4.39-2.72,6.6-2.45,4.36-5.57,8.52-10.51,12.68,1.75,4.54-.25,17.46-3.35,28.69,1.7,2.91,4.53,1.24,6.62-1.4-.24-3.73.57-7.94,1.95-12.03,1.37-4.09,3.42-8.3,6.38-12.54,3.04-1.56,6.66-5.8,10.2-9.34,3.84,6.94,6.64,10.58,10,13.55l6.38,4.67,2.37,2.41c-6.54,1.07-11.99,3.22-16.35,6.46.21,5.04-1.42,10.6-5.25,16.78,1.25-.81,2.69-2.04,3.97-3-.9,2.77-2.38,5.34-4.96,8.01-1.43,1.48-3.19,2.89-5.16,4.09-2.22,1.34-4.71,2.41-7.42,4.45-4.55,3.43-7.88,6.91-10.68,12.42l.82,1.01-1.68,7.98c.43.64.76.88.97,1.4.36.88.62,1.82.9,2.77l2.02-1.48c2.32-7.42,6.46-13.61,13.28-18.39l9.76-4.66c2.89-2.39,6.08-4.28,9.36-6.24,5.48-2.65,9.2-5.68,9.64-9.64l5.53-1.63c.53,5.44.84,10.96,2.45,16.08l17.52,12.22c1.8,3.34,2.51,7.39,2.27,11.35-.46,7.66-2.6,11.74-3.59,17.45l.86,4.63,4.83-1.17c.73-.75,1.36-1.48,1.79-2.35.56-1.12.6-2.33.98-3.72-.72-1.44-.7-3.57-.16-5.67,1.41-5.55,4.07-8.37,4.62-12.46.42-3.07.53-6-.18-8.86-3.22-5.21-6.65-10.39-10.28-15.49,2.81-4.77,4.77-9.76,7.05-17.36,2.93,4.06,7.96,7.38,12.34,5.06,3.52-1.86,5.72-4.48,5.55-8.2-.15-3.12-1.83-6.22-3.84-9.63-.56-.95-1.82-2.48-2.83-3.98-2.08-3.08-4.3-6.81-5.64-10.73-.7-2.04-1.29-5.35-1.3-7.44,0-2.05.21-4.24,1.01-6.3,1.43-3.7,4.44-7.16,7.7-8.76.65-.32,1.62-.74,2.49-.9,1.15-.21,2.12-.12,3.17-.44,1.54-.46,2.94-1.5,2.83-3.52l-.55.49c.09-.69.55-1.07.67-1.86.11-.74-.07-1.15-.3-1.57l-.51.68c.12-.75.37-1.39.41-1.95.09-1.03-.25-1.67-.55-1.86-.22,1.26-.7,2.13-1.3,2.75-.55.57-.75.27-1.37.75-1.46,1.17-1.93,2.82-3.45,3.5-1.72-.07-3.61,1.26-5.78,3.24-1.74,1.59-3.4,3.53-4.71,5.7-1.92,3.15-2.75,6.63-2.75,9.47,0,4.16.92,7.66,2.48,11.47,2.27,5.49,5.95,10.52,8.67,15.08,1.62,2.73,2.15,5.78,1.55,7.59-.74,2.26-4.07,3.38-6.32,2.39-3.18-1.4-5.16-5.44-5.41-7.33-.23-1.73-.14-3.4-.02-5.08.07-1.01.21-2.05.09-3.05-.14-1.21-.28-2.68-.55-3.86-2.25-9.79-11.89-19.64-18.45-25.82-4.22-6.66-2.61-10.72-2.64-14.86.8-2.66,3.11-6.32,5.22-9.26.67-.93,1.23-1.81,2.02-2.52.86-.77,1.82.5,2.49.05.32-.21.53-.87.65-1.61.14-.96.14-2.02.59-2.27.75-.41,2.36-.57,2.5-1.07.1-.38-.11-.84-.51-1.4-.57-.79-1.33-1.62-1.13-2.14.18-.46,1.49-.6,2.28-.92.36-.15.61-.28.74-.6.2-.48-.13-1-.59-1.48-.84-.89-2-1.54-1.79-2.23.24-.77,2.47-1.91,2.63-3.16.09-.66-.27-1.57-.96-2.25-.89-.87-1.99-1.02-1.86-1.86.1-.68,1.05-1.29,1.64-1.99.38-.45.67-.98.68-1.56,0-.67-.48-1.39-1.31-1.86-.71-.4-1.41-.27-2.35-.87-.44-.28-.7-.71-.69-1.07.02-1.18.85-1.7,1.45-2.26.61-.56.95-.82.91-1.24-.07-.74-1.67-1.56-3.38-2.49-.2-.11-.93-.61-.93-1.48,0-1.04,1.13-2.96,1.23-3.92.05-.46-.24-.74-.38-.82-.43-.22-1.44-.11-2.6-.19-.79-.05-1.23-.29-1.43-.64-.14-.24-.19-.55-.13-.78.09-.38.41-.71,1.05-1.03.27-.13.17-.5-.27-.54-.52-.05-1.03-.05-1.74.1-.89.2-1.57.39-2.36.63-.25.07-.57.02-.65-.08-.41-.52.46-1.45.82-1.82.24-.24.27-.5-.17-.56-.45-.06-1.56.02-2.49.29-.77.21-1.37.62-1.73.58-.23-.03-.41-.12-.46-.33-.11-.5.53-.98,1.68-1.58.59-.31.29-.8-.09-.77-1.99.13-3.79.55-5,1.46-.52.39-1.01.87-1.33,1.28-.54.68-.8,1.3-1.18,1.28-1.06-.05-2.41-1.5-2.99-2.02l-13.63-12.3c-.24-.22-.84-.73-1.47-1.01-.5-.23-1-.36-1.38-.22-.36.13-.02.77.19,1.02.72.88,1.25,1.51,2.01,2.31l8.83,10.85c.61.75,1.5,1.84,1.89,2.83-1.17.86-2.4,1.67-3.7,2.15-1.01.37-1.69.23-2.45,1.02-.55.57-.75,1.41-.95,2.25-.25,1.01-.5,2.03-1.3,2.62-1.18.86-2.02.82-2.86,1.08-1.77.54-3,1.38-5.06,2.5-.22.12-.37-.06-.69-.12-.24-.05-.58-.16-1-.09-.83.13-1.69.47-1.73,2.3-.47.7-1.73,2.41-1.68,2.98.1.93.7,2.62,1.31,3.21.2.2.65-.05.97-.23l.25.57c-.55.38-1.28.9-1.86,1.44-.65.62-1.11,1.17-1.91,1.62-1.33.74-3.33.68-4.11,1.63.14.32.55.33.91.28.75-.1,1.43-.28,2.24-.38.59-.08,1.12.06,1.73-.1.61-.16,1.19-.7,1.82-.82.93-.18,1.95-.05,2.89-.1.64-.04,1.39-.52,1.91-.57-.4.5-1.25.92-1.56,1.5.01.83.76,1.88,2.36,2.36.09.03.29.14.19.36-.19.43-.37,1-.37,1.54,0,.77.24,1.39.69,1.43.1,0,.3,0,.32-.33.1-1.35.79-2.09,2.28-2.87.75-.39,1-1.69,1.68-2.21.79-.6,2.26-.26,3.55-.87.93-.44,1.68-.88,2.26-1.7.62.89,1.4,1.64,2.65,1.9,1.07.22,2.59.15,4.08-.05h0Z"/>
      <path class="cls-3" d="m287.02,169.06c-4.94,4.05-11.22,9.16-15.45,14.89-2.27,3.08-2.8,6.18-4.45,8.66-2.9,4.35-6.68,7.1-9.84,8.66-.87,3.35-2.44,6.73-2.6,10.04l2.76,3.97c1.45-4.09,4.58-11.52,7.63-12.38,1.25-.14,1.92-.4,3.23-.96,3.29-1.39,8.5-4.33,10.64-6.53,1.83-1.89,2.42-4.43,2.81-7.7.24-2.02.24-3.18.41-4.78.41-3.89,3.26-10.42,4.85-13.89h0Z"/>
      <path class="cls-5" d="m315.59,149.96c-.17.41-.61,1.13-1.13,1.18-.92.09-.87-.25-1.34-.32-.42-.06-.88.08-1.21.36-.35.29-.66.74-.76,1.41,5.33,2.09,17.18,6.97,22.36,11.69.63-.78,1.05-1.59.94-2.29-.14-.85-1.04-1.08-1.52-1.39-.34-.22-.43-.59-.36-1.05.08-.45.48-.91.88-1.39l-1.18-.65v-.02c.27-.61.43-1.23.59-1.86.31.06.6.14.95.35.33.2.61.1.73-.06.17-.21.1-.61-.31-.85-.41-.24-.71-.25-1.12-.39.08-.28.14-.43.26-.73.14-.34.11-.61-.27-.77-.29-.12-.57.1-.69.41-.12.3-.13.5-.22.8-.36-.13-.74-.28-1.01-.46-.36-.23-.63-.09-.73.12-.11.21-.12.44.21.73.28.25.83.43,1.29.59-.13.5-.31,1.14-.5,1.62l-.02.04-1.23-.68c-.43,1.17-.77,1.35-1.13,1.57-.45.27-1.31-.06-1.71-.23-.43-.17-1.02-.36-1.34-.93-.27-.47-.27-1.2.15-2.54l-.77-.29c.13-.44.23-.88.32-1.33.35.11.69.21,1.01.35.35.16.56.05.68-.11.16-.22.13-.48-.27-.74-.35-.22-.76-.23-1.17-.36.05-.29.11-.5.21-.78.12-.35.12-.66-.28-.82-.29-.12-.54.15-.64.45-.11.3-.18.5-.25.8-.36-.06-.71-.24-.92-.44-.31-.29-.75-.06-.84.16-.08.22-.06.48.31.72.37.25.78.37,1.25.51-.09.43-.18.84-.31,1.25l-1.74-.65c-.73,1.46-2.25,1.55-3.35,1.05-.74-.34-2.29-1.09-1.17-2.96l-1.13-.46c.14-.4.25-.79.32-1.23.35.11.7.23,1.02.38.35.17.55.04.67-.11.17-.22.13-.6-.3-.8-.38-.18-.75-.26-1.16-.39.07-.29.14-.48.24-.76.13-.34.12-.64-.27-.81-.29-.12-.57.11-.68.42-.11.3-.19.55-.27.86-.36-.12-.65-.32-.93-.5-.36-.23-.64-.02-.75.19-.1.21-.13.4.22.67.4.3.73.39,1.32.57-.09.39-.21.77-.34,1.14l-.58-.24Z"/>
      <path class="cls-5" d="m290.02,142.1c-.07.09-.28.14-.41.09-.18-.07-.26-.29-.17-.56.26-.71.8-.95,1.25-.95.6,0,1.85.69,1.76,1.75-.01.17-.16.4-.44.41-.25,0-.54-.17-.6-.53-.12-.69-.23-.79-.61-.84-.3-.03-.54.29-.78.62h0Z"/>
      <path class="cls-5" d="m303.63,135.29c.44-1.61,1.25-2.37,2.35-2.62,1.06-.25,1.58.43,2.5.6.3.05.55,0,.95-.27-.36.93-1.36,2-2.35,2.35-.9.32-1.52.11-2.16-.04-.41-.09-.86-.13-1.28-.02h0Z"/>
      <path class="cls-5" d="m304.51,131.72c1.49-.89,2.86-.86,4.12,0-.57-.91-1.31-1.45-2.1-1.44-.78,0-1.62.79-2.02,1.44h0Z"/>
      <path class="cls-5" d="m307.77,124.42c.5.03.75.21,1,.22,1.05.04,1.77-.07,2.24.14-.09.15-.28.32-.56.37-.48.09-1.46.17-1.8.15-.07,0-.59-.21-.81-.54-.08-.11-.06-.2-.06-.34h0Z"/>
      <path class="cls-5" d="m306.11,122.31c.37.23.6.25.85.26,1.05.04,1.98-.05,2.34.25-.28.12-.4.29-.59.32-.47.08-1.43.12-1.85.15-.06,0-.49-.3-.72-.54-.12-.14-.06-.25-.03-.44h0Z"/>
      <path class="cls-5" d="m304.27,120.3c.24.02.7.2.95.2.79,0,1.23.01,1.69.04.2.01.46.04.63.22-.09.07-.35.11-.45.18-.1.07-.11.14-.25.16-.5.06-1.35.06-1.82.07-.07,0-.43-.13-.63-.48-.06-.11-.1-.25-.11-.38h0Z"/>
      <path class="cls-5" d="m302.34,118.22c.19.04.55.28,1,.3.8.03,1.18.02,1.63.02.23,0,.54.1.54.29-.15.04-.34.08-.44.14-.13.07-.17.11-.32.12-.54.04-1.15.07-1.62.07-.07,0-.49-.3-.7-.51-.08-.08-.08-.31-.09-.45h0Z"/>
      <path class="cls-5" d="m325.14,129.68c.22.09.61.11.96.06.45-.07.77-.21,1.01-.21.47,0,.71.19.99.4.78.6,1.12,1.93,2.46,1.95-.12-.14-.45-.5-.82-.96-.59-.71-1.14-1.4-1.27-1.52-.54-.56-1.11-.7-1.53-.64-.4.05-1.66.43-1.8.93h0Z"/>
      <path class="cls-5" d="m329.25,137.09c.29-.12.62-.12.82-.12.45,0,.98.5,1.16.61.63.39,1.33,1.42,2.19.61-.71,0-1.18-.47-1.81-1.01-.65-.55-1.01-.76-1.45-.75-.31,0-.65.02-.9.66h0Z"/>
      <path class="cls-5" d="m329.11,140.56c.35-.05.6-.07.78-.05.41.04.75.28,1.09.57.48.43,1.22,1.18,1.93.39-.65,0-1.01-.35-1.59-.85-.59-.52-1-.72-1.27-.72-.3,0-.77.1-.93.66h0Z"/>
      <path class="cls-5" d="m326.17,133.26c.3-.03.63.01.8.07.39.12.49.31,1.02.68.59.41,1.36,1.2,2.57.48-.84.1-1.43-.4-1.99-.97-.57-.58-1.02-.84-1.45-.83-.26,0-.7.08-.95.58h0Z"/>
      <path class="cls-5" d="m332.8,149.58c1,.2,1.23.65,1.76,1.2.48.51,1.31,1.33,2.54.83-.97-.09-1.39-.58-1.81-1.22-.42-.66-.83-1.09-1.32-1.17-.28-.05-.81-.05-1.17.36h0Z"/>
      <path class="cls-5" d="m330.43,145.87c1,.2,1.23.65,1.76,1.2.48.51,1.34,1.27,2.57.76-.97-.09-1.36-.51-1.78-1.16-.42-.65-.85-1.12-1.34-1.2-.28-.05-.8-.08-1.22.39h0Z"/>
      <path class="cls-5" d="m331.91,143.95c.86-.13,1.03-.34,1.41.07.36.38,1.04,1.62,2.22.82-1.05-.11-1.57-1.77-2.49-1.81-.48-.02-.87.35-1.14.92h0Z"/>
      <path class="cls-5" d="m322.14,138.05c-1,1.97-2.26,3.27-3.53,4.1-1.64,1.07-3.32,1.38-4.52,1.59,2.19-.06,4.02-.3,4.77-.49.47-.05,2.32-1.74,3.28-5.2h0Z"/>
      <path class="cls-5" d="m303.33,238.11c-.62-.43-.78-.01-.44.38.87,1.01,1.61,2.09,2.07,3.26.68,1.77.85,3.72.42,5.59.93-1.64,1.18-3.68.61-5.53-.54-1.73-1.75-3.06-2.66-3.71h0Z"/>
      <path class="cls-5" d="m302.44,241.56c-.52-.55-.71-.18-.46.27.67,1.19,1.18,2.37,1.35,3.61.25,1.88-.03,3.82-.88,5.53,1.29-1.38,1.95-3.3,1.82-5.23-.11-1.81-1.11-3.41-1.84-4.18h0Z"/>
      <path class="cls-5" d="m300.91,244.88c-.37-.66-.64-.35-.51.15.36,1.32.57,2.59.43,3.83-.21,1.89-.95,3.7-2.18,5.16,1.58-1.03,2.69-2.74,3.03-4.64.32-1.78-.25-3.57-.77-4.5h0Z"/>
      <path class="cls-5" d="m321.88,254.59c.72.23.69-.24.25-.51-1.16-.72-2.18-1.48-2.93-2.49-1.13-1.52-1.83-3.35-1.91-5.26-.46,1.83-.1,3.84.93,5.46.98,1.53,2.64,2.49,3.66,2.81h0Z"/>
      <path class="cls-5" d="m322.88,258.29c.75.05.61-.4.12-.56-1.29-.43-2.47-.93-3.43-1.73-1.46-1.21-2.56-2.83-3.1-4.67-.02,1.89.8,3.75,2.19,5.09,1.3,1.25,3.15,1.8,4.21,1.88h0Z"/>
      <path class="cls-5" d="m326.29,262.61c.75-.1.52-.51,0-.57-1.36-.16-2.61-.41-3.71-1.01-1.67-.9-3.07-2.26-3.97-3.95.36,1.85,1.54,3.52,3.16,4.55,1.53.96,3.45,1.13,4.5.99h0Z"/>
      <path class="cls-5" d="m314.42,227.39c-.45,4.84-.46,10.27-.06,16.38-1.66.23-3.14.4-5.07.71,1.18-.58,2.53-.97,3.77-1.39-.15-5.9.45-10.97,1.36-15.71h0Z"/>
      <path class="cls-5" d="m308.91,191.93l-4.59-3.54c.14,1.18,1.13,2.18,1.83,2.69.95.69,2.07,1.04,2.76.85h0Z"/>
      <path class="cls-5" d="m307.28,194.24l-3.64-4.46c-.12,1.18.58,2.41,1.15,3.06.77.88,1.64,1.39,2.49,1.4h0Z"/>
      <path class="cls-5" d="m303.93,209.02c.75-.09.58-.52.06-.58-1.32-.16-2.6-.45-3.73-1.01-1.7-.84-3.14-2.17-4.09-3.83.42,1.84,1.62,3.51,3.28,4.48,1.56.91,3.36,1.07,4.47.93h0Z"/>
      <path class="cls-5" d="m307.56,211.9c.7-.27.44-.64-.07-.58-1.32.16-2.63.19-3.86-.07-1.85-.41-3.57-1.35-4.89-2.74.86,1.68,2.42,3.02,4.27,3.56,1.74.51,3.52.23,4.56-.17h0Z"/>
      <path class="cls-5" d="m311.08,213.76c.63-.41.3-.71-.19-.55-1.27.42-2.54.71-3.8.68-1.9-.03-3.77-.62-5.34-1.72,1.17,1.48,2.97,2.49,4.89,2.65,1.8.16,3.5-.46,4.44-1.07h0Z"/>
      <path class="cls-5" d="m315.16,215.71c.59-.47.23-.74-.25-.53-1.21.55-2.45.97-3.71,1.08-1.89.16-3.81-.22-5.48-1.14,1.32,1.35,3.21,2.16,5.14,2.12,1.81-.03,3.43-.83,4.3-1.53h0Z"/>
      <path class="cls-5" d="m303.96,168.05c.04.5-.14,1.4-.31,1.81-.27.65-1.21.34-.9-.37.14-.32.27-1.04.25-1.39-.05-.73.92-.7.97-.04h0Z"/>
      <path class="cls-5" d="m295.9,164.34c.26.58.41,1.62.38,2.07-.05.7-1.02.65-1-.13.02-.65-.21-1.26-.35-1.58-.28-.68.7-.97.97-.36h0Z"/>
      <path class="cls-5" d="m307.76,164.77c.19-.54.71-1.21,1.06-1.51.53-.46,1.24.17.66.69-.26.23-.67.83-.81,1.15-.3.68-1.13.29-.91-.33h0Z"/>
      <path class="cls-5" d="m315.55,170.06c.63-.12,1.55-.61,1.9-.9.54-.45-.06-1.26-.66-.76-.27.22-1.08.63-1.42.71-.71.16-.47,1.07.18.95h0Z"/>
      <path class="cls-5" d="m313.15,167.19c.57-.3,1.32-1.03,1.57-1.4.39-.58-.41-1.19-.84-.54-.2.29-.86.91-1.16,1.09-.64.36-.15,1.16.44.86h0Z"/>
      <path class="cls-5" d="m316.94,173.49c.67.11,1.95-.07,2.35-.22.66-.24.4-1.3-.33-1.02-.37.14-1.42.21-1.89.18-.73-.05-.78.95-.13,1.06h0Z"/>
      <path class="cls-5" d="m299.96,170.58c.12-.66.01-2.07-.14-2.47-.25-.64-1.15-.4-1,.29.08.38.18,1.39.11,2.02-.07.66.91.8,1.04.15h0Z"/>
      <path class="cls-5" d="m305.2,164.54c.3-.6.53-2.02.49-2.45-.07-.68-.97-.66-1.02.05-.03.39-.2,1.39-.43,1.98-.24.61.66,1.02.96.43h0Z"/>
      <path class="cls-5" d="m300.5,165.37c.12-.81.01-2.7-.12-3.1-.21-.65-1.11-.43-1.01.27.06.44.18,1.79.1,2.66-.07.66.94.83,1.04.17h0Z"/>
      <path class="cls-5" d="m306.27,168.83c-.38.32-.64.74-.81,1.15-.27.65.57,1.07.87.35.11-.26.28-.54.54-.77.55-.48-.1-1.16-.61-.74h0Z"/>
      <path class="cls-5" d="m313.43,179.41h1.17c.64,0,.72-.96-.06-.95h-1.06c-.71,0-.69.95-.05.95h0Z"/>
      <path class="cls-5" d="m317.97,176.7h1.51c.65,0,.72-.95-.06-.95h-1.4c-.71,0-.7.95-.05.95h0Z"/>
      <path class="cls-5" d="m296.7,171.41c0-.6-.16-1.34-.38-1.74-.33-.62-1.18-.25-.85.46.12.26.25.86.26,1.25.02.73.97.69.96.02h0Z"/>
      <path class="cls-5" d="m311.55,174.33c.58-.15,1.26-.48,1.59-.79.52-.47-.04-1.21-.65-.72-.23.19-.77.46-1.15.56-.7.19-.43,1.11.21.94h0Z"/>
      <path class="cls-5" d="m312.52,176.92c.59.09,1.52,0,1.95-.15.66-.23.44-1.13-.31-.92-.28.08-1.07.17-1.46.12-.72-.1-.84.85-.18.95h0Z"/>
      <path class="cls-5" d="m309.71,172.08c.51-.27,1.02-.81,1.28-1.18.4-.57-.3-1.15-.78-.54-.18.23-.58.64-.91.84-.62.39-.17,1.19.41.87h0Z"/>
      <path class="cls-5" d="m293.09,202.21l.32.92,9.18-9.38.12-4.95-1.32,4.15-8.3,9.25Z"/>
      <path class="cls-3" d="m212.97,193.7c28.85,0,52.24,23.39,52.24,52.24s-23.39,52.23-52.24,52.23-52.24-23.39-52.24-52.23,23.4-52.24,52.24-52.24h0Zm22.51,93.04c-10.91.52-21.35-3.02-29.88-10.76l-4.47,3.25c-.48,3.02-.32,6.05.38,9.02,3.15,2.42,7.5,3.66,11.1,4.28.12,0,.24,0,.36,0,8.16,0,15.84-2.1,22.51-5.79h0Zm-27.15-13.61c9.66,8.73,21.92,11.48,34.41,8.65,4.62-3.84,8.48-8.55,11.34-13.88-3.91,1.31-8.39,1.63-12.03,1.62-9.47-.03-19.55-2.18-28.62-4.91l-5.1,8.53Zm6.3-12.29c8.68,2.61,18.38,4.7,27.44,4.73,4.26.01,10.94-.49,14.58-3.36,1.77-4.74,2.79-9.83,2.91-15.15l-1.77-1.59c-1.54.36-3.17.56-4.75.59l-4.92,4.13-17.13-8.73-15.68,12.28-.68,7.09Zm-36,16.57c5.51-24.41,18.66-44.33,36.22-62.04-1.9-2.08-4.04-3.81-6.44-5.3-23.09,10.4-34.66,28.8-38.69,53.21,2.1,5.25,5.14,10.03,8.91,14.13h0Zm39.49-59.73c-17.83,17.87-31.11,38.01-36.16,63.02,4.2,3.75,9.07,6.75,14.43,8.79l1.21-.73c-.8-3.63-.9-7.34-.19-11.02l.14-.77,6.89-5.01,6.15-10.29.96-9.99,17.34-13.58c-.53-5.8-2.28-12.39-4.55-17.62-1.66-1.38-4.08-2.28-6.23-2.81h0Zm-50.79,37.57c5.22-21.74,17.17-38.38,38.46-48.32l-1.1-2.34c-4.93-.18-9.81.18-14.69.91-4.97,4.19-9.05,8.9-12.91,14.15l-.16.22-4.88,3.78c-3.61,6.62-5.66,14.21-5.66,22.28,0,3.19.32,6.31.94,9.32h0Zm63.93-52.19c4.16,2.88,7.9,6.41,11.14,10.49,6.44,8.09,10.8,18.2,12.21,28.46,1.08-.11,2.16-.32,3.15-.61l1.06-.31.57.5c-1.61-17.36-12.74-31.96-28.12-38.53h0Zm19.49,39.78c-1.28-9.66-5.22-19.23-11.27-26.84-6.76-8.49-15.4-14.34-25.73-16.82-3.7,0-8.15.61-11.6,1.43,1.7,0,3.17.15,4.87.25l2.83,5.47c3.37,2.01,6.31,4.42,8.83,7.44,3.04.7,6.35,1.98,8.63,4.08l.3.27.16.37c2.57,5.75,4.51,13.06,5.07,19.5l14.74,7.51,3.16-2.65Z"/>
      <path class="cls-3" d="m181.8,362.08v-54.25h-19.41v48.88c6.29,2.2,12.76,4.01,19.41,5.38h0Z"/>
      <path class="cls-3" d="m223.05,364.84v-57.02h-19.41v57.11c2.96.18,5.95.27,8.95.27,3.51,0,7-.13,10.45-.37h0Z"/>
      <path class="cls-3" d="m264.24,356.2v-48.38h-19.41v53.95c6.64-1.44,13.12-3.3,19.41-5.57h0Z"/>
      <path class="cls-3" d="m181.8,61.03v48.02h-19.41v-42.64c6.29-2.2,12.76-4.01,19.41-5.38h0Z"/>
      <path class="cls-3" d="m223.05,58.27v50.78h-19.41v-50.87c2.96-.17,5.95-.27,8.95-.27,3.51,0,7,.13,10.45.36h0Z"/>
      <path class="cls-3" d="m264.24,66.91v42.14h-19.41v-47.7c6.64,1.43,13.12,3.3,19.41,5.57h0Z"/>
      <path class="cls-3" d="m175.48,146.53h3.32v7.24h-15.65v-7.24h3.48v-21.05h-3.48v-7.46h27.4v11.71h-8.7v-3.84h-6.36v6.73h8.29v6.79h-8.29v7.12Z"/>
      <path class="cls-3" d="m229.82,133.37v20.06h-7.05v-3.86c-1.39,1.58-2.82,2.74-4.56,3.48-1.75.73-3.84,1.06-6.2,1.06-10.42,0-18.65-8.82-18.53-18.83.12-9.98,8.32-18.34,18.53-18.34,3.45,0,7.41,1.05,9.94,3.55v-2.96h7.14v11.79h-9.68c-1.5-2.11-4.07-3.62-7.18-3.62-5.58,0-9.84,4.07-9.84,9.63,0,5.22,4.12,9.98,9.65,9.98,3.69,0,6.69-1.84,8.09-4.82h-10.26v-7.13h19.96Z"/>
      <path class="cls-3" d="m250.49,136.18h2.68c3.46,0,6.08-1.56,6.08-5.48s-2.57-5.05-5.53-5.05h-3.24v10.53Zm0,10.08h2.15v7.31h-14.42v-7.31h3.49v-20.98h-3.49v-7.4h16.12c1.97,0,4.08.18,5.96.82,4.29,1.48,7.72,5.28,7.88,10.95.13,4.76-1.64,9.94-7.59,11.36l4.49,5.31h3.59v7.25h-9.28l-8.91-12.94v5.62Z"/>
      <path class="cls-3" d="m186.91,182.89h2.61v5.02h-11.18v-5.02h2.66v-15.04h-2.94v-4.53h8.86v19.58Z"/>
      <path class="cls-3" d="m199.66,180.32c-.05,1.8,1.47,3.01,3.08,3.01,1.74,0,3-1.36,3-3.16,0-1.41-1.27-2.88-3.03-2.92-1.74-.04-3,1.3-3.05,3.08h0Zm2.91-12.44c-1.35,0-2.37,1.05-2.37,2.41s1.11,2.31,2.41,2.35c1.46.05,2.44-1.08,2.44-2.45s-1.2-2.31-2.48-2.31h0Zm-4.75,6.81c-1.77-.91-2.95-2.67-2.91-4.97.07-4.14,3.72-6.9,7.8-6.9s7.79,2.89,7.79,6.83c0,2.03-.6,3.73-2.86,5.04,2.52,1.25,3.92,3.25,3.94,6,.04,4.83-4.11,7.65-8.82,7.65s-9.02-2.65-8.98-7.63c.02-2.82,1.65-4.9,4.05-6.01h0Z"/>
      <path class="cls-3" d="m220.67,180.32c-.05,1.8,1.47,3.01,3.08,3.01,1.74,0,3.01-1.36,3.01-3.16,0-1.41-1.27-2.88-3.04-2.92-1.75-.04-3,1.3-3.05,3.08h0Zm2.91-12.44c-1.35,0-2.37,1.05-2.37,2.41s1.11,2.31,2.41,2.35c1.46.05,2.44-1.08,2.44-2.45s-1.2-2.31-2.48-2.31h0Zm-4.75,6.81c-1.78-.91-2.95-2.67-2.92-4.97.07-4.14,3.73-6.9,7.8-6.9s7.79,2.89,7.79,6.83c0,2.03-.6,3.73-2.86,5.04,2.53,1.25,3.92,3.25,3.94,6,.04,4.83-4.12,7.65-8.82,7.65s-9.02-2.65-8.99-7.63c.02-2.82,1.65-4.9,4.06-6.01h0Z"/>
      <path class="cls-3" d="m248.35,172.28c.04-1.97-1.65-3.57-3.59-3.54-2.2.03-3.62,1.68-3.64,3.58-.02,1.94,1.48,3.55,3.5,3.55,2.14,0,3.69-1.56,3.73-3.58h0Zm-2.16,15.63h-7.28l5.64-7.14c-.35.12-.95.19-1.46.19-4.61,0-7.81-3.98-7.85-8.41-.02-1.77.38-3.44,1.22-4.89,1.68-2.86,4.85-4.83,8.21-4.83,5.22,0,9.4,4,9.56,9.77.09,3.27-1.97,6.07-3.41,8.25l-4.63,7.04Z"/>
      <path class="cls-3" d="m188.5,28.62l1.77-.21c2.28-.27,3.88-1.5,3.58-4.08-.29-2.47-2.09-3.12-4.03-2.89l-2.13.25.82,6.93Zm.79,6.63l1.42-.17.57,4.81-9.49,1.12-.57-4.81,2.29-.27-1.63-13.81-2.29.27-.58-4.87,10.61-1.25c1.29-.15,2.7-.2,3.99.07,2.94.64,5.49,2.88,6.04,6.59.46,3.12-.3,6.66-4.11,8.07l3.37,3.15,2.37-.28.56,4.77-6.11.72-6.87-7.82.44,3.7Z"/>
      <path class="cls-3" d="m73.36,90l1.18-1.33c1.53-1.71,1.91-3.7-.03-5.43-1.86-1.66-3.64-.95-4.94.51l-1.43,1.61,5.21,4.64Zm4.99,4.44l.95-1.07,3.62,3.22-6.35,7.14-3.62-3.22,1.54-1.72-10.38-9.25-1.54,1.73-3.66-3.26,7.11-7.97c.87-.98,1.88-1.94,3.03-2.59,2.62-1.47,6.02-1.49,8.89.93,2.41,2.03,4.19,5.19,2.28,8.76l4.61.12,1.58-1.78,3.59,3.19-4.09,4.59-10.32-1.29,2.79,2.48Z"/>
      <path class="cls-3" d="m299.04,48.02l1.57.83c2.03,1.08,4.05.98,5.26-1.32,1.17-2.2.06-3.76-1.66-4.67l-1.9-1.01-3.27,6.16Zm-3.13,5.9l1.26.67-2.27,4.28-8.44-4.48,2.27-4.28,2.04,1.08,6.52-12.28-2.04-1.08,2.3-4.33,9.44,5c1.15.61,2.33,1.37,3.23,2.33,2.05,2.2,2.88,5.49,1.21,8.86-1.4,2.83-4.04,5.3-7.97,4.29l.98,4.51,2.1,1.12-2.25,4.24-5.43-2.88-1.2-10.34-1.75,3.29Z"/>
      <path class="cls-3" d="m369.43,111.86l.95,1.5c1.23,1.93,3.03,2.85,5.23,1.46,2.1-1.34,1.91-3.24.86-4.89l-1.15-1.81-5.89,3.74Zm-5.64,3.58l.76,1.2-4.09,2.6-5.12-8.07,4.09-2.59,1.24,1.95,11.73-7.45-1.24-1.95,4.14-2.63,5.73,9.01c.7,1.1,1.35,2.34,1.66,3.63.7,2.92-.22,6.19-3.33,8.3-2.61,1.77-6.14,2.61-9.05-.21l-1.38,4.4,1.28,2.01-4.05,2.57-3.3-5.19,4.07-9.58-3.14,2Z"/>
      <path class="cls-3" d="m175.83,28.7l3.43,12.9-4.53,1.21-.66-2.48c-.62,1.25-1.34,2.25-2.34,3.02-1,.77-2.29,1.34-3.81,1.75-6.7,1.78-13.5-2.48-15.14-8.95-1.63-6.44,2.22-13.22,8.78-14.97,2.22-.59,4.94-.59,7,.58l-.51-1.9,4.59-1.22,2.02,7.58-6.23,1.66c-1.33-1.1-3.24-1.63-5.24-1.1-3.59.95-5.64,4.3-4.69,7.88.89,3.36,4.36,5.72,7.92,4.77,2.37-.63,3.98-2.33,4.38-4.48l-6.59,1.75-1.22-4.59,12.84-3.41Z"/>
      <path class="cls-3" d="m52.3,133.26l.98-1.97,4.3,2.15-4.64,9.31-4.3-2.15,1.04-2.07-12.52-6.24-1.03,2.07-4.44-2.21,8.12-16.28,6.96,3.47-2.58,5.18-2.29-1.14-1.88,3.78,4,2,2.46-4.93,4.03,2.01-2.46,4.93,4.24,2.11Z"/>
      <path class="cls-3" d="m84.01,354.34l1.62,1.49-3.25,3.55-7.67-7.02,3.25-3.55,1.71,1.56,9.44-10.32-1.71-1.56,3.35-3.66,13.43,12.29-5.25,5.74-4.27-3.9,1.72-1.88-3.11-2.85-3.02,3.3,4.06,3.72-3.04,3.32-4.06-3.72-3.19,3.49Z"/>
      <path class="cls-3" d="m94.25,78.05l3.09-2.69-1.67-1.88,4.33-3.77,5.08,5.83-13.57,11.84-3.16-3.63,1.74-1.52-9.19-10.54-1.75,1.52-3.26-3.74,13.57-11.83,5.16,5.92-4.41,3.84-1.68-1.93-2.98,2.6,2.76,3.17,4.05-3.53,2.96,3.4-4.05,3.53,2.98,3.41Z"/>
      <path class="cls-3" d="m212.2,33.38l4.09-.03-.04-2.51,5.74-.04.06,7.74-18.01.13-.04-4.81,2.32-.02-.1-13.98-2.32.02-.04-4.96,18-.13.06,7.85-5.85.04-.02-2.55-3.95.03.03,4.2,5.37-.04.03,4.5-5.37.04.03,4.53Z"/>
      <path class="cls-3" d="m232.73,34.38l4.07.47.27-2.5,5.7.65-.88,7.68-17.89-2.05.55-4.78,2.3.26,1.59-13.89-2.3-.26.56-4.92,17.88,2.04-.89,7.8-5.82-.66.29-2.54-3.93-.45-.48,4.17,5.34.61-.51,4.48-5.34-.61-.52,4.5Z"/>
      <path class="cls-3" d="m351.98,98.67l2.57,3.18,1.94-1.6,3.61,4.47-6.01,4.86-11.33-14,3.74-3.02,1.46,1.8,10.87-8.8-1.46-1.8,3.85-3.12,11.32,13.99-6.11,4.94-3.68-4.55,1.99-1.61-2.49-3.07-3.27,2.64,3.38,4.18-3.5,2.83-3.38-4.18-3.52,2.85Z"/>
      <path class="cls-3" d="m221.46,390.79l2.2-.09-.2-4.81-10.39.45.21,4.81,2.31-.1.59,13.91-2.31.1.21,4.89,18.19-.78-.33-7.71-5.78.25.11,2.55-4.22.18-.58-13.63Z"/>
      <path class="cls-3" d="m241.35,388.92l2.17-.35-.75-4.75-10.27,1.63.75,4.75,2.29-.36,2.18,13.75-2.29.36.76,4.83,17.98-2.85-1.21-7.62-5.71.91.4,2.52-4.17.66-2.13-13.48Z"/>
      <path class="cls-3" d="m301.94,368l1.91-1.1-2.4-4.17-9.01,5.19,2.4,4.17,2-1.16,6.95,12.06-2,1.16,2.44,4.24,15.78-9.08-3.85-6.69-5.01,2.89,1.27,2.21-3.66,2.11-6.81-11.82Z"/>
      <path class="cls-3" d="m129.74,54.22l1.94-1.05,2.3,4.23-9.14,4.97-2.3-4.23,2.03-1.11-6.57-12.11-2.15,1.17,1.47,2.68-3.96,2.15-3.92-7.23,17.37-9.43,3.94,7.26-3.95,2.14-1.45-2.66-2.16,1.17,6.54,12.05Z"/>
      <path class="cls-3" d="m154.89,395.72l2.09.7-1.54,4.56-9.85-3.33,1.54-4.56,2.19.74,4.41-13.05-2.32-.78-.97,2.9-4.26-1.44,2.63-7.79,18.73,6.33-2.64,7.82-4.25-1.44.97-2.87-2.33-.79-4.39,12.99Z"/>
      <path class="cls-3" d="m48.1,102.01c3.69-5.75,11.35-7.41,17.09-3.72,5.75,3.69,7.42,11.35,3.72,17.1-3.69,5.75-11.35,7.41-17.09,3.72-5.75-3.69-7.41-11.35-3.72-17.09h0Zm4.97,3.2c1.93-3,5.93-3.87,8.93-1.94,3,1.93,3.87,5.92,1.95,8.93-1.93,3-5.93,3.87-8.93,1.94-3-1.93-3.87-5.92-1.95-8.92h0Z"/>
      <path class="cls-3" d="m115.08,354.54c5.59,3.93,6.94,11.64,3.01,17.23-3.93,5.59-11.65,6.94-17.24,3.01-5.59-3.93-6.94-11.64-3.01-17.23,3.93-5.59,11.64-6.94,17.23-3.01h0Zm-3.4,4.84c2.92,2.05,3.62,6.08,1.57,9-2.05,2.92-6.08,3.62-9,1.57-2.92-2.05-3.62-6.08-1.57-9,2.05-2.92,6.08-3.62,9-1.57h0Z"/>
      <path class="cls-3" d="m136.98,367.54c6.17,2.93,8.81,10.3,5.88,16.48-2.92,6.17-10.3,8.81-16.48,5.88-6.17-2.93-8.81-10.31-5.88-16.48,2.93-6.17,10.31-8.8,16.48-5.88h0Zm-2.53,5.34c3.22,1.53,4.6,5.38,3.07,8.6-1.53,3.22-5.38,4.6-8.61,3.07-3.22-1.53-4.6-5.38-3.07-8.6,1.53-3.23,5.38-4.6,8.6-3.07h0Z"/>
      <path class="cls-3" d="m329.91,52.23c5.56,3.98,6.84,11.7,2.87,17.26-3.98,5.56-11.7,6.84-17.26,2.87-5.55-3.97-6.84-11.7-2.87-17.26,3.97-5.56,11.7-6.84,17.26-2.87h0Zm-3.44,4.81c2.9,2.07,3.57,6.11,1.5,9.01-2.07,2.9-6.11,3.58-9.01,1.5-2.9-2.07-3.57-6.11-1.5-9.01,2.07-2.9,6.11-3.57,9.01-1.5h0Z"/>
      <path class="cls-3" d="m280.19,372.6c2.04-.84,4.78-.85,6.88.07l-.81-1.97,4.45-1.84,3.32,8.04-5.18,2.14c-1.78-1.43-4.19-1.9-6.45-.97-3.3,1.36-4.78,5.1-3.42,8.4,1.36,3.3,5.42,4.71,8.26,3.58,2.61-1.05,3.84-3.31,3.85-5.2l5.9-2.44c.73,4.58-1.92,10.77-7.48,13.06-5.82,2.4-13.42-.41-16.03-6.73-2.61-6.31.4-13.55,6.71-16.16h0Z"/>
      <path class="cls-3" d="m109.64,70.88l.68.96-3.7,2.58-4.36-6.25,4.35-3.05c.93,1.35,2.31,1.99,3.98,1.04,1-.57,1.55-1.98.72-3.16-.44-.62-1.26-.97-2.02-.92-1.32.08-2.78.71-4.07.96-2.07.4-3.55.43-4.83.08-1.24-.35-2.69-1.26-3.54-2.48-2.37-3.39-1.5-7.86,1.89-10.23,1.13-.79,2.72-1.24,3.98-.95l-.54-.77,3.61-2.52,3.91,5.6-4.24,2.96c-.89-.91-1.99-1.54-3.45-.51-.83.58-1.15,1.82-.53,2.81.46.72,1.33,1.02,2.12.92,1.68-.22,3.35-1,5.04-1.29,1.78-.3,3.07-.21,4.28.25,1.2.46,2.13,1.3,2.91,2.42,2.53,3.64,1.62,8.08-2.02,10.6-1.23.85-2.98,1.27-4.17.95h0Z"/>
      <path class="cls-3" d="m369.93,133.5l-1.06.51-1.95-4.07,6.87-3.3,2.3,4.79c-1.48.7-2.34,1.96-1.66,3.76.41,1.08,1.71,1.85,3.01,1.22.69-.33,1.16-1.09,1.23-1.84.13-1.32-.26-2.87-.3-4.18-.06-2.11.14-3.57.7-4.77.54-1.17,1.68-2.45,3.02-3.09,3.73-1.79,8-.22,9.78,3.51.6,1.25.79,2.89.3,4.08l.85-.41,1.9,3.96-6.16,2.96-2.24-4.66c1.04-.73,1.84-1.72,1.06-3.33-.44-.91-1.61-1.43-2.69-.97-.78.34-1.22,1.15-1.25,1.94-.05,1.7.45,3.48.46,5.18,0,1.8-.29,3.07-.93,4.18-.65,1.11-1.62,1.89-2.86,2.49-4,1.92-8.23.3-10.13-3.7-.64-1.35-.77-3.15-.26-4.27h0Z"/>
      <path class="cls-3" d="m252.79,38.04l2.18.54-1.18,4.73-10.02-2.49,1.18-4.74,2.21.55,3.36-13.53-2.21-.55,1.17-4.7,7.28,1.81,5.8,15.23,2.05-8.29-2.25-.55,1.17-4.7,10.06,2.5-1.17,4.7-2.26-.56-4.54,18.27-5.07-1.26-5.81-14.84-1.96,7.89Z"/>
      <path class="cls-3" d="m336.12,89.02l-4.64-4.45,8.87-17.54-1.65-1.58,3.34-3.49,7.34,7.04-3.34,3.48-1.3-1.24-5.31,10.04,10.09-5.45-1.37-1.31,3.34-3.48,7.11,6.82-3.34,3.48-1.62-1.56-17.5,9.25Z"/>
      <path class="cls-3" d="m172.62,400.18l1.88.4c1.71.36,3.33.3,3.77-1.79.41-1.93-1.18-2.57-2.91-2.93l-1.74-.37-.99,4.7Zm1.95-9.25l1.61.34c1.32.28,3.22.56,3.66-1.36.36-1.56-.79-2.36-2.29-2.67l-2.11-.44-.88,4.14Zm-10.85,12.54l1-4.75,2.26.47,2.88-13.63-2.26-.48,1.01-4.79,11.03,2.32c3.55.75,6.54,3.02,5.64,7.25-.42,2-1.62,3.84-4.16,4.34,2.16,1.22,3.33,3.78,2.76,6.27-1.36,5.87-5.71,6.04-9.69,5.21l-10.46-2.21Z"/>
      <path class="cls-3" d="m346.67,351.93l1.38-1.33c1.26-1.21,2.12-2.59.64-4.12-1.37-1.43-2.79-.47-4.07.76l-1.28,1.23,3.32,3.46Zm-6.55-6.81l1.18-1.14c.97-.93,2.27-2.34.93-3.79-1.08-1.17-2.39-.68-3.49.39l-1.55,1.49,2.93,3.05Zm4.26,16.02l-3.37-3.5,1.66-1.6-9.66-10.04-1.66,1.6-3.39-3.52,8.13-7.81c2.61-2.52,6.17-3.71,9.16-.59,1.41,1.47,2.26,3.5,1.25,5.88,2.22-1.09,5-.63,6.73,1.24,4.09,4.42,1.79,8.13-1.14,10.94l-7.71,7.41Z"/>
      <path class="cls-3" d="m200.73,398.39l-1.38-6.07-2.45,5.77,3.83.31Zm-5.57,4.08l-.85,2.16,2.25.18-.34,4.16-10.36-.84.39-4.91,2.3.18,6.81-13.43-2.23-.18.39-4.81,8.97.73,6.05,19.3,2.3.19-.39,4.91-10.69-.86.34-4.16,2.21.18-.56-2.27-6.58-.53Z"/>
      <path class="cls-3" d="m323.37,353.88l-1.43,1.07-2.93-3.92,7.87-5.89,2.93,3.91-1.83,1.37,6.32,8.45c1.47,1.97,2.17,3.88,2.09,5.72-.11,2.44-1.51,4.69-3.96,6.53-3,2.25-5.81,2.71-8.14,1.82-1.59-.61-2.88-1.84-4.2-3.61l-6.24-8.34-1.83,1.37-2.93-3.91,7.86-5.88,2.93,3.92-1.39,1.04,6.11,8.16c1.17,1.57,2.79,2.48,4.67,1.07,1.54-1.16,1.55-2.94.23-4.73l-6.11-8.16Z"/>
    </g>
  </g>
</svg>