<?xml version="1.0" encoding="UTF-8"?>
<svg id="Layer_2" data-name="Layer 2" xmlns="http://www.w3.org/2000/svg" viewBox="0 0 420.41 419.82">
  <defs>
    <style>
      .cls-1 {
        fill: #40569a;
      }

      .cls-1, .cls-2, .cls-3, .cls-4, .cls-5, .cls-6, .cls-7, .cls-8 {
        fill-rule: evenodd;
        stroke-width: 0px;
      }

      .cls-2 {
        fill: #1e3b83;
      }

      .cls-3 {
        fill: #203d82;
      }

      .cls-4 {
        fill: #21418e;
      }

      .cls-5 {
        fill: #231f20;
      }

      .cls-6 {
        fill: #2e4b94;
      }

      .cls-7 {
        fill: #ffe600;
      }

      .cls-8 {
        fill: #fff;
      }

      .cls-9 {
        fill: none;
        stroke: #1b1918;
        stroke-width: .43px;
      }
    </style>
  </defs>
  <g id="Layer_1-2" data-name="Layer 1">
    <g>
      <path class="cls-8" d="m377.52,188.67c-6.08-.41-10.73-4.2-12-9.89-1.63-7.31,2.44-14.03,9.41-15.71,6.82-1.64,13.96,2.12,15.56,9.29,1.31,5.88-1.46,12.66-7.2,15.24l-1.43-6.7c2.69-1.79,3.74-4.21,3.17-6.84-.86-3.96-5-5.41-8.14-4.98-2.97.41-5.92,3.07-5.7,7.61.13,2.72,2.76,4.8,5.26,5.22l1.07,6.76Z"/>
      <path class="cls-8" d="m378.87,151.96l-2.83-7.1-3.94,1.43,2.66,6.81-5.1,1.89-2.62-6.53-8.82,3.36-2.4-5.93,23.27-8.76,5.06,12.78-5.28,2.03Z"/>
      <path class="cls-8" d="m367.14,113.22l-17.11,2.65-7.58,5.36-3.71-5.43,7.16-5.05,8.87-14.85,4.18,5.6-5.94,8.35,9.97-2.32,4.15,5.68Z"/>
      <path class="cls-8" d="m276.81,44.07l-4.63-1.68-6.51,18.06-5.83-2.25,6.44-17.84-4.67-1.62,1.87-5.24,15.2,5.24-1.87,5.33Z"/>
      <path class="cls-8" d="m348.92,97.57l-3.27-3.69-14.33,12.77-4.05-4.76,14.16-12.61-3.34-3.65,4.14-3.72,10.86,11.86-4.19,3.79Z"/>
      <path class="cls-8" d="m245.13,54.07l-6.35-1.13,1.33-9.81-7.3-1.16-1.62,9.79-6.7-1.06,3.89-24.25,6.56.99-1.43,9.21,7.36,1.07,1.39-9.11,6.65.96-3.77,24.49Z"/>
      <path class="cls-8" d="m192.82,42.39c.44,2.86-.28,5.33-1.65,7.29-1.37,1.96-3.28,2.96-5.96,3.42-2.59.45-5.52-.15-7.39-1.45-1.99-1.39-3.18-3.5-3.64-6.19l-2.69-15.64,6.61-1.11,2.34,15.04c.47,3.05,1.8,3.99,3.59,3.67,1.88-.34,2.94-1.5,2.43-4.54l-2.5-15.11,6.44-1.02,2.41,15.66Z"/>
      <path class="cls-8" d="m160.86,58.92c-7.13,1.99-14.27-1.47-16.13-8.48-1.86-7.02,1.85-14.43,9-16.32,7.24-1.92,14.2,2.13,16.08,9.23,1.87,7.06-1.96,13.63-8.95,15.57h0Zm-5.68-19.15c-3.84,1.12-5.38,4.79-4.34,8.75,1.04,3.94,5.32,6,8.63,4.96,3.51-1.11,5.17-5.26,4.14-8.63-1.11-3.62-4.58-6.19-8.43-5.07h0Z"/>
      <path class="cls-8" d="m148.34,62.73l-6.51,3.64-8.6-4.45,3.66,6.8-5.75,3.07-11.47-22.37,8.5-4.16c4.64-2.26,9.36-1.63,12.12,3.5,1.95,3.62,1,7.55-1.91,9.54l9.96,4.43Zm-20.55-10.93l3.2,5.99,1.88-.95c2.51-1.26,3.02-3.33,2.39-4.61-.98-1.97-2.86-2.84-5.17-1.64l-2.3,1.2Z"/>
      <path class="cls-8" d="m289.42,70.98l-6.83-2.99-1.65-9.54-3.2,7.03-5.92-2.73,10.85-22.45,8.48,4.05c4.66,2.22,6.96,6.47,4.53,11.77-1.71,3.74-5.41,5.36-8.75,4.25l2.49,10.61Zm-3.71-22.98l-2.84,6.18,1.89.92c2.52,1.23,4.48.39,5.11-.89.98-1.97.53-4-1.82-5.11l-2.35-1.11Z"/>
      <path class="cls-8" d="m118.24,80.64c-6.25,4.19-13.76,2.7-17.95-3.55-4.03-6.01-2.5-13.79,3.53-17.84,6.27-4.2,13.84-2.89,18.06,3.41,4.17,6.22,2.58,13.81-3.64,17.98h0Zm-11.06-16.66c-2.91,2.33-3.82,6.16-1.47,9.43,2.11,2.93,6.62,4.44,9.42,2.39,3.19-2.33,3.66-6.43,1.56-9.57-2.21-3.31-6.55-4.62-9.51-2.25h0Z"/>
      <path class="cls-8" d="m102.07,83.15c1.79,2,2.13,4.62,1.74,6.8-.34,1.91-1.72,3.32-3.65,5.17l-6.22,5.97-17.14-17.54,6.68-6.73c1.61-1.62,3.32-2.55,4.99-2.71,1.95-.19,3.62.49,5.18,2.15,1.66,1.77,1.77,3.35,1.45,5.43,2.6-1.09,4.94-.8,6.96,1.45h0Zm-12.24-2.08c-1-1.02-2.31-.16-2.95.47l-1.64,1.65,2.55,2.58,1.47-1.4c1.03-.98,1.53-2.32.57-3.29h0Zm1.66,8.47l2.95,3.07,1.98-1.83c.83-.77,1.86-2.44.84-3.53-1.05-1.12-2.16-1.15-3.78.39l-1.99,1.9Z"/>
      <path class="cls-8" d="m87.52,98.21c3.6,3.12,2.99,7.89-.03,11.55-3.44,4.16-8.61,4.54-12.66,1.13l4.32-4.89c1.3,1.09,2.95,1.48,4.06.27.86-.93,1.1-2.09.1-3.2-1.18-1.31-3.19-.79-6.29,1.51-2.51,1.86-6.15,2.42-9.07.14-3.39-2.65-3.22-7.98-.3-11.46,3-3.58,7.79-4.41,11.37-1.39l-3.91,4.81c-.98-.75-2.5-.91-3.34.05-.84.96-.63,2.13.13,2.94.71.76,1.7.81,3.3-.17,4.22-2.62,8.55-4.55,12.32-1.29h0Z"/>
      <path class="cls-8" d="m80.45,117.7l-2.89,4.76-17.74.02,12.99,7.61-3.17,5.46-21.2-12.85,3.01-4.89,17.68.12-13.19-7.79,3.45-5.34,21.06,12.9Z"/>
      <path class="cls-8" d="m315.37,89.95l-4.46-3.34,1.72-17.66-8.85,12.18-5.12-3.69,14.86-19.84,4.57,3.47-1.85,17.59,9.04-12.37,4.98,3.96-14.9,19.7Z"/>
      <path class="cls-8" d="m68.35,138.76l-2.84,5.9-22.4-10.46,2.77-5.94,22.47,10.5Z"/>
      <path class="cls-8" d="m295.86,75.47l-5.54-3.49,12.95-21.07,5.58,3.43-12.99,21.13Z"/>
      <path class="cls-8" d="m322.49,97.05l-4.58-4.69,17.49-17.47,4.63,4.63-17.55,17.53Z"/>
      <path class="cls-8" d="m64.5,146.03l-2.33,6.54-3.75-.08-2.98,7.98,3.22,2.38-2.14,6.63-20.44-17.49,1.65-4.68,26.78-1.28Zm-11.55,6.33l-8.69-.19,6.89,5.11,1.8-4.91Z"/>
      <path class="cls-8" d="m42.43,167.03c8.02.65,13.57,7.28,12.3,15.31-1.15,7.28-7.93,11.9-15.13,10.76-7.24-1.15-11.55-7.98-10.42-15.07.41-2.59,1.47-4.55,3.22-6.64,1.9-2.27,4.82-3.95,7.78-4.08l-1.03,7.02c-2.43.74-3.84,2.38-4.21,4.77-.63,3.98,1.72,6.84,5.55,7.66,3.83.82,8.15-1.17,8.49-5.3.26-3.1-.47-5.51-2.89-6.14l-.98,7.08-5.07-.86,2.41-14.5Z"/>
      <path class="cls-8" d="m222.29,36.21c.83,8.01-4.69,14.67-12.81,14.89-7.37.19-13.15-5.63-13.34-12.92-.19-7.33,5.74-12.81,12.91-12.99,5.3-.14,11.3,3.5,12.55,8.85l-7.09.27c-1.17-2.25-3.04-3.34-5.46-3.28-4.03.11-6.41,2.95-6.52,6.85-.11,3.92,2.64,7.8,6.77,7.38,3.09-.31,5.33-1.47,5.51-3.96l-7.14.33-.07-5.14,14.7-.28Z"/>
      <path class="cls-8" d="m360.36,157.56l5.64-1.96,1.93,5.55-5.65,1.96-1.92-5.55Z"/>
      <path class="cls-8" d="m368.09,192.93l5.95-.58.57,5.84-5.95.58-.57-5.84Z"/>
      <path class="cls-7" d="m108.44,296.58c69.23,17.78,138.14,16.9,206.77-.11l15.41,39.71c-36.03,11.62-77.76,20.63-121.1,20.55-39.38-.07-79.5-7.51-116.97-19.06l15.89-41.09Z"/>
      <path class="cls-3" d="m267.9,334.55l6.25-1.25c.94,1.52,2.04,2.63,3.79,2.03,1.51-.52,2.23-1.54,1.91-3.5-.32-2.02-3.21-2.93-6.08-1.15l-1.01-4.9c1.68.14,4.07-.58,3.86-3.08-.13-1.53-.87-2.28-2.38-2.05-1.33.2-1.78,1.58-1.63,2.84l-6.05,1.06c-1.11-4.91,2.77-9.06,7.28-9.45,4.94-.43,7.86,1.43,8.79,5.19.54,2.17-.63,4.24-2.11,5.84,3.55.58,5.23,2.24,5.65,5.43.63,4.72-2.94,8.16-7.73,8.97-5.61.95-9.35-1.3-10.54-5.97h0Z"/>
      <path class="cls-3" d="m256.26,343.85l-7.14,1.04,6.81-20.65-9.77,1.18-.55-5.54,16.28-1.89.4,5.54-6.03,20.32Z"/>
      <path class="cls-2" d="m229.44,332.55c-1.92-1.08-2.9-2.75-2.9-4.99,0-4.27,3.66-7.23,7.59-7.23s7.76,2.97,7.76,6.35c0,2.36-.64,3.73-2.31,5.09,2.84,1.31,4.5,3.35,4.5,6.59,0,5.5-5.02,8.04-9.4,8-4.32-.04-8.95-2.54-8.95-7.75,0-3.18,1.03-4.61,3.69-6.06h0Zm2.58,5.51c-.06,1.67,1.36,2.82,3,2.82s2.8-1.17,2.88-2.79c.09-1.84-1.31-3.15-2.95-3.14-1.83.01-2.86,1.14-2.93,3.1h0Zm-.32-10.04c0,1.29,1.1,2.43,2.48,2.41,1.38-.02,2.56-1.01,2.52-2.54-.03-1.43-1.21-2.43-2.46-2.43-1.45,0-2.54,1.11-2.54,2.55h0Z"/>
      <path class="cls-2" d="m216.99,346.73h-6.07l-.14-19.47h-4.29l.04-5.28h10.36l.1,24.76Z"/>
      <path class="cls-2" d="m191.13,346.1l-5.52-.36.37-5.34,5.48.41-.34,5.29Z"/>
      <path class="cls-2" d="m187.45,321.2l-.41,5.33-5.02-.48-1.63,19.36-6.14-.53,1.63-19.46-5.06-.34.41-5.33,16.23,1.45Z"/>
      <path class="cls-2" d="m150.86,333.68l6.34.61c-.29,2.23.07,3.59,1.85,4.02,1.44.35,3.09-.51,3.23-1.86.24-2.27-1.85-3.13-3.67-4.09-2.04-1.07-3.9-2.45-4.81-3.73-2.16-3.05-1.49-6.86,1.33-9.09,3.36-2.66,8.82-1.93,11.99.51,2.01,1.55,2.66,3.79,2.34,6.57l-6.06-.72c.12-.88-.16-1.81-.88-2.4-1.27-1.04-2.5-.58-3.1-.04-.83.75-.87,1.74-.5,2.55.33.73,1.35,1.2,2.84,2.23,1.96,1.37,3.8,2.16,5.32,4.09.9,1.15,1.19,2.28,1.17,4.04-.05,5.73-4.57,7.88-9.93,7.17-5.13-.67-8.2-4.32-7.47-9.87h0Z"/>
      <path class="cls-2" d="m146.79,341.24l-14.12-2.49,4.67-24.73,14.12,2.7-1.05,5.62-7.92-1.47-.82,4,7.36,1.4-.9,4.98-7.32-1.4-.77,4.57,7.6,1.47-.84,5.34Z"/>
      <path class="cls-7" d="m209.48,140.86c9.44,0,14.59,7.37,15.14,14.33,9.33.54,14.6,7.53,14.52,15.15-.09,8.81-6.13,14.03-13.87,15.2-.85,15.04,10.97,26.23,23.78,26.67,15.12.52,26.29-12,25.82-26.41.05-.37-.18-.54-1-.38-10.09,1.82-16.91-7.14-16.88-14.71.05-9.62,8.23-16.61,16.24-15.45.26-7.69,5.82-13.86,14.56-14.38v90.67l-78.32-.21-79.15.18.08-90.75c9.29-.27,15.59,6.85,15.85,14.55,8.01-1.16,14.87,7.18,14.81,15.45-.06,7.57-7.21,16.08-16.06,14.82-.83-.16-.99-.16-.95.21-.47,14.41,10.7,26.93,25.82,26.41,12.82-.44,24.96-11.23,24.12-26.27-8.45-.24-15.76-6.73-15.78-15.54-.02-7.62,6.48-15.85,16.09-15.21.27-7.02,5.72-14.33,15.17-14.33h0Z"/>
      <path class="cls-7" d="m130.31,247.37l157.52-.04-.03,31.07-157.51-.05.02-30.98Z"/>
      <path class="cls-2" d="m101.84,127.5c-1.31,23.85-4.89,47.2-5.06,70.88-.29,39.83,10.28,73.26,30.05,102.49,2.41.5,4.81.98,7.22,1.45-20.53-28.65-32.47-62.38-32.17-103.9.16-22.3,3.37-44.46,4.82-66.69,18.85-3.87,37.77-8.21,56.41-13.42,15.72-4.4,31.25-9.42,46.39-15.3,32.97,12.82,68.21,22.07,103.01,28.76,1.05,22.46,4.51,44.81,4.53,67.29,0,3.67-.09,7.28-.27,10.83-1.88,36.74-13.48,67.04-32.22,93.09,2.38-.42,4.77-.86,7.15-1.32,19.63-28.9,30.47-62.29,30.44-102.6-.02-23.79-3.91-47.7-4.7-71.55-37.24-6.94-75.12-17.03-107.94-29.98-33.18,13.07-69.68,22.31-107.67,29.98h0Z"/>
      <path class="cls-2" d="m209.56,370.51c-7.23-4.7-14.21-9.51-20.91-14.49-3.12-.2-6.24-.45-9.36-.73,9.39,7.32,19.49,14.39,30.27,21.29,10.73-6.85,20.83-13.9,30.24-21.22-3.11.28-6.23.52-9.36.72-6.68,4.95-13.64,9.75-20.87,14.43h0Z"/>
      <path class="cls-4" d="m130.29,278.35l.02-30.98h32.75s0-15.92,0-15.92l-29.01.07c-8.29,6.2-16.52,13.24-24.69,21.15,5.51,18.2,13.92,34.62,24.68,49.65,9.67,1.85,19.34,3.34,29,4.48v-28.43s-32.75,0-32.75,0Z"/>
      <path class="cls-4" d="m255.32,247.34h32.51s-.03,31.06-.03,31.06h-32.45s.03,28.74.03,28.74c9.73-1.05,19.45-2.44,29.17-4.16,18.74-26.05,30.34-56.36,32.22-93.09-9.5-4.23-19.13-7.42-28.98-9.72v31.38l-32.49-.09.02,15.88Z"/>
      <path class="cls-4" d="m255.29,211.67c7.94-1.71,14.22-7.2,17.38-14.35-5.71-.83-11.5-1.4-17.39-1.75v16.09Z"/>
      <path class="cls-6" d="m287.8,140.88v59.29c9.84,2.3,19.48,5.49,28.98,9.72.18-3.55.27-7.16.27-10.83-.02-22.48-3.48-44.84-4.53-67.29-19.12-3.68-38.38-8.13-57.32-13.52l.08,77.33c5.89.35,11.68.92,17.39,1.75,1.55-3.52,2.35-7.44,2.21-11.52.05-.37-.18-.54-1-.38-10.09,1.82-16.91-7.14-16.88-14.71.05-9.62,8.23-16.61,16.24-15.45.26-7.69,5.82-13.86,14.56-14.38h0Z"/>
      <path class="cls-1" d="m130.32,231.52l.08-90.75c9.29-.27,15.59,6.85,15.85,14.55,8.01-1.16,14.87,7.18,14.81,15.45-.06,7.57-7.21,16.08-16.06,14.82-.83-.16-.99-.16-.95.21-.4,12.15,7.48,22.95,19.02,25.73l.04-93.24c-18.65,5.21-37.56,9.55-56.41,13.42-1.45,22.24-4.65,44.4-4.82,66.69-.14,19.75,2.48,37.74,7.49,54.25,8.18-7.91,16.41-14.95,24.69-21.15h-3.74Z"/>
      <path class="cls-8" d="m163.11,118.3l-.04,93.24c.83.2,1.68.36,2.55.48,7.67-3.78,15.38-6.89,23.13-9.37,3.53-4.43,5.62-10.16,5.25-16.7-8.45-.24-15.76-6.73-15.78-15.54-.02-7.62,6.48-15.85,16.09-15.21.27-7.02,5.72-14.33,15.17-14.33s14.59,7.37,15.14,14.33c9.33.54,14.6,7.53,14.52,15.15-.09,8.81-6.13,14.03-13.87,15.2-.2,3.57.31,6.91,1.38,9.95,1.71-.11,3.43-.18,5.14-.23,8.01-.23,15.82-.15,23.48.31l-.08-77.33c-15.52-4.42-30.84-9.47-45.69-15.24-15.14,5.88-30.67,10.9-46.39,15.3h0Z"/>
      <path class="cls-8" d="m255.3,231.46l-45.83-.12-46.4.11v15.91s92.25-.02,92.25-.02l-.02-15.88Z"/>
      <path class="cls-8" d="m226.65,195.5c3.43,9.79,12.62,16.38,22.41,16.71,2.16.07,4.25-.12,6.23-.55v-16.09c-7.67-.46-15.48-.54-23.49-.31-1.72.05-3.43.12-5.14.23h0Z"/>
      <path class="cls-8" d="m169.88,212.21c7.25-.25,14.28-3.8,18.87-9.57-7.74,2.48-15.45,5.59-23.13,9.37,1.38.18,2.8.25,4.25.2h0Z"/>
      <path class="cls-8" d="m255.35,278.39l-92.3-.03v28.43c30.83,3.63,61.61,3.67,92.33.35l-.03-28.75Z"/>
      <path class="cls-8" d="m209.52,356.73c-6.94-.02-13.9-.25-20.87-.71,6.7,4.97,13.68,9.79,20.91,14.49,7.23-4.68,14.2-9.48,20.87-14.43-6.92.43-13.89.66-20.91.65h0Z"/>
      <path class="cls-8" d="m101.84,127.5c37.99-7.67,74.49-16.91,107.67-29.98,32.82,12.94,70.7,23.04,107.94,29.98.79,23.85,4.68,47.76,4.7,71.55.03,40.31-10.81,73.71-30.44,102.6,4.06-.79,8.12-1.63,12.18-2.53,2.38-3.76,4.62-7.61,6.72-11.54,13.49-25.3,21.11-54.29,21.11-88.54,0-24.07-4.75-47.72-4.96-71.86-.02-2.82.06-5.65.09-8.47-2.49.02-5.12-.18-7.64-.62-35.75-6.9-78.74-16.7-109.7-30.97-34.47,15.51-70.77,22.97-109.56,31-2.66.55-5.06.41-7.59.62-.14,2.46.29,6,.16,8.46-1.31,23.82-5.27,47.21-5.3,71.1-.05,35.58,8.07,65.48,22.46,91.46,1.57,2.82,3.2,5.6,4.91,8.34,4.09.98,8.17,1.9,12.25,2.76-19.77-29.23-30.34-62.66-30.05-102.49.17-23.68,3.75-47.02,5.06-70.88h0Z"/>
      <path class="cls-8" d="m239.8,355.36c-9.41,7.32-19.51,14.37-30.24,21.22-10.78-6.9-20.88-13.97-30.27-21.29-4.86-.45-9.72-.99-14.56-1.62,13.68,11.32,28.77,21.93,44.93,32.13,16.11-10.16,31.16-20.75,44.82-32.07-4.86.64-9.75,1.19-14.68,1.64h0Z"/>
      <path class="cls-5" d="m109.67,289.77c-14.39-25.98-22.51-55.88-22.46-91.46.03-23.89,3.99-47.28,5.3-71.1.13-2.46-.29-5.99-.16-8.46,2.53-.21,4.93-.07,7.59-.62,38.79-8.02,75.09-15.48,109.56-31,30.96,14.27,73.94,24.07,109.7,30.97,2.52.44,5.15.64,7.64.62-.03,2.82-.11,5.65-.09,8.47.21,24.13,4.95,47.78,4.96,71.86,0,30.38-5.99,56.63-16.77,79.83,12.4-5.21,24.18-11.23,35.08-18.24-1.07,10.21-2.28,20.4-3.66,30.54,8.09,4.34,16.55,9.05,25.09,13.84l-36.84,17.89-14.43-34.46c-3.21-.32-6.51-.46-9.57-.86-2.1,3.93-4.34,7.78-6.72,11.54,3.78-.84,7.55-1.73,11.32-2.66l15.41,39.71c-23.35,7.54-49.1,13.97-76.14,17.55-13.65,11.32-28.71,21.91-44.82,32.07-16.16-10.2-31.25-20.81-44.93-32.13-24.54-3.22-48.88-8.82-72.18-16l15.89-41.09c2.05.53,4.1,1.04,6.14,1.53-1.71-2.73-3.34-5.51-4.91-8.34h0Zm21.46-217.99l-11.47-22.37,8.5-4.16c4.64-2.26,9.36-1.63,12.12,3.5,1.95,3.62,1,7.55-1.91,9.54l9.96,4.43-6.51,3.64-8.6-4.45,3.66,6.8-5.75,3.07Zm13.59-21.35c-1.86-7.02,1.85-14.43,9-16.32,7.24-1.92,14.2,2.13,16.08,9.23,1.87,7.06-1.96,13.63-8.95,15.57-7.13,1.99-14.27-1.47-16.13-8.48h0ZM210.25,10.44C100.02,10.44,10.66,99.74,10.66,209.89s89.36,199.45,199.59,199.45,199.59-89.3,199.59-199.45S320.48,10.44,210.25,10.44h0Zm-110.09,84.69l-6.22,5.97-17.14-17.54,6.68-6.73c1.61-1.62,3.32-2.55,4.99-2.71,1.95-.19,3.62.49,5.18,2.15,1.66,1.77,1.77,3.35,1.45,5.43,2.6-1.09,4.94-.8,6.96,1.45,1.79,2,2.13,4.62,1.74,6.8-.34,1.91-1.72,3.32-3.65,5.17h0Zm222.33,1.93l-4.58-4.69,17.49-17.47,4.63,4.63-17.55,17.53Zm-7.12-7.11l-4.46-3.34,1.72-17.66-8.85,12.18-5.12-3.69,14.86-19.84,4.57,3.47-1.85,17.59,9.04-12.37,4.98,3.96-14.9,19.7Zm-197.14-9.31c-6.25,4.19-13.76,2.7-17.95-3.55-4.03-6.01-2.5-13.79,3.53-17.84,6.27-4.2,13.84-2.89,18.06,3.41,4.17,6.22,2.58,13.81-3.64,17.98h0Zm55.95-35.18l-2.69-15.64,6.61-1.11,2.34,15.04c.47,3.05,1.8,3.99,3.59,3.67,1.88-.34,2.94-1.5,2.43-4.54l-2.5-15.11,6.44-1.02,2.41,15.66c.44,2.86-.28,5.33-1.65,7.29-1.37,1.96-3.28,2.96-5.96,3.42-2.59.45-5.52-.15-7.39-1.45-1.99-1.39-3.18-3.5-3.64-6.19h0Zm48.1-9.25c.83,8.01-4.69,14.67-12.82,14.89-7.37.19-13.15-5.63-13.34-12.92-.19-7.33,5.74-12.81,12.91-12.99,5.3-.14,11.3,3.5,12.55,8.85l-7.09.27c-1.17-2.25-3.04-3.34-5.46-3.28-4.03.11-6.41,2.95-6.52,6.85-.11,3.92,2.64,7.8,6.77,7.38,3.09-.31,5.33-1.47,5.51-3.96l-7.14.33-.07-5.14,14.7-.28ZM54.73,182.34c-1.15,7.28-7.93,11.9-15.13,10.76-7.24-1.15-11.55-7.98-10.42-15.07.41-2.59,1.47-4.55,3.22-6.64,1.9-2.27,4.82-3.95,7.78-4.08l-1.03,7.02c-2.43.74-3.84,2.38-4.21,4.77-.63,3.98,1.72,6.84,5.55,7.66,3.83.82,8.15-1.17,8.49-5.3.26-3.1-.47-5.51-2.89-6.14l-.98,7.08-5.07-.86,2.41-14.5c8.02.65,13.57,7.28,12.3,15.31h0Zm9.76-36.31l-2.33,6.54-3.75-.08-2.98,7.98,3.22,2.38-2.14,6.63-20.44-17.49,1.65-4.68,26.78-1.28Zm3.86-7.27l-2.84,5.9-22.4-10.46,2.77-5.94,22.47,10.5Zm12.1-21.06l-2.89,4.76-17.74.02,12.99,7.61-3.17,5.46-21.2-12.85,3.01-4.89,17.68.12-13.19-7.79,3.45-5.34,21.06,12.9Zm7.07-19.5c3.6,3.12,2.99,7.89-.03,11.55-3.44,4.16-8.61,4.54-12.66,1.13l4.32-4.89c1.3,1.09,2.95,1.48,4.06.27.86-.93,1.1-2.09.1-3.2-1.18-1.31-3.19-.79-6.29,1.51-2.51,1.86-6.15,2.42-9.07.14-3.39-2.65-3.22-7.98-.3-11.46,3-3.58,7.79-4.41,11.37-1.39l-3.91,4.81c-.98-.75-2.5-.91-3.34.05-.84.96-.63,2.13.13,2.94.71.76,1.7.81,3.3-.17,4.22-2.62,8.55-4.55,12.32-1.29h0Zm281.13,100.56l-.57-5.84,5.95-.58.57,5.84-5.95.58Zm-8.3-41.21l5.64-1.96,1.93,5.55-5.65,1.96-1.92-5.54Zm-64.5-82.08l-5.54-3.49,12.95-21.07,5.58,3.43-12.99,21.13Zm-6.43-4.5l-6.83-2.99-1.65-9.54-3.2,7.03-5.92-2.73,10.85-22.45,8.48,4.05c4.66,2.22,6.96,6.47,4.53,11.77-1.71,3.74-5.41,5.36-8.75,4.25l2.48,10.61Zm-44.29-16.9l-6.35-1.13,1.33-9.81-7.3-1.16-1.62,9.79-6.7-1.06,3.89-24.25,6.56.99-1.43,9.21,7.36,1.07,1.39-9.11,6.65.96-3.77,24.49Zm86.19,52.58l-4.05-4.76,14.16-12.61-3.34-3.65,4.14-3.72,10.86,11.86-4.19,3.79-3.27-3.69-14.33,12.77Zm-71.48-48.46l6.44-17.84-4.67-1.62,1.87-5.24,15.2,5.24-1.87,5.33-4.63-1.68-6.51,18.06-5.83-2.25Zm82.62,63.04l-3.71-5.43,7.16-5.05,8.87-14.85,4.18,5.6-5.94,8.35,9.97-2.32,4.15,5.68-17.11,2.65-7.58,5.36Zm27.21,33.75l-2.62-6.53-8.82,3.36-2.4-5.93,23.27-8.76,5.06,12.78-5.28,2.03-2.83-7.1-3.94,1.43,2.66,6.81-5.1,1.89Zm7.86,33.67c-6.08-.41-10.73-4.2-12-9.89-1.63-7.31,2.44-14.03,9.41-15.71,6.82-1.64,13.96,2.12,15.56,9.29,1.31,5.88-1.46,12.66-7.2,15.24l-1.43-6.7c2.69-1.79,3.74-4.21,3.17-6.84-.86-3.96-5-5.41-8.14-4.98-2.97.41-5.92,3.07-5.7,7.61.13,2.72,2.76,4.8,5.26,5.22l1.07,6.76Z"/>
      <path class="cls-5" d="m44.25,152.17l6.89,5.11,1.8-4.91-8.69-.19Z"/>
      <path class="cls-5" d="m105.7,73.41c2.11,2.93,6.62,4.44,9.42,2.39,3.19-2.33,3.66-6.43,1.56-9.57-2.21-3.31-6.55-4.62-9.51-2.25-2.91,2.33-3.82,6.16-1.47,9.43h0Z"/>
      <path class="cls-5" d="m127.79,51.8l3.2,5.99,1.88-.95c2.51-1.26,3.02-3.33,2.39-4.61-.98-1.97-2.86-2.84-5.17-1.64l-2.3,1.2Z"/>
      <path class="cls-5" d="m150.84,48.52c1.04,3.94,5.32,6,8.63,4.96,3.51-1.11,5.17-5.26,4.14-8.63-1.11-3.62-4.58-6.19-8.43-5.07-3.84,1.12-5.38,4.79-4.34,8.75h0Z"/>
      <path class="cls-5" d="m285.71,47.99l-2.84,6.18,1.89.92c2.52,1.23,4.48.39,5.11-.89.98-1.97.54-4-1.82-5.11l-2.35-1.11Z"/>
      <path class="cls-7" d="m210.21,409.35c-110.23,0-199.59-89.3-199.59-199.45S99.98,10.44,210.21,10.44s199.59,89.3,199.59,199.46-89.36,199.45-199.59,199.45h0ZM210.21,0C94.17,0,0,93.93,0,209.91s94.17,209.91,210.21,209.91,210.21-93.93,210.21-209.91S326.25,0,210.21,0h0Z"/>
      <path class="cls-7" d="m314.94,278.88c-1.37,2.95-2.82,5.85-4.34,8.7,3.07.39,6.36.54,9.57.86l14.43,34.46,36.84-17.89c-8.54-4.79-17-9.5-25.09-13.84,1.38-10.14,2.58-20.33,3.66-30.54-10.9,7.01-22.68,13.03-35.08,18.24,0,0,0,0,0,0h0Z"/>
      <path class="cls-1" d="m130.32,231.52l.08-90.75c9.29-.27,15.59,6.85,15.85,14.55,8.01-1.16,14.87,7.18,14.81,15.45-.06,7.57-7.21,16.08-16.06,14.82-.83-.16-.99-.16-.95.21-.4,12.15,7.48,22.95,19.02,25.73l.04-93.24c-18.65,5.21-37.56,9.55-56.41,13.42-1.45,22.24-4.65,44.4-4.82,66.69-.14,19.75,2.48,37.74,7.49,54.25,8.18-7.91,16.41-14.95,24.69-21.15h-3.74Z"/>
      <path class="cls-1" d="m255.19,118.25l.08,77.33c5.89.35,11.68.92,17.39,1.75,1.55-3.52,2.35-7.44,2.21-11.52.05-.37-.18-.54-1-.38-10.09,1.82-16.91-7.14-16.88-14.71.05-9.62,8.23-16.61,16.24-15.45.26-7.69,5.82-13.86,14.56-14.38v59.29c9.84,2.3,19.48,5.49,28.98,9.72.18-3.55.27-7.16.27-10.83-.02-22.48-3.48-44.84-4.53-67.29-19.12-3.68-38.38-8.13-57.32-13.52h0Z"/>
      <path class="cls-4" d="m130.29,278.35l.02-30.98h32.75s0-15.92,0-15.92l-29.01.07c-8.29,6.2-16.52,13.24-24.69,21.15,5.51,18.2,13.92,34.62,24.68,49.65,9.67,1.85,19.34,3.34,29,4.48v-28.43s-32.75,0-32.75,0Z"/>
      <path class="cls-4" d="m255.27,195.57v16.09c7.96-1.71,14.23-7.2,17.39-14.35-5.71-.83-11.5-1.4-17.39-1.75h0Z"/>
      <path class="cls-4" d="m287.8,200.17v31.38l-32.49-.09.02,15.88h32.51s-.03,31.06-.03,31.06h-32.45s.03,28.74.03,28.74c9.73-1.05,19.45-2.44,29.17-4.16,18.74-26.05,30.34-56.36,32.22-93.09-9.5-4.23-19.13-7.42-28.98-9.72h0Z"/>
      <path class="cls-2" d="m109.36,252.67c-5-16.51-7.63-34.5-7.49-54.25.16-22.3,3.37-44.46,4.82-66.69,18.85-3.87,37.77-8.21,56.41-13.42,15.72-4.4,31.25-9.42,46.39-15.3,14.86,5.77,30.17,10.82,45.69,15.24,18.94,5.39,38.2,9.84,57.32,13.52,1.05,22.46,4.51,44.81,4.53,67.29,0,3.67-.09,7.28-.27,10.83-1.88,36.74-13.48,67.04-32.22,93.09,2.38-.42,4.77-.86,7.15-1.32,19.63-28.9,30.47-62.29,30.44-102.6-.02-23.79-3.91-47.7-4.7-71.55-37.24-6.94-75.12-17.03-107.94-29.98-33.18,13.07-69.68,22.31-107.67,29.98-1.31,23.85-4.89,47.2-5.06,70.88-.29,39.83,10.28,73.26,30.05,102.49,2.41.5,4.81.98,7.22,1.45-10.76-15.02-19.17-31.44-24.68-49.65h0Z"/>
      <path class="cls-2" d="m209.56,370.51c-7.23-4.7-14.21-9.51-20.91-14.49-3.12-.2-6.24-.45-9.36-.73,9.39,7.32,19.49,14.39,30.27,21.29,10.73-6.85,20.83-13.9,30.24-21.22-3.11.28-6.23.52-9.36.72-6.68,4.95-13.64,9.75-20.87,14.43h0Z"/>
      <path class="cls-2" d="m87.78,85.77l1.47-1.4c1.03-.98,1.53-2.32.57-3.29-1-1.02-2.31-.16-2.95.47l-1.64,1.65,2.55,2.58Z"/>
      <path class="cls-9" d="m87.78,85.77l1.47-1.4c1.03-.98,1.53-2.32.57-3.29-1-1.02-2.31-.16-2.95.47l-1.64,1.64,2.55,2.58Z"/>
      <path class="cls-5" d="m103.81,89.95c-.34,1.91-1.72,3.32-3.65,5.17l-6.22,5.97-17.14-17.54,6.68-6.73c1.61-1.62,3.32-2.55,4.99-2.71,1.95-.19,3.62.49,5.18,2.15,1.66,1.77,1.77,3.35,1.45,5.43,2.6-1.09,4.94-.8,6.96,1.45,1.79,2,2.13,4.62,1.74,6.8h0Zm-3.86,28.17c38.79-8.02,75.09-15.48,109.56-31,30.96,14.27,73.94,24.07,109.7,30.97,2.52.44,5.15.64,7.64.62-.03,2.82-.11,5.65-.09,8.47.21,24.13,4.95,47.78,4.96,71.86,0,30.38-5.99,56.63-16.77,79.83,12.4-5.21,24.18-11.23,35.08-18.24-1.07,10.21-2.28,20.4-3.66,30.54,8.09,4.34,16.55,9.05,25.09,13.84l-36.84,17.89-14.43-34.46c-3.21-.32-6.51-.46-9.57-.86-2.1,3.93-4.34,7.78-6.72,11.54,3.78-.84,7.55-1.73,11.32-2.66l15.41,39.71c-23.35,7.54-49.1,13.97-76.14,17.55-13.65,11.32-28.71,21.91-44.82,32.07-16.16-10.2-31.25-20.81-44.93-32.13-24.54-3.22-48.88-8.82-72.18-16l15.89-41.09c2.05.53,4.1,1.04,6.14,1.53-1.71-2.73-3.34-5.51-4.91-8.34-1.72-3.09-3.34-6.25-4.87-9.45-11.34-23.73-17.63-50.66-17.59-82.01.03-23.89,3.99-47.28,5.3-71.1.13-2.46-.29-5.99-.16-8.46,2.53-.21,4.93-.07,7.59-.62h0Zm18.29-37.49c-6.25,4.19-13.76,2.7-17.95-3.55-4.03-6.01-2.5-13.79,3.53-17.84,6.27-4.2,13.84-2.89,18.06,3.41,4.17,6.22,2.58,13.81-3.64,17.98h0Zm12.9-8.85l-11.47-22.37,8.5-4.16c4.64-2.26,9.36-1.63,12.12,3.5,1.95,3.62,1,7.55-1.91,9.54l9.96,4.43-6.51,3.64-8.6-4.45,3.66,6.8-5.75,3.07Zm13.59-21.35c-1.86-7.02,1.85-14.43,9-16.32,7.24-1.92,14.2,2.13,16.08,9.23,1.87,7.06-1.96,13.63-8.95,15.57-7.13,1.99-14.27-1.47-16.13-8.48h0Zm159.06,30.69l-5.12-3.69,14.86-19.84,4.57,3.47-1.85,17.59,9.04-12.37,4.98,3.96-14.9,19.7-4.46-3.34,1.72-17.66-8.85,12.18Zm14.12,11.24l17.49-17.47,4.63,4.63-17.55,17.53-4.58-4.69Zm-143.73-46.9l-2.69-15.64,6.61-1.11,2.34,15.04c.47,3.05,1.8,3.99,3.59,3.67,1.88-.34,2.94-1.5,2.43-4.54l-2.5-15.11,6.44-1.02,2.41,15.66c.44,2.86-.28,5.33-1.65,7.29-1.37,1.96-3.28,2.96-5.96,3.42-2.59.45-5.52-.15-7.39-1.45-1.99-1.39-3.18-3.5-3.64-6.19h0Zm35.28,5.64c-7.37.19-13.15-5.63-13.34-12.92-.19-7.33,5.74-12.81,12.91-12.99,5.3-.14,11.3,3.5,12.55,8.85l-7.09.27c-1.17-2.25-3.04-3.34-5.46-3.28-4.03.11-6.41,2.95-6.52,6.85-.11,3.92,2.64,7.8,6.77,7.38,3.09-.31,5.33-1.47,5.51-3.96l-7.14.33-.07-5.14,14.7-.28c.83,8.01-4.69,14.67-12.82,14.89h0ZM54.73,182.34c-1.15,7.28-7.93,11.9-15.13,10.76-7.24-1.15-11.55-7.98-10.42-15.07.41-2.59,1.47-4.55,3.22-6.64,1.9-2.27,4.82-3.95,7.78-4.08l-1.03,7.02c-2.43.74-3.84,2.38-4.21,4.77-.63,3.98,1.72,6.84,5.55,7.66,3.83.82,8.15-1.17,8.49-5.3.26-3.1-.47-5.51-2.89-6.14l-.98,7.08-5.07-.86,2.41-14.5c8.02.65,13.57,7.28,12.3,15.31h0Zm9.76-36.31l-2.33,6.54-3.75-.08-2.98,7.98,3.22,2.38-2.14,6.63-20.44-17.49,1.65-4.68,26.78-1.28Zm3.86-7.27l-2.84,5.9-22.4-10.46,2.77-5.94,22.47,10.5Zm12.1-21.06l-2.89,4.76-17.74.02,12.99,7.61-3.17,5.46-21.2-12.85,3.01-4.89,17.68.12-13.19-7.79,3.45-5.34,21.06,12.9Zm7.07-19.5c3.6,3.12,2.99,7.89-.03,11.55-3.44,4.16-8.61,4.54-12.66,1.13l4.32-4.89c1.3,1.09,2.95,1.48,4.06.27.86-.93,1.1-2.09.1-3.2-1.18-1.31-3.19-.79-6.29,1.51-2.51,1.86-6.15,2.42-9.07.14-3.39-2.65-3.22-7.98-.3-11.46,3-3.58,7.79-4.41,11.37-1.39l-3.91,4.81c-.98-.75-2.5-.91-3.34.05-.84.96-.63,2.13.13,2.94.71.76,1.7.81,3.3-.17,4.22-2.62,8.55-4.55,12.32-1.29h0Zm281.13,100.56l-.57-5.84,5.95-.58.57,5.84-5.95.58Zm-8.3-41.21l5.64-1.96,1.93,5.55-5.65,1.96-1.92-5.54Zm-64.5-82.08l-5.54-3.49,12.95-21.07,5.58,3.43-12.99,21.13Zm-6.43-4.5l-6.83-2.99-1.65-9.54-3.2,7.03-5.92-2.73,10.85-22.45,8.48,4.05c4.66,2.22,6.96,6.47,4.53,11.77-1.71,3.74-5.41,5.36-8.75,4.25l2.48,10.61Zm-44.29-16.9l-6.35-1.13,1.33-9.81-7.3-1.16-1.62,9.79-6.7-1.06,3.89-24.25,6.56.99-1.43,9.21,7.36,1.07,1.39-9.11,6.65.96-3.77,24.49Zm86.19,52.58l-4.05-4.76,14.16-12.61-3.34-3.65,4.14-3.72,10.86,11.86-4.19,3.79-3.27-3.69-14.33,12.77Zm-71.48-48.46l6.44-17.84-4.67-1.62,1.87-5.24,15.2,5.24-1.87,5.33-4.63-1.68-6.51,18.06-5.83-2.25Zm82.62,63.04l-3.71-5.43,7.16-5.05,8.87-14.85,4.18,5.6-5.94,8.35,9.97-2.32,4.15,5.68-17.11,2.65-7.58,5.36Zm15.76,30.59l-2.4-5.93,23.27-8.76,5.06,12.78-5.28,2.03-2.83-7.1-3.94,1.43,2.66,6.81-5.1,1.89-2.62-6.53-8.82,3.36Zm19.31,36.84c-6.08-.41-10.73-4.2-12-9.89-1.63-7.31,2.44-14.03,9.41-15.71,6.82-1.64,13.96,2.12,15.56,9.29,1.31,5.88-1.46,12.66-7.2,15.24l-1.43-6.7c2.69-1.79,3.74-4.21,3.17-6.84-.86-3.96-5-5.41-8.14-4.98-2.97.41-5.92,3.07-5.7,7.61.13,2.72,2.76,4.8,5.26,5.22l1.07,6.76ZM210.21,10.44c-110.21.02-199.55,89.32-199.55,199.46s89.34,199.43,199.55,199.45h.04c110.21-.02,199.55-89.31,199.55-199.45S320.46,10.46,210.25,10.44h-.04Z"/>
      <path class="cls-5" d="m89.25,84.37c1.03-.98,1.53-2.32.57-3.29-1-1.02-2.31-.16-2.95.47l-1.64,1.65,2.55,2.58,1.47-1.4Z"/>
      <path class="cls-7" d="m87.08,325.07l14.29-34.28,8.31-1.01c-1.71-3.09-3.33-6.25-4.86-9.45-10.87-4.61-22.02-10.62-33.12-17.33l3.35,30.18-24.98,13.9,37.01,18Z"/>
      <path class="cls-5" d="m97.26,87.26c-1.05-1.12-2.16-1.15-3.78.39l-1.99,1.9,2.95,3.07,1.98-1.83c.83-.77,1.86-2.44.84-3.53h0Z"/>
      <path class="cls-5" d="m105.7,73.41c2.11,2.93,6.62,4.44,9.42,2.39,3.19-2.33,3.66-6.43,1.56-9.57-2.21-3.31-6.55-4.62-9.51-2.25-2.91,2.33-3.82,6.16-1.47,9.43h0Z"/>
    </g>
  </g>
</svg>