<svg xmlns="http://www.w3.org/2000/svg" width="135.973" height="136" viewBox="0 0 135.973 136"><g transform="translate(-1907.903 -125.871)"><path d="M2051.909,469.686a5.745,5.745,0,0,1,.21-2.682c.569-1.9,1.2-3.778,1.815-5.662a7.8,7.8,0,0,0,.047-4.942c-.347-1.081-.635-2.181-.941-3.274a8.727,8.727,0,0,1-.312-5.037,22.907,22.907,0,0,0,1.212-6.806,2.047,2.047,0,0,1,.525-1.24,5.221,5.221,0,0,0,1.208-4.2c-.061-.614-.126-1.231-.129-1.847,0-.189.182-.528.31-.542a1.619,1.619,0,0,0,1.3-.938.5.5,0,0,1,.632-.3,1.149,1.149,0,0,0,1.341-.839c.088-.229.176-.458.261-.68,1.368.3,1.61.2,2.341-.964.062-.1.122-.2.189-.291a.729.729,0,0,1,.865-.367,1.336,1.336,0,0,0,1.546-.585,7.3,7.3,0,0,1,1.284-1.326,1.106,1.106,0,0,1,.82-.291,1.244,1.244,0,0,0,1.246-.388c.781-.689,1.566-1.374,2.366-2.041a1.209,1.209,0,0,1,1.174-.283.977.977,0,0,0,1.114-.252,14.259,14.259,0,0,1,4.281-3.2,1.155,1.155,0,0,1,.656-.094,1.253,1.253,0,0,0,1.472-.825,1.086,1.086,0,0,1,.382-.46q2.676-1.554,5.37-3.074c.143-.081.355-.191.471-.141a.822.822,0,0,0,.938-.246,43.138,43.138,0,0,1,7.357-4.789,26.289,26.289,0,0,1,2.883-1.15.788.788,0,0,0,.337-.187,8.673,8.673,0,0,1,2.991-2.13c3.613-1.946,7.279-3.8,10.829-5.859,5.138-2.975,10.211-6.063,15.269-9.172a23.144,23.144,0,0,0,3.491-2.745,5.466,5.466,0,0,0,1.859-4.393c-.059-1.149-.338-2.285-.481-3.432-.116-.929-.182-1.864-.26-2.8a5.682,5.682,0,0,0-.044-.953c-.235-.893-.613-1.756-.769-2.659-.342-1.974-.582-3.965-.86-5.95a5.639,5.639,0,0,0-.983-2.8,2.194,2.194,0,0,0-2.626-.919,4.351,4.351,0,0,0-1.082.539q-6.769,4.392-13.528,8.8c-2.757,1.8-5.525,3.576-8.257,5.41-1.983,1.331-3.9,2.756-5.877,4.1-1.1.748-2.295,1.353-3.361,2.139a30.215,30.215,0,0,1-4.968,3.257,8.487,8.487,0,0,0-1.183.724c-2.335,1.608-4.659,3.232-7,4.83a2.316,2.316,0,0,1-.891.307,2.322,2.322,0,0,0-1.471.821,8.3,8.3,0,0,1-1.355,1.325,23.776,23.776,0,0,1-2.138,1.378,1.959,1.959,0,0,1-.791.26,1.486,1.486,0,0,0-1.387.793,2.784,2.784,0,0,1-1.544,1.446,12.644,12.644,0,0,1-1.655.734,2.335,2.335,0,0,0-1.536,1.38,1.264,1.264,0,0,1-.827.811c-.648.242-1.31.461-1.93.764a1.793,1.793,0,0,0-.834.738.826.826,0,0,1-.9.549,1.652,1.652,0,0,0-1.9,1.311c-.035.128-.282.233-.451.285a5.389,5.389,0,0,0-1,.247,10.686,10.686,0,0,0-1.214.885l-2.156,1.617a6.889,6.889,0,0,0-.031-3.478,4.292,4.292,0,0,0-4.259-3.259,3.833,3.833,0,0,0-3.914,2.824,9.353,9.353,0,0,0-.365,3.891,2.522,2.522,0,0,0,1.163,2.151.439.439,0,0,1,.186.257,2.485,2.485,0,0,1-1.255,3.147c-.1.065-.19.134-.29.19a20.594,20.594,0,0,0-2.293,1.292c-1.363,1.008-2.669,2.1-3.969,3.185a1.154,1.154,0,0,1-.957.4,1.294,1.294,0,0,0-1.423.835,2.129,2.129,0,0,1-.792.657c-.406.247-.989.338-1.234.682a3.87,3.87,0,0,1-1.444,1.079,4.612,4.612,0,0,0-.948.655,4.227,4.227,0,0,1-1.858.995,4.064,4.064,0,0,0-1.224.7c-.391.288-.693.7-1.1.965-.662.427-1.4.739-2.063,1.164-1.052.672-2.075,1.392-3.1,2.1-.314.217-.585.5-.906.7-1.953,1.24-3.915,2.465-5.873,3.7a3.091,3.091,0,0,0-1.47,2.482c-.222,2.213-.494,4.421-.773,6.628-.111.878-.3,1.746-.444,2.621a1.291,1.291,0,0,0,1.835,1.531q4.758-1.868,9.509-3.753c.143-.057.316-.189.427-.15.729.251,1.2-.251,1.741-.553a3.306,3.306,0,0,1,2.232-.771.84.84,0,0,0,.481-.164c.45-.261.886-.546,1.334-.81.126-.074.3-.185.41-.148.75.262,1.214-.125,1.626-.662a.824.824,0,0,1,1.1-.3.844.844,0,0,0,1.2-.371c.258-.653.677-.64,1.2-.512a1,1,0,0,0,1.307-.534.421.421,0,0,1,.6-.243,1.069,1.069,0,0,0,1.307-.475.707.707,0,0,1,.482-.284,13.254,13.254,0,0,1,1.337.067c0,.571-.019,1.264,0,1.956.061,1.926.1,3.853.223,5.775.089,1.4.369,2.792.425,4.193a12.788,12.788,0,0,0,.561,3.52,3.976,3.976,0,0,1,.168,1.526,39.234,39.234,0,0,0,.057,8.145,8.892,8.892,0,0,1,.014,3.506.881.881,0,0,1-.814.741c-1.31.3-2.614.637-3.9,1.018a2.563,2.563,0,0,0-.937.643.9.9,0,0,0-.024,1.177c.1.172.5.253.761.235,1.481-.1,2.959-.258,4.44-.381,2.114-.176,4.228-.371,6.346-.5C2051.665,471.278,2052.117,470.878,2051.909,469.686Zm57.208-72.459c-.055,1.135-.169,2.268-.289,3.4a.783.783,0,0,1-.321.529q-5.82,3.32-11.66,6.605a2.642,2.642,0,0,1-.312.122c.089-1.106.218-2.158.249-3.213q.1-3.207.1-6.417a.975.975,0,0,1,.542-.959q5.881-3.5,11.749-7.031a1.537,1.537,0,0,1,.226-.079C2109.3,392.569,2109.229,394.9,2109.116,397.227Zm.229-20.3c.929-.653,1.917-1.221,2.867-1.845,1.485-.976,2.958-1.971,4.434-2.959.756-.506,1.507-1.022,2.266-1.523,1.623-1.071,3.242-2.148,4.884-3.189a1.422,1.422,0,0,1,1.162-.349.917.917,0,0,1,.757.834c1.087,4.824,2.212,9.639,3.313,14.459a24.294,24.294,0,0,1,.494,2.669,5.46,5.46,0,0,1-1.077,3.7,7.278,7.278,0,0,1-2.413,2.3q-7.819,4.5-15.656,8.966a.607.607,0,0,1-.13.054c.108-3.321.208-6.655.339-9.988a1.072,1.072,0,0,1,.373-.754c.991-.666,2.029-1.26,3.031-1.91.2-.132.5-.488.453-.58-.23-.435-.553-.138-.823.015-.889.5-1.769,1.022-2.655,1.531-.11.063-.234.1-.406.179-.118-.925-.215-1.8-.345-2.673-.245-1.639-.518-3.274-.759-4.913a2.614,2.614,0,0,1,.03-.946c.038-.165.276-.275.394-.432a5.718,5.718,0,0,0,.343-.65l-1,.16a7.436,7.436,0,0,1-.239-1.324A1.118,1.118,0,0,1,2109.346,376.922Zm-13.032,8.869c.081-.1.246-.12.347-.208.374-.324,1.011-.219,1.216-.893.083-.273.666-.387,1.011-.59a2.836,2.836,0,0,0,.46-.357,4.574,4.574,0,0,1,.455-.46c2.34-1.583,4.689-3.152,7.026-4.739a11.348,11.348,0,0,0,.981-.85c.038.241.071.4.089.568s-.031.378.046.514c.575,1.008.238,2.124.387,3.182a30.552,30.552,0,0,0,1.343,6.726.928.928,0,0,1-.388.8c-.825.435-1.747.7-2.553,1.16-3.089,1.781-6.147,3.615-9.217,5.429-.164.1-.33.191-.565.327-.046-.691-.077-1.331-.135-1.968-.16-1.748-.322-3.5-.505-5.241a1.077,1.077,0,0,1,.451-1.1c.5-.354.991-.736,1.509-1.069q4.232-2.72,8.481-5.414c.322-.2.458-.465.279-.746-.066-.1-.518-.089-.7.025-2.255,1.446-4.484,2.933-6.74,4.379-1.082.693-2.206,1.32-3.337,1.993C2096.066,386.717,2095.943,386.237,2096.313,385.791Zm-.786,10.646c.417.739-.081.927-.618,1.229-2.438,1.365-4.847,2.78-7.267,4.176-.194.112-.39.219-.658.369-.013-.233-.029-.378-.029-.523,0-2.258-.01-4.516.012-6.774a.9.9,0,0,1,.3-.66c2.478-1.635,4.973-3.242,7.465-4.855a2.907,2.907,0,0,1,.276-.132c.169,2.293.333,4.5.495,6.712C2095.511,396.134,2095.46,396.318,2095.528,396.438Zm-7.906-4.769q3.53-2.314,7.067-4.617a.665.665,0,0,1,.157-.054c.454.787.448.884-.263,1.339q-3.7,2.37-7.416,4.72c-.127.081-.263.148-.414.232C2086.335,392.315,2087.062,392.035,2087.622,391.668Zm-1.015,19.067c.1-1.793.263-3.584.281-5.377a3.52,3.52,0,0,1,1.5-2.909,16.062,16.062,0,0,1,2.115-1.407c1.623-.876,3.281-1.687,5.011-2.57-.1,2.055-.191,4.04-.286,6.025-.065,1.33-.121,2.661-.212,3.99a.847.847,0,0,1-.3.606c-2.678,1.528-5.373,3.03-8.064,4.536a.733.733,0,0,1-.18.025C2086.519,412.674,2086.555,411.7,2086.607,410.736Zm-6.509-13.965c.4-.155.62-.71.983-1.012a3.13,3.13,0,0,1,.837-.333,2.723,2.723,0,0,0,.455-.227c.948-.613,1.893-1.231,2.851-1.857.334,1.075.3,1.018-.6,1.543-1.459.851-2.867,1.792-4.3,2.695a6.7,6.7,0,0,1-.9.505C2079.606,397.62,2079.4,397.043,2080.1,396.771Zm.337,1.832c.775-.563,1.624-1.024,2.448-1.518.774-.463,1.557-.909,2.387-1.392.042.709.1,1.441.126,2.175.057,1.348.1,2.7.149,4.044,0,.1,0,.193.011.289.087,1.053.065,1.01-.9,1.532-1.557.838-3.08,1.739-4.619,2.613-.18.1-.363.2-.6.332,0-1.543,0-3.006,0-4.47a4.88,4.88,0,0,0-.046-.978A2.437,2.437,0,0,1,2080.435,398.6Zm-1.6,16.991c.073-1.077.126-2.155.212-3.23.1-1.284.215-2.569.363-3.848a1.343,1.343,0,0,1,.378-.628,21.838,21.838,0,0,1,5.672-3.5c-.057,1.249-.092,2.477-.174,3.7-.133,1.98-.313,3.958-.437,5.939a1.326,1.326,0,0,1-.787,1.255c-1.622.846-3.205,1.767-4.8,2.657-.164.091-.334.172-.612.314C2078.715,417.3,2078.779,416.448,2078.836,415.593Zm-5.34-14.45a13.575,13.575,0,0,1,4.266-2.884c.037.269.075.551.118.866l-4.383,2.727Zm.016,2.586a1.04,1.04,0,0,1,.3-.746c1.252-.888,2.539-1.729,3.927-2.66l.187,7.229-4.417,2.593c-.018-.2-.038-.329-.038-.454C2073.478,407.7,2073.479,405.716,2073.513,403.729Zm-.851,16.607c.058-.923.1-1.846.146-2.769.007-.134-.03-.307.039-.4.681-.881.383-1.848.24-2.785a3.321,3.321,0,0,1,1.7-3.773c.932-.568,1.918-1.047,3.026-1.645-.1,1.005-.209,1.883-.283,2.763-.123,1.477-.211,2.958-.342,4.435-.084.94-.214,1.876-.342,2.811a.631.631,0,0,1-.224.418c-1.3.786-2.617,1.552-3.929,2.321-.027.015-.073-.005-.174-.015C2072.57,421.244,2072.634,420.791,2072.662,420.336Zm-.792-9.668c0,.173-.044.431-.16.506-.9.581-1.825,1.126-2.738,1.68,0-.841-.024-1.6.005-2.365.054-1.407.135-2.814.219-4.22a.619.619,0,0,1,.191-.43c.76-.523,1.538-1.019,2.473-1.63,0,1.2,0,2.237,0,3.273C2071.862,408.545,2071.878,409.606,2071.869,410.668Zm-.148-8.637c.35.74.352.784-.258,1.191-.777.52-1.569,1.017-2.355,1.523l-.166-.18A6.218,6.218,0,0,1,2071.721,402.031Zm-3.5,18.9c.193-2.186.417-4.37.638-6.553a.556.556,0,0,1,.185-.378c.792-.5,1.6-.974,2.57-1.557-.093,1.459-.156,2.776-.265,4.089-.151,1.822-.368,3.639-.492,5.462a1.6,1.6,0,0,1-.752,1.4c-.657.393-1.338.745-2.114,1.173C2068.065,423.289,2068.112,422.11,2068.216,420.935Zm-.849-16a.751.751,0,0,1-.346,1.181c-.483.266-.946.568-1.455.877C2065.7,405.849,2066.551,405.435,2067.367,404.939Zm-2.064,6.136a19.154,19.154,0,0,1,.194-2.3,1.3,1.3,0,0,1,.436-.732,16.607,16.607,0,0,1,1.39-.957c0,.648.01,1.2,0,1.743q-.051,2.393-.123,4.786a.453.453,0,0,1-.135.331c-.566.347-1.147.67-1.769,1.028C2065.3,413.608,2065.274,412.341,2065.3,411.076Zm-.855,12.958c.19-2.306.4-4.611.587-6.918a1.563,1.563,0,0,1,1.079-1.478c.231-.087.451-.2.861-.394-.111,1.616-.2,3.095-.317,4.571-.126,1.613-.332,3.223-.392,4.838a1.461,1.461,0,0,1-.833,1.434c-.355.179-.707.363-1.153.592C2064.339,425.721,2064.379,424.876,2064.448,424.034Zm-.754-16.627c.347.634.19.843-1.125,1.469C2062.633,408.074,2063.179,407.761,2063.694,407.407Zm-1.111,3.494a1.131,1.131,0,0,1,.888-1.174c0,1.488,0,2.947,0,4.406,0,.308-.03.616-.03.925,0,.338.161.791,0,.989a3.6,3.6,0,0,1-1.046.663C2062.464,414.775,2062.577,412.838,2062.583,410.9Zm-1.146,15.863q.227-2.354.456-4.707c.12-1.246.186-2.5.392-3.731.056-.329.541-.586.83-.876l.145.121c-.107,1.281-.218,2.562-.319,3.843-.121,1.535-.222,3.071-.354,4.6a12.913,12.913,0,0,1-.245,1.478.683.683,0,0,1-.229.363c-.216.174-.461.311-.827.55C2061.342,427.8,2061.387,427.282,2061.437,426.764Zm-.66-17.355c.344.6.245.77-.531.943Zm-.144,2.573v1.364c0,1.327-.02,2.655.01,3.982.012.513-.206.735-.709.814C2059.788,415.643,2060.058,413.066,2060.634,411.982Zm-1.276,13.079c.143-1.645.238-3.293.332-4.942.023-.4.087-.719.6-.843-.44,3.436-.2,6.914-1.248,10.236l-.166-.036C2059.038,428.005,2059.23,426.536,2059.358,425.062Zm-32.086,13.651a1.149,1.149,0,0,0-.145,1.368.972.972,0,0,1-.084.861,5.823,5.823,0,0,0-.147,1.624c-.064.7-.147,1.392-.238,2.086-.009.067-.12.14-.2.175-.7.31-1.406.611-2.2.956-.016-.337-.029-.625-.044-.942l-.76-.167v.881c-.882.478-1.92,1.045-2.967,1.6-.094.05-.245-.021-.367-.008a1.25,1.25,0,0,0-.472.1c-.3.169-.561.415-.87.561-.643.3-1.319.537-1.958.847-.6.292-.944.156-.92-.514a24.75,24.75,0,0,1,.265-2.461c.313-2.281.674-4.557.947-6.843a2.527,2.527,0,0,1,1.22-2.035c.671-.41,1.314-.866,1.979-1.286.21-.133.432-.352.708-.045.039.043.355-.079.46-.2.247-.278.387-.678.673-.889.71-.523,1.477-.969,2.221-1.445l.2.094c-.075.57-.147,1.141-.226,1.71-.077.551-.16,1.1-.247,1.7h.865c.042-.519.08-1.025.125-1.53a2.621,2.621,0,0,1,.067-.276c.129-.638.286-1.273.376-1.917a1.411,1.411,0,0,1,.9-1.1c.427-.22.827-.488,1.4-.831,0,.48.029.85-.006,1.215a33,33,0,0,1-.4,3.468c-.154.753.266,1.543-.249,2.274C2027.036,437.94,2027.226,438.36,2027.272,438.712Zm3.485-9.05c-.347.242-.686.53-.1.918.082.055.086.273.076.412-.106,1.436-.223,2.871-.337,4.306,0,.019.011.05,0,.056-.908.66-.063,1.48-.182,2.226a25.579,25.579,0,0,0-.277,3.957,6.216,6.216,0,0,1-.255,1.75.594.594,0,0,1-.287.347c-.495.211-1.005.384-1.558.589-.337-.7.008-1.309.02-1.928.01-.545-.016-1.091-.008-1.637a5.075,5.075,0,0,1,.077-.948c.133-.64.323-1.269.452-1.91.067-.333.284-.717-.154-.991-.04-.025-.036-.142-.03-.215.117-1.438.254-2.876.351-4.315.043-.645.524-.838.985-1.027.328-.135.485-.281.353-.671l-.634-.1-.072.526c-.461-.051-.519-.351-.323-.636a3.664,3.664,0,0,1,.845-.839,11.3,11.3,0,0,1,1.132-.662C2031.18,429.2,2031.1,429.424,2030.757,429.662Zm2.317,7.8c.142,1.476-.32,2.894-.273,4.353a.529.529,0,0,1-.229.4c-.47.246-.964.447-1.564.717.058-.615.113-1.1.146-1.583.1-1.382.118-2.773.3-4.144a5.839,5.839,0,0,1,.741-1.916c.155-.287.554-.442.842-.656l.16.127A18.213,18.213,0,0,0,2033.074,437.458Zm.539-6.8c-.07.961-.151,1.92-.235,2.88-.009.105-.035.252-.107.3-.525.372-1.064.724-1.6,1.082l-.128-.114q.14-1.572.279-3.144a6.38,6.38,0,0,0,.059-.807,1.784,1.784,0,0,1,1.243-1.855,3.833,3.833,0,0,0,.612-.439C2033.692,429.336,2033.661,430,2033.613,430.659Zm-.234-2.612a1.5,1.5,0,0,0-.919.58c-.073.1-.263.108-.446.175.043-.792.614-1.305,1.934-1.815A.784.784,0,0,1,2033.379,428.047Zm2.084,12.38c-.027.635-.514,1.026-1.252,1.128,0-.966-.031-1.94.008-2.91.047-1.188.17-2.372.228-3.56.056-1.129.074-1.177,1.263-1.574C2035.628,435.85,2035.558,438.139,2035.463,440.427Zm.54-10.412c-.041.633-.047,1.268-.1,1.9a.7.7,0,0,1-.195.474c-.337.248-.715.44-1.076.654l-.164-.06q.257-2,.515-3.993c.01-.076.063-.155.049-.222-.189-.881.4-1.226,1.175-1.582C2036.138,428.17,2036.063,429.092,2036,430.015Zm.224-3.918c-.276.205-.573.383-.841.6-.338.272-.539.138-.8-.326l1.675-.938C2036.544,425.854,2036.547,425.859,2036.227,426.1Zm1.652,9.311c-.042,1.389-.135,2.776-.187,4.165a1.033,1.033,0,0,1-.919,1.077,1.65,1.65,0,0,1-.1-.436c.135-2.02.265-4.04.434-6.056a2.76,2.76,0,0,1,.779-1.845C2037.885,433.358,2037.91,434.384,2037.879,435.408Zm.471-7.551c-.021.957-.049,1.914-.107,2.868-.009.141-.179.3-.311.4a4.187,4.187,0,0,1-.588.32c0-1.3-.021-2.53.011-3.761a4.057,4.057,0,0,1,.253-1.343c.1-.255.418-.425.745-.733C2038.353,426.492,2038.365,427.175,2038.35,427.857Zm.173-3.169a8.379,8.379,0,0,1-.805.433c-.088.035-.278-.063-.348-.156-.038-.05.046-.266.131-.322.351-.234.724-.437,1.109-.663C2038.807,424.266,2038.877,424.5,2038.523,424.689Zm.683,15.021c0-.917-.042-1.693.008-2.464.122-1.869.283-3.736.439-5.6a1,1,0,0,1,.229-.516C2040.238,432.628,2039.759,439.188,2039.206,439.71Zm1.04-10.037c0,.156-.248.308-.431.52a16,16,0,0,1,.449-5.144C2040.264,426.544,2040.275,428.109,2040.246,429.672Zm-.182-6.054-.2-.552c.092-.052.171-.1.253-.142.134-.066.27-.126.439-.2C2040.877,423.3,2040.464,423.439,2040.065,423.618Zm1.184,15.091q.226-4.179.453-8.358C2041.95,431.979,2041.6,438.173,2041.248,438.709Zm.8-11.46-.147,0a30.644,30.644,0,0,1,.146-3.465l.18.007Q2042.141,425.518,2042.051,427.249Z" transform="translate(-97.362 -218.119)" fill="#fff"/><path d="M1916.987,222.6a65.275,65.275,0,0,1-6.349-34.379,62.6,62.6,0,0,1,3.4-15.951,64.89,64.89,0,0,1,26.586-33.577,63.909,63.909,0,0,1,31.25-10.177,65.162,65.162,0,0,1,48.364,17.172c1.066.976,2.084,2,3.151,3.033l2.063-1.332a67.8,67.8,0,0,0-94.792-4.2c-28.369,25.43-26.855,63.02-13.678,84.482.06-.607.133-1.1.152-1.588.032-.829.047-1.66.032-2.489A2.428,2.428,0,0,0,1916.987,222.6Z" transform="translate(0 0)" fill="#fff"/><path d="M2435.985,505.02c.079,1.607.138,3.061.227,4.512a4.543,4.543,0,0,0,.226,1.581,65.243,65.243,0,0,1,5.925,24.216,65.294,65.294,0,0,1-23.625,53.65c-14.6,12.014-31.439,16.73-50.2,14.574a61.279,61.279,0,0,1-14.061-3.413,1.592,1.592,0,0,0-.668-.136c-1.55.157-3.1.341-4.775.531a67.762,67.762,0,0,0,80.012-18.331C2449.549,557.866,2448.308,525.762,2435.985,505.02Z" transform="translate(-401.043 -344.692)" fill="#fff"/><path d="M2193.434,413.834a41.872,41.872,0,0,1,57.187-4.047c.928.752.934.744,1.88.006a43.117,43.117,0,0,0-69.349,45.848,2.86,2.86,0,0,1,.338-.2c.643-.259.678-.668.49-1.3a41.253,41.253,0,0,1-1.181-18.486A40.842,40.842,0,0,1,2193.434,413.834Z" transform="translate(-248.279 -248.406)" fill="#fff"/><path d="M2075.614,1275.634a9.978,9.978,0,1,0,9.95,9.974A9.954,9.954,0,0,0,2075.614,1275.634Zm4.026,1.564q1.367.953,2.716,1.933a.821.821,0,0,1,.3,1.059c-.161.428-.254.882-.382,1.347-.971-.155-1.885-.286-2.79-.457a1.236,1.236,0,0,1-.575-.333c-.683-.651-1.331-1.34-2.024-1.979a.61.61,0,0,1-.2-.759c.16-.391.136-.9.686-1.043A2.623,2.623,0,0,1,2079.639,1277.2Zm-3.732-.959,1.755.219c-.011.078-.022.157-.034.236l-1.75-.26C2075.889,1276.369,2075.9,1276.3,2075.907,1276.239Zm-2.987,3.225c.538-.2,1.091-.37,1.647-.519a2.588,2.588,0,0,1,2.846.772c1.8,1.98,1.605,1.01.936,3.69a2.154,2.154,0,0,1-1.9,1.818c-.775.128-1.542.312-2.409.492a2.671,2.671,0,0,1-.686-.352,24.769,24.769,0,0,1-1.781-1.808,1.011,1.011,0,0,1-.195-.82c.3-.966.669-1.913,1.052-2.851A.906.906,0,0,1,2072.92,1279.464Zm-1.284-2.307.133.186-1.317.854-.138-.214Zm-3.951,3.57a8.873,8.873,0,0,1,1.293-1.622,1.835,1.835,0,0,1,2.961.02c.091.1.176.2.115.273-.369,1.2-.733,2.409-1.111,3.609a.593.593,0,0,1-.243.291c-.817.507-1.64,1-2.461,1.5a.868.868,0,0,1-.15-.114C2066.461,1282.683,2066.5,1282.809,2067.685,1280.727Zm.127,9.713a2.288,2.288,0,0,1-.445-.463,9.412,9.412,0,0,1-.8-6.7c.467.635.894,1.2,1.3,1.779a1.411,1.411,0,0,1,.119.488c.212.991.4,1.989.652,2.968a.9.9,0,0,1-.083.905c-.13.161-.182.384-.3.554A4.614,4.614,0,0,1,2067.812,1290.44Zm4.432,3.8a5.92,5.92,0,0,1-3.738-3.506c-.143-.306.251-.9.479-1.318.058-.107.43-.089.647-.057a8.36,8.36,0,0,1,2.586.487,8.569,8.569,0,0,1,1.82,1.815,2.358,2.358,0,0,0,.445.366.8.8,0,0,1,.374.932c-.171.981-.176,1.006-1.142,1.2-.339.069-.681.121-1.056.187C2072.538,1294.318,2072.39,1294.282,2072.244,1294.241Zm3.591.683-2.284-.183c.009-.1.018-.2.028-.3l2.279.232Zm2.938-3.475c-.927.3-1.865.558-2.88.855a6.007,6.007,0,0,1-1.25-.633,14.882,14.882,0,0,1-1.7-1.718,1.1,1.1,0,0,1-.208-.869c.257-.9.592-1.788.934-2.665a.713.713,0,0,1,.455-.324c1.115-.281,2.241-.516,3.353-.808a.679.679,0,0,1,.8.168c.562.609,1.155,1.19,1.752,1.764a.9.9,0,0,1,.279.992q-.506,1.434-1.079,2.844A.805.805,0,0,1,2078.772,1291.449Zm5.637-2.983a10.005,10.005,0,0,1-2.344,3.728,1.524,1.524,0,0,1-2.53-.581c-.039-.116.052-.283.1-.421.345-1.032.689-2.065,1.049-3.092a.8.8,0,0,1,.3-.414c.757-.442,1.531-.857,2.406-1.34.116.082.32.223.52.37C2084.8,1287.379,2084.8,1287.382,2084.409,1288.467Zm-.821-2.448a1.109,1.109,0,0,1-.223-.607,13.44,13.44,0,0,0-.44-2.432,3.675,3.675,0,0,1,.132-2.833c1.041.723,2.212,4,1.755,6.738A13.7,13.7,0,0,1,2083.589,1286.018Z" transform="translate(-143.38 -1045.272)" fill="#fff"/><path d="M2506.076,761.756a42.805,42.805,0,0,0-1.488-12.616,3.523,3.523,0,0,1-.465.209c-.59.159-.667.489-.522,1.068a41.908,41.908,0,0,1-44.485,51.819,39.885,39.885,0,0,1-11.966-2.9c-1.134-.466-2.246-.987-3.371-1.483-.261.893-.163,1.283.4,1.554a43.147,43.147,0,0,0,52.251-11.682A42.21,42.21,0,0,0,2506.076,761.756Z" transform="translate(-487.05 -566.626)" fill="#fff"/><path d="M2840.609,244.478a9.154,9.154,0,0,0-2.1-1.514c-1.836-.917-3.726-1.724-5.63-2.592l-4.991,10.7c2.311,1.007,4.457,2.3,6.9,2.84a6.081,6.081,0,0,0,2.459.069c2.516-.521,3.87-2.307,4.591-4.636A4.445,4.445,0,0,0,2840.609,244.478Zm-1.25,3.564a12.9,12.9,0,0,1-1.472,3.035,2.952,2.952,0,0,1-3.615,1.185c-1.144-.376-2.242-.893-3.444-1.382l3.844-8.242c1.2.663,2.408,1.222,3.5,1.953A2.84,2.84,0,0,1,2839.36,248.043Z" transform="translate(-836.378 -104.095)" fill="#fff"/><path d="M2385.437,224.355,2383,225.2l3.827,11.11,2.436-.845c-.6-1.763-1.185-3.451-1.784-5.2l5.334-1.836c.612,1.766,1.2,3.467,1.8,5.2l2.432-.851-3.827-11.107-2.436.842,1.537,4.484-5.333,1.835Z" transform="translate(-431.923 -87.096)" fill="#fff"/><path d="M1987.347,769.039a.805.805,0,0,0,.081-.66c-.064-.148-.347-.239-.547-.28-.242-.049-.5,0-.75-.027a.512.512,0,0,0-.594.412,10.468,10.468,0,0,0-.336,6.7,6,6,0,0,0,6.005,4.347,5.525,5.525,0,0,0,5.483-4.655,15.493,15.493,0,0,0,.221-5.179c-.121-1.273-.1-1.274-1.323-1.415-.077-.009-.153-.026-.229-.033l-4.009-.339c-.083.875-.16,1.695-.244,2.578l3.246.274c1.167.1,1.167.1,1.214,1.249.106,2.623-1.179,4.328-3.594,4.714a7.387,7.387,0,0,1-1.56.04,4.084,4.084,0,0,1-4.165-4.54A6,6,0,0,1,1987.347,769.039Z" transform="translate(-69.904 -583.687)" fill="#fff"/><path d="M2569.048,202.443l-8.506.746c.343,3.92.679,7.761,1.026,11.711l8.716-.764c-.062-.557-.115-1.028-.172-1.543l-6.1.522c-.118-1.319-.228-2.562-.344-3.864l5.321-.475c-.052-.51-.1-.977-.15-1.458l-5.3.461c-.1-1.167-.188-2.253-.281-3.369l5.9-.526C2569.113,203.365,2569.082,202.929,2569.048,202.443Z" transform="translate(-593.326 -69.613)" fill="#fff"/><path d="M2161.554,361.932l-6.076,5.873,8.165,8.456,6.241-6.023-1.057-1.146-4.221,4.063-2.751-2.5,3.574-3.9-.9-.964-3.7,3.571L2158.3,367.1l4.313-4.17Z" transform="translate(-225.075 -214.608)" fill="#fff"/><path d="M2678.073,223.2c.453-.806.963-1.58,1.41-2.389a.677.677,0,0,1,.851-.424c1.152.226,2.315.4,3.481.55.417.052.532.255.6.61.192,1.038.406,2.072.617,3.132l2.757.439a3.6,3.6,0,0,0-.037-.386q-1.282-5.393-2.569-10.784c-.3-1.252-.308-1.242-1.633-1.417a.77.77,0,0,0-.858.368c-2.235,3.283-4.495,6.55-6.746,9.823-.092.134-.169.278-.286.472.636.1,1.208.173,1.77.295A.5.5,0,0,0,2678.073,223.2Zm4.973-8.271c.325,1.608.619,3.058.935,4.616l-3.4-.524Z" transform="translate(-697.979 -78.769)" fill="#fff"/><path d="M2030.13,632.521a.551.551,0,0,1,.625-.428c.964-.009,1.929-.037,2.891-.089a.609.609,0,0,0,.456-.278c.292-.749.538-1.517.841-2.4-.791.049-1.481.092-2.171.133-3.079.184-6.156.445-9.238.511a1.558,1.558,0,0,0-1.758,1.428.759.759,0,0,0,.211.853q3.3,3.206,6.561,6.449c.762.76,1.468,1.576,2.2,2.367a13.323,13.323,0,0,0,.785-1.808.48.48,0,0,0-.164-.64c-.753-.632-1.482-1.293-2.238-1.923a.524.524,0,0,1-.2-.686Q2029.566,634.279,2030.13,632.521Zm-2.458,2.881-3.629-3.152h4.711Z" transform="translate(-103.484 -457.703)" fill="#fff"/><path d="M2272.272,295.966a4.5,4.5,0,0,1,2.774-1,.976.976,0,0,0,.624-.447c.079-.12-.022-.408-.116-.58a1.7,1.7,0,0,0-.481-.569.882.882,0,0,0-.643-.2,8.4,8.4,0,0,0-4.028,2.689,3.3,3.3,0,0,0-.757,2.86,3.091,3.091,0,0,0,3.595,2.362c1.167-.128,2.327-.332,3.5-.45a1.287,1.287,0,0,1,1.578,1.155,1.881,1.881,0,0,1-1.037,1.857,6.218,6.218,0,0,1-3.171.946.881.881,0,0,0-.566.441c-.073.135.027.415.13.581a2.476,2.476,0,0,0,.6.7.86.86,0,0,0,.681.179,31.013,31.013,0,0,0,2.905-1.4,5.04,5.04,0,0,0,2.041-2.228c1.058-2.151-.143-5.044-3.182-4.662-1.166.146-2.333.274-3.5.411a1.383,1.383,0,0,1-1.45-.621A1.485,1.485,0,0,1,2272.272,295.966Z" transform="translate(-328.791 -152.087)" fill="#fff"/><path d="M2069.131,468.908l-4.259-2.768-4.284-2.787,2.5-3.872-1.305-.85-6.437,9.914,1.318.827,2.5-3.833,8.55,5.546Z" transform="translate(-134.046 -302.519)" fill="#fff"/><path d="M2916.54,1345.255a2.287,2.287,0,0,0-1.057.241c-1.174.648-2.32,1.348-3.493,2.038l4.063,6.761c1.031-.63,2.018-1.193,2.957-1.825a4.575,4.575,0,0,0,1.11-1.08,2.183,2.183,0,0,0-1.433-3.459,5.329,5.329,0,0,0-.981.036c.095-.218.19-.407.259-.6A1.527,1.527,0,0,0,2916.54,1345.255Zm-2.629,2.17c.7-.316,1.229-1.083,2.044-.7a1.487,1.487,0,0,1,.686,1.086c.046.963-.916,1.1-1.539,1.6Zm4.829,2.547a1.189,1.189,0,0,1-.158,1.581,2.318,2.318,0,0,1-.4.329c-.367.239-.744.465-1.158.722l-1.481-2.454a17.116,17.116,0,0,1,1.757-.847A1.168,1.168,0,0,1,2918.74,1349.972Z" transform="translate(-912.835 -1108.566)" fill="#fff"/><path d="M3213.914,781.245a2.206,2.206,0,0,0-1.267,1.714c-.107-.134-.167-.207-.223-.281a1.6,1.6,0,0,0-1.747-.735,1.548,1.548,0,0,0-1.213,1.575c.009,1.418.134,2.835.215,4.335l7.88-.682c-.046-.6-.049-1.128-.131-1.638a17.985,17.985,0,0,0-.6-3.1A2.138,2.138,0,0,0,3213.914,781.245Zm-3.413,4.838c-.073-.761-.408-1.515.2-2.148a1.081,1.081,0,0,1,1.345-.164c.8.473.606,1.316.7,2.108Zm3.109-.278c0-.65-.031-1.224.008-1.794a1.352,1.352,0,0,1,2.62-.26c.138.569.171,1.164.258,1.8Z" transform="translate(-1183.275 -595.64)" fill="#fff"/><path d="M2607.775,1431.144a4,4,0,0,0-2.768,4.088,3.736,3.736,0,0,0,3.063,3.575,7.392,7.392,0,0,0,2.456.051,3.951,3.951,0,0,0,3.509-4,3.715,3.715,0,0,0-2.684-3.747A5.541,5.541,0,0,0,2607.775,1431.144Zm4.563,3.8-.105.044a7.708,7.708,0,0,1-.1.916,2.492,2.492,0,0,1-2.713,2.074,2.762,2.762,0,0,1-2.546-2.557,5.418,5.418,0,0,1,.106-1.658,2.324,2.324,0,0,1,2.045-1.931,2.5,2.5,0,0,1,2.692,1.289A10.314,10.314,0,0,1,2612.338,1434.947Z" transform="translate(-633.745 -1186.362)" fill="#fff"/><path d="M2731.332,1417.829a5.967,5.967,0,0,0-2.816.8,4.023,4.023,0,0,0-1.941,4.391,3.832,3.832,0,0,0,3.466,3.069,5.435,5.435,0,0,0,3.525-.861,3.861,3.861,0,0,0,1.711-4.6A3.786,3.786,0,0,0,2731.332,1417.829Zm2.412,4.515a2.566,2.566,0,0,1-1.558,2.487,2.652,2.652,0,0,1-2.976-.635,3.562,3.562,0,0,1-.824-3.6,2.262,2.262,0,0,1,1.96-1.651,2.493,2.493,0,0,1,2.689,1.177,13.3,13.3,0,0,1,.86,2.162Z" transform="translate(-744.183 -1174.544)" fill="#fff"/><path d="M3215.635,884c-.146-1.981-1.043-2.8-3.051-3.025-.938-.105-1.875-.227-2.813-.331-.567-.063-1.137-.1-1.758-.161-.03.431-.055.791-.084,1.2.212.036.342.067.475.079,1.421.124,2.842.243,4.264.366a1.71,1.71,0,0,1,1.818,1.712,3.669,3.669,0,0,1-.066,1.145,1.384,1.384,0,0,1-1.647,1.249c-.98-.069-1.959-.17-2.939-.252-.743-.062-1.488-.113-2.285-.173-.043.6-.082,1.124-.122,1.693,1.45.134,2.847.27,4.245.387.537.045,1.079.063,1.617.06a2,2,0,0,0,2.026-1.515A6.876,6.876,0,0,0,3215.635,884Z" transform="translate(-1181.422 -686.037)" fill="#fff"/><path d="M3016.565,1300.652a.667.667,0,0,1,.579-.047c.518.251,1,.579,1.515.837a.64.64,0,0,0,.547,0c.4-.286.767-.632,1.2-1-.144-.094-.2-.14-.269-.174-2.3-1.206-4.6-2.417-6.909-3.6a.692.692,0,0,0-.621.116c-.263.241-.737.338-.57.926.468,1.645.87,3.309,1.3,4.965l.782,3.035a8.871,8.871,0,0,1,.706-.557.685.685,0,0,0,.279-.972,9.894,9.894,0,0,1-.476-1.48.69.69,0,0,1,.162-.566Q3015.642,1301.351,3016.565,1300.652Zm-2.37.741-.986-3.022,2.738,1.551Z" transform="translate(-1003.76 -1064.36)" fill="#fff"/><path d="M3178.347,1050.957a18.043,18.043,0,0,0,1.053-2.849.775.775,0,0,0-.544-1.119c-.133-.044-.323-.116-.406-.059s-.114.259-.122.4c-.024.4.011.811-.042,1.208a2.719,2.719,0,0,1-2.629,2.595,4.11,4.11,0,0,1-3.041-1.187,2.007,2.007,0,0,1-.613-1.68,4.744,4.744,0,0,1,1.333-2.7c.534-.622.54-.66-.212-1.044-.1-.052-.211-.09-.312-.133a7.4,7.4,0,0,0-1.785,3.875,4.027,4.027,0,0,0,2.654,4.383A3.663,3.663,0,0,0,3178.347,1050.957Z" transform="translate(-1148.291 -835.043)" fill="#fff"/><path d="M2526.726,1421.73c1.1.2,2.2.362,3.334.546l.18-1.031-5.756-.905-1.225,7.743,1.7.245c.194-1.183.373-2.279.558-3.4l3.4.523c.061-.392.108-.688.159-1.014l-3.4-.556a11.732,11.732,0,0,0,.24-1.577C2525.925,1421.67,2526.231,1421.641,2526.726,1421.73Z" transform="translate(-559.433 -1176.827)" fill="#fff"/><path d="M2829.588,1376.875l-7.295,2.952.387.955,2.839-1.128,2.553,6.29,1.6-.648-2.536-6.293,2.838-1.17Z" transform="translate(-831.289 -1137.312)" fill="#fff"/><path d="M3067.72,1249.65l-.779-.683-2.426,2.677-5.052-4.537-1.146,1.28,5.823,5.241Z" transform="translate(-1045.864 -1019.337)" fill="#fff"/><path d="M3201.178,987.88l-1-.256c-.3,1.187-.594,2.333-.895,3.513L3192.7,989.5c-.14.563-.273,1.1-.414,1.667l7.6,1.9Z" transform="translate(-1167.66 -783.436)" fill="#fff"/><path d="M3113.2,1193.019l-.849-.6-2.086,2.966-5.567-3.893-.98,1.415,6.417,4.489Z" transform="translate(-1087.134 -968.779)" fill="#fff"/><path d="M3065.676,500.3c-.761-.082-1.051.144-1.007.818C3065.56,501.193,3065.824,500.967,3065.676,500.3Z" transform="translate(-1051.634 -340.388)" fill="#fff"/><path d="M3131.884,576.754c.5.035.673-.261.575-.816-.375.062-.851-.184-.9.428A.515.515,0,0,0,3131.884,576.754Z" transform="translate(-1112.447 -409.165)" fill="#fff"/><path d="M2111.208,1174.095c-.751-.032-1.01.3-.907,1.133.021.169.209.434.344.449.278.031.582-.052.566-.467C2111.2,1174.848,2111.208,1174.486,2111.208,1174.095Z" transform="translate(-183.984 -952.958)" fill="#fff"/><path d="M2113.86,1155.93v.807c.234-.076.462-.087.571-.206a.469.469,0,0,0-.016-.468C2114.3,1155.956,2114.067,1155.972,2113.86,1155.93Z" transform="translate(-187.239 -936.447)" fill="#fff"/></g></svg>