<?xml version="1.0" encoding="utf-8"?>
<!-- Generator: Adobe Illustrator 28.0.0, SVG Export Plug-In . SVG Version: 6.00 Build 0)  -->
<svg version="1.1" id="Layer_1" xmlns:v="https://vecta.io/nano"
	 xmlns="http://www.w3.org/2000/svg" xmlns:xlink="http://www.w3.org/1999/xlink" x="0px" y="0px" viewBox="0 0 324.6 436.2"
	 style="enable-background:new 0 0 324.6 436.2;" xml:space="preserve">
<style type="text/css">
	.st0{clip-path:url(#SVGID_00000174576852815825204640000001580355171029177535_);}
	.st1{fill:#FFD600;}
	.st2{fill:#002942;}
	.st3{fill:#AB131C;}
	.st4{fill:#FFFFFF;}
</style>
<g>
	<defs>
		<rect id="SVGID_1_" width="324.6" height="435.1"/>
	</defs>
	<clipPath id="SVGID_00000057113616725281531000000013631422972782866081_">
		<use xlink:href="#SVGID_1_"  style="overflow:visible;"/>
	</clipPath>
	<g id="g4156" style="clip-path:url(#SVGID_00000057113616725281531000000013631422972782866081_);">
		<path id="path4144" class="st1" d="M0,0v323.8c0,18.2,0,40.8,11.3,58.9c13.2,21.3,38.4,31.6,76.9,31.6c22.6,0,38.2,2.6,48.7,5.5
			c10.2,2.9,18.8,6.7,24.9,15.3h1.1c6.1-8.5,14.7-12.4,24.9-15.3c10.5-3,26.1-5.5,48.7-5.5c38.5,0,63.7-10.3,76.9-31.6
			c11.3-18.1,11.3-40.7,11.3-58.9V0H0z"/>
		<path id="path4146" class="st2" d="M162.3,422.2c0,0,13.2-17,72.2-17c80.4,0,81-46.5,81-82.2V102.3H162.3L162.3,422.2z"/>
		<path id="path4148" class="st3" d="M162.3,102.3H9.1V323c0,35.8-0.6,82.2,79.1,82.2c59,0,74.1,17,74.1,17L162.3,102.3z"/>
		<path id="path4150" class="st4" d="M315.4,9.1H9.1v93.2h306.4V9.1z"/>
		<path id="path4152" class="st3" d="M306.4,49H169V18h-13.3V49H17.9v13.3h137.7v31.1H169V62.3h137.4V49z"/>
		<path id="path4154" class="st1" d="M106.8,264.5c-0.6,1.3-2.8,4.1,0.3,5.3l-1.3,3.5c0,0,5.4-1.3,5.4-4.7c0-2.2-1.9-8.8-3.2-11
			c8.2,1.3,18.6,1.6,24,0.9c6.9-0.6,12.6-2.5,18.3-6.3c0,0-2.8,6-13.6,7.9c6.9,6.2,14.4,11.6,22.4,16.1c0,0-30.3,6-33.7,6.6
			c-3.5,0.6-6.3,2.2-7.6,5.7c-6,16.7,10.1,24.6,10.1,26.2c0,1.9-6.6,14.8-6.6,14.8c-6.3-5.4-10.1-3.2-11-1.9c0.9,0,2.5,0.9,2.5,1.9
			c-1.1-0.6-2.3-0.9-3.5-0.9c-3.5,0-4.4,1.3-5,2.8c0.9,0,2.2,0.3,2.5,1.6c-0.9-0.5-1.9-0.7-2.8-0.6c-6.6,0-4.1,9.5-4.1,9.5
			c1.3-0.9,2.5-1.3,5-1.3h18.3c1.3,0,2.6-0.3,3.8-0.8c1.2-0.5,2.3-1.3,3.1-2.4l12.9-13.2c1.9-2.2,2.2-4.1,1.6-6
			c-1.9-6.9-3.5-17-3.5-17s0.9,0.9,2.8,2.5c4.3,2.8,9.1,4.9,14.2,6c-0.3-2.2-4.1-13.9,0.9-22.4c0,0-2.2,8.5,3.2,22.7
			c4.7,11,14.5,19.5,28.4,19.5c16.1,0,14.2,23,14.2,23c-6.6-6.3-10.7-3.5-12.3-1.3c1.3,0,3.5,0.3,4.4,2.2c0,0-2.8-1.3-5-1.3
			c-1.1-0.1-2.2,0.3-3.1,1c-0.9,0.7-1.5,1.7-1.6,2.8c0.3,0,2.5,0.6,2.8,1.9c-1.1-0.2-2.3-0.3-3.5-0.3c-4.7,0-2.5,11-2.5,11l0.9-0.9
			c0.6-0.6,1.4-0.9,2.2-0.9h23c3.2,0,6.3-2.5,6.3-5.7v-30.3c0-3.8-2.5-4.7-6-4.7c0,0,1.9-1.6,1.9-5c0,0-1.9,0.6-9.8-1.9
			c-5.3-1.9-8.8-6.9-8.5-20.8c12.3,7.6,26.8,12,33.1,3.2c3.8-5,4.7-15.8-6-24.3c-14.5-12.6-9.8-15.8-5.7-19.5c0.6,0.6,3.5,1.6,6-0.3
			c3.2-2.5,0.9-8.2,3.8-10.1c0,0-6.6-0.9-10.4,1.6c-3.5,2.2-1.9,6-1.3,6.9c-4.4,4.1-11.4,9.8,2.2,22.1c8.5,8.2,8.8,13.9,5.3,18
			c-6,6-23-5.7-27.1-9.1c-0.3-4.7-2.5-9.1-5.4-12.6c-6.6-7.6-15.1-19.5-19.5-33.7c2.4,2.2,5.3,3.8,8.4,4.8c3.1,1,6.4,1.3,9.6,0.9
			l-6.6-14.6c4.4,9.1,15.5,14.8,28.7,11.4l-15.5-18.3c7.9,11.4,24,16.1,40.4,6l-27.1-18.6c11,7.9,26.8,5.4,37.8-6l-27.1-9.8
			c27.1,9.8,35.9-14.8,35.9-14.8c-24,10.1-48.5-20.2-62.7,2.8c-7.9,14.8-16.7,18.3-22.1,20.2c4.7-3.2,9.8-6,17.3-19.2
			c9.1-15.5,17-16.4,31.2-12c3.8,0.9,6.6,0.9,9.1,0c9.8-4.1,10.7-11,10.7-11c-20.5,10.1-37.8-14.8-50.1,5.7
			c-7.6,13.6-12.3,20.8-18,26.8c1.6-5,2.5-17.3-2.8-30.6c6-1.3,4.7-8.2,4.7-8.2s-1.9,1.9-6.6,1.9c-4.1,0-5-4.4-14.2-4.4
			c-10.4,0-14.8,5.3-14.8,5.3c-12.9,0.3-13.2,10.1-13.2,10.1s15.5-3.2,16.1,9.5c0,5.4-2.8,9.5-11.7,13.6c-6.6,3.2-14.5,10.7-17,21.1
			c-2,8.6-1,17.6,2.9,25.6c0.2-1.8,0.6-3.6,1.3-5.3c1.3,3.2,5.7,9.5,7.3,11.3c-1.5,0.4-3,1.1-4.4,1.9c-6,3.8-7.2,4.7-10.7,5.3
			c-0.6-0.9-2.5-5.3-5.4-12.3c-3.5-7.9-10.7,0-10.7,0h4.4c0,0-0.9,3.5,2.8,4.4c3.8,0.9,5.7,7.6,5.7,7.6l-12.9-7.9
			c-3.5-1.9-6.6,2.8-7.6,5.3l3.2-0.9c0.4,1,1.2,1.9,2.2,2.4c1,0.5,2.1,0.7,3.2,0.5c5.4-0.9,11,4.4,11,4.4s-6.9-0.6-9.8-0.9
			c-3.5-0.3-4.7,4.1-5.4,6.9l3.2-1.9c0,0,1.9,2.5,4.4,1.6c2.8-0.9,6.3-4.7,10.7-1.6C107.1,260.8,107.4,263.3,106.8,264.5
			 M147.5,160.8c0.3,0.6-0.3,1.9-1.3,2.2c-1.9,0.6-3.8-0.6-4.1-1.6c0.3-0.5,0.7-0.9,1.2-1.2c0.5-0.3,1-0.5,1.6-0.7
			c4.7-0.9,7.6,0.3,7.6,0.3C149,160.2,147.5,160.8,147.5,160.8 M83.1,195.5c2.5,0,6.6-4.1,10.1,0.3c2.2,3.2-1.3,6.3-1.3,6.3
			s-3.8,3.5-1.3,6.6l-2.2,2.2c0,0,6,0.6,6.6-2.5L97,199l11,10.1c3.5-8.5,12-10.7,12-10.7c-9.8-4.7-24.9-8.2-24.9-8.2l-9.4-12.6
			c-2.8-3.8-6.3-0.3-7.9,1.9l2.8-0.3c-0.3,1.3-0.6,4.1,3.8,5c5,0.9,7.6,6.9,7.6,6.9s-7.9-1.9-10.7-2.5c-3.2-0.3-4.7,4.1-4.7,6.9
			L79,193c0.3,0.8,0.9,1.4,1.7,1.9C81.4,195.3,82.3,195.5,83.1,195.5"/>
	</g>
</g>
</svg>
