<?xml version="1.0" encoding="UTF-8"?>
<svg id="Layer_2" data-name="Layer 2" xmlns="http://www.w3.org/2000/svg" xmlns:xlink="http://www.w3.org/1999/xlink" viewBox="0 0 33.56 19.58">
  <defs>
    <style>
      .cls-1 {
        clip-path: url(#clippath);
      }

      .cls-2 {
        fill: none;
      }

      .cls-2, .cls-3, .cls-4 {
        stroke-width: 0px;
      }

      .cls-5 {
        clip-path: url(#clippath-1);
      }

      .cls-6 {
        clip-path: url(#clippath-4);
      }

      .cls-7 {
        clip-path: url(#clippath-3);
      }

      .cls-8 {
        clip-path: url(#clippath-2);
      }

      .cls-9 {
        clip-path: url(#clippath-6);
      }

      .cls-10 {
        clip-path: url(#clippath-5);
      }

      .cls-3 {
        fill: #d50037;
      }

      .cls-4 {
        fill: #fff;
      }
    </style>
    <clipPath id="clippath">
      <rect class="cls-2" width="33.56" height="19.58"/>
    </clipPath>
    <clipPath id="clippath-1">
      <rect class="cls-2" width="33.56" height="19.58"/>
    </clipPath>
    <clipPath id="clippath-2">
      <rect class="cls-2" width="33.56" height="19.58"/>
    </clipPath>
    <clipPath id="clippath-3">
      <rect class="cls-2" width="33.56" height="19.58"/>
    </clipPath>
    <clipPath id="clippath-4">
      <rect class="cls-2" width="33.56" height="19.58"/>
    </clipPath>
    <clipPath id="clippath-5">
      <rect class="cls-2" width="33.56" height="19.58"/>
    </clipPath>
    <clipPath id="clippath-6">
      <rect class="cls-2" width="33.56" height="19.58"/>
    </clipPath>
  </defs>
  <g id="Layer_1-2" data-name="Layer 1">
    <g id="GEORGIA">
      <g>
        <rect id="SVGID" class="cls-4" width="33.56" height="19.58"/>
        <g class="cls-1">
          <g>
            <g class="cls-5">
              <path class="cls-3" d="m7.96,4.42c-.02.36-.05.71-.11,1.06-.02.11-.04.23-.06.34.22-.03.44-.04.67-.04s.45.02.67.04c-.02-.11-.04-.22-.06-.34-.05-.35-.09-.7-.1-1.06.48.02.94.08,1.39.17-.02-.22-.04-.44-.04-.67s.01-.45.04-.67c-.45.09-.92.14-1.39.17.02-.48.07-.94.16-1.4-.22.03-.44.04-.67.04s-.45-.01-.67-.04c.08.46.14.93.17,1.4-.48-.02-.95-.08-1.4-.17.03.22.04.44.04.67s-.01.45-.04.67c.46-.09.92-.14,1.4-.17"/>
            </g>
            <g class="cls-8">
              <path class="cls-3" d="m24.6,4.42c-.02.36-.05.71-.11,1.06-.01.11-.04.23-.06.34.22-.03.44-.04.67-.04s.45.02.67.04c-.02-.11-.04-.22-.05-.34-.06-.35-.09-.7-.11-1.06.48.02.94.08,1.4.17-.03-.22-.05-.44-.05-.67s.02-.45.05-.67c-.46.09-.93.14-1.4.17.02-.48.08-.94.16-1.4-.22.03-.44.04-.67.04s-.45-.01-.67-.04c.09.46.14.93.17,1.4-.48-.02-.94-.08-1.4-.17.03.22.04.44.04.67s-.01.45-.04.67c.46-.09.93-.14,1.4-.17"/>
            </g>
            <g class="cls-7">
              <path class="cls-3" d="m8.97,15.16c.01-.36.05-.72.1-1.06.02-.11.04-.23.06-.34-.22.03-.44.04-.67.04s-.45-.02-.67-.04c.02.11.04.23.06.34.05.35.09.7.11,1.06-.48-.02-.95-.08-1.4-.17.03.22.04.44.04.67s-.01.45-.04.67c.46-.09.92-.14,1.4-.16-.02.48-.08.94-.17,1.4.22-.03.44-.04.67-.04s.45.01.67.04c-.09-.46-.14-.92-.16-1.4.48.02.94.08,1.39.16-.02-.22-.04-.44-.04-.67s.01-.45.04-.67c-.45.08-.92.14-1.4.17"/>
            </g>
            <g class="cls-6">
              <path class="cls-3" d="m25.6,15.16c.02-.36.05-.72.11-1.06.02-.11.03-.23.05-.34-.22.03-.44.04-.67.04s-.45-.02-.67-.04c.02.11.04.23.06.34.05.35.09.7.11,1.06-.48-.02-.94-.08-1.4-.17.03.22.04.44.04.67s-.01.45-.04.67c.46-.09.93-.14,1.4-.16-.02.48-.08.94-.17,1.4.22-.03.44-.04.67-.04s.45.01.67.04c-.08-.46-.14-.92-.16-1.4.48.02.94.08,1.4.16-.03-.22-.05-.44-.05-.67s.02-.45.05-.67c-.46.08-.93.14-1.4.17"/>
            </g>
            <g class="cls-10">
              <rect class="cls-3" x="14.81" width="3.94" height="19.58"/>
            </g>
            <g class="cls-9">
              <rect class="cls-3" y="7.81" width="33.56" height="3.95"/>
            </g>
          </g>
        </g>
      </g>
    </g>
  </g>
</svg>