<?xml version="1.0" encoding="UTF-8"?>
<svg id="Layer_2" data-name="Layer 2" xmlns="http://www.w3.org/2000/svg" viewBox="0 0 283.19 299.06">
  <defs>
    <style>
      .cls-1 {
        fill: #3b975c;
      }

      .cls-1, .cls-2, .cls-3, .cls-4, .cls-5, .cls-6, .cls-7 {
        stroke-width: 0px;
      }

      .cls-2 {
        fill: #231f20;
      }

      .cls-3 {
        fill: #243f88;
      }

      .cls-4 {
        fill: #c02026;
      }

      .cls-5 {
        fill: #ece94f;
      }

      .cls-6 {
        fill: #fff;
      }

      .cls-7 {
        fill: #f4de45;
      }
    </style>
  </defs>
  <g id="Layer_1-2" data-name="Layer 1">
    <g>
      <path class="cls-2" d="m141.59,15.84C63.39,15.84,0,79.24,0,157.45s63.39,141.61,141.59,141.61,141.59-63.4,141.59-141.61S219.79,15.84,141.59,15.84Zm0,233.49c-50.48,0-91.55-41.22-91.55-91.88,0-24.6,9.56-47.71,26.93-65.08,17.28-17.28,40.23-26.8,64.62-26.8s47.34,9.52,64.62,26.8c17.36,17.36,26.92,40.48,26.92,65.08,0,50.66-41.07,91.88-91.54,91.88Z"/>
      <path class="cls-3" d="m240.3,58.71c-26.37-26.37-61.42-40.89-98.71-40.89C64.62,17.82,1.99,80.46,1.99,157.45s62.63,139.63,139.6,139.63,139.6-62.64,139.6-139.63c0-37.3-14.52-72.37-40.89-98.74Zm-98.71,192.59c-51.58,0-93.54-42.1-93.54-93.86,0-25.13,9.77-48.73,27.5-66.47,17.65-17.66,41.11-27.38,66.03-27.38s48.38,9.72,66.03,27.38c17.74,17.74,27.5,41.35,27.5,66.47,0,51.75-41.96,93.86-93.54,93.86Z"/>
      <g>
        <path class="cls-6" d="m38.6,163.09c.09,3.28-.4,6.36-1.47,9.25l-6.59.18c.68-1.19,1.2-2.48,1.55-3.87.35-1.39.5-2.78.46-4.17-.04-1.48-.4-2.81-1.06-3.98-.67-1.17-1.58-2.08-2.73-2.73-1.16-.64-2.46-.95-3.92-.91-2.29.06-3.98.81-5.09,2.24-1.11,1.43-1.63,3.25-1.57,5.45.02.79.07,1.38.13,1.76l3.08-.08-.09-3.26,5.6-.15.29,10.24-14.09.39c-.1-.33-.25-.95-.45-1.84-.2-.89-.41-2.05-.63-3.48-.22-1.43-.35-2.93-.39-4.49-.04-1.51.01-2.86.16-4.06.15-1.19.43-2.34.85-3.43.42-1.09.98-2.17,1.7-3.22.59-.87,1.36-1.69,2.32-2.47.95-.77,2.07-1.41,3.36-1.92,1.29-.51,2.66-.79,4.13-.83,2.19-.06,4.18.29,5.96,1.06,1.78.77,3.29,1.86,4.53,3.29,1.24,1.42,2.19,3.08,2.86,4.97.67,1.89,1.03,3.9,1.09,6.04Z"/>
        <path class="cls-6" d="m39.22,175.01l5.04,18.97-5.37,1.41-2.72-10.22-4.54,1.19,2.48,9.34-5.29,1.39-2.48-9.34-4.75,1.25,2.74,10.33-5.48,1.44-5.07-19.08,25.44-6.67Z"/>
        <path class="cls-6" d="m44.02,194.12l11.83,22.61-5.86,3.03-3.81-7.28-17.49,9.04-4.25-8.13,17.49-9.04-3.77-7.21,5.86-3.03Z"/>
        <path class="cls-6" d="m59.76,220.96l6.24,7.31-12.21,26.11-5.91-6.93,2.14-4.06-7.76-9.1-4.38,1.43-5.84-6.85,27.73-7.92Zm-2.14,8.04l-10.58,3.62,5.34,6.26,5.24-9.88Z"/>
        <path class="cls-6" d="m74.52,236.77l15.6,11.16-3.24,4.48-8.22-5.87-2.81,3.87,7.71,5.52-3.24,4.48-7.71-5.52-6.09,8.41-7.39-5.28,15.37-21.23Z"/>
        <path class="cls-6" d="m91.25,248.49l18.06,8.01-2.27,5.06-9.73-4.32-1.91,4.25,8.89,3.94-2.24,4.98-8.89-3.94-1.99,4.44,9.84,4.36-2.31,5.15-18.17-8.05,10.72-23.87Z"/>
        <path class="cls-6" d="m136.18,260.7c1.95.14,3.58.4,4.92.76,1.33.36,2.74.91,4.23,1.65l-.57,7.6c-1.29-.9-2.48-1.59-3.59-2.08-1.1-.49-2.38-.79-3.82-.89-1.44-.11-2.74.04-3.91.44-1.17.4-2.11,1.05-2.83,1.95-.72.9-1.13,2.03-1.23,3.37-.11,1.41.13,2.64.7,3.67.57,1.03,1.42,1.83,2.54,2.41,1.12.58,2.43.92,3.93,1.04,2.58.19,5.19-.37,7.83-1.68l-.52,6.94c-1.1.44-2.17.79-3.23,1.05-1.05.26-2.15.42-3.28.5-1.13.07-2.37.06-3.71-.04-2.18-.16-4.14-.64-5.89-1.42-1.75-.78-3.21-1.82-4.38-3.1-1.18-1.28-2.04-2.75-2.59-4.42-.55-1.66-.76-3.42-.62-5.29.21-2.79,1.05-5.17,2.51-7.12,1.46-1.96,3.38-3.38,5.73-4.29,2.36-.9,4.95-1.25,7.78-1.04Z"/>
        <path class="cls-6" d="m154.75,277.5c.82-.09,1.63.03,2.41.35.78.32,1.43.82,1.95,1.48.52.67.83,1.43.92,2.3.09.83-.03,1.63-.36,2.39-.33.76-.83,1.4-1.51,1.91-.67.51-1.46.81-2.34.91-.85.09-1.65-.03-2.41-.38-.76-.34-1.39-.85-1.89-1.53-.5-.67-.8-1.42-.89-2.24-.14-1.29.19-2.44,1-3.46.81-1.02,1.85-1.6,3.12-1.74Z"/>
        <path class="cls-6" d="m160.48,259.77l18.52-5.11,1.49,5.32-9.74,2.69,1.28,4.59,9.14-2.52,1.49,5.32-9.14,2.52,2.79,9.98-8.78,2.42-7.04-25.2Z"/>
        <path class="cls-6" d="m191.56,267.36c.75-.34,1.55-.49,2.4-.43.84.06,1.62.32,2.32.79.7.47,1.24,1.1,1.6,1.89.35.76.5,1.55.42,2.38-.07.83-.35,1.59-.82,2.28-.48.69-1.12,1.23-1.93,1.6-.78.36-1.58.49-2.4.4-.83-.09-1.59-.37-2.28-.85-.69-.48-1.21-1.09-1.56-1.84-.55-1.18-.6-2.38-.16-3.6.44-1.22,1.25-2.1,2.41-2.63Z"/>
        <path class="cls-6" d="m207.5,236.87c1.25-1.04,2.55-1.81,3.88-2.29,1.33-.49,2.74-.75,4.23-.78l4.44,5.28c-1.53-.05-2.89.02-4.1.22-1.21.2-2.25.66-3.11,1.38-.51.42-.88.92-1.12,1.5-.24.58-.15,1.11.26,1.6.24.29.6.47,1.07.54.47.07.93.05,1.39-.05l4.8-.99c3.21-.69,5.77.09,7.68,2.36,1.52,1.81,2.04,3.88,1.54,6.2-.25,1.17-.71,2.23-1.4,3.17-.69.94-1.61,1.89-2.76,2.84-1.29,1.07-2.52,1.91-3.68,2.51-1.17.61-2.57,1.18-4.2,1.72l-4.59-5.45c.55-.1,1.11-.2,1.68-.3.57-.1,1.16-.24,1.75-.4.59-.17,1.21-.4,1.85-.7.64-.3,1.23-.67,1.75-1.11,1.41-1.17,1.73-2.2.98-3.09-.46-.54-1.14-.72-2.05-.54l-5.16,1c-1.3.26-2.63.15-4-.33-1.36-.48-2.47-1.23-3.31-2.24-1.07-1.27-1.66-2.62-1.78-4.06-.12-1.44.17-2.85.88-4.23.71-1.38,1.73-2.63,3.07-3.74Z"/>
        <path class="cls-6" d="m231.73,237.61c.55-.62,1.22-1.07,2.02-1.35.8-.28,1.61-.35,2.44-.2.83.15,1.58.51,2.24,1.09.63.55,1.09,1.22,1.36,2.01.27.79.33,1.59.18,2.42-.15.83-.52,1.58-1.11,2.24-.56.64-1.24,1.08-2.03,1.33-.79.25-1.6.29-2.43.13-.83-.16-1.55-.51-2.18-1.06-.98-.86-1.52-1.94-1.61-3.23-.09-1.29.28-2.42,1.13-3.37Z"/>
        <path class="cls-6" d="m228.88,213.19l4.77-8.33,28.89,2.44-4.53,7.9-4.57-.6-5.94,10.37,2.85,3.6-4.47,7.8-17.01-23.18Zm8.34-.75l7.05,8.63,4.09-7.14-11.14-1.5Z"/>
        <path class="cls-6" d="m256.35,194.7c.26-.79.69-1.47,1.31-2.04.62-.58,1.33-.97,2.16-1.16.82-.2,1.65-.16,2.49.11.8.26,1.48.69,2.05,1.3.56.61.94,1.33,1.14,2.15.19.82.15,1.65-.12,2.5-.27.81-.71,1.49-1.33,2.03-.62.54-1.35.91-2.18,1.09-.82.18-1.63.15-2.42-.1-1.24-.4-2.17-1.17-2.77-2.32-.6-1.15-.71-2.33-.32-3.54Z"/>
        <path class="cls-6" d="m242.76,182.72l1.55-13.14c.23-1.93.75-3.72,1.57-5.35.82-1.64,1.89-3.02,3.2-4.15,1.31-1.13,2.84-1.96,4.6-2.48,1.75-.52,3.65-.66,5.68-.43,2.45.29,4.59,1.06,6.4,2.33,1.81,1.27,3.15,2.91,4.01,4.92.86,2.02,1.14,4.23.86,6.64l-1.73,14.7-26.13-3.04Zm7.29-8.38l13.66,1.59.21-1.75c.16-1.6.12-2.94-.12-4-.24-1.06-.82-1.94-1.73-2.62-.91-.68-2.27-1.13-4.08-1.34-2.52-.29-4.37.12-5.55,1.23-1.18,1.11-1.9,2.8-2.17,5.05l-.21,1.83Z"/>
        <path class="cls-6" d="m261.85,148.21c-.06-.82.08-1.61.43-2.38.35-.76.87-1.39,1.56-1.88.69-.49,1.47-.77,2.35-.83.84-.06,1.64.08,2.39.44.76.35,1.38.87,1.87,1.56.49.69.77,1.47.84,2.35.06.85-.09,1.64-.46,2.38-.37.74-.91,1.35-1.6,1.82-.7.48-1.46.75-2.28.81-1.3.1-2.45-.27-3.45-1.11-.99-.84-1.54-1.89-1.64-3.16Z"/>
      </g>
      <g>
        <path class="cls-2" d="m184.54,52.82c-5.09,23.57-28.45,38.58-52.17,33.52-23.72-5.06-38.82-28.27-33.73-51.84C103.73,10.93,127.09-4.08,150.81.98c23.72,5.06,38.82,28.27,33.73,51.84Z"/>
        <g>
          <path class="cls-6" d="m153.88,5.73l1.65-1.02c-1.68-.59-3.4-1.12-5.19-1.5-6.84-1.46-13.64-1.13-19.95.63l2.13,1.78,21.37.11Z"/>
          <polygon class="cls-6" points="158.83 21.1 151.23 33.55 155.09 46.99 167.62 52.6 178.46 45.89 171.58 22.01 158.83 21.1"/>
          <path class="cls-6" d="m111.81,19.12l-.85-3.41c-4.87,5.25-8.47,11.79-10.08,19.27-.75,3.48-.99,6.95-.85,10.36l2.98-1.84,8.8-24.38Z"/>
          <path class="cls-6" d="m180.83,45.91l2.19,1.83c1.07-10.71-2.14-21.08-8.4-29.21l-.98,2.4,7.19,24.98Z"/>
          <polygon class="cls-6" points="128.64 46.38 133.34 33.63 126.05 20.88 113.9 20.01 105.39 43.6 115.13 51.76 128.64 46.38"/>
          <path class="cls-6" d="m152.5,82.64l-.42,1.02c8.95-2.33,16.9-7.57,22.54-14.88l-2.88-.21-19.25,14.06Z"/>
          <polygon class="cls-6" points="134.95 31.87 149.29 32.39 157.12 19.55 154.24 7.99 133.04 7.88 128.12 19.92 134.95 31.87 134.95 31.87"/>
          <polygon class="cls-6" points="129.33 48.54 115.85 53.9 110.98 65.81 128.85 78.46 139.79 71.7 140.39 57.16 129.33 48.54"/>
          <polygon class="cls-6" points="154.63 49.26 142.66 57.25 142.07 71.55 152.21 80.04 169.91 67.11 166.82 54.72 154.63 49.26"/>
          <path class="cls-6" d="m108.91,67.11l-1.63-.12c5.08,7.38,12.53,13.17,21.56,16.05l-.55-2.21-19.38-13.73Z"/>
        </g>
      </g>
      <g>
        <path class="cls-2" d="m212.37,82.78H69.82v102.93c0,39.33,32.2,71.33,71.77,71.33s71.77-32,71.77-71.33v-102.93h-1Z"/>
        <path class="cls-5" d="m93.7,132.65c.13-.18.19-.37.31-.55h-22.19v18.47h20.47c-3.5-7.2-.79-15.01,1.41-17.92Z"/>
        <path class="cls-5" d="m96.43,110.41c.51-.02.95.35,1.02.85.28,1.98,2.69,4.77,4.55,6.62,0-.05,0-.11,0-.16,0-5.54-.67-9.76-.68-9.81,0-.05-.01-.1-.01-.16,0-.39.24-.76.61-.91.42-.18.91-.04,1.18.33.14.2,2.99,4.37,4.57,9.94.87-1.86,1.92-4.45,1.92-6.44,0-.46.32-.86.77-.96.45-.1.91.13,1.11.54.08.16,1.49,3.22,1.51,7.53.39-.55.87-1.1,1.32-1.65v-31.37h-18.59v26.07c.17-.23.41-.41.72-.42Z"/>
        <path class="cls-7" d="m95.71,115.71v2.56c.17.17.34.33.5.5-.24-1.11-.39-2.12-.5-3.06Z"/>
        <path class="cls-5" d="m108.06,164.17c-.23.11-.5.12-.74.04-.22-.08-5.25-1.92-11.61-8.88v82.49c5.51,4.81,11.76,8.8,18.59,11.7v-90.29c-3.43,3.53-6.08,4.85-6.24,4.93Z"/>
        <path class="cls-5" d="m120.69,150.57h20.9v-18.47h-23.06c2.69,3.52,5.71,11.06,2.16,18.47Z"/>
        <path class="cls-4" d="m141.59,84.76h-25.31v30.47c.19.14.34.33.38.56.04.22,1,5.33-.05,8.23-.16.45-.23.85-.33,1.27v3.47c.15.49.37.94.67,1.37h24.65v-45.38Z"/>
        <path class="cls-4" d="m91.39,117.09c-.05-.35.09-.71.37-.93.28-.22.66-.27.99-.13.32.13.65.33.98.55v-31.83h-21.92v45.38h21.92v-4.4s-.03-.07-.04-.11c-1.39-2.64-2.26-8.29-2.3-8.53Z"/>
        <path class="cls-4" d="m116.28,250.27c7.86,3.05,16.38,4.79,25.31,4.79v-102.53h-21.99c-1.13,1.75-2.24,3.2-3.32,4.5v93.23Z"/>
        <path class="cls-4" d="m71.81,152.53v33.18c0,19.82,8.46,37.68,21.92,50.33v-83.05c-.11-.15-.23-.3-.33-.46h-21.59Z"/>
        <path class="cls-6" d="m193.67,122.35l.39-.14-.39-5c-.17-.46-.84-1.86-1.92-1.86-1.53,0-7.45-1.85-7.95-2.63.03-.73,3.89-1.48,8.28-1.48h.38l1.29-3.48c.33-1.09,1-2.26,1.42-2.26s1.06,1.17,1.37,2.23l1.3,3.52h.37c4.4,0,8.25.75,8.25,1.6-.47.66-6.38,2.51-7.92,2.51-1.07,0-1.74,1.4-1.87,1.68l-.44,5.17s.66.24.9.33c.08.45.55,2.95.72,3.84h-5.47c.17-.89.63-3.37.72-3.83.25-.09.55-.19.55-.19Z"/>
        <path class="cls-6" d="m156.63,122.36l.39-.14-.4-5c-.16-.46-.84-1.86-1.91-1.86-1.53,0-7.44-1.85-7.94-2.63.03-.73,3.88-1.48,8.27-1.48h.38l1.29-3.48c.33-1.08,1.01-2.26,1.42-2.26s1.06,1.17,1.37,2.23l1.3,3.52h.38c4.4,0,8.25.75,8.25,1.6-.47.66-6.39,2.51-7.92,2.51-1.07,0-1.75,1.4-1.87,1.68l-.43,5.17s.66.24.9.33c.08.45.55,2.95.72,3.84h-5.46c.17-.89.63-3.37.72-3.83.25-.09.55-.19.55-.19Z"/>
        <path class="cls-6" d="m193.68,169.82l.39-.14-.39-5c-.17-.46-.84-1.86-1.92-1.86-1.54,0-7.46-1.85-7.95-2.63.03-.73,3.89-1.48,8.28-1.48h.38l1.29-3.49c.33-1.08,1-2.26,1.42-2.26s1.06,1.17,1.37,2.23l1.3,3.52h.37c4.4,0,8.25.75,8.25,1.6-.46.66-6.38,2.51-7.92,2.51-1.07,0-1.74,1.4-1.87,1.68l-.44,5.16s.66.25.89.34c.09.45.56,2.95.72,3.83h-5.46c.17-.89.64-3.37.72-3.83.25-.09.55-.2.55-.2Z"/>
        <path class="cls-6" d="m156.63,169.82l.39-.14-.4-5c-.16-.46-.84-1.86-1.91-1.86-1.54,0-7.45-1.85-7.94-2.63.03-.73,3.88-1.48,8.27-1.48h.38l1.29-3.49c.33-1.08,1.01-2.26,1.42-2.26s1.06,1.17,1.37,2.23l1.3,3.52h.38c4.4,0,8.25.75,8.25,1.6-.47.66-6.39,2.51-7.92,2.51-1.07,0-1.75,1.4-1.87,1.68l-.43,5.16s.66.25.89.34c.09.45.55,2.95.72,3.83h-5.46c.17-.89.63-3.37.72-3.83.25-.09.56-.2.56-.2Z"/>
        <path class="cls-6" d="m193.67,217.29l.39-.14-.39-4.99c-.17-.46-.84-1.87-1.92-1.87-1.54,0-7.46-1.85-7.95-2.62.03-.73,3.89-1.48,8.28-1.48h.38l1.29-3.49c.33-1.08,1-2.26,1.42-2.26s1.06,1.17,1.37,2.22l1.3,3.53h.37c4.4,0,8.25.75,8.25,1.59-.46.66-6.38,2.51-7.92,2.51-1.07,0-1.74,1.41-1.87,1.69l-.44,5.16s.66.24.9.33c.08.45.55,2.95.72,3.84h-5.47c.17-.88.63-3.37.72-3.83.25-.09.55-.19.55-.19Z"/>
        <path class="cls-6" d="m156.63,217.3l.39-.14-.4-4.99c-.16-.46-.84-1.87-1.91-1.87-1.54,0-7.45-1.85-7.94-2.62.03-.73,3.88-1.48,8.27-1.48h.38l1.29-3.49c.33-1.08,1.01-2.26,1.42-2.26s1.06,1.17,1.37,2.22l1.3,3.53h.38c4.4,0,8.25.75,8.25,1.59-.47.66-6.39,2.51-7.92,2.51-1.07,0-1.75,1.41-1.87,1.69l-.43,5.16s.66.24.9.33c.08.45.55,2.95.72,3.84h-5.46c.17-.88.63-3.37.72-3.83.25-.09.55-.19.55-.19Z"/>
        <path class="cls-6" d="m175,144.08l.4-.14-.4-5c-.17-.46-.84-1.87-1.91-1.87-1.54,0-7.45-1.85-7.95-2.63.03-.71,3.96-1.48,8.27-1.48h.38l1.29-3.49c.33-1.08,1.01-2.26,1.42-2.26s1.06,1.18,1.36,2.23l1.3,3.52h.38c4.32,0,8.26.77,8.26,1.59-.47.66-6.39,2.51-7.93,2.51-1.07,0-1.75,1.41-1.87,1.69l-.43,5.16s.66.25.89.34c.08.45.55,2.94.72,3.83h-5.46c.17-.88.63-3.37.72-3.82.25-.09.55-.19.55-.19Z"/>
        <path class="cls-6" d="m175,193.86l.4-.14-.4-5c-.17-.46-.84-1.86-1.91-1.86-1.53,0-7.45-1.85-7.95-2.63.03-.73,3.88-1.48,8.27-1.48h.38l1.29-3.48c.33-1.09,1.01-2.27,1.42-2.27s1.06,1.18,1.36,2.23l1.3,3.52h.38c4.4,0,8.26.75,8.26,1.6-.47.66-6.4,2.51-7.93,2.51-1.07,0-1.75,1.4-1.87,1.69l-.43,5.17s.66.25.89.33c.08.45.55,2.95.72,3.84h-5.47c.17-.89.63-3.37.72-3.83.25-.09.55-.19.55-.19Z"/>
        <path class="cls-5" d="m92.82,145.97c.06.29.15.58.22.88h26.89c.28-1.16.44-2.31.44-3.41,0-.26-.04-.51-.05-.77-3.88.04-10.38.24-12.24.8-1.94.6-7.46,2.28-15.25,2.5Z"/>
        <path class="cls-4" d="m116.19,132.38c-1.46-1.46-2.19-3.16-2.19-5.17,0-1.18.25-2.46.75-3.85.28-.76.37-1.8.37-2.87,0-.73-.06-1.44-.12-2.12-1.55,2.06-2.57,4.05-2.58,4.08-.22.45-.75.66-1.22.49-.4-.14-.65-.52-.65-.93,0-.07,0-.15.02-.22.31-1.36.43-2.67.43-3.87s-.13-2.22-.29-3.16c-.95,2.83-2.36,5.42-2.46,5.58-.21.36-.62.55-1.03.48-.41-.07-.73-.39-.81-.8-.54-3-1.64-5.68-2.66-7.75.11,1.56.21,3.32.21,5.39,0,.8-.01,1.63-.04,2.48-.01.38-.24.72-.59.87-.35.15-.75.09-1.04-.16-.41-.35-2.74-2.49-4.59-4.96.25,1.92.71,4.24,1.65,6.68.04.11.06.23.06.35,0,.35-.19.69-.52.87-.44.23-.99.1-1.27-.3-.66-.93-2.28-2.97-3.85-4.37.37,1.81.93,4.2,1.66,5.58.9,1.69,1.35,3.28,1.35,4.77,0,1.57-.5,3.03-1.51,4.36-.05.06-.11.17-.17.25h22.38c-.51-.78-.98-1.38-1.3-1.7Z"/>
        <path class="cls-4" d="m96.16,152.92c5.82,6.75,10.46,8.87,11.41,9.26.93-.5,5.57-3.24,10.4-10.77.56-.87.96-1.73,1.31-2.6h-25.61c.57,1.38,1.33,2.77,2.48,4.11Z"/>
        <path class="cls-5" d="m92.62,141.67c-.05.5-.08,1.01-.08,1.54,0,.26.05.54.06.8,7.6-.2,13-1.83,14.89-2.41,2.21-.67,9.11-.84,12.6-.89-.15-.81-.34-1.59-.58-2.32-3.92.06-9.7.26-11.44.79-1.95.6-7.56,2.3-15.45,2.5Z"/>
        <path class="cls-5" d="m94.07,136.04c-.43,1-.86,2.25-1.15,3.66,7.44-.23,12.71-1.83,14.57-2.41,1.96-.6,7.59-.8,11.28-.87-.06-.13-.12-.26-.19-.39h-24.51Z"/>
        <path class="cls-1" d="m207.59,143.47s.52-.19.74-.26c-.05-.68-.28-4.01-.28-4.01-.21-.48-.64-1.04-.87-1.04-1,0-9-1.83-9-3.59,0-2.37,6.49-2.64,8.95-2.66.2-.54,1.03-2.76,1.03-2.76.16-.5.99-3,2.45-3,.29,0,.54.12.78.27v-27.02h-4.86l1.07-5.72s.52-.19.74-.26c-.05-.68-.28-4.01-.28-4.01-.21-.48-.64-1.04-.87-1.04-1,0-9-1.83-9-3.59,0-.01.01-.02.01-.03h-9.31s.01.02.01.03c0,1.76-8.01,3.59-9.02,3.59-.23,0-.66.56-.83.86,0,0-.27,3.52-.32,4.19.2.08.7.26.7.26l1.08,5.71h-8.07l1.07-5.72s.52-.18.75-.26c-.05-.68-.29-4-.29-4-.21-.48-.64-1.04-.87-1.04-1,0-9.01-1.83-9.01-3.59,0-.01,0-.02,0-.03h-9.31s.01.02.01.03c0,1.76-8,3.59-9,3.59-.24,0-.66.56-.84.86,0,0-.27,3.52-.32,4.19.21.08.7.26.7.26l1.07,5.71h-4.8v27.05c.25-.17.52-.3.82-.3,1.46,0,2.25,2.51,2.38,2.97,0,0,.84,2.25,1.04,2.79,2.47.02,8.96.29,8.96,2.66,0,1.76-8,3.59-9,3.59-.23,0-.66.56-.84.87,0,0-.27,3.52-.32,4.19.21.08.7.26.7.26l1.07,5.71h-4.8v27.04c.25-.17.52-.3.82-.3,1.46,0,2.25,2.51,2.38,2.98,0,0,.84,2.25,1.04,2.79,2.47.02,8.96.28,8.96,2.66,0,1.71-8.02,3.59-9,3.59-.24,0-.66.56-.84.86,0,0-.27,3.52-.32,4.19.21.08.7.26.7.26l1.07,5.71h-4.8v27.05c.25-.17.52-.3.82-.3,1.46,0,2.25,2.51,2.38,2.97,0,0,.84,2.25,1.04,2.79,2.47.02,8.96.28,8.96,2.66,0,1.76-8,3.59-9,3.59-.24,0-.66.56-.84.86,0,0-.27,3.52-.32,4.19.21.08.7.26.7.26l1.07,5.71h-4.8v6.32c11.15,0,21.66-2.67,31.02-7.32l.88-4.72s.52-.18.75-.26c-.05-.68-.29-4-.29-4-.21-.48-.64-1.04-.87-1.04-1,0-9.01-1.83-9.01-3.59,0-2.38,6.49-2.64,8.95-2.66.2-.54,1.02-2.76,1.02-2.76.16-.5.99-3,2.45-3s2.26,2.51,2.39,2.97c0,0,.83,2.24,1.03,2.79,2.46.02,8.96.28,8.96,2.66,0,1.76-8.01,3.59-9.02,3.59-.23,0-.66.56-.83.86,0,0-.27,3.52-.32,4.19.2.08.7.26.7.26l.13.7c15.53-10.07,26.75-26.06,30.42-44.77h-3.45l1.07-5.72s.52-.18.74-.26c-.05-.68-.28-4.01-.28-4.01-.21-.48-.64-1.04-.87-1.04-.99,0-9-1.88-9-3.59,0-2.38,6.49-2.64,8.95-2.66.2-.54,1.03-2.76,1.03-2.76.16-.5.99-3.01,2.45-3.01.29,0,.54.11.78.27v-27.02h-4.86l1.07-5.71Zm-15.88-33.29c.2-.54,1.03-2.76,1.03-2.76.15-.5.98-3,2.44-3s2.26,2.51,2.4,2.97c0,0,.83,2.25,1.03,2.79,2.46.02,8.95.29,8.95,2.67,0,1.71-8.02,3.59-9.01,3.59-.23,0-.66.56-.83.86,0,0-.27,3.51-.33,4.18.21.08.7.26.7.26l1.07,5.71h-8.07l1.07-5.72s.52-.18.74-.27c-.05-.67-.28-4-.28-4-.22-.48-.64-1.04-.88-1.04-.99,0-9-1.88-9-3.59,0-2.38,6.49-2.65,8.96-2.67Zm-18.68,21.72c.2-.54,1.02-2.76,1.02-2.76.16-.5.99-3,2.45-3s2.26,2.51,2.39,2.97c0,0,.83,2.25,1.03,2.79,2.46.02,8.96.29,8.96,2.66,0,1.76-8.01,3.59-9.02,3.59-.23,0-.66.56-.83.87,0,0-.27,3.52-.32,4.19.2.08.7.26.7.26l1.08,5.71h-8.08l1.07-5.71s.52-.18.75-.26c-.05-.68-.29-4-.29-4-.21-.48-.64-1.04-.87-1.04-1,0-9.01-1.83-9.01-3.59,0-2.37,6.49-2.64,8.95-2.66Zm-18.97-4.44l1.07-5.72s.53-.18.75-.26c-.05-.68-.29-4-.29-4-.22-.48-.64-1.04-.87-1.04-.99,0-9-1.88-9-3.59,0-2.38,6.48-2.65,8.95-2.67.2-.54,1.02-2.76,1.02-2.76.16-.5,1-3,2.45-3s2.26,2.51,2.39,2.97c0,0,.84,2.25,1.03,2.79,2.47.02,8.96.29,8.96,2.67,0,1.71-8.02,3.59-9.01,3.59-.23,0-.66.56-.83.86,0,0-.27,3.51-.33,4.18.21.08.7.26.7.26l1.07,5.71h-8.07Zm0,47.47l1.07-5.71s.53-.19.75-.27c-.05-.67-.29-4.01-.29-4.01-.22-.48-.64-1.04-.87-1.04-1,0-9-1.83-9-3.59,0-2.38,6.48-2.65,8.95-2.66.2-.54,1.02-2.76,1.02-2.76.16-.5,1-3,2.45-3s2.26,2.51,2.39,2.97c0,0,.83,2.25,1.03,2.79,2.47.02,8.96.28,8.96,2.66,0,1.76-8.01,3.59-9.01,3.59-.23,0-.66.56-.83.86,0,0-.27,3.52-.33,4.19.21.08.7.27.7.27l1.07,5.7h-8.07Zm7.45,36.45c-.23,0-.66.56-.83.87,0,0-.27,3.51-.33,4.17.21.08.7.26.7.26l1.07,5.71h-8.07l1.07-5.72s.53-.18.75-.26c-.05-.68-.29-3.99-.29-3.99-.22-.48-.64-1.04-.87-1.04-1,0-9-1.83-9-3.59,0-2.38,6.48-2.64,8.95-2.66.2-.54,1.02-2.77,1.02-2.77.16-.5,1-2.99,2.45-2.99s2.26,2.5,2.39,2.96c0,0,.84,2.25,1.03,2.8,2.47.02,8.96.28,8.96,2.66,0,1.76-8.01,3.59-9.01,3.59Zm10.91-12.41l1.07-5.72s.52-.18.75-.26c-.05-.68-.29-4-.29-4-.21-.48-.64-1.04-.87-1.04-.99,0-9.01-1.88-9.01-3.59,0-2.38,6.49-2.64,8.95-2.66.2-.54,1.02-2.76,1.02-2.76.16-.5.99-3.01,2.45-3.01s2.26,2.51,2.39,2.98c0,0,.83,2.25,1.03,2.79,2.46.02,8.96.28,8.96,2.66,0,1.71-8.03,3.59-9.02,3.59-.23,0-.66.56-.83.86,0,0-.27,3.52-.32,4.19.2.08.7.26.7.26l1.08,5.71h-8.07Zm26.18,6.16c2.46.02,8.95.28,8.95,2.66,0,1.76-8.01,3.59-9.01,3.59-.23,0-.66.56-.83.87,0,0-.27,3.51-.33,4.17.21.08.7.26.7.26l1.07,5.71h-8.07l1.07-5.71s.52-.19.74-.27c-.05-.67-.28-3.99-.28-3.99-.22-.48-.64-1.04-.88-1.04-1,0-9-1.83-9-3.59,0-2.38,6.49-2.64,8.96-2.66.2-.54,1.03-2.77,1.03-2.77.15-.5.98-2.99,2.44-2.99s2.26,2.5,2.4,2.96c0,0,.83,2.25,1.03,2.8Zm8.95-44.81c0,1.76-8.01,3.59-9.01,3.59-.23,0-.66.56-.83.86,0,0-.27,3.52-.33,4.19.21.08.71.27.71.27l1.07,5.7h-8.07l1.07-5.71s.52-.19.74-.27c-.05-.67-.28-4-.28-4-.22-.48-.64-1.04-.88-1.04-1,0-9-1.83-9-3.59,0-2.38,6.49-2.65,8.96-2.66.21-.54,1.03-2.76,1.03-2.76.15-.5.98-3,2.44-3s2.26,2.51,2.4,2.97c0,0,.83,2.25,1.03,2.79,2.46.02,8.95.28,8.95,2.66Z"/>
        <path class="cls-6" d="m175,89.15l.4,5-.4.14s-.3.1-.55.19c-.08.46-.55,2.95-.72,3.83h5.47c-.17-.89-.64-3.39-.72-3.84-.24-.09-.89-.33-.89-.33l.43-5.17c.12-.28.79-1.68,1.87-1.68,1.54,0,7.46-1.85,7.93-2.51,0-.01-.01-.02-.01-.03h-22.54c.8.81,6.35,2.54,7.84,2.54,1.07,0,1.74,1.4,1.91,1.86Z"/>
        <path class="cls-6" d="m144.37,94.48c-.23-.09-.89-.33-.89-.33l.43-5.17c.12-.28.8-1.68,1.87-1.68,1.53,0,7.45-1.85,7.92-2.51,0-.01-.01-.02-.01-.03h-12.1v13.56h3.5c-.17-.89-.63-3.39-.72-3.84Z"/>
        <path class="cls-6" d="m144.38,144.27c-.23-.09-.89-.34-.89-.34l.43-5.16c.12-.28.8-1.69,1.87-1.69,1.53,0,7.45-1.85,7.92-2.51,0-.83-3.93-1.59-8.25-1.59h-.38l-1.31-3.52c-.3-1.05-.94-2.23-1.35-2.23-.23,0-.54.37-.82.88v20h3.5c-.17-.89-.63-3.38-.72-3.83Z"/>
        <path class="cls-6" d="m144.37,194.05c-.23-.09-.89-.33-.89-.33l.43-5.17c.12-.28.8-1.69,1.87-1.69,1.53,0,7.45-1.85,7.92-2.51,0-.85-3.85-1.6-8.25-1.6h-.38l-1.31-3.52c-.3-1.06-.94-2.23-1.35-2.23-.23,0-.54.37-.82.88v20.01h3.5c-.17-.89-.63-3.39-.72-3.84Z"/>
        <path class="cls-6" d="m177.58,243.49l.43-5.17c.12-.28.79-1.68,1.87-1.68,1.54,0,7.46-1.85,7.93-2.51,0-.85-3.86-1.6-8.26-1.6h-.38l-1.3-3.52c-.3-1.05-.95-2.23-1.36-2.23s-1.09,1.18-1.42,2.27l-1.29,3.48h-.38c-4.39,0-8.25.75-8.27,1.48.49.78,6.41,2.62,7.95,2.62,1.07,0,1.74,1.4,1.91,1.86l.4,5-.4.14s-.3.11-.55.19c-.07.4-.42,2.24-.62,3.32,1.63-.85,3.21-1.77,4.76-2.75-.05-.26-.09-.48-.11-.58-.24-.09-.89-.33-.89-.33Z"/>
        <path class="cls-6" d="m144.37,243.82c-.23-.09-.89-.33-.89-.33l.43-5.17c.12-.28.8-1.68,1.87-1.68,1.53,0,7.45-1.85,7.92-2.51,0-.85-3.85-1.6-8.25-1.6h-.38l-1.31-3.52c-.3-1.05-.94-2.23-1.35-2.23-.23,0-.54.37-.82.88v20h3.5c-.17-.89-.63-3.39-.72-3.84Z"/>
        <path class="cls-6" d="m209.09,89.15l.38,5-.39.14s-.3.11-.54.19c-.09.46-.55,2.95-.72,3.83h3.55v-13.56h-12.04c.8.81,6.35,2.54,7.84,2.54,1.08,0,1.75,1.41,1.91,1.86Z"/>
        <path class="cls-6" d="m210.6,127.22c-.41,0-1.08,1.18-1.42,2.26l-1.29,3.49h-.38c-4.32,0-8.25.77-8.28,1.48.49.78,6.41,2.63,7.95,2.63,1.08,0,1.75,1.41,1.91,1.87l.38,5-.39.14s-.3.11-.54.19c-.09.46-.55,2.94-.72,3.83h3.55v-20.05c-.26-.48-.56-.83-.78-.83Z"/>
        <path class="cls-6" d="m210.6,177c-.41,0-1.08,1.18-1.42,2.27l-1.29,3.48h-.38c-4.4,0-8.25.75-8.28,1.48.5.78,6.42,2.63,7.95,2.63,1.08,0,1.75,1.41,1.91,1.86l.38,5-.39.14s-.3.11-.54.19c-.09.46-.55,2.95-.72,3.84h2.41c.71-3.96,1.15-8.02,1.15-12.17v-7.88c-.26-.48-.56-.83-.78-.83Z"/>
      </g>
    </g>
  </g>
</svg>