<?xml version="1.0" encoding="UTF-8"?>
<svg id="Layer_2" data-name="Layer 2" xmlns="http://www.w3.org/2000/svg" viewBox="0 0 317.99 423.09">
  <defs>
    <style>
      .cls-1, .cls-2, .cls-3, .cls-4, .cls-5, .cls-6, .cls-7, .cls-8, .cls-9, .cls-10, .cls-11, .cls-12, .cls-13, .cls-14, .cls-15, .cls-16, .cls-17, .cls-18, .cls-19, .cls-20, .cls-21, .cls-22, .cls-23, .cls-24, .cls-25, .cls-26 {
        stroke-width: 0px;
      }

      .cls-2 {
        fill: #f7f7f7;
      }

      .cls-3 {
        fill: #f9f9f9;
      }

      .cls-4 {
        fill: #070707;
      }

      .cls-5 {
        fill: #0b0b0b;
      }

      .cls-6 {
        fill: #239cd0;
      }

      .cls-7 {
        fill: #d1d1d1;
      }

      .cls-8 {
        fill: #ddd;
      }

      .cls-9 {
        fill: #cacaca;
      }

      .cls-10 {
        fill: #d7d7d7;
      }

      .cls-11 {
        fill: #c6c6c6;
      }

      .cls-12 {
        fill: #d4d4d4;
      }

      .cls-13 {
        fill: #d9d9d9;
      }

      .cls-14 {
        fill: #fdfdfd;
      }

      .cls-15 {
        fill: #e3e3e3;
      }

      .cls-16 {
        fill: #fafafa;
      }

      .cls-17 {
        fill: #e5e5e5;
      }

      .cls-18 {
        fill: #fefefe;
      }

      .cls-19 {
        fill: #ebebeb;
      }

      .cls-20 {
        fill: #fcfcfc;
      }

      .cls-21 {
        fill: #e7e7e7;
      }

      .cls-22 {
        fill: #f5f5f5;
      }

      .cls-23 {
        fill: #f4f4f4;
      }

      .cls-24 {
        fill: #030303;
      }

      .cls-25 {
        fill: #010101;
      }

      .cls-26 {
        fill: #060606;
      }
    </style>
  </defs>
  <g id="Ebene_1" data-name="Ebene 1">
    <g>
      <g>
        <path class="cls-18" d="m159.24,419.8c-4.57,0-9.22-.28-13.83-.82-23.11-2.73-44.92-12.04-64.83-27.66-20.86-16.38-37.57-37.44-51.08-64.4-10.98-21.93-18.64-46.14-22.76-71.95-2.61-16.35-3.75-32.77-3.39-48.81.44-19.39,2.74-38.2,6.83-55.93,4.27-18.48,10.63-36.37,18.9-53.17,10.96-22.27,24.93-41.36,41.52-56.73,17.69-16.4,36.34-27.08,57.04-32.67,10.69-2.89,21.43-4.35,31.9-4.35,20.77,0,41.29,5.74,61.01,17.06,19.79,11.37,36.7,27.24,51.69,48.52,16.28,23.11,27.73,49,35.02,79.16,3.51,14.52,5.79,29.57,6.77,44.74.47,7.18.67,13.18.65,18.89-.13,36.65-6.97,71.17-20.34,102.58-11.3,26.56-25.84,48.22-44.46,66.22-18.84,18.22-39.12,29.91-61.99,35.72-9.43,2.4-19.08,3.62-28.68,3.62Z"/>
        <path class="cls-6" d="m159.55,6.58c20.56,0,40.35,5.7,59.38,16.63,20.61,11.84,37.03,28.24,50.64,47.56,16.7,23.71,27.72,49.94,34.51,78.04,3.51,14.53,5.72,29.26,6.69,44.18.4,6.22.67,12.43.65,18.66-.13,35.07-6.31,68.95-20.07,101.31-10.42,24.49-24.5,46.57-43.72,65.15-17.24,16.67-37.08,28.94-60.52,34.9-9.21,2.34-18.5,3.51-27.87,3.51-4.46,0-8.94-.27-13.44-.8-23.71-2.81-44.55-12.36-63.18-26.98-21.76-17.08-37.85-38.71-50.17-63.29-11.25-22.46-18.5-46.21-22.46-71-2.55-15.98-3.71-32.05-3.35-48.22.85-37.69,8.68-73.77,25.4-107.72,10.33-20.97,23.61-39.83,40.81-55.78,16.08-14.91,34.35-26.15,55.66-31.91,10.53-2.84,20.88-4.24,31.04-4.24m0-6.58v6.58V0c-10.77,0-21.79,1.5-32.76,4.46-10.86,2.93-21.42,7.37-31.39,13.19-9.3,5.43-18.39,12.24-27.03,20.25-8.68,8.05-16.7,17.12-23.83,26.97-6.77,9.34-12.96,19.68-18.4,30.73-8.38,17.03-14.83,35.16-19.16,53.88C2.84,167.42.51,186.46.07,206.07c-.37,16.24.79,32.86,3.43,49.4,4.17,26.15,11.94,50.68,23.07,72.91,6.55,13.09,14.04,25.05,22.23,35.56,8.83,11.31,18.84,21.39,29.75,29.96,9.95,7.81,20.42,14.13,31.13,18.78,11.27,4.9,23.16,8.12,35.34,9.56,4.73.56,9.52.84,14.22.84,9.87,0,19.79-1.25,29.49-3.72,11.95-3.04,23.49-7.8,34.29-14.14,10.14-5.95,19.95-13.49,29.18-22.41,9.65-9.33,18.42-19.92,26.07-31.45,7.19-10.85,13.63-22.91,19.13-35.85,6.91-16.24,12.14-33.39,15.55-50.96,3.28-16.89,4.98-34.69,5.04-52.9.02-5.78-.19-11.86-.66-19.11-1-15.35-3.3-30.59-6.86-45.3-3.56-14.72-8.24-28.77-13.91-41.75-5.97-13.67-13.25-26.64-21.62-38.53-7.28-10.34-15.2-19.61-23.53-27.56-8.99-8.58-18.82-15.95-29.21-21.92C201.98,5.89,180.9,0,159.56,0h0Z"/>
      </g>
      <path class="cls-1" d="m14.66,209.16c.4-33.11,6.31-65.12,19.21-95.71,9.79-23.2,22.99-44.18,41-61.94,13.61-13.42,29.12-23.97,47.17-30.53,14.99-5.45,30.44-7.58,46.36-6.14,25.75,2.33,47.82,13.08,67.21,29.73,20.02,17.18,34.6,38.42,45.61,62.21,9.24,19.95,15.32,40.87,18.79,62.57,2.94,18.34,3.99,36.78,3.01,55.32-2.01,38.26-11.29,74.52-30.38,107.96-12.14,21.27-27.58,39.71-47.69,53.96-15.01,10.64-31.5,17.82-49.75,20.61-19.39,2.96-38.24.68-56.44-6.59-22.02-8.8-39.92-23.18-54.95-41.27-20.41-24.56-33.4-52.85-41.28-83.62-5.59-21.83-8.02-44.05-7.87-66.57Z"/>
      <path class="cls-18" d="m71.66,240.64c-6.08-6.62-12.16-13.24-18.25-19.85-10.24-11.1-20.5-22.18-30.75-33.27-.22-.24-.43-.48-.69-.78.72-.39,1.35-.21,1.95-.21,14.41-.01,28.82,0,43.23-.04,1.38,0,2.31.36,3.25,1.41,27.54,30.65,55.12,61.27,82.7,91.9,4.32,4.8,8.68,9.56,12.92,14.42,1.01,1.15,1.43,1.06,2.35-.07,19.52-24,39.08-47.98,58.63-71.95,9.36-11.48,18.71-22.95,28.08-34.42.48-.59.85-1.28,1.88-1.27,12.68.04,25.35.02,38.15.02-.16.8-.72,1.23-1.13,1.73-12.03,14.57-24.07,29.14-36.11,43.71-.18.22-.32.47-.48.7-.26,1.47-1.48,2.3-2.34,3.34-8.02,9.74-16.03,19.47-24.08,29.19-8.63,10.42-17.27,20.84-25.89,31.28-7.85,9.5-15.71,19-23.54,28.52-4.5,5.47-9.05,10.9-13.53,16.39-1.56,1.91-2.24,1.86-3.79.06-3.24-3.74-6.69-7.3-10.03-10.95-5.17-5.65-10.38-11.25-15.56-16.89-3.16-3.43-6.34-6.84-9.5-10.26-5.28-5.7-10.54-11.42-15.81-17.13-3.24-3.51-6.5-7.01-9.74-10.51-5.16-5.58-10.3-11.17-15.45-16.75-3.28-3.55-6.53-7.13-9.87-10.62-1.95-2.04-3.69-4.27-5.78-6.18-.44-.4-.72-.89-.81-1.49Z"/>
      <path class="cls-6" d="m71.66,240.64c12.57,13.57,25.15,27.13,37.71,40.71,13.47,14.56,26.91,29.14,40.37,43.7,5.08,5.51,10.2,10.98,15.22,16.55,1.03,1.14,1.5,1.02,2.42-.09,15.54-18.87,31.12-37.7,46.68-56.54,14.39-17.42,28.78-34.84,43.17-52.25.03-.04.11-.04.16-.06,7.66-.31,15.32-.61,22.97-.93,4.61-.19,9.21-.4,13.9-.61.01.8-.56,1.18-.93,1.62-37.88,45.79-75.77,91.58-113.65,137.36-4.41,5.33-8.86,10.63-13.2,16.01-.95,1.17-1.38,1.17-2.39.07-16.75-18.2-33.54-36.35-50.33-54.52-27.16-29.38-54.31-58.77-81.47-88.15-.19-.21-.37-.43-.77-.9,1.23-.1,2.21-.22,3.2-.26,11.86-.51,23.72-1.01,35.59-1.52.45-.02.9-.12,1.36-.19Z"/>
      <path class="cls-18" d="m195.56,123.3c1.93-1.27,3.92-2.22,6.29-1.81.7.12,1.47.23,1.86.79.95,1.34,1.84,1.03,2.89.17.82-.67,1.84-.96,2.85-1.16,2.83-.56,5.29,1.14,5.49,4.01.19,2.58.1,5.18.1,7.77,0,.97.17,1.64,1.37,1.75,1.56.14.61,1.42.82,2.17.21.79-.3.94-.99.93-2.25-.03-4.49,0-6.74-.01-.52,0-1.19.06-1.04-.73.16-.84-.68-2.04.63-2.46.83-.27,1.13-.68,1.12-1.46,0-2.07.04-4.15-.02-6.22-.05-1.55-.76-2.03-2.26-1.71-1.95.42-2.55,1.16-2.55,3.16,0,1.44,0,2.88,0,4.32,0,.89.03,1.59,1.21,1.92,1.2.34.4,1.57.53,2.39.13.83-.59.66-1.07.67-2.02.01-4.03.01-6.05,0-.47,0-1.2.2-1.05-.66.14-.81-.65-2,.5-2.38.89-.29,1.08-.75,1.08-1.47.01-2.19,0-4.38-.01-6.57,0-1.32-.71-1.68-1.92-1.45-1.87.36-2.63,1.23-2.64,3.13,0,1.44-.02,2.88,0,4.32.02.94-.15,1.87,1.29,2.22,1.02.25.36,1.5.46,2.29.1.8-.58.69-1.08.69-2.25,0-4.5-.04-6.74.02-.93.03-1.16-.46-.95-1.14.22-.71-.83-2.05.84-2.07,1.17-.02,1.32-.67,1.32-1.56,0-2.19-.02-4.38.03-6.57.02-.77-.25-1.06-.99-.97-.8.1-1.41-.06-1.21-1.07.16-.81-.61-2.03,1.06-2.2.96-.1,1.92-.39,2.83-.71,2.43-.85,2.45-.86,2.74,1.66Z"/>
      <path class="cls-18" d="m169.74,96.09c-.68.39-.4,1.49-1.26,1.59-1.04.11-2.11.36-2.27-1.36-.22-2.28-.76-4.54-1.12-6.81-.1-.63-.43-1.45.72-1.54.9-.07,1.83-1,2.54.6,1.15,2.59,2.94,4.67,5.87,5.44,1.03.27,2.06.31,3.07.02,1.05-.3,1.94-.87,2.06-2.06.11-1.13-.6-1.79-1.52-2.29-1.74-.93-3.64-1.4-5.5-1.99-1.33-.42-2.56-1-3.73-1.75-3.88-2.5-4.28-7.79-.72-10.73,3-2.48,6.34-2.8,9.84-1.13.65.31,1.01.61,1.63-.25.67-.94,2.28-.39,2.56.76.47,1.96.91,3.92,1.37,5.88.16.66.3,1.33-.66,1.37-.83.04-1.72,1.27-2.5-.17-.83-1.53-1.89-2.88-3.44-3.79-1.23-.73-2.53-1.07-3.95-.96-.98.08-1.85.45-2.14,1.45-.31,1.09.25,1.89,1.17,2.45,1.34.81,2.85,1.19,4.33,1.65,1.1.34,2.2.67,3.26,1.11,3.78,1.57,5.53,4.4,4.98,7.92-.56,3.59-3.57,6.2-7.47,6.49-2.61.19-5.03-.36-7.12-1.9Z"/>
      <path class="cls-18" d="m103.26,121.73c0,3.75.01,7.32,0,10.89,0,1.21.29,2.03,1.73,1.96,1.65-.08.71,1.21.89,1.86.21.78-.03,1.27-1.06,1.23-2.19-.08-4.38-.06-6.57,0-.9.02-1.16-.4-.98-1.14.16-.66-.73-1.92.93-1.84,1.27.07,1.54-.68,1.53-1.76-.02-4.21-.03-8.42,0-12.62,0-1.11-.31-1.78-1.53-1.78-1.97,0-.81-1.49-1.03-2.28-.29-1.01.43-1.11,1.21-1.04.11.01.23,0,.35,0,2.36.04,5.2-.71,6.93.36,1.64,1.01,2.11,3.93,3.09,6,.95,2,1.89,4,3.14,5.93,0-2.67.02-5.34-.01-8.01-.01-.94-.68-1.25-1.54-1.23-1.73.04-.81-1.28-.99-2-.25-.99.37-1.09,1.18-1.08,2.07.04,4.15.04,6.22,0,.78-.01,1.45.05,1.21,1.07-.17.73.7,2.05-1,2-1.44-.04-1.69.8-1.69,2.01.03,5.25-.03,10.49.04,15.74.02,1.23-.23,1.6-1.57,1.69-2.02.14-3.03-.5-3.83-2.41-1.75-4.18-3.8-8.24-5.75-12.34-.18-.39-.23-.89-.89-1.23Z"/>
      <path class="cls-18" d="m161.46,137.78c-2.59,0-5.19-.04-7.78.02-.94.02-1.47-.19-1.26-1.21.15-.74-.63-2.04,1.07-1.91,1.14.09,1.52-.53,1.52-1.58,0-4.38,0-8.76.02-13.14,0-1.09-.46-1.55-1.55-1.56-1.89-.02-.62-1.45-.88-2.19-.29-.83.27-1.02,1.05-1.01,5.07.03,10.14.03,15.21,0,.76,0,1.14.24,1.36.97.51,1.7,1.08,3.39,1.65,5.07.25.74.32,1.37-.67,1.54-.71.12-1.37,1.06-2.09-.3-1.74-3.28-4.96-4.54-8.45-3.66-.66.17-.6.58-.61,1.03-.01.92-.08,1.85.02,2.76.08.69-.63,1.85.99,1.81,1.34-.03,2.53-.12,2.3-1.91-.17-1.3.55-1.28,1.52-1.35,1.28-.1,1.21.61,1.2,1.46-.03,2.3-.06,4.61.01,6.91.03,1.01-.31,1.28-1.27,1.25-.92-.03-1.59-.06-1.45-1.27.1-.9-.03-1.73-1.16-1.99-1.62-.38-2.01-.09-2.01,1.59,0,.86,0,1.73,0,2.59,0,2.36,0,2.26,2.29,2.39,3.75.2,6.38-1.28,7.64-4.84.47-1.34,1.17-.5,1.73-.35.66.17,1.54.27,1.11,1.45-.79,2.16-1.51,4.34-2.19,6.53-.23.76-.63.92-1.36.91-2.65-.04-5.3-.02-7.95-.02Z"/>
      <path class="cls-18" d="m55.31,136.3c-4.23,2.34-8.42,2.72-12.19-.41-4-3.32-4.71-7.9-3.7-12.75.9-4.27,3.62-6.97,7.88-8.01,1.53-.37,3.07-.24,4.62.13,1.2.29,2.3,1.4,3.74.14.58-.51,1.68-.19,1.89,1.17.26,1.7.81,3.35,1.27,5.01.22.8.27,1.41-.75,1.65-.88.21-1.73,1-2.41-.46-.78-1.69-1.91-3.13-3.84-3.74-2.24-.72-4.61-.01-5.63,2.08-1.93,3.93-1.84,7.91.42,11.7,1.08,1.81,3.53,2.49,5.51,1.77,1.71-.62,2.63-2.9,1.87-4.59-.29-.64-.85-.75-1.44-.73-2.21.07-1-1.59-1.22-2.47-.29-1.19.65-1.06,1.4-1.06,2.48,0,4.96.01,7.44,0,.73,0,1.53-.05,1.28,1.01-.19.78.85,2.16-.92,2.25-1.16.06-1.42.71-1.41,1.72.03,1.84.05,3.69-.02,5.53-.02.52.48,1.5-.54,1.49-.93,0-2.09.63-2.82-.55-.15-.24-.26-.51-.44-.88Z"/>
      <path class="cls-18" d="m147.66,97.7c-1.04,0-2.08,0-3.11,0-2.06,0-2.6-.76-2.1-2.78.13-.54.45-.6.86-.62,1.19-.05,1.18-.75,1-1.67-.52-2.64-.49-2.65-3.11-2.65-.63,0-1.28.09-1.9-.02-1.79-.3-2.73.35-3.11,2.19-.26,1.24-.63,1.96,1.21,2.13,1.31.12.41,1.57.62,2.4.2.78-.28.95-.99.94-2.13-.03-4.27,0-6.4-.02-.48,0-1.2.17-1.11-.65.09-.91-.57-2.37.37-2.64,1.57-.45,1.85-1.59,2.29-2.73,2.1-5.53,4.21-11.06,6.23-16.62.44-1.22,1.03-1.65,2.34-1.6,3.16.11,3.16.03,4.21,3.02,1.84,5.26,3.68,10.52,5.55,15.77.33.92.53,1.85,1.83,2.24,1.18.35.37,1.71.5,2.6.14.97-.7.68-1.21.69-1.33.03-2.65.01-3.98.01Z"/>
      <path class="cls-18" d="m135.91,137.78c-1.15,0-2.31.05-3.46-.02-.51-.03-1.55.45-1.38-.63.13-.84-1.03-2.34.99-2.5.78-.06.97-.58.85-1.37-.38-2.5-.57-2.69-3.1-2.69h-1.38c-2.88,0-2.88.01-3.47,2.77-.18.83-.04,1.39.96,1.35,2.03-.08.85,1.43,1.06,2.21.27,1.01-.54.89-1.17.89-1.96,0-3.92.01-5.88-.01-.46,0-1.22.22-1.11-.62.1-.82-.64-2.07.49-2.4,1.38-.4,1.74-1.39,2.12-2.46,1.84-5.14,3.69-10.27,5.42-15.44.41-1.24.92-1.71,2.26-1.66,3.06.1,3.06.03,4.11,2.95,1.73,4.81,3.46,9.62,5.22,14.42.35.94.62,1.83,1.9,2.2,1.06.3.34,1.57.45,2.4.12.88-.63.61-1.08.62-1.27.03-2.54,0-3.8,0Z"/>
      <path class="cls-18" d="m91.28,137.78c-.98,0-1.96,0-2.94,0-1.84,0-2.44-.83-1.91-2.6.1-.34.24-.48.57-.49,1.06-.03,1.73-.45,1.25-1.61-.42-1.01.07-2.78-2.01-2.53-.79.1-1.61.02-2.42.02-2.85,0-2.84,0-3.46,2.78-.19.86,0,1.39.97,1.33,1.9-.11.86,1.32,1.06,2.05.27,1-.4,1.07-1.19,1.06-1.9-.04-3.8,0-5.7-.02-.45,0-1.2.26-1.09-.61.11-.83-.61-2.09.45-2.4,1.38-.41,1.74-1.39,2.11-2.46,1.8-5.15,3.62-10.29,5.31-15.47.41-1.26.93-1.69,2.26-1.64,3.02.1,3.02.03,4.09,2.97,1.74,4.8,3.46,9.61,5.22,14.41.34.94.63,1.82,1.91,2.2,1.01.3.34,1.58.43,2.42.09.88-.67.58-1.11.59-1.27.03-2.53.01-3.8.01Z"/>
      <path class="cls-18" d="m237.05,123.35c1.56-.86,2.85-1.81,4.54-1.95,3.22-.27,5.36,1.52,5.42,4.73.05,2.36.02,4.73.01,7.09,0,.76.1,1.45,1.05,1.44,1.94-.03.94,1.42,1.1,2.22.24,1.18-.71.89-1.34.9-2.07.02-4.15.02-6.22,0-.51,0-1.36.26-1.14-.72.18-.79-.83-2.07.73-2.33,1.02-.17.97-.81.98-1.5.01-1.96.01-3.92,0-5.88,0-1.01-.05-2.04-1.42-2.14-1.39-.11-3.24,1.09-3.27,2.2-.06,2.07-.01,4.15,0,6.22,0,.64.17,1.15.94,1.17.52.01.61.31.68.78.29,2.11.12,2.33-2.03,2.33-1.84,0-3.69-.03-5.53.01-.75.02-1.36-.13-1.08-1,.24-.75-.96-2.17.87-2.22,1.27-.03,1.53-.7,1.49-1.79-.05-1.55,0-3.11-.02-4.67-.02-1.14.53-2.58-1.67-2.41-.94.07-.44-1.1-.53-1.7-.1-.69-.12-1.36.89-1.54,1.13-.19,2.24-.51,3.34-.83,1.85-.55,2-.47,2.21,1.58Z"/>
      <path class="cls-18" d="m181.3,232.1c0,1.78-.14,3.32-.63,4.82-1.06,3.22-3.56,5.15-6.91,5.32-3.38.17-6.03-1.45-7.31-4.67-1.39-3.5-1.45-7.1-.09-10.62,1.36-3.5,3.78-4.94,7.56-4.76,3.17.15,5.74,2.26,6.74,5.53.46,1.5.68,3.03.63,4.38Z"/>
      <path class="cls-18" d="m193.9,234.28c-1.31.82-2.41,1.25-3.62,1.35-3.66.31-6.86-2.11-7.19-5.44-.42-4.14,2.33-7.58,6.36-7.97,6.34-.62,10.1,3.78,9.06,10.6-.79,5.18-4.64,8.7-9.98,9.12-.63.05-1.27.1-1.9.08-.7-.02-1.62.48-1.67-.97-.04-1.24.3-1.8,1.57-1.81,1.56-.01,3.08-.28,4.49-1.05,1.44-.79,2.35-1.95,2.88-3.91Z"/>
      <path class="cls-18" d="m158.55,234.36c-1.22.77-2.34,1.19-3.57,1.27-3.68.26-6.73-2.12-7.1-5.54-.42-3.93,2.22-7.34,6.1-7.86,5.49-.74,9.13,2.39,9.39,7.91.36,7.48-4.64,12.15-12.73,11.92-.68-.02-1-.25-.85-.89.15-.62-.56-1.6.68-1.78.8-.11,1.6-.17,2.4-.27,3.04-.35,5-1.93,5.66-4.76Z"/>
      <path class="cls-18" d="m262.17,129.64c.04-4.98,3.31-8.28,8.19-8.29,5.05,0,8.45,3.45,8.36,8.51-.09,5.15-3.29,8.35-8.32,8.33-5.19-.02-8.26-3.22-8.22-8.54Z"/>
      <path class="cls-14" d="m68.17,115.22c1.04,0,2.07,0,3.11,0,1.64,0,2.28,1,1.75,2.59-.19.56-.59.47-.96.47-1.26-.01-1.52.71-1.51,1.8.03,4.27.03,8.53,0,12.8,0,1.13.33,1.72,1.57,1.71,1.71,0,.66,1.34.87,2.04.26.85-.29,1.04-1.07,1.03-2.65-.04-5.3-.06-7.95,0-1.06.03-1.16-.54-1.02-1.28.12-.63-.62-1.8.9-1.69,1.32.1,1.7-.61,1.7-1.79-.02-4.27-.02-8.53,0-12.8,0-1.09-.32-1.76-1.59-1.7-1.64.08-.75-1.2-.89-1.87-.15-.67-.17-1.4.95-1.34,1.38.07,2.77.02,4.15.02Z"/>
      <path class="cls-18" d="m181.34,123.28c.7-.53,1.32-1.14,2.07-1.52,1.08-.55,2.28-.65,3.19.32.98,1.04.92,2.35.35,3.55-.57,1.2-1.64,1.47-2.92,1.18-2.34-.53-2.59-.31-2.59,2.05,0,1.21.02,2.42,0,3.63-.03,1.27-.11,2.32,1.77,2.43,1.17.07.36,1.42.55,2.17.18.71-.3.84-.91.83-2.42-.02-4.84-.04-7.26,0-.89.02-1.2-.38-1-1.12.2-.73-.78-2.04.85-2.09,1.15-.04,1.33-.69,1.33-1.57.01-2.13-.03-4.26.03-6.39.02-.88-.33-1.12-1.12-1.02-.74.09-1.31-.09-1.1-.99.19-.79-.74-2.05,1.01-2.23,1.07-.11,2.12-.49,3.16-.83,2.13-.69,2.28-.62,2.59,1.6Z"/>
      <path class="cls-14" d="m258.06,127.81c0,1.9.01,3.79,0,5.69,0,.72.14,1.25,1,1.27,1.96.04,1.03,1.54,1.12,2.41.13,1.23-.94.69-1.49.71-2.18.06-4.37.01-6.55.03-.72,0-1.38-.1-1.13-.99.21-.76-.9-2.16.89-2.22,1.02-.03,1.3-.57,1.31-1.41.02-2.24-.02-4.48.03-6.73.02-.77-.26-1.06-.99-.95-.96.14-1.41-.24-1.26-1.23.12-.79-.5-1.86,1.09-1.99,1.41-.12,2.8-.5,4.15-1.05,1.08-.45,1.99-.38,1.87,1.29-.13,1.72-.03,3.45-.03,5.17Z"/>
      <path class="cls-18" d="m141.97,230.4c0,2.19.06,4.38-.02,6.56-.06,1.58.41,2.46,2.16,2.19,1.06-.16,1.62.02,1.61,1.38-.01,1.34-.65,1.3-1.59,1.29-2.82-.03-5.64-.06-8.46.01-1.14.03-1.15-.54-1.15-1.37,0-.82-.03-1.36,1.12-1.35,2.71,0,2.71-.07,2.71-2.84,0-2.53,0-5.07,0-7.6,0-2.28,0-2.4-2.23-2.26-1.46.09-1.57-.54-1.52-1.69.03-.82.3-1.12,1.1-1.15,1.69-.05,3.29-.56,4.83-1.18,1.26-.51,1.48-.07,1.46,1.09-.05,2.3-.02,4.61-.02,6.91Z"/>
      <path class="cls-14" d="m226.22,127.85c0,1.84.03,3.69-.01,5.53-.02.91.25,1.43,1.24,1.42,1.76-.03.96,1.32,1.09,2.13.19,1.1-.62.99-1.32.99-2.31,0-4.61-.02-6.92.01-.72.01-1.2-.2-.96-.94.25-.77-.9-2.15.81-2.26,1.14-.07,1.32-.64,1.31-1.56-.01-2.19-.03-4.38.01-6.57.01-.73-.19-1.08-.96-.97-.82.12-1.4-.09-1.2-1.08.16-.8-.64-1.99,1.08-2.14,1.41-.12,2.81-.5,4.16-1.07.91-.38,1.79-.36,1.68,1.17-.13,1.78-.03,3.57-.03,5.36Z"/>
      <path class="cls-3" d="m189.62,204.26c-5.17,5.01-11.41,8-18.47,8.83-14.1,1.66-25.48-3.23-33.73-14.95-.46-.65-.77-1.39-1.15-2.09-.15-.34.01-.51.33-.58.63.13.92.64,1.24,1.12,7.45,11.14,17.97,16.21,31.23,15.41,6.47-.39,12.33-2.78,17.54-6.68.82-.61,1.53-1.43,2.61-1.62.29.07.51.19.4.55Z"/>
      <path class="cls-16" d="m142.54,157.49c5.51-5.39,12.19-8.5,19.78-9.19,13.52-1.22,24.43,3.66,32.38,14.81.2.27.32.6.48.9.17.37-.05.48-.36.53-1.63-.98-2.45-2.71-3.65-4.07-3.55-4.02-7.86-6.9-12.81-8.8-9.25-3.55-18.36-2.97-27.29,1.21-2.04.96-3.88,2.25-5.67,3.61-.77.59-1.43,1.36-2.45,1.53-.29-.06-.51-.19-.41-.55Z"/>
      <path class="cls-20" d="m193.44,94.89c.01,1.83-1.36,3.42-2.96,3.43-1.45,0-2.87-1.63-2.89-3.34-.02-1.76,1.45-3.43,3-3.42,1.54.02,2.83,1.52,2.85,3.32Z"/>
      <path class="cls-14" d="m161.31,95c-.03,1.82-1.48,3.39-3.06,3.32-1.46-.07-2.8-1.74-2.76-3.44.04-1.72,1.42-3.28,2.92-3.3,1.6-.02,2.94,1.55,2.9,3.43Z"/>
      <path class="cls-20" d="m226.5,116.92c-.01,1.68-1.2,2.94-2.72,2.92-1.46-.03-2.6-1.3-2.58-2.86.03-1.55,1.38-3.03,2.74-2.98,1.41.05,2.58,1.38,2.56,2.92Z"/>
      <path class="cls-20" d="m255.64,114c1.39-.04,2.63,1.25,2.69,2.79.06,1.64-1.09,3-2.59,3.04-1.48.04-2.66-1.14-2.71-2.72-.05-1.51,1.26-3.08,2.61-3.12Z"/>
      <path class="cls-19" d="m136.65,195.58c-.13.16-.25.31-.38.47-3.47-5.95-4.51-12.37-3.69-19.14.84.15.64.86.76,1.4-.22,5.45.83,10.65,3.04,15.63.23.51.57,1.03.27,1.64Z"/>
      <path class="cls-21" d="m194.82,164.43c.12-.14.24-.28.36-.42,3.98,6.02,5.35,12.67,4.75,19.79-.38.04-.51-.24-.63-.52-.35-1.71.1-3.47-.3-5.18-.59-4.3-1.75-8.42-3.94-12.21-.25-.44-.51-.92-.23-1.46Z"/>
      <path class="cls-17" d="m136.98,164.36c1.07-2.06,2.48-3.86,4.14-5.48.33-.14.45.06.55.32-1.13,2.16-2.5,4.13-4.4,5.69-.29-.07-.48-.2-.29-.53Z"/>
      <path class="cls-17" d="m194.84,198.09c-.83,1.53-1.89,2.89-3.15,4.09-.26-.07-.43-.24-.48-.51.84-1.6,1.7-3.18,3.35-4.12.24.1.47.22.28.54Z"/>
      <path class="cls-13" d="m136.98,164.36l.37.42c-.1,1.73-.8,3.16-2.17,4.25-.3-.1-.44-.28-.29-.59.46-1.48,1.16-2.84,2.09-4.08Z"/>
      <path class="cls-13" d="m134.89,168.43c.12.17.25.33.37.5.14,1.82-.57,3.38-1.45,4.9-.57.04-.32-.52-.53-.74.35-1.62.8-3.2,1.61-4.66Z"/>
      <path class="cls-9" d="m199.61,183.46c.1.11.21.22.31.33-.39,1.64-.11,3.41-.93,4.97-.37-.18-.54-.51-.64-.88.04-1.48.21-2.94.77-4.33.14-.17.3-.2.49-.09Z"/>
      <path class="cls-8" d="m133.27,173.09c.11.27.23.53.34.8.42,1.6.49,3.14-.7,4.48-.17-.48.1-1.06-.34-1.47.04-1.31.34-2.56.69-3.81Z"/>
      <path class="cls-17" d="m191.27,201.78c.14.13.28.27.42.4-.57.81-1.24,1.53-2.07,2.08-.14-.13-.27-.27-.41-.4.19-1.19.89-1.87,2.07-2.08Z"/>
      <path class="cls-7" d="m198.12,190.77c.3,1.12-.38,1.95-.84,2.85-.27-.06-.44-.24-.54-.48.02-.94.17-1.83.93-2.49.17-.03.32,0,.45.13Z"/>
      <path class="cls-12" d="m198.12,190.77l-.06-.02c-.93-1.16-.22-1.98.57-2.78.3.18.3.51.37.8-.18.72,0,1.59-.88,2Z"/>
      <path class="cls-10" d="m194.84,198.09c-.12-.15-.25-.29-.37-.44-.22-1.06.41-1.65,1.18-2.17.3,0,.42.2.52.44-.3.81-.71,1.55-1.32,2.18Z"/>
      <path class="cls-21" d="m196.15,195.92c-.12-.14-.25-.29-.37-.43-.28-1.09.19-1.82,1.12-2.33.13.15.25.3.38.45-.22.84-.63,1.6-1.13,2.3Z"/>
      <path class="cls-15" d="m141.53,159.3c-.14-.14-.27-.28-.41-.42.38-.56.82-1.05,1.41-1.39.14.13.28.27.42.4-.04.91-.51,1.38-1.42,1.42Z"/>
      <path class="cls-24" d="m140.54,79.87c.8,2.47,1.45,4.46,2.15,6.6h-4.32c.68-2.07,1.36-4.12,2.17-6.6Z"/>
      <path class="cls-26" d="m126.89,127.39c.67-2.03,1.29-3.91,2.03-6.14.68,1.97,1.25,3.63,1.82,5.29.25.73-.08.89-.75.87-.97-.04-1.95,0-3.1,0Z"/>
      <path class="cls-4" d="m86.24,127.31q-4.17.28-2.94-3.38c.25-.75.5-1.51.89-2.68.75,2.22,1.37,4.05,2.05,6.06Z"/>
      <path class="cls-1" d="m169.88,232.23c-.02-1.79.12-3.57.88-5.22.51-1.1,1.3-1.96,2.61-1.93,1.36.03,2.28.86,2.67,2.09,1.05,3.26,1.04,6.57.04,9.84-.35,1.14-1.23,1.97-2.49,2.12-1.32.15-2.14-.68-2.76-1.71-.95-1.6-.93-3.4-.96-5.18Z"/>
      <path class="cls-25" d="m193.9,228.67c.03,2.08-1.25,3.63-3.05,3.69-1.81.07-3.17-1.39-3.24-3.49-.08-2.08,1.33-3.77,3.16-3.82,1.75-.05,3.1,1.51,3.13,3.62Z"/>
      <path class="cls-25" d="m152.43,228.67c.02-2.07,1.36-3.59,3.16-3.62,1.78-.02,3.22,1.72,3.14,3.82-.07,2.04-1.48,3.53-3.29,3.49-1.8-.03-3.04-1.55-3.01-3.7Z"/>
      <path class="cls-25" d="m267.28,129.89c.04-1.27.11-2.53.86-3.63,1.23-1.81,3.3-1.83,4.54-.04,1.16,1.66,1.21,5.6.1,7.28-1.22,1.84-3.71,1.7-4.81-.27-.58-1.04-.66-2.19-.7-3.34Z"/>
      <path class="cls-1" d="m141.53,159.3l1.42-1.42c6.7-5.87,14.48-9.09,23.41-8.93,11.67.21,21.04,5.05,27.82,14.67.2.28.42.54.63.81,2.38,4.2,4.09,8.64,4.54,13.49.17,1.85.17,3.69,0,5.54-.24,1.5-.48,3-.72,4.5-.16.93-.82,1.76-.57,2.78-.79.61-.81,1.59-1.16,2.41-.37.78-.75,1.55-1.12,2.33l-1.32,2.16c-1.06,1.38-2.13,2.75-3.19,4.13l-2.07,2.08c-6.93,5.92-14.9,9.06-24.06,8.67-11.99-.51-21.33-5.78-27.83-15.95-.22-.34-.45-.67-.67-1-2.76-5.4-4.04-11.13-3.73-17.2.23-1.49.46-2.99.7-4.48.55-1.65,1.09-3.31,1.64-4.96.7-1.38,1.4-2.77,2.1-4.15,1.39-1.83,2.79-3.65,4.18-5.48Z"/>
      <path class="cls-11" d="m199.35,183.47c0-1.85,0-3.69,0-5.54.64,1.82.21,3.69.26,5.54-.09,0-.18,0-.26,0Z"/>
      <path class="cls-18" d="m142.08,179.86c-.18-.47.17-.92.54-1.38,2.37-2.92,5.08-5.49,8.01-7.85.56-.45,1.06-.5,1.73-.37,3.74.72,7.35,1.86,10.89,3.23.72.28,1.06.76,1.31,1.45,1.27,3.59,2.24,7.24,2.72,11.03.09.72-.1,1.2-.56,1.69-2.25,2.47-4.55,4.89-7.05,7.13-.71.64-1.4.81-2.34.64-3.93-.73-7.64-2.09-11.28-3.69-.93-.41-1.44-1.04-1.78-1.95-1.18-3.15-1.63-6.46-2.2-9.93Z"/>
      <path class="cls-18" d="m167.7,205.63c-1.06.28-1.98-.35-2.83-1.48-1.69-2.26-3.32-4.56-4.89-6.9-.48-.71-.62-1.17.16-1.84,2.53-2.19,4.87-4.58,7.08-7.08.52-.59.96-.77,1.77-.51,3.45,1.1,6.96,2,10.52,2.68.8.15,1.11.45.98,1.37-.48,3.36-.88,6.74-1.23,10.11-.08.81-.38,1.22-1.11,1.49-3.26,1.21-6.61,1.97-10.45,2.16Z"/>
      <path class="cls-18" d="m180,202.12c.41-3.55.85-7.21,1.25-10.88.05-.5.25-.85.61-1.17,2.44-2.14,4.5-4.63,6.51-7.15.48-.59.91-1.02,1.72-.65.2.09.45.09.68.13q5.45.93,6.39,6.35c.11.65,0,1.23-.21,1.85-2.17,6.18-6.06,11.05-11.31,14.89-.61.45-1.12.65-1.84.13-.98-.7-2.04-1.29-3.1-1.88-.64-.35-.96-.79-.7-1.63Z"/>
      <path class="cls-18" d="m151.47,167.35c.37-2.79.77-5.58,1.09-8.37.08-.71.47-.95,1.04-1.19,3.97-1.67,8.14-2.39,12.42-2.55.58-.02.97.2,1.35.61,2.15,2.35,3.89,4.97,5.34,7.8.34.66.22.98-.35,1.4-2.85,2.07-5.42,4.45-7.78,7.06-.57.63-1.03.65-1.78.36-3.1-1.21-6.28-2.23-9.56-2.83-1.43-.26-2.01-.84-1.76-2.27Z"/>
      <path class="cls-18" d="m141.36,196.57c-.07-1.08.89-1.59,1.49-2.31,1.83-2.17,1.86-2.15,4.35-1.04,3.32,1.47,6.73,2.66,10.36,3.09.69.08,1.15.34,1.52.94,1.62,2.65,3.33,5.24,5.31,7.64.5.61.54.97-.16,1.48-1.3.95-2.61,1.92-3.74,3.06-1.26,1.29-2.5,1.36-4.15.82-4.37-1.44-8.24-3.65-11.87-6.48-2.45-1.91-3.4-4.2-3.11-7.2Z"/>
      <path class="cls-18" d="m190.71,162.37c.2.95-.35,1.56-1,2.31-2.07,2.39-4.2,3.16-7.25,1.58-2.27-1.17-4.89-1.66-7.48-1.92-.68-.07-1.13-.34-1.45-1.01-1.35-2.87-3.06-5.53-5.17-7.92-.08-.09-.22-.17-.22-.26-.09-1.74,1.41-2.73,2-4.15.27-.64.7-.77,1.38-.66,7.14,1.2,13.29,4.29,18.41,9.44.76.76.81,1.59.78,2.58Z"/>
      <path class="cls-18" d="m134.93,172.95c.17-.61.29-1.11.45-1.6,1.86-5.41,5-9.93,9.36-13.64,1.02-.87,1.92-1.09,3.23-.68,3.99,1.24,3.97,1.17,3.36,5.24-.26,1.71-.47,3.44-.45,5.16.02,1.42-.5,2.32-1.57,3.18-2.61,2.1-5.01,4.43-7.08,7.07-.62.79-1.19,1.17-2.16.7-.25-.12-.58-.06-.84-.16-.95-.37-2.34-.07-2.83-.96-.73-1.33-1.02-2.91-1.47-4.3Z"/>
      <path class="cls-18" d="m194.05,166.94c3.7,3.29,3.55,7.42,2.61,11.74-.27,1.23-.08,2.92-.82,3.58-.82.73-2.34-.3-3.55-.53-2.75-.5-2.75-.53-3.14-3.39-.4-2.97-.92-5.91-1.89-8.74-.38-1.12-.15-1.77.81-2.42.9-.61,1.69-1.39,2.46-2.16.47-.46.86-.71,1.43-.21,1.05.36,1.78,1.05,2.1,2.13Z"/>
      <path class="cls-22" d="m198.05,176.13c.77,3.69.76,7.37-.22,11.1-1.92-3.81-.3-7.43.22-11.1Z"/>
      <path class="cls-23" d="m140.5,199.7c-1.7-2-2.91-3.87-3.84-6.08,2.84,1.05,3.88,2.64,3.84,6.08Z"/>
      <path class="cls-2" d="m134.04,183.06c-.33-2.59-.25-5.16.34-7.91,2.4,2.89.22,5.36-.34,7.91Z"/>
      <path class="cls-12" d="m192.38,164.4c-.73-.66-1.25-1.39-.78-2.55,1.03,1.11,1.98,2.2,2.49,3.61-1.11.52-1.34-.38-1.71-1.06Z"/>
      <path class="cls-5" d="m192.38,164.4c.66.21.86,1.16,1.71,1.06.52.51.59,1.01-.04,1.49-.7-.71-1.4-1.42-2.1-2.13.14-.14.29-.28.43-.41Z"/>
    </g>
  </g>
</svg>