<?xml version="1.0" encoding="UTF-8"?>
<svg id="Layer_2" data-name="Layer 2" xmlns="http://www.w3.org/2000/svg" viewBox="0 0 288.6 421.91">
  <defs>
    <style>
      .cls-1, .cls-2, .cls-3, .cls-4, .cls-5, .cls-6, .cls-7, .cls-8, .cls-9, .cls-10, .cls-11, .cls-12, .cls-13, .cls-14 {
        stroke-width: 0px;
      }

      .cls-2 {
        fill: #fc0203;
      }

      .cls-3 {
        fill: #f89405;
      }

      .cls-4 {
        fill: #fc0805;
      }

      .cls-5 {
        fill: #852a0c;
      }

      .cls-6 {
        fill: #cc1716;
      }

      .cls-7 {
        fill: #db9218;
      }

      .cls-8 {
        fill: #ae7407;
      }

      .cls-9 {
        fill: #a06a07;
      }

      .cls-10 {
        fill: #a0a0a0;
      }

      .cls-11 {
        fill: #fff;
      }

      .cls-12 {
        fill: #e8e2df;
      }

      .cls-13 {
        fill: #f90;
      }

      .cls-14 {
        fill: #0000fe;
      }
    </style>
  </defs>
  <g id="Layer_1-2" data-name="Layer 1">
    <g>
      <g>
        <path class="cls-8" d="m237.01,73.03c.04-.36.09-.71.13-1.08-3.36-.24-6.02-3.02-6.02-6.44,0-2.54,1.49-4.73,3.63-5.79-.04-.08-.09-.15-.13-.23-1.16,1.05-2.67,1.71-4.36,1.71-3.58,0-6.49-2.91-6.49-6.49,0-2.11,1.02-3.96,2.58-5.15-.2-.16-.4-.33-.61-.49-.85,2.59-3.27,4.48-6.13,4.48-3.58,0-6.49-2.91-6.49-6.49,0-.09.02-.17.03-.26-1.12,1.96-3.2,3.3-5.62,3.3-3.58,0-6.49-2.91-6.49-6.49,0-.67.13-1.31.32-1.92-.21,0-.41,0-.62,0,0,.06.02.12.02.18,0,3.58-2.91,6.49-6.49,6.49-2.97,0-5.45-2.01-6.22-4.74-.32,3.44-3.19,6.15-6.7,6.15-3.73,0-6.77-3.04-6.77-6.77,0-2.27,1.14-4.28,2.87-5.51-.14-.14-.27-.27-.42-.41-1.28,1.8-3.37,2.99-5.75,2.99-3.88,0-7.04-3.16-7.04-7.05,0-.95.2-1.86.54-2.68h0c-1.05,2.57-3.57,4.4-6.52,4.4-3.84,0-6.95-3.09-7.03-6.9-.08,0-.14-.02-.22-.02-.5,1.61-1.56,2.93-2.95,3.82-1.2-.43-2.45-.68-3.75-.68s-2.55.25-3.75.68c-1.39-.89-2.45-2.21-2.95-3.81-.08,0-.14.01-.22.02-.08,3.82-3.19,6.9-7.03,6.9-2.95,0-5.47-1.82-6.52-4.4h0c.34.83.54,1.73.54,2.68,0,3.88-3.16,7.05-7.05,7.05-2.38,0-4.47-1.19-5.75-2.99-.15.14-.28.27-.42.41,1.73,1.23,2.87,3.23,2.87,5.51,0,3.73-3.03,6.77-6.77,6.77-3.52,0-6.38-2.71-6.7-6.15-.77,2.73-3.25,4.74-6.22,4.74-3.58,0-6.49-2.91-6.49-6.49,0-.06.01-.12.02-.18-.2,0-.41,0-.62,0,.19.61.32,1.24.32,1.92,0,3.58-2.91,6.49-6.49,6.49-2.41,0-4.5-1.34-5.61-3.3,0,.09.03.17.03.26,0,3.58-2.91,6.49-6.49,6.49-2.87,0-5.28-1.89-6.13-4.48-.2.16-.41.33-.61.49,1.56,1.19,2.58,3.04,2.58,5.15,0,3.58-2.91,6.49-6.49,6.49-1.68,0-3.2-.66-4.36-1.71-.04.08-.09.15-.13.23,2.14,1.06,3.63,3.25,3.63,5.79,0,3.42-2.66,6.19-6.02,6.44.03.38.08.72.13,1.08,3.3.31,5.9,3.06,5.9,6.43,0,2.06-.99,3.88-2.49,5.07.08.15.17.28.25.42.42-.09.86-.13,1.3-.13,3.58,0,6.49,2.91,6.49,6.49,0,.67-.13,1.3-.32,1.91.37.25.7.44,1.03.64-.47,1.13-.68,2.24-.68,3.2,0,.77.11,1.45.26,1.97l.53,1.79,1.78-.56s3.59-1.11,8.75-1.11c2.28,0,5.16,2.17,7.91,5.97l.33.46.53.19c2.2.8,3.68,2.89,3.68,5.2,0,.86-.23,1.73-.68,2.58l-.05.09-.13.43s-1.25,3.26-1.33,3.44c-1.73,1.41-2.75,3.43-2.75,5.54,0,1.42.41,2.84,1.27,4.09,1.63,2.37,4.45,3.45,7.13,3.02l.08.24,3.96,8.92c-2.02,1.94-2.26,5.13-.47,7.34,1.89,2.32,5.32,2.67,7.64.79.15-.12,15.71-12.28,42.77-12.28s42.62,12.16,42.78,12.29c2.32,1.88,5.75,1.52,7.63-.8,1.8-2.2,1.55-5.4-.47-7.33l4.06-9.15c2.67.42,5.48-.65,7.1-3.02.86-1.25,1.27-2.68,1.27-4.09,0-2.11-1.02-4.13-2.74-5.54-.06-.16-1.37-3.55-1.37-3.55l-.14-.42c-.45-.84-.67-1.71-.67-2.57,0-2.31,1.48-4.4,3.68-5.2l.53-.19.33-.46c2.75-3.79,5.63-5.97,7.91-5.97,5.16,0,8.71,1.1,8.75,1.11l1.77.56.54-1.78c.16-.53.27-1.21.27-1.98,0-.97-.2-2.07-.67-3.2.33-.2.66-.39,1.03-.64-.19-.61-.32-1.24-.32-1.91,0-3.58,2.91-6.49,6.49-6.49.45,0,.88.05,1.3.13.08-.14.17-.27.25-.42-1.5-1.19-2.49-3.01-2.49-5.07,0-3.38,2.6-6.12,5.9-6.43Zm-98.14.81h-3.78v7.53h-2.67v3.42h-4.53v7.63h4.53v3.42h6.45v6.68c-6.29.23-12.39.81-18.15,1.81-3.58-.7-4.07-1.71-4.48-3.29,0,0-.65-2.3-1.14-4,1.54-.44,5.21-1.47,5.21-1.47,0,0-.65-2.31-.78-2.77.95-.27,3.66-1.04,3.66-1.04l-1.91-6.73s-2.71.77-3.66,1.03c-.13-.46-.78-2.76-.78-2.76,0,0-2.1.59-2.16.61-.15-.52-1.73-6.08-1.73-6.08,0,0-2.43.69-3.06.86-.19-.67-.88-3.13-.88-3.13l-9.35,2.65s.7,2.46.89,3.13c-.63.18-3.05.87-3.05.87,0,0,1.58,5.56,1.73,6.08-.05.02-2.16.61-2.16.61,0,0,.65,2.31.78,2.77-.95.27-3.66,1.04-3.66,1.04l1.91,6.74s2.72-.77,3.66-1.04c.13.46.78,2.77.78,2.77,0,0,3.67-1.04,5.21-1.48.49,1.71,1.15,4.04,1.15,4.04.04.4.06.78.06,1.12,0,1.4-.33,2.26-.67,2.91-1.26.44-7.75,2.71-8.81,3.07-2.2-.41-4.03-1.5-5.39-3.36-.22-.49-.3-1.13-.3-1.82,0-1.44.35-3.06.57-3.75l.9-2.94-3.02.59c-.56.11-1.33.1-1.54-.03.18-.41,1.32-2.14,2-3.17,1.62-2.46,3.3-5,1.51-6.8-.48-.49-2.04-1.81-8.49,0-1.52-1.57-5.06-4.74-9.16-4.74s-6.08,2.57-6.76,4.44c-.77.49-1.4,1.02-1.95,1.56-.63-3.53-1.34-8.58-1.34-13.16,0-14.55,15.45-26.7,31.65-26.7.4,0,.76.04,1.15.06,1.14-.88,2.55-1.42,4.1-1.42,2.36,0,4.44,1.22,5.65,3.07,3,.93,4.84,1.9,4.84,1.9,0,0,5.25-18.45,19.35-18.45.8,0,1.87.12,2.99.3-2.76,3.55-4.49,8.54-4.49,14.08,0,10.54,6.23,19.1,14.01,19.48h-4.89v3.87Zm75.19,10.98c-4.08,0-7.62,3.14-9.15,4.72-3.22-.94-6.92-1.57-8.5.02-1.79,1.79-.12,4.33,1.51,6.8.68,1.03,1.82,2.76,1.85,3.36-.07-.06-.84-.04-1.4-.15l-3.01-.6.89,2.94c.2.65.52,2.1.52,3.53,0,.84-.11,1.68-.43,2.35-1.18,1.57-3.01,2.65-5.21,3.06-1.05-.37-7.54-2.63-8.81-3.07-.33-.63-.64-1.47-.64-2.9,0-.43.03-.9.09-1.42,0,0,.61-2.12,1.08-3.75,1.54.44,5.22,1.48,5.22,1.48,0,0,.65-2.31.78-2.77.95.27,3.66,1.04,3.66,1.04l1.91-6.73s-2.71-.77-3.66-1.04c.13-.46.78-2.77.78-2.77,0,0-2.1-.6-2.16-.61.15-.52,1.73-6.08,1.73-6.08,0,0-2.43-.69-3.06-.87.19-.67.89-3.13.89-3.13l-9.35-2.65s-.7,2.46-.89,3.13c-.63-.18-3.06-.86-3.06-.86,0,0-1.58,5.56-1.73,6.08-.05-.01-2.16-.61-2.16-.61,0,0-.65,2.3-.78,2.76-.95-.27-3.66-1.04-3.66-1.04l-1.91,6.73s2.71.77,3.66,1.04c-.13.46-.78,2.76-.78,2.76,0,0,3.67,1.04,5.21,1.48-.48,1.7-1.13,3.99-1.13,3.99-.42,1.61-.91,2.61-4.49,3.32-5.77-1-11.87-1.58-18.15-1.81v-6.68h6.45v-3.42h4.53v-7.63h-4.53v-3.42h-2.67v-7.53h-3.78v-3.87h-4.89c7.78-.39,14-8.95,14-19.48,0-5.54-1.73-10.53-4.49-14.08,1.12-.17,2.19-.3,3-.3,14.1,0,19.35,18.45,19.35,18.45,0,0,1.84-.97,4.84-1.9,1.21-1.84,3.29-3.07,5.65-3.07,1.55,0,2.96.54,4.1,1.42.39-.01.76-.06,1.15-.06,16.2,0,31.65,12.15,31.65,26.7,0,4.57-.72,9.63-1.34,13.16-.55-.55-1.18-1.08-1.95-1.56-.68-1.87-2.6-4.44-6.76-4.44Z"/>
        <path class="cls-8" d="m140.38,0v6.58h-6.58v7.86h6.58v6.58h7.86v-6.58h6.58v-7.86h-6.58V0h-7.86Z"/>
        <path class="cls-9" d="m95.83,140.43c-1.54,1.26-1.76,3.52-.51,5.06,1.25,1.54,3.52,1.77,5.06.52.16-.13,16.01-12.7,43.93-12.7s43.77,12.56,43.93,12.7c1.54,1.25,3.81,1.01,5.06-.52,1.25-1.54,1.03-3.8-.51-5.06-.71-.58-17.84-14.32-48.48-14.32s-47.76,13.73-48.48,14.32Z"/>
        <path class="cls-13" d="m219.3,90.41s-.75-3.75-5.25-3.75-8.55,4.95-8.55,4.95c0,0-6.45-2.1-7.8-.75-1.35,1.35,3.9,6.45,3.9,8.85s-3.6,1.65-3.6,1.65c0,0,1.35,4.35,0,7.2-2.1,2.88-4.79,3.89-6.91,4.21-2.84-1.17-6.22-2.38-10.08-3.52-.91-1.43-1.38-3.28-1.06-6.02l1.65-5.81,5.21,1.48.78-2.76,3.66,1.04.91-3.2-3.66-1.04.78-2.77-5.21-1.48.82-2.88,3.05.86.91-3.2-3.05-.87.89-3.13-5.82-1.65-.89,3.13-3.06-.87-.91,3.2,3.05.86-.82,2.89-5.21-1.48-.78,2.76-3.66-1.03-.91,3.2,3.66,1.04-.78,2.76,5.21,1.48-1.63,5.75c-.69,2.63-2,3.91-6.15,4.68-5.96-1.05-12.68-1.76-20.09-1.95v-10.24h6.45v-3.42h4.53v-3.96h-4.53v-3.42h-6.45v-3.57h3.78v-3.96h-3.78v-3.87h-7.2v3.87h-3.78v3.96h3.78v3.57h-6.45v3.42h-4.53v3.96h4.53v3.42h6.45v10.24c-7.41.19-14.13.9-20.09,1.95-4.17-.76-5.48-2.06-6.16-4.7l-1.62-5.73,5.21-1.48-.78-2.76,3.66-1.04-.91-3.2-3.66,1.03-.78-2.76-5.21,1.48-.82-2.89,3.06-.86-.91-3.2-3.06.87-.89-3.13-5.82,1.65.89,3.13-3.05.87.91,3.2,3.05-.86.82,2.88-5.21,1.48.78,2.77-3.66,1.04.91,3.2,3.66-1.04.78,2.76,5.21-1.48,1.65,5.81c.32,2.74-.14,4.59-1.06,6.02-3.86,1.14-7.24,2.35-10.08,3.52-2.12-.32-4.81-1.33-6.91-4.21-1.35-2.85,0-7.2,0-7.2,0,0-3.6.75-3.6-1.65s5.25-7.5,3.9-8.85c-1.35-1.35-7.8.75-7.8.75,0,0-4.05-4.95-8.55-4.95s-5.25,3.75-5.25,3.75c-5.7,3.15-4.2,8.1-4.2,8.1,0,0,3.75-1.2,9.3-1.2,3.44,0,6.82,3.17,9.39,6.73,2.84,1.03,4.89,3.73,4.89,6.92,0,1.25-.34,2.4-.89,3.44-.28,1.5-.91,2.94-1.56,4.1-.05.03-.14.09-.16.11-2.44,1.69-3.05,5.04-1.37,7.5,1.68,2.45,5.04,3.07,7.5,1.4.18-.12,18.75-12.52,52.09-12.52s51.91,12.4,52.09,12.52c2.46,1.68,5.81,1.05,7.5-1.4,1.68-2.45,1.08-5.8-1.37-7.49-.02-.01-.11-.07-.15-.11-.65-1.16-1.29-2.6-1.57-4.11-.54-1.03-.89-2.19-.89-3.43,0-3.19,2.05-5.89,4.89-6.92,2.57-3.55,5.96-6.73,9.39-6.73,5.55,0,9.3,1.2,9.3,1.2,0,0,1.5-4.95-4.2-8.1Z"/>
        <path class="cls-10" d="m138.87,89.51c0,3,2.44,5.44,5.44,5.44s5.44-2.44,5.44-5.44-2.44-5.44-5.44-5.44-5.44,2.44-5.44,5.44Z"/>
        <path class="cls-12" d="m147.9,89.51c0,1.99-1.61,3.6-3.6,3.6s-3.6-1.61-3.6-3.6,1.61-3.6,3.6-3.6,3.6,1.61,3.6,3.6Z"/>
        <path class="cls-10" d="m107.56,88.28h0c-2.58.73-4.08,3.43-3.35,6,.35,1.25,1.17,2.29,2.31,2.92,1.13.63,2.44.79,3.69.43,1.24-.35,2.28-1.17,2.91-2.31.63-1.13.79-2.45.43-3.7-.73-2.58-3.42-4.08-6-3.35Z"/>
        <path class="cls-12" d="m111.79,92.13c.46,1.61-.47,3.28-2.08,3.73-1.61.46-3.28-.47-3.73-2.08-.46-1.61.48-3.28,2.08-3.73,1.61-.45,3.28.48,3.73,2.08Z"/>
        <path class="cls-10" d="m175.04,91.63c-.12.44-.19.89-.19,1.34,0,.82.21,1.62.62,2.36.63,1.13,1.67,1.95,2.92,2.31,1.25.35,2.56.2,3.7-.43,1.14-.63,1.95-1.67,2.31-2.92.73-2.57-.77-5.27-3.35-6-2.58-.73-5.27.78-6,3.35Z"/>
        <path class="cls-12" d="m176.81,92.13c-.46,1.61.47,3.28,2.08,3.73,1.61.46,3.28-.47,3.73-2.08.46-1.61-.48-3.28-2.08-3.73-1.61-.45-3.28.48-3.73,2.08Z"/>
        <circle class="cls-10" cx="81.3" cy="110.96" r="7.39" transform="translate(-36.28 39.56) rotate(-22.5)"/>
        <path class="cls-12" d="m86.85,110.96c0,3.07-2.49,5.55-5.55,5.55s-5.55-2.48-5.55-5.55,2.48-5.55,5.55-5.55,5.55,2.49,5.55,5.55Z"/>
        <path class="cls-10" d="m199.92,110.96c0,4.07,3.31,7.39,7.39,7.39s7.38-3.31,7.38-7.39-3.31-7.39-7.38-7.39-7.39,3.31-7.39,7.39Z"/>
        <path class="cls-12" d="m201.75,110.96c0,3.07,2.49,5.55,5.55,5.55s5.55-2.48,5.55-5.55-2.48-5.55-5.55-5.55-5.55,2.49-5.55,5.55Z"/>
        <path class="cls-13" d="m144.3,124.28c27.15,0,44.01,10.64,48.46,13.84l3.76-8.47c-.39-.18-.79-.38-1.16-.63-.18-.12-18.52-12.21-51.06-12.21s-50.89,12.09-51.06,12.21c-.37.25-.76.46-1.16.63l3.77,8.47c4.45-3.2,21.3-13.84,48.46-13.84Z"/>
        <polygon class="cls-5" points="132.46 119.06 132.46 122.67 144.31 124.98 156.15 122.67 156.15 119.06 144.3 116.75 132.46 119.06"/>
        <polygon class="cls-4" points="155.8 120.87 144.31 123.11 132.81 120.87 144.3 118.62 155.8 120.87"/>
        <polygon class="cls-5" points="96.89 127.81 87.45 135.45 89.09 138.66 100.81 135.52 110.25 127.87 108.62 124.67 96.89 127.81"/>
        <polygon class="cls-4" points="109.09 126.45 99.96 133.84 88.61 136.88 97.74 129.49 109.09 126.45"/>
        <polygon class="cls-5" points="178.35 127.87 187.79 135.52 199.52 138.66 201.15 135.45 191.72 127.81 179.99 124.67 178.35 127.87"/>
        <polygon class="cls-4" points="179.51 126.45 188.64 133.84 199.99 136.88 190.86 129.49 179.51 126.45"/>
        <path class="cls-13" d="m135.48,37.79c-2.51,3.37-3.89,7.89-3.89,12.71,0,9.75,5.7,17.68,12.71,17.68s12.71-7.93,12.71-17.68c0-4.82-1.39-9.33-3.9-12.71-2.39-3.21-5.52-4.98-8.81-4.98s-6.42,1.77-8.82,4.98Z"/>
        <polygon class="cls-13" points="152.98 8.42 146.39 8.42 146.39 1.84 142.21 1.84 142.21 8.42 135.63 8.42 135.63 12.6 142.21 12.6 142.21 19.18 146.39 19.18 146.39 12.6 152.98 12.6 152.98 8.42"/>
        <g>
          <path class="cls-6" d="m144.85,69.98h4.89v3.87h3.78v7.53h2.67v3.42h4.53v7.63h-4.53v3.42h-6.45v6.68c6.28.23,12.39.82,18.15,1.81,3.58-.7,4.07-1.71,4.49-3.32,0,0,.65-2.29,1.13-3.99-1.54-.44-5.21-1.48-5.21-1.48,0,0,.65-2.3.78-2.76-.95-.27-3.66-1.04-3.66-1.04l1.91-6.73s2.71.77,3.66,1.04c.13-.46.78-2.76.78-2.76,0,0,2.1.59,2.16.61.15-.52,1.73-6.08,1.73-6.08,0,0,2.43.69,3.06.86.19-.67.89-3.13.89-3.13l9.35,2.65s-.7,2.46-.89,3.13c.63.18,3.06.87,3.06.87,0,0-1.59,5.57-1.73,6.08.06.01,2.16.61,2.16.61,0,0-.65,2.3-.78,2.77.95.27,3.66,1.04,3.66,1.04l-1.91,6.73s-2.72-.77-3.66-1.04c-.13.46-.78,2.77-.78,2.77,0,0-3.67-1.04-5.22-1.48-.47,1.63-1.08,3.75-1.08,3.75-.06.52-.09,1-.09,1.42,0,1.43.31,2.27.64,2.9,1.27.44,7.76,2.71,8.81,3.07,2.2-.41,4.02-1.49,5.21-3.06.31-.66.43-1.5.43-2.35,0-1.43-.32-2.88-.52-3.53l-.89-2.94,3.01.6c.56.11,1.33.1,1.4.15-.03-.59-1.17-2.32-1.85-3.36-1.62-2.46-3.3-5-1.51-6.8,1.58-1.59,5.28-.96,8.5-.02,1.53-1.58,5.07-4.72,9.15-4.72s6.08,2.57,6.76,4.44c.77.49,1.4,1.02,1.95,1.56.62-3.53,1.34-8.59,1.34-13.16,0-3.42-.88-6.71-2.4-9.74-5.35-4.06-13.95-9.61-21-9.61-8.97,0-13.5,7.34-13.5,7.34,0,0-12.9-7.94-18.9-7.94h-10.49c-2.08,6.98-7.07,11.97-12.96,12.26Z"/>
          <path class="cls-6" d="m65.85,90.83c.55-.55,1.18-1.08,1.95-1.56.68-1.87,2.6-4.44,6.76-4.44s7.65,3.16,9.16,4.74c6.45-1.81,8.01-.48,8.49,0,1.79,1.79.12,4.33-1.51,6.8-.68,1.03-1.82,2.76-2,3.17.22.13.98.14,1.54.03l3.02-.59-.9,2.94c-.21.69-.57,2.31-.57,3.75,0,.69.08,1.34.3,1.82,1.35,1.86,3.18,2.95,5.39,3.36,1.05-.37,7.54-2.63,8.81-3.07.34-.65.67-1.51.67-2.91,0-.34-.02-.72-.06-1.12,0,0-.66-2.33-1.15-4.04-1.54.44-5.21,1.48-5.21,1.48,0,0-.65-2.31-.78-2.77-.95.27-3.66,1.04-3.66,1.04l-1.91-6.74s2.71-.77,3.66-1.04c-.13-.46-.78-2.77-.78-2.77,0,0,2.1-.59,2.16-.61-.15-.52-1.73-6.08-1.73-6.08,0,0,2.43-.69,3.05-.87-.19-.67-.89-3.13-.89-3.13l9.35-2.65s.7,2.46.88,3.13c.63-.18,3.06-.86,3.06-.86,0,0,1.58,5.56,1.73,6.08.05-.01,2.16-.61,2.16-.61,0,0,.65,2.3.78,2.76.95-.27,3.66-1.03,3.66-1.03l1.91,6.73s-2.72.77-3.66,1.04c.13.46.78,2.77.78,2.77,0,0-3.67,1.04-5.21,1.47.48,1.7,1.14,4,1.14,4,.41,1.58.9,2.59,4.48,3.29,5.76-1,11.87-1.58,18.15-1.81v-6.68h-6.45v-3.42h-4.53v-7.63h4.53v-3.42h2.67v-7.53h3.78v-3.87h4.89c-5.89-.29-10.88-5.28-12.96-12.26h-10.49c-6,0-18.9,7.94-18.9,7.94,0,0-4.53-7.34-13.5-7.34-7.05,0-15.64,5.55-21,9.61-1.52,3.03-2.4,6.32-2.4,9.74,0,4.58.72,9.63,1.34,13.16Z"/>
        </g>
        <g>
          <path class="cls-10" d="m50.07,91.31c0,3.58,2.91,6.49,6.49,6.49s6.49-2.91,6.49-6.49-2.91-6.49-6.49-6.49-6.49,2.91-6.49,6.49Z"/>
          <path class="cls-10" d="m44.52,79.46c0,3.58,2.91,6.49,6.49,6.49s6.49-2.91,6.49-6.49-2.91-6.49-6.49-6.49-6.49,2.91-6.49,6.49Z"/>
          <path class="cls-10" d="m44.52,65.51c0,3.58,2.91,6.49,6.49,6.49s6.49-2.91,6.49-6.49-2.91-6.49-6.49-6.49-6.49,2.91-6.49,6.49Z"/>
          <path class="cls-10" d="m51.87,54.71c0,3.58,2.91,6.49,6.49,6.49s6.49-2.91,6.49-6.49-2.91-6.49-6.49-6.49-6.49,2.91-6.49,6.49Z"/>
          <path class="cls-10" d="m62.51,47.06c0,3.58,2.91,6.49,6.49,6.49s6.49-2.91,6.49-6.49-2.91-6.49-6.49-6.49-6.49,2.91-6.49,6.49Z"/>
          <path class="cls-10" d="m74.59,43.62c0,3.58,2.91,6.49,6.49,6.49s6.49-2.91,6.49-6.49-2.91-6.49-6.49-6.49-6.49,2.91-6.49,6.49Z"/>
          <circle class="cls-10" cx="94.33" cy="41.89" r="6.49"/>
          <path class="cls-10" d="m100.49,43.01c0,3.73,3.03,6.77,6.76,6.77s6.77-3.04,6.77-6.77-3.03-6.77-6.77-6.77-6.76,3.04-6.76,6.77Z"/>
          <path class="cls-10" d="m94.64,56.37c0,3.73,3.04,6.76,6.77,6.76s6.77-3.03,6.77-6.76-3.04-6.77-6.77-6.77-6.77,3.03-6.77,6.77Z"/>
          <circle class="cls-10" cx="117.32" cy="33.04" r="7.05" transform="translate(-3.78 19.22) rotate(-9.22)"/>
          <path class="cls-10" d="m123.31,27.71c0,3.88,3.16,7.05,7.04,7.05s7.05-3.16,7.05-7.05-3.16-7.05-7.05-7.05-7.04,3.16-7.04,7.05Z"/>
          <path class="cls-10" d="m92.86,70.62c0,3.88,3.16,7.04,7.05,7.04s7.05-3.16,7.05-7.04-3.16-7.05-7.05-7.05-7.05,3.16-7.05,7.05Z"/>
          <path class="cls-10" d="m137.26,25.76c0,3.88,3.16,7.05,7.05,7.05s7.04-3.16,7.04-7.05-3.16-7.05-7.04-7.05-7.05,3.16-7.05,7.05Z"/>
          <path class="cls-10" d="m137.26,38.21c0,3.88,3.16,7.05,7.05,7.05s7.04-3.16,7.04-7.05-3.16-7.04-7.04-7.04-7.05,3.16-7.05,7.04Z"/>
          <path class="cls-10" d="m137.26,50.96c0,3.88,3.16,7.05,7.05,7.05s7.04-3.16,7.04-7.05-3.16-7.05-7.04-7.05-7.05,3.16-7.05,7.05Z"/>
          <path class="cls-10" d="m137.26,63.26c0,3.88,3.16,7.05,7.05,7.05s7.04-3.16,7.04-7.05-3.16-7.04-7.04-7.04-7.05,3.16-7.05,7.04Z"/>
          <path class="cls-10" d="m238.54,91.31c0,3.58-2.91,6.49-6.49,6.49s-6.49-2.91-6.49-6.49,2.91-6.49,6.49-6.49,6.49,2.91,6.49,6.49Z"/>
          <path class="cls-10" d="m244.09,79.46c0,3.58-2.91,6.49-6.49,6.49s-6.49-2.91-6.49-6.49,2.91-6.49,6.49-6.49,6.49,2.91,6.49,6.49Z"/>
          <path class="cls-10" d="m244.09,65.51c0,3.58-2.91,6.49-6.49,6.49s-6.49-2.91-6.49-6.49,2.91-6.49,6.49-6.49,6.49,2.91,6.49,6.49Z"/>
          <path class="cls-10" d="m236.74,54.71c0,3.58-2.91,6.49-6.49,6.49s-6.49-2.91-6.49-6.49,2.91-6.49,6.49-6.49,6.49,2.91,6.49,6.49Z"/>
          <path class="cls-10" d="m226.09,47.06c0,3.58-2.91,6.49-6.49,6.49s-6.49-2.91-6.49-6.49,2.91-6.49,6.49-6.49,6.49,2.91,6.49,6.49Z"/>
          <path class="cls-10" d="m214.01,43.62c0,3.58-2.91,6.49-6.49,6.49s-6.49-2.91-6.49-6.49,2.91-6.49,6.49-6.49,6.49,2.91,6.49,6.49Z"/>
          <circle class="cls-10" cx="194.27" cy="41.89" r="6.49"/>
          <path class="cls-10" d="m188.12,43.01c0,3.73-3.03,6.77-6.76,6.77s-6.77-3.04-6.77-6.77,3.03-6.77,6.77-6.77,6.76,3.04,6.76,6.77Z"/>
          <path class="cls-10" d="m193.97,56.37c0,3.73-3.04,6.76-6.77,6.76s-6.77-3.03-6.77-6.76,3.04-6.77,6.77-6.77,6.77,3.03,6.77,6.77Z"/>
          <path class="cls-10" d="m178.33,33.04c0,3.88-3.16,7.05-7.05,7.05s-7.04-3.16-7.04-7.05,3.16-7.05,7.04-7.05,7.05,3.16,7.05,7.05Z"/>
          <path class="cls-10" d="m165.3,27.71c0,3.88-3.16,7.05-7.04,7.05s-7.05-3.16-7.05-7.05,3.16-7.05,7.05-7.05,7.04,3.16,7.04,7.05Z"/>
          <path class="cls-10" d="m195.75,70.62c0,3.88-3.16,7.04-7.05,7.04s-7.04-3.16-7.04-7.04,3.16-7.05,7.04-7.05,7.05,3.16,7.05,7.05Z"/>
        </g>
        <g>
          <path class="cls-12" d="m61.2,91.31c0,2.57-2.08,4.65-4.65,4.65s-4.65-2.08-4.65-4.65,2.08-4.65,4.65-4.65,4.65,2.08,4.65,4.65Z"/>
          <path class="cls-12" d="m55.66,79.46c0,2.57-2.08,4.65-4.65,4.65s-4.65-2.08-4.65-4.65,2.08-4.65,4.65-4.65,4.65,2.08,4.65,4.65Z"/>
          <path class="cls-12" d="m55.66,65.51c0,2.57-2.08,4.65-4.65,4.65s-4.65-2.08-4.65-4.65,2.08-4.65,4.65-4.65,4.65,2.08,4.65,4.65Z"/>
          <path class="cls-12" d="m63,54.71c0,2.57-2.08,4.65-4.65,4.65s-4.65-2.08-4.65-4.65,2.08-4.65,4.65-4.65,4.65,2.08,4.65,4.65Z"/>
          <path class="cls-12" d="m73.65,47.06c0,2.57-2.08,4.65-4.65,4.65s-4.65-2.08-4.65-4.65,2.08-4.65,4.65-4.65,4.65,2.08,4.65,4.65Z"/>
          <path class="cls-12" d="m85.73,43.62c0,2.57-2.08,4.65-4.65,4.65s-4.65-2.08-4.65-4.65,2.08-4.65,4.65-4.65,4.65,2.08,4.65,4.65Z"/>
          <path class="cls-12" d="m98.98,41.89c0,2.57-2.08,4.65-4.65,4.65s-4.65-2.08-4.65-4.65,2.08-4.65,4.65-4.65,4.65,2.08,4.65,4.65Z"/>
          <path class="cls-12" d="m112.18,43.01c0,2.72-2.21,4.93-4.93,4.93s-4.93-2.2-4.93-4.93,2.21-4.93,4.93-4.93,4.93,2.2,4.93,4.93Z"/>
          <path class="cls-12" d="m106.33,56.37c0,2.72-2.2,4.93-4.93,4.93s-4.93-2.21-4.93-4.93,2.2-4.93,4.93-4.93,4.93,2.21,4.93,4.93Z"/>
          <path class="cls-12" d="m122.53,33.04c0,2.88-2.33,5.21-5.21,5.21s-5.21-2.33-5.21-5.21,2.33-5.21,5.21-5.21,5.21,2.33,5.21,5.21Z"/>
          <path class="cls-12" d="m135.56,27.71c0,2.88-2.33,5.21-5.21,5.21s-5.21-2.33-5.21-5.21,2.33-5.21,5.21-5.21,5.21,2.33,5.21,5.21Z"/>
          <path class="cls-12" d="m105.11,70.62c0,2.88-2.33,5.21-5.21,5.21s-5.21-2.33-5.21-5.21,2.33-5.21,5.21-5.21,5.21,2.33,5.21,5.21Z"/>
          <path class="cls-12" d="m149.51,25.76c0,2.88-2.33,5.21-5.21,5.21s-5.21-2.33-5.21-5.21,2.33-5.21,5.21-5.21,5.21,2.33,5.21,5.21Z"/>
          <path class="cls-12" d="m149.51,38.21c0,2.88-2.33,5.21-5.21,5.21s-5.21-2.33-5.21-5.21,2.33-5.21,5.21-5.21,5.21,2.33,5.21,5.21Z"/>
          <path class="cls-12" d="m149.51,50.96c0,2.88-2.33,5.21-5.21,5.21s-5.21-2.33-5.21-5.21,2.33-5.21,5.21-5.21,5.21,2.33,5.21,5.21Z"/>
          <path class="cls-12" d="m149.51,63.26c0,2.88-2.33,5.21-5.21,5.21s-5.21-2.33-5.21-5.21,2.33-5.21,5.21-5.21,5.21,2.33,5.21,5.21Z"/>
          <path class="cls-12" d="m227.4,91.31c0,2.57,2.08,4.65,4.65,4.65s4.65-2.08,4.65-4.65-2.08-4.65-4.65-4.65-4.65,2.08-4.65,4.65Z"/>
          <path class="cls-12" d="m232.95,79.46c0,2.57,2.08,4.65,4.65,4.65s4.65-2.08,4.65-4.65-2.08-4.65-4.65-4.65-4.65,2.08-4.65,4.65Z"/>
          <path class="cls-12" d="m232.95,65.51c0,2.57,2.08,4.65,4.65,4.65s4.65-2.08,4.65-4.65-2.08-4.65-4.65-4.65-4.65,2.08-4.65,4.65Z"/>
          <path class="cls-12" d="m225.6,54.71c0,2.57,2.08,4.65,4.65,4.65s4.65-2.08,4.65-4.65-2.08-4.65-4.65-4.65-4.65,2.08-4.65,4.65Z"/>
          <path class="cls-12" d="m214.95,47.06c0,2.57,2.08,4.65,4.65,4.65s4.65-2.08,4.65-4.65-2.08-4.65-4.65-4.65-4.65,2.08-4.65,4.65Z"/>
          <path class="cls-12" d="m202.88,43.62c0,2.57,2.08,4.65,4.65,4.65s4.65-2.08,4.65-4.65-2.08-4.65-4.65-4.65-4.65,2.08-4.65,4.65Z"/>
          <path class="cls-12" d="m189.62,41.89c0,2.57,2.08,4.65,4.65,4.65s4.65-2.08,4.65-4.65-2.08-4.65-4.65-4.65-4.65,2.08-4.65,4.65Z"/>
          <path class="cls-12" d="m176.42,43.01c0,2.72,2.21,4.93,4.93,4.93s4.93-2.2,4.93-4.93-2.21-4.93-4.93-4.93-4.93,2.2-4.93,4.93Z"/>
          <path class="cls-12" d="m182.27,56.37c0,2.72,2.2,4.93,4.93,4.93s4.93-2.21,4.93-4.93-2.2-4.93-4.93-4.93-4.93,2.21-4.93,4.93Z"/>
          <path class="cls-12" d="m166.07,33.04c0,2.88,2.33,5.21,5.21,5.21s5.21-2.33,5.21-5.21-2.33-5.21-5.21-5.21-5.21,2.33-5.21,5.21Z"/>
          <path class="cls-12" d="m153.04,27.71c0,2.88,2.33,5.21,5.21,5.21s5.21-2.33,5.21-5.21-2.33-5.21-5.21-5.21-5.21,2.33-5.21,5.21Z"/>
          <path class="cls-12" d="m183.49,70.62c0,2.88,2.33,5.21,5.21,5.21s5.21-2.33,5.21-5.21-2.33-5.21-5.21-5.21-5.21,2.33-5.21,5.21Z"/>
        </g>
        <path class="cls-13" d="m137.48,32.7c.21-.26.53-.42.77-.66-.06-.06-.14-.1-.2-.16-.16.29-.38.55-.57.82Zm-2.14,2.15c.45.06.62.09.95.13.21-.51.35-1.04.64-1.5-.47.53-1.01.95-1.6,1.36Zm-19.52,8.05c.28-.38.59-.74.9-1.11-.43-.03-.83-.21-1.25-.31.1.48.34.92.35,1.42Zm-31.29,8.24c2.15-.73,4.38-1.23,6.68-1.55-1.13-.46-2.11-1.17-2.93-2.05-.85,1.56-2.13,2.85-3.75,3.6Zm15.25-3.1c.2-.04.39-.07.59-.1-.07-.1-.15-.19-.22-.29-.13.13-.24.27-.37.39Zm8.88,3.3c.7.27,1.12.44,2.12.83.2-.55.43-1.12.74-1.85-.88.52-1.82.84-2.86,1.02Zm-39.67,4.05c-.86,0-1.55-.51-2.34-.76,0,.03.02.06.02.09,0,4.5-3.6,8.13-8.07,8.27.28.83.72,1.61.72,2.53,0,2.95-1.65,5.48-4.02,6.95,2.39,1.46,4.02,4.01,4.02,7,0,1.39-.41,2.69-1.05,3.87,2.17.47,3.96,1.73,5.13,3.53-.4-2.92-.74-6.09-.74-9.21,0-11.38,8.77-21.7,20.65-26.18-.73.21-1.45.45-2.24.45-1.65,0-3.16-.59-4.51-1.49-1.3,2.9-4.19,4.94-7.57,4.94Z"/>
        <path class="cls-13" d="m150.55,31.87c-.06.06-.14.11-.2.16.24.24.56.4.77.66-.19-.27-.41-.53-.57-.82Zm1.11,1.61c.29.46.44.99.64,1.5.33-.05.51-.07.95-.13-.58-.41-1.12-.83-1.6-1.36Zm21.46,7.99c-.42.09-.82.27-1.25.31.31.37.62.73.9,1.11,0-.5.25-.94.35-1.42Zm27.19,6.06c-.82.88-1.8,1.59-2.93,2.05,2.3.32,4.53.82,6.68,1.55-1.62-.75-2.89-2.04-3.75-3.6Zm-11.87.11c-.07.1-.15.19-.22.29.2.02.39.06.59.1-.13-.12-.25-.26-.37-.39Zm-11.37,2.67c.31.73.53,1.3.74,1.85,1-.39,1.42-.56,2.12-.83-1.04-.18-1.98-.5-2.86-1.02Zm34.96.14c-1.34.9-2.86,1.49-4.51,1.49-.79,0-1.51-.24-2.24-.45,11.89,4.48,20.65,14.8,20.65,26.18,0,3.11-.34,6.29-.74,9.21,1.17-1.8,2.96-3.06,5.13-3.53-.65-1.19-1.05-2.49-1.05-3.87,0-2.99,1.62-5.53,4.02-7-2.37-1.47-4.02-4.01-4.02-6.95,0-.92.44-1.69.72-2.53-4.47-.14-8.07-3.78-8.07-8.27,0-.03.02-.06.02-.09-.79.25-1.48.76-2.35.76-3.38,0-6.26-2.04-7.57-4.94Z"/>
        <path class="cls-9" d="m197.85,125.36c-1.44-.75-2.04-3.63-4.04-4.54-10.55-4.82-28.5-11.21-49.51-11.21s-38.96,6.39-49.51,11.21c-1.99.91-2.6,3.79-4.04,4.54-3.17,1.65-6.05.73-6.05.73,1.68,2.45,5.04,3.07,7.5,1.4.18-.12,18.75-12.52,52.09-12.52s51.91,12.4,52.09,12.52c2.46,1.68,5.81,1.05,7.5-1.4,0,0-2.87.91-6.05-.73Z"/>
      </g>
      <g>
        <path class="cls-3" d="m288.6,277.61c0,79.7-64.61,144.3-144.3,144.3S0,357.31,0,277.61s64.61-144.3,144.3-144.3,144.3,64.61,144.3,144.3Z"/>
        <path class="cls-11" d="m144.3,141.48c-75.07,0-136.14,61.07-136.14,136.14s61.07,136.14,136.14,136.14,136.14-61.07,136.14-136.14-61.07-136.14-136.14-136.14Zm0,231.46c-52.56,0-95.32-42.76-95.32-95.32s42.76-95.32,95.32-95.32,95.32,42.76,95.32,95.32-42.76,95.32-95.32,95.32Z"/>
        <path class="cls-2" d="m57.15,277.61c0,48.06,39.1,87.15,87.16,87.15s87.16-39.1,87.16-87.15-39.1-87.16-87.16-87.16-87.16,39.1-87.16,87.16Z"/>
        <g>
          <path class="cls-1" d="m104.48,376.88l-7.87,16.24-6.9-3.34c-1.73-.84-2.93-1.6-3.57-2.27-.64-.67-1.02-1.5-1.13-2.47-.11-.97.06-1.94.53-2.9.59-1.22,1.44-2.05,2.54-2.5,1.1-.45,2.41-.43,3.94.06-.51-.76-.87-1.49-1.1-2.21-.22-.72-.42-1.9-.59-3.54l-.45-4.13,3.92,1.9.66,4.68c.23,1.67.42,2.75.57,3.22.15.48.37.86.66,1.15.29.29.81.62,1.56.98l.67.32,3.28-6.78,3.28,1.59Zm-7.82,7.78l-2.43-1.18c-1.57-.76-2.59-1.17-3.04-1.23-.46-.06-.87.03-1.25.24-.38.21-.69.57-.92,1.05-.26.55-.33,1.06-.2,1.54.13.48.44.89.93,1.23.25.17,1.04.57,2.36,1.22l2.56,1.24,2-4.12Z"/>
          <path class="cls-1" d="m87.8,368.33l-10.48,14.68-10.88-7.77,1.77-2.48,7.92,5.65,2.32-3.26-7.37-5.26,1.77-2.47,7.37,5.26,2.85-3.99-8.2-5.85,1.76-2.47,11.16,7.97Z"/>
          <path class="cls-1" d="m62.42,346.54l2.8,2.81-1.79,4.01,5.09,5.11,3.95-1.84,2.73,2.74-17.73,7.76-2.72-2.72,7.67-17.85Zm-.32,9.79l-2.98,6.49,6.46-3-3.48-3.49Z"/>
          <path class="cls-1" d="m60.9,344.35l-14.54,10.43-2.12-2.96,12.07-8.66-5.28-7.36,2.47-1.77,7.4,10.32Z"/>
          <path class="cls-1" d="m43.05,327.36l-1.67-3.14c1.02-.65,1.66-1.39,1.93-2.2.27-.82.19-1.74-.23-2.76-.45-1.08-1.01-1.8-1.7-2.17-.68-.36-1.33-.41-1.95-.16-.39.16-.68.41-.86.76-.18.35-.25.85-.22,1.51.03.45.15,1.45.39,3,.3,1.99.27,3.48-.08,4.48-.49,1.4-1.4,2.37-2.72,2.92-.85.35-1.74.44-2.68.26-.94-.18-1.79-.64-2.55-1.39-.76-.75-1.4-1.76-1.93-3.04-.86-2.09-1.05-3.86-.57-5.29.48-1.44,1.47-2.5,2.98-3.18l1.54,3.3c-.8.5-1.29,1.06-1.47,1.69-.18.63-.07,1.42.32,2.37.4.98.92,1.66,1.55,2.05.41.25.82.29,1.25.11.4-.16.66-.47.81-.92.18-.57.13-1.75-.16-3.55-.29-1.8-.39-3.17-.3-4.13.09-.96.4-1.8.93-2.54.53-.74,1.33-1.33,2.38-1.76.96-.4,1.96-.5,3.01-.31,1.05.19,1.98.68,2.79,1.48.81.8,1.51,1.93,2.11,3.37.87,2.11,1.05,3.93.54,5.46-.51,1.53-1.65,2.79-3.42,3.78Z"/>
          <path class="cls-1" d="m33.22,310.88c-1.79.39-3.36.45-4.69.18-.98-.2-1.91-.57-2.78-1.11-.86-.53-1.56-1.18-2.08-1.93-.71-1-1.21-2.21-1.53-3.65-.57-2.59-.22-4.85,1.05-6.76,1.27-1.91,3.34-3.18,6.2-3.81,2.84-.62,5.24-.34,7.18.86,1.94,1.19,3.2,3.08,3.77,5.67.57,2.62.23,4.88-1.03,6.78-1.26,1.89-3.29,3.15-6.1,3.76Zm-.92-3.64c2-.44,3.41-1.23,4.23-2.38.83-1.15,1.09-2.43.78-3.85-.31-1.42-1.08-2.47-2.3-3.15-1.22-.69-2.85-.8-4.89-.36-2.02.44-3.43,1.22-4.23,2.32-.8,1.1-1.04,2.39-.72,3.85.32,1.47,1.08,2.54,2.28,3.22,1.2.67,2.82.79,4.84.35Z"/>
          <path class="cls-1" d="m30.88,277.35l1-3.57c1.99.47,3.48,1.32,4.48,2.54,1,1.22,1.53,2.81,1.6,4.74.08,2.39-.67,4.39-2.25,5.99-1.58,1.6-3.79,2.45-6.63,2.55-3,.11-5.36-.59-7.07-2.08-1.71-1.49-2.62-3.5-2.7-6.03-.08-2.2.51-4.02,1.77-5.44.74-.85,1.83-1.5,3.26-1.96l.99,3.57c-.93.25-1.65.72-2.17,1.41-.52.69-.76,1.53-.73,2.49.05,1.34.56,2.4,1.55,3.2.99.8,2.56,1.16,4.71,1.09,2.28-.08,3.89-.55,4.83-1.4.94-.85,1.39-1.94,1.34-3.25-.03-.97-.37-1.79-1.01-2.46-.64-.67-1.62-1.14-2.95-1.4Z"/>
          <path class="cls-1" d="m37.88,269.66l-17.97-1.63.33-3.63,17.97,1.63-.33,3.63Z"/>
          <path class="cls-1" d="m38.59,261.58l-17.64-3.79,2.81-13.08,2.98.64-2.05,9.52,3.91.84,1.9-8.85,2.97.64-1.9,8.85,4.8,1.03,2.12-9.85,2.97.64-2.88,13.41Z"/>
          <path class="cls-1" d="m25.77,238.05l2.48-6.18c.56-1.39,1.09-2.41,1.6-3.05.68-.87,1.53-1.5,2.55-1.91,1.02-.4,2.14-.58,3.35-.51,1.22.06,2.61.41,4.18,1.04,1.38.55,2.5,1.2,3.36,1.94,1.05.91,1.8,1.9,2.24,2.98.34.82.46,1.79.38,2.91-.06.84-.34,1.88-.85,3.13l-2.55,6.36-16.74-6.71Zm4.19-2.25l11.09,4.45,1.01-2.52c.38-.94.6-1.64.66-2.11.08-.6.03-1.15-.15-1.64-.18-.49-.6-1-1.26-1.53-.66-.53-1.63-1.05-2.93-1.58-1.29-.52-2.33-.8-3.12-.85-.78-.05-1.45.05-2.01.31-.55.26-1.02.67-1.41,1.25-.29.43-.72,1.33-1.27,2.71l-.61,1.52Z"/>
          <path class="cls-1" d="m58.41,213.74l-2.1,3.36-4.31-.83-3.81,6.12,2.69,3.43-2.04,3.28-11.6-15.5,2.04-3.27,19.13,3.41Zm-9.6,1.92l-6.99-1.43,4.39,5.61,2.6-4.18Z"/>
          <path class="cls-1" d="m46.52,199.89l4.44-4.96c1-1.12,1.85-1.89,2.55-2.33.94-.58,1.95-.89,3.05-.92,1.1-.03,2.2.19,3.33.67,1.12.47,2.31,1.28,3.57,2.4,1.11.99,1.93,1.98,2.49,2.97.68,1.21,1.04,2.4,1.09,3.56.04.88-.18,1.84-.64,2.87-.35.77-.97,1.65-1.87,2.65l-4.57,5.1-13.44-12.03Zm4.7-.68l8.9,7.97,1.81-2.02c.68-.76,1.12-1.34,1.34-1.76.28-.54.42-1.07.42-1.6,0-.52-.22-1.15-.66-1.87-.44-.72-1.18-1.55-2.21-2.48-1.04-.93-1.92-1.55-2.64-1.87-.72-.31-1.38-.45-1.99-.39-.61.05-1.19.28-1.76.69-.43.3-1.13,1.01-2.12,2.11l-1.09,1.22Z"/>
          <path class="cls-1" d="m82.33,182.76l-1.67-2.54,6.55-4.33,3.96,5.99c-.23,1.04-.79,2.19-1.69,3.46-.9,1.27-1.97,2.31-3.2,3.13-1.58,1.04-3.17,1.62-4.77,1.73-1.61.12-3.11-.25-4.51-1.09-1.4-.84-2.58-1.98-3.53-3.42-1.04-1.56-1.63-3.17-1.78-4.83-.15-1.65.2-3.22,1.03-4.71.64-1.14,1.67-2.18,3.11-3.13,1.87-1.23,3.59-1.81,5.16-1.72,1.57.09,2.96.72,4.17,1.91l-2.64,2.56c-.7-.6-1.49-.92-2.35-.96-.87-.04-1.74.23-2.62.81-1.33.88-2.1,2-2.33,3.36-.23,1.36.21,2.87,1.3,4.52,1.18,1.79,2.46,2.86,3.85,3.23,1.38.37,2.72.13,4.01-.72.64-.42,1.19-.97,1.67-1.64.47-.68.82-1.34,1.05-2l-1.26-1.91-3.48,2.3Z"/>
          <path class="cls-1" d="m96.35,182.29l-7.87-16.23,3.28-1.59,7.87,16.24-3.28,1.59Z"/>
          <path class="cls-1" d="m103.31,178.71l-5.54-17.16,5.19-1.67,6.89,10.7-.7-12.7,5.2-1.68,5.54,17.16-3.22,1.04-4.36-13.51.95,14.61-3.34,1.08-7.76-12.42,4.36,13.51-3.22,1.04Z"/>
          <path class="cls-1" d="m123.88,172.62l-2.23-17.9,3.52-.44,8.81,11.04-1.49-11.95,3.36-.41,2.23,17.9-3.63.45-8.67-10.78,1.45,11.67-3.36.42Z"/>
          <path class="cls-1" d="m158.61,171.48l-3.96-.2-1.37-4.17-7.2-.35-1.69,4.02-3.86-.19,7.9-17.67,3.85.19,6.33,18.38Zm-6.35-7.46l-2.15-6.81-2.76,6.57,4.92.24Z"/>
          <path class="cls-1" d="m161.36,166.07l3.54.43c-.05,1.21.18,2.15.7,2.84.52.69,1.31,1.15,2.4,1.39,1.15.25,2.06.2,2.75-.15.69-.35,1.1-.86,1.25-1.51.09-.42.05-.8-.13-1.14-.18-.35-.55-.7-1.11-1.05-.39-.24-1.28-.7-2.68-1.4-1.8-.9-3.01-1.77-3.63-2.63-.87-1.21-1.14-2.51-.84-3.9.2-.9.64-1.68,1.32-2.35.68-.67,1.55-1.1,2.59-1.3,1.05-.2,2.25-.14,3.6.15,2.21.49,3.77,1.34,4.67,2.56.9,1.22,1.21,2.64.9,4.27l-3.59-.63c.05-.94-.13-1.66-.55-2.17-.41-.51-1.12-.87-2.12-1.09-1.03-.23-1.89-.2-2.57.1-.44.19-.7.51-.8.97-.09.41,0,.81.29,1.18.37.48,1.37,1.11,3.01,1.9,1.64.79,2.83,1.5,3.56,2.12.73.62,1.25,1.36,1.55,2.22.3.86.33,1.85.08,2.96-.23,1.01-.72,1.89-1.47,2.65-.76.76-1.69,1.23-2.82,1.44-1.12.2-2.45.13-3.98-.21-2.23-.5-3.82-1.39-4.79-2.68-.97-1.29-1.35-2.95-1.14-4.97Z"/>
          <path class="cls-1" d="m181.7,177.66l5.51-13.94-4.98-1.97,1.12-2.84,13.33,5.27-1.12,2.84-4.97-1.96-5.51,13.94-3.39-1.34Z"/>
          <path class="cls-1" d="m192.83,182.58l8.5-15.91,3.21,1.72-8.5,15.92-3.21-1.72Z"/>
          <path class="cls-1" d="m213.22,187.59l2.23,2.96c-1.58,1.29-3.16,1.97-4.74,2.02-1.58.05-3.16-.48-4.74-1.61-1.96-1.39-3.09-3.19-3.4-5.42-.31-2.23.36-4.5,2-6.81,1.74-2.45,3.72-3.9,5.95-4.36,2.23-.46,4.37.05,6.43,1.51,1.8,1.28,2.89,2.85,3.25,4.71.22,1.1.08,2.36-.42,3.78l-3.44-1.39c.37-.89.43-1.74.19-2.58-.24-.83-.76-1.53-1.54-2.09-1.09-.77-2.25-1.01-3.49-.71-1.24.3-2.48,1.33-3.72,3.08-1.32,1.86-1.93,3.42-1.82,4.69.11,1.27.7,2.28,1.77,3.04.79.56,1.65.79,2.57.69.92-.1,1.89-.6,2.91-1.5Z"/>
          <path class="cls-1" d="m226.4,208.94l-2.79-2.82,1.8-4-5.08-5.12-3.96,1.83-2.72-2.75,17.76-7.71,2.71,2.74-7.73,17.83Zm.35-9.79l3.01-6.48-6.47,2.98,3.47,3.49Z"/>
          <path class="cls-1" d="m234.44,220.53l12.78-7.83-2.79-4.56,2.6-1.6,7.49,12.22-2.61,1.6-2.79-4.56-12.78,7.83-1.9-3.1Z"/>
          <path class="cls-1" d="m248.26,226.29c1.7-.69,3.23-1.01,4.6-.97,1,.04,1.98.25,2.92.63.94.38,1.74.9,2.38,1.55.86.86,1.57,1.98,2.12,3.34,1,2.46,1.03,4.74.1,6.84-.93,2.1-2.76,3.7-5.48,4.8-2.7,1.09-5.11,1.21-7.23.36-2.12-.85-3.67-2.5-4.67-4.96-1.01-2.49-1.05-4.77-.13-6.85.92-2.08,2.72-3.66,5.38-4.74Zm1.52,3.43c-1.89.77-3.15,1.79-3.78,3.06-.62,1.27-.66,2.58-.12,3.92.54,1.35,1.48,2.25,2.79,2.72,1.32.47,2.95.31,4.89-.47,1.92-.78,3.17-1.78,3.78-3,.61-1.22.62-2.53.06-3.92-.56-1.39-1.49-2.32-2.79-2.79-1.3-.47-2.91-.31-4.83.47Z"/>
          <path class="cls-1" d="m247.38,249.03l17.67-3.62,1.54,7.51c.39,1.89.51,3.29.37,4.21-.14.92-.57,1.72-1.27,2.4-.71.68-1.58,1.13-2.63,1.34-1.33.27-2.5.11-3.52-.5-1.02-.6-1.81-1.66-2.35-3.16-.29.86-.65,1.6-1.09,2.21-.44.62-1.25,1.49-2.45,2.62l-3.01,2.87-.88-4.26,3.32-3.37c1.19-1.2,1.92-2,2.21-2.42.29-.41.46-.82.52-1.22.05-.4,0-1.02-.17-1.83l-.15-.72-7.37,1.51-.73-3.57Zm10.93,1.48l.54,2.64c.35,1.71.64,2.76.87,3.16.23.39.55.68.95.85.4.17.87.2,1.4.09.59-.12,1.04-.38,1.34-.77.3-.39.44-.89.42-1.49-.02-.3-.18-1.17-.47-2.62l-.57-2.78-4.48.92Z"/>
          <path class="cls-1" d="m250.77,267.36l18.03-.5.21,7.66c.05,1.93-.07,3.33-.37,4.21-.3.88-.85,1.6-1.67,2.14-.81.55-1.75.84-2.82.86-1.35.04-2.48-.33-3.39-1.1-.9-.77-1.49-1.95-1.76-3.52-.44.8-.92,1.46-1.46,1.99-.53.53-1.49,1.24-2.87,2.15l-3.45,2.3-.12-4.35,3.85-2.74c1.38-.97,2.24-1.64,2.6-1.99.36-.35.59-.73.72-1.12.12-.39.18-1,.15-1.84l-.02-.74-7.53.21-.1-3.64Zm10.5,3.35l.07,2.69c.05,1.75.15,2.83.31,3.27.16.43.42.76.79,1,.37.24.82.35,1.36.33.61-.02,1.09-.19,1.46-.52.36-.34.59-.8.67-1.39.03-.29.03-1.18-.01-2.66l-.08-2.84-4.57.13Z"/>
          <path class="cls-1" d="m250.88,286.1l17.86,2.52-1.87,13.24-3.02-.43,1.36-9.63-3.96-.56-1.27,8.96-3.01-.43,1.27-8.96-4.86-.69-1.41,9.97-3.01-.42,1.92-13.58Z"/>
          <path class="cls-1" d="m248.04,303.32l17.1,5.25-1.07,3.48-14.2-4.35-2.65,8.66-2.91-.89,3.72-12.14Z"/>
          <path class="cls-1" d="m235.9,333.04l1.77-3.54,4.37.41,3.21-6.45-3.01-3.16,1.72-3.46,13.01,14.32-1.71,3.45-19.36-1.57Zm9.37-2.82l7.1.76-4.91-5.16-2.19,4.41Z"/>
          <path class="cls-1" d="m232.71,337.33l18.46,5.13-2.28,3.23-13.54-3.96,8.37,11.3-2.22,3.16-11.03-15.68,2.24-3.18Z"/>
          <path class="cls-1" d="m225.1,347.54l12.88,12.62-9.36,9.55-2.18-2.13,6.81-6.95-2.86-2.8-6.34,6.47-2.17-2.13,6.33-6.47-3.51-3.43-7.05,7.2-2.17-2.13,9.6-9.8Z"/>
          <path class="cls-1" d="m209.87,370.01l1.77,2.47-6.38,4.58-4.19-5.84c.19-1.04.71-2.22,1.56-3.52.85-1.3,1.87-2.38,3.08-3.25,1.53-1.1,3.1-1.73,4.7-1.91,1.6-.18,3.11.13,4.55.92,1.43.78,2.65,1.88,3.66,3.29,1.09,1.53,1.75,3.11,1.96,4.76.21,1.65-.07,3.23-.85,4.74-.59,1.16-1.59,2.24-2.99,3.25-1.82,1.3-3.51,1.94-5.08,1.91-1.57-.03-2.98-.61-4.24-1.75l2.54-2.66c.72.57,1.52.86,2.39.87.87,0,1.73-.3,2.58-.91,1.29-.92,2.03-2.07,2.2-3.44.17-1.37-.32-2.85-1.47-4.47-1.25-1.74-2.57-2.77-3.97-3.08-1.4-.31-2.72-.03-3.97.87-.62.45-1.16,1.01-1.6,1.7-.45.69-.77,1.37-.97,2.04l1.33,1.86,3.39-2.43Z"/>
          <path class="cls-1" d="m181.64,377.99l3.58-1.7,3.17,3.03,6.52-3.08-.4-4.34,3.49-1.65,1.36,19.31-3.48,1.65-14.25-13.21Zm9.12,3.58l5.11,4.99-.66-7.09-4.45,2.11Z"/>
        </g>
        <g>
          <path class="cls-7" d="m196.4,259.63c.36-12.34-4.13-24.08-12.61-33.04-8.49-8.99-20-14.12-32.37-14.46-25.53-.69-46.88,19.49-47.6,44.98-.35,12.34,4.12,24.08,12.6,33.04.37.4.75.78,1.13,1.16,8.37,8.27,19.41,12.97,31.24,13.3,25.53.7,46.89-19.48,47.61-44.98Z"/>
          <path class="cls-1" d="m114.27,292.19c9.04,9.56,21.27,15.02,34.45,15.38,22.41.62,41.76-13.92,48.29-34.25h0s0-.03,0-.03c1.38-4.3,2.23-8.85,2.35-13.59.38-13.13-4.39-25.63-13.42-35.17-9.05-9.57-21.28-15.03-34.45-15.38-4.24-.12-8.36.37-12.31,1.27l-.03-.05-.17.09c-21.29,4.96-37.5,23.72-38.14,46.55-.38,13.13,4.39,25.63,13.42,35.17Zm70.48-15.18c-.64-.63-1.35-1.16-2.13-1.59-4.14-2.26-8.97-.94-11.77.15.37-6.45-1.01-11.46-4.33-14.72-.11-.11-.22-.21-.34-.33-5.83-5.36-14.65-3.97-15.97-3.72-1.53-2.11-4.56-7.09-3.41-12.2.95-4.18,4.54-7.66,10.65-10.37,4.68,1.9,37.06,15.82,36.62,37.55l-.02,1.09c-1.37,4.13-3.32,7.98-5.73,11.49-.67-3.17-1.85-5.64-3.58-7.35Zm-16.92.08c-3.99,3.1-32.28,24.16-50.91,12.93l-1.25-.76c-3.02-3.35-5.5-7.06-7.39-11.03,4.3,1.44,7.92,1.32,10.78-.43,4.03-2.47,5.31-7.29,5.76-10.25,5.59,3.65,10.78,4.91,15.38,3.47,6.74-2.11,10.04-9,11.01-11.38,2.03-.29,8.71-.87,12.98,3.07,3.14,2.9,4.36,7.75,3.65,14.37Zm-36.31-61.02c-14.31,15.34-9.83,46.3-9.39,49.04-.02.57-.35,7.55-4.63,10.16-2.58,1.57-6.24,1.26-10.86-.89-2.01-5.45-2.99-11.29-2.82-17.28.52-18.43,11.84-34.03,27.7-41.03Zm19.89-3.96c.92.03,1.81.13,2.71.21-3.72,3.12-5.6,6.46-5.5,9.96.09,3.63,2.27,6.62,4.32,8.66.62.61,1.15,1,1.68,1.43-5.97,3.02-9.67,6.87-10.73,11.59-1.53,6.8,2.68,13.03,4.3,15.12-1.05,2.36-3.85,7.53-8.91,9.11-4.09,1.28-8.91-.09-14.3-4.01-.69-5.01-4.77-39.98,14.3-50.49l.78-.43c3.65-.82,7.44-1.25,11.34-1.15Zm44.98,47.5c-.05,1.63-.18,3.24-.4,4.83-5.76-20.41-35.41-32.22-37.92-33.18-.54-.34-6.36-4.09-6.48-9.06-.08-3.14,2.19-6.29,6.73-9.33,9.7,1.72,18.57,6.42,25.46,13.7,8.48,8.96,12.97,20.7,12.61,33.04Zm-73.94,35.83c20.57,5.06,45.55-14.68,47.62-16.35.58-.31,6.74-3.46,11.12-1.08,2.61,1.43,4.15,4.68,4.62,9.64-8.79,10.65-22.19,17.33-37.03,16.93-9.65-.26-18.75-3.49-26.32-9.14Z"/>
        </g>
        <path class="cls-14" d="m201.93,342.92c1.35-1.19,2.68-2.41,3.95-3.68l-122.76-123.62c-1.28,1.27-2.52,2.57-3.72,3.91l122.53,123.39Z"/>
        <path class="cls-14" d="m144.3,256.02c-23.1,0-53.7-25.2-53.7-25.2v64.5s30.6,25.2,53.7,25.2h61.5v-64.5h-61.5Z"/>
        <path class="cls-11" d="m90.6,230.81v32.1s10.5,11.1,25.5,16.5v-31.94c-14.11-7.31-25.5-16.66-25.5-16.66Z"/>
        <g>
          <path class="cls-1" d="m158.55,363.71h-.72c-4.41.69-8.93,1.05-13.53,1.05s-9.12-.37-13.53-1.05h-1.02s-4.5,3.3-4.5,7.5h-3.3v6.9h3.3v23.1h-3.3v13.2h3.3c0,3.81,2.22,5.8,3.54,6.66,5.1.54,10.27.84,15.51.84s10.17-.27,15.15-.79c1.31-.84,3.6-2.83,3.6-6.7h3.3v-13.2h-3.3v-23.1h3.3v-6.9h-3.3c0-4.2-4.5-7.5-4.5-7.5Z"/>
          <path class="cls-11" d="m128.31,371.22v3.06h-3.3v.77h3.3v29.23h-3.3v7.08h3.3v3.06c0,1.56.65,2.76,1.75,3.67,4.79.48,9.58.77,14.24.77s9.26-.27,13.89-.73c1.13-.91,1.8-2.12,1.8-3.71v-3.06h3.3v-7.08h-3.3v-29.23h3.3v-.77h-3.3v-3.06c0-1.68-1.49-3.43-2.54-4.41-4.36.64-8.78,1.03-13.15,1.03s-8.98-.38-13.43-1.05c-1.05.98-2.56,2.74-2.56,4.43Z"/>
          <path class="cls-14" d="m159.99,371.22c0-1.68-1.49-3.43-2.54-4.41-1.15.17-2.32.27-3.48.4l-25.66,26.32v10.31l31.68-32.49v-.13Zm-31.68,11.02l14.12-14.48c-3.12-.07-6.24-.32-9.36-.72l-4.76,4.89v2.36h-2.3l-.75.77h3.05v7.19Zm31.68,22.04v-.05l-14.22,14.58c3.51-.04,7.05-.24,10.59-.54l3.61-3.71c0-.05.01-.09.01-.14v-3.06h3.11l.19-.19v-6.88h-3.3Zm-34.98,2.94l2.87-2.94h-2.87v2.94Zm34.98-24.59l-31.61,32.42c.15,1.25.74,2.25,1.68,3.03,1.68.17,3.35.28,5.03.4l24.9-25.54v-10.31Z"/>
        </g>
      </g>
    </g>
  </g>
</svg>