<?xml version="1.0" encoding="UTF-8"?>
<svg id="Layer_2" data-name="Layer 2" xmlns="http://www.w3.org/2000/svg" viewBox="0 0 248.76 331.54">
  <defs>
    <style>
      .cls-1, .cls-2, .cls-3, .cls-4 {
        stroke-width: 0px;
      }

      .cls-2 {
        fill: #fff;
      }

      .cls-3 {
        fill: #ec0007;
      }

      .cls-4 {
        fill: #fadc01;
      }
    </style>
  </defs>
  <g id="Layer_1-2" data-name="Layer 1">
    <g>
      <path class="cls-1" d="m124.38,331.54c68.51,0,124.38-55.92,124.38-124.42s-55.87-124.38-124.38-124.38S0,138.61,0,207.12s55.87,124.42,124.38,124.42Z"/>
      <circle class="cls-3" cx="124.38" cy="207.12" r="120.21" transform="translate(-63.34 55.03) rotate(-20)"/>
      <path class="cls-2" d="m84.59,309.98c-.46,1.01-.93,1.77-1.39,2.32-.51.55-1.05.93-1.77,1.18-.46.21-.97.29-1.43.34-.46.04-.93,0-1.39-.13-.46-.08-.93-.25-1.39-.5-1.35-.63-2.27-1.6-2.78-2.95-.25-.8-.34-1.56-.17-2.32.17-.76.5-1.68,1.01-2.74l.21-.38.17-.42c.5-1.05.97-1.89,1.43-2.53.5-.63,1.09-1.09,1.89-1.35.72-.25,1.35-.38,2.02-.34.63,0,1.3.21,2.06.55,1.43.67,2.4,1.6,2.82,2.74.42,1.14.42,2.36.08,3.58l-3.07-1.43c.13-.55.08-.97-.08-1.35-.17-.34-.51-.63-1.01-.84-.55-.25-1.01-.25-1.47-.04-.17.08-.29.21-.46.38-.17.13-.34.42-.55.8-.21.38-.51.93-.84,1.64-.34.72-.59,1.31-.72,1.68-.17.42-.25.72-.25.97-.04.21-.04.42,0,.59.13.46.42.84.97,1.09.59.25,1.09.29,1.56.13.46-.17.84-.55,1.09-1.09l.08-.17-1.81-.84,1.14-2.53,4.84,2.23-.8,1.73Z"/>
      <polygon class="cls-2" points="89.05 317.6 85.9 316.51 90.32 303.67 93.47 304.76 89.05 317.6"/>
      <path class="cls-2" d="m103.66,321.48l-3.71-.97-1.14-5.47-1.09-.25-1.22,4.88-3.24-.8,3.28-13.14,5.22,1.26c.93.25,1.68.63,2.27,1.22.59.55.97,1.22,1.14,1.94.21.71.21,1.47.04,2.23-.21.8-.59,1.47-1.18,1.94-.55.51-1.18.8-1.85.97l1.47,6.19h0Zm-1.68-9.94c.04-.21.04-.46,0-.67-.08-.21-.21-.42-.38-.63-.17-.17-.42-.29-.72-.34l-1.81-.46-.67,2.65,1.85.46c.25.04.55.04.8,0,.21-.09.42-.21.59-.38.17-.17.29-.38.34-.63Z"/>
      <path class="cls-2" d="m117.73,316.42l-.08.46c-.08.76-.21,1.39-.34,1.94-.13.5-.34,1.01-.59,1.52-.29.46-.63.88-1.09,1.22-.59.42-1.18.72-1.81.88-.63.17-1.35.21-2.15.08-.55-.08-1.05-.21-1.47-.38-.42-.17-.8-.38-1.14-.67-.34-.25-.67-.59-.93-.97-.5-.67-.8-1.39-.84-2.19-.08-.76,0-1.73.13-2.86l.08-.46.04-.46c.17-1.14.38-2.06.67-2.82.25-.72.72-1.35,1.39-1.85.59-.42,1.18-.72,1.81-.88.63-.17,1.35-.21,2.15-.08.8.13,1.52.34,2.06.67.55.34,1.05.8,1.47,1.35.38.46.59.97.72,1.52.13.51.17,1.05.17,1.6-.04.55-.08,1.22-.21,1.94l-.04.46h0Zm-3.33-.46c.17-1.14.25-1.94.25-2.36-.04-.42-.13-.76-.25-1.01-.13-.17-.25-.34-.51-.5-.21-.13-.46-.21-.76-.25-.29-.04-.55-.04-.8.04-.21.08-.42.21-.59.34-.13.13-.25.29-.34.5-.13.21-.21.51-.29.93-.13.42-.21,1.01-.34,1.81-.08.8-.17,1.39-.21,1.81,0,.46,0,.76.04.97.04.21.13.42.21.59.25.42.67.71,1.22.76.59.09,1.05-.04,1.43-.42.21-.21.38-.5.5-.88.13-.38.29-1.18.42-2.32Z"/>
      <polygon class="cls-2" points="131.37 322.87 128.46 322.99 123.92 316.34 124.17 323.12 120.84 323.25 120.38 309.69 123.29 309.6 127.83 316.25 127.58 309.43 130.91 309.31 131.37 322.87"/>
      <path class="cls-2" d="m146.74,321.18l-3.45.5-.93-1.94-4.13.59-.38,2.1-3.45.46,2.99-14.11,2.57-.38,6.78,12.76h0Zm-5.6-4.04l-1.64-3.45-.72,3.75,2.36-.3Z"/>
      <polygon class="cls-2" points="160.63 306.02 155.08 307.96 155.83 310.19 160.63 308.55 161.6 311.37 156.8 313.01 158.53 317.94 155.37 319.03 150.95 306.23 159.71 303.2 160.63 306.02"/>
      <path class="cls-2" d="m174.87,306.66c.21.72.25,1.39.25,2.02-.04.63-.21,1.22-.46,1.73-.25.55-.59,1.01-1.05,1.43-.42.38-.97.72-1.52,1.01-1.39.63-2.74.67-4.08.21-.8-.3-1.39-.76-1.89-1.39-.46-.59-.93-1.43-1.43-2.48l-.17-.42-.21-.42c-.5-1.05-.84-1.94-1.01-2.69-.17-.76-.08-1.56.17-2.36.25-.67.59-1.22,1.05-1.73.46-.46,1.01-.88,1.73-1.22.63-.29,1.22-.46,1.81-.55.59-.08,1.18-.04,1.73.13.55.13,1.1.38,1.6.76.5.38.97.88,1.39,1.47l-3.07,1.47c-.29-.38-.59-.59-.97-.72-.34-.13-.76-.08-1.22.13-.25.13-.46.25-.63.46-.17.17-.25.38-.29.59-.04.21-.08.38-.04.63,0,.21.08.51.25.93.13.38.38.97.72,1.73.46.97.84,1.64,1.09,2.02.25.38.55.63.8.76.42.25.93.21,1.43,0,.46-.21.76-.51.88-.84.13-.38.17-.76.08-1.22l3.07-1.43Z"/>
      <path class="cls-1" d="m168.42,65.39l28.38-37.94c1.35-1.81,2.95-3.58,3.28-5.94.55-3.45-2.23-4.38-4.93-3.62-3.66,1.05-5.35,2.69-9.6,2.82-2.4.08-3.87.55-5.39,2.48-1.22,1.6-2.86,3.87-3.45,5.81-.63,1.98.04,3.75,1.52,5.09-.13,2.36-2.11,8.34-5.43,6.91-4.13-1.73-8.25-3.28-12.51-4.67-1.77-.55-1.73-1.39-1.43-3.24.17-1.09.59-2.32,1.09-3.54,3.45,1.43,4.55,1.22,6.48-2.19l1.98-3.45c1.18-2.27,1.3-4-1.22-5.31-.84-.51-1.01-.59-.8-1.09.72-1.64,1.68-3.2,2.32-4.88.72-1.89.72-3.62-2.27-4.84-1.56-.59-3.03-1.39-4.63-1.89-3.16-.93-4.29.42-5.18,3.24-.21.59-.46,1.39-.76,2.15-.8,1.81-.46,2.82-1.98,2.4-3.2-.63-3.75,1.31-4.38,3.66l-.93,3.54c-1.05,3.71.04,5.01,3.58,5.73-.63,2.9-1.64,7.03-5.56,6.32-4.46-.88-9.01-1.43-13.52-1.77-3.96-.88-4.51-4.93-4.55-8.34,3.87.25,4.76-1.05,5.14-4.51l.34-3.71c.25-2.53.84-5.18-2.82-5.73-.63-.08-1.01.08-1.01-.55-.04-1.31.08-2.65.13-3.96v-.04c0-3.16.04-4.13-3.62-4.25-.76-.04-1.56-.08-2.32-.08s-1.56.04-2.32.08c-3.66.13-3.62,1.09-3.62,4.25v.04c.04,1.31.17,2.65.13,3.96,0,.63-.38.46-1.01.55-3.66.55-3.07,3.2-2.82,5.73l.34,3.71c.38,3.45,1.26,4.76,5.14,4.51-.04,3.41-.59,7.45-4.55,8.34-4.5.34-9.05.88-13.52,1.77-3.92.72-4.93-3.41-5.6-6.32,3.58-.72,4.67-2.02,3.62-5.73l-.93-3.54c-.63-2.36-1.18-4.29-4.38-3.66-1.52.42-1.18-.59-1.98-2.4-.29-.76-.55-1.56-.76-2.15-.88-2.82-2.02-4.17-5.18-3.24-1.6.5-3.07,1.31-4.63,1.89-2.99,1.22-2.99,2.95-2.27,4.84.63,1.68,1.6,3.24,2.32,4.88.21.5.04.59-.8,1.09-2.53,1.3-2.4,3.03-1.22,5.31l1.98,3.45c1.94,3.41,3.03,3.62,6.48,2.19.51,1.22.93,2.44,1.09,3.54.29,1.85.34,2.7-1.43,3.24-4.25,1.39-8.38,2.95-12.5,4.67-3.33,1.43-5.31-4.55-5.43-6.91,1.47-1.35,2.15-3.12,1.52-5.09-.59-1.94-2.23-4.21-3.45-5.81-1.52-1.94-2.99-2.4-5.39-2.48-4.25-.13-5.94-1.77-9.6-2.82-2.69-.76-5.47.17-4.93,3.62.34,2.36,1.94,4.13,3.28,5.94l28.38,37.94c24.63,15.07,63.5,15.03,88.09,0Z"/>
      <path class="cls-4" d="m195.33,24.13c.17-.25.5-.67,0,0h0Z"/>
      <path class="cls-4" d="m195.33,24.13c-.21.25-.13.17,0,0h0Z"/>
      <path class="cls-4" d="m53.43,24.13c-.17-.25-.5-.67,0,0h0Z"/>
      <path class="cls-4" d="m53.43,24.13c.21.25.13.17,0,0h0Z"/>
      <path class="cls-4" d="m124.38,3.2c3.07,0,2.86-.17,2.69,2.53-.04.88-.08,1.81-.04,2.74.04,1.56.88,2.99,2.44,3.37,1.14.29,1.68-.34,1.52,1.26h0l-.04.51-.42,4.17c-.13,1.6-.38,1.98-2.44,1.81-.88-.04-1.81-.08-2.69-.13l-.04,1.64c-.13,5.35,1.01,12.8,7.87,13.26,4.38.34,8.76.88,13.05,1.73,6.36,1.22,8.38-5.43,9.31-10.36l.29-1.39c-.84-.25-2.11-.46-3.07-.84-.84-.38-1.43-.88-1.14-1.94l1.05-3.83h0c.34-1.31.21-1.01,1.35-.76,1.68.34,2.91.42,3.87-2.06.25-.67.59-1.64.93-2.57.25-.72.51-1.43.72-2.02.46-1.39.29-1.77,1.94-1.18,1.26.51,2.48,1.1,3.79,1.6.76.34.17,1.22-.04,1.73-.17.46-.42,1.01-.72,1.56-.55,1.22-1.14,2.53-1.39,3.33-.8,2.65.29,3.12,1.94,3.79,1.09.42,1.05.21.55,1.26l-1.98,3.5c-.76,1.35-1.73,1.14-2.74.67-.84-.38-1.68-.76-2.57-1.09l-.63,1.35c-.93,1.94-1.68,3.87-1.98,5.77-.55,3.41.04,5.68,3.16,6.61,4.8,1.43,9.47,3.37,14.02,5.35l.76.13c4.59-.42,7.03-5.77,7.62-9.81.38-2.53-2.06-3.16-1.56-4.93.42-1.47,1.73-3.07,2.61-4.34,1.01-1.39,1.47-1.64,3.28-1.68,4.55-.17,6.53-1.85,10.36-2.95,2.53-.76.17,1.98-.55,2.95-.04.08-.08.17-.13.21h0l-28.84,38.53c-12.8-6.11-27.07-9.52-42.11-9.52s-29.31,3.41-42.11,9.52l-28.84-38.53h0s-.08-.13-.13-.21c-.72-.97-3.07-3.71-.55-2.95,3.83,1.09,5.81,2.78,10.36,2.95,1.81.04,2.27.29,3.28,1.68.88,1.26,2.19,2.86,2.61,4.34.51,1.77-1.94,2.4-1.56,4.93.59,4.04,3.03,9.39,7.62,9.81l.76-.13c4.55-1.98,9.22-3.92,14.02-5.35,3.12-.93,3.71-3.2,3.16-6.61-.29-1.89-1.05-3.83-1.98-5.77l-.63-1.35c-.88.34-1.73.72-2.57,1.09-1.01.46-1.98.67-2.74-.67l-1.98-3.5c-.5-1.05-.55-.84.55-1.26,1.64-.67,2.74-1.14,1.94-3.79-.25-.8-.84-2.11-1.39-3.33-.3-.55-.55-1.09-.72-1.56-.21-.51-.8-1.39-.04-1.73,1.31-.5,2.53-1.09,3.79-1.6,1.64-.59,1.47-.21,1.94,1.18.21.59.46,1.31.72,2.02.34.93.67,1.89.93,2.57.97,2.48,2.19,2.4,3.87,2.06,1.14-.25,1.01-.55,1.35.76h0l1.05,3.83c.29,1.05-.29,1.56-1.14,1.94-.97.38-2.23.59-3.07.84l.29,1.39c.93,4.93,2.95,11.58,9.31,10.36,4.29-.84,8.67-1.39,13.05-1.73,6.86-.46,8-7.92,7.87-13.26l-.04-1.64c-.88.04-1.81.08-2.69.13-2.06.17-2.32-.21-2.44-1.81l-.42-4.17-.04-.51h0c-.17-1.6.38-.97,1.47-1.26,1.6-.38,2.44-1.81,2.48-3.37.04-.93,0-1.85-.04-2.74-.17-2.69-.38-2.53,2.69-2.53Z"/>
      <circle class="cls-2" cx="124.38" cy="207.12" r="98.15" transform="translate(-110.02 148.61) rotate(-45)"/>
      <path class="cls-3" d="m32.76,227.96c-1.47-6.53-2.27-13.3-2.32-20.29l29.18-68.51c4.97-4.72,10.4-8.88,16.3-12.46l-43.16,101.26Z"/>
      <path class="cls-3" d="m43.37,254.61c-2.23-3.83-4.21-7.79-5.9-11.92l52.38-122.95c4.08-1.6,8.34-2.95,12.67-4l-59.16,138.86Z"/>
      <path class="cls-3" d="m215.67,184.93c1.56,6.32,2.44,12.88,2.65,19.62l-30.61,71.88c-4.88,4.46-10.27,8.42-16,11.79l43.96-103.29Z"/>
      <path class="cls-3" d="m204.89,158.78c2.27,3.75,4.25,7.62,5.98,11.66l-52.97,124.42c-4.08,1.56-8.29,2.86-12.63,3.87l59.62-139.96Z"/>
      <path class="cls-3" d="m190.65,140.63c2.65,2.65,5.14,5.43,7.41,8.34l-64.59,151.66c-2.99.29-6.02.46-9.09.46-.67,0-1.35-.04-2.02-.04l68.29-160.42Z"/>
      <path class="cls-3" d="m174.28,127.58c2.9,1.85,5.73,3.83,8.42,5.98l-70.95,166.65c-3.45-.46-6.82-1.14-10.15-1.94l72.67-170.7Z"/>
      <path class="cls-3" d="m156.09,118.7c3.2,1.14,6.32,2.48,9.3,3.96l-73.47,172.63c-3.2-1.18-6.27-2.53-9.26-4.04l73.43-172.55Z"/>
      <path class="cls-3" d="m136.21,113.9c3.45.46,6.82,1.09,10.15,1.89l-72.55,170.44c-2.91-1.85-5.73-3.92-8.38-6.06l70.78-166.27Z"/>
      <path class="cls-3" d="m124.38,113.18h1.14l-68,159.79c-2.65-2.65-5.09-5.47-7.41-8.42L114.36,113.69c3.33-.34,6.65-.51,10.02-.51Z"/>
      <polygon class="cls-1" points="40.97 207.12 124.38 124.93 207.79 207.12 124.38 289.35 40.97 207.12"/>
      <path class="cls-2" d="m144.97,176.8h7.28c-1.73,2.23-5.56,2.19-7.28,0Z"/>
      <path class="cls-2" d="m125.56,176.8h7.33c-1.77,2.23-5.56,2.19-7.33,0Z"/>
      <path class="cls-2" d="m106.19,176.8h7.33c-1.77,2.23-5.56,2.19-7.33,0Z"/>
      <path class="cls-2" d="m91.54,178.36v-1.56h2.57c-.63.8-1.56,1.35-2.57,1.56Z"/>
      <path class="cls-2" d="m124.13,246.44c-3.03-1.18-6.15-2.31-9.18-3.62v-.34c0-5.98,9.18-5.98,9.18,0v3.96Z"/>
      <path class="cls-2" d="m141.81,238.91c-1.3.72-2.53,1.31-3.66,1.9-1.22.63-2.53,1.22-3.83,1.81v-.13c0-4.34,4.84-5.52,7.49-3.58Z"/>
      <path class="cls-2" d="m150.74,233.48c-2.11,1.56-4.42,2.99-6.69,4.25v-3.88c0-6.65-10.23-6.65-10.23,0v8.97c-2.74,1.18-5.56,2.23-8.34,3.29-.5-.72-.84-1.6-.84-2.74v-9.52c0-6.65-10.19-6.65-10.19,0v8.76c-1.31-.59-2.61-1.18-3.83-1.81-1.6-.8-3.45-1.73-5.35-2.78v-4.17c0-5.72-7.54-6.53-9.68-2.44-.13-.13-.29-.25-.42-.42.25-.63.42-1.31.42-2.15v-9.47c0-5.98,9.14-5.98,9.14,0v9.47c0,6.7,10.23,6.7,10.23,0v-9.47c0-5.98,9.18-5.98,9.18,0v9.47c0,6.7,10.19,6.7,10.19,0v-9.47c0-5.98,9.18-5.98,9.18,0v9.47c0,4.29,4.21,5.81,7.24,4.63Z"/>
      <path class="cls-2" d="m157.22,214.99v7.75c0,3.96-1.64,6.48-4.21,8.84.46-.76.72-1.64.72-2.74v-9.47c0-2.53,1.6-3.96,3.5-4.38Z"/>
      <path class="cls-2" d="m157.22,191.88v13.98c-2.15.42-4.04,2.02-4.04,4.88v9.52c0,5.94-9.14,5.94-9.14,0v-9.52c0-6.65-10.23-6.65-10.23,0v9.52c0,5.94-9.18,5.94-9.18,0v-9.52c0-6.65-10.19-6.65-10.19,0v9.52c0,5.94-9.18,5.94-9.18,0v-9.52c0-6.65-10.23-6.65-10.23,0v9.52c0,2.44-1.56,3.87-3.37,4.29-.08-.55-.13-1.18-.13-1.81v-12.13c2.15-.42,4.04-2.02,4.04-4.88v-9.52c0-5.94,9.14-5.94,9.14,0v9.52c0,6.65,10.23,6.65,10.23,0v-9.52c0-5.94,9.18-5.94,9.18,0v9.52c0,6.65,10.19,6.65,10.19,0v-9.52c0-5.94,9.18-5.94,9.18,0v9.52c0,6.65,10.23,6.65,10.23,0v-9.52c0-2.48,1.6-3.92,3.5-4.34Z"/>
      <path class="cls-2" d="m157.22,176.8v5.94c-2.15.38-4.04,2.02-4.04,4.88v9.47c0,5.98-9.14,5.98-9.14,0v-9.47c0-6.7-10.23-6.7-10.23,0v9.47c0,5.98-9.18,5.98-9.18,0v-9.47c0-6.7-10.19-6.7-10.19,0v9.47c0,5.98-9.18,5.98-9.18,0v-9.47c0-6.7-10.23-6.7-10.23,0v9.47c0,2.53-1.6,3.96-3.49,4.38v-13.98c2.15-.42,4.04-2.06,4.04-4.88v-5.81h9.14v5.81c0,6.65,10.23,6.65,10.23,0v-5.81h9.18v5.81c0,6.65,10.19,6.65,10.19,0v-5.81h9.18v5.81c0,6.65,10.23,6.65,10.23,0v-5.81h3.5Z"/>
      <polygon class="cls-4" points="187.79 191.58 203.5 207.12 187.79 222.61 187.79 191.58"/>
      <path class="cls-4" d="m151.54,155.92l18.11,17.81v66.74l-18.11,17.85v-23.7s.08-.09.13-.13c4.21-3.2,6.95-6.27,6.95-11.79v-47.28h-7.07v-19.5Z"/>
      <path class="cls-4" d="m133.43,244.46v31.75l-9.05,8.93-9.05-8.93v-31.75c3.03,1.22,6.06,2.32,9.05,3.58,2.99-1.26,6.02-2.36,9.05-3.58Z"/>
      <polygon class="cls-4" points="115.33 138.06 124.38 129.14 133.43 138.06 133.43 175.41 115.33 175.41 115.33 138.06"/>
      <path class="cls-4" d="m79.12,173.73l18.11-17.81v19.5h-7.07v47.28c0,5.52,2.74,8.59,6.95,11.79.04.04.08.08.13.13v23.7l-18.11-17.85v-66.74Z"/>
      <polygon class="cls-4" points="45.26 207.12 60.97 191.58 60.97 222.61 45.26 207.12"/>
      <polygon class="cls-3" points="169.64 173.73 187.79 191.58 187.79 222.61 169.64 240.46 169.64 173.73"/>
      <path class="cls-3" d="m151.54,234.61v23.7l-18.1,17.9v-31.75c1.81-.72,3.62-1.52,5.39-2.4,3.58-1.85,8.63-4.38,12.72-7.45Z"/>
      <polygon class="cls-3" points="133.43 138.06 151.54 155.92 151.54 175.41 133.43 175.41 133.43 138.06"/>
      <path class="cls-3" d="m115.33,244.46v31.75l-18.11-17.9v-23.7c4.08,3.07,9.14,5.6,12.72,7.45,1.77.88,3.58,1.68,5.39,2.4Z"/>
      <polygon class="cls-3" points="97.22 155.92 115.33 138.06 115.33 175.41 97.22 175.41 97.22 155.92"/>
      <polygon class="cls-3" points="60.97 191.58 79.12 173.73 79.12 240.46 60.97 222.61 60.97 191.58"/>
    </g>
  </g>
</svg>