<?xml version="1.0" encoding="UTF-8"?>
<svg id="Layer_2" data-name="Layer 2" xmlns="http://www.w3.org/2000/svg" viewBox="0 0 287.32 357.89">
  <defs>
    <style>
      .cls-1 {
        fill: #fabd02;
      }

      .cls-1, .cls-2, .cls-3, .cls-4, .cls-5, .cls-6, .cls-7, .cls-8, .cls-9, .cls-10, .cls-11, .cls-12, .cls-13, .cls-14, .cls-15, .cls-16, .cls-17, .cls-18, .cls-19, .cls-20, .cls-21, .cls-22, .cls-23, .cls-24, .cls-25, .cls-26, .cls-27, .cls-28, .cls-29, .cls-30, .cls-31, .cls-32, .cls-33, .cls-34, .cls-35, .cls-36, .cls-37, .cls-38, .cls-39, .cls-40, .cls-41, .cls-42, .cls-43, .cls-44, .cls-45, .cls-46, .cls-47, .cls-48, .cls-49, .cls-50, .cls-51, .cls-52, .cls-53, .cls-54, .cls-55, .cls-56, .cls-57, .cls-58, .cls-59, .cls-60, .cls-61, .cls-62, .cls-63, .cls-64, .cls-65, .cls-66, .cls-67, .cls-68, .cls-69, .cls-70, .cls-71, .cls-72, .cls-73, .cls-74, .cls-75, .cls-76, .cls-77, .cls-78, .cls-79, .cls-80, .cls-81, .cls-82, .cls-83, .cls-84, .cls-85, .cls-86, .cls-87, .cls-88, .cls-89, .cls-90, .cls-91, .cls-92, .cls-93, .cls-94, .cls-95, .cls-96, .cls-97, .cls-98, .cls-99, .cls-100, .cls-101, .cls-102, .cls-103, .cls-104, .cls-105, .cls-106, .cls-107, .cls-108, .cls-109, .cls-110, .cls-111, .cls-112, .cls-113, .cls-114, .cls-115, .cls-116, .cls-117, .cls-118, .cls-119, .cls-120, .cls-121, .cls-122, .cls-123, .cls-124, .cls-125, .cls-126, .cls-127, .cls-128, .cls-129, .cls-130, .cls-131, .cls-132, .cls-133, .cls-134, .cls-135, .cls-136, .cls-137, .cls-138, .cls-139, .cls-140, .cls-141, .cls-142, .cls-143, .cls-144, .cls-145, .cls-146, .cls-147, .cls-148, .cls-149, .cls-150, .cls-151, .cls-152, .cls-153, .cls-154, .cls-155, .cls-156, .cls-157, .cls-158, .cls-159, .cls-160, .cls-161, .cls-162, .cls-163, .cls-164, .cls-165, .cls-166, .cls-167, .cls-168, .cls-169, .cls-170, .cls-171, .cls-172, .cls-173, .cls-174, .cls-175, .cls-176, .cls-177, .cls-178, .cls-179, .cls-180, .cls-181, .cls-182, .cls-183, .cls-184, .cls-185, .cls-186, .cls-187, .cls-188, .cls-189, .cls-190, .cls-191, .cls-192, .cls-193, .cls-194, .cls-195, .cls-196, .cls-197, .cls-198, .cls-199, .cls-200, .cls-201, .cls-202, .cls-203, .cls-204, .cls-205, .cls-206, .cls-207, .cls-208, .cls-209, .cls-210, .cls-211, .cls-212, .cls-213, .cls-214, .cls-215, .cls-216, .cls-217, .cls-218, .cls-219, .cls-220, .cls-221, .cls-222, .cls-223, .cls-224, .cls-225, .cls-226, .cls-227, .cls-228, .cls-229, .cls-230, .cls-231, .cls-232, .cls-233, .cls-234, .cls-235, .cls-236, .cls-237, .cls-238, .cls-239 {
        stroke-width: 0px;
      }

      .cls-2 {
        fill: #4b564c;
      }

      .cls-3 {
        fill: #4b574d;
      }

      .cls-4 {
        fill: #4b606b;
      }

      .cls-5 {
        fill: #616543;
      }

      .cls-6 {
        fill: #495b4b;
      }

      .cls-7 {
        fill: #5e6244;
      }

      .cls-8 {
        fill: #49554e;
      }

      .cls-9 {
        fill: #76703b;
      }

      .cls-10 {
        fill: #5e6147;
      }

      .cls-11 {
        fill: #796b3f;
      }

      .cls-12 {
        fill: #7a7255;
      }

      .cls-13 {
        fill: #7a7239;
      }

      .cls-14 {
        fill: #525f57;
      }

      .cls-15 {
        fill: #786f3e;
      }

      .cls-16 {
        fill: #606245;
      }

      .cls-17 {
        fill: #505a4b;
      }

      .cls-18 {
        fill: #4f5a4b;
      }

      .cls-19 {
        fill: #4f5c49;
      }

      .cls-20 {
        fill: #27405c;
      }

      .cls-21 {
        fill: #515a4c;
      }

      .cls-22 {
        fill: #354b57;
      }

      .cls-23 {
        fill: #354a55;
      }

      .cls-24 {
        fill: #263e5d;
      }

      .cls-25 {
        fill: #2c4973;
      }

      .cls-26 {
        fill: #2c445a;
      }

      .cls-27 {
        fill: #2c435c;
      }

      .cls-28 {
        fill: #48534e;
      }

      .cls-29 {
        fill: #48554e;
      }

      .cls-30 {
        fill: #4a564d;
      }

      .cls-31 {
        fill: #294858;
      }

      .cls-32 {
        fill: #2d4d56;
      }

      .cls-33 {
        fill: #2d4d7c;
      }

      .cls-34 {
        fill: #2d4858;
      }

      .cls-35 {
        fill: #2d465a;
      }

      .cls-36 {
        fill: #2d4658;
      }

      .cls-37 {
        fill: #2d4559;
      }

      .cls-38 {
        fill: #555b4a;
      }

      .cls-39 {
        fill: #565f47;
      }

      .cls-40 {
        fill: #565e47;
      }

      .cls-41 {
        fill: #2b425b;
      }

      .cls-42 {
        fill: #2b435a;
      }

      .cls-43 {
        fill: #2a415b;
      }

      .cls-44 {
        fill: #28475a;
      }

      .cls-45 {
        fill: #284659;
      }

      .cls-46 {
        fill: #28425d;
      }

      .cls-47 {
        fill: #5b5f48;
      }

      .cls-48 {
        fill: #5b5f47;
      }

      .cls-49 {
        fill: #62693f;
      }

      .cls-50 {
        fill: #55584d;
      }

      .cls-51 {
        fill: #555f47;
      }

      .cls-52 {
        fill: #706b3f;
      }

      .cls-53 {
        fill: #706b3e;
      }

      .cls-54 {
        fill: #6d6c3d;
      }

      .cls-55 {
        fill: #46534f;
      }

      .cls-56 {
        fill: #46574d;
      }

      .cls-57 {
        fill: #535a4d;
      }

      .cls-58 {
        fill: #455254;
      }

      .cls-59 {
        fill: #455250;
      }

      .cls-60 {
        fill: #967f31;
      }

      .cls-61 {
        fill: #6f6a3f;
      }

      .cls-62 {
        fill: #6f6c3e;
      }

      .cls-63 {
        fill: #2f4657;
      }

      .cls-64 {
        fill: #2f4b57;
      }

      .cls-65 {
        fill: #2f4759;
      }

      .cls-66 {
        fill: #2e4f55;
      }

      .cls-67 {
        fill: #2f4a58;
      }

      .cls-68 {
        fill: #2e4459;
      }

      .cls-69 {
        fill: #384a56;
      }

      .cls-70 {
        fill: #394c54;
      }

      .cls-71 {
        fill: #304f89;
      }

      .cls-72 {
        fill: #384e54;
      }

      .cls-73 {
        fill: #384d54;
      }

      .cls-74 {
        fill: #3b4d53;
      }

      .cls-75 {
        fill: #3a4b55;
      }

      .cls-76 {
        fill: #344956;
      }

      .cls-77 {
        fill: #264984;
      }

      .cls-78 {
        fill: #26435c;
      }

      .cls-79 {
        fill: #394b54;
      }

      .cls-80 {
        fill: #847735;
      }

      .cls-81 {
        fill: #3c4e52;
      }

      .cls-82 {
        fill: #2e4859;
      }

      .cls-83 {
        fill: #2e4957;
      }

      .cls-84 {
        fill: #1c3861;
      }

      .cls-85 {
        fill: #19477a;
      }

      .cls-86 {
        fill: #3e4e53;
      }

      .cls-87 {
        fill: #1a3a69;
      }

      .cls-88 {
        fill: #1a395f;
      }

      .cls-89 {
        fill: #1a3b60;
      }

      .cls-90 {
        fill: #1b3d5f;
      }

      .cls-91 {
        fill: #3d4c54;
      }

      .cls-92 {
        fill: #0c2f68;
      }

      .cls-93 {
        fill: #0d3067;
      }

      .cls-94 {
        fill: #0d2f67;
      }

      .cls-95 {
        fill: #364c54;
      }

      .cls-96 {
        fill: #364b54;
      }

      .cls-97 {
        fill: #364956;
      }

      .cls-98 {
        fill: #374a56;
      }

      .cls-99 {
        fill: #374a55;
      }

      .cls-100 {
        fill: #0e3067;
      }

      .cls-101 {
        fill: #103678;
      }

      .cls-102 {
        fill: #19396a;
      }

      .cls-103 {
        fill: #193a61;
      }

      .cls-104 {
        fill: #193762;
      }

      .cls-105 {
        fill: #193c61;
      }

      .cls-106 {
        fill: #1d3a60;
      }

      .cls-107 {
        fill: #1d3d60;
      }

      .cls-108 {
        fill: #0f3564;
      }

      .cls-109 {
        fill: #072b6a;
      }

      .cls-110 {
        fill: #113763;
      }

      .cls-111 {
        fill: #415250;
      }

      .cls-112 {
        fill: #415052;
      }

      .cls-113 {
        fill: #405875;
      }

      .cls-114 {
        fill: #0a3266;
      }

      .cls-115 {
        fill: #143364;
      }

      .cls-116 {
        fill: #143265;
      }

      .cls-117 {
        fill: #153464;
      }

      .cls-118 {
        fill: #153c7c;
      }

      .cls-119 {
        fill: #153663;
      }

      .cls-120 {
        fill: #062a6b;
      }

      .cls-121 {
        fill: #062b6c;
      }

      .cls-122 {
        fill: #425251;
      }

      .cls-123 {
        fill: #425250;
      }

      .cls-124 {
        fill: #435350;
      }

      .cls-125 {
        fill: #435251;
      }

      .cls-126 {
        fill: #082c69;
      }

      .cls-127 {
        fill: #092c69;
      }

      .cls-128 {
        fill: #214981;
      }

      .cls-129 {
        fill: #21425c;
      }

      .cls-130 {
        fill: #21415c;
      }

      .cls-131 {
        fill: #22415d;
      }

      .cls-132 {
        fill: #223c5f;
      }

      .cls-133 {
        fill: #21415d;
      }

      .cls-134 {
        fill: #223b5f;
      }

      .cls-135 {
        fill: #24415d;
      }

      .cls-136 {
        fill: #24445b;
      }

      .cls-137 {
        fill: #243d5e;
      }

      .cls-138 {
        fill: #203b5f;
      }

      .cls-139 {
        fill: #1f3b60;
      }

      .cls-140 {
        fill: #1f3a60;
      }

      .cls-141 {
        fill: #1f3e69;
      }

      .cls-142 {
        fill: #1f3f5e;
      }

      .cls-143 {
        fill: #1e3960;
      }

      .cls-144 {
        fill: #133365;
      }

      .cls-145 {
        fill: #133364;
      }

      .cls-146 {
        fill: #113266;
      }

      .cls-147 {
        fill: #11346b;
      }

      .cls-148 {
        fill: #21405e;
      }

      .cls-149 {
        fill: #213c5f;
      }

      .cls-150 {
        fill: #213e5d;
      }

      .cls-151 {
        fill: #213e5e;
      }

      .cls-152 {
        fill: #173464;
      }

      .cls-153 {
        fill: #183c78;
      }

      .cls-154 {
        fill: #163564;
      }

      .cls-155 {
        fill: #173b61;
      }

      .cls-156 {
        fill: #173663;
      }

      .cls-157 {
        fill: #25405d;
      }

      .cls-158 {
        fill: #25425e;
      }

      .cls-159 {
        fill: #253f5c;
      }

      .cls-160 {
        fill: #143a61;
      }

      .cls-161 {
        fill: #14397a;
      }

      .cls-162 {
        fill: #123466;
      }

      .cls-163 {
        fill: #143564;
      }

      .cls-164 {
        fill: #143464;
      }

      .cls-165 {
        fill: #c79d16;
      }

      .cls-166 {
        fill: #c59c16;
      }

      .cls-167 {
        fill: #d4dce7;
      }

      .cls-168 {
        fill: #af8e22;
      }

      .cls-169 {
        fill: #af8f23;
      }

      .cls-170 {
        fill: #af8f21;
      }

      .cls-171 {
        fill: #e2af0b;
      }

      .cls-172 {
        fill: #e1dbbc;
      }

      .cls-173 {
        fill: #dfad0b;
      }

      .cls-174 {
        fill: #d5a80e;
      }

      .cls-175 {
        fill: #d4a60f;
      }

      .cls-176 {
        fill: #dce1ea;
      }

      .cls-177 {
        fill: #c09a19;
      }

      .cls-178 {
        fill: #bc981c;
      }

      .cls-179 {
        fill: #be981c;
      }

      .cls-180 {
        fill: #aebed3;
      }

      .cls-181 {
        fill: #b0911e;
      }

      .cls-182 {
        fill: #b08f24;
      }

      .cls-183 {
        fill: #adbdd2;
      }

      .cls-184 {
        fill: #a5872a;
      }

      .cls-185 {
        fill: #bd9719;
      }

      .cls-186 {
        fill: #a98b22;
      }

      .cls-187 {
        fill: #a88a23;
      }

      .cls-188 {
        fill: #ced6df;
      }

      .cls-189 {
        fill: #cfa311;
      }

      .cls-190 {
        fill: #859cbc;
      }

      .cls-191 {
        fill: #b8951c;
      }

      .cls-192 {
        fill: #8a8e87;
      }

      .cls-193 {
        fill: #93802c;
      }

      .cls-194 {
        fill: #c29c17;
      }

      .cls-195 {
        fill: #b6941d;
      }

      .cls-196 {
        fill: #c1ccdc;
      }

      .cls-197 {
        fill: #666345;
      }

      .cls-198 {
        fill: #324857;
      }

      .cls-199 {
        fill: #334b58;
      }

      .cls-200 {
        fill: #304757;
      }

      .cls-201 {
        fill: #304758;
      }

      .cls-202 {
        fill: #304658;
      }

      .cls-203 {
        fill: #ba9420;
      }

      .cls-204 {
        fill: #ba961c;
      }

      .cls-205 {
        fill: #02286c;
      }

      .cls-206 {
        fill: #a0852b;
      }

      .cls-207 {
        fill: #febf00;
      }

      .cls-208 {
        fill: #807636;
      }

      .cls-209 {
        fill: #686940;
      }

      .cls-210 {
        fill: #edb506;
      }

      .cls-211 {
        fill: #edb507;
      }

      .cls-212 {
        fill: #ecede9;
      }

      .cls-213 {
        fill: #f2b805;
      }

      .cls-214 {
        fill: #f2b905;
      }

      .cls-215 {
        fill: #eeb606;
      }

      .cls-216 {
        fill: #e3e8ef;
      }

      .cls-217 {
        fill: #f0b805;
      }

      .cls-218 {
        fill: #ee1b26;
      }

      .cls-219 {
        fill: #fdbe01;
      }

      .cls-220 {
        fill: #fdbf00;
      }

      .cls-221 {
        fill: #fcbe01;
      }

      .cls-222 {
        fill: #fcbe02;
      }

      .cls-223 {
        fill: #fefefe;
      }

      .cls-224 {
        fill: #fefefd;
      }

      .cls-225 {
        fill: #efb706;
      }

      .cls-226 {
        fill: #ebeff3;
      }

      .cls-227 {
        fill: #fbbe01;
      }

      .cls-228 {
        fill: #e8b209;
      }

      .cls-229 {
        fill: #e9ecf0;
      }

      .cls-230 {
        fill: #052a6c;
      }

      .cls-231 {
        fill: #052b69;
      }

      .cls-232 {
        fill: #04296c;
      }

      .cls-233 {
        fill: #04286b;
      }

      .cls-234 {
        fill: #042b6b;
      }

      .cls-235 {
        fill: #676940;
      }

      .cls-236 {
        fill: #676641;
      }

      .cls-237 {
        fill: #00276d;
      }

      .cls-238 {
        fill: #00276e;
      }

      .cls-239 {
        fill: #008c3d;
      }
    </style>
  </defs>
  <g id="Ebene_1" data-name="Ebene 1">
    <g>
      <path class="cls-207" d="m287.21,110.99c0,22.94-.35,45.89.09,68.82.6,31.29-7.45,60.21-23.22,86.96-25.75,43.68-62.97,73.31-111.03,89.47-6.31,2.12-12.25,2.26-18.51.03C67.39,332.34,22.45,287.47,3.92,217.77.7,205.67.03,193.2.03,180.7.04,130.71.09,80.71,0,30.71c-.02-11.08-.02-9,8.59-11.54C37.24,10.76,66.52,5.6,96.21,2.5c26.98-2.82,54-3.28,81.03-1.25,36.01,2.71,71.45,8.74,106.09,19.16,3.18.96,3.94,2.66,3.93,5.68-.08,28.3-.05,56.6-.05,84.9Z"/>
      <path class="cls-238" d="m70.04,317.7c-23.59-19.44-41.63-43.12-53.94-71.09-9.21-20.93-13.53-42.87-13.48-65.76.12-50.98.08-101.97-.06-152.95,0-3.44,1.12-4.66,4.23-5.57C34.87,14.13,63.47,8.75,92.51,5.58c25.08-2.74,50.21-3.62,75.41-2.19,38.58,2.19,76.5,8.27,113.6,19.26,2.47.73,3.27,1.77,3.27,4.36-.08,52.23-.02,104.46-.09,156.69-.05,35.35-11.71,66.92-31.81,95.61-10.05,14.35-21.63,27.35-35.44,38.25-2.37-4.49-1.19-9.18-.79-13.82.85-1.86,2.37-3.18,3.79-4.58,17.08-16.79,30.78-35.94,40.25-58,6.85-15.94,11.13-32.51,11.69-49.94,1.65-51.34.28-102.7.71-154.05.03-4.22-.47-4.73-4.71-5.85-25.96-6.88-52.33-11.41-79.03-14.29-21.75-2.35-43.57-2.77-65.33-1.89-35.46,1.43-70.4,6.96-104.76,16.03-3.25.86-4.39,2.51-4.39,5.78.06,51.99-.33,103.98.24,155.96.2,18.35,5.87,35.82,13.56,52.53,9.51,20.65,22.93,38.47,38.93,54.47,1.06,1.06,2.14,2.1,3.07,3.28,1.96,4.25,1.15,8.67.79,13.05-.06.72-.51,1.4-1.42,1.46Z"/>
      <path class="cls-218" d="m217.48,303.38c0,4.72-.02,9.45-.03,14.17-10.02,9.02-21.36,16.09-33.15,22.49-5.22,2.84-10.46,5.69-16.18,7.49-1.28-.94-1.27-2.37-1.28-3.71-.03-5.08-.21-10.17.1-15.24.24-2.08,1.59-3.26,3.34-4.14,15.97-8.02,30.53-18.04,43.53-30.32,1.14-1.08,2.56-2.86,4.22-.41.58,3.27.89,6.52-.56,9.66Z"/>
      <path class="cls-239" d="m70.04,317.7c1.01-4.71.93-9.43-.03-14.13-.58-3.3-.65-6.6.02-9.89,2.29-2.3,3.65.19,4.85,1.27,3.42,3.05,6.74,6.21,10.32,9.08,9.72,7.77,20.26,14.25,31.19,20.14,1.82.98,3.96,1.72,4.12,4.32-.1,4.86-.05,9.71-.09,14.56-.01,1.59.21,3.26-.89,4.66-13.38-5-25.52-12.29-37.2-20.38-4.28-2.96-8.65-5.84-12.3-9.62Z"/>
      <path class="cls-224" d="m119.55,347.7c.39-6.8-.39-13.62.41-20.41,1.72-.68,3.18.2,4.59.9,4.57,2.28,9.44,3.8,14.16,5.71,3.13,1.26,6.21,1.35,9.43.19,4.68-1.68,9.26-3.59,13.86-5.47,1.87-.77,3.66-2.27,5.95-1.42.06,6.78.13,13.56.19,20.34-7.39,3.61-15.14,6.19-23.16,7.94-1.04.23-2.24.07-3.3-.17-7.65-1.72-15.01-4.3-22.11-7.62Z"/>
      <path class="cls-223" d="m70.55,292.55c-.46,3.66.52,7.39-.54,11.01-24.17-22.75-42.08-49.44-51.16-81.62-3.47-12.29-5.26-24.83-5.25-37.64.04-49.61.04-99.22-.05-148.83,0-2.88.8-4.1,3.61-4.85,32.37-8.63,65.26-14.05,98.69-16.11,51.84-3.2,102.74,2.63,152.94,15.66,4.24,1.1,5.27,2.82,5.26,7.03-.16,47.37-.22,94.73-.05,142.1.18,50.08-20.96,90.33-56.52,124.08-.11-3.54-.22-7.08-.34-10.62,1.1-3.78,4.28-6.03,6.68-8.78,21.63-24.7,36.18-52.68,40.07-85.63.58-4.92,1.09-9.88,1.07-14.89-.08-22.3-.02-44.6-.06-66.91,0-1.81.51-3.75-.76-5.41-5.65-2.52-11.76-3.29-17.7-4.61-21.44-4.76-43.11-8.09-65-9.92-17.14-1.43-34.33-2.24-51.52-1.53-34.57,1.43-68.72,6.16-102.35,14.43-3.21.79-4.51,2.24-4.5,5.62.1,26.43-.28,52.86.2,79.28.24,13.03,3.91,25.6,8.58,37.76,7.96,20.75,19.63,39.15,35.09,55.14,1.21,1.25,2.46,2.48,3.41,3.96.21.4.27.82.2,1.26Z"/>
      <path class="cls-207" d="m70.55,292.55h0c1.73-4.2,5.44-6.7,8.57-9.6,6.37-5.91,12.89-11.67,19.05-17.81,3-2.99,6.37-5.55,9.41-8.49,2.59-2.51,4.32-1.87,5.08,1.71,1.48,6.96,2.06,14.03,1.58,21.12-.19,2.88,1.36,5.89-.53,8.65-5.98,1.88-7.59,3.82-7.63,9.18.02.36.02.73.01,1.09.1,1.6-.43,3.3.83,4.69,1.07,1.26,2.57,1.34,4.05,1.6,9.38,1.62,18.8,2.03,28.21.58,3.64-.56,6.87.27,10.16,1.55,2.89,1.12,5.69,2.45,8.81,2.99,6.94,1.19,12.24-5.04,8.42-11.02-.12-.37-.2-.75-.25-1.14,0-1.92-.63-3.71-1.22-5.51-.35-1.36-.09-2.68.29-3.99.19-1.15.57-2.25.9-3.36,3.83-6.46,5.96-13.61,8.42-20.64,1.78-5.09,5.02-9.44,7.96-13.87,6.43-9.69,9.04-20.04,6.85-31.53-.19-.97-.11-1.98-.12-2.98.04-1.59-.07-3.19.18-4.78.16-.79.48-1.51.86-2.21.73-1.02,1.04-2.62,2.88-2.18,1.21.9.82,2.62,1.83,3.63.48.85.97,1.7,1.61,2.45.92,1.56,1.9,3.1,2.22,4.93-.02,1.52,1.44,1.95,2.16,2.91.36.34.71.7,1.06,1.05,1.05,1.12,2.27,1.98,3.77,2.4,1.57.56,3.17.9,4.82.42.29-.1.59-.18.88-.27.75-.21,1.28-.72,1.75-1.32.96-1.11,2-2.14,3.11-3.09.76-.66,1.38-1.43,1.66-2.42.37-1.31.19-2.48-.95-3.33-1.12-.83-2.12-.3-3.02.45-1.22,1.03-2.27,2.3-3.9,2.77-3.38.64-4.83-1.69-6.26-4.06-5.01-11.02-6.72-22.87-8.55-34.67-.39-2.53.67-4.53,2.46-6.34,5.68-5.77,11.74-11.13,17.68-16.61,5.2-4.81,10.43-9.62,15.55-14.5,9.46-9.01,19.33-17.58,28.58-26.81,1.55-1.54,3.19-3.16,5.47-3.75,1.04,1.19.55,2.63.55,3.94.03,22.07-.15,44.13.07,66.2.29,29.71-8.37,56.68-24.21,81.57-7.06,11.09-15.44,21.11-24.51,30.57-5.31,4.46-10.49,9.07-15.94,13.36-9.39,7.39-19.54,13.63-30.19,19.03-1.09.55-2.05,1.35-3.07,2.04-6.77,2.75-13.41,5.83-20.38,8.09-2.58.84-4.98.92-7.59.04-6.83-2.3-13.44-5.12-20.01-8.04-5.9-3.39-11.85-6.7-17.7-10.19-11.56-6.89-21.82-15.49-31.7-24.55Z"/>
      <path class="cls-161" d="m155.24,339.34c.48-1.95,1.79-3.02,3.73-2.91,2.11.12,2.32,1.79,2.42,3.5.03.56.51,1.09.78,1.63.72,1.47,1.5,3.04-.01,4.4-1.43,1.28-3.09,1.46-4.7.14-1.67-1.16-1.38-3.15-2.05-4.74-.24-.66-.6-1.3-.17-2.01Z"/>
      <path class="cls-101" d="m156.11,347.61c-2.02,1.44-4.06,3.04-5.34-.76,1.24-1.18-.62-1.03-.7-1.65-.58-1.89-2.3-3.82-.32-5.72,1.38-1.32,3.1-1.26,4.71-.14.68.94.95,2.07,1.5,3.08.58,1.71.83,3.44.14,5.18Z"/>
      <path class="cls-118" d="m130.76,345.36c-1.17,2.43-2.87,2.23-4.81.99-.59-.38-1.02-1.33-.73-1.47,2.54-1.24.12-3.4,1.01-4.91.65-1.1.5-2.87,2.25-3.01,1.74-.14,3.31.34,4.11,2.13.77,2.5.04,4.55-1.84,6.27Z"/>
      <path class="cls-77" d="m133.59,338.61c5.26.52,5.49.92,3.05,5.46-.65,1.21-1.33,2.4-1.98,3.6-.46.85-1,1.38-2.08.87-1.25-.59-.48-1.45-.39-2.23,1.02-2.47,1.39-5.05,1.4-7.7Z"/>
      <path class="cls-216" d="m133.59,338.61c2,3.02.73,5.44-1.4,7.7-.28-.61-.77-.9-1.42-.95.61-2.09,1.23-4.18,1.84-6.27.33-.16.66-.32.98-.47Z"/>
      <path class="cls-183" d="m156.11,347.61c.25-1.85-.09-3.6-.88-5.28.04-.6.18-1.15.75-1.49,1.44,1.48.62,3.6,1.48,5.24-.45.51-.9,1.01-1.35,1.52Z"/>
      <path class="cls-71" d="m143.66,346.29c-.75-.1-1.69-.03-1.55-1.08.12-.93,1.03-.85,1.73-.83.71.02,1.63.01,1.5,1.04-.11.94-1.03.78-1.68.86Z"/>
      <path class="cls-196" d="m150.07,345.21c1.23.16,2.45.32,4.07.52-1.08,1.54-2.48.53-3.37,1.13-.23-.55-.47-1.1-.7-1.65Z"/>
      <path class="cls-176" d="m155.98,340.85c-.25.5-.5.99-.75,1.49-1.11-.78-.19-2.07-.77-2.99.26,0,.51,0,.77-.01.25.5.49,1.01.74,1.51Z"/>
      <path class="cls-238" d="m265.25,110.49c-21.58,20.17-43.07,40.43-64.82,60.41-3.55,3.26-4.33,6.41-3.56,10.85,1.85,10.56,3.8,21.07,7.77,31.09.36.67-.05.93-.59,1.13-2.45-1.3-5.1-.76-7.69-.82-1.19-.29-1.55-1.19-1.65-2.27-.27-.57-.03-1.03.32-1.47,4.46-2.73,3.34-6.69,2.27-10.3-.11,2.39-2.33,3.95-3.52,6.09-.62.58-1.28.73-2,.18-1.22-2.73.52-5.13.84-7.68.22-.81.51-1.61.59-2.46.04-.5.03.14.04-.36,0-.34-.11-.35-.24,0-1.54,4.25-3.09,8.45-4.56,12.68-.96,2.78-2.15,5.65-5.56,6.45-.62-.13-.99-.51-1.15-1.11-.12-2.23.99-4.08,1.97-5.93,1.91-3.6,3.01-7.37,2.7-11.45-.38-5.05.97-9.55,3.75-13.75,1.37-2.07,2.46-4.32,3.29-6.68.32-.92.79-2.14-.22-2.73-.81-.48-1.38.85-2.21,1.07-1.25-.23-1.35-1.26-1.54-2.22,0-3.85,1.1-7.63.67-11.5-.65-5.88-1.7-11.44-6.91-15.46-3.96-3.06-4.14-6.38-1.51-10.8.38-.64.77-1.28,1.05-1.97,1.08-2.77,1.79-5.63-.59-8.02-2.35-2.35-5.25-1.84-8.03-.77-2.79,1.07-5.28,2.77-8.01,3.97-.56.14-1.12.13-1.67,0-2.42-1.78-5.21-2.92-7.73-4.51-.21-.27-.34-.58-.42-.91,0-1.08-.6-1.74-1.53-2.18-3.18-1.73-5.82-4.64-9.87-4.4-.89-.06-1.47-1.1-2.48-.79-1.19.47-2.35,1.02-3.68.94-2.23-.68-4.23-.17-6.04,1.23-5.67,1.37-10.37,4.64-15.14,7.77-.66.34-1.34.58-2.09.59-1.43-.1-2.53-.98-3.73-1.63-2.66-1.43-5.26-2.37-7.81.31-2.59,2.73-3.12,5.97-1.37,9.23.75,1.39,2.12,2.52,1.91,4.33-.22.3-.49.55-.79.77-4.1,2.93-6.52,7.11-8.48,11.58-3.5,7.96-3.91,16.37-3.23,24.88.33,4.07,2.7,6.82,6.25,8.63,1.15.68,2.04,1.54,2.06,2.99-.06.51-.25.97-.45,1.44-.55,1.53.35,2.78.79,4.13,1.91,5.9,4.02,11.74,5.7,17.71.63,2.25,1.69,4.09,3.97,5.07,1.25.54,2.49,1.22,2.6,2.86-.11.62-.49,1.02-1.04,1.29-6.72,1.09-8.54.02-11.05-6.28-2.49-6.23-3.31-12.91-5.24-19.7-.19,6.53.8,12.5,2.23,18.4,2.46,10.17,8.19,17.96,17.3,23.2.54.31,1.06.65,1.39,1.2.34,1.24-.44,1.71-1.41,2.02-.68.22-1.04.51-.4,1.19,2.26,1.86,2.72,4.34,2.71,7.07-.03,8.11.01,16.21-.02,24.32-.01,3.5.2,6.96.59,10.44.26,2.37.78,4.31,2.95,5.67.87.54,2.44,1.48.54,2.79-1.52.66-3.2.23-4.75.74-.76.19-1.54.27-2.32.16-.38-.07-.74-.22-1.05-.45-.3-.32-.32-.66-.05-1.01-.09-10.72.65-21.51-2.59-32.88-13.63,12.79-26.9,25.25-40.18,37.72-13.97-13.27-24.96-28.74-33.58-45.91-10.16-20.26-15.5-41.66-15.32-64.44.18-22.68.11-45.36-.03-68.04-.02-3.39,1.15-4.56,4.4-5.35,32.65-7.99,65.69-13.05,99.3-14.45,46.67-1.95,92.5,3.57,137.69,15.04.8.2,1.8.11,2.23,1.1Z"/>
      <path class="cls-238" d="m265.84,69.53c0,9.47-.1,18.95.06,28.42.05,3.02-.51,3.77-3.72,2.97-42.54-10.57-85.7-16-129.58-14.88-35.63.91-70.74,5.84-105.35,14.36-5.55,1.36-5.54,1.4-5.54-4.29,0-18.07.08-36.15-.07-54.22-.03-3.22.99-4.42,4.13-5.19,37.05-9.13,74.57-14.46,112.77-14.91,41.88-.49,83,4.96,123.59,15.02,3.13.78,3.85,2.1,3.79,5.06-.17,9.22-.06,18.45-.06,27.67Z"/>
      <path class="cls-207" d="m114.25,288.63c.69-.08,1.38-.16,2.07-.24,1.47-.72,3.15.16,4.62-.59.39-.17,2.14-.15.42-.79-4.03-1.49-4.31-4.56-4.63-8.16-.99-11.17-.45-22.34-.32-33.51.04-3.4-.51-6.1-3.65-7.81-.52-1.34.6-.98,1.16-1.04,6.88-.67,11.59,2.57,14.87,8.33-2.31-4.1-5.12-7.59-10.18-8.38-.85-.13-1.72-.38-2.23-1.2-12.94-6.57-18.96-17.74-20.95-31.58-.67-4.65-1.05-9.3-.64-14.45,1.65,1.06,1.82,2.41,2.14,3.67,1.54,6.03,2.83,12.14,4.7,18.06,2.1,6.63,3.1,7.05,10.05,6.51,1.32.19,2.54.58,3.43,1.66.57.56,1.14,1.14,1.68,1.74.8.99,1.47,2.09,2.33,3.05.7.89,1.09,1.98,1.87,2.81.21.25.38.52.55.8.56,1.17,1.27,2.25,2.05,3.28,1.18,1.88,2.81,3.36,4.48,4.78,1.52,1.2,3.25,2.09,4.89,3.13,1.36,1.04,2.04,2.52,2.47,4.09,1.53,5.61,4.58,10.8,4.59,16.82-.89,1.48-2.23,1.16-3.58.82.7.25,1.38.42,1.99.78,2.04,1.85,4.55,3.41,4.03,6.44,2.04-5.65,3.43-12.11,10.12-15.07,1.58-.05,3.04-.41,4.21-1.57,2.59-.47,3.53-2.85,5.16-4.44,1.34-1.59,2.69-3.16,4.11-4.67,1.62.25,3.25.14,4.88.17,1.06,0,2.13-.04,3.14.35.6.06,1.15.43,1.75.33-.73-.07-1.37-.36-2.06-.47-2.52-.52-5.09.04-7.61-.4-1.57,1.44-2.9,3.11-4.26,4.74-1.68,1.89-3.19,3.97-5.71,4.87-3.8,1.44-4.07,1.31-4.83-2.32.53-3.18,2.65-5.01,5.38-6.32,1.66-.33,3.17-.91,4.06-2.5.51-.67,1.11-1.25,1.78-1.76,1.64-1.02,2.49-2.64,3.24-4.34.47-.98,1.15-1.77,2.01-2.42,3.18-1.92,6.21-4.11,9.69-5.51,1.36-.43,2.7-.92,4.06-1.34,1.35-.43,2.9-.1,4.1-1.1,1.05-.54,1.97-1.96,3.27-1.06,1.14.78.9,2.24.82,3.47-.66,10.18-3.61,19.53-10.01,27.65-2.64,3.36-4.49,7.09-5.7,11.24-1.84,6.32-3.93,12.59-7.06,18.43-.54.98-.6,2.09-.94,3.13-.32,1.86-1.47,3.62-.64,5.61.97,1.71.76,3.81,1.82,5.49v.05c.12,4.12-.22,8.08-3.88,10.85-1.11.55-2.11.54-2.57-.82-.33-1.01-.85-.37-1.33-.25-1.3.06-2.57.1-1.74-1.84.58-1,1.12-2.03,1.65-3.06.27-.58.5-1.18.77-1.73.2-.42.03.3.08-.2.03-.27-.03-.31-.06-.08-.33.68-.58,1.35-.92,1.99-.42.97-.95,1.88-1.47,2.79-2.08,3.02-2.69,3.01-5.27-.08-.2-.57-.21-1.15-.16-1.76.03-.51.57-.72.59-1.2-.41.26-.68.67-1.09.93-2.61,1.39-5.17.99-7.71-.2-2.04-1.46-1.18-2.84.12-4.21.93-1.06,1.39-2.45,2.42-3.44.98-1.34,2.36-2.32,3.75-4.22-1.8,1.42-2.78,2.63-3.68,3.93-1,.94-1.42,2.28-2.3,3.31-.78.9-1.31,1.99-2.18,2.82-3.33.1-3.74-3.73-6.74-4.85.87,1.11,1.18,2.08,1.38,3.07.33,1.69.99,3.65-1.37,4.33-2.04.59-3.67-.12-4.18-2.45-.02-.48-.06-.97.2-1.81-.4,1.13-.17,2-.61,2.73-1.22,1.31-2.46,2.59-4.49,1.5-.72-1.76-.24-3.62-.39-5.36-.02,1.17,0,2.27-.02,3.38-.19,3.98-3.11,3.08-5.51,3.1-1.05-.18-2.01-.57-2.87-1.2-1.52-1.42-.74-3.28-.94-4.94.29-1.04.22-2.18.85-3.1-.75.41-.35,1.27-.64,1.87-.85,1.92.77,4.35-1.26,6.02-.57.21-1.13.19-1.67-.11-1.06-1.25-.86-2.77-.88-4.19-.91,4.86-1.73,5.29-5.46,2.9-.49-1.03-.59-2.24-1.33-3.17-.27-.65-.22-1.53-1.21-1.65-.05-6.28,2.56-9.38,8.21-9.77.02.25.03.5.05.75.09.2-.53.42-.05.52.24.05.59-.28.92-.35Z"/>
      <path class="cls-220" d="m167.91,232.51c-.5.75-1.01,1.49-1.51,2.24-1.38,1.4-2.41,3.09-3.72,4.55-.41.41-.81.82-1.22,1.23-1.1.72-1.89,2-3.44,1.89-1.96-.94-1.18-3.05-1.94-4.5-2.32-4.21-1.37-7.71,2.03-10.98,3.71-3.57,4.74-8.63,6.68-13.16,1.54-3.59,2.54-7.23,6.6-9.38,2.57-1.36,4.39-4.39,5.75-7.16,1.67-3.37,3.94-6.29,6.06-9.33,3.05-3.01,4.65-6.82,6.06-10.76.49-1.37.71-2.87,1.81-3.96.44-1.39.63-3.26,2.72-2.77,2.02.47.9,2.25.88,3.41-.05,3.42-2.36,5.94-3.92,8.71-2.04,3.65-3.52,7.31-3.15,11.61.58,6.9-2.89,12.67-5.44,18.69-.27,1.74-1.49,2.7-2.88,3.51-5.87,2.49-11.25,5.7-15.24,10.23,4.42-3.97,9.58-7.57,15.39-10.23,1.37-.67,2.14-2.17,3.66-2.62,2.65-2.24,4.24-5.07,5.16-8.41,1.13-4.06,2.66-8,4.5-11.81,1.83.92.89,2.4.74,3.71-.52,2.72-1.04,5.45-1.56,8.17,0,.16.01.31.02.47-.26,1.2-.95,2.31-.77,3.6-.24.36-.49.71-.73,1.07-.98,1.67-.72,3.52-.8,5.32-.74,3.94-2.94,6.79-6.44,8.68-1.03.29-2.1.44-3.05.96-1.31.4-2.64.76-3.87,1.38-3.13,1.36-6.01,3.08-8.36,5.6Z"/>
      <path class="cls-205" d="m158.26,305.71c-.56,1.55.25,1.72,1.48,1.46,1.6-.76.85,3.27,2.96,1.45,2.33-2.37,3.58-5.2,3.65-8.54.02-.84-.11-1.75.9-2.19,2.66,3.75,2.68,7.52-.67,10.69-3.16,2.98-7.38,3.59-11.11,1.7-7.77-3.93-15.72-4.69-24.17-3.3-7.73,1.27-15.32-.97-22.98-1.47-1.22-.08-2.06-.78-2.59-1.86-.19-.53-.26-1.06-.15-1.61.78-1.27,1.62-1.43,2.53-.13.95,1.03,2.27.66,3.45,1.15.42-2.16.14-4.2.98-6.07.27-.59.38-1.23,1.21-.87.64.28.23.84.23,1.29-.4,2.01-.59,4.02.12,6,.48-.02.95-.03,1.43-.05.78-.5,1.59-.4,2.42-.13.71.32,1.41.64,2.12.96,2.32.93,4.6.08,6.89-.14,1.33-.49,2.72-.87,3.59-2.13.41-.38.6-1.24,1.45-.68.4,2.41,2.61,2.92,3.81,1.93,1.69-1.4.25-3.66-.41-5.38-.33-.86-1.57-1.38-2.87-2.44,2.9-.39,4.76.14,6.1,2.26.92,1.47,1.94,2.87,3.79,3.3.59.59.82,1.61,1.89,1.66,2.66.55,5.31,1.3,7.96-.04.68.69.04,1.74.66,2.45,1.56,2.4,3.12,3.09,4.68,0,.63-.13,1.04-.06.66.73Z"/>
      <path class="cls-120" d="m182.89,224.06c3.14-1.89,4.85-4.85,6.12-8.14.43-.48.87-.48,1.31,0,.79,5.06.67,10.15.61,15.24-.04,3.63-.68,7.17-2.37,10.43-1.25,2.42-2.4,4.93-3.92,7.19-5.64,8.39-10.07,17.3-12.89,27.07-.97,3.36-3.02,6.42-4.58,9.61-1.42.04-1.09-.79-.78-1.6-.13-3.31,2.53-5.55,3.3-8.5,2.76-10.56,7.44-20.12,13.71-29.1,4.71-6.74,4.86-14.94,5.43-22.86-1.74-.54-1.84,1.36-2.95,1.45-1.15.32-2.47,1.29-2.99-.78Z"/>
      <path class="cls-92" d="m210.61,216.64c.77-.78,1.54-1.57,2.32-2.34,1.34-1.31,2.73-2.72,4.76-1.42,2.2,1.4,1.8,3.45,1.21,5.57-.41,1.48-1.72,1.94-2.67,2.81-1.56-1.18-3.12-2.94-4.75-.08-1.96.04-2.13-1.57-2.64-2.86-.15-1.33,1.18-1.12,1.77-1.68Z"/>
      <path class="cls-215" d="m196.38,213.15c2.56-.66,5.21-2.59,7.53.47,1.96,2.69,1.41,4.29-2.26,6.56-1.63-.06-2.64-.87-3.02-2.46-1.07-1.37-1.89-2.86-2.25-4.58Z"/>
      <path class="cls-163" d="m201.63,219.74c1.48-1.77,3.72-3.26,2.28-6.12.25-.26.49-.53.74-.79,1.68,1.74,2.56,4.75,5.95,3.8-.5.45-.99.89-1.49,1.34-2.51.94-4.24,3.14-6.69,4.2-.35.03-.67-.04-.99-.18-.23-.22-.46-.44-.69-.66-.44-.93.24-1.24.87-1.58Z"/>
      <path class="cls-228" d="m211.37,221.19c.45-1.09-.68-3.2,1.33-3.17,1.68.03,3.52.88,3.53,3.23-.88.71-1.76,1.42-2.64,2.12-1.39.86-2.35.63-2.72-1.08.03-.43.2-.8.5-1.1Z"/>
      <path class="cls-83" d="m191.91,205.42c.69-.03,1.27-.26,1.61-.91,2.17,1.13,2.07,3.26,2.31,5.23-.37.38-.74.76-1.11,1.14-2.33-.64-.81-2.63-1.37-3.89-.33-.75-1.98-.22-1.6-1.65l.15.08Z"/>
      <path class="cls-51" d="m167.24,297.85c-2.13-1.33-1.53-3.76-2.26-5.65.29-.44.61-.46.95-.05.97,1.78,1.28,3.71,1.3,5.7Z"/>
      <path class="cls-125" d="m190.32,215.92c-.44,0-.87,0-1.31,0-.09-1.94-.59-3.98,1.41-5.37-.04,1.79-.07,3.57-.11,5.36Z"/>
      <path class="cls-130" d="m211.41,224.89c-2.03,1.19-4.02.68-6.01-.14-.25-.38-.19-.71.18-.98,1.09-.61,2.23-.53,3.39-.27.91.29,1.84.54,2.43,1.39Z"/>
      <path class="cls-99" d="m165.93,292.15c-.32.02-.64.04-.95.05-.89-1.95-.13-3.72.59-5.5.75.36.34,1.22.75,1.72-.13,1.24-.26,2.48-.39,3.72Z"/>
      <path class="cls-5" d="m191.76,205.34c.53.55,1.07,1.1,1.6,1.65-1.94-.23-1.11,1.98-2.2,2.5-1.45-1.62.11-2.81.6-4.15Z"/>
      <path class="cls-65" d="m201.63,219.74c-.29.53-.58,1.06-.87,1.58-.92-1.08-3.02-1.46-2.13-3.6,1.05.6,1.46,2.15,3,2.02Z"/>
      <path class="cls-122" d="m205.41,223.82c0,.31-.01.62-.02.93-1.61-.49-2.97-1.35-3.95-2.76.39-.05.79-.1,1.18-.15,1.42-.02,2.41.54,2.79,1.98Z"/>
      <path class="cls-208" d="m211.4,221.68c-.15,1.72,1.03,1.7,2.2,1.69-.17.83-.37,1.62-1.5,1.49-.69-.54-1.93-.44-2-1.7.06-.82.23-1.54,1.29-1.47Z"/>
      <path class="cls-31" d="m105.9,301.72c-.06.64-.12,1.28-.18,1.93-1.43-1.69-.83-3.55-.46-5.4.76-.18.88.38,1.04.9.42.95.18,1.79-.41,2.57Z"/>
      <path class="cls-19" d="m105.88,298.98c-.2-.24-.41-.48-.61-.72-.05-.26-.1-.51-.14-.77.7-.38.85-2.03,1.72-1.43,1.11.76-.52,1.84-.33,2.87-.19.26-.4.28-.63.05Z"/>
      <path class="cls-41" d="m166.32,288.42c-.25-.57-.5-1.15-.75-1.72.05-1.01.06-2.04.83-2.85.26.53.52,1.07.78,1.6-.29.99-.57,1.98-.86,2.97Z"/>
      <path class="cls-160" d="m210.52,222.82c-.05,1.12,1.23,1.22,1.57,2.04l-.34.07-.35-.05c-.86-.09-1.82.1-2.34-.89,0-.99.65-1.18,1.46-1.18Z"/>
      <path class="cls-190" d="m153.08,342.73c-.15.41,0,1.17-.76.87-.35-.14-.62-.69-.75-1.1-.15-.5.11-1.03.67-1.06.95-.05.62.82.84,1.3Z"/>
      <path class="cls-167" d="m130.3,338.35c-.29,1.68-.15,2.73-1.6,3.28-.58-1.5.34-2.06,1.6-3.28Z"/>
      <path class="cls-207" d="m104.54,136.58c-.88-1.18-1.83-2.33-2.64-3.56-2.37-3.62-1.76-7.05,1.45-10.72,2.84-3.25,5.69-1.98,8.64-.44,1.2.63,2.33,1.37,3.5,2.06,1.24.36,2.27,1.14,3.43,1.66.44.25.82.57,1.15.95,1.09,1.35,2.38,2.5,3.55,3.77,1.14,1.23,2.4,1.63,3.98,1.01,2.08-.38,4.25.02,6.28-.75,4.34-.2,8.66-.8,13.02-.29,1.87.22,3.72-.07,5.53-.54.95-.11,1.9-.09,2.84.1,1.42.46,2.83.74,4.12-.34.55-.33,1.1-.64,1.63-1,1.37-1.12,3.01-1.74,4.61-2.44,2.62-1.43,5.17-2.99,7.87-4.27,3.35-1.58,6.77-1.95,9.7.91,2.25,2.19,2.25,6.55.19,10.12-3.79,6.58-3.64,6.98,2.34,12.17,4.07,3.54,4.57,8.66,5.31,13.57.62,4.12-.21,8.18-.74,12.25-.33,6.17-2.59,11.61-6.23,16.53-1.47,1.52-2.31,4.05-5.32,3.06-.79-.26-1.19.72-1.51,1.4-.65,1.35-1.23,2.73-2.01,4.01-1.13,1.87-1.92,3.88-5.14,2.88-1.25-.39-.28,4.35-3.57,3.87-1.55-1.47-.8-3.47-1.2-5.17-2.19,1.46-3.87,4.41-4.41,8.2-.4,2.81-.86,5.61-.99,8.47-.17,3.86-1.62,5.59-5.36,6.58-6.04,1.61-12.2,1.94-18.41,1.24-1.67-.46-3.31-1.01-4.78-1.96-.59-1.14-1.64-2.01-1.98-3.29-2.67-4.57-1.87-10.13-4.28-14.78,1.9,4.63,1.58,9.87,4.02,14.36.45,1.48,1.49,2.62,2.32,3.88.9.51,1.82.99,2.76,1.42,5.1,2.85,10.67,4.73,15.77,7.58,3.29,1.84,3.44,2.78.85,5.61-3.81,4.16-4.51,4.24-8.86.83-3.32-2.6-6.51-5.37-9.98-7.78-2.36-1.78-4.59-3.68-6.19-6.22-.54-1-.87-2.11-1.57-3.04-.18-.27-.33-.55-.48-.84-.46-1.03-1.07-1.96-1.73-2.87-.18-.26-.34-.54-.48-.83-.5-1.18-1.24-2.21-1.97-3.26-.53-1-1.16-1.92-1.94-2.75-.2-.26-.35-.55-.48-.85-.37-1.07-.81-2.11-1.5-3.02-.6-.3-.52-2.97-1.91-.51-.34.6-.98.53-1.53.1-1.06-1.13-1.49-2.65-2.42-3.86-.31-.42-.57-.87-.76-1.35-.4-1.33-.7-2.68-1.18-3.99-.39-1.15-.63-2.33-.65-3.54-.09-.35.12-.8-.29-1.04-.07-.04-.27.27-.34.5-.62,1.45-1.56,2.19-3.17,1.53-.83-.38-1.43-1-1.84-1.8-.43-1.41-1.75-2.5-1.53-4.16-.53-1.07-1.07-2.14-1.6-3.21-.28-.18-.51-.4-.7-.67-.47-.86-.84-1.77-1.39-2.59-.36-.59-.62-1.22-.68-1.92-.18-1.95-.53-3.87-1.06-5.76-.3-2.34-.34-4.68.02-7.02.29-1.1.58-2.19.84-3.3.51-1.52.74-3.14,1.46-4.6.51-1.06.89-2.18,1.24-3.3.15-.47.34-.92.61-1.33.73-.82,1.52-1.6,2.11-2.55.66-.99,1.36-1.95,1.83-3.04.17-.45.38-.88.67-1.26.77-.73,1.65-1.37,1.99-2.45.38-1.13.48-2.25-.12-3.33-.17-.26-.32-.54-.44-.82-.2-.72-.38-1.45-.25-2.21Z"/>
      <path class="cls-221" d="m122.37,213.82l-.06.16c.15,1.51.96,2.58,2.22,3.36.01.2.02.41.02.61.42,1.15,1.01,2.21,1.67,3.23,1.94,1.99,3.88,3.98,5.83,5.98.6.61,1.21,1.21,1.82,1.81,4.64,4.51,4.56,5.28-.98,9.17-2.01.15-3.15-1.49-4.71-2.29-1.67-1.68-3.64-3.09-4.78-5.25-.8-1-1.47-2.11-2.61-2.79.01-.18.03-.37.05-.55-.95-.96-.85-2.48-1.81-3.43-.96-.87-1.29-2.21-2.28-3.06-.66-.67-1.36-1.29-2.15-1.81-.51-.96-1.57-1.51-1.91-2.6-5.58-1.7-7.22-6.26-8.51-11.28-1.25-4.87-2.94-9.62-4.43-14.42-.33-.79-.42-1.5.56-1.91.87.03,1.41.54,1.83,1.23.52.43,1.04.86,1.56,1.3.2.59.45,1.39,1.15,1.17,2.39-.76,3.02.73,3.5,2.51.71,1.15.66,2.55,1.24,3.74.25.18.49.37.74.55.23,1.66,1.04,3.09,1.81,4.52.83,1.78,2.22.05,3.26.51,1.15.41,1.36,1.74,2.28,2.38.05.36.1.72.15,1.08.75.84,1.47,1.7,1.85,2.78.84,1.15,1.42,2.5,2.68,3.31Z"/>
      <path class="cls-227" d="m96.12,178.01c.25.29.5.58.75.86.03,1.41.77,2.51,1.56,3.59,0,0,0,.26,0,.26-1.91.39-5.78-2.41-6.67-4.82-4.16-11.27,1.17-32.55,10.16-40.49.43-.38,1.07-.5,1.61-.75,1.15.28,1.2,1.36,1.59,2.19l-.03-.06c1.05,1.22.82,2.61.53,4.01-.39,1.15-1.03,2.13-2.03,2.84.02.33.04.67.06,1-.74,1.08-2.02,1.7-2.53,2.97-.67.93-1.27,1.93-2.03,2.8.03.33.05.66.08.99-1.01.95-1.47,2.22-2,3.45-.47,1.15-.95,2.29-1.11,3.53-.46,1.45-.78,2.93-1.06,4.42,0,2.43-.01,4.85,0,7.28.39,1.97.98,3.91,1.12,5.93Z"/>
      <path class="cls-1" d="m119.27,126.67c-.19-.18-.37-.35-.56-.53-.81-.82-2.71-1.09-1.45-2.93,3.55-2.87,7.44-5.15,11.62-6.97,1.29-.56,2.55-.77,3.91-.64,0,0,.21.28.21.27,1.01.15,1.58-.79,2.44-.99,1.02-.69,2.22-.43,3.33-.62,1.25-.52,2.5-1.05,3.74-1.57,1.9,1.84,1.88,2.49-.1,4.85-1.68.58-3.64.31-5.46,1.77-.09.05.72.34.37-.02-.16-.17-.15-.3.04-.36,1.49-.52,2.93-1.43,4.59-.59,1.91,3.18,1.74,3.87-1.55,6.23-.7.28-1.43.44-2.19.46-1.83-.21-3.66-.5-5.49-.02-.31.11-.63.2-.95.29-1.26.33-2.47.79-3.57,1.5-.91.65-1.54,1.61-2.43,2.29-.64.53-1.23,1.16-2.15,1.17-1.8-.77-2.79-2.53-4.37-3.58Z"/>
      <path class="cls-127" d="m139.39,123.83c3.03-.69,4.11-2.27,2.35-5.15-.41-.52-.41-1.03.03-1.54,1.58-1.27,2.22-2.69.76-4.48,2.06-1.51,1.12,1.67,2.33,1.49,1.39,1.69,3.23,2.59,5.3,3.16,1.39.38,2.99.47,3.77,2.03.04.62-.29,1-.79,1.28-2.08.9-4.27-.77-7.09.26,3.6,2.74,8.14,2.24,10.85,5.26,0,.9-.63,1.19-1.33,1.43-2.62.55-5.05-.55-7.56-.94-.59-.09-1.37-.18-1.5.58-.13.71.64.94,1.16,1.23,1.63,1.04,4.34-.68,5.29,2.07-6.34,1.47-12.82.18-19.2.93-1.14.21-2.3.66-3.33-.31.38-1.83,2.07-1.33,3.22-1.75,1.03-.37,2.15-.46,3.23-.69q4.48-.94,2.5-4.88Z"/>
      <path class="cls-214" d="m156.64,126.23c-3.29-.96-6.35-2.57-9.76-3.22-1.41-.27-2.47-1.62-2.09-3.07.4-1.52,1.89-.61,2.86-.52,1.72.15,3.42.55,5.13.84,1.44.06,2.94-.08,3.97,1.26,2.45,1.45,5.68,1.67,7.22,4.57-.54,1.59-1.94,1.83-3.31,2.16-.35,0-.69-.06-1.03-.15-1.14-.4-2.34-.7-2.99-1.86Z"/>
      <path class="cls-225" d="m195.83,209.74c-1.58-1.39-1.26-3.62-2.31-5.23.81-2.55,3.46-4.1,3.57-7.46,3.51,8.64,2.88,9.82-1.26,12.69Z"/>
      <path class="cls-115" d="m116.37,235.25c8.19,1.24,13.92,6.39,14.01,12.78-1.79-1.25-2.59-3.13-3.6-4.73-3.02-4.79-7.75-5.9-12.83-6.44-.54-.06-.96.17-1.2.67-.97-.65-.74-1.13.24-1.39,1.12-.3,2.51.4,3.37-.89Z"/>
      <path class="cls-20" d="m183.6,187.17c3.24-5.05,5.01-10.69,6.69-16.38.27.8-.09,1.8.77,2.4-1.15,5.68-2.79,11.13-7.23,15.25-.48-.35-.56-.78-.24-1.28Z"/>
      <path class="cls-210" d="m153.73,119.39c-2.25-.68-4.48-1.44-6.75-2.02-1.76-.45-2.57-1.36-2.12-3.2,2.76-1.24,4.68.68,6.76,1.86,1.29.73,2.46,1.65,3.69,2.49.27.34.26.68-.02,1.02-.55.29-1.07.31-1.55-.14Z"/>
      <path class="cls-194" d="m138.78,114.24c-.77.97-2.06.8-3.01,1.36-1.04-.7-2,1.14-3.05.1,0,0,.08-.11.08-.11,1.51-2.59,3.57-2.78,5.99-1.35Z"/>
      <path class="cls-3" d="m160.47,127.69c1.41,0,2.38-.98,3.5-1.6.55-.01,1.1-.03,1.65-.04-1.26,1.32-2.66,2.43-4.38,3.08-.67-.26-1.06-.67-.77-1.44Z"/>
      <path class="cls-56" d="m102.16,189.96c-.53-.37-1.39-.16-1.67-.95-.88-.61-1.39-1.42-1.43-2.5.32-.19.65-.38.97-.57,1.16,1.1,1.98,2.39,2.14,4.02Z"/>
      <path class="cls-26" d="m153.73,119.39c.5.09,1,.18,1.5.28.86-.07,1.79-.25,1.51,1.16.04.23.04.46.02.69-1.41-.16-2.75-.51-3.97-1.26.32-.29.63-.58.95-.87Z"/>
      <path class="cls-233" d="m112.7,216.35c1.08.47,2.23.87,2.19,2.37.19.2.25.39.17.57-.08.18-.15.27-.22.27-1.06-.7-2.11-1.4-3.17-2.1.34-.37.69-.74,1.03-1.11Z"/>
      <path class="cls-200" d="m179,215.77c1.05-.97,2.1-1.94,3.15-2.92.31.3.62.6.93.89-.7,1.34-1.75,2.3-3.11,2.96-.52-.11-.85-.42-.97-.94Z"/>
      <path class="cls-173" d="m99.05,186.51c.79.66,1.38,1.42,1.43,2.5-.24.54-.48,1.09-.72,1.63-.41-1.35-2.22-2.45-.71-4.13Z"/>
      <path class="cls-17" d="m114.25,288.63c-.87,1.19-1.83,2.27-4.11,3.07.98-1.85,2.02-2.61,3.24-3.24.29.05.58.11.87.16Z"/>
      <path class="cls-193" d="m193.47,197.25c-.54-1.18.58-2.69-.74-3.71.23-1.03.9-1.72,1.34-.36.41,1.26.32,2.82-.61,4.08Z"/>
      <path class="cls-45" d="m117.26,123.2c-.15,1.29,1.25,1.81,1.45,2.93-1.54-.06-2.34-1.2-3.23-2.22.59-.24,1.19-.48,1.78-.72Z"/>
      <path class="cls-98" d="m120.94,287.79c-1.46.82-3.04.73-4.62.59,1.42-1.16,3.04-.69,4.62-.59Z"/>
      <path class="cls-195" d="m156.74,120.82c-.5-.39-1.01-.77-1.51-1.16.03-.38.05-.77.07-1.15.76.59,2.96.29,1.43,2.31Z"/>
      <path class="cls-235" d="m105.11,138.86c-.53-.73-1.06-1.46-1.59-2.19.34-.03.68-.06,1.02-.09,1.39.46,1.17,1.32.57,2.28Z"/>
      <path class="cls-207" d="m216.55,45.35c1.65-3.01,1.56-5.64,1.88-8.09.28-2.15,1.13-2.6,3.16-2.34,6.29.81,6.37.75,5.56,6.93-.83,6.28-1.85,12.54-2.68,18.83-.27,2.03-.99,2.65-3.13,2.36-6.81-.95-6.81-.85-8.76-7.53-.45-1.54-.96-3.07-1.56-5.02-1.67,2.7-1.35,5.47-1.75,8-.33,2.13-1.03,2.65-3.11,2.37-6.66-.89-6.63-.81-5.62-7.34.93-6.02,1.88-12.04,2.6-18.09.3-2.45,1.27-2.85,3.62-2.75,4.63.2,7.34,2.05,7.98,6.8.24,1.75,1.03,3.42,1.81,5.88Z"/>
      <path class="cls-207" d="m75.62,36.72c-1.65-3.61,1.59-3.47,4.54-3.85,6.24-.8,6.22-.86,6.88,5.29.51,4.7,1,9.4,1.58,14.09.15,1.24-.16,3.25,1.85,3,1.96-.25,1.23-2.18,1.11-3.4-.53-5.57-1.1-11.14-1.84-16.69-.29-2.19-.19-3.29,2.53-3.62,8.17-1,8.14-1.15,9.01,6.85.41,3.83.87,7.66,1.32,11.49.53,4.56-.85,7-5.08,8.81-2.07.89-4.26,1.43-6.51,1.53-9.85.42-13.73-.94-13.9-11.03-.06-3.83-.89-7.65-1.49-12.47Z"/>
      <path class="cls-207" d="m245.16,67.97c-1.95-.35-3.94-.59-5.86-1.08-8.61-2.21-10.71-5.71-8.67-14.32.69-2.9,1.43-5.8,2.15-8.69.83-3.36,3.15-4.99,6.42-5.33,4.84-.51,9.44.41,13.71,2.74,4.05,2.21,5.17,4.68,4.24,9.24-.67,3.29-1.39,6.57-2.21,9.83-1.52,6-3.59,7.54-9.78,7.62Z"/>
      <path class="cls-220" d="m119.62,42.45c1.87-.07,3.73-.13,5.6-.2q6.87-.23,7.3,6.8c.06.99.14,1.99.18,2.98.21,4.77-2.31,6.64-6.76,4.62-1.24-.56-1.83-.53-2.88.04-3.51,1.94-7.2,1.7-10.86.5-3.13-1.03-5.01-3.14-5.16-6.57-.18-4.23-.3-8.46-.57-12.69-.23-3.64,1.49-5.98,4.71-7.23,5.17-2,10.45-2.17,15.73-.43,1.95.64,3.55,1.76,4.36,3.79,1.65,4.11.98,5.22-3.38,5.47-1.24.07-2.5.08-3.72.28-2.36.39-3.51-.32-3.36-2.91.07-1.28.08-3.06-2.02-2.79-1.75.23-1.43,1.81-1.4,2.99.03,1.49.26,2.97.41,4.45,1.38,2.88.55,6.05,1.19,9.01.29.46.54.99,1.26.72.85-1.72.41-3.1-1.06-4.22-.24-.3-.4-.62-.51-.98.1-1.27-.7-2.76.94-3.62Z"/>
      <path class="cls-220" d="m43.87,52.07c3.16-.69,6.33-1.31,9.46-2.11,1.85-.47,2.77,0,3.12,1.94.46,2.57,1.13,5.1,1.73,7.65.98,4.19-1.39,6.74-5.68,5.59-1.46-.39-2.07-.26-3.11.58-2.99,2.42-6.52,2.93-10.23,2.44-3.58-.48-5.88-2.4-6.68-6.05-.84-3.89-1.81-7.75-2.73-11.63-.77-3.24.02-5.98,2.85-7.85,5.1-3.35,10.66-4.64,16.72-3.45,1.65.32,3.02,1.08,4.01,2.49,2.7,3.86,2.25,5.17-2.22,6.26-1.09.27-2.19.47-3.26.81-2.18.69-3.88.77-4.18-2.24-.11-1.14-.47-2.78-2.19-2.4-1.95.42-1.4,2.02-1.07,3.35.58,2.28,1.22,4.56,1.83,6.83,1.71,1.84,1.1,4.74,2.89,6.68.85-2.11.99-2.25-.42-3.66-1.64-1.63-1.9-3.27-.84-5.23Z"/>
      <path class="cls-207" d="m181.81,30.05c4.59.49,8.8-.22,11.3,1.52,2.6,1.81,1.64,6.39,2.25,9.75.92,5.13,1.49,10.33,2.3,15.48.28,1.79-.08,2.58-2.08,2.28-1.71-.26-3.47-.37-5.21-.36-2.41,0-4.19-.46-3.8-3.48.19-1.45-.71-1.88-2.03-2.01-1.38-.14-2.26.28-2.28,1.7-.05,3.19-2.02,3-4.33,2.76-7.7-.8-7.7-.75-5.58-8.18,1.4-4.89,3.01-9.74,4.12-14.7.84-3.74,2.22-5.96,5.33-4.76Z"/>
      <path class="cls-220" d="m137.17,42.86c0-3.73.06-7.46-.03-11.18-.05-1.88.59-2.56,2.54-2.68,8.76-.55,8.75-.62,8.61,8.09-.06,3.6.05,7.21-.16,10.81-.15,2.55.62,3.69,3.29,3.37,1.91-.23,3.56-.32,3.53,2.69-.03,2.88-1.49,2.87-3.51,2.83-3.73-.07-7.47-.22-11.18-.02-2.75.15-3.35-.98-3.21-3.46.19-3.47.05-6.96.05-10.44.02,0,.04,0,.06,0Z"/>
      <path class="cls-220" d="m73.94,60.12c.02.12.09.28.05.36-1.89,3.37-5.49,1.62-8.17,2.69-1.37.55-2.52.3-2.83-1.71-1.18-7.72-2.53-15.42-3.82-23.12-.04-.24-.22-.55-.13-.72,1.74-3.3,5.23-1.57,7.79-2.62,1.05-.43,2.79-.96,3.15,1.26,1.33,7.95,2.69,15.9,4.03,23.85-.03,0-.05,0-.08.01Z"/>
      <path class="cls-220" d="m168.75,42.98c-.17,3.86-.46,7.71-.47,11.57,0,2.19-.85,2.67-2.9,2.64-8.15-.1-8.18-.03-7.96-8.11.16-5.73.46-11.45.58-17.18.04-2.01.62-2.78,2.83-2.73,8.3.17,8.29.08,8.04,8.2-.06,1.87,0,3.73,0,5.6-.04,0-.08,0-.11,0Z"/>
      <path class="cls-219" d="m158.29,71.28c-.05,6.17-1.08,7.29-7.27,7.83-3.11.27-6.2.22-9.24-.62-2.57-.7-3.89-2.16-3.99-5.03-.3-8.87,1.34-10.68,10.28-10.64.99,0,1.99.1,2.97.21,6.37.72,7.3,1.79,7.25,8.25Z"/>
      <path class="cls-221" d="m243.88,89.7c-3.75-.23-7.39-1-10.8-2.59-1.58-.74-3.17-1.67-3.2-3.74-.05-3.41,3.57-5.76,2.68-9.57-.2-.84,1.81-1.46,3.1-1.5,4.56-.15,8.92.76,12.93,2.89,3.06,1.63,3.2,3.72.6,5.93-.51.43-.81.42-.5,1.25,2.04,5.43.65,7.5-4.81,7.34Z"/>
      <path class="cls-221" d="m188.85,75.33c-3.3-1.08-3.25-3.66-2.82-6.37.45-2.8,2.57-3.4,4.94-3.56,3.87-.27,7.69.04,11.4,1.25,2.64.86,4.13,2.39,3.83,5.48-.83,8.65-.36,10.41-11.08,9.62-3.74-.27-8.24-.04-9.91-4.94,2.9-.82,5.78-.95,8.62.23.52.11,1,.89,1.51.3.13-.15-.77-.33-1.22-.46-1.7-.73-3.76-.22-5.27-1.55Z"/>
      <path class="cls-221" d="m112.41,63.81c2.36-.01,4.74-.15,6.96.94,1.84.9,2.36,2.53,2.2,4.36-.2,2.17-2.06,1.4-3.23,1.46-2.56.12-6.01,1.59-5.95-3.27,0-.57-.83-.86-1.51-.72-.85.17-1.28.73-1.23,1.59.17,2.61.34,5.21.56,7.81.07.79.44,1.43,1.41,1.38.83-.05,1.41-.38,1.57-1.27.2-1.1-.49-2.71,1.51-2.82,2.22-.12,4.71-1.02,6.58.05,1.51.86.72,2.96-.43,4.22-2.75,3.01-15.16,3.78-18.2,1.22-1.15-.97-1.36-2.3-1.57-3.67-1.28-8.47.56-10.75,9.1-11.26.74-.04,1.49,0,2.24,0Z"/>
      <path class="cls-221" d="m77.48,83.26c-2.27,1.08-2.01-3.03-4.45-2.15-1.72.62-.81,2.95-3.26,3.39-7.15,1.31-7.29,1.41-6.33-5.65.03-.25.08-.49.12-.74,1.48-9.96,1.55-9.97,11.84-10.52,1.68-.09,2.45.44,3.12,1.87,1.57,3.39,3.2,6.75,4.97,10.03,1.05,1.95.89,2.96-1.53,3.14-1.49.11-2.96.41-4.48.62Z"/>
      <path class="cls-221" d="m53.09,71.19c1.33.24,2.74.28,3.98.76,1.68.65,2.35,2.26,2.31,3.93-.04,1.81-1.8,1.29-2.86,1.65-.7.24-1.45.36-2.17.52-1.83.39-3.8,1.12-3.96-1.97-.05-.99-.7-1.57-1.81-1.32-1.11.25-1.29,1.06-1.1,2,.47,2.31.99,4.61,1.48,6.92.19.87.35,1.77,1.57,1.63,1.26-.15,1.45-.93,1.47-2.1.04-1.8,6.71-4.66,7.93-3.35,1.22,1.31.94,3-.15,4.43-2.33,3.04-13.62,5.6-17.2,3.96-2.14-.98-2.4-3.01-2.88-4.93-1.77-7.15-.7-9.01,6.37-10.92,2.28-.62,4.6-1.1,7.01-1.22Z"/>
      <path class="cls-221" d="m217.91,81.67c2.92.48,4.88.8,6.84,1.12.95.15,1.67.47,1.51,1.65-.16,1.21-.98,1.29-1.91,1.14-5.03-.81-10.05-1.62-15.07-2.46-.58-.1-1.32-.19-1.46-.91-.2-.98.38-1.7,1.17-2.15,2.48-1.41,5.01-2.74,7.5-4.15.97-.55,1.94-1.13,2.81-1.82.85-.67,2.02-1.5.72-2.67-1-.89-1.93-.6-2.78.57-1.04,1.44-6.71,1.77-7.46.39-.89-1.63.3-2.79,1.65-3.55,3.3-1.87,13.79,0,16.26,2.87,1.95,2.27.72,3.98-1.25,5.22-2.48,1.57-5.13,2.87-8.53,4.75Z"/>
      <path class="cls-227" d="m84.86,70.62c.21-1.34-1.13-3.44.52-4.02,2.26-.79,4.86-.78,7.31-.78.95,0,.83,1.38.93,2.2.24,1.97.49,3.95.56,5.93.1,2.67.6,4.7,4.05,3.68.97-.29,1.65.15,1.81,1.27.18,1.23-.3,1.91-1.52,2.03-3.58.36-7.16.69-10.74,1.05-1.56.16-1.85-.8-1.96-2.04-.29-3.09-.62-6.17-.95-9.32Z"/>
      <path class="cls-227" d="m182.05,71.4c0,1.11.05,2.23,0,3.34-.31,5.4-.32,5.2-5.56,5.12-2.91-.04-3.74-1.06-3.21-3.73.19-.96-.01-2.01.21-2.96.75-3.24.05-5.34-3.78-5.28-.58,0-1.34,0-1.49-.77-.16-.79.49-1.06,1.11-1.19,3.14-.64,6.27-1.36,9.44-1.85,2.63-.4,4.4.32,3.67,3.6-.27,1.19-.15,2.47-.21,3.71-.05,0-.11,0-.16,0Z"/>
      <path class="cls-221" d="m134.31,71.25c0,.75,0,1.49,0,2.24-.04,6.27,1.13,5.26-5.48,5.6-2.57.13-3.63-.62-3.45-3.28.15-2.35-.15-4.73-.03-7.09.09-1.77-1.13-4.36.73-5.13,2.04-.84,4.66-.48,7-.3,1.6.12,1.05,1.72,1.1,2.73.09,1.74.02,3.48.02,5.23h.12Z"/>
      <path class="cls-164" d="m43.87,52.07c-.16,1.75-.91,3.41,1.77,4.4,1.98.74,1.81,3.22,1.5,5.17-.13.78-.94,1.11-1.74,1.1-1.04-.01-1.54-.72-1.74-1.61-.5-2.27-.95-4.56-1.42-6.84.95-.44.43-1.96,1.63-2.21Z"/>
      <path class="cls-144" d="m118.53,52.13c-1.16-3.46-.72-7.03-.73-10.57.61.3,1.21.6,1.82.9-.06,1.36-.12,2.72-.18,4.09.12,1.93.68,3.93-.9,5.59Z"/>
      <path class="cls-72" d="m188.85,75.33c2.02.24,4.03.48,6.05.72.38,1.06.05,1.86-.9,2.43-2.52-2.7-5.75-1.68-8.79-1.66.65-1.87,2.76-.18,3.64-1.49Z"/>
      <path class="cls-237" d="m183.6,187.17c.08.43.16.85.24,1.28-3.81,5.25-5.83,12.17-11.1,15.84-6.3,4.38-7.01,11.14-9.86,17.02-1.15,2.38-2.28,4.81-4.25,6.48-3.37,2.87-3.82,6-1.82,9.73.74,1.57-.22,3.37.66,4.92.25.34.25.68-.02,1.01-2.61.92-4.48,2.58-5.22,5.33-1.23,1.63.27,2.93.53,4.38-6.07,3.28-7.49,9.7-10.24,15.46-.58-3.13-2.4-5.15-4.59-6.91-.61-1.49,1.48-1.01,1.49-2.05-1.1-6.47-3.65-12.49-5.78-18.64-.29-.84-.82-1.5-1.59-1.97-.42-.82.27-1.05.75-1.4,1.98-.8,1.34-4.17,4.25-3.91-1.28-2.76-4.49-3.64-5-6.6,3.99,1.36,6.54,4.71,9.77,7.11,5.31,3.94,5.19,3.99,9.33-.95,1.35-1.61.83-2.27-.69-2.99-4.26-2.01-8.53-4.01-12.77-6.07-1.44-.7-2.8-1.55-4.19-2.33.22-1.91,1.46-1.01,2.42-.87,5.83.24,11.61.06,17.39-1.03,3.96-.74,5.76-2.71,5.75-6.78-.02-6.43,1.26-12.57,5.33-17.81.47-.61.77-1.85,1.89-1.16.75.46-.01,1.37.12,2.06-.69,1.78-.24,3.63-.28,5.45-.02.7.37,1.15,1.17.69.7-1.82,1.41-3.64,2.13-5.5,2.81,2.26,2.86,2.28,4.6-.78.92-1.61,1.68-3.31,2.46-4.99.69-1.48.65-3.51,3.36-1.43,1.51,1.16,2.25-1.98,3.76-2.6Z"/>
      <path class="cls-100" d="m163.52,278.07c-.42.89-.78,1.81-1.26,2.67q-2.45,4.41-1.38,9.3c-2.75-4.14-5.88-7.79-10.82-9.15-.02-1.41.8-.99,1.55-.72,5.34,1.98,6.61,1.54,11-3.75,1.38-.04,1.35.7.92,1.66Z"/>
      <path class="cls-117" d="m167.91,232.51c1.44-3.71,4.69-5.08,8.08-6.26.82-.2,1.77-.65,1.7.88-3.26,1.79-6.52,3.59-9.78,5.38Z"/>
      <path class="cls-137" d="m146.11,294.92c.8-1.73,2.23-2.93,3.57-4.2.61-.58,1.39-1.39,2.22-.56.97.97-.22,1.47-.76,2.02-1.3,1.31-2.65,2.57-3.98,3.85-.9.15-1.26-.21-1.05-1.11Z"/>
      <path class="cls-22" d="m126.96,304.06c-2.28,1.15-4.57,1.55-6.89.14,2.17-.33,5.74,1.77,5.31-3.06,1.07-1.01-.88-3.12,1.36-3.71.07,2.21.15,4.42.22,6.63Z"/>
      <path class="cls-68" d="m123.73,230.12c1.53,1.71,3.07,3.43,4.6,5.14.17.75-.03,1.12-.86.86-2.03-1.19-3.68-2.73-4.55-4.99-.42-.89.14-1,.81-1.02Z"/>
      <path class="cls-97" d="m156.78,251.04c2.01-1.16,2.39-4.23,5.22-4.43l-.07-.07c-.36,3.07-2.13,4.5-5.18,4.46l.03.04Z"/>
      <path class="cls-53" d="m165.73,242.11c2.78-1.48,5.59-.68,8.41-.16-.85,1.02-2.19.07-3.12.76-1.81.02-3.71.78-5.34-.65l.05.05Z"/>
      <path class="cls-74" d="m140.84,281.8c-.31.56-.4.99-.67,1.17-1.16.76-1.64,2.55-3.42,2.33-.15-.02-.43-.74-.31-.93.89-1.47,1.87-2.89,4.39-2.56Z"/>
      <path class="cls-177" d="m152.76,253.17c-1.77-1.27-1.79-2.75-.53-4.38-.33,4.48,2.5,2.58,4.55,2.25,0,0-.03-.04-.03-.04-.49,2.26-2.42,1.88-3.99,2.17Z"/>
      <path class="cls-75" d="m127.48,236.13c.29-.29.57-.58.86-.86,1.49.8,2.98,1.6,4.46,2.4-.25.47-.5.93-.75,1.4-1.85-.48-3.25-1.64-4.57-2.93Z"/>
      <path class="cls-70" d="m162.67,239.3c.06-2.48,1.68-3.69,3.72-4.55-.29,2.29-1.66,3.71-3.72,4.55Z"/>
      <path class="cls-234" d="m139.43,259.67c-.5.68-1,1.37-1.49,2.05-1.6-.73-3.31-1.31-4.59-3.16,2.37-.18,3.89,2.52,6.09,1.11Z"/>
      <path class="cls-79" d="m163.52,278.07c-.11-.66-.14-1.37-.92-1.66.78-1.23,1.56-2.46,2.33-3.69.73-.14,1.11.08.93.89-1,1.37-1.01,3.26-2.34,4.46Z"/>
      <path class="cls-231" d="m126.73,297.44c-1.25.94-.1,2.76-1.36,3.71-.2-2.21-.7-4.44.26-6.75,1.7.88,1.07,2.05,1.1,3.05Z"/>
      <path class="cls-15" d="m117.95,303.24c-.81.04-1.61.08-2.42.13,1.61-1.99.17-4.4.91-6.5,1.32-.11,1.02.63.73,1.37.15,1.69-.59,3.51.78,5.01Z"/>
      <path class="cls-150" d="m182.89,224.06c.75,1.19,1.97.62,2.99.78-1.21,1.25-2.79.72-4.23.87-.8.19-1.74.67-1.72-.83.99-.27,1.97-.55,2.96-.82Z"/>
      <path class="cls-8" d="m132.69,289.92c.51-1.78,1.07-2.96,2.58-3.45.1-.03.49.33.46.45-.33,1.44-1.05,2.54-3.04,3Z"/>
      <path class="cls-181" d="m105.88,298.98c.21-.05.41-.07.63-.05,2.07.17,1.62,1.69,1.61,2.98-.69-.68-1.44-.48-2.21-.18,0-.92-.01-1.83-.02-2.75Z"/>
      <path class="cls-50" d="m129.11,287.86c-.98-1.23-1.24-2.4.06-3.84.96,1.64.36,2.73-.06,3.84Z"/>
      <path class="cls-69" d="m179.94,224.89c.37.7,1.08.7,1.72.83-1.32.47-2.64.94-3.96,1.41-.33-.74-1.06-.73-1.7-.88,1.17-.87,2.52-1.21,3.94-1.37Z"/>
      <path class="cls-42" d="m165.67,242.05c-.17,2.39-1.67,3.68-3.75,4.48,0,0,.07.07.07.07-.04-2.57,2.06-3.36,3.73-4.5,0,0-.05-.05-.05-.05Z"/>
      <path class="cls-23" d="m146.11,294.92c.35.37.7.74,1.05,1.11-.59,1.13-1.31,2.17-2.41,2.87-.33-.14-.57-.38-.72-.71.33-1.32,1.06-2.39,2.08-3.27Z"/>
      <path class="cls-70" d="m119.38,223.33c.88,1.16,2.2,2.16,1.46,3.92-1.74-.23-1.63-1.94-2.37-2.98-.21-.81.12-1.09.9-.94Z"/>
      <path class="cls-2" d="m119.38,223.33c-.3.31-.6.63-.9.94-.92-.92-1.88-1.81-2.09-3.2.1-.26.29-.43.56-.52,1.45.36,1.8,1.69,2.43,2.78Z"/>
      <path class="cls-58" d="m162.7,308.62c-2.33,2.26-1.96-.99-2.96-1.45.59-.69.79-1.76,1.83-2.04,1.24.91-2.51,3.37,1.14,3.48Z"/>
      <path class="cls-30" d="m128.97,256.51c1.53-.72,2.42.47,4.23,1.01-2.18,1.32-3.21.63-4.14-.56-.03-.15-.06-.3-.08-.45Z"/>
      <path class="cls-37" d="m157.45,243.46c-.03-.17-.03-.34-.03-.51.02-.51.48-.65.78-.93,1-.69,1.76-1.87,3.25-1.5-.31,2.38-2.18,2.62-4,2.93Z"/>
      <path class="cls-57" d="m171.01,242.71c.87-.94,2.11-.41,3.12-.76,1.11.08,2.22.17,3.33.25-.5,1.82-1.8.76-2.81.77-1.21-.09-2.43-.18-3.64-.26Z"/>
      <path class="cls-126" d="m144.02,298.19c.24.24.48.47.72.71-.38,1.2-2.54,2.18-.44,3.67-1.23.14-1.77-.52-1.89-1.66.54-.91,1.07-1.82,1.61-2.73Z"/>
      <path class="cls-40" d="m114.1,303.41c-1.51-1.97-1.09-3.98-.12-6,.04,2,.08,4,.12,6Z"/>
      <path class="cls-80" d="m165.86,273.61c-.31-.3-.62-.6-.93-.89.45-.98.74-2.09,2.04-2.49.37,1.42-.34,2.41-1.12,3.38Z"/>
      <path class="cls-142" d="m128.97,256.51c-.05.17-.02.32.08.45-1.28.14-2.35-.37-3.73-1.17,1.58-.37,2.78-.75,3.65.72Z"/>
      <path class="cls-204" d="m132,301.25c-.48.23-.97.45-1.45.68.04-1.08-.19-2.23.92-3.44.75.94.69,1.84.53,2.76Z"/>
      <path class="cls-76" d="m123.73,230.12c-.27.34-.54.68-.81,1.02-1.11-.86-1.84-1.95-2.13-3.33,1.83-.31,2.38,1.01,2.94,2.31Z"/>
      <path class="cls-185" d="m174.65,242.97c.9-.38,2.08.23,2.81-.77.62.26,2.13.42.56,1.26-.9.49-2.35.38-3.37-.49Z"/>
      <path class="cls-96" d="m158.26,305.71c-.22-.24-.44-.49-.66-.73.22-.9.45-1.81,1.35-2.31.31-.25.6-.24.88.04-.11,1.22-.61,2.23-1.58,3Z"/>
      <path class="cls-3" d="m131.37,248.02c1.44.57,2.16,1.24,2.19,3.08-1.31-.82-2.28-1.28-2.19-3.08Z"/>
      <path class="cls-61" d="m159.8,299.73c.06-.84.44-2.2,1.15-1.65.95.73.44,2.2-.36,3.23-.74-.29-.3-1.18-.8-1.59Z"/>
      <path class="cls-93" d="m116.95,220.56c-.19.17-.37.35-.56.52-.52-.51-1.03-1.01-1.55-1.52.02-.28.03-.56.05-.84,1.16.09,1.88.66,2.06,1.84Z"/>
      <path class="cls-52" d="m147.58,279.53c-1.23,0-2.02-.64-2.68-2.02,1.43.19,2.73,0,2.9,1.82l-.22.2Z"/>
      <path class="cls-124" d="m109.74,292.25c-.17,1.37-.91,2.23-2.31,2.99,0-1.93,1.1-2.51,2.31-2.99Z"/>
      <path class="cls-179" d="m117.17,298.23c-.24-.46-.49-.91-.73-1.37.26-.62.52-1.25,1.02-2.46.52,1.79.56,2.84-.29,3.83Z"/>
      <path class="cls-81" d="m151.6,280.16l-1.55.72c-.9-.32-2.01-.24-2.48-1.35,0,0,.22-.2.22-.2,1.31.06,2.73-.33,3.8.83Z"/>
      <path class="cls-169" d="m133.98,276.78c.41,1.16.58,2.16-.44,2.35-.98.19-.59-.7-.39-1.19.13-.31.39-.56.83-1.17Z"/>
      <path class="cls-36" d="m159.8,299.73c.73.3.65,1,.8,1.59-.1.55-.12,1.14-.76,1.4-.29-.01-.58-.03-.88-.04.28-.98.56-1.96.84-2.94Z"/>
      <path class="cls-60" d="m152.92,304.98c-.96-.62-.51-1.61-.66-2.45.12-.53.46-.93.99-.89.53.04.33.49.25.83-.2.83-.39,1.67-.58,2.51Z"/>
      <path class="cls-206" d="m131.07,292.13c.38.35.74.53.83.8.09.29.03.89-.14.96-.54.24-.85-.23-.96-.67-.06-.27.14-.6.27-1.09Z"/>
      <path class="cls-117" d="m179,215.77c.32.31.65.63.97.94-6.03,3.72-12.37,6.97-17.56,11.97,3.61-6.83,9.77-10.29,16.59-12.91Z"/>
      <path class="cls-13" d="m158.21,242.03c-.26.31-.52.62-.78.93-1.41-1.67-.35-3.62-.61-5.42,1.57,1.15-.18,3.34,1.4,4.5Z"/>
      <path class="cls-211" d="m210.52,222.82c-.49.39-.97.79-1.46,1.18-1.24.43-2.45.11-3.65-.18-.93-.66-1.86-1.32-2.79-1.98,2.37-.95,2.79-5.16,6.5-3.86.75,1.07,1.5,2.14,2.25,3.21-.01.17,0,.33.02.49-.53.2-1.13.33-.87,1.14Z"/>
      <path class="cls-230" d="m114.79,178.49c.76.6,1.2.07,1.31-.54.85-4.53,4.76-5.76,8.15-7.34,2.92-1.36.7,1.17,1.09,1.77.25.8,2.07.21,1.51,1.72-1.12.94-.59,1.93-.07,2.91.34.76-.02.85-.66.68-.65-.65-.98-1.77-2.33-1.31-2.01.69,0,2.48-1.09,3.58-.33-.4-.63-.74-.91-1.09-.86-1.08-1.98-1.74-3.16-.76-1.22,1.01-.13,2.06.49,2.88,3.6,4.76,7.5,9.18,13.56,10.89,1.6,2.88,2.08,6.42,4.97,8.54,1.31,2.82,4.53,4.06,5.78,6.93-.84,1.37-2.16,1.19-3.46,1.07-1.21.71-2.53-3.85-3.67.08-.27.48-.61.84-1.23.66-1.19-1.27-1.08-3.02-1.51-4.53-2.38-8.45-8.41-14.26-14.3-20.19-.34-.34-.76-.79-1.18-.85-3.21-.42-3.21-.4-4.07-4.27-.35-.83.07-.96.76-.84Z"/>
      <path class="cls-232" d="m171.75,137.26c-.78-1.12-2.37-2-.32-3.56,1.91-1.46-1.32-1.14-.94-2.25,1.59-.52,3.21-1.05,4.91-1.6-.79-1.8-2.69-1.39-3.75-2.42.01-.17-.05-.49.05-.56,2.7-1.87,5.75-5.08,8.81-2.47,2.84,2.41-.16,5.71-1.29,8.45-.89,2.16-2.54,3.98-2.91,6.4-.21,1.38-1.06.48-1.67.37-1.28-.4-2.56-.78-2.89-2.35Z"/>
      <path class="cls-232" d="m114.75,127.15c-.91,1.59-2.99,1.04-3.7,2.57.1.19.15.53.3.58,2.48.81,1.85,1.23,3.16,3.14,3.12,4.57-1.93,4.45-3.24,6.4-.45.66-1.43.57-1.51-.56-.23-3.3-2.91-5.45-3.86-8.4-.71-2.2-2.28-4.68-.06-6.57,2.04-1.74,4.24.01,6.2.99.97.48,1.81,1.22,2.72,1.85Z"/>
      <path class="cls-121" d="m165.82,188.39c-5.8,5.53-9.33,12.36-11.49,19.98-1.43.14-1.03-1.64-2.04-1.92-2.08,1.45-3.83,3.9-6.87,2.14-.34-.45-.42-.95-.32-1.49,1.96-2.63,5.06-4.21,6.69-7.16,2.32-2.14,3.51-4.9,4.32-7.87.19-.29.42-.54.7-.75,3.25-.14,5.46-2.3,7.89-4.04.91-.17,1.28.19,1.13,1.1Z"/>
      <path class="cls-109" d="m175.51,177.86c-.31,1.4-.62,2.8-.93,4.2-.28.96-.41,1.99-1.33,2.63-.34.13-.64.06-.9-.18-2.38-2.3-2.86,1.23-4.42,1.44-1.21-.01-1.27-.58-.7-1.46.92-1.13,1.9-2.22,2.75-3.39,1.7-2.36,1.4-3.67-1.85-3.28-.92.46-1.22-.34-1.67-.83-.26-.21-.51-.42-.77-.63-.53-.98-1.82,0-2.38-.92-.43-1.55-1.92-.45-2.76-1.03-.06-2.17,3.95-1.39,2.95-4.15.36.04.76,0,1.07.14,3.77,1.86,7.88,3.37,8.78,8.25,1.04-.16,1.04-1.08,1.46-1.64.68-.09,1.11.04.71.85Z"/>
      <path class="cls-94" d="m142.49,140.27c.56-.91,1.12-1.7-.57-2.15-2.42-.64-4.75-1.45-7.23-.1-.91.5-1.91,1.31-3.14.68,4.48-5.39,19.84-5.68,25.15-.41-1.15,1.22-2.04-.1-2.87-.4-3.78-1.38-5.79-.68-7.56,2.9-.97,1.97-2.44.55-3.7.55-.34-.33-.37-.69-.09-1.07Z"/>
      <path class="cls-145" d="m173.97,140.28c5.27,4.8,8.87,10.53,9.78,17.74.66,1.26-.18,2.76.64,4,.03.62.06,1.24.09,1.86.47,2.72.46,5.44.01,8.17l-.12,1.95c-.5.76-.42,2.14-1.94,1.82-.56-.14-.77-.62-.99-1.07l1.45-2.24c.69-2.99.61-5.98.04-8.98-.58-2.63-1.01-5.31-1.77-7.89-1.75-5.94-5.17-10.88-9.55-15.19-.31-.67.08-.97.61-1.21.86-.12,1.32.43,1.73,1.05Z"/>
      <path class="cls-116" d="m111.02,184.69c-1.15-1.42-2.39-2.79-3.43-4.29-1.43-2.05-2.55-2.92-3.29,1.06-1.94-8.38-3.13-16.15.04-23.94,2.02.26.93,1.57.87,2.54-.05.41-.09.81-.14,1.22-.82,1.48.09,3.19-.62,4.69-1.15,7.15,3.85,11.92,6.76,17.5.24.45.18.86-.18,1.22Z"/>
      <path class="cls-115" d="m181.45,174.74c.25.25.5.51.75.76.37.33.41.7.11,1.1-4.02,5.86-6.86,12.86-14.57,15.1.39-2.83,1.04-3.69,3.83-4.5,1.84-.53.47-1.82.79-2.69.31-.01.63-.02.94-.03.65-.6,1.31-1.18,2.16-1.49,2-2.75,4-5.49,6-8.24Z"/>
      <path class="cls-115" d="m176.11,171.72c.14-1.9-.23-3.77,1.34-5.51.98-1.09-.27-2.81-.6-4.23-.41-1.78-1.52-3.38-1.43-5.94,2.41,1.98,3.12,4.38,3.68,6.74.5,2.16.56,4.41.93,6.61.46,2.74-.25,3.83-3.03,2.38-.31.25-.61.25-.89-.04Z"/>
      <path class="cls-104" d="m112.65,173.96c-.32-.76-.46-2.38-1.12-2.06-4.65,2.24-2.34-2.04-2.31-2.8.15-4.35.36-8.81,3.68-12.31.3.28.63.53.61.56-3.22,5.24-.77,10.52-.09,15.78.34.82-.06.95-.76.83Z"/>
      <path class="cls-171" d="m152.21,213.17c-.24.41-.48.81-.71,1.22-4.78.27-9.61,1.31-14.26-.77l.07.06c-.92-1.1-1.55-2.19.02-3.28,1.15-.25,2.24.09,3.35.28,1.85.6,3.74.55,5.64.32,1.84-.31,3.67-.9,5.51-.04.8.62,1.08,1.33.38,2.21Z"/>
      <path class="cls-172" d="m139.18,191.97c3.5.02,7,.04,10.49.06,2.34.81,1.15,2.31.73,3.67-.46.61-1.03,1.01-1.84.92-3.13-1.9-6.5-.39-9.75-.7-.32-.24-.54-.54-.67-.91-.2-1.21-.47-2.44,1.04-3.05Z"/>
      <path class="cls-147" d="m152.25,156.77c.61,1.42,1.2,2.87,2.76,3.55.81-.27,1.49.04,2.13.49.7.82,2.21,1.1,1.83,2.66-1.73.9-3.5.34-5.26.14-1.75-2.58-5.94-1.63-7.09-5.05,1.18-1.54,2.8,1.63,4.04-.22-.42-1.48-.11-2.23,1.59-1.58Z"/>
      <path class="cls-146" d="m123.73,144c.35,3.95-4.81,6.62-.73,9.7-.39,1.06-1.17.77-1.58.6-1.26-.53-2.35,2.15-3.53.19-1.16-1.91-.35-3.64.91-5.14,1.38-1.65,2.92-3.18,4.94-5.36Z"/>
      <path class="cls-162" d="m135.69,159.42c.54-1.23,1.09-2.46,1.83-4.14,1.18,1.86,1.47,5.67,4.94,2.3-1.05,1.88-.99,4.31-4.06,3.73-1.57-.3-1.43,2.63-3.33,2.35-1.51.14-3.05.81-4.52-.15-.46-1.17.52-1.64,1.12-2.29,1.18-.95,2.96-.56,4.02-1.79Z"/>
      <path class="cls-154" d="m167.08,152.77c1.27-3.26-1.09-5.27-3.19-8.54,3.85,1.55,5.76,3.87,7.3,6.49,1.15,1.96.59,3.79-1.12,5.27-1-1.07-2.62-1.57-3-3.22Z"/>
      <path class="cls-106" d="m128.98,216.66c-3.59-4.89-3.19-10.92-4.68-16.42,4.37,4.62,3.6,10.91,5.31,16.39-.19.4-.4.39-.62.03Z"/>
      <path class="cls-87" d="m167.08,152.77c1.01,1.07,2.53,1.65,3,3.22-1.64,2.77-2.47,6.15-5.83,7.61-1.52.1-3.08,1.22-4.56-.13-.19-.38-.12-.71.18-1,1.8-.97,4.09-1.19,5.13-3.47-1.17.05-2.39.31-3.47-.4-.1-.14-.21-.28-.31-.42,1.46-1.52,3.49-.61,5.18-1.19.86-.3,2.17.15,2.38-1.21.24-1.62-1.05-1.04-1.9-1.34-1.52-.52-.33-1.15.2-1.67Z"/>
      <path class="cls-212" d="m137.13,200.59c-3.29-1.98-4.45-5.05-4.45-8.71,1.56.08,3.12.16,4.68.24.93,1.09.53,2.43.71,3.66.22,1.71.6,3.44-.94,4.81Z"/>
      <path class="cls-138" d="m120.22,194.15c-2.96-1.48-5.98-2.88-6.98-6.47-.3-.47-.23-.88.21-1.23,2.44,2.34,6.46,3,7.38,6.95.44.77-.02.81-.61.74Z"/>
      <path class="cls-102" d="m135.69,159.42c-.8,1.25-1.81,2.11-3.43,1.81-1.01.83-2.15.96-3.38.65-1.38-.63-1.7-2-2.27-3.21-.13-.39-.06-.74.18-1.07,2.05-.26,3.93.23,5.58,1.42,1.07.77,2.08,1.32,3.32.39Z"/>
      <path class="cls-141" d="m124.54,163.55c-2.39-1.55-4.01-3.62-4.5-6.55,1.44-.4,2.73-.11,4.01.4-.14.6-.51,1.19-.06,1.8.84.94,1.79,1.73,2.85,2.42.5.68,2.44.68,1.1,2.26-1.13-.08-2.3.26-3.39-.32Z"/>
      <path class="cls-140" d="m142.49,140.27c.03.36.06.71.09,1.07-3.8-.25-7.37.97-11.01,1.83,3.16-2.95,6.67-4.39,10.92-2.9Z"/>
      <path class="cls-202" d="m167.89,167.85c3.62-.02,6.34-.72,5.25-5.51,1.82,2.01,2.3,4.26,1.13,5.49-1.92,2.02-4.1,1.29-6.39.03Z"/>
      <path class="cls-33" d="m156.75,161.27c-.58-.32-1.16-.63-1.74-.95,1.71-1.78,3.77-2.52,6.22-2.14,0,0,.08.22.08.22,1.07,1.85.04,2.91-1.44,3.8-1.28.48-2.16-.36-3.12-.93Z"/>
      <path class="cls-70" d="m108.07,194.99c-.89-.87-.81-3.1-3.24-1.72-1.05.59-1.87-.66-1.11-2.01,1.89,1.14,1.78-.52,2.15-1.53,1.68-2.21,1.66.03,2.19.84.2,1.22.4,2.44.6,3.67-.08.35-.28.59-.59.76Z"/>
      <path class="cls-186" d="m124.54,163.55c1.24-.04,2.47-.08,3.71-.12.66-.63,1.32-1.25,2.29-.51,1.34,1.35,3.08.16,4.54.72-1.54.68-3.08,1.36-4.62,2.04-.84-.81-2.21.27-2.98-.83-.98-.44-1.96-.88-2.94-1.31Z"/>
      <path class="cls-151" d="m115.49,204.71c-1.46.9-3.09,2.71-3.72-.71-.38-.8.04-.88.69-.77,2.02.3.82-2.13,2.26-2.52.53,1.06,1.07,2.13,1.61,3.21.22.79-.11,1-.84.79Z"/>
      <path class="cls-90" d="m137.23,213.61c4.69,1.4,9.52.29,14.26.77-4.83,1.16-9.67,2.41-14.26-.77Z"/>
      <path class="cls-187" d="m159.7,162.9c1.36,1.28,3.06.31,4.55.7-.74.44-1.49.88-2.23,1.32-1.05,1.07-2.52-.04-3.63.71-1.28-1.32-3.18-1.2-4.68-2.02,1.72-.55,3.68.65,5.29-.72.23-.37.47-.37.7,0Z"/>
      <path class="cls-143" d="m148.02,140.95c2.82-1.78,5.29-1.24,7.89,1.48-2.9.53-5.13-1.85-7.89-1.48Z"/>
      <path class="cls-18" d="m119.27,126.67c2.1.22,2.88,2.33,4.55,3.17,1.05.49,2.33.48,3.18,1.44.14.34.09.64-.17.9-.83.78-1.79.98-2.55.1-1.64-1.89-4.02-3.13-5-5.61Z"/>
      <path class="cls-91" d="m138.05,184.41c2.1.57,3.5,1.62,2.82,4.23-1.71-.7-2.53-2.25-3.72-3.38-.1-.7.13-1.06.9-.85Z"/>
      <path class="cls-236" d="m170.87,163.46c-1.18,3.71-2.65,1.41-5.12,1.03,2.32-1.34,3.82-.37,5.12-1.03Z"/>
      <path class="cls-198" d="m123.69,166.83c-.71,1.65-2.27,1.56-3.66,1.81-1.14-.87-2.87.54-3.84-1,.09-.15.18-.3.28-.45,2.48.78,4.85-.71,7.31-.38l-.08.02Z"/>
      <path class="cls-4" d="m137.47,210.85c-1.17.88-.35,1.87-.16,2.82-2.45-.66-1.95-2.77-2.22-4.51.28-.27.56-.55.84-.82,1.48.24,1.86,1.16,1.55,2.51Z"/>
      <path class="cls-64" d="m152.96,130.53c-1.72-1.63-4.25.23-5.97-1.4,3.25-1.99,6.4-1.1,9.52.37.52.75.49,1.21-.59,1.13l-2.96-.1Z"/>
      <path class="cls-182" d="m134.99,174.78c.23,2.09,1.12,4.17.16,6.93-1.23-2.35-.65-4.34-.92-6.2-.25-.77.08-.94.77-.73Z"/>
      <path class="cls-11" d="m154.58,177.01v4.79c-2.41-1.7-.79-3.62-.73-5.43.68-.29.95-.1.73.64Z"/>
      <path class="cls-175" d="m167.29,202.47c.04.78-.14,1.71-.87,1.83-1.19.19-.85-.95-.78-1.52.27-2.15-.53-4.43.76-6.45.56,2.01-.83,4.3.89,6.13Z"/>
      <path class="cls-89" d="m176.11,171.72c.3.01.59.03.89.04-.42,2.05-.48,4.19-1.48,6.09-.24-.28-.47-.57-.71-.85.43-1.76.87-3.53,1.3-5.29Z"/>
      <path class="cls-84" d="m151.6,185.52c-1.14,1.22-2.11,2.24-3.26,3.47q-.08-3.66,3.26-3.47Z"/>
      <path class="cls-32" d="m96.12,178.01c-1.14-1.67-1.3-3.59-1.39-5.52.23-.35.48-.38.74-.03.58,1.81,1.39,3.59.65,5.55Z"/>
      <path class="cls-54" d="m105.05,143.3c0-1.5.02-3,.03-4.5,2.75,1.04,1.68,2.82.87,4.55-.31.25-.61.25-.9-.05Z"/>
      <path class="cls-27" d="m126.82,132.18v-.77c1.02-1.37,2.21-1.94,3.74-.73.89,1.01,2.16.41,3.21.78-2.23,1.06-4.64.35-6.94.72Z"/>
      <path class="cls-114" d="m163.3,175.44c.88.09,1.88-.14,2.38.92-2.61-.81-2.48,3.16-5.2,2.88,1.05-1.41,1.93-2.6,2.82-3.8Z"/>
      <path class="cls-152" d="m114.77,167.27c-1.14-1.73-.23-3.21.49-5.07.72,1.86.2,3.6,1.19,4.99l-.3.09c-.46.43-.92.39-1.38,0Z"/>
      <path class="cls-104" d="m182.95,163.52c1.12,3,1.19,5.99-.04,8.98.01-2.99.03-5.99.04-8.98Z"/>
      <path class="cls-35" d="m95.47,172.46c-.25.01-.49.02-.74.03-.35-2.74-.34-5.48,0-8.22.26-.24.51-.22.75.02,0,2.72-.01,5.45-.02,8.17Z"/>
      <path class="cls-168" d="m141.65,189.86c2-.09,3.24-.14,5.53-.25-2.16,1.67-3.39,1.97-5.53.25Z"/>
      <path class="cls-153" d="m152.9,204.71c1.57.79.24,2.73,1.44,3.66-.2.76-.4,1.52-.6,2.28-.55.45-1.11.44-1.68.02-.4-2.08-.27-4.09.84-5.96Z"/>
      <path class="cls-96" d="m105.06,155.26c.33-1.38.44-2.88,2.25-3.71.24,2.11-.53,3.78-1.31,5.46-.84-.3-.41-1.28-.93-1.74Z"/>
      <path class="cls-135" d="m120.22,194.15c.2-.25.41-.5.61-.74,1.33,1.42,2.3,3.05,2.37,5.22-.99-1.49-1.99-2.98-2.98-4.47Z"/>
      <path class="cls-28" d="m135.9,145.97c.4-1.59,1.24-2.19,2.65-1.88.24.05.6.68.54.78-.75,1.03-1.75,1.42-3.19,1.1Z"/>
      <path class="cls-104" d="m184.5,172.04c0-2.72,0-5.44-.01-8.16.79,2.72.67,5.44.01,8.16Z"/>
      <path class="cls-113" d="m137.4,195.85c-.01-1.25-.02-2.49-.03-3.74.6-.05,1.21-.1,1.82-.15-.87,1.16-.03,2.5-.4,3.71-.42.4-.88.47-1.39.17Z"/>
      <path class="cls-39" d="m123.69,166.83s.08-.02.08-.02c.51-1.5,1.88-1.47,3.09-1.72.43.47,1.29.06,1.61.78-1.54.57-3,1.54-4.77.96Z"/>
      <path class="cls-136" d="m158.39,165.63c1.03-1.14,2.43-.41,3.63-.71.49.26.98.52,1.46.79.25.18.34.36.25.53-.09.17-.18.26-.26.26-1.69-.29-3.39-.57-5.08-.86Z"/>
      <path class="cls-21" d="m112.46,203.23c-.23.26-.46.51-.69.77-.82-1.49-2.24-2.79-1.43-4.76,1.31,1.01,1.41,2.67,2.12,3.99Z"/>
      <path class="cls-6" d="m155.92,130.63c.26-.22.53-.43.79-.65.79-1.11,1.84-1.41,3.11-.98.26.36.25.71-.04,1.06-1.1,1.45-2.39,1.64-3.86.57Z"/>
      <path class="cls-62" d="m152.25,156.77c-1.24-.19-1.47.63-1.59,1.58-.56-.88-1.78-1.61-.8-2.81.08-.1,2.6-1.18,2.39,1.23Z"/>
      <path class="cls-49" d="m95.54,159.86c.29-1.09.26-2.31,1.29-3.09.25-.27.5-.27.75,0-.23,1.61-.55,3.18-1.38,4.61-.65-.32-.3-1.07-.66-1.52Z"/>
      <path class="cls-128" d="m149.76,195.74c.15-1.24,1.27-2.5-.08-3.7.33-.07.67-.13,1-.2.82-.19,1.15.34,1.43.96.3,1.1.25,2.15-.53,3.07-.63.33-1.24.32-1.82-.12Z"/>
      <path class="cls-12" d="m151.74,192.58c-.35-.25-.7-.5-1.05-.75,1.97-1.01,4.06-.67,6.13-.51-.09.24-.18.48-.28.72-1.5,1.06-3.12,1.09-4.8.54Z"/>
      <path class="cls-159" d="m167.22,184.49c.08.56.09,1.16.7,1.46-.21,1.23-1.15,1.84-2.1,2.44-.38-.37-.75-.73-1.13-1.1.84-.93,1.68-1.87,2.53-2.8Z"/>
      <path class="cls-149" d="m113.45,186.46c-.07.41-.14.82-.21,1.23-1.08-.75-1.62-1.89-2.22-3,.06-.41.12-.81.18-1.22,1.41.5,2.21,1.46,2.25,2.99Z"/>
      <path class="cls-110" d="m166.45,176.98c.56.28,1.11.55,1.67.83-.73.91-1.47,1.81-2.46,3.04-.7-1.83,1.17-2.61.79-3.87Z"/>
      <path class="cls-201" d="m172.33,139.61c-.24.28-.47.55-.71.83-1.21-.51-2.24-1.27-3.08-2.28.09-.49.51-.54.87-.67.51.2,1.02.39,1.53.59.43.54,2.07,0,1.38,1.54Z"/>
      <path class="cls-105" d="m135.93,221.05c-.83.22-1.85-.08-2.42.87-1.01-.18-1.69-.79-2.18-1.65-.36-.35-.33-.66.08-.95l4.52,1.73Z"/>
      <path class="cls-108" d="m126.85,174.1c-.5-.57-1.01-1.15-1.51-1.72,1.92-.03,3.33.58,3.61,2.74-1.2.55-1.34-.84-2.09-1.02Z"/>
      <path class="cls-66" d="m95.54,159.86c.22.51.44,1.01.66,1.52-.09,1.01-.02,2.05-.71,2.91-.25,0-.5-.01-.75-.02.27-1.47.54-2.94.81-4.4Z"/>
      <path class="cls-29" d="m124.53,217.33c-2.11-.21-2.77-1.38-2.22-3.36.74,1.12,1.48,2.24,2.22,3.36Z"/>
      <path class="cls-55" d="m149.94,146.8c-.48.68-.73,1.4-1.17,1.56-.65.23-1.01-.44-1.23-1.03-.33-.92.4-.94.94-1.12.69-.22,1.05.1,1.45.59Z"/>
      <path class="cls-221" d="m108.05,190.57c-.59-.65-.73-2.46-2.19-.84.05-.91.34-2.05,1.29-1.9,1.6.26.71,1.76.9,2.74Z"/>
      <path class="cls-95" d="m118.01,163.7c1.4.03,2.14.86,3.91.2-2.11,2.23-3.08,1.9-3.91-.2Z"/>
      <path class="cls-191" d="m172.33,139.61l-1.38-1.54c.27-.27.53-.54.8-.81.96.78,1.93,1.57,2.89,2.35-.22.22-.44.44-.66.67-.55-.22-1.09-.44-1.64-.66Z"/>
      <path class="cls-67" d="m122.37,213.82c-2.02-.1-2.28-1.82-2.95-3.17.22-.36.43-.36.63,0,1.34.64,1.5,2.14,2.32,3.16Z"/>
      <path class="cls-85" d="m123.19,159.74c-1.66-1.49-.52-1.96.86-2.34.92.07,1.83.14,2.75.21,0,.21,0,.43,0,.64-.91,1.2-2.5.77-3.61,1.49Z"/>
      <path class="cls-157" d="m160.93,152.95c.54-.63,1.07-1.25,1.61-1.88.31.66.95,1.36.87,1.96-.18,1.31-1.36.56-2.11.7-.36-.15-.48-.41-.37-.78Z"/>
      <path class="cls-10" d="m129.02,153.69c-1.2-.19-2.61.69-3.81-.7,1.45-1.31,2.58-.5,3.73.12.24.1.34.22.28.36-.06.15-.13.23-.2.23Z"/>
      <path class="cls-119" d="m114.77,167.27c.46,0,.92,0,1.38,0,.99,1.31,2.84.18,3.87,1.36-1.95.32-4.05,1.17-5.25-1.37Z"/>
      <path class="cls-156" d="m105.06,155.26c.75.35.75,1.09.93,1.74-.1,1.06-.14,2.14-.8,3.05-.15-.89.1-1.92-.87-2.54.25-.75.49-1.5.74-2.25Z"/>
      <path class="cls-73" d="m126.12,177.69c.22-.23.44-.45.66-.68.99.9,1.99,1.79,2.31,3.56-1.78-.4-2.39-1.61-2.96-2.88Z"/>
      <path class="cls-166" d="m129.02,153.69c-.04-.19-.07-.39-.08-.59,1.38.46,2.76.92,3.52,2.92-1.57-.62-2.62-1.28-3.44-2.33Z"/>
      <path class="cls-165" d="m160.93,152.95c.12.26.25.52.37.78-1.07.45-2.14.9-3.7,1.57.9-1.75,1.87-2.41,3.33-2.35Z"/>
      <path class="cls-48" d="m97.58,156.77c-.25,0-.5,0-.75,0,.15-1.55.59-2.9,2.32-3.36-.26,1.24-.54,2.48-1.57,3.36Z"/>
      <path class="cls-34" d="m115.49,204.71c.28-.26.56-.53.84-.79,1.02.63.92,1.82,1.37,2.73-1.42.13-1.63-1.11-2.2-1.94Z"/>
      <path class="cls-46" d="m108.07,194.99c.2-.25.39-.5.59-.76.4,1.46,1.34,2.81.95,4.45-1.1-.98-1.22-2.38-1.54-3.69Z"/>
      <path class="cls-44" d="m120.06,210.65c-.21,0-.42-.01-.63,0-.77-.84-1.49-1.7-1.58-2.92,2.01.01,1.69,1.79,2.21,2.93Z"/>
      <path class="cls-155" d="m114.79,178.49c-.25.28-.51.56-.76.84-.8-.85-.77-1.91-.79-2.96-.33-.83.07-.98.78-.86.26.99.51,1.99.77,2.98Z"/>
      <path class="cls-199" d="m99.08,152.41c.19-1.21.83-2.18,1.61-3.08.61-.18.93-.06.63.65-.68.87-.55,2.49-2.24,2.43Z"/>
      <path class="cls-14" d="m152.18,210.58c.52.02,1.04.04,1.56.07.16,1.24-.26,2.14-1.53,2.52.06-.8.17-1.63-.73-2.09.1-.35.33-.52.7-.49Z"/>
      <path class="cls-112" d="m152.21,144.95c-.12.78-.83.64-1.38.73-.47.07-1.16.05-1.13-.49.04-.83.74-1.25,1.55-1.19.48.03.93.28.96.96Z"/>
      <path class="cls-59" d="m98.43,182.47c-1.61-.73-2.54-1.75-1.56-3.59,1.15.93,1.14,2.35,1.56,3.59Z"/>
      <path class="cls-7" d="m101.32,149.98c-.21-.22-.42-.43-.63-.65.5-1.43,1.38-2.43,2.95-2.69-.37,1.39-1.27,2.42-2.32,3.33Z"/>
      <path class="cls-158" d="m131.4,219.32c-.03.32-.05.63-.08.95-1.29-.87-2.04-2.1-2.35-3.61.21-.03.41-.04.62-.03.6.9,1.2,1.8,1.8,2.69Z"/>
      <path class="cls-38" d="m128.2,185.28c-1.05-1.19-2.39-1.46-2.7-3.09,1.66.35,2.51,1.08,2.7,3.09Z"/>
      <path class="cls-174" d="m175.46,182.97c-.45.9-.68,2.11-2.16,1.49.24-.91.43-1.84,1.29-2.41.29.31.58.61.87.92Z"/>
      <path class="cls-24" d="m104.44,165.97c.03-1.59-.65-3.27.62-4.69.02,1.59.11,3.2-.62,4.69Z"/>
      <path class="cls-63" d="m159.79,130.06c-.06-.38-.12-.75-.18-1.13-.5-.13-.82-.41-.84-.96.22-.45.47-.81,1.03-.41.24-.04.47,0,.67.14.26.48.51.96.77,1.44-.48.31-.97.62-1.45.93Z"/>
      <path class="cls-184" d="m146.41,152.42c1.66,0,1.95.95,2.81,1.93-1.7.17-2.04-.89-2.81-1.93Z"/>
      <path class="cls-131" d="m169.42,137.48c-.29.22-.58.45-.87.67-.64-.31-1.27-.62-2.03-1,1.31-1.22,2.05-.1,2.9.33Z"/>
      <path class="cls-9" d="m109.13,147.79c.64.18.88.35.71.8-.21.56-.39,1.17-1.05,1.3-.78.15-.75-.49-.58-.88.21-.49.65-.88.92-1.23Z"/>
      <path class="cls-82" d="m126.23,221.17c-1.13-.78-2.31-1.53-1.67-3.23,1.02.84,1.79,1.8,1.67,3.23Z"/>
      <path class="cls-104" d="m182.31,176.59c-.04-.37-.07-.73-.11-1.1,1.14.1,1.44-1.03,2.18-1.5.38,1.72-.05,2.8-2.07,2.6Z"/>
      <path class="cls-209" d="m105.05,143.3c.3.02.6.03.9.05-.3,1.28-.54,2.61-2.38,2.3.49-.78.99-1.56,1.48-2.35Z"/>
      <path class="cls-107" d="m140.48,146.31c.37.2,1.07.03.96.76-.09.59-.63.69-1.09.57-.28-.07-.63-.36-.71-.63-.23-.75.39-.65.84-.7Z"/>
      <path class="cls-178" d="m154.58,177.01c-.24-.21-.49-.43-.73-.64.26-.8.52-1.61.78-2.41.6,1.07.91,2.09-.05,3.05Z"/>
      <path class="cls-86" d="m114.02,175.5c-.26.29-.52.57-.78.86-.6-.7-.72-1.52-.59-2.4.25-.28.5-.55.76-.83.55.7.75,1.49.62,2.37Z"/>
      <path class="cls-148" d="m163.47,166.5c0-.26,0-.52.01-.79,1.17.17,2.36.31,3.27,1.84-1.46.12-2.39-.39-3.29-1.05Z"/>
      <path class="cls-170" d="m138.05,184.41c-.3.28-.6.57-.9.85-.65-.33-1.45-1.09-1.06-1.51.69-.75,1.38.14,1.96.66Z"/>
      <path class="cls-104" d="m184.4,162.01c-1.23-1.17-.59-2.64-.64-4,.71,1.25.78,2.61.64,4Z"/>
      <path class="cls-129" d="m128.46,165.88c-.54-.26-1.07-.52-1.61-.78.2-.1.41-.18.63-.23.97.34,2.23-.32,2.98.83-.67.06-1.33.12-2,.18Z"/>
      <path class="cls-189" d="m134.99,174.78c-.26.24-.51.49-.77.73-.68-.72-1.17-1.65-.28-2.31.32-.24.78.95,1.04,1.58Z"/>
      <path class="cls-213" d="m130.56,130.68c-1.25.24-2.49.49-3.74.73-1.32.08-2.44-.21-3-1.57.48-.5.97-1,1.45-1.5,1.32.6,1.62-.76,2.38-1.24,1.41-.95,3.13-1.35,4.41-2.53l-.05.03c2.1.27,4.21-.81,6.3.03.36-.27.72-.54,1.08-.8.25.92,1.15.78,1.77,1.1,1.03.52,1.27,1.46,1.16,2.5-.13,1.18-.93,1.62-2.02,1.78-3.25.47-6.49.98-9.74,1.48Z"/>
      <path class="cls-111" d="m132.06,124.57c-.35,2.66-3.05,2.06-4.47,3.23-.47-.51-.47-1.02,0-1.53,1.29-1.11,2.89-1.39,4.48-1.7Z"/>
      <path class="cls-78" d="m141.77,117.15c-.01.51-.02,1.02-.03,1.54-1.9.23-3.8.47-6.31.78,2.14-1.92,4.28-2.01,6.34-2.31Z"/>
      <path class="cls-197" d="m138.31,124.64c-2.1.02-4.21,1.44-6.3-.03,2.11-.8,4.21-1.64,6.3.03Z"/>
      <path class="cls-177" d="m132.72,115.71c1.03.19,1.99-1.42,3.05-.1-.99.47-1.96.98-2.97,1.39-.28.11-1.05.39-.8-.49.09-.31.47-.53.71-.79Z"/>
      <path class="cls-123" d="m131.39,121.68c-.78.72-1.56,1.43-2.94,1.13.04-1.46,1.28-1.45,2.13-1.86.32.19.75.25.82.72Z"/>
      <path class="cls-16" d="m124.8,125.51c.21-1.48.79-2.06,1.86-2.14.14-.01.45.31.45.47-.05,1.13-1.05,1.13-2.31,1.67Z"/>
      <path class="cls-47" d="m127.58,126.27c0,.51,0,1.02,0,1.53-.69.53-1.16,2.03-2.32.54.77-.69,1.54-1.38,2.32-2.06Z"/>
      <path class="cls-103" d="m131.39,121.68c-.27-.24-.54-.48-.81-.72.73-.3,1.46-.6,2.19-.9.2.18.27.36.21.55-.06.19-.12.29-.18.29-.47.26-.94.52-1.41.78Z"/>
      <path class="cls-133" d="m132.8,120.89c0-.28-.02-.56-.03-.84.62-.57,1.76-1.29,2.02-.48.3.94-1.07,1.19-1.99,1.32Z"/>
      <path class="cls-217" d="m159.03,128.2c.19.24.38.48.57.72-.76.9-1.83.96-2.89,1.05-3.21-.62-6.42-1.21-9.72-.85-1.58-.4-2.94-1.22-2.26-3.02.61-1.6,2.12-.58,3.2-.43,2.39.34,4.65,1.44,7.14,1.31,1.29.5,3-.36,3.96,1.21Z"/>
      <path class="cls-3" d="m159.03,128.2c-1.32-.4-2.64-.81-3.96-1.21.52-.25,1.04-.51,1.56-.76,1.15.21,2.25.52,3.16,1.32-.26.22-.51.44-.77.65Z"/>
      <path class="cls-109" d="m240.17,60.16c1.18-4.95,2.33-9.91,3.55-14.86.26-1.04.89-1.87,2.14-1.51,1.25.36,1.27,1.38,1.03,2.42-1.11,4.84-2.22,9.69-3.38,14.52-.24,1-.71,1.94-2.01,1.72-1.33-.22-1.38-1.21-1.33-2.31Z"/>
      <path class="cls-238" d="m118.53,52.13c.42-1.84-.66-3.93.9-5.59,0,0,0,.03,0,.03,2.62,1.54,1.86,3.84,1.37,6.08-.78-.04-1.77.78-2.27-.51Z"/>
      <path class="cls-144" d="m120.8,52.64c-.03-2.12.46-4.36-1.37-6.08,2.79.99,3.18,2.69,1.37,6.08Z"/>
      <path class="cls-134" d="m186.58,45.39c-.18,1.28.71,3.27-1.95,2.91-2.77-.37-1.24-2.16-1.02-3.34.36-1.93,1-3.81,1.52-5.71,1.72,0,1,1.33,1.12,2.14.2,1.32-.27,2.7.32,3.99Z"/>
      <path class="cls-203" d="m186.58,45.39c-1.21-1.87.28-4.38-1.44-6.14.42-1.85,1.2-1.49,1.38-.04.26,2.03.06,4.11.06,6.18Z"/>
      <path class="cls-152" d="m146.39,71.42c1.07-1.91-1.17-5.56,1.98-5.49,2.15.05,1.03,3.57,1,5.48-.03,1.71,1.2,4.9-1.39,4.86-2.5-.04-.89-3.23-1.59-4.86Z"/>
      <path class="cls-100" d="m239.78,86.51c-1.57-.15-1.79-1.01-1.59-2.1.21-1.16.11-2.67,1.77-2.75,1.51-.07,1.73,1.09,1.49,2.3-.22,1.13-.1,2.58-1.67,2.56Z"/>
      <path class="cls-43" d="m242.92,77.05c-.18.94-.24,2.05-1.6,1.98-.96-.05-1.61-.59-1.49-1.65.11-1,.42-1.96,1.68-1.98,1.06-.02,1.49.62,1.41,1.65Z"/>
      <path class="cls-139" d="m194.19,71.21c.25-1.15-.14-3.04,1.89-3.27,1.67-.19,2,1.14,1.81,2.51-.2,1.37.24,3.24-2.01,3.29-1.5.04-1.76-1.07-1.69-2.54Z"/>
      <path class="cls-117" d="m194,78.48c.3-.81.6-1.62.9-2.43.77-.07,1.78-.7,2.14.44.2.6.06,1.55-.32,2.05-.8,1.05-1.83.88-2.72-.06Z"/>
      <path class="cls-132" d="m72.46,72.74c.37,2.19,2.09,3.48.84,5.25-.31.43-1.33.53-1.58-.07-.65-1.56-.52-3.13.74-5.18Z"/>
      <path class="cls-222" d="m149.76,195.74c.61.05,1.22.09,1.83.14,2.2,1.19,1.27,2.91.76,4.56-1.46,3.03-3.76,5.19-6.84,6.52-.76.54-1.52.6-2.26-.04-2.64-1.53-5.16-3.18-6.13-6.33.09-1.58.18-3.16.27-4.73.46-.06.92-.12,1.39-.17,0,0-.06,0-.06,0,3.27.69,6.6.07,9.88.56.38-.16.77-.33,1.15-.49Z"/>
      <path class="cls-229" d="m152.18,210.58c-.23.16-.47.33-.7.49-1.68.32-3.37.64-5.05.95-2.04-.5-4.19-.04-6.2-.78-.92-.13-1.84-.26-2.76-.39-.52-.84-1.03-1.67-1.55-2.51.27-1.11-.36-2.38.58-3.43,1.63.3,1.85,2.19,3.21,2.71,1.82,1.27,3.94-.53,5.78.56,3.77,1.61,4.92-2.36,7.41-3.48.08,2,.46,4.03-.72,5.88Z"/>
      <path class="cls-88" d="m145.49,208.19c-1.94-.02-3.98.91-5.78-.56,1.2-.14,2.56.52,3.55-.71.75.01,1.5.03,2.26.04,0,.41-.02.82-.03,1.23Z"/>
      <path class="cls-229" d="m152.36,200.43c-.25-1.52-.51-3.04-.76-4.56.05-1.1.09-2.19.14-3.29,1.53-.83,3.19-.43,4.8-.55-.18,3.4-1.35,6.31-4.18,8.39Z"/>
      <path class="cls-192" d="m140.23,211.24c2.12-.17,4.22-.21,6.2.78-2.12.16-4.25.43-6.2-.78Z"/>
      <path class="cls-25" d="m148.61,196.23c-3.4,1.63-6.66.99-9.88-.56,2.91-1.71,6.17.17,9.18-.88.65-.23.52.91.7,1.44Z"/>
      <path class="cls-226" d="m159.7,162.9s-.35-.09-.35-.09c0,0-.35.09-.35.09-.99-.21-2.12-.22-2.25-1.63.94.21,1.88.42,2.82.62.76-.29.92.12.88.76-.25.08-.5.16-.75.24Z"/>
      <path class="cls-180" d="m130.53,162.93c-.77.13-1.4.91-2.29.51-.37-1.06-1.74-.54-2.23-1.4.6-.84,1.47-.94,2.4-.91,1.27.58,2.56.13,3.84.11-.02,1.13-.7,1.59-1.73,1.7Z"/>
      <path class="cls-188" d="m160.44,162.66c-.29-.25-.59-.51-.88-.76,1.26-.82,1.61-2.11,1.74-3.5,1.54.43,4.24-1.2,4.47.61.3,2.41-2.31,3.35-4.61,3.71-.23.04-.48-.04-.72-.07Z"/>
      <path class="cls-216" d="m128.41,161.12c-.47,1.18-1.54.77-2.4.91-1.33-.28-1.89-1.53-2.83-2.29.27-2.76,2.54-.68,3.61-1.49,1.53.4,1.35,1.76,1.61,2.87Z"/>
    </g>
  </g>
</svg>