<?xml version="1.0" encoding="UTF-8"?>
<svg id="Layer_2" data-name="Layer 2" xmlns="http://www.w3.org/2000/svg" viewBox="0 0 202.1 474.1">
  <defs>
    <style>
      .cls-1 {
        fill: #fff;
      }

      .cls-1, .cls-2 {
        stroke-width: 0px;
      }

      .cls-2 {
        fill: #ed1c24;
      }
    </style>
  </defs>
  <g id="Capa_1" data-name="Capa 1">
    <path class="cls-2" d="m202.1,45.5h-52.8c-.4-9.3-3.2-17.7-8.4-25-1.6-2.3-3.5-4.3-5.5-6.4C126.2,4.7,114.9,0,101.8,0s-24.4,4.7-33.8,14.1c-2.1,2.1-4,4.4-5.5,6.7-5.1,7.2-7.9,15.4-8.3,24.4H0l1.1,322.6h.1c11.1,53,44.3,88.4,99.9,106.2l.3.1.4-.1c54.6-15.3,88-50.5,100.1-105.7,0-.3,0-.5.1-.6l.1-.2V45.5h0Zm-55.2,1.3h0v1.3l52.7-.1v319.2c-.1.2-.2.4-.2.6-11.8,54-44.5,88.6-97.9,103.7-54.3-17.5-86.9-52.2-97.9-104L2.5,47.7h54.1v-1.2c.3-9,2.9-17.1,7.9-24.2v-.1c1.5-2.2,3.3-4.3,5.3-6.4,8.9-8.8,19.5-13.3,32-13.3s23,4.5,31.8,13.3h.1c1.9,2,3.6,4,5.1,6.2,5.2,7.2,7.9,15.5,8.1,24.8Z"/>
    <path class="cls-1" d="m146.9,48.1v-1.3c-.2-9.3-2.9-17.6-8.1-24.8-1.5-2.2-3.2-4.2-5.1-6.2h-.1c-8.8-8.8-19.4-13.3-31.8-13.3s-23.1,4.5-32,13.3c-2,2.1-3.8,4.2-5.3,6.4v.1c-5,7.1-7.6,15.2-7.9,24.2v1.2H2.5l1.1,319.8c11,51.8,43.6,86.5,97.9,104,53.4-15.1,86.1-49.7,97.9-103.7,0-.2.1-.4.2-.6V48l-52.7.1h0Zm-10.9-25h0v.1c5.1,7,7.6,15.1,7.6,24.3v.3c0,1-.1,2-.2,3.1h54l-1,317.4c-10.1,49.8-41.5,83-94.1,99.7l-.3.1-.4-.1c-50.2-14.3-82-47.6-95.6-99.9V50.8h53v-3.3c0-9,2.4-17,7.3-24.1,0-.1.1-.1.2-.2,1.3-2,3-4,4.8-5.8,8.3-8.4,18.3-12.5,30-12.5s21.6,4.1,29.9,12.5c1.7,1.8,3.4,3.7,4.8,5.7Z"/>
    <path class="cls-2" d="m136,23.2v-.1c-1.4-2-3.1-3.9-4.8-5.7-8.3-8.4-18.2-12.5-29.9-12.5s-21.7,4.1-30,12.5c-1.8,1.8-3.5,3.8-4.8,5.8-.1.1-.2.1-.2.2-4.9,7.1-7.3,15.1-7.3,24.1v3.3H6v317.3c13.6,52.3,45.4,85.6,95.6,99.9l.4.1.3-.1c52.6-16.7,84-49.9,94.1-99.7l1-317.4h-54c.1-1.1.2-2.1.2-3.1v-.3c0-9.2-2.5-17.3-7.6-24.3h0Zm-6.6-4h0c1.2,1.1,2.3,2.4,3.4,3.8-2.1.3-4.1.6-6.1.8h-.1c-8,1.2-16,1.7-24.1,1.9V7.5c10.5.2,19.5,4.1,26.9,11.7h0Zm-1.1,7h0c2-.4,4-.7,6.1-1,4.3,6.3,6.5,13.3,6.7,21.3h-12.7c1.8-6.5,1.8-13.3-.1-20.3h0Zm-58.8-3h0c1.1-1.4,2.3-2.7,3.6-4,7.6-7.7,16.7-11.7,27.5-11.8v18.3c-7.7,0-15.3-.5-23-1.4-2.7-.3-5.4-.6-8.1-1.1h0Zm-1.5,2.3h0c2.5.4,5.2.8,7.8,1.2-2.1,6.5-2.1,13.1,0,19.8h-14.3c.1-7.8,2.3-14.8,6.5-21h0Zm33.2,2.7h.1c8.2,0,16.4-.7,24.5-1.7,1.9,7,1.9,13.6,0,20h-47.5c-2.1-6.5-2.1-13,0-19.5,7.7.8,15.2,1.2,22.9,1.2h0Zm-25.5,40.3h0c-2.7.2-5.2.5-7.9.8-3.5-5.2-5.5-11-6.1-17.3v-.1c-.1-.9-.2-1.9-.2-2.9h14.2c-2.3,6.5-2.2,13,0,19.5h0Zm-6.2,3.2h0c2.7-.4,5.3-.7,8-1h.1c7.4-.7,14.9-1,22.4-1v17.8c-10.5-.3-19.5-4.2-26.9-11.7-1.3-1.3-2.6-2.6-3.6-4.1h0Zm31.8-4.5h0c-7.7,0-15.3.3-23,1-2.5-6.5-2.5-12.9,0-19.2h47.6c2.4,6.7,2.4,13.3.1,19.7-8.3-1-16.5-1.5-24.7-1.5h0Zm39.8-18.2h0c-.1,1-.2,2-.3,3-.6,6.5-2.7,12.5-6.4,17.7-2-.2-4-.5-5.9-.7,2.3-6.5,2.3-13.2.1-20h12.5Zm-11.7,26.8h0v.1c-7.4,7.4-16.4,11.3-26.9,11.6v-17.8c8.1.1,16.1.6,24.1,1.5h.1c2,.3,4,.5,6.1.8-1.1,1.3-2.2,2.6-3.5,3.8h.1Zm8.8,27.7h0v7.5H33.7v137.5l67.6-96h-34.8v-7.7h49.6L25.9,274.1V103.5h112.3ZM8.4,367.7h0v-42.7L194.9,56.2l-1,311.7c-10,48.7-40.6,81.2-91.9,97.6-49.1-14.2-80.2-46.8-93.6-97.8Z"/>
    <path class="cls-1" d="m132.8,23c-1.1-1.4-2.2-2.7-3.4-3.8-7.4-7.6-16.4-11.5-26.9-11.7v18.2c8.1-.2,16.1-.7,24.1-1.9h.1c2-.2,4-.5,6.1-.8Z"/>
    <path class="cls-1" d="m134.4,25.2c-2.1.3-4.1.6-6.1,1,1.9,7,1.9,13.8.1,20.3h12.7c-.2-8-2.4-15-6.7-21.3Z"/>
    <path class="cls-1" d="m73.1,19.2c-1.3,1.3-2.5,2.6-3.6,4,2.7.5,5.4.8,8.1,1.1,7.7.9,15.3,1.4,23,1.4V7.4c-10.8.1-19.9,4.1-27.5,11.8Z"/>
    <path class="cls-1" d="m75.8,26.7c-2.6-.4-5.3-.8-7.8-1.2-4.2,6.2-6.4,13.2-6.5,21h14.3c-2.1-6.7-2.1-13.3,0-19.8Z"/>
    <path class="cls-1" d="m101.3,28.2h-.1c-7.7,0-15.2-.4-22.9-1.2-2.1,6.5-2.1,13,0,19.5h47.5c1.9-6.4,1.9-13,0-20-8.1,1-16.3,1.7-24.5,1.7Z"/>
    <path class="cls-1" d="m67.8,69.3c2.7-.3,5.2-.6,7.9-.8-2.2-6.5-2.3-13,0-19.5h-14.2c0,1,.1,2,.2,2.9v.1c.6,6.3,2.6,12.1,6.1,17.3Z"/>
    <path class="cls-1" d="m77.5,70.7c-2.7.3-5.3.6-8,1,1,1.5,2.3,2.8,3.6,4.1,7.4,7.5,16.4,11.4,26.9,11.7v-17.8c-7.5,0-15,.3-22.4,1h-.1Z"/>
    <path class="cls-1" d="m101.3,67.2c8.2,0,16.4.5,24.7,1.5,2.3-6.4,2.3-13-.1-19.7h-47.6c-2.5,6.3-2.5,12.7,0,19.2,7.7-.7,15.3-1,23-1Z"/>
    <path class="cls-1" d="m140.8,52c.1-1,.2-2,.3-3h-12.5c2.2,6.8,2.2,13.5-.1,20,1.9.2,3.9.5,5.9.7,3.7-5.2,5.8-11.2,6.4-17.7Z"/>
    <path class="cls-1" d="m129.4,75.9l-.1-.1c1.3-1.2,2.4-2.5,3.5-3.8-2.1-.3-4.1-.5-6.1-.8h-.1c-8-.9-16-1.4-24.1-1.5v17.8c10.5-.3,19.5-4.2,26.9-11.6Z"/>
    <polygon class="cls-1" points="138.2 111 138.2 103.5 25.9 103.5 25.9 274.1 116.1 144.8 66.5 144.8 66.5 152.5 101.3 152.5 33.7 248.5 33.7 111 138.2 111"/>
    <path class="cls-1" d="m8.4,325v42.7c13.4,51,44.5,83.6,93.6,97.8,51.3-16.4,81.9-48.9,91.9-97.6l1-311.7L8.4,325h0Zm66.8-57h0l-9.6-6.7,111.6-158.2v88.9h-11.5v-52.9l-59.5,84.7v34.8c2.3-.3,4.6-.4,6.9-.4,10.6,0,19.8,2.8,28,8.6l-6.7,9.7c-6-4.1-12.9-6.1-20.7-6.1-2.6,0-5.1.3-7.5.7v25.7h52v12.2h-52v32.3c2.4.5,4.9.7,7.5.7,7.3,0,13.8-1.7,19.6-5.3l7.8,9.1c-8.1,5.8-17.4,8.7-28,8.7-2.3,0-4.6-.1-6.9-.4v10.4h-11.2v-13.2c-6-2.4-11.4-6-16.3-10.9-9.5-9.5-14.2-20.8-14.2-34.1s4.7-24.6,14.2-34c4.9-4.9,10.3-8.5,16.3-10.8v-21.7l-19.8,28.2h0Zm14.2,110.8h0c3.8,2.3,7.5,2.3,11.3,0l.6-.5.8.5c3.4,2.5,7.2,2.5,11.2,0l3.1-1.9.2.2-4.8,10c2.7,1.2,5.1,2.7,7.3,4.8,4.9,4.6,7.4,10.2,7.4,16.7s-2.5,12-7.4,16.6v-.1c-4.6,4.4-10.1,6.7-16.6,7v8.2c8-5.5,15.4-5,22.3,1.6l1.2,1.1-1.3.8c-7.4,5.4-14.8,5.9-22.2,1.4v9.1h-2.5v-9.8c-2.8,2.3-5.7,3.5-8.8,3.5-3.8,0-7.7-1.8-11.9-5.5l-1.1-1,1.3-.9c6.8-5.2,13.7-5.6,20.5-1.4v-7.1c-6.3-.4-11.7-2.7-16.2-7v.1c-4.9-4.6-7.3-10.1-7.3-16.6s2.4-12.1,7.3-16.7c2.5-2.3,5.4-4.1,8.5-5.3l-6.8-8.9.8-.8,3.1,1.9Z"/>
    <path class="cls-2" d="m65.6,261.3l9.6,6.7,19.8-28.2v21.7c-6,2.3-11.4,5.9-16.3,10.8-9.5,9.4-14.2,20.7-14.2,34s4.7,24.6,14.2,34.1c4.9,4.9,10.3,8.5,16.3,10.9v13.2h11.2v-10.4c2.3.3,4.6.4,6.9.4,10.6,0,19.9-2.9,28-8.7l-7.8-9.1c-5.8,3.6-12.3,5.3-19.6,5.3-2.6,0-5.1-.2-7.5-.7v-32.3h52v-12.2h-52v-25.7c2.4-.4,4.9-.7,7.5-.7,7.8,0,14.7,2,20.7,6.1l6.7-9.7c-8.2-5.8-17.4-8.6-28-8.6-2.3,0-4.6.1-6.9.4v-34.8l59.5-84.7v52.9h11.5v-88.9l-111.6,158.2h0Zm21.7,19.6h0c2.4-2.3,5-4.2,7.7-5.7v62.1c-2.7-1.5-5.3-3.5-7.7-5.8-7.3-7-10.9-15.4-10.9-25.2s3.6-18.4,10.9-25.4Z"/>
    <path class="cls-1" d="m95,275.2c-2.7,1.5-5.3,3.4-7.7,5.7-7.3,7-10.9,15.4-10.9,25.4s3.6,18.2,10.9,25.2c2.4,2.3,5,4.3,7.7,5.8v-62.1Z"/>
    <path class="cls-2" d="m100.7,378.8c-3.8,2.3-7.5,2.3-11.3,0l-3.1-1.9-.8.8,6.8,8.9c-3.1,1.2-6,3-8.5,5.3-4.9,4.6-7.3,10.2-7.3,16.7s2.4,12,7.3,16.6v-.1c4.5,4.3,9.9,6.6,16.2,7v7.1c-6.8-4.2-13.7-3.8-20.5,1.4l-1.3.9,1.1,1c4.2,3.7,8.1,5.5,11.9,5.5,3.1,0,6-1.2,8.8-3.5v9.8h2.5v-9.1c7.4,4.5,14.8,4,22.2-1.4l1.3-.8-1.2-1.1c-6.9-6.6-14.3-7.1-22.3-1.6v-8.2c6.5-.3,12-2.6,16.6-7v.1c4.9-4.6,7.4-10.1,7.4-16.6s-2.5-12.1-7.4-16.7c-2.2-2.1-4.6-3.6-7.3-4.8l4.8-10-.2-.2-3.1,1.9c-4,2.5-7.8,2.5-11.2,0l-.8-.5-.6.5h0Zm-8.2,4h0c3,.6,5.8.1,8.8-1.5,3.2,2,6.5,2.5,10,1.2l-2.8,5.9,1.3.5c2.8,1.1,5.3,2.7,7.6,4.9v-.1c4.4,4.1,6.6,9.1,6.6,14.9s-2.2,10.6-6.6,14.7c-4.4,4.2-9.7,6.3-15.9,6.3h-.2c-6.2-.1-11.5-2.1-15.8-6.3-4.3-4.1-6.5-9-6.5-14.7s2.2-10.8,6.5-14.9c2.7-2.6,5.7-4.3,9.2-5.2l1.7-.5-3.9-5.2h0Zm6.8,58.9h0c-2.6,2.5-5.3,3.8-8.1,3.8s-5.9-1.3-8.9-3.9c5.6-3.6,11.3-3.6,17,.1h0Zm22.7,1h0c-6.2,4-12.4,4-18.6,0,6.6-4.7,12.8-4.7,18.6,0Z"/>
    <path class="cls-1" d="m101.3,381.3c-3,1.6-5.8,2.1-8.8,1.5l3.9,5.2-1.7.5c-3.5.9-6.5,2.6-9.2,5.2-4.3,4.1-6.5,9.1-6.5,14.9s2.2,10.6,6.5,14.7c4.3,4.2,9.6,6.2,15.8,6.3h.2c6.2,0,11.5-2.1,15.9-6.3,4.4-4.1,6.6-9,6.6-14.7s-2.2-10.8-6.6-14.9v.1c-2.3-2.2-4.8-3.8-7.6-4.9l-1.3-.5,2.8-5.9c-3.5,1.3-6.8.8-10-1.2h0Zm-3.7,26.3h0c-2.3-3.6-1.3-8.5,3.1-14.8.5,3,2.1,7.4,4.9,13.3,2.7,6,1.7,11.5-3.4,16.7-.7-6.5-2.2-11.6-4.6-15.2Z"/>
    <path class="cls-2" d="m100.7,392.8c-4.4,6.3-5.4,11.2-3.1,14.8,2.4,3.6,3.9,8.7,4.6,15.2,5.1-5.2,6.1-10.7,3.4-16.7-2.8-5.9-4.4-10.3-4.9-13.3Z"/>
    <path class="cls-1" d="m91.2,445.5c2.8,0,5.5-1.3,8.1-3.8-5.7-3.7-11.4-3.7-17-.1,3,2.6,6,3.9,8.9,3.9Z"/>
  </g>
</svg>