<?xml version="1.0" encoding="UTF-8"?>
<svg id="Layer_2" data-name="Layer 2" xmlns="http://www.w3.org/2000/svg" xmlns:xlink="http://www.w3.org/1999/xlink" viewBox="0 0 425.76 499.92">
  <defs>
    <style>
      .cls-1 {
        stroke-width: 2.13px;
      }

      .cls-1, .cls-2, .cls-3, .cls-4, .cls-5 {
        fill: none;
      }

      .cls-1, .cls-3, .cls-5 {
        stroke: #1b1918;
      }

      .cls-6 {
        clip-path: url(#clippath);
      }

      .cls-2, .cls-7, .cls-8, .cls-9, .cls-10, .cls-11 {
        stroke-width: 0px;
      }

      .cls-12 {
        clip-path: url(#clippath-1);
      }

      .cls-13 {
        clip-path: url(#clippath-4);
      }

      .cls-14 {
        clip-path: url(#clippath-3);
      }

      .cls-15 {
        clip-path: url(#clippath-2);
      }

      .cls-3 {
        stroke-width: .16px;
      }

      .cls-4 {
        stroke: #000;
        stroke-width: 3.19px;
      }

      .cls-7 {
        fill: #009035;
      }

      .cls-7, .cls-8, .cls-9, .cls-10, .cls-11 {
        fill-rule: evenodd;
      }

      .cls-8, .cls-16 {
        fill: #1b1918;
      }

      .cls-9 {
        fill: #5c6b6f;
      }

      .cls-10 {
        fill: #fff;
      }

      .cls-11 {
        fill: #630;
      }

      .cls-5 {
        stroke-width: 6px;
      }

      .cls-16 {
        font-family: f-0-0, 'f 0-0';
        font-size: 49.5px;
      }
    </style>
    <clipPath id="clippath">
      <rect class="cls-2" width="425.76" height="499.92"/>
    </clipPath>
    <clipPath id="clippath-1">
      <rect class="cls-2" width="425.76" height="499.92"/>
    </clipPath>
    <clipPath id="clippath-2">
      <rect class="cls-2" width="425.76" height="499.92"/>
    </clipPath>
    <clipPath id="clippath-3">
      <rect class="cls-2" width="425.76" height="499.92"/>
    </clipPath>
    <clipPath id="clippath-4">
      <rect class="cls-2" width="425.76" height="499.92"/>
    </clipPath>
  </defs>
  <g id="Layer_1-2" data-name="Layer 1">
    <g>
      <g class="cls-6">
        <path class="cls-10" d="m212.55,105.36c67.91,26.01,136.87,30.69,208.6-23.64,10.05,191.86-58.39,330.92-208.6,413.81C62.35,412.64-6.09,273.58,3.96,81.72c71.74,54.33,140.69,49.66,208.6,23.64h0Z"/>
      </g>
      <path class="cls-7" d="m288.99,219.28v223.25c-24.34,20.96-49.86,38.39-76.27,53.18l-6.5-3.73v-243.81l82.77-28.88Z"/>
      <path class="cls-7" d="m419.58,173.71c-7.44,93.76-40.12,171.41-95.79,234.38v-200.95l95.79-33.43Z"/>
      <path class="cls-7" d="m170.3,260.7v208.54c-29.46-20.47-56.83-45.28-80.67-75v-105.38l80.67-28.15Z"/>
      <g class="cls-12">
        <path class="cls-5" d="m18.92,251.42L422.1,113.56c.54,18.49-.67,38.08-2.53,60.15L37.78,306.95c-7.93-18.94-12.51-32.3-18.86-55.54h0ZM212.55,105.36c67.91,26.01,136.87,30.69,208.6-23.64,10.05,191.86-58.39,330.92-208.6,413.81C62.35,412.64-6.09,273.58,3.96,81.72c71.74,54.33,140.69,49.66,208.6,23.64h0Z"/>
      </g>
      <text class="cls-16" transform="translate(82.84 277.49) rotate(-19.36)"><tspan x="0" y="0">C.D.GUIJUELO</tspan></text>
      <g class="cls-15">
        <path class="cls-11" d="m212.55,1.58c-47.05,0-85.2,38.15-85.2,85.2,0,34.46,20.76,65.53,52.6,78.71,31.84,13.19,68.49,5.9,92.85-18.47s31.66-61.01,18.47-92.85C278.08,22.34,247.02,1.58,212.55,1.58h0Z"/>
        <path class="cls-4" d="m212.55,1.58c-47.05,0-85.2,38.15-85.2,85.2,0,34.46,20.76,65.53,52.6,78.71,31.84,13.19,68.49,5.9,92.85-18.47,24.37-24.37,31.66-61.02,18.47-92.85C278.08,22.34,247.02,1.58,212.55,1.58h0Z"/>
      </g>
      <path class="cls-11" d="m203.02,2.11c19.9,13.03,9.39,41.75-13.98,41.75-21.81,0-61.03,34.78-61.03,53.62"/>
      <g class="cls-14">
        <path class="cls-4" d="m203.02,2.11c19.9,13.03,9.39,41.75-13.98,41.75-21.81,0-61.03,34.78-61.03,53.62"/>
      </g>
      <path class="cls-11" d="m139.71,130.9c1.69-6.66,7.37-9.18,12.79-12.2,7.18-4.01,14.29-3.14,20.52-2.8,1.71-1.18,1.06-24.89,39.8-28.33,28.51-2.53,10.44-44.14-11.85-46.58"/>
      <path class="cls-4" d="m139.71,130.9c1.69-6.66,7.37-9.18,12.79-12.2,7.18-4.01,14.29-3.14,20.52-2.8,1.71-1.18,1.06-24.89,39.8-28.33,28.51-2.53,10.44-44.14-11.85-46.58"/>
      <path class="cls-11" d="m289.92,122.52c-19.22,8.17-30.88-12.61-25.63-31.45,8.36-29.99-10.28-66.44-26.79-85.78"/>
      <g class="cls-13">
        <path class="cls-4" d="m289.92,122.52c-19.22,8.17-30.88-12.61-25.63-31.45,8.36-29.99-10.28-66.44-26.79-85.78"/>
      </g>
      <path class="cls-11" d="m263.09,102.2c-13.77,20.83-45.62,5.02-50.18-14.64"/>
      <path class="cls-4" d="m263.09,102.2c-13.77,20.83-45.62,5.02-50.18-14.64"/>
      <path class="cls-11" d="m173.14,115.89c12.73,25,62.21,40.37,88.74,40.37"/>
      <path class="cls-4" d="m173.14,115.89c12.73,25,62.21,40.37,88.74,40.37"/>
      <path class="cls-9" d="m97.43,141.27l-4.54-4.37c11.07,2.62,20.17,6.59,23.84,14.32l-.08-10.89c7.46,2.26,18.29,16.91,19.05,25.71v33.87H30v-33.73c.75-8.8,11.59-23.59,19.05-25.85l-.08,10.89c5-8.34,13.94-11.91,23.85-14.33-3.29,2.75-6.49,6.24-9.61,10.53,1.02,3.97,5.93,7.14,12.25,10.01,7.25-10.1,14.57-15.8,21.98-16.17h0Z"/>
      <path class="cls-1" d="m97.43,141.27l-4.54-4.37c11.07,2.62,20.17,6.59,23.84,14.32l-.08-10.89c7.46,2.26,18.29,16.91,19.05,25.71v33.87H30v-33.73c.75-8.8,11.59-23.59,19.05-25.85l-.08,10.89c5-8.34,13.94-11.91,23.85-14.33-3.29,2.75-6.49,6.24-9.61,10.53,1.02,3.97,5.93,7.14,12.25,10.01,7.25-10.1,14.57-15.8,21.98-16.17h0Zm-14.59-11.82c12.34,7.71,24.61,20.23,25.86,33.08v37.38h-51.72v-37.38c1.25-12.86,13.52-25.37,25.86-33.08h0Z"/>
      <path class="cls-8" d="m116.66,140.34l.08,10.89c2.79,16.15,1.74,32.42,1.74,48.69h6.25c0-24.39,2.36-40.1-2.49-56.23-1.98-1.74-3.83-2.82-5.57-3.35h0Z"/>
      <path class="cls-3" d="m116.66,140.34l.08,10.89c2.79,16.15,1.74,32.41,1.74,48.69h6.25c0-24.39,2.36-40.1-2.49-56.23-1.98-1.74-3.83-2.82-5.57-3.35h0Z"/>
      <path class="cls-8" d="m48.96,151.23c-2.45,16-1.74,32.56-1.74,48.69h-6.25c0-18.18-2.9-38.4,2.44-56.17,1.98-1.69,3.81-2.73,5.62-3.41l-.08,10.89Z"/>
      <path class="cls-3" d="m48.96,151.23c-2.45,16-1.74,32.56-1.74,48.69h-6.25c0-18.18-2.9-38.4,2.44-56.17,1.98-1.69,3.81-2.73,5.62-3.41l-.08,10.89Z"/>
    </g>
  </g>
</svg>