<?xml version="1.0" encoding="UTF-8"?>
<svg id="Layer_2" data-name="Layer 2" xmlns="http://www.w3.org/2000/svg" viewBox="0 0 33.56 19.58">
  <defs>
    <style>
      .cls-1 {
        fill: #fff;
      }

      .cls-1, .cls-2 {
        stroke-width: 0px;
      }

      .cls-2 {
        fill: #ee1c25;
      }
    </style>
  </defs>
  <g id="Layer_2-2" data-name="Layer 2">
    <path class="cls-2" d="m0,0h33.56v19.58H0V0Z"/>
    <g id="a">
      <path class="cls-1" d="m18.38,3.65c-.55.18-.85.76-.67,1.31.03.09.07.17.12.25.51.78.28,1.82-.5,2.33-.08.05-.17.1-.26.14-.73.31-1.08,1.16-.77,1.89.08.19.21.37.36.51-1.13-.8-1.41-2.36-.64-3.5-.01-.01-.03-.03-.04-.04-.79,1.16-.51,2.75.62,3.57-1.73-.69-2.57-2.65-1.87-4.38.58-1.46,2.09-2.32,3.64-2.08"/>
      <path class="cls-2" d="m16.85,5.73l-1.03.45,1.1.24-.74-.84.11,1.12"/>
    </g>
    <g id="b">
      <g id="a-2" data-name="a">
        <path class="cls-1" d="m23.47,9.68c-.34-.47-.99-.57-1.45-.24-.08.05-.14.12-.2.19-.59.72-1.65.83-2.37.25-.08-.06-.15-.13-.21-.21-.52-.6-1.43-.67-2.03-.14-.16.14-.29.31-.37.5.41-1.32,1.8-2.07,3.13-1.69,0-.02.02-.03.02-.05-1.35-.39-2.77.36-3.2,1.7.12-1.86,1.73-3.26,3.59-3.14,1.56.1,2.85,1.28,3.1,2.82"/>
        <path class="cls-2" d="m21.02,8.87l-.74-.84.11,1.12.57-.97-1.03.45"/>
      </g>
      <g id="a-3" data-name="a">
        <path class="cls-1" d="m11.65,14.5c.55.18,1.13-.12,1.31-.66.03-.09.05-.18.05-.27.05-.93.84-1.64,1.77-1.59.1,0,.2.02.29.04.78.18,1.55-.3,1.73-1.08.05-.21.05-.42,0-.63.44,1.31-.24,2.73-1.54,3.21,0,.02,0,.04.01.06,1.32-.48,2.03-1.92,1.59-3.26.99,1.57.52,3.65-1.06,4.65-1.33.84-3.06.64-4.17-.46"/>
        <path class="cls-2" d="m14.11,13.71l1.1.24-.74-.84.11,1.12.57-.97"/>
      </g>
    </g>
    <g id="b-2" data-name="b">
      <g id="a-4" data-name="a">
        <path class="cls-1" d="m19.32,16.38c.34-.46.24-1.12-.22-1.46-.07-.05-.16-.1-.24-.13-.87-.33-1.3-1.31-.97-2.18.04-.09.08-.18.13-.27.41-.68.19-1.57-.49-1.98-.18-.11-.38-.18-.59-.2,1.38-.01,2.52,1.08,2.57,2.46.02,0,.04,0,.06,0-.04-1.41-1.2-2.52-2.61-2.52,1.8-.46,3.64.64,4.09,2.44.38,1.52-.33,3.1-1.73,3.82"/>
        <path class="cls-2" d="m19.33,13.8l.57-.97-1.03.45,1.1.24-.74-.84"/>
      </g>
      <g id="a-5" data-name="a">
        <path class="cls-1" d="m11.08,6.63c0,.57.46,1.04,1.04,1.05.09,0,.18-.01.27-.04.9-.24,1.82.29,2.06,1.19.03.1.04.19.05.29.07.79.77,1.38,1.56,1.31.21-.02.41-.08.6-.19-1.11.82-2.68.61-3.53-.48-.02,0-.03.02-.05.03.86,1.11,2.45,1.34,3.59.51-1.19,1.43-3.32,1.62-4.74.43-1.2-1-1.56-2.71-.85-4.11"/>
        <path class="cls-2" d="m12.59,8.73l.11,1.12.57-.97-1.03.45,1.1.24"/>
      </g>
    </g>
  </g>
</svg>