<?xml version="1.0" encoding="UTF-8"?>
<svg id="Layer_2" data-name="Layer 2" xmlns="http://www.w3.org/2000/svg" viewBox="0 0 534.48 637.49">
  <defs>
    <style>
      .cls-1, .cls-2, .cls-3, .cls-4, .cls-5 {
        stroke-width: 0px;
      }

      .cls-2 {
        fill: #f7dd64;
      }

      .cls-3 {
        fill: #231f20;
      }

      .cls-4 {
        fill: #fff;
      }

      .cls-5 {
        fill: #0096d3;
      }
    </style>
  </defs>
  <g id="_Ñëîé_1" data-name="Ñëîé 1">
    <g>
      <circle class="cls-5" cx="267.24" cy="267.24" r="246.13" transform="translate(-110.69 267.24) rotate(-45)"/>
      <circle class="cls-4" cx="267.24" cy="267.24" r="169.83" transform="translate(-110.69 267.24) rotate(-45)"/>
      <polygon class="cls-3" points="350.45 422.19 181.45 420.19 170.45 451.19 195.45 475.19 196.45 562.19 264.45 601.19 339.45 562.19 338.45 472.19 360.45 454.19 350.45 422.19"/>
      <path class="cls-2" d="m250.94,610.23c0,5.63-4.57,10.2-10.2,10.2s-10.2-4.57-10.2-10.2,4.57-10.21,10.2-10.21,10.2,4.57,10.2,10.21Z"/>
      <path class="cls-3" d="m229.03,610.23c0,6.45,5.25,11.7,11.7,11.7s11.7-5.25,11.7-11.7-5.25-11.71-11.7-11.71-11.7,5.25-11.7,11.71Zm3,0c0-4.8,3.9-8.71,8.7-8.71s8.7,3.91,8.7,8.71-3.9,8.7-8.7,8.7-8.7-3.9-8.7-8.7Z"/>
      <path class="cls-2" d="m279.99,623.23c0,7.04-5.71,12.75-12.75,12.75s-12.75-5.71-12.75-12.75,5.71-12.76,12.75-12.76,12.75,5.71,12.75,12.76Z"/>
      <path class="cls-3" d="m252.98,623.23c0,7.86,6.39,14.25,14.25,14.25s14.25-6.39,14.25-14.25-6.39-14.26-14.25-14.26-14.25,6.4-14.25,14.26Zm3,0c0-6.21,5.05-11.26,11.25-11.26s11.25,5.05,11.25,11.26-5.05,11.25-11.25,11.25-11.25-5.05-11.25-11.25Z"/>
      <path class="cls-2" d="m202.19,583.11c0,5.63-4.57,10.2-10.2,10.2s-10.2-4.57-10.2-10.2,4.57-10.21,10.2-10.21,10.2,4.57,10.2,10.21Z"/>
      <path class="cls-3" d="m180.28,583.11c0,6.45,5.25,11.7,11.7,11.7s11.7-5.25,11.7-11.7-5.25-11.71-11.7-11.71-11.7,5.25-11.7,11.71Zm3,0c0-4.8,3.9-8.71,8.7-8.71s8.7,3.91,8.7,8.71-3.9,8.7-8.7,8.7-8.7-3.9-8.7-8.7Z"/>
      <path class="cls-2" d="m226.82,596.73c0,5.63-4.57,10.2-10.2,10.2s-10.2-4.57-10.2-10.2,4.57-10.21,10.2-10.21,10.2,4.57,10.2,10.21Z"/>
      <path class="cls-3" d="m204.91,596.73c0,6.45,5.25,11.7,11.7,11.7s11.7-5.25,11.7-11.7-5.25-11.71-11.7-11.71-11.7,5.25-11.7,11.71Zm3,0c0-4.8,3.9-8.71,8.7-8.71s8.7,3.91,8.7,8.71-3.9,8.7-8.7,8.7-8.7-3.9-8.7-8.7Z"/>
      <path class="cls-2" d="m283.53,610.23c0,5.63,4.57,10.2,10.2,10.2s10.2-4.57,10.2-10.2-4.57-10.21-10.2-10.21-10.2,4.57-10.2,10.21Z"/>
      <path class="cls-3" d="m282.03,610.23c0,6.45,5.25,11.7,11.7,11.7s11.7-5.25,11.7-11.7-5.25-11.71-11.7-11.71-11.7,5.25-11.7,11.71Zm3,0c0-4.8,3.9-8.71,8.7-8.71s8.7,3.91,8.7,8.71-3.9,8.7-8.7,8.7-8.7-3.9-8.7-8.7Z"/>
      <path class="cls-2" d="m332.28,583.11c0,5.63,4.57,10.2,10.2,10.2s10.2-4.57,10.2-10.2-4.57-10.21-10.2-10.21-10.2,4.57-10.2,10.21Z"/>
      <path class="cls-3" d="m330.78,583.11c0,6.45,5.25,11.7,11.7,11.7s11.7-5.25,11.7-11.7-5.25-11.71-11.7-11.71-11.7,5.25-11.7,11.71Zm3,0c0-4.8,3.9-8.71,8.7-8.71s8.7,3.91,8.7,8.71-3.9,8.7-8.7,8.7-8.7-3.9-8.7-8.7Z"/>
      <path class="cls-2" d="m307.66,596.73c0,5.63,4.57,10.2,10.2,10.2s10.2-4.57,10.2-10.2-4.57-10.21-10.2-10.21-10.2,4.57-10.2,10.21Z"/>
      <path class="cls-3" d="m306.16,596.73c0,6.45,5.25,11.7,11.7,11.7s11.7-5.25,11.7-11.7-5.25-11.71-11.7-11.71-11.7,5.25-11.7,11.71Zm3,0c0-4.8,3.9-8.71,8.7-8.71s8.7,3.91,8.7,8.71-3.9,8.7-8.7,8.7-8.7-3.9-8.7-8.7Z"/>
      <path class="cls-2" d="m295.27,445.69c-.55,0-.99.44-.99.99v110.54c0,.35.18.68.49.86.3.18.68.18.99.01l7.01-3.91c.31-.18.51-.51.51-.87,0,0,0-48.22,0-50.13h9.76c.55,0,.99-.44.99-.99v-7c0-.55-.44-.99-.99-.99h-9.76c0-1.84,0-37.67,0-39.52h16.51c.55,0,.99-.44.99-.99v-7c0-.55-.44-.99-.99-.99h-24.5Z"/>
      <path class="cls-3" d="m295.27,444.19c-1.37,0-2.49,1.12-2.49,2.49v110.54c0,.88.47,1.7,1.23,2.15.76.45,1.71.46,2.48.03l7.01-3.91c.79-.44,1.28-1.27,1.28-2.18,0,0,0-40.34,0-48.63h8.26c1.37,0,2.49-1.12,2.49-2.49v-7c0-1.37-1.12-2.49-2.49-2.49h-8.26c0-2.56,0-33.95,0-36.52h15.01c1.37,0,2.49-1.12,2.49-2.49v-7c0-1.37-1.12-2.49-2.49-2.49h-24.5Zm23.99,3v5.98h-16c-.83,0-1.5.67-1.5,1.5v39.52c0,.4.16.78.44,1.06.28.28.66.44,1.06.44h9.25v5.98h-9.25c-.4,0-.78.16-1.06.44-.28.28-.44.66-.44,1.06,0,0,0,49.25,0,49.83-.43.24-4.84,2.7-5.99,3.35,0-1.7,0-108.17,0-109.17h23.48Z"/>
      <path class="cls-2" d="m254.71,463.38v89.07c0,9.75,7.01,17.69,15.62,17.69s15.62-7.93,15.62-17.69c0-.4-.25-.77-.62-.92l-7-2.83c-.3-.12-.65-.08-.92.1-.27.18-.44.49-.44.82l-.05,3.88c-.4,4.44-3.23,7.78-6.59,7.78-3.66,0-6.63-3.96-6.63-8.83v-89.07c0-4.87,2.98-8.83,6.63-8.83,3.34,0,6.24,3.46,6.6,7.89,0,0,.04,3.78.04,3.78,0,.33.17.64.44.82.27.18.62.22.92.1l7-2.83c.37-.15.62-.52.62-.92,0-9.75-7.01-17.69-15.62-17.69s-15.62,7.93-15.62,17.69Z"/>
      <path class="cls-3" d="m253.21,463.38v89.07c0,10.58,7.68,19.19,17.12,19.19s17.12-8.61,17.12-19.19c0-1.02-.61-1.93-1.56-2.31l-7-2.83c-.76-.31-1.63-.22-2.32.24-.69.46-1.1,1.22-1.11,2.05,0,0-.04,3.63-.05,3.8-.33,3.58-2.56,6.38-5.09,6.38-2.78,0-5.13-3.36-5.13-7.33v-89.07c0-3.97,2.35-7.33,5.13-7.33,2.52,0,4.8,2.9,5.1,6.48,0,.18.04,3.7.04,3.7,0,.83.42,1.6,1.11,2.05.69.46,1.56.55,2.32.24l7-2.83c.95-.38,1.56-1.29,1.56-2.31,0-10.58-7.68-19.19-17.12-19.19s-17.12,8.61-17.12,19.19Zm3,89.07v-89.07c0-8.92,6.33-16.19,14.12-16.19s13.93,7.09,14.09,15.85c-.56.23-4.9,1.98-5.96,2.41-.01-1.1-.03-3.04-.03-3.04-.42-5.3-3.98-9.37-8.1-9.37-4.48,0-8.13,4.63-8.13,10.33v89.07c0,5.69,3.65,10.33,8.13,10.33,4.14,0,7.61-3.93,8.08-9.15,0-.04,0-.08,0-.12,0,0,.03-2.19.04-3.15,1.06.43,5.4,2.19,5.96,2.41-.16,8.77-6.4,15.85-14.09,15.85s-14.12-7.26-14.12-16.19Z"/>
      <path class="cls-2" d="m232.2,445.69c-.55,0-.99.44-.99.99,0,0,0,45.6,0,47.51h-8.52c0-1.9,0-47.51,0-47.51,0-.26-.1-.52-.29-.7-.19-.19-.44-.29-.7-.29h-7c-.55,0-.99.44-.99.99v96.83c0,.36.19.69.5.87l7.01,3.91c.31.17.68.17.99-.01.3-.18.49-.5.49-.86,0,0,0-42.35,0-44.25h8.51c0,1.91,0,50.11,0,50.11,0,.36.19.69.51.87l7,3.91c.31.17.68.17.99-.01.3-.18.49-.5.49-.86v-110.51c0-.26-.1-.52-.29-.7-.19-.19-.44-.29-.7-.29h-7Z"/>
      <path class="cls-3" d="m232.2,444.19c-1.37,0-2.49,1.12-2.49,2.49,0,0,0,43.19,0,46.01h-5.52c0-2.81,0-46.01,0-46.01,0-.67-.26-1.29-.73-1.76s-1.1-.73-1.76-.73h-7c-1.37,0-2.49,1.12-2.49,2.49v96.83c0,.9.48,1.74,1.27,2.18l7.01,3.91c.77.43,1.72.42,2.48-.03.76-.44,1.23-1.27,1.23-2.15,0,0,0-35.06,0-42.75h5.51c0,2.82,0,48.61,0,48.61,0,.9.49,1.74,1.28,2.18l7,3.91c.77.43,1.72.42,2.48-.03.76-.45,1.23-1.27,1.23-2.15v-110.51c0-.67-.26-1.29-.73-1.76s-1.1-.73-1.76-.73h-7Zm6.49,3c0,1,0,107.44,0,109.13-1.15-.64-5.56-3.1-5.98-3.34,0-3.93,0-49.81,0-49.81,0-.83-.67-1.5-1.5-1.5h-8.51c-.4,0-.78.16-1.06.44-.28.28-.44.66-.44,1.06,0,0,0,41.72,0,43.38-1.15-.64-5.56-3.11-5.99-3.35,0-.59,0-95.02,0-96.02h5.98c0,.99,0,47,0,47,0,.4.16.78.44,1.06.28.28.66.44,1.06.44h8.52c.83,0,1.5-.67,1.5-1.5,0,0,0-46.01,0-47h5.98Z"/>
      <g>
        <path class="cls-3" d="m258.27,419.44s2.5-10.25-2-22c-3.51-9.16-15-14.75-28.5-17.75s-19.56-.28-25.5-3.25c-6.5-3.25-10-8.75-10.75-13.5s2-8.75,4.25-13.25-1.25-6-4-8-4.75-5.5-3.75-7.5.5-4.25-1.25-6.25-4.75-4.75-4.5-8.5c.15-2.25.5-5.5-2.5-10.25s-10.5-4.75-16.58-5c-4-.16-5.33-3-5.33-5s8.67-22.33,14.33-35.33c3.41-7.83,6.67-15,6.33-22-.27-5.66-3.67-10.33-3-13.67.67-3.33,7.85-24.96,9-30.33.25-1.17-3.5-3.42-3.25-7.92s-3-12.25-1.25-18.75c1.75-6.5,2.25-12.75,5-18.5s6.75-9.75,8.75-13.5,8-8,12.25-8.5,11.25-1.25,17.5-4,11.75-4.25,18.75-1.75,14,6.5,24,5.5,24.5-3.5,31.25-.25c6.75,3.25,11.25,6.5,21.75,8,10.5,1.5,17.75,4,25,9.5,7.25,5.5,9.5,7.25,15.25,8.5s15.5,4.75,21,9.25,13.25,11.25,14.75,18.25.5,18.5-.25,26.25.25,24.5,1,32.75c.75,8.25,0,21.25-3.75,34.5-3.75,13.25-6.75,22-8,27.5-1.25,5.5-1.25,11,1,15s8.24,11.95,5.5,12.5c-3.75.75-6.75-.5-7.75-1.75-2-2.5-3.5-5-4.75,1s-2.34,16.81,1,24.75c6,14.25,13.5,17.25,13.5,17.25,0,0-44.25,48.25-80.75,60.75s-58,13.5-53.75-14.75Z"/>
        <path class="cls-5" d="m377.9,322.31s-3.12-4.37-9.87-8.25-13.75-6.75-25.12-5.62-13.87,3-13.87,4,5,7,15.75,12.37c10.09,5.04,17,4.12,23.25,2.37s9.62-3.87,9.87-4.87Z"/>
        <path class="cls-1" d="m342.75,306.94c-13.65,1.35-15.23,3.78-15.23,5.49,0,2.21,6.46,8.66,16.58,13.72,10.47,5.23,17.88,4.28,24.33,2.48,1.69-.47,10.19-2.99,10.93-5.96.11-.43.02-.88-.23-1.24-.14-.19-3.39-4.69-10.35-8.68-7.48-4.3-14.77-6.93-26.02-5.82Zm.29,2.99c10.49-1.04,17.05,1.31,24.23,5.43,4.58,2.63,7.41,5.5,8.65,6.92-1.11.81-3.77,2.19-8.31,3.46-5.47,1.53-12.14,2.74-22.17-2.27-9.02-4.51-13.61-9.26-14.7-10.9.78-.52,3.47-1.77,12.3-2.64Z"/>
        <circle class="cls-5" cx="338.02" cy="299.44" r="6"/>
        <path class="cls-1" d="m330.52,299.44c0,4.14,3.36,7.5,7.5,7.5s7.5-3.36,7.5-7.5-3.36-7.5-7.5-7.5-7.5,3.36-7.5,7.5Zm3,0c0-2.48,2.02-4.5,4.5-4.5s4.5,2.02,4.5,4.5-2.02,4.5-4.5,4.5-4.5-2.02-4.5-4.5Z"/>
        <circle class="cls-5" cx="357.02" cy="273.31" r="6"/>
        <path class="cls-1" d="m349.52,273.31c0,4.14,3.36,7.5,7.5,7.5s7.5-3.36,7.5-7.5-3.36-7.5-7.5-7.5-7.5,3.36-7.5,7.5Zm3,0c0-2.48,2.02-4.5,4.5-4.5s4.5,2.02,4.5,4.5-2.02,4.5-4.5,4.5-4.5-2.02-4.5-4.5Z"/>
        <circle class="cls-5" cx="324.77" cy="241.19" r="6"/>
        <path class="cls-1" d="m317.27,241.19c0,4.14,3.36,7.5,7.5,7.5s7.5-3.36,7.5-7.5-3.36-7.5-7.5-7.5-7.5,3.36-7.5,7.5Zm3,0c0-2.48,2.02-4.5,4.5-4.5s4.5,2.02,4.5,4.5-2.02,4.5-4.5,4.5-4.5-2.02-4.5-4.5Z"/>
        <circle class="cls-5" cx="303.77" cy="262.06" r="6"/>
        <path class="cls-1" d="m296.27,262.06c0,4.14,3.36,7.5,7.5,7.5s7.5-3.36,7.5-7.5-3.36-7.5-7.5-7.5-7.5,3.36-7.5,7.5Zm3,0c0-2.48,2.02-4.5,4.5-4.5s4.5,2.02,4.5,4.5-2.02,4.5-4.5,4.5-4.5-2.02-4.5-4.5Z"/>
        <path class="cls-5" d="m344.9,288.56c.16-.99-8.12-11-16-13.75s-15.87-2.75-21.75-2.62-10.25.37-10.5,1.5,4.37,7.37,12.75,12,16.5,7.5,24.25,6.37,11.12-2.75,11.25-3.5Z"/>
        <path class="cls-1" d="m307.12,270.69c-8.69.18-11.47.58-11.93,2.67-.55,2.48,5.56,9.26,13.49,13.64,9.98,5.51,17.99,7.59,25.19,6.55,5.48-.8,12.1-2.26,12.51-4.74,0-.05.01-.11.01-.17,0-2.85-9.81-12.73-17-15.24-8.59-3-17.49-2.81-22.28-2.71Zm.06,3c4.59-.1,13.14-.28,21.22,2.54,6.31,2.2,12.96,9.46,14.64,11.95-1.16.58-4.01,1.58-9.61,2.4-6.52.95-13.93-1.02-23.31-6.2-6.6-3.65-10.59-8.21-11.69-10.08,1.91-.46,6.94-.57,8.75-.61Zm39.2,15.12h0s0,0,0,0h0Z"/>
        <path class="cls-5" d="m315.15,248.06c-.94.67,4.5,13.75,9.87,19.75s12.62,10.12,16.5,11.5,3.37-1,2.87-3.87-3-11.25-8.75-16.5-18.75-12.12-20.5-10.87Z"/>
        <path class="cls-1" d="m314.28,246.84l-.72,1.29c0,.07-.01.14-.01.22,0,3.09,5.43,14.95,10.36,20.46,5.27,5.88,12.57,10.3,17.12,11.91,1.23.44,3,.89,4.23-.14,1.37-1.15,1.02-3.12.66-5.21l-.03-.2c-.64-3.67-3.39-12.03-9.22-17.35-4.67-4.27-19.15-13.3-22.38-10.99Zm27.75,31.06c-3.51-1.24-10.63-5.22-15.88-11.09-4.2-4.68-8.31-13.77-9.35-17.21,3.38.9,12.68,5.73,17.84,10.45,5.42,4.95,7.82,12.98,8.28,15.65l.03.2c.12.68.29,1.64.29,2.19,0,.05-.01.07-.01.11-.2-.01-.55-.07-1.2-.3Zm-27.75-31.06h0s.02-.05.02-.06c0-.04-.18.17-.03.06Z"/>
        <path class="cls-5" d="m367.15,265.81c-1.5.12-3.5,11-3.5,18.37,0,7.87,2.37,16,6.12,20.5,4.36,5.23,6.75,6.87,8.75,2.25s4.75-14.87,0-25.25-8.25-16.12-11.37-15.87Z"/>
        <path class="cls-1" d="m367.03,264.32h0c-4.36.35-4.88,19.68-4.88,19.87,0,8.32,2.54,16.74,6.47,21.46,3.1,3.72,5.34,5.8,7.66,5.47,1.98-.29,3.01-2.18,3.62-3.58,1.38-3.19,5.45-14.53-.01-26.47-5.8-12.66-9.16-17.04-12.86-16.75Zm3.9,39.41c-3.46-4.15-5.78-12-5.78-19.54,0-6.63,1.55-14.89,2.57-16.8,2.98.83,7.8,11.34,9.44,14.93,1.87,4.08,2.5,8.09,2.5,11.65,0,5.89-1.73,10.57-2.52,12.38-.55,1.27-1.04,1.77-1.29,1.8-.51.07-1.77-.63-4.93-4.42Z"/>
        <path class="cls-5" d="m335.15,229.81c-1.84.23-3.25,6-1.87,13.5s6.87,18.75,9.5,23,1.37,6.12,2.87,6.87,7.25-4.37,7.5-10.5-1.62-12.75-7-19.12-7.62-9.37-8.5-11.12-1.5-2.75-2.5-2.62Z"/>
        <path class="cls-1" d="m334.96,228.32c-.53.07-1.31.34-2,1.29-1.78,2.43-2.25,8.04-1.16,13.97,1.44,7.85,7.03,19.19,9.7,23.52,1.26,2.05,1.52,3.45,1.7,4.47.19,1.07.41,2.27,1.78,2.96.84.42,1.87.27,3.07-.43,2.61-1.54,6.38-6.08,6.6-11.35.3-7.24-2.18-14.02-7.35-20.15-5.05-5.98-7.45-9.12-8.31-10.83-.78-1.57-1.86-3.71-4.03-3.44Zm11.19,42.71c-.22-1.19-.54-2.99-2.1-5.51-2.49-4.03-7.95-15.11-9.3-22.48-.38-2.07-.53-3.92-.53-5.5,0-3.31.63-5.39,1.12-6.05.22.26.52.74.96,1.62.98,1.96,3.42,5.16,8.69,11.42,4.43,5.25,6.67,10.99,6.67,17.08,0,.34,0,.68-.02,1.02-.19,4.7-4.01,8.39-5.38,9.01-.04-.17-.08-.38-.12-.6Z"/>
        <path class="cls-5" d="m278.77,213.44c-.81.93.62,10.5,9.37,18,8.22,7.05,15.37,10.12,17.62,12,2.42,2.02,3.25,2.5,4.87,1.5s.75-9.62-5.37-17.25-11.62-11.53-16.12-13.25c-4.25-1.62-9.5-2-10.37-1Z"/>
        <path class="cls-1" d="m277.65,212.45c-.39.44-.57,1.07-.57,1.98,0,.19,0,.39.02.61.25,3.52,2.66,11.18,10.07,17.53,5.58,4.79,10.71,7.79,14.1,9.78,1.61.94,2.88,1.69,3.54,2.24,2.2,1.83,3.93,3.28,6.62,1.62.68-.42,1.13-1.19,1.32-2.3.64-3.71-1.35-10.99-6.31-17.17-5.62-7-11.26-11.61-16.76-13.71-3.18-1.21-10.2-2.69-12.04-.59Zm10.97,3.39c5,1.91,10.21,6.21,15.49,12.79,4.39,5.46,5.78,11.27,5.78,13.91,0,.55-.07.94-.18,1.18-.59.34-.88.31-2.98-1.44-.84-.7-2.14-1.47-3.94-2.52-3.3-1.93-8.29-4.86-13.67-9.47-7.21-6.18-9.05-13.76-9.06-15.82,1.19-.25,4.87-.05,8.54,1.35Z"/>
        <path class="cls-5" d="m298.27,194.81c-.97.62-3.12,9.37-1.25,16.12,1.81,6.51,6.62,12.62,12.37,18.12,5.31,5.08,5.37,7.25,7.62,6.5s2.82-7.65,1.87-12.87c-.75-4.12-3.87-12.5-8.75-17.12-7.25-6.88-10.5-11.62-11.87-10.75Z"/>
        <path class="cls-1" d="m297.47,193.55c-2.02,1.28-3.73,11.16-1.89,17.79,1.68,6.03,5.86,12.18,12.78,18.81,1.95,1.86,3.17,3.33,4.06,4.39,1.57,1.88,2.7,3.24,5.07,2.45,3.9-1.3,3.61-10.55,2.88-14.57-.78-4.31-3.97-12.99-9.19-17.94-2.61-2.47-4.69-4.67-6.37-6.43-3.73-3.93-5.43-5.72-7.35-4.5Zm18.77,40.66c-.24-.07-.92-.88-1.51-1.59-.94-1.12-2.22-2.66-4.29-4.64-6.53-6.24-10.44-11.95-11.97-17.44-.5-1.81-.69-3.77-.69-5.64,0-3.62.71-6.92,1.24-8.36.82.64,2.23,2.1,3.63,3.58,1.7,1.79,3.81,4.01,6.48,6.54,4.45,4.22,7.54,12.08,8.31,16.31.3,1.63.42,3.23.42,4.69,0,3.48-.68,6.15-1.31,6.5-.21.07-.29.06-.29.06Z"/>
        <circle class="cls-5" cx="266.02" cy="227.44" r="6"/>
        <path class="cls-1" d="m258.52,227.44c0,4.14,3.36,7.5,7.5,7.5s7.5-3.36,7.5-7.5-3.36-7.5-7.5-7.5-7.5,3.36-7.5,7.5Zm3,0c0-2.48,2.02-4.5,4.5-4.5s4.5,2.02,4.5,4.5-2.02,4.5-4.5,4.5-4.5-2.02-4.5-4.5Z"/>
        <circle class="cls-5" cx="288.65" cy="203.19" r="6"/>
        <path class="cls-1" d="m281.15,203.19c0,4.14,3.36,7.5,7.5,7.5s7.5-3.36,7.5-7.5-3.36-7.5-7.5-7.5-7.5,3.36-7.5,7.5Zm3,0c0-2.48,2.02-4.5,4.5-4.5s4.5,2.02,4.5,4.5-2.02,4.5-4.5,4.5-4.5-2.02-4.5-4.5Z"/>
        <path class="cls-5" d="m263.65,244.56c-.64,1.35,4.87,6.87,15,7.5s18.5.62,23.75-1,7.12-3.37,3.25-5.75-10.87-7-21.75-7.25-19,3.87-20.25,6.5Z"/>
        <path class="cls-1" d="m262.29,243.92h0c-.24.5-.38,1.33.3,2.48,1.46,2.48,7.09,6.62,15.97,7.17,12.18.75,19.45.43,24.29-1.06,4.22-1.31,6.12-2.64,6.35-4.47.27-2.13-2.01-3.53-2.76-3.99l-.55-.34c-3.9-2.41-11.17-6.89-21.95-7.13-10.57-.24-19.89,3.68-21.64,7.35Zm21.57-4.36c9.97.23,16.53,4.27,20.45,6.69l.55.34c.91.56,1.21.92,1.31,1.07-.17.22-.95.95-4.22,1.96-5.66,1.75-15.38,1.42-23.21.94-8.45-.52-12.79-4.41-13.51-5.64,1.39-1.9,8.56-5.6,18.64-5.37Z"/>
        <circle class="cls-5" cx="246.4" cy="170.69" r="6"/>
        <path class="cls-1" d="m238.9,170.69c0,4.14,3.36,7.5,7.5,7.5s7.5-3.36,7.5-7.5-3.36-7.5-7.5-7.5-7.5,3.36-7.5,7.5Zm3,0c0-2.48,2.02-4.5,4.5-4.5s4.5,2.02,4.5,4.5-2.02,4.5-4.5,4.5-4.5-2.02-4.5-4.5Z"/>
        <circle class="cls-5" cx="221.02" cy="195.44" r="6"/>
        <path class="cls-1" d="m213.52,195.44c0,4.14,3.36,7.5,7.5,7.5s7.5-3.36,7.5-7.5-3.36-7.5-7.5-7.5-7.5,3.36-7.5,7.5Zm3,0c0-2.48,2.02-4.5,4.5-4.5s4.5,2.02,4.5,4.5-2.02,4.5-4.5,4.5-4.5-2.02-4.5-4.5Z"/>
        <path class="cls-5" d="m274.77,209.44c.65-1.3-2.37-9.25-9-15.12s-11.25-8-16.5-9.62-10.62-3.37-11.62-1.5,4.37,9.87,10.37,15.37,14.75,10.62,19.75,11.87,6.25.5,7-1Z"/>
        <path class="cls-1" d="m236.33,182.48c-1.85,3.47,6.18,13.06,10.68,17.19,5.99,5.49,14.95,10.86,20.4,12.22,4.29,1.07,7.24,1.15,8.71-1.78,1.28-2.56-3.11-11.39-9.35-16.92-6.72-5.96-11.51-8.22-17.05-9.94l-.58-.18c-6.3-1.95-11.27-3.5-12.82-.59Zm11.93,3.46l.58.18c5.16,1.6,9.63,3.71,15.95,9.31,5.76,5.11,8.59,11.86,8.59,13.44,0,0,0,0,0,.01-.3.56-.93,1.17-5.23.1-4.95-1.24-13.52-6.41-19.1-11.53-5.81-5.32-9.81-11.75-9.98-13.5,1.25-.47,6.18,1.05,9.2,1.98Z"/>
        <path class="cls-5" d="m261.65,165.81c-2.53,1.15-.75,10.5,1,16s6.12,13,10.5,17.25,7.12,4.62,8,4.12,3.12-4.5,2.37-9.75-4.37-13.12-8.87-17.5-11.62-10.75-13-10.12Z"/>
        <path class="cls-1" d="m261.03,164.45c-1.59.72-2.13,2.85-2.13,5.41,0,4.9,1.99,11.36,2.32,12.41,1.92,6.02,6.6,13.71,10.88,17.87,5.98,5.81,9.01,4.8,9.79,4.35,1.52-.87,3.94-5.51,3.12-11.26-.76-5.31-4.45-13.63-9.31-18.36-11.97-11.64-13.79-10.81-14.67-10.42Zm13.17,33.54c-3.98-3.87-8.33-11.02-10.12-16.63-1.48-4.65-2.21-9.19-2.21-11.88,0-1.01.13-1.66.33-2.05,1.53.72,5.74,4.07,11.4,9.58,4.35,4.23,7.76,11.93,8.44,16.64.1.67.14,1.31.14,1.93,0,3.41-1.29,5.76-1.79,6.28-.45,0-2.45-.23-6.19-3.87Z"/>
        <path class="cls-5" d="m219.15,208.06c-.34,1.59,6,7.5,12.62,9.62s14.75,3.12,23,2.12,14.5-1.25,14.87-2.87-.78-4.21-6.75-7.62c-4.37-2.5-14-6.62-24.5-5.87s-18.87,2.87-19.25,4.62Z"/>
        <path class="cls-1" d="m238.29,201.94c-3.28.23-19.71,1.62-20.61,5.81h0c-.68,3.16,7.42,9.38,13.63,11.37,7.37,2.36,15.76,3.14,23.64,2.19l4.89-.55c7.37-.79,10.73-1.15,11.27-3.48.68-2.93-1.84-6.05-7.47-9.26-2.88-1.64-13.2-6.94-25.35-6.07Zm.21,2.99c11.6-.83,21.73,4.59,23.65,5.68,4.48,2.56,6.04,4.62,6.05,5.74-.99.59-5.06,1.03-8.69,1.42l-4.93.55c-7.45.9-15.39.17-22.36-2.06-5.6-1.8-10.49-6.27-11.41-7.84,1.43-.96,7.47-2.76,17.69-3.49Z"/>
        <path class="cls-5" d="m215.02,187.06c1.07-.81-7.75-9.12-14.37-12s-12.65-4.31-19.5-3.75c-6.12.5-11,2.75-11,3.87s8.12,9.62,16.12,12.5,22.5,4.12,28.75-.62Z"/>
        <path class="cls-1" d="m181.03,169.82c-4.99.41-12.38,2.4-12.38,5.37,0,2.5,9.59,11.21,17.12,13.91,8.27,2.97,23.35,4.33,30.16-.84.44-.33.68-.84.68-1.4,0-.08,0-.16-.01-.23-.33-2.72-9.37-10.33-15.35-12.93-7.4-3.21-13.64-4.41-20.22-3.87Zm.24,2.99c6.14-.5,11.76.58,18.78,3.63,5.25,2.28,11.35,7.75,13.12,9.96-6.13,3.61-19.16,2.48-26.39-.12-6.57-2.36-13.25-8.78-14.83-10.93,1.21-.78,4.61-2.16,9.32-2.54Z"/>
        <path class="cls-5" d="m228.02,169.06c.95-1.17.75-5.87-3.37-13.62s-10.5-15.25-18.25-18.12-9.5-2.75-10.25-2.12.87,8.41,5,15c4.62,7.37,9.12,11.75,16,16.25,7.16,4.68,9.75,4,10.87,2.62Z"/>
        <path class="cls-1" d="m195.19,134.03c-2.29,1.91,1.67,12.13,4.69,16.95,4.55,7.25,9.16,11.94,16.45,16.71,4.12,2.7,9.95,5.88,12.86,2.32h0c1.81-2.21.55-8.21-3.21-15.28-4.96-9.31-11.9-16.17-19.05-18.83-8.22-3.05-10.34-3.03-11.73-1.87Zm22.78,31.15c-6.98-4.57-11.2-8.85-15.55-15.79-3.34-5.33-4.82-11.17-4.93-13.09.76,0,2.83.36,8.39,2.42,6.47,2.4,12.83,8.75,17.45,17.42,3.05,5.72,3.67,9.26,3.67,10.92,0,.57-.07.92-.15,1.06-.98,1.15-4.29.06-8.88-2.94Z"/>
        <path class="cls-5" d="m348.27,283.56c-.8.56-.12,7.62,3,14.12s7.12,11.25,16.75,16.37,9.37,3.25,7.37-3.75-4.37-13.75-12.87-19.87-13-7.75-14.25-6.87Z"/>
        <path class="cls-1" d="m347.41,282.33h0c-2.25,1.58-.06,10.65,2.51,16,3.11,6.46,7.1,11.57,17.4,17.05,5.92,3.15,8.18,3.74,9.7,2.51,1.71-1.38.92-4.15-.18-7.99-2.08-7.3-4.68-14.37-13.44-20.68-12.73-9.17-15.18-7.45-15.99-6.89Zm21.32,30.4c-9.57-5.1-13.26-9.79-16.1-15.7-2.38-4.95-3.17-9.96-3.17-11.96,0-.1.02-.12.02-.21,1.08.15,4.32,1.12,12.17,6.78,7.99,5.76,10.3,12.04,12.31,19.07.39,1.35,1.07,3.74,1.07,4.72,0,.01,0,.01,0,.02-.61-.07-2.18-.54-6.29-2.73Z"/>
        <path class="cls-5" d="m187.65,158.06c-.76,1.02,5.12,11.37,15.37,16.12s22.92,6.83,25.75,4c1.25-1.25-.57-3.92-2.87-6.12-2.75-2.62-8.5-9-19-12.87-12.39-4.57-18.5-2.12-19.25-1.12Z"/>
        <path class="cls-1" d="m186.45,157.16h0c-.56.75-.33,1.67-.25,1.98.72,2.87,6.6,11.96,16.2,16.41,10.06,4.66,23.81,7.33,27.44,3.7.56-.56.86-1.3.85-2.14-.02-2.14-2.05-4.51-3.75-6.13l-.9-.88c-3.1-3.05-8.86-8.72-18.61-12.32-12.68-4.68-19.6-2.44-20.97-.62Zm19.93,3.43c9.14,3.37,14.61,8.75,17.55,11.64l.94.91c2.29,2.18,2.89,3.69,2.81,4.04-1.81,1.78-12.97.76-24.02-4.36-8.56-3.97-13.65-11.76-14.42-14.05,1.62-.77,7.1-1.89,17.14,1.82Z"/>
      </g>
      <path class="cls-2" d="m345.52,521.26v41.75c0,1.56-1.11,3.46-2.48,4.21l-73.33,40.87c-1.36.76-3.59.76-4.95,0l-73.33-40.87c-1.36-.76-2.48-2.66-2.48-4.21v-41.77h-.05C80.37,487.81,1.5,386.74,1.5,267.24,1.5,120.47,120.47,1.5,267.24,1.5s265.74,118.97,265.74,265.74c0,119.5-78.88,220.58-187.41,254.01l-.05.02Zm-155.82-91.08c-1.56,0-3.27,1.2-3.8,2.67l-5.75,15.95c-.53,1.47.01,3.49,1.21,4.49l19.42,16.31c1.19,1,2.17,3.1,2.17,4.66v80.53c0,1.56,1.11,3.46,2.48,4.21l59.33,33.06c1.36.76,3.59.76,4.95,0l59.33-33.06c1.36-.76,2.48-2.66,2.48-4.21v-80.53c0-1.56.98-3.66,2.17-4.66l19.42-16.31c1.19-1,1.74-3.02,1.21-4.49l-5.75-15.95c-.53-1.47-2.24-2.67-3.8-2.67h-155.07Zm13.15-14h128.77l.09-.04c58.85-25.51,97.75-84.19,97.75-148.91,0-89.45-72.77-162.23-162.22-162.23s-162.23,72.77-162.23,162.23c0,33.54,10.15,65.73,29.34,93.08,17.37,24.74,40.91,43.93,68.41,55.83l.09.04Zm142.73,72.37c91.1-32.25,156.36-119.16,156.36-221.32,0-129.63-105.08-234.71-234.71-234.71S32.53,137.61,32.53,267.24c0,102.16,65.27,189.08,156.39,221.32h.03v-7.78c0-1.56-.98-3.66-2.17-4.66l-21.9-18.4c-1.19-1-1.74-3.02-1.21-4.49l11.66-32.32c.53-1.47.95-2.67.94-2.68-.01,0-1.04-.78-2.28-1.72,0,0-36.81-27.8-51.09-48.15-20.86-29.72-31.88-64.69-31.88-101.12,0-97.17,79.05-176.23,176.23-176.23s176.22,79.05,176.22,176.23c0,36.88-11.27,72.19-32.59,102.13-14.2,19.93-32.07,36.46-52.64,48.86h0s.39,1.22.92,2.69l11.66,32.32c.53,1.47-.01,3.49-1.21,4.49l-21.9,18.4c-1.19,1-2.17,3.1-2.17,4.66v7.79l.06-.02Z"/>
      <path class="cls-3" d="m78.27,78.27C27.8,128.75,0,195.86,0,267.24c0,58.29,18.43,113.68,53.3,160.18,33.51,44.68,81.12,78.35,134.15,94.93v40.67c0,2.12,1.4,4.49,3.25,5.53l73.33,40.87c1.83,1.02,4.58,1.02,6.41,0l73.33-40.87c1.85-1.03,3.25-3.41,3.25-5.52v-40.67c53.03-16.57,100.64-50.24,134.15-94.93,34.87-46.5,53.3-101.89,53.3-160.18,0-71.38-27.8-138.49-78.27-188.97C405.73,27.8,338.62,0,267.24,0S128.75,27.8,78.27,78.27Zm187.22,528.51l-73.33-40.87c-.89-.5-1.71-1.88-1.71-2.9v-41.77c0-.66-.48-1.25-1.11-1.44-52.83-16.27-100.3-49.73-133.64-94.19C21.22,379.64,3,324.87,3,267.24c0-70.58,27.49-136.94,77.39-186.85C130.3,30.49,196.66,3,267.24,3s136.94,27.49,186.85,77.39c49.91,49.91,77.39,116.26,77.39,186.85,0,57.63-18.22,112.4-52.7,158.38-33.35,44.47-80.81,77.92-133.64,94.19-.63.19-1.1.8-1.1,1.45v41.75c0,1.02-.81,2.41-1.71,2.9l-73.33,40.87c-.91.51-2.58.51-3.49,0Z"/>
      <path class="cls-3" d="m189.71,428.69c-2.18,0-4.47,1.61-5.21,3.66l-5.75,15.95c-.74,2.05-.01,4.75,1.66,6.15l19.42,16.31c.86.72,1.64,2.39,1.64,3.51v80.53c0,2.12,1.4,4.49,3.25,5.53l59.33,33.06c1.83,1.02,4.58,1.02,6.41,0l59.33-33.06c1.85-1.03,3.25-3.41,3.25-5.52v-80.53c0-1.12.78-2.79,1.64-3.51l19.42-16.31c1.67-1.4,2.39-4.1,1.65-6.15l-5.75-15.95c-.74-2.05-3.03-3.66-5.21-3.66h-155.07Zm75.79,162.07l-59.33-33.06c-.89-.5-1.71-1.88-1.71-2.9v-80.53c0-2.01-1.16-4.51-2.71-5.81l-19.42-16.31c-.72-.6-1.08-1.95-.76-2.83l5.75-15.95c.32-.88,1.45-1.67,2.39-1.67h155.07c.93,0,2.07.8,2.39,1.68l5.75,15.95c.32.88-.04,2.23-.76,2.83l-19.42,16.31c-1.54,1.3-2.71,3.79-2.71,5.81v80.53c0,1.02-.81,2.41-1.71,2.9l-59.33,33.06c-.91.51-2.58.51-3.49,0Z"/>
      <path class="cls-3" d="m103.51,267.24c0,33.85,10.24,66.34,29.61,93.94,17.45,24.87,41.33,44.35,69.04,56.35.19.08.48.16.69.16h128.77c.2,0,.5-.08.69-.16,29.21-12.66,53.97-33.52,71.6-60.3,17.7-26.89,27.06-58,27.06-89.99,0-90.28-73.45-163.73-163.72-163.73s-163.73,73.45-163.73,163.73Zm32.07,92.22c-19.02-27.1-29.07-58.99-29.07-92.22,0-88.62,72.1-160.73,160.73-160.73s160.72,72.1,160.72,160.73c0,31.39-9.19,61.94-26.56,88.34-17.28,26.24-41.52,46.67-70.11,59.11h-128.12c-27.12-11.78-50.5-30.87-67.59-55.23Z"/>
      <path class="cls-3" d="m31.03,267.24c0,99.91,63.25,189.43,157.39,222.74.46.16.98.09,1.38-.19.4-.28.65-.74.65-1.23v-7.78c0-2.01-1.16-4.51-2.71-5.81l-21.9-18.4c-.54-.45-.88-1.33-.88-2.11,0-.26.04-.5.12-.72l11.66-32.32c.72-2.01,1.06-2.93,1.06-3.47,0-.44-.23-.62-.64-.93,0,0-2.26-1.71-2.26-1.71-.37-.28-36.79-27.89-50.77-47.81-20.68-29.47-31.61-64.14-31.61-100.26,0-96.34,78.38-174.73,174.73-174.73s174.72,78.38,174.72,174.73c0,36.56-11.17,71.58-32.32,101.26-14.08,19.76-31.64,36.06-52.2,48.44-1.11.62-.95,1.06.28,4.48l11.66,32.32c.32.88-.05,2.23-.76,2.83l-21.9,18.4c-1.54,1.3-2.71,3.79-2.71,5.81v7.79c0,.49.27.93.66,1.21.4.28.94.34,1.4.18,94.12-33.32,157.36-122.83,157.36-222.73,0-130.25-105.96-236.21-236.21-236.21S31.03,136.99,31.03,267.24Zm3,0c0-128.59,104.62-233.21,233.21-233.21s233.21,104.62,233.21,233.21c0,97.94-61.58,185.73-153.42,219.17v-5.63c0-1.12.78-2.79,1.64-3.51l21.9-18.4c1.23-1.03,1.94-2.76,1.94-4.42,0-.6-.09-1.18-.29-1.73l-11.66-32.32s-.29-.84-.54-1.55c20.47-12.52,37.99-28.86,52.07-48.62,21.5-30.19,32.87-65.81,32.87-103,0-98-79.73-177.73-177.72-177.73s-177.73,79.73-177.73,177.73h0c0,36.75,11.12,72.01,32.16,101.99,14.25,20.31,49.91,47.34,51.42,48.48,0,0,.77.58,1.41,1.06-.27.76-.58,1.63-.58,1.63l-11.66,32.32c-.2.54-.29,1.13-.29,1.73,0,1.66.72,3.39,1.94,4.42l21.9,18.4c.86.72,1.64,2.39,1.64,3.51v5.63c-91.85-33.44-153.42-121.23-153.42-219.17Zm143.13,149.78s0,0,0,0h0Z"/>
    </g>
  </g>
</svg>