<?xml version="1.0" encoding="UTF-8"?>
<svg id="Livello_2" data-name="Livello 2" xmlns="http://www.w3.org/2000/svg" viewBox="0 0 549.15 636.48">
  <defs>
    <style>
      .cls-1 {
        fill: #1d9dd9;
      }

      .cls-1, .cls-2, .cls-3, .cls-4, .cls-5, .cls-6, .cls-7, .cls-8, .cls-9 {
        stroke-width: 0px;
      }

      .cls-2 {
        fill: #22317e;
      }

      .cls-3 {
        fill: #947b44;
      }

      .cls-4 {
        fill: #cbccd4;
      }

      .cls-5 {
        fill: #fff;
      }

      .cls-6 {
        fill: #008b39;
      }

      .cls-7 {
        fill: #ffe600;
      }

      .cls-8 {
        fill: #1d1d1b;
      }

      .cls-9 {
        fill: #be0f17;
      }
    </style>
  </defs>
  <g id="_Ñëîé_1" data-name="Ñëîé 1">
    <g>
      <path class="cls-2" d="m404.08,518.13c86.58-108.21,118.09-216.09,132.61-293.49,11.78-62.79,12.47-143.04,12.47-143.04-23.97-.48-52.33-5.42-123.06-28.16C356.41,31.04,274.58,0,274.58,0c0,0-81.83,31.04-151.51,53.44C52.33,76.18,23.97,81.12,0,81.6c0,0,.69,80.25,12.47,143.04,14.52,77.4,46.03,185.28,132.61,293.49,66.15,82.67,129.51,118.35,129.51,118.35,0,0,63.35-35.68,129.5-118.35Z"/>
      <path class="cls-5" d="m32.59,261.15c-3.09-12.69-5.86-25.59-8.33-38.73-8.85-47.17-11.34-105.19-12.02-129.43,22.97-1.85,53-8.37,114.49-28.14,60.19-19.35,130.13-45.39,147.84-52.04v207.5s.05,1.21.05,1.21l-61.26,40.92-.15.11H32.94l-.35-1.41Z"/>
      <path class="cls-8" d="m146.02,68.4h0c-4.32,0-6.16,3.28-5.68,6.72,0,0-4.05-.79-5.28,1.52-1.36,2.56-.27,3.77.4,6.08.56,1.92-.08,4.96-.08,4.96,0,0,1.92-.16,2.4-1.76.6-1.99,2.64-1.36,2.64-1.36,1.12,6.4-5.34,6.61-10.8,6.24-5.92-.4-7.2-4.64-7.2-4.64,0,0,2.32.32,3.04-1.36.72-1.68-.4-5.04-3.6-4.72,0,0,0-2.88-3.28-2.16-3.28.72-2.24,3.84-2.24,3.84,0,0-2.4.8-1.44,4.16.85,2.97,3.2,2,3.2,2,0,0,.48,3.76-3.6,6.72-4.08,2.96-11.52,1.68-11.76-2.64,0,0,.08-.96,1.36-.96s1.68,2.88,3.92,3.36c0,0-.32-2.32.24-4.96.56-2.64,0-6.1-3.12-6.88-2.88-.72-4.64,2-4.64,2,0,0-1.68-2.32-4.08-2.48-2.4-.16-2.56.88-5.2,1.12,0,0,2.48,2.08,3.92,3.52.73.73,1.13,1.58,1.47,2.54l.08.24c-.12.04-.2.1-.26.14-.56.44-.58,1.48-.06,2.58l.39.85c.54,1.19.96,2.13,1.63,2.36.27.09.56.06.86-.1l.11.15c.72.99,1.67,1.94,3.06,3,1.09.84,2.01,1.75,2.76,2.64.12.14.63.77.86,1.09.14.21.28.41.41.61l.08.17-1.1,1.69,2.67,2.95.12.16c.12.96.29,2.05.7,3.24h-.14s-8.92,0-8.92,0v79.2c0,18.88,7.68,27.04,22.88,27.2h9.44c6.56,0,11.68,3.52,13.84,8.8h0c2.16-5.28,7.28-8.8,13.84-8.8h9.44c15.2-.16,22.88-8.32,22.88-27.2v-79.2h-9.05c.37-1.1.54-2.1.66-3l.03-.28,2.78-3.07-1.02-1.58-.1-.16.1-.13c.91-1.36,2.23-2.96,4.04-4.35,1.38-1.06,2.33-2.01,3.06-3l.11-.15c.3.16.59.2.86.1.68-.23,1.1-1.17,1.63-2.36l.39-.85c.52-1.1.5-2.14-.06-2.58-.06-.05-.14-.1-.26-.14l.08-.24c.34-.96.74-1.81,1.47-2.54,1.44-1.44,3.92-3.52,3.92-3.52-2.64-.24-2.8-1.28-5.2-1.12-2.4.16-4.08,2.48-4.08,2.48,0,0-1.76-2.72-4.64-2-3.12.78-3.68,4.24-3.12,6.88.56,2.64.24,4.96.24,4.96,2.24-.48,2.64-3.36,3.92-3.36s1.36.96,1.36.96c-.24,4.32-7.68,5.6-11.76,2.64-4.08-2.96-3.6-6.72-3.6-6.72,0,0,2.35.97,3.2-2,.96-3.36-1.44-4.16-1.44-4.16,0,0,1.04-3.12-2.24-3.84-3.28-.72-3.28,2.16-3.28,2.16-3.2-.32-4.32,3.04-3.6,4.72.72,1.68,3.04,1.36,3.04,1.36,0,0-1.28,4.24-7.2,4.64-5.46.37-11.92.16-10.8-6.24,0,0,2.04-.63,2.64,1.36.48,1.6,2.4,1.76,2.4,1.76,0,0-.64-3.04-.08-4.96.67-2.31,1.76-3.52.4-6.08-1.23-2.31-5.28-1.52-5.28-1.52.48-3.44-1.36-6.72-5.68-6.72h0"/>
      <path class="cls-5" d="m114.99,191.3c.71-.08,2.32-.19,3.35.08,1.49.39,3.39-.04,4.78-.36l.95-.2c.38-.06,1.7.35,2.42.57.88.27,1.64.5,2.22.55,1.29.1,5.61.25,10.71.09,1.96-.06,4.42-.23,7.03-.4,4.4-.3,8.94-.6,11.48-.44l2.55.2c2.65.24,4.57.41,6.79-.55,1.96-.85,5.41-1.4,8.78-1.04.24.03,1,.11,1,.11v.36c0,12-2.63,12.02-7.86,12.08h-9.34c-4.89,0-9.53,1.11-13.84,3.25-4.31-2.14-8.95-3.25-13.84-3.25h-9.35c-5.04-.05-7.67-.08-7.84-10.89v-.13Z"/>
      <path class="cls-5" d="m68.94,367.01c87.17-58.23,318.33-212.63,422.08-281.93l.91.04c19.19,4.69,33.04,6.92,44.98,7.88-.34,12.25-1.15,33.13-3,56.88l-.1.82c-107.09,71.53-347.76,232.29-428.51,286.22l-1.38.87c-13.42-22.58-25.34-45.92-35.82-70.11l.84-.67Z"/>
      <path class="cls-9" d="m358.51,277.76v274.04c11.72-12.12,23.92-25.83,36.2-41.17h0c17.59-21.98,33.49-44.7,47.76-68.25l-.02-1.26v-221.28l-.99.62-82.88,55.36-.07,1.94Z"/>
      <path class="cls-9" d="m358.51,44.52v119.76l.03,1.2,83.08-55.49.83-.67v-37.08l.07-1.04c-6.31-1.94-13-4.05-20.1-6.34-20.99-6.75-43.17-14.31-63.91-21.58v1.24Z"/>
      <polygon class="cls-9" points="190.64 277.24 190.64 269.6 190.62 269.28 203.14 269.28 202.81 269.51 190.65 277.63 190.64 277.24"/>
      <path class="cls-9" d="m106.7,332.16v-61.92l.03-.96H34.74l.27,1.55c8.12,31.44,18.22,61.53,30.34,90.41l1.26-.77,40.05-26.75.04-1.57Z"/>
      <path class="cls-9" d="m274.58,332l-1.36.84-81.94,54.73-.64.43v163.28l.05.59c38.13,39.49,70.95,62.24,83.89,70.52v-61.45c-41.03,0-74.29-33.26-74.29-74.29s33.26-74.29,74.29-74.29v-80.36Z"/>
      <path class="cls-7" d="m324.16,536.03c1.72-10.3,2.52-24.4-1.18-39.47-4.1-16.69-11.84-28.3-16.98-34.58l-.28-.43c11.75-5.56,23.33-7.01,30.88-7.27l.12.21c5,9.63,7.83,20.57,7.83,32.15,0,19.09-7.68,36.41-20.12,49.05l-.28.33Z"/>
      <path class="cls-7" d="m282.9,556.13c13.4-1.59,25.64-6.99,35.63-15.07l.28-.25c2.22-9.94,4.21-26-.02-43.23-4.16-16.93-12.33-28.42-17.08-33.98l-.39.23c-9.88,5.53-16.92,12.38-21.37,17.65l.38.71c3.22,6,8.49,18.26,8.82,34.53.34,16.66-3.54,30.74-6.79,39.52l.55-.11Z"/>
      <path class="cls-7" d="m296.37,420.69c-9.74,2.79-25.4,8.76-37.23,20.43-14.27,14.09-20.24,27.75-22.22,33.24l-.5-.32c-10.91-6.67-18.06-14.94-22.39-21.3l-.36-.49c12.03-21.22,34.83-35.57,60.92-35.57,7.93,0,15.55,1.33,22.65,3.76l-.86.25Z"/>
      <path class="cls-7" d="m304.6,423.45c12.12,5.78,22.33,14.95,29.4,26.27l.21.34c-8.39.5-20.33,2.45-32.34,8.58-17.05,8.71-26.66,21.28-30.15,26.56h-.69c-7.13-.39-17.81-2.22-29.86-8.49l-.4-.26c1.55-4.48,7.15-18.19,21.41-32.26,14.47-14.28,35.46-19.62,41.96-20.98l.46.24Z"/>
      <path class="cls-7" d="m208.08,506.8c9.83,8.12,25.51,17.78,46.01,18.56,14.97.56,24.91-2.07,30.38-4.21l.34-.05c-.37,15.28-4.3,28.01-7.24,35.5l-.43-.02c-.85.03-1.7.05-2.56.05-31.77,0-58.66-21.28-67.17-50.34l.67.52Z"/>
      <path class="cls-7" d="m205.52,498c-.6-3.7-.92-7.49-.92-11.35,0-10.56,2.35-20.57,6.55-29.56l.25-.51c5.04,7.06,13.15,15.84,25.41,22.7,19.2,10.73,35.44,10.68,41.56,10.16l.58-.03c2.66,6.26,5.53,15.54,5.84,26.89l-.43.2c-4.45,1.95-14.28,5.14-30.12,4.54-21.69-.82-38.27-12.33-48.55-22.12l-.19-.93Z"/>
      <path class="cls-8" d="m134.87,401.21l-2.74,1.83-9-13.47,2.49-1.67c5.68,4.73,12.18,8.26,19.09,3.64,3.61-2.41,5.45-7.2,2.77-11.22-4.02-6.02-11.08-3.65-16.74-2.68-7.29,1.22-14,1.02-18.76-6.11-5.32-7.97-2.32-16.15,4.9-20.97,3.36-2.25,7.37-3.8,11.46-3.07l-.88-3.07,2.68-1.79,8.16,11.41-2.68,1.79c-4.45-4.24-10.9-6.2-16.32-2.59-3.05,2.04-4.95,5.93-2.62,9.43,3.24,4.86,8.88,3.06,13.56,2.37,8.65-1.47,16.97-2.63,22.77,6.05,5.84,8.74,1.77,18.02-5.89,23.13-3.98,2.66-8.98,3.94-13.78,2.83l1.51,4.14Z"/>
      <path class="cls-8" d="m163.63,375.24c-1.87-2.8-1.09-6.48,1.72-8.35,2.74-1.83,6.46-1.25,8.33,1.55,1.87,2.8,1.27,6.62-1.59,8.54-2.8,1.87-6.58,1.07-8.45-1.74Z"/>
      <path class="cls-8" d="m179.54,368.19c6.11-3.8,3.95-6.76.4-12.07l-14.62-21.89c-3.55-5.31-5.46-8.44-11.3-4.25l-1.56-2.33,18.87-12.6c6.1-4.08,12.59-6.63,20.13-5.58,7.9,1.18,13.96,5.66,18.41,12.33,3.98,5.96,5.76,12.54,4.19,19.49-1.65,7.1-7.04,12.1-12.92,15.84-3.34,2.14-6.73,4.21-10.07,6.35-3.32,2.31-6.66,4.73-9.98,7.04l-1.56-2.33Zm7.38-22.25c1.3,1.94,4.33,6.48,6.07,7.74,2.32,1.73,4.92,1.3,7.16-.19,9.65-6.45,3.92-17.04-1.31-24.88-2.9-4.34-6.96-9.21-11.49-11.81-5.18-2.91-10.3-1.27-14.78,1.73-.5.33-1.97,1.5-2.1,2.25-.08.43.53,1.33.79,1.72l15.66,23.44Z"/>
      <path class="cls-8" d="m226.27,333.4c-1.87-2.8-1.09-6.48,1.72-8.35,2.74-1.83,6.46-1.25,8.33,1.55,1.87,2.8,1.27,6.62-1.59,8.54-2.8,1.87-6.58,1.07-8.45-1.74Z"/>
      <path class="cls-8" d="m267.86,297.39c3.55,5.31,5.46,8.44,11.3,4.25l1.56,2.33c-3.72,2.39-7.48,4.71-11.19,7.1-3.38,2.35-6.66,4.73-10.04,7.08l-1.56-2.33c6.11-3.8,3.95-6.76.4-12.07l-14.62-21.89c-3.55-5.31-5.46-8.44-11.3-4.25l-1.56-2.33c3.41-2.18,6.92-4.34,10.32-6.52,3.63-2.52,7.28-5.14,10.91-7.66l1.56,2.33c-6.11,3.8-3.95,6.76-.4,12.07l6.01,9,18.43-12.31-6.01-9c-3.55-5.31-5.52-8.39-11.37-4.21l-1.56-2.33c3.34-2.14,6.67-4.17,10.01-6.31,3.75-2.6,7.53-5.31,11.28-7.91l1.56,2.33c-6.11,3.8-3.95,6.76-.4,12.07l14.62,21.89c3.55,5.31,5.46,8.44,11.3,4.25l1.56,2.33c-3.65,2.35-7.42,4.67-11.07,7.02-3.44,2.39-6.78,4.81-10.23,7.2l-1.56-2.33c6.11-3.8,4.01-6.8.46-12.11l-6.44-9.65-18.43,12.31,6.45,9.65Z"/>
      <path class="cls-8" d="m281.48,241.47c3.28-2.1,6.67-4.17,9.95-6.27,3.82-2.64,7.59-5.35,11.41-7.99l1.56,2.33c-6.17,3.84-3.99,6.97-.44,12.28l10.42,15.61c5.49,8.22,10.65,11.9,19.55,5.95,7.78-5.2,9.12-12.09,3.89-19.92l-9-13.47c-1.56-2.33-4.57-6.97-7.09-8.19-2.27-1.11-4.57-.51-6.57.55l-1.56-2.33c2.41-1.52,4.86-2.97,7.27-4.48,2.45-1.73,4.91-3.56,7.36-5.29l1.56,2.33c-1.65,1.57-3.28,3.31-2.96,5.82.39,3.02,3.41,6.99,5.1,9.52l8.09,12.11c7.83,11.72,5.87,21.46-5.53,29.07-10.9,7.28-20.7,8.11-29.69-5.36l-10.38-15.54c-3.59-5.37-5.35-8.41-11.39-4.38l-1.56-2.33Z"/>
      <path class="cls-8" d="m356.69,249.86c6.11-3.8,3.95-6.76.4-12.07l-14.62-21.89c-3.55-5.31-5.45-8.44-11.3-4.25l-1.56-2.33c3.59-2.31,7.17-4.51,10.76-6.81,7.55-5.14,15.12-10.38,22.68-15.52l8.11,11.06-2.68,1.79c-5.34-5.7-10.23-5.34-16.21-1.35-.75.5-4.73,3.16-4.63,4.12.03.45,1.93,3.3,2.28,3.82l8,11.98c5.04-3.37,7.63-6.5,3.86-12.69l2.49-1.66c1.93,3.02,3.79,6.08,5.72,9.1,1.84,2.61,3.78,5.25,5.61,7.86l-2.49,1.66c-5.16-5.17-7.47-5.12-13.2-1.3l5.06,7.58c4.07,6.09,6.47,10.1,13.82,5.19,7.04-4.7,8.3-8.73,4.97-17.09l2.49-1.66c1.58,2.5,3.06,4.98,4.64,7.48,1.23,1.71,2.48,3.31,3.71,5.01-8.64,5.67-17.32,11.28-25.95,16.96-3.51,2.44-6.91,4.89-10.41,7.33l-1.56-2.33Z"/>
      <path class="cls-8" d="m400.37,223.86l-2.74,1.83-9-13.47,2.49-1.66c5.68,4.73,12.18,8.25,19.09,3.64,3.61-2.41,5.45-7.2,2.77-11.22-4.02-6.02-11.08-3.65-16.74-2.68-7.29,1.22-14,1.02-18.76-6.11-5.32-7.97-2.32-16.15,4.9-20.97,3.36-2.25,7.37-3.8,11.46-3.07l-.88-3.07,2.68-1.79,8.16,11.41-2.68,1.79c-4.45-4.24-10.9-6.21-16.32-2.59-3.05,2.04-4.95,5.93-2.62,9.43,3.24,4.86,8.88,3.06,13.56,2.37,8.65-1.47,16.97-2.63,22.77,6.05,5.84,8.74,1.77,18.02-5.89,23.13-3.98,2.66-8.98,3.94-13.78,2.83l1.51,4.14Z"/>
      <path class="cls-8" d="m469.29,177.55l-2.11,1.41-3.69-2.97c-1.28,5.91-5.45,10.57-10.31,13.82-12.33,8.24-26.52,5.73-35.21-7.29-8.87-13.27-6.18-28.93,6.52-37.42,4.48-2.99,9-4.32,14.49-3.78l-1.53-4.31,2.68-1.79,9.64,13.22-2.74,1.83c-5.46-5.34-12.53-7.17-18.95-2.89-9.65,6.45-5.32,19,.18,27.23,5.92,8.87,15.38,16.7,25.37,10.21,7.25-4.65,7.24-12.89,3.82-20.44l2.49-1.66,8.29,12.4.1.16c4.81-3.53,2.51-10.83,1.46-15.86l-8.26-39.06,2.99-2,35.06,24.72c1.85,1.29,5.26,3.7,7.37,4.16,1.81.29,3.65-.47,5.27-1.27l1.56,2.33c-3.78,2.43-7.6,4.8-11.38,7.23-3.19,2.23-6.41,4.56-9.6,6.79l-1.56-2.33c1.7-1.51,5.08-3.58,3.22-6.37-.69-1.04-3.02-2.76-4.04-3.48l-3.77-2.82-13.76,9.19.51,2.38c.52,1.99.97,4.69,2.14,6.44,2.12,3.17,5.11,1.45,7.55.11l1.56,2.33c-2.66,1.68-5.36,3.3-8.02,4.98-2.32,1.64-4.6,3.35-6.93,5l-.22-.33-.17.13Zm13.94-32.63l-15.43-11.23,4.1,18.8,11.33-7.57Z"/>
      <path class="cls-8" d="m87.25,220.37c-.11-.06-.22-.12-.33-.18-2.35-1.26-4.74-2.52-7.88-3.43,0,0-.06-.75-.08-1.02-.17-3.1-.28-4.4,1.58-2.48,1.23,1.27,4.32,4.57,6.29,6.67l.42.45Zm-8.59-92.91c.52-6.22.48-14.27.48-14.27,0,0-1.35,13.21-3.72,19.19,0,0-1.92-10.1-2.71-13.37,0,0,.51,3.27.68,9.76.1,3.96.08,8.32.05,11.12l-.04.67c-.14-.33-.29-.67-.45-1-2.6-5.25-7.22-13.15-7.22-13.15,0,0,2.2,6.43,3.61,12.3,1.2,4.99,1.99,9,2.06,12.87l-.02.58c-1.45-4.69-4.11-10.23-6.73-12.77,0,0,2.94,8.07,4.63,15.12,1.3,5.42,2.14,14.45,2.45,18.34l.03.5c-.66-1.28-1.38-2.57-2.15-3.82-4.63-7.56-8.8-11.57-8.8-11.57,0,0,7.45,12.36,10.78,20.49,2.52,6.15,3.39,8.8,3.39,8.8,0,0-1.92-1.69-5.02-4.57-3.1-2.88-5.98-6.15-6.77-6.04-.79.11-.06,1.81,1.41,5.59,1.47,3.78,3.61,8.24,3.61,8.24-.62-2.82-1.92-8.3-1.52-8.35.39-.06,4.68,5.08,8.01,9.31,3.33,4.23,5.47,11.74,5.47,11.74,0,0-1.86-2.65-5.87-5.98-4.01-3.33-6.94-3.78-6.94-3.78,0,0,4.85,4.46,9.54,9.6,3.15,3.46,5.54,7.04,6.76,9.01l-.83-.72c-2.37-1.81-6.1-4.57-6.77-4.52-.68.06-.28,1.52.68,5.64.29,1.23.65,2.57,1.03,3.84l.04.17c-1.6-.39-3.4-.69-5.47-.85,0,0,2.78,1.28,6.06,2.88l.13.29c.58,1.83,1.04,3.15,1.04,3.15,0,0-.15-1.17-.31-2.81v-.21c1.45.71,2.94,1.46,4.31,2.17,3.88,2.03,7.98,5.47,9.47,6.77l-.21-.05c-6.15-1.35-11.46-1.24-11.46-1.24,3.1,1.02,6.83,1.58,10.33,3.39,3.5,1.81,10.1,5.25,17.16,7.34,7.06,2.09,15.01,2.6,21.62,3.39,2.51.3,5.15.7,7.74,1.14l.42.09c-5.82,1.34-12.36,3.23-16.06,3.18-3.89-.06-6.04.85-9.03,2.71-2.99,1.86-6.6,3.39-6.6,3.39,0,0,6.04.17,9.71.17s5.64-.68,6.89-2.71c0,0,3.22-1.41,11.17-3.33,2.69-.65,6.07-1.47,9.65-2.33l.46.07c1.75.35,3.37.7,4.79,1.02,5.02,1.13,9.93,3.33,9.93,3.33,0,0,.34.34,2.09,1.35,1.75,1.02,4.91,1.3,8.75,1.81,3.84.51,4.4.51,4.4.51,0,0-1.64-1.52-3.67-3.22-1.87-1.56-4.74-2.99-6.43-3.39-2.68-.63-4.06-.4-4.06-.4,0,0-8.58-1.13-12.13-1.97l-.24-.05c5.84-1.41,11.76-2.82,15.76-3.73,7.39-1.69,13.54-3.27,16.7-3.67,3.16-.39,4.74-1.07,6.94.51,2.2,1.58,4.92,2.5,8.86.56,3.44-1.69,4.63-3.78,4.63-3.78,0,0-2.03-.23-3.44-.9-1.06-.51-2.53-1.11-4.37-1.21l-.28-.02c.97-.79,2.79-2.47,4.03-4.86,1.02-1.98,1.81-4.23,2.33-5.92l.08-.28c.75-.54,2.42-1.82,4.76-3.98,2.41-2.24,3.37-3.91,3.75-4.87l.1-.28c.57-.23,1.8-1.26,2.8-3.73,1.13-2.8.62-5.8-.36-9.4l.1-.25c.37-.67.82-1.31,1.24-1.85l.14.4c1.49,3.39,4.39,3.82,6.95,3.14,2.77-.73,3.84-1.47,3.84-1.47,0,0-.68-.23-2.65-1.69-1.04-.77-1.62-1.67-1.95-2.34l-.08-.25c1.62-.44,3.22-1.28,4.4-3.22,1.58-2.6.9-6.66.9-6.66-.96,1.13-2.24,1.94-5.47,2.77-1.86.47-2.86.84-3.52,1.44l-.21.11c.01-.88.18-2.71,1.36-3.3,1.58-.79,4.23-2.14,6.32-4.74,2.09-2.6,3.1-8.75,4.4-11.46,0,0-2.74.59-5.81,2.48-1.71,1.06-2.98,1.93-4.18,3.16l-.13.11c-.18-.68-.39-1.84-.21-2.99.28-1.81,1.52-2.99,3.95-4.63,2.43-1.64,3.05-2.14,4.69-4.12,1.64-1.98,2.26-5.19,3.89-9.26,1.25-3.09,3.1-5.81,3.1-5.81,0,0-2.31.23-5.3,1.58-2.32,1.05-4.34,2.02-6.16,4.34l-.22.23c-.1-1.4-.41-3.92-1.28-6.09l.11-.49c.49-2.29,1.48-4.02,1.48-4.02.62-.31,1.58-.91,2.34-1.92.94-1.24,1.97-6.15.9-8.75-1.07-2.6-2.2-4.8-2.43-5.98,0,0-2.58,1.62-2.7,4.96v.51c-.81-1.46-1.64-2.92-2.16-4.63,0,0-1.86,2.93-2.2,5.87-.31,2.72.25,5.64,3.4,7.67l.3.23c.1,1.49-.02,2.8-.17,3.72l-.07.41c-.81-1.45-1.64-2.69-2.18-3.44-.36-.51-.79-1.11-.79-1.11-.15-.97-.39-2.17-.76-3.36-.56-1.84-1.55-2.67-2.01-2.96l-.14-.08c-.01-2.66,1.34-5.19,2.43-8.3,1.13-3.22.79-8.58-.56-11.29-1.35-2.71-1.58-6.1-1.58-6.1,0,0-2.2.73-3.05,3.27-.17.51-.3,1.1-.41,1.74l-.08.47c-1.05-4.37-6.17-7.11-6.17-7.11,0,0,.24,5.53.02,8.72l-.21-.17c-1.68-1.57-3.48-2.93-5.22-3.92,0,0,1.58,3.67,2.6,7.96,1.02,4.29,2.54,8.3,5.08,10.38l.21.14c-.01.76-.01,2.13.12,3.33l-.27-.23c-2.11-2.07-4.24-3.81-4.24-3.81,0,0-.23,5.3,1.13,8.35,1.29,2.9,3.54,4.62,6.43,5.32l.29.1s1.07.85,2.09,2.71c1.24,2.26,1.35,6.09,1.35,6.09,0,0-.1.64-.1.85,0,.25,0,.51.01.76l-.27-.35c-.88-1.18-1.83-2.18-2.8-2.84-2.88-1.97-5.59-2.26-5.59-2.26,0,0,.4,5.76,2.48,10.38,1.37,3.03,3.25,5.45,4.77,6.88l.2.23s-.62,2.6-2.65,6.77-3.16,6.38-1.81,10.95c1.2,4.07,2.72,6.35,3.8,6.72l.14.42c.23.68.49,1.59.58,2.51,0,0-.24.86-.61,1.58l-.09-.27c-.49-2.15-.71-3.57-.71-3.57,0,0-1.83,2.27-3.76,4.17,0,0-.12-1.17-.19-1.57-.73-4.18-3.5-5.81-4.8-8.3,0,0-1.47,2.03-1.69,4.35-.16,1.7.12,3.67.29,4.6l-.34-.2c-.76-.42-1.25-.62-1.25-.62,0,0,.28,2.48.23,5.87-.06,3.39-.02,5.64,2.31,8.8,1.09,1.47,2.32,2.4,3.33,2.85l-.09.26c-.27.75-.75,1.85-1.61,3.22-1.16,1.86-2.11,3.1-2.59,3.7l-.22-.03c-.99-.01-2.33.11-3.74.68-2.12.85-3.81,2.51-5.06,4.08,0,0,.4-2.18.54-3.07.45-2.77.23-6.55.23-6.55,0,0-2.47,3.79-4.91,8.13-2.77,4.91-3.22,6.38-3.61,8.86-.17,1.07-.9,3.16-1.98,3.56-3.44,1.27-24.85,6.24-35.64,8.69l-1.49.28c-3.78-.76-8.79-1.78-14.95-3.27-10.05-2.43-13.32-3.1-18.51-8.29-3.95-3.95-7.34-7.79-8.69-9.76-1.35-1.98-2.2-3.95-2.2-3.95,0,0,.28,3.22,2.99,7.62,2.32,3.77,5.9,8.12,10.1,11.14l-.34.03c-.42,0-.82,0-1.21-.03l-.24-.11c-4.46-2-8.59-6.44-10.86-12.16-2.37-5.98-3.1-13.49-3.1-13.49,0,0-1.02,3.07-.94,8.44v.53c-.09-.27-.2-.56-.3-.84-2.43-6.7-2.93-10.67-3.1-16.48-.17-5.81.23-9.2.23-9.2,0,0-2.48,4.68-3.05,9.99-.25,2.32-.3,4.05-.07,5.82l-.23-.43c-2.38-4.83-1.79-10.93-.95-15.71.9-5.14,2.65-10.16,2.65-10.16,0,0-3.16,3.78-4.68,8.58-1.52,4.8-1.52,9.93-.4,15.86.2,1.07.51,2.24.87,3.44l-.27-.38c-3.58-5.31-3.77-14.26-2.12-22.93,1.81-9.48,4.63-14.79,4.63-14.79,0,0-4.62,6.35-6.32,13.15-1.37,5.49-1.81,9.08-1.94,11.05l-.11-.5c-1.47-6.6-1.25-11.11.07-15.12,1.52-4.63,6.55-12.08,6.55-12.08,0,0-5.05,3.89-8.08,10.1l-.23.46c.27-1.7,1.11-5.85,3.41-10.83,3.01-6.54,7.38-11.75,7.38-11.75,0,0-3.39.99-6.98,5.93-1.66,2.29-2.86,4.28-3.69,5.84l.12-.57c1.91-8.22,2.49-9.53,5.13-14.36,2.94-5.36,3.95-7.17,3.95-7.17,0,0-2.88,1.81-5.53,5.59-1.48,2.11-3.05,4.29-4.48,8.05l.07-.65c.28-2,1.08-5.8,3.28-11.41,2.94-7.47,5.64-11.57,5.64-11.57,0,0-4.92,3.86-7.62,9.26-1.09,2.19-1.92,4.35-2.53,6.34l.22-1.21c.93-4.45,2.7-8.66,5.48-13.03,3.61-5.7,9.99-13.43,9.99-13.43,0,0-5.81,4.35-9.93,9.43-1.78,2.19-3.22,4.06-4.4,6.12l.15-.73c.79-3.72,2.9-8.08,6.28-13.13,3.89-5.81,10.95-15.01,10.95-15.01,0,0-3.37,2.27-9.03,8.8-2.34,2.7-4.94,6.14-7.26,10.4l.07-.82Z"/>
      <path class="cls-7" d="m160.26,245.28c.45-.62,1.55-.73,2.4-.63.52.06,1.13.17,1.84.33,1.52.35,4.32,1.7,6.19,3.26.88.73,1.68,1.43,2.31,1.99-.63-.07-1.45-.18-2.59-.33l-1.49-.19c-2.62-.33-4.91-.66-6.41-1.24-2.66-1.03-2.7-2.58-2.25-3.21Z"/>
      <path class="cls-7" d="m112.43,234.95c.41.27.82.53,1.24.77.42.24.82.47,1.22.66,1.8.86,3.27.81,3.27.81-1.09-.41-2.57-1.05-4.2-1.98-4.31-2.47-8.81-7.08-12.04-12.33-.49-.8-.88-1.54-1.22-2.25,1.66,2.19,4.8,5.68,8.2,9.07,5.17,5.17,8.65,6.01,17.97,8.25l.82.2c6.41,1.55,11.62,2.6,15.42,3.37,2.18.44,3.9.79,5.18,1.09,3.18.76,10.18,1.72,11.84,1.94,0,0-.42.31-.65.98-.09.28-.1.59-.06.9l.05.25c-1.08-.46-5.42-2.27-9.79-3.26-2.46-.55-11.1-2.43-19.19-3.4l-4.17-.46c-1.58-.17-3.22-.34-4.89-.55-.59-.08-2.74-.37-3.79-.52-2.94-.45-5.88-1.02-8.66-1.84-6.85-2.03-13.34-5.38-16.83-7.18l-.22-.12c-1.75-.9-3.52-1.49-5.26-1.98,1.76.18,3.82.47,5.99.94,4.07.9,6.09,2.1,8.04,3.27.96.57,1.86,1.11,2.96,1.6,3.18,1.4,4.9,1.69,7.12,1.74,1.06.02,1.64,0,1.64,0Z"/>
      <path class="cls-7" d="m95.54,219.4c-.08-1.06-.11-2.04-.11-2.96,0-1.69.11-3.11.26-4.27.46,2.75,1.28,6.65,2.65,10.1,2.07,5.22,5.67,9.5,9.88,11.84l-.35-.06c-1.1-.24-2.32-.66-3.96-1.38-1.28-.56-2.3-1.22-3.43-1.88l-.14-.28c-.67-1.34-2.43-4.99-4.62-10.67l-.18-.43Z"/>
      <path class="cls-7" d="m93.98,227.88c-.21-.2-5.3-4.82-10.17-7.37-2.53-1.32-5.48-2.76-7.73-3.83,4.67.89,7.78,2.53,10.56,4.03,3.69,1.98,7.71,5.21,7.75,5.24l1.57,1.27-.64-1.91s-1.22-3.64-3.73-10.29c-1.92-5.08-2.61-7.53-2.61-10.55,0-1.02.08-2.12.21-3.4.27-2.52.98-4.9,1.65-6.69-.03.85-.05,1.83-.05,2.97,0,.88.01,1.85.04,2.89.17,5.92.69,9.92,3.14,16.66,2.47,6.8,4.61,11.4,5.58,13.37l-.21-.13c-1.32-.72-2.89-1.43-5.14-2.04l-.24-.22Z"/>
      <path class="cls-7" d="m76.11,185.09l-.2-.62c-1.04-2.91-3.46-9.16-6.82-14.64-1.65-2.7-3.25-4.94-4.62-6.71,2.45,4.34,5.74,10.43,7.65,15.1,2.5,6.1,3.37,8.74,3.4,8.84l.36,1.1s.19-2.62.24-3.06Z"/>
      <path class="cls-7" d="m76.48,189.43l-1.91-1.75s-1.96-1.73-5.03-4.58l-2.86-2.77c-.91-.9-1.97-1.95-2.7-2.57-.2-.17-.43-.03-.35.21.24.77.68,1.91,1.17,3.15l.34.88c.4,1.03.85,2.11,1.29,3.13-.18-.9-.29-1.56-.36-2.04-.09-.64-.08-1.26.13-1.46.2-.2.71-.31,1.49.51.46.48,1.2,1.27,2.35,2.62,1.48,1.74,3.39,4.08,5.12,6.28,2.52,3.21,4.35,8.15,5.14,10.55.63,2.02.97,3.75.97,3.75,0,0-1.95-2.36-2.67-3.19-.93-1.08-2.48-2.7-4.68-4.53-1.57-1.3-2.95-2.13-4.06-2.68,1.86,1.79,4.7,4.61,7.47,7.64,3.26,3.57,5.73,7.32,6.93,9.28.53.85,1.02,1.86,1.02,1.86,2.36,2.64,4.98,6.14,4.98,6.14,0,0-2.3-4.95-3.95-9.92l-.1-.11c-2.89-3.14-4.38-8.31-4.38-14.79,0-3.08.34-6.45,1.02-10.04.6-3.18,1.32-5.87,2-8.07-.99,2.01-1.95,4.33-2.54,6.69-.98,3.92-1.49,6.87-1.72,8.94-.27,2.38-.26,4.06-.26,4.06.04.15.1.35.17.63.17.69.38,1.35.57,2,2.01,6.89,4,11.66,4,11.66,0,0-1.41-1.86-2.56-5.17-.78-2.27-1.7-5.12-2.58-8.33-1.23-4.47-1.84-8.19-1.84-11.5,0-2.59.37-4.93,1.11-7.18.8-2.42,2.5-5.54,3.98-8.03-1.67,1.88-3.57,4.46-4.9,7.55-1.05,2.43-1.47,5.63-1.64,7.86-.11,1.46-.14,3.36-.14,3.36Z"/>
      <path class="cls-7" d="m88.93,208.88c.42,1.72,1.1,3.68,2.11,6.35,2.54,6.72,3.72,10.27,3.72,10.27,0,0-1.89-1.52-4.3-3.14-.26-.18-1.48-.99-1.48-.99-.06-.07-6.18-6.63-8.02-8.53-.62-.64-1.35-1.3-2.02-1.01-.52.23-.66.78-.66,1.82,0,.51.12,2.58.13,2.81-.41-1.38-.82-2.86-1.13-4.2l-.19-.83c-.43-1.85-.78-3.36-.81-3.99.54.26,2.05,1.16,6.16,4.3,1.46,1.11,4.05,4.25,5.72,6.38,1.74,2.12,3.07,3.51,3.07,3.51,0,0-.47-1.9-1.72-4.94-1.29-3.13-3.28-8.13-3.99-11.86-.53-2.77-.79-5.3-.79-7.66,0-2.85.39-5.45,1.17-7.91.63-1.98,1.56-3.8,2.41-5.23-.52,1.85-1.12,4.18-1.53,6.53-.38,2.17-.74,4.77-.74,7.46,0,3.05.47,6.2,1.9,8.93.14.27.99,1.91.99,1.91Z"/>
      <path class="cls-7" d="m73.45,168.74c-.38-3.19-1.15-9.37-1.79-12.95-.7-3.91-2.9-9.54-5.33-13.3,1.01,3.02,2.48,7.64,3.5,11.87,1.69,7.02,2.6,20.17,2.61,20.3l.17.41c.81,1.66,1.52,3.26,2.12,4.7l.09-.61c.32-1.86.95-5.02,2.15-10.35,2.53-11.16,2.94-12.12,5.87-17.48,0,0,1.31-2.38,2.47-4.48-.92.87-2,2.04-3.05,3.53l-.13.19c-2.39,3.4-5.07,7.22-6.93,18.09-.12.68-.76,5.73-.76,5.73,0,0-.85-4.43-.99-5.65Z"/>
      <path class="cls-7" d="m75.01,146.5c1.46-6.77,3.81-9.93,7.35-14.3,1.67-2.06,3.62-3.99,5.36-5.57-2.06,2.66-4.57,6.04-6.37,8.89-3.65,5.75-5.61,11.29-6.18,17.42l-.05,1.14c-.76,3.56-.83,5.96-.83,5.96,0,0-.39-2.43-.23-6.66.05-1.15.18-2.32.29-3.51,0,0,.53-2.77.66-3.38Z"/>
      <path class="cls-7" d="m76.62,159.13c0-.18.04-4.56,3.48-13.31,1.39-3.52,2.71-6.28,3.73-8.23-1.52,1.6-3.34,3.83-4.63,6.4-2.83,5.66-3.83,11.19-4.16,14.05-.33,2.81-.6,5.28-.6,5.28,0,0-.83-3.66-.9-4.46-.07-.79-.13-1.94-.13-3.41,0-.64.01-1.35.04-2.11.04-.94.13-1.91.22-2.84.12-1.26.25-2.54.25-3.86,0-2.14-.33-4.39-1.54-6.84-1.25-2.52-2.98-5.68-4.43-8.27.64,2.12,1.35,4.62,1.93,7.02,1.3,5.42,2.09,9.52,2.09,13.54,0,.51.01,2.34.01,2.34.1.43.19.84.26,1.24.9,5.02,2.03,15.01,2.03,15.01.65-4.36,1.42-7.71,2.25-10.37l.09-1.2Z"/>
      <path class="cls-7" d="m77.55,168.95c-1.67,7.36-2.22,10.56-2.4,11.87l.14.35c.38.95.7,1.79.96,2.5l.09-.48c.18-1.16.42-2.37.77-3.52l.16-1.55c.02-.21.55-5.29,3.57-11.84,1.83-3.97,4.18-7.48,5.75-9.64-1.2.86-2.74,2.24-4.32,4.41-2.34,3.22-3.73,5.84-4.49,7.48l-.23.41Z"/>
      <path class="cls-7" d="m74.03,138.81c.01-1.05.02-2.25.02-3.53,0-2.09-.02-4.37-.07-6.53,0-.3-.02-.56-.03-.84.49,2.51.88,4.54.89,4.58l.38,2.01.75-1.9c.97-2.46,1.77-6.05,2.38-9.48-.1,2.2-.25,4.43-.47,6.32v.2c-1.47,2.91-2.8,6.17-3.82,9.82l-.02-.64Z"/>
      <path class="cls-7" d="m74.07,141.72c2.04-8.55,6.15-16.44,12.23-23.45,1.81-2.08,3.37-3.73,4.68-5-2.35,3.15-5.42,7.33-7.54,10.49-4.01,5.99-6.18,10.91-6.64,15.05l-.02.5c-.83,1.69-1.51,3.57-2.08,5.88l-.18.69c-.04-1.17-.2-2.37-.55-3.62l.1-.54Z"/>
      <path class="cls-7" d="m109.09,106.88l1.6-2.46-2.61-.92-.11-.05c-.16-.28-.34-.56-.53-.86l.14-.06c.17-.07.35-.14.52-.21l.17-.05c1.76.62,4.01,1.41,4.32,1.52-.18.27-1.51,2.31-2.6,3.99l-.12.07c-.18.07-.66.26-.66.26-.04-.31-.08-.61-.11-.89l-.02-.33Z"/>
      <path class="cls-7" d="m174.64,96.14c-3.31-.93-6.67-1.71-10.08-2.31l-.41-.07c3.67-.61,5.58-2.24,6.43-3.23.5,1.26,1.7,3.65,4.25,5.65l-.2-.04Z"/>
      <path class="cls-7" d="m146.02,69.36c1.58,0,2.86.51,3.69,1.47.67.77,1.11,1.83,1.1,3.01-.03,1.76-.75,2.68-1.79,3.76,0,0,1.39-1.47,3.76-1.63,1.06-.06,2.77.03,3.35,1.12.39.73.54,1.3.54,1.84,0,.66-.23,1.27-.53,2.08l-.49,1.44c-.2.68-.27,1.47-.27,2.22,0,.51.03.98.08,1.43-.12-.13-.23-.27-.29-.46-.31-1.04-.93-1.55-1.4-1.8-1.11-.59-2.31-.24-2.45-.2l-.56.17-.1.58c-.38,2.16,0,3.9,1.14,5.16,2.19,2.43,6.62,2.48,10.67,2.2,4.61-.31,6.67-2.77,7.55-4.22.78-1.29.87-2.09.87-2.09,0,0-2.72.48-3.44-1.02-.28-.58-.16-1.68.43-2.48.51-.7,1.25-1,2.19-.91l1.03.09.02-1.04s.03-.73.48-1.08c.42-.33,1.12-.26,1.64-.15.7.15,1.17.44,1.42.87.42.74.12,1.73.11,1.74l-.26.88.85.32c.25.09,1.49.69.84,2.99-.2.69-.49,1.16-.88,1.34-.88.41-2.28-.27-2.28-.27,0,0-.16,1.79,0,2.75.26,1.56,1.13,3.93,3.91,5.95,2.76,2,7.01,2.38,10.11.9,1.51-.72,2.49-1.8,2.95-3.1.46-1.29.06-2.07-.34-2.47-.37-.38-.94-.67-1.76-.67-1.08,0-1.69.9-2.23,1.69-.2.29-.41.59-.64.85,0-.93-.08-2.11-.35-3.38-.1-.47-.17-1.04-.17-1.63,0-1.7.56-3.62,2.58-4.12,1.2-.3,2.19.16,2.79.71.78.72,1.11,2.04,1.02,3.15,0,0,.43-1.4,2.09-3.01.61-.56,1.55-1.24,2.66-1.31,1.07-.07,1.56.13,2.24.4.23.09.52.19.8.29-.8.7-1.78,1.58-2.51,2.31-1.01,1.01-1.47,2.19-1.89,3.46l-.05.14c-.17.09-.35.2-.55.36h0c-.26.21-.49.42-.69.63l-.09-.19c-.21-.45-.79-1.33-2.3-1.8,0,0,1.19,1.02,1.52,2.84l.02.26c-.45.8-.49,1.48-.45,1.9.03.38.15.72.33,1.02l-.08.13c-.69.97-1.59,1.89-2.96,2.94-1.03.79-1.91,1.64-2.66,2.49l-.16-.04c-1.64-.69-3.31-1.33-5-1.93-.33-.12-2.76-1.02-3.25-1.25-5.39-2.58-6.75-7.54-6.77-7.59l-.26-1s-.93,1.43-1.66,2.08c-1.35,1.19-4.17,2.81-9.4,2.54-.5-.03-3.73-.34-4.14-.37-3.22-.3-6.47-.45-9.72-.45-3.73,0-7.46.2-11.16.59-1,.12-1.82.18-3.2.25-5.79.17-8.49-2.02-9.47-3.13-.2-.22-1.08-1.55-1.08-1.55l-.27,1.05c-.01.05-1.23,4.48-5.92,7.15-.89.47-1.75.84-2.52,1.15-2.27.77-4.5,1.61-6.7,2.53l-.07-.06c-.74-.84-1.61-1.68-2.62-2.45-1.37-1.05-2.28-1.96-2.96-2.94l-.08-.13c.18-.29.3-.64.34-1.02.04-.42,0-1.1-.45-1.9l.02-.26c.32-1.82,1.52-2.84,1.52-2.84-1.5.46-2.09,1.34-2.29,1.8l-.09.19c-.2-.21-.43-.41-.69-.63h0c-.2-.16-.38-.28-.55-.36l-.05-.14c-.41-1.26-.88-2.45-1.89-3.46-.73-.73-1.7-1.61-2.51-2.31.29-.1.58-.2.81-.29.68-.28,1.17-.48,2.24-.4,1.1.07,2.05.75,2.66,1.31,1.66,1.61,2.09,3.01,2.09,3.01-.09-1.11.24-2.43,1.02-3.15.6-.55,1.59-1.01,2.79-.71,2.02.5,2.58,2.42,2.58,4.12,0,.59-.07,1.16-.17,1.63-.27,1.27-.34,2.45-.35,3.38-.23-.26-.44-.56-.64-.85-.54-.79-1.15-1.69-2.23-1.69-.82,0-1.39.29-1.76.67-.4.41-.8,1.18-.34,2.47.46,1.29,1.44,2.38,2.95,3.1,3.1,1.48,7.36,1.1,10.11-.9,2.78-2.02,3.65-4.39,3.91-5.95.16-.96,0-2.75,0-2.75,0,0-1.4.68-2.28.27-.39-.18-.68-.64-.88-1.34-.66-2.3.58-2.9.84-2.99l.86-.32-.26-.88s-.31-1,.12-1.74c.24-.42.72-.71,1.42-.87.52-.11,1.22-.18,1.64.15.45.35.48,1.08.48,1.08l.02,1.04,1.03-.09c.94-.09,1.68.21,2.19.91.59.8.71,1.9.43,2.48-.72,1.5-3.44,1.02-3.44,1.02,0,0,.08.8.86,2.09.88,1.45,2.94,3.91,7.55,4.22,4.05.27,8.49.23,10.67-2.2,1.13-1.26,1.52-3,1.14-5.16l-.1-.58-.56-.17c-.13-.04-1.34-.39-2.45.2-.47.25-1.09.76-1.4,1.8-.06.19-.17.33-.29.46.04-.44.08-.92.08-1.43,0-.76-.07-1.54-.27-2.22l-.49-1.44c-.3-.81-.53-1.43-.53-2.08,0-.54.15-1.11.54-1.84.58-1.1,2.29-1.19,3.35-1.12,2.36.17,3.76,1.63,3.76,1.63-1.04-1.08-1.76-2-1.79-3.76-.02-1.18.42-2.24,1.09-3.01.84-.96,2.11-1.47,3.69-1.47m-26.63,11.87c-.73.07-1.33.8-1.46,1.77v.68c.06.72.38,1.39.86,1.78.33.26.68.38,1.04.35.46-.04.77-.32.95-.54.39-.48.58-1.19.51-1.91-.07-.72-.39-1.38-.87-1.78-.32-.26-.68-.39-1.04-.35Zm25.94-4.05c-1.01.33-1.83,1.37-2.14,2.71l-.04.13c-3.06-.7-4.49.3-4.49.3,0,0,2.55-.41,4.38,1.19l.03.22c.2,1.98,1.45,3.51,2.95,3.51s2.77-1.56,2.96-3.57l.02-.15c1.84-1.6,4.38-1.19,4.38-1.19,0,0-1.43-1-4.5-.3l-.04-.21c-.34-1.35-1.19-2.38-2.23-2.67,0,0,.16-2.63-.64-4.59,0,0-.36,1.48-.48,2.56-.12,1.08-.15,2.06-.15,2.06Zm26.28,4.4c-.48.39-.8,1.06-.87,1.78-.07.72.12,1.44.51,1.91.18.22.5.5.95.54.36.03.71-.09,1.04-.35.47-.39.8-1.06.87-1.78v-.68c-.14-.97-.74-1.7-1.47-1.77-.36-.03-.72.09-1.04.35Z"/>
      <path class="cls-7" d="m117.36,96.16c3.35-.95,6.75-1.73,10.19-2.34l.35-.05c-3.68-.61-5.6-2.24-6.45-3.23-.5,1.26-1.7,3.65-4.25,5.65l.16-.03Z"/>
      <path class="cls-7" d="m109.39,109.08l.12-.05c11.38-4.75,23.85-7.24,36.51-7.24s25.12,2.48,36.49,7.23l.13.1-.21,1.46-.18-.08c-11.28-4.73-23.62-7.2-36.23-7.2s-24.97,2.48-36.26,7.21l-.15.05-.22-1.48Z"/>
      <path class="cls-7" d="m182.92,107.2c-.03.29-.07.58-.11.89,0,0-.47-.18-.63-.25l-.14-.06c-1.1-1.68-2.43-3.73-2.61-4,.32-.11,2.58-.91,4.34-1.53l.18.07c.17.07.64.26.64.26-.2.3-.37.6-.54.88l-2.72.96,1.59,2.44v.35Z"/>
      <path class="cls-7" d="m184.94,101.69c-12.22-5.03-25.29-7.57-38.92-7.57s-26.74,2.55-38.98,7.6l-.14.06c-.15-.21-.31-.42-.47-.64l-.09-.13c12.38-5.15,25.99-7.85,39.69-7.85s27.2,2.68,39.55,7.79l.14.07c-.2.26-.39.51-.57.76l-.2-.09Z"/>
      <path class="cls-7" d="m146.02,95.3l4.14,2.74-4.14,2.74-4.14-2.74,4.14-2.74Zm-2.06,5.56c.69-.02,1.37-.02,2.06-.02s1.39,0,2.08.02l.18-.12c1.67-1.1,3.7-2.44,4.02-2.65-.34-.23-2.68-1.77-4.4-2.91l-.16-.09c-.57,0-1.14-.01-1.72-.01s-1.15,0-1.72.01l-.16.09c-1.53,1.01-4.02,2.66-4.4,2.9.32.21,2.42,1.6,4.11,2.71l.1.06Z"/>
      <path class="cls-7" d="m127.62,102.43c.56-.5.96-1.1,1.15-1.73.32-1.18,0-1.93-.34-2.45-.26-.4-.62-.74-1.08-1.01-.17-.1-.35-.19-.53-.26l-.21-.09c5.47-1.04,11.06-1.64,16.76-1.77l-.08.07-4.41,2.91,4.03,2.66.18.13c-5.3.16-10.55.75-15.69,1.75l.23-.21Z"/>
      <path class="cls-7" d="m126.7,98.69c.35.2.56.46.64.77.08.3,0,.64-.19.98-.44.75-1.41,1.38-2.6,1.68-1.95.5-3.5-.11-3.73-.99h0c-.08-.31-.02-.64.19-.99.44-.74,1.43-1.38,2.6-1.68,1.17-.3,2.36-.22,3.09.22Zm-3.45,4.84c.92-.22,1.84-.43,2.77-.63l.11-.06c.98-.5,1.72-1.21,2.06-2.01.31-.71.3-1.51-.09-2.21-.22-.39-.56-.73-1-.99-.46-.27-1.01-.44-1.61-.51h-.09c-1.25.24-2.49.52-3.73.82l-.09.06c-.62.39-1.13.87-1.45,1.41-.38.64-.49,1.32-.33,1.97.33,1.27,1.6,2.06,3.23,2.12h.21Z"/>
      <path class="cls-7" d="m121.78,103.8c-1.23-.35-2.13-1.16-2.42-2.29-.06-.24-.09-.48-.09-.72,0-.55.16-1.1.47-1.62.17-.29.39-.57.65-.82l.11-.11c-3.85.99-7.64,2.21-11.35,3.65l-.18.08,4.38,1.54-2.58,3.96.21-.09c3.57-1.4,7.24-2.58,10.98-3.54l-.18-.05Z"/>
      <path class="cls-7" d="m149.08,100.78l4.08-2.7-4.31-2.85-.19-.13c5.7.14,11.29.73,16.76,1.77l-.2.08c-.19.08-.38.17-.55.27h0c-.51.31-.91.7-1.17,1.17-.23.46-.5,1.23-.28,2.15.19.77.69,1.49,1.41,2.06l-.18-.03c-5.07-.98-10.26-1.55-15.51-1.71l.13-.1Z"/>
      <path class="cls-7" d="m170.24,103.89c3.7.96,7.33,2.13,10.86,3.52l.16.06-2.57-3.94,4.38-1.54-.18-.08c-3.7-1.45-7.48-2.66-11.33-3.65l.2.22c.21.22.39.46.54.71.44.75.58,1.56.38,2.34-.3,1.18-1.27,2-2.58,2.33l.14.04Z"/>
      <path class="cls-7" d="m168.42,98.47c1.17.3,2.17.94,2.6,1.68.21.35.27.68.19.99h0c-.23.88-1.78,1.49-3.73.99-1.18-.3-2.16-.93-2.6-1.68-.2-.34-.27-.69-.19-.98.08-.31.29-.57.64-.77.74-.44,1.92-.52,3.09-.22Zm1.9-.53c-1.22-.3-2.45-.57-3.69-.82h-.13c-.59.08-1.14.25-1.59.52-.42.25-.75.57-.97.95-.26.44-.45,1.07-.24,1.9.25.9,1,1.72,2.06,2.29l.2.11c.94.2,1.88.41,2.82.64h.23c1.61-.08,2.87-.86,3.2-2.13.17-.65.05-1.33-.32-1.97-.32-.53-.81-1.01-1.42-1.39l-.15-.09Z"/>
      <path class="cls-9" d="m190.98,112.24v78c0,17.82-6.69,25.84-21.69,26h-9.43c-5.93,0-11.03,2.77-13.84,7.37-2.81-4.59-7.91-7.37-13.84-7.37h-9.44c-14.99-.16-21.68-8.18-21.68-26v-78h89.92Zm-77.2,12.72v65.28c0,13.14,3.6,13.22,9.05,13.28h9.35c5.04,0,9.73,1.22,13.84,3.36,4.11-2.14,8.8-3.36,13.84-3.36h9.35c5.45-.06,9.05-.14,9.05-13.28v-65.28h-64.48Z"/>
      <path class="cls-9" d="m119.09,85.09c-.38-.31-.64-.85-.69-1.46v-.57c.11-.75.53-1.31,1.04-1.36.29-.03.53.12.69.24.38.31.64.86.7,1.45.06.6-.09,1.18-.41,1.56-.13.15-.34.34-.63.37-.23.02-.46-.06-.69-.24Z"/>
      <path class="cls-9" d="m142.9,97.93s2.87-1.9,3.12-2.06c.22.14,2.82,1.86,3.27,2.16-.45.3-3.05,2.02-3.27,2.16-.24-.16-3.2-2.11-3.27-2.16.07-.05.15-.1.15-.1Z"/>
      <path class="cls-9" d="m106.7,103.62s.03-.05.05-.08c.29.1,2.8.98,3.21,1.13-.06.09-1.36,2.09-1.63,2.51-.24-.27-2.08-2.3-2.29-2.53.15-.23.67-1.02.67-1.02Z"/>
      <path class="cls-9" d="m172.25,85.34c-.29-.03-.5-.22-.63-.37-.31-.38-.46-.96-.41-1.56.06-.6.32-1.14.7-1.45.15-.13.4-.27.69-.24.5.05.93.61,1.03,1.36v.57c-.05.6-.31,1.14-.68,1.46-.23.18-.46.27-.69.24Z"/>
      <path class="cls-9" d="m186,104.64c-.21.24-2.05,2.27-2.29,2.53-.27-.42-1.58-2.42-1.63-2.51.41-.15,2.92-1.03,3.21-1.13.02.04.05.08.05.08,0,0,.52.79.67,1.02Z"/>
      <path class="cls-6" d="m204.87,209.08c-.19.29-.68.36-1.32.18l-.15.3c-.28.79-.78,1.9-1.64,3.28-.99,1.58-1.82,2.73-2.36,3.42l.43.04c.6-.65,1.84-2.02,3.17-3.71,1.12-1.42,1.85-2.64,2.25-3.39l-.39-.11Z"/>
      <path class="cls-6" d="m208.39,208.59c.51-.46,1.25-1.37,1.91-3.01.41-1.03.6-2.09.6-3.26,0-1.8-.44-3.82-1.13-6.29-.65-2.34-1.08-4.35-1.31-5.58-.8.93-2.07,2.37-3.35,3.6l-.02.27c-.01,1.8-.35,3.24-.59,4.05l-.1.34c.37,1.11.65,2.39.87,3.88.37,2.55.66,3.69.83,4.77.07.48.14.91.46,1.04.33.14.72-.17.91-.67.42-1.16.68-2.94.77-5.34.05-1.4.04-2.76,0-3.96-.09-2.58-.06-4.5-.06-4.5,0,0,.56,1.85.66,4.5.04,1.21.06,2.57,0,3.98-.11,2.92-.49,4.7-.92,5.81-.1.26-.27.46-.1.6.17.14.39,0,.59-.23Z"/>
      <path class="cls-6" d="m214.3,175.1l.11-.14c-.03-.69-.07-1.65-.11-2.91-.06-1.62.19-3.21.53-4.74l-.13-.14c-1.2-1.35-2.34-1.66-3.39-2.34,0,0,.54.54.9,1.64.54,1.63.9,2.99,1.41,4.51.39,1.18.62,2.62.28,4.65,0,0,.31-.41.39-.53Z"/>
      <path class="cls-6" d="m220.87,140.42c.4-.3.82-.68,1.2-1.17.59-.78,1.24-3.31,1.24-5.56,0-.97-.12-1.89-.41-2.6l-1.07-2.46c-.48-1.07-.87-1.98-1.13-2.72-.72.68-1.79,2.05-1.79,4.18,0,.36.03.73.1,1.13l.19.81c.44.91.81,1.86,1.04,2.9.37,1.73.19,3.49-.08,4.8l-.16.7c.86-1.4,2.16-3.81,2.3-5.71.08-1.04-.13-2.04-.42-2.87-.48-1.39-.96-2.56-.96-2.56,0,0,.94.77,1.46,2.18.34.93.6,2.08.51,3.29-.15,1.96-1.42,4.38-2.3,5.84l.3-.17Z"/>
      <path class="cls-6" d="m210.95,132.02c-.18.13-.35.22-.49.19-.28-.05-.46-.21-.59-.43,0,0-.35.08-.98-.3l-.37-.22c.67,1.07,1.45,2.56,1.83,4.13l.09-.27c.18-.6.37-1.13.54-1.54,0,0-.05-.84-.05-.95,0-.24.01-.47.03-.71"/>
      <path class="cls-6" d="m185.12,233.53c-.65-.05-1.31,0-2.02.11,2.23-1.79,5.7-2.83,8.31-3.2,2.55-.36,4.54.38,5.98,1.08.85.41,1.88.66,2.63.8-.63.71-1.82,1.84-3.82,2.82-3.97,1.95-6.49.75-8.25-.51-.59-.42-1.15-.7-1.69-.87l.43-.13c1.4-.44,3.54-.99,5.22-.86.89.07,1.73.24,2.45.43,1.46.4,2.59.67,2.59.67,0,0-1.02-.89-2.74-1.32-.68-.17-1.44-.31-2.25-.37-2.25-.18-5.22.79-6.42,1.21l-.41.16Z"/>
      <path class="cls-6" d="m186.64,228.66c1.08-1.77,1.82-3.35,2.42-5.4.08-.28.32-.97.32-.97,1.8-2.51,3.62-4.1,5.55-4.87,1.83-.73,3.54-.67,4.41-.57-.36,1.39-1.36,4.89-2.84,7.76-1.65,3.2-4.46,5.12-4.49,5.14l-.69.1c-1.26.18-2.76.51-4.24,1.03l.46-.4c1.36-1.12,3.25-2.8,5.02-4.75,1.34-1.47,2.38-2.84,3.15-3.93,1.11-1.59,1.39-2.75,1.39-2.75,0,0-.79.85-1.83,2.34-.76,1.09-1.81,2.46-3.15,3.94-3.19,3.52-6.81,6.16-6.85,6.18l-.19.18c-.27.13-.53.27-.78.41,0,0,.47-.39,2.33-3.43Z"/>
      <path class="cls-6" d="m204.25,208.78c-.61.06-2.49-.69-4.15-2.93-1.93-2.6-2.21-4.53-2.21-7.3,0-.36,0-.74.01-1.14,0-.32,0-.62,0-.92,0-1.7-.08-3.08-.14-3.97.75.39,1.88,1.05,3.13,2.02,2.08,1.61,3.17,3.97,3.78,8.14.19,1.27.38,2.19.53,2.93.18.87.3,1.46.3,2.05,0,.29-.03.58-.09.91,0,0-.46.14-.63-.1-.25-.36-.52-.89-.82-1.6-.73-1.75-1.35-4.12-1.86-6.94-.12-.67-.29-1.23-.48-1.7-.6-1.48-1.55-1.72-1.55-1.72,0,0,.54.72,1.06,2.09.15.4.29.87.39,1.43.53,2.95,1.17,5.33,1.9,7.06.22.53.83,1.67.83,1.67Z"/>
      <path class="cls-6" d="m204.04,197.79c.21-.83.45-2.09.45-3.59,0-.75-.06-1.55-.21-2.4-.45-2.59-1.72-4.13-2.95-5.62-.45-.55-.87-1.1-1.25-1.66-.42.76-.99,1.98-1.11,3.29-.03.33-.05.68-.05,1.03,0,1.93.43,3.9.43,3.92l.2.11c.52.33,1.1.73,1.7,1.2.82.63,1.49,1.37,2.04,2.25l-.04-.39c-.12-.82-.33-1.85-.7-3.04-.3-.95-.61-1.77-.91-2.46-.73-1.68-1.07-2.77-1.07-2.77,0,0,.83.74,1.59,2.46.32.72.65,1.58.96,2.6.85,2.74.88,4.62.86,5.28l.06-.2Z"/>
      <path class="cls-6" d="m214.03,192.11c.29-.41.68-.89,1.17-1.34.62-.57,1.27-.68,2.09-.82.71-.12,1.52-.26,2.41-.73,1.96-1.04,2.32-3.29,2.32-3.29,0,0-.79,1.81-2.6,2.77-1.81.96-3.27.39-4.63,1.64-.63.57-1.09,1.18-1.42,1.67l-.23.32c0-.07,0-.15,0-.23,0-.91.09-2.29.56-3.45.76-1.88,1.15-2.28,4.34-3.09,2.53-.64,3.91-1.3,4.86-2.06.01.24.02.5.02.78,0,1.31-.18,3.01-.96,4.29-1.49,2.44-3.68,2.97-5.62,3.28l-1.65.22-.66.05Z"/>
      <path class="cls-6" d="m215.27,165.4l-.09-.25c-.3-.97-.97-2.66-2.36-4.88-1.49-2.39-2.99-2.71-4.4-4.63-.4-.55-.76-1.16-1.06-1.76-.76-1.51-.93-3.01-.93-3.01,0,0,.76,1.39,1.54,2.89.27.52.58,1.05.93,1.52.59.8,1.19,1.3,1.84,1.84.84.7,1.71,1.43,2.59,2.83.82,1.31,1.4,2.45,1.8,3.37l.2.43c-.1-.91-.31-2.14-.76-3.72-1.08-3.85-3.69-8.8-6.59-10.79-1.86-1.27-3.63-1.81-4.59-2.02.19,1.69.78,5.91,2.36,9.41,1.83,4.06,4.51,6.83,5.87,7.7l.89.5c.75.4,1.58.84,2.44,1.74,0,0,.25-.88.32-1.18Z"/>
      <path class="cls-6" d="m217.12,166.55c.64-.61,1.45-1.21,2.43-1.87,2.35-1.58,2.95-2.06,4.56-4.01,1.02-1.23,1.63-3.02,2.41-5.29.39-1.14.83-2.44,1.39-3.81.77-1.92,1.76-3.67,2.43-4.77-.93.21-2.28.59-3.83,1.3-2.81,1.27-5.23,2.37-7.4,6.45-1.66,3.13-2.11,5.49-2.55,7.77l-.27,1.33-.45,1.93c-.12.48-.24.97-.35,1.46,0,0,.38.28.86-.81.9-2.03,2.34-4.61,4.32-7.9,1.41-2.34,2.95-4.53,4.13-6.13,1.19-1.6,2.2-2.47,2.2-2.47,0,0-.59,1.28-1.78,2.89-1.17,1.59-2.68,3.73-4.05,6.01-2.07,3.44-3.61,6.15-4.47,8.26l.41-.35Z"/>
      <path class="cls-6" d="m122.42,249.02c-.38.44-.96.83-1.88,1.19-.97.38-2.26.48-3.94.48-2.12,0-5.04-.06-7.13-.1,1.27-.61,2.87-1.44,4.34-2.36,1.37-.85,2.55-1.46,3.79-1.93,1.02-.39,1.77-.48,2.64-.5.82-.02,1.29.15,1.83.54.32.23.56.51.72.78.35.6.37,1.04-.37,1.89Z"/>
      <path class="cls-6" d="m215.99,161.42c.04-2.17.09-5.64.06-9.45-.06-6.38-1.07-9.09-1.07-9.09,0,0-.07,1.56.24,4.49.13,1.24.23,2.77.24,4.6.03,3.12,0,6.03-.03,8.18l-.04.63c-.07-.29-.15-.59-.24-.91-.6-2.13-1.6-4.44-2.81-6.45l-.22-.31c-.1-.53-.15-1.09-.15-1.67,0-1.92.54-4.14,1.64-6.74.62-1.48,1.05-2.93,1.31-3.92.77,1.1,1.97,2.94,2.91,4.96,1.23,2.65,1.47,6.18,1.52,7.2l-.14.28c-.21.33-.41.69-.61,1.07-1.66,3.14-2.15,5.56-2.58,7.79v-.65Z"/>
      <path class="cls-6" d="m217.33,138.53c-1.91-1.36-2.85-3.23-2.85-5.66,0-.39.02-.79.07-1.21.2-1.7.94-3.42,1.5-4.5.45,1.12,1.01,2.14,1.56,3.14.86,1.55,1.66,3.02,2.04,4.75.14.65.2,1.31.2,1.94,0,1.56-.34,2.98-.59,3.82l-.36-.66c-1.13-2.41-1.71-4.7-1.99-6.5-.36-2.25-.6-3.79-.6-3.79,0,0-.36,1.52,0,3.85.23,1.42.63,3.14,1.33,5l-.31-.18Z"/>
      <path class="cls-6" d="m207.87,140.83c-2.82-.69-4.85-2.35-6.01-4.96-.9-2.02-1.07-5.13-1.09-6.84,1.46,1.25,4.24,3.74,5.89,5.87,1.67,2.14,2.32,4.18,2.54,5.09-.07.02-.46.16-.46.16-1.02-.79-2.28-2.2-3.05-3.83-.32-.68-.71-1.39-1.09-2.02-.7-1.18-1.55-2.07-1.55-2.07,0,0,.42,1.32,1.19,2.63.32.55.64,1.15.91,1.72.74,1.57,1.93,2.99,3.02,3.89,0,0-.26.31-.31.38Z"/>
      <path class="cls-6" d="m218.45,140.63c.17.36.41.75.74.99l.2.17c-.3.62-.77,1.69-1.11,3.01l-.09.31c-.11-.23-.23-.46-.35-.69l.07-.3c.17-.78.4-2.18.37-3.89l.18.4Z"/>
      <path class="cls-6" d="m212.69,186.76c.15-1.29.56-2.35,1.38-3.92,1.47-2.82,3.78-3.84,5.64-5.87.74-.81,1.44-1.79,2.01-2.68.86-1.33,1.17-2.58,1.17-2.58,0,0-.8.91-1.59,2.14-.57.9-1.28,1.9-2.03,2.72-.64.69-1.32,1.26-2.05,1.86-1.32,1.09-2.69,2.22-3.69,4.14-.75,1.44-1.18,2.48-1.37,3.66l-.04.32s-.37.37-.47.49c-.08-.58-.16-1.55-.16-3.18,0-3.68,1.36-5.64,3.24-8.35l.04-.06c1.81-2.61,3.25-3.74,5.98-5.42,1.78-1.1,3.44-1.74,4.5-2.08-.33.92-.66,1.99-.99,3.12-.77,2.6-1.64,5.54-2.87,7.06-2.04,2.54-4.7,3.87-6.12,4.58-1.51.76-1.7,2.89-1.7,3.88,0,.24-.01.8-.01.8-.52,0-.76-.39-.78-.43l-.09-.19Z"/>
      <path class="cls-6" d="m212.26,193.81c1.42,4.13,4.68,3.95,6.51,3.46,1.25-.33,2.13-.66,2.72-.91-.43-.27-.99-.65-1.73-1.2-1.18-.88-1.83-1.91-2.18-2.67l-.12-.25c-.34.07-.68.13-1.02.19-1.37.22-2.12.25-2.76.38l.17.24c.38.61,1.16,1.66,2.37,2.37,1.52.9,3.04,1.38,3.04,1.38-.07,0-1.67.12-3.34-.87-1.72-1.02-2.63-2.64-2.84-3.04,0,0-.24.22-.47.47-.23.25-.34.45-.34.45Z"/>
      <path class="cls-6" d="m212.58,191.27v-.34c-.18.26-.28.44-.28.44l-.79,1.36-.79-3.94-.04-.26c-.19.04-.37.03-.51.01,0,0,.32,1,.42,1.41.1.43.24,1.46.24,1.46,0,0-.15.52-.33,1-.17.44-.41.97-.69,1.37l.09.38c.11.44.23.9.36,1.38l.18-.28c.77-1.23,1.7-2.26,2.1-2.69,0,0,.02-.94.04-1.29Z"/>
      <path class="cls-6" d="m213.77,142.54c-.11.32-.22.66-.35,1l-.14.36c.02-5.04-.89-7.87-1.39-9.02-.18-.42-.42-.91-.42-.91.07-.18.13-.33.19-.47.43.37,1.04,1.09,1.44,2.39.81,2.66.99,5.37.99,5.39,0,0-.22.94-.33,1.26Z"/>
      <path class="cls-6" d="m211.93,147.62l-.11.26c-.2-1.26-.55-2.78-1.19-3.93-1.07-1.94-2.19-2.85-2.24-2.89,0,0,.42-.35.53-.38.56-.17,1.1-.31,1.1-.31.45,2.72,1.73,5.23,2.24,6.15,0,0-.26.81-.34,1.11Z"/>
      <path class="cls-6" d="m209.44,129.83c-1.09-2.32-2.73-4.07-4.11-5.53l-1.31-1.44c-.55-.65-.98-1.53-1.32-2.42-.69-1.83-1.23-3.69-1.23-3.69,0,0-.06,1.96.66,3.87.36.95.83,1.9,1.43,2.62,1.62,1.92,4.29,4.12,5.63,7.53l.14.29c-.84-.44-2.55-1.51-4.6-3.2-2.09-1.72-3.68-5.01-4.88-10.06-.61-2.56-1.4-4.87-1.96-6.36,4.67,3.15,9.14,8.43,10.58,12.67.77,2.25.97,4.09.97,5.38v.33Z"/>
      <path class="cls-6" d="m212.69,144.34c.09-5.96-1.15-8.89-1.51-9.6l-.08.3c-.33,1.03-.62,2.31-.62,3.58,0,.15,0,.3.01.45.15,2.63,1.35,5.3,2.03,6.64,0,0,.14-.58.17-1.36Z"/>
      <path class="cls-6" d="m203.99,110.02s.69,1,1.29,2.59c1,2.62,2.48,6.58,3.31,9.11l-.22-1.64c-.21-1.49-.32-3.43-.26-5.31,0,0-.12-.7-.32-1.76-.54-3.17-3.52-5.54-5.05-6.57.03,1,.07,2.54.07,4.13,0,1.47-.03,2.96-.14,4.07l.15.14c1.77,1.77,3.37,3.75,4.56,5.7l.35.54c-.85-2.48-2.12-5.87-3-8.2-.59-1.56-.73-2.8-.73-2.8Z"/>
      <path class="cls-6" d="m210.84,113.18s.31,1.6.76,3.32c.24.92.44,1.92.47,2.81.08,1.8-.36,3.48-.77,5.1l-.52,2.21c-.22,1.18-.42,2.5-.57,3.52,0,0-.12-.79-.22-1.89-.07-.82-.22-1.76-.49-2.82,0,0-.07-1.15-.15-2-.08-.85-.21-2.04-.4-3.45-.17-1.21-.27-2.68-.27-4.15,0-2.02.19-4.04.64-5.39.46-1.38,1.36-2.16,1.99-2.55.16,1.21.56,3.48,1.55,5.45.78,1.55,1.19,3.95,1.19,6.27,0,1.67-.21,3.3-.65,4.55l-.86,2.27c-.52,1.32-1,2.6-1.32,3.87-.28,1.13-.59,1.16-.59,1.16.12-.93.39-2.98.73-4.74.45-2.37,1.41-4.74,1.3-7.45-.04-.92-.23-1.94-.48-2.88-.47-1.81-1.34-3.23-1.34-3.23Z"/>
      <path class="cls-6" d="m209.53,138.42c0-1.98-.56-3.76-1.14-5.06-.6-1.34-1.43-2-1.43-2,0,0,.39,1.08.98,2.45.35.83.69,1.85.87,2.97l.06.55c-.41-.85-.97-1.82-1.74-2.81-.5-.64-1.1-1.31-1.73-1.97l-.06-.32c-.16-1.06-.19-2.39-.18-3.3l.23.19c.56.43,1.11.83,1.61,1.17l.31.23c.75,1.04,2.3,3.42,2.62,5.81.09.47.08.68.08.68-.1.67-.11,1.37-.11,2.06,0,.42-.14.65-.14.65-.06-.25-.15-.57-.28-.94l.05-.4Z"/>
      <path class="cls-6" d="m211.07,187.57l.06-.16c-.13-.69-.22-1.84-.22-3.56,0-2.7.71-4.53,1.78-6.32l.3-.47c.36-1.33.49-2.42.49-3.31,0-1.1-.2-1.92-.42-2.57l-.98-3.1-.44-1.42c-.23-.75-.73-1.31-1.13-1.67-.33,1.09-1.06,3.18-2.45,6.04l-.1.2c-1.35,2.78-2.24,4.61-2.24,6.88,0,1.01.18,2.12.57,3.44,1.3,4.4,2.73,6.02,3.35,6.3l.29.07c-.08-1.58-.4-4.12-.88-6.38-.56-2.65-.96-3.55-.73-6.49.09-1.22.48-2.47.9-3.5.59-1.45,1.46-2.35,1.46-2.35,0,0-.41,1.29-.98,2.77-.37.95-.7,2.05-.78,3.12-.18,2.33.04,3.3.44,5.06l.28,1.26c.49,2.3.81,4.9.89,6.5,0,0,.44-.15.55-.35Z"/>
      <path class="cls-6" d="m144.32,241.17c10.82-2.45,32.3-7.44,35.81-8.74.27-.1.52-.27.74-.48,0,0-.1.27-.04.75.08.7.51.79.51.79,0,0,.06.26.23.37l-.98.14c-2.33.29-6.17,1.2-11.04,2.34l-5.72,1.34c-4.25.97-10.7,2.51-16.89,4l-2.62-.51Z"/>
      <path class="cls-6" d="m122.42,245.87c.64.46,1.08,1.15,1.2,1.76l.05.24c1.1-.43,4.43-1.64,10.86-3.19l4.39-1.06c1.27-.31,2.62-.63,4.01-.97l-2.79-.54c-.17.04-5.56,1.31-5.56,1.31-4.7,1.15-9.14,2.24-12.05,2.2-.15,0-.29,0-.44,0l.33.26Z"/>
      <path class="cls-6" d="m181.53,232.86c.62-.91,1.67-2.6,3.08-5.39.75-1.48,1.38-2.75,1.88-3.79,1.09-2.25,1.88-3.32,1.88-3.32,0,0-.24,1.28-1.26,3.39-.52,1.08-1.18,2.41-1.97,3.98-1.45,2.86-2.53,4.59-3.16,5.51,0,0,.19.31,1.13-.7.45-.49,1.02-1.15,1.57-1.95.31-.44.78-1.15,1.45-2.25,1.85-3.02,2.66-5.49,3.48-10.56.22-1.35.27-2.97.27-4.24,0-.09,0-.17,0-.26-.94,1.51-2.41,3.89-3.85,6.46-2.76,4.9-3.16,6.26-3.54,8.66-.06.36-.23,1.03-.5,1.73-.48,1.26-.56,1.7-.57,2.02,0,.32.11.7.11.7Z"/>
      <path class="cls-6" d="m206.14,209.21c-.11.87-.59,1.93-1.95,3.67-1.38,1.77-3.3,3.56-4.34,4.49l.03-.27s1.74-1.8,3.6-4.17c1.89-2.4,2.7-4.23,2.73-4.3l-.06.58Z"/>
      <path class="cls-6" d="m207.46,209.41c-.24.68-.88,1.97-2.55,3.74l-.9.9c.23-.27.45-.53.66-.8,1.45-1.86,1.98-3.03,2.08-4.09,0,0,.33-.11.53-.39,0,0-.06.42.19.65Z"/>
      <path class="cls-6" d="m215.26,168.13c-.22,1.13-.38,2.28-.38,3.44,0,.16,0,.31,0,.47l.08,2.11.54-.64.15-.22c-.15-.49-.39-1.46-.39-2.56,0-.33.02-.67.08-1.02.09-.56.26-1.07.51-1.54,0,0-.03.03-.15-.28,0,0-.16.19-.45.25Z"/>
      <path class="cls-6" d="m212.63,187.66c-.01.61.01,1.3.07,2.12,0,0,.24-1.13.46-1.83,0,0-.06-.03-.25-.11-.2-.08-.29-.17-.29-.17Z"/>
      <path class="cls-6" d="m212.18,190.45s-.17-2.06-.14-3.02c0,0-.2.62-.82.76,0,0,.42,2.23.56,2.88l.4-.62Z"/>
      <path class="cls-6" d="m143.52,81.15c0-1.99,1.12-3.6,2.5-3.6s2.5,1.61,2.5,3.6-1.12,3.6-2.5,3.6-2.5-1.62-2.5-3.6Z"/>
      <path class="cls-6" d="m121.27,100.88c0-.15.05-.31.16-.48.37-.63,1.26-1.19,2.31-1.46,1.05-.27,2.1-.21,2.73.17.23.14.37.3.42.48.15.57-.71,1.64-2.45,2.08-1.73.44-3-.08-3.15-.65-.01-.04-.02-.09-.02-.14Z"/>
      <path class="cls-6" d="m170.75,101.02c-.15.57-1.42,1.09-3.15.65-1.73-.44-2.59-1.51-2.45-2.08.05-.18.19-.34.42-.48.63-.37,1.68-.44,2.73-.17,1.05.27,1.94.83,2.31,1.46.1.18.15.34.15.48,0,.05,0,.1-.02.14Z"/>
      <path class="cls-6" d="m98.54,94.97c-.48-.16-.9-1.1-1.35-2.1l-.39-.86c-.47-.98-.39-1.75-.08-2,.26-.21.74-.08,1.27.35h0c1.71,1.38,1.87,2.61,1.81,3.22-.05.58-.35,1.07-.79,1.31-.18.1-.34.12-.48.07Z"/>
      <path class="cls-6" d="m193.01,94.9c-.44-.24-.73-.72-.79-1.31-.06-.61.1-1.84,1.81-3.22h0c.53-.43,1.01-.56,1.27-.35.32.25.39,1.01-.08,2l-.39.86c-.45,1-.87,1.94-1.35,2.1-.15.05-.3.03-.48-.07Z"/>
      <path class="cls-6" d="m127.46,183.64c.87,1.15,1.75,1.5,2.39,1.57,0,0,.34.93.46,1.61.13.68.85.85,1.65.97.8.13,1.74.51,1.86-1.02,0,0,.97.17,1.61.97.63.81,1.4,1.4,2.92,1.31,1.52-.08,2.12.08,1.78-.89-.34-.97-.93-1.65-2.41-2.37-1.48-.72-3.77-2.12-4.7-2.84l-.54-.42c2.2-.29,4.89-.49,8.36-.49,5.85,0,9.93.6,13.22,1.08,1.76.26,3.28.48,4.6.52,1.75.05,3.19.48,4.59.89,1.43.42,2.78.82,4.34.82s3.14-.31,4.84-.63c1.42-.27,2.88-.54,4.41-.67l.19-.04v4.64s-.81-.08-1.12-.11c-3.47-.33-7.01.23-9.13,1.15-2.54,1.1-4.66.51-8.8.25-4.15-.25-13.38.68-18.62.85-5.25.17-9.48,0-10.58-.08-1.1-.08-3.81-1.27-4.91-1.1-1.1.17-3.64,1.02-5.25.59-1.24-.33-2.94-.2-3.65-.12v-.13c-.01-.64-.01-2.41-.01-4.97v-.19c1.51.04,6.54.1,9.56-.6l1.63-.4c.39-.1.79-.2,1.21-.3l.08.12Z"/>
      <path class="cls-1" d="m133.71,147.13s-.59.64-.64,1.65c-.04,1.02-.13,1.48,1.23,1.52,1.35.04,4.06.08,5.21-.04,0,0,.04,1.02.04,2.46s-.55,2.96-.93,4.02c0,0-.46-.42-1.02-.76-.55-.34-1.27-.08-1.44.59-.17.68-.08,1.65-.08,1.65,0,0-2.07,0-4.57.3-2.94.35-4.87,1.19-6.98,4.95,0,0-1.86-.13-3.34.38-1.48.51-3.39,1.9-3.68,4.78-.3,2.88.13,6.77.72,8.17.59,1.4.8,1.57.8,1.57,0,0,.38-.34.63-.72,0,0,.13,1.1.72,3,.34,1.08.81,1.99,1.27,2.68l.08.12c-2.57.24-5.47.21-6.63.19h-.12v-57.48h62.08v56.7l-.09.02c-1.67.13-3.22.42-4.74.71-1.65.31-3.21.61-4.62.61s-2.66-.37-4.01-.77c-1.47-.43-2.99-.88-4.89-.94-1.25-.04-2.67-.25-4.46-.51-3.15-.46-7.46-1.09-13.39-1.09-3.96,0-6.94.25-9.32.61l-.17.02c-.13-.2-.2-.4-.19-.61.04-.72.17-1.06,1.9-3,1.74-1.95,2.75-2.75,3.13-3.77.38-1.02.46-2.5.85-3.22,0,0,2.12.72,4.32.55,1.6-.12,2.92-.34,2.92-.34-.21.89-.47,1.65-.34,2.12.13.47.89.68,1.44.8.55.13,1.06.63,1.78.76.72.13,1.78.13,1.99-.17.21-.3.51-.97-.25-1.44-.76-.47-1.23-.85-1.57-1.31-.34-.46-.08-.89-.08-.89.93-.17,3.94-.68,5.46-1.65,1.52-.97,2.96-.85,4.7-.8,1.74.04,3.81-.8,5.76-.97,1.95-.17,2.2.42,3.01,1.82.8,1.4.97,2.92.68,3.51-.3.59-.04,1.57-.46,2.07-.17.2-.34.45-.49.68-.23.36-.24.94-.06,1.26.13.22.27.47.37.68.25.51.59,1.61,1.06,1.78.47.17,1.23-.21,1.44-1.61s.51-2.33,1.06-3.77c.55-1.44,0-2.16-.3-3.13-.3-.97-.42-2.54-.42-2.54,1.48,1.02,1.95,2.5,1.91,3.39-.02.5-.25,1.14-.44,1.6-.15.35-.05.95.07,1.13.45.66.99,1.37,1.33,1.81.21.27.61-.07.78-.4.69-1.32,1.73-3.21,1.69-4.02-.05-1.18-.76-1.86-1.95-4.15-.93-1.79-1.27-3.09-1.78-4.23-.51-1.14-1.65-1.61-2.46-1.73-.8-.13-1.9-.17-2.67-.3-.76-.13-1.82-.8-1.91-1.44-.08-.63.08-1.31.08-1.31,1.32.53,2.32.92,2.89,1.15,4.61,1.78,6.81,2.58,7.07,1.74.25-.85-.8-1.74-5.97-3.73-.83-.32-2.33-.91-4.28-1.68,0,0-.67-1.24-.63-2.09.04-.85.43-1.41.43-1.41,1.45.25,2.77.49,3.76.69,0,0,.68.93,1.23,1.31.55.38,1.06.38,1.31.13,0,0,.85-.13,1.44-.76.59-.63.72-1.9.25-3.26-.47-1.35-.55-2.62-.42-3.26.13-.64.13-1.78-.42-2.96,0,0-.13-.55,1.06.21,0,0-.38-1.31-.93-2.41-.55-1.1-.85-1.82-1.95-1.78,0,0,.21-1.06.34-2.41,0,0-.72-.04-1.91.55-1.19.59-1.69,1.19-1.69,1.19,0,0-1.35.08-4.19.93-2.84.85-5.46,1.82-6.9,3.05-1.44,1.23-2.67,3.05-3.17,4.53,0,0-1.02-.17-2.24-.55-1.23-.38-1.92-.68-1.92-.68,0-.2-.02-.41-.02-.63-.08-1.99-.3-3.89-1.95-4.66,0,0-.08-.51-.08-.85,0,0,.65.08.68-.17.04-.42.25-.63.34-.8.08-.17,0-.51.21-.42.21.08.42-.08.34-.93-.08-.85.21-1.1.21-1.1,0,0,.59-.25.72-1.78.13-1.52.21-1.74-.47-1.69-.68.04-1.31.25-1.31.25,0,0,.08-.8-.8-1.02-.89-.21-1.52,0-1.52,0,0,0-.42-1.52-1.35-1.86-.93-.34-1.73-.13-2.84-.34-1.1-.21-2.16.08-2.45.42-.3.34-.04.85-.93,1.57-.89.72-1.4,1.31-1.31,1.99.08.68.51,1.06.47,1.95-.04.89-.13,1.06.72,1.06s1.48-.34,1.86-.85c.38-.51.76-.63,1.31-.89.55-.25,1.1-.93,1.48-1.48.38-.55.68-.59,1.02-.38,0,0-.42.63-.42,1.91s-.3,2.37-1.06,2.71c-.76.34-1.69.42-2.33.63-.64.21-1.52.85-1.52,1.99s.17,2.2.17,2.2c0,0-.26.19-.7.73l-.17.16c-3.59-1.45-6.3-2.55-7.26-2.97-3.81-1.65-5.04-2.46-5.63-1.78-.51.59.34,1.31,3.89,3.01.95.45,3.94,1.72,7.9,3.37l-.33.6Z"/>
      <path class="cls-1" d="m150.45,150.49c.04-.3.11-.44.11-.44-1.94-.58-3.66-1.19-3.66-1.19,0,.48,0,.74,0,.74,1.15.46,2.38.95,3.53,1.41,0,0-.01-.22.03-.51Z"/>
      <path class="cls-1" d="m126.55,182.51c-.23.06-2.28.56-2.28.56-.27.06-.55.12-.85.17l.06-.16c.23-.6.39-1.41.33-2.43,0,0,.42.04.8,0,0,0,.63-.51.3-2.07-.34-1.57-1.4-4.27-1.82-6.77-.42-2.5-.34-4.36-.25-5.25.08-.89.85-.72,1.52-.76,0,0,.42,2.88,1.52,4.27,0,0-.38.85,0,1.57.38.72,1.31.47,1.31.47,0,0,.21.97.59,1.99.38,1.02.42,1.78-.64,3.43-1.06,1.65-1.95,2.62-1.9,3.13.03.42.64.84,1.4,1.83l-.09.03Z"/>
      <path class="cls-1" d="m145.76,151.37c1.53.63,3.06,1.25,4.56,1.87,0,0-.03.66-.03,1,0,0-1.15.25-2.03.08-.5-.09-.93-.25-1.28-.53-.93-.73-1.22-2.42-1.22-2.42Z"/>
      <path class="cls-8" d="m133.66,120.39c0,.6.07.93.22,1,.08.04.24.06.47.06,1.09,0,1.86-.32,2.31-.95.14-.19.23-.29.26-.29.06,0,.09.07.09.2,0,.4-.13.77-.4,1.09-.23.28-.55.42-.95.42-.08,0-.24,0-.46-.02-.06,0-.25-.01-.58-.03l-.52-.02c-.18,0-.37-.01-.6-.01-.37,0-.77.02-1.2.07-.13.02-.22.02-.26.02-.09,0-.14-.04-.14-.13,0-.06.04-.1.12-.12.2-.06.35-.17.42-.33.08-.16.12-.43.12-.8v-3.99c0-.51-.21-.8-.64-.86l-.29-.05c-.12-.02-.18-.07-.18-.15,0-.1.05-.15.14-.15.03,0,.08,0,.14.01.04,0,.11,0,.19.02h.21c.19.03.34.04.44.04.15,0,.4-.02.73-.06.25-.03.5-.04.76-.04.19,0,.29.04.29.14,0,.08-.07.12-.21.13-.32.02-.48.24-.48.66v4.15Z"/>
      <path class="cls-8" d="m141.06,116.43v1.04c0,.3.02.49.06.57.04.08.15.12.31.12h.14s.21,0,.21,0h.41c.31,0,.56-.17.73-.52l.11-.23c.03-.06.08-.09.15-.09.07,0,.11.04.11.13,0,.03,0,.1-.01.21,0,.08,0,.15,0,.21,0,.1.02.34.04.72.02.25.03.46.03.64v.25s0,.07,0,.09c-.01.02-.04.03-.08.03-.08,0-.13-.05-.15-.18-.04-.27-.14-.48-.29-.62-.08-.08-.18-.13-.3-.15-.12-.02-.34-.03-.68-.03h-.33c-.15,0-.26.02-.31.07-.06.05-.09.14-.11.28-.02.16-.03.41-.03.76v.43c0,.45.03.77.1.97.05.14.12.24.19.29.07.05.19.08.34.08,1.3,0,2.15-.4,2.55-1.19.02-.04.04-.06.06-.06.03,0,.06,0,.09.03.03.03.04.06.04.1,0,.31-.09.62-.25.91-.14.25-.32.43-.53.54-.21.11-.49.16-.84.16-.2,0-.43-.01-.68-.04l-.56-.05c-.21-.02-.48-.03-.83-.03-.23,0-.59.01-1.07.04-.13,0-.23.01-.28.01-.08,0-.12-.04-.12-.11,0-.06.03-.1.11-.13.18-.07.31-.14.37-.22.07-.08.12-.22.16-.42.04-.17.05-.4.05-.69v-3.79c0-.36-.06-.6-.18-.73-.12-.13-.36-.22-.73-.27-.09-.01-.13-.06-.13-.14,0-.08.05-.11.16-.11.02,0,.07,0,.14,0,.06,0,.14,0,.24,0l.48.02,1.82.02c1.05,0,1.69-.02,1.94-.05.02,0,.05,0,.07,0,.09,0,.14.05.14.16,0,.07,0,.21.03.4.02.28.04.48.04.6,0,.25-.06.37-.19.38-.06,0-.09-.07-.09-.21,0-.32-.12-.55-.35-.69-.23-.14-.61-.22-1.12-.22h-.59l-.33.04c-.16.05-.24.21-.24.48v.2Z"/>
      <path class="cls-8" d="m150.08,115.86l2.18,5c.11.25.24.44.38.56.15.12.34.21.57.25.06,0,.08.06.08.14,0,.09-.04.13-.11.13-.04,0-.1-.01-.18-.03-.25-.05-.64-.08-1.19-.08s-.92.03-1.12.08c-.05.01-.09.02-.12.02-.09,0-.13-.05-.13-.14,0-.05.03-.08.1-.1.15-.04.28-.12.38-.24.1-.11.15-.24.15-.36,0-.18-.14-.57-.42-1.18-.09-.19-.18-.29-.28-.32-.1-.03-.47-.04-1.1-.04h-.65l-.43.08c-.12.05-.25.26-.4.63l-.15.37c-.04.11-.07.21-.07.32,0,.4.28.63.85.7.12.02.18.06.18.14,0,.08-.06.13-.17.13-.06,0-.14,0-.25-.02-.21-.03-.4-.05-.57-.05-.15,0-.4.01-.73.04-.25.02-.41.03-.47.03-.09,0-.13-.04-.13-.12,0-.07.05-.11.13-.15.17-.05.31-.15.42-.3s.26-.45.46-.92l1.31-3.01c.11-.24.18-.4.22-.49l.44-.91.23-.45h0c.1-.23.17-.35.2-.35.05,0,.14.13.26.4l.12.25Zm.18,2.99l-.62-1.46c-.15-.35-.26-.53-.32-.53-.04,0-.11.11-.21.34l-.09.2-.56,1.28-.05.12s-.03.09-.03.12c0,.11.11.16.34.16h1.41c.12,0,.18-.03.18-.1,0-.02,0-.04-.02-.08l-.03-.05Z"/>
      <path class="cls-8" d="m157.29,120.39c0,.6.07.93.21,1,.08.04.24.06.47.06,1.09,0,1.86-.32,2.31-.95.14-.19.23-.29.26-.29.06,0,.09.07.09.2,0,.4-.13.77-.4,1.09-.23.28-.55.42-.95.42-.08,0-.24,0-.46-.02-.06,0-.25-.01-.58-.03l-.52-.02c-.18,0-.37-.01-.6-.01-.37,0-.77.02-1.2.07-.13.02-.22.02-.26.02-.09,0-.14-.04-.14-.13,0-.06.04-.1.12-.12.2-.06.35-.17.42-.33.08-.16.12-.43.12-.8v-3.99c0-.51-.21-.8-.64-.86l-.29-.05c-.12-.02-.18-.07-.18-.15,0-.1.05-.15.14-.15.03,0,.08,0,.14.01.04,0,.11,0,.19.02h.21c.2.03.34.04.44.04.15,0,.4-.02.73-.06.25-.03.5-.04.76-.04.19,0,.29.04.29.14,0,.08-.07.12-.21.13-.32.02-.48.24-.48.66v4.15Z"/>
      <path class="cls-8" d="m107.46,184.94v2.27c0,.23.03.37.09.42.06.05.21.08.47.08h1.19c.45,0,.78-.07.98-.22.2-.15.3-.39.3-.73,0-.11.04-.16.13-.16.1,0,.15.08.15.25,0,.06,0,.17-.03.34-.04.38-.07.72-.07,1.04,0,.2.02.46.06.79.03.19.04.32.04.37,0,.1-.05.15-.16.15-.07,0-.11-.04-.12-.12-.03-.22-.13-.37-.3-.47-.16-.09-.41-.14-.74-.14h-.26s-4,0-4,0c-.23,0-.41.06-.52.19-.11.13-.2.36-.27.7-.02.09-.07.13-.14.13-.1,0-.14-.05-.14-.15,0-.06.01-.16.04-.32.04-.26.06-.56.06-.91,0-.12-.02-.37-.06-.76-.02-.23-.03-.4-.03-.52s.04-.17.13-.17c.07,0,.12.05.13.14.06.38.3.57.71.57h1.23c.33,0,.52-.02.57-.07.06-.05.09-.2.09-.46v-2.24c0-.19-.04-.31-.12-.36-.08-.04-.3-.07-.65-.07h-1.03c-.41,0-.66.22-.74.67l-.04.22c-.02.09-.06.13-.14.13-.1,0-.14-.05-.14-.15,0-.06.01-.16.04-.32.04-.26.06-.57.06-.91,0-.12-.02-.37-.06-.76-.02-.23-.03-.4-.03-.52s.04-.17.13-.17c.07,0,.12.05.13.14.06.38.3.57.71.57h4.11c.45,0,.78-.07.98-.22.2-.15.3-.38.3-.71,0-.12.04-.18.13-.18.1,0,.15.08.15.25,0,.06,0,.17-.03.33-.04.38-.07.73-.07,1.04,0,.2.02.47.06.79.03.2.04.32.04.37,0,.1-.05.15-.16.15-.07,0-.11-.04-.12-.12-.03-.22-.13-.37-.3-.47-.16-.09-.41-.14-.75-.14h-.26s-1.06,0-1.06,0c-.31,0-.5.02-.57.06-.07.04-.1.16-.1.36Z"/>
      <path class="cls-8" d="m105.27,178.17h1.04c.3,0,.49-.02.57-.06.08-.04.12-.15.12-.31v-.14s0-.21,0-.21v-.41c0-.32-.17-.56-.52-.73l-.23-.11c-.06-.03-.09-.08-.09-.15,0-.07.04-.11.13-.11.03,0,.1,0,.21.01.08,0,.15,0,.21,0,.1,0,.34-.02.72-.04.25-.02.46-.03.64-.03h.25s.07,0,.09,0c.02.01.03.04.03.08,0,.08-.05.13-.18.15-.27.04-.48.14-.62.29-.08.08-.13.19-.15.31-.02.12-.03.35-.03.68v.33c0,.15.02.26.07.31s.14.09.28.11c.16.02.41.03.76.03h.43c.45,0,.77-.04.97-.11.14-.05.24-.12.29-.19.05-.07.08-.19.08-.34,0-1.3-.4-2.15-1.19-2.55-.04-.02-.06-.04-.06-.06,0-.03,0-.06.03-.09.03-.03.06-.04.1-.04.31,0,.62.08.91.25.25.14.43.32.54.53.11.21.16.49.16.84,0,.2-.01.43-.04.68l-.05.56c-.02.2-.03.48-.03.83,0,.23.01.59.04,1.06,0,.13.01.23.01.28,0,.08-.04.12-.11.12-.06,0-.1-.03-.13-.11-.07-.18-.14-.31-.22-.37-.08-.07-.22-.12-.42-.16-.17-.04-.4-.05-.69-.05h-3.79c-.36,0-.6.06-.73.18-.13.12-.22.36-.27.73-.01.09-.06.13-.14.13-.07,0-.11-.05-.11-.16,0-.02,0-.07,0-.14,0-.06,0-.13,0-.23l.02-.49.02-1.82c0-1.05-.02-1.69-.05-1.93,0-.03,0-.05,0-.07,0-.09.05-.14.16-.14.07,0,.21,0,.4-.03.28-.02.48-.04.6-.04.24,0,.37.06.38.18,0,.06-.07.09-.21.09-.32,0-.55.12-.69.35-.14.23-.21.61-.21,1.13v.59l.04.33c.05.16.21.25.48.25h.2Z"/>
      <path class="cls-8" d="m108.85,170.6c.61,0,1.02-.06,1.24-.17.22-.11.34-.33.37-.66.01-.13.07-.2.16-.2s.14.06.14.16c0,.03,0,.1-.02.2-.03.27-.04.54-.04.79,0,.21,0,.4.02.57l.04.4.03.32c0,.09.01.15.01.19,0,.11-.04.17-.13.17-.07,0-.12-.03-.14-.1-.07-.22-.16-.37-.27-.45-.11-.08-.29-.13-.52-.13h-.64s-3.46,0-3.46,0c-.38,0-.64.05-.77.14-.21.16-.34.41-.39.77-.02.13-.08.2-.17.2s-.14-.04-.14-.13c0-.04,0-.09.01-.17.03-.25.04-.52.04-.81,0-.32-.02-.71-.05-1.18-.04-.54-.06-.91-.06-1.12,0-.61.16-1.11.5-1.51s.75-.6,1.25-.6c.32,0,.61.09.87.27.26.18.46.42.59.73.03.06.06.09.1.09.03,0,.07-.02.12-.05.04-.03.12-.07.23-.13l.76-.42.88-.49c.3-.17.5-.32.62-.45.11-.13.17-.29.17-.47,0-.07,0-.14-.02-.21,0-.04-.01-.07-.01-.1,0-.06.04-.09.11-.09.09,0,.2.13.32.39.12.26.18.49.18.7,0,.33-.16.63-.49.91-.32.28-.94.64-1.84,1.08-.36.17-.58.31-.68.43-.09.11-.14.29-.14.55v.3l.04.22s.1.07.23.07h.97Zm-3.75,0h1.66c.21,0,.33-.03.39-.08.06-.05.08-.18.08-.38,0-.57-.01-.93-.03-1.06-.02-.14-.09-.26-.19-.38-.21-.23-.5-.35-.87-.35-.48,0-.88.16-1.2.47-.31.32-.47.72-.47,1.21,0,.22.05.37.14.45.09.08.26.12.5.12Z"/>
      <path class="cls-8" d="m104.05,160.67c0-1,.29-1.8.87-2.42.58-.61,1.34-.92,2.28-.92,1.03,0,1.89.32,2.61.95.7.62,1.04,1.47,1.04,2.55s-.3,1.86-.91,2.48c-.61.62-1.41.93-2.43.93-.44,0-.87-.08-1.3-.23-.43-.16-.79-.37-1.08-.64-.34-.31-.61-.7-.8-1.18-.19-.48-.29-.99-.29-1.52Zm.36.34c0,.64.24,1.15.71,1.51.48.36,1.14.54,1.99.54,1,0,1.82-.23,2.44-.68.63-.45.94-1.04.94-1.77,0-.66-.26-1.18-.78-1.57-.52-.39-1.21-.59-2.08-.59-.5,0-.99.09-1.47.27-.48.18-.86.42-1.14.73-.41.44-.62.96-.62,1.56Z"/>
      <path class="cls-8" d="m109.24,152.9l.48-.04c.25-.04.43-.13.57-.28.13-.15.2-.34.2-.58,0-.16.05-.23.15-.23s.14.1.14.31c0,.09,0,.22-.03.38-.05.41-.07.75-.07,1.01,0,.32.02.57.05.76.03.16.05.27.05.34s-.03.12-.1.13h-.04s-.11-.13-.11-.13c-.08-.23-.18-.39-.3-.46-.12-.08-.32-.11-.6-.11h-.43s-3.82,0-3.82,0c-.29,0-.5.05-.63.15-.12.1-.21.29-.25.56-.03.16-.05.27-.08.31-.02.05-.06.07-.12.07-.09,0-.13-.04-.13-.11,0-.06.02-.14.04-.26.03-.12.04-.31.04-.58,0-.18-.01-.4-.03-.66l-.03-.35c-.02-.33-.04-.58-.04-.76,0-.11.04-.16.12-.16.06,0,.1,0,.12.02.02.02.03.06.04.12.04.23.1.37.19.44.09.07.27.1.55.1h4.08Z"/>
      <path class="cls-8" d="m104.05,146.26c0-.6.13-1.12.38-1.56l.18-.32c.04-.06.06-.12.06-.17,0-.06-.03-.11-.08-.14l-.15-.1s-.04-.04-.04-.09c0-.1.1-.15.31-.15h.35s.44,0,.44,0l.37-.04.22-.04c.1-.02.2-.03.28-.03.12,0,.18.04.18.13,0,.05-.04.08-.12.1-.12.02-.31.11-.56.27-.25.15-.45.3-.6.44-.6.56-.9,1.18-.9,1.86,0,.6.25,1.1.74,1.47.5.38,1.14.57,1.93.57,1.03,0,1.86-.31,2.48-.93.46-.46.69-.97.69-1.52,0-.32-.08-.67-.23-1.03-.15-.36-.35-.65-.58-.85l-.34-.31c-.05-.04-.08-.09-.08-.13,0-.06.03-.09.1-.09.13,0,.34.13.63.38.75.66,1.12,1.48,1.12,2.45s-.3,1.7-.9,2.29c-.6.59-1.38.88-2.34.88-.53,0-1.04-.11-1.55-.33-.5-.22-.91-.51-1.23-.88-.52-.6-.78-1.31-.78-2.12Z"/>
      <path class="cls-8" d="m104.7,138.11l5-2.18c.25-.11.44-.23.57-.38.12-.15.21-.34.25-.57.01-.06.06-.09.14-.09.09,0,.13.04.13.11,0,.04-.01.1-.03.18-.05.25-.08.64-.08,1.19s.03.92.07,1.12c.01.05.02.09.02.12,0,.09-.05.13-.14.13-.05,0-.08-.03-.1-.1-.04-.15-.12-.28-.24-.38-.12-.1-.24-.15-.36-.15-.18,0-.57.14-1.18.42-.19.09-.29.18-.32.28-.03.1-.04.47-.04,1.1v.65l.08.43c.05.12.27.25.63.4l.37.15c.1.04.21.07.32.07.4,0,.63-.28.7-.85.02-.12.06-.18.14-.18.08,0,.12.06.12.17,0,.06,0,.14-.02.25-.03.21-.05.4-.05.57,0,.15.01.4.04.73.02.25.03.41.03.47,0,.09-.04.14-.12.14-.07,0-.11-.04-.15-.13-.05-.17-.15-.31-.3-.42-.14-.1-.45-.26-.92-.46l-3.01-1.31c-.24-.11-.4-.18-.49-.22l-.91-.45-.45-.23h.01c-.24-.1-.36-.17-.36-.2,0-.05.13-.14.4-.26l.25-.12Zm2.99-.18l-1.46.63c-.35.15-.52.26-.52.32,0,.04.11.11.34.21l.2.09,1.27.56.12.05s.09.03.12.03c.11,0,.16-.11.16-.34v-1.41c0-.12-.03-.18-.1-.18-.02,0-.04,0-.08.02l-.05.02Z"/>
      <path class="cls-8" d="m182.75,139.12l-.48.04c-.25.04-.43.13-.57.28-.13.15-.2.34-.2.58,0,.16-.05.23-.15.23s-.14-.1-.14-.31c0-.09,0-.22.03-.38.05-.42.07-.75.07-1.01,0-.32-.02-.57-.05-.76-.03-.16-.04-.28-.04-.35s.03-.11.1-.13h.04s.11.13.11.13c.08.23.18.39.3.46.12.08.32.11.6.11h.43s3.82,0,3.82,0c.29,0,.5-.05.63-.15.12-.1.21-.29.25-.56.03-.16.05-.27.07-.31.02-.05.06-.07.12-.07.09,0,.13.04.13.11,0,.06-.02.14-.04.26-.02.11-.04.31-.04.58,0,.18.01.4.03.66l.03.35c.02.33.04.58.04.76,0,.11-.04.16-.11.16-.06,0-.1,0-.12-.02-.02-.02-.03-.05-.04-.12-.04-.23-.1-.37-.19-.44-.09-.07-.27-.1-.55-.1h-4.08Z"/>
      <path class="cls-8" d="m186.73,145.22l-2.85,2.53-.18.16c-.24.22-.36.36-.36.43,0,.07.1.1.29.11.7.03,1.37.04,2.01.04.75,0,1.25-.08,1.52-.23.26-.15.41-.45.44-.89,0-.11.04-.16.12-.16.09,0,.13.05.13.14,0,.12-.02.3-.05.56-.02.17-.03.3-.03.41,0,.22.03.57.09,1.05,0,.06,0,.11,0,.14,0,.1-.05.15-.14.15-.08,0-.13-.05-.15-.15-.08-.41-.44-.62-1.09-.62h-.23l-2.99-.07-.41-.02h-.53s-.36,0-.36,0l-.6.02c-.09,0-.13-.03-.13-.1,0-.06.04-.12.11-.18l4.84-4.35c.08-.08.12-.13.12-.16,0-.08-.07-.12-.22-.12h-.14s-1.85,0-1.85,0c-.99,0-1.65.05-1.99.15-.36.1-.56.42-.61.94,0,.1-.05.14-.12.14-.1,0-.15-.05-.15-.15,0-.04,0-.1.02-.19.04-.27.06-.57.06-.9s-.02-.61-.07-.87c-.02-.11-.03-.19-.03-.25,0-.09.04-.13.12-.13.07,0,.11.05.14.14.07.23.2.4.41.51.21.11.51.16.9.16l1.14.03h2.07c.98,0,1.5-.36,1.55-1.09,0-.1.05-.15.13-.15.09,0,.14.05.14.16l-.02.33v.2c0,.25.02.52.04.8,0,.11.01.19.01.27,0,.1-.02.18-.06.23-.04.06-.18.18-.4.36l-.39.33c-.15.13-.25.21-.28.23Z"/>
      <path class="cls-8" d="m185.46,154.43l-2.62,1.07c-.11.05-.17.09-.18.13,0,.03.04.07.13.12l2.39,1.08c.78.36,1.35.54,1.7.54.2,0,.36-.07.49-.21.13-.14.21-.34.25-.6.01-.11.06-.17.13-.17s.11.04.11.12c0,.04,0,.13,0,.27l-.03.5c-.01.23-.02.39-.02.48,0,.29.02.54.06.75.01.08.02.15.02.19,0,.06-.04.09-.12.09-.08,0-.12-.05-.14-.14-.03-.19-.13-.34-.29-.45-.16-.12-.48-.28-.97-.5l-1.65-.71-1.81-.82c-.59-.26-.91-.41-.95-.43-.35-.17-.56-.27-.61-.29-.14-.06-.22-.14-.22-.23,0-.06.04-.11.12-.14l.24-.11.29-.12,2.58-1.14c.63-.28,1.2-.51,1.7-.7.59-.22.98-.4,1.16-.53.19-.13.31-.31.35-.53.03-.13.08-.19.16-.19.09,0,.13.04.13.13,0,.03,0,.07-.01.14-.02.16-.03.35-.03.57l-.02.81.02.5c.01.21.02.35.02.42,0,.09-.04.13-.13.13-.08,0-.13-.07-.15-.2-.04-.24-.18-.36-.41-.36-.29,0-.85.18-1.7.53Z"/>
      <path class="cls-8" d="m182.75,163.03l-.48.04c-.25.04-.43.13-.57.28-.13.15-.2.34-.2.58,0,.16-.05.23-.15.23s-.14-.1-.14-.31c0-.09,0-.22.03-.38.05-.41.07-.75.07-1.01,0-.32-.02-.57-.05-.76-.03-.16-.04-.27-.04-.34s.03-.11.1-.13h.04s.11.13.11.13c.08.23.18.39.3.46.12.08.32.11.6.11h.43s3.82,0,3.82,0c.29,0,.5-.05.63-.15.12-.1.21-.29.25-.56.03-.16.05-.27.07-.31.02-.05.06-.07.12-.07.09,0,.13.04.13.11,0,.06-.02.14-.04.26-.02.11-.04.31-.04.58,0,.18.01.4.03.67l.03.35c.02.33.04.58.04.75,0,.11-.04.16-.11.16-.06,0-.1,0-.12-.02-.02-.02-.03-.05-.04-.12-.04-.23-.1-.37-.19-.44-.09-.06-.27-.1-.55-.1h-4.08Z"/>
      <path class="cls-8" d="m187.94,169.96c0,.6-.13,1.12-.38,1.56l-.18.32c-.04.06-.06.12-.06.17,0,.06.03.11.08.14l.15.1s.04.04.04.09c0,.1-.1.15-.31.15h-.35s-.44,0-.44,0l-.37.04-.22.04c-.11.02-.2.03-.28.03-.12,0-.18-.05-.18-.13,0-.05.04-.08.12-.1.12-.02.31-.11.56-.27.25-.15.45-.3.6-.43.6-.56.9-1.18.9-1.86,0-.6-.25-1.1-.74-1.48-.5-.38-1.14-.57-1.93-.57-1.03,0-1.86.31-2.48.93-.46.46-.69.97-.69,1.52,0,.32.08.67.23,1.03.15.36.35.65.58.85l.34.31c.05.04.08.09.08.13,0,.06-.03.09-.1.09-.13,0-.34-.13-.63-.38-.75-.66-1.12-1.48-1.12-2.45s.3-1.7.9-2.29c.6-.59,1.38-.88,2.34-.88.53,0,1.04.11,1.55.33.51.22.92.52,1.23.88.52.6.78,1.31.78,2.12Z"/>
      <path class="cls-8" d="m186.67,178.69h-3.61c-.54,0-.92.08-1.15.23-.23.16-.35.43-.38.83,0,.12-.07.17-.17.17-.08,0-.11-.05-.11-.15,0-.02,0-.06,0-.12v-.36s.06-.6.06-.6c0-.05,0-.11,0-.19,0-.19,0-.35-.01-.5l-.06-1.06c-.01-.11-.02-.19-.02-.23,0-.1.04-.15.13-.14.07,0,.12.02.14.05.02.03.03.09.04.19.02.25.11.44.27.58.16.14.39.2.67.2h.23s4.26,0,4.26,0c.25,0,.38-.14.38-.41,0-.64-.05-1.08-.14-1.31-.07-.17-.15-.28-.24-.34-.09-.06-.3-.13-.65-.23l-.13-.04c-.13-.03-.2-.09-.2-.16,0-.1.05-.15.15-.15.09,0,.21.02.37.05l.42.05.43.06.29.03c.12.01.19.08.19.2,0,.03,0,.09-.01.16-.01.12-.02.3-.02.53v.98s-.03,1.16-.03,1.16c0,.75.02,1.55.06,2.39,0,.17.01.27.01.32,0,.18-.07.27-.22.28l-.34.02c-.05,0-.18.02-.39.05-.17.02-.3.03-.41.03s-.16-.04-.16-.13c0-.08.06-.13.18-.16.3-.07.51-.19.64-.38.13-.19.2-.46.2-.83,0-.48-.04-.79-.11-.91-.08-.12-.26-.18-.56-.18Z"/>
      <path class="cls-8" d="m187.29,186.71l-5,2.18c-.25.11-.44.24-.56.38-.12.15-.21.34-.25.57,0,.06-.06.09-.14.09-.09,0-.13-.04-.13-.11,0-.04.01-.1.03-.18.05-.25.08-.64.08-1.19s-.03-.92-.08-1.12c-.01-.05-.02-.09-.02-.12,0-.09.05-.13.14-.13.05,0,.08.03.1.1.04.15.12.28.24.38.11.1.24.15.36.15.18,0,.57-.14,1.18-.42.18-.09.29-.18.32-.28.03-.1.04-.47.04-1.1v-.65l-.08-.43c-.05-.12-.27-.25-.63-.4l-.37-.15c-.11-.04-.21-.07-.32-.07-.4,0-.64.28-.7.85-.02.12-.06.18-.14.18-.08,0-.12-.06-.12-.17,0-.06,0-.14.02-.25.03-.21.05-.4.05-.57,0-.15-.02-.4-.04-.73-.02-.25-.03-.41-.03-.47,0-.09.04-.14.12-.14.06,0,.11.04.15.14.05.17.15.31.3.42.15.1.45.26.92.46l3.01,1.31c.24.1.4.18.49.22l.91.44.45.23h-.02c.24.1.36.17.36.21,0,.05-.13.14-.4.26l-.25.11Zm-2.99.18l1.46-.63c.35-.15.53-.26.53-.32,0-.04-.11-.11-.34-.21l-.2-.09-1.28-.56-.12-.05s-.09-.03-.12-.03c-.11,0-.16.12-.16.34v1.41c0,.12.03.18.1.18.02,0,.04,0,.08-.02l.05-.02Z"/>
      <path class="cls-8" d="m122.21,196.38l1.07,2.62c.05.12.09.17.13.18.03,0,.07-.04.12-.13l1.08-2.39c.36-.79.53-1.35.53-1.7,0-.2-.07-.36-.21-.49-.14-.12-.34-.21-.6-.25-.11-.01-.17-.06-.17-.13s.04-.11.12-.11c.04,0,.13,0,.27,0l.5.03c.23.01.39.02.48.02.29,0,.54-.02.75-.06.08-.01.15-.02.19-.02.06,0,.09.04.09.12,0,.08-.05.12-.14.14-.19.04-.34.13-.45.29-.12.15-.29.48-.5.96l-.71,1.65-.82,1.81c-.27.59-.41.91-.43.95-.17.35-.27.56-.29.61-.06.14-.14.22-.23.22-.06,0-.11-.04-.14-.11l-.11-.25-.12-.29-1.14-2.57c-.28-.63-.51-1.2-.69-1.7-.22-.59-.4-.97-.53-1.16-.13-.19-.31-.31-.53-.35-.13-.03-.19-.08-.19-.16,0-.09.04-.13.13-.13.03,0,.07,0,.14,0,.16.02.35.03.57.03l.81.03.5-.02c.21-.01.35-.02.42-.02.09,0,.13.04.13.13,0,.08-.07.13-.2.15-.24.04-.36.18-.36.41,0,.29.18.85.53,1.7Z"/>
      <path class="cls-8" d="m127.73,199.03c.08,0,.19.07.32.21l.28.3.19.2s.04.09.04.14c0,.07-.07.17-.21.3-.07.06-.17.15-.27.27-.15.17-.27.25-.35.25-.06,0-.15-.06-.26-.17-.15-.16-.26-.28-.34-.35-.16-.14-.23-.25-.23-.33s.07-.17.21-.29c.07-.06.17-.16.3-.31.14-.15.25-.22.32-.22Z"/>
      <path class="cls-8" d="m133.05,196.38l1.07,2.62c.05.12.09.17.13.18.04,0,.07-.04.12-.13l1.08-2.39c.36-.79.53-1.35.53-1.7,0-.2-.07-.36-.21-.49-.14-.12-.34-.21-.6-.25-.11-.01-.17-.06-.17-.13s.04-.11.12-.11c.04,0,.13,0,.27,0l.5.03c.23.01.39.02.48.02.29,0,.54-.02.75-.06.08-.01.15-.02.19-.02.06,0,.09.04.09.12,0,.08-.05.12-.14.14-.19.04-.34.13-.45.29-.12.15-.28.48-.5.96l-.71,1.65-.82,1.81c-.26.59-.41.91-.43.95-.17.35-.27.56-.29.61-.06.14-.14.22-.23.22-.06,0-.11-.04-.14-.11l-.11-.25-.12-.29-1.14-2.57c-.28-.63-.51-1.2-.7-1.7-.22-.59-.4-.97-.53-1.16-.13-.19-.31-.31-.53-.35-.13-.03-.19-.08-.19-.16,0-.09.04-.13.13-.13.03,0,.07,0,.14,0,.16.02.35.03.57.03l.8.03.5-.02c.21-.01.35-.02.42-.02.09,0,.13.04.13.13,0,.08-.07.13-.2.15-.24.04-.36.18-.36.41,0,.29.18.85.53,1.7Z"/>
      <path class="cls-8" d="m138.57,199.03c.08,0,.19.07.32.21l.28.3.19.2s.04.09.04.14c0,.07-.07.17-.21.3-.07.06-.16.15-.27.27-.15.17-.27.25-.35.25-.06,0-.15-.06-.26-.17-.15-.16-.26-.28-.34-.35-.16-.14-.24-.25-.24-.33s.07-.17.21-.29c.07-.06.17-.16.3-.31.14-.15.24-.22.32-.22Z"/>
      <path class="cls-8" d="m145.98,193.9c1,0,1.8.29,2.41.87.61.58.92,1.34.92,2.28,0,1.03-.32,1.89-.95,2.61-.62.7-1.47,1.05-2.55,1.05s-1.86-.3-2.48-.91c-.62-.6-.93-1.41-.93-2.43,0-.43.08-.87.23-1.29.16-.43.37-.79.64-1.08.31-.34.7-.61,1.18-.8.48-.19.98-.29,1.52-.29Zm-.34.36c-.64,0-1.14.24-1.51.71-.36.47-.54,1.14-.54,1.99,0,1,.23,1.82.68,2.44.45.63,1.04.94,1.77.94.66,0,1.18-.26,1.57-.78.39-.52.59-1.21.59-2.08,0-.5-.09-.99-.27-1.47-.18-.48-.42-.86-.73-1.14-.44-.42-.96-.62-1.56-.62Z"/>
      <path class="cls-8" d="m153.43,193.9c.3,0,.59.06.88.17l.32.14c.14.06.25.09.31.09.04,0,.09-.01.14-.03l.18-.09s.05-.02.08-.02c.07,0,.1.05.1.16v.39c0,.06,0,.12,0,.17l.06.47.05.44s0,.07,0,.1c0,.14-.04.21-.12.21-.06,0-.1-.06-.12-.18-.09-.45-.33-.83-.7-1.16s-.77-.49-1.19-.49c-.29,0-.54.1-.76.29-.21.19-.32.42-.32.69,0,.24.09.46.28.64.12.11.5.3,1.14.56.76.31,1.26.61,1.51.91.29.36.44.79.44,1.3,0,.56-.2,1.04-.6,1.45-.4.41-.88.62-1.42.62-.22,0-.57-.07-1.05-.22-.22-.07-.39-.12-.49-.15-.15-.03-.23-.06-.26-.08-.02-.03-.04-.11-.06-.25-.02-.15-.06-.37-.14-.65-.12-.43-.18-.71-.18-.83,0-.15.05-.23.15-.23.04,0,.08.04.09.11.16.55.43,1.01.82,1.38.39.37.79.56,1.21.56.32,0,.61-.12.87-.37.26-.25.38-.53.38-.85,0-.25-.07-.46-.2-.62-.13-.16-.36-.31-.69-.46l-.73-.33c-.69-.31-1.16-.6-1.41-.87-.25-.27-.37-.64-.37-1.09,0-.53.17-.97.52-1.32.34-.36.77-.53,1.28-.53Z"/>
      <path class="cls-8" d="m161.31,193.9c.6,0,1.12.13,1.56.38l.32.18c.06.04.12.06.17.06.06,0,.11-.03.14-.08l.1-.15s.04-.04.09-.04c.1,0,.15.1.15.31v.35s0,.44,0,.44l.04.37.04.22c.02.11.03.2.03.28,0,.12-.04.18-.13.18-.05,0-.08-.04-.1-.12-.03-.12-.12-.31-.27-.56-.15-.25-.3-.45-.43-.6-.56-.6-1.18-.9-1.86-.9-.6,0-1.1.25-1.47.74-.38.5-.57,1.14-.57,1.93,0,1.03.31,1.86.93,2.48.46.46.97.69,1.52.69.32,0,.67-.08,1.03-.23.36-.15.65-.35.85-.58l.31-.34c.05-.05.09-.08.13-.08.06,0,.09.03.09.1,0,.13-.13.34-.38.63-.66.75-1.48,1.12-2.45,1.12s-1.7-.3-2.29-.9c-.59-.6-.88-1.38-.88-2.34,0-.53.11-1.04.33-1.55.22-.5.52-.92.88-1.23.6-.52,1.31-.78,2.12-.78Z"/>
      <path class="cls-8" d="m169.25,194.55l2.18,5c.11.25.23.44.38.56.15.12.33.21.57.25.06,0,.09.06.09.14,0,.09-.04.13-.11.13-.04,0-.1-.01-.18-.03-.25-.05-.64-.08-1.19-.08s-.92.03-1.12.07c-.05.01-.09.02-.12.02-.09,0-.13-.05-.13-.14,0-.05.04-.08.1-.1.15-.04.28-.12.38-.24.1-.11.15-.23.15-.36,0-.18-.14-.57-.42-1.18-.09-.19-.18-.29-.28-.32-.1-.03-.47-.04-1.1-.04h-.65l-.43.08c-.12.05-.25.26-.4.63l-.15.37c-.04.1-.07.21-.07.32,0,.4.28.63.85.7.12.02.18.06.18.14,0,.08-.06.12-.17.12-.06,0-.14,0-.25-.02-.21-.03-.4-.05-.57-.05-.15,0-.4.01-.74.04-.25.02-.41.03-.47.03-.09,0-.13-.04-.13-.12,0-.07.04-.11.13-.15.17-.05.31-.15.42-.3.1-.15.26-.45.46-.92l1.31-3.01c.1-.24.18-.4.22-.49l.44-.91.23-.45h0c.1-.23.17-.35.2-.35.05,0,.14.13.26.4l.12.25Zm.18,2.99l-.63-1.46c-.15-.35-.26-.52-.32-.52-.04,0-.11.11-.21.34l-.09.2-.56,1.28-.05.12s-.03.09-.03.12c0,.11.11.16.34.16h1.41c.12,0,.18-.03.18-.1,0-.02,0-.04-.02-.08l-.02-.05Z"/>
      <path class="cls-7" d="m142.59,133.45s-.42-1.31-.97-1.48c-.55-.17-1.44,0-2.58-.17-1.14-.17-2.16-.21-2.37.55-.21.76-.72,1.1-1.31,1.61-.59.51-.85,1.06-.47,1.82.38.76.34,1.31.34,1.65s.8.59,1.48-.04c.68-.63.89-1.06,1.74-1.44.85-.38,1.35-1.27,1.69-1.65.34-.38,1.1-.59,1.4-.25,0,0,.17-.38,1.06-.59Z"/>
      <path class="cls-3" d="m150.54,159.62c-.17-.25-.36-.5-.58-.77-1.48-1.78-2.07-2.5-2.07-2.5,0,0,.47-.85.72-1.61,0,0,1.14.13,1.74-.04,0,0-.04,2.37,1.23,3.81,0,0-.21.34-.47.63-.25.3-.56.47-.56.47Z"/>
      <path class="cls-3" d="m146.88,148.27c0-.14,0-.3,0-.46,0,0,4.31,1.35,9.27,2.28,4.95.93,8.08,1.19,9.57.89,0,0,.21.63.59,1.48,0,0-3.33-.42-8.72-1.35-6.35-1.1-10.7-2.84-10.7-2.84Z"/>
      <path class="cls-3" d="m138.14,163.38c0,.64,0,1.27,0,1.82,0,0-2.12.17-4.91,1.91-2.79,1.74-4.4,2.92-5.33,3.72-.93.8-1.35.93-1.65.68-.3-.25,0-1.52,1.31-2.67,1.31-1.14,4.32-3.17,6.64-4.19,2.33-1.02,3.93-1.27,3.93-1.27Z"/>
      <path class="cls-3" d="m139.76,170.74s-.85,0-1.9-.21c0,0,.68-.51.93-.8.25-.3.72-.3.68.13-.04.42.3.89.3.89Z"/>
      <path class="cls-3" d="m138.74,166.09s4.61-1.35,6.98-1.52c0,0,.47-1.4.97-2.2,0,0-2.5-2.07-3.05-3.43,0,0-1.57.55-2.2-.59,0,0-.68.51-1.35.21-.68-.3-1.1-.76-1.82-1.44-.72-.68-1.27-.55-.68.21.59.76,1.48,1.86,1.48,2.75,0,0-.68-.42-1.48-1.57-.81-1.14-1.02-1.02-.97-.59.04.42.5.83,1.02,1.65.51.8,1.44,2.92,1.1,6.52Z"/>
      <path class="cls-3" d="m149.65,169.84c.51-.14,1.04-.3,1.54-.49,0,0-.97-3.6-1.06-4.57,0,0-.47.34-1.1,1.27-.18.27-.37.6-.54.98,0,0,.46.84.75,1.6.3.76.41,1.21.41,1.21Z"/>
      <path class="cls-4" d="m134.29,146.08c-3.98-1.66-6.99-2.94-7.94-3.39-1.92-.91-2.87-1.47-3.33-1.81-.26-.19-.09-.48.24-.38.52.15,1.32.51,2.32.97l2.08.92c.98.43,3.65,1.51,7.17,2.93l-.55.76Z"/>
      <path class="cls-4" d="m144.82,151.95c-.38.1-.86.11-1.42-.13-.89-.38-.8-1.23-.8-1.23-.89,0-1.61-.3-2.45-.35,0,0,0,2.26-.3,4.08-.3,1.82-.8,2.84-.8,2.84,0,0,.68.8,1.23.97.55.17.97-.42.93-2.71,0,0,.47.25.47,1.23s.08,1.69.63,1.86c.55.17,1.31-.13,1.31-.13,0,0,.25-1.44,1.23-1.99,1.27-.72,2.75-.34,2.75-.34.26-.52.44-1.01.55-1.33,0,0-.84.1-1.88-1.05-.72-.79-.96-2-.96-2,0,0-.15.19-.48.27Z"/>
      <path class="cls-4" d="m153.3,157.28c-.17.42-1.27,1.31-1.27,1.31-.34.64-1.1,1.67-1.1,1.67.58,1.09.64,1.92.55,2.35-.13.59-.89,1.44-.89,1.44,0,0,0,.38.3,1.74.29,1.35.93,3.39.93,3.39,2.75-1.78,4.53-1.19,5.93-1.14,1.4.04,2.88-.55,4.78-.93,1.39-.28,2.58-.04,3.22.68.64.72,1.69,2.67,1.82,3.34.13.68-.34,1.74-.34,2.33s-.17,1.27-.59,2.03c-.42.76-.3,1.23.13,2.24.42,1.02.42,1.14.8,1.1.38-.04.51-.59.76-1.57.25-.97.25-1.69.76-2.92.51-1.23.42-1.82.08-2.88-.34-1.06-.46-1.69-.72-3.43-.25-1.74-.38-2.12-.89-3.01-.51-.89-1.91-.68-3.85-.51-1.95.17-2.62-.17-3.17-.64-.55-.47-.76-1.31-.76-1.31,1.4,1.52,2.58,1.4,4.74,1.27,2.16-.13,2.96,0,3.64,1.02.68,1.02.72,2.54.72,2.54,0,0,1.44,1.19,2.12,2.29.68,1.1.47,1.95.21,2.92-.25.97-.34,1.61.25,2.45.59.85.68.64,1.06.04.38-.59,1.35-2.33,1.27-3.47-.09-1.14-1.06-2.37-2.03-4.49-.97-2.12-1.14-2.88-1.91-3.85-.76-.97-2.03-1.19-3.6-1.27-1.57-.09-2.37-.47-2.88-1.27-.51-.81-.3-2.33-.3-2.33-2.51-1.01-5.97-2.41-9.77-3.97,0,0,.26,2.19,0,2.83Z"/>
      <path class="cls-4" d="m150.89,153.47c.57.23,1.14.47,1.7.7,0,0,.16.83.33,1.84.17,1.02-.38,1.35-.93,1.95,0,0-.76-.72-1.02-2.03-.25-1.31-.08-2.46-.08-2.46Z"/>
      <path class="cls-4" d="m152.83,151.96c.6.24,1.2.48,1.79.71,0,0,.02-.15.16-.66.15-.51.22-.84.22-.84-.46-.09-.87-.18-1.23-.26,0,0-.22.23-.47.53-.25.3-.47.52-.47.52Z"/>
      <path class="cls-4" d="m153.27,150.79c-.66-.16-1.37-.36-2.06-.56,0,0-.04.09-.08.41-.04.34-.04.63-.04.63.44.18.89.35,1.32.53,0,0,.2-.2.42-.43.06-.06.45-.57.45-.57Z"/>
      <path class="cls-4" d="m155.08,152.86c2.75,1.09,5.3,2.1,7.42,2.94,0,0-.36-.93-.36-1.77s.26-1.51.26-1.51c-2.41-.42-5.03-.88-7-1.26,0,0-.07.23-.14.55-.02.08-.19,1.05-.19,1.05Z"/>
      <path class="cls-4" d="m145.56,134.85s-.04,1.31-.13,1.86c0,0,.55.21.76.25.21.04.51-.17.59-1.02.09-.85.34-1.78-1.23-1.1Z"/>
      <path class="cls-4" d="m144.92,136.42s.09-.97,0-1.65c-.08-.68-.3-1.14-1.57-.89-1.27.25-1.86.63-1.91,1.95-.04,1.31-.3,2.46-.93,3.26,0,0,.3.64,1.36,1.02,1.06.38,1.69,0,1.69,0,0,0-.29-1.4-.17-2.24.13-.85,1.52-1.44,1.52-1.44Z"/>
      <path class="cls-4" d="m140.01,139.55s-.72.38-1.82.59c-1.1.21-1.95.89-1.9,1.82.04.93.08,1.57.08,1.57,0,0,.68-.25,1.48-.13.8.13,1.69,1.35,1.69,1.35,0,0,.51-.17,1.06-.59.55-.42.3-1.06.3-1.06,0,0-.68-.17-.97-1.06,0,0,.85.55,1.69.97.85.42,1.48.47,2.12-.21.63-.68.68-1.1.51-1.61,0,0-.72-.3-.85-.47,0,0-1.06.21-1.99-.21-.93-.42-1.4-.97-1.4-.97Z"/>
      <path class="cls-4" d="m144.67,142.43s-.51,1.1-1.4,1.4c-.89.3-1.78-.25-1.78-.25,0,0,0,1.02-1.74,1.74,0,0,.17,1.1-1.48,1.95,0,0,.68.27,1.95.17,1.61-.13,2.24-.51,2.96.51,0,0,1.02-1.52,3-.85,0,0,.21-1.86-.25-3.17-.47-1.31-1.27-1.48-1.27-1.48Z"/>
      <path class="cls-4" d="m138.57,144.42c-.7-.62-1.86-.72-2.71.25-.85.97-1.82,2.37-1.82,2.37,0,0,.47-.21,1.19-.3.72-.09,1.27,0,1.52.21.25.21,1.14.08,1.69-.25.55-.34,1.23-1.31.13-2.29Z"/>
      <path class="cls-4" d="m135.4,147.25c-1.1.07-1.69.59-1.74,1.31-.04.72-.34,1.27,1.19,1.31,1.52.04,3,.04,4.36,0,1.35-.04,2.75.17,3.39.21,0,0-.16-.72.35-1.73,0,0-.39-.72-1.53-.64-1.14.09-2.96.3-3.77.13-.8-.17-.97-.68-2.24-.59Z"/>
      <path class="cls-4" d="m145.94,137.56v1.02c0,.38,0,.72-.38.63,0,0,0,.38-.13.72-.13.34-.13.76-.8.68-.68-.08-.76-.42-.85-1.57-.08-1.14.47-1.78.76-1.9.3-.13.72-.04,1.4.42Z"/>
      <path class="cls-4" d="m145.68,147.59c-.93-.33-2.12.55-2.46,1.61-.2.64-.25,2.07.68,2.24.93.17,1.84-.63,1.84-.63,9.26,3.81,18.78,7.67,21.03,8.54,2.19.85,4.63,1.68,5.79,2,.47.13.5-.31.27-.51-.71-.59-2.49-1.44-5.32-2.53-2.64-1.02-12.16-4.79-21.28-8.42,0,0,.64-1.87-.55-2.29Z"/>
      <path class="cls-4" d="m157.15,146.19c.63.51.8.55.8.55,0-.68.3-1.78.3-1.78.25.51.59.38.59.38,0-.72.38-1.4.38-1.4-.04.63.38.93.38.93.13-.76,1.02-1.82,1.02-1.82-.08,1.23.46,1.57.46,1.57,0-1.1.55-2.2.55-2.2.25,1.06.89,1.57.89,1.57,0,0,.76-.38,1.4-1.23.63-.85.85-1.86.85-1.86,1.86.04,2.71-.55,2.71-.55.72-.59.89-1.65.89-1.65,0,0-1.57.42-2.62,1.48,0,0-1.9.21-4.61,1.14-2.71.93-5.5,1.57-7.15,3.43-1.65,1.86-2.33,3.81-2.33,3.81,0,0,2.43.58,5.04,1.1,0,0-.13-1.18,0-2.16.13-.97.47-1.31.47-1.31Z"/>
      <path class="cls-4" d="m163.97,150.55c-.68,0-1.62-.03-2.88-.16-.99-.1-2.24-.31-3.51-.55,0,0-.51-1.14-.34-2.84,0,0,.51.25.85.8,0,0,.13-.93.3-1.91,0,0,.59.59,1.02.76v-1.44s.25.25.59.25c0,0,.08-.8.21-1.1,0,0,.63,1.14,1.06,1.57,0,0,.08-1.4.34-2.29,0,0,.46.51.93.8,0,0,.68-.25,1.35-1.06,0,0,.04.76,0,1.27,0,0-.79.47-.76,1.02.04.93,1.1.76,1.1.76-.13.38-.08,1.44.55,2.37.63.93.68,1.61.68,1.61,0,0-.93-.13-1.48-.68-.55-.55-.55-1.57-.55-1.57,0,0-.25.26-.25.97s.8,1.39.8,1.39Z"/>
      <path class="cls-4" d="m170.32,148.44c0,.56.13,1.1.25,1.61.25,1.06.68,2.03.38,2.84-.3.8-.89,1.31-1.52,1.31s-1.82-.8-2.58-2.07c-.76-1.27-.76-2.46-1.35-3.22-.59-.76-.89-2.37-.89-2.37,0,0,.25-.13.47-.42.21-.3.17-.76.17-.76,0,0,1.27-.76,2.33-1.14,1.06-.38,1.69-.58,1.95-.17.85,1.35.42,1.91.42,2.62s.39,1.06.39,1.78Zm-.3,3.47c-.26-.03-.8.63-.55,1.02.25.38.72.25.93.08.21-.17.04-1.06-.38-1.1Zm-2.2-5.93s-.63.08-1.1.42c-.47.34-.38.93-.38.93,0,0,.63,0,1.02-.21.38-.21.47-1.14.47-1.14Z"/>
      <path class="cls-4" d="m127.57,171.72c.38,1.31.72,2.33,1.44,3.81.72,1.48.17,2.92-.47,3.64-.63.72-1.44,1.31-1.27,1.86.17.55,1.02,1.27,2.16,1.99,1.14.72,2.58,1.48,3.6,2.2,1.02.72,1.78,1.27,2.54,1.95.76.68,1.23,1.27,1.91,1.31.68.04,1.69.13,1.95-.13.25-.25-.25-.89-1.06-1.57-.8-.68-2.58-1.48-4.15-2.37-1.57-.89-3.43-2.2-3.56-3.13-.13-.93.25-1.65,1.31-2.96,1.06-1.31,2.16-2.41,3.05-3.43.89-1.02,1.23-2.92,1.4-4.36.17-1.44.3-2.07.3-2.07,0,0,.13.42.25.93.13.51.3.97.8.76.51-.21.89-1.14,1.4-1.14s.72.42.89,1.19c.17.76.76.63,2.24.59,1.48-.04,2.24-.17,2.24-.17,0,0,.42-1.65.72-3.22.3-1.57.34-2.2.34-2.2,0,0-1.4.04-3.22.47-1.82.42-4.19,1.27-4.19,1.27,0,0-.02-.46-.03-1.14,0,0-1.07-.08-3.78,1.35-2.71,1.44-3.6,2.03-4.83,3.01-1.23.97-1.99,1.57-1.99,1.57Z"/>
      <path class="cls-4" d="m124.82,165.37s-1.44-.21-2.07.13c-.63.34-.59,2.16-.38,4.82.21,2.67,1.14,5.42,1.86,7.37.72,1.95,0,2.54,0,2.54-.64-.38-1.27-2.2-1.27-2.2,0,0,.25,1.99.3,3.51.04,1.52-.72,2.2-.72,2.2,0,0-1.06-1.52-1.65-3.39-.59-1.86-.93-4.4-.93-4.4-.38,1.06-.89,1.56-.89,1.56,0,0-.63-1.02-.89-2.88-.25-1.86-.68-5.12.08-7.24.76-2.12,2.62-3.09,3.94-3.3,1.31-.21,2.71-.04,2.71-.04,1.65-3.64,3.85-4.7,6.64-5.04,2.79-.34,4.83-.25,4.83-.25,0,0,1.82,1.86,1.78,3.89,0,0-1.82.47-3.56,1.23-1.74.76-4.06,2.07-5.84,3.39-1.78,1.31-2.54,2.37-2.54,2.37,0,0-.46-.76-.93-1.95-.47-1.19-.47-2.33-.47-2.33Z"/>
      <path class="cls-4" d="m133.45,186.36s-.99-.93-2.71-1.99c-1.78-1.1-2.79-1.74-3.64-2.67-.85-.93-.3-1.4.42-2.16.72-.76,1.06-1.23,1.27-1.99.21-.76-.34-2.07-.34-2.07,0,0-.04,1.19-1.19,2.84-1.14,1.65-1.86,1.95-1.02,3.05.85,1.1,1.61,2.07,2.2,2.67.59.59,1.18.81,1.65.81,0,0,.25,1.02.51,1.57.25.55.85.8,1.52.97.68.17,1.4-.08,1.31-1.02Z"/>
      <path class="cls-4" d="m144.03,158.64s.08-1.61,1.52-2.03c1.11-.33,1.95,0,1.95,0,0,0,.85.89,2.03,2.54,1.19,1.65,1.65,2.5,1.48,3.3-.17.81-.81,1.14-.81,1.14,0,0-.25-.68-1.23-1.1-.97-.42-1.78-.3-1.78-.3,0,0-.93-1.06-1.69-1.65-.76-.59-1.48-1.9-1.48-1.9Z"/>
      <path class="cls-4" d="m147.29,168.88c-.44,1.72-.76,2.37-.59,3.17.13.6.89.97,1.74,1.44.85.46.59.63-.25.85-.85.21-1.57-.42-2.75-.8-1.19-.38-1.23-.8-.68-2.24.55-1.44.76-3.01,1.27-5.42.51-2.41,1.23-3.26,1.23-3.26,0,0,.97,0,1.69.42.72.42.97.97.97.97,0,0-.21.42-.93,1.18-.72.76-1.27,2.03-1.69,3.68Z"/>
      <path class="cls-4" d="m148.18,167.74c-.32.82-.58,1.74-.72,2.58,0,0,.7-.11,1.62-.34,0,0-.14-.59-.39-1.23-.25-.64-.5-1.01-.5-1.01Z"/>
      <path class="cls-4" d="m167.52,141.07s-1.65.21-2.5.3c0,0-.25,1.1-.76,1.78,0,0,.04.68,0,1.44,0,0,.64,0,.93.21,0,0,1.78-1.1,2.75-1.35,0,0,.09-.68,0-1.44-.08-.76-.42-.93-.42-.93Z"/>
      <path class="cls-4" d="m163.63,145.26c-.22.21-.08.85.3.85s1.14-.51.63-.47c-.51.04-.72-.59-.93-.38Z"/>
      <path class="cls-4" d="m168.22,140.93s.93-.2,1.49.68c.56.87.99,2.28.99,2.28,0,0-.39.03-.99-.79-.59-.82-1.04-1.33-1.49-2.17Z"/>
      <path class="cls-4" d="m168.61,142.46s.54.54.59.9c0,0-.45-.11-.68-.06l.08-.85Z"/>
      <path class="cls-5" d="m155.04,156.36c-.93-.64-1.05,1.2-.99,2.22.06,1.02,1.08,3.27,2.4,4.29,1.32,1.02,2.61,1.23,2.34.06-.27-1.17.54-1.65,2.25-1.08,1.71.57,2.56,1.36,4.23,1.41,2.76.09,3.57.93,3.75,2.16.18,1.23,1.26,1.86,1.02.15-.24-1.71-.66-2.52-2.94-2.67-2.28-.15-3.39-.33-3.93-1.11-.54-.78-1.26-2.67-2.34-3.21-1.08-.54-2.55.45-3.36-.51-.81-.96-1.86-1.32-2.43-1.71Z"/>
      <path class="cls-5" d="m147.57,157.41c-.85-.51-1.74.3-.78.96.96.66,2.31,1.86,2.61,2.76.3.9.48,1.77.9,1.47.42-.3.75-.69.12-1.62-.63-.93-2.25-3.21-2.85-3.57Z"/>
      <path class="cls-5" d="m148.65,163.77c-.83-.62-1.14-.15-1.65,1.47-.51,1.62-1.08,4.2-1.08,4.86s.24,1.08.63-.24c.39-1.32.87-3.63,1.53-4.41.66-.78,1.17-1.23.57-1.68Z"/>
      <path class="cls-5" d="m152.37,165.45c-.56-.55-.9-.6-.54.39.36.99.03,2.55,1.2,1.98,1.17-.57.39-1.35-.66-2.37Z"/>
      <path class="cls-5" d="m171.9,171.72c-.09.83-.3,1.38-.21,2.13.09.75.51.93.99.09.48-.84.39-2.13,0-3.21-.39-1.08-.63-.33-.78.99Z"/>
      <path class="cls-5" d="m167.94,176.46c-.15.86-.27,1.59-.6,1.11-.33-.48-.42-1.59.21-2.28.63-.69.54.33.39,1.17Z"/>
      <path class="cls-5" d="m160.92,165.18c-1.01-.14-1.92.42-.69.78,1.23.36,3.6.24,4.5.21.9-.03,2.19.63,2.28,1.35.09.72.21,2.07.69,2.52.48.45.3-1.08.24-2.16-.06-1.08-.12-2.4-1.68-2.46-1.56-.06-4.02-.06-5.34-.24Z"/>
      <path class="cls-5" d="m168.09,171.93c-.09.84-.3,1.41.03,1.95.33.54.72.24.81-.42.09-.66-.66-3.12-.84-1.53Z"/>
      <path class="cls-5" d="m145.71,171.99c-.63-.09-.81.21-.57.57.24.36,1.17,1.05,1.74,1.08.57.03.72-.12.12-.45-.6-.33-.87-1.14-1.29-1.2Z"/>
      <path class="cls-5" d="m144.09,166.14c-1.09.22-2.4.99-3.87,1.05-1.47.06-2.4.81-1.23.99,1.17.18,3.75,0,4.41.3.66.3,1.86-2.58.69-2.34Z"/>
      <path class="cls-5" d="m145.2,149.82c.58-.1.66-.33.66-.99s-.81-1.05-1.41-.39c-.6.66-.93,1.41-.57,1.65.36.24.96-.21,1.32-.27Z"/>
      <path class="cls-5" d="m136.02,147.81c-.63-.32-1.8.24-1.8.84s1.17.66,2.04.63c.87-.03,3.15-.21,3.99-.15.84.06,3.03-.51.48-.63-2.55-.12-3.42-.03-4.71-.69Z"/>
      <path class="cls-5" d="m137.43,144.66c-.6-.04-1.17.39-1.47.93-.3.54-.36.63.6.63s1.26.15,1.68-.27c.42-.42.09-1.23-.81-1.29Z"/>
      <path class="cls-5" d="m134.37,168.48c-1.13.75-4.17,2.31-4.77,3.09-.6.78.18,1.86.78,1.14.6-.72,3.21-1.71,3.48-.75.27.96.66.99-.51,2.28-1.17,1.29-2.82,3.06-3.24,3.99-.42.93-.21,1.2.93.09,1.14-1.11,3.81-3.54,4.35-5.43.54-1.89.75-5.58-1.02-4.41Z"/>
      <path class="cls-5" d="m128.37,180.54c-.44.3-.54,1.23.72,1.83,1.26.6,3.33,1.8,4.02,2.31.69.51,3.69,3.36,4.47,3.36s1.41-.15-.21-.9c-1.62-.75-3.36-2.13-4.62-3-1.26-.87-3.72-4.05-4.38-3.6Z"/>
      <path class="cls-5" d="m121.02,165.42c-1.07,1-2.76,4.65-2.34,5.94.42,1.29,1.32,2.64,1.8,3.72s.81,4.74,1.32,5.43c.51.69.93,1.83.69-.12-.24-1.95-.84-4.8-.72-5.61.12-.81-.45-3.03-.36-5.16.09-2.13.45-4.98-.39-4.2Z"/>
      <path class="cls-5" d="m122.58,176.31c.19.96,1.23,2.73,1.17,1.65-.06-1.08-1.68-4.2-1.17-1.65Z"/>
      <path class="cls-5" d="m144.6,152.82c-1.01-.16-2.58-1.23-2.58-.21s-.48,1.35.69,1.62c1.17.27,1.92.69.93.96-.99.27-1.32.63-1.11,1.41.21.78.48.99,1.08.21.6-.78,1.41-1.26,2.49-1.29,1.08-.03,1.59-.48.69-1.02-.9-.54-1.02-1.5-2.19-1.68Z"/>
      <path class="cls-5" d="m132.03,159.78c-1.71.14-3.78.54-4.95,1.92-1.17,1.38-1.59,2.79-.81,2.64.78-.15,2.67-.87,3.93-.81,1.26.06,1.95.12,2.76-.51.81-.63.21-2.4,1.56-2.7,1.35-.3.09-.75-2.49-.54Z"/>
      <path class="cls-5" d="m144.57,143.88c-.51.34-1.62.6-2.07.54-.45-.06-1.2.72-.69.96.51.24.81,1.68,1.86,1.29,1.05-.39,2.13-.18,1.92-1.26-.21-1.08-.39-1.95-1.02-1.53Z"/>
      <path class="cls-5" d="m139.41,140.46c-1.17,0-2.43.6-2.43,1.41s.39.63,1.11.93c.72.3,1.29.57,1.17-.21-.12-.78.54-1.08,1.38-1.11.84-.03.12-1.02-1.23-1.02Z"/>
      <path class="cls-5" d="m143.19,141.45c-1.05-.04-1.14.15-1.17.78-.03.63.54.87,1.2.33.66-.54.75-1.08-.03-1.11Z"/>
      <path class="cls-5" d="m143.67,134.52c-.98.17-2.04.45-1.74,1.14.3.69.42,1.11.36,2.07-.06.96.3,2.85.45.96.15-1.89.54-2.1,1.08-2.46.54-.36,1.02-1.92-.15-1.71Z"/>
      <path class="cls-5" d="m168.51,144.48c-1.09.24-1.56.99-.93.99s.66.51.66,1.38.66,1.41.66,2.46.09,1.62.57,1.62.72-.84.48-1.65c-.24-.81-.54-2.43-.45-3.12.09-.69-.3-1.83-.99-1.68Z"/>
      <path class="cls-5" d="m165.69,146.16c-.46.39-.66,1.56-.15,1.86.51.3.69.75.78,1.17.09.42.81,1.44.93,2.13.12.69,1.08,1.65.84.84-.24-.81-.45-2.55-.33-3.51.12-.96.03-.93-.63-.72-.66.21-1.26-.3-1.14-1.08.12-.78.09-1.02-.3-.69Z"/>
      <path class="cls-5" d="m161.49,146.52c-.91.06-1.68-.36-1.68.57s-.51,1.35-.96,1.68c-.45.33-.84.84.33.87,1.17.03,3,.3,2.94-.18-.06-.48-1.56-.15-.81-1.02.75-.87,1.08-1.98.18-1.92Z"/>
      <path class="cls-5" d="m153.69,145.86c-1.05,1.08-1.56,2.19-.66,2.43.9.24.66.03,1.53-1.35.87-1.38,3.36-2.76,4.5-3.48,1.14-.72.96-1.32-.9-.63-1.86.69-3.33,1.86-4.47,3.03Z"/>
      <path class="cls-5" d="m163.47,141.27c-1.18.43-1.32.99-1.02,1.35.3.36.63.3,1.14-.3.51-.6,1.02-1.47-.12-1.05Z"/>
      <path class="cls-5" d="m157.11,152.25c-.99-.19-1.68-.06-.78.42.9.48,4.14,1.47,4.62,1.71.48.24.42.06.42-.51s0-.84-1.14-1.02c-1.14-.18-2.34-.45-3.12-.6Z"/>
    </g>
  </g>
</svg>