<?xml version="1.0" encoding="UTF-8"?>
<svg id="Livello_2" data-name="Livello 2" xmlns="http://www.w3.org/2000/svg" xmlns:xlink="http://www.w3.org/1999/xlink" viewBox="0 0 334.8 426.72">
  <defs>
    <style>
      .cls-1 {
        fill: none;
      }

      .cls-1, .cls-2, .cls-3, .cls-4, .cls-5 {
        stroke-width: 0px;
      }

      .cls-2 {
        fill: #e27005;
      }

      .cls-2, .cls-3, .cls-4, .cls-5 {
        fill-rule: evenodd;
      }

      .cls-3 {
        fill: #fff;
      }

      .cls-6 {
        clip-path: url(#clippath);
      }

      .cls-4 {
        fill: #f28900;
      }

      .cls-5 {
        fill: #1b2e33;
      }
    </style>
    <clipPath id="clippath">
      <rect class="cls-1" width="334.8" height="426.72"/>
    </clipPath>
  </defs>
  <g id="Livello_1-2" data-name="Livello 1">
    <g>
      <g class="cls-6">
        <path class="cls-5" d="m9.32,31.64C57.48,9.2,113.58.77,165.14.56c53.73-.21,112.46,8.63,160.31,31.07,12.07,78.04,12.32,151.63,1.16,207.66-3.57,17.91-8.04,34.02-14.07,47.91-9.15,21.09-26.99,44.88-49.54,66.96-27.45,26.89-62.54,52.11-95.46,71.59-33.27-19.81-72.31-46.6-102.42-78.23-13.66-14.36-26.26-29.99-35.63-46.12-5.25-9.05-9.05-18.04-12.51-27.57-2.56-7.06-4.76-15.17-6.79-24.16C-1.68,196.89-4.68,116.62,9.32,31.64h0Z"/>
      </g>
      <path class="cls-4" d="m167.55,411.19c30.77-18.7,61.54-40.54,87.09-65.56,17.75-17.38,36.97-40.22,46.94-63.18,6.24-14.38,10.25-30.14,13.31-45.48,8.71-43.73,9.59-92.42,6.13-139.36-45.29-25.67-102.47-35.65-154.73-35.44-49.75.2-106.01,9.03-152.69,35.25-1.3,18.39-1.85,36.82-1.61,55.17.41,31.19,2.99,63.99,9.86,94.48,1.72,7.63,3.7,15.35,6.36,22.71,3.22,8.89,6.85,17.44,11.61,25.64,9.22,15.89,21.3,30.59,33.95,43.88,26.79,28.15,60.41,51.61,93.77,71.91h0Z"/>
      <path class="cls-5" d="m129.81,338.61v-3.06c2.6-.51,4.9-1.79,6.1-4.19h3.45v35.94h-5.73v-28.69h-3.82Z"/>
      <path class="cls-5" d="m145.69,338.74c0-.29.02-.67.06-1.16.06-.49.16-1.03.32-1.61.16-.59.41-1.18.74-1.78.33-.58.77-1.11,1.31-1.6.54-.49,1.23-.88,2.05-1.17.82-.29,1.83-.45,3.01-.46,1.15,0,2.13.16,2.97.46.82.29,1.51.68,2.07,1.17.56.49,1,1.02,1.33,1.6.33.59.58,1.19.73,1.78.16.59.27,1.12.32,1.61.04.49.07.87.06,1.16v20.44c0,.45-.01.96-.06,1.54-.03.58-.13,1.18-.28,1.81-.15.62-.4,1.24-.73,1.83-.33.61-.77,1.16-1.31,1.66-.55.5-1.24.9-2.07,1.2-.83.3-1.85.46-3.04.46-1.2,0-2.21-.16-3.04-.46-.83-.29-1.52-.69-2.07-1.2-.54-.5-.98-1.05-1.31-1.66-.32-.59-.57-1.21-.72-1.83-.15-.63-.25-1.23-.29-1.81-.04-.58-.06-1.09-.05-1.54v-2.25h5.73c0,1.19.01,2.2.05,2.99.03.81.11,1.43.21,1.9.11.46.27.79.5.99.24.19.57.29.98.29.34,0,.64-.08.88-.23.24-.14.43-.38.56-.7.11-.32.19-.73.24-1.21.05-.5.08-1.09.08-1.77v-6.75c-.49.27-.97.49-1.43.64-.46.15-.94.23-1.43.23-.98,0-1.83-.14-2.54-.42-.7-.28-1.28-.65-1.75-1.11-.47-.46-.84-.95-1.12-1.5-.27-.55-.48-1.11-.63-1.68-.13-.57-.22-1.11-.27-1.61-.04-.5-.06-.92-.06-1.25v-6.99Zm9.23-1.56c0-.16-.05-.37-.16-.61-.11-.25-.29-.48-.55-.68-.25-.2-.6-.31-1.04-.32-.41,0-.74.12-1,.32-.25.2-.44.43-.57.68-.12.25-.18.46-.18.61v10.41c0,.15.06.37.18.61.13.25.31.48.57.68.26.2.59.31,1,.32.41,0,.73-.1.98-.26.26-.16.45-.36.57-.59.12-.23.19-.43.2-.62v-10.56Z"/>
      <path class="cls-5" d="m182.01,359.91c0,.73-.12,1.43-.28,2.09-.16.65-.39,1.26-.67,1.82-.25.49-.55.96-.92,1.41-.38.45-.84.86-1.36,1.23-.53.38-1.16.69-1.88.91-.73.21-1.67.32-2.62.32s-1.91-.11-2.65-.32c-.74-.21-1.38-.52-1.91-.91-.52-.38-.97-.78-1.34-1.23-.36-.45-.65-.92-.89-1.41-.29-.56-.51-1.17-.67-1.82-.16-.66-.28-1.35-.28-2.09v-21.17c0-.71.12-1.39.28-2.05.16-.64.39-1.25.67-1.82.25-.49.53-.97.89-1.43.36-.46.8-.88,1.34-1.25.53-.38,1.17-.67,1.91-.89.74-.22,1.7-.33,2.65-.33s1.9.11,2.62.33c.73.22,1.36.51,1.88.89.53.38.99.79,1.36,1.25.38.46.67.94.92,1.43.28.57.51,1.18.67,1.82.16.65.28,1.34.28,2.05v21.17Zm-5.73-21.17c0-.49-.06-.91-.18-1.27-.12-.37-.3-.7-.57-.98-.13-.13-.31-.21-.5-.29-.21-.07-.53-.1-.77-.1-.34,0-.72.08-.95.2-.23.13-.41.29-.55.49-.14.2-.23.41-.31.63-.07.2-.14.4-.17.62-.03.22-.04.46-.04.7v21.17c0,.5.07.95.2,1.31.13.36.32.68.59.94.13.13.29.22.48.29.19.07.5.11.74.11.5,0,.99-.14,1.25-.38.27-.25.43-.57.55-.94.05-.18.14-.37.17-.59.03-.22.04-.46.04-.73v-21.17Z"/>
      <path class="cls-5" d="m196.41,359.47h-8.86v-4.65l8.39-23.47h5.73v23.47h2.65v4.65h-2.65v7.82h-5.25v-7.82Zm-3.98-4.65h3.98v-12.32h-.32l-.32,1.07-3.34,11.25Z"/>
      <path class="cls-3" d="m223.5,13.74l7.1.89-5.31,42.25-7.1-.89,5.31-42.25Z"/>
      <path class="cls-3" d="m261.05,20.03l-1.36,7.02-7.27-1.41-6.72,34.79-7.02-1.36,6.72-34.79-7.39-1.43,1.36-7.02,21.69,4.19Z"/>
      <path class="cls-3" d="m201.55,11.31c8.2.61,11.27,6,10.97,9.96l-.29,3.88-7.13-.54.2-2.72c.23-3.1-1.62-4.19-4.68-4.42-2.9-.22-4.9.74-5.1,3.37l-1.73,23.15c-.19,2.63,1.64,3.88,4.54,4.09,3.05.22,5.05-.58,5.28-3.68l.21-2.72,7.13.53-.29,3.88c-.3,3.96-4.14,8.83-12.33,8.22-9.58-.72-12-6.46-11.67-10.85l1.73-23.15c.33-4.39,3.68-9.7,13.16-8.99h0Z"/>
      <path class="cls-3" d="m95.75,59.74c8.47-1.66,10.57-7.32,9.81-11.21l-6.49-33.02-7.02,1.38,6.26,31.89c.6,3.05-1.11,4.35-4.12,4.95-2.85.57-4.95-.14-5.46-2.73l-6.34-32.23-7.04,1.27,6.36,32.33c.85,4.32,4.6,9.23,14.03,7.38h0Z"/>
      <path class="cls-3" d="m43.08,28.29l6.91-1.86,4.59,17.03,8.98-2.42-4.59-17.03,6.91-1.86,11.09,41.11-6.91,1.86-4.73-17.53-8.98,2.42,4.73,17.53-6.91,1.86-11.09-41.11Z"/>
      <path class="cls-3" d="m114.57,56.08l19.68-2.16-.69-6.31-12.57,1.38-3.93-35.82-7.11.78,4.62,42.12Z"/>
      <path class="cls-3" d="m140.8,53.35l19.78-.78-.25-6.34-12.63.5-1.42-36-7.15.28,1.68,42.34Z"/>
      <path class="cls-3" d="m277.46,49.67l-4.95,17.59-6.89-1.94,4.91-17.45-2.9-26.11,6.89,1.94,1.43,18.01,10.52-14.64,6.88,1.94-15.9,20.67Z"/>
      <path class="cls-2" d="m74.98,168.52c-1.2-.95-2.34-1.91-2.84-3.05-1.35-3.14-1.28-10.88.5-18.52.3-1.3.34-2.6.75-3.87.63-1.99,1.23-3.91,2.19-5.69,1.22-2.28,2.88-4.32,4.46-5.91,4.81-4.88,11.36-13.28,18.21-19.07,5.18-4.38,10.69-7.91,16.4-11.26,2.89-1.7,5.82-3.1,8.79-4.61,2.2-1.12,4.25-2.3,6.32-3.3,2-.97,4.01-1.76,6.17-2.55,6.21-2.25,12.95-3.54,18.7-3.18,5.61-1.45,15.88-.31,22.88.03,7.47.37,14.28.51,25.01,3.39,9.36,1.79,19.35,6.17,24.78,8.74,1.5.71,2.44,1.67,3.75,2.55,1.03.69,2.2,1.12,3.45,1.57.88.32,2.23-.29,3.1.07,6.93,2.86,13.82,6.08,21.49,10.23,5-2.16,12.03-4.36,18.26-5.99,5-1.3,9.06-2.05,12.32.68,2.75,2.29,4.46,4.45,5.11,8.16,1.52,8.79-1,20.98-.94,26.19,2.3,3.59,6.84,10.53,9.52,17.34,1.38,3.5.99,5.76.66,9.52-.66,7.46-2.69,11.22-5.72,14.06-.29,2.55-.96,5.61-1.73,7.2-.86,1.8-2.56,4.06-4.25,5.8-.42,1.76-1.2,5.16-3.04,7.33-2.85.62-5.45,1.42-7.84,1.99-1.25,7.4-2.69,16.49-5.14,25.27-.4,1.44-.84,2.88-1.29,4.29-.57,1.75-.54,3.49-1.17,5.19-1.23,3.35-.82,6.75-2.11,9.48-1.28,2.74-4.12,6.09-5.44,7.79-.96,1.45-1.29,3.07-2.09,4.81-1.64,3.55-3.59,7.57-5.26,11.51-1.81,4.28-4.09,8.49-6.32,11.87-1.17,1.78-2.35,3-3.97,4.32-1.83,1.49-4.16,3.3-6.57,5.96-3.14,3.46-4.82,8.32-6.22,9.26-1.71-.18-2.83.22-4.02,1.05-.95-1.12-1.64-1.93-2.37-3.23-1.91,5.41-4.29,7.29-5.93,8.07-1.75.83-5.64-.98-7.95-4.29-4.22-2.15-9.54-4.22-13.47-5.34-9.38-7.28-21.79-14.69-32.68-17.25-10.49,7.25-20.98,13.21-31.48,20.46-3.03,1.07-6.19,1.26-9.37,1.34-10.37.27-20.87-3.69-27.46-7.61-3.03-1.81-5.93-5.11-7.46-8.97-2.54-6.45-2.21-14.51.84-19.95-2.34-5.32-.26-9.51,2.92-10.7,1.25-.47,2.66-.39,4.04.12,2.82-4.55,3.39-9.67,2.36-14.01-1.09-4.62-4.63-8.67-8.22-11.65-2.93-.3-4.35.76-4.88,3.04-.53,2.29,1.13,5.69,2.59,10.09.61,1.84.16,2.23-.45,2.22-3.45-.04-5.98-1.48-7.99-2.78-4.91-3.18-4.27-5.09-5.15-9.41-.19-.98-1.8-1.31-2.42-1.97-.62-.66-.7-1.33-1.42-1.96-1.21-.93-4.78-1.88-5.91-1.04-3.56,3-6.96,9.58-9.3,12.89,1.82-6.44,5.01-11.1,7.48-14.62-.46-.7-1.41-2.41-1.87-3.1-1.26-1.48-8.09,6.84-12.86,13.84,2.13-6.4,7.19-11.47,10.75-15.77.77-.93-1.24-3.35-2.26-2.71-7.16,4.43-13.9,14.05-19.4,21.99,2.37-6.31,11.94-18.08,17.87-23.48,1.85-1.69,1.58-3.65,1.17-5.33-.78-3.21-.88-6.73-2.15-10.41-11.33-2.83-19.57-4.15-31.75-6.25,10.27.18,21.8,1.3,31.19,2.74.23-1.55,1.18-3.82-.55-4.58-8.85-3.92-19.46-6.41-34.34-7.09,13.51-1.55,23.47,1.13,33.42,4.43,2.07.69,2.12-1.08,1.99-3.07-.08-1.16-1.52-3-2.64-2.99-2.52.03-7.67.6-13.33.89,4.64-.97,6.99-1.85,10.06-2.44.91-.18.95-.73-.31-1.02-10.25-2.33-24.12-1.6-33.58-1.85,13.74-1.61,20.86-1.2,30.3-.82.48.02,3.38.2.46-1.39-6.8-3.7-17.73-7.01-26.59-10.51,14.45,3.14,25.94,8.48,38.93,11.41,2.08.46,1.97-1.6,1.18-2.36-4.81-4.55-9.56-6.76-16.13-10.99,6.82.6,12.72,4.56,17.45,9.81,3.24-2.67,9.37-6.06,9.82-11.03h0Z"/>
      <path class="cls-5" d="m108.56,172.31c-1.7,1.9-5.5,3.67-9.36,4.97h-2.18c-1.76,1.16-3.57,2.01-5.16,2.51l-.44-.23c.14-.5.17-.99.09-1.49l1.39-2.18,2.03.09c-.02-1.97-.17-3.25,1.18-3.63.31-.09.5-.04,1.02-.05l.48-.68,1.33-.16-1.55,1.84c-.15.83-.26,1.66.17,2.47,1.69-.59,2.99-2.06,4.6-2.64,2.08-.75,4.08-.92,6.39-.82h0Zm-35.55-27.48c.09-.59.2-1.17.38-1.75.63-1.99,1.23-3.91,2.19-5.69,1.22-2.28,2.88-4.32,4.46-5.91,4.81-4.88,11.36-13.28,18.21-19.07,5.18-4.38,10.69-7.91,16.4-11.26,2.89-1.7,5.82-3.1,8.79-4.61,2.2-1.12,4.25-2.3,6.32-3.3,2-.97,4.01-1.76,6.17-2.55,4.56-1.65,9.41-2.79,13.94-3.13-3.64,1.05-7.3,2.24-7.79,4.57-1.33.56-2.56,2.38-2.32,2.94,1.67,1.6,8.59,2.28,14.8,1.94l.64.99c-3.68,1.01-8.12,2.13-11.79,2.62-2.62-.97-3.43-3-7.63-2.39-16.85,3.72-27.22,9.09-31.5,12.32-1.57,1.19-3.55,2.85-5.17,4.55-2.09,2.18-3.75,4.43-4.7,5.81-.67.97-1.07,1.71-.38,2.97,1.15,2.1,2.93,4.2,4.07,6.3.36-.32.73-.64,1.09-.97.89.04,1.78.08,2.67.12.89,2.67,1.97,4.21,4.06,4.94l-1.75,4.67c-1.24,3.31-4.66-1.65-6.33-3.84-1.89-2.47-7.35-4.71-10.53-4.07-6.7,1.35-10.18,6.38-14.31,13.82h0Zm170.25,113.16l-5.54,17.69,1.26,7.39,1.28,2.92,3.48,3.99,2.91-13.45v-4.48l-1.94-.36-.36-13.94-1.09.24Zm15.91-19.26c-.77.81-1.19,1.5-1.18,2.43l.05,8c-.71,3.04-2.28,5.39-11.16,5.4.39,4.08.28,7.84.01,11.93,1.49,3.93,2.61,7.15,2.6,10.75,0,1.89-.36,3.79-.89,5.69-.36,1.3-2.1,2.23-1.51,4.02,1.51,0,3.73-1.14,3.91-3.12.42-2.27.27-4.85.58-7.22.22-1.61.92-3.07,1.75-4.13.12-1.61-.56-5.05.23-6.36,1.42-.55,2.73-.13,4.15.61l2.92.12c.47-2.7-.93-5.65-.27-7.62.28-.83.94-1.5,1.81-1.61.94-.12,1.68.09,2.32-.54.99-.97.93-1.7.81-3.63-1.71-1.88-5.33-4.78-5.33-7.84v-2.62l.7-1.03c-.38-1.48-.78-2.54-1.48-3.21h0Zm33.71-85.48l.74,7.02c.08.74.18,1.46.39,2.11.75,2.46,1.99,3.95,3.66,6.4.08,3.94-.26,7.41-.85,12.13l-.74-.82c-.8-2.36-1.81-7.5-3.04-9.48-.93-1.5-1.82-2.18-2.42-3.3-.93-1.75-1.17-3.61-.66-5.02l2.93-9.04Zm-14.05,31.01c1.41,1.45,2.04,2.73,3.24,4.43.72,1.02,1.75,2.05,2.46,3.03,1.45,2.79,2.36,5.04,4.11,7.47.26.36.34,1.91.55,2.31l-3.27.28c-2.71-1.64-4.13-2.64-5.26-4.88-.59-1.18-.7-2.94-1.06-4.19-.7-2.38-1.75-5.14-2.19-7.79-.12-.73.57-1.55,1.44-.65h0Zm-8.07-16.05l2.94,8.12,8.09,5.82,5.32,6.68,2.32,8.72,1.57-2.03-4.6-12.9-10.06-8.11-5.37-6.29-.21-.02Zm16.84-9.28c.07,2.16-.59,4.9-.7,7.52-.09,2.17.26,4.25,1.12,5.85l6.59,12.23.06,1.03-22.79-21.05c3.75.21,7.2.18,9.84-.8,2.49-.92,4.52-3,5.88-4.77h0Zm-189.97,109.34c1.12,2.5,2.77,4.83,4.65,6.48.95.83,2.34,1.54,3.8,2.52,1,.67,2.19,1.59,2.63,2.32-.01,2.82-1.7,4.75-.94,6.7.89,2.27,3.63,4.24,3.59,6.38-.04,1.81-.89,3.83-2.96,5.35l4.42,4.39c2.4,1.54,3.24,2.23,5.67,2.34,1.14.06,1.53.55,3.68-1.36-.46-.62-1.22-1.41-2.01-1.85l-7.06-3.96c.51-1.45,1.2-3.49,2.22-3.92,1.02-.44,3.49,1.59,4.37.91.45-.34.68-.98.68-1.82-3.94-1.57-7.66-4.01-9.31-6.87-1.55-2.69.24-7.26-1.17-9.69l-12.25-7.9Zm5.12,31.98c-.57-.31-1.11-.62-1.63-.93-3.03-1.81-5.93-5.11-7.46-8.97-2.54-6.45-2.21-14.51.84-19.95-2.34-5.32-.26-9.51,2.92-10.7.5-.19,1.03-.29,1.57-.31h.42s0,0,0,0h.05s.06,0,.06,0h.03s0,0,0,0h.04s0,0,0,0h.05s.02,0,.02,0h.03s.01,0,.01,0h.08s0,0,0,0h.03s.02,0,.02,0h.05s0,0,0,0h.04s.04.01.04.01h.04s.04.01.04.01h.03s0,0,0,0h.04s0,0,0,0h.04s.02,0,.02,0h.05s.01.01.01.01h.04s0,0,0,0h.04s0,0,0,0h.04s.01,0,.01,0h.02s.02.01.02.01c.34.07.68.17,1.02.3,2.82-4.55,3.39-9.67,2.36-14.01-1.09-4.62-4.63-8.67-8.22-11.64-2.93-.3-4.35.75-4.88,3.04-.53,2.28,1.12,5.69,2.59,10.09.61,1.84.16,2.22-.45,2.21-3.45-.04-5.98-1.48-7.99-2.78-4.91-3.18-4.27-5.09-5.15-9.41-.2-.97-1.81-1.31-2.42-1.97-.61-.66-.7-1.33-1.42-1.96-1.21-.92-4.78-1.88-5.91-1.04-3.56,3-6.96,9.58-9.3,12.89,1.83-6.44,5.01-11.1,7.48-14.62-.46-.7-1.41-2.41-1.87-3.1-1.26-1.48-8.09,6.84-12.86,13.84,2.13-6.4,7.19-11.46,10.76-15.76.76-.93-1.24-3.35-2.27-2.71-7.16,4.42-13.9,14.05-19.4,21.98,2.37-6.31,11.94-18.08,17.87-23.48,1.85-1.69,1.58-3.65,1.17-5.33-.77-3.22-.88-6.73-2.15-10.41-11.33-2.83-19.57-4.14-31.75-6.25,10.28.18,21.81,1.3,31.19,2.73.23-1.55,1.18-3.82-.55-4.58-8.85-3.91-19.46-6.41-34.34-7.09,13.51-1.55,23.47,1.13,33.42,4.44,2.07.69,2.12-1.08,1.99-3.07-.08-1.16-1.52-3-2.64-2.98-2.52.02-7.67.59-13.33.89,4.65-.97,6.99-1.85,10.06-2.44.91-.18.94-.73-.32-1.02-10.25-2.33-24.12-1.6-33.58-1.85,13.74-1.61,20.86-1.2,30.3-.82.48.02,3.38.2.46-1.39-6.8-3.7-17.73-7.01-26.59-10.51,14.45,3.14,25.94,8.47,38.94,11.41,2.07.47,1.97-1.59,1.17-2.35-4.81-4.56-9.56-6.76-16.13-11,6.82.61,12.72,4.56,17.45,9.81,3.24-2.67,9.37-6.06,9.82-11.03-1.2-.95-2.34-1.9-2.84-3.05-.93-2.16-1.18-6.51-.67-11.51,1.05-4.99,3.04-10.04,5.42-13.41.32-.49.82,0,1.3-.32.99-.66,1.16-1.09,2.47-1.69,1.48-.68,4.15-1.52,5.84-1.65,2.56-.19,11.09,2.12,14.44,5.08.94,1.71,1.57,5.32,1.33,7.47-1.47,3.48-4.11,6.54-8.8,9.47,1.78.12,3.55-.15,5.33-1.97-.38,3.83-1.32,5.65-5.16,9.62,1.38-.27,3.09-.94,4.3-2l1.83-2.74c.19-.65.16-1.59.18-2.42.02-.74,0-1.34.05-1.86.09-.87.5-1.55,1.54-2.35,2.47-1.9,5.3-4.31,7.73-6.25l2.88.47c-1.57,1.54-4.44,3.39-6.02,4.92,2.43-.38,5.76-2.16,8.72-3.89.79-.46,2.23-.89,3.99-.07,1.76.82,3.83,2.94,5.88,3.07,2.69.18,4.52-2.47,10.49-2.64-3.37,3.44-7.91,6.11-12.36,8.34-2.86,1.43-6,1.52-9.12,2.52-3.54,1.13-8.26,3.5-10.41,5.43,1.28-3.08,3.39-4.77,5.41-6.63,1.34-1.24,2.38-2.55,4.04-3.51,1.76-1.02,4.18-1.88,6.51-2.57-2.84.04-5.65.69-8.44,2.29-3.59,2.05-6.7,5.66-10.16,11.53-3.65.27-8.47,1.59-8.66,5.82-2.08,2.22-4.75,3.49-2.09,6.97-.97,1.21-2.09,2.84-3.54,4.05,4.26-.22,7.3-2.93,10.88-5.1,1.41-.85,3.07-1.45,4.67-2.04,7.51-2.81,15.41-4.95,23.77-7.34-.4-.76-.69-1.69-1.51-1.77-5.33-.54-14.12-.41-21.33,2.32-.07-.27-.02-1,.28-1.24,2.01-1.62,7.95-5.18,12.12-5.86,2.1-.34,3.85-.46,5.95-.11,1.93.33,3.73.85,5.23.82,1.77-.04,2.81-.95,3.77-1.74l.09-3.65c2.25-.39,3.27-1,4.46-2.71,2.43-3.5,4.02-9.09,7.25-11.18.79-.51,1.57-.8,2.43-.48.76.28,1.48,1.16,2.41,1.14,2.38-.06,4.63-3.08,7.61-3.05.91,0,1.9.3,2.99,1.05.58.38.28,1.72.34,2.36.05.53.25.55.61.71,1.8.79,6.11,2.74,11.47,5.23,5.01-.89,8.55-4.99,9.26-8.7.2-1.07-3.2-2.59-2.66-4.43.48-1.67,2.13-1.62,4.2-1.96-2.64-4.42-5.77-9.15-6.3-13.15,5.24.7,10.18,1.13,13.15,1.03-.08,4.07-1.68,8.18-1.4,9.41.23.97.81,3.36,1.91,5.31.36-1.61.3-2.98.64-3.51,2.72-4.34,5.04-6.89,8.39-10.82.43-.5,2.7.09,2.91.71.75,2.22,1.24,4.02,1.82,5.78.35,1.81-.99,7.02,1,6.45l5.64-1.62c2.04.07,5.03-.12,7.17-.39.94-.12,1.15-1.04-.4-1.34-2.53-.5-6-.22-9.12-.48l-6.1-16.53c2.35-2.36,4.64-2.8,8.18-1.49,1.28.47,2.96,1.39,4.77,2.23.7.32.91.36,1.71.75.89.42,2.02,1.37,3.05,1.85,1.61-.79,3.7-2.27,5.84-4.75l-2.17-1.78-4.46-.07c-1.46-.18,1.26-6.53-.56-9.68-3.44-5.95-9.64-10.73-15.28-14.69.48.12.98.25,1.48.39,9.36,1.79,19.35,6.16,24.78,8.74,1.5.71,2.44,1.67,3.76,2.55,1.02.68,2.19,1.12,3.45,1.57.88.32,2.23-.3,3.1.07,6.41,2.64,12.78,5.6,19.77,9.32-6.6-1.36-12.97-2.32-18.69-2.63,7.34,3.48,15.3,4.58,20.54,3.7l4.2-1.86c4.32-1.57,9.34-3.08,13.93-4.28,5-1.31,9.07-2.05,12.32.68,2.74,2.29,4.47,4.45,5.11,8.16,1.52,8.79-1,20.98-.94,26.19,2.29,3.59,6.84,10.53,9.51,17.34.91,2.31,1.05,4.09.95,6.11-.57-1.82-1.27-3.66-2.09-5.51.18-.23.38-.5.62-.81-.27.16-.52.33-.76.5-1.22-2.73-2.7-5.49-4.43-8.29.38,1.68,1.84,5.77,3.02,9.52-.53.57-.91,1.16-1.16,1.79-.16.4-.31.87-.45,1.37l-.03-.2c-1.11-5.74-4.89-13.31-6.46-16.96-3.89,5.74-8.08,10.55-13.13,12.55-1.13.45-2.74.9-4,.9-.86,0-1.37-.39-2.21-.51-.81-.11-1.39.25-2.23-.15-.77-.37-1.01-2.35-.06-2.83l-6.27-5.24-7-11.7-6.52.02-5.09-3.52-2.87.29-4.73-3.63-5.27-.24-2.39,2.34c-3.35-.08-5.2.06-5.97.62l3.26.71c.99.21-2.58,5.26-2.69,7.38l-.39,7.29.75,2.36-5.07-4.89-6.12-2.35c-1.35-.79-2.45-1.52-4.5-2-1.48-.35-4.8-.18-7.41.09,5.7,2.96,9.46,3.73,14.21,6.21,3.04,1.59,6.2,4.38,9.21,5.97l-.48,3.59,3.75,2.16c1.83,2.3,2.54,3.56,4.41,5.86,2.05,2.52,5.28,6.07,7.39,8.59-.33,2.78-.17,6.4-.98,8.33-3.03-2.44-10.39-8.16-14.15-7.02-1.43.43-1.78,1.86-1.54,3.57.15,1.02.65,2.15.89,3.23.28,1.26-.62,1.52-.55,2.83.07,1.31.87,2.59.74,3.71-.1.89-.8,1.69-1.32,2.34-1.01,1.25-2.05,1.8-3.1,1.35-1.16-.5-3.16-2.58-4.55-4.26-1.39-1.68-2.17-2.95-3.01-1.82-.54.73-.84,1.23-.98,1.65-.41,1.29.93,2.62,1.91,3.23.74.46,1.59.88,2.25,1.59,1.97,2.09,3.94,5,6.23,5.88,1.26.49,3.51-1.19,4.78-2.76l1.8-17.59,13.07,8.65c-3.78,8.29-9.48,14.56-18,18.37-.87.39-.45,1.09.41,1.5l9.59,4.6-.64.67-13.39,2.67,10.54,2.06c1.33,7.96,4.36,20.03,7.27,27.86l-3.22-25.81c.86-.92,2.6-3.08,3.67-5.09,1.06-2.02,1.57-4.22.97-4.55l-8.89-4.88,2.01-1.24c.25.1.45.29.76.23,3.31-.58,8.11-1.56,10.44-.09l-.06.95,6.48,5.33c.67.42.8.95.15,2.63l-7.36,19.18c4.96-4.33,8.58-8.17,13.41-13.35l-2.39-19.48-18.42,1.82,10.43-8.42c-1.38-5.24-1.18-9.04,1.32-10.72,1.35,2.15,2.37,3.18,4.07,3.38,1.92.23,4.06-.59,5.87-2.04,1.21,3.17,3.15,5.73,3.03,8.18-.12,2.44-3.51,2.95-4.6,5.15l4,18.66c.7-5.25,1.09-13.77,2.43-16.72,1.96,2.3,1.76,8.43,2.65,13.97.38,2.34,1.25,4.66,2.07,6.39-.04-2.95-.32-5.17-.48-7.75.06-.83,1.46-1.78,1.52-2.61.06-.83-1.57-2.02-1.52-2.85.16-1.41.2-2.46.36-3.88,1.36-.04,2.38,1.64,3.27,4.54,1.38,4.52,3.16,11.73,4,15.21-.77,2.46-3.77,1.26-4,3.75-.24,2.63,1.45,2.83,2.06,4.24l-4.97,19.63c-.92-.69-1.67-1.34-2.28-1.94-.83-.82-1.2-2.22-1.59-2.95-.87-1.59-1.09-2.38-1.02-3.87.08-1.89.64-3.01,1.32-5.02l-.02-10.74-2.41,3.11-.54,4.44-2.85-3.47-.49-1.64-1.18.16c-.75,6.19-2.48,10.26-2.26,18.14l-1.1,3.65-3.27-8.35-.12,4.65c-2.79,2.44-4.89,2.83-8.53,4.3-1.33,3.59-.66,6.55-2.2,11.17-1.35,4.07-4.42,7.38-4.32,12.82.13,6.81,3.9,8,4.73,12.51.82,4.51-1.12,6.89-2.2,11.2-2.36,1.22-3.28,2.03-3.38,3.9l-.59.03c-2.29-2.53-3.17-10.24-4.56-14.94l-.49-18.07-4.54-3.28c.71,8.28,1.74,16.98,3.4,25.26-3.07-5.65-7.12-14.34-9.58-21.32l1.89,18.23c3.05,4.88,4.89,6.66,8.42,10.32l-2.49,6.76c-.6,1.64-2.08,2.24-3.11,2.13-1.72-.18-3.3-2.35-5.7-4.96-3.61-3.91-7.71-8.82-9.05-9.95.15-3.56.57-7.11,1.13-10.66-1.5.08-2.41-.53-2.95-1.6-.81-1.61-1.16-4.46-.95-7.38.3-3.99,1.11-7.45.93-10.46-1.55-3.28-3.53-7.6-5.91-10.25l-.9-.03c.72,5.68,1.09,10.55.55,15.91-1.08.91-.91,2.72-.11,4.43l2.64,5.7c-.52,2.96-1.07,7.56-3,8.09-.56.16-1.29-1.33-2.14-2.72l-.17-1.88c-1.28-2.04-2.76-2.93-4.77-3.88l.21,1.86,7.51,11.31h1.17s2.84-7.3,2.84-7.3l.44.46-.79,9.94c1.44,3.28,4.58,6.56,10.21,9.84l-11.54-4-5.98-4.29-3.69-2.39c-.56-.82-.71-3.33-1.1-4.31-.97-2.31-2.7-6.23-4.45-9.17-1.5-2.52-3.94-5.16-6.31-6.92-1.84-1.37-3.66-1.82-4.93-3.69-3.23-4.75-1.03-7.18-2.98-10.1-.91-1.37-3.07-2.51-4.86-3.47-.82-.43-1.23-.83-2-1.19.14.71.32,1.43.38,2.14.15,1.57.16,3.15.84,4.73,1.28,2.96,3.1,3.38,4.28,8.85.41,1.89.01,4.04-.16,6.04-.18,2-.18,3.87-.35,5.22l-.89-.07-.31-6.65c-.75-1.91-5.27-3.09-6.01-5-.95-2.45.32-4.85,1.43-7.66-.69-1.78-2.5-2.54-3.27-4.41-.86-2.1.45-4.16-1.85-7.04-.27-.34-.2-2.58.2-4.67l-6.06,11.27-20.36,21.32-17.82-1.76-16.83-11.45.31-7.61c-.88.21-1.68.62-2.42,1.36-.43.44-.8.94-1.1,1.41-.7,1.08-.94,2.54-.84,4.02.17,2.59,2.03,5.45,5.84,9.72l-3.08,4.88c-.41.64-.7,1.18-.24,2.14l2.79,5.83c.34,2.5,1.1,4.56,1.82,7.05.37,1.27.73,2.72,1.01,4.12h0Zm-3.94-16.25l4.12,4.05c.29.53.73,1.84.96,3.48.16,1.12.18,2.18.33,3.49.21,1.9.57,4.07,1.01,5.68,1.19.97,2.47,1.54,3.97,2.03-1.91-2.45-2.96-4.51-3.16-6.59-.12-1.25.4-2.38.28-3.99-.06-.82-.41-1.62-.55-2.42-.36-2.2-.19-4.84-.41-7.05-.13-1.33-.49-2.1-.86-3.66l-5.11,2.32c-.56.81-.83,1.7-.59,2.67h0Zm56.03-23.17c1.98,2.5,3.75,7.54,4.75,12.12,1.25,1.36,3.18,1.77,4.56,2.97,1.4,1.23,1.89,3.23,1.53,5.03-.4,1.96-1.48,4.06-1.04,5.19-1.74.73-2.78,1.06-4.27,2.39.24-1.21.48-2.42.73-3.63l-4.89,6.82-3.44,3.8c2.32-5.73,5.3-12.25,5.98-15.49.7-3.34-2.85-3.22-2.95-4.59.27,4.85-.69,6.71-4.03,8.02.28,6.58.46,14.23-4.87,17.95l-9.31,3.84c1.86-1.33,3.8-2.87,5.57-4.21,2.23-1.68,4.69-4.63,5.21-7.28.64-3.25-1.16-5.06-1.07-7.44.09-2.37,1.98-4.15,2.18-6.1.25-2.43-1.45-2.56-2-3.79-.43-.96.29-1.85,1.02-2.56,3.43-3.38,5.34-8.07,6.35-13.04h0Zm19.75,15.2c1.07,1.59,1.59,2.46,1.87,4.28.28,1.83.31,4.52.11,6.59l7.67,3.65c-2.81-6.39-5.95-11.85-9.65-14.52h0Zm-60.43,7.58c3.35.49,6.91,1.29,10.27,1.77,2.26,1.78,4.63,3.87,6.89,5.64,0,.77.21,1.22.21,1.99,3.35-1.79,3.31-3.84,4.6-5.87.87-1.37,3.53-2.07,4.51-3.36.76-1-.05-2.73.71-3.74,1.29-.49,2.69-1.49,3.98-3.07-.37,6.07-2.43,5.76-2.92,8.67-.43,2.58.57,5.76.13,8.33-1.29.73-2.79,1.77-4.09,2.5l1.39,3c-.74,2.74-4.78,5.52-7.46,6.57-2.55.18-4.25.14-6.8-.1,2.33-1.31,4-2.41,4.48-3.46.62-1.34-.99-2.64-3.45-3.9l-4.91-8.43c.33-.98-.2-1.55-1.11-1.93-1.14-.46-3.05-.35-4.36-.72-1.81-.5-2.4-2.12-2.06-3.9h0Zm68.44-187.25l14.78,4.68c.65.21,1.61.55,1.87,2.2-.98.75-2.66,1.57-3.8,2.4-.92.67-1.5,1.32-1.1,2.23l2.73,6.42c2.25.42,4.71-.13,6.96-1.65l-2.27-2.14c-.23-.21-.09-.74.67-.59,2.64.52,5.74,1.58,9.32,2.36.23.05,1.31,0,1.55.05-1.55-1.06-2.24-1.59-2.7-2.63-1.11-2.47-1.12-6.62-2.15-8.03-.64-.88-1.25-1.71-2.87-2.66l-6.45.19-.12-2.7-9.6-1.67c-1.26-.21-1.71-.09-2.92.29l-3.89,1.26Zm75.65,53.83c-8-1.8-15.15-3.71-18.45-5.33l-.21,2.84c2.55,1.44,5.33,2.38,8.18,3.16,1.61.44,3.41.89,5.15,1.27,2.24.48,4.39.9,5.95,1.73.61,3.37-.03,8.31-.62,11.56l-.82.07-7.28-6.36c-5.53.21-10.15,1.23-12.13,3.05l.04,1.14c3.68.79,6.96,1.57,11.24,3.52.57,1.4,1.37,2.32,2.28,3.46,1.73,2.19,3.77,3.76,5.49,6.38l-.89,4.19c-1.91-2.96-4.12-6.12-6.34-8.87,1.3,4.04,2.82,6.5,3.59,9.72.4,1.69.5,3.22-.39,4.3-5.63-.61-3.92-9.23-8.66-14.25-1.2-1.28-2.93-2.33-4.9-2.96-3.08-2.34-5.91-5.65-9.1-9.93.64-2.89-2.42-4.88-1.78-9.11.65-4.28,4.99-8.63,6.42-12.25h1.45c5.69,2.52,17.03,4.66,20.59,9.16.82,1.03,1.34,2.04,1.18,3.51h0Zm3.4.63l-2.26,32.88-.36.08-.06.67c2.35,3.12,5.94,5.82,10.56,8.3l-1.09,4.42-.35,5.45c2.79,2.68,5.37,7.34,7.51,16.32l-.48-17.78.82.5-.04.44,3.4.88c-1.05-9.66-3.16-14.69-4.81-17.8l-.55.02c-2.1-3.4-4.59-6.4-7.34-9.47-.26-3.59.81-7.18,2.16-10.77-3.58-4.23-4.73-9.42-7.1-14.13h0Zm-98.53-44.25l-24.68,11.59c3.9-.71,7.43-1.07,10.48-.75,2.38.25,4.47.95,6.24,1.96l10.7.06c1.51.21,2.1,1.7,2.48,3.5.36,1.73.07,3.38.35,4.34.21.75,1.05,1.8,2.61.7l-.84-7.45c-.75-1.35-.88-2.81-1.01-4.17,1.16,1.52,2.11,3.03,4.92,4.55,2,.55,4.48.93,6-1.18l-6.66-4.54c-1.62-1.24-5.04-2.79-6.62-3.41-1.34-.52-2.97-.03-3.77-.91-.84-.92-.68-2.18-.19-4.29h0Zm-50.09,27.8c-.83,2.69-2.42,4.79-4.2,6.27-.59.49-1.08.84-1.84,1.02-.97.23-1.56-.3-1.16-1.81.44-1.65,1.16-3.05,2.18-4.44,1.58,1.05,3.28.21,5.03-1.04h0Zm31.03-2.76c-2.77,2.43-4.92,4.91-6.55,7.5-.52.82-1.59,1.2-2.6,1.04-1.3-.2-2.84-1.04-3.73-.57-1.58.84-1.5,2.2-2.84,3.44-2.23,2.07-6.75,4.88-8.45,5.29-.15.04-.31-.15-.26-.3,1.51-5.14,4.8-8.48,6.17-9.94.83-.89,1.88-1.64,3.05-2.09,1.82-.7,3.94-.8,5.96-.68.4.02,1.5-.63,1.89-.92,1.59-1.16,4.23-3.36,7.36-2.77h0Zm-38.29,15.87l5.75-5.51.67-1.45c1.45-.7,2.48-1.63,2.64-1.88.41-.67.29-1.69.51-3.09l.97-2.24,5.45-.36c2.22-1.01,3.91-2.14,7.1-3.03.85,2.29-.2,3.63-2.07,4.3-2.02.73-6.63,1.86-7.76,2.75-1.03.81-.32,3.67-.71,5.37-.43,1.87-3.09,3.55-4.98,3.99l-7.39,1.76c-.51.12-.56-.24-.18-.61h0Zm-.79-25.26c.14,2.39.07,4.18.29,5.52.43,2.59,1.76,4.74,2.86,5.32l3.12-5.63c1.07,1.21,2.29,3.41,2.88,6.24l.67-1.33.36-6.76c.04-.81.42-1.62,1.21-2.14l.12-3.64c-4.82,0-8.14.52-11.51,2.43h0Zm34.96-20.18l-.78.67c-1.86.52-4.37,1.01-6.52,1.47-2.15.46-4.36,1.26-6.46,1.69-1.52.31-3.2.35-4.46.77-1.62.7-2.87,1.49-4.39,3.07-1.01,1.05-1.62,2.34-1.55,3.97l.12,3.03-5.03-.12-.79-1.57h-1.4l-.52,1.23-2.49,1.7-2.62.34-1.76,3.7,1.39,1.15,1.45,4.48-5.27.79-1.64-4.48c-.63-1.73-.27-3.35,1.05-4.82,1.02-1.15,2.75-2.21,4.1-3.17l1.21-3.09,5.39-1.88c1.39-1.21,2.93-2.93,4.91-3.88,1.57-.75,4.59-1.45,7.07-2.27,4.28-1.43,8.91-3.23,10.8-3.12l8.18.36Zm23.19-4.83c1.38,1.48,1.66,3.2,1.94,4.43-2.06,2.3-4.14,3.03-7.25,3.19l-2.79,2.12-5.32.78c-3.59,1.86-9.04,5.14-13.91,7.12-.85.35-1.8.32-2.65-.04-2.1,4.64-4.27,5.79-10.28,6.56-1.16-2.95-1.33-5.79-1.52-8.74,2.6-2.55,5.74-1.14,9.05-1.89,2.12-.48,3.7-1.12,5.91-2.29.3-.64,2-2.74,3.15-3.26,4.1-1.86,8.81-2.02,12.91-3.89.97-.69,1.73-1.37,2.59-2.06,3.04,1.16,5.79-.57,8.17-2.05h0Zm2.41,33.12c-2.76-4.81-10.57-8.12-18.02-9.7l-13.12,2.97-1.1-4c-5.27,2.38-10.08,3.31-14.69,6.8-1.05.8-1.62,3.14.02,4.3,3.95-.93,7.97-3.68,11.07-6.42l.81.16,4.16,7.28c2.71-1.98,6.22-3.64,10.54-4.97,4.89-.04,11.32,1.67,20.32,3.57h0Zm4.15,3.58c-9.34-1.46-12.31-1.66-17.12-1-2.81.38-7.15,1.45-7.59,4.34-.15.97,1.12,1.93,2.21,3.27,4.45-2.35,10.7-4.21,14.82-2.8,3,1.04,5.23,7.18,6.33,9.55.45.95,2.36.72,3.9-.08,1.54-.8,2.72-2.16,2.55-2.62-1.7-4.53-2.99-7.43-5.09-10.66h0Zm-13.29-46.77c5.81-.87,14.78.08,21.08.39,1.62.08,3.21.15,4.82.24,6.14,1.41,12.1,3.58,15.5,3.98l2.61,1.73c-2.5.72-7-.84-10.44-1.36-2.68-.41-5.18-.38-7.17-.12-3.77.5-6.23,1.88-8.88,4.36,3.8,2.1,9.05,3.5,14.19,5.26,1.34,1.37,3,3.38,3.64,4.75l-13.45-1.28-.64.93,15.3,5.61c1.5,2.75,3.2,6.18,2.59,8.45.57.36,2.51,1.81,1.91,3-.5.99-2.07-.07-3.12-.38-.79-.23-1.58-.06-2.33-.41-3.94-1.81-8.79-5.74-12.74-9.94-6.06.84-10.64-2.72-10.63-5.35,0-2.69.02-4.7-.32-6.24-.87-3.92-2.92-4.77-4.92-6.13-1.41-.96-3.11-1.41-4.75-1.31-2.41.14-4.39,1.41-6.79,1.7-2.94.35-6.74-.49-8.83-1.94l4.33-3.28c3.44-.39,6.19-1.43,9.04-2.66h0Zm-63.23,73.1c-1.23,1.62-1.56,1.93-2.24,3.59-1.29,3.16-.98,7.4-3.33,10.31.79-2.42,1.16-7.71,2.24-10.38.52-1.28,1.58-2.43,3.33-3.52h0Zm207.77,2.73c.64,2.11,1.14,4.03,1.26,5.24-.8,3.51-2.33,7.99-3.01,10.17.34-4.68.52-7.38.27-10.15.3-1.54.55-3.07,1.1-4.4.14-.33.26-.6.38-.85h0Zm-82.86-62.93l13.89,22.06,7.65,5.81-.14-1.48c-.12-1.3,1.29-1.62,2.28-1.51,1.55.17,3.2,1.67,5.8,1.8.67.03,2.78-.52,3.64-1.03l7.54-4.46c-5.64,1.78-10.85,1.92-15.61-.41-4.76-2.34-9.07-6.84-12.94-13.3l-3.68-1.81-1.5-2.94-6.93-2.73Zm-20.28,49.51l6.87,3.82.92.3c6.54,7.19,13.3,15.21,19.84,22.41-4.52-.08-9.78-.16-14.31-.24-.4,6.74-.12,9.49-1.62,11.87-1.78.49-5.45.97-6.13,1.94.04,1.53,4.27,1.37,5.52,3.51,1.17,6.85,5.88,14.68,11.58,20.55-.68,1.62-3.47,1.66-5.19,1.93-1.79.29-1.41.88-.74,2.03l5.66,8.62,2.39,9.88.65.85.66,16.71c-1.1-3.08-1.84-7.37-2.94-10.45-2.17-6.06-4.08-12.35-6.35-18.09-.75-1.91-1.87-3.21-2.62-5.15-1.08-2.8-2.15-5.63-3.2-8.56l-2.15-1.49-2.2-.27.29,2.2c.21.55.62.68.83,1.24,3.11,8.25,6.83,17.89,9.21,26.02-6.47-10.45-8.31-11.03-11.17-15.54-1.25-1.97-.2-3.91-.87-6.36-1.53-1.29-2.05-2.38.17-3.67-.08-.48-.23-.55-.32-1.03-8.84-7.33-17.69-13.64-23.51-16.21l-1.91-3.12h-.81c-4.93,4.29-8.28,4.37-15.15,1.21-.37,4.43,3.55,5.37,8.4,7.2.83.31,2.06.82,1.89,1.89-.11.68-.58,1.5-.71,2.55-.21,1.67.47,3.91,1.6,4.49,14.92,7.72,19.64,10.15,27.1,16.84.57,1.18,1.36,2.62,1.06,3.58,1.95,4.29,4.19,7.58,6.45,12.9l-.68.44c-.36.23-5.88-5.28-8.7-7.4-2.3,3.72-1.64,6.87-1.89,10.35-.5,2.41-4.65-3.79-5.89-1.74-.59.97-.96,3.44-.43,6.25.83,4.39,1.73,8.04,2.36,11.24-1.41,1.13-1.83,3.44-2.52,5.79-1.29-9.45-3.27-15.05-5.99-15.2-1.74-.1-3.14.07-4.91.63-.1,3.96-.09,7.5.23,11.46l-1.01-.42c-2.85-5.01-5.41-11.5-7.27-17.47-.55-6.28-1-11.69-2.08-16.03-1.15-4.62-2.77-7.59-5.56-9.62,1.62.32,5.28-.02,6.9,3.38.82,1.73,1.29,4.76,1.98,7.96.95,4.39,1.93,9.11,2.39,11.26,1.97,2.15,4.69,4.75,7.25,4.49,1.3-.13,3.04-.8,4.12-2.5,1.38-2.18,1.55-4.97,2.98-6.11,1.38-1.1,3.41-.17,5.28,1.36.15-2.84-.3-10.92-.86-14.05-1.47-2.62-3.99-6.51-5.08-7.07-.76-.39-1.76.29-1.88,1.36-.15,1.38.68,3.4.32,4.61-.44,1.47-2.4.19-3.02,1.23-1.32,2.26-2.88,4.51-3.87,6.52-1.6-.91-1.65-2.8-1.33-5.02.47-3.26,1.75-7.26,1.66-10.08-.1-2.85-2.13-4.41-4.14-4.1-5.51.86-11.95,1.82-14.13.11-1.05-.82-.03-2.91.66-3.56.88-.84,3.11.39,3.93-.52,1.21-.93,2.48-3.39,2.66-4.85.09-.73-3.23-2.16-6.32-3.82-3.97-2.13-8.25-4.65-11.61-6.6-.08-3.8.89-7.28.81-11.08,4.33-1.07,8.08-2.25,17.65-.46,1.27-.71,1.74-1.28,3.22-1.34,2.18,1.05,3.84,1.58,6.02,2.62,1.81-1.42,4.64-4.25,4.62-6.32-.02-1.61-1-3.02-3.17-4.26.68-1.88,1.89-5.22,1.49-7.42-1.66.77-4.37,1.92-7,1.11-.08-.32-.16-.86-.24-1.18,2.22-1.16,4.3-2.33,6.4-3.91-.02-.59.04-2.46.42-3.36,1.65-2.01,4.47-3.9,5.85-5,.83-.66.97-1.28.32-1.34-3.59-.36-7.47-.31-10.94,0,4.93-2.28,9.75-3.59,14.68-4.16,1.22,6.18,2.05,15.95.83,15.67-2.96-.68-4.71-.63-6.48-.85-1.09,2.99-1,5.35,1.06,8.34-1.58,5.25-2.04,7.91-2.29,13.89l13.92,6.54-12.33-2.52c-.08,5.17,3.26,4.52,7.54,5.32,2.71,2.91,12.29,12.46,12.33,7.68l.07-8.17c0-.87.32-1.62-1.14-2.11-1.3-.44-3.31-.56-5.49-2.13-.89-.64-1.81-1.64-2.69-2.85-.69-.95-.72-2.54-1.98-3.15.57-.32,1.4-.43,2.34-.04.83.33,1.75,1.11,2.66,1.44,1.28.47,3.02.7,3.99.28,2.39-1.04-6.5-12.45-7.59-14.46l3.12-.79,9.93,7.27-4.64-6.92c-.41-1.54,2.01-2.55,13.23,1.37l1.43.02-11.24-9.5c-2.83-4.69-6.62-10.2-9.45-14.89h0Zm-16.24,40.4c-7.12-5.17-20.99-4.32-24.59-3.14-2.41.78-.65,2.24.12,2.66,3.36,1.87,7.35,3.38,11.24,3.56.67.03,2.39-.62,3.67-1.29,1.29-.66,2.15-1.35,3.22-1.38,2.82-.08,3.54,1.23,4.98,1.09.61-.06,2.93-.38,1.36-1.51h0Z"/>
      <path class="cls-3" d="m85.01,214.26c1.09,0,2.39,1.03,2.39,2.41,0,1.69-.88,2.51-2.18,2.51-1.19,0-2.18-1.45-2.18-2.72s1.09-2.2,1.97-2.2h0Zm76.83-58.47c-4.8,2.6-7.68,3.04-10.67,3-4.67-.07-8.11-2.95-7.54-7.66-.48-.71-1.09-.97-2.04-1.09-1.31,1.93-3.83,8.11,2.18,11.46,1.32.74,3.15.93,5.4,1.37l-5.42,1.54c-6.11-.94-8.38-1.29-14.23,2.58,1.91-.34,4.67-1.17,6.86-1.13,4.26.09,8.5.98,12.56,1.2,3.37.18,6.6-.17,9.66-.86,3.88-.88,8.95-2.79,11.6-8.16-1.37-2.05-3.18-2.3-5.29-1.22-1.49.76-2.92,2.03-4.19,3.09-1.3,1.08-2.7,2.19-4.82,2.74-1.76.45-2.55-.38-2.54-1.21,2.83-1.13,6.02-2.3,8.48-5.63h0Zm-6.47-11.76c-1.08,1.1-2.31,2.05-4.2,2.67-.06,1.47-.62,2.8-.08,3.72.53.89,3.02,3.17,3.64,3.4,1.16.42,3.46-2.84,2.28-6,.79-.34,2.56-.05,4.31-.07-1.38-1.5-3.44-3.39-5.96-3.72h0Zm-58.25-.56c.42,1.26.36,1.54.17,2.53-.24,1.29-1.27,3.25-2.77,4.91-.61.68-1.87,1.23-2.84,2.03.13,4.72-2.37,4.79-5.19,5.02l-.11,2.08c-.76.34-1.44.83-2.07,1.55-1.3,1.47-2.02,2.48-3.74,5.01l-.28-1.16c.68-.97,1.2-1.64,1.7-2.63.4-.77.66-1.64.68-3.09-1.6-.06-3.39-1.12-4.73-2.88-1.52-1.98-2.81-4.84-2.8-8.1,0-2.21.98-4.71,2.11-6.99.25-.66.23-1.15.43-1.53.19-.38.6-.65.88-.88,1.02-.8,2.14-1.38,3.48-1.66-.95.95-2.25,1.93-2.72,3.13,2.16.75,5.59-1.27,8.69-1.32,1.18-.02,3.82,2.38,4.59,4.5-.85,1.45-3.2,2.9-3.28,2.54-.13-.62-.02-1.02-.24-1.58-.66-1.68-1.91-2.91-3.46-2.73-3.57.43-4.49,5.16-3.09,7.67,1.35,2.41,5.53,3.27,7.69,2.59,1.34-.42,1.09-1.62,2.3-2.65.63-.54,1.31-1.03,1.94-1.4.75-.82,2.19-3.05,2.65-4.98h0Zm-17.68,2.8c-.59,2.62-.58,7.18.93,8.21,1.1.75,6.03.73,8.51.23-3.29-.05-5.82-.68-7.38-2.11-1.56-1.43-2.12-3.48-2.06-6.33h0Zm85.79,79.85c.93,5.09.24,11.47-2.06,19.14-4.54,5.54-8.42,15.12-14.19,23.39-4.63,6.64-11.05,13.16-17.19,14.59-5.97,1.4-12.78-.79-19.3-3.85-3.93-1.85-7.79-3.99-10.8-6.35-1.88-1.47-4.08-3.38-5.04-5.73-.67-1.64-.75-3.78.15-5.34.84-1.45,2.49-2.58,4.75-2.2-1.43,1.45-1.88,2.33-1.82,3.58.12,2.62,3,5.28,6.87,7.53,3.81,2.21,8.55,4.16,13.28,5.39,4.45,1.16,8.93,1.91,11.9,1.15-3.77-4.84-5.19-8.07-3.15-11.29,2.46,1.76,4.03,3.11,5.46,3.8,3.65,1.76,4.58.3,4.6-.77l.05-3.78c10.57-.88,11.7-5.17,11.24-9.94l2.54-1.63c1.9-2.75,5.03-8.31,6.32-11.29.73-1.7,1.04-3.4.61-5.1,2.5-2.99,2.81-7.1,5.8-11.31h0Zm-57.51,8.36c5.95,1.81,12.13,3.3,16.63,3.5-2.81,4.16-3.57,8.88-3.15,12.58.03.24-.01.87-.94.33-4.03-2.35-5.77-8.18-6.68-12.93-.17-.88-2.8-.89-4.23-1.4-.99-.35-1.55-.9-1.62-2.08h0Zm-25.77,1.32c-.78,1.56-.55,3.2.93,5.06,1.57,1.98,4.57,4.15,6.76,4.84.15.05.44.04.38-.1-.87-2.13-2.01-4.75-2.22-7.39-.24-2.89-4.17-2.61-5.85-2.41h0Zm-.09-35.37c4.02,1.66,8.17,2.26,12.51,1.34,4.78-6.45,6.69-12.63,11.51-16.21,5.81-4.32,13.87-6.42,21.77-6.03l-2.98,6.74-1.31.13c-1.47.84-2.21-.12-4.04-1.52-1.79-.21-3.57.1-5.35.62-7.67,4.95-14.93,12.73-18.39,18.61.51,4.66.1,8.45-1.36,11.66-1.56,3.41-4.37,6.14-8.84,8.18l.09,2.48c15.36,3.38,32.7,8.13,43.43,7.96,3.01-.05,6.1-.61,7.99-1.86,1.89-1.25,2.58-3.18,2.04-5.12l-5.18.21-.24-2.09c3.93-1.96,7.07-3.66,9.76-5.73,1.61-1.24,2.43-2.82,4.42-4.24v-1.82c-5.02-1.4-3.11-4.91-4.62-7.53,2.46.05,6.4,3.18,7.29,5.82.73-1.13,1.19-3.38,1.88-4.9.69-1.53,2.27-2.68,3.53-2.2l6.09,2.36,1.55-.24-4.96-4.06c-1.94-.53-4.1-.14-5.5-1.57-.74-.77-.97-2.93.84-2.47,1.47.37,2.39,1.74,4.49,2.87l3.32.1c-5.11-5.3-6.83-13.74-8.8-17.34-2.89-3.78-6.15-6.34-9.14-7.75h-6.18c-2.09,3.8-5.5,6.86-9.64,8.07l2.12-6.27c.24-.7-.21-1.18-.95-1.21-9.81-.49-17.81,1.65-23.32,5.07-6.88,4.26-10.69,10.68-14.45,17.48l-9.37.48Zm68.33-15.04c.99.01-1.17-1.92-3.39-2.83-2.39.04-4.15.07-6.37.1-1.42.02-1.66.27-2.71,1.24-1.93,1.77-3.9,3.56-6.65,4.95-.13.07.08.39.22.43,3.13.79,6.25-2.35,9.32-4.16,3.47-.06,6.65.25,9.58.28h0Zm-21.75,3.95c-.54-.25-1.07-.18-1.72-.03-1.47.34-2.95.98-4.38,1.66-1.96.93-3.85,2.03-5.54,3.39v2.25c-1.55,1.69-2.71,3.3-3.61,4.83,1.05,1.68,1.93,2.18,3.06,1.71.99-.41,2.01-1.63,3.06-3.68.83-1.62,2.67-1.45,4.57-2.29l4.12-4.93c.5-1.15.46-1.88.43-2.91h0Zm-16.99,13.88c-2.32,1.35-2.09,4.02-1.08,4.42.81.32,1.88-.34,2.24-1.12.87-1.87-.24-3.84-1.16-3.3h0Zm-3.33,4.16c-.95.53-1.48,1.07-1.7,1.89-.17.64-.16,1.54-.01,2.22.21.95,2.37-.42,2.74-1.32.36-.88-.2-3.25-1.02-2.78h0Zm-1.55,9.51c.64-1.21,4.02-.36,3.23,1.41-.22.5-1.48.85-2.37.55-1.08-.36-1.21-1.31-.85-1.96h0Zm23.49-9.18c.34-.65,1.45-2.06,2.85-2.34,1.09-.22,2.02.09,1.97,1-.1,1.82-1.9,3.09-2.83,3.21-1.8.25-2.34-1.22-1.99-1.87h0Zm8.88-3.91c-.2-.64.36-1.33,1.07-1.73.7-.41,1.55-.54,1.92.34.21.5-.24,1.26-1.04,1.73-.99.58-1.72.37-1.94-.34h0Zm-3.01,12.89c-.2-.64.35-2.52,1.41-3.36.64-.5,3-.69,3.37.19.21.5.6,2.55-.58,3.2-.99.56-3.98.67-4.2-.03h0Zm-9.8,3.8c.16-1.25,1.11-2.62,1.82-3.02,1.61-.89,4.05-.43,4.3.15.21.5-1.05,2.53-1.86,3-.98.57-4.36.6-4.27-.12h0Zm.14,9.57c-.13-.66.35-1.8,1.38-2.15.77-.26,1.65-.54,2.02.34.21.5.24,1.66-.61,2.06-.35.16-1.01.18-1.61.16-.59-.01-1.12-.05-1.19-.41h0Zm-16.86-7.59c.48-.85,2.2-1.07,3.34-.43.78.43,1.36,1.32,1.25,2.09-.16,1.11-2.17,1.54-3.35,1.15-1.46-.47-1.77-1.86-1.23-2.8h0Zm9.04-1.24c.87-.26,2.17-.14,3.03-.03.78.11,1.29.96.76,1.74-.78,1.14-2.48,2.27-3.75,1.86-1.87-.61-1.71-3.07-.04-3.57h0Zm-5.45-4.2c-.35-.81.78-2.6,2.48-3.27,1.21-.48,2.09-.13,2.48.59.41.77.25,1.95-.71,2.55-.55.35-1.82.84-2.7.91-.87.07-1.34-.28-1.55-.78h0Zm8.25-4.04c-.33-.82-.57-2.38,1.14-3.05,1.2-.47,4.1-.49,4.32.29.71,2.54-.72,3.69-2.2,3.93-.93.15-2.78.05-3.26-1.17h0Zm156.76-83.28c-1.64,1.31-3.34,2.61-5.05,3.9-1.89,1.42-3.79,2.71-5.68,4.09-1.89,1.38-3.76,2.73-5.56,4.25.15,3.88,1.36,7.23,2.55,11.11l5.16,5.57c1.29.52,2.59,1.05,3.88,1.57,3.51-.37,6.71-2.48,9.42-5.48,1.63-1.8,3.08-3.86,4.32-6.25,3.19-6.14,4.12-15.04,4.23-21.9.11-6.61-1.29-12.12-4.54-14.9-2.34-2-4.8-2.17-7.68-1.24-3.85,1.23-8.56,4.59-12.9,8.58-4.41,4.05-8.43,8.96-10.79,11.99-.97,1.94-1.35,3.69-.47,4.98.51.52,2.15.54,4.81-.35,2.71-1.34,5.46-5.75,8.53-6.96,4.28-.55,8.07-.7,9.77,1.02h0Zm-201,67.94c-3.86-2.61-4.87-3.47-5.22-5.16-.8-3.86,4.09-7.93,3.98-11.54-.05-1.74-2.24-1.23-2.95-.24-1.34,1.88-2.8,3.42-4.25,4.86-1.2,1.2-2.43,2.25-2.83,3.91-.36,1.53-.73,3.77-1.22,5.68-.56,2.16-1.23,4.02-1.19,6.07.05,2.32,2.39,4.21,2.04,6.2-.57,3.27-.52,4.56.28,7.25.31,1.05.73,2.16,1.06,3.15.43,1.27.8,2.6,1.4,3.83.77,1.59,1.77,2.93,2.88,4.56,1.11,1.63,2.34,3.45,4,5.39.87,1.01,3.79.64,5.26-.48,1.14-.87,1.44-2.09,1.11-3.07-1.06-3.25-5.46-8.12-6.89-10.06-.55-.74-.1-1.27.36-1.45,1.12-.45,2.51.69,3.88-.06,1.14-.62,1.17-1.66.73-2.36-.56-.9-1.58-1.33-2.82-.97-.8.23-1.41,1.25-1.98,1.92-.44.52-.87.79-1.35.58-2.49-1.08-4.66-3.93-5.18-7.29-.51-3.35.07-7.69,1.81-10.93,1.04-1.92,4.06-.9,7.09.21h0Z"/>
    </g>
  </g>
</svg>