<?xml version="1.0" encoding="UTF-8"?>
<svg id="Layer_2" data-name="Layer 2" xmlns="http://www.w3.org/2000/svg" xmlns:xlink="http://www.w3.org/1999/xlink" viewBox="0 0 33.56 19.58">
  <defs>
    <style>
      .cls-1 {
        clip-path: url(#clippath);
      }

      .cls-2 {
        fill: none;
      }

      .cls-2, .cls-3, .cls-4, .cls-5, .cls-6 {
        stroke-width: 0px;
      }

      .cls-7 {
        clip-path: url(#clippath-1);
      }

      .cls-8 {
        clip-path: url(#clippath-4);
      }

      .cls-9 {
        clip-path: url(#clippath-3);
      }

      .cls-10 {
        clip-path: url(#clippath-2);
      }

      .cls-11 {
        clip-path: url(#clippath-6);
      }

      .cls-12 {
        clip-path: url(#clippath-5);
      }

      .cls-3 {
        fill: #3b8916;
      }

      .cls-4 {
        fill: #16007e;
      }

      .cls-5 {
        fill: #f0953e;
      }

      .cls-6 {
        fill: #fff;
      }
    </style>
    <clipPath id="clippath">
      <rect class="cls-2" width="33.56" height="19.58"/>
    </clipPath>
    <clipPath id="clippath-1">
      <rect class="cls-2" width="33.56" height="19.58"/>
    </clipPath>
    <clipPath id="clippath-2">
      <rect class="cls-2" width="33.56" height="19.58"/>
    </clipPath>
    <clipPath id="clippath-3">
      <rect class="cls-2" width="33.56" height="19.58"/>
    </clipPath>
    <clipPath id="clippath-4">
      <rect class="cls-2" width="33.56" height="19.58"/>
    </clipPath>
    <clipPath id="clippath-5">
      <rect class="cls-2" width="33.56" height="19.58"/>
    </clipPath>
    <clipPath id="clippath-6">
      <rect class="cls-2" width="33.56" height="19.58"/>
    </clipPath>
  </defs>
  <g id="Layer_1-2" data-name="Layer 1">
    <g id="INDIA">
      <g>
        <g class="cls-1">
          <rect class="cls-6" width="33.56" height="19.58"/>
        </g>
        <g class="cls-7">
          <rect class="cls-5" width="33.56" height="6.53"/>
        </g>
        <g class="cls-10">
          <rect class="cls-3" y="13.05" width="33.56" height="6.52"/>
        </g>
        <g class="cls-9">
          <g>
            <g class="cls-8">
              <path class="cls-4" d="m16.78,6.86c-1.62,0-2.94,1.31-2.94,2.93s1.32,2.94,2.94,2.94,2.94-1.32,2.94-2.94c0-1.62-1.32-2.93-2.94-2.93m0,.29l-.07,1.48.08.84.07-.84-.07-1.48c.08,0,.15,0,.23.01,0,0,0,0,0,0,0,.07.05.13.12.13s.11-.05.12-.11c.07.02.15.03.22.05l-.45,1.41-.15.83.29-.8.31-1.44c.07.02.14.04.21.07,0,.01-.01.03-.01.04,0,.07.05.12.12.12.05,0,.09-.03.11-.07.07.03.13.07.2.11l-.8,1.23-.35.77.49-.69.67-1.31c.06.04.12.07.19.11-.02.02-.03.05-.03.08,0,.07.05.12.12.12.04,0,.07-.02.1-.05.06.05.11.1.16.15l-1.09.99-.54.65.65-.54.99-1.1c.05.05.1.11.15.16-.03.02-.04.06-.04.09,0,.07.05.12.12.12.03,0,.05,0,.07-.02.04.06.08.12.12.19l-1.31.67-.69.49.77-.35,1.24-.81c.04.07.07.14.11.21-.04.02-.07.07-.07.12,0,.07.05.12.12.12.02,0,.03,0,.05-.01.02.07.04.14.06.21l-1.44.3-.79.29.83-.14,1.41-.45c.02.06.03.14.05.21-.06,0-.11.05-.11.12s.06.12.12.12h.01c0,.07,0,.15,0,.22l-1.47-.07-.84.07.84.08,1.47-.08c0,.08,0,.15,0,.22h-.01c-.07,0-.12.06-.12.12s.04.11.1.12c-.01.07-.03.14-.05.21l-.5-.16-.9-.29-.83-.14h0,0l.79.29,1.44.31c-.02.07-.04.14-.07.21,0,0-.01,0-.02,0h-.03c-.07,0-.12.05-.12.12,0,.02,0,.03.01.05h0s.02.04.03.05h0s0,0,.01,0h0s0,0,.01,0h0s0,0,0,0c-.03.07-.07.13-.1.2l-1.24-.8h0l-.77-.35h0l.4.28.28.2h0l1.31.67c-.04.07-.08.13-.12.19-.02-.01-.04-.02-.07-.02-.07,0-.12.05-.12.12,0,.04.02.07.04.09-.05.05-.1.11-.15.16l-.99-1.09-.65-.54.54.65,1.09.99c-.05.05-.1.1-.16.14-.02-.02-.05-.03-.08-.03-.07,0-.12.06-.12.12,0,.02,0,.04.01.05-.06.04-.13.08-.2.12l-.67-1.31-.49-.7h0l.35.77.8,1.24c-.06.04-.13.07-.2.1-.02-.05-.06-.07-.11-.07-.07,0-.12.06-.12.12,0,.02,0,.03,0,.05-.07.02-.14.05-.21.06l-.31-1.45-.29-.79h0s.15.83.15.83l.45,1.41c-.07.02-.14.04-.22.05-.01-.05-.06-.1-.12-.1-.07,0-.12.05-.12.12v.02c-.07,0-.15.01-.22.01l.07-1.47-.08-.84-.08.84.07,1.47c-.08,0-.15,0-.23-.01v-.02c0-.06-.05-.12-.12-.12-.06,0-.11.05-.12.1-.07-.01-.14-.03-.21-.05l.45-1.41.14-.83-.29.79-.31,1.45c-.07-.02-.14-.04-.21-.06,0-.02.01-.03.01-.05,0-.06-.05-.12-.12-.12-.05,0-.09.03-.11.07-.07-.03-.13-.07-.2-.1l.8-1.24.35-.77-.49.69-.67,1.32c-.06-.04-.13-.08-.19-.12.01-.02.02-.04.02-.07,0-.07-.05-.12-.12-.12-.04,0-.07.02-.09.05-.06-.05-.11-.09-.16-.15l1.1-.99.54-.65h0l-.65.54-.99,1.09c-.05-.05-.1-.11-.15-.16.03-.02.05-.06.05-.1,0-.07-.05-.12-.12-.12-.03,0-.05,0-.07.02-.04-.06-.08-.12-.12-.19l1.32-.68.69-.48-.77.35-1.24.8c-.04-.06-.07-.12-.1-.2.05-.02.08-.06.08-.11,0-.07-.05-.12-.12-.12-.02,0-.03,0-.05.01-.02-.07-.05-.14-.07-.21l1.45-.31.79-.29-.84.14-1.41.45c-.02-.07-.03-.14-.05-.22.06,0,.1-.05.1-.12,0-.07-.05-.12-.12-.12h-.01c0-.07-.01-.14-.01-.22l1.47.08.84-.08-.84-.07-1.47.07c0-.07,0-.15.01-.22h.02c.07,0,.12-.05.12-.12,0-.07-.05-.11-.11-.12.02-.07.03-.15.05-.21l1.41.45.84.14-.79-.29-1.45-.31c.02-.07.04-.14.07-.21.01,0,.03,0,.04,0,.07,0,.12-.05.12-.12,0-.05-.03-.09-.07-.11.03-.07.07-.14.1-.2l1.24.81.77.35-.69-.49-1.32-.67c.04-.06.08-.12.12-.19.02.02.05.03.07.03.06,0,.12-.05.12-.12,0-.04-.02-.07-.04-.1.04-.05.09-.11.15-.16l.99,1.1.65.54-.54-.65-1.1-.99c.05-.05.11-.1.16-.15.02.03.05.05.09.05.07,0,.12-.05.12-.12,0-.03-.01-.05-.03-.07.06-.04.12-.08.19-.11l.67,1.31.49.69-.35-.77-.8-1.23c.06-.04.13-.07.19-.11.02.05.06.08.11.08.07,0,.12-.05.12-.12,0-.02,0-.04,0-.05.07-.03.14-.05.21-.07l.31,1.44.29.8-.14-.83-.45-1.41c.07-.02.14-.04.22-.05,0,.06.06.11.12.11.07,0,.12-.05.12-.12h0c.07-.02.14-.02.22-.02"/>
            </g>
            <g class="cls-12">
              <path class="cls-6" d="m16.78,9.35c.24,0,.44.2.44.44s-.2.44-.44.44-.44-.2-.44-.44.2-.44.44-.44"/>
            </g>
            <g class="cls-11">
              <path class="cls-4" d="m16.78,9.45c.19,0,.34.15.34.34s-.15.34-.34.34-.34-.15-.34-.34c0-.19.16-.34.34-.34"/>
            </g>
          </g>
        </g>
      </g>
    </g>
  </g>
</svg>