<?xml version="1.0" encoding="UTF-8"?>
<svg id="Layer_2" data-name="Layer 2" xmlns="http://www.w3.org/2000/svg" viewBox="0 0 19.05 19.45">
  <defs>
    <style>
      .cls-1 {
        fill: #d3b91c;
        stroke-width: 0px;
      }
    </style>
  </defs>
  <g id="Layer_2-2" data-name="Layer 2">
    <g>
      <path class="cls-1" d="m5.04,2.03c-.15,0-.3-.04-.43-.12-.16-.11-.35-.02-.55-.07.41-.31.83-.56,1.26-.78C6.82.3,8.4-.06,10.07,0c2.27.09,4.26.89,6,2.35.1.09.05.23-.11.31-.16.08-.34.1-.47.25-.14.17-.11.31.1.36.11.02.12.11.14.18.04.15.11.2.26.11.06-.04.14-.05.22-.08,0,.07.02.13.03.19.04.29.04.29-.26.24-.29-.05-.55-.01-.69.29-.1.23-.3.29-.52.29-.16,0-.19.1-.19.21,0,.1-.13.25.09.28.14.02.04.12.04.18,0,.09-.04.11-.13.09-.22-.05-.44-.07-.67-.02-.22.05-.25.19-.26.35,0,.09.02.19.04.29.04.21.15.31.37.32.02,0,.04,0,.06,0,.33,0,.68.07.81-.38.03-.11.15-.19.22-.3.1-.16.21-.25.4-.16.06.03.1,0,.15-.05.07-.07.14-.13.23-.21.06.32.36.37.56.54.05.04.12.08.17.12.03.03.1.04.06.11-.02.04-.05.08-.11.08-.08,0-.16,0-.25,0,.04.18.17.22.31.2.14-.02.2-.11.25-.28.09-.29-.1-.33-.25-.4-.23-.1-.33-.27-.36-.51.14,0,.3-.05.4.01.18.1.32.27.48.42.02.02.02.05.02.08-.05.33.19.49.38.68.13-.22.03-.57.39-.64.06.07.04.17.04.25.03.28.21.46.48.44.23-.02.36.04.4.28.02.13.08.26.13.39.04.1.03.16-.1.16-.21,0-.41,0-.62,0-.17,0-.28-.15-.39-.24-.19-.16-.39-.08-.59-.06-.1,0-.06.11-.05.17.01.16-.09.17-.18.11-.25-.18-.56-.19-.84-.27-.14-.04-.19-.1-.19-.25.01-.35,0-.36-.34-.33-.36.03-.73,0-1.06.21-.14.09-.34.04-.51.02-.28-.04-.46.16-.66.28-.09.05-.03.22-.03.33.01.16-.04.25-.17.34-.26.17-.52.37-.77.55-.08.05-.15.11-.1.22.04.09.01.24.19.21.03,0,.09,0,.07.04-.03.1.02.23-.09.28-.11.05-.09.13-.11.21-.08.47.05.84.42,1.15.13.11.22.25.33.37.21.24.3.24.62.15.17-.05.37-.01.55-.02.07,0,.14,0,.21-.05.27-.21.46-.2.73.02.14.11.31.09.47.1.17,0,.22.07.18.23-.11.43-.02.82.25,1.18,0,.01.01.02.02.04.11.2.29.39.31.6.02.21-.18.4-.28.6-.08.18-.06.4.09.53.13.11.2.24.17.41-.05.36.03.68.3.94.13.13.07.3.07.45,0,.28,0,.29.28.29.03.05-.02.07-.04.1-1.54,1.82-3.49,2.95-5.84,3.36-4.69.82-9.3-1.95-10.83-6.51-.76-2.28-.68-4.55.24-6.78,0-.01,0-.03,0-.04,0-.01,0-.02,0-.04,0,.01,0,.02.01.03,0,.06.01.11,0,.17-.04.24.03.41.28.47.11.03.13.1.12.2,0,.05,0,.1,0,.14-.08.42.14.74.34,1.07.09.13.25.13.34.09.08-.04.06-.19,0-.3-.19-.26-.37-.53-.36-.88,0-.05-.07-.14.06-.15.08,0,.15,0,.15.11,0,.46.29.77.52,1.12.06.08.11.16.03.25-.08.1-.03.17,0,.27.18.48.63.47,1.02.57.1.02.15-.14.28-.09.08.03.17.02.13.14-.04.12.03.14.12.15.36.04.66.17.86.49.16.26.39.35.7.34.11,0,.27-.06.32.1.11.31.07.54-.12.65-.24.14-.39.31-.34.61,0,.03,0,.07,0,.1-.14.32.02.56.23.78.13.13.23.29.35.43.03.03.07.07.07.1,0,.25.15.34.38.42.19.06.35.24.53.36.07.05.05.12.05.19,0,.46,0,.91,0,1.37,0,.06-.03.15.05.16.2.04.14.16.11.28,0,.04,0,.09-.02.12-.12.3-.05.55.18.76.12.11.09.25.06.37-.13.62.22,1.04.59,1.45.05.05.11.08.15.14.19.26.47.21.73.22.07,0,.1-.03.11-.09.01-.06.03-.1-.03-.15-.08-.06-.14-.13-.22-.18-.15-.09-.16-.21-.1-.35.02-.05.04-.1.05-.16.03-.14.04-.27-.17-.24-.11.02-.16-.07-.2-.15-.05-.09.05-.12.1-.17.18-.19.18-.23-.05-.33-.05-.02-.08-.04-.07-.1,0-.07.05-.1.11-.1.28,0,.51-.16.75-.27.06-.03.12-.06.15-.13.15-.32.39-.59.61-.86.12-.14.15-.27.1-.45-.06-.19-.12-.38.03-.57.06-.08.12-.11.22-.11.17,0,.35.06.52-.06.19-.14.32-.28.31-.54,0-.16.05-.33.05-.49,0-.28.12-.5.3-.7.05-.05.1-.12.14-.18.14-.24.1-.35-.15-.43-.11-.03-.19-.09-.22-.19-.08-.23-.24-.3-.48-.27-.39.05-.75-.07-1.1-.22-.09-.04-.12-.08-.13-.18,0-.13,0-.27-.05-.39-.11-.33-.18-.38-.53-.36-.21,0-.34-.05-.44-.25-.09-.18-.19-.37-.42-.43-.03,0-.06-.05-.1,0-.15.2-.55.19-.69,0-.09-.12-.55-.29-.68-.25-.1.04-.16.13-.21.22-.18.29-.42.36-.74.27-.32-.09-.32-.07-.35-.41-.01-.18.03-.41-.07-.52-.1-.1-.33-.08-.52-.12.06-.11.11-.22.16-.32.03-.06.05-.12.04-.19-.02-.14-.07-.16-.18-.07-.14.11-.3.19-.44.3-.11.08-.22.1-.35.09-.35-.04-.49-.24-.41-.59.11-.48.4-.79.87-.95.06-.02.12-.02.18-.02.24,0,.48,0,.72,0,.19-.01.33,0,.28.25-.02.07.02.12.08.15.1.04.2.09.31.14,0-.09.01-.17,0-.24-.07-.32.11-.51.34-.68.11-.08.23-.16.34-.23.13-.08.24-.16.22-.33,0-.05.03-.09.06-.13.29-.29.54-.63.94-.79.24-.1.31-.36.52-.5.07-.05.13-.12.21-.05.15.13.2.01.28-.1-.08-.02-.14-.04-.2-.05-.07-.02-.12-.04-.12-.13,0-.09.05-.15.13-.16.11-.01.22-.03.3.09.09.13.42.14.5,0,.05-.08.11-.09.16-.05.07.05.05.13,0,.2-.16.19-.15.23.09.3.09.03.18.06.28.08.07.02.17.09.2-.03.03-.1.02-.2-.12-.24-.07-.02-.13-.05-.19-.08-.05-.03-.12-.04-.12-.12,0-.07.08-.08.13-.08.21-.03.23-.16.22-.34,0-.06-.02-.11-.08-.13-.3-.1-.33-.33-.31-.59,0-.04,0-.08,0-.13-.16.03-.29.13-.43.19-.08.03-.17.06-.24.02-.06-.04-.01-.13,0-.19.04-.16,0-.26-.18-.27-.1,0-.2-.05-.3-.07-.28-.06-.47.09-.47.38,0,.02,0,.04,0,.06,0,.39,0,.39-.37.51-.11.03-.18.09-.22.19-.03.08-.07.16-.11.24-.04.07-.12.07-.18.06-.09,0-.05-.08-.05-.13-.02-.39-.02-.39-.4-.46-.23-.04-.4-.23-.42-.47,0-.05,0-.08.05-.1.35-.18.65-.43,1.04-.55.14-.04.22-.05.22.12,0,.04,0,.11.07.1.06,0,.16.02.17-.04.03-.17.18-.11.26-.16,0-.07-.07-.06-.09-.11-.02-.07-.05-.14.07-.13.16,0,.28-.06.37-.19.12-.16.3-.1.45-.14.23-.07.4.02.54.21-.22.12-.44.24-.71.39.32.07.59.14.86.2.11.03.11-.07.12-.12.04-.15.12-.19.27-.18.08,0,.17.04.23-.03.05-.06.1-.13.1-.2,0-.1-.11-.07-.16-.08-.12-.03-.11-.11-.1-.19.02-.15-.04-.22-.18-.27-.17-.06-.33-.14-.49-.22-.35-.17-.68-.08-1.01.03-.18.06-.26.18-.21.37.01.06.06.18-.02.18-.11,0-.27.04-.34-.09-.04-.07-.09-.18.01-.26.08-.07.16-.15.28-.25-.27-.03-.49-.05-.72-.02-.11.02-.14.1-.16.19-.02.12.09.07.14.09.07.02.08.05.06.1-.02.06.01.15-.09.16-.08,0-.15.01-.23.02-.04,0-.1,0-.12.03-.14.28-.39.12-.58.14-.15.02-.07-.16-.1-.24-.04-.11.06-.09.11-.08.32.07.49-.14.67-.35-.1-.12-.19-.1-.3,0-.2.21-.51.18-.68-.05-.15-.21-.57-.28-.78-.13-.15.1-.29.21-.48.36.16,0,.28,0,.39,0,.06,0,.12-.03.15.06.03.09,0,.14-.08.18-.03.06-.09.07-.15.05Z"/>
      <path class="cls-1" d="m16.81,3.07c.14.16.26.29.37.43.04.04.12.08.06.15-.07.08-.08.23-.23.24-.17,0-.34,0-.51,0-.06,0-.09-.02-.11-.07-.02-.06.01-.09.06-.11,0,0,.01,0,.02,0q.31-.19.33-.62Z"/>
      <path class="cls-1" d="m5.93,4.87c-.11,0-.22.01-.33-.03-.04-.02-.11,0-.11-.07,0-.04.02-.09.07-.12.18-.1.38-.14.58-.1.08.02.15.12.14.23-.01.13-.11.07-.17.08-.05,0-.11,0-.16,0Z"/>
      <path class="cls-1" d="m6,4.96c-.12.18-.24.33-.34.49-.04.06-.08.07-.14.03-.05-.03-.09-.05-.08-.12.01-.25.22-.42.56-.4Z"/>
      <path class="cls-1" d="m4.26,2.55c-.05,0-.11,0-.16,0-.07,0-.08-.04-.08-.09,0-.04-.03-.12.04-.12.13.01.23-.12.37-.08.06.02.17-.05.17.07,0,.11-.05.2-.17.21-.05,0-.11,0-.16,0Z"/>
      <path class="cls-1" d="m5.2,3.82c.06.05.18-.01.19.12,0,.16-.11.32-.26.3-.15-.01-.18-.18-.18-.27,0-.1.16-.11.25-.15Z"/>
      <path class="cls-1" d="m5.04,2.03s.1-.03.15-.05c.13.09.29.03.43.05.07.01.13,0,.16.09.03.09.04.13-.07.12-.14,0-.29-.01-.43-.01-.06,0-.11-.01-.12-.08,0-.08-.07-.09-.12-.12Z"/>
      <path class="cls-1" d="m6.16,5.66s-.13.06-.13-.06c0-.1.22-.26.36-.26.1,0,.08.06.07.11-.02.18-.14.23-.31.22Z"/>
      <path class="cls-1" d="m4.3,3.01c-.06-.02-.21.08-.23-.06-.01-.1.15-.07.23-.11.06-.02.12-.03.18-.04.05,0,.11-.02.12.07,0,.07,0,.14-.1.14-.06,0-.11,0-.2,0Z"/>
      <path class="cls-1" d="m6.85,5.46c-.08,0-.16.01-.2-.07-.03-.06-.05-.14-.01-.19.04-.06.1,0,.15.01.03,0,.07.02.1.02.1.01.14.07.13.17-.02.12-.11.04-.15.06Z"/>
      <path class="cls-1" d="m6.22,5.13c-.03-.14,0-.21.14-.18.07.01.2-.05.18.11-.02.15-.14.17-.25.19-.14.02-.04-.1-.07-.12Z"/>
      <path class="cls-1" d="m18.61,5.77c-.31.04-.34-.03-.24-.44.12.13.16.29.24.44Z"/>
      <path class="cls-1" d="m6.81,4.92c.05.03.11.03.12.09,0,.05-.04.07-.08.07-.05.01-.09-.03-.1-.07-.01-.05.04-.06.06-.09Z"/>
      <path class="cls-1" d="m6.39,4.66c.06.05.11.1.16.15-.19.11-.18,0-.16-.15Z"/>
    </g>
  </g>
</svg>