<?xml version="1.0" encoding="UTF-8"?>
<svg id="Layer_2" data-name="Layer 2" xmlns="http://www.w3.org/2000/svg" xmlns:xlink="http://www.w3.org/1999/xlink" viewBox="0 0 229.37 327.14">
  <defs>
    <style>
      .cls-1 {
        clip-path: url(#clippath);
      }

      .cls-2, .cls-3, .cls-4, .cls-5, .cls-6, .cls-7, .cls-8, .cls-9 {
        stroke-width: 0px;
      }

      .cls-2, .cls-10, .cls-11 {
        fill: none;
      }

      .cls-12 {
        clip-path: url(#clippath-1);
      }

      .cls-3, .cls-4, .cls-5 {
        fill-rule: evenodd;
      }

      .cls-3, .cls-7 {
        fill: #11245f;
      }

      .cls-4, .cls-9 {
        fill: #feda04;
      }

      .cls-5 {
        fill: #ed1c24;
      }

      .cls-6 {
        fill: #231f20;
      }

      .cls-8 {
        fill: #fff;
      }

      .cls-10 {
        stroke-width: .93px;
      }

      .cls-10, .cls-11 {
        stroke: #11245f;
        stroke-miterlimit: 3.86;
      }

      .cls-11 {
        stroke-width: .47px;
      }
    </style>
    <clipPath id="clippath">
      <path class="cls-2" d="m109.41,99.88s-.44-17.8,1.23-26.74c1.68-8.94,7.16-17.39,7.16-17.39l2.12,1.58s.87,4.11,1.39,5.43c.52,1.32,1.76,7.74,2.9,9.16,1.14,1.43,3.14,4.1,3.73,5.77.59,1.66.9,2.55.9,2.55l1.35,1.86s1.41,2.68,1.95,4.12c.54,1.44-.23,7.33.94,9.46,1.17,2.14,1.47,6.37-.39,9.39-1.86,3.02-5.26,6.13-5.96,6.75-.7.63-2.42,2.66-2.42,2.66l-3.03-4.72-4.14-3.77-7.25-3.83-.49-2.28h0Z"/>
    </clipPath>
    <clipPath id="clippath-1">
      <path class="cls-2" d="m111.19,98.24s3.27-17.5,6.77-25.9c3.5-8.4,10.62-15.52,10.62-15.52l1.75,1.98s0,4.2.23,5.6c.23,1.4.12,7.93.93,9.57.82,1.63,2.22,4.67,2.45,6.42.23,1.75.35,2.68.35,2.68l.93,2.1s.82,2.92,1.05,4.43c.23,1.52-1.75,7.12-1.05,9.45.7,2.33.12,6.53-2.33,9.1-2.45,2.57-6.42,4.9-7.23,5.37-.82.47-2.92,2.1-2.92,2.1l-1.98-5.25-3.27-4.55-6.3-5.25v-2.33h0Z"/>
    </clipPath>
  </defs>
  <g id="Ebene_1" data-name="Ebene 1">
    <g>
      <path class="cls-7" d="m114.81,326.93s-37.33-20.08-70.48-51.81C11.19,243.38.22,223.99.22,223.99V13.05s17.03,3.28,53.45,3.28C101.29,16.33,114.81.21,114.81.21c0,0,13.48,16.12,61.1,16.12,36.42,0,53.45-3.28,53.45-3.28v210.94s-10.97,19.39-44.12,51.13c-33.15,31.73-70.44,51.81-70.44,51.81h0Z"/>
      <path class="cls-9" d="m209.79,43.19v171.24c-1.26,1.7-22.01,28.58-38.44,43.67-15.91,14.6-33.01,26.69-46.29,35.19-3.8,2.43-7.25,4.55-10.25,6.33-3-1.78-6.46-3.9-10.26-6.33-13.29-8.5-30.4-20.58-46.31-35.18-16.43-15.08-37.18-41.96-38.44-43.67V43.19s189.99,0,189.99,0h0Z"/>
      <path class="cls-9" d="m109.41,99.88s-.44-17.8,1.23-26.74c1.68-8.94,7.16-17.39,7.16-17.39l2.12,1.58s.87,4.11,1.39,5.43c.52,1.32,1.76,7.74,2.9,9.16,1.14,1.43,3.14,4.1,3.73,5.77.59,1.66.9,2.55.9,2.55l1.35,1.86s1.41,2.68,1.95,4.12c.54,1.44-.23,7.33.94,9.46,1.17,2.14,1.47,6.37-.39,9.39-1.86,3.02-5.26,6.13-5.96,6.75-.7.63-2.42,2.66-2.42,2.66l-3.03-4.72-4.14-3.77-7.25-3.83-.49-2.28h0Z"/>
      <g class="cls-1">
        <path class="cls-11" d="m116.26,58.59l31.58,22.87m-32.93-20.79l31.58,22.87m-32.93-20.79l31.58,22.87m-32.93-20.79l31.58,22.87m-32.93-20.79l31.58,22.87m-32.93-20.79l31.58,22.87m-32.93-20.79l31.58,22.87m-32.93-20.79l31.58,22.87m-32.93-20.79l31.58,22.87m-32.93-20.79l31.58,22.87m-32.93-20.79l31.58,22.87m-32.93-20.79l31.58,22.87m-32.93-20.79l31.58,22.87m-32.93-20.79l31.58,22.87m-32.93-20.79l31.58,22.87m-32.93-20.79l31.58,22.87"/>
      </g>
      <path class="cls-10" d="m109.41,99.88s-.44-17.8,1.23-26.74c1.68-8.94,7.16-17.39,7.16-17.39l2.12,1.58s.87,4.11,1.39,5.43c.52,1.32,1.76,7.74,2.9,9.16,1.14,1.43,3.14,4.1,3.73,5.77.59,1.66.9,2.55.9,2.55l1.35,1.86s1.41,2.68,1.95,4.12c.54,1.44-.23,7.33.94,9.46,1.17,2.14,1.47,6.37-.39,9.39-1.86,3.02-5.26,6.13-5.96,6.75-.7.63-2.42,2.66-2.42,2.66l-3.03-4.72-4.14-3.77-7.25-3.83-.49-2.28h0Z"/>
      <path class="cls-9" d="m111.19,98.24s3.27-17.5,6.77-25.9c3.5-8.4,10.62-15.52,10.62-15.52l1.75,1.98s0,4.2.23,5.6c.23,1.4.12,7.93.93,9.57.82,1.63,2.22,4.67,2.45,6.42.23,1.75.35,2.68.35,2.68l.93,2.1s.82,2.92,1.05,4.43c.23,1.52-1.75,7.12-1.05,9.45.7,2.33.12,6.53-2.33,9.1-2.45,2.57-6.42,4.9-7.23,5.37-.82.47-2.92,2.1-2.92,2.1l-1.98-5.25-3.27-4.55-6.3-5.25v-2.33h0Z"/>
      <g class="cls-12">
        <path class="cls-11" d="m126.47,59.27l26.13,28.93m-27.88-27.18l26.13,28.93m-27.88-27.18l26.13,28.93m-27.88-27.18l26.13,28.93m-27.88-27.18l26.13,28.93m-27.88-27.18l26.13,28.93m-27.88-27.18l26.13,28.93m-27.88-27.18l26.13,28.93m-27.88-27.18l26.13,28.93m-27.88-27.18l26.13,28.93m-27.88-27.18l26.13,28.93m-27.88-27.18l26.13,28.93m-27.88-27.18l26.13,28.93m-27.88-27.18l26.13,28.93m-27.88-27.18l26.13,28.93m-27.88-27.18l26.13,28.93"/>
      </g>
      <path class="cls-10" d="m111.19,98.24s3.27-17.5,6.77-25.9c3.5-8.4,10.62-15.52,10.62-15.52l1.75,1.98s0,4.2.23,5.6c.23,1.4.12,7.93.93,9.57.82,1.63,2.22,4.67,2.45,6.42.23,1.75.35,2.68.35,2.68l.93,2.1s.82,2.92,1.05,4.43c.23,1.52-1.75,7.12-1.05,9.45.7,2.33.12,6.53-2.33,9.1-2.45,2.57-6.42,4.9-7.23,5.37-.82.47-2.92,2.1-2.92,2.1l-1.98-5.25-3.27-4.55-6.3-5.25v-2.33h0Z"/>
      <path class="cls-8" d="m169.64,136.5s-.93,15.4-8.63,32.2c-7.7,16.8-10.03,16.33-10.03,16.33l-22.4,13.3-4.67-2.57,8.87-17.5s1.63-3.97,1.63-7-.93-6.3-.93-6.3c0,0,3.27-8.63,2.57-12.13s-2.57-8.87-2.57-8.87c0,0,.47-7.23-.93-10.73s-3.03-7.7-3.03-7.7l4.67-10.27s4.43-2.1,8.87-2.1,18.43,1.87,18.43,1.87l4.2,2.8,3.97,18.67h0Z"/>
      <path class="cls-8" d="m98.24,78.4s-3.73,1.17-5.37,2.1c-1.63.93-3.5,1.87-3.5,1.87l4.2.47,7.47-1.87-2.8-2.57h0Z"/>
      <path class="cls-8" d="m68.15,175s-1.45-3.69-2.37-6.51c-.91-2.82-1.14-4.69-1.14-4.69h10.97l10.47,3.28,6.56,1.41,7.92-3.51,9.56,17.48s-1.64,3.96-1.64,7.47,1.18,8.19,1.18,8.19l-15.62-.96s-8.38-7.51-9.11-8.65c-.73-1.14-16.8-13.52-16.8-13.52h0Z"/>
      <path class="cls-9" d="m28.9,25.06l-2.16-.22c-1.43,0-3.04.42-4.36,1.54-1.23,1.07-2.12,2.75-2.42,4.34-.34,1.76-.05,3.39.85,4.52.94,1.19,2.13,1.49,3.62,1.49.98,0,1.97-.1,2.98-.42l1.21-2.53c-1.1.62-2.23,1.12-3.36,1.12-2.17,0-2.77-1.94-2.32-4.33.4-2.09,1.34-4,3.33-4,.87,0,1.66.33,2.26.9l.36-2.42h0Z"/>
      <path class="cls-4" d="m34.89,33.05l.16,1.68c.03.28.05.36,0,.66-.11.55-.41.8-.8,1.06v.05s4.39,0,4.39,0v-.05c-.64-.92-.64-1.31-.78-2.42l-1.04-8.91h-3.57v.05c.24.22.44.54.35,1-.07.36-.43,1.04-.59,1.38l-3.34,6.9c-.43.88-.72,1.38-1.39,1.99v.05s2.98,0,2.98,0v-.05c-.2-.26-.42-.48-.33-.97.07-.36.33-.9.5-1.25l.58-1.18h2.88Zm-.17-1.61h-1.98l1.62-3.41h.01l.35,3.41h0Z"/>
      <path class="cls-9" d="m39.38,36.1c.82.42,1.75.62,2.71.62,1.03,0,2-.16,3-.9.9-.67,1.49-1.68,1.7-2.8.21-1.11-.02-1.89-.58-2.61-.47-.61-1.06-.93-1.69-1.3-.49-.28-1.27-.61-1.11-1.44.16-.81.91-1.11,1.48-1.11.73,0,1.38.35,1.9.81l.39-2.02c-.69-.35-1.53-.52-2.35-.52-.89,0-1.83.21-2.69.83-.78.57-1.37,1.52-1.56,2.51-.74,3.88,3.78,3.44,3.38,5.55-.19.97-1.12,1.23-1.78,1.23-1.05,0-2.14-.55-2.8-1.35v2.49h0Z"/>
      <path class="cls-4" d="m52.95,27.07c.26-.09.5-.1.76-.1.52,0,.94.17,1.05.76l1-2.61h-6.76l-.27-.05-1.08,2.66.12-.09c.64-.45,1.1-.64,1.77-.64.26,0,.48,0,.72.07l-1.33,6.96c-.17.9-.26,1.89-1.08,2.42v.05s3.94,0,3.94,0v-.05c-.48-.69-.35-1.47-.16-2.46l1.33-6.92h0Z"/>
      <path class="cls-4" d="m58.02,31.32h.48c.54,0,1.22-.07,1.29.62h.07l.46-2.42h-.07c-.14.07-.35.09-.56.09h-1.35l.54-2.8h.47c.71,0,1.56-.09,1.8.73h.04l.48-2.51h-.04c-.18.09-.41.09-.63.09h-5.1v.05c.6.52.31,1.51.14,2.41l-1.24,6.47c-.17.9-.26,1.87-1.07,2.4v.05s6.44,0,6.44,0l1.08-2.61h-.07c-.71.8-1.49.95-2.31.95-.51,0-1.04-.03-1.48-.26l.62-3.25h0Z"/>
      <path class="cls-9" d="m66.06,27.6c.18-.92.26-1.9,1.08-2.44v-.05s-3.91,0-3.91,0v.05c.6.54.31,1.52.14,2.42l-1.24,6.45c-.17.9-.26,1.87-1.07,2.4v.05s6.34,0,6.34,0l1.02-2.42c-.75.57-1.41.76-2.21.76-.52,0-1.06-.03-1.47-.29l1.33-6.94h0Z"/>
      <path class="cls-9" d="m73.35,27.6c.18-.92.26-1.9,1.08-2.44v-.05s-3.91,0-3.91,0v.05c.6.54.31,1.52.14,2.42l-1.24,6.45c-.17.9-.26,1.87-1.07,2.4v.05s6.34,0,6.34,0l1.02-2.42c-.75.57-1.41.76-2.21.76-.52,0-1.06-.03-1.47-.29l1.33-6.94h0Z"/>
      <path class="cls-4" d="m82.09,33.05l.16,1.68c.03.28.05.36,0,.66-.11.55-.41.8-.8,1.06v.05s4.39,0,4.39,0v-.05c-.64-.92-.64-1.31-.78-2.42l-1.04-8.91h-3.57v.05c.24.22.44.54.35,1-.07.36-.43,1.04-.59,1.38l-3.34,6.9c-.43.88-.72,1.38-1.39,1.99v.05s2.98,0,2.98,0v-.05c-.2-.26-.42-.48-.33-.97.07-.36.33-.9.5-1.25l.58-1.18h2.88Zm-.17-1.61h-1.98l1.62-3.41h.01l.35,3.41h0Z"/>
      <path class="cls-9" d="m93.26,31.79l-.88-6.63v-.05s-3.34,0-3.34,0v.05c.3.42.42.93.24,1.59l-2.09,7.27c-.27.93-.46,1.8-1.22,2.42v.05s2.86,0,2.86,0v-.05c-.36-.26-.53-.74-.38-1.33l1.64-5.97h.04l.54,4.6c.11.88.14,1.61.72,2.15.36.33.76.66,1.23.8l3.34-7.54h.04l-.64,6.07c-.05.47-.4.93-.7,1.23v.05s3.84,0,3.84,0v-.05c-.5-.67-.39-1.64-.29-2.61l.75-7.49c.06-.62.31-.8.74-1.18v-.05s-3.47,0-3.47,0v.05s-2.97,6.63-2.97,6.63h0Z"/>
      <path class="cls-9" d="m106.08,31.79l-.88-6.63v-.05s-3.34,0-3.34,0v.05c.3.42.42.93.24,1.59l-2.09,7.27c-.27.93-.46,1.8-1.22,2.42v.05s2.86,0,2.86,0v-.05c-.36-.26-.53-.74-.38-1.33l1.64-5.97h.04l.54,4.6c.11.88.14,1.61.72,2.15.36.33.76.66,1.23.8l3.34-7.54h.04l-.64,6.07c-.05.47-.4.93-.7,1.23v.05s3.84,0,3.84,0v-.05c-.5-.67-.39-1.64-.29-2.61l.75-7.49c.06-.62.31-.8.74-1.18v-.05s-3.47,0-3.47,0v.05s-2.97,6.63-2.97,6.63h0Z"/>
      <path class="cls-4" d="m118.22,33.05l.16,1.68c.03.28.05.36,0,.66-.11.55-.41.8-.8,1.06v.05s4.39,0,4.39,0v-.05c-.64-.92-.64-1.31-.78-2.42l-1.04-8.91h-3.57v.05c.24.22.44.54.35,1-.07.36-.43,1.04-.59,1.38l-3.34,6.9c-.43.88-.72,1.38-1.39,1.99v.05s2.98,0,2.98,0v-.05c-.2-.26-.42-.48-.33-.97.07-.36.33-.9.5-1.25l.58-1.18h2.88Zm-.17-1.61h-1.98l1.62-3.41h.01l.35,3.41h0Z"/>
      <path class="cls-4" d="m126.43,31.62l.97,3.77c.3,1.07.74,1.23,1.73,1.16l2.04-.16c-.47-.57-.76-1.3-1-2.08l-1.07-3.44c1.05-.48,2.01-1.44,2.26-2.73.22-1.16-.04-2.08-.79-2.63-.58-.42-1.16-.4-1.88-.4h-4.31v.05c.6.54.31,1.52.14,2.42l-1.24,6.44c-.17.9-.26,1.89-1.08,2.42v.05s3.91,0,3.91,0v-.05c-.6-.54-.31-1.52-.14-2.42l.46-2.4h0Zm1.07-4.83c.29,0,.59.03.8.24.33.33.41.92.3,1.47-.21,1.09-1.06,2.01-2,2.2l.75-3.91h.15Z"/>
      <path class="cls-4" d="m135.52,31.32h.48c.54,0,1.22-.07,1.29.62h.07l.46-2.42h-.07c-.14.07-.35.09-.56.09h-1.35l.54-2.8h.47c.71,0,1.56-.09,1.8.73h.04l.48-2.51h-.04c-.18.09-.41.09-.63.09h-5.1v.05c.6.52.31,1.51.14,2.41l-1.24,6.47c-.17.9-.26,1.87-1.07,2.4v.05s6.44,0,6.44,0l1.08-2.61h-.07c-.71.8-1.49.95-2.31.95-.51,0-1.04-.03-1.48-.26l.62-3.25h0Z"/>
      <path class="cls-4" d="m144.01,34.02c-.17.9-.26,1.89-1.08,2.42v.05s3.27,0,3.27,0c1.63,0,3.07.09,4.64-1.18,1.32-1.06,2.25-2.79,2.58-4.46.36-1.87.05-3.65-1.06-4.74-1.1-1.09-2.59-1-4.16-1h-3.09v.05c.22.16.37.54.36.88-.02.5-.33,2.08-.44,2.66l-1.02,5.31h0Zm4.03-6.96c.33-.07.66-.12.98-.12,1.79,0,1.91,2.13,1.57,3.91-.18.92-.47,1.85-1.02,2.65-.66.95-1.31,1.28-2.23,1.28-.26,0-.52-.03-.76-.14l1.45-7.58h0Z"/>
      <path class="cls-9" d="m157.83,27.59c.17-.9.26-1.89,1.08-2.42v-.05s-3.91,0-3.91,0v.05c.6.54.31,1.52.14,2.42l-1.24,6.45c-.17.9-.26,1.87-1.07,2.4v.05s3.91,0,3.91,0v-.05c-.6-.54-.31-1.51-.14-2.4l1.24-6.45h0Z"/>
      <path class="cls-9" d="m162.04,36.1c.82.42,1.75.62,2.71.62,1.03,0,2-.16,3-.9.9-.67,1.49-1.68,1.7-2.8.21-1.11-.02-1.89-.58-2.61-.47-.61-1.06-.93-1.69-1.3-.49-.28-1.27-.61-1.11-1.44.16-.81.91-1.11,1.48-1.11.73,0,1.38.35,1.9.81l.39-2.02c-.69-.35-1.53-.52-2.35-.52-.89,0-1.83.21-2.69.83-.78.57-1.37,1.52-1.56,2.51-.74,3.88,3.78,3.44,3.38,5.55-.19.97-1.12,1.23-1.78,1.23-1.05,0-2.14-.55-2.8-1.35v2.49h0Z"/>
      <path class="cls-4" d="m175.61,27.07c.26-.09.5-.1.76-.1.52,0,.94.17,1.05.76l1-2.61h-6.76l-.27-.05-1.08,2.66.12-.09c.64-.45,1.1-.64,1.77-.64.26,0,.48,0,.72.07l-1.33,6.96c-.17.9-.26,1.89-1.08,2.42v.05s3.94,0,3.94,0v-.05c-.48-.69-.35-1.47-.16-2.46l1.33-6.92h0Z"/>
      <path class="cls-4" d="m181.89,33.05l.16,1.68c.03.28.05.36,0,.66-.11.55-.41.8-.8,1.06v.05s4.39,0,4.39,0v-.05c-.64-.92-.64-1.31-.78-2.42l-1.04-8.91h-3.57v.05c.24.22.44.54.35,1-.07.36-.43,1.04-.59,1.38l-3.34,6.9c-.43.88-.72,1.38-1.39,1.99v.05s2.98,0,2.98,0v-.05c-.2-.26-.42-.48-.33-.97.07-.36.33-.9.5-1.25l.58-1.18h2.88Zm-.17-1.61h-1.98l1.62-3.41h.01l.35,3.41h0Z"/>
      <path class="cls-4" d="m188.14,25.11v.05c.6.52.31,1.51.14,2.41l-1.24,6.45c-.18.92-.26,1.89-1.08,2.42v.05s4.26,0,4.26,0c1.03,0,1.81-.02,2.75-.83.82-.71,1.34-1.61,1.55-2.68.29-1.51-.32-2.75-1.53-2.96.94-.35,1.74-1.04,1.97-2.2.17-.9-.07-1.59-.56-2.15-.5-.57-1.14-.57-1.92-.57h-4.34Zm2.98,1.71c.16-.07.3-.1.44-.1.63,0,.79.66.66,1.33-.14.74-.65,1.49-1.35,1.49-.1,0-.17-.03-.26-.07l.51-2.65h0Zm-.81,4.2h.35c1.11,0,1.5.59,1.25,1.9-.19,1-.75,1.94-1.7,1.94-.26,0-.42-.03-.6-.21l.7-3.63h0Z"/>
      <path class="cls-9" d="m199.36,27.59c.17-.9.26-1.89,1.08-2.42v-.05s-3.91,0-3.91,0v.05c.6.54.31,1.52.14,2.42l-1.24,6.45c-.17.9-.26,1.87-1.07,2.4v.05s3.91,0,3.91,0v-.05c-.6-.54-.31-1.51-.14-2.4l1.24-6.45h0Z"/>
      <path class="cls-4" d="m205.2,33.05l.16,1.68c.03.28.05.36,0,.66-.11.55-.41.8-.8,1.06v.05s4.39,0,4.39,0v-.05c-.64-.92-.64-1.31-.78-2.42l-1.04-8.91h-3.57v.05c.24.22.44.54.35,1-.07.36-.43,1.04-.59,1.38l-3.34,6.9c-.43.88-.72,1.38-1.39,1.99v.05s2.98,0,2.98,0v-.05c-.2-.26-.42-.48-.33-.97.07-.36.33-.9.5-1.25l.58-1.18h2.88Zm-.17-1.61h-1.98l1.62-3.41h.01l.35,3.41h0Z"/>
      <path class="cls-7" d="m28.31,72.33c1.34.68,2.84,1.01,4.41,1.01,1.68,0,3.25-.25,4.88-1.47,1.47-1.1,2.42-2.73,2.77-4.56.35-1.8-.03-3.07-.94-4.25-.76-.99-1.72-1.52-2.75-2.11-.79-.45-2.06-.99-1.8-2.34.25-1.32,1.48-1.8,2.41-1.8,1.19,0,2.24.56,3.09,1.32l.63-3.3c-1.13-.56-2.49-.85-3.82-.85-1.45,0-2.98.34-4.39,1.35-1.27.93-2.23,2.48-2.54,4.09-1.21,6.31,6.16,5.61,5.5,9.04-.3,1.58-1.83,2-2.9,2-1.71,0-3.48-.9-4.56-2.2v4.06h0Z"/>
      <path class="cls-7" d="m42.66,73.34c1.3,0,2.55-1.18,2.84-2.7.28-1.47-.49-2.65-1.7-2.65-1.3,0-2.52,1.24-2.81,2.76-.26,1.38.5,2.59,1.66,2.59h0Z"/>
      <path class="cls-7" d="m47.29,72.33c1.34.68,2.84,1.01,4.41,1.01,1.68,0,3.25-.25,4.88-1.47,1.47-1.1,2.42-2.73,2.77-4.56.35-1.8-.03-3.07-.94-4.25-.76-.99-1.72-1.52-2.75-2.11-.79-.45-2.06-.99-1.8-2.34.25-1.32,1.48-1.8,2.41-1.8,1.19,0,2.24.56,3.09,1.32l.63-3.3c-1.13-.56-2.49-.85-3.82-.85-1.45,0-2.98.34-4.39,1.35-1.27.93-2.23,2.48-2.54,4.09-1.21,6.31,6.16,5.61,5.5,9.04-.3,1.58-1.83,2-2.9,2-1.71,0-3.48-.9-4.56-2.2v4.06h0Z"/>
      <path class="cls-7" d="m61.64,73.34c1.3,0,2.55-1.18,2.84-2.7.28-1.47-.49-2.65-1.7-2.65-1.3,0-2.52,1.24-2.81,2.76-.26,1.38.5,2.59,1.66,2.59h0Z"/>
      <path class="cls-7" d="m56.66,236.95c-.38,1.97-.62,3.59-1.61,5.47-.54,1.01-1.19,2-1.92,2.87,1.5-.06,3.3-.96,4.7-1.85,2.09-1.36,2.6-2.61,3.05-4.98l2.71-14.13c.29-1.51.44-3.16,1.8-4.05l.02-.09h-6.56l-.02.09c1.02.9.54,2.55.25,4.05l-2.42,12.63h0Z"/>
      <path class="cls-3" d="m70.34,225.48h-.07c-.53.35-1.08.43-1.72.43h-3.37l-.02.09c.73.9.52,1.74.26,3.1l-1.08,5.62c-.28,1.45-.53,2.78.25,3.79.61.78,1.59,1.1,2.54,1.1,1.44,0,2.65-.61,3.71-1.91l-.29,1.53h5.05l.02-.09c-.73-.9-.47-1.74-.23-3.1l2.03-10.57h-.07c-.55.35-1.11.43-1.74.43h-3.34l-.02.09c.73.9.52,1.74.26,3.1l-.9,4.69c-.14.75-.24,1.51-.76,2.2-.33.43-.83.64-1.27.64-1.61,0-.9-2.43-.65-3.71l1.43-7.44h0Z"/>
      <path class="cls-7" d="m83.63,233.91l-.94-8.43h-.07c-.53.49-1.13.43-1.74.43h-3.02l-.02.09c.59.84.69,1.74.83,2.9l.79,6.43c.28,2.23.41,2.81,2.02,3.97.36.29.79.58,1.27.64l7.2-14.02h-3.49l-.02.09c.29.38.41.78.29,1.42-.12.64-.49,1.3-.8,1.88l-2.3,4.6h0Z"/>
      <path class="cls-3" d="m100.74,235.44c-1.36.75-3.01,1.48-4.38,1.48-2.17,0-3.24-1.8-2.76-4.29h7.56c.78-4.46-.56-7.1-4.42-7.1-3.39,0-6.54,2.93-7.31,6.98-.42,2.17-.18,4.34,1.13,5.68,1.14,1.19,2.95,1.42,4.6,1.42,1.29,0,2.71-.29,4-.9l1.58-3.27h0Zm-6.67-5.27c.34-1.16,1.11-2.11,2.19-2.11,1.17,0,1.44.98,1.23,2.11h-3.41Z"/>
      <path class="cls-7" d="m109.11,238.57c1.38.7,2.92,1.04,4.53,1.04,1.73,0,3.34-.26,5.02-1.51,1.51-1.13,2.49-2.81,2.85-4.69.36-1.85-.03-3.16-.97-4.37-.78-1.01-1.77-1.56-2.83-2.17-.81-.46-2.12-1.01-1.86-2.4.26-1.36,1.53-1.85,2.48-1.85,1.22,0,2.3.58,3.18,1.36l.65-3.39c-1.16-.58-2.56-.87-3.93-.87-1.49,0-3.07.35-4.51,1.39-1.31.96-2.29,2.55-2.61,4.2-1.24,6.49,6.33,5.76,5.65,9.3-.31,1.62-1.88,2.06-2.98,2.06-1.76,0-3.58-.93-4.69-2.26v4.17h0Z"/>
      <path class="cls-7" d="m122.41,234.75c-.26,1.36-.58,2.75.16,3.74.62.81,1.83,1.13,2.83,1.13.63,0,1.32-.14,1.97-.2l1.55-2.46c-.65-.03-1.35-.06-1.85-.52-.66-.61-.49-1.36-.29-2.4l1.04-5.42h.61c1.02,0,1.38-.06,1.86.84h.07l.68-3.53h-2.71l.79-4.14h-1.68c-.66,2.43-2.79,4.6-4.92,4.81l-.38,2h1.46l-1.18,6.17h0Z"/>
      <path class="cls-7" d="m141.82,237.01c-2.09-.06-1.71-1.65-1.33-3.59l.44-2.32c.32-1.68.52-3.36-.49-4.46-.79-.84-2.03-1.1-3.18-1.1-1.05,0-2.09.09-3.15.41l-1.78,3.3c1.01-.55,2.26-.96,3.26-.96.61,0,1.5.32,1.33,1.22-.47,2.43-6.83.67-7.86,6.02-.26,1.33.12,2.69.96,3.39.61.52,1.65.7,2.48.7l1.26-.09,1.53-2.52c-.18.03-.33.06-.5.06-.88,0-1.32-.87-1.13-1.88.18-.96,1.05-1.39,1.72-1.74l.86-.43-.18.96c-.33,1.71-.68,3.04.22,4.32.73,1.01,1.82,1.33,3.06,1.33l.99-.09,1.48-2.52h0Z"/>
      <path class="cls-7" d="m150.38,219.72h-.07c-.63.46-1.16.46-1.84.46h-3.22l-.02.09c.72.93.47,1.77.23,3.1l-2.53,13.21c-.19.98-.27,1.53-1,2.17l-.02.09c1.62.46,3.39.78,5.14.78,1.95,0,3.94-.35,5.76-1.82,1.77-1.45,2.89-3.5,3.32-5.73.32-1.68.14-3.5-.64-4.69-.71-1.13-2.06-1.85-3.38-1.85-.39,0-.76.03-1.15.17l-1.62,2.46c2.2.12,2.64,2.14,2.17,4.58-.43,2.26-1.59,4.23-3.71,4.23-.24,0-.48-.06-.7-.14l3.28-17.09h0Z"/>
      <path class="cls-3" d="m158.75,225.91l-.02.09c.73.9.5,1.74.23,3.1l-1.33,6.95c-.26,1.33-.34,2.17-1.45,3.1l-.02.09h5.93l.02-.09c-.75-.93-.51-1.77-.26-3.1l2.03-10.57h-.07c-.53.35-1.08.43-1.74.43h-3.32Zm2.82-.58c1.32,0,2.62-1.22,2.93-2.81.28-1.48-.5-2.72-1.77-2.72-1.34,0-2.57,1.3-2.87,2.87-.27,1.39.51,2.66,1.71,2.66h0Z"/>
      <path class="cls-7" d="m175.96,237.01c-2.09-.06-1.71-1.65-1.33-3.59l.44-2.32c.32-1.68.52-3.36-.49-4.46-.79-.84-2.03-1.1-3.18-1.1-1.05,0-2.09.09-3.15.41l-1.78,3.3c1.01-.55,2.26-.96,3.26-.96.61,0,1.5.32,1.33,1.22-.47,2.43-6.83.67-7.86,6.02-.26,1.33.12,2.69.96,3.39.61.52,1.65.7,2.48.7l1.26-.09,1.53-2.52c-.18.03-.33.06-.5.06-.88,0-1.32-.87-1.13-1.88.18-.96,1.05-1.39,1.72-1.74l.86-.43-.18.96c-.33,1.71-.68,3.04.22,4.32.73,1.01,1.82,1.33,3.06,1.33l.99-.09,1.48-2.52h0Z"/>
      <path class="cls-7" d="m24.26,201.09s3.32-11.43,8.19-11.43,13.71,3.73,18.17,1.64c4.46-2.09,7.24-6.97,7.24-9.33s.96-10.7,4.69-13.29c3.73-2.59,8.42-1.45,11.43-.5,3.01.96,12.38,5.23,16.12,3.82,3.73-1.41,7.47-5.19,7.47-5.19l-3.51-4.46s-1.18,2.41-6.56,2.41-15.85-5.14-21.22-5.14-9.56,12.84-9.56,18.4-5.42,8.11-9.61,7.42c-4.19-.68-11.06-3.52-15.16-1.87-8.15,3.28-7.69,17.53-7.69,17.53h0Z"/>
      <path class="cls-7" d="m205.14,50.38s.46,14.25-7.69,17.53c-4.1,1.65-10.97-1.18-15.16-1.87-4.19-.68-9.61,1.87-9.61,7.42s-4.19,18.4-9.56,18.4-15.85-5.14-21.22-5.14c-2.5,0-4.09.52-5.08,1.08l-.49-6.76c.94-.61,1.96-1.17,2.98-1.56,3.73-1.41,13.11,2.87,16.12,3.82,3.01.96,7.69,2.09,11.43-.5,3.73-2.59,4.69-10.93,4.69-13.29s2.78-7.24,7.24-9.33c4.46-2.09,13.29,1.64,18.17,1.64s8.19-11.43,8.19-11.43h0Z"/>
      <path class="cls-7" d="m205.14,64.64s.46,14.25-7.69,17.53c-4.1,1.65-10.97-1.18-15.16-1.87s-9.61,1.87-9.61,7.42-4.19,18.4-9.56,18.4-15.85-5.14-21.22-5.14c-2.85,0-4.52.68-5.46,1.31l.98-7.66c.62-.35,1.25-.66,1.89-.9,3.73-1.41,13.11,2.87,16.12,3.82,3.01.96,7.69,2.09,11.43-.5,3.73-2.59,4.69-10.93,4.69-13.29s2.78-7.24,7.24-9.33c4.46-2.09,13.29,1.64,18.17,1.64s8.19-11.43,8.19-11.43h0Z"/>
      <path class="cls-7" d="m205.14,78.89s-3.32,11.43-8.19,11.43-13.71-3.73-18.17-1.64c-4.46,2.09-7.24,6.97-7.24,9.33s-.96,10.7-4.69,13.29c-3.73,2.59-8.42,1.45-11.43.5-3.01-.96-12.38-5.23-16.12-3.82-3.73,1.41-7.47,5.19-7.47,5.19l-3.05,13.07s4.19-11.02,13.11-11.02c5.37,0,15.85,5.14,21.22,5.14s9.56-12.84,9.56-18.4,5.42-8.11,9.61-7.42c4.19.68,11.06,3.52,15.16,1.87,8.15-3.28,7.69-17.53,7.69-17.53h0Z"/>
      <path class="cls-7" d="m97.06,81.89l.73-4.19s4.87-1.87,8.15-2.09c3.28-.23,2.82.23,2.82.23,0,0-1.64,9.33-1.64,11.66s-.23,3.73-.23,3.73c0,0-2.37-6.74-4.23-8.15-1.87-1.41-5.6-1.18-5.6-1.18h0Z"/>
      <path class="cls-8" d="m76.07,92.86s-.46,3.96.23,5.14c.68,1.18.68,1.41.68,1.41l-3.01,8.83-6.28-3.23s2.32-4.42,4.87-7.47c2.55-3.05,3.51-4.69,3.51-4.69h0Z"/>
      <path class="cls-7" d="m24.26,186.84s-.46-14.25,7.69-17.53c4.1-1.65,10.97,1.18,15.16,1.87,4.19.68,9.61-1.87,9.61-7.42s4.19-18.4,9.56-18.4c4.75,0,13.49,4.02,19.16,4.95l2.51-4,.96,2.09-.62,2.08c4.7-.22,5.76-2.39,5.76-2.39l.92,1.17c-.33.81-1.05,2.18-2.33,2.65-1.87.68-2.82,1.64-2.82,1.64,0,0,.5,1.32,2.37,1.6.79.11,1.78-.03,2.67-.24-1.35,1.05-3.06,2.19-4.76,2.83-3.73,1.41-13.11-2.87-16.12-3.82-3.01-.96-7.69-2.09-11.43.5-3.73,2.59-4.69,10.93-4.69,13.29s-2.78,7.24-7.24,9.33c-4.46,2.09-13.29-1.64-18.17-1.64s-8.19,11.43-8.19,11.43h0Z"/>
      <path class="cls-7" d="m93.1,162.62l1.64-2.78s3.01.27,3.96-.46l.96-.73s-.96,1.45-2.82,2.37c-1.87.91-1.18,2.55-1.18,2.55l3.28-.96,2.09,3.51-10.93,13.57,9.56,16.07,10.25.46,1.41-2.32s3.05,1,3.96,2.37c.91,1.37,1.64.91,1.64.91l2.78-1.18,3.05,6.1s-4.37.46-6.51.46h-2.59s-.64,4.42-6.74,6.06c-6.1,1.64-9.33,1.64-9.33,1.64,0,0,6.74-2.82,8.38-4.92,1.64-2.09,1.64-2.78,1.64-2.78,0,0-13.57-3.32-25.68-12.16-12.11-8.83-14.25-17.03-14.25-17.03l.73-2.55-.96-5.14,3.05-.23.68,4.69,16.8,6.51,5.6-8.38-.46-5.64h0Z"/>
      <polygon class="cls-7" points="100.34 162.39 101.29 161.7 129.02 207.69 127.43 208.6 100.34 162.39 100.34 162.39"/>
      <path class="cls-7" d="m111.54,184.79l7.01,11.2-.73,2.14s-2.78-3.51-4.19-4.69c-1.41-1.18-2.78-2.32-2.78-2.32v-4.19c0-1.91.68-2.14.68-2.14h0Z"/>
      <path class="cls-7" d="m119,107.34s-8.63.47-9.57,4.2c-.93,3.73,2.8,8.87,2.8,8.87l-3.27-.93,1.17,12.6,2.8-3.03.93,2.33s-5.6,6.77-6.77,9.8c-1.17,3.03-1.4,4.2-1.4,4.2l3.03,3.97s10.27-8.87,11.9-11.43c1.63-2.57,1.87-5.37,1.87-5.37,0,0-.23-7-1.4-9.57-1.17-2.57-2.33-3.27-2.33-3.27,0,0,3.27-1.63,2.57-5.13s-1.17-5.37-1.17-5.37c0,0,4.43,3.27,3.03,7-1.4,3.73-.93,4.9-.93,4.9l5.6,7-3.97,4.43s-1.4,7-3.97,8.87c-2.57,1.87-2.33,3.97-2.33,3.97,0,0,7.7-2.33,10.73-1.17,3.03,1.17,6.77,8.17,6.07,12.83-.7,4.67-2.57,6.53-2.57,6.53,0,0-7.47-3.03-13.53-1.87-6.07,1.17-7.47,5.6-7.47,5.6,0,0-4.67-7.93-4.67-9.8s-1.4-2.1-1.4-2.1l-2.1-1.17-2.57-6.07,2.8-9.57.7,5.83,3.5-6.53s-4.2-2.57-6.3-1.87c-2.1.7,3.27-1.4,3.27-1.4,0,0-4.2-1.87-6.77-5.6-2.57-3.73-3.27-4.9-3.27-4.9,0,0,2.1,6.77,4.67,8.63,2.57,1.87,3.03,1.63,3.03,1.63l-3.03,2.1-2.57,3.03-1.63-5.13,1.4-1.4s-5.13-2.8-5.13-7.7,1.17-7.47,1.17-7.47c0,0,8.63-5.13,10.27-8.4,1.63-3.27,3.03-9.57,3.03-9.57,0,0,3.03-1.87,7.23.23s6.53,7.23,6.53,7.23h0Z"/>
      <path class="cls-7" d="m100.1,138.84s-.93,6.07-1.87,7.47c-.93,1.4.23,1.87.23,1.87,0,0,1.63-3.27,2.1-5.6.47-2.33-.47-3.73-.47-3.73h0Z"/>
      <path class="cls-7" d="m151.9,115.27l-5.37,20.07-14.7,5.83-1.87,5.83,19.13-7.93,6.53,13.07-5.37,17.97-15.63,8.63-2.1-2.1-.7,2.8.23,2.8-6.53,14.93,1.63,3.27s15.87-6.53,23.1-12.37c7.23-5.83,8.4-10.27,8.4-10.27l-4.43-7.23,4.67-17.03,10.97-3.27s1.17-10.27.7-17.27c-.47-7-4.2-17.27-4.2-17.27l-14.47-.47h0Z"/>
      <path class="cls-8" d="m79.1,117.84s4.2.47,5.37.47,5.37.23,5.37.23l-2.33,2.1-3.5.93-4.67.7-1.4,4.9,9.8,3.73,2.8-.7,4.67,5.37-3.5,6.07-4.43,6.77s-3.03.7-5.37-.23c-2.33-.93-5.37-4.9-5.37-4.9l-.93-7.23-1.63-8.17,4.9-7.23.23-2.8h0Z"/>
      <path class="cls-5" d="m82.85,134.25l1.38.28s.35-.14-.21-.89c-.56-.76-1.17.62-1.17.62h0Zm-2.98.56l-.83.83.69.62s.14-1.17.14-1.44h0Zm-1.39,2.83v.69s1.04-.48,1.39-.41c.34.07.83,1.8.83,1.8,0,0,.15-1.03.28-1.39.14-.35.96-.96.96-.96h-2c-.34,0-1.45.28-1.45.28h0Zm.14,2.98l-.34.96.9.41s-.48,2.22.14,2.15c.62-.07,1.24-.55.83-1.39-.41-.83-1.52-2.14-1.52-2.14h0Zm2.84,1.17s-.41,1.11,0,1.25c.41.14.89.54.96.76.07.22.7,1.05.83.42.14-.63-.33-1.18-.62-1.32-.28-.14-1.18-1.11-1.18-1.11h0Zm3.05,1.59l.89,1.66h1.11l-.56-1.59s-.55-.07-1.44-.07h0Zm2.69-2.62s-.21,1.31.28,1.03.41-.89.41-.89l-.69-.14h0Zm.89-2.21s.35-.22.9-.56c.55-.34.07-1.24-.69-1.03s-.22.89-.22.89c0,0-.89.9-.83,1.52.07.62.83-.83.83-.83h0Zm-.62-2.7s.55-.34.62-.83c.07-.48-.41-.49-.83-.14-.41.35.21.96.21.96h0Zm-2.97.48s-.63-.28-1.04-.07-.21.83-.21.83c0,0,.62-.07,1.17-.07s.08-.7.08-.7h0Zm-2.15-4.28s.49-.76,2.29-.48c1.8.28,2.76,1.03,2.76,1.03,0,0,.4.56.69.56s.89-.76,1.52-.28c.63.48.97.68.97,1.31s-.41,2.7-.34,3.18c.07.48.42,4.21,0,4.56-.42.35-1.04.97-1.04.97,0,0,.69.77.41,1.18-.28.41-2.14,1.31-2.14,1.31,0,0-.55,2.36-2,2.36s-3.46-.97-3.46-.97c0,0-.33.76-1.24.07-.9-.69-1.66-1.59-1.66-1.59,0,0-.83.22-1.39-1.03-.55-1.25-.69-1.94-.69-2.29s-.28-1.3-.35-1.51c-.07-.22.28-3.54.7-4.09.41-.55,2.14-2.14,2.14-2.14,0,0,1.66-1.39,2.07-1.66.41-.28.76-.48.76-.48h0Z"/>
      <path class="cls-6" d="m83.6,138.82s1.25,0,1.45.69c.21.69-.42,1.39-.7.83-.28-.56-.34-.97-.62-.97s-1.25.63-1.25,1.11,1.18,3.32,2.77,2.14c1.59-1.18,1.51-2.55.96-3.66-.55-1.11-2.62-.14-2.62-.14h0Z"/>
      <path class="cls-7" d="m67.19,102.92l8.42,3.46,4.19-9.11s4,5.19,10.74.5c6.74-4.69,4.87-13.57,4.87-13.57,0,0,3.78-.91,6.56,1.18,2.78,2.09,4.87,8.65,4.42,10.52-.46,1.87-1.64,2.78-1.64,2.78,0,0-2.59,6.28-3.73,9.11-1.14,2.82-3.73,6.06-7.47,7.47-3.73,1.41-6.06,1.41-6.06,1.41,0,0,9.33-4.46,10.97-8.19,1.64-3.73,1.87-5.56,1.64-7.42-.23-1.87-.68-2.59-.68-2.59,0,0-.04,7.69-2.37,9.33-2.32,1.64-11.43,7.69-11.43,7.69l-2.32.73-5.14-.96-1.14,2.59-2.82-.96,1.18,3.28-2.37-1.18.5,2.82-1.41,1.87,2.32,2.09,4.46-5.37s.91,1.68,2.78,1.18c1.87-.5,3.51-1.64,5.14-1.64s3.28,1.64,3.28,1.64c0,0-10.25.41-10.97,1.37-.73.96-.73,6.33-.73,6.33l3.28,2.32-4.69,5.6-9.79-1.18-8.15,5.37s-3.73-5.78.23-19.81c3.96-14.02,7.92-18.67,7.92-18.67h0Z"/>
      <path class="cls-3" d="m24.26,172.59s-.46-14.25,7.69-17.53c4.1-1.65,10.97,1.18,15.16,1.87,4.19.68,9.61-1.87,9.61-7.42s4.19-18.4,9.56-18.4c3.25,0,8.38,1.89,13.11,3.38-.71.7-1.33,1.48-1.69,2.25-.54,1.2-.94,2.65-1.2,3.86-1.04-.39-1.92-.73-2.53-.92-3.01-.96-7.69-2.09-11.43.5-3.73,2.59-4.69,10.93-4.69,13.29s-2.78,7.24-7.24,9.33c-4.46,2.09-13.29-1.64-18.17-1.64s-8.19,11.43-8.19,11.43h0Zm67.11-36.88c2.12-.71,2.69-1.86,2.69-1.86l3.51,4.46s-2.75,2.78-5.89,4.46l-.31-7.06h0Z"/>
      <path class="cls-7" d="m86.45,128.84c-.04.18,0,1.27.37,1.78.37.51,1.15,1.78,1.15,1.78,0,0,1.41-.16,1.66-.04.25.12.35.82.51.33.16-.49.76-1.85.21-3.39-.55-1.54-1.4-1.19-1.91-2.34-.51-1.15-1.5-2.25-1.7-1.91-.21.35-.29,3.77-.29,3.77h0Z"/>
      <path class="cls-7" d="m124.95,121.1l1.87,3.15s.82-1.75,1.4-2.92c.58-1.17.82-2.45.82-2.92s.58-5.13.58-5.13l-2.57,3.03s1.87.23.23,2.1c-1.63,1.87-2.33,2.68-2.33,2.68h0Z"/>
      <path class="cls-7" d="m124.49,134.64l3.85-3.03,1.52.47-.82,3.62,1.28,2.45-1.17,2.45-3.5-1.28-2.92.7-1.98,1.98,3.38-1.17,4.67,1.05,1.75.12s1.05-3.85.93-4.32c-.12-.47-1.05-3.85-1.05-3.85l.35-2.68-2.22-1.98-4.43,3.73.35,1.75h0Z"/>
      <path class="cls-7" d="m111.07,171.74l.93-3.38,3.27-1.63,3.85-1.17,5.48-.12,4.43,1.63s.7,6.3.7,6.88-1.05,4.2-1.05,4.2l-2.1,3.73.47,2.57,2.92-7.47,1.17-3.85-.23-5.6-3.15-2.45-3.38-.93-4.55-.12-3.15.23-4.2,1.98s-1.17,1.4-1.4,1.87c-.23.47-.93,3.5-.93,3.5l.93.12h0Z"/>
      <polygon class="cls-7" points="114.45 178.62 119.94 178.62 123.09 181.65 124.6 182.94 124.72 185.04 122.27 182.35 119.24 180.02 116.44 179.55 113.99 180.02 114.45 178.62 114.45 178.62"/>
      <path class="cls-7" d="m116.09,182.94l6.07,10.62s3.03-3.15,2.68-5.13c-.35-1.98-2.45-3.5-2.45-3.5l-2.45-1.52-3.85-.47h0Z"/>
      <path class="cls-7" d="m107.22,166.02s-1.17-.93-1.98-3.85c-.82-2.92-.82-4.43-.82-4.43l-1.87,2.22s.93,3.03,2.45,4.78c1.52,1.75,2.22,1.28,2.22,1.28h0Z"/>
      <path class="cls-7" d="m78.66,96.99s-.62.73-.83,0c-.21-.73-.1-1.56-.1-1.56l.62-.51.42-1.35.41-.83-.41-1.35.51-.73.73.1.42,1.35-1.04.73.42,1.03-1.14,1.04.1,1.24-.1.83h0Z"/>
      <polygon class="cls-7" points="80.84 89.84 82.09 90.04 82.09 87.66 80.94 88.59 80.84 89.84 80.84 89.84"/>
      <polygon class="cls-7" points="82.81 90.98 82.71 93.16 81.77 93.47 81.67 94.71 81.98 95.64 81.36 96.99 80.74 95.95 81.04 95.13 80.74 93.67 81.25 92.64 81.77 91.71 81.88 90.98 82.81 90.98 82.81 90.98"/>
      <path class="cls-7" d="m84.16,87.87s-.31,1.55,0,1.66c.31.1,1.45.51,1.45.51l.21-1.55,1.66-.62.31-1.15,1.03-.62.42-.94,1.45-.21-.21.94-.72.93v1.35l-.62,1.35,1.66.83.62-2.48-.1-1.04.62-1.35-.31-1.24-1.25-.42-1.24.1-.62.93h-1.03l-.52,1.35-1.24.31-.52,1.35h-1.03Z"/>
      <path class="cls-7" d="m92.87,85.48l.62.72-.62,1.04-.1,2.28.1,1.14s-1.35-1.44-1.55-1.03c-.21.41-1.24,1.55-1.24,1.55l-.1,1.76.93.52-.42,1.24-.72.72-2.6.1v1.15l3.01.1v-1.04l2.69-1.76-1.03-.93.83-1.76,1.87-1.66v-3.32l-.83-.62-.52-1.35-.31,1.15h0Z"/>
      <polygon class="cls-7" points="86.64 93.98 87.58 94.81 88.93 94.4 88.93 93.36 88.31 92.22 88.93 90.14 87.79 88.9 86.03 91.29 87.89 92.22 86.64 93.98 86.64 93.98"/>
      <polygon class="cls-7" points="85.4 93.98 86.24 95.54 85.51 96.27 86.13 97.1 85.09 97.92 82.71 97.92 82.5 96.89 84.88 96.06 84.58 94.5 83.43 93.05 84.88 90.56 85.51 92.22 84.99 93.67 85.4 93.98 85.4 93.98"/>
      <polygon class="cls-7" points="83.64 94.61 83.54 95.43 82.5 95.54 82.5 94.5 83.64 94.61 83.64 94.61"/>
      <path class="cls-7" d="m74.62,79.46s-1.76-.1-1.55-1.14c.21-1.04.73-2.08,1.55-1.56.83.52,1.45,1.87,1.45,1.87,0,0,3.11.94,5.08,2.49,1.97,1.55,3.73,3.42,3.73,3.42l-1.35,1.04s-1.76-2.7-4.05-3.94c-2.28-1.24-4.87-2.18-4.87-2.18h0Z"/>
      <path class="cls-7" d="m78.56,74.59s3.11,3,4.77,5.08c1.66,2.07,2.49,4.15,2.49,4.15l1.76-.94s-3.73-5.18-5.08-6.63c-1.35-1.45-3.22-2.39-3.22-2.39,0,0-.3-1.66-.83-2.07-.52-.42-1.97-.21-1.87,1.45.1,1.66,1.97,1.35,1.97,1.35h0Z"/>
    </g>
  </g>
</svg>