<?xml version="1.0" encoding="UTF-8"?>
<svg id="Layer_2" data-name="Layer 2" xmlns="http://www.w3.org/2000/svg" xmlns:xlink="http://www.w3.org/1999/xlink" viewBox="0 0 33.56 19.58">
  <defs>
    <style>
      .cls-1 {
        clip-path: url(#clippath);
      }

      .cls-2 {
        fill: none;
      }

      .cls-2, .cls-3, .cls-4 {
        stroke-width: 0px;
      }

      .cls-5 {
        clip-path: url(#clippath-1);
      }

      .cls-6 {
        clip-path: url(#clippath-4);
      }

      .cls-7 {
        clip-path: url(#clippath-3);
      }

      .cls-8 {
        clip-path: url(#clippath-2);
      }

      .cls-9 {
        clip-path: url(#clippath-7);
      }

      .cls-10 {
        clip-path: url(#clippath-8);
      }

      .cls-11 {
        clip-path: url(#clippath-6);
      }

      .cls-12 {
        clip-path: url(#clippath-5);
      }

      .cls-13 {
        clip-path: url(#clippath-9);
      }

      .cls-14 {
        clip-path: url(#clippath-20);
      }

      .cls-15 {
        clip-path: url(#clippath-21);
      }

      .cls-16 {
        clip-path: url(#clippath-24);
      }

      .cls-17 {
        clip-path: url(#clippath-23);
      }

      .cls-18 {
        clip-path: url(#clippath-22);
      }

      .cls-19 {
        clip-path: url(#clippath-25);
      }

      .cls-20 {
        clip-path: url(#clippath-44);
      }

      .cls-21 {
        clip-path: url(#clippath-45);
      }

      .cls-22 {
        clip-path: url(#clippath-40);
      }

      .cls-23 {
        clip-path: url(#clippath-42);
      }

      .cls-24 {
        clip-path: url(#clippath-41);
      }

      .cls-25 {
        clip-path: url(#clippath-47);
      }

      .cls-26 {
        clip-path: url(#clippath-43);
      }

      .cls-27 {
        clip-path: url(#clippath-46);
      }

      .cls-28 {
        clip-path: url(#clippath-48);
      }

      .cls-29 {
        clip-path: url(#clippath-49);
      }

      .cls-30 {
        clip-path: url(#clippath-27);
      }

      .cls-31 {
        clip-path: url(#clippath-28);
      }

      .cls-32 {
        clip-path: url(#clippath-26);
      }

      .cls-33 {
        clip-path: url(#clippath-29);
      }

      .cls-34 {
        clip-path: url(#clippath-34);
      }

      .cls-35 {
        clip-path: url(#clippath-35);
      }

      .cls-36 {
        clip-path: url(#clippath-36);
      }

      .cls-37 {
        clip-path: url(#clippath-37);
      }

      .cls-38 {
        clip-path: url(#clippath-39);
      }

      .cls-39 {
        clip-path: url(#clippath-33);
      }

      .cls-40 {
        clip-path: url(#clippath-32);
      }

      .cls-41 {
        clip-path: url(#clippath-30);
      }

      .cls-42 {
        clip-path: url(#clippath-38);
      }

      .cls-43 {
        clip-path: url(#clippath-31);
      }

      .cls-44 {
        clip-path: url(#clippath-53);
      }

      .cls-45 {
        clip-path: url(#clippath-54);
      }

      .cls-46 {
        clip-path: url(#clippath-50);
      }

      .cls-47 {
        clip-path: url(#clippath-51);
      }

      .cls-48 {
        clip-path: url(#clippath-52);
      }

      .cls-49 {
        clip-path: url(#clippath-55);
      }

      .cls-50 {
        clip-path: url(#clippath-56);
      }

      .cls-51 {
        clip-path: url(#clippath-14);
      }

      .cls-52 {
        clip-path: url(#clippath-13);
      }

      .cls-53 {
        clip-path: url(#clippath-12);
      }

      .cls-54 {
        clip-path: url(#clippath-10);
      }

      .cls-55 {
        clip-path: url(#clippath-15);
      }

      .cls-56 {
        clip-path: url(#clippath-17);
      }

      .cls-57 {
        clip-path: url(#clippath-16);
      }

      .cls-58 {
        clip-path: url(#clippath-19);
      }

      .cls-59 {
        clip-path: url(#clippath-11);
      }

      .cls-60 {
        clip-path: url(#clippath-18);
      }

      .cls-3 {
        fill: #4eaec4;
      }

      .cls-4 {
        fill: #f5c832;
      }
    </style>
    <clipPath id="clippath">
      <rect class="cls-2" width="33.56" height="19.58"/>
    </clipPath>
    <clipPath id="clippath-1">
      <rect class="cls-2" width="33.56" height="19.58"/>
    </clipPath>
    <clipPath id="clippath-2">
      <rect class="cls-2" width="33.56" height="19.58"/>
    </clipPath>
    <clipPath id="clippath-3">
      <rect class="cls-2" width="33.56" height="19.58"/>
    </clipPath>
    <clipPath id="clippath-4">
      <rect class="cls-2" width="33.56" height="19.58"/>
    </clipPath>
    <clipPath id="clippath-5">
      <rect class="cls-2" width="33.56" height="19.58"/>
    </clipPath>
    <clipPath id="clippath-6">
      <rect class="cls-2" width="33.56" height="19.58"/>
    </clipPath>
    <clipPath id="clippath-7">
      <rect class="cls-2" width="33.56" height="19.58"/>
    </clipPath>
    <clipPath id="clippath-8">
      <rect class="cls-2" width="33.56" height="19.58"/>
    </clipPath>
    <clipPath id="clippath-9">
      <rect class="cls-2" width="33.56" height="19.58"/>
    </clipPath>
    <clipPath id="clippath-10">
      <rect class="cls-2" width="33.56" height="19.58"/>
    </clipPath>
    <clipPath id="clippath-11">
      <rect class="cls-2" width="33.56" height="19.58"/>
    </clipPath>
    <clipPath id="clippath-12">
      <rect class="cls-2" width="33.56" height="19.58"/>
    </clipPath>
    <clipPath id="clippath-13">
      <rect class="cls-2" width="33.56" height="19.58"/>
    </clipPath>
    <clipPath id="clippath-14">
      <rect class="cls-2" width="33.56" height="19.58"/>
    </clipPath>
    <clipPath id="clippath-15">
      <rect class="cls-2" width="33.56" height="19.58"/>
    </clipPath>
    <clipPath id="clippath-16">
      <rect class="cls-2" width="33.56" height="19.58"/>
    </clipPath>
    <clipPath id="clippath-17">
      <rect class="cls-2" width="33.56" height="19.58"/>
    </clipPath>
    <clipPath id="clippath-18">
      <rect class="cls-2" width="33.56" height="19.58"/>
    </clipPath>
    <clipPath id="clippath-19">
      <rect class="cls-2" width="33.56" height="19.58"/>
    </clipPath>
    <clipPath id="clippath-20">
      <rect class="cls-2" width="33.56" height="19.58"/>
    </clipPath>
    <clipPath id="clippath-21">
      <rect class="cls-2" width="33.56" height="19.58"/>
    </clipPath>
    <clipPath id="clippath-22">
      <rect class="cls-2" width="33.56" height="19.58"/>
    </clipPath>
    <clipPath id="clippath-23">
      <rect class="cls-2" width="33.56" height="19.58"/>
    </clipPath>
    <clipPath id="clippath-24">
      <rect class="cls-2" width="33.56" height="19.58"/>
    </clipPath>
    <clipPath id="clippath-25">
      <rect class="cls-2" width="33.56" height="19.58"/>
    </clipPath>
    <clipPath id="clippath-26">
      <rect class="cls-2" width="33.56" height="19.58"/>
    </clipPath>
    <clipPath id="clippath-27">
      <rect class="cls-2" width="33.56" height="19.58"/>
    </clipPath>
    <clipPath id="clippath-28">
      <rect class="cls-2" width="33.56" height="19.58"/>
    </clipPath>
    <clipPath id="clippath-29">
      <rect class="cls-2" width="33.56" height="19.58"/>
    </clipPath>
    <clipPath id="clippath-30">
      <rect class="cls-2" width="33.56" height="19.58"/>
    </clipPath>
    <clipPath id="clippath-31">
      <rect class="cls-2" width="33.56" height="19.58"/>
    </clipPath>
    <clipPath id="clippath-32">
      <rect class="cls-2" width="33.56" height="19.58"/>
    </clipPath>
    <clipPath id="clippath-33">
      <rect class="cls-2" width="33.56" height="19.58"/>
    </clipPath>
    <clipPath id="clippath-34">
      <rect class="cls-2" width="33.56" height="19.58"/>
    </clipPath>
    <clipPath id="clippath-35">
      <rect class="cls-2" width="33.56" height="19.58"/>
    </clipPath>
    <clipPath id="clippath-36">
      <rect class="cls-2" width="33.56" height="19.58"/>
    </clipPath>
    <clipPath id="clippath-37">
      <rect class="cls-2" width="33.56" height="19.58"/>
    </clipPath>
    <clipPath id="clippath-38">
      <rect class="cls-2" width="33.56" height="19.58"/>
    </clipPath>
    <clipPath id="clippath-39">
      <rect class="cls-2" width="33.56" height="19.58"/>
    </clipPath>
    <clipPath id="clippath-40">
      <rect class="cls-2" width="33.56" height="19.58"/>
    </clipPath>
    <clipPath id="clippath-41">
      <rect class="cls-2" width="33.56" height="19.58"/>
    </clipPath>
    <clipPath id="clippath-42">
      <rect class="cls-2" width="33.56" height="19.58"/>
    </clipPath>
    <clipPath id="clippath-43">
      <rect class="cls-2" width="33.56" height="19.58"/>
    </clipPath>
    <clipPath id="clippath-44">
      <rect class="cls-2" width="33.56" height="19.58"/>
    </clipPath>
    <clipPath id="clippath-45">
      <rect class="cls-2" width="33.56" height="19.58"/>
    </clipPath>
    <clipPath id="clippath-46">
      <rect class="cls-2" width="33.56" height="19.58"/>
    </clipPath>
    <clipPath id="clippath-47">
      <rect class="cls-2" width="33.56" height="19.58"/>
    </clipPath>
    <clipPath id="clippath-48">
      <rect class="cls-2" width="33.56" height="19.58"/>
    </clipPath>
    <clipPath id="clippath-49">
      <rect class="cls-2" width="33.56" height="19.58"/>
    </clipPath>
    <clipPath id="clippath-50">
      <rect class="cls-2" width="33.56" height="19.58"/>
    </clipPath>
    <clipPath id="clippath-51">
      <rect class="cls-2" width="33.56" height="19.58"/>
    </clipPath>
    <clipPath id="clippath-52">
      <rect class="cls-2" width="33.56" height="19.58"/>
    </clipPath>
    <clipPath id="clippath-53">
      <rect class="cls-2" width="33.56" height="19.58"/>
    </clipPath>
    <clipPath id="clippath-54">
      <rect class="cls-2" width="33.56" height="19.58"/>
    </clipPath>
    <clipPath id="clippath-55">
      <rect class="cls-2" width="33.56" height="19.58"/>
    </clipPath>
    <clipPath id="clippath-56">
      <rect class="cls-2" width="33.56" height="19.58"/>
    </clipPath>
  </defs>
  <g id="Layer_1-2" data-name="Layer 1">
    <g id="KAZAKHSTAN">
      <g>
        <g class="cls-1">
          <rect class="cls-3" width="33.56" height="19.58"/>
        </g>
        <g class="cls-5">
          <g>
            <g class="cls-8">
              <path class="cls-4" d="m2.2,13.81c0-.39.35-.59.63-.59.37,0,.57.22.57.51,0,.17-.03.27-.11.43,0,0-.62,1.27-.86,1.77-.03.06-.04.13-.04.23,0,.16.15.29.32.29.15,0,.31-.14.31-.3,0-.19-.1-.28-.2-.28-.13,0-.18.05-.18.14,0,.06.03.09.08.09.11,0,.08-.15.08-.15.05.01.1.07.08.14.04.01.08.03.1.06-.03.03-.06.05-.1.06.02.09-.01.12-.09.14.02-.03.02-.06.01-.09-.12.03-.3-.02-.3-.22s.14-.37.4-.33c-.06-.03-.09-.09-.1-.16.05.02.1.02.1.02-.03-.05-.07-.1-.07-.21.05.03.09.07.15.04-.1-.2.02-.46.33-.52-.11.12-.17.27-.17.41,0,.45.13.53.13.84,0,.13-.07.28-.2.38h0c.09.02.14.06.18.12-.2.05-.5.05-.66,0-.18-.02-.31-.16-.35-.23-.04-.07-.11-.33,0-.56.12-.25.69-1.46.87-1.84.04-.08.06-.16.06-.26,0-.23-.21-.31-.33-.31-.15,0-.3.11-.3.25,0,.08.05.14.12.14.16,0,.15-.14.12-.23.1.05.17.12.15.21.06,0,.11.04.16.1-.04.05-.09.09-.16.09.03.14-.06.19-.15.22.03-.09.05-.21-.12-.21-.12,0-.22-.02-.27-.1,0,.1-.01.52-.01.52,0,.16.21.15.35.11-.05.18-.16.28-.4.25.06.02.12.08.12.19,0,.14-.12.31-.2.36l-.04-1.53Z"/>
            </g>
            <g class="cls-7">
              <path class="cls-4" d="m2.28,13.81c0-.39-.35-.59-.63-.59-.37,0-.57.22-.57.51,0,.17.03.27.1.43,0,0,.62,1.27.86,1.77.03.06.04.13.04.23,0,.16-.15.29-.32.29-.15,0-.31-.14-.31-.3,0-.19.1-.28.2-.28.13,0,.18.05.18.14,0,.06-.03.09-.07.09-.11,0-.08-.15-.08-.15-.05.01-.1.07-.07.14-.04.01-.07.03-.11.06.03.03.06.05.11.06-.02.09.01.12.08.14-.02-.03-.02-.06-.01-.09.12.03.3-.02.3-.22s-.14-.37-.4-.33c.06-.03.1-.09.1-.16-.05.02-.1.02-.1.02.03-.05.08-.1.07-.21-.05.03-.1.07-.16.04.1-.2-.02-.46-.33-.52.11.12.17.27.17.41,0,.45-.13.53-.13.84,0,.13.07.28.2.38h0c-.09.02-.15.06-.18.12.2.05.5.05.66,0,.18-.02.31-.16.35-.23.04-.07.11-.33,0-.56-.12-.25-.69-1.46-.87-1.84-.04-.08-.06-.16-.06-.26,0-.23.21-.31.33-.31.14,0,.29.11.29.25,0,.08-.05.14-.11.14-.16,0-.15-.14-.12-.23-.1.05-.16.12-.14.21-.06,0-.11.04-.16.1.04.05.09.09.16.09-.03.14.06.19.14.22-.03-.09-.05-.21.12-.21.12,0,.22-.02.27-.1,0,.1.01.52.01.52,0,.16-.21.15-.35.11.05.18.16.28.41.25-.06.02-.12.08-.12.19,0,.14.12.31.2.36l.04-1.53Z"/>
            </g>
            <g class="cls-6">
              <path class="cls-4" d="m2.24,18.04s.18.15.25.07c.1-.12-.31-.75-.31-.97,0-.36.24-.46.54-.51.2-.04.53.02.53.02-.06.08-.1.11-.2.11.11.06.23.19.23.39,0,.31-.13.44-.13.79,0,.2.16.45.16.45-.28-.03-.42-.29-.34-.5-.05,0-.09,0-.12.04-.02-.06.01-.12.05-.19-.04-.02-.06,0-.12,0,0-.06.05-.12.13-.18-.25.07-.41-.11-.41-.3,0-.14.1-.24.19-.24.03,0,.08,0,.11.03.02-.04,0-.09-.01-.12.07.02.11.05.09.14.05,0,.1.02.12.05-.03.04-.07.06-.12.06.04.08,0,.13-.07.16,0,0,.04-.16-.06-.16-.05,0-.09.02-.09.09,0,.06.05.14.18.14.12,0,.22-.09.22-.28,0-.18-.14-.27-.33-.27-.17,0-.3.09-.3.27,0,.23.34.76.34.97,0,.16-.14.24-.28.24-.18,0-.33-.18-.33-.18l.11-.13Z"/>
            </g>
            <g class="cls-12">
              <path class="cls-4" d="m2.24,18.04s-.19.15-.25.07c-.1-.12.31-.75.31-.97,0-.36-.24-.46-.54-.51-.2-.04-.53.02-.53.02.06.08.1.11.2.11-.11.06-.23.19-.23.39,0,.31.12.44.12.79,0,.2-.16.45-.16.45.28-.03.42-.29.35-.5.04,0,.08,0,.12.04.02-.06-.01-.12-.06-.19.03-.02.06,0,.12,0,0-.06-.04-.12-.13-.18.26.07.41-.11.41-.3,0-.14-.1-.24-.2-.24-.03,0-.07,0-.1.03-.02-.04,0-.09.01-.12-.07.02-.11.05-.08.14-.05,0-.1.02-.12.05.03.04.07.06.12.06-.04.08,0,.13.07.16,0,0-.04-.16.07-.16.05,0,.09.02.09.09,0,.06-.05.14-.18.14-.12,0-.22-.09-.22-.28,0-.18.14-.27.33-.27.17,0,.3.09.3.27,0,.23-.34.76-.34.97,0,.16.14.24.28.24.18,0,.33-.18.33-.18l-.1-.13Z"/>
            </g>
            <g class="cls-11">
              <path class="cls-4" d="m2.2,6.95c0-.39.35-.59.63-.59.37,0,.57.23.57.52,0,.17-.03.27-.11.43,0,0-.62,1.28-.86,1.77-.03.06-.04.14-.04.23,0,.16.15.29.32.29.15,0,.31-.13.31-.3,0-.2-.1-.28-.2-.28-.13,0-.18.05-.18.14,0,.06.03.09.08.09.11,0,.08-.15.08-.15.05.02.1.07.08.14.04,0,.08.03.1.06-.03.02-.06.05-.1.06.02.08-.01.12-.09.14.02-.03.02-.06.01-.09-.12.04-.3-.02-.3-.22s.14-.37.4-.32c-.06-.03-.09-.09-.1-.16.05.02.1.02.1.02-.03-.05-.07-.09-.07-.2.05.02.09.06.15.04-.1-.19.02-.45.33-.52-.11.13-.17.27-.17.41,0,.45.13.53.13.84,0,.13-.07.28-.2.38h0c.09.02.14.06.18.12-.2.06-.5.06-.66,0-.18-.02-.31-.16-.35-.23-.04-.07-.11-.33,0-.56.12-.25.69-1.46.87-1.84.04-.08.06-.16.06-.26,0-.23-.21-.31-.33-.31-.15,0-.3.11-.3.25,0,.09.05.14.12.14.16,0,.15-.14.12-.22.1.05.17.13.15.21.06,0,.11.04.16.1-.04.04-.09.08-.16.09.03.13-.06.19-.15.22.03-.1.05-.21-.12-.21-.12,0-.22-.02-.27-.1,0,.1-.01.52-.01.52,0,.16.21.15.35.11-.05.18-.16.28-.4.25.06.03.12.08.12.19,0,.14-.12.31-.2.36l-.04-1.53Z"/>
            </g>
            <g class="cls-9">
              <path class="cls-4" d="m2.28,6.95c0-.39-.35-.59-.63-.59-.37,0-.57.23-.57.52,0,.17.03.27.1.43,0,0,.62,1.28.86,1.77.03.06.04.14.04.23,0,.16-.15.29-.32.29-.15,0-.31-.13-.31-.3,0-.2.1-.28.2-.28.13,0,.18.05.18.14,0,.06-.03.09-.07.09-.11,0-.08-.15-.08-.15-.05.02-.1.07-.07.14-.04,0-.07.03-.11.06.03.02.06.05.11.06-.02.08.01.12.08.14-.02-.03-.02-.06-.01-.09.12.04.3-.02.3-.22s-.14-.37-.4-.32c.06-.03.1-.09.1-.16-.05.02-.1.02-.1.02.03-.05.08-.09.07-.2-.05.02-.1.06-.16.04.1-.19-.02-.45-.33-.52.11.13.17.27.17.41,0,.45-.13.53-.13.84,0,.13.07.28.2.38h0c-.09.02-.15.06-.18.12.2.06.5.06.66,0,.18-.02.31-.16.35-.23.04-.07.11-.33,0-.56-.12-.25-.69-1.46-.87-1.84-.04-.08-.06-.16-.06-.26,0-.23.21-.31.33-.31.14,0,.29.11.29.25,0,.09-.05.14-.11.14-.16,0-.15-.14-.12-.22-.1.05-.16.13-.14.21-.06,0-.11.04-.16.1.04.04.09.08.16.09-.03.13.06.19.14.22-.03-.1-.05-.21.12-.21.12,0,.22-.02.27-.1,0,.1.01.52.01.52,0,.16-.21.15-.35.11.05.18.16.28.41.25-.06.03-.12.08-.12.19,0,.14.12.31.2.36l.04-1.53Z"/>
            </g>
            <g class="cls-10">
              <path class="cls-4" d="m2.28,5.77c0,.39-.35.59-.63.59-.37,0-.57-.22-.57-.52,0-.16.03-.27.1-.42,0,0,.62-1.28.86-1.77.03-.06.04-.13.04-.23,0-.16-.15-.29-.32-.29-.15,0-.31.14-.31.3,0,.2.1.29.2.29.13,0,.18-.05.18-.14,0-.06-.03-.09-.07-.09-.11,0-.08.15-.08.15-.05-.01-.1-.07-.07-.14-.04-.01-.07-.03-.11-.06.03-.03.06-.05.11-.06-.02-.09.01-.13.08-.14-.02.04-.02.06-.01.09.12-.04.3.02.3.22s-.14.37-.4.32c.06.03.1.09.1.16-.05-.02-.1-.02-.1-.02.03.05.08.1.07.21-.05-.02-.1-.07-.16-.04.1.19-.02.46-.33.52.11-.13.17-.27.17-.41,0-.45-.13-.53-.13-.85,0-.13.07-.27.2-.37h0c-.09-.02-.15-.07-.18-.12.2-.06.5-.06.66,0,.18.02.31.16.35.23.04.07.11.33,0,.56-.12.25-.69,1.46-.87,1.84-.04.08-.06.17-.06.26,0,.23.21.32.33.32.14,0,.29-.11.29-.25,0-.09-.05-.14-.11-.14-.16,0-.15.14-.12.23-.1-.04-.16-.13-.14-.21-.06,0-.11-.04-.16-.09.04-.05.09-.09.16-.09-.03-.13.06-.19.14-.22-.03.09-.05.21.12.21.12,0,.22.02.27.1,0-.11.01-.52.01-.52,0-.16-.21-.15-.35-.11.05-.18.16-.28.41-.25-.06-.02-.12-.08-.12-.19,0-.14.12-.31.2-.36l.04,1.52Z"/>
            </g>
            <g class="cls-13">
              <path class="cls-4" d="m2.2,5.77c0,.39.35.59.63.59.37,0,.57-.22.57-.52,0-.16-.03-.27-.11-.42,0,0-.62-1.28-.86-1.77-.03-.06-.04-.13-.04-.23,0-.16.15-.29.32-.29.15,0,.31.14.31.3,0,.2-.1.29-.2.29-.13,0-.18-.05-.18-.14,0-.06.03-.09.08-.09.11,0,.08.15.08.15.05-.01.1-.07.08-.14.04-.01.08-.03.1-.06-.03-.03-.06-.05-.1-.06.02-.09-.01-.13-.09-.14.02.04.02.06.01.09-.12-.04-.3.02-.3.22s.14.37.4.32c-.06.03-.09.09-.1.16.05-.02.1-.02.1-.02-.03.05-.07.1-.07.21.05-.02.09-.07.15-.04-.1.19.02.46.33.52-.11-.13-.17-.27-.17-.41,0-.45.13-.53.13-.85,0-.13-.07-.27-.2-.37h0c.09-.02.14-.07.18-.12-.2-.06-.5-.06-.66,0-.18.02-.31.16-.35.23-.04.07-.11.33,0,.56.12.25.69,1.46.87,1.84.04.08.06.17.06.26,0,.23-.21.32-.33.32-.15,0-.3-.11-.3-.25,0-.09.05-.14.12-.14.16,0,.15.14.12.23.1-.04.17-.13.15-.21.06,0,.11-.04.16-.09-.04-.05-.09-.09-.16-.09.03-.13-.06-.19-.15-.22.03.09.05.21-.12.21-.12,0-.22.02-.27.1,0-.11-.01-.52-.01-.52,0-.16.21-.15.35-.11-.05-.18-.16-.28-.4-.25.06-.02.12-.08.12-.19,0-.14-.12-.31-.2-.36l-.04,1.52Z"/>
            </g>
            <g class="cls-54">
              <path class="cls-4" d="m2.28,12.63c0,.39-.35.59-.63.59-.37,0-.57-.23-.57-.52,0-.17.03-.27.1-.43,0,0,.62-1.28.86-1.77.03-.06.04-.13.04-.23,0-.16-.15-.29-.32-.3-.15,0-.31.14-.31.3,0,.2.1.29.2.29.13,0,.18-.05.18-.14,0-.06-.03-.09-.07-.09-.11,0-.08.15-.08.15-.05-.02-.1-.07-.07-.14-.04,0-.07-.03-.11-.06.03-.03.06-.05.11-.06-.02-.08.01-.12.08-.14-.02.04-.02.07-.01.09.12-.04.3.02.3.22s-.14.37-.4.33c.06.03.1.09.1.16-.05-.02-.1-.02-.1-.02.03.05.08.1.07.21-.05-.02-.1-.06-.16-.04.1.19-.02.45-.33.52.11-.13.17-.27.17-.41,0-.45-.13-.53-.13-.85,0-.13.07-.27.2-.37h0c-.09-.02-.15-.06-.18-.12.2-.05.5-.05.66,0,.18.02.31.16.35.23.04.07.11.33,0,.56-.12.25-.69,1.46-.87,1.84-.04.08-.06.16-.06.26,0,.23.21.31.33.31.14,0,.29-.11.29-.25,0-.09-.05-.14-.11-.14-.16,0-.15.14-.12.23-.1-.05-.16-.12-.14-.21-.06,0-.11-.03-.16-.09.04-.05.09-.09.16-.09-.03-.14.06-.2.14-.23-.03.1-.05.21.12.21.12,0,.22.02.27.1,0-.11.01-.52.01-.52,0-.16-.21-.15-.35-.11.05-.18.16-.27.41-.25-.06-.02-.12-.08-.12-.19,0-.15.12-.31.2-.36l.04,1.53Z"/>
            </g>
            <g class="cls-59">
              <path class="cls-4" d="m2.2,12.63c0,.39.35.59.63.59.37,0,.57-.23.57-.52,0-.17-.03-.27-.11-.43,0,0-.62-1.28-.86-1.77-.03-.06-.04-.13-.04-.23,0-.16.15-.29.32-.3.15,0,.31.14.31.3,0,.2-.1.29-.2.29-.13,0-.18-.05-.18-.14,0-.06.03-.09.08-.09.11,0,.08.15.08.15.05-.02.1-.07.08-.14.04,0,.08-.03.1-.06-.03-.03-.06-.05-.1-.06.02-.08-.01-.12-.09-.14.02.04.02.07.01.09-.12-.04-.3.02-.3.22s.14.37.4.33c-.06.03-.09.09-.1.16.05-.02.1-.02.1-.02-.03.05-.07.1-.07.21.05-.02.09-.06.15-.04-.1.19.02.45.33.52-.11-.13-.17-.27-.17-.41,0-.45.13-.53.13-.85,0-.13-.07-.27-.2-.37h0c.09-.02.14-.06.18-.12-.2-.05-.5-.05-.66,0-.18.02-.31.16-.35.23-.04.07-.11.33,0,.56.12.25.69,1.46.87,1.84.04.08.06.16.06.26,0,.23-.21.31-.33.31-.15,0-.3-.11-.3-.25,0-.09.05-.14.12-.14.16,0,.15.14.12.23.1-.05.17-.12.15-.21.06,0,.11-.03.16-.09-.04-.05-.09-.09-.16-.09.03-.14-.06-.2-.15-.23.03.1.05.21-.12.21-.12,0-.22.02-.27.1,0-.11-.01-.52-.01-.52,0-.16.21-.15.35-.11-.05-.18-.16-.27-.4-.25.06-.02.12-.08.12-.19,0-.15-.12-.31-.2-.36l-.04,1.53Z"/>
            </g>
            <g class="cls-53">
              <path class="cls-4" d="m2.24,1.54s.18-.16.25-.08c.1.13-.31.76-.31.98,0,.36.24.46.54.51.2.03.53-.01.53-.01-.06-.09-.1-.11-.2-.11.11-.06.23-.19.23-.39,0-.31-.13-.44-.13-.79,0-.2.16-.44.16-.44-.28.02-.42.29-.34.5-.05,0-.09,0-.12-.04-.02.06.01.12.05.18-.04.02-.06,0-.12,0,0,.06.05.12.13.18-.25-.07-.41.11-.41.3,0,.14.1.24.19.24.03,0,.08-.02.11-.04.02.04,0,.1-.01.13.07-.02.11-.06.09-.15.05,0,.1-.02.12-.05-.03-.04-.07-.06-.12-.06.04-.08,0-.12-.07-.16,0,0,.04.16-.06.16-.05,0-.09-.02-.09-.08s.05-.14.18-.14c.12,0,.22.08.22.28,0,.18-.14.27-.33.27-.17,0-.3-.09-.3-.26,0-.24.34-.77.34-.98,0-.16-.14-.25-.28-.25-.18,0-.33.18-.33.18l.11.13Z"/>
            </g>
            <g class="cls-52">
              <path class="cls-4" d="m2.24,1.54s-.19-.16-.25-.08c-.1.13.31.76.31.98,0,.36-.24.46-.54.51-.2.03-.53-.01-.53-.01.06-.09.1-.11.2-.11-.11-.06-.23-.19-.23-.39,0-.31.12-.44.12-.79,0-.2-.16-.44-.16-.44.28.02.42.29.35.5.04,0,.08,0,.12-.04.02.06-.01.12-.06.18.03.02.06,0,.12,0,0,.06-.04.12-.13.18.26-.07.41.11.41.3,0,.14-.1.24-.2.24-.03,0-.07-.02-.1-.04-.02.04,0,.1.01.13-.07-.02-.11-.06-.08-.15-.05,0-.1-.02-.12-.05.03-.04.07-.06.12-.06-.04-.08,0-.12.07-.16,0,0-.04.16.07.16.05,0,.09-.02.09-.08s-.05-.14-.18-.14c-.12,0-.22.08-.22.28,0,.18.14.27.33.27.17,0,.3-.09.3-.26,0-.24-.34-.77-.34-.98,0-.16.14-.25.28-.25.18,0,.33.18.33.18l-.1.13Z"/>
            </g>
            <g class="cls-51">
              <path class="cls-3" d="m1.88,12.6s-.07-.01-.12,0c-.05,0-.09.04-.08.07s.07.02.12,0c.05-.02.09-.04.08-.07h0Z"/>
            </g>
            <g class="cls-55">
              <path class="cls-3" d="m1.71,12.7h-.02l-.03-.04s.03-.07.1-.09c.04,0,.07-.02.1-.02h.02l.03.04s-.03.08-.1.09c-.03,0-.07.01-.09.01h0Z"/>
            </g>
            <g class="cls-57">
              <path class="cls-4" d="m17.52,13.3c-2.63,0-4.48-2.1-4.64-4.21,0,0-.1-.04-.12.05-.03.22.07.91.03.86-.06-.09-.54-1.37-.63-1.23-.12.19.54,1.65.5,1.7-.13.16-.88-1.43-.94-1.31-.23.45.93,1.88.92,1.94-.02.19-.88-.77-.95-.67-.16.23.92,1.09.98,1.15.17.19-.59-.34-.61-.16-.02.15.37.46.6.59.23.13.31.09.37.21.05.09-.44-.05-.42.05.02.21.53.17.61.26.08.09-.34.02-.32.1.03.14.45.16.46.21,0,.06-.27.02-.25.13.02.1.44.08.54.15.1.07-.38,0,0,.19.37.19.8.39,1.38.51.58.12.88-.01.9-.05.02-.04-.28.03-.69-.04-.41-.08-.97-.34-1.19-.47-.07-.04.22-.12.16-.2-.06-.08-.3.01-.39-.1-.06-.07.11-.07.11-.12,0-.04-.32-.12-.38-.2-.06-.08.14-.06.15-.12,0-.04-.2-.11-.21-.16-.02-.05.23-.04.11-.11-.12-.07-.46-.15-.52-.27-.06-.11.25.02.17-.09-.06-.08-.36-.21-.43-.38-.04-.12.22-.02.22-.09,0-.12-.15-.04-.2-.39-.02-.11.2-.04.2-.04l.03-.06s.26.14.59.53c.33.39.43.75.74,1.01.15.13.16-.05.5.16.34.21.48.36.84.67.05.04.28-.04.97.1.37.08.45.27.45.27,0,0,.21-.12.3-.27.04-.06.08,0,.09-.02.04-.03,0-.08,0-.08h0Z"/>
            </g>
            <g class="cls-56">
              <path class="cls-4" d="m15.44,13.9c-.14,0-.29-.02-.45-.05-.61-.12-1.05-.35-1.39-.51-.11-.06-.16-.09-.15-.13,0-.04.06-.05.11-.05.02,0,.05,0,.05-.02-.05-.02-.15-.04-.25-.05-.16-.02-.29-.04-.3-.11h0s.02-.05.02-.05c.03-.04.1-.05.15-.06.03,0,.08-.02.08-.02-.01-.01-.08-.03-.14-.04-.14-.04-.3-.07-.32-.17.03-.06.09-.06.19-.06.05,0,.14,0,.15-.02-.03-.04-.13-.05-.22-.07-.18-.03-.38-.07-.39-.21.05-.1.15-.07.27-.05.05,0,.09,0,.12,0,0-.06-.04-.07-.1-.09-.05-.02-.12-.04-.23-.1-.21-.12-.63-.44-.61-.61,0-.02.02-.06.07-.06.09,0,.27.09.41.16.07.04.15.08.17.08-.04-.02-.08-.06-.14-.11-.5-.43-.99-.89-.87-1.08.1-.02.25.11.48.33.18.16.4.36.46.36,0-.03-.07-.12-.14-.23-.31-.45-.95-1.38-.77-1.72.08-.02.17.13.39.52.18.31.46.79.55.79,0-.03-.07-.24-.14-.44-.24-.62-.42-1.14-.35-1.26.1-.02.26.29.52.91.06.13.11.25.13.3-.01-.04-.02-.14-.03-.22-.01-.21-.04-.48-.02-.61,0-.05.04-.08.09-.08.03,0,.05.01.05.01.17,2.07,1.94,4.2,4.62,4.2.03.01.06.04.06.07h0s-.02.05-.02.05l-.03-.02h-.03c-.12.17-.32.31-.34.31-.02-.04-.11-.21-.45-.28-.38-.07-.61-.09-.76-.09h-.12c-.05,0-.08,0-.1-.02l-.2-.17c-.22-.2-.36-.32-.63-.49-.16-.1-.24-.11-.29-.11h-.07s-.08,0-.14-.05c-.18-.15-.29-.33-.4-.53-.09-.16-.19-.32-.34-.5-.33-.38-.58-.53-.59-.53v.05s-.09-.01-.15-.01c-.02,0-.04,0-.05.01.02.23.09.28.14.32.04.02.06.05.06.1,0,.05-.06.05-.09.05h-.08s-.05,0-.06,0c.04.14.18.23.29.3.06.04.11.07.14.11h0s0,.05,0,.05c-.01.02-.04.02-.06.02h-.1c.01.09.18.16.31.22.07.02.13.05.17.07.02,0,.04.03.04.05,0,.03-.04.04-.08.04-.02,0-.06.02-.07.02,0,.02.07.05.11.07.07.04.11.06.11.09,0,.04-.05.05-.09.06-.02,0-.07.02-.07.03.03.05.14.1.23.13.11.04.16.06.16.09s-.04.05-.07.06c-.02,0-.05.02-.05.03.05.07.14.07.22.07.07,0,.14,0,.18.05v.04s-.05.08-.1.11c-.02.02-.06.04-.06.05.2.11.76.39,1.19.46.14.03.27.04.43.04.06,0,.11,0,.15,0h.07s.05,0,.06.01c-.02.06-.18.14-.47.14h0Zm-2.75-1.65c-.06,0-.07,0-.08.02.01.12.21.15.36.18.12.02.21.03.24.07h0s0,.05,0,.05c-.02.04-.08.04-.18.04-.05,0-.14,0-.15.02.01.07.18.11.29.14.11.03.17.04.17.08,0,.04-.05.05-.12.06-.05.01-.11.02-.13.04,0,.07.15.09.26.1.11.02.21.03.26.06l.02.04s-.04.03-.08.04c-.02,0-.07.01-.08.02,0,0,0,.03.13.09.33.16.77.39,1.38.5.16.04.3.05.44.05.28,0,.43-.07.44-.09l-.09.02s-.09,0-.15,0c-.15,0-.3-.02-.43-.04-.43-.08-.99-.35-1.2-.47-.02-.06.02-.08.06-.11.04-.02.09-.06.1-.08-.02-.05-.08-.05-.15-.05-.09,0-.18,0-.24-.07l-.02-.05s.04-.04.07-.06c.01,0,.04-.02.05-.02-.01-.01-.08-.04-.14-.06-.1-.03-.21-.07-.24-.12v-.05s.04-.04.08-.05c.02,0,.06-.02.06-.03,0-.01-.05-.04-.09-.05-.07-.04-.12-.06-.13-.1.02-.05.05-.06.1-.07.02,0,.05-.01.05-.02-.06-.04-.12-.05-.19-.08-.15-.05-.32-.12-.36-.21h0v-.06s.07-.02.12-.02h.05s-.05-.07-.11-.11c-.11-.08-.26-.17-.3-.29,0-.02,0-.04,0-.06.02-.02.05-.03.09-.03h.08s.05,0,.05-.01c0-.04-.02-.05-.05-.07-.05-.04-.12-.1-.16-.32,0-.02,0-.04.02-.05.04-.05.21,0,.21,0v-.05h0s.3.14.62.53c.15.18.25.34.35.5.11.19.22.37.39.52.05.04.08.04.11.04h.07c.06,0,.15.02.32.12.27.17.41.29.64.49l.2.18s.05.01.07.01h.12c.15,0,.39,0,.77.09.38.08.46.27.46.28,0-.02.18-.15.27-.27.01-.03.03-.04.05-.04h.04s0-.05,0-.05l-.02.02c-2.7,0-4.48-2.14-4.65-4.21h-.03s-.05,0-.05.04c-.02.12,0,.39.02.59.02.23.02.27,0,.28-.05-.03-.1-.14-.18-.34-.12-.29-.38-.89-.45-.89-.07.11.2.81.35,1.23.15.39.17.45.15.46l-.04.02c-.1,0-.3-.32-.58-.8-.14-.24-.3-.51-.34-.52-.16.32.47,1.24.78,1.68.13.2.16.23.15.25v.02s-.05.02-.05.02c-.07,0-.23-.14-.49-.37-.17-.16-.37-.34-.42-.34-.12.18.62.82.86,1.02.06.05.1.09.11.1.02.03.03.05.03.06-.05.01-.11-.01-.21-.07-.13-.06-.31-.16-.39-.16-.03,0-.03.02-.04.02-.02.13.34.43.59.57.1.06.17.09.22.1.07.02.12.04.16.11-.02.12-.11.06-.19.05-.05,0-.1-.01-.15-.01h0Z"/>
            </g>
            <g class="cls-60">
              <path class="cls-4" d="m19.29,14.09c-.1-.02-.09.05-.09.05,0,.09-.06.2-.14.22-.06.01-.03.06-.05.1h-.26c-.4.21-.91.29-1.52.21,0,0-.13.1-.24.2-.11.11-.2.13-.22.21-.02.09.06.12.16.13s.24-.09.24-.09c0,0,.02.08.11.09.1,0,.27-.06.27-.06,0,0,.15.07.26.05.11-.02.21-.09.21-.09,0,0,.03.13.14.13.11,0,.28-.14.28-.14,0,0,.08.1.19.08.11-.01.23-.14.23-.14,0,0,.13.06.25.02.12-.04.24-.16.24-.16,0,0,.11.09.2.05.1-.03.16-.17.16-.17,0,0,.26.11.43.02.12-.05.09-.25.09-.25,0,0,.71.1.68-.36,0-.05-1.15-.04-1.65-.13h0Z"/>
            </g>
            <g class="cls-58">
              <path class="cls-4" d="m18.19,15.27h0c-.1,0-.14-.1-.16-.14-.01.03-.09.08-.19.09-.14,0-.27-.05-.27-.05,0,0-.15.06-.25.06-.1,0-.14-.06-.15-.1-.01.03-.13.11-.22.11-.09,0-.15-.03-.18-.06-.02-.03-.02-.06-.01-.09.02-.05.06-.09.12-.13.03-.02.06-.05.1-.08.11-.1.24-.2.24-.2.15.01.29.02.42.02.42,0,.79-.08,1.1-.25h.26s0-.07.05-.09c.07-.02.13-.11.13-.2,0,0,0-.03.01-.05.02-.02.04-.03.06-.03.31.06.78.08,1.15.09.51.02.54.03.55.06,0,.11-.02.19-.08.25-.11.12-.31.14-.46.14h0c-.08,0-.14,0-.15-.01.02.02.04.19-.08.25-.14.07-.41,0-.44-.02,0,.02-.06.14-.15.17-.09.03-.2-.04-.22-.06,0,.02-.11.13-.22.16-.11.03-.25-.02-.26-.02,0,0-.11.12-.22.14h0c-.11,0-.19-.08-.2-.09,0,.02-.16.15-.27.15h0Zm-.16-.17s.06.13.16.13v.02s0-.02,0-.02c.1,0,.27-.14.27-.14.03,0,.09.08.18.08.11-.01.23-.13.24-.13.02,0,.09.02.17.02.03,0,.06,0,.08-.01.12-.04.23-.15.23-.15.02,0,.1.06.17.06.12-.04.19-.16.19-.17.03,0,.16.04.29.04.06,0,.11-.01.15-.03.11-.05.08-.23.08-.23.02-.02.09-.01.18-.01h0c.14,0,.33-.02.43-.13.05-.06.08-.12.07-.22-.02,0-.27-.01-.51-.02-.38-.02-.85-.03-1.13-.08h-.05c0,.14-.07.25-.16.27-.02,0-.03.02-.03.04,0,.01,0,.04-.01.05h-.27c-.39.22-.91.29-1.53.23,0,0-.11.09-.22.19-.04.04-.08.06-.11.08-.06.04-.09.06-.1.11,0,.02,0,.04,0,.05.02.03.07.05.14.05h0c.1,0,.23-.09.23-.09.03.02.05.08.13.09h0c.11,0,.26-.05.26-.05.02,0,.13.05.24.05.14-.01.23-.08.23-.08h0Z"/>
            </g>
            <g class="cls-14">
              <path class="cls-4" d="m17.77,13.59s.21-.08.57-.15c.69-.14.93-.1.98-.14.55-.61.95-.65,1.34-.81.32-.27.42-.64.75-1.03.33-.39.53-.42.53-.42l.04.09s.18-.13.17-.02c-.01.17-.16.34-.15.45,0,.08.24-.03.22.04-.06.18-.25.29-.3.37-.09.12.22-.04.16.08-.06.12-.37.24-.49.32-.07.04.08.05.07.11-.02.05-.33.17-.32.21,0,.05.08.06.05.1-.07.07-.33.08-.33.13,0,.05.05.09,0,.16-.09.12-.16,0-.2.09-.02.05.15.16.04.18-.16.03-.28.1-.41.18-.05.03-.28.08-.42.11-.09.02-.58.08-.55.12.02.04.33.04.98-.08.28-.05.44-.08.88-.22.5-.16-.13-.17-.02-.24s.54-.04.55-.13c.02-.11-.24-.08-.24-.14,0-.06.53-.06.56-.2.02-.08-.3-.02-.22-.11.07-.09.49-.12.51-.3,0-.11-.34.03-.3-.06.02-.04.16-.08.3-.17.22-.16.57-.42.55-.57-.02-.19-.72.43-.66.2.02-.09,1.14-.97.96-1.19-.13-.14-.93.81-.95.62,0-.06,1.25-1.48,1.02-1.92-.06-.12-1.01,1.7-1.14,1.54-.04-.04.8-1.79.67-1.96-.06-.09-.2.2-.34.52-.14.32-.3.68-.33.72-.03.05.04-.68,0-.91-.01-.09-.11-.05-.11-.05-.15,2.27-2.33,3.95-4.06,4.2-.45.06-.59.28-1.09.56-.16.09-.42.13-.64.26-.22.12-.38.31-.45.43-.04.05.02.22.06.24.05.02.05-.12.1-.15.05-.02.05.05.11.05.06,0,.13-.06.13-.06,0,0,1.23,0,1.75-.02.1,0,.25-.04.32-.11-.02-.06-.16-.03-.25-.02-.37-.02-.86,0-1.2-.02,0,0-.05,0-.05-.06,0-.02.22-.26.22-.26h-.17s-.1.06-.16.06c-.05,0-.07-.03-.05-.04.26-.2,1.04-.55,1.04-.55h0Z"/>
            </g>
            <g class="cls-15">
              <path class="cls-4" d="m15.99,14.8h-.02s-.06-.08-.07-.1c-.02-.05-.03-.12,0-.16.08-.14.25-.32.46-.43.12-.07.24-.11.36-.15.1-.04.2-.07.28-.11.16-.09.28-.17.39-.25.23-.15.4-.27.71-.31,1.84-.26,3.9-2.01,4.05-4.18.04-.05.14-.02.15.05.02.12,0,.39,0,.6,0,.14-.02.28-.01.3,0-.04.14-.33.26-.61l.05-.11c.17-.37.26-.55.34-.55h0l.03.03c.09.11-.16.73-.47,1.47-.1.24-.2.46-.2.49.09,0,.42-.54.66-.93.28-.46.39-.62.44-.62.2.36-.49,1.28-.82,1.72-.08.11-.16.2-.16.22.06,0,.23-.15.38-.28.2-.18.41-.37.52-.37h0l.05.02c.13.15-.29.56-.73.98-.11.1-.23.21-.23.23.05.03.16-.04.27-.1.2-.12.38-.2.39-.11.01.12-.17.32-.56.59-.07.05-.15.08-.2.11-.04.02-.08.04-.09.05.04,0,.07,0,.1,0,.08,0,.16,0,.18.02l.02.04c-.01.12-.18.18-.32.22-.08.03-.16.05-.19.09,0,.02.06.03.09.04.06,0,.11.01.13.04-.01.13-.21.16-.38.19-.07.02-.16.03-.18.04,0,0,.05.02.08.02.07.01.17.04.16.12-.01.07-.15.08-.31.1-.11.01-.22.02-.26.05,0,0,.05.02.08.03.08.02.15.04.15.09,0,.03-.03.07-.21.12-.44.14-.6.18-.88.23-.5.08-.75.1-.85.1-.11,0-.14-.02-.15-.04.02-.05.1-.07.4-.12.07-.01.14-.02.17-.03.04-.01.09-.02.14-.04.11-.03.23-.05.27-.07.13-.08.25-.15.42-.18.02-.02,0-.05-.01-.07-.02-.03-.05-.07-.04-.1.01-.04.03-.05.07-.05l.05.02v-.02s.05,0,.08-.05c.03-.04.02-.07.01-.09,0-.02-.01-.04-.01-.05,0-.04.05-.05.14-.07.07-.01.16-.04.19-.07-.02-.03-.05-.05-.05-.08,0-.03.04-.05.16-.12.06-.03.16-.08.17-.1,0-.01-.02-.02-.04-.03-.02-.01-.05-.03-.05-.05h0s.03-.04.03-.04c.03-.02.08-.05.14-.08.13-.07.3-.15.34-.23-.03-.02-.05-.02-.07-.01-.02,0-.04,0-.05,0l-.05-.02s0-.04.02-.05c.02-.02.05-.05.08-.08.08-.07.18-.16.22-.28-.03,0-.05,0-.07,0-.1.02-.15,0-.15-.04,0-.06.03-.14.06-.22.04-.08.08-.16.08-.24-.04-.02-.11.02-.14.04l-.07-.09s-.19.06-.5.42c-.15.17-.25.34-.35.5-.12.2-.23.39-.41.53-.07.04-.15.05-.22.08-.33.11-.68.23-1.12.73-.02.02-.07.03-.17.04-.15,0-.4.02-.82.11-.36.07-.57.15-.57.16,0,0-.79.35-1.05.55.08,0,.16-.04.19-.05h.18c-.09.14-.2.26-.2.28l.03.06v-.02c.35.02.83,0,1.2.03h.06c.08-.02.18-.04.2.04-.08.09-.24.13-.34.13-.52.02-1.72.02-1.75.02,0,0-.07.06-.13.06h0s-.06-.02-.07-.04c-.04,0-.06.04-.07.06-.01.03-.02.07-.06.07h0Zm6.22-5.69s-.04,0-.04,0c-.13,2.17-2.21,3.93-4.07,4.2-.3.04-.46.16-.69.31-.11.08-.23.16-.39.25-.08.05-.18.08-.29.11-.12.04-.24.08-.36.15-.2.11-.36.29-.44.42-.02.02-.01.07,0,.13.02.05.04.08.05.08h0s.02-.04.02-.05c.01-.04.02-.08.06-.1.05,0,.06.01.08.02.01.02.02.03.04.03.05,0,.12-.05.12-.05.01,0,1.24,0,1.76-.03.08,0,.24-.03.3-.1-.01,0-.03,0-.07,0-.03,0-.07,0-.09,0h-.07c-.37-.02-.86,0-1.2-.02,0,0-.03,0-.05-.02-.01-.02-.02-.03-.02-.06,0-.02.08-.11.23-.27l-.16.04h0s-.1.06-.15.06c-.05,0-.07-.01-.08-.04v-.02s.01-.02.01-.02c.27-.2,1.02-.54,1.06-.56,0,0,.21-.08.57-.16.42-.09.67-.11.82-.12.08,0,.13,0,.15-.02.45-.5.8-.62,1.14-.74.07-.02.14-.05.21-.07.17-.14.28-.32.4-.52.1-.16.2-.32.35-.5.34-.39.53-.43.54-.43l.06.09s.07-.07.12-.07l.04.02s.01.03.01.05c0,.09-.05.18-.08.26-.04.07-.07.14-.06.2.05.01.08,0,.11,0,.02,0,.05,0,.07,0l.05.02c-.04.16-.15.26-.23.32-.03.03-.06.05-.08.08,0,.02.02.01.05,0s.05,0,.06,0h.01l.04.02s0,.05,0,.05c-.05.09-.21.18-.35.25-.06.03-.11.05-.14.07.04.04.08.06.07.1-.01.03-.07.07-.19.12-.05.03-.13.07-.14.08,0,.01.01.02.03.03l.03.04c-.05.08-.15.1-.23.12-.04.01-.1.03-.11.04.02.07.04.12,0,.17-.04.06-.08.07-.11.07h-.05s-.02,0-.04.02c0,.01.02.04.04.07.03.03.05.07.04.09,0,.02-.02.03-.05.03-.16.04-.28.1-.4.18-.04.02-.15.05-.28.08-.05.01-.1.02-.14.04-.03,0-.09.02-.17.03-.11.02-.3.04-.36.07.05,0,.17.04.94-.09.28-.05.44-.08.88-.22.18-.06.18-.09.18-.09,0-.02-.09-.05-.12-.05-.07-.02-.11-.04-.11-.06h0s.02-.04.02-.04c.05-.03.16-.05.27-.05.11-.01.27-.03.27-.07,0-.04-.05-.05-.13-.07-.06-.01-.11-.02-.11-.07,0-.04.06-.05.2-.07.14-.02.34-.05.36-.12-.01-.02-.07-.02-.1-.03-.06,0-.12-.01-.13-.04h0s.02-.05.02-.05c.04-.04.12-.07.21-.09.13-.04.29-.09.3-.19-.01-.03-.08-.02-.16-.02-.06,0-.12.02-.14-.02.01-.06.05-.08.11-.11.05-.03.13-.06.2-.11.49-.34.55-.49.54-.55-.08-.02-.22.06-.33.13-.12.07-.23.13-.29.14l-.04-.02s0-.04,0-.07c0-.02.07-.08.24-.25.3-.27.84-.78.72-.92-.11,0-.33.19-.51.35-.2.18-.33.3-.4.3h-.02l-.03-.04s.02-.06.18-.25c.33-.43,1.02-1.34.85-1.66-.03.02-.23.33-.4.61-.35.57-.59.95-.7.95-.05-.04-.04-.08.16-.54.21-.5.56-1.33.48-1.44-.06,0-.21.3-.31.52l-.05.11c-.13.3-.26.58-.29.62-.05-.01-.05-.05-.04-.32.01-.21.02-.48,0-.59,0-.03-.02-.04-.05-.04h0Z"/>
            </g>
            <g class="cls-18">
              <path class="cls-3" d="m16.56,14.34s-.06,0-.1,0c-.05.01-.07.03-.07.05,0,.03.06.02.1,0,.04-.01.07-.03.07-.06h0Z"/>
            </g>
            <g class="cls-17">
              <path class="cls-3" d="m16.42,14.43h-.02l-.03-.03s.03-.07.08-.08c.04,0,.06-.01.08-.01h.02l.02.03s-.03.07-.08.08c-.03,0-.05.01-.08.01h0Z"/>
            </g>
            <g class="cls-16">
              <path class="cls-4" d="m18.12,5.44c.15.03.22-.05.24-.16.03-.15-.03-.89-.03-.89,0,0-.34.66-.37.81-.02.12.01.22.16.25h0Z"/>
            </g>
            <g class="cls-19">
              <path class="cls-4" d="m18.67,5.61c.14.06.23,0,.27-.11.06-.14.14-.88.14-.88,0,0-.47.58-.52.72-.04.11-.03.21.11.27h0Z"/>
            </g>
            <g class="cls-32">
              <path class="cls-4" d="m19.16,5.88c.12.08.23.03.29-.06.08-.12.31-.83.31-.83,0,0-.57.48-.65.61-.06.09-.07.2.06.29h0Z"/>
            </g>
            <g class="cls-30">
              <path class="cls-4" d="m19.6,6.23c.11.11.21.08.29,0,.11-.1.47-.75.47-.75,0,0-.65.36-.76.46-.08.08-.11.19,0,.29h0Z"/>
            </g>
            <g class="cls-31">
              <path class="cls-4" d="m19.96,6.67c.08.12.2.12.29.05.13-.09.61-.65.61-.65,0,0-.71.23-.83.31-.09.06-.14.16-.06.29h0Z"/>
            </g>
            <g class="cls-33">
              <path class="cls-4" d="m20.22,7.16c.06.14.17.16.27.11.14-.06.72-.52.72-.52,0,0-.74.09-.88.14-.11.04-.17.13-.11.27h0Z"/>
            </g>
            <g class="cls-41">
              <path class="cls-4" d="m20.39,7.71c.03.14.13.18.24.16.15-.03.81-.37.81-.37,0,0-.74-.06-.89-.04-.11.02-.19.1-.17.25h0Z"/>
            </g>
            <g class="cls-43">
              <path class="cls-4" d="m20.44,8.27c0,.15.1.21.21.21.15,0,.86-.21.86-.21,0,0-.71-.21-.86-.21-.11,0-.21.05-.21.21h0Z"/>
            </g>
            <g class="cls-40">
              <path class="cls-4" d="m20.39,8.83c-.03.15.05.22.17.24.14.03.89-.03.89-.03,0,0-.66-.34-.81-.38-.11-.02-.22.01-.24.16h0Z"/>
            </g>
            <g class="cls-39">
              <path class="cls-4" d="m20.22,9.37c-.05.14,0,.23.11.27.14.06.88.14.88.14,0,0-.58-.46-.72-.52-.1-.04-.21-.03-.27.11h0Z"/>
            </g>
            <g class="cls-34">
              <path class="cls-4" d="m19.96,9.87c-.08.12-.03.22.06.29.12.08.83.31.83.31,0,0-.48-.57-.61-.66-.09-.06-.2-.07-.29.06h0Z"/>
            </g>
            <g class="cls-35">
              <path class="cls-4" d="m19.6,10.3c-.11.11-.08.21,0,.3.11.1.76.46.76.46,0,0-.36-.66-.47-.76-.08-.08-.19-.11-.29,0h0Z"/>
            </g>
            <g class="cls-36">
              <path class="cls-4" d="m19.16,10.66c-.12.09-.12.2-.06.29.09.13.65.61.65.61,0,0-.23-.71-.31-.83-.06-.1-.16-.14-.29-.06h0Z"/>
            </g>
            <g class="cls-37">
              <path class="cls-4" d="m18.67,10.93c-.14.06-.15.16-.11.27.06.14.52.72.52.72,0,0-.08-.74-.14-.88-.04-.1-.13-.17-.27-.11h0Z"/>
            </g>
            <g class="cls-42">
              <path class="cls-4" d="m15.97,10.66c-.13-.08-.23-.04-.29.06-.08.12-.31.83-.31.83,0,0,.57-.48.65-.61.07-.09.07-.2-.05-.29h0Z"/>
            </g>
            <g class="cls-38">
              <path class="cls-4" d="m15.53,10.3c-.11-.11-.21-.08-.29,0-.11.1-.47.76-.47.76,0,0,.65-.36.76-.46.08-.08.11-.19,0-.3h0Z"/>
            </g>
            <g class="cls-22">
              <path class="cls-4" d="m15.17,9.87c-.08-.12-.19-.12-.29-.06-.13.09-.61.66-.61.66,0,0,.71-.23.84-.31.09-.07.14-.17.06-.29h0Z"/>
            </g>
            <g class="cls-24">
              <path class="cls-4" d="m14.91,9.37c-.06-.14-.17-.15-.27-.11-.14.06-.72.52-.72.52,0,0,.74-.08.88-.14.1-.04.17-.13.11-.27h0Z"/>
            </g>
            <g class="cls-23">
              <path class="cls-4" d="m14.74,8.83c-.03-.15-.13-.18-.25-.16-.14.03-.81.38-.81.38,0,0,.74.06.89.03.11-.02.2-.09.16-.24h0Z"/>
            </g>
            <g class="cls-26">
              <path class="cls-4" d="m14.69,8.27c0-.15-.1-.21-.21-.21-.15,0-.87.21-.87.21,0,0,.72.21.87.21.11,0,.21-.05.21-.21h0Z"/>
            </g>
            <g class="cls-20">
              <path class="cls-4" d="m14.74,7.71c.03-.15-.05-.22-.16-.25-.15-.03-.89.04-.89.04,0,0,.66.34.81.37.11.02.22-.01.25-.16h0Z"/>
            </g>
            <g class="cls-21">
              <path class="cls-4" d="m14.91,7.16c.06-.14-.01-.23-.11-.27-.14-.05-.88-.14-.88-.14,0,0,.58.46.72.52.11.04.21.03.27-.11h0Z"/>
            </g>
            <g class="cls-27">
              <path class="cls-4" d="m15.17,6.67c.08-.12.04-.23-.06-.29-.12-.08-.84-.31-.84-.31,0,0,.48.57.61.65.09.07.21.07.29-.05h0Z"/>
            </g>
            <g class="cls-25">
              <path class="cls-4" d="m15.53,6.23c.1-.11.08-.21,0-.29-.11-.11-.76-.46-.76-.46,0,0,.36.65.47.75.08.08.19.11.29,0h0Z"/>
            </g>
            <g class="cls-28">
              <path class="cls-4" d="m17.56,5.74c1.4,0,2.53,1.13,2.53,2.53s-1.13,2.54-2.53,2.54-2.54-1.13-2.54-2.54,1.13-2.53,2.54-2.53h0Z"/>
            </g>
            <g class="cls-29">
              <path class="cls-4" d="m17.56,5.39c.15,0,.21-.1.21-.21,0-.15-.21-.87-.21-.87,0,0-.2.72-.2.87,0,.11.05.21.2.21h0Z"/>
            </g>
            <g class="cls-46">
              <path class="cls-4" d="m18.12,11.09c-.15.04-.18.14-.16.25.03.14.37.81.37.81,0,0,.06-.75.03-.89-.02-.11-.1-.19-.24-.17h0Z"/>
            </g>
            <g class="cls-47">
              <path class="cls-4" d="m17.56,11.14c-.15,0-.2.1-.2.21,0,.15.2.87.2.87,0,0,.21-.71.21-.87,0-.11-.06-.21-.21-.21h0Z"/>
            </g>
            <g class="cls-48">
              <path class="cls-4" d="m17,11.09c-.15-.02-.22.05-.24.17-.03.14.03.89.03.89,0,0,.34-.66.37-.81.02-.11-.01-.22-.16-.25h0Z"/>
            </g>
            <g class="cls-44">
              <path class="cls-4" d="m16.46,10.93c-.14-.06-.23.01-.27.11-.06.14-.14.88-.14.88,0,0,.47-.58.52-.72.04-.1.02-.21-.11-.27h0Z"/>
            </g>
            <g class="cls-45">
              <path class="cls-4" d="m15.97,5.88c.12-.09.12-.2.05-.29-.08-.12-.65-.61-.65-.61,0,0,.23.71.31.83.06.09.16.14.29.06h0Z"/>
            </g>
            <g class="cls-49">
              <path class="cls-4" d="m16.46,5.61c.14-.06.15-.16.11-.27-.06-.14-.52-.72-.52-.72,0,0,.08.74.14.88.04.11.13.17.27.11h0Z"/>
            </g>
            <g class="cls-50">
              <path class="cls-4" d="m17,5.44c.15-.03.18-.13.16-.25-.03-.14-.37-.81-.37-.81,0,0-.06.75-.03.89.02.11.1.2.24.16h0Z"/>
            </g>
          </g>
        </g>
      </g>
    </g>
  </g>
</svg>