<?xml version="1.0" encoding="UTF-8"?>
<svg id="Layer_2" data-name="Layer 2" xmlns="http://www.w3.org/2000/svg" xmlns:xlink="http://www.w3.org/1999/xlink" viewBox="0 0 33.56 19.58">
  <defs>
    <style>
      .cls-1 {
        clip-path: url(#clippath);
      }

      .cls-2 {
        fill: none;
      }

      .cls-2, .cls-3, .cls-4, .cls-5, .cls-6 {
        stroke-width: 0px;
      }

      .cls-7 {
        clip-path: url(#clippath-1);
      }

      .cls-8 {
        clip-path: url(#clippath-4);
      }

      .cls-9 {
        clip-path: url(#clippath-3);
      }

      .cls-10 {
        clip-path: url(#clippath-2);
      }

      .cls-11 {
        clip-path: url(#clippath-7);
      }

      .cls-12 {
        clip-path: url(#clippath-8);
      }

      .cls-13 {
        clip-path: url(#clippath-6);
      }

      .cls-14 {
        clip-path: url(#clippath-5);
      }

      .cls-15 {
        clip-path: url(#clippath-9);
      }

      .cls-16 {
        clip-path: url(#clippath-14);
      }

      .cls-17 {
        clip-path: url(#clippath-13);
      }

      .cls-18 {
        clip-path: url(#clippath-12);
      }

      .cls-19 {
        clip-path: url(#clippath-10);
      }

      .cls-20 {
        clip-path: url(#clippath-15);
      }

      .cls-21 {
        clip-path: url(#clippath-17);
      }

      .cls-22 {
        clip-path: url(#clippath-16);
      }

      .cls-23 {
        clip-path: url(#clippath-11);
      }

      .cls-4 {
        fill: #2a680b;
      }

      .cls-5 {
        fill: #aa0017;
      }

      .cls-6 {
        fill: #fff;
      }
    </style>
    <clipPath id="clippath">
      <rect class="cls-2" width="33.56" height="19.58"/>
    </clipPath>
    <clipPath id="clippath-1">
      <rect class="cls-2" width="33.56" height="19.58"/>
    </clipPath>
    <clipPath id="clippath-2">
      <rect class="cls-2" width="33.56" height="19.58"/>
    </clipPath>
    <clipPath id="clippath-3">
      <rect class="cls-2" width="33.56" height="19.58"/>
    </clipPath>
    <clipPath id="clippath-4">
      <rect class="cls-2" width="33.56" height="19.58"/>
    </clipPath>
    <clipPath id="clippath-5">
      <rect class="cls-2" width="33.56" height="19.58"/>
    </clipPath>
    <clipPath id="clippath-6">
      <rect class="cls-2" width="33.56" height="19.58"/>
    </clipPath>
    <clipPath id="clippath-7">
      <rect class="cls-2" width="33.56" height="19.58"/>
    </clipPath>
    <clipPath id="clippath-8">
      <rect class="cls-2" width="33.56" height="19.58"/>
    </clipPath>
    <clipPath id="clippath-9">
      <rect class="cls-2" width="33.56" height="19.58"/>
    </clipPath>
    <clipPath id="clippath-10">
      <rect class="cls-2" width="33.56" height="19.58"/>
    </clipPath>
    <clipPath id="clippath-11">
      <rect class="cls-2" width="33.56" height="19.58"/>
    </clipPath>
    <clipPath id="clippath-12">
      <rect class="cls-2" width="33.56" height="19.58"/>
    </clipPath>
    <clipPath id="clippath-13">
      <rect class="cls-2" width="33.56" height="19.58"/>
    </clipPath>
    <clipPath id="clippath-14">
      <rect class="cls-2" width="33.56" height="19.58"/>
    </clipPath>
    <clipPath id="clippath-15">
      <rect class="cls-2" width="33.56" height="19.58"/>
    </clipPath>
    <clipPath id="clippath-16">
      <rect class="cls-2" width="33.56" height="19.58"/>
    </clipPath>
    <clipPath id="clippath-17">
      <rect class="cls-2" width="33.56" height="19.58"/>
    </clipPath>
  </defs>
  <g id="Layer_1-2" data-name="Layer 1">
    <g id="KENYA">
      <g>
        <g class="cls-1">
          <rect class="cls-6" width="33.56" height="19.58"/>
        </g>
        <g class="cls-7">
          <rect class="cls-3" width="33.56" height="5.88"/>
        </g>
        <g class="cls-10">
          <rect class="cls-4" y="13.71" width="33.56" height="5.88"/>
        </g>
        <g class="cls-9">
          <g>
            <g class="cls-8">
              <path class="cls-3" d="m13.14,15.6l.21.12,5.71-9.9c.34-.09.52-.41.7-.73.12-.21.61-1.06.82-2.16-.85.73-1.34,1.59-1.46,1.79-.18.32-.36.64-.27.97l-5.71,9.9Z"/>
            </g>
            <g class="cls-14">
              <path class="cls-3" d="m13.36,15.75l-.23-.13,5.71-9.92c-.09-.32.09-.66.28-.97.51-.88,1.08-1.47,1.46-1.8-.07.52-.29,1.3-.8,2.18-.18.32-.37.64-.71.73l-5.71,9.91h0Zm7.21-12.81c-.36.35-.93.93-1.43,1.8-.18.31-.36.63-.27.96l-5.72,9.92.19.09,5.7-9.89c.34-.1.52-.42.7-.73.5-.87.73-1.66.82-2.16h0Z"/>
            </g>
            <g class="cls-13">
              <path class="cls-6" d="m13.14,15.6l.21.12,5.71-9.9c.34-.09.52-.41.7-.73.12-.21.61-1.06.82-2.16-.85.73-1.34,1.59-1.46,1.79-.18.32-.36.64-.27.97l-5.71,9.9Z"/>
            </g>
            <g class="cls-11">
              <path class="cls-3" d="m20.13,15.6l-.22.12-5.71-9.9c-.34-.09-.52-.41-.7-.73-.12-.21-.61-1.06-.83-2.16.85.73,1.34,1.59,1.46,1.79.18.32.36.64.27.97l5.71,9.9Z"/>
            </g>
            <g class="cls-12">
              <path class="cls-3" d="m19.91,15.75v-.02s-5.72-9.9-5.72-9.9c-.33-.09-.52-.41-.7-.73-.51-.88-.73-1.67-.83-2.17.41.32.98.91,1.49,1.78.18.31.37.64.28.98l5.71,9.89-.23.15h0ZM12.67,2.96c.12.48.34,1.26.85,2.14.18.31.37.63.69.72l5.71,9.9.2-.12-5.72-9.88c.09-.34-.1-.66-.28-.97-.5-.87-1.07-1.45-1.46-1.79h0Z"/>
            </g>
            <g class="cls-15">
              <path class="cls-6" d="m20.13,15.6l-.22.12-5.71-9.9c-.34-.09-.52-.41-.7-.73-.12-.21-.61-1.06-.83-2.16.85.73,1.34,1.59,1.46,1.79.18.32.36.64.27.97l5.71,9.9Z"/>
            </g>
            <g class="cls-19">
              <path class="cls-5" d="m0,6.85v5.88h14.31c.37.98,1.59,2.94,2.32,2.94s1.96-1.96,2.32-2.94h14.61v-5.88h-14.61c-.36-.98-1.59-2.94-2.32-2.94s-1.96,1.96-2.32,2.94H0Z"/>
            </g>
            <g class="cls-23">
              <path class="cls-3" d="m18.96,12.73c.37-.98.61-1.96.61-2.94s-.24-1.96-.61-2.93c-.36.98-.61,1.96-.61,2.93s.25,1.96.61,2.94h0Z"/>
            </g>
            <g class="cls-18">
              <path class="cls-3" d="m14.31,12.73c-.37-.98-.61-1.96-.61-2.94s.24-1.96.61-2.93c.37.98.61,1.96.61,2.93,0,.98-.24,1.96-.61,2.94h0Z"/>
            </g>
            <g class="cls-17">
              <path class="cls-6" d="m16.64,9.06c.27,0,.49.33.49.73s-.22.74-.49.74-.49-.33-.49-.74c0-.4.22-.73.49-.73h0Z"/>
            </g>
            <g class="cls-16">
              <path class="cls-6" d="m16.76,10.51s.49.98.49,2.57-.49,2.57-.49,2.57v-5.14Z"/>
            </g>
            <g class="cls-20">
              <path class="cls-6" d="m16.51,9.08s-.49-.98-.49-2.57.49-2.57.49-2.57v5.14Z"/>
            </g>
            <g class="cls-22">
              <path class="cls-6" d="m16.51,10.51s-.49.98-.49,2.57.49,2.57.49,2.57v-5.14Z"/>
            </g>
            <g class="cls-21">
              <path class="cls-6" d="m16.76,9.08s.49-.98.49-2.57-.49-2.57-.49-2.57v5.14Z"/>
            </g>
          </g>
        </g>
      </g>
    </g>
  </g>
</svg>