<?xml version="1.0" encoding="UTF-8"?>
<svg id="Layer_2" data-name="Layer 2" xmlns="http://www.w3.org/2000/svg" viewBox="0 0 33.56 19.58">
  <defs>
    <style>
      .cls-1 {
        fill: #244aa5;
      }

      .cls-1, .cls-2, .cls-3 {
        stroke-width: 0px;
      }

      .cls-2 {
        fill: #d0a650;
      }

      .cls-3 {
        fill: #fff;
      }
    </style>
  </defs>
  <g id="Layer_2-2" data-name="Layer 2">
    <g id="g132">
      <path id="path5" class="cls-1" d="m0,0h33.56v19.58H0V0Z"/>
      <path id="path26" class="cls-2" d="m16.96,5.4c.14.16.23.33.23.53-.12.06-.28.08-.37.19.59-.08.7.6,1.36.34.02.09.12.18.23.14l.07-.19c.26-.07.19.35.47.27.14.12.05.32.14.46,0,.16.07.3.14.44.07-.08.12-.2.28-.16.12.13.21.25.23.39-.05.27-.12.5.16.64v.08c.19.08.61-.08.61.25-.02.12.12.01.16.08.12-.05.28-.02.42-.02.12.25-.14.42-.21.64.12.12.07.33.05.47l-.07.04c.19.04.42-.02.59.08l.3.12c.14-.08.3-.09.49-.08.14.11-.05.28.07.36.16,0,.3.02.33.16l.02.05c.12-.21.44-.07.59-.22.23,0,.28.26.4.4.05.36-.4.53-.26.89-.09.18-.28.32-.42.48.05.02.02.08.02.12-.14.08-.02.33-.21.35-.02.15-.3.09-.21.26.19.25-.09.4-.09.62-.12.13-.35-.12-.35.13-.14.04-.28-.13-.37.01-.05.16.09.22.07.39.23-.02.3.21.4.35l.23.23c-.23.19-.54-.02-.82.08-.07-.04,0-.13-.07-.16-.07-.08-.21-.08-.33-.11.02.11-.19.14-.09.27,0,.04.05.14-.05.14-.19.06-.16-.16-.33-.08-.21.08-.05.4-.35.36.05.28-.47.47-.12.71.05.05.02.14.02.21-.21.19-.58.12-.82.05-.19-.05-.07-.28-.14-.41-.07-.12-.28-.2-.28-.36-.14-.06-.26-.09-.35-.21-.33.32-.73.62-1.19.63-.21.11-.33.53-.66.35-.13.21-.52,0-.54.3-.15.06-.08.26-.18.35-.04.23,0,.43.2.57.08.18-.18.18-.07.34.02.06,0,.14-.04.16-.07.04-.09.07-.07.14-.06,0-.08.04-.13.08-.06.12-.25.18-.37.26-.13.04-.22-.06-.3-.14-.02.13-.13.2-.26.2-.19,0-.15-.16-.29-.23.06-.21-.13-.3-.07-.49.15-.12.41-.2.34-.44-.16-.2-.11-.49-.27-.73-.11-.09-.28-.23-.22-.46.15-.18,0-.39-.08-.57-.04-.15-.13-.29-.13-.47-.26-.15-.27-.55-.63-.59-.26,0-.3-.33-.56-.3-.02-.05-.08-.08-.13-.13-.19.13-.42-.04-.65.02-.15-.26.13-.61-.28-.76v-.16s.07-.02.08-.05c.02-.18-.29-.2-.16-.4-.07-.06-.15-.08-.11-.2-.18-.36-.7-.33-.82-.69.09-.08.09-.16.13-.23-.08-.14-.11-.29-.08-.44.08-.02.13-.13.18-.21-.11-.07-.23-.18-.35-.14-.21-.04-.36-.2-.55-.29-.05-.05-.02-.13-.02-.19.26-.08-.04-.45.28-.4.08-.11.26-.14.39-.22.13-.02.23.02.36.06.11.14.29.08.4.2.11-.02.23-.08.36-.02,0-.2.09-.32.23-.46.02-.08.15-.14.26-.19.2.05.43.05.57-.09.09.06.18-.06.28-.06.13-.02.23.01.33.07.01-.23.42-.04.5-.32.09-.19-.26-.26-.23-.42-.06-.19.08-.28.15-.41.08-.04.18-.08.28-.06.27-.09.06-.64.49-.44,0,.06-.02.13.01.14.15,0,.18-.18.28-.23.05-.16-.06-.36.08-.49.07-.01.13-.04.18-.09,0-.13-.07-.2-.18-.28-.04.06-.13.01-.19.04,0-.14-.08-.23-.11-.36-.07-.04-.11-.09-.08-.18.11-.11,0-.36.25-.3.09-.08.26-.02.35-.16.25-.14.57-.14.76-.4.08.01.18-.07.26,0,.02.15.25.09.25.23"/>
      <path id="polygon37" class="cls-3" d="m18.77,2.23l-.32-.99-.32.99h-1.05l.85.62-.32.99.84-.62.85.62-.32-.99.85-.62h-1.05Z"/>
      <path id="polygon39" class="cls-3" d="m22.07,2.81l-.32-.99-.32.99h-1.05l.85.62-.32.99.84-.62.85.62-.32-.99.85-.62h-1.05Z"/>
      <path id="polygon41" class="cls-3" d="m25.21,3.95l-.32-.99-.32.99h-1.05l.85.62-.32.99.85-.62.84.62-.32-.99.85-.62h-1.05Z"/>
      <path id="polygon43" class="cls-3" d="m15.43,2.23l-.32-.99-.32.99h-1.05l.85.62-.32.99.85-.62.84.62-.32-.99.85-.62h-1.05Z"/>
      <path id="polygon45" class="cls-3" d="m12.14,2.81l-.32-.99-.32.99h-1.05l.85.62-.32.99.85-.62.84.62-.32-.99.85-.62h-1.05Z"/>
      <path id="polygon47" class="cls-3" d="m9,3.95l-.32-.99-.32.99h-1.05l.85.62-.32.99.84-.62.85.62-.32-.99.85-.62h-1.05Z"/>
    </g>
  </g>
</svg>