<?xml version="1.0" encoding="UTF-8"?>
<svg id="Layer_2" data-name="Layer 2" xmlns="http://www.w3.org/2000/svg" xmlns:xlink="http://www.w3.org/1999/xlink" viewBox="0 0 33.56 19.58">
  <defs>
    <style>
      .cls-1 {
        clip-path: url(#clippath);
      }

      .cls-2 {
        fill: none;
      }

      .cls-2, .cls-3, .cls-4 {
        stroke-width: 0px;
      }

      .cls-5 {
        clip-path: url(#clippath-1);
      }

      .cls-6 {
        clip-path: url(#clippath-4);
      }

      .cls-7 {
        clip-path: url(#clippath-3);
      }

      .cls-8 {
        clip-path: url(#clippath-2);
      }

      .cls-9 {
        clip-path: url(#clippath-7);
      }

      .cls-10 {
        clip-path: url(#clippath-8);
      }

      .cls-11 {
        clip-path: url(#clippath-6);
      }

      .cls-12 {
        clip-path: url(#clippath-5);
      }

      .cls-13 {
        clip-path: url(#clippath-9);
      }

      .cls-14 {
        clip-path: url(#clippath-14);
      }

      .cls-15 {
        clip-path: url(#clippath-13);
      }

      .cls-16 {
        clip-path: url(#clippath-12);
      }

      .cls-17 {
        clip-path: url(#clippath-10);
      }

      .cls-18 {
        clip-path: url(#clippath-15);
      }

      .cls-19 {
        clip-path: url(#clippath-17);
      }

      .cls-20 {
        clip-path: url(#clippath-16);
      }

      .cls-21 {
        clip-path: url(#clippath-11);
      }

      .cls-22 {
        clip-path: url(#clippath-18);
      }

      .cls-3 {
        fill: #f9f02a;
      }

      .cls-4 {
        fill: #d50037;
      }
    </style>
    <clipPath id="clippath">
      <rect class="cls-2" width="33.56" height="19.58"/>
    </clipPath>
    <clipPath id="clippath-1">
      <rect class="cls-2" width="33.56" height="19.58"/>
    </clipPath>
    <clipPath id="clippath-2">
      <rect class="cls-2" width="33.56" height="19.58"/>
    </clipPath>
    <clipPath id="clippath-3">
      <rect class="cls-2" width="33.56" height="19.58"/>
    </clipPath>
    <clipPath id="clippath-4">
      <rect class="cls-2" width="33.56" height="19.58"/>
    </clipPath>
    <clipPath id="clippath-5">
      <rect class="cls-2" width="33.56" height="19.58"/>
    </clipPath>
    <clipPath id="clippath-6">
      <rect class="cls-2" width="33.56" height="19.58"/>
    </clipPath>
    <clipPath id="clippath-7">
      <rect class="cls-2" width="33.56" height="19.58"/>
    </clipPath>
    <clipPath id="clippath-8">
      <rect class="cls-2" width="33.56" height="19.58"/>
    </clipPath>
    <clipPath id="clippath-9">
      <rect class="cls-2" width="33.56" height="19.58"/>
    </clipPath>
    <clipPath id="clippath-10">
      <rect class="cls-2" width="33.56" height="19.58"/>
    </clipPath>
    <clipPath id="clippath-11">
      <rect class="cls-2" width="33.56" height="19.58"/>
    </clipPath>
    <clipPath id="clippath-12">
      <rect class="cls-2" width="33.56" height="19.58"/>
    </clipPath>
    <clipPath id="clippath-13">
      <rect class="cls-2" width="33.56" height="19.58"/>
    </clipPath>
    <clipPath id="clippath-14">
      <rect class="cls-2" width="33.56" height="19.58"/>
    </clipPath>
    <clipPath id="clippath-15">
      <rect class="cls-2" width="33.56" height="19.58"/>
    </clipPath>
    <clipPath id="clippath-16">
      <rect class="cls-2" width="33.56" height="19.58"/>
    </clipPath>
    <clipPath id="clippath-17">
      <rect class="cls-2" width="33.56" height="19.58"/>
    </clipPath>
    <clipPath id="clippath-18">
      <rect class="cls-2" width="33.56" height="19.58"/>
    </clipPath>
  </defs>
  <g id="Layer_1-2" data-name="Layer 1">
    <g id="KYRGYZSTAN">
      <g>
        <g class="cls-1">
          <rect class="cls-4" width="33.56" height="19.58"/>
        </g>
        <g class="cls-5">
          <g>
            <g class="cls-8">
              <path class="cls-3" d="m22.68,9.81c-.76.19-1.58-.42-2.28-.29,0,0,0-.02,0-.02.68-.32,1.8.04,2.21-.61-.72.31-1.62-.16-2.29.07,0-.01,0-.02,0-.03.62-.41,1.78-.24,2.08-.94-.66.41-1.62.1-2.25.43,0-.01,0-.02-.01-.03.55-.51,1.71-.52,1.9-1.25-.58.51-1.57.35-2.15.77,0,0-.01-.02-.02-.03.46-.58,1.61-.77,1.68-1.52-.49.59-1.49.59-1.99,1.09,0,0-.01-.02-.02-.03.37-.64,1.47-1.01,1.42-1.77-.4.66-1.38.82-1.8,1.39,0,0-.02-.02-.03-.02.27-.69,1.28-1.23,1.12-1.96-.29.71-1.23,1.02-1.56,1.64,0,0-.02-.02-.03-.02.16-.72,1.08-1.41.8-2.1-.17.74-1.05,1.2-1.28,1.86-.01,0-.02,0-.04-.01.05-.73.84-1.55.46-2.2-.05.77-.85,1.35-.97,2.04-.01,0-.02,0-.04,0-.06-.73.59-1.67.12-2.24.07.76-.63,1.46-.64,2.16-.01,0-.03,0-.04,0-.18-.72.32-1.73-.24-2.23.18.74-.39,1.55-.3,2.24-.01,0-.03,0-.04,0-.29-.68.04-1.77-.59-2.17.3.7-.15,1.59.06,2.25-.01,0-.02,0-.04.01-.39-.63-.23-1.75-.92-2.05.41.65.1,1.59.41,2.22-.01,0-.02.01-.04.02-.49-.56-.51-1.7-1.23-1.89.5.57.35,1.56.76,2.13-.01,0-.02.01-.03.02-.57-.47-.77-1.6-1.51-1.67.59.5.59,1.49,1.09,2,0,0-.02.01-.02.02-.64-.38-1.01-1.47-1.76-1.43.66.4.82,1.39,1.39,1.81,0,0-.01.02-.02.03-.7-.27-1.23-1.29-1.97-1.13.72.29,1.03,1.25,1.66,1.57,0,0-.01.02-.02.02-.73-.14-1.43-1.08-2.13-.81.76.18,1.21,1.08,1.89,1.29,0,0,0,.02-.01.03-.74-.02-1.58-.85-2.23-.47.78.05,1.37.89,2.08.98,0,0,0,.02,0,.03-.74.1-1.7-.59-2.29-.11.78-.07,1.5.67,2.22.64,0,0,0,.02,0,.02-.72.22-1.78-.32-2.29.25.76-.19,1.59.42,2.3.29,0,0,0,.02,0,.02-.67.34-1.81-.04-2.23.61.73-.31,1.65.17,2.32-.09,0,0,0,.02,0,.02-.61.45-1.8.25-2.11.96.67-.42,1.66-.09,2.29-.45,0,0,0,0,0,.01-.53.54-1.75.54-1.94,1.29.6-.53,1.63-.34,2.2-.81,0,0,0,.01,0,.02-.43.62-1.65.81-1.72,1.58.51-.61,1.57-.59,2.04-1.14,0,0,0,0,0,0-.33.69-1.5,1.06-1.45,1.83.41-.69,1.46-.83,1.84-1.45,0,0,0,0,0,0-.21.73-1.32,1.29-1.15,2.05.3-.75,1.32-1.05,1.6-1.73,0,0,0,0,0,0-.09.76-1.1,1.48-.82,2.2.18-.78,1.14-1.24,1.31-1.96,0,0,0,0,0,0,.03.77-.86,1.63-.47,2.3.06-.8.93-1.41.98-2.14,0,0,0,0,0,0,.15.75-.59,1.75-.1,2.36-.07-.8.7-1.54.64-2.27h0c.27.71-.31,1.82.27,2.34-.2-.78.45-1.62.27-2.34h0c.38.67-.02,1.84.63,2.27-.31-.75.19-1.68-.09-2.36,0,0,0,0,0,0,.47.61.26,1.83.98,2.14-.42-.68-.07-1.68-.46-2.3,0,0,0,0,.01,0,.56.52.54,1.76,1.3,1.96-.53-.61-.34-1.64-.81-2.21,0,0,0,0,0,0,.63.43.81,1.65,1.59,1.73-.61-.51-.59-1.57-1.15-2.05,0,0,0,0,.01,0,.69.33,1.06,1.5,1.84,1.46-.68-.41-.83-1.45-1.44-1.84,0,0,0,0,.01,0,.73.22,1.27,1.31,2.03,1.15-.74-.3-1.04-1.3-1.71-1.59,0,0,0,0,0-.01.75.11,1.46,1.1,2.18.82-.77-.18-1.23-1.11-1.93-1.3,0,0,0-.01,0-.02.76,0,1.61.86,2.27.47-.79-.05-1.38-.89-2.1-.98,0,0,0-.01,0-.02.75-.11,1.71.59,2.31.11-.78.07-1.5-.66-2.22-.64,0,0,0-.02,0-.02.72-.22,1.78.32,2.28-.25m-2.69.37c-.02.16-.05.31-.09.46.02,0,.04,0,.06.01-.02,0-.05.01-.07.02-.04.15-.1.3-.16.44.02.01.04.02.06.02-.02,0-.05,0-.07,0-.07.14-.14.29-.23.41.02.01.04.02.06.03-.02,0-.05,0-.07,0-.09.13-.18.26-.29.37.02.02.03.03.05.05-.02,0-.05-.02-.07-.02-.11.12-.22.22-.35.32.01.02.03.03.05.05-.02-.01-.05-.02-.07-.03-.12.09-.25.18-.39.26.01.02.02.04.04.05-.02-.02-.04-.03-.06-.04-.14.08-.28.15-.43.2,0,.02.02.04.03.05-.02-.02-.04-.03-.06-.05-.15.05-.3.1-.46.13,0,.02.01.04.02.06-.02-.02-.03-.04-.05-.05-.15.03-.31.05-.47.05,0,.02,0,.04,0,.07-.01-.02-.02-.04-.04-.06-.05,0-.09,0-.13,0-.12,0-.23,0-.34-.02,0,.02,0,.04,0,.06,0-.02-.02-.04-.03-.07-.16-.02-.31-.05-.47-.09,0,.02,0,.04-.01.06,0-.02-.01-.05-.02-.07-.15-.04-.3-.1-.45-.16,0,.02-.01.04-.02.06,0-.02,0-.05,0-.07-.14-.07-.28-.14-.41-.23-.01.02-.02.04-.03.05,0-.02,0-.05,0-.07-.13-.09-.26-.18-.37-.29-.01.01-.03.03-.04.05,0-.03.01-.05.02-.07-.12-.11-.23-.23-.32-.35-.02.02-.03.03-.05.05.01-.02.02-.05.03-.07-.1-.12-.19-.25-.26-.39-.02.01-.04.02-.05.04.02-.02.03-.04.04-.06-.08-.14-.15-.29-.2-.43-.02,0-.04.02-.06.03.02-.02.03-.04.05-.06-.05-.14-.1-.3-.13-.46-.02,0-.04.02-.06.02.02-.02.04-.03.06-.05-.03-.15-.05-.31-.06-.46-.02,0-.04,0-.07,0,.02-.01.05-.03.06-.04,0-.04,0-.09,0-.13,0-.11,0-.23.02-.34-.02,0-.04,0-.07,0,.02-.01.05-.02.07-.03.02-.16.05-.32.09-.47-.02,0-.04,0-.06,0,.02,0,.05,0,.07-.02.04-.15.1-.3.16-.45-.02-.01-.04-.02-.06-.02.03,0,.05,0,.07,0,.07-.14.14-.28.23-.41-.02-.01-.04-.02-.06-.03.02,0,.05,0,.07,0,.09-.13.19-.25.29-.38-.02,0-.03-.02-.05-.04.02,0,.05.01.07.02.11-.12.22-.23.35-.32-.01-.02-.03-.04-.05-.05.02,0,.05.02.07.03.12-.1.25-.19.39-.27-.01-.02-.02-.04-.04-.05.02.02.04.03.06.04.14-.08.28-.14.43-.2,0-.02-.02-.04-.03-.06.02.02.04.04.06.05.15-.05.3-.1.46-.13,0-.02-.01-.04-.02-.06.01.02.03.04.05.06.15-.04.31-.05.47-.06,0-.02,0-.04-.01-.07.01.02.03.05.04.06h.13c.11,0,.23,0,.34.02,0-.02,0-.04,0-.07,0,.03.02.05.03.07.16.02.31.05.47.09,0-.02,0-.04.01-.06,0,.02.01.05.02.07.15.05.3.1.44.16,0-.02.02-.04.02-.06,0,.02,0,.05,0,.07.14.07.28.14.41.23.01-.02.02-.04.03-.05,0,.02,0,.05,0,.07.13.09.26.19.37.29.01-.02.03-.03.04-.05,0,.03-.01.05-.02.08.12.11.22.22.32.34.01-.02.03-.03.05-.05-.01.03-.02.05-.03.07.1.12.19.25.27.39.02-.02.04-.02.05-.04-.01.02-.03.04-.04.06.08.14.15.28.2.43.02,0,.04-.02.06-.03-.02.02-.04.04-.05.05.06.15.1.3.13.46.02,0,.04-.01.06-.02-.02.02-.04.04-.06.05.03.15.05.31.06.47.02,0,.04,0,.07-.01-.02.01-.04.03-.06.04,0,.04,0,.09,0,.13,0,.11,0,.23-.02.34.02,0,.04,0,.07,0-.02,0-.04.01-.07.02"/>
            </g>
            <g class="cls-7">
              <path class="cls-3" d="m16.49,7.97c-.45-.19-.93-.3-1.44-.32-.04.04-.08.07-.12.11.48.02.94.13,1.37.3.06-.04.12-.07.18-.1"/>
            </g>
            <g class="cls-6">
              <path class="cls-3" d="m18.33,7.48c-.43-.32-.96-.5-1.53-.5s-1.1.18-1.53.5c.54.02,1.06.14,1.53.34.47-.2.99-.32,1.53-.34"/>
            </g>
            <g class="cls-12">
              <path class="cls-3" d="m16.06,8.23c-.39-.16-.82-.27-1.27-.3-.03.04-.06.07-.08.11.43.04.83.14,1.2.3.05-.04.1-.07.15-.11"/>
            </g>
            <g class="cls-11">
              <path class="cls-3" d="m17.17,8.94c-.05.04-.1.08-.15.12.73.69,1.2,1.67,1.22,2.76.08-.05.16-.11.23-.17-.07-1.08-.55-2.04-1.3-2.71"/>
            </g>
            <g class="cls-9">
              <path class="cls-3" d="m17.3,8.07c.43-.18.89-.29,1.37-.3-.04-.04-.08-.07-.12-.11-.51.02-.99.13-1.44.32.06.03.12.07.18.1"/>
            </g>
            <g class="cls-10">
              <path class="cls-3" d="m17.6,8.65c-.06.04-.12.07-.18.12.73.64,1.24,1.53,1.39,2.55.07-.09.14-.18.2-.28-.2-.95-.7-1.78-1.41-2.38"/>
            </g>
            <g class="cls-13">
              <path class="cls-3" d="m15.71,8.5c-.34-.15-.71-.26-1.1-.3-.26.41-.41.9-.41,1.43,0,.32.05.62.15.9.26-.8.74-1.49,1.36-2.02"/>
            </g>
            <g class="cls-17">
              <path class="cls-3" d="m17.7,8.34c.37-.16.78-.27,1.2-.3-.03-.04-.06-.07-.08-.11-.45.03-.87.13-1.27.3.05.04.1.07.15.11"/>
            </g>
            <g class="cls-21">
              <path class="cls-3" d="m15.72,11.91s0,.08,0,.12c.33.15.7.23,1.08.23s.75-.09,1.08-.23c0-.04,0-.08,0-.12,0-1.03-.41-1.96-1.08-2.64-.67.68-1.08,1.61-1.08,2.64"/>
            </g>
            <g class="cls-16">
              <path class="cls-3" d="m16.8,8.11c-.06.04-.13.07-.19.1.06.04.12.07.19.1.06-.04.12-.07.19-.1-.06-.04-.12-.07-.19-.1"/>
            </g>
            <g class="cls-15">
              <path class="cls-3" d="m17.9,8.5c.62.53,1.1,1.22,1.36,2.02.1-.28.15-.58.15-.9,0-.52-.15-1.02-.41-1.43-.39.04-.76.15-1.1.3"/>
            </g>
            <g class="cls-14">
              <path class="cls-3" d="m16.59,9.07c-.05-.04-.1-.09-.15-.12-.75.68-1.24,1.63-1.3,2.71.07.06.15.12.23.17.02-1.09.49-2.07,1.22-2.76"/>
            </g>
            <g class="cls-18">
              <path class="cls-3" d="m16.65,8.76c.05.04.1.08.15.12.05-.04.1-.08.15-.12-.05-.04-.1-.08-.15-.12-.05.04-.1.07-.15.12"/>
            </g>
            <g class="cls-20">
              <path class="cls-3" d="m16.19,8.77c-.06-.04-.12-.08-.18-.12-.71.61-1.21,1.44-1.41,2.38.06.1.13.2.2.28.15-1.02.65-1.91,1.39-2.55"/>
            </g>
            <g class="cls-19">
              <path class="cls-3" d="m17.05,8.48c.05.04.1.07.15.11.06-.04.12-.08.19-.11-.05-.04-.1-.07-.15-.11-.06.03-.13.07-.19.11"/>
            </g>
            <g class="cls-22">
              <path class="cls-3" d="m16.21,8.48c.06.03.12.07.18.11.05-.04.1-.08.15-.11-.06-.04-.12-.07-.19-.11-.05.04-.1.07-.15.11"/>
            </g>
          </g>
        </g>
      </g>
    </g>
  </g>
</svg>