<?xml version="1.0" encoding="UTF-8"?>
<svg id="Layer_2" data-name="Layer 2" xmlns="http://www.w3.org/2000/svg" viewBox="0 0 251.97 356.88">
  <defs>
    <style>
      .cls-1 {
        fill: #f3f2f2;
      }

      .cls-1, .cls-2, .cls-3, .cls-4, .cls-5, .cls-6, .cls-7, .cls-8, .cls-9, .cls-10, .cls-11, .cls-12, .cls-13, .cls-14, .cls-15, .cls-16, .cls-17, .cls-18, .cls-19, .cls-20, .cls-21, .cls-22, .cls-23, .cls-24, .cls-25, .cls-26, .cls-27, .cls-28, .cls-29, .cls-30, .cls-31, .cls-32, .cls-33, .cls-34, .cls-35, .cls-36, .cls-37, .cls-38, .cls-39, .cls-40, .cls-41, .cls-42, .cls-43, .cls-44, .cls-45, .cls-46, .cls-47, .cls-48, .cls-49, .cls-50, .cls-51, .cls-52, .cls-53, .cls-54, .cls-55, .cls-56, .cls-57, .cls-58, .cls-59, .cls-60, .cls-61, .cls-62, .cls-63, .cls-64, .cls-65, .cls-66, .cls-67, .cls-68, .cls-69, .cls-70, .cls-71, .cls-72, .cls-73, .cls-74, .cls-75, .cls-76, .cls-77, .cls-78, .cls-79, .cls-80, .cls-81, .cls-82, .cls-83, .cls-84, .cls-85, .cls-86, .cls-87, .cls-88, .cls-89, .cls-90, .cls-91, .cls-92, .cls-93, .cls-94, .cls-95, .cls-96, .cls-97, .cls-98, .cls-99, .cls-100, .cls-101, .cls-102, .cls-103, .cls-104, .cls-105, .cls-106, .cls-107, .cls-108, .cls-109, .cls-110, .cls-111, .cls-112, .cls-113, .cls-114, .cls-115, .cls-116, .cls-117, .cls-118, .cls-119, .cls-120, .cls-121, .cls-122, .cls-123, .cls-124, .cls-125, .cls-126, .cls-127, .cls-128, .cls-129, .cls-130, .cls-131, .cls-132, .cls-133, .cls-134, .cls-135, .cls-136, .cls-137, .cls-138, .cls-139, .cls-140, .cls-141, .cls-142, .cls-143, .cls-144, .cls-145, .cls-146, .cls-147, .cls-148, .cls-149, .cls-150, .cls-151, .cls-152, .cls-153, .cls-154, .cls-155, .cls-156, .cls-157, .cls-158, .cls-159, .cls-160, .cls-161, .cls-162, .cls-163, .cls-164, .cls-165, .cls-166, .cls-167, .cls-168, .cls-169, .cls-170, .cls-171, .cls-172, .cls-173, .cls-174, .cls-175, .cls-176, .cls-177, .cls-178, .cls-179, .cls-180, .cls-181, .cls-182, .cls-183, .cls-184, .cls-185, .cls-186, .cls-187 {
        stroke-width: 0px;
      }

      .cls-2 {
        fill: #f3f4f9;
      }

      .cls-3 {
        fill: #f7f7f7;
      }

      .cls-4 {
        fill: #f7f9f7;
      }

      .cls-5 {
        fill: #f71011;
      }

      .cls-6 {
        fill: #f2f2f2;
      }

      .cls-7 {
        fill: #f6f8f6;
      }

      .cls-8 {
        fill: #f6f7fa;
      }

      .cls-9 {
        fill: #f6f6f6;
      }

      .cls-10 {
        fill: #fd0507;
      }

      .cls-11 {
        fill: #fd0608;
      }

      .cls-12 {
        fill: #fd0607;
      }

      .cls-13 {
        fill: #fd0708;
      }

      .cls-14 {
        fill: #fd0709;
      }

      .cls-15 {
        fill: #f9f9fa;
      }

      .cls-16 {
        fill: #f9f9fc;
      }

      .cls-17 {
        fill: #f9faf9;
      }

      .cls-18 {
        fill: #fc090b;
      }

      .cls-19 {
        fill: #f8f8fc;
      }

      .cls-20 {
        fill: #f9fbf9;
      }

      .cls-21 {
        fill: #fd0406;
      }

      .cls-22 {
        fill: #f8faf8;
      }

      .cls-23 {
        fill: #f8f9fc;
      }

      .cls-24 {
        fill: #f8f8f7;
      }

      .cls-25 {
        fill: #f8f9f8;
      }

      .cls-26 {
        fill: #4548c7;
      }

      .cls-27 {
        fill: #2c32c5;
      }

      .cls-28 {
        fill: #2a2ec5;
      }

      .cls-29 {
        fill: #2d2fc2;
      }

      .cls-30 {
        fill: #555dcf;
      }

      .cls-31 {
        fill: #2a191a;
      }

      .cls-32 {
        fill: #2a2fc2;
      }

      .cls-33 {
        fill: #2b2dc1;
      }

      .cls-34 {
        fill: #2a33c8;
      }

      .cls-35 {
        fill: #5359c7;
      }

      .cls-36 {
        fill: #4648c9;
      }

      .cls-37 {
        fill: #4649cc;
      }

      .cls-38 {
        fill: #2e31c4;
      }

      .cls-39 {
        fill: #2f31c2;
      }

      .cls-40 {
        fill: #2629c4;
      }

      .cls-41 {
        fill: #321d1f;
      }

      .cls-42 {
        fill: #3c0304;
      }

      .cls-43 {
        fill: #383ac5;
      }

      .cls-44 {
        fill: #3b3dc7;
      }

      .cls-45 {
        fill: #3b3dc9;
      }

      .cls-46 {
        fill: #3a3cc6;
      }

      .cls-47 {
        fill: #3b3ec8;
      }

      .cls-48 {
        fill: #3436c5;
      }

      .cls-49 {
        fill: #3436c4;
      }

      .cls-50 {
        fill: #3437ca;
      }

      .cls-51 {
        fill: #3437c7;
      }

      .cls-52 {
        fill: #3d3fc9;
      }

      .cls-53 {
        fill: #3d3fc8;
      }

      .cls-54 {
        fill: #282bc1;
      }

      .cls-55 {
        fill: #2729c2;
      }

      .cls-56 {
        fill: #3c3ec7;
      }

      .cls-57 {
        fill: #1a1dbc;
      }

      .cls-58 {
        fill: #1d0d0f;
      }

      .cls-59 {
        fill: #3e47c2;
      }

      .cls-60 {
        fill: #3f0203;
      }

      .cls-61 {
        fill: #181fc2;
      }

      .cls-62 {
        fill: #181bc0;
      }

      .cls-63 {
        fill: #3e42c7;
      }

      .cls-64 {
        fill: #0a0abc;
      }

      .cls-65 {
        fill: #0a0ab7;
      }

      .cls-66 {
        fill: #0a0ebb;
      }

      .cls-67 {
        fill: #191fbd;
      }

      .cls-68 {
        fill: #191cbb;
      }

      .cls-69 {
        fill: #0e0eb9;
      }

      .cls-70 {
        fill: #3639c8;
      }

      .cls-71 {
        fill: #3639c6;
      }

      .cls-72 {
        fill: #363536;
      }

      .cls-73 {
        fill: #4448cb;
      }

      .cls-74 {
        fill: #110e0f;
      }

      .cls-75 {
        fill: #0f16bb;
      }

      .cls-76 {
        fill: #1113bb;
      }

      .cls-77 {
        fill: #1d20bf;
      }

      .cls-78 {
        fill: #1112b9;
      }

      .cls-79 {
        fill: #1c1fbf;
      }

      .cls-80 {
        fill: #1c1fc0;
      }

      .cls-81 {
        fill: #1c1fc1;
      }

      .cls-82 {
        fill: #4248be;
      }

      .cls-83 {
        fill: #4345ca;
      }

      .cls-84 {
        fill: #1d1b1d;
      }

      .cls-85 {
        fill: #4244c9;
      }

      .cls-86 {
        fill: #1011bb;
      }

      .cls-87 {
        fill: #0f13bc;
      }

      .cls-88 {
        fill: #090abc;
      }

      .cls-89 {
        fill: #090ab6;
      }

      .cls-90 {
        fill: #090ab7;
      }

      .cls-91 {
        fill: #090ab3;
      }

      .cls-92 {
        fill: #4043c7;
      }

      .cls-93 {
        fill: #0c10bd;
      }

      .cls-94 {
        fill: #0d0eba;
      }

      .cls-95 {
        fill: #151cbe;
      }

      .cls-96 {
        fill: #1518c0;
      }

      .cls-97 {
        fill: #0709b9;
      }

      .cls-98 {
        fill: #1416bb;
      }

      .cls-99 {
        fill: #0808b3;
      }

      .cls-100 {
        fill: #080abb;
      }

      .cls-101 {
        fill: #4245ca;
      }

      .cls-102 {
        fill: #0c0eba;
      }

      .cls-103 {
        fill: #0c0eb9;
      }

      .cls-104 {
        fill: #0b0bba;
      }

      .cls-105 {
        fill: #0b0aba;
      }

      .cls-106 {
        fill: #0b0dbb;
      }

      .cls-107 {
        fill: #2123be;
      }

      .cls-108 {
        fill: #2022c0;
      }

      .cls-109 {
        fill: #2023c1;
      }

      .cls-110 {
        fill: #2225c1;
      }

      .cls-111 {
        fill: #2224c0;
      }

      .cls-112 {
        fill: #1f21be;
      }

      .cls-113 {
        fill: #1f23bc;
      }

      .cls-114 {
        fill: #1e1d1e;
      }

      .cls-115 {
        fill: #1e21ba;
      }

      .cls-116 {
        fill: #1015b7;
      }

      .cls-117 {
        fill: #1718bc;
      }

      .cls-118 {
        fill: #1719bb;
      }

      .cls-119 {
        fill: #171fc1;
      }

      .cls-120 {
        fill: #171616;
      }

      .cls-121 {
        fill: #180a0c;
      }

      .cls-122 {
        fill: #161aba;
      }

      .cls-123 {
        fill: #161abe;
      }

      .cls-124 {
        fill: #1618b9;
      }

      .cls-125 {
        fill: #1619bf;
      }

      .cls-126 {
        fill: #161bb9;
      }

      .cls-127 {
        fill: #1617b9;
      }

      .cls-128 {
        fill: #2528c0;
      }

      .cls-129 {
        fill: #252ac4;
      }

      .cls-130 {
        fill: #2427c3;
      }

      .cls-131 {
        fill: #1216c0;
      }

      .cls-132 {
        fill: #1215be;
      }

      .cls-133 {
        fill: #c3c5eb;
      }

      .cls-134 {
        fill: #e2c6a8;
      }

      .cls-135 {
        fill: #c9c5c5;
      }

      .cls-136 {
        fill: #c9b5b3;
      }

      .cls-137 {
        fill: #c4c8ec;
      }

      .cls-138 {
        fill: #dfc6ac;
      }

      .cls-139 {
        fill: #d7d9f0;
      }

      .cls-140 {
        fill: #dec6ac;
      }

      .cls-141 {
        fill: #d8daf0;
      }

      .cls-142 {
        fill: #8589d5;
      }

      .cls-143 {
        fill: #3235c6;
      }

      .cls-144 {
        fill: #323bbf;
      }

      .cls-145 {
        fill: #3336c2;
      }

      .cls-146 {
        fill: #9397de;
      }

      .cls-147 {
        fill: #fdfdfd;
      }

      .cls-148 {
        fill: #fdfdfe;
      }

      .cls-149 {
        fill: #fdfefd;
      }

      .cls-150 {
        fill: #f0f1f8;
      }

      .cls-151 {
        fill: #e3c6a8;
      }

      .cls-152 {
        fill: #e3c6a7;
      }

      .cls-153 {
        fill: #e4e5f5;
      }

      .cls-154 {
        fill: #fe0305;
      }

      .cls-155 {
        fill: #fe0406;
      }

      .cls-156 {
        fill: #e2e4f3;
      }

      .cls-157 {
        fill: #fafafa;
      }

      .cls-158 {
        fill: #fafafc;
      }

      .cls-159 {
        fill: #fbfcfd;
      }

      .cls-160 {
        fill: #fbfcfb;
      }

      .cls-161 {
        fill: #fbfbfd;
      }

      .cls-162 {
        fill: #fbfbfc;
      }

      .cls-163 {
        fill: #fbfbfb;
      }

      .cls-164 {
        fill: #fefefe;
      }

      .cls-165 {
        fill: #eaebf6;
      }

      .cls-166 {
        fill: #f12a2b;
      }

      .cls-167 {
        fill: #f12627;
      }

      .cls-168 {
        fill: #eeeff6;
      }

      .cls-169 {
        fill: #fafbfa;
      }

      .cls-170 {
        fill: #fcfcfd;
      }

      .cls-171 {
        fill: #fcfcfc;
      }

      .cls-172 {
        fill: #fcfdfe;
      }

      .cls-173 {
        fill: #f5f5f4;
      }

      .cls-174 {
        fill: #e8c6a3;
      }

      .cls-175 {
        fill: #0302b8;
      }

      .cls-176 {
        fill: #040204;
      }

      .cls-177 {
        fill: #0404b3;
      }

      .cls-178 {
        fill: #0404ba;
      }

      .cls-179 {
        fill: #040304;
      }

      .cls-180 {
        fill: #0606b5;
      }

      .cls-181 {
        fill: #060305;
      }

      .cls-182 {
        fill: #060304;
      }

      .cls-183 {
        fill: #0505bb;
      }

      .cls-184 {
        fill: #0506bc;
      }

      .cls-185 {
        fill: #050305;
      }

      .cls-186 {
        fill: #676bd3;
      }

      .cls-187 {
        fill: #020102;
      }
    </style>
  </defs>
  <g id="Layer_1-2" data-name="Layer 1">
    <g>
      <path class="cls-151" d="m119,356.88c-8.87-9.7-11.63-22.45-16.78-33.97-8.56-19.15-16.47-38.59-24.66-57.91-8.83-20.82-17.64-41.64-26.5-62.45-8.42-19.76-17.23-39.36-25.23-59.29C17.72,123.06,7.4,103.74,1.67,82.57c-.59-2.17.47-4.76-1.59-6.53v-19.99C1.17,35.28,13.29,21.17,28.78,9.37,36.12,3.78,44.68.6,54.04.08h4c.34.49.31.95-.09,1.39-1.91,1.54-4.3,1.7-6.56,2.16C27.75,8.45,2.06,34.38,2.3,64.36c.09,11.54,2.46,22.41,6.9,32.97,13.35,31.75,26.82,63.45,40.28,95.15,11.51,27.11,23.23,54.14,34.69,81.27,8.87,21,18.05,41.87,26.55,63.03,1.49,3.71,3.25,7.3,4.89,10.94,1.8,3.99,4.49,6.9,9.44,6.87,4.75-.03,7.25-2.83,9.04-6.65,6.56-14.03,12.3-28.41,18.51-42.59,10.68-24.4,21.25-48.84,31.77-73.3,9.73-22.62,19.45-45.25,29.22-67.85,10.04-23.22,19.81-46.55,30.11-69.66,2.65-5.94,4.55-12.14,4.97-18.72.1-1.57-.11-3.48,2.13-3.98.54.38.58.8.12,1.27.63,9.93-3.14,18.77-6.91,27.58-10.02,23.39-20.1,46.75-30.16,70.12-7.36,17.11-14.49,34.31-22.11,51.3-11.42,25.46-22.35,51.13-33.31,76.79-7.4,17.32-14.94,34.59-22.6,51.79-1.03,2.32-3.2,4.14-4.85,6.18h-11.99Z"/>
      <path class="cls-164" d="m197.94.08c16.99,0,33.98.06,50.96-.07,2.5-.02,3.08.56,3.06,3.07-.12,18.66-.07,37.31-.07,55.97-.48.34-.93.31-1.35-.1-1.62-7.23-2.76-14.55-6.22-21.29-9.1-17.79-23.08-29.54-42.32-35.03-1.52-.44-3.91.2-4.08-2.53Z"/>
      <path class="cls-164" d="m54.04.08c-5.82,2.06-11.99,2.96-17.47,6.15C17.6,17.3,4.07,32.27.94,54.91c-.06.41-.56.76-.86,1.14,0-17.58.08-35.15-.08-52.73C-.02.57.54-.03,3.31,0c16.91.16,33.82.08,50.73.08Z"/>
      <path class="cls-134" d="m80.02.08c4.3,2.49,9.41,2.24,13.93,4.33,12.17,5.62,21.73,14.24,29.47,24.89,2.72,3.74,3.4,2.47,5.26-.43,5.47-8.57,13.16-14.93,21.59-20.43,1.38-.9,2.92-1.57,4.67-1.39.06.24.11.48.17.72-4.88,4.45-10.74,7.62-15.47,12.36-3.19,3.19-6.19,6.45-8.79,10.1-3.63,5.09-5.97,5.18-9.91.14-4.51-5.78-9.31-11.24-15.2-15.68-7.12-5.37-14.72-9.6-23.66-11.08-2.1-.35-4.27-.77-6.04-2.17-.37-.44-.38-.89-.02-1.34h4Z"/>
      <path class="cls-151" d="m197.94.08c7.95,2.56,16.09,4.6,23.09,9.53,17.2,12.1,28.9,27.48,29.9,49.37.46.44.44.86-.06,1.26-2.07-.26-1.99-1.97-2.15-3.39-2.86-26.29-26.31-49.62-51.01-53.82-1.62-.28-3.28-.58-4.67-1.59-.41-.43-.44-.88-.09-1.36h5Z"/>
      <path class="cls-152" d="m154.95,7.05c3.69-4.18,8.92-4.8,13.9-5.94,1.08-.25,2.37.23,3.11-1.03h5c.34.51.28.98-.16,1.41-7.28,1.82-14.29,4.72-21.81,5.6l-.03-.04Z"/>
      <path class="cls-138" d="m76.03.08c0,.33,0,.65,0,.98-6,2.48-12,2.48-17.99,0,0-.33,0-.65,0-.98h17.99Z"/>
      <path class="cls-140" d="m176.95,1.06c0-.32,0-.65,0-.97h15.99c0,.33,0,.65,0,.98-5.33,2.44-10.67,2.45-16,0Z"/>
      <path class="cls-174" d="m250.9,60.06c.01-.36.02-.72.04-1.08.32.03.65.06.97.07v13.99c-.32,0-.65.03-.97.07-.01-.36-.02-.72-.03-1.08-2.28-3.99-2.28-7.98,0-11.97Z"/>
      <path class="cls-135" d="m250.9,60.06c0,3.99,0,7.98,0,11.97-1.85,4.45-1.32,9.32-2.71,13.93-3.43,11.34-9.01,21.73-13.55,32.58-7.11,16.98-14.36,33.9-21.69,50.79-7.97,18.36-16.17,36.63-24.12,54.99-8.37,19.32-16.55,38.73-24.86,58.08-9.69,22.55-19.31,45.13-29.23,67.58-1.91,4.33-5.68,6.41-10.96,6.02-5.04-.37-7.61-3.53-9.2-7.26-10.44-24.38-20.5-48.94-30.89-73.35-11.42-26.84-23.15-53.56-34.58-80.4-8.58-20.13-16.88-40.39-25.37-60.56-5.79-13.76-12.14-27.29-17.46-41.23C-4.97,63.78,1.18,34.03,27.68,13.59,36.79,6.57,46.85,2.66,58.04,1.06c6,0,12,0,17.99,0,20.02,2.43,34.65,13.47,46.42,29.07,3.07,4.06,4.47,3.91,7.12-.18,5.56-8.56,13.23-14.96,21.67-20.53,1.23-.81,2.49-1.56,3.74-2.34,7.01-3.13,14.22-5.59,21.97-6.03,5.33,0,10.67,0,16,0,13.62,1.44,25.37,6.94,35.56,16.06,10.45,9.36,17.34,20.72,20.8,34.35.73,2.87-.61,6.06,1.58,8.59Z"/>
      <path class="cls-154" d="m140.21,87.12c2.37-1.64,5.08-1.01,7.66-1.03,6.58-.07,13.17.02,19.75-.05,2.05-.02,3.96,0,5.12,2.06,2.1,1.73,1.82,4.19,1.82,6.46.06,43.58.04,87.16.03,130.74,0,2.35-.16,4.66-1.59,6.68-.72,8.25-4.75,15.35-7.93,22.75-6.91,16.08-13.76,32.19-20.81,48.21-.96,2.18-.93,5.35-4.21,6.02-2.98-4.69-1.15-9.87-1.51-14.83.22-3.42-.19-6.84,0-10.26-.16-5.57-.1-11.14-.02-16.71-.14-4.55-.02-9.1-.04-13.66.08-.89.09-1.78.11-2.68.02-2.93.05-5.86,0-8.79-.15-2.34.11-4.68.02-7.02,0-1.77,0-3.54,0-5.31-.12-4.17-.14-8.34-.11-12.51.13-7.29-.53-14.58.1-21.87,0-1.69.04-3.38,0-5.07.05-3.74.03-7.48-.15-11.22.09-3.19,3.04-4.43,4.55-6.65.31-.38.67-.71,1.06-1,6.4-3.82,8.45-10.26,10.17-16.9.69-3.62.67-7.23.02-10.84-.37-2.12-1.31-3.96-2.74-5.57-.47-.87-.67-1.81-.86-2.76-1.48-3.93-4.23-6.86-7.47-9.39-1.94-1.51-3.86-3.03-4.38-5.65-.71-9.56-.27-19.12-.26-28.68,0-1.67.3-3.3,1.71-4.47Z"/>
      <path class="cls-154" d="m78.27,87.13c3.08-1.78,6.46-.96,9.72-1.03,5.63-.11,11.28.23,16.89-.12,4.51-.28,5.56,1.53,5.58,5.74.05,9.38-.87,18.8.47,28.16.34.33.53.73.56,1.2-2.69,3.61-6.89,5.64-9.62,9.2-.92.88-1.72,1.88-2.38,2.98-.96,1.38-1.89,2.76-2.36,4.41-.4,1.25-.92,2.44-1.36,3.67-.42,1.07-.46,2.19-.46,3.32,0,1.69.02,3.37.02,5.06-.48,9.35,3.61,16.59,10.43,22.56,2.19,2.34,5.92,3.26,6.52,7.07.29,14.43.06,28.87.14,43.3.11,2.24.28,4.49.03,6.73-.08,24.47,0,48.95-.05,73.42,0,2.73.8,5.72-1.61,8.01-1.62-.13-2.16-1.46-2.64-2.63-9.72-23.51-20.54-46.56-29.3-70.47-.45-1.22-.65-2.54-.97-3.81-1.51-2.92-1.48-6.09-1.48-9.24-.01-43.19-.02-86.38.02-129.57,0-2.76-.53-5.73,1.86-7.97Z"/>
      <path class="cls-164" d="m78.27,87.13c-.07,3.82-.21,7.65-.22,11.47-.02,43.44,0,86.89-.02,130.33,0,1.66-.1,3.32-.16,4.98-3.1-1.11-2.6-4.3-3.56-6.54-6.93-16.2-13.54-32.53-20.54-48.7-2.1-4.83-4.67-9.45-5.76-14.66-1.53-2.89-1.59-6.04-1.59-9.2,0-20.05-.03-40.11.03-60.16,0-2.59-.48-5.37,1.59-7.56,10.08.02,20.16.03,30.24.05Z"/>
      <path class="cls-164" d="m173,231.98c-.09-18.25-.24-36.5-.26-54.74-.04-29.71,0-59.42,0-89.13,1.31-1.47,3.06-1.03,4.68-1.04,6.15-.04,12.31.28,18.43-.11,4.68-.3,6.23.92,6.16,5.92-.29,22.26-.48,44.54.08,66.79.18,7.17-1.94,13.15-4.66,19.35-6.94,15.86-13.69,31.8-20.59,47.68-.87,2-1.01,4.67-3.84,5.3Z"/>
      <path class="cls-164" d="m166.94,16.07c.05-.66.1-1.32.15-1.98,5.98-1.83,11.93-4.06,18.31-3.46,20.29,1.9,36.76,10.27,47.23,28.5,1.17,2.03,2.38,4.07,1.09,6.52-.92,1.52-2.62,1.99-3.97,2.92-1.08.69-2.2,1.33-3.26,2.06-1,.69-2.05,1.34-2.81,2.33-.79,1.03-1.61,2.02-2.92,2.42-1.81-.2-4.4,1.22-4.66-2.23,0-.46.05-.92.14-1.38.55-1.99.65-4.08,1.37-6.03.39-1.27.92-2.51,1.07-3.85.16-1.22.45-2.42.74-3.62.2-.79.05-.49-.51-.28-.44.16.38.21-.23.49-1.19,1.74-2.43,3.42-2.83,5.55-.25.85-.69,1.61-1.24,2.3-.7.84-1.49,1.59-2.13,2.48-1.2,1.6-1.78,3.53-2.77,5.24-.28.38-.64.61-1.11.69-.45.08-.89.16-1.34.25-2.97-2.36-.9-6.02-2.29-8.79-.35-1.4-.38-2.82-.41-4.25,0-3.05,0-6.09,0-9.14,0-.75,0-1.51.01-2.26.11-1.95.06-3.92.28-5.88.16-.65-.33-.3-.3-.12.23,1.15-.4,2.2-.7,3.3-.81,2.33-1.09,4.75-1.28,7.19-.05.45-.17.88-.35,1.3-1.04,1.44-1.78,3-2.02,4.78-.23,1.68-.71,3.33-.69,5.05-.05.43-.18.84-.39,1.22-1.42,1.4-1.93,3.34-2.88,5.02-.71.71-1.48,1.19-2.53.75-.55-.53-.89-1.18-1.13-1.89-.63-1.65-.86-3.37-1.03-5.11-.67-2.63-.78-5.36-1.46-7.99-.3-1.2-.44-2.42-.6-3.64-.52-1.88-.8-3.79-.84-5.73-.03-.93-.24-1.83-.49-2.73-.14-.44-.23-.89-.31-1.34-.19-1.74-.63-3.45-.92-5.15-.18.83-.28,1.71-.65,2.52-.14.42-.31.83-.49,1.24-.68,1.4-.62,2.95-.9,4.42-.46,1.23-.35,2.48-.08,3.74.05.7-.04,1.39-.21,2.06-1.06,2.73-1.55,5.55-1.36,8.48,0,1.23-.1,2.45-.43,3.64-1.2,2.37-1.61,4.95-2.07,7.53-.2.45-.51.8-.91,1.08-2.52-.09-2.73-2.26-3.53-3.91-.18-.43-.33-.86-.46-1.31-.38-1.31-.8-2.61-1.11-3.94-.58-2.66-1.6-5.18-2.45-7.75-.15-.43-.27-.87-.36-1.31-.3-2.01-.96-3.92-1.7-5.81-.18-.43-.32-.86-.46-1.3-.63-2-.99-4.08-1.7-6.06-.31-2.29-2.66-4.25-1.13-6.84Z"/>
      <path class="cls-154" d="m202.81,164.09c0-17.68,0-34.6,0-51.53,0-7.32.14-14.64-.07-21.95-.09-3.2.94-4.57,4.2-4.54,8.81.09,17.62.07,26.44,0,3.02-.02,3.74.77,2.45,3.79-9.73,22.72-19.29,45.51-28.97,68.24-.81,1.9-1.36,4.06-4.04,5.98Z"/>
      <path class="cls-154" d="m48.03,87.08c0,25.64-.01,51.28-.02,76.93-3.64-3.42-4.37-8.31-6.22-12.6-8.44-19.48-16.76-39.01-25.05-58.55-2.77-6.54-2.56-6.75,4.61-6.75,6.97,0,13.95,0,20.92-.01,1.98,0,3.99-.17,5.76,1Z"/>
      <path class="cls-164" d="m111.11,120.96c-.06-.36-.12-.71-.18-1.07.06-9.43.25-18.87.12-28.3-.05-3.29.65-4.75,4.33-4.62,8.27.27,16.55.13,24.83.15-.15,11.55-.31,23.1-.46,34.65-1.1.75-2.14.15-3.21-.11-1.69-.55-3.43-.92-5.17-1.31-.91-.15-1.81-.33-2.7-.56-2.55-.71-5.08-.66-7.62.07-1.18.29-2.39.43-3.59.59-2.12.19-4.1,2.1-6.35.51Z"/>
      <path class="cls-149" d="m122.03,335.88c-3.07-5.36-5.41-11.01-7.12-16.94.1-1.38.55-2.6,2.6-4.34-1.88,1-2.55,2.12-3.64,1.39-1.16-1.09-1.76-2.44-1.9-4.01.55-6.96.37-13.91,0-20.87-.04-.85.97-1.23,1.71-1.58,2.92.19,1.43-4.35,4.39-4.11,1.9,2.04,1.5-.96,2.34-1.06-.09-.12-.14.07-.22.05-.82.31-1.57.27-2.3-.16-1.75-1.64-1.21-3.5-.42-5.45.43-.31-1.16-.05-.51.1-.79,1.8-1.98,1.93-3.47.85-1.22-1.8-3.31-3.54-.47-5.68.3-.3.61-.59.91-.89.83-.94,1.15-2.37,2.56-2.78,1.32-.19,2.55-.83,3.84-1.02,2.16-.31,4.04.2,2.53,2.89-1.39,2.46.26,3.77,1.45,5.47.81-1.83.35-3.54-.31-5.22-1.68-4.26,1.4-7.22,3-10.52.47-.96,1.75-.56,2.33.56-.16,3.21,2.16,5.5,3.12,8.3.35.57.02-.22.34.37.86,1.62,2.85,3.28-.15,4.78.96,1.15,3.47.48,3.37,2.84-.02.49-.49.83-.94,1.06-1.26.49-2.66.19-3.86.98,1.31-.36,2.64-.63,3.95-1.01,2.39,0,2.66,1.56,2.51,3.42-.15.44-.39.84-.73,1.17-1.09.8-2.3,1.4-3.56,1.91.63.15,1.24-.31,1.89-.06.43.18.75.46.96.86-1.84,3.16.83,7.12-1.79,10.15-2.58,2.06-2.55,5.71-4.84,7.95-1.42,1.33-3.12,1.12-5.09.86,1.92.66,4.31-.14,4.98,2.43.15.8.34,1.67-.04,2.39-1.07,2.03-.17,4.04,2.1,3.92,2.05-.11,3.36.73,4.59,2.09-.3,1.57-.84,3.02-2.08,4.11-1.58-.68-3.4-.1-4.94-.98-2.84-.63-2.74-4.38-5.65-4.94,2.93.36,1.62,5.18,5.37,4.67,1.11,1.27,4.03,1.75,3.05,3.85-1,2.15-3.51,3.39-5.8,4.28-1.73.67-2.02-1.01-2.48-2.17-1.18,2.6,3.54,3.47,1.97,5.6-1.1,1.5-.29,4.74-3.54,4.51Z"/>
      <path class="cls-148" d="m146.81,29.14c-.62-1.74-1.01-2.99.96-4.64,4.24-3.57,8.93-6.25,13.83-8.67,1.53-.75,3.09-1.42,4.45.32.98,1.91.31,3.95.48,5.92-.02.46-.13.9-.31,1.33-1.81,2.7-1.78,6.04-3.08,8.91-.15.4-.33.8-.51,1.19-.65,1.34-.48,2.9-1.08,4.25-1.2.81.06,1.57.06,2.37.02.45-.02.88-.12,1.31-.68,2.8-1.8,5.51-1.64,8.48-.03.47-.12.92-.24,1.37-.38,1.12-.69,2.28-1.66,3.08-1.79.64-2.66-.53-3.5-1.78-.59-1.01-1.07-2.09-1.58-3.14-.77-1.68-1.31-3.44-1.94-5.17-.58-1.99-1.62-3.81-2.26-5.78-.58-2.76-2.42-5.14-2.49-8.06.12-.47.31-.9.6-1.29Z"/>
      <path class="cls-148" d="m94.13,55.22c-.23-.18-.49-.24-.78-.18-1.38-.43-1.55-1.73-2.04-2.8-.24-.68-.41-1.37-.54-2.08-.23-1.4-.73-2.75-.94-4.16-.44-2.57-.98-5.11-1.58-7.65-.15-.46-.26-.92-.36-1.39-.27-1.9-.95-3.71-1.17-5.61-.33-2.13-.93-4.19-1.53-6.25-.23-.71-.4-1.43-.52-2.16-.51-2.23-1.22-4.45-.5-6.76.55-1.21,1.42-1.92,2.75-1.3,6.41,3,13.05,5.66,17.48,11.63.11.48.24.95.4,1.41.29,1.74-.47,3.27-.94,4.86-.3.86-.62,1.71-.9,2.57-.44,1.25-.82,2.53-1.22,3.79-.6,1.66-1.14,3.34-1.88,4.94-.64,1.37-1.11,2.82-1.57,4.26-.41,1.22-.74,2.45-.7,3.75-.04.43-.17.84-.38,1.22-1,.67-1.58,2.03-3.07,1.9Z"/>
      <path class="cls-161" d="m158.97,50.91c.05-.4.11-.8.16-1.2,1.1-2.76,1.86-5.6,1.84-8.6.01-.38.02-.76.03-1.15,1.38-1.87.6-4.24,1.44-6.24,1.4-3.45,1.44-7.35,3.5-10.59,0-.19,0-.37.02-.56,1.53-1.55,1.83.22,2.52.93.8,1.9.84,4.13,2.51,5.64,0,.19-.01.38-.03.57.15,2.25.59,4.41,1.97,6.27.02.22.03.45.02.67.02,2.96,1.51,5.52,2.3,8.27.23,1.48.35,3,1.66,4.03.02.23.03.46.04.68-.56,2.33,1.53,4.29.91,6.63-6.34,1.01-12.67,1.6-18.96-.29-1.4-1.71.42-3.39.06-5.09Z"/>
      <path class="cls-170" d="m92.02,50.07c0,.52,0,1.03,0,1.55-.34,1.53.64,3.08-.06,4.6-6.3,1.29-12.6,1.4-18.89-.06-1.17-2.15.72-4.12.37-6.22.05-.43.17-.85.35-1.24,1.15-1.61,1.51-3.51,1.95-5.38.36-1.76.9-3.48,1.47-5.18.71-1.9,1.36-3.81,1.72-5.81.09-.44.21-.88.36-1.31.38-1.07.72-2.14,1.04-3.23.62-1.75.73-3.7,1.98-5.22,1.49-1.45,2.64-.59,3.75.55,0,.52-.01,1.04-.02,1.56-.27,2.76,1.12,5.27,1.23,7.97.57,1.35.49,2.95,1.62,4.08.08.56.16,1.11.25,1.67-.12,2.65.74,5.13,1.26,7.67.13,1.5.42,2.94,1.64,3.98Z"/>
      <path class="cls-170" d="m28.17,29.42c.03-.8.06-1.6.09-2.41,3.3-3.53,7.44-5.96,11.5-8.43,4.36-2.65,5.44-2.03,5.59,2.97.16,5.3.01,10.6.09,15.9-.45,5.39.99,10.9-.95,16.21-2.01,1.52-2.77-.48-3.92-1.39-.51-.52-.93-1.12-1.27-1.77-.76-2.08-1.87-3.95-3.34-5.61-.25-.34-.44-.7-.61-1.08-.16-.36-.29-.74-.42-1.12-.34-.94-1.05-1.58-1.78-2.21-.59-.58-.95-1.29-1.25-2.04-.52-1.57-1.54-2.86-2.38-4.26-.44-.95-.77-1.94-1.21-2.89-.25-.61-.39-1.22-.13-1.86Z"/>
      <path class="cls-159" d="m28.17,29.42c.3.44.59.88.89,1.33-.06,1.52.33,2.93,1.02,4.27.94,1.29,1.03,2.82,1.29,4.31.22,1.72,1.05,3.17,1.99,4.58.16.41.23.84.24,1.28-.33,2.07.49,3.8,1.63,5.43.2.4.3.83.31,1.28-.16,1.11-.52,2.14-1.24,3.02-1.38,2-2.79.4-4.19.04-.38-.15-.73-.35-1.05-.61-.74-.72-1.67-1.12-2.59-1.56-.36-.2-.69-.45-.98-.74-.76-.96-1.66-1.74-2.86-2.13-.97-.39-1.93-.8-2.73-1.5-.41-.46-.71-1.01-1-1.55-.49-1.07-1.76-1.68-1.78-3.03.55-6.32,5.04-10.47,8.49-15.16.71-.97,1.69.47,2.57.74Z"/>
      <path class="cls-19" d="m70.08,56c-4.07,1.6-8.12,1.74-12.16-.1-1.18-1.33-1.09-2.88-.8-4.47.44-1.45.65-2.93.67-4.45.03-1.77.72-3.43.88-5.18.09-1.27.21-2.54.51-3.79.6-1.74.58-3.61,1.02-5.38.61-1.72.35-3.54.58-5.3.23-1.75.25-3.74,2.86-3.67,1.43.62,1.7,2.02,2.21,3.27.49,2.5,1.01,5,1.42,7.52.08,1.17.18,2.35.53,3.48.39,1.73.53,3.55,1.72,5.01.29.64.42,1.31.45,2.01-.12,2.09.22,4.15.36,6.22-.11,1.61.99,3.27-.23,4.82Z"/>
      <path class="cls-161" d="m111.05,54.56c-1.66-.38-2.17,2.66-4.13,1.4-1.83-2.15-.93-5.03-1.99-7.39-.53-3.86-.2-7.74-.33-11.62.26-3-.67-6.2,1.47-8.89,6.89,3.48,9.4,10.33,12.55,16.6.97,1.94-1.01,3.63-1.89,5.34-.83,2.84-3.02,3.99-5.68,4.56Z"/>
      <path class="cls-16" d="m183.95,32.9c0-.63.01-1.25.02-1.88,1.33-1.51.45-3.85,2-5.28.74-.33,1.45-.29,2.14.12.98,1.28.7,2.92,1.23,4.33.04,2.01.48,3.96.96,5.9.18.98.13,2,.52,2.94.61,2.69.72,5.47,1.5,8.12.09,2.03.43,4.01,1.06,5.94.53,1.04.35,1.98-.35,2.87-4.23,1.81-8.47,1.64-12.71.03-1.05-.51-.95-1.2-.32-1.98l-.09.08c1.81-2.12.71-5.14,2.25-7.35.51-1.16.18-2.41.42-3.6.36-3.43.78-6.85,1.37-10.25Z"/>
      <path class="cls-171" d="m128.99,304.91c2.14-2.37.95-6.82,5-8,1.92-.96,1-3.84,3.13-4.67,1.36-.2,2.22.43,2.71,1.65.07,5.02.15,10.04.22,15.06-1.31,2.66-2.61,5.32-3.92,7.97-2.31.04-4.86-2.68-7.18,1.11,1.25-3.93-2.14-4.56-3.79-6.51,1.37-.97,4.28.45,3.84-2.63.97-1.33-1.62-2.66,0-4Z"/>
      <path class="cls-158" d="m144.79,42.11c-1.47,3.32-.44,6.82-.76,10.22-.14,1.55.45,3.51-2.1,3.69-1.17-.88-2.35-1.76-3.66-2.43-1.26-.78-2.59-1.5-3.32-2.9-2.85-1.84-3.07-3.98-1.33-6.91,3.21-5.39,4.84-11.94,11.4-14.72,1.58,4.38,2.58,8.75-.23,13.05Z"/>
      <path class="cls-21" d="m97.95,73.27c0-.17,0-.33,0-.5,0-9.38,1.12-10.32,10.37-8.75,3.85.65,6.59,5.16,4.09,7.69-3.08,3.11-1.75,4.92.15,7.42.7.93,2.21,2.3.83,3.4-1.55,1.23-3.14.29-4.19-1.28-.55-.83-1.02-1.71-1.57-2.54-1.12-1.69-2.48-3.73-4.57-3.26-2.06.46-.87,2.84-1.05,4.36-.18,1.6-.36,3.19-2.39,3.04-1.85-.13-1.65-1.77-1.66-3.08-.03-2.16,0-4.33,0-6.49Z"/>
      <path class="cls-15" d="m232.88,46.17c1.41-2.94.12-5.42-1.39-7.84-9.44-15.07-23.07-23.47-40.56-26.45-6.82-1.16-13.08-.34-19.47,1.47-1.41.4-2.91.5-4.36.74,8.86-4.91,18.33-4.87,27.79-2.79,15.8,3.48,28.84,11.41,37.19,25.65,3.04,5.17,5.55,10.71,7.19,16.6.84,3-.15,3.69-2.69,3.44-2.56-.25-5.29.92-7.66-.92-.8-1.43-.08-2.73.3-4.07,1-2.08,2.13-4.08,3.66-5.83Z"/>
      <path class="cls-10" d="m67.07,72.71c0,2.58,0,5.15,0,7.73,0,1.28-.42,2.41-1.91,2.35-1.41-.05-1.95-1.16-1.95-2.42,0-4.65.04-9.3.15-13.94.03-1.19.43-2.29,1.95-2.42,1.59-.14,2.41.9,3.17,2.01,1.9,2.77,3.07,6.08,6.55,9.03,0-3.14-.11-5.39.04-7.62.09-1.26-.91-3.41,1.64-3.31,2.03.07,1.4,1.87,1.42,3.07.04,4.15.04,8.31-.04,12.46-.02,1.21.51,2.86-1.42,3.22-1.55.29-2.52-.77-3.26-1.87-1.88-2.8-3.65-5.68-5.47-8.52-.29.08-.57.16-.86.25Z"/>
      <path class="cls-155" d="m142.78,63.96c2.04-.13,4.06-.07,5.61,1.44,1.06,1.02,2.33,2.25,1.09,3.83-1.17,1.49-2.32.55-3.34-.44-2.79-2.7-5.59-2.19-7.65.63-2.21,3.04-1.82,6.31,1.03,8.94,1.59,1.47,3.56,1.83,5.52.67.67-.39,1.48-1.04,1.63-1.71.23-1.06-.82-1.27-1.66-1.26-1.42.02-2.3-.46-1.97-2.02.32-1.53,1.85-1.66,2.75-1.39,1.71.52,4.52-.99,5.01,1.79.4,2.31,1.06,5.15-1.57,6.83-3.8,2.42-7.99,2.82-11.75.39-4.12-2.66-4.8-7.01-3.55-11.49,1.21-4.35,4.13-6.7,8.85-6.21Z"/>
      <path class="cls-13" d="m46.05,72.83q0-8.88,8.79-8.82c.83,0,1.66,0,2.49.01,1.23.02,2.49.2,2.4,1.77-.08,1.33-1.32,1.24-2.29,1.28-1.82.08-3.66,0-5.46.2-1.3.14-2.04,1.01-1.89,2.43.15,1.4,1.25,1.19,2.19,1.4,2.22.52,6.22-1.4,6.33,1.67.13,3.4-3.88,1.54-6.06,1.97-1.41.28-2.55.45-2.53,2.3.01,1.75.93,2.33,2.46,2.39,1.82.07,3.65.09,5.47.21,1.02.07,2.07.37,1.96,1.7-.1,1.21-1.07,1.6-2.13,1.61-2.99.04-5.97,0-8.96.04-2.21.02-2.81-1.25-2.77-3.2.05-2.32.01-4.65,0-6.97Z"/>
      <path class="cls-10" d="m116.94,73.18q0-10.38,10.98-9.17c1.2.13,2.61.11,2.58,1.59-.03,1.53-1.57,1.23-2.68,1.51-2.29.58-6.41-1.83-6.53,2.08-.12,3.79,3.88,1.16,5.91,1.85,1.12.38,2.46.43,2.57,1.81.11,1.47-1.12,1.83-2.38,1.87-.66.02-1.35-.08-1.99.06-1.66.36-4.41-1.17-4.4,2.28,0,3.24,2.57,2.28,4.37,2.49.82.09,1.67-.05,2.48.07,1.22.18,3.05-.13,2.85,1.85-.13,1.32-1.52,1.55-2.75,1.53-.17,0-.33,0-.5,0q-10.52.8-10.52-9.82Z"/>
      <path class="cls-17" d="m114,273.92c-1.74,1.67-1.74,3.33,0,5-.69,3.66-.82,7.33,0,10.99.62,4.85-3.08,9.86.54,14.59.39.51,1.17,1.41.53,1.49-4.14.5-1.79,4.16-3.1,5.98-.39-.38-.78-.77-1.17-1.15.04-25.46.08-50.92.13-76.37,0-1.83.12-3.65.19-5.48,2.44-.29,3.59.55,2.73,3.13-.13.55-.82,1.02-.48,1.6.23.41.81-.07,1.25.02.89.41,1.17,1.19,1.29,2.07.07,1.4-.63,2.41-1.58,3.35-1.52,1.52-1.37,3.11-.06,4.7.2.41.31.85.31,1.31-1,1.67-.72,3.29.19,4.89.17,1.44-.43,2.7-.91,3.98-.92,3.48-.29,7-.25,10.5-.16,1.49.9,2.32,1.76,3.25.62.97.83,2.03.63,3.16-.97.8.32,3.1-2,3-.22-.22-.43-.44-.64-.67.2.24.41.46.64.67Z"/>
      <path class="cls-12" d="m154.25,70.27c0-.66,0-1.33,0-1.99-.01-1.77-.62-4.13,2.12-4.15,2.8-.01,1.41,2.46,1.57,3.83.34,2.8.26,5.65.58,8.45.24,2.04,1.53,3.37,3.7,3.27,1.97-.09,2.96-1.44,3.08-3.29.21-3.14.24-6.3.44-9.45.08-1.2-.37-2.94,1.76-2.87,2.06.06,1.47,1.77,1.7,2.97.71,3.65,0,7.27-.23,10.89-.25,3.68-2.74,4.97-6.13,5.13-3.57.17-6.85-.31-7.83-4.38-.65-2.72-.7-5.58-1.02-8.38.08,0,.17-.01.25-.02Z"/>
      <path class="cls-11" d="m179.91,73.23c-.03-3.63.96-6.92,4.6-8.54,3.16-1.41,6.48-1.37,9.35.84,1.07.82,2.62,2.02,1.24,3.68-1.29,1.55-2.61.83-3.75-.44-2.19-2.44-4.56-2.17-6.23.28-2.01,2.96-2.1,6.34.42,9.14,2.21,2.45,4.47,1.54,6.28-.73.97-1.22,1.91-1.87,3.27-.63,1.48,1.35.24,2.53-.48,3.45-2.34,3-5.66,3.44-9,2.41-4.49-1.38-5.77-5.04-5.72-9.46Z"/>
      <path class="cls-23" d="m54.09,56.02c-2.71,1.54-5.42,1.56-8.11-.03-.45-.41-.74-.92-.88-1.52-.08-7.22-.09-14.45.01-21.68.03-1.92-.51-5.03,3.31-3,.41.32.75.73,1,1.19.54,2.5.56,5.1,1.29,7.58.32,1.27,1,2.36,1.75,3.42.17.41.27.84.32,1.28-.2,2.23.29,4.36.93,6.48.32,1.05.64,2.1.98,3.15.13.43.19.88.21,1.33-.03.7-.27,1.31-.8,1.79Z"/>
      <path class="cls-14" d="m206.04,72.68c0-.17,0-.33,0-.5.03-7.99,3.35-10.36,11.34-8.16.89.24,1.55.48,1.54,1.53,0,1.01-.56,1.47-1.52,1.52-.33.02-.68-.03-.99.04-2.06.46-5.6-1.34-5.84,1.88-.26,3.51,3.47,1.73,5.41,2.39.97.33,1.9.62,1.9,1.91,0,1.71-1.23,1.89-2.39,1.72-4.54-.69-6.04,1.41-5.52,5.64.13,1.04-.27,2.11-1.49,2.21-1.43.11-2.14-.96-2.19-2.2-.11-2.65-.03-5.32-.03-7.97-.07,0-.13,0-.2,0Z"/>
      <path class="cls-161" d="m44.19,37.35v-19.78c-6.6,1.73-10.6,6.74-15.93,9.45,2.57-4.74,7.37-6.83,11.68-9.24,21.05-11.78,41.36-9.03,60.88,3.87,1.83,1.21,3.89,2.67,4.17,5.3-.19.38-.48.49-.87.34-4.39-6.18-11.11-8.9-17.66-11.85-.67-.3-1.19.31-1.55.9-1.03.2-1.89-.26-2.76-.69-5.71-1.75-11.29-4.66-17.51-2.04-.82.52-1.66.97-2.68.8-5.84-1.86-10.63.33-15.01,3.97-1.27,3.22.08,6.67-.92,9.9-.99,2.71-.22,5.53-.56,8.28-.2.62-.63.88-1.27.79Z"/>
      <path class="cls-169" d="m122.03,335.88c2.47-.74-.49-4.98,4.64-4.58-4.57-1.29-4.17-3.83-4.14-6.21.01-1.04.6-1.01,1.32-.78.59.19,1.46.2,1.73.6,1.07,1.61,1.06,1.72,2.32.54.99-.92,2.05-1.63,3.4-1.74-.21-1.85-2.59-1.98-2.32-3.81,1.68.39,4.21-2.95,5.06,1.14-1.68,7.65-5.92,14.18-8.94,21.98-2.23-2.46-2.63-4.81-3.08-7.14Z"/>
      <path class="cls-150" d="m198.98,46.5h-.05c-.06-1.29.39-2.47.72-3.67.61-2.43.99-4.94,2.34-7.13l-.02-.35c-.62-1.78.46-3.01,1.33-4.65,2.84,2.78.94,6.2,1.87,9.03.26.8.24,1.64.24,2.47.06,1.63-.19,3.29.38,4.89.21,1.65.11,3.31.13,4.97-.02,1.4.08,2.82-.95,3.97-2.91-.03-5.81-.06-8.72-.08-.84-.94-.25-1.81.12-2.69,1.05-2.17,1.25-4.68,2.6-6.74Z"/>
      <path class="cls-18" d="m22,72.87c0-1.83-.06-3.66.02-5.49.06-1.4-.42-3.36,1.94-3.22,2.06.13,1.97,1.92,2,3.4.05,2.33.2,4.68-.03,6.98-.34,3.53.63,5.49,4.59,4.89.8-.12,1.66.02,2.48.16.99.17,2.05.42,1.93,1.77-.08.94-.77,1.51-1.67,1.53-3.16.06-6.32.15-9.47-.01-1.77-.09-1.79-1.65-1.79-3.02,0-2.33,0-4.66,0-6.99Z"/>
      <path class="cls-21" d="m88.19,64.02c.83,0,1.67-.1,2.48.02,1.67.26,4.34-1.02,4.76,1.29.47,2.62-2.29,1.43-3.64,1.83-1.98.57-1.76,2.13-1.76,3.6-.01,3.15-.02,6.29,0,9.44,0,1.26-.28,2.49-1.67,2.61-1.64.15-2.29-1-2.29-2.54,0-2.65-.03-5.3,0-7.95.02-2.65.56-5.6-3.7-5.31-1.05.07-1.34-.75-1.3-1.67.04-1.1.82-1.29,1.69-1.3,1.82-.02,3.64,0,5.46,0,0,0,0-.02,0-.02Z"/>
      <path class="cls-156" d="m154.85,56.04c-2.96,0-5.93,0-8.89-.01-.94-2.5-.29-5.08-.41-7.63,1.36-3.68-.85-7.82,1.48-11.37,1.52-.52,1.6.85,2.14,1.62.51,1.85,1.39,3.56,2.14,5.32.58,1.71.87,3.53,1.97,5.04.46,1.27.77,2.59,1.42,3.79.25,1.07,1.04,2.11.16,3.23Z"/>
      <path class="cls-2" d="m97.05,52.5l-.04.11c-.08-.94.11-1.82.53-2.66.72-1.94,1.33-3.91,2.05-5.85.75-1.78,1.33-3.62,2-5.43.42-.99.8-2.04,2.23-1.72,1.64,1.3,1.01,3.15,1.18,4.81-.87,4.72,1.9,9.69-1.02,14.26-2.43-.31-5.12,1.05-7.26-1.12-.44-.88-.22-1.66.33-2.4Z"/>
      <path class="cls-133" d="m217,52.4c.13.26.1.5-.11.71-.95.75-.88,2.16-1.87,2.89-2.17-.22-4.62.92-6.41-1.26.06-.29.19-.54.37-.77,1.56-1.39,2.06-3.46,3.25-5.08.76-.8.98-1.93,1.69-2.76.31-.6.62-1.2.93-1.8.77-.99,1.16-2.69,2.82-2.22,1.14.32.91,1.58.73,2.57-.84,2.51-1.65,5.02-1.39,7.73Z"/>
      <path class="cls-8" d="m35.05,51.84c-.02-.3-.03-.6-.04-.89-1.26-1.86-2.01-3.88-1.96-6.16-.01-.24-.01-.47,0-.71-.45-.8.06-1.2.65-1.56.43-.14.87-.18,1.32-.13.43.15.77.42,1.05.78,0,.32,0,.64,0,.95,1.29,2.16,2.38,4.45,4.05,6.37.15.16.28.33.41.51.83,1.19,1.37,2.44.75,3.91-2.09,2.32-3.58,1.04-4.96-.84-1.13-.34-1.2-1.29-1.28-2.23Z"/>
      <path class="cls-165" d="m21.13,56.03q-8.57.14-5.22-9.94c1.02.07,1.57.77,2.08,1.53.96,1.72,1.79,3.5,2.72,5.24.41,1.02,1.02,2.01.41,3.16Z"/>
      <path class="cls-141" d="m20.28,48.01c1.01.4,2.03.8,3.04,1.19.94.95,2.05,1.73,2.81,2.86l-.12-.06c1.14,1.06,2.8,1.08,4.02,1.98.06.32.08.64.07.97-2.26,1.99-4.58,1.27-6.9.13-1.75-.29-2.03-1.94-2.87-3.08-.4-1.33-1.66-2.64-.05-3.99Z"/>
      <path class="cls-139" d="m220.91,55.11c.72-1.08,1.44-2.16,2.16-3.23,1.16.04,2.09-.45,2.91-1.22.98-.47,1.87-1.18,3.05-1.12,1.71.62.9,1.64.42,2.61-.37,1.49-.89,2.9-2.25,3.82-2.21-.01-4.43-.02-6.65-.03-.17-.4-.07-.68.35-.82Z"/>
      <path class="cls-109" d="m147.98,37.06c-2.77,3.39-.04,7.7-1.86,11.25-1.41-1.91-.06-4.21-.87-6.2,0,0-.46,0-.46,0,.08-4.35.16-8.7.23-13.05.6.03,1.2.06,1.79.08.1.32.1.64,0,.96-1.62,2.65,2.46,4.36,1.16,6.95Z"/>
      <path class="cls-153" d="m111.05,54.56c1.39-2.14,3.84-2.97,5.68-4.56,1.93,2.09,1.09,4.36-.6,5.58-1.39,1-3.82,1.43-5.08-1.03Z"/>
      <path class="cls-144" d="m44.19,37.35c.22-.2.44-.4.65-.6,1.47,4.09.34,8.32.69,12.47.16,1.93-.37,3.9.39,5.79.14.32.16.64.05.98-1.53.68-2.99,1.09-3.86-.93.16-.42.46-.7.89-.84,2.24-5.49.84-11.25,1.19-16.87Z"/>
      <path class="cls-34" d="m104.12,40.9c-.21-1.35.68-3.02-1.13-3.91-.63-.47-.59-1.23-.8-1.88-.33-.92.2-1.54.76-2.15,1.67-1.28,1.51-3.04,1.3-4.82-.09-.28-.14-.56-.13-.85.32-.05.61-.16.87-.34.36.37.72.74,1.08,1.11-.07,3.02-.14,6.04-.21,9.05-.77,1.24-.01,2.73-.63,3.99-.44.29-.81.23-1.11-.21Z"/>
      <path class="cls-119" d="m104.78,41.41c.49-1.4-.23-3.11,1.08-4.3.1,3.8.21,7.6.31,11.4.38,2.47.72,4.93-.18,7.37l-.45.2-.49-.05c-1.02-4.85-.53-9.73-.27-14.61Z"/>
      <path class="cls-17" d="m113.87,315.98c2.42-.15,2.34-5.26,3.96-3.57,2.18,2.28-1.57,4.4-2.91,6.52-1.14-.7-.9-1.9-1.04-2.95Z"/>
      <path class="cls-68" d="m168.16,24.04c-.5-.85-.95-1.76-2.21-1.45-2.27-2.18.32-4.28.1-6.43.29-.08.59-.1.88-.08.38,2.42,2.21,4.42,2.02,7.01.57,1.01-.03,1.06-.8.96Z"/>
      <path class="cls-85" d="m179.99,54c.11.66.22,1.32.32,1.98-.73.82-1.59.56-2.44.3-.65-2.16-2.91-4.11-.91-6.63,1.92.82.34,4.07,3.03,4.35Z"/>
      <path class="cls-137" d="m104.78,41.41c.09,4.87.18,9.74.27,14.61-.35,0-.71,0-1.06,0,.04-5.04.09-10.08.13-15.12.23.16.45.33.66.52Z"/>
      <path class="cls-35" d="m204.97,56.02c.04-1.35.09-2.69.13-4.04.69-1.59.18-3.26.36-4.89,0-.5.21-.9.61-1.19,1.58,2.87-.05,6.17,1.2,9.08-.39,1.18-1.31,1.19-2.3,1.03Z"/>
      <path class="cls-66" d="m145.25,42.1c1.34,1.92.26,4.18.87,6.2-.05,2.57-.11,5.15-.16,7.72-2.08-4.55-.71-9.27-.71-13.92Z"/>
      <path class="cls-71" d="m220.91,55.11c-.18.25-.29.52-.35.82-1.84.56-3.68,1.28-5.54.06.05-1.33-.43-3.01,1.87-2.89,0,1.14.01,2.47,1.69,1.58,1.05-.56,1.68-.45,2.33.42Z"/>
      <path class="cls-168" d="m139.01,55.23c-4.23,1.31-5.03.72-4.27-3.17,1.69-.91,2.28.91,3.42,1.38.52.48.82,1.07.86,1.79Z"/>
      <path class="cls-27" d="m74.03,49.86c1.81,2.42-.31,4.25-.95,6.31-.69.04-1.41.74-2.04-.11-.62-.58-.47-1.32-.44-2.03.92-1.57,1-3.84,3.43-4.16Z"/>
      <path class="cls-166" d="m222.23,82.73c-1.21-.13-1.69-.99-1.7-2-.02-1.11.7-1.77,1.85-1.67.92.08,1.41.73,1.45,1.62.05,1.1-.52,1.79-1.6,2.05Z"/>
      <path class="cls-167" d="m202.15,81.03c-.02.73-.4,1.67-1.59,1.63-.83-.03-1.44-.7-1.49-1.63-.05-1.13.47-1.9,1.64-1.92.96-.02,1.38.67,1.44,1.93Z"/>
      <path class="cls-142" d="m197.13,54.32c-.29.54-.58,1.07-.87,1.61-.73.87-1.47,1.32-2.31.12-.68-1.04-.73-2.07.08-3.07.63-.32,1.26-.64,1.89-.96.93.49,1.04,1.41,1.21,2.3Z"/>
      <path class="cls-37" d="m154.85,56.04c-.29-1-.58-1.99-.87-2.99.31-.4.43-1,1.06-1.09,1.07.51.66,3.16,2.89,2.01.62.63.61,1.29.1,1.98-1.06.03-2.11.06-3.17.09Z"/>
      <path class="cls-26" d="m21.12,52.03c.69,1.02,1.39,2.04,2.08,3.05-.04,1.73-1.08,1.28-2.06.95-.37-.96-.74-1.92-1.11-2.88-.4-1.12.13-1.34,1.1-1.13Z"/>
      <path class="cls-82" d="m54.09,56.02c-.02-.8-.05-1.6-.07-2.4,1.05-.63,2.07-1.48,3.34-.44.15.96.43,1.94-.32,2.8-.96,1.4-1.96.27-2.95.04Z"/>
      <path class="cls-122" d="m17.15,48.02c-.41-.64-.82-1.28-1.23-1.92.16-.88,0-1.93,1.2-2.27.95.64,2.18.94,2.66,2.17-.79.78-.81,2.57-2.62,2.02Z"/>
      <path class="cls-5" d="m39.17,67.16c0-2.53,1.01-3.32,3.22-2.94-.21,1.79-1.03,2.8-3.22,2.94Z"/>
      <path class="cls-113" d="m71.18,53.72c-.05.78-.1,1.55-.15,2.33,0,0-.48.05-.48.05,0,0-.47-.1-.47-.1-.49-1.62-1.37-3.17-.87-4.96.38-.33.82-.45,1.31-.36,1.38.77,1.38,1.83.65,3.04Z"/>
      <path class="cls-51" d="m227.2,55.97c.59-1.31,1.18-2.61,1.76-3.92.46-.43.86-.39,1.21.13-.42,1.3-.84,2.59-1.26,3.89-.57-.03-1.14-.06-1.72-.1Z"/>
      <path class="cls-125" d="m158.02,55.94c-.03-.66-.06-1.32-.1-1.98.1-1.11-.3-2.38,1.05-3.06,2.26,1.72-.53,3.39-.06,5.09,0,0-.45.06-.45.06l-.44-.12Z"/>
      <path class="cls-28" d="m105.99,55.88c.06-2.45.12-4.91.18-7.37,1.24,2.38.6,4.95.74,7.44,0,0-.47.03-.47.03,0,0-.46-.1-.46-.1Z"/>
      <path class="cls-33" d="m139.01,55.23c-.34-.41-.67-.81-1.01-1.22-.23-.92-.03-1.4,1.03-.98,1.41.57,2.62,1.32,2.9,2.98-.97-.26-1.94-.52-2.91-.78Z"/>
      <path class="cls-92" d="m43,54.22c-.3.28-.59.56-.89.84-.27-.07-.55-.12-.83-.15-.44-1.27-1.61-2.4-.75-3.91,1.68.42,2.06,1.83,2.46,3.23Z"/>
      <path class="cls-43" d="m91.96,56.22c-.26-1.54-2.08-3.09.06-4.6,1.43.76.79,2.32,1.33,3.43-.17.74-.57,1.2-1.39,1.18Z"/>
      <path class="cls-39" d="m35.05,51.84c1.03.4,1,1.4,1.28,2.23,0,1.9-.63,2.32-2.03.85.02-1.08-.78-2.37.76-3.08Z"/>
      <path class="cls-70" d="m139.03,53.03c-.34.33-.68.66-1.03.98-1.09-.65-2.17-1.3-3.26-1.95.07-.46.13-.92.2-1.38,1.51.52,3.13.86,4.08,2.35Z"/>
      <path class="cls-38" d="m97.05,52.5c-.11.8-.22,1.6-.33,2.4-.78.8-1.51,1.96-2.6.32,1.1-.77.87-2.98,2.92-2.73Z"/>
      <path class="cls-100" d="m57.03,55.98c-.05-1.04-.09-2.07-.14-3.11-.44-.67-.4-1.32.06-1.96.47-.17.9-.11,1.3.19-.11,1.6-.23,3.2-.34,4.8-.29.07-.59.1-.88.08Z"/>
      <path class="cls-90" d="m194.03,52.98c-.03,1.02-.06,2.05-.08,3.07-.31.02-.62-.02-.92-.1-.05-.92-.1-1.83-.15-2.75-.35-.96-.94-2.03.87-2.1.1.63.19,1.25.29,1.88Z"/>
      <path class="cls-147" d="m139.82,194.96c0,7.32,0,14.65,0,21.97-2.05-1.06-5.28,1.16-6.4-2.58.11,1.87-2.19,3.75.96,5.05,1.77.73,1.31,2.72-.53,3.3-2.59.81-5.25,2.36-8.06.41-2.11-1.46-3.73-.97-4.71,1.44-.06.15-.13.31-.23.44-1.27,1.7-2.51,4.22-4.71,3.82-2.54-.46-2-3.41-2.4-5.44.25-.37.54-.7.88-.99-.39.28-.67.67-1.03.99-.7.22-1.32.11-1.85-.42-.1-4.56-1.09-9.24,1.07-13.56.96-1.92-1.19-2.38-1.27-3.92-.24-4.43.1-8.88.29-13.24.09-2.04-.53-3.95-.3-5.92.34-2.83,2.13-4.71,4.65-5.19,1.62-.31,2.99-1.44,4.69-1.28.95-.04,1.89.08,2.78.43,2.72,1.77,2.42,3.78.1,5.47-1.47,1.07-2.91,2.06-3.9,3.6-1.49.41-2.81.02-4.3-1.15,1.64,1.94,3.89,1.24,5.5,2.22,1.31,1.32,4.88,1.09,3.14,4.53-.7.68-1.27,1.55-2.48,1.69,1.3.05,1.72-.91,2.32-1.64,1.08-.66,2.42-.87,3.31-.19,1.69,1.3,2.03.74,3.5-.72,3.5-3.47,2.38,2.47,4.38,2.6,1.72.03,1.56-5.06,4.6-1.7Z"/>
      <path class="cls-176" d="m111.11,120.96c1.96-.6,3.92-1.2,5.87-1.81.33.32.66.64.98.98,4.89,3.92,12.29,4.17,17.03.58.72-.2,1.41-.25,2.02.28.91.26,1.82.52,2.72.78,4.7,3.78,10.18,6.86,12.04,13.22-2.52-.32-3.74,1.23-4.65,3.23-.4.23-.83.36-1.28.39-3.96-1.2-7.89-3.55-11.96-.3-.8-.07-1.24-.54-1.45-1.27.79-7.22-.55-9.43-5.95-9.77-4.65-.3-7.12,1.67-7.78,6.27-.16,1.12.19,2.31-.38,3.39-.33.35-.73.56-1.19.65-4.48-2.16-8.12-.84-11.22,2.71-.79-.02-1.28-.47-1.62-1.13-.83-2.31-.23-5-1.88-7.1-.54-.68-1.22-1.27-1.57-2.1,2.46-4.1,6.65-6.23,10.28-9Z"/>
      <path class="cls-169" d="m114,222.95c1.77,1.31.9,3.64,2.05,5.74,1.37-2.49,3.91-3.32,4.59-6.16.44-1.84,3.02-2.76,4.45-1.32,3.26,3.27,6.22.37,9.43.56-.33-2.98-2.64-2.18-4.15-2.81.61-.87,1.29-1.6,1.7-2.46.63-1.34-1.52-3.46.8-4.25,2.9-.99.95,2.66,2.61,3.08.48.12.52,1.06,1.49.39,1.81-1.25,1.91-1.11,2.87,1.2,0,4.33,0,8.67,0,13-.64.15-1.26.72-1.76.75-2.19.16-2.65.36-3.33,2.52.88-1.59,2.24-2.34,3.78-1.56,1.71.86.66,2.31.22,3.49-.41,1.1-1.1,2.05-1.97,2.86-.38.31-.8.52-1.26.67-3.07.5-3.37-2.02-4.26-3.9-.58-1.2-1.85-2.18-1.28-3.77.65-.71.87-1.67,1.53-2.54-.71.75-.87,1.66-1.4,2.35-.34.36-.76.65-1.23.73-1.49.25-1.39,4.11-3.91,1.79-1.71-1.58-1.65-3.37,0-5.09.34-.36.3-.88.01-1.32-.27-.41-.57-.8-.76-1.25.11.71.8,1.1,1.02,1.76-1.54,1.92-2.28,4.87-5.76,4.2-1.88-.36-.08.67-.28,1.07-.89,1.81-1.84,3.37-4.17,3.26-.02-.82-.19-1.57-1-2-.87-.39-1.58-.87-1-2,1.22-2.16-.84-2.25-1.88-2.98,0-2,0-4.01,0-6.01.29-.48.59-.48.88,0,.67,0,1.33,0,2,0h0Z"/>
      <path class="cls-149" d="m113,264.93c-.95-3.66-1.52-7.33,0-10.99,4.02-1.41,8.03-2.68,11.76,1.46.17-2.82-.26-4.85-.81-6.9-.4-1.49.87-2.66,1.84-1.68,2.46,2.48,4.88,1.62,7.52.85,1.02-.3,1.93.19,2.58,1.06.26.36.47.76.65,1.16.58,1.57,2.85,1.32,3.3,3.04,0,4.68,0,9.35,0,14.03-.52,1.35-1.89,2.23-2.1,3.77-.17,1.31-.38,2.66-2.07,2.81-1.75.15-2.04-1.2-2.39-2.47-.23-.82-1.03-1.22-1.44-1.91.26-2.1,1.07-4.29-1-6.01-.49-1.69-.6-3.44-.86-5.16.35-.34.41-.83.65-1.23-.42.24-.22.79-.55,1.09.14,2.54-.14,4.75-3.46,2.93-2.61-1.43-3.74,1.08-5.56,1.74-.45.04-.9,0-1.34-.09-2.98-1.29-4.17,1.5-6.06,2.68-.22-.06-.43-.11-.65-.17Z"/>
      <path class="cls-176" d="m155.1,155.17c-1.42,7.19-3.82,13.75-11.06,17.21-.65-.77-.32-1.53.02-2.3.27-.59.64-1.17.35-1.94-1.48-1.09-3.16.99-4.68-.17-.22-.41-.34-.84-.35-1.31,1.75-4.41,2.32-8.65-1.7-12.26.04-.76.45-1.3,1.03-1.73,4.24.03,7.17-1.99,9-5.75.42-.23.87-.29,1.34-.16,1.81,1.8,3.55,3.66,5.82,4.92.77,1.12.71,2.29.22,3.49Z"/>
      <path class="cls-169" d="m135.99,249.94c-1.01-1.43-2.89-1.93-3.81-.93-3.42,3.7-4.91.24-7.12-1.62,1.19,2.96.68,5.97,1.35,9.77-1.98-2.65-6.67.68-6.38-5.26-1.56,6.03-4.83,1.13-7.03,2.02.33-1.33.67-2.67,1-4,.75-.92,1.84-1.55,2.4-2.65.21-.37.49-.69.81-.96.7-.52,1.47-.93,2.26-1.3,2.54-1.76,5.1-3.37,8-.76,1.9-1.92-1.64-4.39,1.08-5.83.43-.17.87-.24,1.32-.24,2.05.32,4.14,1.61,6.11-.25,1.89-.22,1.45-3.42,3.84-2.98,0,2.33,0,4.66,0,6.98-.69,2.95.26,6.68-3.84,7.99Z"/>
      <path class="cls-160" d="m123.99,194.97c1.31-3.07-3.39-1.62-3-4,0-.84-1.64-.85-1-2-1.03-2.33.07-3.08,2.27-3.56,2.37-.52,3.13-2.1,1.73-4.34.67-.9,1.62-.96,2.62-.83,2.96,1.05,4.91,2.62,3.92,6.28-.28,1.03-.06,2.7,2.03,2.22,2.57-.59,4.8,1.06,7.27,1.25,0,1.65,0,3.31,0,4.96-1.1-.69-1.61-.16-2.34.76-.66.83-.81,2.7-2.58,2.1-1.87-.63-2.66-2.02-2.05-4.07-2.67.8-2.21,3.04-2.87,6.01-.9-4.07-3.49-4.34-5.98-4.79Z"/>
      <path class="cls-147" d="m139.83,189.99c-1.3,2.3-2.67.1-3.99.15-4.62.16-7.88-.51-6.23-6.45.17-.6-1.69-1.77-2.61-2.67.28-.34.63-.59,1.06-.71,1.68.09,3.34.13,4.54-1.39,1.83-1.11,3.75-1.85,5.94-1.29.15.18.31.36.46.54,2.06,3.82.71,7.88.85,11.83Z"/>
      <path class="cls-160" d="m131.99,268.93c3.09-.49,1.94,3.84,3.64,3.68,2.69-.25-1.24-3.66,1.51-4.54.92-.29,1.79-.74,2.68-1.12,0,5.66,0,11.31,0,16.97-.95.81-1.9.84-2.84,0,.09-1.71-.18-3.24-2-4h0c.68-3.4-2.52-1.93-3.75-2.94-.43-.35-1.46.12-1.51-.85-.02-.44.4-1.3.47-1.28,6.57,1.38.86-2.79,1.78-3.92-.23-.67-.38-1.34,0-2Z"/>
      <path class="cls-6" d="m154.02,151.9c-3.35.09-4.32-2.35-5.19-4.89-1.44-2.89-2.51-5.83-1.37-9.11-.12-1.61-.84-3.55.73-4.62,1.73-1.18,2.05,1.81,3.6,1.71.11.95.22,1.91.33,2.86,2.11,2.4,2.63,5.34,2.84,8.39-.17,1.91.51,3.96-.94,5.65Z"/>
      <path class="cls-9" d="m139.99,168.02c.3-.11.62-.19.91-.32,1.87-.8,4.06-2.91,5.71-.72,1.7,2.25-1.56,2.98-2.48,4.48-.15.24-.06.61-.08.93,0,0-.03.07-.03.07-1.65,1.9-4.03,2.79-5.96,4.3-1.62.56-3.4,1.15-4.36-.82-1.33-2.73.2-4.73,2.16-6.48,1.26-.8,2.54-1.57,4.13-1.43Z"/>
      <path class="cls-149" d="m139.83,234.96c-1.74.4-1.08,3.89-3.84,2.98.22-.44.59-.87.64-1.34.19-1.56,3.19-2.81,1.49-4.12-2.21-1.7-2.08,2.17-3.54,2.52-4.43-2.68,2.09-5.45-1.46-8.87,3.44,1.03,4.02,4.28,6.71,3.78,0,1.68,0,3.36,0,5.04Z"/>
      <path class="cls-149" d="m136.98,283.92c.95,0,1.9,0,2.84,0,0,3.33,0,6.65,0,9.98-.95-.33-1.89-.65-2.84-.98-.46-1.98-.11-4.09-1-6-1.14-1.49-.07-2.25,1-3h0Z"/>
      <path class="cls-60" d="m154.02,151.9c.12-1.98.23-3.95.35-5.93.35-1.02-.33-2.25.68-3.12,1.37,4.1,1.42,8.21.05,12.32-.29-1.11.04-2.43-1.08-3.27Z"/>
      <path class="cls-147" d="m135.99,249.94c2.25-2.2,2.47-5.37,3.84-7.99,0,2.99,0,5.98,0,8.97-1.45.34-2.52-.81-3.84-.97Z"/>
      <path class="cls-31" d="m137.85,175.9c1.85-1.53,3.6-3.22,6.17-3.45-.28,3.14-3.76,3.45-5.03,5.72,0,0-.12-.23-.12-.23-.52-.58-1.05-1.17-1.01-2.03Z"/>
      <path class="cls-4" d="m135.99,249.94c1.68-1.24,2.64.31,3.84.97,0,.67,0,1.34,0,2.01-.75-.24-1.63-.86-2.23-.66-3.46,1.14-2.23-.76-1.61-2.33Z"/>
      <path class="cls-74" d="m155.05,142.85c-.23,1.04-.45,2.08-.68,3.12-.75-2.71-1.5-5.41-2.25-8.12,3.03.46,2.71,2.89,2.93,5Z"/>
      <path class="cls-181" d="m104.91,138.78c.27.41.54.81.81,1.22,1.09,1.01.32,2.11.14,3.17-.98,5.61.72,7.62,6.32,7.41.97-.04,1.94-.24,2.93-.13,1.35.49,3.14.48,2.99,2.65-.12.11-.23.26-.37.31q-8.48,3.01-7.25,12.17c-1.83,2.39-4.64-.28-6.67,1.15-.18,2.03,1.77,3.17,1.76,5.01-.05.48-.23.89-.56,1.25-7.43-5.87-11.28-13.44-10.93-23,.25-.32.58-.48.99-.48.6-.01,1.2.02,1.76-.26,2.54-1.74,4.21-4.08,5.17-7,.49-1.5.79-3.3,2.93-3.47Z"/>
      <path class="cls-24" d="m112,222.95c-.29,0-.59,0-.88,0,.02-14.97.03-29.94.05-44.91,1.42-1.29,2.88-.29,4.33-.08,1.86,1.09,4.81,0,5.78,2.88-2.17-.23-3.5,1.73-5.75,2.05-2.41.33-5.17,2.82-2.31,6.31,1.08,1.32,1.36,2.49-1.1,2.02-.32,2.42-.36,4.59,4.02,2.83-3.99,2.85-5.64,9.61-3.07,12.29,2,2.08,3.12,2.79-.17,4.59-1.95,1.06-.2,3.67-.72,5.6-.54,2.02-.15,4.28-.17,6.44Z"/>
      <path class="cls-121" d="m115,178.91c-1.5.69-2.4-1.28-3.83-.87-1.58-2.26-4.88-2.42-6.17-5.05.01-.37.03-.75.04-1.12,4.71-.39,7.44,2.85,10.39,5.69.05.51-.08.97-.43,1.36Z"/>
      <path class="cls-42" d="m96.04,150.88c-.39-.3-.79-.61-1.18-.91-.85-1.89.19-3.99-.68-5.87-.18-1.16-.13-2.26.81-3.13,1.06.58,1.6,1.54,1.95,2.64.5,2.52.82,5.03-.91,7.27Z"/>
      <path class="cls-41" d="m96.24,137.02c.53-1.66.81-3.5,2.89-4.05.14.18.29.37.43.55.54,2.07-.07,3.66-1.94,4.75-.9.08-1.15-.58-1.38-1.24Z"/>
      <path class="cls-182" d="m96.24,137.02c.29.37.58.73.87,1.1,1.02,2.07.44,3.69-1.38,4.97-.24-.71-.48-1.42-.72-2.13.41-1.32.83-2.63,1.24-3.95Z"/>
      <path class="cls-187" d="m94.19,144.1c1.39,1.82.6,3.9.68,5.87-.27.02-.53.02-.79.02.04-1.97.08-3.93.12-5.9Z"/>
      <path class="cls-58" d="m100.83,129.97c.83.04,1.66.1,2.18.89-.86,1.51-2,2.52-3.89,2.22,0,0,0-.11,0-.11-.2-1.44.46-2.39,1.71-3Z"/>
      <path class="cls-95" d="m204.8,40.32c-.24-2.73-.49-5.46-.82-9.11-.9,1.85-1.45,2.99-2.01,4.13-1.6-2.7.13-5.01.87-7.43,1.84-.5,2.64.46,2.91,2.12,0,.69,0,1.39.01,2.08-1.07,2.65.54,5.61-.97,8.21Z"/>
      <path class="cls-177" d="m205.76,30.02c-.97-.71-1.94-1.41-2.91-2.12.07-2.59.86-4.95,2.91-7.14v9.26Z"/>
      <path class="cls-102" d="m185.17,22.09c.43-2.3.86-4.6,1.29-6.89,1.6,3.11,2.6,6.27,2.27,9.73-1.29.52-1.88-.6-2.72-1.16-.5-.45-.6-1.1-.85-1.68Z"/>
      <path class="cls-105" d="m217.81,44.84c-.03-.77.11-2.14-.11-2.2-1.38-.37-1.62,1.53-2.85,1.68-.45-2.81,1.71-4.31,3.11-6.2,2.15.59,1.01,2.7,1.8,3.92-.33,1.33-.66,2.65-1,3.98-.9.09-1.45-.12-.95-1.17Z"/>
      <path class="cls-128" d="m183.95,32.9c1.52,3.59-.16,6.9-.92,10.29-.59-.13-.66-.73-.97-1.1.11-3.17-.47-6.48,1.89-9.19Z"/>
      <path class="cls-44" d="m197.13,54.32c-1.02-.44-1.18-1.34-1.21-2.3.21-2.29.37-4.61,3.06-5.52-.19,2.71-.44,5.4-1.85,7.82Z"/>
      <path class="cls-129" d="m182.75,47c-1.36,2.2.81,5.81-2.84,7.09.36-2.85-.52-5.96,1.82-8.37.7.15.75.8,1.02,1.29Z"/>
      <path class="cls-112" d="m230.18,52.18c-.4-.04-.81-.09-1.21-.13-.26-.78,1.11-1.56-.02-2.33-.3-.55-.07-1.11-.04-1.66,1.06-1.18,2.22-2.16,3.97-1.88.34,2.56-1.68,4.06-2.7,6.01Z"/>
      <path class="cls-89" d="m219.75,42.03c-.6-1.31-1.2-2.61-1.8-3.92.6-1.41.81-3.09,2.75-3.91,1.05,2.87-.76,5.27-.95,7.83Z"/>
      <path class="cls-110" d="m174.63,45.17c-.87-2.77-3.28-5.24-1.67-8.5,2.24,2.36,1.83,5.61,2.83,8.4-.35.46-.73.51-1.16.11Z"/>
      <path class="cls-97" d="m185.17,22.09c.24.24.49.47.73.71.92,1.09.9,2.23.15,3.39-.79,1.57,1.44,4.43-2.08,4.82-.85-.96-.82-1.91.02-2.86,1.11-1.55-.09-3.49.86-5.07.11-.33.21-.66.32-.99Z"/>
      <path class="cls-54" d="m191.71,47.45c-.54-2.81-1.07-5.63-1.61-8.44.29-.39.34-.97.94-1.1,1.84,2.46.37,5.62,1.73,8.18-.3.49-.36,1.17-1.06,1.36Z"/>
      <path class="cls-101" d="m201.99,35.7c.17,2.73-.74,5.2-1.88,7.62-.98-.43-.45-1.55-.98-2.18.77-1.91-.35-4.81,2.86-5.44Z"/>
      <path class="cls-79" d="m172.94,36c-2.7-1.45-3.35-3.54-1.97-6.27,1.44,1.84,1.69,4.06,1.97,6.27Z"/>
      <path class="cls-77" d="m217.81,44.84c.32.39.63.78.95,1.17-.65,2.11-.39,4.47-1.75,6.39-2.03-2.76.11-5.08.81-7.56Z"/>
      <path class="cls-64" d="m212.87,49.03c-1.01,1.87-1.26,4.34-3.89,4.94.51-2.21,1.29-4.29,2.95-5.93.46.19.76.53.94.99Z"/>
      <path class="cls-107" d="m168.16,24.04c.27-.32.53-.64.8-.96,1.36,1.8,1.42,4.04,2.03,6.08-3.6-.24-1.9-3.41-2.83-5.12Z"/>
      <path class="cls-65" d="m204.8,40.32c.75-2.68-.66-5.63.97-8.21.03,3.31.06,6.63.08,9.94-.32.44-.64.47-.96,0-.03-.58-.06-1.17-.09-1.75Z"/>
      <path class="cls-61" d="m189.85,36.25c-1.66-1.8-.6-4.06-1.02-6.07-.28-.94-.95-2.06.93-1.99.32,1.98.63,3.96.95,5.94-.45.64,0,1.64-.86,2.12Z"/>
      <path class="cls-81" d="m191.71,47.45c.35-.45.71-.9,1.06-1.36.32,1.67.65,3.34.97,5.01-.29.7-.58,1.4-.87,2.1-1.55-1.68-.76-3.84-1.16-5.76Z"/>
      <path class="cls-69" d="m228.91,48.05c1.08.53.15,1.11.04,1.66-.98.61-1.97,1.21-2.95,1.82-.46-.47-.49-.96-.07-1.48.99-.67,1.99-1.34,2.98-2.01Z"/>
      <path class="cls-30" d="m186.05,26.19c-.05-1.13-.1-2.26-.15-3.39,1.42.08,2.06,1.2,2.84,2.13.04.38.09.77.13,1.15-.22-.03-.43-.06-.65-.1-.72.07-1.44.14-2.17.21Z"/>
      <path class="cls-62" d="m199.14,41.13c.33.73.65,1.45.98,2.18-.19,1.14.06,2.44-1.19,3.18-2.14-1.87.39-3.56.21-5.36Z"/>
      <path class="cls-186" d="m188.21,25.98c.22,0,.44.04.65.1.98.42,1.09,1.2.89,2.11-.31.66-.62,1.33-.93,1.99-1.07-1.27-1.08-2.7-.62-4.2Z"/>
      <path class="cls-80" d="m174.63,45.17c.39-.04.77-.07,1.16-.11.38,1.3.76,2.6,1.14,3.9-3.1.14-1.55-2.52-2.29-3.8Z"/>
      <path class="cls-127" d="m204.89,42.06c.32,0,.64-.01.96,0,.07,1.28.14,2.56.22,3.85-.13.31-.26.61-.39.92-.05.58-.26.68-.65.21-.05-1.65-.09-3.31-.14-4.96Z"/>
      <path class="cls-175" d="m212.87,49.03c-.31-.33-.63-.66-.94-.99.43-.88.88-1.74,1.99-1.92-.02,1.09-.02,2.18-1.05,2.91Z"/>
      <path class="cls-106" d="m182.75,47c-.34-.43-.68-.86-1.02-1.29.11-1.21.22-2.42.33-3.63.32.37.65.74.97,1.1-.09,1.27-.19,2.54-.28,3.82Z"/>
      <path class="cls-183" d="m189.85,36.25c.29-.71.57-1.41.86-2.12.11,1.26.22,2.52.33,3.78-.31.37-.62.73-.94,1.1-.08-.92-.17-1.84-.25-2.76Z"/>
      <path class="cls-50" d="m225.92,50.05c.02.49.05.98.07,1.48-.85,1.17-1.77,1.81-2.93.35.95-.61,1.91-1.22,2.86-1.83Z"/>
      <path class="cls-16" d="m184.85,23.08c0,1.74.4,3.55-.86,5.07.15-1.71-.65-3.59.86-5.07Z"/>
      <path class="cls-84" d="m120.71,118.88c2.8-1.26,5.6-1.28,8.37.08-.75,1.08-1.94,1.38-3.1,1.72-.73.15-1.46.14-2.18,0-1.17-.35-2.39-.62-3.09-1.8Z"/>
      <path class="cls-120" d="m120.71,118.88c1.12.21,2.4-.09,3.28.97-2.22,2.04-4.54,1.84-6.92.31-.03-.33-.05-.67-.08-1l3.73-.27Z"/>
      <path class="cls-179" d="m126.01,119.85c.81-1.04,2.05-.58,3.08-.89.95.07,1.9.13,2.85.2.29.6.16,1.07-.41,1.42-1.98.79-3.88,1.06-5.52-.73Z"/>
      <path class="cls-72" d="m131.92,120.44c0-.42.01-.85.02-1.27,1.76.43,3.61.58,5.08,1.82-.81.05-1.63.1-2.44.15-1.14.73-2.1.8-2.65-.7Z"/>
      <path class="cls-20" d="m129.99,257.93c1.3,1.47,1.73,3.12,1,5,.19,1.01-.35,1.38-1.24,1.28-.72-.08-.94-.6-.76-1.28-2.49.64-5.6,7.36-3.77,8.85,2.29,1.86-.75,4.02.98,5.68.15.14-1.63,1.28-2.81,1.37.69-2.31-3.24-1.19-2.62-3.6.43-1.68-.04-3.62,2.12-4.72-2.83-1.37-4.52,2.87-6.89.41-1.18-.72-.97-1.9-1-3,1.43-1.86,3.8.62,5.25-1.14,1.02.15,1.91.02,2.31-1.15-.8,1-2.15.89-3.08,1.64-1.98.29-2.68-1.02-2.7-2.55-.02-1.96,1.38-2.72,3.21-2.8,2.58-1.67,4.59-4.99,8.47-1.51,1.27,1.14-.15-2.31,1.53-2.49Z"/>
      <path class="cls-169" d="m114,289.92c-2.34-2.15-2.34-8.17,0-10.99q2.33.05,1.88-2.84c4.34,1.79.88,5.45,2.12,7.84.58.67.62,1.33,0,2-.72.37-1.61.74-1.19,1.74,1.76,4.16-.61,3.08-2.81,2.26Z"/>
      <path class="cls-22" d="m128.99,262.93c.67,1.02,1.33,1.02,2,0,3.32-.48,1.35,3.15,3.16,4.21.73.43-1.94.51-2.16,1.78.08.67,1.11,1.34,0,2-.62.12-1.44.55-1.83.31-2.09-1.3,1.79-3.7-.66-4.78-2.45-1.08-1.67-2.17-.5-3.53Z"/>
      <path class="cls-17" d="m128.8,319.72c-1.54.63-2.75,1.12-3.88,1.58-.74-.27-.41-.86-.58-1.21-.46-.97,2.79-3.43-1.48-3.11-1.63.12-.35-3.05-1.79-4.98,4.74,1.41,5.39,5.54,7.73,7.72Z"/>
      <path class="cls-169" d="m125.99,287.92c-.17-.97-.47-1.93-.46-2.9,0-.86-.3-2.07,1.31-2.1,1.36-.03,1.48.73,1.71,1.82.24,1.17.39,2.21-.09,3.36-.64,1.55,1.44,4.94-1.79,4.48-3.54-.5,1.9-2.56,0-3.96-.26-.19-.45-.46-.68-.7h0Z"/>
      <path class="cls-20" d="m135.99,286.92c1.82,1.75,3.37,3.55,1,6-.97,1.35-.27,3.96-3,4,2.13-3.04-2.03-7.34,2-9.99Z"/>
      <path class="cls-17" d="m128.99,304.91c-.36,1.33,1.8,2.66,0,4-1.8-3.31-4.34-.72-6.63-.8.71-4.31,4.63-1.77,6.63-3.2Z"/>
      <path class="cls-22" d="m122,299.91c-.04-.32,0-.7-.15-.96-1.06-1.7-2.03-3.49-.32-5.22.52-.52,2.08.4,1.94.78-.66,1.77,2.75,4.7-1.47,5.4h0Z"/>
      <path class="cls-17" d="m120.32,325.85c-1.77-1.19-3.56-2.05-2.01-3.95.69-.84,2.19-1.51,3.13-.62,2.64,2.48-3.11,2.09-1.12,4.58Z"/>
      <path class="cls-17" d="m136.99,283.92c-.33,1-.67,2-1,3-1.76-1.18-3.74,3.09-4.66.42-.88-2.53,3.12-1.66,4.23-3.31.16-.24.94-.08,1.43-.11Z"/>
      <path class="cls-20" d="m134.99,279.92c-2.28,2.44-4.42,3.44-6.13-.89,2.11.31,4.12.6,6.14.89h0Z"/>
      <path class="cls-20" d="m118,285.92c0-.67,0-1.33,0-2,1,0,2,0,3,0h0c-1.31,1.49-.07,2.77.53,4.1-2.02.44-2.36-1.48-3.53-2.1Z"/>
      <path class="cls-17" d="m121.29,308.01c-2.22,1.01-3.77,2.2-5.94.19,1.86-1.25,3.56-.92,5.94-.19Z"/>
      <path class="cls-25" d="m125.27,300.36c1.63.72,1.9,1.77,2.11,3.35-1.59-.55-1.91-1.62-2.11-3.35Z"/>
      <path class="cls-4" d="m121,283.92c.13-.77.15-1.71,1.29-1.5.26.05.64.81.56,1.15-.32,1.3-1.18.45-1.84.35h0Z"/>
      <path class="cls-169" d="m125.99,287.92c-.05,1.54-.86,1.62-1.92.91-.28-.19-.33-.73-.48-1.11.8.07,1.6.13,2.4.2h0Z"/>
      <path class="cls-169" d="m122,299.91c0,.6,1.13,1.58-.34,1.66-.58.03-1.22-.79-1.83-1.22.72-.15,1.45-.29,2.17-.44,0,0,0,0,0,0Z"/>
      <path class="cls-53" d="m160.97,41.11c1.3,3.28,1.17,6.25-1.84,8.6-.76-3.16.29-5.93,1.84-8.6Z"/>
      <path class="cls-130" d="m165.94,23.14c-.7,3.78-1.29,7.58-2.84,11.15-.6-.15-.9-.55-.96-1.14,1.17-3.37.08-7.6,3.8-10Z"/>
      <path class="cls-126" d="m147.98,37.06c-.6-2.28-3.62-4.16-1.16-6.95.98,2.66,1.95,5.33,2.93,7.99-.12.46-.39.81-.81,1.04-.32-.69-.64-1.38-.96-2.07Z"/>
      <path class="cls-98" d="m148.94,39.13c.27-.35.54-.69.81-1.04.79,1.95,2.05,3.75,2,5.98-.3.47-.63.51-.97.04-1.22-1.44-1.81-3.11-1.83-4.98Z"/>
      <path class="cls-93" d="m162.14,33.14c.32.38.64.76.96,1.14-.44,1.99,1.06,4.7-2.1,5.68,0-.74-1.64-1.45-.04-2.22,1.19-1.41-.02-3.25.86-4.72l.32.12Z"/>
      <path class="cls-180" d="m150.78,44.12c.33.01.65,0,.97-.04.69,1.66,1.38,3.31,2.07,4.97-.33.59-.74.65-1.22.18-.61-1.7-1.21-3.41-1.82-5.11Z"/>
      <path class="cls-117" d="m152.59,49.23c.41-.06.82-.12,1.22-.18.47.94,1.47,1.67,1.22,2.91-.35.36-.7.73-1.06,1.09-.46-1.27-.92-2.55-1.38-3.82Z"/>
      <path class="cls-161" d="m161.82,33.03c0,1.62.69,3.38-.86,4.72.19-1.59-.53-3.34.86-4.72Z"/>
      <path class="cls-32" d="m83.18,15.42c.57.31,1.15.61,1.72.92.38,2.27.76,4.53,1.14,6.8-1.1.9-2.1-1.1-3.2-.12-1.64.13-1.92-1.12-2.29-2.28.33-2.04-.24-4.53,2.63-5.33Z"/>
      <path class="cls-118" d="m89.88,46.1c-.76-2.51-2.32-4.95-.76-7.69,1.36,2.37,1.15,5.11,1.8,7.65-.33.47-.67.51-1.04.05Z"/>
      <path class="cls-46" d="m86.94,33.23c-.76-2.8-2.81-5.46-.91-8.54,1.7,1.83,1.25,4.27,1.84,6.42-.55.6-.1,1.64-.93,2.12Z"/>
      <path class="cls-76" d="m104.24,28.14c1.27,1.58,1.04,3.57.62,5.14-.6,2.24-1.35.45-1.92-.31.43-1.61.87-3.22,1.3-4.82Z"/>
      <path class="cls-52" d="m100.11,44.1c-.08,2.22-.84,4.21-2.04,6.06-.83-.45-.33-1.48-.9-2.05.46-1.41.36-3.05,1.7-4.09.44-.34.85-.32,1.24.08Z"/>
      <path class="cls-40" d="m86.94,33.23c.31-.71.62-1.41.93-2.12.25,1.89,1.39,3.62,1.01,5.63-2.82.03-1.6-2.17-1.94-3.51Z"/>
      <path class="cls-55" d="m100.11,44.1c-.41-.03-.83-.05-1.24-.08.6-1.69,1.19-3.37,1.79-5.06.43-.48.83-.45,1.19.08-.17,1.83-.55,3.58-1.75,5.06Z"/>
      <path class="cls-108" d="m97.16,48.1c.3.68.6,1.37.9,2.05-.05.94-.24,1.84-1.05,2.45-2.13-1.58.06-3,.15-4.5Z"/>
      <path class="cls-86" d="m101.85,39.04c-.4-.03-.8-.06-1.19-.08.51-1.28,1.02-2.56,1.52-3.85.27.63.53,1.25.8,1.88-.38.68-.75,1.37-1.13,2.05Z"/>
      <path class="cls-132" d="m89.88,46.1c.35-.02.69-.03,1.04-.05.37,1.34.73,2.67,1.1,4.01-3.62.25-1.41-2.65-2.14-3.96Z"/>
      <path class="cls-164" d="m83.18,15.42c-1.87,1.47-.56,4.05-1.97,5.68.88,1.93.1,3.78-.24,5.65-.39,1.56-1.07,3.06-.94,4.73l.06.16c-1.28,1.94-1.82,4.17-2.51,6.34-.28,1.58-1.08,3.03-1.09,4.67-.89,2.08-1.54,4.26-2.43,6.34-.02.29-.02.59-.03.88-1.73.72-.53,3.59-2.85,3.87-.4-.88-.81-1.77-1.21-2.65-.82-1.78-.22-3.77-.81-5.59-.11-.94-.21-1.87-.32-2.81-1.34-1.62-1.03-3.73-1.66-5.56-.24-1.45,0-2.96-.61-4.36-.9-2.1-.89-4.39-1.38-6.57-.84-2.69-1.59-5.4-2.06-8.19-.38-1.64-.2-3.19.77-4.6.22-.98.46-2.14,1.65-2.14,6.18.04,12.32.35,17.62,4.17Z"/>
      <path class="cls-143" d="m74.05,48.98c-1.13-2.55,1.12-4.17,1.73-6.24.71.11.75.72.93,1.23-1.11,1.55.69,4.65-2.66,5.01Z"/>
      <path class="cls-83" d="m77.14,38.1c.37-2.43-.07-5.23,2.94-6.47.09,2.33-.67,4.45-1.69,6.5-.43.49-.84.48-1.25-.03Z"/>
      <path class="cls-49" d="m80.19,27.1c.34-2,.68-4.01,1.01-6.01.54.64,1.09,1.28,1.63,1.93-.68,1.74-.29,3.81-1.63,5.35-.66-.17-.72-.81-1.01-1.26Z"/>
      <path class="cls-103" d="m77.14,38.1c.42,0,.83.02,1.25.03-.56,1.95-1.12,3.89-1.68,5.84-.31-.41-.62-.82-.93-1.23.26-1.6-.04-3.36,1.36-4.63Z"/>
      <path class="cls-111" d="m80.19,27.1c.34.42.68.84,1.01,1.26-.23,1.1.28,2.48-1.19,3.1-1.94-1.53.18-2.91.17-4.36Z"/>
      <path class="cls-145" d="m33.99,42.98c-.31.37-.62.73-.93,1.1-3.09.08-1.72-2.81-2.74-4.11.48-1.28.41-3.36,2.77-1.9.29.72-.14,1.78.99,2.1.46.5.63,1.11.63,1.78-.12.43-.36.77-.72,1.03Z"/>
      <path class="cls-96" d="m40.13,50.48c-2.87-1.16-3.99-3.43-4.05-6.37,2.89,1.14,3.51,3.73,4.05,6.37Z"/>
      <path class="cls-75" d="m33.09,38.07c-1.48-.18-1.95,1.11-2.77,1.9-.38-1.64-.76-3.28-1.15-4.92.31-.39.37-.99.96-1.16,1.81.81,2.17,2.65,2.96,4.18Z"/>
      <path class="cls-131" d="m30.13,33.89c-.32.39-.64.77-.96,1.16.3-1.44-2.13-2.81-.12-4.3,1.49.66.87,2.04,1.07,3.14Z"/>
      <path class="cls-104" d="m34.08,42.2c0-.68,0-1.36,0-2.04,1.16.11,1.66.84,1.82,1.9-.2.31-.49.46-.86.46-.36,0-.68-.11-.96-.32Z"/>
      <path class="cls-91" d="m34.97,42.09c.31,0,.63-.02.94-.03.06.37.12.73.18,1.1-.31-.09-.62-.16-.94-.19-.29-.15-.41-.32-.36-.54.05-.23.11-.34.19-.34Z"/>
      <path class="cls-56" d="m17.15,48.02c1.04-.46,1.17-2.09,2.62-2.02.17.67.34,1.34.51,2.01.28,1.34.56,2.68.84,4.02-.37.38-.73.75-1.1,1.13-1.29-1.53-2.37-3.18-2.87-5.14Z"/>
      <path class="cls-48" d="m33.05,44.78c1.32,1.84,1.85,3.93,1.96,6.16-3.2-1.24-3.25-3.49-1.96-6.16Z"/>
      <path class="cls-99" d="m30.03,53.99c-1.88.44-3-.68-4.02-1.98,1.83-.33,3.28.1,4.02,1.98Z"/>
      <path class="cls-36" d="m26.12,52.07c-1.65-.25-2.75-1.05-2.81-2.86,1.78.13,3.33.48,2.81,2.86Z"/>
      <path class="cls-63" d="m63.95,24.25c-1.88-.48-1.46.77-1.6,1.9-.31,2.35.31,4.89-1.24,7.02-1.03-.54-1.55-1.45-1.88-2.51-.09-3.46-.29-6.94,2.19-9.83,1.2-.22,2.12.26,2.86,1.17.26.8.38,1.58-.32,2.25Z"/>
      <path class="cls-29" d="m63.95,24.25c.02-.67.04-1.34.06-2.01-.96-1.48-1.31-2.94.12-4.35,1.6,2.53.54,5.62,1.76,8.23-.31.35-.29,1-.93,1.07-1.13-.71-.91-1.88-1.02-2.94Z"/>
      <path class="cls-78" d="m59.86,42.03c-.31,1.67-.62,3.35-.94,5.02-.45.28-.9.3-1.37.04-2.17-2.32-.9-4.59.11-6.86,2.15-1.12,1.56,1.09,2.19,1.81Z"/>
      <path class="cls-178" d="m64.96,27.18c.31-.36.62-.71.93-1.07.39,2.3.78,4.6,1.17,6.9.51,1.01.93,1.98-.87,1.97-.59-2.57-1.51-5.09-1.23-7.8Z"/>
      <path class="cls-123" d="m60.23,31.1c.29.69.58,1.38.86,2.06-.27,1.72.62,3.65-.91,5.15-.83-.21-1.37-.73-1.7-1.5-.25-2.16-.1-4.19,1.74-5.71Z"/>
      <path class="cls-94" d="m67.89,37.11c.32,1.85.63,3.71.95,5.56-3.21-.43-1.22-3.02-1.88-4.51-.5-1.06.05-1.2.93-1.05Z"/>
      <path class="cls-184" d="m58.92,37.01c.42.43.85.87,1.27,1.3-.11,1.24-.22,2.47-.33,3.71-.53-.66-1.06-1.32-1.58-1.97-1.14-1.3-1.38-2.41.64-3.04Z"/>
      <path class="cls-115" d="m58.08,47.06c.28,0,.56-.01.84-.02.01,1.39.53,2.86-.67,4.05-.37-.01-.75-.02-1.12-.04-1.09-1.66-1.78-3.23.94-4Z"/>
      <path class="cls-47" d="m67.89,37.11c-.31.35-.62.7-.93,1.05-.94-.89-1.04-1.99-.77-3.17.29-.66.58-1.31.87-1.97,1.08,1.2.99,2.64.83,4.09Z"/>
      <path class="cls-116" d="m69.16,45.48c1.66,1.66.59,3.72.81,5.59-.25-.03-.5-.04-.75-.03-.02-1.85-1.69-3.69-.05-5.56Z"/>
      <path class="cls-136" d="m101.97,69.63c.2-2.2,1.67-2.5,3.24-2.38,1.48.12,3.4.36,3.51,2.11.14,2.28-1.95,1.75-3.32,1.68-1.28-.06-3.15.84-3.42-1.41Z"/>
      <path class="cls-149" d="m128.99,238.94c-1.13.8-.67,1.56-.06,2.46.76,1.14,2.54,2.76.92,3.67-1.45.81-4.2,1.69-5.44-.82-.7-1.42-.94-.94-1.3-.07-.82,1.98-2.73,1.21-4.11,1.75-.16-.16-.33-.32-.49-.47-1.38-2.82.93-4.57,1.93-6.71-.57,1.05-1.23,2.04-2.1,2.86-.27.36-.57.68-.9.99-1.05.68-1.82,2.11-3.44,1.34-2.48-.89-2.97-3.78-.68-5.36,1.08-.75,1.61-1.44,1.68-2.64.77-.75.72-.76,1.47-4.17.1-.47,1.05-1.19,1.41-1.09,3.63,1.07,5.2-1.64,7.12-3.73h0c1.82,1.84-2.34,4.74,1.39,6.38-.42-3.28,1.15-3.58,3.61-2.38.67,1,1.33,2,2,3-.11.19-.23.39-.33.59-1.61,1.04-1.64,3.02-2.67,4.41Z"/>
      <path class="cls-149" d="m120,261.93c-1.51,1.67-5.06,3.33,0,5h0c-1.16,2.85-3.38.43-5,1-1.49-.45-3.78-.37-2-3h0c2.22.77,1.33-1.62,2.19-2.14,1.46-.88,2.9-2.29,4.8-.86h0Z"/>
      <path class="cls-149" d="m117,246.94c1.34,3.34-1.19,2.81-3,3-1.64-1.66-1.64-3.33,0-5,1.79-.52,2.54.52,3,2Z"/>
      <path class="cls-169" d="m117,246.94c-1-.67-2-1.33-3-2,0-.33,0-.67,0-1,1-.67,2-1.33,3-2,.63,1.67.73,3.33,0,5Z"/>
      <path class="cls-149" d="m113,231.95c.33.67.67,1.33,1,2-.16.93-.52,2.63-1.29,2.08-1.46-1.05-.99-2.78.29-4.07Z"/>
      <path class="cls-149" d="m114,273.92c-1-.12-1.94-.35-1.83-1.66.02-.22.39-.61.52-.58,1.21.27,1.19,1.3,1.31,2.24h0Z"/>
      <path class="cls-172" d="m58.08,47.06c-1.09,1.15-1.06,2.56-.94,4-.08.6-.16,1.2-.25,1.81-.9.49-1.78,1.03-2.88.75,0,0,.03,0,.03,0-.09-1.54-.54-3-.87-4.49-.35-1.97-1.06-3.87-1.1-5.9-.01-.39-.03-.78-.04-1.17-1.29-1.32-1.62-3.04-1.96-4.76.1-2-1.23-3.75-1.03-5.77l.03-.36c-.92-.92-1.22-2.19-1.85-3.27-.95-3.4-1.69-6.83-1.35-10.4,3.93-4.19,9.19-4.83,14.48-5.3,1.17-.1,1.56.96,1.72,1.98,1.28,2.27,1.49,4.52-.16,6.72-1.46,3.26-1.3,6.78-1.68,10.21-.44,1.97-.88,3.94-1.32,5.91-1.45.75-.8,1.95-.64,3.04.65,2.36-2.23,4.62-.2,7.01Z"/>
      <path class="cls-124" d="m48.19,28.02c1.24.78.26,2.18.89,3.13-2.25-1.36-2.99-.6-2.98,1.88.02,7.32-.1,14.65-.17,21.97-1.98-4.2-.4-8.62-.81-12.92-.17-1.77-.19-3.56-.27-5.34.11-2.9.23-5.8.34-8.71.99-2.01,2-1.06,3-.02Z"/>
      <path class="cls-45" d="m52.08,43.22c1.57,1.68,1.54,3.84,1.77,5.91-.27.4-.31.98-.92,1.09-1.03-2.25-2.39-4.45-.85-7Z"/>
      <path class="cls-73" d="m49.05,31.52c1.65,1.54,1.32,3.71,1.8,5.63-.49.58-.06,1.56-.86,2.01-.87-2.48-2.53-4.86-.94-7.64Z"/>
      <path class="cls-57" d="m49.99,39.16c.29-.67.57-1.34.86-2.01.4,1.63.8,3.27,1.19,4.9-2.71.48-1.83-1.6-2.05-2.89Z"/>
      <path class="cls-88" d="m52.93,50.22c.31-.36.61-.73.92-1.09-.37,1.51,1.61,2.92.2,4.47-1.36-.8-.9-2.2-1.12-3.38Z"/>
      <path class="cls-87" d="m48.19,28.02c-1-.44-2.01-.72-3,.02.07-3.53-1.09-7.14.69-10.55.77,3.51,1.54,7.02,2.31,10.53Z"/>
      <path class="cls-67" d="m61.92,20.89c.05-2.24.11-4.48.16-6.72.61-.26,1.22-.52,1.82-.79.07,1.5.15,3,.22,4.5-.04,1.45-.08,2.9-.12,4.35-.85-.22-1.7-.42-2.08-1.35Z"/>
      <path class="cls-59" d="m205.03,47.03c.23-.02.45-.09.65-.21.11,1.75.79,3.57-.57,5.16-.03-1.65-.05-3.3-.08-4.95Z"/>
      <path class="cls-146" d="m34.97,42.09c-.01.31.05.6.18.88-.38,0-.77,0-1.15,0,.1-.25.13-.51.09-.78.29-.08.58-.12.88-.11Z"/>
      <path class="cls-176" d="m115,178.91c.01-.36.03-.72.04-1.08,1.21-1.08,2.98-1.79,2.66-3.91.06-1.36-.44-2.72.06-4.06,7.25-4.91,7.48-6.93,1.52-13.55-.77-.86-1.58-1.71-1.39-3.01-.29-1.6-2.21-1.03-2.85-2.16-.85-1.19-.12-2.27.4-3.21,1.93-3.46,1.69-7.21,1.63-10.94.37-.01.75-.03,1.12-.04,4.93,2.06,9.86,2.44,14.79.03.29.34.57.69.86,1.03.59.68.67,1.51.55,2.32-.77,5.12,1.15,9.25,4.6,12.85-.36.29-.72.57-1.08.86-1.38,1.47-3.42.97-5.05,1.69-2.9,1.29-5.91,2.55-5.36,6.63.5,3.67,2.72,5.45,6.34,5.65.66.04,1.31.09,1.95.26.7.28,1.28.66,1.13,1.55-1.02.54-1.75,1.3-2.22,2.41-.51,1.21-1.1,2.48-.34,3.65,1.01,1.55,2.31-.06,3.49.04.83.43,1.12,1.13,1.01,2.03-2,.57-4,1.13-6,1.7-1.28,1.99-3.54.14-5.03,1.29l-.44-.13-.4.23c-1,.02-2,.04-3,.06-.91-.08-1.81-.16-2.72-.24-2.09-.64-4.19-1.28-6.28-1.93Z"/>
      <path class="cls-20" d="m131.99,203.96c3.77,3.03,2.01-1.5,3.18-2.74,1.43,1.8,2.77,3.45.69,5.03-1.5,1.15-2.55,4.14-5.13,2.72-2.76-1.52,1.31-3.25.26-5.01.33-.35.67-.35,1,0Z"/>
      <path class="cls-169" d="m119,205.96c-1.22-.96-2.38-3.33-3.97.47.69-2.97,1.32-5.34-2.4-6.59,3.43-.35,5.11,2.47,7.88,2.03.39-.06-.33,1.35-.5,2.1.66,1.16.68,2.01-1,2Z"/>
      <path class="cls-169" d="m115.21,212.11c5.57.24,5.85.48,5.26,4.05-.48,2.89-3.13.67-4.28,1.91-.12-.59-.44-1.67-.34-1.71,6.62-2.65-1.09-2.42-.64-4.25Z"/>
      <path class="cls-22" d="m127.73,214.39c-1.44-1.73-1.26-3.96-3.13-5.1-1.77-1.08-.63-1.85.29-2.57,1.1-.86,1.8-.24,2.32.78,1.15,2.24.83,4.58.52,6.89Z"/>
      <path class="cls-25" d="m120,188.97c-.33,1,3.69-.18,1,2-2.73-.45-6.02.17-7.04-3.73,2.34-.51,3.85,1.86,6.04,1.73Z"/>
      <path class="cls-20" d="m119,205.96c.81-.43.98-1.18,1-2,.89-.35,1.78-.69,2.72-1.06.66,2.03.45,4.25-1.25,5.3-1.59.98-1.73-1.34-2.47-2.25Z"/>
      <path class="cls-169" d="m124.5,194.91c-1.4,1.81-1.91,3.43-3.83,3.49.62-.72-2.62-2.31.59-2.5.93-.05,1.84-.55,3.24-.99Z"/>
      <path class="cls-22" d="m114,222.95c.22-1.47.48-2.96,2.52-2.56.33.06.85.89.78.99-.8,1.09-1.99,1.48-3.3,1.57h0Z"/>
      <path class="cls-169" d="m124.3,214.98c-.33.1-.79.41-1.12.3-.62-.21-1.09-.78-.78-1.47.12-.27.79-.5,1.11-.41.61.18,1.1.63.78,1.58Z"/>
      <path class="cls-7" d="m126.46,204.71c-.72,0-1.25.15-1.58-.04-.35-.21-.65-.72-.72-1.14-.08-.49.22-.96.8-.48.49.4.86.94,1.5,1.66Z"/>
      <path class="cls-25" d="m131.99,203.96c-.33,0-.67,0-1,0,.27-.77-.58-2.36.92-2.15,1.07.15,1.16,1.36.08,2.15Z"/>
      <path class="cls-171" d="m138.98,153.16c-5.31-2.59-7.28-8.41-5.15-15.16,3.11-3.97,6.41-3.97,12.12.01,1.46,2.84,2.37,5.79,1.8,9.04-.48,5-3.66,7.21-8.78,6.11Z"/>
      <path class="cls-171" d="m132.98,136.97c-3.67,4.4-9.92,4.39-14.79-.03-2.52-4.2-.08-7.22,2.58-9.99,1.55-1.62,9.69-1.21,11.37.5,2.81,2.87,2.76,6.15.83,9.52Z"/>
      <path class="cls-157" d="m117.07,136.98c3.83,5.36-.03,9.63-2.03,14.15-3.68.97-7.34,2.41-10.23-1.79-2.41-3.5.42-6.26.91-9.35,2.97-5.68,6.51-6.62,11.35-3.01Z"/>
      <path class="cls-1" d="m99.12,133.08c1.61-.19,2.04-2.46,3.89-2.22,2.32,2.23,2.47,4.99,1.89,7.92-2.51,4.36-2.92,10.26-8.87,12.1-.11-2.6-.21-5.19-.32-7.79.46-1.66.92-3.31,1.38-4.97,1.17-1.48,2.06-3.08,2.02-5.04Z"/>
      <path class="cls-9" d="m131.92,120.44c.69.95,1.72.63,2.65.7.64,2.03-.77,2.81-2.24,3.04-5.04.81-10.02.57-14.69-1.79-.83-.42-.65-1.42-.58-2.24,2.31-.1,4.61-.2,6.92-.31h2.02c1.97.19,3.94.39,5.91.58Z"/>
      <path class="cls-114" d="m147.76,147.05c-1.05-2.92-1.7-5.93-1.8-9.04.5-.03,1-.07,1.51-.1.86,2.98,1.83,5.94,1.37,9.11-.36.01-.71.02-1.07.03Z"/>
      <path class="cls-149" d="m135.99,237.95c-1.45,3.63-3.73,2.26-6,1-.35-2.07.88-3.51,2-5,1.51,1.16.56,4.77,4,4Z"/>
      <path class="cls-149" d="m129.97,230.96c.06-2.41.77-4.03,2.2-5.51.9,2.59.23,4.38-2.2,5.51Z"/>
      <path class="cls-149" d="m124.99,226.95c-.62-.97-2.84.43-2.6-1.7.06-.53.91-1.47,1.02-1.42,1.28.6,1.41,1.88,1.58,3.11h0Z"/>
      <path class="cls-17" d="m120,261.93c-2.16.04-4.14.15-4.75,2.96-.22.99-1.46,1.18-2.24.04,1.98-1.82,2.7-6.59,7-3Z"/>
      <path class="cls-20" d="m129.95,258c.26-1.25-.46-2.64,1.18-3.92.16,1.68.03,2.89-1.18,3.92Z"/>
      <path class="cls-163" d="m135.9,168.93c-4.1.62-7.62.69-9.35-4.42-2.3-6.82,2.07-8.85,7.92-10.67,1.02-.32,2.28.11,3.42.19,4.88,2.73,5.65,7.87,1.92,12.68-.72,1.77-2.52,1.64-3.92,2.22Z"/>
      <path class="cls-72" d="m135.9,168.93c1.08-1.13,2.27-2.09,3.92-2.22.06.44.11.87.17,1.31-.73,1.1-1.87,1.49-3.07,1.79-.34-.29-.68-.58-1.02-.87Z"/>
      <path class="cls-17" d="m131.99,233.95c.35,2.07-.38,3.71-2,5h-1c-1.3-3.05-.35-4.74,3-5Z"/>
      <path class="cls-149" d="m117,246.94c-.47-1.67-.47-3.33,0-5h0c2.88.22.52,3.07,2,4h0c-.43.8-1.18.98-2,1Z"/>
      <path class="cls-149" d="m133.75,242.79c.98-.22,1.24.26,1.1.74-.16.58-.47,1.27-.94,1.57-.57.36-.9-.26-.79-.76.12-.59.46-1.14.63-1.55Z"/>
      <path class="cls-173" d="m127.83,180.91c1.68-.43,3.36-.86,5.03-1.29-1.08,2.79-3.18,1.53-5.03,1.29Z"/>
      <path class="cls-173" d="m131.41,183.73c.82.63,1.79,1.63,1,2.31-.75.65-1.17-.62-1.32-1.38-.05-.27.19-.59.32-.93Z"/>
      <path class="cls-162" d="m117.88,153.3c1.65,2.89,5.79,3.42,6.33,7.63.88,6.83.97,7.11-6.14,8.81-1.93.37-3.38-1.09-5.16-1.33-1.2-.6-2.39-1.2-3.05-2.47.56-1.92-1.63-2.54-1.89-4.26-1-6.66,2.08-9.37,9.91-8.38Z"/>
      <path class="cls-3" d="m109.87,165.94c1.52-.01,2.59.66,3.15,2.1,3.27.78,5.04,3.02,5.91,6.11.91,3.57-1.37,3.76-3.89,3.69-3.46-1.78-6.15-4.84-10-5.96-1.22-2.05-4.66-4.36-3.44-5.93,1.85-2.37,5.43-.74,8.26,0Z"/>
      <path class="cls-164" d="m120,266.93c1.88-.97,2.19-4.17,5.2-3.53-2.41.23-.36,6.75-5.2,3.53h0Z"/>
      <path class="cls-22" d="m119,245.94c-1.62-.86-.38-3.14-2-4,1.11-2.07,3.57-3.35,3.45-6.2,2.56,3.96-2.63,6.57-1.45,10.2Z"/>
      <path class="cls-185" d="m118.94,174.15c-1.05-2.93-3.74-4.27-5.91-6.11,2.2-.97,3.5.73,5.05,1.7.48,1.43,1.14,2.83.86,4.41Z"/>
    </g>
  </g>
</svg>