<?xml version="1.0" encoding="UTF-8"?>
<svg id="Layer_2" data-name="Layer 2" xmlns="http://www.w3.org/2000/svg" xmlns:xlink="http://www.w3.org/1999/xlink" viewBox="0 0 396.96 440.88">
  <defs>
    <style>
      .cls-1 {
        clip-path: url(#clippath);
      }

      .cls-2 {
        fill: none;
      }

      .cls-2, .cls-3, .cls-4, .cls-5, .cls-6, .cls-7, .cls-8, .cls-9, .cls-10, .cls-11 {
        stroke-width: 0px;
      }

      .cls-3, .cls-4, .cls-5, .cls-6, .cls-7, .cls-8, .cls-9, .cls-10 {
        fill-rule: evenodd;
      }

      .cls-3, .cls-11 {
        fill: #1d1d1d;
      }

      .cls-4 {
        fill: #1b1918;
      }

      .cls-5 {
        fill: #5bc3cd;
      }

      .cls-6 {
        fill: #d6ead7;
      }

      .cls-7 {
        fill: #de202a;
      }

      .cls-8 {
        fill: #fefefe;
      }

      .cls-9 {
        fill: #fff;
      }

      .cls-10 {
        fill: #f2d519;
      }
    </style>
    <clipPath id="clippath">
      <rect class="cls-2" width="396.96" height="440.88"/>
    </clipPath>
  </defs>
  <g id="Layer_1-2" data-name="Layer 1">
    <g>
      <rect class="cls-11" x="269.4" y="143.07" width="9.37" height="9.55"/>
      <path class="cls-3" d="m247.14,151.87v-31.35h24.04v7.36h-14.05v5.12h12.07v6.63h-12.07v12.24h-10Z"/>
      <rect class="cls-11" x="143.59" y="142.96" width="9.37" height="9.54"/>
      <path class="cls-3" d="m130.74,139.3l8.75-.08c-.61,8.88-6.01,13.53-14.57,13.53-10.38,0-16.26-6.47-16.26-16.73s6.34-16.1,15.91-16.04c8.5.05,14.22,4.75,14.9,13.66l-8.83-.03c-.3-3.27-1.95-6.04-5.99-6.04-5.05,0-6.42,4.96-6.44,9.18-.03,4.45,1.4,8.87,6.49,8.83,4.08-.03,5.75-3.09,6.04-6.28h0Z"/>
      <path class="cls-3" d="m73.99,57.32l2.02-14.19-2.02-15.24-12.23,15.4,12.23,14.03Z"/>
      <path class="cls-3" d="m77.42,43.26l-1.41,12.92,22.6-12.78-21.18-.14Z"/>
      <path class="cls-10" d="m73.99,57.32l-12.23-14.03,12.23-15.4,24.61,15.5-22.6,12.78-2.02,1.14Zm27.92-13.85l-27.84-18.42-23.27,18.28,23.13,16.1,27.98-15.96Z"/>
      <path class="cls-8" d="m73.99,27.9l2.02,15.24-2.02,14.19,2.02-1.14,1.41-12.92,21.18.14-24.61-15.5Z"/>
      <path class="cls-3" d="m73.99,97.29l2.02-14.19-2.02-15.24-12.23,15.4,12.23,14.03Z"/>
      <path class="cls-3" d="m77.42,83.23l-1.41,12.92,22.6-12.78-21.18-.14Z"/>
      <path class="cls-10" d="m73.99,97.29l-12.23-14.03,12.23-15.4,24.61,15.5-22.6,12.78-2.02,1.14Zm27.92-13.85l-27.84-18.42-23.27,18.28,23.13,16.1,27.98-15.96Z"/>
      <path class="cls-8" d="m73.99,67.87l2.02,15.24-2.02,14.19,2.02-1.14,1.41-12.92,21.18.14-24.61-15.5Z"/>
      <path class="cls-3" d="m318.48,57.32l2.02-14.19-2.02-15.24-12.23,15.4,12.23,14.03Z"/>
      <path class="cls-3" d="m321.91,43.26l-1.41,12.92,22.6-12.78-21.18-.14Z"/>
      <path class="cls-10" d="m318.48,57.32l-12.23-14.03,12.23-15.4,24.61,15.5-22.6,12.78-2.02,1.14Zm27.92-13.85l-27.84-18.42-23.27,18.28,23.13,16.1,27.98-15.96Z"/>
      <path class="cls-8" d="m318.48,27.9l2.02,15.24-2.02,14.19,2.02-1.14,1.41-12.92,21.18.14-24.61-15.5Z"/>
      <path class="cls-3" d="m318.48,97.29l2.02-14.19-2.02-15.24-12.23,15.4,12.23,14.03Z"/>
      <path class="cls-3" d="m321.91,83.23l-1.41,12.92,22.6-12.78-21.18-.14Z"/>
      <path class="cls-10" d="m318.48,97.29l-12.23-14.03,12.23-15.4,24.61,15.5-22.6,12.78-2.02,1.14Zm27.92-13.85l-27.84-18.42-23.27,18.28,23.13,16.1,27.98-15.96Z"/>
      <g class="cls-1">
        <path class="cls-8" d="m318.48,67.87l2.02,15.24-2.02,14.19,2.02-1.14,1.41-12.92,21.18.14-24.61-15.5Z"/>
        <path class="cls-10" d="m21.77,109.55c20.23,24.41,47.91,43.86,80.01,51.56,31.56,7.05,59.88,4.93,96.97-13.64,11.8,7.1,51.19,24.77,96.5,13.69,28.74-6.88,56.27-23.78,79.38-51.38l-352.86-.24Zm-1.95-99.35c38.08,8.66,55.64,4.05,79.45-2.22,4.06-1.07,8.3-2.18,13.09-3.34,14.18-3.45,27.34-5.3,41.43-2.87,13.63,2.35,28.01,8.68,44.85,21.44,14.36-11.29,28.26-18.55,43.77-21.37,16.06-2.92,33.71-1.03,55.25,6.11h.01c13.51,4.57,25.21,6.96,37.57,7.34,12.41.38,25.57-1.26,41.96-4.75l4.05-.86-.92,4.04c-3.4,14.94-5.53,30.18-5.49,45.6.05,19.82,3.11,33.87,7.97,47.68-5.97,13.18-8.97,33.5-10.01,40.99-2,14.39-2.91,29.36-3.1,44.19-.13,10.55,1.3,20.84,3.57,30.98,2.28,10.19,5.42,20.3,8.68,30.41,8.19,25.38,13.05,47.5,14.25,65.93,1.18,18.21-1.21,32.93-7.5,43.78-8.95,15.45-23.57,26.11-40.72,33.01-20.26,8.14-44.09,11.03-66.22,10.36-20.23-.62-37.11.69-50.6,5.45-13.2,4.66-25.66,13.12-31.29,27.83h-2.34c-4.91-11.27-18-23.02-32.43-27.79-12.93-4.7-28.61-5.93-47.99-5.2-20.02.75-44.3-2.42-65.45-10.73-17.47-6.86-32.86-17.25-42.11-31.84C.32,349.74-1.36,331.38.91,311.55c2.23-19.51,8.27-40.41,14.61-60.5,3.4-10.78,6.45-21.51,8.57-31.44,2.11-9.86,3.3-18.93,3.02-26.48-.55-14.52-1.34-29.04-3.21-43.51-1.79-13.81-2.88-30.26-10.2-42.41,4.55-12.16,7.86-23.57,8.38-43.89.4-15.26-1.43-31.92-5.43-49.96l-.9-4.08,4.07.93Zm80.81,2.91c-23.68,6.23-41.36,10.88-77.94,3.14,3.49,16.92,5.06,32.65,4.68,47.18-.39,14.89-2.82,28.5-7.34,40.82l356.34.24c-4.76-15.18-6.76-30.27-6.8-45.18-.04-14.47,1.78-28.75,4.74-42.75-14.96,3-27.36,4.38-39.2,4.02-12.93-.39-25.11-2.87-39.11-7.61-20.65-6.85-37.47-8.68-52.64-5.92-15.12,2.75-28.75,10.09-43.01,21.58l-1.63,1.31-1.65-1.28c-16.79-13.01-30.9-19.38-44.16-21.66-13.23-2.28-25.75-.5-39.29,2.79-4.45,1.08-8.81,2.23-12.98,3.32h0ZM23.68,119.78c2.47,9.72,4.21,19.44,5.47,29.16,1.9,14.69,2.7,29.34,3.25,43.99.31,8.04-.94,17.54-3.12,27.77-2.17,10.17-5.26,21.05-8.7,31.93-6.26,19.85-12.23,40.46-14.4,59.51-2.14,18.71-.63,35.93,7.89,49.37,8.59,13.55,23.07,23.26,39.56,29.74,20.45,8.04,43.94,11.1,63.32,10.38,20.03-.75,36.34.55,49.98,5.51,12.65,4.6,22.94,12.29,31.67,24.31,7.4-12.01,17.66-19.72,30.81-24.36,14.17-5,31.65-6.38,52.51-5.74,21.48.66,44.56-2.12,64.1-9.98,16.12-6.48,29.8-16.42,38.11-30.75,5.74-9.9,7.91-23.62,6.79-40.79-1.16-18-5.94-39.69-14-64.65-3.29-10.2-6.47-20.43-8.81-30.89-2.35-10.5-3.83-21.18-3.69-32.18.19-15.08,1.11-30.28,3.14-44.85,1.32-9.54,3.12-18.83,5.49-27.66-22.67,24.74-49.07,40.12-76.59,46.71-32.59,7.8-66.53,2.97-97.84-13-34.78,17.25-68.33,20.09-98.08,12.95-30.21-7.25-56.62-24.49-76.87-46.48h0Z"/>
      </g>
      <path class="cls-8" d="m108.67,136.02c0-10.1,6.34-16.1,15.91-16.04,8.5.05,14.22,4.75,14.9,13.66l-8.83-.03c-.3-3.27-1.95-6.04-5.99-6.04-5.05,0-6.42,4.96-6.44,9.18-.03,4.45,1.4,8.87,6.49,8.83,4.08-.03,5.75-3.09,6.04-6.28l8.75-.08c-.61,8.88-6.01,13.53-14.57,13.53-10.38,0-16.26-6.47-16.26-16.73h0Zm255.03-21.44l-330.47-.14c45.2,46.39,103.05,60.26,165.27,27.42,62.15,32.73,121.75,18.22,165.2-27.28h0Zm-220.11,37.92v-9.54h9.37v9.54h-9.37Zm103.55-.64v-31.35h24.04v7.36h-14.05v5.12h12.07v6.63h-12.07v12.24h-10Zm22.26.75v-9.55h9.37v9.55h-9.37Z"/>
      <path class="cls-3" d="m198.5,141.87c-62.22,32.84-120.07,18.96-165.27-27.42l330.47.14c-43.45,45.5-103.05,60.01-165.2,27.28h0Zm176.12-32.08l-352.86-.24c20.23,24.41,47.91,43.86,80.01,51.56,31.56,7.05,59.88,4.93,96.97-13.64,11.8,7.1,51.19,24.77,96.5,13.69,28.74-6.88,56.27-23.78,79.38-51.38h0Z"/>
      <path class="cls-10" d="m239.87,354.17c-12,2.98-25.85,7.29-34.4,16.7l-6.86,7.56-6.76-7.66c-8.26-9.36-23-13.68-34.77-16.6-21-3.68-42.17-9.57-61.54-18.56-7.8-3.63-17.02-9.5-21.52-17-2.55-4.26-3.74-9.24-4.05-14.16-.75-11.94.67-23.97,4.28-35.39,2.63-8.34,3.68-17.29,4.09-26,.5-10.59.05-21.23-.66-31.8l-.88-12.96,12.5,3.55c33.44,9.51,73.92,6.68,106.04-6.46l3.45-1.41,3.45,1.4c32.24,13.09,71.87,16.02,105.43,6.47l12.5-3.55-.87,12.96c-.72,10.57-1.16,21.21-.66,31.8.41,8.71,1.46,17.66,4.09,26,3.61,11.42,5.02,23.45,4.27,35.39-.31,4.92-1.49,9.9-4.05,14.16-4.5,7.5-13.72,13.37-21.52,17-19.37,9-40.54,14.88-61.54,18.56h0Z"/>
      <path class="cls-5" d="m238.95,349.8c-13.04,3.23-27.51,7.85-36.78,18.07l-3.51,3.87-3.46-3.92c-9.04-10.23-24.35-14.84-37.2-18.02-20.58-3.6-41.59-9.42-60.58-18.24-6.91-3.21-15.6-8.61-19.58-15.25-2.18-3.63-3.16-7.95-3.42-12.14-.72-11.42.62-22.85,4.07-33.77,2.75-8.69,3.87-18.06,4.3-27.14.5-10.74.05-21.59-.67-32.31l-.44-6.63,6.39,1.82c34.41,9.79,75.93,6.88,108.95-6.62l1.76-.72,1.77.71c33.14,13.45,73.8,16.45,108.33,6.63l6.39-1.82-.45,6.63c-.73,10.72-1.17,21.57-.67,32.31.43,9.08,1.55,18.45,4.3,27.14,3.45,10.92,4.79,22.35,4.07,33.77-.26,4.19-1.24,8.51-3.42,12.14-3.98,6.64-12.66,12.04-19.57,15.25-18.99,8.82-40,14.64-60.58,18.24h0Zm-58.25-49.17c-4.77,4.77-7.42,11.17-7.42,17.91s2.65,13.14,7.42,17.91c4.77,4.77,11.17,7.42,17.92,7.42s13.15-2.65,17.91-7.42c4.77-4.77,7.42-11.17,7.42-17.91s-2.65-13.14-7.42-17.91c-4.77-4.77-11.17-7.42-17.91-7.42s-13.15,2.65-17.92,7.42h0Z"/>
      <path class="cls-4" d="m198.62,289.38c-.25,0-.49,0-.73.01-.07.12-.12.25-.15.37,1.33.46,3.13,1.21,4.75,2.23,1.11.7,2.14,1.53,2.89,2.5,3.7.21,6.97,1.15,10.66,3.08l1.53-1.19c-5.1-4.36-11.72-7-18.96-7h0Zm-1.71,1c-3.5.41-6.32.91-11.01,3.75-.84,1.32-1.53,2.64-2.07,3.99-.47,1.17-.82,2.35-1.04,3.55,2.81.98,5.35,2.34,7.73,3.92,1.86-.88,3.75-1.59,5.67-2.15,1.95-.57,3.93-.99,5.93-1.29.86-2.34,1.55-4.86,2.5-7.25-.68-.83-1.59-1.56-2.58-2.19-1.8-1.14-3.84-1.92-5.14-2.34h0Zm-11.84,3.48c-.42-.3-1.19-.24-1.92-.03-1.87,1.17-3.6,2.55-5.15,4.1-3.55,3.55-6.19,8.02-7.54,13.02.52-.16,1.06-.31,1.6-.43.74-.16,1.48-.27,2.21-.27,2.08-3.17,4.17-6.33,7.62-8.37.22-1.37.61-2.73,1.15-4.07.53-1.32,1.21-2.64,2.03-3.95h0Zm5.79,12.5c-1.15,3.32-1.91,7.64-2.93,10.68,1.43,1.51,2.93,2.99,4.47,4.47,1.47,1.4,2.97,2.8,4.48,4.2,3.58-1.52,7.16-2.4,10.75-3.56.63-1.78,1.21-3.64,1.72-5.59.48-1.84.91-3.77,1.29-5.78-2.37-3.25-5.77-6.11-8.39-7.79-1.96.29-3.9.7-5.81,1.26-1.89.55-3.75,1.25-5.57,2.11h0Zm25.8-8.2c1.56,2.86,2.68,5.91,3.09,9.3,1.42,1.24,2.69,2.59,3.8,4.1,1.05,1.44,1.95,3.02,2.66,4.76.56-.11,1.08-.43,1.42-.81-.71-6.84-3.78-12.98-8.38-17.59-.33-.33-.67-.65-1.02-.97l-1.57,1.21Zm2.79,10.16c-2.65.59-6.07,1.66-7.95,2.49-.38,2.07-.82,4.05-1.32,5.95-.51,1.94-1.09,3.8-1.71,5.58,2.05,2.72,3.98,5.4,5.76,8.03,1.43-.21,2.83-.52,4.25-.97,1.51-.47,3.04-1.09,4.63-1.89,1.15-2.58,2.44-5.44,2.6-10.45l-.09.04c-.7-1.86-1.63-3.53-2.74-5.05-1-1.36-2.15-2.6-3.42-3.73h0Zm-5.24,22.91c-2.28,3.4-4.74,6.2-7.34,8.57.35,1.25.54,2.53.73,3.83.05.36.1.71.16,1.07,1.35.19,2.49.17,3.68.05,2.91-1.43,5.55-3.32,7.82-5.59,2-2,3.71-4.29,5.07-6.81-.11-1.35-.49-3.1-1.04-3.98-1.56.77-3.07,1.38-4.55,1.84-1.51.47-3,.8-4.51,1.02h0Zm-8.18,8.71c-4.01-.7-7.4-1.75-10.1-3.2-1.56.78-3.19,1.41-4.88,1.91-1.61.48-3.28.86-4.98,1.16-.4,1.83.28,4.27.91,5.45,3.57,1.56,7.51,2.43,11.66,2.43,1.15,0,2.28-.07,3.4-.2,1.7-.8,3.3-1.63,4.91-2.51-.07-.41-.12-.83-.19-1.24-.18-1.29-.37-2.58-.72-3.8h0Zm-10.51-3.94c.03-3.2.21-6.36.9-9.58-1.54-1.42-3.08-2.86-4.61-4.32-1.5-1.44-2.98-2.9-4.38-4.37-3.13.82-6.26,1.78-9.29,2.39-.57,1.68-.9,3.41-1.04,5.21-.14,1.91-.06,3.89.19,5.92,2.06,3.13,5.44,5.84,8.59,7.74,1.68-.29,3.32-.66,4.92-1.14,1.63-.49,3.21-1.09,4.72-1.84h0Zm-18.12-16.31c-1.81-2.23-3.11-4.92-3.33-8.61-.59.02-1.2.11-1.81.24-.69.15-1.38.36-2.03.56-.5,2.14-.76,4.36-.76,6.64,0,4.68,1.1,9.11,3.07,13.03,1.27.05,2.61.1,3.89-.44-.23-2-.31-3.96-.16-5.86.14-1.92.5-3.78,1.14-5.57h0Zm.01-22.38c5.43-5.43,12.93-8.79,21.22-8.79s15.79,3.36,21.22,8.79c5.43,5.43,8.79,12.93,8.79,21.22s-3.36,15.79-8.79,21.22c-5.43,5.43-12.94,8.79-21.22,8.79s-15.79-3.36-21.22-8.79c-5.43-5.43-8.79-12.93-8.79-21.22s3.36-15.79,8.79-21.22h0Z"/>
      <path class="cls-3" d="m182.47,301.55c-3.95,2.09-6.17,5.6-8.44,9.06.15,4.22,1.67,7.17,3.77,9.59,3.22-.63,6.57-1.67,9.91-2.53,1.18-3.18,1.99-8.16,3.31-11.75-2.61-1.78-5.42-3.3-8.55-4.36h0Z"/>
      <path class="cls-3" d="m185.38,294.45c5.37-3.35,8.31-3.72,12.32-4.16,0-.3.02-.6.2-.89-5.41.13-10.45,1.73-14.74,4.43,1.03-.29,2.18-.28,2.23.63h0Z"/>
      <path class="cls-7" d="m177.39,319.7c-1.81-2.23-3.11-4.92-3.33-8.61-.59.02-1.2.11-1.81.24-.69.15-1.38.36-2.03.56-.5,2.14-.76,4.36-.76,6.64,0,4.68,1.1,9.11,3.07,13.03,1.27.05,2.61.1,3.89-.44-.23-2-.31-3.96-.16-5.86.14-1.92.5-3.78,1.14-5.57h0Z"/>
      <path class="cls-7" d="m178.14,320.13c-.57,1.68-.9,3.41-1.04,5.21-.14,1.91-.06,3.89.19,5.92,2.06,3.13,5.44,5.84,8.59,7.74,1.68-.29,3.32-.66,4.92-1.14,1.63-.49,3.21-1.09,4.72-1.84.03-3.2.21-6.36.9-9.58-1.54-1.42-3.08-2.86-4.61-4.32-1.5-1.44-2.98-2.9-4.38-4.37-3.13.82-6.26,1.78-9.29,2.39h0Z"/>
      <path class="cls-7" d="m187.93,317.04c1.43,1.51,2.93,2.99,4.47,4.47,1.47,1.4,2.97,2.8,4.48,4.2,3.58-1.52,7.16-2.4,10.75-3.56.63-1.78,1.21-3.64,1.72-5.59.48-1.84.91-3.77,1.29-5.78-2.37-3.25-5.77-6.11-8.39-7.79-1.96.29-3.9.7-5.81,1.26-1.89.55-3.75,1.25-5.57,2.11-1.15,3.32-1.91,7.64-2.93,10.68h0Z"/>
      <path class="cls-7" d="m206.02,339.95c-4.01-.7-7.4-1.75-10.1-3.2-1.56.78-3.19,1.41-4.88,1.91-1.61.48-3.28.86-4.98,1.16-.4,1.83.27,4.27.91,5.45,3.57,1.56,7.51,2.43,11.66,2.43,1.15,0,2.28-.07,3.4-.2,1.7-.8,3.3-1.63,4.91-2.51l-.19-1.24c-.18-1.29-.37-2.58-.72-3.8h0Z"/>
      <path class="cls-7" d="m214.21,331.23c-2.28,3.4-4.74,6.2-7.34,8.57.35,1.25.54,2.53.73,3.83l.16,1.07c1.35.19,2.49.17,3.68.05,2.91-1.43,5.55-3.32,7.82-5.59,2-2,3.71-4.29,5.07-6.81-.11-1.35-.49-3.1-1.04-3.98-1.56.77-3.07,1.38-4.55,1.84-1.51.47-3,.8-4.51,1.02h0Z"/>
      <path class="cls-7" d="m208.46,322.34c2.05,2.72,3.98,5.4,5.76,8.03,1.43-.21,2.83-.52,4.25-.97,1.51-.47,3.04-1.09,4.63-1.89,1.15-2.58,2.44-5.44,2.6-10.45l-.09.04c-.7-1.86-1.63-3.53-2.74-5.05-1-1.36-2.15-2.6-3.42-3.73-2.65.59-6.07,1.66-7.95,2.49-.38,2.07-.82,4.05-1.32,5.95-.51,1.94-1.09,3.8-1.71,5.58h0Z"/>
      <path class="cls-7" d="m219.75,307.46c1.42,1.24,2.69,2.59,3.8,4.1,1.05,1.44,1.95,3.02,2.66,4.76.56-.11,1.08-.43,1.42-.81-.71-6.84-3.78-12.98-8.38-17.59-.33-.33-.67-.65-1.02-.97l-1.57,1.21c1.56,2.86,2.68,5.91,3.09,9.3h0Z"/>
      <path class="cls-7" d="m205.39,294.49c3.7.21,6.97,1.15,10.66,3.08l1.53-1.19c-5.1-4.36-11.72-7-18.96-7h-.73c-.07.14-.12.26-.15.38,1.33.46,3.13,1.21,4.75,2.23,1.11.7,2.14,1.53,2.89,2.5h0Z"/>
      <path class="cls-7" d="m202.13,302.14c.86-2.34,1.55-4.86,2.5-7.25-.68-.83-1.59-1.56-2.58-2.19-1.8-1.14-3.84-1.92-5.14-2.34-3.5.41-6.32.91-11.01,3.75-.84,1.32-1.53,2.64-2.07,3.99-.47,1.17-.82,2.35-1.04,3.55,2.81.98,5.35,2.34,7.73,3.92,1.86-.88,3.75-1.59,5.67-2.15,1.95-.57,3.93-.99,5.93-1.29h0Z"/>
      <path class="cls-7" d="m181.89,301.87c.22-1.37.61-2.73,1.15-4.07.53-1.32,1.21-2.64,2.03-3.95-.42-.3-1.2-.24-1.92-.03-1.87,1.17-3.6,2.55-5.15,4.1-3.55,3.55-6.19,8.02-7.54,13.02.52-.16,1.06-.31,1.6-.43.74-.16,1.48-.27,2.21-.27,2.08-3.17,4.17-6.33,7.62-8.37h0Z"/>
      <path class="cls-9" d="m198.8,203.84c-36.99,15.12-79.73,15.97-112,6.79,1.55,22.98,1.53,44.21-3.83,61.17-3.44,10.9-4.52,21.78-3.87,32.06.23,3.74,1.1,7.26,2.77,10.03,3.44,5.73,11.61,10.66,17.54,13.41,13.14,6.11,32.99,13.27,59.57,17.9,14.41,3.56,30.05,8.52,39.73,19.5,9.94-10.95,24.87-15.94,39.28-19.5,26.58-4.63,46.43-11.8,59.57-17.9,5.92-2.75,14.1-7.68,17.54-13.41,1.66-2.77,2.53-6.29,2.76-10.03.65-10.29-.43-21.17-3.87-32.06-5.35-16.96-5.38-38.19-3.83-61.17-32.27,9.18-74.1,8.33-111.36-6.79h0Zm-18.63,28.5v-18.94h6.06v14.12h9.03v4.82h-15.09Zm15.95,0l7.1-18.94h6.57l7.1,18.94h-6.23l-.76-3.24h-6.92l-1,3.24h-5.87Zm-57.79,3.98c-2.52,18.11-5.78,35.34-7.04,53.26-4.82.48-8.38.88-13.03,2.05-3.71-9.43-8.89-24.44-11.58-32.76-1.69,12.07-3.93,24.82-5.24,36.25-4.89.91-8.8,1.96-13.61,3.4,2.07-11.07,3.7-21.83,5.78-32.9,2.08-11.07,4.16-22.14,6.25-33.21,4.05.48,7.8.95,11.87,1.45l10.14,31.3,4.72-30,11.75,1.16Zm34.05,1.88c4.43.07,7.88.13,12.32.13l-.91,24.32c-.18,4.84-1.03,22.1-22.1,23.92-21.75,1.88-19.63-15.72-18.84-22.05l3.47-27.74c4.36.28,8.34.55,12.74.79l-3.16,26.66c-.59,4.97,1,9.88,6.36,9.59,5.23-.28,7.79-3.88,8.16-8.86l1.98-26.75Zm5.02,59.12c5.43-5.43,12.93-8.79,21.22-8.79s15.79,3.36,21.22,8.79c5.43,5.43,8.79,12.93,8.79,21.22s-3.36,15.79-8.79,21.22c-5.43,5.43-12.94,8.79-21.22,8.79s-15.79-3.36-21.22-8.79c-5.43-5.43-8.79-12.93-8.79-21.22s3.36-15.79,8.79-21.22h0Zm13.64-37.69c.38-15.6,7.29-22.18,21.43-22.69,12.82-.47,19.14,5.4,20.72,17.31-4.38,0-7.84-.11-12.24-.07-.36-4.61-3.12-8.72-8.24-8.34-6.85.5-8.67,6.87-8.62,12.27.06,6.06,1.98,14.62,9.27,14.78,4.84.11,7.89-4.07,7.86-9.95,4.42.07,8.09.13,12.52.27,0,12.96-5.98,23.68-20.5,22.32-13.65-1.28-22.6-9.35-22.2-25.91h0Zm50,26.68c-1.2-16.62-3.03-33.05-4.19-49.68,4.45-.26,8.24-.34,12.71-.64,1.69,17.49,3.56,34.23,5.3,51.72-4.67-.66-8.81-1.3-13.82-1.41h0Zm19.03,2.2c3.59-18.29,6.36-35.5,8.63-54,4.41-.35,9.39-.79,13.82-1.13,9.47,21.48,17.98,42.4,26.51,65.11-5.11-1.2-9.66-2.47-14.71-3.6-1.02-2.83-2.55-8.28-3.55-11.08-4.91-.85-11.03-2.38-15.9-3.09-.27,2.43-.34,7.52-.53,9.94-4.89-.86-9.43-1.45-14.27-2.15h0Zm-22.24-53.93l4.16-6.69c3.23-.27,6.33-.8,9.34-1.52l-7.72,8.05-5.78.16Z"/>
      <path class="cls-9" d="m206.47,217.81l-2.31,7.43,4.66-.03-2.35-7.4Z"/>
      <path class="cls-9" d="m277.81,247.3c-.48,6.65-1.14,14.54-1.77,21.17,3.02.31,6.9.95,9.92,1.3-2.53-6.97-5.7-15.47-8.15-22.47h0Z"/>
      <path class="cls-6" d="m213.24,285.53c-13.65-1.28-22.6-9.35-22.2-25.91.38-15.6,7.29-22.18,21.43-22.69,12.82-.47,19.14,5.4,20.72,17.31-4.38,0-7.84-.11-12.24-.07-.36-4.61-3.12-8.72-8.24-8.34-6.85.5-8.67,6.87-8.62,12.27.06,6.06,1.98,14.62,9.27,14.78,4.84.11,7.89-4.07,7.86-9.95,4.42.07,8.09.13,12.52.27,0,12.96-5.98,23.68-20.5,22.32h0Zm27.8.77c-1.2-16.62-3.03-33.05-4.19-49.68,4.45-.26,8.24-.34,12.71-.64,1.69,17.49,3.56,34.23,5.3,51.72-4.67-.66-8.81-1.3-13.82-1.41h0Zm19.03,2.2c3.59-18.29,6.36-35.5,8.63-54,4.41-.35,9.39-.79,13.82-1.13,9.47,21.48,17.98,42.4,26.51,65.11-5.11-1.2-9.66-2.47-14.71-3.6-1.02-2.83-2.55-8.28-3.55-11.08-4.91-.85-11.03-2.38-15.9-3.09-.27,2.43-.34,7.52-.53,9.94-4.89-.86-9.43-1.45-14.27-2.15h0Zm-128.78,1.08c-4.82.48-8.38.88-13.03,2.05-3.71-9.43-8.89-24.44-11.58-32.76-1.69,12.07-3.93,24.82-5.24,36.25-4.89.91-8.8,1.96-13.61,3.4,2.07-11.07,3.7-21.83,5.78-32.9,2.08-11.07,4.16-22.14,6.25-33.21,4.05.48,7.8.95,11.87,1.45l10.14,31.3,4.72-30,11.75,1.16c-2.52,18.11-5.78,35.34-7.04,53.26h0Zm67.51-85.74c-36.99,15.12-79.73,15.97-112,6.79,1.55,22.98,1.53,44.21-3.83,61.17-3.44,10.9-4.52,21.78-3.87,32.06.23,3.74,1.1,7.26,2.77,10.03,3.44,5.73,11.61,10.66,17.54,13.41,13.14,6.11,32.99,13.27,59.57,17.9,14.41,3.56,30.05,8.52,39.73,19.5,9.94-10.95,24.87-15.94,39.28-19.5,26.58-4.63,46.43-11.8,59.57-17.9,5.92-2.75,14.1-7.68,17.54-13.41,1.66-2.77,2.53-6.29,2.76-10.03.65-10.29-.43-21.17-3.87-32.06-5.35-16.96-5.38-38.19-3.83-61.17-32.27,9.18-74.1,8.33-111.36-6.79h0Zm-37.11,82.72c-21.75,1.88-19.63-15.72-18.84-22.05l3.47-27.74c4.36.28,8.34.55,12.74.79l-3.16,26.66c-.59,4.97,1,9.88,6.36,9.59,5.23-.28,7.79-3.88,8.16-8.86l1.98-26.75c4.43.07,7.88.13,12.32.13l-.91,24.32c-.18,4.84-1.03,22.1-22.1,23.92h0Zm33.57-54.22h-15.09v-18.94h6.06v14.12h9.03v4.82Zm21.64,0h-6.23l-.76-3.24h-6.92l-1,3.24h-5.87l7.1-18.94h6.57l7.1,18.94Zm-39.5,64.97c5.43-5.43,12.93-8.79,21.22-8.79s15.79,3.36,21.22,8.79c5.43,5.43,8.79,12.93,8.79,21.22s-3.36,15.79-8.79,21.22c-5.43,5.43-12.94,8.79-21.22,8.79s-15.79-3.36-21.22-8.79c-5.43-5.43-8.79-12.93-8.79-21.22s3.36-15.79,8.79-21.22h0Zm60.43-62.75l4.16-6.69c3.23-.27,6.33-.8,9.34-1.52l-7.72,8.05-5.78.16Z"/>
      <path class="cls-6" d="m204.16,225.25l4.66-.03-2.35-7.4-2.31,7.43Z"/>
      <path class="cls-6" d="m277.81,247.3c-.48,6.65-1.14,14.54-1.77,21.17,3.02.31,6.9.95,9.92,1.3-2.53-6.97-5.7-15.47-8.15-22.47h0Z"/>
      <path class="cls-3" d="m101.44,295.12c1.31-11.43,3.55-24.18,5.24-36.25,2.69,8.32,7.87,23.33,11.58,32.76,4.64-1.17,8.2-1.57,13.03-2.05,1.27-17.93,4.52-35.15,7.04-53.26l-11.75-1.16-4.72,30-10.14-31.3c-4.07-.5-7.82-.96-11.87-1.45-2.09,11.07-4.17,22.14-6.25,33.21-2.08,11.07-3.71,21.83-5.78,32.9,4.81-1.45,8.72-2.49,13.61-3.4h0Z"/>
      <path class="cls-3" d="m142.84,264.51c-.79,6.33-2.9,23.93,18.84,22.05,21.07-1.82,21.92-19.08,22.1-23.92l.91-24.32c-4.45,0-7.9-.06-12.32-.13l-1.98,26.75c-.37,4.98-2.92,8.58-8.16,8.86-5.36.29-6.95-4.62-6.36-9.59l3.16-26.66c-4.4-.24-8.38-.5-12.74-.79l-3.47,27.74Z"/>
      <path class="cls-3" d="m191.04,259.63c-.41,16.55,8.55,24.63,22.2,25.91,14.52,1.36,20.5-9.37,20.5-22.32-4.43-.14-8.09-.2-12.52-.27.03,5.88-3.02,10.06-7.86,9.95-7.28-.16-9.2-8.73-9.27-14.78-.05-5.4,1.77-11.76,8.62-12.27,5.12-.38,7.88,3.73,8.24,8.34,4.4-.05,7.86.07,12.24.07-1.58-11.91-7.9-17.78-20.72-17.31-14.14.52-21.05,7.09-21.43,22.69h0Z"/>
      <path class="cls-3" d="m236.86,236.63c1.15,16.62,2.99,33.05,4.19,49.68,5.01.11,9.15.75,13.82,1.41-1.73-17.49-3.61-34.23-5.3-51.72-4.47.3-8.26.38-12.71.64h0Z"/>
      <path class="cls-3" d="m243.61,234.4l7.72-8.05c-3,.72-6.1,1.25-9.34,1.52l-4.16,6.69,5.78-.16Z"/>
      <path class="cls-3" d="m268.71,234.5c-2.28,18.5-5.04,35.71-8.63,54,4.85.69,9.38,1.28,14.27,2.15.19-2.42.26-7.51.53-9.94,4.87.71,10.98,2.24,15.9,3.09,1,2.79,2.53,8.25,3.55,11.08,5.05,1.13,9.59,2.4,14.71,3.6-8.54-22.7-17.04-43.62-26.51-65.11-4.43.34-9.41.78-13.82,1.13h0Zm7.33,33.98c.63-6.63,1.29-14.52,1.77-21.17,2.45,7,5.62,15.5,8.15,22.47-3.02-.35-6.9-.99-9.92-1.3h0Z"/>
      <path class="cls-3" d="m216.9,232.34l-7.1-18.94h-6.57l-7.1,18.94h5.87l1-3.24h6.92l.76,3.24h6.23Zm-8.09-7.13l-4.66.03,2.31-7.43,2.35,7.4Z"/>
      <path class="cls-3" d="m186.23,227.52v-14.12h-6.06v18.94h15.09v-4.82h-9.03Z"/>
      <path class="cls-9" d="m161.69,286.56c-21.75,1.88-19.63-15.72-18.84-22.05l3.47-27.74c4.36.28,8.34.55,12.74.79l-3.16,26.66c-.59,4.97,1,9.88,6.36,9.59,5.23-.28,7.79-3.88,8.16-8.86l1.98-26.75c4.43.07,7.88.13,12.32.13l-.91,24.32c-.18,4.84-1.03,22.1-22.1,23.92h0Zm18.48-54.22v-18.94h6.06v14.12h9.03v4.82h-15.09Zm-73.49,26.53c-1.69,12.07-3.93,24.82-5.24,36.25-4.89.91-8.8,1.96-13.61,3.4,2.07-11.07,3.7-21.83,5.78-32.9,2.08-11.07,4.16-22.14,6.25-33.21,4.05.48,7.8.95,11.87,1.45l10.14,31.3,4.72-30,11.75,1.16c-2.52,18.11-5.78,35.34-7.04,53.26-4.82.48-8.38.88-13.03,2.05-3.71-9.43-8.89-24.44-11.58-32.76h0Zm106.56,26.66c-13.65-1.28-22.6-9.35-22.2-25.91.38-15.6,7.29-22.18,21.43-22.69,12.82-.47,19.14,5.4,20.72,17.31-4.38,0-7.84-.11-12.24-.07-.36-4.61-3.12-8.72-8.24-8.34-6.85.5-8.67,6.87-8.62,12.27.06,6.06,1.98,14.62,9.27,14.78,4.84.11,7.89-4.07,7.86-9.95,4.42.07,8.09.13,12.52.27,0,12.96-5.98,23.68-20.5,22.32h0Zm27.8.77c-1.2-16.62-3.03-33.05-4.19-49.68,4.45-.26,8.24-.34,12.71-.64,1.69,17.49,3.56,34.23,5.3,51.72-4.67-.66-8.81-1.3-13.82-1.41h0Zm-72.44,32.24c0-8.29,3.36-15.79,8.79-21.22,5.43-5.43,12.93-8.79,21.22-8.79s15.79,3.36,21.22,8.79c5.43,5.43,8.79,12.93,8.79,21.22s-3.36,15.79-8.79,21.22c-5.43,5.43-12.94,8.79-21.22,8.79s-15.79-3.36-21.22-8.79c-5.43-5.43-8.79-12.93-8.79-21.22h0Zm91.46-30.04c3.59-18.29,6.36-35.5,8.63-54,4.41-.35,9.39-.79,13.82-1.13,9.47,21.48,17.98,42.4,26.51,65.11-5.11-1.2-9.66-2.47-14.71-3.6-1.02-2.83-2.55-8.28-3.55-11.08-4.91-.85-11.03-2.38-15.9-3.09-.27,2.43-.34,7.52-.53,9.94-4.89-.86-9.43-1.45-14.27-2.15h0Zm-177.11-16.69c-3.44,10.9-4.52,21.78-3.87,32.06.23,3.74,1.1,7.26,2.77,10.03,3.44,5.73,11.61,10.66,17.54,13.41,13.14,6.11,32.99,13.27,59.57,17.9,14.41,3.56,30.05,8.52,39.73,19.5,9.94-10.95,24.87-15.94,39.28-19.5,26.58-4.63,46.43-11.8,59.57-17.9,5.92-2.75,14.1-7.68,17.54-13.41,1.66-2.77,2.53-6.29,2.76-10.03.65-10.29-.43-21.17-3.87-32.06-5.35-16.96-5.38-38.19-3.83-61.17-32.27,9.18-74.1,8.33-111.36-6.79-36.99,15.12-79.73,15.97-112,6.79,1.55,22.98,1.53,44.21-3.83,61.17h0Zm133.94-39.46h-6.23l-.76-3.24h-6.92l-1,3.24h-5.87l7.1-18.94h6.57l7.1,18.94Zm20.93,2.22l4.16-6.69c3.23-.27,6.33-.8,9.34-1.52l-7.72,8.05-5.78.16Z"/>
      <path class="cls-9" d="m277.81,247.3c-.48,6.65-1.14,14.54-1.77,21.17,3.02.31,6.9.95,9.92,1.3-2.53-6.97-5.7-15.47-8.15-22.47h0Z"/>
      <path class="cls-9" d="m208.82,225.22l-2.35-7.4-2.31,7.43,4.66-.03Z"/>
      <path class="cls-3" d="m198.87,104.38V29.82l-.16.12-1.65-1.28c-16.8-13.01-30.91-19.38-44.16-21.66-13.23-2.28-25.75-.5-39.29,2.79-4.45,1.08-8.81,2.23-12.98,3.32-23.68,6.23-41.36,10.88-77.94,3.14,3.49,16.92,5.06,32.65,4.68,47.18-.39,14.89-2.82,28.5-7.34,40.82l178.84.12Zm-124.8-39.36l27.84,18.42-27.98,15.96-23.13-16.1,23.27-18.28Zm27.84-21.55l-27.98,15.96-23.13-16.1,23.27-18.28,27.84,18.42Z"/>
      <path class="cls-3" d="m301.41,335.61c-19.37,9-40.54,14.88-61.54,18.56-12,2.98-25.85,7.29-34.4,16.7l-6.61,7.28v52.89c7.38-11.77,17.56-19.36,30.55-23.94,14.17-5,31.65-6.38,52.51-5.74,21.48.66,44.56-2.12,64.1-9.98,16.12-6.48,29.8-16.42,38.11-30.75,5.74-9.9,7.91-23.62,6.79-40.79-1.16-18-5.94-39.69-14-64.65-3.29-10.2-6.47-20.43-8.81-30.89-2.35-10.5-3.83-21.18-3.69-32.18.19-15.08,1.11-30.28,3.14-44.85,1.32-9.54,3.12-18.83,5.49-27.66-22.67,24.74-49.07,40.12-76.59,46.71-32.5,7.78-66.36,2.99-97.61-12.88v40.57l3.37,1.37c32.24,13.09,71.87,16.02,105.43,6.47l12.5-3.55-.87,12.96c-.72,10.57-1.16,21.21-.66,31.8.41,8.71,1.46,17.66,4.09,26,3.61,11.42,5.02,23.45,4.27,35.39-.31,4.92-1.49,9.9-4.05,14.16-4.5,7.5-13.72,13.37-21.52,17h0Z"/>
      <path class="cls-7" d="m78.34,243.05c.5-10.59.05-21.23-.66-31.8l-.88-12.96,12.5,3.55c33.44,9.51,73.92,6.68,106.04-6.46l3.45-1.41.08.03v-40.57c-.08-.04-.15-.08-.23-.12-34.78,17.25-68.33,20.09-98.08,12.95-30.21-7.25-56.62-24.49-76.87-46.48,2.47,9.72,4.21,19.44,5.47,29.16,1.9,14.69,2.7,29.34,3.25,43.99.31,8.04-.94,17.54-3.12,27.77-2.17,10.17-5.26,21.05-8.7,31.93-6.26,19.85-12.23,40.46-14.4,59.51-2.14,18.71-.63,35.93,7.89,49.37,8.59,13.55,23.07,23.26,39.56,29.74,20.45,8.04,43.94,11.1,63.32,10.38,20.03-.75,36.34.55,49.98,5.51,12.65,4.6,22.94,12.29,31.67,24.31.09-.14.17-.28.26-.42v-52.89l-.25.28-6.76-7.66c-8.26-9.36-23-13.68-34.77-16.6-21-3.68-42.17-9.57-61.54-18.56-7.8-3.63-17.02-9.5-21.52-17-2.55-4.26-3.74-9.24-4.05-14.16-.75-11.94.67-23.97,4.28-35.39,2.63-8.34,3.68-17.29,4.09-26h0Z"/>
      <path class="cls-7" d="m198.87,29.82v74.56l177.5.12c-4.76-15.18-6.76-30.27-6.8-45.18-.04-14.47,1.78-28.75,4.74-42.75-14.96,3-27.36,4.38-39.2,4.02-12.93-.39-25.11-2.87-39.11-7.61-20.65-6.85-37.47-8.68-52.64-5.92-15.12,2.75-28.75,10.09-43.01,21.58l-1.47,1.19Zm96.41,53.49l23.27-18.28,27.84,18.42-27.98,15.96-23.13-16.1Zm23.13-23.87l-23.13-16.1,23.27-18.28,27.84,18.42-27.98,15.96Z"/>
      <path class="cls-3" d="m99.4,327.31c-5.92-2.75-14.1-7.68-17.54-13.41-1.67-2.77-2.53-6.29-2.77-10.03-.65-10.29.43-21.17,3.87-32.06,5.36-16.96,5.38-38.19,3.83-61.17,32.27,9.18,75.01,8.33,112-6.79,37.26,15.12,79.09,15.97,111.36,6.79-1.55,22.98-1.52,44.21,3.83,61.17,3.44,10.9,4.52,21.78,3.87,32.06-.23,3.74-1.1,7.26-2.76,10.03-3.44,5.73-11.62,10.66-17.54,13.41-13.14,6.11-32.99,13.27-59.57,17.9-14.41,3.56-29.34,8.56-39.28,19.5-9.69-10.98-25.32-15.94-39.73-19.5-26.59-4.63-46.43-11.8-59.57-17.9h0Zm97.63-127.8c-33.01,13.5-74.54,16.41-108.95,6.62l-6.39-1.82.44,6.63c.73,10.72,1.18,21.57.67,32.31-.43,9.08-1.55,18.45-4.3,27.14-3.45,10.92-4.79,22.35-4.07,33.77.26,4.19,1.24,8.51,3.42,12.14,3.98,6.64,12.66,12.04,19.58,15.25,18.98,8.82,40,14.64,60.58,18.24,12.84,3.18,28.16,7.79,37.2,18.02l3.46,3.92,3.51-3.87c9.27-10.21,23.74-14.84,36.78-18.07,20.57-3.6,41.59-9.42,60.58-18.24,6.91-3.21,15.59-8.61,19.57-15.25,2.18-3.63,3.16-7.95,3.42-12.14.72-11.42-.62-22.85-4.07-33.77-2.75-8.69-3.87-18.06-4.3-27.14-.5-10.74-.05-21.59.67-32.31l.45-6.63-6.39,1.82c-34.52,9.82-75.19,6.82-108.33-6.63l-1.77-.71-1.76.72Z"/>
    </g>
  </g>
</svg>