<?xml version="1.0" encoding="UTF-8"?>
<svg id="Layer_2" data-name="Layer 2" xmlns="http://www.w3.org/2000/svg" xmlns:xlink="http://www.w3.org/1999/xlink" viewBox="0 0 410.03 395.53">
  <defs>
    <style>
      .cls-1 {
        fill: url(#radial-gradient-2);
        opacity: .57;
      }

      .cls-1, .cls-2, .cls-3, .cls-4, .cls-5, .cls-6, .cls-7 {
        stroke-width: 0px;
      }

      .cls-2 {
        fill: url(#linear-gradient);
      }

      .cls-4 {
        fill: #4c7ea9;
      }

      .cls-5 {
        fill: #d73f2d;
      }

      .cls-6 {
        fill: #be9b03;
      }

      .cls-7 {
        fill: #fff;
      }

      .cls-8 {
        fill: url(#radial-gradient);
        stroke: #000;
      }
    </style>
    <linearGradient id="linear-gradient" x1="42.86" y1="213.8" x2="52.53" y2="213.8" gradientUnits="userSpaceOnUse">
      <stop offset="0" stop-color="#000"/>
      <stop offset=".5" stop-color="#fff"/>
      <stop offset=".59" stop-color="#cbcbcb"/>
      <stop offset=".74" stop-color="#757575"/>
      <stop offset=".86" stop-color="#353535"/>
      <stop offset=".95" stop-color="#0e0e0e"/>
      <stop offset="1" stop-color="#000"/>
    </linearGradient>
    <radialGradient id="radial-gradient" cx="45.65" cy="89.89" fx="45.65" fy="89.89" r="7.23" gradientTransform="translate(10.8 11.89) scale(.77 .87)" gradientUnits="userSpaceOnUse">
      <stop offset="0" stop-color="#fff"/>
      <stop offset=".09" stop-color="#f2f2f2"/>
      <stop offset=".26" stop-color="#cfcfcf"/>
      <stop offset=".48" stop-color="#989898"/>
      <stop offset=".75" stop-color="#4c4c4c"/>
      <stop offset="1" stop-color="#000"/>
    </radialGradient>
    <radialGradient id="radial-gradient-2" cx="114.19" cy="186.63" fx="114.19" fy="186.63" r="40.44" gradientUnits="userSpaceOnUse">
      <stop offset="0" stop-color="#fff"/>
      <stop offset=".06" stop-color="#f4f4f4"/>
      <stop offset=".41" stop-color="#b5b5b5"/>
      <stop offset=".67" stop-color="#8e8e8e"/>
      <stop offset=".8" stop-color="gray"/>
    </radialGradient>
  </defs>
  <g id="Layer_1-2" data-name="Layer 1">
    <g>
      <circle class="cls-3" cx="197.76" cy="197.77" r="197.76" transform="translate(-81.92 197.76) rotate(-45)"/>
      <path class="cls-7" d="m197.76,7.94C93.09,7.94,7.94,93.09,7.94,197.77s85.16,189.83,189.83,189.83,189.83-85.16,189.83-189.83S302.44,7.94,197.76,7.94Zm0,316.16c-69.66,0-126.33-56.67-126.33-126.33s56.67-126.33,126.33-126.33,126.33,56.67,126.33,126.33-56.67,126.33-126.33,126.33Z"/>
      <g>
        <path class="cls-3" d="m91.83,96.87c-2.15,2.27-4.27,3.49-6.35,3.65s-3.95-.49-5.61-1.94l1.95-2.06c1.31,1.03,2.67,1.37,4.09,1.02,1.42-.35,2.73-1.15,3.92-2.41,1.13-1.2,1.8-2.39,2-3.58.2-1.19-.12-2.19-.97-2.99-.89-.84-1.89-1.07-3.01-.7-1.12.37-2.75,1.3-4.88,2.77-2.14,1.47-3.93,2.28-5.39,2.43-1.46.14-2.76-.33-3.92-1.43-1.31-1.24-1.88-2.77-1.73-4.61.15-1.84,1.05-3.62,2.69-5.35,1.72-1.82,3.53-2.89,5.43-3.2,1.9-.32,3.65.22,5.25,1.61l-1.97,2.08c-2.15-1.63-4.39-1.22-6.71,1.24-1.12,1.19-1.77,2.32-1.94,3.4s.12,1.96.86,2.67c.67.64,1.43.85,2.26.65.83-.2,2.09-.87,3.76-2.01s3.06-1.98,4.17-2.53c1.11-.55,2.27-.82,3.49-.81s2.37.54,3.47,1.57c1.39,1.31,2.01,2.95,1.89,4.92-.13,1.97-1.03,3.84-2.71,5.62Z"/>
        <path class="cls-3" d="m93.1,64.75c2.44-1.92,5.09-2.68,7.94-2.25,2.85.42,5.35,1.99,7.49,4.7,2.14,2.71,3.08,5.5,2.83,8.37-.25,2.87-1.6,5.27-4.04,7.2-2.45,1.93-5.11,2.69-7.97,2.27-2.86-.42-5.36-1.98-7.49-4.69-2.14-2.71-3.08-5.5-2.82-8.38.26-2.88,1.62-5.28,4.07-7.22Zm12.63,16.07c1.74-1.37,2.68-3.12,2.82-5.23.14-2.11-.67-4.28-2.42-6.5-1.75-2.22-3.67-3.51-5.75-3.87-2.08-.36-3.99.14-5.71,1.49-1.75,1.38-2.7,3.13-2.85,5.25-.15,2.12.66,4.29,2.41,6.51,1.74,2.21,3.66,3.5,5.76,3.85,2.1.36,4.01-.14,5.73-1.5Z"/>
        <path class="cls-3" d="m126.27,70.08c-2.73,1.55-5.42,1.89-8.07,1.02-2.65-.87-4.84-2.84-6.58-5.9-1.74-3.06-2.3-5.96-1.69-8.67.61-2.72,2.28-4.85,5.01-6.4,2.1-1.19,4.21-1.64,6.32-1.34,2.12.3,3.79,1.32,5.03,3.06l-2.63,1.5c-.8-1.16-1.88-1.83-3.24-2.01-1.36-.18-2.77.14-4.21.96-1.96,1.11-3.12,2.66-3.5,4.66-.38,2,.15,4.24,1.56,6.75,1.41,2.49,3.07,4.09,4.97,4.8s3.82.51,5.76-.59c1.51-.86,2.52-1.92,3.03-3.18.51-1.27.44-2.62-.21-4.06l2.63-1.5c.98,2.16,1.07,4.21.28,6.14-.79,1.94-2.28,3.52-4.47,4.76Z"/>
        <path class="cls-3" d="m139.96,62.88l-2.7,1.19-8.97-20.29,2.7-1.19,8.97,20.29Z"/>
        <path class="cls-3" d="m159.69,55.76l-15.69,5.23-7.02-21.05,15.21-5.07.83,2.5-12.42,4.14,2.15,6.43,11.62-3.87.83,2.5-11.62,3.87,2.37,7.12,12.91-4.3.83,2.5Z"/>
        <path class="cls-3" d="m158.85,33.12l6.92-1.26c7.42-1.35,11.78,1.57,13.09,8.77,1.34,7.36-1.7,11.71-9.11,13.06l-6.93,1.26-3.98-21.83Zm6.39,18.71l3.98-.72c3.17-.58,5.19-1.71,6.08-3.39.88-1.68,1.08-3.87.59-6.55-.48-2.61-1.42-4.53-2.82-5.75-1.41-1.22-3.7-1.54-6.88-.96l-3.98.72,3.03,16.65Z"/>
        <path class="cls-3" d="m202.25,50.73l-3.31.13-2.84-6.64-9.28.37-2.18,6.84-3.1.12,7.64-22.5,3.16-.12,9.92,21.81Zm-7.1-8.81l-4.31-10.13-3.31,10.43,7.62-.3Z"/>
        <path class="cls-3" d="m206.03,28.81l7,.7c7.5.75,10.89,4.77,10.16,12.04-.75,7.44-4.87,10.78-12.37,10.03l-7-.7,2.21-22.08Zm.97,19.75l4.02.4c3.2.32,5.46-.21,6.78-1.58,1.31-1.37,2.11-3.42,2.38-6.13.26-2.64-.11-4.74-1.13-6.3-1.02-1.56-3.13-2.5-6.34-2.83l-4.02-.4-1.68,16.84Z"/>
        <path class="cls-3" d="m238.88,33.67l6.73,2.06c7.2,2.21,9.73,6.81,7.59,13.8-2.19,7.15-6.89,9.61-14.09,7.41l-6.73-2.06,6.5-21.21Zm-2.92,19.55l3.86,1.18c3.08.94,5.39.87,6.95-.22,1.56-1.09,2.74-2.94,3.53-5.54.78-2.54.82-4.67.13-6.4s-2.57-3.07-5.66-4.01l-3.86-1.18-4.96,16.17Z"/>
        <path class="cls-3" d="m267.81,68.55l-14.98-7.04,9.44-20.09,14.51,6.82-1.12,2.38-11.85-5.57-2.88,6.14,11.09,5.21-1.12,2.38-11.09-5.21-3.19,6.8,12.32,5.79-1.12,2.38Z"/>
        <path class="cls-3" d="m282.67,51.54l6.95,4.5c1.53.99,2.71,1.95,3.56,2.9.85.95,1.26,2.09,1.25,3.42s-.39,2.59-1.15,3.75c-1.22,1.88-2.74,2.92-4.56,3.12-1.82.2-3.87-.43-6.13-1.89l-4.69-3.03-4.82,7.45-2.46-1.59,12.05-18.63Zm-3.34,10.57l4.72,3.05c1.58,1.02,2.91,1.46,3.96,1.3,1.06-.16,1.95-.8,2.67-1.91.48-.75.72-1.53.72-2.34,0-.82-.24-1.49-.71-2.01-.47-.52-1.25-1.13-2.32-1.83l-4.67-3.02-4.37,6.76Z"/>
        <path class="cls-3" d="m309.27,70.45c2.34,2.05,3.56,4.51,3.66,7.4.1,2.88-.98,5.62-3.25,8.22-2.27,2.59-4.85,4.03-7.72,4.31-2.87.27-5.47-.61-7.81-2.66-2.34-2.05-3.57-4.53-3.68-7.42-.11-2.89.97-5.63,3.24-8.22,2.27-2.6,4.85-4.03,7.73-4.3,2.88-.27,5.49.62,7.83,2.68Zm-13.49,15.35c1.67,1.46,3.56,2.07,5.66,1.82,2.1-.25,4.09-1.44,5.95-3.56,1.86-2.12,2.78-4.25,2.76-6.36-.03-2.12-.86-3.89-2.51-5.34-1.68-1.47-3.57-2.08-5.68-1.84-2.11.24-4.1,1.43-5.96,3.55-1.86,2.12-2.77,4.24-2.74,6.36.03,2.12.87,3.91,2.53,5.36Z"/>
        <path class="cls-3" d="m316.32,110.83l-2.05-2.43,3.18-5.41c.56-.96.82-1.99.77-3.08-.05-1.09-.44-2.07-1.17-2.94l-3.5-4.16-7.26,6.12-1.89-2.25,16.98-14.31,6.33,7.52c1.11,1.31,1.88,2.49,2.33,3.54.45,1.05.48,2.18.11,3.39-.38,1.21-1.08,2.25-2.1,3.12-1.17.99-2.44,1.48-3.8,1.46-1.36-.02-2.66-.51-3.89-1.49l-.05.04c.62,1.5.35,3.26-.79,5.28l-3.19,5.6Zm-.76-19.72l4.23,5.02c1.18,1.4,2.25,2.22,3.22,2.48.97.26,2-.07,3.08-.98,1.93-1.63,1.87-3.65-.17-6.08l-4.52-5.36-5.84,4.92Z"/>
        <path class="cls-3" d="m342.9,116.16l-3.94-6.19-16.5,10.49-1.58-2.49,16.5-10.49-3.91-6.14,2.22-1.41,9.43,14.83-2.22,1.41Z"/>
        <path class="cls-3" d="m328.8,131.73l-1.36-2.62,19.71-10.23,1.36,2.62-19.71,10.23Z"/>
        <path class="cls-3" d="m358.24,143.93l-23.82.33-1.14-2.81,17.34-16.33,1.18,2.91-15.02,13.64,20.28-.64,1.18,2.91Z"/>
        <path class="cls-3" d="m342.56,171.7l-.81-3.21,5.91-4.15-2.29-9-7.14-.71-.76-3.01,23.59,2.8.78,3.06-19.27,14.23Zm7.14-8.77l9.01-6.32-10.89-1.08,1.88,7.39Z"/>
      </g>
      <g>
        <path class="cls-3" d="m98.27,294.08l-30.79,36.95,25.27,21.05,6.38-7.66s-14.31-11.92-17.12-14.27c2.59-3.1,25.85-31.03,25.85-31.03l-8.14-6.79-1.45,1.74Z"/>
        <path class="cls-3" d="m146.8,325.03l-33.97,39.88,10.65,3.75s7.8-9.51,9.41-11.46c2.3.81,12.87,4.54,15.13,5.33.06,2.5.38,14.91.38,14.91l11.11,3.92-2.63-54.33-9.07-3.2-1.01,1.19Zm.71,14.2c.12,5.24.24,10.03.32,13.32-2.88-1.01-5.87-2.07-8.71-3.07,2.06-2.51,5.08-6.2,8.39-10.25Z"/>
        <path class="cls-3" d="m206.41,333.07h0l-22.51,1.04,2.33,50.25,10.58-.49s-.74-16.01-.91-19.55c2.88-.13,8.93-.41,8.93-.41,1.83-.08,3.43.36,4.87,1.37,1.5,1.04,2.57,2.39,3.28,4.12l5.47,13.48,11.4-.53-6.43-15.23c-1.25-2.96-2.86-5.17-4.73-6.77,1.6-.92,2.99-2.08,4.1-3.5,1.91-2.44,2.88-5.37,2.88-8.73,0-.27,0-.55-.02-.82-.15-3.2-1.12-6.08-2.88-8.56-1.83-2.58-4.18-4.25-6.98-4.97-2.49-.64-5.65-.87-9.38-.7Zm.69,9.54c6.63-.31,7.66,2.45,7.79,5.18,0,.19.01.37.01.55,0,2.74-1.03,3.54-1.39,3.81-.87.67-2.75,1.5-6.83,1.69,0,0-8.1.38-11.24.52-.13-2.76-.39-8.43-.52-11.19,3.22-.15,12.17-.56,12.17-.56Z"/>
        <path class="cls-3" d="m269.68,313.83l-32.08,14.83,21.12,45.68,35.1-16.23-4.18-9.05s-22.01,10.17-25.49,11.78c-1.15-2.49-3.45-7.46-4.6-9.95,3.41-1.58,22.94-10.6,22.94-10.6l-4.18-9.05s-19.52,9.03-22.94,10.6c-1.08-2.33-2.89-6.25-3.97-8.58,3.46-1.6,24.52-11.34,24.52-11.34l-4.18-9.05-2.06.95Z"/>
        <path class="cls-3" d="m294.09,293.02l-11.51,12.24,36.68,34.5,11.51-12.24c11.48-12.2,11.14-24.68-.97-36.08-11.88-11.17-24.23-10.62-35.71,1.58Zm7.18,6.92c4.05-4.31,7.68-6.37,10.77-6.12,3.29.26,6.78,2.1,10.36,5.48,3.7,3.48,5.84,6.95,6.36,10.3.05.33.08.67.08,1.02,0,2.92-1.82,6.33-5.42,10.16,0,0-2.51,2.67-4.16,4.43-2.69-2.53-19.46-18.3-22.15-20.83,1.65-1.75,4.16-4.43,4.16-4.43Z"/>
        <path class="cls-3" d="m337.13,230.07h0c-6.04,2.59-10.33,7.25-12.76,13.85-2.43,6.62-2.17,12.97.76,18.87,2.91,5.86,8.05,10.17,15.26,12.81,7.2,2.64,13.9,2.67,19.91.09,6.06-2.6,10.36-7.28,12.79-13.9,2.42-6.6,2.16-12.93-.78-18.81-2.92-5.83-8.05-10.13-15.27-12.78-7.22-2.65-13.92-2.69-19.91-.12Zm6.99,35.37h0c-4.9-1.8-8.28-4.41-10.04-7.76-1.74-3.32-1.92-6.75-.56-10.48,1.34-3.64,3.67-6.09,7.13-7.47,3.5-1.4,7.76-1.19,12.67.61,4.91,1.8,8.29,4.4,10.05,7.74,1.74,3.3,1.93,6.71.57,10.41-1.34,3.66-3.69,6.12-7.17,7.52-3.52,1.41-7.78,1.22-12.66-.57Z"/>
      </g>
      <circle class="cls-4" cx="197.76" cy="197.77" r="120.1"/>
      <path class="cls-3" d="m49.53,100.47c28.35,6.46,182.67,41.67,188.5,43.5,5.83,1.83,7.67,6,7.67,9.17,0,5-2.17,6.67-2.17,10.33,0,4.83,3.33,6.5,5.5,6.5s128.5,3.5,161,36c-91.5-4.25-169.5,54.5-208.5,54.5-16.5,0-21-6.25-21-9.5-22.75,4-111.69,45.55-127.5,51.5-3.25-1.25-1.84-7.41-1.5-13,1.75-15.75,5-30.5,5-69,0-57.25-8-107.25-9.5-115,0-2.5-.01-3.51,2.5-5Z"/>
      <path class="cls-7" d="m321.2,197.13c-63.67,0-93.17,15.17-116.17,15.17-10.59,0-16.79-4.62-19.18-6.87-.84,18.73-1.3,36.77-1.3,40.52,0,0,.22,4.87.23,4.97.15,1.05,3.58,5.3,16.75,5.3,14.06,0,34.79-8.64,58.79-18.64,33.19-13.83,72.93-30.35,117.18-34.85-13.64-3.55-37.38-5.59-56.31-5.59Z"/>
      <path class="cls-5" d="m205.03,212.3c23,0,52.5-15.17,116.17-15.17,18.93,0,42.67,2.04,56.31,5.59,6.4-.65,12.9-1.05,19.49-1.16-37.98-21.83-129.5-27.23-147.98-27.35-17.32,0-43.49-7.92-59.16-14.75-1.74,4.51-3.1,25.63-4.01,45.96,2.39,2.25,8.59,6.87,19.18,6.87Z"/>
      <path class="cls-7" d="m60.22,193.23c.35,8.74.56,17.86.56,27.23,0,30.95-2.12,46.98-3.82,59.86,0,0-1.2,9.58-1.2,9.6-.03.35-.27,3.23-.27,3.23-.11,1.1-.23,2.59-.27,3.86,5.48-2.27,14.31-6.15,24.98-10.84,35.01-15.39,82.96-36.47,99.61-39.4.96-.41,2.24-1.98,2.24-5.15,0-1.33.8-24.29,1.55-45.95-26.68,1.07-98.89-.09-123.35-2.45Z"/>
      <path class="cls-5" d="m183.58,195.68c.66-19.16,1.29-37.3,1.29-38.55,0-6.5,4.33-10.67,17.5-10.67,6,0,35,4.54,39.08,6.67,0-1.09-.46-3.78-4.69-5.11-4.3-1.35-101.94-23.75-185.45-42.79.86,4.83,7.01,40.86,8.91,88,24.46,2.35,96.67,3.52,123.35,2.45Z"/>
      <g>
        <path class="cls-3" d="m46.09,95.34c-1.13,0-2.22-.11-3.23-.31v237.44h9.67l-3.65-237.35c-.88.15-1.82.23-2.79.23Z"/>
        <path class="cls-2" d="m44,331.33h7.38c-.03-2.27-3.57-232.62-3.61-235-.56.05-1.11.14-1.68.14-.7,0-1.4-.12-2.09-.2v235.06Z"/>
        <ellipse class="cls-3" cx="46.09" cy="90.09" rx="9.56" ry="5.25"/>
        <path class="cls-8" d="m38.73,90.09c0-2.52,3.3-4.57,7.36-4.57s7.36,2.04,7.36,4.57-3.3,4.57-7.36,4.57-7.36-2.04-7.36-4.57Z"/>
      </g>
      <g>
        <path class="cls-3" d="m77.35,200c2.51,21.25,21.76,36.44,43.01,33.93,21.25-2.51,36.44-21.77,33.93-43.01-2.51-21.25-21.76-36.44-43.01-33.93-21.25,2.51-36.44,21.76-33.93,43.01Z"/>
        <path class="cls-6" d="m150.06,193.01c1.92,16.31-12.19,29.47-12.19,29.47l-2.51-5.03,6.17-9.15s-4.34-6.95-4.45-7.89c-.11-.95.94-4.69.73-6.48-.21-1.79-2.26-5.59-2.4-6.75-.14-1.16,1.75-6.82,1.75-6.82l-9.89-8.85,3.75-7.05s17.11,12.25,19.04,28.55Z"/>
        <path class="cls-6" d="m83.99,207.05c4.46,2.67,18.66.51,22.65.04,5.68-.67,22.76-2.13,27.99-5.99.37-.27.77-.61,1.18-1,.02-.52.14-1.22.32-2.24.22-1.24.52-2.93.42-3.78-.1-.81-.77-2.41-1.31-3.69-.59-1.4-.96-2.3-1.06-2.96-.12-.05-.23-.12-.35-.17-6.96-2.79-22.23-.47-29.47.39-7.21.85-20.78,2.77-21.99,4.31-.64.62-1.92,7.14-1.92,7.14,0,0,2.9,7.56,3.55,7.95Z"/>
        <path class="cls-6" d="m135.38,202.12c-4.93,3.64-18.87,5.16-26.35,5.98l-2.24.25-1.42.18c-7.41.95-15.34,1.67-19.93.44.04.31.07.63.11.93.68,5.78,5.4,10.55,5.4,10.55l2.42-.29,10.38,4,12.6-1.59,2.7-4.16,15.34-1.81c1.35-2,4.99-7.39,5.62-8.34-2-3.23-3.31-5.52-3.88-6.79l-.76.64Z"/>
        <path class="cls-6" d="m104.2,186.38l2.48-.3c7.87-.98,21.02-2.62,27.57-.02.25-1.47.91-3.64,1.45-5.3-.84-.75-6.43-5.75-8.87-7.94l-.04.03-5.68.67-2.29,1.33-3.99.47-4.35-3.43-13.87,1.64-3.71,4.7-7.25.86s-3.54,1.59-3.25,4.11c.1.85.48,4.1.82,6.91,3.21-1.21,10.22-2.46,20.98-3.73Z"/>
        <path class="cls-6" d="m125.15,233.04c5.14-1.27,9.84-3.55,13.9-6.61l-.72-1.02-.83-.84-3.33-6.66c-3.21.38-13.45,1.59-14.37,1.7-.5.77-2.7,4.15-2.7,4.15.58,4.9,7.91,9.21,8.05,9.29Z"/>
        <path class="cls-6" d="m151.32,192.86c1.98,16.75-11.99,29.99-12.58,30.54l-.27.25c.04.08.07.13.08.16.19.2.76.77.76.77l.75,1.06c10.05-8.09,15.86-21.01,14.24-34.74-1.34-11.34-7.48-20.96-16.14-27.08l-4.16.49-.18.7c4.7,3.88,15.93,14.43,17.51,27.84Z"/>
        <path class="cls-6" d="m110.85,170.57s3.67,2.9,4.35,3.43c.73-.09,2.82-.33,3.21-.38.37-.21,2.29-1.33,2.29-1.33l5.03-.59,4.84-9.11,1.18.84c.09.06.43.31.96.72l.26-.99,3.52-.41c-4.76-3.01-10.18-5.02-15.94-5.73-2.27,1.87-8.36,7.33-10.49,13.65l.78-.09Z"/>
        <path class="cls-6" d="m108.67,170.83l.19-.57c1.96-5.84,7.03-10.88,9.92-13.4-2.46-.19-4.96-.17-7.5.13-1.14.13-2.26.33-3.37.56-.18.12-9.87,6.58-10.17,14.58l10.93-1.29Z"/>
        <path class="cls-6" d="m92.23,177.03c.54-.69,3.71-4.7,3.71-4.7l.53-.06v-.2c.23-6.03,5.23-11.14,8.33-13.74-3.03.9-5.88,2.14-8.53,3.7-.24.21-5.09,4.57-9.34,15.63,1.85-.22,4.7-.55,5.3-.62Z"/>
        <path class="cls-6" d="m82.8,179.5c1.06-.99,2.24-1.53,2.33-1.57l.18-.08s.08,0,.2-.02l.24-.62c2.27-5.91,4.73-9.97,6.61-12.54-5.09,3.9-9.16,9-11.81,14.84.01,0,1.08.17,2.26,0Z"/>
        <path class="cls-6" d="m80.34,180.75l-.31-.05c-2.23,5.39-3.29,11.34-2.85,17.5.85-.12,1.69-.42,2.28-.66,1.18-5.68,1.78-6.27,2.01-6.5l-.11.12c.13-.17.35-.34.64-.51l-.86-7.31c-.1-.88.1-1.66.47-2.34l-.02-.17c-.68,0-1.17-.08-1.25-.09Z"/>
        <path class="cls-6" d="m79.12,199.21l.04-.23c-.63.22-1.25.39-1.8.47h-.06c.02.19.03.36.05.54.36,3.08,1.09,6.02,2.11,8.8,1.23-.1,2.21-.52,3.33-1.23-.53-.77-1.49-2.71-3.53-8.02l-.13-.34Z"/>
        <path class="cls-6" d="m84.11,208.53c-.09-.04-.17-.09-.26-.13l-.38.25c-1.26.8-2.34,1.22-3.54,1.37,1.72,4.25,4.16,8.09,7.17,11.4l.79-.71.99-.7c-1.53-1.9-4.08-5.63-4.59-9.96l-.18-1.52Z"/>
        <path class="cls-6" d="m90.05,221.34s-.16-.17-.34-.37c-.48.35-.97.69-1.02.73-.08.08-.6.53-.7.63,2.64,2.72,5.64,5.07,8.95,6.93l.5-.83s-2.29-2.57-2.98-6.48c-.67-.26-1.14-.44-1.25-.48-.47.06-2.72.32-2.72.32l-.44-.44Z"/>
        <path class="cls-6" d="m115.84,223.92l-9.85,1.25c-.03.37.1,1.05.81,2.27,3.26,3.43,7.41,5.7,9.63,6.76,1.3-.02,2.61-.11,3.92-.26,1.03-.12,2.04-.3,3.03-.5-2.23-1.5-7.04-5.21-7.55-9.51Z"/>
        <path class="cls-6" d="m105.88,228.3l-.1-.11-.08-.13c-.65-1.13-.95-2-.97-2.74l-.82.1-.32.04s-4.62-1.78-7.7-2.96c.75,3.04,2.47,5.06,2.49,5.08l.62.71-.94,1.55c4.73,2.45,9.98,3.96,15.5,4.28-2.3-1.29-5.22-3.23-7.68-5.82Z"/>
        <path class="cls-1" d="m77.35,200c2.51,21.25,21.76,36.44,43.01,33.93,21.25-2.51,36.44-21.77,33.93-43.01-2.51-21.25-21.76-36.44-43.01-33.93-21.25,2.51-36.44,21.76-33.93,43.01Z"/>
      </g>
    </g>
  </g>
</svg>