<?xml version="1.0" encoding="UTF-8"?>
<svg id="Layer_2" data-name="Layer 2" xmlns="http://www.w3.org/2000/svg" xmlns:xlink="http://www.w3.org/1999/xlink" viewBox="0 0 33.56 19.58">
  <defs>
    <style>
      .cls-1 {
        clip-path: url(#clippath);
      }

      .cls-2 {
        fill: none;
      }

      .cls-2, .cls-3, .cls-4, .cls-5 {
        stroke-width: 0px;
      }

      .cls-6 {
        clip-path: url(#clippath-1);
      }

      .cls-7 {
        clip-path: url(#clippath-4);
      }

      .cls-8 {
        clip-path: url(#clippath-3);
      }

      .cls-9 {
        clip-path: url(#clippath-2);
      }

      .cls-3 {
        fill: #419f43;
      }

      .cls-4 {
        fill: #fff;
      }

      .cls-5 {
        fill: #e53633;
      }
    </style>
    <clipPath id="clippath">
      <rect class="cls-2" width="33.56" height="19.58"/>
    </clipPath>
    <clipPath id="clippath-1">
      <rect class="cls-2" width="33.56" height="19.58"/>
    </clipPath>
    <clipPath id="clippath-2">
      <rect class="cls-2" width="33.56" height="19.58"/>
    </clipPath>
    <clipPath id="clippath-3">
      <rect class="cls-2" width="33.56" height="19.58"/>
    </clipPath>
    <clipPath id="clippath-4">
      <rect class="cls-2" width="33.56" height="19.58"/>
    </clipPath>
  </defs>
  <g id="Layer_1-2" data-name="Layer 1">
    <g id="LEBANON">
      <g>
        <g class="cls-1">
          <rect class="cls-4" width="33.56" height="19.58"/>
        </g>
        <g class="cls-6">
          <rect class="cls-5" y="14.68" width="33.56" height="4.89"/>
        </g>
        <g class="cls-9">
          <rect class="cls-5" width="33.56" height="4.89"/>
        </g>
        <g class="cls-8">
          <g class="cls-7">
            <path class="cls-3" d="m16.65,4.89l-.16.27c-.09.15-.3.37-.48.49-.17.12-.38.3-.46.4l-.15.18.16-.04c.09-.02.2-.06.25-.08.05-.02.1-.02.1.03h0s0,0,0,0c-.02.1-.3.31-.52.4-.21.09-.52.32-.56.4,0,0,0,0,0,0h0v.02h0s0,.01,0,.01h0s.09.02.17,0c.14-.03.19-.01.24.08.07.14.03.2-.13.2-.19,0-.46.2-.5.36-.03.11-.13.2-.36.3-.37.17-.84.49-.87.58,0,0,0,0,0,.01,0,.14.31.13.76-.02.1-.04.15,0,.22.17.1.22.09.22-.12.5-.15.2-.29.3-.43.33-.29.06-.38.12-.76.5-.18.18-.36.33-.4.33-.02,0-.03,0-.03,0h0s0,0,0,0h0s0,0,0,0h0s0,0,0,0h0s0,0,0,0h0c.03.06.23.17.34.17.08,0,.28-.09.44-.2.28-.2.3-.2.41-.09.06.07.12.2.12.28,0,.13-.07.2-.44.38-.27.14-.6.38-.85.64-.34.34-.43.4-.58.38-.09-.02-.14-.02-.16-.02h0s0,0,0,0h0s.03.06.09.12c.05.06.17.1.27.1.26,0,1.08-.3,1.33-.49.24-.18.46-.21.65-.1.29.17-.2.52-1.12.79-.34.11-.63.2-.67.23h0s0,.09.04.14c.1.13.58.13,1,0,.17-.05.58-.21.92-.37.61-.28.61-.28.83-.16.5.26.45.71-.14,1.47-.26.32-.49.47-.91.57-.16.04-.48.34-.48.45,0,0,0,.02,0,.02h.11s.05-.04.07-.07c.13-.18.4-.3.67-.3.29,0,.65-.16.93-.41.24-.22.48-.29.66-.18.1.06.19.07.31.02.21-.08.32-.04.32.12,0,.07.07.16.18.23.1.05.27.2.39.3.09.09.15.12.18.12h.02s0,0,0,0h0s0,0,0,0h0s0,0,0,0h0s-.03-.12-.1-.23c-.04-.06-.06-.12-.05-.16h0s0,0,0,0h0s0,0,0,0h0s0,0,0,0h0s.24-.01.45.02c.38.04.43.06.65.33.11.13.2.21.28.24h.15s.06-.04.06-.06h0c-.01-.05-.24-.27-.51-.5-.62-.52-.71-.71-.71-1.42,0-.43.02-.54.12-.64.16-.18.24-.17.62.03.29.15.38.16,1.04.15.7-.02.72-.02,1.08.2.2.12.44.27.54.34.22.17.44.18.49.03.06-.18-.35-.52-1.14-.94-.78-.41-.86-.53-.5-.72.21-.11.22-.11.54.08.26.14.38.17.55.14l.21-.05-.47-.39c-.26-.2-.51-.43-.55-.5-.14-.18-.4-.3-.66-.3-.12,0-.23-.02-.27-.05,0,0,0,0,0,0h0c-.07-.13.15-.2.76-.22.83-.03.94-.13.37-.32-.23-.07-.57-.16-.76-.21-.23-.04-.36-.1-.39-.16,0,0,0-.02,0-.02v-.02s.02-.04.04-.07c.04-.04.22-.04.54.02.35.05.55.07.58.03.04-.05-.13-.17-.49-.37-.33-.18-.74-.48-.93-.66-.19-.18-.46-.39-.61-.46-.2-.09-.27-.16-.24-.23.04-.12.36-.12.56,0,.08.05.3.09.48.09h.33s-.22-.09-.22-.09c-.22-.09-.82-.51-.86-.61h0s0-.01,0-.01h0s.16-.03.33-.02l.33.02-.48-.36c-.35-.27-.57-.39-.81-.44-.18-.04-.4-.09-.47-.11-.2-.04-.53-.39-.67-.7l-.11-.26Zm-1.09,1.86h.02c.06,0,.11.01.13.04h0s0,.01,0,.01h0v.02h0s0,0,0,.01c-.01.04-.08.12-.15.17-.06.04-.09.06-.11.06h0s0,0,0,0h0s-.01-.06-.01-.13c0-.13.03-.17.13-.17m1.61.16h0c.09,0,.16.05.17.12.02.09-.02.12-.17.12-.08,0-.13-.01-.15-.03-.02-.02-.02-.05-.01-.09.01-.07.07-.12.17-.12m-.47.04c.08,0,.11.05.11.15,0,.12-.05.16-.27.22-.14.04-.27.05-.3.04h0c-.08-.09,0-.2.18-.3.13-.06.21-.1.28-.11m1.08,0c.12,0,.14.05.08.22-.02.06-.1.11-.19.11-.12,0-.14-.02-.13-.15.01-.11.07-.15.19-.17.02,0,.04,0,.05,0m-1.83.32h.01c.14,0,.05.27-.13.4-.17.11-.34.16-.39.11h0s0,0,0-.02h0s0-.01,0-.02h0c0-.15.36-.47.53-.48m1.36.63c.07,0,.11.07.09.21-.01.08-.08.13-.18.14-.08,0-.13,0-.15-.02h0s0,0,0,0c0,0,0,0,0,0h0s.03-.11.11-.23c.05-.06.1-.09.14-.1m-.54.03h.01c.14,0,.16.12.03.2-.06.03-.11.06-.13.06,0,0,0,0,0,0h0s-.09-.03-.17-.05l-.15-.05.17-.08c.09-.04.19-.07.24-.07m1.17.15c.06,0,.14.01.21.04.12.05.15.09.12.23-.03.19-.13.21-.48.1-.17-.05-.19-.08-.14-.2.05-.11.16-.17.29-.18m-2.58.05h.01c.25,0,.29.04.17.2-.04.05-.12.14-.18.18-.09.07-.11.06-.16-.05-.06-.13-.09-.22-.05-.27.03-.05.1-.07.22-.07m-.67.11c.11,0,.18.05.26.2l.12.21-.18.07c-.17.07-.19.05-.33-.14-.09-.13-.12-.2-.1-.26,0,0,0,0,0-.02,0,0,0,0,0,0h0s.09-.05.19-.05c0,0,.01,0,.02,0m3.99.62c.12,0,.25.08.23.21-.02.17-.21.22-.37.1-.09-.07-.1-.1-.02-.21.04-.06.1-.09.17-.1m-2.27.33h.01s.02,0,.03,0c0,0,.01,0,.01,0h0s0,0,0,0h0s.03.07.02.12c-.03.18-.14.23-.19.08-.05-.13,0-.22.11-.22m-.76.13c.05,0,.13.03.22.1.06.05.08.09.08.13h0s0,.01,0,.01c0,0,0,0,0,0h0s0,.01,0,.01c0,0,0,0,0,0,0,0,0,0,0,0-.03.02-.11.02-.19-.04-.07-.06-.13-.13-.13-.16h0s.02-.06.05-.06m1.21.03s.05.02.09.06c.05.06.11.17.13.25.05.18-.03.26-.19.18-.18-.09-.22-.23-.12-.39.04-.06.06-.09.09-.09m.42.25s.11.06.12.17c0,.07,0,.12-.02.14h0s0,0,0,0h0c-.08,0-.14-.08-.14-.21,0-.07.02-.1.05-.1m-2.64.26c.09,0,.17,0,.22.02.08.02.14.04.17.07,0,0,.01.01.01.02,0,0,0,0,0,.01,0,0,0,.02,0,.03-.01.05-.08.11-.22.18-.11.06-.31.13-.43.15-.2.04-.23.03-.32-.16-.05-.11-.09-.21-.09-.23h0s0,0,0,0h0s.39-.09.65-.09m4.1.6c.24-.02.36.14.11.34-.17.13-.41.14-.56.02-.11-.09-.1-.11.1-.23.13-.08.25-.13.36-.13m.86.18h.01s.12.04.18.09c.11.09.11.1-.03.27-.07.09-.15.16-.18.16h0s-.12-.02-.23-.04c-.12-.01-.19-.06-.19-.12h0c.02-.11.31-.34.44-.36m-4.34.27h.04c.16,0,.25.13.25.38,0,.33-.2.3-.29-.04-.08-.29-.09-.34,0-.34m1.24.09c.1,0,.34.05.37.09h0s0,0,0,0h0s-.07.13-.14.23l-.14.19-.07-.24c-.04-.12-.06-.23-.06-.26h0s0,0,0,0h0s0,0,0,0c0,0,0,0,0,0h0s.02,0,.04,0m-.61.11s.05,0,.08,0c.08.02.15.08.16.15.01.08,0,.14-.02.17,0,0,0,0,0,0,0,0,0,0,0,0,0,0,0,0,0,0,0,0,0,0-.01,0h-.02s-.09-.05-.14-.15c-.05-.11-.08-.16-.07-.19h0s.01,0,.02,0"/>
          </g>
        </g>
      </g>
    </g>
  </g>
</svg>