<?xml version="1.0" encoding="UTF-8"?>
<svg id="Livello_2" data-name="Livello 2" xmlns="http://www.w3.org/2000/svg" xmlns:xlink="http://www.w3.org/1999/xlink" viewBox="0 0 308 385">
  <defs>
    <style>
      .cls-1 {
        fill: #005792;
      }

      .cls-1, .cls-2, .cls-3, .cls-4 {
        stroke-width: 0px;
      }

      .cls-1, .cls-3, .cls-4 {
        fill-rule: evenodd;
      }

      .cls-2 {
        fill: none;
      }

      .cls-3 {
        fill: #ffec00;
      }

      .cls-4 {
        fill: #fff;
      }

      .cls-5 {
        clip-path: url(#clippath);
      }
    </style>
    <clipPath id="clippath">
      <rect class="cls-2" width="308" height="385"/>
    </clipPath>
  </defs>
  <g id="Livello_1-2" data-name="Livello 1">
    <g>
      <path class="cls-4" d="m177.57,316.53c-7.46,5.65-15.26,10.75-23.34,15.2-8.09-4.45-15.89-9.55-23.35-15.2v-164.8h46.69v164.79Zm-26.95-150.29c1.32,1.51,2.98,2.24,5.1,2.04,1.25-3.28,2.33-7.2,5.11-9.32,2.65-2.04,6.12-2.77,9.3-1.76,1.94.61,3.44,4.28,1.49,6.8-3.1,3.99-7.22,6.27-12.29,6.43-2,7.19-3.62,12.38-6.7,16.32,4.85,2.31,7.38,2.87,10.35,2.86,2.78-.01,6.52-1.74,10.34-4.9-2.78,7.54-8.17,9.88-13.25,9.11-3.22-.48-5.77-2.41-9.17-4.38-1.97,2.27-5.57,4.84-8.95,5.16-2.09.2-5.47-1.46-5.59-3.55-.13-2.51,1.76-4.27,4.06-5.3,2.39-1.08,5.89-1.27,8.51-.4,2.17-4.16,4.25-8.96,5.92-15.14-2.16-.39-3.65-.98-4.23-3.96h0Zm.72,152.34c3.56,0,7.6-2.95,10.55-7.94.25-.42.22-1.28-.24-1.43-.59-.2-1.29.32-1.68.8-2.61,3.21-5.2,5.32-7.41,5.32-5.18,0-6.68-7.31-3.91-16.04,2.76-8.74,9.34-16.23,15.84-15.95,2.61.11,3.07,2.09,2.93,4.73-.02.41-.28,1.2.12,1.23.52.04.95-.64,1.06-1.14.86-4.03-.32-6.37-5.11-6.55-8.57-.32-17.67,8.34-21.32,18.45-3.65,10.1,2.34,18.55,9.17,18.55h0Zm8.8-68.47c-.54,3.59-1.06,7.48-1.82,11.24,1.09.11,2.13.21,3.09.23,2.69.05,3.5-1.22,4.12-3.8.74,2.85.31,6.19-3.06,6.58-1.3.15-3,.08-4.82-.02-.73,2.95-1.67,5.75-2.94,8.15-1.17,2.2-2.62,4.07-4.48,5.43-6.57,4.84-11.52,1.34-11.04-3.95.61,2.74,2.26,4.67,4.54,4.37,3.12-.41,5.91-4.71,6.6-7.22l1.92-6.97c-.98.01-1.91.08-2.76.23-2.29.39-3.93,1.38-4.04,3.59-1.37-2.01.61-5.41,2.68-6.22,1.54-.61,3.25-.79,4.99-.78l3.05-11.06c-1.73-.12-3.43-.29-5.05-.42-1.03-.09-3.69.26-3.92,1.98-.22,1.72,1.61,3.04,3.85,3.24-3.09.35-7.59.4-7.59-3.88,0-2.98,4.27-4.31,6.74-4.62,6.06-.75,12.2,1.04,18.28.44,2.02-.2,3.95-1.19,5.34-2.89-.66,4.12-2.09,4.95-4.57,5.58-2.83.71-5.98.87-9.14.79h0Zm-7.69-48.01c-2.87-.73-7.63,1.44-8.97,5.02,2.05-2.32,4.98-4.09,7.21-3.16,1.57.65.77,3.66.13,4.78l-10.54,18.5c-1.53,2.69-1.59,6.37.37,8.25,2.51,2.43,8.37,1.23,10.61-.18,2.24-1.41,3.82-3.71,5.12-6.05-.42,1.67-.67,3.22-.2,4.72.68,2.16,3.42,3.78,5.65,3.63,5.01-.34,7.19-4.4,3.93-8.98.76,2.57-.85,5.07-2.68,5.33-1.98.27-5.29-2.13-3.8-5.31l12.11-25.71h-4.12l-11.86,25.17c-1.56,3.31-5.38,6.05-9.03,5.87-3.27-.17-2.74-5.45-1.65-7.35l9.75-17.12c2.03-3.56.75-6.71-2.04-7.43h0Zm15.39-42.39c1.88,1.24.97,3.84-1.07,5.71-2.04,1.86-5.2,2.99-6.89,3.11.24-1.12.91-3.81,1.84-5.57,1.55-2.94,3.83-4.76,6.13-3.25h0Zm-20.64,27.63c-1.56,2.69-3.25,3.71-4.79,3.98-1.51.26-3.91-.3-3.81-2.23.07-1.27,1.46-2.59,4.71-2.71,1.74-.07,3.08.64,3.89.96h0Zm4.73-88.87l-3.38,4.69-4.72-1.55c-1.18-1.86-1.93-4.03-2.07-6.35l2.91-4.04,5.5,1.8,1.77,5.45Zm8.26-16.61c2.11.84,3.96,2.21,5.4,3.93v4.97s-5.49,1.77-5.49,1.77l-4.64-3.37-.02-5.78,4.74-1.52Zm8.48,13.4c-.15,2.32-.89,4.49-2.07,6.35l-4.72,1.55-3.38-4.69,1.77-5.45,5.49-1.81,2.92,4.04Zm-10.12,12.2c-1.07.27-2.18.42-3.34.42s-2.27-.15-3.34-.42l-2.94-4.02,3.42-4.67h5.73l3.41,4.67-2.94,4.02Zm-13.72-21.66c1.43-1.73,3.29-3.09,5.4-3.94l4.74,1.52-.02,5.78-4.64,3.37-5.5-1.76.02-4.97Zm-14.93-12.25c1.49-2.26,3.43-4.32,5.79-6.03,2.36-1.72,4.92-2.92,7.53-3.65-1.79,2.19-2.97,4.9-5.36,6.63-2.39,1.73-5.33,2.02-7.96,3.04h0Zm25.32,6.54c7.88,0,14.31,6.43,14.31,14.3s-6.43,14.31-14.31,14.31-14.31-6.42-14.31-14.31,6.43-14.3,14.31-14.3h0Zm-27.65,31.94c-1.68-2.12-3.04-4.6-3.94-7.37-.9-2.77-1.26-5.58-1.15-8.28,1.53,2.38,3.74,4.34,4.66,7.14.91,2.8.27,5.69.43,8.51h0Zm35.88,14.11c-2.54.95-5.32,1.47-8.23,1.47s-5.7-.52-8.23-1.47c2.74-.72,5.28-2.22,8.23-2.22s5.5,1.5,8.23,2.22h0Zm24.5-29.76c.12,2.7-.24,5.51-1.14,8.28-.9,2.77-2.26,5.25-3.95,7.37.16-2.82-.48-5.71.43-8.51.91-2.8,3.12-4.76,4.65-7.14h0Zm-1.57-14.82c-.15-6.33-3.44-12.83-9.38-17.14-5.93-4.31-13.13-5.44-19.2-3.62-.46-3.02-1.37-5.72-2.58-7.85-1.22,2.13-2.12,4.83-2.58,7.85-6.07-1.82-13.27-.69-19.2,3.62-5.93,4.31-9.23,10.81-9.38,17.14-3.02-.49-5.86-.46-8.26.03,1.64,1.81,3.93,3.51,6.66,4.88-3.6,5.21-4.75,12.41-2.49,19.38,2.27,6.97,7.42,12.12,13.4,14.21-1.4,2.72-2.26,5.43-2.52,7.86,2.23-1,4.55-2.66,6.7-4.83,3.84,5.03,10.33,8.35,17.66,8.35s13.82-3.32,17.66-8.35c2.15,2.17,4.47,3.82,6.7,4.83-.26-2.44-1.12-5.15-2.52-7.87,5.98-2.1,11.14-7.24,13.41-14.21,2.27-6.97,1.11-14.17-2.49-19.38,2.73-1.37,5.02-3.07,6.66-4.88-2.4-.5-5.25-.53-8.26-.03h0Zm-19.55,28.07c1.61,1.26,2.75,3.16,4.02,4.75.59.73,1.27,1.15,2.04,1.84,1.84.72,4.98-2.42,5.44-3.75,1.14-3.25-.24-6.87.87-10.28,1.11-3.42,4.36-5.53,5.34-8.83.4-1.35-.29-5.72-2.19-6.23-1.03.11-1.83.04-2.74.29-1.96.53-4,1.41-6.05,1.48.12,1.01-.5,2.01-1.5,2.34-1.15.37-2.39-.26-2.77-1.41-.38-1.15.26-2.39,1.41-2.77,1.01-.32,2.09.12,2.59,1.01,1.69-1.14,3.86-1.64,5.76-2.36.88-.33,1.48-.85,2.38-1.37,1.25-1.52-.77-5.48-1.89-6.34-2.73-2.09-6.61-1.89-9.51-4-2.9-2.11-3.91-5.85-6.75-7.81-1.16-.8-5.54-1.49-6.61.16-.21,1.01-.52,1.75-.57,2.69-.1,2.03.1,4.24-.47,6.21,1,.2,1.76,1.09,1.76,2.15,0,1.21-.99,2.2-2.2,2.2s-2.2-.99-2.2-2.2c0-1.06.76-1.95,1.76-2.15-.57-1.96-.37-4.18-.47-6.21-.05-.94-.35-1.68-.57-2.69-1.06-1.66-5.45-.96-6.61-.16-2.83,1.96-3.84,5.7-6.75,7.81-2.91,2.11-6.78,1.92-9.51,4-1.12.85-3.13,4.8-1.89,6.33.9.52,1.51,1.04,2.39,1.37,1.9.72,4.07,1.21,5.76,2.36.5-.89,1.59-1.34,2.59-1.01,1.15.38,1.78,1.62,1.41,2.77-.38,1.15-1.62,1.78-2.77,1.41-1.01-.33-1.62-1.33-1.5-2.34-2.05-.07-4.09-.94-6.05-1.48-.9-.25-1.7-.18-2.73-.29-1.91.5-2.61,4.88-2.2,6.24.98,3.29,4.23,5.41,5.34,8.83,1.11,3.42-.27,7.04.87,10.28.47,1.33,3.6,4.46,5.44,3.75.77-.69,1.45-1.11,2.04-1.84,1.27-1.58,2.41-3.49,4.03-4.75-.69-.75-.78-1.92-.16-2.78.71-.98,2.09-1.2,3.07-.48.98.71,1.2,2.09.48,3.07-.62.86-1.76,1.13-2.69.7-.7,1.93-2.16,3.6-3.27,5.3-.52.78-.7,1.56-1.12,2.5-.12,1.97,3.84,3.98,5.25,4.02,3.44.08,6.46-2.35,10.05-2.35s6.61,2.43,10.05,2.35c1.41-.04,5.36-2.05,5.25-4.01-.42-.95-.61-1.72-1.12-2.51-1.11-1.7-2.58-3.37-3.27-5.3-.93.43-2.07.15-2.69-.7-.71-.98-.49-2.36.49-3.07.98-.71,2.36-.49,3.07.49.62.86.53,2.02-.16,2.78h0Zm7.45,8.14c1.34,1.85,2.69,4.81,2.96,6.92-1.93-.9-4.32-3.1-5.67-4.95-1.25,2.12-4.41,3.76-6.29,3.81-3.55.08-6.47-2.35-10.05-2.35s-6.5,2.44-10.05,2.35c-1.89-.05-5.04-1.69-6.29-3.81-1.35,1.85-3.74,4.05-5.67,4.95.26-2.11,1.61-5.06,2.96-6.92-2.4-.54-4.94-3.03-5.56-4.81-1.18-3.35.23-6.88-.87-10.29-1.1-3.4-4.32-5.43-5.34-8.83-.54-1.81.05-5.32,1.67-7.16-2.17-.71-5.01-2.31-6.46-3.86,2.09-.4,5.32-.03,7.5.67-.23-2.44,1.35-5.63,2.85-6.77,2.82-2.16,6.62-1.9,9.52-4,2.89-2.1,3.82-5.79,6.75-7.81,1.55-1.07,5.07-1.6,7.33-.62,0-2.29.65-5.47,1.68-7.34,1.03,1.86,1.67,5.04,1.68,7.34,2.26-.98,5.77-.45,7.33.62,2.92,2.02,3.85,5.71,6.75,7.81,2.89,2.1,6.69,1.85,9.51,4,1.5,1.14,3.08,4.33,2.85,6.78,2.18-.71,5.41-1.08,7.5-.68-1.45,1.56-4.28,3.15-6.46,3.86,1.63,1.85,2.21,5.35,1.68,7.16-1.02,3.4-4.24,5.43-5.34,8.83-1.11,3.4.31,6.93-.87,10.29-.62,1.78-3.16,4.27-5.57,4.81h0Zm-19.05-41.39c.56,0,1.02.46,1.02,1.03s-.46,1.02-1.02,1.02-1.03-.46-1.03-1.02.46-1.03,1.03-1.03h0Zm17.14,12.45c.17.54-.12,1.12-.66,1.29-.54.17-1.12-.12-1.29-.66-.17-.53.12-1.12.66-1.29.54-.18,1.12.12,1.29.66h0Zm-34.28,0c.18-.54.76-.83,1.29-.66.53.18.83.76.66,1.29-.17.54-.76.83-1.29.66-.53-.17-.83-.75-.66-1.29h0Zm6.55,20.15c-.46-.33-.56-.98-.23-1.43.33-.46.98-.56,1.43-.23.45.33.56.98.23,1.43-.33.46-.98.56-1.43.23h0Zm21.18,0c-.46.33-1.1.23-1.43-.23-.33-.46-.23-1.1.23-1.43.46-.33,1.1-.23,1.43.23.33.46.23,1.1-.23,1.43h0Zm1.41-45.1c2.6.72,5.16,1.93,7.52,3.65,2.36,1.71,4.3,3.77,5.79,6.03-2.64-1.03-5.58-1.31-7.97-3.04-2.39-1.73-3.56-4.44-5.35-6.64h0Z"/>
      <g class="cls-5">
        <path class="cls-3" d="m154.23,372.93C78.88,328.27,12.49,250.52,12.49,122.93c0-19.38,1.66-38.27,4.81-56.47C49.54,33.67,98.97,12.62,154.23,12.62s104.68,21.05,136.93,53.84c3.14,18.2,4.81,37.1,4.81,56.47,0,127.58-66.39,205.33-141.74,249.99h0Zm11.89-282.07v-4.4c1.62,2.23,2.59,4.98,2.59,7.94v.04l-2.59-3.58Zm-10.9-9.95c1.46,0,2.88.24,4.2.67l-4.2,1.35-4.2-1.35c1.32-.43,2.73-.67,4.2-.67h0Zm10.92,21.39c-1.67,2.29-4.03,4.04-6.78,4.93l2.6-3.56,4.18-1.37Zm-15.05,4.93c-2.75-.89-5.12-2.64-6.78-4.93l4.18,1.37,2.6,3.56Zm-9.35-12.81s0-.02,0-.04c0-2.96.97-5.71,2.6-7.94v4.39s-2.6,3.58-2.6,3.58Zm13.49-4.99l2.36,1.72,2.36,1.71-.9,2.77-.9,2.77h-5.83l-.9-2.77-.9-2.77,2.35-1.71,2.36-1.72Zm22.36,227.09c-7.46,5.65-15.26,10.75-23.34,15.2-8.09-4.45-15.89-9.55-23.35-15.2v-164.8h46.69v164.79ZM45.02,136.13h218.42c.23-10.49.36-20.32-.56-29.42-1.43-14.25-5.5-19.66-12.11-24.71-26.34-20.16-59.79-31.76-96.55-31.76s-70.21,11.6-96.55,31.76c-6.61,5.06-10.67,10.46-12.11,24.71-.92,9.1-.78,18.93-.56,29.42h0Zm217.73,30.3l-13.06-14.69h13.48c0,1.17-.01,2.34-.01,3.53,0,3.7-.14,7.43-.41,11.16h0Zm-145.79,138.58c-4.14-3.73-8.15-7.64-12-11.69l12-13.5v25.19Zm-23.14-24.3c-4.45-5.42-8.64-11.06-12.56-16.86l35.7-40.15v30.99l-23.14,26.02Zm-21.77-31.64c-3.68-6.45-7.02-13.04-10-19.74l54.91-61.75v30.99l-44.91,50.5Zm-16.86-37.17c-2.68-7.84-4.85-15.77-6.46-23.72l32.39-36.43h27.56l-53.49,60.15Zm-9.48-45.46c-.27-3.73-.41-7.46-.41-11.16,0-1.18,0-2.36-.01-3.53h13.48l-13.06,14.69Zm207.54,45.46l-53.48-60.15h27.56l32.39,36.43c-1.62,7.95-3.79,15.88-6.46,23.72h0Zm-16.86,37.17l-44.91-50.5v-30.99l54.91,61.75c-2.98,6.7-6.33,13.3-10,19.74h0Zm-21.77,31.64l-23.14-26.02v-30.99l35.7,40.15c-3.92,5.8-8.12,11.43-12.56,16.86h0Zm-23.14,24.3v-25.19l12,13.5c-3.86,4.05-7.86,7.96-12,11.69h0Z"/>
        <path class="cls-1" d="m154.23,384.11c-63.27-34.5-119.68-95.35-140.41-168.41C-.82,164.07-4.16,109.96,8.79,58.62,43.05,23.79,95.54,1.43,154.23,1.43s111.18,22.36,145.43,57.19c12.95,51.34,9.62,105.45-5.03,157.08-20.73,73.06-77.14,133.91-140.41,168.41h0Zm-3.6-217.87c1.32,1.51,2.98,2.24,5.1,2.04,1.25-3.28,2.33-7.2,5.11-9.32,2.65-2.04,6.12-2.77,9.3-1.76,1.94.61,3.44,4.28,1.49,6.8-3.1,3.99-7.22,6.27-12.29,6.43-2,7.19-3.62,12.38-6.7,16.32,4.85,2.31,7.38,2.87,10.35,2.86,2.78-.01,6.52-1.74,10.34-4.9-2.78,7.54-8.17,9.88-13.25,9.11-3.22-.48-5.77-2.41-9.17-4.38-1.97,2.27-5.57,4.84-8.95,5.16-2.09.2-5.47-1.46-5.59-3.55-.13-2.51,1.76-4.27,4.06-5.3,2.39-1.08,5.89-1.27,8.51-.4,2.17-4.16,4.25-8.96,5.92-15.14-2.16-.39-3.65-.98-4.23-3.96h0Zm.72,152.34c3.56,0,7.6-2.95,10.55-7.94.25-.42.22-1.28-.24-1.43-.59-.2-1.29.32-1.68.8-2.61,3.21-5.2,5.32-7.41,5.32-5.18,0-6.68-7.31-3.91-16.04,2.76-8.74,9.34-16.23,15.84-15.95,2.61.11,3.07,2.09,2.93,4.73-.02.41-.28,1.2.12,1.23.52.04.95-.64,1.06-1.14.86-4.03-.32-6.37-5.11-6.55-8.57-.32-17.67,8.34-21.32,18.45-3.65,10.1,2.34,18.55,9.17,18.55h0Zm8.8-68.47c-.54,3.59-1.06,7.48-1.82,11.24,1.09.11,2.13.21,3.09.23,2.69.05,3.5-1.22,4.12-3.8.74,2.85.31,6.19-3.06,6.58-1.3.15-3,.08-4.82-.02-.73,2.95-1.67,5.75-2.94,8.15-1.17,2.2-2.62,4.07-4.48,5.43-6.57,4.84-11.52,1.34-11.04-3.95.61,2.74,2.26,4.67,4.54,4.37,3.12-.41,5.91-4.71,6.6-7.22l1.92-6.97c-.98.01-1.91.08-2.76.23-2.29.39-3.93,1.38-4.04,3.59-1.37-2.01.61-5.41,2.68-6.22,1.54-.61,3.25-.79,4.99-.78l3.05-11.06c-1.73-.12-3.43-.29-5.05-.42-1.03-.09-3.69.26-3.92,1.98-.22,1.72,1.61,3.04,3.85,3.24-3.09.35-7.59.4-7.59-3.88,0-2.98,4.27-4.31,6.74-4.62,6.06-.75,12.2,1.04,18.28.44,2.02-.2,3.95-1.19,5.34-2.89-.66,4.12-2.09,4.95-4.57,5.58-2.83.71-5.98.87-9.14.79h0Zm-7.69-48.01c-2.87-.73-7.63,1.44-8.97,5.02,2.05-2.32,4.98-4.09,7.21-3.16,1.57.65.77,3.66.13,4.78l-10.54,18.5c-1.53,2.69-1.59,6.37.37,8.25,2.51,2.43,8.37,1.23,10.61-.18,2.24-1.41,3.82-3.71,5.12-6.05-.42,1.67-.67,3.22-.2,4.72.68,2.16,3.42,3.78,5.65,3.63,5.01-.34,7.19-4.4,3.93-8.98.76,2.57-.85,5.07-2.68,5.33-1.98.27-5.29-2.13-3.8-5.31l12.11-25.71h-4.12l-11.86,25.17c-1.56,3.31-5.38,6.05-9.03,5.87-3.27-.17-2.74-5.45-1.65-7.35l9.75-17.12c2.03-3.56.75-6.71-2.04-7.43h0Zm15.39-42.39c1.88,1.24.97,3.84-1.07,5.71-2.04,1.86-5.2,2.99-6.89,3.11.24-1.12.91-3.81,1.84-5.57,1.55-2.94,3.83-4.76,6.13-3.25h0Zm-20.64,27.63c-1.56,2.69-3.25,3.71-4.79,3.98-1.51.26-3.91-.3-3.81-2.23.07-1.27,1.46-2.59,4.71-2.71,1.74-.07,3.08.64,3.89.96h0Zm18.91-96.48v-4.4c1.62,2.23,2.59,4.98,2.59,7.94v.04l-2.59-3.58Zm-10.9-9.95c1.46,0,2.88.24,4.2.67l-4.2,1.35-4.2-1.35c1.32-.43,2.73-.67,4.2-.67h0Zm10.92,21.39c-1.67,2.29-4.03,4.04-6.78,4.93l2.6-3.56,4.18-1.37Zm-15.05,4.93c-2.75-.89-5.12-2.64-6.78-4.93l4.18,1.37,2.6,3.56Zm-9.35-12.81s0-.02,0-.04c0-2.96.97-5.71,2.6-7.94v4.39s-2.6,3.58-2.6,3.58Zm13.49-4.99l2.36,1.72,2.36,1.71-.9,2.77-.9,2.77h-5.83l-.9-2.77-.9-2.77,2.35-1.71,2.36-1.72Zm-3.28,9.04l-3.38,4.69-4.72-1.55c-1.18-1.86-1.93-4.03-2.07-6.35l2.91-4.04,5.5,1.8,1.77,5.45Zm8.26-16.61c2.11.84,3.96,2.21,5.4,3.93v4.97s-5.49,1.77-5.49,1.77l-4.64-3.37-.02-5.78,4.74-1.52Zm8.48,13.4c-.15,2.32-.89,4.49-2.07,6.35l-4.72,1.55-3.38-4.69,1.77-5.45,5.49-1.81,2.92,4.04Zm-10.12,12.2c-1.07.27-2.18.42-3.34.42s-2.27-.15-3.34-.42l-2.94-4.02,3.42-4.67h5.73l3.41,4.67-2.94,4.02Zm-13.72-21.66c1.43-1.73,3.29-3.09,5.4-3.94l4.74,1.52-.02,5.78-4.64,3.37-5.5-1.76.02-4.97Zm-14.93-12.25c1.49-2.26,3.43-4.32,5.79-6.03,2.36-1.72,4.92-2.92,7.53-3.65-1.79,2.19-2.97,4.9-5.36,6.63-2.39,1.73-5.33,2.02-7.96,3.04h0Zm25.32,6.54c7.88,0,14.31,6.43,14.31,14.3s-6.43,14.31-14.31,14.31-14.31-6.42-14.31-14.31,6.43-14.3,14.31-14.3h0Zm-27.65,31.94c-1.68-2.12-3.04-4.6-3.94-7.37-.9-2.77-1.26-5.58-1.15-8.28,1.53,2.38,3.74,4.34,4.66,7.14.91,2.8.27,5.69.43,8.51h0Zm35.88,14.11c-2.54.95-5.32,1.47-8.23,1.47s-5.7-.52-8.23-1.47c2.74-.72,5.28-2.22,8.23-2.22s5.5,1.5,8.23,2.22h0Zm24.5-29.76c.12,2.7-.24,5.51-1.14,8.28-.9,2.77-2.26,5.25-3.95,7.37.16-2.82-.48-5.71.43-8.51.91-2.8,3.12-4.76,4.65-7.14h0Zm-1.57-14.82c-.15-6.33-3.44-12.83-9.38-17.14-5.93-4.31-13.13-5.44-19.2-3.62-.46-3.02-1.37-5.72-2.58-7.85-1.22,2.13-2.12,4.83-2.58,7.85-6.07-1.82-13.27-.69-19.2,3.62-5.93,4.31-9.23,10.81-9.38,17.14-3.02-.49-5.86-.46-8.26.03,1.64,1.81,3.93,3.51,6.66,4.88-3.6,5.21-4.75,12.41-2.49,19.38,2.27,6.97,7.42,12.12,13.4,14.21-1.4,2.72-2.26,5.43-2.52,7.86,2.23-1,4.55-2.66,6.7-4.83,3.84,5.03,10.33,8.35,17.66,8.35s13.82-3.32,17.66-8.35c2.15,2.17,4.47,3.82,6.7,4.83-.26-2.44-1.12-5.15-2.52-7.87,5.98-2.1,11.14-7.24,13.41-14.21,2.27-6.97,1.11-14.17-2.49-19.38,2.73-1.37,5.02-3.07,6.66-4.88-2.4-.5-5.25-.53-8.26-.03h0Zm-19.55,28.07c1.61,1.26,2.75,3.16,4.02,4.75.59.73,1.27,1.15,2.04,1.84,1.84.72,4.98-2.42,5.44-3.75,1.14-3.25-.24-6.87.87-10.28,1.11-3.42,4.36-5.53,5.34-8.83.4-1.35-.29-5.72-2.19-6.23-1.03.11-1.83.04-2.74.29-1.96.53-4,1.41-6.05,1.48.12,1.01-.5,2.01-1.5,2.34-1.15.37-2.39-.26-2.77-1.41-.38-1.15.26-2.39,1.41-2.77,1.01-.32,2.09.12,2.59,1.01,1.69-1.14,3.86-1.64,5.76-2.36.88-.33,1.48-.85,2.38-1.37,1.25-1.52-.77-5.48-1.89-6.34-2.73-2.09-6.61-1.89-9.51-4-2.9-2.11-3.91-5.85-6.75-7.81-1.16-.8-5.54-1.49-6.61.16-.21,1.01-.52,1.75-.57,2.69-.1,2.03.1,4.24-.47,6.21,1,.2,1.76,1.09,1.76,2.15,0,1.21-.99,2.2-2.2,2.2s-2.2-.99-2.2-2.2c0-1.06.76-1.95,1.76-2.15-.57-1.96-.37-4.18-.47-6.21-.05-.94-.35-1.68-.57-2.69-1.06-1.66-5.45-.96-6.61-.16-2.83,1.96-3.84,5.7-6.75,7.81-2.91,2.11-6.78,1.92-9.51,4-1.12.85-3.13,4.8-1.89,6.33.9.52,1.51,1.04,2.39,1.37,1.9.72,4.07,1.21,5.76,2.36.5-.89,1.59-1.34,2.59-1.01,1.15.38,1.78,1.62,1.41,2.77-.38,1.15-1.62,1.78-2.77,1.41-1.01-.33-1.62-1.33-1.5-2.34-2.05-.07-4.09-.94-6.05-1.48-.9-.25-1.7-.18-2.73-.29-1.91.5-2.61,4.88-2.2,6.24.98,3.29,4.23,5.41,5.34,8.83,1.11,3.42-.27,7.04.87,10.28.47,1.33,3.6,4.46,5.44,3.75.77-.69,1.45-1.11,2.04-1.84,1.27-1.58,2.41-3.49,4.03-4.75-.69-.75-.78-1.92-.16-2.78.71-.98,2.09-1.2,3.07-.48.98.71,1.2,2.09.48,3.07-.62.86-1.76,1.13-2.69.7-.7,1.93-2.16,3.6-3.27,5.3-.52.78-.7,1.56-1.12,2.5-.12,1.97,3.84,3.98,5.25,4.02,3.44.08,6.46-2.35,10.05-2.35s6.61,2.43,10.05,2.35c1.41-.04,5.36-2.05,5.25-4.01-.42-.95-.61-1.72-1.12-2.51-1.11-1.7-2.58-3.37-3.27-5.3-.93.43-2.07.15-2.69-.7-.71-.98-.49-2.36.49-3.07.98-.71,2.36-.49,3.07.49.62.86.53,2.02-.16,2.78h0Zm7.45,8.14c1.34,1.85,2.69,4.81,2.96,6.92-1.93-.9-4.32-3.1-5.67-4.95-1.25,2.12-4.41,3.76-6.29,3.81-3.55.08-6.47-2.35-10.05-2.35s-6.5,2.44-10.05,2.35c-1.89-.05-5.04-1.69-6.29-3.81-1.35,1.85-3.74,4.05-5.67,4.95.26-2.11,1.61-5.06,2.96-6.92-2.4-.54-4.94-3.03-5.56-4.81-1.18-3.35.23-6.88-.87-10.29-1.1-3.4-4.32-5.43-5.34-8.83-.54-1.81.05-5.32,1.67-7.16-2.17-.71-5.01-2.31-6.46-3.86,2.09-.4,5.32-.03,7.5.67-.23-2.44,1.35-5.63,2.85-6.77,2.82-2.16,6.62-1.9,9.52-4,2.89-2.1,3.82-5.79,6.75-7.81,1.55-1.07,5.07-1.6,7.33-.62,0-2.29.65-5.47,1.68-7.34,1.03,1.86,1.67,5.04,1.68,7.34,2.26-.98,5.77-.45,7.33.62,2.92,2.02,3.85,5.71,6.75,7.81,2.89,2.1,6.69,1.85,9.51,4,1.5,1.14,3.08,4.33,2.85,6.78,2.18-.71,5.41-1.08,7.5-.68-1.45,1.56-4.28,3.15-6.46,3.86,1.63,1.85,2.21,5.35,1.68,7.16-1.02,3.4-4.24,5.43-5.34,8.83-1.11,3.4.31,6.93-.87,10.29-.62,1.78-3.16,4.27-5.57,4.81h0Zm-19.05-41.39c.56,0,1.02.46,1.02,1.03s-.46,1.02-1.02,1.02-1.03-.46-1.03-1.02.46-1.03,1.03-1.03h0Zm17.14,12.45c.17.54-.12,1.12-.66,1.29-.54.17-1.12-.12-1.29-.66-.17-.53.12-1.12.66-1.29.54-.18,1.12.12,1.29.66h0Zm-34.28,0c.18-.54.76-.83,1.29-.66.53.18.83.76.66,1.29-.17.54-.76.83-1.29.66-.53-.17-.83-.75-.66-1.29h0Zm6.55,20.15c-.46-.33-.56-.98-.23-1.43.33-.46.98-.56,1.43-.23.45.33.56.98.23,1.43-.33.46-.98.56-1.43.23h0Zm21.18,0c-.46.33-1.1.23-1.43-.23-.33-.46-.23-1.1.23-1.43.46-.33,1.1-.23,1.43.23.33.46.23,1.1-.23,1.43h0Zm1.41-45.1c2.6.72,5.16,1.93,7.52,3.65,2.36,1.71,4.3,3.77,5.79,6.03-2.64-1.03-5.58-1.31-7.97-3.04-2.39-1.73-3.56-4.44-5.35-6.64h0Zm-12.99,309.05C78.88,328.27,12.49,250.52,12.49,122.93c0-19.38,1.66-38.27,4.81-56.47C49.54,33.67,98.97,12.62,154.23,12.62s104.68,21.05,136.93,53.84c3.14,18.2,4.81,37.1,4.81,56.47,0,127.58-66.39,205.33-141.74,249.99h0ZM45.02,136.13h218.42c.23-10.49.36-20.32-.56-29.42-1.43-14.25-5.5-19.66-12.11-24.71-26.34-20.16-59.79-31.76-96.55-31.76s-70.21,11.6-96.55,31.76c-6.61,5.06-10.67,10.46-12.11,24.71-.92,9.1-.78,18.93-.56,29.42h0Zm217.73,30.3l-13.06-14.69h13.48c0,1.17-.01,2.34-.01,3.53,0,3.7-.14,7.43-.41,11.16h0Zm-145.79,138.58c-4.14-3.73-8.15-7.64-12-11.69l12-13.5v25.19Zm-23.14-24.3c-4.45-5.42-8.64-11.06-12.56-16.86l35.7-40.15v30.99l-23.14,26.02Zm-21.77-31.64c-3.68-6.45-7.02-13.04-10-19.74l54.91-61.75v30.99l-44.91,50.5Zm-16.86-37.17c-2.68-7.84-4.85-15.77-6.46-23.72l32.39-36.43h27.56l-53.49,60.15Zm-9.48-45.46c-.27-3.73-.41-7.46-.41-11.16,0-1.18,0-2.36-.01-3.53h13.48l-13.06,14.69Zm207.54,45.46l-53.48-60.15h27.56l32.39,36.43c-1.62,7.95-3.79,15.88-6.46,23.72h0Zm-16.86,37.17l-44.91-50.5v-30.99l54.91,61.75c-2.98,6.7-6.33,13.3-10,19.74h0Zm-21.77,31.64l-23.14-26.02v-30.99l35.7,40.15c-3.92,5.8-8.12,11.43-12.56,16.86h0Zm-23.14,24.3v-25.19l12,13.5c-3.86,4.05-7.86,7.96-12,11.69h0Z"/>
      </g>
    </g>
  </g>
</svg>