<?xml version="1.0" encoding="UTF-8"?>
<svg id="Livello_2" data-name="Livello 2" xmlns="http://www.w3.org/2000/svg" xmlns:xlink="http://www.w3.org/1999/xlink" viewBox="0 0 549.62 537.86">
  <defs>
    <style>
      .cls-1 {
        fill: url(#linear-gradient-12);
      }

      .cls-1, .cls-2, .cls-3, .cls-4, .cls-5, .cls-6, .cls-7, .cls-8, .cls-9, .cls-10, .cls-11, .cls-12, .cls-13, .cls-14, .cls-15, .cls-16, .cls-17, .cls-18, .cls-19, .cls-20, .cls-21, .cls-22, .cls-23, .cls-24, .cls-25, .cls-26, .cls-27, .cls-28, .cls-29, .cls-30, .cls-31, .cls-32, .cls-33, .cls-34, .cls-35, .cls-36, .cls-37, .cls-38, .cls-39, .cls-40, .cls-41, .cls-42 {
        stroke-width: 0px;
      }

      .cls-2 {
        fill: url(#linear-gradient-17);
      }

      .cls-3 {
        fill: url(#linear-gradient-19);
      }

      .cls-4 {
        fill: url(#linear-gradient);
      }

      .cls-5 {
        fill: #0a62a0;
      }

      .cls-6 {
        fill: url(#linear-gradient-21);
      }

      .cls-7 {
        fill: url(#linear-gradient-6);
      }

      .cls-8 {
        fill: #4d962b;
      }

      .cls-9 {
        fill: #e63312;
      }

      .cls-10 {
        fill: #0d3810;
      }

      .cls-11 {
        fill: url(#linear-gradient-15);
      }

      .cls-12 {
        fill: url(#linear-gradient-11);
      }

      .cls-13 {
        fill: url(#linear-gradient-5);
      }

      .cls-14 {
        fill: #d69b00;
      }

      .cls-15 {
        fill: #795700;
      }

      .cls-16 {
        fill: url(#linear-gradient-13);
      }

      .cls-17 {
        fill: url(#linear-gradient-23);
      }

      .cls-18 {
        fill: url(#linear-gradient-25);
      }

      .cls-19 {
        fill: url(#linear-gradient-16);
      }

      .cls-20 {
        fill: url(#linear-gradient-22);
      }

      .cls-21 {
        fill: #fff;
      }

      .cls-22 {
        fill: url(#linear-gradient-20);
      }

      .cls-23 {
        fill: url(#linear-gradient-14);
      }

      .cls-24 {
        fill: url(#linear-gradient-2);
      }

      .cls-25 {
        fill: url(#linear-gradient-7);
      }

      .cls-26 {
        fill: url(#linear-gradient-3);
      }

      .cls-27 {
        fill: #1e1347;
      }

      .cls-28 {
        fill: url(#linear-gradient-9);
      }

      .cls-29 {
        fill: url(#linear-gradient-27);
      }

      .cls-30 {
        fill: #81c185;
      }

      .cls-31 {
        fill: url(#linear-gradient-8);
      }

      .cls-32 {
        fill: url(#linear-gradient-24);
      }

      .cls-33 {
        fill: url(#linear-gradient-26);
      }

      .cls-34 {
        fill: url(#linear-gradient-18);
      }

      .cls-35 {
        fill: url(#linear-gradient-30);
      }

      .cls-36 {
        fill: #2b2472;
      }

      .cls-37 {
        fill: url(#linear-gradient-29);
      }

      .cls-38 {
        fill: url(#linear-gradient-28);
      }

      .cls-39 {
        fill: url(#linear-gradient-10);
      }

      .cls-40 {
        fill: #1d1d1b;
      }

      .cls-41 {
        fill: url(#linear-gradient-4);
      }

      .cls-42 {
        fill: #dec61f;
      }
    </style>
    <linearGradient id="linear-gradient" x1="98.57" y1="270.6" x2="161.06" y2="333.09" gradientUnits="userSpaceOnUse">
      <stop offset="0" stop-color="#2ea836"/>
      <stop offset=".18" stop-color="#2ca334"/>
      <stop offset=".37" stop-color="#289630"/>
      <stop offset=".57" stop-color="#228028"/>
      <stop offset=".78" stop-color="#19621e"/>
      <stop offset=".98" stop-color="#0d3b11"/>
      <stop offset="1" stop-color="#0d3810"/>
    </linearGradient>
    <linearGradient id="linear-gradient-2" x1="205.51" y1="402.09" x2="231.29" y2="402.09" gradientUnits="userSpaceOnUse">
      <stop offset="0" stop-color="#2ea836"/>
      <stop offset=".18" stop-color="#2ca334"/>
      <stop offset=".37" stop-color="#299730"/>
      <stop offset=".57" stop-color="#238229"/>
      <stop offset=".76" stop-color="#1a651f"/>
      <stop offset=".96" stop-color="#0f4013"/>
      <stop offset="1" stop-color="#0d3810"/>
    </linearGradient>
    <linearGradient id="linear-gradient-3" x1="185.92" y1="447.85" x2="216.61" y2="417.16" gradientUnits="userSpaceOnUse">
      <stop offset="0" stop-color="#2ea836"/>
      <stop offset=".16" stop-color="#2ca234"/>
      <stop offset=".36" stop-color="#27932e"/>
      <stop offset=".59" stop-color="#207926"/>
      <stop offset=".82" stop-color="#16561a"/>
      <stop offset="1" stop-color="#0d3810"/>
    </linearGradient>
    <linearGradient id="linear-gradient-4" x1="111.37" y1="420.62" x2="158.35" y2="373.64" xlink:href="#linear-gradient-3"/>
    <linearGradient id="linear-gradient-5" x1="97.23" y1="388.57" x2="144.82" y2="355.24" gradientUnits="userSpaceOnUse">
      <stop offset="0" stop-color="#2ea836"/>
      <stop offset=".17" stop-color="#2ca334"/>
      <stop offset=".37" stop-color="#28952f"/>
      <stop offset=".58" stop-color="#217e27"/>
      <stop offset=".79" stop-color="#185e1c"/>
      <stop offset="1" stop-color="#0d3810"/>
    </linearGradient>
    <linearGradient id="linear-gradient-6" x1="74.1" y1="353.25" x2="126.2" y2="328.96" xlink:href="#linear-gradient-5"/>
    <linearGradient id="linear-gradient-7" x1="93.03" y1="137.03" x2="107.79" y2="220.77" gradientUnits="userSpaceOnUse">
      <stop offset="0" stop-color="#2ea836"/>
      <stop offset=".15" stop-color="#2b9f33"/>
      <stop offset=".4" stop-color="#24882b"/>
      <stop offset=".71" stop-color="#19621e"/>
      <stop offset="1" stop-color="#0d3810"/>
    </linearGradient>
    <linearGradient id="linear-gradient-8" x1="189.35" y1="376" x2="220.57" y2="376" xlink:href="#linear-gradient-2"/>
    <linearGradient id="linear-gradient-9" x1="143.96" y1="442.72" x2="192.04" y2="394.64" xlink:href="#linear-gradient-3"/>
    <linearGradient id="linear-gradient-10" x1="53.16" y1="275.08" x2="103.45" y2="268.9" xlink:href="#linear-gradient-5"/>
    <linearGradient id="linear-gradient-11" x1="57.78" y1="313.09" x2="110.21" y2="299.05" xlink:href="#linear-gradient-5"/>
    <linearGradient id="linear-gradient-12" x1="138.4" y1="325.33" x2="176.78" y2="343.23" gradientUnits="userSpaceOnUse">
      <stop offset="0" stop-color="#2ea836"/>
      <stop offset=".15" stop-color="#2b9f33"/>
      <stop offset=".39" stop-color="#25892b"/>
      <stop offset=".69" stop-color="#1a651f"/>
      <stop offset="1" stop-color="#0d3810"/>
    </linearGradient>
    <linearGradient id="linear-gradient-13" x1="162.22" y1="355.84" x2="193.21" y2="355.84" xlink:href="#linear-gradient-2"/>
    <linearGradient id="linear-gradient-14" x1="79.63" y1="207.93" x2="130.2" y2="268.19" gradientUnits="userSpaceOnUse">
      <stop offset="0" stop-color="#2ea836"/>
      <stop offset=".22" stop-color="#2da434"/>
      <stop offset=".4" stop-color="#299a31"/>
      <stop offset=".57" stop-color="#24882b"/>
      <stop offset=".74" stop-color="#1d7023"/>
      <stop offset=".9" stop-color="#145018"/>
      <stop offset="1" stop-color="#0d3810"/>
    </linearGradient>
    <linearGradient id="linear-gradient-15" x1="54.62" y1="233.1" x2="91.24" y2="233.1" xlink:href="#linear-gradient-5"/>
    <linearGradient id="linear-gradient-16" x1="723.18" y1="270.6" x2="785.67" y2="333.09" gradientTransform="translate(1174.23) rotate(-180) scale(1 -1)" xlink:href="#linear-gradient"/>
    <linearGradient id="linear-gradient-17" x1="830.12" x2="855.9" gradientTransform="translate(1174.23) rotate(-180) scale(1 -1)" xlink:href="#linear-gradient-2"/>
    <linearGradient id="linear-gradient-18" x1="810.53" x2="841.22" y2="417.16" gradientTransform="translate(1174.23) rotate(-180) scale(1 -1)" xlink:href="#linear-gradient-3"/>
    <linearGradient id="linear-gradient-19" x1="735.98" y1="420.62" x2="782.96" y2="373.64" gradientTransform="translate(1174.23) rotate(-180) scale(1 -1)" xlink:href="#linear-gradient-3"/>
    <linearGradient id="linear-gradient-20" x1="721.84" y1="388.57" x2="769.43" y2="355.24" gradientTransform="translate(1174.23) rotate(-180) scale(1 -1)" xlink:href="#linear-gradient-5"/>
    <linearGradient id="linear-gradient-21" x1="698.72" y1="353.25" x2="750.82" y2="328.96" gradientTransform="translate(1174.23) rotate(-180) scale(1 -1)" xlink:href="#linear-gradient-5"/>
    <linearGradient id="linear-gradient-22" x1="717.64" y1="137.03" x2="732.4" y2="220.77" gradientTransform="translate(1174.23) rotate(-180) scale(1 -1)" xlink:href="#linear-gradient-7"/>
    <linearGradient id="linear-gradient-23" x1="813.96" y1="376" x2="845.19" y2="376" gradientTransform="translate(1174.23) rotate(-180) scale(1 -1)" xlink:href="#linear-gradient-2"/>
    <linearGradient id="linear-gradient-24" x1="768.57" y1="442.72" x2="816.65" y2="394.64" gradientTransform="translate(1174.23) rotate(-180) scale(1 -1)" xlink:href="#linear-gradient-3"/>
    <linearGradient id="linear-gradient-25" x1="677.77" y1="275.08" x2="728.06" y2="268.9" gradientTransform="translate(1174.23) rotate(-180) scale(1 -1)" xlink:href="#linear-gradient-5"/>
    <linearGradient id="linear-gradient-26" x1="682.39" y1="313.09" x2="734.82" y2="299.05" gradientTransform="translate(1174.23) rotate(-180) scale(1 -1)" xlink:href="#linear-gradient-5"/>
    <linearGradient id="linear-gradient-27" x1="763.01" y1="325.33" x2="801.39" y2="343.23" gradientTransform="translate(1174.23) rotate(-180) scale(1 -1)" xlink:href="#linear-gradient-12"/>
    <linearGradient id="linear-gradient-28" x1="786.83" y1="355.84" x2="817.82" y2="355.84" gradientTransform="translate(1174.23) rotate(-180) scale(1 -1)" xlink:href="#linear-gradient-2"/>
    <linearGradient id="linear-gradient-29" x1="704.25" y1="207.93" x2="754.81" y2="268.19" gradientTransform="translate(1174.23) rotate(-180) scale(1 -1)" xlink:href="#linear-gradient-14"/>
    <linearGradient id="linear-gradient-30" x1="679.23" y1="233.1" x2="715.85" y2="233.1" gradientTransform="translate(1174.23) rotate(-180) scale(1 -1)" xlink:href="#linear-gradient-5"/>
  </defs>
  <g id="_Ñëîé_1" data-name="Ñëîé 1">
    <g>
      <path class="cls-14" d="m241.15,461.9c-17.05-1.88-37.87-5.48-64.88-12.32-35.27-8.93-38.17-8.93-46.87-20.76,0,0-1.12,18.08-2.23,28.12-1.12,10.04-9.6,52.9-9.6,52.9,0,0,35.27,8.26,64.73,14.06,29.46,5.8,60.71,13.84,92.52,13.95h0c31.81-.11,63.05-8.15,92.52-13.95,29.46-5.8,64.73-14.06,64.73-14.06,0,0-8.48-42.85-9.6-52.9-1.12-10.04-2.23-28.12-2.23-28.12-8.7,11.83-11.61,11.83-46.87,20.76-27.01,6.84-47.84,10.44-64.89,12.32h-.11s-2.41,2.19-2.41,2.19l-1.12.45s-1.94-.63-5.26-1.77h-.13c-9.18.76-17.23,1.03-24.63,1.1h0c-7.38-.07-15.41-.34-24.56-1.09l-.18-.02c-3.33,1.15-5.28,1.78-5.28,1.78l-1.12-.45-2.4-2.17h-.12Z"/>
      <path class="cls-21" d="m274.85,467.88c21.92-.22,50.88-2.1,99.49-14.41l6.98-1.76c21.27-5.35,29.23-7.37,35.55-12.96.42,5.92,1.01,13.32,1.6,18.63.94,8.43,6.79,38.63,8.9,49.42-9.87,2.28-37.34,8.53-60.81,13.16l-16.82,3.45c-24.33,5.08-49.5,10.34-74.92,10.43-25.42-.09-50.58-5.35-74.92-10.43l-16.82-3.45c-23.47-4.62-50.94-10.88-60.81-13.16,2.11-10.78,7.96-40.99,8.9-49.42.59-5.31,1.17-12.72,1.6-18.63,6.32,5.59,14.28,7.61,35.55,12.96l6.98,1.76c48.61,12.31,77.57,14.19,99.49,14.41h.04s.04,0,.04,0Z"/>
      <path class="cls-40" d="m274.07,454.04l.73,1.21.73-1.2.05-.09c16.28,6.36,29.24,10.57,29.24,10.57l1.12-.45h0s-13.29-4.32-29.85-10.81l-.07-.02.05-.1c9.97-3.94,21-8.63,30.99-13.62,4.21-2.11,8.63-4.41,13.15-6.88l.21-.13c-.31-.18-.62-.36-.94-.55l-.14.1c-4.61,2.52-9.11,4.87-13.4,7.01-26.09,13.04-59.35,24.04-62.09,24.94l-.18.06h0l1.12.45s12.97-4.21,29.25-10.58l.03.08Z"/>
      <path class="cls-14" d="m243.67,464.09l-4.69-4.24s41.23-11.77,76.11-31.25c1.03-.58,2.06-1.15,3.09-1.74l.18-.11c.09,3.37.3,4.74.3,4.74,2.72-1.86,10.5-7.13,16.67-13.99l.2-.22.12.16c1.02,1.23,2.04,2.38,3.05,3.47l-.14.1c-4.19,2.53-8.39,4.99-12.55,7.35l-.49.29c-4.1,1.58-6.86,2.84-6.86,2.84.28.16.55.32.82.48l-.14.1c-4.61,2.52-9.11,4.87-13.4,7.01-26.09,13.04-59.35,24.04-62.09,24.94l-.18.06Z"/>
      <path class="cls-4" d="m142.16,343.86c-1.25,6.35-2.27,10.41-2.27,10.41-3.12-2.46-18.08-20.31-26.34-33.03-8.26-12.72-6.47-26.56-3.35-41.74,3.12-15.18,9.6-30.13,9.6-30.13,12.95,16.52,25.89,25.67,26.78,50.22.08,2.23.09,4.51.05,6.81l.02,1.59c-.85,1.97-1.7,4.03-2.52,6.11-3.45,8.71-4.72,18.74-1.95,29.39v.37Z"/>
      <path class="cls-24" d="m209.63,372.69s-6.71,19.09-3.01,32.14c3.57,12.61,20.09,23.77,24.33,26.67,0,0,.89-6.03-.22-23.66-.99-15.6-8.48-23.21-21.09-35.15Z"/>
      <path class="cls-26" d="m171.58,433.51s17.86,8.93,29.91,8.93,18.3-4.46,29.46-10.94c0,0-15.32-7-27.45-8.7-15.85-2.23-31.92,10.71-31.92,10.71Z"/>
      <path class="cls-41" d="m131.74,412.73c-1.93,0-3.83-.15-5.69-.42-13.84-2.01-33.48-10.49-33.48-10.49,0,0,3.12-3.35,20.09-14.06,16.96-10.71,26.11-6.47,37.72-3.79,11.61,2.68,26.78,8.48,26.78,8.48-5.48,4.25-10.56,7.75-15.31,10.57l-.26.17c-5.91.35-11.24,1.67-17.46,4-4.41,1.65-8.43,3.64-11.81,5.57h-.58Z"/>
      <path class="cls-13" d="m114.72,386.11c-2.74-.72-5.29-1.79-7.65-3.27-8.93-5.58-27.45-19.42-27.45-19.42,0,0,2.46-1.34,18.08-4.46,15.62-3.12,24.33-1.56,39.51,6.47,15.18,8.03,25.22,14.95,25.22,14.95,0,0-3.97,1.28-12.82,3.26l-.26.07c-10.55-2.53-19.27-5.98-34.16,2.51l-.47-.12Z"/>
      <path class="cls-7" d="m102.96,357.84c-8.27-1.08-13.33-3.85-17.76-6.92-8.7-6.03-23.21-23.66-23.21-23.66,27.68-6.25,41.07-2.68,55.58,7.81,14.51,10.49,20.76,19.86,20.76,19.86-7.79,1.62-14.36,2.59-19.98,3.05l-.44.06c-4.5-.78-9.01-.78-14.23-.1l-.71-.11Z"/>
      <path class="cls-25" d="m83.97,220.18c-2.57-7.09-6.74-20.95-5.91-34.43.89-14.51,11.16-27.45,18.53-34.82,7.37-7.37,20.09-18.08,20.09-18.08,0,0,3.35,8.04,4.02,20.31.63,11.49.86,20.83-9.54,38.81l-.08.16c-2.43-4.41-4.22-7.05-4.22-7.05,0,0-14.88,25.09-18.92,38.95l-.07.24-.22-.23c-1.07-1.21-2.27-2.43-3.61-3.69l-.06-.18Z"/>
      <path class="cls-31" d="m207.27,407.41c-2.59-2.37-5.69-5.62-9.13-10.06-10.04-12.95-9.37-18.75-8.04-30.8,1.34-12.05,6.03-22.32,6.03-22.32,4.24,3.79,19.64,14.51,23.44,30.58.65,2.75.95,5.68,1.01,8.65v.28c-3.04-3.51-6.7-7.03-10.94-11.05,0,0-6.71,19.09-3.01,32.14.28.99.64,1.98,1.07,2.95l-.42-.37Z"/>
      <path class="cls-28" d="m179.08,437.07c-8.63.66-15.79-.87-24.69-2.89-16.9-3.84-33.03-14.06-33.03-14.06,0,0,9.6-8.04,22.77-12.95,13.17-4.91,22.32-5.36,41.51-1.56,13.73,2.72,21.55,6.06,25.58,8.29l.18.11c.84,1.13,1.74,2.22,2.68,3.28l-.12.16c-1.86,2.24-3.72,4.25-5.59,6.04l-.16.18c-1.6-.36-3.18-.66-4.71-.88-15.85-2.23-31.92,10.71-31.92,10.71,0,0,3.28,1.64,7.98,3.51l-.47.04Z"/>
      <path class="cls-10" d="m185.35,439.04c4.89,1.02,13.29,2.5,19.76,2.28,5.88-.2,13.22-3.16,18.11-5.47l1.87-.92c-7.86,4.57-13.82,7.51-23.6,7.51-5.27,0-11.66-1.71-17.17-3.63l1.04.23Z"/>
      <path class="cls-30" d="m211.2,424.48c-10.93-1.87-21.47.15-25.32,1.05l-.51.08c5.37-2.17,11.76-3.71,18.11-2.82,2.6.37,5.35.98,8.07,1.71l-.36-.02Z"/>
      <path class="cls-10" d="m175.57,435.57c-6.54.27-12.52-.48-17.33-1.45-10.15-2.06-20.62-6.06-27.05-8.76l-2.35-1.02c6.29,3.28,15.79,7.62,25.56,9.84,8.9,2.02,16.06,3.54,24.69,2.89l.47-.04c-1.3-.52-2.49-1.02-3.53-1.47l-.46.02Z"/>
      <path class="cls-10" d="m102.69,405.62c6.29,1.7,16.91,4.34,24.13,4.95,3.02.25,6.85-.1,11.07-.91l.59-.12c-2.22,1.04-4.29,2.13-6.17,3.2h-.58c-1.93-.02-3.83-.17-5.69-.44-8.14-1.18-18.28-4.6-25.25-7.22l1.9.53Z"/>
      <path class="cls-40" d="m158.91,403.19c3.15-1.3,6.17-2.71,8.91-4.17l1.45-.79c-2.57,1.77-5.04,3.36-7.43,4.78l-.26.17c-1.19.07-2.36.18-3.51.33l.84-.32Z"/>
      <path class="cls-30" d="m150.09,384.07c-3.23-.45-7.89-1.05-12.94-1.5-9.37-.84-11.38.17-17.91,3.18-4.13,1.91-7.93,3.55-10.16,4.49l-.71.26c1.32-.86,2.75-1.77,4.29-2.74,16.96-10.71,26.11-6.47,37.72-3.79.44.1.89.21,1.34.32l-1.62-.21Z"/>
      <path class="cls-10" d="m127.56,356.69c-6.38.37-16.8.73-24.4-.24-11.72-1.51-17.24-6.19-26.62-15.4-5.62-5.52-9.83-9.27-12.3-11.38l-.89-.75c3.82,4.52,14.75,17.11,21.83,22.01,4.43,3.06,9.48,5.84,17.76,6.92l.71.11c5.22-.68,9.73-.68,14.23.1l.44-.06c3.37-.28,7.08-.74,11.2-1.41l-1.98.11Z"/>
      <path class="cls-39" d="m70.09,286.41c-4.94-3.94-8.49-8.41-11-13.61-5.78-11.96-10.04-31.25-10.04-31.25,0,0,14.73,3.79,25.44,8.93,10.71,5.13,18.97,19.87,22.1,25.89,3.12,6.03,10.98,26.04,10.98,26.04-2.59-.66-4.99-1.31-7.29-1.98l-.3-.09c-.94-.81-1.92-1.59-2.94-2.32-8.7-6.22-16.89-9.52-26.63-11.36l-.31-.26Z"/>
      <path class="cls-12" d="m117.31,327.47c-6.03-.21-11.34-.58-16.04-1.13l-.78-.1c-3.29-.98-6.78-1.62-10.61-1.89l-.57-.11c-9.32-2.34-15.51-5.99-20.64-11.24-9.15-9.37-18.53-28.35-18.53-28.35,20.09.89,32.81,3.35,46.87,13.39,4.59,3.28,8.41,7.55,11.49,11.82l.24.33c.93,3.78,2.46,7.47,4.79,11.06,1.29,1.99,2.75,4.1,4.29,6.26l-.53-.04Z"/>
      <path class="cls-30" d="m108.47,290.77c.05,5.09.48,11.94,2.06,18.3,2.53,10.2,11.06,22.61,18.69,32.96l1.18,1.73c-5.56-6.73-12.25-15.43-16.86-22.52-6.54-10.07-6.78-20.84-5.05-32.42l-.02,1.96Z"/>
      <path class="cls-1" d="m168.9,325.43c-.6-6.52-1.92-12.6-4.24-17.36-4.69-9.6-10.27-16.74-10.27-16.74,0,0-5.58,10.94-10.27,22.77-4.69,11.83-5.36,26.11,2.68,41.07,8.04,14.95,14.06,22.1,14.06,22.1,0,0,1.93-3.49,3.9-9.87l.03-.16c-2.82-8.43-3.34-17-1.47-25.23,1.18-5.21,3.44-11.24,5.6-16.36l-.02-.21Z"/>
      <path class="cls-16" d="m189.62,381.78c-2.31,9.29-4.87,15.8-4.87,15.8,0,0-8.04-7.59-14.95-19.42-6.92-11.83-9.15-24.33-6.47-36.16,2.68-11.83,10.94-27.9,10.94-27.9,0,0,17.12,16.99,18.75,35.04.07.8.13,1.6.17,2.4l.04.6c-1.23,3.93-2.5,8.98-3.11,14.4-.64,5.81-1.13,10.16-.35,14.57l-.14.66Z"/>
      <path class="cls-30" d="m144.63,313.52c-.87,4.24-2.06,11.17-1.96,17.15.11,6.2.51,13.85,2.76,21.23l.24,1.04c-6.82-14.14-6-27.6-1.54-38.85.27-.68.54-1.35.81-2.02l-.31,1.44Z"/>
      <path class="cls-30" d="m108.86,311.49c-10.89-14.01-19.04-17.1-24.28-19.66-4.14-2.02-11.18-4.04-15.77-5.24l-1.92-.51c11.33,1.68,20.41,5,30.14,11.94,4.59,3.28,8.41,7.55,11.49,11.82l.24.33c.14.57.29,1.14.46,1.71l-.35-.39Z"/>
      <path class="cls-23" d="m93.3,270.37c-2-4.81-3.78-9.43-4.75-12.74-2.68-9.15-4.46-18.97-.89-32.59,3.57-13.61,19.2-39.95,19.2-39.95,0,0,11.16,16.52,15.62,35.71,2.12,9.12.87,19.46-1.68,29.11l-.18.49c-.27-.34-.54-.68-.81-1.03,0,0-5.32,12.28-8.64,25.88l-.74,1.57c-4.17,8.5-6.31,12.29-7.23,13.82l-.2.39c-2.29-5.6-4.9-11.75-6.4-14.65-.73-1.41-1.75-3.3-3.01-5.44l-.27-.57Z"/>
      <path class="cls-30" d="m101.34,287.53c-3.15-5.83-7.72-14.23-10.56-19.3-4.69-8.37-10.55-12.39-15.4-15.9-2-1.45-4.06-2.73-5.79-3.73l-1.62-.91c2.23.87,4.45,1.81,6.51,2.8,10.71,5.13,18.97,19.87,22.1,25.89,1.3,2.51,3.42,7.45,5.46,12.36l-.7-1.2Z"/>
      <path class="cls-10" d="m102.58,288.61c.95-1.6,2.87-5.02,6.11-11.51,1.49-2.98,3.01-6.26,4.47-9.69l.62-1.54c-.92,2.95-1.83,6.13-2.63,9.38l-.74,1.57c-4.17,8.5-6.31,12.29-7.23,13.82l-.2.39c-.25-.61-.5-1.23-.76-1.85l.35-.57Z"/>
      <path class="cls-10" d="m120.22,248.19c.57-1.91,1.09-3.78,1.53-5.57,1.67-6.8,1.26-15.43.71-20.95l-.22-1.88c.08.34.16.68.24,1.02,2.12,9.12.87,19.46-1.68,29.11l-.18.49c-.27-.34-.54-.68-.81-1.03l.42-1.18Z"/>
      <path class="cls-30" d="m91.01,263.94c-2.68-9.29-3.79-18.59-3.91-24-.14-6.53,2.85-14.9,6.19-23.77,1.19-3.16,2.41-7.65,3.26-11l.59-2.4c-3.92,7.65-7.89,16.22-9.48,22.27-3.57,13.61-1.79,23.44.89,32.59.6,2.05,1.51,4.6,2.6,7.4l-.14-1.08Z"/>
      <path class="cls-11" d="m90.67,265.17c-.19-.03-.38-.06-.57-.09l-.34-.08c-4-5.7-9.25-11.63-15.27-14.52-3.69-1.77-7.85-3.37-11.73-4.72l-.23-.39c-1.5-2.51-2.75-5.2-3.66-8.06-3.55-11.1-4.24-36.38-4.24-36.38,0,0,14.73,7.14,24.78,15.4,3.38,2.78,6.08,5.26,8.25,7.72l.22.23c-.07.26-.14.51-.21.76-3.57,13.61-1.79,23.44.89,32.59.62,2.11,1.57,4.75,2.69,7.64l-.57-.1Z"/>
      <path class="cls-14" d="m107.2,308.02c-.93-2.19-1.77-4.28-2.51-6.26l-.04-.1c.95.25,1.91.51,2.91.76,0,0-2.1-5.34-4.55-11.34l-.02-.06.07-.13.03.07c1.34,3.26,2.84,6.6,4.47,9.99l.03.07c.07,3.07.42,6.09,1.13,9.04l.03.11-.24-.33c-.41-.56-.82-1.13-1.26-1.69l-.06-.14Z"/>
      <path class="cls-40" d="m104.69,301.76c.75,1.98,1.58,4.07,2.51,6.26l.06.14c-.82-1.07-1.69-2.13-2.61-3.16l-.03-.07c-.49-1.23-.95-2.42-1.37-3.58l-.02-.07c.47.13.94.26,1.42.38l.04.1Z"/>
      <path class="cls-30" d="m87.12,225.26c-3.76-4.42-9.23-9.43-12.85-12.6l-.99-.89c2.12,1.45,4.21,2.99,6.12,4.56,3.38,2.78,6.08,5.26,8.25,7.72l.22.23c-.07.26-.14.51-.21.76-.06.22-.12.45-.17.67l-.36-.45Z"/>
      <path class="cls-30" d="m120.73,157.33c-.4,4.6-1.28,10.97-3.17,16.99-2.43,7.75-5.5,13.43-7.16,16.19l-.12.22c.25.45.52.92.79,1.42l.08-.16c9.52-16.45,10.13-25.67,9.69-35.91l-.1,1.25Z"/>
      <path class="cls-10" d="m81.24,173.25c-1.71,5.51-3.5,14.18-2.01,23.67,1.98,12.7,5.12,21.43,6.35,24.53l.26.67c-.57-.58-1.17-1.16-1.8-1.75l-.06-.18c-2.57-7.09-6.74-20.95-5.91-34.43.31-4.97,1.71-9.76,3.73-14.2l-.54,1.69Z"/>
      <path class="cls-14" d="m173.68,395.49c4.31,3.43,9.03,6.92,14.02,10.4l.3.21c7.14,1.52,12.54,3.2,16.56,4.75l-.83-.52c-6.45-4.12-12.74-8.37-18.76-12.76l-.17-.11c-.03.08-.04.12-.04.12,0,0-.25-.24-.71-.7l-.13-.07c-14.98-11.02-28.29-22.95-38.45-36.06-1.76-2.27-3.51-4.58-5.25-6.92l-.17-.22c-.1.44-.16.67-.16.67-2.63-2.06-13.6-14.99-21.93-26.61l-.11-.16-.53-.04c-.11,0-.22,0-.33-.01l.19.31c1.17,2.02,2.42,4.08,3.74,6.19,1.55,2.47,3.05,4.83,4.52,7.11l.29.47c8.73,7.59,12.6,13.4,12.6,13.4-1,.21-1.99.41-2.95.6l.16.2c3.88,5.23,8.09,10.37,13.15,15.92l.35.36c8.35,4.89,13.41,8.37,13.41,8.37,0,0-1.35.43-4.22,1.19l.27.29c1.2,1.19,2.44,2.41,3.73,3.65.85.82,1.73,1.65,2.65,2.49l.2.17c6.76,2.22,12.1,4.26,12.1,4.26-1.27.98-2.51,1.93-3.74,2.83l.26.22Z"/>
      <path class="cls-40" d="m148.67,371.66c-5.06-5.55-9.26-10.7-13.15-15.92l-.16-.2c-.43.08-.85.16-1.27.24l.14.18c3.41,4.59,7.05,9.12,11.3,13.91l.22.27c1.14.65,2.22,1.28,3.26,1.88l-.35-.36Z"/>
      <path class="cls-40" d="m158.48,381.87c1.2,1.19,2.44,2.41,3.73,3.65.85.82,1.73,1.65,2.65,2.49l.2.17c-.79-.26-1.6-.52-2.42-.78l-.23-.18c-.45-.42-.89-.84-1.32-1.26-1.38-1.33-2.7-2.63-3.97-3.9l-.16-.17c.44-.11.86-.22,1.25-.32l.27.29Z"/>
      <path class="cls-40" d="m187.7,405.89c-4.98-3.48-9.71-6.97-14.01-10.4l-.26-.22c-.3.22-.61.45-.91.67l.23.13c3.83,3.04,7.98,6.13,12.34,9.21l.47.31s.06.01.09.02c.81.16,1.59.32,2.36.48l-.3-.21Z"/>
      <path class="cls-40" d="m125.44,341.07c-1.47-2.28-2.97-4.64-4.52-7.11-1.32-2.11-2.57-4.17-3.74-6.19l-.19-.31c-.48-.02-.95-.04-1.42-.05l.11.15c1.05,1.82,2.16,3.68,3.33,5.58.26.42,3.75,5.92,3.75,5.92,1.05.85,2.04,1.68,2.98,2.5l-.29-.47Z"/>
      <path class="cls-40" d="m211.05,421.02c4.19,2.53,8.39,4.99,12.55,7.35l.49.29c-1.56-.6-3.32-1.25-5.19-1.89l-.13-.08c-2.78-1.6-5.57-3.25-8.35-4.93l-.22-.09c.24-.25.48-.5.71-.75l.14.1Z"/>
      <path class="cls-19" d="m407.46,343.86c1.25,6.35,2.27,10.41,2.27,10.41,3.12-2.46,18.08-20.31,26.34-33.03,8.26-12.72,6.47-26.56,3.35-41.74-3.12-15.18-9.6-30.13-9.6-30.13-12.95,16.52-25.89,25.67-26.78,50.22-.08,2.23-.09,4.51-.05,6.81l-.02,1.59c.84,1.97,1.7,4.03,2.52,6.11,3.45,8.71,4.72,18.74,1.95,29.39l.02.37Z"/>
      <path class="cls-2" d="m339.99,372.69s6.71,19.09,3.01,32.14c-3.57,12.61-20.09,23.77-24.33,26.67,0,0-.89-6.03.22-23.66.99-15.6,8.48-23.21,21.09-35.15Z"/>
      <path class="cls-34" d="m378.04,433.51s-17.86,8.93-29.91,8.93-18.3-4.46-29.46-10.94c0,0,15.31-7,27.45-8.7,15.85-2.23,31.92,10.71,31.92,10.71Z"/>
      <path class="cls-3" d="m417.88,412.73c1.93,0,3.83-.15,5.69-.42,13.84-2.01,33.48-10.49,33.48-10.49,0,0-3.12-3.35-20.09-14.06-16.96-10.71-26.11-6.47-37.72-3.79-11.61,2.68-26.78,8.48-26.78,8.48,5.48,4.25,10.56,7.75,15.31,10.57l.26.17c5.91.35,11.24,1.67,17.46,4,4.41,1.65,8.43,3.64,11.81,5.57h.58Z"/>
      <path class="cls-22" d="m434.9,386.11c2.74-.72,5.29-1.79,7.65-3.27,8.93-5.58,27.45-19.42,27.45-19.42,0,0-2.46-1.34-18.08-4.46-15.62-3.12-24.33-1.56-39.51,6.47-15.18,8.03-25.22,14.95-25.22,14.95,0,0,3.97,1.28,12.82,3.26l.26.07c10.55-2.53,19.27-5.98,34.16,2.51l.47-.12Z"/>
      <path class="cls-6" d="m446.66,357.84c8.27-1.08,13.33-3.85,17.76-6.92,8.71-6.03,23.21-23.66,23.21-23.66-27.68-6.25-41.07-2.68-55.58,7.81-14.51,10.49-20.76,19.86-20.76,19.86,7.79,1.62,14.36,2.59,19.98,3.05l.44.06c4.5-.78,9.01-.78,14.23-.1l.71-.11Z"/>
      <path class="cls-20" d="m465.65,220.18c2.57-7.09,6.74-20.95,5.91-34.43-.89-14.51-11.16-27.45-18.52-34.82-7.37-7.37-20.09-18.08-20.09-18.08,0,0-3.35,8.04-4.02,20.31-.63,11.49-.86,20.83,9.54,38.81l.08.16c2.43-4.41,4.22-7.05,4.22-7.05,0,0,14.88,25.09,18.92,38.95l.07.24.22-.23c1.07-1.21,2.27-2.43,3.61-3.69l.06-.18Z"/>
      <path class="cls-17" d="m342.35,407.41c2.59-2.37,5.69-5.62,9.13-10.06,10.04-12.95,9.37-18.75,8.04-30.8-1.34-12.05-6.03-22.32-6.03-22.32-4.24,3.79-19.64,14.51-23.44,30.58-.65,2.75-.95,5.68-1.01,8.65v.28c3.04-3.51,6.7-7.03,10.94-11.05,0,0,6.71,19.09,3.01,32.14-.28.99-.64,1.98-1.07,2.95l.42-.37Z"/>
      <path class="cls-32" d="m370.53,437.07c8.63.66,15.79-.87,24.69-2.89,16.9-3.84,33.03-14.06,33.03-14.06,0,0-9.6-8.04-22.77-12.95-13.17-4.91-22.32-5.36-41.52-1.56-13.73,2.72-21.55,6.06-25.58,8.29l-.18.11c-.84,1.13-1.74,2.22-2.68,3.28l.12.16c1.86,2.24,3.72,4.25,5.59,6.04l.16.18c1.6-.36,3.18-.66,4.71-.88,15.85-2.23,31.92,10.71,31.92,10.71,0,0-3.28,1.64-7.98,3.51l.47.04Z"/>
      <path class="cls-10" d="m364.27,439.04c-4.89,1.02-13.29,2.5-19.76,2.28-5.88-.2-13.22-3.16-18.11-5.47l-1.87-.92c7.86,4.57,13.82,7.51,23.6,7.51,5.27,0,11.66-1.71,17.17-3.63l-1.04.23Z"/>
      <path class="cls-30" d="m338.41,424.48c10.93-1.87,21.47.15,25.32,1.05l.51.08c-5.37-2.17-11.76-3.71-18.11-2.82-2.6.37-5.35.98-8.07,1.71l.36-.02Z"/>
      <path class="cls-10" d="m374.05,435.57c6.54.27,12.52-.48,17.33-1.45,10.15-2.06,20.62-6.06,27.05-8.76l2.35-1.02c-6.29,3.28-15.79,7.62-25.56,9.84-8.9,2.02-16.06,3.54-24.69,2.89l-.47-.04c1.3-.52,2.49-1.02,3.53-1.47l.46.02Z"/>
      <path class="cls-10" d="m446.92,405.62c-6.29,1.7-16.91,4.34-24.13,4.95-3.02.25-6.85-.1-11.07-.91l-.59-.12c2.22,1.04,4.29,2.13,6.17,3.2h.58c1.93-.02,3.83-.17,5.69-.44,8.13-1.18,18.28-4.6,25.25-7.22l-1.9.53Z"/>
      <path class="cls-40" d="m390.7,403.19c-3.15-1.3-6.17-2.71-8.91-4.17l-1.45-.79c2.57,1.77,5.04,3.36,7.43,4.78l.26.17c1.19.07,2.36.18,3.51.33l-.84-.32Z"/>
      <path class="cls-30" d="m399.53,384.07c3.23-.45,7.89-1.05,12.94-1.5,9.37-.84,11.38.17,17.91,3.18,4.13,1.91,7.93,3.55,10.16,4.49l.71.26c-1.32-.86-2.75-1.77-4.29-2.74-16.96-10.71-26.11-6.47-37.72-3.79-.44.1-.89.21-1.34.32l1.62-.21Z"/>
      <path class="cls-10" d="m422.05,356.69c6.38.37,16.8.73,24.4-.24,11.72-1.51,17.24-6.19,26.62-15.4,5.62-5.52,9.83-9.27,12.3-11.38l.89-.75c-3.83,4.52-14.75,17.11-21.83,22.01-4.42,3.06-9.48,5.84-17.76,6.92l-.71.11c-5.22-.68-9.73-.68-14.23.1l-.44-.06c-3.37-.28-7.08-.74-11.2-1.41l1.98.11Z"/>
      <path class="cls-18" d="m479.53,286.41c4.94-3.94,8.49-8.41,11-13.61,5.78-11.96,10.04-31.25,10.04-31.25,0,0-14.73,3.79-25.44,8.93-10.71,5.13-18.97,19.87-22.1,25.89-3.12,6.03-10.98,26.04-10.98,26.04,2.59-.66,4.99-1.31,7.29-1.98l.3-.09c.94-.81,1.92-1.59,2.94-2.32,8.7-6.22,16.89-9.52,26.63-11.36l.31-.26Z"/>
      <path class="cls-33" d="m432.31,327.47c6.03-.21,11.34-.58,16.04-1.13l.78-.1c3.29-.98,6.78-1.62,10.61-1.89l.57-.11c9.32-2.34,15.51-5.99,20.64-11.24,9.15-9.37,18.53-28.35,18.53-28.35-20.09.89-32.81,3.35-46.87,13.39-4.59,3.28-8.41,7.55-11.49,11.82l-.24.33c-.93,3.78-2.46,7.47-4.79,11.06-1.29,1.99-2.75,4.1-4.29,6.26l.53-.04Z"/>
      <path class="cls-30" d="m441.15,290.77c-.05,5.09-.48,11.94-2.06,18.3-2.53,10.2-11.06,22.61-18.69,32.96l-1.18,1.73c5.56-6.73,12.25-15.43,16.86-22.52,6.54-10.07,6.78-20.84,5.05-32.42l.03,1.96Z"/>
      <path class="cls-29" d="m380.72,325.43c.6-6.52,1.92-12.6,4.24-17.36,4.69-9.6,10.27-16.74,10.27-16.74,0,0,5.58,10.94,10.27,22.77,4.69,11.83,5.36,26.11-2.68,41.07-8.04,14.95-14.06,22.1-14.06,22.1,0,0-1.93-3.49-3.9-9.87l-.03-.16c2.82-8.43,3.34-17,1.47-25.23-1.18-5.21-3.44-11.24-5.6-16.36l.03-.21Z"/>
      <path class="cls-38" d="m360,381.78c2.31,9.29,4.87,15.8,4.87,15.8,0,0,8.04-7.59,14.95-19.42,6.92-11.83,9.15-24.33,6.47-36.16-2.68-11.83-10.94-27.9-10.94-27.9,0,0-17.12,16.99-18.75,35.04-.07.8-.13,1.6-.17,2.4l-.04.6c1.23,3.93,2.5,8.98,3.11,14.4.64,5.81,1.13,10.16.35,14.57l.14.66Z"/>
      <path class="cls-30" d="m404.99,313.52c.87,4.24,2.06,11.17,1.96,17.15-.11,6.2-.51,13.85-2.76,21.23l-.24,1.04c6.82-14.14,6-27.6,1.54-38.85-.27-.68-.54-1.35-.81-2.02l.31,1.44Z"/>
      <path class="cls-30" d="m440.76,311.49c10.89-14.01,19.04-17.1,24.28-19.66,4.14-2.02,11.18-4.04,15.77-5.24l1.92-.51c-11.33,1.68-20.41,5-30.14,11.94-4.59,3.28-8.41,7.55-11.49,11.82l-.24.33c-.14.57-.29,1.14-.46,1.71l.35-.39Z"/>
      <path class="cls-37" d="m456.32,270.37c2-4.81,3.78-9.43,4.75-12.74,2.68-9.15,4.46-18.97.89-32.59-3.57-13.61-19.2-39.95-19.2-39.95,0,0-11.16,16.52-15.62,35.71-2.12,9.12-.87,19.46,1.69,29.11l.18.49c.27-.34.54-.68.81-1.03,0,0,5.32,12.28,8.64,25.88l.74,1.57c4.17,8.5,6.31,12.29,7.23,13.82l.2.39c2.29-5.6,4.9-11.75,6.4-14.65.73-1.41,1.75-3.3,3.01-5.44l.27-.57Z"/>
      <path class="cls-30" d="m448.28,287.53c3.15-5.83,7.72-14.23,10.56-19.3,4.69-8.37,10.55-12.39,15.4-15.9,2-1.45,4.06-2.73,5.79-3.73l1.62-.91c-2.23.87-4.45,1.81-6.51,2.8-10.71,5.13-18.97,19.87-22.1,25.89-1.3,2.51-3.42,7.45-5.46,12.36l.7-1.2Z"/>
      <path class="cls-10" d="m447.04,288.61c-.95-1.6-2.87-5.02-6.11-11.51-1.49-2.98-3.01-6.26-4.47-9.69l-.62-1.54c.92,2.95,1.83,6.13,2.63,9.38l.74,1.57c4.17,8.5,6.31,12.29,7.23,13.82l.2.39c.25-.61.5-1.23.76-1.85l-.35-.57Z"/>
      <path class="cls-10" d="m429.4,248.19c-.57-1.91-1.09-3.78-1.53-5.57-1.67-6.8-1.26-15.43-.71-20.95l.22-1.88c-.08.34-.16.68-.24,1.02-2.12,9.12-.87,19.46,1.69,29.11l.18.49c.27-.34.54-.68.81-1.03l-.42-1.18Z"/>
      <path class="cls-30" d="m458.61,263.94c2.68-9.29,3.79-18.59,3.91-24,.14-6.53-2.85-14.9-6.19-23.77-1.19-3.16-2.41-7.65-3.26-11l-.59-2.4c3.92,7.65,7.89,16.22,9.48,22.27,3.57,13.61,1.79,23.44-.89,32.59-.6,2.05-1.51,4.6-2.6,7.4l.14-1.08Z"/>
      <path class="cls-35" d="m458.95,265.17c.19-.03.38-.06.57-.09l.35-.08c4-5.7,9.25-11.63,15.27-14.52,3.69-1.77,7.85-3.37,11.73-4.72l.23-.39c1.5-2.51,2.75-5.2,3.66-8.06,3.55-11.1,4.24-36.38,4.24-36.38,0,0-14.73,7.14-24.77,15.4-3.38,2.78-6.08,5.26-8.25,7.72l-.22.23c.07.26.14.51.21.76,3.57,13.61,1.79,23.44-.89,32.59-.62,2.11-1.57,4.75-2.69,7.64l.57-.1Z"/>
      <path class="cls-14" d="m442.41,308.02c.94-2.19,1.77-4.28,2.51-6.26l.04-.1c-.95.25-1.91.51-2.91.76,0,0,2.1-5.34,4.55-11.34l.02-.06-.07-.13-.03.07c-1.34,3.26-2.84,6.6-4.47,9.99l-.03.07c-.07,3.07-.42,6.09-1.13,9.04l-.03.11.24-.33c.4-.56.82-1.13,1.25-1.69l.06-.14Z"/>
      <path class="cls-40" d="m444.93,301.76c-.74,1.98-1.58,4.07-2.51,6.26l-.06.14c.82-1.07,1.69-2.13,2.61-3.16l.03-.07c.49-1.23.95-2.42,1.37-3.58l.02-.07c-.47.13-.94.26-1.42.38l-.04.1Z"/>
      <path class="cls-30" d="m462.5,225.26c3.76-4.42,9.23-9.43,12.85-12.6l1-.89c-2.12,1.45-4.21,2.99-6.12,4.56-3.38,2.78-6.08,5.26-8.25,7.72l-.22.23c.07.26.14.51.21.76.06.22.12.45.17.67l.36-.45Z"/>
      <path class="cls-30" d="m428.89,157.33c.4,4.6,1.28,10.97,3.17,16.99,2.43,7.75,5.5,13.43,7.16,16.19l.12.22c-.25.45-.52.92-.79,1.42l-.08-.16c-9.51-16.45-10.13-25.67-9.69-35.91l.1,1.25Z"/>
      <path class="cls-10" d="m468.38,173.25c1.71,5.51,3.5,14.18,2.01,23.67-1.98,12.7-5.12,21.43-6.35,24.53l-.26.67c.57-.58,1.17-1.16,1.8-1.75l.06-.18c2.57-7.09,6.74-20.95,5.91-34.43-.31-4.97-1.71-9.76-3.73-14.2l.54,1.69Z"/>
      <path class="cls-14" d="m375.94,395.49c-4.31,3.43-9.03,6.92-14.02,10.4l-.3.21c-7.14,1.52-12.54,3.2-16.56,4.75l.83-.52c6.45-4.12,12.74-8.37,18.76-12.76l.17-.11c.03.08.05.12.05.12,0,0,.25-.24.71-.7l.13-.07c14.98-11.02,28.29-22.95,38.45-36.06,1.76-2.27,3.51-4.58,5.25-6.92l.17-.22c.11.44.16.67.16.67,2.62-2.06,13.6-14.99,21.93-26.61l.11-.16.53-.04c.11,0,.22,0,.33-.01l-.19.31c-1.17,2.02-2.42,4.08-3.74,6.19-1.55,2.47-3.05,4.83-4.52,7.11l-.29.47c-8.73,7.59-12.6,13.4-12.6,13.4,1.01.21,1.99.41,2.95.6l-.16.2c-3.88,5.23-8.09,10.37-13.15,15.92l-.35.36c-8.35,4.89-13.41,8.37-13.41,8.37,0,0,1.35.43,4.22,1.19l-.27.29c-1.2,1.19-2.44,2.41-3.73,3.65-.85.82-1.73,1.65-2.65,2.49l-.2.17c-6.76,2.22-12.1,4.26-12.1,4.26,1.27.98,2.51,1.93,3.74,2.83l-.26.22Z"/>
      <path class="cls-40" d="m400.95,371.66c5.06-5.55,9.26-10.7,13.15-15.92l.16-.2c.43.08.85.16,1.27.24l-.15.18c-3.4,4.59-7.05,9.12-11.3,13.91l-.22.27c-1.14.65-2.22,1.28-3.26,1.88l.35-.36Z"/>
      <path class="cls-40" d="m391.14,381.87c-1.2,1.19-2.44,2.41-3.73,3.65-.85.82-1.73,1.65-2.65,2.49l-.2.17c.79-.26,1.6-.52,2.42-.78l.23-.18c.45-.42.89-.84,1.32-1.26,1.37-1.33,2.7-2.63,3.97-3.9l.16-.17c-.44-.11-.86-.22-1.25-.32l-.27.29Z"/>
      <path class="cls-40" d="m361.92,405.89c4.98-3.48,9.7-6.97,14.02-10.4l.26-.22c.3.22.61.45.91.67l-.23.13c-3.83,3.04-7.98,6.13-12.34,9.21l-.47.31s-.06.01-.09.02c-.81.16-1.59.32-2.36.48l.3-.21Z"/>
      <path class="cls-40" d="m424.18,341.07c1.47-2.28,2.97-4.64,4.52-7.11,1.32-2.11,2.57-4.17,3.74-6.19l.19-.31c.48-.02.95-.04,1.42-.05l-.12.15c-1.05,1.82-2.16,3.68-3.33,5.58-.26.42-3.75,5.92-3.75,5.92-1.05.85-2.04,1.68-2.98,2.5l.29-.47Z"/>
      <path class="cls-40" d="m338.57,421.02c-4.19,2.53-8.39,4.99-12.55,7.35l-.49.29c1.56-.6,3.32-1.25,5.19-1.89l.13-.08c2.78-1.6,5.57-3.25,8.35-4.93l.22-.09c-.24-.25-.48-.5-.71-.75l-.14.1Z"/>
      <path class="cls-14" d="m276.24,453.33c16.5,6.46,29.71,10.75,29.71,10.75l4.69-4.24s-11.53-3.29-27.56-9.28l-.27-.12c-2.31.95-4.6,1.87-6.83,2.75l.26.14Z"/>
      <path class="cls-14" d="m273.52,446.88c-12.25-4.9-26.06-11.06-39-18.28-1.03-.58-2.06-1.15-3.09-1.74l-.18-.11c-.09,3.37-.29,4.74-.29,4.74-2.72-1.86-10.5-7.13-16.67-13.99l-.2-.22-.12.16c-1.02,1.23-2.04,2.38-3.05,3.47l.14.1c4.19,2.53,8.39,4.99,12.55,7.35l.49.29c4.1,1.58,6.87,2.84,6.87,2.84-.28.16-.55.32-.82.48l.14.1c4.61,2.51,9.11,4.87,13.4,7.01,7.38,3.69,15.33,7.21,23,10.39l.27.1c2.19-.82,4.45-1.69,6.78-2.61l-.22-.09Z"/>
      <path class="cls-40" d="m93.37,153.58L0,0v3.21l92.25,151.74.26.35c.37-.43.74-.85,1.11-1.25l-.25-.48Z"/>
      <path class="cls-40" d="m456,154.06c.37.41.74.82,1.11,1.25l.25-.34L549.62,3.21V0l-93.24,153.37-.37.68Z"/>
      <path class="cls-40" d="m435.46,187.78l-156.11,256.79-.07.17c-1.5.61-2.97,1.21-4.43,1.79l-.16-.03c-1.42-.56-2.86-1.15-4.32-1.74l-.1-.19L114.16,187.79l-.35-.66c-.31.6-.63,1.2-.96,1.82l.27.32,155.23,255.33.08.2c1.72.71,3.42,1.41,5.1,2.07l.22.09c-2.33.92-4.59,1.79-6.78,2.61l-.3-.11c-7.66-3.18-15.61-6.7-22.98-10.38-4.29-2.14-8.79-4.5-13.4-7.01l-.14-.1c-.32.18-.63.37-.94.55l.22.13c4.52,2.46,8.94,4.77,13.15,6.88,7.39,3.69,15.36,7.23,23.04,10.41l.18.08,1.04.45c4.48-1.68,9.32-3.56,14.34-5.65l.11-.21,155.14-255.2.35-.46c-.33-.62-.65-1.22-.96-1.82l-.35.65Z"/>
      <polygon class="cls-42" points="1.2 1.97 0 0 549.62 0 548.4 1.99 548.14 2.01 1.5 2.01 1.2 1.97"/>
      <path class="cls-14" d="m61.49,83.09c11.59,19.07,24.76,40.73,38.73,63.71l.26.38c-1.39,1.3-2.71,2.57-3.89,3.75-.95.95-1.95,1.99-2.97,3.12l-.24-.45L1.2,1.97l.8.04h546.4s-92.03,151.37-92.03,151.37l-.37.68c-1.02-1.13-2.02-2.17-2.96-3.12-1.18-1.18-2.51-2.45-3.89-3.75l.19-.28c13.98-23,27.16-44.68,38.77-63.77l-.76-.05H61.49Z"/>
      <path class="cls-14" d="m189.21,293.19c-22.56-37.11-47.1-77.48-70.43-115.85l-.45-.7c-1.06,3.17-2.52,6.62-4.52,10.49l.25.49,156.21,256.95.1.19c1.46.6,2.9,1.18,4.32,1.74l.16.03c1.45-.58,2.93-1.17,4.43-1.79l.07-.17,156.02-256.63.45-.82c-2-3.87-3.46-7.32-4.52-10.49l-.31.46c-23.71,39-48.68,80.08-71.56,117.7l.8-1.98c4.27-10.61,6.61-22.19,6.61-34.32,0-50.82-41.2-92.03-92.03-92.03s-92.03,41.2-92.03,92.03c0,12.93,2.67,25.24,7.48,36.41l-1.06-1.72Z"/>
      <path class="cls-40" d="m17.89,11.38c-.49-.81-.9-1.48-1.22-2h516.28c-.32.52-.72,1.19-1.21,1.99h-.19s-513.42,0-513.42,0h-.24Z"/>
      <path class="cls-42" d="m492.72,75.27H56.73c.36.59.72,1.19,1.09,1.79l.11.22h433.02l.74-.05c.4-.66.79-1.31,1.19-1.96h-.16Z"/>
      <path class="cls-21" d="m492.72,75.27H56.73C37.33,43.36,23.02,19.83,17.89,11.38h.24s513.42-.01,513.42-.01h.19c-5.13,8.44-19.44,31.97-38.85,63.91h-.16Z"/>
      <path class="cls-14" d="m90.29,54.19c-3.68,3.63-8.14,5.07-13.08,5.07-12.8,0-17.78-8.05-17.82-16.89-.05-8.38,5.58-17.27,17.82-17.27,4.7,0,8.93,1.63,12.61,5.21l-5.68,5.58c-2.33-2.23-4.75-2.84-6.93-2.84-6.28,0-8.75,5.12-8.7,9.35.05,4.24,2.28,9.03,8.7,9.03,2.19,0,5.35-.93,7.68-3.3l5.4,6.05Z"/>
      <path class="cls-14" d="m103.28,25.85v24.76h15.59v7.82h-24.8V25.85h9.21Z"/>
      <path class="cls-14" d="m152.79,25.89v18.2c.05,9.63-5.82,15.03-15.36,15.03s-15.36-5.17-15.36-15.12v-18.1h9.17v18.1c0,5.12,2.47,7.26,6.19,7.26s6.19-2.23,6.19-7.17v-18.2h9.17Z"/>
      <path class="cls-14" d="m175.6,25.85c6.51,0,11.82,2.89,11.82,9.12,0,2.47-.74,5.03-3.58,6.33,3.03,1.63,4.51,4.65,4.51,7.59,0,7.31-6.65,9.49-12.61,9.54h-16.8V25.85h16.66Zm-7.59,12.43h7.35c1.91,0,2.93-.98,2.93-2.42s-1.02-2.56-2.84-2.56h-7.45v4.98Zm0,12.98h7.77c2.33,0,3.44-1.26,3.44-3.07s-1.16-3.12-3.44-3.12h-7.77v6.19Z"/>
      <path class="cls-14" d="m217.85,25.85c11.5,0,17.03,7.07,17.03,16.06s-5.35,16.52-17.03,16.52h-13.96V25.85h13.96Zm-4.84,24.8h4.84c5.86,0,7.91-4.37,7.91-8.84s-2.28-8.28-7.91-8.28h-4.84v17.13Z"/>
      <path class="cls-14" d="m265.83,58.42h-26.06V25.85h25.41v7.73h-16.33v4.65h15.4v7.49h-15.4v4.93h16.99v7.77Z"/>
      <path class="cls-14" d="m280.26,49.63v8.8h-9.21V25.85h15.82c8.75,0,13.08,5.49,13.08,11.87s-4.38,11.82-13.08,11.91h-6.61Zm0-7.77h6.61c2.56,0,3.86-1.86,3.86-4s-1.35-4.1-3.86-4.1h-6.61v8.1Z"/>
      <path class="cls-14" d="m320.33,59.21c-10.66,0-18.1-6.19-18.1-17.08s7.45-17.08,18.1-17.08,18.1,6.24,18.1,17.08-7.4,17.08-18.1,17.08Zm0-26.29c-5.26,0-8.89,3.82-8.89,9.21s3.68,9.21,8.89,9.21,8.89-3.82,8.89-9.21-3.49-9.21-8.89-9.21Z"/>
      <path class="cls-14" d="m373.38,58.42h-10.15l-7.59-10.56h-3.21v10.56h-9.21V25.85h15.92c8.33,0,12.66,5.35,12.66,11.22,0,4-1.4,7.4-6.89,9.82l8.47,10.98v.56Zm-20.94-25.22v7.82h6.79c2.42,0,3.49-1.81,3.49-3.77s-1.16-4.05-3.58-4.05h-6.7Z"/>
      <path class="cls-14" d="m383.9,33.43h-9.49v-7.59h28.2v7.59h-9.54v24.99h-9.17v-24.99Z"/>
      <path class="cls-14" d="m406.61,58.42V25.85h9.17v32.58h-9.17Z"/>
      <path class="cls-14" d="m441,58.56h-8.98l-13.54-32.72h10.19l3.72,9.77,4.1,12.05,4.14-12.05,3.72-9.77h10.19l-13.54,32.72Z"/>
      <path class="cls-14" d="m472.55,59.21c-10.66,0-18.1-6.19-18.1-17.08s7.45-17.08,18.1-17.08,18.1,6.24,18.1,17.08-7.4,17.08-18.1,17.08Zm0-26.29c-5.26,0-8.89,3.82-8.89,9.21s3.68,9.21,8.89,9.21,8.89-3.82,8.89-9.21-3.49-9.21-8.89-9.21Z"/>
      <path class="cls-40" d="m62.69,85.08c-.4-.66-.81-1.33-1.21-1.99h.42s425.45,0,425.45,0l.76.05c-.4.66-.8,1.31-1.2,1.97h-.25s-423.84-.01-423.84-.01h-.13Z"/>
      <path class="cls-21" d="m182.78,258.5c0,12.93,2.67,25.24,7.48,36.41l-1.06-1.72c-22.56-37.11-47.1-77.48-70.43-115.85l-.45-.7c3.02-9.03,2.78-15.76,2.36-23.47-.67-12.28-4.02-20.31-4.02-20.31,0,0-8.96,7.55-16.2,14.33l-.26-.38c-13.49-22.19-26.23-43.14-37.52-61.72h.13s423.84.01,423.84.01h.25c-11.31,18.61-24.06,39.6-37.57,61.81l-.19.28c-7.24-6.78-16.19-14.33-16.19-14.33,0,0-3.35,8.04-4.02,20.31-.42,7.7-.67,14.44,2.36,23.47l-.31.46c-23.71,39-48.68,80.08-71.56,117.7l.8-1.98c4.27-10.61,6.61-22.19,6.61-34.32v-1.9c0-50.82-41.2-92.03-92.03-92.03s-92.03,41.2-92.03,92.03v1.9Z"/>
      <path class="cls-42" d="m182.78,256.6c0-50.82,41.2-92.03,92.03-92.03s92.03,41.2,92.03,92.03v1.9c0-50.82-41.2-92.03-92.03-92.03s-92.03,41.2-92.03,92.03v-1.9Z"/>
      <path class="cls-14" d="m181.84,157.77c-5.5,5.43-12.19,7.59-19.57,7.59-19.15,0-26.6-12.05-26.67-25.28-.07-12.53,8.36-25.84,26.67-25.84,7.03,0,13.37,2.44,18.87,7.8l-8.5,8.36c-3.48-3.34-7.1-4.25-10.38-4.25-9.4,0-13.09,7.66-13.02,14,.07,6.34,3.41,13.51,13.02,13.51,3.27,0,8.01-1.39,11.49-4.94l8.08,9.05Z"/>
      <path class="cls-14" d="m388.79,115.36c17.2,0,25.49,10.58,25.49,24.03s-8.01,24.72-25.49,24.72h-20.89v-48.75h20.89Zm-7.24,37.12h7.24c8.77,0,11.84-6.55,11.84-13.23s-3.41-12.4-11.84-12.4h-7.24v25.63Z"/>
      <path class="cls-21" d="m208.57,324.28c16.74,17.35,40.23,28.15,66.24,28.15s50.22-11.12,67-28.94l.57-.65c-35.37,58.18-62.81,103.32-67.58,111.16-4.76-7.83-32.16-52.9-67.48-110.99l1.23,1.28Z"/>
      <path class="cls-14" d="m270.37,355.95v32.06h20.19v10.12h-32.12v-42.19h11.93Z"/>
      <path class="cls-40" d="m207.33,323c-.85-1.39-1.7-2.79-2.55-4.2l-1.33-2.18c16.87,20.7,42.57,33.91,71.36,33.91s52.6-12.27,69.47-31.67l2-2.43c-1.31,2.15-2.61,4.29-3.89,6.4l-.57.65c-16.78,17.82-40.59,28.94-67,28.94s-49.51-10.79-66.24-28.15l-1.23-1.28Z"/>
      <circle class="cls-21" cx="274.81" cy="258.5" r="78.81" transform="translate(-11.11 504.66) rotate(-83.98)"/>
      <path class="cls-36" d="m322.69,196.39v124.29l-.02.43c-8.59,6.58-18.58,11.43-29.44,14.03v-153.28c10.87,2.6,20.86,7.45,29.45,14.03v.5Z"/>
      <path class="cls-36" d="m256.39,334.58v-151.92l-.03-.8c-10.87,2.6-20.86,7.46-29.45,14.05l.02.73v124.46c8.6,6.58,18.58,11.44,29.45,14.04v-.56Z"/>
      <path class="cls-40" d="m259.74,183.11v-1.98c4.88-.94,9.91-1.44,15.07-1.44s10.2.5,15.08,1.44v.35s-.01,1.62-.01,1.62l-.37-.15c-4.76-.9-9.67-1.37-14.69-1.37s-9.9.47-14.65,1.36l-.42.16Z"/>
      <path class="cls-40" d="m196.36,252.85c1.97-20.78,12.01-39.2,26.95-52.11l.27-.28v-1.39l-.05-.41c-16.85,14.45-27.53,35.9-27.53,59.84l.36-5.65Z"/>
      <path class="cls-40" d="m353.41,252.8c-1.55-21.66-11.85-40.89-27.38-54.19v.14s0,1.78,0,1.78l.13.09c15.91,13.68,26.29,33.59,27.36,55.95l-.11-3.77Z"/>
      <path class="cls-42" d="m353.32,263.51c-1.83,21.03-11.91,39.69-26.99,52.73l-.29.28v1.4l.02.46c16.87-14.45,27.56-35.91,27.56-59.87l-.3,5.01Z"/>
      <path class="cls-42" d="m196.52,265.69c2.31,20.13,12.2,37.95,26.75,50.53l.31.3v1.88c-16.88-14.45-27.58-35.92-27.58-59.9l.52,7.19Z"/>
      <path class="cls-42" d="m260.04,334.03c4.78.91,9.72,1.38,14.76,1.38s9.99-.48,14.78-1.38l.29.03v1.56l-.02.26c-4.87.94-9.9,1.44-15.05,1.44s-10.2-.5-15.08-1.44v-.31s.01-1.56.01-1.56l.3.03Z"/>
      <path class="cls-27" d="m322.69,320.8v-124.91c1.13.87,2.25,1.78,3.34,2.72v.29s0,119.19,0,119.19l.02.29c-1.1.94-2.23,1.86-3.39,2.74l.02-.31Z"/>
      <path class="cls-27" d="m226.93,196.18v124.93c-1.14-.87-2.25-1.78-3.34-2.71v-.39s0-119.15,0-119.15l-.05-.2c1.1-.94,2.23-1.86,3.38-2.74l.02.26Z"/>
      <path class="cls-5" d="m259.74,181.36v154.5c-1.14-.22-2.25-.46-3.36-.73v-.31s.01-152.71.01-152.71l-.03-.25c1.12-.27,2.24-.51,3.38-.73v.23Z"/>
      <path class="cls-5" d="m293.22,182.07v153.07c-1.11.27-2.23.51-3.37.73l.02-.38v-154.36c1.13.22,2.25.46,3.35.72v.21Z"/>
      <path class="cls-40" d="m322.02,176.9c-13.93-7.91-30.04-12.43-47.21-12.43h0,0,0c-17.17,0-33.28,4.52-47.21,12.43l-.75-1.47c14.1-8.18,30.48-12.86,47.95-12.86h0c17.47,0,33.85,4.68,47.95,12.86l-.75,1.47Z"/>
      <path class="cls-14" d="m274.81,162.57c-17.47,0-33.85,4.68-47.95,12.86l-30-57.71s10.55-7.2,11.89,4.19c0,0,3.61-4.65,7.53-.34,3.35,3.68,1.84,18.75,1.84,18.75h11.89s3.35-7.37,6.53-18.41c0,0,7.7,9.54,18.92,9.71,11.22.17,14.73-2.68,14.56-6.53-.17-3.85-3.68-4.85-9.54-6.86-5.86-2.01-8.37-4.19-4.85-8.37,3.52-4.18,10.04-9.04,12.39-9.88,1.7-.61,3.85-.33,3.85-.33v-4.18h-3.61v-2.85h3.61v-4.19h5.92v4.19h3.61v2.85h-3.61v4.18s2.15-.27,3.85.33c2.34.84,8.87,5.69,12.39,9.88,3.52,4.19,1,6.36-4.85,8.37-5.86,2.01-9.37,3.01-9.54,6.86-.17,3.85,3.35,6.7,14.56,6.53,11.22-.17,18.92-9.71,18.92-9.71,3.18,11.05,6.53,18.41,6.53,18.41h11.89s-1.51-15.07,1.84-18.75c3.92-4.31,7.53.34,7.53.34,1.34-11.38,11.89-4.19,11.89-4.19l-30,57.71c-14.1-8.18-30.48-12.86-47.95-12.86h0Z"/>
      <path class="cls-36" d="m278.32,144.14c0,1.94-1.57,3.51-3.51,3.51s-3.51-1.57-3.51-3.51,1.57-3.51,3.51-3.51,3.51,1.57,3.51,3.51Z"/>
      <path class="cls-9" d="m284.25,111.26c0,3.66-4.23,6.62-9.44,6.62s-9.44-2.96-9.44-6.62,4.23-6.62,9.44-6.62,9.44,2.96,9.44,6.62Z"/>
      <path class="cls-8" d="m251.14,145.99h9.27c1.36,0,2.47,1.11,2.47,2.47v.91c0,1.36-1.11,2.47-2.47,2.47h-9.27c-1.36,0-2.47-1.11-2.47-2.47v-.91c0-1.36,1.11-2.47,2.47-2.47Z" transform="translate(-30.64 74.34) rotate(-15.62)"/>
      <polygon class="cls-9" points="243.65 152.16 237.18 160.97 226.27 160.15 232.75 151.34 243.65 152.16"/>
      <path class="cls-8" d="m293.39,141.81h.91c1.36,0,2.47,1.11,2.47,2.47v9.27c0,1.36-1.11,2.47-2.47,2.47h-.91c-1.36,0-2.47-1.11-2.47-2.47v-9.26c0-1.36,1.11-2.47,2.47-2.47Z" transform="translate(71.34 391.83) rotate(-74.39)"/>
      <polygon class="cls-9" points="305.97 152.16 312.44 160.97 323.35 160.15 316.87 151.34 305.97 152.16"/>
      <polygon class="cls-42" points="271.85 90.22 271.85 92.6 268.24 92.6 268.24 90.08 271.85 90.08 271.85 90.22"/>
      <path class="cls-40" d="m236.31,118.94s-3.35,11.27-6.92,19.31h-10.6l-.51.03c-.08,1.25-.16,2.03-.16,2.03h11.89s3.35-7.37,6.53-18.41l-.22-2.96Z"/>
      <path class="cls-40" d="m205.66,113.25c.19.58.46,1.6.51,3.01l.02.09c1.24.9,2.2,2.61,2.55,5.55l.56-2.85c-.52-1.75-1.53-4.73-3.66-5.89l.02.08Z"/>
      <path class="cls-42" d="m205.66,113.25c.19.58.46,1.6.51,3.01l.02.09c-3.54-2.59-9.34,1.37-9.34,1.37h0s3.18-4.91,6.75-5.02c.77-.02,1.45.16,2.03.47l.02.08Z"/>
      <path class="cls-42" d="m208.74,121.9s3.61-4.65,7.53-.34c1.47,1.62,2,5.42,2.14,9.19v-2.12c-.2-8.16-2.47-10.94-4.65-11.7-2.57-.89-4.46,2.12-4.46,2.12l-.56,2.85Z"/>
      <path class="cls-42" d="m236.53,121.9s7.7,9.54,18.92,9.71c11.22.17,14.73-2.68,14.56-6.53-.03-.62-.14-1.16-.33-1.65l-.11.66c-.41,1.27-2.08,2.61-3.35,3.33-1.79,1-6.92,2.57-13.84,1.12-6.92-1.45-13.17-5.91-16.07-9.6l.22,2.96Z"/>
      <path class="cls-42" d="m269.62,99.45v-2.67c-1.68.21-3.23,1.03-7.09,3.97-4.24,3.24-9.71,7.59-9.6,11.05.11,3.46.78,4.58,5.69,6.36,4.49,1.63,8.7,2.71,10.33,4.07l-.12-.13c-1.51-1.63-4.4-2.53-8.36-3.89-5.86-2.01-8.37-4.19-4.85-8.37,3.52-4.18,10.04-9.04,12.39-9.88.53-.19,1.1-.29,1.64-.35l-.03-.18Z"/>
      <path class="cls-40" d="m269.62,99.45v-2.67c.16-.02.33-.04.5-.05v-1.28h1.73v4.18s-1.02-.13-2.21-.01l-.03-.18Z"/>
      <polygon class="cls-42" points="277.77 90.22 277.77 92.6 281.38 92.6 281.38 90.08 277.77 90.08 277.77 90.22"/>
      <path class="cls-40" d="m313.31,118.94s3.35,11.27,6.92,19.31h10.6l.51.03c.08,1.25.16,2.03.16,2.03h-11.89s-3.35-7.37-6.53-18.41l.22-2.96Z"/>
      <path class="cls-40" d="m343.95,113.25c-.19.58-.45,1.6-.51,3.01l-.02.09c-1.24.9-2.2,2.61-2.55,5.55l-.56-2.85c.52-1.75,1.53-4.73,3.66-5.89l-.02.08Z"/>
      <path class="cls-42" d="m343.95,113.25c-.19.58-.45,1.6-.51,3.01l-.02.09c3.54-2.59,9.34,1.37,9.34,1.37h0s-3.18-4.91-6.75-5.02c-.77-.02-1.45.16-2.03.47l-.02.08Z"/>
      <path class="cls-42" d="m340.88,121.9s-3.61-4.65-7.53-.34c-1.47,1.62-2,5.42-2.14,9.19v-2.12c.2-8.16,2.47-10.94,4.65-11.7,2.57-.89,4.46,2.12,4.46,2.12l.56,2.85Z"/>
      <path class="cls-42" d="m313.09,121.9s-7.7,9.54-18.92,9.71c-11.22.17-14.73-2.68-14.56-6.53.03-.62.14-1.16.33-1.65l.11.66c.41,1.27,2.08,2.61,3.35,3.33,1.79,1,6.92,2.57,13.84,1.12,6.92-1.45,13.17-5.91,16.07-9.6l-.22,2.96Z"/>
      <path class="cls-42" d="m280,99.45v-2.67c1.68.21,3.23,1.03,7.09,3.97,4.24,3.24,9.71,7.59,9.6,11.05-.11,3.46-.78,4.58-5.69,6.36-4.49,1.63-8.7,2.71-10.33,4.07l.12-.13c1.51-1.63,4.4-2.53,8.36-3.89,5.86-2.01,8.37-4.19,4.85-8.37-3.52-4.18-10.04-9.04-12.39-9.88-.53-.19-1.11-.29-1.65-.35l.03-.18Z"/>
      <path class="cls-40" d="m280,99.45v-2.67c-.17-.02-.33-.04-.5-.05v-1.28h-1.73v4.18s1.02-.13,2.2-.01l.03-.18Z"/>
      <path class="cls-15" d="m116.6,410.39c3.67,2.21,7.56,3.79,11.26,4.92l.16.03c1.2-.77,2.54-1.6,4.01-2.44l.28-.16h-.58c-1.93-.02-3.83-.17-5.69-.44-3.09-.45-6.47-1.22-9.86-2.15l.41.23Z"/>
      <path class="cls-15" d="m129.39,428.82c.86,1.17,1.66,2.22,2.45,3.18l.12-.07c.74-.49,2.97-1.91,5.82-3.13l.24-.1c-1.69-.73-3.31-1.46-4.81-2.18l-.28.17c-1.75.94-2.98,1.75-3.39,2.03l-.15.1Z"/>
      <path class="cls-15" d="m202.16,455.37v-12.76l.03-.17c-.23,0-.46,0-.7,0-1.07,0-2.18-.07-3.32-.2l-.03.22v11.98l-.02.28c1.36.29,2.71.58,4.04.85v-.21Z"/>
      <path class="cls-15" d="m120.25,494.85c-6.42-2.26-28.61-9.93-71.21-23.39l40.62-30.58-21.43-71.42s17.91,14.08,33.07,25.32l.31.21c-1.35.93-2.51,1.74-3.51,2.46l-.24-.21c-7.71-5.73-15.95-12.05-22.17-16.86,5,16.67,18.61,62.04,18.61,62.04,0,0-27.71,20.86-36.63,27.58,36.67,11.66,56.78,18.59,63.43,20.92h.13c-.26,1.39-.52,2.74-.77,4.04l-.22-.09Z"/>
      <path class="cls-15" d="m433.01,410.39c-3.67,2.21-7.56,3.79-11.26,4.92l-.16.03c-1.2-.77-2.54-1.6-4.01-2.44l-.28-.16h.58c1.93-.02,3.83-.17,5.69-.44,3.09-.45,6.47-1.22,9.85-2.15l-.41.23Z"/>
      <path class="cls-15" d="m420.23,428.82c-.86,1.17-1.66,2.22-2.45,3.18l-.12-.07c-.74-.49-2.97-1.91-5.82-3.13l-.24-.1c1.69-.73,3.31-1.46,4.81-2.18l.28.17c1.75.94,2.98,1.75,3.39,2.03l.15.1Z"/>
      <path class="cls-15" d="m347.46,455.37v-12.76l-.03-.17c.23,0,.46,0,.7,0,1.07,0,2.18-.07,3.32-.2l.03.22v11.98l.02.28c-1.36.29-2.71.58-4.03.85v-.21Z"/>
      <path class="cls-15" d="m429.37,494.85c6.42-2.26,28.6-9.93,71.2-23.39l-40.62-30.58,21.43-71.42s-17.91,14.08-33.07,25.32l-.31.21c1.35.93,2.51,1.74,3.51,2.46l.24-.21c7.71-5.73,15.95-12.05,22.17-16.86-5,16.67-18.61,62.04-18.61,62.04,0,0,27.71,20.86,36.63,27.58-36.67,11.66-56.78,18.59-63.43,20.92h-.13c.26,1.39.52,2.74.77,4.04l.22-.09Z"/>
      <path class="cls-15" d="m170.9,470.86l-6.05,24.01,15.12,3.81-1.91,7.58-24.05-6.06,7.96-31.59,8.94,2.25Z"/>
      <path class="cls-15" d="m211.19,512.18l-25.68-4.41,5.52-32.11,25.04,4.3-1.31,7.61-16.1-2.77-.79,4.59,15.18,2.61-1.27,7.38-15.18-2.61-.84,4.86,16.74,2.88-1.32,7.66Z"/>
      <path class="cls-15" d="m245.05,492.53c-2.17-2.44-4.99-3.29-7.16-3.49-5.28-.47-9,2.38-9.56,8.73-.37,4.17,1.35,9.51,7.88,10.09,1.72.15,4.43.07,6.41-1.11l.37-4.17-8.2-.73.64-7.18,15.85,1.41-1.28,14.42c-2.41,3.94-8.26,5.66-14.52,5.11-12.84-1.14-16.94-10.15-16.19-18.64.76-8.48,7.1-16.7,19.29-15.61,4.5.4,8.4,1.68,12.28,6.37l-5.8,4.81Z"/>
      <path class="cls-15" d="m280.48,511.05l-14.57-.05-2.16,5.34-9.77-.03,14.72-32.53,9.31.03,14.46,32.62-9.87-.03-2.12-5.36Zm-7.2-18.13l-4.22,10.36,8.33.03-4.11-10.39Z"/>
      <path class="cls-15" d="m319.14,499.47c-.56-3.87-.69-5.36-.84-6.61l-.95-11.13,9.23-.79,2.77,32.46-7.79.67-15.03-16.32.75,7.08.89,10.39-9.27.79-2.77-32.46,7.79-.67,15.24,16.59Z"/>
      <path class="cls-15" d="m365.25,507.58l-25.69,4.4-5.5-32.11,25.04-4.29,1.3,7.61-16.1,2.76.79,4.59,15.18-2.6,1.26,7.38-15.18,2.6.83,4.86,16.74-2.87,1.31,7.66Zm-11.84-41.32l-8.85,1.52-2.27,7.99.05.28,7.38-1.26,3.75-8.15-.06-.37Z"/>
      <path class="cls-15" d="m387.5,477.94c-2.58-1.07-5.2-.98-7.95-.29-2.16.55-4.11,1.77-3.69,3.43.55,2.17,2.75,1.94,5.94,1.47,6.44-.92,13.62-.05,15.47,7.21,1.82,7.17-4.16,11.96-11.24,13.8-5.67,1.49-9.98,1.53-15.53-1.96l3.48-6.89c3.88,2.23,7.49,1.89,10.15,1.21,2.93-.74,4.7-2.3,4.25-4.06-.4-1.58-2.46-2.11-6.01-1.55-7.06,1.12-13.46.87-15.46-6.97-1.69-6.68,4.11-11.22,10.79-12.92,4.74-1.2,8.71-1.06,12.77.74l-2.99,6.76Z"/>
      <path class="cls-14" d="m170.9,469.34l-6.05,24.01,15.12,3.81-1.91,7.58-24.05-6.06,7.96-31.59,8.94,2.25Z"/>
      <path class="cls-14" d="m211.19,510.66l-25.68-4.41,5.52-32.11,25.04,4.3-1.31,7.61-16.1-2.77-.79,4.59,15.18,2.61-1.27,7.38-15.18-2.61-.84,4.86,16.74,2.88-1.32,7.66Z"/>
      <path class="cls-14" d="m245.05,491.01c-2.17-2.44-4.99-3.29-7.16-3.49-5.28-.47-9,2.38-9.56,8.73-.37,4.17,1.35,9.51,7.88,10.09,1.72.15,4.43.07,6.41-1.11l.37-4.17-8.2-.73.64-7.18,15.85,1.41-1.28,14.42c-2.41,3.94-8.26,5.67-14.52,5.11-12.84-1.14-16.94-10.15-16.19-18.64.76-8.48,7.1-16.7,19.29-15.62,4.5.4,8.4,1.68,12.28,6.37l-5.8,4.81Z"/>
      <path class="cls-14" d="m280.48,509.53l-14.57-.05-2.16,5.34-9.77-.03,14.72-32.53,9.31.03,14.46,32.62-9.87-.03-2.12-5.36Zm-7.2-18.13l-4.22,10.36,8.33.03-4.11-10.39Z"/>
      <path class="cls-14" d="m319.14,497.96c-.56-3.87-.69-5.36-.84-6.61l-.95-11.13,9.23-.79,2.77,32.46-7.79.67-15.03-16.32.75,7.08.89,10.39-9.27.79-2.77-32.46,7.79-.67,15.24,16.59Z"/>
      <path class="cls-14" d="m365.25,506.06l-25.69,4.4-5.5-32.11,25.04-4.29,1.3,7.61-16.1,2.76.79,4.59,15.18-2.6,1.26,7.38-15.18,2.6.83,4.86,16.74-2.87,1.31,7.66Zm-11.84-41.32l-8.85,1.52-2.27,7.99.05.28,7.38-1.26,3.75-8.15-.06-.37Z"/>
      <path class="cls-14" d="m387.5,476.42c-2.58-1.07-5.2-.98-7.95-.29-2.16.55-4.11,1.77-3.69,3.43.55,2.16,2.75,1.94,5.94,1.47,6.44-.92,13.62-.05,15.47,7.21,1.82,7.17-4.16,11.96-11.24,13.8-5.67,1.49-9.98,1.53-15.53-1.96l3.48-6.89c3.88,2.23,7.49,1.89,10.15,1.21,2.93-.74,4.7-2.3,4.25-4.06-.4-1.58-2.46-2.11-6.01-1.55-7.06,1.12-13.46.87-15.46-6.97-1.69-6.68,4.11-11.22,10.79-12.92,4.74-1.2,8.71-1.06,12.77.74l-2.99,6.76Z"/>
    </g>
  </g>
</svg>