<?xml version="1.0" encoding="UTF-8"?>
<svg id="Livello_2" data-name="Livello 2" xmlns="http://www.w3.org/2000/svg" viewBox="0 0 399.01 388.97">
  <defs>
    <style>
      .cls-1 {
        fill: #fff;
        stroke: #0053a0;
        stroke-miterlimit: 1.9;
        stroke-width: 10.04px;
      }

      .cls-2 {
        fill: #fdbe11;
      }

      .cls-2, .cls-3 {
        fill-rule: evenodd;
        stroke-width: 0px;
      }

      .cls-3 {
        fill: #0053a0;
      }
    </style>
  </defs>
  <g id="svg2">
    <path id="ellipse-big" class="cls-1" d="m393.99,189.46c0,107.42-87.07,194.49-194.48,194.49S5.02,296.88,5.02,189.46,92.09-5.02,199.51-5.02c107.41,0,194.48,87.07,194.48,194.48h0Z"/>
    <path id="ellipse-small" class="cls-3" d="m19.66,191.76C18.41,92.46,97.91,10.91,197.22,9.65c99.3-1.26,180.85,78.26,182.11,177.56,1.25,99.3-78.26,180.85-177.56,182.1-99.3,1.26-180.85-78.25-182.11-177.55h0,0ZM197.19,7.41C96.65,8.68,16.15,91.25,17.42,191.79c1.27,100.54,83.84,181.04,184.38,179.77,100.54-1.27,181.04-83.84,179.77-184.38-1.27-100.54-83.84-181.05-184.38-179.77h0Z"/>
    <path id="kinda-ellipse" class="cls-3" d="m192.9,69.95c-22.08-.05-47.73,8.7-64.97,22.97-.06.04-.06.19.06.25,9.86,3.91,16.62,9.1,27.16,15,.38.21.51.12.59-.22,5.1-25.89,36.71-18.71,39.66-37.59-.13-.13-.11-.36-.38-.38-.7-.02-1.41-.03-2.12-.03h0Zm13.15.03c-.22,0-.29.09-.28.44-1.33,3.33,2.57,6.79,4.84,9.03.22.2.58.44.85.56,14.11,5.74,29.73,9.99,33.15,26.22.07.25.12.41.38.19,7.52-4.99,14.98-10.05,22.59-14.85.39-.16.25-.34,0-.5-17.2-12.23-38.69-20.19-61.53-21.09h0Zm-88,31.16c-13.76,12.2-25.57,28.16-31.72,46.09-.07.18.04.26.28.28,13.46,1.22,17.86-16.34,28.18-22.87.14-.08.26-.15.25-.32-.73-8-1.08-14.74,3-23.18Zm166.1,3.84c.76,6.21.18,12.1-1.47,17.84-.07.27-.06.48.25.69,9.95,5.32,15.34,20.86,26.84,21.47.14.06.36.07.28-.12-3.99-13.87-15.47-30.28-25.9-39.88Zm29.59,48.97c-14.11,14.15,8.79,37.86-22.28,51.09-2.74.81-5.37,1.77-7.85,1.78-6.91.03-16.74-5.24-16.68,5.25,0,.19.17.32.4.41,9.6,4.11,22.57,13.02,22.78,26.75.47,16.37-16.76,27.39-14.03,42.94,36.82-31.84,51.96-78.85,37.66-128.22Zm-230.16,2.34c-.12.03-.21.16-.31.41-13.94,38.1-.24,97.33,42.53,128.62,0-.81.48-2.49.97-3.62.18-.44.15-1,0-1.53-1.57-6.89-5.68-13.84-9.59-20.6-13.49-22.39-6-37.75,15.78-47.71.28-.09.34-.25.19-.54-.34-.74-.67-1.47-1-2.22-.1-.2,0-.6-.5-.53-4.88.61-10.38,1.04-15.35.82-7.48-1.67-14.62-4.65-20-12.57-9.63-13.44,3.56-31.52-12.34-40.43-.13-.08-.26-.13-.37-.1h0Zm201.63,55.07c.36,0,.73.05,1.09.15,4.83.88,12.13,3.72,16.47,9.09.28.35.15.64-.28.6-6.97-.21-14.8-.98-20.22-5.25-.77-.61-1.48-1.21-.94-2.66.4-.92,1.68-1.62,2.75-1.81.39-.07.76-.13,1.13-.12h0Zm-172.41,2.84c.39,0,.77,0,1.16.03.32.04.65.04.87.25,1.34,1.6,1.07,3.83-1.43,5.56-5.29,3.39-11.42,3.58-17.06,3.82-.22,0-.61-.23-.22-.6,5.14-4.71,10.84-9,16.68-9.06Zm95.6,64.22c-.07,0-.15,0-.22.06-4.33,2.06-11.14,3.06-14.97.91-.46-.23-.73-.06-.91.21-6.88,11.65-23.23,11.37-34.84,8.41-8.62-1.94-17.06-4.4-24.03,2.5,36.29,26.17,92.23,26.99,134.22-1.81-7.92-3.74-15.11-1.05-23.82.97-9.86,2.29-23.7,4.36-34.87-11-.19-.05-.36-.24-.56-.25h0Zm-7.25,2.62c.1,0,.21.02.34.03,1.26.15,1.98.79,2.75,1.66.37.49.5,1.06.44,1.66-.21,5.38-1.13,10.82-2.94,15.53-.04.22-.2.27-.28,0-2.1-6.63-5.69-13.34-1.16-18.56.29-.25.53-.33.85-.32Z"/>
    <path id="leicester" class="cls-3" d="m212.77,19.83c1.08,1.42,2.16,3.01,1.78,4.72-1.39,7.82-2.88,15.62-4.47,23.41-.28,1.74-1.54,2.48-2.81,3.65,8.55,1.55,24.55,4.58,33.13,6.19-.23-3.39,2.36-5.37,3.4-8.44-2.85,2-6.49,2.73-9.87,2-3.52-.67-12.24-2.4-15.75-3.13.57-2.72.93-5.5,1.56-8.22,3.42.6,8.93,1.9,12.34,2.31,2.91.69,5.11-3.35,6.69-5.25-1.11.25-3.2.38-4.34.12-3.58-.7-10.02-2.05-13.6-2.78.32-2.6.87-5.16,1.41-7.69,6.14,1.61,18.97,2.22,23.53,7.38.15-2.85-1.46-6.39.16-8.28-8.48-1.65-24.68-4.42-33.16-6h0Zm-4.09.12c-8.17.04-23.83.9-32,1,1.75,2.88-.85,5.4-.91,8.28,2.77-2.51,9.68-3.27,13.28-3.16,0,7.88.8,15.8.91,23.66.05,1.49-1.11,2.43-2.06,3.03,3.55-.04,9.17-.48,12.5-.53-1.64-1.51-2.47-1.63-2.5-3.75-.58-7.26-.87-15.71-1.07-22.94,3.68-.27,10.44.39,13.44,2.22-.01-3.17-3.08-6.33-1.59-7.81Zm-35.75,2.13c-5.22,1.14-16.85,1.96-21.35,5.38-5.38,3.73-6.62,12.02.35,15.65,4.39,1.8,12.72-.16,17.06.19,2.98.12,4.24,4.26,2.28,6.28-4.24,3.77-15.75,3.77-20.78,2.25,1.23,2.88,2.61,5.37,3.91,8.22,1.71-1.07,4.75-1.34,6.68-1.69,4.12-.6,13.88-3.24,16.63-6.56,3.29-3.86,3.45-9.46.25-13-2.88-3.15-11.8-2.6-15.59-2.34-2.16,0-3.95.76-6-.25-1.75-1.2-1.65-4.21.31-5.22,3.76-1.99,12.29-2.3,16.22-.69-.23-2.75.12-5.46.03-8.22Zm84.12,7.03c.7,1.74,1.11,3.38.28,5.03-3.1,6.68-6.62,13.3-9.9,20.03-.92,1.96-2.1,3.21-4.28,4.03,2.91,1.49,7.9,3.98,10.84,5.47-1.23-4.49,1.82-8.53,3.56-12.15,1.68.92,6.18,3.02,7.28,4.84,1.48,2.5,1.84,5.06,2.16,7.65.14,2.34.33,4.11-2.09,4.94,3.4,1.38,8.74,4.23,11.9,5.75-2.51-5.17-.96-12.2-4.31-17.28,2.18.1,5.84.46,8.16-.97,4.19-2.46,5.21-6.34,3.78-11.47-.79-2.7-3.44-4.24-5.69-5.31-5.38-2.66-16.31-7.94-21.69-10.56Zm-122.53,3.44c-7.5,4.21-21.91,11.41-29.31,15.75,1.93.51,3.27,1.23,4.19,2.91,3.7,6.65,7.39,13.29,11.06,19.94.95,1.65.66,3.63-.09,5.47,7.69-4.27,22.09-11.76,29.81-16-2.41-1.37-.88-5.93-1.85-8.94-.76,2.62-3.47,5.01-5.68,6.62-3.58,2.4-11.99,6.69-15.72,8.81-1.36-2.41-2.74-4.87-4.03-7.35,2.91-1.81,9.65-4.79,12.5-6.68,1.67-2.09.69-5.11,1.06-7.56-.73.88-1.68,1.68-2.72,2.22-3.13,1.74-9.99,5.54-13.16,7.25-1.2-2.28-2.64-4.44-3.68-6.81,5.79-2.63,16.18-9.66,22.78-9.28-1.65-2.4-4.3-3.49-5.16-6.34h0Zm129.31,6.06c2.86,1.43,7.06,3.3,9.66,4.72,6.89,3.58,1.99,11.08-3,8.25-2.85-.95-7.84-3.77-10.62-4.91,1.2-2.78,2.73-5.28,3.96-8.06h0Zm-165.39,14.72c-.79,1.14-1.83,2.18-3.06,2.85-4.12,1.92-11.51,8.58-13.28,12.78-2.47,4.81-2.44,9.23.47,14.84,3.32,6.62,8.02,9.69,15.22,9.69,7.15-.44,13.59-6.7,16.53-10.56,1.62-1.87,3.19-3.92,5.57-4.97-2-2.21-4.1-4.31-6.13-6.5-.73,2.66-2.01,4.94-3.75,7.16-2.57,2.92-6.56,7.5-11.09,7.28-4.54-.22-5.98-2.39-8-4.59-2.02-2.21-3.41-4.79-3.06-8.75.35-3.96,8.21-11.28,13.88-11.5-1.3-2.47-1.98-5.22-3.28-7.72Zm-27.59,26.65c-2.07,2.67-5.75,7.31-7.94,9.88,2.03-.3,3.89-.13,5.44,1.09,5.95,4.63,11.89,9.31,17.81,13.97,1.52,1.15,2.21,2.87,2.41,4.84,2.19-2.61,5.72-7.18,7.84-9.72-1.84.24-3.64.34-5.06-.81-6.04-4.66-11.99-9.4-18-14.09-1.64-1.25-2.56-2.94-2.5-5.16Zm-14.12,17.94c-3.77,7.75-11.57,22.15-15.28,29.9,2.06-.82,3.6-.67,5.47.28,6.71,3.36,13.45,6.62,20.16,9.94,1.65.83,3.09,2.48,3.75,4.19,3.74-7.88,10.64-21.82,14.94-29.63-.89,0-1.77-.74-2.41-1.37-1.77-1.68-2.67-3.6-4.47-5.25.5,3.13.05,6.87-1.31,9.91-1.58,3.38-5.79,11.58-7.37,14.97-2.63-.89-4.66-2.4-7.19-3.54,1.27-3.03,5.01-9.9,6.31-12.9.01-1.76-2.08-4.73-3.56-6.85-.06,1.14-.56,2.3-1.09,3.35-1.62,3.29-5.26,10.58-6.91,13.84-2.31-1.17-5.32-2.3-7.62-3.44,1.62-3.29,5.7-11.52,7.37-14.78,1.3-2.56,3.4-4.7,6-6-2.69-1.08-4.47-.75-6.78-2.62h0Zm4.84,43.09c1.08,1.74,1.31,4.69,1.38,6.78.28,3.93-2.02,11.39-2.63,15.22-7.25-1.42-14.53-3.17-21.75-4.75-1.99-.38-2.8-1.98-3.97-3.69-.76,3.26-2.05,9.43-2.75,12.72,1.46-1.07,2.54-1.91,4.25-1.53,7.72,1.62,15.4,3.32,23.09,5.06,1.77.38,3.55,1.73,4.47,3.41,1.65-7.47,4.73-21.12,6.34-28.63-.79.07-1.62.2-2.31-.24-2.25-1.24-3.85-3.18-6.13-4.35h0Z"/>
    <path id="football" class="cls-3" d="m61.65,205.01c-1.09,1.56-2.64,2.84-4.5,3.19-7.06,2-14.6,3.53-22.66,5.47-1.62.58-2.6-.1-4.13-1.28.71,3.27,1.82,8.6,2.59,11.87,2.87-4.02,8.21-3.87,12.44-5.28,1,3.39,2.19,10.49,3.31,13.81,1.77,1.84,4.72,2.1,7.03,2.91-.6-.9-1.73-2.82-1.91-3.91-.82-3.58-2.37-10.42-3.19-13.97,2.7-.6,5.35-1.4,8.09-1.78,1.45,5.67,4.85,16.22,2.22,21.63,2.76-.88,5.03-3.92,7.5-3.28-1.62-7.61-5.31-21.7-6.81-29.38h0,0Zm.37,34.66c-.9-.03-1.81.05-2.72.15-6.12,1.31-11.8,4.33-14.41,10.72-3.43,8.91,3.35,22.62,12.44,25.97,5.85,2.09,11.63.52,15.97-2.72,4.03-2.76,6.76-7.37,6.66-13.56-.25-6.98-4.15-13.9-9.84-17.84-2.71-1.9-5.39-2.65-8.09-2.72h0Zm-.25,7.78c3.37-.02,6.8.84,9.12,4.31,2.89,3.59,3.77,8.64,1.72,11.66-2.91,3.82-7.59,6.1-12.53,5.9-5.37-.19-10.8-7.06-9.22-13.65,1.51-5.37,7.6-7.95,10.91-8.22Zm21.16,25.97c-1.32.04-2.6.3-3.88.78-6.1,2.25-10.58,6.19-12.37,12.94-2.51,9.23,7.59,21.35,17.12,23.06,6.12,1.03,11.54-1.18,15.25-5.13,3.49-3.42,5.66-8.54,4.47-14.62-1.47-6.83-6.99-12.68-13.28-15.56-2.77-1.03-5.11-1.55-7.31-1.47h0Zm3.03,7.47c2.67,0,5.1,1.08,6.91,2.97,3.34,3.09,4.92,6.88,3.38,10.9-2.13,4.72-6.07,7.77-10.97,8.44-5.32.74-12.19-6.3-11.47-12.1.87-5.32,4.34-7.49,7.19-9,1.69-.82,3.37-1.22,4.97-1.21h0Zm23.75,13.78c-.05,3.04-3.17,2.14-5.63,5.97,3.7-.37,9.9,2.93,12.79,5.09-4.3,6.53-8.77,12.91-13.13,19.37-.81,1.36-2.23,1.51-3.72,1.63,2.72,1.88,7.66,5.18,10.38,7.06-.54-2.17-.34-3.97.84-5.75,3.85-5.69,7.75-11.37,11.59-17.09.22-.23.4-.77.82-.63,3.15,1.71,8.07,5.99,9.18,9.44,1.32-2.54,1.07-6.6,3.5-7.59-6.69-4.61-19.9-12.99-26.62-17.5h0Zm28.28,18.9c.98,1.78.73,3.82.16,5.69-2.19,7.32-4.97,13.9-7.16,21.19-.49,1.77-1.6,2.82-3.84,3.34,6.94,2.2,15,5.14,22.34,7.38,7.6,2.46,14.43.63,15.25-7.35.48-4.58-4.4-6.7-6.31-7.72,5.03.62,8.41-2.06,8.68-6.78.43-3.36-2.63-7.03-9.56-9.28-4.97-1.62-14.55-5.07-19.56-6.47h0Zm105.19,5.75c-3.22.83-8.61,3.08-11.78,4.16,1.77.76,2.99,1.28,3.59,3.06,2.26,6.87,4.99,13.28,7.34,20.13.64,2.16,1.43,4.6.25,6.72,7.3-2.25,19.96-6.82,27.19-9.22-.41-.6-1.04-1.09-1-1.85-.18-2.58.47-4.67.25-7.28-1.67,3.48-5.35,5.26-9.09,6.72-2.11.68-8.04,3.32-10.13,3.53-2.31-6.95-5.06-14.27-7.4-21.22-.64-1.8-.17-3.06.78-4.75Zm-98.31,2.28c2.67.94,10.28,2.68,12.87,3.76,3.62,1.5,1.27,7.98-2.5,7.15-2.65-.43-10.08-2.51-12.56-3.44.7-2.49,1.42-5,2.19-7.47Zm35.4,3.76c.23.48.09,1.65-.31,2.18l-13.59,23c-1.21,1.97-2.35,2.87-4.04,4.16,3.1.48,8.46,2.02,11.57,2.62-1-2.18-.91-4.88.71-6.96,4.8.42,13.77,1.07,18.54,1.65.97,2.27,2.21,4.99,0,7.06,3.16-.02,8.67-.14,11.75.07-1.39-1.65-2.74-3.31-3.32-5.44-1.44-4.26-6.81-20.07-8.5-24.97-.29-.89.1-1.99.13-2.09l-12.94-1.28h0Zm35.91.18c-3.47.57-9.37,1.25-12.69,1.66,1.58,1.11,2.75,1.79,2.97,3.66.82,7.18,2.27,14.06,3.19,21.24.19,2.25.23,5.14-1.35,6.97,7.6-.72,21.59-2.99,29.16-3.87-.29-.67-.78-1.3-.59-2.03.34-2.57,1.3-4.78,1.62-7.38-2.51,2.87-6.14,4.41-10.09,5.1-2.27.38-8.88,1.45-10.94,1.4-.86-7.28-2.12-14.97-3-22.25-.25-1.9.45-3.04,1.72-4.5h0Zm-30.35,5.35l5.54,15.09c-3.46-.2-10.08-.61-13.54-1l8-14.09h0Zm-44.37,2.97c3.18,1.24,8.45,3.03,11.28,4.12,6.19,2.16,4.56,10.46-2.94,7.88-3.37-1.07-7.86-2.47-11.06-3.69.77-2.72,1.95-5.56,2.72-8.31Z"/>
    <path id="city" class="cls-3" d="m307.55,63.79c-4.9-.21-8.14,1.14-11.56,4.03-3.83,3.48-6.44,7.53-6.41,13.59.13,4.78,5.35,12.29,11.63,16.25,1.77,1.31,4.57,2.94,4.84,5.12,2.08-2.13,4.25-4.23,6.38-6.22-5.1-1.53-13.73-6.48-14.97-12.18-.79-4.54.32-6.02,2.25-8.5,3.6-4.35,7.25-5.92,12.72-4.41,4.89,1.95,9.27,8.07,9.65,12.53,2.54-1.33,4.95-2.39,7.53-3.69-2.05-1.27-2.95-2.79-4.34-4.63-3-4.38-8.65-10.62-15.5-11.72-.77-.09-1.52-.16-2.22-.19Zm26.97,23.35c-.1,3.2-1.79,4.19-4.09,5.9-5.58,3.82-10.87,7.71-16.44,11.41-1.58,1.01-3.63,2.3-5.88,1.22,1.81,2.81,5.39,7.56,7.22,10.34.19-2.87,1.73-4.17,3.47-5.31,6.02-4.02,11.68-8.36,17.72-12.34,1.74-1.18,2.74-1.69,5.06-.91-1.8-2.75-5.25-7.56-7.06-10.31h0Zm10.69,15.06c-1.67,2.52-5.37.99-8,2,3.2,1.8,6.73,7.58,8.06,10.97-7.15,3.35-13.06,6.36-20.22,9.75-1.36.69-3.51.25-4.9-.28,1.48,3,3.95,8.27,5.43,11.25.79-2.31,3.1-4.27,5.25-5.22,6.4-2.91,11.67-5.72,18.13-8.47,1.64,3.23,4.39,9.3,3.47,12.94,2.47-1.49,3.68-4.74,6.5-4.44-3.42-7.41-10.27-21.1-13.72-28.5h0Zm15.53,32.06c-.68,3.11-3.5,4.9-5.25,7.22-3.5,4.09-7.71,8.7-11.81,12.84-.98.92-3.41,1.21-4.88,1.54-3.05.44-4.47.8-6.81-1.16.73,3.29,1.93,9.15,2.59,12.44,1.3-1.97,2.69-3.13,5.25-3.78,2.28-.41,4.3-1.29,5.94-.57,7.48,4.07,21.52,9.87,23.28,11.69l-2.56-12.28c-.83,1.2-1.81,1.78-2.81,1.4-4.49-1.74-9.82-4.22-13.63-5.68,2.79-3.24,6.05-6.37,9-9.44,1.28-1.56,3.04-2.18,4.6-.66l-2.91-13.56h0Z"/>
    <path id="club" class="cls-3" d="m342.99,206.73c-1.42.04-3.03.55-4.75,1.69-2.45,2.15-3.35,5.52-4.16,8.53-1.1,5.09-3.84,15.55-4.84,20.65,1.69-1.36,3.15-1.51,5.06-1.09,7.47,1.61,14.91,3.3,22.35,4.91,1.8.35,3.13,1.76,4.15,3.34,1.1-7.08,5.5-21.47,5.38-28.69-.14-5.92-5.63-9.7-10.88-8.47-2.98.84-4.65,4.28-5.31,6.69,0-3.59-2.74-7.67-7-7.56h0Zm.03,8.59c2.19.01,4.21,2.03,3.63,4.57-.58,2.64-1.63,8.2-2.28,10.81-2.54-.51-5.18-1.08-7.69-1.66.72-2.73,1.4-6.6,2.12-9.37.72-3.14,2.52-4.35,4.22-4.35h0Zm13.69.47c2.28.08,4.37,2.37,3.87,5.16-.71,3.35-2,9.54-2.62,12.84-2.77-.56-5.64-1.23-8.44-1.78.71-3.36,1.8-8.2,2.69-11.56.83-3.44,2.72-4.72,4.5-4.66h0Zm-28,23.28c-2.1,3.77-4.02,7.37-6.22,11.19,1.67-.8,3.32-.89,4.69-.16,4.88,2.58,9.04,5,13.87,7.69,1.87,1.08,3.89,3.09,4.1,5.75-.08,3.56-2.54,7.87-5.82,9.32-2.37,1.11-5.07-.03-6.87-1.07-4.43-2.66-7.92-4.55-12.35-7.25-1.53-.88-2.89-1.53-3.03-4.37-2.12,3.59-4.03,7.52-6.25,11.22,2.95-1.32,4.98-.44,7.1.87,3.94,2.27,7.22,4.17,11.12,6.44,2.98,1.69,5.96,2.81,10.03,1.9,3.51-.81,6.49-4.21,8.63-7.71,2.27-3.67,4.26-7.94,4.03-12-.2-4.19-2.75-7.05-5.59-8.94-4.64-2.81-8.32-4.74-13-7.47-1.8-1.08-4.38-2.71-4.44-5.41h0Zm2.56,43.19c-.1,3.53-2.08,7.68-4.59,10.56-1.27,1.7-5.35,6.33-7,8.1-5.59-4.74-10.67-9.04-16.28-13.75-1.48-1.22-2.65-2.92-2.72-4.85-2.32,2.39-5.45,5.94-7.6,8.5,1.92-.27,3.72.66,5.16,1.88,5.5,4.69,10.83,9.5,16.41,14.12,1.67,1.52,2.53,2.99,2.62,5.41,5.06-5.71,14.45-16.5,19.38-22.31-.67-.29-1.56-.39-1.94-1.19-1.46-2.66-1.9-4.36-3.44-6.47Zm-38.72,9.22c-1.57,2.06-4.71,3.25-6.97,4.25-4.89,2.33-11.75,7.91-13.18,14.44-1.14,5.63.1,10.18,3.21,14.28,3.08,4.16,6.96,6.58,12.32,6.72,6-.06,12.39-3.91,17.12-8.72,1.56-1.56,3.47-3.7,5.75-3.88-1.9-2.26-3.49-4.81-5.56-6.97-1.34,4.13-7.79,10.91-12.16,12.1-3.85.87-6.43-.17-9.25-2.6-3.13-3.24-5.08-7.23-3.78-11.9,1.93-6.02,9.92-10.43,14.94-9.56-.91-2.69-1.6-5.57-2.44-8.16h0Z"/>
    <path id="leaf-top" class="cls-3" d="m200.4,71.01c-.64,1.83-1.07,4.25-1.5,6.38-.09.47-.32.78-.6,1.12-14.22,14.31-31.79,10.14-38.34,31.13-.74,1.77.2,3.65,3.37,5.4.32.19.6.11.6-.22-.8-22.79,29.99-21.25,36.72-37.06.07-.16.3-.12.37,0,5.66,10.56,15.01,11.94,23.56,16.88,6.4,3.69,11.01,7.04,12.32,17.53.04.49.18.4.43.15.97-1.07,3.32-1.62,3.25-3.22-2.07-15.47-19.11-18.81-32.78-25.18-.57-.44-1.15-.87-1.72-1.31-2.86-3.38-5.04-7.2-5.68-11.59h0Zm-.25,19.35c-.15,0-.28.04-.41.12-.15.07-.29.22-.37.38-.08.14-.05.59,0,.9.05.2.23.31.34.44.23.28.43.44.72.66.37.24.82-.06.9-.35.11-.5.11-1.06,0-1.5-.03-.16-.15-.26-.25-.41-.14-.15-.29-.23-.53-.24-.1,0-.26-.02-.4,0h0Zm4.65,4.31s-.07.02-.12.06c-.09.07-.16.19-.16.31,0,.62-.29,1.53.28,1.85.28.13.63.18.85-.07.11-.18.32-.24.31-.56,0-.15-.21-.2-.28-.37-.09-.25-.04-.7-.13-.88-.08-.13-.16-.26-.31-.28-.15-.03-.29-.1-.44-.06h0Zm-8.56.09c-.41.14-.85.44-1,.97-.18.31-.17.56,0,.75.22.32.49.7.87.88.32.15.74.15.88-.54.16-.57.17-1.37-.09-1.59-.33-.24-.25-.57-.66-.47h0Zm4.53,7.53c-1.82,5.48-2.29,8.24-3.59,12.6,2.38.02,3.69.03,5.4.06-1.39-4.97-1.46-6.94-1.81-12.66Z"/>
    <path id="leaf-left" class="cls-3" d="m116.77,129.36c-.08,0-.18.04-.28.12-12.67,8.94-16.11,24.78-32.41,22.16,11.57,5.41,11.29,18.7,12.47,31.03,1,10.39,8.94,24.38,30.35,21.47.24-.02.4-.21.25-.44-1.37-1.95-5.96-1.31-7.1-1.5-16.95-3.18-19.82-18.77-23.34-36.41-.82-5.1-4.13-8.32-6.16-12.15-.15-.39-.28-.51.22-.6,10.8-2.07,18.94-11.44,27.6-21.4.18-.11.21-.36,0-.54-.49-.49-.94-1.03-1.38-1.62-.08-.08-.13-.13-.22-.12h0Zm-1.62,20.5c-.15,0-.31.04-.44.12-.15.07-.29.22-.38.38-.07.14-.04.59,0,.9.06.2.27.31.38.44.23.28.43.44.72.66.37.24.79-.06.87-.35.11-.5.11-1.06,0-1.5-.03-.16-.15-.26-.25-.41-.14-.15-.29-.23-.53-.24-.1,0-.23-.02-.37,0Zm4.87,4.43c-.05.01-.1.03-.15.07-.09.06-.16.18-.16.31-.03.61-.35,1.51.22,1.84.27.15.62.18.84-.06.12-.18.34-.22.34-.53,0-.16-.18-.2-.24-.38-.08-.25-.04-.7-.13-.87-.07-.14-.16-.29-.31-.31-.15-.04-.26-.1-.41-.07h0Zm-8.62.66c-.41.14-.85.47-1,1-.18.31-.17.53,0,.72.21.32.52.7.9.87.32.16.74.19.88-.5.16-.57.14-1.4-.13-1.62-.33-.24-.24-.57-.65-.47Zm5,7.44c-.67,5.53-2.69,11.85-4.66,16,2.3-.31,4.14,1.09,4.28,2.87.58-2.02,2.13-3.57,3.97-3.03-1.21-5.02-2.7-10.41-3.59-15.84Z"/>
    <path id="leaf-bottom-left" class="cls-3" d="m134.49,216.26c-.09.02-.19.05-.31.1-19.62,7.58-23.54,25.2-12.57,40.71,8.24,13.85,11.89,19.56,7.97,30.69,15.34-18.26,42.51,11.28,58.1-11.5.21-.28-.12-.47-.44-.78-.76-.53-1.56-.88-2.34-1.19-.58-.22-.9-.09-1.25.41-6.38,6.72-27.07,5.23-42.72,5.28-.48,0-1.91.25-2.38.5-1.5.77-3.02,1.45-4.62,1.31-.43,0-1.08-.23-.97-1.12.78-11.38-5.99-18.61-10.28-28-1.34-3.2-11.28-21.16,12.62-32.07.11-.21.34-.33.31-.65-.07-1.11-.3-2.21-.62-3.35-.06-.28-.22-.38-.5-.34h0Zm17.75,21.69c-.15.02-.31.05-.44.12-.15.08-.29.23-.37.38-.07.15-.05.6,0,.91.05.2.26.3.37.43.24.28.43.44.72.66.37.24.83-.06.91-.35.1-.5.11-1.06,0-1.5-.04-.16-.19-.25-.28-.4-.15-.16-.27-.23-.5-.25-.11,0-.26-.02-.41,0h0Zm4.94,4.19c-.05,0-.11.02-.16.06-.08.07-.16.19-.15.31-.03.62-.35,1.51.21,1.85.28.14.59.17.82-.07.11-.18.37-.21.37-.53,0-.15-.21-.19-.28-.37-.08-.25,0-.7-.09-.88-.08-.14-.16-.29-.32-.31-.14-.04-.25-.09-.4-.06Zm-8.81.53c-.41.14-.85.47-1,1-.19.3-.17.53,0,.72.21.32.49.69.87.87.32.16.74.19.87-.5.16-.57.18-1.4-.09-1.62-.33-.24-.24-.57-.65-.47h0Zm4.5,7.12c-.67,5.53-2.69,11.85-4.66,16,2.3-.31,4.14,1.06,4.28,2.85.58-2.02,2.13-3.55,3.97-3-1.21-5.02-2.71-10.41-3.59-15.85Z"/>
    <path id="leaf-bottom-right" class="cls-3" d="m264.33,216.23c-.1,0-.21.11-.25.22-.43.92-.87,1.8-1.31,2.72-.39,1.04-.41,1.93,1.16,2.43,28.11,11.49,14.27,33.24,6.94,46-.76,1.31-2.58,5.18-2.72,6.88-.28,1.81,0,3.39-.04,5.28,0,.44-.62.56-.96.5-18-3.46-33.57,12.44-48.32-4.72-1.36-1.47-2.99-1.61-3.59-1.15-.65.49-1.13,1.03-1.59,1.75-.31.43-.3.68.06,1.12,15.34,21.51,38.01-3.89,57.47,6.81-4.56-10.94,4.42-21.55,9.5-31.09,11.29-19.18-1.92-30.97-16.25-36.75-.04-.02-.06,0-.1,0h0Zm-14.9,21.31c-.15.02-.28.05-.41.13-.15.07-.29.22-.37.37-.07.15-.05.63,0,.94.05.2.23.28.34.41.23.27.43.44.72.65.37.25.82-.05.9-.34.11-.5.11-1.07,0-1.5-.03-.17-.15-.26-.24-.41-.15-.15-.3-.23-.54-.25-.1,0-.26-.02-.4,0Zm4.72,4.32c-.05,0-.11.02-.16.06-.09.06-.16.19-.16.31-.02.61-.34,1.51.22,1.84.28.15.62.18.85-.06.11-.18.34-.21.34-.53,0-.15-.18-.2-.25-.38-.08-.25-.04-.69-.12-.87-.08-.14-.13-.29-.29-.31-.14-.04-.29-.09-.43-.06h0Zm-8.72.65c-.41.14-.82.48-.97,1-.18.31-.17.53,0,.72.22.32.49.7.87.87.32.16.74.19.88-.5.16-.57.14-1.4-.13-1.62-.32-.24-.24-.57-.65-.47h0Zm4.78,7.13c-.66,5.53-2.69,11.85-4.66,16,2.31-.31,4.15,1.09,4.28,2.87.58-2.02,2.13-3.57,3.97-3.03-1.21-5.02-2.7-10.41-3.59-15.84h0Z"/>
    <path id="leaf-right" class="cls-3" d="m281.4,129.07c-.06.02-.11.07-.16.13-.21.25-.39,1.62-.44,2.53,0,.19,0,.34.19.47,4.03,2.45,16.1,16.14,26.62,18.53.46.1.52.49.29.72-12.51,14.7,2.41,37.66-22.25,46.41-4.58,1.26-9.19.66-10.04,3.71-.02.11.13.25.22.25,14.83.94,24.08-4.06,26.85-14.65,3.57-11.8-3.15-28.57,9.5-37.72.32-.24.15-.66-.13-.63-12.79,1.3-20.97-12.27-30.47-19.72-.05-.03-.13-.04-.18-.03h0Zm4.06,19.75c-.15.03-.31.08-.44.16-.15.07-.29.22-.37.38-.07.14-.05.59,0,.9.05.2.23.31.34.44.23.28.43.41.72.62.37.25.82-.02.9-.31.11-.5.11-1.06,0-1.5-.03-.16-.15-.29-.24-.44-.15-.15-.3-.23-.54-.25-.1,0-.23-.02-.37,0h0Zm4.34,4.82s-.1.02-.15.06c-.09.07-.13.19-.13.31-.03.62-.34,1.51.22,1.85.27.14.59.17.81-.07.12-.18.35-.21.35-.53,0-.15-.19-.19-.25-.37-.08-.25-.04-.7-.13-.88-.07-.14-.13-.29-.28-.31-.15-.04-.29-.09-.44-.06h0Zm-8.93.06c-.41.14-.82.47-.97,1-.18.31-.17.53,0,.72.21.32.49.7.87.87.32.16.74.19.88-.5.15-.57.14-1.37-.13-1.59-.33-.24-.24-.6-.65-.5Zm4.81,7.06c-.66,5.53-2.69,11.85-4.66,16,2.3-.31,4.15,1.09,4.28,2.88.58-2.02,2.13-3.58,3.97-3.04-1.21-5.01-2.7-10.41-3.59-15.84Z"/>
    <path id="fox-outline" class="cls-3" d="m272.9,94.82s-.1,0-.16.04c-11.36,3.21-26.7,16.32-39.34,27.81-.37.42-.88.51-1.29.37-8.4-2.76-18.17-3.12-26.31-3.34-11.61-1.07-25.57.35-38.06,4.4-.54.19-.94-.3-1.34-.78-9.89-11-23.82-20.01-38.85-26.28-.42-.2-.77-.38-1.25.06-7.72,7.12-6.02,28.2.6,39.63.78,1.66.95,4.57.97,5.56.47,6.15,1.67,11.46,3.28,17.19.4,3.56,1.76,7.18,3.81,10.25.4.49.23.93-.06,1.25-2.62,2.62-5.01,5.1-7.63,7.72-.19.18-.55.31-.9.37-2.17.25-2.85.96-3.88,3.47-.15.36-.13.61.06.91.37.69,2.89,5.05,4.97,7.37,2.01,1.99,1.26,3.88-.44,5.69,3.21,2.4,8.95,6.99,9.29,7.69.36,1.85,3.62,2.47,1.68,5.12.51.12.82.31,1.22.63.29.31.35.61.38.94.26,2.88.8,5.49,2.4,8.25,6.5,11.02,13.78,9.32,22.44,18.72,5.18,5.63,10.29,5.85,13.81,15.78-.32,3.77-.52,6.08,1.03,9.34,1.84,3.98,6.37,4.13,12.19,6.78.78.3,1.21.54,1.78,1.13,1.52,1.48,3.27,2.43,5.25,3.37,1.6.68,3.5.68,4.97-.06,2.8-1.6,3.39-.44,8.56-4.16,4.88-1.44,12.85-7.45,12-17.68.03-.3.1-.5.19-.76.15-.47.59-.94,1-1.4,1.97-2.35,4.22-4.43,5.6-7.28.28-.69.52-1.36,1.15-1.88,19.48-15.9,12.59-8.91,19.63-14.31,14.44-10.98,4.96-23.8,21.87-30.97-2.29-4.85-1.51-5.29,5.94-15.62-3.94-2.08-6.68-4.47-9.41-6.38-8.57-6.72-.79-12.42-.09-15.72.49-1.87,1.23-4.23,1.41-6.62.91-5.51.4-12,3.21-14.88,2.07-2,2.67-12.95,3-13.84,2.27-7.15,1.44-8.11,1.85-12.6.07-.6.28-1.08,0-1.74-1.58-4.36-3.52-8.58-5.75-12.76-.2-.36-.35-.71-.63-.78-.04,0-.1,0-.15,0h0Zm-6.75,16.82c-.91,8.97-4.18,14.91-3.16,22.43-3.81,4.68-2.53,13.41-6.03,18.63-.23.3-.54.47-.91.44-4.65-.77-7.91-6.63-11.87-9.94-.4-.32-.6-.62-.47-.94,1.61-3.58,5.31-7.17,2.44-10.81.14-10.43,12.6-12.11,20-19.81h0Zm-133.97,1.72c7.31,4.09,11.97,10.96,15.56,11.06.56.87,1.36,1.77,2.03,2.47,5.38,6.12,1.11,8.4,5.84,16.25.51,1.1.74,2.17,0,2.84-3.16,2.75-5.97,5.54-8.59,8.56-3.47,4.21-5.16,2.66-6.19,0-.64-1.97-1.32-4.2-.43-6.47.55-1.25.22-2.28-.72-3.47-1.26-1.77-2.29-3.64-3.28-5.5-.35-.7-.58-1.3-.72-2.18-1.25-7.74-1.02-19.31-3.5-23.56h0Zm90.78,76.62c.53-.06,1,.31,1.06.84.06.54-.34,1.04-.87,1.1-.54.05-1.01-.34-1.07-.88-.05-.53.35-1,.88-1.06h0Zm-49.91.09c.54-.05,1.01.31,1.06.85.06.53-.34,1-.87,1.06-.53.06-1.01-.31-1.06-.84-.06-.54.34-1.01.87-1.07h0Zm80.41,21.72c.79,0,1.03.75.94,1.5-.84,10.6-5.78,7.68-17.07,17.72-2.95,2.36-1.98,4.65-5.96,8-3.34,3.12-6.45,6.38-9.29,10.41-.46.69-.8-.04-.84-.35-.14-.84-.64-1.79-1.34-2.56-1.87-2.1,1.11-1.84-2.25-6.87-1.39-2.04-3,.59-3.97-2.72-.6-2.13-.03-1.08-.78-6.03l1.97-1.63c.93,2.64,2.23,4.85,3.65,6.69.21.25-.18,2.48.69,4.44.18-3.1,2.95-4.88-1-10.44-.51-.72-.78-1.43-.97-2.28-.02-.09-.04-.16-.06-.25,7.48-4.86,15.85-8.83,23.75-12.1-.4.45-.79.9-1.19,1.38-.18.22.17.3.28.25.48-.13.71-.07,1.09,0,.25.15.22.41.22.65.06.92-.68.97-.46,2,1.3-1.67,2.54-3.29,3.87-4.81.31-.39.72-.85,1.34-.78l1.44.19c.49.02.96-.07,1.5-.22,1.27-.5,2.22-1.12,3.44-1.94.4-.19.73-.25,1-.25h0Zm-106.19,1.69s.13.03.19.06c3.75,1.88,8.86,3.06,11.47,4.16,1.37.64,2.84,1.59,3.9,1.75.44.03.44-.21.22-.47-.28-.44-.56-.86-.84-1.25,6.44,2.99,12.41,6.46,18.72,10.63-.02.05-.05.1-.06.15-.18.54-.36,1.03-.54,1.47-.1.25-.21.53-.31.75-.08.19-.17.39-.25.56-.15.32-.3.67-.44.94-.18.35-.38.76-.53,1.06-.05.12-.1.23-.15.35-.1.22-.21.44-.28.65-.05.15-.09.29-.13.44-.02.07-.05.14-.06.22-.04.2-.05.4-.07.62,0,.2,0,.41,0,.63.02.23.03.46.07.72.08.63.26.87.47.97.06.03.15.04.22.06.15.03.44.08.53-.16.07-.22.18-.44.28-.65.1-.22.19-.42.31-.63.23-.42.5-.84.78-1.25.06-.09.12-.19.19-.28.51-.72,1.07-1.41,1.59-2.12.05-.07.08-.13.13-.19.21-.31.4-.63.59-.94.07-.11.15-.23.22-.34.18-.31.36-.62.5-.94l4.03,3c-.67,1.64-1.53,3.86-1.78,5.44-.47,3.55-2.65,2.75-4.28,1.4.1,3.66.38,5.23-1.66,8.44-.27.46-.52.3-.69,0-4.93-9.51-9.69-7.24-15.93-17.37-.56-1.47-1.62-2.87-3.66-3.63-7.69-3.03-13.18-5.11-13-13.94,0-.16.09-.31.25-.31h0Zm67.81,31.75c.32.02.6.29.72.63,1.55,3.5,3.48,9.66,2.85,11.65-2.28,8.74-8.44,10.19-14.16,9.44-4.29-.56-4.31-1.57-4.38-4.44,0-.31.44-.43.79-.53,5.18-1.63,8.3-4.45,8.43-9.84.03-.73.12-1.5-.25-2.16,1.45-.93,2.79-1.89,4.1-3.09.04-.04.09-.08.12-.13.4-.63.85-1.14,1.47-1.47.11-.04.21-.07.31-.06h0Zm-28.81.66c.17-.05.32.04.5.25.13.14.31.59.72.59.7.88,1.67,1.64,2.59,2.31-.28.28-.45.6-.56.94-.29.83-.24,2.24,0,3.53.1.76.36,1.43.75,2.09,1.87,2.91,3.2,4.22,5.31,5.66.88.53,1.85.99,2.97.88.31-.04.49.17.44.43-.34,4.29-2.29,4.58-7.22,3.97-10.92-2.18-11.88-9.29-5.97-20.03.13-.38.31-.57.47-.62Zm14.16,23.21c1.51-.03,3.11.02,4.68.22.24.05.26.25.19.41-.22.59-.88,1.34-1.22,1.63-.21.16-.53.22-.81.31-1.18.31-3.02.45-3.34.4-.29-.06-.58-.17-.85-.34-1.03-.58-1.99-1.25-3-1.87-.22-.17-.23-.43.03-.47,1.36-.13,2.8-.25,4.32-.29h0Z"/>
    <path id="fox-background" class="cls-2" d="m271.68,102.76c-.06,0-.12,0-.19.03-12.41,4.51-27.8,13.49-35.81,25.41-3.23,2.6-6.54,5.14-9.97,7.37,7.13-9.48-7.1-10.11-24.25-11.97-11.79-1.01-25.86,2.68-30.44,5.19-.41.24-.67.71-.34,1.13,1.28,1.82,1.67,3.96,2.43,5.97.1.22-.11.24-.28.09-14.92-13.36-37.22-31.38-44.65-33.16-.35-.06-.67.06-.85.38-.53,1.11-.65,1.43-1.06,2.53-.29.97-.82,1.57-1.09,1.84-4.25,4.17,3.2,11.99,4.31,26.29.74,6.04,2.2,8.75,3.59,12.9.21.56.35,1.04.44,1.6,1.93,6.66,3.19,13.45,5.75,19.62,3.05,9.91-8.91,8.28-9.4,16.5-.28,5.58,6.27,8.64,5.15,12.72-.07.26-.55.54-.28.87,5.04,5.23,6.99,4.01,9.03,8.35,4.73,8.29,9.87-.78,18.44,11.31,6.44,2.99,12.41,6.46,18.72,10.63.45-1.41.87-3.16,1.25-5.44.75-4.51.6-9.06-2.25-15.35-.52-.92-.21-2.47.72-3.21.47-.35.67-.49.72.24.8,8.36,7.65,14,3.43,21.91-.15.29-.33.53-.28,1,.09,1.07-.13,2.03-.53,2.94l4.03,3c.27-.65.51-1.2.66-1.59,1.8-9.29,3.21-24.29,4.56-26.16.12-.18.27-.46,0-.66-1.57-1.62-3.33-4.31-2.53-5.12.86-.65,5.87,1.37,5.84,5-.21,3.25-3.38,33.34-7.34,37.59-.19.22-.12.37,0,.53,1.73,2.44,1.36,3.04.75,3.35-.55.21-1.7.12-2.22.31-.09.03-.18.03-.25.03.7.88,1.67,1.64,2.59,2.31.55-.54,1.48-.94,2.91-1.15,5.59-.97,10.92-.81,15,1.12.55.28.89.61,1.09.97,1.45-.93,2.79-1.89,4.1-3.09-.38.28-1.19,0-1.31-.63-2.24-12.2-4.63-14.08-6.04-23.28-.57-3.12-.84-6.39-.25-9.38.19-.97.25-1.85,0-2.9-.81-3.01-.76-6.15-.09-9.13.46-1,1.63-2.34,2.47-3.47.69-.91,1.18-1.97,1.56-3.12.39-1.19,4.26-6.97,7.56-7.88.28-.07.32-.24.35-.5.03-.29-.51-.3-.47-.74.12-2.3,14.58-1.06,22.19-.35,2.9-.26,5.79-.71,8.53-1.22.48-.09.51.08.22.38-2.27,2.5-5.54,3.87-8.5,4.25-.56.08-.71.39-.82.81-1.69,8.49-13.97,12.59-19.31,11.59-.34-.06-.35.18-.34.35.39,4.35-1.48,4.79-3.1,17.5-.1.71-.07,1.34.04,2.06.25,2.06.85,4.02,1.31,6.19,7.48-4.86,15.85-8.83,23.75-12.1,1.6-1.81,3.18-3.44,4.84-5.28.46-.61,1.35-.98,2.19-1.28,6.29-2.64,12.66-6.75,17.44-11.94.14-.17.43-.45.34-.78-1.46-6.82,3.04-8.84,5.87-13.9.43-.66-.03-.83-.5-1.07-3.11-1.96-5.94-4.67-8.12-7.21-.51-.76-.73-1.72-.91-2.57-2.25-10.6,2.41-11.37,3.25-17.5-.06-3.05.76-6.64,1.72-9.81,1.13-3.69,1.64-6.69,2.94-8.75.64-18.46,6.37-14.29,4.81-24.13-.41-1.97-1.45-5.54-2.69-8-.1-.23-.25-.33-.43-.34h0Zm-3.53,3.6c.1-.02.21,0,.31,0,.66.05,1.18.54,1.25,1.15.12,1.2.38,2.3.62,3.41-4.27,10.2-1.79,24.2-7.37,32.78-.28,7.52-1.22,12.31-5.69,15.31-.18.14-.38.12-.59,0-7.13-3.48-13.5-10.74-19.72-16.44,9.68-6.3.91-12.92,7.81-20.15,8.03-8.48,15.1-9.32,22.44-15.63.31-.26.63-.4.94-.43Zm-138.75.53c.88,0,1.89.48,2.62,1.18,7.15,3.13,6.51,5.99,12.09,8.79,1.19.62,3.22,1.73,4.79,2.09.72,2.5,1.9,2.43,4.53,6.91.63,1.1,2.94,2.9,3.15,4.4.16.94.14,1.76.07,2.66-.07,2.55-1.12,4.98.28,6.12,1.15.59.39,1.17,2.47,2.22,1.05.51,1.59,1.03,1.03,2.13-1.66,2.91-3.7,5.31-5.56,7.97-.48.62-1.19,1.11-1.91,1.53-4.03,2.42-7.38,5.82-11,9.03-.23.17-.34,0-.5-.06-3.47-1.97-4.39-5.41-4.85-10.1-1.2-12.52-3.71-1.69-7.93-38.97-.57-1.68-1.19-4.68-.66-5.37.36-.37.84-.54,1.38-.53h0Zm81.65,24.28c-3.21,5.95-4.84,5.39-6.78,7.72-.14.16-.29.36-.44.56-.14.2-.29.41-.43.65-.15.24-.26.45-.32.66,0,0,0,.02,0,.03-.05.2-.08.42-.09.6.09,1.94-.23,2.73.28,3.37.03.05.05.1.06.16.03.06.03.12.04.18,0,.13-.02.26-.07.35-.36-.23-.92-.66-1.4-1.09-.37-.33-.68-.64-.82-.91,0,0,0-.02,0-.03-.04-.09-.06-.18-.06-.25,0-.2-.02-.33-.03-.44-.05-.45-.18-.38-.28-.87-.05-.25-.11-.64-.13-1.32,0-.33,0-.75,0-1.25-.04-.32,0-.48.07-.62.03-.06.07-.13.12-.19.05-.06.1-.12.16-.19,2.9-2.98,6.75-4.95,10.12-7.12h0Zm-23.12.72c3.04,2.06,6.45,4.82,9.78,7.59.07.08.12.16.19.25.19.29.33.63.25,1.06-.2,1.26-.8,2.47-1.28,3.75-.02.06-.06.09-.1.13-.04.03-.07.07-.12.09-.1.04-.22.03-.28-.03-.6-.76-1.25-1.53-1.79-2.31-.18-.24-.37-.5-.37-.82.02-.25.03-.5.03-.71s0-.41-.03-.6c-.05-.35-.16-.66-.31-.9,0,0,0-.03,0-.03-.32-.51-.87-.81-1.75-1.04-.72-.21-1.35-.53-1.88-.9,0,0-.02,0-.03,0-.78-.56-1.34-1.31-1.72-2.22,0,0-.03-.02-.03-.03-.38-.93-.55-2.01-.56-3.28h0Zm40.22,29.25c.82-.04,1.68.06,2.53.25.84.19,1.68.48,2.4.87.22.14.28.41.03.5-1.2.32-2.42.73-3.65,1.22-.62.24-1.22.51-1.85.78-3.1,1.37-6.26,3.08-9.4,4.66-.33.14-.55.09-.69-.1-.05-.07-.09-.14-.12-.25-.07-.34-.06-.67-.03-1,.02-.32.08-.65.09-1,.03-.48.33-.51.5-.75.59-.23,1.09-.43,1.5-.62,1.23-.57,1.73-.97,2.15-1.34.29-.25.55-.48.91-.76.37-.27.86-.58,1.66-.96.48-.22.96-.42,1.43-.63.48-.2.95-.4,1.41-.56.36-.19.78-.3,1.13-.31h0Zm-60.97.65c.06,0,.14.02.19,0,.2.07.36.15.5.22.14.08.24.16.34.25.37.32.52.68,1.47,1.13.23.11.53.25.87.37.35.12.76.24,1.25.38,1.18.38,2.02.6,2.81.9.02,0,.02.03.04.03.78.31,1.53.69,2.46,1.35.32.22.66.48,1.04.78.37.3.79.64,1.25,1.03.19.15.36.25.4.53,0,.09,0,.18-.03.28v.03c-.03.1-.07.19-.12.29-.12.21-.28.39-.44.53-.06.04-.11.07-.16.09-.04,0-.12,0-.22,0-.3-.06-.54-.1-.78-.19-.22-.08-.41-.18-.59-.28-.19-.1-.35-.19-.5-.31-.15-.12-.27-.25-.41-.38-.28-.26-.57-.53-.94-.81-.17-.14-.36-.27-.59-.41-.23-.13-.49-.27-.78-.4-.3-.13-.54-.16-.78-.1-.08.03-.17.05-.25.1-.32.13-.62-.02-.94-.1-.24-.05-.51-.14-.78-.24-.01,0-.02,0-.03,0-1.95-.77-4.37-2.67-4.38-4.94,0-.04.02-.08.03-.1.02,0,.04-.03.07-.03h0Zm4.15,21.75c.52,0,1.06.03,1.6.06.55.05,1.11.1,1.68.19.43.07.85.16,1.29.25.14.04.28.06.43.1.26.06.52.14.78.22.34.09.67.19,1,.31.49.17.96.35,1.44.56.42.18.84.38,1.25.59.41.22.82.47,1.22.72.34.21.67.43,1,.66.15.1.3.17.44.28.24.18.48.37.72.56.05.04.1.08.15.13.04.03.09.06.13.09.07.06.15.13.22.19.31.27.62.58.93.87.4.38.78.77,1.16,1.19.03.03.06.06.1.09.34.39.66.8,1,1.22.19.26.39.52.59.78.16.23.31.43.47.66.35.52.67,1.06,1,1.63.13.22.23.51.22.75,0,.08-.03.14-.07.22-.31.66-.5,1.33-.65,2.09-.02.11-.12.2-.22.22-.04,0-.1,0-.13-.03-.54-.33-1.04-.65-1.53-1-.47-.34-.91-.71-1.34-1.07,0,0-.03,0-.03,0-.44-.36-.84-.74-1.25-1.12-3.67-3.39-6.25-7.07-11.19-8.06,0,0-.02,0-.03,0-2.21-.44-4.86-.33-8.31.56-1.15.12-2.42.12-3.72.03-1.3-.09-2.62-.27-3.88-.5-.61-.11-1.24-.24-1.81-.38,0,0-.02,0-.03,0-.57-.13-1.1-.29-1.59-.43-.02,0-.03,0-.04,0-1.01-.3-1.83-.62-2.4-.91,2.58.05,5.42.02,7.87-.09s4.49-.27,5.47-.47c.33-.16.73-.3,1.16-.44.4-.13.86-.27,1.34-.37.04,0,.09,0,.13,0,.43-.09.88-.17,1.37-.22.08,0,.14-.03.22-.03.59-.06,1.2-.09,1.84-.1h0Zm54.47,4.19c-2.18.13-4.57.96-7.28,3.31-4.1,4.03-7.55,9.04-10.19,13.78-.31.58-.41,1.11-.28,1.72,3,13.82,4.29,20.7,4.85,24.35l1.97-1.63c-1.18-3.33-1.79-7.35-1.38-12.19,1.42-3.7,2.16-8.07,2.81-12.25,2.16-4.58,2.38-6.52,4.47-6.4,1.87.1,3.81.19,5.56-.19.68-.13,1.24-.4,1.85-.78,2.95-1.78,5.47-4.19,7.62-6.91.26-.28.42-.88.28-1.15-.08-.21-.21-.32-.47-.32-3.1.19-6.16-1.55-9.81-1.34h0Zm-1,.34c.58,0,1.18.12,1.75.35,1.15.45,1.99,1.33,2.44,2.37.23.53.36,1.08.38,1.66,0,.58-.09,1.18-.32,1.75-.23.57-.56,1.06-.97,1.47-1.22,1.23-3.13,1.68-4.84,1-.29-.12-.56-.24-.81-.41-.25-.16-.45-.36-.66-.56-1.23-1.22-1.68-3.1-1-4.81.09-.23.19-.43.31-.63.02-.02.05-.04.07-.06.05-.09.09-.17.15-.25.12-.16.25-.3.38-.44l.12-.12c.19-.19.38-.38.6-.53.17-.13.37-.22.56-.32.03,0,.06,0,.09-.03.06-.02.1-.07.16-.09.24-.1.49-.17.75-.22.27-.06.56-.12.84-.13h0Zm-49.87.07c.58-.02,1.14.08,1.72.31.28.11.56.24.81.41.25.16.45.35.65.56.22.21.4.41.57.65.32.48.56,1.01.69,1.57.18.83.12,1.73-.22,2.59-.12.29-.25.53-.41.78,0,0,.01.02,0,.03-.65.98-1.67,1.64-2.78,1.88-.56.12-1.14.13-1.72.03-.29-.05-.59-.14-.87-.25-.29-.12-.57-.25-.82-.41-.49-.32-.89-.74-1.22-1.22-.8-1.18-1.03-2.72-.46-4.15.11-.28.27-.54.43-.78.15-.23.29-.44.47-.63.04-.04.09-.06.13-.09.19-.19.37-.39.59-.53.18-.13.37-.22.56-.32,0,0,.02-.02.03-.03.18-.08.38-.12.57-.18.18-.06.37-.13.56-.16h.06c.21-.04.44-.06.66-.06h0Zm-14.19,2.18c.11,0,.23.02.34.04.02,0,.05,0,.07,0,.2.02.4.09.62.18.24.1.49.22.75.38.27.16.55.34.85.56l.09.06c.26.2.52.4.81.63.31.24.6.45.94.72.63.49,1.32,1.03,2.06,1.56.37.27.75.52,1.16.78.31.2.63.43.97.63.14.08.29.16.43.24.39.22.8.43,1.22.63.41.2.84.38,1.28.56.14.06.27.14.41.19.44.17.9.3,1.37.44.56.16,1.13.32,1.72.44.6.11,1.21.19,1.85.24.64.06,1.31.1,2,.1.13,0,.23.03.31.09.08.05.14.12.16.25.02,1.08-.97,1.46-2.04,1.53-.63,0-1.26,0-1.9-.03-1.88-.05-3.75-.2-5.63-.5-.2-.02-.37-.07-.56-.15-.18-.08-.34-.19-.53-.32-.58-.39-1.19-.84-1.81-1.34-.62-.5-1.21-1.02-1.78-1.53-.59-.52-1.13-1-1.6-1.44-.46-.43-.83-.8-1.09-1.06-.27-.24-.48-.44-.66-.63-.17-.18-.32-.36-.44-.5-.23-.28-.33-.47-.46-.65-.07-.09-.14-.17-.22-.25-.25-.26-.65-.54-1.56-1.03-.11-.05-.18-.09-.19-.16,0-.04,0-.07.03-.12.03-.05.06-.11.12-.16.1-.08.22-.14.32-.19.09-.05.18-.1.28-.12.1-.03.2-.06.31-.07h0Z"/>
  </g>
</svg>