<?xml version="1.0" encoding="UTF-8"?>
<svg id="Layer_2" data-name="Layer 2" xmlns="http://www.w3.org/2000/svg" viewBox="0 0 62.57 96.27">
  <defs>
    <style>
      .cls-1 {
        fill: #231f20;
      }

      .cls-1, .cls-2, .cls-3, .cls-4, .cls-5 {
        stroke-width: 0px;
      }

      .cls-1, .cls-2, .cls-3, .cls-4, .cls-5, .cls-6 {
        fill-rule: evenodd;
      }

      .cls-2 {
        fill: #db282e;
      }

      .cls-3, .cls-6 {
        fill: #ec2029;
      }

      .cls-4 {
        fill: #fff;
      }

      .cls-5 {
        fill: #fad236;
      }

      .cls-6 {
        stroke: #231f20;
        stroke-miterlimit: 2.61;
        stroke-width: .66px;
      }
    </style>
  </defs>
  <g id="Layer_1-2" data-name="Layer 1">
    <g>
      <path class="cls-2" d="m31.28,27.04l13.82,3.77.82-3.58,2.86-2.86,2.54-1.98.63-1.63c-1.57-1.57-11.62-6.28-20.67-6.28s-19.1,4.71-20.67,6.28l.63,1.63,2.54,1.98,2.86,2.86.82,3.58,13.82-3.77h0Z"/>
      <path class="cls-1" d="m40.28,35.01c-1.98-.99-4.87-1.83-8.99-1.83s-7.02.85-8.99,1.83c2.85-.85,5.87-1.31,8.99-1.31s6.14.46,8.99,1.31h0Z"/>
      <path class="cls-1" d="m43.04,35.98s.03-.04.04-.06c.12-.22.12-.45.01-.6l.09-.03,1.81-.29-.38-1.73c.24.08.51-.09.67-.3.12-.17.17-.34.14-.49.5-.04,2.2-.24,2.2-1.37v-.78s0-.15,0-.15c.83-.08,1.48-.79,1.48-1.64,0-.75-.5-1.38-1.18-1.58.37-.39.44-.92.44-1.26.29.02.74.05,1.11.05.35,0,.67-.03.89-.06.06.67.33.83.42.87l.1.04.1-.04c.09-.04.37-.24.41-.97.23-.1.62-.33.62-.72s-.36-.62-.57-.72c-.06-.39-.26-.9-.69-1.27l.37-.08c.25.37.66.61,1.14.61.75,0,1.37-.61,1.37-1.37,0-.44-.21-.83-.53-1.08l.02-.17.02-.17s.07,0,.11,0c.75,0,1.37-.61,1.37-1.37s-.61-1.37-1.37-1.37c-.02,0-.05,0-.07,0v-.04c.66-.1,1.17-.66,1.17-1.35,0-.75-.61-1.37-1.37-1.37-.21,0-.42.05-.59.14l-.21-.35c.12-.21.2-.45.2-.71,0-.75-.61-1.37-1.37-1.37-.31,0-.59.1-.81.27l-.6-.29c-.07-.69-.65-1.23-1.36-1.23-.48,0-.9.25-1.15.63h-.14s-.11-.02-.11-.02c0-.75-.62-1.36-1.37-1.36s-1.37.61-1.37,1.37c0,.03,0,.06,0,.09l-.19.03c-.22-.45-.69-.76-1.22-.76-.29,0-.57.09-.79.25l-.25-.23c.04-.12.06-.25.06-.38,0-.75-.61-1.37-1.37-1.37-.5,0-.94.27-1.17.67l-.38-.07c0-.75-.62-1.36-1.37-1.36-.7,0-1.28.53-1.36,1.2h-.32c-.16-.5-.61-.88-1.15-.94h0c0-1.49-.98-2.75-2.32-3.19v-1.89h2.29v-2.26h-2.29V0h-2.01v2.01h-2.29v2.26h2.29v1.87c-1.37.42-2.38,1.69-2.39,3.2v.02c-.52.08-.94.46-1.09.95h-.04s-.28-.01-.28-.01c-.08-.68-.66-1.2-1.36-1.2-.75,0-1.36.61-1.37,1.36l-.38.07c-.24-.4-.67-.67-1.17-.67-.75,0-1.37.61-1.37,1.37,0,.13.02.26.06.38l-.25.23c-.22-.16-.5-.26-.79-.26-.54,0-1,.31-1.22.77l-.07-.02-.11-.02s0-.06,0-.09c0-.75-.61-1.37-1.37-1.37s-1.36.61-1.37,1.36l-.25.02c-.24-.38-.67-.63-1.15-.63-.71,0-1.29.54-1.36,1.23l-.59.29c-.23-.17-.51-.27-.82-.27-.75,0-1.37.61-1.37,1.37,0,.26.07.5.2.71l-.21.35c-.18-.09-.38-.14-.6-.14-.75,0-1.37.61-1.37,1.37,0,.69.51,1.26,1.17,1.35v.04s-.05,0-.08,0c-.75,0-1.37.61-1.37,1.37s.61,1.37,1.37,1.37c.04,0,.07,0,.11,0l.03.23.02.11c-.32.25-.53.64-.53,1.08,0,.75.61,1.37,1.37,1.37.47,0,.89-.24,1.14-.61l.37.08c-.43.37-.63.88-.69,1.27-.21.1-.57.33-.57.72s.38.62.62.72c.04.74.32.93.41.97l.1.04.1-.04c.09-.03.36-.2.42-.87.22.03.54.06.89.06.38,0,.83-.03,1.12-.05,0,.34.07.87.44,1.26-.68.2-1.18.83-1.18,1.58,0,.85.65,1.55,1.48,1.64v.13s0,.8,0,.8c0,1.13,1.7,1.34,2.2,1.37-.03.15.02.33.14.49.16.22.43.39.67.31l-.38,1.73,1.91.3c-.12.15-.12.39,0,.61.01.02.03.04.04.06C8.08,40.63,0,51.86,0,64.98c0,17.28,14.01,31.28,31.28,31.28s31.28-14.01,31.28-31.28c0-13.12-8.08-24.35-19.53-29h0Zm-11.75-2.81c4.13,0,7.02.85,8.99,1.83-2.85-.85-5.87-1.31-8.99-1.31s-6.15.46-8.99,1.31c1.98-.99,4.87-1.83,8.99-1.83h0Zm10.18-7.54c.74,0,.97.12,1.24.31l.4.28v-.49c0-.2.05-.34.17-.43.23-.2.67-.18.82-.16l.16.03.09-.13c.11-.16.24-.54-.04-.82l-.07-.07h-.1c-.16,0-.28-.03-.33-.09-.11-.12-.11-.43-.1-.76v-.5s-.25,0-.25,0c-.5,0-.78-.03-.93-.07.26-.28.66-.79.66-1.38v-.25h-.25c-.25,0-.57-.5-.77-1.22.73-.02,1.32-.63,1.32-1.36,0-.48-.25-.9-.62-1.15l.04-.19s.07,0,.1,0c.75,0,1.37-.61,1.37-1.37s-.56-1.31-1.26-1.36l-.02-.2c.12-.03.23-.07.33-.13l.15.22h.13c3.06,0,6.71,1.43,6.72,8.26-.28-.14-.61-.22-1.03-.22-1.12,0-1.47.33-1.76.59-.18.17-.29.27-.61.27-.78,0-1.03-.7-1.04-.73l-.09-.25-.14.08-.31.13c-.21.2-.31.59-.31,1.19,0,.88.68,1.68,1.06,2.06-.53.39-1.62,1.41-1.62,3.21,0,.14.02.29.04.43-.87-.17-1.1-1.07-1.11-1.11l-.18-.75-.3.72s-.19.45-.88.45c-.74,0-1.26-.71-1.26-1.74s.38-1.3.61-1.3h0Zm-8.1-.98c.23,0,.71.19.96.31l.31.15.05-.34s.24-1.52,1.01-1.52v-.5c-.58,0-.94-.98-1.03-1.36l-.06-.23-.24.05c-.44.09-.93.08-1.27.05.2-.36.46-.94.46-1.48v-.2l-.2-.04c-.13-.03-.28-.1-.44-.21l.04-.05c.07-.08,1.63-1.92,1.63-4.16,0-1.16-.48-2.24-.54-2.37.37-.08.83-.14,1.4-.14,2.39,0,4.92,1.84,4.92,5.26,0,.5-.32,1.76-.51,2.42l-.03.09h-.07l-.07.07c-.21.21-.28.5-.28.79,0,.24.05.48.11.67-.33-.01-.77-.08-.98-.28l-.43-.43v.61c0,.25-.05.42-.14.52-.14.14-.43.14-.73.13h-.3s-.04.2-.04.2c-.04.17-.06.36-.01.57l.05.19h.2c.1,0,.18.03.24.1.21.22.22.74.21.91l-.02.32.31-.05s.66-.11,1.04.22c.2.17.3.43.3.79,0,.45-.34,1.74-1.38,1.74-.97,0-1.36-.91-1.38-.95l-.18-.44-.26.4s-.43.64-1.57.64-2.14-.66-2.14-1.47.67-.94,1.07-.94h0Zm-6.22-12.06c.57,0,1.03.06,1.4.14-.06.14-.54,1.21-.54,2.37,0,2.25,1.57,4.09,1.63,4.16l.04.05c-.16.11-.31.19-.44.21l-.2.04v.2c0,.55.26,1.12.46,1.48-.33.02-.83.03-1.27-.05l-.24-.05-.06.23c-.09.38-.45,1.36-1.03,1.36v.5c.77,0,1,1.51,1.01,1.52l.05.34.31-.15c.25-.12.73-.31.96-.31.4,0,1.07.12,1.07.94s-.96,1.47-2.13,1.47-1.55-.61-1.57-.64l-.26-.4-.18.44s-.41.95-1.38.95c-1.04,0-1.38-1.29-1.38-1.74,0-.36.1-.62.3-.79.38-.32,1.03-.22,1.04-.22l.31.05-.02-.32c-.01-.17,0-.69.21-.91.06-.07.14-.1.24-.1h.2l.05-.19c.05-.21.02-.4-.01-.57l-.04-.2h-.3c-.31,0-.6,0-.73-.13-.09-.09-.14-.26-.14-.52v-.61l-.43.43c-.21.21-.64.27-.97.28.06-.19.11-.43.11-.67,0-.28-.07-.57-.28-.79l-.07-.07h-.07l-.03-.09c-.19-.66-.51-1.92-.51-2.42,0-3.41,2.54-5.26,4.92-5.26h0Zm-7.85,14.92l-.18.75s-.25.95-1.11,1.11c.01-.15.04-.3.04-.43,0-1.8-1.09-2.82-1.62-3.21.38-.38,1.06-1.18,1.06-2.06,0-.6-.1-.99-.31-1.19l-.56-.23.02.27s-.26.73-1.04.73c-.32,0-.43-.1-.61-.27-.28-.26-.64-.59-1.76-.59-.41,0-.75.09-1.03.22.01-6.83,3.66-8.26,6.72-8.26h.13l.15-.22c.1.06.21.1.33.13h0s-.02.2-.02.2c-.71.05-1.26.64-1.26,1.36s.61,1.37,1.37,1.37c.03,0,.07,0,.1,0l.04.19c-.37.24-.62.67-.62,1.15,0,.74.59,1.34,1.32,1.36-.2.72-.51,1.22-.77,1.22h-.25v.25c0,.59.4,1.1.66,1.38-.16.03-.44.07-.93.07h-.25v.5c0,.07,0,.14,0,.21,0,.25-.02.46-.11.55-.06.06-.17.09-.33.09h-.1l-.07.07c-.17.17-.21.42-.11.68.04.09.1.25.28.25h.04c.15-.03.59-.05.82.15.11.1.17.24.17.43v.49l.4-.28c.26-.19.49-.31,1.24-.31.23,0,.61.27.61,1.3s-.52,1.74-1.26,1.74c-.68,0-.87-.43-.88-.45l-.29-.71h0Zm12,57.7c-11.15,0-20.23-9.08-20.23-20.23s9.07-20.23,20.23-20.23,20.23,9.07,20.23,20.23-9.07,20.23-20.23,20.23h0Z"/>
      <path class="cls-6" d="m31.28,34.45C14.45,34.45.75,48.15.75,64.98s13.7,30.53,30.53,30.53,30.53-13.7,30.53-30.53-13.7-30.53-30.53-30.53h0Zm0,51.51c-11.57,0-20.98-9.41-20.98-20.98s9.41-20.98,20.98-20.98,20.98,9.41,20.98,20.98-9.41,20.98-20.98,20.98h0Z"/>
      <path class="cls-4" d="m11.06,64.98c0,11.15,9.07,20.23,20.23,20.23s20.23-9.08,20.23-20.23-9.07-20.23-20.23-20.23-20.23,9.07-20.23,20.23h0Z"/>
      <path class="cls-4" d="m6.29,68.6l.16-1.34c.38.02.71.09.98.23.28.14.5.33.68.58.17.25.3.58.38,1,.1.51.1.94,0,1.29-.09.35-.3.68-.64.98-.34.31-.8.51-1.39.63-.79.15-1.44.06-1.94-.28-.5-.33-.82-.87-.96-1.63-.11-.59-.08-1.08.1-1.46.18-.38.51-.7.98-.96l.53,1.22c-.14.07-.24.14-.29.2-.1.1-.17.22-.21.35-.04.13-.04.26-.02.41.06.33.24.55.55.68.23.1.55.1.98.02.53-.1.88-.25,1.05-.44.17-.19.22-.43.17-.72-.05-.28-.17-.47-.36-.58-.19-.11-.44-.17-.75-.18h0Z"/>
      <path class="cls-4" d="m3.23,63.25l.05-1.47,2.89.09c.29,0,.56.06.81.16.25.1.47.24.65.43.19.19.31.39.38.6.1.29.14.63.13,1.04,0,.23-.03.49-.07.76-.04.27-.12.5-.22.68-.1.18-.25.35-.43.49-.19.15-.38.25-.57.3-.31.08-.59.12-.83.11l-2.89-.09.05-1.47,2.96.1c.26,0,.47-.06.63-.2.15-.14.23-.34.24-.59,0-.25-.06-.46-.2-.61-.14-.15-.35-.23-.62-.24l-2.96-.1h0Z"/>
      <polygon class="cls-4" points="3.56 60.1 3.9 58.67 7.46 59.53 8 57.29 9.16 57.57 8.28 61.23 3.56 60.1 3.56 60.1"/>
      <polygon class="cls-4" points="4.63 55.81 6.42 51.72 7.52 52.2 6.92 53.58 10.26 55.04 9.68 56.38 6.33 54.92 5.73 56.3 4.63 55.81 4.63 55.81"/>
      <path class="cls-4" d="m8.93,47.95l.86-1.19,2.35,1.69c.23.17.43.36.58.58.16.22.26.46.3.73.05.26.04.5-.02.71-.08.3-.24.61-.47.93-.14.19-.3.38-.48.59-.19.2-.37.35-.56.44-.19.09-.4.15-.64.17-.24.02-.45,0-.64-.07-.3-.11-.55-.23-.75-.37l-2.35-1.69.86-1.19,2.41,1.73c.21.16.43.22.63.19.21-.03.38-.15.53-.36.15-.21.21-.41.17-.61-.04-.2-.16-.38-.38-.54l-2.41-1.73h0Z"/>
      <path class="cls-4" d="m14.24,49.06l-3.24-3.61,1.82-1.64c.34-.3.62-.51.86-.61.23-.1.47-.12.73-.06.25.06.48.21.69.44.18.2.29.41.34.63.05.22.04.44-.03.66-.04.14-.13.3-.26.49.17-.07.3-.11.4-.12.07,0,.18,0,.35.03.16.03.28.06.36.09l1.47.57-1.24,1.11-1.58-.58c-.2-.08-.35-.11-.45-.1-.13.02-.24.07-.34.16l-.1.09,1.32,1.47-1.1.99h0Zm-.83-3.14l.46-.41s.13-.15.25-.31c.06-.08.08-.17.08-.27,0-.1-.05-.19-.12-.27-.1-.12-.22-.17-.35-.17-.13,0-.29.09-.49.27l-.48.43.66.73h0Z"/>
      <path class="cls-4" d="m20.06,43.71l-1.45.83.2.81-1.3.75-.88-5.09,1.4-.8,3.97,3.32-1.33.77-.61-.58h0Zm-.79-.76l-1.32-1.25.42,1.77.9-.52h0Z"/>
      <polygon class="cls-4" points="20.7 38.9 22.09 38.43 23.25 41.9 25.44 41.16 25.82 42.3 22.24 43.5 20.7 38.9 20.7 38.9"/>
      <polygon class="cls-4" points="27.66 37 29.3 36.94 30.32 38.54 31.22 36.87 32.84 36.81 31.09 39.7 31.17 41.73 29.69 41.78 29.62 39.75 27.66 37 27.66 37"/>
      <path class="cls-4" d="m36.64,37.32l2.11.57c.42.11.74.26.96.45.22.19.39.41.5.67.11.26.16.54.16.85,0,.31-.05.62-.13.94-.14.5-.3.87-.48,1.12-.19.25-.41.43-.65.57-.25.13-.5.2-.74.2-.33,0-.63-.03-.88-.1l-2.11-.57,1.27-4.68h0Zm1.13,1.45l-.7,2.56.35.09c.3.08.52.1.66.07.14-.03.28-.12.39-.27.12-.15.23-.41.33-.78.13-.5.15-.86.04-1.09-.11-.23-.35-.39-.72-.49l-.36-.1h0Z"/>
      <polygon class="cls-4" points="42.26 39.05 45.78 40.84 45.31 41.76 43.11 40.64 42.76 41.33 44.8 42.36 44.35 43.25 42.32 42.21 41.88 43.06 44.14 44.21 43.65 45.19 40.07 43.38 42.26 39.05 42.26 39.05"/>
      <path class="cls-4" d="m47.09,41.69l1.93,1.51c.42.33.65.68.7,1.04.05.37-.07.74-.37,1.11-.3.39-.65.6-1.05.64-.4.04-.83-.13-1.3-.49l-.64-.5-1.11,1.41-1.16-.91,3-3.82h0Zm-.12,2.54l.29.22c.22.18.41.26.57.25.15,0,.28-.07.38-.2.09-.12.13-.25.12-.4-.01-.15-.13-.3-.35-.47l-.33-.26-.67.85h0Z"/>
      <path class="cls-4" d="m49.4,46.65c.61-.51,1.22-.74,1.84-.69.62.05,1.17.37,1.67.96.51.61.73,1.22.68,1.83-.06.61-.39,1.16-.99,1.66-.44.36-.85.59-1.25.68-.4.09-.79.06-1.17-.08-.38-.14-.74-.42-1.08-.82-.34-.41-.56-.81-.66-1.19-.09-.38-.06-.78.09-1.19.15-.41.44-.8.88-1.16h0Zm.94,1.13c-.38.31-.59.61-.64.88-.05.28.02.53.22.77.2.24.44.37.72.37.27,0,.62-.18,1.03-.52.35-.29.55-.58.59-.85.04-.27-.03-.53-.23-.77-.19-.23-.43-.34-.71-.35-.28,0-.61.16-.99.47h0Z"/>
      <path class="cls-4" d="m50.97,52.47l4.31-2.23,1.13,2.17c.21.4.33.73.37.98s0,.49-.12.72c-.12.23-.32.42-.6.56-.24.12-.47.18-.7.17-.22,0-.44-.08-.63-.2-.13-.08-.26-.2-.41-.37.03.18.03.32.02.42-.01.07-.05.17-.12.33-.07.15-.13.26-.17.32l-.92,1.28-.77-1.48.96-1.38c.12-.18.19-.31.21-.41.02-.13,0-.25-.07-.37l-.06-.12-1.75.91-.68-1.31h0Zm3.25-.02l.29.55c.03.06.11.16.24.32.06.08.14.12.24.14.1.02.2,0,.29-.05.14-.07.22-.17.25-.3s-.02-.31-.14-.54l-.3-.57-.87.45h0Z"/>
      <polygon class="cls-4" points="57.7 55.16 58.92 59.46 57.77 59.78 57.36 58.34 53.85 59.34 53.45 57.93 56.96 56.93 56.55 55.49 57.7 55.16 57.7 55.16"/>
      <polygon class="cls-4" points="59.07 60.71 59.25 62.18 54.43 62.78 54.25 61.32 59.07 60.71 59.07 60.71"/>
      <polygon class="cls-4" points="59.45 63.35 59.4 64.89 55.87 65.84 59.33 67.01 59.28 68.5 54.49 66.58 54.54 64.99 59.45 63.35 59.45 63.35"/>
      <path class="cls-4" d="m54.51,71.25l.38-1.63-.73-.41.34-1.46,4.32,2.83-.37,1.57-5.13.64.35-1.5.83-.05h0Zm1.1-.07l1.82-.11-1.58-.9-.24,1.01h0Z"/>
      <polygon class="cls-4" points="10.79 76.42 11.6 77.65 8.54 79.67 9.81 81.58 8.82 82.24 6.74 79.1 10.79 76.42 10.79 76.42"/>
      <polygon class="cls-4" points="15.18 82.07 18.25 84.53 17.6 85.34 15.68 83.8 15.2 84.4 16.98 85.83 16.36 86.6 14.58 85.17 13.98 85.92 15.96 87.5 15.27 88.36 12.14 85.85 15.18 82.07 15.18 82.07"/>
      <path class="cls-4" d="m20.34,88.52c.26-.75.68-1.26,1.23-1.53.56-.27,1.2-.28,1.93-.02.75.27,1.25.67,1.51,1.23.26.55.26,1.2,0,1.94-.19.54-.43.94-.73,1.22-.3.28-.65.46-1.05.53-.4.07-.85.02-1.35-.16-.51-.18-.9-.41-1.17-.69-.27-.28-.45-.64-.53-1.07-.08-.43-.03-.91.17-1.45h0Zm1.38.5c-.16.46-.2.82-.1,1.09.1.26.29.45.58.55.3.11.57.09.8-.05.23-.14.44-.46.62-.98.15-.43.18-.78.08-1.04-.1-.26-.3-.44-.59-.54-.28-.1-.54-.08-.78.06-.24.14-.45.45-.61.91h0Z"/>
      <polygon class="cls-4" points="29.19 88.41 30.56 88.4 32.39 91.08 32.36 88.39 33.75 88.38 33.79 93.23 32.4 93.24 30.59 90.58 30.61 93.26 29.23 93.27 29.19 88.41 29.19 88.41"/>
      <polygon class="cls-4" points="37.32 87.69 41.03 86.37 41.38 87.34 39.06 88.17 39.32 88.9 41.47 88.13 41.8 89.06 39.65 89.83 39.97 90.73 42.36 89.88 42.73 90.91 38.95 92.26 37.32 87.69 37.32 87.69"/>
      <path class="cls-4" d="m45.94,87.35l1.05-.93c.17.16.32.27.47.3.24.06.47,0,.7-.17.17-.13.26-.27.29-.42.03-.15,0-.28-.08-.38-.08-.1-.19-.16-.34-.17-.15-.01-.4.07-.77.24-.6.28-1.08.41-1.45.39-.37-.02-.67-.18-.91-.48-.15-.2-.24-.43-.27-.69-.02-.26.04-.53.18-.81.15-.27.42-.57.81-.87.48-.37.92-.57,1.31-.58.39-.01.77.16,1.13.52l-1.04.92c-.16-.15-.32-.23-.48-.23-.16,0-.31.05-.48.18-.14.11-.21.21-.24.33-.02.11,0,.21.06.29.05.06.12.09.21.1.09,0,.26-.05.5-.16.59-.28,1.05-.46,1.35-.51.31-.06.58-.04.81.05.23.09.43.24.59.45.19.25.3.52.33.84.03.31-.04.61-.19.91-.16.29-.42.58-.78.87-.64.5-1.18.72-1.62.66-.44-.06-.83-.27-1.17-.63h0Z"/>
      <path class="cls-4" d="m54.68,79.38l-.92,1.39.54.63-.83,1.25-3.07-4.16.89-1.35,5.04,1.18-.85,1.29-.8-.24h0Zm-1.05-.32l-1.74-.53,1.17,1.39.57-.87h0Z"/>
      <path class="cls-1" d="m45.09,57.82c.46-.1,1.07-1.02,1.12-2.11-.58.23-1.19.61-1.63.43.64-1.02.43-1.42-.36-2.31.08.53-.23,1.14-.99,1.57-.51-.33-3.15-.99-4.22.94-1.07,1.93-.94,3.68.03,6.25-.86-.05-1.32,1.02-.86,1.91,1.22-1.32,2.16-.05,2.39.43.23.48.89,1.27-.35,2.16-1.25.89-2.39-.36-4.67-2.59.08-.13,0-.13.1-.3-.71-.46-.38-1.55-.23-1.75.15-.2.13-.53-.36-1.55.46.46,1.58.43,1.88-.1-.38-.15-.48-.33-.61-.91.18.31.46.13,1.17-.03-.18-.48-.25-1.27-.1-2.59.23.41.38.33.99.23-.15-.74.03-1.09.15-1.8.13-.71-.13-1.5,0-2.11,0,0-.02-.1.02-.11.4-.17.74-.31,2.17-.38h.15s-.02-.16-.02-.16c-.04-.36-.33-.43-.74-.49-.04-.1-.12-.17-.24-.18-.16-.02-.38.07-.49.22-.12-.02-.21-.07-.23-.16-.02-.09.03-.21.17-.3.14.07.33.06.46-.06.13-.11.18-.3.09-.5.07-.12.06-.27-.05-.41-.13-.16-.36-.24-.57-.15-.18-.08-.41-.01-.53.13-.09.1-.11.23-.07.34-.09.06-.18.09-.27.06-.13-.04-.26-.16-.29-.31-.01-.06-.02-.13,0-.2.06.02.12.03.19.01.16-.03.29-.16.33-.31.03-.11,0-.22-.07-.32.14-.21.1-.41-.01-.53-.15-.16-.43-.19-.67-.02-.2-.06-.41.05-.52.21-.07.1-.07.21-.03.31-.15.13-.31.12-.42.05-.11-.07-.19-.21-.15-.37.16,0,.31-.08.39-.24.09-.16.08-.33-.01-.46.01-.08,0-.17-.04-.26-.08-.13-.23-.21-.37-.21-.07,0-.18.03-.27.16-.13,0-.24.08-.3.21-.06.13-.06.28,0,.4-.13.1-.22.12-.27.1-.07-.04-.11-.19-.09-.38.09-.06.15-.16.15-.29,0-.18-.11-.38-.29-.47-.07-.25-.22-.4-.46-.42l-.23-.02.08.21c.13.37-.1,1.63-.38,2.42l-.09.05c-.99.48-3.13-.04-3.28.05-.15.1-1.02,1.25-.94,1.7,1.93.23,1.96.61,2.11.91-.18-.03-.84-.28-1.96-.33-1.12-.05-2.13-.69-1.75-1.45.38-.76-.91-1.07-1.12-.38-.58,2.03,1.65,2.59,2.34,2.62.69.03.71.1,1.45.38-.23-.05-.94-.2-1.14-.1-.2.1-.2,1.4-.05,1.55.15.15.84-.1,1.35-.1-.56.74-2.34.23-2.95.13.03.25-.13.46.08.79-.58.13-1.75-.38-2.21-.53-.23-.36-.51-.94-1.45-1.88-.94-.94-1.45-1.35-1.98-2.36-.53-1.02-.86-1.35-1.12-1.27-.05-.23-.28-.46-.64-.61-.08.18-.08.58.03.81,0,0-.05.05-.13.23-.91-.97-1.25-.84-1.52-.79-.61-.25-.84-.08-1.3.13.13.08.38.38.79.56-.05.15.05.43.74,1.27-.91-.1-1.09.08-1.27.2-.36.03-.74.48-.84.81.23.08.48.13.79.13.05.13.23.28,1.55.71-.1.05-.23.15-.36.3-.15.03-.28.18-.48.46.13.08.48.2.76.18,1.63.23,2.26.51,2.18,1.55-.08,1.04.15,1.02.81,1.29-.05.36-.03.94.03,1.27.2,0,.41-.13.76-.43,0,.3.23.84.51,1.14.08-.1.15-.1.23-.2.08.48.36.96.61,1.27-.05.03.03.1-.05.28.1.03-.03.13.89.18-.53.18-1.07.53-2.82,1.7-1.75,1.17-1.88.92-2.39.46-.51-.46-.74-.59-.97-.56-.18-.08-.43-.28-.99-.05.05.13.23.36.74.58,0,0,0,.2.28.41-.43-.05-.79.05-.94.15-.18,0-.79.33-.97.76.15,0,.43,0,.89-.08.08.1.28.3.94.41-.74.15-.94.46-1.09.61-.18.05-.46.3-.61.66.13.08.48.05.89.02.1.08.43.15.91.25-.25.1-.25.28-.3.51-.2.1-.46.53-.43.74.25-.05.56-.1.79-.18,1.45.13,1.73-.46,1.93-.74.2-.28,1.75-.23,2.64-1.29.13.2.13.41.13.76.38-.05,1.04-.36,1.37-.81.05.08.05.2.1.38.25.03.66-.15,1.14-.48.05.28.89.3,1.42.05.28.2-.25.91-.28,1.17.58.13.79,0,1.4-.41-.1.23-.13.63-.13.89.13.03.53.08.86-.08-.02.18.1.3.2.51-1.78-.15-3.56.1-4.37.61-.81.51-1.17.94-1.2,2.41-.02,1.47-.94,1.88-1.29,2.03.3.38,1.12.43,1.58.15-.1.46-.61,1.17-.51,1.17-1.07,2.79-1.68,2.19-2.49,1.78-.81-.41-1.17-.38-1.4-.28-.33-.13-1.14.18-1.3.46.15-.03.74.05,1.17,0,.13.08.1.1.25.15-.25.03-.76.28-.84.61-.48.25-.51.79-.46,1.17.23-.18.46-.41.81-.48.13.05.13.08,1.09-.05-1.07.2-1.04.58-1.04.84-.25.15-.53.76-.53,1.2.36-.25.97-.31,1.4-.43.28.13.63.15,1.22-.18-.23.2-.23.33-.25.53-.33.1-.51.53-.51.99.2-.08.64-.23,1.07-.46.41.1.97-.05,1.86-1.14.15.13.2.36.51.66.23-.15.33-.87.74-1.35.2.05.33.28.51.46.2-.23.33-1.12.25-1.6.2.13.3.25.51.51.99-.69.89-1.52.74-2.03.15-.1.48-.66.58-1.17.28.08.66.71,1.02.84.25-.31.3-1.68-.25-2.77.41-1.37.94-1.12,3.86-1.55,1.93,2.11,1.2,2.57,1.12,3.12.3.15.63-.02.94-.2-.05.41,0,.53.51.53.15-.51.76-.61,1.27-.99-.1.51-.13,1.02.33,1.17.61-1.07.89-.84,1.27-1.02-.05.2-.23.48-.05.79.33.03.56-.15.84-.25.23.08.25,0,.74.96.48.97-.48,1.58-1.47,1.98-.99.41-.99.53-1.02.74-.15.03-.38.33-.43.64.15.02.46-.03.74-.08.13.13.13.1.43.13-.71.13-.76.51-.81.71-.36.3-.36.74-.25.99.25-.13.41-.15.74-.31.13.05.18.08.86-.15-.13.1-.18.2-.18.46-.33.3-.18.76-.05.99.18-.2.25-.36.48-.46.18.08.48.1.99-.2-.13.31-.02.53,0,.81.18-.1.38-.28.58-.53.15,0,.74-.33,1.4-1.68.18,0,.31.05.64.15.15-.13.2-.41.13-.91.18.2.33.28.68.25.05-.23-.02-.53-.2-.94.31.08.43.05.71-.1-.03-.25-.3-.71-.74-1.09.13.03.2.08.48.05.02-.23.1-.38-.23-.94.25.1.2,0,.66-.05-.03-.36-.3-1.58-1.17-2.36-.86-.79-.58-1.02-.33-1.55-.53-.33-1.09-.61-2.26-.58-.13-.15-.3-.3-1.22-2.13,2.84-.02,3.23-2.54,2.36-4.06-.86-1.53-.28-1.8.61-2.11-.48-.61-1.52-1.07-2.18-.53-.53-.81-.56-2.21-.25-3.07.31-.86.99-1.17,1.88-.66.89.51.63,1.6.66,2.16.38.08,1.17-.97,1.14-1.75.84,2.29,1.12,2.59,2.51,2.29-1.35-.66-1.02-2.24-1.24-3.02h0Z"/>
      <path class="cls-3" d="m32.22,54.37c-.37-.07-1.33-.78-2.25-.7-.92.07-2.1-.63-2.21-1.62-.11-1,.59-1,.77-.81.18.18-.07.63-.04.88.04.26.26.96,1.36,1.11,1.11.15,1.81.15,2.58.48,0,.37-.07.44-.22.66h0Z"/>
      <path class="cls-3" d="m35.22,62.19c-.35.53-.62,1.6.11,2.21-.81.1-1.04.03-1.4-.33-.41.28-.63.71-.61,1.02-.64-.25-1.52-.99-1.47-1.91-.56.23-.86.91-.92,1.32-.48-.56-.86-.81-1.17-1.07-.58.66-.89,1.07-1.37,1.09.08-1.04-.08-1.58-.23-1.85.66.08,1.85,0,2.26-.69-.79.33-1.42.3-1.78.2.51-.61.66-1.17.71-1.42-.43.38-.46.74-.84.96-.38.23-.38.91-1.96.86.69-.51,1.04-1.09,1.07-1.6s.63-.86,1.8-.91c-.56-.31-1.55-.28-1.88.28-.33.56-1.58.84-2.13.53.56-.61.58-1.58,2.51-1.63-.99-.28-2.57-.56-2.97-1.85,1.4.61,3.58.76,3.91.71.41.76,1.32.94,1.88.86-.15.41-.25.71-.3,1.12.71-.05,1.68-.38,1.85-.53-.28,1.22-.33,2.21-.28,2.46.53-.23,1.12-.66,1.55-.66.38.48,1.02.63,1.64.81h0Z"/>
      <path class="cls-3" d="m29.9,57.62c-.94.13-2.87.28-3.33-1.27,1.3.48,1.5.69,2.34.53.2.33.56.56.99.74h0Z"/>
      <path class="cls-6" d="m26.87,57.49c-.91-.07-1.85-.42-2.06-.73-.1.45-.04,1.64,1.54,2.51-.56.66-.66.87-1.15,1.22-.21-.52-.52-1.05-.49-1.36-.31.31-.56.31-.73-1.19-.14.46-.56.7-.77.73.04-.38.17-1.08,0-1.22-.17-.14-.77-.14-.77-.52s.1-.98-.04-1.22c-.14-.24-.45-.88-1.29-.91-1.08-.03-1.05-.17-1.12-.35-.07-.17,0-.28.59-.59-1.81-.59-1.92-.66-1.88-1.08.04-.42-.1-.59,1.75-.52-1.15-1.36-1.26-1.43-.98-1.78.28-.35.63-.45,1.92.91,0-.63.03-.56.28-.66.24-.11.49-.21,1.12.94.46.84.8,1.47,1.46,1.99.66.52,1.5,1.64,2.62,3.84h0Z"/>
      <path class="cls-3" d="m19.2,50.58c-.24-.07-.21-.17-.56-.28.38-.21.63-.17.84-.1q-.14.14-.28.38h0Z"/>
      <path class="cls-3" d="m21.78,50.44c-.17,0-.17.07-.31.14-.11-.35-.11-.38-.07-.52.21.11.28.25.38.38h0Z"/>
      <path class="cls-3" d="m18.57,52.43c-.38.25-.42.28-.56.56.24.07.28-.07.52.04-.07-.28,0-.42.04-.59h0Z"/>
      <path class="cls-3" d="m19.75,54.42c-.21.07-.14.1-.28.21.14.11.42.07.42.07,0,0-.03-.07-.14-.28h0Z"/>
      <path class="cls-6" d="m27.31,60.99c-1.22.53-1.4.46-3.18,1.6-1.78,1.14-2.51,1.98-3.4,1.02-.89-.97-.77-.55-.86-.46-.18.18,0,.33.43.74-1.32.05-1.35.1-1.35.38s.15.3,1.4.69c-1.4.51-1.55.71-1.47.96.08.25.28.31,1.45.46-.51.43-.63.63-.43.91.2.28.23.18.84.1.61-.08.72-.22.94-.56.41-.63,1.63-.05,2.95-1.6.13.36.23.58.2.89.76-.23,1.07-.66,1.24-1.04.1.43.13.38.18.61.41-.08.86-.33,1.09-.61-.03.41.43.56,1.25.18.03-.18.05-.36.1-.48-.33.1-.41.05-.53.05.08-.58-.13-1.83-.23-2.08-.74.15-1.52.23-1.85-.13.58-.53,1.35-1.02,1.25-1.62h0Z"/>
      <path class="cls-3" d="m19.74,62.9c-.23-.1-.33-.15-.66-.08.23.18.46.3.53.33.05-.1.05-.15.13-.25h0Z"/>
      <path class="cls-3" d="m18.77,64.09c-.33.13-.43.31-.53.43.28-.03.28-.05.51-.05-.03-.15-.03-.2.03-.38h0Z"/>
      <path class="cls-3" d="m18.72,65.77c-.18.15-.28.15-.38.41.25-.05.36,0,.51,0-.08-.15-.13-.25-.13-.41h0Z"/>
      <path class="cls-3" d="m19.64,67.22c-.15.18-.23.26-.3.43.25,0,.38-.13.51-.13-.08-.1-.13-.2-.2-.31h0Z"/>
      <path class="cls-6" d="m30.99,67.8c-2.01,0-3.84-.05-4.75.76-.91.81-.79,1.32-.81,1.85-.03.54-.03,1.91-1.22,2.24.56.23,1.02.28,1.6-.46-.18.81-.28,1.42-.58,1.58.61.36.63.18,1.02-.05.13.81.48,1.27.56,1.47.38-.66.63-1.07.58-1.37.36.71.66.76.79,1.3.36-.53.51-.86.46-1.4.51.28.86.58,1.12.94.2-.74,0-1.85-.38-2.41.33-1.4.51-1.63,4.11-1.86.2-.63,1.12-1.68-2.49-2.59h0Z"/>
      <path class="cls-6" d="m25.18,74.05c-.97,2.01-1.35,2.67-2.49,1.96-1.14-.71-1.55-.48-1.57-.36-.03.33.41.23.53.48-.91.05-1.22.38-1.04.76.18.38.18.33.99.23.81-.1.66.05.94.25-1.2.08-2.06.46-1.2,1.07.86.61,1.07.28,1.2.2.13-.07.56-.35.89-.1-.48.15-.81.76-.46.94.36.18.96.41,2.03-1.14.25.38.28.08.48.69.13-.74.63-1.04.61-1.45.36.28.48.23.64.51.15-.53.1-1.42.02-1.88.41.61.66.43.76.86.53-.58.76-.63.56-1.65-.18-.33-.23-.76-.53-1.04-.2.46-.51.92-.66,1.12-.46-.36-.69-.99-.79-1.37-.33.08-.48.08-.91-.08h0Z"/>
      <path class="cls-3" d="m20.98,75.55c-.43.05-.56,0-.97.25.48,0,.74-.05.97-.02-.05-.08,0-.2,0-.23h0Z"/>
      <path class="cls-3" d="m20.42,76.85c-.38.38-.28.36-.41.69.48-.38.2-.25.58-.3-.2-.18-.1-.2-.18-.38h0Z"/>
      <path class="cls-3" d="m20.96,78.29c-.33.28-.38.43-.53.76.41-.18.69-.33,1.12-.33-.38-.1-.38-.15-.58-.43h0Z"/>
      <path class="cls-3" d="m22.66,79.44c-.18.15-.33.36-.38.53.33-.15.53-.28.69-.28-.13-.1-.2-.13-.31-.25h0Z"/>
      <path class="cls-6" d="m35.4,64.64c2.32,2.99,3.91,3.29,5,2.81,1.14-.51,1.02-1.74.25-2.92-.44-.68-1.37-1.45-2.43-.35-.17-.93.5-1.47,1.14-1.43-1.18-3.33-1.1-4.21-.42-5.86.67-1.64,2.66-1.86,3.41-1.64-.72.38-.67.34-1.05.76,1.1-.21,1.64-.04,2.44.25.8.3,1.22.34,2.23-.17-.3.8-.59,1.49-1.14,1.53-.63-.46-1.27-1.03-1.94-.9.97.46,2.02,1.1,2.11,2.19.08,1.09.3,1.56.84,1.85-.88.08-1.1-.38-1.43-1.52-.34-1.14-.46-1.14-1.39-1.64.55.97.97,1.56-.08,2.32.13-1.05-.21-1.69-1.05-2.15-.84-.46-1.64,0-1.98,1.01-.34,1.01-.25,2.28.42,3.46.59-.55,1.1-.55,1.9.08-.8.04-1.35.76-.97,1.48.38.72.99,1.55.87,2.56-.13,1.01-.78,1.87-3.06,2.04,1.05,1.39.97,2.44,1.77,2.7.76-.25,1.6.13,1.94.29-.17.34-.59.8.38,1.6.97.8,1.14,1.56,1.18,2.07-.51,0-.51.08-.89-.13.21.51.51.55.51,1.14-.55-.08-.34-.25-.88-.25.38.55,1.1,1.01,1.1,1.35-.59-.04-.55.12-.97-.25.13.42.51.76.55,1.22-.46-.04-.67-.84-.76-.38-.08.46.17.59-.04.97-.34-.13-.46-.13-.63-.13-.46,1.26-1.1,1.9-1.48,1.64-.38-.25.08-.29.38-.84-1.01.76-1.35,1.1-1.77.72-.42-.38-.25-.51.76-1.22-1.48.46-1.6.67-1.94.25-.34-.42-.34-.67,1.18-1.1-.97-.17-.97,0-1.18-.38-.21-.38-.17-.42,1.01-.84,1.18-.42,1.73-1.05,1.52-1.73-.21-.67-.55-1.47-.97-1.52.17-.46.29-.51.17-.72-.34.42-.38.8-1.01.97-.04-.55.55-.93.38-1.73-.34.72-.42,1.05-.93,1.05s-.51.51-.88.84c-.34-.38.25-1.43.08-2.02-.29.8-.38,1.01-.84,1.18-.46.17-.8.34-.93.76-.42-.04-.04-.29-.13-.84-.55.59-.63.42-.93.51.38-.67.34-1.26-1.05-2.91.29-1.18,1.05-2.06-2.57-3.16-.29-.46-.42-.55-.42-.88-.51.38-.67.38-.93.34,0-.51.29-.46.08-1.01-.55.55-.67.63-1.35.59.21-.51.59-.8.29-1.18.21-.46.34-1.09.8-1.43.42.55.89.8,1.48.93.13-.63-.08-.8.46-1.1.21.63,1.22,1.47,1.85,1.64.13-.34,0-.63.42-.97.38.29.97.29,1.52.21h0Z"/>
      <path class="cls-3" d="m40.8,80.4q-.08.13-.23.25c.03-.15,0-.13.05-.41.1.05.25.03.18.15h0Z"/>
      <path class="cls-3" d="m39.15,80c-.15.18-.23.18-.15.63.23-.28.18-.3.3-.38-.1-.13-.1-.1-.15-.25h0Z"/>
      <path class="cls-3" d="m37.98,79.06c-.2.18-.28.23-.28.58.23-.08.28-.2.53-.23-.13-.15-.18-.18-.25-.35h0Z"/>
      <path class="cls-3" d="m38.08,77.63c-.3.15-.3.2-.38.33.2-.03.23-.1.48-.1-.05-.15-.08-.08-.1-.23h0Z"/>
      <path class="cls-3" d="m34.5,51.92c-.02.15-.1.15-.18.25.28,0,.58.05.69.08-.3-.18-.38-.18-.51-.33h0Z"/>
      <path class="cls-6" d="m30.63,52.34c.04-.29.41-.88.52-1.11.29.07.7-.04.59-.26.85.18,1.77.33,2.99.04,1.33.48,2.51,1.51,2.88,1.99-.15.18-.18.26-.33.37.52.11,1.77.41.26,1.51.59,0,.85-.41.81.44s-.33,1.62-.11,2.07c-.55,0-.85-.33-1.11-1.22.15,1.48-.33,2.58.07,3.54-.59.04-.92,0-1.11-.59-.15.85.07,1.51.48,1.77-1.14.26-1.73-.33-1.73-1.22-.18,1.07-.29,1.4.18,2.07-1-.26-1.11-.55-1.29-.85-.48.26-.96.18-1.4.55.18-1.03.44-1.62.3-2.32-.92.33-1.37.33-1.7.44.11-.37.41-.59.29-.92-1,.07-1.55-.04-1.96-.52.81-.11,1.51-.29,1.62-.85-.7.18-1.81-.26-1.95-1.22,1.22.37,2.4.37,2.99-.29.55.37,1.62.48,1.62.29s-.29-.26-.7-.33c-.41-.07-.81-.48-1.36-.48s-1.07.41-1.14.26c-.07-.15,0-1.07.11-1.14.11-.07.66-.07,1.14.18.48.26,1.18.07,1.18-.63s.15-1.44-2.14-1.59h0Zm5.01.11c-.42-.37-.95-.79-1.37-.85-.05.27-.05.69-.32.79.69.05,1,0,1.69.05h0Z"/>
      <path class="cls-6" d="m34.8,50.76c.28-.79.53-2.08.38-2.51.25.03.33.23.36.38.25.05.38.51.13.56-.1.51.18.91.69.41-.2-.18-.08-.53.18-.48.18-.36.58-.03.46.2.2.15,0,.61-.33.48-.28.56.46,1.04.86.51-.23-.15.13-.53.38-.38.36-.33.86.03.48.41.33.28-.13.64-.3.41-.41.41.25,1.22.79.69-.25-.23.2-.53.41-.36.28-.2.69.18.46.38.25.36-.18.61-.38.41-.48.23-.41.79.13.79.05-.2.53-.38.53-.08.51.08.69.13.71.38-1.65.08-1.88.25-2.39.46-1.25-1.35-2.36-2.16-3.53-2.64h0Z"/>
      <path class="cls-6" d="m34.8,50.76c.28-.79.53-2.08.38-2.51.25.03.33.23.36.38.25.05.38.51.13.56-.1.51.18.91.69.41-.2-.18-.08-.53.18-.48.18-.36.58-.03.46.2.2.15,0,.61-.33.48-.28.56.46,1.04.86.51-.23-.15.13-.53.38-.38.36-.33.86.03.48.41.33.28-.13.64-.3.41-.41.41.25,1.22.79.69-.25-.23.2-.53.41-.36.28-.2.69.18.46.38.25.36-.18.61-.38.41-.48.23-.41.79.13.79.05-.2.53-.38.53-.08.51.08.69.13.71.38-1.65.08-1.88.25-2.39.46-1.25-1.35-2.36-2.16-3.53-2.64h0Z"/>
      <path class="cls-3" d="m35.36,50.48c0-.08.07-.15.15-.15s.15.07.15.15-.07.15-.15.15-.15-.07-.15-.15h0Z"/>
      <path class="cls-3" d="m36.15,50.91c0-.09.07-.15.15-.15s.15.07.15.15-.07.15-.15.15-.15-.07-.15-.15h0Z"/>
      <path class="cls-3" d="m36.96,51.47c0-.08.07-.15.15-.15s.15.07.15.15-.07.15-.15.15-.15-.07-.15-.15h0Z"/>
      <path class="cls-3" d="m37.62,52.03c0-.08.07-.15.15-.15s.15.07.15.15-.07.15-.15.15-.15-.07-.15-.15h0Z"/>
      <path class="cls-3" d="m38.31,52.69c0-.09.07-.15.15-.15s.15.07.15.15-.07.15-.15.15-.15-.07-.15-.15h0Z"/>
      <path class="cls-3" d="m42.93,55.74c.58-.28,1.4-.3,1.55-1.4.38.51.25,1.42-.25,1.78-.41-.1-.58-.25-1.29-.38h0Z"/>
      <path class="cls-4" d="m12.66,14.21c0,.62-.5,1.11-1.12,1.11s-1.11-.5-1.11-1.11.5-1.12,1.11-1.12,1.12.5,1.12,1.12h0Z"/>
      <path class="cls-4" d="m11.4,22.03c0,.62-.5,1.11-1.11,1.11s-1.12-.5-1.12-1.11.5-1.12,1.12-1.12,1.11.5,1.11,1.12h0Z"/>
      <path class="cls-4" d="m10.41,19.25c0,.62-.5,1.11-1.12,1.11s-1.11-.5-1.11-1.11.5-1.12,1.11-1.12,1.12.5,1.12,1.12h0Z"/>
      <path class="cls-4" d="m10.68,16.5c0,.62-.5,1.12-1.12,1.12s-1.11-.5-1.11-1.12.5-1.12,1.11-1.12,1.12.5,1.12,1.12h0Z"/>
      <path class="cls-4" d="m15.43,12.97c0,.62-.5,1.11-1.12,1.11s-1.12-.5-1.12-1.11.5-1.12,1.12-1.12,1.12.5,1.12,1.12h0Z"/>
      <path class="cls-4" d="m18.19,12.22c0,.62-.5,1.12-1.11,1.12s-1.12-.5-1.12-1.12.5-1.11,1.12-1.11,1.11.5,1.11,1.11h0Z"/>
      <path class="cls-4" d="m21.59,18.53c0,.62-.5,1.12-1.12,1.12s-1.12-.5-1.12-1.12.5-1.11,1.12-1.11,1.12.5,1.12,1.11h0Z"/>
      <path class="cls-4" d="m20.71,15.83c0,.62-.5,1.12-1.12,1.12s-1.12-.5-1.12-1.12.5-1.11,1.12-1.11,1.12.5,1.12,1.11h0Z"/>
      <path class="cls-4" d="m20.97,12.94c0,.62-.5,1.12-1.12,1.12s-1.11-.5-1.11-1.12.5-1.12,1.11-1.12,1.12.5,1.12,1.12h0Z"/>
      <path class="cls-4" d="m23.32,11.21c0,.62-.5,1.12-1.11,1.12s-1.12-.5-1.12-1.12.5-1.12,1.12-1.12,1.11.5,1.11,1.12h0Z"/>
      <path class="cls-4" d="m26.24,10.46c0,.62-.5,1.12-1.12,1.12s-1.12-.5-1.12-1.12.5-1.11,1.12-1.11,1.12.5,1.12,1.11h0Z"/>
      <path class="cls-4" d="m29.23,10.71c0,.62-.5,1.11-1.12,1.11s-1.11-.5-1.11-1.11.5-1.12,1.11-1.12,1.12.5,1.12,1.12h0Z"/>
      <path class="cls-4" d="m32.4,10.96c0,.62-.5,1.12-1.12,1.12s-1.12-.5-1.12-1.12.5-1.11,1.12-1.11,1.12.5,1.12,1.11h0Z"/>
      <path class="cls-4" d="m32.4,13.95c0,.62-.5,1.12-1.12,1.12s-1.12-.5-1.12-1.12.5-1.11,1.12-1.11,1.12.5,1.12,1.11h0Z"/>
      <path class="cls-4" d="m32.4,16.87c0,.62-.5,1.11-1.12,1.11s-1.12-.5-1.12-1.11.5-1.12,1.12-1.12,1.12.5,1.12,1.12h0Z"/>
      <path class="cls-5" d="m18.98,14c-.3-.25-.5-.63-.5-1.06,0-.13.02-.25.05-.37-.05,0-.09-.01-.14-.02-.15.59-.69,1.03-1.32,1.03-.67,0-1.23-.49-1.34-1.12-.05,0-.1,0-.15.01.06.15.09.32.09.5,0,.75-.61,1.37-1.37,1.37-.71,0-1.29-.54-1.36-1.23-.13.06-.27.12-.39.19.22.24.35.56.35.91,0,.75-.61,1.37-1.37,1.37-.4,0-.75-.17-1-.44-.05.09-.11.17-.16.27.34.25.56.65.56,1.1,0,.73-.58,1.33-1.31,1.36,0,.02,0,.04,0,.06.6.15,1.04.68,1.04,1.33s-.43,1.16-1.01,1.32c0,.08.02.16.03.24.18-.09.39-.14.6-.14.75,0,1.37.61,1.37,1.37,0,.19-.04.36-.11.53l.39.09c0-7.54,4.46-8.54,6.97-8.54l.07-.11h0Z"/>
      <path class="cls-5" d="m20.97,15.83c0,.63-.43,1.17-1.02,1.32,0,.04.02.08.02.11.16-.06.33-.1.51-.1.75,0,1.37.61,1.37,1.37,0,.52-.29.96-.71,1.19.3.19.87.52,1.35.61-.06-.22-.52-1.84-.52-2.49,0-3.46,2.58-5.51,5.17-5.51,1.91,0,2.68.63,2.68.63l.41.11c.14-.18.33-.31.54-.4-.71-.1-1.34-.42-1.83-.89-.23.18-.51.29-.83.29-.75,0-1.37-.61-1.37-1.37,0-.05,0-.1,0-.15-.09,0-.18,0-.27,0-.05.71-.64,1.28-1.36,1.28-.67,0-1.23-.49-1.34-1.12-.1.02-.2.03-.29.05.05.14.08.3.08.46,0,.75-.61,1.37-1.37,1.37-.53,0-.98-.3-1.21-.73-.06.05-.11.1-.16.15.24.25.38.58.38.95,0,.75-.61,1.37-1.37,1.37-.03,0-.05,0-.08,0,0,.06-.01.11-.02.17.68.08,1.22.66,1.22,1.36h0Z"/>
      <path class="cls-5" d="m29.91,19.13c.28-.24.59-.57.91-.98-.53-.19-.91-.69-.91-1.29,0-.75.61-1.37,1.37-1.37v-.19c-.75,0-1.37-.61-1.37-1.37,0-.23.06-.45.16-.64l-.33-.09h-.05s-.04-.05-.04-.05c0,0-.25-.19-.8-.35h-.09s-.52,1.12-.52,2.29c0,2.18,1.57,4,1.57,4l.1.02h0Z"/>
      <path class="cls-4" d="m16.48,28.54c0,.77-.62,1.39-1.39,1.39s-1.39-.62-1.39-1.39.62-1.39,1.39-1.39,1.39.62,1.39,1.39h0Z"/>
      <path class="cls-4" d="m22.68,23.68c0,.4-.32.72-.72.72s-.72-.32-.72-.72.32-.72.72-.72.72.32.72.72h0Z"/>
      <path class="cls-4" d="m49.91,14.21c0,.62.5,1.11,1.11,1.11s1.12-.5,1.12-1.11-.5-1.12-1.12-1.12-1.11.5-1.11,1.12h0Z"/>
      <path class="cls-4" d="m51.17,22.03c0,.62.5,1.11,1.12,1.11s1.11-.5,1.11-1.11-.5-1.12-1.11-1.12-1.12.5-1.12,1.12h0Z"/>
      <path class="cls-4" d="m52.16,19.25c0,.62.5,1.11,1.12,1.11s1.12-.5,1.12-1.11-.5-1.12-1.12-1.12-1.12.5-1.12,1.12h0Z"/>
      <path class="cls-4" d="m51.88,16.5c0,.62.5,1.12,1.12,1.12s1.12-.5,1.12-1.12-.5-1.12-1.12-1.12-1.12.5-1.12,1.12h0Z"/>
      <path class="cls-4" d="m47.14,12.97c0,.62.5,1.11,1.12,1.11s1.12-.5,1.12-1.11-.5-1.12-1.12-1.12-1.12.5-1.12,1.12h0Z"/>
      <path class="cls-4" d="m44.38,12.22c0,.62.5,1.12,1.12,1.12s1.12-.5,1.12-1.12-.5-1.11-1.12-1.11-1.12.5-1.12,1.11h0Z"/>
      <path class="cls-4" d="m40.97,18.53c0,.62.5,1.12,1.12,1.12s1.12-.5,1.12-1.12-.5-1.11-1.12-1.11-1.12.5-1.12,1.11h0Z"/>
      <path class="cls-4" d="m41.85,15.83c0,.62.5,1.12,1.11,1.12s1.12-.5,1.12-1.12-.5-1.11-1.12-1.11-1.11.5-1.11,1.11h0Z"/>
      <path class="cls-4" d="m41.6,12.94c0,.62.5,1.12,1.11,1.12s1.12-.5,1.12-1.12-.5-1.12-1.12-1.12-1.11.5-1.11,1.12h0Z"/>
      <path class="cls-4" d="m39.25,11.21c0,.62.5,1.12,1.12,1.12s1.12-.5,1.12-1.12-.5-1.12-1.12-1.12-1.12.5-1.12,1.12h0Z"/>
      <path class="cls-4" d="m36.33,10.46c0,.62.5,1.12,1.12,1.12s1.12-.5,1.12-1.12-.5-1.11-1.12-1.11-1.12.5-1.12,1.11h0Z"/>
      <path class="cls-4" d="m33.34,10.71c0,.62.5,1.11,1.12,1.11s1.12-.5,1.12-1.11-.5-1.12-1.12-1.12-1.12.5-1.12,1.12h0Z"/>
      <path class="cls-5" d="m43.58,14c.3-.25.5-.63.5-1.06,0-.13-.02-.25-.05-.37.04,0,.09-.01.14-.02.15.59.69,1.03,1.32,1.03.67,0,1.23-.49,1.34-1.12.05,0,.1,0,.15.01-.06.15-.09.32-.09.5,0,.75.61,1.37,1.37,1.37.71,0,1.29-.54,1.36-1.23.13.06.26.12.39.19-.22.24-.35.56-.35.91,0,.75.61,1.37,1.37,1.37.4,0,.75-.17,1-.44.05.09.11.17.16.27-.34.25-.56.65-.56,1.1,0,.73.58,1.33,1.31,1.36,0,.02,0,.04,0,.06-.6.15-1.04.68-1.04,1.33s.43,1.16,1.01,1.32c0,.08-.02.16-.03.24-.18-.09-.39-.14-.6-.14-.75,0-1.37.61-1.37,1.37,0,.19.04.36.11.53l-.39.09c0-7.54-4.46-8.54-6.97-8.54l-.08-.11h0Z"/>
      <path class="cls-5" d="m41.6,15.83c0,.63.43,1.17,1.02,1.32,0,.04-.02.08-.02.11-.16-.06-.33-.1-.51-.1-.75,0-1.37.61-1.37,1.37,0,.52.29.96.71,1.19-.3.19-.87.52-1.35.61.06-.22.52-1.84.52-2.49,0-3.46-2.58-5.51-5.17-5.51-1.91,0-2.68.63-2.68.63l-.41.11c-.14-.18-.33-.31-.54-.4.71-.1,1.34-.42,1.83-.89.23.18.51.29.83.29.75,0,1.37-.61,1.37-1.37,0-.05,0-.1,0-.15.09,0,.18,0,.26,0,.05.71.64,1.28,1.36,1.28.67,0,1.23-.49,1.34-1.12.1.02.2.03.29.05-.05.14-.08.3-.08.46,0,.75.61,1.37,1.37,1.37.53,0,.98-.3,1.21-.73.06.05.11.1.16.15-.24.25-.38.58-.38.95,0,.75.61,1.37,1.37,1.37.03,0,.05,0,.08,0,0,.06.02.11.02.17-.68.08-1.22.66-1.22,1.36h0Z"/>
      <path class="cls-5" d="m32.65,19.13c-.28-.24-.59-.57-.91-.98.53-.19.91-.69.91-1.29,0-.75-.61-1.37-1.37-1.37v-.19c.75,0,1.37-.61,1.37-1.37,0-.23-.06-.45-.16-.64l.33-.09h.05s.04-.05.04-.05c0,0,.25-.19.8-.35h.09s.52,1.12.52,2.29c0,2.18-1.57,4-1.57,4l-.09.02h0Z"/>
      <path class="cls-4" d="m46.09,28.54c0,.77.62,1.39,1.39,1.39s1.39-.62,1.39-1.39-.62-1.39-1.39-1.39-1.39.62-1.39,1.39h0Z"/>
      <path class="cls-5" d="m51.24,24.32s-.1-1.68-1.88-1.68-1.38.86-2.37.86-1.28-.9-1.28-.9c0,0-.36-.02-.36,1.07s1.21,2.09,1.21,2.09c0,0-2.16,1.13-1.72,3.89-1.32,0-1.63-1.34-1.63-1.34,0,0-.23.61-1.11.61s-1.51-.86-1.51-1.99c0-1.34.61-1.55.86-1.55.75,0,1.05.12,1.38.36,0-1.05,1.28-.84,1.28-.84,0,0,.2-.3,0-.5-.8,0-.69-.6-.69-1.34-1.51,0-1.32-.29-1.32-.29,0,0,.8-.65.8-1.4-.59,0-.94-1.12-1.04-1.49-.05,0-.11-.02-.16-.03-.32.22-1.21.77-1.86.77-.47.47,0,1.53,0,1.53,0,0-1.07.08-1.51-.36,0,.95-.6.9-1.21.9-.03.14-.05.3-.02.46.79,0,.71,1.28.71,1.28,0,0,1.63-.29,1.63,1.26,0,.65-.47,1.99-1.63,1.99s-1.61-1.11-1.61-1.11c0,0-.48.75-1.78.75s-2.39-.74-2.39-1.72c0-.87.64-1.19,1.32-1.19.38,0,1.07.34,1.07.34,0,0,.24-1.74,1.26-1.74-.91,0-1.28-1.55-1.28-1.55-.79.15-1.74.02-1.74.02,0,0,.63-.91.63-1.7-.67-.14-1.46-1.09-1.82-1.56h-.38c-.36.47-1.15,1.42-1.82,1.56,0,.79.63,1.7.63,1.7,0,0-.94.13-1.74-.02,0,0-.37,1.55-1.28,1.55,1.01,0,1.26,1.74,1.26,1.74,0,0,.69-.34,1.07-.34.68,0,1.32.32,1.32,1.19,0,.97-1.08,1.72-2.39,1.72s-1.78-.75-1.78-.75c0,0-.45,1.11-1.61,1.11s-1.63-1.33-1.63-1.99c0-1.54,1.63-1.26,1.63-1.26,0,0-.09-1.28.71-1.28.04-.16.01-.32-.02-.46-.61,0-1.21.05-1.21-.9-.44.44-1.51.36-1.51.36,0,0,.47-1.06,0-1.53-.66,0-1.54-.55-1.86-.77-.05.01-.1.03-.16.03-.1.37-.44,1.49-1.04,1.49,0,.75.79,1.4.79,1.4,0,0,.19.29-1.32.29,0,.74.11,1.34-.69,1.34-.2.2,0,.5,0,.5,0,0,1.28-.21,1.28.84.33-.24.63-.36,1.38-.36.25,0,.86.21.86,1.55,0,1.13-.61,1.99-1.51,1.99s-1.11-.61-1.11-.61c0,0-.31,1.34-1.63,1.34.44-2.76-1.72-3.89-1.72-3.89,0,0,1.21-1.01,1.21-2.09s-.36-1.07-.36-1.07c0,0-.29.9-1.28.9s-.59-.86-2.37-.86-1.88,1.68-1.88,1.68c0,0-.54.19-.54.54s.61.54.61.54c0,.8.27.92.27.92,0,0,.27-.1.27-.92,0,0,.54.09,1.13.09s1.38-.07,1.38-.07c0,0-.15,1,.49,1.47.05,0,.1,0,.15,0,.91,0,1.64.74,1.64,1.64s-.69,1.59-1.56,1.64c0,.35,0,.62,0,.93,0,1.07,2.09,1.13,2.09,1.13,2.67-2.05,7.16-4.08,14.01-4.08s11.34,2.03,14.01,4.08c0,0,2.09-.06,2.09-1.13,0-.3,0-.58,0-.93-.87-.05-1.56-.76-1.56-1.64s.74-1.64,1.64-1.64c.05,0,.1,0,.15,0,.64-.48.49-1.47.49-1.47,0,0,.8.07,1.38.07s1.13-.09,1.13-.09c0,.82.27.92.27.92,0,0,.27-.13.27-.92,0,0,.61-.19.61-.54s-.54-.54-.54-.54h0Zm-29.28.33c-.54,0-.97-.44-.97-.97s.44-.97.97-.97.97.44.97.97-.44.97-.97.97h0Zm8.26-1.63c0-.59.48-1.07,1.07-1.07s1.07.48,1.07,1.07-.48,1.07-1.07,1.07-1.07-.48-1.07-1.07h0Zm9.42.66c0-.54.44-.97.97-.97s.97.44.97.97-.44.97-.97.97-.97-.44-.97-.97h0Z"/>
      <path class="cls-5" d="m31.28,32.17c6.06,0,9.63,1.77,11.56,3.25.25.15-.13.77-.46.6-1.84-1.41-5.25-3.09-11.1-3.09s-9.26,1.68-11.1,3.09c-.33.17-.71-.44-.46-.6,1.93-1.48,5.5-3.25,11.56-3.25h0Z"/>
      <path class="cls-5" d="m42.53,33.11h1.83c-2.3-1.72-6.41-3.7-13.07-3.7s-10.77,1.98-13.07,3.7h2.2l-.81,2.1c1.96-1.5,5.58-3.28,11.69-3.28s9.72,1.78,11.69,3.28l-.81-2.1h.37Zm-11.24-1.51c-.31,0-3.03-.03-3.03-.89s2.72-.9,3.03-.9,3.03.02,3.03.9-2.72.89-3.03.89h0Z"/>
      <path class="cls-5" d="m31.28,29.16c6.9,0,11.1,2.11,13.4,3.88.21.11.67-.38.46-.6-2.39-1.84-6.74-4.03-13.86-4.03s-11.46,2.19-13.86,4.03c-.22.22.25.71.46.6,2.3-1.77,6.49-3.88,13.4-3.88h0Z"/>
      <path class="cls-4" d="m39.89,23.68c0,.4.32.72.72.72s.72-.32.72-.72-.32-.72-.72-.72-.72.32-.72.72h0Z"/>
      <path class="cls-4" d="m32.1,23.02c0,.45-.37.82-.82.82s-.82-.37-.82-.82.37-.82.82-.82.82.37.82.82h0Z"/>
      <path class="cls-5" d="m30.53,6.08c.23-.05.47-.08.72-.08.27,0,.53.04.79.1v-2.08h2.29v-1.76h-2.29V.25h-1.51v2.01h-2.29v1.76h2.29v2.06h0Z"/>
      <path class="cls-5" d="m34.36,9.35c0-1.71-1.4-3.1-3.11-3.1s-3.1,1.38-3.11,3.1c.74.02,1.33.62,1.33,1.36,0,.35-.13.67-.35.91.56.52,1.3.85,2.13.85s1.6-.34,2.16-.88c-.2-.24-.33-.55-.33-.88,0-.72.56-1.31,1.27-1.36h0Zm-3.08,2.98c-.75,0-1.37-.61-1.37-1.37s.61-1.37,1.37-1.37,1.37.61,1.37,1.37-.61,1.37-1.37,1.37h0Z"/>
      <polygon class="cls-3" points="17.87 34.8 18.19 33.36 20.04 33.36 19.39 35.04 17.87 34.8 17.87 34.8"/>
      <polygon class="cls-3" points="44.7 34.8 44.38 33.36 42.53 33.36 43.18 35.04 44.7 34.8 44.7 34.8"/>
      <path class="cls-3" d="m34.06,30.7c0,.36-1.24.64-2.78.64s-2.78-.29-2.78-.64,1.25-.64,2.78-.64,2.78.29,2.78.64h0Z"/>
    </g>
  </g>
</svg>