<?xml version="1.0" encoding="UTF-8"?>
<svg id="Layer_2" data-name="Layer 2" xmlns="http://www.w3.org/2000/svg" viewBox="0 0 393.6 549.09">
  <defs>
    <style>
      .cls-1, .cls-2, .cls-3, .cls-4, .cls-5, .cls-6, .cls-7, .cls-8, .cls-9 {
        stroke-width: 0px;
      }

      .cls-2 {
        fill: #f7bf4e;
      }

      .cls-3 {
        fill: #1a8d2c;
      }

      .cls-4 {
        fill: #e3001a;
      }

      .cls-5 {
        fill: #da1033;
      }

      .cls-6 {
        fill: #edd62b;
      }

      .cls-7 {
        fill: #f2bf4e;
      }

      .cls-8 {
        fill: #fff;
      }

      .cls-9 {
        fill: #007cd5;
      }
    </style>
  </defs>
  <g id="Layer_1-2" data-name="Layer 1">
    <path class="cls-1" d="m298.37,183.7c.02-.3.03-.61.02-.91,5.15-2.66,8.69-8.02,8.69-14.21,0-3.28-1.03-6.33-2.74-8.89,4.12.25,7.45.24,10.2-2.39.19,0,.37.06.56.06,6.94,0,12.58-5.65,12.58-12.58,0-2.57-.78-4.96-2.11-6.96,3.65-.73,6.58-3.34,7.67-6.82.36.03.71.11,1.09.11,6.81,0,12.36-5.54,12.36-12.36,0-2.21-.63-4.26-1.66-6.06.63-1.48.98-3.11.98-4.82,0-3.61-1.58-6.83-4.06-9.09.07-.52.16-1.02.16-1.56,0-4.79-2.77-8.91-6.77-10.96-.64-4.69-3.89-8.52-8.26-10-1.26-3.72-4.23-6.65-7.97-7.84-1.4-4.36-5.12-7.66-9.74-8.41-1.96-3.85-5.84-6.52-10.4-6.74-2.21-3.37-6.01-5.61-10.33-5.61-.11,0-.21.03-.32.03-2.26-2.92-5.76-4.83-9.73-4.83-.36,0-.7.08-1.05.11-2.27-2.62-5.57-4.31-9.3-4.31-.56,0-1.09.09-1.63.16-2.24-2.23-5.32-3.61-8.72-3.61-.72,0-1.42.09-2.11.21-2.19-1.98-5.06-3.21-8.24-3.21-.97,0-1.89.14-2.8.35-2.14-1.78-4.86-2.9-7.85-2.9-1,0-1.97.15-2.9.38-2.15-1.8-4.88-2.93-7.9-2.93-1.17,0-2.28.21-3.35.52-.88-.63-1.84-1.13-2.87-1.51V8h-12.2V0h-21.77v8h-12.2v18.13c-1.03.38-1.99.88-2.87,1.51-1.07-.3-2.18-.52-3.35-.52-3.02,0-5.75,1.13-7.9,2.93-.93-.23-1.9-.38-2.9-.38-3,0-5.71,1.12-7.85,2.9-.9-.21-1.83-.35-2.8-.35-3.18,0-6.05,1.24-8.24,3.21-.69-.12-1.39-.21-2.11-.21-3.38,0-6.44,1.37-8.67,3.57-.55-.08-1.11-.12-1.68-.12-3.73,0-7.03,1.69-9.3,4.31-.35-.03-.69-.11-1.05-.11-3.97,0-7.47,1.91-9.73,4.83-.11,0-.21-.03-.32-.03-4.32,0-8.12,2.24-10.33,5.61-4.56.22-8.44,2.89-10.4,6.74-4.63.75-8.36,4.07-9.75,8.46-3.75,1.19-6.7,4.08-7.95,7.79-4.37,1.48-7.62,5.31-8.26,10-4,2.05-6.77,6.17-6.77,10.96,0,.53.09,1.04.16,1.56-2.48,2.26-4.06,5.48-4.06,9.09,0,1.71.35,3.34.98,4.82-1.02,1.8-1.65,3.85-1.65,6.06,0,6.81,5.54,12.36,12.36,12.36.37,0,.72-.08,1.09-.11,1.08,3.48,4.02,6.09,7.67,6.82-1.33,1.99-2.11,4.39-2.11,6.96,0,6.94,5.64,12.58,12.58,12.58.19,0,.37-.05.56-.06,2.74,2.62,6.08,2.64,10.2,2.39-1.72,2.56-2.75,5.6-2.75,8.89,0,6.19,3.54,11.55,8.69,14.21,0,.3,0,.61.02.91C38.16,218.16,0,280.76,0,352.29c0,108.69,88.11,196.8,196.8,196.8s196.8-88.11,196.8-196.8c0-71.52-38.16-134.13-95.23-168.58Zm-2.14-89.07c-4.23-2.04-8.85-3.43-13.63-3.43h-6.31c-.61-2.81-2.16-6.9-6.14-12.66l-1.48-2.07-7.66-9.17-1.16-1.21c15.95,8.49,28.19,19.25,36.38,28.55Zm-83.55-16.09s.12-.05.12-.05c0,0-.12-.05-.12-.06v-14.75c2.75,2.02,8.56,6.73,8.56,6.73l2.23,1.9,4.11,3.62,4.97,4.58s.07.07.17.16c-3.53-.6-6.4-.81-7.54-.87l-12.5-.51v-.76Zm-51.65,1.97l4.97-4.58,4.07-3.58,2.23-1.9s5.84-4.75,8.61-6.77v14.75s-.14.06-.14.06c0,0,.14.06.14.06v.75l-12.51.51c-1.14.06-4.02.27-7.54.86.1-.1.17-.16.17-.16Zm-27.29-14.43l-1.18,1.23-7.72,9.25-.89,1.2c-4.39,6.18-6.04,10.5-6.67,13.43h-6.3c-4.8,0-9.44,1.4-13.68,3.45,8.19-9.29,20.45-20.07,36.43-28.58Z"/>
    <path class="cls-8" d="m196.8,171.13c-99.89,0-181.15,81.27-181.15,181.15s81.27,181.15,181.15,181.15,181.15-81.27,181.15-181.15-81.26-181.15-181.15-181.15Zm0,320.81c-77.01,0-139.65-62.65-139.65-139.65s62.65-139.65,139.65-139.65,139.65,62.65,139.65,139.65-62.65,139.65-139.65,139.65Z"/>
    <path class="cls-1" d="m53.63,460.47l28.33-24.6,5.01,5.77-23.52,20.42,12.45,14.34-4.81,4.18-17.46-20.1Z"/>
    <path class="cls-1" d="m89.05,495.32l22.13-30.6,6.18,4.47-22.13,30.6-6.18-4.47Z"/>
    <path class="cls-1" d="m116.83,513.25l13.94-35.11,6.9,2.74,5.06,29.15,9.31-23.45,6.59,2.61-13.94,35.11-7.11-2.83-5.06-28.51-9.09,22.9-6.59-2.62Z"/>
    <path class="cls-1" d="m170.32,529.97l2.66-37.69,27.94,1.98-.45,6.37-20.34-1.44-.59,8.36,18.92,1.34-.45,6.35-18.92-1.34-.72,10.26,21.06,1.49-.45,6.35-28.66-2.03Z"/>
    <path class="cls-1" d="m223.61,530.05l-8.77-36.78,7.22-1.72,20.91,20.97-5.86-24.56,6.9-1.64,8.77,36.77-7.45,1.78-20.54-20.45,5.72,23.98-6.9,1.64Z"/>
    <path class="cls-1" d="m268.97,503.49l5.99-4.44c1.66,1.91,3.38,3,5.15,3.3,1.77.29,3.65-.15,5.64-1.35,2.1-1.27,3.43-2.66,3.96-4.2.54-1.53.44-2.89-.27-4.08-.46-.77-1.08-1.28-1.85-1.55-.77-.27-1.84-.26-3.19,0-.93.19-2.95.77-6.08,1.73-4.03,1.24-7.12,1.65-9.3,1.23-3.06-.59-5.36-2.16-6.9-4.72-.99-1.65-1.45-3.47-1.38-5.47.07-2,.76-3.9,2.07-5.71,1.31-1.81,3.21-3.46,5.7-4.96,4.06-2.44,7.65-3.39,10.78-2.84,3.12.55,5.63,2.28,7.52,5.19l-6.36,4.21c-1.28-1.5-2.6-2.33-3.96-2.51-1.36-.18-2.96.29-4.8,1.4-1.9,1.14-3.15,2.42-3.76,3.85-.39.91-.34,1.79.17,2.63.46.77,1.18,1.23,2.15,1.38,1.24.2,3.67-.28,7.31-1.44,3.63-1.16,6.45-1.8,8.46-1.91,2-.11,3.86.27,5.55,1.14,1.7.87,3.16,2.33,4.39,4.38,1.11,1.86,1.64,3.9,1.58,6.14-.06,2.24-.79,4.32-2.2,6.24-1.41,1.92-3.52,3.72-6.33,5.41-4.09,2.46-7.8,3.4-11.13,2.83-3.33-.57-6.29-2.54-8.9-5.91Z"/>
    <path class="cls-1" d="m320.44,482.49l-28.03-25.33,18.78-20.78,4.74,4.28-13.67,15.12,6.21,5.62,12.72-14.07,4.72,4.27-12.72,14.07,7.63,6.89,14.15-15.66,4.72,4.27-19.27,21.31Z"/>
    <path class="cls-1" d="m58.7,386.23l-37.47,5-2.12-15.93c-.53-4.01-.58-6.96-.15-8.86.43-1.91,1.44-3.52,3.01-4.83,1.58-1.32,3.47-2.13,5.69-2.42,2.81-.37,5.24.14,7.3,1.55,2.05,1.41,3.54,3.73,4.45,6.95.74-1.76,1.61-3.25,2.6-4.47,1-1.22,2.84-2.92,5.51-5.12l6.7-5.55,1.21,9.05-7.42,6.56c-2.66,2.33-4.31,3.9-4.98,4.72-.66.82-1.08,1.65-1.26,2.48-.17.84-.15,2.13.09,3.87l.21,1.53,15.64-2.08,1.01,7.57Zm-22.63-4.68l-.75-5.6c-.48-3.63-.94-5.87-1.37-6.74-.43-.86-1.05-1.5-1.87-1.91-.82-.41-1.79-.54-2.91-.39-1.26.17-2.23.64-2.92,1.42-.69.78-1.05,1.79-1.09,3.04,0,.63.2,2.47.61,5.54l.79,5.9,9.51-1.27Z"/>
    <path class="cls-1" d="m54.79,350.77l-37.58-4.04,3-27.87,6.36.68-2.18,20.28,8.33.89,2.03-18.87,6.33.68-2.03,18.87,10.23,1.1,2.26-21,6.33.68-3.07,28.58Z"/>
    <path class="cls-1" d="m70.48,286.13l-2.85,7.79-9.2.15-5.19,14.19,6.99,5.88-2.78,7.6-30.43-26.81,2.77-7.58,40.69-1.22Zm-18.87,8.05l-14.96.07,11.41,9.61,3.54-9.68Z"/>
    <path class="cls-1" d="m72.03,284.81l-31.31-20.62,4.2-6.37,25.99,17.12,10.44-15.85,5.32,3.5-14.64,22.22Z"/>
    <path class="cls-1" d="m72.49,222.44l11.76-9.5c2.33-1.88,4.14-3.19,5.44-3.92,1.3-.73,2.65-1.15,4.05-1.27,1.4-.11,2.81.1,4.24.63s2.66,1.44,3.69,2.71c1.11,1.38,1.76,2.94,1.95,4.69.19,1.75-.12,3.43-.93,5.03,2.21-.93,4.31-1.15,6.29-.67,1.98.48,3.66,1.57,5.03,3.27,1.08,1.34,1.82,2.89,2.22,4.66s.37,3.46-.1,5.09c-.47,1.63-1.42,3.16-2.86,4.62-.9.91-3.24,2.9-7,5.99l-10.01,8.09-23.78-29.42Zm9.9.1l5.5,6.8,3.89-3.15c2.31-1.87,3.73-3.07,4.23-3.59.92-.94,1.43-1.94,1.55-2.99.11-1.05-.22-2.05-.98-3-.74-.91-1.58-1.44-2.55-1.61-.96-.16-1.98.09-3.07.77-.64.41-2.36,1.74-5.16,4l-3.41,2.76Zm9.46,11.7l6.36,7.87,5.5-4.44c2.14-1.73,3.45-2.89,3.93-3.47.75-.87,1.16-1.85,1.21-2.92.05-1.07-.34-2.13-1.19-3.17-.71-.88-1.53-1.46-2.46-1.73-.93-.27-1.91-.22-2.94.15-1.04.37-2.9,1.65-5.61,3.84l-4.8,3.88Z"/>
    <path class="cls-1" d="m155.42,215.79l-7.55,3.45-6.56-6.43-13.73,6.27.73,9.1-7.36,3.36-2.3-40.47,7.34-3.35,29.44,28.08Zm-18.98-7.76l-10.56-10.59,1.18,14.87,9.37-4.28Z"/>
    <path class="cls-1" d="m157.53,215.94l-7.26-36.79,7.49-1.48,6.03,30.54,18.62-3.68,1.23,6.25-26.12,5.16Z"/>
    <path class="cls-1" d="m186.02,191.6c.18-3.84.9-7.04,2.17-9.6.95-1.88,2.2-3.55,3.75-5.01,1.55-1.46,3.23-2.52,5.04-3.17,2.4-.89,5.13-1.26,8.2-1.12,5.56.26,9.93,2.19,13.11,5.79,3.18,3.6,4.63,8.48,4.35,14.62-.28,6.09-2.16,10.78-5.63,14.07-3.47,3.29-7.98,4.8-13.52,4.55-5.61-.26-10-2.18-13.15-5.75-3.15-3.58-4.59-8.37-4.32-14.38Zm7.86.1c-.2,4.27.64,7.56,2.51,9.86,1.87,2.3,4.33,3.51,7.36,3.65,3.04.14,5.58-.84,7.63-2.94,2.05-2.1,3.18-5.34,3.38-9.71.2-4.32-.6-7.59-2.4-9.81-1.8-2.21-4.27-3.39-7.41-3.54-3.14-.14-5.72.82-7.74,2.88-2.02,2.06-3.13,5.27-3.33,9.61Z"/>
    <path class="cls-1" d="m225.34,212.62l12.28-35.75,10.8,3.71-1.89,26.62,14.79-22.19,10.83,3.72-12.28,35.75-6.71-2.3,9.66-28.15-16.76,25.71-6.95-2.39,2.59-30.58-9.66,28.15-6.71-2.3Z"/>
    <path class="cls-1" d="m264.28,227.34l21.13-31.3,10.14,6.85c3.84,2.59,6.24,4.44,7.2,5.54,1.48,1.68,2.29,3.71,2.44,6.1.15,2.39-.62,4.83-2.3,7.32-1.3,1.92-2.74,3.3-4.32,4.14-1.58.84-3.16,1.27-4.74,1.29-1.58.02-3.01-.22-4.28-.73-1.71-.72-4-2.04-6.86-3.98l-4.12-2.78-7.97,11.81-6.32-4.27Zm23.87-21.74l-6,8.88,3.46,2.34c2.49,1.68,4.27,2.64,5.33,2.88,1.06.24,2.06.17,3.01-.2.95-.37,1.73-1.03,2.36-1.95.77-1.14,1.07-2.3.89-3.5-.17-1.19-.7-2.23-1.6-3.1-.66-.65-2.13-1.75-4.4-3.28l-3.06-2.06Z"/>
    <path class="cls-1" d="m291.18,246.25l27.76-25.69,19.05,20.58-4.69,4.35-13.86-14.98-6.15,5.69,12.9,13.94-4.68,4.33-12.9-13.93-7.55,6.99,14.35,15.51-4.68,4.33-19.54-21.11Z"/>
    <path class="cls-1" d="m346.18,252.25l6.77,12.2c1.53,2.75,2.48,4.97,2.86,6.64.51,2.26.41,4.48-.28,6.68-.69,2.19-1.89,4.24-3.61,6.13-1.71,1.89-4.12,3.7-7.21,5.42-2.72,1.51-5.25,2.47-7.6,2.89-2.87.51-5.47.41-7.81-.3-1.77-.53-3.52-1.61-5.24-3.23-1.29-1.22-2.61-3.06-3.98-5.52l-6.97-12.56,33.07-18.35Zm-1.89,9.78l-21.91,12.15,2.77,4.99c1.03,1.86,1.88,3.15,2.55,3.86.87.93,1.83,1.58,2.87,1.93,1.04.35,2.43.35,4.16-.02,1.73-.37,3.87-1.27,6.43-2.68,2.55-1.42,4.39-2.74,5.51-3.94,1.12-1.21,1.83-2.44,2.15-3.67.31-1.24.26-2.56-.16-3.96-.31-1.05-1.21-2.94-2.72-5.66l-1.66-3Z"/>
    <path class="cls-1" d="m329.06,302.25l35.7-12.47,2.52,7.21-35.7,12.47-2.52-7.21Z"/>
    <path class="cls-1" d="m351.4,335.46l-1.09,7.68c-4.26-.44-7.58-1.8-9.99-4.07-2.41-2.27-3.95-5.4-4.61-9.4-.82-4.95.19-9.3,3.03-13.05,2.85-3.75,7.21-6.11,13.07-7.09,6.2-1.04,11.29-.24,15.25,2.39s6.38,6.55,7.26,11.77c.76,4.56.03,8.48-2.19,11.78-1.31,1.96-3.39,3.61-6.23,4.96l-3.02-7.15c1.86-.76,3.23-1.94,4.11-3.52.89-1.59,1.16-3.38.83-5.38-.46-2.76-1.83-4.84-4.09-6.22-2.27-1.39-5.62-1.72-10.06-.98-4.71.79-7.92,2.19-9.64,4.22-1.72,2.03-2.35,4.4-1.9,7.11.33,2,1.26,3.61,2.77,4.84,1.51,1.23,3.68,1.93,6.52,2.1Z"/>
    <path class="cls-1" d="m336.04,383.22l.7-8.27,8.83-2.56,1.28-15.04-8.28-3.83.68-8.06,36.39,17.86-.68,8.03-38.92,11.87Zm16.08-12.72l14.4-4-13.53-6.27-.87,10.27Z"/>
    <path class="cls-8" d="m95.91,296.51c-.43-.43-2.53-2.53-3.97-3.97h-.8v-.8l-.56-.56h.56v-16.36h10.22v7.5h6.58v-5.1h9.92v5.1h6.58v-7.5h10.22v16.36h.56l-.56.56v.8h-.8c-1.43,1.43-3.54,3.54-3.97,3.97.02.34.37,6.07.85,14.13l72.27-91.05c-2.06-.1-4.13-.16-6.21-.16-73.25,0-132.85,59.6-132.85,132.85,0,12.53,1.78,24.65,5.04,36.16l23.12-29.13c1.09-18.02,3.73-61.84,3.79-62.8Z"/>
    <path class="cls-8" d="m249.25,419.15l.28-4.2h-8.76l-55.3,69.67c3.74.32,7.52.52,11.34.52,48.89,0,91.66-26.56,114.73-65.99h-62.28Z"/>
    <path class="cls-8" d="m323.12,311.19l-22.8,28.73c.7,11.7,1.33,22.08,1.55,25.67h.24l6.65,10.64h.52l.06.93.27.43h-.24l2.73,40.59c11.15-19.43,17.56-41.92,17.56-65.88,0-14.34-2.31-28.15-6.54-41.1Z"/>
    <path class="cls-6" d="m142.9,417.78l-2.7-40.2h-54.6l-2.7,40.2h21.6v-22.8c0-4.8,3.89-8.7,8.7-8.7s8.7,3.9,8.7,8.7v22.8h21Z"/>
    <polygon class="cls-6" points="133.55 366.95 92.25 366.95 86.45 376.22 139.35 376.22 133.55 366.95"/>
    <path class="cls-6" d="m132.7,365.58l-4.2-69.6,3.44-3.44h-38.08l3.44,3.44-4.2,69.6h39.6Zm-27.9-35.1c0-4.47,3.63-8.1,8.1-8.1s8.1,3.62,8.1,8.1v12.6h-16.2v-12.6Z"/>
    <polygon class="cls-6" points="133.3 291.18 133.3 276.18 125.8 276.18 125.8 283.68 116.5 283.68 116.5 278.58 109.3 278.58 109.3 283.68 100 283.68 100 276.18 92.5 276.18 92.5 291.18 133.3 291.18"/>
    <path class="cls-6" d="m310.7,417.78l-2.7-40.2h-54.6l-2.7,40.2h21v-22.8c0-4.8,3.9-8.7,8.7-8.7s8.7,3.9,8.7,8.7v22.8h21.6Z"/>
    <polygon class="cls-6" points="260.05 366.95 301.35 366.95 307.15 376.22 254.25 376.22 260.05 366.95"/>
    <path class="cls-6" d="m300.5,365.58l-4.2-69.6,3.44-3.44h-38.08l3.44,3.44-4.2,69.6h39.6Zm-27.9-35.1c0-4.47,3.63-8.1,8.1-8.1s8.1,3.62,8.1,8.1v12.6h-16.2v-12.6Z"/>
    <polygon class="cls-6" points="260.3 291.18 260.3 276.18 267.8 276.18 267.8 283.68 277.1 283.68 277.1 278.58 284.3 278.58 284.3 283.68 293.6 283.68 293.6 276.18 301.1 276.18 301.1 291.18 260.3 291.18"/>
    <path class="cls-6" d="m253.1,339.18v-12.3h-14.4v12.3h-14.4v-12.3h-14.7v12.3h-25.6v-12.3h-14.7v12.3h-14.4v-12.3h-14.4v12.3h-8.03c.72,11.96,1.37,22.71,1.59,26.4h.24l6.65,10.64h.52l.06.93.27.43h-.24l2.42,36h37.92v-32.55c0-8.04,6.51-14.55,14.55-14.55s14.55,6.51,14.55,14.55v32.55h38.62l2.42-36h-.24l.27-.43.06-.93h.52l6.65-10.64h.24c.22-3.69.87-14.44,1.59-26.4h-8.03Z"/>
    <path class="cls-2" d="m196.8,163.98c45.8,0,91.1,20.7,91.1,20.7,2.92,1.2,4.24-2.44,1.7-3.71,0,0-46.64-21.07-92.8-21.07s-92.8,21.07-92.8,21.07c-2.54,1.28-1.23,4.91,1.7,3.71,0,0,45.3-20.7,91.1-20.7Z"/>
    <path class="cls-2" d="m196.8,140.08c62,0,98.6,16.8,98.6,16.8,1.39.28,2.84-2.57,1.7-3.71,0,0-38.13-17.17-100.3-17.17s-100.3,17.17-100.3,17.17c-1.14,1.14.32,3.99,1.7,3.71,0,0,36.6-16.8,98.6-16.8Z"/>
    <path class="cls-5" d="m100.6,160.31c-3.78.86-6.6,4.23-6.6,8.27,0,4.69,3.81,8.5,8.5,8.5,1.47,0,2.83-.41,4.04-1.06l10.06-13.74-16-1.97Z"/>
    <path class="cls-3" d="m161.43,151.85c.45,2.39-1.13,4.69-3.52,5.13l-11.01,2.06c-2.39.45-4.69-1.13-5.13-3.51h0c-.45-2.39,1.13-4.69,3.51-5.13l11.01-2.06c2.39-.45,4.69,1.13,5.13,3.52h0Z"/>
    <path class="cls-5" d="m293,160.31c3.78.86,6.6,4.23,6.6,8.27,0,4.69-3.81,8.5-8.5,8.5-1.47,0-2.83-.41-4.04-1.06l-10.06-13.74,16-1.97Z"/>
    <path class="cls-3" d="m232.17,151.85c-.45,2.39,1.13,4.69,3.52,5.13l11.01,2.06c2.39.45,4.69-1.13,5.13-3.51h0c.45-2.39-1.13-4.69-3.52-5.13l-11.01-2.06c-2.39-.45-4.69,1.13-5.13,3.52h0Z"/>
    <polygon class="cls-9" points="196.8 155.28 208.4 149.48 196.8 143.88 185.2 149.48 196.8 155.28"/>
    <circle class="cls-2" cx="131.1" cy="154.18" r="2.9"/>
    <path class="cls-2" d="m136.4,161.89c0,1.6-1.3,2.9-2.9,2.9s-2.9-1.3-2.9-2.9,1.3-2.9,2.9-2.9,2.9,1.3,2.9,2.9Z"/>
    <path class="cls-2" d="m175.86,147.18c-.27,1.58-1.77,2.64-3.35,2.37-1.58-.27-2.64-1.77-2.37-3.35.27-1.58,1.77-2.64,3.35-2.37,1.58.27,2.64,1.77,2.37,3.35Z"/>
    <path class="cls-2" d="m176.94,155.17c-.27,1.58-1.77,2.64-3.35,2.37-1.58-.27-2.64-1.77-2.37-3.35.27-1.58,1.77-2.64,3.35-2.37,1.58.27,2.64,1.77,2.37,3.35Z"/>
    <path class="cls-2" d="m259.6,154.18c0,1.6,1.3,2.9,2.9,2.9s2.9-1.3,2.9-2.9-1.3-2.9-2.9-2.9-2.9,1.3-2.9,2.9Z"/>
    <path class="cls-2" d="m257.2,161.89c0,1.6,1.3,2.9,2.9,2.9s2.9-1.3,2.9-2.9-1.3-2.9-2.9-2.9-2.9,1.3-2.9,2.9Z"/>
    <path class="cls-2" d="m217.74,147.18c.27,1.58,1.77,2.64,3.35,2.37,1.58-.27,2.64-1.77,2.37-3.35-.27-1.58-1.77-2.64-3.35-2.37-1.58.27-2.64,1.77-2.37,3.35Z"/>
    <path class="cls-2" d="m216.66,155.17c.27,1.58,1.76,2.64,3.34,2.37,1.58-.27,2.64-1.77,2.37-3.35-.27-1.58-1.77-2.64-3.35-2.37-1.58.27-2.64,1.77-2.37,3.35Z"/>
    <path class="cls-2" d="m196.8,141.44c-55.86,0-91.35,13.86-97.17,16.3l.49,1.3c.06-.02.11-.04.18-.06l.23-.05,18.54,2.28-11.61,15.85-.27.15c-.06.03-.11.05-.17.08l.3.8c12.16-4.96,51.18-19.55,89.48-19.55s77.25,14.57,89.48,19.55l.3-.8c-.06-.03-.11-.05-.17-.08l-.27-.15-11.61-15.85,18.3-2.25.24-.03.23.05c.06.01.12.04.17.06l.49-1.3c-5.82-2.44-41.31-16.3-97.17-16.3Zm-63.3,24.7c-2.35,0-4.26-1.91-4.26-4.26,0-1.42.71-2.67,1.78-3.45-2.31-.05-4.18-1.93-4.18-4.25s1.91-4.26,4.26-4.26,4.26,1.91,4.26,4.26c0,1.42-.71,2.67-1.78,3.45,2.31.05,4.18,1.93,4.18,4.25s-1.91,4.26-4.26,4.26Zm28.35-10.24c-.87,1.27-2.18,2.12-3.69,2.4l-11.01,2.06c-1.51.28-3.04-.04-4.31-.91-1.27-.87-2.12-2.18-2.4-3.69-.58-3.12,1.48-6.14,4.6-6.72l11.01-2.06c1.51-.28,3.05.04,4.31.91,1.27.87,2.12,2.18,2.4,3.69.28,1.51-.04,3.04-.91,4.31Zm16.42-.51c-.19,1.12-.81,2.1-1.73,2.76-.93.66-2.06.92-3.18.73-1.12-.19-2.1-.81-2.76-1.73-.66-.93-.92-2.06-.73-3.18h0c.24-1.4,1.14-2.52,2.33-3.1-2.03-.39-3.47-2.17-3.47-4.18,0-.24.02-.48.06-.72.19-1.12.81-2.1,1.74-2.76.93-.66,2.06-.92,3.18-.72,1.12.19,2.1.81,2.76,1.73.66.93.92,2.06.73,3.18-.24,1.4-1.14,2.52-2.33,3.1,2.27.43,3.8,2.6,3.41,4.89Zm18.52,1.41l-14.69-7.34,14.09-6.81.59-.28,14.69,7.09-14.69,7.34Zm26.92-2.83c.39,2.32-1.17,4.52-3.49,4.92-1.12.19-2.25-.07-3.18-.73-.93-.66-1.54-1.64-1.73-2.76-.19-1.12.07-2.25.72-3.18.64-.91,1.59-1.51,2.68-1.72-1.19-.58-2.09-1.7-2.33-3.1-.04-.24-.06-.48-.06-.73,0-.88.27-1.73.79-2.46.66-.93,1.64-1.54,2.76-1.74,1.12-.19,2.25.07,3.18.73.93.66,1.55,1.64,1.74,2.76.39,2.29-1.13,4.46-3.4,4.89,1.19.58,2.09,1.7,2.33,3.1Zm29.45,1.8c-.28,1.51-1.14,2.82-2.41,3.69-1.27.87-2.8,1.19-4.32.91l-11.01-2.06c-2.77-.52-4.7-2.94-4.7-5.66,0-.35.03-.7.1-1.06.28-1.51,1.14-2.82,2.4-3.69,1.27-.87,2.8-1.19,4.32-.91l11.01,2.06c3.12.58,5.18,3.6,4.6,6.72Zm9.41,2.67c1.07.77,1.78,2.03,1.78,3.45,0,2.35-1.91,4.26-4.26,4.26s-4.26-1.91-4.26-4.26,1.87-4.21,4.18-4.25c-1.07-.77-1.78-2.03-1.78-3.45,0-2.35,1.91-4.26,4.26-4.26s4.26,1.91,4.26,4.26-1.87,4.21-4.18,4.25Z"/>
    <path class="cls-2" d="m196.8,109.28c4.2,0,5.2-4,5.2-4,0,0,5.2-1,5.2-3.8s-5.2-4.2-5.2-4.2c0,0-1.4-3-5.2-3s-5.2,3-5.2,3c0,0-5.2,1.4-5.2,4.2s5.2,3.8,5.2,3.8c0,0,1,4,5.2,4Z"/>
    <path class="cls-7" d="m187.61,116.5l-3.8,3.8c-.66.66-.66,1.72,0,2.38.66.66,1.72.66,2.38,0l3.8-3.8c.66-.66.65-1.72,0-2.38-.66-.66-1.72-.66-2.38,0Z"/>
    <path class="cls-7" d="m183.01,105.3c-.66.66-.66,1.72,0,2.38l4.6,4.6c.66.66,1.72.66,2.38,0,.66-.66.65-1.72,0-2.38l-4.6-4.6c-.66-.66-1.72-.66-2.38,0Z"/>
    <path class="cls-2" d="m186.8,114.15c0,1.44-1.16,2.6-2.6,2.6s-2.6-1.16-2.6-2.6,1.16-2.6,2.6-2.6,2.6,1.16,2.6,2.6Z"/>
    <path class="cls-7" d="m205.99,116.5l3.8,3.8c.66.66.66,1.72,0,2.38s-1.72.66-2.38,0l-3.8-3.8c-.66-.66-.66-1.72,0-2.38s1.72-.66,2.38,0Z"/>
    <path class="cls-7" d="m210.59,105.3c.66.66.66,1.72,0,2.38l-4.6,4.6c-.66.66-1.72.66-2.38,0-.66-.66-.66-1.72,0-2.38l4.6-4.6c.66-.66,1.72-.66,2.38,0Z"/>
    <path class="cls-2" d="m206.8,114.15c0,1.44,1.17,2.6,2.6,2.6s2.6-1.16,2.6-2.6-1.16-2.6-2.6-2.6-2.6,1.16-2.6,2.6Z"/>
    <path class="cls-2" d="m200.57,114.95c0,2.08-1.69,3.77-3.77,3.77s-3.77-1.69-3.77-3.77,1.69-3.77,3.77-3.77,3.77,1.69,3.77,3.77Z"/>
    <path class="cls-2" d="m132.41,116.48c3.56-1.26,3.21-4.96,3.21-4.96,0,0,4.11-2.41,3.27-4.78-.84-2.38-5.67-2-5.67-2,0,0-2.09-2.12-5.31-.98-3.23,1.14-3.51,4.1-3.51,4.1,0,0-3.99,2.75-3.15,5.13.84,2.37,5.55,1.66,5.55,1.66,0,0,2.05,3.09,5.61,1.83Z"/>
    <path class="cls-7" d="m126.77,125.36l-2.08,4.37c-.36.75-.04,1.66.71,2.02.75.36,1.66.04,2.02-.71l2.08-4.36c.36-.75.04-1.66-.71-2.02-.75-.36-1.66-.04-2.02.71Z"/>
    <path class="cls-7" d="m119.51,117.24c-.36.75-.04,1.66.71,2.02l5.28,2.52c.75.36,1.66.04,2.02-.71.36-.75.04-1.66-.71-2.02l-5.29-2.52c-.75-.36-1.65-.04-2.02.71Z"/>
    <path class="cls-2" d="m125.38,123.61c.43,1.22-.21,2.55-1.43,2.99-1.22.43-2.56-.21-2.99-1.42-.43-1.22.21-2.56,1.43-2.99,1.22-.43,2.56.21,2.99,1.43Z"/>
    <path class="cls-7" d="m142.37,119.84l4.36,2.08c.75.36,1.07,1.26.71,2.02-.36.75-1.26,1.07-2.02.71l-4.36-2.08c-.75-.36-1.07-1.26-.71-2.02.36-.75,1.26-1.07,2.02-.71Z"/>
    <path class="cls-7" d="m142.9,108.96c.75.36,1.07,1.26.71,2.02l-2.52,5.28c-.36.75-1.26,1.07-2.02.71-.75-.36-1.07-1.26-.71-2.02l2.52-5.28c.36-.75,1.26-1.07,2.02-.71Z"/>
    <path class="cls-2" d="m142.35,117.61c.43,1.22,1.77,1.86,2.99,1.42,1.22-.43,1.86-1.77,1.42-2.98-.43-1.22-1.77-1.86-2.98-1.43-1.22.43-1.86,1.77-1.43,2.99Z"/>
    <path class="cls-2" d="m137.31,120.16c.63,1.76-.3,3.7-2.07,4.33-1.77.62-3.7-.3-4.33-2.06-.62-1.77.3-3.7,2.07-4.33,1.77-.62,3.7.3,4.33,2.07Z"/>
    <path class="cls-2" d="m261.19,116.48c-3.56-1.26-3.21-4.96-3.21-4.96,0,0-4.11-2.41-3.27-4.78.84-2.38,5.67-2,5.67-2,0,0,2.09-2.12,5.31-.98,3.22,1.14,3.51,4.1,3.51,4.1,0,0,3.99,2.75,3.15,5.13-.84,2.37-5.55,1.66-5.55,1.66,0,0-2.05,3.09-5.61,1.83Z"/>
    <path class="cls-7" d="m266.83,125.36l2.08,4.37c.36.75.04,1.66-.71,2.02-.75.36-1.66.04-2.02-.71l-2.08-4.36c-.36-.75-.04-1.66.71-2.02.75-.36,1.66-.04,2.02.71Z"/>
    <path class="cls-7" d="m274.09,117.24c.36.75.04,1.66-.71,2.02l-5.28,2.52c-.75.36-1.66.04-2.02-.71-.36-.75-.04-1.66.71-2.02l5.29-2.52c.75-.36,1.66-.04,2.02.71Z"/>
    <path class="cls-2" d="m268.22,123.61c-.43,1.22.21,2.55,1.43,2.99,1.22.43,2.55-.21,2.99-1.42.43-1.22-.21-2.56-1.42-2.99-1.22-.43-2.56.21-2.99,1.43Z"/>
    <path class="cls-7" d="m251.23,119.84l-4.36,2.08c-.75.36-1.07,1.26-.71,2.02.36.75,1.26,1.07,2.02.71l4.36-2.08c.75-.36,1.07-1.26.71-2.02-.36-.75-1.27-1.07-2.02-.71Z"/>
    <path class="cls-7" d="m250.7,108.96c-.75.36-1.07,1.26-.71,2.02l2.52,5.28c.36.75,1.26,1.07,2.02.71.75-.36,1.08-1.26.71-2.02l-2.52-5.28c-.36-.75-1.26-1.07-2.02-.71Z"/>
    <path class="cls-2" d="m251.25,117.61c-.43,1.22-1.77,1.86-2.99,1.42-1.22-.43-1.86-1.77-1.42-2.98.43-1.22,1.77-1.86,2.99-1.43,1.22.43,1.86,1.77,1.42,2.99Z"/>
    <path class="cls-2" d="m256.29,120.16c-.63,1.76.3,3.7,2.07,4.33,1.77.62,3.71-.3,4.33-2.06.63-1.77-.3-3.7-2.06-4.33-1.77-.62-3.7.3-4.33,2.07Z"/>
    <path class="cls-7" d="m80,132.01c-.59,1.32,0,2.88,1.32,3.48.02.01,2.31,1.08,3.26,3.25,1.18,2.7,1.38,5.11,1.38,5.14.11,1.45,1.38,2.54,2.83,2.43,1.45-.11,2.54-1.36,2.44-2.81,0-.13-.25-3.3-1.81-6.87-1.76-4.03-5.54-5.77-5.96-5.96-1.33-.58-2.87.02-3.46,1.35Z"/>
    <path class="cls-7" d="m79.04,128.08c0-1.46-1.18-2.64-2.64-2.64h-6.4c-1.46,0-2.64,1.18-2.64,2.64s1.18,2.64,2.64,2.64h5.44l.37,4.07c.06.66.64,1.15,1.3,1.09.66-.06,1.15-.64,1.09-1.3l-.39-4.31c.73-.47,1.24-1.25,1.24-2.18Z"/>
    <path class="cls-7" d="m83.6,144.78c0,2.82-2.28,5.1-5.1,5.1s-5.1-2.28-5.1-5.1,2.28-5.1,5.1-5.1,5.1,2.28,5.1,5.1Z"/>
    <path class="cls-7" d="m313.6,132.01c.59,1.32,0,2.88-1.32,3.48-.02.01-2.31,1.08-3.26,3.25-1.18,2.7-1.38,5.11-1.38,5.14-.11,1.45-1.38,2.54-2.83,2.43-1.45-.11-2.54-1.36-2.44-2.81,0-.13.25-3.3,1.81-6.87,1.76-4.03,5.54-5.77,5.96-5.96,1.33-.58,2.87.02,3.46,1.35Z"/>
    <path class="cls-7" d="m314.56,128.08c0-1.46,1.18-2.64,2.64-2.64h6.4c1.46,0,2.64,1.18,2.64,2.64s-1.18,2.64-2.64,2.64h-5.44l-.37,4.07c-.06.66-.64,1.15-1.31,1.09-.66-.06-1.15-.64-1.08-1.3l.39-4.31c-.73-.47-1.24-1.25-1.24-2.18Z"/>
    <path class="cls-7" d="m310,144.78c0,2.82,2.28,5.1,5.1,5.1s5.1-2.28,5.1-5.1-2.28-5.1-5.1-5.1-5.1,2.28-5.1,5.1Z"/>
    <path class="cls-7" d="m167.62,112.35l-.53-2.69c-.34-1.72-2.11-2.82-3.95-2.45-1.84.36-3.06,2.05-2.72,3.76l.53,2.69c-1.42.65-2.25,2.27-1.93,3.94.38,1.95,2.19,3.23,4.03,2.87,1.06-.21,1.88-.92,2.34-1.85.77.69,1.81,1.04,2.86.83,1.84-.36,3.02-2.23,2.64-4.18-.33-1.68-1.72-2.86-3.27-2.92Z"/>
    <path class="cls-7" d="m106.78,124.45l-.95-2.57c-.61-1.64-2.53-2.45-4.29-1.79-1.76.65-2.7,2.51-2.09,4.15l.95,2.57c-1.3.86-1.87,2.6-1.27,4.2.69,1.86,2.67,2.85,4.44,2.19,1.01-.37,1.71-1.21,2.01-2.2.87.56,1.95.74,2.96.36,1.76-.65,2.63-2.69,1.94-4.55-.59-1.61-2.15-2.55-3.7-2.36Z"/>
    <path class="cls-7" d="m225.98,112.35l.53-2.69c.34-1.72,2.1-2.82,3.95-2.45,1.84.36,3.06,2.05,2.73,3.76l-.53,2.69c1.42.65,2.25,2.27,1.92,3.94-.38,1.95-2.19,3.23-4.03,2.87-1.06-.21-1.88-.92-2.34-1.85-.77.69-1.8,1.04-2.86.83-1.84-.36-3.03-2.23-2.64-4.18.33-1.68,1.72-2.86,3.27-2.92Z"/>
    <path class="cls-7" d="m286.82,124.45l.95-2.57c.61-1.64,2.53-2.45,4.29-1.79,1.76.65,2.7,2.51,2.09,4.15l-.95,2.57c1.3.86,1.87,2.6,1.27,4.2-.69,1.86-2.67,2.85-4.43,2.19-1.01-.37-1.71-1.21-2.01-2.2-.87.56-1.95.74-2.96.36-1.76-.65-2.63-2.69-1.94-4.55.59-1.61,2.15-2.55,3.7-2.36Z"/>
    <path class="cls-2" d="m196.8,126.28s7.8,6.6,17,6.6c7.4,0,12.8-5,12.8-5,0,0,10,7.4,18.2,7.4s9.8-2.2,9.8-2.2c0,0,5.2,9.4,16.4,9.4,8.8,0,12.4-1.8,12.4-1.8,0,0,4.6,11.2,13.4,11.2,6.8,0,11.6,1,12.6,0,1-1-1.2-3.8-1.2-3.8,0,0-2.8,1.4-7.2,1.4-7.8,0-15.4-14.2-15.4-14.2,0,0-4.2,3.4-9.8,3.4-13.4,0-19-11.4-19-11.4,0,0-6,3.2-11.2,3.2-11.4,0-18.2-8.4-18.2-8.4,0,0-4.4,6-13,6-11.8,0-17.6-7.2-17.6-7.2,0,0-5.8,7.2-17.6,7.2-8.6,0-13-6-13-6,0,0-6.8,8.4-18.2,8.4-5.2,0-11.2-3.2-11.2-3.2,0,0-5.6,11.4-19,11.4-5.6,0-9.8-3.4-9.8-3.4,0,0-7.6,14.2-15.4,14.2-4.4,0-7.2-1.4-7.2-1.4,0,0-2.2,2.8-1.2,3.8,1,1,5.8,0,12.6,0,8.8,0,13.4-11.2,13.4-11.2,0,0,3.6,1.8,12.4,1.8,11.2,0,16.4-9.4,16.4-9.4,0,0,1.6,2.2,9.8,2.2s18.2-7.4,18.2-7.4c0,0,5.4,5,12.8,5,9.2,0,17-6.6,17-6.6Z"/>
    <path class="cls-2" d="m286.25,147.76c-1.74-2.03-2.94-4.13-3.56-5.38-1.6.52-4.79,1.31-10.11,1.44,5.37,1.38,9.95,2.74,13.67,3.94Z"/>
    <path class="cls-2" d="m121.01,143.82c-5.32-.14-8.51-.92-10.11-1.44-.62,1.25-1.81,3.35-3.55,5.38,3.71-1.2,8.29-2.56,13.66-3.94Z"/>
    <path class="cls-2" d="m196.8,134.64c25.69,0,47.37,2.96,63.99,6.44-3.34-1.99-5.49-4.57-6.55-6.07-1.46.78-4.25,1.64-9.44,1.64-7.25,0-15.52-5.26-18.13-7.05-1.85,1.45-6.64,4.65-12.86,4.65-7.95,0-14.71-4.52-17-6.24-2.29,1.72-9.05,6.24-17,6.24-6.23,0-11.02-3.21-12.87-4.65-2.61,1.8-10.88,7.05-18.13,7.05-5.19,0-7.98-.86-9.44-1.64-1.06,1.5-3.2,4.08-6.54,6.07,16.62-3.47,38.3-6.44,63.99-6.44Z"/>
    <path class="cls-2" d="m330.2,113.07c-1.68-1.12-2.79-3.02-2.79-5.19,0-1.54.58-2.93,1.51-4.02-.05-.16-.08-.33-.13-.49-2.98-.47-5.28-3.03-5.28-6.14,0-1.16.34-2.23.89-3.17v-.02c-.42.08-.83.13-1.26.13-3.44,0-6.24-2.8-6.24-6.24,0-.63.12-1.22.29-1.79-.57.18-1.16.3-1.78.3-3.44,0-6.24-2.8-6.24-6.24,0-.73.15-1.42.38-2.08-.04-.03-.07-.06-.11-.09-.65.23-1.34.38-2.06.38-3.44,0-6.24-2.8-6.24-6.24,0-.04.01-.07.01-.11-.29-.19-.57-.39-.87-.58-.6.2-1.24.33-1.91.33-3.06,0-5.61-2.23-6.13-5.14-.49-.27-.96-.55-1.46-.82-.68.25-1.4.41-2.17.41-2.85,0-5.23-1.93-5.97-4.54-.54-.26-1.06-.52-1.6-.78-.76.33-1.6.52-2.47.52-2.71,0-5.01-1.75-5.86-4.18-.57-.23-1.14-.47-1.71-.7-.84.42-1.78.68-2.78.68-2.62,0-4.86-1.63-5.78-3.93-.43-.16-.87-.31-1.3-.47-.95.59-2.07.95-3.27.95-2.62,0-4.86-1.63-5.78-3.92-.3-.09-.61-.19-.92-.29-1.03.75-2.29,1.2-3.65,1.2-2.59,0-4.81-1.59-5.75-3.84-.29-.07-.58-.15-.87-.23-1.09.93-2.49,1.52-4.03,1.52-2.56,0-4.76-1.56-5.72-3.77-.37-.08-.75-.16-1.12-.24-1.08.9-2.45,1.46-3.96,1.46-.4,0-.78-.08-1.16-.16.08.02.16.05.25.07.25.17.49.35.73.53,56.92,11.06,89.81,56.64,89.81,67.43,0,7.62,3.66,9.6,9.66,9.6,1.64,0,2.69-.62,3.4-1.59-.44-.85-.71-1.81-.71-2.83,0-1.85.83-3.5,2.11-4.64,0-.35,0-.7,0-1.05Z"/>
    <path class="cls-2" d="m168.66,45.56c-.38.07-.76.16-1.16.16-1.51,0-2.88-.56-3.96-1.46-.37.08-.75.16-1.12.24-.96,2.21-3.16,3.77-5.72,3.77-1.54,0-2.94-.58-4.03-1.52-.29.07-.58.15-.86.23-.94,2.25-3.16,3.84-5.75,3.84-1.37,0-2.62-.46-3.65-1.2-.31.09-.61.19-.92.29-.92,2.29-3.16,3.92-5.78,3.92-1.2,0-2.31-.36-3.27-.95-.43.15-.87.31-1.3.47-.92,2.3-3.16,3.93-5.78,3.93-1,0-1.94-.26-2.78-.68-.57.23-1.14.47-1.71.7-.85,2.43-3.15,4.18-5.86,4.18-.88,0-1.71-.19-2.48-.52-.54.25-1.07.52-1.6.78-.74,2.61-3.12,4.54-5.97,4.54-.77,0-1.49-.16-2.17-.41-.49.27-.97.55-1.46.82-.52,2.92-3.06,5.14-6.13,5.14-.67,0-1.3-.13-1.91-.33-.3.19-.58.39-.87.58,0,.04.01.07.01.11,0,3.44-2.8,6.24-6.24,6.24-.73,0-1.41-.15-2.06-.38-.04.03-.07.06-.11.09.23.65.38,1.34.38,2.08,0,3.44-2.8,6.24-6.24,6.24-.63,0-1.22-.13-1.78-.3.17.57.29,1.16.29,1.79,0,3.44-2.8,6.24-6.24,6.24-.43,0-.84-.04-1.24-.13,0,0,0,.02-.01.02.55.93.89,2,.89,3.17,0,3.11-2.29,5.67-5.27,6.14-.05.16-.09.33-.13.49.93,1.09,1.51,2.48,1.51,4.02,0,2.16-1.11,4.07-2.79,5.19,0,.35,0,.7,0,1.05,1.28,1.14,2.11,2.79,2.11,4.64,0,1.02-.27,1.98-.71,2.83.71.97,1.76,1.59,3.4,1.59,6,0,9.66-1.98,9.66-9.6,0-10.79,32.9-56.36,89.81-67.43.25-.18.49-.36.73-.53.09-.01.16-.05.25-.07Z"/>
    <path class="cls-7" d="m242.06,59.23c-4.24-3.81-10-8.67-16.14-13.07-.25-.18-.49-.36-.73-.53-.09-.01-.16-.05-.25-.07-.31-.06-.61-.14-.89-.24-.2-.07-.38-.16-.57-.24-.25-.12-.49-.23-.72-.38-.23-.15-.44-.33-.65-.51-.16-.13-.32-.25-.47-.4-.34-.35-.64-.74-.9-1.16,0,0-.01,0-.02-.01-.25-.16-.5-.34-.76-.49-.28.27-.6.49-.93.71-.08.05-.14.12-.23.17,1.39.43,2.56,1.32,3.35,2.5.67.98,1.07,2.16,1.07,3.44,0,3.44-2.8,6.24-6.23,6.24s-6.24-2.8-6.24-6.24c0-1.87.86-3.5,2.17-4.64.27-.24.54-.48.85-.67-.06-.02-.11-.05-.16-.07-.58-.2-1.11-.48-1.59-.82-.11-.08-.23-.14-.33-.22-.15-.12-.28-.27-.42-.41-.17-.17-.35-.34-.5-.53-.21-.26-.41-.53-.57-.82-.24.43-.55.81-.87,1.17-.05.06-.1.12-.15.17-.34.34-.72.65-1.14.91-.12.07-.24.12-.37.18-.29.15-.59.29-.91.39-.21.07-.41.13-.63.17-.43.1-.87.18-1.33.18-.59,0-1.16-.11-1.7-.26l-.15.14c-1.54-1.66-3.71-2.71-6.15-2.71s-4.61,1.05-6.15,2.71l-.15-.14c-.54.16-1.11.26-1.7.26-.46,0-.9-.09-1.33-.18-.22-.05-.42-.1-.63-.17-.31-.11-.62-.24-.91-.39-.12-.06-.25-.11-.36-.18-.42-.26-.8-.56-1.14-.91-.05-.05-.1-.11-.15-.17-.33-.36-.63-.74-.88-1.17-.17.29-.36.56-.57.82-.15.19-.32.36-.5.53-.14.14-.27.29-.42.41-.11.09-.23.15-.34.23-.48.34-1.01.63-1.59.82-.06.02-.1.05-.16.07.31.19.58.44.85.67,1.31,1.14,2.17,2.77,2.17,4.64,0,3.44-2.8,6.24-6.24,6.24s-6.24-2.8-6.24-6.24c0-1.28.4-2.46,1.07-3.44.79-1.17,1.96-2.07,3.35-2.5-.09-.05-.16-.13-.24-.18-.32-.21-.64-.43-.91-.69-.25.16-.5.33-.76.49,0,0-.01,0-.02.01-.25.43-.56.81-.9,1.16-.14.15-.31.26-.46.4-.21.18-.42.36-.65.51-.23.15-.47.26-.72.38-.19.09-.37.17-.57.24-.29.1-.59.18-.9.24-.09.02-.16.05-.25.07-.25.17-.49.35-.73.53-6.14,4.4-11.9,9.26-16.14,13.07-10.14,9.11-27.14,25.88-27.14,35.86,0,3.86,3.05,6.71,6.9,6.88,3.85.17,7.16-3.04,7.5-6.88l-.04.51c1.99-8.18,35-38.83,49.64-45.29v37.17c0,2.93,1.51,5.51,3.79,7.01,1.01-.83,2.5-1.57,4.61-1.57s3.6.75,4.61,1.57c2.28-1.5,3.79-4.08,3.79-7.01v-37.17c14.64,6.45,47.65,37.1,49.64,45.29l-.05-.51c.33,3.84,3.65,7.05,7.5,6.88,3.85-.17,6.9-3.03,6.9-6.88,0-9.97-17-26.75-27.14-35.86Zm-75.76,3.19c-1.12,0-2.16-.32-3.08-.85.22.63.36,1.3.36,2.01,0,3.44-2.8,6.24-6.24,6.24-1.12,0-2.17-.32-3.08-.84.53.92.86,1.97.86,3.11,0,3.44-2.8,6.24-6.24,6.24-.99,0-1.91-.25-2.75-.67.42.84.68,1.78.68,2.78,0,3.44-2.8,6.24-6.24,6.24-.81,0-1.57-.16-2.28-.44.75,1.03,1.21,2.29,1.21,3.66,0,3.44-2.8,6.24-6.24,6.24s-6.24-2.8-6.24-6.24,2.8-6.24,6.24-6.24c.81,0,1.57.17,2.28.44-.75-1.03-1.21-2.29-1.21-3.66,0-3.44,2.8-6.24,6.24-6.24.99,0,1.92.25,2.75.67-.42-.84-.68-1.78-.68-2.78,0-3.44,2.8-6.24,6.24-6.24,1.12,0,2.17.32,3.08.85-.53-.92-.86-1.97-.86-3.11,0-3.44,2.8-6.24,6.24-6.24,1.12,0,2.16.32,3.08.84-.22-.63-.36-1.3-.36-2.01,0-3.44,2.8-6.24,6.24-6.24s6.24,2.8,6.24,6.24-2.8,6.24-6.24,6.24Zm36.74-.74c0,2.43-1.42,4.52-3.46,5.55,2.04,1.03,3.46,3.12,3.46,5.55s-1.54,4.73-3.73,5.7c2.19.97,3.73,3.15,3.73,5.7,0,3.44-2.8,6.24-6.24,6.24s-6.24-2.8-6.24-6.24c0-2.55,1.54-4.73,3.73-5.7-2.19-.97-3.73-3.15-3.73-5.7s1.41-4.52,3.45-5.55c-2.04-1.03-3.45-3.12-3.45-5.55s1.48-4.63,3.59-5.62c-2.11-1-3.59-3.14-3.59-5.62,0-3.44,2.8-6.24,6.24-6.24s6.24,2.8,6.24,6.24c0,2.49-1.48,4.63-3.59,5.62,2.12,1,3.59,3.14,3.59,5.62Zm57.26,34.44c-3.44,0-6.24-2.8-6.24-6.24,0-1.37.46-2.63,1.21-3.66-.71.28-1.47.44-2.28.44-3.44,0-6.24-2.8-6.24-6.24,0-1,.26-1.94.68-2.78-.83.41-1.76.67-2.75.67-3.44,0-6.24-2.8-6.24-6.24,0-1.14.33-2.19.87-3.11-.91.52-1.95.84-3.08.84-3.44,0-6.24-2.8-6.24-6.24,0-.71.15-1.37.36-2.01-.91.52-1.95.85-3.08.85-3.44,0-6.24-2.8-6.24-6.24s2.8-6.24,6.24-6.24,6.23,2.8,6.23,6.24c0,.71-.14,1.37-.36,2.01.91-.52,1.95-.84,3.08-.84,3.44,0,6.23,2.8,6.23,6.24,0,1.14-.33,2.19-.86,3.11.91-.52,1.95-.85,3.08-.85,3.44,0,6.23,2.8,6.23,6.24,0,1-.26,1.94-.68,2.78.83-.41,1.76-.67,2.75-.67,3.44,0,6.23,2.8,6.23,6.24,0,1.37-.46,2.63-1.21,3.66.71-.28,1.47-.44,2.28-.44,3.44,0,6.23,2.8,6.23,6.24s-2.8,6.24-6.23,6.24Z"/>
    <circle class="cls-8" cx="59.27" cy="118.76" r="4.87"/>
    <circle class="cls-8" cx="59.95" cy="107.88" r="4.87"/>
    <circle class="cls-8" cx="63.85" cy="97.23" r="4.87"/>
    <circle class="cls-8" cx="70.45" cy="87.93" r="4.87"/>
    <circle class="cls-8" cx="78.17" cy="80.21" r="4.87"/>
    <circle class="cls-8" cx="86.2" cy="72.18" r="4.87"/>
    <circle class="cls-8" cx="95.2" cy="65.58" r="4.87"/>
    <circle class="cls-8" cx="104.95" cy="60.03" r="4.87"/>
    <circle class="cls-8" cx="115" cy="55.23" r="4.87"/>
    <circle class="cls-8" cx="125.35" cy="51.03" r="4.87"/>
    <circle class="cls-8" cx="135.7" cy="47.58" r="4.87"/>
    <circle class="cls-8" cx="146.05" cy="44.58" r="4.87"/>
    <circle class="cls-8" cx="156.7" cy="42.03" r="4.87"/>
    <circle class="cls-8" cx="167.5" cy="39.48" r="4.87"/>
    <circle class="cls-8" cx="178" cy="37.68" r="4.87"/>
    <circle class="cls-8" cx="188.8" cy="37.68" r="4.87"/>
    <circle class="cls-8" cx="133.3" cy="89.88" r="4.87"/>
    <circle class="cls-8" cx="140.6" cy="80.43" r="4.87"/>
    <circle class="cls-8" cx="148.9" cy="72.08" r="4.87"/>
    <circle class="cls-8" cx="157.35" cy="63.58" r="4.87"/>
    <circle class="cls-8" cx="166.3" cy="56.18" r="4.87"/>
    <circle class="cls-8" cx="176.6" cy="48.93" r="4.87"/>
    <circle class="cls-8" cx="260.3" cy="89.88" r="4.87"/>
    <circle class="cls-8" cx="253" cy="80.43" r="4.87"/>
    <circle class="cls-8" cx="244.7" cy="72.08" r="4.87"/>
    <circle class="cls-8" cx="236.25" cy="63.58" r="4.87"/>
    <circle class="cls-8" cx="227.3" cy="56.18" r="4.87"/>
    <circle class="cls-8" cx="217" cy="48.93" r="4.87"/>
    <circle class="cls-8" cx="334.33" cy="118.76" r="4.87"/>
    <circle class="cls-8" cx="333.65" cy="107.88" r="4.87"/>
    <circle class="cls-8" cx="329.75" cy="97.23" r="4.87"/>
    <circle class="cls-8" cx="323.15" cy="87.93" r="4.87"/>
    <circle class="cls-8" cx="315.43" cy="80.21" r="4.87"/>
    <circle class="cls-8" cx="307.4" cy="72.18" r="4.87"/>
    <circle class="cls-8" cx="298.4" cy="65.58" r="4.87"/>
    <circle class="cls-8" cx="288.65" cy="60.03" r="4.87"/>
    <circle class="cls-8" cx="278.6" cy="55.23" r="4.87"/>
    <circle class="cls-8" cx="268.25" cy="51.03" r="4.87"/>
    <circle class="cls-8" cx="257.9" cy="47.58" r="4.87"/>
    <circle class="cls-8" cx="247.55" cy="44.58" r="4.87"/>
    <circle class="cls-8" cx="236.9" cy="42.03" r="4.87"/>
    <circle class="cls-8" cx="226.1" cy="39.48" r="4.87"/>
    <circle class="cls-8" cx="215.6" cy="37.68" r="4.87"/>
    <circle class="cls-8" cx="204.8" cy="37.68" r="4.87"/>
    <path class="cls-8" d="m201.68,50.43c0,2.69-2.18,4.87-4.88,4.87s-4.87-2.18-4.87-4.87,2.18-4.87,4.87-4.87,4.88,2.18,4.88,4.87Z"/>
    <path class="cls-8" d="m201.68,61.68c0,2.69-2.18,4.87-4.88,4.87s-4.87-2.18-4.87-4.87,2.18-4.87,4.87-4.87,4.88,2.18,4.88,4.87Z"/>
    <path class="cls-8" d="m201.68,72.78c0,2.69-2.18,4.88-4.88,4.88s-4.87-2.18-4.87-4.88,2.18-4.88,4.87-4.88,4.88,2.18,4.88,4.88Z"/>
    <path class="cls-8" d="m201.68,84.18c0,2.69-2.19,4.87-4.88,4.87s-4.87-2.18-4.87-4.87,2.18-4.87,4.87-4.87,4.88,2.18,4.88,4.87Z"/>
    <polygon class="cls-2" points="212.4 15.48 200.2 15.48 200.2 7.48 193.4 7.48 193.4 15.48 181.2 15.48 181.2 22.28 193.4 22.28 193.4 32.68 200.2 32.68 200.2 22.28 212.4 22.28 212.4 15.48"/>
    <path class="cls-4" d="m135.69,125.77c-1.62.57-3.34.2-4.59-.82l-.25.17c.22.68.2,1.43-.13,2.12l-2.08,4.36-1.63,1.47s-2.2-.12-2.2-.12c-1.43-.69-2.03-2.4-1.35-3.83l.55-1.16c-.82.19-1.67.12-2.44-.25-.89-.43-1.56-1.17-1.89-2.1-.33-.93-.28-1.94.15-2.83.32-.66.85-1.15,1.47-1.52l-1.67-.8c-1.42-.69-2.03-2.4-1.35-3.83h0c.54-1.13,1.73-1.72,2.91-1.59-.54-.39-.98-.91-1.24-1.63-.13-.38-.19-.76-.19-1.13,0-2.41,2.4-4.46,3.4-5.22.28-1.14,1.22-3.53,4.29-4.62.08-.03.14-.04.22-.06-1.65-.81-2.97-2.12-3.76-3.73h-12.9c-14.2,0-28.6,17.4-28.6,17.4h-3.34c-.66,5.12-3.36,7.2-6.5,8h3.85c2.21,0,4,1.8,4,4,0,.98-.48,1.84-1.15,2.57,1.09-1.42,3.05-1.98,4.75-1.23.47.21,4.69,2.16,6.66,6.66,1.66,3.79,1.91,7.18,1.92,7.32.16,2.19-1.5,4.11-3.69,4.27-.14.01-.28,0-.42-.01,1.09.25,2.48.46,4.12.46,5.72,0,12.19-9.73,14.2-13.48l.78-1.44,1.28,1.02s3.92,3.1,8.95,3.1c12.36,0,17.57-10.21,17.78-10.64l.55-1.11c-.15.07-.29.15-.44.21Zm-26.69,6.86c-.91.34-1.86.18-2.79-.08-.54.85-1.23,1.57-2.18,1.92-1.16.43-2.43.37-3.57-.15-1.21-.56-2.14-1.57-2.61-2.85-.22-.59-.32-1.2-.32-1.79,0-1.2.54-2.25,1.33-3.13-.28-.75-.68-1.84-.68-1.84-.18-.49-.27-1-.27-1.51,0-.64.14-1.27.42-1.88.53-1.15,1.53-2.06,2.75-2.51,1.22-.45,2.57-.41,3.72.12,1.09.5,1.91,1.38,2.31,2.48,0,0,.41,1.11.68,1.85,1.74.25,3.31,1.31,3.96,3.08.22.59.32,1.18.32,1.77,0,1.98-1.17,3.82-3.07,4.52Z"/>
    <path class="cls-4" d="m192.35,117.49l-.51.17c0,.79-.29,1.57-.88,2.17l-3.8,3.8-2.15.89-2.15-.89c-1.19-1.19-1.19-3.11,0-4.3l1.24-1.24c-2.13-.06-3.85-1.8-3.85-3.95,0-1.06.41-2.05,1.16-2.8.62-.62,1.41-.99,2.26-1.11l-1.61-1.61c-1.19-1.19-1.19-3.11,0-4.3h0c1.16-1.16,3.03-1.17,4.22-.05h.01c-.73-.73-1.24-1.63-1.24-2.8,0-3.32,4.23-4.89,5.66-5.33.12-.19.3-.44.52-.69-2.61-1.83-4.17-4.79-4.17-7.98v-.95l-18.24.75s-15.4.8-20.8,6.2c-2.66-.77-4.59-1.1-5.98-1.22-1.04,1.5-1.72,2.75-1.94,3.66,0,0-.11-.02-.12-.02-.62,3.6-3.31,6.46-6.66,7.21.14.09.26.18.37.25,1.46-.04,5.51.1,6.51,2.92.13.38.2.76.2,1.12,0,.31-.05.61-.13.9.84-.84,2.12-1.12,3.25-.59l1.47,1.63s-.12,2.2-.11,2.2l-.76,1.6c.7-.09,1.41.02,2.07.33.89.43,1.56,1.17,1.89,2.1.33.93.28,1.93-.14,2.83-.37.78-1.02,1.34-1.79,1.71l1.2.57,1.47,1.63s-.12,2.2-.12,2.2c-.68,1.43-2.4,2.04-3.83,1.35l-4.37-2.08c-.65-.31-1.11-.85-1.37-1.47h-.37c-.08.34-.18.68-.34,1.01-.45.94-1.18,1.67-2.09,2.15l1.13.6c.06.03,5.77,3.04,10.56,3.04,10.58,0,17.08-7.82,17.14-7.9l.66-.8s-.08-.03-.12-.05c-.66.69-1.43,1.24-2.37,1.43-2.57.51-5.1-1.26-5.63-3.94-.07-.34-.1-.67-.1-1.01,0-1.48.78-2.73,1.89-3.64-.15-.77-.39-1.98-.39-1.98-.06-.28-.08-.56-.08-.84,0-.87.26-1.72.77-2.47.71-1.05,1.84-1.8,3.11-2.04,1.27-.25,2.61,0,3.66.71.99.67,1.66,1.67,1.89,2.81,0,0,.2,1.04.36,1.83,1.71.5,3.07,1.9,3.44,3.78.07.33.1.67.1,1.01,0,.99-.29,1.96-.85,2.78-.7,1.04-1.76,1.75-2.97,1.99-.54.11-1.07.09-1.59,0l.37.5c.17.22,4.14,5.45,11.9,5.45,10.95,0,16.49-6.63,16.54-6.7l.04-.05c-1.47-.3-2.71-1.23-3.44-2.49Z"/>
    <path class="cls-4" d="m257.47,125.57l.55,1.11c.21.43,5.42,10.64,17.78,10.64,5.02,0,8.91-3.07,8.95-3.1l1.28-1.02.78,1.44c2.01,3.75,8.48,13.48,14.2,13.48,1.65,0,3.04-.21,4.12-.46-.14,0-.28.02-.42.01-2.19-.16-3.85-2.08-3.69-4.27,0-.14.27-3.53,1.92-7.32,1.97-4.5,6.19-6.45,6.66-6.66,1.71-.75,3.66-.19,4.75,1.23-.67-.72-1.15-1.59-1.15-2.57,0-2.21,1.79-4,4-4h3.85c-3.14-.8-5.85-2.88-6.5-8h-3.34s-14.4-17.4-28.6-17.4h-12.9c-.8,1.61-2.11,2.92-3.76,3.73.08.02.14.03.22.06,3.07,1.09,4.01,3.48,4.29,4.62,1,.76,3.4,2.81,3.4,5.22,0,.37-.06.75-.19,1.13-.25.71-.7,1.23-1.24,1.63,1.18-.13,2.37.45,2.91,1.58h0c.68,1.43.07,3.14-1.35,3.83l-1.67.8c.62.37,1.15.85,1.47,1.52.42.89.48,1.9.15,2.83-.33.93-1,1.68-1.89,2.1-.77.37-1.62.44-2.45.25l.56,1.16c.68,1.43.08,3.14-1.35,3.83,0,0-2.2.12-2.2.12l-1.64-1.47-2.08-4.36c-.33-.69-.34-1.45-.13-2.12l-.25-.17c-1.25,1.02-2.96,1.39-4.58.82-.15-.06-.29-.14-.44-.21Zm24.06,2.55c0-.59.1-1.19.32-1.77.65-1.77,2.22-2.83,3.96-3.08.27-.75.68-1.85.68-1.85.41-1.1,1.23-1.98,2.32-2.48,1.15-.53,2.5-.57,3.72-.12,1.22.45,2.22,1.36,2.75,2.51.28.6.42,1.24.42,1.88,0,.51-.09,1.02-.27,1.51,0,0-.41,1.1-.68,1.84.78.88,1.33,1.94,1.33,3.13,0,.59-.11,1.2-.32,1.79-.47,1.28-1.4,2.29-2.61,2.85-1.14.53-2.41.58-3.57.15-.95-.35-1.64-1.07-2.18-1.92-.93.26-1.87.42-2.79.08-1.9-.7-3.07-2.54-3.07-4.52Z"/>
    <path class="cls-4" d="m201.25,117.49l.51.17c0,.79.29,1.57.88,2.17l3.8,3.8,2.15.89,2.15-.89c1.19-1.19,1.19-3.11,0-4.3l-1.24-1.24c2.13-.06,3.85-1.8,3.85-3.95,0-1.06-.41-2.05-1.16-2.8-.62-.62-1.41-.99-2.26-1.11l1.61-1.61c1.19-1.19,1.19-3.11,0-4.3h0c-1.16-1.16-3.03-1.17-4.22-.05h0c.72-.73,1.24-1.63,1.24-2.8,0-3.32-4.23-4.89-5.66-5.33-.12-.19-.3-.44-.52-.69,2.61-1.83,4.17-4.79,4.17-7.98v-.95l18.24.75s15.4.8,20.8,6.2c2.66-.77,4.59-1.1,5.98-1.22,1.04,1.5,1.72,2.75,1.94,3.66,0,0,.11-.02.12-.02.62,3.6,3.31,6.46,6.66,7.21-.14.09-.26.18-.37.25-1.46-.04-5.5.1-6.51,2.92-.13.38-.19.76-.19,1.12,0,.31.05.61.12.9-.84-.84-2.12-1.12-3.25-.59l-1.47,1.63s.12,2.2.12,2.2l.76,1.6c-.7-.09-1.41.02-2.06.33-.89.43-1.57,1.17-1.89,2.1-.33.93-.28,1.93.15,2.83.37.78,1.02,1.34,1.79,1.71l-1.2.57-1.47,1.63s.12,2.2.12,2.2c.68,1.43,2.4,2.04,3.83,1.35l4.37-2.08c.65-.31,1.11-.85,1.37-1.47h.37c.08.34.18.68.34,1.01.45.94,1.18,1.67,2.09,2.15l-1.13.6c-.06.03-5.77,3.04-10.56,3.04-10.58,0-17.08-7.82-17.14-7.9l-.66-.8s.08-.03.12-.05c.66.69,1.42,1.24,2.37,1.43,2.58.51,5.1-1.26,5.63-3.94.07-.34.1-.67.1-1.01,0-1.48-.79-2.73-1.89-3.64.15-.77.39-1.98.39-1.98.06-.28.08-.56.08-.84,0-.87-.26-1.72-.77-2.47-.71-1.05-1.84-1.8-3.11-2.04-1.27-.25-2.61,0-3.66.71-.99.67-1.66,1.67-1.89,2.81,0,0-.2,1.04-.36,1.83-1.71.5-3.07,1.9-3.44,3.78-.07.33-.1.67-.1,1.01,0,.99.29,1.96.85,2.78.7,1.04,1.76,1.75,2.96,1.99.54.11,1.07.09,1.59,0l-.37.5c-.16.22-4.14,5.45-11.9,5.45-10.95,0-16.49-6.63-16.54-6.7l-.04-.05c1.47-.3,2.71-1.23,3.44-2.49Z"/>
  </g>
</svg>