<?xml version="1.0" encoding="UTF-8"?>
<svg id="Layer_2" data-name="Layer 2" xmlns="http://www.w3.org/2000/svg" viewBox="0 0 566 566">
  <defs>
    <style>
      .cls-1 {
        fill: #6c1b3b;
      }

      .cls-1, .cls-2, .cls-3 {
        stroke-width: 0px;
      }

      .cls-2 {
        fill: #fff;
      }

      .cls-3 {
        fill: #fcb119;
      }
    </style>
  </defs>
  <g id="Layer_1-2" data-name="Layer 1">
    <path class="cls-3" d="m0,283C0,126.7,126.7,0,283,0h0c156.29,0,283,126.7,283,283h0c0,156.29-126.7,283-283,283h0C126.7,566,0,439.3,0,283h0Z"/>
    <path class="cls-1" d="m88.64,88.63C38.88,138.39,8.13,207.08,8.12,283h0c0,75.92,30.76,144.61,80.51,194.36h0c49.75,49.75,118.45,80.51,194.37,80.51h0c75.92,0,144.61-30.76,194.36-80.51h0c49.75-49.75,80.51-118.45,80.51-194.36h0c0-75.92-30.76-144.61-80.51-194.37h0c-49.75-49.75-118.45-80.51-194.36-80.51h0c-75.92,0-144.61,30.76-194.37,80.51h0Z"/>
    <g>
      <path class="cls-2" d="m25.46,326.93l-1.48-9.83,41.15-22.85,1.49,9.95-9.21,4.75,2.45,16.3,10.22,1.96,1.46,9.71-46.09-10Zm26.88-3.1l-1.7-11.3-15.17,7.9.02.12,16.85,3.28Z"/>
      <path class="cls-2" d="m56.36,283.44l.19-9.69,9.51.18-.19,9.69-9.51-.18Z"/>
      <path class="cls-2" d="m53.52,249.39c5.77,1.07,8.85-3,9.79-8.1.62-3.34.6-8.62-3.84-9.44-4.67-.87-6.67,5.48-9.55,11.54-2.89,6.12-6.59,12.15-14.72,10.64-8.86-1.65-11.55-10.81-10.1-18.64,1.68-9.04,7.17-16.63,17.19-14.76l-1.71,9.23c-5.28-.67-7.3,2.79-8.15,7.34-.56,3.03.06,6.79,3.7,7.47,3.34.62,4.15-1.36,8.96-11.71,1.38-3.01,5.18-12.35,15.02-10.52,7.95,1.48,12.74,8.83,10.55,20.61-1.78,9.59-8.19,17.69-18.85,15.59l1.71-9.23Z"/>
      <path class="cls-2" d="m68.43,209.79l3.33-9.11,8.93,3.27-3.33,9.1-8.93-3.26Z"/>
      <path class="cls-2" d="m63.1,141.33l5.69-7.85,29.1,21.08,12.61-17.4,6.6,4.78-18.29,25.25-35.71-25.86Z"/>
      <path class="cls-2" d="m95.03,101.61l6.86-6.85,31.16,31.19-6.86,6.85-31.16-31.19Z"/>
      <path class="cls-2" d="m161.27,103.15l-8.89,6.35-37.29-27.54,8.14-5.82,26.01,19.51.1-.07-9.94-31,8.14-5.82,13.73,44.37Z"/>
      <path class="cls-2" d="m182.76,40.62c12.61-5.22,23.92,1.12,28.93,13.21,4.87,11.75,1.35,24.24-11.26,29.46-12.61,5.22-23.92-1.12-28.79-12.87-5.01-12.1-1.49-24.58,11.12-29.8Zm14.56,35.14c8.04-3.33,8.23-11.43,5.42-18.22-2.95-7.13-8.81-12.73-16.86-9.39-8.04,3.33-8.23,11.43-5.28,18.56,2.81,6.79,8.67,12.38,16.72,9.05Z"/>
      <path class="cls-2" d="m225.48,27.55l23.5-3.59c7.81-1.19,13.59,3.48,14.59,10.08.78,5.13-.7,9.29-5.23,11.98l.02.12c4.89.5,6.93,4.88,7.91,9.22.6,2.72,1.32,7.86,3.41,10.04l-9.58,1.46c-1.58-2.57-2.1-6.8-3.12-10.21-1.37-4.48-3.45-6.22-8.27-5.48l-9.58,1.46,2.6,17.03-9.58,1.46-6.66-43.58Zm12.6,18.25l10.5-1.6c4.27-.65,6.31-2.84,5.64-7.23-.64-4.21-3.24-5.69-7.52-5.04l-10.5,1.6,1.87,12.27Z"/>
      <path class="cls-2" d="m285.76,21.19l9.6.78,15.95,30.96h.12s2.39-29.47,2.39-29.47l9.04.73-3.56,43.94-9.66-.78-15.89-30.9h-.12s-2.38,29.41-2.38,29.41l-9.05-.73,3.56-43.94Z"/>
      <path class="cls-2" d="m366.43,34.34c12.94,4.34,17.31,16.55,13.14,28.96-4.04,12.06-14.89,19.16-27.83,14.83-12.94-4.34-17.31-16.55-13.26-28.61,4.16-12.41,15.01-19.52,27.95-15.18Zm-12.1,36.06c8.25,2.77,13.71-3.21,16.05-10.18,2.46-7.32,1.71-15.38-6.55-18.15-8.25-2.77-13.71,3.21-16.17,10.53-2.33,6.97-1.59,15.03,6.67,17.8Z"/>
      <path class="cls-2" d="m446.82,98.69c2.29-3.79,1.14-9.03-2.59-12.07-6.75-5.5-13.97-1.82-18.84,4.16-4.64,5.7-6.78,13.51-.03,19.01,4.6,3.74,9.76,2.69,14-1.34l7.28,5.93c-7.71,7.9-18.04,8.56-26.42,1.73-10.58-8.62-10.37-21.59-2.34-31.45,8.27-10.15,20.93-12.98,31.51-4.36,7.52,6.12,10.25,15.68,4.72,24.32l-7.28-5.93Z"/>
      <path class="cls-2" d="m486.66,119.43l6.08,7.86-24.77,40.01-6.16-7.96,5.72-8.64-10.09-13.03-9.88,3.27-6.01-7.76,45.1-13.75Zm-21.95,15.82l6.99,9.03,9.39-14.29-.07-.1-16.3,5.36Z"/>
      <path class="cls-2" d="m512.4,157.28l4.2,8.74-32.38,15.57,9.31,19.36-7.34,3.53-13.51-28.1,39.73-19.1Z"/>
      <path class="cls-2" d="m525.39,237.46c4.13-1.59,6.43-6.44,5.34-11.13-1.97-8.48-9.93-9.99-17.45-8.24-7.16,1.66-13.63,6.53-11.66,15.01,1.34,5.77,6.07,8.1,11.89,7.51l2.12,9.14c-10.93,1.53-19.51-4.28-21.95-14.8-3.09-13.29,5.02-23.42,17.41-26.3,12.75-2.96,24.49,2.55,27.59,15.84,2.19,9.44-1.49,18.67-11.15,22.12l-2.13-9.14Z"/>
      <path class="cls-2" d="m543.61,265.1l.48,9.68-44.03,2.18-.48-9.68,44.03-2.18Z"/>
      <path class="cls-2" d="m542.89,318.01c-1.81,13.52-12.97,20.13-25.94,18.39-12.61-1.69-21.64-10.99-19.83-24.51,1.81-13.52,12.97-20.13,25.57-18.44,12.97,1.73,22.01,11.04,20.2,24.56Zm-37.69-5.04c-1.15,8.63,5.75,12.85,13.04,13.83,7.65,1.02,15.42-1.24,16.58-9.87,1.15-8.63-5.75-12.85-13.4-13.87-7.28-.97-15.06,1.29-16.21,9.92Z"/>
    </g>
    <g>
      <path class="cls-2" d="m216.04,535.61l-8.41-2.47,7.9-26.89-10.43-3.06,1.86-6.34c5.83,1.84,11.81,1.41,14.56-4.67l6.69,1.97-12.18,41.46Z"/>
      <path class="cls-2" d="m252.07,531.25c.28,2.94,2.25,5.61,5.27,5.9,6.33.61,8.79-7.53,9.49-12.3l-.11-.13c-2.72,3.15-5.99,4.26-10.17,3.86-3.69-.35-7.27-2.44-9.47-5.38-2.02-2.86-2.72-6.53-2.4-9.91.84-8.79,7.6-15.15,16.57-14.29,13.03,1.25,15.44,12.96,14.4,23.84-1.01,10.51-6.83,22.05-19.06,20.87-7.44-.71-12.55-5.61-12.81-13.26l8.3.8Zm14.91-16.37c.38-3.99-1.81-8.24-6.18-8.66-4.18-.4-6.96,3.36-7.33,7.24-.39,4.06,1.31,8.31,5.8,8.75,4.67.45,7.31-3.08,7.71-7.32Z"/>
      <path class="cls-2" d="m314.06,542.43l-8.73.8-2.55-27.91-10.82.99-.6-6.58c6.1-.43,11.5-3.04,11.82-9.7l6.95-.63,3.94,43.04Z"/>
      <path class="cls-2" d="m358.79,495.55l-17.15,4.95,1.06,9.91.15.08c1.59-2.97,3.94-4.61,7.2-5.55,8.19-2.36,14.65,2.65,16.89,10.42,2.47,8.54-2.69,17.17-11.11,19.41-8.07,2.33-16.59-.03-19.23-8.72l8.43-2.43c1.48,3.56,4.94,5.32,8.62,4.26,4.39-1.27,6.07-5.93,4.87-10.08-1.25-4.33-4.91-7-9.42-5.7-3.03.87-4.38,2.42-5.39,5.16l-7.59,2.19-2.54-24.14,23.2-6.7,2.01,6.94Z"/>
    </g>
    <path class="cls-3" d="m79.62,283c0-112.32,91.06-203.38,203.38-203.38h0c112.32,0,203.38,91.06,203.38,203.38h0c0,112.32-91.06,203.38-203.38,203.38h0c-112.32,0-203.38-91.06-203.38-203.38h0Z"/>
    <path class="cls-2" d="m144.93,144.93c-35.34,35.35-57.19,84.14-57.19,138.07h0c0,53.93,21.85,102.72,57.19,138.07h0c35.35,35.34,84.14,57.18,138.07,57.19h0c53.93,0,102.72-21.85,138.07-57.19h0c35.34-35.35,57.19-84.14,57.19-138.07h0c0-53.93-21.85-102.72-57.19-138.07h0c-35.35-35.34-84.13-57.19-138.07-57.19h0c-53.93,0-102.72,21.85-138.07,57.19h0Z"/>
    <path class="cls-1" d="m429.51,283c0,60.85-37.1,113.02-89.91,135.16v-21.46c41.73-20.82,70.41-63.9,70.41-113.7,0-12.42-1.81-24.4-5.14-35.75h-65.27v-37.87c5.7,4.4,10.9,9.42,15.45,15l24.21-24.2c-10.98-12.75-24.45-23.3-39.65-30.89v-57.87c-12.2-4.02-24.99-6.75-38.18-8.09v53.99c-6.01-.88-12.16-1.34-18.42-1.34-.82,0-1.62.05-2.44.06v-53.65c-98.64,1.31-178.2,81.66-178.2,180.6,0,49.88,20.22,95.04,52.91,127.73l24.13-24.13c-14.3-14.3-25.66-31.55-33.08-50.76h96.06v18.73c11.32,6.45,24.31,10.25,38.19,10.66v-82.23h20.85v91.06c-5.95,1.2-12.11,1.83-18.42,1.83-26.77,0-50.88-11.34-67.83-29.46h-42.19c21.95,37.99,62.99,63.58,110.02,63.58,6.26,0,12.4-.47,18.42-1.35v54.04c91.11-9.23,162.22-86.16,162.22-179.7h-34.12Zm-187.13,10.59h-105.5c-.25-3.5-.38-7.03-.38-10.59,0-66.82,44.74-123.17,105.89-140.78v20.45c-50.22,16.95-86.39,64.4-86.39,120.34h86.39v10.59Zm0-94.14v47.81h-45.13c8.72-20.9,24.86-37.93,45.13-47.81Zm38.19,47.81v-57.1c.81-.02,1.62-.05,2.44-.05,6.31,0,12.46.67,18.42,1.86v55.28h-20.85Zm59.04,35.75h36.29c0,29.99-14.23,56.65-36.29,73.63v-73.63Z"/>
  </g>
</svg>