<?xml version="1.0" encoding="UTF-8"?>
<svg id="Layer_2" data-name="Layer 2" xmlns="http://www.w3.org/2000/svg" viewBox="0 0 266.6 313.89">
  <defs>
    <style>
      .cls-1, .cls-2, .cls-3, .cls-4 {
        stroke-width: 0px;
      }

      .cls-2 {
        fill: #00a0df;
      }

      .cls-3 {
        fill: #fff;
      }

      .cls-4 {
        fill: #f21305;
      }
    </style>
  </defs>
  <g id="Layer_1-2" data-name="Layer 1">
    <g>
      <path class="cls-3" d="m264.6,147.7c-1.98,13.91-7.48,38.89-24.57,66.89-8.89,14.54-28.38,41.76-56.45,63.31l-.33.25-1.89-2.27c-23.05,18.3-45.66,31.54-46.63,32.12l-1.43.83-1.44-.83c-.96-.58-23.57-13.82-46.62-32.12l-1.89,2.27-.33-.25c-28.06-21.54-47.56-48.77-56.45-63.31C9.48,186.59,3.98,161.61,2,147.7l-2,.34.26,1.93c1.86,13.8,7.22,39.64,24.96,68.69,8.96,14.67,28.54,42.02,56.83,63.74l1.54,1.18,1.87-2.26c22.72,17.88,44.63,30.7,45.59,31.28l2.26,1.29,2.22-1.27c.99-.59,22.9-13.42,45.62-31.3l1.87,2.26,1.54-1.18c28.29-21.73,47.86-49.07,56.82-63.74,17.74-29.04,23.1-54.89,24.96-68.69l.26-1.93-2-.34Z"/>
      <path class="cls-1" d="m254.78,144.41l-.08.42c-2.4,13.14-8.42,38.38-23.93,64.06-11.4,18.9-27.13,39.25-53.56,61.32l-.33.28,1.4,1.69c-20.26,16.08-40.35,28.31-44.98,31.07-4.63-2.76-24.72-14.99-44.98-31.07l1.4-1.69-.33-.28c-26.43-22.07-42.16-42.42-53.56-61.32-15.51-25.69-21.53-50.92-23.93-64.06l-.08-.42-10.05,1.7.06.42c1.83,13.65,7.15,39.26,24.74,68.07,8.89,14.54,28.38,41.76,56.45,63.31l.33.25,1.89-2.27c23.05,18.3,45.66,31.54,46.62,32.12l1.44.83,1.43-.83c.97-.58,23.58-13.82,46.63-32.12l1.89,2.27.33-.25c28.06-21.54,47.56-48.77,56.45-63.31,17.59-28.81,22.9-54.42,24.74-68.07l.05-.42-10.05-1.7Z"/>
      <path class="cls-2" d="m10.16,112.17c3.47-31.42,12.8-53.22,13.62-55.09,21.11-9.1,63.51-24.31,109.52-24.31s88.41,15.21,109.52,24.31c.81,1.88,10.14,23.68,13.62,55.09,1.23,11.04,1.39,21.97.56,32.62l2.97.5c2.8-17.43,3.28-35.68,1.39-54.38-3.75-37.17-14.1-62.45-14.2-62.71l-.17-.41-.41-.19C224.77,17.29,181.02,0,133.3,0S41.83,17.29,20.03,27.59l-.41.19-.18.41c-.1.25-10.45,25.53-14.2,62.71-1.89,18.7-1.41,36.95,1.39,54.38l2.97-.5c-.83-10.64-.66-21.57.56-32.62Z"/>
      <path class="cls-3" d="m256.44,112.17c-3.47-31.42-12.8-53.22-13.62-55.09-21.11-9.1-63.51-24.31-109.52-24.31s-88.41,15.21-109.52,24.31c-.82,1.88-10.15,23.68-13.62,55.09-1.23,11.04-1.39,21.97-.56,32.62l2.23-.38.08.42c2.4,13.14,8.42,38.38,23.93,64.06,11.4,18.9,27.13,39.25,53.56,61.32l.33.28-1.4,1.69c20.26,16.08,40.35,28.31,44.98,31.07,4.63-2.76,24.72-14.99,44.98-31.07l-1.4-1.69.33-.28c26.43-22.07,42.16-42.42,53.56-61.32,15.51-25.69,21.53-50.92,23.93-64.06l.08-.42,2.23.38c.83-10.64.66-21.57-.56-32.62Z"/>
      <path class="cls-1" d="m222.4,63.58c-5.23-4.79-12.47-8.31-20.93-9.56-13.03-1.92-23.4,3.31-27.43,12.48-.38.87-.64,1.61-.97,2.71-.45,1.47-.69,3.45-.69,3.45-8.51-.42-12.77-.58-21.3-.79,0,4.18,0,6.27-.02,10.45,3.48.05,5.22.07,8.69.14-.46,3.57-3.93,5.63-9.48,5.59-4.02-.03-9.25-1.02-9.42-10.4-.02-1.18,0-3.36,0-3.68,0-8.44,1.1-10,2.72-11.46,1.54-1.38,3.84-2.18,6.47-2.1,3.7.11,7.09,1.44,9.7,3.79,1.28,1.14,1.65,1.47,3.08,4.01l9.35.35c-.79-2.47-2.54-8.3-3.57-11.58-.27-.23-.41-.35-.7-.59-2.57-2.24-5.22-3.64-6.56-4.27-3.04-1.42-6.52-2.24-10.3-2.38-8.35-.32-14.11,1.64-19.21,6.27-3.6,3.27-6.23,7.64-7.59,12.15,0-5.98,0-8.97-.02-14.96-4.95-1.73-7.4-2.56-12.35-4.14.05,12.77.07,19.16.12,31.94.01,4.66-3.25,7.06-9.71,7.15-4.07.06-6.55-.45-8.02-1.63-1.11-.89-1.44-2.46-1.46-5.44-.06-12.22-.1-18.34-.19-30.56-6.65,2.64-9.96,3.98-16.58,6.7.08,7.98.12,11.97.21,19.95-3.74.22-5.6.33-9.33.59-.1.98-.15,1.47-.25,2.46-.21,2.1-1.89,4.38-2.88,5.73-1.6,2.22-1.85,2.59-5.9,2.75-2.09.08-3.13.11-5.22.2-.08-13.39-.11-20.08-.18-33.47-6.56,3.78-9.82,5.65-16.35,9.27v30.18c4.85,1.15,7.29,1.77,12.16,3.08,9.12.02,13.67.05,22.79.09,2.14-4.98,3.21-7.52,5.34-12.64,1.04,8.31,9.72,13.26,23.64,13.26,8.21,0,15-1.88,19.14-5.33,3.22-2.69,4.94-6.76,5.04-11.76,3.01,10.3,12.73,17.07,25.69,17.07,14.01,0,21.64-6.92,24.3-14.44,4.2,8.81,14.52,14.7,26.98,14.7,16.38,0,29.22-8.8,29.22-20.02,0-5.07-3.02-10.72-8.05-15.34Zm-10.67,21.4c-1.42,2.48-5.34,4.03-9.9,3.88-3.91-.13-6.86-1.06-8.99-2.89-1.94-1.66-2.67-3.08-2.61-11.23.04-6.45,1.37-8.03,2.83-9.09,1.92-1.4,4.88-1.96,8.77-1.66.09,0,.13,0,.23.03,1.58.18,3.51.69,4.83,1.28,2.26,1.01,4.02,2.63,4.94,4.45.77,1.53,1.02,3.4,1,8.01-.02,3.82-.33,5.91-1.09,7.21Z"/>
      <path class="cls-3" d="m28.29,39.64c.47-2.52,1.06-3.97,2.09-5.22.75-.91,1.78-1.7,2.7-2.11,1.49-.64,2.83-.53,3.59.19.4.37.55.8.71,1.82.42-.17.63-.26,1.06-.42-.24-1.24-.36-1.87-.59-3.11-.55-.63-.9-.77-1.64-.83-.76-.06-1.73.13-2.9.63-4.14,1.8-7.67,6.46-8.55,11.06-.86,4.5,1.48,6.23,5.76,4.38,1.16-.51,2.17-1.09,3.13-1.85.87-.69,1.35-1.16,2.36-2.37.71-1.76,1.07-2.62,1.78-4.37-.37.15-.56.23-.94.38-.59,1.77-1.02,2.54-2.02,3.66-1.05,1.16-2.42,2.18-3.6,2.7-1.18.51-2.19.58-2.75.19-.39-.27-.62-.85-.59-1.5.02-.58.11-1.48.32-2.63.04-.21.05-.42.09-.6Z"/>
      <path class="cls-3" d="m49.72,35.32c-.94,1.45-1.46,1.92-3.18,2.54-1.15.41-1.72.62-2.87,1.05.82-5.24,1.24-7.85,2.07-13.08-1.39,1.12-2.09,1.69-3.49,2.83-.79,4.82-1.18,7.22-1.96,12.05,1.25-.05,1.87-.09,3.14-.13,2.59-.96,3.88-1.42,6.49-2.3,1.23-2.63,1.84-3.94,3.06-6.55-.69.23-1.05.35-1.74.58-.25,1.11-1.1,2.37-1.51,3.02Z"/>
      <path class="cls-3" d="m67.94,28.06c-.26,2.22-2.05,3.93-4.87,4.72-1.71.48-2.75.51-3.38.11-.52-.33-.67-1.06-.49-2.48.51-3.84.76-5.77,1.27-9.62-1.37.84-2.05,1.27-3.42,2.13-.51,3.71-.75,5.56-1.26,9.27-.41,2.96,1.82,3.78,6.28,2.51,2.48-.72,4.64-1.84,5.96-3.17.99-1.01,1.6-2.31,1.78-3.85.42-3.62.62-5.42,1.04-9.05-.71-.09-1.07-.15-1.78-.24-.46,3.87-.68,5.8-1.13,9.67Z"/>
      <path class="cls-3" d="m82.57,15.14c-2.08.44-3.12.68-5.19,1.17-1.39.76-2.08,1.14-3.46,1.91-.02.18-.03.27-.05.45-.49,4.53-.73,6.79-1.24,11.33-.03.24-.04.35-.06.59,1.33.08,2,.13,3.33.23,1.67-.38,2.5-.57,4.17-.92,4.46-.94,7.29-2.84,7.48-5.21.04-.31-.02-.63-.14-.95-.31-.78-1.27-1.54-2.01-1.54-1.36-.03-2.04-.04-3.39-.05v-.04c1.34-.59,2-.89,3.34-1.47,1.1-.48,2.23-1.94,2.32-2.99.17-2.08-1.99-3.2-5.1-2.52Zm1.32,9.94c-.14,1.51-1.64,2.74-3.84,3.2-1.61.34-2.41.52-4.01.89.2-2.02.31-3.02.51-5.03,1.54-.35,2.31-.53,3.87-.85,2.25-.48,3.62.22,3.47,1.79Zm-3.27-3.49c-1.56.34-2.35.51-3.9.86.19-1.81.29-2.71.46-4.51,1.89-.43,2.84-.64,4.74-1.04,1.49-.3,2.35.39,2.23,1.73-.12,1.32-1.63,2.56-3.53,2.96Z"/>
      <path class="cls-3" d="m104.3,11.73c-1.29.13-1.92.2-3.21.35-1.37.62-2.06.94-3.44,1.58-.02.21-.02.32-.03.54-.29,4.48-.44,6.72-.74,11.2-.01.22-.02.32-.04.54,1.35.25,2.03.38,3.38.64,1.12-.14,1.68-.21,2.79-.34,5.42-.64,9-3.68,9.17-8.06.16-4.23-3.14-6.94-7.89-6.43Zm4.31,7.25c-.09,1.93-.55,3.07-1.56,4-.93.85-2.26,1.39-3.9,1.59-1.13.13-1.71.2-2.84.34.27-4.46.39-6.67.66-11.13,1.18-.15,1.77-.23,2.96-.37,1.51-.18,2.64.07,3.42.7,1.02.82,1.38,2.14,1.25,4.88Z"/>
      <path class="cls-3" d="m126.51,20.77c-.6,1.15-1.5,2.14-3.21,2.21-1.89.08-2.84.12-4.73.23.05-1.8.08-2.71.12-4.52,1.94-.11,2.91-.15,4.84-.23.02-.83.02-1.25.04-2.08-1.93.08-2.89.12-4.82.23.05-1.8.07-2.7.11-4.52,1.7-.1,2.53-.14,4.23-.21,1.16-.05,1.81.22,2.4.7.63.5,1.26,2.35,1.26,2.35.73-.02,1.1-.03,1.83-.04-.95-1.9-1.41-2.85-2.34-4.75-2.95.09-4.42.15-7.36.32-1.35.51-2.05.76-3.4,1.28,0,.21,0,.33-.01.54-.14,4.47-.22,6.68-.37,11.15-.01.22-.01.32-.01.54,1.37.35,2.06.53,3.44.89,3.29-.15,4.94-.18,8.25-.22.96-2.27,1.43-3.4,2.36-5.65-.74,0-1.12.02-1.86.04,0,0-.47,1.18-.77,1.74Z"/>
      <path class="cls-3" d="m140.55,10.15c-1.92-.06-2.88-.08-4.82-.09-1.34.56-2.01.85-3.37,1.43,0,4.74-.01,7.1-.01,11.83,1.38.45,2.09.69,3.48,1.15,0-2.46-.02-3.69-.04-6.16,1.69.02,2.55.03,4.24.07,3.7.1,6.08-1.32,6.02-3.67-.06-2.58-2.29-4.48-5.5-4.57Zm-1.36,6.63c-1.36-.04-2.04-.05-3.4-.06-.02-2.01-.02-3.01-.02-5.02,1.56,0,2.36.03,3.94.07,1.84.04,2.85,1.03,2.88,2.66.04,1.69-1,2.41-3.4,2.35Z"/>
      <path class="cls-3" d="m163,13.62c-1.68-1.62-3.93-2.63-6.53-2.87-5.11-.47-8.71,2.58-8.59,7.08.11,4.12,4.23,7.57,9.27,8.04,5.15.47,8.87-2.33,8.62-6.65-.12-1.93-1.18-4.05-2.77-5.6Zm-1.34,8.61c-.61,1.33-2.33,2.03-4.4,1.83-1.7-.16-3.04-.68-4.04-1.61-1.07-.99-1.33-1.89-1.43-4.92-.07-2.22.25-3.3,1.15-4.07.84-.71,2.11-1.02,3.74-.94.04,0,.06,0,.1.01.68.07,1.5.27,2.12.56,1.07.49,1.94,1.33,2.42,2.28.39.78.54,1.62.64,3.61.09,1.69,0,2.59-.3,3.24Z"/>
      <path class="cls-3" d="m182.85,26.09c-.05-.31-.06-.42-.11-.76-.18-1.16-.39-1.61-1.05-2.25-.7-.69-1.56-1.15-3.68-1.81,0-.02,0-.03,0-.04,1.81-.08,2.46-.19,3.26-.6.75-.39,1.13-1.11,1.04-2-.2-2.19-2.54-4.28-5.46-4.8-2.16-.38-3.26-.56-5.43-.89-1.32.23-1.97.35-3.3.59.33,4.91.5,7.36.82,12.27,1.42.64,2.12.96,3.55,1.63-.18-2.56-.27-3.83-.45-6.39,1.62.25,2.42.38,4.04.65.75.13,1.4.41,1.96.85.85.67,1.17,1.36,1.32,2.87.15,1.44.44,2.15,1.15,2.86.38.38,1.21.8,1.21.8,0,0,2.69-1.19,2.51-1.25-.86-.29-1.21-.75-1.4-1.72Zm-8.58-6.34c-.93-.14-1.39-.22-2.33-.37-.13-1.91-.2-2.87-.34-4.78,1.62.24,2.43.39,4.05.66,1.76.29,3.09,1.51,3.2,2.9.06.67-.12,1.17-.54,1.49-.64.5-1.49.52-4.04.09Z"/>
      <path class="cls-3" d="m199.99,19.03c-6.15-1.69-9.25-2.44-15.46-3.73.07.67.1,1,.17,1.66,2.48.52,3.71.8,6.18,1.37.5,4.71.75,7.06,1.25,11.79,1.4.77,2.11,1.17,3.52,1.96-.57-5.19-.87-7.77-1.44-12.94,2.41.6,3.62.91,6,1.57-.08-.67-.13-1.01-.21-1.67Z"/>
      <path class="cls-3" d="m202.85,20.88c.63,5.02.96,7.52,1.59,12.53,1.39.79,2.09,1.17,3.48,1.97-.78-5.84-1.17-8.75-1.94-14.59-1.25.03-1.87.04-3.13.09Z"/>
      <path class="cls-3" d="m217.88,35.37s-.02,0-.04,0c-2.26-5.1-3.39-7.64-5.59-12.69-1.23.03-1.86.04-3.11.08,2.94,6.53,4.43,9.82,7.47,16.44,1.09-.15,1.65-.22,2.73-.35,1.21-4.68,1.77-7,2.88-11.66-.9-.7-1.34-1.04-2.23-1.74-.8,3.98-1.23,5.95-2.1,9.93Z"/>
      <path class="cls-3" d="m241.87,41.41c-.39-2.02-1.65-4.5-3.35-6.58-1.77-2.18-3.98-3.88-6.44-4.93-4.8-2.05-7.76-.03-7,4.59.69,4.24,5.07,9.03,9.81,11.06,4.85,2.07,7.85.36,6.98-4.14Zm-3.32,1.81c-.36,1.16-1.86,1.35-3.82.51-1.59-.68-2.91-1.64-3.98-2.89-1.16-1.35-1.53-2.34-2.06-5.48-.39-2.29-.24-3.3.48-3.79.68-.47,1.83-.4,3.36.19.04.02.05.02.09.04.64.27,1.44.74,2.06,1.22,1.06.84,1.98,1.97,2.56,3.09.47.92.73,1.81,1.1,3.87.32,1.75.39,2.66.2,3.23Z"/>
      <path class="cls-1" d="m58.77,204.31l4.82-6.93c-2.42-6.08-4.65-12.48-6.59-19.2l-10.29,15.65-25.17-21.74c.42,1.32.81,2.65,1.26,3.95,2.07,5.35,4.39,10.63,6.98,15.91l11.36,9.88-3.4,4.87c2.84,4.82,5.94,9.69,9.31,14.64l6.13-9.04,33.39,29.32c-4.83-7.66-9.94-16.32-14.79-26l-13.02-11.32Z"/>
      <path class="cls-1" d="m207.84,204.31l-4.82-6.93c2.42-6.08,4.65-12.48,6.59-19.2l10.29,15.65,25.17-21.74c-.41,1.32-.81,2.65-1.26,3.95-2.07,5.35-4.39,10.63-6.98,15.91l-11.36,9.88,3.4,4.87c-2.84,4.82-5.94,9.69-9.31,14.64l-6.13-9.04-33.39,29.32c4.83-7.66,9.94-16.32,14.79-26l13.02-11.32Z"/>
      <path class="cls-2" d="m15.57,106.84c-.71,6.42-1.07,12.85-1.07,19.1,0,15.8,2.39,31.3,7.04,46.16l25.17,21.74,10.29-15.66c-1.94-6.74-3.61-13.8-4.88-21.2-1.56-9.14-2.29-20.37-2.29-35.34,0-4.79.19-9.95.55-15.34H15.64c-.02.18-.04.36-.06.54Z"/>
      <path class="cls-2" d="m216.78,121.64c0,14.97-.73,26.2-2.29,35.34-1.27,7.41-2.94,14.46-4.88,21.2l10.29,15.66,25.16-21.74c4.65-14.86,7.05-30.36,7.04-46.16,0-6.25-.36-12.68-1.07-19.1-.02-.18-.04-.36-.06-.54h-34.74c.36,5.39.55,10.56.55,15.34Z"/>
      <path class="cls-4" d="m124.11,280.07c5.62,5.51,9.19,8.37,9.19,8.37,0,0,3.57-2.87,9.19-8.37V106.29h-18.39v173.78Z"/>
      <path class="cls-4" d="m87.33,233.82c6.12,9.93,12.45,18.6,18.39,25.95V106.29h-18.39v127.52Z"/>
      <path class="cls-4" d="m54.45,121.63c0,33.45,5.91,55.99,14.5,76.31v-91.65h-14.06c-.29,4.85-.45,9.95-.45,15.34Z"/>
      <path class="cls-4" d="m197.66,197.94c8.59-20.32,14.5-42.86,14.5-76.31,0-5.38-.15-10.48-.45-15.34h-14.05v91.65Z"/>
      <path class="cls-4" d="m160.88,259.77c5.94-7.35,12.27-16.02,18.39-25.95v-127.52h-18.39v153.47Z"/>
      <path class="cls-1" d="m43.02,151.9l-7.09-3.8v-4.89s4.52-3.9,4.52-9.65h-6.47v20.03h9.04v-1.7Z"/>
      <path class="cls-3" d="m24.94,151.9l7.09-3.8v-4.89s-4.52-3.9-4.52-9.65h6.47v20.03h-9.04v-1.7Z"/>
      <path class="cls-3" d="m38.08,126.78c0,2.26-1.83,4.1-4.1,4.1s-4.1-1.83-4.1-4.1,1.83-4.1,4.1-4.1,4.1,1.83,4.1,4.1Z"/>
      <path class="cls-3" d="m235.89,136.1h2.11v-5.87h-9.83v5.87h2.11c-3.47,1.17-5.97,4.44-5.97,8.3,0,4.84,3.93,8.77,8.77,8.77s8.77-3.93,8.77-8.77c0-3.86-2.5-7.13-5.97-8.3Z"/>
      <path class="cls-1" d="m233.09,137.48v13.84c3.82,0,6.92-3.1,6.92-6.92s-3.1-6.92-6.92-6.92Z"/>
      <polygon class="cls-3" points="235.51 126.72 234.89 121.89 233.09 125.68 231.29 121.89 230.67 126.72 226.46 123.91 229.45 129.77 236.73 129.77 239.72 123.91 235.51 126.72"/>
    </g>
  </g>
</svg>