<?xml version="1.0" encoding="UTF-8"?>
<svg id="Layer_2" data-name="Layer 2" xmlns="http://www.w3.org/2000/svg" viewBox="0 0 222.04 258.48">
  <defs>
    <style>
      .cls-1 {
        stroke-linecap: round;
        stroke-width: .97px;
      }

      .cls-1, .cls-2 {
        stroke: #b0063a;
        stroke-miterlimit: 3.2;
      }

      .cls-1, .cls-2, .cls-3, .cls-4, .cls-5, .cls-6, .cls-7 {
        fill-rule: evenodd;
      }

      .cls-1, .cls-5, .cls-8 {
        fill: #b0063a;
      }

      .cls-9 {
        font-size: 5.23px;
        letter-spacing: -.04em;
      }

      .cls-9, .cls-2, .cls-10, .cls-7, .cls-11, .cls-12, .cls-13 {
        fill: #fff;
      }

      .cls-9, .cls-10, .cls-14, .cls-15, .cls-16, .cls-12, .cls-13 {
        isolation: isolate;
      }

      .cls-9, .cls-10, .cls-14, .cls-15, .cls-12, .cls-13 {
        font-weight: 700;
      }

      .cls-9, .cls-10, .cls-12, .cls-13 {
        font-family: Helvetica-Bold, Helvetica;
      }

      .cls-2 {
        stroke-width: 4.55px;
      }

      .cls-10 {
        font-size: 6.05px;
      }

      .cls-14 {
        font-size: 10.44px;
      }

      .cls-14, .cls-15 {
        font-family: Arial-BoldMT, Arial;
      }

      .cls-14, .cls-15, .cls-3, .cls-17 {
        fill: #034ea2;
      }

      .cls-15 {
        font-size: 10.44px;
      }

      .cls-3, .cls-4, .cls-5, .cls-6, .cls-7, .cls-18, .cls-8, .cls-11, .cls-17 {
        stroke-width: 0px;
      }

      .cls-4 {
        fill: #6fd0f6;
      }

      .cls-6 {
        fill: #ffd200;
      }

      .cls-18 {
        fill: #a7a9ac;
      }

      .cls-12 {
        font-size: 5.93px;
        letter-spacing: -.02em;
      }

      .cls-13 {
        font-size: 6.76px;
        letter-spacing: -.02em;
      }
    </style>
  </defs>
  <g id="svg6937">
    <g id="layer1">
      <g id="g7830">
        <path id="path4293" class="cls-2" d="m100.14,2.27H2.3v20.88c-.18,22.69.42,47.87,1.15,67.84,1.03,27.45,3.64,56.45,13.53,76.64,28.1,64.4,80.42,84.28,94.03,88.46,13.61-4.18,65.94-24.06,94.03-88.46,9.89-20.19,12.51-49.19,13.53-76.64.73-19.97,1.33-45.15,1.15-67.84V2.27h-119.6Z"/>
        <path id="path4297" class="cls-4" d="m97.44,40.42H15.02c-.41,7.22-.52,24.15.55,44.95.48,34.2,7.83,72.14,24.4,98.2,14.38,23.4,36.83,44.73,71.05,60.63,34.22-15.89,56.68-37.23,71.05-60.63,16.57-26.06,23.92-64,24.4-98.2,1.06-20.8.95-37.73.55-44.95h-109.58Z"/>
        <path id="path4301" class="cls-7" d="m207.2,44.81c-.05-1.71-.11-3.19-.17-4.39H15.02c-.41,7.22-.52,24.15.55,44.95.48,34.2,7.83,72.14,24.4,98.2,2.64,4.29,5.54,8.51,8.75,12.64L207.2,44.81Z"/>
        <path id="path4303" class="cls-6" d="m203.48,40.42H15.02c-.41,7.22-.52,24.15.55,44.95.48,34.2,7.83,72.14,24.4,98.2,1.61,2.62,3.32,5.22,5.14,7.78L203.48,40.42Z"/>
        <path id="path4305" class="cls-5" d="m193.61,40.42H15.02c-.41,7.22-.52,24.15.55,44.95.48,34.2,7.83,72.14,24.4,98.2.47.76.95,1.52,1.43,2.28L193.61,40.42Z"/>
        <path id="path4552" class="cls-3" d="m16.25,10.03l.45,24.74,10.38.23.51-2.19-8.7-.84,1.79-22.28-4.42.34Z"/>
        <path id="path4554" class="cls-3" d="m31.98,9.99l-4.07,1.09,8.99,23.71,7.44-24.05h-2.41l-4.64,19.18-5.33-19.93Z"/>
        <path id="path4558" class="cls-17" d="m61.84,15.92l-12.08,11.48-.05,6.56-2.39.77-.34-24.84,14.86,6.04Zm-5.48.97l-5.8-1.88-.8,8.29,6.6-6.41Z"/>
        <path id="path4560" class="cls-17" d="m77.38,34.13l-3.36.65-2.11-6.79-6.33-.48-3.19,7.42-1.93-.43,9.16-24.21,7.76,23.84Zm-5.71-9.11l-3.05-6.86-2.41,6.75,5.45.12Z"/>
        <path id="path4562" class="cls-8" d="m101.72,15.75l-7.65,7.49,3.65,11.42-1.52-.06-3.75-8.95-3.39,2.01-.12,6.83-1.74.29-.52-25,15.02,5.98Zm-5.84,1.29l-5.8-2.02-.64,8.19,1.91-.39,4.52-5.78Z"/>
        <path id="path4564" class="cls-8" d="m164.27,34.08l-3.36.65-2.11-6.79-6.33-.48-3.19,7.42-1.93-.43,9.16-24.21,7.76,23.84Zm-5.71-9.11l-3.05-6.86-2.41,6.75,5.45.12Z"/>
        <path id="path4566" class="cls-8" d="m110.44,9.84l7.99,12.47-8.03,12.54-8.95-13.26,9-11.76Zm5.19,13.03l-6.12-6.54-5.17,5.79,5.78,11.3,5.52-10.55Z"/>
        <path id="path4568" class="cls-5" d="m118.64,33.36l7.85-23.75,7.79,16.68,6.48-15.64,6.74,23.03-3.86,1.24-2.88-18.45-7.2,17.86-6.28-14-7.2,14.53-1.44-1.5Z"/>
        <path id="path4572" class="cls-18" d="m187.72,14.64h-10.24v5.81h8.72v3.78h-8.72v10.29h-3.72V10.8h13.96v3.83Z"/>
        <path id="path4576" class="cls-18" d="m208.26,27.13c-.15,1.03-.4,1.96-.75,2.81-.43,1.08-1.04,2.01-1.81,2.79-.77.76-1.64,1.31-2.61,1.66s-2.06.52-3.28.52c-1.42,0-2.71-.27-3.89-.8-1.18-.55-2.19-1.38-3.03-2.5-.87-1.13-1.5-2.45-1.91-3.95-.4-1.5-.6-3.2-.6-5.12,0-3.83.84-6.86,2.51-9.09.87-1.12,1.88-1.95,3.05-2.5,1.17-.56,2.46-.84,3.88-.84,1.12,0,2.15.16,3.09.48.94.32,1.79.82,2.56,1.49.95.84,1.67,1.79,2.09,2.88.25.65.46,1.33.61,1.98l-4.03,1.67c-.14-1.3-.58-2.32-1.33-3.04-.75-.74-1.74-1.11-2.98-1.11-.76,0-1.46.18-2.09.55-.62.35-1.15.87-1.6,1.55-.43.69-.77,1.53-1.02,2.54-.23,1.01-.35,2.15-.35,3.44s.12,2.43.35,3.44c.23.99.57,1.84,1,2.54.43.69.96,1.21,1.58,1.57.62.35,1.32.52,2.09.52,1.24,0,2.23-.38,2.98-1.13.75-.77,1.2-1.87,1.37-3.29l4.13.93Z"/>
        <path id="path4710" class="cls-7" d="m90.13,126.93c-.89,2.5-1.59,4.5-2.12,6.1-1.86,5.52-1.86,6.21-1.86,6.21-3.66-2.35-3.73-5.73-5.42-8.64-.77,1.3-1.93,2.38-2.12,4.55-.39.17-.95-.36-1.55-1.02-.24,1.15-.74,1.53-1.3,1.74-3.33-2.13-4.02-5.04-5.22-7.78-1.93,2.7-3.14,6.47-4.15,9.88l-1.86-2.54-1.53,1.67-1.34-1.41c-.88.64-1.31,1.57-1.7,2.27-.32.57-.98.59-1.66.37-1.45-.46-2.3-2.82-3.37-6.23-1.63,1.22-2.95,3.07-4.16,5.13l-1.21-3.24c-2.54.64-4.75,1.77-8.28.93.56-.41,1.06-.88,1.31-1.71-1.76.06-5.9,1.03-8.79-.55,1.04-.54,1.57-1.08,1.77-1.61l-3.21-.06c-.3-.74.68-1.62,1.25-2.46-1.87-.59-4.13-1.12-5.33-1.8.62-1.02,3.39-.94,3.38-2.04-.92-.6-1.29-.99-1.7-1.38.93-.63,1.83-1.2,3.06-2.76l-1.12-.52,2.38-4.37-4.22-.44c6.33-4.67,8.36-12.48,15.14-19.19-3.82-.11-3.97-1.35-4.06-2.6-3.43-1.55-3.92-1.34-2.03-4.2,3.15-4.89,7.51-7.67,10.97-9.22,2.61-1.37,5.25-1.53,8.15-1.84,1.37-1.73,1.5-3.22,6.84-5.75,1.12-3.93,4.88-10.47,17.51-10.6,8.73.35,11.56-9.61,20.45-10.88,5.71-.71,8.26,2.6,8.58,10.14.07,2.51.65,5.06.34,7.54-.32,2.63-1.15,5.04-.55,7.03.93,3.11-.39,8.89-3.71,12.22-1.53,1.54-2.56,3.01-3.93,4.21-3.21,2.81-4.13,7.53-5.52,16.76l-.9-.93c-.86,4.39-1.45,5.69-7.19,19.03h0Z"/>
        <path id="path4712-6" class="cls-5" d="m56.29,129.47c-2.1.92-3.63,2.29-4.84,3.91-.61.48-.92-.21-1.13-1.3-2,.59-4.45,2.44-5.93,1.54.9-1.08.57-1.23.77-1.78-.91-.88-5.57,1.23-8.23.39,1.5-1.08,1.99-1.61,2.42-2.11-1.62.05-3.2.08-4.73-.63.26-1.02,1.89-1.22,2.5-2.17.36-1-3.24.53-5.22-.51-.04-.12.48-1.06,1.44-1.28,2.04-.63,2.13-1.33,1.99-1.77l-3.14-.27c2.18-1.82,4.21-3.6,3.3-4.55l-1.88-.27c.66-.98,1.6-2.02,2.12-2.96.92-1.43-.95-1.56-1.97-1.74,4.81-4.18,6.29-9.63,9.66-14.17,1.1.07-1.58,5.16-1.01,7.84.56.53,1.69-.49,1.95-.68.46,1.21-1.05,5.85-.27,8.33,1.37.58,1.69-1.82,2.41-.94-.06,3.46-.11,6.9-.74,11.6,1.92-1.87,2.66-6.27,1.72-14.25-4.53,3.48-1.6-2.81-.86-6.8l-1.45-.23c.25-4.36,1.41-6.52,2.62-8.87l3.99-.03c1.07,3.75,6.13-.34,6.05-1.07-.07-.64-4.94,2.86-4.83-.05-3.31-.61-11.46.61-9.85-1.86.49-1.86-3.11-.26-3.47-1.74.26-1.87,2.69-3.91,3.81-5.02,3.49-3.4,8.58-6.77,15.5-6.56,2.14-3.06,4.59-5.02,7.22-6.4,4.84-11.05,13.74-9.47,21.74-10.65,1.92-.14,7.12-6.28,10.23-8.53.74,1.51-.13,3.8,3.37,3.97.23-1.17-.24-2.64.95-3.1,1.6-.37,1.42,2.6,4.02,3.05.17.8.26,1.61.29,2.61.16,1.68-.65,3.32-1.53,4.55-4.23,5.89-14.01,7.91-13.95,16.6,3.57-1.37,7.87-3.52,11.09-4.2.28-.74-.25-4.03.33-4.55,1.15-.17,2.52,4.29,4.25.61,1.23-2.65.59-5.85.52-8.85,2.63.93,3.97,3.3,2.78,8.48-.51.3-.96-.19-1.36-1.09-1.38,1.42,1.06,3.17-4.16,3.87-1.07.15-.86.87-.82.99l.19.74c.66-1.03,3.11-1.46,3.55-1.45,1.03.03,2.52.54,2.5,2.27-.19,3.91-2.74,7.76-5.27,10.4-3.13,2.66-5.47,6.3-6.44,9.86-.58,2.18-.9,4.58-.84,6.88l-1.61-.42.02,4.01c-.94,5.81-8.54,20.36-10.6,27.58-2.46-3.26-3.17-6.03-3.81-9-1.56,1.37-2.92,3.02-3.7,5.47-.44-.15-.84-.23-1.56-.85-.28.61-.64,1.16-1.31,1.48-1.82-2.21-3.16-4.86-3.9-8.06-2.9,2.59-3.66,5.32-5.22,8-.48-.18-.6-.84-.8-1.39-.44-.22-1.48,1.52-2.27,2.43-1.16-1.5-1.37-1.36-4.15,2.01-1.38-2.11-3.59-3.57-2.21-6.7l-.25-.63Z"/>
        <path id="path4714" class="cls-7" d="m52.93,92.7c1.72-.72,3.3-1.95,4.86-3.25-.44-.67-1.71.96-2.39-.38-1.14,1.01-2.51,1.29-2.31-.69-1.58,1.12-6.13,1.17-9.25,1.7.96.35,3.8.4,5.75.6l-.6,1.23c.7-.06,1.26-.12,3.47-.41l.47,1.2Z"/>
        <path id="path4716-1" class="cls-7" d="m82.39,71.94c2.98-6.06,7.99-9.68,14.33-11.7-3.14,2.61-6.34,5.81-9.48,10.54-.06-.76-.24-1.77-.71-2.27-1.39.84-3.08,2.76-4.14,3.43Z"/>
        <path id="path4718" class="cls-7" d="m73.76,70.58c.96-1.85,5.09-6.34,10.95-3.93l-2.42.15c-.77,4.48-4.64,2.49-5.04,1.77-.44.62-1.54,1.82-3.48,2.02Z"/>
        <path id="path4720-9" class="cls-7" d="m75.22,71.99c-1.24-.41-2.34.55-3.58,1.56-3.64-2.62,4.4-5.57,6.91-8.58-2.56,1.59-11.14,4-10.54,8.27-1.2,1.16-2.47,2.19-3.28,3.99l3.08-1.41c-.19,1.96-.91,3.61-.25,6.05,1.8-3.68,4.21-5.05,7.67-9.89Z"/>
        <path id="path4722" class="cls-7" d="m73.4,83.62c0-2.99,1.74-5.99,2.52-9.35-2.08,4.3-6.06,8.55-4.3,12.95.21.1.62-.21,1.49-1.53.3-.37.51-.03.61.54.02,2.01-1.15,5.15.22,5.71.5-.58.6-1.16,1.7-1.74.16-.93.08-1.65-.83-1.99-.16-2.23.62-2.91.61-3.85.01-1.08-1.15-.73-2.01-.75h0Z"/>
        <path id="path4724-7" class="cls-7" d="m89.77,86.97c2.53-3.34,8.56-8.53,17.52-9.33-1.02,3.98-1.35,4.31-2.05,5.5-.83-.43-.62-2.02-.35-3.73-8.38,2.49-11.12,4.98-15.11,7.56Z"/>
        <path id="path4726" class="cls-7" d="m102.61,83.4c-4.08,3.46-8.94,6.29-12.23,10.37l2.68.23-3.73,5.13,2.1.29c-1.76,2.93-2.25,4.23-2.97,5.82,1.98-.94,3.75-3.98,5.59-6.35l.82.23c1.24-4.15,4.96-8.16,7.75-15.73h0Z"/>
        <path id="path4728-1" class="cls-7" d="m67.94,90.23c-2.23,4.12-2.71,7.67-2.61,12.14.44,2.82,1.76,1.42,2.51.61,1.14,5.24,2.47,3.79,4.03.93-.09.51-.03.92.37,1.12.66.23.85-.5,1.12-1.03h.66c.54-2.68,1.33-3.43,2.06-4.59-1.14.25-2.24.79-3.19,2.34-.3-.4-.37-1.61-1.03-.75-.67.88-.86,1.66-2.34,2.72-.3.36-.74-4.84-1.12-4.31l-.75,1.03c-1.09-2.59-.14-6.59.28-10.22h0Z"/>
        <path id="path4730" class="cls-7" d="m61.69,107.36c.25.97.14,1.92.42,2.79.47,1.48.92,2.98,1.48,4.77.8-.19,1.03-.87,1.52-1.32.98,2.77-.61,8.12.57,8.83.68-2.06,1.02-3.61,1.18-4.9.12-2.74.62-5.1-.48-7.54-.36-.77-.82-.99-1.41.5-1.81-1.82-1.47-3.58-1.63-5.36-.05-.93-1.24-.01-1.31-1.04l-.44-5.98c-.79-.68-.9-1.32-.93-2.21-.02-.65-.07-1.29-.33-1.9-.73,1.06-1.56,2.66-2.11,5.49-.12.76.18,1.19.76,1.06.36-.09.77-.3,1.23-.64-.41,2.77-.38,5.43-.34,8.14.1.5.35.57.78.58.85-.18.93-.74,1.04-1.29h0Z"/>
        <path id="path4732-3" class="cls-5" d="m107.55,57.6c-.52-.69-.78-1.47-.16-2.56.34-.68.6-.65,1.26-.47,1.09.37.64.77.56,1.14.12.36,0,.33-.13.59-1.09,1.15-.03,1.76.72,2.46.52.61-.15,2.25.76,4.59-1.3-.53-1.84-1.17-2.3-1.83-.96-1.04.16-2.87-.7-3.92h0Z"/>
        <path id="path4734" class="cls-3" d="m92.41,228.32c5.04-7.14,9.93-16.25,14.35-31.86-.86.55-1.8,2.01-2.17,2.86-.58-3.65,2.16-8.66,4.05-14.24l-.76-.05c-.04.14,7.27-32.72,33.6-33.78.6.07,19.77-.97,22.99,9.5,2.18,1.5,4.65,3.28,6.35,4.95,3.51,3.46,7.97,9.91,1.77,18.65.44-7.2-.97-8.12-6.61-8.66-2.27-.21-5.28-.8-9.12-1.07,5.91.79,6.24,2.8,10.91,3.23l-1.19-1.31c2.79-.16,4.46,1.73,4.28,1.9-4.1-.13-9.89-1.8-13.66,2.63-.92,1.08-1.71,2.51-2.34,4.42-.22,1.31.01,2.53.52,3.72,1.96,4.55,7.96,8.66,7.99,15.66-.75-.83-3.88-5.07-9.16-6.22.29,2.05.36,4.02.27,5.95-.35-.63-1.02-2-2.74-3.56-2.45,2.49-4.99,7.2-7.09,9.73.04-2.54,1.4-5.52-.22-7.51-3.93,2.91-7.52,9.06-6.1,15.97-.97-1.42-1.98-2.74-2.22-5.87-2.1,2.59-4.15,5.33-6.49,7.21.73-4.36.8-8.21-.59-10.95-.92,1.69-1.69,3.3-3.82,5.59l-.3-2.8c-1.43,1.71-3.4,4.7-5.16,7.21l-.42-2.82c-3.32,4.74-6.43,10.48-9.87,14.39-.39-6.75.98-9.37,2.02-12.79-3.48,1.95-6.4,5.28-9.39,8.43,1.17-3.38,3.94-8.98,3.32-9.9-4.26,4.41-8.53,8.82-13,11.4h0Z"/>
        <path id="path4736-6" class="cls-4" d="m145.16,175.59c7.58-1.35,15.82.1,17,1.82-7.28,1.1-10.23,6.92-7.8,12.14,1.57,3.39,4.96,6.6,4.85,8.11-3.28-3.6-6.06-5.45-8.39-7.6.22-.43,1.18-.31,2.29.16-1.2-3.47-1.22-8.82,2.77-11.57.44-.3.75-.73.44-.75-2.83-.34-6.11-.56-8.84-.86-1.51-.13-7.51-.71-5.57-3.4.62-.83,2.15-1.03,3.08-1.64-7.43-1.69-11.71-4.2-10.88-8.03-3.12,1.67-6.38,2.42-9.96,2.56,3.85,1.68,12.11,1.84,10.87,5.55-2.78,6.39-12.71,7.12-14.86,13.03l2.59-.44c-3.55,3.1-4.64,5.3-5.31,7.34,4.87-3.78,9.72-7.78,14.9-8.59-3.98,2.55-8.5,6.71-12.92,10.57l2.42-3.31c-7.43,4.27-4.4,9.87-13.21,14.23,4.43-.27,3.62.54,3.41.88-5.61,2.14-8.58,10.66-15.45,18.65,4.65-10.13,9.81-20.18,11.53-30.74-.38.01-1.17.66-2.16,1.59,1.34-5.36,3.98-9.42,6.15-13.95-.58-.08-1.53.38-2.72,1.21,2.64-6.95,6.98-18.74,18.72-26.13,2.93-1.87,9.46-4.19,16.91-3.91,6.61.25,14.93,1.98,17.87,6.88-1.88.01-3.52-.67-4.8.77-.87,1.23-.32,3.16-.06,4.45.27,1.23,2.86,3.16.68,5.42-.9,1.08-2.22,1.01-3.44,1.18-4.12.58-7.54,1.55-10.1,3.05-.97.37-.84,1.51.01,1.33h0Z"/>
        <path id="path4738" class="cls-3" d="m111.93,194.49c-1.25,2.05-1.88,4.24-2.65,6.39,2.07-1.84,4.38-3.69,5.77-5.53l-2.56,1.16-.71.3.16-2.32Z"/>
        <path id="path4740-0" class="cls-3" d="m114.33,180.83c-1.13,2.49-2.08,5.41-3.03,8.32,2.84-2.12,5.12-4.24,7.49-6.37-1.55.22-3.09,1.22-4.64,2.15-.17-.54.07-2.56.18-4.11Z"/>
        <path id="path4742-4" class="cls-3" d="m117.06,170.58l-.93,3.83,6.06-4.67c-1.86.2-3.1,1.41-4.56,2.48l-.56-1.64Z"/>
        <path id="path4744" class="cls-3" d="m133.02,157.66c-.31.51-1.14,1.28-2.86,2.5,3.42-.04,7.04-.05,8.06-.43l-4.56-.97-.63-1.1Z"/>
        <path id="path4746-0" class="cls-3" d="m136.84,164.57c-.53-1.48.43-1.96,1.62-1.98,1.17-.01,2.29.64,3.3.8,2.14.33,4.9.19,7.34.05.84-.08.71-.6.34-.86-1.09-.46-2.94-.74-4.64-1.07-.91-.14-.86-.23-.12-.45,1.9-.22,6.91.04,8.01,2.6.28.62.09,1.24-.15,1.66-.8.92-1.41.38-2.43-.6-.33,3.85-3.02,5.68-5.54,6.08,2.65-1.31,4.86-3.62,3.7-6-.72,6.8-9.79,6.28-8.31-.47-.04-.89-.78-1.16-1.47-1.06-.79.11-1.13.72-1.64,1.31h0Z"/>
        <path id="path4748" class="cls-4" d="m141.38,164.06c-.19,0-.35.16-.36.35-.07.86-.15,1.84.22,2.69.37.85,1.25,1.49,2.79,1.59h.02s.02,0,.02,0c.76-.03,1.31-.33,1.72-.63s.66-.71.77-1.12c.18-.65.05-.97-.06-1.42-.24-.72-1.13-.76-1.81-.81-.53-.03-.54.77-.01.76.87-.11,1.15.14,1.27.61.2.67-.18,1.13-.57,1.49-.26.19-.68.34-1.32.36-1.35-.09-1.86-.53-2.13-1.14-.26-.61-.23-1.48-.16-2.33.02-.23-.16-.42-.39-.41h0Z"/>
        <path id="path4750-6" class="cls-4" d="m136.19,189.21c-4.23,1.53-7.88,1.65-16.66,14.06,1.73-1.16,3.53-2.54,5.75-5.05-1.56,3.42-3.11,6.9-4.54,11.29,4.88-6.71,8.44-13.15,15.45-20.31h0Z"/>
        <path id="path4752" class="cls-4" d="m132.89,201.2c1.47-.52,9.38-4.31,10.58-11.51.68,4.7-3.12,8.24-3.96,9.69,2.8-1.65,6.51-6.19,3.98-10.49-2.38,5.17-6.53,8.7-10.6,12.3Z"/>
        <path id="path4754-5" class="cls-4" d="m162.92,159.73c.45,1.77,2.6,2.69,5.01,4.18.66.98,1.1,2.43.53,3.85-.29.72-.91,1.5-.64,2.23.72,1.95.34,3.53-1.48,4.07-3.74-.06-7.28-.82-11.83-.25-1.59.2-3.27.19-5.06.37,3.34-1.5,8.41-1.22,10.49-3.61,1.53-2.09.3-4.35-.39-6.58-.28-1.62-.17-2.38-.09-3.19-.02-1.39,1.37-.5,3.45-1.07h0Z"/>
        <path id="path4756" class="cls-3" d="m163.37,165.45c-2.26.29-2.16,2.76-1.86,2.8,1.47-.05,2.48-1.7,1.86-2.8Z"/>
        <path id="path4758-3" class="cls-3" d="m164.36,165.74c.35,2.29-2.26,4.97-3.07,5.01,3.72-.1,4.18-3.5,3.07-5.01Z"/>
        <circle id="circle4760" class="cls-11" cx="114.27" cy="129.29" r="26.38"/>
        <g id="text4762" class="cls-16">
          <text class="cls-14" transform="translate(114.34 110.11) rotate(7.34)"><tspan x="0" y="0">7</tspan></text>
        </g>
        <g id="text4766" class="cls-16">
          <text class="cls-15" transform="translate(119.66 110.66) rotate(21.91)"><tspan x="0" y="0">4</tspan></text>
        </g>
        <g id="text4770" class="cls-16">
          <text class="cls-14" transform="translate(108.83 110.74) rotate(-4.69)"><tspan x="0" y="0">9</tspan></text>
        </g>
        <path id="path4776" class="cls-17" d="m105.28,105.6l-.9.4c-.25.37-.85.98-1.26,1.28l.55,1.08c.27-.16.67-.5.9-.73l1.37,3.11.52,1.19,1.33-.6-.52-1.19-2-4.54Z"/>
        <path id="path4780" class="cls-17" d="m117.82,147.65l-.97.14c-.34.29-1.08.71-1.56.89l.24,1.19c.3-.09.78-.3,1.06-.46l.48,3.37.18,1.29,1.45-.22-.18-1.28-.7-4.91Z"/>
        <g id="text4782" class="cls-16">
          <text class="cls-15" transform="translate(108.36 153.7) rotate(7.18)"><tspan x="0" y="0">0</tspan></text>
        </g>
        <g id="text4786" class="cls-16">
          <text class="cls-15" transform="translate(102.06 150.86) rotate(23.93)"><tspan x="0" y="0">2</tspan></text>
        </g>
        <g id="text4790" class="cls-16">
          <text class="cls-15" transform="translate(122.26 153.15) rotate(-31.17)"><tspan x="0" y="0">3</tspan></text>
        </g>
        <path id="path4794-5" class="cls-3" d="m99.29,115.46l.42,23.31,9.77.21.48-2.06-8.19-.79,1.69-20.99-4.17.32Z"/>
        <path id="path4796" class="cls-8" d="m128.57,125.9l-7.21,7.06,3.45,10.78-1.44-.06-3.53-8.45-3.2,1.89-.11,6.45-1.64.27-.49-23.59,14.18,5.65Zm-5.52,1.22l-5.47-1.91-.6,7.73,1.8-.36,4.27-5.45Z"/>
        <path id="path7749" class="cls-8" d="m50.5,207.89l-1.51-2.13c-.22.17-.33.38-.34.63,0,.25.1.52.32.83.14.2.31.36.51.5.2.13.38.23.54.28l.07.1-.75.53c-.23-.15-.43-.31-.6-.46s-.33-.35-.49-.58c-.41-.58-.6-1.12-.56-1.62s.31-.92.79-1.26c.48-.34.96-.46,1.45-.37.49.1.92.4,1.28.91.33.47.47.91.4,1.32-.07.41-.33.77-.78,1.09l-.33.23h0Zm-.11-1.31c.19-.14.3-.3.34-.46s-.02-.34-.15-.53c-.13-.18-.28-.29-.45-.34-.17-.05-.37,0-.58.12l.86,1.21Z"/>
        <path id="path7751" class="cls-8" d="m52.28,210.95l.54-.51c-.12-.1-.24-.21-.39-.32-.14-.11-.25-.2-.34-.24-.1-.06-.2-.08-.3-.08-.09,0-.17.05-.26.12-.05.05-.09.1-.12.14-.02.04-.03.09-.03.16,0,.06.02.13.05.19.03.06.1.14.2.25.08.08.18.15.29.2.12.05.23.09.35.1h0Zm-.4.38c-.08-.01-.17-.03-.28-.05-.11-.02-.21-.05-.29-.08-.11-.05-.22-.1-.32-.17-.1-.07-.2-.16-.3-.26-.23-.24-.35-.52-.36-.83s.11-.58.34-.8c.19-.18.38-.28.58-.31.2-.03.41,0,.62.09.21.09.44.23.69.43.25.2.49.41.74.64h.01c.14-.15.18-.3.13-.47-.06-.17-.19-.37-.41-.59-.13-.14-.29-.26-.49-.36-.19-.11-.34-.18-.43-.23l-.07-.08.62-.59c.11.06.27.18.49.35.22.17.43.35.61.54.45.47.7.88.75,1.22.06.35-.07.67-.38.96l-1.75,1.68-.78-.82.27-.26h0Z"/>
        <path id="path7753" class="cls-8" d="m53.91,214.23l-.79-.82,3.56-3.41.79.82-3.56,3.41h0Z"/>
        <path id="path7755" class="cls-8" d="m56.49,216.78c-.11-.07-.22-.14-.32-.23-.11-.09-.23-.2-.37-.34-.31-.32-.47-.62-.49-.9-.02-.28.13-.57.44-.87l1.2-1.15-.32-.34.56-.54.32.34.73-.7.79.82-.73.7.74.77-.56.54-.74-.77-.91.87c-.09.09-.17.16-.23.23s-.11.14-.15.21c-.03.07-.04.15-.02.23.02.08.08.18.18.28.04.04.1.09.19.14.09.05.15.09.19.1l.07.07-.56.54h0Z"/>
        <path id="path7757" class="cls-8" d="m59.73,218.13l.54-.51c-.12-.1-.24-.21-.39-.32-.14-.11-.25-.2-.34-.24-.1-.06-.2-.08-.3-.08-.09,0-.17.05-.26.12-.05.05-.09.1-.12.14-.02.04-.03.09-.03.16,0,.06.02.13.05.19.03.06.1.14.2.25.08.08.18.15.29.2.12.05.23.09.35.1h0Zm-.4.38c-.08-.01-.17-.03-.28-.05-.11-.02-.21-.05-.29-.08-.11-.05-.22-.1-.32-.17-.1-.07-.2-.16-.3-.26-.23-.24-.35-.52-.36-.83,0-.31.11-.58.34-.8.19-.18.38-.28.58-.31.2-.03.41,0,.62.09.21.09.44.23.69.43.25.2.49.41.74.64h.01c.14-.15.18-.3.13-.47-.06-.17-.19-.37-.41-.59-.13-.14-.29-.26-.49-.36-.19-.11-.34-.18-.43-.23l-.07-.08.62-.59c.11.06.27.18.49.35.22.17.43.35.61.54.45.47.7.88.75,1.22.06.35-.07.67-.38.96l-1.75,1.68-.78-.82.27-.26h0Zm2.84-2.36l-.54-.56.08-1.62.05-.04.77.8-.36,1.43h0Z"/>
        <path id="path7765" class="cls-8" d="m72.95,229.55c-.22.28-.45.48-.68.61s-.46.19-.69.18c-.23,0-.46-.06-.7-.18-.24-.11-.49-.27-.74-.47-.21-.16-.4-.34-.58-.52-.18-.18-.33-.35-.44-.5l.59-.74.12.09c.08.14.19.29.33.46.14.17.27.31.4.42.18.14.33.24.47.29.14.06.26.08.36.06.1-.01.2-.05.29-.12.09-.07.19-.16.29-.29l.04-.06c-.19,0-.37-.02-.56-.08-.18-.06-.36-.15-.53-.29-.41-.33-.63-.71-.66-1.14-.03-.43.16-.9.57-1.41.19-.24.4-.43.61-.55.21-.12.43-.2.66-.23.21-.03.43-.01.66.05.22.07.43.17.6.31.16.13.29.26.39.4.1.14.18.29.23.44l.14-.1.92.73-2.09,2.62h0Zm-.48-1.35l1.07-1.34c-.04-.07-.09-.14-.16-.21-.07-.08-.13-.14-.2-.19-.25-.2-.49-.28-.73-.23-.24.04-.46.19-.66.45-.23.28-.33.52-.32.72.02.2.13.38.34.55.09.08.2.13.31.18.12.04.23.07.34.08h0Z"/>
        <path id="path7767" class="cls-8" d="m75.98,233.03l-.93-.77.27-.32c-.28-.01-.52-.04-.72-.09-.2-.05-.4-.16-.6-.32-.32-.27-.49-.56-.52-.89-.02-.33.12-.67.42-1.04l1.57-1.9.94.78-1.2,1.45c-.12.15-.22.27-.29.38-.07.11-.11.2-.13.3-.02.09,0,.18.03.26.04.09.12.18.24.28.08.07.18.12.3.17.12.05.25.08.39.1l1.71-2.07.93.77-2.41,2.92h0Z"/>
        <path id="path7769" class="cls-8" d="m79.65,234.34l.41-.67c-.15-.07-.31-.15-.48-.23-.17-.08-.31-.13-.41-.16-.12-.03-.23-.03-.33,0-.09.03-.17.09-.23.2-.04.07-.07.13-.08.17-.01.05,0,.11.01.17.02.07.06.13.11.18.05.05.14.12.27.2.1.06.22.11.35.13.13.02.26.02.38,0h0Zm-.31.5c-.08,0-.18.02-.3.03s-.23,0-.32,0c-.13-.02-.26-.05-.38-.09-.12-.04-.25-.11-.38-.18-.31-.19-.51-.44-.6-.75-.09-.32-.05-.62.13-.92.14-.24.31-.4.51-.48.2-.09.42-.11.66-.08.24.03.52.11.83.25.31.14.62.29.93.46v-.02c.12-.18.12-.35.02-.5-.1-.16-.3-.32-.58-.5-.17-.1-.37-.18-.6-.24-.23-.06-.4-.1-.5-.12l-.09-.06.48-.78c.13.04.32.11.59.22.27.11.53.24.78.39.59.36.96.71,1.11,1.05.15.34.11.7-.13,1.09l-1.34,2.2-1.03-.63.21-.34h0Z"/>
        <path id="path7771" class="cls-8" d="m84.43,237.72c-.19.3-.4.52-.62.67-.22.15-.44.23-.67.25-.23.02-.47-.02-.72-.11-.25-.09-.51-.22-.78-.39-.22-.14-.43-.3-.63-.46-.2-.16-.36-.32-.49-.46l.52-.79.12.08c.09.13.22.27.37.43.15.16.3.28.44.37.19.12.35.2.49.24.14.04.26.05.37.03.1-.02.19-.07.28-.15.09-.08.17-.18.26-.31l.04-.06c-.19.02-.37.01-.56-.03-.19-.04-.37-.12-.55-.24-.44-.29-.7-.65-.77-1.07-.07-.42.08-.91.43-1.46.17-.26.35-.46.55-.61.2-.14.41-.24.63-.3.21-.05.43-.05.66-.01.23.05.44.13.63.25.17.11.31.23.43.37.12.13.21.27.28.42l.13-.12.99.64-1.82,2.81h0Zm-.6-1.3l.93-1.44c-.04-.06-.1-.13-.18-.2-.07-.07-.15-.13-.21-.17-.27-.17-.52-.23-.75-.16-.23.07-.44.24-.62.51-.2.31-.28.55-.25.75.04.2.17.37.39.51.1.07.21.11.33.15.12.03.24.05.35.05h0Z"/>
        <path id="path7773" class="cls-8" d="m85.66,239.67l-1.02-.65,2.82-4.42,1.02.65-2.82,4.42Z"/>
        <path id="path7775" class="cls-8" d="m87.81,240.99l-1.04-.63,1.97-3.23,1.04.63-1.97,3.23Zm2.28-3.67l-1.09-.67.48-.79,1.09.67-.48.79Z"/>
        <path id="path7777" class="cls-8" d="m91.41,241.7l.41-.67c-.15-.07-.31-.15-.48-.23-.17-.08-.31-.13-.41-.16-.12-.03-.23-.03-.33,0-.09.03-.17.09-.23.2-.04.07-.07.13-.08.17-.01.05,0,.11.01.17.02.07.06.13.11.18.05.05.14.12.27.2.1.06.22.11.35.13.13.02.26.02.38,0h0Zm-.31.5c-.08,0-.18.02-.3.03s-.23,0-.32,0c-.13-.02-.26-.05-.38-.09-.12-.04-.25-.11-.38-.18-.31-.19-.51-.44-.6-.75-.09-.32-.05-.62.13-.92.14-.24.31-.4.51-.48.2-.09.42-.11.66-.08.24.03.52.11.83.25.31.14.62.29.93.46v-.02c.12-.18.12-.35.02-.5-.1-.16-.3-.32-.58-.5-.17-.1-.37-.18-.6-.24-.23-.06-.4-.1-.5-.12l-.09-.06.48-.78c.13.04.32.11.59.22.27.11.53.24.78.39.59.36.96.71,1.11,1.05.15.34.11.7-.13,1.09l-1.34,2.2-1.03-.63.21-.34h0Z"/>
        <path id="path7779" class="cls-8" d="m96.28,245.57l-1.04-.63.98-1.6c.08-.13.15-.26.22-.4.07-.14.1-.25.11-.33,0-.09-.02-.18-.08-.26-.05-.08-.15-.16-.28-.24-.09-.06-.2-.1-.32-.13-.11-.03-.25-.04-.4-.04l-1.4,2.29-1.04-.63,1.97-3.23,1.04.63-.22.36c.27-.03.52-.03.73,0,.22.03.43.1.64.23.35.21.56.48.63.8.07.32-.01.69-.26,1.09l-1.28,2.1h0Z"/>
        <path id="path7781" class="cls-8" d="m100.53,247.65l-3.17-1.61.35-.69,2.74-.99-1.71-.87.4-.79,3.06,1.56-.35.68-2.71,1,1.78.91-.41.81Z"/>
        <path id="path7783" class="cls-8" d="m104.43,248.14l.28-.74c-.16-.05-.33-.09-.52-.14-.19-.05-.33-.07-.43-.08-.13,0-.23.01-.32.06-.08.04-.15.12-.19.23-.03.07-.05.14-.05.19,0,.05,0,.11.04.17.03.06.08.11.14.16.06.04.16.09.3.15.11.04.24.06.37.06.14,0,.26-.02.38-.06h0Zm-.21.55c-.08.02-.18.05-.29.08-.12.03-.22.05-.31.06-.13,0-.26,0-.39-.02-.13-.02-.26-.06-.41-.11-.34-.13-.58-.34-.72-.64-.15-.29-.16-.6-.03-.93.1-.26.24-.45.42-.57.18-.12.39-.18.64-.2.25-.01.53.02.86.1s.66.17,1,.28v-.02c.08-.19.05-.36-.08-.49-.13-.14-.35-.27-.66-.38-.19-.07-.4-.12-.64-.13-.24-.02-.41-.03-.51-.02l-.1-.04.33-.85c.13.01.34.05.62.11.29.06.57.14.84.25.64.25,1.07.53,1.28.84.21.31.23.67.07,1.1l-.93,2.4-1.12-.43.14-.37h0Z"/>
        <rect id="rect4806" class="cls-8" x="43.98" y="200.07" width="6.36" height="4.46" transform="translate(-115.17 72.69) rotate(-38.27)"/>
        <g id="text4808" class="cls-16">
          <text class="cls-13" transform="translate(43.6 202.18) rotate(50.76)"><tspan x="0" y="0">L</tspan></text>
        </g>
        <rect id="rect4812" class="cls-8" x="65.11" y="222.01" width="6.36" height="4.46" transform="translate(-143.17 123.09) rotate(-47.5)"/>
        <g id="text4814" class="cls-16">
          <text class="cls-10" transform="translate(64.72 224.62) rotate(41.53)"><tspan x="0" y="0">U</tspan></text>
        </g>
        <path id="path4818" class="cls-1" d="m62.73,218.96l1.7,1.47"/>
        <path id="path7796" class="cls-8" d="m124.71,244.52l-.28-.69c-.14.07-.29.15-.44.24-.16.09-.27.16-.35.23-.09.08-.15.16-.18.25-.03.08-.02.18.02.28.03.07.06.12.09.16.03.04.08.07.14.09.06.02.13.03.2.02.07,0,.17-.04.3-.09.11-.04.2-.11.29-.2.09-.09.16-.18.22-.29h0Zm.21.51c-.04.07-.09.15-.15.24-.06.1-.12.18-.18.24-.08.09-.18.17-.28.23-.1.07-.22.13-.35.19-.31.13-.61.14-.9.03s-.5-.31-.62-.61c-.1-.24-.13-.46-.08-.66.04-.2.15-.38.31-.55.16-.17.38-.33.65-.49.27-.16.56-.31.87-.45v-.02c-.08-.18-.21-.28-.38-.28-.18,0-.41.05-.7.16-.17.07-.35.18-.52.32-.17.14-.29.25-.37.32l-.1.04-.33-.79c.1-.08.27-.18.5-.33.24-.14.48-.27.73-.37.6-.25,1.07-.33,1.41-.25.34.07.6.31.76.7l.92,2.24-1.05.43-.14-.35h0Z"/>
        <path id="path7798" class="cls-8" d="m129.39,241.82c.18.32.19.66.02,1.02-.17.36-.51.68-1,.97-.27.16-.54.28-.79.35s-.46.12-.64.14l-.47-.81.09-.05c.07,0,.15.01.24.02.09,0,.21,0,.35-.03.13-.02.26-.05.41-.09.15-.05.29-.11.44-.2.19-.11.33-.22.39-.31.07-.1.08-.19.03-.27-.04-.08-.1-.11-.18-.11-.07,0-.2.02-.37.08-.08.03-.19.07-.33.12-.14.05-.26.09-.38.12-.32.09-.6.09-.82.02-.23-.08-.4-.23-.54-.46-.17-.3-.17-.62,0-.98.17-.36.5-.68.98-.96.23-.13.46-.24.7-.31.24-.08.43-.12.58-.14l.45.78-.09.05c-.2-.02-.42,0-.64.05-.22.04-.43.12-.62.23-.16.09-.28.19-.37.3-.08.11-.1.2-.05.28.04.07.1.11.17.12.07,0,.21-.02.42-.09.11-.04.23-.08.36-.13.13-.05.26-.09.39-.13.3-.08.55-.09.76-.01.21.07.37.22.5.44h0Z"/>
        <path id="path7800" class="cls-8" d="m132.65,239.87c.18.32.19.66.02,1.02-.17.36-.51.68-1,.97-.27.16-.54.28-.79.35-.25.08-.46.12-.64.14l-.47-.81.09-.05c.07,0,.15.01.24.02.09,0,.21,0,.35-.03.13-.02.26-.05.41-.09.15-.05.29-.11.44-.2.19-.11.33-.22.39-.31.07-.1.08-.19.03-.27-.04-.07-.1-.11-.18-.11-.07,0-.2.02-.37.08-.08.03-.19.07-.33.12-.14.05-.26.09-.38.13-.32.09-.6.1-.82.02-.23-.08-.4-.23-.54-.46-.17-.3-.17-.62,0-.98.17-.36.49-.68.98-.96.23-.13.46-.24.7-.31.24-.08.43-.12.58-.14l.45.78-.09.05c-.2-.02-.42,0-.64.05-.22.04-.43.12-.62.23-.16.09-.28.19-.36.3-.08.11-.1.2-.05.28.04.07.1.11.17.12.07,0,.21-.02.41-.09.11-.04.23-.08.36-.13.13-.05.26-.09.39-.13.3-.08.55-.09.76-.01.21.07.37.22.5.43h0Z"/>
        <path id="path7802" class="cls-8" d="m134.79,239.97l-1.01.53-1.66-3.15,1.01-.53,1.66,3.15Zm-1.87-3.61l-1.07.56-.4-.77,1.07-.56.4.77Z"/>
        <path id="path7804" class="cls-8" d="m138.06,236.05c.27.52.34,1.01.19,1.46-.14.46-.49.83-1.04,1.11-.55.29-1.05.36-1.51.22-.46-.14-.82-.47-1.1-.99-.27-.52-.34-1.01-.19-1.47.15-.46.49-.83,1.04-1.11.55-.29,1.05-.36,1.51-.22.46.14.82.47,1.1.99h0Zm-.84,1.42c.02-.11.02-.24,0-.37-.03-.13-.09-.3-.2-.5-.1-.19-.2-.33-.3-.44-.1-.11-.2-.18-.3-.23-.1-.05-.2-.06-.3-.05-.1.01-.2.04-.3.1-.1.05-.18.11-.24.18-.06.07-.11.16-.13.27-.02.11-.02.23,0,.38.03.15.1.31.2.51.09.17.19.31.28.42.1.11.2.18.3.23.1.04.2.06.3.05.1-.01.21-.04.31-.1.09-.05.17-.11.24-.18.07-.08.11-.17.13-.27h0Z"/>
        <path id="path7806" class="cls-8" d="m142.53,235.04l-.94.66-1.01-1.45c-.08-.12-.17-.23-.26-.34-.09-.11-.18-.18-.24-.22-.08-.04-.16-.05-.25-.03-.09.02-.19.07-.31.15-.08.06-.16.13-.23.22-.07.09-.13.2-.19.33l1.44,2.07-.93.65-2.04-2.92.93-.65.23.32c.08-.25.17-.46.27-.63.11-.18.25-.33.44-.46.32-.22.62-.3.93-.24.31.06.59.27.84.64l1.33,1.9h0Z"/>
        <path id="path7808" class="cls-8" d="m145.3,231.05l-2.14,1.5c.17.22.38.33.63.34.25,0,.52-.1.84-.31.2-.14.36-.31.5-.51.14-.2.23-.38.28-.54l.1-.07.52.75c-.15.23-.31.43-.47.6s-.35.33-.58.49c-.59.41-1.13.59-1.62.55s-.91-.31-1.25-.8c-.34-.48-.46-.96-.36-1.45.1-.49.41-.91.92-1.27.47-.33.92-.46,1.32-.39.41.07.77.33,1.08.78l.23.33h0Zm-1.31.1c-.14-.19-.29-.31-.45-.34-.16-.03-.34.02-.53.15-.18.13-.3.28-.35.45-.05.17-.01.37.12.59l1.21-.85h0Z"/>
        <rect id="rect4824" class="cls-8" x="116.77" y="242.3" width="4.46" height="6.36" transform="translate(-87.73 67.47) rotate(-23.41)"/>
        <g id="text4826" class="cls-16">
          <text class="cls-12" transform="translate(117.78 248.35) rotate(-23.28)"><tspan x="0" y="0">P</tspan></text>
        </g>
        <rect id="rect4830" class="cls-8" x="151.03" y="221.73" width="4.46" height="6.36" transform="translate(-105.05 139.18) rotate(-37.37)"/>
        <g id="text4832" class="cls-16">
          <text class="cls-9" transform="translate(152.64 227.49) rotate(-37.51)"><tspan x="0" y="0">A</tspan></text>
        </g>
        <path id="path4836" class="cls-1" d="m147.59,229.42l1.71-1.46"/>
        <path id="path7818" class="cls-8" d="m158.11,219.98l1.57,1.97-.9.71-1.11-1.39c-.11-.14-.2-.25-.28-.34-.08-.09-.16-.15-.24-.19-.08-.04-.16-.04-.24-.02-.08.02-.18.07-.29.16-.09.07-.16.16-.21.26-.06.1-.1.2-.13.29l1.57,1.97-.89.71-2.21-2.79.89-.71.24.31c.06-.24.13-.45.22-.63s.22-.34.39-.47c.18-.15.38-.23.58-.26.2-.03.41,0,.62.1.06-.29.14-.55.24-.77.1-.22.23-.39.39-.52.3-.24.6-.33.9-.27.3.06.59.25.85.59l1.44,1.81-.9.71-1.11-1.39c-.11-.14-.2-.25-.29-.34-.08-.09-.16-.15-.24-.19-.08-.04-.15-.04-.24-.02-.08.02-.18.07-.29.16-.07.06-.14.13-.19.21-.05.08-.1.19-.16.33h0Z"/>
        <path id="path7820" class="cls-8" d="m163.88,215.8c.39.43.58.89.55,1.37-.03.48-.27.92-.72,1.34-.46.42-.92.61-1.4.6-.48-.02-.92-.25-1.31-.68-.4-.44-.58-.89-.56-1.37.03-.48.27-.93.72-1.34.46-.42.93-.62,1.4-.59.48.02.92.25,1.31.68h0Zm-.45,1.58c0-.12-.04-.23-.1-.35-.06-.12-.16-.26-.32-.43-.14-.15-.27-.27-.4-.35s-.24-.13-.35-.14c-.11-.02-.21,0-.3.03s-.18.09-.26.17c-.08.07-.14.15-.19.23-.04.08-.06.18-.06.3,0,.11.04.23.1.36.07.13.17.28.32.44.13.14.26.26.38.34.12.08.24.13.35.15.11.02.21,0,.3-.03.1-.04.19-.09.28-.18.08-.07.14-.15.18-.24.05-.09.07-.19.06-.29h0Z"/>
        <path id="path7822" class="cls-8" d="m165.92,212.69l-.07.07s-.11.06-.2.13-.15.12-.21.17c-.12.11-.22.21-.3.31s-.15.22-.22.35l1.6,1.76-.84.77-2.4-2.63.84-.77.35.39c.04-.33.11-.58.2-.76.09-.18.19-.32.31-.43.03-.03.06-.06.1-.09.04-.03.07-.06.1-.08l.73.8h0Z"/>
        <path id="path7824" class="cls-8" d="m169.52,210.08l-1.78,1.91c.22.18.44.25.68.21.24-.04.49-.2.75-.48.16-.18.29-.38.38-.6.09-.22.15-.42.16-.58l.09-.09.67.63c-.1.26-.21.49-.33.69s-.28.4-.47.6c-.49.52-.98.81-1.47.87-.49.06-.96-.12-1.39-.52-.43-.4-.65-.85-.65-1.35,0-.5.21-.98.64-1.44.4-.42.8-.64,1.21-.65.41-.01.82.17,1.22.54l.29.27h0Zm-1.26.37c-.18-.16-.35-.24-.51-.24-.16,0-.33.09-.49.26-.15.16-.23.33-.25.51-.01.18.07.36.24.55l1.01-1.08h0Z"/>
      </g>
    </g>
  </g>
</svg>