<?xml version="1.0" encoding="UTF-8"?>
<svg id="Layer_2" data-name="Layer 2" xmlns="http://www.w3.org/2000/svg" xmlns:xlink="http://www.w3.org/1999/xlink" viewBox="0 0 99.55 132.79">
  <defs>
    <style>
      .cls-1 {
        clip-path: url(#clippath);
      }

      .cls-2 {
        fill: none;
      }

      .cls-2, .cls-3, .cls-4, .cls-5, .cls-6, .cls-7, .cls-8, .cls-9, .cls-10, .cls-11, .cls-12, .cls-13, .cls-14, .cls-15, .cls-16, .cls-17, .cls-18 {
        stroke-width: 0px;
      }

      .cls-3 {
        fill: url(#linear-gradient);
      }

      .cls-19 {
        clip-path: url(#clippath-1);
      }

      .cls-20 {
        clip-path: url(#clippath-4);
      }

      .cls-21 {
        clip-path: url(#clippath-3);
      }

      .cls-22 {
        clip-path: url(#clippath-2);
      }

      .cls-23 {
        clip-path: url(#clippath-6);
      }

      .cls-24 {
        clip-path: url(#clippath-5);
      }

      .cls-4 {
        fill: #061844;
      }

      .cls-4, .cls-5, .cls-6, .cls-7, .cls-8, .cls-18 {
        fill-rule: evenodd;
      }

      .cls-5 {
        fill: #98037e;
      }

      .cls-6, .cls-17 {
        fill: #fff;
      }

      .cls-7 {
        fill: #fff295;
      }

      .cls-8 {
        fill: #ff7800;
      }

      .cls-9 {
        fill: url(#linear-gradient-4);
      }

      .cls-10 {
        fill: url(#linear-gradient-2);
      }

      .cls-11 {
        fill: url(#linear-gradient-3);
      }

      .cls-12 {
        fill: url(#linear-gradient-7);
      }

      .cls-13 {
        fill: url(#linear-gradient-5);
      }

      .cls-14 {
        fill: url(#linear-gradient-6);
      }

      .cls-16 {
        fill: #bfbfbf;
      }
    </style>
    <clipPath id="clippath">
      <path class="cls-2" d="m63.42,4.87c-.8.5-4.9,6.9-16.3,8-11.5,1.1-14-3.2-14-3.2l.7,3.9,1.7,2.1s1.2,2.7,14.3,1.4c13-1.3,15.7-11.6,15.7-11.6-.2-.9-.4-1.8-.8-2.7h-.1c-.3,0-.5,1.6-1.2,2.1"/>
    </clipPath>
    <linearGradient id="linear-gradient" x1="-431.97" y1="319.38" x2="-423.25" y2="319.38" gradientTransform="translate(1640.16 1198.57) scale(3.72 -3.72)" gradientUnits="userSpaceOnUse">
      <stop offset="0" stop-color="#fff295"/>
      <stop offset="0" stop-color="#fff295"/>
      <stop offset=".19" stop-color="#ffed84"/>
      <stop offset=".55" stop-color="#ffdf56"/>
      <stop offset="1" stop-color="#ffcc16"/>
    </linearGradient>
    <clipPath id="clippath-1">
      <path class="cls-2" d="m55.52,14.67c-4.7,1.8-9.9,2.5-14.9,1.9-2.4-.3-4.8-1.3-6.8-2.7.3,1.6.7,3.1,1.1,4.6.1.5.2,1,.3,1.5.2.2.4.4.6.6.5.5,1.1.9,1.8,1.1,1.2.6,2.6,1,3.9,1.3,1,.2,2,.3,3,.3s2.2-.1,3.3-.2c1.1-.2,2.3-.4,3.4-.7,1.2-.2,2.3-.4,3.3-.7.2-.1.5-.2.7-.3,1.5-.5,3-1.1,4.4-1.8l1.2-.6c.9-.7,1.9-1.3,2.9-1.9,1.1-1.3,2.4-2,2.8-4.2.1-1.1,0-2.3-.2-3.4-.1-.6-.2-1.3-.3-1.9s-.1-1.9-.5-2.3c-.1.2-.9,6.3-10,9.4"/>
    </clipPath>
    <linearGradient id="linear-gradient-2" x1="-464.71" y1="292.46" x2="-455.99" y2="292.46" gradientTransform="translate(1964.62 765.48) rotate(-11) scale(3.77 -3.77)" gradientUnits="userSpaceOnUse">
      <stop offset="0" stop-color="#061844"/>
      <stop offset=".13" stop-color="#061844"/>
      <stop offset=".14" stop-color="#1c2e59"/>
      <stop offset=".18" stop-color="#51658d"/>
      <stop offset=".22" stop-color="#788db3"/>
      <stop offset=".24" stop-color="#90a5ca"/>
      <stop offset=".26" stop-color="#99aed3"/>
      <stop offset=".28" stop-color="#8b9fc5"/>
      <stop offset=".33" stop-color="#6579a1"/>
      <stop offset=".39" stop-color="#293c66"/>
      <stop offset=".42" stop-color="#061844"/>
      <stop offset=".78" stop-color="#061844"/>
      <stop offset="1" stop-color="#061844"/>
    </linearGradient>
    <clipPath id="clippath-2">
      <path class="cls-2" d="m71.72,11.37c-1,0-2,.1-3,.1-.3,0-1.6-.2-1.8,0s.1.7,0,1.2c-.2,1.2-1.9,3-3.2,4-3.2,2.5-7,4.3-11,5.1-4.3.9-8.8,1.7-13.1.3-1.7-.5-3.8-1.3-4.6-2.9-.9-2-1.5-4-1.8-6.1-2.5,1.3-4.3,3.6-5,6.3-.6,2.8,1,4.6,3.3,5.7,2.7,1.2,5.7,1.2,8.6,1.6,3,.3,6,.3,9,0,2.8-.2,5.6-.8,8.2-1.7,3-.8,5.9-2,8.5-3.6,2.5-1.5,4.7-3.3,6.8-5.4.8-.9,1.5-1.9,2-3,.4-.9.3-1.2-.4-1.5-.4-.1-.7-.2-1.1-.2-.5.1-1,.2-1.4.1m-5.5-4.4c.7-.5,1.4-1,2-1.6-.7-.3-1.5-.5-2.3-.5,0,.7.1,1.4.3,2.1M47.32,1.57c-2.4.6-4.8,1.5-7,2.8-1.1.6-2.1,1.3-3.1,2s-1.9,1.5-2.7,2.4c-.7.8-1.3,1.5-.8,2.7.6.9,1.4,1.6,2.4,2,2.7,1.3,5.7,1.4,8.6,1.4,4.7,0,10-1,14-3.5,1.9-1.2,4.3-3.1,5.4-5.1.5-.7.6-1.6.5-2.4-.2-.8-.8-1.4-1.6-1.6-3-.9-6-1.4-9.1-1.4-2.4-.1-4.5.2-6.6.7"/>
    </clipPath>
    <linearGradient id="linear-gradient-3" x1="-481.06" y1="363.83" x2="-472.34" y2="363.83" gradientTransform="translate(2611.17 1967.76) scale(5.37 -5.37)" xlink:href="#linear-gradient"/>
    <clipPath id="clippath-3">
      <path class="cls-2" d="m67.52,43.87c-.9,0-1.8.6-2.1,1.5.1.2.3.2.3.4-.3.3-.7.2-1.1.3-1.1.4-1.9,1.4-2,2.6.1.2.3.2.4.4-1,.8-2.4,1.2-2.2,3.2.3.1.6,0,.7.3-.4.3-.8.6-1.1,1s-.8,1-.4,1.6c.3-.1.7-.2.8.2-.5.4-.9.9-1.3,1.4-.1.6.1,1.3.6,1.7,2.3-.9,4.7-1.3,7.1-1.4-.3-1,.4-2.5,1.1-2.7,1.5-.3,2.4,1.1,2,2.7,1.8.1,3.6.4,5.3.9.2.2.5.2.6.4.2,0,.4-.1.7-.2.2-.7.9-1.4.4-2.2-1.2,0-.2-.7,0-1.2.4-1.2-.6-1.7-1-2.4.1-.3.4-.4.5-.7.7-1.6-1.3-2-1.9-2.7.3-.6.3-1.3-.1-1.8-.5-.7-2.5-.7-2.7-1.5,0-.3.2-.5.1-.8-.1-.6-.8-.9-1.4-.8-.3-.3-.8-.4-1.2-.4-.6,0-1.4.2-2.1.2"/>
    </clipPath>
    <linearGradient id="linear-gradient-4" x1="-295.47" y1="184.71" x2="-286.75" y2="184.71" gradientTransform="translate(671.3 433.38) scale(2.07 -2.07)" xlink:href="#linear-gradient"/>
    <clipPath id="clippath-4">
      <path class="cls-2" d="m66.02,57.47c-.7,0-1.3.3-2,.3-1.1.1-2.1.4-3,.9,4.7,1,9.6.9,14.3-.2-2.3-.8-4.7-1.1-7.1-1.1-.8,0-1.5,0-2.2.1"/>
    </clipPath>
    <linearGradient id="linear-gradient-5" x1="-217.26" y1="104.83" x2="-208.53" y2="104.83" gradientTransform="translate(417.33 230.44) scale(1.64 -1.64)" xlink:href="#linear-gradient"/>
    <clipPath id="clippath-5">
      <polygon class="cls-2" points="30.22 38.87 29.62 40.47 28.72 38.67 28.22 39.27 27.82 40.57 27.62 39.67 27.12 39.37 26.92 40.87 26.82 41.47 26.22 40.87 25.72 40.47 25.32 41.77 25.32 42.67 24.62 42.17 24.42 42.87 24.52 43.97 24.52 44.37 23.72 44.07 23.72 46.27 23.02 46.47 23.12 46.77 23.22 47.77 23.72 48.77 23.82 49.27 22.92 49.17 23.52 50.47 24.12 51.37 24.82 51.67 25.12 52.57 25.52 54.07 25.72 54.77 25.32 55.57 25.62 56.37 26.02 57.07 23.82 62.07 25.22 62.67 25.82 63.37 27.12 63.37 28.72 63.57 30.52 63.37 32.12 63.47 33.62 62.57 34.32 62.67 35.42 62.07 34.32 59.57 33.72 57.27 33.62 56.77 34.12 55.97 34.42 55.07 33.92 54.57 33.62 54.57 33.82 53.37 34.12 52.57 34.72 51.57 35.52 50.27 36.22 50.07 36.52 49.17 35.92 48.47 36.32 48.07 36.82 47.47 35.62 46.87 36.52 45.37 36.62 44.97 35.42 45.07 35.42 44.47 36.02 43.17 35.22 42.87 34.22 43.17 34.12 42.57 34.82 40.57 34.12 40.57 32.62 41.47 32.92 40.07 32.82 39.27 31.72 40.17 31.32 40.87 31.02 39.57 30.82 38.27 30.22 38.87"/>
    </clipPath>
    <linearGradient id="linear-gradient-6" x1="-229.09" y1="99.9" x2="-220.37" y2="99.9" gradientTransform="translate(389.36 210.77) scale(1.6 -1.6)" xlink:href="#linear-gradient"/>
    <clipPath id="clippath-6">
      <path class="cls-2" d="m48.72,66.37c-.2.4-.8.6-.8,1,0,.8-.1.6.2,1.2.1.2,0,.6,0,.8,0,.3,0,.6-.2.9-.6.5.6,1.8-.1,2.5-.9.8-1.4,1.9-1.4,3.2.1.1.2.6.3.7-.1.6.6.7.5,1.2,0,.1-.4.4-.4.6,0,.7.5.8.7,1.2h0c0,.1.1.3.2.4.1.4.5.2.7.9.1.1,0,.1-.1,0s-.2-.1-.2,0c.3.7.2.8.7,1.3.2.2.8,0,.8.2.5,0,.5.1.8-.2.1-.1.7,0,.8-.2.5-.5.8-1.2.9-1.9,0-.1-.3-.2-.3-.2.1-.5.2-1,.4-1.5.2-.1.3-.3.4-.4,0-.4.6-1,.6-1.5-.9-1.3-.1-1.7-.3-2.7-.3-.5-.2-.6-.6-1s-.4-.6-.3-.8c.1-.3.2-.6.2-.9,0-.7-.3-.6-.5-1.1,0-.1-.4-.2-.5-.3s-.2-.1-.1-.2c.1-.2.3-.4.5-.4.3-.1.4-.4.4-.7-.2-1.2.2-1.4,0-1.5-.3-.1-.5-.3-.7-.5-.1-.2-.2-.9-.5-1q-.6-.3-.7-.3h-.3,0c-.6-.1-.8.5-1.1,1.2"/>
    </clipPath>
    <linearGradient id="linear-gradient-7" x1="157.46" y1="-292.61" x2="166.18" y2="-292.61" gradientTransform="translate(-79.26 -160.27) scale(.8 -.8)" gradientUnits="userSpaceOnUse">
      <stop offset="0" stop-color="#fff295"/>
      <stop offset="0" stop-color="#ffef91"/>
      <stop offset=".18" stop-color="#ffcb65"/>
      <stop offset=".34" stop-color="#ffad41"/>
      <stop offset=".51" stop-color="#ff9624"/>
      <stop offset=".67" stop-color="#ff8510"/>
      <stop offset=".84" stop-color="#ff7b04"/>
      <stop offset="1" stop-color="#ff7800"/>
    </linearGradient>
  </defs>
  <g id="Layer_1-2" data-name="Layer 1">
    <path class="cls-17" d="m99.42,67.37c-.4-1.1-1.1-2-2.1-2.6-.7-.4-1.6-.5-2.4-.2-1.1.3-2,1.2-2.4,2.3-.1.2-.1.5-.1.7-2.3-3.3-3.9-7-4.6-10.9-1.5-7,.8-10.1,1.8-11,.4.6.9,1,1.6,1.2,1.2.4,2.5.2,3.5-.4,1.1-.6,1.9-3.2,1.1-4.9-.8-1.3-1.8-2.4-2.8-3.5-.5-.5-1-1-1.4-1.6-.4-.9-.8-1.8-1.1-2.8-.1-.3-.2-.6-.3-.9-.6-1.4-1.6-2.6-3-3.2-1-.4-2-.3-2.9.2-1.6.8-2.3,2.6-1.7,4.3-.9,0-1.7-.1-2.6-.4-1.1-.3-2.2-.8-3.2-1.4-3.5-2.1-7.4-3.3-11.4-3.5-6.8-.4-9.2,2.1-10,3l-.2.2c-1.6.2-3.2.2-4.8.1h-.8c-1.6.1-3.2,0-4.7-.1-.1-.1-.2-.1-.2-.2-.9-.9-3.2-3.3-10-3-4,.2-7.9,1.5-11.4,3.5-1,.6-2.1,1.1-3.3,1.4-.8.2-1.7.3-2.6.3.7-1.6-.1-3.5-1.7-4.3-.9-.5-2-.6-2.9-.2-1.4.6-2.5,1.8-3,3.2-.1.3-.2.6-.3.9-.3,1-.7,1.9-1.1,2.8-.4.6-.9,1.1-1.4,1.6-1.1,1-2.1,2.2-2.9,3.4-.8,1.7,0,4.3,1.1,4.9s2.3.8,3.5.4c.6-.2,1.2-.7,1.6-1.2,1,.9,3.3,4,1.8,11-.7,3.9-2.3,7.7-4.6,10.9,0-.2,0-.5-.1-.7-.4-1.1-1.3-1.9-2.4-2.3-.8-.3-1.7-.3-2.5.1-1,.6-1.8,1.5-2.2,2.6-.5,2.3.5,4.5,3.1,6.4l.1.1c2,1.4,5.2,3.9,4.8,13.4,0,.8-.1,1.6-.1,2.4-.5,8.6-.8,13.8,4.7,19.7,5.5,5.9,14.1,4.4,16.1,4,.5,1.2,2.5,5,5.3,7.1,2,1.3,4.1,2.3,6.4,3,2.6.9,4.9,1.7,5.8,3.5,0,.1,0,.3-.1.4-.2,1-.5,2.9.5,4.2.7.8,1.8,1.2,2.9,1.1h.3c1.1.1,2.1-.3,2.9-1,1.1-1.3.7-3.2.5-4.2,0-.1,0-.3-.1-.4.9-1.8,3.2-2.6,5.8-3.5,2.3-.7,4.4-1.7,6.4-3,2.9-2.1,4.8-5.9,5.3-7.1,2,.4,10.8,1.8,16.1-4s5.1-11.1,4.7-19.7c0-.8-.1-1.5-.1-2.4-.5-9.5,2.8-12,4.8-13.4l.1-.1c2.4-1.6,3.4-3.8,2.9-6.2"/>
    <g class="cls-1">
      <rect class="cls-3" x="33.02" y="2.67" width="32.5" height="15.6"/>
    </g>
    <g class="cls-19">
      <polygon class="cls-10" points="30.52 6.07 65.62 -.73 70.12 22.57 35.02 29.47 30.52 6.07"/>
    </g>
    <path class="cls-15" d="m87.02,11.67c0-1.1-2.1-1.8-2.7-2.4.8-.9,1.9-1.1,2.9-1.7-.2-1.4-2.9-1-3.9-1-2.9-.1-5.8.1-8.7.2,1.2-.6,2.4-1.2,3.6-1.6.5-.2,2.5-.7,2.7-1.3.4-1.4-3.4-1.2-4.1-1.2-.1-.7.9-2.2-.4-2.3-.7,0-1.8,1.1-2.4,1.3-1.3.7-2.6,1.4-3.9,2.2-1,.7-1.1.9-2.2.5-.8-.2-1.7-.5-2.4-1-1.4-1.5-3.3-2.5-5.3-2.8-9.2-1.7-19.3.3-26.1,7.2-.7.6-1.2,1.4-1.5,2.3-.2.7.4,1.8.1,2.4-.1.3-1.3.8-1.6,1-.5.3-.9.7-1.3,1.1-.8.8-1.5,1.7-2,2.8-1,2.1-.9,4.6.4,6.6,1.3,1.8,4,2.5,6.1,3,4.4.9,9,1.2,13.5.8,6.6-.7,10.6-1.9,13.7-3.3,4.5-2.1,10-4.7,12.7-9,.2-.3.4-.6.5-.9.2-.3.5-.6.6-1s.2-.8.2-1.3v-.5l1.3-.1c.8,0,1.7-.1,2.5-.1,2.5,0,5,.5,7.5.5.2-.1.2-.3.2-.4h0m-19.6-4.7c1.7-.9,3.1-2.1,4.8-3.1,1.3-.7,2.5-1.4,3.7-2.1.1.8-.2,1.1.4,1.6s2,.2,2.7.3c-2,1-4.1,1.8-6.1,2.8s-4,2.6-6.1,3.9c-.2-.7-.3-1.4-.4-2.1.2-.8.6-.5,1-1.3.4-.2-.2.4,0,0m-2.1-.8c.2,1.9,1.1,3.8.9,5.7-.1,1.7-1.5,3.1-2.7,4-3.1,2.4-6.6,4-10.4,4.8-4.1.8-8.1,1.7-12.3.8-1.7-.4-4-1.1-5.1-2.4s-1.4-4.3-1.7-6c5.2,3.5,11.5,3,17.4,1.8,5.1-1.1,11.9-4.1,13.8-9.6,0,.3.1.6.1.9m9.1,6.8c-.9,2.4-3.2,4.3-5.2,5.8-2.2,1.8-4.6,3.2-7.2,4.3-5.2,2.1-10.2,3.6-16,3.8-2.3.1-4.6-.1-6.9-.4-2.6-.4-5.1-.4-7.5-1.5-2.1-.9-3.6-2.6-3.3-5.1.6-2.7,2.3-5.1,4.8-6.4.5,2.1.9,5.4,2.5,7,1.3,1.3,4,2.1,5.7,2.4,5.2.9,10.5-.3,15.4-2,2.1-.8,4.2-1.8,6-3.2,1.5-1,3.5-2.5,4.2-4.3.1-.3.2-.5.2-.8,0-.7-.4-.7.4-1,.5,0,1.1,0,1.6.1,1.1,0,2.2-.1,3.3-.1,1.2.1,2.6-.2,2,1.4,0,.2.3-.4,0,0m8-2.4c-4.7-.2-9.3-.2-14,.1,3.9-4.3,10.8-3.2,15.9-2.9-.5.5-1.4.9-1,1.8.2.6,1,.8,1.4,1.2-.7-.1-1.5-.2-2.3-.2h0"/>
    <g class="cls-22">
      <rect class="cls-11" x="27.62" y=".77" width="47.4" height="26.4"/>
    </g>
    <path class="cls-8" d="m11.22,65.27l31.4-.2v-32.9s-4.5-2.4-7.8-.6-10.3,4.5-16.6,4.1c-3.8-.3-4.2-1.2-4.2-1.2l-5.2,9s7,4.4,7.3,7.1c0,0,2.3,5.1-.2,9-1.3,2.1-2.8,4-4.7,5.7"/>
    <path class="cls-4" d="m88.92,65.27l-31.9-.2V31.27s4.5-1.4,7.8.3,10.3,4.6,16.6,4.1c3.8-.3,4.2-1.2,4.2-1.2l5.2,9s-7,4.4-7.3,7.1c0,0-2.3,5.1.1,9,1.5,2.2,3.2,4.1,5.3,5.7"/>
    <path class="cls-4" d="m42.42,121.67v-42l-34.3-.2c1.7,4.5,2.7,9.3,2.8,14.2.1,7.7,1.1,13.8,12.8,16.4,8.3,2,18.7,11.6,18.7,11.6"/>
    <path class="cls-8" d="m57.12,120.37v-40.7l34.4-.1c-1.8,4.5-2.8,9.3-2.9,14.2-.1,7.7-1.1,13.8-12.8,16.4-8.3,1.9-18.7,10.2-18.7,10.2"/>
    <path class="cls-18" d="m71.22,43.37c1,.1,2.3,1.2,1.9,2.3.8.1,1.5.4,2.1.9.6.6.9,1.4.7,2.3.7.7,2.2,1.3,1.9,2.9-.1.3-.3.6-.6.8.7.6,1.4,2.1.6,3.1.4.6.5,1.2.4,1.9-.1.4-.6.8-.5,1.2-.9.6-2.3.6-3.7.9-1,.2-2,.4-3,.5-2.2.2-4.3.2-6.5,0-.4,0-.8-.1-1.2-.2-.8-.1-1.5-.2-2.2-.3-.5-.2-.9-.5-1.3-.9-.3-.2-.6-.3-.8-.7-.3-.8-.1-1.7.5-2.3-.9-1.1,0-2.5.8-3.1-.4-.3-.3-1.4-.1-1.9.3-.8,1.3-1.3,1.8-1.7-.5-1.8,1.4-3.2,2.8-3.6,0-1.2,1.2-1.9,2.3-2.2.1-.1.1-.3.2-.5.6-.4,1.2-.6,1.9-.7.5.1.9.3,1.3.6.1.1.1.2.2.3s.6,0,.5.4"/>
    <path class="cls-7" d="m69.02,42.67c.2,0,.3.1.4,0-.1,0-.3-.1-.4,0"/>
    <g class="cls-21">
      <rect class="cls-9" x="59.42" y="43.67" width="18.6" height="14.7"/>
    </g>
    <g class="cls-20">
      <rect class="cls-13" x="61.02" y="57.37" width="14.3" height="2.3"/>
    </g>
    <path class="cls-18" d="m70.62,45.77c-1-.2-2-.2-3,0-.3.1-.6,0-.7.3.1.2.4.1.7.1h1.8c.6,0,1.3.3,1.8.1,0-.4-.4-.5-.6-.5"/>
    <path class="cls-18" d="m73.22,48.37c.1.1.1.3.3.4s.2-.1.2-.3c-.1-.2-.3-.2-.5-.1.1,0,0,0,0,0"/>
    <path class="cls-18" d="m74.12,48.67h.2v-.2h-.2c-.1.1-.1.2,0,.2"/>
    <path class="cls-18" d="m72.62,48.67c-.6-.2-1.3-.2-1.9-.2.3.2,1.5.7,1.9.2"/>
    <path class="cls-18" d="m63.92,48.87c.4.3,1.2-.1,1.7-.2,0-.2.2-.1.3-.2-.7.2-1.6.1-2,.4"/>
    <path class="cls-18" d="m75.32,51.27c-.4-.1-.7-.2-1.1-.2,0,.3.9.5,1.1.2"/>
    <path class="cls-18" d="m75.62,51.47c0,.2.2.4.5.4,0-.1.1-.1.1-.2-.2-.2-.4-.3-.6-.2"/>
    <path class="cls-18" d="m67.92,51.47h-1.8c-1.1,0-2.2.2-3.3.5-.2.1-.6.1-.7.3.6,0,1.1-.1,1.6-.3,1.5-.2,2.9-.2,4.4-.2.2,0,.6.1.7-.1,0-.3-.6-.2-.9-.2"/>
    <path class="cls-18" d="m76.42,52.47c-1.1-.4-2.3-.6-3.5-.6,1.2.3,2.4.6,3.6.9q-.1-.1-.1-.3"/>
    <path class="cls-18" d="m75.82,54.47c-.1-.2-.6-.3-.9-.3,0,.3.6.4.9.3"/>
    <path class="cls-18" d="m65.92,54.17c-1.1.1-2.2.2-3.2.5-.3.1-.8.1-.9.4,1.5-.3,3-.5,4.5-.6h1.6c-.1-.5-1.5-.3-2-.3"/>
    <path class="cls-18" d="m73.32,54.67c.9.2,1.7.3,2.5.6.1.1.5.3.6,0-.5-.3-1-.4-1.5-.5l-1.7-.3h0s.1,0,.1.2"/>
    <path class="cls-18" d="m76.52,54.77c0-.3-.2-.3-.5-.3,0,.2.2.3.3.3h.2"/>
    <path class="cls-18" d="m76.12,57.57c.1.2.3.3.5.4,0-.1.1-.1.1-.2-.3-.6-1.2-.8-2-.9.3.3.9.4,1.4.7"/>
    <path class="cls-6" d="m27.82,82.17c.1.2.4.2.6.3.6-.8,1.7-1.1,2.6-.6.8.5,2.6,2.5,2,3.9-.1.3-.5.5-.5.7,0,.4.7.2,1,.4s.5,1.1.5,1.8c0,1.1-.4,2.1-1.1,2.9-.3.2-.5.3-.8.3s-.5-.4-.9-.3-.8,1.1-1.2,1.3c-.6.3-1.3.5-2,.5-.6,0-1.1,0-1.7-.1h-.7c-.7-.3-1-1.1-.6-1.8,0-.1.1-.1.1-.2-.1-.3-.5-.2-.8-.3s-.4-.3-.6-.3-.6.3-1.1.2c-.8-.5-1.4-1.4-1.4-2.4-.2-1.6.4-3,2.1-2.8.1-.2-.1-.4,0-.6-.2-.2-.7-.2-1-.4,0-.6.2-1.2.6-1.7.5-.6,1-1.1,1.7-1.4.3-.1.6-.3.9-.4h.3c.5-.2,1.1-.2,1.6-.2.3.4.5.8.4,1.2m-2.1.5c-.4.4-1,.6-1.3,1-.1.1-.2.3-.2.4.3-.4.7-.8,1.2-1,0,.1.1.2.2.2s.4-.2.4-.5c0-.1-.2-.1-.3-.1m4.3.5c.2.5,1.1.4,1,1.3.2.2.2,0,.4.1.1-.8-.7-1.2-1.4-1.4m-1.4,3c-.3.2-.6.3-1,.4.1-.2.1-.3-.2-.3-.2,0,.1.2,0,.3-.7-.1-1.3-.8-1.8-.4,0,.6.4.9.5,1.4-.3.4-.9.6-.9,1.3.1.1.2.1.3.1.5-.6,1.6,0,1.8.5-.1.4.1.8.4.8s.1-.5.1-.7c.1-.4.4-.8.8-1,.2-.1.3-.3.5-.5s.7-.2.7-.5-.3-.4-.5-.6c-.3-.3-.2-.8.1-1.1-.2-.6-.5.1-.8.3m-5.3,3.9c0-.1.2,0,.2-.2s-.3-.2-.4-.3c-.1-.4-.2-.8-.2-1.2-.1-.1,0,.1-.1.1,0-.4.1-1-.1-1.3-.3,1-.6,2.8.6,2.9m9.4-2.3c0,.5.1,1.1,0,1.6,0,.2-.2.4,0,.5.6-.1.5-2,.1-2.2h-.1v.1Zm-4,1.3c.1,0,.1.1.2.1.3,0,.2-.4.5-.5-.2-.5-.6.2-.7.4m-4,1.6c-.1.4.5.1,0,0m2.4,1.3c-.1-.1-.3-.1-.4,0,0,.2.1.3.3.4.6,0,1.2-.1,1.8-.4-.4-.5-1.3-.1-1.7,0"/>
    <path class="cls-18" d="m26.02,82.87c0,.3-.2.4-.4.5s-.2,0-.2-.1c-.5.2-.9.6-1.2,1,0-.2.1-.3.2-.4.4-.4.9-.7,1.3-1,.1-.1.2-.1.3,0"/>
    <path class="cls-18" d="m31.42,84.67c-.1-.1-.2,0-.4-.1.1-.9-.8-.8-1-1.3.7.1,1.5.5,1.4,1.4"/>
    <path class="cls-18" d="m28.52,81.67c.6-.5,1.5-.6,2.2-.4,1.4.7,2.5,1.9,2.9,3.5.1.6.1,1.1-.2,1.6,2,.8,1.2,4.9-.1,5.9-.5.4-1.2.5-1.8.2-.5.8-1.3,1.3-2.2,1.6,0,2.7,1.2,4.2,2.5,5.7.1-.4-.3-.7-.4-1.2-.3-.9-.4-1.8-.3-2.8.2-.1.2.2.3.3.4-.6.4-1.7,1.1-1.9.1-.4.5-.7.8-1,.1-.1.1-.3.3-.4s.4-.2.5-.3c.5-.5,1.1-.9,1.7-1.1.7-.3,1.5-.4,2.2-.4-.1.3-.4.3-.5.6,0,.3.1.5.2.7-.1.3-.1.8-.3,1,0,.2.2.1.3.3,0,.2-.2.4-.3.7s.2.1.2.2c-.3.6-.7,1.3-1.1,1.8,0,.1.2.1.2.2.7-.1,1.5-.2,2.2-.2.1.1,0,.2-.1.3,1.1.2,1.4,1.1,2,1.9-.1.3.2.6.2,1v.3c0,.4.5.9.1,1.2,0,.2.3.1.3.3-.3.2-.6-.1-.8-.2s-.4,0-.5-.1c-.2-.1-.3-.2-.5-.2s-.3.1-.5.2h-1.3c-.4,0-.9.1-1.3,0-.6-.1-1.1-.3-1.5-.7-.7.2-1.2-.4-1.5-.8-.2,0-.5.1-.7.3s-.2.5-.5.6c0,.1.2.2.1.4.6.7,1.3,1.3,2,1.9.1-.1.2-.3.4-.4.2.3.2.6.4.9.4.4.9.8,1.4,1.2.7.5,1.1,1.3,1.1,2.2,0,.2-.1.4-.1.6s.1.3,0,.4c-.1.1-.2.2-.2.3-.1.3,0,.7-.3.9-.4.1-.4-.4-.5-.7-.2,0-.2.1-.3,0-.4-1.1-1.1-2.1-2-2.9-.4-.4-.9-.8-1.3-1.1-.4-.5-.9-.9-1.4-1.3-.3-.2-.8-.1-1-.5,0-.1.2-.1.4-.1-.6-1-1.3-2-3-1.7-.1.3-.3.5-.1.8-.1.6-.7.8-.6,1.4-.2.2-.4.4-.7.5v.3c-.2.2-.6.3-.7.6-.8.3-1.6.6-2.3,1-.1.1-.1.2-.2.2-.4.2-.8,0-1.2.3-.7-.2-1.4-.2-2.1-.2,0-.4.2-.5.5-.5.6-.8.9-1.7,1.1-2.7.2-.2.3-.4.5-.7s.6-.4.8-.7c.1-.1.1-.3.2-.4s.6-.3.9-.4l.3-.3c.3-.2.7-.1,1.1-.3.4.2.8.2,1.2,0,.8.4,1.7.6,2.5.5-.4-.5-.8-1.8-1.5-1.8-.4,0-.6.4-1,.5-1,0-2.3.2-2.9-.5-.7,0-1.3-.2-1.8-.6-.1-.1,0-.1,0-.2-.6-.4-1.1-1-1.3-1.7-.2-.4-.4-.9-.4-1.3,0-.3-.3-.6-.3-.9,0-.1.2-.1.3-.1-.3-.5-.5-1.1-.5-1.7.3-.1.5.3.6.6.3.1.5.2.8.4.4-.3.7.1,1,.2.1-.1,0-.2.1-.3.5,0,.7.4,1,.5s.7.1,1,.3c-.2-.5-.3-1-.3-1.5-.1-.1-.3-.2-.4-.3-3.2,1.2-4.7-5.2-1.9-6.1-.4-.6-.5-1.3-.2-2,.4-1.2,1.8-2.1,3-2.5.2-.1.4-.2.6-.3h.6c1.2,0,2.2-.1,2.6.8m-1.1-.3c-.5,0-1.1,0-1.6.2h-.3c-.3.1-.6.2-.9.3-.6.4-1.1,1-1.6,1.6-.4.5-.6,1.1-.6,1.7.3.2.7.2,1,.4,0,.2.1.3,0,.6-1.6-.2-2.2,1.2-2.1,2.8,0,1,.6,1.9,1.4,2.4.5.2.8-.2,1.1-.2s.3.3.6.3c.2.1.7,0,.8.3-.4.6-.3,1.5.3,1.9.1,0,.1.1.2.1h.7c.6.1,1.1.1,1.7.1.7-.1,1.4-.2,2-.5.5-.3.8-1.2,1.2-1.3s.6.3.9.3.6-.1.8-.3c.7-.8,1.1-1.9,1.1-2.9,0-.8-.1-1.6-.5-1.8s-.9,0-1-.4c0-.2.3-.4.5-.7.6-1.4-1.1-3.4-2-3.9s-2-.3-2.6.6c-.2-.1-.5-.1-.6-.4.1-.4-.1-.8-.5-1m10.1,11.5c.1-.5-.2-1,0-1.6h-.1c-1.3.1-2.5.8-3.3,2-.1,0-.2.1-.3.1-.2.3-.6.5-.8.8s-.2.9-.6,1.2c-.1,0-.1-.1-.2-.2-.2.5-.3,1.1-.3,1.6-.1.1-.2.1-.4.1,0,.4.1.9.2,1.3.1.4.2.9.6,1,.2-.4.1-.9.5-1.1-.2.6-.3,1.2-.3,1.8.4-.5,1-.5,1.5-.8l.3-.3c.1-.1.3-.1.4-.2s.2-.2.2-.4c.4-.4.8-.7,1.2-1.1,0-.2-.1-.1-.1-.3.4-.6.8-1.1,1.1-1.7-.1,0-.1-.1-.2-.2.2-.2.3-.5.3-.8,0-.1-.2-.1-.2-.2.2-.3.5-.6.5-1m-16.2,1c-.2,0-.2.1-.3.1,0,.3.1.5.2.8-.1,1,.7,1.6,1.3,2.2,0,.1-.2.1-.2.2.3.1.5.4.8.5.3.2.6.1.9.2s.3.2.4.3c.3.1.6.1.9.1.3.1.5.1.8.2.5,0,.8-.3,1.3-.5-.2-.2-.5-.4-.8-.4-.2-.6-1-.5-1.2-1,.3,0,.4.1.6.1-.1-.5-.6-.9-.5-1.5.6.8.8,2.1,1.9,2.3-.3-.4-.2-1.3-.7-1.5.1-.5-.3-.9-.7-1-.2-.7-1-.9-1.5-1.3-.5.1-.9,0-1.3-.3-.4.4-.7,0-1.1-.1-.1,0-.3.1-.4,0-.3-.1-.5-.5-.8-.5,0,.5.4.7.4,1.1m4.7.5c0,.2.2.2.2.4.8,0,.7.9,1.2,1.2,0,.2.1.4.2.5-.1-.6-.1-1.3-.2-1.9-.4-.2-.9-.2-1.4-.2m1.9.2c.1,1,.3,2,.7,3,.2.3.4.7.6,1,.3.6.5,1.1,1,1.4,0,.4.4.5.6.8s.4.9.8,1.1v.3c.7.7,1.5,1.4,2.4,2,0,.1.1.2.1.3.8.6,1.5,1.3,2.1,2,.3.4.5.9.8,1.4.1-.5.2-1,.4-1.5-.8-1.5-2.2-2.4-3.4-3.4-.7-.6-1.4-1.3-2-2-.3-.4-.6-.9-.9-1.3s-.7-.9-1-1.3c-.7-1.2-1.1-2.5-1.3-3.8-.3-.2-.6-.1-.9,0m8.9,2.5c-.4.2-.7.5-1,.8-.1.1-.3.2-.2.3.5-.1.9,0,1.4.2.4-.1,1.5-.5,1.6.2,0,.1-.1.1-.1.1-.4-.3-.9,0-1.4,0-.3,0-.6-.2-.9-.3-.9,0-1.4.7-2,1.1.1.3.2.5.6.6.1,0,0-.3.2-.2.5.4,1,.6,1.6.8h1.5c.4,0,.8.3,1.2.3.2,0,.3-.1.4-.1.5,0,.8.4,1.3.2-.1-.7-.3-1.5-.5-2.2,0-.4-.2-.7-.4-1-.1-.1-.2-.1-.4-.2-.1-.1,0-.2-.1-.2-.3-.3-.9-.1-1.3-.3-.1-.1.1-.3,0-.3-.7-.1-1,.5-1.5.2m-9.2.8c.2,0,.3.1.5.2,0-.2-.1-.4-.3-.5,0,.1-.1.1-.2.3m-.5,2.5c-1-.3-2.1-.2-3,.5-.1,0,0,.2-.1.2-.7.4-1.3,1-1.5,1.8-.3.7-.6,1.4-.8,2.1-.1.1-.3.2-.2.3.5.3,1.2-.1,2,0,.1-.1.1-.2.2-.2.8-.3,1.6-.6,2.3-1,0-.4.4-.4.6-.6-.1-.4.3-.5.4-.7-.1-.5.6-.7.7-1.1,0-.2-.2-.1-.2-.3.1-.2.2-.4.2-.6-.2-.2-.5-.2-.7-.1-.7.3-1.3.7-1.8,1.2-.1.1,0,.2-.1.3-.4.3-.8.5-1.3.6-.2-.5.5-.5.8-.7.2-.2.4-.4.5-.6-.3,0-.4.2-.6,0,.3-.1.6-.4,1-.3.6-.6,1.3-.9,2.1-1,0-.2-.4-.2-.5-.1"/>
    <path class="cls-18" d="m72.72,80.87c.1.3,0,.7.3.8.4,0,.6-.4.9-.6.4.1.2.6.3.9.5,0,.7-.6,1.1-.3s-.2.8-.1,1.2c.5-.1.8-.7,1.3-.5.2.2,0,.5,0,.8.3.2.7.1,1,.2.2.7-.4,1-.8,1.5-.5.8-1,1.6-1.5,2.5.2.2.8.3.7.6s-.4.3-.6.5c.1.4.7.5.5.9s-.7.2-.8.5c0,.4.5.7.5,1s-.5.1-.6.3c0,.3.3.6.1,1-.3,0-.6,0-.7.1,0,.3,0,.6-.1.9-.4-.2-.8-.1-1.1.3-.1.1-.1.2-.1.4-.6-.1-1,.2-1,.7,0,.1-.2.2-.3.1-.2,1-.1,2.1.5,3,.5-.9,1.1-1.8,1.8-2.6.2.3.5.5.8.7.1-.5-.6-.6-.6-1.2.4-.1.5.3.8.4.6.1,1.2-.5,1.4-1.1.1-.4-.1-.9,0-1.3.7.1.3,1,.8,1.1.3.1.4-.2.6-.4s.4-.3.6-.4c.3-.5.5-1,.7-1.6.7,0,.2,1,.7,1.2.6,0,1.1-.2,1.6-.5.2-.1.3-.3.5-.4.3-.1.6-.3.9-.4.1,0,.2.1.3.2-.3.8-1.7,1.2-1.3,2.4.2.1.5,0,.6.2-.2.7-1.1.6-1.2,1.4s1.2.7,1.2,1.6c-.8,0-1.4.6-1.6,1.3-.1.4,0,.8-.1,1-.2.1-.2-.3-.4-.4s-.4,0-.5,0c-.8.3-.6,1.5-.9,2-.4,0-.3-.3-.6-.3-.7-.1-.9,1-1.3,1.4-.5-.1-.3-.8-1-.9-.6,0-.7,1-1.3,1.2-.4-.2-.5-.7-1-.9-.3.2-.7.1-.9-.2h0c-.4.5-.7,1.1-.9,1.7-.1.3-.2.7-.3,1-.2.4-.3.9-.4,1.3-.5.2-1.1,1.2-1.6,1.5-.6.3-1.1.2-1.2-.4.1-.9.3-1.8.6-2.6-.4-.4-.8-.8-1.3-1-.2,0-.3.2-.5.2-.6-.3-1.2-.3-1.8,0-.3.2-.7.9-1,.2.5-1.1-.2-1.4-1.2-1.4-.6,0-1,.7-1.5.5.3-.6.3-1.2.1-1.8-.4-.5-1.9-.2-1.2-1.2.6-.3,1.3-.5,1.7-1.1.2-.4,0-.9-.4-1.1h-.1c-.4-.1-1.2-.3-1.6-.4-.4-.1-1.1,0-1-.5,0-.2.3-.2.6-.4.7-.3,1.3-.9,1.4-1.7-.2-.6-1.3-.1-1.5-.7.3-.4,1-.7,1.2-1.2.2-.6-.4-.9-.5-1.5.4-.3,1.5-.4,1.5-1,0-.3-.6-.5-.5-.9s.9-.5,1-.9c.4-.6.6-1.4.7-2.1.1,0,.1.1.3.1.3.8-.5,2.3.2,2.9.9.3,1.6-1.4,2.2-.5-.6.7-1.4,2.3-.6,3.1.6.1,1.1-.7,1.5-.2-.4.7-.7,1.5-.9,2.3.1.3.3.5.5.7.9.2,1.3-.7,2.1-.5-.1.7-.8,1.1-.6,1.9.1.3.2.6.4.9.2.3.6.4.6.7s-.6.7-.8,1c-.1.2-.2.5-.1.8,0,.3.4.6.3.8,0,.2-.5.5-.4.9.6.4,1.5.6,1.8,1.1.4-.5.6-1.4,1-1.9-.5-.5-.5-1.5-.7-2.3,0-.3-.1-.5,0-.8,0-.2-.1-.4-.1-.7s0-.7.2-1c-.1-.5.1-1.2-.3-1.5-.3,0-.6.1-.8-.2.1-.4.4-.8,0-.9-.3-.2-.5.2-.9.1q0-.1-.1-.1c0-.2.1-.4.2-.6,0-.2-.7-.1-.9-.4-.2-.4.3-.5.3-.8.1-.5-.6-.4-.8-.8.2-.5.7-.4.9-.9-.1-.3-.6-.2-.6-.5.2-.3.9-.1,1-.6-.3-.3-.7-.9.2-.8.3-.1.5-.3.7-.6,0-.2-.2-.3-.2-.6s.2-.1.2-.2c-.3-1.1-.7-2.1-1.2-3.1.7.2.6-.5.8-.9.5-.1.3.5.7.6s.4-.7.6-1.1c.4,0,.3.3.5.4.4-.1.4-.8.9-.7.3.1,0,.7.4.8s.5-.7,1.1-.6c-.2-.2-.1-.2,0-.1m-.3.6c-.3.2-.3.7-.7.7s-.6-.4-.9-.6c-.1.4-.4.6-.9.4,0,.6-.6.9-1.3.6-.7.3-.4.8-.1,1.5.1.1.2.3.3.4.2.4.3.8.3,1.2.2.2.4.6.8.4.1-.2.1-.6.2-.6.2-.1.2.3.4.4.4.3,1,.2,1.3-.2.3.2.3.5.6.6s.6-.3,1-.4c.1.1,0,.4.1.5.4.1.7-.1,1-.1s0,.3-.1.4c.5.5.8-.1,1.3,0,.6-.9,1.1-1.8,1.7-2.6-.4-.2-.7-.5-.9-.8-.3.3-.8.3-1.2,0-.1-.1-.2-.3-.2-.5-.6.1-.9-.3-1.1-.6-.8.3-1.2-.3-1.6-.7m2.3,5.7c-.2-.2-.5-.2-.7-.5-.3.2-.7-.1-1-.3-.2.1-.5.1-.7.2-.2-.1-.4-.3-.6-.4-.2.1-.4.2-.7.2-.2-.1-.5-.3-.7-.3-.2.3-.5.4-1,.3-.1.5-.5.8-.9,1,.3.5-.2,1-.6,1.1.4.4-.2,1-.5,1.1.6.2.7.8.4,1.4.2,0,.3.1.5.2.1.2.2.5.1.7h.5c.2.3.6.5.4,1.1,1.8.4.4,2.5,1,3.7,0,.2-.1.2-.1.4.4.7.4,1.8.8,2.5-.1.2.1.2,0,.5-.3.7-.8,1.2-1,2-.2,0-.3.2-.5.2-.7-.5-1.4-1-2.2-1.3-.2-.5-.1-1,.2-1.5-.7-.9,0-2,.5-2.6-.8-.5-1.1-1.6-.8-2.5-1.5.4-2.6-.9-1.8-2.5-1.4-.2-1.4-1.4-1.2-2.8-.5,0-.7.1-1-.2s-.3-.8-.5-.8-.6.6-.7.7c1,.8-.1,1.8-.9,2,.5.7.4,1.7-.3,2.3.4.1.8.2,1,.5,0,.6-.2,1.3-.7,1.7-.2.2-.6.3-.6.5,1.2.2,2.7.8,2.6,1.9-.1.9-1,1.2-1.5,1.7.9.3,1,1,1.2,1.8,1-.4,2.5-.1,2.6,1,.5-.2,1.1-.3,1.7-.3.1-.1.1-.2.2-.2,1.3.1,1.7.9,2.4,1.4-.1.6-.3,1.2-.4,1.9-.1.1-.3.2-.1.4.6-.4,1-.9,1.8-.9.3-1,.7-2,1.1-3,.2-.4.5-1.1.8-1.2.2.1.3.3.6.4.3.1.4-.1.5,0,.4.1.5.6.9.8.3-.4.4-1.1,1-1.2.6-.1.8.3,1.2.6.3-.6.8-1.4,1.6-.8,0-1.1.5-2.6,1.8-1.9,0-.8.6-1.6,1.3-1.9-1-.4-1.3-2.1-.2-2.5-.2-.4-.3-.9-.2-1.3-.6.3-1.9.2-2.2-.5-.2.4-.5.5-.7.8s-.6,1-1.4.7c-.3.8-.9,1.4-1.7,1.5.4.6.3,1.4-.2,2,.7,1-.6,2.7-1.6,2.1,0-1.2.8-2.2,1.1-3.4-.1-.2-.4-.2-.5-.2-.6.8-1.2,1.6-1.5,2.6-.4,0-.3-.4-.7-.5,0-.4-.3-.8-.4-1.2,0-.1.1-.2.1-.3s-.2-.5-.2-.7c0-.5.1-.9.2-1.4,0-.1.2-.2.3-.3.3-.4.5-.9,1.1-.7.1-.5.6-.8,1.1-.7l.1-.7c.2-.3.5-.1.6-.4v-.5c0-.2.2-.2.4-.4-.3-.5-.2-1.1.2-1.5-.3-.3-.3-.7-.1-1.1-.4.2-.4-.3-.6-.5m-.6,11.6c.4.1,1-.9.6-1.4-.3.3-.5.8-.6,1.4m-3.8,6.6c.2.1.3,0,.3-.2-.1,0-.2.1-.3.2"/>
    <path class="cls-5" d="m73.72,81.97c.3.3.5.8,1.1.6,0,.5.4.8.9.8.2,0,.4-.1.5-.2.2.3.5.6.9.8-.6.8-1.1,1.8-1.7,2.6-.4-.1-.8.6-1.3,0,0-.1.2-.3,0-.4-.2-.1-.6.2-1,.1-.1-.1,0-.4-.1-.5-.3.1-.6.5-1,.4s-.3-.4-.6-.6c-.3.4-.8.5-1.3.2h0c-.1-.1,0-.4-.3-.4s-.1.5-.2.7c-.4.2-.6-.1-.8-.4,0-.4-.2-.8-.3-1.2-.1-.1-.2-.2-.3-.4-.3-.7-.5-1.2.1-1.5.6.3,1.2.1,1.3-.6.5.1.8,0,.9-.4.3.2.5.6.9.6s.4-.5.7-.7c.3.4.8,1,1.4.5m2.5,1.5c-.6.7-1.1,1.5-1.6,2.3,0,.2,0,.3.1.4,0-.1.1-.1.2-.1.5-.9,1-1.7,1.4-2.6,0,.1,0,0-.1,0m-1.4,0c-.1.3-.4.6-.6,1-.2.4-.5.8,0,.9.4-.5.7-1.1.8-1.8,0-.1-.1-.1-.2-.1m-2.4.9c0-.3.2-.7,0-.9-.1.3-.2.8,0,.9"/>
    <path class="cls-18" d="m76.32,83.57c-.4.9-.9,1.8-1.4,2.7-.1,0-.2-.1-.2,0-.1-.1-.1-.3-.1-.4.4-.8,1-1.6,1.6-2.3,0-.1,0,0,.1,0"/>
    <path class="cls-18" d="m75.02,83.67c-.1.7-.4,1.3-.8,1.8-.5,0-.2-.6,0-.9.2-.3.4-.7.6-1,.1,0,.2,0,.2.1"/>
    <path class="cls-18" d="m72.42,83.67c.2.2,0,.6,0,.9-.2-.2-.2-.7,0-.9"/>
    <g class="cls-24">
      <rect class="cls-14" x="22.92" y="38.27" width="13.9" height="25.3"/>
    </g>
    <path class="cls-18" d="m31.42,40.17c.4-.3.8-.7,1.2-1v-.3c.8.2.6,1.5.4,2.2.6-.2.9-.8,1.5-.8.2-.1.3-.2.6-.2,0,.9-.3,1.8-.7,2.7.5-.2,1.7-.2,1.3.4-.6,0-1.1.1-1.6.4-.2-.2-.1-.6-.3-.8.3-.6.5-1.2.7-1.9-1-.2-1.2,1-2.2,1.1-.6-.5.6-1.6.3-2.5-.6.6-1.1,1.3-1.5,2-.3-.1-.1-.8-.4-1,0-.6,0-1.3-.1-1.9-.3.2-.3.6-.4.9s-.3.6-.4.9,0,.5-.2.6c-.4-.2-.4-1.1-.7-1.5,0,0-.2-.5-.3-.5s-.5,1.2-.5,1.4.3.5-.1.7c-.6-.1-.4-1-.7-1.4-.2.6-.2,1.3-.2,1.9,0,.2.3.3.1.5-.4.1-.4-.5-.8-.5-.2-.3-.3-.6-.7-.7-.2.5-.4,1.5,0,1.8,0,.2-.2.4-.5.4s-.4-.6-.7-.6c0,.4,0,.9.1,1.3h.3c.3.4-.2.7-.5,1-.3,0-.3-.3-.6-.3-.1.6-.1,1.3.2,1.8.3.2.5.5.3.9-.6.2-.7-.5-1.1-.6-.3,1.2.6,1.8.9,2.7-.3.3-.8.4-1.1.1l-.1-.1c.2.7.7,1.4,1.3,1.8.1,0,0-.2.1-.1.5.8.8,1.8,1,2.7,0,.1.2,0,.2.1,0,.3.2.6.4.8-.2.5-.8.6-.7,1.2,0,.3.3.3.3.7-1.1.3-1-1.7-.3-2-.1-.9-.3-1.9-.7-2.7-.8-.3-1.4-.8-1.7-1.6-.3-.4-.5-1-.4-1.5.3-.1.5,0,.8.1-.3-.7-.5-1.5-.5-2.2,0-.2-.3-.2-.2-.4,0-.2.5-.2.8-.2.1-.8,0-1.6-.1-2.4.3-.1.5.2.7.2.1-.6,0-1.3.1-2,.3-.2.6,0,.9.1.1-.6.3-1.3.5-1.9.6,0,.7.5,1,.7.2-.7.1-1.5.5-1.9.3.1.6.3.8.6.2-.4.7-.8.6-1.4.4,0,.5.4.6.6.2.2.4.5.5.7.5-.5.6-1.3,1.3-1.5.6.6.5,1.6.7,2.4"/>
    <path class="cls-18" d="m33.82,54.37c.6.1,1,.7.9,1.3-.1.3-.2.5-.4.7.1.1.1.2.1.3-.1.1-.4,0-.6.1s.1.1.1.2c.2,1.3.6,2.6,1.2,3.8.3.4.8,1.1.4,1.5-.7,0-1.3.9-2.1.4,0,0,0,.3-.2.4-.4,0-.8.4-1.2.5h-1.1c-1.2-.1-2.8.7-3.7,0-.8.3-1.8.1-2.4-.7-.8-.1-1.5-.4-1.4-1.2,0-.2.2-.3.3-.5.2-.3.3-.7.5-1,.6-.9,1.1-1.9,1.5-3-.1-.2-.4-.1-.4-.3.7-.2,1.5-.2,2.2,0-.1.7-1.1,0-1.5.3-.9,1.6-1.3,3.2-2.1,4.7.1.3.5.3.9.3.1-.2.1-.4.3-.5.2.1.3.3.3.5.4-.7.7-1.4.9-2.2.1.6-.3,1.2-.4,1.9,0,.4-.1.7-.2,1.1.1.2.6.1.8.1.2-1,.5-2,.9-3,.3,1-.3,1.8-.2,2.8.4.4,1.1.5,1.6.1.1-.4,0-.8.4-.9.2.2.1.6.1,1,.3,0,.7,0,1-.1,0-1.2.1-2.4.2-3.5.2.2.3.5.3.8.1.8,0,1.9.1,2.8.6.3,1.1-.2,1.6-.2.1-.1.2-.2.3-.3h.4c0-.9-.4-2.1-.4-3,.3,0,.5.4.5.7.1.7.3,1.5.5,2.2.3-.2.8-.2,1.1-.5-.8-1.6-1.3-3.3-1.6-5-1-.3-2.3.4-3-.2.3,0,.4-.2.7-.3.8-.1,1.6-.1,2.5-.2.2-.4.7-1,.2-1.4-.1,0-.1.2-.2.2-.9-.1-1.8-.1-2.8-.1,0-.5.9-.1,1.2-.3.2.1.4.1.6.1,0-.6.2-1.3.6-1.8.4.5-.4,1.1-.3,1.7h.3c.2-1.2.7-2.3,1.4-3.3.3-.3.7-.6.8-1.2.4-.1.6-.4.9-.7-.4-.3-.5-.8-.4-1.3.3-.1.5-.3.6-.5-.4-.4-1.3-.4-1.1-1.3.3-.3.8-.6.9-1.1-.6-.2-1,.5-1.4.2,0-.2.2-.2.3-.3-.1-.2-.2-.4-.2-.6.5-.4.8-.9,1-1.6.2-.1.2-.6.6-.4-.1.8-.4,1.6-.8,2.2.4.1.9-.3,1.3-.1.2,1-.7,1.5-1.1,2.1.2.1.5.2.7.3.2-.1.2-.3.5-.2.3.8-.4,1.4-.9,1.8.1.2.5.1.7.2,0,.7-.4,1.4-1.2,1.5-.1,1-1.2,1.1-1.3,2h0c-.2.7-.4,1.4-.6,2"/>
    <path class="cls-18" d="m28.32,43.37c-.1-.5-.1-1,0-1.5-.1-.1-.1-.2-.2-.2-.2.6-.3,1.5.2,1.7"/>
    <path class="cls-18" d="m29.92,43.17c.1-.4.4-1,0-1.2,0,.4-.2,1.1,0,1.2"/>
    <path class="cls-18" d="m31.42,43.47c0-.5-.2-1-.6-.8.3.3.3.9.4,1.4.3,0,.2-.4.2-.6"/>
    <path class="cls-18" d="m26.72,43.27c-.3.6-.3,1.8.3,2,.1-.6-.4-1.3.1-1.7.2.2.3.4.4.7.1.3.1.6.3.8.1-.9-.2-2-1.1-1.8"/>
    <path class="cls-18" d="m32.82,44.17c.6.4,0,1-.1,1.5,0,0,.1,0,.1.1.6-.3.8-1.1.5-1.6,0-.1.1-.1.1-.2s-.1-.1-.2-.1c-.1.1-.3.1-.4.3"/>
    <path class="cls-18" d="m31.72,46.07c.4-.2.8-.8.5-1.2-.1.4-.6.7-.5,1.2"/>
    <path class="cls-18" d="m34.22,47.37c.4,0,.5-.8.2-.9-.1.3-.4.6-.2.9"/>
    <path class="cls-18" d="m27.72,47.67c.2-.1,0-.4,0-.6-.5-.4-.6.7,0,.6"/>
    <path class="cls-18" d="m27.12,48.77c-.1-.2-.3-.2-.4-.3-.2-.4-.3-.9-.3-1.3-.1,0-.1-.1-.2-.1-.3.5.2,2.4.9,1.7"/>
    <path class="cls-18" d="m31.52,48.07c.1-.2.2-.4.2-.7-.1,0-.1-.1-.2-.1-.1.3-.4.7,0,.8"/>
    <path class="cls-18" d="m34.62,48.97c.5.5,1.1-1.3.5-1.4-.2.5-.6.9-.5,1.4"/>
    <path class="cls-18" d="m29.72,47.77c-.1.4-.3,1.4,0,1.7.3-.3.4-1.6,0-1.7"/>
    <path class="cls-18" d="m31.62,49.37c.1-.1.3-.7,0-.8-.1.2-.4.7,0,.8"/>
    <path class="cls-18" d="m33.92,49.37c-.2.2-.8,1.6-.4,1.8.3-.1.3-.5.4-.8.1-.3.2-.7.2-1,0,0-.1-.1-.2,0"/>
    <path class="cls-18" d="m27.52,50.37c-.1,1.4.5,2.8.3,4.3-.3.1-.8-.1-.7.3.3.1.6.1.9.1.1-.1.1-.2.2-.2,0-1.2-.1-2.3-.3-3.5-.1-.4-.2-.8-.4-1h0Z"/>
    <path class="cls-18" d="m31.92,53.07c0,.2-.3.6,0,.7.4-1,.7-2,.8-3h0c-.3.8-.6,1.5-.8,2.3"/>
    <path class="cls-18" d="m30.02,51.87c.1-.1.1-.3,0-.5q-.1-.1-.2-.1c-.1.4-.1.6.2.6"/>
    <path class="cls-18" d="m30.12,54.67c0,.1.1.3.2.3.2-.9.3-1.8.2-2.7h-.1c-.2.8-.3,1.6-.3,2.4"/>
    <path class="cls-18" d="m29.62,52.97c.1.1.1.2.3.2s.1-.1.1-.3c-.1,0-.4-.1-.4.1"/>
    <path class="cls-18" d="m29.92,54.47c0-.3-.2-.3-.3-.4-.3.3.1.6.3.4"/>
    <path class="cls-18" d="m28.92,54.97c.2.1.4.1.5,0,0,.2.4.2.3-.1-.3-.1-.5-.1-.8-.2.1.1,0,.1,0,.3"/>
    <polygon class="cls-18" points="74.42 83.17 73.52 84.87 73.12 85.07 73.52 83.97 74.02 83.27 74.42 83.17"/>
    <polygon class="cls-18" points="72.92 82.57 72.52 85.17 72.72 85.37 73.02 83.67 72.92 82.57"/>
    <path class="cls-18" d="m61.02,71.77c1-.1,3.6-1.7,3.4-3.8-.2-2.5-7.8-1-11,.3l.8-.8c.1-.1-.7-1.2-.7-1.2,0,0,.6-.7.6-1.1s0-.1-.2.1-.9.9-.8,1.2c0,.3.5.8.4,1-.2.3-.5.6-.7.9h0c-.3-.5-.5-.6,0-1.3.2-.6,0-1.2-.6-1.5q-.1,0-.2-.1c-.1,0-.2-.1-.3-.2.1-.4.2-.9.5-1.2.5-.5,1.1-.8,1.8-1,0,0-.3-.6-1.9.6-.4.3-.7.7-.9,1.2-.3-.2-.6-.2-.9-.2-.4,0-.8.2-1.1.4-.2-.5-.5-1-1-1.3-1.9-1.3-2-.7-2-.7.7.3,1.3.7,1.9,1.1.3.4.5.8.6,1.2-.1.1-.3.1-.4.1-.7.2-.6,1.2-.5,1.6s.3.7-.2,1.3l-.1.1c-.3-.4-.7-.8-.9-1.2,0-.2.5-.6.6-.9s-.6-.9-.7-1.1,0-.4-.2-.1.4,1,.4,1c0,0-1,1-.9,1.1l1.3,1.6c-2.1-.5-9-3.9-10.7-1.4s1.3,4,2.5,4.5c.8.4,1.6.1,2.9-.2-.8.4-1.6.8-2.4,1.3-2.1,1.4,1.8,3,3.3,2.6,1.5-.6,2.9-1.5,4.1-2.5-.1.2-.2.4-.3.7l-2.1,1.5c-.2,1-.6,2-1.1,2.9-.6.7,1.3-.7,1.7-2.3,0-.2.7-.6,1.1-.9-.1.2-.1.5-.2.8v.1l-.8,1.4s-.3,1.8-.4,2.4c-.2.5-.4,1-.8,1.4.5-.1,1-.5,1.1-.9.2-.8.4-1.6.6-2.4l.2-.4c.5,2.5,2,4.6,4.1,6,.4,0,1.4-.2,2.8-2.7.6-1,1.1-2.1,1.3-3.3l.2.2c.1.8.3,1.6.6,2.4.2.5.6.8,1.2.9-.4-.4-.7-1-.8-1.5-.2-.6-.4-2.1-.4-2.1l-.8-1.3c0-.3-.1-.6-.1-.9.4.3,1,.7,1,.9.4,1.6,2.2,3,1.7,2.3-.5-.9-.8-1.9-1.1-2.9l-1.8-1.3c-.1-.3-.2-.5-.2-.7,1,.8,3,2.4,4.2,2.4,1.4,0,4.5-2.1,3.1-3-.8-.5-1.7-.9-2.6-1.2.9.1,1.9.1,2.8.1"/>
    <g class="cls-23">
      <rect class="cls-12" x="46.42" y="65.17" width="6.9" height="17.3"/>
    </g>
    <path class="cls-18" d="m46.82,75.97s-.1-1.5,3-1.5,3,1.4,3,1.4c-1,.2-1.9.3-2.9.4-1.2-.1-3,.2-3.1-.3"/>
    <path class="cls-18" d="m47.42,77.37h2.4c1.7,0,2.6.2,2.8.7.2.4-1,1-2.8,1s-2.1.1-2.4-.3c-.2-.4-.9-1.3,0-1.4"/>
    <path class="cls-18" d="m48.02,80.27c1.7-.1,2.4-.3,3.1.1.8.4,1.7.7.6,1.1-.9.3-1.9.4-2.8.3-.5-.1-.9-.5-1-.9-.2-.5.2-.6.1-.6"/>
    <path class="cls-18" d="m51.82,70.37h0c.8-.6-.2-1.8.1-2.1.5-.5-.5-1.6-1.9-1.5-2.4.1-2.1,1.9-1.9,2.3.1.5.3.4.2.7-.1.2-.1.4-.2.6-.1.2-.2.5-.2.7,0,.4.2.8.5,1.1.3.3.3.6,1.8.5,1.2-.1,1.5-.4,1.7-1.1.3-.4.2-.9-.1-1.2"/>
    <path class="cls-6" d="m47.42,69.87c-.6-.2-6.7-2.5-7.9-2.5s-2.6-.2-2.9,1.4,1.7,2.4,2.3,2.5,2.9-.1,6.8.2c1.4.1,1.9.4,1.6-.2-.1-.5-.1-1,.1-1.4"/>
    <path class="cls-6" d="m46.32,71.17c-1.6.2-3.1.7-4.6,1.4-1.1.6-2.7,1.3-2.1,1.7.8.8,2,1.1,3.1.8,1.6-.4,4.8-2.8,4.8-3.2-.1-1.2-1.2-.7-1.2-.7"/>
    <path class="cls-6" d="m52.52,69.67c.7-.2,6-2.2,8.5-2.4s2.6.6,2.5.9-1,2.4-2.4,2.8-6.2,0-7.5.7c-.9.5-.7-.2-.8-.7s-.8-1.2-.3-1.3"/>
    <path class="cls-6" d="m53.42,70.57c.6-.2,4.5,1.4,5.2,1.8s1.7.7,1.5,1.1-2,2-2.8,1.6c-1.1-.5-2.2-1-3.2-1.7-.8-.5-1.6-.9-1.4-1.4.3-.5-.2-1.1.7-1.4"/>
    <path class="cls-18" d="m44.92,70.17c-1.9-.4-4.2-.8-4.2-.8l1.8.6,2.5.2s-.1,0-.1,0Z"/>
    <path class="cls-18" d="m54.52,69.97s3.9-.4,4.4-.6c.2-.1.5-.1.8,0-.6.3-1.3.5-2,.6-1.2,0-3.3,0-3.2,0"/>
    <path class="cls-18" d="m45.22,72.67l-1.5.4-.3.1c-.7.2-1.3.3-1.4.3.6,0,1.2-.1,1.8-.3l1.4-.5"/>
    <path class="cls-18" d="m55.02,72.27c.6.4,1.3.8,2,1.2.8.3.3.3.3.3-.4-.1-.8-.3-1.1-.5-.5-.3-1.2-1-1.2-1"/>
    <path class="cls-15" d="m49.92,126.07l-7.8-4v-41.8H9.42l-3.6-7.6,4.9-7.9h31.4v-29.8h15.5v29.8h31.7l3.8,6.9-2.4,8.6h-33v41.8l-7.8,4Zm-7.1-4.4l7,3.6,7-3.6v-42.1h33.2l2.2-7.8-3.4-6.3h-32v-29.8h-14v29.8H11.12l-4.4,7.2,3.1,6.9h33v42.1Z"/>
    <path class="cls-16" d="m50.22,32.77c1.7.1,3.3,0,5-.2.5-.2,2.2-3.6,10-3.1s11.5,4.2,14.5,4.9,3.3.2,3.3.2c-.8-1.4-.3-3.3,1.1-4.1l.1-.1c2.7-1.4,4.8,1.5,5.3,2.7.4,1.3.9,2.5,1.4,3.7.5.8,3.6,3.6,4.2,5s.1,3.8-.8,4.2c-3.6,1.8-4.8-1.1-4.8-1.1,0,0-4.3,2.7-2.4,11.9s6.3,12.9,6.3,12.9c0,0-2.4-3.1,1.4-4.7,2.1-.8,3.8,1.5,4,2.4.6,2.5-.9,4.5-2.9,5.9s-5.6,3.9-5.1,13.9,1.4,15.4-4.4,21.7-16,3.8-16,3.8c0,0-2.1,4.8-5.3,7.3-4.4,3.3-10.6,3.1-12.4,6.8-.2.4,1.8,5.3-2.9,5.3h-.3c-4.7,0-2.7-5-2.9-5.3-1.8-3.6-8-3.5-12.4-6.8-3.3-2.5-5.3-7.3-5.3-7.3,0,0-10.3,2.4-16-3.8-5.7-6.3-4.9-11.7-4.4-21.7s-3.1-12.5-5.1-13.9-3.5-3.4-2.9-5.9c.2-.9,1.9-3.2,4-2.4,3.8,1.5,1.4,4.7,1.4,4.7,0,0,4.3-3.7,6.3-12.9,2-9.2-2.4-11.9-2.4-11.9,0,0-1.2,2.9-4.8,1.1-.9-.4-1.5-2.8-.8-4.2.7-1.4,3.7-4.2,4.2-5,.6-1.2,1.1-2.5,1.4-3.7.4-1.2,2.5-4.2,5.3-2.7,1.5.7,2.1,2.5,1.3,4,0,0,0,.1-.1.1,0,0,.3.5,3.3-.2s6.7-4.5,14.5-4.9,9.5,2.9,10,3.1c1.7.2,3.3.2,5,.2h1.1v.1Zm-.7,3.6l-4.1.1s-2.2,2.9-4.7,1c-2.2-1.6-.1-3.7-.1-3.7,0,0-.1-.9-3.1-.9-3.8,0-8.7,4.9-14.6,5.8-3.4.5-6.9-.2-9.8-2-.1.8-.3,1.6-.7,2.3-.4.6-.9,1.2-1.4,1.7,0,0,8.5,2.5,6.9,17-1.3,11.5-9.9,15.3-9.9,15.3,0,0,3.6,2.3,4.8,8.8.9,4.7-.1,12.2,1.2,17.2.9,3.6,3.1,8.6,9.1,9.9s6.5-1.3,8.2-.5.2,3.7,4.3,7c1.3,1,6.3,2.6,9,4.3,1.7,1.1,5.3,5.6,5.3,5.6h0s3.6-4.5,5.3-5.6c2.6-1.7,7.7-3.3,9-4.3,4.2-3.2,2.6-6.2,4.3-7s2.2,1.8,8.2.5,8.2-6.3,9.1-9.9c1.3-5,.3-12.5,1.2-17.2,1.2-6.5,4.8-8.8,4.8-8.8,0,0-8.6-3.8-9.9-15.3-1.6-14.5,6.9-17,6.9-17-.5-.5-1-1.1-1.4-1.7-.4-.7-.6-1.5-.7-2.3-2.9,1.8-6.4,2.5-9.8,2-5.8-.8-10.8-5.8-14.6-5.8-3,0-3.1.9-3.1.9,0,0,2.1,2.1-.1,3.7-2.5,1.9-4.7-1-4.7-1l-4.1-.1h-.8Z"/>
    <path class="cls-15" d="m49.92,132.77h-.3c-1.1.1-2.1-.3-2.9-1.1-1.1-1.3-.7-3.2-.5-4.2,0-.1,0-.3.1-.4-1-1.8-3.2-2.6-5.8-3.5-2.3-.7-4.4-1.7-6.4-3-2.9-2.1-4.8-5.9-5.3-7.1-2,.4-10.8,1.8-16.1-4-5.3-5.8-5.1-11.1-4.7-19.7,0-.8.1-1.6.1-2.4.5-9.5-2.8-12-4.8-13.4l-.1-.1c-2.6-1.9-3.6-4.1-3.1-6.4.4-1.1,1.1-2,2.1-2.6.7-.4,1.6-.5,2.4-.2,1.1.3,2,1.2,2.4,2.3.1.2.1.5.1.7,2.3-3.3,3.9-7,4.6-10.9,1.5-7.1-.8-10.1-1.8-11.1-.4.6-.9,1-1.6,1.2-1.2.4-2.5.2-3.5-.4-1.1-.6-1.9-3.2-1.1-4.9.8-1.3,1.8-2.4,2.9-3.4.5-.5,1-1,1.4-1.6.4-.9.8-1.8,1.1-2.7.1-.3.2-.6.3-.9.6-1.4,1.6-2.5,3-3.2,1.8-.7,3.9.3,4.6,2.1.3.8.3,1.6,0,2.4.9,0,1.7-.1,2.6-.4,1.1-.3,2.2-.8,3.2-1.4,3.5-2.1,7.4-3.3,11.4-3.5,6.8-.4,9.2,2.1,10,3l.2.2c1.6.1,3.2.2,4.7.1h.8c1.6.1,3.2,0,4.8-.1l.2-.2c.9-.9,3.2-3.3,10-3,4,.3,7.9,1.5,11.4,3.5,1,.6,2.1,1.1,3.3,1.4.8.2,1.7.3,2.6.3-.6-1.9.4-3.9,2.2-4.5.8-.3,1.6-.3,2.4,0,1.4.6,2.4,1.8,3,3.2.1.3.2.6.3.9.3,1,.6,1.9,1.1,2.8.4.6.9,1.1,1.4,1.6,1.1,1,2,2.2,2.8,3.4.8,1.7.1,4.3-1.1,4.9-1.1.6-2.3.8-3.5.4-.6-.2-1.2-.7-1.6-1.2-1,.9-3.3,4-1.8,11,.7,3.9,2.3,7.6,4.6,10.9,0-.3,0-.5.1-.7.4-1.1,1.3-1.9,2.4-2.2.8-.3,1.7-.3,2.5.1,1,.6,1.8,1.5,2.1,2.6.6,2.3-.5,4.5-3.1,6.4l-.1.1c-2,1.4-5.3,3.9-4.8,13.4,0,.8.1,1.6.1,2.4.5,8.6.8,13.8-4.7,19.7s-14.1,4.4-16.1,4c-.6,1.2-2.5,5-5.3,7.1-2,1.3-4.1,2.3-6.4,3-2.6.9-4.9,1.7-5.8,3.5,0,.1.1.2.1.4.2,1,.5,2.9-.5,4.2-.4.8-1.5,1.2-2.6,1.2m-20.6-20.5l.1.4s2.1,4.8,5.2,7.1c1.9,1.3,3.9,2.3,6.1,2.9,2.7,1,5.3,1.9,6.4,4.1.1.2.1.4,0,.9-.2.9-.5,2.5.3,3.4.6.6,1.4.9,2.2.8h.3c.8.1,1.6-.2,2.2-.8.8-.9.5-2.6.3-3.4-.1-.5-.1-.7,0-.9,1.1-2.2,3.7-3.1,6.4-4.1,2.2-.6,4.2-1.6,6.1-2.9,3.1-2.4,5.2-7.1,5.2-7.1l.2-.4.4.1c.1,0,10.1,2.3,15.6-3.7,5.2-5.6,4.9-10.4,4.4-19,0-.8-.1-1.6-.1-2.4-.5-10,3.2-12.8,5.1-14.2l.1-.1c2.3-1.7,3.2-3.5,2.7-5.4-.3-.8-.9-1.5-1.7-2-.5-.3-1.1-.3-1.7-.1-.8.2-1.5.8-1.8,1.6-.1.8.1,1.6.6,2.3l-.7.7c-.2-.2-4.5-3.9-6.4-13.2-2-9.4,2.4-12.3,2.6-12.4l.5-.3.2.5c.3.6.8,1,1.3,1.2.9.3,1.9.1,2.8-.4.6-.3,1.2-2.3.6-3.6-.8-1.2-1.7-2.2-2.7-3.2-.6-.5-1.1-1.1-1.6-1.8-.5-.9-.9-1.9-1.2-2.9-.1-.3-.2-.6-.3-.9-.5-1.2-1.3-2.1-2.5-2.7-.7-.3-1.5-.2-2.1.2-1.3.6-1.8,2.1-1.1,3.4,0,0,0,.1.1.1l.1.2-.2.2c-.4.5-1.6.5-3.8,0-1.2-.4-2.3-.9-3.4-1.5-3.3-2-7.1-3.1-11-3.4-6.3-.3-8.5,1.9-9.3,2.7-.1.2-.3.3-.5.4-1.7.2-3.5.3-5.2.2h-.8c-1.7.1-3.5,0-5.2-.2-.2-.1-.3-.2-.5-.4-.8-.8-2.9-3-9.3-2.7-3.9.3-7.7,1.4-11,3.4-1.1.6-2.2,1.1-3.4,1.5-2.2.5-3.5.5-3.8,0l-.1-.2.1-.2c.7-1.2.3-2.8-.9-3.6-.7-.4-1.5-.5-2.3-.2-1.1.5-2,1.5-2.5,2.6-.1.3-.2.6-.3.9-.3,1-.7,2-1.2,2.9-.5.6-1,1.2-1.6,1.8-1,1-1.9,2-2.7,3.2-.6,1.3,0,3.3.6,3.6.8.5,1.8.7,2.8.4.6-.2,1.1-.7,1.3-1.2l.2-.5.5.3c.2.1,4.6,3,2.6,12.4-2,9.2-6.2,13-6.4,13.2l-.7-.7c.5-.7.7-1.5.6-2.3-.3-.8-1-1.4-1.8-1.6-.5-.2-1.1-.2-1.7.1-.8.4-1.4,1.1-1.7,1.9-.5,2,.4,3.8,2.7,5.4l.1.1c2,1.5,5.7,4.2,5.2,14.2,0,.8-.1,1.6-.1,2.4-.5,8.6-.8,13.4,4.4,19,5.5,6,15.5,3.7,15.6,3.7l.5.2Zm20.4,13.6l-.3-.4s-3.5-4.4-5.2-5.5c-1.7-1-3.4-1.8-5.2-2.5-1.3-.5-2.6-1.1-3.8-1.9-1.8-1.3-3-3.2-3.4-5.3-.2-.9-.4-1.3-.8-1.5s-.8-.1-1.4.2c-1.1.5-2.8,1.2-6.7.4-4.8-1-8.1-4.6-9.5-10.3-.6-3.2-.9-6.5-.8-9.8.1-2.5-.1-5-.4-7.5-1.1-6.2-4.5-8.5-4.5-8.5l-.7-.5.8-.3c.1,0,8.4-3.9,9.6-15,1.5-13.8-6.2-16.4-6.5-16.5l-.8-.2.6-.6c.5-.5,1-1,1.4-1.6.3-.7.5-1.4.6-2.1l.1-.8.7.5c2.8,1.8,6.2,2.5,9.5,2,2.9-.4,5.7-1.9,8.1-3.3s4.6-2.5,6.5-2.5c3.2,0,3.6,1,3.6,1.4v.2l-.2.2c-.5.5-.7,1.1-.8,1.8.1.5.4.9.8,1.2,2.1,1.6,4-.8,4.1-.9l.1-.2,4.9-.1,4.3.1.1.2c.1.1,2,2.5,4.1.9.4-.3.7-.7.8-1.2,0-.7-.3-1.3-.8-1.8l-.1-.2v-.2c0-.3.4-1.4,3.6-1.4,2,0,4.1,1.2,6.5,2.5s5.2,2.8,8.1,3.2c3.3.5,6.7-.2,9.5-2l.6-.5.1.8c.1.7.3,1.4.6,2.1.4.6.8,1.1,1.4,1.6l.6.6-.8.2c-.3.1-8.1,2.6-6.5,16.5,1.2,11.1,9.6,14.9,9.6,15l.8.3-.7.5s-3.4,2.3-4.5,8.5c-.3,2.5-.5,5-.4,7.5.1,3.3-.2,6.5-.8,9.8-1.4,5.7-4.7,9.3-9.5,10.3-3.9.8-5.6.1-6.7-.4-.7-.3-1-.4-1.4-.2s-.6.6-.8,1.5c-.4,2.2-1.6,4.1-3.4,5.4-1.2.7-2.5,1.4-3.8,1.9-1.8.7-3.5,1.5-5.2,2.5-1.6,1.1-5.2,5.4-5.2,5.5l-.1.1-.4.3Zm-19.2-18.2c.3,0,.6.1.8.2.9.4,1.1,1.2,1.3,2.2.4,2,1.5,3.7,3.1,4.8,1.1.7,2.4,1.2,3.6,1.7,1.8.7,3.6,1.6,5.3,2.6,1.4.9,4.1,4.1,5,5.2,1-1.2,3.6-4.3,5-5.2,1.7-1,3.5-1.9,5.3-2.6,1.3-.5,2.5-1,3.6-1.7,1.6-1.2,2.7-2.9,3.1-4.8.2-.9.4-1.8,1.3-2.2.7-.3,1.5-.2,2.2.2,1.1.4,2.6,1.1,6.1.3,4.5-.9,7.4-4.2,8.8-9.6.6-3.1.8-6.3.7-9.5-.1-2.6.1-5.1.4-7.6.9-5.1,3.2-7.7,4.4-8.7-5.4-3.3-8.9-9-9.4-15.3-1.4-12.3,4.5-16.3,6.5-17.3-.4-.4-.7-.8-1-1.3s-.5-1.1-.6-1.8c-2.9,1.6-6.3,2.2-9.6,1.7-3.1-.4-5.9-2-8.4-3.4-2.3-1.3-4.4-2.4-6.1-2.4-.9-.1-1.7.1-2.5.4.5.6.8,1.4.8,2.2-.1.8-.5,1.5-1.2,1.9-2.2,1.6-4.3.2-5.2-.9l-3.8-.1h-.6l-3.8.1c-1,1.1-3.1,2.5-5.3.9-.7-.4-1.1-1.1-1.2-1.9,0-.8.2-1.6.8-2.2-.8-.4-1.7-.5-2.5-.4-1.7,0-3.8,1.1-6.1,2.4-2.5,1.4-5.3,2.9-8.4,3.4-3.3.5-6.7-.1-9.6-1.7-.1.6-.3,1.2-.6,1.8-.3.5-.6.9-1,1.3,2.1,1,7.9,5,6.5,17.2-.5,6.4-4.1,12.1-9.5,15.4,1.1,1,3.4,3.6,4.4,8.7.3,2.5.5,5.1.4,7.6-.1,3.2.1,6.4.7,9.5,1.4,5.4,4.3,8.6,8.8,9.6,3.6.8,5.1.1,6.1-.3.6-.2,1-.3,1.4-.4"/>
  </g>
</svg>