<?xml version="1.0" encoding="UTF-8"?>
<svg id="Layer_2" data-name="Layer 2" xmlns="http://www.w3.org/2000/svg" xmlns:xlink="http://www.w3.org/1999/xlink" viewBox="0 0 33.56 19.58">
  <defs>
    <style>
      .cls-1 {
        clip-path: url(#clippath);
      }

      .cls-2 {
        fill: none;
      }

      .cls-2, .cls-3, .cls-4, .cls-5 {
        stroke-width: 0px;
      }

      .cls-6 {
        clip-path: url(#clippath-1);
      }

      .cls-7 {
        clip-path: url(#clippath-4);
      }

      .cls-8 {
        clip-path: url(#clippath-3);
      }

      .cls-9 {
        clip-path: url(#clippath-2);
      }

      .cls-10 {
        clip-path: url(#clippath-7);
      }

      .cls-11 {
        clip-path: url(#clippath-8);
      }

      .cls-12 {
        clip-path: url(#clippath-6);
      }

      .cls-13 {
        clip-path: url(#clippath-5);
      }

      .cls-14 {
        clip-path: url(#clippath-9);
      }

      .cls-15 {
        clip-path: url(#clippath-12);
      }

      .cls-16 {
        clip-path: url(#clippath-10);
      }

      .cls-17 {
        clip-path: url(#clippath-11);
      }

      .cls-3 {
        fill: #0f7562;
      }

      .cls-4 {
        fill: #fff;
      }

      .cls-5 {
        fill: #ffde23;
      }
    </style>
    <clipPath id="clippath">
      <rect class="cls-2" x="14.17" y="9.92" width="5.22" height="4.66"/>
    </clipPath>
    <clipPath id="clippath-1">
      <circle class="cls-2" cx="16.78" cy="9.47" r="6.71"/>
    </clipPath>
    <clipPath id="clippath-2">
      <circle class="cls-2" cx="14.94" cy="8.18" r="3.78"/>
    </clipPath>
    <clipPath id="clippath-3">
      <circle class="cls-2" cx="14.46" cy="8.54" r="3.78"/>
    </clipPath>
    <clipPath id="clippath-4">
      <circle class="cls-2" cx="14.31" cy="8.75" r="3.78"/>
    </clipPath>
    <clipPath id="clippath-5">
      <circle class="cls-2" cx="14.05" cy="9.17" r="3.78"/>
    </clipPath>
    <clipPath id="clippath-6">
      <circle class="cls-2" cx="14.3" cy="8.86" r="3.78"/>
    </clipPath>
    <clipPath id="clippath-7">
      <circle class="cls-2" cx="14.05" cy="9.17" r="3.78"/>
    </clipPath>
    <clipPath id="clippath-8">
      <circle class="cls-2" cx="14.66" cy="8.8" r="3.78"/>
    </clipPath>
    <clipPath id="clippath-9">
      <circle class="cls-2" cx="19.51" cy="9.17" r="3.78"/>
    </clipPath>
    <clipPath id="clippath-10">
      <circle class="cls-2" cx="19.26" cy="8.86" r="3.78"/>
    </clipPath>
    <clipPath id="clippath-11">
      <circle class="cls-2" cx="19.51" cy="9.17" r="3.78"/>
    </clipPath>
    <clipPath id="clippath-12">
      <circle class="cls-2" cx="18.9" cy="8.8" r="3.78"/>
    </clipPath>
  </defs>
  <g id="Layer_2-2" data-name="Layer 2">
    <path class="cls-3" d="m0,0h33.56v19.58H0V0Z"/>
    <g class="cls-1">
      <g>
        <circle class="cls-4" cx="14.34" cy="9.83" r="3.78"/>
        <circle class="cls-4" cx="19.22" cy="9.83" r="3.78"/>
      </g>
    </g>
    <circle class="cls-3" cx="19.39" cy="9.46" r="3.78"/>
    <circle class="cls-3" cx="14.17" cy="9.46" r="3.78"/>
    <g class="cls-6">
      <path class="cls-4" d="m10.95,13.24h3.39v.37h-3.39v-.37Zm0,.76h11.65v.19h-11.65v-.19Zm0,.57h11.65v.29h-11.65v-.29Zm0,.58h11.65v.37h-11.65v-.37Zm0,.56h11.65v.58h-11.65v-.58Zm11.65-2.47h-3.39v.37h3.39v-.37Z"/>
    </g>
    <g class="cls-9">
      <circle class="cls-4" cx="18.62" cy="8.18" r="3.78"/>
    </g>
    <g class="cls-8">
      <circle class="cls-3" cx="19.1" cy="8.54" r="3.78"/>
    </g>
    <circle class="cls-3" cx="16.78" cy="5.88" r="1.51"/>
    <g class="cls-7">
      <circle class="cls-4" cx="19.25" cy="8.75" r="3.78"/>
    </g>
    <g id="h">
      <g class="cls-13">
        <circle class="cls-4" cx="12.36" cy="13.49" r="4.45"/>
      </g>
      <g class="cls-12">
        <circle class="cls-3" cx="12.47" cy="13.91" r="4.45"/>
      </g>
      <circle class="cls-3" cx="11.13" cy="10.16" r="1.51"/>
      <g class="cls-10">
        <g>
          <g class="cls-11">
            <circle class="cls-4" cx="12.83" cy="14.25" r="4.45"/>
          </g>
          <path class="cls-4" d="m15.61,10.5l.7.58h.58v1.17h-.7l-.58-1.75Z"/>
        </g>
      </g>
      <g id="s">
        <g id="B">
          <path id="A" class="cls-5" d="m13.25,4.44l.25.81.41-.12-.66-.69Z"/>
          <path id="A-2" data-name="A" class="cls-5" d="m13.25,4.44l.68.51-.26.34-.42-.85Z"/>
        </g>
        <g id="C">
          <g id="B-2" data-name="B">
            <path id="A-3" data-name="A" class="cls-5" d="m14.25,4.46l-.7.49.24.35.45-.84Z"/>
            <path id="A-4" data-name="A" class="cls-5" d="m14.25,4.46l-.28.8-.4-.14.68-.67Z"/>
          </g>
          <g id="B-3" data-name="B">
            <path id="A-5" data-name="A" class="cls-5" d="m13.73,5.99l.28-.8-.4-.14.13.94Z"/>
            <path id="A-6" data-name="A" class="cls-5" d="m13.73,5.99l-.25-.81.41-.12-.16.94Z"/>
          </g>
        </g>
        <g id="C-2" data-name="C">
          <g id="B-4" data-name="B">
            <path id="A-7" data-name="A" class="cls-5" d="m14.55,5.41l-.68-.51-.26.34.94.17Z"/>
            <path id="A-8" data-name="A" class="cls-5" d="m14.55,5.41h-.85s0-.44,0-.44l.84.44Z"/>
          </g>
          <g id="B-5" data-name="B">
            <path id="A-9" data-name="A" class="cls-5" d="m12.93,5.38h.85s0-.41,0-.41l-.86.41Z"/>
            <path id="A-10" data-name="A" class="cls-5" d="m12.93,5.38l.7-.49.24.35-.94.14Z"/>
          </g>
        </g>
      </g>
      <g id="s-2" data-name="s">
        <g id="B-6" data-name="B">
          <path id="A-11" data-name="A" class="cls-5" d="m11.21,6.88l.62.58.29-.31-.91-.27Z"/>
          <path id="A-12" data-name="A" class="cls-5" d="m11.21,6.88l.84.1-.05.42-.79-.53Z"/>
        </g>
        <g id="C-3" data-name="C">
          <g id="B-7" data-name="B">
            <path id="A-13" data-name="A" class="cls-5" d="m12.08,6.39l-.36.77.39.18-.03-.95Z"/>
            <path id="A-14" data-name="A" class="cls-5" d="m12.08,6.39l.16.84-.42.08.26-.92Z"/>
          </g>
          <g id="B-8" data-name="B">
            <path id="A-15" data-name="A" class="cls-5" d="m12.39,7.98l-.16-.84-.42.08.58.75Z"/>
            <path id="A-16" data-name="A" class="cls-5" d="m12.39,7.98l-.62-.58.29-.31.33.89Z"/>
          </g>
        </g>
        <g id="C-4" data-name="C">
          <g id="B-9" data-name="B">
            <path id="A-17" data-name="A" class="cls-5" d="m12.82,7.07l-.84-.1-.05.42.9-.32Z"/>
            <path id="A-18" data-name="A" class="cls-5" d="m12.82,7.07l-.74.41-.21-.37.95-.04Z"/>
          </g>
          <g id="B-10" data-name="B">
            <path id="A-19" data-name="A" class="cls-5" d="m11.4,7.86l.74-.41-.21-.37-.54.78Z"/>
            <path id="A-20" data-name="A" class="cls-5" d="m11.4,7.86l.36-.77.39.18-.74.59Z"/>
          </g>
        </g>
      </g>
    </g>
    <g id="h-2" data-name="h">
      <g class="cls-14">
        <circle class="cls-4" cx="21.2" cy="13.49" r="4.45"/>
      </g>
      <g class="cls-16">
        <circle class="cls-3" cx="21.09" cy="13.91" r="4.45"/>
      </g>
      <circle class="cls-3" cx="22.43" cy="10.16" r="1.51"/>
      <g class="cls-17">
        <g>
          <g class="cls-15">
            <circle class="cls-4" cx="20.73" cy="14.25" r="4.45"/>
          </g>
          <path class="cls-4" d="m17.95,10.5l-.7.58h-.58v1.17h.7l.58-1.75Z"/>
        </g>
      </g>
      <g id="s-3" data-name="s">
        <g id="B-11" data-name="B">
          <path id="A-21" data-name="A" class="cls-5" d="m20.31,4.44l-.25.81-.41-.12.66-.69Z"/>
          <path id="A-22" data-name="A" class="cls-5" d="m20.31,4.44l-.68.51.26.34.42-.85Z"/>
        </g>
        <g id="C-5" data-name="C">
          <g id="B-12" data-name="B">
            <path id="A-23" data-name="A" class="cls-5" d="m19.31,4.46l.7.49-.24.35-.45-.84Z"/>
            <path id="A-24" data-name="A" class="cls-5" d="m19.31,4.46l.28.8.4-.14-.68-.67Z"/>
          </g>
          <g id="B-13" data-name="B">
            <path id="A-25" data-name="A" class="cls-5" d="m19.83,5.99l-.28-.8.4-.14-.13.94Z"/>
            <path id="A-26" data-name="A" class="cls-5" d="m19.83,5.99l.25-.81-.41-.12.16.94Z"/>
          </g>
        </g>
        <g id="C-6" data-name="C">
          <g id="B-14" data-name="B">
            <path id="A-27" data-name="A" class="cls-5" d="m19.01,5.41l.68-.51.26.34-.94.17Z"/>
            <path id="A-28" data-name="A" class="cls-5" d="m19.01,5.41h.85s0-.44,0-.44l-.84.44Z"/>
          </g>
          <g id="B-15" data-name="B">
            <path id="A-29" data-name="A" class="cls-5" d="m20.63,5.38h-.85s0-.41,0-.41l.86.41Z"/>
            <path id="A-30" data-name="A" class="cls-5" d="m20.63,5.38l-.7-.49-.24.35.94.14Z"/>
          </g>
        </g>
      </g>
      <g id="s-4" data-name="s">
        <g id="B-16" data-name="B">
          <path id="A-31" data-name="A" class="cls-5" d="m22.35,6.88l-.62.58-.29-.31.91-.27Z"/>
          <path id="A-32" data-name="A" class="cls-5" d="m22.35,6.88l-.84.1.05.42.79-.53Z"/>
        </g>
        <g id="C-7" data-name="C">
          <g id="B-17" data-name="B">
            <path id="A-33" data-name="A" class="cls-5" d="m21.48,6.39l.36.77-.39.18.03-.95Z"/>
            <path id="A-34" data-name="A" class="cls-5" d="m21.48,6.39l-.16.84.42.08-.26-.92Z"/>
          </g>
          <g id="B-18" data-name="B">
            <path id="A-35" data-name="A" class="cls-5" d="m21.17,7.98l.16-.84.42.08-.58.75Z"/>
            <path id="A-36" data-name="A" class="cls-5" d="m21.17,7.98l.62-.58-.29-.31-.33.89Z"/>
          </g>
        </g>
        <g id="C-8" data-name="C">
          <g id="B-19" data-name="B">
            <path id="A-37" data-name="A" class="cls-5" d="m20.74,7.07l.84-.1.05.42-.9-.32Z"/>
            <path id="A-38" data-name="A" class="cls-5" d="m20.74,7.07l.74.41.21-.37-.95-.04Z"/>
          </g>
          <g id="B-20" data-name="B">
            <path id="A-39" data-name="A" class="cls-5" d="m22.16,7.86l-.74-.41.21-.37.54.78Z"/>
            <path id="A-40" data-name="A" class="cls-5" d="m22.16,7.86l-.36-.77-.39.18.74.59Z"/>
          </g>
        </g>
      </g>
    </g>
    <g id="s-5" data-name="s">
      <g id="B-21" data-name="B">
        <path id="A-41" data-name="A" class="cls-5" d="m16.78,2.95l-.38,1.17.58.19-.2-1.36Z"/>
        <path id="A-42" data-name="A" class="cls-5" d="m16.78,2.95l.38,1.17-.58.19.2-1.36Z"/>
      </g>
      <g id="C-9" data-name="C">
        <g id="B-22" data-name="B">
          <path id="A-43" data-name="A" class="cls-5" d="m17.95,3.8h-1.23v.61l1.23-.61Z"/>
          <path id="A-44" data-name="A" class="cls-5" d="m17.95,3.8l-.99.72-.36-.5,1.36-.23Z"/>
        </g>
        <g id="B-23" data-name="B">
          <path id="A-45" data-name="A" class="cls-5" d="m16.06,5.17l.99-.72-.36-.5-.63,1.22Z"/>
          <path id="A-46" data-name="A" class="cls-5" d="m16.06,5.17l.38-1.17.58.19-.96.98Z"/>
        </g>
      </g>
      <g id="C-10" data-name="C">
        <g id="B-24" data-name="B">
          <path id="A-47" data-name="A" class="cls-5" d="m17.5,5.17l-.38-1.17-.58.19.96.98Z"/>
          <path id="A-48" data-name="A" class="cls-5" d="m17.5,5.17l-.99-.72.36-.5.63,1.22Z"/>
        </g>
        <g id="B-25" data-name="B">
          <path id="A-49" data-name="A" class="cls-5" d="m15.61,3.8l.99.72.36-.5-1.36-.23Z"/>
          <path id="A-50" data-name="A" class="cls-5" d="m15.61,3.8h1.23s0,.61,0,.61l-1.23-.61Z"/>
        </g>
      </g>
    </g>
  </g>
</svg>