<?xml version="1.0" encoding="UTF-8"?>
<svg id="Layer_2" data-name="Layer 2" xmlns="http://www.w3.org/2000/svg" viewBox="0 0 429.42 566.93">
  <defs>
    <style>
      .cls-1, .cls-2, .cls-3, .cls-4 {
        stroke-width: 0px;
      }

      .cls-2 {
        fill: #ed1c24;
      }

      .cls-3 {
        fill: #ffe300;
      }

      .cls-4 {
        fill: #009057;
      }
    </style>
  </defs>
  <g id="Layer_1-2" data-name="Layer 1">
    <path class="cls-1" d="m376.86,477.58v-1.15l.79.22-.72.86s0,.07-.07.07h0Zm0-13.39v-1.58c.36-.22.72-.36,1.01-.5-.14-1.3.58-2.3,1.58-3.02,1.66-1.22,4.25-1.37,5.9-.07.86.65,1.3,1.51,1.3,2.45-.07,1.66-1.37,2.81-2.95,3.31-1.08.29-2.3.36-3.46,0-.79-.29-1.44-.72-1.87-1.37-.5.29-1.01.5-1.51.79h0Zm0-19.15v-54.22c1.08,1.94,1.87,4.03,2.59,6.12.29.94.58,1.94.79,2.95v-2.23c-.07-2.16-.29-4.39-.5-6.55-.86-.07-1.66-.5-2.23-1.22h0c-.29-.29-.43-.58-.65-.94v-3.53c.22-.29.36-.58.58-.86,1.37-1.51,3.53-1.51,4.82.07.5.65.86,1.66.86,2.66s-.36,2.02-.86,2.66h0c-.29.43-.72.72-1.15.94.29,2.23.43,4.46.5,6.77.07,1.37.07,2.74.07,4.1,1.94-4.54,4.54-8.21,7.78-11.23.36-.36.79-.65,1.15-1.01-3.17-2.52-5.69-5.26-7.63-8.28-2.09-3.24-3.53-6.84-4.18-10.66-1.01-5.33-1.15-10.87-.58-16.34.65-5.69,2.02-11.3,4.03-16.56l.58-1.37.72,1.3c1.15,2.16,2.59,4.46,4.25,6.91,1.87,2.74,3.89,5.4,5.9,7.99.14-2.59.72-5.11,1.66-7.56v-.07c-1.44-3.38-2.09-7.13-2.02-10.87-6.98-3.1-11.88-6.55-15.26-11.3-.43-.65-.79-1.3-1.22-1.94v-18.72c1.3-.22,2.52-.43,3.67-.36-1.8-4.9-2.95-7.92-3.17-10.8-.22.43-.36.79-.5,1.22v-68.83c7.34,9.22,13.61,18.5,14.69,25.13.72,4.9.79,8.42-1.3,13.03-.43.94-1.37,3.02-2.3,5.11-1.87,3.96-3.67,7.92-5.47,12.02,2.38.14,4.68.72,6.62,2.09,1.87,1.3,3.38,3.24,4.18,6.19,1.8-2.38,3.89-4.54,6.19-6.48,2.3-1.94,4.68-3.6,7.34-5.04-.79,3.17-1.73,6.19-1.94,9.36-.22,2.59-.07,5.26.72,7.7.5,1.44.86,2.95,1.08,4.39.65-.65,1.22-1.3,1.73-2.02.72-1.01,1.3-2.02,1.8-3.1-.58-.36-1.01-.86-1.3-1.51-.43-.94-.5-2.09-.22-3.24.29-1.15.94-2.16,1.73-2.74.94-.65,1.94-.86,3.02-.65,1.01.22,1.8.94,2.23,1.87.43.94.58,2.09.29,3.24-.29,1.15-1.01,2.09-1.8,2.74-.79.58-1.66.86-2.59.79-.58,1.22-1.22,2.3-2.02,3.38-.79,1.08-1.66,2.09-2.66,3.02.07.58.07,1.08.07,1.66.07,1.8-.07,3.53-.43,5.33,3.82-3.96,8.14-7.06,12.82-9.94-1.3,3.96-1.87,7.92-2.66,12.02-.72,3.89-1.8,7.78-3.38,11.52-.94,2.38-2.02,4.68-3.31,6.91,2.16-1.87,4.25-3.74,6.77-5.18-.5,1.94-.94,3.89-1.37,5.76-1.08,4.39-2.23,9.14-1.51,13.1.5-.72,1.08-1.3,1.8-1.87,1.8-1.37,3.74-2.74,4.54-4.97.65-1.73,1.22-3.17,3.1-4.32,1.08-.72,2.16-1.08,3.02-1.01,1.08,0,1.87.65,2.02,1.73.07.65-.07,1.51-.58,2.52-.58,1.15-1.44,2.02-2.66,2.52-1.08.5-2.45.72-4.25.72-1.3,1.51-2.81,2.74-4.32,3.96-.79.58-1.37,1.3-2.02,2.16-.14.14-.29.36-.43.5.07,1.73-.14,3.46-.58,5.26-.36,1.44-.79,2.88-1.44,4.32,5.26-3.46,11.3-5.04,17.35-6.26-1.8,4.03-2.95,8.21-5.04,12.1-3.1,5.83-6.19,9.94-9.79,13.61-3.6,3.67-7.56,6.77-12.6,10.44-1.22.94-2.23,2.16-3.17,3.38,2.95-1.3,5.76-2.16,8.86-2.38-.94.86-1.44,1.51-2.16,2.59-3.31,5.26-8.5,13.46-7.85,19.58.14.94.43,1.87.72,2.95.36,1.15.72,2.38.94,3.74,1.44-1.66,2.88-3.17,4.32-4.54,1.66-1.58,3.24-2.95,4.82-4.32-.43-.79-.5-1.73-.22-2.66.58-1.94,2.74-3.1,4.75-2.74,2.02.36,3.38,2.3,2.74,4.32-.65,1.94-2.81,3.1-4.75,2.74-.58-.07-1.08-.29-1.51-.58-1.66,1.3-3.24,2.74-4.82,4.25-1.8,1.8-3.53,3.6-5.18,5.47,0,.86-.14,1.87-.36,2.88,6.05-2.59,11.81-3.53,18.36-3.17-1.08,1.15-2.16,2.3-3.24,3.53-3.1,3.24-6.19,6.55-9.29,10.3-5.04,6.12-10.22,10.73-15.41,13.9-4.18,2.52-8.42,4.03-12.67,4.61Zm-54.5-353.66c4.39.86,8.28,2.52,11.02,5.76.65.72,2.59,1.51,4.54,2.02.72-2.38,1.22-4.82,1.37-7.27.72-8.57-2.52-16.85-8.64-23.54-2.38-2.59-5.11-4.97-8.28-6.98v-13.32c.07.14.07.29.14.43.14-.14.29-.36.5-.5,1.22-1.22,2.88-2.02,4.68-2.02,3.67,0,6.7,3.02,6.7,6.7v.43c1.15-.94,2.59-1.44,4.18-1.44,3.82,0,6.91,3.1,6.91,6.91,0,1.51-.43,2.88-1.3,4.03,1.08-.65,2.3-1.01,3.6-1.01,3.96,0,7.13,3.24,7.13,7.13,0,2.81-1.58,5.18-3.89,6.34.65-.14,1.22-.22,1.94-.22,3.82,0,6.91,3.1,6.91,6.91,0,3.38-2.45,6.26-5.76,6.84,2.74.72,4.68,3.17,4.68,6.05,0,3.24-2.52,5.98-5.69,6.26,1.15,1.01,1.94,2.59,1.94,4.25,0,3.17-2.59,5.69-5.69,5.69h-.14c.94,1.01,1.44,2.3,1.44,3.82,0,3.1-2.52,5.69-5.69,5.69-.86,0-1.66-.22-2.45-.58-.86.94-1.66,2.09-2.16,3.6,2.45,3.31,3.38,7.78,1.66,11.45-1.15,2.52-4.1,3.31-6.34,1.73-1.87-1.3-2.45-3.82-1.37-5.83-.65-1.22-1.51-1.94-2.38-2.3-.94-.29-2.02-.22-3.1.22-1.15.43-2.23,1.22-3.31,2.16h0c-1.3,1.22-2.45,2.74-3.17,4.25v-43.63h0Zm54.5,131.9v68.83c-1.3,3.46-2.52,6.98-3.6,10.58.79-.07,1.58-.22,2.3-.36.43-.14.86-.22,1.3-.29v18.72c-2.3-3.96-3.74-8.71-4.61-14.62-.14.5-.36,1.08-.5,1.66-7.99-31.9-25.49-60.19-49.39-81.5v-16.34c1.15.5,2.23,1.01,3.38,1.3,2.88.86,5.98,1.22,8.86.86,4.25-.58,8.14-2.95,9.65-7.06.58-1.44.79-2.95.65-4.75-1.94-.14-3.38-1.58-3.53-3.46-.22-2.52,1.58-4.68,4.03-5.11,2.52-.5,4.68.43,6.55,2.02,1.8,1.44,3.31,3.46,4.61,5.11,2.3,3.02,5.47,6.7,8.93,10.73,3.67,4.32,7.7,9,11.38,13.68h0Zm0,162.14v3.53c-.22-.5-.36-1.15-.36-1.73,0-.65.14-1.3.36-1.8h0Zm0,5.4c-.29-.58-.58-1.22-.94-1.8-1.08-1.8-2.23-3.53-3.6-5.26-2.95,12.74-7.49,24.91-13.32,36.36.07,5.54.65,10.66,2.09,14.76,1.51,4.25,3.96,7.34,7.78,8.71-8.21,4.18-14.98,9.43-20.23,15.77-.22-1.58-.22-3.1-.14-4.61.07-1.94.36-3.89.72-5.76h0c.94,0,1.87-.29,2.52-.94.58-.58.94-1.44,1.15-2.66,0-.43,0-.86-.07-1.3-.07-.79-.43-1.44-.86-1.94-.5-.58-1.15-.86-1.8-1.01-.22,0-.43,0-.72.07-.86.07-1.58.58-2.16,1.3-.5.72-.86,1.58-.94,2.59,0,.94.22,1.94.72,2.66.22.29.5.58.86.79-.43,2.02-.72,4.1-.86,6.12-.07,2.02,0,4.03.36,6.12-1.58,2.02-3.02,4.18-4.39,6.41.29-3.96.14-7.56-.43-10.8-.43-2.81-1.22-5.33-2.3-7.56-4.39,5.47-9.22,10.66-14.33,15.48.14,2.95.58,5.47,1.15,7.78l-3.38-5.69c-.43.43-.86.79-1.37,1.22v45.43c3.53-4.39,6.77-8.86,9.72-13.32,9.22,2.3,17.71.07,25.13-4.32,7.7-4.54,14.4-11.45,19.66-17.86v-1.15l-.36-.07c-3.89-.72-7.92-.79-12.17-.07-3.17.5-6.41,1.44-9.79,2.81,3.02-2.88,5.76-6.19,8.21-10.08,2.74-.65,5.47-1.37,8.14-2.38,2.02-.72,4.03-1.51,5.98-2.45v-1.58c-2.09,1.01-4.25,1.94-6.48,2.74-2.16.79-4.39,1.44-6.62,1.94.94-1.51,1.8-3.17,2.66-4.9,2.02-4.1,3.89-8.42,5.76-12.67.65-1.51,1.3-3.02,1.94-4.46.94-.07,1.87-.14,2.74-.22v-54.22Zm-71.5-310.03c2.52.07,5.04.36,7.56.94,1.8,3.31,2.16,6.12,2.3,8.86,2.45.14,4.9.36,7.13.79v43.63c-.36.94-.65,1.8-.65,2.59,0,.65-.14,1.22-.36,1.66-.43,1.22-1.44,2.09-2.59,2.66-1.08.5-2.38.72-3.53.72h-.43c-.43.86-1.15,1.87-2.23,3.02-1.3,1.37-1.87,3.31-2.45,5.18.79.72,1.15,1.51,1.3,2.38.14.65.07,1.3-.14,1.87-.22.65-.5,1.15-1.01,1.66-.36.36-.79.65-1.3.94,1.8.07,3.6.94,4.68,2.38,1.01,1.22,1.3,2.81.72,4.25-.86,2.16-2.81,2.23-4.9,2.3-1.73.07-3.6.22-4.54,1.73-2.02,3.24-2.95,6.48-3.17,9.72-.29,3.74.43,7.42,1.8,10.87,1.87,4.82,5.26,9.94,9.36,14.11,2.88,2.88,6.12,5.33,9.43,6.91v16.34c-18.86-16.92-41.83-29.45-67.1-36V54.36c3.74-.36,7.92-.29,10.8.72,6.19,2.16,7.13,9,15.55,9.79.36.07.79.07,1.22.14-.07-3.38-.58-6.7-1.58-10.08-1.22-4.32-3.38-7.27-6.26-9.14-2.95-1.94-6.77-2.74-11.45-2.74-3.02,0-5.69-.14-8.28-.36v-14.4c2.02.65,3.53,2.3,3.89,4.39.22-.58.58-1.08,1.01-1.51h0c1.01-.94,2.38-1.58,3.89-1.58,3.02,0,5.54,2.45,5.54,5.54v.29c.22-1.08.79-2.02,1.51-2.81h0c1.01-1.01,2.45-1.66,4.03-1.66,3.02,0,5.54,2.45,5.69,5.47,1.08-1.08,2.52-1.73,4.18-1.73,3.17,0,5.76,2.59,5.76,5.76,0,.22,0,.5-.07.72.94-2.02,2.95-3.38,5.26-3.38,3.24,0,5.83,2.59,5.83,5.76v.29c.07-.14.22-.29.36-.43h0c1.08-1.08,2.52-1.73,4.18-1.73,2.66,0,4.97,1.8,5.69,4.25.14-.22.29-.36.43-.58h0c1.08-1.08,2.59-1.73,4.25-1.73,2.74,0,5.04,1.87,5.69,4.39v13.32c-4.68-3.1-10.22-5.4-16.34-6.77.29,1.15.36,2.3.43,3.46,0,.14,0,.29.07.58.43,6.26.58,11.45-.07,16.49-.22,1.87-.58,3.74-1.08,5.69h0Zm16.99,386.86v45.43c-6.98,8.86-15.12,17.71-25.34,26.57-8.64,8.86-26.93,24.48-41.76,23.76v-59.76c25.27-6.55,48.24-19.08,67.1-36ZM255.25,28.3v14.4c-1.58-.14-3.17-.36-4.68-.58-3.96-.65-7.85-1.66-12.46-3.02-2.02-.65-3.96-1.08-5.83-1.37-1.44-.22-2.95-.36-4.54-.5.07.14.22.36.29.5,2.02,3.6,3.53,7.85,4.61,12.46,2.88.72,5.62,1.58,8.28,2.45,4.03,1.37,6.98,2.95,11.23,2.16,1.01-.14,2.02-.29,3.1-.43v135.94c-12.96-3.38-26.57-5.18-40.54-5.18s-27.22,1.73-40.03,5.04V58.75c1.37-.07,2.66-.07,3.96.14,2.88.36,5.4,1.3,7.42.72,5.04-1.44,8.21-5.9,12.96-8.21.14-.22.22-.5.36-.72.43-1.08.86-3.17,1.37-5.47.5-2.74,1.15-5.69,2.02-8.14-1.94.22-3.82.36-5.62.65-1.87.29-3.82.72-5.83,1.37-4.61,1.37-8.5,2.38-12.46,3.02-1.37.22-2.74.36-4.18.5v-14.4c.36-.07.72-.14,1.08-.14,1.51,0,2.88.65,3.89,1.66h0c.36.36.72.79.94,1.22.5-2.45,2.74-4.39,5.33-4.39,1.51,0,2.88.65,3.89,1.66.29.29.58.65.79,1.01.79-2.02,2.66-3.38,4.9-3.38,2.95,0,5.33,2.45,5.26,5.33,1.58,0,3.02-.29,4.46-.86-.58-1.3-.94-2.81-.94-4.32,0-5.18,3.82-9.58,8.78-10.37v-5.4h-6.34v-3.46h6.34V0h3.31v6.77h6.34v3.46h-6.34v5.4c4.97.79,8.78,5.18,8.78,10.37,0,1.51-.36,3.02-.94,4.32,1.44.58,2.88.86,4.46.86-.07-2.88,2.3-5.33,5.26-5.33,2.23,0,4.1,1.37,4.9,3.38.22-.36.5-.72.79-1.01,1.01-1.01,2.38-1.66,3.89-1.66,2.59,0,4.82,1.94,5.33,4.39.22-.43.58-.86.94-1.22h0c1.01-1.01,2.38-1.66,3.89-1.66.58,0,1.08.07,1.58.22h0Zm0,475.34v59.76c-1.22-.07-2.45-.22-3.6-.5-6.48-1.66-11.74-6.7-11.38-13.75-1.37,3.74-3.6,7.13-6.34,9.86-4.97,4.9-11.81,7.92-19.22,7.92s-14.33-3.02-19.22-7.92c-2.81-2.74-4.97-6.12-6.41-9.86.36,7.06-4.9,12.1-11.3,13.75-1.01.22-2.02.36-3.1.43v-59.54c12.82,3.31,26.28,5.04,40.03,5.04s27.58-1.8,40.54-5.18ZM174.68,28.22v14.4c-2.66.29-5.54.43-8.78.43-4.68,0-8.5.79-11.45,2.74-2.88,1.87-5.04,4.82-6.26,9.14-1.22,4.03-1.66,8.06-1.51,11.95.14,3.1.65,6.19,1.51,9.22,3.53-1.37,6.84-3.67,11.16-9.29,3.46-4.46,9.5-7.56,15.34-8.06v131.4c-25.56,6.55-48.67,19.15-67.75,36.29v-16.42c3.31-1.66,6.62-4.1,9.5-6.98,4.18-4.18,7.56-9.29,9.43-14.11,1.3-3.46,2.02-7.13,1.8-10.87-.22-3.24-1.22-6.48-3.17-9.72-1.01-1.51-2.81-1.66-4.54-1.73-2.09-.07-4.03-.14-4.97-2.3-.58-1.44-.22-3.02.72-4.25,1.15-1.44,2.95-2.3,4.75-2.38-.5-.29-.94-.58-1.3-.94-.43-.5-.79-1.01-1.01-1.66-.22-.58-.29-1.22-.14-1.87.14-.86.5-1.66,1.3-2.38-.58-1.87-1.08-3.82-2.45-5.18-1.08-1.15-1.8-2.16-2.23-3.02h-.5c-1.15,0-2.45-.22-3.53-.72-1.15-.58-2.16-1.44-2.66-2.66-.14-.43-.29-1.01-.29-1.66,0-.79-.29-1.8-.72-2.74v-51.34c5.11-3.67,10.44-5.69,16.78-4.03-.29-1.51-.58-2.95-.72-4.39-.65-5.04-.5-10.22-.07-16.49.07-.29.07-.43.07-.58.07-1.15.14-2.3.43-3.46-6.19,1.37-11.74,3.74-16.49,6.84v-12.96h0c.5-2.74,2.95-4.82,5.83-4.82,1.66,0,3.17.65,4.25,1.73h0c.14.22.29.36.43.58.72-2.45,3.02-4.25,5.69-4.25,1.66,0,3.1.65,4.18,1.73h0c.14.14.29.29.36.43v-.29c0-3.17,2.59-5.76,5.83-5.76,2.3,0,4.32,1.37,5.26,3.38-.07-.22-.07-.5-.07-.72,0-3.17,2.59-5.76,5.76-5.76,1.66,0,3.1.65,4.18,1.73.14-3.02,2.66-5.47,5.69-5.47,1.58,0,3.02.65,4.03,1.66h0c.72.79,1.3,1.73,1.51,2.81v-.29c0-3.1,2.52-5.54,5.54-5.54,1.51,0,2.88.65,3.89,1.58h0c.43.43.79.94,1.01,1.51.43-2.3,2.16-4.03,4.39-4.46h0Zm0,475.56v59.54c-14.9,1.22-33.55-14.69-42.34-23.69-10.22-8.86-18.43-17.78-25.42-26.71v-45.43c19.08,17.14,42.19,29.74,67.75,36.29ZM106.93,48.46v12.96c-3.1,2.02-5.83,4.32-8.14,6.91-5.18,5.69-8.35,12.6-8.71,19.8,7.85,2.02,10.73-.22,16.85-4.54v51.26c-.72-1.44-1.8-2.95-3.17-4.1h.07c-1.08-.94-2.16-1.73-3.31-2.16-1.08-.43-2.16-.5-3.1-.22-.86.36-1.73,1.08-2.38,2.3,1.08,2.02.5,4.54-1.37,5.83-2.23,1.58-5.26.79-6.34-1.73-.86-1.87-.86-4.18-.65-6.19h0c.29-2.02,1.08-3.89,2.3-5.47-.5-1.44-1.22-2.52-2.09-3.38-.72.36-1.58.58-2.45.58-3.17,0-5.69-2.59-5.69-5.69,0-1.51.5-2.81,1.44-3.82h-.14c-3.1,0-5.69-2.52-5.69-5.69,0-1.66.79-3.24,1.94-4.25-3.17-.29-5.69-3.02-5.69-6.26,0-2.88,2.02-5.33,4.68-6.05-3.31-.58-5.76-3.46-5.76-6.84,0-3.82,3.1-6.91,6.91-6.91.72,0,1.3.07,1.94.22-2.3-1.15-3.89-3.53-3.89-6.34,0-3.89,3.17-7.13,7.13-7.13,1.3,0,2.52.36,3.6,1.01-.86-1.15-1.3-2.52-1.3-4.03,0-3.82,3.1-6.91,6.91-6.91,1.58,0,3.02.5,4.25,1.44-.07-.14-.07-.29-.07-.43,0-3.67,3.02-6.7,6.7-6.7,1.8,0,3.46.79,4.68,2.02.14.14.36.29.5.5h0Zm0,161.57v16.42c-23.83,21.31-41.33,49.54-49.32,81.43-.86-3.24-1.8-6.48-2.88-9.58.07,1.66.07,3.24-.14,4.75-.36,3.24-1.3,6.34-2.81,9.36-1.73,3.46-4.25,7.06-7.42,10.51-.72.72-1.58,1.58-2.45,2.45v-86.98c5.18-9.07,14.26-19.73,21.96-28.8,3.46-4.03,6.62-7.7,9-10.73,1.22-1.66,2.81-3.67,4.61-5.11,1.87-1.58,4.03-2.52,6.48-2.02,2.45.43,4.32,2.59,4.1,5.11-.22,1.87-1.58,3.31-3.6,3.46-.14,1.8.14,3.31.65,4.75,1.58,4.1,5.4,6.48,9.72,7.06,2.81.36,5.9,0,8.78-.86,1.08-.29,2.23-.72,3.31-1.22h0Zm0,257.47v45.43c-5.62-7.06-10.44-14.11-14.9-21.17-5.69,3.31-11.16,3.96-16.13,3.02-7.85-1.51-14.4-7.06-18.5-11.88-1.51-1.87-2.95-3.38-4.39-4.75-1.73-1.73-3.6-3.31-5.47-4.97,5.83-1.08,11.59-1.8,17.5-1.08-1.15-.94-2.16-2.02-3.02-3.17-.79-1.15-1.51-2.38-2.09-3.67-5.04-.86-9.86-2.81-14.11-5.54-.36.29-.72.43-1.08.5-.94.22-1.94.07-2.81-.43v-4.82c.07,0,.22-.07.29-.07,1.51-.36,3.38.36,4.18,1.8.29.58.43,1.3.22,1.87,3.89,2.45,8.21,4.25,12.67,5.11-.29-.79-.5-1.58-.79-2.38-.94-3.46-2.38-6.91-4.18-10.22-1.8-3.24-3.96-6.26-6.34-8.93-2.09-1.3-4.1-2.74-6.05-4.18v-46.66c.94,1.51,1.73,3.1,2.52,4.82,0-.43.07-.86.14-1.44h0c.07-1.01.07-2.02.14-3.02,0-1.08,0-2.16-.07-3.24-1.15-.43-2.02-1.3-2.45-2.23-.14-.5-.29-1.01-.29-1.51h0v-47.38c.07-.14.07-.29.14-.43,1.37-3.74,2.66-7.42,3.89-11.16,3.02,2.74,5.18,5.69,6.7,9.5.22.43.36.94.5,1.44-.14,3.38-.29,6.84-.29,10.22,0,2.88.07,5.76.22,8.57-1.44,5.11-3.74,10.87-5.98,16.42-1.3,3.31-2.59,6.48-3.6,9.43-.14.29-.22.58-.29.79.65-.5,1.58-.79,2.74-.79,1.8.07,2.88,1.08,3.31,2.3.36.94.29,2.02-.07,2.95-.5,1.15-1.58,2.09-3.1,2.09v3.02c0,1.01-.07,2.02-.07,3.02.22.43.5.94.79,1.44.58,1.15,1.22,2.3,1.87,3.46.72-4.97,1.73-9.14,3.02-12.67,1.22-3.24,2.66-5.9,4.32-7.92,1.8,8.78,4.32,17.35,7.49,25.63.65,5.33.94,10.8.72,16.56-.14,3.96-.58,7.42-1.3,10.15-.79,2.74-1.87,4.82-3.38,6.05.5,1.87.65,3.74.5,5.62,2.38.79,4.61,1.73,6.7,2.81,2.95,1.58,5.62,3.46,8.06,5.62.29-2.52.29-5.26-.14-7.78-.65-.07-1.3-.36-1.8-.86-1.15-1.15-1.3-3.02-.36-4.39,1.01-1.37,2.81-1.44,4.03-.29,1.15,1.15,1.3,3.1.36,4.39-.22.36-.5.58-.86.79.58,3.02.5,6.26,0,9.29,3.6,3.53,6.48,7.56,9.14,11.81.58.86,1.08,1.73,1.51,2.52-1.01-7.06-1.37-14.69-1.15-22.61,6.34,8.42,13.54,16.2,21.38,23.18ZM41.92,238.39v86.98c-2.95,2.88-6.55,6.12-9.65,8.21,2.09,5.69,3.46,12.6,4.25,20.52.58-2.23,1.15-4.39,1.8-6.55,1.15-3.46,2.38-6.84,3.6-10.22v47.38c-.43.22-1.01.36-1.94.43,0,1.01-.36,1.8-.86,2.38,1.01,1.15,1.94,2.45,2.81,3.82v46.66c-3.17-2.38-6.19-4.97-9.14-7.63-4.9-4.46-9.43-9.36-13.82-14.62-2.3-2.81-5.11-4.82-8.06-6.98-1.08-.86-2.09-1.58-3.02-2.59,5.9-.72,15.98,2.02,21.38,3.89.29.07.5.14.79.22-.22-1.22-.29-2.52-.43-3.82-1.66-.58-3.24-1.37-4.82-2.3-1.44-.86-2.95-1.87-4.39-2.95-1.58.14-3.24-.29-4.61-1.22-1.3-.94-2.23-2.38-2.38-4.03,0-.5,0-.94.14-1.37.29-.72.79-1.44,1.44-1.87.65-.5,1.37-.79,2.23-.86.5,0,1.01.07,1.58.22,1.37.43,2.38,1.66,2.81,3.31.36,1.37.36,3.02-.22,4.82,1.37,1.01,2.74,1.94,4.1,2.74,1.3.79,2.59,1.44,3.96,2.02-.29-2.88-.65-5.76-1.3-8.28-.86-3.46-1.87-6.7-3.17-9.79-1.44-3.67-3.24-6.98-5.26-10.37,1.37.36,2.81.65,4.18,1.08-2.09-3.96-5.04-6.84-7.99-9.79-2.38-2.3-4.68-4.61-6.7-7.42-2.74-4.03-5.18-7.85-6.84-11.66-1.87-4.18-2.66-8.06-2.3-12.6,6.48,2.52,12.17,5.98,17.42,10.44,1.3,1.15,2.59,2.38,3.82,3.6-1.8-3.46-3.82-6.91-5.98-10.15-2.16-3.24-4.54-6.26-7.06-8.78-.43.14-.86.22-1.3.22-1.01,0-1.94-.36-2.59-1.01-.65-.65-1.08-1.51-1.08-2.45s.36-1.8,1.01-2.45c.72-.65,1.58-1.01,2.59-1.01s1.87.36,2.52,1.01c.72.58,1.15,1.51,1.15,2.45s-.43,1.8-1.08,2.45c2.52,2.59,4.82,5.54,6.98,8.78,1.01,1.51,2.02,3.1,2.95,4.68-.79-2.81-1.37-5.62-1.8-8.42-.79-6.12-.58-12.24.36-18.36-4.68-6.12-7.7-12.17-9.5-18.22-2.02-6.34-2.52-12.74-2.38-19.3,4.03,2.52,7.78,5.11,10.94,8.64,1.73,1.94,3.31,4.03,4.54,6.26-.14-1.87-.22-3.74-.22-5.54l-.07-.07c-1.08-2.02-2.16-3.96-3.38-5.62-1.08-1.58-2.23-3.1-3.46-4.46-.07.07-.14.14-.29.14-1.08.36-2.16.29-3.17-.22-.94-.5-1.73-1.37-2.16-2.45-.43-1.08-.36-2.23.07-3.24.43-1.01,1.22-1.8,2.3-2.16,1.08-.36,2.23-.22,3.17.29.94.43,1.8,1.3,2.16,2.38.43,1.15.36,2.3-.07,3.24-.14.5-.43.86-.79,1.22,1.15,1.37,2.3,2.88,3.46,4.46.72,1.08,1.51,2.3,2.23,3.53.07-5.62.58-11.23,1.3-16.85,3.53,3.53,6.26,7.13,8.5,11.52-.72-4.32-.58-8.06.36-11.38,1.15-4.25,3.46-7.49,6.55-10.51-1.01-3.38-.86-6.41-.22-10.37.43-2.88,1.87-6.34,4.03-10.01h0Zm0,216.58v4.82c-.58-.29-1.08-.79-1.37-1.37-.79-1.44-.14-2.95,1.37-3.46Z"/>
    <path class="cls-3" d="m227.6,64.22c.29,4.46.36,9.07.14,13.18-.14,3.6-.5,6.84-1.08,9.36-.29,1.01-.58,1.94-.94,2.74-.79,2.02-1.3,3.46.94,5.69.14.14.36.29.5.43.5.36,1.01.58,1.58.58.5,0,1.08-.29,1.66-.86.22-.14.36-.36.5-.58,1.01-1.3,1.8-3.46,2.3-6.34.5-2.95.79-6.7.72-11.16,0-6.05-.29-13.18-1.37-20.09-1.08-6.91-2.81-13.61-5.76-18.72-.65-1.15-1.44-2.52-2.38-3.46-.86-.79-1.87-1.22-2.95-.79-2.38,1.08-1.87,3.6.14,4.9,2.38,1.51,3.82,6.7,4.68,12.02h0c.86,5.26,1.15,10.73,1.3,13.1Z"/>
    <path class="cls-3" d="m291.32,144.36c-25.13-6.91-50.9-10.44-76.61-10.44-22.1,0-44.28,2.59-66.1,7.7-2.02.5-1.08-.14-2.23-.58-.65-.29-1.3.22-3.02.29-2.23.14-1.8-1.22-.79-2.38.86-.94,1.94-1.22,1.87-1.73-1.51.43-2.16.5-2.66.43-.79-.22-.22-1.66-1.8-1.3-1.22.29-2.88,1.01-2.88.29-.07-.65.86-1.94,1.73-2.16,15.26-4.46,31.03-7.56,47.09-9.22,1.01.5,3.1,2.09,3.24,2.66,0-.5,1.73-2.45,2.66-3.17,7.56-.65,15.26-.94,22.9-.94s15.26.29,22.97.94c.94.79,2.59,2.66,2.59,3.17.14-.5,2.23-2.16,3.17-2.66,19.87,2.09,39.38,6.26,57.89,12.67-3.82-.14-7.78-1.37-11.52-2.38-.36,1.37,7.85,3.53,9.79,3.38.79-.07,4.1.43,6.7,2.02,2.09,1.3,3.38,2.88-.43,3.38-3.82.5-9.14-2.23-10.22-2.66-2.16-.79-6.34-.36-4.32,2.66Z"/>
    <path class="cls-3" d="m205.43,34.99c4.9-1.51,2.23,3.74,1.01,5.47-1.58,2.3-2.59,6.41-3.31,10.66h0c-.86,5.26-1.15,10.73-1.3,13.1-.29,4.46-.36,9.07-.14,13.18.14,3.6.5,6.84,1.08,9.36.29,1.01.58,1.94.94,2.74.79,2.02,1.3,3.46-.94,5.69-.14.14-.36.29-.5.43-.5.36-1.01.58-1.58.58-.5,0-1.08-.29-1.66-.86-.14-.14-.36-.36-.5-.58-1.01-1.3-1.73-3.46-2.3-6.34-.5-2.95-.79-6.7-.72-11.16,0-5.76.14-9.79.86-13.54.79-3.82,2.09-7.42,4.32-12.46.5-1.22.94-3.38,1.44-5.76.58-3.02,1.3-6.41,2.3-8.78.29-.65.65-1.22,1.01-1.73Z"/>
    <path class="cls-3" d="m209.39,45.43c.5,2.09,2.23,3.74,4.39,4.1-2.66.5-4.68,2.81-4.68,5.54,0,2.95,2.3,5.33,5.18,5.62-3.1.22-5.54,2.81-5.54,5.98s2.52,5.83,5.69,5.98c-3.02.14-5.47,2.74-5.47,5.83,0,2.81,2.02,5.18,4.75,5.69-2.3.5-4.03,2.59-4.03,5.04,0,.29,0,.58.07.86-1.15,1.01-2.02,2.45-2.38,4.25-.86.07-1.73.29-2.52.58,1.58-2.16.94-3.74.14-5.9-.29-.79-.65-1.58-.86-2.59-.58-2.38-.94-5.54-1.08-9.07-.14-4.03-.07-8.57.14-13.03.14-2.16.43-6.84,1.08-11.52.5-3.02,2.09-6.12,5.11-7.34Z"/>
    <path class="cls-3" d="m224.65,94.97c-.79-.36-1.66-.58-2.59-.65-.36-1.8-1.22-3.24-2.38-4.25.07-.29.07-.58.07-.86,0-2.45-1.73-4.54-4.03-5.04,2.74-.5,4.75-2.88,4.75-5.69,0-3.1-2.45-5.69-5.47-5.83,3.17-.14,5.69-2.81,5.69-5.98s-2.45-5.76-5.54-5.98c2.88-.29,5.18-2.66,5.18-5.62,0-2.74-2.02-5.04-4.68-5.54,3.1-.58,5.04-3.53,4.46-6.55,2.09,1.37,3.67,2.66,4.18,5.18.22,1.01.43,2.09.58,3.17h0c.86,5.11,1.22,10.58,1.37,12.96.22,4.46.29,9,.14,13.03-.14,3.53-.5,6.7-1.08,9.07-.22,1.01-.58,1.8-.86,2.59-.86,2.16-1.44,3.82.22,5.98Z"/>
    <path class="cls-3" d="m213.92,109.08c-3.53,5.04-7.49,7.49-11.81,7.99-4.32.43-9-1.15-13.97-4.1-.5-.29-.43-1.08.14-1.3,1.58-.43,2.59-1.58,3.02-2.88.29-.72.36-1.51.22-2.3-.14-.79-.43-1.51-.86-2.16h0c-.79-1.08-2.02-1.87-3.74-1.87-2.09,0-3.46,1.08-4.18,2.52-.29.65-.43,1.3-.43,2.02h0c-.07.72.07,1.44.29,2.09.58,1.44,1.87,2.66,3.96,2.81.5,0,.86.72.5,1.15-3.24,4.03-7.34,6.12-11.52,6.7-4.82.65-9.72-.65-13.75-3.24-.5-.36-.22-1.37.5-1.3,3.74.36,6.12-1.22,7.27-3.46.65-1.22.94-2.74.86-4.1-.14-1.44-.58-2.81-1.3-3.89-1.22-1.73-3.38-2.74-6.26-2.02-.29.07-.72-.14-.79-.43-.86-2.3-2.45-3.53-4.25-4.03-.94-.22-1.94-.22-2.95,0-.94.22-1.8.65-2.59,1.3-1.37,1.22-2.23,3.02-2.02,5.47,0,.29-.29.65-.58.72-2.88.58-4.32,2.52-4.68,4.68-.22,1.15-.07,2.45.36,3.67.43,1.15,1.15,2.3,2.09,3.17,1.87,1.66,4.75,2.3,8.21.65.58-.29,1.22.5.86,1.01-3.17,4.18-6.55,6.84-10.51,7.99-3.96,1.22-8.42,1.01-13.9-.65-.43-.07-.58-.65-.36-1.01.5-.79.72-1.66.72-2.52,0-.79-.14-1.58-.58-2.3-.36-.72-.86-1.3-1.58-1.73-.65-.43-1.51-.72-2.52-.72-1.66,0-2.95.72-3.74,1.8-.43.65-.72,1.37-.86,2.16-.07.79-.07,1.58.22,2.38.43,1.22,1.37,2.38,3.02,2.88.36.07.58.65.36,1.01-1.37,2.09-3.1,3.46-4.9,4.32-2.23,1.08-4.61,1.44-6.77,1.37-.58,0-.94-.65-.58-1.08,1.15-1.44,1.8-3.24,1.8-4.97,0-.86-.14-1.66-.43-2.38-.36-.72-.79-1.37-1.37-1.87-.94-.65-2.09-1.08-3.67-1.08h0c-1.22-.07-2.16.22-3.02.72-.86.5-1.66,1.3-2.38,2.23-.29.36-.94.29-1.15-.14-1.15-1.94-2.52-3.17-4.03-3.82-1.51-.65-3.1-.72-4.68-.29-1.58.36-3.1,1.22-4.32,2.45h0c-1.66,1.51-2.88,3.67-3.17,6.05h0c-.07.65-.14,1.3-.14,2.09,0,1.15.14,2.38.58,3.38.43.86,1.08,1.51,2.09,1.66.14,0,.36.07.5.07.65,0,1.22-.22,1.73-.58.43-.29.72-.65.94-1.08.22-.43.36-.94.36-1.44,0-.58-.14-1.15-.5-1.66-.14-.14-.14-.58-.07-.72.86-1.87,2.02-2.95,3.38-3.38,1.22-.43,2.66-.36,4.03.22,1.08.36,2.16,1.08,3.1,1.87,1.58,1.3,2.45,3.53,4.54,1.58h0c.65-.58,1.15-1.3,1.44-2.09.43-.94,1.73-.43,1.3.5-.36,1.01-1.01,1.87-1.73,2.59h0c-2.81,2.23-.58,2.23-.58,5.83,0,.43.07.79.22,1.15.86,2.23,4.54,3.02,6.62,2.16,30.67-12.31,64.73-18.5,98.78-18.5s68.04,6.19,98.71,18.5c2.02.86,5.76.07,6.62-2.16,2.59-5.33-8.78-4.61-12.6-7.2-1.8-.86-3.53-2.23-4.9-4.32-.22-.36-.07-.94.36-1.01,1.66-.5,2.59-1.66,3.02-2.88.22-.79.29-1.58.22-2.38-.14-.79-.43-1.51-.94-2.16-.72-1.08-2.02-1.8-3.67-1.8-1.01,0-1.87.29-2.59.72-.65.43-1.15,1.01-1.58,1.73-.36.72-.58,1.51-.58,2.3,0,.86.29,1.73.79,2.52.22.36,0,.94-.43,1.01-5.4,1.66-9.94,1.87-13.9.65-3.96-1.15-7.34-3.82-10.51-8.06-.36-.5.29-1.3.94-1.01,3.38,1.73,6.26,1.08,8.14-.5,1.01-.86,1.73-1.94,2.16-3.17.5-1.22.65-2.52.43-3.67-.29-2.16-1.8-4.1-4.68-4.75-.29-.07-.58-.43-.58-.72.22-2.45-.65-4.25-2.02-5.47-.79-.65-1.66-1.08-2.59-1.3-1.01-.22-2.02-.22-2.95,0-1.8.5-3.38,1.73-4.25,4.03-.07.29-.5.5-.79.43-2.95-.72-5.11.36-6.34,2.09-.72,1.08-1.15,2.45-1.22,3.82-.07,1.37.14,2.74.79,3.96,1.08,2.23,3.46,3.89,7.27,3.6.65-.07,1.01.94.43,1.3-3.96,2.59-8.86,3.89-13.68,3.24-4.18-.58-8.28-2.66-11.52-6.7-.36-.43-.07-1.15.5-1.15,2.09-.14,3.38-1.37,3.96-2.81.22-.65.29-1.37.29-2.09s-.22-1.37-.5-2.02c-.65-1.44-2.02-2.52-4.1-2.52-1.73,0-3.02.79-3.74,1.87-.5.65-.79,1.37-.86,2.16-.14.79-.07,1.58.14,2.3.43,1.3,1.44,2.45,3.1,2.88.58.22.65,1.01.14,1.3-5.04,3.02-9.72,4.54-14.04,4.03-4.32-.43-8.28-2.95-11.81-8.06-.43-.58.43-1.44,1.01-1.01.86.79,2.23,1.15,3.74,1.15,1.15,0,2.38-.22,3.46-.72h0c1.08-.43,2.09-1.08,2.81-2.02.86-1.01,1.37-2.38,1.37-4.1s-.72-3.46-1.87-4.68c-1.15-1.15-2.66-1.87-4.46-1.8-.29,0-.65-.36-.65-.65-.22-1.51-.79-2.66-1.58-3.53-.86,1.58-2.45,2.66-4.39,2.74,1.37,5.62,1.3,5.18,7.27,6.55-2.81-.07-5.47.07-7.34,2.23-1.87-2.16-4.54-2.3-7.34-2.23,5.98-1.37,5.9-.94,7.27-6.55-1.94-.07-3.53-1.15-4.39-2.74-.79.86-1.37,2.02-1.58,3.53,0,.29-.36.65-.65.65-1.66-.07-3.31.58-4.54,1.58-1.08.94-1.73,2.23-1.66,3.67,0,1.01.5,1.87,1.22,2.59.36.29.79.58,1.22.72.43.22.86.29,1.3.22.58,0,1.22-.22,1.73-.79.43-.5,1.37,0,1.15.65-.14.86-.07,1.66.22,2.3.22.58.65,1.08,1.08,1.44h0c.5.29,1.01.5,1.58.5.5,0,1.08-.14,1.58-.58.58-.43,1.37.43,1.01,1.01Z"/>
    <path class="cls-3" d="m214.72,39.96c-2.23,0-4.1,1.87-4.1,4.1s1.87,4.18,4.1,4.18,4.1-1.87,4.1-4.18-1.87-4.1-4.1-4.1Z"/>
    <path class="cls-3" d="m180.73,549.29c-1.44,2.95-3.53,4.32-6.91,3.96-3.67-.43-6.55-2.09-8.35-4.39-.94-1.15-1.58-2.45-1.94-3.82-.36-1.37-.5-2.81-.36-4.25.36-3.1,2.02-6.19,5.04-8.57,3.31-2.66,9.94-4.82,15.91-6.84,2.38-.79,4.68-1.51,6.55-2.23,2.81-1.08,4.18-3.17,4.39-5.11.14-1.3-.29-2.74-1.44-3.53-1.01-.65-2.52-.65-4.46.5-4.18,2.45-8.06,3.96-12.1,5.47-2.09.86-4.32,1.66-6.55,2.66-5.11,2.3-9.36,6.05-12.02,10.44-3.24,5.33-4.54,11.88-1.94,17.64,1.44,3.17,3.89,6.05,7.7,8.35,4.03,2.52,8.93,3.02,13.18,1.94,3.46-.94,6.84-2.95,8.71-6.05,2.16-3.46,2.3-9.29-.65-12.38-2.3-2.38-6.55-2.23-7.92,1.01-.58,1.3-.29,2.74.65,3.74.72.72,1.66,1.08,2.52,1.44Z"/>
    <path class="cls-3" d="m230.99,513.43c2.16,2.38,3.53,4.97,5.98,7.27,1.01,1.01,1.94,1.8,2.88,2.52,1.66,1.15,3.53,1.66,5.4,2.3,6.05,1.94,12.74,4.1,15.98,6.7,3.02,2.38,4.68,5.47,5.04,8.57.29,2.88-.5,5.76-2.3,8.06-1.8,2.3-4.68,3.96-8.35,4.39-3.38.36-5.47-1.01-6.91-3.96.86-.36,1.8-.72,2.52-1.44.94-1.01,1.22-2.45.65-3.74-1.37-3.24-5.62-3.38-7.92-1.01-2.95,3.1-2.81,8.93-.65,12.38,1.87,3.1,5.26,5.11,8.71,6.05,4.25,1.08,9.14.58,13.18-1.94,3.82-2.3,6.26-5.18,7.7-8.35,2.59-5.76,1.3-12.31-1.94-17.64-2.66-4.39-6.91-8.14-12.02-10.44-2.23-1.01-4.46-1.8-6.55-2.66-4.03-1.51-7.92-3.02-12.1-5.47-2.74-1.58-6.05-1.66-9.29-1.58Z"/>
    <path class="cls-2" d="m214.72,508.82c89.14,0,161.86-72.72,161.86-161.93s-72.72-161.78-161.86-161.78S52.86,257.83,52.86,346.9s72.72,161.93,161.86,161.93Z"/>
    <path class="cls-3" d="m229.12,517.18c1.73,1.08,3.38,2.38,4.82,3.82,4.9,4.82,7.99,11.59,7.99,19.01,0,1.3-.07,2.66-.29,3.96.36-.72.79-1.37,1.3-1.87.94-.94,2.02-1.51,3.1-1.8,1.15-.29,2.23-.29,3.31-.07.94.29,1.8.79,2.52,1.44.58.58,1.01,1.22,1.3,1.94.36.79.5,1.73.36,2.66-.14.94-.58,1.8-1.3,2.59-.43.36-.94.79-1.58,1.15.43.65,1.01,1.08,1.58,1.37.94.5,2.02.58,3.17.5,3.31-.43,5.83-1.87,7.49-3.89.79-1.01,1.37-2.09,1.66-3.31.36-1.22.43-2.45.29-3.74-.29-2.74-1.73-5.47-4.46-7.63-3.02-2.45-9.65-4.54-15.55-6.48-.86-.29-1.66-.5-2.09-.65-1.51-.5-2.59-1.08-3.67-1.8-1.01-.72-1.94-1.58-3.1-2.66-1.15-1.15-2.23-2.3-3.31-3.53l-.07-.07c-.79-.22-1.66-.43-2.45-.65-.36-.07-.65-.22-1.01-.29Z"/>
    <path class="cls-3" d="m252.16,210.67c59.83,16.49,103.97,71.42,103.97,136.22s-44.14,119.88-103.97,136.37v-15.55c51.48-16.06,88.99-64.15,88.99-120.82,0-47.38-26.35-88.7-65.09-110.38v38.81c20.16,17.28,33.05,42.98,33.05,71.57,0,38.74-23.47,72.07-56.95,86.69v-16.63c24.91-13.46,41.98-39.82,41.98-70.06,0-19.08-6.77-36.58-18.07-50.33v40.39h-15.26v-54.58c-2.74-1.94-5.62-3.74-8.64-5.4v-16.63c2.95,1.3,5.83,2.74,8.64,4.32v-35.35c-2.81-1.15-5.69-2.16-8.64-3.1v-15.55Zm-20.81-4.1c7.13.86,14.04,2.23,20.81,4.1v15.55c-2.81-.86-5.69-1.66-8.64-2.38v33.26c2.95.94,5.83,2.02,8.64,3.24v16.63c-2.81-1.51-5.69-2.81-8.64-4.03v117.43h-12.17v-183.82h0Zm20.81,276.7c-6.77,1.87-13.68,3.24-20.81,4.1v-15.12c7.13-.94,14.11-2.45,20.81-4.54v15.55h0Zm0-49.68c-6.55,2.81-13.54,4.97-20.81,6.26v-15.26c7.34-1.58,14.33-4.18,20.81-7.63v16.63Zm-23.9-227.38c1.01.14,2.09.22,3.1.36v183.82h-3.1v-121.68c-4.39-.72-8.93-1.15-13.54-1.15s-9.14.43-13.54,1.15v67.9h-15.26v-63.65c-6.19,2.45-11.95,5.62-17.28,9.43v129.17c13.03,9.29,28.94,14.83,46.08,14.83,5.69,0,11.23-.65,16.63-1.8v15.26c-5.4,1.01-11.02,1.51-16.63,1.51-46.3,0-84.96-33.7-92.88-77.76l14.62-3.1c2.45,13.82,8.42,26.35,16.92,36.79v-100.73c-4.54,5.47-8.28,11.59-11.23,18.14l-13.39-6.7c10.94-24.05,31.75-42.7,57.17-50.9v-33.26c-55.8,13.18-97.63,63.36-97.63,123.05,0,67.1,52.7,122.26,118.87,126.22v15.05c-74.38-4.03-133.85-65.88-133.85-141.26s56.3-133.78,127.87-140.69v47.38c4.39-.65,8.93-1.01,13.54-1.01s9.14.36,13.54,1.01v-47.38h0Zm3.1,281.16v-15.12c-3.02.43-5.98.72-9.07.86v15.05c3.1-.22,6.05-.43,9.07-.79Z"/>
    <path class="cls-3" d="m214.86,525.38c-1.44,2.52-2.95,5.11-4.61,7.78-1.3,2.16-2.66,4.32-4.1,6.48-.43.72-.58,1.22.14,1.66,1.01.58,2.38.65,3.46.72,6.19.58,12.1,3.6,17.28,6.98,1.44.86,4.03,3.02,5.47,3.17.72.14,1.37-.22,2.23-1.22h-.07c.79-1.15,1.8-2.23,2.45-3.46,1.73-3.1-.72-5.62-3.31-7.06-5.9-3.31-12.24-5.83-18.72-7.63-.94-.29-.58-1.66.36-1.37,5.83,1.66,11.52,3.82,16.85,6.55,3.1,1.58,5.04-1.66,5.62-4.18.79-3.74-1.15-7.13-4.9-8.28-4.82-1.51-9.72-2.88-14.69-3.67-3.53-.65-1.8.65-3.46,3.53Z"/>
    <path class="cls-3" d="m232.93,521.93c-4.39-4.32-10.3-7.06-16.85-7.42q-.07,0-.07.07c-.58.36-.65,1.37-.58,2.16.07,1.08.43,3.31,1.58,3.46,4.75.65,9.43,1.87,14.04,3.24.65.22,1.37.22,1.8-.43.14-.22.29-.86.07-1.08Z"/>
    <path class="cls-3" d="m213.13,565.42c.5.07,1.08.07,1.58.07h.58c.22-1.08.29-2.16.36-3.24,0-1.01,1.37-.94,1.37.07s-.07,2.09-.29,3.1c.94-.07,1.87-.22,2.81-.36.07-1.22.07-2.45-.07-3.67-.07-1.01,1.3-1.15,1.44-.14.07,1.15.07,2.3.07,3.46.79-.22,1.66-.43,2.45-.72,0-1.3-.07-2.66-.36-3.96-.22-.94,1.22-1.22,1.37-.22.29,1.15.36,2.38.43,3.6.79-.36,1.66-.72,2.38-1.15.07-1.22.22-2.3-.14-3.46-.22-1.01,1.15-1.37,1.37-.36.29,1.08.29,2.09.29,2.95.72-.5,1.3-1.44,1.15-2.3-.07-.22-.14-.43-.22-.72-.43-.94.86-1.51,1.22-.58q.07.07.07.14c.29-.72.5-1.44.43-2.16-.07-2.45-2.88-4.46-4.97-5.33-6.05-2.59-8.64,2.16-13.32,4.18-3.89,1.66-8.42,2.66-12.6,2.52.58,1.3,1.51,2.45,2.66,3.46l.43-.58c.58-.86,1.73,0,1.15.79l-.5.65c.36.29.65.5,1.01.72.29-.29.43-.72.5-1.15.22-.94,1.58-.65,1.37.29-.07.58-.29,1.15-.65,1.66.5.29,1.01.58,1.58.79.29-.58.5-1.15.58-1.8.14-1.01,1.58-.79,1.37.22-.07.79-.36,1.51-.65,2.16.79.36,1.58.65,2.3.86.29-.86.43-1.66.36-2.45-.07-1.01,1.37-1.08,1.44-.14,0,.94-.07,1.87-.36,2.81Z"/>
    <path class="cls-3" d="m200.68,555.7c1.87.07,3.74-.14,5.26-.43,3.53-.58,10.01-2.45,11.88-5.9.79-1.37.22-3.67-1.3-4.25-3.46-1.37-8.14-2.3-11.95-1.87-1.37.14-2.59.65-3.89.86v11.59h0Zm0-13.03c1.3-.29,2.52-1.08,3.31-2.3,1.8-2.66,3.46-5.33,5.04-7.92,1.58-2.59,3.17-5.18,4.68-7.78,1.51-2.74,1.73-6.62-1.15-8.42-.14-.07-.22-.14-.36-.14h0c-1.01-.5-4.32-.5-3.74,1.37.36,1.3,1.87,2.02,2.16,3.53.14.94-.07,1.87-.72,3.38-1.73,3.74-3.82,7.34-6.05,10.8-.58.86-1.73.07-1.15-.79,2.23-3.38,4.25-6.84,5.9-10.58.5-1.22.72-1.94.58-2.52-.14-.86-1.22-2.09-1.94-2.66-1.94-1.37-4.39-.86-6.55.29v7.78c.5-.86,1.01-1.66,1.51-2.45.5-.86,1.73-.14,1.15.72-.65,1.08-1.3,2.16-1.94,3.24-.29.36-.5.65-.72,1.01v13.46Zm-4.18-20.66c-4.68,4.61-7.56,10.94-7.56,18,0,4.32,1.08,8.42,3.02,11.95,1.73,2.81,5.26,3.67,8.71,3.74v-11.59c-.43.07-.86.14-1.3.14-2.3.14-4.68-.79-6.34-2.38-.72-.72.22-1.73.94-1.01,1.44,1.37,3.46,2.09,5.33,2.02.5,0,.94-.07,1.37-.22v-13.46c-.5.72-1.01,1.44-1.51,2.16-.65.86-1.8,0-1.15-.79.72-1.08,1.51-2.09,2.16-3.17.14-.22.36-.5.5-.72v-7.78c-1.66.86-3.17,2.09-4.18,3.1Z"/>
    <path class="cls-3" d="m187.79,543.96c-.22-1.3-.29-2.66-.29-3.96,0-6.34,2.23-12.17,5.98-16.78-.65.5-1.44.94-2.3,1.22-1.94.72-4.25,1.51-6.62,2.3-5.83,1.94-12.38,4.1-15.48,6.55-2.74,2.16-4.18,4.9-4.46,7.63-.14,1.3-.07,2.52.29,3.74.29,1.22.86,2.3,1.66,3.31,2.52,3.17,8.06,4.75,10.08.14-.36-.58-.58-1.22-.72-1.87-.14-.94,0-1.87.36-2.66.29-.72.72-1.37,1.3-1.94.72-.65,1.58-1.15,2.52-1.44,1.08-.22,2.16-.22,3.31.07,1.08.29,2.16.86,3.1,1.8.5.5.94,1.15,1.3,1.87Z"/>
    <path class="cls-3" d="m214.72,513.07c5.69,0,11.52,1.87,16.99,3.38-1.8-2.81-7.78-7.85-11.3-7.7-1.87,0-3.82.07-5.69.07-1.73,0-3.53,0-5.26-.07-2.59-.07-4.61,3.17-2.02,5.33,2.3-.65,4.75-1.01,7.27-1.01Z"/>
    <path class="cls-3" d="m154.02,541.58c.43-2.95,1.58-5.98,3.24-8.71,2.88-4.61,7.27-8.57,12.67-11.02,2.3-1.01,4.54-1.8,6.7-2.66,3.96-1.51,7.78-3.02,11.88-5.4.29-.14.58-.29.86-.43.43-.94.5-1.8.22-2.66-1.51.07-2.74.22-3.74.36-2.38.29-3.31.22-3.53-2.38-.07-.58-.07-1.3-.14-2.23-1.01.43-1.94.79-2.66,1.15-.94.5-1.73,1.01-2.38,1.51-.14.14-.5.14-.72.07-2.16-.94-4.54-1.8-6.91-2.23-2.3-.5-4.68-.65-6.98-.36-.58.14-1.01-.58-.65-1.08.5-.79,1.08-1.58,1.73-2.38.22-.29.43-.58.72-.86-.43.07-.86.14-1.3.29-1.08.22-2.02.5-3.02.86-.58.14-1.08-.5-.79-1.01l1.51-2.74c-1.3.07-2.59.29-3.82.58-1.58.29-3.24.79-4.82,1.44-.5.22-1.15-.43-.86-.94l1.8-4.18c-.07-.07-.14-.07-.14-.07-1.94.36-3.89.79-5.83,1.22-.5.07-.94-.43-.79-.94l.86-2.81c-.22-.14-.43-.22-.65-.36-1.87,1.22-3.6,2.02-5.18,2.45-1.44.29-2.81.29-3.89-.22-1.15-.5-2.02-1.51-2.52-3.02-.43-1.3-.58-3.1-.36-5.4-.07,0-.14-.07-.22-.07l-2.16,1.8c-.43.36-1.15,0-1.15-.5l-.22-3.38c-.14-.14-.29-.22-.43-.29-.43.36-.94.79-1.44,1.22-.14.14-.29.22-.36.29-.36.36-1.08.07-1.15-.43-.07-.94-.07-1.8,0-2.59-.72.5-1.44.94-2.3,1.22-.43.14-.94-.14-.94-.58-.07-1.08-.14-2.16-.07-3.17-.22-.22-.5-.36-.72-.5-.86.43-1.73.72-2.59.72-1.01.07-2.02-.14-2.88-.65-.86-.5-1.58-1.15-2.09-2.09-.65-1.15-1.01-2.52-.79-4.18-3.38-2.66-6.62-5.4-9.79-8.28-.14.79-.36,1.51-.65,2.3-1.01,3.31-2.45,6.05-4.32,8.93-1.58,2.3-2.88,4.54-3.89,7.13-.86,2.09-2.45,5.76-1.66,7.99.65,1.94,3.02,2.02,4.54,1.15.65-1.73,1.37-3.38,2.02-5.04.86-1.94,1.66-3.74,2.45-5.4.43-.94,1.66-.29,1.22.58-.79,1.73-1.58,3.53-2.38,5.33-.72,1.87-1.51,3.74-2.23,5.54-.36,1.01-.22,3.1.29,4.03.43,1.01,1.3,1.44,2.38,1.22,1.22-.29,2.23-1.01,2.66-2.09.58-1.51,1.15-2.95,1.8-4.32h0c.58-1.51,1.22-3.02,1.94-4.61.36-.94,1.66-.36,1.3.58-.65,1.44-1.3,2.95-1.94,4.54h0c-.65,1.58-1.3,3.17-1.94,4.75-.58,1.3-.79,2.95-.5,4.39.22,1.15.86,2.16,1.87,2.88,1.15.72,2.81-.65,3.17-1.66.36-1.01.65-2.02,1.01-3.02l.72-2.16c.36-.94,1.73-.5,1.37.43l-.79,2.23c-.29.94-.65,1.94-1.01,2.95-.5,1.51-.65,3.1-.43,4.61.29,1.37.86,2.74,1.87,3.82.72.86,1.37,1.66,2.45,1.15.72-.29,1.37-.94,1.58-1.58.86-2.38,1.73-4.9,2.52-7.34.5-1.44.94-2.81,1.3-3.67.29-.94,1.66-.5,1.3.43-.5,1.51-.86,2.59-1.22,3.67-.86,2.45-1.66,4.82-2.52,7.34-.58,1.58-.58,3.02-.22,3.96.43,1.08,1.3,1.58,2.38,1.51,1.44-.14,2.88-1.3,3.02-2.74.14-1.37.36-3.02.72-4.82.43-2.16,1.01-4.61,1.66-7.27.29-.94,1.66-.58,1.37.36-.65,2.59-1.22,5.04-1.66,7.2-.36,2.02-.65,3.82-.72,5.33-.07,1.08.07,1.8.43,2.16.36.5.94.58,1.51.36,1.15-.36,1.8-1.51,2.38-2.59.86-1.66,1.58-3.53,2.16-5.54.65-2.45,1.22-5.04,1.66-7.99.14-.94,1.51-.72,1.37.22-.43,3.02-1.01,5.69-1.66,8.14-.65,2.16-1.37,4.1-2.3,5.83-1.08,2.09-.65,6.48,2.52,3.96,2.09-1.58,4.39-5.69,5.76-8.14.36-.72.72-1.3.94-1.58.5-.86,1.73-.14,1.15.72-.22.36-.5.86-.86,1.58-1.22,2.09-3.02,5.4-5.11,7.49-1.3,1.44-3.31,3.89-2.88,5.9.22,1.01,1.01,1.58,2.02,1.58,1.87.07,3.24-1.73,4.18-3.17,1.3-2.16,2.74-4.1,4.18-6.05,1.58-2.09,3.17-4.1,4.75-6.05.65-.72,1.73.14,1.08.94-1.66,1.94-3.24,3.96-4.68,5.98-1.44,1.8-2.81,3.74-4.1,5.83-.86,1.3-2.3,2.45-2.74,3.89-.43,1.3-.36,2.3,0,3.02.29.65.94,1.01,1.66.94,1.22-.14,2.38-1.3,3.02-2.23,2.02-2.88,4.1-5.62,6.34-8.35,2.16-2.66,4.54-5.26,6.91-7.78.72-.72,1.73.29,1.01,1.01-2.38,2.45-4.68,5.04-6.84,7.7-2.23,2.59-4.25,5.4-6.26,8.21-.58.94-1.3,1.58-1.94,2.02-.86,2.02-.58,4.32.29,5.76.36.43.72.79,1.08,1.08,2.09,1.08,3.74-2.66,4.25-3.96,1.3-3.17,3.02-5.9,5.04-8.28,2.09-2.3,4.46-4.32,7.06-6.12.29-.22.58-.43,1.01.14.36.58.07.79-.22,1.01-2.45,1.73-4.82,3.67-6.77,5.9-1.94,2.3-3.6,4.82-4.75,7.85-.72,1.87-2.59,3.67-.65,5.54.36.36.86.65,1.37.79.5.22,1.08.22,1.66.14,1.15-.14,2.3-1.01,3.02-2.88Z"/>
    <path class="cls-3" d="m246.83,516.74c2.02.94,4.03,1.66,6.05,2.45,2.16.86,4.32,1.66,6.62,2.66,5.4,2.45,9.79,6.41,12.67,11.02,1.8,2.95,2.95,6.19,3.38,9.36.29,2.52.07,5.04-.58,7.49.79.79,2.16.22,3.02-.36,1.66-1.15,2.95-3.82,3.67-6.62.86-3.31,1.01-6.91.29-8.93-1.94-5.11-4.97-9.22-8.93-12.24-3.96-3.1-8.86-5.26-14.54-6.62-1.01-.22-.65-1.58.29-1.37,5.9,1.37,11.02,3.6,15.12,6.84,4.18,3.24,7.34,7.49,9.36,12.89.36.94.5,2.23.58,3.6,0,.79.43,1.51,1.22,1.94,1.44.94,2.23-1.3,2.45-2.38.86-4.75-.5-9.22-3.02-12.89-3.24-4.9-8.57-8.57-13.46-10.22-1.01-.29-.5-1.66.43-1.3,5.18,1.73,10.73,5.62,14.26,10.73,2.81,4.25,4.32,9.36,2.95,14.83-.22.86-.29,1.44.22,2.3.22.5.72.94,1.3.79,2.59-.5,3.1-5.11,3.31-7.06.29-2.02.43-4.1.43-6.26-.07-2.74-.43-5.47-1.73-7.7-1.87-3.53-7.56-6.26-12.1-8.57-1.37-.65-2.66-1.3-3.74-1.94-.86-.43-.22-1.73.65-1.22,1.08.65,2.38,1.22,3.74,1.94,4.68,2.3,10.58,5.26,12.74,9.14,1.37,2.45,1.8,5.4,1.87,8.35,0,2.16-.22,4.39-.5,6.48-.14,1.66,1.15,2.38,2.45,1.3,2.09-1.73,3.46-5.04,4.03-8.5.58-3.82.29-7.85-1.01-10.15-1.51-2.81-3.67-5.11-6.34-7.06-2.66-1.87-5.83-3.46-9.29-4.82-.94-.36-.43-1.66.5-1.3,3.53,1.37,6.84,3.02,9.58,5.04,2.88,2.02,5.18,4.46,6.84,7.49,1.01,1.87,1.51,4.82,1.37,7.85,0,.79-.29,1.22.5,1.8.86.65,1.87,1.01,2.81.14.5-.5.94-1.3,1.3-2.16.79-2.3,1.01-5.4.72-7.56-.72-5.98-6.26-10.51-12.74-13.82-6.05-3.02-12.6-4.9-17.57-6.19h-.07c.29.86.07,1.66.07,2.59-.07.43-.58.79-1.01.58-1.08-.5-1.94-1.01-2.81-1.51.43.94.72,1.94.94,3.17.07.5-.36.94-.86.79-1.44-.29-2.88-.72-4.25-1.15h0c-.29-.07-1.15-.65-1.44-.72.79.79,2.16,2.02,3.17,2.95.43.43-.14,1.37-.72,1.15-2.3-.79-4.03-1.73-6.05-2.81.79,1.51,1.94,3.17,3.02,4.54.36.58-.43,1.44-1.01,1.01-2.09-1.37-4.1-2.88-6.05-4.46-.29.07-.58.22-.86.29.43,1.15.94,2.3,1.44,3.38.29.65-.72,1.3-1.15.79-.94-1.15-1.87-2.3-2.66-3.53-1.37.36-2.74.72-4.1,1.08,1.3,1.37,2.66,2.66,4.03,3.89.79.65-.14,1.73-.94,1.08-1.66-1.44-3.17-2.95-4.61-4.61-1.08.29-2.16.5-3.17.72l3.82,4.18c.65.72-.36,1.66-1.08.94l-4.39-4.75c-1.44.29-2.95.58-4.46.86.58.43,1.15.94,1.8,1.37,1.44,1.08,2.88,2.09,4.46,3.1.86.5.07,1.73-.79,1.22-1.58-1.01-3.1-2.09-4.54-3.17-.94-.72-1.87-1.44-2.74-2.23-1.08.22-2.23.36-3.31.5.94,1.73,1.94,3.24,3.17,4.61,1.58,1.8,3.31,3.31,5.33,4.54.22.14.43.29.65.43Z"/>
    <path class="cls-3" d="m288.01,497.38c2.74,1.01,5.54,2.16,8.21,3.53,6.84,3.46,12.67,8.35,13.54,14.9.07.94.14,2.02.07,3.17,1.08.86,1.37,1.22,2.59.07,1.66-1.66,3.1-4.54,2.59-6.98-.65-2.88-1.8-5.62-3.89-8.06-2.09-2.38-5.04-4.54-9.07-6.34-2.02-.94-4.03-2.23-5.98-3.53-1.08-.72-2.16-1.37-3.24-2.16-1.08-.79-1.8-1.3-3.24-1.3-.72,0-1.01.22-.86.94.22.72.86,1.58,1.22,2.3-.94,0-1.66-.07-2.59-.36-1.15-.29-2.3-.65-2.52.07-.5,1.15,2.02,3.38,3.17,3.74Z"/>
    <path class="cls-3" d="m319.98,478.08c1.73,1.37,3.31,3.17,4.75,5.11,1.73,2.38,3.24,4.82,4.1,6.77.22.43.43.94.65,1.51,1.58.43,1.44.14,1.44-1.3,0-.22,0-.5.07-.79.07-1.8-.14-4.18-.65-6.48-.58-2.45-1.44-4.82-2.74-6.7-1.22-1.73-2.88-2.88-4.97-3.02-.58,0-1.15.07-1.8.22-.79.14-1.51.58-1.8,1.37-.43,1.01.14,2.66.94,3.31Z"/>
    <path class="cls-3" d="m315.52,485.14c3.1,3.24,6.26,6.55,9,10.58.79,1.22,1.66,2.95,2.02,4.68.94.36,2.16.72,2.66-.43.22-.58.29-1.37.29-2.23-.14-2.45-1.15-5.47-1.94-7.13-.86-1.94-2.23-4.32-3.96-6.55-1.3-1.87-2.88-3.6-4.46-4.82-.94-.79-2.09-1.22-3.17-1.15-.94.14-1.87.58-2.66,1.58-.43.5-.65,1.08-.58,1.66.07,1.37,1.94,2.95,2.81,3.82Z"/>
    <path class="cls-3" d="m309.25,490.32c1.22,1.15,2.45,2.3,3.74,3.38,2.23,1.94,4.18,4.03,5.69,6.55.79,1.44,1.44,2.95,1.87,4.68.14.72.29,1.37,1.37,1.51,2.23.14,3.53-2.45,3.46-4.39-.07-1.94-1.08-4.1-2.09-5.54-2.66-3.96-5.76-7.2-8.78-10.37-.65-.72-1.37-1.37-1.66-1.73h0c-.65-.72-1.66-1.37-2.66-1.58-.72-.14-1.44-.07-2.09.5-.72.65-1.8,1.3-1.87,2.45-.29,2.3,1.44,3.1,3.02,4.54Z"/>
    <path class="cls-3" d="m302.63,496.37c4.25,1.87,7.34,4.18,9.58,6.77,2.23,2.59,3.53,5.54,4.18,8.64.07.43.14.94.14,1.37h.58c.65,0,1.15-.22,1.58-.5.43-.36.72-.86.94-1.58.07-.5.14-1.01.14-1.66-.14-3.31-1.01-6.12-2.3-8.42-1.37-2.38-3.24-4.39-5.4-6.19-1.3-1.08-2.52-2.3-3.82-3.46-1.22-1.15-2.45-2.38-3.82-3.53-1.08-.86-2.59-1.73-3.82-1.94-.5-.07-1.3-.22-1.51.43-.22.79.29,2.16.43,3.02-1.22-.29-4.18-2.02-3.74.58.5,3.24,4.18,5.26,6.84,6.48Z"/>
    <path class="cls-3" d="m58.33,305.14c-4.03-14.11-9.86-26.71-15.55-39.17-1.58-3.38-3.24-6.7-1.8-10.51.72-1.87,2.3-1.73,3.89-1.15,2.23,3.38,4.39,7.06,6.41,10.94,2.09,4.03,4.03,8.28,5.69,12.67.36.94,1.66.43,1.3-.5-1.66-4.46-3.67-8.78-5.76-12.82-2.09-4.03-4.32-7.78-6.62-11.23-1.37-2.16-1.94-4.46-1.22-6.98.36-1.3,1.22-2.52,2.66-2.74.29.58.65,1.15,1.01,1.66,2.3,2.95,4.39,5.98,6.48,9,2.02,3.1,3.96,6.19,5.76,9.43.5.86,1.8.22,1.22-.72-1.8-3.24-3.74-6.41-5.83-9.5-2.09-3.1-4.25-6.12-6.48-9.07-.86-1.15-1.51-2.45-1.58-3.82-.14-2.81,3.1-6.62,5.26-3.6,2.66,3.74,5.33,7.7,7.92,11.66,2.81,4.32,5.54,8.71,8.21,13.25.5.86,1.73.14,1.22-.72-2.74-4.54-5.47-9-8.28-13.25-2.74-4.25-5.47-8.35-8.28-12.24-.5-.72-.86-1.44-.79-2.45h0c0-.58.14-1.08.43-1.51.86-1.22,2.66-1.51,3.6-.36,3.02,3.6,5.62,7.2,8.14,10.8,2.59,3.74,5.04,7.63,7.63,11.59.5.86,1.73.07,1.15-.72-2.59-4.03-5.04-7.85-7.63-11.66-2.66-3.89-5.47-7.63-8.64-11.45-.79-1.01-.58-2.38-.14-3.38.22-.29.43-.58.58-.79,1.37-1.51,2.59-1.66,3.82-.22,4.75,4.9,10.08,10.51,15.05,18.72.5.86,1.73.14,1.15-.72-5.04-8.35-10.44-13.97-15.19-19.01-1.01-1.01-1.94-1.66-1.73-3.24.14-1.15.72-2.09,1.51-2.81,1.58-1.3,2.3-1.51,3.74,0,2.45,2.52,4.82,5.47,7.2,8.71,2.38,3.31,4.75,6.84,7.2,10.58.14.29.36.58.94.22.58-.36.43-.65.22-1.01-2.38-3.74-4.82-7.34-7.2-10.58-2.45-3.31-4.9-6.34-7.34-8.86-1.22-1.3-1.94-2.3-.94-4.03,1.87-2.95,3.46-1.08,5.11.79,2.45,2.74,4.82,5.54,7.13,8.57,2.3,3.1,4.54,6.34,6.7,9.79.22.29.36.58,1.01.22.58-.36.36-.65.22-.94-2.23-3.53-4.46-6.84-6.77-9.86-2.38-3.1-4.75-5.98-7.2-8.71-1.15-1.3-1.73-2.23-1.8-3.02-.14-.65.22-1.3.79-1.94,1.37-1.51,4.46-4.68,6.05-1.15,1.51,3.31,3.67,5.9,6.19,7.85,2.81,2.16,6.05,3.6,9.43,4.32,8.06,1.73,16.27-1.73,22.68-6.34,6.55-4.75,13.03-11.45,17.06-19.08,3.38-6.62,5.18-14.33,3.31-21.67,12.17,5.04,23.47,7.56,34.34,7.85,8.14.22,17.64-.86,25.92-3.53,11.02-3.53,24.7-3.53,35.71,0,8.28,2.66,17.86,3.74,25.92,3.53,10.87-.29,22.18-2.81,34.34-7.85-1.87,7.34-.07,15.05,3.38,21.67,3.96,7.63,10.44,14.33,16.99,19.08,6.41,4.61,14.62,8.06,22.68,6.34,3.38-.72,6.62-2.16,9.43-4.32,2.52-1.94,4.68-4.54,6.19-7.85,1.58-3.53,4.68-.36,6.05,1.15.58.65.94,1.3.79,1.94-.07.79-.65,1.73-1.8,3.02-2.45,2.74-4.82,5.62-7.2,8.71-2.3,3.02-4.54,6.34-6.77,9.86-.14.29-.36.58.22.94.65.36.79.07,1.01-.22,2.16-3.46,4.39-6.7,6.7-9.79,2.3-3.02,4.68-5.83,7.13-8.57,1.66-1.87,3.24-3.74,5.11-.79,1.01,1.73.29,2.74-.94,4.03-2.45,2.52-4.9,5.54-7.34,8.86-2.38,3.24-4.75,6.84-7.2,10.58-.22.36-.36.65.22,1.01.58.36.79.07.94-.22,2.45-3.74,4.82-7.27,7.2-10.58,2.38-3.24,4.75-6.19,7.2-8.71,1.44-1.51,2.16-1.3,3.74,0,.79.72,1.37,1.66,1.51,2.81.22,1.58-.72,2.23-1.73,3.24-4.75,5.04-10.15,10.66-15.19,19.01-.58.86.65,1.58,1.15.72,4.97-8.21,10.3-13.82,15.05-18.72,1.22-1.44,2.45-1.3,3.82.22.14.22.36.5.58.79.43,1.01.65,2.38-.14,3.38-3.17,3.82-5.98,7.56-8.64,11.45-2.59,3.82-5.04,7.63-7.63,11.66-.58.79.65,1.58,1.15.72,2.59-3.96,5.04-7.85,7.63-11.59,2.52-3.6,5.11-7.2,8.14-10.8.94-1.15,2.74-.86,3.6.36.29.43.43.94.43,1.51h0c.07,1.01-.29,1.73-.79,2.45-2.81,3.89-5.54,7.99-8.28,12.24-2.81,4.25-5.54,8.71-8.28,13.25-.5.86.72,1.58,1.22.72,2.66-4.54,5.4-8.93,8.21-13.25,2.59-3.96,5.26-7.92,7.92-11.66,2.16-3.02,5.4.79,5.26,3.6-.07,1.37-.65,2.66-1.58,3.82-2.23,2.95-4.39,5.98-6.48,9.07-2.02,3.1-4.03,6.26-5.83,9.5-.58.94.72,1.58,1.22.72,1.8-3.24,3.74-6.34,5.76-9.43,2.09-3.02,4.18-6.05,6.48-9,.36-.5.72-1.08,1.01-1.66,1.44.22,2.3,1.44,2.66,2.74.72,2.52.14,4.82-1.22,6.98-2.3,3.46-4.54,7.2-6.62,11.23-2.09,4.03-4.1,8.35-5.76,12.82-.36.94.94,1.44,1.3.5,1.66-4.39,3.6-8.64,5.69-12.67,2.02-3.89,4.18-7.56,6.41-10.94,1.58-.58,3.17-.72,3.89,1.15,1.44,3.82-.22,7.13-1.8,10.51-5.69,12.46-11.52,25.06-15.55,39.17-18.5-68.98-81.72-120.02-156.38-120.02s-137.88,51.05-156.38,120.02Z"/>
    <path class="cls-3" d="m342.8,196.7c.14,2.02,1.8,2.23,3.38,2.16.29,2.3.29,4.46-.58,6.62-1.73,4.68-6.05,7.42-10.87,7.99-3.02.43-6.34.07-9.36-.86-4.75-1.44-9.43-4.61-13.39-8.64-4.32-4.25-7.78-9.58-9.72-14.54-1.44-3.67-2.16-7.49-1.94-11.45.29-3.46,1.3-6.98,3.38-10.37,1.37-2.23,3.6-2.3,5.69-2.38,1.66-.07,3.17-.14,3.67-1.44.43-1.01.14-2.09-.5-2.88-.86-1.15-2.3-1.8-3.74-1.87-6.98-.22-12.31,6.05-14.18,12.17-2.23,7.13-.72,15.48,2.81,22.18,3.89,7.42,10.22,13.97,16.56,18.58,6.05,4.39,13.97,7.78,21.6,6.12,3.17-.72,6.26-2.02,8.86-4.03,2.38-1.87,4.39-4.25,5.76-7.34,1.08-2.3,1.51-5.26,1.08-7.78-.22-1.08-.5-2.09-1.08-2.88-.86-1.58-3.17-3.02-5.04-2.59-1.51.36-2.52,1.73-2.38,3.24Z"/>
    <path class="cls-3" d="m294.13,168.62c1.22-2.81,3.02-5.4,5.33-7.42-18.94,7.27-44.06,11.52-70.27,12.67,9.43,3.53,19.08,5.26,29.3,4.97,10.15-.29,20.88-2.59,32.26-7.2,1.44-.58,2.74-1.51,3.38-3.02Z"/>
    <path class="cls-3" d="m86.63,196.7c-.14,2.02-1.8,2.23-3.38,2.16-.29,2.3-.22,4.46.58,6.62,1.73,4.68,6.05,7.42,10.87,7.99,3.02.43,6.34.07,9.36-.86,4.75-1.44,9.43-4.61,13.39-8.64,4.32-4.25,7.85-9.58,9.72-14.54,1.44-3.67,2.16-7.49,1.94-11.45-.29-3.46-1.3-6.98-3.38-10.37-1.37-2.23-3.6-2.3-5.69-2.38-1.66-.07-3.17-.14-3.67-1.44-.43-1.01-.14-2.09.5-2.88.86-1.15,2.38-1.8,3.74-1.87,6.98-.22,12.31,6.05,14.18,12.17,2.3,7.13.72,15.48-2.81,22.18-3.89,7.42-10.22,13.97-16.56,18.58-6.05,4.39-13.97,7.78-21.6,6.12-3.17-.72-6.26-2.02-8.86-4.03-2.38-1.87-4.39-4.25-5.76-7.34-1.08-2.3-1.51-5.26-1.08-7.78.22-1.08.5-2.09,1.08-2.88.86-1.58,3.17-3.02,5.04-2.59,1.51.36,2.52,1.73,2.38,3.24Z"/>
    <path class="cls-3" d="m182.17,177.26c-3.24,1.44-9.79,1.73-11.23,1.58-10.15-.29-20.88-2.59-32.26-7.2h-.07c-1.44-.58-2.66-1.58-3.31-3.02h0c-1.22-2.81-3.02-5.4-5.33-7.42,14.04,5.4,31.61,9.14,50.4,11.16,2.74.29,5.33,3.38,1.8,4.9Z"/>
    <path class="cls-4" d="m68.77,472.68c1.87.43,3.74,1.01,5.54,1.66,5.18,2.09,10.01,5.33,15.12,9.65-1.66-2.09-3.31-4.1-5.04-6.05-2.88-3.31-5.98-6.55-8.93-9.72-.36-.36-.65-.72-.94-1.08-1.58-.29-3.02-.86-4.54-1.58-1.51-.79-3.02-1.73-4.61-2.81-.79-.58,0-1.73.79-1.15,1.51,1.01,2.95,1.94,4.46,2.66.72.36,1.44.72,2.23.94-.65-.65-1.15-1.37-1.73-2.02-1.3-1.73-2.45-3.31-3.53-4.97-.58-.79.58-1.58,1.15-.79,1.08,1.58,2.23,3.24,3.53,4.9,1.3,1.66,2.74,3.31,4.18,4.9,2.95,3.17,5.9,6.34,8.93,9.79,1.94,2.23,3.89,4.46,5.69,6.84-1.44-3.6-2.52-7.42-3.38-11.45-.79-2.3-2.09-4.75-3.67-7.2-4.82-7.63-9.94-13.9-17.93-18.07-4.54-2.45-9.79-4.03-15.98-4.68,2.02,2.45,3.82,5.11,5.4,7.99,1.87,3.38,3.38,6.98,4.39,10.51.72,2.74,1.8,5.11,3.24,7.13,1.44,1.94,3.31,3.53,5.62,4.61Z"/>
    <path class="cls-4" d="m42.92,269.64c.29.72.65,1.44,1.01,2.16-.58,0-1.15.07-1.8.36.43-.86.65-1.66.79-2.52Z"/>
    <path class="cls-4" d="m47.03,278.71c2.02,4.61,3.96,9.29,5.76,14.11-2.23,1.51-4.46,3.17-6.62,5.26v-4.68c1.3-.58,2.02-.94,2.02-3.38,0-.79-.14-1.51-.5-1.87-.5.65-.94,1.22-1.51,1.73v-9.94c.29-.36.58-.79.86-1.22Zm-.86,19.37c-.79.79-1.66,1.66-2.45,2.52-1.8,2.09-3.6,4.46-5.11,7.34.58-2.88,1.44-5.83,2.45-8.57.36-1.01-1.01-1.44-1.37-.5-.86,2.52-1.66,5.04-2.23,7.7-.14-4.18-.65-8.35-1.58-12.46.36-1.51.86-2.95,1.66-4.25.72-1.3,1.66-2.45,2.88-3.46,2.45-2.02,4.25-4.18,5.76-6.48v9.94c-.29.14-.58.36-.94.5-1.44.5-1.01,2.3-.94,3.96.72-.43,1.37-.72,1.87-.94v4.68Z"/>
    <path class="cls-4" d="m50.7,474.05c1.15,1.01,2.23,2.02,3.31,3.1,1.44,1.37,2.95,2.95,4.54,4.82,3.89,4.68,10.15,10.01,17.64,11.45,4.68.86,9.79.29,15.12-2.88-.14-.29-.36-.58-.5-.86-.07,0-.22-.07-.29-.07-3.6-1.66-6.84-3.1-10.15-3.17h-.22c-.72,0-1.51.07-2.23.22-1.51.29-2.81.5-3.96.65-1.15.07-2.16.07-3.02-.07-.36-.07-.72-.14-.58-.86.14-.65.5-.65.79-.58.79.14,1.66.14,2.74.07.94-.07,2.02-.22,3.24-.5-.79-.29-1.58-.58-2.38-1.01-1.73-.79-3.6-1.8-5.62-3.1-.29-.22-.58-.43-.22-1.01.43-.58.72-.36,1.01-.22,1.94,1.3,3.74,2.3,5.47,3.1,1.66.79,3.31,1.37,4.9,1.87,3.6.07,6.98,1.58,10.8,3.31.14.07.29.14.43.14l.36-.43c-6.34-5.76-11.95-9.94-18.14-12.31-7.34-2.95-15.26-2.95-23.04-1.66Z"/>
    <path class="cls-4" d="m48.61,440.93c3.38.22,6.48.72,9.36,1.51-1.22-2.02-2.88-3.96-4.9-5.83-1.44-1.44-3.1-2.88-4.9-4.25-1.66-.29-3.24-.43-4.9-.22-.94.14-1.15-1.22-.14-1.37,1.01-.14,1.94-.22,2.74-.14-.36-.29-.72-.58-1.08-.79-.86-.65-1.73-1.3-2.59-1.87-1.66-.36-3.38-1.01-5.26-1.8-1.8-.79-3.74-1.73-5.83-2.88-.94-.43-.29-1.66.65-1.22,2.09,1.08,3.96,2.09,5.76,2.81.5.29,1.08.5,1.58.65-.43-.29-.86-.65-1.22-1.01-2.3-1.8-4.46-3.6-6.7-5.54-.79-.65.14-1.73.86-1.08,2.3,1.94,4.46,3.74,6.7,5.54,2.23,1.8,4.54,3.6,6.84,5.26,3.02,2.09,5.83,4.32,8.5,6.84,1.87,1.8,3.46,3.67,4.68,5.47-.22-2.88-1.15-5.76-2.88-8.64-2.52-4.32-6.19-7.99-10.01-11.23-5.18-4.46-10.87-7.56-17.06-9.79-5.4-1.94-11.16-3.1-17.14-3.82l.07.07c3.02,2.23,5.9,4.32,8.35,7.27,4.32,5.18,8.86,10.01,13.61,14.4,4.68,4.32,9.65,8.21,14.9,11.66Z"/>
    <path class="cls-4" d="m42.56,456.26c-.79.22-1.15.79-.79,1.51.5.86,1.73,1.3,2.59,1.08.79-.14,1.15-.79.79-1.51-.43-.86-1.66-1.3-2.59-1.08Z"/>
    <path class="cls-4" d="m73.67,439.27c-.5.72-.43,1.87.22,2.52.58.58,1.44.58,1.94-.07,1.15-1.66-.94-4.1-2.16-2.45Z"/>
    <path class="cls-4" d="m31.55,410.83c3.17,1.3,6.26,2.88,9.14,4.75.14-1.51.29-2.95.58-4.32.14-.94.43-1.37.14-2.3-.79-2.38-1.66-4.54-2.66-6.62-1.01-2.09-2.16-4.1-3.46-5.9-.58-.79.5-1.58,1.15-.79,1.3,1.87,2.52,3.89,3.6,6.12.86,1.73,1.58,3.53,2.3,5.47,1.37-3.89,2.66-6.55.72-10.73-1.87-4.1-4.46-7.99-7.85-11.09-3.46-3.1-7.63-5.4-12.53-6.77,1.37,2.52,2.59,5.04,3.67,7.7,1.3,3.17,2.3,6.41,3.24,9.94.72,3.02,1.08,6.41,1.37,9.79.22,1.58.36,3.17.58,4.75Z"/>
    <path class="cls-4" d="m42.13,416.45c1.58,1.08,3.17,2.3,4.68,3.6.94.79,1.8,1.58,2.66,2.38.07-1.8-.14-3.46-.58-5.04-.5-1.94-1.3-3.82-2.38-5.69-.5-.86.72-1.58,1.22-.65,1.08,1.94,2.02,3.89,2.52,5.98.58,2.09.72,4.25.5,6.7,1.8,1.8,3.38,3.6,4.68,5.47.22-3.67-.07-7.13-.72-10.58-.86-4.1-2.3-8.14-4.25-12.31-1.44-3.1-3.1-6.12-4.68-9.14-.22,3.02-.5,6.26-1.8,9.65-.58,1.51-1.08,3.1-1.37,4.75-.29,1.58-.5,3.17-.5,4.9Z"/>
    <path class="cls-4" d="m56.75,431.06c.94,1.51,1.8,3.17,2.38,4.9,1.08-1.08,1.87-2.74,2.45-4.97.72-2.66,1.15-6.05,1.3-9.86.29-8.06-.43-15.55-1.73-23.04-1.87-5.62-3.46-11.38-4.68-17.28-1.3,1.8-2.38,3.96-3.38,6.62-1.44,3.82-2.52,8.64-3.24,14.33.65,1.3,1.3,2.59,1.94,3.96,1.87,4.1,3.31,7.99,4.18,11.95.14-2.16.29-4.39.43-6.48.22-3.89.36-7.63.43-11.3,0-1.01,1.44-1.01,1.44,0-.07,3.74-.22,7.56-.5,11.38-.14,3.46-.43,6.98-.72,10.44-.29,3.1,0,6.26-.29,9.36Z"/>
    <path class="cls-4" d="m25.86,378.22c3.02,1.08,5.69,2.59,8.06,4.32-1.51-3.02-3.31-6.12-5.26-9.14-2.45-3.89-5.04-7.7-7.63-11.45,0,0,0-.07-.07-.07-1.66-.58-3.31-1.44-4.97-2.45-1.73-1.08-3.46-2.45-5.18-3.96-.72-.65.14-1.73.94-1.01,1.66,1.37,3.31,2.66,5.04,3.74,1.01.65,2.02,1.22,3.02,1.66-.58-.86-1.15-1.8-1.8-2.66-1.01-1.44-2.09-2.88-3.31-4.25-.65-.72.36-1.66,1.08-.94,1.22,1.44,2.38,2.88,3.38,4.32,3.67,5.04,7.34,11.02,10.73,16.34,2.52,4.03,4.82,8.06,6.7,12.1h0c.58.5,1.08,1.08,1.58,1.66.86-1.01.58-3.24-.72-6.7-2.23-6.12-5.76-12.31-8.93-18-2.81-4.97-6.98-9.86-11.95-14.11-4.61-3.96-9.86-7.27-15.12-9.5-.14,3.31.72,6.62,2.23,10.01,1.66,3.74,4.03,7.49,6.77,11.45,1.87,2.74,4.18,4.97,6.48,7.2,3.31,3.24,6.62,6.55,8.86,11.3,0,.07.07.07.07.14Z"/>
    <path class="cls-4" d="m45.95,382.75c-1.3-.07-2.09.43-2.38,1.08-.86,1.66.79,3.38,2.45,3.38.94.07,1.58-.5,1.87-1.22.29-.58.29-1.3.07-1.87-.22-.72-.94-1.37-2.02-1.37Z"/>
    <path class="cls-4" d="m20.1,399.82c.43-1.58.5-3.02.22-4.1-.29-1.22-1.01-2.02-1.94-2.3-.29-.14-.65-.14-1.01-.14-.58.07-1.08.22-1.51.58-.43.29-.79.72-.94,1.15-.07.29-.07.5-.07.79.07,1.22.79,2.3,1.8,3.02,1.01.72,2.23,1.08,3.46,1.01Z"/>
    <path class="cls-4" d="m29.75,361.08c1.37,2.45,2.66,4.75,3.74,6.84-.86-5.47-2.09-10.8-3.74-16.13-2.02-6.41-4.61-12.67-7.99-18.79-.5-.86.79-1.58,1.22-.72,3.46,6.26,6.12,12.6,8.14,19.08,1.58,5.33,2.81,10.73,3.74,16.2.07-2.74.36-5.33.72-7.85v-.36c-.72-10.8-2.38-19.87-5.26-26.93-2.23-5.69-5.69-11.16-10.94-14.54-.86,5.83-1.08,11.59-.29,17.35.72,5.4,2.23,10.73,4.61,16.06,1.66,3.67,4.1,6.26,6.05,9.79Z"/>
    <path class="cls-4" d="m39.32,380.95c.5-4.46,1.15-8.93,1.87-13.25.86-5.18,1.87-10.22,3.02-15.19-.22-1.22-.36-2.52-.43-3.82,0-1.3.07-2.66.22-4.1.14-1.01,1.51-.86,1.44.14-.22,1.37-.29,2.66-.22,3.96,0,.65.07,1.3.14,1.94.36-.36.72-.86,1.01-1.37.5-.86.94-1.87,1.3-3.1.14-.29.22-.65.94-.43.65.22.58.58.43.86-.36,1.3-.86,2.45-1.44,3.38-.58.94-1.22,1.73-1.94,2.38-1.15,5.11-2.23,10.37-3.1,15.55-.86,5.11-1.51,10.3-2.02,15.7,1.22-.22,1.22-1.73,1.58-2.74,1.08-3.02,2.38-6.26,3.67-9.5,2.95-7.42,6.05-15.19,7.06-21.1v-3.38c0-1.73,0-3.46.07-5.18-.29-2.16-.86-4.18-1.58-5.98-1.15-3.02-2.81-5.47-4.75-7.49-1.01,3.1-2.09,6.12-3.17,9.07-1.3,3.6-2.59,7.2-3.74,10.66-2.38,7.56-3.53,15.26-3.46,23.26.07,3.46,2.16,6.48,3.1,9.72Z"/>
    <path class="cls-4" d="m25.79,321.77c-1.58-4.61-3.24-9.22-5.33-13.61-2.59-5.62-5.69-10.87-9.72-15.34-.22-.29-.5-.58.07-1.01.5-.5.72-.22.94.07,4.18,4.61,7.34,9.94,10.01,15.7,1.15,2.45,2.16,4.9,3.17,7.49-1.51-5.83-2.45-11.3-2.95-16.49-1.37-3.53-3.38-6.62-5.9-9.43-2.45-2.66-5.33-5.04-8.5-7.06-.07,5.4.58,10.87,2.3,16.42,1.58,5.18,4.1,10.37,7.78,15.62,2.3,3.31,5.47,4.46,8.14,7.63Z"/>
    <path class="cls-4" d="m31.04,330.41c.29.58.5,1.22.72,1.8,1.08-.72,1.58-3.1,2.3-6.7.22-1.01.43-2.16.65-3.38,2.09-9.29,1.73-19.51-.43-28.73-1.87-8.06-5.33-15.55-10.51-21.17-1.01,7.92-1.37,16.2-.5,25.2.94,10.15,3.38,20.3,6.84,29.95.43-3.02.65-6.12.79-9.22.14-4.1,0-8.35-.29-12.6-.29-3.74-2.38-8.14-4.25-12.17-.72-1.37-1.37-2.81-1.94-4.1-.14-.36-.29-.65.36-.94.65-.29.79.07.94.36.5,1.3,1.22,2.66,1.87,4.1.72,1.51,1.44,3.02,2.09,4.54-.14-1.3-.29-2.52-.43-3.82-.5-3.02-1.08-6.12-1.73-9.22-.07-.36-.22-.72.5-.86.72-.07.79.22.86.58.65,3.17,1.3,6.26,1.73,9.29.36,2.66.65,5.26.86,7.85.14,1.51.43,2.88.5,4.32.29,4.25.43,8.57.29,12.74-.07,4.1-.5,8.21-1.22,12.17Z"/>
    <path class="cls-4" d="m6.92,325.94c-.58,0-1.15.22-1.58.58-.36.36-.58.86-.58,1.44s.22,1.08.65,1.44c.36.36.94.58,1.58.58s1.15-.22,1.58-.58c.36-.36.65-.86.65-1.44s-.29-1.08-.65-1.44c-.43-.36-1.01-.58-1.66-.58Z"/>
    <path class="cls-4" d="m34.14,287.71c.5-1.08.86-2.3,1.22-3.46,1.01-3.24,2.81-4.68,5.62-6.84.29-.22.58-.5.79-.65.79-.58,1.66.5.86,1.08-.29.29-.58.5-.79.65-2.59,2.02-4.32,3.31-5.11,6.12-.29.94-.58,1.94-.94,2.74-.29.86-.65,1.58-1.08,2.16.14.58.36,1.22.5,1.87.29-.79.65-1.51,1.08-2.23.79-1.44,1.87-2.66,3.24-3.82,2.81-2.23,4.68-4.9,6.41-7.56-.36-1.37-.58-3.53-1.66-4.39-.36-.36-1.08-.22-1.87.14-1.51.65-3.1,1.94-3.67,2.52-1.94,2.02-3.38,3.82-4.32,5.47-1.66,2.74-1.15,3.53-.29,6.19Z"/>
    <path class="cls-4" d="m37.31,314.06c-.22,2.81-.58,5.69-1.22,8.42.29-.22.58-.58.94-.86.94-1.08,1.94-2.3,2.38-3.17h0c1.58-2.52,2.88-4.32,4.39-6.48,0-.07.14-.29.94-1.37.58-.79,1.73,0,1.15.86-.14.14-.36.5-.94,1.3-1.51,2.16-2.81,3.96-4.32,6.48h0c-.5.86-1.58,2.23-2.59,3.31-1.3,1.37-2.23,1.37-2.59,3.24-.36,1.66-.65,3.1-.94,4.32,3.31-2.59,6.26-5.33,8.86-8.14,3.1-3.38,5.54-6.84,7.13-10.15,1.44-2.88,2.38-5.9,2.74-8.93.36-2.74.22-5.47-.43-8.35-2.74,1.87-5.47,4.1-7.99,6.98-2.81,3.17-5.4,7.13-7.42,12.38,0,0-.07.07-.07.14Z"/>
    <path class="cls-4" d="m11.75,272.23c-.72.22-1.22.72-1.51,1.37-.29.65-.29,1.44,0,2.16.22.79.79,1.37,1.44,1.66.65.36,1.44.43,2.09.22.72-.29,1.22-.79,1.51-1.44.29-.65.29-1.37,0-2.16-.29-.72-.79-1.3-1.44-1.66-.65-.29-1.44-.43-2.09-.14Z"/>
    <path class="cls-4" d="m33.85,279.72c1.01-1.44,2.3-3.02,3.89-4.68,2.16-2.16,4.25-3.46,3.74-7.27-.29-1.8-1.08-4.61-3.02-7.42-2.38,2.52-4.54,5.83-5.54,9.29-.79,2.88-1.01,6.19-.43,9.94.29-2.45.72-4.9,1.37-7.27.79-3.24,1.94-6.34,3.38-9.29.43-.94,1.73-.29,1.3.58-1.44,2.95-2.52,5.98-3.31,9.07-.58,2.3-1.08,4.68-1.37,7.06Z"/>
    <path class="cls-4" d="m96.06,481.46c.36-2.74.5-5.69.29-8.78-.29-6.05-1.58-12.46-3.82-18.36-.14-.43.07-.79.43-.94-2.09-2.38-4.03-4.75-5.98-7.27-.14,7.7.22,15.05,1.3,21.82,1.01,6.19,2.66,12.31,5.26,18,1.3-1.73,1.58-2.52,2.52-4.46Z"/>
    <path class="cls-4" d="m94.26,454.82c2.02,5.76,3.24,11.95,3.53,17.86.07,1.94.07,3.82,0,5.69.86-1.37,1.15-2.59,1.37-4.25.5-3.1.58-7.49.36-12.82,0-.29.07-.5.22-.58-1.87-1.94-3.67-3.89-5.47-5.9Z"/>
    <path class="cls-4" d="m100.96,461.95c.22,4.82.07,8.86-.29,11.88,1.01-1.87,1.87-3.82,2.59-5.98.29-.94.5-1.94.79-3.02-1.08-.94-2.09-1.94-3.1-2.88Z"/>
    <path class="cls-4" d="m399.76,368.57c.07,2.02-.07,4.03-.43,6.05,2.23-2.38,4.54-4.68,6.84-6.98.14-1.15.29-2.23.58-3.31.29-1.15.65-2.38,1.15-3.53.36-1.08,1.66-.5,1.3.43-.43,1.22-.79,2.3-1.08,3.46-.07.43-.22.94-.29,1.37,3.17-3.02,6.48-5.98,9.79-8.93.79-.65,1.66.43.94,1.08-3.38,2.95-6.7,5.9-9.94,9,.36,0,.72,0,1.08.07.86,0,1.8.07,2.66.14,1.01.07.86,1.51-.14,1.37-.79-.07-1.66-.14-2.59-.14h-2.45c-2.88,2.81-5.69,5.69-8.42,8.78-.86,3.17-2.3,6.34-4.18,9.29.58-.36,1.15-.65,1.73-1.01,1.37-2.02,2.88-4.1,4.9-5.62,4.97-3.74,8.93-6.77,12.38-10.37,3.53-3.53,6.55-7.56,9.58-13.25,1.58-2.95,2.38-6.91,4.1-9.43-5.54,1.22-9.72,2.45-14.11,5.26-5.47,3.53-10.01,9.5-13.03,15.34-.22.43-.36.5-.36.94Z"/>
    <path class="cls-4" d="m409.91,352.87c.94-2.16,1.8-4.25,2.3-6.26.43-2.02.72-4.32.29-6.34-.79-4.39.43-9.36,1.51-13.9.22-.79.36-1.51.5-2.23-5.4,4.39-10.15,8.93-13.61,13.68-3.74,5.18-5.98,10.73-5.76,16.63,1.8,2.81,3.1,5.69,3.82,8.71.07-2.23.07-4.39.22-6.34.22-2.88.58-5.47,1.15-7.7.72-2.3,1.58-4.1,2.59-5.54,1.01-1.44,2.23-2.52,3.46-3.38.86-.58,1.66.58.86,1.15-1.22.79-2.23,1.8-3.17,3.1-.94,1.3-1.73,2.95-2.38,5.04-.14.5-.22,1.01-.36,1.58.58-.65,1.15-1.22,1.73-1.73,1.22-1.08,2.45-2.02,3.82-2.88.79-.5,1.58.65.72,1.22-1.22.79-2.45,1.66-3.6,2.66-1.08,1.08-2.16,2.16-3.1,3.38h0c-.14,1.01-.22,2.09-.29,3.24-.14,2.23-.22,4.61-.22,7.2,2.95-5.04,6.12-8.64,9.5-11.3Z"/>
    <path class="cls-4" d="m381.32,406.73c-.07,0-.07.07-.07.07.5,9.07-2.02,17.78-4.75,25.99,2.45-4.1,4.82-8.64,7.06-13.32.14-.29.29-.58.43-.86h-.07c.14-1.08.22-2.09.22-3.1-.07-1.01-.22-2.02-.36-2.95-.22-.94,1.15-1.22,1.37-.29.22.94.29,1.94.36,2.95,2.09-4.75,4.1-9.58,5.9-14.18.36-.94,1.66-.43,1.3.5-1.8,4.68-3.82,9.5-5.9,14.26.22-.14.36-.36.58-.5,1.15-.86,2.3-1.66,3.46-2.38.86-.43,1.44.79.72,1.22-1.15.65-2.23,1.44-3.31,2.23-1.44,1.15-2.66,2.09-3.38,3.67-1.44,3.1-2.95,6.05-4.54,8.86,2.81-2.95,6.05-5.69,9.5-8.06,2.45-1.58,4.97-3.02,7.56-4.25,1.3-3.67.43-6.48-.29-8.86-.36-1.15-.65-2.16-.79-3.24-.72-6.55,4.54-14.9,7.99-20.38-4.61,1.3-9.22,3.53-12.82,6.55-4.97,4.18-8.21,9.94-10.15,16.06Z"/>
    <path class="cls-4" d="m413.08,284.9c-.58-.14-1.22,0-1.8.43-.58.43-1.01,1.08-1.22,1.94-.22.79-.14,1.66.14,2.3.29.58.79,1.01,1.37,1.15.58.14,1.22-.07,1.73-.43.65-.5,1.08-1.15,1.3-2.02.22-.86.14-1.66-.14-2.23-.29-.58-.72-1.01-1.37-1.15Z"/>
    <path class="cls-4" d="m386.08,287.57c.79,1.22,1.44,2.59,2.02,4.03.36.86.65,1.8.94,2.74.86-2.09,1.94-4.03,3.17-5.9-.58-3.31-2.02-5.33-3.89-6.62-1.73-1.22-3.89-1.73-6.05-1.87-2.52,4.61-3.6,7.34-3.53,10.15.07,2.95,1.3,6.05,3.38,11.59v.14c1.58.22,3.1,1.01,4.68,2.45.07-1.8.36-3.67.79-5.47.14-.79.36-1.51.65-2.3-.43-1.51-.94-2.95-1.44-4.32-.58-1.44-1.15-2.74-1.87-3.89-.58-.86.65-1.58,1.15-.72Z"/>
    <path class="cls-4" d="m388.96,299.16c-1.66,6.62-.86,13.82,3.24,20.66.86,1.37,1.8,2.74,2.88,4.03.14-.43.29-.86.43-1.22-1.44-6.05-1.73-11.23-1.01-17.28.29-2.16.72-4.39,1.22-6.62-.43-1.01-.86-2.02-1.22-3.02-.29-1.08-.5-2.23-.58-3.46-.07-1.01,1.37-1.01,1.44,0,0,1.01.22,2.09.5,3.02.14.43.29.94.5,1.37.79-2.81,1.87-5.62,3.17-8.42.43-.86,1.73-.29,1.3.65-1.22,2.52-2.16,5.04-2.95,7.63.07-.14.22-.29.36-.43.65-.65,1.3-1.3,1.73-2.02.58-.86,1.73-.07,1.22.79-.58.79-1.22,1.51-1.94,2.23-.65.65-1.37,1.22-2.09,1.8-.58,2.23-1.01,4.46-1.22,6.7-.14,1.22-.29,2.45-.36,3.67.36-.36.79-.79,1.15-1.15.65-.79,1.3-1.51,1.58-2.02.5-.94,1.73-.29,1.3.65-.43.65-1.08,1.44-1.87,2.3-.79.86-1.66,1.8-2.16,2.66,0,2.88.36,5.76.86,8.64,2.3-4.9,5.04-9.07,8.14-12.6.72-2.52,1.08-4.97,1.01-7.42-.07-2.52-.5-5.04-1.3-7.49-.86-2.66-1.08-5.47-.79-8.28.14-2.02.58-4.18,1.08-6.26-1.44,1.01-2.88,2.02-4.18,3.17-5.4,4.54-9.79,10.73-11.45,17.71Z"/>
    <path class="cls-4" d="m376.43,311.9c1.08.5,2.23.86,3.46,1.08-1.44-1.94-2.81-3.96-4.1-5.9-.58-.86.58-1.66,1.15-.79,1.3,1.87,2.59,3.74,3.89,5.62-.07-.65-.22-1.37-.29-2.02-.22-1.37-.5-2.66-.79-4.03-.22-1.01,1.15-1.3,1.37-.36.29,1.37.58,2.81.79,4.18.29,1.51.5,3.1.65,4.68.94,1.3,1.94,2.66,2.88,3.96.58.72,1.08,1.51,1.66,2.23,0-.29.07-.58.07-.79h0c.07-.94.07-1.87.07-2.74,0-1.01,1.44-1.01,1.44,0,0,.94,0,1.87-.07,2.81h0c-.07.79-.14,1.51-.29,2.3,1.8,2.3,3.6,4.54,5.47,6.77.22-1.15.43-2.3.79-3.46h-.07c-1.3-1.58-2.52-3.24-3.46-4.9-2.81-4.68-4.18-9.5-4.32-14.26-3.46-4.03-6.7-3.38-10.87-2.59-.79.14-1.58.29-2.45.43.94,7.56,2.74,13.25,5.9,17.71,3.1,4.46,7.63,7.78,14.11,10.66,0-.58.07-1.15.07-1.73-2.09-2.45-4.1-4.97-6.05-7.49h-2.16c-.72,0-1.44-.07-2.23-.22-1.01-.14-.79-1.51.14-1.37.72.07,1.44.14,2.16.14.36.07.65.07,1.01.07-.72-.94-1.37-1.87-2.02-2.74-1.15-1.58-2.3-3.1-3.38-4.68-1.8-.14-3.53-.5-5.11-1.3-.94-.43-.29-1.73.58-1.3Z"/>
    <path class="cls-4" d="m397.6,321.26c-1.66,3.6-2.66,7.7-2.81,11.74-.14,3.46.29,6.91,1.37,10.08.79-1.66,1.73-3.31,2.88-4.97l-.07-.07c-.29-1.66-.5-2.95-.07-4.61,1.3-5.18,3.17-9.94,5.47-14.54,1.08-2.02,2.16-4.1,3.38-6.05.14-.94.29-1.66.36-2.38.14-.72.14-1.37.22-2.23,0-1.01,1.37-.94,1.37.07,0,.43,0,.94-.07,1.37.79-1.3,1.66-2.59,2.45-3.82.22-.29.36-.58.94-.22.65.36.43.65.22,1.01-2.66,4.1-5.33,8.5-7.56,12.89-.36.65-.65,1.3-.94,1.94l.07-.07c.79-.58,1.66-1.15,2.52-1.58.86-.43,1.51.79.65,1.3-.86.36-1.58.86-2.38,1.44-.72.58-1.44,1.22-2.16,1.94-.07,0-.07.07-.07.07-1.3,2.95-2.3,5.98-3.1,9.22-.29.94-.29,1.8-.14,2.74,1.8-2.38,3.89-4.68,6.19-6.98,0,0,.07-.07.07-.14,2.3-3.46,4.18-7.06,5.62-10.73,1.58-3.74,2.66-7.49,3.38-11.3.5-2.81.86-5.69,1.58-8.57-3.67,2.45-7.06,5.18-10.15,8.57-3.74,4.03-6.91,8.86-9.22,13.9Z"/>
    <path class="cls-4" d="m424.02,329.76c-1.44.94-1.87,2.16-2.45,3.67,0,.07-.07.14-.07.22,1.3,0,2.3-.22,3.1-.58.86-.36,1.51-1.01,1.94-1.8.29-.65,1.01-2.23-.22-2.3-.58,0-1.37.29-2.3.79Z"/>
    <path class="cls-4" d="m392.48,353.16c-2.16-2.74-4.1-5.33-5.83-7.85-1.37-2.02-2.52-3.89-3.53-5.69-1.73,4.68-2.95,9.72-3.46,14.76-.58,5.33-.43,10.73.5,15.98.72,3.6,2.02,6.98,4.03,10.15,1.66,2.59,3.82,5.04,6.48,7.2-.43-5.83-1.37-11.59-2.66-17.28-1.08-.65-2.02-1.37-3.02-2.23-1.01-.94-2.02-2.02-2.95-3.24-.65-.79.5-1.66,1.08-.86.94,1.15,1.87,2.16,2.88,3.02.5.5,1.01.86,1.51,1.3-1.01-3.89-2.16-7.63-3.46-11.45-.29-.94,1.01-1.37,1.37-.43,1.22,3.6,2.38,7.27,3.31,10.94.29-1.22.5-2.52.58-3.74,0-1.01,1.44-.94,1.37.07-.07,2.09-.58,4.18-1.37,6.19,1.37,5.83,2.3,11.81,2.74,17.86,7.78-10.58,8.78-24.12.43-34.7Z"/>
    <path class="cls-4" d="m390.61,421.99c-7.63,5.18-13.97,12.17-16.92,19.37,3.96-1.73,7.7-3.53,11.38-5.98.22-1.01.5-2.02.94-2.95.43-1.01,1.01-2.02,1.66-2.95.22-.29.43-.58,1.01-.14.58.36.36.65.14.94-.65.86-1.15,1.8-1.51,2.74-.22.36-.36.72-.43,1.15,4.68-3.38,8.93-7.2,13.03-11.23.72-.65,1.73.29,1.01,1.01-4.25,4.18-8.5,7.92-12.74,11.02-3.89,2.81-8.06,5.33-12.6,7.2-.22.58-.5,1.08-.72,1.66,4.68-.29,9.36-1.8,13.97-4.61,5.11-3.02,10.15-7.56,15.05-13.54,3.38-4.03,6.98-7.85,10.51-11.66-8.28-.07-16.85,3.38-23.76,7.99Z"/>
    <path class="cls-4" d="m409.62,399.96c-.43,1.22.43,2.3,1.66,2.52,1.22.22,2.74-.5,3.17-1.8.36-1.22-.43-2.23-1.66-2.52-1.3-.22-2.81.5-3.17,1.8Z"/>
    <path class="cls-4" d="m378.52,385.49c-.36.43-.58,1.01-.58,1.73,0,.65.22,1.3.65,1.73h0c.72.86,1.8,1.15,2.59.14h0c.36-.43.58-1.08.58-1.8s-.22-1.37-.58-1.8c-.72-.86-1.87-.86-2.66,0Z"/>
    <path class="cls-4" d="m372.32,418.97c-.86,1.08-1.66,2.16-2.38,3.38-.72,1.15-1.37,2.38-1.94,3.67h0c-.07,3.24.07,6.19.43,8.78.36,2.59,1.08,5.47,2.52,7.78,1.73-.79,3.02-6.84,3.82-9.07,3.82-11.3,7.34-23.54,3.31-36.22-.79-2.59-1.94-5.11-3.38-7.56-.79-1.44-1.73-2.88-2.81-4.25-2.66,10.87-6.41,21.31-11.16,31.25l-.29.5c-.07,6.41.43,12.67,2.02,17.14,1.3,3.82,3.38,6.55,6.62,7.78-.94-1.87-1.58-4.32-2.02-7.2-.5-3.6-.65-7.85-.36-12.46.22-3.67.65-7.34,1.3-11.16.65-3.82,1.58-7.7,2.88-11.59.29-1.01,1.66-.58,1.3.43-1.22,3.82-2.16,7.63-2.81,11.38-.65,3.74-1.01,7.42-1.22,11.02v.07c.22-.36.36-.72.58-1.01.79-1.22,1.58-2.45,2.52-3.6.65-.72,1.73.14,1.08.94Z"/>
    <path class="cls-4" d="m337.48,485.06c1.01-1.44,2.02-2.81,3.17-4.18,3.6-4.32,7.27-6.48,8.57-12.24.36-1.73.5-3.38.43-5.11-.07-1.08,1.3-1.22,1.37-.14.14,1.87,0,3.74-.43,5.54-.14.72-.36,1.44-.58,2.09,1.44-1.51,2.81-3.02,4.1-4.61,2.23-2.74,4.25-5.62,5.9-9,.5-.86,1.73-.22,1.3.65-1.8,3.46-3.82,6.41-6.05,9.22-.86,1.01-1.66,2.02-2.59,2.95,1.08-.58,2.09-1.15,3.1-1.58.86-.43,1.51.79.58,1.22-1.3.65-2.66,1.37-3.96,2.16-4.32,2.59-7.42,5.9-10.66,9.79-1.66,2.02-3.24,4.1-4.68,6.34,5.76-2.09,10.87-4.97,15.41-9,4.9-4.32,9.14-10.01,12.74-17.35,2.02-4.25,3.89-8.42,5.76-12.67.86-2.09,1.8-4.18,2.74-6.26-19.01,8.28-31.46,22.18-36.22,42.19Z"/>
    <path class="cls-4" d="m349.72,442.58c-.5.07-.94.36-1.3.79-.36.43-.58,1.08-.65,1.8,0,.65.14,1.3.5,1.8.22.36.58.58,1.01.58.58,0,1.08-.14,1.44-.5.36-.36.65-.94.79-1.8,0-.29,0-.65-.07-.94-.07-.5-.29-.94-.5-1.22-.29-.29-.58-.5-.94-.5h-.29Z"/>
    <path class="cls-4" d="m380.24,460.22c-1.37,1.01-1.22,2.59.5,3.17.79.29,1.73.22,2.59,0,1.51-.43,2.74-2.09,1.22-3.31-1.22-.86-3.1-.72-4.32.14Z"/>
    <path class="cls-4" d="m353.32,487.22c-1.51,1.73-3.17,3.31-4.9,4.9,3.46-1.66,7.13-3.6,11.09-5.76.86-.5,1.58.72.65,1.22-4.68,2.59-9,4.82-13.03,6.62,1.58.14,3.17.43,4.82,1.15.58.22.58.58.22,1.08,1.51-.65,2.95-1.37,4.32-2.23,7.27-4.25,13.54-10.58,18.58-16.63-8.06-1.3-18.79.86-25.42,5.62-4.03,2.88-8.5,5.11-13.32,6.77-1.15,1.01-2.09,2.3-2.81,3.67-.5,1.01-1.01,2.09-1.44,3.38,3.6-.14,7.49-1.22,11.74-2.95,3.02-2.3,5.9-4.9,8.42-7.78.72-.79,1.73.14,1.08.94Z"/>
    <path class="cls-4" d="m351.59,496.73c-.07-.07-.14-.07-.22-.14-2.02-.86-4.18-.94-6.26-1.08h-1.01c-4.18,1.66-7.99,2.66-11.59,2.95,6.84,1.66,13.25.72,19.08-1.73Z"/>
    <path class="cls-4" d="m338.05,463.1c-.94,1.22-1.58,2.66-2.16,4.18-.5,1.51-.94,3.1-1.22,4.61.5,2.81,1.51,5.47,2.88,7.7,1.08-3.24,2.3-6.34,3.82-9.29.65-5.18.58-9.72-.14-13.68-.36-2.38-1.01-4.61-1.87-6.55-3.74,4.54-7.78,8.86-12.02,12.96.29,9.29,3.24,14.9,6.26,20.88h0c.65,1.15,1.22,2.38,1.87,3.67.43-2.09.94-4.1,1.51-6.05-1.66-2.16-2.88-6.19-3.6-8.86-.29-1.22-2.3-2.59-3.46-3.17-.86-.43-.29-1.66.65-1.22,1.08.5,2.09,1.22,2.95,2.16.29-1.22.65-2.45,1.08-3.6.58-1.66,1.3-3.24,2.3-4.61.65-.79,1.8.07,1.15.86Z"/>
    <path class="cls-3" d="m318.76,121.54c-1.58,0-3.02.65-4.1,1.66h0c-1.01,1.08-1.73,2.52-1.73,4.1,0,3.24,2.66,5.83,5.83,5.83,1.66,0,3.1-.65,4.1-1.66h0c1.08-1.08,1.73-2.52,1.73-4.18,0-3.17-2.59-5.76-5.83-5.76Z"/>
    <path class="cls-1" d="m214.72,126.14c-.07.79-2.59,3.96-3.31,4.32h2.23c.5-.36.86-.72,1.08-1.22.22.5.58.86,1.08,1.22h2.23c-.72-.36-3.24-3.53-3.31-4.32Z"/>
    <path class="cls-1" d="m214.72,114.12c-.07.72-2.59,3.31-3.31,3.6h2.23c.5-.29.86-.58,1.08-1.01.22.43.58.72,1.08,1.01h2.23c-.72-.29-3.24-2.88-3.31-3.6Z"/>
    <path class="cls-3" d="m122.48,150.62c-2.02.65-2.95,1.73-3.1,2.81-.07.43,0,.86.07,1.22.14.43.43.79.72,1.08.79.86,2.16,1.3,3.6.79,32.62-10.3,61.78-15.48,90.94-15.48s58.32,5.18,90.94,15.48c1.44.5,2.81.07,3.6-.79.29-.29.58-.65.72-1.08.07-.36.14-.79.07-1.22-.14-1.08-1.08-2.16-3.1-2.81-30.02-10.15-61.13-15.26-92.23-15.26s-62.21,5.11-92.23,15.26Z"/>
    <path class="cls-1" d="m172.88,131.9l-1.01.86c-4.61,4.18-10.3,5.18-17.06,3.24l-1.37-.43,1.15-.79c2.59-1.94,5.33-3.1,8.14-3.53,2.81-.5,5.76-.36,8.78.36l1.37.29Z"/>
    <path class="cls-1" d="m187.93,116.14c0,.58-2.23,3.1-2.88,3.46l2.23-.29c.43-.29.72-.58,1.01-.94.29.29.72.58,1.15.72l2.23-.22c-.72-.14-3.53-2.16-3.74-2.74Z"/>
    <path class="cls-1" d="m160,119.45c.07.65-1.87,3.6-2.45,4.03l2.16-.5c.43-.36.72-.72.86-1.15.36.29.79.5,1.3.65l2.16-.5c-.72-.07-3.82-1.94-4.03-2.52Z"/>
    <path class="cls-1" d="m130.04,127.3c.07.65-1.58,3.74-2.16,4.18l2.09-.65c.36-.36.65-.72.79-1.15.36.29.79.43,1.3.58l2.16-.65c-.72-.07-3.89-1.73-4.18-2.3Z"/>
    <path class="cls-2" d="m169.79,132.7c-2.38-.43-4.61-.43-6.77-.07-2.23.36-4.32,1.15-6.34,2.45,5.04,1.15,9.43.36,13.1-2.38Z"/>
    <path class="cls-1" d="m256.55,131.9l1.01.86c4.68,4.18,10.3,5.18,17.06,3.24l1.37-.43-1.15-.79c-2.59-1.94-5.33-3.1-8.14-3.53-2.81-.5-5.76-.36-8.78.36l-1.37.29Z"/>
    <path class="cls-1" d="m241.5,116.14c0,.58,2.23,3.1,2.88,3.46l-2.23-.29c-.43-.29-.72-.58-1.01-.94-.29.29-.72.58-1.15.72l-2.23-.22c.72-.14,3.53-2.16,3.74-2.74Z"/>
    <path class="cls-1" d="m269.44,119.45c-.07.65,1.87,3.6,2.45,4.03l-2.16-.5c-.36-.36-.65-.72-.86-1.15-.36.29-.79.5-1.3.65l-2.16-.5c.72-.07,3.82-1.94,4.03-2.52Z"/>
    <path class="cls-1" d="m299.39,127.3c-.07.65,1.58,3.74,2.16,4.18l-2.09-.65c-.36-.36-.65-.72-.79-1.15-.36.29-.79.43-1.3.58l-2.16-.65c.72-.07,3.89-1.73,4.18-2.3Z"/>
    <path class="cls-2" d="m259.64,132.7c2.38-.43,4.61-.43,6.77-.07,2.23.36,4.32,1.15,6.34,2.45-5.04,1.15-9.43.36-13.1-2.38Z"/>
    <path class="cls-1" d="m273.47,103.46c-.22,6.34-.07,4.68,5.54,7.63-2.66-.79-5.33-1.3-7.7.29-1.3-2.59-3.82-3.46-6.55-4.1,6.34.22,5.69,1.73,8.71-3.82Z"/>
    <path class="cls-3" d="m206.08,113.83c1.66,0,3.02-1.37,3.02-3.02s-1.37-2.95-3.02-2.95-2.95,1.3-2.95,2.95,1.3,3.02,2.95,3.02Z"/>
    <path class="cls-1" d="m155.96,103.46c.22,6.34.07,4.68-5.54,7.63,2.66-.79,5.33-1.3,7.7.29,1.3-2.59,3.82-3.46,6.55-4.1-6.34.22-5.69,1.73-8.71-3.82Z"/>
    <path class="cls-3" d="m214.72,85.46c-2.02,0-3.67,1.66-3.67,3.74s1.66,3.67,3.67,3.67,3.67-1.66,3.67-3.67-1.66-3.74-3.67-3.74Z"/>
    <path class="cls-3" d="m214.72,62.06c-2.52,0-4.54,2.09-4.54,4.61s2.02,4.54,4.54,4.54,4.54-2.02,4.54-4.54-2.02-4.61-4.54-4.61Z"/>
    <path class="cls-3" d="m214.72,50.83c-2.3,0-4.18,1.94-4.18,4.25s1.87,4.18,4.18,4.18,4.18-1.87,4.18-4.18-1.87-4.25-4.18-4.25Z"/>
    <path class="cls-3" d="m214.72,74.02c-2.38,0-4.39,2.02-4.39,4.46s2.02,4.39,4.39,4.39,4.39-2.02,4.39-4.39-2.02-4.46-4.39-4.46Z"/>
    <ellipse class="cls-3" cx="214.72" cy="25.99" rx="9" ry="9.07"/>
    <path class="cls-3" d="m284.92,91.51c-2.16,0-3.89,1.73-3.89,3.89s1.73,3.96,3.89,3.96c1.08,0,2.09-.43,2.81-1.15h0c.72-.72,1.15-1.73,1.15-2.81,0-2.16-1.8-3.89-3.96-3.89Z"/>
    <path class="cls-3" d="m294.92,71.86c-1.15,0-2.23.5-3.02,1.3h0c-.79.79-1.3,1.87-1.3,3.02,0,2.38,1.94,4.32,4.32,4.32,1.22,0,2.3-.5,3.02-1.22h0c.79-.79,1.3-1.87,1.3-3.1,0-2.38-1.94-4.32-4.32-4.32Z"/>
    <path class="cls-3" d="m290.75,82.15c-1.15,0-2.23.43-2.95,1.22-.79.72-1.22,1.8-1.22,2.95,0,2.23,1.87,4.1,4.18,4.1,1.15,0,2.16-.43,2.88-1.22.79-.72,1.22-1.73,1.22-2.88,0-2.3-1.87-4.18-4.1-4.18Z"/>
    <path class="cls-3" d="m295.72,61.56c-1.15,0-2.23.43-3.02,1.22h0c-.79.79-1.22,1.87-1.22,3.02,0,2.38,1.94,4.32,4.25,4.32,1.22,0,2.3-.5,3.1-1.22h0c.79-.79,1.22-1.87,1.22-3.1,0-2.38-1.94-4.25-4.32-4.25Z"/>
    <path class="cls-3" d="m294.92,50.47c-1.22,0-2.3.5-3.1,1.3h0c-.79.79-1.3,1.87-1.3,3.1,0,2.45,1.94,4.39,4.39,4.39,1.22,0,2.3-.5,3.1-1.3h0c.86-.79,1.3-1.87,1.3-3.1,0-2.45-1.94-4.39-4.39-4.39Z"/>
    <path class="cls-3" d="m295.93,39.24c-2.38,0-4.32,1.94-4.32,4.32s1.94,4.39,4.32,4.39,4.39-1.94,4.39-4.39-1.94-4.32-4.39-4.32Z"/>
    <path class="cls-3" d="m284.99,36.07c-2.45,0-4.39,2.02-4.39,4.39s1.94,4.39,4.39,4.39,4.32-2.02,4.32-4.39-1.94-4.39-4.32-4.39Z"/>
    <path class="cls-3" d="m275.12,32.4c-1.15,0-2.23.43-3.02,1.22h0c-.79.79-1.3,1.87-1.3,3.02,0,2.38,1.94,4.32,4.32,4.32,1.15,0,2.23-.5,3.02-1.3h0c.79-.72,1.3-1.8,1.3-3.02,0-2.38-1.94-4.25-4.32-4.25Z"/>
    <path class="cls-3" d="m264.04,31.03c-1.08,0-2.16.43-2.88,1.15h0c-.72.79-1.22,1.8-1.22,2.95,0,2.23,1.87,4.1,4.1,4.1,1.15,0,2.16-.5,2.95-1.22h0c.72-.79,1.15-1.8,1.15-2.88,0-2.3-1.8-4.1-4.1-4.1Z"/>
    <path class="cls-3" d="m253.67,29.52c-1.15,0-2.16.43-2.88,1.15h0c-.79.79-1.22,1.8-1.22,2.95,0,2.23,1.87,4.1,4.1,4.1,1.15,0,2.16-.5,2.88-1.22h0c.79-.72,1.22-1.8,1.22-2.88,0-2.3-1.87-4.1-4.1-4.1Z"/>
    <path class="cls-3" d="m243.52,28.01c-1.15,0-2.16.43-2.88,1.15-.72.79-1.22,1.8-1.22,2.88,0,2.23,1.87,4.03,4.1,4.03,1.08,0,2.09-.43,2.81-1.15.72-.79,1.22-1.8,1.22-2.88,0-2.23-1.87-4.03-4.03-4.03Z"/>
    <path class="cls-3" d="m233.94,27.29c-2.16,0-3.89,1.73-3.89,3.82s1.73,3.82,3.89,3.82,3.82-1.73,3.82-3.82-1.73-3.82-3.82-3.82Z"/>
    <path class="cls-3" d="m306.3,43.13c-1.22,0-2.38.5-3.17,1.3h0c-.86.86-1.37,1.94-1.37,3.24,0,2.45,2.02,4.54,4.54,4.54,1.22,0,2.38-.5,3.17-1.37h.07c.79-.79,1.3-1.94,1.3-3.17,0-2.52-2.02-4.54-4.54-4.54Z"/>
    <path class="cls-3" d="m316.67,45.07c-1.3,0-2.38.5-3.24,1.3h0c-.79.86-1.3,1.94-1.3,3.24,0,2.45,2.02,4.54,4.54,4.54,1.22,0,2.38-.58,3.17-1.37h0c.86-.79,1.37-1.94,1.37-3.17,0-2.52-2.09-4.54-4.54-4.54Z"/>
    <path class="cls-3" d="m327.68,47.38c-1.44,0-2.74.58-3.67,1.51-.94,1.01-1.58,2.3-1.58,3.74,0,2.88,2.38,5.26,5.26,5.26,1.44,0,2.81-.65,3.74-1.58.94-.94,1.51-2.23,1.51-3.67,0-2.88-2.38-5.26-5.26-5.26Z"/>
    <path class="cls-3" d="m338.56,52.99c-1.51,0-2.88.65-3.89,1.66h0c-1.01,1.01-1.66,2.38-1.66,3.89,0,3.02,2.52,5.54,5.54,5.54,1.51,0,2.88-.65,3.89-1.66h0c1.01-1.01,1.66-2.38,1.66-3.89,0-3.02-2.52-5.54-5.54-5.54Z"/>
    <path class="cls-3" d="m347.77,63c-3.1,0-5.69,2.59-5.69,5.69s2.59,5.76,5.69,5.76,5.76-2.59,5.76-5.76-2.59-5.69-5.76-5.69Z"/>
    <path class="cls-3" d="m352.96,76.18c-3.1,0-5.54,2.52-5.54,5.54s2.45,5.54,5.54,5.54,5.47-2.52,5.47-5.54-2.45-5.54-5.47-5.54Z"/>
    <path class="cls-3" d="m352.52,89.71c-2.66,0-4.9,2.23-4.9,4.9s2.23,4.9,4.9,4.9,4.82-2.23,4.82-4.9-2.16-4.9-4.82-4.9Z"/>
    <path class="cls-3" d="m349.36,100.87c-2.3,0-4.25,1.94-4.25,4.25s1.94,4.25,4.25,4.25,4.25-1.87,4.25-4.25-1.87-4.25-4.25-4.25Z"/>
    <path class="cls-3" d="m344.96,110.3c-2.3,0-4.25,1.94-4.25,4.32s1.94,4.25,4.25,4.25,4.32-1.94,4.32-4.25-1.94-4.32-4.32-4.32Z"/>
    <path class="cls-3" d="m301.33,71.64c-.43,4.1-1.44,8.06-3.02,11.66-1.73,3.89-3.74,7.7-6.05,11.16-2.16,3.31-4.61,6.34-7.06,8.64-.43.5-.72.86-.65,1.3.07.5.43,1.15,1.15,2.09.22.22.43.43.65.58.79.5,1.73.36,2.81-.29,1.22-.79,2.52-2.16,3.82-3.82,2.74-3.53,5.47-8.5,7.49-12.89,2.59-5.47,3.96-10.22,4.61-15.12.65-5.62.36-11.23,0-16.85-.22-2.38-.36-5.4-2.81-5.76-.65-.07-.94.58-1.08,1.44-.14,1.15,0,2.66.14,3.67.5,4.68.58,9.5,0,14.18Z"/>
    <path class="cls-3" d="m282.61,54.58c1.22,4.18,1.73,8.28,1.58,12.38-.22,4.1-1.01,8.14-2.45,12.17-.79,2.3-1.8,4.32-2.95,6.26-1.22,1.94-2.52,3.82-3.82,5.69-1.22,1.66-1.58,2.66-1.37,3.17.22.5.94.79,2.02,1.08,3.1.72,4.32-1.37,5.62-3.6.36-.58.72-1.22,1.15-1.87,3.96-5.83,6.26-11.81,7.13-17.78.94-6.41.29-12.82-1.73-18.86-.36-1.15-1.08-2.74-2.09-3.82-.65-.72-1.37-1.22-2.16-1.22-1.73.07-1.94,1.08-2.09,2.09-.22,1.51.72,2.74,1.15,4.32Z"/>
    <path class="cls-3" d="m144.52,91.51c2.16,0,3.89,1.73,3.89,3.89s-1.73,3.96-3.89,3.96c-1.08,0-2.09-.43-2.81-1.15h0c-.72-.72-1.15-1.73-1.15-2.81,0-2.16,1.8-3.89,3.96-3.89Z"/>
    <path class="cls-3" d="m134.51,71.86c1.15,0,2.23.5,3.02,1.3h0c.79.79,1.3,1.87,1.3,3.02,0,2.38-1.94,4.32-4.32,4.32-1.22,0-2.3-.5-3.02-1.22h0c-.79-.79-1.3-1.87-1.3-3.1,0-2.38,1.94-4.32,4.32-4.32Z"/>
    <path class="cls-3" d="m138.68,82.15c1.15,0,2.23.43,2.95,1.22.79.72,1.22,1.8,1.22,2.95,0,2.23-1.87,4.1-4.18,4.1-1.15,0-2.16-.43-2.88-1.22-.79-.72-1.22-1.73-1.22-2.88,0-2.3,1.87-4.18,4.1-4.18Z"/>
    <path class="cls-3" d="m133.72,61.56c1.15,0,2.23.43,3.02,1.22h0c.79.79,1.22,1.87,1.22,3.02,0,2.38-1.94,4.32-4.25,4.32-1.22,0-2.3-.5-3.1-1.22h0c-.79-.79-1.22-1.87-1.22-3.1,0-2.38,1.94-4.25,4.32-4.25Z"/>
    <path class="cls-3" d="m134.51,50.47c1.22,0,2.3.5,3.1,1.3h0c.79.79,1.3,1.87,1.3,3.1,0,2.45-1.94,4.39-4.39,4.39-1.22,0-2.3-.5-3.1-1.3h0c-.86-.79-1.3-1.87-1.3-3.1,0-2.45,1.94-4.39,4.39-4.39Z"/>
    <path class="cls-3" d="m133.5,39.24c2.38,0,4.32,1.94,4.32,4.32s-1.94,4.39-4.32,4.39-4.39-1.94-4.39-4.39,1.94-4.32,4.39-4.32Z"/>
    <path class="cls-3" d="m144.44,36.07c2.45,0,4.39,2.02,4.39,4.39s-1.94,4.39-4.39,4.39-4.32-2.02-4.32-4.39,1.94-4.39,4.32-4.39Z"/>
    <path class="cls-3" d="m154.31,32.4c1.15,0,2.23.43,3.02,1.22h0c.79.79,1.3,1.87,1.3,3.02,0,2.38-1.94,4.32-4.32,4.32-1.15,0-2.23-.5-3.02-1.3h0c-.79-.72-1.3-1.8-1.3-3.02,0-2.38,1.94-4.25,4.32-4.25Z"/>
    <path class="cls-3" d="m165.4,31.03c1.08,0,2.16.43,2.88,1.15h0c.72.79,1.22,1.8,1.22,2.95,0,2.23-1.87,4.1-4.1,4.1-1.15,0-2.16-.5-2.88-1.22h0c-.79-.79-1.22-1.8-1.22-2.88,0-2.3,1.8-4.1,4.1-4.1Z"/>
    <path class="cls-3" d="m175.76,29.52c1.15,0,2.16.43,2.88,1.15h0c.79.79,1.22,1.8,1.22,2.95,0,2.23-1.87,4.1-4.1,4.1-1.15,0-2.16-.5-2.88-1.22h0c-.79-.72-1.22-1.8-1.22-2.88,0-2.3,1.87-4.1,4.1-4.1Z"/>
    <path class="cls-3" d="m185.92,28.01c1.15,0,2.16.43,2.88,1.15.72.79,1.22,1.8,1.22,2.88,0,2.23-1.87,4.03-4.1,4.03-1.08,0-2.09-.43-2.81-1.15-.72-.79-1.22-1.8-1.22-2.88,0-2.23,1.87-4.03,4.03-4.03Z"/>
    <path class="cls-3" d="m195.49,27.29c2.16,0,3.89,1.73,3.89,3.82s-1.73,3.82-3.89,3.82-3.82-1.73-3.82-3.82,1.73-3.82,3.82-3.82Z"/>
    <path class="cls-3" d="m123.13,43.13c1.22,0,2.38.5,3.17,1.3h0c.86.86,1.37,1.94,1.37,3.24,0,2.45-2.02,4.54-4.54,4.54-1.22,0-2.38-.5-3.17-1.37h-.07c-.79-.79-1.3-1.94-1.3-3.17,0-2.52,2.02-4.54,4.54-4.54Z"/>
    <path class="cls-3" d="m112.76,45.07c1.3,0,2.38.5,3.24,1.3h0c.79.86,1.3,1.94,1.3,3.24,0,2.45-2.02,4.54-4.54,4.54-1.22,0-2.38-.58-3.17-1.37h0c-.86-.79-1.37-1.94-1.37-3.17,0-2.52,2.09-4.54,4.54-4.54Z"/>
    <path class="cls-3" d="m101.75,47.38c1.44,0,2.74.58,3.67,1.51.94,1.01,1.58,2.3,1.58,3.74,0,2.88-2.38,5.26-5.26,5.26-1.44,0-2.81-.65-3.74-1.58-.94-.94-1.51-2.23-1.51-3.67,0-2.88,2.38-5.26,5.26-5.26Z"/>
    <path class="cls-3" d="m90.88,52.99c1.51,0,2.88.65,3.89,1.66h0c1.01,1.01,1.66,2.38,1.66,3.89,0,3.02-2.52,5.54-5.54,5.54-1.51,0-2.88-.65-3.89-1.66h0c-1.01-1.01-1.66-2.38-1.66-3.89,0-3.02,2.52-5.54,5.54-5.54Z"/>
    <path class="cls-3" d="m81.66,63c3.1,0,5.69,2.59,5.69,5.69s-2.59,5.76-5.69,5.76-5.76-2.59-5.76-5.76,2.59-5.69,5.76-5.69Z"/>
    <path class="cls-3" d="m76.48,76.18c3.1,0,5.54,2.52,5.54,5.54s-2.45,5.54-5.54,5.54-5.47-2.52-5.47-5.54,2.45-5.54,5.47-5.54Z"/>
    <path class="cls-3" d="m76.91,89.71c2.66,0,4.9,2.23,4.9,4.9s-2.23,4.9-4.9,4.9-4.82-2.23-4.82-4.9,2.16-4.9,4.82-4.9Z"/>
    <path class="cls-3" d="m80.08,100.87c2.3,0,4.25,1.94,4.25,4.25s-1.94,4.25-4.25,4.25-4.25-1.87-4.25-4.25,1.87-4.25,4.25-4.25Z"/>
    <path class="cls-3" d="m84.47,110.3c2.3,0,4.25,1.94,4.25,4.32s-1.94,4.25-4.25,4.25-4.32-1.94-4.32-4.25,1.94-4.32,4.32-4.32Z"/>
    <path class="cls-3" d="m128.1,71.64c.43,4.1,1.44,8.06,3.02,11.66,1.73,3.89,3.74,7.7,6.05,11.16,2.16,3.31,4.61,6.34,7.06,8.64.43.5.72.86.65,1.3-.07.5-.43,1.15-1.15,2.09-.22.22-.43.43-.65.58-.79.5-1.73.36-2.81-.29-1.22-.79-2.52-2.16-3.82-3.82-2.74-3.53-5.47-8.5-7.49-12.89-2.59-5.47-3.96-10.22-4.61-15.12-.65-5.62-.36-11.23,0-16.85.22-2.38.36-5.4,2.81-5.76.65-.07.94.58,1.08,1.44.14,1.15,0,2.66-.14,3.67-.5,4.68-.58,9.5,0,14.18Z"/>
    <path class="cls-3" d="m146.82,54.58c-1.22,4.18-1.73,8.28-1.58,12.38.22,4.1,1.01,8.14,2.45,12.17.79,2.3,1.8,4.32,3.02,6.26,1.15,1.94,2.45,3.82,3.74,5.69,1.22,1.66,1.58,2.66,1.37,3.17-.22.5-.94.79-2.02,1.08-3.1.72-4.32-1.37-5.62-3.6-.36-.58-.72-1.22-1.15-1.87-3.96-5.83-6.26-11.81-7.13-17.78-.94-6.41-.29-12.82,1.73-18.86.36-1.15,1.08-2.74,2.09-3.82.65-.72,1.37-1.22,2.16-1.22,1.73.07,1.94,1.08,2.09,2.09.22,1.51-.72,2.74-1.15,4.32Z"/>
    <path class="cls-3" d="m95.27,118.87c1.15-.29,2.38-.36,3.53-.22.94.14,1.15-.86.72-1.51-2.59-3.46-4.9-7.2-6.7-11.09-2.16-4.54-3.6-9.29-4.03-14.11-.72-8.57,2.45-16.85,8.28-23.69-3.6,1.58-7.49,3.53-10.37,7.49-5.11,6.91-4.61,15.77-2.45,23.69,1.87,6.62,5.26,12.96,9.36,18.79.43.58,1.01.79,1.66.65Z"/>
    <path class="cls-3" d="m329.99,60.84c-1.01-.58-2.02-1.08-3.1-1.58-1.51-.72-3.67,1.01-2.02,2.16,1.3.94,2.52,1.94,3.74,3.02,1.66,1.51,4.82-1.58,1.37-3.6Z"/>
    <path class="cls-3" d="m327.11,120.82c-1.37,1.66-1.8,3.46-1.51,4.75.22.65.65,1.22,1.37,1.3,1.01,0,2.45-.72,4.1-2.66,6.26-7.27,11.59-15.77,14.11-24.77,2.02-7.42,2.09-15.05-1.01-22.46-2.09-4.97-5.11-9-8.71-12.24-2.09-1.73-4.46,1.87-3.02,3.6,5.83,6.84,8.93,15.12,8.21,23.62-.43,4.82-1.87,9.58-4.03,14.11-2.45,5.33-5.9,10.3-9.5,14.76Z"/>
    <path class="cls-2" d="m164.39,69.84c-2.81,3.46-7.2,4.03-8.57,8.21-.65,1.87.94,3.38,2.45,3.82,1.73.58,2.59-2.02,4.46-2.66-.79.94-1.37,2.23-.86,2.95.58-.86,1.08-1.44,2.52-1.8-2.3,3.31-1.3,3.89.43,3.67,1.01-.07,1.66-1.01,2.88-1.58-.07.29-3.24,3.24-.65,3.46.58.07,2.45-.79,2.95-1.3-.14,1.15-1.94,1.58-.22,2.52.94.58,2.09-.5,2.95-.86-2.09,2.88-1.08,3.46.22,3.02.94-.36,1.73-1.37,3.24-1.37-.86.72-1.58.86-1.58,1.8.07,3.02,2.88,2.81,4.46,2.52-1.15.86,0,4.32.5,4.39,2.95.36,3.67-.5,6.41-1.3,3.96-1.22,4.75-6.55,4.68-13.39-.07-5.98-.79-12.1-1.8-13.97-1.22-.36-4.1,1.3-4.1,3.02-.22-.79-.72-1.44-1.15-1.44-.94.07-1.87,1.44-2.66,1.8-2.88,1.3-.43-2.59-.43-2.81-4.03-.14-4.03,5.54-4.03-.36-2.81-.43-4.68,5.33-4.46.29-1.8-1.58-3.17-.07-4.25,1.22-.79,1.01-1.51,1.87-1.58,1.44-.14-.86.36-2.38.22-2.81-.29-.79-1.8,1.22-2.02,1.51Z"/>
    <path class="cls-2" d="m243.73,65.38c.36,2.59,0,3.82-.36,5.18-1.87,5.98.86,11.59.65,17.64,2.3,1.37,2.09-.94,2.81-2.81,1.37-5.98,6.98,9.22,13.39,2.81,2.09-2.74,6.05-5.69,10.15-5.33,5.4,3.31,3.02-12.02,1.51-12.82-.58-.29-1.8.43-1.8.22-.14-1.3-.65-2.16-1.37-2.16-1.3-.29-1.8.65-2.09,2.02-.14.94-1.15.29-1.08-1.73-.72.65-1.22,2.02-1.51,2.23-.58.43.14,0-.43-1.73-.5-1.66-1.15-2.59-1.8.22-.43,1.8-2.59,4.75-5.9,2.81-1.51-.94-1.8-5.47-4.18-5.98-1.22-.22-.29,1.3-1.3,1.15-.29-.07-.5-.86-1.08-1.3-1.01-.72.43.36-2.45-3.38-2.52-3.1-3.46,1.3-3.17,2.95Z"/>
    <path class="cls-2" d="m303.13,108.07c-1.51.14-2.52.86-2.88,2.23-.79,3.17,4.54,2.3,7.7,1.87,5.11-.65,4.68,3.67,7.63,2.66,1.73-.58.79-7.42,3.02-9.58,1.15-1.08,3.89-2.23,4.32-3.38.86-2.3-.79-4.32-4.1-5.18-1.37-.29-1.58-1.73-3.6-1.58-2.66.14-3.53,2.3-4.82,4.32-1.01,1.51-2.09,3.02-3.89,3.74-2.23.86-2.45,3.24-3.38,4.9Z"/>
    <path class="cls-2" d="m122.7,104.18c3.17,4.25,7.42,7.56,10.15,7.34,2.23-.36,3.38-3.02,2.09-5.9-2.74-6.26-7.92-8.14-8.06-15.26-4.1-1.87-8.71-.43-13.61,2.02-5.98,4.39-11.74,7.27-21.89,6.19,1.3,4.54,3.38,8.86,5.83,12.82,2.81.07,4.82-1.15,5.26-3.53.29-1.22,1.3-3.53,3.24-3.53-1.37,1.01-2.45,3.6-1.08,4.18,2.38,1.08,3.6-5.62,5.76-6.12-.58,1.3-3.02,4.54-.43,4.54,2.02-.36,1.87-4.03,3.96-3.82.29,1.15-.29,3.89,1.37,3.82,2.3-.58,1.58-3.89,3.02-3.89-.36,3.31,3.38,2.74,4.39,1.15Z"/>
    <path class="cls-2" d="m261.16,149.98c1.73.86,4.75,1.01,7.13.94,4.46-.14,1.8,2.81,4.61,2.81,4.61,0,8.06,5.4,3.82,7.49-1.01.5-2.74.43-4.61.43-1.66.5,3.38,2.59-1.37,3.31-1.8.29-6.98-1.22-6.98,1.94,0,1.8-5.4,2.88-6.91,3.1-13.46,1.87-27.86,2.81-42.12,2.81-9.29,0-18.65-.43-27.72-1.15-3.1-.29-3.17-2.74-6.19-3.53-1.66-.43-3.82-.22-6.05-.43-4.97-.5-4.39-4.18-8.93-3.46-4.03.65-7.99-2.02-7.34-4.03.43-1.15,2.95-1.8,6.7-2.16-2.66-1.08-1.94-.65-4.82-.72-3.38-.07-4.25-.65-3.31-1.66.79-.79,5.9-1.08,2.52-1.73-5.11-1.01,3.89-3.38,4.82-3.82,3.67-1.58,6.84-3.89,10.87-4.54,13.39-2.09,26.42-3.1,39.46-3.1,10.87,0,21.74.72,32.76,2.16,4.82.58,9.43,3.24,13.68,5.33Z"/>
  </g>
</svg>