<?xml version="1.0" encoding="UTF-8"?>
<svg id="Layer_2" data-name="Layer 2" xmlns="http://www.w3.org/2000/svg" viewBox="0 0 154.41 175.75">
  <defs>
    <style>
      .cls-1 {
        fill: #3e9692;
      }

      .cls-1, .cls-2, .cls-3, .cls-4, .cls-5, .cls-6, .cls-7, .cls-8, .cls-9 {
        fill-rule: evenodd;
        stroke-width: 0px;
      }

      .cls-2 {
        fill: #23c1e0;
      }

      .cls-3 {
        fill: #167fb6;
      }

      .cls-4 {
        fill: #231f20;
      }

      .cls-5 {
        fill: #378cbf;
      }

      .cls-6 {
        fill: #fff;
      }

      .cls-7 {
        fill: #e67f29;
      }

      .cls-8 {
        fill: #fed75d;
      }

      .cls-9 {
        fill: #f1a92a;
      }
    </style>
  </defs>
  <g id="Layer_1-2" data-name="Layer 1">
    <g>
      <path class="cls-4" d="m148.58,1.3l-.4-1.3-1.16.71c-23.59,14.43-46.9,14.39-69.27-.14l-.6-.39-.56.41-.39.27.17-.14c-22.3,14.42-45.56,14.42-69.12-.01l-1.16-.71-.4,1.3C1.89,13.54,0,26.14,0,38.86c0,17.24,3.46,34.68,10.35,51.71,12.03,29.54,34.2,57.96,65.9,84.47l.15.12.76.58.68-.56C114.78,144.37,173.09,80.8,148.58,1.3h0Z"/>
      <path class="cls-2" d="m17.84,37.14h-2.67v-4.16h3.25v1.14h2.25v-1.14h.61v-2.89c-1.11-.41-1.91-1.49-1.91-2.77,0-1.56,1.32-2.88,2.88-2.88s2.96,1.29,2.96,2.88c0,1.29-.83,2.37-1.98,2.78v2.88h.53v1.14h2.32v-1.14h2.86v4.16h-2.9v1.41h12.39v-1.41h-2.67v-4.16h3.25v1.14h2.32v-1.14h.61v-2.86c-1.15-.39-1.98-1.49-1.98-2.8,0-1.56,1.32-2.88,2.88-2.88s2.96,1.29,2.96,2.88c0,1.26-.8,2.33-1.91,2.76v2.91h.46v1.14h2.32v-1.14h2.87v4.16h-2.9v1.41h4.96v2.36h29.72l27.88-20.76c-11.37-.61-22.04-3.89-32.04-9.76-.08.08-.15.08-.23.15-20.82,12.13-43.78,12.66-65.37,2.44-1.82,8.73-2.72,17.21-2.76,25.57h9.03v-1.41h0Z"/>
      <path class="cls-9" d="m147.56,1.62c-23.19,14.19-47.14,14.95-70.4-.15-.08.08-.15.08-.23.15C54.05,16.41,30.1,15.95,6.68,1.62-1.55,28.24-1.48,58.52,11.34,90.17c11.21,27.53,32.04,55.99,65.6,84.05.08,0,.15.08.23.15C127.81,132.12,168.84,70.64,147.56,1.62h0Zm-70.1,163.84c-.08.08-.31.08-.53.08,0-.08-.08-.08-.15-.08-16.86-14.49-31.04-30.28-43.55-48.43-.15-.23-.15-.61.08-.76l41.26-30.72c-2.06-.21-4.03-.72-5.85-1.48l-37.93,28.24c-.23.23-.61.15-.76-.15l-5.26-9-4.65-9.3c-.08-.23,0-.53.23-.69l35.16-26.2c-.13-.96-.23-1.94-.23-2.94,0-.84.08-1.67.19-2.49l-36.72,27.35c-.23.15-.69.08-.84-.23C7.75,63.17,5.01,38.99,10.65,12.07c.08-.31.46-.53.76-.38,21.59,10.53,44.55,10.07,65.44-2.36h.08c.15-.08.38-.08.46,0,10.37,6.1,21.51,9.46,33.41,9.84.46,0,.61.61.3.92l-30.66,22.84c1,.17,1.98.37,2.9.65.8.26,1.56.57,2.32.91l34.6-25.78c.08,0,.23-.08.23-.08.46-.08.76-.08.76-.15.15,0,.38,0,.69-.08,7.25-1.3,14.26-3.43,20.9-6.71.3-.15.69.08.76.38.46,2.36.92,4.65,1.3,6.94.38,2.36.76,4.65,1.07,7.02v.23c0,.15-.15.38-.23.46l-47.48,35.35c.07.69.12,1.39.11,2.1,0,1.35-.14,2.66-.39,3.94l47.61-35.44c.3-.23.84,0,.84.38l.15,2.67c.38,52.78-30.21,96.49-69.11,129.74h0Z"/>
      <path class="cls-6" d="m92.04,48.83c3.22,3.22,5.41,7.4,6.09,12.04l46.77-34.85c-.3-2.29-.69-4.58-1.07-6.79-.31-2.14-.69-4.2-1.14-6.25-6.56,3.05-14.11,5.64-21.36,6.56-.23.08-.46.08-.53.08l-34.06,25.37c.87.45,1.7.94,2.48,1.48.99.69,1.91,1.52,2.82,2.36h0Z"/>
      <path class="cls-6" d="m61.53,79.26c-2.97-2.97-5.04-6.83-5.86-11.14l-34.41,25.63,4.42,8.92,4.96,8.47,37.01-27.57c-.13-.07-.27-.12-.4-.19-2.14-1.07-4.04-2.44-5.72-4.12h0Z"/>
      <path class="cls-3" d="m145.43,34.11l-47.81,35.6c-.88,3.31-2.53,6.3-4.73,8.78-.28.31-.55.63-.84.93-.91.84-1.83,1.6-2.82,2.36-.96.67-2,1.26-3.09,1.78-.89.43-1.82.8-2.78,1.11-1.22.36-2.49.63-3.8.8-.91.12-1.83.2-2.76.2h-.08c-.17,0-.34-.01-.51-.02l-41.82,31.14c12.2,17.77,26.16,33.26,42.56,47.37.08.08.15.08.23.15.87-.75,1.73-1.5,2.59-2.26,2.14-1.89,4.26-3.8,6.34-5.75,2.29-2.14,4.54-4.32,6.75-6.54,2.27-2.29,4.5-4.61,6.68-6.98,2.5-2.71,4.93-5.47,7.28-8.29,2.25-2.7,4.43-5.45,6.53-8.24,2.54-3.38,4.97-6.83,7.27-10.35,2.38-3.63,4.61-7.34,6.7-11.12,2.79-5.05,5.3-10.23,7.52-15.53,2.55-6.11,4.69-12.39,6.38-18.84,2.89-11.05,4.46-22.59,4.39-34.62l-.15-1.68h0Z"/>
      <path class="cls-6" d="m120.65,52.56l-.05,63.34c2.38-3.63,4.61-7.34,6.7-11.12l.02-57.18-6.67,4.96h0Z"/>
      <path class="cls-6" d="m106.84,62.84l-.04,71.65c2.25-2.7,4.43-5.45,6.53-8.24l.02-68.26-6.52,4.85h0Z"/>
      <path class="cls-6" d="m134.61,42.16l.21,47.08c2.55-6.11,4.69-12.39,6.38-18.84v-33.14s-6.58,4.9-6.58,4.9h0Z"/>
      <path class="cls-6" d="m97.61,69.71c-.88,3.31-2.53,6.3-4.73,8.78l-.04,71.27c2.27-2.29,4.5-4.61,6.68-6.98l.03-74.51-1.93,1.44h0Z"/>
      <path class="cls-6" d="m79.54,85.48l.21,76.57c2.14-1.89,4.26-3.8,6.34-5.75l.03-72.73c-.89.43-1.82.8-2.78,1.11-1.22.36-2.49.63-3.8.8h0Z"/>
      <path class="cls-8" d="m76.7,43.72c-3.43,0-6.64.92-9.46,2.44-.38.23-.76.38-1.14.61.38.23.76.46,1.14.76.84.53,1.68,1.14,2.44,1.91,1.22.99,2.21,2.21,3.13,3.58,1.45-1.3,2.75-2.82,3.89-4.58.92-1.37,1.75-2.9,2.52-4.58-.76-.08-1.53-.15-2.29-.15h-.23Z"/>
      <path class="cls-8" d="m89.21,74.38c-.84-.99-1.91-1.91-3.2-2.75-.76.46-1.45.92-2.14,1.45-.15.15-.38.31-.53.46-2.67,2.21-4.88,4.96-6.64,8.24-.46.84-.92,1.75-1.3,2.67.46,0,.84.08,1.3.08h.08c2.29,0,4.5-.38,6.56-1.07,2.14-.76,4.12-1.83,5.87-3.13.69-.53,1.37-1.14,1.98-1.75,0-.08.08-.08.08-.15-.31-1.3-.84-2.44-1.68-3.59-.15-.15-.23-.31-.38-.46h0Z"/>
      <path class="cls-8" d="m71.21,55.92c-1.22.92-2.59,1.68-3.97,2.36-.69.3-1.3.61-1.98.92.08,3.58.69,6.56,1.98,9.08.38.84.92,1.6,1.45,2.36,1.83,2.44,4.5,4.2,8.01,5.34.69.23,1.37.38,2.06.53,1.3-1.6,2.75-3.05,4.42-4.35,0,0,.08-.08.15-.15,1.75-1.3,3.74-2.44,5.87-3.36.92-.38,1.83-.76,2.82-1.07,1.6-.53,3.28-.92,5.04-1.22.08-.69.15-1.45.15-2.21,0-5.19-1.98-9.99-5.19-13.65-.84-.92-1.83-1.83-2.82-2.59-1.75-1.3-3.74-2.36-5.87-3.13-.92-.31-1.91-.53-2.9-.76-1.07,2.36-2.29,4.5-3.74,6.41-1.6,2.14-3.43,3.97-5.49,5.49h0Z"/>
      <path class="cls-8" d="m67.25,56.99c1.14-.61,2.21-1.3,3.28-2.06.46-.31.99-.69,1.45-1.07-.92-1.37-1.91-2.52-3.05-3.58-.53-.46-1.07-.92-1.68-1.37-.69-.46-1.45-.92-2.21-1.37-4.2,2.97-7.25,7.47-8.24,12.74,3.89-.61,7.4-1.68,10.45-3.28h0Z"/>
      <path class="cls-8" d="m92.19,77.43c2.44-2.75,4.12-6.1,4.73-9.84-1.75.31-3.36.69-4.88,1.22-.99.31-1.91.69-2.82,1.07-.76.38-1.45.69-2.14,1.07.84.53,1.53,1.14,2.14,1.75.46.46.92.92,1.3,1.45.69.84,1.14,1.75,1.52,2.67.08.23.15.46.15.61h0Z"/>
      <path class="cls-8" d="m67.25,82.09c2.14,1.14,4.42,1.91,6.94,2.21.76-1.68,1.6-3.36,2.52-4.81.38-.69.84-1.3,1.3-1.91-.46-.15-.84-.3-1.3-.38-3.89-1.22-6.86-3.2-8.92-5.87-.23-.23-.38-.46-.53-.76-1.98-2.9-2.98-6.48-3.13-10.91-2.29.84-4.81,1.45-7.48,1.83-.15.84-.15,1.68-.23,2.52,0,5.64,2.29,10.76,5.95,14.42,1.45,1.45,3.05,2.67,4.88,3.66h0Z"/>
      <path class="cls-5" d="m113.77,39.3c.38.84.53,1.6.38,2.29-.15.61-.46,1.14-1.07,1.6-.69.53-1.53.69-2.44.53-.84-.23-1.75-.99-2.75-2.29-.84-1.22-1.22-2.29-1.22-3.2.08-.92.53-1.6,1.22-2.21.53-.38,1.14-.61,1.75-.53.61,0,1.14.23,1.68.69l1.68-2.06c-.84-.61-1.68-.99-2.44-1.07-1.37-.15-2.67.23-3.81,1.14-1.07.84-1.83,1.75-2.21,2.9-.08.38-.15.76-.23,1.14-.08.76,0,1.53.23,2.36.31.84.76,1.68,1.45,2.59,1.14,1.6,2.52,2.59,4.04,2.82,1.6.31,3.05-.08,4.42-1.07,1.07-.84,1.83-1.83,2.14-2.9.31-1.07.15-2.29-.3-3.66l-2.52.92h0Z"/>
      <polygon class="cls-5" points="65.64 78.43 59.31 69.96 57.25 71.48 64.88 81.7 72.05 76.29 70.83 74.53 65.64 78.43 65.64 78.43"/>
      <polygon class="cls-5" points="44.36 80.94 41.31 83.31 44.67 91.7 37.58 86.05 34.45 88.34 42.15 98.64 44.06 97.19 38.03 89.1 46.12 95.66 48.1 94.21 44.06 84.6 50.16 92.69 52.07 91.24 44.36 80.94 44.36 80.94"/>
      <polygon class="cls-5" points="120.79 36.85 119.04 38.15 120.56 40.13 120.79 39.91 122.47 38.68 121.02 36.7 120.79 36.85 120.79 36.85"/>
      <polygon class="cls-5" points="132.54 28.08 130.56 29.61 132 31.59 133.99 30.07 132.54 28.08 132.54 28.08"/>
      <path class="cls-5" d="m51.76,75.45l-2.21,1.68,3.66,13.27,2.21-1.68-.92-2.98h.08l4.04-3.05,2.67,1.68,2.21-1.68-11.75-7.25h0Zm2.14,8.08l-1.45-4.81,4.27,2.75-2.82,2.06h0Z"/>
      <path class="cls-5" d="m93.03,44.63l-2.14,1.68,3.66,13.27,2.21-1.68-.92-2.9v-.08l4.12-3.05,2.59,1.68,2.29-1.68-11.82-7.25h0Zm2.14,8.08l-1.45-4.81,4.27,2.75-2.82,2.06h0Z"/>
      <polygon class="cls-5" points="126.51 26.18 122.24 29.38 120.41 26.94 125.37 23.2 124.07 21.45 117.06 26.71 124.68 37.01 126.74 35.48 123.54 31.06 127.81 27.93 126.51 26.18 126.51 26.18"/>
      <path class="cls-5" d="m71.21,60.96l-2.21,1.6,3.66,13.27,2.21-1.6-.84-2.9-.08-.08h.08l4.04-3.05,2.67,1.68v-.08l2.21-1.6-11.75-7.25h0Zm2.14,8.09l-1.45-4.88,4.27,2.82-2.82,2.06h0Z"/>
      <path class="cls-5" d="m89.37,54.86l-4.42,3.28,1.3,1.75,2.36-1.75.99,1.3c-.15.46-.38.92-.69,1.45-.31.46-.69.92-1.14,1.22-.84.69-1.83.92-2.82.69-.99-.23-1.91-.91-2.82-2.14-.84-1.14-1.22-2.21-1.14-3.2.15-.91.61-1.75,1.53-2.44.61-.46,1.22-.69,1.83-.69s1.22.23,1.75.61l1.75-1.91c-.92-.84-1.91-1.22-3.05-1.22s-2.29.46-3.58,1.45c-.15.08-.3.23-.46.31-.76.69-1.3,1.3-1.6,2.06-.53,1.07-.76,2.21-.53,3.36.15,1.14.61,2.29,1.45,3.36.23.3.46.61.69.84.61.61,1.22,1.07,1.91,1.45,1.07.53,2.14.76,3.28.61,1.14-.15,2.21-.61,3.28-1.45.84-.61,1.6-1.45,2.21-2.36.08-.15.15-.31.23-.46.46-.76.69-1.45.76-2.06l-.76-1.07-2.29-2.97h0Z"/>
      <polygon class="cls-4" points="74.04 17.1 75.26 17.1 75.26 20.3 76.02 20.3 76.02 17.1 77.16 17.1 77.16 16.41 74.04 16.41 74.04 17.1 74.04 17.1"/>
      <polygon class="cls-4" points="80.21 16.41 79.53 19.08 78.84 16.41 77.62 16.41 77.62 20.3 78.38 20.3 78.38 17.25 79.15 20.3 79.91 20.3 80.67 17.25 80.67 20.3 81.36 20.3 81.36 16.41 80.21 16.41 80.21 16.41"/>
      <path class="cls-1" d="m18.66,87.58l30.03-22.37H11.69c1.64,7.43,3.96,14.85,6.97,22.37h0Z"/>
      <path class="cls-7" d="m26.94,41.26c.08.25.91,2.92.95,3.06h8.61c.04-.13.92-2.83,1-3.08-.28,0-10.29.02-10.56.02h0Z"/>
      <path class="cls-7" d="m51.06,44.32v-3.1c-.19,0-3.28,0-3.54,0,.08.25.92,2.96.96,3.1h2.58Z"/>
      <path class="cls-7" d="m26.26,39.08c.07.22.44,1.42.48,1.54.15,0,10.82-.02,10.97-.02.04-.12.42-1.3.49-1.52h-11.94Z"/>
      <path class="cls-7" d="m47.33,40.59c.15,0,3.54,0,3.74,0v-1.5h-4.21c.07.22.43,1.38.47,1.51h0Z"/>
      <path class="cls-7" d="m26.6,34.66h-3.38v-1.14h-2.03v1.14h-3.31v-1.14h-2.19v3.1h12.71v-3.1h-1.8v1.14h0Z"/>
      <path class="cls-7" d="m27.23,44.32c-.08-.26-1.59-5.1-1.63-5.24h-7.32c-.05.14-1.62,4.98-1.7,5.24h10.65Z"/>
      <path class="cls-7" d="m18.37,38.44h7.14v-1.19h-7.14v1.19h0Z"/>
      <path class="cls-7" d="m47.2,34.66h-3.38v-1.14h-1.96v1.14h-3.38v-1.14h-2.19v3.1h12.71v-3.1h-1.8v1.14h0Z"/>
      <path class="cls-7" d="m47.82,44.32c-.08-.26-1.59-5.1-1.63-5.24h-7.32c-.05.14-1.62,4.98-1.7,5.24h10.65Z"/>
      <path class="cls-7" d="m38.96,38.44h7.14v-1.19h-7.14v1.19h0Z"/>
      <path class="cls-7" d="m47.05,52.66v.96h.97c-.23-.23-.74-.74-.97-.96h0Z"/>
      <path class="cls-7" d="m39.32,44.95h-2.65c.33.33,4.99,4.95,5.32,5.27v-1.18h1.42c-.33-.33-4.08-4.09-4.08-4.09h0Z"/>
      <path class="cls-7" d="m17.22,48.97v.11l-.03,1.27,1.17,1.22h2.73c-.89-.89-6.57-6.57-6.57-6.61h-2.73c.33.33,3.97,4.02,3.97,4.02h1.45Z"/>
      <path class="cls-7" d="m28.97,52.35s-.67-.67-.92-.92v2.19h.89c0-.18.03-1.27.03-1.27h0Z"/>
      <path class="cls-7" d="m28.5,50.6s-.16.07-.27.11c.13.13.5.5.71.71v-.38c0-.27-.23-.45-.44-.45h0Z"/>
      <path class="cls-7" d="m31.49,51.28v.29h.29c-.12-.12-.17-.17-.29-.29h0Z"/>
      <path class="cls-7" d="m28.95,48.74c-.77-.77-3.75-3.75-3.75-3.79h-2.73c.17.17.4.4.4.4,0,0,3.34,3.34,3.34,3.39h2.73Z"/>
      <path class="cls-7" d="m31.49,48.74v.11l-.03,1.5.86.86s.32.32.32.36c0,0,0,0,0,0h2.65c-.89-.89-6.57-6.57-6.57-6.61h-2.65c.17.17.4.4.4.4,0,0,3.34,3.34,3.34,3.39h1.68Z"/>
      <path class="cls-7" d="m38.87,51.56c-.34-.34-6.55-6.55-6.61-6.61h-2.69c.89.89,6.57,6.57,6.57,6.61h2.73Z"/>
      <path class="cls-7" d="m35.81,44.95h0-2.65c.89.89,6.57,6.57,6.57,6.61h2.27c0-.13.02-.41.02-.41l-5.25-5.2s-.97-.96-.97-1h0Z"/>
      <path class="cls-7" d="m46.96,49.05c-2.08-2.09-4.06-4.07-4.06-4.09h-2.72c.19.19.49.48.49.48,0,0,3.6,3.57,3.6,3.61h2.7Z"/>
      <path class="cls-7" d="m47.05,49.13s-.03,2.6-.03,2.6c0,0,1.86,1.85,1.86,1.89h2.65c-.57-.57-2.55-2.55-4.48-4.49h0Z"/>
      <path class="cls-7" d="m55.19,53.62c-1.21-1.2-8.7-8.63-8.7-8.67h-2.65c.33.33,4.46,4.46,4.46,4.46,0,0,4.16,4.16,4.16,4.2h2.72Z"/>
      <path class="cls-7" d="m25.05,54.26h-7.83v4.47h7.83v-4.47h0Z"/>
      <path class="cls-7" d="m25.69,58.73h5.62v-4.47h-5.62v4.47h0Z"/>
      <path class="cls-7" d="m29.58,53.62h12.41v-1.42h-12.41v1.42h0Z"/>
      <path class="cls-7" d="m20.43,53.62h2.57v-1.42h-3.95c.38.38,1.38,1.39,1.38,1.42h0Z"/>
      <path class="cls-7" d="m25.58,53.62h1.83v-1.42h-1.81c0,.18-.03,1.42-.03,1.42h0Z"/>
      <path class="cls-7" d="m42.62,58.73h3.79v-9.05h-3.79v9.05h0Z"/>
      <path class="cls-7" d="m23.63,53.62h1.35v-2.95h-1.35v2.95h0Z"/>
      <path class="cls-7" d="m29.58,51.04v.52h1.27v-2.19h-5.24v2.19h1.78c-.01-.15-.05-.51-.05-.52,0-.62.5-1.08,1.16-1.08.52,0,1.08.41,1.08,1.08h0Z"/>
      <path class="cls-7" d="m26.83,64.68h7.83v-5.31h-13.24c.35.34,5.41,5.31,5.41,5.31h0Z"/>
      <path class="cls-7" d="m17.83,59.37v5.31h5.47c-.34-.34-5.34-5.31-5.34-5.31h-.13Z"/>
      <path class="cls-7" d="m20.56,59.37h-1.73c.33.32,2.97,2.94,2.97,2.94,0,0,2.37,2.34,2.37,2.38h1.8c-.31-.3-1.93-1.88-1.93-1.88,0,0-3.48-3.39-3.48-3.43h0Z"/>
      <path class="cls-7" d="m35.3,59.37v5.31h5.7c-.34-.34-5.34-5.31-5.34-5.31h-.36Z"/>
      <path class="cls-7" d="m38.25,59.37h-1.73c.33.32,2.97,2.94,2.97,2.94,0,0,2.37,2.34,2.37,2.38h1.8c-.3-.3-1.74-1.7-1.74-1.7,0,0-3.67-3.57-3.67-3.62h0Z"/>
      <path class="cls-7" d="m17.22,51.27v2.35h2.35s-2.04-2.04-2.35-2.35h0Z"/>
      <path class="cls-7" d="m22.99,51.56v-1.53h.13c-.86-.85-5.08-5.05-5.08-5.08h-2.65c.34.34,6.55,6.55,6.61,6.61h1Z"/>
      <path class="cls-7" d="m21.62,44.95h-2.72c.86.85,5.08,5.05,5.08,5.08h1v-1.3h.39c-.77-.77-3.75-3.75-3.75-3.79h0Z"/>
      <path class="cls-7" d="m55.18,48.83c-.8-.31-1.42-1.37-2.27-3.88h-5.57c.35.35,8.7,8.67,8.7,8.67h1.98c2.04-3.63,5.1-6.6,8.81-8.54-4.4.51-7.08,1.97-8.71,2.88-1.29.71-2.13,1.19-2.95.87h0Z"/>
      <path class="cls-7" d="m9.03,46.53c.05.81.12,1.63.19,2.44h2.21c-.2-.21-1.5-1.52-2.4-2.44h0Z"/>
      <path class="cls-7" d="m47.05,54.26v4.47h8.93c.41-1.57.98-3.07,1.71-4.47h-10.64Z"/>
      <path class="cls-7" d="m39.12,59.37c.35.34,5.41,5.31,5.41,5.31h4.88l6.29-4.68c.04-.21.07-.42.12-.63h-16.69Z"/>
      <path class="cls-7" d="m17.61,39.08h-8.8c0,.52,0,1.05,0,1.57,1.34,0,8.15-.01,8.29-.01.04-.12.43-1.33.51-1.56h0Z"/>
      <path class="cls-7" d="m16.9,41.28c-.26,0-6.82.01-8.08.01.02,1.01.07,2.02.11,3.03h6.98c.04-.13.91-2.79.99-3.04h0Z"/>
      <path class="cls-7" d="m16.59,49.61h-7.31c.27,3.05.66,6.09,1.17,9.13h6.15v-9.13h0Z"/>
      <path class="cls-7" d="m17.2,59.37h-6.66c.3,1.77.64,3.54,1.03,5.31h5.63v-5.31h0Z"/>
      <path class="cls-7" d="m14.92,48.97c-.8-.8-3.97-3.98-3.97-4.02h-1.99c.01.23.01.46.03.69l3.28,3.32h2.65Z"/>
      <path class="cls-7" d="m41.99,54.26h-10.04v4.47h1.36v-3.19h1.75v3.19h2.75v-3.19h1.83v3.19h2.35v-4.47h0Z"/>
      <path class="cls-4" d="m19.19,55.24c.61,0,1.07.46,1.07,1.07s-.46,1.07-1.07,1.07-1.07-.46-1.07-1.07.46-1.07,1.07-1.07h0Z"/>
      <path class="cls-4" d="m21.94,55.47c.38,0,.69.31.69.69s-.31.69-.69.69-.69-.31-.69-.69.31-.69.69-.69h0Z"/>
      <path class="cls-4" d="m43.6,56.53h1.91v-2.98h0c0-.46-.46-.91-.99-.91-.46,0-.92.46-.92.91v2.98h0Z"/>
      <polygon class="cls-4" points="13.4 51.19 15.3 51.19 15.3 55.92 13.4 55.92 13.4 51.19 13.4 51.19"/>
      <polygon class="cls-4" points="10.96 51.19 12.79 51.19 12.79 55.92 10.96 55.92 10.96 51.19 10.96 51.19"/>
      <path class="cls-4" d="m21.33,43.34h1.75v-2.59h0c0-.53-.38-.92-.92-.92-.46,0-.84.38-.84.92h0v2.59h0Z"/>
      <path class="cls-4" d="m42,43.34h1.75v-2.59h0c0-.53-.38-.92-.84-.92-.53,0-.92.38-.92.92h0v2.59h0Z"/>
      <path class="cls-1" d="m53.44,44.53c.8,2.39,1.37,3.47,1.98,3.7l.33.05c.51-.02,1.19-.4,2.04-.88,1.89-1.07,4.74-2.68,9.63-3.05,3.02-1.39,6.17-2.09,9.37-2.09,0,0,2.69.14,2.69.17,0,0,1.11-.81,1.35-.98h-29.13v2.87h1.67l.07.22h0Z"/>
      <path class="cls-4" d="m39.05,69.77c-.52.53-.97.98-1.91.98s-1.35-.45-1.85-.98c-.52-.53-1.1-1.14-2.24-1.14-1.2,0-1.82.6-2.37,1.13-.54.53-1.02.98-2,.98-.91,0-1.35-.45-1.85-.98-.52-.53-1.1-1.14-2.24-1.14s-1.75.6-2.27,1.14c-.52.53-.96.98-1.89.98s-1.41-.46-1.94-.98c-.54-.53-1.14-1.14-2.32-1.14s-1.73.61-2.25,1.14c0,0-.01.01-.02.02.05.2.1.39.15.59.08-.08.17-.16.25-.24.51-.53.95-.98,1.87-.98s1.41.46,1.94.98c.54.53,1.14,1.14,2.32,1.14s1.75-.61,2.27-1.14c.52-.53.96-.98,1.89-.98s1.35.45,1.85.98c.52.53,1.1,1.14,2.24,1.14,1.2,0,1.82-.6,2.37-1.14.54-.53,1.01-.98,2-.98.91,0,1.35.45,1.86.98.52.53,1.1,1.14,2.24,1.14s1.75-.61,2.28-1.14c.52-.53.97-.98,1.91-.98.09,0,.16.02.24.03.19-.14.38-.28.57-.43-.24-.08-.5-.13-.81-.13-1.16,0-1.75.6-2.28,1.14h0Z"/>
      <path class="cls-4" d="m31.74,74.01c-.54.53-1.01.98-2,.98-.91,0-1.35-.45-1.85-.98-.52-.53-1.1-1.14-2.24-1.14s-1.75.6-2.27,1.14c-.52.53-.96.98-1.89.98s-1.41-.46-1.94-.98c-.54-.53-1.14-1.14-2.32-1.14-1.09,0-1.67.55-2.18,1.07.06.19.12.38.17.57.04-.04.09-.09.13-.13.51-.53.95-.98,1.87-.98s1.41.46,1.94.98c.54.53,1.14,1.14,2.32,1.14s1.75-.61,2.27-1.14c.52-.53.96-.98,1.89-.98s1.35.45,1.85.98c.52.53,1.1,1.14,2.24,1.14,1.2,0,1.82-.6,2.37-1.13.54-.53,1.01-.98,2-.98.55,0,.92.17,1.25.42.15-.11.29-.22.44-.33-.41-.34-.92-.62-1.68-.62-1.2,0-1.82.6-2.37,1.13h0Z"/>
      <path class="cls-4" d="m26.71,77.11c-1.15,0-1.75.6-2.27,1.14-.52.53-.96.98-1.89.98s-1.41-.46-1.94-.98c-.54-.53-1.14-1.14-2.32-1.14-.95,0-1.51.42-1.97.86.06.19.12.37.19.56.48-.49.92-.89,1.78-.89.96,0,1.41.46,1.94.98.54.53,1.14,1.14,2.32,1.14s1.75-.61,2.27-1.14c.52-.53.96-.98,1.89-.98s1.35.45,1.86.98c.05.05.1.1.15.15.14-.11.28-.21.43-.32-.07-.07-.13-.13-.2-.2-.52-.53-1.1-1.14-2.24-1.14h0Z"/>
      <path class="cls-4" d="m19.87,81.35c-1.01,0-1.58.48-2.06.96.07.18.13.37.2.55.51-.53.95-.98,1.87-.98s1.41.46,1.94.98c.19.19.41.39.65.57.14-.11.29-.22.44-.33-.25-.17-.48-.38-.71-.61-.54-.53-1.14-1.14-2.32-1.14h0Z"/>
      <path class="cls-7" d="m24.67,27.32c0,1.34-1.09,2.43-2.43,2.43s-2.43-1.09-2.43-2.43,1.09-2.43,2.43-2.43,2.43,1.09,2.43,2.43h0Z"/>
      <path class="cls-7" d="m45.27,27.32c0,1.34-1.09,2.43-2.43,2.43s-2.43-1.09-2.43-2.43,1.09-2.43,2.43-2.43,2.43,1.09,2.43,2.43h0Z"/>
    </g>
  </g>
</svg>