<?xml version="1.0" encoding="UTF-8"?>
<svg id="Layer_2" data-name="Layer 2" xmlns="http://www.w3.org/2000/svg" xmlns:xlink="http://www.w3.org/1999/xlink" viewBox="0 0 33.56 19.58">
  <defs>
    <style>
      .cls-1 {
        clip-path: url(#clippath);
      }

      .cls-2 {
        fill: none;
      }

      .cls-2, .cls-3, .cls-4, .cls-5, .cls-6 {
        stroke-width: 0px;
      }

      .cls-7 {
        clip-path: url(#clippath-1);
      }

      .cls-8 {
        clip-path: url(#clippath-4);
      }

      .cls-9 {
        clip-path: url(#clippath-3);
      }

      .cls-10 {
        clip-path: url(#clippath-2);
      }

      .cls-11 {
        clip-path: url(#clippath-7);
      }

      .cls-12 {
        clip-path: url(#clippath-8);
      }

      .cls-13 {
        clip-path: url(#clippath-6);
      }

      .cls-14 {
        clip-path: url(#clippath-5);
      }

      .cls-15 {
        clip-path: url(#clippath-9);
      }

      .cls-16 {
        clip-path: url(#clippath-14);
      }

      .cls-17 {
        clip-path: url(#clippath-13);
      }

      .cls-18 {
        clip-path: url(#clippath-12);
      }

      .cls-19 {
        clip-path: url(#clippath-10);
      }

      .cls-20 {
        clip-path: url(#clippath-15);
      }

      .cls-21 {
        clip-path: url(#clippath-17);
      }

      .cls-22 {
        clip-path: url(#clippath-16);
      }

      .cls-23 {
        clip-path: url(#clippath-11);
      }

      .cls-3 {
        fill: #2530a9;
      }

      .cls-4 {
        fill: #d80031;
      }

      .cls-5 {
        fill: #fff;
      }

      .cls-6 {
        fill: #f5d028;
      }
    </style>
    <clipPath id="clippath">
      <rect class="cls-2" width="33.56" height="19.58"/>
    </clipPath>
    <clipPath id="clippath-1">
      <rect class="cls-2" width="33.56" height="19.58"/>
    </clipPath>
    <clipPath id="clippath-2">
      <rect class="cls-2" width="33.56" height="19.58"/>
    </clipPath>
    <clipPath id="clippath-3">
      <rect class="cls-2" width="33.56" height="19.58"/>
    </clipPath>
    <clipPath id="clippath-4">
      <rect class="cls-2" width="33.56" height="19.58"/>
    </clipPath>
    <clipPath id="clippath-5">
      <rect class="cls-2" width="33.56" height="19.58"/>
    </clipPath>
    <clipPath id="clippath-6">
      <rect class="cls-2" width="33.56" height="19.58"/>
    </clipPath>
    <clipPath id="clippath-7">
      <rect class="cls-2" width="33.56" height="19.58"/>
    </clipPath>
    <clipPath id="clippath-8">
      <rect class="cls-2" width="33.56" height="19.58"/>
    </clipPath>
    <clipPath id="clippath-9">
      <rect class="cls-2" width="33.56" height="19.58"/>
    </clipPath>
    <clipPath id="clippath-10">
      <rect class="cls-2" width="33.56" height="19.58"/>
    </clipPath>
    <clipPath id="clippath-11">
      <rect class="cls-2" width="33.56" height="19.58"/>
    </clipPath>
    <clipPath id="clippath-12">
      <rect class="cls-2" width="33.56" height="19.58"/>
    </clipPath>
    <clipPath id="clippath-13">
      <rect class="cls-2" width="33.56" height="19.58"/>
    </clipPath>
    <clipPath id="clippath-14">
      <rect class="cls-2" width="33.56" height="19.58"/>
    </clipPath>
    <clipPath id="clippath-15">
      <rect class="cls-2" width="33.56" height="19.58"/>
    </clipPath>
    <clipPath id="clippath-16">
      <rect class="cls-2" width="33.56" height="19.58"/>
    </clipPath>
    <clipPath id="clippath-17">
      <rect class="cls-2" width="33.56" height="19.58"/>
    </clipPath>
  </defs>
  <g id="Layer_1-2" data-name="Layer 1">
    <g id="MALAYSIA">
      <g>
        <g class="cls-1">
          <rect class="cls-4" width="33.56" height="1.4"/>
        </g>
        <g class="cls-7">
          <rect class="cls-5" y="1.4" width="33.56" height="1.4"/>
        </g>
        <g class="cls-10">
          <rect class="cls-4" y="2.8" width="33.56" height="1.4"/>
        </g>
        <g class="cls-9">
          <rect class="cls-5" y="4.2" width="33.56" height="1.4"/>
        </g>
        <g class="cls-8">
          <rect class="cls-4" y="5.59" width="33.56" height="1.4"/>
        </g>
        <g class="cls-14">
          <rect class="cls-5" y="6.99" width="33.56" height="1.4"/>
        </g>
        <g class="cls-13">
          <rect class="cls-4" y="8.39" width="33.56" height="1.4"/>
        </g>
        <g class="cls-11">
          <rect class="cls-5" y="9.79" width="33.56" height="1.4"/>
        </g>
        <g class="cls-12">
          <rect class="cls-4" y="11.19" width="33.56" height="1.4"/>
        </g>
        <g class="cls-15">
          <rect class="cls-5" y="12.59" width="33.56" height="1.4"/>
        </g>
        <g class="cls-19">
          <rect class="cls-4" y="13.98" width="33.56" height="1.4"/>
        </g>
        <g class="cls-23">
          <rect class="cls-5" y="15.38" width="33.56" height="1.4"/>
        </g>
        <g class="cls-18">
          <rect class="cls-4" y="16.78" width="33.56" height="1.4"/>
        </g>
        <g class="cls-17">
          <rect class="cls-5" y="18.18" width="33.56" height="1.4"/>
        </g>
        <g class="cls-16">
          <rect class="cls-3" width="19.58" height="11.19"/>
        </g>
        <g class="cls-20">
          <g>
            <g class="cls-22">
              <path class="cls-6" d="m5.24,5.59c0-2.03,1.65-3.67,3.67-3.67.7,0,1.36.2,1.92.54-.74-.66-1.72-1.07-2.79-1.07-2.32,0-4.2,1.88-4.2,4.2s1.88,4.2,4.2,4.2c1.07,0,2.05-.41,2.79-1.07-.56.34-1.22.54-1.92.54-2.03,0-3.67-1.64-3.67-3.67"/>
            </g>
            <g class="cls-21">
              <polygon class="cls-6" points="13.63 5.59 15.64 4.82 13.5 4.99 14.97 3.41 13.11 4.5 13.75 2.45 12.55 4.23 12.24 2.1 12.01 3.62 11.95 4.07 11.92 4.23 10.72 2.45 11.36 4.5 9.5 3.41 10.98 4.99 8.83 4.82 10.84 5.59 8.83 6.37 10.98 6.2 9.5 7.78 11.36 6.69 10.72 8.74 11.92 6.96 11.95 7.12 12.01 7.56 12.24 9.09 12.55 6.96 13.75 8.74 13.11 6.69 14.97 7.78 13.5 6.2 15.64 6.37 13.63 5.59"/>
            </g>
          </g>
        </g>
      </g>
    </g>
  </g>
</svg>