<?xml version="1.0" encoding="UTF-8"?>
<svg id="Layer_2" data-name="Layer 2" xmlns="http://www.w3.org/2000/svg" viewBox="0 0 522.09 528.9">
  <defs>
    <style>
      .cls-1 {
        fill: #ab190b;
      }

      .cls-1, .cls-2, .cls-3, .cls-4, .cls-5, .cls-6, .cls-7 {
        fill-rule: evenodd;
        stroke-width: 0px;
      }

      .cls-2 {
        fill: #edd417;
      }

      .cls-3 {
        fill: #edd316;
      }

      .cls-4 {
        fill: #f0d718;
      }

      .cls-5 {
        fill: #f1db1a;
      }

      .cls-6 {
        fill: #f2df1a;
      }
    </style>
  </defs>
  <g id="Layer_1-2" data-name="Layer 1">
    <g id="Layer_1-3" data-name="Layer_1">
      <g id="_717086656" data-name=" 717086656">
        <path class="cls-7" d="m286.93,507.47c-2.07,6.21-8.82,21.42-25.11,21.42-18.5,0-24.95-20.04-25.27-20.86l-.53-1.92s15.94,1.32,24.72,1.32,23.77-.85,26.23-1.32l-.05,1.36h0Z"/>
        <path class="cls-7" d="m335.48,497.59l3.82.51c-4.54,11.82-12.68,25.07-28.67,25.07s-23.16-8.97-26.43-15.01l-2.68-1.64s26.78-.88,53.96-8.93h0Zm-146.76,0h0l-3.82.51c4.53,11.82,12.67,25.07,28.68,25.07s23.84-9.47,27.27-15.01l1.83-1.64s-26.77-.88-53.96-8.93h0Z"/>
        <path class="cls-6" d="m274.8,508.7c-2.5,3.63-4.18,3.46-7.2,3.46-1.51,0-3.78,1.25-3.71,3.53.05,1.78,1.5,3.27,3.97,3.27,5.46,0,9.63-7.64,10.8-10.86,0,0,3.23-.14,4.18-.23,0,0-5.8,17.25-20.81,17.25s-21.17-17.06-21.17-17.06c0,0,12.66.78,19.92.78s11.87-.03,14.04-.13h0Zm58.68-7.59h0c-9.82,2.64-16.79,4.78-33.27,6.79,0,0,.51,1.7,4.1,1.51,1.38-.07,1.55-.41,2.06-.5,1.02-.18,2.58.88,2.39,2.68-.13,1.25-1.21,2.83-4.86,2.83s-7.91-2.99-10.06-5.76c0,0-2.19.5-4.46.63,0,0,7.01,9.82,20.85,9.82,15.22,0,20.84-13.6,23.24-18h0Z"/>
        <path class="cls-3" d="m323.27,510.72c0-2.38-.73-4.59-1.98-6.41-5.33,1.25-11.42,2.41-20.35,3.51-.06.27-.12.53-.18.8.54.44,1.58.91,3.55.8,1.38-.07,1.55-.41,2.06-.5,1.02-.18,2.58.88,2.39,2.68-.13,1.25-1.21,2.83-4.86,2.83-.94,0-1.93-.2-2.9-.54.48,1.66,1.33,3.16,2.44,4.41,2.22.56,4.5.84,6.78.83,4.88,0,8.77-1.4,11.89-3.44.76-1.54,1.15-3.24,1.14-4.96h0Z"/>
        <path class="cls-2" d="m323.11,510.72c0-2.28-.69-4.5-1.99-6.38-5.26,1.23-11.27,2.36-20.01,3.45-.08.31-.15.62-.2.93.57.4,1.6.79,3.41.69,1.38-.07,1.55-.41,2.06-.5,1.02-.18,2.58.88,2.39,2.68-.13,1.25-1.21,2.83-4.86,2.83-.88,0-1.8-.18-2.72-.48.5,1.67,1.38,3.17,2.54,4.41,1.97.48,4.14.76,6.51.76,4.75,0,8.56-1.32,11.63-3.27.81-1.59,1.24-3.34,1.24-5.12h0Z"/>
        <path class="cls-4" d="m322.95,510.72c0-2.36-.74-4.55-2-6.34-5.18,1.21-11.13,2.32-19.68,3.4-.09.34-.18.69-.23,1.04.59.37,1.6.69,3.27.6,1.38-.07,1.55-.41,2.07-.5,1.02-.18,2.58.88,2.39,2.68-.13,1.25-1.21,2.83-4.86,2.83-.86-.01-1.72-.15-2.54-.42.52,1.68,1.43,3.19,2.63,4.42,1.9.44,3.98.7,6.24.7,4.61,0,8.34-1.25,11.37-3.11.89-1.62,1.35-3.44,1.35-5.29h0Z"/>
        <path class="cls-6" d="m190.72,501.12c9.81,2.64,16.78,4.78,33.26,6.79,0,0-.51,1.7-4.1,1.51-1.38-.07-1.56-.41-2.07-.5-1.01-.18-2.58.88-2.39,2.68.13,1.25,1.2,2.83,4.85,2.83s7.91-2.99,10.05-5.76c0,0,2.2.5,4.47.63,0,0-7.01,9.82-20.85,9.82-15.22,0-20.85-13.6-23.23-18h0Zm69.84-80.92h0c-52.45,0-110.57-32.2-151.32-78.62-4.41-5.01-11.89-14.53-29.63-14.53s-41.32,16.16-38.54,45.59c2.03,21.46,32.7,69.82,85.15,99.63,52.46,29.81,100.76,36.23,134.34,36.23s81.89-6.41,134.34-36.23c52.45-29.81,83.12-78.17,85.15-99.63,2.78-29.43-20.8-45.59-38.54-45.59s-25.22,9.51-29.63,14.53c-40.75,46.42-98.87,78.62-151.32,78.62h0Z"/>
        <path class="cls-7" d="m260.56,418.31c25.42,0,52.21-7.67,77.68-20.9,26.54-13.79,51.62-33.59,72.23-57.07,2.27-2.58,5.32-6.32,10.21-9.48,4.91-3.18,11.55-5.7,20.84-5.7.96,0,1.99.05,3.07.15,8.55.81,17.95,4.94,25.2,12.14,7.26,7.2,12.38,17.46,12.38,30.49,0,1.54-.07,3.16-.24,4.87-1.16,12.32-11.4,33.14-29.49,54.31-14.2,16.61-33.27,33.51-56.6,46.77-26.4,15.01-51.77,24.13-74.75,29.5-39.81,9.3-81.24,9.3-121.05,0-22.98-5.37-48.34-14.49-74.75-29.5-23.34-13.26-42.4-30.17-56.6-46.77-18.09-21.17-28.33-41.99-29.49-54.31-.16-1.62-.23-3.25-.24-4.87,0-13.03,5.13-23.29,12.38-30.49,7.25-7.2,16.64-11.33,25.19-12.14,1.08-.1,2.11-.15,3.08-.15,9.29,0,15.93,2.52,20.84,5.7,4.88,3.16,7.94,6.9,10.21,9.48,20.61,23.47,45.69,43.28,72.23,57.07,25.47,13.23,52.26,20.9,77.68,20.9h0Zm0,3.77h0c-26.04,0-53.42-7.82-79.42-21.32-26.93-13.99-52.39-34.11-73.32-57.93-2.14-2.43-5.03-5.96-9.42-8.81-4.37-2.83-10.34-5.07-18.79-5.07-.91,0-1.81.04-2.72.12-7.75.73-16.28,4.5-22.89,11.06-6.6,6.55-11.26,15.91-11.26,27.83,0,1.51.07,3.02.21,4.52,1.1,11.66,11.03,31.65,28.61,52.22,13.94,16.31,32.67,32.92,55.6,45.95,26.05,14.8,51.07,23.8,73.75,29.09,19.56,4.57,39.58,6.88,59.67,6.88,20.09,0,40.11-2.31,59.67-6.88,22.68-5.29,47.7-14.29,73.75-29.09,22.92-13.03,41.66-29.64,55.6-45.96,17.58-20.57,27.51-40.55,28.61-52.21.14-1.5.21-3.01.21-4.52,0-11.92-4.67-21.27-11.27-27.83-6.61-6.56-15.15-10.33-22.89-11.06-.9-.08-1.81-.12-2.72-.12-8.45,0-14.42,2.24-18.79,5.07-4.4,2.85-7.29,6.37-9.42,8.81-20.93,23.83-46.38,43.94-73.32,57.93-26,13.51-53.38,21.33-79.42,21.33h0Z"/>
        <path class="cls-1" d="m103.35,346.19l-.61-.69c-4.17-4.79-9.9-11.37-23.56-11.37-7.97,0-16.99,4.26-22.99,10.85-4.48,4.92-9.57,13.57-8.32,26.8,1.7,18.07,30.4,64.94,81.5,93.99,41.19,23.41,85.18,35.28,130.75,35.28s89.56-11.87,130.75-35.28c51.1-29.05,79.8-75.92,81.5-93.99,1.24-13.23-3.84-21.88-8.32-26.8-5.99-6.59-15.02-10.85-22.98-10.85-13.66,0-19.38,6.57-23.56,11.37l-.61.69c-43.92,50.02-104,81.08-156.79,81.08s-112.87-31.06-156.78-81.08h0Z"/>
        <path class="cls-6" d="m429.07,287.2c0-25.17,20.39-45.57,45.56-45.57s45.57,20.4,45.57,45.57-20.4,45.57-45.57,45.57-45.56-20.4-45.56-45.57Z"/>
        <path class="cls-7" d="m427.18,287.2c0-13.1,5.31-24.97,13.9-33.56,8.58-8.59,20.45-13.9,33.56-13.9s24.97,5.31,33.56,13.9c8.59,8.59,13.9,20.45,13.9,33.56s-5.31,24.97-13.9,33.55c-8.59,8.59-20.46,13.9-33.56,13.9s-24.97-5.31-33.56-13.9c-8.91-8.89-13.92-20.96-13.9-33.55h0Zm3.77,0h0c0,12.06,4.89,22.98,12.79,30.88,7.9,7.91,18.83,12.79,30.88,12.79s22.98-4.89,30.89-12.79c8.21-8.18,12.81-19.3,12.8-30.88.01-11.59-4.59-22.7-12.8-30.89-7.9-7.9-18.83-12.79-30.89-12.79s-22.98,4.89-30.88,12.79c-8.21,8.18-12.81,19.3-12.79,30.89Z"/>
        <path class="cls-6" d="m1.88,287.27c0-25.16,20.4-45.56,45.57-45.56s45.57,20.4,45.57,45.56-20.4,45.57-45.57,45.57S1.88,312.44,1.88,287.27Z"/>
        <path class="cls-7" d="m0,287.27c0-13.1,5.31-24.96,13.9-33.55,8.89-8.91,20.97-13.91,33.56-13.9,13.1,0,24.97,5.31,33.55,13.9,8.91,8.89,13.91,20.97,13.9,33.55,0,13.11-5.31,24.97-13.9,33.56-8.89,8.91-20.96,13.92-33.55,13.9-13.11,0-24.97-5.32-33.56-13.9C5.31,312.24,0,300.37,0,287.27Zm3.77,0h0c-.02,11.59,4.59,22.71,12.79,30.89,8.18,8.2,19.3,12.81,30.89,12.79,12.06,0,22.98-4.89,30.88-12.79,8.21-8.18,12.81-19.3,12.79-30.89,0-12.06-4.89-22.98-12.79-30.88-7.91-7.9-18.82-12.79-30.88-12.79-11.59-.02-22.7,4.59-30.89,12.79-8.2,8.18-12.81,19.3-12.79,30.88Z"/>
        <path class="cls-7" d="m487.11,164.63l.25-12.2c3.73,2.82,10.82,2.93,14.97-1.51,1.91-2.02,2.98-5.12,2.81-8.35-.24-3.78-1.85-7.35-4.53-10.02-15.35-14.95-28.91-29.9-28.91-29.9-1.37-2.21-3.63-3.84-4.86-4.39-1.92-.86-8.56-3.89-13.62,3.8-4.59,6.98-3.91,16.85-3.08,20.44l14.4,19.56c4.91,6.22,18.75,19.5,22.58,22.58h0ZM180.29,37.74h0c18.09-6.06,34.61-11.07,56.87-13.05l-56.87,13.05h0Z"/>
        <path class="cls-7" d="m180.29,37.79c18.09-6.07,34.61-11.07,56.87-13.05l3.39-1.92c-12.45-9.78-24.8-16.44-37.09-16.44-7.72,0-23.41,5.23-26.94,32.91,0,0,3.76-1.5,3.76-1.5Zm160.6,0h0c-18.1-6.07-34.6-11.07-56.86-13.05l-3.39-1.92c12.44-9.78,24.79-16.44,37.08-16.44,7.72,0,23.42,5.23,26.94,32.91,0,0-3.77-1.5-3.77-1.5Zm-95.15-15.83h0c3.68-.19,12.17-.38,15.57-.38s12.77.45,14.83.6l-30.39-.23h0Z"/>
        <path class="cls-7" d="m240.14,23.8c9.1-17.45,17.44-23.8,22.05-23.8,5.77,0,12.52,9.18,17.82,21l1.12,2.66-4.61-.38c-3.13-.56-11.81-.66-15.21-.66s-10.76,0-15.19.38l-5.98.8Z"/>
        <path class="cls-6" d="m222.33,436.86l-8.15,30.4-15.19-36.64-9.45-2.53-11.52,42.98,10.25,2.75,8.21-30.64,15.43,36.97,9.21,2.47,11.52-42.99-10.31-2.76h0Zm35.4,5.43h0l-11.68-.61-2.32,44.43,11.68.61,2.33-44.43Zm10.49-.38h0l.82,5.85,12.46-1.76,5.37,38.21,11.58-1.63-5.37-38.2,12.27-1.73-.82-5.85-36.32,5.1h0Zm120.54-18.11h0c5.65,9.92,4.52,17.13-4.21,22.17l-4.14,2.39-16.36-28.33,4.47-2.59c10.45-6.03,16.34-.66,20.24,6.36Zm-22.76-11.75h0l-15.08,8.7,22.32,38.67,14.97-8.64c15.57-9,17.02-22.57,10.91-33.41-7.37-12.9-19.48-13.2-33.12-5.32Zm-28.25,54.75h0l16.08-5.23,1.85,5.69-27.27,8.85-13.75-42.31,24.73-8.04,1.83,5.62-13.55,4.4,3.79,11.67,13.18-4.28,1.85,5.68-13.19,4.29,4.44,13.66h0Zm-169.28-49.03h0l10.64,5.89-14.01,25.27c-7.63,13.76-19.38,10.42-27.48,5.94-7.52-4.17-17.22-12.72-9.53-26.6l13.95-25.16,10.64,5.9-13.2,23.83c-4.07,7.35-5.61,12.85,1.04,16.53,6.7,3.87,10.8-.67,14.78-7.83l13.18-23.77h0Zm-7.54-261.36h0c1.47-1.6,10.09-8.84,14.43-11.89h169.92c5.22,3.2,11.86,9.39,15.02,12.22l-.13,208.01-99.62,64.04-99.63-64.04v-208.34h0Z"/>
        <polygon class="cls-7" points="162.82 156.41 162.82 363.72 260.56 426.55 358.3 363.72 358.42 156.74 362.2 156.74 362.07 364.75 362.07 365.77 361.2 366.33 261.58 430.38 260.56 431.03 259.54 430.38 159.92 366.33 159.05 365.77 159.05 156.41 162.82 156.41"/>
        <path class="cls-7" d="m359.05,158.15c-.9-.81-.22-.21-1.17-1.07h-.01c-3.4-3.07-9.09-8.22-13.56-10.95l1.97-3.21c4.82,2.95,10.65,8.22,14.13,11.36h-.01l1.18,1.05-2.52,2.82h0Z"/>
        <polygon class="cls-7" points="175.37 146.41 345.3 146.41 345.3 142.64 175.37 142.64 175.37 146.41"/>
        <path class="cls-7" d="m176.45,146.08c-2.04,1.43-4.91,3.69-7.53,5.85-3.08,2.53-5.85,4.95-6.6,5.76l-2.77-2.55c.83-.91,3.77-3.47,6.98-6.12,2.79-2.3,5.77-4.65,7.75-6.04l2.17,3.1h0Z"/>
        <path class="cls-1" d="m267.6,245.52c-.69-.3-3.17,1.69-4.31,3.49-1.13,1.79-1.46,4.1.14,4.95,1.6.85,3.63-.25,4.11-3.06.28-1.65.82-5.05.06-5.38h0Zm-19.07,5.37h0c.42,2.83,2.5,3.92,4.1,3.06,1.6-.85,1.28-3.16.14-4.95-1.14-1.79-3.47-3.79-4.17-3.49-.76.33-.32,3.77-.08,5.38Zm10,27.71h0c3.35-5.49,4.74-11.2,4.74-11.2h-9.57s1.53,5.85,4.84,11.2Zm1.65-41.27h0l7.73-13.46,6.04,13.46h10.01c-6.04,5.66-8.49,14.21-8.49,19.88v6.23c0,2.64-1.32,6.98-1.32,6.98,0,0,8.66,6.62,10,7.74.57.47,1.16.75.75,1.89-.69,1.95-6.54,4.56-7.17,5.09-1.32,1.13-1.68,1.87-1.29,3.02.38,1.13,1.48,1.32,3.74.56,2.27-.75,6.98-3.2,10.95-4.91,3.96-1.7,9.24-1.32,9.24-1.32v-7.54h-14.9v-24.15l-2.64-4.22,6.61-11.7,6.6,11.77-2.64,4.15v12.64h7.64v-12.64l-2.64-4.15,6.6-11.7,6.6,11.7-2.64,4.15v12.64h7.64v-12.64l-2.64-4.15,6.6-11.7,6.6,11.7-2.65,4.15.08,24.14h-14.98v11.1c3.4,3.2,6.61,10.43,6.61,14.77s-2.83,6.23-2.83,6.23c.94,3.4.75,4.81.37,7.93-.39,3.18-4.34,8.11-4.34,8.11v57.53c0,3.92-9.05,3.54-9.05.19v-56.4c-5.1-5.66-19.06-10-19.06-10-5.1,5.09-8.3,13.96-8.3,13.96,2.26,1.51,5.66,0,6.98-1.51,1.32-1.51,3.96-1.89,5.48-.94,1.51.94,1.89,1.32,1.32,3.59-.57,2.26-1.51,6.02-1.51,8.65s3.02,2.07,5.28,2.27c4.53.38,5.28,5.47,4.91,8.3-.38,2.83-1.7,8.87-1.7,12.64s.18,7.55.56,9.63c.37,2.07,1.13,4.34.94,6.98-.26,3.58-2.45,4.15-4.72,1.89-2.26-2.27-33.77-35.85-33.77-35.85-2.07,6.79,6.6,18.49,9.44,22.08,2.83,3.59,2.64,6.23.19,8.68-2.46,2.45-7.17,3.77-8.11,6.04-.94,2.26,2.27,9.05,8.87,17.54,6.6,8.49-7.55,14.15-16.04,15.85-8.49,1.7-8.49-4.16-7.92-7.36.56-3.21.56-5.1.38-7.93-.19-2.82-2.83-6.79-6.42-11.51-3.59-4.71-3.59-9.05-2.07-20,1.51-10.94,1.13-17.93,1.13-17.93,0,0-3.77.19-9.25,0-5.47-.19-10-3.37-10.38-16.58-.38-13.21-.69-44.71-1.57-47.99-.88-3.27-4.4-3.9-5.91-4.27-1.51-.38-1.62-2.64-.11-3.4,3.93-1.97,8.66-6.79,6.9-9.81-1.76-3.02-8.68-2.39-13.33-.13-4.65,2.27-9.56,7.17-10.82,8.56-1.26,1.38-2.27,1.38-2.14-.13.13-1.51-.88-8.68-1.51-11.2-.63-2.52-2.9-7.29-3.65-8.55-.75-1.26,0-1.76,1.26-1.26,1.26.5,4.02,1.64,6.67,2.39,2.64.75,5.16-.5,6.41-3.02,1.26-2.52,3.65-7.92,4.91-10.31,1.26-2.39,3.27-1.89,4.91-1.51,1.64.38,3.15,1.38,4.65,2.01,1.51.63,2.77.51,3.27-.25.5-.75,1.13-1.01,2.01-2.9.88-1.89,2.01-1,2.14-.25,4.51,27.06,16.23,28.31,16.23,28.31-1.76,4.52-5.91,11.7-6.92,13.46-1.01,1.76-1.38,4.15-1.63,6.04-.25,1.89.63,19.74,1.89,26.29,1.26,6.54,5.29,4.03,6.54,2.01,1.25-2.01,5.16-10.31,5.16-10.31,0,0,1.01-2.27,1.01-4.16s-3.27-6.04-4.03-7.29c-.75-1.26-3.52-3.77-3.52-10.06s5.66-10.69,7.67-12.33c2.01-1.63,2.01-3.89,1.76-5.28-.88-4.87-6.04-15.1-8.55-19-2.52-3.9-7.42-11.32-7.42-11.32h10.19l6.54-13.59,7.17,13.65,7.41.06h0Zm40.19,68.56h0v-7.74s-2.08-3.21-7.17-3.21-8.11,1.51-8.11,2.83c0,2.08,4.53,8.11,15.28,8.11h0Zm-131.63-97.52h183.8v12.54h-183.8v-12.54Zm0-6.44h0v-49.93h183.8v49.93h-183.8Z"/>
        <polygon class="cls-6" points="316.36 203.42 316.36 194.9 303.01 194.9 303.01 189.4 313.91 189.4 313.91 165.25 303.91 165.25 300.51 158.65 297.11 165.25 287.11 165.25 287.11 189.4 298 189.4 298 194.9 271.85 194.9 271.85 189.4 282.75 189.4 282.75 165.25 272.75 165.25 269.35 158.65 265.95 165.25 255.95 165.25 255.95 189.4 266.84 189.4 266.84 194.9 240.18 194.9 240.18 189.4 251.08 189.4 251.08 165.25 241.07 165.25 237.68 158.65 234.28 165.25 224.28 165.25 224.28 189.4 235.17 189.4 235.17 194.9 214.09 194.95 193.09 190.05 197.32 203.42 316.36 203.42"/>
        <path class="cls-6" d="m200.34,188.96l14.08,3.46,7.56-21.21v-5.35s-21.64,23.09-21.64,23.09h0ZM234.33,23.35h0c-21.82,1.94-35.25,6.58-52.98,12.52,1.32-7.63,3.09-12.15,6.17-16.65-.25,3.95,2.97,8.15,9.38,8.15s9.98-3.7,9.98-5.92-1.35-5.42-4.8-5.42-4.19,2.46-3.94,3.45c.25.99-.49,1.23-1.48,1.48-.99.25-3.7-1.24-2.71-4.68,1.08-3.79,5.67-5.85,11.09-5.85,0,0,12.9-.52,29.29,12.92h0Zm105.66,12.67h0c-17.73-5.95-31.77-10.58-53.59-12.53,10.05-7,19.43-12.94,29.73-12.94,5.42,0,10.01,2.06,11.09,5.85.99,3.45-1.73,4.93-2.71,4.68-.98-.25-1.72-.49-1.48-1.48.25-.98-.5-3.45-3.94-3.45s-4.8,3.2-4.8,5.42,3.57,5.92,9.98,5.92,9.63-4.21,9.39-8.15c3.08,4.5,5.01,9.04,6.33,16.67h0Zm-92.21-16.73h0c-.59.93-1.1,1.63-1.73,2.67,5.08-.22,10.17-.34,15.25-.37,3.33,0,12.52.44,14.53.59-3.25-7.53-9.39-17.92-13.67-17.92-.85,0-2.72-.44-6.24,3.61,0,0-.55,1.79,1.69,1.45,2.83-.43,3.91,2.49,3.7,3.95-.5,3.39-4.44,6.66-8.39,6.66s-5.15-.63-5.15-.63h0Z"/>
        <path class="cls-7" d="m57.72,142.06l14.4-19.56c.83-3.59,1.51-13.46-3.08-20.44-5.06-7.7-11.7-4.66-13.63-3.8-1.23.55-3.48,2.18-4.86,4.39,0,0-13.81,15.27-29.1,30.29-2.12,2.09-4.52,6.04-4.72,9.63-.18,3.24,1.09,6.46,2.99,8.49,4.16,4.43,11.44,4.2,15.16,1.38l.25,12.2c3.84-3.08,17.68-16.35,22.59-22.58h0Z"/>
        <path class="cls-6" d="m260.56,113.55c82.02,0,128.72,77.02,138.87,90.55,18.12,24.15,40.24,43.73,65.91,37.23,37.73-9.56,35.72-65.47,35.72-65.47-9.05-6.54-24.59-14.78-52.83-54.85-27.67-39.25-90.32-97.47-187.68-97.47S100.56,81.77,72.89,121.01c-28.25,40.06-43.77,48.3-52.83,54.85,0,0-2.01,55.91,35.72,65.47,25.67,6.5,47.8-13.08,65.92-37.23,10.15-13.53,56.85-90.55,138.87-90.55h0Z"/>
        <path class="cls-7" d="m260.56,111.66c76.26,0,122.22,65.5,137.17,86.81,1.35,1.93,2.45,3.5,3.2,4.49,8.93,11.91,18.84,22.69,29.63,29.66,10.58,6.83,22.05,9.99,34.32,6.88,33.5-8.49,34.37-55.49,34.3-62.67-.71-.51-1.51-1.06-2.34-1.63-9.49-6.55-24.75-17.08-50.15-53.11-15.88-22.53-43.39-51.36-82.47-71.66-28.43-14.76-62.98-25.01-103.66-25.01s-75.24,10.25-103.67,25.01c-39.08,20.3-66.59,49.13-82.47,71.66-25.41,36.04-40.66,46.56-50.16,53.11-.83.57-1.62,1.12-2.34,1.62-.06,7.18.8,54.18,34.31,62.67,12.27,3.11,23.73-.05,34.32-6.88,10.79-6.97,20.7-17.74,29.64-29.66.74-.99,1.85-2.56,3.2-4.49,14.96-21.31,60.92-86.81,137.18-86.81h0Zm0,3.77h0c-74.31,0-119.42,64.29-134.09,85.21-1.07,1.54-2.16,3.07-3.27,4.58-9.18,12.24-19.4,23.33-30.61,30.57-11.43,7.37-23.86,10.76-37.27,7.36-39.23-9.94-37.16-67.18-37.15-67.35l.03-.92.76-.55c1.03-.74,2.06-1.46,3.17-2.22,9.28-6.4,24.19-16.68,49.22-52.18,16.15-22.9,44.11-52.21,83.83-72.84,28.92-15.02,64.06-25.43,105.39-25.43s76.47,10.41,105.39,25.43c39.71,20.62,67.68,49.93,83.83,72.84,25.02,35.49,39.93,45.78,49.2,52.18,1.12.77,2.15,1.48,3.18,2.23l.77.55.02.92c0,.16,2.07,57.41-37.15,67.35-13.4,3.4-25.84,0-37.26-7.36-11.22-7.24-21.44-18.33-30.62-30.57-.92-1.23-1.97-2.73-3.28-4.58-14.68-20.92-59.79-85.21-134.09-85.21h0Z"/>
        <path class="cls-1" d="m260.56,106.28c79.06,0,126.12,67.07,141.59,89.11,1.01,1.46,2.04,2.91,3.09,4.34,20.92,27.89,40,39.19,58.32,34.55,26.49-6.71,29.75-43.17,30.12-54.19v-.41s-.33-.23-.33-.23c-9.31-6.43-24.92-17.19-51.05-54.25-15.62-22.14-74.87-94.39-181.74-94.39S94.44,103.05,78.83,125.2c-25.95,36.8-42.24,48.04-50.99,54.09l-.34.23v.42c.39,11.06,3.68,47.66,30.07,54.35,18.32,4.64,37.4-6.66,58.31-34.55.77-1.02,1.84-2.56,3.1-4.34,15.47-22.04,62.52-89.11,141.59-89.11h0Z"/>
        <path class="cls-6" d="m90.45,137.17l-8.25,9.84,15.48,31.99-33.21-10.85-7.11,8.47,34.09,28.6,5.15-6.13-24.06-20.27,32.28,10.49,3.39-4.04-15.38-30.83,24.2,20.3,7.52-8.96-34.09-28.6h0Zm43.09-6.7h0l-7.72,8.27-7.91-15.28,15.63,7.01h0Zm-17.98-20.2h0l43.68,18.4-8.59,9.2-11.64-4.94-10.32,11.07,5.79,11.22-5.2,5.58-21.32-42.39,7.59-8.14h0Zm52.05-40.27h0l16.68,26.69-37.16-13.89-8.31,5.19,23.58,37.73,9-5.62-16.81-26.9,37.56,13.93,8.08-5.06-23.58-37.73-9.06,5.66h0Zm140.82,21.85h0l4.68-13.58,13.1,4.52,1.95-5.65-13.11-4.51,3.99-11.6,13.47,4.64,1.93-5.59-24.59-8.46-14.48,42.07,27.11,9.33,1.94-5.65-15.99-5.51h0Zm76.11-2.81h0l-4.01,4.35,9.36,8.42-25.82,28.68,8.69,7.83,25.82-28.67,9.22,8.29,3.95-4.39-27.21-24.5h0Zm12.77,66.81h0l10.87,12.96-4.58,3.84-18.43-21.96,34.09-28.61,16.71,19.92-4.53,3.8-9.15-10.91-9.4,7.89,8.91,10.61-4.57,3.84-8.91-10.61-11,9.22h0Zm51.56,11.33h0l-2.6-2.88-11.24,10.12,2,2.22c3.4,3.78,7.86,4.46,11.4,1.28,3.55-3.19,3.53-7.29.43-10.73h0Zm-5.93,21.92h0c.09.1,6.89,3.47,14.4-3.3,6.28-5.66,4.17-13.42-2.38-20.7l-12.12-13.46-33.07,29.77,7.83,8.69,13.13-11.83,3.88,4.3-8.37,18.74,9.94,7.99,6.77-20.21h0ZM275.6,47.88h0l-.32,18.17-17.48-.3.32-18.18-11.69-.2-.77,44.48,11.69.21.36-20.34,17.47.31-.36,20.34,11.7.2.77-44.49-11.69-.2h0Zm63.34,66.13h0c-6.69-4.02-9.74-8.71-11.04-13.18l5.9-2.55c.96,3.29,2.03,6.64,6.61,9.54,3.57,2.21,7.27,1.43,9.4-2.11,1.73-2.87-.76-7.38-2.88-10.99-.9-1.75-2.46-4.42-2.46-4.42-2.42-4.62-3.34-9.09-.09-14.51,3.22-5.37,10.98-6.88,20.49-1.16,5.53,3.32,7.97,7.28,9.63,11.66l-5.39,2.33c-.69-2.37-2.1-5.78-5.53-7.84-3.27-1.96-6.84-1.78-8.37.77-1.43,2.38.08,4.87,1.7,7.94.84,1.86,2.06,3.35,3.05,5.45,3.69,7.26,3.67,11.31.57,16.22-4.22,7.02-13.29,7.82-21.58,2.84h0Zm-121.3-63.8h0c6.53-1.39,10.73-.44,14.25.98l-1.35,5.67h-.06c-2.01-.8-5.19-2.16-10.34-1.07-7.35,1.56-13.79,9.23-11.44,20.28,1.59,7.48,7.96,16.16,18.64,13.89,5.08-1.08,7.38-3.54,8.86-5.23l4.07,4.65c-3.22,3.05-6.57,5.53-12.69,6.7-22.11,4.7-29.12-9.76-30.91-17.58-3.15-14.49,6.4-25.18,20.96-28.29h0Zm235.88,73.99h0c-.61-2.64-1.48-13.91,2.8-19.85,3.95-5.48,7.55-3.62,9.49-2.77.87.38,3.48,2.08,3.99,5.41.27,1.79-.29,4.44-1.67,6.38-2.71,3.52-8.87,5.85-8.87,5.85,0,0,7.89,15.46,24.62,30.82l-.06,10.44c-22.9-22.08-30.3-36.28-30.3-36.28h0Z"/>
        <path class="cls-6" d="m465.01,121.01c2.27,3.9,8.02,13.45,22.41,26.94,2.39,2.24,8.34,4.1,11.7.33,1.29-1.45,2.11-3.52,1.99-5.93-.15-2.77-1.86-6-3.5-7.41-2.87-2.47-15.25-14.96-24.11-24.78-.19,1.79-1.76,4.78-1.76,4.78-1.19,1.68-2.68,4.1-6.73,6.07ZM38.41,159.85h0l-.06-9.86c16.73-15.36,24.63-30.77,24.63-30.77,0,0-6.16-2.33-8.87-5.85-1.39-1.94-1.95-4.59-1.67-6.38.52-3.33,3.12-5.02,3.99-5.41,1.93-.86,5.54-2.72,9.48,2.77,4.28,5.95,3.16,17.14,2.55,19.78,0,0-7.79,13.59-30.06,35.73h0Z"/>
        <path class="cls-6" d="m56.96,121.01c-2.26,3.9-8.01,13.45-22.41,26.94-2.39,2.24-8.34,4.1-11.7.33-1.29-1.45-2.12-3.52-1.99-5.93.15-2.77,1.86-6,3.5-7.41,2.87-2.47,15.25-14.96,24.11-24.78.19,1.79,1.76,4.78,1.76,4.78,1.19,1.68,2.68,4.1,6.72,6.07Z"/>
        <path class="cls-1" d="m10.46,287.65c0-20.47,16.6-37.07,37.07-37.07s37.07,16.6,37.07,37.07-16.6,37.07-37.07,37.07-37.07-16.59-37.07-37.07Z"/>
        <path class="cls-6" d="m67.47,260.8c.64.51,2.24,1.83,2.24,1.83,3.21,2.88,6.11,6.24,7.78,10.26,2.12,5.06-4.41,12.67-6.33,14.45-8.65,8.07-14.02,7.93-17.11,8.38-3.09.44-5.04-1.47-4.97-3.78.2-6.81,5.02-18.4,6.38-20.55.89-1.4,2.42-2.29,2.42-2.29,3.19-.89,6.28-2.27,7.89-4.08,1.61-1.81,1.69-4.21,1.69-4.21h0Zm-31.02-4.89h0c-1.27.42-2.03,2.46-2.03,3.49,0,1.02.88,3.35,4.86,4.59,3.97,1.24,9.59,3.06,14.16,3.06s11.46-1.48,11.46-5.84c0-1.35-.36-2.3-1.55-3.05-4.69-2.97-10.21-4.05-16-4.05-3.71.02-7.39.63-10.91,1.81h0Zm-14.66,53.41h0c-4.67-4.61-8-12.9-8-21.65,0-3.39.5-6.66,1.43-9.75,0,0,.79-1.41,1.55-.2.55.85,1.28,1.73,1.95,2.9.67,1.17,4.29,3.92,3.96,6.09-1.28,8.2-.13,19.13.26,20.93.39,1.78-.18,2.64-1.15,1.68h0Zm.89-28.11h0c1.65.92,1.92-.13,2.17-1.15,1.1-4.47,5.62-12.38,6.63-13.65,1.02-1.28.68-2.93.66-3.69-.01-.77-.41-2.03-.41-2.82,0-1.43-.89-1.4-1.47-1.14-5.04,2.33-8.93,6.73-11.66,11.56-.62,1.1-.65,3.61-.19,4.51.64,1.26,2.61,5.46,4.26,6.38Zm25.39,40.01h0c1.91.06,1.93-1.23.67-4.63-1.95-5.24-3.09-13.79-2.71-22.37.42-9.5,4.27-17.53,5.42-20.85,1.15-3.32-.76-3.7-2.55-4.08-1.79-.39-4.17-.88-5.36-1.24-2.2-.66-2.93-1.05-4.85-1.56-1.92-.51-4.47-.25-5.62,1.79-1.15,2.05-8.35,12.56-8.35,30.04,0,5.42,1.55,16.01,5.69,18.33,4.01,2.24,10.77,4.58,16.95,4.58.24,0,.48-.02.72,0h0Zm8.8-1.36h0c13.79-4.47,24.05-16.97,24.05-32.2,0-2.26-.43-4.38-.64-5.54-.26-1.44-1.34-1.61-1.83-.62-.5.99-2.86,6.06-8.32,10.55-5.46,4.49-11.42,6.94-19.79,7.15-.98.02-1.49,1.55-1.49,2.96s.89,11.99,4.34,15.92c.89,1.03,1.78,2.39,3.7,1.78h0Z"/>
        <path class="cls-1" d="m512.12,287.65c0-20.47-16.6-37.07-37.06-37.07s-37.07,16.6-37.07,37.07,16.59,37.07,37.07,37.07,37.06-16.59,37.06-37.07Z"/>
        <path class="cls-6" d="m456.79,265.01c1.61,1.82,4.7,3.19,7.89,4.08,0,0,1.54.89,2.42,2.3,1.36,2.14,6.18,13.74,6.39,20.55.06,2.31-1.88,4.22-4.98,3.78-3.09-.44-8.46-.31-17.1-8.38-1.92-1.79-8.45-9.39-6.33-14.45,1.67-4.02,4.57-7.38,7.79-10.26,0,0,1.6-1.32,2.24-1.83,0,0,.07,2.4,1.68,4.21h0Zm31.37-5.62h0c0-1.02-.77-3.06-2.03-3.49-3.43-1.14-7.09-1.81-10.91-1.81-5.79,0-11.31,1.08-16,4.05-1.19.75-1.55,1.7-1.55,3.05,0,4.36,6.88,5.84,11.46,5.84s10.19-1.82,14.17-3.06c3.97-1.25,4.86-3.57,4.86-4.59h0Zm11.48,48.24h0c.38-1.79,1.53-12.73.25-20.93-.34-2.17,3.29-4.93,3.96-6.09.66-1.17,1.4-2.04,1.94-2.9.76-1.2,1.55.2,1.55.2.95,3.16,1.44,6.45,1.44,9.75,0,8.75-3.33,17.04-8.01,21.65-.96.96-1.53.1-1.14-1.69h0Zm-1.92-27.56h0c.25,1.02.52,2.06,2.17,1.15,1.65-.91,3.62-5.12,4.26-6.37.46-.9.43-3.41-.19-4.51-2.72-4.83-6.62-9.23-11.66-11.56-.57-.27-1.46-.29-1.46,1.14,0,.8-.39,2.05-.42,2.83-.01.76-.36,2.4.67,3.68,1.02,1.27,5.54,9.18,6.64,13.65h0Zm-23.89,36.54h0c-1.27,3.4-1.24,4.69.68,4.63.23-.01.47,0,.71,0,6.18,0,12.94-2.34,16.94-4.58,4.14-2.32,5.69-12.91,5.69-18.33,0-17.48-7.2-27.99-8.35-30.04-1.15-2.04-3.71-2.3-5.62-1.79-1.92.51-2.66.9-4.85,1.56-1.19.36-3.57.86-5.36,1.24-1.79.39-3.7.77-2.55,4.09,1.15,3.32,4.99,11.35,5.42,20.85.39,8.58-.76,17.12-2.71,22.37h0Zm-32.18-28.94h0c0,15.23,10.25,27.73,24.04,32.2,1.92.62,2.81-.75,3.7-1.78,3.45-3.93,4.34-14.52,4.34-15.92s-.51-2.94-1.49-2.96c-8.38-.21-14.33-2.66-19.8-7.15-5.45-4.49-7.82-9.56-8.32-10.55-.5-.99-1.57-.82-1.83.62-.22,1.17-.65,3.28-.65,5.54h0Z"/>
        <path class="cls-5" d="m438.14,287.45c0-9.88,3.92-19.37,10.92-26.35,6.74-6.74,16.06-10.91,26.34-10.91s19.6,4.17,26.34,10.91c6.74,6.74,10.91,16.06,10.91,26.35s-4.17,19.6-10.91,26.34c-6.74,6.74-16.05,10.91-26.34,10.91-9.88.01-19.36-3.91-26.35-10.91-6.99-6.98-10.92-16.46-10.91-26.34Zm.38,0h0c0,10.18,4.13,19.4,10.8,26.07,6.68,6.68,15.89,10.81,26.08,10.81s19.4-4.13,26.08-10.8c6.67-6.68,10.79-15.89,10.79-26.08s-4.13-19.4-10.8-26.08c-6.91-6.93-16.29-10.81-26.07-10.8-9.79-.01-19.17,3.88-26.08,10.8-6.93,6.91-10.81,16.29-10.8,26.08Z"/>
      </g>
    </g>
  </g>
</svg>