<?xml version="1.0" encoding="UTF-8"?>
<svg id="Layer_2" data-name="Layer 2" xmlns="http://www.w3.org/2000/svg" viewBox="0 0 227.64 273.18">
  <defs>
    <style>
      .cls-1, .cls-2, .cls-3, .cls-4, .cls-5, .cls-6, .cls-7 {
        stroke-width: 0px;
      }

      .cls-2 {
        fill: #2f2f2f;
      }

      .cls-3 {
        fill: #00aff5;
      }

      .cls-4 {
        fill: #fff;
      }

      .cls-5 {
        fill: #fffefe;
      }

      .cls-6 {
        fill: #ffbd00;
      }

      .cls-7 {
        fill: #ff0009;
      }
    </style>
  </defs>
  <g id="Ebene_1" data-name="Ebene 1">
    <g>
      <path class="cls-1" d="m227.47,6.51c-.11,4.16-.21,8.31-.32,12.47-.19,7.02-.39,14.03-.6,21.05-.18,6.12-.36,12.24-.57,18.36-.24,6.92-.48,13.83-.78,20.75-.3,6.95-.61,13.9-1.01,20.84-.36,6.21-1.01,12.39-1.9,18.56-1.31,9.06-3.18,17.99-5.63,26.8-3.77,13.52-8.9,26.5-15.42,38.93-6.91,13.16-15.21,25.37-24.89,36.65-10.43,12.16-22.03,23.11-34.55,33.08-8.36,6.66-17.07,12.82-26.06,18.59-.26.17-.62.23-.72.6h-.4c-.16-.31-.49-.43-.75-.61-10.78-7.41-21.25-15.23-31.21-23.72-9.1-7.76-17.73-16.02-25.59-25.04-10.71-12.29-20.47-25.28-28.61-39.43-7.47-12.97-13.28-26.62-17.14-41.09-1.9-7.14-3.34-14.37-4.36-21.68-1.04-7.42-1.69-14.87-2-22.36-.27-6.48-.51-12.97-.8-19.45-.34-7.48-.73-14.96-1.1-22.44-.23-4.55-.45-9.11-.69-13.66-.29-5.55-.61-11.1-.91-16.65-.24-4.45-.45-8.91-.69-13.36-.19-3.52-.4-7.04-.6-10.56C-.02,2.33.17,1.53.02.74-.07.26.16-.02.7.02c.23.02.47,0,.7,0,13.51,0,27.02,0,40.52,0,61.48,0,122.96,0,184.44,0,.43,0,.86-.1,1.28.09v.4c-.2.27-.06.58-.1.86,0,.26,0,.51,0,.77,0,.27,0,.54,0,.8,0,.33,0,.67,0,1,0,.51,0,1.02,0,1.54-.03.34.06.69-.06,1.03Z"/>
      <path class="cls-2" d="m227.64,1.32c-.06,0-.12,0-.18.01,0-.28-.12-.6.18-.81v.8Z"/>
      <path class="cls-4" d="m114.2,23.43c36.6,0,73.21,0,109.81,0q1.25,0,1.22,1.27c-.14,5.35-.28,10.71-.44,16.06-.12,4.29-.26,8.58-.4,12.87-.19,5.69-.39,11.37-.6,17.06-.18,4.79-.39,9.57-.59,14.36-.11,2.66-.25,5.32-.38,7.98-.04.75-.04.75-.79.76-.2,0-.4,0-.6,0-71.21,0-142.42,0-213.64,0-1.34,0-1.32,0-1.37-1.3-.22-5.55-.44-11.1-.67-16.65-.18-4.22-.38-8.44-.6-12.66-.24-4.78-.51-9.57-.76-14.35-.28-5.45-.55-10.9-.84-16.35-.15-2.79-.32-5.58-.49-8.37-.04-.65-.04-.65.63-.67.27,0,.53,0,.8,0,36.57,0,73.14,0,109.71,0Z"/>
      <path class="cls-4" d="m114.76,95.59c.36-.02.73-.05,1.09-.05,35.2,0,70.4,0,105.6,0,1.21,0,1.23,0,1.16,1.2-.29,5.31-.71,10.61-1.33,15.9-.78,6.67-1.86,13.29-3.27,19.86-3.15,14.6-7.78,28.71-14.07,42.27-8.26,17.81-18.99,33.99-32.09,48.6-12.87,14.35-27.31,26.95-42.97,38.17-4.32,3.1-8.73,6.08-13.2,8.96-.29.19-.54.52-.96.46-.23-.5-.25-1.03-.25-1.56,0-11.96,0-23.92,0-35.89,0-.4-.01-.8.1-1.19.22-.63.77-.55,1.26-.55,5.36.03,10.6-.77,15.77-2.13,9.48-2.5,17.96-6.93,25.49-13.2,5.7-4.76,10.43-10.34,14.21-16.72,4.59-7.74,7.44-16.09,8.57-25.03.47-3.67.72-7.35.54-11.04-.33-6.82-1.62-13.45-4.08-19.85-2.67-6.94-6.45-13.2-11.31-18.81-5.03-5.82-10.99-10.5-17.71-14.25-7.45-4.15-15.43-6.63-23.84-7.84-2.57-.37-5.17-.36-7.74-.64-.42-.05-.89.03-1.12-.47-.11-2.07-.36-4.14.13-6.2Z"/>
      <path class="cls-7" d="m114.76,95.59c0,2.13,0,4.26,0,6.39-.28.32-.67.25-1.02.27-4.55.21-9.08.58-13.55,1.56-10.75,2.34-20.32,7.02-28.68,14.19-5.53,4.75-10.12,10.28-13.76,16.58-4.16,7.2-6.75,14.95-7.99,23.17-.48,3.2-.74,6.43-.72,9.63.03,4.55.43,9.09,1.41,13.57,2.18,9.96,6.37,18.95,12.8,26.88,6.85,8.44,15.31,14.71,25.33,18.9,6.06,2.54,12.37,4.09,18.89,4.8,2.05.23,4.11.28,6.17.25.39,0,.88-.15,1.13.35,0,.43-.03.86-.03,1.3,0,12.14,0,24.29,0,36.43,0,.37-.01.73-.02,1.1-1.97-1.18-3.8-2.57-5.67-3.89-8.8-6.23-17.34-12.8-25.56-19.8-12.4-10.57-23.69-22.19-33.78-34.99-6.79-8.61-13.13-17.52-18.7-26.96-7.18-12.17-12.93-24.97-16.91-38.54-2.03-6.93-3.62-13.96-4.77-21.09-.77-4.76-1.37-9.54-1.81-14.34-.35-3.84-.63-7.69-.81-11.54-.06-1.2-.1-2.39-.17-3.59-.03-.54.18-.72.69-.67.23.02.47,0,.7,0,35.24,0,70.48,0,105.72,0,.36,0,.73.03,1.09.04Z"/>
      <path class="cls-7" d="m113.9,1.95c33.58,0,67.15,0,100.73,0,3.36,0,6.72,0,10.08.01.2,0,.4.01.6,0,.45-.03.57.19.56.6-.04,1.23-.01,2.46-.09,3.69-.08,1.2-.08,2.39-.12,3.59-.09,3.43-.18,6.85-.27,10.28-.04,1.56-.05,1.56-1.57,1.56-73.14,0-146.28,0-219.42,0-1.46,0-1.47,0-1.55-1.51-.1-1.79-.17-3.59-.26-5.38-.2-3.85-.41-7.71-.59-11.56-.07-1.55-.18-1.32,1.29-1.32,21.96,0,43.92,0,65.89,0,14.91,0,29.81,0,44.72,0v.04Z"/>
      <path class="cls-7" d="m138.61,65.47c-9.95,0-18.01-8.17-18.02-18.27-.01-10.18,8-18.32,18.05-18.33,9.58,0,18.13,7.51,18.1,18.36-.03,11.18-9.19,18.39-18.13,18.24Z"/>
      <path class="cls-7" d="m18.53,41.37c0,2.53,0,5.05,0,7.58,0,5.06-.02,10.12-.03,15.18,0,.2,0,.4,0,.6.01.33-.14.48-.48.48-1.13,0-2.26,0-3.39,0-.29,0-.43-.13-.42-.42,0-.43.02-.87.02-1.3.02-7.16.05-14.31.07-21.47.01-3.99.02-7.99.02-11.98,0-.42,0-.85.1-1.32,3.91,4.9,7.68,9.89,11.57,14.92,3.72-5.08,7.35-10.06,10.99-15.04l.18.04c0,.28,0,.56,0,.84-.02,11.58-.04,23.17-.07,34.75,0,.2,0,.4,0,.6,0,.24-.13.37-.37.37-1.1,0-2.2,0-3.29,0-.29,0-.43-.14-.43-.42,0-.27,0-.53,0-.8,0-7.29-.02-14.58-.03-21.87,0-.32.06-.65-.12-1.12-2.36,3.28-4.66,6.47-7.02,9.74-2.4-3.19-4.74-6.32-7.09-9.45-.07.03-.14.06-.21.09Z"/>
      <path class="cls-7" d="m93.03,65.73c-4.73-7.41-9.45-14.81-14.26-22.36-.17.5-.11.85-.11,1.19,0,6.49,0,12.98,0,19.47,0,.23-.02.47,0,.7.03.38-.12.54-.51.53-.96-.02-1.93-.02-2.89,0-.46.01-.59-.2-.54-.6.01-.1,0-.2,0-.3,0-11.75,0-23.5,0-35.25v-.52c.15.12,0,0,.14,0,.03,0,.06.02.08.04.08.1.16.21.23.32,4.64,7.57,9.27,15.15,13.91,22.72.01.02.05.02.22.09,0-.39,0-.73,0-1.08,0-6.79,0-13.58,0-20.37,0-1.17-.17-1.08,1.05-1.09.77,0,1.53.02,2.3,0,.5-.02.66.18.6.64-.02.13,0,.27,0,.4,0,11.52,0,23.03,0,34.55v.85c-.07.02-.13.03-.2.05Z"/>
      <path class="cls-7" d="m199.59,28.53c4.62,12.13,9.25,24.25,13.9,36.44-.34.19-.67.13-.98.14-.83.03-1.66,0-2.49.07-.55.04-.84-.1-1.03-.65-.43-1.26-.96-2.48-1.38-3.74-.19-.58-.49-.74-1.08-.74-2.93,0-5.85-.03-8.78-.06-1.73-.02-3.46-.07-5.19-.09-1.09-.01-.88-.05-1.24.9-.46,1.21-.9,2.43-1.35,3.64-.29.77-.29.74-1.05.73-1.09-.02-2.19,0-3.44,0,4.68-12.33,9.3-24.48,13.91-36.64h.22Z"/>
      <path class="cls-7" d="m69.89,65.06c-1.37.04-2.63.07-3.89.12-.4.01-.49-.25-.6-.54-.48-1.27-.99-2.54-1.44-3.82-.19-.54-.43-.77-1.05-.77-2.96.01-5.92-.03-8.88-.06-1.76-.02-3.53-.04-5.29-.1-.57-.02-.83.17-1.01.7-.45,1.35-.97,2.69-1.46,4.03-.12.32-.24.6-.68.58-1.19-.06-2.39-.08-3.73-.12,4.65-12.24,9.27-24.41,13.98-36.82,4.73,12.39,9.37,24.56,14.04,36.82Z"/>
      <path class="cls-7" d="m173.04,66.11c-4.91-12.4-9.75-24.58-14.63-36.9,1.62,0,3.08,0,4.54,0,.4,0,.47.3.58.58.4,1.05.81,2.11,1.21,3.17,2.67,6.98,5.34,13.96,8.01,20.94.08.22.18.43.28.65.41-.07.36-.46.45-.7,3.03-7.84,6.03-15.69,9.05-23.53.5-1.29.18-1.09,1.61-1.11,1.09-.01,2.19,0,3.46,0-4.86,12.31-9.67,24.49-14.56,36.9Z"/>
      <path class="cls-7" d="m110.61,49.18c0,4.89,0,9.79,0,14.68,0,.2-.02.4,0,.6.04.45-.09.67-.6.66-1.03-.03-2.06-.02-3.09,0-.37,0-.57-.1-.53-.51.02-.26,0-.53,0-.8,0-9.72,0-19.44,0-29.16,0-.2,0-.4,0-.6-.01-.82-.01-.83-.81-.84-1.9,0-3.79,0-5.69,0-.2,0-.4-.01-.6,0-.39.03-.54-.15-.53-.53.01-1,.01-2,0-3,0-.35.14-.48.47-.46.2.01.4,0,.6,0,5.76,0,11.51,0,17.27,0,.03,0,.07,0,.1,0,1.11,0,.97,0,.97.97,0,.8-.02,1.6,0,2.4.02.49-.18.63-.64.63-1.8-.02-3.59,0-5.39,0-.27,0-.53,0-.8,0-.74.02-.75.02-.75.79,0,5.06,0,10.12,0,15.18Z"/>
      <path class="cls-7" d="m111.49,80.47c-3.51.7-6.16-1.68-5.99-5.44.02-.49.1-.99.23-1.47.68-2.55,2.92-4,5.71-3.71,2.58.27,4.37,2.19,4.54,4.85.09,1.46-.21,2.85-.86,4.15-1.41,2.82-2.88,5.61-4.32,8.42-.18.36-.41.56-.85.54-.68-.03-1.37,0-2.22,0,1.28-2.51,2.48-4.86,3.74-7.33Z"/>
      <path class="cls-7" d="m102.49,69.56c.25.28.15.55.15.8,0,5.49,0,10.98,0,16.48,0,.2,0,.4,0,.6-.01.24-.15.36-.39.36-.63,0-1.26,0-1.9,0-.25,0-.35-.16-.36-.38,0-.2,0-.4,0-.6,0-4.49.01-8.99-.01-13.48,0-.61.16-1.08.57-1.52.67-.72,1.2-1.56,1.94-2.25Z"/>
      <path class="cls-7" d="m120.87,69.49c.25.42.16.72.16,1.01,0,5.43,0,10.85,0,16.28,0,.17,0,.33,0,.5.02.38-.16.5-.53.53-2.13.17-2.13.18-2.13-1.94,0-4.16.01-8.32-.01-12.48,0-.6.13-1.08.54-1.54.67-.74,1.27-1.52,1.97-2.36Z"/>
      <path class="cls-7" d="m127.68,69.52c.27.39.18.7.18.98,0,5.42,0,10.84,0,16.26,0,.17,0,.33,0,.5.02.37-.13.51-.52.55-2.14.17-2.14.18-2.14-1.93,0-4.16,0-8.31-.01-12.47,0-.6.11-1.08.53-1.53.67-.73,1.27-1.53,1.96-2.36Z"/>
      <path class="cls-1" d="m114.78,232.13c-.83-.02-1.66-.03-2.49-.06-11.68-.35-22.56-3.47-32.54-9.54-12.06-7.34-20.81-17.57-26.21-30.63-2-4.84-3.32-9.88-4.07-15.07-.46-3.23-.73-6.48-.68-9.74.27-17.21,6.01-32.29,17.88-44.85,9.17-9.7,20.39-15.86,33.44-18.69,3.71-.8,7.46-1.3,11.26-1.42,1.13-.03,2.26-.1,3.38-.16,1.95.17,3.92.19,5.87.36,7.82.7,15.31,2.64,22.43,5.95,12.69,5.89,22.63,14.82,29.58,27,3.76,6.59,6.17,13.66,7.33,21.16.64,4.13.88,8.27.71,12.44-1.21,28.32-19.56,51.03-44.17,59.56-5.27,1.83-10.68,2.97-16.24,3.44-1.83.16-3.65.16-5.48.25Z"/>
      <path class="cls-4" d="m152.56,46.74c.01,6.44-3.72,11.98-9.17,14.02-5.57,2.08-11.66.31-15.48-4.46-5.23-6.53-3.9-17,3.79-21.68,5.53-3.38,13.3-2.42,17.85,3.52,2.04,2.66,2.97,5.68,3.02,8.6Z"/>
      <path class="cls-4" d="m199.56,39.74c2.16,5.63,4.31,11.27,6.51,16.99h-13.13c2.16-5.72,4.29-11.36,6.42-17,.07,0,.14,0,.2,0Z"/>
      <path class="cls-4" d="m55.92,39.73c2.15,5.63,4.31,11.26,6.47,16.9-.81.22-11.04.29-13.09.11,2.15-5.7,4.29-11.36,6.43-17.03.06,0,.13.02.19.03Z"/>
      <path class="cls-5" d="m113.28,75.13c.01,1.84-1.02,2.96-2.61,2.92-1.03-.03-1.86-.61-2.21-1.57-.25-.7-.3-1.42-.1-2.15.37-1.33,1.3-2.01,2.65-1.9,1.22.09,2.09.98,2.23,2.29.02.17.03.33.03.43Z"/>
      <path class="cls-6" d="m178.97,165.27c.1,27.08-15.86,50.74-40.03,60.41-5.81,2.32-11.81,3.83-18.05,4.39-16.08,1.45-30.88-2.18-44.08-11.55-13.36-9.48-21.65-22.4-25.03-38.44-1.08-5.1-1.47-10.28-1.2-15.48.92-17.4,7.55-32.22,20.35-44.13,7.98-7.43,17.37-12.3,27.96-14.87,6.18-1.5,12.46-2.1,18.81-1.73,16.88.99,31.52,7.18,43.52,19.19,9,9.01,14.58,19.88,16.85,32.42.65,3.57.97,7.19.91,9.8Z"/>
      <path class="cls-1" d="m114.39,109.92c15.72.22,29.49,5.43,40.94,16.32,8.88,8.44,14.36,18.79,16.55,30.86.74,4.07,1.05,8.2.79,12.32-1.26,19.73-10.24,35-26.76,45.79-6.65,4.35-14.01,6.99-21.85,8.27-4.12.67-8.27.94-12.43.71-12.84-.7-24.38-4.91-34.33-13.13-10.05-8.3-16.45-18.86-19.23-31.6-.75-3.45-1.15-6.95-1.24-10.48-.31-13.19,3.28-25.19,11.14-35.79,8.61-11.62,20.1-18.89,34.23-21.99,4.01-.88,8.07-1.29,12.19-1.27Z"/>
      <path class="cls-3" d="m115.63,167.74c0-13.81,0-27.63,0-41.44,0-1.24-.23-1.21,1.17-1.15,9.66.48,18.23,3.79,25.62,10.03,6.94,5.86,11.53,13.24,13.81,22.05,1.08,4.15,1.5,8.38,1.27,12.66-.98,18.13-12.96,33.09-29.54,38.45-3.82,1.23-7.75,1.85-11.75,2.03-.37.02-.58-.09-.56-.49.01-.23,0-.47,0-.7,0-13.81,0-27.63,0-41.44h-.02Z"/>
      <path class="cls-7" d="m84.82,120.01c2.04-1.39,4.25-2.46,6.49-3.48,3.37-1.53,6.88-2.65,10.48-3.5.26-.06.53-.07.79-.1.55.51.37,1.18.37,1.79.01,10.84,0,21.69,0,32.53,0,3.96,0,7.92,0,11.88,0,1.4.07,1.46,1.47,1.46,2.66,0,5.32,0,7.98,0,.51,0,1.08-.12,1.48.38.02.23.06.46.06.69,0,5.25,0,10.51,0,15.76,0,.16-.03.33-.04.49-.39.35-.87.28-1.33.29-2.46,0-4.92,0-7.38,0-2.38,0-2.24-.21-2.24,2.19,0,13.01,0,26.02,0,39.03,0,.61.16,1.28-.36,1.8-1.46-.15-2.85-.6-4.25-1-4.52-1.3-8.81-3.15-12.87-5.53-.23-.13-.43-.3-.65-.45-.38-.53-.28-1.15-.28-1.74,0-10.7,0-21.41,0-32.11,0-2.41.19-2.17-2.23-2.18-7.01,0-14.02,0-21.03,0-.58,0-1.21.13-1.73-.29-.45-1.81-.62-3.66-.81-5.51-.23-2.32-.3-4.64-.2-6.97.07-1.49.1-2.99.38-4.46.47-.52,1.11-.38,1.69-.38,7.28-.01,14.56,0,21.84,0,.27,0,.53,0,.8,0,1.21-.02,1.28-.07,1.28-1.32,0-6.25,0-12.51,0-18.76s0-12.51,0-18.76c0-.6-.05-1.2.28-1.75Z"/>
      <path class="cls-4" d="m115.65,217.25c0-1.46,0-2.93,0-4.39,0-.74.01-.75.76-.78,4.65-.17,9.17-1,13.54-2.61,9.2-3.37,16.52-9.14,21.96-17.28,3.52-5.27,5.8-11.06,6.78-17.32,1.56-9.98.04-19.5-4.85-28.36-5.67-10.29-14.17-17.28-25.33-21-3.94-1.31-8-1.95-12.13-2.13-.74-.03-.75-.03-.75-.78,0-3.39,0-6.79,0-10.18,0-.75.01-.73.76-.71,8.33.25,16.27,2.14,23.69,5.92,15.49,7.89,25.49,20.24,29.58,37.22,1.25,5.21,1.58,10.53,1.2,15.86-1.73,24.44-18.73,43.31-40.28,49.53-4.46,1.29-9,2.04-13.64,2.21-.23,0-.47-.01-.7.02-.5.06-.62-.17-.61-.63.02-1.53,0-3.06,0-4.59Z"/>
      <path class="cls-4" d="m84.82,120.01c0,.4.02.8.02,1.2,0,12.84,0,25.68,0,38.52,0,.1,0,.2,0,.3,0,.97.12.96-.98.96-8.31,0-16.63,0-24.94,0,.09-1.86.45-3.69.85-5.5,2.27-10.46,7.14-19.53,14.61-27.2,3-3.09,6.36-5.75,10-8.05.14-.09.3-.14.45-.21Z"/>
      <path class="cls-4" d="m59.55,177.92c8.15,0,16.3,0,24.45,0,.83,0,.84,0,.84.8,0,11.75,0,23.49,0,35.24,0,.1-.01.2-.02.3-1.89-1-3.6-2.26-5.26-3.57-10.61-8.38-17.25-19.22-20-32.46-.02-.1,0-.2,0-.3Z"/>
      <path class="cls-4" d="m113.89,160.98c-3.43,0-6.85,0-10.28,0-1.12,0-1,.11-1-1.02,0-13.58,0-27.16,0-40.73,0-2.1-.01-4.19-.02-6.29,1.24-.4,2.53-.52,3.8-.72,2.2-.34,4.43-.44,6.65-.56.87-.05.89-.02.91.85,0,.2,0,.4,0,.6,0,15.6,0,31.19,0,46.79,0,.36-.04.73-.05,1.09Z"/>
      <path class="cls-4" d="m102.59,221.24c0-6.09,0-12.18.01-18.27,0-7.95,0-15.9,0-23.86,0-.27,0-.53,0-.8,0-.29.14-.42.43-.4.1,0,.2,0,.3,0,3.53,0,7.05.01,10.58.02.01.36.03.73.03,1.1,0,14.11,0,28.22,0,42.33,0,.2-.02.4,0,.6.04.46-.19.56-.6.55-3.53-.06-7.02-.47-10.49-1.14-.09-.02-.18-.08-.27-.13Z"/>
    </g>
  </g>
</svg>