<?xml version="1.0" encoding="UTF-8"?>
<svg id="Layer_2" data-name="Layer 2" xmlns="http://www.w3.org/2000/svg" viewBox="0 0 148.26 175.75">
  <defs>
    <style>
      .cls-1 {
        fill: #5c6f8d;
      }

      .cls-1, .cls-2 {
        stroke-width: 0px;
      }

      .cls-2 {
        fill: #fff;
      }

      .cls-3 {
        fill: none;
        stroke: #fff;
        stroke-miterlimit: 2.61;
        stroke-width: .61px;
      }
    </style>
  </defs>
  <g id="Layer_1-2" data-name="Layer 1">
    <g>
      <path class="cls-2" d="m74.13,175.75s79.89-27.39,73.8-151.78c-37.66,0-48.69-3.04-73.8-23.97C49.02,20.92,37.99,23.97.33,23.97c-6.09,124.39,73.8,151.78,73.8,151.78h0Z"/>
      <path class="cls-1" d="m110.38,143.3c-15.43,18.15-31.54,25.83-36.25,27.81-4.71-1.98-20.82-9.66-36.25-27.81C15.82,117.35,4.32,80.77,4.32,36.95c0-2.86.12-5.79.22-8.7,34.81-.27,46.92-4.22,69.59-22.68,22.67,18.46,34.78,22.41,69.59,22.68.1,2.92.22,5.85.22,8.7,0,43.82-11.5,80.4-33.56,106.34h0Zm35.45-117.19c-36.5-.14-48.16-3.93-71.69-23.32C50.6,22.18,38.94,25.97,2.43,26.11c-.15,3.73-.27,7.41-.27,10.96,0,55.56,18.27,89.12,34.25,107.83,16.69,19.55,34.15,27.13,37.72,28.54,3.57-1.41,21.02-8.99,37.72-28.54,15.98-18.71,34.25-52.27,34.25-107.83,0-3.55-.12-7.23-.27-10.96h0Z"/>
      <path class="cls-1" d="m7.9,31.68c-.04,1.76-.13,3.55-.13,5.28,0,42.8,11.13,78.5,32.47,103.79,13.81,16.37,28.21,24.02,33.89,26.6,5.68-2.58,20.08-10.23,33.89-26.6,21.34-25.29,32.47-60.99,32.47-103.79,0-1.73-.09-3.52-.13-5.28-30.35-.43-43.94-4.02-66.23-21.67C51.84,27.66,38.25,31.24,7.9,31.68h0Z"/>
      <path class="cls-2" d="m78.48,50.17c-.54,1.9-2.27,3.31-4.35,3.31-1.21,0-2.35-.47-3.21-1.33-.86-.86-1.33-2-1.33-3.21s.47-2.35,1.33-3.21c.86-.86,2-1.33,3.21-1.33.34,0,.67.04.99.12.62-.29,1.35-.53,2.15-.74-.92-.56-1.98-.9-3.13-.9-1.62,0-3.14.63-4.28,1.78-1.14,1.14-1.78,2.67-1.78,4.28s.63,3.14,1.78,4.28c1.14,1.15,2.67,1.78,4.28,1.78,3.02,0,5.51-2.23,5.97-5.13-.64.04-1.18.15-1.62.3h0Z"/>
      <path class="cls-2" d="m58.41,63.5h1.64c-2.27,2.2-2.98,4.53-3.19,5.91-2.03-.51-4.31-1.8-4.31-2.84,0-1.32,3.69-3.07,5.86-3.07h0Zm4.81,0h19.72v6.14h-24.12c.22-1.35,1.08-3.97,4.39-6.14h0Zm12.71-3.94c1.37,0,2.65.51,3.62,1.36h-7.23c.97-.85,2.24-1.36,3.62-1.36h0Zm8.99,3.94h4.94c2.17,0,5.86,1.74,5.86,3.07s-3.68,3.07-5.86,3.07h-4.94v-6.14h0Zm-26.51,8.12h10.17v28.16c.62.39,1.28.76,1.97,1.12v-29.29h5.2v31.62c.48.19.96.39,1.44.58.82.33,1.66.67,2.5,1.03v-33.23h10.17c2.39,0,7.84-1.91,7.84-5.05,0-2.2-2.67-3.79-5.09-4.55-.66-.21-1.3-.34-1.86-.42-.32-.04-.63-.08-.89-.08h-7.51c-.48-1.87-1.56-3.47-3.03-4.62,1.85-1.21,3.24-3.04,3.9-5.2-.37-.58-.79-1.04-1.23-1.36-.44,2.45-2.02,4.51-4.16,5.64-1.12-.54-2.36-.88-3.69-.88s-2.57.33-3.69.88c-.71-.37-1.37-.82-1.95-1.4-1.51-1.51-2.34-3.52-2.34-5.65s.83-4.14,2.34-5.65c1.51-1.51,3.51-2.34,5.65-2.34,2.25,0,4.28.94,5.73,2.45.25-.01.47-.05.73-.05.45,0,.87.04,1.28.1-1.72-2.43-4.55-4.02-7.75-4.02-2.54,0-4.93.99-6.72,2.79-1.8,1.8-2.79,4.18-2.79,6.72s.99,4.93,2.79,6.72c.47.47.99.89,1.54,1.24-1.48,1.14-2.55,2.75-3.03,4.61h-7.51c-2.39,0-7.84,1.91-7.84,5.05s5.44,5.05,7.84,5.05h0Z"/>
      <path class="cls-2" d="m78.16,117.97l1.31,1.09s2.59,2.12,5.66,2.58c.18-.71.4-2.01.4-4.48,0-.12-.02-.24-.04-.36-3.25-.75-4.69-3-5.33-4.64-1.37-.66-2.88-1.3-4.41-1.92v.2c0,3.55.82,6.08,2.13,7.85l.28-.33h0Z"/>
      <path class="cls-2" d="m105.58,113.39c-.26-.28-.52-.56-.52-.56h-3.65c1.31-1.67,4.71-6.32,6.61-11.66-.19,3.87-.82,8.29-2.44,12.22h0Zm-6.45-5.03s-.32-.1-.64-.2c2.67-2.15,5.04-4.25,7.09-6.17-1.6,3.8-3.87,7.14-5.18,8.91-.64-1.28-1.26-2.53-1.26-2.53h0Zm-25,24.79c-.05-.05-.11-.08-.17-.13l.17.03.17-.03c-.05.04-.11.08-.17.13h0Zm-25.01-24.79s-.62,1.24-1.26,2.53c-1.31-1.77-3.59-5.11-5.18-8.91,2.05,1.92,4.42,4.02,7.09,6.17-.32.1-.64.2-.64.2h0Zm-5.93,4.47s-.26.28-.52.56c-1.62-3.93-2.25-8.36-2.44-12.22,1.9,5.34,5.3,9.99,6.61,11.66h-3.65Zm67.96-21.66s-7.86,9.64-20.04,18.26l5.58,1.78.77,1.53c-.59,1.24-2.02,3.05-5.48,3.89.01.18.04.35.04.54,0,.76,0,1.95-.13,3.27.5-.2.99-.42,1.45-.66-.48.44-1,.82-1.51,1.23-.39,3.33-1.63,7.21-5.54,7.21-2.32,0-4.43-.58-6.18-1.3-1.85.56-3.83,1.05-5.99,1.49-2.17-.44-4.17-.93-6.02-1.5,2.43-.41,4.23-1.34,6.02-2.54,1.77,1.18,3.55,2.1,5.92,2.52-2.83-1.19-4.68-2.77-4.81-2.88l-1.29-1.12,1.24-1.45c-.06-.04-.12-.08-.19-.13-.52-.37-1.22-.37-1.75,0-3.1,2.18-5.44,3.44-11.69,2.5l-1.42-.21c-3.05-1.73-5.64-3.88-7.99-6.58,1.78,1.15,4.4,2.04,8.28,2.04,9.16,0,10.11-8.41,10.11-8.5v-2.46c-.66-.29-1.32-.6-1.97-.92v3.28c-.02.17-.8,6.62-8.14,6.62-6.58,0-8.86-2.68-9.64-4.33l.77-1.53,5.58-1.78c-12.17-8.62-20.03-18.26-20.03-18.26,0,0-2.54,17.75,4.82,28.15l2.79-3.04h1.09c5.59,7.98,12.2,12.59,22.37,15.4.36.17.71.34,1.05.5,1.62.74,3.15,1.45,4.31,2.61l.59.59.59-.59c1.16-1.16,2.69-1.86,4.31-2.61.34-.16.7-.33,1.05-.49,10.17-2.81,16.79-7.42,22.38-15.4h1.09l2.79,3.04c7.36-10.4,4.82-28.15,4.82-28.15h0Z"/>
      <path class="cls-2" d="m86.43,126.47l-1.47-3.11c.41.06.82.11,1.24.11.06-.04.15-.16.24-.34l2.69,1.4c-.57,1.11-1.42,1.89-2.7,1.94h0Zm-8.08-6.09s.44.35,1.12.8l-1.2,2.84c-1.13-.69-1.82-1.27-1.89-1.33l1.98-2.31h0Zm3.25,5.25c-.89-.32-1.7-.7-2.4-1.07l1.19-2.82c.45.26.95.51,1.51.76l-.3,3.13h0Zm1.34-2.75c.24.08.48.15.73.21l1.58,3.35c-.91-.08-1.78-.25-2.6-.48l.3-3.08h0Zm-7.65-14.68l.31-3.16c.31.13.62.25.94.38.29.12.58.24.87.35v3.29c-.66-.27-1.34-.55-2.02-.82-.04-.01-.07-.03-.11-.04h0Zm-15.17-10.94l3.07-.55c.34.73.8,1.4,1.37,2.03l-2.56,1.71c-.81-.95-1.45-2.01-1.88-3.18h0Zm2.57-10.67l2.29,1.7c-.31.36-.62.73-.9,1.13l-2.86-.93c.44-.68.94-1.31,1.47-1.9h0Zm4.68-.63l-1.45-2.29c.34-.26.67-.49.97-.69l.48,2.99h0Zm-3.94-.15c.55-.55,1.11-1.04,1.65-1.48l1.51,2.39c-.29.25-.58.51-.87.8l-2.29-1.7h0Zm-.7,6.43h-3.08c.19-1,.54-1.93,1.01-2.81l2.83.92c-.33.6-.6,1.23-.77,1.89h0Zm-3.24,1.53c0-.16.03-.31.04-.47h3.04c-.01.15-.03.31-.03.47,0,.68.1,1.31.28,1.91l-3.01.54c-.19-.77-.31-1.58-.31-2.46h0Zm8.03,7.38l-2.19,2.19c-.96-.65-1.84-1.35-2.61-2.12l2.6-1.74c.65.59,1.39,1.14,2.2,1.66h0Zm2.29,4.7c-1.25-.59-2.45-1.22-3.57-1.91l2.22-2.22c.67.39,1.38.76,2.12,1.12l-.77,3.01h0Zm1.75-2.54c.98.45,1.99.88,3.01,1.3l-.31,3.16c-1.15-.47-2.32-.96-3.46-1.47l.76-2.99h0Zm15.57,16.83c.04-.36.06-.77.09-1.2l3.07-.37c-.02.66-.06,1.41-.15,2.2l-3.01-.63h0Zm-.14,1.06l2.99.62c-.1.59-.24,1.18-.43,1.73l-2.75-1.44c.07-.26.13-.56.19-.91h0Zm3.31-4.03v.33l-3.06.37c0-.23.01-.44.01-.69s-.02-.5-.07-.74l2.81-1.37c.2.66.3,1.36.3,2.12h0Zm-2-5.09c.54.61.99,1.26,1.32,1.97l-2.76,1.35c-.24-.52-.57-1.02-1-1.49l2.44-1.83h0Zm-3.05-2.53c.85.54,1.63,1.13,2.3,1.76l-2.47,1.85c-.42-.35-.89-.69-1.39-1.02l1.57-2.59h0Zm-3.4-1.85c.87.41,1.7.84,2.49,1.3l-1.56,2.59c-.52-.3-1.07-.58-1.65-.86l.72-3.02h0Zm-1.71,2.55c-.55-.25-1.11-.5-1.68-.74v-3.3c.98.4,1.95.82,2.89,1.25l-.51-.12-.7,2.91h0Zm-2.97-6.43c-6.36-2.58-12.93-5.24-12.93-10.05,0-2.59,2.45-5.04,4.32-6.46v-2.11c-.07.05-.15.1-.23.16l-.48-3.02c.39-.24.66-.39.72-.42v-2.34l-1.75,1.09c-.93.52-9.07,5.34-9.07,13.1,0,9.19,9.41,13,16.98,16.07,5.3,2.15,10.79,4.37,10.79,7.33,0,2.47-.22,3.77-.4,4.48-3.07-.46-5.63-2.56-5.66-2.58l-1.31-1.09-1.12,1.29-3.09,3.61,1.29,1.12c.2.17,4.93,4.21,11.06,4.21,5.72,0,5.72-8.31,5.72-11.05,0-7.33-7.88-10.52-14.84-13.34h0Z"/>
      <path class="cls-2" d="m87.52,59.57c-.08-.52-.18-1.09-.3-1.69h3.12c.12.62.2,1.18.28,1.69h-3.09Zm-8.51-11.3l-1.86-2.69c.97-.3,2.11-.51,3.44-.51.62,0,1.19.09,1.74.23l-.76,2.93c-.31-.08-.64-.12-.98-.12-.59,0-1.11.06-1.59.15h0Zm-3.65,1.89l-2.46-1.79s.32-.41.83-.87l2.15,2.15c-.31.27-.49.48-.51.5h0Zm.78-4.18l1.77,2.57c-.44.15-.83.32-1.15.5l-2.2-2.2c.43-.3.95-.6,1.57-.87h0Zm9.97,1.73l-2.4,1.86c-.35-.36-.73-.67-1.13-.91l.78-3.02c1.06.46,1.97,1.18,2.76,2.07h0Zm-.9,3.97c-.25-.47-.52-.89-.81-1.29l2.4-1.86c.43.59.8,1.23,1.15,1.9l-2.73,1.25h0Zm3.2-.29c.31.7.59,1.42.82,2.14l-2.94.78c-.19-.57-.39-1.13-.63-1.67l2.74-1.25h0Zm-1.8,3.94l2.94-.78c.22.77.42,1.54.58,2.26h-3.14c-.11-.49-.24-.98-.38-1.48h0Zm4.14,6.27c.56.08,1.2.22,1.86.42v-.22c-.06-.75-1.25-18.46-12-18.46-6.06,0-8.82,3.61-9.11,4.02l-1,1.39,5.17,3.75,1.05-1.3c.05-.06,1.15-1.38,3.88-1.38,3.27,0,5.03,7.57,5.45,11.68h1.73c-.02-.23-.06-.54-.11-.89h3.08c.04.4.08.75.1.97-.04,0-.07,0-.1,0h0Z"/>
      <path class="cls-2" d="m51.56,50.47c-1.39,0-5.71,4.56-5.71,4.56,0,0-.76-8.75-12.93-8.75-11.41,0-11.41,8.75-11.41,8.75v20.16s.51,11.03,14.33,11.03c11.92,0,13.82-9.38,13.82-9.38,0-2.66-2.09-2.09-2.09-2.09,0,0-4.5,6.02-9.19,6.02-6.47,0-7.74-10.27-7.74-10.27v-13.57s.13-5.58,4.82-5.58c5.45,0,6.47,10.02,6.47,10.02,0,0,1.77,1.02,2.79,0,2.92-4.18,8.12-6.97,8.12-6.97,0,0,1.14-3.93-1.27-3.93h0Z"/>
      <polygon class="cls-2" points="95.43 82.29 107.35 82.29 107.35 79.12 103.04 79.12 103.04 55.41 111.16 80.9 119.4 53.38 119.4 79.12 115.21 79.12 115.21 82.29 129.54 82.29 129.54 79.12 126.12 79.12 126.12 49.45 129.54 49.45 129.54 46.28 116.86 46.28 111.54 62.51 107.35 46.28 95.43 46.28 95.43 49.45 99.74 49.45 99.74 79.12 95.43 79.12 95.43 82.29 95.43 82.29"/>
      <path class="cls-3" d="m61.34,65.01h22.49m-26.01-2.1c-1.6,1.6-2.14,4.04-2.14,4.04m1.1-4.04c-1.6,1.6-2.14,4.04-2.14,4.04m34.89-3.71c4.56,1.96,5.63,5.63,5.63,5.63m-7.15-5.63c4.56,1.96,5.63,5.63,5.63,5.63m-6.97-5.33c4.56,1.96,5.63,5.63,5.63,5.63"/>
    </g>
  </g>
</svg>