<?xml version="1.0" encoding="UTF-8"?>
<svg id="Layer_2" data-name="Layer 2" xmlns="http://www.w3.org/2000/svg" xmlns:xlink="http://www.w3.org/1999/xlink" viewBox="0 0 418.8 612.96">
  <defs>
    <style>
      .cls-1 {
        clip-path: url(#clippath);
      }

      .cls-2, .cls-3, .cls-4, .cls-5, .cls-6, .cls-7, .cls-8, .cls-9, .cls-10 {
        stroke-width: 0px;
      }

      .cls-2, .cls-11 {
        fill: none;
      }

      .cls-3 {
        fill: #03030f;
      }

      .cls-3, .cls-4, .cls-5, .cls-6, .cls-7, .cls-8, .cls-9, .cls-10 {
        fill-rule: evenodd;
      }

      .cls-4 {
        fill: #15130f;
      }

      .cls-5 {
        fill: #0f51aa;
      }

      .cls-6 {
        fill: #1b1918;
      }

      .cls-7 {
        fill: #1f3d69;
      }

      .cls-8 {
        fill: #ff1729;
      }

      .cls-9 {
        fill: #ffd000;
      }

      .cls-10 {
        fill: #fff;
      }

      .cls-11 {
        stroke: #1b1918;
        stroke-width: .43px;
      }
    </style>
    <clipPath id="clippath">
      <rect class="cls-2" width="418.8" height="612.96"/>
    </clipPath>
  </defs>
  <g id="Layer_1-2" data-name="Layer 1">
    <g>
      <path class="cls-3" d="m266.73,142.29l-3.79,7.19,5.91.66-2.11-7.84Zm-1.45-6.03l4.19.46,5.98,22.77-4.32-.48-1.2-4.69-8.95-1-2.24,4.31-4.32-.48,10.87-20.89Z"/>
      <path class="cls-3" d="m241.19,134.14l4.15.25-1.08,17.96,6.14.37-.24,3.97-10.29-.62,1.32-21.93Z"/>
      <path class="cls-3" d="m223.75,133.36l4.16.1-.44,17.99,6.15.15-.1,3.98-10.31-.25.54-21.96Z"/>
      <path class="cls-3" d="m210.68,133.29h4.16s.05,21.96.05,21.96h-4.16s-.05-21.96-.05-21.96Z"/>
      <path class="cls-3" d="m193.69,133.4l4.16-.09.39,17.99,6.15-.13.09,3.98-10.31.22-.47-21.97Z"/>
      <path class="cls-3" d="m173.81,134.41l11.98-.52.18,4.1-7.83.34.17,3.94,7.83-.34.18,4.04-7.83.34.25,5.78,7.82-.34.18,4.1-11.98.52-.96-21.95Z"/>
      <path class="cls-3" d="m144.25,137.22l4.03-.44,6.74,14.68,3.46-15.79,4.02-.44,6.03,21.45-4.01.43-3.83-13.54-3.13,14.3-3.67.4-6.1-13.29-.88,14.05-4.06.44,1.4-22.25Z"/>
      <path class="cls-4" d="m209.1,4.12c-6.43,0-12.63,1-18.44,2.86-3.77,2.25-6.79,4.38-7.48,5.66-.25.47.09,1.09.96,1.01,3.49-.32,6.97.54,10.46,2.54l28.53.29c2.47-1.03,4.85-2.57,10.06-2.91,4.42-.29-4.78-6.25-6.93-6.99-5.44-1.6-11.2-2.47-17.16-2.47h0Zm40.22,37.05h0c1.93,3.46,3.43,6.93,4.42,10.43,1.14,4.03,1.61,8.09,1.26,12.18l-.14.24-.02.03-.12.2-.13.22v.02s-.15.23-.15.23h0s-.14.23-.14.23l-.06.1-.08.13-.13.2-.02.03-.14.23-.04.07-.1.16-.1.17-.04.06-.14.23-.02.04-.12.19-.09.13-.05.09-.14.22h0s-.2.32-.2.32l-.07.12-.12.2-.15.24-.05.07-.09.15-.11.16-.03.05-.14.21-.03.04-.11.17-.09.13-.05.08-.14.21h0s-.13.21-.13.21l-.07.1-.07.1-.13.19v.02s-.14.2-.14.2l-.05.07-.09.13-.1.16-.03.04-.13.2-.03.04-.11.15-.09.13-.05.07-.13.19v.02h-.01l-.18.26h0s-.06.1-.06.1l-.13.18h0s-.13.19-.13.19l-.05.07-.08.11-.1.15-.03.03-.13.18-.03.04-.04.05c-.1.14-.21.28-.31.42l-.02.02c-.11.15-.22.29-.33.44l-.03.04h0s-.03.04-.03.04l-.14.19-.08.09-.05.05-.07.1-.12.15-.03.04-.09.11-.08.11-.04.04-.12.15-.02.02-.1.13-.02.03-.08.1-.02.02-.11.14-.16.19-.07.08-.09.11-.02.02-.11.13-.03.04-.08.09-.08.09-.03.04-.11.12-18.34-6.08c-2.41-6.06-4.35-12.47-5.67-19.36,1.12-3.11,2.65-6.15,4.49-8.96,1.72-2.61,3.71-5.03,5.91-7.11h.15s.11.02.11.02l.17.02h.06c.11.02.23.03.34.05h.09s.19.04.19.04h.06c.11.02.23.04.34.06l.11.02.25.05c.13.03.26.05.4.08h.06s.2.06.2.06l.17.04.26.06.12.03.21.05.07.02c.14.04.28.07.42.11l.05.02.23.07.06.02c.13.04.25.07.38.11l.14.04.2.06.12.03.46.15h0s.23.08.23.08l.3.11.27.1h0l.21.08.14.05.19.07.27.1h.02s.18.08.18.08l.19.07.14.06.33.13.14.06.19.08.19.08.28.12.2.09.17.07.17.08h.01s.27.13.27.13h.02s.13.07.13.07l.22.11.16.07h.01s.27.14.27.14h.01s.12.07.12.07l.22.11.15.07.3.15.14.07.23.12.11.06.32.17h.03s.06.05.06.05l.26.15.12.07.31.18h.02s.05.04.05.04l.26.15.12.07.21.12.21.13.2.12.13.08.2.13.19.12.19.13.13.08.2.13.17.12.2.14.11.08.21.15.1.07.23.17.11.09.21.16.07.05Zm2.94-15.31c-.01-.12,0-.23.01-.32h0s0-.02,0-.02c.15-.52.88-.55,1.32-.56.61.34,1.38.71,2.36,1.34,8.58,10.46,12.91,27.43,13.08,31.66.01,4.76-1.33,11.28-1.83,13.21-.11.4-.23.7-.36.91-2.23-3.41-5.93-7.37-8.15-9.64.15-3.99-.38-7.93-1.48-11.82-1.12-3.95-2.83-7.84-5.03-11.7v-.21s.03-.21.03-.21v-.08s.01-.13.01-.13v-.15s.01-.06.01-.06v-.21s.01-.02.01-.02v-.19s.02-.1.02-.1v-.11s.02-.18.02-.18v-.03s.02-.21.02-.21v-.04s.01-.17.01-.17v-.12s.01-.09.01-.09v-.2s.01-.01.01-.01v-.28s.02-.14.02-.14v-.15s.01-.07.01-.07v-.21s.01-.01.01-.01v-.2s.01-.09.01-.09v-.12s.01-.17.01-.17v-.04s.01-.22.01-.22v-.04s.01-.18.01-.18v-.11s.01-.29.01-.29v-.23s.01-.06.01-.06v-.15s0-.14,0-.14v-.07s.01-.21.01-.21h0s0-.21,0-.21v-.09s0-.13,0-.13v-.16s0-.05,0-.05v-.21s0-.03,0-.03v-.18s0-.21,0-.21v-.18s0-.03,0-.03v-.21s0-.21,0-.21v-.12s0-.7,0-.7v-.14s0-.3,0-.3c0-.26-.01-.52-.02-.77v-.2s-.01-.11-.01-.11v-.09s0-.18,0-.18h0s-.01-.21-.01-.21v-.3s-.02-.02-.02-.02v-.06s-.02-.2-.02-.2h0c0-.18-.02-.35-.03-.53v-.23s-.02-.03-.02-.03v-.03l-.02-.21v-.03s-.02-.23-.02-.23h0s0-.02,0-.02l-.02-.22v-.03l-.02-.18v-.04s-.01-.07-.01-.07l-.02-.17Zm-41.72,61.67l-.1,15.84c2.99,2.29,9.08,5,14.06,5.96,4.04-1.89,7.81-4.23,11.37-6.92,3.52-2.66,6.82-5.64,9.97-8.88l.02-.18v-.04s.04-.23.04-.23l.02-.18.02-.11.02-.17.03-.23.08-.7.02-.23v-.03s.03-.21.03-.21l.02-.23.02-.22v-.02l.02-.2v-.04s.03-.24.03-.24v-.16s.02-.07.02-.07l.02-.21v-.03l.02-.24.02-.22v-.05s.02-.21.02-.21l.02-.24.02-.22v-.23s.02-.03.02-.03l.02-.24v-.17s.01-.07.01-.07v-.21s.02-.02.02-.02v-.24s.02-.2.02-.2v-.1c.02-.35.03-.69.05-1.04v-.18s0-.13,0-.13v-.07s0-.33,0-.33v-.08s0-.89,0-.89v-.21s0-.01,0-.01v-.22s0-.22,0-.22v-.22s-.01-.21-.01-.21v-.03s-.01-.17-.01-.17v-.22s-.02-.21-.02-.21h0s-.01-.18-.01-.18v-.09c-.03-.3-.05-.6-.08-.9v-.08s-.03-.18-.03-.18v-.02c-.01-.11-.03-.22-.04-.33v-.06s-.03-.16-.03-.16v-.06c-.02-.09-.04-.19-.05-.28v-.06s-.03-.15-.03-.15v-.06c-.03-.09-.04-.18-.06-.27v-.06s-.04-.14-.04-.14v-.06s-.04-.12-.04-.12l-18.41-6.1c-5.23,5.04-10.99,9.75-17.08,14.25h0Zm-3.7,15.93l.1-16.09c-6.5-4.03-12.44-8.63-17.51-14.1-1.37.44-2.64.84-3.95,1.25-4.08,1.27-8.48,2.64-13.1,4.46-.64,3.87-.4,9.97-.43,15.59,2.35,2.38,5.28,4.95,8.37,7.38,3.79,2.98,7.79,5.73,11.23,7.68,4.59-.9,11.39-3.96,15.28-6.18h0Zm-11.92-83.66c-3.4,4.02-6.93,9.34-8.03,13.08l9.83,14.02,23.39.1c1.1-2.62,2.46-5.18,4.04-7.57,1.67-2.54,3.58-4.91,5.66-6.99h0s0-.01,0-.01l-.07-.18-.03-.08-.06-.14-.03-.09-.07-.18-.03-.07-.07-.16-.02-.04v-.02s-.09-.17-.09-.17v-.02s-.04-.07-.04-.07l-.08-.16-.03-.07h0s-.09-.19-.09-.19l-.06-.12-.05-.1-.06-.12-.09-.18-.06-.11-.05-.1-.07-.14h0s-.1-.19-.1-.19h0s-.03-.06-.03-.06l-.16-.28-.02-.03-.1-.19-.04-.07-.09-.15-.07-.11-.02-.04-.1-.18v-.02s-.12-.19-.12-.19v-.02s-.07-.1-.07-.1l-.14-.22h0s-.02-.04-.02-.04l-.12-.2-.03-.05-.09-.14-.04-.07-.08-.12h0s-.13-.2-.13-.2l-.03-.04-.22-.33-.02-.03-.13-.2-.02-.03v-.02s-.17-.24-.17-.24l-.03-.04-.05-.08-.14-.2h0s-.05-.08-.05-.08l-.13-.19-.02-.03-.07-.1-.14-.2h0s-.15-.21-.15-.21l-.06-.09-.08-.12-.13-.18-.02-.02-.15-.2-.05-.07-.03-.04-.13-.18-.06-.08-.03-.04-.15-.21-.04-.06-.11-.15-.05-.06-.11-.14-.16-.21-.03-.04-.13-.17-.11-.14-.05-.07-.16-.21-.02-.02-.15-.18-.03-.03-.14-.17-.16-.2h0s-.16-.21-.16-.21l-.02-.02-.12-.15-.03-.03-.16-.2h0s-.23-.28-.23-.28l-.03-.04-.23-.28h0l-.02-.03-.17-.2-.06-.07-.02-.02-.23-.27-.04-.04-.17-.2-26.71-.27Zm-4.9,93.1c-3.69-2.06-7.94-4.98-11.92-8.11-3.9-3.07-7.58-6.37-10.27-9.35-4.34-1.48-8.88-2.12-12.06-1.94,2.8,5.19,6.35,9.92,10.48,14.05,8.48,8.49,19.48,14.47,31.77,16.74-3.87-3.25-5.55-5.79-8.01-11.39h0Zm-20.9-73.08c-1.58,3.13-2.96,6.37-4.18,9.7-1.37,3.75-2.52,7.64-3.49,11.65,2.36,5.37,6.31,12.41,9.74,14.41,4.69-1.85,9.12-3.23,13.22-4.5,1.37-.43,2.71-.84,3.9-1.23l5.44-20.9-10.07-14.38c-3.81.43-9.44,2.48-14.56,5.25h0Zm-11.22,20.68c1-4.17,2.22-8.25,3.66-12.21,1.23-3.39,2.64-6.68,4.23-9.86-.21-3.51-1.28-7.51,1.32-12.97.84-1.75-.04-2.36-1.12-2-.76.25-1.55.66-2.3,1.14-9.45,10.68-15.18,24.73-15.18,40.12,0,1.7.07,3.39.21,5.06.61,1.6,1.24,2.23,1.9,2.94.36.39,1.06.27,1.27-.57.83-3.31,3-8.26,6.01-11.64h0Zm68.31,52.01c-1.54,3-2.06,7.5-7.11,11.98,12.72-2.11,24.11-8.2,32.84-16.93,2.57-2.57,4.9-5.36,6.98-8.36.96-2.42,1.05-4.09.72-5.16-.16-.51-.72-.91-1.51-.57l-.38.16-.05.02-.36.15-.04.02-.34.13-.09.04-.33.13h0c-.11.05-.22.09-.32.12l-.07.03-.32.11-.05.02-.29.1-.04.02h-.01s-.3.1-.3.1h-.03s-.01.02-.01.02h0s-.27.09-.27.09h-.04s-.06.04-.06.04l-.26.08h0s-.29.09-.29.09h-.03s0,0,0,0l-.28.09h-.02s-.02.01-.02.01l-.25.07h-.05c-.29.1-.56.17-.82.23h0s-.02,0-.02,0l-.21.05h-.03s-.06.02-.06.02l-.15.04-.08.02-.21.05h0c-.16.04-.32.07-.48.1h-.07s-.13.04-.13.04h-.04s0,0,0,0l-.22.04h0c-.21.04-.41.07-.61.1h-.03s-.2.03-.2.03h0l-.19.02h-.03s-.11.02-.11.02h-.05s-.06.01-.06.01h-.11s-.02.01-.02.01h-.08s-.1.02-.1.02h-.11s-.07.02-.07.02h-.03s-.1.02-.1.02h-.04s-.05.01-.05.01h-.09s-.02,0-.02,0h-.08s-.08.02-.08.02h-.1s-.06.02-.06.02h-.12c-3.28,3.38-6.72,6.5-10.38,9.26-3.69,2.79-7.62,5.24-11.84,7.22h0Zm-62.21-92.89C175.54,8.08,191.48.94,209.1.94s33.55,7.14,45.1,18.68c11.54,11.54,18.68,27.49,18.68,45.1s-7.14,33.56-18.68,45.1c-11.54,11.54-27.49,18.68-45.1,18.68s-33.56-7.14-45.1-18.68c-11.54-11.54-18.68-27.49-18.68-45.1s7.14-33.55,18.68-45.1h0Z"/>
      <path class="cls-4" d="m167.11,25.45c-3.5,7.36-.36,12.05-1.6,16.5,7.29-4.73,17.16-8.26,21.04-7.31.28-4.25,5.85-12.34,10.29-16.99-4.24-3.03-8.47-4.38-12.71-3.99-.87.08-1.21-.54-.96-1.01.69-1.28,3.71-3.42,7.48-5.67-9.32,2.97-17.66,8.14-24.41,14.89-.88.88-1.74,1.79-2.56,2.73.74-.48,1.54-.89,2.3-1.14,1.09-.36,1.96.25,1.12,2h0Z"/>
      <line class="cls-11" x1="232.49" y1="32.24" x2="220.9" y2="49.23"/>
      <path class="cls-10" d="m161.56,48.28c1.23-3.39,2.64-6.68,4.23-9.86-.21-3.51-1.28-7.51,1.32-12.97.84-1.75-.04-2.36-1.12-2-.76.25-1.55.67-2.3,1.14-9.45,10.68-15.18,24.73-15.18,40.12,0,1.7.07,3.39.21,5.06.61,1.6,1.24,2.23,1.9,2.94.36.39,1.06.27,1.27-.57.83-3.31,3-8.26,6.01-11.64,1-4.17,2.22-8.25,3.66-12.21h0Z"/>
      <path class="cls-10" d="m169.12,39.82c-1.58,3.13-2.96,6.37-4.18,9.7-1.37,3.75-2.52,7.64-3.49,11.65,2.36,5.37,6.31,12.41,9.74,14.41,4.69-1.85,9.12-3.23,13.22-4.5,1.37-.43,2.71-.84,3.9-1.23l5.44-20.9-10.07-14.38c-3.81.43-9.45,2.48-14.56,5.25h0Z"/>
      <path class="cls-10" d="m186.89,32.89l9.83,14.02,23.39.1c1.1-2.62,2.46-5.18,4.04-7.57,1.67-2.54,3.58-4.91,5.66-6.99-1.21-3.32-4.49-8.03-8.17-12.36l-26.71-.27c-3.4,4.02-6.93,9.34-8.03,13.08h0Z"/>
      <path class="cls-10" d="m227.15,41.41c-1.84,2.81-3.37,5.85-4.49,8.96,1.31,6.89,3.26,13.3,5.67,19.36l18.34,6.08c2.29-2.52,5.36-6.94,8.34-12.02.35-4.09-.12-8.16-1.26-12.18-.99-3.5-2.5-6.97-4.42-10.43-4.49-3.44-11.78-6.56-16.26-6.88-2.2,2.08-4.19,4.49-5.91,7.11h0Z"/>
      <path class="cls-10" d="m257.21,50.63c1.11,3.89,1.63,7.82,1.48,11.82,2.23,2.27,5.93,6.23,8.15,9.64.13-.21.25-.5.36-.91.5-1.94,1.84-8.46,1.83-13.21-.17-4.23-4.5-21.21-13.08-31.66-.9-.84-1.61-1.22-2.36-1.34-.52-.09-1.45.04-1.34.9.48,3.76.21,8.64-.07,13.07,2.19,3.86,3.91,7.76,5.03,11.7h0Z"/>
      <path class="cls-10" d="m210.54,87.53l-.1,15.84c2.99,2.29,9.08,5,14.06,5.96,4.04-1.89,7.81-4.23,11.37-6.92,3.52-2.66,6.82-5.64,9.97-8.88l.02-.18v-.04s.04-.23.04-.23l.02-.18.02-.11.02-.17.03-.23.08-.7.02-.23v-.03s.03-.21.03-.21l.02-.23.02-.22v-.02l.02-.2v-.04s.03-.24.03-.24v-.16s.02-.07.02-.07l.02-.21v-.03l.02-.24.02-.22v-.05s.02-.21.02-.21l.02-.24.02-.22v-.23s.02-.03.02-.03l.02-.24v-.17s.01-.07.01-.07v-.21s.02-.02.02-.02v-.24s.02-.2.02-.2v-.1s.05-1.04.05-1.04v-.18s0-.13,0-.13v-.07s0-.33,0-.33v-.08s0-.89,0-.89v-.21s0-.01,0-.01v-.22s0-.22,0-.22v-.22s-.01-.21-.01-.21v-.03s-.01-.17-.01-.17v-.22s-.02-.21-.02-.21h0s-.01-.18-.01-.18v-.09s-.08-.9-.08-.9v-.08s-.03-.18-.03-.18v-.02l-.04-.33v-.06s-.03-.16-.03-.16v-.06s-.05-.28-.05-.28v-.06s-.03-.15-.03-.15v-.06s-.06-.27-.06-.27v-.06s-.04-.14-.04-.14v-.06s-.04-.12-.04-.12l-18.41-6.1c-5.23,5.04-10.99,9.75-17.08,14.25h0Z"/>
      <path class="cls-6" d="m316.96,74.02c-2.36-.07-4.52.83-6.11,2.33-1.59,1.5-2.6,3.61-2.67,5.97-.07,2.36.83,4.52,2.33,6.11,1.5,1.59,3.61,2.6,5.97,2.66,2.36.07,4.52-.83,6.11-2.33,1.59-1.5,2.6-3.61,2.67-5.97.07-2.36-.83-4.52-2.33-6.11-1.5-1.59-3.61-2.6-5.97-2.66h0Zm-8.29.02c2.18-2.06,5.14-3.29,8.37-3.2,3.23.09,6.12,1.48,8.18,3.66,2.06,2.18,3.29,5.14,3.2,8.37-.09,3.23-1.48,6.13-3.66,8.19-2.18,2.06-5.14,3.29-8.38,3.2-3.23-.09-6.12-1.48-8.18-3.66-2.06-2.18-3.29-5.14-3.2-8.37.09-3.23,1.48-6.12,3.66-8.19h0Z"/>
      <path class="cls-8" d="m316.96,74.02c-2.36-.07-4.52.83-6.11,2.33-1.59,1.5-2.6,3.61-2.67,5.97-.07,2.36.83,4.52,2.33,6.11,1.5,1.59,3.61,2.6,5.97,2.66,2.36.07,4.52-.83,6.11-2.33,1.59-1.5,2.6-3.61,2.67-5.97.07-2.36-.83-4.52-2.33-6.11-1.5-1.59-3.61-2.6-5.97-2.66h0Z"/>
      <path class="cls-4" d="m396.73,75.45c.85-.2,1.38-1.06,1.17-1.92-.2-.85-1.06-1.38-1.92-1.17-1.14.28-1.91.77-2.43,1.44-.49.63-.71,1.33-.8,2.12-.17.64-.32,1.04-.46,1.29-.04.06,0,.06-.02.07-.77.41-1.07,1.38-.66,2.15.08.15.18.28.3.4.96.93,1.83,1.74,2.64,2.45-1.42,1-2.8,2.19-4.12,3.64-1.88,2.07-3.59,4.64-5.07,7.93-2.48,5.51-2.35,10.84-2.21,16.33.03,1.38.07,2.77.06,4.13,0,1.35.06,2.62.12,3.89.08,1.62.17,3.23.09,4.8-.04.76-.25,1.53-.55,2.28-.32.8-.76,1.6-1.21,2.4-2.23,3.88-5.21,7.11-8.99,9.47-3.6,2.25-7.93,3.72-13.02,4.25-4.93.51-9.31-.68-13.25-3.13-4.04-2.51-7.66-6.35-10.99-11.05h0c-.43-.61-1.24-.85-1.95-.53-3.02,1.36-6.03,2.51-9.06,3.28-2.96.75-5.9,1.12-8.83.94-4.56-.29-9.56-1.33-13.36-3.84-2.84-1.88-4.96-4.41-5.73-8.31-.14-.6-.01-3.3-.52-3.43-.62-.16-1.84,1.67-2.24,2.01-2.36,1.96-5,3.68-7.91,4.65-3.44,1.15-7.04,1.68-10.3,1.75-4.81.11-8.99-1.3-12.93-3.68-3.57-2.15-6.96-5.11-10.44-8.46,2.79-2.09,4.91-5.22,7.02-8.32l.3-.43c2.08,3.36,4.51,5.97,7.25,7.7,3.29,2.07,6.99,2.86,11.02,2.15,5.2-.92,9.45-3.16,12.86-6.59,3.35-3.37,6.01-7.92,7.78-13.46.69-1.89,1.23-2.71-1.57-2.27-2.7.43-5.62.04-7.98-.9-2.22-.88-4.14-2.59-5.36-5.9-.45-1.22-.51-2.52-.23-3.81.3-1.39,1.01-2.78,2.05-4.07.76-.94,1-1.73.87-2.57-.12-.77-.52-1.33-1.09-1.99-.84-.97-1.52-2.09-1.93-3.34-.36-1.11-.5-2.34-.36-3.68.31-2.91,1.43-5.13,3.14-6.59h0s0,0,0,0c1.79-1.52,4.28-2.27,7.25-2.2h.04c.88,0,1.59-.71,1.59-1.59,0-3.05.36-5.39,1.18-6.9.65-1.21,1.67-1.85,3.1-1.85,1,0,1.8.23,2.34.7.5.43.82,1.11.92,2.05.13,1.16.13,2.34.14,3.5,0,1.24.02,2.48.14,3.73.07.68.34,1.3.75,1.84.47.62,1.16,1.12,1.96,1.45.03.01.06.03.09.03.79.3,1.7.44,2.63.35,1.04-.11,2.11-.49,3.09-1.24.5-.39.85-.9,1.08-1.46.22-.56.32-1.18.33-1.74.06-4.46-.55-8.76-1.15-13.03v-.05s-.12-.78-.12-.78c1.12-.66,2.2-1.41,3.22-2.21.98-.76,1.91-1.57,2.82-2.4.28.19.57.39.87.59.63.43,1.23.85,1.82,1.28.84.62,1.64.83,2.45.73.75-.09,1.4-.45,2.04-1,1.24-1.06,2.43-1.99,3.64-2.93.76-.59,1.52-1.19,2.14-1.7.57-.46,1.07-.69,1.49-.74.29-.03.54.02.76.12.27.13.52.34.73.61.47.58.77,1.38.87,2.18.18,1.54.32,3.05.42,4.55.1,1.54.16,3.05.18,4.55-.02.73.47,1.41,1.21,1.59,1.72.42,2.26.55,2.73.66l1.5.36c-.02,1.16-.03,2.33-.04,3.5-.01,1.32-.03,2.65-.05,3.99-.65.5-1.41,1.07-2.16,1.63h0c-1.77,1.34-3.56,2.68-5.36,4.21-.51.43-1.12.97-1.67,1.62-.65.78-1.14,1.68-1.18,2.69-.03.75.04,1.58.21,2.37.17.76.44,1.49.82,2.11.16.26.35.5.56.72.71.73,1.57,1.04,2.52,1,.79-.03,1.61-.32,2.41-.81.61-.38,1.24-.89,1.88-1.51.86-.85,1.76-1.61,2.65-2.37.55-.47,1.1-.94,1.53-1.31.1-.09.25-.15.43-.19.3-.07.65-.09,1.02-.1h.23c1.07.04,2.07.45,2.8,1.13.7.64,1.15,1.52,1.17,2.51v.19c-.07,2.22-1.64,4.26-3.2,6.3-.52.67-1.03,1.34-1.48,1.98h0c-.31.45-.38,1.05-.14,1.58.88,1.9,1.47,3.79,1.7,5.58.21,1.62.12,3.15-.31,4.52-.59,1.81-1.41,2.89-2.41,3.45-1.04.59-2.37.71-3.91.57-1.01-.08-1.79.14-2.42.64-.61.49-.96,1.16-1.16,2-.84,3.56-2.3,5.8-4.14,7.11-1.84,1.32-4.14,1.77-6.62,1.75-2.41-.03-4.62-.48-6.55-1.75-1.94-1.28-3.66-3.42-5.08-6.84-.04-.13-.1-.25-.18-.36-.48-.74-1.47-.94-2.21-.46h0c-3.01,1.97-4.91,6.18-5.48,10.68-.56,4.38.12,9.15,2.23,12.44.02.04.04.07.06.1.17.26.36.53.59.83,2.4,3.25,5.41,4.86,8.56,5.2h.05c3.12.32,6.32-.62,9.14-2.48.27-.17.56-.38.88-.62,2.49-1.84,4.49-3.84,6.47-5.81.81-.8,1.62-1.61,2.48-2.42.3-.29.6-.5.88-.66.48-.26.93-.32,1.33-.23.46.11.92.42,1.36.88.37.39.71.89,1.03,1.47.83,1.53,1.59,3.04,2.32,4.57.71,1.5,1.41,3.07,2.12,4.7,1.25,2.91,2.96,4.89,5.14,6.15,2.15,1.24,4.68,1.72,7.61,1.63,3.5-.1,6.28-.91,8.58-3,2.21-2.02,3.88-5.19,5.18-10.06h0c.06-.24.11-.68.16-.93.1-.56.34-2.73,0-2.93-.47-.28-.75.64-2.19,1.33-6.16,2.96-10.37,3.6-13.41-1.59-1.15-1.96-.07-4.03,1.11-6.46l.04-.07h0c.32-.66.15-1.48-.46-1.95-1.47-1.13-2.63-2.46-3.37-3.93-.66-1.34-.98-2.8-.84-4.34.19-2.14,1.07-3.87,2.66-5.21,1.7-1.43,4.24-2.49,7.66-3.19.85-.12,1.46-.9,1.36-1.76-.09-.83-.09-1.69-.03-2.52.07-.99.24-1.92.43-2.69.15-.58.36-1.14.65-1.64.26-.45.58-.86.96-1.21.53-.48.91-.6,1.2-.52.42.11.9.53,1.35.98,2.07,2.04,4.24,4.42,6.3,6.69l1.36,1.49s.08.09.13.14c.63.61,1.64.6,2.25-.03.48-.5.96-1.05,1.41-1.63.44-.55.84-1.11,1.21-1.63.68-.98.85-1.89.64-2.85-.17-.79-.6-1.51-1.19-2.29-.38-.49-.72-.93-1.07-1.35-1.41-1.73-2.84-3.48-2.8-5.96v-.16s0-.01,0-.01c.06-1.76.69-3.21,1.59-4.2.83-.91,1.88-1.42,2.91-1.41h.06s.02,0,.02,0c.88.03,1.7.34,2.46.8.82.49,1.6,1.17,2.35,1.89.11.12.23.22.38.3.76.44,1.74.19,2.18-.58,1.4-2.39,3.43-4.5,5.65-5.95,2.07-1.35,4.28-2.12,6.23-1.98,3.41.23,7.96,1.89,11.33,4.7,2.52,2.1,4.35,4.86,4.41,8.11.06,3.02-1.08,5.47-2.97,7.23-2.11,1.97-5.16,3.12-8.53,3.3-1.36.07-2.55-.2-3.94-1.01-.54-.31-1.11-.7-1.73-1.18-.03-.03-.06-.05-.1-.07-.88-.69-1.86-1.55-2.99-2.6.23-.47.44-1.07.67-1.92.02-.08.04-.17.04-.25.03-.29.07-.51.16-.62.09-.11.29-.21.67-.3h0Zm-53.05-14.5c-.57.01-1.14.05-1.68.17-.66.15-1.28.43-1.82.91-.56.5-1.02.89-1.48,1.28-.97.83-1.95,1.66-2.82,2.52-.45.44-.89.8-1.32,1.06-.36.22-.66.35-.87.35-.05,0-.09-.02-.13-.05-.03-.03-.07-.08-.11-.16-.2-.33-.34-.72-.44-1.14-.12-.52-.16-1.05-.14-1.55,0-.21.19-.49.44-.79.35-.42.86-.86,1.28-1.22,1.81-1.53,3.51-2.81,5.21-4.09h0s0,0,0,0c.85-.64,1.7-1.28,2.79-2.14.4-.31.61-.78.61-1.26.02-1.57.04-3.16.06-4.75.02-1.57.03-3.15.06-4.76,0-.75-.51-1.39-1.21-1.56-1.83-.45-2.27-.55-2.73-.66l-1.54-.37c-.03-1.21-.08-2.38-.16-3.53-.11-1.59-.25-3.15-.43-4.71-.16-1.38-.71-2.76-1.55-3.81-.51-.63-1.12-1.14-1.83-1.49-.75-.36-1.6-.53-2.5-.42-1,.12-2.05.56-3.13,1.42-.82.66-1.47,1.16-2.11,1.67-1.27.99-2.52,1.97-3.75,3.02-.18.15-.3.25-.36.25l-.18-.13c-.62-.46-1.26-.9-1.9-1.34-.6-.41-1.26-.85-1.97-1.31-.63-.41-1.44-.32-1.96.18h0c-1.13,1.07-2.3,2.12-3.5,3.06-1.2.93-2.43,1.77-3.73,2.45-.61.32-.93.98-.84,1.62.12.86.19,1.37.26,1.86v.05c.6,4.16,1.19,8.36,1.13,12.54,0,.2-.04.42-.11.6-.03.06-.05.11-.07.12-.47.36-.98.55-1.46.6-.43.04-.83-.02-1.17-.15l-.07-.02c-.26-.11-.48-.26-.61-.44-.06-.07-.09-.15-.1-.21-.11-1.13-.12-2.28-.13-3.43,0-1.28-.02-2.56-.15-3.83-.19-1.79-.89-3.16-2-4.12-1.14-.98-2.64-1.46-4.42-1.47-2.72,0-4.66,1.21-5.9,3.52-.92,1.69-1.41,4-1.53,6.85-3.07.19-5.73,1.18-7.77,2.92h0c-2.34,1.98-3.85,4.91-4.25,8.68-.2,1.82,0,3.48.5,5,.55,1.67,1.45,3.15,2.55,4.43.2.24.34.38.34.39.01.08-.07-.05-.2.11-1.36,1.69-2.27,3.52-2.68,5.38-.41,1.87-.32,3.77.35,5.58,1.59,4.31,4.17,6.57,7.18,7.76,2.19.87,4.54,1.14,6.87,1.24-1.55,4.16-3.59,7.59-6.18,10.19-2.94,2.96-6.63,4.89-11.16,5.69-3.22.58-6.16-.05-8.77-1.7-2.83-1.78-5.32-4.76-7.4-8.72-.41-.78-1.37-1.08-2.15-.67-.25.13-.45.31-.59.53-.53.74-1.13,1.62-1.73,2.51-2.31,3.4-4.66,6.86-7.66,8.42-.78.41-1.08,1.37-.67,2.15.08.15.18.29.29.4h0c4.14,4.09,8.14,7.71,12.45,10.32,4.43,2.67,9.15,4.25,14.64,4.13,3.57-.08,7.49-.65,11.25-1.91,2.49-.83,4.92-1.97,7.13-3.47,1.26,3.61,3.6,6.26,6.5,8.18,4.33,2.87,9.9,4.05,14.93,4.37,3.29.2,6.55-.21,9.8-1.03,2.79-.71,5.59-1.73,8.39-2.94,3.36,4.56,7.04,8.31,11.16,10.87,4.53,2.81,9.56,4.18,15.24,3.58,5.61-.58,10.39-2.22,14.38-4.71,4.25-2.65,7.59-6.26,10.07-10.59.5-.88,1-1.8,1.4-2.8.42-1.05.71-2.15.77-3.31.09-1.72,0-3.41-.09-5.11-.07-1.26-.13-2.52-.12-3.71,0-1.44-.03-2.83-.06-4.22-.13-5.11-.26-10.09,1.93-14.94,1.34-2.98,2.88-5.29,4.52-7.1,1.37-1.52,2.84-2.71,4.37-3.68.43.3.84.57,1.24.8,1.98,1.15,3.7,1.54,5.7,1.43,4.11-.22,7.88-1.66,10.54-4.15,2.52-2.36,4.05-5.62,3.98-9.62-.08-4.32-2.38-7.86-5.55-10.5-3.89-3.25-9.18-5.16-13.16-5.44-2.66-.18-5.55.78-8.17,2.5-2.11,1.38-4.08,3.25-5.62,5.39-.5-.41-1.02-.79-1.57-1.12-1.19-.72-2.49-1.19-3.98-1.25h-.17c-1.94-.02-3.85.87-5.29,2.44-1.38,1.51-2.32,3.66-2.41,6.23v.02h0s0,.23,0,.23c-.05,3.64,1.74,5.83,3.51,8,.36.43.71.87,1,1.26.33.43.56.79.61,1.05.02.09-.02.2-.12.36-.34.48-.71.99-1.1,1.48l-.08.1-.23-.25c-2.07-2.28-4.24-4.67-6.43-6.82-.77-.75-1.65-1.49-2.79-1.79-1.27-.33-2.65-.1-4.12,1.23-.64.58-1.17,1.25-1.59,1.99-.43.76-.76,1.59-.98,2.46-.23.92-.43,2.04-.52,3.22-.04.55-.06,1.11-.05,1.68-3.32.82-5.91,2-7.8,3.59-2.27,1.91-3.51,4.35-3.78,7.37-.2,2.16.23,4.19,1.15,6.03.77,1.55,1.89,2.96,3.28,4.2-1.37,2.9-2.36,5.69-.36,8.59,3.89,5.65,8.05,5.37,14.22,4.05-.97,2.81-2.1,4.73-3.47,5.97-1.66,1.52-3.79,2.1-6.52,2.18-2.36.07-4.34-.29-5.95-1.21-1.57-.9-2.83-2.41-3.8-4.65-.69-1.6-1.4-3.19-2.17-4.8-.75-1.59-1.54-3.16-2.4-4.72-.44-.82-.95-1.54-1.51-2.14-.86-.92-1.86-1.55-2.95-1.81-1.15-.27-2.35-.12-3.56.53-.52.28-1.04.66-1.55,1.14-.85.8-1.7,1.64-2.54,2.48-1.9,1.9-3.82,3.81-6.13,5.51-.21.16-.45.32-.73.51-2.24,1.47-4.72,2.22-7.08,1.98h-.03c-2.29-.24-4.52-1.46-6.35-3.93-.14-.19-.29-.41-.47-.68-.02-.03-.04-.05-.05-.07-1.7-2.66-2.23-6.62-1.75-10.33.36-2.8,1.27-5.41,2.67-7.12,1.53,2.98,3.34,5,5.39,6.35,2.51,1.65,5.29,2.24,8.27,2.28,3.11.03,6.04-.58,8.49-2.34,2.45-1.75,4.36-4.59,5.39-8.98.03-.16.03-.22.04-.23.03-.02.03.03.18.05,2.12.18,4.05-.04,5.72-.98,1.7-.96,3.03-2.6,3.88-5.26.59-1.82.71-3.82.44-5.89-.24-1.85-.79-3.76-1.59-5.66.29-.39.58-.78.87-1.16,1.87-2.44,3.75-4.88,3.85-8.12,0-.1,0-.22,0-.34-.04-1.92-.88-3.6-2.19-4.81-1.28-1.17-3.01-1.9-4.86-1.96h-.38.36,0m28.65,10.15c0,.07,0,.15.01.22"/>
      <path class="cls-4" d="m377.82,103.53c-.05-2.18.69-4.16,1.92-5.61,1.19-1.39,2.83-2.27,4.65-2.32h0s.03,0,.03,0c1.84-.04,3.54.77,4.79,2.11,1.29,1.37,2.11,3.3,2.17,5.46h0s0,.03,0,.03c.05,2.18-.69,4.16-1.92,5.61-1.18,1.38-2.83,2.26-4.65,2.32h0s0,0,0,0h-.03c-1.84.05-3.53-.76-4.78-2.1h0c-1.29-1.37-2.11-3.3-2.17-5.46h0s0-.04,0-.04Zm-.49-7.67c-1.72,2-2.74,4.73-2.68,7.7h0v.03c.07,2.99,1.23,5.68,3.04,7.61h0c1.84,1.97,4.37,3.16,7.14,3.11h0s0,0,0,0h.03c2.79-.07,5.27-1.37,7.04-3.43,1.71-2,2.74-4.73,2.68-7.7h0s0-.03,0-.03c-.07-2.99-1.22-5.68-3.03-7.61-1.84-1.97-4.37-3.16-7.14-3.11h0s-.03,0-.03,0c-2.79.06-5.27,1.37-7.03,3.43h0Z"/>
      <path class="cls-8" d="m384.78,111.13c-1.84.04-3.53-.77-4.78-2.1h0c-1.29-1.37-2.11-3.3-2.17-5.47h0s0-.03,0-.03c-.05-2.18.69-4.16,1.92-5.61,1.19-1.39,2.83-2.27,4.65-2.32h0s.03,0,.03,0c1.84-.04,3.54.77,4.79,2.11,1.29,1.37,2.11,3.3,2.17,5.46h0s0,.03,0,.03c.05,2.18-.69,4.16-1.92,5.61-1.18,1.38-2.83,2.26-4.65,2.32h0s-.03,0-.03,0Z"/>
      <path class="cls-6" d="m309.42,74.44c2.36-.06,4.52.83,6.11,2.33,1.59,1.5,2.6,3.61,2.66,5.97.07,2.36-.83,4.52-2.33,6.11s-3.61,2.6-5.97,2.66c-2.36.07-4.52-.83-6.11-2.33-1.59-1.5-2.6-3.61-2.66-5.97-.07-2.36.83-4.52,2.33-6.11,1.5-1.59,3.61-2.6,5.97-2.67h0Zm8.29.03c-2.18-2.06-5.15-3.29-8.38-3.2-3.23.09-6.12,1.48-8.19,3.66-2.06,2.18-3.29,5.15-3.2,8.38.09,3.23,1.48,6.12,3.66,8.19,2.18,2.06,5.15,3.29,8.38,3.2,3.23-.09,6.12-1.48,8.19-3.66,2.06-2.18,3.29-5.15,3.2-8.38-.09-3.24-1.48-6.12-3.66-8.19h0Z"/>
      <path class="cls-8" d="m309.42,74.44c2.36-.06,4.52.83,6.11,2.33,1.59,1.5,2.6,3.61,2.66,5.97.07,2.36-.83,4.52-2.33,6.11s-3.61,2.6-5.97,2.66c-2.36.07-4.52-.83-6.11-2.33-1.59-1.5-2.6-3.61-2.66-5.97-.07-2.36.83-4.52,2.33-6.11,1.5-1.59,3.61-2.6,5.97-2.67h0Z"/>
      <path class="cls-9" d="m352.23,100.88c-.67-1.34-.98-2.8-.84-4.34.19-2.14,1.06-3.87,2.66-5.21,1.7-1.44,4.24-2.49,7.66-3.19.85-.12,1.46-.9,1.36-1.76-.09-.83-.09-1.7-.03-2.52.07-.99.24-1.92.43-2.69.15-.58.36-1.14.65-1.65.26-.45.58-.86.96-1.2.53-.48.91-.6,1.19-.52.42.11.9.53,1.35.97,2.07,2.05,4.24,4.42,6.3,6.7l1.36,1.49.13.14c.63.61,1.64.6,2.25-.03.48-.5.96-1.05,1.41-1.63.44-.55.84-1.11,1.21-1.63.68-.98.85-1.9.64-2.86-.17-.79-.6-1.5-1.19-2.29-.37-.5-.72-.93-1.07-1.35-1.41-1.73-2.84-3.48-2.8-5.96v-.16s0-.01,0-.01c.06-1.76.68-3.21,1.59-4.2.82-.91,1.88-1.42,2.91-1.41h.08c.88.03,1.7.34,2.46.8.82.49,1.6,1.17,2.35,1.89.11.12.23.22.38.3.76.45,1.74.19,2.18-.57,1.4-2.39,3.43-4.5,5.65-5.95,2.07-1.35,4.28-2.12,6.23-1.98,3.41.23,7.96,1.89,11.33,4.7,2.53,2.1,4.36,4.86,4.41,8.11.06,3.03-1.08,5.48-2.97,7.24-2.11,1.97-5.16,3.12-8.53,3.3-1.36.07-2.55-.2-3.94-1.01-.53-.31-1.1-.7-1.72-1.18l-.1-.08c-.88-.69-1.86-1.55-2.99-2.61.23-.46.44-1.07.66-1.91.02-.09.04-.17.05-.26.03-.28.07-.51.16-.62.09-.11.29-.22.67-.31.85-.2,1.38-1.06,1.17-1.92-.2-.85-1.06-1.38-1.92-1.17-1.14.28-1.91.77-2.43,1.44-.49.63-.71,1.33-.8,2.12-.17.64-.32,1.04-.46,1.29-.04.06,0,.06-.02.07-.77.41-1.07,1.38-.66,2.15.08.15.18.28.3.4.96.93,1.83,1.74,2.64,2.45-1.42,1-2.8,2.19-4.12,3.64-1.62,1.78-3.12,3.95-4.45,6.62-.52-.08-1.05-.12-1.59-.11h0s-.03,0-.03,0c-2.79.06-5.27,1.37-7.03,3.43-1.72,2-2.74,4.73-2.68,7.7h0s0,.04,0,.04c.07,2.99,1.22,5.68,3.03,7.61h0c1.48,1.59,3.41,2.67,5.55,3v.1c0,1.35.06,2.62.12,3.89.08,1.62.17,3.23.09,4.8-.04.76-.25,1.53-.55,2.28-.32.79-.76,1.6-1.21,2.4-2.23,3.88-5.21,7.11-8.99,9.47-3.6,2.25-7.93,3.72-13.02,4.25-4.93.52-9.31-.68-13.25-3.12-4.04-2.5-7.66-6.34-11-11.05-.43-.61-1.24-.85-1.95-.54-3.02,1.36-6.04,2.51-9.06,3.28-2.96.75-5.9,1.12-8.83.94-4.55-.29-9.56-1.33-13.35-3.84-2.84-1.88-4.96-4.41-5.73-8.31-.14-.6-.01-3.29-.52-3.42-.62-.16-1.84,1.67-2.24,2.01-2.36,1.96-5,3.68-7.91,4.65-3.44,1.15-7.03,1.67-10.3,1.75-4.81.11-8.99-1.3-12.93-3.68-3.46-2.09-6.76-4.93-10.13-8.16.74-.67,1.46-1.36,2.16-2.06,1.92-1.93,3.72-3.97,5.39-6.12,1.96,2.95,4.2,5.26,6.7,6.84,3.29,2.07,6.99,2.86,11.02,2.15,5.2-.92,9.46-3.16,12.87-6.59,3.35-3.37,6.01-7.92,7.78-13.46.69-1.89,1.23-2.71-1.57-2.26-2.7.43-5.62.04-7.98-.9-2.22-.88-4.14-2.59-5.36-5.9-.45-1.22-.51-2.52-.23-3.81.3-1.39,1-2.78,2.05-4.07.76-.95,1-1.73.87-2.57-.12-.77-.52-1.33-1.09-1.99-.84-.97-1.52-2.09-1.93-3.34-.36-1.11-.5-2.34-.36-3.68.31-2.91,1.43-5.13,3.14-6.59h0s0,0,0,0c1.79-1.52,4.28-2.27,7.25-2.2h.04c.88,0,1.59-.71,1.59-1.59,0-3.05.36-5.39,1.18-6.91.65-1.21,1.67-1.85,3.1-1.84,1,0,1.8.23,2.34.7.5.43.82,1.11.92,2.05.12,1.16.13,2.34.14,3.5.01,1.24.02,2.48.14,3.73.07.68.34,1.3.75,1.84.47.62,1.16,1.12,1.96,1.45l.09.03c.79.3,1.7.44,2.63.35,1.04-.11,2.11-.49,3.09-1.24.5-.39.85-.9,1.08-1.46.22-.56.32-1.18.33-1.74.06-4.46-.55-8.76-1.15-13.03v-.05s-.12-.77-.12-.77c1.12-.66,2.2-1.41,3.22-2.21.98-.76,1.91-1.57,2.82-2.4l.87.59c.63.43,1.23.86,1.82,1.28.84.62,1.64.83,2.45.73.75-.09,1.4-.45,2.04-1,1.24-1.06,2.43-1.99,3.64-2.93.76-.59,1.52-1.19,2.14-1.7.57-.46,1.07-.69,1.49-.74.29-.03.54.02.76.12.27.13.52.34.73.61.47.58.77,1.37.87,2.18.18,1.54.32,3.05.42,4.55.1,1.54.16,3.04.18,4.55-.02.73.47,1.41,1.21,1.58l2.73.66,1.49.36-.04,3.5-.05,3.99c-.65.5-1.41,1.07-2.16,1.63h0c-1.77,1.34-3.56,2.68-5.36,4.21-.51.43-1.12.97-1.67,1.62-.65.78-1.14,1.68-1.18,2.7-.03.75.04,1.58.21,2.37.17.75.44,1.49.82,2.11.16.26.35.5.56.72.71.73,1.57,1.04,2.52,1,.79-.03,1.61-.32,2.41-.82.61-.37,1.24-.89,1.88-1.51.86-.84,1.76-1.61,2.65-2.36.55-.47,1.1-.94,1.53-1.32.1-.09.25-.14.43-.19.3-.07.65-.09,1.02-.1h.23c1.07.04,2.07.45,2.8,1.13.7.64,1.15,1.52,1.17,2.51v.19c-.07,2.22-1.64,4.26-3.2,6.29-.52.67-1.03,1.35-1.48,1.99-.31.45-.38,1.05-.14,1.58.88,1.9,1.48,3.79,1.71,5.58.21,1.62.12,3.15-.32,4.52-.58,1.81-1.4,2.88-2.41,3.45-1.04.59-2.37.7-3.91.57-1.01-.08-1.79.14-2.42.64-.61.48-.96,1.16-1.16,2-.84,3.56-2.29,5.8-4.13,7.12-1.84,1.32-4.14,1.77-6.62,1.75-2.41-.02-4.62-.48-6.55-1.75-1.94-1.28-3.66-3.42-5.08-6.84-.04-.13-.1-.25-.18-.36,0-.01-.01-.02-.02-.03,2.4-.49,4.53-1.72,6.14-3.42,2.06-2.18,3.29-5.15,3.2-8.38-.09-3.24-1.48-6.12-3.66-8.19-2.18-2.06-5.15-3.29-8.38-3.2-3.23.09-6.12,1.48-8.19,3.66-2.06,2.18-3.29,5.15-3.2,8.38.09,3.23,1.48,6.12,3.66,8.18,1.95,1.84,4.53,3.02,7.36,3.19-2.51,2.16-4.1,5.97-4.62,10.03-.56,4.38.12,9.14,2.23,12.44l.06.1c.17.26.36.53.58.83,2.41,3.25,5.42,4.86,8.56,5.2h.05c3.12.32,6.32-.62,9.14-2.48.27-.17.56-.38.88-.62,2.49-1.84,4.49-3.84,6.47-5.81.81-.81,1.62-1.61,2.48-2.42.3-.29.6-.5.88-.66.48-.26.93-.32,1.33-.23.46.11.92.42,1.36.88.37.39.71.89,1.03,1.47.83,1.53,1.59,3.04,2.32,4.57.71,1.5,1.41,3.07,2.12,4.7,1.25,2.91,2.96,4.89,5.14,6.15,2.15,1.24,4.68,1.72,7.61,1.63,3.5-.11,6.28-.91,8.58-3,2.21-2.02,3.88-5.19,5.18-10.06h0c.06-.24.11-.68.16-.93.1-.56.34-2.72,0-2.93-.48-.28-.75.64-2.19,1.33-6.16,2.96-10.37,3.6-13.41-1.59-1.15-1.97-.07-4.03,1.11-6.46l.03-.07c.32-.66.14-1.48-.46-1.95-1.46-1.13-2.63-2.46-3.36-3.93h0Z"/>
      <path class="cls-10" d="m238.05,105.29c-3.69,2.79-7.62,5.23-11.84,7.22-1.54,3-2.06,7.5-7.11,11.98,12.72-2.11,24.11-8.2,32.84-16.93,2.57-2.57,4.9-5.36,6.98-8.36.96-2.42,1.05-4.09.72-5.16-.16-.51-.72-.91-1.51-.57l-.38.16-.05.02-.36.15-.04.02-.34.13-.09.04-.33.13h0s-.32.12-.32.12l-.07.03-.32.11-.05.02-.29.1-.04.02h-.01s-.3.1-.3.1h-.03s-.01.02-.01.02h0s-.27.09-.27.09h-.04s-.06.04-.06.04l-.26.08h0s-.29.09-.29.09h-.03s0,0,0,0l-.28.09h-.02s-.02.01-.02.01l-.25.07h-.05s-.82.23-.82.23h0s-.02,0-.02,0l-.21.05h-.03s-.06.02-.06.02l-.15.04-.08.02-.21.05h0l-.48.1h-.07s-.13.04-.13.04h-.04s0,0,0,0l-.22.04h0l-.61.1h-.03s-.2.03-.2.03l-.19.02h-.03s-.11.02-.11.02h-.05s-.06.01-.06.01h-.11s-.02.01-.02.01h-.08s-.1.02-.1.02h-.11s-.07.02-.07.02h-.03s-.1.02-.1.02h-.04s-.05.01-.05.01h-.09s-.02,0-.02,0h-.08s-.08.02-.08.02h-.1s-.06.02-.06.02h-.12c-3.28,3.38-6.72,6.5-10.38,9.26h0Z"/>
      <g class="cls-1">
        <path class="cls-10" d="m194.59,16.2l28.53.29c2.47-1.03,4.85-2.57,10.06-2.91,4.42-.29-4.78-6.25-6.93-6.99-5.44-1.6-11.2-2.47-17.16-2.47-6.43,0-12.62,1-18.44,2.86,0,0,0,0,0,0-3.77,2.25-6.79,4.38-7.48,5.66-.25.47.09,1.09.95,1.01,3.49-.32,6.97.54,10.46,2.54h0Z"/>
        <path class="cls-4" d="m21.89,75.45c-.86-.2-1.38-1.06-1.17-1.92.21-.85,1.07-1.38,1.92-1.17,1.15.28,1.91.77,2.43,1.44.49.63.71,1.33.8,2.12.17.64.32,1.04.46,1.29.03.06,0,.06.02.07.77.41,1.07,1.38.66,2.15-.08.15-.18.28-.3.4-.96.93-1.83,1.74-2.64,2.45,1.42,1,2.8,2.19,4.12,3.64,1.87,2.07,3.59,4.64,5.07,7.93,2.48,5.51,2.35,10.84,2.21,16.33-.04,1.38-.07,2.77-.06,4.13,0,1.35-.06,2.62-.13,3.89-.08,1.62-.17,3.23-.09,4.8.04.76.25,1.53.55,2.28.32.8.76,1.6,1.21,2.4,2.23,3.88,5.21,7.11,8.99,9.47,3.6,2.25,7.93,3.72,13.02,4.25,4.93.51,9.31-.68,13.25-3.13,4.04-2.51,7.66-6.35,10.99-11.05h0c.43-.61,1.24-.85,1.95-.53,3.02,1.36,6.04,2.51,9.06,3.28,2.96.75,5.9,1.12,8.83.94,4.56-.29,9.56-1.33,13.35-3.84,2.84-1.88,4.96-4.41,5.73-8.31.14-.6.01-3.3.52-3.43.62-.16,1.84,1.67,2.24,2.01,2.36,1.96,5,3.68,7.91,4.65,3.44,1.15,7.03,1.68,10.3,1.75,4.81.11,8.99-1.3,12.93-3.68,3.57-2.15,6.96-5.11,10.44-8.46-2.78-2.09-4.91-5.22-7.02-8.32l-.29-.43c-2.08,3.36-4.51,5.97-7.25,7.7-3.29,2.07-6.99,2.86-11.01,2.15-5.2-.92-9.46-3.16-12.87-6.59-3.35-3.37-6.01-7.92-7.78-13.46-.69-1.89-1.23-2.71,1.57-2.27,2.7.43,5.62.04,7.99-.9,2.22-.88,4.14-2.59,5.36-5.9.45-1.22.51-2.52.23-3.81-.3-1.39-1-2.78-2.05-4.07-.76-.94-1-1.73-.88-2.57.12-.77.51-1.33,1.09-1.99.84-.97,1.52-2.09,1.93-3.34.36-1.11.5-2.34.36-3.68-.31-2.91-1.43-5.13-3.14-6.59h0s0,0,0,0c-1.79-1.52-4.28-2.27-7.25-2.2h-.04c-.88,0-1.59-.71-1.59-1.59.01-3.05-.36-5.39-1.18-6.9-.65-1.21-1.67-1.85-3.1-1.85-1,0-1.8.23-2.33.7-.5.43-.82,1.11-.92,2.05-.12,1.16-.13,2.34-.14,3.5-.01,1.24-.02,2.48-.15,3.73-.07.68-.34,1.3-.75,1.84-.47.62-1.16,1.12-1.96,1.45-.03.01-.06.03-.09.03-.79.3-1.69.44-2.63.35-1.04-.11-2.11-.49-3.09-1.24-.5-.39-.85-.9-1.08-1.46-.22-.56-.33-1.18-.33-1.74-.06-4.46.55-8.76,1.15-13.03v-.05s.12-.78.12-.78c-1.12-.66-2.19-1.41-3.22-2.21-.98-.76-1.91-1.57-2.82-2.4-.28.19-.57.39-.87.59-.63.43-1.24.85-1.82,1.28-.84.62-1.64.83-2.45.73-.75-.09-1.4-.45-2.04-1-1.24-1.06-2.43-1.99-3.64-2.93-.76-.59-1.52-1.19-2.14-1.7-.57-.46-1.07-.69-1.49-.74-.29-.03-.54.02-.76.12-.27.13-.52.34-.73.61-.47.58-.77,1.38-.87,2.18-.18,1.54-.32,3.05-.42,4.55-.1,1.54-.16,3.05-.18,4.55.02.73-.47,1.41-1.22,1.59-1.72.42-2.26.55-2.73.66l-1.49.36c.01,1.16.03,2.33.04,3.5.01,1.32.03,2.65.05,3.99.65.5,1.41,1.07,2.16,1.63h0c1.77,1.34,3.56,2.68,5.35,4.21.51.43,1.12.97,1.67,1.62.65.78,1.14,1.68,1.18,2.69.03.75-.04,1.58-.22,2.37-.17.76-.44,1.49-.82,2.11-.16.26-.35.5-.56.72-.71.73-1.57,1.04-2.52,1-.79-.03-1.61-.32-2.41-.81-.61-.38-1.24-.89-1.88-1.51-.86-.85-1.76-1.61-2.65-2.37-.55-.47-1.1-.94-1.53-1.31-.1-.09-.25-.15-.43-.19-.3-.07-.65-.09-1.02-.1h-.24c-1.07.04-2.07.45-2.8,1.13-.7.64-1.15,1.52-1.17,2.51v.19c.07,2.22,1.64,4.26,3.2,6.3.52.67,1.03,1.34,1.48,1.98h0c.31.45.38,1.05.14,1.58-.88,1.9-1.47,3.79-1.7,5.58-.21,1.62-.12,3.15.32,4.52.58,1.81,1.4,2.89,2.41,3.45,1.04.59,2.37.71,3.91.57,1.01-.08,1.79.14,2.42.64.61.49.97,1.16,1.16,2,.84,3.56,2.29,5.8,4.13,7.11,1.84,1.32,4.14,1.77,6.62,1.75,2.41-.03,4.62-.48,6.55-1.75,1.94-1.28,3.66-3.42,5.08-6.84.04-.13.1-.25.17-.36.49-.74,1.47-.94,2.21-.46h0c3.02,1.97,4.91,6.18,5.49,10.68.55,4.38-.12,9.15-2.23,12.44-.02.04-.04.07-.06.1-.17.26-.36.53-.58.83-2.41,3.25-5.42,4.86-8.56,5.2h-.05c-3.12.32-6.32-.62-9.14-2.48-.27-.17-.56-.38-.88-.62-2.49-1.84-4.49-3.84-6.47-5.81-.81-.8-1.62-1.61-2.48-2.42-.31-.29-.6-.5-.88-.66-.48-.26-.93-.32-1.33-.23-.46.11-.91.42-1.36.88-.37.39-.71.89-1.03,1.47-.83,1.53-1.59,3.04-2.32,4.57-.71,1.5-1.41,3.07-2.12,4.7-1.25,2.91-2.96,4.89-5.14,6.15-2.15,1.24-4.68,1.72-7.61,1.63-3.5-.1-6.28-.91-8.58-3-2.21-2.02-3.87-5.19-5.18-10.06h0c-.06-.24-.11-.68-.16-.93-.1-.56-.34-2.73,0-2.93.48-.28.75.64,2.19,1.33,6.16,2.96,10.37,3.6,13.41-1.59,1.15-1.96.07-4.03-1.11-6.46l-.04-.07h0c-.32-.66-.15-1.48.46-1.95,1.47-1.13,2.63-2.46,3.37-3.93.67-1.34.98-2.8.84-4.34-.19-2.14-1.06-3.87-2.66-5.21-1.7-1.43-4.24-2.49-7.66-3.19-.85-.12-1.46-.9-1.36-1.76.09-.83.09-1.69.03-2.52-.07-.99-.24-1.92-.43-2.69-.15-.58-.36-1.14-.65-1.64-.26-.45-.58-.86-.96-1.21-.53-.48-.91-.6-1.19-.52-.43.11-.9.53-1.35.98-2.07,2.04-4.24,4.42-6.3,6.69l-1.36,1.49s-.08.09-.13.14c-.63.61-1.64.6-2.25-.03-.48-.5-.96-1.05-1.41-1.63-.44-.55-.84-1.11-1.21-1.63-.68-.98-.85-1.89-.64-2.85.17-.79.6-1.51,1.19-2.29.38-.49.73-.93,1.07-1.35,1.41-1.73,2.84-3.48,2.8-5.96v-.16s0-.01,0-.01c-.06-1.76-.68-3.21-1.59-4.2-.83-.91-1.88-1.42-2.91-1.41h-.06s-.02,0-.02,0c-.88.03-1.7.34-2.46.8-.82.49-1.59,1.17-2.35,1.89-.11.12-.23.22-.38.3-.76.44-1.74.19-2.18-.58-1.4-2.39-3.43-4.5-5.65-5.95-2.07-1.35-4.28-2.12-6.23-1.98-3.41.23-7.96,1.89-11.33,4.7-2.53,2.1-4.35,4.86-4.41,8.11-.06,3.02,1.09,5.47,2.97,7.23,2.11,1.97,5.16,3.12,8.53,3.3,1.36.07,2.55-.2,3.94-1.01.53-.31,1.11-.7,1.72-1.18.03-.03.07-.05.1-.07.88-.69,1.86-1.55,2.99-2.6-.23-.47-.44-1.07-.67-1.92h0c-.02-.08-.04-.17-.05-.25-.03-.29-.07-.51-.16-.62-.09-.11-.29-.21-.67-.3h0Zm53.05-14.5c.57.01,1.14.05,1.68.17.66.15,1.28.43,1.82.91.56.5,1.02.89,1.48,1.28.97.83,1.95,1.66,2.82,2.52.45.44.9.8,1.32,1.06.36.22.66.35.87.35.05,0,.09-.02.13-.05.03-.03.07-.08.11-.16.2-.33.34-.72.44-1.14.12-.52.16-1.05.14-1.55,0-.21-.19-.49-.44-.79-.35-.42-.86-.86-1.28-1.22-1.8-1.53-3.51-2.81-5.21-4.09h0s0,0,0,0c-.85-.64-1.7-1.28-2.8-2.14-.4-.31-.61-.78-.61-1.26-.02-1.57-.04-3.16-.05-4.75-.02-1.57-.04-3.15-.06-4.76,0-.75.51-1.39,1.21-1.56,1.83-.45,2.27-.55,2.74-.66l1.53-.37c.03-1.21.08-2.38.16-3.53.11-1.59.25-3.15.43-4.71.16-1.38.71-2.76,1.55-3.81.51-.63,1.12-1.14,1.83-1.49.76-.36,1.6-.53,2.5-.42,1,.12,2.05.56,3.12,1.42.82.66,1.47,1.16,2.11,1.67,1.27.99,2.52,1.97,3.75,3.02.18.15.3.25.36.25l.18-.13c.62-.46,1.26-.9,1.91-1.34.59-.41,1.26-.85,1.97-1.31.63-.41,1.44-.32,1.96.18,1.13,1.07,2.3,2.12,3.5,3.06,1.19.93,2.43,1.77,3.73,2.45.61.32.93.98.84,1.62h0c-.12.86-.19,1.37-.27,1.86v.05c-.6,4.16-1.19,8.36-1.13,12.54,0,.2.04.42.11.6.03.06.05.11.07.12.47.36.98.55,1.46.6.43.04.83-.02,1.17-.15l.07-.02c.26-.11.48-.26.61-.44.06-.07.1-.15.1-.21.12-1.13.13-2.28.13-3.43.01-1.28.02-2.56.15-3.83.19-1.79.89-3.16,2-4.12,1.14-.98,2.64-1.46,4.42-1.47,2.73,0,4.66,1.21,5.9,3.52.92,1.69,1.41,4,1.53,6.85,3.07.19,5.73,1.18,7.77,2.92h0c2.34,1.98,3.85,4.91,4.25,8.68.19,1.82,0,3.48-.5,5-.55,1.67-1.44,3.15-2.55,4.43-.2.24-.34.38-.34.39-.01.08.07-.05.2.11,1.36,1.69,2.27,3.52,2.68,5.38.41,1.87.32,3.77-.35,5.58-1.59,4.31-4.17,6.57-7.18,7.76-2.19.87-4.54,1.14-6.87,1.24,1.55,4.16,3.59,7.59,6.18,10.19,2.94,2.96,6.63,4.89,11.16,5.69,3.22.58,6.16-.05,8.78-1.7,2.83-1.78,5.32-4.76,7.4-8.72.41-.78,1.38-1.08,2.15-.67.24.13.44.31.58.53.53.74,1.13,1.62,1.73,2.51,2.31,3.4,4.66,6.86,7.66,8.42.78.41,1.08,1.37.68,2.15-.08.15-.18.29-.3.4h0c-4.14,4.09-8.14,7.71-12.45,10.32-4.43,2.67-9.15,4.25-14.64,4.13-3.57-.08-7.5-.65-11.25-1.91-2.49-.83-4.92-1.97-7.13-3.47-1.26,3.61-3.6,6.26-6.51,8.18-4.33,2.87-9.9,4.05-14.93,4.37-3.29.2-6.55-.21-9.8-1.03-2.79-.71-5.59-1.73-8.39-2.94-3.35,4.56-7.04,8.31-11.16,10.87-4.54,2.81-9.57,4.18-15.25,3.58-5.61-.58-10.39-2.22-14.38-4.71-4.25-2.65-7.59-6.26-10.07-10.59-.51-.88-1-1.8-1.4-2.8-.42-1.05-.71-2.15-.77-3.31-.09-1.72,0-3.41.09-5.11.07-1.26.13-2.52.12-3.71,0-1.44.03-2.83.06-4.22.13-5.11.26-10.09-1.93-14.94-1.34-2.98-2.88-5.29-4.52-7.1-1.37-1.52-2.84-2.71-4.37-3.68-.43.3-.84.57-1.24.8-1.98,1.15-3.69,1.54-5.69,1.43-4.12-.22-7.88-1.66-10.54-4.15C1.46,80.09-.07,76.83,0,72.83c.08-4.32,2.37-7.86,5.55-10.5,3.89-3.25,9.18-5.16,13.16-5.44,2.66-.18,5.55.78,8.17,2.5,2.11,1.38,4.08,3.25,5.62,5.39.5-.41,1.02-.79,1.58-1.12,1.18-.72,2.49-1.19,3.98-1.25h.17c1.94-.02,3.85.87,5.29,2.44,1.38,1.51,2.32,3.66,2.41,6.23v.25c.05,3.64-1.74,5.83-3.51,8-.35.43-.71.87-1,1.26-.33.43-.55.79-.61,1.05-.02.09.02.2.13.36.34.48.7.99,1.09,1.48l.08.1.23-.25c2.07-2.28,4.24-4.67,6.42-6.82.77-.75,1.65-1.49,2.79-1.79,1.27-.33,2.65-.1,4.12,1.23.64.58,1.17,1.25,1.59,1.99.44.76.76,1.59.98,2.46.23.92.43,2.04.52,3.22.04.55.06,1.11.05,1.68,3.32.82,5.91,2,7.8,3.59,2.27,1.91,3.51,4.35,3.78,7.37.2,2.16-.23,4.19-1.15,6.03-.77,1.55-1.89,2.96-3.28,4.2,1.37,2.9,2.36,5.69.36,8.59-3.89,5.65-8.05,5.37-14.22,4.05.97,2.81,2.11,4.73,3.47,5.97,1.66,1.52,3.79,2.1,6.53,2.18,2.36.07,4.34-.29,5.94-1.21,1.57-.9,2.83-2.41,3.8-4.65.69-1.6,1.4-3.19,2.17-4.8.75-1.59,1.54-3.16,2.39-4.72.44-.82.95-1.54,1.51-2.14.86-.92,1.86-1.55,2.95-1.81,1.15-.27,2.35-.12,3.56.53.52.28,1.04.66,1.55,1.14.85.8,1.7,1.64,2.54,2.48,1.91,1.9,3.82,3.81,6.12,5.51.21.16.45.32.74.51,2.24,1.47,4.72,2.22,7.07,1.98h.03c2.29-.24,4.52-1.46,6.35-3.93.14-.19.29-.41.47-.68.02-.03.04-.05.05-.07,1.69-2.66,2.22-6.62,1.75-10.33-.35-2.8-1.27-5.41-2.67-7.12-1.53,2.98-3.34,5-5.39,6.35-2.51,1.65-5.29,2.24-8.27,2.28-3.11.03-6.04-.58-8.49-2.34-2.45-1.75-4.36-4.59-5.39-8.98-.04-.16-.03-.22-.04-.23-.03-.02-.03.03-.17.05-2.13.18-4.06-.04-5.72-.98-1.7-.96-3.03-2.6-3.88-5.26-.59-1.82-.71-3.82-.44-5.89.24-1.85.79-3.76,1.59-5.66-.29-.39-.58-.78-.88-1.16-1.87-2.44-3.75-4.88-3.85-8.12,0-.1,0-.22,0-.34.04-1.92.88-3.6,2.19-4.81,1.28-1.17,3.01-1.9,4.86-1.96h.38-.36,0m-28.65,10.15c0,.07,0,.15-.01.22"/>
      </g>
      <path class="cls-10" d="m206.94,87.37c-6.5-4.03-12.44-8.63-17.51-14.1-1.37.44-2.64.84-3.95,1.25-4.08,1.27-8.48,2.64-13.1,4.46-.64,3.87-.4,9.97-.43,15.59,2.35,2.38,5.28,4.95,8.37,7.38,3.79,2.98,7.79,5.73,11.23,7.68,4.59-.9,11.39-3.96,15.28-6.18l.1-16.09Z"/>
      <path class="cls-10" d="m190.02,112.9c-3.69-2.06-7.94-4.98-11.92-8.11-3.9-3.07-7.58-6.37-10.27-9.35-4.34-1.48-8.88-2.12-12.06-1.94,2.8,5.19,6.35,9.92,10.48,14.05,8.48,8.49,19.48,14.47,31.77,16.74-3.87-3.25-5.55-5.79-8.01-11.39h0Z"/>
      <path class="cls-4" d="m40.8,103.53c.05-2.18-.69-4.16-1.92-5.61-1.19-1.39-2.83-2.27-4.65-2.32h0s0,0,0,0h-.03c-1.84-.05-3.54.76-4.79,2.1-1.29,1.37-2.11,3.3-2.17,5.46h0s0,.03,0,.03c-.05,2.18.69,4.16,1.92,5.61,1.19,1.38,2.83,2.26,4.65,2.32h0s0,0,0,0h.03c1.84.05,3.53-.76,4.79-2.1h0c1.29-1.37,2.11-3.3,2.17-5.46h0s0-.04,0-.04Zm.49-7.67c1.72,2,2.75,4.73,2.69,7.7h0v.03c-.07,2.99-1.23,5.68-3.04,7.61h0c-1.84,1.97-4.37,3.16-7.14,3.11h0s0,0,0,0h-.03c-2.79-.07-5.27-1.37-7.04-3.43-1.71-2-2.74-4.73-2.68-7.7h0s0-.03,0-.03c.07-2.99,1.22-5.68,3.03-7.61,1.84-1.97,4.37-3.16,7.14-3.11h0s0,0,0,0h.03c2.79.07,5.28,1.38,7.03,3.43h0Z"/>
      <path class="cls-8" d="m33.84,111.13c1.84.04,3.53-.77,4.79-2.1h0c1.29-1.37,2.11-3.3,2.17-5.47h0s0-.03,0-.03c.05-2.18-.69-4.16-1.92-5.61-1.19-1.39-2.83-2.27-4.65-2.32h0s-.03,0-.03,0c-1.84-.04-3.54.77-4.79,2.11-1.29,1.37-2.11,3.3-2.17,5.46h0s0,.03,0,.03c-.05,2.18.69,4.16,1.92,5.61,1.19,1.38,2.83,2.26,4.65,2.32h0s.03,0,.03,0Z"/>
      <path class="cls-6" d="m109.19,74.44c-2.36-.06-4.52.83-6.11,2.33s-2.6,3.61-2.66,5.97c-.07,2.36.83,4.52,2.33,6.11s3.61,2.6,5.97,2.66c2.36.07,4.52-.83,6.11-2.33,1.59-1.5,2.6-3.61,2.66-5.97.07-2.36-.83-4.52-2.33-6.11-1.5-1.59-3.61-2.6-5.97-2.67h0Zm-8.29.03c2.18-2.06,5.15-3.29,8.38-3.2,3.24.09,6.12,1.48,8.19,3.66,2.06,2.18,3.29,5.15,3.2,8.38-.09,3.23-1.48,6.12-3.66,8.19-2.18,2.06-5.15,3.29-8.38,3.2-3.23-.09-6.12-1.48-8.19-3.66-2.06-2.18-3.29-5.15-3.2-8.38.09-3.24,1.48-6.12,3.66-8.19h0Z"/>
      <path class="cls-8" d="m109.19,74.44c-2.36-.06-4.52.83-6.11,2.33s-2.6,3.61-2.66,5.97c-.07,2.36.83,4.52,2.33,6.11s3.61,2.6,5.97,2.66c2.36.07,4.52-.83,6.11-2.33,1.59-1.5,2.6-3.61,2.66-5.97.07-2.36-.83-4.52-2.33-6.11-1.5-1.59-3.61-2.6-5.97-2.67h0Z"/>
      <path class="cls-9" d="m66.39,100.88c.67-1.34.98-2.8.84-4.34-.19-2.14-1.06-3.87-2.66-5.21-1.7-1.44-4.24-2.49-7.66-3.19-.85-.12-1.46-.9-1.36-1.76.1-.83.09-1.7.03-2.52-.07-.99-.24-1.92-.43-2.69-.14-.58-.36-1.14-.65-1.65-.26-.45-.58-.86-.96-1.2-.53-.48-.91-.6-1.2-.52-.42.11-.9.53-1.35.97-2.07,2.05-4.23,4.42-6.3,6.7l-1.36,1.49-.13.14c-.63.61-1.64.6-2.25-.03-.48-.5-.96-1.05-1.41-1.63-.44-.55-.84-1.11-1.21-1.63-.68-.98-.85-1.9-.64-2.86.17-.79.6-1.5,1.19-2.29.37-.5.72-.93,1.07-1.35,1.41-1.73,2.84-3.48,2.8-5.96v-.16s0-.01,0-.01c-.06-1.76-.68-3.21-1.59-4.2-.82-.91-1.88-1.42-2.91-1.41h-.08c-.88.03-1.7.34-2.46.8-.82.49-1.59,1.17-2.35,1.89-.11.12-.23.22-.38.3-.76.45-1.74.19-2.18-.57-1.4-2.39-3.43-4.5-5.65-5.95-2.07-1.35-4.28-2.12-6.23-1.98-3.41.23-7.96,1.89-11.33,4.7-2.53,2.1-4.35,4.86-4.41,8.11-.06,3.03,1.09,5.48,2.97,7.24,2.11,1.97,5.16,3.12,8.53,3.3,1.36.07,2.55-.2,3.94-1.01.53-.31,1.11-.7,1.72-1.18l.1-.08c.88-.69,1.86-1.55,2.99-2.61-.23-.46-.44-1.07-.66-1.91-.02-.09-.04-.17-.05-.26-.03-.28-.07-.51-.16-.62-.09-.11-.29-.22-.67-.31-.86-.2-1.38-1.06-1.17-1.92.21-.85,1.07-1.38,1.92-1.17,1.15.28,1.91.77,2.43,1.44.49.63.71,1.33.8,2.12.17.64.32,1.04.46,1.29.03.06,0,.06.02.07.77.41,1.07,1.38.66,2.15-.08.15-.18.28-.3.4-.96.93-1.83,1.74-2.64,2.45,1.42,1,2.8,2.19,4.12,3.64,1.61,1.78,3.11,3.95,4.45,6.62.52-.08,1.05-.12,1.59-.11h0s.03,0,.03,0c2.79.06,5.28,1.37,7.03,3.43,1.72,2,2.75,4.73,2.69,7.7h0s0,.04,0,.04c-.07,2.99-1.22,5.68-3.03,7.61h0c-1.48,1.59-3.41,2.67-5.55,3,0,.04,0,.07,0,.1,0,1.35-.06,2.62-.13,3.89-.08,1.62-.17,3.23-.09,4.8.04.76.25,1.53.55,2.28.32.79.76,1.6,1.21,2.4,2.23,3.88,5.21,7.11,8.99,9.47,3.6,2.25,7.93,3.72,13.02,4.25,4.93.52,9.31-.68,13.25-3.12,4.04-2.5,7.66-6.34,11-11.05.43-.61,1.24-.85,1.95-.54,3.02,1.36,6.04,2.51,9.06,3.28,2.96.75,5.9,1.12,8.83.94,4.56-.29,9.56-1.33,13.35-3.84,2.84-1.88,4.96-4.41,5.74-8.31.14-.6,0-3.29.52-3.42.62-.16,1.84,1.67,2.24,2.01,2.36,1.96,5,3.68,7.91,4.65,3.44,1.15,7.03,1.67,10.3,1.75,4.81.11,8.99-1.3,12.93-3.68,3.46-2.09,6.76-4.93,10.13-8.16-.74-.67-1.46-1.36-2.16-2.06-1.92-1.93-3.72-3.97-5.39-6.12-1.96,2.95-4.2,5.26-6.7,6.84-3.29,2.07-6.99,2.86-11.01,2.15-5.2-.92-9.46-3.16-12.87-6.59-3.35-3.37-6.01-7.92-7.78-13.46-.69-1.89-1.23-2.71,1.57-2.26,2.7.43,5.62.04,7.99-.9,2.22-.88,4.14-2.59,5.36-5.9.45-1.22.51-2.52.23-3.81-.3-1.39-1-2.78-2.05-4.07-.76-.95-1-1.73-.88-2.57.12-.77.51-1.33,1.09-1.99.84-.97,1.52-2.09,1.93-3.34.36-1.11.5-2.34.36-3.68-.31-2.91-1.42-5.13-3.14-6.59h0s0,0,0,0c-1.79-1.52-4.28-2.27-7.25-2.2h-.04c-.88,0-1.59-.71-1.59-1.59.01-3.05-.36-5.39-1.18-6.91-.66-1.21-1.67-1.85-3.1-1.84-1,0-1.8.23-2.33.7-.5.43-.82,1.11-.92,2.05-.12,1.16-.13,2.34-.14,3.5,0,1.24-.02,2.48-.15,3.73-.07.68-.33,1.3-.75,1.84-.48.62-1.16,1.12-1.96,1.45l-.09.03c-.79.3-1.69.44-2.63.35-1.04-.11-2.11-.49-3.09-1.24-.5-.39-.85-.9-1.07-1.46-.23-.56-.33-1.18-.33-1.74-.07-4.46.54-8.76,1.15-13.03v-.05s.12-.77.12-.77c-1.12-.66-2.19-1.41-3.22-2.21-.98-.76-1.91-1.57-2.82-2.4l-.87.59c-.62.43-1.24.86-1.82,1.28-.84.62-1.64.83-2.45.73-.75-.09-1.4-.45-2.04-1-1.24-1.06-2.43-1.99-3.64-2.93-.76-.59-1.52-1.19-2.14-1.7-.57-.46-1.07-.69-1.49-.74-.28-.03-.54.02-.76.12-.27.13-.52.34-.73.61-.46.58-.77,1.37-.87,2.18-.18,1.54-.32,3.05-.42,4.55-.1,1.54-.16,3.04-.18,4.55.01.73-.48,1.41-1.22,1.58l-2.73.66-1.49.36.04,3.5.05,3.99c.65.5,1.41,1.07,2.16,1.63h0c1.78,1.34,3.56,2.68,5.35,4.21.51.43,1.12.97,1.67,1.62.65.78,1.14,1.68,1.18,2.7.03.75-.04,1.58-.21,2.37-.17.75-.44,1.49-.83,2.11-.16.26-.35.5-.56.72-.71.73-1.57,1.04-2.52,1-.79-.03-1.61-.32-2.41-.82-.61-.37-1.24-.89-1.88-1.51-.86-.84-1.76-1.61-2.65-2.36-.55-.47-1.1-.94-1.53-1.32-.1-.09-.25-.14-.43-.19-.3-.07-.66-.09-1.02-.1h-.24c-1.07.04-2.07.45-2.8,1.13-.7.64-1.15,1.52-1.17,2.51v.19c.07,2.22,1.64,4.26,3.2,6.29.52.67,1.03,1.35,1.48,1.99.31.45.38,1.05.14,1.58-.88,1.9-1.48,3.79-1.71,5.58-.21,1.62-.12,3.15.32,4.52.58,1.81,1.4,2.88,2.41,3.45,1.04.59,2.37.7,3.9.57,1.01-.08,1.79.14,2.42.64.61.48.97,1.16,1.16,2,.84,3.56,2.29,5.8,4.13,7.12,1.84,1.32,4.14,1.77,6.62,1.75,2.41-.02,4.62-.48,6.55-1.75,1.94-1.28,3.66-3.42,5.08-6.84.04-.13.1-.25.17-.36,0-.01.01-.02.02-.03-2.4-.49-4.53-1.72-6.15-3.42-2.06-2.18-3.29-5.15-3.2-8.38.09-3.24,1.48-6.12,3.66-8.19,2.18-2.06,5.15-3.29,8.38-3.2,3.24.09,6.12,1.48,8.19,3.66,2.06,2.18,3.29,5.15,3.2,8.38-.09,3.23-1.48,6.12-3.66,8.18-1.95,1.84-4.53,3.02-7.36,3.19,2.51,2.16,4.1,5.97,4.62,10.03.56,4.38-.12,9.14-2.23,12.44l-.06.1c-.17.26-.36.53-.58.83-2.41,3.25-5.42,4.86-8.56,5.2h-.05c-3.12.32-6.32-.62-9.14-2.48-.27-.17-.56-.38-.88-.62-2.49-1.84-4.49-3.84-6.47-5.81-.81-.81-1.62-1.61-2.48-2.42-.31-.29-.6-.5-.88-.66-.48-.26-.93-.32-1.33-.23-.46.11-.91.42-1.35.88-.37.39-.72.89-1.03,1.47-.83,1.53-1.59,3.04-2.32,4.57-.71,1.5-1.41,3.07-2.12,4.7-1.25,2.91-2.96,4.89-5.14,6.15-2.15,1.24-4.68,1.72-7.61,1.63-3.5-.11-6.28-.91-8.58-3-2.22-2.02-3.88-5.19-5.18-10.06h0c-.07-.24-.11-.68-.16-.93-.1-.56-.34-2.72,0-2.93.47-.28.75.64,2.19,1.33,6.16,2.96,10.37,3.6,13.41-1.59,1.15-1.97.07-4.03-1.11-6.46l-.03-.07c-.32-.66-.14-1.48.46-1.95,1.47-1.13,2.63-2.46,3.36-3.93h0Z"/>
      <path class="cls-6" d="m71.57,150.05l8.93,26.28c34.89-12.09,80.64-18.02,126.75-18.01,46.78,0,93.98,6.12,130.66,18.09l9.04-26.41c-44.45-13.35-90.86-19.91-137.17-19.9-46.87,0-93.65,6.75-138.21,19.96h0Zm290.13-5.89l-10.81,5.49-10.13,29.61-2.75.97-1.7-.57c-36.55-12.22-81.91-17.74-129.05-17.74-46.48,0-90.98,5.26-125.71,17.62l-1.93.7-1.94-1.02-10.09-29.66-9.81-5.12,2.16-2.73,10.06,5.06c45.04-13.42,92.36-20.26,139.79-20.27,46.89-.01,93.88,6.66,138.86,20.25l10.35-5.23,2.7,2.65Z"/>
      <path class="cls-9" d="m71.57,150.05l8.93,26.28c34.89-12.09,80.64-18.02,126.75-18.01,46.78,0,93.98,6.12,130.66,18.09l9.04-26.41c-44.45-13.35-90.86-19.91-137.17-19.9-46.87,0-93.65,6.75-138.21,19.96h0Zm71.28,9.42l1.4-22.25,4.03-.44,6.74,14.68,3.46-15.79,4.02-.44,6.03,21.45-4.01.43-3.83-13.54-3.13,14.3-3.67.4-6.1-13.29-.88,14.05-4.06.44Zm31.91-3.12l-.96-21.95,11.98-.52.18,4.1-7.83.34.17,3.94,7.83-.34.18,4.04-7.83.34.25,5.78,7.82-.34.18,4.1-11.98.52Zm35.97-1.09l-.05-21.97h4.16s.05,21.96.05,21.96h-4.16Zm12.48.07l.54-21.96,4.16.1-.44,17.99,6.15.15-.1,3.98-10.31-.25Zm16.66.75l1.32-21.93,4.15.25-1.08,17.96,6.14.37-.24,3.97-10.29-.62Zm14.54,1.08l10.87-20.89,4.19.46,5.98,22.77-4.32-.48-1.2-4.69-8.95-1-2.24,4.31-4.32-.48Zm-60.24-1.79l-.47-21.97,4.16-.09.39,17.99,6.15-.13.09,3.98-10.31.22Z"/>
      <path class="cls-9" d="m266.73,142.29l-3.79,7.19,5.91.66-2.11-7.84Z"/>
      <path class="cls-8" d="m70,146.75c40.09-11.95,81.99-18.68,124.16-20.02-9.54-2.29-18.25-6.73-25.59-12.77-3.6,3.46-7.13,6.53-10.9,8.8-4.43,2.67-9.15,4.25-14.64,4.13-3.57-.08-7.5-.65-11.25-1.91-2.49-.83-4.92-1.97-7.13-3.47-1.26,3.61-3.6,6.26-6.51,8.18-4.33,2.87-9.9,4.05-14.93,4.37-3.29.2-6.55-.21-9.8-1.03-2.79-.71-5.59-1.73-8.39-2.94-3.35,4.56-7.04,8.31-11.16,10.87-2.7,1.68-5.58,2.84-8.67,3.38l4.79,2.41Z"/>
      <path class="cls-8" d="m224.21,126.69c42.08,1.22,84.07,7.85,124.44,20.04l4.75-2.4c-3.08-.54-5.95-1.7-8.65-3.38-4.13-2.56-7.81-6.31-11.16-10.87-2.8,1.21-5.59,2.23-8.39,2.94-3.25.82-6.51,1.24-9.8,1.03-5.03-.32-10.59-1.5-14.93-4.37-2.9-1.92-5.24-4.57-6.5-8.18-2.21,1.5-4.64,2.64-7.13,3.47-3.76,1.25-7.68,1.83-11.25,1.91-5.49.12-10.21-1.46-14.64-4.13-3.84-2.32-7.42-5.45-11.09-8.99-7.34,6.1-16.07,10.58-25.64,12.91h0Z"/>
      <path class="cls-7" d="m85.5,462.24l.21-283.85c-1.94.63-3.85,1.28-5.73,1.95l-1.72.61-.59-1.74-.38-1.11h-35.24v288.27c0,91.21,74.65,143.5,165.83,143.5h2.92c91.18,0,165.83-52.32,165.83-143.5V178.1h-35.49l-.39,1.15-.58,1.7-1.7-.57c-2.17-.73-4.37-1.43-6.62-2.11l-.21,283.97c-.05,66.63-54.34,99.71-120.97,99.71h-3.79c-66.63,0-121.44-33.06-121.39-99.71h0Z"/>
      <path class="cls-7" d="m331.86,178.27l-.21,283.97c-.05,66.63-54.34,99.71-120.97,99.71h-3.79c-66.63,0-121.44-33.06-121.39-99.71l.21-283.85c-1.94.63-3.85,1.28-5.73,1.95l-1.72.61-.59-1.74-.38-1.11h-35.24v288.27c0,91.21,74.65,143.5,165.83,143.5h2.92c91.18,0,165.83-52.32,165.83-143.5V178.1h-35.49l-.39,1.15-.58,1.7-1.7-.57c-2.17-.73-4.37-1.43-6.62-2.11h0Z"/>
      <path class="cls-6" d="m79.62,180.24l-1.23-4.27h-38.45v290.4c0,44.62,17.62,80.09,46.26,104.87,30.68,26.54,73.96,40.76,121.7,40.76h2.92c47.73,0,91.02-14.22,121.69-40.76,28.64-24.79,46.26-60.25,46.26-104.87V175.97h-2.12c-14.93,0-22.97.05-37.9.05l-.73,4.2h.02c14.21,0,22.27,0,36.48,0v286.14c0,43.29-17.06,77.67-44.78,101.66-29.89,25.86-72.19,39.72-118.92,39.72h-2.92c-46.74,0-89.04-13.85-118.92-39.71-27.72-23.99-44.78-58.37-44.78-101.66V180.23h35.07s.36.01.36.01Z"/>
      <path class="cls-7" d="m236.01,267.15h-71.19v203.57h71.19c11.69,0,21.26-9.57,21.26-21.26v-161.05c0-11.69-9.57-21.26-21.26-21.26h0Zm-42.11,187.31v-171.17h20.89c11.67,0,14.88,18.92,14.88,30.62v110.58c0,11.69-3.19,29.98-14.88,29.98h-20.89Z"/>
      <path class="cls-5" d="m85.59,348.24l79.24,66.72v-71.95l-79.18-66.68-.06,71.91Z"/>
      <path class="cls-5" d="m193.91,367.5v71.95l17.82,15h3.07c11.7,0,14.88-18.29,14.88-29.98v-26.85l-35.77-30.13Z"/>
      <path class="cls-5" d="m257.27,449.45c0,11.7-9.57,21.26-21.26,21.26h-4.99l71.99,60.62c13.65-12.56,23.17-28.99,26.89-49.31l-72.64-61.17v28.59Z"/>
      <path class="cls-5" d="m236.64,560.17l-151.12-127.25-.02,29.32c-.05,66.65,54.77,99.71,121.39,99.71h3.79c8.91,0,17.59-.59,25.96-1.77h0Z"/>
      <path class="cls-5" d="m257.27,337.83l74.43,62.67.05-71.91-192.82-162.37c-20.88,2.86-40.31,7.23-57.38,13.31l-1.93.7h-1.6l.24.71,1.72-.61c1.88-.67,3.79-1.32,5.73-1.95v14.97s87.62,73.79,87.62,73.79h62.68c11.69,0,21.26,9.57,21.26,21.26v49.42Z"/>
      <path class="cls-5" d="m233.35,162.49l98.46,82.91.05-67.14c2.08.63,4.13,1.28,6.15,1.95l-1.7-.57c-29.75-9.95-65.33-15.45-102.95-17.16h0Z"/>
      <path class="cls-10" d="m331.81,245.4l-98.46-82.91c-8.6-.39-17.32-.58-26.1-.58-23.63,0-46.74,1.36-68.32,4.32l192.82,162.37.06-83.19Z"/>
      <path class="cls-10" d="m173.33,267.15l-87.63-73.79-.06,82.98,79.18,66.68v-75.87h8.51Z"/>
      <path class="cls-10" d="m193.91,284.47v83.03l35.77,30.13v-83.03l-35.77-30.13Z"/>
      <path class="cls-10" d="m257.27,337.83v83.04l72.64,61.17c1.14-6.23,1.74-12.83,1.74-19.79l.05-61.74-74.43-62.67Z"/>
      <path class="cls-10" d="m303.02,531.34l-71.99-60.62h-66.2v-55.75l-79.24-66.72-.06,84.68,151.12,127.25c26.35-3.73,49.52-13.33,66.37-28.84h0Z"/>
      <path class="cls-10" d="m193.91,454.46h17.82l-17.82-15v15Z"/>
      <path class="cls-5" d="m193.91,284.47l35.77,30.13v-.69c0-11.7-3.21-30.62-14.88-30.62h-20.89v1.18Z"/>
    </g>
  </g>
</svg>