<?xml version="1.0" encoding="UTF-8"?>
<svg id="Layer_2" data-name="Layer 2" xmlns="http://www.w3.org/2000/svg" viewBox="0 0 184.25 240.73">
  <defs>
    <style>
      .cls-1, .cls-2, .cls-3, .cls-4 {
        fill-rule: evenodd;
      }

      .cls-1, .cls-2, .cls-3, .cls-4, .cls-5, .cls-6, .cls-7 {
        stroke-width: 0px;
      }

      .cls-1, .cls-6 {
        fill: #ae9f10;
      }

      .cls-2, .cls-7 {
        fill: #fff;
      }

      .cls-3 {
        fill: #ec1c24;
      }

      .cls-4 {
        fill: #fff100;
      }
    </style>
  </defs>
  <g id="Ebene_1" data-name="Ebene 1">
    <g>
      <path class="cls-2" d="m4.48,28.99c-1.27,23.83,2.54,46.93,4.04,70.63.52,8.23.73,16.48.34,24.72-.13,2.64-.27,5.27-.43,7.91-.89,14.61-2.23,29.18-3.18,43.78-.76,11.79-1.38,24.03-.6,35.87,53.98,32.8,120.97,32.73,175.14.38.74-14.63-.22-29.1-1.6-43.68-1.34-14.27-3.08-28.64-3.19-42.99-.14-17.33,1.2-34.48,2.57-51.74,1.18-14.97,2.36-30.05,1.97-45.09C152.55,12.52,119.62,3.52,88.18,4.25,59.87,4.91,28.68,14.16,4.48,28.99h0Z"/>
      <path class="cls-2" d="m.4,26.57C24.24,11.46,56.95.77,88.08.04c35.84-.83,70.16,10.51,95.59,26.33,1.13,31.31-4.75,63.15-4.47,99.2.22,27.47,6.69,56.48,4.66,89.16-56.61,34.77-127.14,34.68-183.26-.38-2-24.91,2.49-57.84,4.05-90.22C6.2,91.72-1.86,60.83.4,26.57H.4Z"/>
      <path class="cls-1" d="m6.12,212.41h172.23c-3.56,2.74-7.12,5.49-10.68,8.23-43.26,23.69-93.56,28-155.64-.19l-5.91-8.04h0Z"/>
      <path class="cls-6" d="m28.06,103.66l3.86-32.14h7.31l3.51,32.14h-4.91l-.99-8.65h-3l-1.03,8.65h-4.76Zm6.21-12.82h2.23l-.5-8c-.03-.7-.07-1.51-.14-2.44-.07-.93-.18-2.28-.34-4.05h-.22c-.04.46-.12,1.62-.24,3.47-.09,1.28-.16,2.31-.22,3.09l-.57,7.93h0Zm11.47,12.82v-5.08h4.34v5.08h-4.34Zm14.48-27.04c0-.71-.1-1.21-.31-1.5-.22-.28-.57-.42-1.07-.42s-.85.14-1.07.42c-.22.28-.33.78-.33,1.5v21.77c0,.73.11,1.23.33,1.53.22.29.58.44,1.07.44s.85-.15,1.07-.44c.21-.29.31-.8.31-1.53v-7.21h4.84v7.04c0,2.02-.52,3.55-1.58,4.6-1.05,1.05-2.59,1.57-4.64,1.57s-3.61-.52-4.66-1.57c-1.05-1.05-1.58-2.58-1.58-4.6v-21.2c0-2.02.52-3.56,1.58-4.59,1.05-1.04,2.6-1.56,4.66-1.56s3.6.52,4.64,1.56c1.05,1.03,1.58,2.57,1.58,4.59v6.38h-4.84v-6.78h0Zm6.88,27.04v-5.08h4.34v5.08h-4.34Zm14.72-21.07v-5.26c0-.71-.15-1.24-.45-1.59-.3-.35-.75-.52-1.35-.52h-1.05v9.48h1.05c.6,0,1.05-.17,1.35-.52.3-.35.45-.89.45-1.59h0Zm-7.65-11.08h5.7c2.39,0,4.13.46,5.19,1.38,1.07.92,1.6,2.43,1.6,4.52v3.75c0,1.66-.37,2.91-1.11,3.76-.73.85-1.95,1.41-3.64,1.69v.17c1.59.03,2.78.41,3.57,1.15.79.73,1.18,1.82,1.18,3.28v6.55c0,1.44.07,2.63.21,3.59.13.95.35,1.72.64,2.3h-5.08c-.22-.51-.37-1.12-.47-1.84-.1-.72-.14-1.63-.14-2.72v-8.44c0-.68-.22-1.18-.64-1.51-.43-.33-1.1-.49-2.01-.49h-.19v14.99h-4.8v-32.14h0Zm15.61,32.14v-5.08h4.34v5.08h-4.34Z"/>
      <path class="cls-6" d="m28.46,198.94v-41.18h9.32l1.79,15.5v.25c0,.13.03.63.09,1.48.29,4.33.48,8.69.59,13.1h.34c.08-2.53.18-4.98.34-7.37.15-2.38.34-4.73.59-7.03l1.68-15.92h9.02v41.18h-5.64l.14-21.45v-.55c0-.86.02-2.43.07-4.73.05-2.29.11-4.83.18-7.64h-.31c-.12,2.12-.25,4.11-.39,5.98-.15,1.86-.29,3.39-.42,4.6l-2.75,23.79h-5.87c-.99-8.42-1.74-15.29-2.27-20.64-.53-5.34-.9-9.92-1.12-13.73h-.34c.02,1.35.07,3.15.13,5.36.1,3.56.14,5.57.14,6.03v22.98h-5.31Zm26.89,0v-41.18h13.64v5.61h-7.49v10.36h7.32v5.41h-7.32v14.13h7.49v5.67h-13.64Zm14.97-34.14c0-2.59.67-4.56,2.01-5.88,1.33-1.33,3.31-2,5.91-2s4.63.67,5.98,2c1.35,1.32,2.02,3.29,2.02,5.88v8.18h-6.15v-8.68c0-.9-.14-1.53-.43-1.9-.3-.37-.77-.56-1.42-.56s-1.09.18-1.37.54c-.27.36-.4,1-.4,1.92v2.95c0,1.03.07,1.85.2,2.46.12.62.34,1.12.61,1.51l6.71,9.14c.84,1.15,1.44,2.19,1.76,3.13.33.92.49,1.95.49,3.07v5.41c0,2.58-.67,4.55-2.02,5.89-1.35,1.34-3.34,2.01-5.98,2.01s-4.58-.67-5.91-1.99c-1.34-1.33-2.01-3.31-2.01-5.91v-9.02h6.15v9.24c0,.93.13,1.58.4,1.95.28.37.73.56,1.37.56s1.12-.19,1.42-.57c.29-.38.43-1.03.43-1.94v-4.27c0-.55-.09-1.1-.25-1.62-.17-.51-.43-1.03-.79-1.53l-7.02-9.71c-.6-.84-1.03-1.71-1.3-2.6-.28-.89-.41-1.95-.41-3.18v-4.46h0Zm19.14,0c0-2.59.67-4.56,2.01-5.88,1.33-1.33,3.31-2,5.91-2s4.63.67,5.98,2c1.35,1.32,2.02,3.29,2.02,5.88v8.18h-6.15v-8.68c0-.9-.14-1.53-.43-1.9-.3-.37-.77-.56-1.42-.56s-1.09.18-1.37.54c-.27.36-.4,1-.4,1.92v2.95c0,1.03.07,1.85.2,2.46.12.62.34,1.12.61,1.51l6.71,9.14c.84,1.15,1.44,2.19,1.76,3.13.33.92.49,1.95.49,3.07v5.41c0,2.58-.67,4.55-2.02,5.89-1.35,1.34-3.34,2.01-5.98,2.01s-4.58-.67-5.91-1.99c-1.34-1.33-2.01-3.31-2.01-5.91v-9.02h6.15v9.24c0,.93.13,1.58.4,1.95.28.37.73.56,1.37.56s1.12-.19,1.42-.57c.29-.38.43-1.03.43-1.94v-4.27c0-.55-.09-1.1-.25-1.62-.17-.51-.43-1.03-.79-1.53l-7.02-9.71c-.6-.84-1.03-1.71-1.3-2.6-.28-.89-.41-1.95-.41-3.18v-4.46h0Zm24.42,34.14h-6.15v-41.18h6.15v41.18h0Zm3.23,0v-41.18h9.38l2.3,16.89c.41,3.04.8,6.16,1.15,9.36.35,3.2.69,6.46.99,9.8l.34-.03c-.08-3.35-.13-6.32-.17-8.92-.03-2.59-.05-4.34-.05-5.23l-.17-21.86h5.11v41.18h-9.15l-2.98-22.76c-.51-3.91-.88-6.81-1.11-8.69-.23-1.89-.41-3.49-.55-4.78h-.42c.06,3.01.1,5.37.12,7.07.03,1.71.05,2.79.05,3.25l.19,25.92h-5.02Zm20.47,0l4.94-41.18h9.37l4.49,41.18h-6.29l-1.26-11.08h-3.84l-1.32,11.08h-6.09Zm7.95-16.42h2.86l-.64-10.25c-.04-.9-.1-1.93-.18-3.13-.09-1.19-.23-2.93-.44-5.19h-.28c-.06.59-.15,2.08-.31,4.44-.12,1.64-.2,2.95-.28,3.97l-.73,10.16h0Z"/>
      <polygon class="cls-4" points="8.16 113.38 175.5 113.38 175.5 129.75 8.16 129.75 8.16 113.38 8.16 113.38"/>
      <polygon class="cls-3" points="6.69 129.75 176.98 129.75 176.98 144.94 6.69 144.94 6.69 129.75 6.69 129.75"/>
      <path class="cls-1" d="m.4,26.57C24.24,11.46,56.95.77,88.08.04c35.84-.83,70.16,10.51,95.59,26.33,1.13,31.31-4.75,63.15-4.47,99.2.22,27.47,6.69,56.48,4.66,89.16-56.61,34.77-127.14,34.68-183.26-.38-2-24.91,2.49-57.84,4.05-90.22C6.2,91.72-1.86,60.83.4,26.57H.4Zm4.07,2.42c-1.27,23.83,2.54,46.93,4.04,70.63.52,8.23.73,16.48.34,24.72-.13,2.64-.27,5.27-.43,7.91-.89,14.61-2.23,29.18-3.18,43.78-.76,11.79-1.38,24.03-.6,35.87,53.98,32.8,120.97,32.73,175.14.38.74-14.63-.22-29.1-1.6-43.68-1.34-14.27-3.08-28.64-3.19-42.99-.14-17.33,1.2-34.48,2.57-51.74,1.18-14.97,2.36-30.05,1.97-45.09C152.55,12.52,119.62,3.52,88.18,4.25,59.87,4.91,28.68,14.16,4.48,28.99h0Z"/>
      <path class="cls-5" d="m5.01,29.31c-.83,16.18.67,32.05,2.18,48,.7,7.41,1.4,14.83,1.87,22.28.26,4.11.44,8.24.51,12.38.07,4.14.02,8.27-.18,12.4-.06,1.34-.13,2.66-.2,3.96-.07,1.33-.15,2.65-.23,3.95-.48,7.84-1.08,15.62-1.68,23.4-.53,6.81-1.06,13.62-1.49,20.38-.38,5.9-.73,11.91-.88,17.89-.15,5.9-.11,11.8.26,17.62,26.79,16.22,56.79,24.33,86.82,24.39,30.13.07,60.28-7.96,87.27-24.01.35-7.2.29-14.36-.02-21.52-.32-7.26-.9-14.51-1.59-21.8-.25-2.67-.52-5.4-.79-8.14-1.15-11.6-2.31-23.24-2.4-34.89-.07-8.69.23-17.32.72-25.93.49-8.66,1.16-17.24,1.85-25.86.59-7.5,1.18-15.03,1.57-22.51.39-7.41.59-14.83.41-22.22-13.44-8.07-28.34-14.33-43.8-18.48-15.43-4.14-31.4-6.18-47-5.82-14.09.33-28.9,2.79-43.2,7.02-14.24,4.21-27.97,10.16-39.98,17.49h0Zm1.09,48.1c-1.52-16.09-3.04-32.09-2.17-48.45l.02-.29.25-.15c12.16-7.45,26.07-13.49,40.49-17.75,14.39-4.25,29.3-6.73,43.49-7.06,15.71-.36,31.79,1.69,47.31,5.86,15.65,4.2,30.75,10.56,44.34,18.75l.26.15v.3c.2,7.54,0,15.08-.39,22.61-.4,7.56-.98,15.06-1.57,22.54-.68,8.65-1.36,17.26-1.85,25.83-.49,8.61-.79,17.22-.72,25.86.09,11.59,1.24,23.22,2.39,34.8.27,2.7.53,5.39.79,8.14.69,7.3,1.27,14.57,1.59,21.85.32,7.29.38,14.58,0,21.91v.29s-.27.15-.27.15c-27.22,16.25-57.66,24.38-88.08,24.32-30.31-.07-60.6-8.27-87.63-24.7l-.24-.15-.02-.28c-.39-5.93-.43-11.97-.28-18,.15-6.04.5-12.05.88-17.94.44-6.84.97-13.62,1.49-20.39.61-7.81,1.21-15.62,1.68-23.39.08-1.33.16-2.65.23-3.95.07-1.34.14-2.66.2-3.95.2-4.11.24-8.23.18-12.33-.07-4.1-.25-8.21-.51-12.33-.47-7.48-1.17-14.87-1.87-22.25h0Z"/>
      <path class="cls-7" d="m65.4,220.31c0-.17-.02-.29-.07-.35-.05-.07-.13-.1-.25-.1s-.2.03-.25.1c-.05.07-.08.19-.08.35v5.16c0,.17.03.29.08.36.05.07.14.1.25.1s.2-.04.25-.1c.05-.07.07-.19.07-.36v-1.71h1.14v1.67c0,.48-.12.84-.37,1.09-.25.25-.61.37-1.1.37s-.85-.12-1.1-.37c-.25-.25-.37-.61-.37-1.09v-5.03c0-.48.12-.84.37-1.09.25-.25.61-.37,1.1-.37s.85.12,1.1.37c.25.25.37.61.37,1.09v1.51h-1.14v-1.61h0Zm9.33,6.41l.91-7.62h1.73l.83,7.62h-1.16l-.23-2.05h-.71l-.24,2.05h-1.12Zm1.46-3.04h.53l-.12-1.9c0-.17-.02-.36-.03-.58-.02-.22-.04-.54-.08-.96h-.05c-.01.11-.03.38-.06.82-.02.3-.04.55-.05.73l-.13,1.88h0Zm10.07,3.04v-7.62h1.13v6.57h1.38v1.05h-2.51Zm12.23-6.41c0-.17-.02-.29-.07-.35-.05-.07-.13-.1-.25-.1s-.2.03-.25.1c-.05.07-.08.19-.08.35v5.16c0,.17.03.29.08.36.05.07.14.1.25.1s.2-.04.25-.1c.05-.07.07-.19.07-.36v-1.71h1.14v1.67c0,.48-.12.84-.37,1.09-.25.25-.61.37-1.1.37s-.85-.12-1.1-.37c-.25-.25-.37-.61-.37-1.09v-5.03c0-.48.12-.84.37-1.09.25-.25.61-.37,1.1-.37s.85.12,1.1.37c.25.25.37.61.37,1.09v1.51h-1.14v-1.61h0Zm10.46,6.41h-1.13v-7.62h1.13v7.62h0Zm9.47-6.41v5.16c0,.17.03.29.08.36.05.07.14.1.25.1s.2-.04.26-.11c.05-.07.08-.19.08-.36v-5.16c0-.17-.03-.28-.08-.35-.05-.07-.14-.1-.26-.1s-.2.03-.25.1c-.05.07-.08.19-.08.35h0Zm-1.14.09c0-.48.13-.84.37-1.09.25-.25.62-.37,1.1-.37s.85.12,1.1.37c.25.25.37.61.37,1.09v5.03c0,.48-.13.84-.37,1.09-.25.25-.62.37-1.1.37s-.85-.12-1.1-.37c-.25-.25-.37-.61-.37-1.09v-5.03h0Z"/>
      <path class="cls-2" d="m58,221.74c.65,0,1.17.53,1.17,1.17s-.53,1.17-1.17,1.17-1.17-.53-1.17-1.17.53-1.17,1.17-1.17h0Z"/>
      <path class="cls-2" d="m125.57,221.74c.65,0,1.17.53,1.17,1.17s-.53,1.17-1.17,1.17-1.17-.53-1.17-1.17.53-1.17,1.17-1.17h0Z"/>
      <path class="cls-4" d="m120.46,28.88c10.78-1.34,23.25-1.25,33.53,0v63.07l-16.36,16.35h-.72l-16.44-16.86V28.88h0Z"/>
      <path class="cls-3" d="m121.15,29.5c4.22-.51,8.58-.7,12.86-.81l-.1,16.19h-12.76v-15.38h0Z"/>
      <path class="cls-3" d="m153.46,29.49c-4.22-.51-8.58-.7-12.86-.81l.1,16.19h12.76v-15.38h0Z"/>
      <polygon class="cls-3" points="121.26 51.9 134.02 51.9 134.02 103.94 121.26 91.48 121.26 51.9 121.26 51.9"/>
      <polygon class="cls-3" points="153.34 51.9 140.59 51.9 140.59 103.94 153.34 91.48 153.34 51.9 153.34 51.9"/>
    </g>
  </g>
</svg>