<?xml version="1.0" encoding="UTF-8"?>
<svg id="Livello_2" data-name="Livello 2" xmlns="http://www.w3.org/2000/svg" viewBox="0 0 96.19 101.55">
  <defs>
    <style>
      .cls-1, .cls-2, .cls-3, .cls-4 {
        stroke-width: 0px;
      }

      .cls-1, .cls-3 {
        fill: #e40f1b;
      }

      .cls-2 {
        fill: #fff;
      }

      .cls-2, .cls-3 {
        fill-rule: evenodd;
      }

      .cls-4 {
        fill: #1d1d1b;
      }
    </style>
  </defs>
  <g id="Livello_1-2" data-name="Livello 1">
    <g>
      <path class="cls-3" d="m12.04,8.26s32.28-18,72.01,0h0s-2.83,52.38-6.41,60.84c-1.98,4.66-4.24,9.1-24.52,22.45h0c-1.61,1.15-4.48,2.71-5.07,2.79h0s-1.97-1.07-5.07-2.79h0c-20.28-13.35-23.37-19.18-24.52-22.45-3.05-8.67-6.41-60.84-6.41-60.84h0Z"/>
      <path class="cls-2" d="m14.56,10.12s30.02-16.92,66.97,0h0s-2.63,49.24-5.97,57.19c-1.84,4.38-3.94,8.56-22.8,21.11h0c-1.5,1.08-4.17,2.55-4.71,2.63h0s-1.84-1.01-4.71-2.63h0c-18.86-12.55-21.74-18.03-22.8-21.11-2.83-8.15-5.97-57.19-5.97-57.19h0Z"/>
      <path class="cls-4" d="m11.92,8.04c.09-.05,32.39-18.06,72.23,0l.16.07v.17c-.02.15-2.84,52.42-6.44,60.92-1,2.36-2.07,4.66-5.45,8.05-3.36,3.37-9.01,7.83-19.16,14.51h0c-.8.57-1.9,1.24-2.88,1.78-1.04.57-1.97,1.01-2.3,1.06l-.16-.03s-1.58-.85-5.07-2.79h-.02c-10.16-6.69-16.01-11.5-19.48-15.05-3.49-3.57-4.56-5.88-5.14-7.54-3.06-8.7-6.42-60.75-6.43-60.9v-.16s.13-.08.13-.08h0Zm71.87.38C70.39,2.38,57.86.43,47.14.5,27.38.62,13.78,7.61,12.29,8.4c.2,3.14,3.45,52.24,6.39,60.61.57,1.61,1.61,3.85,5.03,7.36,3.44,3.52,9.27,8.31,19.38,14.96,2.4,1.34,4.55,2.51,4.98,2.74.33-.09,1.14-.48,2.05-.99.97-.54,2.05-1.19,2.83-1.75h0c10.12-6.67,15.75-11.1,19.08-14.45,3.32-3.33,4.37-5.58,5.34-7.89,3.45-8.15,6.21-57.31,6.39-60.58h0Z"/>
      <path class="cls-1" d="m14.78,22.38c.09-.05,31.14-16.59,66.66,0l-.32.68c-35.18-16.42-65.91-.05-66,0l-.35-.66h0Z"/>
      <path class="cls-3" d="m57.59,18.85s-1.73-.07-2.59.6c-.86.66-1.66,1.92-1.66,1.92,0,0-2.52-.13-3.58.4-1.06.53-2.59,1.46-3.38,1.59-.8.13-1.53.07-1.92-.33-.4-.4-1.26.07-1.33.53-.07.46.46,1.19.8,2.12.33.93.53,2.25,1.59,1.99,1.06-.26,2.79-.73,2.79-.73l.33.53s-1.92.93-2.72,1.06c-.8.13-2.32.66-2.79-.6-.46-1.26-1.33-3.18-2.65-2.52-1.33.66-1.53,1.59-1.53,1.59l.47.4s.4-.33.73-.66c.33-.33,1.26-.8,1.59.33.33,1.13,1,2.25,1.79,2.45.8.2,1.46,0,1.39.66-.07.66.13,1.66-.27,2.12-.4.46-.8.8-.2.93.6.13,1.06.13,1.46-.27.4-.4.86-.73.86-.73l.27.07s-.13.13-.13.53.2.73.66.4c.46-.33,1.26-.66,1.26-.66l-.4.8s-.66.46-1.79.4c-1.13-.07-3.58.2-4.31.6-.73.4-1.92,1.86-3.25,2.25-1.33.4-2.12.8-2.39,1.13-.27.33-.46.8.33.73.8-.07,1.46-.07,1.46-.07,0,0-1.59,1.06-1.99,2.12-.4,1.06-.8,1.59.33.99,1.13-.6,1.99-.53,2.85-.27.86.27,2.12,0,2.12,0,0,0-1.26,1.06-1.86,2.12-.6,1.06-.66,2.06-.66,2.06,0,0,1-1.06,2.26-1.39,1.26-.33,3.18-1.06,3.18-1.06,0,0,.2.4-.27,1.33-.47.93-.53,1.86-.4,2.52.13.66-.07.93-.33,1.33-.27.4-.2.99-.2.99,0,0,1.06.13,2.12-.46,1.06-.6,2.06-1.26,2.39-1.86.33-.6.8-1.13.8-1.13,0,0,.26.53.07,1.33-.2.8-.66,1.53-1.06,1.92-.4.4-.66.53-.66.53,0,0,.79.33,1.92-.13,1.13-.46,2.79-1.72,3.18-2.92.4-1.19.86-3.58.86-3.58,0,0,.93.53,1.59.93.66.4,1.46.99,1.33,1.46-.13.46-.2.86-.2.86,0,0,1.13-.07,1.73-.66.6-.6,1.53-2.32.73-3.85-.79-1.53-1.79-2.85-1.79-3.91s.33-1.59.33-1.59c0,0,.47.6,1.33.4.86-.2,1.79-1.06,1.79-1.06,0,0-.73.2-1.26-.2-.53-.4-.79-1.33-.73-2.19.07-.86.33-1.92.33-2.39s-.2-.86.47-.86,1.79-.26,2.12-.86c.33-.6.4-1.33.4-1.33,0,0-.4.33-.93.13-.53-.2-1.13-.53-1.33-1.26-.2-.73,0-1.26.93-1.52.93-.27,1.53-.86,1.86-1.52.33-.66.4-1.39.4-1.39,0,0-.53.6-1.53.8-1,.2-1.33.4-1.92.27-.6-.13-.86-.46-.86-.46,0,0,.66-.27,1.26-.6.6-.33,1.33-1.19,1.33-1.19l-1.92.33s-.6-.33-1.46-.33-1.26-.2-1.26-.2l1.73-1.79h0Z"/>
      <path class="cls-3" d="m41.21,34.56s-1.66,1.59-3.12,1.99c-1.46.4-2.45.4-3.18.66-.73.26-1.19.26-1.19.26,0,0,.2-.93.53-1.26.33-.33.8-1.19.8-1.19,0,0-.86.53-1.79.4-.93-.13-1.59-.2-1.79-.66-.2-.46-.27-.73.47-.6.73.13,1.26.13,1.52-.4.27-.53-.46-.8-1.26-1.06-.8-.26-1.46-1.06-1.99-.86-.53.2-.8.33-.8.33,0,0,0-1.13.86-1.33.86-.2,1.59-.66,1.59-.66l-.33-.46s-.6.26-.86.07c-.26-.2-.73-.33-.73-.33l-.26.53s-.46-.26-.73,0c-.27.27-.53.6-.53.6,0,0-.93-.53-.13-1.13.8-.6,1.13-.73,1.13-.73,0,0-.53-.26,0-.86.53-.6,1.19-.8,1.26-1.06.07-.27-.33-.4-.93-.4s-.73-.33-.73-.33l-.13-.53.2-.27s.33-.4-.2-.4h-1.06s.2-.99.73-.86c.53.13,1,.33,1,.33l.47-1.26,1.92,1.06v-1.79s.79-.99,1.39-.53c.6.46,1.59.53,1.26,1.33-.33.8-.13,1.06-.13,1.06,0,0,.47-.8.93-.86.46-.07.93.2.93.2,0,0,.33-.33.46-.6.13-.27.13-.8.13-.8,0,0,.66.46.53.99-.13.53.07.86-.4,1.06-.46.2-.53.4-.53.73s-.2.86-.8.86-1.26-.13-1.33.86c-.07.99-.27,2.12.53,2.72.79.6,1.92,1.46,2.98,2.39,1.06.93,3.32,2.79,3.32,2.79h0Z"/>
      <path class="cls-3" d="m31.33,44.58s1.39.07,2.32-.4c.93-.46,2.45-1.13,3.38-1.52.93-.4,1.66-.73,2.32-.53.66.2.66.4.2.86-.46.46-.86,1.33-.86,2.12s-.07,1.79,1.06,1.19c1.13-.6,1.06-1.46,2.39-1.39,1.33.07,1.59.8,1.39,1.26-.2.46.2.93-.2.99-.4.07-.53-.2-.93-.46-.4-.27-.86-.6-.86-.6,0,0-.6.27-.66,1.06-.07.8-.2,1.06.2,1.26.4.2.66.73-.07.73s-1.86,0-2.32-.6c-.46-.6-1.13-1.79-1.33-.73-.2,1.06,0,1.26.46,1.39.46.13,1.39.13.6.66-.8.53-1.99.33-2.72-.4-.73-.73-1.99-1.46-1.99-1.46l-.27.2s.4.33.27.73c-.13.4-1.13.8-1.13.8,0,0,.4.26.46.66.07.4.46.66.46.66,0,0-.6.46-1.13.13-.53-.33-.46-1.13-.46-1.13l-.93.4s-.4-.2-.4-.8v-.99s-.93-.46-1.13.2c-.2.66-.2.73-.2.73,0,0-.46.73-.86.66-.4-.07-.53,1.26-.53,1.26,0,0-.8-.2-.93-.93-.13-.73-.73-1.46-.27-2.19.46-.73,1.66-1.46,1.66-1.46,0,0-.86-.13-1.33.13-.46.27-.73-.13-.79-.46-.07-.33-.8-.46-1.06-.13-.26.33-1.06.26-.86-.27.2-.53.66-.8.99-.99.33-.2.73.13.73.13,0,0,.33-.93.99-.86.66.07,1.33.27,1.33.27,0,0-.46-.53-.13-.99.33-.46.73-.73.73-.73,0,0,0-.66-.2-.86-.2-.2-.6-.27-.6-.27,0,0,.2-.8,1.06-.33.86.46.93.86.93.86,0,0,.86.13,1.13.46.27.33.07,1.66.07,1.66h0Z"/>
      <path class="cls-3" d="m36.57,57.83s.27-.46.6-.8c.33-.33.99-.53,1.39.27.4.8.8.86,1.33.8.53-.07.73.13.8,1.26.07,1.13.6,2.39-1.39,3.51-1.99,1.13-2.59,1.13-2.98.53-.4-.6.27-1.26-.33-1.66-.6-.4-1.39-.27-1.39-.27,0,0-.13-.66-.73-.73-.6-.07-1.13-.13-1.13-.13,0,0,.4.46.46.93.07.46.46.79.46.79,0,0-.86.2-.79.8.07.6.13,1.19.13,1.19,0,0-.46-.53-.86-.07-.4.46-.46.99-.46.99,0,0-.46-.53-.93-.07-.46.46-1.19,1.52-.4,1.33.8-.2,1.53-.46,1.53-.46,0,0-.27.99.6.73.86-.27,1.86-.53,1.86-.53,0,0-.6.2-.86.86-.26.66.07,1.26.07,1.26,0,0-.6-.13-.6.66s.4,1.33.4,1.33c0,0,.6-.53.8-.93.2-.4.53-.66.53-.66,0,0,.07.73.66.33.6-.4.66-.86.99-1.52.33-.66,1.06-.33.8.33-.27.66-.13.99.27,1.13.4.13.86,0,.86,0,0,0-.46.27.07.79.53.53,1.19.33,1.19.33,0,0-.06-.46-.2-.8-.13-.33.27-.66.27-.66,0,0,.66,0,.73-.53.07-.53-.4-.99-.4-.99,0,0,.07-.46.4-.73.33-.27.99-.33.99-.33,0,0-.2.66.07,1.33.27.66.8,1.13,1.33,1.13s1.06-.07,1.06-.07c0,0-.53-.13-.8-.66-.26-.53.07-1.39.07-1.39,0,0,.2.73.86.99.66.27,1.26.46,1.79.2.53-.26,1.06-.6,1.06-.6,0,0-.47.13-1-.46-.53-.6-.4-1.19-.4-1.19,0,0,.6.33,1.46-.07.86-.4,1.46-1.33,1.46-1.33,0,0-1,.4-1.59-.33-.6-.73-.07-1.59.93-1.72.99-.13,1.19-.8,1.26-1.19.07-.4-.2-.73-.2-.73,0,0-.46.53-1.13.2-.66-.33-.86-1.06-.46-1.79.4-.73,1.19-1.66,2.12-1.79.93-.13,1.86,0,2.19-1.79.33-1.79.27-2.45,0-2.85-.27-.4-.66-.33-1.13-.13-.46.2-1.86.6-2.85,0-.99-.6-3.05-1.46-5.04-.2-1.99,1.26-2.06,2.25-2.26,2.92-.2.66-.8.93-1.72.6-.93-.33-1.59.27-1.79,1.06-.2.8,0,1.59,0,1.59h0Z"/>
      <path class="cls-3" d="m50.35,49.95c.28.35.68.85,1.01,1.33.6.86,1.06,1.72.73,2.85-.33,1.13-2.06,4.37-2.06,5.37s.27,2.45.27,3.51.13,2.25-.6,3.05c-.73.8-1.53,1.79-1.39,2.72.13.93.4,1.13.4,1.13,0,0,.27-.86.99-1.33.73-.46,1.66-.86,1.66-.86,0,0,.13.2-.13.79-.27.6-.46,1.46-.46,1.46,0,0,1.13-.33,1.92-1.39.8-1.06,1.19-1.92,1.19-2.59s.33-1.19.33-1.19c0,0,.66.93,2.32.2,1.66-.73,2.39-1.19,2.39-1.19,0,0,1.19,1.33,1,2.25-.2.93-.66,1.66-1.46,2.12-.8.46-1.39.46-1.66-.07-.27-.53-.53-.99-1.33-.27-.8.73-1.33.8-1.59.99-.27.2-.4.2-.4.6,0,.4.2.73.2.73,0,0,.86-.66,1.26-.4.4.27.46.99.46.99,0,0-.86.4-.8.93.07.53.33.73.33.73,0,0-.66.33-.66.86s-.27,1.52.4,1.26c.66-.27.99-1.26.99-1.26,0,0,.66.53,1.13.27.46-.27.26-1.19.86-.86.6.33.53,1.13.93.99.4-.13.66.2.73.6.07.4.27.66.8.6.53-.07.8-.2.8-.2,0,0-.53-.4-.6-.73-.07-.33,0-.6,0-.6,0,0,.27.27.46-.33.2-.6-.13-1.66-.13-1.66,0,0,.4.07,1,0,.6-.07.53.46,1.19.4.66-.07,1.66.33,1.39-.33q-.26-.66-1.06-.8c-.8-.13-.46-.53-.2-.8.26-.26-.53-.46-.27-.86.27-.4.99-.6,1.66-.8.66-.2,1.66-1.06,1.26-1.13-.4-.07-.86.13-1.33.13s.4-.46,1.06-.79c.66-.33,1.79-1.79,1.53-2.06-.26-.27-.8.46-1.59.6-.8.13-1.33-.13-1.33-.13,0,0,1.59-.13,2.12-1.19.53-1.06.73-2.65.73-2.65,0,0-.27.6-.86.93-.6.33-1.33.53-1.33.53,0,0,.8-.53.8-1.59s.33-2.92-.27-2.39c-.6.53-.53,1.46-1.46,1.72-.93.27-1.19.27-1.33-.53-.13-.8-.2-1.39-.93-1.13-.73.27-1.53.6-2.06.8-.53.2-.27-.53-.27-1.19s.27-1.33.27-1.33c0,0,2.19,1.13,3.52,1.13s4.38-.33,5.71-3.25c1.33-2.92,1.06-4.18.99-4.58,0-.05-.02-.09-.04-.13h-.54c-.05.34-.15.78-.36,1.13-.4.66-.8.99-.8.99,0,0-.49-1.01-1.03-2.12h-5.44c.94.81,2.06,1.54,2.96,1.72,1.33.27,2.19,2.52,1.26,3.38-.93.86-2.85.93-4.84-.4-1.61-1.07-2.78-2.79-3.77-4.71h-6.66Z"/>
      <path class="cls-3" d="m57.01,49.95c-.23-.45-.46-.92-.67-1.39-1.13-2.45-2.06-4.57-2.65-4.38-.6.2-.53,1.53-.93,2.45-.4.93-.93,1.39-1.53,1.92-.6.53-1.26.93-1.26.93,0,0,.16.18.39.46h6.66Z"/>
      <path class="cls-3" d="m66.84,49.95c-.65-1.33-1.35-2.79-1.35-2.79,0,0,.93-1.79.86-2.92-.07-1.13-.33-3.12-.66-3.45-.33-.33-.6-.4-.6-.4,0,0,.6,1.26.2,2.65-.4,1.39-1,2.25-1,2.25,0,0-1.2-.99-1.39-2.25-.2-1.26-.93-2.59.27-3.98,1.19-1.39,2.59-2.06,3.58-2.72,1-.66,1.26-2.45.93-3.38-.33-.93-1.06-2.19-1.06-2.19,0,0,.66,2.06-.07,2.92-.73.86-1.72,1.06-1.72,1.06,0,0,1.06-1.92.8-3.18-.27-1.26-.99-3.58-.33-4.44.66-.86,1.26-1.52,1.79-1.59.53-.07.86-.27.86-.27,0,0-.99-.53-1.86-.27-.86.27-3.12.99-3.51,2.45-.4,1.46-.27,2.19-.27,3.05v1.72s-.4-.53-.99-1.06c-.6-.53-1.92-1.06-1.92-1.06,0,0,1,1.26,1.33,2.25.33.99.46,2.85.07,5.44-.4,2.59-.86,4.31.8,7.36,1.66,3.05,2.45,3.98,1.86,3.98s-1.72-.13-2.39-1.06c-.66-.93-1.06-2.12-1.33-1.99-.27.13-.46,1.59.53,2.72.32.36.71.75,1.15,1.13h5.44Z"/>
      <path class="cls-3" d="m69.56,49.95c-.13-.32-.49-.53-.49-.53,0,0,0,.22-.04.53h.54Z"/>
      <path class="cls-3" d="m47.31,30.32l1.06-.33-.4-.6-1.33.07s0,.27.13.53c.13.27.53.33.53.33h0Z"/>
      <path class="cls-3" d="m50.69,23.96s.33.4.8.27c.46-.13,1.13-.53,1.13-.53,0,0-.27-.4-.8-.2-.53.2-1.13.46-1.13.46h0Z"/>
      <path class="cls-3" d="m6.28,80.38s-5.06-.82-5.83,5.99v-.11c1.3,2.85,5.08,1.81,5.57,1.67h0s-.06.04-.06.04l.03-.06c-.22-.3-.7-.84-1.55-1.32l.06.05c-2.53-2.27.26-2.32.26-2.32h0s2.99-.1,1.75-3.71h0s.07.02.1.03c-.25-.19-.45-.25-.45-.25h.1Zm-.04.03c-.02-.17.05.15.01,0,.04.15-.04-.17-.01,0h0Z"/>
      <path class="cls-4" d="m5.89,80.5c-.85-.06-4.64-.03-5.36,5.64.43.87,1.12,1.33,1.86,1.55,1.13.34,2.38.14,3.01-.01-.08-.09-.18-.19-.29-.29h0c-.24-.22-.55-.45-.95-.68h0c-3-2.68.41-2.75.42-2.75h0s2.64-.09,1.54-3.36l-.05-.08c-.05-.03-.16-.02-.17-.02h0ZM.03,86.15c.75-6.26,5.06-6.22,5.94-6.14.01,0,.02,0,.04,0h.03s.05,0,.07.01c.03.03.09.06.14.09h0c.08.04.2.11.33.21l-.05.1h.04c1.34,3.9-1.94,4.03-1.98,4.03h0s-2.09.05-.17,1.82c.43.25.77.51,1.03.74h0c.27.25.45.47.57.63l.04.06.16.21-.27.13-.06.03h-.01c-.38.1-2.09.55-3.63.09-.88-.26-1.71-.82-2.21-1.9h-.03s0-.11,0-.11h.01Zm5.89-5.81h0s-.03,0-.03,0h0s.03,0,.03,0h0Zm0,0h0s-.03,0-.03,0h0s.03,0,.03,0h0Zm0,0h0s-.02,0-.02,0l-.02.02h.03Z"/>
      <path class="cls-2" d="m.32,86.34s2.45,7.11,5.1,8.57c.92.51,4.81.37,5.58-.12h0c23.18-17.59,30.83-12.62,30.83-12.62,0,0-1.24-3.93-3.72-6.62h0c-8.07-1.86-20.07,7.45-28.56,11.17-8.48,3.72-9.31-.62-9.31-.62l.08.25H.32Z"/>
      <path class="cls-4" d="m.56,86.26v.03c.35.82,1.97,3.23,8.9.19,2.42-1.06,5.14-2.59,7.98-4.18,7.09-3.98,14.88-8.35,20.73-7.01l.13.07c2.52,2.73,3.77,6.7,3.78,6.71l-.37.29s-7.51-4.88-30.55,12.61h-.02c-.44.29-1.71.46-2.96.49-1.19.03-2.39-.08-2.88-.35-2.73-1.5-5.21-8.68-5.21-8.71h0s0-.02,0-.02c-.06-.16-.08-.26-.08-.26l.48-.12.08.25h0Zm.56,1.46c.86,2.14,2.6,5.96,4.43,6.96.41.23,1.51.31,2.63.29,1.18-.03,2.34-.17,2.7-.4,19.83-15.04,28.41-13.64,30.54-12.88-.43-1.15-1.57-3.89-3.43-5.93-5.65-1.25-13.32,3.05-20.3,6.97-2.84,1.6-5.57,3.13-8.03,4.2-4.91,2.15-7.35,1.65-8.54.79h0Z"/>
      <path class="cls-3" d="m90.04,80.06s5.07-.86,5.84,5.95v-.11c-1.3,2.85-5.08,1.81-5.57,1.67h0s.06.04.06.04l-.03-.06c.22-.3.7-.84,1.55-1.32l-.06.05c2.53-2.27-.26-2.32-.26-2.32h0s-2.99-.1-1.75-3.71h0s-.07.02-.1.03c.25-.19.42-.21.42-.21h-.1Zm.06-.02c.02-.17-.05.15-.01,0-.04.15.04-.17.01,0h0Z"/>
      <path class="cls-2" d="m88.76,87.53s-.98-6.75.98-7.16h0c-1.24,3.61,1.75,3.71,1.75,3.71h0s2.79.05.26,2.32l.06-.05c-1.28.72-1.71,1.57-1.71,1.57h0c-.95-.19-1.36-.61-1.36-.61l.03.22h0Z"/>
      <path class="cls-4" d="m88.51,87.57s-1.02-6.98,1.17-7.44l.43-.09-.14.42c-1.13,3.29,1.52,3.38,1.53,3.38h0s3.41.07.42,2.76h0c-1.2.67-1.59,1.43-1.59,1.43l-.08.18-.2-.04c-.79-.16-1.24-.47-1.41-.61l-.12.02h0Zm.8-6.63c-.9,1.18-.49,5.1-.35,6.25.12.1.44.31,1.01.46.2-.3.71-.93,1.68-1.49,1.91-1.77-.14-1.82-.17-1.82h0s-2.95-.12-2.17-3.4h0Z"/>
      <path class="cls-4" d="m90.12,80.04c.89-.08,5.31-.33,6.06,5.93l-.12.16v.11s-.03,0-.03,0c-.5,1.08-1.32,1.64-2.21,1.9-1.54.46-3.26,0-3.63-.1h-.01s-.06-.02-.06-.02l-.27-.13.16-.21.04-.06c.12-.16.3-.38.57-.63.26-.24.6-.5,1.03-.74,1.91-1.77-.14-1.82-.17-1.82h0s-3.32-.13-1.98-4.04v-.02s.15-.11.15-.11c.13-.1.14-.1.22-.14.01-.02.12-.02.14-.04.02-.02.04,0,.07-.02l.04-.02h0Zm5.42,6.07c-.71-5.66-4.5-5.7-5.35-5.64-.06.08-.13.1-.2.09h-.02c-1.1,3.27,1.53,3.37,1.54,3.37h0s3.41.07.42,2.76h0c-.4.22-.71.46-.95.67-.11.1-.21.2-.29.29.63.15,1.88.35,3.01.01.74-.22,1.43-.68,1.86-1.55h0Zm-5.39-5.82h0s.03.02.03.02l-.02-.02h-.02Zm0,.01h0s.03,0,.03,0h0s-.03,0-.03,0h0Zm0,0h0s.03,0,.03,0h0s-.03,0-.03,0h0Zm-.1-.34s.03,0,.05,0h-.05Zm0,0h0,0Z"/>
      <path class="cls-2" d="m95.87,86.13s-2.45,7.11-5.1,8.57c-1.05.58-4.57.52-5.58-.12-23.18-17.59-30.83-12.62-30.83-12.62.73-2.32,2.08-4.84,3.72-6.62,8.07-1.86,20.07,7.45,28.56,11.17,8.48,3.72,9.31-.62,9.31-.62l-.08.25h0Z"/>
      <path class="cls-4" d="m96.11,86.21s-2.48,7.2-5.21,8.71c-.57.31-1.78.45-2.96.43-1.17-.03-2.34-.21-2.88-.56h-.02c-23.04-17.5-30.53-12.63-30.55-12.62l-.37-.29c.38-1.21.93-2.47,1.6-3.66.63-1.12,1.37-2.18,2.18-3.06l.13-.07c5.85-1.35,13.64,3.03,20.73,7.01,2.84,1.59,5.56,3.12,7.98,4.18,6.93,3.04,8.55.63,8.89-.19v-.03s0,0,0,0l.08-.25.48.12s-.02.1-.08.26h0s0,.02,0,.02h0Zm-5.45,8.27c1.82-1,3.57-4.82,4.43-6.96-1.2.86-3.63,1.37-8.54-.79-2.45-1.08-5.18-2.61-8.03-4.2-6.98-3.92-14.65-8.22-20.3-6.97-.76.84-1.46,1.84-2.06,2.91-.55.98-1.02,2.02-1.38,3.03,2.12-.76,10.69-2.19,30.55,12.87.46.29,1.53.46,2.62.48,1.11.02,2.22-.1,2.71-.37h0Z"/>
      <path class="cls-3" d="m34.74,90.51s-3.76-2.04-5.07-3.75h0l3.42-4.4s5.91-1.97,8.57-.32l.02-.03-6.95,8.5h0Z"/>
      <path class="cls-4" d="m34.62,90.73s-3.8-2.07-5.15-3.82l-.12-.15.12-.15,3.42-4.4.12-.08s6.03-2.01,8.78-.3l-.11.18.2.16-6.95,8.5-.13.16-.18-.1h0Zm-4.63-3.97c1.19,1.41,3.96,3.02,4.69,3.43l6.61-8.08c-2.49-1.24-7.39.26-8.04.46l-3.26,4.18h0Z"/>
      <path class="cls-2" d="m29.63,86.71s14.68,16.07,36.61.96h0l-.91,8.58h0c-20.07,11.79-34.83-.82-34.83-.82l-.87-8.72h0Z"/>
      <path class="cls-4" d="m29.81,86.54s14.53,15.91,36.29.93c.11-.08.27-.05.35.06.04.05.05.11.04.17h0l-.91,8.58c0,.09-.06.16-.13.2-20.22,11.87-35.06-.81-35.1-.85-.06-.05-.09-.11-.09-.18l-.87-8.71c-.01-.14.09-.26.22-.27.08,0,.15.02.21.08h0Zm36.13,1.64c-19.54,13.14-33.26,1.8-35.99-.8l.79,7.92c1.15.94,15.3,11.92,34.36.79l.84-7.92h0Z"/>
      <path class="cls-3" d="m61.4,90.45s4.19-2.29,4.85-2.92h0l-3.18-5.38s-6.06-1.85-8.72-.2h0l7.05,8.5h0Z"/>
      <path class="cls-4" d="m61.46,90.14c.75-.41,3.63-2.01,4.47-2.65l-3.02-5.12c-.73-.21-5.69-1.58-8.17-.34l6.72,8.11h0Zm4.96-2.42c-.69.65-4.89,2.95-4.91,2.96l-.18.1-.13-.16-7.05-8.5-.18-.22.24-.15c2.75-1.71,8.91.17,8.93.17l.14.11,3.18,5.38.1.17-.14.14h0Z"/>
      <path class="cls-2" d="m7.48,87.52s.98-6.75-.98-7.16h0c1.24,3.61-1.75,3.71-1.75,3.71h0s-2.79.05-.26,2.32l-.06-.05c1.28.72,1.71,1.57,1.71,1.57h0c.95-.19,1.36-.61,1.36-.61l-.03.22h0Z"/>
      <path class="cls-4" d="m7.28,87.17c.14-1.14.56-5.06-.35-6.25.78,3.28-2.13,3.4-2.17,3.4h0s-2.09.05-.17,1.82c.97.55,1.48,1.18,1.68,1.49.57-.14.89-.36,1.01-.46h0Zm-.72-7.06c2.19.46,1.18,7.42,1.17,7.44l-.12-.02c-.17.14-.63.45-1.41.61l-.2.04-.08-.18s-.39-.76-1.59-1.44h0c-3-2.68.41-2.75.42-2.75h0s2.65-.09,1.53-3.38l-.14-.42.43.09h0Z"/>
      <path class="cls-1" d="m23.16,15.36l-.02.05c-.21.07-.52.2-.95.38-.43.18-.74.32-.93.41l-.04-.02-.08-.22.02-.04c.2-.1.32-.16.34-.18.05-.04.07-.09.06-.16-.03-.16-.15-.5-.34-1l-.83-2.14-.12,1.73c0,.1-.02.45-.05,1.05l-.06,1.5-.2.09c-.21-.22-.48-.49-.81-.81l-.79-.76-1.47-1.39.85,2.2c.2.5.34.82.42.97.03.06.08.08.15.07.03,0,.16-.04.37-.12l.04.02.08.22-.02.04c-.24.09-.46.17-.66.25-.23.1-.47.2-.7.32l-.04-.02-.08-.22.02-.04c.2-.1.32-.16.34-.18.05-.04.07-.09.06-.16-.03-.16-.15-.5-.34-1l-.65-1.68c-.2-.5-.33-.83-.42-.97-.03-.06-.08-.08-.15-.07-.03,0-.16.04-.37.12l-.04-.02-.08-.22.02-.04c.22-.08.49-.18.81-.32.25-.1.46-.2.64-.29.13.13.31.32.55.56l.36.36,1.79,1.7.08-1.18.1-1.93c.01-.23.01-.47,0-.73.23-.08.39-.14.47-.18.4-.17.7-.3.91-.4l.04.02.08.22-.02.04c-.2.1-.32.16-.34.18-.05.04-.07.1-.06.16.03.16.15.5.34,1l.65,1.68c.2.5.33.82.42.97.03.06.08.08.15.07.03,0,.16-.04.37-.12l.04.02.08.21h0Zm2.49-.78l-.02.04c-.21.05-.54.15-.98.29-.43.14-.76.25-.96.33l-.04-.02-.06-.22.02-.04c.21-.08.33-.13.36-.15.06-.04.08-.09.07-.15-.02-.17-.1-.51-.26-1.03l-.51-1.73c-.15-.52-.27-.85-.34-1-.03-.06-.08-.09-.14-.09-.03,0-.16.03-.38.08l-.04-.02-.07-.22.02-.04c.2-.05.53-.15.97-.29.44-.14.76-.25.96-.33l.04.02.06.22-.02.04c-.21.08-.33.13-.36.15-.06.04-.08.09-.07.16.02.16.1.51.26,1.03l.51,1.73c.15.52.26.85.34,1,.03.06.08.09.14.09.03,0,.16-.03.38-.08l.04.02.06.22h0Zm4.73-4.05c.18.75.09,1.43-.26,2.05-.17.3-.4.56-.7.78-.32.23-.71.41-1.18.52l-1.13.27c-.31.07-.56.15-.75.22l-.04-.03-.02-.09v-.04c.14-.14.21-.23.21-.26,0-.04-.01-.2-.07-.45l-.17-.75-.4-1.68c-.13-.53-.22-.87-.29-1.02-.03-.06-.07-.09-.14-.1-.03,0-.16.02-.38.06l-.04-.02-.05-.23.02-.04c.23-.04.44-.09.65-.15.49-.13.94-.25,1.33-.37.2-.06.39-.11.59-.16.55-.14.99-.19,1.32-.13.36.06.66.22.92.48.26.27.45.65.57,1.14h0Zm-.94.41c-.15-.61-.4-1.05-.77-1.3-.19-.13-.4-.21-.64-.22-.23-.01-.53.03-.91.13-.2.05-.38.11-.56.19.04.25.17.85.4,1.81l.35,1.45c.08.32.14.53.18.64.19-.02.39-.05.58-.1.42-.11.74-.26.95-.45.23-.21.38-.5.46-.87.08-.39.06-.81-.05-1.26h0Zm6.57-1.55c.13.76,0,1.44-.39,2.02-.19.29-.44.53-.75.72-.33.21-.73.36-1.21.43l-1.14.19c-.31.05-.57.11-.77.16l-.04-.03-.02-.09v-.04c.15-.13.23-.22.23-.25.01-.04,0-.2-.04-.45l-.12-.76-.29-1.71c-.09-.53-.16-.88-.22-1.04-.02-.06-.07-.1-.13-.11-.03,0-.16,0-.38.04l-.04-.03-.04-.23.03-.04c.23-.03.45-.06.66-.1.5-.09.95-.18,1.35-.27.2-.04.4-.08.6-.12.56-.1,1-.12,1.32-.04.35.09.65.27.89.55.24.29.41.68.49,1.18h0Zm-.96.34c-.11-.62-.33-1.07-.68-1.35-.18-.15-.39-.24-.63-.27-.23-.03-.53,0-.92.06-.2.04-.39.09-.57.15.02.26.11.87.28,1.83l.26,1.47c.06.33.1.54.14.65.2,0,.39-.02.59-.06.43-.08.76-.21.98-.38.24-.19.41-.47.51-.84.1-.38.12-.8.04-1.26h0Zm5.39.59c0,.34.01.71.06,1.13l-.03.04-2.37.28c-.4.05-.67.09-.83.13l-.04-.03v-.09s0-.04,0-.04c.15-.13.23-.2.24-.23.02-.04,0-.2-.02-.45l-.08-.76-.2-1.72c-.06-.54-.12-.89-.17-1.05-.02-.06-.06-.1-.12-.11-.03,0-.16,0-.39.02l-.04-.03-.03-.23.03-.04c.23-.01.55-.05.99-.1.45-.06.79-.11,1.02-.15l.04.03.03.23-.03.03c-.22.04-.35.07-.38.08-.06.03-.09.07-.1.14,0,.17.02.52.08,1.06l.24,2.03c.03.3.07.58.12.86l.44-.06c.63-.08,1.02-.16,1.16-.23.02-.01.04-.03.05-.05.02-.03.03-.1.04-.21l.03-.43.03-.04.2-.03.04.03h0Zm4.17-.29c-.03.34-.04.71-.02,1.13l-.03.04-2.38.11c-.4.02-.68.04-.84.07l-.04-.03v-.1s0-.04,0-.04c.16-.12.24-.19.25-.22.02-.04.02-.2.01-.46l-.03-.77-.09-1.73c-.03-.54-.06-.89-.1-1.06-.01-.07-.05-.11-.12-.12-.03,0-.16-.01-.39-.01l-.03-.03v-.23s.02-.03.02-.03c.22,0,.56,0,1.02-.03.41-.02,1.19-.07,2.34-.15l.04.03-.02.38c0,.12-.01.22-.01.31v.32s-.04.04-.04.04h-.19s-.03-.02-.03-.02c-.02-.31-.04-.48-.08-.53-.02-.03-.14-.05-.36-.06-.21,0-.4,0-.56,0-.19.01-.38.03-.58.05-.01.24,0,.57.01,1l.04.71c.17,0,.31,0,.42,0l.43-.03c.2-.01.31-.04.34-.07.03-.04.05-.2.05-.46l.03-.04h.2s.03.02.03.02c0,.25.01.49.02.7.01.23.03.48.05.75l-.03.03h-.22s-.04-.02-.04-.02c-.01-.26-.04-.42-.08-.46-.04-.05-.14-.07-.32-.08-.13,0-.28,0-.43,0-.16,0-.31.02-.45.04l.05,1.04c.02.3.04.59.06.87l.44-.02c.64-.03,1.03-.08,1.17-.14.02-.01.04-.02.05-.04.02-.03.04-.1.05-.21l.06-.43.03-.04h.2s.04.02.04.02h0Zm3.97-.58c0,.38-.09.71-.29,1-.17.26-.41.45-.7.58-.26.12-.58.18-.95.19-.46,0-.91-.09-1.36-.3l-.04-.07c.06-.26.08-.64.07-1.12l.03-.03h.21s.03.03.03.03v.08c0,.13.02.29.05.5.08.14.22.27.43.37.21.11.44.16.67.15.43,0,.73-.17.89-.49.08-.16.12-.33.12-.51,0-.29-.13-.5-.36-.62-.12-.06-.3-.11-.56-.14-.59-.08-.97-.19-1.16-.33-.28-.21-.43-.54-.43-.99,0-.47.14-.84.43-1.13.31-.3.76-.45,1.33-.46.51,0,.93.07,1.24.23l.02.08c-.05.27-.07.6-.08.98l-.04.03h-.21s-.03-.03-.03-.03c-.01-.27-.02-.45-.04-.53-.07-.11-.19-.2-.36-.27-.18-.07-.37-.11-.56-.11-.29,0-.52.09-.69.26-.16.16-.23.35-.23.6,0,.26.1.45.28.57.12.08.4.15.84.21.05,0,.17.03.38.06.13.02.25.05.36.09.22.08.39.21.5.39.12.19.19.43.19.72h0Zm4.49.19c-.02.57-.3,1-.84,1.3-.27.15-.61.21-1.02.2-.13,0-.24,0-.32-.02l-.78-.05c-.28-.01-.5-.01-.65,0l-.03-.04v-.1s.02-.04.02-.04c.16-.1.26-.16.27-.19.02-.04.04-.19.05-.45l.04-.77.06-1.73c.02-.54.02-.9,0-1.06,0-.07-.04-.11-.11-.13-.03,0-.16-.03-.38-.05l-.03-.03v-.23s.04-.03.04-.03c.19.02.53.04,1,.06.3.01.57.02.82.01.19,0,.36,0,.49,0,.61.02,1.01.18,1.19.48.09.16.14.33.13.53-.01.32-.14.59-.39.8-.12.1-.24.17-.37.22-.15.05-.31.1-.48.13.9.07,1.34.47,1.31,1.19h0Zm-1.07-2.2c.02-.5-.23-.76-.73-.78-.17,0-.31,0-.42.01-.02.24-.03.46-.04.66l-.03.94c.05,0,.15.01.3.02.4.01.66-.11.79-.37.08-.15.12-.31.13-.48h0Zm.06,2.27c.02-.68-.31-1.04-1-1.06-.09,0-.19,0-.3,0l-.05,1.58c0,.17,0,.34,0,.5.09.02.21.03.38.04.31.01.55-.08.72-.28.16-.19.25-.45.26-.78h0Zm6.03,1.86l-.04.03s-.06,0-.12-.01c-.3-.03-.48-.05-.56-.06-.11,0-.29-.01-.53-.02,0-.06-.04-.15-.11-.28l-.72-1.47-.32-.6c-.04-.07-.1-.15-.18-.22l.04-.11s.09,0,.11.01c.21.02.38,0,.51-.07.12-.06.23-.16.33-.31.1-.15.16-.34.18-.56.03-.38-.09-.65-.36-.81-.13-.07-.32-.12-.57-.14-.11,0-.21,0-.32,0-.04.22-.07.6-.11,1.14l-.12,1.78c-.04.54-.05.89-.03,1.06,0,.07.04.11.1.13.03.01.16.03.38.06l.03.04-.02.23-.03.03c-.22-.03-.55-.06-1.01-.09-.47-.03-.81-.05-1.01-.05l-.03-.03.02-.23.03-.03c.22,0,.35,0,.39,0,.06-.01.1-.05.12-.12.04-.16.08-.51.11-1.05l.12-1.8c.04-.54.05-.89.03-1.06,0-.07-.04-.11-.1-.13-.03-.01-.16-.03-.38-.06l-.03-.04.02-.23.03-.03c.21.03.55.06,1.01.09.27.02.48.03.65.04.33,0,.58.02.74.03.38.03.65.08.82.17.23.11.38.29.45.52.03.11.04.25.03.4-.04.62-.4,1.03-1.09,1.24.1.2.2.4.31.6l.45.84c.26.5.44.79.54.86.05.04.12.06.21.07l.03.04v.22h-.01Zm5.71-1.47c-.13.83-.46,1.44-.99,1.84-.52.39-1.17.51-1.96.38-.74-.12-1.29-.43-1.64-.94-.36-.5-.48-1.14-.36-1.91.16-1.08.68-1.77,1.53-2.05.39-.13.85-.15,1.38-.06.75.12,1.31.43,1.67.91.36.49.49,1.1.38,1.83h0Zm-1.03.01c.1-.65.05-1.19-.14-1.62-.19-.43-.53-.68-1.02-.76-.64-.11-1.11.12-1.41.69-.15.29-.26.63-.32,1.01-.11.7-.07,1.26.12,1.71.19.46.54.73,1.05.81.62.1,1.08-.15,1.39-.74.16-.32.28-.68.34-1.1h0Zm6.86-.66l-.04.02c-.25-.06-.41-.02-.47.11-.03.07-.09.24-.15.5-.05.19-.11.47-.2.83l-.23,1.03c-.15.66-.37,1.1-.69,1.32-.41.29-.92.37-1.54.22-.56-.13-.97-.34-1.24-.6-.23-.23-.35-.5-.36-.82,0-.21.08-.72.26-1.53l.19-.86c.12-.53.18-.88.19-1.04,0-.07-.02-.12-.08-.15-.03-.02-.15-.06-.37-.12l-.03-.04.05-.22.04-.02c.2.06.53.15.98.26.46.11.79.18.99.22l.03.04-.05.22-.04.02c-.22-.04-.35-.06-.38-.06-.06,0-.11.04-.14.1-.06.15-.15.49-.27,1.02l-.15.69c-.19.84-.26,1.36-.23,1.57.06.41.38.68.95.82.37.09.68.06.94-.08.12-.07.21-.14.27-.23.06-.08.12-.22.19-.41.06-.18.11-.36.15-.55l.15-.69c.13-.58.21-.98.26-1.19.04-.2.06-.33.05-.4,0-.05-.04-.09-.09-.13-.04-.03-.17-.08-.38-.14l-.03-.04.05-.22.04-.02c.18.06.37.11.57.16.15.04.43.1.85.18l.03.04-.05.22h0Zm4.71,4.57l-.04.03c-.14-.01-.23,0-.27.06-.04.05-.12.27-.24.65-.06.18-.11.37-.14.55-.78.04-1.45-.04-2.02-.23-.74-.25-1.28-.67-1.6-1.26-.33-.59-.37-1.26-.14-2.01.3-.98.93-1.54,1.87-1.68.43-.06.94,0,1.51.19.33.11.66.26.98.46.26.16.46.3.6.44v.07c-.1.17-.25.49-.43.95l-.04.02-.19-.06-.02-.04s.04-.13.07-.26c.03-.13.05-.23.05-.28-.05-.16-.17-.32-.37-.49-.21-.17-.45-.31-.72-.4-.74-.25-1.34-.11-1.81.41-.22.24-.39.55-.5.93-.19.6-.19,1.15,0,1.66.19.52.54.87,1.06,1.04.27.09.55.12.85.09.06-.15.13-.35.22-.62.07-.22.1-.35.1-.4,0-.04-.03-.08-.1-.11-.05-.03-.22-.11-.51-.23l-.02-.04.06-.2.04-.02c.3.11.61.22.95.33.19.06.48.16.86.28l.02.04-.05.16h0Zm4.77,3.76l-.04.02c-.2-.09-.51-.23-.94-.4-.44-.17-.75-.29-.95-.36l-.02-.04.08-.22.05-.02c.21.07.34.11.37.11.07,0,.11-.02.15-.08.08-.14.22-.47.4-.97l.28-.77c-.1-.05-.43-.19-.99-.41-.51-.21-.86-.34-1.02-.39l-.28.77c-.19.51-.29.84-.32,1-.01.07,0,.12.06.16.03.02.14.08.35.18l.02.04-.08.21-.04.02c-.2-.09-.51-.23-.94-.4-.44-.18-.76-.29-.95-.36l-.02-.04.08-.22.04-.02c.21.07.34.11.37.11.06,0,.11-.02.15-.08.08-.14.22-.47.4-.97l.62-1.69c.19-.51.3-.84.32-1,.01-.07,0-.12-.06-.16-.03-.02-.14-.08-.35-.18l-.02-.04.08-.22.04-.02c.19.09.5.22.94.4.44.18.76.3.95.36l.02.04-.08.22-.04.02c-.21-.07-.34-.11-.37-.11-.07,0-.12.02-.15.08-.08.14-.22.47-.4.97l-.19.53c.21.1.51.22.89.37.6.24.97.38,1.12.43l.19-.53c.19-.51.29-.84.32-1,.01-.07,0-.12-.06-.16-.03-.02-.14-.08-.35-.17l-.02-.05.08-.22.04-.02c.19.09.51.22.94.4.45.18.76.3.95.36l.02.04-.08.22-.04.02c-.22-.07-.34-.11-.37-.11-.06,0-.11.02-.15.08-.08.14-.22.47-.4.97l-.62,1.69c-.19.51-.29.84-.32,1-.01.07,0,.12.06.16.03.02.14.08.35.18l.02.04-.08.21h0Z"/>
      <path class="cls-1" d="m43.71,100.08l-.06.03c-.41-.11-.91-.24-1.51-.38-.58-.13-1.2-.26-1.85-.38l-.04-.05.05-.22.06-.02c.15.02.3.04.45.06.26.04.43.06.5.05.05,0,.11-.04.16-.11.08-.1.21-.56.4-1.37l.21-.91c.06-.27.13-.62.22-1.04l.05-.28c.03-.12,0-.19-.05-.2-.03,0-.12,0-.28.02-.44.06-.82.12-1.13.17l-.05-.04c.01-.14.02-.31.01-.49v-.03c.87,0,1.84-.05,2.92-.14l.08.08c-.05.14-.11.35-.19.63-.03.1-.11.39-.22.86l-.34,1.44c-.23,1.03-.34,1.59-.31,1.67.02.06.05.11.11.13.1.05.37.13.82.26l.05.05-.05.22h0Zm4.77-1.24c0,.29-.08.55-.21.77-.25.42-.66.7-1.21.84-.23.06-.5.08-.82.07-.69-.02-1.2-.25-1.56-.69-.16-.2-.23-.45-.22-.76.01-.38.17-.68.47-.91.1-.07.32-.18.65-.32-.6-.3-.89-.71-.88-1.23.02-.58.35-1,1-1.25.28-.11.6-.16.95-.15.52.02.93.14,1.22.36.28.21.41.49.4.82-.01.45-.31.81-.9,1.07.42.16.71.35.88.58.15.2.23.47.22.79h0Zm-.97-2.35c0-.25-.07-.45-.25-.6-.17-.15-.41-.24-.71-.25-.27,0-.49.05-.66.19-.15.12-.23.28-.24.48,0,.19.08.37.27.53.1.09.25.17.45.26.07.03.17.08.31.14l.24.09c.37-.18.56-.46.58-.84h0Zm-.05,2.75c.01-.36-.18-.64-.56-.83-.25-.13-.52-.25-.81-.35l-.12-.05c-.44.26-.66.59-.68,1.01,0,.24.04.43.14.58.23.34.55.51.98.53.3,0,.55-.07.74-.23.19-.17.29-.38.3-.65h0Zm5.33-4.02c-.58,1.13-1.05,2.13-1.4,2.99-.32.79-.56,1.45-.73,2l-.07.05c-.14,0-.29.01-.45.03-.16.02-.33.04-.52.08l-.05-.08,1.65-2.99c.13-.24.24-.44.31-.59l.35-.74-.04-.06-1.14.12-.81.1c-.26.03-.43.06-.49.09-.05.02-.09.06-.11.13-.03.06-.05.3-.06.72l-.05.05-.28.02-.05-.04c-.01-.28-.03-.54-.06-.8-.03-.29-.08-.61-.13-.96l.05-.05c.72-.05,1.43-.11,2.11-.19.89-.1,1.52-.17,1.89-.23l.05.03.03.31h0Zm4.31,1.88c.19.7.03,1.3-.47,1.81-.24.24-.57.41-.99.53-.6.16-1.11.11-1.55-.16-.44-.27-.76-.73-.94-1.39-.17-.64-.18-1.21-.01-1.7.17-.53.46-.98.87-1.37.42-.4.93-.69,1.54-.85l.41.14-.1.16c-.11.01-.21.03-.3.06-.45.12-.81.37-1.07.73-.12.16-.21.36-.27.58-.1.37-.11.83-.02,1.4.31-.41.5-.64.57-.69.17-.12.38-.21.63-.28.38-.1.72-.07,1.03.09.34.18.56.49.68.94h0Zm-.95.69c-.1-.38-.26-.64-.49-.79-.21-.15-.45-.18-.71-.11-.35.09-.55.28-.59.56-.02.13,0,.3.05.5.14.53.37.87.67,1.03.17.09.36.1.57.05.52-.14.69-.55.5-1.24h0Z"/>
      <path class="cls-1" d="m9.61,89.29l.08.33c.02.07.05.17.08.28l.07.23-.02.04-.16.06-.04-.02c-.1-.24-.17-.38-.21-.4-.06-.04-.33.03-.8.21-.07.03-.19.08-.35.15.05.19.17.53.35,1.01l.14.37.31-.11c.09-.03.26-.1.51-.21.05-.02.08-.05.08-.08.01-.05-.02-.18-.09-.38l.02-.04.17-.07.04.02c.07.21.14.39.2.56.07.18.15.38.24.6l-.02.03-.18.07-.04-.02c-.07-.19-.12-.3-.15-.33-.06-.05-.16-.05-.33,0-.11.03-.22.07-.32.11-.13.05-.24.09-.33.14l.25.65c.17.43.29.71.36.83.03.05.07.07.13.07.01,0,.15-.04.4-.12l.04.02.07.18-.02.04-1.11.41c-.16.06-.37.15-.64.27h-.04s-.07-.2-.07-.2l.02-.04c.18-.08.28-.13.31-.15.05-.03.06-.08.05-.14-.03-.14-.12-.43-.29-.86l-.56-1.45c-.17-.43-.29-.71-.36-.83-.03-.05-.07-.07-.13-.07-.03,0-.14.04-.33.1l-.04-.02-.07-.19.02-.04c.18-.06.46-.16.85-.31.25-.1.86-.34,1.84-.72h.04Zm4.43-.62c.4.6.54,1.18.43,1.76-.12.56-.47,1.04-1.05,1.43-.55.37-1.09.51-1.62.41-.53-.1-.98-.43-1.35-.98-.52-.78-.59-1.52-.2-2.22.18-.32.47-.61.86-.88.56-.38,1.1-.53,1.62-.45.52.09.96.39,1.32.92h0Zm-.66.63c-.32-.47-.66-.78-1.04-.93-.38-.15-.74-.1-1.11.15-.48.32-.65.76-.52,1.29.07.28.2.55.38.83.34.5.7.83,1.08,1,.39.17.78.13,1.16-.13.46-.31.62-.75.47-1.31-.08-.3-.22-.6-.42-.9h0Zm4.62-3.68c.41.59.57,1.17.46,1.75-.11.56-.45,1.04-1.03,1.45-.55.38-1.08.53-1.61.44-.53-.09-.98-.41-1.37-.96-.54-.77-.62-1.51-.24-2.22.17-.32.45-.62.84-.89.56-.39,1.1-.55,1.61-.47.52.08.97.38,1.33.9h0Zm-.65.64c-.32-.46-.68-.77-1.05-.91-.38-.14-.75-.09-1.11.16-.48.33-.64.77-.5,1.3.07.27.21.55.4.82.35.49.71.82,1.09.98.4.16.78.11,1.16-.15.46-.32.61-.76.45-1.32-.08-.3-.23-.59-.44-.89h0Zm3.43-4.49c.05.14.12.27.19.41l.24.43v.04s-.17.09-.17.09h-.04c-.13-.22-.22-.34-.25-.37-.06-.06-.14-.06-.23-.03-.04.01-.2.1-.48.27l-.34.2c.03.06.16.3.4.71l.83,1.44c.23.4.39.66.49.77.04.04.08.06.14.04.03,0,.13-.06.31-.14h.04s.1.18.1.18v.04c-.18.09-.45.23-.8.44-.36.21-.62.36-.77.47h-.04s-.1-.18-.1-.18v-.04c.18-.11.27-.18.29-.2.04-.04.05-.09.03-.14-.05-.13-.19-.4-.42-.81l-.83-1.44c-.24-.42-.38-.65-.42-.7l-.36.21c-.3.17-.47.29-.51.33-.02.03-.03.05-.03.07,0,.04.02.1.06.18.04.1.09.19.14.29v.04s-.17.09-.17.09h-.04s-.26-.44-.26-.44c-.07-.12-.15-.24-.25-.36v-.04c.12-.04.49-.24,1.11-.6l1.03-.59c.58-.33.94-.55,1.08-.66h.04Zm4.84.69c.21.44.17.89-.14,1.34-.15.22-.39.41-.73.58-.11.05-.19.09-.26.12l-.64.29c-.22.11-.4.2-.51.27h-.04s-.04-.09-.04-.09v-.04c.09-.15.13-.23.13-.26,0-.04-.05-.16-.14-.36l-.28-.59-.65-1.33c-.2-.42-.35-.68-.43-.8-.03-.05-.08-.06-.14-.05-.03,0-.14.05-.32.12h-.04s-.09-.19-.09-.19v-.04c.18-.07.45-.19.83-.38.24-.12.46-.23.65-.33.15-.08.28-.15.39-.2.49-.24.87-.28,1.13-.14.14.08.24.19.32.35.12.25.13.5.01.77-.05.12-.12.23-.2.32-.09.1-.2.2-.32.3.74-.32,1.24-.2,1.52.35h0Zm-1.73-1.22c-.19-.39-.49-.48-.89-.29-.13.07-.24.13-.33.19.08.19.16.36.24.52l.35.73s.12-.05.25-.11c.32-.15.48-.36.48-.61,0-.15-.03-.28-.1-.42h0Zm.97,1.69c-.26-.53-.66-.66-1.21-.39-.07.03-.15.08-.24.12l.59,1.22c.06.13.13.26.2.38.08-.02.18-.07.31-.13.25-.12.4-.29.46-.51.05-.21.02-.44-.11-.7h0Zm5.85-1.13v.04c-.42.14-.67.23-.75.26-.34.13-.64.25-.93.38l-.04-.02-.07-.17.02-.04.23-.1c.1-.04.13-.1.11-.16-.01-.04-.07-.11-.18-.23l-.44-.49c-.25.09-.51.19-.77.29-.14.05-.35.14-.63.25v.38c.01.29.03.47.05.53.03.07.09.09.18.07.05-.01.15-.04.29-.09l.04.02.07.17-.02.04c-.34.12-.56.2-.66.23-.07.03-.26.11-.55.23h-.04s-.07-.19-.07-.19l.02-.04c.18-.08.28-.16.3-.24.02-.08.03-.52.05-1.33l.03-2.06c0-.16,0-.4,0-.72l.39-.15,2.76,2.85c.11.11.18.16.24.16.07,0,.16-.02.27-.07l.04.02.07.17h0Zm-2.3-.81l-1.14-1.21v1.65c.14-.05.34-.12.58-.22.23-.09.42-.16.56-.22h0Zm5.52-1.02c.03.29.08.61.17.95l-.02.04-2.07.5c-.34.09-.59.15-.73.2l-.04-.02-.02-.08v-.04c.12-.12.19-.2.19-.22,0-.04-.01-.17-.06-.39l-.15-.64-.36-1.44c-.11-.45-.2-.74-.26-.87-.02-.05-.06-.08-.12-.08-.03,0-.14.02-.34.05l-.04-.02-.05-.19.02-.03c.2-.04.49-.1.86-.2.39-.1.69-.18.89-.24l.03.02.05.2-.02.03c-.19.06-.3.1-.33.11-.05.03-.07.07-.07.13,0,.14.07.44.18.89l.42,1.7c.06.25.13.49.19.72l.39-.1c.55-.14.89-.24,1-.32.02-.01.03-.03.04-.04.01-.03.02-.09.01-.18l-.02-.37.02-.04.17-.04.04.02h0Zm3.76-.46c-.02.29-.01.61.02.97l-.03.03-2.12.17c-.35.03-.6.06-.75.08l-.03-.03v-.08s0-.04,0-.04c.14-.1.21-.17.22-.19.02-.04.01-.17,0-.39l-.05-.66-.13-1.48c-.04-.46-.08-.76-.12-.9-.02-.06-.05-.09-.11-.1-.03,0-.14,0-.34,0l-.03-.03-.02-.2.03-.03c.2,0,.5-.03.88-.06.4-.03.7-.07.91-.1l.03.02.02.2-.03.03c-.2.03-.31.05-.34.06-.06.02-.09.06-.09.12-.01.14,0,.44.04.91l.15,1.75c.02.25.05.5.08.74l.4-.03c.57-.05.91-.1,1.04-.16.02,0,.04-.02.04-.04.02-.03.03-.09.04-.18l.04-.37.03-.03.18-.02.03.03h0Z"/>
      <path class="cls-1" d="m70.33,83.41l-.24.22c-.47.04-.94-.04-1.4-.24-.93-.41-1.43-1.02-1.48-1.85-.02-.38.04-.75.2-1.12.26-.59.66-.97,1.2-1.15.56-.19,1.18-.13,1.87.17.44.19.83.46,1.18.8l.02.06c-.17.22-.33.49-.49.82l-.04.02-.16-.07v-.04c.08-.22.13-.37.15-.46-.11-.35-.38-.62-.8-.8-.43-.19-.84-.2-1.2-.03-.37.17-.65.49-.86.96-.28.64-.27,1.23.02,1.76.16.28.43.51.82.69.36.16.75.22,1.17.18l.04.09h0Zm3.52,1.22c-.17.23-.34.51-.5.83h-.04s-1.88-.99-1.88-.99c-.31-.16-.54-.28-.67-.33v-.04s.03-.07.03-.07l.03-.02c.17-.01.27-.03.29-.04.03-.02.1-.13.21-.33l.31-.58.69-1.32c.22-.41.34-.69.39-.82.02-.06,0-.1-.04-.14-.02-.02-.12-.08-.29-.18v-.04s.08-.18.08-.18h.04c.17.09.43.23.78.42.36.19.63.32.82.41v.04s-.08.18-.08.18h-.04c-.18-.07-.29-.12-.32-.12-.06-.01-.1,0-.14.05-.09.11-.24.38-.45.79l-.81,1.55c-.12.23-.23.45-.33.67l.35.18c.51.26.83.41.96.43.02,0,.04,0,.06,0,.03-.02.07-.06.13-.13l.23-.29h.04s.16.07.16.07l.02.04h0Zm5.64-.07h-.04c-.2-.11-.34-.13-.43-.04-.05.05-.14.17-.26.36-.09.14-.23.35-.39.62l-.47.77c-.3.49-.62.79-.94.88-.43.12-.88.03-1.36-.26-.44-.27-.73-.55-.89-.84-.13-.25-.16-.51-.08-.77.05-.17.26-.56.64-1.17l.4-.64c.24-.4.39-.66.44-.79.02-.05.01-.1-.03-.15-.02-.02-.11-.09-.28-.2v-.04s.09-.17.09-.17h.04c.15.1.41.26.76.48.36.22.62.37.78.46v.04s-.09.17-.09.17h-.04c-.18-.09-.28-.14-.31-.15-.06-.02-.1,0-.14.04-.1.11-.26.36-.51.75l-.32.51c-.39.63-.6,1.03-.63,1.21-.06.35.13.66.58.93.29.18.56.25.81.2.12-.02.21-.06.29-.11.07-.05.16-.14.27-.28.1-.13.19-.26.28-.4l.32-.52c.27-.44.45-.73.54-.9.09-.15.14-.26.15-.31,0-.04,0-.08-.04-.13-.03-.04-.12-.11-.28-.23v-.04s.09-.17.09-.17h.04c.14.09.28.19.44.28.12.07.34.2.67.39v.04s-.09.17-.09.17h0Zm1.8,4.54c-.29.39-.71.56-1.25.49-.27-.03-.55-.16-.85-.38-.09-.07-.17-.13-.23-.18l-.55-.43c-.2-.15-.36-.26-.48-.33v-.04s.04-.07.04-.07l.03-.02c.17.01.27.01.29,0,.04-.02.12-.12.26-.29l.4-.52.88-1.19c.28-.37.45-.62.51-.75.03-.05.02-.1-.02-.15-.02-.02-.11-.1-.26-.23v-.04s.11-.16.11-.16h.04c.13.11.37.29.71.54.22.16.41.3.59.42.14.1.26.18.36.25.44.32.65.64.64.94,0,.16-.06.31-.16.44-.17.22-.39.34-.67.36-.13,0-.26,0-.38-.03-.13-.04-.27-.09-.41-.15.63.51.75,1.01.38,1.51h0Zm.28-2.1c.26-.35.2-.65-.16-.92-.12-.09-.23-.16-.32-.21-.13.16-.24.31-.35.45l-.48.65s.1.09.21.17c.28.21.54.26.76.14.13-.07.24-.16.33-.28h0Zm-1.06,1.64c.35-.47.28-.89-.22-1.26-.06-.05-.14-.1-.22-.15l-.81,1.09c-.09.12-.17.24-.25.35.06.06.14.13.26.22.22.16.44.22.66.17.21-.05.4-.19.57-.42h0Z"/>
    </g>
  </g>
</svg>