<?xml version="1.0" encoding="UTF-8"?>
<svg id="Layer_2" data-name="Layer 2" xmlns="http://www.w3.org/2000/svg" viewBox="0 0 266.31 324.97">
  <defs>
    <style>
      .cls-1 {
        fill: #07074e;
      }

      .cls-1, .cls-2, .cls-3, .cls-4 {
        stroke-width: 0px;
      }

      .cls-2 {
        fill: #ffe600;
      }

      .cls-3 {
        fill: #ffeb00;
      }

      .cls-4 {
        fill: #00004b;
      }
    </style>
  </defs>
  <g id="Ebene_1" data-name="Ebene 1">
    <g id="g5368">
      <path id="path5314" class="cls-3" d="m206.25,295.17l-16.6-22.17c-5.1-7.98-9.91-14.61-15.72-22.06-2.4-3.23-9.85-13.73-24.46-17.36,6.28,3.64,12.49,11.85,16.25,17.25,9.62,13.55,18.77,27.86,29.15,40.88,3.05,3.81,5.98,7.86,9.39,11.38,6.75,7.27,10.73,4.22,10.73,4.22,0,0-5.57-7.63-6.92-9.62-.59-.82-1.23-1.64-1.82-2.52Z"/>
      <path id="path5316" class="cls-3" d="m165.19,255.57c-2.11-3.23-4.34-6.45-6.75-9.44-2.82-3.52-12.08-14.72-25.87-14.19,4.16,1.7,9.97,5.28,13.37,8.62l.94.94c7.8,8.09,14.84,16.89,20.76,26.45,5.75,9.33,10.73,18.77,16.66,28.04,1,1.58,2.64,3.93,3.93,5.1,6.86,6.33,11.79,3.4,11.85,3.28-2.82-3.52-5.75-7.1-8.56-10.62-9.56-11.97-18.01-25.46-26.34-38.19Z"/>
      <path id="path5318" class="cls-3" d="m156.62,257.98c-2.4-3.52-6.75-8.45-10.21-9.8,3.34,4.63,16.6,24.17,21.29,32.73,1.35,2.46,10.15,17.66,10.56,18.3.82,1.17,2.93,1.99,4.22,1.17-3.4-5.1-4.99-8.27-6.8-11.85-5.81-11.09-11.32-20.71-19.06-30.56Z"/>
      <path id="path5320" class="cls-3" d="m194.93,263.2c-5.34-5.87-16.07-15.84-22.82-19.06.29.88,10.03,12.49,14.49,18.48.23.29.47.65.7.94,4.93,6.8,9.44,13.84,14.31,20.65,3.93,5.51,8.09,10.91,12.2,16.31,1.06,1.41,2.05,2.82,3.11,4.16,7.92,10.03,17.25,7.1,18.42,4.63-.35-.35-28.39-32.26-34.96-39.95-1.76-1.99-3.58-4.11-5.46-6.16Z"/>
      <path id="path5322" class="cls-2" d="m10.45,6.87c0,2.05,1.58,12.26-2.23,18.65-.23.41-3.05,4.87-3.81,5.98.47-.23,4.99-3.28,8.33-5.69,1-3.52,2.7-6.57,4.93-9.21-2.29-3.52-6.04-8.74-7.21-9.74Z"/>
      <path id="path5324" class="cls-2" d="m186.3,237.15c-6.57-6.75-12.67-13.96-18.71-21.18-5.87-7.1-11.2-14.61-16.31-22.35-18.07-27.57-39.36-53.26-62.88-76.43-14.25-14.08-24.23-33.9-23.81-54.2.12-6.75,1.47-13.37,1.94-20.12.53-6.75.12-13.73-2.93-19.77-2.82-5.51-8.21-9.21-14.08-10.79-1.88-.53-3.87-.82-5.81-.88-7.33-.35-15.02,2.4-20.12,7.74-2.76,2.87-4.69,6.57-5.22,10.56-.29,1.88-.23,3.81.06,5.63.88,5.51,4.16,10.09,5.28,15.54,1.11,5.4.53,11.03-.82,16.25-1.82,6.92-4.16,13.73-5.87,20.71-2.93,12.32-6.16,24.75-5.46,37.54,1.64,32.03,19.88,62.12,47.34,78.72,14.66,8.86,29.74,19.18,40.24,33.14,3.28,4.4,4.58,10.09,9.21,3.93,3.75-4.99,7.63-9.85,13.73-12.08,6.28-2.29,13.32-2.29,19.83-1.23,8.62,1.35,16.42,3.93,24.11,8.21,8.39,4.69,16.13,10.56,23.17,17.07,7.74,7.16,14.78,15.02,21.59,23.05,6.75,7.98,13.73,15.54,20.71,23.35,2.35,2.64,4.63,5.34,7.16,7.8,11.32,11.14,20.88,5.92,22.93,2.4-2.4-2.35-22.47-20.82-28.27-26.22-16.13-15.13-31.67-30.62-46.98-46.4ZM42.53,23.94c4.52.12,6.8,3.11,6.8,6.1-.06,3.81-3.34,7.04-7.04,6.98-3.34-.06-5.98-3.17-5.98-6.92,0-3.46,2.76-6.28,6.22-6.16Zm76.66,192.1c-4.05-.59-8.21-1.7-13.61-5.4-6.04-4.11-10.97-10.21-10.97-10.21,0,0-8.27,2.05-19.65-7.68-4.58-3.87-8.74-8.68-8.74-8.68-11.73-4.99-21.88-16.54-28.1-27.33-7.74-13.49-13.61-36.19-.47-48.45,2.29-2.17,4.52-3.28,6.57-3.87,5.28-1.41,6.57.7,6.57.7,0,0-6.69,1.64-10.32,6.16-.65.82-1.23,1.64-1.76,2.46-5.1,8.09-4.05,19.12-1.47,27.92,2.7,9.15,7.74,17.48,13.78,24.81,6.04,7.27,10.21,9.03,10.21,9.03,0,0-1.94-3.4-2.82-5.16-2.58-4.93-3.23-8.39-3.64-11.2-.53-3.52,1.11-6.92,1.11-6.92,0,0,5.98,21.06,18.59,33.49,2.11,2.05,9.68,9.03,16.07,9.97-2.4-2.82-5.75-7.63-7.63-12.79-1.23-3.34-2.17-9.5.59-10.26,4.05,11.44,6.04,13.67,9.85,18.83,2.87,3.93,6.1,7.51,9.74,10.73,10.32,9.21,15.95,10.68,24.46,11.5-.76,1.29-1.99,3.28-8.39,2.35Z"/>
      <path id="path5326" class="cls-3" d="m81.42,244.25c3.58-.82,4.87-6.92,5.75-9.85.41-1.29.12-2.46-.88-3.58-5.16-5.92-11.38-10.5-18.3-14.84.41,1.35,4.69,17.01,7.57,23.58,1.06,2.35,2.82,5.4,5.87,4.69Z"/>
      <g id="g5336">
        <g id="g5334">
          <path id="path5328" class="cls-4" d="m42.24,37.02c3.7.06,6.98-3.23,7.04-6.98.06-2.99-2.23-5.98-6.8-6.1-3.46-.12-6.22,2.7-6.22,6.16,0,3.75,2.64,6.86,5.98,6.92Z"/>
          <path id="path5330" class="cls-4" d="m93.27,191.52c-3.81-5.16-5.81-7.45-9.85-18.83-2.82.76-1.82,6.92-.59,10.26,1.94,5.16,5.28,10.03,7.63,12.79-6.39-.88-13.96-7.86-16.07-9.97-12.61-12.49-18.59-33.49-18.59-33.49,0,0-1.64,3.46-1.11,6.92.41,2.82,1.06,6.28,3.64,11.2.94,1.76,2.82,5.16,2.82,5.16,0,0-4.16-1.76-10.21-9.03-6.04-7.33-11.14-15.66-13.78-24.81-2.58-8.86-3.64-19.83,1.47-27.92.53-.88,1.11-1.7,1.76-2.46,3.64-4.52,10.32-6.16,10.32-6.16,0,0-1.29-2.11-6.57-.7-2.05.53-4.22,1.7-6.57,3.87-13.14,12.2-7.27,34.9.47,48.45,6.16,10.79,16.37,22.35,28.1,27.33,0,0,4.16,4.81,8.74,8.68,11.44,9.74,19.65,7.68,19.65,7.68,0,0,4.93,6.1,10.97,10.21,5.4,3.7,9.56,4.81,13.61,5.4,6.39.94,7.68-1.06,8.27-2.29-8.51-.82-14.14-2.29-24.46-11.5-3.52-3.28-6.75-6.86-9.62-10.79Z"/>
          <path id="path5332" class="cls-1" d="m266.31,309.65c-.06-1.7-1.23-3.05-4.28-5.87-.29-.29-18.59-17.42-23.7-22.17-5.51-5.16-10.97-10.32-16.54-15.43-12.9-11.91-24.28-24.17-35.96-37.31-6.51-7.33-12.85-14.72-18.77-22.52-5.98-7.92-11.09-14.61-16.54-22.88-6.28-9.5-12.96-18.89-19.88-27.86-10.91-14.08-23.58-26.57-36.02-39.24-11.32-11.5-18.83-23.46-23.11-39.3-1.58-5.98-1.58-9.91-1.41-16.13.29-10.68,3.4-24.11,1.17-33.32-2.4-9.91-9.8-18.24-20.12-21.06-9.97-2.7-22-.12-30.09,6.69-2.17-3.05-5.34-7.51-5.98-8.39C13.62,2.94,11.56-.11,8.81,0c-3.99.18-2.7,5.69-2.4,8.21.41,3.81.41,7.8.18,11.38-.06,1.11-.65,2.46-1.17,3.46C3.59,26.46-.58,31.15.07,33.85c.18.7.59,1.29,1.17,1.7.59.35,1.29.47,1.94.41.76-.06,1.53-.35,2.17-.7,1.11-.59,4.22-2.64,6.69-4.34-.23,5.98,2.11,11.32,4.81,16.95,4.34,9.03.65,17.42-1.64,26.45-2.11,8.39-4.75,16.66-6.75,25.05C-.05,134.8,11.8,173.51,42.53,198.32c4.05,3.28,14.02,13.14,19.77,22.35,5.28,8.45,8.09,18.3,9.15,28.21,2.17,20.82-5.22,37.42-14.43,55.43-1.7,3.34-1.7,3.4-3.75,6.57-1.7,2.64-4.87,3.64-8.09,3.64-1.82,0-4.81,0-6.63.06-3.93.12-12.49.12-17.19.12-7.98,0-9.74,7.74-1.58,7.74h12.85c3.11,0,5.46-.18,8.09,1.41,1.99,1.17,4.63.59,6.75-.18,4.63-1.7,10.26-.94,15.02.47,2.05.59,3.7,1.29,5.75.41,3.46-1.47,6.86-2.11,10.62-2.17,6.45-.12,22.41,0,25.46,0s5.87-1.58,4.99-3.87c-1.23-3.05-4.11-3.81-8.15-3.87h-20.24s13.08-22.82,15.07-26.98c3.93-8.27,7.27-16.83,10.03-25.63,2.64-8.56,6.1-17.13,12.49-23.81,3.34-3.52,7.68-3.58,11.26-1.94,10.32,4.69,28.16,34.08,33.85,43.93,3.64,6.28,7.16,12.67,10.68,19.06.94,1.64,2.82,4.4,7.04,4.93,2.17.29,3.81-.88,3.81-.88,1.7,1.99,3.23,2.7,5.22,3.75,5.04,2.64,10.85,1.76,12.9.41,1.64,1.99,5.1,3.75,8.21,4.11,3.52.41,6.33-.88,6.33-.88,0,0,2.93,3.17,9.39,4.16,8.8,1.47,11.26-2.93,11.2-2.99,1.99,1.94,3.87,3.87,6.45,5.04,3.81,1.7,14.25,2.7,20.18-3.75.41-.65,1.35-1.94,1.29-3.52ZM12.8,25.81c-3.34,2.4-7.86,5.51-8.33,5.69.7-1.11,3.52-5.57,3.81-5.98,3.81-6.39,2.23-16.6,2.23-18.65,1.17,1,4.87,6.22,7.27,9.68-2.29,2.7-3.99,5.75-4.99,9.27Zm55.25,190.11c6.86,4.4,13.08,8.97,18.3,14.84,1,1.17,1.29,2.29.88,3.58-.88,2.93-2.23,9.03-5.75,9.85-3.11.7-4.81-2.35-5.87-4.69-2.87-6.51-7.21-22.23-7.57-23.58Zm22.06,65.11c-2.17,4.69-8.09,19.42-15.49,28.45-2.87,3.52-9.39,5.28-14.61,5.28,2.93-6.45,15.49-30.91,18.95-37.83,1.99-4.05,7.63-13.49,8.04-14.49,1.17-2.7-1.99-3.58-2.4-3.75,2.99-7.33,4.99-12.44,8.21-20.59,10.68,9.21,2.64,31.26-2.7,42.94Zm88.16,18.18c-.41-.65-9.21-15.84-10.56-18.3-4.69-8.56-17.95-28.1-21.29-32.73,3.4,1.35,7.8,6.33,10.21,9.8,7.74,9.8,13.26,19.47,19.06,30.56,1.88,3.58,3.4,6.75,6.8,11.85-1.29.82-3.4,0-4.22-1.17Zm9.91,1.76c-1.23-1.17-2.93-3.52-3.93-5.1-5.87-9.21-10.85-18.71-16.66-28.04-5.92-9.56-12.96-18.3-20.76-26.45l-.94-.94c-3.34-3.34-9.21-6.92-13.37-8.62,13.78-.47,23.05,10.68,25.87,14.19,2.4,3.05,4.63,6.22,6.75,9.44,8.33,12.73,16.78,26.22,26.34,38.07,2.82,3.52,5.75,7.1,8.56,10.62-.06.23-4.99,3.17-11.85-3.17Zm16.07,2.11c-3.4-3.52-6.33-7.57-9.39-11.38-10.38-13.02-19.53-27.33-29.15-40.88-3.81-5.34-9.97-13.61-16.25-17.25,14.61,3.64,22.06,14.14,24.46,17.36,5.81,7.45,10.56,14.08,15.72,22.06l16.6,22.17c.65.82,1.23,1.7,1.82,2.52,1.35,1.99,6.92,9.62,6.92,9.62,0,0-3.99,3.05-10.73-4.22Zm12.67,1.64c-1.06-1.35-2.05-2.76-3.11-4.16-4.05-5.46-8.21-10.79-12.2-16.31-4.87-6.8-9.39-13.9-14.31-20.65-.23-.29-.47-.65-.7-.94-4.46-5.98-14.25-17.66-14.49-18.48,6.69,3.23,17.42,13.2,22.82,19.06,1.88,2.05,3.7,4.16,5.46,6.28,6.57,7.68,34.61,39.53,34.96,39.95-1.17,2.35-10.5,5.28-18.42-4.75Zm21.64,2.52c-2.52-2.46-4.81-5.16-7.16-7.8-6.98-7.74-13.96-15.37-20.71-23.35-6.8-8.04-13.84-15.9-21.59-23.05-7.1-6.51-14.78-12.38-23.17-17.07-7.68-4.22-15.49-6.86-24.11-8.21-6.57-1-13.55-1.06-19.83,1.23-6.04,2.23-9.97,7.1-13.73,12.08-4.63,6.16-5.92.41-9.21-3.93-10.44-13.9-25.57-24.23-40.24-33.14-27.45-16.6-45.69-46.69-47.34-78.72-.65-12.79,2.52-25.22,5.46-37.54,1.64-6.98,4.05-13.78,5.87-20.71,1.35-5.22,1.94-10.85.82-16.25s-4.4-10.03-5.28-15.54c-.29-1.88-.35-3.75-.06-5.63.59-3.99,2.46-7.68,5.22-10.56,5.1-5.34,12.79-8.04,20.12-7.74,1.94.12,3.93.41,5.81.88,5.87,1.58,11.26,5.28,14.08,10.79,3.05,5.98,3.46,13.02,2.93,19.77-.53,6.75-1.82,13.37-1.94,20.12-.41,20.3,9.56,40.18,23.81,54.2,23.52,23.17,44.81,48.86,62.88,76.43,5.04,7.74,10.38,15.25,16.31,22.35,6.04,7.27,12.14,14.43,18.71,21.18,15.31,15.84,30.85,31.26,46.93,46.28,5.81,5.4,25.87,23.87,28.27,26.22-1.99,3.64-11.56,8.8-22.88-2.29Z"/>
        </g>
      </g>
    </g>
  </g>
</svg>