<?xml version="1.0" encoding="UTF-8"?>
<svg id="Layer_2" data-name="Layer 2" xmlns="http://www.w3.org/2000/svg" xmlns:xlink="http://www.w3.org/1999/xlink" viewBox="0 0 33.56 19.58">
  <defs>
    <style>
      .cls-1 {
        clip-path: url(#clippath);
      }

      .cls-2 {
        fill: none;
      }

      .cls-2, .cls-3, .cls-4, .cls-5 {
        stroke-width: 0px;
      }

      .cls-6 {
        clip-path: url(#clippath-1);
      }

      .cls-7 {
        clip-path: url(#clippath-4);
      }

      .cls-8 {
        clip-path: url(#clippath-3);
      }

      .cls-9 {
        clip-path: url(#clippath-2);
      }

      .cls-10 {
        clip-path: url(#clippath-7);
      }

      .cls-11 {
        clip-path: url(#clippath-8);
      }

      .cls-12 {
        clip-path: url(#clippath-6);
      }

      .cls-13 {
        clip-path: url(#clippath-5);
      }

      .cls-14 {
        clip-path: url(#clippath-9);
      }

      .cls-15 {
        clip-path: url(#clippath-20);
      }

      .cls-16 {
        clip-path: url(#clippath-21);
      }

      .cls-17 {
        clip-path: url(#clippath-14);
      }

      .cls-18 {
        clip-path: url(#clippath-13);
      }

      .cls-19 {
        clip-path: url(#clippath-12);
      }

      .cls-20 {
        clip-path: url(#clippath-10);
      }

      .cls-21 {
        clip-path: url(#clippath-15);
      }

      .cls-22 {
        clip-path: url(#clippath-17);
      }

      .cls-23 {
        clip-path: url(#clippath-16);
      }

      .cls-24 {
        clip-path: url(#clippath-19);
      }

      .cls-25 {
        clip-path: url(#clippath-11);
      }

      .cls-26 {
        clip-path: url(#clippath-18);
      }

      .cls-3 {
        fill: #63accc;
      }

      .cls-4 {
        fill: #c9002a;
      }

      .cls-5 {
        fill: #f5eb2e;
      }
    </style>
    <clipPath id="clippath">
      <rect class="cls-2" width="33.56" height="19.58"/>
    </clipPath>
    <clipPath id="clippath-1">
      <rect class="cls-2" width="33.56" height="19.58"/>
    </clipPath>
    <clipPath id="clippath-2">
      <rect class="cls-2" width="33.56" height="19.58"/>
    </clipPath>
    <clipPath id="clippath-3">
      <rect class="cls-2" width="33.56" height="19.58"/>
    </clipPath>
    <clipPath id="clippath-4">
      <rect class="cls-2" width="33.56" height="19.58"/>
    </clipPath>
    <clipPath id="clippath-5">
      <rect class="cls-2" width="33.56" height="19.58"/>
    </clipPath>
    <clipPath id="clippath-6">
      <rect class="cls-2" width="33.56" height="19.58"/>
    </clipPath>
    <clipPath id="clippath-7">
      <rect class="cls-2" width="33.56" height="19.58"/>
    </clipPath>
    <clipPath id="clippath-8">
      <rect class="cls-2" width="33.56" height="19.58"/>
    </clipPath>
    <clipPath id="clippath-9">
      <rect class="cls-2" width="33.56" height="19.58"/>
    </clipPath>
    <clipPath id="clippath-10">
      <rect class="cls-2" width="33.56" height="19.58"/>
    </clipPath>
    <clipPath id="clippath-11">
      <rect class="cls-2" width="33.56" height="19.58"/>
    </clipPath>
    <clipPath id="clippath-12">
      <rect class="cls-2" width="33.56" height="19.58"/>
    </clipPath>
    <clipPath id="clippath-13">
      <rect class="cls-2" width="33.56" height="19.58"/>
    </clipPath>
    <clipPath id="clippath-14">
      <rect class="cls-2" width="33.56" height="19.58"/>
    </clipPath>
    <clipPath id="clippath-15">
      <path class="cls-2" d="m4.2,12.31c0,.77.63,1.4,1.4,1.4v-2.8c-.77,0-1.4.62-1.4,1.4"/>
    </clipPath>
    <clipPath id="clippath-16">
      <rect class="cls-2" x="5.59" y="1.4" width="5.59" height="16.78"/>
    </clipPath>
    <clipPath id="clippath-17">
      <rect class="cls-2" x="5.59" y="1.4" width="5.59" height="16.78"/>
    </clipPath>
    <clipPath id="clippath-18">
      <rect class="cls-2" x="5.59" y="1.4" width="5.59" height="16.78"/>
    </clipPath>
    <clipPath id="clippath-19">
      <rect class="cls-2" x="5.59" y="1.4" width="5.59" height="16.78"/>
    </clipPath>
    <clipPath id="clippath-20">
      <rect class="cls-2" x="5.59" y="1.4" width="5.59" height="16.78"/>
    </clipPath>
    <clipPath id="clippath-21">
      <rect class="cls-2" x="5.59" y="1.4" width="5.59" height="16.78"/>
    </clipPath>
  </defs>
  <g id="Layer_1-2" data-name="Layer 1">
    <g id="MONGOLIA">
      <g>
        <g class="cls-1">
          <rect class="cls-4" width="33.56" height="19.58"/>
        </g>
        <g class="cls-6">
          <rect class="cls-3" x="11.19" width="11.19" height="19.58"/>
        </g>
        <g class="cls-9">
          <g>
            <g class="cls-8">
              <path class="cls-5" d="m5.59,5.59c.85,0,1.54.69,1.54,1.54s-.69,1.54-1.54,1.54-1.54-.69-1.54-1.54.69-1.54,1.54-1.54"/>
            </g>
            <g class="cls-7">
              <path class="cls-4" d="m5.59,4.76c.93,0,1.68.75,1.68,1.68s-.75,1.68-1.68,1.68-1.68-.75-1.68-1.68c0-.93.75-1.68,1.68-1.68"/>
            </g>
            <g class="cls-13">
              <path class="cls-5" d="m5.59,5.59c.62,0,1.12.5,1.12,1.12s-.5,1.12-1.12,1.12-1.12-.5-1.12-1.12.5-1.12,1.12-1.12"/>
            </g>
            <g class="cls-12">
              <path class="cls-5" d="m5.57,3.09c-.21.15-.05.4-.07.54-.02.14-.09.17-.12.29-.04.15-.02.3.01.36.03.05.05.11.06.15,0,0,0,0,0,0h0s0,.01,0,.01c0,0,0,0,0,0h0s0,.02,0,.03c0,.07-.07.14-.14.14s-.14-.07-.14-.14h0s0,0,0-.01h0v-.02h0s0,0,0,0h0s0-.01,0-.01h0c.02-.08.09-.14.09-.24,0-.12-.08-.19-.1-.22-.01-.03-.03-.11,0-.19-.06.07-.13.13-.13.21,0,.06.04.12.03.21,0,.1-.17.16-.17.42,0,.39.31.7.7.7s.7-.31.7-.7c0-.25-.17-.32-.18-.42,0-.09.03-.15.03-.21,0-.08-.07-.14-.12-.21.03.08.01.16,0,.19-.02.04-.1.1-.1.22,0,.1.07.16.09.24h0s0,0,0,0h0s0,.02,0,.02h0v.02h0c0,.08-.06.15-.14.15-.06,0-.11-.04-.13-.09,0,0,0,0,0,0,0-.02-.01-.03-.01-.05,0,0,0-.02,0-.02h0s0-.02,0-.02c0,0,0,0,0,0h0s0,0,0,0c.01-.05.04-.1.06-.13.02-.06.07-.16.07-.29,0-.1-.02-.31-.14-.48-.09-.13-.15-.19-.19-.28-.02-.04,0-.1.03-.16"/>
            </g>
            <g class="cls-10">
              <rect class="cls-5" x="2.52" y="8.95" width="1.4" height="6.71"/>
            </g>
            <g class="cls-11">
              <rect class="cls-5" x="7.27" y="8.95" width="1.4" height="6.71"/>
            </g>
            <g class="cls-14">
              <polyline class="cls-5" points="4.2 8.95 6.99 8.95 5.59 9.79"/>
            </g>
            <g class="cls-20">
              <rect class="cls-5" x="4.2" y="10.07" width="2.8" height=".56"/>
            </g>
            <g class="cls-25">
              <rect class="cls-5" x="4.2" y="13.99" width="2.8" height=".56"/>
            </g>
            <g class="cls-19">
              <polyline class="cls-5" points="4.2 14.82 6.99 14.82 5.59 15.66"/>
            </g>
            <g class="cls-18">
              <path class="cls-5" d="m5.59,10.91c.77,0,1.4.62,1.4,1.4s-.62,1.4-1.4,1.4-1.4-.62-1.4-1.4c0-.77.63-1.4,1.4-1.4"/>
            </g>
          </g>
        </g>
        <g class="cls-17">
          <g class="cls-21">
            <g>
              <g class="cls-23">
                <path class="cls-4" d="m5.59,10.77c.44,0,.8.36.8.79s-.35.8-.8.8-.79-.36-.79-.8.35-.79.79-.79"/>
              </g>
              <g class="cls-22">
                <path class="cls-5" d="m5.59,10.88c.38,0,.69.31.69.69s-.31.69-.69.69-.68-.31-.68-.69.31-.69.68-.69"/>
              </g>
              <g class="cls-26">
                <path class="cls-4" d="m5.59,11.29c.16,0,.28.13.28.28s-.12.28-.28.28-.28-.12-.28-.28.12-.28.28-.28"/>
              </g>
              <g class="cls-24">
                <path class="cls-4" d="m5.59,12.25c.44,0,.8.36.8.8s-.35.8-.8.8-.79-.36-.79-.8.35-.8.79-.8"/>
              </g>
              <g class="cls-15">
                <path class="cls-5" d="m5.59,12.36c.38,0,.69.31.69.69s-.31.69-.69.69-.68-.31-.68-.69.31-.69.68-.69"/>
              </g>
              <g class="cls-16">
                <path class="cls-4" d="m5.59,12.77c.16,0,.28.12.28.28s-.12.28-.28.28-.28-.12-.28-.28.12-.28.28-.28"/>
              </g>
            </g>
          </g>
        </g>
      </g>
    </g>
  </g>
</svg>