<?xml version="1.0" encoding="UTF-8"?>
<svg id="Layer_2" data-name="Layer 2" xmlns="http://www.w3.org/2000/svg" viewBox="0 0 296.08 287.62">
  <defs>
    <style>
      .cls-1 {
        fill: #b8dcce;
      }

      .cls-1, .cls-2, .cls-3, .cls-4, .cls-5, .cls-6, .cls-7, .cls-8, .cls-9, .cls-10, .cls-11, .cls-12, .cls-13 {
        stroke-width: 0px;
      }

      .cls-2 {
        fill: #8ecab3;
      }

      .cls-3 {
        fill: #fdfdfd;
      }

      .cls-4 {
        fill: #ed2b2c;
      }

      .cls-5 {
        fill: #ed2c2c;
      }

      .cls-6 {
        fill: #ed2e2d;
      }

      .cls-7 {
        fill: #fcfcfc;
      }

      .cls-8 {
        fill: #ec292a;
      }

      .cls-9 {
        fill: #ec2828;
      }

      .cls-10 {
        fill: #ec2b2b;
      }

      .cls-11 {
        fill: #008450;
      }

      .cls-12 {
        fill: #00824c;
      }

      .cls-13 {
        fill: #00814d;
      }
    </style>
  </defs>
  <g id="Ebene_1" data-name="Ebene 1">
    <g>
      <path class="cls-13" d="m293.31,110.96c2.02,10.52,2.96,21.14,2.74,31.85-1.38,67.92-49.27,126.45-115.53,141.22-77.33,17.23-154.89-29.12-175.07-105.55-13.52-51.22-1.65-97.06,32.68-137.2,4.22-4.94,8.92-9.42,13.82-13.69.26-.23.62-.38.72-.77-.07-.55.33-.77.71-1.01.46-.16.81-.46,1.07-.87,1.28-1.07,2.39-2.36,4.01-2.97,3.23-2.27,6.47-4.54,9.7-6.81.43.07.52.24.16.54-1.36,2.14-2.74,4.27-4.09,6.42-1.96,3.14-3.91,6.28-5.86,9.43-2.43,3.91-4.84,7.82-7.27,11.73-1.89,3.03-3.78,6.05-5.68,9.07-1.53,2.43-2.99,4.91-4.63,7.26-2.02,2.9-4.14,5.74-6,8.76-3.07,4.99-6.05,10.04-8.29,15.47-.28.42-.18,1.02-.65,1.35-.45.75-.85,1.52-.99,2.4-.23.46-.17,1.04-.64,1.39-2.46,5.7-4.37,11.58-5.86,17.6-.42,1.68-.98,3.33-1.07,5.08-.32.41.18,1.05-.38,1.39-.25.41-.18.85-.17,1.3-.27.44.08,1-.27,1.43v-.02c-.33.5.12,1.15-.29,1.64l.02-.02c-.31.52.1,1.15-.27,1.66l-.05.07.05.07c-.26.55.08,1.2-.27,1.74v-.02c-.32.6.13,1.32-.26,1.92v-.02c-.33.7.11,1.49-.25,2.19,0,.14-.02.27-.02.41-.34.92.16,1.92-.29,2.82l.02-.02c-.34,1.17.14,2.4-.28,3.56l-.05.08.06.07c-.26,1.67-.04,3.36-.12,5.03-.03.52.12,1.06-.12,1.57,0,.99,0,1.99,0,2.98.26,1.53.05,3.08.12,4.61.02.48-.09.97.11,1.44l-.05.08.05.08c.24,2.1.33,4.22.54,6.32.01.15.02.3.03.45.33.61-.07,1.31.24,1.93l-.02-.02c.41.6-.03,1.32.28,1.93l-.02-.03c.45.61-.02,1.35.3,1.98l-.04.09.06.08c.22,1,.35,2.01.52,3.02l-.02-.03c.43.48-.04,1.13.31,1.63v-.02c.34.42-.02.98.26,1.41-.05.84.23,1.61.44,2.4.49.74.39,1.64.65,2.45.03,1.63.66,3.13,1.1,4.65,1.96,6.84,4.26,13.55,7.43,19.94.5.31.38.93.67,1.34.82,2.46,2.26,4.61,3.45,6.89,2.07,3.94,4.45,7.7,7,11.35,2.93,4.19,5.96,8.31,9.45,12.06.46.4.89.82,1.19,1.35.3.55.76.96,1.24,1.35.62.59,1.27,1.16,1.74,1.88,1.4,1.65,2.93,3.18,4.59,4.58.61.41,1.12.92,1.61,1.47.49.57.99,1.12,1.64,1.51.39.27.8.51,1.07.92,2.88,2.66,6.03,4.96,9.15,7.32,6.19,4.67,12.86,8.52,19.74,12.03.26.13.52.39.87.28.41.3,1.03.17,1.34.67,1.3.7,2.6,1.4,4.05,1.77.43.26,1.01.2,1.36.62,3.98,1.87,8.15,3.22,12.34,4.5,2.85.87,5.75,1.53,8.63,2.32.4.11.78.17,1.19.14.39.35,1.03-.18,1.37.38.4.25.85.19,1.28.17.44.27,1.02-.1,1.44.29l-.03-.02c.42.28.97-.09,1.38.27h-.02c.42.28.96-.06,1.38.24.06.07.13.08.2.02.53.31,1.17-.1,1.68.27h-.02c.6.33,1.32-.12,1.91.28h-.02c.52.29,1.13-.08,1.65.22.15.01.31.02.46.04.8.35,1.71-.16,2.5.29l-.03-.02c.89.33,1.85-.14,2.73.27h-.02c.98.32,2.02-.1,3,.23.41.1.82.16,1.23.04,3.05.25,6.11.08,9.16.1,1.7,0,3.41.16,5.11-.1.33-.01.66-.02.99-.03,1.01-.32,2.07.07,3.07-.23l.08.05.08-.06c1.65-.25,3.32-.34,4.98-.53l.44-.03c.52-.31,1.14.05,1.66-.24l-.03.02c.59-.42,1.31.04,1.91-.29h-.02c.52-.36,1.17.02,1.71-.27.07.06.12.05.17-.02.42-.32.96.02,1.39-.25l-.03.02c.43-.38,1.01-.02,1.47-.28.53.09,1.01-.09,1.49-.28.83-.23,1.67-.38,2.51-.54,1.55-.2,3.06-.53,4.52-1.1.65-.21,1.32-.37,1.99-.51,4.24-1,8.33-2.44,12.35-4.09.46-.21.94-.34,1.42-.51,6.94-2.73,13.57-6.1,19.94-9.97,4.89-2.97,9.56-6.23,14.01-9.82,2.14-1.73,4.26-3.49,6.28-5.36.47-.33.86-.74,1.29-1.11,2.37-2.36,4.73-4.72,7.1-7.09.43-.55.98-.99,1.37-1.57.35-.38.71-.75,1.06-1.13.3-.33.56-.69.85-1.04.71-.82,1.42-1.65,2.13-2.47.28-.34.57-.68.82-1.04,5.42-6.74,10.16-13.93,14.16-21.61.31-.59.65-1.16.97-1.74.28-.5.47-1.04.77-1.53.55-1.2,1.11-2.39,1.66-3.59.29-.39.3-.9.57-1.29,3.28-7.54,5.85-15.32,7.82-23.3.23-.69.27-1.43.54-2.11.07-.05.08-.12.03-.19.29-.43-.12-1.01.3-1.42l-.02.03c.27-.43-.11-.99.27-1.41,0-.44-.08-.89.25-1.26.31-.52-.13-1.18.31-1.68l-.02.03c.26-.44-.09-.98.25-1.4l.06-.07-.05-.07c.24-.47-.05-1.02.24-1.48.07-.06.08-.14.02-.21.21-1.37.28-2.76.55-4.12l.05-.07-.05-.08c.28-.65-.07-1.36.23-2.01.01-.23.03-.46.04-.69.35-1.1-.16-2.27.29-3.35l-.02.02c.35-1.62-.14-3.29.26-4.91.11-.41.15-.82,0-1.23.19-1.97.19-3.94,0-5.92.15-.41.1-.82,0-1.23-.29-.45-.15-.96-.14-1.44.08-2.36-.3-4.69-.39-7.04-.01-.15-.02-.3-.03-.45-.33-.72.07-1.52-.24-2.25.06-.07.06-.13-.01-.18-.36-.61.06-1.32-.26-1.93v.02c-.38-.61.04-1.35-.27-1.97l-.05-.45c-.27-.43.04-.95-.23-1.38v.02c-.39-.49.05-1.14-.27-1.64v.02c-.34-.44,0-1.01-.26-1.47l.04-.07-.06-.06c-.35-.41.03-.96-.27-1.38v.02c-.36-.37.05-.92-.29-1.29-.72-2.97-1.38-5.95-2.18-8.9-.94-3.43-2.05-6.81-3.29-10.14-.09-.24-.14-.5-.21-.76-.21-.42-.28-.91-.53-1.32-.36-.91-.71-1.82-1.07-2.74-.24-.41-.27-.91-.55-1.3-3.78-8.69-8.29-16.98-13.76-24.72-2.29-3.24-4.69-6.4-7.29-9.4-.29-.35-.56-.71-.85-1.06-3.21-4.95-6.43-9.9-9.63-14.85-5.09-7.86-10.17-15.72-15.25-23.58-.18-.3-.21-.53.26-.49,7.31,4.41,14.28,9.32,20.81,14.83.4.26.82.51,1.08.94.41.46.8.93,1.36,1.23.52.32.96.73,1.35,1.2,2.58,2.58,5.17,5.16,7.75,7.74.55.48,1.08.99,1.47,1.62.22.46.59.78.97,1.08.41.27.66.68.92,1.07.12.37.41.6.71.82.4.28.66.68.91,1.08.04.27.24.41.45.54.39.29.66.68.9,1.09,3.5,4.44,6.83,9.01,9.84,13.79,2.27,3.59,4.24,7.37,6.35,11.06.38.25.37.73.6,1.07l.13.3c.52.28.35.93.69,1.3h0c.34.52.57,1.09.79,1.67,1.35,3.19,2.75,6.36,4.03,9.58,2.65,6.65,4.67,13.5,6.41,20.44.55.34.03.97.38,1.37-.02.37-.08.74.15,1.07.56.34.05.98.38,1.39.02.45-.12.92.19,1.32Z"/>
      <path class="cls-12" d="m126.13,94.18l.09.04.08-.06c.42-.32.96.02,1.4-.25l-.03.02c.5-.43,1.16.02,1.67-.3,2.25-.16,4.32-.97,6.43-1.66.47-.18.94-.35,1.42-.5,4-1.62,7.56-3.9,10.47-7.11.28-.33.58-.66.81-1.03,3.53-4.75,6.52-9.84,9.52-14.93,4.32-7.34,8.63-14.69,12.93-22.05,3.91-6.7,7.8-13.42,11.68-20.14,2.79-4.84,5.56-9.69,8.34-14.54.34-.41.49-.93.8-1.35,1.16-2.06,2.45-4.02,4.07-5.75.57-.65,1.17-1.26,1.83-1.82,1.35-1.19,2.9-2.01,4.66-2.42.9-.23,1.81-.23,2.71,0,.89.45,1.78.9,2.67,1.35.4.24.79.5,1.07.89l-.04-.04c.45.39.84.82,1.16,1.32,2.74,3.6,4.9,7.58,7.29,11.41,3.19,5.13,6.39,10.26,9.57,15.39,4.07,6.56,8.24,13.05,12.49,19.49,4.49,6.81,9.06,13.55,13.84,20.16,3.93,5.43,7.95,10.79,12.12,16.04.08.1.2.17.3.26.39.29.67.68.9,1.1.7,1.25,1.84,2.19,2.43,3.52.91,2.07.5,3.13-1.6,3.99-.72.23-1.45.24-2.17,0-2.48-.25-4.73-1.22-6.93-2.28-6.51-3.15-12.24-7.47-17.89-11.91-2.81-2.21-5.59-4.47-8.23-6.89-.32-.29-.65-.58-1.01-.82l-.87-.81c-.44-.35-.82-.78-1.3-1.09-.38-.36-.76-.72-1.14-1.07-.44-.36-.83-.78-1.3-1.1l-1.68-1.6c-.43-.37-.83-.78-1.29-1.11-.83-.8-1.67-1.6-2.5-2.41-.53-.44-.98-.98-1.56-1.38-1.28-1.25-2.56-2.5-3.85-3.76-1.49-1.29-2.74-2.84-4.27-4.09-1.97-1.97-3.94-3.94-5.91-5.91-.55-.43-.7-1.47-1.75-1.12-.78,2.23-1.59,4.45-2.08,6.77-.18.55-.25,1.13-.53,1.65-1.24,3.25-2.36,6.53-3.28,9.89-.15.5-.22,1.03-.59,1.44-.84,2.31-1.81,4.57-2.39,6.96-.18.48-.2,1.03-.6,1.42-.65,1.68-1.44,3.31-1.83,5.09-.2.47-.21,1.02-.6,1.4-1.12,2.67-2.29,5.32-3.17,8.09-.24.44-.19,1.02-.63,1.37-1.32,3.06-2.64,6.12-3.97,9.19-.16.38-.24.79-.51,1.12-.79,1.54-1.57,3.08-2.37,4.62-.42.81.18,1.22.63,1.71,3.17,3.52,5.64,7.44,6.92,12.04.11.38.24.75.35,1.13.55.37.07,1,.37,1.44.01.14.03.29.04.43.32.92-.07,1.9.23,2.82-.12.46-.15.92,0,1.38-.41.62.37,1.54-.51,2.03-.08-.09-.16-.19-.24-.28-.39-.53-.83-1.01-1.39-1.37-1.33-.99-2.8-1.7-4.39-2.15-.38-.34-.92.07-1.29-.3l-.07-.05-.07.05c-1.68-.18-3.35-.19-5.03,0h.02c-.5.37-1.14-.04-1.65.26l.03-.02c-.4.39-.97-.01-1.39.3-2.02.44-3.98,1.04-5.77,2.11-1.89,1.14-3.7,2.34-4.49,4.56-.24.39-.04,1.5-1.05.65-.76-1.35-1.59-2.66-2.67-3.78-.23-.33-.5-.62-.84-.84-1.37-1.3-3.06-2.03-4.78-2.71-2.78-.62-5.6-.3-8.4-.39-.48-.02-.98.16-1.43-.15l-.08-.05-.08.06c-1.19-.32-2.43.1-3.62-.23-.25-.01-.49-.02-.74-.04-.9-.34-1.88.14-2.77-.29l.02.02c-.61-.32-1.32.11-1.93-.26l-.08-.06-.09.04c-.46-.24-1,.04-1.45-.23-.14-.02-.28-.03-.42-.05-.46-.25-1.03.08-1.47-.27h.02c-.42-.28-.96.07-1.38-.25-3.06-.4-6.01-1.31-8.92-2.26-2.92-.96-5.81-1.97-8.81-2.63-.55-.27-1.2.11-1.73-.29l.03.02c-.52-.29-1.15.09-1.67-.25l-.09-.06-.1.04c-3.64-.33-7.28-.59-10.93-.27l.03-.02c-.8.43-1.71-.04-2.53.29l-.08-.04-.08.06c-.42.33-.97,0-1.4.25l.03-.02c-.4.42-.98.01-1.42.3-1.08.55-2.33.51-3.45,1-1.23.55-2.42,1.15-3.54,1.9-.38.39-.76.78-1.16,1.15-.46.32-.76.78-1,1.27-.45.51-.75.24-1.04-.18v.02c-.24-.9-.26-1.81.02-2.71.62-2.65,2.23-4.76,4.35-6.21,3.66-2.5,7.02-5.23,9.76-8.74.99-1.26,2.27-2.29,3.43-3.42.35-.27.7-.53,1.03-.83,4.18-3.81,9.43-5.17,14.72-6.45.34-.08.68-.2,1.02-.3.91-.28,1.85-.37,2.77-.53.08.05.14.04.21-.03.42-.3.96.04,1.38-.25h-.02c.5-.37,1.14.04,1.66-.26l-.03.02c.59-.44,1.33.04,1.93-.31.08.05.15.05.22-.02.45-.28,1,.01,1.45-.24Z"/>
      <path class="cls-9" d="m147.93,262.61c-1.68-.08-3.26-.64-4.81-1.17-4.86-1.65-9.68-3.42-13.95-6.37-.73-.51-1.42-1.09-2.12-1.63-.32-.3-.66-.57-1.02-.83-2.16-2.05-3.89-4.38-4.69-7.31-.1-.36-.09-.7-.13-1.04-.32-.4-.16-.87-.16-1.3,0-15.63,0-31.26,0-46.89q0-1.43,1.48-1.43c19.01,0,38.02,0,57.03,0q1.52,0,1.52,1.53c0,15.41,0,30.81,0,46.22,0,.44.11.9-.12,1.33-.73,3.43-2.37,6.37-4.9,8.8-.27.42-.68.67-1.08.93-2.08,1.69-4.42,2.98-6.72,4.31-.42.28-.94.32-1.37.56-3.54,1.48-7.1,2.88-10.8,3.9-.63.17-1.26.3-1.9.46-.71.3-1.48-.08-2.19.22l.02-.02c-.62.27-1.25.27-1.87,0l.02.02c-.7-.33-1.5.12-2.2-.27Z"/>
      <path class="cls-13" d="m85.72,65.76c-.57.29-.97.77-1.37,1.23-.26.42-.68.66-1.07.93-1.66,1.45-3.33,2.89-5,4.33-.4.34-.82.65-1.23.98-.29.4-.68.66-1.09.9-4.25,3.32-8.44,6.73-12.78,9.93-5.25,3.87-10.66,7.53-16.29,10.84-5.04,2.96-10.02,6.03-15.23,8.7-.43.26-.94.33-1.39.55-.98.37-1.97.75-2.95,1.12-.9.14-1.8.22-2.69,0-.89-.35-1.41-1.02-1.65-1.93-.17-.81-.18-1.62,0-2.43.07-.05.09-.12.04-.19.15-.61.44-1.16.76-1.7,4.63-6.5,9.3-12.96,13.87-19.5,6.4-9.14,12.59-18.43,18.64-27.81,5.46-8.47,10.79-17.02,15.93-25.68,2.69-4.53,5.43-9.03,7.85-13.72.33-.34.53-.78.77-1.18,1.21-2.45,2.67-4.66,5.42-5.64.4-.39.97.02,1.39-.29h-.02c1.44-.2,2.87-.36,4.29.11,2.26.61,3.54,2.34,4.58,4.21,3.17,5.67,6.2,11.4,9.37,17.07,2.68,4.8,5.52,9.51,8.2,14.31,4.45,7.93,9.12,15.73,13.83,23.51,2.81,4.64,5.79,9.17,8.7,13.75,1.51,2.37,3.04,4.73,4.6,7.07.37.56.31.87-.18,1.32-.84.77-1.89,1.12-2.83,1.68-.53.12-1.01.6-1.62.26-6.28-10-12.63-19.97-18.81-30.03-5.39-8.77-10.57-17.66-15.55-26.67-3.39-6.13-6.9-12.2-10.27-18.34-.75-1.37-1.38-2.61-3.22-2.33-.37.2-.79.28-1.12.54-1.89,3.15-3.78,6.31-5.68,9.45-1.65,2.72-3.28,5.45-4.99,8.13-2.34,3.67-4.75,7.3-7.13,10.95-3.45,5.32-6.9,10.64-10.35,15.96-3.99,6.16-8,12.3-11.93,18.49-.66,1.04-1.5,1.99-1.89,3.19-.08.25-.66.31-.28.73.29.32.62.04.87-.04,2.16-.69,4.36-1.31,6.46-2.17,4.55-1.86,9.14-3.65,13.51-5.95,6.62-3.49,12.9-7.46,18.47-12.48.69-.45,1.19-1.13,1.84-1.63.2-.26.41-.52.61-.78.5-.37.91-.84,1.37-1.25.22-.2.47-.47.76-.07,5.29,7.12,10.63,14.19,15.68,21.48,3.87,5.59,7.67,11.22,11.26,16.99.16.26.24.57.36.85-.36.51-.98.02-1.39.35-.97.28-1.94.57-2.92.85-.44.19-.89.15-1.34.02-6.79-10.09-13.46-20.26-21.11-29.72-1.47-1.82-1.45-1.84-2.99-.18-.27.41-.68.64-1.06.92Z"/>
      <path class="cls-2" d="m30.83,176.69c2.63,3.06,5.97,5.03,9.75,6.31.33.11.7.09,1.05.13.41.31.97-.07,1.38.28h-.01c.51.31,1.13-.08,1.64.25.26,0,.52.01.77.02.84.2,1.67.2,2.51,0,.26,0,.52,0,.77-.01.99-.21,1.98-.21,2.98,0,.35,0,.7.01,1.04.02.61.33,1.32-.08,1.93.25.17,0,.33.02.5.02.41.32,1.01-.13,1.39.33,4.88.86,9.08,3.47,13.56,5.34,2.39,1,4.86,1.84,7.5,1.9.7.35,1.5-.12,2.2.27h-.01c2.02.15,4.05.31,6.06-.1.7-.14,1.42.13,2.1-.17,3.09-.19,5.98-1.27,8.71-2.54,3.94-1.84,7.79-3.82,12.08-4.75.42-.34.98.03,1.41-.27.07.02.15.02.22-.01.6-.36,1.32.07,1.93-.27.17,0,.34,0,.51-.01,1.98-.21,3.96-.21,5.95,0,.17,0,.34,0,.51.01.51.32,1.13-.06,1.65.25.17,0,.33.02.5.03.41.33,1.01-.14,1.38.33,3.74.88,7.28,2.24,10.62,4.15.73.42,1.5.79,2.35.91-.2.75-.8.37-1.2.37-5.6.03-11.2.02-16.8.03-.48,0-.99-.12-1.45.13h0c-.29,2.35-.07,4.72-.13,7.08-.03,1.12-.05,2.24,0,3.35.04.8-.18,1.15-1.04,1.08-.52-.04-1.07-.14-1.58.11l-.11-.02-.11.02c-.42.33-.98-.03-1.41.26-3.04.54-5.67,2.1-8.41,3.4-4.02,1.9-8.26,3.12-12.63,3.91-.5.35-1.13-.07-1.64.27h.01c-.79.38-1.67-.09-2.46.27-.26,0-.52,0-.78.01-2.16.21-4.33.21-6.49,0-.35,0-.69-.01-1.04-.02-.71-.34-1.5.11-2.21-.27h0c-.5-.33-1.13.08-1.63-.26-3.62-.33-7.01-1.53-10.39-2.77-3.14-1.15-5.94-3.08-9.15-4.06-.51-.15-1.01-.32-1.51-.49-.51-.33-1.15.09-1.66-.28h.01c-1.54-.2-3.08-.2-4.63.01h.01c-.5.36-1.14-.07-1.64.27-.73.19-1.57.2-2.16.6-1.26.84-1.63-.06-2.1-.86-3.3-5.61-6.12-11.45-8.41-17.55-.85-2.26-1.96-4.41-2.47-6.79-.15-.3-.19-.53.28-.48Z"/>
      <path class="cls-2" d="m188.75,184.28c4.85.94,9.08,3.46,13.56,5.35,2.39,1,4.85,1.85,7.5,1.9.7.34,1.51-.12,2.21.27h-.01c1.9.2,3.81.2,5.71,0h-.01c.78-.4,1.67.09,2.45-.27,3.06-.26,5.91-1.31,8.66-2.58,3.31-1.52,6.5-3.32,10.09-4.16.69-.16,1.37-.37,2.05-.56.42-.32.97.04,1.4-.26.17-.01.34-.02.51-.03.43-.28.96.05,1.39-.24.16,0,.33,0,.49-.01,1.68-.31,3.38-.04,5.06-.14.57-.03,1.16.13,1.72-.12h-.01c1.15-.41,2.38.11,3.54-.27,3.69-.39,6.87-2.02,9.85-4.09.91-.63,1.71-1.41,2.57-2.12.38.17.49.43.28.81-2.52,6.95-5.64,13.63-9.35,20.02-.87,1.51-1.71,3.04-2.56,4.55-.25.44-.62.51-1.06.32-.98-.29-1.96-.57-2.95-.86-.43-.3-.97.06-1.4-.26l-.11-.02-.11.02c-1.55-.2-3.1-.21-4.65,0h0c-.5.35-1.14-.07-1.64.27-3.62.59-6.57,2.8-9.87,4.14-2.41.98-4.85,1.82-7.4,2.33-.74.15-1.36.76-2.18.57-.41.31-.95-.05-1.36.26h0c-.51.35-1.14-.06-1.66.26h-.12s-.11,0-.11,0c-.7.36-1.5-.08-2.2.26-.35,0-.7.01-1.05.02-2.07.21-4.14.21-6.22,0-.35,0-.7-.01-1.05-.02-.7-.34-1.5.1-2.2-.26l-.11-.02h-.11c-.52-.31-1.15.1-1.66-.25h.01c-.41-.31-.96.06-1.37-.26-2.5-.25-4.84-1.09-7.2-1.89-2.89-.98-5.6-2.38-8.33-3.72-1.18-.58-2.47-.96-3.7-1.44-.22-3.48-.03-6.96-.1-10.44-.01-.48.13-.98-.13-1.44-.46-.26-.97-.13-1.46-.13-7.12,0-14.24,0-21.36-.03-.39,0-.99.39-1.19-.36,2.57-.99,4.85-2.59,7.47-3.47,1.88-.63,3.81-1.13,5.72-1.69.42-.31.96.05,1.38-.26.17-.01.35-.02.52-.03.43-.26.96.05,1.38-.23.17,0,.33,0,.5-.01,2.07-.22,4.15-.22,6.22,0,.17,0,.33,0,.5.01.43.29.96-.04,1.39.24.17.01.34.02.52.03.4.33,1-.13,1.37.33Z"/>
      <path class="cls-2" d="m113.09,209.91c.26,0,.51-.01.77-.02.72-.19,1.44-.24,2.15.03l-.02-.02c.28.36.15.78.15,1.17,0,5.62.01,11.23,0,16.85,0,.5.23,1.11-.44,1.43-.53.01-1.06.02-1.59.03-.51.3-1.12-.08-1.63.25h0c-.41.33-.96-.05-1.37.27-4.32,1.1-7.95,3.84-12.18,5.12-2.92.89-5.84,1.8-8.89,2.18-.6.36-1.31-.08-1.91.27h.01c-1.5.33-3.03.13-4.54.12-2.09-.02-4.2.21-6.28-.13l-.11-.02-.11.02c-.52-.31-1.15.08-1.67-.25l-.12-.02h-.12c-.42-.29-.96.07-1.38-.24-1.42.03-2.15-1.1-3.09-1.85-2.05-1.63-4.13-3.23-5.89-5.18-.33-.29-.67-.57-1.03-.83-1.97-1.8-3.85-3.68-5.65-5.66-.26-.35-.53-.7-.83-1.03l-1.88-1.95c-.26-.36-.54-.71-.83-1.04-2.51-2.68-4.75-5.58-6.89-8.56-.19-.26-.79-.76.13-.95,1.26-.2,2.52-.21,3.78,0,.26,0,.52.01.77.02.7.34,1.5-.11,2.2.27h0c.41.31.95-.05,1.36.25,3.03.77,6.06,1.57,8.84,3.03,2.22,1.17,4.47,2.27,6.85,3.06,1.3.44,2.59,1.01,4.02.96.42.3.98-.07,1.39.27h-.01c.51.32,1.13-.08,1.64.26.16,0,.33,0,.49.01,2.37.2,4.74.21,7.12,0,.17,0,.33,0,.5-.01.51-.33,1.13.07,1.63-.26h-.01c.41-.33.96.04,1.38-.27,2.46-.35,4.78-1.18,6.96-2.3,3.99-2.05,8.07-3.82,12.48-4.73.42-.33.97.03,1.41-.26.07.02.15.02.22,0,.7-.37,1.5.07,2.21-.27Z"/>
      <path class="cls-2" d="m218.55,218.02c.08.02.15.02.23,0,.52-.35,1.15.05,1.68-.26.07.02.14.02.21-.01.41-.33.96.05,1.38-.27,2.6-.34,5.03-1.32,7.32-2.49,3.89-1.98,7.86-3.63,12.13-4.55.41-.32.95.05,1.37-.26h-.01c.79-.39,1.67.09,2.46-.27.26,0,.52-.01.78-.02,1.26-.21,2.52-.21,3.78,0,.95.27.23.66.04.94-1.73,2.5-3.63,4.88-5.62,7.18-1.81,2.09-3.67,4.15-5.51,6.22-1.16,1.37-2.42,2.64-3.79,3.79-1.02.76-1.87,1.69-2.72,2.63-.31.36-.69.62-1.07.89-1.89,1.6-3.79,3.21-5.68,4.81-.33.51-.93.39-1.39.58-.7.1-1.41.2-2.11.3-.51.32-1.13-.07-1.64.25h.01c-1.32.32-2.67.14-4,.12-2.27-.02-4.55.2-6.82-.12l-.11-.02-.11.02c-.52-.31-1.14.07-1.66-.25-.62-.13-1.3.14-1.87-.28-.42-.31-.97.06-1.38-.27-3.18-.48-6.16-1.63-9.12-2.81-3.05-1.21-5.82-3.09-9.02-3.95-.42-.26-.38-.67-.38-1.08,0-6.01,0-12.02,0-18.03,0-.22-.01-.45.18-.62.24,0,.48,0,.73,0,.42.3.96-.05,1.39.25,5.92,1.03,10.84,4.6,16.47,6.37,1.49.47,2.99.92,4.58.95.52.31,1.15-.08,1.67.26.08.03.16.03.24,0,2.46.21,4.91.21,7.37,0Z"/>
      <path class="cls-2" d="m112,238.03c.17,0,.34,0,.51-.01.92-.27,1.85-.04,2.78-.13.75-.07.87.3.88.95.03,1.82-.16,3.64.11,5.45-.02.08-.02.15,0,.22.33.42-.04.97.27,1.39.35,2.9,1.72,5.35,3.52,7.53,2.79,3.38,6.15,6.08,10.19,7.86-.21.46-.34.49-1.26.25l-.12-.02h-.12c-.42-.3-.97.07-1.39-.25-2.97-.3-5.83-1.11-8.71-1.82-5.67-1.41-11.19-3.29-16.59-5.52-5.21-2.15-10.26-4.63-15.12-7.54.25-.38.59-.44.93-.53.42-.32.96.04,1.38-.26,2.62-.27,5.05-1.22,7.36-2.35,3.9-1.91,7.8-3.77,12.07-4.68.41-.33.96.04,1.37-.27h-.01c.6-.37,1.32.08,1.92-.27Z"/>
      <path class="cls-12" d="m146.55,163.22c.01.23.02.47.03.7.34.92-.07,1.91.24,2.83l-.05.07.05.07c.35.44,0,1,.26,1.46.1,1.11.51,2.09,1.29,2.9.46.49.97.93,1.41,1.44.92.77,1.9,1.37,3.17,1.26.78.16,1.56.2,2.34,0,2.6-.27,4.87-2.24,5.65-4.89.07-.25.17-.49.26-.73.18-1.86.19-3.72,0-5.58,0-.15-.01-.3-.02-.45-.37-1.07.09-2.2-.26-3.27v.02c-.4-.55.09-1.25-.29-1.8-.71-2.17-1.77-4.06-3.92-5.12-.5-.25-1.04-.43-1.56-.64-.83-.26-1.66-.17-2.49-.03-1.76.17-3.25.9-4.47,2.18-.8.32-.63-.31-.66-.7-.07-.97.11-1.95-.12-2.91-.01-.24-.02-.47-.03-.71-.35-.98.08-2.02-.25-3.01l.02.02c-.29-1.08-.27-2.16,0-3.24-.06-.84.38-1.51.78-2.18.36-.51.81-.93,1.28-1.33.56-.27,1.13-.55,1.69-.82.99-.15,1.98-.29,2.95.09.53.25,1.07.5,1.6.75.39.17.66.45.84.83.48.96,1,1.9,1.23,2.97.62.66.02,1.52.38,2.23-.56.35-1.17.38-1.81.37-.84-.01-1.27-.37-1.4-1.24-.18-1.19-.33-2.45-1.68-3.01-.46-.26-.92-.16-1.39-.03-.56.28-1.2.49-1.3,1.25-.17,1.7-.18,3.41,0,5.11-.21,1.55.58,1.12,1.38.7.54-.34,1.18.03,1.72-.25.55,0,1.11,0,1.66,0,.45.29,1.05-.14,1.46.33,3.82,1.11,6,3.74,6.96,7.51.5.36.02.96.34,1.36v-.02c.41,1.08-.07,2.23.27,3.32,0,.15.01.31.02.46.36,1.01-.07,2.09.25,3.11l-.05.06.05.07c.26.99.27,1.98,0,2.97l.02-.02c-.28.43.06.96-.24,1.39-.77,1.93-1.48,3.87-3.09,5.35-1.46,1.34-3.15,2.05-5.02,2.49-1.35.22-2.71.23-4.06,0-3.34-.49-5.48-2.54-7-5.39-.27-.41-.29-.92-.57-1.32-.31-.21-.16-.56-.23-.84-.38-.41,0-.97-.28-1.4l.02.03c-.44-.9.05-1.89-.29-2.8,0-.23-.02-.47-.03-.7-.35-.98.08-2.02-.24-3.01l.02.02c-.44-1.15.06-2.38-.29-3.54l.02.02c-.46-1.18.07-2.43-.29-3.62,0-.23-.02-.46-.03-.7-.35-.98.08-2.03-.25-3.01l.02.02c-.45-1.18.07-2.43-.28-3.62l.05-.08-.05-.08c-.25-1.26-.27-2.52.01-3.78v.02c.27-.43-.07-.96.23-1.38-.02-.63.22-1.17.54-1.69.2-.32.3-.69.5-1,1.09-2.2,2.93-3.51,5.18-4.34.61-.36,1.32-.36,1.99-.51.15-.01.3-.03.44-.04.9-.2,1.8-.19,2.7,0,1.95.47,3.8,1.17,5.38,2.46.37.19.66.46.82.85.35.53.7,1.06,1.05,1.59.37.27.38.73.58,1.08.28.99.55,1.97.83,2.96.12.63.29,1.26-.08,1.87-.16.19-.32.39-.47.58-.46.25-1-.01-1.47.22-.32.17-.51-.05-.7-.24-.3-.54.04-1.17-.24-1.71-.21-.79-.36-1.6-.65-2.35-.78-2.03-2.3-3.31-4.31-4.04-.38-.34-.91.06-1.29-.28-.54-.16-1.08-.15-1.62,0-.44.33-.99-.01-1.44.26-1.69.51-3.14,1.35-3.98,2.99-.19.35-.26.76-.51,1.09-.31.28-.37.64-.31,1.03-.14,2.14-.3,4.27.1,6.41.22,1.14-.11,2.33.16,3.48.01.24.02.47.03.71.34,1-.07,2.07.24,3.07l-.05.08.06.08c.14,1.81.43,3.6.43,5.42,0,.49-.09.98.11,1.46Z"/>
      <path class="cls-12" d="m135.12,171.47c-.15.27-.3.53-.45.8-.16.39-.46.65-.82.85-.62.35-1.24.71-1.86,1.06-.99.26-1.99.25-2.99.01-2.14-.63-3.66-2.58-3.77-4.85-.37-.58.09-1.27-.28-1.85-.08-.68.54-.38.81-.58.45-.16.91-.32,1.33.08.43.3.88.56.85,1.22-.02.34.13.69.23,1.03.33,1.04.76,2.12,1.98,2.21,1.09.09,1.85-.67,2.37-1.61.25-1.62.19-3.25.03-4.88l.02.02c-.5-.2.29-1.16-.65-1.1-.38-.06-.72.04-1.02.29-1.82.21-3.63.35-5.41-.27-1.48-.46-2.73-1.27-3.77-2.42-.27-.36-.55-.71-.83-1.06-.73-1.19-1.45-2.39-1.63-3.81-.29-.42.04-.96-.24-1.38v.02c-.15-1.79-.43-3.58-.43-5.39,0-.48.11-.98-.11-1.45-.01-.24-.02-.49-.03-.73-.19-.63-.19-1.26,0-1.89.01-.23.03-.47.04-.7.25-.46-.06-1.01.25-1.46.89-3.72,3.11-6.18,6.82-7.24.25-.07.49-.2.73-.3,1.62-.23,3.24-.36,4.85.08,3.91,1.08,6.36,3.61,7.47,7.49.56.35.06.99.38,1.41-.06.07-.05.13.02.18.37.89-.08,1.85.26,2.74l-.02-.02c.45,1.17-.07,2.42.28,3.61l-.05.08.05.08c.39,1.1-.05,2.26.27,3.37,0,.14,0,.28.01.42.4,1.07-.09,2.21.26,3.28l-.02-.02c.45,1.17-.07,2.43.28,3.61.02.33.03.66.05.98.3.83-.07,1.72.22,2.56,0,.14,0,.27,0,.41.24,1.09.26,2.17,0,3.26-.39.46-.25,1.02-.27,1.54-.19.56-.13,1.21-.61,1.67-1.02,1.94-2.2,3.75-4.26,4.76-.33.49-.93.42-1.39.65-.34.1-.68.19-1.01.29-1.43.35-2.86.66-4.34.23-4.04-.42-7.29-3.56-8.11-7.53-.16-.69-.42-1.34-.41-2.08.03-1.75,1.02-2.43,2.81-1.88v-.07s-.06,0-.06,0c.56.55-.02,1.31.34,1.89l-.02-.03c.4.42.02.99.29,1.44.03,2.13,2.7,4.92,4.82,5.07,1.32.19,2.64.17,3.97,0,.75-.44,1.74-.38,2.33-1.13.58-.32.98-.83,1.38-1.34.68-.85.94-1.89,1.35-2.86.18-1.97.18-3.94,0-5.91,0-.14,0-.28,0-.41-.4-1.07.09-2.21-.26-3.28l.02.02c-.46-1.18.07-2.43-.29-3.61-.01-.24-.02-.47-.03-.71-.34-1,.08-2.06-.24-3.07l.05-.09-.06-.09c-.14-1.8-.43-3.59-.43-5.4,0-.48.1-.98-.11-1.45-.03-.52-.4-.98-.26-1.53-.27-.5-.22-1.12-.57-1.6-.78-1.84-2.19-3.03-3.96-3.85-1.31-.37-2.63-.54-3.98-.27-1.17.31-2.34.61-3.31,1.4-1.02.83-1.71,1.86-2.03,3.14-.57,2.34-.53,4.68-.14,7.05.17,1.01-.11,2.06.14,3.08l-.02-.03c.43.62,0,1.37.29,2.02.03,2.37,3.34,5.98,5.65,5.83.68.19,1.36.18,2.05,0l.09.05.08-.06c.41-.34.97.04,1.39-.27.74-.32,1.54-.51,2.13-1.11.51-.21.75-.75,1.21-1.03.13.26.27.52.4.77.13,1.8.42,3.59.42,5.4,0,.48-.1.98.11,1.45l-.05.09.05.09c.25.81.21,1.62.03,2.44-.01.14-.03.28-.04.42-.18.58-.11,1.25-.61,1.72Z"/>
      <path class="cls-12" d="m178.94,175.25c-.67,0-1.33,0-2,0-.53-.3-1.17.09-1.7-.26-3.09-.68-5.09-2.67-6.48-5.39-.25-.42-.29-.92-.55-1.32-.43-.29,0-.78-.26-1.11-.63-1.42-.26-2.95-.53-4.41-.01-.24-.02-.49-.04-.73-.32-.92.07-1.9-.23-2.82l.05-.07-.05-.08c-.15-1.84-.41-3.68-.44-5.54,0-.53.11-1.07-.11-1.59-.01-.24-.02-.49-.03-.73-.32-.92.07-1.91-.24-2.83l.05-.06-.05-.07c-.19-2.71-.85-5.41-.03-8.12.16-1.59.96-2.87,1.89-4.1.46-.58,1-1.09,1.55-1.58,1.2-1.02,2.69-1.38,4.13-1.89.52-.33,1.14.05,1.66-.25l-.02.02c.53-.28,1.07-.27,1.6,0h-.02c.52.29,1.14-.08,1.65.23,1.9.73,3.77,1.49,5.12,3.16,1.25,1.55,1.8,3.41,2.45,5.22.16.81.33,1.62-.1,2.41l-.97.56c-.54.17-1.08.32-1.59-.08l.06.06c-.52-.6,0-1.37-.33-2-.21-3.75-3-6.53-6.67-6.64-4.21-.13-7.23,2.44-7.67,6.54-.22,2.08.09,4.14.25,6.2.44,5.84.79,11.68,1.38,17.5.51,4.99,4.66,7.81,9.33,6.59,2.89-.75,4.98-3.07,5.24-6.18.29-3.51.07-7.06-.69-10.48-1.36-6.18-7.71-7.88-12.84-3.44-.07-.6-.16-1.11-.2-1.61-.18-2.38-.39-4.76-.52-7.14-.12-2.23.41-4.23,2.41-5.53,2.65-1.73,6.08-.72,7.41,2.15.24.53.41,1.08.62,1.63.4.61-.03,1.34.28,1.97,0,.15,0,.3,0,.45-.73.76-1.58.38-2.41.28-.18-.18-.35-.36-.53-.54-.34-.38.06-.91-.28-1.29-.24-.82-.42-1.67-1.17-2.22-.73-.26-1.47-.16-2.2-.04-.33.35-1.07.34-.96,1.09-.23,1.57-.19,3.14-.02,4.72,0,.15.01.3.02.45.32.25-.13,1.29.87.83.48.1.88-.14,1.31-.28,1.17-.22,2.35-.23,3.52,0,1.25.55,2.58.9,3.73,1.72,1.71,1.22,2.66,2.94,3.46,4.79.5.67.42,1.49.62,2.24l-.04.08.06.07c.38.91-.06,1.9.26,2.82,0,.14,0,.28.01.42.4,1.07-.09,2.21.26,3.28l-.02-.02c.37,1.73.22,3.44-.23,5.13-.62,1.35-.99,2.81-1.91,4.01-.31.6-.8,1.02-1.35,1.39-1.19,1.01-2.6,1.61-4.04,2.15-.53.36-1.18-.03-1.72.26Z"/>
      <path class="cls-2" d="m185.78,244.24c0-.17.01-.34.02-.51.28-1.41.08-2.83.12-4.25.04-1.48.16-1.57,1.74-1.1,5.24.88,9.83,3.47,14.6,5.58,1.96.86,4.01,1.54,6.19,1.65.43.29.98-.07,1.4.27h-.01c.09.31,1.41-.18.51.78-6.19,3.53-12.61,6.58-19.28,9.07-3.96,1.48-8.02,2.69-12.14,3.71-1.41.35-2.87.52-4.24,1.04-.39.13-.8.35-.99-.26,5.69-3.47,10.2-7.89,11.81-14.65.33-.39-.04-.92.26-1.32Z"/>
      <path class="cls-12" d="m117.35,177.29c-.66,1.88-1.71,2.33-2.92,1.24-.42-1.07.08-2.21-.27-3.29l.02.03c-.47-1.18.06-2.44-.29-3.63-.01-.32-.03-.64-.04-.96-.31-.92.07-1.9-.23-2.82l.05-.07-.05-.07c-.43-1.07.08-2.21-.27-3.29l.02.03c-.48-1.18.06-2.44-.29-3.63,0-.23-.02-.46-.02-.69-.35-1.01.07-2.08-.25-3.1l.05-.07-.05-.07c-.43-1.07.07-2.21-.27-3.29l.02.03c-.48-1.18.06-2.44-.3-3.63,0-.23-.01-.45-.02-.68-.36-.98.08-2.03-.25-3.01l.02.03c-.48-1.18.06-2.44-.29-3.63l.05-.06-.05-.07c-.46-.59.27-1.63-.43-1.92-.77-.32-1.74-.21-2.61,0l.03-.02c-1.18.46-2.44-.06-3.63.29-.23,0-.46.02-.69.02-.19.16-.43.18-.64.12-.6-.15-1.42.45-1.76-.66-.31-1.01-.02-1.64.82-2.13l-.03.02c.8-.46,1.72.04,2.53-.3.32-.01.65-.03.97-.04.92-.31,1.89.08,2.8-.23l.08.05.08-.05c.9-.26,1.81-.24,2.71-.01.6.37,1.2.73,1.79,1.1.44.23.42.71.62,1.08v-.02c.34.43-.01.99.26,1.44l-.05.09.05.09c.14,1.8.43,3.6.43,5.41,0,.49-.09.98.11,1.46.01.24.02.47.03.71.34.98-.08,2.02.24,3.01l-.02-.02c.18,1.84.38,3.69.44,5.54.02.53-.1,1.07.11,1.59.01.23.02.47.03.7.35.98-.08,2.02.24,3.01l-.02-.02c.44,1.15-.06,2.38.29,3.54l-.02-.02c.46,1.18-.07,2.43.29,3.62,0,.23.02.46.03.7.35.98-.08,2.03.25,3.01l-.02-.02c.46,1.18-.07,2.44.29,3.62Z"/>
      <path class="cls-12" d="m127.92,159.58c-.67-.04-1.23-.31-1.69-.8-.47-.4-.92-.82-1.28-1.32-.82-.94-1.08-2.07-1.09-3.28-.32-.92.08-1.89-.23-2.8l.05-.08-.05-.08c-.42-1.07.08-2.21-.27-3.29l.02.03c-.29-.99-.28-1.98,0-2.97.18-2.22,1.61-3.43,3.47-4.29,1.27-.39,2.53-.66,3.76.12,1.56.66,2.5,1.89,3.14,3.4.57.92.53,1.94.55,2.97,0,.48-.1.97.11,1.43l.02.44c.38,1.07-.09,2.21.26,3.28l-.02-.02c.21.99.41,1.98-.11,2.94-.4,1.85-1.42,3.23-3.11,4.1-1.14.51-2.32.5-3.51.24Z"/>
      <path class="cls-12" d="m159.53,165.13c0,.84,0,1.68,0,2.51-.22.64-.03,1.41-.62,1.93l-.45.8c-.16.38-.46.64-.81.84-.69.27-1.1,1.01-1.89,1.11-1.08.15-2.16.21-3.24-.03-2.37-.75-3.48-2.49-3.77-4.86-.3-2.19-.38-4.39-.53-6.59-.01-.24-.02-.48-.03-.72-.2-.72-.21-1.44,0-2.16,0-1.07.35-1.99,1.08-2.77.31-.37.65-.71,1.02-1.02.56-.27,1.12-.54,1.68-.81.99-.21,1.98-.21,2.98,0,2.35.92,3.52,2.77,4.04,5.13.4.98-.07,2.03.26,3.02l-.02-.03c.47,1.18-.06,2.44.29,3.63Z"/>
      <path class="cls-12" d="m183.33,164.24c.14,4.47-2.97,7.27-6.78,6.19-2.13-.6-3.37-2.11-3.72-4.2-.52-3.11-.73-6.26-.75-9.4-.01-3,2.06-5.09,4.88-5.31,2.72-.21,4.98,1.55,5.63,4.39.07.31.15.62.17.93.2,2.51.38,5.02.56,7.41Z"/>
      <path class="cls-12" d="m104.55,145.51c-1.99.08-2.18-.09-2.3-2.13.09-.78.82-.18,1.11-.52l-.03.02c1.18-.46,2.43.07,3.61-.29.33-.01.65-.03.98-.04.29-.17.61-.08.91-.12.86-.12,1.22.19,1.13,1.1-.06.52-.11,1.06.1,1.58l-.05.08.05.08c.16,1.81.36,3.61.43,5.43.02.49-.08.99.11,1.46.01.32.03.64.04.96.31.92-.07,1.9.23,2.82l-.05.07.05.07c.17,1.81.36,3.61.43,5.43.02.49-.08.99.11,1.47,0,.23.02.46.02.68.36,1.01-.07,2.09.25,3.1l-.05.07.05.07c.15,1.84.41,3.68.44,5.54,0,.53-.11,1.07.11,1.59,0,.15.01.3.02.45.29,1.28.01,2.61.39,3.89.18.61-.24.86-.78.95l-.07-.05-.07.05c-.45.22-.9.31-1.34-.04l.04.02c-.43-.11-.67-.42-.85-.8l.02.03c-.43-.71.04-1.54-.29-2.27-.01-.23-.02-.47-.03-.7-.35-.98.08-2.02-.24-3.01l.02.02c-.44-1.15.06-2.38-.28-3.54l.02.03c-.47-1.18.06-2.43-.29-3.62,0-.23-.02-.46-.03-.69-.35-.98.08-2.03-.25-3.01l.02.02c-.45-1.15.06-2.38-.29-3.54l.02.03c-.47-1.18.06-2.44-.29-3.63,0-.23-.02-.46-.02-.69-.36-.98.08-2.03-.25-3.01l.02.03c-.46-1.18.06-2.44-.29-3.62l.05-.07-.05-.07q-.4-1.96-2.58-1.66Z"/>
      <path class="cls-7" d="m180.93,243.7c0-15.77,0-31.54.05-47.31,0-1.31-.34-1.63-1.64-1.62-18.88.04-37.76.05-56.65,0-1.33,0-1.61.36-1.61,1.64.05,14.87.03,29.74.03,44.61,0,1.08.05,2.16.07,3.24-.49-.37-.3-.91-.3-1.38,0-15.63,0-31.27-.03-46.9,0-1.19.31-1.52,1.51-1.51,19.1.04,38.21.04,57.31,0,1.31,0,1.54.43,1.54,1.62-.03,15.41-.02,30.82-.03,46.23,0,.47.18,1-.26,1.4Z"/>
      <path class="cls-7" d="m161.79,189.36c.42.53,1,.29,1.51.29,7.02.02,14.05,0,21.07.02.48,0,1-.17,1.42.22-7.72,0-15.44,0-23.16,0-.36,0-.8.1-1.06-.06-.57-.36-.07-.4.21-.46Z"/>
      <path class="cls-7" d="m116.28,189.88c.43-.37.94-.21,1.42-.21,5.51-.01,11.02,0,16.53-.02.5,0,1.09.24,1.5-.3.22.02.54,0,.57.25.06.47-.36.27-.56.27-1.89.02-3.79.01-5.68.01-4.6,0-9.19,0-13.79,0Z"/>
      <path class="cls-7" d="m186.11,210.17c-.02,6.28-.04,12.56-.05,18.84,0,.3.16.6.24.89-.58-.09-.51-.53-.51-.93,0-5.99,0-11.98,0-17.97,0-.32-.02-.64.32-.83Z"/>
      <path class="cls-7" d="m115.71,229.35c.39-.46.29-1.02.29-1.55,0-5.97,0-11.93,0-17.9.49.37.29.91.29,1.38.01,5.56.02,11.12,0,16.68,0,.49.37,1.24-.57,1.39Z"/>
      <path class="cls-7" d="m155.33,273.2c-3.14.44-6.29.25-9.44.25-1.61,0-3.24.12-4.84-.25,4.76,0,9.52,0,14.27,0Z"/>
      <path class="cls-7" d="m113.55,201.5c.16-.07.32-.18.49-.2q1.98-.25,1.99-2.22c0-2.65,0-5.3,0-7.95,0-.42-.18-.91.26-1.25,0,3.27,0,6.55,0,9.82q0,1.82-1.81,1.82c-.31,0-.63-.01-.94-.02Z"/>
      <path class="cls-7" d="m185.79,189.88c.39.31.24.74.24,1.13,0,3.59,0,7.17,0,10.76-.4-.42-.23-.94-.23-1.41-.01-3.49,0-6.98,0-10.48Z"/>
      <path class="cls-7" d="m97.87,118.47c3.66-.48,7.3-.31,10.93.27-3.64-.09-7.29-.18-10.93-.27Z"/>
      <path class="cls-7" d="m77.35,237.46c3.61,0,7.21,0,10.82,0-.21.31-.53.29-.84.29-3.04,0-6.09,0-9.13,0-.31,0-.63.01-.85-.28Z"/>
      <path class="cls-7" d="m209.58,237.47c3.61,0,7.21,0,10.82,0-.21.31-.53.29-.84.29-3.04,0-6.08,0-9.13,0-.31,0-.63.02-.85-.28Z"/>
      <path class="cls-3" d="m121.94,153.69c-.28-3.38-1.2-6.75,0-10.13-.66,3.38.16,6.75,0,10.13Z"/>
      <path class="cls-7" d="m145.74,152.4c-.29-3.29-1.03-6.57-.26-9.89-.2,3.31.43,6.59.26,9.89Z"/>
      <path class="cls-7" d="m116.28,244.28c-.52-1.67-.22-3.38-.23-5.07-.01-.95-.3-1.29-1.24-1.21-.76.07-1.53.01-2.29.02,1.06-.55,2.2-.21,3.3-.22.56,0,.48.55.48.94,0,1.85,0,3.7-.01,5.54Z"/>
      <path class="cls-7" d="m144.14,125.76c2.98.05,5.98-.12,8.95.28.3.04.59.17.88.27-3.08-.36-6.17-.2-9.26-.26-.19,0-.38-.18-.57-.28Z"/>
      <path class="cls-7" d="m166.32,140.13c-.5,2.71.05,5.41.03,8.12-.42-2.71-1.08-5.41-.03-8.12Z"/>
      <path class="cls-7" d="m281.28,127.06c.43,2.81.59,5.64.53,8.48-.09-.19-.28-.39-.27-.58.18-2.64-.46-5.26-.26-7.9Z"/>
      <path class="cls-7" d="m87.93,191.52c-2.7.61-5.42.77-8.16.27,2.72.07,5.44-.1,8.16-.27Z"/>
      <path class="cls-7" d="m211.21,54.91c1.63,1.15,2.95,2.62,4.27,4.09-1.72-1.05-2.95-2.62-4.27-4.09Z"/>
      <path class="cls-7" d="m218.55,218.02c-2.46.44-4.91.43-7.37,0,2.46,0,4.91,0,7.37,0Z"/>
      <path class="cls-7" d="m235,228.01c1.26-1.26,2.53-2.53,3.79-3.79-.93,1.6-2.19,2.86-3.79,3.79Z"/>
      <path class="cls-7" d="m187.67,238.38c-1.35-.39-1.71.17-1.66,1.49.05,1.28.28,2.6-.21,3.86,0-1.47-.02-2.94,0-4.41,0-1.45.49-1.69,1.87-.94Z"/>
      <path class="cls-7" d="m166.62,151.94c.35,2.36.52,4.74.55,7.12-.52-1.57-.37-3.23-.55-4.84-.09-.75,0-1.52,0-2.28Z"/>
      <path class="cls-7" d="m123.02,167.27c-2.57-.09-3.02.42-2.55,2.91.07.35.1.7.15,1.05-.73-.93-.61-2.04-.49-3.08.13-1.09,1.73-1.53,2.89-.87Z"/>
      <path class="cls-7" d="m112.21,174.01c-.35-2.36-.51-4.74-.55-7.12.53,1.57.37,3.23.56,4.84.09.75,0,1.52,0,2.28Z"/>
      <path class="cls-7" d="m116,159.17c-.36-2.36-.52-4.74-.55-7.13.6,1.38.26,2.88.54,4.31.18.91.02,1.88,0,2.82Z"/>
      <path class="cls-7" d="m115.19,148.35c-.36-2.28-.5-4.57-.53-6.87.53,2.26.62,4.56.53,6.87Z"/>
      <path class="cls-3" d="m135.74,166.72c-.35-2.27-.5-4.56-.53-6.86.51,2.26.61,4.55.53,6.86Z"/>
      <path class="cls-7" d="m146.55,163.22c-.36-2.28-.5-4.57-.53-6.87.53,2.26.62,4.56.53,6.87Z"/>
      <path class="cls-7" d="m86.32,218.02c-2.37.44-4.74.44-7.11,0,2.37,0,4.74,0,7.11,0Z"/>
      <path class="cls-7" d="m111.4,162.97c-.36-2.28-.52-4.58-.54-6.89.48,1.74.46,3.53.56,5.3.03.53-.01,1.06-.02,1.59Z"/>
      <path class="cls-7" d="m110.59,152.15c-.35-2.28-.52-4.58-.54-6.89.47,2.27.64,4.57.54,6.89Z"/>
      <path class="cls-3" d="m136.06,146.26c.36,2.27.5,4.56.54,6.85-.53-2.26-.62-4.55-.54-6.85Z"/>
      <path class="cls-7" d="m118.48,148.43c.35,2.26.48,4.55.55,6.84-.48-1.66-.53-3.38-.57-5.09-.02-.58.01-1.16.02-1.74Z"/>
      <path class="cls-7" d="m148.23,160.85c.35,2.18.48,4.38.53,6.59-.54-2.17-.61-4.37-.53-6.59Z"/>
      <path class="cls-7" d="m251.52,183.4c-2.24.49-4.52.13-6.78.27.91-.59,1.92-.21,2.88-.26,1.3-.07,2.6-.01,3.9,0Z"/>
      <path class="cls-7" d="m15.13,154.01c-.4-2.09-.55-4.2-.54-6.32.43,2.09.65,4.19.54,6.32Z"/>
      <path class="cls-7" d="m14.36,138.5c-.06-2.21-.11-4.41.23-6.6,0,1.87.02,3.74.02,5.61,0,.35.07.72-.26.99Z"/>
      <path class="cls-7" d="m79.52,209.63c2.16,0,4.33,0,6.49,0-2.16.45-4.33.44-6.49,0Z"/>
      <path class="cls-7" d="m184.98,183.67c-2.07,0-4.15,0-6.22,0,2.07-.44,4.15-.45,6.22,0Z"/>
      <path class="cls-7" d="m211.75,209.63c2.07,0,4.14,0,6.22,0-2.07.43-4.14.44-6.22,0Z"/>
      <path class="cls-7" d="m102.82,138.27c-.22.27-.51.51-.64.82-.49,1.18.03,1.89,1.29,1.84.31-.01.62,0,.93,0-.89.26-1.87.84-2.49-.38-.53-1.06-.17-1.84.91-2.29Z"/>
      <path class="cls-7" d="m118.73,183.66c-1.98,0-3.96,0-5.95,0,1.98-.45,3.96-.44,5.95,0Z"/>
      <path class="cls-7" d="m14.59,147.53c-.33-2.01-.29-4.03-.23-6.05.55,2,.14,4.03.23,6.05Z"/>
      <path class="cls-7" d="m125.49,163.91c1.79.4,3.6.44,5.41.27-1.83.43-3.65.61-5.41-.27Z"/>
      <path class="cls-7" d="m111.84,179.31c.6-.16.66-.56.61-1.12-.11-1.24-.15-2.48-.22-3.72.49,1.36.28,2.81.52,4.21.12.66-.43.67-.91.63Z"/>
      <path class="cls-7" d="m281.82,136.76c.23,1.97.25,3.94,0,5.91,0-1.97,0-3.94,0-5.91Z"/>
      <path class="cls-7" d="m217.72,191.79c-1.9.4-3.81.39-5.71,0,1.9,0,3.81,0,5.71,0Z"/>
      <path class="cls-3" d="m137.41,164.34c.32,1.97.57,3.94,0,5.91,0-1.97,0-3.94,0-5.91Z"/>
      <path class="cls-7" d="m187.95,167.44c.27-1.7.28-3.41.23-5.13.55,1.74.51,3.45-.23,5.13Z"/>
      <path class="cls-7" d="m161.21,162.76c.31,1.86.54,3.72,0,5.58,0-1.86,0-3.72,0-5.58Z"/>
      <path class="cls-7" d="m164.53,272.39c-1.64.37-3.3.54-4.98.53,1.63-.44,3.29-.64,4.98-.53Z"/>
      <path class="cls-7" d="m176.57,125.78c1.67-.38,3.35-.41,5.03,0-1.67,0-3.35,0-5.03,0Z"/>
      <path class="cls-7" d="m131.14,136.18c-1.61-.38-3.23-.16-4.85-.08,1.62-.45,3.24-.61,4.85.08Z"/>
      <path class="cls-7" d="m108.69,140.64c.26-.06.51-.16.77-.18q2.3-.21,2.27,2.11c-.08-2.12-1.56-2.03-3.04-1.93Z"/>
      <path class="cls-7" d="m281.81,143.91c.03,1.64.09,3.28-.26,4.91.1-1.63-.34-3.3.26-4.91Z"/>
      <path class="cls-7" d="m150.34,148.09c-.24-1.7-.65-3.4,0-5.11,0,1.7,0,3.41,0,5.11Z"/>
      <path class="cls-7" d="m147.42,150.03c.32.89.16,1.83.3,2.74.05.32-.2.87.48.87-.04.21-.05.49-.36.42-.37-.08-.44-.41-.44-.72,0-1.1.01-2.2.02-3.31Z"/>
      <path class="cls-7" d="m132.55,164.97c.21,1.63.69,3.25-.03,4.88,0-1.63.02-3.25.03-4.88Z"/>
      <path class="cls-7" d="m245.54,201.5c1.55-.41,3.1-.4,4.65,0-1.55,0-3.1,0-4.65,0Z"/>
      <path class="cls-7" d="m47.32,201.5c1.54-.4,3.08-.41,4.62,0-1.54,0-3.08,0-4.62,0Z"/>
      <path class="cls-7" d="m174.14,145.9c-.24-1.57-.58-3.15.02-4.72,0,1.57-.01,3.14-.02,4.72Z"/>
      <path class="cls-7" d="m110.05,145.1c-.05-.21-.17-.44-.15-.64.17-1.52-.39-2.24-1.99-1.92,1.83-.62,2.16-.41,2.16,1.36,0,.4-.02.8-.03,1.2Z"/>
      <path class="cls-7" d="m167.43,162.76c.18,1.47.35,2.94.53,4.41-.84-1.39-.5-2.92-.53-4.41Z"/>
      <path class="cls-3" d="m134.39,148.61c-.39-1.44-.14-2.97-.65-4.4,1.13,1.33.54,2.92.65,4.4Z"/>
      <path class="cls-7" d="m128.72,178.76c1.45.05,2.9-.04,4.34-.23-1.42.64-2.85.84-4.34.23Z"/>
      <path class="cls-7" d="m281,154.99c0,1.4-.19,2.77-.55,4.12-.08-1.41.05-2.79.55-4.12Z"/>
      <path class="cls-7" d="m91.93,5.32c-1.42-.29-2.86-.09-4.29-.1,1.44-.44,2.88-.61,4.29.1Z"/>
      <path class="cls-3" d="m130.6,140.81c-1.24-.46-2.5-.27-3.76-.12,1.28-.68,2.54-.88,3.76.12Z"/>
      <path class="cls-3" d="m127.28,139.02c1.36-.41,2.69-.34,3.98.27-1.33-.09-2.65-.18-3.98-.27Z"/>
      <path class="cls-7" d="m104.55,145.51c.22-.06.43-.14.65-.16q1.96-.22,1.93,1.82c-.19-1.6-1.26-1.82-2.58-1.66Z"/>
      <path class="cls-7" d="m151.99,176.89c1.35,0,2.71,0,4.06,0-1.35.45-2.71.46-4.06,0Z"/>
      <path class="cls-7" d="m142.29,143.11c0,1.26,0,2.52-.01,3.78-.47-1.26-.49-2.52.01-3.78Z"/>
      <path class="cls-7" d="m51.66,209.89c-1.26,0-2.52,0-3.78,0,1.26-.42,2.52-.43,3.78,0Z"/>
      <path class="cls-7" d="m249.88,209.89c-1.26,0-2.52,0-3.78,0,1.26-.43,2.52-.43,3.78,0Z"/>
      <path class="cls-7" d="m89.23,54.2c-.5-.3-.67.16-.94.4-.37.35-.61.85-1.2.92.31-.66.92-1.06,1.4-1.57.39-.41.6-.18.73.25Z"/>
      <path class="cls-3" d="m127.92,159.58c1.18.08,2.36.04,3.51-.24-1.12.8-2.31.69-3.51.24Z"/>
      <path class="cls-7" d="m132.35,175.58c-1.32.44-2.64.46-3.97,0,1.32,0,2.64,0,3.97,0Z"/>
      <path class="cls-7" d="m179.85,146.9c-1.17,0-2.35,0-3.52,0,1.17-.45,2.35-.46,3.52,0Z"/>
      <path class="cls-7" d="m159.53,165.13c-.34-1.19-.28-2.41-.29-3.63.66,1.16.18,2.42.29,3.63Z"/>
      <path class="cls-7" d="m107.13,147.31c.33,1.19.28,2.41.29,3.62-.65-1.16-.18-2.42-.29-3.62Z"/>
      <path class="cls-7" d="m139.52,151.58c-.32-1.18-.28-2.4-.28-3.61.64,1.16.17,2.4.28,3.61Z"/>
      <path class="cls-7" d="m117.35,177.29c-.33-1.19-.28-2.41-.29-3.62.65,1.16.18,2.42.29,3.62Z"/>
      <path class="cls-7" d="m113.89,171.64c.34,1.19.28,2.41.29,3.63-.66-1.16-.18-2.42-.29-3.63Z"/>
      <path class="cls-7" d="m112.26,150c.34,1.19.28,2.42.3,3.63-.67-1.16-.18-2.42-.3-3.63Z"/>
      <path class="cls-7" d="m255.04,183.13c-1.15.5-2.36.21-3.54.28,1.14-.63,2.36-.13,3.54-.28Z"/>
      <path class="cls-7" d="m14.58,131.75c-.01-1.19-.06-2.39.28-3.56-.1,1.19.35,2.41-.28,3.56Z"/>
      <path class="cls-7" d="m189.04,129.87c.76-.53.13-1.41.51-2.03.05.65.08,1.31.15,1.96.02.23.12.46-.18.53-.35.09-.44-.18-.49-.46Z"/>
      <path class="cls-7" d="m197.62,2.75c-.52.7-1.13,1.3-1.83,1.82.35-.87.95-1.48,1.83-1.82Z"/>
      <path class="cls-7" d="m108.75,169.03c.33,1.16.28,2.35.28,3.54-.64-1.14-.18-2.36-.28-3.54Z"/>
      <path class="cls-7" d="m116.81,169.99c-.33-1.19-.28-2.41-.29-3.62.65,1.16.18,2.42.29,3.62Z"/>
      <path class="cls-7" d="m108.48,165.43c.33,1.19.28,2.41.29,3.62-.66-1.16-.18-2.42-.29-3.62Z"/>
      <path class="cls-7" d="m111.72,142.7c.34,1.19.28,2.41.29,3.63-.66-1.16-.18-2.42-.29-3.63Z"/>
      <path class="cls-7" d="m140.36,125.54c1.21-.01,2.42-.02,3.62.23-1.2-.08-2.44.29-3.62-.23Z"/>
      <path class="cls-7" d="m113.08,160.82c.34,1.19.28,2.41.29,3.63-.66-1.16-.18-2.42-.29-3.63Z"/>
      <path class="cls-7" d="m106.94,142.59c-1.19.33-2.4.28-3.61.29,1.16-.65,2.41-.18,3.61-.29Z"/>
      <path class="cls-7" d="m142.82,154.34c.33,1.19.28,2.41.29,3.62-.65-1.16-.18-2.42-.29-3.62Z"/>
      <path class="cls-7" d="m107.67,154.61c.33,1.19.28,2.41.29,3.63-.65-1.16-.18-2.42-.29-3.63Z"/>
      <path class="cls-7" d="m116.54,166.39c-.34-1.16-.28-2.35-.29-3.54.65,1.14.17,2.36.29,3.54Z"/>
      <path class="cls-3" d="m136.87,157.06c.33,1.19.28,2.4.29,3.61-.65-1.16-.17-2.41-.29-3.61Z"/>
      <path class="cls-7" d="m143.09,157.94c.34,1.16.28,2.35.29,3.54-.64-1.14-.17-2.36-.29-3.54Z"/>
      <path class="cls-7" d="m107.94,158.21c.34,1.16.28,2.35.29,3.54-.65-1.14-.18-2.36-.29-3.54Z"/>
      <path class="cls-7" d="m140.33,162.4c-.32-1.19-.27-2.4-.28-3.61.64,1.16.18,2.41.28,3.61Z"/>
      <path class="cls-7" d="m105.08,140.91c1.19-.33,2.41-.28,3.63-.29-1.16.65-2.42.18-3.63.29Z"/>
      <path class="cls-7" d="m142.28,147.05c.33,1.19.28,2.4.28,3.61-.65-1.16-.18-2.41-.28-3.61Z"/>
      <path class="cls-7" d="m16.48,163.42c-.37-.97-.5-1.99-.52-3.02.47.95.62,1.96.52,3.02Z"/>
      <path class="cls-7" d="m114.16,175.24c.34,1.08.26,2.18.27,3.29-.62-1.05-.16-2.19-.27-3.29Z"/>
      <path class="cls-7" d="m281.56,148.79c0,1.13.05,2.26-.29,3.35.12-1.12-.39-2.28.29-3.35Z"/>
      <path class="cls-3" d="m123.35,147.93c.33,1.08.26,2.19.27,3.29-.63-1.05-.16-2.19-.27-3.29Z"/>
      <path class="cls-7" d="m152.53,172.3c1.08.01,2.16.02,3.24.03-1.08.37-2.17.42-3.24-.03Z"/>
      <path class="cls-3" d="m134.66,152.33c-.31-1.07-.27-2.18-.26-3.28.58,1.05.16,2.19.26,3.28Z"/>
      <path class="cls-7" d="m203.55,47.88c.08-.33.2-.68.58-.27.41.44,1.01.74,1.17,1.39-.66-.25-.93-1.11-1.75-1.12Z"/>
      <path class="cls-7" d="m51.39,232.09c-.58-.63-1.16-1.25-1.74-1.88.83.4,1.51.93,1.74,1.88Z"/>
      <path class="cls-7" d="m139.79,155.12c-.32-1.1-.27-2.24-.27-3.37.62,1.08.16,2.25.27,3.37Z"/>
      <path class="cls-7" d="m112.54,153.61c.34,1.08.26,2.19.27,3.29-.64-1.05-.17-2.2-.27-3.29Z"/>
      <path class="cls-7" d="m140.61,169.61c0-1.09,0-2.17,0-3.26.46,1.09.47,2.17,0,3.26Z"/>
      <path class="cls-7" d="m140.07,158.82c-.32-1.07-.27-2.18-.26-3.28.59,1.05.16,2.19.26,3.28Z"/>
      <path class="cls-7" d="m164.13,161.03c-.31-1.09-.26-2.21-.28-3.32.66,1.06.16,2.22.28,3.32Z"/>
      <path class="cls-7" d="m113.35,164.43c.34,1.08.26,2.19.27,3.29-.63-1.05-.17-2.19-.27-3.29Z"/>
      <path class="cls-7" d="m86.49,56.3c-.49.68-1.02,1.32-1.84,1.63.51-.66.97-1.38,1.84-1.63Z"/>
      <path class="cls-7" d="m160.93,159.03c.3,1.07.27,2.17.26,3.27-.57-1.05-.16-2.18-.26-3.27Z"/>
      <path class="cls-7" d="m147.15,143.09c0,1.08,0,2.16,0,3.24-.5-1.08-.48-2.16,0-3.24Z"/>
      <path class="cls-7" d="m188.2,162.33c-.32-1.08-.27-2.18-.26-3.28.59,1.05.16,2.19.26,3.28Z"/>
      <path class="cls-3" d="m137.14,160.64c.33,1.08.27,2.18.26,3.28-.59-1.05-.16-2.19-.26-3.28Z"/>
      <path class="cls-7" d="m143.36,161.46c.3.98.27,2,.24,3.01-.56-.96-.15-2.01-.24-3.01Z"/>
      <path class="cls-7" d="m164.4,164.59c-.29-1.02-.28-2.06-.25-3.11.56,1,.17,2.07.25,3.11Z"/>
      <path class="cls-7" d="m116.27,162.88c-.3-.98-.27-2-.24-3.01.56.96.15,2.01.24,3.01Z"/>
      <path class="cls-7" d="m153.86,138.85c-.98-.27-1.97-.1-2.95-.09,1-.37,1.98-.53,2.95.09Z"/>
      <path class="cls-7" d="m108.21,161.73c.3.98.27,2,.25,3.01-.57-.96-.15-2.01-.25-3.01Z"/>
      <path class="cls-7" d="m111.67,166.76c-.29-1.02-.28-2.06-.25-3.1.55,1,.17,2.07.25,3.1Z"/>
      <path class="cls-7" d="m179.3,144.18c.8-.1,1.65.22,2.41-.28-.37.68-1.12.77-2.41.28Z"/>
      <path class="cls-7" d="m119.33,95.26c-.9.31-1.82.49-2.77.53.85-.55,1.8-.59,2.77-.53Z"/>
      <path class="cls-7" d="m112.81,157.04c.28,1.02.27,2.06.25,3.1-.55-1-.17-2.07-.25-3.1Z"/>
      <path class="cls-7" d="m164.39,167.7c0-.99,0-1.98,0-2.97.48.99.51,1.98,0,2.97Z"/>
      <path class="cls-3" d="m123.37,144.98c0,.99,0,1.98,0,2.97-.53-.99-.5-1.98,0-2.97Z"/>
      <path class="cls-7" d="m51.66,183.66c-.99,0-1.98,0-2.98,0,.99-.44,1.98-.44,2.98,0Z"/>
      <path class="cls-3" d="m136.6,153.28c.27,1.01.27,2.04.24,3.07-.54-.99-.16-2.04-.24-3.07Z"/>
      <path class="cls-7" d="m154.96,153.38c-.99,0-1.98,0-2.98,0,.99-.44,1.98-.44,2.98,0Z"/>
      <path class="cls-7" d="m146.01,156.18c-.27-1.01-.27-2.04-.24-3.07.54.99.17,2.05.24,3.07Z"/>
      <path class="cls-3" d="m134.54,155.24c.24-.97.01-1.96.11-2.94.44,1,.61,1.98-.11,2.94Z"/>
      <path class="cls-7" d="m112,146.31c.31.99.26,2,.25,3.01-.57-.96-.16-2.01-.25-3.01Z"/>
      <path class="cls-7" d="m169.77,134.45c-.52.53-1.03,1.05-1.55,1.58.25-.79.78-1.3,1.55-1.58Z"/>
      <path class="cls-7" d="m147.14,146.31c.3.98.26,2,.25,3.01-.56-.96-.15-2.01-.25-3.01Z"/>
      <path class="cls-7" d="m24.63,105.28c.9,0,1.8,0,2.69,0-.9.31-1.8.62-2.69,0Z"/>
      <path class="cls-7" d="m129,174.18c1,0,1.99,0,2.99-.01-.99.5-1.99.48-2.99.01Z"/>
      <path class="cls-7" d="m107.4,150.91c.31.98.26,2,.25,3.01-.57-.96-.16-2.01-.25-3.01Z"/>
      <path class="cls-7" d="m142.55,150.64c.31.98.26,2,.25,3.01-.57-.96-.15-2.01-.25-3.01Z"/>
      <path class="cls-7" d="m109.02,172.54c.3.98.27,2,.24,3.01-.56-.96-.15-2.01-.24-3.01Z"/>
      <path class="cls-7" d="m139.82,273.16c-1.01.03-2.02.06-3-.24,1,.1,2.04-.31,3,.24Z"/>
      <path class="cls-7" d="m159.39,272.93c-1.01.28-2.04.27-3.07.23.99-.53,2.05-.16,3.07-.23Z"/>
      <path class="cls-7" d="m115.46,152.06c-.3-.98-.27-2-.24-3.01.56.96.15,2,.24,3.01Z"/>
      <path class="cls-7" d="m117.08,173.69c-.31-.98-.26-2-.25-3.01.57.96.15,2.01.25,3.01Z"/>
      <path class="cls-7" d="m159.26,161.53c-.33-.98-.24-2.01-.26-3.02.59.96.18,2.01.26,3.02Z"/>
      <path class="cls-7" d="m187.93,158.63c-.3-.92-.25-1.88-.26-2.82.59.89.16,1.88.26,2.82Z"/>
      <path class="cls-7" d="m111.97,137.71c-.9,0-1.81,0-2.71.01.9-.47,1.81-.45,2.71-.01Z"/>
      <path class="cls-7" d="m166.35,148.38c.29.93.26,1.88.24,2.83-.55-.91-.15-1.89-.24-2.83Z"/>
      <path class="cls-7" d="m57.58,238.14l-1.61-1.47c.84.16,1.29.74,1.61,1.47Z"/>
      <path class="cls-1" d="m267.74,177.73c-.09-.27-.19-.54-.28-.81.13-.28.39-.67.63-.4.39.44-.05.85-.34,1.21Z"/>
      <path class="cls-7" d="m109.1,137.72c-.92.27-1.86.26-2.8.23.9-.53,1.87-.15,2.8-.23Z"/>
      <path class="cls-7" d="m189.55,126.46c-.23-.93-.22-1.88-.23-2.82.54.9.15,1.88.23,2.82Z"/>
      <path class="cls-7" d="m219.32,62.76c.71.25,1.15.79,1.56,1.38-.76-.19-1.16-.79-1.56-1.38Z"/>
      <path class="cls-7" d="m162.27,133.64c.87.63.68-.46,1.05-.65.02.54.08,1.16-.57,1.32-.32.08-.46-.35-.48-.68Z"/>
      <path class="cls-7" d="m153.88,134.16c-.9,0-1.8,0-2.7,0,.9-.41,1.8-.4,2.7,0Z"/>
      <path class="cls-7" d="m82.26,121.73c0,.9,0,1.8,0,2.71-.47-.9-.47-1.81,0-2.71Z"/>
      <path class="cls-3" d="m123.62,151.38c.27.92.26,1.86.23,2.8-.54-.9-.15-1.87-.23-2.8Z"/>
      <path class="cls-7" d="m204.99.33c-.9,0-1.81,0-2.71,0,.9-.44,1.81-.44,2.71,0Z"/>
      <path class="cls-7" d="m146.82,166.75c-.31-.92-.26-1.88-.24-2.83.56.9.15,1.89.24,2.83Z"/>
      <path class="cls-7" d="m247.47,229.09c-.25.7-.77,1.17-1.37,1.57.18-.77.79-1.16,1.37-1.57Z"/>
      <path class="cls-7" d="m14.84,128.22c.01-.95-.05-1.91.29-2.82-.11.94.38,1.94-.29,2.82Z"/>
      <path class="cls-7" d="m167.16,159.21c.28.92.26,1.87.23,2.82-.54-.9-.15-1.88-.23-2.82Z"/>
      <path class="cls-7" d="m136.84,272.93c-.92,0-1.85.06-2.73-.27.91.1,1.88-.35,2.73.27Z"/>
      <path class="cls-7" d="m110.86,155.93c-.28-.92-.25-1.87-.23-2.82.54.9.15,1.88.23,2.82Z"/>
      <path class="cls-7" d="m18.12,171.27c-.39-.77-.44-1.63-.65-2.45.64.7.7,1.56.65,2.45Z"/>
      <path class="cls-7" d="m139.26,148c-.3-.89-.24-1.82-.26-2.74.57.87.17,1.83.26,2.74Z"/>
      <path class="cls-7" d="m258.52,40.92c-.49-.54-.98-1.08-1.47-1.62.74.31,1.33.77,1.47,1.62Z"/>
      <path class="cls-7" d="m136.85,125.21c.93.02,1.87-.02,2.77.29-.92-.11-1.9.36-2.77-.29Z"/>
      <path class="cls-7" d="m143.63,165.16c.31.91.23,1.87.29,2.8-.66-.88-.18-1.87-.29-2.8Z"/>
      <path class="cls-7" d="m177.21,270.22c-.81.33-1.64.52-2.51.54.77-.51,1.62-.61,2.51-.54Z"/>
      <path class="cls-7" d="m113.62,167.86c.28.92.25,1.87.23,2.82-.54-.9-.15-1.88-.23-2.82Z"/>
      <path class="cls-7" d="m136.07,173.11c-.23.69-.67,1.15-1.38,1.34.37-.54.8-1.02,1.38-1.34Z"/>
      <path class="cls-7" d="m105.32,137.99c-.82.32-1.69.18-2.53.3.78-.65,1.69-.2,2.53-.3Z"/>
      <path class="cls-7" d="m278.81,168.25c-.05.74-.13,1.47-.54,2.11-.03-.76.03-1.49.54-2.11Z"/>
      <path class="cls-7" d="m86.79,209.61c.78-.43,1.64-.2,2.46-.27-.77.57-1.64.17-2.46.27Z"/>
      <path class="cls-7" d="m187.65,155.65c-.21-.75-.41-1.5-.62-2.24.74.6.67,1.42.62,2.24Z"/>
      <path class="cls-7" d="m186.22,143.34c.37-.79.04-1.61.1-2.41.39.82.57,1.63-.1,2.41Z"/>
      <path class="cls-7" d="m47.91,183.68c-.84.34-1.67.34-2.51,0,.84,0,1.67,0,2.51,0Z"/>
      <path class="cls-7" d="m210.35,246.65c.55-.73-.44-.46-.51-.79.41.06,1.01-.24,1.2.24.17.45-.33.51-.69.54Z"/>
      <path class="cls-7" d="m184.7,172.84c.45-.46.9-.93,1.35-1.39-.1.8-.57,1.24-1.35,1.39Z"/>
      <path class="cls-7" d="m149.79,172.7c-.6-.35-1.07-.83-1.41-1.44.67.29,1.16.74,1.41,1.44Z"/>
      <path class="cls-7" d="m220.16,191.51c-.78.45-1.63.22-2.45.28.76-.58,1.64-.17,2.45-.28Z"/>
      <path class="cls-7" d="m152.67,151.46c.83-.3,1.67-.39,2.49.03-.83,0-1.66-.02-2.49-.03Z"/>
      <path class="cls-7" d="m187.41,128.22c.71.21,1.14.69,1.39,1.37-.59-.33-1.04-.8-1.39-1.37Z"/>
      <path class="cls-7" d="m245.31,209.91c-.78.43-1.64.2-2.46.28.77-.57,1.64-.17,2.46-.28Z"/>
      <path class="cls-7" d="m95.37,118.73c.82-.33,1.67-.3,2.53-.29-.78.63-1.69.19-2.53.29Z"/>
      <path class="cls-7" d="m149.22,139.58l-1.28,1.33c.15-.71.59-1.14,1.28-1.33Z"/>
      <path class="cls-7" d="m22.98,100.92c0,.81,0,1.62,0,2.43-.4-.81-.41-1.62,0-2.43Z"/>
      <path class="cls-3" d="m124.95,157.47c.43.44.86.88,1.28,1.32-.69-.18-1.13-.61-1.28-1.32Z"/>
      <path class="cls-3" d="m135.77,169.33c0-.81-.02-1.62-.03-2.44.47.81.44,1.62.03,2.44Z"/>
      <path class="cls-7" d="m140.61,165.94c-.29-.83-.25-1.69-.22-2.56.5.81.16,1.7.22,2.56Z"/>
      <path class="cls-7" d="m134.13,272.68c-.85,0-1.69.02-2.5-.29.83.1,1.73-.34,2.5.29Z"/>
      <path class="cls-7" d="m148.2,157.97c0,.72,0,1.44,0,2.16-.41-.72-.41-1.44,0-2.16Z"/>
      <path class="cls-7" d="m109.29,176.25c.3.73.18,1.51.29,2.26-.63-.69-.2-1.51-.29-2.26Z"/>
      <path class="cls-7" d="m129,261.54c.41-.12.92.25,1.26-.25.17.13.79.23.19.47-.4.17-1.03.24-1.45-.22Z"/>
      <path class="cls-7" d="m113.09,209.91c-.7.42-1.47.2-2.21.27.68-.56,1.47-.17,2.21-.27Z"/>
      <path class="cls-7" d="m15.15,124.98c-.02-.74-.03-1.48.26-2.19-.09.73.29,1.51-.26,2.19Z"/>
      <path class="cls-7" d="m54.64,210.18c-.74-.07-1.51.15-2.2-.27.73.1,1.52-.3,2.2.27Z"/>
      <path class="cls-7" d="m147.93,262.61c.74,0,1.49-.04,2.2.27-.73-.08-1.52.3-2.2-.27Z"/>
      <path class="cls-7" d="m151.96,262.87c.71-.28,1.44-.3,2.19-.22-.69.49-1.46.16-2.19.22Z"/>
      <path class="cls-7" d="m158.92,169.57c.21-.64.42-1.29.62-1.93,0,.71.21,1.49-.62,1.93Z"/>
      <path class="cls-7" d="m228.79,71.43c.61.15.99.58,1.3,1.09-.65-.1-.98-.59-1.3-1.09Z"/>
      <path class="cls-7" d="m281.78,75.79c-.36-.5-.64-1.05-.79-1.65.61.38.81.97.79,1.65Z"/>
      <path class="cls-7" d="m23.79,99.03c-.25.57-.51,1.13-.76,1.7-.06-.7.14-1.3.76-1.7Z"/>
      <path class="cls-7" d="m226.35,69.26c.61.15.98.6,1.3,1.1-.65-.11-.98-.6-1.3-1.1Z"/>
      <path class="cls-7" d="m223.38,66.55c.62.15.98.6,1.29,1.11-.65-.11-.98-.6-1.29-1.11Z"/>
      <path class="cls-7" d="m116.02,209.92c-.72-.01-1.44-.02-2.15-.03.72-.39,1.44-.44,2.15.03Z"/>
      <path class="cls-7" d="m157.91,145.63c-.13-.74-.25-1.48-.38-2.23.77.63.27,1.48.38,2.23Z"/>
      <path class="cls-7" d="m281,124.36c.26.73.27,1.49.24,2.25-.53-.7-.17-1.5-.24-2.25Z"/>
      <path class="cls-7" d="m219.02,209.61c.69-.42,1.46-.2,2.2-.26-.68.55-1.47.17-2.2.26Z"/>
      <path class="cls-7" d="m208.5,209.35c.74.06,1.51-.16,2.2.26-.73-.1-1.53.29-2.2-.26Z"/>
      <path class="cls-7" d="m48.41,228.86c-.4-.45-.79-.9-1.19-1.35.65.23,1.12.62,1.19,1.35Z"/>
      <path class="cls-7" d="m265.02,95.22c.72,0,1.45,0,2.17,0-.72.43-1.45.44-2.17,0Z"/>
      <path class="cls-7" d="m155.3,173.95c-.78.28-1.56.31-2.34,0,.78,0,1.56,0,2.34,0Z"/>
      <path class="cls-7" d="m76.27,209.34c.74.06,1.51-.16,2.2.27-.73-.09-1.53.29-2.2-.27Z"/>
      <path class="cls-7" d="m249.3,31.55c-.45-.4-.9-.8-1.35-1.2.73.08,1.13.54,1.35,1.2Z"/>
      <path class="cls-7" d="m183.72,268.6c-.63.31-1.27.53-1.99.51.58-.48,1.26-.59,1.99-.51Z"/>
      <path class="cls-7" d="m239,237.75c-.31.51-.67.96-1.29,1.11.31-.51.64-.99,1.29-1.11Z"/>
      <path class="cls-7" d="m209.85,3.86c-.39-.44-.77-.88-1.16-1.32.64.22,1.08.62,1.16,1.32Z"/>
      <path class="cls-7" d="m268.23,198.54c-.11.58-.36,1.09-.77,1.53.02-.63.22-1.16.77-1.53Z"/>
      <path class="cls-7" d="m150.74,134.21l-1.99.51c.54-.64,1.27-.55,1.99-.51Z"/>
      <path class="cls-7" d="m212.02,191.8c-.74-.05-1.51.16-2.21-.27.74.09,1.53-.3,2.21.27Z"/>
      <path class="cls-7" d="m224.72,13.36c-.36.02-.16.33-.26.49-.37-.21-.75-.53-.36-.91.3-.29.5.14.62.42Z"/>
      <path class="cls-7" d="m175.11,140.09c.74-.45,1.48-.54,2.2.04-.73-.01-1.47-.02-2.2-.04Z"/>
      <path class="cls-7" d="m79.78,191.79c-.74-.06-1.51.16-2.2-.27.73.1,1.53-.3,2.2.27Z"/>
      <path class="cls-3" d="m135.22,143.13c.47.43.59.99.57,1.6-.44-.44-.53-1.01-.57-1.6Z"/>
      <path class="cls-7" d="m124.46,94.44c-.61.3-1.27.29-1.93.3.56-.61,1.29-.22,1.93-.3Z"/>
      <path class="cls-7" d="m136.58,88.49l1.62-.26c-.49.4-.97.82-1.62.26Z"/>
      <path class="cls-7" d="m150.11,262.85c.62,0,1.25,0,1.87,0-.62.5-1.25.5-1.87,0Z"/>
      <path class="cls-7" d="m162.46,144.97l.08-1.87c.37.64.5,1.27-.08,1.87Z"/>
      <path class="cls-7" d="m129.54,272.12c-.65,0-1.3.02-1.91-.29.64.09,1.35-.29,1.91.29Z"/>
      <path class="cls-3" d="m129.91,161.52c-.68.25-1.36.27-2.05,0,.68,0,1.36,0,2.05,0Z"/>
      <path class="cls-7" d="m112.27,183.68c-.6.4-1.28.21-1.93.27.58-.53,1.28-.18,1.93-.27Z"/>
      <path class="cls-7" d="m280.46,120.3c.31.63.29,1.3.28,1.97-.58-.59-.21-1.31-.28-1.97Z"/>
      <path class="cls-7" d="m54.64,183.93c-.65-.04-1.33.15-1.93-.25.64.08,1.34-.26,1.93.25Z"/>
      <path class="cls-7" d="m15.4,122.81c0-.65-.04-1.31.27-1.92-.08.64.29,1.35-.27,1.92Z"/>
      <path class="cls-7" d="m200.94,56.3c.04-.59.23-1.14.53-1.65.04.62,0,1.21-.53,1.65Z"/>
      <path class="cls-3" d="m134.81,159.09c-.3.46-.59.94-1.21,1.03.31-.45.62-.91,1.21-1.03Z"/>
      <path class="cls-7" d="m84.28,123.33c.27-.5.64-.9,1.16-1.15-.19.58-.57.97-1.16,1.15Z"/>
      <path class="cls-7" d="m168.52,271.84c-.6.32-1.26.29-1.91.29.56-.6,1.27-.22,1.91-.29Z"/>
      <path class="cls-7" d="m15.94,160.24c-.31-.63-.29-1.3-.3-1.98.63.58.22,1.31.3,1.98Z"/>
      <path class="cls-7" d="m280.73,122.25c.31.61.27,1.27.26,1.93-.54-.58-.19-1.28-.26-1.93Z"/>
      <path class="cls-7" d="m173.71,260.21c.24.44.66.16.99.26-.29.38-.7.24-1.07.26-.17,0-.39-.03-.32-.25.04-.12.26-.18.4-.27Z"/>
      <path class="cls-7" d="m160.64,157.25c.41.55.32,1.18.3,1.8-.57-.52-.19-1.2-.3-1.8Z"/>
      <path class="cls-7" d="m123.3,169.1c-.35-.59-.18-1.27-.34-1.89.71.52.25,1.26.34,1.89Z"/>
      <path class="cls-7" d="m124.95,167.48c.35.58.25,1.22.28,1.85-.53-.55-.18-1.23-.28-1.85Z"/>
      <path class="cls-7" d="m15.66,158.29c-.32-.61-.27-1.27-.28-1.93.58.57.22,1.28.28,1.93Z"/>
      <path class="cls-7" d="m191.73,10.33c-.1.55-.31,1.03-.8,1.35.09-.56.27-1.06.8-1.35Z"/>
      <path class="cls-7" d="m134.95,124.97c.65,0,1.32-.05,1.93.26-.65-.07-1.35.28-1.93-.26Z"/>
      <path class="cls-7" d="m15.4,156.38c-.29-.62-.27-1.27-.24-1.93.51.59.18,1.28.24,1.93Z"/>
      <path class="cls-7" d="m150.3,154.19c-.24.44-.61.75-1.02,1.02.1-.58.44-.92,1.02-1.02Z"/>
      <path class="cls-3" d="m122.21,155.67c-.36-.63-.33-1.32-.29-2.02.62.6.21,1.34.29,2.02Z"/>
      <path class="cls-7" d="m112,238.03c-.6.41-1.28.21-1.92.27.57-.55,1.28-.18,1.92-.27Z"/>
      <path class="cls-7" d="m183.39,141.89c.36.62.21,1.33.33,2-.7-.57-.23-1.33-.33-2Z"/>
      <path class="cls-7" d="m181.71,143.46c-.27-.63-.26-1.3-.28-1.97.58.59.21,1.31.28,1.97Z"/>
      <path class="cls-3" d="m135.12,171.47c.2-.57.41-1.14.61-1.72.03.65.13,1.34-.61,1.72Z"/>
      <path class="cls-7" d="m281.24,152.84c.04.68.04,1.36-.23,2.01.06-.67-.27-1.39.23-2.01Z"/>
      <path class="cls-7" d="m118.45,145.81v1.89c-.41-.63-.41-1.26,0-1.89Z"/>
      <path class="cls-7" d="m88.16,237.47c.59-.41,1.27-.21,1.91-.27-.57.53-1.27.18-1.91.27Z"/>
      <path class="cls-7" d="m139.73,172.82c.2-.56.41-1.11.61-1.67.03.64.1,1.3-.61,1.67Z"/>
      <path class="cls-7" d="m144.42,170.18c.38.36.55.81.57,1.32-.45-.33-.58-.8-.57-1.32Z"/>
      <path class="cls-7" d="m246.6,29.12c-.36-.31-.72-.62-1.08-.94.61.03.95.35,1.08.94Z"/>
      <path class="cls-7" d="m166.63,272.12c-.52.28-1.09.27-1.66.24.49-.48,1.1-.2,1.66-.24Z"/>
      <path class="cls-7" d="m131.16,272.35c-.57.03-1.13.03-1.65-.24.55.05,1.16-.23,1.65.24Z"/>
      <path class="cls-7" d="m80.85,11.14c-.01.55-.35.89-.77,1.18.14-.47.29-.93.77-1.18Z"/>
      <path class="cls-7" d="m168.21,168.28c.38.36.54.81.55,1.32-.43-.34-.56-.8-.55-1.32Z"/>
      <path class="cls-7" d="m170.2,271.58c-.54.29-1.12.29-1.71.28.49-.56,1.13-.22,1.71-.28Z"/>
      <path class="cls-7" d="m127.65,271.84c-.58.02-1.15,0-1.68-.27.57.06,1.19-.26,1.68.27Z"/>
      <path class="cls-7" d="m103.35,142.86c-.31.29-.89.01-1.11.52-.03-1.02.75-.32,1.11-.52Z"/>
      <path class="cls-7" d="m197.48,264c-.43.3-.88.53-1.42.51.37-.44.86-.57,1.42-.51Z"/>
      <path class="cls-7" d="m175.24,175c.59-.03,1.15.03,1.7.26-.57-.06-1.2.25-1.7-.26Z"/>
      <path class="cls-7" d="m178.94,175.25c.55-.24,1.13-.3,1.72-.26-.51.53-1.14.21-1.72.26Z"/>
      <path class="cls-7" d="m96.8,263.26c-.45-.21-.91-.42-1.36-.62.55-.01,1.08.03,1.36.62Z"/>
      <path class="cls-7" d="m159.59,143.82c.27.54.26,1.13.24,1.71-.48-.51-.19-1.14-.24-1.71Z"/>
      <path class="cls-7" d="m30.83,176.69c-.25.06-.24.28-.28.48-.24-.25-.61-.55-.23-.86.28-.23.42.14.51.39Z"/>
      <path class="cls-7" d="m183.66,143.82c.53.03,1.06.06,1.59.08-.55.38-1.09.51-1.59-.08Z"/>
      <path class="cls-7" d="m91.38,260.87c-.45-.22-.89-.45-1.34-.67.55,0,1.1.03,1.34.67Z"/>
      <path class="cls-7" d="m166.85,258.29c.41-.29.83-.58,1.37-.56-.34.47-.83.58-1.37.56Z"/>
      <path class="cls-7" d="m174.94,253.42c.36-.31.72-.62,1.08-.93-.13.57-.48.9-1.08.93Z"/>
      <path class="cls-7" d="m134.08,178.23c.46-.22.92-.44,1.39-.65-.26.65-.81.67-1.39.65Z"/>
      <path class="cls-7" d="m126.03,252.61c.5.08.8.41,1.02.83-.52-.05-.8-.4-1.02-.83Z"/>
      <path class="cls-7" d="m30.27,104.15c.42-.29.84-.57,1.39-.55-.35.46-.84.58-1.39.55Z"/>
      <path class="cls-7" d="m60.28,240.57c-.36-.31-.71-.61-1.07-.92.59.03.93.36,1.07.92Z"/>
      <path class="cls-7" d="m260.42,43.07c-.31-.36-.61-.72-.92-1.07.57.13.89.48.92,1.07Z"/>
      <path class="cls-7" d="m100.82,102.54c-.22.43-.52.76-1.03.83.22-.43.5-.78,1.03-.83Z"/>
      <path class="cls-7" d="m44.63,183.66c-.55-.03-1.14.14-1.64-.26.55.07,1.15-.23,1.64.26Z"/>
      <path class="cls-7" d="m262.04,44.97c-.3-.36-.61-.72-.91-1.08.56.14.89.48.91,1.08Z"/>
      <path class="cls-7" d="m263.39,46.6c-.3-.36-.6-.73-.9-1.09.56.15.89.49.9,1.09Z"/>
      <path class="cls-7" d="m175.02,147.17c-1.17.64-.87-.25-.87-.83.36.21.26.88.87.83Z"/>
      <path class="cls-7" d="m178.76,132.55c-.56,0-1.12,0-1.65-.25.55.05,1.16-.24,1.65.25Z"/>
      <path class="cls-7" d="m16.2,117.4c0-.56,0-1.13.3-1.64-.08.55.27,1.17-.3,1.64Z"/>
      <path class="cls-7" d="m249.34,52.27c.44.23.77.54.85,1.06-.45-.22-.81-.51-.85-1.06Z"/>
      <path class="cls-7" d="m279.92,116.84c.3.51.3,1.08.29,1.64-.56-.47-.22-1.09-.29-1.64Z"/>
      <path class="cls-7" d="m175.55,132.31c-.53.25-1.09.24-1.66.25.49-.49,1.1-.2,1.66-.25Z"/>
      <path class="cls-7" d="m120.89,183.92c-.56-.03-1.14.13-1.65-.25.55.07,1.16-.23,1.65.25Z"/>
      <path class="cls-7" d="m220.39,237.47c.5-.39,1.08-.21,1.64-.25-.48.48-1.09.19-1.64.25Z"/>
      <path class="cls-7" d="m207.7,237.21c.56.03,1.15-.13,1.66.25-.56-.06-1.17.23-1.66-.25Z"/>
      <path class="cls-7" d="m177.13,132.32c-.53,0-1.07,0-1.6,0,.53-.48,1.07-.47,1.6,0Z"/>
      <path class="cls-7" d="m75.46,237.2c.56.04,1.16-.12,1.67.25-.56-.06-1.18.24-1.67-.25Z"/>
      <path class="cls-7" d="m224.13,236.91c.46-.19.93-.39,1.39-.58-.24.74-.84.59-1.39.58Z"/>
      <path class="cls-7" d="m153.44,148.54c-.55.24-1.13.29-1.72.25.51-.51,1.14-.2,1.72-.25Z"/>
      <path class="cls-7" d="m85.72,65.76c.35-.31.71-.61,1.06-.92-.14.56-.48.88-1.06.92Z"/>
      <path class="cls-7" d="m231.21,231.52c.27-.4.61-.72,1.07-.89-.17.52-.5.85-1.07.89Z"/>
      <path class="cls-7" d="m112.5,229.63c.5-.39,1.08-.23,1.63-.25-.48.46-1.08.18-1.63.25Z"/>
      <path class="cls-7" d="m15.94,119.04c-.01-.57-.03-1.14.27-1.66-.05.56.26,1.18-.27,1.66Z"/>
      <path class="cls-7" d="m174.94,126.04c.51-.32,1.08-.29,1.65-.27-.48.54-1.1.22-1.65.27Z"/>
      <path class="cls-7" d="m122.55,94.73c-.52.3-1.09.28-1.66.27.48-.54,1.1-.22,1.66-.27Z"/>
      <path class="cls-7" d="m63.83,229.08c.51.06.82.38,1.03.83-.52-.05-.8-.4-1.03-.83Z"/>
      <path class="cls-7" d="m131.92,163.89c1.18-.2.51.69.65,1.1-.5-.2-.15-.9-.65-1.1Z"/>
      <path class="cls-7" d="m16.77,165.03c-.29-.51-.3-1.07-.31-1.63.58.45.22,1.08.31,1.63Z"/>
      <path class="cls-7" d="m249.38,226.93c-.08.51-.41.81-.85,1.04.05-.53.4-.82.85-1.04Z"/>
      <path class="cls-7" d="m197.07,67.63c.2-.48.39-.96.59-1.44.05.58,0,1.12-.59,1.44Z"/>
      <path class="cls-7" d="m252.32,223.41c-.09.49-.38.82-.82,1.04.04-.53.39-.81.82-1.04Z"/>
      <path class="cls-7" d="m270.46,193.66c0,.51-.18.95-.57,1.29,0-.52.13-.97.57-1.29Z"/>
      <path class="cls-7" d="m57.34,222.39c.44.21.76.52.83,1.03-.43-.22-.78-.5-.83-1.03Z"/>
      <path class="cls-7" d="m129.34,93.64c-.52.29-1.1.29-1.67.3.47-.59,1.11-.23,1.67-.3Z"/>
      <path class="cls-7" d="m27.32,197.21c-.22-.45-.45-.89-.67-1.34.64.24.66.79.67,1.34Z"/>
      <path class="cls-7" d="m108.99,118.75c.57-.03,1.14-.05,1.67.25-.56-.04-1.17.26-1.67-.25Z"/>
      <path class="cls-7" d="m54.64,219.4c.45.21.76.53.83,1.04-.43-.23-.79-.51-.83-1.04Z"/>
      <path class="cls-7" d="m272.87,91.49c.4.35.53.81.53,1.32-.41-.34-.55-.8-.53-1.32Z"/>
      <path class="cls-7" d="m45.69,201.77c.5-.4,1.09-.24,1.64-.28-.48.52-1.09.2-1.64.28Z"/>
      <path class="cls-7" d="m279.96,162.32c-.01.58,0,1.16-.31,1.68.08-.57-.3-1.22.31-1.68Z"/>
      <path class="cls-7" d="m51.94,201.49c.56.04,1.15-.12,1.66.28-.55-.07-1.18.25-1.66-.28Z"/>
      <path class="cls-7" d="m83.28,67.92c.36-.31.72-.62,1.07-.93-.13.57-.48.9-1.07.93Z"/>
      <path class="cls-7" d="m243.91,201.77c.5-.4,1.08-.24,1.64-.28-.48.52-1.09.2-1.64.28Z"/>
      <path class="cls-7" d="m220.46,217.76c-.51.38-1.11.23-1.68.26.49-.51,1.11-.2,1.68-.26Z"/>
      <path class="cls-7" d="m210.94,218.01c-.57-.03-1.16.13-1.67-.26.56.06,1.18-.24,1.67.26Z"/>
      <path class="cls-7" d="m137.19,91.48c-.42.31-.89.51-1.42.5.38-.43.87-.56,1.42-.5Z"/>
      <path class="cls-7" d="m187.85,91.96c.21-.46.42-.91.63-1.37.02.56-.02,1.1-.63,1.37Z"/>
      <path class="cls-7" d="m88.45,217.74c-.49.4-1.08.22-1.63.26.48-.49,1.09-.19,1.63-.26Z"/>
      <path class="cls-7" d="m24.23,88.99c.21-.46.43-.92.64-1.39.02.57,0,1.12-.64,1.39Z"/>
      <path class="cls-7" d="m271.24,87.45c.38.35.55.79.55,1.3-.42-.33-.56-.78-.55-1.3Z"/>
      <path class="cls-7" d="m266.36,87.72c-.3-.37-.6-.73-.9-1.1.56.15.89.49.9,1.1Z"/>
      <path class="cls-7" d="m78.71,218.01c-.55-.04-1.14.14-1.64-.26.55.07,1.16-.23,1.64.26Z"/>
      <path class="cls-7" d="m280.99,74.13c-.23-.43-.46-.87-.69-1.3.63.22.65.76.69,1.3Z"/>
      <path class="cls-7" d="m74.65,209.08c.55.05,1.14-.13,1.63.26-.55-.08-1.15.23-1.63-.26Z"/>
      <path class="cls-7" d="m89.24,209.34c.5-.4,1.09-.22,1.64-.27-.48.5-1.09.2-1.64.27Z"/>
      <path class="cls-7" d="m206.62,209.07c.56.05,1.16-.12,1.66.27-.56-.07-1.18.25-1.66-.27Z"/>
      <path class="cls-7" d="m221.45,209.34c.51-.39,1.1-.22,1.66-.27-.48.51-1.1.2-1.66.27Z"/>
      <path class="cls-7" d="m110.63,118.98c.59,0,1.19-.02,1.73.29-.58-.07-1.24.31-1.73-.29Z"/>
      <path class="cls-7" d="m75.96,74.13c.36-.3.73-.6,1.09-.9-.15.56-.49.89-1.09.9Z"/>
      <path class="cls-7" d="m230.95,73.33c.5.07.79.4,1.01.82-.51-.05-.79-.4-1.01-.82Z"/>
      <path class="cls-7" d="m25.85,85.2c.22-.45.43-.9.65-1.35,0,.55-.03,1.09-.65,1.35Z"/>
      <path class="cls-7" d="m208.73,2.57c-.36-.3-.71-.59-1.07-.89.58.02.93.32,1.07.89Z"/>
      <path class="cls-7" d="m15.67,120.92c-.01-.6-.03-1.2.27-1.74-.06.59.29,1.24-.27,1.74Z"/>
      <path class="cls-7" d="m148.47,83.34c-.08.5-.38.81-.81,1.03.04-.52.4-.8.81-1.03Z"/>
      <path class="cls-7" d="m191.65,82.5c.2-.47.4-.93.6-1.4.04.57,0,1.1-.6,1.4Z"/>
      <path class="cls-7" d="m120.89,160.43c.44.22.72.57.83,1.06-.44-.23-.79-.52-.83-1.06Z"/>
      <path class="cls-7" d="m194.09,76.01c.2-.47.4-.95.6-1.42.04.58,0,1.12-.6,1.42Z"/>
      <path class="cls-7" d="m280.44,159.33c.04.51.02,1.01-.24,1.48.03-.5-.22-1.05.24-1.48Z"/>
      <path class="cls-7" d="m68.33,15.7c.06-.22.07-.42-.16-.54.15-.2.43-.33.55-.13.21.34-.07.56-.39.68Z"/>
      <path class="cls-7" d="m189.28,123.2c-.12-.48-.25-.96-.37-1.44.68.33.31.94.37,1.44Z"/>
      <path class="cls-7" d="m280.19,160.94c0,.48.05.97-.25,1.4.01-.48-.23-1.01.25-1.4Z"/>
      <path class="cls-7" d="m87.59,11.67c.28-.37.63-.59,1.12-.54-.28.37-.67.52-1.12.54Z"/>
      <path class="cls-7" d="m163.87,157.74c-.11-.45-.23-.91-.34-1.36.61.33.28.89.34,1.36Z"/>
      <path class="cls-7" d="m130.08,124.17c.48-.05.95-.01,1.38.26-.47-.04-.99.2-1.38-.26Z"/>
      <path class="cls-7" d="m55.99,210.43c-.46-.02-.96.11-1.36-.25.46.05.97-.18,1.36.25Z"/>
      <path class="cls-7" d="m110.66,210.18c-.42.35-.93.24-1.4.26.4-.47.93-.22,1.4-.26Z"/>
      <path class="cls-3" d="m131.47,161.23c-.42.28-.9.32-1.39.27.39-.48.92-.22,1.39-.27Z"/>
      <path class="cls-7" d="m188.22,210.43c-.47-.02-.97.09-1.39-.26.47.05.99-.2,1.39.26Z"/>
      <path class="cls-7" d="m242.87,210.18c-.4.37-.9.23-1.37.26.39-.45.91-.21,1.37-.26Z"/>
      <path class="cls-7" d="m223.1,209.08c.4-.36.9-.23,1.36-.26-.38.45-.9.21-1.36.26Z"/>
      <path class="cls-7" d="m280.17,72.52c-.2-.36-.4-.71-.6-1.07.56.16.61.59.6,1.07Z"/>
      <path class="cls-7" d="m82.24,124.42c.29.4.63.48,1.04.18-.46.6-.82.63-1.04-.18Z"/>
      <path class="cls-7" d="m119.02,155.24c.24.43.29.9.24,1.38-.44-.4-.21-.91-.24-1.38Z"/>
      <path class="cls-7" d="m77.08,217.76c-.48-.03-.98.09-1.39-.27.47.05,1-.21,1.39.27Z"/>
      <path class="cls-7" d="m89.82,217.48c-.41.37-.91.25-1.38.27.38-.48.91-.22,1.38-.27Z"/>
      <path class="cls-7" d="m222.05,217.47c-.4.37-.91.24-1.38.27.38-.47.91-.22,1.38-.27Z"/>
      <path class="cls-7" d="m205.26,208.81c.47.03.96-.1,1.37.27-.46-.05-.98.19-1.37-.27Z"/>
      <path class="cls-7" d="m92.42,119.28c.43-.29.92-.31,1.42-.3-.37.56-.93.25-1.42.3Z"/>
      <path class="cls-7" d="m254.76,202.63c.39,0,.76-.04,1.06-.32-.16.76-.58.65-1.06.32Z"/>
      <path class="cls-7" d="m250.42,201.5c.48.02.98-.1,1.4.26-.47-.04-1,.2-1.4-.26Z"/>
      <path class="cls-7" d="m111.92,201.76c.42-.36.93-.24,1.41-.26-.4.47-.93.22-1.41.26Z"/>
      <path class="cls-7" d="m131.44,124.41c.51,0,1.02-.02,1.47.27-.5-.04-1.06.25-1.47-.27Z"/>
      <path class="cls-7" d="m115.15,93.86c.46-.12.93-.23,1.39-.35-.34.62-.91.28-1.39.35Z"/>
      <path class="cls-7" d="m127.69,93.92c-.43.3-.91.26-1.4.25.4-.47.92-.23,1.4-.25Z"/>
      <path class="cls-7" d="m126.13,94.18c-.46.24-.95.27-1.45.24.42-.45.96-.21,1.45-.24Z"/>
      <path class="cls-7" d="m93.8,119c.43-.29.91-.28,1.4-.25-.4.47-.92.24-1.4.25Z"/>
      <path class="cls-7" d="m280.19,118.46c.26.43.26.9.23,1.38-.42-.4-.2-.91-.23-1.38Z"/>
      <path class="cls-7" d="m133.33,124.73c.5-.03.99-.01,1.45.23-.49-.03-1.02.21-1.45-.23Z"/>
      <path class="cls-7" d="m110.89,94.73c.45,0,.89-.01,1.34-.02-.44.38-.89.37-1.34.02Z"/>
      <path class="cls-7" d="m120.92,94.99c-.43.25-.9.28-1.38.25.39-.45.91-.21,1.38-.25Z"/>
      <path class="cls-7" d="m242.35,183.95c-.42.35-.92.24-1.4.26.39-.46.92-.22,1.4-.26Z"/>
      <path class="cls-7" d="m111.14,229.9c.4-.37.9-.25,1.37-.28-.38.47-.91.22-1.37.28Z"/>
      <path class="cls-7" d="m181.73,125.77c.45,0,.93-.08,1.29.3-.44-.06-.95.18-1.29-.3Z"/>
      <path class="cls-7" d="m188.75,184.28c-.45-.14-.98.04-1.37-.33.47.07,1.03-.25,1.37.33Z"/>
      <path class="cls-7" d="m176.35,183.94c-.41.36-.91.24-1.38.26.39-.45.91-.21,1.38-.26Z"/>
      <path class="cls-7" d="m173.57,126.32c.42-.29.91-.3,1.39-.3-.37.53-.92.24-1.39.3Z"/>
      <path class="cls-7" d="m156.56,148.87c-.48-.11-.97-.22-1.46-.33.5.06,1.09-.29,1.46.33Z"/>
      <path class="cls-7" d="m122.77,184.29c-.45-.14-.99.04-1.38-.33.47.06,1.04-.26,1.38.33Z"/>
      <path class="cls-7" d="m110.12,183.95c-.42.36-.93.24-1.41.27.4-.47.93-.23,1.41-.27Z"/>
      <path class="cls-7" d="m158.75,129.02c.48.07.75.37.84.84-.39-.17-.67-.45-.84-.84Z"/>
      <path class="cls-7" d="m204.45,236.66c.47.02.97-.09,1.38.27-.47-.05-.99.19-1.38-.27Z"/>
      <path class="cls-7" d="m73.84,236.94c.47.02.97-.09,1.38.26-.47-.05-.99.19-1.38-.26Z"/>
      <path class="cls-7" d="m56.52,184.28c-.45-.14-.98.05-1.38-.33.47.06,1.03-.26,1.38.33Z"/>
      <path class="cls-7" d="m244.25,183.68c-.42.35-.92.23-1.39.24.4-.43.92-.2,1.39-.24Z"/>
      <path class="cls-7" d="m186.87,183.92c-.47,0-.97.11-1.39-.24.47.04.98-.19,1.39.24Z"/>
      <path class="cls-7" d="m178.26,183.68c-.42.34-.91.23-1.38.23.4-.42.92-.19,1.38-.23Z"/>
      <path class="cls-7" d="m17.03,166.42c-.26-.44-.29-.92-.27-1.41.49.39.23.93.27,1.41Z"/>
      <path class="cls-7" d="m279.4,165.27c.03.49.02.98-.27,1.41.02-.48-.24-1.02.27-1.41Z"/>
      <path class="cls-7" d="m279.66,115.39c.29.45.28.96.27,1.47-.52-.41-.23-.97-.27-1.47Z"/>
      <path class="cls-7" d="m127.09,166.99c-.44-.03-.89-.05-1.33-.08.47-.38.92-.48,1.33.08Z"/>
      <path class="cls-7" d="m160.52,145.78c.47-.23.97-.21,1.47-.22-.43.44-.97.19-1.47.22Z"/>
      <path class="cls-7" d="m183.37,102.27c.05-.43.23-.79.51-1.12.04.47-.01.89-.51,1.12Z"/>
      <path class="cls-7" d="m279.15,166.64c0,.49-.02.98-.3,1.42.05-.48-.26-1.04.3-1.42Z"/>
      <path class="cls-7" d="m110.09,238.3c-.4.37-.9.23-1.37.27.38-.47.91-.22,1.37-.27Z"/>
      <path class="cls-7" d="m43.01,183.41c-.47-.03-.97.09-1.38-.28.47.06,1-.21,1.38.28Z"/>
      <path class="cls-7" d="m110.37,179.26c.45.01.89.03,1.34.04-.46.42-.91.49-1.34-.04Z"/>
      <path class="cls-7" d="m160.09,137.47c-.27-.28-.55-.56-.82-.85.55,0,.83.29.82.85Z"/>
      <path class="cls-7" d="m150.28,137.4c.44-.29.93-.31,1.44-.26-.41.48-.95.23-1.44.26Z"/>
      <path class="cls-7" d="m185.78,244.24c-.03.45.14.94-.26,1.32.06-.45-.17-.95.26-1.32Z"/>
      <path class="cls-7" d="m116.55,245.89c-.37-.41-.24-.91-.27-1.39.47.39.22.92.27,1.39Z"/>
      <path class="cls-7" d="m89.28,245.6c-.41.36-.91.24-1.38.26.39-.46.92-.21,1.38-.26Z"/>
      <path class="cls-7" d="m209.86,245.87c-.48-.02-.98.1-1.4-.27.47.04,1.01-.21,1.4.27Z"/>
      <path class="cls-7" d="m153.34,137.14c.46-.02.92-.09,1.29.28-.44-.06-.94.18-1.29-.28Z"/>
      <path class="cls-7" d="m109.56,178.49c.28.27.56.53.85.8-.59.06-.85-.23-.85-.8Z"/>
      <path class="cls-7" d="m87.66,5.21c-.43.26-.9.32-1.39.29.38-.51.91-.25,1.39-.29Z"/>
      <path class="cls-7" d="m16.49,115.78c-.02-.5,0-.99.27-1.43-.04.49.23,1.03-.27,1.43Z"/>
      <path class="cls-7" d="m279.37,113.87c.28.43.29.9.27,1.38-.48-.38-.23-.91-.27-1.38Z"/>
      <path class="cls-7" d="m147.09,168.35c-.3-.45-.3-.95-.26-1.46.5.41.23.96.26,1.46Z"/>
      <path class="cls-7" d="m127.38,261.27c.47.03.98-.09,1.39.26-.47-.05-1,.2-1.39-.26Z"/>
      <path class="cls-7" d="m292.59,107.18c-.13-.46-.25-.91-.38-1.37.66.31.3.9.38,1.37Z"/>
      <path class="cls-7" d="m157.66,171.22c.27-.28.54-.56.81-.84,0,.54-.27.82-.81.84Z"/>
      <path class="cls-7" d="m138.98,145.08c-.13-.47-.25-.94-.38-1.41.68.32.31.92.38,1.41Z"/>
      <path class="cls-7" d="m118.74,143.64c.04.51,0,1-.25,1.46.03-.5-.22-1.04.25-1.46Z"/>
      <path class="cls-7" d="m114.39,139.88c-.21-.36-.41-.72-.62-1.08.61.13.65.58.62,1.08Z"/>
      <path class="cls-7" d="m293.12,109.64c-.13-.46-.25-.93-.38-1.39.67.31.31.91.38,1.39Z"/>
      <path class="cls-7" d="m143.57,139.05c-.04.4-.16.76-.5,1-.03-.43.07-.8.5-1Z"/>
      <path class="cls-7" d="m120.32,270.6c-.46-.13-.91-.26-1.37-.38.47.08,1.06-.28,1.37.38Z"/>
      <path class="cls-7" d="m164.16,169.06c0-.48,0-.95.24-1.39-.03.47.21.99-.24,1.39Z"/>
      <path class="cls-7" d="m123.04,271.05c-.5,0-1,0-1.44-.29.49.04,1.05-.25,1.44.29Z"/>
      <path class="cls-7" d="m124.4,271.31c-.48,0-.96.03-1.38-.27.47.03,1-.23,1.38.27Z"/>
      <path class="cls-7" d="m173.21,271.04c-.45.29-.96.28-1.47.28.4-.54.97-.24,1.47-.28Z"/>
      <path class="cls-7" d="m125.76,271.55c-.48.02-.95.02-1.38-.25.47.04.99-.2,1.38.25Z"/>
      <path class="cls-7" d="m171.77,271.31c-.43.28-.91.27-1.39.25.39-.47.92-.23,1.39-.25Z"/>
      <path class="cls-7" d="m143.9,167.94c.28.43.31.91.28,1.4-.51-.38-.25-.92-.28-1.4Z"/>
      <path class="cls-7" d="m16.92,113.06c.16-.46.06-.98.38-1.39-.07.48.3,1.08-.38,1.39Z"/>
      <path class="cls-7" d="m161.72,140.14c-.19-.36-.39-.72-.58-1.08.56.17.61.6.58,1.08Z"/>
      <path class="cls-7" d="m156.3,140.43c-.28-.28-.56-.55-.84-.83.56,0,.84.27.84.83Z"/>
      <path class="cls-7" d="m123.56,170.51c-.31-.44-.3-.94-.29-1.44.55.39.25.95.29,1.44Z"/>
      <path class="cls-3" d="m133.85,173.11c.27-.28.55-.56.82-.85,0,.55-.27.84-.82.85Z"/>
      <path class="cls-7" d="m178.49,142.35c.31.38.27.84.28,1.29-.46-.35-.22-.85-.28-1.29Z"/>
      <path class="cls-7" d="m279.09,112.6c.37.37.28.84.3,1.29-.49-.34-.23-.85-.3-1.29Z"/>
      <path class="cls-7" d="m114.65,141.3c-.09-.48-.18-.96-.27-1.44.5.4.23.95.27,1.44Z"/>
      <path class="cls-7" d="m142.52,141.75c.03.48.02.96-.25,1.38.03-.47-.2-.99.25-1.38Z"/>
      <path class="cls-7" d="m151.64,141.72c.47-.25.93-.37,1.39.03-.46,0-.93-.02-1.39-.03Z"/>
      <path class="cls-7" d="m145.8,141.47c.03-.43.22-.78.51-1.09.03.46-.04.87-.51,1.09Z"/>
      <path class="cls-7" d="m53.56,26.01c.23-.42.51-.77,1.03-.81-.21.43-.53.74-1.03.81Z"/>
      <path class="cls-3" d="m248.41,71.68c-5.23-.4-9.79-1.97-14.05-4.44-5.59-3.23-10.38-7.47-14.92-11.99-3.51-3.49-6.92-7.1-10.36-10.66-.85-.88-1.74-1.7-2.8-2.32-2.54-1.5-5.29-.95-7.06,1.41-.75.99-1.15,2.13-1.51,3.3-4.99,16.09-10.48,32-17.32,47.42-1.57,3.54-3.2,7.05-4.95,10.51-1.43,2.83-1.41,5.56.18,8.23.54.92.37,1.23-.5,1.69-7.39,3.88-15.35,5.36-23.6,5.52-10.13.19-20.02-1.5-29.73-4.21-7.81-2.18-15.69-3.2-23.78-2.53-.43.04-.87,0-1.35,0,4.74-6.33,10.54-10.93,18.46-12.44,5.26-1,10.62-1.43,15.84-2.69,6.68-1.61,13.04-3.89,18.36-8.43,3.93-3.35,6.81-7.54,9.44-11.92,9.81-16.38,19.4-32.9,28.94-49.44,3.08-5.34,6.24-10.65,9.08-16.13.91-1.76,1.98-3.44,3.45-4.81,2.57-2.39,4.67-2.27,6.63.63,3,4.44,5.79,9.02,8.75,13.49,10.66,16.12,21.65,32.02,31.96,48.37.26.41.49.83.85,1.45Z"/>
      <path class="cls-3" d="m160.75,240.85c.04,5.48-4.31,9.91-9.79,9.97-5.52.07-10.03-4.36-10.06-9.86-.02-5.46,4.37-9.93,9.81-9.98,5.54-.05,10.01,4.34,10.04,9.87Z"/>
      <path class="cls-3" d="m175.01,215.49c0,5.53-4.45,9.96-9.98,9.93-5.49-.04-9.85-4.42-9.86-9.91,0-5.52,4.46-9.97,9.97-9.94,5.45.03,9.86,4.47,9.86,9.92Z"/>
      <path class="cls-3" d="m135.77,225.42c-5.54-.03-9.91-4.48-9.85-10.04.06-5.46,4.5-9.84,9.96-9.81,5.5.03,9.92,4.53,9.87,10.05-.04,5.43-4.52,9.83-9.98,9.79Z"/>
      <path class="cls-3" d="m126.23,146.98c.02-.37-.02-1.05.12-1.7.22-1.06.89-1.76,2.01-1.89,1.17-.14,2.02.34,2.5,1.41.18.4.31.85.34,1.29.21,2.55.44,5.11.57,7.67.1,1.87-.79,2.96-2.3,3.05-1.43.09-2.5-.98-2.67-2.79-.21-2.24-.36-4.48-.56-7.03Z"/>
      <path class="cls-3" d="m151.14,160.14c0-.56-.06-1.24.01-1.91.13-1.16.82-1.88,1.98-2.07,1.16-.18,2.02.3,2.55,1.33.18.35.32.76.35,1.15.22,2.64.42,5.29.59,7.94.06.88-.12,1.72-.81,2.35-.68.63-1.49.81-2.38.53-1.07-.34-1.59-1.19-1.71-2.22-.23-1.96-.35-3.94-.52-5.91-.03-.36-.05-.72-.07-1.19Z"/>
      <path class="cls-3" d="m180.46,163.85c-.02.5.03,1.28-.11,2.02-.2,1.07-.88,1.75-2.01,1.88-1.17.14-2.01-.34-2.51-1.4-.15-.32-.28-.68-.31-1.03-.22-2.73-.47-5.46-.59-8.2-.07-1.71.84-2.68,2.3-2.75,1.42-.07,2.44.82,2.62,2.5.25,2.23.39,4.48.6,6.98Z"/>
      <path class="cls-11" d="m110.08,107.11c.04,1.19-.18,2.04-.78,2.76-.76.91-1.83,1.03-2.74.34-1.03-.79-1.01-1.24.08-1.96.75-.49,1.49-.99,2.25-1.47.32-.2.65-.67,1.04-.4.2.14.14.64.15.72Z"/>
      <path class="cls-9" d="m143.28,241c3.43,1.36,7.17,2.06,10.19,4.43.65.51,1.8,1.02,1.6,1.79-.2.8-1.42.97-2.28,1.2-4.51,1.21-9.14-1.95-9.68-6.58-.03-.26-.09-.53.17-.84Z"/>
      <path class="cls-8" d="m153.03,240.87c-.65.75-1.27,1.03-2.23.53-1.96-1.03-4.1-1.62-6.2-2.27-1.18-.37-1.24-.84-.6-1.79.74-1.09,1.52-2.12,2.6-2.88.17-.12.43-.24.61-.19.28.07.18.36.13.57-.41,1.62.5,2.65,1.62,3.57,1.22,1,2.67,1.64,4.07,2.47Z"/>
      <path class="cls-4" d="m153.94,242.97c1.47-.91,2.92-1.8,4.37-2.69.5,1.24-.1,4.03-1.02,4.99-.33.34-.51.2-.76-.03-.84-.74-1.68-1.48-2.58-2.26Z"/>
      <path class="cls-10" d="m153.22,234.57c0,1.55-.75,2.86-1.56,2.9-.66.03-2.17-1.32-2.16-1.94,0-1.09,1.03-2.4,1.87-2.36,1.03.05,2.06.12,1.86,1.41Z"/>
      <path class="cls-6" d="m155.38,234.72c.86.46,1.34,1.05,1.74,1.68.37.58.96,1.22.08,1.85-.82.59-1.51,1.68-2.79.84-.37-.24-.55-.4-.19-.8.86-.95,1.05-2.15,1.15-3.58Z"/>
      <path class="cls-9" d="m157.44,215.58c2.58.96,5.15,1.65,7.56,2.78,1.1.52,2.15,1.14,3.07,1.94.5.44,1.4.86,1.3,1.43-.13.76-1.14.9-1.84,1.13-4.94,1.66-10.28-2.11-10.09-7.28Z"/>
      <path class="cls-8" d="m161.98,208.35c-1.05,2.3-.11,3.62,1.35,4.75,1.21.93,2.59,1.57,3.94,2.35-.69.88-1.37,1-2.35.48-1.91-1.01-4.01-1.59-6.06-2.22-1.19-.36-1.22-.85-.61-1.78.9-1.37,1.92-2.57,3.74-3.58Z"/>
      <path class="cls-5" d="m168.19,217.56c1.52-.93,3-1.84,4.56-2.8.27,1.84-.21,3.38-1.06,4.85-.29.5-.54.62-1.01.15-.77-.75-1.61-1.43-2.48-2.2Z"/>
      <path class="cls-5" d="m167.44,209.23c0,1.57-.74,2.82-1.57,2.83-.66.01-2.2-1.38-2.18-1.96.05-1.1,1.09-2.39,1.92-2.35,1.03.06,2.09.11,1.83,1.48Z"/>
      <path class="cls-6" d="m169.66,209.38c.69.26,1.01.7,1.35,1.11,1.26,1.54.82,2.89-1.12,3.49-.6.19-1.08-.17-1.46-.49-.49-.42.16-.68.34-.96.61-.93.76-1.99.89-3.15Z"/>
      <path class="cls-9" d="m135.88,223.25c-3.81.04-7.17-2.78-7.71-6.43-.13-.9-.12-1.37,1.03-.91,2.33.93,4.79,1.54,7.05,2.69,1.21.62,2.26,1.45,3.31,2.31.94.77.62,1.16-.28,1.57-1.08.49-2.2.77-3.39.77Z"/>
      <path class="cls-8" d="m137.98,215.46c-.63.8-1.26,1.01-2.21.52-2-1.04-4.19-1.61-6.31-2.32-.87-.29-1.17-.62-.6-1.5.93-1.45,1.93-2.79,3.74-3.66-1,2.53.35,3.9,2.11,5.05,1.05.68,2.15,1.27,3.27,1.93Z"/>
      <path class="cls-4" d="m143.52,214.75c.23,1.9-.26,3.49-1.17,4.98-.24.39-.45.49-.83.13-.82-.76-1.67-1.49-2.58-2.29,1.53-.94,3-1.84,4.59-2.82Z"/>
      <path class="cls-5" d="m138.19,209.55c-.05,1.35-.8,2.52-1.61,2.5-.7-.01-2.17-1.38-2.13-1.99.07-1.14,1.08-2.35,1.94-2.32,1.55.06,1.86.36,1.81,1.8Z"/>
      <path class="cls-5" d="m140.43,209.31c1.03.66,1.8,1.46,2.08,2.48.34,1.27-1,1.49-1.7,2.06-.61.5-1.18-.07-1.69-.37-.25-.15-.06-.4.09-.56.88-.98,1.05-2.22,1.23-3.61Z"/>
    </g>
  </g>
</svg>