<?xml version="1.0" encoding="UTF-8"?>
<svg id="Layer_2" data-name="Layer 2" xmlns="http://www.w3.org/2000/svg" xmlns:xlink="http://www.w3.org/1999/xlink" viewBox="0 0 33.56 19.58">
  <defs>
    <style>
      .cls-1 {
        clip-path: url(#clippath);
      }

      .cls-2 {
        fill: none;
      }

      .cls-2, .cls-3, .cls-4, .cls-5, .cls-6, .cls-7 {
        stroke-width: 0px;
      }

      .cls-8 {
        clip-path: url(#clippath-1);
      }

      .cls-9 {
        clip-path: url(#clippath-4);
      }

      .cls-10 {
        clip-path: url(#clippath-3);
      }

      .cls-11 {
        clip-path: url(#clippath-2);
      }

      .cls-12 {
        clip-path: url(#clippath-7);
      }

      .cls-13 {
        clip-path: url(#clippath-8);
      }

      .cls-14 {
        clip-path: url(#clippath-6);
      }

      .cls-15 {
        clip-path: url(#clippath-5);
      }

      .cls-16 {
        clip-path: url(#clippath-9);
      }

      .cls-17 {
        clip-path: url(#clippath-14);
      }

      .cls-18 {
        clip-path: url(#clippath-13);
      }

      .cls-19 {
        clip-path: url(#clippath-12);
      }

      .cls-20 {
        clip-path: url(#clippath-10);
      }

      .cls-21 {
        clip-path: url(#clippath-15);
      }

      .cls-22 {
        clip-path: url(#clippath-11);
      }

      .cls-4 {
        fill: #c0003b;
      }

      .cls-5 {
        fill: #317267;
      }

      .cls-6 {
        fill: #fff;
      }

      .cls-7 {
        fill: #f5e129;
      }
    </style>
    <clipPath id="clippath">
      <rect class="cls-2" width="33.56" height="19.58"/>
    </clipPath>
    <clipPath id="clippath-1">
      <rect class="cls-2" width="33.56" height="19.58"/>
    </clipPath>
    <clipPath id="clippath-2">
      <rect class="cls-2" width="33.56" height="19.58"/>
    </clipPath>
    <clipPath id="clippath-3">
      <rect class="cls-2" width="33.56" height="19.58"/>
    </clipPath>
    <clipPath id="clippath-4">
      <rect class="cls-2" width="33.56" height="19.58"/>
    </clipPath>
    <clipPath id="clippath-5">
      <rect class="cls-2" width="33.56" height="19.58"/>
    </clipPath>
    <clipPath id="clippath-6">
      <rect class="cls-2" width="33.56" height="19.58"/>
    </clipPath>
    <clipPath id="clippath-7">
      <rect class="cls-2" width="33.56" height="19.58"/>
    </clipPath>
    <clipPath id="clippath-8">
      <rect class="cls-2" width="33.56" height="19.58"/>
    </clipPath>
    <clipPath id="clippath-9">
      <rect class="cls-2" width="33.56" height="19.58"/>
    </clipPath>
    <clipPath id="clippath-10">
      <rect class="cls-2" width="33.56" height="19.58"/>
    </clipPath>
    <clipPath id="clippath-11">
      <rect class="cls-2" width="33.56" height="19.58"/>
    </clipPath>
    <clipPath id="clippath-12">
      <rect class="cls-2" width="33.56" height="19.58"/>
    </clipPath>
    <clipPath id="clippath-13">
      <rect class="cls-2" width="33.56" height="19.58"/>
    </clipPath>
    <clipPath id="clippath-14">
      <rect class="cls-2" width="33.56" height="19.58"/>
    </clipPath>
    <clipPath id="clippath-15">
      <rect class="cls-2" width="33.56" height="19.58"/>
    </clipPath>
  </defs>
  <g id="Layer_1-2" data-name="Layer 1">
    <g id="MOZAMBIQUE">
      <g>
        <g class="cls-1">
          <rect class="cls-3" width="33.56" height="19.58"/>
        </g>
        <g class="cls-8">
          <rect class="cls-6" width="33.56" height="6.73"/>
        </g>
        <g class="cls-11">
          <rect class="cls-5" width="33.56" height="6.12"/>
        </g>
        <g class="cls-10">
          <rect class="cls-6" y="12.84" width="33.56" height="6.74"/>
        </g>
        <g class="cls-9">
          <rect class="cls-7" y="13.46" width="33.56" height="6.12"/>
        </g>
        <g class="cls-15">
          <polygon class="cls-4" points="0 0 0 19.58 12.85 9.79 0 0"/>
        </g>
        <g class="cls-14">
          <polygon class="cls-7" points="6.67 13.46 4.28 11.71 1.9 13.46 2.82 10.66 .42 8.93 3.38 8.93 4.28 6.12 5.19 8.94 8.14 8.92 5.74 10.66 6.67 13.46"/>
        </g>
        <g class="cls-12">
          <g>
            <g class="cls-13">
              <path class="cls-6" d="m2.21,11.5h1.72c.14.16.45.22.74,0,.54-.3,1.58,0,1.58,0l.2-.22-.5-1.64-.18-.19s-.38-.23-1.12-.15c-.73.07-.99-.03-.99-.03,0,0-.64.08-.82.17-.02.02-.21.2-.21.2l-.44,1.86Z"/>
            </g>
            <g class="cls-16">
              <path class="cls-3" d="m4.27,11.66h0c-.14,0-.28-.05-.36-.14h-1.7s.42-1.88.42-1.88c0-.01.19-.2.21-.22.19-.09.81-.16.83-.17.02,0,.27.1.99.02.73-.07,1.12.15,1.13.16l.18.19.51,1.66-.21.24s-.49-.13-.95-.13c-.27,0-.48.05-.64.13-.13.1-.27.15-.41.15h0Zm-.34-.18c.09.09.22.14.35.14h0c.13,0,.26-.05.38-.14.16-.09.39-.14.66-.14.47,0,.94.14.94.14l.19-.21-.51-1.62-.17-.18h0s-.39-.22-1.1-.15c-.73.08-.99-.02-1-.03,0,0-.63.08-.8.16-.02.02-.2.2-.2.2l-.43,1.85,1.7-.02h0Z"/>
            </g>
            <g class="cls-20">
              <path class="cls-3" d="m4.26,11.66c-.12,0-.24-.04-.36-.13.03-.07.15-.2.38-.3-.65-.26-1.71-.13-1.72-.13-.01,0-.02,0-.02-.02,0,0,0-.02.02-.02.05-.01,1.11-.14,1.76.15.33-.15.84-.27,1.59-.17.01,0,.02.01.02.02,0,.01-.01.02-.02.02-.74-.1-1.23.01-1.54.15.13.07.25.15.33.25-.15.12-.3.18-.43.18h0Zm.07-.42c-.28.13-.39.28-.4.28.23.15.46.15.73-.04-.08-.1-.2-.18-.33-.24h0Z"/>
            </g>
            <g class="cls-22">
              <polygon class="cls-3" points="4.32 11.25 4.3 9.44 4.33 9.44 4.32 11.25"/>
            </g>
            <g class="cls-19">
              <polygon class="cls-3" points="6.1 10.89 5.76 9.47 5.79 9.46 6.1 10.89"/>
            </g>
            <g class="cls-18">
              <path class="cls-3" d="m2.7,10.2h0s-.02-.02-.02-.03l.17-.74s.01-.02.03-.02c.01,0,.02.02.02.03l-.17.74s0,.02-.02.02h0Z"/>
            </g>
            <g class="cls-17">
              <path class="cls-3" d="m1.09,11.7l.4.48s.09.02.13,0l.6-.72.25-.31s.05-.09.05-.14l.48-.43s.06,0,.1,0c-.05,0-.08-.03-.04-.08l.11-.08.08.11s-.12.16-.13.16h-.13l-.25.23.11.1.17.45.2-.14-.13-.47.29-.31-.11-.16.07-.1s.99.63,1.38.46c.01,0,.02-.45.02-.45,0,0-1.03-.1-1.06-.3-.02-.2.23-.23.23-.23l-.11-.16.02-.08.18.23.41-.35,2.4,2.73c.13-.05.16-.08.17-.22,0,0-2.35-2.7-2.35-2.7l.18-.19s.05-.06.05-.12l.28-.24c.08.03.14.07.18.14l.76-.64s.08.04.12.02l1.25-1.2-1.37.97-.05-.03s.05-.05,0-.12c-.05-.07-.13.06-.15.06-.01,0-.2-.07-.24-.15v.22s-.36.33-.36.33l-.26-.02-.38.37-.05.14.06.12s-.2.18-.2.16c0,0-.04-.05-.04-.05l.17-.16.03-.11-.06-.09s-.24.25-.25.22c-.02-.02-.65-.73-.65-.73l.03-.13-.41-.45c-.15-.05-.38-.06-.43.27-.04.07-.35.01-.35.01l-.17.03-.95,1.34.53.64,1.08-1.37.03-.39.22.25c.08.01.15.01.22-.02l.64.72-.11.11s.06.06.1.1c.04-.02.07-.05.1-.08.01.02.03.05.04.06-.05.03-.09.07-.15.1-.08-.06-.17-.13-.16-.24l-.36.3v.06s-1.08.89-1.08.89h-.1s-.02.29-.02.29l.69-.58v-.08l.07.06.54-.43s.04.04.02.04c-.01,0-.48.43-.48.43v.05s-.09.07-.09.07l-.05-.04-.65.58h-.1l-.36.36c-.09,0-.17.02-.25.07l-.64.56Z"/>
            </g>
            <g class="cls-21">
              <path class="cls-3" d="m1.56,12.21s-.05,0-.08-.02l-.41-.48.65-.6c.08-.05.16-.07.26-.07l.35-.35h.11s.63-.57.63-.57l.07.03.06-.11c.36-.34.46-.41.48-.44h0s-.02-.01-.03-.02l-.51.44-.1-.06.03.07-.71.59v-.29s.1-.03.1-.03l1.06-.88v-.05s.37-.31.37-.31c.03.12.11.18.19.23,0-.02.03-.03.05-.05.02-.02.05-.03.08-.05h-.03s-.1.05-.1.05l-.12-.1.11-.13-.64-.69s-.12.04-.2.03l-.24-.26v.38s-1.08,1.37-1.08,1.37l-.56-.63.94-1.37.18-.04s.13.02.23.02c.09,0,.1-.02.11-.02.06-.38.35-.32.46-.28l.42.45-.03.15h0s.62.69.64.71c0-.01.13-.12.17-.18.03-.03.05-.05.05-.05l.06.07.03-.08.39-.38h.28s.33-.32.33-.32v-.2c.08.06.25.12.27.12.03-.03.06-.07.11-.07,0,0,.05.02.05.02.04.05.03.08.01.11l.03.04,1.34-.97s.02,0,.03,0c0,.01,0,.02,0,.03l-1.25,1.2c-.05.03-.12.02-.15-.02l-.73.65c-.08-.08-.13-.12-.2-.14l-.26.24s0,.07-.05.11l-.18.19h0s2.33,2.65,2.35,2.67c0,.15-.04.2-.18.25l-2.42-2.74-.38.35-.21-.23v.07s.12.14.12.14c-.02.03-.14.04-.19.11-.03.03-.03.08-.03.12.02.14.65.25,1.04.29,0,.48,0,.48-.03.48-.04.02-.09.03-.16.03-.45,0-1.2-.47-1.23-.49l-.04.09.11.15-.29.34.14.45-.21.16-.2-.47-.1-.09.25-.25h.15s.06-.09.11-.16l-.08-.08-.08.09s0,.04.04.05c0,0,.02.02.01.02,0,.01-.01.02-.02.02h-.1s-.47.41-.47.41c.01.02,0,.08-.05.14l-.85,1.03s-.06.03-.08.03h0Zm1.52-2.08l-.62.57h-.11s-.34.36-.34.36c-.11.01-.18.02-.26.07l-.64.57.41.45s.07.02.1,0l.85-1.02c.04-.05.04-.1.04-.13l.49-.44h.04s0,0,0,0c0-.02,0-.05.02-.07l.11-.08.11.11c-.12.19-.13.19-.15.19h-.13l-.24.22.11.07.17.47.17-.15-.14-.45.29-.33-.11-.15.07-.12h0s.8.48,1.24.48c.06,0,.11,0,.15-.03,0-.02,0-.27.01-.43-.08.01-1.03-.09-1.06-.3,0-.06,0-.11.04-.15.07-.09.2-.1.21-.1l-.12-.12.02-.1.22.22.38-.35,2.43,2.73c.1-.06.12-.09.13-.2-.01,0-.19-.21-2.35-2.68l.18-.22s.04-.05.04-.1l.28-.25c.1.02.16.07.21.14l.73-.64s.06.02.09.02l1.07-1-1.13.8-.07-.04s0-.05,0-.06c.01-.02.02-.03,0-.06-.04-.01-.07.02-.09.04,0,0-.03.03-.03.03-.02,0-.21-.07-.26-.16l.03.21-.35.34h-.28s-.37.35-.37.35l-.04.14.06.1c-.2.2-.21.2-.22.2-.02-.02-.04-.04-.05-.05,0-.01-.02-.04-.01-.04l.17-.16v-.06s-.03-.09-.03-.09c0,0-.01.02-.03.03-.15.14-.19.18-.21.18-.04-.03-.67-.74-.67-.74l.03-.15-.4-.42s-.08-.02-.13-.02c-.15,0-.24.09-.26.28-.02.03-.07.05-.15.05-.1,0-.22-.03-.23-.03l-.16.04-.94,1.33.53.61,1.05-1.36.03-.38.26.24h.06s.09,0,.13-.03l.66.72-.11.13.05.02.05.05.03-.04.05-.04s.04.02.05.03l.02.03s-.05.06-.08.08c-.02.02-.05.03-.07.05-.11-.06-.2-.14-.19-.26l-.33.31v.05s-1.08.9-1.08.9l-.11.02v.26s.66-.59.66-.59v-.07s.1.04.1.04l.51-.43c.07.05.06.06.06.07-.03.02-.31.27-.49.44v.03s-.1.09-.1.09l-.07-.03h0Zm1.53-1.35v.02s-.19.16-.19.16c.03.01.05.03.05.04,0-.03.09-.11.17-.18l-.03-.05h0Z"/>
            </g>
          </g>
        </g>
      </g>
    </g>
  </g>
</svg>