<?xml version="1.0" encoding="UTF-8"?>
<svg id="Layer_2" data-name="Layer 2" xmlns="http://www.w3.org/2000/svg" xmlns:xlink="http://www.w3.org/1999/xlink" viewBox="0 0 33.56 19.58">
  <defs>
    <style>
      .cls-1 {
        clip-path: url(#clippath);
      }

      .cls-2 {
        fill: none;
      }

      .cls-2, .cls-3, .cls-4, .cls-5, .cls-6, .cls-7 {
        stroke-width: 0px;
      }

      .cls-8 {
        clip-path: url(#clippath-1);
      }

      .cls-9 {
        clip-path: url(#clippath-4);
      }

      .cls-10 {
        clip-path: url(#clippath-3);
      }

      .cls-11 {
        clip-path: url(#clippath-2);
      }

      .cls-12 {
        clip-path: url(#clippath-7);
      }

      .cls-13 {
        clip-path: url(#clippath-8);
      }

      .cls-14 {
        clip-path: url(#clippath-6);
      }

      .cls-15 {
        clip-path: url(#clippath-5);
      }

      .cls-3 {
        fill: #3d9546;
      }

      .cls-4 {
        fill: #1f357e;
      }

      .cls-5 {
        fill: #c0003b;
      }

      .cls-6 {
        fill: #fff;
      }

      .cls-7 {
        fill: #f5cd28;
      }
    </style>
    <clipPath id="clippath">
      <rect class="cls-2" width="33.56" height="19.58"/>
    </clipPath>
    <clipPath id="clippath-1">
      <rect class="cls-2" width="33.56" height="19.58"/>
    </clipPath>
    <clipPath id="clippath-2">
      <rect class="cls-2" width="33.56" height="19.58"/>
    </clipPath>
    <clipPath id="clippath-3">
      <rect class="cls-2" width="33.56" height="19.58"/>
    </clipPath>
    <clipPath id="clippath-4">
      <rect class="cls-2" width="33.56" height="19.58"/>
    </clipPath>
    <clipPath id="clippath-5">
      <rect class="cls-2" width="33.56" height="19.58"/>
    </clipPath>
    <clipPath id="clippath-6">
      <rect class="cls-2" width="33.56" height="19.58"/>
    </clipPath>
    <clipPath id="clippath-7">
      <rect class="cls-2" width="33.56" height="19.58"/>
    </clipPath>
    <clipPath id="clippath-8">
      <rect class="cls-2" width="33.56" height="19.58"/>
    </clipPath>
  </defs>
  <g id="Layer_1-2" data-name="Layer 1">
    <g id="NAMIBIA">
      <g>
        <g class="cls-1">
          <polygon class="cls-4" points="0 0 0 19.58 33.56 0 0 0"/>
        </g>
        <g class="cls-8">
          <polygon class="cls-3" points="33.56 0 0 19.58 33.56 19.58 33.56 0"/>
        </g>
        <g class="cls-11">
          <g>
            <g class="cls-10">
              <polygon class="cls-6" points="1.76 22.59 -1.76 16.57 31.8 -3.01 35.32 3.02 1.76 22.59"/>
            </g>
            <g class="cls-9">
              <polygon class="cls-5" points="1.32 21.84 -1.32 17.32 32.24 -2.25 34.88 2.26 1.32 21.84"/>
            </g>
          </g>
        </g>
        <g class="cls-15">
          <polygon class="cls-7" points="9.91 7.02 8.47 6.77 8.72 8.21 7.59 7.28 7.08 8.65 6.58 7.28 5.45 8.21 5.7 6.77 4.26 7.02 5.19 5.9 3.82 5.39 5.19 4.88 4.26 3.75 5.7 4 5.45 2.56 6.58 3.5 7.08 2.12 7.59 3.5 8.72 2.56 8.47 4 9.91 3.75 8.97 4.88 10.35 5.39 8.97 5.9 9.91 7.02"/>
        </g>
        <g class="cls-14">
          <g>
            <g class="cls-12">
              <path class="cls-4" d="m9.04,5.39c0,1.08-.88,1.96-1.96,1.96s-1.96-.88-1.96-1.96.88-1.96,1.96-1.96c1.08,0,1.96.87,1.96,1.96"/>
            </g>
            <g class="cls-13">
              <path class="cls-7" d="m8.72,5.39c0,.9-.73,1.63-1.63,1.63s-1.63-.73-1.63-1.63.73-1.64,1.63-1.64,1.63.74,1.63,1.64"/>
            </g>
          </g>
        </g>
      </g>
    </g>
  </g>
</svg>