<?xml version="1.0" encoding="UTF-8"?>
<svg id="Layer_2" data-name="Layer 2" xmlns="http://www.w3.org/2000/svg" xmlns:xlink="http://www.w3.org/1999/xlink" viewBox="0 0 33.56 19.58">
  <defs>
    <style>
      .cls-1 {
        clip-path: url(#clippath);
      }

      .cls-2 {
        fill: none;
      }

      .cls-2, .cls-3, .cls-4, .cls-5 {
        stroke-width: 0px;
      }

      .cls-6 {
        clip-path: url(#clippath-1);
      }

      .cls-7 {
        clip-path: url(#clippath-4);
      }

      .cls-8 {
        clip-path: url(#clippath-3);
      }

      .cls-9 {
        clip-path: url(#clippath-2);
      }

      .cls-10 {
        clip-path: url(#clippath-7);
      }

      .cls-11 {
        clip-path: url(#clippath-8);
      }

      .cls-12 {
        clip-path: url(#clippath-6);
      }

      .cls-13 {
        clip-path: url(#clippath-5);
      }

      .cls-14 {
        clip-path: url(#clippath-9);
      }

      .cls-15 {
        clip-path: url(#clippath-20);
      }

      .cls-16 {
        clip-path: url(#clippath-21);
      }

      .cls-17 {
        clip-path: url(#clippath-14);
      }

      .cls-18 {
        clip-path: url(#clippath-13);
      }

      .cls-19 {
        clip-path: url(#clippath-12);
      }

      .cls-20 {
        clip-path: url(#clippath-10);
      }

      .cls-21 {
        clip-path: url(#clippath-15);
      }

      .cls-22 {
        clip-path: url(#clippath-17);
      }

      .cls-23 {
        clip-path: url(#clippath-16);
      }

      .cls-24 {
        clip-path: url(#clippath-19);
      }

      .cls-25 {
        clip-path: url(#clippath-11);
      }

      .cls-26 {
        clip-path: url(#clippath-18);
      }

      .cls-3 {
        fill: #1a237b;
      }

      .cls-4 {
        fill: #bd0034;
      }

      .cls-5 {
        fill: #fff;
      }
    </style>
    <clipPath id="clippath">
      <rect class="cls-2" width="33.56" height="19.58"/>
    </clipPath>
    <clipPath id="clippath-1">
      <rect class="cls-2" width="33.56" height="19.58"/>
    </clipPath>
    <clipPath id="clippath-2">
      <rect class="cls-2" width="33.56" height="19.58"/>
    </clipPath>
    <clipPath id="clippath-3">
      <rect class="cls-2" width="33.56" height="19.58"/>
    </clipPath>
    <clipPath id="clippath-4">
      <rect class="cls-2" width="33.56" height="19.58"/>
    </clipPath>
    <clipPath id="clippath-5">
      <rect class="cls-2" width="33.56" height="19.58"/>
    </clipPath>
    <clipPath id="clippath-6">
      <rect class="cls-2" width="33.56" height="19.58"/>
    </clipPath>
    <clipPath id="clippath-7">
      <rect class="cls-2" width="33.56" height="19.58"/>
    </clipPath>
    <clipPath id="clippath-8">
      <rect class="cls-2" width="33.56" height="19.58"/>
    </clipPath>
    <clipPath id="clippath-9">
      <rect class="cls-2" width="33.56" height="19.58"/>
    </clipPath>
    <clipPath id="clippath-10">
      <rect class="cls-2" width="33.56" height="19.58"/>
    </clipPath>
    <clipPath id="clippath-11">
      <rect class="cls-2" width="33.56" height="19.58"/>
    </clipPath>
    <clipPath id="clippath-12">
      <rect class="cls-2" width="33.56" height="19.58"/>
    </clipPath>
    <clipPath id="clippath-13">
      <rect class="cls-2" width="33.56" height="19.58"/>
    </clipPath>
    <clipPath id="clippath-14">
      <rect class="cls-2" width="33.56" height="19.58"/>
    </clipPath>
    <clipPath id="clippath-15">
      <rect class="cls-2" width="33.56" height="19.58"/>
    </clipPath>
    <clipPath id="clippath-16">
      <rect class="cls-2" width="33.56" height="19.58"/>
    </clipPath>
    <clipPath id="clippath-17">
      <rect class="cls-2" width="33.56" height="19.58"/>
    </clipPath>
    <clipPath id="clippath-18">
      <rect class="cls-2" width="33.56" height="19.58"/>
    </clipPath>
    <clipPath id="clippath-19">
      <rect class="cls-2" width="33.56" height="19.58"/>
    </clipPath>
    <clipPath id="clippath-20">
      <rect class="cls-2" width="33.56" height="19.58"/>
    </clipPath>
    <clipPath id="clippath-21">
      <rect class="cls-2" width="33.56" height="19.58"/>
    </clipPath>
  </defs>
  <g id="Layer_1-2" data-name="Layer 1">
    <g id="NEW_ZEALAND" data-name="NEW ZEALAND">
      <g>
        <g class="cls-1">
          <polygon class="cls-3" points="16.79 0 16.79 .62 16.79 .84 16.79 .94 13.06 2.8 16.79 2.8 16.79 3.36 16.79 4.2 16.79 5.04 16.79 5.6 13.06 5.6 16.79 7.46 16.79 7.77 16.79 8.39 16.79 8.45 15.64 8.45 15.21 8.45 15.01 8.45 9.79 5.83 9.79 8.45 9.23 8.45 8.39 8.45 7.55 8.45 6.99 8.45 6.99 5.83 1.76 8.45 1.14 8.45 0 8.45 0 19.58 33.56 19.58 33.56 0 16.79 0"/>
        </g>
        <g class="cls-6">
          <polygon class="cls-3" points="0 5.6 0 7.45 3.72 5.6 0 5.6"/>
        </g>
        <g class="cls-9">
          <polygon class="cls-3" points="9.79 0 9.79 2.56 14.9 0 9.79 0"/>
        </g>
        <g class="cls-8">
          <polygon class="cls-3" points="6.99 0 1.88 0 6.99 2.56 6.99 0"/>
        </g>
        <g class="cls-7">
          <polygon class="cls-3" points="0 2.8 3.72 2.8 0 .94 0 2.8"/>
        </g>
        <g class="cls-13">
          <polygon class="cls-5" points="16.78 0 11.19 2.8 9.93 2.8 15.53 0 14.9 0 9.79 2.56 9.79 0 9.23 0 9.23 2.84 9.23 3.15 9.23 3.36 10.07 3.36 11.32 3.36 11.75 3.36 11.94 3.36 16.79 3.36 16.79 2.8 13.06 2.8 16.79 .94 16.79 .84 16.79 .62 16.79 0 16.78 0"/>
        </g>
        <g class="cls-12">
          <polygon class="cls-5" points="6.99 0 6.99 2.56 1.88 0 0 0 5.59 2.8 4.34 2.8 0 .63 0 .94 3.72 2.8 0 2.8 0 3.36 4.84 3.36 5.46 3.36 6.71 3.36 7.55 3.36 7.55 3.15 7.55 2.94 7.55 2.84 7.55 0 6.99 0"/>
        </g>
        <g class="cls-10">
          <polygon class="cls-5" points="11.32 5.04 10.07 5.04 9.23 5.04 9.23 5.24 9.23 5.46 9.23 5.55 9.23 8.45 9.79 8.45 9.79 5.83 15.01 8.45 15.21 8.45 15.64 8.45 16.79 8.45 16.79 8.39 11.19 5.6 12.44 5.6 16.79 7.77 16.79 7.46 13.06 5.6 16.79 5.6 16.79 5.04 11.94 5.04 11.32 5.04"/>
        </g>
        <g class="cls-11">
          <polygon class="cls-5" points="6.71 5.04 5.46 5.04 5.03 5.04 4.84 5.04 0 5.04 0 5.6 3.72 5.6 0 7.45 0 8.39 5.59 5.6 6.84 5.6 1.14 8.45 1.76 8.45 6.99 5.83 6.99 8.45 7.55 8.45 7.55 5.55 7.55 5.24 7.55 5.04 6.71 5.04"/>
        </g>
        <g class="cls-14">
          <polygon class="cls-4" points="5.59 5.6 0 8.39 0 8.45 1.14 8.45 6.84 5.6 5.59 5.6"/>
        </g>
        <g class="cls-20">
          <polygon class="cls-4" points="0 .63 4.34 2.8 5.59 2.8 0 0 0 .63"/>
        </g>
        <g class="cls-25">
          <polygon class="cls-4" points="16.78 0 15.53 0 9.93 2.8 11.19 2.8 16.78 0"/>
        </g>
        <g class="cls-19">
          <polygon class="cls-4" points="11.19 5.6 16.79 8.39 16.79 7.77 12.44 5.6 11.19 5.6"/>
        </g>
        <g class="cls-18">
          <polygon class="cls-4" points="7.55 0 7.55 2.84 7.55 2.94 7.55 3.15 7.55 3.36 6.71 3.36 5.46 3.36 4.84 3.36 0 3.36 0 5.04 4.84 5.04 5.03 5.04 5.46 5.04 6.71 5.04 7.55 5.04 7.55 5.24 7.55 5.55 7.55 8.45 8.39 8.45 9.23 8.45 9.23 5.55 9.23 5.46 9.23 5.24 9.23 5.04 10.07 5.04 11.32 5.04 11.94 5.04 16.79 5.04 16.79 4.2 16.79 3.36 11.94 3.36 11.75 3.36 11.32 3.36 10.07 3.36 9.23 3.36 9.23 3.15 9.23 2.84 9.23 0 7.55 0"/>
        </g>
        <g class="cls-17">
          <polygon class="cls-5" points="23.3 5.71 24.21 5.71 24.49 4.85 24.77 5.71 25.68 5.71 24.95 6.25 25.23 7.12 24.49 6.58 23.75 7.12 24.03 6.25 23.3 5.71"/>
        </g>
        <g class="cls-21">
          <polygon class="cls-4" points="23.7 5.85 24.3 5.85 24.49 5.27 24.68 5.85 25.28 5.85 24.79 6.2 24.98 6.78 24.49 6.42 24 6.78 24.19 6.2 23.7 5.85"/>
        </g>
        <g class="cls-23">
          <polygon class="cls-5" points="19.65 9.39 20.56 9.39 20.84 8.52 21.12 9.39 22.04 9.39 21.3 9.92 21.58 10.79 20.84 10.25 20.11 10.79 20.39 9.92 19.65 9.39"/>
        </g>
        <g class="cls-22">
          <polygon class="cls-4" points="20.05 9.52 20.65 9.52 20.84 8.94 21.03 9.52 21.63 9.52 21.14 9.87 21.33 10.45 20.84 10.09 20.35 10.45 20.54 9.87 20.05 9.52"/>
        </g>
        <g class="cls-26">
          <polygon class="cls-5" points="26.55 8.48 27.37 8.48 27.62 7.7 27.87 8.48 28.68 8.48 28.02 8.95 28.28 9.72 27.62 9.25 26.96 9.72 27.21 8.95 26.55 8.48"/>
        </g>
        <g class="cls-24">
          <polygon class="cls-4" points="26.91 8.59 27.45 8.59 27.62 8.08 27.78 8.59 28.32 8.59 27.89 8.91 28.05 9.42 27.62 9.1 27.18 9.42 27.35 8.91 26.91 8.59"/>
        </g>
        <g class="cls-15">
          <polygon class="cls-5" points="23.16 15.14 24.18 15.14 24.49 14.18 24.8 15.14 25.82 15.14 25 15.74 25.31 16.71 24.49 16.11 23.67 16.71 23.98 15.74 23.16 15.14"/>
        </g>
        <g class="cls-16">
          <polygon class="cls-4" points="23.61 15.29 24.28 15.29 24.49 14.65 24.7 15.29 25.37 15.29 24.83 15.69 25.03 16.32 24.49 15.93 23.95 16.32 24.16 15.69 23.61 15.29"/>
        </g>
      </g>
    </g>
  </g>
</svg>