<?xml version="1.0" encoding="UTF-8"?>
<svg id="Layer_2" data-name="Layer 2" xmlns="http://www.w3.org/2000/svg" viewBox="0 0 426.87 427.28">
  <defs>
    <style>
      .cls-1 {
        fill: #00bbe5;
      }

      .cls-1, .cls-2, .cls-3, .cls-4, .cls-5, .cls-6 {
        fill-rule: evenodd;
        stroke-width: 0px;
      }

      .cls-2 {
        fill: #231f20;
      }

      .cls-3 {
        fill: #b1babf;
      }

      .cls-4 {
        fill: #fff;
      }

      .cls-5 {
        fill: #f15d2f;
      }

      .cls-6 {
        fill: #bba756;
      }
    </style>
  </defs>
  <g id="Layer_1-2" data-name="Layer 1">
    <g>
      <path class="cls-2" d="m53.18,307.02c-2.45,6.53-5.46,14.46-5.46,14.46,1.98,1.49,10.91,2.98,10.91,2.98,4.47-3.97,9.92-2.48,12.65-2.23,2.73.25,9.92,5.7,10.67,5.7s10.91-.25,21.33,1.24c10.42,1.49,14.39,8.43,14.88,10.67.5,2.23-2.08,7.24-2.48,9.43-.13.68-.06,2.67-.06,2.67,61.95,18.23,96.93,16.19,96.93,16.19,0,0,0-.56-7.07-8.37-7.07-7.81-22.88-16.93-36.28-24.56-13.4-7.63-21.21-14.7-27.53-22.88-1.24-1.61-2.25-3.41-3.08-5.28h.01-.01c-3.38-7.65-3.62-16.3-3.62-16.3l-.67.04c.33,3.13-1.12,4.91-1.64,7.7-1.04,1.49-1.23,3.72-2.3,5.39-.29,1.37-1.39,1.97-2.06,3.16-.02.04-.04.08-.06.11l.15.19c-1.56,1.97-3.64,3.05-5.73,4.43-.79.04-1.08.82-1.78,1.15-2.91,1.3-6.15,2.72-9.01,3.09l-.34.33c-3.12-.04-6.7.86-10.31-.15.04-.19-.11-.26-.19-.33-.04.71-.93.52-1.3.33-.33-.37-1.12-.11-1.63-.33-.71.33-1.45-.82-2.12-.48l-.52-.52-.15.19c-1.6-.37-2.53-1.67-4.09-1.64-.89-1.38-2.87-1.27-3.76-2.64-1.52-1.01-2.92-2.28-4.21-3.72h.03-.03c-2.52-2.82-4.6-6.26-6.28-9.53-2.72-5.1-3.13-11.05-4.43-16.71-.93-1.38-2.94-1.86-2.94-3.79,1.67-1.38,2.91-3.28,2.12-5.39-.82-1.83-1.82-3.57-4.09-3.76-.37-.52-.86-1.04-.67-1.79,1.01-.37,1.86-1.12,2.79-1.64,2.23-1.41,2.9-4.65,2.79-6.73-.15-2.27-2.38-3.83-3.76-5.25l.15-1.45c1.83.52,3.87-.7,5.1-2.16-.45-1.75-2.45-.78-3.13-1.97-.78.56-1.82-1.12-2.27.33.11-.26-.19-.44-.34-.63-3.94-.04-6.81-.74-10.82.3-.79-.04-1.23.71-2.12.52-.45.52-1.23.97-1.97,1.15-.79.93-1.97,1.53-2.31,2.75-1.34.86-1.71,2.46-2.27,3.8l-.34.3c-1.08,3.46-.15,6.7.48,10.01,1.72,5.62,4.62,13.58.67,19.31-.78-1.49-.38-3.87-1.64-5.4-2.64-4.02-6.73-5.5-9.49-9.15-.08-.22.11-.56-.19-.67-.34-.04-.6.04-.82.34-.11.6.3,1.38-.34,1.79-1.45-1.01-1.23-3.05-1.45-4.73.41-2.05.37-4.13-.34-6.06.11-1.01-.78-1.97-1.15-2.98-.67-.19-1.56.3-1.97.82-.79-.19-.52-1.12-.63-1.79,2.49-2.31,2.56-5.58,3.09-8.67.34-1.34-1.15-.6-1.45-1.64,0,.48-.63.3-.81.15-.12-.19-.34-.15-.52-.15-.52-1.34,1.08-1.04,1.49-1.82,3.31-3.76,3.72-9.56,8.86-11.28.18-.19.37-.52.63-.52l.19.19.48-.67c-2.38-2.34-2.93-5.58-5.06-7.85v-1.15c1.26-.04,3.16-.22,3.91-1.3,1.15-.08,2.16-.41,3.12-1-.41-1.86-1.6-3.91-2.3-5.88-1.19-5.02-1.12-9.23-1.3-14.25,1.07-.19.56,2.01,1.63.97.37-4.02.41-7.78,1.79-11.79.67-.08.67.67,1,1,.08.41-.22.93.34,1.15.96.07.45-1.04.82-1.49,1.63-3.94,3.01-7.96,6.36-11.12l1-.52c.78.75-.22,2.46.82,2.79.85-1.86,3.27-3.16,3.61-5.25.81-.6.41-1.71.97-2.46.37-.71.48-1.64.67-2.46,1.23.19.97,2.2,1.45,3.27.03,3.83.03,7.44-.63,11.16-.78,1.45-.37,3.42-.82,5.06-.15,6.58-.78,12.98,1.79,18.83.52,1.82,1.34,3.5,1.98,5.25,1.34,1.3,1.26,2.79,2.61,4.09.25.93,1,1.75,1.34,2.46,2.68,3.05,6.7,6.4,10.45,8.52.56.04.6.89,1.3.82.97-1.38.37-3.35-.14-4.73-.04-1.71-2.65-2.87-1.16-4.61,1,0,1.56-.82,2.46-.97,1.19-.75,2.49-1.9,3.12-3.27.41-3.05-1.23-5.51-3.46-7.37-.11-.82.78-1.08,1.34-1.3,2.94-.15,4.51-3.42,5.4-5.91.97-3.01-.04-6.44-2.46-8.67-.37-1.27,1.08-.82,1.64-1.15,3.12-.97,4.84-4.32,5.4-7.22.85-2.9.3-6.25-.82-9.15-.93-4.13-3.76-7.96-7.18-10.16-3.95-2.64-10.38-6.06-11.16-11.98-.15-1.15.3-2.72-.49-3.57l-.33.3c-1.97.56-4.09-.11-5.24-1.3v-.49c.63-.07,1.07-.18,1.82-.15-.15-1.31,1.49-.52,1.3-1.82,1.27-1.82.86-4.31,1.64-6.4-.23-.15-.37-.44-.67-.3l-.49.48c-.3-.48-.48.19-.81.15-1.31.33-2.57-.48-3.76-.97v-1.3c.56,1.12,1.38-.04,1.97-.33.34-1.01,1.86-1.23,1.98-2.46-1.05-.52-3.61.89-4.13-1.01-.11-.86.59-.82,1.16-1.12.96-1.45,1.45-3.2,2.15-4.61-.34-.11-.6-.41-.82-.63l-.34.63-.67-.48-.33.48c-.63-.56-.86-1.6-.34-2.27.63-.67,1.41-1.19,1.34-2.16-.14-.26-.44-.11-.67-.15-.33-.33-1.38-.52-.97-1.49,1.86-1,3.49-2.34,3.27-4.58.59-1.12,1.89-1.64,2.94-2.46l-.14-.15c.82-.48-.48-1.26-.52-1.97,0-.97,1.23-1.49,1.83-1.79.67-1.12.45-2.9,2.27-2.79.34.04.63-.04.82-.33-.26-1.08-1.12-2.12-.82-3.28,1.04-.89,1.23-.19,2.31-.82.08.07.15.19.34.15.22-.97-.49-2.16,0-3.27.7.04,1.3-.11,2.12.19,1.12-.71-.15-1.9.48-2.79.33-.15.59-.56.81,0,.67-.74,1.53,0,2.31,0l.67.63c.9-.86.15-1.67.15-2.75.03-.34-.03-.63-.33-.82-.08-.74.25-2.34,1.49-1.67.41.52.86-.3.97.52l.34-.33c.18.86,1.3.3,1.63,1.15.67-.93-.78-2.31.15-3.12v-.48l1.63.15-.15.19c.81.45,1.86.45,2.79.63.15.59.96.86,1.45,1.3,1.08-1.04,1.12-3.16,2.65-3.91.33-.67.93-1.08,1.63-1.3.56-.71,1.41-.71,2.31-.67.82,1.12-.78,1.97-.82,3.12-.26,1.19-.63,3.27.63,4.24.82.34,1.01,1.27,1.83,1.3.52-.78.86-1.9,1.63-2.27.26-.63.67-1.49,1.45-1.64l-.15-.18c.23.15.86-.82,1.3-.97,1.08-1.53,1.79-2.9,2.94-4.28,1.3.78.41,1.93,1.15,2.98-.45.82.11,1.64.15,2.46l-.3.3c.59,1.15-.56,2.38.3,3.46,1.08-.97,1.49-1.12,2.79-1.49.22-.56,1.04-.48,1.64-.48,1.04,2.42,1.04,5.43-.63,7.55-.6,1.27-2.12,1.71-2.46,3.09,2.57,1.82,4.73,4.65,6.06,7.37l.63.67-.14.15c2.16,2.08,4.72,4.35,7.37,6.4,1.08,1.45,2.05,2.75,3.42,3.76,1.74,2.23,3.49,4.24,4.09,7.07-.52,2.83,3.42,6.21-.82,8.18-.37.19-1.04,0-1.12.63-.9-1.41-1.41.63-2.64.19-.15.59-1.34-.59-1.64.48.37.74.93,1.64,1.64,1.97.85-.19,1.41-2.27,2.64-1.3,1.45.67,1.41,2.53,1.12,3.91-.15,1.23-1.86,1.19-1.94,2.31h-.67c-.04-.18.08-.26.15-.33-.15-.41-.71-.41-.97-.15l-.15.15.15.15c.19-.11-.33.33-.67.18l.34-.33c-.6-.67-1.71-.08-2.46-.48-1.23-.71-2.08-2.72-3.42-1.82-2.05.22-5.24-.11-7.07-1.64-.93-.37-1.41-1.49-2.12-2.27-2.6-1.53-3.72-5.02-7.51-3.95-.71.08-.37.82-.82,1.16.52.89,1.38,1.34,1.79,2.12.63.04.74.63,1.3.82,1.19.67,2.42,1.6,3.61,1.97,1.04.52,1.67,1.56,2.94,1.79,1.04.93,2.04,1.78,3.27,2.16l-.15.48c1.3-.15,1.64,1,2.6,1.45.22.59,1.45.78,2.16,1.64,6.18,5.25,11.16,12.17,13.58,19.98l.34.33c2.87-3.72,3.98-8.48,5.73-12.76,1.56-3.13,3.98-6.77,7.22-7.37l.15-.18,4.91.18c-.19.71.55.33.81.63,1.08-.52.9,1,1.83.52.86.63,1.86,1.38,2.75,1.45.12.82,1.42.67,1.49,1.49.07-.07.18-.19.14-.34.56-.26.71.9,1.15.34l.67.63c.07-.18.33-.15.48-.15-.08.26.19.33.33.48,1.98.19,3.2,1.56,4.91,1.97,3.28.71,6.43,2.98,8.19,6.4,1.49.34,1.64,1.94,2.94,2.27,2.01.89,3.98,2.19,5.73,3.27,2.31,1.78,4.09,4.32,5.92,6.59.04.15.11.82-.34.97-.67-.82-1.37.11-2.12.15-.75.97-1.9,1.6-2.98,2.16-.82-.11-2.12-1.45-2.94,0-.89.11-1.89,1.75-2.93.97-1.49.48-2.94-.97-4.43,0-.97-.04-2.5-.48-3.28-.82-.85.11-1.75-.3-2.6.34-.23-.78-1.64-1.08-1.16-2.12.71-1.15.71-2.83.63-4.09-.08-1.56-.34-3.2-1.3-4.28-.08.56-.63,0-.96.48-2.76-.41-3.5-3.2-5.58-4.43-.9-1.23-2.54-1.3-3.61-2.46-1.38-.26-2.9-.71-4.09-.97-1.49.52-2.31,2.05-3.09,3.42.03,1.9-1.45,3.61-.67,5.43h.15s3.53-7.07,12.65-2.42c0,0,3.16.93,4.28,8.74l-1.3,4.65s6.88,3.16,15.07,1.67c8.19-1.49,14.32-5.21,14.32-5.21,0,0,.56-1.67,1.12-2.23.56-.56-.56-1.86-1.12-3.17-.56-1.3-.37-4.46.37-6.51,0,0,1.49-.74-1.3-.19-2.79.56-9.12,1.49-11.72-.19-2.61-1.67-7.26-5.58-3.16-10.04,0,0,1.67-.74,2.23-1.12.56-.37.19.19.37-2.42.19-2.61,0-63.63,0-63.63,0,0-1.49-2.98.37-5.02v-26.23s-1.49-3.16.74-6.14l-.49-36.59c-6.2-3.35-4.84-5.7-4.96-8.81-.12-3.1,2.85-7.07,8.19-7.19,5.34-.13,7.44,5.46,8.06,7.69.62,2.23,0,2.11,0,2.11,2.73-1.12,3.6-1.37,11.66-1.61,8.06-.25,15.38,2.73,21.71,5.58,6.33,2.85,15,6.32,21.33,8.19,6.33,1.86,11.91,2.48,15.75,2.98,3.85.5,6.83.74,17.12.25,10.3-.5,17.49-4.59,17.49-4.59l.37.74c-7.93,16.62-24.56,19.1-37.33,20.96-12.77,1.86-23.07-.62-27.28-1.12-4.22-.5-22.57-3.97-31.75-4.34-9.17-.37-14.63,3.97-14.63,3.97l.03.03c-.3,3.12-1.12,6.7,1.3,9.15,2.35,1.82,1.45,5.21,3.28,7.37,2.16,2.83,4.8,4.8,6.73,7.85.85.3.85,1.19,1.3,1.82,1.08-1.27,1.89-3.24,2.31-5.1.67-1.83,2.68-3.02,4.58-3.76.78-1-.22-2.49.82-3.61.41-1.82,1.52-3.39,2.31-5.06.22-.07.3.18.48.34-.19.67.37.78.63,1.15.63-2.27,3.2-3.5,4.61-5.25.79-.04.79-1,1.64-.82.52-.78.67-1.71,1.78-1.83l-.15-.15.63.63c1.34-.86,1.83,2.2,2.98.19.45-.23.3.3.48.48,2.39-.11,4.02,1.75,4.91,3.76-.11.37.19.56.34.82.14,0,.41.04.48-.15-.11-.48.15-.48.48-.67,1.08,1.64,2.75,2.12,2.64,4.28-.3,1.64-1.79,3.39-.52,5.06.23,1.26-.86,2.72-1.78,3.46-.86.26-1.67.63-2.31,1.45-.37.89.59,1.45,1.15,1.64.23-.07.15-.34.15-.48.59.11.93-.33,1.49-.15.23,2.01-2.01,3.24-3.13,4.58.3,2.08-.14,3.68-1.63,5.25-2.83,1.23-4.2,4.5-6.55,6.21-2.49,4.58-1.41,9.97-.96,14.73.41,1.67,1.08,3.42,1.97,4.76.26.3.78.11,1.16.15,1.23-1.38-.56-4.54,1.63-4.43.71-.93,0-2.68,0-3.76-.41-4.2,1.08-8.52,4.73-10.79.59.11,1.08-.41,1.49-.19,1.27-1.04,1.34-3.2,3.13-3.91l.15-.52c-.04-.26.04.63.48.33.23-.74,1.08-.59,1.64-.82-.03.19.08.26.19.33.26-1.34,2.6-.78,3.57-1.15,1.05-.63,2.57-.52,3.13-1.97.08-.82.11-1.79-.82-2.27-.59.22-.56-.37-.81-.67.26-.97,1.79-.63,2.6-.48.22.3.52.37.81.33,1.34.93,2.64,1.97,3.31,3.42.52,1.38-.3,2.75-.19,3.94,1.12-.52,1.19-2.08,1.82-3.12-.22-.71.63-.93.82-1.45.15,0,.41.04.49-.19v-.33c.63-.04,1.48,0,1.78-.63l1.63.15-.14.19c.45.11,1-.41,1.63,0,.23.45,1.23-.07,1.16.82-.29,1.12-1.71,1.38-2.16,2.46-2.56,3.16,1.3,8.22-3.27,10.16-1.9.71-3.12,1.3-5.24.97-.86.74.3,1.64-.3,2.46-.3.34-.15,1.08-.19,1.3-.49.37-.37,1-.63,1.49-1.38.93-1.94,2.94-3.8,2.61v.33l-3.27-.15c.33-.04.74.11,1-.19-1.9.3-2.72-1.6-3.76-2.61-.74-1.6-1.52-3.5-1.01-5.25-.07-.26.23-.33.34-.48l-.15-.19h.63c1.27,1.41,1.27,3.8,3.27,4.43.6-1.12,1.86.22,1.98-1.3.37-2.08-1.08-3.83-2.46-4.76-1.71-.56-3.35-.41-4.91.52-2.16.3-3.12,2.87-3.6,4.73-.04,1.56-.79,4.69.67,6.21l.3-.14,6.32-.25s.62.12.62,1.12-.5,7.69-1.12,8.19l-2.48.25s-2.73,3.97-3.72,4.71c-.99.74-1.98.99-1.98.99,0,0-.25.37-.5.87-.24.5.87.5.75,1.49-.12.99-1.12,1.24-1.36,2.6-.25,1.36.25,18.48.25,19.22s.5,2.23,2.11,2.23c0,0-.25,1.98,0,3.6.25,1.61.25,5.83,1.24,6.2l.99.37s.62,3.22,1.49,9.18c0,0,1.61,1.24,2.98,1.12,0,0,.62.99,1.24.87.62-.13,2.98-1.86,7.2-1.36.85.1,1.23.11,1.87.53.31.21.96.53,1.48.77,1.63,1.05,2.71,2.82,2.71,4.84,0,2.21-1.29,4.12-3.18,5.11-.9.39-1.88.7-2.9.89-2.96,1.02-8.27.23-10.76-.27-2.79-.56-1.3.19-1.3.19.75,2.05.93,5.21.37,6.51-.56,1.3-1.67,2.6-1.12,3.16.56.56,1.12,2.23,1.12,2.23,0,0,6.14,3.72,14.32,5.21,8.19,1.49,15.07-1.67,15.07-1.67l-1.3-4.65c1.12-7.81,4.28-8.74,4.28-8.74,9.12-4.65,12.65,2.42,12.65,2.42h.15v-2.51c-.27-.95-.69-1.91-.67-2.93-.78-1.38-1.6-2.9-3.09-3.42-1.19.26-2.71.71-4.09.97-1.08,1.15-2.72,1.23-3.61,2.45-2.08,1.23-2.83,4.02-5.58,4.43-.33-.48-.89.07-.96-.48-.96,1.08-1.23,2.72-1.3,4.28-.07,1.27-.07,2.94.63,4.09.48,1.04-.93,1.34-1.16,2.12-.86-.63-1.75-.22-2.6-.34-.78.34-2.31.78-3.28.82-1.49-.97-2.94.48-4.43,0-1.04.78-2.04-.86-2.93-.97-.82-1.45-2.12-.11-2.94,0-1.08-.56-2.23-1.19-2.98-2.16-.74-.04-1.45-.97-2.12-.15-.45-.15-.37-.82-.34-.97,1.82-2.27,3.61-4.8,5.92-6.58,1.74-1.08,3.72-2.38,5.73-3.27,1.3-.34,1.45-1.94,2.94-2.27.39-.76.85-1.46,1.36-2.1l.1.02-.03-.12-.03.04c1.21-1.04,2.6-2.44,4.21-2.88.71-.22,1.71-.82,2.45-.82.86-1.12,2.57-.82,3.61-1.79,1.34.26,2.09-1.34,3.27-1l.34-.48.3.15c.07-.15.16-.27.26-.38l.03.03s0-.05.01-.08c.7-.69,2.04-.75,2.67-1.51,1.9-.34,3.16-1.94,5.06-2.16,2.45-.41,5.62-.19,7.37,1.64,5.21,4.95,5.61,12.13,9.19,17.86.45.26.04,1.15.81,1.01,1.86-3.8,2.6-8.19,5.73-11.31,1.56-3.01,4.09-5.32,6.36-7.85.71-.52,1.23-1.08,2.16-1.49.52-.41,1.41-1.01,1.93-1.49l.86-.48-.18-.15c1.41-.3,1.56-1.38,2.94-1.64.15-.45.37-.71.82-.82.71.15.56-.78,1.15-.82,2.38-1.15,4.8-2.6,6.88-4.09.97-.41,2.46-1.38,2.79-2.64-.63-1.49-2.42-.52-3.6-.82-.71.26-1.31.74-1.98,1.3l-3.09,2.64c-.56,1.08-1.71,2.05-2.64,2.79-.52-.04-.97.07-1.3.48-1.12.19-2.9.19-3.95.67,0,.82.08-.34-.33-.34-.52.04-1,0-1.3-.48-.08.3-.41.6-.82.48-.48.93-1.71.89-1.97,1.79-.93.04-1.9.48-2.75.33l-.33.67c-.08-1.56-3.28-.19-3.13-2.46,0-.37.08-.78-.34-1-.04-1.27.74-2.35,1.49-3.09,1.38-.9,3.28,3.38,4.09-.19-.3-1.34-2.45-.63-3.27-1.3-.82.71-1.71-.67-2.45-.82-1.04-.34-.85-1.45-1.3-2.12,1.19-3.57.67-7.85,3.61-10.64.44-1.08,1.82-1.34,2.12-2.49,1.72-1.04,2.49-3.01,4.24-3.91,1.79-1.34,3.43-3.12,5.1-4.76l-.19-.15c2.45-1.08,2.31-4.17,4.61-5.58v-.33l3.09-2.94c.08-1.52-1.86-2.16-2.46-3.61-.59-1.19-1.15-2.45-1.15-3.91.56-1.16.19-2.98,1.34-3.27h.3c0,.15-.04.41.19.48.15,0,.41.04.49-.19h-.15v-.3h.15c.26,1.12,1.52,1.08,2.3,1.64,0,.26.3.45.48.63h.34c-.34-2.57-.03-5.21.3-7.7.19-.52.63-1.34,1.16-1.3,1.6,1.19,1.45,3.65,3.27,4.58,1.08,1.41,2.83,2.75,3.46,4.43l-.19.19c.19.26.56.11.82.15-.26-.45.41-.71.82-.82,1.41-1.04,1.52-3.09,1.15-4.76.04-1.19-1.41-1.97-.96-3.09,2.27-.63,3.64,1.71,5.06,2.94,0,.82.82,1.23,1,1.97-.11.48.45.67.48,1.15,1.3-.6,2.65-2.31,3.95-1.67.19-.07.15-.3.15-.48h1.79c.78,1.19-.86,2.2.18,3.27.94-.71,2.27-1.23,3.42-1.3h.48c.71,1.71-.59,3.5-.14,4.91.89.67,1.56-1.27,2.45-.15.08-.63.85-.22,1.3-.33.63.56.23,1.82.34,2.79.93.33,1.75-.71,2.6.34,0,1.19.08,1.75-.3,2.75.26.63.97.22,1.45.34v.19c.56-.22,1.38.26,1.64.82.26,1.34-2.31,2.35-.82,3.42.41-.37,1.34-.04,1.83.33.25,1.12.63,2.31,1.63,2.94.79-.04.67.67.97,1.16l-.82,1.64c1.04,1.53,2.75,1.75,3.12,3.42-.3,1.82,1.3,2.83,2.46,3.61.41-.11.75.18.81.48.56,2.01-3.01.71-1.48,2.79.45.63,1.86,1.11,1.3,2.31-.52.93-1.64.93-2.46.67l-.15-.19-.34.48c1.12,1.67,1.27,4.2,3.27,5.1l.19,1.15c-.67.26-1.63.04-1.97.82-.37.04.34-.03.15-.33-.71-.3-1.45-.37-2.27-.34.12,1.23,1.45,2.05,2.12,3.13.56.3,2.38-.15,1.63,1.15-.04.89-1.07.11-1.29.82-1.61.44-2.76-.08-3.95-.67-.67,1.19.19,1.93.15,3.27.14,1.15.45,1.75.33,2.79.41.89,1.16,1.19,1.49,2.12h.34c.22,1.26,1.12.04,1.78.67,0,.97-1.15,1.38-1.78,1.78-.3.22-.64.15-.82-.15-1.07,1.34-2.68-1.41-3.27.82-.22,3.54-1.12,7.18-4.28,9.15-.56.89-1.49,1.64-2.45,1.97-1.42,1.45-3.42,2.2-5.06,3.61-2.56,2.05-4.98,4.2-5.91,7.37-2.53,5.17-2.91,11.16.19,16.22.93.89,2.19,2.23,3.42,2.27.52.78,1.16-.15,1.64.67-.04,2.01-2.79,2.57-2.45,4.58-.82,4.02.33,7.67,3.42,10.16,1.16.75,2.79.07,2.98,1.82-.45.93-1.68.97-1.98,2.12v.33c-.74-.52-.48.71-1,.97-.07,1.12-.85,2.57-.3,3.94.45,1.41,1.64,2.01,2.61,2.94.97,1.16,4.06.78,3.13,2.94-1.78,1.97-2.16,4.5-2.16,7.22,1.04.78,1.86-1.3,2.64-.82,1.45-1.12,2.98-2.42,4.43-3.27,4.5-2.64,6.54-7.7,9.34-11.79,1.19-2.79,2.23-5.62,3.09-8.52.18-1.12.34-2.83.48-3.94.71-4.35.15-9.04-.14-13.43-.6-.78.14-2.01-.67-2.75-.04-2.23-.56-4.87-.3-7.22-.86-1.79.18-3.5.3-5.25.26-.56.15-1.26.81-1.64.97-.41.23,1.38.67,1.64.38,3.35,2.91,6.07,4.77,8.52h.34l.3-2.64c1.56.19,2.38,2.05,3.6,3.46,1.94,2.9,3.13,6.17,4.43,9.34.26.07.34-.22.48-.33-.26-.82.45-1.19.67-1.79.79,1.3,1.16,3.09,1.49,4.73.56,2.49.12,4.09.49,6.88l.48.48.96-1.3.34.33c-.82,6.74.07,13.17-3.95,19.01-.18.63.6,1.04,1.01,1.3l.67-.19c-.07,1.12.82.15,1.3.67,1.16.52,2.83,1.67,3.76.97,1.15,1.41-.71,2.6-1.49,3.94-.63,2.08-1.83,3.5-3.27,5.25,1.07.89,2.49,1.64,3.79,2.45,1.86,1.23,2.27,3.39,3.42,5.06.12,1.82,1.64,3.09,2.46,4.62.33.82,1.63.67,1.79,1.64-.56.07-1.01,1.45-1.64.48-2.16.89-.63,2.79-.82,4.43-.22,3.09,2.72,4.05,2.79,7.03-.81.56-1.56-.33-2.12-.49l-.15-.19c-1.83,1.6-1.9,3.87-2.45,6.25.22,2.46.37,5.25-.67,7.37-1.07.22-.67-1-.96-1.49l.15-.15c-.23-.3-.49-.37-.82-.34-.74,1.6-2.12,3.31-3.76,4.09v.33c-2.08,1.34-4.13,2.87-5.58,4.76-1.12,1.75-1.56,3.94-1.78,5.88-3.01-2.94-1.86-8.41-1.64-12.13.11-.37.67-.78.3-1.15,1.94-5.84,5.4-12.91,1.01-18.98-3.35-5.95-9.94-6.36-15.74-5.92-1.6.41-3.68.49-5.25.82-.7.15-1.34.63-2.12.67-.22.52-.89.41-.63,1.15,1.12,1.49,2.79,1.67,4.25,2.46l.34-.48c.41-.15.56,1.08.48,1.79-2.42,1.15-3.64,3.53-3.76,6.21.45,3.01,2.23,5.84,5.25,6.88.26.33.48.93.14,1.3-.37.45-.81.71-1.3.82l-.19-.15c-1.78,1.26-3.42,2.79-3.42,5.06.26,1.6.93,3.12,2.3,4.09-.22,2.12-2.71,2.53-3.27,4.13-.19,2.71-.97,5.21-1.34,7.85-.6.37-.08,1.19-.48,1.64-1.76,5.71-4.51,11.01-8.47,15.6h0c-1.07,1.25-2.23,2.43-3.48,3.57-1.63.82-2.64,2.01-4.42,2.6-1.01.6-2.54,1.49-3.95,1.97-2.79,1.38-5.43,1.45-8,1.82h-4.76c-.59-.52-1.46.22-2.31,0-.41-.67-.97-.11-1.63-.52-2.01-.08-4.13-.97-5.88-2.12-1.15,0-2.53-.74-3.46-1.45-1.56-.22-2.38-1.49-3.61-2.16-1.66-.84-2.98-2.18-4.06-3.71h.04l-.04-.02c-1.02-1.44-1.83-3.07-2.48-4.61-1.08-2.72-1.64-5.66-2.76-8.37-.19-.82.41-2.2-.52-2.46l-.07-.11c-.38,5-1.81,10.39-4.31,15.57h0c-2.34,4.86-5.6,9.5-9.82,13.45-8.75,8.18-28.65,19.72-28.65,19.72-22.7,11.53-26.79,17.86-31.81,22.7-5.02,4.84-3.72,5.58-3.72,5.58,66.04-3.91,94.69-15.44,94.69-15.44,0,0-1.3-5.58-1.86-8.93-.56-3.35-.74-3.35,2.42-7.63,3.16-4.28,10.05-5.21,17.49-6.32,7.44-1.12,16.74-.19,16.74-.19,3.35-4.09,12.28-6.14,15.81-5.95,3.53.19,7.44,3.16,7.44,3.16,1.3-.37,9.12-2.79,9.12-2.79,0-2.52-2.73-11.44-4.8-17.38h0c-.69-1.97-1.3-3.61-1.71-4.58-1.67-3.91,1.86-5.02,1.86-5.02,0,0,4.09-2.42,10.23-4.84,6.14-2.42,16.93-4.46,20.65-4.28s7.63,4.65,8.37,7.07c.38,1.22,2.07,6.02,4.04,11.65h0c1.94,5.57,4.15,11.92,5.63,16.45,2.98,9.11,3.35,13.21,3.35,13.21-.74,7.44-7.63,14.7-16,21.02-8.37,6.33-28.28,13.77-28.28,13.77,0,0,0-2.6,2.23,7.07,2.23,9.67-7.44,14.51-7.44,14.51-27.16,13.39-79.62,33.84-161.85,34.23-86.75.41-137.36-22.99-159.13-32.62-15.13-6.7-14.14-10.66-14.88-15.13-.74-4.47,2.23-9.92,2.23-9.92-27.03-10.17-36.96-21.58-41.17-27.53-4.22-5.95-1.99-11.66-1.99-11.66,0,0,5.56-16.69,7.95-23.4h0c.08-.24.16-.46.23-.66,2.23-6.2,4.46-14.14,8.93-18.36,4.46-4.22,6.7-2.98,16.13-1.24,9.42,1.74,17.61,6.7,19.59,8.19,1.99,1.49,2.73,3.97,2.73,3.97-.36,1.09-1.58,4.37-2.98,8.11h-.01s.01,0,.01,0h0Zm74.88,0h.24-.24Zm16.21-98.79l-.48.82c1.04,2.57,4.31,3.95,5.4,6.36.45-1.78-.11-3.24-.3-5.06.52-2.6-2.72-1.19-3.47-1.82-.37-.56-.85.52-1.15-.3h0Zm-6.36,14.74c-.63.74-1.45,1.71-1.64,2.79-3.69,5.06-6.33,10.79-10.49,15.37-2.12,2.27-3.27,4.99-5.4,7.22-.93,1.11-2.27,2.53-2.3,3.94,1.71.89,3.01,2.53,4.24,3.91h.34c.78.67,1.04,1.97,2.12,2.45,1.05,2.35,3.46,4.09,4.13,6.59,1.71,2.16,2.75,4.95,3.91,7.51.85,3.57,2.42,7,1.82,10.98h.3c.03-3.83.56-7.74.82-11.31,1.45-2.57-2.94-2.79-2.61-5.39.52-.89,1.26-.33,1.97-.67.81-.26,1.15-1.34,1.15-2.27-.52-.75-1.04-2.01-1.97-1.97-.26-.26-.56-.48-.67-.82-.04-.44-.04-1.26.67-1.64.14,0,.41-.04.48.15.78-.63,1.75-.74,2.6-1.15.22-1,1.38-.52,1.83-1.3,2.49-6.92,4.35-14.06,6.06-21.28l-1.49-3.76c-1.15-2.01.19-3.61-.48-5.43-.78-2.42-3.68-2.75-5.39-3.91h0Zm-29.99,41.26c-3.94,3.24-7.7,7.59-11.12,11.31-1.45,2.2-3.47,4.02-4.28,6.7-.75.41-.52,1.52-1.16,2.16-.08,1.3-.56,2.57.19,3.76,1.34,1.82,3.09,3.8,5.4,4.09.11,1.19,1.01-.04,1.3.82.79.41,1.45.19,2.16.33.63.52,1.93-.37,2.6.15.56-.93,1.64.52,1.98-.67l.14.18c.19.22,1.08.22.68.15.41-.59.81.3,1.15-.48,1.75-.3,3.16-1.38,4.73-2.12.07.08.22.15.19.33.41-1.34,2.05-1.67,2.94-2.79.48-1.82,2.46-2.53,2.79-4.43.41-3.2,1.41-6.77.34-10.01-.56-.41-.26-1.41-1.01-1.45-.03.3.11.63-.14.82-.79-.33.11-.78-.19-1.3-1.79-1.71-3.02-4.06-5.4-5.1-.97-1.04-2.23-1.53-3.28-2.45h0Zm82.57-193.78v11.98l.97.63c.71-.45,1.94,1.01,2.12-.3,1.86.11,2.39-2.08,3.8-2.98.78.04.89-.48,1.63-.63,0-.41-.18-.74-.52-1-1.12-.37-2.53-.11-3.27.67-2.16-.37-.6-3.16-1.3-4.58-1.16.11-1.83-.78-2.79-1.15-.15-.41-.49-1.45.33-1.49.37-.89-.59-.41-.63-1.15h-.33Zm-.75,84.83s3.72,0,5.33-.99c1.61-.99,1.86-6.33,1.98-7.69.13-1.36.74-1.36.74-1.36l1.37-.25s1.24-7.94,1.49-9.05c.25-1.12.12-.74.12-.74l1.37-.5s1.24-19.47,1.37-20.09c.12-.62-.62-1.86-.99-1.86s-1.98-.74-.87-2.97c0,0-.74-.87-1.99-1.12-1.24-.25-3.47-2.11-4.21-3.6-.74-1.49-2.98-1.12-2.98-1.12,0,0-1.37-4.47.13-10.05h6.57s.34.33.34.33l-.19-.18c.56-.19.33-1.04.33-1.15-.52-.15-1-.45-1.63-.3-2.2.89-4.58.3-6.88.49-.45-.78-.6.07-1.12.15-.07,20.39-.63,41.67-.34,61.91l.06.15h0Zm95.75,53.77c-.86.26-1.34.11-2.31.15-1.08,1.93-1.26,4.46-1.12,6.7h.15c1.08-2.38,4.35-3.57,5.24-6.36-.37-1.38-1.38.52-1.97-.48h0Zm7.7,14.55l-.48.52-.19-.18c-1.64.86-3.5,1.49-4.58,3.27-.15,1.68.41,3.69-.48,5.1-.07,2.12-2.71,3.76-1.3,5.88.3,1.49.63,3.16.97,4.43.63,1.23.67,2.72,1.3,3.94.26,2.08,1.01,3.94,1.63,5.88.41.59-.15,1.52.49,1.97.37,2.2.96,4.09,3.27,4.91,1.15.71,3.12.45,3.46,2.12-.11.45-.37,1.15-.97,1.15-.63.78-2.19,1.53-1.82,2.79.37,1.41,1.71,1.6,2.94,1.79,1.05,2.2-1.71,2.46-2.6,4.09-.6.93.37,1.6,0,2.64.7,2.83.7,6.74.67,9.67l.48.15c.04-2.94.37-6.51,1.63-9.34.26-.93.79-1.79.97-2.79,3.31-6.25,7.18-13.02,12.62-17.67.7-.26,1.71-1.12,1.63-1.82-1.23-2.16-2.94-3.79-4.43-5.73-2.86-4.88-7.06-8.93-9.34-13.92-1.94-2.79-3.91-6.06-5.88-8.86h0Zm29.66,41.11c-2.05,1.68-4.35,3.2-6.25,4.91-1.63.82-2.05,2.57-3.42,3.46-.71,2.9-1.45,5.77-.67,8.67.03,3.09,1.93,5.51,3.79,7.7,1.49,1.56,3.65,2.46,5.55,3.42.82.52,1.82.52,2.64,1l.3-.33c.86.71,2.42-.04,3.13.67,4.39.11,8.26-1.9,10.83-5.58,1.19-1.93-.04-4.02-.81-5.73-.41-1.79-1.86-3.16-2.79-4.76-3.24-5.17-8.08-9.04-11.98-13.43h-.3Z"/>
      <path class="cls-4" d="m192.46,4.78c1.04.86.75,2.34,1.3,3.46-.26,1.34-1.38,2.2-2.31,2.94-.56-1.15,1.12-1.82,1-2.94.41-2.19-1.86-3.05-2.64-4.43-1.01.67-1.27-1.38-2.31-.18-.67-.82-1.23.82-2.12.48-1.71,1.45-2.6,3.39-1.97,5.58.22,1.34,2.45,2.05,1.63,3.61-1.45-.67-2.75-2.12-3.27-3.76.34-1.9-.19-3.61,1.16-5.1.63-.33,1.18-1.15,1.82-.97,1.3-.52,3.13-1.75,4.24-.82,1.67.22,2.31.93,3.46,2.12h0Z"/>
      <path class="cls-4" d="m188.85,7.57c.37.86.04,1.82-.33,2.6.11,12.24.45,24.86.14,36.88l-1.45,1.45-.34-.63c.48-13.54-.22-26.86,0-40.15l.63-.82c.26.82.93-.11,1.34.67h0Z"/>
      <path class="cls-6" d="m226.69,47.86c.9-.37.19-1.75,1.45-1.49,1.86,1.49,1.45,4.02,3.12,5.43.71.26.82-.78,1.45-.67l-.15-.15h.34l-.19.15c.52.3.78.67.67,1.3-.82.74-1.75,1.19-2.79,1.49-.45.48-.56,1.04-.15,1.64.74,1.45.93-.74,1.79,0,.59.86.85,2.05.48,3.09-.41.59-1.08.63-1.64,1.15-.14-.67.52-1.45.52-2.27l-.82-.82-1,.97c-.04-.74-.52-.82-.81-1.49.59.22.67-.3.81-.63.04-1.49-1.57-1.15-2.12-2.12-.82-.22-.74.67-1.48.63.37.52-.6-.78-.49-1.3-.56-1.49-1.56-.22-2.45,0l-.63.97-.34-.48c.41-1.45-.19-2.94.49-4.09-.71-1.3-.12-2.94.15-4.24,1.23.97,2.05,2.68,3.8,2.94h0Z"/>
      <path class="cls-6" d="m191.12,51.62c-.04.89-1.19.52-1.12,1.49,0,.93.7,1.97,0,2.79-.78.45-.74,1.75-.52,2.6,1.04,1.19-.93,1.93-.48,3.28h-.34c-.74-2.16-4.05-4.09-2.12-6.55-.67-1.27,1.19-1.93.81-3.27,1.12-.67,1.3-2.01,1.64-3.12.85.6,1.45,1.86,2.12,2.79h0Z"/>
      <path class="cls-6" d="m217.17,51.14l1.15.15c.04.97-.85,2.05.15,2.79.37.04.89-.11,1.15.19.22.67-.56.3-.82.63-.07.93,0,1.94,1.01,2.31.74.26,1.23.19,1.97,0-.11-.26.19-.33.3-.48h.52c-.19.26-.19.6-.52.82-1.04.11-1.82.26-2.45,1.12-1.19-1.08-1.38-2.57-1.45-4.09-.12-.3-.41-.6-.82-.48-.86.89-1.05,2.31-1.16,3.27.04.45-.3.86-.19,1.49-.45.18-.45.86-.63,1.3-.78,1.27-1.26,3.28-.81,5.06-1.75,2.75-5.14,2.12-7.37,3.12-.33-.04-1.15-.11-1.49.34l-.63.67c-.89-.78.19-1.53.3-2.31.93-1.01,2.27-1.45,3.27-1.64,1.12-.22,1.83-.89,2.79-1,.45-1.08,2.79-1.86,1.3-3.27-1.27.11-1.45,1.15-2.45,1.64-.15,0-.41.08-.48-.15-.52.97-2.09.63-2.61,1.64h-.33c.08-2.12,1.67-3.35,3.42-4.43,1.04-.34,1.63-.15,2.45.48.37-.59.71-1.41.34-2.12-.9-.6-.97-1.75-.82-2.61.56-.59.3-1.49.67-2.12.74-.33.56.52.82.82.78.19,1.01,2.31,2.12,1.12.93-.93-.37-1.75-.15-2.75l.97-2.16c.15.22.71.22.49.67h0Z"/>
      <path class="cls-6" d="m192.61,55.08c0,1.27.96,2.49,1.49,3.76,1.08,1.45,2.19,2.86,3.57,3.91.11.6.71.9.82,1.34,1.86,2.01,4.58,4.35,3.8,7.18.26,2.08-1.23,4.24.48,6.06.41,1.04-.78.82-1.16,1.3-.55-1.23-1.9-2.04-2.94-2.75-.9-.15-1.6.22-2.31.63-.37-.67.23-3.05-1.15-3.76-.56-.26-1.27-.11-1.64-.82.22-1.19,1.64-.37,1.97-1.3.34.04.63-.04.82-.34l-.15-.15c.55-.08.59-.82.33-1.15-.71-.41-1.52,0-1.97.63l-2.64-.3c.12-.26-.19-.34-.3-.52-.33-.04-.63.04-.82.33v.19c-.67-.22-.11-1.19-.52-1.64.37-2.49-.19-4.69,1.15-6.73.9-1.71-1.15-3.5.48-4.91-.11-.45.15-1.08.67-.97h0Z"/>
      <path class="cls-6" d="m230.12,65.05c.3.56-.37.82-.82,1.15-.59-.6-1.12-1.08-1.3-1.97.15-.67-.41-1.75.48-1.97.34,1.04.52,2.38,1.64,2.79h0Z"/>
      <path class="cls-4" d="m188.33,63.27c.22,6.47-.34,12.43-.15,18.49-.15-.04-.26.07-.34.19-.22-.59-.56-.11-.96-.19l.15-19.16c.48-.45,1.12.22,1.3.67h0Z"/>
      <path class="cls-6" d="m226.51,66.02c.67,1.49,2.9,2.31,1.83,4.13.22.33-.56.67-.52,1.12-.08.26-.11.52-.3.67-.79-1.64-.3-4.43-2.31-5.4-1.38,1.08.11,2.6.15,3.91h-.63c-.23-1.45-2.34-1.08-2.12-2.75.34-.74.86-1.56,1.64-1.97.33-.67.85-1.75,1.63-1.82l.63,2.12h0Z"/>
      <path class="cls-2" d="m193.76,67.36c.41-.45,1.16-.56,1.64-.33.26.37.33.71.14,1.15-.52.67-1.12-.04-1.63.63-1.12-.08-2.68.37-2.94-1.12.45-.34-.26-1.3.67-1.15.6.45,1.41.52,2.12.82h0Z"/>
      <path class="cls-6" d="m218.32,68.18c-.3,1.23-2.16,1.6-2.12,2.79-.89.97-1.45,2.31-1.15,3.57.33.59.89.63,1.49.67l.15-.15c-.7,1.49-2.01,2.64-3.6,3.09-.26.6-1.27.19-1.64.82l-.15-.15c-.81.64-1.86,1.53-2.45,1.97-.45-3.72,5.13-4.76,5.06-8.71-.34-.11-.56-.45-.97-.3-.63.56-1.23,1.12-1.3,1.94-1.82,1.75-4.5,3.65-4.91,6.25-1.04.48-.07,2.05-.82,2.79.15.63-.41,1.75.48,1.94,0,.19-.03.41.15.52,1.94-.37,1.72-2.79,3.76-2.79.7-.86,3.09-.3,3.79-1.15.26.11.45-.19.63-.34.63.75-.44,1.19-.63,1.82-2.08,0-3.12,2.38-4.91,3.09-.37.45-.52.45-1,.67-.59-.22-.59-1.52-1.64-1.15-.33,1.27-1.15,3.16-2.45,3.76.41-1.04,1.12-2.27.82-3.42l-.63-.82c-.45.22-.52.82-1,1.15.41.34-.37.86-.33,1.12-.23.67-.67,1.27-1.31,1.82l.15.15h-.63c.15-1,.48-1.97-.33-2.79-1.94,0-.52,2.79-2.31,3.13-.07-.48-.34-.93-.82-1.3-.71-.26-.59.56-1.3.48-.15.78-1.34,1.12-1.45,1.97h-.67c.34-.18.19-1.15.82-1.49-.29-.41.08-1.79-.96-1.79-.23.15-.23.67-.67.48-.37.97-1.23,1.53-1.97,1.97-.08-.75,1.27-2.08-.14-2.79-1.64.48-2.68,2.12-3.95,2.79-.41-1.97,3.13-1.79,2.31-3.76-.78-.82-1.79.07-2.31.48-.41.56-1.07.86-1.49,1.16-.22-1.75,2.23-2.12,3.46-2.79v-1h.34c.11,1.12,1.49.6,2.12,1.15.19-.15.37-.45.67-.34.41,1.15.75-.41,1.64,0,.18-.52.7-.22,1.11-.3,1.01-.89,2.05-1.56,2.98-2.64.81-.15,1.78-1.23,2.75-.82l.34-.33c-.11-.26.19.41.48.19,1-.6,2.49-1.68,3.79-.82,1.34.08,1.08-1.64,1.63-2.46-.7-1.75,1.23-2.08,1.98-3.13.74-1.23,2.56-2.75,1.63-4.43l.97-.82c.37.82.37-.3.97-.15.82-.26,1.49-.78,2.16-1.49.89-1.97,2.42.19,3.42.67h0Z"/>
      <path class="cls-6" d="m208.98,69.96c.78,2.94-3.35,3.72-3.76,6.07l-.67,1.15c-.45-1.08-1.19-2.53-.63-3.94.86-.97.79-3.05,2.61-2.94-.11-.3-.45-.11-.63-.15.94-.3,2.09-.15,3.09-.19h0Z"/>
      <path class="cls-6" d="m223.23,72.08c-.11.75.34,1.23.19,1.97-.75-.45-.52-1.6-1.01-2.27l-1.3-1.82c1.19-.08,1.67,1.3,2.12,2.12h0Z"/>
      <path class="cls-6" d="m247.64,72.61c.23,1,.45,2.49-.82,3.09-.48.22-.78.67-1.3,1.15-.81-.41-.93.74-1.97.34-.81.82-2.9.71-2.45,2.46l.48.63c.3-.67,1.01,0,1.3-.3,1.19-1.08,3.24-1,4.28-1.64-.08.22.19.3.34.48.3-.07.7-.63.96,0,2.79-.86,3.95-3.87,4.76-6.21.41-.93,1.38-.37,1.97-.33.63.56-.52.82-.52,1.3-2.05,2.98.96,8.22-3.09,9.67-1.19.59-2.34.41-3.61.33-1.41-.63-2.79-1.93-3.61-3.31-.67-.26-.82.63-1.3.67-.37,2.01,2.49,2.57,2.6,4.58.6,1.64-.23,3.65-1.15,4.91-1.08,1.45-2.94,1.04-4.39,1l.15-.19-.48-.3,1.45-.33-.14-.18.48.33c.04-.48.59-.52,1.01-.48l1.3-1.79c.19-3.2-1.45-5.84-3.76-7.4l-.19.19c-.07-.67-1.63-.07-2.27-.48l-.34.3-.33-.63c-.41,1.27-1.64.08-2.12,1.15-1.15-.18-1.41.89-2.45.97-3.95,2.53-3.39,8.33-3.46,11.79h-.63c-.79-3.16-1.45-6.47.15-9.67,1.04-2.64,3.61-3.5,5.73-4.91.03-1,1-1.97,1.82-2.6,1.75-.82,3.28-1.12,5.06-1.3,1.64-.67,3.61-.78,4.76-2.79l.63-2.12c.45.22,1.15.93,1.15,1.64h0Z"/>
      <path class="cls-6" d="m220.63,71.94c.78,1.93,1.38,4.17.15,6.06-.04.18.12.52-.15.63h-.48c.3-1.3.19-2.68-.67-3.91-.34-.07-.64-.41-.49-.82.56-.56,1.08-1.08,1.16-1.82.22.15.22-.26.48-.15h0Z"/>
      <path class="cls-6" d="m218.32,81.95c.04,2.64-.71,4.8-.67,7.67-.04,1.41.7,3.12.82,4.43l.19.18-.34.3h-8.52c-.38,1.71.04,2.64-.34,4.13-.78.26-1.75.11-2.6.15-.15-.04-.26.07-.34.15-.59-1.12-.19-2.72-.33-4.09-.52-1.23-3.46.63-3.09-1.64.37-.82.45-1.64,1.3-1.97.71-.07,1.34-.52,1.79-.82,1.08-.67,1.9-1.9,2.98-2.61.07.19.3.15.48.15,1.78-.97,2.79-3.31,5.24-3.42,1.27-.67,1.67-2.01,2.46-3.12-.26.33.63.33.96.52h0Z"/>
      <path class="cls-4" d="m188.03,92.74c-.7,19.57.04,37.92-.67,57.49-.19,1.71.04,3.46-.48,5.24-.26.07-.33-.19-.48-.33-.42-16.22.19-31.03,0-47.33.41-5.06-.19-10.57.48-15.55.41-1.19.86.07,1.15.48h0Z"/>
      <path class="cls-6" d="m110.38,93.41c.74,1.41-.71,3.13-.34,4.43-.67.41.04,1.38-.63,1.79-.04.18.11.52-.19.67h-.48c.63-.41.23-1.3.48-1.83-.22-.22-.63-.78-.97-.33-.52.41-.08,1.75-1.15,1.49v-.67c.33-.37.74-1.19.67-1.64.29-.82,1.3-1.75,1.63-2.79.22.11.3-.18.49-.3l-.19-.18.52-.48-.19-.15h.34Z"/>
      <path class="cls-6" d="m99.26,93.7c-.26,1.45.22,3.83,1.45,5.25.85.11.96,1.08,1.63,1.49.34,2.01-2.27,1.53-3.27,2.12-1.08.45-2.08.78-3.27,1.3-1.83,1.23-3.54,2.16-5.24,3.46-3.13,3.01-5.62,5.43-6.85,9.67-.71.93-.63,2.16-1.34,3.09l-1.63,6.21c.56,3.83-1.08,6.92.19,10.83-.11,1.56.85,2.86.96,4.76.52,2.27,1.75,4.99,3.13,6.88.45,1.38,1.19,2.87.63,4.39l-1.3,1.82c-2.31.89-5.25.56-7.22-1-.59.48-.93,1.41-.3,1.97.52,1.27,2.05.86,2.94,1.64.71,0,1.42-.07,1.98.34.45-.82,1.08.26,1.63-.34,1.83-.52,3.76-1.6,4.91-3.09,1.38-.34.34-1.64,1.45-1.97.26,1.75.33,3.87-1.3,5.06-1.01.41-1.67,1.75-2.79,1-.82.56-2.42-.33-2.94.63-.52-.11-1.67-1-2.45,0-.19,1.52,1.52,1.12,2.3,1.64.93.63,2.38-.52,3.42.33,1.04-.52,2.12-.85,3.13-1.45,2.38-1.6,2.79-4.43,5.73-4.95.07-.63.78-.45,1.15-.63.15,0,.41.04.48-.18l.34.33c.19-.15.22-.41.3-.63l1.34.48c-2.16,1.6-3.83,3.79-4.28,6.55-.82,1.3-2.3,2.34-3.91,2.46-.89,0-1.86-.74-2.64,0,.11-.48-1.27-.3-1.64-.33-.3.19-.11.52-.15.82.44.82,1.37.41,1.97,1,.48.45,1.15.45,1.79.63l.34-.34c.93.97,1.75-.33,2.79-.15,3.01-.71,3.68-3.98,6.06-5.73,1.01-.11,1.52-1.12,2.6-.82.19-.22.48-.22.67-.49.23.75.63-.22.97.33,1.16,0,2.42.6,3.42,1.3-.19.74-.86,0-1.3,0v-.18c-.3-.45-.52.15-.82.18-.14-.41-1.41,0-2.11-.18-.79.37-2.01.6-2.94,1-2.31,1.82-3.31,5.8-6.73,6.06-.23-.78-1.23.11-1.97-.19.11-.22-.19-.33-.3-.48-.59-.04-1.3.63-.82,1.15,1.01.48,2.01,1.15,3.09,1.45-.6.48-.26,1.34,0,1.82.78.63,1.97.78,2.79.82.93,1.26,1.19-1.12,2.12.15.29-.6.78.56.81-.33,1.16,0,1.75-.52,2.65-.82l.15-.15c.11.34.41.56.67.82.12-.3.45-.45.34-.82,1.12.75,2.2-.74,3.09-.15,1.49-.56,3.28.18,4.77.63,1.45,1.04,2.97,2.83,2.94,4.61-1.23-1.08-3.01-2.27-4.42-2.46-.26-.78-1.42.18-1.45-.86-.45,1.15-1.49-.34-2.16.52-.97-.71-1.75.6-2.6.15l-.82.82-.34-.33c-.75.3-1.38-.07-1.97.33-.03-.71-.93-.52-1.3-.33-1.19-.59-2.45-1.04-3.76-1.3-.3.22-.37.48-.34.82.3.71,1.04,1.08,1.64,1.3-.08.26.22.34.33.52.71.04.89.89,1.79.82,1.41.86,2.45.93,3.94,1.64.86.44,1.75-.3,2.31.63.74-.19,1.45-.11,2.12.33.37.74.7.04,1.15.48,1.9,1.08,2.68,2.75,3.43,4.58.67,2.61-.48,5.02-2.12,6.73-.52.37-.85.82-1.49,1.15.14-1.12,1.04-2.31,1.15-3.61-.11-3.94-3.09-6.96-6.55-8.37l-.15.19c-.56-.63-1.71-.78-2.31-1.15-1.34.07-1.89-1.27-2.79-1.97-.41.19-1.23.26-.97,1.01.45,1.93,2.57,2.6,4.09,3.42.15,0,.41.04.48-.15,2.2,1.23,5.28,1.86,5.73,4.91.52,1.3-.23,2.94-.67,4.24h-.3c.22-3.31-1.9-6.21-4.77-7.7-3.57-.67-6.36-3.98-7.21-7.37-2.23-7.11-10.2-9.42-15.07-14.25-1.78-2.53-2.05-6.03-1.64-9,1.41-2.94,2.31-6.4,4.91-8.52,0-.74-.48-1.19-1.3-.97-.45.15-.26.86-.82.63-1.71,1.75-2.53,3.83-3.76,5.73-.89.19-.56,1.26-1.49,1.34-.41.78-1.05.78-1.78.97l-.19-.15c1.86-2.83,1.67-6.51,3.12-9.53.48-.82,1.16-1.86,1.97-2.27.86-.85,1.01-1.04,2.12-1.15.82.04.67-.86.97-1.3-.86-2.34-2.46.19-3.76.15l-.82.49.19.18c-1.19.26-1.6,1.64-2.64,2.12-.15.19-.08.71-.48.63h-.67c1.26-2.34,2.72-4.8,5.24-5.88.7-.41,1.79-1.04,1.82-1.97-.37-.37-1-.63-1.48-.33-.26.78-.82-.11-1.16.33-.67.63-1.71.52-2.27,1.49l-.19-.19c-1.12.56-2.05,1.53-3.09,2.16-.71-1.12,1.07-2.98,1.63-4.43,1.3-1.26,3.35-2.08,4.39-3.61.93.15.93-.86,1.34-1.3-1.05-1.19-1.53.86-2.97.15l-.15.48c-1.45.97-3.35,1.94-5.06,1.97.41-.97,1.52-1.71,1.79-2.79,1.63-1.56,2.83-1.64,4.76-2.46.63.07,1.23-.08,1.64-.63.11-.52-.45-.67-.67-1.01-.75.04-.97-.11-1.64.19.08-.52.82-.82,1.3-1l2.79-.15c-.11-.89-1.12-1.04-1.64-1.64-.15.26-.52.11-.81.15-.75-.85-2.05.22-2.79.33v.15h-.49c.45-1.34,3.09-.52,2.79-2.6-.48-.56-1.04-.93-1.63-1.15-.3-.37.14-1,.63-.97.7.19,1.49.19,2.16.48-.18-.04-.26.07-.34.15,1.3.67,3.35,1.15,3.91,2.79.26-.48,1.19-.56.82-1.45-.56-.37-.9-1.34-1.12-1.64-1.01-.82-1.97-1-2.79-1.82-.41.18-.52-.34-.82-.48v-.34c1.71-.33,3.09,1.12,4.43,2.31.89.15.22-.82.63-1.15v-.67c-1.41-1.38-3.01-3.05-4.09-4.58.15-.3.45-.11.67-.15v.15c1.74-.26,3.09,1.53,4.76,2.61.26.3.22,1.01.82.82,1-.63.11-1.08.15-1.93-.81-1.56-3.05-2.83-3.76-4.61,1.67-.59,2.6,1.53,3.91,2.31.78.41,1.15,1.15,1.83,1.49.67-1.15-.49-2.38-1.01-3.46-1.34-.49-1.08-2.05-2.27-2.61.08-.41-.41-.74.15-1,2.23,1.12,4.09,2.16,5.73,4.28.44.19.44-.34.67-.48-1.12-2.6-3.24-5.51-2.64-8.04,2.79.93,3.5,4.17,5.73,6.06h.33c.45-2.2-1.41-4.24-1.63-6.55-.04-.56-.6-1.12-.15-1.64h.34l-.19.15c2.71.56,4.17,3.13,4.76,5.73l1.16,1c1.6-1.19-.23-2.83-.34-4.28.11-1.27.22-2.72,1.3-3.42v-.52h.67Z"/>
      <path class="cls-6" d="m323.95,97.5c.3.97,1.45,1.82,1,2.94.15.19.45.37.34.67-.67.11-.52-.63-1.01-.82.3-.6-.44-.71-.48-1.16-1.12.19-.45,1.3-.48,1.97.14.19.45.34.33.64-.81.11-.52-.82-1-1.16-.52-1.9-1.01-4.05-.82-6.06,1.04.6,1.23,2.08,2.12,2.98h0Z"/>
      <path class="cls-6" d="m333.96,96.01c1.08.89.67,1.75.97,2.94.3,1.6-2.05,2.75-.49,4.28,1.38-.04,1.38-1.67,1.98-2.31.22-1.34,1.34-2.46,2.12-3.42.67.19,1.49-.48,1.98-.82.26,2.72-1.67,5.17-1.98,7.71.97,1.08,1.05-.82,1.64-1.01,1.04-.6,1.19-1.82,1.83-2.79.81-.22,1.37-1.23,2.27-1.3l.52-.48c.63,1.15-.22,2.01-.18,3.13-.82,1.41-1.75,3.05-2.27,4.72l.48.48c1.42-1.56,2.68-2.53,4.43-3.42v-.33c.41-.19.96-.15,1.45-.15-.15,2.09-2.12,2.98-3.09,4.72.08.6-.82.78-.52,1.49l.67.48c.56-.93,1.23-1.27,2.12-1.78.85-.89,1.89-2.01,3.27-1.97-1.04,2.49-4.17,3.13-4.09,6.21.9.78,1.27-.63,2.12-.97l2.45-2.12c.71,1.49,1.23-.86,2.16.15-1.26,2.23-3.46,2.9-4.43,5.1l.15,1.3c1.12.19,1.53-1.38,2.65-1.64.56,0,.96-.82,1.45-.48.23-.11.19-.33.19-.52.3.04.67.3.82.67-1.12.11-1.34,1.26-2.45,1.3-1.27.37-1.53,1.75-2.31,2.64-.03.52.08.97.48,1.3,1.56-1.38,3.27-2.68,5.43-3.27.33.56.86-.48,1.12.33v.82c-.67-.3-.97.45-1.3.82-.08.63.07,1.15.48,1.64.67.45,1.64.04,2.16.82h.15c-.12.15-.45.45-.82.3-.04-.93-1.08-.19-1.49-.63-1.19-.11-2.68.04-3.61,1.15.63,1.23,2.45-.3,3.46,1.12h.15c-.56.74-2.2-.22-1.79,1.49.7.56,1.93.15,2.3,1.15,1.94-.37,3.39.97,4.58,2.79.07.48,1.15.89.97,1.64-.71-.41-1.34.15-1.79-.48-1.27,0-2.75-1.15-3.61-1.97-.74.04-1.52.04-1.97-.67l-.67.67c2.19,2.9,7.44,4.46,7.7,8.82h-.81c-.04-.71-.41.23-.63-.3-1.45-1-2.75-2.12-4.43-2.46-.3-.41-.86-.59-1.15-.52-.3-.59-.78-.3-1.3-.15-.67,1.71,1.41,1.75,2.31,2.79,1.15.41,2.08,1.45,2.61,2.45,1.18.52.67,1.79,1.49,2.46,0,.15.03.41-.19.48-1.19-.97-2.01-2.53-3.61-2.94,0-1.26-1.6-.71-2.27-1.3-.3-.04.52.11.63-.18-.67,0-1.49-.74-2.12,0-.04.67-.37,1.64.67,2.12.48-.3,1.08.07,1.63.19-.14.89,1.27.85,1.3,1.64,2.94,2.9,1.67,7.96,4.09,11.12-.15.3-.52.15-.82.19-.22-.67-.89-.86-1.48-1l.18-.15c-2.49-2.12-2.83-6.17-6.06-7.85l-.19-.19c-1.93,1.94,1.45,2.83,1.83,4.58.15.63.82,1.19.48,1.82.85.26.3,1.3,1.16,1.45.33,1.15.52,2.46.67,3.94.15,2.16-.18,4.13-1.01,5.92-1.56,1.93-3.39,3.46-5.58,4.58-.97.86-1.79.93-2.76,1.79-2.93,1.71-4.84,4.32-6.73,6.74-1.38,2.94-2.05,6.59-5.25,8.33-.56.48-1.74-.11-1.97,1-.82-.37-1.04.63-1.79.48-2.5,1.68-4.2,4.58-3.94,7.37-.67-.52-.67-1.64-.97-2.46-.15-2.49,1.53-4.61,3.76-5.92.81.37,1.08-.67,1.82-.48.75-.26,1.42-.78,2.27-.82.85-.82,2.01-1.38,2.64-2.46-.15-.63-.37-1.53-1-1.64-.45,1.86-2.12,1.75-3.42,2.64l-.19-.19c-.48,1-1.67.82-2.27,1.01-2.6.89-4.95,3.76-5.73,6.55-.75,1.86.56,3.35,1.12,4.91-2.16-.41-3.27-2.94-3.9-5.1-.63-1.19.81-1.9.33-3.28.63-.74.67-1.71,1.3-2.45,1.52-1.34,3.46-2.01,5.06-2.6.3.26.78.11,1.16.15.22-.34.52-.37.82-.15,1.93-.74,3.68-1.45,5.73-2.31.74-.78,1.94-1.15,2.31-2.12-.45-2.42-2.08.37-3.27.15-1.71-.11-3.61,1.04-5.58-.3-1.64.41-4.06-1.04-5.58.3-1.79-.41-2.68,1.27-4.09,1.82v.34h-.15c-.7-2.31,1.78-2.98,2.79-4.61.37.04.86-.11,1.16.19.59-1.23,2.56-.34,3.42-.82l.49.48c.81-1,1.63.48,2.45,0,.59.22,1.45.19,2.16.34.23.59.93.18,1.3.48-.08.22.19.34.34.48.26-.74.78,0,1.12,0,.41-.52.82-.11,1.34,0,1.27-.04,3.24-.07,3.76-1.64,0-.48-.74-1.08,0-1.49,1.23-.04,1.82-.45,2.79-1.3.03-.34-.04-.6-.34-.82-1.15.26-2.71,1.01-3.76,0-3.42-.37-3.02-4.69-6.26-5.88-.85-.19-1.79-.74-2.6-.33.08-.26-.22-.33-.33-.48-.82.75-1.23-.6-1.97.34-.49-.48-.9.75-1.45.15,1.9-2.05,4.73-1.67,7.03-.82,2.9,1.27,2.75,4.91,6.07,6.06.96-.11,1.83.93,2.6.33,1.56.48,2.68-.67,3.79-1,.41.19.52-.34.82-.48.04-.33-.07-.63-.33-.82-.9-.11-1.52.97-2.31,0-.34-.04-.59.04-.82.33-1.75,0-3.42-.45-4.42-1.97-1.19-2.49-1.97-5.58-4.58-7.03,1.23-.6,3.42.3,4.91.97,1.67,2.04,3.76,4.5,6.06,5.73,1.49.41,3.05-.18,3.95.82.78-1.19,2.9-.78,3.27-2.27-.3-.26-.56-.67-1.01-.52-1.38.74-3.38,0-5.06,0-1.68-.45-3.16-1.9-3.61-3.61-.11-.89.19-1.64.34-2.45.63,0,.07.74.48,1,1.23,1.86,3.12,2.72,4.91,3.94l.33-.33c.86.45,1.34.45,2.27.63.52-.52,1.56.41,1.97-.48.63.04,1.07-.78,1.63-.34.45-.63,1.86-1.23,1.16-2.46l-.48-.63c-1.82,1.45-4.43,1.97-6.55,1.3-1.3-.82-1.97-2.05-2.12-3.61.45-1.26.74-2.53,1.79-3.76.04-.45.52-1.12.81-1.64.12-.56.41-1.15.67-1.49,1.45-3.17,1.82-6.55,2.12-9.82l.34-.67c-.19-3.05-.34-5.88-.52-9.15-.86-3.12-1.52-6.36-3.09-9.19.23-1.08-.96-1.64-1-2.6-2.16-2.75-4.35-5.32-7.18-7.55-.59.3-1.04-.67-1.63-.82-.82-.26-1.38-.67-1.98-1.12-.78-.67-1.93-1.01-2.79-1.01-.25-.86-1.04-.37-1.79-.63.08-.26-.22-.33-.33-.52-.48.11-.85-.11-1.16-.48.19-1.42,1.38-2.16,2.46-3.09.48-1.3,1.08-2.94.81-4.13.75-.93.56.3.82.67h0Z"/>
      <path class="cls-6" d="m114.66,102.22c-.6.37-.6,1-1.34,1,.19-.48,1.08-1.23.52-1.97-.19-.3-.56-.11-.82-.15-.15.26-.48.49-.52.82h-.34c-.15-1.71,2.12-2.23,2.79-3.46,1.15,1.01-.04,2.57-.3,3.76h0Z"/>
      <path class="cls-6" d="m320.38,102.89c-.67.45-1.15-.78-1.64-.82-.1.41-.44,1.12-.33,1.79.33.3.56.74.97.82.04.3-.44.15-.63.18-.78-1.53-2.6-3.27-1.63-5.24,1.23.74,2.42,1.93,3.27,3.27h0Z"/>
      <path class="cls-3" d="m114.47,110.11h.33c2.6,2.98,4.06,6.59,6.88,9.34,1.75.45,2.57,2.42,4.09,3.09,3.16,3.12,5.77,6.14,7.37,10.16-.15,1.64.97,3.24.48,4.76-.71.56-1.97.11-2.27,1.31-.93.07-2.45.67-2.98-.48-.52-.04-.85-.52-1.3-.82l.15-.18c-.45-.52-1.78-.86-1.64-1.64-.48,0-.97-.56-1.45-.82-1.12-.22-2.23-.15-3.13.52-.93.52-.86,1.75-1.3,2.6.71.3-.08.78.15,1.3.63.78.78,1.79,1.15,2.64-1.12.45-1.12-.78-1.97-.82-.63-1.56-.86-3.5-.97-5.1-1.23-1.6-3.2-1.6-4.58-2.27l-.33-.33c-.08.07-.15.19-.34.15-1.41-1.82,1.53-3.98-.67-5.25l-.82.52c-1.83,2.2-1.97,6.4-5.73,6.55-1.49.15-2.27-3.24-3.57-.82-1.04-.37-1.71-1.6-2.64-2.16l-.97.82c0-.26-.33-.45-.48-.63-.75.67-1.6-.29-2.31-.67-1.3-.86-.75-2.53-1.97-3.42-.59-1.3.04-3.46-1.78-3.94-.85,1.15.22,2.23.14,3.46,1.12,3.2,2.72,6.66,5.73,8.67.6.37,1.71,1.27,1.3,2.12-1.08-.34-1.56.63-2.61.15.11-.26-.19-.45-.33-.63-.45.04-.45.52-.67.82.41.59,1.04.74,1.64.82,0,.15-.04.41.19.48.3-.26,1.71.15,2.45.48.37-.45,1.64.04,1.97-.82.15,0,.41-.04.49.19-.12.86-.97.71-1.49,1.3-.52,0-1.19-.11-1.45.48-.15.41.37.74.63.82.52.07.86-.11,1.15-.48,1.64,1.34,4.13-2.01,4.57.33-.48.26-1.3.67-.96,1.3.48.74,1.19,0,1.79,0,.67-.26.56-1.45,1.49-.97.79,1.15,2.42,1,3.28,2.27l.15-.15c1.23.56,2.76,1.38,3.79,2.46.41-.26.97.26,1.45.34.04.15-.08.22-.15.3.59.82,2.08.33,2.31,1.49.33-.11.67.15.81.33l-.19.15c4.35,2.79,8.45,6.51,11.46,11.16,2.9,4.09,5.09,8.74,6.25,13.73,1.3,4.2,4.39,7.22,5.21,11.65,1.45,5.8,1.6,13.58-.15,19.31h-.33c-.34-1.3-.04-2.72.33-3.91-.15-3.28.41-7.07-.48-9.82.19-1.19-.3-2.04-.82-2.98-.7-.56-.74.33-1.15.67-.45,1.23.37,1.93.34,3.13-.45,2.27.3,4.91-.67,7.18.04.44,0,1.23-.48,1.64l-.82.82c.08-.22-.19-.34-.33-.48-.08.22-.34.15-.49.15-2.67-2.53-1.11-6.21-1.3-9.15.12-2.72-.63-5.73-2.45-7.55-1.64.52.26,1.71.15,2.64.63,4.13.3,7.25-.34,11.46-.07,2.38,1.83,4.39,3.61,5.58l.19.49c5.13,5.21,9.49,9.3,14.06,14.92,2.42,2.19,2.27,5.47,3.13,8.33.89,3.76-.9,7.22-1.01,10.98.37,4.5.78,10.46-.3,14.74-1.64,2.79-.37,5.17-.52,8.37l.19,6.36c-.75,1.23-.48,2.83-1.49,3.94-.08,1.23-1.19,1.67-1.97,2.6l-.15-.15-.82.67c.45-2.68,2.38-5.43,2.6-8.52.37-2.38.71-4.91.34-7.37-.22-.34-.56-.52-.97-.52-1.08,1.75-1.23,3.83-1.83,5.77-.63,1.15-.96,2.49-1.45,3.76-.63,1.71-2.12,2.64-3.12,4.24-.34.86-1.3.3-1.64,1.15-.08-.07-.15-.18-.33-.15.22-.63.86-.78,1.3-1.15,2.53-2.94,4.24-6.21,5.09-9.82.33-1.49,1.49-3.31.49-4.61-.34-.04-.6.07-.82.33-.19-.41-.6-.33-.97-.33-.63.78-.78,1.79-1.15,2.64-1.56,2.42-3.38,6.14-6.73,6.4-.23.63-.97.07-1.3.48-.26.41-.82-.19-1.16-.48.15-1.34,1.64-.3,1.82-1.34.11.41.63.59,1.15.52,1.9-.71,3.05-1.9,4.24-3.61.52-1.64,2.38-2.64,2.12-4.76-.37-.78-.86-.26-1.3,0-1.12.82-1.9,2.53-3.28,2.46l-.33.48c-.67-.11-1.16.82-1.97.48.14-1.04,1.49-1.11,2.16-1.93,1.79-1.12,3.01-2.87,4.42-4.61l-.33-.63.33.34c.63-1.53,2.76.37,2.94-1.64.26-2.27-1.86-3.68-1.15-5.91.15-1.79,1.63-3.01,1.63-4.91.45-.71.45-1.56.82-2.31-.03-2.64.93-5.51-.82-7.66.3-.71-.45-1-.67-1.49.19-4.87-1.93-8.82-6.21-10.98-1.9-1.23-4.09-2.01-6.06-3.27-.59-.3-.48.48-.97.48l.14-.15c-.82-.74-2.19-.52-2.79-1.49-.7.71-.59-.71-1.3-.67-.59-.63-1.78-.89-1.78-1.94-.97-.18-.22.9-.82,1.12v.67c-.74-.07-1.23-1.08-1.63-1.64l-.67-.67c-1.31.63-1.12-1.23-1.79-1.79-.63-2.68-2.49-5.62-5.24-6.21-1.49-1-2.6,1.75-3.76-.33-1.3.3-1.87-1.23-3.31-.82-.86-.52-1.53-1.64-2.61-1.64-.41.45-.26,1.49.15,1.97.82.97,1.6,2.12,2.8,2.12.67,1.12,2.3.52,3.27,1.16.59.93,2.16,1.34,2.31,2.6,1.11,1.12,1.56,2.08,2.45,3.27.3,1.19,1.64,1.19,1.79,2.31.89.7,2.2,1.12,2.64,2.12,1.34.22,2.04.86,3.28,1.3.97.37,2.05.56,2.94,1.15.6-.19.85.33,1.3.48,1.01-.15,1.79.22,2.46.67.26,1.27-1.71.86-2.46,1.64-.63,1.12-2.53.41-2.75,1.3-.63.11-1.41-.3-1.83.33-.15-.3-.52-.11-.82-.15-1,.67-1.75.11-2.79-.19l-.33.48c-1.97.07-3.91-.67-5.73-.63-1.82.19-3.5-1.04-5.54-.82-1.34-1.12-2.41.19-3.61-1.15-1.3.04-2.83-.78-3.76-1.49-.74.22-1.49-.63-2.31-.82-3.12-2.46-7.21-3.91-7.55-8.52-.41-2.01.67-3.98,1-5.73.15-.48.34-.97.48-1.45.63,1.49,2.31,2.6,3.46,3.91.07-.19.3-.15.48-.15,1.86,1.53,4.05,2.42,6.36,2.94.89,1,1.83.34,2.79,1,.82.56,2.72.15,3.8.97.08-.07.19-.15.14-.33.26.19.89.56,1.3.19.26.07.34-.22.49-.34-.04-.71-.82-1-1.3-1.3-.63.48-1.9-.19-2.46-.33-1.15-.82-2.31.33-3.42-1-.41.48-.7-.37-1.15-.3-1.19-.26-2.87-.74-3.94-1.49-.45-.15-.78-.67-1.16-.97l-.14.15c-1.64-1.97-4.51-3.16-4.76-6.07.03-2.98,1.26-5.69.81-8.67.71-.97.79.52,1.49.49.67.3,1.19-.63,1.64.15l.33-.3.34.48c.04-.63.97-.22,1.12-.33v-.15c1.56.15,2.76-.19,4.09-1.01,1.04.19,1.3-1.15,2.31-1.15,2.83-1.82,3.94-5.13,3.61-8.34.07-1.6-1.08-3.12-1.83-4.57-1.15-1.71-3.35-2.75-5.06-3.46-.07.07-.15.22-.34.19l-.34-.33c-.14.41-.7.41-.96.15-.22-.07-.15-.34-.15-.48.86.04,1.85-.41,2.45,0,1.75-.3,2.34,1.12,3.91,1.3,1.64.86,2.01,2.72,3.12,3.76,1,.19.82-.97,1.3-1.45.41-3.2-.92-6.66-3.94-8.71-1.3-.75-2.53-1.82-4.24-1.64.14.07.25-.08.33-.15l-1-.15c1.23-.15,2.23.04,3.46.48,1.71.56,2.79,2.2,3.94,3.42.74.15.52-.78.82-1.15.56-3.42-4.39-4.54-3.8-7.67-1.6-3.09-4.28-6.03-7.7-6.25-.3.04-.59-.04-.82-.33l-1.78.33c.04-.41.71-.74,1.15-.82.74-.37,1.49.78,1.98-.33.22-.93-.89-1.3-1.34-1.94-1-.45-2.12-.71-3.27-.82.19,0,.41.04.52-.19-.6-.22-1.42-.22-1.97,0l.15.19h-.82c0-.19.04-.41-.15-.52-.23.11-.19.33-.19.52h-1.16c.11-.82-1.04-.67-.96-1.49-1.3.08-.26-.89-1.49-.97.33-1.12-1.3-.6-.97-1.64-1.29-.74-1.97-2.31-2.93-3.46-1.12-1.93-2.12-4.2-2.64-6.55-.78-1.23-.52-2.9-.97-4.24.03-5.1-.15-9.12,1.3-13.62.6-4.06,3.16-7.37,6.21-9.97.97-.67,2.12-2.05,3.27-1.97.97-.71,2.6-.11,3.8-.49,1.75-.45,1.97-2.57,3.76-2.79,2.5-1.38,5.02,1.12,7.37,2.12,1.11,1.3,2.41,1.67,3.27,3.12h0Z"/>
      <path class="cls-3" d="m328.08,106.02c1.83.15,2.31,2.94,4.09,2.75.45.34,1.67.71,1.78,0,.9.71,2.38.63,3.42,1.34.78.41.82,1.56,1.83,1.45,6.33,4.84,6.73,12.84,7.21,20.5-.3,2.9-.63,6.21-1.64,9-.41,1.49-1.07,3.05-1.97,4.24-1.15,2.16-2.9,3.35-4.09,5.4-.93,1-2.56,1.75-3.27,2.79l-.67-.48-.15.15c-.22-.26-.52-.34-.82-.3,0-.19.04-.41-.18-.52-.15.33-.37.6-.34,1v-.19c-.71-.45-1.75.22-2.6.33-.22.56-.74.26-1.15.34-.63.67-1.86,1.12-1.45,2.12.59,1.08,1.83-.59,2.46.82.3-.04.59.04.81.33-1.41-.11-2.68-.52-3.94.33-2.31.33-4.62,2.23-6.06,4.43-1.19,1.79-.19,3.39-2.12,4.73-1.45,1.08-2.2,3.2-2.31,4.91l.67.67,1.79-2.12c1.08-.11,1.49-1.3,2.46-1.15.59-.67,1.6-.78,2.31-.67l-.49.52c-.67-.33-1.23.48-1.97.48-2.64,1.38-5.28,4.5-5.58,7.7.23,1.23.11,2.57,1.3,3.42,1.12-.71,1.41-2.75,2.64-3.27.63-1.23,2.12-1.15,3.09-1.97,1,.15,1.97-.26,2.98.34.26-.82.67-.19,1.15,0-1.23,0-2.23.63-3.46.67-1.34,1.23-4.54,2.53-4.91,5.25-.86,2.64-1.26,5.55.34,8,2.12,1.9,4.5,4.73,7.7,4.76.15,0,.41.04.48-.15l.33.48c.07-.08.18-.19.15-.33,1.23.41,3.09.3,4.28-.15.15-.23.03-.71.48-.52.56,3.05.9,6.14.97,9.34-.74,1.56-1.53,3.42-3.28,4.28-1.04,1.64-2.94,2.01-4.42,2.94l-.15-.15c-.82.45-1.71,1.19-2.64.97-1.53,1.26-3.8.86-5.55,1.64-.48-.11-1.19.22-1.82.33l-.49.64c.37,1.34,1.75.15,1.98.52l.33-.33c.23.52.48.11.82,0,.03-.71.6-.08.82.15,1.67-1.27,3.57-.52,5.24-1.79,1.34-.52,2.12-.45,3.28-1.15,2.46-1.08,4.91-2.83,6.21-4.91h.34c.37,1.26.56,2.79,1.15,3.76.6,2.27,0,3.76-.52,5.92-1.64,1.79-3.09,2.98-5.07,4.09-1.56,1.86-3.8,2.12-5.58,3.09-1.04.41-2.23,1-3.27,1-2.08.93-5.02.89-7.37,1.79-.3-.52-2.16.37-2.94-.15-.63.78-1.56.56-2.45.48-.52-.15-1.16.37-1.64-.33-.78-.15-1.49.48-2.12.48-.7-.44-1.56-.44-2.3-.82-.93.59-.71.22-1.3-.48-2.09.48-2.72-1.45-4.58-1.45-.07-.33-.63-.67-.19-1,1.05.07,1.86-.82,2.79-.49.26-.26.56-.89,1.16-.67.59-.04,1.41-.52,2.12-.82,1.75-.15,3.01-1.42,4.58-2.12.03-.48,1-.33,1.3-.82,1.12-.41,1.12-1.82,2.16-2.12.85-1.64,2.57-2.94,3.09-4.76.45-.52,1.56-.89,1.83-1.64.41-.45,1.41.3,1.45-.64.37.86.93-.3,1.34.15,1.52-.93,3.46-1.79,3.91-3.76.08-.6-.08-1.15-.63-1.3-.85.89-2.05,2.12-3.27,1.94-.6,1.04-1.41-.04-1.97,1-.67-.63-.97.67-1.64.48-.71-1.23-2.38-.3-3.27-.33-2.05,1.19-3.91,3.83-4.28,6.07-.48,2.19-2.98,2.27-3.76,4.09-.52-.3-.3-1.19-.81-1.64-1.49.85-2.6,2.57-4.24,3.12-.34-.59-1.08.08-1.34.34-2.46-.48-3.13,1.23-5.25,1.79-1.89,1.53-4.5,2.12-5.88,4.24-2.01,1.79-2.49,4.43-2.45,7.22-.89,1.75-1.94,3.91-1.98,6.21-.33,2.75.45,5.06,1.49,7.22.41,1.38.86,2.79,1.15,4.28.22,1.41-.96,2.27-1,3.57-.3.67-.48,1.6-.15,2.31.45.37,1.08.71,1.64.33l.15-.18c1.82,3.01,4.72,5.32,7.7,7.55v.33c-2.23.11-4.61-1.86-6.21-3.94-.41.11-.85.37-1,.82,1.6,2.83,2.79,6.73,6.4,7.85,1.19.85,2.94-1.19,2.94,1.15-.37.22-.82.22-1.15.49-.45-.6-1.38-.11-1.78-.82-1.16.97-1.08-1-2.12-.82-1.56-2.49-4.24-4.13-4.43-7.18-.37-.34-.52-1.04-1.15-1.01-.23,1.38-.97-.78-1.45.34-.22,3.16.74,6.18,2.27,8.85.22,1.45,1.52,2.01,1.82,3.42.75,1.23,2.16,1.93,2.75,3.13-2.53.33-2.46-3.13-4.39-3.94-.38-1.15-1.16-2.16-1.34-3.42-.44-1.71-1.12-3.28-1.79-4.91.19-1.08-.3-1.86-.82-2.64-1.75,1.08-.78,3.68-.82,5.43.19,3.91,1.27,7.52,3.13,10.79l-.34.34c-3.5-1.64-3.83-5.28-4.43-8.67-.37-4.43,1.52-9.19-.34-13.62-1.71-5.8.71-11.46-.33-17.19-.63-3.01-.82-5.28-.49-8.52.52-.56.3-1.38.82-1.97-.78-4.43,3.69-6.47,5.73-9.82,4.46-4.58,8.63-9.16,13.43-13.58,1.67-1.79.93-4.39.67-6.55.08-3.5-.33-6.96.97-10.16l-.63-.52c-3.54,3.87-2.16,9.42-2.45,14.1-.41.93-.67,2.42-1.82,2.64-1.08.19-1.6-.89-1.79-1.67l-.67-8c.44-1,1.04-2.38.33-3.46-.75-.78-1.08.18-1.49.67-.86,4.95-1.19,9.49-.33,14.58.22.52-.34.78-.15,1.3h-.33c-.67-3.35-1.34-7.55-1.31-11.64.74-5.14,1.56-11.54,5.39-16.04,1.27-1.97,1.38-4.43,2.31-6.55,2.12-6.4,6.03-12.06,10.79-16.89.93-.08.97-1.23,1.83-1.45,1.12-1.49,3.01-1.67,4.24-3.27l.18.15c.19-.07.15-.33.15-.48,1.53.22.6-.93,1.97-.97.37-.97,1.75-.9,2.61-1.34-.11-.26-.45-.11-.63-.15.6,0,1.23-.48,1.64-.48,1.15-1.38,3.05-1.52,4.43-2.79.67.11,1-.63,1.63-.67.6.93,1.64,1.19,2.27,1.64,1.41-.97-.45-1.6-.82-2.27.3-.67,1.45-.97,1.97-.34,1.23,1.19,2.9.41,4.28.82.41-.15.41-.75.15-.97-.3-.71-.97,0-1.3-.34-.3-.71-1.72-.59-1.16-1.49.82.89,2.16.93,3.27.67.93-.78,2.68-.41,3.13-1.64,0-.3-.34-.45-.52-.67-.41.89-1.45.33-1.94.48-.45-.04-.71-.19-1.16-.48.37-1.41,2.49-2.42,3.61-3.42l-.19-.18c1.08-1.01,2.05-2.64,2.79-4.09.89-1.79,1.71-4.24,1.15-6.06-.3.04-.67-.11-.81.19l.14.15c-1,1.67-1.23,4.62-2.79,6.55-.48.82-1.38.82-1.94,1.49-.26-1.08-1.85,1.23-2.3-.49-.97.45-1.98,3.31-3.42,1.3-.41.41-1.19.63-1.82.97l.19.18c-.22.04-1.52.67-2.16,0,.19.04.26-.11.34-.18-.86-.49-1.53-.37-2.31-.97-.52-2.05-2.09-3.72-3.09-5.58-1-.08-.59.89-1.15,1.49.41.97.56,2.08.48,3.27l-.97.97c-1.27-.41-2.23.86-3.61.67.19.33-.48.82-.82.97l.15.19c-.93,1.12-.19,2.42-.63,3.76-.26,1.04-1.41,1.52-1.97,2.31l-.67-.34c.7-1.52,2.05-3.39.82-5.1.19-.67-.38-.82-.82-1.15-.3.15-.56-.19-.63-.3l.15-.18c-.93-.6-2.31-.26-3.28,0,.12.3.45.15.67.18-1.38.6-3.16,1.9-3.95,3.28-.78-.3-1.34.89-1.97,0-.48.86-.9-.26-1.45-.19-.75-.52-2.34.04-2.3-1.3.33-3.24,1.67-6.62,3.42-9.34.41-.41,1.23-.89,1.16-1.64,1.3-.48,1.56-1.56,2.79-2.31,2.42-2.98,6.36-4.43,8.03-8.18,1.61-1.01,1.56-3.16,3.09-4.24.6-1.01,1.9-1.94,2.79-2.45,1.45-1.34,3.2-2.72,5.1-3.13.97-.07,1.9-1.23,2.79-.63h.82Z"/>
      <path class="cls-2" d="m106.29,112.72c.89.41,1.38,1.97,2.79,1.15.93-.56,1.52-.93,2.45-1.49.48.45,1.19.45,1.79.67,1.94.97,2.2,3.2,3.8,4.58.08.26.19.48.15.82-.34.04-.52.37-.82.48-.45-.86-1.64-.45-2.31-.3l-.3.3c-.23-.97-1.38.41-1.83-.3l-.48.15c-2.16-.48-3.12-2.9-5.39-3.13-.33-1.26-3.65,0-3.13-2.27.45-.63,1.38-.41,1.64-1.15.71-.22,1.08.89,1.64.48h0Z"/>
      <path class="cls-2" d="m321.68,114.35c1.19-.04,1.53,1.45,2.79.67.82-.74,1.6-1.23,2.79-1.49.45.86,2.6.37,1.79,1.97-.7,1.23-2.53.26-2.94,1.49-1.16-.48-1.19.75-2.16.82-1.86,2.23-4.8,2.53-7.67,1.93-.3.74-.78,0-1.15,0,.08-1.45.96-2.57,1.78-3.91,1.12-.78,1.89-1.82,3.12-1.82.49-1.19.97.15,1.64.33h0Z"/>
      <path class="cls-2" d="m128.91,128.6c.33.86-.63,1.67-1.01,2.31,1.04.63,1.49-1.49,2.64-.48,1.79.89,1.23,2.53,1.3,4.24.12.82-.96.56-1.15.97-.22-.52-.74-.19-.82,0-1.08-.22-1.49-1.53-1.97-2.46-.52-.85,1.12-1.71-.15-1.94-1.19,1.15.22,2.31-1.16,3.27-1.45-1.19-1.12-3.12-2.64-4.28l.33-1.15c.37.45.56,1.12,1.16,1.34,1.63.04,1.67-2.34,3.46-1.82h0Z"/>
      <path class="cls-2" d="m304.98,130.58c.33.67,1.04.48,1.45.97l1.16-.97c-.23-.41.86.33.48.82-1.34,1.12-1.64,2.6-2.46,3.94-.41.11-.7-.19-.82-.52,1.23-2.72-2.23-2.9-1.45-5.21.9-.22,1.15.56,1.64.97h0Z"/>
      <path class="cls-2" d="m303.82,132.36c0,.37-.08.78.34,1.01-.11,1.38-.93,2.16-1.82,3.09h-1.63c-1.12-1-.56-2.83-.49-4.09.93-1.08,2.87-1.63,3.61,0h0Z"/>
      <path class="cls-4" d="m125.6,140.55c.74,1.15,1.83,1.67,2.46,2.98.74.56,1.74,2.27,2.79,1.45.59-.23,1.18-.48,1.63-.82.37.67.04,1.41-.3,1.97-.52-.04-.97.04-1.34.33l-.3-.33-.33.48c-.41-.45-1.41-.71-1.97-.63-1.9-1.19-2.71-4.5-5.4-4.91-.3-.45-.85-1.19-.18-1.64,1.15,0,1.71,1.3,2.94,1.12h0Z"/>
      <path class="cls-4" d="m309.4,140.55c.19,1.71-2.42,2.27-3.12,3.61-.82-.11-.41,1.04-.97,1.15-1.34,1.12-3.16,2.64-4.91,1.97-1.23.3-.93-1.08-1.34-1.64,0-.37.15-.86.67-.67.15.82,1.08.41,1.49,1,1.49-.07,2.98-1.56,3.57-2.94.79-.93,2.2-1.42,3.13-1.97.08-.82.97-.37,1.49-.52h0Z"/>
      <path class="cls-3" d="m154.92,153.16l.19-.15v.34c2.09.22,3.87,1.45,5.58,2.27l.3.33c.3-.48.52.22.81.19.3.86,1.75.52,2.46,1.3,1,.3,1.94.71,2.79,1.3l.19-.15c.82.52,1.67.93,2.61,1.15.45.6,1.23.33,1.78.63,2.01,1.64,4.17,2.57,5.58,4.91,2.98,3.46,7.14,4.43,10.16,7.37l.48.52.19-.19c.82.89,2.31,2.23,3.09,3.27-.9.59-1.67,1.53-2.79,1.64-.71-1.97-2.27-3.72-3.91-4.73-.89-1.12-2.57-1.71-3.13-3.31-.3.11-.78.41-.63.82,0,.96,1.23,1.49,1.45,2.16,1.38,1.26,2.61,3.2,3.61,4.91-.45.75-1.6.48-2.12,1.3-1.27-3.72-3.2-7.22-6.06-9.82-.34-.04-.63.04-.82.34.52,3.01,1.56,5.84,2.61,8.67-.37.34.19,1.49-.82,1.15-.89-2.53-.93-4.84-1.78-7.37-.63-1.04-.63-2.46-1.78-3.13-.93.52-.34,1.64-.52,2.46,1.19,2.42,1.67,5.17,2.16,7.85-.82.67-1.71-.48-2.64-.48.45-3.87-.37-7.85-3.13-10.49-.59.37-1,.3-1.63.19-.56-.52-1.3-1.27-1.45-2.12-2.34-2.94-5.73-4.31-8.67-5.73-.89-.37-1.67.04-2.31-.34-1.41,1.15-2.98.34-4.28,1.79-.93.34-1.79,1.08-2.75.82-1.6,1.08-.49,3.05-.34,4.43,1.41,2.34,0,5.17,0,7.7-.71,2.2-.63,4.65-1.3,6.88.18,3.27-1.01,6.66-1.83,9.97h-.33c.3-3.79-1.67-6.66-2.12-10.16-.93-2.87-3.16-6.03-.82-8.82.45-1.56.37-2.76,1.3-4.09.85-4.02,1.75-8.04,3.13-11.79.78-1.68,2.19-2.68,3.94-3.13,1.34-.86,2.12-.6,3.57-.67h0Z"/>
      <path class="cls-3" d="m280.42,154.17c-.11.15.15.41.3.34h.52c.12.63.86.59,1.3.82,2.6,2.97,3.31,6.73,4.09,10.46.49,2.01.9,4.05,1.79,5.91.04,2.46,2.01,4.5.82,7.03-2.01,3.76-2.76,8.22-3.61,12.28v1.82c-.45.15-.49-.41-.63-.67-.15-.45.26-1.04-.34-1.3-1.15-7.4-2.38-14.33-2.94-21.8.56-1.64,1.63-2.86.96-4.58l-1.15-.97c-.12.26-.45.11-.63.15-1.53-.52-2.75-2.27-4.43-1.97-.59-1.04-1.86-.52-2.79-.63l-.33.33c-.63-.59-1.08.3-1.64.48-2.94,1.16-6.59,2.64-7.85,5.73-.45.63-1.08,1.23-1.64,1.79-.41-1.08-1.49-.37-2.12,0-1.79,3.09-3.12,5.92-2.31,9.82-.19.15-.48.52-.67.19-.48.52-1.82.22-1.79.82-.15-3.28,1.41-6.62,2.12-10.01-.11-.26-.37-1.15-.82-.63l-1.15,1.3c-1.05,2.94-1.38,6.14-2.61,9h-.48c-.15-2.08,1.45-4.02,1.63-6.06.11-1.42,1.9-2.94.34-4.24-3.05,2.68-4.88,6.4-6.59,9.97-.45-.22-.82-1.34-1.64-.97-.59-1.23,1.3-1.82,1.34-2.94,1.08-1.3,2.49-2.83,3.6-4.13,0-.41-.19-.71-.52-.97-.56-.19-.37.45-.63.67-2.42,2.27-5.55,4.24-7.07,7.37-.63-.67-2.05-1.3-2.27-2.31.75-.93,2.01-.93,2.45-2.27,1.56-1.45,3.35-1.6,4.58-3.46,1.72-.71,3.2-1.93,4.91-2.6.63-1.82,2.72-1.68,2.94-3.61,1.12-.37,1.45-1.64,2.64-1.82.56-1.64,1.97-1.19,3.27-1.93l.15-.19.33.33c.23-.56,1.38-.97,2.31-.97,1.6-.89,3.61-1.53,5.25-2.64,1.86-.97,4.16-1.97,6.03-2.94.63-.07.11.89.81.63-.11-1.38,1.05-.3,1.64-.97.75.33,1.75.04,2.49.33h0Z"/>
      <path class="cls-3" d="m107.44,163.65l2.94,1.97c0,.15.03.41-.15.48-2.01-1.49-4.46-1.34-6.55-.15l-.67-.18c-1.3,1.15-2.75,1.97-4.24,2.45-1.41.3-2.01.37-3.31.19.19-.19,1-.34,1.49-.48.67-.67,1.9-.56,2.12-1.49,1.19-1.53,3.05-3.42,5.1-3.13,1.23-.19,2.12.37,3.27.34h0Z"/>
      <path class="cls-6" d="m327.08,164.96c.3-.89,1.49-.33,2.12-.3,2.05.63,2.79,3.42,4.76,4.24.67-.37,1.19.63,1.97.48v.33c-3.87.52-6.58-2.61-10.01-3.76l-.63.48c-.82-.85-2.23.26-3.13.15-.18.22-.48.22-.67.52-.26-.15-.11-.45-.15-.67,1.56-1.23,3.12-2.12,5.4-1.97l.33.48h0Z"/>
      <path class="cls-6" d="m60.6,182c-1.6,7.11-2.38,14.1-1.98,21.8-.03,3.76,1.86,7.51,2.79,11.27,1.12.82.45,2.57,1.79,3.12,1.27,2.53,2.64,4.95,5.1,6.74v.3c1.86,2.68,4.84,3.5,7.04,5.73-.41.93-1.23-.45-1.78,0l-.34-.3c-.67,1.08-1.3-.78-1.97.3-1.3-1-3.02-.04-4.28-.82l-.3.33c-2.09-.59-3.95.34-5.43,1.64.41.49-.59.97-.48,1.64-1.01,2.57,1.08,4.5,2.64,5.92.92.74,2.08,1.94,3.09,2.46.25-.26.78-.67.33-1.01-1.34-.45-1.82-2.27-2.94-2.94-1.27-.89-1.04-2.27-.82-3.76.82-.78,1.38-1.86,2.79-1.64l.48-.48c.3.6.93.48,1.49.48v.15c.59.15,1.83-.26,2.46.33.44-.37,1.37-.04,1.93.34.85.11,1.78-.3,2.64.33.41-.63.97.34,1.63,0,.79.63,1.41.08,2.28.48-.08.89-1.04,1.56-1.64,2.12-1.23.93-2.45,1.45-3.57,2.12-.71-.26-1.01.45-1.34.82.45,2.61,3.95,3.5,2.64,6.4-.37-.33-1.49-1.12-2.31-.67-.37-.71-1.3-.63-2.12-.63-.82-1.3-1.71.52-2.61-.67-.59.33-1.49-.63-1.97,0-.93-.56-1.9.26-2.98-.34l-.48.52c-.26-.71-1.56-.11-2.27,0-.74-.15-1.93-.56-2.45.3-1.16-.15-2.46.34-3.46,1-.71,0-1.57.56-2.31.97-2.31,2.08-4.73,4.28-5.73,7.22-.67,3.42-1.6,7.4.19,10.64.6,4.88,3.35,9.04,3.09,14.1-2.34-5.06-8.97-5.73-10.45-11.16-2.08-1.75-1.45-4.06-1.83-6.55-.93-1.67-.63-3.83-2.27-5.25,1.12-2.61,1-5.73,2.12-8.34.56-.75-.34-1.3-.48-1.97-1.16-.41.48-1.49.48-2.31,1.52-4.54,4.87-8.15,9.97-8.67.9-.33.48-1.34.19-1.79-2.05-.97-4.31-2.79-4.76-5.1-.52-.59-1.01-1.41-.82-2.12.93-.93,2.34-1.23,3.46-1.3.82-.63,1.94-.22,2.94-.33.63.45,1.19,1.08,2.12.82.86-.33.44-1.34.14-1.79-.56-.48-.96-1.04-1.63-1.64-.93.07-1.08-1.01-1.64-1.49-2.08-2.98-2.75-7.03-2.94-10.83.37-1.04-.15-2.6,1.15-3.09.11-3.46-.3-6.44.33-9.67l.34-.33c.41.15.48.89.48,1.15.6.3.79-.45,1.3-.82,1.12-4.09,2.79-8,5.1-11.65h.48c-.22.41.19,1.01.34,1.49.82.56,1.34-.26,1.79-.82,1.67-1.34,3.87-3.57,5.06-5.4.11.52.55,1.71.19,2.6h0Z"/>
      <path class="cls-6" d="m370.84,180.7c1.86,2.79,3.6,4.73,6.36,6.73.19-.71,1.04-1.12.82-1.97.7.08.59,1.04,1.15,1.45,2.12,3.42,2.87,7.4,4.57,10.98.82.26.82-.82,1.3-.97l.67,2.46c.41,2.94-.93,6.18.81,8.67.12,5.13-.22,10.6-4.24,14.1-1.04.45-1.6,1.23-2.31,2.12.15.3.15,1.34.96,1.3.79.37.56-.71,1.16-.63.67-.22,1.41-.22,1.97-.67.3.71.96,0,1.3.34,1.34.45,2.6,1.01,3.8,1.79-.6,1.86-1.38,3.61-2.79,5.1-.71,1.45-4.06,1.34-2.98,3.61.56.11,1.19.45,1.63.3,4.54.86,7.59,5.17,8.52,9.34.59.33.63.89.67,1.49-2.16,1.78.67,4.09,0,6.21.04,1.75,2.09,3.87.15,5.25-1.12,2.79-1.78,6.03-1.94,9l-.52.19c-1.3,2.87-3.27,5.88-6.21,7.18-.56.89-1.19,1.38-2.12,1.64-.82,1.27-2.16,1.9-2.65,3.27h-.3c-.3-1.45.48-2.87.48-4.43.19-1.64,1.19-2.94,1.3-4.73,1.23-2.6,1.75-5.47,2.6-8.18-.07-5.73-1.71-11.31-7.03-14.44-1.97-.63-3.16-2.05-5.4-1.97-1.04-.59-2.38,0-3.61-.63-2.71.45-5.84-.3-8.34.63-1.12.33-2.61.71-3.46.82-.14.15-.22.41-.48.34-.3-.11-.78.22-1.15.33-.56-1.53.7-2.72,1.3-3.94h.33c.3-.97,2.23-1.86.82-2.94-.71.3-.82-.78-1.45-.63-1.79-.15-2.56-1.64-3.94-2.64-.34-.37-1-.82-.48-1.3,1.86-.04,4.68-.52,6.54-.82,1.16.56,2.31-1.19,3.76-.34.33-.74.7.07,1.15-.33.37.04,1.6-.6,1.79.33,1.08-1,1.53.78,2.31,1.15,1.19,3.16-2.23,4.8-3.94,6.7.07.41-.19.97.33,1.15,1.49-.89,2.38-2.2,3.95-2.94,1.08-1.3,2.64-3.09,1.78-4.91.41-1.04-.67-1.86-.97-2.79-.52-.07-1.08-.48-1.34-.82-.82.48-1.64-.97-2.45,0-.71-.52-1.45,0-2.27-.15l-.33.3c-.15-.89-.97-.26-1.49-.3-.56.71-1.27-.33-1.79.48-1.26-.52-2.79.3-3.76,0,1.86-.89,2.57-2.57,4.58-3.12-.11-.74.74-.45.97-.97,5.99-5.36,9.9-13.06,11.16-21.14.78-4.35-.15-8.59.15-12.76-.75-2.61-.48-5.58-1.45-8.04-.52-1.82-.3-3.5-.34-5.25h.34Z"/>
      <path class="cls-3" d="m102.2,188.73c-.45,1.3-1.57,2.05-2.79,2.46-.49-.07-.75-.04-.97-.67.37-2.08-.3-4.98,1.79-6.55,1.6,1.08,2.3,2.94,1.97,4.76h0Z"/>
      <path class="cls-3" d="m332.66,192.01c-.96.56-1.67-.33-2.45-.67-1.53-.89-.82-2.34-1.01-3.61.19-.93.93-1.68,1.49-2.46l-.15-.15c2.9.86,1.89,4.58,2.12,6.88h0Z"/>
      <path class="cls-2" d="m57.32,187.73c-.75,2.6-1.23,5.47-1.49,8.04-1.45,6.92.45,14.25,2.64,20.65.67,2.05,1.82,3.91,2.75,5.88-.22.74-.7,1.23-1.45,1.49-2.31-1.45-2.23-4.13-3.28-6.25-2.23-6.59-3.27-14.07-2.3-20.95.07-2.6,1.07-5.06,1.49-7.37.74-.93-.26-3.16,1.45-3.76.3.86.15,1.3.19,2.27h0Z"/>
      <path class="cls-2" d="m374.93,187.91c1.37,6.66,2.75,14.14,1.93,20.95-.48,1.82-1,3.53-1.3,5.39-1,3.38-1.78,6.81-3.6,9.86-.45.59-1.34.56-1.98.3-.67-.52-.03-1.3,0-1.93,2.09-2.83,2.65-6.25,3.95-9.34-.37-.41.33-.82.33-1.34,1.83-5.99,1.42-12.76.34-18.98-.29-1.97-1.78-4.06-.48-6.06l.82,1.15h0Z"/>
      <path class="cls-6" d="m94.01,190.18c-.34,3.68.08,8.07-1.01,11.65-1.38,8.11-3.42,15.92-7.03,23.11-1.56,3.12-1.75,5.73-3.42,8.82v.52c-.59.07-.22.86-.67,1.12-1.12,3.53-2.56,6.92-3.61,10.49-1,3.2-1.56,7.03-2.94,10.31l-.34,2.98c-.78-.3-.52-1.75-.81-2.31-.41-1.45-1.38-2.68-1.79-4.09,2.6-1.3,5.06-3.72,5.4-6.73.34-2.08-1.08-3.87-1.79-5.73,2.6-2.27,6.03-4.24,6.55-7.85l.34-.34c.56-3.01-.93-5.65-1.67-8.33,2.23-1.78,5.47-3.27,5.77-6.55-.41-2.16-.89-4.24-2.31-5.92-.04-1.08,1.34-1.15,1.79-1.79,3.12-2.94,4.28-7.14,3.46-11.31-.45-1-1.12-2.16-1.3-3.12,1.94-.82,3.24-2.64,4.72-4.24,0-.37.15-.86.68-.67h0Z"/>
      <path class="cls-6" d="m153.8,191.67c6.48,3.91,9.08,11.35,9.64,18.68.56,1.71.26,3.72.34,5.88-.15,6.81-1.27,13.99-2.94,20.8-.71,2.38-1.19,5.25-2.12,7.7-.63,4.31-2.68,8-3.27,12.28-.19.78-.71,1.41-.52,2.31-.25.11-.44-.15-.63-.33.7-3.8,2.6-7.93,1.63-11.61-.41-3.69-.7-8.15.34-11.65,1.23-4.69-.52-9.19-1.34-13.76-.7-1.93-3.49-2.72-2.45-5.4-.41-2.38.93-4.5-.48-6.88.15-1.67-.67-3.5-1.79-4.72-1.12.52-2.49.56-3.76.3-.3-.78-.67.15-1.15-.15-.26-3.09,1.49-5.69,2.27-8.52.41-1.97,1.08-4.24,1.97-6.21,1.56.11,2.8,1.01,4.28,1.3h0Z"/>
      <path class="cls-6" d="m282.69,192.34c.48,4.13,2.87,7.89,3.61,12.09.33,1.12-.45,1.41-1.3,1.49-1.49-.15-2.12.67-3.46-.33-1.86,1.15-1.9,3.65-2.61,5.58-.74,3.01.89,6.33-.82,9.15-3.09,2.31-2.12,6.55-3.61,9.67-.37,4.06,1.27,8.3,1.16,13.1-.23,2.61-.94,5.58-.67,8.37.19,2.83,1.3,5.21,1.49,8-1-.07-.45-1.34-.81-1.93-.79-1.97-.71-4.28-1.83-6.06-.56-2.23-1.41-4.73-1.78-7.22-.93-3.01-1.45-5.69-2.12-8.85-1.04-1.04.08-3.01-1.01-4.09-1.64-8.3-1.78-15.85-.48-23.74.89-3.68,1.9-7.89,4.42-10.98,1.79-2.05,3.95-3.68,6.4-4.91l.3.33c.08-1.23,1.3-.22,1.67-1,.86-.07,1.23.71,1.45,1.34h0Z"/>
      <path class="cls-6" d="m338.72,192.97c1,.93,1.9,2.23,3.09,2.79.63.3.81.71.52,1.3-2.12,3.46-1.82,7.96.63,11.16.45,1.45,2.16,3.01,3.46,3.57.11,1-.82,1.12-1,1.97-1.12,2.83-2.23,5.66.34,8.19.89.97,2.2,1.6,3.42,2.16.56.41.37,1.3.19,1.79-1.19,2.2-1.82,5.25-1.3,7.55h-.52c-1.26-6.47-5.54-11.68-6.7-18.19l-1.3-5.58c-1.41-5.95-2.79-12.31-1.97-18.16.75.08.56,1.04,1.15,1.45h0Z"/>
      <path class="cls-2" d="m50.11,208.04c.86,4.09,2,8.08,4.09,11.65,1.15,1.04,2.67,2.53,2.94,4.24-.45.59-1.19,1.19-1.79.48-3.91-3.42-5.24-8.67-6.06-13.43-.45-1.79-.45-2.98-.67-5.06-.15-.45.3-.67.33-.97,1.38.59.79,2.08,1.16,3.09h0Z"/>
      <path class="cls-2" d="m380.66,216.71c-1.08,3.01-2.53,6.18-4.76,8.37-.63.15-1.12.67-1.64.97-.3-.71-.89-1.12-.48-1.93,3.8-3.76,5.77-8.48,6.55-13.62,1.11-1.34-.3-3.57,1.78-4.09.26,3.72-.97,6.88-1.45,10.31h0Z"/>
      <path class="cls-3" d="m98.92,219.5h.67c.33.86,1.34,1.01,1.94,1.64l.18-.15c1.79,1.82,3.8,1.67,5.73,3.27.71.15,1.45.67,2.12.48.78.22,1.38,1.3,2.31.67.37.93,1.08.19,1.79.63,1.3-.52,1.67,1.41,2.79.19.93.71,2.83.71,4.09.63l.48.52c.89-.56,1.97.22,2.94-.52,1.23.56,2.45,0,3.8.19.97-.52,2.53.45,3.27-.82.85.3,1.15-.3,1.97-.34-.56,1.79-2.16,3.54-2.98,5.4-1.53,2.27-4.5,2.27-6.37,3.8-.26-.34-.81,0-1-.52-.48.93-1.42,0-1.64,1l-.33-.33-1.94.15c0,.15-.78-.52-1.01.18l-.34-.33c-.48,1.01-1,.11-1.63.48-.41-.04-.56-.59-.97-.63-.63.48-1.63.45-2.3.3-.97-.63-2.23-.37-3.28-1.12-.33.52-.75-.41-.97.3-.78-.71-2.08-.48-2.64-1.45-1.23,0-2.3-1.26-3.76-1.34-.59-.15-1.19-1.53-2.12-.82v-.15l-3.46-2.31c-1.49-2.12-3.46-2.72-4.09-5.21-.74-3.09.93-5.54,1.97-8.04,1.49,1.3,3.35,3.01,4.76,4.24h0Z"/>
      <path class="cls-3" d="m338.05,218.68c.93,1.67.97,3.5.67,5.25-.3,2.72-3.09,3.98-4.61,5.73-1,.71-1.93,1.3-3.09,2.12-1.23.11-2.6.82-3.76,1.49-.96.75-2.34.49-3.12,1.64-.45-.37-1-.04-1.3.33-.71-.63-1.45.45-1.83.33-1.64.08-3.68.75-5.54.49-.37,1.19-1.11-.22-1.82,0l-2.6.15c-.71-.67-1.45.04-2.16-.63-1.23-.33-2.57.11-3.57-1.15l-.19.15c-1-.78-2.31-.86-3.27-1.79-1.52-2.01-2.98-4.21-3.61-6.4.19.04.26-.08.34-.15.37,1.12,2.42.52,3.46,1.3,1.12-.08,2.82.07,3.76.48,1-.52,2.16-.37,3.09-.15,0,.15-.04.41.19.48-.04-.97.78-.3,1.15-.48.22.37.48-.33.82-.33,2.5-.19,4.5-.19,6.88-.67l.3-.3.34.3c.3-.15.41-.63.81-.48l.18.19c.56-.37.97-.63,1.64-.82,2.57-.26,4.35-2.01,6.88-2.79.26-.89,1.3-.82,1.78-1,.93-.71,2.01-1.79,3.13-2.46l.14.19c1.16-1.08,2.46-2.75,3.76-3.46l1.15,2.46h0Z"/>
      <path class="cls-3" d="m92.52,227.06c2.71,4.06,7.4,5.99,11.46,8.19.74-.37.93.71,1.63.33l.67.97c.44-.04.56-.78,1.15-.49.56.71,1.79.37,2.6.82l.19.15c.52-.63,1.27.6,1.94,0v.19c1.3-.22,2.42.41,3.61,0,.67.67,1.34-.04,1.97.63.74-1.08,1.97.15,2.79-.82.67.3,1.26.04,1.79.52.34-.67,1.23,0,1.49-.82,1.08.11,1.86-.97,2.79-.67-1.19,2.16-3.13,4.58-4.91,6.4-1.04-.19-2.34,1.38-3.12.97-.6-.04-1.64.71-2.6.67-1.19-.71-2.12,1.52-3.13-.19-.52.45-1.41,1.19-2.31.67-.19-.33-.52-.37-.82-.19-.56,0-.89.75-1.12-.15-.7.56-1.37-.3-2.16,0-2.34.3-3.91-1.82-6.21-1.3-1.68-.93-3.69-1.19-5.25-2.45-1.45-.22-1.82-2.2-3.42-2.12-2.19-2.27-4.46-4.99-3.27-8.52.52-1.56,1.6-2.86,2.12-4.43.71.41,1.23,1.3,2.12,1.64h0Z"/>
      <path class="cls-3" d="m342.81,230.81c.82,3.5-1.67,6.81-4.28,8.86-1.41.82-2.67,2.12-4.42,2.27-.18.59-1,.33-1.3,1,.41.19-.41-.04-.48-.33-.37.52-1.49.97-1.64,1.15-.11-.3-.45-.11-.67-.19-1.08.52-2.5.3-3.42,1.16-.75-.08-1.71.07-2.46.48l-.34-.3c-.48.48-1.23.15-1.64.48-.44-.41-1.34.15-1.63-.33-.67-.37-.75.67-1.3.48.08-.22-.22-.33-.34-.48-.3-.11-.45.15-.67.33.08-1-.78-.3-1.12-.48-.3.15-.41.63-.82.48l.15-.19c-.93-.56-2.34-.15-3.13-1.12-.67.56-1.82-.34-2.75-.52-.6-.56-1.3-.19-1.97-.82-1.86-1.75-2.83-4.13-4.29-6.21.23-.19.63.04.82.33.41-.56.6.41,1,.33,1.52.67,3.8.67,5.24.63l.63.82c.04-.82,1.08-.48,1.49-.3l.15.15,1.3-.82-.15.15c.67.18,1.71.67,2.46,0h-.15v-.3h.15c-.23.56.45.33.67.63.22-.63.97-.07,1.3-.48l.33.48c.15-.33.23-.86.82-.63l.15.15c.78-.78,1.63.19,2.31-.82.37.85.81-.52,1.3.15.78-.37,1.63-.52,2.31-1.11.67.07,1.3-.97,2.27-.67,3.61-2.19,7.92-4.43,10.31-7.7.81,0,.7-1.67,1.67-1.15l2.12,4.43h0Z"/>
      <path class="cls-3" d="m87.8,237.03c3.16,4.17,8.63,6.81,13.24,8.86.78-.15,1.9.3,2.64.15.7.97,2.49.22,3.57.67.75-.11,1.71.3,2.31-.15l.34.48c.14-1.12,1.26.11,1.63-.67.04-.22.45.45.63-.15.22.15.37.45.67.34.34-.3,1.23-.04,1.64-.67l2.64.15c.6-.48,1.52-.63,2.27-.3-.63,1.23-2.19,2.38-2.45,3.42-.89.45-1.3,2.38-2.79,2.12-.64.82-1.71.82-2.46,1.49l-.15-.15c-.45.67-1.52-.07-1.97.63l-.34-.34c-.26.15-.11.6-.48.52l-.15-.19c-1.37.71-2.19-.22-3.6,0l-.34.33-.34-.34c-.18.19-.37.45-.63.34l-.34-.48c-2.31.18-4.01-1.04-6.25-1-.19-.89-.71-.15-1.3-.48-2.5-1.34-5.32-2.27-7.37-4.43-2.09-1.04-3.09-3.46-4.24-5.39.11-.82-.3-1.86.34-2.46.33-.74.33-1.6.81-2.31.15-.71.49-1.38.97-1.93.11.85,1.3,1.15,1.49,1.93h0Z"/>
      <path class="cls-6" d="m350,237.21c1.3,1.56,2.98,2.53,4.61,3.91-1.07,2.42-2.87,5.58-1,8.22.67,1.75,3.09,3.09,4.62,4.24.22.71-.74.89-.82,1.49-1,1.41-1.49,3.28-1.49,4.91-.78-.22-.52-1.45-.81-2.16-1.67-7.59-3.65-15.15-6.55-22.25.96-.07.78,1.19,1.45,1.64h0Z"/>
      <path class="cls-3" d="m344.6,236.06c1.41,2.75,3.05,5.99.67,8.67-1.01,1.45-1.79,3.05-3.61,3.79-1.27,1.04-2.57,1.75-4.09,2.6-2.04.74-3.2,1.23-5.24,1.97-.63-.26-1.45-.34-1.64.33-.41-.48-.71.34-1.15.3-2.12.82-5.32-.18-7.37.52l-.33-.33c-.11.26-.45.11-.63.15-.67-.78-1.56.22-1.97-.82l-.19.18c-1.3-.41-2.34-1.56-3.76-1.82-1.26-1.67-2.34-3.42-3.75-5.06v-.52h1.49v.34c1.94.22,4.35.97,6.55.67.19.52.86.37,1.12.15l.19-.15v.15c1.67.97,3.31-.67,5.24.34.37-1.01,1.19-.04,1.78-.82,1.45-.33,2.87.11,3.95-1.15l.14.19.67-.67.15.15c2.94-1.23,5.47-3.46,8.19-5.21,1.27-1.12,2.34-2.57,3.27-3.94h.34Z"/>
      <path class="cls-2" d="m48.62,239.33c-2.5,2.35-5.14,4.58-6.37,7.85-1.79,2.87-2.01,5.92-2.3,9.19l-.49.82-.48-.48c.37-3.28-.08-5.51.63-8.86,1.78-3.94,4.62-8,8.37-10.49.34.63,1.23,1.19.63,1.97h0Z"/>
      <path class="cls-2" d="m385.91,241.12c.33,1.12,1.15,1.15,1.78,2.16.89,1.71,2.16,3.31,2.61,5.25,1.27,1.04.3,3.2.82,4.39v5.1c-.52.11-.63-.48-.82-.82.04-6.44-2.83-12.09-7.85-16.22-.7-.56-.78-1.49-.15-2.12,1.34.37,2.34,1.6,3.61,2.27h0Z"/>
      <path class="cls-3" d="m82.88,243.43c1.97,3.13,4.73,6.25,8,7.7.34.89,1.3.26,1.64,1.16,1.23.19,2.27.89,3.27,1.64.45-.04,1,.11,1.3-.19,1.3,1.01,3.42.75,4.43,1.49,1.15-.41,2.86.11,4.09,0,1,.52,2.57-.41,3.61.33.63-.71,1.19.04,1.83-.67l-.19-.15h.48c0,1.71-1.64,2.42-2.76,3.91-1.41.89-2.9,1.38-4.28,2.31-1.3.33-3.23.04-4.72.33l-.52-.48c-.63.67-1.23,0-1.97.48-.41-.93-1.12-.22-1.64-.82-1.01.34-1.94-.59-3.09-.48-.22-.33-.52-.37-.82-.19-2.87-1.6-5.99-2.98-8.19-5.88-1.45-2.05-2.71-3.94-2.3-6.55.55-1.27,1.3-2.49,1.48-3.95h.34Z"/>
      <path class="cls-2" d="m49.77,246.22c-3.54,3.65-5.92,8.74-5.54,13.92.52,4.99,2.72,9.49,3.76,14.1-.23.19-.11.86-.67.63-1.61-3.83-2.76-7.33-4.09-11.27l.19-.19c-.63-.93-.15-1.71-.82-2.6-.15-3.46.04-6.77,1.12-9.67,1.23-1.3,1.41-3.13,2.64-4.43,1.16-.56,1.94-3.27,3.42-2.12v1.64h0Z"/>
      <path class="cls-3" d="m348.7,245.88c.81,1.86,1.49,3.76.48,5.73-1.01,2.79-3.69,4.17-5.73,6.4-.37-.11-.52.18-.82.33-.52,1.08-2.08,1.19-3.09,1.79-1.01.04-1.79,1.26-2.45.48-1.04.82-3.05.45-4.28,1.49-.15-1.19-1.04.3-1.45-.67-.08.82-.96.26-1.34.67-.52-.52-.93-.26-1.64-.48l-.3.3c-.48-.41-1.19-.56-1.63-.48-2.98-1.01-5.62-2.87-7.41-5.73v-.33c1.34.93,2.64.33,4.28.52.82.44,1.63-.15,2.45-.19-.15.3.85.15,1.3.19l.34-.34c.86.48,1.67.37,2.61.15.59-.45,1.34-.45,1.97-.63,1.3-.59,3.05-.15,4.09-1.34,1.23-.15,1.97-1.49,3.27-1.45.34-.97,1.67-.15,1.64-1.3,3.12-1.12,5.1-3.98,6.73-6.58.75-.11.56,1.04.97,1.49h0Z"/>
      <path class="cls-2" d="m387.21,253.73c.85,2.53.44,5.66.33,8.37-.52.71-.37,1.64-.67,2.46-1.12,3.79-2.27,7.63-4.09,11.12h-.34c.3-5.77,3.98-10.53,3.76-16.71-.11-4.69-2.49-8.48-5.54-11.94-.59-.89.26-1.19.48-1.97,2.79,2.42,4.88,5.17,6.07,8.67h0Z"/>
      <path class="cls-3" d="m80.58,252.92c1.34,2.6,3.54,3.94,5.58,6.25,1.04,0,1.23,1.3,2.27,1.3,1.26,1.19,2.94.97,4.28,1.79l.15-.15.34.33c.48-.52.9.19,1.3.3.85-.33,1.56.71,2.6.34l.34.52c.52-.75.96-.26,1.63-.19.71-.85,1.64.26,2.31,0,.9-.18,2.31-.18,3.27-.67.3.6-.71,1.04-.82,1.67-1.3,1.79-3.31,2.57-5.06,3.57-1.3,0-2.31.63-3.46.82l-.48-.48-.34.34-.34-.34c-.11.67-1,.08-1.3.34-.52-.86-1.23.3-1.79-.15-.59-.26-1.34-.78-1.97-.33l-.19.15c.03.26-.04-.41-.3-.48-1.83-.63-3.58-1.34-5.25-2.31-1.67-.97-3.31-2.46-4.09-4.24-.97-.74-.82-2.23-1.34-3.27-.04-1.23.7-2.23.67-3.46.63-.93.78-2.08,1.15-3.09.86-.04.34,1.04.82,1.45h0Z"/>
      <path class="cls-3" d="m351.82,255.07c.45,1.93,1.16,3.8.15,5.73-.52,1.04-1.27,2.31-2.12,2.94-2.2,2.38-5.32,4.13-8.34,5.06-.93-.48-2.38.93-2.64.33-1.97.37-3.24-.04-4.91.19-.26-.63-.78-.15-1.15-.19-1.23-.78-2.64-1-3.76-2.12l-.15.15c-.79-1.41-2.6-1.9-3.13-3.57.82-.37,1.56.71,2.46.15.44.78,1.19-.11,1.63.15.6-.15,1.94.41,2.46-.48l-.15-.15c.85,1.6,2.42-.3,3.57.33.3-1.04,1.15.19,1.63-.67,2.71-.45,4.73-1.6,7.07-2.94,1.08-1.04,2.12-2.27,3.27-3.12.97-1.45,2.46-2.72,2.79-4.43.93.37.85,1.75,1.3,2.64h0Z"/>
      <path class="cls-3" d="m117.27,255.07c.48,1.3.96,3.05,1.49,4.58.41,2.64,1.3,4.91.48,7.7-.15.45.15.78.33,1.15,1.01-.22,1.27-1.38,1.64-2.16-.37-2.68.79-5.36-.33-8.33l.14-.19c1.97,2.72,3.16,5.95,3.76,9.04.52,2.68,1.16,5.73.52,8.48.3.37.59,1.12,1.3.82,1.75-2.97.75-6.21.82-9.49l-.34-.33c-.03-.26.45-.11.67-.15.3,1.53,1.23,2.83,1.78,4.24,1.12,3.98.59,7.03.82,11.16-.74.45-.52,1.49-.34,2.12.19.3.56.11.82.15,1.15-1.34,1.18-2.57,1.15-4.39h.34c.85,6.51.03,12.5-1.79,18.34-.18.19-.37.63-.18.82-.23-.07-.38.26-.63.15.11-1.49,1.15-2.94.3-4.43.63-3.16-1-5.36-1.12-8.18-2.42-6.88-6.66-13.58-12.47-18.49-2.27-1.71-4.43-3.57-6.74-5.1-.25-1.94,2.24-2.72,2.98-4.43h.49c.37,1.97-.82,3.31-.15,5.43,1.16.59.82-1,1.45-1.49.52-2.42-.45-5.66.81-7.55.68.22.49-.78,1.01-.63l.97,1.15h0Z"/>
      <path class="cls-3" d="m316.1,260.13c.34,1.6-.11,2.94,1.01,4.28,1.49-1.49-.22-3.76.82-5.77.89,1.56,3.46,2.75,3.27,4.43-5.4,3.83-11.01,8.41-14.77,13.76-4.17,6.37-6.73,13.81-6.03,21.8v.48h-.33c-.6-1.9-1.19-3.76-1.64-5.73.6-.74-.41-1.23-.33-1.97v-10.98h.67c.14.89-.41,2.49.48,3.28l.97.67c.41-.33.6-.78.49-1.34-.63-1.12-.82-2.71-.49-4.09l.34-.97c-.45-1.6.04-3.61.48-5.25-.15-2.53,1.78-3.79,2.31-6.06h.34c-.18,3.05-1.19,6.74.15,9.34.37.26.56.89,1.16.67,1.37-1.27-.71-2.9.48-4.09-.45-3.27.63-6.36,1.78-9.19.48-1.3,1.04-2.57,1.83-3.76.22-.3.63-.52.48-1h.33c.04,3.42-1.67,7.52.82,10.49,1.9-.89-.15-2.53.49-4.09.52-3.46,1.34-7.29,3.12-10.49,2.42.71,1.64,3.76,1.79,5.58h0Z"/>
      <path class="cls-3" d="m77.64,262.44c1.26,2.01,3.28,3.28,5.06,5.06.74.07,1.12,1.08,1.97.82-.11.82.82.59,1.16.67.74.6,1.63.78,2.45,1.15l.34-.33c.97,1.04,3.05.74,4.24.48.08.45,1.56-.3,1.64.67.22-.19.22-.71.67-.52l.3.34c.6-.63,1.64-.07,2.31-.48-.26,1.3-1.71,1.64-1.97,2.94-1.01.86-2.46.89-3.27,1.64-.52-.89-1.6-.37-2.28-.33h-3.79c.11-.15-.15-.41-.3-.3-.33-.04-.63.04-.82.3-.63-.45-1.6-.41-1.97-1.12-.19.41-.74.41-1.01.15-.11-.67-1-.07-1.3-.67-1.93-.74-2.49-2.64-4.24-3.76-.67-1.56-1.27-3.09-.67-4.91-.19-1.19,1.04-1.97.82-2.94.44,0,.44.78.67,1.15h0Z"/>
      <path class="cls-6" d="m74.37,262.11c-1.05,2.35-.67,5.4-1.49,7.7-.33-1.27-1.93-1.9-2.3-3.27,1.37-1.3,2.79-2.53,3.12-4.43h.67Z"/>
      <path class="cls-3" d="m354.61,267.17c-.59,1.34-1.04,3.01-2.31,3.8-.44,1.19-1.67,1.3-2.3,2.27-.97.07-1.08,1.19-2.12.82-1.04.04-1.67,1.26-2.94.82-.52.63-.89.22-1.63.33-1.08.41-2.75.38-3.76-.33-.52-.04-.85.67-1.34.19-.67.86-1.12-.93-2.12-.34-.37-.6-.93-.67-1.45-.82-.52-1.15-2.16-2.05-1.97-3.27.79.71,1.86.71,2.94.63.48-.07,1.57.22,1.97-.48.3.56,2.5.37,3.61.19,1.67-.33,3.49-1.23,5.24-1.97l.3-.33.19.15c1.3-1.67,3.91-2.49,4.91-4.58,1.19-.34.9-1.82,1.79-2.12l1,5.06h0Z"/>
      <path class="cls-6" d="m357.4,264.71l2.46,2.64v.48c-.93.86-2.2,1.38-2.16,2.79-.94.15-.19-1.01-.63-1.3-.23-2.34-.23-3.98-.67-6.4.67.19.48,1.26,1,1.79h0Z"/>
      <path class="cls-6" d="m285.82,266.87c.81,1.12,1.56,2.64,2.94,3.27-.37.59.04,1.49-.33,2.12-1.12-1.64-2.09-3.61-3.09-5.4h.48Z"/>
      <path class="cls-6" d="m145.1,267.17c-.48,1.64-2.27,2.72-2.6,4.43-.11-.6-.45-1.12-.34-1.79,1.12-.71,1.71-2.12,2.94-2.64h0Z"/>
      <path class="cls-3" d="m79.57,274.05c.92,1.04,2.53,1.79,3.94,2.12.64-.48,1.19,1.01,1.82,0-.11.26.18.34.3.52.11-.22.33-.19.52-.19-.08.18.07.26.15.33.97-.67,1.97.67,2.94-.48.44.85,1.23-.34,1.64.48l1.97-.15c-.26,1.42-1.56,2.68-2.94,3.61-.63-.97-.97.11-1.64.15-.67.19-2.2-.52-2.64.67-1.71-.93-3.09-.26-4.73-.82-.79-.41-1.45-.19-2.16-.67-.49.56-.64-.75-1.3-.34-1.38-.97-2.23-1.94-2.79-3.42-.19-2.08.29-3.91.67-5.73,1.45,1.27,2.27,3.39,4.24,3.91h0Z"/>
      <path class="cls-3" d="m355.1,270.96c.41,2.31,1.34,4.62.33,6.7-1.75,2.08-3.94,3.05-6.73,3.27-.97.67-2.2.08-2.94.48-1.86.11-3.31-.45-4.91-.82l-.33.33c-1-.78-2.91-1.86-3.13-3.76,1.08.52,2.42-.34,3.31.15.48-.37,1.04-.04,1.45.34,1.45-.86,3.87-.26,5.4-1.3,1.12.04,1.94-.63,2.79-1.16,1.56-1.23,3.27-2.42,4.43-4.24h.34Z"/>
      <path class="cls-3" d="m75.18,279.48c.15,1.45,1.83.74,2.46,1.93.81-.78,1,.97,1.79.34.33,1.12,1.23-.15,1.64.67.22.04.52-.15.67.15l.3-.33c.86.33,1.9,1,2.64.52.67.74,1.64-.15,2.31.15,1.12.67,1.45-.74,2.76-.48.22,1.64-.79,3.05-2.27,3.91-1.38.3-3.49.78-5.1.82l-.33.33c-2.64-.63-5.36-.41-6.85-3.09-.93-1.56.41-3.38-.52-4.91h.52Z"/>
      <path class="cls-3" d="m355.24,281.6c.22,1.23.45,3.39-.82,4.24-1.26,1.79-3.49,1.56-5.06,2.12l-.34-.3c-.67,1.34-1.63-.56-2.31.3-1.6-.75-3.01-.45-4.58-1.3-1.15-.82-1.78-2.12-1.63-3.61.89.34,2.05.04,2.94.34l.52.33-.19.15c.52.63.3-.45.82-.3.45.48,1.26-.48,1.49.3.78-1.82,2.27.22,3.42-1.12,2.27-.22,4.28-1.38,5.92-2.79.74.48-.15,1.08-.19,1.64h0Z"/>
      <path class="cls-3" d="m78.94,289.12c.63-.07,1.34.07,1.63.48.34-.15,1.23.34,1.45-.15.22.22.52.22.67.48.26-.45.74-.37,1-.82-.11.26.19.33.3.48,1-.82,2.46-.33,3.46-1.12.45.07.34-.71.82-.52.22,1.38.45,3.09-1,3.94-1.67.41-3.12,1.6-5.06,1.15l-.19-.19-.3.52-.34-.33c-1.19.33-2.79.11-3.76-1l-.18.18c-1.34-1-1.42-2.75-1.78-4.28l.33-.49c.56.89,2.04.89,2.94,1.64h0Z"/>
      <path class="cls-3" d="m353.6,291.91c-.75.85-1.97,1.19-2.94,1.82-2.08-.11-4.73.67-6.55-1-1.34.33-1.89-.93-2.45-1.79l.15-2.31c.56-.07.45.86,1,.33.26.71,1.19-.04,1.45.63,1.08-.33,1.56.71,2.64.34.37.97,1.27.18,1.79,0,2.01.04,3.87-.52,5.24-1.79.85,1.26-.19,2.49-.34,3.76h0Z"/>
      <path class="cls-3" d="m80.39,295.18h.67c.33.33-.38,1.04.33,1.3.3-.19.37-.48.34-.82l-.19-.15.19-.15.3.3c2.16-1,3.94.15,5.77-1.64.74-.22.52.78.82,1.15.44,1.34-.78,1.97-.82,3.13-.97,1.67-3.2,2.16-4.91,2.12-.78.11-1.3-.45-2.16-.15-1.19-.63-1.64-2.79-2.61-4.09.11-.89-.93-1.45-.34-2.31.82.59,1.75.86,2.6,1.3h0Z"/>
      <path class="cls-3" d="m344.45,295.67c.41.04.64-.15.97-.3.52,1.26,1.72.22,2.64.97.15-.22.48-.37.48-.67.45.56.71,0,1.16-.15.41.67.96-.33,1.45-.48.22-.04.56.11.67-.19v-.3h.48c-.33,2.19-1.56,4.58-2.94,6.36-.85-.3-1.45.63-2.31-.15-.03.37-.52.71-.82.34-.22-.11-.34.19-.48.3-.45-.71-1.6-.48-2.12-1.3-1.41-.22-1.26-2.05-2.12-2.94.26-.86-.14-2.05.49-2.79.63,1,1.63.37,2.45,1.3h0Z"/>
      <path class="cls-3" d="m90.55,302.4c.48.56.92,1.15.81,1.97-.41,1.38-1.67,2.08-2.94,2.46-.08.48.11.86.48,1.12h.52c-.07.19.08.26.15.34.11-1.04.85.15,1.3-.48.59-.45,1.71-1.19,1.82-2.12,1.75.48,2.53,2.42,4.39,2.6.86.41,1.86,1.34,2.79.52-.08-.78-.41-1.19-.97-1.67-1.86-.19-3.12-2.12-4.42-3.27-.67-1.08-1.67-2.05-1.97-3.27,1.3-.11,2.53,1.52,3.94,1.15.37.78,1.6.04,2.12,1,.3.04.67-.15.82.15l.33-.33c.41,1.12,2.12.37,3.13.82,1.04.63,2.34.67,3.42,1.3.44-.3.86.34,1.3.52,1.23.3,2.23,1.27,3.46,1.64,1.19,1.34,2.38,2.94,1.63,4.91-.74,1.45-2.56,2.49-4.27,2.6-1.79.67-4.02-.19-6.07.34-.22-.34-.56-.49-.96-.49l-.34.33c-.86-.48-1.75-.22-2.61-.82l-.33.3-.34-.3c-.52.34-.9-.71-1.63-.33-1.9-.78-3.76-1.41-5.39-2.64-.97-.82-2.28-1.08-2.94-2.12-.41-.41-1.41-.67-1.49-1.49-1.64-1.93-3.87-3.09-4.58-5.54.26-.48.48.19.81.15.38,1.12,1.31-.22,1.79.67,1.56-.63,3.68-.82,4.76-2.64,1.15.33.96,1.78,1.45,2.64h0Z"/>
      <path class="cls-3" d="m343.97,302.4c.74,1.34,2.16-.52,3.09.33.26-.37.67-.52,1-.67.59,1.12-.97,1.68-1.16,2.6-2.42,2.61-4.35,4.21-7.07,6.07-.44.3-.63,1.08-1.3.82-1.67,1.64-4.09,1.45-5.88,2.79-.08-.07-.18-.19-.33-.15l-.34.33c-.52.04-.93-.08-1.64.15-.97.67-1.86,0-2.94.48l-.34-.34c-.56.41-1.53-.15-1.97.52l-.34-.33-2.27.15v.33c-1.41-1.38-3.13-.56-4.43-2.12-.85-1.41-1.3-3.16-.14-4.58,1.34-2.79,4.46-2.68,6.7-3.94l.14.15c.56-1.19,2.2-.37,2.98-1.3,1.05.78,2.12-.33,3.09-.67.41-.07.96.22,1.15-.3.48.19,1.23.11,1.64-.33,1.3-.26,2.49-.78,3.6-1.49l.34.48c-.9,1.75-2.05,3.2-3.46,4.43-1,1.49-3.05,1.6-4.09,3.13-.11.78.78,1,1.34.67.45-.63,1.23-.37,1.79-.67,1.72-.48,2.5-2.23,4.09-2.94.34.78.56,1.75,1.49,2.12.78.34,1.75.08,2.61.15,1.08-1.82-1.5-.86-1.98-1.79-1.97-2.34.74-4.35,1.49-6.4.82.93,1.67,2.19,3.13,2.31h0Z"/>
      <path class="cls-4" d="m228.18,333.88v-137.3s9.3,5.21,20.09,5.21v120.93s-11.16,4.47-20.09,11.16h0Z"/>
      <path class="cls-4" d="m181.3,321.6v-119.81s14.88-1.86,20.83-5.21v136.92l-20.83-11.91h0Z"/>
      <polygon class="cls-3" points="206.6 118.2 225.08 118.2 225.08 113.49 206.6 113.49 206.6 118.2 206.6 118.2"/>
      <path class="cls-3" d="m206.6,120.18s16.49-.25,18.6.12c0,0,1.12,12.15,0,16.74l-19.1-.5s-.75-11.41.49-16.37h0Z"/>
      <path class="cls-3" d="m203.62,145.36s-.75-.62-.62-2.23c.13-1.61.99-4.59.99-4.59l22.95.25s.99.62.99,6.7l-24.31-.12h0Z"/>
      <path class="cls-3" d="m201.39,148.46l28.28.25s.99-.12,1.12,1.12c.12,1.24-.12,2.73-.12,2.73,0,0,0,.62-.99.74-.99.12-28.65-.62-28.65-.62,0,0-.99-.5-.99-1.24s-.37-1.98.5-2.48l.87-.5h0Z"/>
      <path class="cls-3" d="m224.95,110.51s-16.12-.25-17.61-.12c-1.49.12-1.98-.5-1.98-1.49s.24-2.61-1.99-2.98c-2.23-.37-3.96-.12-4.84-2.85-.87-2.73-1.61-2.48-2.48-2.48s-.74-.12-.87-.99c-.12-.87-.37-2.48.5-2.6.87-.12,6.45-.12,6.45-.12,0,0,1.37-.25,1.37.5v2.48s-.87,1.36,1.49,1.36,4.84.25,5.33-.12c.5-.37,1.98-.75,1.86-2.23-.12-1.49-.49-1.61,1.37-1.74,1.86-.12,3.84,0,3.84,0,0,0,.75-.62.99.87.25,1.49.37,2.36.37,2.36,0,0-.5.75,1.61.75h5.09s1.12-.25,1.24-1.37c.12-1.12-.12-2.36.99-2.36s6.7-.12,6.7-.12c0,0,.99-.12,1.12.74.12.87,0,2.11,0,2.11,0,0,.49.62-.87.5-1.36-.12-1.98-.5-2.48,1.24-.5,1.74-1.37,3.97-3.23,4.22-1.86.25-3.1.25-3.1,1.74s-.13,2.6-.87,2.73h0Z"/>
      <path class="cls-5" d="m225.33,14.39s20.22,9.18,32.37,11.16c12.16,1.98,19.72,2.73,27.91,1.49,8.18-1.24,10.67-1.86,10.67-1.86l.25.5s-6.83,11.16-27.53,13.77c0,0-11.29,1.86-20.22,1.12-8.93-.74-20.34-3.47-24.19-3.72,0,0,.25-8.68.13-11.29-.13-2.6-.25-8.56.62-11.16h0Z"/>
      <path class="cls-1" d="m222.6,36.71s-5.7-1.61-10.05-1.74l-.12-8.31s.24-1.24,6.7.5c0,0,2.98,1.36,3.59,2.36,0,0-.25,3.97-.12,5.08.12,1.12,0,2.11,0,2.11h0Z"/>
      <path class="cls-1" d="m190.85,38.08s4.09-2.73,10.91-3.23l.12-7.44-.62-1.24s-2.23,0-4.34.74c-2.11.75-3.35.87-5.95,2.73l-.12,8.43h0Z"/>
      <path class="cls-5" d="m191.09,26.29s6.08-3.1,11.04-2.73c0,0,2.11,0,2.23,1.99.12,1.98-.37,8.93-.37,8.93,0,0,2.36-.12,5.58.37,0,0,.74-7.19.62-9.67,0,0,0-1.86,1.12-1.74,1.12.12,7.31.87,11.03,2.73,0,0,1.24-2.6.5-3.72-.75-1.12-5.34-2.85-9.3-3.1-3.97-.25-2.85-.75-2.98-2.48-.13-1.74-.25-6.2-.25-6.2,0,0-3.1-.5-5.58,0,0,0-.87,3.6-.62,7.81,0,0,.13.5-.74.5s-6.57-.37-12.65,3.35l.37,3.97h0Z"/>
      <path class="cls-1" d="m191.34,19.35s7.07-2.98,10.42-2.73c0,0,.74-1.36.49-3.1-.24-1.74.25-2.11-.49-2.36-.75-.25-1.86-.49-4.22.25-2.36.74-4.96,1.74-5.71,2.11-.75.37-.87,1.12-.87,1.12,0,0-.37,4.22.37,4.71h0Z"/>
      <path class="cls-1" d="m213.18,17.12s6.82.25,9.42,1.86c0,0,.5-4.71-.12-5.58,0,0-3.72-2.23-8.69-2.48,0,0-1.24-.75-1.24.62s-.37,4.71.62,5.58h0Z"/>
      <path class="cls-6" d="m86.23,333.88l-3.35-3.35s11.53.19,15.81.74c4.28.56,12.28,2.05,14.88,5.95,2.61,3.91.75,6.7-2.6,7.81-3.35,1.12-11.91.93-15.44.19-3.54-.74-10.05-2.6-15.07-7.81-5.02-5.21-10.42-10.98-13.77-9.12-3.35,1.86-1.86,3.53-1.49,4.47.37.93,5.02,4.65,11.91,8,6.88,3.35,19.72,8.74,31.07,11.91,11.35,3.16,56.37,17.86,106.41,18.23,50.05.37,109.95-17.3,131.71-26.23,0,0,12.84-5.21,15.63-9.49,2.79-4.28-.56-5.39-2.42-5.02-1.86.37-4.84.75-15.07,11.35,0,0-4.84,4.28-13.58,5.39-8.74,1.12-13.95,1.49-16.74-1.67-2.79-3.16-.93-8.19,5.77-10.42,6.7-2.23,17.86-3.16,24.93-2.42l-3.53,3.35s-9.86-.37-12.84.19c-2.98.56-10.42,2.23-9.49,5.58.93,3.35,8.37,3.91,13.39,1.49,5.02-2.42,8.93-4.84,15.81-10.42,6.88-5.58,12.47-7.63,17.3-5.02,4.84,2.6,2.79,8-.37,10.98-3.16,2.98-9.86,8.19-21.39,12.09-11.53,3.91-70.7,24.37-129.3,24.18-58.6-.19-118.32-21.21-131.34-26.23-13.02-5.02-19.16-9.49-22.51-15.07-3.35-5.58,1.12-9.67,6.33-9.49,5.21.19,6.7,2.23,10.04,4.65,3.35,2.42,8.75,7.81,12.09,9.67,3.35,1.86,14.32,6.51,18.23,3.53,3.91-2.98-.37-5.02-3.54-6.32-3.16-1.3-15.63-2.79-17.49-1.67h0Z"/>
      <path class="cls-1" d="m39.16,316.95l5.21-14.7s.56-.56-.74-1.3c-1.3-.74-8.56-5.21-14.33-5.21s-5.95,2.42-5.39,5.02c.56,2.61,5.95,12.09,15.25,16.19h0Z"/>
      <path class="cls-6" d="m45.68,320.49l7.44-21.58s-6.51-5.77-18.79-9.11c-12.28-3.35-14.51-1.49-16.93,2.42-2.42,3.91-2.79,11.72,4.28,19.9,7.07,8.19,24.56,16.56,34.42,18.42l.93-2.98s-15.81-5.21-24.74-12.28c-8.93-7.07-13.58-15.07-10.6-19.53,2.98-4.46,8-2.42,11.91-1.49,3.91.93,10.42,3.35,13.58,6.51l-5.95,17.49,4.47,2.23h0Z"/>
      <path class="cls-1" d="m44.37,367s9.49-26.79,11.16-33.86c0,0-18.23-5.58-25.3-10.6-7.07-5.02-12.65-8-16.93-20.09,0,0-9.3,24.56-9.67,26.79-.37,2.23-.75,6.33-.19,7.44.56,1.12,2.23,5.02,4.09,7.07,1.86,2.05,10.42,13.02,36.83,23.25h0Z"/>
      <path class="cls-1" d="m76.74,337.79s-6.88-3.72-8.19-5.58c-1.3-1.86.75-1.12,1.67-.56.93.56,6.51,6.14,6.51,6.14h0Z"/>
      <path class="cls-1" d="m92.37,336.86s6.14-1.12,12.65,2.6c0,0-4.09,2.42-12.65-2.6h0Z"/>
      <path class="cls-1" d="m106.7,348.95l6.51-1.49s.37,2.61-.93,3.91l-5.58-2.42h0Z"/>
      <path class="cls-1" d="m58.14,335.55s-11.91,34.6-12.46,36.46c-.56,1.86-2.42,6.88-1.3,10.23,1.12,3.35,4.09,5.58,8.93,8,3.76,1.88,65.75,35.88,161.67,34.6,97.48-1.3,135.25-22.7,161.48-34.6,0,0,7.82-3.91,5.4-12.09-2.42-8.19-12.46-40.18-12.46-40.18,0,0,0,.75-1.12,1.86s-7.81,6.7-16.19,10.04c-8.37,3.35-70.32,27.91-137.67,27.54-67.35-.37-126.51-24.19-137.3-28.65-10.79-4.47-16.37-8.93-18.98-13.21h0Z"/>
      <path class="cls-1" d="m322.32,341.13s2.98-3.72,12.84-2.42c0,0-8.37,4.46-12.84,2.42h0Z"/>
      <path class="cls-1" d="m351.15,339.46s3.16-5.21,7.26-5.95c0,0,3.54.19-7.26,5.95h0Z"/>
      <path class="cls-1" d="m314.87,352.48l-.56-2.98v-.93s2.42,1.86,6.14,2.05l-5.58,1.86h0Z"/>
      <path class="cls-6" d="m370.69,329.23s21.58-4.83,31.44-17.49c0,0,7.26-7.26,4.28-12.65-2.97-5.39-10.6-2.6-11.91-2.23-1.3.37-10.23,2.98-13.58,6.14v1.12l5.39,16.74s-3.16,1.67-3.91,2.04l-6.7-20.28s-1.67-1.12.56-2.61c2.23-1.49,6.33-3.72,9.12-4.84,2.79-1.12,9.12-3.53,13.4-3.91,4.28-.37,10.05-2.05,13.02,6.14,2.98,8.18-7.63,19.53-7.63,19.53,0,0-17.12,13.58-32.74,15.63l-.74-3.35h0Z"/>
      <path class="cls-1" d="m382.03,368.86s-8.56-26.6-9.49-30.7l-.56-3.16s13.21-2.23,25.86-10.23c12.65-8,16.56-17.67,16.75-19.16l8.37,24.19s1.49,3.53.93,7.25c-.56,3.72-4.84,10.42-9.67,14.51-4.84,4.09-14.14,10.98-32.19,17.3h0Z"/>
      <path class="cls-6" d="m214.97,349.69c16.06-18.74,42.23-24.93,55.62-38.51,13.4-13.58,10.23-32.56,10.23-32.56,0,0,2.79,1.3,4.65,1.67,1.86.37.19-3.72.19-3.72,2.6,2.42,5.95.56,5.95.56l.74,2.6c.18,14.88,2.6,33.86-34.04,53.58-36.65,19.72-43.91,32-43.91,32-7.44-12.28-38.88-30.33-55.63-40.74-16.74-10.42-19.16-24-20.46-29.58-1.3-5.58.56-18.23.56-18.23,0,0,1.68.37,2.42.74.74.37,2.42-.56,2.42-.56l.93-1.12.56.37-.93,1.11c-.75,2.61,1.3,2.05,1.3,2.05,0,0-.18.56.75.56s3.35-1.49,3.35-1.49c0,0-3.16,25.86,15.81,37.95,0,0,44.46,24.19,48.56,32.37l.93.93h0Z"/>
      <path class="cls-6" d="m217.2,178.91s-1.3-10.23,6.14-13.02c7.44-2.79,8.56,4.28,8.37,5.77-.19,1.49-1.12,3.72-1.86,5.02,0,0,.37,3.54,3.91,5.77,3.54,2.23,9.86,5.02,14.7,5.4,4.84.37,15.44-.19,18.42-2.05,0,0,.37-.74.37-1.3,0-.56-1.49-2.42-1.67-3.35-.18-.93-1.49-6.33,3.35-8.37,4.84-2.05,8-.37,9.68,5.77,1.67,6.14-1.67,11.35-4.47,13.58-2.79,2.23-14.7,9.3-30.88,5.77-16.19-3.53-24.37-10.42-26.05-18.98h0Z"/>
      <path class="cls-6" d="m201.76,176.12s-2.23-2.42-1.67-6.32c.56-3.91,4.28-5.58,7.44-4.46,3.16,1.11,7.63,3.35,6.7,12.46,0,0-.56,4.84-2.05,6.7-1.49,1.86-12.46,14.88-33.86,13.77,0,0-10.98,1.12-20.09-6.14,0,0-3.91-2.42-5.02-6.32-1.12-3.91-2.05-10.23,4.09-13.95,6.14-3.72,8.74,4.65,8.74,4.65,0,0,.19,3.72-1.12,5.58-1.3,1.86-.56,2.6.18,3.16.75.56,8.37,2.98,15.26,2.42,6.88-.56,15.81-3.35,18.98-6.7,3.16-3.35,2.42-4.84,2.42-4.84h0Z"/>
      <path class="cls-6" d="m195.44,164.21s-8,3.35-11.35-1.12c0,0-1.49-4.28.37-4.84,1.86-.56,5.77-1.86,10.98,5.95h0Z"/>
      <path class="cls-6" d="m199.9,164.4s-5.02-5.4-6.33-5.95c0,0,5.58-3.91,11.16,3.72,0,0-2.79-.93-4.84,2.23h0Z"/>
      <path class="cls-6" d="m218.51,165.52s-4.65.74-8.19-1.68c0,0-2.6-4.28-4.65-5.21,0,0,5.58-6.14,12.84,6.89h0Z"/>
      <path class="cls-6" d="m221.67,163.65s-2.79-4.09-3.53-4.84c-.75-.74,5.02-3.35,9.3,3.35,0,0-4.09-.37-5.77,1.49h0Z"/>
      <path class="cls-6" d="m241.2,165.14s-4.46,3.16-8.37-.56c-3.91-3.72-3.72-5.02-3.72-5.02,0,0,.19-4.09,7.82.56,0,0,2.98,2.42,4.28,5.02h0Z"/>
      <path class="cls-6" d="m240.45,159.06s12.46-3.65,8.74,5.23c0,0-1.3.95-2.23.95-.93,0-5.4-3.17-6.51-6.18h0Z"/>
      <path class="cls-1" d="m388.92,319.74l-4.84-14.32-.19-1.49s6.33-5.21,14.7-5.4c8.37-.19,5.58,5.95,4.28,8-1.3,2.05-5.21,8-13.95,13.21h0Z"/>
      <path class="cls-2" d="m64.92,357.02l6.72,3.2,3.14,17.31h-.03s.06.01.06.01l4.62-9.69c.65-1.38.21-2.13-1.89-3.47l.52-1.1,6.97,3.32-.53,1.1c-2-.62-2.87-.49-3.53.89l-7.51,15.75-2.59-1.23-3.56-19.61-.11-.05-5.56,11.68c-.66,1.38-.2,2.13,2.35,3.35l-.52,1.1-7.46-3.55.52-1.1c2.04.97,2.91.84,3.56-.53l6.25-13.11c.66-1.38.21-2.13-1.94-3.16l.52-1.1h0Z"/>
      <path class="cls-2" d="m99.82,379.94l-1.23-.46c.38-4.12-1.21-6.95-4.56-8.19-1.77-.66-2.54-.45-3.05.95l-2.05,5.55c2.75,1.01,3.92.74,5.69-1.67l1.14.42-2.93,7.96-1.14-.42c.22-2.97-.49-3.95-3.24-4.97l-2.41,6.53c-.52,1.4-.08,2.05,1.7,2.71,3.83,1.42,7.12-.17,9.41-3.55l1.23.45-2.94,7.44-18.17-6.71.42-1.15c2.12.78,2.97.58,3.5-.85l5.04-13.62c.52-1.43,0-2.14-2.11-2.92l.42-1.15,17.72,6.54-2.43,7.1h0Z"/>
      <path class="cls-2" d="m122.86,378.89l-.33,1.17c-1.82-.51-2.68-.28-2.88.43-.16.56-.08,1.31-.08,2.54l.02,9.51.06.02,5.88-8.61c.28-.43.48-.82.61-1.26.32-1.15-.79-1.84-2.28-2.26l.33-1.17,7.11,2-.33,1.17c-1.64-.46-2.53.21-3.33,1.35l-10.64,15.26-2.26-.64-.02-13.44-.06-.02-7.76,11.25-2.33-.65.08-17.6c0-2.5-.64-2.91-1.83-3.43l.33-1.18,9.1,2.56-.33,1.17c-1.61-.45-2.13-.28-2.38.57-.09.32-.11.73-.12,1.42l.05,10.63.06.02,5.2-7.57-.02-1.72c-.01-1.97-.56-2.73-1.8-3.07l.33-1.17,9.6,2.7h0Z"/>
      <path class="cls-2" d="m147.43,392.1l-1.2-.24c-.69-4.56-1.91-7.11-5.38-7.82-3.7-.75-6.01,2.32-7.21,8.18-1.24,6.1.14,9.68,4.21,10.51,3.95.8,6.73-1.25,7.89-5.71l1.32.27c-1.07,5.23-4.67,7.8-10.15,6.68-7.05-1.44-9.94-7.13-8.77-12.87,1.17-5.74,7.01-9.65,12.66-8.5,2.25.46,3.98,1.68,5.5,2.96l1.41-.99,1.2.24-1.48,7.29h0Z"/>
      <path class="cls-2" d="m146.55,405.58l.17-1.21c2.33-.11,3.18-.91,4.59-3.27l8.96-15.17,1.6.22,5.23,19c.43,1.54,1.03,2.08,2.59,2.42l-.17,1.21-10.91-1.52.17-1.21,1.21.17c1.57.22,1.86-.11,1.95-.74.05-.39-.04-.81-.17-1.25l-.99-3.68-6.65-.93-1.3,2.25c-.2.37-.5,1.01-.63,1.85-.12.85.35,1.46,1.53,1.63l1.48.21-.17,1.21-8.49-1.19h0Zm11.92-13.46l-3.46,6.02,5.32.74-1.86-6.76h0Z"/>
      <path class="cls-2" d="m171.16,400.77l1.34.11c.55,3.38,2.28,7.23,6.14,7.55,2.1.17,3.97-.65,4.19-3.2.37-4.41-11.53-3.86-10.95-10.83.37-4.38,3.83-6.6,7.66-6.28,3.31.28,4.27,1.98,5.09,2.05.61.05.91-.63,1.29-1.15l1.28.1-.6,7.24-1.22-.1c-.6-3.39-2.31-6.44-5.51-6.7-1.91-.16-3.62.77-3.78,2.78-.4,4.74,11.75,3.39,11.1,11.27-.38,4.53-4.68,6.56-8.05,6.28-3.74-.31-5.04-2.01-6.01-2.09-.61-.05-1.13.73-1.41,1.11l-1.22-.1.67-8.03h0Z"/>
      <path class="cls-2" d="m208.77,389.89l-.11,7.45-1.4-.04c-.71-3.59-2.41-6.12-5.8-6.22l-.49,16.34c-.05,1.52.67,2.03,3.29,2.11l-.04,1.22-11.89-.36.04-1.22c2.68.08,3.43-.39,3.47-1.91l.49-16.34c-3.38-.1-5.23,2.32-6.16,5.86l-1.41-.04.35-7.44,19.64.59h0Z"/>
      <path class="cls-2" d="m208.98,410.83l-.02-1.22c2.26-.04,2.98-.54,2.95-2.07l-.27-14.52c-.02-1.53-.77-2-3.02-1.96l-.02-1.22,11.1-.2.02,1.22c-2.25.04-2.98.54-2.95,2.07l.26,14.46c.03,1.47.59,1.88,2.11,1.85,3.08-.06,5.43-3.27,6.16-6.76l1.31-.02-.04,8.06-17.6.32h0Z"/>
      <path class="cls-2" d="m245.98,396.06l-1.31.07c-1.27-3.94-3.85-5.91-7.42-5.73-1.89.1-2.51.59-2.42,2.08l.3,5.91c2.92-.15,3.9-.88,4.57-3.78l1.22-.06.43,8.47-1.21.06c-.97-2.82-2.01-3.44-4.94-3.29l.36,6.95c.08,1.49.74,1.92,2.63,1.82,4.08-.21,6.48-2.96,7.24-6.97l1.31-.07.23,7.99-19.34,1-.06-1.22c2.26-.12,2.96-.64,2.88-2.17l-.76-14.5c-.08-1.52-.83-1.97-3.09-1.86l-.06-1.22,18.86-.98.57,7.49h0Z"/>
      <path class="cls-2" d="m265.12,386.73l.14,1.21c-2.36.27-3.04.84-2.87,2.35l1.42,12.49c.31,2.79,2.83,3.85,4.8,3.63,3.39-.39,4.92-2.34,4.52-5.86l-1.26-11.03c-.17-1.52-.95-1.92-3.51-1.93l-.14-1.21,7.67-.87.14,1.21c-2.02.54-2.7,1.11-2.52,2.62l1.23,10.79c.54,4.79-2.16,7.25-7.19,7.82-3.37.38-7.94-.45-8.48-5.12l-1.36-12c-.17-1.52-.96-1.92-3.17-1.67l-.14-1.21,10.7-1.22h0Z"/>
      <path class="cls-2" d="m275.14,385.64l7.34-1.28,12.58,12.3h-.03s.06,0,.06,0l-1.84-10.58c-.26-1.5-1.07-1.86-3.56-1.73l-.21-1.2,7.6-1.33.21,1.2c-1.99.66-2.63,1.26-2.36,2.77l3,17.19-2.83.49-14.26-13.93-.12.02,2.22,12.74c.26,1.5,1.07,1.86,3.87,1.37l.21,1.2-8.15,1.42-.21-1.2c2.22-.39,2.86-1,2.6-2.5l-2.5-14.31c-.26-1.5-1.06-1.86-3.41-1.45l-.21-1.2h0Z"/>
      <path class="cls-2" d="m301.82,402.11l-.28-1.19c2.2-.51,2.8-1.16,2.45-2.64l-3.32-14.14c-.35-1.49-1.18-1.8-3.37-1.28l-.28-1.19,10.81-2.54.28,1.19c-2.2.52-2.8,1.16-2.45,2.64l3.32,14.14c.35,1.48,1.17,1.79,3.37,1.28l.28,1.19-10.81,2.54h0Z"/>
      <path class="cls-2" d="m326.76,373.57l2.27,7.09-1.34.41c-1.82-3.18-4.23-5.03-7.47-4.05l4.73,15.65c.44,1.46,1.29,1.71,3.8.95l.35,1.17-11.39,3.45-.35-1.17c2.57-.78,3.13-1.46,2.69-2.92l-4.74-15.65c-3.24.98-4.22,3.86-3.97,7.51l-1.35.41-2.04-7.16,18.8-5.69h0Z"/>
      <path class="cls-2" d="m346.9,373.58l-1.21.49c-2.48-3.31-5.56-4.34-8.87-3.01-1.75.71-2.18,1.37-1.62,2.76l2.21,5.49c2.71-1.09,3.4-2.09,3.09-5.06l1.13-.46,3.16,7.87-1.13.45c-1.83-2.35-3.02-2.6-5.73-1.51l2.59,6.46c.56,1.39,1.32,1.57,3.08.87,3.8-1.53,5.17-4.9,4.59-8.95l1.22-.49,2.81,7.49-17.97,7.22-.46-1.13c2.09-.84,2.59-1.57,2.02-2.98l-5.42-13.47c-.57-1.41-1.43-1.59-3.52-.75l-.45-1.13,17.52-7.04,2.96,6.89h0Z"/>
      <path class="cls-2" d="m354.13,361.87c6.88-3.21,12.64-1.12,15.25,4.47,2.5,5.36.51,11.34-5.6,14.19l-9.4,4.38-.52-1.11c2.05-.95,2.5-1.71,1.86-3.09l-6.14-13.16c-.64-1.38-1.51-1.52-3.56-.56l-.52-1.11,8.63-4.02h0Zm5.88,16.51c.62,1.33,1.53,1.64,3.39.77,2.93-1.36,3.63-4.79.94-10.47-2.63-5.71-5.7-7.38-8.63-6.01-1.85.86-2.2,1.77-1.59,3.1l5.88,12.61h0Z"/>
      <path class="cls-3" d="m72.54,245.21c.82-.45,1.94.33,2.31.67,1.3-2.9-2.2-3.79-2.64-6.4.34-.37.63-1.08,1.34-.82,1.12-.67,2.34-1.19,3.57-2.12.6-.56,1.56-1.23,1.64-2.12-.86-.41-1.49.15-2.28-.48-.67.33-1.23-.63-1.63,0-.86-.63-1.79-.22-2.64-.33-.56-.37-1.49-.71-1.93-.34-.64-.59-1.87-.19-2.46-.33v-.15c-.56,0-1.19.11-1.49-.48l-.48.48c-1.41-.22-1.97.86-2.79,1.64-.22,1.49-.45,2.87.82,3.76,1.12.67,1.6,2.49,2.94,2.94,0,0,2.04,3.33,5.73,4.09h0Z"/>
      <path class="cls-3" d="m364.1,243.09c-.52-.19-.26-.74-.33-1.15,1.71-1.9,5.13-3.53,3.94-6.7-.78-.37-1.23-2.16-2.31-1.15-.19-.93-1.41-.3-1.79-.33-.45.41-.82-.41-1.15.33-1.45-.86-2.6.89-3.76.34-1.86.3-4.69.78-6.54.82-.52.48.15.93.48,1.3,1.38,1,2.16,2.49,3.94,2.64.63-.15.74.93,1.45.63,1.41,1.08-.52,1.97-.82,2.94h-.33c-.6,1.23-1.86,2.42-1.3,3.94.37-.11.85-.45,1.15-.33.26.07.34-.19.48-.34.85-.11,2.34-.48,3.46-.82,0,0,2.42-1,3.42-2.12h0Z"/>
    </g>
  </g>
</svg>