<?xml version="1.0" encoding="UTF-8"?>
<svg id="Layer_2" data-name="Layer 2" xmlns="http://www.w3.org/2000/svg" xmlns:xlink="http://www.w3.org/1999/xlink" viewBox="0 0 33.56 19.58">
  <defs>
    <style>
      .cls-1 {
        clip-path: url(#clippath);
      }

      .cls-2 {
        fill: none;
      }

      .cls-2, .cls-3, .cls-4, .cls-5, .cls-6, .cls-7, .cls-8, .cls-9, .cls-10, .cls-11, .cls-12, .cls-13, .cls-14, .cls-15, .cls-16 {
        stroke-width: 0px;
      }

      .cls-17 {
        clip-path: url(#clippath-1);
      }

      .cls-18 {
        clip-path: url(#clippath-4);
      }

      .cls-19 {
        clip-path: url(#clippath-3);
      }

      .cls-20 {
        clip-path: url(#clippath-2);
      }

      .cls-21 {
        clip-path: url(#clippath-7);
      }

      .cls-22 {
        clip-path: url(#clippath-8);
      }

      .cls-23 {
        clip-path: url(#clippath-6);
      }

      .cls-24 {
        clip-path: url(#clippath-5);
      }

      .cls-25 {
        clip-path: url(#clippath-9);
      }

      .cls-26 {
        clip-path: url(#clippath-60);
      }

      .cls-27 {
        clip-path: url(#clippath-69);
      }

      .cls-28 {
        clip-path: url(#clippath-20);
      }

      .cls-29 {
        clip-path: url(#clippath-21);
      }

      .cls-30 {
        clip-path: url(#clippath-24);
      }

      .cls-31 {
        clip-path: url(#clippath-23);
      }

      .cls-32 {
        clip-path: url(#clippath-22);
      }

      .cls-33 {
        clip-path: url(#clippath-25);
      }

      .cls-34 {
        clip-path: url(#clippath-44);
      }

      .cls-35 {
        clip-path: url(#clippath-45);
      }

      .cls-36 {
        clip-path: url(#clippath-40);
      }

      .cls-37 {
        clip-path: url(#clippath-42);
      }

      .cls-38 {
        clip-path: url(#clippath-41);
      }

      .cls-39 {
        clip-path: url(#clippath-47);
      }

      .cls-40 {
        clip-path: url(#clippath-43);
      }

      .cls-41 {
        clip-path: url(#clippath-46);
      }

      .cls-42 {
        clip-path: url(#clippath-48);
      }

      .cls-43 {
        clip-path: url(#clippath-49);
      }

      .cls-44 {
        clip-path: url(#clippath-84);
      }

      .cls-45 {
        clip-path: url(#clippath-88);
      }

      .cls-46 {
        clip-path: url(#clippath-86);
      }

      .cls-47 {
        clip-path: url(#clippath-81);
      }

      .cls-48 {
        clip-path: url(#clippath-83);
      }

      .cls-49 {
        clip-path: url(#clippath-85);
      }

      .cls-50 {
        clip-path: url(#clippath-80);
      }

      .cls-51 {
        clip-path: url(#clippath-87);
      }

      .cls-52 {
        clip-path: url(#clippath-82);
      }

      .cls-53 {
        clip-path: url(#clippath-89);
      }

      .cls-54 {
        clip-path: url(#clippath-27);
      }

      .cls-55 {
        clip-path: url(#clippath-28);
      }

      .cls-56 {
        clip-path: url(#clippath-26);
      }

      .cls-57 {
        clip-path: url(#clippath-29);
      }

      .cls-58 {
        clip-path: url(#clippath-34);
      }

      .cls-59 {
        clip-path: url(#clippath-35);
      }

      .cls-60 {
        clip-path: url(#clippath-36);
      }

      .cls-61 {
        clip-path: url(#clippath-37);
      }

      .cls-62 {
        clip-path: url(#clippath-39);
      }

      .cls-63 {
        clip-path: url(#clippath-33);
      }

      .cls-64 {
        clip-path: url(#clippath-32);
      }

      .cls-65 {
        clip-path: url(#clippath-30);
      }

      .cls-66 {
        clip-path: url(#clippath-38);
      }

      .cls-67 {
        clip-path: url(#clippath-31);
      }

      .cls-68 {
        clip-path: url(#clippath-53);
      }

      .cls-69 {
        clip-path: url(#clippath-54);
      }

      .cls-70 {
        clip-path: url(#clippath-50);
      }

      .cls-71 {
        clip-path: url(#clippath-51);
      }

      .cls-72 {
        clip-path: url(#clippath-52);
      }

      .cls-73 {
        clip-path: url(#clippath-55);
      }

      .cls-74 {
        clip-path: url(#clippath-56);
      }

      .cls-75 {
        clip-path: url(#clippath-57);
      }

      .cls-76 {
        clip-path: url(#clippath-58);
      }

      .cls-77 {
        clip-path: url(#clippath-79);
      }

      .cls-78 {
        clip-path: url(#clippath-61);
      }

      .cls-79 {
        clip-path: url(#clippath-64);
      }

      .cls-80 {
        clip-path: url(#clippath-62);
      }

      .cls-81 {
        clip-path: url(#clippath-68);
      }

      .cls-82 {
        clip-path: url(#clippath-67);
      }

      .cls-83 {
        clip-path: url(#clippath-73);
      }

      .cls-84 {
        clip-path: url(#clippath-59);
      }

      .cls-85 {
        clip-path: url(#clippath-65);
      }

      .cls-86 {
        clip-path: url(#clippath-63);
      }

      .cls-87 {
        clip-path: url(#clippath-66);
      }

      .cls-88 {
        clip-path: url(#clippath-70);
      }

      .cls-89 {
        clip-path: url(#clippath-75);
      }

      .cls-90 {
        clip-path: url(#clippath-72);
      }

      .cls-91 {
        clip-path: url(#clippath-78);
      }

      .cls-92 {
        clip-path: url(#clippath-71);
      }

      .cls-93 {
        clip-path: url(#clippath-77);
      }

      .cls-94 {
        clip-path: url(#clippath-74);
      }

      .cls-95 {
        clip-path: url(#clippath-76);
      }

      .cls-96 {
        clip-path: url(#clippath-14);
      }

      .cls-97 {
        clip-path: url(#clippath-13);
      }

      .cls-98 {
        clip-path: url(#clippath-12);
      }

      .cls-99 {
        clip-path: url(#clippath-15);
      }

      .cls-100 {
        clip-path: url(#clippath-17);
      }

      .cls-101 {
        clip-path: url(#clippath-16);
      }

      .cls-102 {
        clip-path: url(#clippath-19);
      }

      .cls-103 {
        clip-path: url(#clippath-11);
      }

      .cls-104 {
        clip-path: url(#clippath-18);
      }

      .cls-4 {
        fill: #f3cd2d;
      }

      .cls-5 {
        fill: #487ba2;
      }

      .cls-6 {
        fill: #6091be;
      }

      .cls-7 {
        fill: #263732;
      }

      .cls-8 {
        fill: #5b7133;
      }

      .cls-9 {
        fill: #93c438;
      }

      .cls-10 {
        fill: #2f4791;
      }

      .cls-11 {
        fill: #3564c2;
      }

      .cls-12 {
        fill: #c0003b;
      }

      .cls-13 {
        fill: #b0008a;
      }

      .cls-14 {
        fill: #95d4fd;
      }

      .cls-15 {
        fill: #fff;
      }

      .cls-16 {
        fill: #f5cd28;
      }
    </style>
    <clipPath id="clippath">
      <rect class="cls-2" width="33.56" height="19.58"/>
    </clipPath>
    <clipPath id="clippath-1">
      <rect class="cls-2" width="33.56" height="19.58"/>
    </clipPath>
    <clipPath id="clippath-2">
      <rect class="cls-2" width="33.56" height="19.58"/>
    </clipPath>
    <clipPath id="clippath-3">
      <rect class="cls-2" width="33.56" height="19.58"/>
    </clipPath>
    <clipPath id="clippath-4">
      <rect class="cls-2" width="33.56" height="19.58"/>
    </clipPath>
    <clipPath id="clippath-5">
      <rect class="cls-2" width="33.56" height="19.58"/>
    </clipPath>
    <clipPath id="clippath-6">
      <rect class="cls-2" width="33.56" height="19.58"/>
    </clipPath>
    <clipPath id="clippath-7">
      <rect class="cls-2" width="33.56" height="19.58"/>
    </clipPath>
    <clipPath id="clippath-8">
      <rect class="cls-2" width="33.56" height="19.58"/>
    </clipPath>
    <clipPath id="clippath-9">
      <rect class="cls-2" width="33.56" height="19.58"/>
    </clipPath>
    <clipPath id="clippath-11">
      <rect class="cls-2" width="33.56" height="19.58"/>
    </clipPath>
    <clipPath id="clippath-12">
      <rect class="cls-2" width="33.56" height="19.58"/>
    </clipPath>
    <clipPath id="clippath-13">
      <rect class="cls-2" width="33.56" height="19.58"/>
    </clipPath>
    <clipPath id="clippath-14">
      <rect class="cls-2" width="33.56" height="19.58"/>
    </clipPath>
    <clipPath id="clippath-15">
      <rect class="cls-2" width="33.56" height="19.58"/>
    </clipPath>
    <clipPath id="clippath-16">
      <rect class="cls-2" width="33.56" height="19.58"/>
    </clipPath>
    <clipPath id="clippath-17">
      <rect class="cls-2" width="33.56" height="19.58"/>
    </clipPath>
    <clipPath id="clippath-18">
      <rect class="cls-2" width="33.56" height="19.58"/>
    </clipPath>
    <clipPath id="clippath-19">
      <rect class="cls-2" width="33.56" height="19.58"/>
    </clipPath>
    <clipPath id="clippath-20">
      <rect class="cls-2" width="33.56" height="19.58"/>
    </clipPath>
    <clipPath id="clippath-21">
      <rect class="cls-2" width="33.56" height="19.58"/>
    </clipPath>
    <clipPath id="clippath-22">
      <rect class="cls-2" width="33.56" height="19.58"/>
    </clipPath>
    <clipPath id="clippath-23">
      <rect class="cls-2" width="33.56" height="19.58"/>
    </clipPath>
    <clipPath id="clippath-24">
      <rect class="cls-2" width="33.56" height="19.58"/>
    </clipPath>
    <clipPath id="clippath-25">
      <rect class="cls-2" width="33.56" height="19.58"/>
    </clipPath>
    <clipPath id="clippath-26">
      <rect class="cls-2" width="33.56" height="19.58"/>
    </clipPath>
    <clipPath id="clippath-27">
      <rect class="cls-2" width="33.56" height="19.58"/>
    </clipPath>
    <clipPath id="clippath-28">
      <rect class="cls-2" width="33.56" height="19.58"/>
    </clipPath>
    <clipPath id="clippath-29">
      <rect class="cls-2" width="33.56" height="19.58"/>
    </clipPath>
    <clipPath id="clippath-30">
      <rect class="cls-2" width="33.56" height="19.58"/>
    </clipPath>
    <clipPath id="clippath-31">
      <rect class="cls-2" width="33.56" height="19.58"/>
    </clipPath>
    <clipPath id="clippath-32">
      <rect class="cls-2" width="33.56" height="19.58"/>
    </clipPath>
    <clipPath id="clippath-33">
      <rect class="cls-2" width="33.56" height="19.58"/>
    </clipPath>
    <clipPath id="clippath-34">
      <rect class="cls-2" width="33.56" height="19.58"/>
    </clipPath>
    <clipPath id="clippath-35">
      <rect class="cls-2" width="33.56" height="19.58"/>
    </clipPath>
    <clipPath id="clippath-36">
      <rect class="cls-2" width="33.56" height="19.58"/>
    </clipPath>
    <clipPath id="clippath-37">
      <rect class="cls-2" width="33.56" height="19.58"/>
    </clipPath>
    <clipPath id="clippath-38">
      <rect class="cls-2" width="33.56" height="19.58"/>
    </clipPath>
    <clipPath id="clippath-39">
      <rect class="cls-2" width="33.56" height="19.58"/>
    </clipPath>
    <clipPath id="clippath-40">
      <rect class="cls-2" width="33.56" height="19.58"/>
    </clipPath>
    <clipPath id="clippath-41">
      <rect class="cls-2" width="33.56" height="19.58"/>
    </clipPath>
    <clipPath id="clippath-42">
      <rect class="cls-2" width="33.56" height="19.58"/>
    </clipPath>
    <clipPath id="clippath-43">
      <rect class="cls-2" width="33.56" height="19.58"/>
    </clipPath>
    <clipPath id="clippath-44">
      <rect class="cls-2" width="33.56" height="19.58"/>
    </clipPath>
    <clipPath id="clippath-45">
      <rect class="cls-2" width="33.56" height="19.58"/>
    </clipPath>
    <clipPath id="clippath-46">
      <rect class="cls-2" width="33.56" height="19.58"/>
    </clipPath>
    <clipPath id="clippath-47">
      <rect class="cls-2" width="33.56" height="19.58"/>
    </clipPath>
    <clipPath id="clippath-48">
      <rect class="cls-2" width="33.56" height="19.58"/>
    </clipPath>
    <clipPath id="clippath-49">
      <rect class="cls-2" width="33.56" height="19.58"/>
    </clipPath>
    <clipPath id="clippath-50">
      <rect class="cls-2" width="33.56" height="19.58"/>
    </clipPath>
    <clipPath id="clippath-51">
      <rect class="cls-2" width="33.56" height="19.58"/>
    </clipPath>
    <clipPath id="clippath-52">
      <rect class="cls-2" width="33.56" height="19.58"/>
    </clipPath>
    <clipPath id="clippath-53">
      <rect class="cls-2" width="33.56" height="19.58"/>
    </clipPath>
    <clipPath id="clippath-54">
      <rect class="cls-2" width="33.56" height="19.58"/>
    </clipPath>
    <clipPath id="clippath-55">
      <rect class="cls-2" width="33.56" height="19.58"/>
    </clipPath>
    <clipPath id="clippath-56">
      <rect class="cls-2" width="33.56" height="19.58"/>
    </clipPath>
    <clipPath id="clippath-57">
      <rect class="cls-2" width="33.56" height="19.58"/>
    </clipPath>
    <clipPath id="clippath-58">
      <rect class="cls-2" width="33.56" height="19.58"/>
    </clipPath>
    <clipPath id="clippath-59">
      <rect class="cls-2" width="33.56" height="19.58"/>
    </clipPath>
    <clipPath id="clippath-60">
      <rect class="cls-2" width="33.56" height="19.58"/>
    </clipPath>
    <clipPath id="clippath-61">
      <rect class="cls-2" width="33.56" height="19.58"/>
    </clipPath>
    <clipPath id="clippath-62">
      <rect class="cls-2" width="33.56" height="19.58"/>
    </clipPath>
    <clipPath id="clippath-63">
      <rect class="cls-2" width="33.56" height="19.58"/>
    </clipPath>
    <clipPath id="clippath-64">
      <rect class="cls-2" width="33.56" height="19.58"/>
    </clipPath>
    <clipPath id="clippath-65">
      <rect class="cls-2" width="33.56" height="19.58"/>
    </clipPath>
    <clipPath id="clippath-66">
      <rect class="cls-2" width="33.56" height="19.58"/>
    </clipPath>
    <clipPath id="clippath-67">
      <rect class="cls-2" width="33.56" height="19.58"/>
    </clipPath>
    <clipPath id="clippath-68">
      <rect class="cls-2" width="33.56" height="19.58"/>
    </clipPath>
    <clipPath id="clippath-69">
      <rect class="cls-2" width="33.56" height="19.58"/>
    </clipPath>
    <clipPath id="clippath-70">
      <rect class="cls-2" width="33.56" height="19.58"/>
    </clipPath>
    <clipPath id="clippath-71">
      <rect class="cls-2" width="33.56" height="19.58"/>
    </clipPath>
    <clipPath id="clippath-72">
      <rect class="cls-2" width="33.56" height="19.58"/>
    </clipPath>
    <clipPath id="clippath-73">
      <rect class="cls-2" width="33.56" height="19.58"/>
    </clipPath>
    <clipPath id="clippath-74">
      <rect class="cls-2" width="33.56" height="19.58"/>
    </clipPath>
    <clipPath id="clippath-75">
      <rect class="cls-2" width="33.56" height="19.58"/>
    </clipPath>
    <clipPath id="clippath-76">
      <rect class="cls-2" width="33.56" height="19.58"/>
    </clipPath>
    <clipPath id="clippath-77">
      <rect class="cls-2" width="33.56" height="19.58"/>
    </clipPath>
    <clipPath id="clippath-78">
      <rect class="cls-2" width="33.56" height="19.58"/>
    </clipPath>
    <clipPath id="clippath-79">
      <rect class="cls-2" width="33.56" height="19.58"/>
    </clipPath>
    <clipPath id="clippath-80">
      <rect class="cls-2" width="33.56" height="19.58"/>
    </clipPath>
    <clipPath id="clippath-81">
      <rect class="cls-2" width="33.56" height="19.58"/>
    </clipPath>
    <clipPath id="clippath-82">
      <rect class="cls-2" width="33.56" height="19.58"/>
    </clipPath>
    <clipPath id="clippath-83">
      <rect class="cls-2" width="33.56" height="19.58"/>
    </clipPath>
    <clipPath id="clippath-84">
      <rect class="cls-2" width="33.56" height="19.58"/>
    </clipPath>
    <clipPath id="clippath-85">
      <rect class="cls-2" width="33.56" height="19.58"/>
    </clipPath>
    <clipPath id="clippath-86">
      <rect class="cls-2" width="33.56" height="19.58"/>
    </clipPath>
    <clipPath id="clippath-87">
      <rect class="cls-2" width="33.56" height="19.58"/>
    </clipPath>
    <clipPath id="clippath-88">
      <rect class="cls-2" width="33.56" height="19.58"/>
    </clipPath>
    <clipPath id="clippath-89">
      <rect class="cls-2" width="33.56" height="19.58"/>
    </clipPath>
  </defs>
  <g id="Layer_1-2" data-name="Layer 1">
    <g id="NICARAGUA">
      <g>
        <g class="cls-1">
          <rect class="cls-11" y="13.05" width="33.56" height="6.52"/>
        </g>
        <g class="cls-17">
          <rect class="cls-11" width="33.56" height="6.53"/>
        </g>
        <g class="cls-20">
          <rect class="cls-15" y="6.53" width="33.56" height="6.53"/>
        </g>
        <g class="cls-19">
          <polygon class="cls-16" points="14.81 10.93 16.78 7.52 18.75 10.93 14.81 10.93"/>
        </g>
        <g class="cls-18">
          <polygon class="cls-14" points="15.01 10.81 16.78 7.74 18.55 10.81 15.01 10.81"/>
        </g>
        <g class="cls-24">
          <g>
            <g class="cls-23">
              <path class="cls-14" d="m15.36,10.53s-.05,0-.07,0h-.05s0-.05,0-.05l.06.02c.05,0,.1.01.16.01-.03.02-.06.03-.1.03h0Z"/>
            </g>
            <g class="cls-21">
              <path class="cls-14" d="m15.19,10.75l-.04-.02s.04-.03.06-.06c.04-.01.07,0,.1,0,.02,0,.04,0,.06.01.04.02.09.02.12,0h.05s-.04.03-.04.03c-.04.02-.1.03-.15,0-.02,0-.04,0-.06,0-.02,0-.04-.01-.07,0-.02.02-.03.04-.04.06h0Z"/>
            </g>
            <g class="cls-22">
              <path class="cls-14" d="m15.54,10.78c-.05,0-.09,0-.14,0l-.05-.02v.02s-.05,0-.06,0h0s0-.01,0-.01c.03-.01.05-.01.06-.02h.05c.06,0,.11,0,.14.04h0Z"/>
            </g>
            <g class="cls-25">
              <path class="cls-14" d="m16.03,10.51c-.07,0-.09-.02-.11-.09-.02,0-.07,0-.11.01h-.05s-.01-.03-.01-.03h.06s.1-.02.14,0c.02.08.04.08.09.09,0-.01.03-.02.05-.04h.04s-.07.05-.08.06c0,0-.01,0-.02,0h0Z"/>
            </g>
            <g class="cls-103">
              <path class="cls-14" d="m15.92,10.7l-.04-.02s.04-.03.07-.06c.05-.04.08-.06.16-.04.06.05.08.06.13.07.03,0,.05,0,.07,0,.02,0,.03,0,.05,0-.02.04-.03.04-.05.04-.02,0-.05,0-.08,0-.06,0-.08-.02-.12-.05-.08-.03-.1-.01-.14.01-.03.03-.04.05-.05.06h0Z"/>
            </g>
            <g class="cls-98">
              <path class="cls-14" d="m16.27,10.81c-.05,0-.09-.02-.13-.03l-.04-.02s-.03.02-.04.03v-.02s0,0,0,0c0,0,.02-.02.04-.03l.06.02s.07.03.11.03c.02,0,.03,0,.04,0,.02,0,.04-.01.06-.01-.02.03-.04.04-.05.04-.02,0-.03,0-.05,0h0Z"/>
            </g>
            <g class="cls-97">
              <path class="cls-14" d="m16.7,10.45c-.05-.02-.1-.02-.15-.02h-.06v-.03s.05,0,.05,0c.07,0,.12,0,.17.02h.16s-.17.03-.17.03h0Z"/>
            </g>
            <g class="cls-96">
              <path class="cls-14" d="m16.77,10.65c-.06,0-.09-.02-.12-.05l-.04-.02s-.09-.04-.13-.05c-.02.02-.04.02-.05.03v-.02s0,0,0,0c0,0,.01-.02.04-.03.06,0,.12.02.16.05l.03.02s.05.04.1.04c.04-.02.06-.03.08-.03l-.03.05s-.03.02-.05.02h0Z"/>
            </g>
            <g class="cls-99">
              <path class="cls-14" d="m16.85,10.74s-.09,0-.12-.02c-.04-.03-.1,0-.12.01l-.02-.03s.1-.05.15-.02c.04.02.1.02.15.02.02,0,.04-.02.06-.02.03-.01.06-.02.07-.04h0s.04,0,.04,0l-.04.03s-.04.03-.07.04c-.02,0-.04.02-.05.02-.02,0-.04,0-.06,0h0Z"/>
            </g>
            <g class="cls-101">
              <path class="cls-14" d="m17.29,10.54c-.05-.02-.13-.02-.17-.02v-.02s0-.02,0-.02c.04,0,.12,0,.17.02.04,0,.06-.04.08-.07l.03-.03c.06,0,.1,0,.14.01-.05.02-.08.01-.12.01-.04.06-.07.09-.13.1h0Z"/>
            </g>
            <g class="cls-100">
              <path class="cls-14" d="m17.33,10.72v-.03s.04-.01.08-.02c.04-.04.06-.02.09,0,.01,0,.02.02.04.02.05-.02.08-.06.1-.11,0,.07-.03.12-.1.14-.03,0-.05-.02-.06-.03-.02-.02-.03-.02-.05,0-.04,0-.09.02-.09.02h0Z"/>
            </g>
            <g class="cls-104">
              <path class="cls-14" d="m17.47,10.59v-.02s0,0,0,0c0-.01.01-.02.04-.05l.03-.03s.04-.04.08-.04c.03-.04.07,0,.09.01-.05,0-.06,0-.07.02-.05,0-.06.02-.08.04,0,.01-.02.02-.03.03-.02.02-.04.03-.05.04h0Z"/>
            </g>
            <g class="cls-102">
              <path class="cls-14" d="m17.72,10.73h-.03s.02-.1.04-.12c.04-.03.06-.04.09-.03.02,0,.04.03.06.06.01,0,.03.01.05.03.02.01.04.02.07.03-.04.02-.06,0-.08,0-.02-.01-.04-.02-.06-.03-.02-.04-.04-.05-.05-.06-.01,0-.03,0-.06.02,0,.02-.02.1-.03.11h0Z"/>
            </g>
            <g class="cls-28">
              <path class="cls-14" d="m18.02,10.54c-.04-.07-.06-.11-.1-.12,0,.03-.01.06-.02.07l-.04-.02s.03-.04.05-.08c.07,0,.09.05.12.1.05,0,.08,0,.11-.02-.01.06-.06.06-.12.06h0Z"/>
            </g>
            <g class="cls-29">
              <path class="cls-14" d="m18.39,10.7c-.05,0-.07-.02-.08-.04-.02-.01-.03-.03-.05-.04-.02-.02-.04,0-.07.06h-.03c.02-.05.04-.1.08-.1l.04.02s.04.02.06.04c.01.01.03.03.05.04,0-.02,0-.03.04-.04-.02.04-.02.04-.03.06h0Z"/>
            </g>
            <g class="cls-32">
              <path class="cls-14" d="m17.13,10.75v-.02s0,0,0,0c0-.01.01-.02.04-.03.05-.04.07-.06.1-.11.04,0,.06,0,.08,0,.03,0,.05,0,.08,0-.03.03-.06.03-.09.02-.02,0-.04,0-.06,0-.02.05-.04.07-.09.11-.04.02-.06.03-.07.04h0Z"/>
            </g>
            <g class="cls-31">
              <path class="cls-14" d="m15.61,10.54h-.03s.02-.04.08-.07c.02-.02.05-.02.07,0l.04.04s-.03,0-.05,0h0s-.04,0-.04,0c-.05.03-.06.04-.06.04h0Z"/>
            </g>
            <g class="cls-30">
              <path class="cls-14" d="m15.8,10.71s-.03,0-.04-.01c-.01,0-.03-.02-.05-.02-.01.01-.03.02-.04.03v-.03s0,0,0,0c0,0,.01-.02.04-.03.04,0,.05.01.07.02.02.01.03.02.06.02-.02.01-.03.01-.04.01h0Z"/>
            </g>
            <g class="cls-33">
              <polygon class="cls-15" points="16.79 10.12 16.77 7.77 16.79 7.77 16.79 10.12"/>
            </g>
            <g class="cls-56">
              <polygon class="cls-15" points="15.93 9.22 15.93 9.21 17.63 9.21 15.93 9.22"/>
            </g>
            <g class="cls-54">
              <polygon class="cls-15" points="18.05 9.94 16.15 8.87 16.16 8.85 18.05 9.94"/>
            </g>
            <g class="cls-55">
              <polygon class="cls-15" points="15.51 9.96 17.42 8.85 17.43 8.86 15.51 9.96"/>
            </g>
            <g class="cls-57">
              <polygon class="cls-15" points="16.41 9.89 16.39 9.88 17.11 8.64 16.41 9.89"/>
            </g>
            <g class="cls-65">
              <polygon class="cls-15" points="17.23 9.99 16.42 8.61 16.44 8.6 17.23 9.99"/>
            </g>
            <g class="cls-67">
              <path class="cls-14" d="m17.04,9.22c0,.14-.12.26-.26.26s-.26-.12-.26-.26.12-.26.26-.26.26.12.26.26h0Z"/>
            </g>
            <g class="cls-64">
              <path class="cls-5" d="m18.23,10.26h-.88s0,.14.06.15c.06,0,.79,0,.81.05.03.06-.71.09-.71.09,0,0,.65,0,.68.04.04.05-.36.06-.33.07.03,0,.46,0,.5.04.04.05-.19.08-.19.08,0,0,.35.04.36.03-.09-.15-.32-.55-.32-.55h0Z"/>
            </g>
            <g class="cls-63">
              <path class="cls-12" d="m16.65,9.04s.07.03.06.09c0,.04-.06.1-.08.14-.02.04.1.19.22.11.11-.08.1-.23.06-.25-.09-.06-.15-.15-.26-.09h0Z"/>
            </g>
            <g class="cls-58">
              <path class="cls-3" d="m16.82,9.38s-.04-.05-.07-.07c-.03-.02-.07-.03-.09-.02,0,0,0,.01,0,.02,0,0,0,0,0,0,0,0,0-.03,0-.03.02-.02.07,0,.1.02.02.01.08.06.07.08h0Z"/>
            </g>
            <g class="cls-59">
              <path class="cls-8" d="m16.03,9.58c.1-.02.13.1.17.12.03.02.12.03.15.04.02.01.11.07.11.07,0,0,.04-.11.09-.12.05-.01.25.13.25.13,0,0,.02-.13.07-.11.05.02.32.22.32.22,0,0,.01-.07.07-.09.06-.02.25.1.25.1,0,0,.02-.1.06-.1.12,0,.49.41.58.42.04,0-.14.06-.14.06,0,0,.03.02.01.05-.02.02-.54,0-.54,0,0,0,.01.04,0,.05-.01.02-2.27.04-2.27.04.21-.36.63-.83.81-.88h0Z"/>
            </g>
            <g class="cls-60">
              <path class="cls-7" d="m16.92,10.43c.08-.02.02-.24-.41-.57.68.47.25.54.95.56-.12,0-.54.01-.54.01h0Z"/>
            </g>
            <g class="cls-61">
              <path class="cls-7" d="m16.81,9.85s.65.5.68.52c.03,0,.14,0,.14,0,0,0-.09,0-.81-.53h0Z"/>
            </g>
            <g class="cls-66">
              <path class="cls-7" d="m17.19,9.94s.54.43.46.43c-.09,0,.3,0,.37,0-.35-.02-.28-.03-.82-.42h0Z"/>
            </g>
            <g class="cls-62">
              <path class="cls-7" d="m17.52,9.96l.48.36s.08-.02.11-.04c-.14.02-.17-.04-.6-.32h0Z"/>
            </g>
            <g class="cls-36">
              <path class="cls-9" d="m16.11,9.62s.05.07.07.09c.02.01.24.12.37.24.12.13.31.29.24.31-.07.02-.13-.05-.13-.05,0,0,.09.15-.03.16-.12.01-.42-.45-.42-.45,0,0,.14.41-.04.4-.19-.02-.17-.31-.17-.31,0,0-.05.14-.09.14-.04,0,0-.18,0-.18,0,0-.21.36-.29.32-.08-.04.33-.69.49-.66h0Z"/>
            </g>
            <g class="cls-38">
              <path class="cls-9" d="m16.55,9.75s.03-.02.09.01c.07.03.6.45.59.49-.01.04-.65-.3-.68-.5h0Z"/>
            </g>
            <g class="cls-37">
              <path class="cls-9" d="m16.95,9.81s.42.46.53.43c.11-.03-.5-.43-.53-.43h0Z"/>
            </g>
            <g class="cls-40">
              <path class="cls-9" d="m17.27,9.86c-.05,0,.45.45.56.43.11-.02-.48-.42-.56-.43h0Z"/>
            </g>
            <g class="cls-34">
              <path class="cls-9" d="m17.57,9.88c-.06.01.38.34.43.34.06,0-.3-.36-.43-.34h0Z"/>
            </g>
            <g class="cls-35">
              <path class="cls-13" d="m16.08,8.96s.27-.31.7-.31.7.31.7.31l-.11-.19s-.22-.22-.59-.22-.59.21-.59.21l-.11.19Z"/>
            </g>
            <g class="cls-41">
              <path class="cls-12" d="m17.31,8.65s-.19-.16-.53-.16-.53.16-.53.16l-.09.15s.21-.23.62-.23.62.23.62.23l-.09-.15Z"/>
            </g>
            <g class="cls-39">
              <path class="cls-4" d="m17.24,8.52s-.17-.13-.46-.13-.44.12-.44.12l-.09.16s.17-.17.54-.17.54.17.54.17l-.08-.15Z"/>
            </g>
            <g class="cls-42">
              <path class="cls-9" d="m17.16,8.4l.08.14s-.17-.13-.47-.13-.47.13-.47.13l.08-.14s.12-.09.38-.09c.27,0,.38.08.38.08h0Z"/>
            </g>
            <g class="cls-43">
              <path class="cls-6" d="m17.1,8.3l.07.12s-.17-.08-.39-.08-.4.11-.4.11l.07-.12s.12-.07.34-.07.32.05.32.05h0Z"/>
            </g>
            <g class="cls-70">
              <path class="cls-10" d="m17.07,8.24l.05.1s-.1-.07-.34-.07-.34.07-.34.07l.06-.1s.1-.04.29-.04.29.04.29.04h0Z"/>
            </g>
            <g class="cls-71">
              <path class="cls-15" d="m16.35,10.48h.88s-.15.03-.15.04c0,.02.32.02.32.02,0,0-.19.01-.19.03,0,.02.09.03.09.03,0,0-.17.02-.17.04,0,.02.22.03.21.03-.02,0-.29,0-.29.03s.2.07.2.07l-1.16.02s.18-.03.18-.06c0-.04-.13-.05-.13-.05,0,0,.47,0,.49-.01.02-.02-.1-.04-.1-.04,0,0,.19.01.2-.01.01-.02-.25-.06-.25-.06,0,0,.15,0,.18-.02.02-.02-.29-.05-.29-.05h0Z"/>
            </g>
            <g class="cls-72">
              <path class="cls-5" d="m16.18,10.51s-.87.03-.95.08c-.07.05.49.1.49.1,0,0-.58,0-.62.06-.04.05.35.05.35.05l-.44.03.21-.36.97.05Z"/>
            </g>
            <g class="cls-68">
              <path class="cls-4" d="m14.24,10.56s0,.06-.04.07c-.03,0-.06,0-.07-.04,0-.03,0-.07.04-.07.03,0,.06,0,.07.04h0Z"/>
            </g>
            <g class="cls-69">
              <path class="cls-2" d="m14.24,10.56s0,.06-.04.07c-.03,0-.06,0-.07-.04,0-.03,0-.07.04-.07.03,0,.06,0,.07.04Z"/>
            </g>
            <g class="cls-73">
              <path class="cls-4" d="m14.33,11.12s-.06.05-.04.1h-.02s-.09-.19-.09-.19h.02s.03.03.05.02c.01,0,.02-.01.03-.02l.06-.05-.07-.15h-.04s-.04,0-.05.02c-.03.01-.03.04-.02.07h-.02s-.07-.14-.07-.14h.02s.07.04.13.03l.34-.03.06.07-.29.27Zm.18-.3l-.21.02.06.12.15-.14Z"/>
            </g>
            <g class="cls-74">
              <path class="cls-4" d="m14.64,11.61s-.03.05,0,.08h-.02s-.13-.17-.13-.17h.02s.05.03.08,0l.26-.19h0l-.41.13v-.02s.22-.35.22-.35h0l-.2.15c-.08.06-.09.07-.06.12h-.02s-.09-.12-.09-.12h.02s.05.03.13-.03l.19-.14s.04-.05.01-.08h.02s.11.14.11.14l-.17.25.29-.09.11.15h-.02s-.04-.03-.08,0l-.24.18Z"/>
            </g>
            <g class="cls-75">
              <path class="cls-4" d="m14.72,11.78s.05.03.08,0l.2-.23s.03-.05,0-.08v-.02s.29.25.29.25l-.05.11h-.02c0-.08-.01-.15-.07-.2-.04-.04-.05-.02-.08.01l-.08.09h0s.07.06.13.03l.02.02-.12.14-.02-.02c.03-.06.02-.09-.03-.13h-.01s-.09.09-.09.09c-.02.03-.04.05,0,.08.06.05.14.07.21.06v.02s-.1.06-.1.06l-.28-.25v-.02Z"/>
            </g>
            <g class="cls-76">
              <path class="cls-4" d="m15.43,12.22c0,.05,0,.09.04.12v.02s-.14-.08-.14-.08c0-.02,0-.04,0-.06v-.09c.02-.09,0-.11-.02-.12l-.07.12s-.02.06.02.08v.02s-.2-.12-.2-.12v-.02s.07.02.09-.01l.16-.26s.02-.06-.02-.08v-.02s.24.14.24.14c.08.05.1.12.06.18-.04.06-.1.05-.16.03,0,.02,0,.04,0,.07v.08Zm-.09-.23c.09.06.13.04.17-.01.03-.05.01-.09-.04-.13-.03-.02-.04,0-.06.02l-.07.12h.01Z"/>
            </g>
            <g class="cls-84">
              <path class="cls-4" d="m15.69,12.04s.01-.06-.03-.08v-.02s.21.1.21.1v.02s-.07-.01-.09.03l-.12.27s0,.06.03.08v.02s-.21-.1-.21-.1v-.02c.05.02.07.01.09-.03l.12-.28Z"/>
            </g>
            <g class="cls-26">
              <path class="cls-4" d="m16.19,12.28h-.03c0-.07-.04-.14-.1-.16-.09-.03-.15.08-.17.15-.05.15,0,.23.07.25.06.02.11-.01.15-.04v.02c-.05.06-.12.09-.21.06-.12-.04-.17-.16-.13-.28.04-.12.16-.22.28-.18.02,0,.04.02.05.03.01,0,.02.02.04.02.02,0,.04,0,.05,0h0s0,.14,0,.14Z"/>
            </g>
            <g class="cls-78">
              <path class="cls-4" d="m16.5,12.56s0,.08.07.09v.02s-.22-.04-.22-.04v-.02s.05,0,.06-.02c0-.01,0-.02,0-.04v-.07s-.17-.02-.17-.02l-.02.04s-.02.03-.02.05c0,.03.02.05.05.06v.02s-.17-.03-.17-.03v-.02c.06,0,.08-.04.11-.08l.17-.3h.1s.05.38.05.38Zm-.15-.32l-.1.19.14.02-.03-.21Z"/>
            </g>
            <g class="cls-80">
              <path class="cls-4" d="m17.14,12.32h-.03s-.09-.11-.16-.11c-.09,0-.11.13-.1.2.01.15.09.21.16.21.06,0,.1-.05.13-.1h.02c-.04.09-.09.14-.18.15-.12,0-.22-.09-.23-.21,0-.13.07-.26.2-.27.02,0,.04,0,.06,0,.02,0,.03,0,.04,0,.02,0,.03,0,.04-.02h0s.04.13.04.13Z"/>
            </g>
            <g class="cls-86">
              <path class="cls-4" d="m17.23,12.62s.06-.03.04-.07l-.07-.3s-.03-.05-.07-.04v-.02s.36-.09.36-.09l.06.1h-.02c-.05-.03-.13-.06-.2-.05-.05.01-.05.03-.04.08l.03.12h.01c.06-.02.09-.03.09-.1h.02s.04.17.04.17h-.02c-.03-.05-.07-.06-.13-.04h-.01s.03.13.03.13c0,.03.02.06.06.05.07-.02.13-.07.17-.14h.02s-.02.13-.02.13l-.37.09v-.02Z"/>
            </g>
            <g class="cls-79">
              <path class="cls-4" d="m18.01,12.24l-.08-.19s-.04-.07-.1-.05v-.02s.14-.07.14-.07v.02s-.04.06-.01.11l.14.32-.05.02-.37-.23.1.22c.03.06.04.07.1.06v.02s-.15.07-.15.07v-.02s.04-.05.02-.11l-.11-.27s-.05-.02-.08,0v-.02s.13-.06.13-.06l.33.2Z"/>
            </g>
            <g class="cls-85">
              <path class="cls-4" d="m18.3,11.68l.1.09v.02c-.07-.02-.14-.04-.19,0l.2.29s.04.04.08.01v.02s-.17.13-.17.13v-.02s.03-.04,0-.08l-.2-.29s-.06.11-.06.17h-.02s-.05-.11-.05-.11l.31-.21Z"/>
            </g>
            <g class="cls-87">
              <path class="cls-4" d="m18.83,11.65s.09.03.13,0h.01s-.11.12-.11.12c-.02,0-.04-.01-.06-.02l-.08-.03c-.08-.03-.1-.02-.12,0l.1.1s.05.03.08,0v.02s-.14.16-.14.16h-.01s.03-.07,0-.1l-.21-.22s-.05-.03-.08,0h-.01s.19-.2.19-.2c.07-.06.14-.07.19-.02.05.05.03.12,0,.17.02,0,.05,0,.07.01l.07.02Zm-.24.04c.07-.07.07-.12.02-.17-.04-.05-.09-.04-.13.01-.03.03-.02.04,0,.07l.1.1h0Z"/>
            </g>
            <g class="cls-82">
              <path class="cls-4" d="m19.15,11.24s.07.03.11-.02h.02s-.13.19-.13.19h-.02s.02-.06,0-.07c0,0-.02-.01-.03-.01l-.07-.02-.09.13.02.04s.02.03.04.04c.02.02.05,0,.07-.02h.02s-.1.15-.1.15h-.02c.02-.07,0-.1-.03-.14l-.19-.29.03-.09.37.12Zm-.35,0l.12.18.08-.11-.2-.07Z"/>
            </g>
            <g class="cls-81">
              <path class="cls-4" d="m19.26,11.2s.01-.06-.02-.08l-.27-.13s-.06-.01-.08.03h-.02s.1-.21.1-.21h.02s-.01.07.02.09l.27.13s.05.02.07-.02c.03-.07.02-.15-.01-.22h.01s.1.08.1.08l-.17.34h-.02Z"/>
            </g>
            <g class="cls-27">
              <path class="cls-4" d="m19.31,10.56s.04-.05.07-.04c.03,0,.05.04.04.07,0,.03-.04.05-.07.04-.03,0-.05-.04-.04-.07h0Z"/>
            </g>
            <g class="cls-88">
              <path class="cls-4" d="m14.24,10s.07-.06.07-.11h.02s.02.15.02.15c-.01.01-.03.02-.05.03l-.07.05c-.07.05-.08.08-.07.1l.14-.02s.05-.02.05-.07h.02s.03.22.03.22h-.02s-.02-.06-.07-.05l-.3.05s-.05.02-.05.07h-.02s-.04-.26-.04-.26c-.01-.09.03-.16.09-.17.07-.01.11.04.13.1.01-.02.03-.04.05-.05l.06-.04Zm-.11.22c-.02-.1-.05-.13-.12-.12-.06,0-.08.05-.07.11,0,.04.02.04.06.04l.13-.02h0Z"/>
            </g>
            <g class="cls-92">
              <path class="cls-4" d="m14.32,9.86s-.01-.06-.06-.06h-.3s-.06,0-.06.05h-.02s.01-.38.01-.38l.12-.04v.02s-.1.1-.1.17c0,.06.02.06.06.06h.12s0,0,0,0c0-.06,0-.09-.07-.11v-.02h.18v.03c-.06.01-.08.05-.08.11h0s.13.02.13.02c.04,0,.06,0,.06-.05,0-.08-.04-.15-.09-.2v-.02s.12.05.12.05v.38h-.04Z"/>
            </g>
            <g class="cls-90">
              <path class="cls-4" d="m14.19,9.21l.13.03s.06,0,.07-.05h.02s-.05.23-.05.23h-.02s0-.07-.04-.08l-.29-.07s-.06,0-.07.05h-.02s.05-.23.05-.23c.03-.14.1-.18.16-.16.11.02.1.14.08.22v.05Zm-.02,0v-.04c.03-.07,0-.12-.07-.13-.07-.01-.1.02-.12.07-.01.05,0,.05.05.06l.13.03Z"/>
            </g>
            <g class="cls-83">
              <path class="cls-4" d="m14.35,8.83c.1.04.15.02.17-.04.03-.09,0-.13-.09-.17l-.2-.08s-.06,0-.08.04h-.02s.06-.15.06-.15h.02c-.02.05,0,.07.03.09l.21.09c.1.04.14.11.09.22-.05.12-.12.15-.21.12l-.22-.09s-.06,0-.08.04h-.02s.08-.22.08-.22h.02s0,.07.03.09l.2.08Z"/>
            </g>
            <g class="cls-94">
              <path class="cls-4" d="m14.6,8.62h-.02s.02-.07-.02-.1l-.25-.16s-.06-.02-.08.02h-.02s.12-.2.12-.2c.09-.14.15-.14.19-.11.05.04.04.11.02.16h0c.05-.05.11-.1.18-.05.06.04.07.11,0,.21l-.14.23Zm-.11-.31c.04-.07.04-.11-.02-.15-.06-.04-.09-.01-.12.04,0,.01-.02.03-.01.04,0,.01.02.02.02.02l.11.07.02-.03Zm.12.12s.07.04.1-.01c.04-.05.03-.1-.03-.15-.05-.03-.09-.04-.15.06l-.02.03.11.07Z"/>
            </g>
            <g class="cls-89">
              <path class="cls-4" d="m14.83,8.22s.03-.05,0-.08l-.22-.2s-.05-.03-.08,0h-.01s.15-.18.15-.18h.01s-.03.07,0,.1l.22.2s.04.04.07,0c.05-.06.06-.14.05-.21h.02s.06.11.06.11l-.25.28h-.01Z"/>
            </g>
            <g class="cls-95">
              <path class="cls-4" d="m14.94,7.59s-.05-.03-.08,0v-.02s.16-.14.16-.14v.02s-.02.05,0,.09l.19.23s.05.03.08,0h.01s-.17.16-.17.16v-.02s.02-.05,0-.08l-.19-.23Z"/>
            </g>
            <g class="cls-93">
              <path class="cls-4" d="m15.47,7.28l-.02.02c-.06-.04-.13-.06-.2-.03-.08.05-.03.16,0,.23.08.13.18.14.24.1.05-.03.06-.09.06-.15h.02c0,.09-.02.16-.1.21-.1.07-.23.02-.3-.08-.07-.11-.07-.26.05-.33.02-.01.04-.02.05-.02.01,0,.03,0,.04-.01.01-.01.02-.02.03-.04h0s.11.09.11.09Z"/>
            </g>
            <g class="cls-91">
              <path class="cls-4" d="m15.98,7.31s.05.06.1.04v.02s-.19.08-.19.08v-.02s.03-.03.03-.04c0-.01-.01-.02-.02-.03l-.05-.06-.15.06v.04s0,.04.01.05c.01.03.04.03.07.02v.02s-.15.06-.15.06v-.02s.04-.07.04-.12v-.35s.06-.06.06-.06l.25.31Zm-.29-.2v.21s.13-.05.13-.05l-.13-.16Z"/>
            </g>
            <g class="cls-77">
              <path class="cls-4" d="m16.27,7.31s.06-.02.05-.07l-.03-.3s-.02-.06-.07-.05v-.02s.21-.02.21-.02c.04,0,.07,0,.11,0,.08.02.15.09.16.2.01.1-.04.19-.11.22-.03.02-.07.02-.11.03l-.21.02v-.02Zm.15-.08s0,.06.06.05c.08,0,.13-.06.11-.23-.02-.15-.08-.19-.16-.18-.05,0-.04.02-.04.06l.03.29Z"/>
            </g>
            <g class="cls-50">
              <path class="cls-4" d="m16.74,7.26s.06,0,.06-.05l.02-.3s-.01-.06-.06-.06v-.02s.37.02.37.02l.03.12h-.02s-.1-.1-.17-.11c-.05,0-.05.02-.06.06v.12s0,0,0,0c.06,0,.09,0,.12-.07h.02s-.01.18-.01.18h-.02c-.01-.07-.04-.08-.1-.09h-.01s0,.13,0,.13c0,.04,0,.06.04.06.08,0,.15-.03.2-.09h.02s-.05.12-.05.12l-.38-.03v-.02h0Z"/>
            </g>
            <g class="cls-47">
              <path class="cls-4" d="m17.73,7.33l.07-.2c.02-.05.02-.08-.04-.1v-.02s.16.05.16.05v.02c-.07,0-.08.01-.1.07l-.11.33-.05-.02-.12-.42-.08.23c-.02.06-.02.08.04.11v.02s-.17-.06-.17-.06v-.02c.07,0,.08,0,.1-.06l.09-.28s-.03-.05-.06-.06v-.02s.16.05.16.05l.11.37Z"/>
            </g>
            <g class="cls-52">
              <path class="cls-4" d="m17.99,7.18s.01-.06-.03-.08v-.02s.21.1.21.1v.02s-.07-.02-.09.02l-.13.27s-.01.06.03.08v.02s-.21-.1-.21-.1v-.02s.07.01.09-.02l.14-.27Z"/>
            </g>
            <g class="cls-48">
              <path class="cls-4" d="m18.49,7.55h-.03c.01-.07,0-.16-.05-.2-.08-.05-.16.04-.2.1-.08.12-.06.22,0,.26.05.04.11.02.16,0v.02c-.07.04-.15.05-.22,0-.1-.07-.12-.21-.05-.3.07-.11.21-.16.32-.09.02.01.03.03.04.04.01.01.02.02.03.03.01,0,.03.01.05.01h0l-.05.14Z"/>
            </g>
            <g class="cls-44">
              <path class="cls-4" d="m18.67,8.03s-.04.07,0,.11l-.02.02-.15-.15v-.02s.06.03.07.01c0,0,.02-.02.02-.03l.04-.07-.11-.11-.04.02s-.03.02-.05.03c-.02.02-.01.05,0,.07h-.01s-.12-.1-.12-.1h.01c.05.01.08,0,.13-.02l.31-.15.09.04-.18.35Zm.06-.35l-.19.09.1.1.09-.19Z"/>
            </g>
            <g class="cls-49">
              <path class="cls-4" d="m18.96,8.43s-.04.08-.02.13h-.02s-.09-.12-.09-.12c0-.02.02-.03.03-.05l.04-.07c.05-.08.04-.1.02-.12l-.12.08s-.04.05-.01.08h-.02s-.13-.17-.13-.17h.02s.04.03.08,0l.25-.17s.04-.05.01-.08h.02s.15.21.15.21c.05.08.04.15-.01.19-.06.04-.12,0-.16-.04,0,.02-.01.04-.02.06l-.04.07Zm0-.24c.06.09.1.09.16.05.05-.03.05-.08.01-.13-.02-.03-.04-.02-.07,0l-.11.07h0Z"/>
            </g>
            <g class="cls-46">
              <path class="cls-4" d="m19.19,8.94s-.06.05-.04.1h-.02s-.08-.19-.08-.19h.02s.02.03.04.03c.01,0,.02-.01.03-.02l.06-.05-.06-.15h-.04s-.04,0-.05.01c-.03.01-.03.04-.02.07h-.02s-.06-.15-.06-.15h.02s.07.04.12.04h.35s.06.06.06.06l-.3.25Zm.19-.29h-.21s.05.13.05.13l.16-.13Z"/>
            </g>
            <g class="cls-51">
              <path class="cls-4" d="m19.53,9.38v-.02c.05-.07.08-.12.07-.17-.01-.06-.08-.11-.24-.08-.15.03-.2.09-.19.16.01.07.06.07.12.06.05-.01.05-.02.04-.07h.02s.04.2.04.2h-.02s-.03-.05-.08-.04l-.09.02s-.01-.05-.03-.08c-.02-.03-.03-.06-.04-.09-.03-.13.05-.24.18-.26.13-.02.27.04.29.17,0,.02,0,.04,0,.05,0,.01,0,.03,0,.04,0,.01.02.04.03.05l-.12.06Z"/>
            </g>
            <g class="cls-45">
              <path class="cls-4" d="m19.37,9.62c-.11,0-.14.04-.14.1,0,.09.06.12.15.12h.22s.06-.02.05-.07h.02v.16s-.02,0-.02,0c0-.05-.01-.06-.06-.06h-.23c-.11,0-.17-.04-.17-.16,0-.13.05-.19.15-.19h.24s.05-.02.05-.07h.02v.23s-.01,0-.01,0c0-.05-.02-.06-.06-.06h-.22Z"/>
            </g>
            <g class="cls-53">
              <path class="cls-4" d="m19.25,10.33s-.08,0-.09.06h-.02s.03-.22.03-.22h.02s0,.05.02.06c.01,0,.03,0,.04,0h.07s.03-.17.03-.17l-.04-.02s-.03-.02-.05-.02c-.03,0-.05.02-.06.05h-.02s.03-.17.03-.17h.02c0,.06.04.08.08.11l.3.18v.09s-.37.06-.37.06Zm.31-.15l-.19-.1-.02.14.21-.03Z"/>
            </g>
          </g>
        </g>
      </g>
    </g>
  </g>
</svg>