<?xml version="1.0" encoding="UTF-8"?>
<svg id="Layer_2" data-name="Layer 2" xmlns="http://www.w3.org/2000/svg" xmlns:xlink="http://www.w3.org/1999/xlink" viewBox="0 0 33.56 19.58">
  <defs>
    <style>
      .cls-1 {
        clip-path: url(#clippath);
      }

      .cls-2 {
        fill: none;
      }

      .cls-2, .cls-3, .cls-4, .cls-5 {
        stroke-width: 0px;
      }

      .cls-6 {
        clip-path: url(#clippath-1);
      }

      .cls-7 {
        clip-path: url(#clippath-4);
      }

      .cls-8 {
        clip-path: url(#clippath-3);
      }

      .cls-9 {
        clip-path: url(#clippath-2);
      }

      .cls-10 {
        clip-path: url(#clippath-7);
      }

      .cls-11 {
        clip-path: url(#clippath-8);
      }

      .cls-12 {
        clip-path: url(#clippath-6);
      }

      .cls-13 {
        clip-path: url(#clippath-5);
      }

      .cls-14 {
        clip-path: url(#clippath-9);
      }

      .cls-15 {
        clip-path: url(#clippath-13);
      }

      .cls-16 {
        clip-path: url(#clippath-12);
      }

      .cls-17 {
        clip-path: url(#clippath-10);
      }

      .cls-18 {
        clip-path: url(#clippath-11);
      }

      .cls-3 {
        fill: #1a237b;
      }

      .cls-4 {
        fill: #bd0034;
      }

      .cls-5 {
        fill: #fff;
      }
    </style>
    <clipPath id="clippath">
      <rect class="cls-2" width="33.56" height="19.58"/>
    </clipPath>
    <clipPath id="clippath-1">
      <rect class="cls-2" width="33.56" height="19.58"/>
    </clipPath>
    <clipPath id="clippath-2">
      <rect class="cls-2" width="33.56" height="19.58"/>
    </clipPath>
    <clipPath id="clippath-3">
      <rect class="cls-2" width="33.56" height="19.58"/>
    </clipPath>
    <clipPath id="clippath-4">
      <rect class="cls-2" width="33.56" height="19.58"/>
    </clipPath>
    <clipPath id="clippath-5">
      <rect class="cls-2" width="33.56" height="19.58"/>
    </clipPath>
    <clipPath id="clippath-6">
      <rect class="cls-2" width="33.56" height="19.58"/>
    </clipPath>
    <clipPath id="clippath-7">
      <rect class="cls-2" width="33.56" height="19.58"/>
    </clipPath>
    <clipPath id="clippath-8">
      <rect class="cls-2" width="33.56" height="19.58"/>
    </clipPath>
    <clipPath id="clippath-9">
      <rect class="cls-2" width="33.56" height="19.58"/>
    </clipPath>
    <clipPath id="clippath-10">
      <rect class="cls-2" width="33.56" height="19.58"/>
    </clipPath>
    <clipPath id="clippath-11">
      <rect class="cls-2" width="33.56" height="19.58"/>
    </clipPath>
    <clipPath id="clippath-12">
      <rect class="cls-2" width="33.56" height="19.58"/>
    </clipPath>
    <clipPath id="clippath-13">
      <rect class="cls-2" width="33.56" height="19.58"/>
    </clipPath>
  </defs>
  <g id="Layer_1-2" data-name="Layer 1">
    <g id="UNITED_KINGDOM" data-name="UNITED KINGDOM">
      <g>
        <g class="cls-1">
          <rect class="cls-5" width="33.56" height="19.58"/>
        </g>
        <g class="cls-6">
          <polygon class="cls-4" points="22.47 7.08 33.56 .87 33.56 0 32.8 0 20.15 7.08 22.47 7.08"/>
        </g>
        <g class="cls-9">
          <polygon class="cls-4" points="21.95 12.89 33.56 19.39 33.56 18.09 24.27 12.89 21.95 12.89"/>
        </g>
        <g class="cls-8">
          <polygon class="cls-4" points="0 1.49 9.93 7.08 12.26 7.08 0 .19 0 1.49"/>
        </g>
        <g class="cls-7">
          <polygon class="cls-4" points="11.73 12.89 0 19.46 0 19.58 2.12 19.58 14.05 12.89 11.73 12.89"/>
        </g>
        <g class="cls-13">
          <polygon class="cls-3" points="31.26 0 19.51 0 19.51 6.58 31.26 0"/>
        </g>
        <g class="cls-12">
          <polygon class="cls-3" points="14.33 0 2.62 0 14.33 6.58 14.33 0"/>
        </g>
        <g class="cls-10">
          <polygon class="cls-3" points="33.56 7.08 33.56 2.59 25.59 7.08 33.56 7.08"/>
        </g>
        <g class="cls-11">
          <polygon class="cls-3" points="33.56 17.33 33.56 12.89 25.59 12.89 33.56 17.33"/>
        </g>
        <g class="cls-14">
          <polygon class="cls-3" points="3.29 19.58 14.33 19.58 14.33 13.39 3.29 19.58"/>
        </g>
        <g class="cls-17">
          <polygon class="cls-3" points="19.51 19.58 30.59 19.58 19.51 13.39 19.51 19.58"/>
        </g>
        <g class="cls-18">
          <polygon class="cls-3" points="0 12.89 0 17.54 8.25 12.89 0 12.89"/>
        </g>
        <g class="cls-16">
          <polygon class="cls-3" points="0 7.08 8.25 7.08 0 2.43 0 7.08"/>
        </g>
        <g class="cls-15">
          <polygon class="cls-4" points="15.36 0 15.36 8.24 0 8.24 0 11.73 15.36 11.73 15.36 19.58 18.48 19.58 18.48 11.73 33.56 11.73 33.56 8.24 18.48 8.24 18.48 0 15.36 0"/>
        </g>
      </g>
    </g>
  </g>
</svg>