<?xml version="1.0" encoding="UTF-8"?>
<svg id="Livello_2" data-name="Livello 2" xmlns="http://www.w3.org/2000/svg" viewBox="0 0 304.41 340.41">
  <defs>
    <style>
      .cls-1 {
        fill: #112713;
      }

      .cls-1, .cls-2, .cls-3, .cls-4, .cls-5 {
        stroke-width: 0px;
      }

      .cls-2, .cls-3 {
        fill: #2d4500;
      }

      .cls-3, .cls-5 {
        fill-rule: evenodd;
      }

      .cls-4 {
        fill: #03a550;
      }

      .cls-5 {
        fill: #ff0;
      }
    </style>
  </defs>
  <g id="Layer_1" data-name="Layer 1">
    <g>
      <path class="cls-1" d="m0,0v112.7c0,88.42,32.78,143.66,60.28,174.43,32.72,36.61,70.59,53.28,91.92,53.28s59.2-16.67,91.92-53.28c27.5-30.77,60.28-86,60.28-174.43V0H0Z"/>
      <path class="cls-4" d="m152.21,330.2c35.5,0,142-60.5,142-217.5V10.2H10.21v102.5c0,157,106.5,217.5,142,217.5Z"/>
      <path class="cls-2" d="m280.53,26.97l-4.61-1.63c-2.72-1-5.06-1.86-8.84-1.8h-.19c-1.35-2.37-4.3-3.96-8.63-4.59-8.23-1.11-17.21,1.81-22.91,7.45-4.42,4.37-10.9,11.4-16.38,21.94-9.5,8.6-29.64,31.15-37.41,41.9l-.15.21-2.55,1.95c-12.17,15.15-53.29,61.6-77.96,89.12l-3.36,3.75.29-.05-30.2,33.9c-4.24,4.24-6.1,5.75-11.71,7.12-2.39.92-5.22,1.26-5.22,1.26,0,0,3.68,1.84,5.34,2.07,5.83,1.01,11.21-.35,15.83-2.04-2.98,5.64-3.76,11.67-2.4,18.4,0,1.61,2.06,4.48,2.06,4.48,0,0,.25-2.04,1.24-4.35,1.5-5.17,3.66-8.89,8.9-15.32,6.77-8.32,15.31-17.89,22.17-25.57,5.7-6.39,10.24-11.48,12.31-14.18l.03.12,2.04-2.41c9.69-11.45,14.04-15.82,24.81-19.88l3.67-.84c4.79.4,9.58.58,14.32.58l-4.88,9.14,4.8,18.47c-20.52,8.05-34.57,27.98-34.57,50.72,0,14.52,5.68,28.19,15.99,38.51,10.31,10.31,23.99,15.99,38.51,15.99s28.2-5.68,38.51-15.99c10.31-10.31,15.99-23.99,15.99-38.51,0-30.05-24.45-54.5-54.5-54.5l-2.27.05c-1.43-6.53-2.75-12.57-2.87-13.13.55-.9,6-9.88,7.42-12.24,15.19-2.11,29.02-6.38,39.8-12.52,23.73-13.52,37.35-33.35,42.87-62.4,2.6-13.68,3.12-28.26,3.12-41.68,0-3.11-.03-6.17-.07-9.13v-1.24c2.95-1.54,5.22-3.9,7.41-6.2,1.19-1.25,2.31-2.42,3.53-3.47l1.56-1.34,1.46-1.26-2.32-.82ZM115.52,179.58l-.33-.17c.14-.1.29-.2.44-.3-.04.15-.07.31-.11.47Zm55.72,13.64l-.32.06c-1.04.19-2.06.42-3.08.67-1.11-4.44-3.74-14.99-3.98-15.95.47-.82,4.06-7.13,5.51-9.68,1.78-.09,3.54-.21,5.29-.36l-6.69,10.17s1.57,7.29,3.25,15.09Z"/>
      <path class="cls-2" d="m154.09,98.44c0-2.08-.58-4.47-1.96-7.07l-1.76-3.32-1.34,3.51c-.31.82-.88,1.65-1.3,2.09-.23-.19-.48-.38-.48-.38-2.55-2.21-6.71-5.77-18.39-4.07.2-.4.44-.79.71-1.2.98-.08,3.33-.29,3.33-.29,6.38-.4,15.11-.95,16.74-11.2l.03-.16v-.17c-.1-2.82-1.47-5.41-3.86-7.27-1.13-.88-2.41-1.51-3.66-1.91,3.5.57,6.77,1.29,8.69,2.24l2.76,1.36-.32-3.06c-.63-6.05-3.6-6.6-6.42-6.34,0,0-.07,0-.1,0-.6-.37-2.49-1.55-2.49-1.55-3.89-2.54-8.73-5.68-14.27-5.25-1.35,0-2.03.72-2.32,1.15-.35.52-.48,1.1-.48,1.69,0,.49.11.98.23,1.44-.6,0-1.33-.06-2.22-.21-25.58-4.22-40.43-4.17-46.73.17-2.8,1.93-4.85,5.05-4.85,8.39,0,1.57.45,3.19,1.5,4.75,1.27,1.91,3.22,3.09,5.52,3.81-5.08-.12-10.21.09-17.54,1.9l-.13.03-.13.05c-1.73.74-3.44,1.14-4.82,1.36,2.13-4.07,5.91-11.45,7.18-15.88l.55-1.92-1.98-.24c-1.25-.15-2.83.38-4.48,1.11-.09-1.55-.36-3.16-.78-4.21l-.6-1.49-1.52.51c-1.67.56-2.9,1.38-3.92,2.21-.1-.88-.36-1.91-.97-3.1l-2.27-4.46s-.71,3.94-.86,4.74c-.16.33-1,1.39-1.5,2.03-.85,1.08-1.25,1.6-1.46,2.02-5.27,7.74-6.66,12.21-7.93,19.87l-.02.11v.11c-.02.36-.02.73-.02,1.09,0,1.78.2,3.64.5,5.58-2.95.92-5.32.05-7.03-2.69-1.74-2.78-.87-7.39-.17-11.1l.13-.67c.58-3.08,1.18-3.92,4.02-5.61,1.94-1.15,3.64-6.01,3.99-7.75l.82-4.09-3.45,2.35c-1.3.89-4.14,1.68-6.11,2.22-.7-1.91-2.28-5.11-7.03-5.2l-3.02-.05,1.51,2.61c.8,1.38.93,2.43,1.08,3.92-.42-.19-.93-.44-1.67-.86-.53-.3-1.62-.92-2.55.05l-.55.57.08.8c.32,3.09.6,4.53,1.13,6.21-.65-.81-1.34-1.67-1.34-1.67l-.72,3.56c-.18.89-.3,1.87-.3,2.9,0,2.14.54,4.51,2.12,6.75-.41-.12-.73-.25-.95-.39l-3.17-1.99.58,3.7c.5,3.14,3.52,6.72,6.3,7.94-.04.1-.08.19-.1.21-.09.09-.43.31-1.7.34l-2.76.07,1.3,2.43c2.23,4.18,7.23,6.69,13.37,6.71,2.35,0,4.91-.41,6.97-1.27-.34,2.25-1,3.91-1.97,4.65-.27.2-1.08.82-2.98.28-5.5-1.5-6.92-2.49-7.28-2.85l-.15-.15-.19-.11c-4.11-2.41-7.64-1.43-10.85-.02l-4.19,1.85,4.38,1.33c.45.14.78.3,1.07.46-.76.39-4.77,2.43-4.77,2.43l3.06,1.46s.93.48,1.82.94c-1.06.79-7.24,5.38-7.24,5.38l6.34-.75c2.94-.35,5.31-.81,7.22-1.19,1.52-.3,3.2-.62,3.9-.57,0,.03,0,.02,0,.05,0,.35-.07,1.06-.43,2.47l-.54,2.12h2.19c.07,0,5.14-.81,7.21-2.63.33-.05.66-.11.66-.11.36-.09,1.07-.26,1.39-.23.03.08.08.25.08.66v1.7h1.7c1.93,0,4.73-2.69,5.55-5,.26-.02.6,0,.97.21.93.53,1.12,1.75,1.12,2.68v2.58s2.37-1.01,2.37-1.01c3.28-1.4,5.46-4.37,6.14-8.36.15-.86.21-1.76.21-2.64,0-.99-.11-1.93-.27-2.83,4.53,1.03,11.54,1.42,17.75.02,6.75-1.52,10.65-3.85,14.1-5.9,3.27-1.95,6.09-3.63,10.78-4.21.59-.07,1.25-.07,1.89-.11-.57.2-1.1.44-1.58.71-1.71,1-2.29,2.25-2.46,3.12-.23.74-.41,1.55-.41,2.4,0,2.06.96,4.3,4.14,6.04,0,0,.89.39.89.39,2.45,1.02,3.71,1.71,4.34,2.17-1.87.13-6.05-2.67-7.57-3.69l-2.08-1.31c-2.12-1.06-9.22-2.66-11.83-1.87l-2.44.73,1.61,1.97c.81,1,1.71,1.83,2.5,2.56.11.1.23.21.35.32-2.34.42-4.91,1.07-6.88,2.24l-4.85,2.89,8.27.4c.32.01.69.02,1.05.04-1.03.75-1.92,1.52-2.68,2.31l-1.51,1.58,1.91,1.07c5.71,3.21,14.34-.86,16.55-2,9.6,1.85,15.93.16,18.87-1.06l.33-.14.25-.26c2.28-2.37,3.81-6.64,5.04-10.07,0,0,.15-.41.3-.82,9.14-2.25,14.42-2.99,15.68-2.18-.01.05-.02.1-.02.11-.87,1.63-1.35,3.15-1.35,4.44,0,.98.25,1.84.77,2.55.67.92,2.06,1.82,4.7,1.57.35.48.73,1,.73,1,1.09,1.56,2.44,3.51,4.22,5.19l4.53,4.01-1.74-5.76-.67-1.92c-.29-.78-.46-1.37-.57-1.95.84-.09,1.73-.38,2.56-.97,1.94-1.37,3.31-3.83,3.31-7.03Zm-55.48-35c-1.55,1.09-1.88,2.26-1.88,3.08,0,.02,0,.04,0,.06.02.99.51,1.8,1.16,2.48-4.99.48-8.25.29-13.2-.65-.65-.2-2.03-.72-2.12-1.72,0-.03,0-.06,0-.09,0-.75.7-1.81,2.07-2.49,3.46-1.16,7.55-1.72,12.51-1.7,8.25.04,17.17,1.16,25.79,2.24l10.52,1.25c1.82.19,3.88.43,5.95.71-.12,0-.25.02-.37.04-2.59-.5-5.37-.39-8.58-.25-3.58.16-7.64.35-12.36-.34-2.89-.42-4.88-.98-6.82-1.53-3.3-.93-6.14-1.73-11.79-1.4l-.48.03-.39.28Zm.77,12.53c8.73-.73,26.2-2.18,26.26-2.19.17,0,1.43-.03,1.43-.03,2.96-.09,9.12-.28,11.81,1.06,1.05.52,1.61.91,1.67,1.17,0,.02,0,.04,0,.07,0,.25-.21.82-.88,1.73-2.49,1.74-7.7,2.23-13.11,1.19-10.17-1.94-18.43-2.84-27.19-3Z"/>
      <path class="cls-3" d="m48.48,28.09h-10.08v-5.54h-18.91s0,29.86,0,29.86h60.64v-11.32c2.4,0,10.44-.02,12.85-.02v11.35h60.98v-29.86h-18.88v5.54h-10.26v-5.54h-18.91v5.54h-9.52v-5.54h-19.65v5.54h-9.16c0-1.63,0-5.54,0-5.54h-19.1s0,3.91,0,5.54Zm0,7.54v5.23h-1.22v-5.23h1.22Zm77.56.24v5.23h-1.22v-5.23h1.22Z"/>
      <path class="cls-5" d="m150.63,92.17c-.6,1.58-2.18,3.73-3.19,3.42-2.69-1.79-5.69-7.38-21.39-4.17.77-1.91,1.31-3.32,2.57-5.03,7.08-.99,17.62.79,19.36-10.13-.2-5.66-6.4-8.47-9.01-7.91-5.26-1.12-11.94.73-21.12-.61-7.94-1.16-9.65-3.42-18.26-2.91-4.1,2.88,4.15,5.23,2.12,5.5-7.29.97-11.05.95-17.44-.27-4.98-1.45-3.98-5.78-.3-7.54,3.95-1.35,8.44-1.84,13.19-1.82,11.77.06,24.72,2.26,36.48,3.5,7.49.79,14.51,1.83,17.98,3.53-.61-5.88-3.41-4.84-5.26-4.77-4.14-2.31-9.87-7.41-16.32-6.84-2.15.01-.55,3.21-.31,3.95-1.11.47-2.97.4-4.77.1-16.89-2.79-37.95-5.3-45.49-.11-2.88,1.98-5.87,6.35-2.9,10.8,2.76,4.14,9.94,4.26,15.72,3.99l33.26-2.77c2.24,0,10.43-.61,14.09,1.2,2.19,1.09,3.97,2.28,1.21,5.76-3.22,2.41-9.39,2.59-14.6,1.59-10.82-2.07-20.42-3.2-32.21-3.02-11.79.18-17.57-1.65-30.5,1.55-4.43,1.9-8.83,1.77-8.42,1.77,0-.2,6.76-12.31,8.49-18.32-1.55-.19-4.63,1.44-6.09,2.18.33-1.57.07-4.77-.56-6.34-3.12,1.04-4.58,3.15-6.18,4.38-.41-1.55.83-3-.76-6.12,0,.6-2.89,3.8-3.09,4.4-5.02,7.35-6.45,11.55-7.73,19.3-.08,2.41.13,4.96.67,7.74-5.19,2.36-8.56-.03-10.36-2.91-2.21-3.54-1.02-8.99-.27-12.98.66-3.52,1.54-4.82,4.83-6.76,1.09-.65,2.75-4.46,3.19-6.62-1.92,1.31-5.98,2.25-8.13,2.88-.65-1.29-1.03-5.47-6-5.56,1.37,2.36,1.15,4,1.54,6.6-1.01,1.14-5.07-1.68-4.92-1.44.49,4.71.83,5.31,2.32,9.47-1.73.63-1.72,1.08-3.28-.86-1.26,6.22,2.11,9.54,4.45,11.23-2.12.17-4.57.13-6.16-.87.53,3.37,4.43,6.97,6.42,6.97.12,2.7-1.05,3.43-3.56,3.49,4.26,7.99,18.71,6.57,20.81,2.7,0,4.6-1,11.91-7.39,10.11-2.2-.6-6.62-1.88-8.02-3.28-3.03-1.78-5.66-1.54-9.3.07,1.99.61,2.76,1.6,3.27,2.67-1.31.64-2.57,1.15-3.62,1.79l4.24,2.19-4.3,3.2c11.08-1.32,14.4-4.38,12.55,2.87.6,0,6.42-1.7,6.42-2.5,1.2,0,4.62-1.91,4.62,1.89,1.3,0,4.11-2.95,4.11-4.51,1.16-1.1,5.23-.68,5.23,4.11,7.09-3.03,5.62-13.43,3.94-14.97,2.95,1.57,12.25,2.86,20.19,1.07,12.95-2.91,14.95-8.91,25.04-10.14,3.65-.45,8.29-.24,14.78,1.02,2.91.48,3.99,3.59-.17,2.21-5.17-1.72-14.19-1.01-14.89,2.53-1.19,3.49.65,5.38,2.89,6.6.66.36,8.05,2.97,6.43,4.89-2.75,3.15-10.42-3.32-12.41-4.32-2-1-8.58-2.37-10.58-1.77,1.9,2.33,4.47,3.83,4.47,5.22-2.21.28-6.32.86-8.95,2.43,3.44.26,6.77-.04,7.87,1.18-2.81,1.57-4.51,2.92-5.7,4.17,5,2.81,13.65-1.23,15.42-2.29,7.99,1.65,14.35.85,18.51-.87,2.4-2.5,4.04-7.85,5.28-11.16,7.48-1.87,20.15-5,18.56-.1-2.24,4.01-1.71,7.25,3.3,6.24,1.2,1.45,2.88,4.43,5.32,6.75-.9-2.86-1.75-3.96-1.32-6.49,1.89,2.06,9.23-2.52,4.12-12.16Zm-106.14-23.51c1.14,0,3.29,1.02,3.95,2.16-.6,0-5.12,1.02-5.67.97l1.71-3.12Zm-3.53,12.55c1.89-1.82,6.37-3.15,7.55-3.15.79,1.23,4.28,4.34,4.74,4.68-2.26.29-8-.76-12.29-1.53Zm11.35-9.37c.6,0,4.83.27,5.37.32l-1.71,3.12c-1.15,0-2.99-2.31-3.66-3.45Z"/>
      <path class="cls-5" d="m136.78,24.25v5.54h-13.66v-5.54h-15.51v5.54h-12.92v-5.54h-16.25v5.54h-12.56v-5.54s-15.69,0-15.69,0v5.54h-13.48v-5.54h-15.51v26.46h57.24v-11.32l16.25-.03v11.35h57.58v-26.46h-15.48Zm-86.6,18.31h-4.62v-8.63h4.62v8.63Zm77.56.24h-4.62v-8.63h4.62v8.63Z"/>
      <path class="cls-5" d="m179.55,194.09c.45-.02.88-.03,1.32-.03,29.08,0,52.8,23.72,52.8,52.8s-23.72,52.8-52.8,52.8-52.8-23.72-52.8-52.8c0-25.79,18.66-47.37,43.16-51.91l3.48,16.39c-3.45,1.88-8.26.33-15.97,12.94,4.25-2.39,8.94-6.12,18.87-6.48,3.56,5.29,6.34,12.7,11.16,18.84.53-3.79,1.34-9.12-.9-16.34,5.6,2.02,11.57,5.4,17.82,10.42-2.25-13.77-11.39-15-13.25-15.86,5.68-.28,10.64-.21,16.32-.59-5.06-6.18-16.48-5.45-26.11-5.29l-3.1-14.91h0Z"/>
      <g>
        <path class="cls-5" d="m102.17,182.65c26.77-29.86,66.14-74.4,78.02-89.19l-7.8,18.69c-13.67,16.95-37.85,43.51-55.07,63.24-4.19,4.48-10.32,6.35-15.15,7.27h0Z"/>
        <path class="cls-5" d="m267.79,38.72c-.93-1.87-1.96-5.06-1.57-6.93l12.49-2.68c-3.69,3.18-6.54,7.48-10.91,9.62h0Z"/>
        <path class="cls-5" d="m267.18,41.32c-2.47,11.68-7.01,22.35-20.95,20.98-14.85-1.58-12.99-15.86-11.9-25.15l.96-.42c.21,7.84-1.11,19.75,8.95,22.79,10.5.18,17.98-2.03,22.12-20.22-3.16-5.36-1.72-8.87-.72-14.51-1.09-2.51-4.39-3.7-7.63-4.17-7.21-.97-15.87,1.44-21.46,6.98-5.46,5.4-11.29,12.21-16.22,21.79-9.16,8.23-29.51,30.93-37.38,41.83-2.04,6.02-6.21,15.17-8,19.97,13.41,5.92,29.12-1.25,38.63-13.14,15.37-1.22,29.33-4.96,39.98-10.66l-.17,2.73c-3.43,2.07-5.05,2.8-10.45,4.96-2.71,17.94-13.25,32.73-27.19,42.42-13.52,9.39-30.22,13.92-46.98,15.39-6.33,6.14-12.46,10.47-21.93,13.36,26.01,2.19,55.12-1.75,75.27-13.23,26.41-15.04,37.4-36.83,42.04-61.24,3.05-16.08,3.25-33.3,3.03-50.48Zm-27.72-5.6l7.04-1.13c0-4.19,3.51-7.58,7.82-7.58s7.81,3.39,7.81,7.55-3.51,7.7-7.81,7.7c-3.45,0-6.39-2.33-7.45-5.34-3.23-.27-6.12-.19-7.41-.38v-.83Z"/>
        <path class="cls-5" d="m266.33,29.98c.06-1.48.25-3.03.76-4.74,4.53-.07,6.67,1.25,10.97,2.66l-11.73,2.08h0Z"/>
        <path class="cls-5" d="m164.99,124.13l8.38-10.23c6.1,2.61,23.02,7.12,41.38-12.73l4.62-.61c-9.74,19.39-35.29,27.65-54.38,23.57h0Z"/>
        <path class="cls-5" d="m153.47,137.79l9.81-11.26c15.49,1.67,27.1-.07,36.65-4.81,8.58-4.26,16.72-11.24,22.56-21.66l8.95-1.86c-16,41.02-62.61,43.57-77.98,39.59h0Z"/>
        <path class="cls-5" d="m126.47,167.71l25.08-27.21c39.08,5.13,67.93-8.77,82.68-42.94l6.24-1.57c-7.07,34.33-37.55,52.23-72.68,54.65-8.5,8-16.28,14.93-41.32,17.08h0Z"/>
        <path class="cls-5" d="m116.92,187.59c-1.03-3.5.24-7.52.89-10.17l7.55-8.05c6.08.1,11.4-.99,17.07-2.15-11.07,4.18-15.67,8.75-25.51,20.38h0Z"/>
        <path class="cls-5" d="m71.14,245.59c-1.47-7.24-.23-13.12,2.84-18.36l41.43-47.24c-1.14,4.6-1.32,7.43-.36,9.64-4.15,5.58-22.22,24.73-34.7,40.05-5.14,6.3-7.57,10.27-9.21,15.92h0Z"/>
        <path class="cls-5" d="m56.33,227.89c5.94-1.46,8.08-3.15,12.57-7.65l32-35.92c4.2-.04,7.95-.87,12.87-4.35l-40.87,45.35c-4.87,1.91-10.51,3.62-16.57,2.57h0Z"/>
        <polygon class="cls-5" points="162.5 195.4 157.95 177.9 162.66 169.08 167.04 169.01 162.05 177.76 166.26 194.61 162.5 195.4 162.5 195.4"/>
        <path class="cls-5" d="m178.57,216.08c-6.86.09-10.29,1.73-15.2,3.8,3.8-3.71,7.3-5.63,13.84-7.04l-7.41-34.36,6.24-9.49,4.22-.46-6.33,10.44c2.21,10.37,4.81,21.75,7.02,32.12,19.27-1.57,23.62,1.36,24.34,1.65-3.85,1.09-12.14-.64-16.59.85-1.99,0,14.17,8.06,14.6,13.3,1.2.37-19.04-12.33-20.01-11.41,3.25,2.24,4.42,12.64,4.41,16.58-3.79-6.79-4.15-8.79-9.12-15.99h0Z"/>
        <path class="cls-5" d="m254.4,27.98c-3.71,0-6.73,2.92-6.73,6.5s3.02,6.51,6.73,6.51,6.73-2.92,6.73-6.51-3.02-6.5-6.73-6.5Zm-.52,10.95c-2.65,0-4.81-2.09-4.81-4.65s2.16-4.65,4.81-4.65,4.81,2.09,4.81,4.65-2.16,4.65-4.81,4.65Z"/>
      </g>
      <g>
        <path class="cls-3" d="m149.74,246.34l1.58-.18c.19.7.73,1.06,1.62,1.06.55,0,1-.14,1.34-.42.34-.28.51-.63.51-1.05,0-.39-.15-.73-.46-1.01-.3-.28-.7-.43-1.18-.43-.51,0-1.02.22-1.54.64l-1.55-.25.87-3.79h5.16v1.22h-4.11l-.37,1.59c.58-.36,1.19-.53,1.84-.53.83,0,1.53.25,2.11.74.58.49.87,1.1.87,1.83,0,.8-.34,1.46-1.01,1.96-.68.5-1.49.75-2.44.75-.86,0-1.58-.19-2.14-.57-.57-.38-.93-.9-1.08-1.56h0Z"/>
        <path class="cls-3" d="m148.77,241.78c-.61-.7-1.45-1.05-2.51-1.05s-1.88.35-2.49,1.05c-.61.69-.92,1.64-.92,2.83s.31,2.12.92,2.82c.62.7,1.45,1.05,2.49,1.05s1.91-.35,2.51-1.05c.61-.7.91-1.64.91-2.81s-.31-2.12-.92-2.82Zm-2.52,5.44c-1.12,0-1.68-.87-1.68-2.62s.57-2.63,1.69-2.63,1.7.88,1.7,2.63-.57,2.62-1.71,2.62Z"/>
        <path class="cls-3" d="m141.39,241.69c-.58-.69-1.51-1.04-2.78-1.04-.93,0-1.7.24-2.3.73-.61.49-.91,1.12-.91,1.92s.28,1.36.85,1.81c.57.45,1.24.67,2.01.67.92,0,1.7-.34,2.33-1.02-.05,1.58-.76,2.37-2.12,2.37-.69,0-1.12-.23-1.28-.7l-1.71.18c.31,1.18,1.29,1.77,2.95,1.77,1.26,0,2.21-.39,2.86-1.16.65-.77.98-1.78.98-3.02,0-.98-.29-1.82-.87-2.51Zm-1.53,2.43c-.32.28-.73.42-1.21.42-1.03,0-1.54-.44-1.54-1.33,0-.37.14-.68.43-.93.29-.25.67-.38,1.14-.38s.85.12,1.17.34c.32.22.48.52.48.9s-.16.7-.48.98Z"/>
        <path class="cls-3" d="m132.42,248.28v-5.16h-1.35s0-1.01,0-1.01c.77-.22,1.27-.78,1.76-1.38h1.18v7.55h-1.59Z"/>
      </g>
    </g>
  </g>
</svg>