<?xml version="1.0" encoding="UTF-8"?>
<svg id="Layer_2" data-name="Layer 2" xmlns="http://www.w3.org/2000/svg" viewBox="0 0 274.59 489.12">
  <defs>
    <style>
      .cls-1 {
        fill: #ef4056;
        fill-rule: evenodd;
        stroke-width: 0px;
      }
    </style>
  </defs>
  <g id="Layer_1-2" data-name="Layer 1">
    <g>
      <path class="cls-1" d="m17.88,298.76c8.4-9.05,36.07-22.65,71.27-.43,18.29,11.54,53.75,29.04,99.36,0,35.12-22.36,62.92-8.62,71.31.43l-.02,24.84c-8.39-9.05-20.16-13.95-33.96-13.95,0,0-17.06-1.05-35.66,9.97-53.65,31.82-87.67,7.56-102.72,0-22.4-11.24-35.65-9.97-35.65-9.97-13.81,0-25.57,4.9-33.97,13.95l.03-24.84h0Z"/>
      <path class="cls-1" d="m17.88,333.24c8.4-9.05,36.07-25.35,71.27-3.12,18.29,11.55,53.75,29.04,99.36,0,35.12-22.36,62.91-6.25,71.31,2.8l-.02,27.27c-8.4-9.05-20.16-18.75-33.96-18.75,0,0-17.07-1.05-35.66,9.98-53.65,31.82-87.67,7.56-102.72,0-22.41-11.25-35.65-9.98-35.65-9.98-13.81,0-25.57,10.05-33.97,19.11l.03-27.3h0Z"/>
      <path class="cls-1" d="m133.77,453.76s-.58,20.64,23.51,21.01c1.31.02,3.62-.1,4.81-.2v14.05c-2.21.31-4.59.51-7.09.51-15.36,0-31.1-7.08-36.26-20.89-2.4-6.42-1.9-14.47-1.9-14.47l.02-18.13c0-4.8-1.78-7.32-5.44-7.32h-.24v40.11h-17.05v-86.45h19.89c13.86,0,19.77,4.68,19.77,15.61v9.12c0,9.01-4.38,13.93-13.14,14.41v.49c9.95.6,13.14,4.56,13.14,14.53v17.65Zm-16.92-42.14v-13.81c0-3.96-1.18-4.92-5.68-4.92v23.65h.94c3.55,0,4.74-1.32,4.74-4.92h0Z"/>
      <path class="cls-1" d="m51.32,402.37v45.63c0,15.24,4.86,22.33,19.9,22.33s19.89-7.09,19.89-22.33v-45.63c0-15.12-4.74-22.33-19.89-22.33s-19.9,7.08-19.9,22.33h0Zm17.05-5.77c0-2.88.83-4.2,2.84-4.2,2.25,0,2.96,1.32,2.96,4.2v56.44c0,3-.84,4.2-2.96,4.2s-2.84-1.32-2.84-4.2v-56.45h0Z"/>
      <polygon class="cls-1" points="17.85 468.42 34.9 468.42 34.9 426.39 49.23 426.39 49.23 413.91 34.9 413.91 34.9 393.97 49.59 393.97 49.59 381.96 17.85 381.96 17.85 468.42 17.85 468.42"/>
      <path class="cls-1" d="m136.84,402.37c0-15.25,4.98-22.33,19.9-22.33s19.89,7.21,19.89,22.33v23.99h-22.73v26.69c0,2.88.71,4.2,2.84,4.2s2.96-1.21,2.96-4.2v-17.43h16.93v12.39c0,15.24-4.86,22.33-19.89,22.33s-19.9-7.09-19.9-22.33v-45.63Zm17.06-5.77v17.31h5.8v-17.31c0-2.88-.71-4.2-2.96-4.2-2.02,0-2.84,1.32-2.84,4.2h0Z"/>
      <path class="cls-1" d="m179.57,397.45v9.13c0,4.08.24,7.92,4.38,12.72l15.39,17.65c1.9,2.16,2.96,4.08,2.96,6.96v9.13c0,2.88-.71,4.2-2.84,4.2s-2.96-1.21-2.96-4.2v-17.42h-16.93v16.21c0,12.13,6.74,18.49,19.77,18.49s19.9-6.24,19.9-17.29v-10.09c0-5.41,0-9.61-4.27-14.29l-16.33-18.25c-1.55-1.8-2.14-3.6-2.14-6.12v-7.69c0-2.99.84-4.2,2.96-4.2,2.26,0,2.84,1.32,2.84,4.2v15.38h16.94v-14.17c0-11.29-6.99-17.77-19.78-17.77s-19.89,6.73-19.89,17.41h0Z"/>
      <polygon class="cls-1" points="231.84 468.42 248.77 468.42 248.77 394.21 259.78 394.21 259.78 381.96 220.94 381.96 220.94 394.21 231.84 394.21 231.84 468.42 231.84 468.42"/>
      <path class="cls-1" d="m166.48,221.02c3.95,2.25,10.1,4.69,14.9,5.12,16.42,1.49,33.82-6.36,41.95-19.65,26.47,6.97,46.47-10.28,50.37-29.14.58-2.82.87-5.52.89-8.1.09-12.46-6.17-22.22-16.84-29.49,4.32-21.28-5.12-30.5-14.46-34.46,2.22-7.56-1.25-18.09-9.39-26.35-4.59-4.65-9.9-7.77-14.98-9.23,5.36-20.29-1.56-39.94-24.28-45.97-5.68-1.51-11.78-1.37-17.17.01C168.96,9.54,153.38,0,135.68,0s-32.71,9.27-41.28,23.18c-9.56-1.8-19.83.42-28.12,6.99-12.53,9.92-16.61,26.68-11.17,40.91-9.45.81-17.81,5.83-21.85,14.23-3.23,6.71-2.91,14.4-.05,21.29-9.78,4.73-16.41,13.89-16.41,24.4,0,2.47.37,4.83,1.05,7.1C7.1,145.1,0,157.15,0,170.83c0,21.62,17.73,39.16,39.6,39.16,5.34,0,10.42-1.08,15.06-2.98,6.5,12.56,19.64,21.15,34.8,21.15,8.23,0,15.88-2.84,22.18-7.16v52.83c-38.17-21.52-55.84-20.83-61.82-20.83-9.27-.44-25.57,4.01-31.97,11.69v24.75c6.4-7.68,24.37-13.2,37.88-12.6,6.9.3,21.61,3.39,36.99,12.2,22.49,12.87,39.8,15.33,39.81,15.34v-117.4c-6.42,8.23-18.67,13.79-32.7,13.79-18.08,0-33.16-9.24-36.68-21.51-2.22,2.59-5.22,4.73-8.73,6.03-10.08,3.72-20.93-.71-24.23-9.9-3.3-9.19,2.2-19.65,12.28-23.37,1.21-.44,2.42-.77,3.64-.99-6.63-6.13-9.48-14.27-6.5-20.74,3.06-6.64,11.38-9.64,20.56-8.16-3.16-3.65-4.89-8.02-4.89-12.95,0-12.03,11.18-21.78,24.98-21.78,1.02,0,2.02.05,3,.16-4.23-4.55-6.79-10.69-6.79-17.45,0-14.03,11.17-25.41,24.95-25.41,3.74,0,7.3.84,10.48,2.35,1.75-11.59,12.3-20.49,25.06-20.49s23.59,9.15,25.12,20.98c3.64-2.19,7.87-3.03,12.37-3.03,13.73,0,24.87,11.74,24.87,26.23,0,6.59-2.14,12.42-5.95,17.03.85-.08,1.7-.12,2.58-.12,13.6,0,24.63,9.56,24.63,21.35,0,3.91-1.21,7.57-3.34,10.72,7.84-.11,14.99,4.32,17.61,11.64,2.1,5.86.77,12.2-2.94,17.07.27.03.52.08.79.13,10.14,1.81,16.95,11.45,15.19,21.51-1.75,10.07-11.39,16.76-21.54,14.95-5.35-.96-9.84-4.15-12.56-8.38-2.24,13.05-17.44,23.15-35.82,23.15-12.98,0-25.85-5.04-32.21-12.58v117.18s17.34-2.47,39.82-15.34c15.38-8.81,30.1-11.9,36.98-12.2,13.51-.6,30.77,4.19,37.16,11.87v-24.75c-6.39-7.68-21.98-11.4-31.24-10.96-5.98,0-23.82-.7-62,20.83l.02-52.83h0Z"/>
      <path class="cls-1" d="m17.88,298.76c8.4-9.05,36.07-22.65,71.27-.43,18.29,11.54,53.75,29.04,99.36,0,35.12-22.36,62.92-8.62,71.31.43l-.02,24.84c-8.39-9.05-20.16-13.95-33.96-13.95,0,0-17.06-1.05-35.66,9.97-53.65,31.82-87.67,7.56-102.72,0-22.4-11.24-35.65-9.97-35.65-9.97-13.81,0-25.57,4.9-33.97,13.95l.03-24.84h0Z"/>
      <path class="cls-1" d="m17.88,333.24c8.4-9.05,36.07-25.35,71.27-3.12,18.29,11.55,53.75,29.04,99.36,0,35.12-22.36,62.91-6.25,71.31,2.8l-.02,27.27c-8.4-9.05-20.16-18.75-33.96-18.75,0,0-17.07-1.05-35.66,9.98-53.65,31.82-87.67,7.56-102.72,0-22.41-11.25-35.65-9.98-35.65-9.98-13.81,0-25.57,10.05-33.97,19.11l.03-27.3h0Z"/>
      <path class="cls-1" d="m133.77,453.76s-.58,20.64,23.51,21.01c1.31.02,3.62-.1,4.81-.2v14.05c-2.21.31-4.59.51-7.09.51-15.36,0-31.1-7.08-36.26-20.89-2.4-6.42-1.9-14.47-1.9-14.47l.02-18.13c0-4.8-1.78-7.32-5.44-7.32h-.24v40.11h-17.05v-86.45h19.89c13.86,0,19.77,4.68,19.77,15.61v9.12c0,9.01-4.38,13.93-13.14,14.41v.49c9.95.6,13.14,4.56,13.14,14.53v17.65Zm-16.92-42.14v-13.81c0-3.96-1.18-4.92-5.68-4.92v23.65h.94c3.55,0,4.74-1.32,4.74-4.92h0Z"/>
      <path class="cls-1" d="m51.32,402.37v45.63c0,15.24,4.86,22.33,19.9,22.33s19.89-7.09,19.89-22.33v-45.63c0-15.12-4.74-22.33-19.89-22.33s-19.9,7.08-19.9,22.33h0Zm17.05-5.77c0-2.88.83-4.2,2.84-4.2,2.25,0,2.96,1.32,2.96,4.2v56.44c0,3-.84,4.2-2.96,4.2s-2.84-1.32-2.84-4.2v-56.45h0Z"/>
      <polygon class="cls-1" points="17.85 468.42 34.9 468.42 34.9 426.39 49.23 426.39 49.23 413.91 34.9 413.91 34.9 393.97 49.59 393.97 49.59 381.96 17.85 381.96 17.85 468.42 17.85 468.42"/>
      <path class="cls-1" d="m136.84,402.37c0-15.25,4.98-22.33,19.9-22.33s19.89,7.21,19.89,22.33v23.99h-22.73v26.69c0,2.88.71,4.2,2.84,4.2s2.96-1.21,2.96-4.2v-17.43h16.93v12.39c0,15.24-4.86,22.33-19.89,22.33s-19.9-7.09-19.9-22.33v-45.63Zm17.06-5.77v17.31h5.8v-17.31c0-2.88-.71-4.2-2.96-4.2-2.02,0-2.84,1.32-2.84,4.2h0Z"/>
      <path class="cls-1" d="m179.57,397.45v9.13c0,4.08.24,7.92,4.38,12.72l15.39,17.65c1.9,2.16,2.96,4.08,2.96,6.96v9.13c0,2.88-.71,4.2-2.84,4.2s-2.96-1.21-2.96-4.2v-17.42h-16.93v16.21c0,12.13,6.74,18.49,19.77,18.49s19.9-6.24,19.9-17.29v-10.09c0-5.41,0-9.61-4.27-14.29l-16.33-18.25c-1.55-1.8-2.14-3.6-2.14-6.12v-7.69c0-2.99.84-4.2,2.96-4.2,2.26,0,2.84,1.32,2.84,4.2v15.38h16.94v-14.17c0-11.29-6.99-17.77-19.78-17.77s-19.89,6.73-19.89,17.41h0Z"/>
      <polygon class="cls-1" points="231.84 468.42 248.77 468.42 248.77 394.21 259.78 394.21 259.78 381.96 220.94 381.96 220.94 394.21 231.84 394.21 231.84 468.42 231.84 468.42"/>
      <path class="cls-1" d="m166.48,221.02c3.95,2.25,10.1,4.69,14.9,5.12,16.42,1.49,33.82-6.36,41.95-19.65,26.47,6.97,46.47-10.28,50.37-29.14.58-2.82.87-5.52.89-8.1.09-12.46-6.17-22.22-16.84-29.49,4.32-21.28-5.12-30.5-14.46-34.46,2.22-7.56-1.25-18.09-9.39-26.35-4.59-4.65-9.9-7.77-14.98-9.23,5.36-20.29-1.56-39.94-24.28-45.97-5.68-1.51-11.78-1.37-17.17.01C168.96,9.54,153.38,0,135.68,0s-32.71,9.27-41.28,23.18c-9.56-1.8-19.83.42-28.12,6.99-12.53,9.92-16.61,26.68-11.17,40.91-9.45.81-17.81,5.83-21.85,14.23-3.23,6.71-2.91,14.4-.05,21.29-9.78,4.73-16.41,13.89-16.41,24.4,0,2.47.37,4.83,1.05,7.1C7.1,145.1,0,157.15,0,170.83c0,21.62,17.73,39.16,39.6,39.16,5.34,0,10.42-1.08,15.06-2.98,6.5,12.56,19.64,21.15,34.8,21.15,8.23,0,15.88-2.84,22.18-7.16v52.83c-38.17-21.52-55.84-20.83-61.82-20.83-9.27-.44-25.57,4.01-31.97,11.69v24.75c6.4-7.68,24.37-13.2,37.88-12.6,6.9.3,21.61,3.39,36.99,12.2,22.49,12.87,39.8,15.33,39.81,15.34v-117.4c-6.42,8.23-18.67,13.79-32.7,13.79-18.08,0-33.16-9.24-36.68-21.51-2.22,2.59-5.22,4.73-8.73,6.03-10.08,3.72-20.93-.71-24.23-9.9-3.3-9.19,2.2-19.65,12.28-23.37,1.21-.44,2.42-.77,3.64-.99-6.63-6.13-9.48-14.27-6.5-20.74,3.06-6.64,11.38-9.64,20.56-8.16-3.16-3.65-4.89-8.02-4.89-12.95,0-12.03,11.18-21.78,24.98-21.78,1.02,0,2.02.05,3,.16-4.23-4.55-6.79-10.69-6.79-17.45,0-14.03,11.17-25.41,24.95-25.41,3.74,0,7.3.84,10.48,2.35,1.75-11.59,12.3-20.49,25.06-20.49s23.59,9.15,25.12,20.98c3.64-2.19,7.87-3.03,12.37-3.03,13.73,0,24.87,11.74,24.87,26.23,0,6.59-2.14,12.42-5.95,17.03.85-.08,1.7-.12,2.58-.12,13.6,0,24.63,9.56,24.63,21.35,0,3.91-1.21,7.57-3.34,10.72,7.84-.11,14.99,4.32,17.61,11.64,2.1,5.86.77,12.2-2.94,17.07.27.03.52.08.79.13,10.14,1.81,16.95,11.45,15.19,21.51-1.75,10.07-11.39,16.76-21.54,14.95-5.35-.96-9.84-4.15-12.56-8.38-2.24,13.05-17.44,23.15-35.82,23.15-12.98,0-25.85-5.04-32.21-12.58v117.18s17.34-2.47,39.82-15.34c15.38-8.81,30.1-11.9,36.98-12.2,13.51-.6,30.77,4.19,37.16,11.87v-24.75c-6.39-7.68-21.98-11.4-31.24-10.96-5.98,0-23.82-.7-62,20.83l.02-52.83h0Z"/>
    </g>
  </g>
</svg>