<?xml version="1.0" encoding="UTF-8"?>
<svg id="Layer_2" data-name="Layer 2" xmlns="http://www.w3.org/2000/svg" viewBox="0 0 340.77 387.76">
  <defs>
    <style>
      .cls-1, .cls-2, .cls-3, .cls-4, .cls-5 {
        stroke-width: 0px;
      }

      .cls-2 {
        fill: #3963ab;
      }

      .cls-3 {
        fill: #ce0000;
      }

      .cls-4 {
        fill: #cca410;
      }

      .cls-5 {
        fill: #fff;
      }
    </style>
  </defs>
  <g id="Layer_1-2" data-name="Layer 1">
    <g>
      <path class="cls-1" d="m0,0h340.77v132.71c-.84,42.2-10.88,83.57-30.24,121.09-19.75,38.31-48.41,71.26-82.44,97.55-17.92,13.89-37.38,25.61-57.42,36.2l-.3.2-.3-.2c-20.04-10.59-39.49-22.31-57.42-36.2-34.03-26.3-62.69-59.24-82.44-97.55C10.88,216.28.84,174.92,0,132.71V0Z"/>
      <path class="cls-2" d="m13,13v119.47c.84,41.81,10.83,80.61,28.76,115.43,18.42,35.65,45.11,67.12,78.84,93.22,15.61,12.06,32.4,22.6,49.79,31.96,17.38-9.36,34.18-19.9,49.79-31.96,33.73-26.1,60.42-57.57,78.84-93.22,17.92-34.82,27.92-73.62,28.76-115.43V13H13ZM.74.74h339.3v131.98c-.84,43.68-11.33,84.31-30.14,120.8-19.21,37.23-47.08,70.13-82.24,97.31-17.92,13.84-37.23,25.51-57.27,36.1-20.04-10.59-39.35-22.26-57.27-36.1-35.16-27.18-63.03-60.08-82.24-97.31C12.06,217.02,1.58,176.4.74,132.71V.74Z"/>
      <path class="cls-5" d="m13.69,13.74v118.73c.79,40.08,10.34,79.38,28.71,115.09,18.81,36.54,46.19,67.91,78.64,92.97,15.46,12.02,32.16,22.46,49.34,31.71,17.23-9.26,33.88-19.7,49.34-31.71,32.45-25.07,59.83-56.43,78.64-92.97,18.37-35.7,27.92-75,28.71-115.09V13.74H13.69Z"/>
      <path class="cls-1" d="m60.18,60.23h220.42v71.31c-.35,17.19-2.51,33.63-6.4,49.34-3.94,15.95-9.7,31.17-17.04,45.45-9.6,18.56-21.76,35.41-35.95,50.48-15.07,16.05-32.31,29.99-50.82,41.81-18.52-11.77-35.8-25.76-50.82-41.81-14.18-15.07-26.35-31.91-35.95-50.48-7.34-14.28-13.1-29.5-17.04-45.45-3.89-15.71-6.06-32.16-6.4-49.34V60.23Z"/>
      <path class="cls-2" d="m247.75,304.33l-22.55-21.03,9.31-10c3.2-3.4,6.75-4.68,10.74-3.94,2.9.59,5.76,2.17,8.57,4.78,3.05,2.86,5.02,5.86,5.96,9.06,1.18,4.24.25,8.03-2.86,11.33l-9.16,9.8h0Zm-14.33-22.06l14.77,13.79,4.28-4.58c1.68-1.77,2.12-3.84,1.33-6.2-.64-1.97-2.02-3.99-4.18-5.96-2.91-2.71-5.52-3.99-7.78-3.84-1.48.1-2.86.89-4.19,2.31l-4.23,4.48Z"/>
      <polygon class="cls-2" points="258.34 241.15 262.82 244.21 253.71 257.75 259.13 261.39 267.5 248.93 272.03 251.94 263.61 264.4 270.21 268.88 279.76 254.7 284.34 257.8 271.24 277.2 245.63 259.96 258.34 241.15"/>
      <path class="cls-2" d="m291.68,221.36l2.12-5.81c1.18.44,2.27.44,3.3,0,1.53-.59,2.76-2.07,3.59-4.43.64-1.77.89-3.2.79-4.33-.15-1.53-.89-2.56-2.32-3.05-.98-.39-1.97-.2-2.9.59-.64.49-1.53,1.63-2.61,3.3l-1.87,2.9c-1.82,2.86-3.35,4.68-4.53,5.52-2.02,1.43-4.48,1.63-7.29.59-2.27-.79-3.89-2.17-4.97-4.14-1.48-2.71-1.48-6.11.05-10.24,1.43-3.99,3.64-6.55,6.6-7.78,2.31-.89,4.58-.94,6.89-.15l-2.12,5.81c-1.23-.25-2.22-.25-3.05.05-1.48.59-2.66,1.97-3.45,4.28-.54,1.38-.69,2.61-.49,3.69.2,1.33.89,2.22,2.07,2.66,1.03.35,1.92.3,2.66-.25.44-.3.98-.89,1.53-1.72l4.29-6.5c1.48-2.16,2.9-3.64,4.23-4.43,1.87-1.08,3.99-1.18,6.35-.29,2.95,1.08,4.87,2.86,5.81,5.42.99,2.81.84,5.96-.44,9.5-1.68,4.68-4.09,7.63-7.19,8.86-2.22.89-4.58.89-7.04-.05Z"/>
      <path class="cls-2" d="m297.19,185.46c-4.33-.84-7.58-2.46-9.85-4.88-1.82-1.87-2.91-4.23-3.35-6.99-.29-1.97-.29-3.94.1-5.81.34-1.92,1.04-3.69,2.02-5.32,1.48-2.41,3.35-4.14,5.71-5.22,3-1.43,6.7-1.67,11.03-.84,4.29.84,7.58,2.46,9.9,4.88,1.77,1.92,2.91,4.24,3.35,6.99.34,1.97.3,3.89-.05,5.71-.39,1.97-1.08,3.74-2.07,5.42-1.48,2.36-3.35,4.14-5.71,5.22-3.05,1.43-6.75,1.72-11.08.84h0Zm1.23-6.3c3.79.74,6.84.34,9.06-1.18,1.68-1.13,2.76-2.81,3.15-5.02.44-2.12.05-4.04-1.08-5.76-1.48-2.27-4.14-3.74-7.93-4.48-3.79-.74-6.8-.34-9.01,1.18-1.67,1.18-2.71,2.81-3.15,4.97-.39,2.12-.05,4.04,1.08,5.76,1.48,2.31,4.09,3.79,7.88,4.53Z"/>
      <path class="cls-2" d="m318.32,145.12l-30.83-1.08.59-15.61c.1-3.6,1.28-6.16,3.55-7.78,1.62-1.13,3.45-1.67,5.42-1.63,1.77.05,3.3.54,4.58,1.43,1.33.89,2.22,2.12,2.66,3.64.69-1.43,1.43-2.36,2.27-2.86,1.13-.64,3-.89,5.66-.84,2.17.1,3.59.1,4.43.05.84,0,1.43-.44,1.72-1.18h.89l-.25,7.14c-.84.2-1.67.34-2.56.44-.89.1-2.17.1-3.74.05-2.32-.1-3.84.1-4.53.54-.94.59-1.43,2.07-1.48,4.28l-.25,6.65,12.11.39-.25,6.35h0Zm-17.04-6.94l.29-7.53c.05-1.72-.25-3-.89-3.84-.59-.84-1.67-1.23-3.15-1.33-1.08,0-1.97.25-2.66.79-.98.74-1.48,1.97-1.53,3.64l-.29,7.98,8.22.3Z"/>
      <polygon class="cls-2" points="288.33 99.72 319.16 100.26 319.06 106.71 288.18 106.17 288.33 99.72"/>
      <path class="cls-2" d="m312.56,79.68l6.35,2.27-.15,6.8-30.63-11.57.15-7.53,31.03-10.19-.15,6.94-6.4,1.87-.2,11.43h0Zm-5.27-1.82l.15-7.88-12.26,3.64,12.11,4.24Z"/>
      <path class="cls-2" d="m147.49,31.96h-6.89c-.44-1.43-1.03-2.51-1.67-3.25-1.28-1.28-3.1-1.97-5.56-1.97-2.17,0-3.94.69-5.32,2.07-1.92,1.82-2.86,4.68-2.86,8.52,0,2.95.64,5.32,1.87,7.14,1.48,2.07,3.55,3.1,6.3,3.1,1.87,0,3.5-.44,4.73-1.43,1.28-.98,2.12-2.36,2.51-4.19h6.89c-.74,3.4-2.27,6.11-4.53,8.03-2.51,2.12-5.76,3.15-9.8,3.15-4.48,0-8.08-1.33-10.78-4.04-2.81-2.81-4.23-6.8-4.23-11.82s1.48-9.11,4.38-11.97c2.76-2.66,6.35-3.99,10.74-3.99s8.13,1.18,10.83,3.64c2.26,2.07,3.4,4.38,3.4,6.99Z"/>
      <rect class="cls-2" x="158.32" y="46.14" width="6.89" height="6.16"/>
      <path class="cls-2" d="m177.04,52.3v-30.14h14.58c4.97,0,8.57,1.67,10.88,5.02,1.67,2.46,2.51,5.56,2.51,9.31,0,4.09-.93,7.49-2.76,10.29-2.41,3.69-6.06,5.52-10.93,5.52h-14.28Zm6.8-24.97v19.75h6.7c2.56,0,4.53-1.03,5.81-3.2,1.08-1.77,1.58-4.09,1.58-6.94,0-3.89-.89-6.6-2.66-8.13-1.13-.98-2.76-1.48-4.83-1.48h-6.6Z"/>
      <rect class="cls-2" x="215.79" y="46.14" width="6.84" height="6.16"/>
      <polygon class="cls-2" points="52.25 77.51 52.25 83.17 21.37 83.17 21.37 77.12 43.38 65.25 21.37 65.2 21.37 59.54 52.25 59.54 52.25 65.94 30.78 77.41 52.25 77.51"/>
      <path class="cls-2" d="m52.54,117.25h-20.04c-3.99,0-6.94-1.08-8.86-3.2-1.87-2.02-2.81-4.92-2.81-8.77,0-1.67.25-3.2.74-4.63.64-1.92,1.67-3.45,3.05-4.63,1.87-1.48,4.33-2.27,7.49-2.27h20.44v6.25h-20.04c-2.02,0-3.55.49-4.58,1.43-1.08.98-1.58,2.22-1.58,3.74,0,2.02.49,3.5,1.48,4.43,1.03.94,2.51,1.38,4.43,1.38h20.29v6.25Z"/>
      <polygon class="cls-2" points="53.68 153.6 22.9 155.66 22.5 150 48.21 148.28 22.06 144.48 21.62 138.53 46.98 131.58 21.22 133.21 20.83 127.54 51.61 125.53 52.25 134.29 28.41 141.14 53.04 144.83 53.68 153.6"/>
      <path class="cls-2" d="m31.62,171.18l-6.65-.84-1.28-6.25,32.35,4.63,1.43,6.99-28.22,15.46-1.33-6.45,5.86-2.95-2.17-10.59h0Zm5.56.64l1.53,7.34,11.23-5.81-12.75-1.53Z"/>
      <polygon class="cls-2" points="66.38 207.12 68.25 212.54 38.9 221.5 36.93 215.74 53.97 198.06 32.99 204.42 31.17 199 60.47 190.09 62.59 196.14 45.95 213.33 66.38 207.12"/>
      <path class="cls-2" d="m73.28,245.44l-2.86-5.47c1.18-.98,1.92-1.87,2.31-2.71.69-1.58.54-3.3-.49-5.27-.89-1.68-2.22-2.81-4.09-3.35-2.41-.74-5.42-.25-9.01,1.38-2.66,1.23-4.63,2.71-5.76,4.48-1.33,2.02-1.43,4.14-.3,6.3.79,1.53,1.87,2.56,3.3,3.15,1.38.59,3,.69,4.88.25l2.81,5.42c-3.45.89-6.5.84-9.26-.2-2.95-1.08-5.22-3.25-6.89-6.4-1.82-3.59-2.07-6.99-.69-10.24,1.43-3.5,4.48-6.25,9.11-8.42,4.68-2.17,8.96-2.66,12.8-1.53,3.59,1.03,6.3,3.3,8.08,6.8,1.87,3.6,2.22,6.99,1.08,10.14-.98,2.66-2.66,4.53-5.02,5.66Z"/>
      <polygon class="cls-2" points="89.33 252.23 63.18 267.65 59.78 262.48 85.93 247.11 89.33 252.23"/>
      <path class="cls-2" d="m77.71,277.25l-6.35,1.97-4.09-5.07,31.27-9.21,4.53,5.66-18.17,25.56-4.19-5.22,3.89-5.07-6.89-8.62h0Zm5.27-1.72l4.78,5.96,7.44-9.85-12.21,3.89Z"/>
      <path class="cls-2" d="m200.13,295.86c7.24-6.16,14.08-12.66,20.58-19.55,8.03-8.57,15.46-17.68,22.11-27.43v-13.99c-2.66-4.58-6.06-7.98-9.85-10.14-3.5-1.97-7.29-2.96-11.13-2.91-3.79,0-7.63,1.03-11.18,3.05-4.04,2.31-7.73,5.96-10.54,10.83v14.77h5.56v10.09h-5.56v35.26Z"/>
      <path class="cls-2" d="m149.06,302.71c6.84,5.32,13.99,10.34,21.32,15.07,7.34-4.73,14.48-9.75,21.32-15.07v-42.1h-5.56v-10.09h5.56v-14.77c-2.71-4.73-6.25-8.22-10.19-10.49-3.5-1.97-7.34-3.4-11.13-3.4s-7.63,1.43-11.13,3.4c-3.94,2.27-7.49,5.76-10.19,10.49v14.77h5.56v10.09h-5.56v42.1Z"/>
      <path class="cls-4" d="m125.23,214.86c3,.69,6.65,1.87,9.46,3.5,3.69,2.12,7.14,5.02,10.19,8.67,2.91-3.5,6.21-6.3,9.75-8.32,3.15-1.82,6.45-3.15,9.85-3.84h-39.25Z"/>
      <path class="cls-4" d="m83.08,223.62c.39.79.79,1.57,1.18,2.36.98,1.92,2.02,3.84,3.05,5.71h2.41c1.82-3.1,3.89-5.81,6.16-8.08h-12.8Z"/>
      <path class="cls-4" d="m87.71,232.44c.59,1.09,1.23,2.12,1.82,3.2v-3.2h-1.82Z"/>
      <path class="cls-4" d="m253.46,231.7c1.03-1.87,2.07-3.79,3.05-5.71.39-.79.79-1.58,1.18-2.36h-12.81c2.27,2.27,4.33,4.97,6.16,8.08h2.41Z"/>
      <path class="cls-4" d="m251.25,235.64c.59-1.08,1.23-2.12,1.82-3.2h-1.82v3.2Z"/>
      <path class="cls-4" d="m90.27,236.87c2.22,3.74,4.53,7.39,6.99,10.98v-13.1c2.07-4.18,6.16-8.32,10.19-10.64,3.59-2.02,7.53-3.05,11.47-3,3.94.05,7.88,1.08,11.52,3.2,4.33,2.46,8.67,6.84,10.93,11.28v14.92h6.94v-14.92c2.07-4.14,6.6-8.62,10.59-10.93,3.64-2.07,7.58-3.54,11.47-3.54s7.83,1.48,11.47,3.54c3.99,2.32,8.52,6.8,10.59,10.93v14.92h6.94v-14.92c2.27-4.43,6.6-8.82,10.93-11.28,3.64-2.12,7.58-3.15,11.52-3.2,3.94-.05,7.88.98,11.47,3,4.04,2.32,8.13,6.45,10.19,10.64v13.1c2.46-3.59,4.78-7.24,6.99-10.98v-4.68c-2.51-4.29-5.52-7.83-8.82-10.54-5.22-4.19-11.23-6.16-17.29-6.55-6.11-.44-12.36.64-17.97,3.89-4.14,2.36-7.53,5.47-10.54,9.16-2.86-3.55-6.16-6.55-10.1-8.87-4.87-2.76-10.14-4.38-15.41-4.38s-10.54,1.63-15.41,4.38c-3.94,2.32-7.24,5.32-10.1,8.87-3-3.69-6.4-6.8-10.54-9.16-5.61-3.25-11.87-4.33-17.97-3.89-6.06.39-12.07,2.36-17.28,6.55-3.3,2.71-6.3,6.25-8.82,10.54v4.68Z"/>
      <path class="cls-4" d="m261.83,214.86c-1.18,2.71-2.46,5.42-3.74,8.08h-7.24v-8.08h10.98Z"/>
      <path class="cls-4" d="m90.61,222.93h6.01c.64-.64,1.33-1.23,2.02-1.82,2.07-1.68,4.43-3.05,6.85-4.19,2.07-.93,4.97-1.67,7.04-2.07h-21.91v8.08Z"/>
      <path class="cls-4" d="m78.94,214.86c1.18,2.71,2.46,5.42,3.74,8.08h7.24v-8.08h-10.98Z"/>
      <rect class="cls-4" x="135.82" y="251.2" width="18.07" height="8.72"/>
      <rect class="cls-4" x="186.88" y="251.2" width="18.08" height="8.72"/>
      <path class="cls-4" d="m192.45,302.12c2.32-1.82,4.68-3.74,6.94-5.66v-35.85h-6.94v41.51Z"/>
      <path class="cls-4" d="m141.38,296.46c2.27,1.92,4.63,3.84,6.94,5.66v-41.51h-6.94v35.85Z"/>
      <path class="cls-2" d="m97.95,248.88c6.65,9.75,14.08,18.86,22.11,27.43,6.5,6.89,13.35,13.39,20.58,19.55v-35.26h-5.56v-10.09h5.56v-14.77c-2.81-4.88-6.5-8.52-10.54-10.83-3.55-2.02-7.39-3.05-11.18-3.05-3.84-.05-7.63.94-11.13,2.91-3.79,2.17-7.19,5.56-9.85,10.14v13.99Z"/>
      <polygon class="cls-4" points="146.8 110.55 146.8 104.3 151.82 104.3 151.82 110.55 160.88 110.55 160.88 104.3 165.91 104.3 165.91 110.55 174.87 110.55 174.87 104.3 179.89 104.3 179.89 110.55 188.95 110.55 188.95 104.3 193.98 104.3 193.98 110.55 203.04 110.55 203.04 104.3 208.01 104.3 208.01 115.28 132.76 115.28 132.76 104.3 137.74 104.3 137.74 110.55 146.8 110.55"/>
      <path class="cls-4" d="m160.54,196.54h19.7v-25.75c0-3.25-1.53-6.35-3.99-8.42-3.74-3.1-7.98-3.1-11.72,0-2.46,2.07-3.99,5.17-3.99,8.42v25.75Z"/>
      <rect class="cls-4" x="120.9" y="190.53" width="5.52" height="6.01"/>
      <rect class="cls-4" x="127.15" y="190.53" width="17.48" height="6.01"/>
      <rect class="cls-4" x="145.37" y="190.53" width="14.48" height="6.01"/>
      <rect class="cls-4" x="155.02" y="182.55" width="4.83" height="7.29"/>
      <polygon class="cls-4" points="154.28 182.55 143.5 182.55 143.5 182.55 142.81 182.55 142.81 182.55 136.8 182.55 136.8 189.84 154.28 189.84 154.28 182.55"/>
      <path class="cls-4" d="m136.06,182.55h-10.64c-1.48,1.82-3,3.6-4.53,5.27v2.02h15.17v-7.29Z"/>
      <rect class="cls-4" x="143.5" y="174.52" width="16.35" height="7.29"/>
      <path class="cls-4" d="m142.81,174.52h-11.38c-.74,1.03-1.48,2.07-2.17,3.05-1.08,1.43-2.17,2.86-3.25,4.24h16.79v-7.29Z"/>
      <path class="cls-4" d="m159.85,173.83v-3.05c0-1.48.25-2.91.79-4.24h-5.02v7.29h4.23Z"/>
      <rect class="cls-4" x="137.39" y="166.55" width="17.48" height="7.29"/>
      <path class="cls-4" d="m136.65,166.55h-.05c-1.48,2.46-3.05,4.88-4.68,7.29h4.73v-7.29Z"/>
      <path class="cls-4" d="m180.14,166.55c.54,1.33.79,2.76.79,4.24h0v3.05h4.23v-7.29h-5.02Z"/>
      <rect class="cls-4" x="185.9" y="166.55" width="17.48" height="7.29"/>
      <path class="cls-4" d="m204.12,173.83h4.73c-1.63-2.41-3.2-4.83-4.68-7.29h-.05v7.29Z"/>
      <rect class="cls-4" x="180.93" y="174.52" width="16.35" height="7.29"/>
      <path class="cls-4" d="m197.96,181.81h16.79c-1.08-1.38-2.17-2.81-3.25-4.24-.69-.98-1.43-2.02-2.17-3.05h-11.38v7.29Z"/>
      <rect class="cls-4" x="180.93" y="182.55" width="4.82" height="7.29"/>
      <polygon class="cls-4" points="186.49 189.84 203.97 189.84 203.97 182.55 197.96 182.55 197.96 182.55 197.28 182.55 197.28 182.55 186.49 182.55 186.49 189.84"/>
      <path class="cls-4" d="m204.71,189.84h15.17v-2.02c-1.53-1.67-3.05-3.45-4.53-5.27h-10.64v7.29Z"/>
      <rect class="cls-4" x="180.93" y="190.53" width="14.48" height="6.01"/>
      <rect class="cls-4" x="196.09" y="190.53" width="17.53" height="6.01"/>
      <rect class="cls-4" x="214.36" y="190.53" width="5.52" height="6.01"/>
      <path class="cls-4" d="m164.08,85.98c.15,2.76.34,5.71,1.18,8.08,2.12,6.11,8.13,6.11,10.24,0,.84-2.36,1.03-5.32,1.18-8.08h-12.61Z"/>
      <path class="cls-4" d="m158.17,109.82h1.97v-6.2h6.45v6.2h7.58v-6.2h6.45v6.2h1.97c.1-.44.15-.89.15-1.38,0-2.41-1.38-4.68-3.6-6.3-.34-.25-.74-.49-1.13-.69-.59,1.18-1.82,1.72-3.1,1.97-3.1.54-6.01.54-9.06,0-1.28-.25-2.51-.79-3.1-1.97-.39.2-.79.44-1.13.69-2.22,1.63-3.59,3.89-3.59,6.3,0,.49.05.94.15,1.38Z"/>
      <path class="cls-4" d="m163.39,101.1c.49.98,1.53,1.43,2.56,1.63,3,.54,5.86.54,8.86,0,1.03-.2,2.07-.64,2.56-1.63-4.24-2.22-9.75-2.17-13.99,0Z"/>
      <path class="cls-4" d="m177.43,85.98c-.15,2.81-.34,5.86-1.23,8.32-.2.49-.39.98-.64,1.43.59-.79,1.53-1.28,2.51-1.33v-8.42h-.64Z"/>
      <path class="cls-4" d="m162.71,85.98v8.42c.98.05,1.92.54,2.51,1.33-.25-.44-.44-.94-.64-1.43-.89-2.46-1.08-5.52-1.23-8.32h-.64Z"/>
      <polygon class="cls-4" points="166.45 83.37 159.5 77.51 162.46 85.24 178.32 85.24 181.27 77.51 174.33 83.37 170.39 75.74 166.45 83.37"/>
      <path class="cls-4" d="m165.17,97.75c0-1.43-1.18-2.66-2.66-2.66s-2.66,1.23-2.66,2.66,1.18,2.71,2.66,2.71,2.66-1.23,2.66-2.71Z"/>
      <path class="cls-3" d="m165.41,99.52c.94-.3,1.92-.49,2.95-.64-1.18-.54-2.07-1.38-2.76-2.41.15.39.25.84.25,1.28,0,.64-.15,1.23-.44,1.77Z"/>
      <path class="cls-3" d="m175.16,96.47c-.69,1.03-1.58,1.87-2.76,2.41,1.03.15,2.02.34,2.95.64-.3-.54-.44-1.13-.44-1.77,0-.44.05-.89.25-1.28Z"/>
      <path class="cls-4" d="m178.27,100.46c1.48,0,2.66-1.23,2.66-2.71s-1.18-2.66-2.66-2.66-2.66,1.23-2.66,2.66,1.23,2.71,2.66,2.71Z"/>
      <path class="cls-4" d="m195.06,141.78v-25.75h-49.34v25.75h7.19v-11.28c0-6.7,10.34-6.7,10.34,0v11.28h14.28v-11.28c0-6.7,10.34-6.7,10.34,0v11.28h7.19Z"/>
      <path class="cls-1" d="m170.39,94.65c.59,0,1.18.1,1.63.25.54.2.89.49.89.89s-.34.69-.89.94c-.44.15-1.04.25-1.63.25s-1.18-.1-1.63-.25c-.54-.25-.89-.54-.89-.94s.35-.69.89-.89c.44-.15,1.03-.25,1.63-.25Z"/>
      <path class="cls-1" d="m167.33,87.26c1.18,0,2.17.98,2.17,2.17s-.98,2.22-2.17,2.22-2.22-.99-2.22-2.22.98-2.17,2.22-2.17Z"/>
      <path class="cls-1" d="m173.44,87.26c1.23,0,2.22.98,2.22,2.17s-.98,2.22-2.22,2.22-2.17-.99-2.17-2.22.98-2.17,2.17-2.17Z"/>
      <path class="cls-3" d="m60.92,60.92v70.62c.34,17.09,2.51,33.54,6.35,49.2,1.33,5.37,2.86,10.69,4.58,15.81h48.31v-9.01c3.05-3.25,5.86-6.8,8.52-10.39,2.76-3.74,5.37-7.68,7.73-11.72,2.31-3.79,4.23-7.78,5.71-11.87,1.43-3.84,2.41-7.78,2.91-11.72v-25.8h-13v-12.41h6.45v6.2h7.63v-6.2h6.45v6.2h4.88c-.05-.44-.1-.89-.1-1.38,0-2.66,1.48-5.12,3.89-6.84.2-.2.44-.34.69-.49-1.63-.3-2.81-1.67-2.81-3.35s1.23-3.05,2.86-3.3v-8.52l-4.24-10.78,8.52,7.09,4.14-8.03,4.14,8.03,8.52-7.09-4.23,10.78v8.52c1.62.25,2.86,1.63,2.86,3.3s-1.23,3.05-2.81,3.35c.25.15.49.3.69.49,2.41,1.72,3.89,4.19,3.89,6.84,0,.49-.05.94-.1,1.38h4.88v-6.2h6.45v6.2h7.63v-6.2h6.45v12.41h-13v25.8c.49,3.94,1.48,7.88,2.9,11.72,1.48,4.09,3.4,8.08,5.71,11.87,2.36,4.04,4.97,7.98,7.73,11.72,2.66,3.59,5.47,7.14,8.52,10.39v9.01h48.31c1.72-5.12,3.25-10.44,4.58-15.81,3.84-15.66,6.01-32.11,6.35-49.2V60.92H60.92Z"/>
      <path class="cls-4" d="m170.39,95.34c-.54,0-1.03.1-1.38.2-.25.1-.39.2-.39.25s.15.15.39.25c.34.15.84.2,1.38.2s1.03-.05,1.38-.2c.25-.1.39-.2.39-.25s-.15-.15-.39-.25c-.34-.1-.84-.2-1.38-.2Z"/>
      <path class="cls-4" d="m167.33,87.95c-.84,0-1.53.69-1.53,1.48,0,.84.69,1.48,1.53,1.48.79,0,1.48-.64,1.48-1.48,0-.79-.69-1.48-1.48-1.48Z"/>
      <circle class="cls-4" cx="173.44" cy="89.43" r="1.48" transform="translate(-12.05 28.84) rotate(-9.19)"/>
      <path class="cls-4" d="m189.1,149.8h7.58c-.69-2.41-1.23-4.88-1.57-7.29h-6.01v7.29Z"/>
      <rect class="cls-4" x="175.56" y="142.51" width="12.85" height="7.29"/>
      <rect class="cls-4" x="166.1" y="142.51" width="8.77" height="7.29"/>
      <rect class="cls-4" x="148.18" y="142.51" width="17.24" height="7.29"/>
      <path class="cls-4" d="m145.67,142.51c-.35,2.41-.89,4.88-1.58,7.29h3.4v-7.29h-1.82Z"/>
      <path class="cls-4" d="m153.55,150.49h-9.65c-.34,1.13-.69,2.22-1.08,3.3-.49,1.33-1.03,2.66-1.63,3.99h12.36v-7.29Z"/>
      <rect class="cls-4" x="154.24" y="150.49" width="16.64" height="7.29"/>
      <rect class="cls-4" x="171.52" y="150.49" width="11.08" height="7.29"/>
      <path class="cls-4" d="m199.59,157.78c-.59-1.33-1.13-2.66-1.63-3.99-.39-1.08-.74-2.17-1.08-3.3h-13.59v7.29h16.3Z"/>
      <path class="cls-4" d="m145.22,158.52h-4.38c-1.08,2.46-2.36,4.92-3.79,7.29h8.17v-7.29Z"/>
      <path class="cls-4" d="m163.05,158.52h-17.14v7.29h15.07c.54-1.13,1.23-2.12,2.07-3v-4.28Z"/>
      <path class="cls-4" d="m190.09,165.81h13.64c-1.43-2.36-2.71-4.83-3.79-7.29h-9.85v7.29Z"/>
      <path class="cls-4" d="m164.13,161.77c3.99-3.3,8.52-3.3,12.51,0,1.33,1.18,2.36,2.41,3.15,4.04h9.6v-7.29h-25.66v3.64c.15-.15.25-.25.39-.39Z"/>
      <path class="cls-4" d="m260.55,214.12h1.63c1.13-2.66,2.27-5.37,3.3-8.08h-4.92v8.08Z"/>
      <rect class="cls-4" x="239.03" y="206.04" width="20.88" height="8.08"/>
      <rect class="cls-4" x="218.25" y="206.04" width="20.09" height="8.08"/>
      <rect class="cls-4" x="192.74" y="206.04" width="24.82" height="8.08"/>
      <rect class="cls-4" x="164.48" y="206.04" width="27.58" height="8.08"/>
      <rect class="cls-4" x="143.35" y="206.04" width="20.44" height="8.08"/>
      <rect class="cls-4" x="122.77" y="206.04" width="19.89" height="8.08"/>
      <rect class="cls-4" x="101.84" y="206.04" width="20.24" height="8.08"/>
      <rect class="cls-4" x="80.86" y="206.04" width="20.29" height="8.08"/>
      <path class="cls-4" d="m75.3,206.04c1.03,2.71,2.17,5.42,3.3,8.08h1.63v-8.08h-4.92Z"/>
      <path class="cls-4" d="m91.15,197.28h-19.06c.94,2.71,1.87,5.37,2.91,8.08h16.15v-8.08Z"/>
      <rect class="cls-4" x="91.79" y="197.28" width="19.45" height="8.08"/>
      <rect class="cls-4" x="111.93" y="197.28" width="20.44" height="8.08"/>
      <rect class="cls-4" x="133.06" y="197.28" width="19.99" height="8.08"/>
      <rect class="cls-4" x="153.74" y="197.28" width="20.14" height="8.08"/>
      <rect class="cls-4" x="174.57" y="197.28" width="27.53" height="8.08"/>
      <rect class="cls-4" x="202.79" y="197.28" width="25.26" height="8.08"/>
      <rect class="cls-4" x="228.74" y="197.28" width="20.24" height="8.08"/>
      <path class="cls-4" d="m265.77,205.35c.99-2.71,1.97-5.37,2.91-8.08h-19.06v8.08h16.15Z"/>
      <path class="cls-4" d="m215.55,214.86c-3,.69-6.65,1.87-9.46,3.5-3.69,2.12-7.14,5.02-10.19,8.67-2.91-3.5-6.21-6.3-9.75-8.32-3.15-1.82-6.45-3.15-9.85-3.84h39.25Z"/>
      <path class="cls-4" d="m250.16,222.93h-6.01c-.64-.64-1.33-1.23-2.02-1.82-2.07-1.68-4.43-3.05-6.85-4.19-2.07-.93-4.97-1.67-7.04-2.07h21.91v8.08Z"/>
    </g>
  </g>
</svg>