<?xml version="1.0" encoding="UTF-8"?>
<svg id="Layer_2" data-name="Layer 2" xmlns="http://www.w3.org/2000/svg" viewBox="0 0 304.9 304.9">
  <defs>
    <style>
      .cls-1, .cls-2, .cls-3, .cls-4, .cls-5, .cls-6 {
        stroke-width: 0px;
      }

      .cls-2 {
        fill: #f39e02;
      }

      .cls-3 {
        fill: #fc2723;
      }

      .cls-4 {
        fill: #110e80;
      }

      .cls-5 {
        fill: #af091d;
      }

      .cls-6 {
        fill: #fff;
      }
    </style>
  </defs>
  <g id="Layer_1-2" data-name="Layer 1">
    <g>
      <path class="cls-4" d="m44.65,44.65C15.85,73.45,0,111.73,0,152.45s15.85,79.01,44.65,107.8c28.79,28.79,67.08,44.65,107.8,44.65s79.01-15.86,107.8-44.65c28.79-28.79,44.65-67.08,44.65-107.8s-15.86-79-44.65-107.8C231.46,15.86,193.17,0,152.45,0S73.45,15.86,44.65,44.65Z"/>
      <path class="cls-1" d="m47.99,256.92C20.08,229.01,4.71,191.91,4.71,152.45s15.36-76.56,43.27-104.47C75.89,20.08,112.99,4.71,152.45,4.71s76.56,15.36,104.46,43.27c27.91,27.9,43.27,65.01,43.27,104.47s-15.36,76.56-43.27,104.47c-27.9,27.9-65,43.26-104.46,43.26s-76.56-15.36-104.46-43.26Z"/>
      <path class="cls-3" d="m291.36,152.45c0-76.71-62.19-138.91-138.91-138.91S13.54,75.74,13.54,152.45s62.19,138.91,138.9,138.91,138.91-62.2,138.91-138.91Z"/>
      <path class="cls-6" d="m153.87,266.5l3.46-.11.29,9.16c.05,1.38.16,2.24.34,2.57.19.32.5.47.94.46.45-.01.75-.19.91-.54.16-.35.22-1.2.17-2.56l-.3-9.16,3.39-.11.3,9.32c.03,1.06.01,1.85-.06,2.38-.07.53-.21.99-.4,1.38-.33.67-.82,1.17-1.46,1.49-.64.33-1.5.52-2.56.55-.97.03-1.77-.09-2.39-.36-.62-.27-1.13-.71-1.5-1.33-.28-.44-.47-1.01-.6-1.71-.12-.69-.22-1.88-.27-3.55l-.25-7.87Z"/>
      <path class="cls-6" d="m167.1,280.53l-1.93-14.49,3.54-.47,4,8.57c-.31-1.5-.57-2.78-.77-3.87-.2-1.08-.35-2-.44-2.75l-.31-2.28,3.02-.4,1.93,14.49-3.54.47-4.06-8.84c.28,1.18.54,2.33.75,3.45.21,1.12.39,2.2.53,3.26l.33,2.45-3.05.4Z"/>
      <path class="cls-6" d="m179.62,278.61l-3.05-14.3,3.35-.72,3.05,14.31-3.35.71Z"/>
      <path class="cls-6" d="m184.05,270.21c-.5-1.69-.8-2.93-.91-3.75s-.09-1.48.06-2c.21-.74.6-1.36,1.16-1.85.56-.5,1.29-.87,2.21-1.14.92-.27,1.74-.35,2.47-.24.73.11,1.39.42,1.97.91.42.36.81.91,1.16,1.65.35.74.78,1.95,1.28,3.63.5,1.67.8,2.92.91,3.74.11.81.08,1.49-.07,2.02-.21.73-.6,1.34-1.15,1.84-.56.5-1.29.88-2.2,1.15-.91.27-1.73.35-2.47.24-.74-.11-1.4-.41-1.99-.91-.41-.35-.79-.9-1.14-1.64-.35-.74-.78-1.95-1.28-3.64Zm.79-9.14l1.04-3.13,2.68-.79-2.41,3.54-1.31.38Zm5.62,8.62l-.75-2.53c-.46-1.55-.84-2.49-1.15-2.79-.3-.31-.72-.38-1.23-.24-.51.15-.79.44-.88.88-.08.43.11,1.41.56,2.95l.75,2.53c.45,1.51.83,2.44,1.14,2.76.3.33.72.42,1.23.27.51-.15.8-.44.88-.88.08-.43-.1-1.41-.56-2.95Z"/>
      <path class="cls-6" d="m204.53,270.95l-6.15-13.27,7.21-3.35,1.2,2.58-4.13,1.92,1.13,2.44,3.81-1.77,1.23,2.66-3.81,1.77,1.34,2.9,4.13-1.92,1.25,2.7-7.21,3.35Z"/>
      <path class="cls-6" d="m211.79,262.01l2.71-1.57.21.37c.4.7.77,1.13,1.1,1.32.33.19.69.17,1.08-.05.31-.18.5-.43.55-.75.06-.32-.03-.66-.24-1.04-.36-.61-1.13-.95-2.34-1-.2-.02-.35-.03-.45-.03-.04,0-.11,0-.19-.01-1.65-.11-2.74-.29-3.27-.53-.38-.19-.74-.44-1.08-.76-.33-.32-.63-.71-.89-1.17-.64-1.1-.82-2.16-.55-3.16.28-1,.98-1.82,2.1-2.47,1.22-.71,2.33-.93,3.33-.68,1,.25,1.84.96,2.52,2.13.03.05.07.12.11.21.05.09.08.16.11.21l-2.65,1.53-.09-.16c-.32-.56-.65-.93-.99-1.12-.34-.18-.67-.18-1,.01-.28.15-.44.39-.5.68-.05.3.01.61.2.94.31.53,1.12.83,2.43.87.24.01.42.03.55.03.1,0,.25,0,.44.02,1.41.06,2.39.23,2.94.51.35.19.68.43.99.74.31.32.59.69.84,1.12.73,1.27.97,2.43.71,3.49-.26,1.07-1,1.95-2.23,2.66-1.28.75-2.44.97-3.45.69-1.02-.29-1.91-1.07-2.66-2.36-.05-.09-.1-.17-.14-.26-.05-.09-.12-.24-.22-.45Z"/>
      <path class="cls-6" d="m224.42,260.27l-8.45-11.93,2.74-1.94c1.01-.72,1.79-1.2,2.33-1.46s1.05-.4,1.53-.42c.63-.04,1.24.12,1.85.49.6.37,1.17.92,1.68,1.64.86,1.21,1.19,2.36,1,3.44-.19,1.07-.91,2.05-2.14,2.92l-.98.69,3.24,4.58-2.81,1.99Zm-2.01-8.79s.1-.05.15-.09c.06-.03.14-.09.23-.16.56-.39.87-.81.93-1.24.06-.43-.11-.94-.52-1.52-.34-.48-.72-.73-1.13-.76-.41-.02-.92.19-1.54.61l-.24.17,2.11,2.98Z"/>
      <path class="cls-6" d="m229.31,247.73c-1.15-1.33-1.95-2.34-2.38-3.04-.43-.7-.7-1.31-.77-1.84-.11-.76,0-1.48.3-2.17.31-.68.82-1.33,1.53-1.95.73-.63,1.44-1.04,2.15-1.24.71-.2,1.44-.19,2.17.02.53.16,1.11.5,1.74,1.02.63.53,1.51,1.46,2.66,2.79,1.14,1.32,1.94,2.33,2.38,3.02.43.7.69,1.32.76,1.87.11.76,0,1.48-.29,2.15-.3.68-.81,1.33-1.53,1.95-.72.62-1.44,1.04-2.16,1.24-.72.2-1.45.2-2.18-.01-.52-.15-1.09-.49-1.72-1.02-.63-.53-1.51-1.46-2.67-2.79Zm5.63-3.13l-1.73-2c-1.06-1.22-1.8-1.92-2.2-2.07-.4-.15-.81-.06-1.22.29-.4.35-.54.73-.44,1.16.1.43.68,1.25,1.73,2.46l1.73,1.99c1.04,1.2,1.76,1.89,2.17,2.05.42.17.83.08,1.24-.27.4-.34.55-.74.44-1.17-.1-.42-.68-1.25-1.72-2.45Z"/>
      <path class="cls-6" d="m245.2,238.01c-.65-.62-1.17-.95-1.58-1.01-.4-.06-.81.14-1.22.58l-.48.51,4.25,4.02-2.33,2.46-10.62-10.05,2.64-2.79c.87-.91,1.53-1.54,2.01-1.87.48-.33.94-.53,1.39-.59.53-.07,1.05,0,1.56.19.51.2,1.01.53,1.51,1.01.61.58,1.02,1.17,1.23,1.77.21.6.24,1.26.08,1.96,1.07-.45,2.26-.09,3.57,1.08.02.02.03.03.03.03.14.12.33.3.59.53,1.22,1.12,1.76,1.56,2.33,2.03l-2.37,2.51m-7.85-4.14s.09-.09.16-.16c.07-.06.12-.11.15-.14.48-.51.73-.97.72-1.38,0-.41-.25-.84-.74-1.31-.45-.42-.87-.63-1.27-.59-.39.03-.83.3-1.32.82-.03.03-.07.09-.13.16-.06.07-.11.12-.15.17l2.58,2.44Z"/>
      <path class="cls-6" d="m253.43,233.91l-9.26-7.29-1.69,2.15-2.23-1.76,5.59-7.1,2.23,1.76-1.79,2.26,9.26,7.29-2.12,2.69Z"/>
      <path class="cls-6" d="m258.77,226.82l-12.08-8.24,1.92-2.82,12.08,8.23-1.92,2.83Z"/>
      <path class="cls-6" d="m263.77,219.12l-14.3-4.48,1.8-3.13,7.29,2.75c.32.12.74.29,1.27.51s1.08.46,1.68.73l-.14-.12c-1.23-.91-2.03-1.51-2.39-1.79l-6.03-4.97,1.8-3.13,11.01,10.19-1.99,3.46Z"/>
      <path class="cls-6" d="m267.86,211.95l-11.94-9.03,1.71-3.69,14.6,3.27-1.43,3.11-2.72-.79-1.13,2.44,2.36,1.56-1.45,3.13Zm-3.16-6.11l.82-1.79-6.21-1.79,5.38,3.58Z"/>
      <path class="cls-6" d="m268.21,192.39c-1.69-.49-2.9-.92-3.65-1.27-.74-.35-1.29-.73-1.64-1.14-.5-.58-.81-1.24-.92-1.98-.11-.74-.03-1.56.24-2.47.27-.92.65-1.65,1.14-2.21.48-.55,1.1-.94,1.84-1.16.53-.16,1.2-.19,2.01-.08.81.11,2.06.4,3.75.9,1.68.49,2.89.91,3.63,1.26.75.35,1.3.74,1.66,1.16.5.58.8,1.23.92,1.97.12.73.04,1.56-.23,2.47-.27.91-.65,1.64-1.14,2.2-.5.56-1.11.96-1.84,1.17-.52.15-1.19.17-2,.07-.82-.11-2.07-.41-3.76-.91Zm3.04-5.68l-2.53-.74c-1.56-.45-2.55-.64-2.97-.55-.43.09-.72.39-.87.91-.15.51-.06.91.26,1.22.32.3,1.25.68,2.79,1.13l2.53.74c1.52.45,2.5.63,2.95.55.44-.08.74-.38.89-.9.15-.51.07-.92-.25-1.21-.32-.31-1.25-.69-2.79-1.13Z"/>
      <path class="cls-6" d="m280.13,174.46l-1.45,7.39-14.34-2.81.66-3.35,11.45,2.25.79-4.04,2.89.56Z"/>
      <path class="cls-6" d="m273.15,172.01c-1.75-.19-3.01-.39-3.81-.6-.79-.21-1.39-.49-1.82-.83-.6-.48-1.01-1.08-1.25-1.79-.24-.71-.31-1.54-.2-2.48.11-.95.35-1.74.73-2.37.38-.63.92-1.12,1.6-1.46.5-.25,1.15-.4,1.97-.43.82-.04,2.1.04,3.84.22,1.74.19,3,.39,3.79.6.8.22,1.41.5,1.84.85.59.48,1,1.07,1.25,1.77.24.71.31,1.53.21,2.47-.1.95-.35,1.74-.74,2.38-.39.64-.92,1.13-1.6,1.48-.48.23-1.13.38-1.96.42-.82.04-2.1-.04-3.85-.23Zm1.99-6.11l-2.62-.29c-1.61-.17-2.62-.18-3.02-.01-.4.16-.63.51-.69,1.04-.05.52.1.9.46,1.15.37.24,1.35.45,2.94.63l2.62.28c1.57.17,2.57.18,2.99.02.42-.16.66-.5.72-1.04.06-.53-.1-.91-.46-1.15-.37-.24-1.35-.45-2.94-.62Z"/>
      <path class="cls-6" d="m281.64,158.02l-11.78-.2-.05,2.73-2.84-.05.15-9.02,2.83.05-.05,2.88,11.79.19-.06,3.43Z"/>
      <path class="cls-6" d="m59.47,87.04l-8.41-6.05-1.75,2.43-1.86-1.33.09-.13c.63-.87.97-1.69,1.01-2.46.04-.76-.2-1.47-.74-2.12l1.35-1.88,12.27,8.81-1.96,2.72Z"/>
      <path class="cls-6" d="m63.92,72.43c-.07.43-.19.83-.35,1.18-.16.35-.37.67-.62.95-.73.83-1.57,1.18-2.51,1.07-.94-.11-1.99-.69-3.18-1.74-1.37-1.22-2.15-2.4-2.33-3.54-.19-1.14.21-2.27,1.21-3.39.48-.54.98-.95,1.51-1.22.52-.28,1.08-.43,1.66-.44.64-.02,1.32.19,2.06.6.73.42,1.88,1.31,3.43,2.69,1.35,1.21,2.29,2.1,2.81,2.69.52.59.88,1.12,1.09,1.6.3.69.35,1.4.16,2.16-.19.75-.61,1.5-1.27,2.24-.88.98-1.81,1.52-2.79,1.61-.98.09-1.94-.28-2.87-1.1l2.13-2.38c.35.3.68.46.96.5.29.03.54-.08.76-.32.27-.3.33-.64.17-1-.16-.37-.57-.85-1.24-1.45-.21-.18-.37-.32-.48-.42-.11-.1-.22-.19-.32-.27Zm-3.23-2.98c-.68-.6-1.21-.96-1.61-1.07-.4-.12-.74-.02-1.02.31-.25.28-.29.6-.12.96.17.36.61.86,1.33,1.49.68.61,1.22.97,1.61,1.1.39.12.72.03.99-.28.27-.3.33-.63.18-.98-.15-.34-.61-.86-1.36-1.53Z"/>
      <path class="cls-6" d="m72.46,71.56l-.16-.18c-.38-.42-.72-.88-1-1.38-.28-.49-.51-1.04-.69-1.64-.39-1.23-.56-2.67-.49-4.31.01-.24.02-.41.02-.52v-.13c.04-1.84-.28-3.13-.95-3.87-.31-.34-.62-.54-.92-.6-.3-.06-.58.02-.83.25-.36.33-.48.71-.37,1.16.11.45.47,1,1.06,1.65l.18.2-2.3,2.1-.27-.3c-1.09-1.19-1.63-2.37-1.62-3.54,0-1.17.56-2.25,1.65-3.25.99-.9,2.01-1.33,3.07-1.29,1.05.04,2.03.54,2.91,1.51.52.57.9,1.23,1.13,1.96.23.74.33,1.6.3,2.6,0,.21-.02.53-.04.95-.11,1.72,0,2.98.29,3.77l3.68-3.35,1.99,2.18-6.62,6.04Z"/>
      <path class="cls-6" d="m84.24,61.51l-6.15-8.34-2.41,1.78-1.36-1.84.13-.1c.87-.64,1.44-1.31,1.72-2.02.28-.72.26-1.46-.06-2.25l1.86-1.37,8.96,12.16-2.69,1.99Z"/>
      <circle class="cls-1" cx="152.45" cy="152.45" r="103.87" transform="translate(-63.15 152.45) rotate(-45)"/>
      <path class="cls-4" d="m254.74,152.42c0-56.2-45.37-101.8-101.48-102.19v204.39c56.11-.39,101.48-45.99,101.48-102.2Z"/>
      <path class="cls-3" d="m50.35,153.3c.47,55.79,45.64,100.92,101.45,101.32v-101.32H50.35Z"/>
      <path class="cls-3" d="m118.47,151.83V56.04c-3.91,1.38-7.71,3-11.39,4.82v90.96h11.39Z"/>
      <path class="cls-3" d="m95.71,151.83v-84.36c-4.01,2.69-7.81,5.65-11.39,8.86v75.5h11.39Z"/>
      <path class="cls-3" d="m72.95,151.83v-63.52c-4.33,5.37-8.13,11.18-11.32,17.37v46.15h11.32Z"/>
      <path class="cls-3" d="m141.16,151.83V50.85c-3.84.43-7.62,1.06-11.32,1.9v99.08h11.32Z"/>
      <path class="cls-2" d="m107.08,151.83V60.86c-3.94,1.96-7.74,4.17-11.37,6.6v84.36h11.37Z"/>
      <path class="cls-2" d="m84.32,151.83v-75.5c-4.1,3.68-7.9,7.69-11.37,11.98v63.52h11.37Z"/>
      <path class="cls-2" d="m129.84,151.83V52.75c-3.88.88-7.67,1.98-11.37,3.29v95.79h11.37Z"/>
      <path class="cls-2" d="m151.8,151.83V50.23c-3.59.03-7.14.24-10.64.62v100.98h10.64Z"/>
      <path class="cls-2" d="m61.63,105.68c-7.13,13.84-11.19,29.52-11.28,46.15h11.28v-46.15Z"/>
      <path class="cls-5" d="m152.12,21.71c-23.43,0-45.42,6.17-64.43,16.96l3.35,5.9c18.03-10.23,38.88-16.08,61.08-16.08,64.81,0,117.99,49.74,123.46,113.13h6.81c-5.49-67.14-61.71-119.92-130.26-119.92Z"/>
      <path class="cls-5" d="m28.19,152.42c0-22.01,5.74-42.67,15.8-60.59l-5.93-3.3c-10.61,18.89-16.66,40.68-16.66,63.89,0,68.55,52.77,124.77,119.91,130.27v-6.81c-63.39-5.48-113.13-58.65-113.13-123.46Z"/>
      <path class="cls-5" d="m41.95,152.42c0-19.58,5.11-37.96,14.07-53.89l-6.09-3.39c-9.52,16.94-14.95,36.48-14.95,57.29,0,61.06,46.71,111.19,106.35,116.65v-7c-55.78-5.43-99.37-52.44-99.37-109.64Z"/>
      <path class="cls-5" d="m152.12,35.28c-20.99,0-40.69,5.52-57.73,15.19l3.45,6.06c16.02-9.09,34.54-14.29,54.28-14.29,57.2,0,104.22,43.6,109.64,99.38h7c-5.45-59.63-55.58-106.35-116.64-106.35Z"/>
      <path class="cls-1" d="m188.37,92.57c-1.59,2.76-3.23,5.62-5.51,7.79-8.07,7.73-19.09,9.94-19.21,9.97l-.35.07-.1.34c-.07.24-1.73,6-.48,17.23.3,2.78,1.8,2.66,3,2.56.86-.07,1.68-.13,2.46.59,2.17,2.01,3.27,9.43,3.27,22.07,0,10.38,9.96,15.04,11.76,15.8.37,1.62,2.37,10.64,5.73,28.53,3.16,16.86,10.3,30.59,14.32,31.16.52.07,1.49,0,2.13-1.28.58-1.17.78-3.42.78-6.29,0-3.08-.23-6.88-.47-10.78-.2-3.2-.46-7.49-.46-10.99,0-2.68.16-4.89.61-5.83.3,1.26,1.03,3.37,2.68,4.34,1.07.63,2.33.66,3.73.1.74-.3,1.03-1.71,1.03-5.26,0-2.14-.11-5.07-.29-8.99-.12-2.52-.25-5.43-.25-7.42,0-.4,0-.76.02-1.07,1.32,3.13,2.55,4.54,3.86,4.37,2.44-.31,3.36-6.5,3.52-7.73.03-.37,2.16-33.63.92-55.91-1.29-23.24-4.39-34.31-18.51-34.31-7.9,0-11.11,5.56-14.2,10.93Z"/>
      <path class="cls-6" d="m183.67,101.22c2.4-2.3,4.09-5.22,5.72-8.06,3.07-5.32,5.96-10.34,13.18-10.34,13.17,0,16.08,10.71,17.33,33.19,1.23,22.21-.89,55.4-.92,55.73-.4,3.1-1.47,6.55-2.49,6.68-.19.02-1.2-.06-2.82-4.11-.21-.53-.56-1.41-1.27-1.25-.58.12-.82.68-.82,3.31,0,1.58.09,3.93.24,7.39.13,2.75.29,6.3.29,9.03,0,2.09-.1,3.68-.38,4.1-1.02.39-1.87.38-2.6-.04-1.85-1.09-2.3-4.44-2.31-4.47l-.07-.6-.6.09c-2.59.42-2.3,7.31-1.62,18.53.43,7.05.87,14.34-.19,16.47-.36.73-.75.67-.92.65-3.17-.45-10.16-13.33-13.33-30.21-3.71-19.8-5.79-28.78-5.8-28.87l-.08-.31-.3-.11c-.11-.04-11.29-4.29-11.29-14.82,0-17.53-2.09-21.48-3.65-22.93-1.16-1.08-2.43-.98-3.36-.9-1.16.09-1.56.12-1.74-1.52-.33-2.97-.45-5.55-.45-7.74,0-4.88.59-7.79.81-8.69,1.99-.44,11.82-2.9,19.43-10.19Z"/>
      <path class="cls-1" d="m109.1,165.27c12.96-.61,22.98,7.42,27,17.23,7,17.09-5.18,33.3-17.59,37.15-8,2.48-17.31.67-22.9-2.92-7.11-4.55-12.99-13.45-13.01-23.54-.03-12.41,7.2-21.48,15.67-25.49,2.81-1.34,6.12-2.21,10.85-2.43Z"/>
      <path class="cls-6" d="m101.63,167.7c-.37.99-.64,2.1-.72,3.39,3.84.34,7.34,1.03,9.88,2.67,2.52-1.34,5.71-2.02,9.4-2.19.06-1.36.05-2.64-.48-3.4-4.72-2.45-12.77-2.24-18.08-.48Z"/>
      <path class="cls-6" d="m121.63,169.16c-.46.58-.71,1.39-.72,2.42,2.88,2.19,5.21,4.95,7.23,8.02,1.98.51,3.69,1.29,5.54,1.94-2.04-5.67-6.88-10.17-12.06-12.38Z"/>
      <path class="cls-6" d="m101.15,171.82c-3.22.37-8.78,6.11-9.16,7.77-.73,3.24,1.05,6.57,1.45,9.95,3.14.72,6.45,1.27,9.16,2.42,1.63-.74,2.6-2.52,4.34-4.13,1.21-1.11,4.16-2.62,4.58-4.12.34-1.22-.27-3.29-.48-4.86-.21-1.49-.57-3-.72-4.61-2.61-1.18-5.93-2.8-9.16-2.43Z"/>
      <path class="cls-6" d="m87.17,180.08c-2.34,4.33-4.45,12.5-2.17,18.45,1.08.62,2.73.52,4.1.24.11-1.94.79-3.34,1.45-4.85.68-1.56,2.04-2.97,2.17-4.37.11-1.29-.73-2.98-.96-4.62-.24-1.62-.46-3.32-.48-5.33-1.64-.51-2.76.07-4.1.48Z"/>
      <path class="cls-6" d="m136.34,194.4c.54-4.06-1.48-8.12-2.41-11.41-1.69-1.21-3.58-2.22-6.03-2.67-1.27,2.69-2.87,5.04-4.58,7.28,1.14,3.63,2.23,7.3,2.41,11.89,2.43.62,4.26,1.86,6.51,2.67,1.6-1.93,3.67-4.52,4.09-7.77Z"/>
      <path class="cls-6" d="m112.24,184.44c-.29.12-.55.26-.72.49-1.26,1.21-2.82,2.23-4.34,3.64-1.07.99-3.4,2.9-3.62,4.37-.22,1.47.8,3.55,1.2,5.34.41,1.78.67,3.57,1.21,5.34,3.22,1.53,6.82,2.68,10.85,3.4,2.07-2.06,7.53-4.67,8.19-7.77.37-1.73-.32-4.29-.73-6.06-.42-1.86-1.14-3.64-1.69-5.35-3.23-1.36-6.62-2.55-10.36-3.4Z"/>
      <path class="cls-6" d="m132.72,202.66c-.17,2.01-1.21,4.44-1.2,5.82,1.54-2.66,3.86-5.82,3.86-9.23-.66,1.36-1.58,2.46-2.65,3.4Z"/>
      <path class="cls-6" d="m85.24,199.98c1.21,5.55,4.59,9.83,8.19,12.86,1.23,1.04,2.66,2.93,4.58,2.19-.96-1.87-1.69-3.96-1.69-6.79-1.43-1.32-3.08-2.33-4.34-3.89-1.2-1.47-1.74-3.46-3.14-4.85-1.14.23-2.56.17-3.61.49Z"/>
      <path class="cls-6" d="m105.73,204.35c-2.44.95-6.28,2.58-8.92,4.13.92,2.44.39,5.2,2.17,7.03.53.56,2.62,1.34,4.34,1.95,5.5,1.97,13.12,1.18,15.18-3.16-.71-2.03-1.24-4.25-1.69-6.55-4.12-.7-7.67-1.98-11.09-3.4Z"/>
      <path class="cls-6" d="m118.74,215.28c-1.05,1.69-3.04,2.44-4.58,3.64,4.69-.62,8.33-2.29,11.33-4.62-2.14.43-4.36.8-6.75.97Z"/>
    </g>
  </g>
</svg>