<?xml version="1.0" encoding="UTF-8"?>
<svg id="Layer_2" data-name="Layer 2" xmlns="http://www.w3.org/2000/svg" viewBox="0 0 33.56 15.5">
  <defs>
    <style>
      .cls-1, .cls-2, .cls-3, .cls-4, .cls-5 {
        stroke-width: 0px;
      }

      .cls-2 {
        fill: #00a651;
      }

      .cls-3 {
        fill: #fcb131;
      }

      .cls-4 {
        fill: #ee334e;
      }

      .cls-5 {
        fill: #0081c8;
      }
    </style>
  </defs>
  <g id="Layer_2-2" data-name="Layer 2">
    <g>
      <path class="cls-5" d="m5.3,10.6c-2.92,0-5.3-2.38-5.3-5.3S2.38,0,5.3,0s5.3,2.38,5.3,5.3-2.38,5.3-5.3,5.3ZM5.3.93C2.89.93.93,2.89.93,5.3s1.96,4.37,4.37,4.37,4.37-1.96,4.37-4.37S7.71.93,5.3.93Z"/>
      <path class="cls-1" d="m16.78,10.6c-2.92,0-5.3-2.38-5.3-5.3S13.86,0,16.78,0s5.3,2.38,5.3,5.3-2.38,5.3-5.3,5.3Zm0-9.67c-2.41,0-4.37,1.96-4.37,4.37s1.96,4.37,4.37,4.37,4.37-1.96,4.37-4.37-1.96-4.37-4.37-4.37Z"/>
      <path class="cls-4" d="m28.26,10.6c-2.92,0-5.3-2.38-5.3-5.3S25.34,0,28.26,0s5.3,2.38,5.3,5.3-2.38,5.3-5.3,5.3Zm0-9.67c-2.41,0-4.37,1.96-4.37,4.37s1.96,4.37,4.37,4.37,4.37-1.96,4.37-4.37-1.96-4.37-4.37-4.37Z"/>
      <path class="cls-3" d="m11.04,15.5c-2.92,0-5.3-2.38-5.3-5.3s2.38-5.3,5.3-5.3,5.3,2.38,5.3,5.3-2.38,5.3-5.3,5.3Zm0-9.67c-2.41,0-4.37,1.96-4.37,4.37s1.96,4.37,4.37,4.37,4.37-1.96,4.37-4.37-1.96-4.37-4.37-4.37Z"/>
      <path class="cls-2" d="m22.52,15.5c-2.92,0-5.3-2.38-5.3-5.3s2.38-5.3,5.3-5.3,5.3,2.38,5.3,5.3-2.38,5.3-5.3,5.3Zm0-9.67c-2.41,0-4.37,1.96-4.37,4.37s1.96,4.37,4.37,4.37,4.37-1.96,4.37-4.37-1.96-4.37-4.37-4.37Z"/>
      <path class="cls-5" d="m9.54,8.48l-.75-.56c1.16-1.54,1.16-3.7,0-5.24l.75-.56c1.4,1.87,1.4,4.49,0,6.36Z"/>
      <path class="cls-1" d="m16.78,10.6c-1.14,0-2.27-.38-3.18-1.06l.56-.75c.75.56,1.68.87,2.62.87v.93Zm4.24-2.12l-.75-.56c1.16-1.54,1.16-3.7,0-5.24l.75-.56c1.4,1.87,1.4,4.49,0,6.36Z"/>
      <path class="cls-4" d="m28.26,10.6c-1.14,0-2.27-.38-3.18-1.06l.56-.75c.75.56,1.68.87,2.62.87v.93Z"/>
    </g>
  </g>
</svg>