<?xml version="1.0" encoding="UTF-8"?>
<svg id="Layer_2" data-name="Layer 2" xmlns="http://www.w3.org/2000/svg" viewBox="0 0 330.09 425.19">
  <defs>
    <style>
      .cls-1 {
        fill: #231f20;
      }

      .cls-1, .cls-2, .cls-3, .cls-4, .cls-5, .cls-6 {
        fill-rule: evenodd;
        stroke-width: 0px;
      }

      .cls-2 {
        fill: #2e322d;
      }

      .cls-3 {
        fill: #a7a5a6;
      }

      .cls-4 {
        fill: #d92429;
      }

      .cls-5 {
        fill: #e1b422;
      }

      .cls-6 {
        fill: #fff;
      }
    </style>
  </defs>
  <g id="Layer_1-2" data-name="Layer 1">
    <g>
      <path class="cls-5" d="m0,126.62l83.11-54.52C88.32,31.43,123.07,0,165.15,0s76.94,31.54,82.06,72.29l82.88,54.32c-.48,22.29-3.24,42.63-6.95,63.02-7.07,38.92-19.16,75.3-35.66,106.71-12.8,24.35-30.37,48.3-47.18,67.44-23.53,26.8-46.3,46.92-75.01,61.41-22.24-10.47-52.17-33.82-79.91-66.54-17.21-20.3-33.81-43.91-46.27-69.56C17.94,245.53,3.28,191.97,0,126.62h0Z"/>
      <path class="cls-6" d="m10.16,132.04c2.79,45.24,11.79,90.12,28.96,132.08l272.58-68.87c.5-2.49.98-4.99,1.43-7.48,3.36-18.49,5.84-36.88,6.6-55.63l-82.45-53.95c-2.34-37.8-33.74-67.75-72.13-67.75s-69.63,29.79-72.11,67.45L10.16,132.04Zm51.09,175.76c9.48,15.55,20.4,30.31,32.09,44.1,18.56,21.89,45.47,47.76,71.83,61.58,26.43-14.29,47.38-33.92,67.29-56.59,17.27-19.66,33.58-42.2,45.78-65.41,7.37-14.03,13.68-28.71,18.99-43.76l-235.97,60.09Z"/>
      <path class="cls-5" d="m134.37,62.36l30.7-30.69,30.7,30.69-30.7,30.7-30.7-30.7Z"/>
      <path class="cls-4" d="m154.8,41.93l6.84-6.84v54.55l-6.84-6.85v-40.86Z"/>
      <path class="cls-4" d="m141.11,55.62l6.84-6.84v27.17l-6.84-6.84v-13.49Z"/>
      <path class="cls-4" d="m168.49,35.09l6.84,6.84v40.86l-6.84,6.84v-54.55Z"/>
      <path class="cls-4" d="m182.18,48.78l6.84,6.84v13.49l-6.84,6.84v-27.17Z"/>
      <path class="cls-3" d="m69.62,320.81c24.65-11.38,69.14-27.29,102.39-36.1,16.03-4.25,32.55-8.14,48.94-11.41,23.43-4.68,46.93-8.21,70.54-10.44,2.03-5,3.93-10.04,5.73-15.14l-235.97,60.09c2.68,4.4,5.48,8.73,8.38,13h0Z"/>
      <path class="cls-1" d="m179.02,277.82v127.39c-4.45,2.92-9.06,5.69-13.84,8.27-5.21-2.73-10.45-5.94-15.64-9.49v-118.67l29.48-7.51Z"/>
      <path class="cls-1" d="m237.95,262.81v87.7c-1.81,2.16-3.64,4.29-5.48,6.38-7.75,8.83-15.66,17.2-24,24.96v-111.54l29.48-7.51Z"/>
      <path class="cls-1" d="m267.72,309.77v-54.54l29.5-7.51c-5.3,15.06-11.61,29.74-18.99,43.76-3.23,6.16-6.76,12.27-10.52,18.29h0Z"/>
      <path class="cls-1" d="m120.43,292.74v87.61c-10.06-9.39-19.3-19.27-27.08-28.44-.81-.95-1.6-1.9-2.4-2.86v-48.8l29.48-7.51Z"/>
      <path class="cls-2" d="m26.12,226.69c2.68,1.37,5.48,2.2,8.11,2.38,4.08.28,6.98-.54,10.41-2.7,3.3-2.08,6.05-5.12,9.36-7.2,4-2.52,8.96-3.65,13.66-3.65,4.81,0,9.29,1.09,13.33,3.75,3.02,1.99,5.53,4.51,8.39,6.67,2.89,2.18,6.94,3.24,10.54,3.43,3.02.16,7.82-1.08,11.14-3.38,1.91-1.32,3.43-3.07,5.03-4.44,4.7-4.03,10.26-5.94,16.5-5.95,4.1,0,8.71.88,12.28,2.93,1.84,1.06,3.52,2.37,5.14,3.72,5.22,4.33,8.83,7.12,16.01,7.18,3.66.03,7.01-1.15,10-3.2,3.24-2.23,5.94-5.63,9.85-7.71,3.75-2,7.21-2.77,11.47-2.93,5.62-.21,11.4,1.68,15.47,4.66l-7.81,1.97c-2.42-.68-4.95-1-7.46-.9-3.47.13-6.29.73-9.51,1.98-3.35,1.29-5.95,3.36-8.15,5.27l-21.17,5.35c-.79-.32-1.59-.71-2.38-1.18-3.56-2.12-5.14-4.46-9.36-7.27-4.06-2.71-9.18-4.12-14.11-4.12-6.11,0-12.97,2.43-17.38,6.57-2.73,2.56-4.76,4.39-7.84,5.68-2.64,1.11-4.88,1.71-7.62,1.69-3.91-.03-7.45-.96-11.97-4.64-1.5-1.22-3.04-2.71-4.88-4.07-1.43-1.06-3.05-2.01-4.97-2.92-3.45-1.64-6.72-2.22-10.52-2.22-2.55,0-5.55.46-8.25,1.34-2.61.85-5.08,2.11-7.28,3.74-2.69,1.99-4.73,4.2-6.21,5.18-4.18,2.79-6.86,3.57-11.36,3.55-2.07,0-4.2-.55-6.31-1.44-.73-2.36-1.44-4.73-2.13-7.1h0Zm78.37-115.61c4.68-3.94,6.81-6.28,11.07-5.05-.55,2.41-3.58,5.04-6.87,5.59,2.17,1.8,4.66,2.04,7.55,1.66-2.27,4.12-5.62,8.9-5.06,17.37h16.62c-2.55-2.28-3.47-4.78-3.51-7.42-.05-3.75,2-6.1,2.72-9.55.87-4.17.69-8.75-2.76-12.89l3.55-3.76c-4.08,1.07-8.39.81-12.09,1.5-2.37.44-4.5,1.34-6.15,2.55-2.89,2.12-4.8,5.49-5.09,10h0Zm120.93,0c-4.68-3.94-6.8-6.28-11.07-5.05.55,2.41,3.57,5.04,6.87,5.59-2.17,1.8-4.66,2.04-7.56,1.66,2.28,4.12,5.62,8.9,5.07,17.37h-16.62c2.55-2.28,3.47-4.78,3.51-7.42.05-3.75-2-6.1-2.72-9.55-.87-4.17-.69-8.75,2.76-12.89l-3.55-3.76c4.08,1.07,8.39.81,12.09,1.5,2.37.44,4.49,1.34,6.14,2.55,2.9,2.12,4.8,5.49,5.09,10h0Zm5.56,1.46c12.94,7.54,25.9,18.8,34,31.45,3.44,5.37,6.5,10.92,8.91,16.82,3.89,9.5,5.81,19.25,6.8,29.43.24,2.44-2.83,2.74-3.07.3-.97-9.89-2.81-19.34-6.59-28.57-2.34-5.74-5.32-11.12-8.65-16.33-7.83-12.22-20.44-23.15-32.95-30.45-2.12-1.23-.57-3.89,1.55-2.66h0Zm-129.91,2.68c-12.9,8.15-24.14,18.34-32.4,31.24-2.89,4.52-5.55,9.17-7.75,14.08-4.67,10.43-6.8,20.98-8.01,32.29-.26,2.43-3.32,2.11-3.06-.33,1.24-11.64,3.46-22.49,8.26-33.22,2.26-5.05,4.98-9.83,7.96-14.48,8.51-13.29,20.07-23.79,33.35-32.18,2.07-1.3,3.72,1.3,1.64,2.61h0Zm.23,7.69c-11.27,12.29-20.09,26.25-25.12,42.21-3.11,9.88-4.48,19.82-5.02,30.13-.13,2.44-3.2,2.28-3.07-.16.56-10.57,1.97-20.76,5.16-30.89,5.17-16.39,14.21-30.73,25.79-43.36,1.65-1.8,3.92.28,2.27,2.08h0Zm127.89-.08c11.26,12.29,20.08,26.25,25.11,42.2,3.11,9.88,4.65,19.82,5.03,30.13.09,2.45,3.16,2.28,3.07-.16-.39-10.57-1.97-20.76-5.16-30.89-5.17-16.39-14.21-30.74-25.78-43.36-1.65-1.8-3.93.28-2.27,2.08h0ZM21.83,210.61c3.8,2.97,8.3,4.84,12.39,5.12,4.08.28,6.98-.54,10.41-2.7,3.3-2.08,6.05-5.12,9.36-7.2,4-2.51,8.96-3.65,13.66-3.65,4.81,0,9.29,1.09,13.33,3.76,3.02,1.99,5.53,4.51,8.39,6.66,2.89,2.18,6.94,3.24,10.54,3.44,3.02.16,7.82-1.08,11.14-3.38,1.36-.94,2.52-2.09,3.65-3.17,3.95-9.57,4.9-18.35,5.11-26.61.3-11.78-2.33-22.37-8.25-31.44v-16.16h7.57v8.13h8.93v-8.13h7.75v8.13h8.61v-37.49h7.55v8.31h9.26v-8.31h7.51v8.31h9.25v-8.31h7.41v37.49h8.78v-8.13h7.75v8.13h8.93v-8.13h7.62v16.16c-5.07,7.18-7.83,17.74-8.3,27.64-.44,9.34.92,19.77,4.91,29.76,3.74,3.21,8.11,6.49,15.77,6.84l-10.72,2.71c-1.93-1.26-4.27-3.38-6.37-5.03-4.56-3.6-10.45-5.6-16.28-5.39-3.47.13-6.29.73-9.51,1.98-5.55,2.15-9.04,6.43-12.09,8.54-3.36,2.31-6.91,3.3-10.53,3.3-3,0-6.04-.59-9.07-2.4-3.56-2.12-5.14-4.45-9.36-7.27-4.06-2.71-9.18-4.13-14.11-4.12-6.11,0-12.97,2.43-17.38,6.57-2.73,2.56-4.76,4.39-7.84,5.69-2.64,1.11-4.88,1.71-7.62,1.69-3.91-.04-7.45-.96-11.97-4.64-1.5-1.22-3.04-2.71-4.88-4.07-1.43-1.06-3.05-2.01-4.97-2.92-3.45-1.64-6.72-2.23-10.52-2.23-2.55,0-5.55.46-8.25,1.34-2.61.85-5.08,2.12-7.28,3.74-2.69,1.99-4.73,4.2-6.21,5.18-4.18,2.79-6.86,3.57-11.36,3.56-3.57-.01-7.31-1.62-10.83-3.84-.65-2.47-1.29-4.95-1.89-7.44h0Zm129.09-.93c4.74,3.89,8.33,6.36,15.08,6.42,3.66.03,7.01-1.15,10-3.2,1.06-.73,2.06-1.59,3.07-2.48v-27.34c0-7.74-6.33-14.07-14.07-14.07s-14.07,6.37-14.07,14.07v26.6Zm-120.07,32.18c1.14.3,2.27.49,3.38.57,4.08.28,6.98-.54,10.41-2.7,3.3-2.08,6.05-5.12,9.36-7.2,4-2.52,8.96-3.65,13.66-3.66,4.81,0,9.29,1.09,13.33,3.76,3.02,1.99,5.53,4.52,8.39,6.66,2.89,2.18,6.94,3.24,10.54,3.44,3.02.16,7.82-1.08,11.14-3.38,1.91-1.32,3.43-3.07,5.03-4.44,4.7-4.03,10.26-5.94,16.5-5.95,4.1,0,8.71.88,12.28,2.93,1.84,1.05,3.52,2.36,5.14,3.71l.47.39-5.82,1.47c-3.6-1.83-7.77-2.78-11.81-2.78-6.11,0-12.97,2.43-17.38,6.57-2.54,2.38-4.47,4.13-7.21,5.4l-7.79,1.97c-.16,0-.31,0-.47,0-3.91-.03-7.45-.96-11.97-4.64-1.5-1.22-3.04-2.71-4.88-4.07-1.43-1.06-3.05-2.01-4.97-2.92-3.45-1.64-6.72-2.23-10.52-2.23-2.55,0-5.55.46-8.25,1.34-2.61.85-5.08,2.12-7.28,3.74-2.69,1.99-4.73,4.19-6.21,5.18-4.18,2.79-6.86,3.57-11.36,3.55-.47,0-.94-.03-1.41-.09-.79-2.21-1.55-4.42-2.29-6.64h0Zm5.09,14.22c3.22-.04,5.77-.91,8.7-2.75,3.3-2.08,6.05-5.12,9.36-7.2,4-2.51,8.96-3.65,13.66-3.65,4.81,0,9.29,1.09,13.33,3.75,2.52,1.66,4.68,3.68,6.98,5.56l-5.35,1.35c-1.3-.91-2.75-1.74-4.43-2.54-3.45-1.64-6.72-2.22-10.52-2.22-2.55,0-5.55.46-8.25,1.33-2.61.85-5.08,2.12-7.28,3.74-2.69,1.99-4.73,4.2-6.21,5.18-2.91,1.95-5.1,2.91-7.68,3.32-.78-1.95-1.55-3.91-2.3-5.87h0Zm15.9,4.83c.7-.54,1.41-1.06,2.16-1.53,4-2.51,8.96-3.65,13.66-3.65,1.27,0,2.52.08,3.74.24l-19.56,4.94Z"/>
      <path class="cls-2" d="m67.6,295.07c-1.9.48-3.45.23-4.66-.73-1.21-.97-1.91-2.5-2.09-4.59-.05-.58-.07-1.02-.05-1.32l.18-9.88c.03-1.66.34-3.19.93-4.6.59-1.41,1.43-2.59,2.49-3.55,1.07-.96,2.29-1.61,3.67-1.96,1.91-.49,3.49-.24,4.7.72,1.22.96,1.92,2.51,2.11,4.63.02.24.03.66.05,1.25l-.19,9.88c-.02,1.68-.34,3.23-.94,4.64-.61,1.41-1.45,2.59-2.52,3.55-1.07.96-2.3,1.62-3.68,1.96h0Zm.09-4.5c.82-.21,1.5-.71,2.01-1.52.52-.81.79-1.76.83-2.85l.16-10.25c0-.15,0-.38-.03-.7-.08-.9-.35-1.55-.83-1.97-.48-.42-1.09-.54-1.83-.35-.82.21-1.49.71-2,1.52-.51.81-.76,1.77-.78,2.87l-.19,10.25c0,.15,0,.36.02.62.08.9.35,1.56.82,2,.47.44,1.07.56,1.82.38h0Z"/>
      <path class="cls-2" d="m77.8,292.17c-.23.06-.36-.06-.38-.35l.45-25.11c.01-.12.05-.24.13-.35.07-.1.16-.17.27-.19l3.52-.89c.19-.05.33.03.43.22l5.48,13.38c.03.07.06.09.1.07.04-.02.07-.08.08-.18l.22-14.62c0-.12.05-.24.11-.34.06-.1.15-.17.25-.19l3.49-.88c.1-.03.19,0,.26.06.07.07.1.17.09.29l-.45,25.11c-.01.13-.05.24-.11.34-.07.1-.15.16-.25.19l-3.55.89c-.21.05-.35-.02-.43-.22l-5.49-13.49c-.03-.07-.06-.09-.1-.07-.04.02-.07.09-.08.19l-.21,14.73c-.01.12-.05.24-.11.34-.06.1-.15.17-.25.19l-3.46.87Z"/>
      <path class="cls-2" d="m108.49,258.56c.1-.02.19,0,.26.07.07.07.1.17.09.29l-.07,3.64c0,.12-.05.24-.11.34-.06.11-.15.17-.25.2l-4.57,1.15s-.07.04-.1.08c-.03.04-.04.09-.04.14l-.38,20.84c-.01.13-.05.24-.11.34-.06.1-.15.17-.25.19l-3.49.88c-.23.06-.36-.06-.38-.35l.38-20.84c.03-.13-.02-.18-.14-.15l-4.42,1.11c-.1.02-.19,0-.26-.07s-.1-.16-.09-.29l.06-3.64c.01-.12.05-.24.11-.34.07-.1.15-.17.25-.19l13.51-3.4Z"/>
      <path class="cls-2" d="m111.11,283.79c-.23.05-.35-.06-.38-.35l.45-25.11c0-.12.05-.24.13-.34.07-.1.16-.17.27-.2l3.49-.88c.1-.02.19,0,.26.07.07.07.1.16.09.29l-.45,25.11c-.01.13-.05.24-.11.34-.07.1-.15.17-.25.19l-3.49.88Z"/>
      <path class="cls-2" d="m118.5,281.93c-.23.05-.35-.06-.38-.35l.45-25.11c0-.13.05-.24.12-.35.08-.1.17-.17.27-.2l3.52-.88c.18-.05.33.03.43.22l5.48,13.38c.03.07.06.09.1.07.04-.02.07-.09.08-.19l.22-14.62c.01-.12.05-.24.11-.34.07-.1.15-.17.25-.2l3.49-.88c.1-.02.19,0,.26.07.07.07.1.16.09.29l-.45,25.11c0,.12-.05.24-.11.34-.07.11-.15.17-.25.2l-3.55.9c-.2.05-.35-.02-.43-.23l-5.49-13.48c-.03-.07-.06-.09-.1-.07-.04.02-.07.08-.08.18l-.21,14.73c-.01.13-.05.24-.11.34-.07.11-.15.17-.25.2l-3.46.87Z"/>
      <path class="cls-2" d="m140.5,276.36c-.11.03-.19,0-.26-.07-.07-.07-.1-.16-.09-.29l.19-9.52-.05-.21-4.9-13.96-.04-.14c-.02-.24.08-.39.31-.45l3.8-.96c.23-.05.36.04.4.27l2.62,8.7c.03.07.06.09.1.08.04,0,.07-.05.08-.13l2.95-10.1c.06-.26.2-.42.43-.48l3.77-.95c.15-.03.24,0,.27.08.04.09.04.21-.02.38l-5.48,16.58-.04.23-.16,9.51c-.01.12-.05.24-.11.34-.07.1-.15.16-.25.19l-3.52.89Z"/>
      <path class="cls-2" d="m165.23,248.31c-.01.13-.05.24-.11.34-.07.1-.15.17-.25.2l-8.04,2.02c-.09.02-.14.1-.17.23l-.1,5.79c0,.12.06.17.14.15l5.01-1.26c.1-.02.19,0,.26.07.07.07.1.16.09.29l-.04,3.59c0,.12-.05.24-.12.35-.07.11-.17.17-.27.2l-5,1.26s-.08.04-.1.08c-.03.04-.04.09-.04.14l-.11,5.98c.01.12.05.17.14.15l8.04-2.02c.23-.05.35.06.38.35l-.07,3.6c-.01.12-.05.24-.11.34-.06.1-.15.16-.25.19l-12.05,3.04c-.23.05-.35-.06-.38-.35l.45-25.11c0-.12.05-.24.12-.34.08-.11.16-.17.27-.2l12.05-3.03c.11-.03.19,0,.26.06.07.07.1.17.09.29l-.07,3.6Z"/>
      <path class="cls-2" d="m167.76,269.53c-.23.06-.35-.06-.38-.35l.45-25.11c0-.13.05-.24.13-.35.07-.11.16-.17.27-.2l3.52-.89c.18-.05.33.03.43.22l5.48,13.38c.02.07.06.09.1.07.04-.02.07-.09.08-.19l.22-14.62c0-.13.05-.24.11-.34.07-.1.15-.17.25-.19l3.49-.88c.1-.02.19,0,.26.07.07.07.1.17.09.29l-.45,25.11c-.01.12-.05.24-.11.34-.07.1-.15.16-.25.19l-3.55.89c-.2.05-.35-.02-.43-.23l-5.49-13.48c-.02-.07-.06-.09-.1-.07-.04.02-.07.08-.08.18l-.21,14.73c-.01.12-.05.24-.11.34-.07.1-.15.16-.25.19l-3.46.87Z"/>
      <path class="cls-2" d="m198.46,235.92c.1-.02.19,0,.26.07.07.07.1.16.09.29l-.06,3.64c-.01.13-.05.24-.11.34-.07.1-.15.17-.25.19l-4.57,1.15s-.08.04-.11.08c-.03.04-.04.09-.04.14l-.38,20.84c-.01.12-.05.24-.11.34-.07.1-.15.17-.25.19l-3.49.88c-.23.06-.35-.06-.38-.35l.38-20.84c.03-.13-.02-.18-.14-.15l-4.42,1.11c-.1.02-.19,0-.26-.07-.07-.07-.1-.17-.09-.29l.06-3.64c.01-.12.05-.24.11-.34.06-.11.15-.17.25-.2l13.51-3.4Z"/>
      <path class="cls-2" d="m209,233.38c.14-.11.29-.18.45-.23l3.62-.91c.1-.02.19,0,.26.07.07.07.1.16.09.29l-.45,25.11c0,.12-.05.24-.11.34-.07.1-.15.17-.25.19l-3.49.88c-.23.06-.35-.06-.38-.35l.38-20.47c-.01-.15-.06-.19-.14-.15l-2.49,1.22-.12.07c-.19.05-.27-.07-.25-.34l.04-3.16c.02-.23.12-.42.3-.59l2.55-1.97Z"/>
      <path class="cls-2" d="m227.68,248.09c-.04,2.03-.63,3.79-1.79,5.29-1.16,1.5-2.67,2.48-4.54,2.95-1.65.42-3.01.25-4.09-.5-1.08-.75-1.69-1.97-1.83-3.66-.02-.19-.02-.51-.02-.96v-1.07c.01-.12.05-.24.11-.34.06-.1.15-.17.25-.19l3.52-.89c.1-.03.19,0,.26.06.07.07.1.17.09.29l-.02.56v.41c.06.62.25,1.1.59,1.43.33.32.73.43,1.21.3.57-.14,1.05-.5,1.42-1.08.37-.57.56-1.26.58-2.05l.07-3.64c.02-.08,0-.12-.04-.12-.04,0-.08.02-.12.08-.73,1-1.65,1.64-2.74,1.91-1.07.27-1.99.19-2.75-.25-.76-.43-1.34-1.16-1.72-2.17-.47-.82-.76-1.9-.88-3.25-.05-.58-.07-1.02-.05-1.32.04-1.76.34-3.31.93-4.63.45-1.42,1.15-2.59,2.11-3.53.96-.93,2.12-1.57,3.48-1.91,1.3-.33,2.41-.27,3.33.18.92.45,1.6,1.25,2.04,2.43.02.02.03.05.04.08,0,.04.02.06.03.08.36.75.59,1.63.67,2.64.02.24.03.66.04,1.25l-.19,11.62Zm-4.39-7.66c.21-.67.33-1.54.34-2.6.02-.3,0-.71-.04-1.25-.16-1.81-.8-2.57-1.93-2.29-.93.23-1.58,1.02-1.94,2.38-.13.62-.21,1.37-.25,2.24,0,.54.02.92.04,1.14.04.51.12.93.23,1.27.27.96.86,1.34,1.77,1.11.87-.22,1.46-.89,1.79-2h0Z"/>
      <path class="cls-2" d="m242.34,238.78c.12.46.22,1.08.29,1.85.05.55.07,1.13.06,1.72,0,1.41-.22,2.79-.65,4.16-.45,1.57-1.2,2.89-2.25,3.97-1.04,1.07-2.28,1.8-3.73,2.16-1.62.41-2.99.23-4.1-.52-1.11-.75-1.8-1.96-2.07-3.62-.08-.47-.13-.84-.16-1.1-.03-.31-.05-.77-.05-1.36.01-.3.14-.48.36-.54l3.52-.89c.1-.02.19,0,.26.05.07.06.1.16.09.31l.04.8.09.72c.12.63.36,1.11.72,1.41.36.3.82.39,1.38.25.51-.13.96-.43,1.34-.9.38-.46.65-1.02.81-1.68.16-.78.26-1.62.29-2.51-.01-.64-.03-1.11-.06-1.43-.03-.29-.08-.62-.15-1-.16-.62-.42-1.08-.76-1.36-.35-.29-.79-.36-1.3-.23-.39.1-.79.38-1.19.86-.06.06-.14.11-.24.13-.1.03-.2,0-.29-.07l-1.72-2.01c-.07-.05-.1-.13-.11-.23-.01-.12.03-.25.12-.4l4.59-6.51c.04-.06.04-.11.02-.15-.03-.04-.07-.06-.13-.04l-6.68,1.68c-.1.03-.19,0-.26-.06-.07-.07-.1-.17-.09-.29l.07-3.6c0-.13.05-.24.11-.34.06-.1.15-.17.25-.2l11.71-2.94c.1-.03.19,0,.26.06.07.07.1.17.09.29l-.05,3.71c0,.2-.07.4-.2.61l-3.79,5.8c-.07.12-.05.18.08.2.88-.05,1.62.21,2.21.79.6.58,1.03,1.4,1.29,2.47h0Z"/>
      <path class="cls-2" d="m247.54,223.68c.14-.11.29-.18.45-.23l3.61-.91c.11-.02.19,0,.26.07.07.07.1.17.09.29l-.45,25.11c0,.12-.05.24-.11.34-.06.1-.15.17-.25.2l-3.49.88c-.23.05-.35-.06-.38-.35l.38-20.47c-.01-.14-.06-.19-.14-.15l-2.49,1.22-.12.07c-.18.05-.27-.07-.25-.34l.04-3.16c.02-.23.12-.42.3-.59l2.55-1.97Z"/>
      <path class="cls-2" d="m266.96,244.86c-1.88.47-3.41.24-4.62-.7-1.21-.94-1.9-2.43-2.07-4.48-.02-.24-.04-.66-.05-1.25l.21-10.34c.03-1.61.34-3.1.93-4.47.59-1.37,1.4-2.52,2.45-3.44,1.05-.93,2.25-1.57,3.61-1.91,1.88-.47,3.41-.26,4.62.65,1.21.91,1.89,2.36,2.07,4.36.02.24.04.63.04,1.18l.02.18c0,.12-.05.25-.11.36-.07.11-.15.18-.25.21l-3.54,1.07c-.23.06-.34-.05-.34-.32l.02-.49c.01-.12,0-.31-.02-.55-.07-.84-.34-1.46-.79-1.85-.46-.39-1.04-.5-1.77-.31-.8.2-1.45.67-1.94,1.41-.5.74-.75,1.62-.77,2.63l-.2,10.88c0,.12,0,.31.02.55.07.82.34,1.43.8,1.81.46.39,1.05.5,1.75.32.8-.2,1.45-.67,1.95-1.4.49-.73.75-1.6.77-2.61v-.48c-.01-.27.11-.44.36-.5l3.51-.7c.25-.06.37,0,.36.17v.3c-.04,1.59-.34,3.05-.93,4.41-.59,1.35-1.41,2.49-2.45,3.41-1.05.92-2.25,1.55-3.61,1.89h0Z"/>
      <path class="cls-2" d="m289.66,217c-.01.12-.05.24-.11.34-.06.1-.15.16-.25.19l-8,2.02c-.08.02-.14.1-.17.23l-.1,5.79c0,.12.05.17.14.15l4.98-1.25c.23-.06.35.06.38.35l-.07,3.61c-.01.12-.05.24-.11.34-.07.1-.15.16-.25.19l-5,1.26s-.08.04-.1.08c-.03.05-.04.09-.04.14l-.19,10.21c-.01.12-.05.24-.11.34-.07.1-.15.17-.25.19l-3.49.88c-.23.06-.35-.06-.38-.35l.45-25.11c0-.12.05-.24.12-.35.08-.11.16-.17.27-.2l12.02-3.03c.1-.02.19,0,.26.07.07.07.1.16.09.29l-.07,3.6Z"/>
    </g>
  </g>
</svg>