<?xml version="1.0" encoding="UTF-8"?>
<svg id="Layer_2" data-name="Layer 2" xmlns="http://www.w3.org/2000/svg" xmlns:xlink="http://www.w3.org/1999/xlink" viewBox="0 0 371.28 468.75">
  <defs>
    <style>
      .cls-1 {
        fill: url(#radial-gradient);
        fill-rule: evenodd;
      }

      .cls-1, .cls-2, .cls-3, .cls-4 {
        stroke-width: 0px;
      }

      .cls-2 {
        fill: url(#radial-gradient-2);
      }

      .cls-3 {
        fill: #ffac1f;
      }

      .cls-4 {
        fill: #0031cc;
      }
    </style>
    <radialGradient id="radial-gradient" cx="198.45" cy="398.16" fx="198.45" fy="398.16" r="47.94" gradientTransform="translate(67.86 -50.8) rotate(11.13)" gradientUnits="userSpaceOnUse">
      <stop offset=".37" stop-color="#fff"/>
      <stop offset=".59" stop-color="#fcfcfc"/>
      <stop offset=".69" stop-color="#f5f5f5"/>
      <stop offset=".77" stop-color="#e8e8e8"/>
      <stop offset=".84" stop-color="#d5d5d6"/>
      <stop offset=".9" stop-color="#bdbebf"/>
      <stop offset=".95" stop-color="#a0a1a2"/>
      <stop offset="1" stop-color="#808183"/>
    </radialGradient>
    <radialGradient id="radial-gradient-2" cx="207.22" cy="396.44" fx="207.22" fy="396.44" r="47.96" gradientTransform="translate(93.16 -59.46) rotate(15.66)" gradientUnits="userSpaceOnUse">
      <stop offset="0" stop-color="#605d60"/>
      <stop offset=".46" stop-color="#5e5b5e"/>
      <stop offset=".62" stop-color="#575457"/>
      <stop offset=".73" stop-color="#4b494b"/>
      <stop offset=".83" stop-color="#3a383a"/>
      <stop offset=".91" stop-color="#242324"/>
      <stop offset=".98" stop-color="#0a090a"/>
      <stop offset="1" stop-color="#000"/>
    </radialGradient>
  </defs>
  <g id="Layer_1-2" data-name="Layer 1">
    <path class="cls-3" d="m273.6,32.56c-49.14,0-87.96-28.51-87.96-28.51,0,0-38.83,28.51-87.97,28.51S0,0,0,0c0,385.63,185.64,468.75,185.64,468.75,0,0,185.64-83.12,185.64-468.75,0,0-48.54,32.56-97.68,32.56Zm-87.96,426.89c-11.19-6.15-49.13-29.85-86.78-86.27C58.58,312.81,10.9,201.81,8.49,14.64c18.28,10.04,53.22,26.17,89.19,26.17,41.56,0,75.65-18.98,87.97-26.83,12.31,7.84,46.41,26.83,87.96,26.83,35.97,0,70.91-16.13,89.19-26.17-2.42,187.17-50.1,298.17-90.38,358.54-37.65,56.42-75.58,80.12-86.78,86.27Z"/>
    <path class="cls-4" d="m97.67,40.81c-35.97,0-70.91-16.13-89.19-26.17,2.42,187.17,50.1,298.17,90.38,358.54,37.65,56.42,75.58,80.12,86.78,86.27,11.19-6.15,49.13-29.85,86.78-86.27,40.28-60.37,87.96-171.37,90.38-358.54-18.28,10.04-53.22,26.17-89.19,26.17-41.55,0-75.66-18.98-87.96-26.83-12.31,7.84-46.41,26.83-87.97,26.83Z"/>
    <path class="cls-3" d="m196.56,62.74c5.93-4.77,7.51-13.88,11.37-19.56,0-4.55-3.87-3.87-3.87-3.87h-3.87s-.46-3.75-3.75-3.75c-6.94,0-10.81,3.98-10.81,3.98v11.83s7.96,11.38,10.92,11.38Z"/>
    <path class="cls-3" d="m180.64,52.27s-13.2,6.82-13.2,11.37c0,6.82,4.32,4.32,4.32,4.32h6.6v12.06l-10.46,11.38s-6.83-2.27-10.47-2.27-7.73,4.09-7.73,4.09v43.68s5.46,10.01,5.46,14.11-2.27,5.46-2.27,9.1,2.73,6.37,2.73,6.37h8.19v7.28l-3.64,3.64v7.74l19.56,8.64c-11.37-2.27-25.94-3.64-25.94-3.64v-7.73s2.27.23,2.27-2.27-2.27-2.27-2.27-2.27l-6.6-6.6-7.05-106.7-4.55,106.7s-8.64,6.82-8.64,8.87,6.14,6.14,6.14,6.14c0,5.46,1.82,13.42,8.87,13.42,2.05,0,5.46-1.82,5.46-1.82,0,0,.91,10.01,3.18,10.01,3.87,0,7.51-7.51,7.51-7.51h5.69l-8.19,15.24,3.64,1.37,10.47-13.2h5l-6.82,15.47,5.46,3.19c-3.53,5.8-1.82,8.64-1.82,8.64l3.64,1.37,16.84-14.11,2.05,2.05-14.33,18.88s-13.88-9.1-25.48-9.1c-4.78,0-5.01,5.23-5.01,10.01,0,10.46,10.01,8.19,17.29,10.92,7.28,2.73,33.44,19.56,39.13,19.56s9.97-10.69,7.93-12.73c-2.04-2.04-6.79,3.63-8.84,3.63s-8.64-6.37-8.64-6.37l-4.09-11.83,9.54-15.31,2.29,1.21v10.46s7.96,6.83,18.2,6.83,17.29-11.83,17.29-11.83c0,0-32.3-37.77-32.3-53.23l-1.74-10.41s-3.72-5.06-6-2.78c-2.28,2.27,0,10.92,0,10.92l3.64,5.46v7.28s1.14,2.96-2.96,2.96-7.51-3.41-7.51-3.41c0,0-25.03-11.15-25.03-26.84,0-20.25-4.55-14.1-4.55-32.76,0-26.62,29.12-53.69,29.12-62.79,0-4.55-2.05-5.91-3.64-5.91s-2.73,3.64-5,3.64-2.73-14.56-2.73-14.56Z"/>
    <path class="cls-3" d="m187.46,180.13c0-3.18-1.82-5.46-1.82-5.46,0,0-7.51-10.92-10.92-10.92s-2.96,5.23-2.96,5.23l-.16.59c2.22,5.4,7.65,10.25,12.87,13.82.8-.11,2.99-.66,2.99-3.26Z"/>
    <path class="cls-3" d="m168.02,146.47c.54,1.58,1.09,3.23,1.53,5.45l3.12-1.14s2.96-4.1,2.96-7.28-2.5-8.64-2.5-8.64c0,0-.68-11.83-3.87-11.83-.57,0-1.33-.06-2.16-.15-.71,3.01-1.12,6.03-1.12,9.02,0,8.62.99,11.51,2.04,14.58Z"/>
    <path class="cls-3" d="m210.12,181.24v.26c0,8.16,10.99,24.74,20.65,37.55,1.62-1.49,2.99-3.03,2.99-4,0-2.39-1.02-7.39-1.02-7.39,0,0-13.2-15.7-13.2-20.7,0-2.5,1.24-4.09,2.55-4.09,0,8.19,11.33,20.48,11.33,20.48,0,0,5.23.91,5.23-1.82s-16.38-26.94-16.38-34.35c0,0-3.28-1.06-3.88.47l-.44,10.91h-8.27l.45,2.7Z"/>
    <path class="cls-3" d="m221.36,148.96s-2.58-.96-3.18,0c-.6.96,0,3.87,0,3.87,0,0,17.06,40.27,24.57,40.27,4.55,0,5-4.1,5-4.1,0,0-14.79-16.83-14.79-22.98,0-2.96,2.62-2.62,2.62-2.62,0,0,2.39,9.67,11.03,15.58.68.68,3.41,1.14,4.55,0,1.14-1.14,0-3.87,0-3.87,0,0-10.24-8.64-13.88-18.43,0,0-2.96,1.14-5.91,1.14-4.78,0-10.01-8.87-10.01-8.87Z"/>
    <path class="cls-3" d="m222.44,146.06l1.03.38.56.94c2.06,3.48,5.58,7.35,7.34,7.35,2.32,0,4.79-.92,4.81-.93l.1-.04,3.48-5.59s4.12-9.91,4.12-19.92c0-9.33-7.28-14.79-7.28-19.11,0-3.19,4.32-4.32,4.32-4.32v-3.18h-10.92s-1.14,2.27-1.14,4.32c0,7.28,7.73,12.74,7.73,21.38,0,4.55-.46,6.83-1.82,6.83-2.28,0-2.73-4.09-4.09-4.09-2.5,0-5.23.68-5.23,2.5s6.83,9.78,6.83,9.78l-1.71,1.71-5.35-6.03h-3.64l-.68,3.41-.36,4.13c.61.1,1.23.24,1.89.48Z"/>
    <path class="cls-3" d="m215.98,91.63c-3.95,0-4.75,7.62-4.75,7.62,0,0-3.98,6.03-6.03,6.03s-1.36-2.27-1.36-4.78c0-9.56,15.47-17.06,29.12-17.06,2.5,0,3.18,7.51,3.18,7.51h-6.14v7.6h11.28c1.09-2.26,2.15-5.08,2.15-7.6,0-5.23-2.73-8.64-2.73-8.64l-1.59-14.11-4.32-.23s-8.87,11.37-12.51,11.37c-7.28,0-22.75,3.87-22.75,20.25,0,2.96,2.05,12.97,2.05,16.15,0,6.14-1.37,11.6-5.91,11.6-5.46,0-7.05-7.28-7.05-12.28,0-13.65,8.19-29.8,8.19-35.94,0-1.37-1.36-1.14-3.64-1.14-1.14,0-11.83,25.48-11.83,39.81s8.19,20.48,16.15,20.48c7.05,0,10.24-7.96,10.24-7.96v-10.92h3.19v13.42s.68,2.05,2.05,2.05c4.78,0,12.28-13.88,12.28-22.75,0-12.06-6.82-20.48-9.24-20.48Z"/>
    <path class="cls-3" d="m200.92,146.83c3.13,2.52,4.33,6.23,2.68,8.28-1.66,2.06-5.53,1.68-8.67-.84-3.13-2.52-4.33-6.23-2.68-8.28,1.66-2.05,5.53-1.68,8.66.84Z"/>
    <path class="cls-3" d="m91.2,118.13c-3.27,5.21-7.1,9.11-11.49,11.7-4.38,2.59-9.35,3.89-14.9,3.89-4.47,0-8.5-.7-12.11-2.11-3.6-1.41-6.77-3.53-9.5-6.37-2.93-3.01-5.13-6.48-6.58-10.4-1.45-3.92-2.18-8.34-2.18-13.25s.8-9.09,2.39-13.06c1.59-3.96,3.91-7.38,6.96-10.25,2.67-2.5,5.68-4.39,9.02-5.67,3.34-1.28,6.92-1.92,10.73-1.92,3.41,0,6.94.64,10.58,1.93,3.64,1.28,5.65,1.92,6.02,1.92,1,0,1.79-.28,2.37-.83.58-.56,1.13-1.56,1.64-3.02h4.17l.95,21.95h-4.73c-1.88-5.52-4.39-9.78-7.52-12.79-3.13-3-6.64-4.5-10.51-4.5-4.78,0-8.27,2.11-10.47,6.34-2.19,4.23-3.29,11-3.29,20.31,0,8.8,1.25,15.26,3.74,19.38,2.49,4.12,6.39,6.17,11.69,6.17,3.56,0,6.91-.98,10.06-2.94,3.15-1.96,6.18-4.96,9.08-9l3.85,2.5Z"/>
    <path class="cls-3" d="m105.26,119.38c1.94,0,3.57.66,4.91,1.97,1.34,1.31,2.01,2.94,2.01,4.88s-.67,3.52-2.01,4.84c-1.34,1.31-2.98,1.97-4.91,1.97s-3.49-.66-4.83-1.99c-1.34-1.33-2.01-2.93-2.01-4.81s.67-3.53,2.01-4.86c1.34-1.33,2.95-1.99,4.83-1.99Z"/>
    <path class="cls-3" d="m297.91,122.01c0,2.43.49,4.04,1.47,4.83.98.79,2.96,1.19,5.94,1.19h1.58v4.32h-33.33v-4.32c2.98,0,4.96-.39,5.93-1.16.97-.78,1.46-2.39,1.46-4.85v-39.85c0-2.48-.5-4.12-1.49-4.92-.99-.8-2.96-1.2-5.91-1.2v-3.98h43.33c2.17,0,4.15-.05,5.95-.16,1.8-.11,3.47-.28,5.01-.52l.09,20.25h-4.32c-.91-5.72-2.67-9.69-5.27-11.91-2.6-2.22-6.87-3.33-12.81-3.33-3.13,0-5.18.43-6.16,1.28-.98.86-1.47,2.57-1.47,5.13v15.57c.23,0,.52.01.87.04.35.03.62.04.79.04,3.46,0,5.92-.89,7.39-2.67,1.48-1.78,2.24-4.8,2.3-9.04h4.24v27.98h-4.32c-.11-4.55-.88-7.78-2.3-9.67-1.42-1.89-3.77-2.84-7.05-2.84-.48,0-.85,0-1.11.02-.25.01-.52.05-.81.11v19.68Z"/>
    <path class="cls-3" d="m324.47,119.38c1.94,0,3.58.66,4.91,1.97,1.34,1.31,2.01,2.94,2.01,4.88s-.67,3.52-2.01,4.84c-1.33,1.31-2.97,1.97-4.91,1.97s-3.49-.66-4.83-1.99c-1.34-1.33-2.01-2.93-2.01-4.81s.67-3.53,2.01-4.86c1.34-1.33,2.95-1.99,4.83-1.99Z"/>
    <path class="cls-3" d="m300,269c-.49.07-49.76,7.26-114.36,7.26s-113.88-7.19-114.37-7.26l-2.29-.34v52.06l1.8.18c.67.07,67.68,6.69,114.86,6.69s114.19-6.62,114.86-6.69l1.8-.18v-52.06l-2.3.34Zm-1.71,4.28v43.81c-10.58,1.01-69.8,6.49-112.66,6.49s-102.08-5.48-112.66-6.49v-43.81c10.41,1.4,55.57,6.98,112.66,6.98s102.25-5.58,112.66-6.98Z"/>
    <path class="cls-3" d="m93.7,279.83c5.14,0,9.45,1.72,12.91,5.15,3.46,3.44,5.2,7.67,5.2,12.69s-1.73,9.2-5.19,12.67c-3.46,3.47-7.67,5.2-12.64,5.2s-9.28-1.72-12.75-5.18c-3.47-3.45-5.2-7.63-5.2-12.53,0-3.27.79-6.3,2.37-9.08,1.58-2.79,3.73-4.98,6.46-6.55,2.72-1.58,5.67-2.37,8.84-2.37Zm.15,3.3c-2.51,0-4.89.66-7.13,1.97-2.25,1.32-4,3.08-5.26,5.3-1.26,2.22-1.89,4.7-1.89,7.43,0,4.05,1.4,7.46,4.19,10.24,2.79,2.78,6.16,4.18,10.1,4.18,2.63,0,5.07-.64,7.31-1.92,2.24-1.28,3.99-3.03,5.24-5.25,1.25-2.22,1.88-4.69,1.88-7.41s-.63-5.14-1.88-7.32c-1.26-2.19-3.02-3.93-5.3-5.25-2.28-1.31-4.7-1.97-7.25-1.97Z"/>
    <path class="cls-3" d="m118.39,283.56h6.74c3.76,0,6.3.15,7.64.47,2.01.46,3.64,1.46,4.9,2.98,1.26,1.52,1.89,3.4,1.89,5.63,0,1.86-.43,3.49-1.3,4.89-.86,1.41-2.1,2.47-3.7,3.19-1.6.72-3.82,1.09-6.65,1.1l12.16,15.75h-4.22l-12.16-15.75h-1.87v15.75h-3.41v-34.01Zm3.41,3.36v11.55l5.8.05c2.25,0,3.91-.21,4.99-.65,1.08-.43,1.92-1.12,2.52-2.06.6-.95.91-2,.91-3.17s-.31-2.18-.92-3.11c-.61-.93-1.41-1.6-2.41-2-.99-.4-2.64-.6-4.95-.6h-5.94Z"/>
    <path class="cls-3" d="m145.96,285.14h3.41v34.01h-3.41v-34.01Z"/>
    <path class="cls-3" d="m156.58,285.71h3.41v14.22h17.29v-14.22h3.41v34.01h-3.41v-16.44h-17.29v16.44h-3.41v-34.01Z"/>
    <path class="cls-3" d="m188.66,285.2h3.41v20.49c0,2.43.04,3.95.14,4.55.17,1.34.56,2.46,1.18,3.35.61.9,1.56,1.66,2.84,2.26,1.28.61,2.57.91,3.86.91,1.12,0,2.2-.24,3.23-.71,1.03-.48,1.89-1.14,2.59-1.98.69-.85,1.2-1.87,1.52-3.07.23-.86.35-2.63.35-5.31v-20.49h3.41v20.53c0,3.04-.3,5.49-.89,7.37-.6,1.87-1.79,3.5-3.56,4.89-1.78,1.39-3.94,2.08-6.46,2.08-2.75,0-5.1-.66-7.05-1.97-1.96-1.31-3.27-3.04-3.93-5.2-.42-1.33-.63-3.71-.63-7.17v-20.53Z"/>
    <path class="cls-3" d="m219.05,284.4h19.45v3.36h-16.04v10.63h15.93v3.36h-15.93v13.31h15.93v3.36h-19.34v-34.01Z"/>
    <path class="cls-3" d="m243.95,282.88h3.41v30.66h13.03v3.36h-16.44v-34.01Z"/>
    <path class="cls-3" d="m279.21,280.06l15.87,34.01h-3.7l-5.29-11.09h-14.75l-5.23,11.09h-3.79l16.04-34.01h.85Zm-.46,7.2l-5.83,12.36h11.66l-5.83-12.36Z"/>
    <g>
      <path class="cls-1" d="m176.44,425.23c25.98,5.11,51.18-11.79,56.29-37.77,5.11-25.97-11.8-51.18-37.78-56.29-25.97-5.12-51.19,11.81-56.3,37.77-5.11,25.98,11.8,51.18,37.78,56.29h0Z"/>
      <path class="cls-2" d="m140.1,393.17c.07.24.14.48.22.73,0,0,.01,0,.02,0,.52,1.5,1.12,2.98,1.79,4.43,5.39,11.63,15.01,20.47,27.08,24.89,12.06,4.42,25.08,3.89,36.68-1.49,6.14-2.84,11.5-6.87,15.84-11.83h.02c.24-.26.49-.55.74-.86,3.51-4.2,6.31-9.03,8.25-14.33,4.42-12.06,3.89-25.1-1.51-36.74-11.11-23.98-39.68-34.44-63.7-23.31-11.61,5.38-20.43,14.98-24.86,27.03-3.77,10.28-3.93,21.26-.56,31.46Zm2.99,4.73c-.56-1.21-1.05-2.44-1.51-3.67,2.35.59,7.3,1.79,9,2.21,3.35,6.44,8.32,11.75,14.44,15.48l1.67,9.15c-10.45-4.62-18.76-12.74-23.59-23.17Zm15.26-46.79c3.02.09,14.25.39,14.26.39l6.37,13.99-7.71,13.61-15.54,2.39-7.04-13.73c.27-.94.56-1.86.89-2.78,1.94-5.29,4.94-9.98,8.77-13.86Zm20.72,56.52l-13.38,3.46c-6.06-3.67-10.97-8.94-14.25-15.33l4.26-12.92,15.5-2.22,10.86,11.82-2.99,15.19Zm33.53-14.95l-13.89-8.18-1.98-15.52,11.21-10.53,13.35,5.06c2.52,6.08,3.42,12.59,2.67,19.03l-11.36,10.15Zm-1.86,14.8c-2.64,2.26-5.6,4.17-8.84,5.67-3.26,1.52-6.66,2.54-10.12,3.09l-11.11-8.3,2.99-15.19,14.52-6.82,13.51,7.92-.96,13.62Zm-14.88-39.5l-15.68-3.09-6.38-14.42,9.83-10.71c6.43-.34,12.82.94,18.56,3.65l5.04,13.64-11.36,10.93Zm9.59,52.81c-5.87,2.72-12.13,4.17-18.43,4.33l5.03-7.86c3.52-.58,6.98-1.62,10.3-3.16,3.27-1.52,6.27-3.45,8.95-5.73l9.18,1.36c-4.16,4.6-9.24,8.37-15.03,11.06Zm25.79-31.34c-1.37-1.56-4.96-5.61-6.2-7,.72-6.53-.21-13.12-2.75-19.29l4.18-8.19c.64,1.12,1.25,2.28,1.81,3.47,4.54,9.81,5.55,20.65,2.97,31.01Zm-19.27-50.13l-9.38,3.12c-5.87-2.76-12.38-4.07-18.97-3.74l-7.49-6.43c12.56-2.62,25.48.09,35.83,7.04Zm-70.31,22.76c3.06-8.36,8.31-15.52,15.13-20.84l.76,9.17c-3.92,3.98-6.99,8.79-8.98,14.2-.31.86-.59,1.72-.84,2.59l-8.45,4.14c.47-3.12,1.26-6.22,2.38-9.26Z"/>
    </g>
  </g>
</svg>