<?xml version="1.0" encoding="UTF-8"?>
<svg id="Layer_2" data-name="Layer 2" xmlns="http://www.w3.org/2000/svg" viewBox="0 0 131.08 175.75">
  <defs>
    <style>
      .cls-1 {
        fill: #313286;
      }

      .cls-1, .cls-2, .cls-3, .cls-4 {
        fill-rule: evenodd;
        stroke-width: 0px;
      }

      .cls-2 {
        fill: #df1f2a;
      }

      .cls-3 {
        fill: #fff;
      }

      .cls-4 {
        fill: #c38f31;
      }
    </style>
  </defs>
  <g id="Layer_1-2" data-name="Layer 1">
    <g>
      <path class="cls-4" d="m50.24,32.16c0,1.12-.91,2.03-2.03,2.03s-2.03-.91-2.03-2.03.91-2.03,2.03-2.03,2.03.91,2.03,2.03h0Z"/>
      <polygon class="cls-2" points="31.87 33.68 31.31 36.28 33.34 38.32 31.87 33.68 31.87 33.68"/>
      <path class="cls-4" d="m108.37,10.19c-3.71,0-4.73,4.62-4.73,4.62,0,0-1.13-1.96-3.43-1.96-2.62,0-4.17,1.79-4.17,4.12s2.14,3.46,2.61,3.93c1.23,1.52-.08,2.29-1.24,1.7-.79-.23-8.53-2.26-9.61-2.26-1.82-.14-1.43-1.34-.34-1.34.5.03.9.06,1.18.06,1.94,0,3.19-1.44,3.19-2.83,0-2.96-2.54-3.33-2.54-3.33,0,0,.58-.75.58-1.55,0-1.79-1.43-3.46-3.43-3.46-3.46,0-3.35,3.68-3.35,3.68,0,0-.47-.13-.62-.13-.96,0-3.14.96-3.14,3.14,0,1.86,1.59,2.91,2.38,3.05,1.1.37,1.5,1.44,0,1.58-.68-.11-11.13-.93-11.95-.93-1.56,0-1.91-2.56.56-2.54,2.39,0,4.66-1.84,4.66-4.53.08-4.54-4.63-4.82-4.63-4.82,0,0,.31-1,.31-1.6,0-2.92-2.74-4.8-5.11-4.8s-5.11,1.88-5.11,4.8c0,.59.31,1.6.31,1.6,0,0-4.7.28-4.63,4.82,0,2.68,2.27,4.53,4.66,4.53,2.47-.02,2.11,2.54.56,2.54-.82,0-11.27.82-11.95.93-1.5-.14-1.1-1.21,0-1.58.79-.14,2.38-1.19,2.38-3.05,0-2.18-2.18-3.14-3.14-3.14-.15,0-.62.13-.62.13,0,0,.11-3.68-3.35-3.68-2.01,0-3.43,1.67-3.43,3.46,0,.79.58,1.55.58,1.55,0,0-2.54.38-2.54,3.33,0,1.39,1.25,2.83,3.19,2.83.28,0,.68-.04,1.18-.06,1.09,0,1.47,1.2-.34,1.34-1.07,0-8.82,2.03-9.61,2.26-1.16.59-2.47-.18-1.24-1.7.47-.47,2.61-1.6,2.61-3.93s-1.55-4.12-4.17-4.12c-2.3,0-3.43,1.96-3.43,1.96,0,0-1.02-4.62-4.73-4.62-3.01,0-4.65.89-4.65.89,0,0,1.81,2.95,3.89,6.31.39-.29.87-.46,1.4-.46,1.31,0,2.37,1.06,2.37,2.37,0,.92-.52,1.72-1.29,2.11,1.78,2.89,3.29,5.33,3.48,5.63,1.34,1.61,2.79,1.16,4.05.92,8.56-3.42,25.09-5.21,33.57-5,8.48-.21,25.01,1.58,33.57,5,1.26.24,2.72.69,4.05-.92.19-.3,1.7-2.74,3.48-5.63-.77-.39-1.29-1.19-1.29-2.11,0-1.31,1.06-2.37,2.37-2.37.52,0,1.01.17,1.4.46,2.07-3.36,3.89-6.31,3.89-6.31,0,0-1.64-.89-4.65-.89h0Zm-63.08,6.42c-1.17,0-2.12-.95-2.12-2.12s.95-2.12,2.12-2.12,2.12.95,2.12,2.12-.95,2.12-2.12,2.12h0Zm20.26-3.37c-1.53,0-2.78-1.24-2.78-2.78s1.24-2.78,2.78-2.78,2.78,1.24,2.78,2.78-1.24,2.78-2.78,2.78h0Zm18.14,1.25c0-1.17.95-2.12,2.12-2.12s2.12.95,2.12,2.12-.95,2.12-2.12,2.12-2.12-.95-2.12-2.12h0Z"/>
      <path class="cls-4" d="m65.55,23.79c9.44,0,25.45,1.82,34.59,5.43-.34,1.58-.58,2.47-.9,3.79-7.8-3.33-24.53-5.37-33.68-5.37s-25.88,2.03-33.68,5.37c-.33-1.32-.57-2.2-.9-3.79,9.13-3.61,25.15-5.43,34.59-5.43h0Z"/>
      <path class="cls-4" d="m65.55,33.91c8.08,0,24.36,1.87,32.27,5.14-.26,1.07-.68,3-.96,3.96-5.88-2.66-22.44-5.31-31.31-5.31s-25.43,2.66-31.31,5.31c-.28-.96-.7-2.89-.96-3.96,7.91-3.28,24.19-5.14,32.27-5.14h0Z"/>
      <path class="cls-4" d="m80.87,32.16c0,1.12.91,2.03,2.03,2.03s2.03-.91,2.03-2.03-.91-2.03-2.03-2.03-2.03.91-2.03,2.03h0Z"/>
      <polygon class="cls-2" points="99.24 33.68 99.8 36.28 97.77 38.32 99.24 33.68 99.24 33.68"/>
      <polygon class="cls-2" points="65.55 28.26 68.34 30.83 65.55 33.3 62.77 30.83 65.55 28.26 65.55 28.26"/>
      <path class="cls-4" d="m95.64,53.06c-.25-2.92-2.7-5.22-5.68-5.22-2.26,0-4.21,1.32-5.13,3.23-2.07-.37-7.16-.99-10.7-1.31l-3.25-.5s-.03-.09-.05-.14c-.03-.08-.08-.17-.11-.25-.03-.07-.06-.14-.1-.21-.04-.08-.09-.16-.13-.24-.04-.07-.08-.13-.12-.2-.05-.07-.09-.15-.15-.22-.05-.07-.1-.13-.15-.2-.05-.07-.1-.13-.15-.2-.1-.12-.2-.23-.31-.34-.05-.05-.1-.1-.15-.14-.07-.07-.14-.13-.22-.2-.06-.05-.12-.09-.17-.14-.08-.06-.15-.12-.23-.17-.06-.04-.12-.08-.18-.12-.09-.06-.18-.11-.27-.16-.05-.03-.11-.06-.16-.09-.15-.08-.29-.15-.44-.21-.03-.01-.06-.02-.09-.04-.13-.05-.26-.1-.39-.14-.06-.02-.11-.03-.17-.05-.11-.03-.22-.06-.34-.09-.06-.01-.12-.03-.19-.04-.12-.02-.24-.04-.36-.05-.06,0-.11-.02-.17-.02-.18-.02-.35-.03-.53-.03s-.36.01-.53.03c-.06,0-.11.01-.17.02-.12.02-.24.03-.36.05-.06.01-.12.02-.18.04-.11.03-.22.05-.34.09-.06.02-.11.03-.17.05-.13.04-.26.09-.39.14-.03.01-.06.02-.09.03-.15.07-.3.14-.45.21-.05.03-.11.06-.16.09-.09.05-.18.11-.27.16-.06.04-.12.08-.18.12-.08.06-.16.11-.23.17-.06.05-.12.09-.17.14-.08.06-.15.13-.22.2-.05.05-.1.09-.15.14-.11.11-.21.22-.31.34-.05.06-.1.13-.15.19-.05.07-.1.13-.15.2-.05.07-.1.14-.14.22-.04.07-.08.13-.12.2-.04.08-.09.15-.13.23-.04.07-.07.14-.1.21-.04.08-.08.16-.11.24-.02.05-.03.1-.05.14l-3.25.5c-3.54.32-8.63.94-10.7,1.31-.93-1.91-2.88-3.23-5.13-3.23-2.98,0-5.44,2.3-5.68,5.22L0,62.64l.44,3.25c3.14,23.12,12.2,45.88,26.94,67.64,13.44,19.85,28.16,33.67,35.74,40.15l2.42,2.07h0s2.42-2.07,2.42-2.07c7.58-6.47,22.3-20.3,35.74-40.15,14.74-21.77,23.8-44.53,26.94-67.64l.44-3.25-35.44-9.58h0Z"/>
      <path class="cls-1" d="m65.54,170.84c18.64-15.92,54.42-54,61.4-105.46-6.13-1.66-32.22-8.71-32.22-8.71-.72,1.1-1.81,1.93-3.09,2.33v14.86c2.33.72,4.03,2.89,4.03,5.46s-1.7,4.74-4.03,5.46v5.37c0,2.03-.88,9.3-1.98,11.95,0,.01-.04.09-.08.19,1.04,1.03,1.69,2.47,1.69,4.05,0,3.12-2.52,5.66-5.63,5.7l-.1.26c-1.72,4.12-9.64,14.1-14.47,16.87.05.2.09.4.12.61,0,.06.02.12.03.18,0,.07.02.14.02.22.01.15.02.31.02.47,0,3.15-2.56,5.71-5.71,5.71v34.5h0Z"/>
      <path class="cls-2" d="m65.54,136.34c-3.15,0-5.71-2.56-5.71-5.71,0-.16,0-.31.02-.47,0-.07.01-.14.02-.22,0-.06.02-.12.03-.18.03-.21.07-.41.12-.61-4.83-2.78-12.76-12.75-14.47-16.87l-.1-.26c-3.11-.04-5.63-2.58-5.63-5.7,0-1.58.65-3.01,1.69-4.05-.04-.11-.07-.18-.08-.19-1.1-2.65-1.98-9.93-1.98-11.95v-5.37c-2.33-.72-4.03-2.89-4.03-5.46s1.7-4.74,4.03-5.46v-14.86c-1.28-.39-2.37-1.23-3.09-2.32,0,0-26.09,7.05-32.22,8.71,6.98,51.46,42.76,89.54,61.4,105.46v-34.5h0Z"/>
      <path class="cls-3" d="m62.12,126.07c.95-.72,2.14-1.14,3.42-1.14s2.45.42,3.41,1.13h.01c3.78-1.91,11.58-11.5,13.12-15.19-1.36-1.05-2.25-2.69-2.25-4.53,0-3.15,2.56-5.71,5.71-5.71.22,0,.44.02.66.04.83-1.99,1.7-8.7,1.7-10.52v-5.5c-2.13-.83-3.65-2.9-3.65-5.32s1.52-4.49,3.65-5.32v-15.13c-1.76-.69-3.1-2.22-3.51-4.09-2.5-.49-11.6-1.51-13.49-1.51,0,0-.01.02-.02.02l.02-.03c-.81,2.17-2.9,3.72-5.35,3.72s-4.54-1.55-5.35-3.72l.02.03s-.01-.02-.02-.02c-1.89,0-10.99,1.02-13.49,1.51-.41,1.87-1.75,3.4-3.51,4.09v15.13c2.13.83,3.65,2.9,3.65,5.32s-1.52,4.49-3.65,5.32v5.5c0,1.83.87,8.53,1.7,10.52.22-.02.43-.04.66-.04,3.15,0,5.71,2.56,5.71,5.71,0,1.85-.88,3.48-2.25,4.53,1.54,3.69,9.34,13.28,13.12,15.2h0Z"/>
      <path class="cls-4" d="m57.05,70.3c0,.17-.13.3-.3.3s-.3-.13-.3-.3.13-.3.3-.3.3.13.3.3h0Z"/>
      <polygon class="cls-2" points="54.35 70.52 54.26 70.91 54.56 71.21 54.35 70.52 54.35 70.52"/>
      <path class="cls-4" d="m65.62,67.06c-.55,0-.7.68-.7.68,0,0-.17-.29-.51-.29-.39,0-.61.26-.61.61s.32.51.38.58c.18.22-.01.34-.18.25-.12-.03-1.26-.33-1.42-.33-.27-.02-.21-.2-.05-.2.07,0,.13,0,.17,0,.29,0,.47-.21.47-.42,0-.44-.37-.49-.37-.49,0,0,.09-.11.09-.23,0-.26-.21-.51-.51-.51-.51,0-.49.54-.49.54,0,0-.07-.02-.09-.02-.14,0-.46.14-.46.46,0,.27.23.43.35.45.16.05.22.21,0,.23-.1-.02-1.64-.14-1.76-.14-.23,0-.28-.38.08-.37.35,0,.69-.27.69-.67.01-.67-.68-.71-.68-.71,0,0,.05-.15.05-.24,0-.43-.4-.71-.75-.71s-.75.28-.75.71c0,.09.05.24.05.24,0,0-.69.04-.68.71,0,.4.33.67.69.67.36,0,.31.37.08.37-.12,0-1.66.12-1.76.14-.22-.02-.16-.18,0-.23.12-.02.35-.18.35-.45,0-.32-.32-.46-.46-.46-.02,0-.09.02-.09.02,0,0,.02-.54-.49-.54-.3,0-.51.25-.51.51,0,.12.09.23.09.23,0,0-.37.06-.37.49,0,.21.18.42.47.42.04,0,.1,0,.17,0,.16,0,.22.18-.05.2-.16,0-1.3.3-1.42.33-.17.09-.36-.03-.18-.25.07-.07.38-.24.38-.58s-.23-.61-.61-.61c-.34,0-.51.29-.51.29,0,0-.15-.68-.7-.68-.44,0-.69.13-.69.13,0,0,.27.43.57.93.06-.04.13-.07.21-.07.19,0,.35.16.35.35,0,.14-.08.25-.19.31.26.43.48.78.51.83.2.24.41.17.6.14,1.26-.5,3.7-.77,4.95-.74,1.25-.03,3.69.23,4.95.74.19.03.4.1.6-.14.03-.04.25-.4.51-.83-.11-.06-.19-.18-.19-.31,0-.19.16-.35.35-.35.08,0,.15.03.21.07.31-.5.57-.93.57-.93,0,0-.24-.13-.69-.13h0Zm-9.3.95c-.17,0-.31-.14-.31-.31s.14-.31.31-.31.31.14.31.31-.14.31-.31.31h0Zm2.99-.5c-.23,0-.41-.18-.41-.41s.18-.41.41-.41.41.18.41.41-.18.41-.41.41h0Zm2.67.18c0-.17.14-.31.31-.31s.31.14.31.31-.14.31-.31.31-.31-.14-.31-.31h0Z"/>
      <path class="cls-4" d="m59.31,69.07c1.39,0,3.75.27,5.1.8-.05.23-.09.36-.13.56-1.15-.49-3.62-.79-4.97-.79s-3.82.3-4.96.79c-.05-.19-.08-.33-.13-.56,1.35-.53,3.71-.8,5.1-.8h0Z"/>
      <path class="cls-4" d="m59.31,70.56c1.19,0,3.59.28,4.76.76-.04.16-.1.44-.14.58-.87-.39-3.31-.78-4.62-.78s-3.75.39-4.62.78c-.04-.14-.1-.43-.14-.58,1.17-.48,3.57-.76,4.76-.76h0Z"/>
      <path class="cls-4" d="m61.57,70.3c0,.17.13.3.3.3s.3-.13.3-.3-.13-.3-.3-.3-.3.13-.3.3h0Z"/>
      <polygon class="cls-2" points="64.28 70.52 64.36 70.91 64.06 71.21 64.28 70.52 64.28 70.52"/>
      <polygon class="cls-2" points="59.31 69.72 59.72 70.1 59.31 70.47 58.9 70.1 59.31 69.72 59.31 69.72"/>
      <path class="cls-4" d="m67.66,85.34l-1.59-2.19v-2.89c0-1.11-.67-1.77-.67-1.77,0,0-1.87-2.05-2.31-2.54-.48-.48-.87-.67-1.53-.67v-.45c0-.35-.08-.48-.48-.48h-1.84c-.27.04-.46.04-.66-.5-.2-.45-.76-.35-1.07-.04-.53.41-4.19,4.51-4.31,4.63-.29.29-.29.77,0,1.19.05.08.71,1.21.71,1.21,0,0,1.28-.97,1.37-1.06.41-.26,1.14.2,1.14.2l-2.01,1.59s.07.52.52.52h1.84l.65,1.29h1.21v-2.44h.73v-2.37h.56v2.94h-.73v2.49h-1.91l-3.16,3.02h2.3l-1.22,2.59h2.73s-.04,2.75-.04,2.75l2.71-3.16,2.71,2.03v-3.45h3.62l-1.36-2.43h2.09Zm-11.08-7.59c-.22,0-.54-.24-.54-.32v-.24c.03-.25.95-.46,1.09-.42.02.02.07.01.07.23,0,.18-.19.76-.62.76h0Z"/>
      <path class="cls-4" d="m57.44,89.94h-4.45c-.7,0-1.49.55-1.59,1.02-.1.27-1.08,3.03-1.08,3.03,0,0-.11.57-.11.74,0,2.27,1.99,2.48,1.99,2.48,0,0,.88-2.86.89-2.92.18-.42.72-.86,1.1-.86h2.71c.4,0,.53-.15.53-.53v-2.96h0Z"/>
      <path class="cls-4" d="m60.64,89.92l-2.71,2.92s-.51,6.19-.53,6.32c0,.43-.3.61-.61.61h-1.55s-.55,1.03-.57,1.06c-.14.38-.17,1.23-.17,1.23h4.64l3.96-6.8v-1.95l.76.53v.89s2.53-1.42,4.43-1.42c1.32,0,2.83.41,4.01,1.19.78.5,1.41.9,1.86,1.47.83,1.05,1.14,2.36,1.25,3.72h-.95c-.51,0-1.06.33-1.17.76-.05.17-.42,1.61-.42,1.61h5.09l1.02-2.37-.95-5.21s-2.73-2.73-2.73-5.19v-.21c2.36-.37,3.03-1.99,3.03-3.67,0-1.52-.25-2.47-1.84-4.07-.82-.82-2.68-1.66-2.68-2.68,0-.33.29-1.1,1.1-1.1.51,0,1.03.13,1.35.56.34,2.03,2.27,2.9,2.27,2.9l.49-.49s.57.57,2.08.57c0-1.63-.96-2.53-1.55-3.01-.73-.63-1.64-1.31-2.16-1.54-.7-.43-1.5-.49-2.13-.49-1.98,0-3.05,1.28-3.05,2.71,0,1.71,1.57,2.59,2.16,3.18,1.71,1.56,2.02,2,2.02,2.77,0,.72-.35,1.12-.81,1.12h-9.15l1.31,2.45h-3.84v4.01l-3.24-2.37h0Z"/>
      <path class="cls-4" d="m67.29,93.99c.03.09.51,1.67.51,1.67,0,0,.08.17.08.47,0,.88-.72,2.88-1.12,3.56h-2.27c-.43,0-1,1.24-1,2.37h4.75l3.96-4.45s.44-2.11.45-2.16c-.72-.72-2.86-1.68-5.36-1.46h0Z"/>
      <path class="cls-3" d="m44.46,53.55c0,1.84-1.49,3.33-3.33,3.33s-3.33-1.49-3.33-3.33,1.49-3.33,3.33-3.33,3.33,1.49,3.33,3.33h0Z"/>
      <path class="cls-3" d="m44.46,79.32c0,1.84-1.49,3.33-3.33,3.33s-3.33-1.49-3.33-3.33,1.49-3.33,3.33-3.33,3.33,1.49,3.33,3.33h0Z"/>
      <path class="cls-3" d="m48.87,106.33c0,1.84-1.49,3.33-3.33,3.33s-3.33-1.49-3.33-3.33,1.49-3.33,3.33-3.33,3.33,1.49,3.33,3.33h0Z"/>
      <path class="cls-3" d="m86.62,53.55c0,1.84,1.49,3.33,3.33,3.33s3.33-1.49,3.33-3.33-1.49-3.33-3.33-3.33-3.33,1.49-3.33,3.33h0Z"/>
      <path class="cls-3" d="m62.21,51.29c0,1.84,1.49,3.33,3.33,3.33s3.33-1.49,3.33-3.33-1.49-3.33-3.33-3.33-3.33,1.49-3.33,3.33h0Z"/>
      <path class="cls-3" d="m62.21,130.63c0,1.84,1.49,3.33,3.33,3.33s3.33-1.49,3.33-3.33-1.49-3.33-3.33-3.33-3.33,1.49-3.33,3.33h0Z"/>
      <path class="cls-3" d="m86.62,79.32c0,1.84,1.49,3.33,3.33,3.33s3.33-1.49,3.33-3.33-1.49-3.33-3.33-3.33-3.33,1.49-3.33,3.33h0Z"/>
      <path class="cls-3" d="m82.21,106.33c0,1.84,1.49,3.33,3.33,3.33s3.33-1.49,3.33-3.33-1.49-3.33-3.33-3.33-3.33,1.49-3.33,3.33h0Z"/>
      <path class="cls-3" d="m27.28,85.49v2.46h-4.83c-4.24,0-7.88-4.11-7.88-8.56s3.52-8.35,7.88-8.35h4.83v2.37h-4.83c-2.88,0-5.47,2.92-5.47,5.98s2.54,6.11,5.47,6.11c2.37,0,4.83,0,4.83,0h0Z"/>
      <path class="cls-3" d="m116.57,77.21v10.72h-2.32v-3.56h-8.59v3.56h-2.22v-10.72c0-3.26,3.24-6.6,6.6-6.6s6.53,3.36,6.53,6.6h0Zm-6.53-4.05c-2.54,0-4.38,1.72-4.38,4.38v4.46h8.59v-4.46c0-2.63-1.61-4.38-4.21-4.38h0Z"/>
      <path class="cls-3" d="m65.71,143.03c4.71,0,8.54,3.83,8.54,8.54s-3.83,8.54-8.54,8.54-8.54-3.83-8.54-8.54,3.83-8.54,8.54-8.54h0Zm0,2.54c-3.32,0-6,2.69-6,6s2.69,6,6,6,6-2.69,6-6-2.69-6-6-6h0Z"/>
    </g>
  </g>
</svg>