<?xml version="1.0" encoding="UTF-8"?>
<svg id="Layer_2" data-name="Layer 2" xmlns="http://www.w3.org/2000/svg" xmlns:xlink="http://www.w3.org/1999/xlink" viewBox="0 0 33.56 19.58">
  <defs>
    <style>
      .cls-1 {
        clip-path: url(#clippath);
      }

      .cls-2 {
        fill: none;
      }

      .cls-2, .cls-3, .cls-4 {
        stroke-width: 0px;
      }

      .cls-5 {
        clip-path: url(#clippath-1);
      }

      .cls-6 {
        clip-path: url(#clippath-4);
      }

      .cls-7 {
        clip-path: url(#clippath-3);
      }

      .cls-8 {
        clip-path: url(#clippath-2);
      }

      .cls-9 {
        clip-path: url(#clippath-7);
      }

      .cls-10 {
        clip-path: url(#clippath-8);
      }

      .cls-11 {
        clip-path: url(#clippath-6);
      }

      .cls-12 {
        clip-path: url(#clippath-5);
      }

      .cls-13 {
        clip-path: url(#clippath-9);
      }

      .cls-14 {
        clip-path: url(#clippath-14);
      }

      .cls-15 {
        clip-path: url(#clippath-13);
      }

      .cls-16 {
        clip-path: url(#clippath-12);
      }

      .cls-17 {
        clip-path: url(#clippath-10);
      }

      .cls-18 {
        clip-path: url(#clippath-11);
      }

      .cls-3 {
        fill: #2a680b;
      }

      .cls-4 {
        fill: #fff;
      }
    </style>
    <clipPath id="clippath">
      <rect class="cls-2" width="33.56" height="19.58"/>
    </clipPath>
    <clipPath id="clippath-1">
      <rect class="cls-2" width="33.56" height="19.58"/>
    </clipPath>
    <clipPath id="clippath-2">
      <rect class="cls-2" width="33.56" height="19.58"/>
    </clipPath>
    <clipPath id="clippath-3">
      <rect class="cls-2" width="33.56" height="19.58"/>
    </clipPath>
    <clipPath id="clippath-4">
      <rect class="cls-2" width="33.56" height="19.58"/>
    </clipPath>
    <clipPath id="clippath-5">
      <rect class="cls-2" width="33.56" height="19.58"/>
    </clipPath>
    <clipPath id="clippath-6">
      <rect class="cls-2" width="33.56" height="19.58"/>
    </clipPath>
    <clipPath id="clippath-7">
      <rect class="cls-2" width="33.56" height="19.58"/>
    </clipPath>
    <clipPath id="clippath-8">
      <rect class="cls-2" width="33.56" height="19.58"/>
    </clipPath>
    <clipPath id="clippath-9">
      <rect class="cls-2" width="33.56" height="19.58"/>
    </clipPath>
    <clipPath id="clippath-10">
      <rect class="cls-2" width="33.56" height="19.58"/>
    </clipPath>
    <clipPath id="clippath-11">
      <rect class="cls-2" width="33.56" height="19.58"/>
    </clipPath>
    <clipPath id="clippath-12">
      <rect class="cls-2" width="33.56" height="19.58"/>
    </clipPath>
    <clipPath id="clippath-13">
      <rect class="cls-2" width="33.56" height="19.58"/>
    </clipPath>
    <clipPath id="clippath-14">
      <rect class="cls-2" width="33.56" height="19.58"/>
    </clipPath>
  </defs>
  <g id="Layer_1-2" data-name="Layer 1">
    <g id="PAKISTAN">
      <g>
        <g class="cls-1">
          <rect class="cls-4" width="33.56" height="19.58"/>
        </g>
        <g class="cls-5">
          <rect class="cls-3" x="8.39" width="25.17" height="19.58"/>
        </g>
        <g class="cls-8">
          <g>
            <g class="cls-7">
              <path class="cls-4" d="m20.44,3.92c3.24,0,5.86,2.63,5.86,5.87s-2.62,5.88-5.86,5.88-5.86-2.63-5.86-5.88,2.62-5.87,5.86-5.87"/>
            </g>
            <g class="cls-6">
              <path class="cls-3" d="m18.38,4.43c2.22-1.97,5.61-1.77,7.58.45,1.97,2.21,1.77,5.62-.45,7.6-2.22,1.98-5.61,1.77-7.59-.45-1.97-2.22-1.77-5.63.45-7.6"/>
            </g>
            <g class="cls-12">
              <polygon class="cls-4" points="24.82 5.89 23.04 6.67 23.43 7.57 24.82 5.89"/>
            </g>
            <g class="cls-11">
              <polygon class="cls-4" points="24.82 5.89 23.84 7.58 22.99 7.08 24.82 5.89"/>
            </g>
            <g class="cls-9">
              <polygon class="cls-4" points="25.05 8.18 23.75 6.71 23.03 7.37 25.05 8.18"/>
            </g>
            <g class="cls-10">
              <polygon class="cls-4" points="25.05 8.18 23.14 7.76 23.35 6.8 25.05 8.18"/>
            </g>
            <g class="cls-13">
              <polygon class="cls-4" points="22.58 5.39 22.78 7.34 23.75 7.25 22.58 5.39"/>
            </g>
            <g class="cls-17">
              <polygon class="cls-4" points="22.58 5.39 23.88 6.86 23.15 7.51 22.58 5.39"/>
            </g>
            <g class="cls-18">
              <polygon class="cls-4" points="22.95 9.1 23.94 7.41 23.09 6.92 22.95 9.1"/>
            </g>
            <g class="cls-16">
              <polygon class="cls-4" points="22.95 9.1 22.75 7.15 23.73 7.05 22.95 9.1"/>
            </g>
            <g class="cls-15">
              <polygon class="cls-4" points="21.42 7.38 23.33 7.8 23.54 6.85 21.42 7.38"/>
            </g>
            <g class="cls-14">
              <polygon class="cls-4" points="21.42 7.38 23.21 6.6 23.6 7.5 21.42 7.38"/>
            </g>
          </g>
        </g>
      </g>
    </g>
  </g>
</svg>