<?xml version="1.0" encoding="UTF-8"?>
<svg id="Layer_2" data-name="Layer 2" xmlns="http://www.w3.org/2000/svg" viewBox="0 0 346.5 242.25">
  <defs>
    <style>
      .cls-1 {
        fill: #f7b2c3;
      }

      .cls-1, .cls-2 {
        stroke-width: 0px;
      }

      .cls-2 {
        fill: #191c1f;
      }
    </style>
  </defs>
  <g id="Ebene_1" data-name="Ebene 1">
    <g id="Livello_1-2" data-name="Livello 1-2">
      <path id="path5956" class="cls-2" d="m51.51,84.09s-19-20.39-51.51-.81c0,0,6.73-2.13,20.7,13.2l130.53,142.91c.64-13.01,3.15-25.86,7.43-38.16L51.51,84.09Z"/>
      <path id="path5958" class="cls-1" d="m76.31,46.71s-18.96-20.39-51.47-.81c0,0,6.69-2.13,20.7,13.2l118.07,129.29c4.45-10.17,9.73-19.96,15.79-29.26L76.31,46.71Z"/>
      <path id="path5960" class="cls-2" d="m101.16,9.33s-19-20.43-51.51-.81c0,0,6.73-2.13,20.7,13.2l116.09,127.08c6.19-8.59,12.91-16.78,20.12-24.53L101.16,9.33Z"/>
      <path id="path5962" class="cls-2" d="m277.58,91.33h0l-25.46-10.45,6.15,4.26-.23.5c-3.29,11.61,14.86,18.23,19.35,5.88"/>
      <path id="path5964" class="cls-2" d="m346.5,102.51c0-56.46-37.85-82.23-81.92-82.23h-122.25c27.94,9.4,95.27,31.11,116.94,38.08,1.97.58,3.87,1.2,5.88,1.9l.93.31h0c6.86,2.45,13.37,5.79,19.35,9.95,9.91,6.46,10.6,14.63,17.49,23.88,7.74,6.97,14.86,8.36,20.12,16.99,7.24,13.31,2.94,19.58-1.2,37.77-.45-5.85-3.79-11.09-8.9-13.97-16.18-8.4-56.69,7.74-63.7,10.33-17.76,7.74-64.59,33.67-88.69,96.74h48.06c4.39-11.66,10.67-22.53,18.57-32.16,11.84-13.99,28.07-23.54,46.05-27.09,8.32-1.97,15.71-3.87,21.24-5.61,32.85-10.45,52.01-41.17,52.01-74.96"/>
    </g>
  </g>
</svg>