<?xml version="1.0" encoding="UTF-8"?>
<svg id="Layer_2" data-name="Layer 2" xmlns="http://www.w3.org/2000/svg" xmlns:xlink="http://www.w3.org/1999/xlink" viewBox="0 0 33.56 19.58">
  <defs>
    <style>
      .cls-1 {
        clip-path: url(#clippath);
      }

      .cls-2 {
        fill: none;
      }

      .cls-2, .cls-3, .cls-4, .cls-5, .cls-6 {
        stroke-width: 0px;
      }

      .cls-7 {
        clip-path: url(#clippath-1);
      }

      .cls-8 {
        clip-path: url(#clippath-4);
      }

      .cls-9 {
        clip-path: url(#clippath-3);
      }

      .cls-10 {
        clip-path: url(#clippath-2);
      }

      .cls-11 {
        clip-path: url(#clippath-7);
      }

      .cls-12 {
        clip-path: url(#clippath-8);
      }

      .cls-13 {
        clip-path: url(#clippath-6);
      }

      .cls-14 {
        clip-path: url(#clippath-5);
      }

      .cls-15 {
        clip-path: url(#clippath-9);
      }

      .cls-4 {
        fill: #bc0030;
      }

      .cls-5 {
        fill: #f3d02f;
      }

      .cls-6 {
        fill: #fff;
      }
    </style>
    <clipPath id="clippath">
      <rect class="cls-2" width="33.56" height="19.58"/>
    </clipPath>
    <clipPath id="clippath-1">
      <rect class="cls-2" width="33.56" height="19.58"/>
    </clipPath>
    <clipPath id="clippath-2">
      <rect class="cls-2" width="33.56" height="19.58"/>
    </clipPath>
    <clipPath id="clippath-3">
      <rect class="cls-2" width="33.56" height="19.58"/>
    </clipPath>
    <clipPath id="clippath-4">
      <rect class="cls-2" width="33.56" height="19.58"/>
    </clipPath>
    <clipPath id="clippath-5">
      <rect class="cls-2" width="33.56" height="19.58"/>
    </clipPath>
    <clipPath id="clippath-6">
      <rect class="cls-2" width="33.56" height="19.58"/>
    </clipPath>
    <clipPath id="clippath-7">
      <rect class="cls-2" width="33.56" height="19.58"/>
    </clipPath>
    <clipPath id="clippath-8">
      <rect class="cls-2" width="33.56" height="19.58"/>
    </clipPath>
    <clipPath id="clippath-9">
      <rect class="cls-2" width="33.56" height="19.58"/>
    </clipPath>
  </defs>
  <g id="Layer_1-2" data-name="Layer 1">
    <g id="PAPUA_NEW_GUINEA" data-name="PAPUA NEW GUINEA">
      <g>
        <g class="cls-1">
          <rect class="cls-3" width="33.56" height="19.58"/>
        </g>
        <g class="cls-7">
          <polygon class="cls-4" points="0 0 33.56 19.58 33.56 0 0 0"/>
        </g>
        <g class="cls-10">
          <g>
            <g class="cls-9">
              <path class="cls-5" d="m21.76,5.69c-.19.25-.65-.25-1.19-.26-.55,0-.94.52-1.09.71-.16.18-.67,1.14-.66,1.24,0,.1.32-.29.43-.35.01.14-.12.3-.09.34.04.05.4-.27.52-.29.03.09-.07.18-.03.32.04.05.25-.23.39-.28.02.1-.13.3-.05.42.06.01.4-.39.51-.43.11-.05-.05.38,0,.41.1-.07.42-.43.52-.48.1-.04,0,.47.03.47.12-.09.44-.52.48-.59.03-.07-.03.66.32,1.05.35.39.89.83.95.83.07-.12-.02-.39.03-.38.16.17.46.42.53.42s-.05-.27.04-.27c.18.17.71.84,1.73,1.15-.07-.19-.22-.36-.23-.46.07.01.31.13.35.11.05,0-.5-.68-.47-.77.12,0,.18.07.23.01-.06-.09-.54-.63-.54-.75s.15.02.19,0c.05-.02-.18-.5-.13-.56.04-.06.55.31.67.31s.03-.45.09-.47c.05-.02.48.24.57.24s.08-.19.11-.17c.03.02,1.02,1.01.68,2.18-.34.83-1.02,1.27-2.03.91.06.09.59.53,1.17.37.58-.16,1.29-.61,1.21-1.75-.08-1.14-.46-1.3-.51-1.47-.06-.17.09.05.22.09.13.04-.02-.24-.06-.36-.03-.13.38.26.48.3.1.03-.24-.93-.34-1-.1-.07.1.02.17.04.07.02-.63-1.06-.78-1.06s.13-.06.21-.06-.8-.71-.95-.71.32-.18.36-.19c.08.01-1.01-.58-1.99.01-.05-.04.46-.4.48-.56,0-.04-.17-.12-.18-.17-.01-.04.27-.18.28-.28-.07-.09-.19-.06-.26-.08-.02-.09.24-.29.22-.39-.02-.05-.21-.07-.25-.03-.05.03.12-.24.09-.32-.02-.04-.12-.01-.21.01-.06-.01.3-.5.23-.57s-1.03.5-1.38,1.14c-.35.64-.08,1.15-.12,1.37-.04.22-.1.43-.25.43s-.49-.23-.6-.34c-.12-.11-.14-.19-.3-.24-.16-.05-.52.09-.66.1-.14.01-.67-.1-.71-.07-.03.04.52.24.65.31.13.07.14.16.23.22.09.06.95.31.67.66"/>
            </g>
            <g class="cls-8">
              <path class="cls-5" d="m25.1,7.29c.27.27,2.12,1.5,2.12,3.01s-1.34,1.46-1.73,1.41c.43.36,2.07.3,2.07-1.41,0-1.5-2.12-3.01-2.39-3.14-.27-.14-.34-.14-.07.14"/>
            </g>
            <g class="cls-14">
              <polygon class="cls-6" points="8.64 6.07 8.93 7.05 9.91 7.05 9.13 7.65 9.42 8.6 8.64 8 7.86 8.57 8.15 7.65 7.37 7.05 8.33 7.05 8.64 6.07"/>
            </g>
            <g class="cls-13">
              <polygon class="cls-6" points="5.65 9.89 5.93 10.87 6.92 10.87 6.14 11.47 6.43 12.42 5.65 11.83 4.87 12.4 5.16 11.47 4.38 10.87 5.34 10.87 5.65 9.89"/>
            </g>
            <g class="cls-11">
              <polygon class="cls-6" points="11.62 9.62 11.9 10.6 12.89 10.6 12.11 11.2 12.39 12.15 11.62 11.55 10.84 12.13 11.12 11.2 10.35 10.6 11.31 10.6 11.62 9.62"/>
            </g>
            <g class="cls-12">
              <polygon class="cls-6" points="8.64 15.06 8.93 16.04 9.91 16.04 9.13 16.64 9.42 17.59 8.64 16.99 7.86 17.56 8.15 16.64 7.37 16.04 8.33 16.04 8.64 15.06"/>
            </g>
            <g class="cls-15">
              <polygon class="cls-6" points="9.98 12.98 10.12 13.47 10.61 13.47 10.22 13.77 10.37 14.24 9.98 13.94 9.59 14.23 9.73 13.77 9.34 13.47 9.82 13.47 9.98 12.98"/>
            </g>
          </g>
        </g>
      </g>
    </g>
  </g>
</svg>