<?xml version="1.0" encoding="UTF-8"?>
<svg id="Layer_2" data-name="Layer 2" xmlns="http://www.w3.org/2000/svg" viewBox="0 0 194.54 238.14">
  <defs>
    <style>
      .cls-1 {
        fill-rule: evenodd;
      }

      .cls-1, .cls-2, .cls-3, .cls-4, .cls-5 {
        stroke-width: 0px;
      }

      .cls-1, .cls-3 {
        fill: #24338a;
      }

      .cls-2 {
        fill: #1c1e1c;
      }

      .cls-4 {
        fill: #fff;
      }

      .cls-5 {
        fill: #ffcf01;
      }
    </style>
  </defs>
  <g id="Ebene_1" data-name="Ebene 1">
    <path id="path7789" class="cls-3" d="m.1.07c.04,40.48-.4,80.98.29,121.45.95,28.03,15.09,53.8,34.25,73.64,17.22,18.82,38.61,34.16,62.63,42.98,35.54-13.31,65.59-40.12,84.62-72.76,11.65-20.27,13.23-44.16,12.48-67.01.04-32.79.02-65.58.02-98.37C129.64.02,64.87-.04.1.07h0Z"/>
    <path id="path7791" class="cls-5" d="m7.57,7.9v30.44h179.42V7.9H7.57Z"/>
    <path id="path7797" class="cls-2" d="m42.07,45.22c-.1,18.94-.04,37.89-.06,56.83H7.42c.11,6.8.02,13.6.34,20.39h34.25v70.98c6.34,6.42,12.96,12.64,20.37,17.81.23-29.59.07-59.19.12-88.78h34.44v-20.39h-34.44c-.01-18.94.03-37.89-.05-56.83-6.77-.23-13.61-.23-20.38,0h0Z"/>
    <path id="path7799" class="cls-4" d="m7.57,45.17v56.88h34.44l.05-56.88H7.57Zm54.91,28.44l.02,28.44h34.44v-56.88h-34.49l.03,28.44Z"/>
    <path id="path7801" class="cls-5" d="m111.18,134.62c0,49.19.03,89.47.07,89.51.04.04.45-.13.91-.38.46-.24,1.44-.78,2.2-1.18.75-.4,2.24-1.24,3.32-1.85,1.07-.61,2.74-1.61,3.71-2.2.97-.6,2.25-1.4,2.86-1.8l1.09-.71V45.17h-14.15v89.45Zm28.59-9.44c0,44,.03,80,.08,80,.04,0,.66-.51,1.39-1.13s2.13-1.85,3.12-2.74c1-.9,3.53-3.35,5.64-5.46l3.82-3.83V45.17h-14.05v80Zm28.2-15.14c0,37.83.03,64.81.09,64.75.04-.05.65-.93,1.36-1.95.69-1.02,1.73-2.58,2.28-3.46.57-.89,1.4-2.24,1.85-3.02.46-.78,1.22-2.12,1.7-2.98.47-.86,1.37-2.61,2-3.9.62-1.29,1.43-3.02,1.8-3.85.36-.83.93-2.21,1.27-3.07.33-.86.86-2.27,1.16-3.14l.55-1.59V45.17h-14.05v64.86Z"/>
    <path id="path7803" class="cls-4" d="m7.86,122.86c0,.22.07,1.18.15,2.12.08.94.21,2.32.3,3.07.08.75.27,2.29.44,3.41.16,1.13.44,2.91.63,3.95.19,1.04.54,2.78.78,3.85.24,1.07.57,2.46.73,3.07.17.61.48,1.74.69,2.49.21.75.61,2.05.88,2.88.27.83.77,2.26,1.1,3.17.34.92.83,2.17,1.07,2.78.25.61.79,1.87,1.19,2.78.4.92,1.26,2.69,1.89,3.95.63,1.26,1.6,3.08,2.15,4.05.54.97,1.47,2.55,2.07,3.51.6.97,1.56,2.48,2.15,3.37.6.89,1.49,2.2,2,2.93.52.72,1.52,2.11,2.24,3.07.73.97,2.08,2.7,3,3.85.93,1.15,2.4,2.94,3.27,3.95.88,1.02,2.17,2.49,2.86,3.27.7.78,2,2.2,2.89,3.15.89.96,1.63,1.73,1.65,1.73,0,0,.02-15.93.02-35.42v-35.42H7.86v.42Zm54.64,44.05v44.46c2.99,2.14,4.58,3.23,5.46,3.82.89.59,2.33,1.53,3.22,2.1.89.56,2.29,1.43,3.12,1.93.83.5,2.3,1.36,3.27,1.9.97.55,2.35,1.32,3.07,1.71.72.39,2.53,1.31,4,2.04,1.47.73,3.43,1.67,4.34,2.08.92.41,2.08.92,2.59,1.13s1.5.62,2.2.9c.7.28,1.69.65,2.2.84.51.19.94.33.96.33.01,0,.02-24.24.02-53.86v-53.86h-34.44v44.47Z"/>
    <g id="text859-3">
      <path id="path1507" class="cls-1" d="m15.3,16.24h.54c.8,0,1.49,0,1.98.17.86.4.95,1.66.95,2.49,0,.75-.11,1.61-.63,2.18-.8.63-1.89.52-2.84.54v-5.39Zm0,17.63v-8.37c1.89-.09,3.93.17,5.68-.69,2.29-1.06,2.84-3.67,2.84-5.99,0-1.75-.23-3.35-1.4-4.67-1.4-1.61-4.21-1.78-6.16-1.78h-5.99v21.5h5.05Z"/>
      <path id="path1509" class="cls-1" d="m28.96,33.87l.6-4.19h3.96l.72,4.19h5.1l-4.67-21.5h-6.08l-4.7,21.5h5.07Zm4.07-7.97h-2.92l1.46-9.63h.06l1.4,9.63Z"/>
      <path id="path1511" class="cls-1" d="m45.83,16.24c2.47-.06,3.53.06,3.53,2.61,0,1.32-.34,2.67-1.81,2.67h-1.72v-5.27Zm0,9.14h1.66c1.18.09,1.58.95,1.72,2.26s.03,3.1.11,4.99c.03.43.14.83.29,1.23h5.5v-.29c-.23-.2-.37-.46-.49-.75-.29-1.38-.32-5.07-.46-6.79-.09-1.49-1.09-2.47-2.49-2.78v-.06c2.12-.97,2.67-2.61,2.67-4.9,0-4.27-2.06-5.93-6.19-5.93h-7.37v21.5h5.05v-8.49Z"/>
      <path id="path1513" class="cls-1" d="m61.73,33.87l-.46-16.86h.06l3.47,16.86h3.76l3.55-16.86h.06l-.52,16.86h4.82V12.37h-7.05l-2.69,12.7h-.06l-2.61-12.7h-7.11v21.5h4.79Z"/>
      <path id="path1515" class="cls-1" d="m83.16,33.87l.6-4.19h3.96l.72,4.19h5.1l-4.67-21.5h-6.08l-4.7,21.5h5.07Zm4.07-7.97h-2.92l1.46-9.63h.06l1.4,9.63Z"/>
      <path id="path1517" class="cls-1" d="m115.71,19.88v-1.81c0-4.39-2.58-6.22-6.88-6.22-4.62,0-6.77,2.18-6.77,6.85v8.83c0,4.39,1.81,6.85,6.45,6.85,5.16,0,7.28-2.58,7.28-6.28v-2.64h-5.05v1.95c0,1.32-.14,3.1-1.86,3.1-1.32,0-1.81-.72-1.81-1.92l.03-10.64c0-1.4.37-2.26,1.95-2.24.95,0,1.61.95,1.61,2.78v1.38h5.05Z"/>
      <path id="path1519" class="cls-1" d="m122.24,33.87l.6-4.19h3.96l.72,4.19h5.1l-4.67-21.5h-6.08l-4.7,21.5h5.07Zm4.07-7.97h-2.92l1.46-9.63h.06l1.4,9.63Z"/>
      <path id="path1521" class="cls-1" d="m145.13,33.87v-4.3h-6.16V12.37h-5.05v21.5h11.21Z"/>
      <path id="path1523" class="cls-1" d="m160.34,19.88v-1.81c0-4.39-2.58-6.22-6.88-6.22-4.62,0-6.77,2.18-6.77,6.85v8.83c0,4.39,1.81,6.85,6.45,6.85,5.16,0,7.28-2.58,7.28-6.28v-2.64h-5.05v1.95c0,1.32-.14,3.1-1.86,3.1-1.32,0-1.81-.72-1.81-1.92l.03-10.64c0-1.4.37-2.26,1.95-2.24.95,0,1.61.95,1.61,2.78v1.38h5.05Z"/>
      <path id="path1525" class="cls-1" d="m168.04,33.87V12.37h-5.05v21.5h5.05Z"/>
      <path id="path1527" class="cls-1" d="m179.26,27.45c0,1.23-.11,3.07-1.75,3.07s-1.83-1.83-1.83-3.07v-8.83c0-1.32.2-2.9,1.81-2.9s1.78,1.58,1.78,2.9v8.83Zm5.05-9.17c0-4.13-2.38-6.42-6.79-6.42s-6.88,2.29-6.88,6.42v8.74c0,4.84,1.78,7.37,6.88,7.37s6.79-2.52,6.79-7.37v-8.74Z"/>
    </g>
  </g>
</svg>