<?xml version="1.0" encoding="UTF-8"?>
<svg id="Layer_2" data-name="Layer 2" xmlns="http://www.w3.org/2000/svg" viewBox="0 0 245.31 270">
  <defs>
    <style>
      .cls-1 {
        stroke-width: .54px;
      }

      .cls-1, .cls-2, .cls-3, .cls-4, .cls-5, .cls-6 {
        stroke: #1d1d1b;
        stroke-miterlimit: 2.64;
      }

      .cls-1, .cls-2, .cls-3, .cls-5, .cls-6 {
        fill: none;
      }

      .cls-2 {
        stroke-linecap: round;
        stroke-width: .8px;
      }

      .cls-3 {
        stroke-width: 2.08px;
      }

      .cls-4, .cls-7 {
        fill: #1d1d1b;
      }

      .cls-4, .cls-6 {
        stroke-width: 1.04px;
      }

      .cls-5 {
        stroke-width: .53px;
      }

      .cls-7, .cls-8, .cls-9, .cls-10 {
        stroke-width: 0px;
      }

      .cls-8 {
        fill: #231f20;
      }

      .cls-9 {
        fill: #fff;
      }

      .cls-10 {
        fill: #ee212e;
      }
    </style>
  </defs>
  <g id="Ebene_1" data-name="Ebene 1">
    <g id="g1886">
      <path id="path1530" class="cls-8" d="m121.37.58l-2.99,1.35C24,44.41,5.08,52.26,2.2,53.16l-2.2.69v2.3c0,57.67,9.5,100.01,29.88,133.23,18.33,29.87,45.61,53.74,91.22,79.83l1.4.8h.32l1.4-.8c45.6-26.09,72.88-49.96,91.21-79.83,20.39-33.22,29.88-75.56,29.88-133.23v-2.3l-2.19-.69c-2.88-.9-21.8-8.75-116.19-51.24l-4.27-1.92-1.28.58Z"/>
      <path id="path1532" class="cls-10" d="m120.95,7.63s.87-.39,1.71-.77c.83.38,1.7.77,1.7.77,65.84,29.64,104.33,46.65,114.66,50.69-.24,55.34-9.43,96.01-28.94,127.78-17.53,28.57-43.75,51.59-87.43,76.76-43.67-25.17-69.9-48.19-87.43-76.76C15.73,154.32,6.52,113.66,6.29,58.32c10.33-4.04,48.82-21.05,114.66-50.69"/>
      <path id="path1534" class="cls-5" d="m120.95,7.63s.87-.39,1.71-.77c.83.38,1.7.77,1.7.77,65.84,29.64,104.33,46.65,114.66,50.69-.24,55.34-9.43,96.01-28.94,127.78-17.53,28.57-43.75,51.59-87.43,76.76-43.67-25.17-69.9-48.19-87.43-76.76C15.73,154.32,6.52,113.66,6.29,58.32c10.33-4.04,48.82-21.05,114.66-50.69Z"/>
      <path id="path1536" class="cls-7" d="m50.6,64.99c1.28-1.18,3.19-2.68,6.03-4.53,2.88-1.87,5.32-2.67,7.44-2.44,1.97.16,3.95,1.32,5.26,3.34,1.33,2.05,1.81,4.19,1.32,6.11-.64,2.51-2.57,4.77-5.33,6.56-.62.4-1.18.73-1.67.91l4.81,7.41-4.63,3.01-13.23-20.38Zm10.71,6.37c.46-.16.97-.46,1.64-.89,2.48-1.61,3.2-3.87,1.85-5.95-1.23-1.9-3.25-2.2-5.61-.67-.95.62-1.56,1.09-1.83,1.41l3.96,6.1Z"/>
      <path id="path1538" class="cls-3" d="m50.6,64.99c1.28-1.18,3.19-2.68,6.03-4.53,2.88-1.87,5.32-2.67,7.44-2.44,1.97.16,3.95,1.32,5.26,3.34,1.33,2.05,1.81,4.19,1.32,6.11-.64,2.51-2.57,4.77-5.33,6.56-.62.4-1.18.73-1.67.91l4.81,7.41-4.63,3.01-13.23-20.38Zm10.71,6.37c.46-.16.97-.46,1.64-.89,2.48-1.61,3.2-3.87,1.85-5.95-1.23-1.9-3.25-2.2-5.61-.67-.95.62-1.56,1.09-1.83,1.41l3.96,6.1Z"/>
      <path id="path1540" class="cls-7" d="m89.09,60.29l-8.38,3.45,2.23,5.41,9.35-3.85,1.74,4.22-14.49,5.97-9.38-22.77,14.02-5.77,1.74,4.22-8.88,3.66,1.95,4.73,8.38-3.45,1.73,4.19Z"/>
      <path id="path1542" class="cls-3" d="m89.09,60.29l-8.38,3.45,2.23,5.41,9.35-3.85,1.74,4.22-14.49,5.97-9.38-22.77,14.02-5.77,1.74,4.22-8.88,3.66,1.95,4.73,8.38-3.45,1.73,4.19Z"/>
      <path id="path1544" class="cls-7" d="m90.2,45.43c1.69-.68,4.22-1.43,7.16-2.03,3.58-.73,6.19-.71,8.2.33,1.7.84,2.83,2.36,3.29,4.58.63,3.04-1.12,5.6-3.04,6.78l.02.11c1.82.34,3.07,1.72,4.14,3.81,1.32,2.6,2.68,5.6,3.34,6.44l-5.58,1.15c-.5-.6-1.51-2.45-2.8-5.28-1.31-2.9-2.51-3.48-4.77-3.05l-1.61.33,1.95,9.48-5.4,1.11-4.88-23.76Zm7.53,9.24l2.15-.44c2.72-.56,4.05-2.25,3.62-4.36-.45-2.19-2.19-3.02-4.69-2.51-1.33.28-2.06.5-2.43.69l1.36,6.62Z"/>
      <path id="path1546" class="cls-3" d="m90.2,45.43c1.69-.68,4.22-1.43,7.16-2.03,3.58-.73,6.19-.71,8.2.33,1.7.84,2.83,2.36,3.29,4.58.63,3.04-1.12,5.6-3.04,6.78l.02.11c1.82.34,3.07,1.72,4.14,3.81,1.32,2.6,2.68,5.6,3.34,6.44l-5.58,1.15c-.5-.6-1.51-2.45-2.8-5.28-1.31-2.9-2.51-3.48-4.77-3.05l-1.61.33,1.95,9.48-5.4,1.11-4.88-23.76Zm7.53,9.24l2.15-.44c2.72-.56,4.05-2.25,3.62-4.36-.45-2.19-2.19-3.02-4.69-2.51-1.33.28-2.06.5-2.43.69l1.36,6.62Z"/>
      <path id="path1548" class="cls-7" d="m119.49,40.86l-.23,14.14c-.07,4.27,1.54,6.46,4.36,6.5,2.92.05,4.56-1.97,4.63-6.35l.23-14.14,5.55.09-.22,13.81c-.13,7.6-4.02,11.15-10.45,11.05-6.21-.1-9.77-3.63-9.64-11.45l.22-13.73,5.55.09Z"/>
      <path id="path1550" class="cls-3" d="m119.49,40.86l-.23,14.14c-.07,4.27,1.54,6.46,4.36,6.5,2.92.05,4.56-1.97,4.63-6.35l.23-14.14,5.55.09-.22,13.81c-.13,7.6-4.02,11.15-10.45,11.05-6.21-.1-9.77-3.63-9.64-11.45l.22-13.73,5.55.09Z"/>
      <path id="path1552" class="cls-7" d="m156.03,69.71c-1.81.16-5.16.16-8.31-.62-4.36-1.07-7.25-2.95-8.94-5.58-1.65-2.63-2.09-6.05-1.22-9.56,1.99-7.94,8.89-11.05,16.73-9.13,3.09.76,5.32,1.95,6.36,2.76l-2.21,4.08c-1.16-.93-2.66-1.74-5.28-2.39-4.51-1.11-8.58.6-9.85,5.78-1.22,4.97,1.2,8.61,5.63,9.7,1.21.3,2.24.4,2.7.32l1.24-5.04-3.69-.91,1.04-4.22,8.91,2.19-3.1,12.6Z"/>
      <path id="path1554" class="cls-3" d="m156.03,69.71c-1.81.16-5.16.16-8.31-.62-4.36-1.07-7.25-2.95-8.94-5.58-1.65-2.63-2.09-6.05-1.22-9.56,1.99-7.94,8.89-11.05,16.73-9.13,3.09.76,5.32,1.95,6.36,2.76l-2.21,4.08c-1.16-.93-2.66-1.74-5.28-2.39-4.51-1.11-8.58.6-9.85,5.78-1.22,4.97,1.2,8.61,5.63,9.7,1.21.3,2.24.4,2.7.32l1.24-5.04-3.69-.91,1.04-4.22,8.91,2.19-3.1,12.6Z"/>
      <path id="path1556" class="cls-7" d="m171.81,51.38l-9.55,22.7-5.12-2.15,9.55-22.7,5.12,2.15Z"/>
      <path id="path1558" class="cls-3" d="m171.81,51.38l-9.55,22.7-5.12-2.15,9.55-22.7,5.12,2.15Z"/>
      <path id="path1560" class="cls-7" d="m172.53,72.17l-4.77,4.49-4.92-3.02,19.29-17.05,6.2,3.8-6.33,25-5.11-3.13,1.69-6.38-6.04-3.71Zm7.5-.28l1.42-5.26c.42-1.46,1.02-3.27,1.46-4.68l-.1-.06c-1.04,1.08-2.36,2.45-3.41,3.48l-4.01,3.67,4.64,2.85Z"/>
      <path id="path1562" class="cls-3" d="m172.53,72.17l-4.77,4.49-4.92-3.02,19.29-17.05,6.2,3.8-6.33,25-5.11-3.13,1.69-6.38-6.04-3.71Zm7.5-.28l1.42-5.26c.42-1.46,1.02-3.27,1.46-4.68l-.1-.06c-1.04,1.08-2.36,2.45-3.41,3.48l-4.01,3.67,4.64,2.85Z"/>
      <path id="path1564" class="cls-9" d="m50.6,64.99c1.28-1.18,3.19-2.68,6.03-4.53,2.88-1.87,5.32-2.67,7.44-2.44,1.97.16,3.95,1.32,5.26,3.34,1.33,2.05,1.81,4.19,1.32,6.11-.64,2.51-2.57,4.77-5.33,6.56-.62.4-1.18.73-1.67.91l4.81,7.41-4.63,3.01-13.23-20.38Zm10.71,6.37c.46-.16.97-.46,1.64-.89,2.48-1.61,3.2-3.87,1.85-5.95-1.23-1.9-3.25-2.2-5.61-.67-.95.62-1.56,1.09-1.83,1.41l3.96,6.1Z"/>
      <path id="path1566" class="cls-9" d="m89.09,60.29l-8.38,3.45,2.23,5.41,9.35-3.85,1.74,4.22-14.49,5.97-9.38-22.77,14.02-5.77,1.74,4.22-8.88,3.66,1.95,4.73,8.38-3.45,1.73,4.19Z"/>
      <path id="path1568" class="cls-9" d="m90.2,45.43c1.69-.68,4.22-1.43,7.16-2.03,3.58-.73,6.19-.71,8.2.33,1.7.84,2.83,2.36,3.29,4.58.63,3.04-1.12,5.6-3.04,6.78l.02.11c1.82.34,3.07,1.72,4.14,3.81,1.32,2.6,2.68,5.6,3.34,6.44l-5.58,1.15c-.5-.6-1.51-2.45-2.8-5.28-1.31-2.9-2.51-3.48-4.77-3.05l-1.61.33,1.95,9.48-5.4,1.11-4.88-23.76Zm7.53,9.24l2.15-.44c2.72-.56,4.05-2.25,3.62-4.36-.45-2.19-2.19-3.02-4.69-2.51-1.33.28-2.06.5-2.43.69l1.36,6.62Z"/>
      <path id="path1570" class="cls-9" d="m119.49,40.86l-.23,14.14c-.07,4.27,1.54,6.46,4.36,6.5,2.92.05,4.56-1.97,4.63-6.35l.23-14.14,5.55.09-.22,13.81c-.13,7.6-4.02,11.15-10.45,11.05-6.21-.1-9.77-3.63-9.64-11.45l.22-13.73,5.55.09Z"/>
      <path id="path1572" class="cls-9" d="m156.03,69.71c-1.81.16-5.16.16-8.31-.62-4.36-1.07-7.25-2.95-8.94-5.58-1.65-2.63-2.09-6.05-1.22-9.56,1.99-7.94,8.89-11.05,16.73-9.13,3.09.76,5.32,1.95,6.36,2.76l-2.21,4.08c-1.16-.93-2.66-1.74-5.28-2.39-4.51-1.11-8.58.6-9.85,5.78-1.22,4.97,1.2,8.61,5.63,9.7,1.21.3,2.24.4,2.7.32l1.24-5.04-3.69-.91,1.04-4.22,8.91,2.19-3.1,12.6Z"/>
      <path id="path1574" class="cls-9" d="m171.81,51.38l-9.55,22.7-5.12-2.15,9.55-22.7,5.12,2.15Z"/>
      <path id="path1576" class="cls-9" d="m172.53,72.17l-4.77,4.49-4.92-3.02,19.29-17.05,6.2,3.8-6.33,25-5.11-3.13,1.69-6.38-6.04-3.71Zm7.5-.28l1.42-5.26c.42-1.46,1.02-3.27,1.46-4.68l-.1-.06c-1.04,1.08-2.36,2.45-3.41,3.48l-4.01,3.67,4.64,2.85Z"/>
      <path id="path1578" class="cls-7" d="m104.57,222.74h-3.23v-12.21c-1.18,1.1-2.57,1.92-4.18,2.45v-2.94c.84-.28,1.76-.8,2.75-1.57.99-.78,1.67-1.67,2.03-2.7h2.62v16.96Z"/>
      <path id="path1580" class="cls-6" d="m104.57,222.74h-3.23v-12.21c-1.18,1.1-2.57,1.92-4.18,2.45v-2.94c.84-.28,1.76-.8,2.75-1.57.99-.78,1.67-1.67,2.03-2.7h2.62v16.96Z"/>
      <path id="path1582" class="cls-7" d="m125.69,205.79c1.64,0,2.93.58,3.86,1.76,1.1,1.39,1.66,3.69,1.66,6.89s-.56,5.51-1.67,6.91c-.92,1.16-2.2,1.73-3.85,1.73s-2.98-.63-3.99-1.9c-1.01-1.27-1.52-3.52-1.52-6.77s.55-5.48,1.67-6.88c.92-1.16,2.2-1.74,3.84-1.74m0,2.68c-.39,0-.73.12-1.04.37-.31.25-.55.7-.71,1.35-.23.84-.33,2.26-.33,4.25s.1,3.36.29,4.11c.2.75.45,1.24.75,1.49.3.25.65.37,1.04.37s.74-.13,1.04-.38c.31-.25.54-.7.71-1.35.22-.84.33-2.25.33-4.24s-.1-3.36-.3-4.11c-.2-.74-.45-1.24-.75-1.49-.3-.25-.65-.37-1.04-.37"/>
      <path id="path1584" class="cls-6" d="m125.69,205.79c1.64,0,2.93.58,3.86,1.76,1.1,1.39,1.66,3.69,1.66,6.89s-.56,5.51-1.67,6.91c-.92,1.16-2.2,1.73-3.85,1.73s-2.98-.63-3.99-1.9c-1.01-1.27-1.52-3.52-1.52-6.77s.55-5.48,1.67-6.88c.92-1.16,2.2-1.74,3.84-1.74Zm0,2.68c-.39,0-.73.12-1.04.37-.31.25-.55.7-.71,1.35-.23.84-.33,2.26-.33,4.25s.1,3.36.29,4.11c.2.75.45,1.24.75,1.49.3.25.65.37,1.04.37s.74-.13,1.04-.38c.31-.25.54-.7.71-1.35.22-.84.33-2.25.33-4.24s-.1-3.36-.3-4.11c-.2-.74-.45-1.24-.75-1.49-.3-.25-.65-.37-1.04-.37Z"/>
      <path id="path1586" class="cls-7" d="m132.24,218.41l3.23-.33c.09.73.37,1.31.82,1.74.45.43.98.64,1.58.64.68,0,1.25-.28,1.72-.83.47-.55.7-1.39.7-2.51,0-1.05-.23-1.84-.7-2.36-.47-.52-1.07-.78-1.82-.78-.93,0-1.77.41-2.51,1.24l-2.63-.38,1.66-8.78h8.58v3.03h-6.12l-.51,2.86c.72-.36,1.47-.54,2.22-.54,1.44,0,2.66.52,3.66,1.58,1,1.05,1.5,2.42,1.5,4.1,0,1.4-.41,2.65-1.21,3.75-1.1,1.5-2.63,2.25-4.59,2.25-1.56,0-2.84-.42-3.82-1.26-.99-.84-1.58-1.97-1.77-3.4"/>
      <path id="path1588" class="cls-6" d="m132.24,218.41l3.23-.33c.09.73.37,1.31.82,1.74.45.43.98.64,1.58.64.68,0,1.25-.28,1.72-.83.47-.55.7-1.39.7-2.51,0-1.05-.23-1.84-.7-2.36-.47-.52-1.07-.78-1.82-.78-.93,0-1.77.41-2.51,1.24l-2.63-.38,1.66-8.78h8.58v3.03h-6.12l-.51,2.86c.72-.36,1.47-.54,2.22-.54,1.44,0,2.66.52,3.66,1.58,1,1.05,1.5,2.42,1.5,4.1,0,1.4-.41,2.65-1.21,3.75-1.1,1.5-2.63,2.25-4.59,2.25-1.56,0-2.84-.42-3.82-1.26-.99-.84-1.58-1.97-1.77-3.4Z"/>
      <path id="path1590" class="cls-9" d="m104.57,222.74h-3.23v-12.21c-1.18,1.1-2.57,1.92-4.18,2.45v-2.94c.84-.28,1.76-.8,2.75-1.57.99-.78,1.67-1.67,2.03-2.7h2.62v16.96Z"/>
      <path id="path1592" class="cls-9" d="m125.69,205.79c1.64,0,2.93.58,3.86,1.76,1.1,1.39,1.66,3.69,1.66,6.89s-.56,5.51-1.67,6.91c-.92,1.16-2.2,1.73-3.85,1.73s-2.98-.63-3.99-1.9c-1.01-1.27-1.52-3.52-1.52-6.77s.55-5.48,1.67-6.88c.92-1.16,2.2-1.74,3.84-1.74m0,2.68c-.39,0-.73.12-1.04.37-.31.25-.55.7-.71,1.35-.23.84-.33,2.26-.33,4.25s.1,3.36.29,4.11c.2.75.45,1.24.75,1.49.3.25.65.37,1.04.37s.74-.13,1.04-.38c.31-.25.54-.7.71-1.35.22-.84.33-2.25.33-4.24s-.1-3.36-.3-4.11c-.2-.74-.45-1.24-.75-1.49-.3-.25-.65-.37-1.04-.37"/>
      <path id="path1594" class="cls-9" d="m132.24,218.41l3.23-.33c.09.73.37,1.31.82,1.74.45.43.98.64,1.58.64.68,0,1.25-.28,1.72-.83.47-.55.7-1.39.7-2.51,0-1.05-.23-1.84-.7-2.36-.47-.52-1.07-.78-1.82-.78-.93,0-1.77.41-2.51,1.24l-2.63-.38,1.66-8.78h8.58v3.03h-6.12l-.51,2.86c.72-.36,1.47-.54,2.22-.54,1.44,0,2.66.52,3.66,1.58,1,1.05,1.5,2.42,1.5,4.1,0,1.4-.41,2.65-1.21,3.75-1.1,1.5-2.63,2.25-4.59,2.25-1.56,0-2.84-.42-3.82-1.26-.99-.84-1.58-1.97-1.77-3.4"/>
      <path id="path1596" class="cls-7" d="m77.83,169.68h-3.59l-1.4-3.72h-6.54l-1.34,3.72h-3.53l6.3-16.38h3.58l6.53,16.38Zm-6.08-6.49l-2.26-6.07-2.19,6.07h4.45Z"/>
      <path id="path1598" class="cls-6" d="m77.83,169.68h-3.59l-1.4-3.72h-6.54l-1.34,3.72h-3.53l6.3-16.38h3.58l6.53,16.38Zm-6.08-6.49l-2.26-6.07-2.19,6.07h4.45Z"/>
      <path id="path1600" class="cls-4" d="m78.41,169.68h3.13v-3.13h-3.13v3.13Z"/>
      <path id="path1602" class="cls-7" d="m171.53,163.64l3.2.98c-.49,1.81-1.31,3.15-2.46,4.03-1.14.88-2.6,1.32-4.36,1.32-2.18,0-3.97-.75-5.37-2.23-1.4-1.48-2.1-3.52-2.1-6.1,0-2.73.71-4.85,2.11-6.36,1.41-1.51,3.27-2.27,5.57-2.27,2.01,0,3.64.6,4.89,1.78.75.7,1.31,1.7,1.68,3.02l-3.26.78c-.2-.84-.61-1.51-1.22-2-.62-.49-1.37-.73-2.26-.73-1.22,0-2.22.44-2.98,1.3-.76.87-1.14,2.28-1.14,4.24,0,2.07.37,3.54,1.12,4.42.75.88,1.73,1.32,2.92,1.32.88,0,1.64-.28,2.28-.84.63-.56,1.09-1.44,1.37-2.65"/>
      <path id="path1604" class="cls-6" d="m171.53,163.64l3.2.98c-.49,1.81-1.31,3.15-2.46,4.03-1.14.88-2.6,1.32-4.36,1.32-2.18,0-3.97-.75-5.37-2.23-1.4-1.48-2.1-3.52-2.1-6.1,0-2.73.71-4.85,2.11-6.36,1.41-1.51,3.27-2.27,5.57-2.27,2.01,0,3.64.6,4.89,1.78.75.7,1.31,1.7,1.68,3.02l-3.26.78c-.2-.84-.61-1.51-1.22-2-.62-.49-1.37-.73-2.26-.73-1.22,0-2.22.44-2.98,1.3-.76.87-1.14,2.28-1.14,4.24,0,2.07.37,3.54,1.12,4.42.75.88,1.73,1.32,2.92,1.32.88,0,1.64-.28,2.28-.84.63-.56,1.09-1.44,1.37-2.65Z"/>
      <path id="path1606" class="cls-4" d="m176.36,169.68h3.13v-3.13h-3.13v3.13Z"/>
      <path id="path1608" class="cls-9" d="m77.83,169.68h-3.59l-1.4-3.72h-6.54l-1.34,3.72h-3.53l6.3-16.38h3.58l6.53,16.38Zm-6.08-6.49l-2.26-6.07-2.19,6.07h4.45Z"/>
      <path id="path1610" class="cls-9" d="m78.41,169.68h3.13v-3.13h-3.13v3.13Z"/>
      <path id="path1612" class="cls-9" d="m171.53,163.64l3.2.98c-.49,1.81-1.31,3.15-2.46,4.03-1.14.88-2.6,1.32-4.36,1.32-2.18,0-3.97-.75-5.37-2.23-1.4-1.48-2.1-3.52-2.1-6.1,0-2.73.71-4.85,2.11-6.36,1.41-1.51,3.27-2.27,5.57-2.27,2.01,0,3.64.6,4.89,1.78.75.7,1.31,1.7,1.68,3.02l-3.26.78c-.2-.84-.61-1.51-1.22-2-.62-.49-1.37-.73-2.26-.73-1.22,0-2.22.44-2.98,1.3-.76.87-1.14,2.28-1.14,4.24,0,2.07.37,3.54,1.12,4.42.75.88,1.73,1.32,2.92,1.32.88,0,1.64-.28,2.28-.84.63-.56,1.09-1.44,1.37-2.65"/>
      <path id="path1614" class="cls-9" d="m176.36,169.68h3.13v-3.13h-3.13v3.13Z"/>
      <path id="path1616" class="cls-8" d="m161.62,87.04c.62-1.02,1.43-6.6.27-6.6-1.77,0-7.66,9.86-12.24,12.68,0-.51.11-1.81-.31-1.38-.43.43-5.55,3.66-6.54,3.66.98-1.97,5.15-8.38,2.45-8.97.59-1.75,1.59-9.29-.02-9.29s-3.13,10.37-6.16,13.76c-2.91,3.25-8.43,9.53-8.9,10.84-.55-1-.95-2.58-1.53-3.63.67-.67,1.53-3.42,1.53-4.29s-.13-3.01.47-4.49c-2.04.8-5.2,3.68-5.2,3.68,0,0,.07-.63-.18-.88.44,0,.46-.5.46-.66v-1.88s2.01-3.55,4.63-5.49c-1.44-.27-6.06,3.08-6.06,3.08,0,0,.8,2.23-.74,2.23s-.4-2.7-.4-2.7l-1.94-4.36-1.88,4.36s1.24,2.7-.25,2.7-.72-2.3-.72-2.3c0,0-5.76-5.33-7.14-5.02,2.28,2.88,5.49,7.5,5.49,7.5v1.28s-1.21.7-.82,1.67c0,0-1.24-1.03-2.93-.74-6.48,1.11-3.3,7.52-1.19,7.35,0-1.04-.06-1.57.86-1.57,1.45,0,2.91,3.76,3.75,4.6.84.84-3.93-.54-3.48,1.01-1.16.47-4.99,1.41-6.1.6-.2,1.48,1.61,1.87,2.36,1.57.28.67,2.85-.55,2.85-.55,0,0-.02.96.99.96.17,1.48,1.17,1.31,1.51,1.31s1.34,1.74,1.71,1.37c.37-.37.13-2.18,1.31-2.18,1.71,0,.9,2.68-.27,3.15-1.17.47,1.11-.16.79.62-1.44,2.85-2.43,3.84-5.88.85,0,1.54.85,3.27,2.21,4.02-2.87,1.75-4.88.15-5.26-1.88-1.21-.63-1.19-1.36-1.19-1.89s-3.84,1.22-3.84,2.4-1.31-2.4-1.31-3.99c-3.89,2.9,1.16,7.17,2.14,7.62-.1.1-2.7-.51-3.66-2.1,0,2.62,3.6,3.15,2.06,3.61-.6.23-1.41.27-2.52-.11-1-1.28-1.73-3.37-2.44-3.92.61-.17.02-1.19-.67-1.88.41-.69-.17-2.41-.87-2.81.23-.6.32-2.9,0-3.22.05-.68.29-2.35.29-2.35,0,0,.08-.64,1.22-.64s1.56.69,2.29.52c.54-.12,1.8-.8,2-2.06,2.29-.68,2.34-2.83,1.39-3.79-.82,1.11-1.21,1.43-1.99,1.59-1.66-3.05-2.06-.6-3.84-.82-.37-1.51,2.88-2.72.1-4.93-.2-.16-.38-.29-.55-.4l.05-.16c.66-2.64-1.51-3.46-2.32-3.07,1.13,1.57.56,1.81.18,3-.13.1-.24.19-.37.23-1.85.58.37,3.09-2,4.21-1.03.49-1.02-.26-1.42-1.06-.4-.8.04-2.27-.8-3.12-.72-.72-1.17-.88-1.59-.81-.76-1.67-2.41-1.65-3.19-.79.81.67,1.15,1.05,1.32,1.58-1.16.49-2.12,1.18-1.3,2.39.91,1.34,3.82,2.61,4.22,4.86-.17.94-.97,1.38-1.42,2.2-.45.82-.02,1.39-.32,1.69-.3.3-3.69,1.64-3.69,2.92,0,1.02.8,1.61,1.85,2.01-.25.86-.77,1.45-1.7,1.87,1.16.4,2.44.06,3.13-.63.24-.24.4-.51.5-.78.88.04,1.57-.24,1.98-.91.57-.94.22-3.09,1.44-3.55.83-.32,1.17.13,1.17,3.05s1.34,4.32.64,6.93c-.1.39-.18.72-.21.98-1.13.44-1.46,1.1-1.63,1.27.24,0,.27.27.27.27,0,0-.94.58-.94,1.34,2.12-.76,3.06-.16,3.42.2.36.36.4,2.01.4,2.01,0,0-2.26-1.34-3.15-1.07-.73-.09-1.21-.87-2.62-.87-1.72,0-3.93,2.86-3.93,2.86,0,0,2.25-1.65,3.39-1.65s4.53,4.09,5.97,4.42c1.43.34,3.22,0,3.22,0,0,0-.28,2.17-1.13,2.03-.86-.13-.99-.43-1.67-.43-.26-.51-1.35-.49-1.84-.65-.16-.37-1.01-.36-1.59-.6-.36-.36-1.36-.57-2.07-.89-.21-.39-1.33-.61-1.97-.92-.33-.33-1.18-.57-1.69-.83-.18-.36-1.3-.67-1.67-.87-1.5-.83-3.17-1.81-3.8-5.32-.36-2.03,1.57-2.01,1.57-3.12,0-1.01-.79-1.67-1.85-1.77-.12-.2-.29-.46-.53-.78-1.41-1.97-2.83-1.28-3.58-.53.53,0,1.88.92,2.32,1.79-.5.31-.83.66-.83.66,0,0-.63,0-1.96.72-1.77-.95-2.61-.86-3.75.11,1.32.47,1.97.76,2.36.99-.61.93-.22,2.05.05,2.25.41.31.81.57,1.19.8-1.28-.42-2.7-.58-3.23.47-.11,0-.23-.02-.36-.02-2.28,0-2.33,1.94-2.33,3.05,0,0,.76-1.18,2.06-1.18.12,0,.24,0,.35-.02.32,3.01,4.82,1.54,5.82,2.08.37.58-.21.77.3,1.17.51.39,1.39-.15,1.66.12.28.28.68.61.68,2.53,0,1.71-2.4,6.35.52,5.3.64.42,1.02.71.55,2.13,1.23-.8,1.88-2.15,1.53-3.29,2.52-2.05-1.8-2.97-.97-4.56.89-1.72,4.96,1.16,4.96,1.16,0,0-1.23.24-1.38,1.41-.15,1.16.46,1.97,1,2.51.54.54,1.07,1.61,1.72,1.9.65.29,2.49.13,2.71-.35,0,.49.75,1.6,1.31,1.6,0,.56,1.09,3.73,1.47,3.89.37-.94.88-.68,1.16-.4.28,1.16,1.9,1.31,2.32,1.38.42.08.63,1.21.63,2.28,2.19-.43,2.03-2.88,1.83-3.35.47.2,1.81-.73,2.17-.87.12.39.91.88.51,1.27.65.65.54,2.23.54,2.23,0,0,.78-.38,1.24-.48.46.28.39,1.33.02,2.18,1.43-.47,1.26-1.19,1.9-1.85.3.3.56.44,1.17,1.06,1.98,2.14,6.62,4.73,5.89,6.52-1.85-1.54-4.86-3.16-6.66-5.15.99,1.64,2.87,4.6,4.89,6.37-.53.15-1.1.2-1.61.02-1.02-.34-2.24-1.12-2.83-1.43-.5-.4-1.2-.8-2.34-.8-2.14,0-2.85,2.28-2.85,3.22,0,2.78-2.09,1.98-2.09,5.01,0,1.45,1.33,2.12,1.69,3.24.36,1.12-.37,3.15.91,5.47,1.3,2.37,4.23,5.36,5.46,7.06-.58-.18-1.89.39-3.54-.14-2.66-.83-2.79-3.38-4.2-4.11.67-1.72-1.77-3.23-4.02-2.63-2.59-1.48-3.59,1.32-3.44,1.96,1.23.03.83-.11,1.79.05.31.08.38.55.01,1.35-.67-.2-1.71.88-2.2,1.47-.72-.18-2.49.72-1.85,2.82.58-.45,2.39-.74,3.35-.34-.72.54-1.24,1.01-1.01,1.66-1.91.46-1.92,2.86-.98,3.13.54-.31,2.41-.72,2.41-.72,0,0,.85,1.25,1.92,1.52.64.16,1.83-.72,1.83-.72h1.48c1.25,0,3.35-.9,3.89-.63.54.27-1.34,2.19-1.34,2.19.54.13,1.52-1.25,2.01-1.25s.22,1.34-.27,2.19c.76.18.36-2.77,2.19-2.5.31.31.23,1.25-.27,2.1.4-.09,1.48-1.16,2.46-1.3.6-.08,2.37-.04,3.08-.04s.9-.63.9-.63c0,0,1.87-.16,2.54-1.16.67-1-1.2-4.56-1.27-5.7-.03-.6.34-2.65.34-4.08,0-1.14-.54-2.55-.47-3.22v-.38c.88,1,1.61,1.58,2.34,2.52.76.98,3.62,4.24,4.2,4.92.58.67,1.56,1.34,2.14,2.77.58,1.43.76,2.73.8,5.9s-.06,3.76-.06,4.44-.97.93-.87,1.64c-1.18-.59-2.79-.26-3.76,1.03-2.92-.43-3.74,1.37-3.35,2.23-2,1.27-1.33,3.88-.58,4.38.6-.61,1.34-1.7,1.97-1.7.31.79.66,1.46,1.02,1.5-.03,1.95,1.07,2.61,1.87,2.8-.11-.48.37-1.61.9-1.75.63.13,1.38.04,1.88.04.32.44.42.25.73.48-.22.93.78,2.06,1.87,1.98-.19-.6.35-2.14.75-2.14,2.73.02,3.1-2.15,2.86-2.55,2.55-2.82,1.17-5.36.04-6.26.05-.26.36-.88.49-1.27,2.24.26,3.57.1,3.78-.4-2.88.29-3.59-.38-3.39-.87,1.48-.15,3.75-.57,3.55-1.01-1.1.3-3.41.6-3.48-.07.96-.79,2.53-1.02,2.31-1.71-.41.24-2.31.34-2.71.07-.21-.54-.5-1.88-.57-2.11,1.19-3.92-.27-4.25-1.1-4.73-.74-.42.65-4.46.54-6.23-.15-2.3-1.66-3.15-1.76-4.32.85-.7,1.41-1.43,1.66-2.78,1.08.79,2.47,1.5,3.94,1.5,1.14,0,.94-.34,1.57-.38,2.39,1.05,2.52.18,2.25-1.49,2.08-.3,1.44-.17,1.1-.61,4.54-3.62,1.32-.74-.49-.76,1.74-7.64-4.29-18.05,1.03-18.45,3.75-.28-.18,8.71,7.37,10.77.64,1.91,1.66,3.62-.58,6.65,3.93-.94,4.87-4.96,4.29-6.25,2.37-.58,2.68-2.55,4.07-2.55,1.12,0,2.01,1.03,2.99,2.1-.22-.85-.54-5.23-4.02-5.23-1.25,0-2.1.23-2.69.49,1.39-.58,1.84-2.32,1.84-3.53,0-3.03-3.77-6.96-.93-6.96.99,0,1.42.4,2.18,2.4-.11-4.86-3.33-3.79-4.24-2.38-.31.1,0-2.19,2.05-1.95-1.3-1.28-3.56,1.35-4.05,3.57-.04.14-.06.29-.06.46,0,2.36,1.2,3.04,1.2,4.01s-.8,2.46-2.23,2.46c-3.22,0-2.55-6.52-7.15-6.52-3.12,0-5.09,2.86-5.09,6.44,0,3.17,2.63,13.94-.58,13.94-1.75,0-3.03-1.57-3.96-3.34-.24-.99-.64-2.02-1.29-3.88-1.02-2.91-2.83-7.93-3.84-10.53h0c-.02-.05-.04-.1-.06-.16-.08-.22-.23-.62-.29-.92.02-.08.06-.2.1-.36,3.1,1.07,3.63.15,4.12-.92,4.15,1.02,5.36.54,4.91-1.43,2.64-.09,3.35-1.52,2.68-2.23,2.99-.47,3.31-1.29,3.41-1.87.58.12,2.68-1.26,2.45-2.37,1.93.14,6.36-1.25,5.88-4.2.81-.2,2.1-1.29,2.1-3.47,2.24-.5,6.35-3.87,3.74-5.04,2.65-2.65,3.08-3.85,2.17-5.06,3.66-3.05,2.1-4.75.94-5.02,2.89-2.29,3.77-4.32,2.6-5.48,2.28-2.62,2.45-4.78,1.65-5.14,1.89-1.89,5.12-7.56,2.98-8.2m-67.84,45.35c-.55-.55.44-1.88.44-1.88v-.13l2.45.98c-.35.35-2.33,1.59-2.88,1.04"/>
      <path id="path1618" class="cls-9" d="m161.81,81.83c-.57-.57-8.65,9.85-12.33,12.26-3.68,2.41-8.98,6.37-10.72,8.11-1.74,1.74-.25,3.35,1.27,2.34,7.75-5.12,11.9-7.55,17.09-12.73,5.18-5.19,5.08-9.6,4.69-9.98"/>
      <path id="path1620" class="cls-9" d="m151.13,145.59c-.85,0-1.32-.36-1.32-.83s-.29-.97-.29-.97c0,0-1.45,1.98-4.73,1.98-2.01,0-3.69-1.58-3.69-2.48.34.34,2.21,1.74,3.35,1.74s2.14-1.2,2.41-1.2.2.54.54.54c1.54-.34.74-3.89,1.07-4.02.33.17.52.66.87,1.01.76-1.18-.07-2.29-.79-3.39-.72-1.1-1.39-3.78-.86-4.19-.22,0-.48.3-.54.36.04.73.78,4.52.63,4.67-.65-1.96-1.03-4.24-1.47-3.51-.97,3.59,1.54,4.15,1.34,5.73-.2.27-.33-.07-.47.2.2.91-1.48,2.68-2.75,2.68-3.98,0-3.08-7.04-7.44-7.04-2.41,0-4.56,2.66-4.56,6.5,0,2.34,2.68,14.41-1.07,14.41-2.83,0-4.09-2.13-4.86-3.38,0-.1-.02-.18-.03-.24-.2-.8-3.89-1.94-3.96-2.88,4.86,1.01-2.62-3.62-2.62-4.42,4.33,1.27-.54-2.34-.6-3.01,3.28.5-1.27-2.45-1.34-3.35,4.44,1.77.2-1.05.1-1.9,0,0,0,0,.02.01,0,0-.01-.02-.02-.02,2.85-.77-1.4-2.67-1.71-3.16-.36.18,1.16,2.06.89,2.15-3.62-3.84-2.86-.89-1.52,1.61-.27.09-2.37-2.05-2.59-2.77-.04,1.21.36,2.59.54,3.75-.26-.23-.54-.13-.94-.13-.45.76-.13,1.56-.13,2.19-.36,0-.62-1.87-.71-2.32-.09-.45-.72-1.16-.72-2.24,0-.53.37-1.44.8-2.28-2.34.99-5.06,2.78-5.06,3.18,0,3.55,7.8,5.66,7.8,10.41,0,3.63-3.8,1.19-3.8,4.69,0,3.8,4.16,9.07,5.27,10.63,1.12,1.56,3.22,3.94,4.02,4.83.8.9,3.61,3.15,3.61,6.34,0,.9-.44.39-.44,1.83,0,.63.21,3.75.31,4.96.08.98-.98,1.46-.93,2.36.18.19,2.19.76,2.31-2.97.3,2.31-.24,2.81-.98,3.17-1.36.97-1.81,1.99-2.08,2.66-1.3,0-2.46.65-2.17,1.36,1.09.62,1.76,0,1.83-.18,0,.85-1.43,1.36-2.1.72-2.03-.45-3.51,1.87-1.38,2.46,2.81-1.72,1.59,1.09,3.13.26.2-1.63,2.16-2.63,2.16-3.44-.38-.99.23-2.32.99-3.02.02-.02.04-.04.08-.06.12-.1.25-.19.37-.26.39-.3.88-.77,1.02-1.06.18-.38.49-.51.49-1.09.42.31-.36,1.61-.78,2.06-1.32,1.2-3.15,3.15.49,3.44.38.78,1.97-.09,2.06-1.16.38-.24.58-.09.94.13-.11-1.72-1.05-2.16-1.32-2.88-.25-.67-.25-1.84-.14-2.47-1.63-1.11-2.19-1.1-2.64-1.72-.47-.63-.03-2.08-.47-3.85.8.67.47,2.59.87,3.38.48.95,1.95,1.55,2.31,2.01,1.19-.82-.29-.9-.4-2.18,1.12-.94.7-2.37.16-2.37-.65,0-.92.82-1.01,1.72-.49-2.44-1.56-3.91-1.85-4.56.36.2,1.52,1.83,1.97,2.52,2.55-2.84.89-4.07-.13-3.95-.58-3.22.7-4.14-.13-8.24-.67-3.32-2.65-5.06-3.28-6.97.5.2,1.01,1.53,1.94,1.61.73.06,1.19-1.66,1.4-3.22,1.2,1.49,2.92,3.37,5.06,3.37,3.04,0,3.84-2.77,3.84-5.81s-1.24-8.94-1.33-10.54c-.19-3.17.97-5.36,3.03-5.36,2.78,0,2.86,4.65,3.13,6.26.27,1.61,1.19,3.17,2.03,3.17-.4-.57-.26-1.22-.1-1.58.3.37.81,2.39,2.88,2.92,5.62,1.41,1.68-.54.81-1.3.27-.62,2.87.42,3.93-.27-.19-.58,1.95-1.19,4.02-.09.21-1.09-1.76-1.61-2.59-1.61"/>
      <path id="path1622" class="cls-9" d="m105.02,147.86c.72,0,2.68,1.21,2.68,1.7s-.45.72-.45.72c0,0,2.46.89,2.46,3.48s-1.16,1.97-1.16,1.97c0,0,4.69,6.79,4.69,8.54s-.54,3.66-.54,4.69.45,2.23.45,3.75c.9-.05,1.01,1.47.98,1.96-.09,1.52-2.19,1.16-2.19,1.16-.05.54.05.98-1.12.98s-2.37-.31-3.44-.31c-.49-.18-.14-.4-.31-.58-.18-.18-2.28-.13-2.41-.22-.13-.09-.04-.99-.54-.99-1.12,0-.94.49-1.16.49s-1.34.49-1.79.49-.63.27-1.34.27-1.61-.09-1.7-.63c-.1.62-.27,1.12-1.21,1.12-.74,0-2.01-.17-1.81-1.98-.16-.4-2.04-.13-1.27-1.37.77-1.24,2.14-1.14,2.75-.64,0,0,.74-1.1-1.41-1.47-1.06-.18-1.27-.1-1.27-.1,0,0,0-1.17-.44-1.34.06-.44.87-1.2,1.44-1.2,1.21,0,2.59,1.23,2.46,2.48,1.07-.49,1.92-1.29,3.66.13-1.25-2.14-2.32-1.25-2.77-1.34-.62-.72-2.33-2.06-2.95-2.28.22-.31.05-.76.05-.76,0,0,1.07-.58,1.07-.94-.04.76.67,1.03,1.07.67.4-.36,0-1.25,0-1.25,0,0,.76-.45,1.66.41.89.84,0,2.01,0,2.01,0,0,.76-.81,1.79.85.36.58,1.16,1.97,1.25,2.19.09.23-.18-.49.09-.26.27.22,1.16.94,1.74,1.25.58.31,3.71.31,4.47.41.76.09.85.31.94.8,0,0,.22.13.27-.23.05-.36-2.77-3.75-4.56-5.63-1.79-1.87-2.05-4.06-2.05-5.72s.13-2.28-.09-2.63c-.23-.36-2.1-2.28-2.1-3.26,0-1.61,1.74-2.51,2.33-3.71.58-1.21-.36-3.66,1.79-3.66"/>
      <path id="path1624" class="cls-9" d="m93.85,165.64c0-.45,1.35-1.73,1.88-.67.58,1.16-1.16.67-1.88.67"/>
      <path id="path1626" class="cls-9" d="m91.48,170.95c-.44-.58,1.25-1.47,1.61-.8.56,1.06-.98.63-1.61.8"/>
      <path id="path1628" class="cls-9" d="m92.29,175.74c-.4-.67.84-2.54,1.65-1.21.63,1.02-1.11.72-1.65,1.21"/>
      <path id="path1630" class="cls-9" d="m110.03,146.52c.47.56,3.37,4.06,4.07,3.53.92-.71-3.3-3.09-4.07-3.53"/>
      <path id="path1632" class="cls-9" d="m125.42,186.7c-.03.36.73,1.06.27,1.14-.67.11-.64-1.17-.27-1.14"/>
      <path id="path1634" class="cls-9" d="m114.2,190.41c-.64-.03.67-3.03,1.5-2.09,1.09,1.22-.83,1.03-1.5,2.09"/>
      <path id="path1636" class="cls-9" d="m115.59,187.29c-.67-.39,1.66-1.82,2.37-1.42.45.27.96,1.22,1.61,1.67,0,.27.05.7-.29.81-.34.12-1.77.55-1.99.44-.22-.11-.38-.33-.39-.61-.28.05-.83-.19-.95-.34-.11-.14-.36-.56-.36-.56"/>
      <path id="path1638" class="cls-9" d="m118.95,185.27c.59-.34,1.69,1.33,1.07,1.69-.73,0-1.48-1.34-1.07-1.69"/>
      <path id="path1640" class="cls-9" d="m119.66,184.9c.44.55,1.29,2.25,2.11,1.95.66-.24.05-3.3-2.11-1.95"/>
      <path id="path1642" class="cls-9" d="m118.74,193.84c.06-.84,1.23-1.32.42-1.87-.81-.54-1.22,1.78-.42,1.87"/>
      <path id="path1644" class="cls-9" d="m123.98,194.5c-.17-.57.88-1.5,0-1.87-.88-.37-.86,1.87,0,1.87"/>
      <path id="path1646" class="cls-9" d="m123.05,192.5c-.33.5-1.42-.84-.39-1.39.16-.35.56-1.4,1.2-1.23,2.83-2.74,5.53,2.96.98,2.59-.11-.77,1.39-.93.47-1.17-.69-.19-1.05-.06-1.22-.25-.14.16,0,.69.16.95-.28.08-.89-.18-1.09-.53-.31.14-.13.8-.11,1.03"/>
      <path id="path1648" class="cls-9" d="m144.85,149.85c.69.96,1.59,2.16.6,4.56,1.3.69,2.73-4.49-.6-4.56"/>
      <path id="path1650" class="cls-9" d="m120.17,133.34s1.34,2.19,1.92,2.77c.58.58,2.28,1.25,2.55.98s-1.25-1.16-1.7-1.61c-.45-.45-2.14-2.14-2.45-2.46s-.31.31-.31.31"/>
      <path id="path1652" class="cls-9" d="m122.29,131.66c1.52,1.12,5.25,3.55,6.46,3.55s1.82.87.58,1.07c-2.73.45-6.72-2.74-7.75-3.77-1.03-1.03-.8-1.97.72-.85"/>
      <path id="path1654" class="cls-9" d="m123.83,130.93c1.35,1.28,3.22,2.99,6.3,3.35,3.09.36,2.64-.62,1.25-.98-1.39-.36-4.47-.98-5.94-2.46-1.48-1.48-2.46-.72-1.61.09"/>
      <path id="path1656" class="cls-9" d="m124.59,129.41c1.78,1.78,5.49,2.73,8.58,3.13,3.08.4,2.33-1.87.27-1.87s-5.49-.76-7.15-1.92c-1.65-1.16-3.15-.78-1.7.67"/>
      <path id="path1658" class="cls-9" d="m127.49,128.52c2.41.86,4.96,1.51,8.04,1.83,3.08.32,4.91-1.25,1.3-1.88-3.62-.62-5.05-1.65-7.46-2.19-2.41-.54-3.74,1.56-1.88,2.23"/>
      <path id="path1660" class="cls-9" d="m130.71,125.3c3.38,1.39,7.55,2.86,10.1,2.5,2.55-.36,5.22-2.64,2.86-2.64s-8.22.05-10.54-1.29c-2.33-1.34-4.45.59-2.41,1.43"/>
      <path id="path1662" class="cls-9" d="m133.17,123.29c3.92.95,8.98,1.88,11.97.76,2.99-1.12,1.67-2.88-.04-2.28-1.72.6-8.71.36-10.27-.13-1.57-.49-4.24,1.02-1.66,1.65"/>
      <path id="path1664" class="cls-9" d="m134.95,120.88c7.46.76,10.68,1.2,15.77-2.68,2.81-2.15-1.21-.94-2.1-.67-.89.27-9.61,1.16-12.15.89-2.55-.27-3.48,2.46-1.7,2.46h.18Z"/>
      <path id="path1666" class="cls-9" d="m136.38,117.48c6.48.05,11.12,1.01,15.5-3.35,2-1.99,1.92-4.2-1.96-2.73-4.6,1.74-8,2.99-11.93,2.99s-3.62,3.07-1.61,3.08"/>
      <path id="path1668" class="cls-9" d="m137.9,113.95c4.6,0,12.49-3.15,14.78-3.83,3.05-.9,2.69-4.34.55-3.18-2.15,1.16-11.53,5.27-14.25,5.27s-2.01,1.74-1.07,1.74"/>
      <path id="path1670" class="cls-9" d="m138.62,111.63c4.58,0,16.66-6.43,17.51-7.77.85-1.34,1.92-3.75-.58-2.05-2.51,1.7-10.5,7.46-14.75,7.68-4.24.23-2.68,2.14-2.19,2.14"/>
      <path id="path1672" class="cls-9" d="m140.36,109.12c2.94,0,12.67-5.56,14.66-7.55,1.99-1.99,4.12-5.01,3.84-5.54-.42-.81-2.94,1.65-4.91,3.08-2.28,1.65-11.93,7.64-13.14,7.86-1.2.23-1.56,2.14-.45,2.14"/>
      <path id="path1674" class="cls-9" d="m139.82,106.82c5.37-2.79,13.68-7.71,17.83-11.39,2.3-2.05,4.62-6.29,4.16-6.84-.69-.8-3.55,3.15-5.5,5.09-2.99,2.98-14.01,10.39-15.55,11.26-1.54.87-2.37,2.62-.94,1.88"/>
      <path id="path1676" class="cls-9" d="m124.21,90.48c0,.14-.11.25-.25.25h-5.9c-.14,0-.25-.11-.25-.25s.11-.25.25-.25h5.9c.14,0,.25.11.25.25"/>
      <path id="path1678" class="cls-9" d="m133.82,159.74c.23-.07.96-.63,1.03-.89,0,0,.35.85.08,1.03-.39.26-1.11-.14-1.11-.14"/>
      <path id="path1680" class="cls-9" d="m94.88,116.59s2.03.8,2.44,1.43c0-.61-.4-1.59-.83-2.01.81.56,1.51.73,1.79.45-.62-.98-1.96-1.97-1.96-2.28.89.38,1.43.15,1.43-.18-.46-.45-1.43-1.63-1.88-1.87.92.18.87.11,1.3-.31-.8-.42-1.07-1.27-1.83-1.65.78-.16.72-.47,1.1-.64-.44-.17-1.1-.57-1.1-.95.65-.22.91-.36.91-.76s-.56-.99-.56-1.41.36-.83.36-1.12-.2-1.43.87-1.79c.91-.3,1.4-.62,2.3-.36.9.27,1.97.13,1.97-.81s-.31-.78-.31-1.34.38-1.12-.31-1.38c-1.4-.54-2.95,1.32-4.24.94-.43-.13.09-2.37,1.2-2.73,1.12-.36,1.22-1.64.05-2.63-2.62-2.22-1.73,1.35-2.44,2.07-.71.71-1.59,2.46-2.37,2.03-.78-.42-1.91-1.98-2.2-2.27-.64-.63,2.5-3.8-1.97-2.14-4.47,1.65-.82,2.08.94,3.26,3.66,2.45-.88-.27.42,1.45.29.38,1.09,1.09.91,2.06-.18.98-1.15.9-1.3,1.35-.23.71.03,1.55-.56,2.26-1.21,1.45-5.34,3.26-1.76,3.86.7-.7,2.03-.45,1.74.8,1.38.69,1.97-1.5,1.25-2.59-.35-.53.11-2.73,1.83-2.73s1.5,1.03,1.77,1.7c.27.67.04,3.87.51,4.33.47.47.54,5.94.54,5.94"/>
      <path id="path1682" class="cls-9" d="m72.84,114.31c.32-.32.84-.7,2.16-.13.98.43.32,1.25-.37.84-.7-.41-1.07-.6-1.79-.71"/>
      <path id="path1684" class="cls-9" d="m77.04,110.86c1.62-1.13,2.85,1.06,2.96,1.36-.04.16-.84.51-.97.29-.12-.42-1.33-1.66-1.99-1.66"/>
      <path id="path1686" class="cls-9" d="m82.11,133.62c.58-.58,1.34-1.85.84-2.56-.7-.99-1.94.21-1.4.75.54.54.88.77.55,1.81"/>
      <path id="path1688" class="cls-9" d="m109.47,118.82l-4.29,1.41-6.2,6.67c-.64,1.44-2.55,1.44-3.89,1.44s-.82.12-.34-.37-.63-.54-1.47-.54c-1.66,0,1.17-.86-1.69-.86-2.54,0,.5-.65-1.89-.96-2.39-.3.04-.5-1.84-.83-1.89-.34.63-.36-1.64-.81-2.28-.45-.81-.77-1.31-.94-.5-.17-4.45-1.34-4.45-6.64,0-1.04,1.47-1.41,1.34-2.55-.13-1.14-1.21-1.17-2.01-.87-.81.3-1.31,1.11-1.31,1.11,0,0-.91-.14-2.01.54.36.36-.62,1.48-1.47.94-1.83,1.56,3.09,3.87,4.19,4.43.43.33-5.64-2.38-6.11-.94.71.71.69,1.37-.23,1.54-.42,1.06,1.77,1.71,4.22,1.71s2.02.56,2.29.82c.27.27,1.76.14,1.83,2.33.13,3.55-2.1,7.26.03,5.93.13-1.42,1.25-1.65,1.77-1.14,2.56-.62-2.11-3.05-.84-4.58,1.27-1.53,3.97.35,5.58,1.39,1.61,1.04,9.95,4.33,11.49,4.73.15.04.27.02.36-.04h0s7.51,7.67,7.51,7.67l2.86-1.09,2.94-8.99-3.42-10.52Z"/>
      <path id="path1690" class="cls-7" d="m120.3,135.84c0-1.79,1.43-2.59,2.1-2.59s-.36-1.03.67-1.03,1.27-.24,1.57-.54,1.2-1.33,1.73-1.33,1.07-.56,1.07-.97.98-.41.98-.41c0,0,1.17-.9,1.17-1.34s1.12-.13,1.43-.45c.31-.31,1.56-.94,1.25-1.25-.31-.31,1.19-1.83,1.72-1.66.53.16.69-1.64,1.32-1.64s.61-1.56,1.4-1.56,1.01-1.12.57-1.12.36-1.47.81-1.47c.45,0,1.32-.49.88-.93-.44-.44-.53-2.69-.08-2.69s1.52-2.2.99-2.73c-.53-.53.26-1.02.53-1.28.94-.94,2.23-3.49.98-3.49s-.6-.79-.11-1.28c.49-.49,2.88-5.24,2.88-5.24,0,0,3.86-3.59,4.56-4.29.98-.98,1.22-4.54.8-4.96-.42-.42-4.38,3.44-4.38,3.44-.54,0-6.16,1.97-7.24,3.04-1.07,1.07-1.79,1.07-1.79,1.07,0,0,.87-5.88.04-4.93-.36.41-3.64,4.28-3.64,4.28-.45.55-2.39,3.42-2.39,3.42,0,0-1.43.09-2.77,2.77-1.34,2.68-5.63,7.33-6.16,7.86-.54.54-3.93,7.6-3.93,8.13s.27,10.28.27,10.28l2.77,4.91Z"/>
      <path id="path1692" class="cls-9" d="m145.01,95.27c1.38-.63,3.89-2.72,3.89-2.72,0,0,.13,2.1-.58,2.99-.71.89-4.11,3.35-4.38,3.71-.27.36-.72,1.52-1.25,1.74-.54.22-.4-4.38-.4-4.38l2.72-1.34Z"/>
      <path id="path1694" class="cls-9" d="m140.81,97.28c2.19-1.07,3.53-1.56,4.07-1.97.54-.4.67,2.46-.18,3.53-.85,1.07-1.79,2.23-2.95,2.77-1.16.54-2.77,1.12-3.44,1.3-.67.18-1.61.13-1.61.13l1.34-3.66,2.77-2.1Z"/>
      <path id="path1696" class="cls-1" d="m140.81,97.28c2.19-1.07,3.53-1.56,4.07-1.97.54-.4.67,2.46-.18,3.53-.85,1.07-1.79,2.23-2.95,2.77-1.16.54-2.77,1.12-3.44,1.3-.67.18-1.61.13-1.61.13l1.34-3.66,2.77-2.1Z"/>
      <path id="path1698" class="cls-7" d="m140.76,97.1c.76-.54,1.47.09,1.47,1.25s-2.63,3.58-3.84,4.33c-1.21.76-4.02-.31-4.02-.31l3.08-4.65,3.31-.63Z"/>
      <path id="path1700" class="cls-9" d="m136.84,103.61c1.61-.44,4.17-1.11,5.05-1.58.88-.47.09,1.84-1.11,2.74-1.2.91-.82,1.69-1.61,2.48-.79.78-3.59,1.43-3.76,1.48-.17.06-.08-4.02-.08-4.02l1.51-1.11Z"/>
      <path id="path1702" class="cls-1" d="m136.84,103.61c1.61-.44,4.17-1.11,5.05-1.58.88-.47.09,1.84-1.11,2.74-1.2.91-.82,1.69-1.61,2.48-.79.78-3.59,1.43-3.76,1.48-.17.06-.08-4.02-.08-4.02l1.51-1.11Z"/>
      <g id="g1808">
        <path id="path1704" class="cls-9" d="m137.68,108.3c-.54.54-1.47.07-1.24-.17.23-.23.23-1.17.23-1.64s-.3-1.04.2-1.54c.5-.5.87-1.88.87-2.68s1.92-1.57,2.54-2.14c1.54-1.41,1.01-1.93.74-2.62-1.35.44-4.69,2.42-5.23,3.55-.54,1.14-2.98,4.26-3.22,5.63-.23,1.37-1.68,5.29-2.28,7.1-.6,1.81-2.88,6.5-4.69,8.31-1.81,1.81-4.96,3.69-4.96,3.69l-.44-.44.23-.84-.94-1.14v-1.21s.13-.6.13-1.07-.44-.6-.44-.9.23-.77-.1-.77-.74.6-.74,1.07-.23,1.7-.23,2.02-.44.73-.84.32c-.4-.4-1.3-2.99-.67-3.62.62-.62.8-2.23,1.79-3.22.98-.98,4.23-3.37,4.29-5.72.02-.98-.18-2.55.67-2.14.85.4.18,1.21.18,1.74s2.04-1.11,1.4-1.99c1.12.62.45,1.01-.51,2.53-.29.45-.11,1.18-.63,1.7-.51.51-3.08,4.02-3.76,5.36-.67,1.34.36,1.96.63,3.08.26,1.12,1.12,2.11,1.76,1.48.63-.64-.91-1.58-.91-2.05s.94-.54.94-1.07.03-4.09.9-4.09c.5.91-.16,2.88-.16,3.99,0,1.34,1.44,1.27,1.74-1.61.44,2.14,2.28,1.1,1.09-1.73-.58-1.37-.62-3.84.99-5.44-2.71,6.2.9,2.61,1.42,2.1.51-.51.43-2.74.26-3.24-.17-.5.63-1.51,1.12-.12s.13-.77.13-1.58-.79-2.63-1.47-2.78c-.69-.15-2.33-1.49-1.69-2.13.64-.64-.32-1.59-.06-1.84.25-.25,1.34,0,1.34,0,0,0-1.35-1.87-1.51-2.48,1.04,0,3.12,3.91,3.32,3.91s.34-.33.34-.33c0,0-1.95-2.25-1.95-3.44,0-.51,1.51-5.19,1.51-5.19,0,0-1.51,5.19-2.62,4.06-1.42-1.46,1.68-3.53,1.17-5.09,0,0-2.67.9-2.67,4.4-.22-.54-.93-2.72-1.83-3.8-.61-.73-1.7-.5-4.18-.5-3.87,0-3.75,1.41-3.75,2.08,0,1.61,3.32,4.02,3.32,5.43-.37,0-3.56-4.22-3.85-4.79-.29-.57-.34-1.74-.34-1.74,0,0-.52-.84-1.94-.54-5.28,1.12-3.22,4.89-2.21,5.43,0,0,.64-1.06,1.89-1.06,2.9,0,3.03,6.13,8.1,6.86-.74.74-5.16.09-5.41.86-.24.77-1.48.39-1.99,1.35.09.36,1.12.67,1.79,1.09.67,0,2.26-3.05,3.77-1.16.92,1.15.1,3.54.1,3.54,0,0,.84-.04,1.39-.59-.57.89-1.09,2.7-1.09,2.7,0,0,2.07-1.23,2.07-2.94.26,0,.14,1.02-.35,2.26-.5,1.24-1.83,2.88-4.28,5.68-.33-.21-.9-.98-.9-.98,0,0-1.34,1.07-2.23,1.07s-3.44.13-3.84.54c-.4.41-1.79.81-1.79,1.17s-.98,1.79-.98,1.79c0,0-2.06.27-1.07,2.68.98,2.41,1.16,4.02,1.79,5.9.62,1.88,2.3,4.94,2.3,4.94.17.8.26,1.71.31,2.47.07.96.07,1.7.07,1.7,0,0,1.57-2.34,1.57-3.46s1.09-1.25,1.56-1.25c.91,0,.76,1.55.27,2.04-.49.49.45,1.43.45,1.43,0,0,.63-.8.63-1.52s.54-2.15.54-2.15c0,0,1.4-.61,1.51-1.1.11-.49.05,1.6-.07,2.2-.12.6,1.12,1.77,1.48,2.13.8.81,1.38,1.44,1.6,1.22.22-.22-.74-1.34-.74-1.91s-.8-.27-.8-.94-.2-2.75-.2-2.95.4,0,.7,0,1.1.47,1.34.7c.23.23.36.42.49-.02.12-.44-.04-1.4.49-1.4s.92.46,1.17.71c.25.25.67.17.67-.17s.68-.75,1.14-1.21c.46-.46.73-1.2,1.07-1.2s1.04-.3,1.04-.64.39-.45.54-.6c.15-.15.92-.02,1.04-.13.12-.12.2-.74.2-.74,0,0,.94.34,1.17.1.23-.23,0-1.3.47-1.77.47-.47,1.34-.3,1.68-.63.34-.34.8-.69.97-.86.18-.17-.03-.98.2-1.22.24-.23,1.06-.02,1.31-.27.25-.25.25-1.32.25-1.32,0,0,.73-.17.92-.35.18-.18-.77-.54-.77-.8s-.07-.6.14-.74c.21-.14,1.84-.61,2.17-1.21.48-.89-.73-.54-.6-1.78.12-1.24.35-.75.7-1.1.35-.36,1.78-.84,1.78-1.41s-.74-.7-.74-1.24,1.63-1.47,2.18-2.02c.55-.55,1.63-1.6.96-2.27-.67-.67-2.81-.09-3.35.44"/>
        <path id="path1706" class="cls-7" d="m117.69,94.93c1.53.54,1.68,1.4,1.68,1.95.91-.22.86-1.04.78-1.12.23,0,.74-.08,1.09-.26-.35-.73-1.11-.97-1.7-.97-1.09,0-1.85.41-1.85.41"/>
        <path id="path1708" class="cls-9" d="m112,104.83s-1.43-.24-2.02-.24-.4.18-.29.29c.11.11-.45.36.16.36s.99-.49,2.15-.4"/>
        <path id="path1710" class="cls-9" d="m117.09,103.14s-2.34-.5-3.29-.5-.59.32-.47.59c.18.42,1.88-.27,3.77-.09"/>
        <path id="path1712" class="cls-9" d="m114.2,104.32s-1.27.82-1.82.9c-.55.08-.41-.34-.39-.68.03-.53,1.14.16,2.21-.23"/>
        <path id="path1714" class="cls-9" d="m127.29,103.66c.43-.92-.11-3.51,1.19-2.22,1.3,1.3-.36,1.3-.36,1.3,0,0-.61.85-.61,1.14,0,.29-.22-.22-.22-.22"/>
        <path id="path1716" class="cls-9" d="m131.99,105.11l-.96-.96c.69-1.46.31-2.74.89-3.57,1.47-1.47,1.46-1.49,3.75-4.52,0,0,.12,2.7-.97,3.79-1.09,1.09-2.18,1.81-2.18,2.78s-.06,2.01-.54,2.48"/>
        <path id="path1718" class="cls-9" d="m136.12,99.11l.26-3.08s3.62-4.68,5.4-8.04c2.24-4.24,2.73-7.69,2.73-8.7s1.39-.68,1.19,1.42c-.2,2.11-.67,4.96-3.22,10.12-2.55,5.16-6.36,8.28-6.36,8.28"/>
        <path id="path1720" class="cls-9" d="m130.31,103.46l-.51-.51s.83-1.37.83-.83-.31,1.34-.31,1.34"/>
        <path id="path1722" class="cls-9" d="m139.32,97.16c1.09-1.53,4.08-5.73,5.2-8.81.62-1.71,1.66-1.16.9.85-.76,2.01-3.76,6.68-4.21,7.14-.65.26-1.88.83-1.88.83"/>
        <path id="path1724" class="cls-9" d="m128.77,103.87c1.25.59,3.46,4.03,2.85,1.88-.38-1.3-1.88-1.81-2.31-2.08-.44-.27-1.02-.03-.54.2"/>
        <path id="path1726" class="cls-9" d="m86.56,92.3c1.09-.63,2.03-.29,2.58.96.27.6-1.07.98-1.22.52-.32-1.04-1.35-1.48-1.35-1.48"/>
        <path id="path1728" class="cls-9" d="m104.06,99.06c.38.62.36,2.06-1.54,2.71-.94.32-1.42-1.18-.38-1.38,1.15-.23,1.91-1.38,1.91-1.38v.05Z"/>
        <path id="path1730" class="cls-9" d="m95.66,90.79c1.13-.1,2.33.78,1.74,2.95-.16.6-1.55.27-1.42-.11.39-.86.69-1.62-.32-2.84"/>
        <path id="path1732" class="cls-9" d="m85.92,111.72c.58-.35,1.12-1.23,1.36-1.77.57-1.27,1.72-.52,1.27.4-.37.75-1.12,1.36-2.63,1.36"/>
        <path id="path1734" class="cls-9" d="m70.2,121.08c0-1.56,1.39-1.94,2.07-1.94.73,0,1.07,1.15.16,1.15s-1.75.16-2.23.8"/>
        <path id="path1736" class="cls-7" d="m78.02,113.78c-.02.07-.16.17-.08.17.58,0,1.71,2.88,1.81,3.43.1.55.42.63.42.55,0-.68-.97-4.05-1.89-4.33-.07-.02-.23.1-.25.17"/>
        <path id="path1738" class="cls-9" d="m112.45,111.18c.95,2.69,3.51,3.81,4.54,2.78,1.03-1.03,1.61-2.68,1.61-3.4s-.54-.27-.54-.27c0,0-.92,2.21-1.92,2.42-.99.21-1.45.7-3.69-1.54"/>
        <path id="path1740" class="cls-9" d="m109.51,114.19c.08.18-1.81.75-2.79.75s-1.78-.19-1.78-.7.8-.94,1.78-.94,2.55.38,2.79.89"/>
        <path id="path1742" class="cls-9" d="m102.61,110.02c-1.56,1.02-1.54,3.93.98,5.4,2.62,1.53,6.55-.19,6.55-.19,0,0-.49-.55-.63-1.05-3.75,1.92-6.9,1.22-6.9-4.16"/>
        <path id="path1744" class="cls-9" d="m107.68,111.32c-.74.34-1.59.78-2.32,1.21-.74.43,3.2.32,2.95.25-.45-.14-.63-1.45-.63-1.45"/>
        <path id="path1746" class="cls-9" d="m103.17,115.47c.91.92,2.3,1.3,4.62,1.38,2.32.09,2.1-1.11.69-.87-3.91.67-5.32-.52-5.32-.52"/>
        <path id="path1748" class="cls-9" d="m101.56,115.81c.13,1.17.11,1.94,4.94,3.22.67,0-.58-1.24-.91-1.31-3.06-.71-4.03-1.9-4.03-1.9"/>
        <path id="path1750" class="cls-9" d="m95.68,120.07c1.07.49,1.97,2.81,1.97,2.81l-1.57-.72-.4-2.1Z"/>
        <path id="path1752" class="cls-9" d="m102.39,120.83c-1.56-.49-2.63-.73-1.81-.73s3.95-.56,2.39-.56-3.89-.76-5.18-2.14c-.53-.57.14,1.43.98,2.28-.24-.26-1.35-.99-1.7-1.34-2.52-2.52-4.82-.18-4.24-.36,3.48-1.07,4.11,2.28,4.6,2.28s1.7.6,1.7.6c0,0,.01,0,.02,0,.83.66,1.9.88,3.06.88,1.52,0,1.74-.4.18-.89"/>
        <path id="path1754" class="cls-9" d="m92.47,121.41c-1.28-.64,4.2,1.43,5.19,1.65s-1.7.13-2.95-.31c-1.25-.45-1.34-.89-2.23-1.34"/>
        <path id="path1756" class="cls-9" d="m98.28,126.95c.23-1.17.24-2.34,1.43-2.9,1.18-.56,1.65-.63,1.02,0-.62.62-2.06,1.9-2.45,2.9"/>
        <path id="path1758" class="cls-9" d="m87.42,121.55c1.42-1.28,1.92-1.07,2.19-1.07s3.84,2.14,4.91,2.59c1.07.45,3.67.36,5.01,0,1.34-.36-1.59,1.54-2.01,1.97-.42.42-1.87.84-3.75-.67-1.88-1.52-3.71-3.44-4.33-3.44s-2.01.62-2.01.62"/>
        <path id="path1760" class="cls-9" d="m87.33,130.88c-.72-.72-1.02-1.28-.94-2.19.08-.91,1.3-1.16,1.3-1.16l1.56.8s-.44.13-1.47.49c-1.02.36-.83,1.68-.45,2.05"/>
        <path id="path1762" class="cls-9" d="m89.88,128.52c-1.03.49-2.1.31-2.41,1.16-.46,1.25.36,2.1.76,2.5s1.9.87,2.86-.09c.96-.96.27-1.74-1.16-1.48,1.12,1.12-1.32.49-.96-.06.36-.56,2.21-1.27,2.21-1.27l-1.3-.76Z"/>
        <path id="path1764" class="cls-9" d="m91.71,129.48c.3.77.33,1.71.13,2.81-.2,1.11.94,1.71,1.31,1.71s1.77-.2,1.98-1.01c-.86.25-1.51.2-1.78-.06-.27-.27-.21-2,.46-2.67l-2.1-.79Z"/>
        <path id="path1766" class="cls-9" d="m97.03,131.72c-.6.6-1.54.8-1.98,2.48-.44,1.68,0,3.55,1.31,4.19,1.31.64,1.54.07,1.54.07,0,0-1.68-.97-1.68-2.68s3.02-3.58,3.02-3.58l-2.21-.47Z"/>
        <path id="path1768" class="cls-9" d="m93.25,134.4c0,.34.54,2.68,1.01,3.15.2-1.09-.1-2.89.47-3.45-.73.24-1.47.3-1.47.3"/>
        <path id="path1770" class="cls-9" d="m100.24,131.97c-.77.77-3.93,1.94-3.4,4.4.53,2.46,2.28.49,1.67,4.86,4.34-1.99-2.7-6.9,3.08-7.85,1.3-.69-.58-2.18-1.35-1.41"/>
        <path id="path1772" class="cls-9" d="m103.57,140.45c.79-.22,1.42-.49,1.42-.49,0,0-.99-2.85-1.15-3.19-.17-.33.7,3.07-.27,3.67"/>
        <path id="path1774" class="cls-9" d="m102.93,138.52c.36-.36.64-1.14.64-1.27s.44,2.4-.08,2.81c0-.19-.08-1.37-.55-1.54"/>
        <path id="path1776" class="cls-9" d="m102.96,137.97c.65-.6.23-2.16.23-2.16l-1.87-1.87s.72,2.65,1.06,2.98c.33.34.58.8.58,1.04"/>
        <path id="path1778" class="cls-9" d="m101.05,134.02c.02-.13-1.21.58-1.21,1.27s.21,2.11.28,2.34c.07.23,1.96-.58,1.96-.58,0,0-1.21-1.95-1.04-3.03"/>
        <path id="path1780" class="cls-7" d="m114.13,154.87c.02,4.71,3.17,5.61,3.37,8.36-1.9-3.66-4.18-3.71-3.37-8.36"/>
        <path id="path1782" class="cls-7" d="m119.63,166c.49,1.21.85,1.88,1.65,2.72.81.85,1.92,1.83,2.05,2.55.14.72.22-1.16-1.2-2.45-2.5-2.28-2.5-2.81-2.5-2.81"/>
        <path id="path1784" class="cls-7" d="m116.39,147.57c.75.39.42,3.34-.33,3.6.72-2.09-.54-4.05.33-3.6"/>
        <path id="path1786" class="cls-7" d="m118.87,154.3c.31,2.14,2.16,2.37,3.26,4.55-.54-2.55-2.66-2.7-3.26-4.55"/>
        <path id="path1788" class="cls-7" d="m124.31,162.25c1.28,2.59,1.51,4.18,1.37,7.24.47-1.32.49-5.7-1.37-7.24"/>
        <path id="path1790" class="cls-7" d="m124.18,170.12c.59,1.02.77,2,1.37,3.08-.7-.67-1.54-1.71-1.37-3.08"/>
        <path id="path1792" class="cls-7" d="m109.93,159.47s.94,1.47,1.44,3.15c.5,1.68.33,4.29.33,4.29,0,0,.64-2.71.14-4.32-.5-1.61-1.91-3.11-1.91-3.11"/>
        <path id="path1794" class="cls-7" d="m102.87,156.58s1.1,1.44,1.31,2.28c.05.2-.34,1.14-.03,3.35.3,2.21,2.85,4.69,3.19,5,.33.3-2.75-3.82-2.75-5.9,0-3.01.79-3,1.31-3.38-.89.52-1.1.58-1.34.63-.47-.28-1.67-1.98-1.67-1.98"/>
        <path id="path1796" class="cls-7" d="m108.06,174.14s1.51,1.24,2.31,1.24,1.74-.6,1.74-1.74-.64-.94-.64-2.65.6-1.68.8-1.81c.2-.14-1.21.33-1.21,2.04s.57,1.17.57,2.31-.77,1.31-1.17,1.31c-1.3,0-2.41-.7-2.41-.7"/>
        <path id="path1798" class="cls-7" d="m104.71,172.61s-.76-.36-1.38-.36-.36.71-.63.54c-.27-.18-1.25-1.34-1.25-1.34,0,0,.4,1.56.63,1.65.22.09.62-.13.62-.13,0,0,.18.27.49.23.31-.05.45-.49.71-.49.27,0,.8-.09.8-.09"/>
        <path id="path1800" class="cls-7" d="m98.68,171.85c.58-.49,1.47-.72,1.47.05s-.58,0-1.47-.05"/>
        <path id="path1802" class="cls-7" d="m99.57,174.98c-.05-.4-.89-1.44-1.21-.85-.45.85.36.31,1.21.85"/>
        <path id="path1804" class="cls-7" d="m94.46,169.64c.62-.11,1.03-.06,1.69.34-.11-.78-1.2-1.21-1.69-.34"/>
        <path id="path1806" class="cls-7" d="m125.47,186.56c-.35.03-.56,1.31.14,1.22.42-.05-.11-.76-.14-1.22"/>
      </g>
      <path id="path1810" class="cls-2" d="m120.66,128.74c.74.06,1.34-.07,1.74-.67.4-.61,1.54-.27,1.81-.94.27-.67,1.81-.67,1.94-1.34.13-.67,1.68-.67,1.74-1.21.06-.54,1.67-.67,1.74-1.41.07-.73,1.61-.87,1.54-1.47-.06-.6,1.08-1.14,1.14-1.74s1.34-.87,1.27-1.67c-.06-.8,1.14-.87.94-1.74-.2-.87.67-1.2.4-1.87-.26-.67,1.14-1.27.67-1.94-.47-.67.34-.88,0-1.81-.34-.94.94-2.26,1.14-2.77.29-.73.29-1.51.29-2.13s.78-2.41.89-2.75"/>
      <path id="path1812" class="cls-7" d="m113.73,93.76c-.27.42-.24.04-.57-.2-.32-.24-.67-.21-.4-.47.19-.2.36-.41.68-.16.32.24.43.6.28.84"/>
      <path id="path1814" class="cls-7" d="m120.52,102.2c.79-.23,1.62.8,1.38,1.74-.24-1.02-.79-1.41-1.38-1.74"/>
      <path id="path1816" class="cls-7" d="m126.08,103.48c-.54-.2-.84.5-.2,1.14.64.64.8,2.05.8,2.28s0,.87-.44.87-1.07-1.48-1.41-1.81c-.33-.33-1.04-1.4-1.64-2.01s-.35.78.17,1.71c.57,1.04,1.87,2.61,2.15,2.88.26.27.87.97.26,1.57-.6.6,0,.34.57-.23.57-.57.25-.92.8-1.47.55-.55.8-1.69.3-2.68-.5-.99-.71-1.57-1.21-2.07l-.16-.17Z"/>
      <path id="path1818" class="cls-7" d="m158.68,86.71c-1.82,2.93-7.43,8.37-11.68,10.72-.06.03-.09.12-.05.18.03.06-.44.64-.37.6,4.28-2.37,10.5-8.41,12.33-11.37.03-.06.02-.15-.05-.18-.06-.04-.14-.02-.18.04"/>
      <path id="path1820" class="cls-7" d="m158.62,92.26c-3.77,4.21-9.24,7.9-17.4,12.84-.06.04-.08.12-.05.19.04.06.12.28.18.25,8.18-4.96,13.66-8.86,17.46-13.1.05-.05.04-.14-.01-.19-.05-.05-.14-.04-.19.01"/>
      <path id="path1822" class="cls-7" d="m155.34,99.29c-2.99,2.99-9.22,6.45-13.75,8.4-.07.03-.1.11-.07.18.03.07.11.15.18.12,4.55-1.96,10.82-5.5,13.84-8.51.05-.05.05-.13,0-.19-.05-.05-.14-.05-.19,0"/>
      <path id="path1824" class="cls-7" d="m154.31,103.75c-1.78,1.33-9.38,5.61-14.06,6.47-.07.02-.12.08-.11.16.02.07.08.12.16.11,4.72-.88,12.38-5.19,14.17-6.52.06-.05.07-.13.03-.19-.04-.06-.13-.07-.19-.03"/>
      <path id="path1826" class="cls-7" d="m152.32,108.83c-3.64,1.77-9.72,3.46-12.7,4.1-.07.02-.12.09-.1.16.02.07.08.12.16.1,2.99-.65,9.11-2.41,12.76-4.19.06-.03.1-.04.06-.11-.03-.06-.11-.09-.18-.06"/>
      <path id="path1828" class="cls-7" d="m150.17,112.81c-3.04,1.93-6.51,2.47-12.23,2.83-.08,0-.13.07-.13.14,0,.08.18.24.26.24,5.77-.36,9.15-1.02,12.25-2.98.06-.04.08-.12.04-.18-.04-.06-.12-.08-.18-.04"/>
      <path id="path1830" class="cls-7" d="m147.24,118.68c-4.1.84-8.66.94-10.44.94-.05,0-.1.04-.1.1s.05.1.1.1c1.78,0,6.36-.09,10.47-.94.05-.01.09-.06.08-.12-.01-.06-.06-.09-.12-.08"/>
      <path id="path1832" class="cls-7" d="m134.63,122.49c0,.05-.13.11-.07.12,3.15.58,8.16.96,9.71.57.05-.01.08-.07.07-.12-.02-.05-.07-.08-.13-.07-1.52.39-6.34.02-9.47-.57-.05,0-.11.03-.12.08"/>
      <path id="path1834" class="cls-7" d="m132.63,124.68c-.02.05-.19.11-.14.13,2.45.81,5.49,1.64,8.21,1.41.06,0,.1-.05.1-.1,0-.06-.05-.1-.11-.1-2.68.23-5.5-.6-7.93-1.4-.05-.02-.11.01-.13.06"/>
      <path id="path1836" class="cls-7" d="m129.58,127.46s-.14.08-.11.09c1.39.7,5.3,1.82,6.27,1.82.04,0,.06-.03.06-.07,0-.03-.03-.07-.06-.07-.95,0-4.7-1.12-6.07-1.81-.03-.02-.07,0-.09.03"/>
      <path id="path1838" class="cls-7" d="m126.39,129.78s0,.07.03.09c1.84.9,5.41,1.82,6.36,1.82.04,0,.07-.03.07-.07s-.03-.07-.07-.07c-.92,0-4.45-1-6.23-1.87-.03-.02-.15.07-.16.1"/>
      <path id="path1840" class="cls-7" d="m124.59,130.81s-.1.16-.07.18l1,.59c1.38.95,2.68,1.78,5.02,1.94.03,0,.07-.02.07-.06,0-.04-.02-.07-.06-.07-2.29-.16-3.58-1.05-4.95-1.99l-.92-.61s-.07-.01-.09.02"/>
      <path id="path1842" class="cls-7" d="m122.35,132.18s-.18.05-.15.07c.15.12,3.88,3.09,5.59,3.26.04,0,.07-.02.07-.06,0-.04-.02-.07-.06-.07-1.67-.16-5.32-3.18-5.36-3.21-.03-.02-.07-.02-.1,0"/>
      <path id="path1844" class="cls-7" d="m120.78,133.68s-.08.07-.06.09c.08.1,2.08,2.4,2.66,2.63.03.02.07,0,.09-.03.01-.03,0-.08-.04-.09-.55-.23-2.54-2.57-2.55-2.6-.02-.03-.06-.03-.1,0"/>
      <path id="path1846" class="cls-7" d="m95.5,104.39s-1.07-.31-1.07-1.07.78-.45.78.02c0,.47.29,1.05.29,1.05"/>
      <path id="path1848" class="cls-7" d="m92.61,99.16c.89.89,1.33,1.62,1.33,2.16s.29-1.27-.18-1.74c-.47-.47-.67-.85-.67-.85l-.26.27-.21.17Z"/>
      <path id="path1850" class="cls-7" d="m96.31,99.35c-.31,1.2-.78,2.11-.31,2.58.47-1.02.67-1.79.67-2.32,0-.54-.36-.26-.36-.26"/>
      <path id="path1852" class="cls-7" d="m115.07,119.76c0-.85.76,2.73.76,3.17s-.07,2.57-1.34,3.84c-1.27,1.27-4.25,3.04-4.6,3.4-.36.36.18,1.21.18,1.48s-.22,1.45-1.18,1.45-.54-.89-1.27-1.63c-.74-.74-.89-1.65-1.3-2.59-.4-.94.36-1.7.36-1.7,0,0,.27,1.03.74,1.9.47.87,1.09,1.82,1.43,1.82s.74-.73.74-1.22,2.88-3.06,3.44-3.62c.56-.56,1.92-1.69,1.92-2.99s-.65-1.36-1.12-1.83.94-.27,1.02.13c.09.41.23-1.16.23-1.61"/>
      <path id="path1854" class="cls-7" d="m108.55,121.14c.24,1.24.91.63.91,1.63s-.78,1.67-1,2.39c-.23.72-.09,1.39.58.72.67-.67,1.39-1.47,1.39-.44s.95,1.28.8-.18c-.15-1.46-1.16-2.05-1.16-3.04s-.16-1.81-.67-2.32c-.52-.51-.89-.54-1.19.15-.29.7.25.65.34,1.1"/>
      <path id="path1856" class="cls-7" d="m103.81,120.47c.48.7.42,1.19.13,1.47-.29.29-1.07.81-1.47,2.28-.4,1.48.45,1.92.67,1.25.22-.67,1.2-2.14,1.2-2.14,0,0,.76.09.27,1.21-.49,1.12-.09,1.48.38.24.47-1.23.33-3.06.33-3.73s-1.92-1.59-2.15-1.36c-.23.23-1.83.65-.89.65s1.52.13,1.52.13"/>
      <path id="path1858" class="cls-7" d="m106.09,122.71c-.04.8-.23,1.74-.23,2.1s-1.07,1.12-.36,1.12h1.43s.34.69.51.51c.18-.18-.78-1.36-1-1.36s-.03-1.19.4-1.61c.43-.42.23-.76-.27-1.25-.49-.49-.47.04-.49.49"/>
      <path id="path1860" class="cls-7" d="m116.59,124.23c0,1.03-.16,2.34-.62,2.81-.47.47-1.66,1.38-1.66,2.5s.47,1.45-.58.94c-1.05-.52-.8.53.13,1.07.94.54,1.43-.05,1.43-1.12s1.59-1.87,1.87-2.14c.28-.28-.27-1.56.24-1.56s1.54.09,1.14,1.29c-.4,1.21,1.11,1.88,1.11.05s-.73-2.06-.73-2.57.04-.13-.57.06c-.62.19-.19-.49-.62-1.38-.43-.89-1.15-.86-1.16-.13v.18Z"/>
      <path id="path1862" class="cls-7" d="m112.57,122.49c0,.89.47,1.85.76,2.14.29.29-1.16-.63-1.16-.89s-.58.45-.58.81-.58-1.84,0-3.53c.58-1.7,1.43-3.26,2.63-3.26s2.68.31,1.38.9c-1.29.58-1.67.96-2.39,1.67-.72.72-.65,2.17-.65,2.17"/>
      <path id="path1864" class="cls-7" d="m109.13,117.25c.32.32.4,1.17.97.97.57-.2-.97-.97-.97-.97"/>
      <path id="path1866" class="cls-7" d="m110.74,118.86c.47-.47,1.25-1.3,2.1-1.66.85-.36,1.56-.44.85-.04-.72.4-2.32,1.61-2.81,1.83-.49.22-.13-.13-.13-.13"/>
      <path id="path1868" class="cls-7" d="m104.89,127.89c-.68,1.25-1.83,3.26-1.83,3.75s1.59,1.32,2.55,2.28c.96.96,2.28,2.1,2.28,1.39s-1.61-2.01-2.19-2.23c-.58-.22-2.01-1.03-2.01-1.65s1.52-2.55,1.52-2.99c0-.45.17-1.42-.31-.54"/>
      <path id="path1870" class="cls-9" d="m105.18,141.94c.49-.42,1.68-2.36,1.68-2.75s-2.37-3.07-2.37-3.07c0,0-1.09-1.02-.68-.04.41.98,1.93,3.97,1.37,5.87"/>
      <path id="path1872" class="cls-7" d="m99.93,130.13c-.64-1.46.13-2.5.67-3.48.54-.98,1.65-2.19,2.17-2.7.51-.51.91.06.02.96-.89.9-2.28,2.37-2.28,3.53s.18,2.5.18,3.33-.45-.92-.76-1.63"/>
      <path id="path1874" class="cls-7" d="m102.39,127.71c-.75-.75.22,1.34-.31,2.81-.54,1.47.18,2.19.58,2.59.4.4,0-1.74,0-2.55s.13-2.46-.27-2.86"/>
      <path id="path1876" class="cls-7" d="m110.18,137.63c.82.82-.72-2.01-.31-2.79.41-.78.55-1.53-.16-.83-.7.7.19,1.26-.91,2.37-1.11,1.1-1.58.8-.72,1.1.86.3,1.25.13,1.25,1.09v-1.88s.47.55.85.94"/>
      <path id="path1878" class="cls-7" d="m104,134.5c-1.26,1.26-.15,2.12-.15,3.04s1.02.85,1.39,1.22c.37.37,1.07.47.37-1.11-.7-1.58-1.64-1.44-1.64-1.44,0,0,.74-.84.74-1.34,0-.5.17-1.25-.7-.37"/>
      <path id="path1880" class="cls-7" d="m107.47,218.92l3.14-.34c.08.63.28,1.11.6,1.41.32.3.75.46,1.28.46.67,0,1.24-.31,1.7-.93.47-.62.77-1.91.9-3.86-.82.96-1.84,1.43-3.07,1.43-1.33,0-2.49-.52-3.45-1.56-.97-1.04-1.45-2.39-1.45-4.06s.51-3.14,1.53-4.2c1.02-1.06,2.32-1.59,3.9-1.59,1.72,0,3.13.67,4.23,2.01,1.1,1.34,1.66,3.55,1.66,6.62s-.57,5.38-1.72,6.76c-1.14,1.38-2.63,2.07-4.47,2.07-1.32,0-2.39-.35-3.2-1.06-.81-.7-1.33-1.76-1.57-3.16m7.32-7.2c0-1.07-.24-1.89-.73-2.48-.48-.59-1.04-.88-1.68-.88s-1.1.24-1.5.72c-.4.48-.6,1.27-.6,2.37s.21,1.93.65,2.45c.44.52.98.78,1.63.78s1.15-.25,1.58-.75c.43-.5.64-1.24.64-2.21"/>
      <path id="path1882" class="cls-6" d="m107.47,218.92l3.14-.34c.08.63.28,1.11.6,1.41.32.3.75.46,1.28.46.67,0,1.24-.31,1.7-.93.47-.62.77-1.91.9-3.86-.82.96-1.84,1.43-3.07,1.43-1.33,0-2.49-.52-3.45-1.56-.97-1.04-1.45-2.39-1.45-4.06s.51-3.14,1.53-4.2c1.02-1.06,2.32-1.59,3.9-1.59,1.72,0,3.13.67,4.23,2.01,1.1,1.34,1.66,3.55,1.66,6.62s-.57,5.38-1.72,6.76c-1.14,1.38-2.63,2.07-4.47,2.07-1.32,0-2.39-.35-3.2-1.06-.81-.7-1.33-1.76-1.57-3.16Zm7.32-7.2c0-1.07-.24-1.89-.73-2.48-.48-.59-1.04-.88-1.68-.88s-1.1.24-1.5.72c-.4.48-.6,1.27-.6,2.37s.21,1.93.65,2.45c.44.52.98.78,1.63.78s1.15-.25,1.58-.75c.43-.5.64-1.24.64-2.21Z"/>
      <path id="path1884" class="cls-9" d="m107.47,218.92l3.14-.34c.08.63.28,1.11.6,1.41.32.3.75.46,1.28.46.67,0,1.24-.31,1.7-.93.47-.62.77-1.91.9-3.86-.82.96-1.84,1.43-3.07,1.43-1.33,0-2.49-.52-3.45-1.56-.97-1.04-1.45-2.39-1.45-4.06s.51-3.14,1.53-4.2c1.02-1.06,2.32-1.59,3.9-1.59,1.72,0,3.13.67,4.23,2.01,1.1,1.34,1.66,3.55,1.66,6.62s-.57,5.38-1.72,6.76c-1.14,1.38-2.63,2.07-4.47,2.07-1.32,0-2.39-.35-3.2-1.06-.81-.7-1.33-1.76-1.57-3.16m7.32-7.2c0-1.07-.24-1.89-.73-2.48-.48-.59-1.04-.88-1.68-.88s-1.1.24-1.5.72c-.4.48-.6,1.27-.6,2.37s.21,1.93.65,2.45c.44.52.98.78,1.63.78s1.15-.25,1.58-.75c.43-.5.64-1.24.64-2.21"/>
    </g>
  </g>
</svg>