<?xml version="1.0" encoding="UTF-8"?>
<svg id="Layer_2" data-name="Layer 2" xmlns="http://www.w3.org/2000/svg" viewBox="0 0 131.41 175.75">
  <defs>
    <style>
      .cls-1 {
        fill: #fff;
      }

      .cls-1, .cls-2, .cls-3 {
        stroke-width: 0px;
      }

      .cls-2 {
        fill: #00b3f0;
      }

      .cls-3 {
        fill: #034ea2;
      }
    </style>
  </defs>
  <g id="Layer_1-2" data-name="Layer 1">
    <g>
      <path class="cls-3" d="m131.41,92.62c0,9.09-1.35,18.17-4.6,27.46-3.24,9.27-8.37,18.73-15.92,28.56h0c-1.18,1.55-2.64,3.19-4.32,4.87-1.68,1.68-3.58,3.41-5.63,5.11-10.57,8.77-25.3,17.13-35.17,17.13h0c-3.46,0-7.51-1.02-11.76-2.71-2.08-.83-4.19-1.81-6.3-2.91-10.88-5.67-21.97-14.59-27.21-21.48-7.48-9.83-12.61-19.29-15.86-28.56-3.26-9.28-4.65-18.37-4.65-27.46V0h131.4v92.62h.02Z"/>
      <path class="cls-1" d="m125.62,119.67c3.19-9.14,4.52-18.09,4.52-27.05h0V1.26H1.26v91.36c0,8.96,1.37,17.91,4.58,27.05,3.22,9.15,8.28,18.49,15.67,28.22,5.14,6.76,16.05,15.53,26.79,21.12,2.1,1.09,4.17,2.06,6.18,2.86,4.11,1.64,8,2.62,11.29,2.62h0s0,0,0,0c9.56,0,23.98-8.21,34.37-16.83,2.03-1.68,3.9-3.38,5.54-5.02,1.65-1.65,3.07-3.25,4.21-4.74h0s0,0,0,0h0c7.47-9.73,12.53-19.07,15.73-28.22h0Z"/>
      <path class="cls-3" d="m3.95,4.2v76.42l9.31-4.38s4.33,3.11,9.87,3.29c4.61.15,7.23-1.24,8.46-2.73.35-.38.67-1.03.68-1.05h0c.16-.38.25-.79.25-1.23,0-1.84-1.55-3.33-3.45-3.33s-3.46,1.49-3.46,3.33c0,1.16.61,2.17,1.54,2.77h-.02s-1.74.71-3.56.53c-1.83-.18-3.72-.67-6.58-2.32-2.86-1.65-3.41-2.5-3.41-2.5,0,0-1.19-10.76,5.67-16.88,6.95-6.21,14.75-8.05,23.28-7.68,8.53.37,13.96,2.68,20.54,7.19,6.58,4.51,9.93,6.34,15.72,6.89,5.79.55,11.21-2.56,18.04-.18,6.82,2.38,8.17,4.69,8.17,4.69,0,0-9.08,1.95-6.58,10.79,2.5,8.84,7.8,14.14,14.87,17.98,3.7,2.01,9.42,2.54,14.03,2.59V4.2H3.95Z"/>
      <path class="cls-2" d="m23.14,145.46c7.86,10.35,29.75,25.55,42.59,25.55s34.6-15.2,42.46-25.55c6.33-8.25,10.86-16.22,13.94-24.03-1.7.03-3.59.02-5.72-.03-15.17-.37-29.97-15.91-40.5-17.83-7.81-1.42-10.93,1.57-12.43,4.57-1.74,3.47-.18,7.13-.18,7.13,0,0-8.94-.08-16.47-12.16-6.38-10.24-9.03-12.98-15.34-13.8-6.03-.79-7.59.73-21.76-2.1-2.4-.48-4.29-.88-5.77-1.2v12.28c1.08,15.26,6.62,30.64,19.19,47.16h0Z"/>
      <path class="cls-3" d="m125.17,111.37c.11-.45.22-.89.32-1.34-2.04.02-6.03-.38-12.18-2.88-9.41-3.84-23.29-15.3-27.5-18.01-6.4-4.11-22.5-12.25-33.93-13.44-8.97-.93-10.33-.27-10.33-.27v1.1s4-.55,11.06,1.46c9.32,2.65,19.65,8.68,30.72,16.09,6.36,4.26,21.39,13.53,30.71,15.72,5.58,1.31,9.15,1.58,11.13,1.58h0Z"/>
      <path class="cls-1" d="m12.84,15.61c.24-.07.49-.13.73-.13.76,0,1.38.4,1.38,1.59,0,2.15-1.26,2.3-2.12,2.3v-3.76h0Zm-2.32,10.79h2.32v-5.07h1.36c2.06,0,3.23-1.92,3.23-4.52s-1.04-3.49-2.77-3.49h-4.14v13.09h0Z"/>
      <polygon class="cls-1" points="18.3 13.31 24.63 13.31 24.63 15.48 20.77 15.48 20.77 18.67 23.94 18.67 23.94 20.62 20.77 20.62 20.77 24.22 24.94 24.22 24.94 26.4 18.3 26.4 18.3 13.31 18.3 13.31"/>
      <path class="cls-1" d="m25.46,23.77c.8.45,1.65.78,2.51.78.65,0,1.54-.25,1.54-1.43,0-2.12-4.13-2.34-4.13-6.46,0-2.62,1.67-3.67,3.29-3.67.92,0,1.85.16,2.76.4v2.48c-.76-.38-1.56-.71-2.37-.71-.49,0-1.2.27-1.2,1.12,0,1.97,4.28,2.23,4.28,6.5,0,1.32-.49,3.95-3.79,3.95-1.19,0-2.21-.16-2.88-.33v-2.62h0Z"/>
      <path class="cls-1" d="m40.61,15.93c-.88-.47-1.81-.78-2.76-.78-2.24,0-2.95,2.26-2.95,4.62,0,2.93,1.09,4.78,3.2,4.78.88,0,1.85-.4,2.65-.94v2.41c-1.05.49-2.18.71-3.46.71-3.01,0-5.03-2.52-5.03-6.86s2.01-6.88,5.03-6.88c1.23,0,2.29.13,3.31.43v2.52h0Z"/>
      <path class="cls-1" d="m43.77,21l1.26-4.63,1.26,4.63h-2.51Zm-3.11,5.39h1.65l.91-3.33h3.63l.9,3.33h2.49l-3.55-13.09h-2.47l-3.55,13.09h0Z"/>
      <path class="cls-1" d="m53.15,15.48h.76c1.1,0,1.38.6,1.38,1.48,0,.96-.46,2.24-1.32,2.24h-.82v-3.73h0Zm-2.32,10.91h2.32v-5.23h.87l2,5.23h2.99l-2.97-6.08c1-.67,1.73-2.14,1.73-3.73,0-2.35-1.37-3.28-2.53-3.28h-4.41v13.09h0Z"/>
      <path class="cls-1" d="m61.8,21l1.26-4.63,1.26,4.63h-2.51Zm-3.11,5.39h1.65l.91-3.33h3.63l.9,3.33h2.49l-3.55-13.09h-2.47l-3.55,13.09h0Z"/>
      <path class="cls-1" d="m80.34,15.93c-.88-.47-1.81-.78-2.76-.78-2.24,0-2.95,2.26-2.95,4.62,0,2.93,1.09,4.78,3.2,4.78.88,0,1.85-.4,2.65-.94v2.41c-1.05.49-2.18.71-3.46.71-3.01,0-5.02-2.52-5.02-6.86s2.01-6.88,5.02-6.88c1.23,0,2.29.13,3.31.43v2.52h0Z"/>
      <path class="cls-1" d="m83.49,21l1.26-4.63,1.26,4.63h-2.51Zm-3.12,5.39h1.65l.91-3.33h3.63l.9,3.33h2.49l-3.55-13.09h-2.47l-3.55,13.09h0Z"/>
      <polygon class="cls-1" points="90.56 13.31 93.03 13.31 93.03 24.22 97.2 24.22 97.2 26.4 90.56 26.4 90.56 13.31 90.56 13.31"/>
      <path class="cls-1" d="m105.58,15.93c-.88-.47-1.81-.78-2.76-.78-2.24,0-2.95,2.26-2.95,4.62,0,2.93,1.09,4.78,3.2,4.78.88,0,1.85-.4,2.65-.94v2.41c-1.05.49-2.18.71-3.46.71-3.01,0-5.02-2.52-5.02-6.86s2.01-6.88,5.02-6.88c1.23,0,2.29.13,3.31.43v2.52h0Z"/>
      <polygon class="cls-1" points="106.53 13.31 109 13.31 109 26.4 106.53 26.4 106.53 13.31 106.53 13.31"/>
      <path class="cls-1" d="m112.53,19.86c0-2.1.64-4.71,2.4-4.71s2.38,2.61,2.38,4.71-.64,4.69-2.38,4.69-2.4-2.59-2.4-4.69h0Zm-2.63,0c0,4.34,2.01,6.86,5.02,6.86s5.01-2.52,5.01-6.86-2-6.88-5.01-6.88-5.02,2.53-5.02,6.88h0Z"/>
      <polygon class="cls-3" points="51.97 131.32 50.74 131.32 50.74 129.56 54.45 129.02 54.45 142.43 51.97 142.43 51.97 131.32 51.97 131.32"/>
      <path class="cls-3" d="m60.47,130.97c.94,0,1.33,1.34,1.33,2.48s-.44,2.37-1.32,2.37c-.96,0-1.31-1.38-1.31-2.52s.35-2.34,1.29-2.34h0Zm1.49,5.47c-.02,1.19-.38,4.36-2.4,4.36-.81,0-1.63-.31-2.36-.8v2.3c.9.29,1.82.45,2.74.45,3.14,0,4.49-3.53,4.49-7.11,0-3.98-1.4-6.63-4.06-6.63s-3.67,2.97-3.67,4.67c0,2.37,1.28,4.09,2.95,4.09.81,0,1.74-.4,2.15-1.34h.15Z"/>
      <path class="cls-3" d="m66.29,136.58v-1.95h.87c1.39,0,2.14-.74,2.14-2.14,0-1.1-.68-1.52-1.42-1.52-.79,0-1.59.25-2.32.74v-2.05c.92-.42,1.88-.65,2.86-.65,1.9,0,3.36.96,3.36,3.15,0,1.79-.96,2.9-2.1,3.29v.04c1.23.29,2.54,1.65,2.54,3.53,0,1.41-.59,3.73-3.88,3.73-.97,0-1.95-.11-2.9-.43v-2.3c.81.45,1.65.78,2.51.78.79,0,1.64-.51,1.64-1.79,0-1.72-1.17-2.43-2.46-2.43h-.83Z"/>
      <path class="cls-3" d="m76.76,140.8c-.94,0-1.33-1.34-1.33-2.48s.44-2.37,1.32-2.37c.96,0,1.31,1.38,1.31,2.52s-.35,2.33-1.3,2.33h0Zm-1.49-5.47c.03-1.19.38-4.36,2.4-4.36.81,0,1.63.31,2.36.8v-2.3c-.9-.29-1.82-.45-2.74-.45-3.14,0-4.49,3.53-4.49,7.11,0,3.98,1.4,6.62,4.06,6.62s3.67-2.97,3.67-4.67c0-2.37-1.28-4.09-2.95-4.09-.81,0-1.74.4-2.15,1.34h-.15Z"/>
      <path class="cls-1" d="m119.2,92.59c-1.51,0-2.72-1.21-2.72-2.72s1.21-2.71,2.72-2.71,2.71,1.21,2.71,2.71-1.21,2.72-2.71,2.72h0Zm0,.63c1.84,0,3.34-1.5,3.34-3.35s-1.5-3.34-3.34-3.34-3.35,1.5-3.35,3.34,1.49,3.35,3.35,3.35h0Zm.79-3.05c.64-.04.98-.31.98-.98,0-.38-.1-.73-.42-.93-.27-.16-.67-.17-.98-.17h-1.75v3.6h.71v-1.52h.71l.8,1.52h.82l-.87-1.52h0Zm-1.46-.54v-1.02h.87c.35,0,.87,0,.87.48,0,.45-.28.55-.68.54h-1.06Z"/>
    </g>
  </g>
</svg>