<?xml version="1.0" encoding="UTF-8"?>
<svg id="Layer_2" data-name="Layer 2" xmlns="http://www.w3.org/2000/svg" xmlns:xlink="http://www.w3.org/1999/xlink" viewBox="0 0 33.56 19.58">
  <defs>
    <style>
      .cls-1 {
        clip-path: url(#clippath);
      }

      .cls-2 {
        fill: none;
      }

      .cls-2, .cls-3, .cls-4, .cls-5, .cls-6 {
        stroke-width: 0px;
      }

      .cls-7 {
        clip-path: url(#clippath-1);
      }

      .cls-8 {
        clip-path: url(#clippath-4);
      }

      .cls-9 {
        clip-path: url(#clippath-3);
      }

      .cls-10 {
        clip-path: url(#clippath-2);
      }

      .cls-11 {
        clip-path: url(#clippath-7);
      }

      .cls-12 {
        clip-path: url(#clippath-8);
      }

      .cls-13 {
        clip-path: url(#clippath-6);
      }

      .cls-14 {
        clip-path: url(#clippath-5);
      }

      .cls-15 {
        clip-path: url(#clippath-9);
      }

      .cls-16 {
        clip-path: url(#clippath-14);
      }

      .cls-17 {
        clip-path: url(#clippath-13);
      }

      .cls-18 {
        clip-path: url(#clippath-12);
      }

      .cls-19 {
        clip-path: url(#clippath-10);
      }

      .cls-20 {
        clip-path: url(#clippath-15);
      }

      .cls-21 {
        clip-path: url(#clippath-11);
      }

      .cls-3 {
        fill: #2534a4;
      }

      .cls-4 {
        fill: #bc0030;
      }

      .cls-5 {
        fill: #f3d02f;
      }

      .cls-6 {
        fill: #fff;
      }
    </style>
    <clipPath id="clippath">
      <rect class="cls-2" width="33.56" height="19.58"/>
    </clipPath>
    <clipPath id="clippath-1">
      <rect class="cls-2" width="33.56" height="19.58"/>
    </clipPath>
    <clipPath id="clippath-2">
      <rect class="cls-2" width="33.56" height="19.58"/>
    </clipPath>
    <clipPath id="clippath-3">
      <rect class="cls-2" width="33.56" height="19.58"/>
    </clipPath>
    <clipPath id="clippath-4">
      <rect class="cls-2" width="33.56" height="19.58"/>
    </clipPath>
    <clipPath id="clippath-5">
      <rect class="cls-2" width="33.56" height="19.58"/>
    </clipPath>
    <clipPath id="clippath-6">
      <rect class="cls-2" width="33.56" height="19.58"/>
    </clipPath>
    <clipPath id="clippath-7">
      <rect class="cls-2" width="33.56" height="19.58"/>
    </clipPath>
    <clipPath id="clippath-8">
      <rect class="cls-2" width="33.56" height="19.58"/>
    </clipPath>
    <clipPath id="clippath-9">
      <rect class="cls-2" width="33.56" height="19.58"/>
    </clipPath>
    <clipPath id="clippath-10">
      <rect class="cls-2" width="33.56" height="19.58"/>
    </clipPath>
    <clipPath id="clippath-11">
      <rect class="cls-2" width="33.56" height="19.58"/>
    </clipPath>
    <clipPath id="clippath-12">
      <rect class="cls-2" width="33.56" height="19.58"/>
    </clipPath>
    <clipPath id="clippath-13">
      <rect class="cls-2" width="33.56" height="19.58"/>
    </clipPath>
    <clipPath id="clippath-14">
      <rect class="cls-2" width="33.56" height="19.58"/>
    </clipPath>
    <clipPath id="clippath-15">
      <rect class="cls-2" width="33.56" height="19.58"/>
    </clipPath>
  </defs>
  <g id="Layer_1-2" data-name="Layer 1">
    <g id="PHILIPPINES">
      <g>
        <g class="cls-1">
          <rect class="cls-3" width="33.56" height="9.79"/>
        </g>
        <g class="cls-7">
          <rect class="cls-4" y="9.79" width="33.56" height="9.79"/>
        </g>
        <g class="cls-10">
          <polygon class="cls-6" points="0 0 0 19.58 17.04 9.79 0 0"/>
        </g>
        <g class="cls-9">
          <polygon class="cls-5" points="2.3 17.7 1.55 17.25 .9 17.84 1.08 16.99 .32 16.55 1.19 16.46 1.37 15.61 1.72 16.41 2.59 16.31 1.94 16.9 2.3 17.7"/>
        </g>
        <g class="cls-8">
          <path class="cls-5" d="m4.6,8.02l-.64-1.1-.37-.04.88,1.24.13-.1Zm-.5.5l-1.34-1.03-.05-.6.54-.02,1.11,1.36-.26.29Zm-.2.24l-1.1-.62-.04-.36,1.25.85-.1.14Z"/>
        </g>
        <g class="cls-14">
          <path class="cls-5" d="m6.18,7.79l.33-1.22-.23-.29-.27,1.49.17.02Zm-.7,0l-.21-1.68.4-.46.39.38-.19,1.74-.39.02Zm-.31.02l-.33-1.22.23-.29.27,1.5-.17.02Z"/>
        </g>
        <g class="cls-13">
          <path class="cls-5" d="m7.45,8.78l1.11-.61.05-.36-1.26.84.1.14Zm-.49-.51l1.07-1.31.6-.03v.54s-1.38,1.07-1.38,1.07l-.29-.27Zm-.23-.21l.65-1.09.37-.04-.89,1.23-.13-.1Z"/>
        </g>
        <g class="cls-11">
          <path class="cls-5" d="m7.65,10.31l1.22.34.29-.23-1.49-.27-.02.17Zm0-.7l1.68-.21.46.39-.38.39-1.74-.19-.02-.39Zm-.02-.31l1.22-.33.29.23-1.49.27-.02-.17Z"/>
        </g>
        <g class="cls-12">
          <path class="cls-5" d="m6.72,11.56l.64,1.09.36.04-.88-1.24-.13.11Zm.5-.5l1.34,1.03.05.6-.54.02-1.11-1.36.26-.29Zm.2-.24l1.1.62.05.37-1.26-.85.1-.14Z"/>
        </g>
        <g class="cls-15">
          <path class="cls-5" d="m5.15,11.79l-.32,1.23.23.29.26-1.5-.17-.02Zm.71,0l.22,1.68-.39.46-.4-.38.18-1.74.39-.02Zm.31-.02l.34,1.22-.22.29-.28-1.49.17-.02Z"/>
        </g>
        <g class="cls-19">
          <path class="cls-5" d="m3.87,10.83l-1.1.63-.05.37,1.25-.86-.1-.13Zm.5.5l-1.05,1.33-.6.04-.02-.54,1.37-1.09.29.27Zm.23.2l-.63,1.1-.37.04.87-1.24.13.1Z"/>
        </g>
        <g class="cls-21">
          <path class="cls-5" d="m3.66,9.29l-1.22-.32-.29.23,1.5.26.02-.16Zm0,.7l-1.68.22-.46-.39.37-.4,1.74.18.02.39Zm.02.31l-1.22.34-.29-.23,1.49-.28.02.17Z"/>
        </g>
        <g class="cls-18">
          <g>
            <g class="cls-17">
              <path class="cls-5" d="m5.66,7.73c1.14,0,2.07.92,2.07,2.06s-.93,2.07-2.07,2.07-2.06-.93-2.06-2.07.92-2.06,2.06-2.06"/>
            </g>
            <g class="cls-16">
              <polygon class="cls-5" points="12.76 10.5 13.28 9.79 12.76 9.09 13.59 9.36 14.1 8.65 14.1 9.52 14.94 9.79 14.1 10.05 14.1 10.93 13.6 10.22 12.76 10.5"/>
            </g>
            <g class="cls-20">
              <polygon class="cls-5" points="2.3 1.67 1.55 2.11 .9 1.52 1.08 2.38 .32 2.81 1.19 2.9 1.37 3.76 1.72 2.96 2.59 3.05 1.94 2.47 2.3 1.67"/>
            </g>
          </g>
        </g>
      </g>
    </g>
  </g>
</svg>