<?xml version="1.0" encoding="UTF-8"?>
<svg id="Layer_2" data-name="Layer 2" xmlns="http://www.w3.org/2000/svg" viewBox="0 0 327.63 327.63">
  <defs>
    <style>
      .cls-1 {
        fill: #fff;
      }

      .cls-1, .cls-2 {
        stroke-width: 0px;
      }

      .cls-2 {
        fill: red;
      }
    </style>
  </defs>
  <g id="Layer_1-2" data-name="Layer 1">
    <g>
      <polyline class="cls-1" points="0 163.82 163.82 327.63 327.63 163.82 163.82 0 0 163.82"/>
      <polyline class="cls-2" points="321.21 164.64 163.82 322.04 6.42 164.64 163.82 7.25 321.21 164.64"/>
      <rect class="cls-1" x="56.51" y="57.33" width="214.62" height="214.62" transform="translate(-68.44 164.06) rotate(-45)"/>
      <path class="cls-2" d="m90.04,187.13l-45.37-44.53L163.82,21.77l119.14,120.83-39.27,38.91h-25.06l-12.88,23.19h-24.12l-24.83-15.46-20.38,11.48-3.51-12.18-23.19,4.92,1.87-5.39,25.06-5.39,2.58,10.31,18.27-9.13,26.23,15.69h19.21l9.83-18.27-7.72,5.39h-8.2l-.94-6.09-5.15,4.45-23.66-19.21-11.95,3.98,11.95-12.41,30.22,18.74h19.44l5.15-11.25h-10.78l-3.04-7.02h18.03l-30.21-30.92v-22.72l4.45,3.28v17.57l9.37,8.9v-25.06l-3.4-3.4v-32.44l-14.87,14.52h-31.62l-14.52-38.64-20.85,36.77,5.39,6.79-31.6,32.57h9.37c-6.81,15.45-18.99,44.26-18.99,44.26l10.31-1.41-8.9,19.21"/>
      <polyline class="cls-2" points="177.87 121.78 178.34 127.4 166.16 122.48 165.69 116.86 177.87 121.78"/>
      <path class="cls-2" d="m42.56,152.99l1.53,1.53c1.75,1.75,4.56,4.8,1.54,7.83-3.02,3.02-6.14.16-7.99-1.69l-1.37-1.37,6.29-6.3m-23.3,14.8l4.27,4.26,8.77-8.79,1.54,1.53c2.47,2.46,4.59,4.58,8.6,4.93,2.87.12,5.32-.97,7.47-3.12,2.15-2.15,3.23-4.61,3.1-7.47-.35-4.01-2.47-6.13-4.94-8.59l-5.8-5.79-23,23.04Z"/>
      <polyline class="cls-2" points="59.71 162.17 63.98 166.43 40.98 189.47 36.72 185.22 59.71 162.17"/>
      <path class="cls-2" d="m70.54,185.11l.06.06-4.43,9.67-5.29-5.29,9.66-4.45m-28.23,5.85l4.7,4.7,8.42-3.51,8.26,8.24-3.5,8.43,4.7,4.7,13.35-32.68-3.34-3.33-32.6,13.47Z"/>
      <path class="cls-2" d="m92.87,228.46c-6.03,2.43-13.1.66-17.52-3.76-6.67-6.66-6.47-17.57.02-24.08,6.34-6.35,17.13-6.62,23.8.03,3.83,3.83,6.67,10.64,3.86,17.89l-4.86-4.85c.24-3.55-.57-6.66-3.13-9.21-3.74-3.73-10.86-4.14-15.46.47-4.32,4.33-4.43,11.61-.35,15.68,3.08,3.08,6.56,2.95,8.68,2.89l4.96,4.94"/>
      <polyline class="cls-2" points="112.75 215.11 125.15 227.48 121.18 231.47 113.05 223.35 107.42 228.98 115.21 236.76 111.24 240.74 103.45 232.96 97.99 238.43 106.12 246.55 102.15 250.53 89.75 238.15 112.75 215.11"/>
      <polyline class="cls-2" points="128.91 231.24 133.77 236.1 126.59 262.37 126.65 262.43 143.37 245.68 147.64 249.94 124.64 272.98 119.88 268.22 126.96 241.86 126.9 241.79 110.18 258.55 105.91 254.28 128.91 231.24"/>
      <polyline class="cls-2" points="153.37 263.6 145.03 255.27 149 251.3 162.33 264.59 158.63 268.29 134.55 274.93 143.88 284.25 139.91 288.22 125.53 273.87 129.01 270.39 153.37 263.6"/>
      <path class="cls-2" d="m169.47,283.7l.06.06-4.43,9.67-5.3-5.28,9.66-4.45m-28.23,5.85l4.7,4.7,8.42-3.51,8.25,8.24-3.49,8.43,4.7,4.7,13.34-32.68-3.33-3.33-32.6,13.46Z"/>
      <path class="cls-2" d="m213.35,248.71c2.43,6.03.65,13.1-3.77,17.52-6.66,6.67-17.57,6.47-24.08-.02-6.35-6.34-6.63-17.13.03-23.8,3.83-3.83,10.64-6.68,17.89-3.86l-4.85,4.86c-3.55-.24-6.66.57-9.21,3.13-3.73,3.74-4.14,10.87.47,15.46,4.33,4.32,11.6,4.43,15.68.35,3.08-3.08,2.96-6.57,2.89-8.69l4.95-4.95"/>
      <path class="cls-2" d="m212.26,228.08l.06-.06,9.67,4.43-5.28,5.29-4.45-9.66m5.85,28.23l4.7-4.7-3.51-8.42,8.24-8.26,8.43,3.5,4.7-4.7-32.68-13.35-3.33,3.34,13.46,32.6Z"/>
      <polyline class="cls-2" points="219.88 208.92 224.14 204.65 243.21 223.68 250.23 216.63 254.21 220.6 242.92 231.92 219.88 208.92"/>
      <path class="cls-2" d="m269.34,192.61c2.43,6.03.65,13.09-3.77,17.52-6.66,6.67-17.57,6.47-24.08-.02-6.35-6.34-6.63-17.13.03-23.8,3.83-3.83,10.63-6.67,17.88-3.86l-4.85,4.86c-3.55-.24-6.66.57-9.21,3.13-3.73,3.74-4.14,10.87.47,15.46,4.33,4.32,11.61,4.43,15.68.35,3.08-3.09,2.96-6.57,2.89-8.69l4.95-4.95"/>
      <polyline class="cls-2" points="255.49 173.24 259.75 168.97 282.79 191.97 278.53 196.24 255.49 173.24"/>
      <path class="cls-2" d="m277.17,174.38c-4.42-4.41-4.58-11.47-.25-15.81,4.32-4.33,11.38-4.18,15.8.23,4.26,4.26,4.58,11.35.19,15.74-4.38,4.39-11.48,4.09-15.74-.16m-4.23,4.3c6.6,6.58,17.33,6.47,23.96-.17,6.62-6.64,6.71-17.37.12-23.96-6.81-6.8-17.54-6.5-24.08.05-6.53,6.55-6.81,17.28,0,24.08Z"/>
    </g>
  </g>
</svg>