<?xml version="1.0" encoding="UTF-8"?>
<svg id="Layer_2" data-name="Layer 2" xmlns="http://www.w3.org/2000/svg" viewBox="0 0 280.5 356.65">
  <defs>
    <style>
      .cls-1, .cls-2, .cls-3, .cls-4 {
        stroke-width: 0px;
      }

      .cls-2 {
        fill: #0761af;
      }

      .cls-3 {
        fill: #e30613;
      }

      .cls-4 {
        fill: #fff;
      }
    </style>
  </defs>
  <g id="Ebene_1" data-name="Ebene 1">
    <g id="g5052">
      <g id="g5030">
        <path id="path5016" class="cls-1" d="m140.25,350c-75.05,0-136.11-76.29-136.11-171.68S65.2,5.33,140.25,5.33s136.1,77.61,136.1,172.99-61.05,171.68-136.1,171.68"/>
        <path id="path5018" class="cls-4" d="m140.25,350c-75.05,0-136.11-76.29-136.11-171.68S65.2,5.33,140.25,5.33s136.1,77.61,136.1,172.99-61.05,171.68-136.1,171.68m0-350C62.91,0,0,79.99,0,178.33s62.91,178.33,140.25,178.33,140.26-80,140.26-178.33c0-98.33-62.91-178.33-140.26-178.33"/>
        <path id="path5020" class="cls-2" d="m114.09,166.49v-35.44c-18.31.89-35.32,2.75-52.31,5.75v169.41c-3.91-3.9-8.78-8.88-12.36-13.39-24.53-30.92-38.03-72.7-38.03-117.67,0-36.98,7.98-71.79,24.87-100.19-17.95,28.06-28.7,63.86-28.7,103.55,0,93.47,59.53,165.39,132.69,165.39s132.69-71.92,132.69-165.39c0-39.69-10.75-75.49-28.7-103.55,16.88,28.4,24.87,63.21,24.87,100.19,0,44.97-13.51,86.76-38.04,117.67-3.58,4.5-8.45,9.5-12.36,13.39v-169.41c-16.99-3-33.99-4.86-52.31-5.75l.38,31.4-.38,130.85v43.28c-8.62,2.25-17.13,3.41-26.15,3.41s-17.54-1.16-26.16-3.41v-170.09h0Z"/>
        <path id="path5022" class="cls-4" d="m237.83,125.79c-.06-.7-.81-1.38-1.86-1.6-1.28-.27-1.91-.4-3.19-.67.07.98.11,1.48.2,2.46,1.29.27,1.94.4,3.24.68,1.03.22,1.67-.15,1.61-.87m-5.18-3.7c1.19.24,1.78.37,2.97.62,1.08.23,1.64-.14,1.58-.82-.07-.74-.68-1.31-1.76-1.53-1.19-.25-1.78-.38-2.97-.62.07.94.11,1.41.18,2.35m5.63,1.68c0,.08.01.12.01.21,1.08.53,1.79,1.46,1.88,2.45.16,1.82-1.33,2.47-3.89,1.92-2.15-.46-3.22-.68-5.37-1.11-.31-3.86-.46-5.79-.76-9.65,2.08.42,3.11.63,5.19,1.07,2.55.54,4,1.81,4.14,3.47.07.89-.37,1.49-1.21,1.64m-20.47-.59c-1.81-.31-2.77-1.58-2.86-2.91-.14-2.21-.22-3.31-.36-5.52-.87-.14-1.31-.22-2.19-.35.14,2.21.21,3.31.35,5.52.15,2.49,2.15,4.61,5.18,5.12,3.07.52,4.74-.97,4.57-3.47-.16-2.21-.24-3.32-.4-5.53-.87-.16-1.31-.23-2.19-.39.16,2.21.23,3.32.39,5.53.09,1.35-.67,2.3-2.49,2m-17.91-10.6c-.87-.12-1.32-.18-2.2-.29.2,3.84.29,5.77.48,9.61,3.24.4,4.85.63,8.08,1.09-.04-.68-.06-1.02-.1-1.7-2.34-.34-3.51-.5-5.85-.8-.16-3.17-.24-4.75-.41-7.92m-13.22.1c1.44.14,2.6,1.08,2.6,1.08.48-.54.72-.81,1.2-1.35,0,0-1.25-1.32-3.92-1.59-3.57-.36-5.74,1.69-5.64,4.46s2.43,5.2,6.04,5.56c2.67.27,3.84-.78,3.84-.78-.53-.65-.8-.98-1.32-1.62,0,0-.88.73-2.55.56-2.11-.21-3.65-1.69-3.71-3.52-.07-1.82,1.36-3.02,3.46-2.8m-26.71-1.91c1.74.07,2.85.96,2.85.96.5-.56.76-.85,1.27-1.41,0,0-1.25-1.28-4.12-1.4-3.62-.15-5.8,2.03-5.77,4.79.03,2.76,2.27,5.05,5.91,5.21,3.45.14,5.21-1.73,5.14-4.58,0-.38,0-.56-.02-.94-2.2-.12-3.3-.17-5.5-.26,0,.63.01.95.03,1.58,1.26.05,1.89.08,3.16.14v.12c-.03,1.25-1.08,2.17-2.87,2.09-2.1-.08-3.54-1.48-3.56-3.3-.03-1.82,1.39-3.1,3.48-3.01m-23.55-2.03c-.01,3.83-.02,5.75-.03,9.58.89,0,1.34-.01,2.23-.02,0-2.34,0-3.5.01-5.84,2.94,2.32,4.42,3.5,7.4,5.87.22,0,.32,0,.53,0-.02-3.82-.03-5.74-.05-9.56-.87-.01-1.31-.02-2.19-.03,0,2.28,0,3.42.02,5.7-2.96-2.31-4.44-3.45-7.37-5.72-.22,0-.33,0-.55,0m-8.32.16c-.89.02-1.32.03-2.21.06-.05,3.83-.07,5.75-.12,9.58.89-.03,1.34-.04,2.23-.06.05-3.83.07-5.75.1-9.58m-13.21,10.13c.07-3.15.1-4.73.18-7.89,1.43-.08,2.14-.12,3.57-.19.01-.68.02-1.01.03-1.69-3.74.18-5.61.29-9.35.55-.02.68-.03,1.02-.05,1.7,1.43-.1,2.15-.15,3.58-.23-.08,3.16-.12,4.74-.2,7.89.89-.05,1.34-.08,2.23-.13m-19.68-3c1.09-.11,1.64-.16,2.73-.27,1.39-.13,2.25-.75,2.29-1.87.04-1.1-.8-1.61-2.23-1.47-1.06.1-1.59.15-2.66.25-.05,1.34-.08,2.01-.13,3.35m-2-4.82c1.97-.2,2.96-.31,4.93-.49,2.78-.26,4.45.8,4.38,2.89-.05,1.43-.89,2.47-2.17,3.11,0,.06,0,.08,0,.14,1.01,1.12,1.51,1.69,2.53,2.81,0,.08-.01.12-.01.2-1.01.08-1.51.12-2.52.22-.93-1.08-1.4-1.62-2.34-2.71-1.14.11-1.72.16-2.86.28-.05,1.17-.07,1.76-.12,2.93-.89.08-1.33.13-2.23.23.16-3.84.24-5.76.41-9.61m-13.46,3.26c-2.04.27-3.57,1.81-3.67,3.64-.1,1.83,1.29,2.95,3.34,2.67,2.07-.27,3.62-1.79,3.71-3.62.09-1.83-1.32-2.98-3.37-2.69m5.63,2.41c-.13,2.77-2.46,5.28-6.08,5.76-3.59.49-5.67-1.42-5.51-4.2.16-2.77,2.49-5.35,6.05-5.83,3.58-.48,5.66,1.5,5.53,4.27m-22.58.25c-1.06.18-1.59.27-2.64.46-.1,1.36-.14,2.04-.24,3.39,1.07-.2,1.61-.29,2.68-.47,1.42-.25,2.3-.92,2.38-2.09.07-1.11-.76-1.54-2.17-1.29m4.43.84c-.14,2.24-2.12,3.74-4.83,4.21-1.04.18-1.56.27-2.6.46-.08,1.15-.12,1.74-.21,2.89-.88.16-1.32.24-2.2.4.27-3.86.42-5.79.7-9.65,1.96-.37,2.94-.53,4.91-.88,2.73-.47,4.35.46,4.22,2.57m-21.6,8.74c-1.77.38-3.13-.24-3.13-.24-.53.7-.79,1.05-1.32,1.75,0,0,1.36.91,4.35.27,2.98-.63,4.41-2.24,4.55-3.94.12-1.56-1.04-2.15-3.63-2.23-1.66-.05-2.2-.2-2.15-.78.05-.59.65-1.09,1.84-1.34,1.77-.37,2.86.2,2.86.2.52-.73.78-1.1,1.3-1.83,0,0-1.11-.76-4.01-.15-2.77.59-4.31,2.06-4.45,3.79-.14,1.55,1.08,2.03,3.49,2.11,1.84.07,2.28.3,2.23.93-.05.61-.61,1.18-1.93,1.46m107.43-33.19c-5.91-.17-11.79-2.02-16.78-5.12-2.66,3.24-4,4.88-6.72,8.18,6.53,4.97,15.6,6.48,23.62,6.72,9.67.29,22.99-3.05,22.75-15.44-.21-10.82-11.88-14.66-20.09-17.2-4.1-1.27-10.93-2.39-11.36-6.76-.26-2.68,3.07-5.06,9.05-4.92,5.23.13,10.47,1.78,14.74,4.79,2.34-3.18,3.5-4.76,5.8-7.9-5.81-4.6-13.35-5.7-20.37-6.1-9.11-.52-21.07,3.77-21.71,14.89-.57,9.89,11.12,13.46,18.67,15.36,4.04,1.02,12,2.73,12.2,7.99.12,3.17-2.83,5.71-9.79,5.5m-32.84-42.11c-4.35.25-6.52.4-10.87.76-1.32,16.76-2.69,33.9-4.08,51.47,4.72-.4,7.08-.57,11.8-.86,1.07-17.52,2.12-34.64,3.15-51.37m-60.45,34.26c5.54-1.1,8.31-1.6,13.85-2.51,5.91-.82,11.98-4.43,12.8-10.88.8-6.23-5.4-8.35-10.49-7.19-5.34.87-8.02,1.35-13.36,2.4-.93,6.01-1.86,12.07-2.8,18.18m-3.86,25.11c-4.75.96-7.13,1.47-11.88,2.55,3.07-17.93,6.07-35.44,8.99-52.54,8.16-1.81,16.34-3.37,24.53-4.69,10.19-1.79,21.65,2.11,20.39,14.34-1.34,13.07-14.3,19.89-25.9,21.77-5.46.91-8.2,1.41-13.67,2.5-.82,5.32-1.64,10.68-2.47,16.07m143.06-19.76l20.24,2.71-10.47-21.9-9.77,19.19Zm-7.15,14.03c-5.33-.53-13.35-1.12-13.35-1.12l27.74-48.83,4.06.3,30.01,57.16-13.07-2.58-3.88-7.77-28.04-3.85s-2.08,4.01-3.47,6.7m64.04,41.42c-34.83-12.29-74.07-19.81-115.62-19.81s-80.8,7.53-115.63,19.82c34.83-10.52,74.09-15.43,115.63-15.43s80.79,4.91,115.62,15.42m-95.74,175.86c0-.29-.06-.56-.16-.82-.11-.25-.25-.48-.45-.66-.19-.2-.41-.34-.66-.45-.25-.11-.53-.16-.82-.16s-.57.05-.82.16c-.25.11-.48.25-.67.45-.2.18-.34.4-.45.66-.1.25-.16.52-.16.82s.06.57.16.82c.11.25.25.48.45.67.19.19.41.34.67.45.25.1.52.16.82.16s.56-.06.82-.16c.25-.11.47-.26.66-.45.2-.19.34-.41.45-.67.1-.25.16-.52.16-.82m-4.33,7.72l2.75-4.24-.03-.03c-.12.06-.28.12-.48.14-.2.03-.4.05-.59.05-.51,0-.97-.1-1.4-.29-.42-.19-.78-.46-1.09-.79-.31-.33-.55-.72-.72-1.17-.16-.44-.25-.91-.25-1.4,0-.59.1-1.14.31-1.62.21-.48.49-.9.85-1.24.37-.33.8-.6,1.3-.78.5-.18,1.04-.27,1.62-.27s1.14.08,1.64.27c.5.18.93.43,1.29.76.36.34.64.75.84,1.23.21.48.31,1.03.31,1.63s-.1,1.15-.31,1.64c-.2.49-.46.99-.76,1.49l-2.93,4.61h-2.36Zm-11.92-5.73c0,.36.03.77.08,1.24.05.47.14.91.29,1.33.16.42.38.78.67,1.07.29.29.68.44,1.17.44s.87-.14,1.16-.44c.29-.29.51-.65.67-1.07.15-.42.25-.86.29-1.33.05-.47.08-.88.08-1.24s-.03-.77-.08-1.24c-.05-.46-.14-.91-.29-1.33-.16-.42-.38-.78-.67-1.07-.29-.29-.68-.44-1.16-.44s-.87.15-1.17.44c-.29.29-.51.65-.67,1.07-.15.42-.25.87-.29,1.33-.05.47-.08.89-.08,1.24m-1.94,0c0-.91.07-1.68.22-2.32.14-.64.33-1.18.57-1.62.23-.43.5-.78.8-1.05.3-.26.59-.46.91-.59.31-.14.6-.22.89-.27.29-.04.53-.06.76-.06.21,0,.46.03.75.06.28.05.58.13.89.27.31.13.61.33.9.59.31.27.57.62.81,1.05.23.44.43.98.57,1.62.15.65.22,1.42.22,2.32s-.07,1.68-.22,2.32c-.14.64-.33,1.18-.57,1.61-.24.44-.5.79-.81,1.06-.29.26-.59.46-.9.6-.31.14-.61.22-.89.26-.29.05-.54.07-.75.07-.22,0-.47-.03-.76-.07-.29-.04-.58-.12-.89-.26-.31-.14-.61-.34-.91-.6-.3-.27-.56-.62-.8-1.06-.24-.43-.43-.97-.57-1.61-.15-.64-.22-1.42-.22-2.32m-5.82-1.99c0-.29-.05-.56-.16-.82-.11-.25-.25-.48-.44-.66-.19-.2-.41-.34-.66-.45-.26-.11-.53-.16-.82-.16s-.57.05-.82.16c-.25.11-.48.25-.67.45-.2.18-.34.4-.44.66-.1.25-.17.52-.17.82s.07.57.17.82c.1.25.25.48.44.67.19.19.41.34.67.45.25.1.52.16.82.16s.56-.06.82-.16c.25-.11.47-.26.66-.45s.33-.41.44-.67c.11-.25.16-.52.16-.82m-4.32,7.72l2.75-4.24-.03-.03c-.12.06-.27.12-.48.14-.2.03-.4.05-.59.05-.51,0-.97-.1-1.39-.29-.42-.19-.79-.46-1.09-.79-.31-.33-.55-.72-.72-1.17-.17-.44-.25-.91-.25-1.4,0-.59.1-1.14.31-1.62s.48-.9.85-1.24c.36-.33.79-.6,1.3-.78.5-.18,1.04-.27,1.62-.27s1.14.08,1.64.27c.5.18.93.43,1.29.76.37.34.65.75.84,1.23.2.48.3,1.03.3,1.63s-.1,1.15-.3,1.64c-.2.49-.46.99-.77,1.49l-2.92,4.61h-2.36Zm-10.17-9.22l-2.15,1.98-1.14-1.34,3.47-2.88h1.76v11.45h-1.94v-9.22h0Z"/>
        <path id="path5024" class="cls-3" d="m173.42,226.76c0,27.74-22.5,50.24-50.23,50.24s-50.23-22.5-50.23-50.24,22.49-50.23,50.23-50.23c27.74,0,50.23,22.5,50.23,50.23"/>
        <path id="path5026" class="cls-1" d="m123.19,172.51c-29.92,0-54.25,24.34-54.25,54.25s24.34,54.25,54.25,54.25,54.25-24.34,54.25-54.25-24.34-54.25-54.25-54.25m0,4.01c27.74,0,50.23,22.5,50.23,50.23s-22.5,50.24-50.23,50.24-50.23-22.5-50.23-50.24c0-27.74,22.49-50.23,50.23-50.23"/>
        <path id="path5028" class="cls-4" d="m154.43,219.77c-16.59,5.02-29.02,5.72-29.02,5.72,0,0,.7-12.42,5.72-29.01-5.22-2.05-7.96-4.89-7.96-4.89,0,0-2.71,2.84-7.96,4.89,5.02,16.59,5.72,29.01,5.72,29.01,0,0-12.42-.7-29-5.72-2.04,5.25-4.88,7.95-4.88,7.95,0,0,2.85,2.73,4.88,7.97,16.58-5.03,29-5.73,29-5.73,0,0-.7,12.43-5.72,29.02,5.25,2.06,7.96,4.89,7.96,4.89,0,0,2.73-2.84,7.96-4.89-5.03-16.59-5.72-29.02-5.72-29.02,0,0,12.43.7,29.02,5.73,2.04-5.24,4.87-7.97,4.87-7.97,0,0-2.84-2.7-4.87-7.95m-.18-1.78c2.17,0,3.93-1.77,3.93-3.94s-1.76-3.94-3.93-3.94-3.94,1.76-3.94,3.94,1.77,3.94,3.94,3.94m0,19.48c-2.17,0-3.94,1.77-3.94,3.95s1.77,3.91,3.94,3.91,3.93-1.74,3.93-3.91c0-2.18-1.76-3.95-3.93-3.95m10.7-13.67c-2.17,0-3.93,1.76-3.93,3.92s1.76,3.94,3.93,3.94,3.93-1.76,3.93-3.94c0-2.16-1.77-3.92-3.93-3.92m-72.81,13.67c-2.18,0-3.93,1.77-3.93,3.95s1.75,3.91,3.93,3.91,3.94-1.74,3.94-3.91-1.77-3.95-3.94-3.95m0-19.48c2.17,0,3.94-1.77,3.94-3.94s-1.77-3.94-3.94-3.94-3.93,1.76-3.93,3.94c0,2.17,1.75,3.94,3.93,3.94m-10.72,5.81c-2.15,0-3.94,1.76-3.94,3.92s1.78,3.94,3.94,3.94,3.96-1.76,3.96-3.94-1.76-3.92-3.96-3.92m55.44,31.05c-2.16,0-3.93,1.78-3.93,3.95s1.77,3.92,3.93,3.92,3.95-1.76,3.95-3.92c0-2.17-1.77-3.95-3.95-3.95m-27.35,0c-2.16,0-3.92,1.78-3.92,3.95s1.76,3.92,3.92,3.92,3.94-1.76,3.94-3.92-1.76-3.95-3.94-3.95m13.68,10.72c-2.17,0-3.94,1.76-3.94,3.93s1.77,3.94,3.94,3.94,3.94-1.77,3.94-3.94-1.77-3.93-3.94-3.93m-13.68-64.97c2.19,0,3.94-1.76,3.94-3.93s-1.76-3.93-3.94-3.93-3.92,1.76-3.92,3.93,1.76,3.93,3.92,3.93m27.35,0c2.18,0,3.95-1.76,3.95-3.93s-1.78-3.93-3.95-3.93-3.93,1.76-3.93,3.93,1.77,3.93,3.93,3.93m-17.61-14.63c0-2.17,1.77-3.94,3.94-3.94s3.94,1.77,3.94,3.94-1.77,3.95-3.94,3.95-3.94-1.78-3.94-3.95"/>
      </g>
      <polygon id="polygon5032" class="cls-4" points="148.68 191.99 144.82 191.99 148.04 195.21 144.82 211.31 202.8 211.31 206.67 191.99 148.68 191.99"/>
      <path id="path5034" class="cls-1" d="m211.57,187.98h-76.44l6.86,6.85,1.7,1.7-2.79,13.99-.96,4.81h66.16l.65-3.23,3.86-19.32.97-4.8Zm-4.9,4.01l-3.86,19.32h-57.98l3.22-16.1-3.22-3.22h61.84Z"/>
      <polygon id="polygon5036" class="cls-4" points="134.79 261.55 130.93 261.54 134.15 264.76 130.93 280.86 188.89 280.86 192.76 261.54 134.79 261.55"/>
      <path id="path5038" class="cls-1" d="m121.19,257.5l6.89,6.88,1.7,1.7-2.8,13.99-.96,4.8h66.15l.65-3.23,3.86-19.32.97-4.81h-4.9s-57.97.01-57.97.01h-3.85s-9.74-.03-9.74-.03Zm71.56,4.04l-3.86,19.32h-57.96l3.22-16.1-3.22-3.22h3.86s57.97,0,57.97,0Z"/>
      <polygon id="polygon5040" class="cls-4" points="192.76 188.13 196.62 168.81 168.77 168.81 165.7 168.81 164.9 168.81 168.12 172.03 164.9 188.13 192.76 188.13"/>
      <path id="path5042" class="cls-1" d="m201.52,164.8h-46.32l6.86,6.85,1.7,1.7-2.79,14-.62,2.88h36.05l.31-1.31,3.86-19.32.97-4.8Zm-4.9,4.01l-3.86,19.32h-27.86l3.22-16.1-3.22-3.22h31.73Z"/>
      <polygon id="polygon5044" class="cls-4" points="139.42 238.36 135.56 238.36 138.78 241.58 135.56 257.68 193.53 257.68 197.4 238.36 139.43 238.36 139.42 238.36"/>
      <path id="path5046" class="cls-1" d="m202.29,234.34h-76.43l6.86,6.85,1.7,1.7-2.8,14-.96,4.8h66.16l.65-3.23,3.86-19.32.97-4.8Zm-4.9,4.01l-3.86,19.32h-57.97l3.22-16.1-3.22-3.22h61.83Z"/>
      <polygon id="polygon5048" class="cls-4" points="144.05 215.17 140.19 215.17 143.41 218.39 140.19 234.49 198.17 234.49 202.03 215.17 144.05 215.17"/>
      <path id="path5050" class="cls-1" d="m206.93,211.16h-76.44l6.86,6.85,1.7,1.7-2.79,13.99-.97,4.8h66.17l.65-3.23,3.86-19.32.96-4.8Zm-4.9,4.01l-3.86,19.32h-57.97l3.22-16.1-3.22-3.22h61.84Z"/>
    </g>
  </g>
</svg>