<?xml version="1.0" encoding="UTF-8"?>
<svg id="Livello_2" data-name="Livello 2" xmlns="http://www.w3.org/2000/svg" viewBox="0 0 707.5 707.5">
  <defs>
    <style>
      .cls-1 {
        fill: #00463b;
      }

      .cls-1, .cls-2, .cls-3 {
        stroke-width: 0px;
      }

      .cls-3 {
        fill: #fff;
      }
    </style>
  </defs>
  <g id="svg2403">
    <g id="g2412">
      <g id="g2414">
        <g id="g2416">
          <g id="g2422">
            <path id="path2424" class="cls-2" d="m353.82,0c195.31,0,353.68,158.49,353.68,353.75s-158.37,353.75-353.68,353.75S0,549.12,0,353.75,158.4,0,353.82,0"/>
          </g>
          <g id="g2426">
            <path id="path2428" class="cls-1" d="m353.77,7.3C162.34,7.3,7.3,162.46,7.3,353.74s155.04,346.45,346.47,346.46c191.27-.01,346.42-155.21,346.44-346.46-.01-191.28-155.17-346.44-346.44-346.44"/>
          </g>
          <g id="g2430">
            <path id="path2432" class="cls-2" d="m353.78,107.2c136.1,0,246.52,110.46,246.52,246.55s-110.42,246.55-246.52,246.55-246.57-110.36-246.57-246.55,110.35-246.55,246.57-246.55"/>
          </g>
          <g id="g2434">
            <path id="path2436" class="cls-3" d="m353.76,115.25c131.65,0,238.49,106.85,238.49,238.51s-106.85,238.5-238.49,238.5-238.51-106.73-238.51-238.5,106.72-238.51,238.51-238.51"/>
          </g>
          <g id="g2438">
            <path id="path2440" class="cls-2" d="m62.87,280.38c0,.54-.08,1.16-.25,1.87l-.11.44-16.47-4.09.11-.44c1.12-3.44,1.9-4.02,5.34-4.28,1.07,0,2.39.17,3.94.55,6.15,1.72,7.38,3.51,7.44,5.95m29.67,30.64l4.88-19.67-23.2-5.75.61-2.43c1.01-4.12,1.55-7.87,1.55-11.32.26-10.11-5.46-17.86-15.06-19.97-2.06-.52-4.07-.79-6.01-.79-10.1-.1-17.03,7.76-19.82,19.86l-6.86,27.67,63.1,15.65.8-3.25Z"/>
          </g>
          <g id="g2442">
            <path id="path2444" class="cls-2" d="m125.45,219.03l-11.4-5.26-10.06,21.77-47.63-22-1.41,3.04-8.49,18.39,59.03,27.26,19.95-43.2Z"/>
          </g>
          <g id="g2446">
            <path id="path2448" class="cls-2" d="m130.74,212.64l13.52-19.4-19.93-13.87-24.41-36.22-2.8,4.01-5.18,7.43,13.55,19.84-23.86-5.03-14.21,20.38,43.45,9.01,19.86,13.84Z"/>
          </g>
          <g id="g2450">
            <path id="path2452" class="cls-2" d="m160.17,173.98l-13.53-14.5,17.76,10.54,10.61-9.88-9.33-18.02,13.33,14.29,16.82-15.71-44.34-47.53-2.45,2.28-14.54,13.56,12.49,24.27-23.37-14.12-16.85,15.73,44.36,47.53,9.05-8.44Z"/>
          </g>
          <g id="g2454">
            <path id="path2456" class="cls-2" d="m194.66,74.4l1.66,2.9c.65-.37,1.12-.46,1.53-.47.63,0,1.48.25,2.77,1.43,2.14,1.93,6.02,7.41,10.84,15.93,4.88,8.52,7.62,14.65,8.18,17.46.13.57.17,1.09.17,1.5-.1,1.51-.29,1.83-1.56,2.67-.66.38-1.13.48-1.54.49-.63,0-1.47-.25-2.75-1.42-2.14-1.91-6.01-7.41-10.84-15.94-4.88-8.52-7.64-14.65-8.18-17.46-.13-.6-.18-1.1-.18-1.52.1-1.49.29-1.82,1.56-2.67l-1.65-2.9Zm13.74,55.89c5.06-.02,10.25-1.63,15.47-4.59,9.7-5.42,15.31-13.51,15.24-23.19-.01-6.36-2.24-13.13-6.39-20.43-6.93-12.26-15.79-19.4-26.35-19.4-5,0-10.11,1.6-15.26,4.54-9.99,5.58-15.77,13.77-15.7,23.56,0,6.17,2.15,12.71,6.11,19.68,7.08,12.55,16.12,19.82,26.88,19.82"/>
          </g>
          <g id="g2458">
            <path id="path2460" class="cls-2" d="m263.97,105.13c.14,0,.28,0,.42,0,3.39,0,7.02-.64,10.91-1.87,11.68-3.48,19.01-10.98,18.89-21.2,0-2.84-.51-5.82-1.49-8.93l-12.74-40.5-3.19,1-8.58,2.69,12.74,40.52c.68,2.17.99,4.02.99,5.52-.21,3.85-1.29,5.38-5.64,6.98-1.53.48-2.81.68-3.72.68-1.06-.01-1.62-.23-2.01-.49-.81-.45-2.58-3.02-3.97-7.64l-12.89-40.98-22.54,7.08,12.74,40.51c2.99,10.25,10.36,16.65,20.1,16.65"/>
          </g>
          <g id="g2462">
            <path id="path2464" class="cls-2" d="m306.41,41.11l5.84,52.16,24.48-2.75-5.85-52.15,14.19-1.59-1.38-12.47-3.33.37-49.67,5.55,1.39,12.48,14.34-1.61Z"/>
          </g>
          <g id="g2466">
            <path id="path2468" class="cls-2" d="m376.34,62.14l7.15.64-2.59,28.88,23.48,2.11,5.81-64.72-23.49-2.1-2.09,23.31-7.15-.64,2.1-23.33-23.49-2.1-5.81,64.72,23.49,2.11,2.59-28.88Z"/>
          </g>
          <g id="g2470">
            <path id="path2472" class="cls-2" d="m465.74,76.68l-1.41,10.16-5.07-2.13,6.47-8.03Zm66.6,23.65c-2.01,2.85-3.52,3.54-4.93,3.55-.97,0-2.31-.38-4.04-1.57l-.06-.03,7.56-11.07.06.04c2.55,1.82,3.15,3.14,3.18,4.56.01,1.05-.45,2.57-1.78,4.52m-69.77-.57l-1.72,13.02,20.69,8.71-.06.09,2.77,1.89,16.74,11.45,15.78-23.07c1.47,1.15,1.75,1.92,1.81,3.02.01,1.03-.5,2.74-2.03,4.95l-2.41,3.69-1.9,2.92c-2.4,3.52-4.05,7.03-4.72,10.51l-.43,2.16,23.26,15.9-1.05-7.47c-.07-1.45,1.2-5.33,4.19-10.48,2.81-5.04,4.45-8.72,4.56-12.23v-.77s-.05-.12-.05-.12c-.1-1.13-.35-2.25-.76-3.37.35.02.69.03,1.04.03,5.44.07,10.36-2.62,13.43-7.26,1.91-2.79,2.96-5.95,2.96-9.22,0-2.1-.41-4.2-1.19-6.27-1.99-5.31-6.08-9.9-11.84-13.83l-23.5-16.05-34.79,50.9,8.11-63.68-2.34-.98-16.03-6.74-42.93,52.46,12.54,5.28,8.34-10.24,11.51,4.85Z"/>
          </g>
          <g id="g2474">
            <path id="path2476" class="cls-2" d="m584.12,151.56l-3.08,2.99-9.47-10.02-2.43,2.31-6.67,6.3,5.75,6.09-8.01,7.56c-1.39,1.31-2.32,1.56-2.7,1.54-.37-.01-.91-.12-1.93-1.17-1.05-1.15-1.3-1.91-1.32-2.78,0-.56.14-1.24.57-2.13,1.11-2.38,5.11-7.18,11.73-13.39,7.04-6.7,12.48-10.6,15.25-11.56.83-.3,1.51-.41,2.15-.42,1.38.03,2.61.5,4.23,2.18,1.42,1.53,1.84,2.7,1.85,3.83,0,1.33-.69,3.2-2.85,5.59l-2.12,2.14-.96.93Zm-46.47,1.19c-.05.61-.07,1.24-.07,1.83-.01,7.41,3.23,14.41,9.12,20.62,3.2,3.41,7.18,5.88,11.74,7.37l-1.03,2.55,7.47,7.93,27.76-26.21-10.34-10.95,13.48,5.47,1.53-2.21c3.23-4.68,5.04-9.48,5.04-14.31.01-5.6-2.47-10.88-6.85-15.49-5.9-6.3-13.28-9.68-21.44-9.65-.28,0-.57,0-.86.01-8.49.22-16.47,3.94-23.52,10.63-7.24,6.81-11.47,14.34-12.03,22.4"/>
          </g>
          <g id="g2478">
            <path id="path2480" class="cls-2" d="m571.52,204.2l12.59,19.95,20.51-12.95,42.86-8.43-2.62-4.14-4.83-7.66-23.53,4.77,13.92-20-13.28-20.99-25.17,36.54-20.44,12.91Z"/>
          </g>
          <g id="g2482">
            <path id="path2484" class="cls-2" d="m680.06,304.91l-8.59-40.26-55.54,11.86,4.48-1.84-9.09-22.15,48.51-19.91-1.27-3.1-7.7-18.76-60.14,24.69,17.53,42.72-.35.07,10.03,46.99,12.32-2.63-5.11-23.86,16.01-3.42,3.65,17.12,12.31-2.64-3.65-17.11,10.63-2.27,4.35,20.41,12.3-2.63-.69-3.27Z"/>
          </g>
          <g id="g2486">
            <path id="path2488" class="cls-2" d="m131.85,540.19l-9.28-12.3,7.99-6.02,10.94,14.5,9.35-7.05-2.02-2.67-21.68-28.75-45.28,34.14,12.76,16.92,18.61-14.03,9.28,12.31,9.33-7.05Z"/>
          </g>
          <g id="g2490">
            <path id="path2492" class="cls-2" d="m143.5,561.55c5.81-6.05,10.2-9.77,12.29-10.85.88-.49,1.49-.61,1.87-.61.46.03.71.08,1.35.66l2.34-2.41-2.32,2.42c.6.62.65.86.69,1.38,0,.38-.11.99-.53,1.85-1.02,2.12-4.59,6.64-10.43,12.64-5.8,6.05-10.2,9.78-12.29,10.86-.88.47-1.51.59-1.88.59-.46-.03-.72-.09-1.36-.66-.63-.65-.67-.89-.71-1.39,0-.38.11-.97.54-1.82,1-2.13,4.59-6.65,10.44-12.67m21.02,20.32c6.71-6.96,10.52-14,10.54-21.23.01-6.3-3.03-12.19-8.34-17.29-5.41-5.26-11.39-8.25-17.7-8.25-7.31.03-14.26,3.93-20.87,10.79-6.89,7.1-10.76,14.29-10.79,21.65-.01,6.4,3.07,12.38,8.46,17.56,5.22,5.06,11.06,7.95,17.24,7.95,7.44-.03,14.58-4.07,21.46-11.19"/>
          </g>
          <g id="g2494">
            <path id="path2496" class="cls-2" d="m264.82,652.62l3.63-12.74.51.14c2.87,1.06,3.25,1.61,3.49,4.44,0,1.03-.19,2.38-.64,3.97-1.39,4.13-2.38,4.59-4.23,4.72-.53,0-1.19-.09-1.99-.31l-.76-.22Zm10.03-23.46c-.64.65-.86.69-1.43.73-.24,0-.54-.03-.93-.13l-1.06-.3,2.98-10.48.73.2c1.98.81,1.94.8,2.18,2.8,0,.76-.14,1.76-.49,2.99-.61,2.14-1.38,3.53-1.98,4.2m-76.29-50.56l-1.87,2.78c.82.64.86.77.93,1.65,0,.36-.06.86-.24,1.47-.64,2.27-3.38,7.32-8.08,14.24-4.67,6.94-8.34,11.39-10.2,12.8-1.01.78-1.66.93-2.01.93-.3-.01-.61-.07-1.15-.42-.85-.68-.88-.79-.95-1.67,0-.36.06-.83.25-1.45.63-2.26,3.37-7.32,8.08-14.25,4.67-6.95,8.35-11.38,10.21-12.8,1.02-.8,1.63-.95,2.01-.95.28,0,.59.07,1.15.43l1.88-2.77Zm94.59,70.85c.04-3.8-1.41-7.2-3.94-10.01,3.85-1.63,6.77-4.78,7.85-9.06.44-1.59.69-3.15.69-4.7,0-8-6.57-13.35-16.16-15.94l-23.1-6.57-1.04-.48-39.32-18.3-3.65,7.83c0-.1.02-.19.02-.29.05-7.67-4.22-14.33-11.5-19.17-5.09-3.45-10.24-5.35-15.36-5.35-8.57-.01-16.04,5.35-22.18,14.5-4.62,6.82-7.16,13.29-7.17,19.51-.05,7.77,4.26,14.55,11.66,19.47,4.9,3.32,9.9,5.15,14.9,5.15,8.7,0,16.28-5.55,22.64-15,3.64-5.41,5.93-10.57,6.7-15.56l10.21,4.75-18.98,40.79,20.03,9.31,18.97-40.8,9.39,4.37-12.35,43.35,3.23.93,23.77,6.78c3.08.86,5.93,1.33,8.6,1.33.18.01.36.01.53.01,7.23,0,13.03-4.68,14.82-11.85.48-1.67.73-3.34.73-5"/>
          </g>
          <g id="g2498">
            <path id="path2500" class="cls-2" d="m310.62,650.47l2.52-5.99.91,6.41-3.43-.41Zm16.7-32.42l-15.15-1.77-23.29,54.34,12.59,1.49,4.44-10.4,9.91,1.16,1.68,11.12,21.4,2.53-9.05-58.17-2.53-.3Z"/>
          </g>
          <g id="g2502">
            <path id="path2504" class="cls-2" d="m364,663.91l-1.19-44.93-3.34.09-17.86.47,1.51,56.66,41.7-1.11-.32-11.72-20.5.54Z"/>
          </g>
          <g id="g2506">
            <path id="path2508" class="cls-2" d="m408.17,659.18l-7.51-44.36-3.3.57-17.58,2.99,9.46,55.9,41.18-6.97-1.95-11.55-20.29,3.43Z"/>
          </g>
          <g id="g2510">
            <path id="path2512" class="cls-2" d="m496.9,618.36l-1.11-2.15-13.7,2.22,2.7,4.28c1.09,1.76,1.84,3.09,2.16,3.83.7,1.61,1,3.06,1.01,4.39-.01.8-.11,1.58-.34,2.36-.65,2.06-1.54,3.06-3.32,3.91-.82.35-1.53.49-2.16.5-2.51.24-6.89-3.23-11.12-13.03-3.24-7.28-4.72-12.89-4.69-16.3.14-3.19.76-3.83,2.09-4.51,1.06-.49,1.92-.65,2.61-.65,1.69.01,3.44.98,5.52,5.48.28.66.69,1.69,1.22,3.03l1.99,5.09,9.61-10.83-.86-1.96c-3.04-7.22-8.7-11.9-15.73-11.8-3.16,0-6.42.84-9.83,2.34-7.07,3.07-12.11,8.51-14.32,15.61-.86,2.7-1.29,5.51-1.29,8.39,0,4.62,1.12,9.37,3.24,14.19,4.94,11.49,12.76,18.44,22.76,18.44h.1c3.84,0,7.85-.99,11.97-2.8,5.9-2.58,10.36-6.32,12.82-11.25,1.24-2.51,1.92-5.18,1.92-7.9,0-2.6-.59-5.2-1.71-7.73-.41-.93-.93-1.99-1.55-3.16"/>
          </g>
          <g id="g2514">
            <path id="path2516" class="cls-2" d="m523.32,613.46l-24.16-37.9-2.83,1.8-15.05,9.6,30.47,47.81,35.2-22.45-6.32-9.89-17.31,11.04Z"/>
          </g>
          <g id="g2518">
            <path id="path2520" class="cls-2" d="m577.88,532.82c-.02.36-.09.74-.65,1.45l-.71.87-8.43-6.89.48-.59c.96-1.12,1.42-1.22,2.03-1.27h.04c.67,0,2.05.46,3.92,2,2.72,2.19,3.38,3.87,3.32,4.43m7.4,8.77c1.37-1.61,2.24-1.95,3.34-1.99h.05c1.13,0,3.02.68,5.44,2.66,2.38,1.97,2.96,3.42,2.95,4.39,0,.74-.29,1.72-1.4,3.08l-.5.61-10.22-8.34.34-.41Zm22.52-15.84c-2.99-2.46-6.43-3.88-10.04-3.87-1.69,0-3.36.31-5.01.86v-.25c.05-4.1-1.92-7.93-5.21-10.55-2.77-2.27-5.97-3.63-9.31-3.62-5.82.05-10.93,3.72-15.8,9.64l-16.12,19.76h0s-2.51,2.2-2.51,2.2l-6.18,5.42,24.32,27.73c2.38,2.72,3.2,4.88,3.19,6.32-.03,1.36-.54,2.65-2.46,4.37-1.85,1.64-3.19,2.06-3.72,2.03-.12,0-.21-.01-.28-.03-.57-.01-2.82-1.34-5.47-4.45l-24.61-28.05-15.95,13.99,24.32,27.73c4.2,4.83,9.26,7.74,14.8,7.74h.05c5.35,0,10.53-2.58,15.55-6.98,5.71-5.02,9.13-10.59,9.13-16.69,0-4.8-2.16-9.4-5.86-13.62l-23.98-27.32,43.5,35.52,2.12-2.59,15.64-19.16c3.85-4.76,6.13-9.41,6.15-14.17.05-4.64-2.37-8.85-6.27-11.97"/>
          </g>
          <g id="g2522">
            <path id="path2524" class="cls-3" d="m89.29,310.21l-56.59-14.04,6.05-24.41c3.43-13.84,10.69-19.38,21.76-16.63,11.19,2.77,14.87,11.85,11.05,27.24l-1.41,5.68,23.2,5.76-4.08,16.41Zm-24.33-23.46l.91-3.69c1.48-5.96-1.74-9.92-9.64-11.89-7.42-1.83-11.86.23-13.34,6.19l-.9,3.69,22.97,5.7Z"/>
          </g>
          <g id="g2526">
            <path id="path2528" class="cls-3" d="m58.01,217.98l47.62,22,10.05-21.78,5.32,2.46-17.15,37.12-52.94-24.45,7.09-15.35Z"/>
          </g>
          <g id="g2530">
            <path id="path2532" class="cls-3" d="m99.88,149.08l22.03,32.68,17.68,12.31-9.68,13.89-17.68-12.32-39.15-8.11,10.04-14.4,29.85,6.3-16.94-24.83,3.85-5.53Z"/>
          </g>
          <g id="g2534">
            <path id="path2536" class="cls-3" d="m151.32,97.91l39.77,42.63-11.93,11.14-27.68-29.67,19.38,37.42-6.91,6.44-35.74-21.21,27.22,29.17-4.15,3.87-39.78-42.63,12.55-11.71,31.32,18.91-16.74-32.51,12.69-11.84Z"/>
          </g>
          <g id="g2538">
            <path id="path2540" class="cls-3" d="m192.77,70.13c14.74-8.4,27.09-3.85,37.04,13.62,9.95,17.47,7.42,30.48-7.6,39.03-15.01,8.56-27.62,3.9-37.79-13.97-9.72-17.08-6.94-29.97,8.35-38.68m1.89,4.27c-2.77,1.58-3.78,4.17-3,7.79.76,3.6,3.61,9.75,8.55,18.42,4.93,8.67,8.76,14.25,11.48,16.75,2.72,2.5,5.47,2.97,8.23,1.38,2.77-1.57,3.77-4.17,3.01-7.78-.77-3.62-3.62-9.76-8.55-18.43-4.92-8.65-8.75-14.22-11.48-16.74-2.73-2.51-5.47-2.98-8.24-1.4"/>
          </g>
          <g id="g2542">
            <path id="path2544" class="cls-3" d="m277.78,36.83l11.73,37.31c4.03,12.82-1.04,21.47-15.2,25.93-14.12,4.44-23.2.24-27.23-12.58l-11.73-37.31,16.14-5.08,11.89,37.8c1.54,4.9,3.3,8.04,5.27,9.39,1.97,1.36,4.85,1.44,8.64.24,7.34-2.3,9.62-7.87,6.84-16.69l-11.73-37.31,5.38-1.69Z"/>
          </g>
          <g id="g2546">
            <path id="path2548" class="cls-3" d="m340.72,28.02l.65,5.81-14.19,1.59,5.84,52.15-17.82,2-5.84-52.15-14.34,1.61-.64-5.82,46.34-5.18Z"/>
          </g>
          <g id="g2550">
            <path id="path2552" class="cls-3" d="m373.31,58.5l-2.59,28.89-16.81-1.52,5.2-58.05,16.82,1.51-2.09,23.33,13.82,1.24,2.09-23.32,16.81,1.51-5.2,58.05-16.82-1.51,2.59-28.88-13.82-1.25Z"/>
          </g>
          <g id="g2554">
            <path id="path2556" class="cls-3" d="m487.84,57.24l-7.65,60.05-15.68-6.6,1.72-13.03-16.18-6.81-8.35,10.24-6.09-2.57,38.52-47.06,13.71,5.77Zm-33.97,28.84l13.2,5.56,3.66-26.45-16.86,20.89Z"/>
          </g>
          <g id="g2558">
            <path id="path2560" class="cls-3" d="m486.14,120.71l32.9-48.13,20.72,14.16c5.4,3.69,8.92,7.77,10.6,12.24,1.68,4.48,1.2,8.62-1.4,12.43-3.99,5.84-10.05,7.27-18.18,4.3,2.65,3.74,3.96,6.76,3.93,9.04-.03,2.29-1.4,5.83-4.12,10.62-3.25,5.7-4.78,9.89-4.61,12.56l-15.16-10.36c.56-2.88,1.97-6,4.26-9.33l1.88-2.9,2.38-3.64c3.78-5.53,3.45-9.83-1.02-12.88l-2.4-1.64-15.78,23.09-13.99-9.56Zm32.52-17.55l2.82,1.93c5.31,3.62,9.85,2.67,13.63-2.87,3.78-5.53,3.02-10.11-2.28-13.73l-2.82-1.94-11.35,16.6Z"/>
          </g>
          <g id="g2562">
            <path id="path2564" class="cls-3" d="m571.44,149.27l16.46,17.43-22.88,21.61-3.69-3.91,1.66-4.1c-5.64-1.13-10.26-3.6-13.85-7.4-5.93-6.26-8.64-12.9-8.15-19.91.48-7.02,4.14-13.75,10.98-20.2,6.64-6.27,13.74-9.51,21.33-9.72,7.57-.21,14.16,2.65,19.76,8.59,7.39,7.82,7.89,16.35,1.49,25.6l-8.09-3.28,1.01-.98,2.23-2.25c4.61-5.1,4.92-9.76.95-13.96-2.93-3.1-6.24-3.97-9.97-2.61-3.72,1.37-9.19,5.46-16.4,12.27-6.73,6.37-10.89,11.15-12.43,14.35-1.56,3.2-1.12,6.09,1.32,8.68,2.87,3.04,5.99,2.96,9.37-.24l10.44-9.86-5.75-6.09,4.23-4.01Z"/>
          </g>
          <g id="g2566">
            <path id="path2568" class="cls-3" d="m642.03,200.42l-38.67,7.61-18.2,11.5-9.01-14.29,18.19-11.49,22.69-32.92,9.37,14.84-17.42,25.03,29.45-5.98,3.6,5.7Z"/>
          </g>
          <g id="g2570">
            <path id="path2572" class="cls-3" d="m655.46,230.78l-48.51,19.91,9.1,22.15-5.45,2.23-15.51-37.81,53.95-22.14,6.42,15.66Z"/>
          </g>
          <g id="g2574">
            <path id="path2576" class="cls-3" d="m676.78,305.61l-5.75,1.23-4.37-20.41-17.17,3.67,3.65,17.11-5.76,1.23-3.65-17.11-22.55,4.82,5.09,23.86-5.76,1.23-8.63-40.44,57.01-12.17,7.89,36.98Z"/>
          </g>
          <g id="g2578">
            <path id="path2580" class="cls-3" d="m146.14,528.67l-3.99,3.01-10.94-14.5-13.33,10.05,9.28,12.31-3.98,3.01-9.29-12.3-18.6,14.02-8.72-11.57,39.92-30.11,19.66,26.07Z"/>
          </g>
          <g id="g2582">
            <path id="path2584" class="cls-3" d="m164.4,545.77c10.46,10.12,9.7,21.38-2.28,33.78-12,12.41-23.32,13.45-33.98,3.15-10.64-10.3-9.85-21.79,2.42-34.47,11.71-12.12,23-12.94,33.85-2.46m-3.05,2.58c-1.97-1.9-4.34-2.1-7.14-.6-2.8,1.51-7.17,5.33-13.12,11.48-5.94,6.16-9.62,10.66-11.03,13.5-1.4,2.85-1.12,5.21.85,7.12,1.96,1.9,4.35,2.1,7.14.59,2.8-1.49,7.17-5.32,13.12-11.47,5.93-6.15,9.6-10.64,11.02-13.49,1.41-2.85,1.14-5.24-.83-7.13"/>
          </g>
          <g id="g2586">
            <path id="path2588" class="cls-3" d="m201.12,575.52c12.04,8.15,13.23,19.35,3.58,33.62-9.65,14.27-20.61,17.26-32.88,8.96-12.27-8.3-13.46-19.74-3.59-34.34,9.44-13.94,20.4-16.69,32.89-8.24m-2.57,3.07c-2.25-1.53-4.63-1.31-7.11.65-2.48,1.97-6.11,6.48-10.9,13.55-4.79,7.09-7.63,12.13-8.52,15.18-.9,3.04-.22,5.31,2.04,6.84,2.25,1.52,4.62,1.3,7.11-.66,2.48-1.95,6.12-6.47,10.9-13.55,4.77-7.06,7.62-12.11,8.51-15.16.91-3.04.23-5.32-2.03-6.85"/>
          </g>
          <g id="g2590">
            <path id="path2592" class="cls-3" d="m256.04,605.71l-2.11,4.54-11.13-5.18-18.98,40.79-13.95-6.49,18.97-40.79-11.21-5.22,2.12-4.54,36.29,16.88Z"/>
          </g>
          <g id="g2594">
            <path id="path2596" class="cls-3" d="m245.59,654.95l13.69-48.08,21.39,6.09c11.01,3.13,15.4,8.63,13.16,16.5-1.59,5.58-5.94,8.22-13.03,7.9,7.56,3.87,10.36,9.27,8.39,16.17-2.44,8.53-9.03,11.26-19.81,8.19l-23.79-6.77Zm15.09-.01l3.99,1.12c5.2,1.49,8.66-.75,10.36-6.72,1.94-6.84.23-11.01-5.15-12.54l-3.73-1.06-5.47,19.19Zm6.6-23.19l4.3,1.23c3.98,1.12,6.79-1.24,8.46-7.11,1.54-5.41.21-8.72-4-9.92l-3.95-1.12-4.81,16.92Z"/>
          </g>
          <g id="g2598">
            <path id="path2600" class="cls-3" d="m326.93,621.38l7.98,51.29-14.48-1.71-1.68-11.12-14.95-1.76-4.43,10.4-5.63-.66,20.53-47.93,12.66,1.49Zm-21.12,31.9l12.18,1.43-3.26-22.7-8.92,21.27Z"/>
          </g>
          <g id="g2602">
            <path id="path2604" class="cls-3" d="m359.55,622.42l1.19,44.93,20.51-.54.13,5.01-35.02.93-1.32-49.96,14.5-.38Z"/>
          </g>
          <g id="g2606">
            <path id="path2608" class="cls-3" d="m397.92,618.69l7.51,44.35,20.29-3.43.84,4.94-34.56,5.87-8.35-49.31,14.28-2.42Z"/>
          </g>
          <g id="g2610">
            <path id="path2612" class="cls-3" d="m487.63,620.93l6.31-1.02c.58,1.12,1.07,2.11,1.45,2.96,1.96,4.44,1.91,8.7-.14,12.78-2.04,4.07-5.76,7.3-11.17,9.68-13.56,5.97-23.69,1.33-30.41-13.93-3.2-7.24-3.79-13.97-1.83-20.21,1.99-6.24,6.13-10.76,12.49-13.56,9.89-4.36,16.94-1.77,21.13,7.74l-4.53,5.13c-.54-1.36-.97-2.42-1.29-3.16-2.98-6.75-7.16-8.92-12.55-6.55-5.72,2.51-5.42,10.92.88,25.24,5.42,12.3,11.32,17.04,17.71,14.23,2.63-1.16,4.36-3.17,5.19-6.05.83-2.87.55-5.87-.83-9.02-.45-1-1.24-2.43-2.39-4.26"/>
          </g>
          <g id="g2614">
            <path id="path2616" class="cls-3" d="m498.13,580.18l24.16,37.91,17.32-11.04,2.71,4.25-29.56,18.84-26.86-42.16,12.23-7.8Z"/>
          </g>
          <g id="g2618">
            <path id="path2620" class="cls-3" d="m546.01,542.47l22.12,25.2c7.59,8.66,6.61,17.19-2.96,25.58-9.53,8.35-18.09,8.2-25.68-.46l-22.11-25.22,10.91-9.57,22.4,25.54c2.91,3.31,5.35,5.15,7.36,5.53,2.01.39,4.28-.54,6.84-2.77,4.93-4.32,4.79-9.47-.43-15.42l-22.1-25.21,3.66-3.2Z"/>
          </g>
          <g id="g2622">
            <path id="path2624" class="cls-3" d="m589.69,568.94l-38.71-31.61,14.07-17.23c7.24-8.88,14.04-10.72,20.38-5.55,4.51,3.67,5.2,8.71,2.1,15.1,6.55-5.41,12.61-5.85,18.16-1.31,6.86,5.6,6.74,12.75-.35,21.44l-15.64,19.15Zm-12.68-29.09l2.83-3.46c2.62-3.22,1.57-6.74-3.16-10.6-4.36-3.56-7.93-3.63-10.7-.24l-2.59,3.18,13.62,11.12Zm18.64,15.23l2.62-3.22c3.45-4.2,2.77-8.27-2.03-12.18-5.49-4.48-10-4.55-13.55-.21l-2.45,3.01,15.41,12.59Z"/>
          </g>
          <g id="g2626">
            <path id="path2628" class="cls-3" d="m89.29,310.21l-56.59-14.04,6.05-24.41c3.43-13.84,10.69-19.38,21.76-16.63,11.19,2.77,14.87,11.85,11.05,27.24l-1.41,5.68,23.2,5.76-4.08,16.41Zm-24.33-23.46l.91-3.69c1.48-5.96-1.74-9.92-9.64-11.89-7.42-1.83-11.86.23-13.34,6.19l-.9,3.69,22.97,5.7Z"/>
          </g>
          <g id="g2630">
            <path id="path2632" class="cls-3" d="m58.01,217.98l47.62,22,10.05-21.78,5.32,2.46-17.15,37.12-52.94-24.45,7.09-15.35Z"/>
          </g>
          <g id="g2634">
            <path id="path2636" class="cls-3" d="m99.88,149.08l22.03,32.68,17.68,12.31-9.68,13.89-17.68-12.32-39.15-8.11,10.04-14.4,29.85,6.3-16.94-24.83,3.85-5.53Z"/>
          </g>
          <g id="g2638">
            <path id="path2640" class="cls-3" d="m151.32,97.91l39.77,42.63-11.93,11.14-27.68-29.67,19.38,37.42-6.91,6.44-35.74-21.21,27.22,29.17-4.15,3.87-39.78-42.63,12.55-11.71,31.32,18.91-16.74-32.51,12.69-11.84Z"/>
          </g>
          <g id="g2642">
            <path id="path2644" class="cls-3" d="m192.77,70.13c14.74-8.4,27.09-3.85,37.04,13.62,9.95,17.47,7.42,30.48-7.6,39.03-15.01,8.56-27.62,3.9-37.79-13.97-9.72-17.08-6.94-29.97,8.35-38.68m1.89,4.27c-2.77,1.58-3.78,4.17-3,7.79.76,3.6,3.61,9.75,8.55,18.42,4.93,8.67,8.76,14.25,11.48,16.75,2.72,2.5,5.47,2.97,8.23,1.38,2.77-1.57,3.77-4.17,3.01-7.78-.77-3.62-3.62-9.76-8.55-18.43-4.92-8.65-8.75-14.22-11.48-16.74-2.73-2.51-5.47-2.98-8.24-1.4"/>
          </g>
          <g id="g2646">
            <path id="path2648" class="cls-3" d="m277.78,36.83l11.73,37.31c4.03,12.82-1.04,21.47-15.2,25.93-14.12,4.44-23.2.24-27.23-12.58l-11.73-37.31,16.14-5.08,11.89,37.8c1.54,4.9,3.3,8.04,5.27,9.39,1.97,1.36,4.85,1.44,8.64.24,7.34-2.3,9.62-7.87,6.84-16.69l-11.73-37.31,5.38-1.69Z"/>
          </g>
          <g id="g2650">
            <path id="path2652" class="cls-3" d="m340.72,28.02l.65,5.81-14.19,1.59,5.84,52.15-17.82,2-5.84-52.15-14.34,1.61-.64-5.82,46.34-5.18Z"/>
          </g>
          <g id="g2654">
            <path id="path2656" class="cls-3" d="m373.31,58.5l-2.59,28.89-16.81-1.52,5.2-58.05,16.82,1.51-2.09,23.33,13.82,1.24,2.09-23.32,16.81,1.51-5.2,58.05-16.82-1.51,2.59-28.88-13.82-1.25Z"/>
          </g>
          <g id="g2658">
            <path id="path2660" class="cls-3" d="m487.84,57.24l-7.65,60.05-15.68-6.6,1.72-13.03-16.18-6.81-8.35,10.24-6.09-2.57,38.52-47.06,13.71,5.77Zm-33.97,28.84l13.2,5.56,3.66-26.45-16.86,20.89Z"/>
          </g>
          <g id="g2662">
            <path id="path2664" class="cls-3" d="m486.14,120.71l32.9-48.13,20.72,14.16c5.4,3.69,8.92,7.77,10.6,12.24,1.68,4.48,1.2,8.62-1.4,12.43-3.99,5.84-10.05,7.27-18.18,4.3,2.65,3.74,3.96,6.76,3.93,9.04-.03,2.29-1.4,5.83-4.12,10.62-3.25,5.7-4.78,9.89-4.61,12.56l-15.16-10.36c.56-2.88,1.97-6,4.26-9.33l1.88-2.9,2.38-3.64c3.78-5.53,3.45-9.83-1.02-12.88l-2.4-1.64-15.78,23.09-13.99-9.56Zm32.52-17.55l2.82,1.93c5.31,3.62,9.85,2.67,13.63-2.87,3.78-5.53,3.02-10.11-2.28-13.73l-2.82-1.94-11.35,16.6Z"/>
          </g>
          <g id="g2666">
            <path id="path2668" class="cls-3" d="m571.44,149.27l16.46,17.43-22.88,21.61-3.69-3.91,1.66-4.1c-5.64-1.13-10.26-3.6-13.85-7.4-5.93-6.26-8.64-12.9-8.15-19.91.48-7.02,4.14-13.75,10.98-20.2,6.64-6.27,13.74-9.51,21.33-9.72,7.57-.21,14.16,2.65,19.76,8.59,7.39,7.82,7.89,16.35,1.49,25.6l-8.09-3.28,1.01-.98,2.23-2.25c4.61-5.1,4.92-9.76.95-13.96-2.93-3.1-6.24-3.97-9.97-2.61-3.72,1.37-9.19,5.46-16.4,12.27-6.73,6.37-10.89,11.15-12.43,14.35-1.56,3.2-1.12,6.09,1.32,8.68,2.87,3.04,5.99,2.96,9.37-.24l10.44-9.86-5.75-6.09,4.23-4.01Z"/>
          </g>
          <g id="g2670">
            <path id="path2672" class="cls-3" d="m642.03,200.42l-38.67,7.61-18.2,11.5-9.01-14.29,18.19-11.49,22.69-32.92,9.37,14.84-17.42,25.03,29.45-5.98,3.6,5.7Z"/>
          </g>
          <g id="g2674">
            <path id="path2676" class="cls-3" d="m655.46,230.78l-48.51,19.91,9.1,22.15-5.45,2.23-15.51-37.81,53.95-22.14,6.42,15.66Z"/>
          </g>
          <g id="g2678">
            <path id="path2680" class="cls-3" d="m676.78,305.61l-5.75,1.23-4.37-20.41-17.17,3.67,3.65,17.11-5.76,1.23-3.65-17.11-22.55,4.82,5.09,23.86-5.76,1.23-8.63-40.44,57.01-12.17,7.89,36.98Z"/>
          </g>
          <g id="g2682">
            <path id="path2684" class="cls-3" d="m146.14,528.67l-3.99,3.01-10.94-14.5-13.33,10.05,9.28,12.31-3.98,3.01-9.29-12.3-18.6,14.02-8.72-11.57,39.92-30.11,19.66,26.07Z"/>
          </g>
          <g id="g2686">
            <path id="path2688" class="cls-3" d="m164.4,545.77c10.46,10.12,9.7,21.38-2.28,33.78-12,12.41-23.32,13.45-33.98,3.15-10.64-10.3-9.85-21.79,2.42-34.47,11.71-12.12,23-12.94,33.85-2.46m-3.05,2.58c-1.97-1.9-4.34-2.1-7.14-.6-2.8,1.51-7.17,5.33-13.12,11.48-5.94,6.16-9.62,10.66-11.03,13.5-1.4,2.85-1.12,5.21.85,7.12,1.96,1.9,4.35,2.1,7.14.59,2.8-1.49,7.17-5.32,13.12-11.47,5.93-6.15,9.6-10.64,11.02-13.49,1.41-2.85,1.14-5.24-.83-7.13"/>
          </g>
          <g id="g2690">
            <path id="path2692" class="cls-3" d="m201.12,575.52c12.04,8.15,13.23,19.35,3.58,33.62-9.65,14.27-20.61,17.26-32.88,8.96-12.27-8.3-13.46-19.74-3.59-34.34,9.44-13.94,20.4-16.69,32.89-8.24m-2.57,3.07c-2.25-1.53-4.63-1.31-7.11.65-2.48,1.97-6.11,6.48-10.9,13.55-4.79,7.09-7.63,12.13-8.52,15.18-.9,3.04-.22,5.31,2.04,6.84,2.25,1.52,4.62,1.3,7.11-.66,2.48-1.95,6.12-6.47,10.9-13.55,4.77-7.06,7.62-12.11,8.51-15.16.91-3.04.23-5.32-2.03-6.85"/>
          </g>
          <g id="g2694">
            <path id="path2696" class="cls-3" d="m256.04,605.71l-2.11,4.54-11.13-5.18-18.98,40.79-13.95-6.49,18.97-40.79-11.21-5.22,2.12-4.54,36.29,16.88Z"/>
          </g>
          <g id="g2698">
            <path id="path2700" class="cls-3" d="m245.59,654.95l13.69-48.08,21.39,6.09c11.01,3.13,15.4,8.63,13.16,16.5-1.59,5.58-5.94,8.22-13.03,7.9,7.56,3.87,10.36,9.27,8.39,16.17-2.44,8.53-9.03,11.26-19.81,8.19l-23.79-6.77Zm15.09-.01l3.99,1.12c5.2,1.49,8.66-.75,10.36-6.72,1.94-6.84.23-11.01-5.15-12.54l-3.73-1.06-5.47,19.19Zm6.6-23.19l4.3,1.23c3.98,1.12,6.79-1.24,8.46-7.11,1.54-5.41.21-8.72-4-9.92l-3.95-1.12-4.81,16.92Z"/>
          </g>
          <g id="g2702">
            <path id="path2704" class="cls-3" d="m326.93,621.38l7.98,51.29-14.48-1.71-1.68-11.12-14.95-1.76-4.43,10.4-5.63-.66,20.53-47.93,12.66,1.49Zm-21.12,31.9l12.18,1.43-3.26-22.7-8.92,21.27Z"/>
          </g>
          <g id="g2706">
            <path id="path2708" class="cls-3" d="m359.55,622.42l1.19,44.93,20.51-.54.13,5.01-35.02.93-1.32-49.96,14.5-.38Z"/>
          </g>
          <g id="g2710">
            <path id="path2712" class="cls-3" d="m397.92,618.69l7.51,44.35,20.29-3.43.84,4.94-34.56,5.87-8.35-49.31,14.28-2.42Z"/>
          </g>
          <g id="g2714">
            <path id="path2716" class="cls-3" d="m487.63,620.93l6.31-1.02c.58,1.12,1.07,2.11,1.45,2.96,1.96,4.44,1.91,8.7-.14,12.78-2.04,4.07-5.76,7.3-11.17,9.68-13.56,5.97-23.69,1.33-30.41-13.93-3.2-7.24-3.79-13.97-1.83-20.21,1.99-6.24,6.13-10.76,12.49-13.56,9.89-4.36,16.94-1.77,21.13,7.74l-4.53,5.13c-.54-1.36-.97-2.42-1.29-3.16-2.98-6.75-7.16-8.92-12.55-6.55-5.72,2.51-5.42,10.92.88,25.24,5.42,12.3,11.32,17.04,17.71,14.23,2.63-1.16,4.36-3.17,5.19-6.05.83-2.87.55-5.87-.83-9.02-.45-1-1.24-2.43-2.39-4.26"/>
          </g>
          <g id="g2718">
            <path id="path2720" class="cls-3" d="m498.13,580.18l24.16,37.91,17.32-11.04,2.71,4.25-29.56,18.84-26.86-42.16,12.23-7.8Z"/>
          </g>
          <g id="g2722">
            <path id="path2724" class="cls-3" d="m546.01,542.47l22.12,25.2c7.59,8.66,6.61,17.19-2.96,25.58-9.53,8.35-18.09,8.2-25.68-.46l-22.11-25.22,10.91-9.57,22.4,25.54c2.91,3.31,5.35,5.15,7.36,5.53,2.01.39,4.28-.54,6.84-2.77,4.93-4.32,4.79-9.47-.43-15.42l-22.1-25.21,3.66-3.2Z"/>
          </g>
          <g id="g2726">
            <path id="path2728" class="cls-3" d="m589.69,568.94l-38.71-31.61,14.07-17.23c7.24-8.88,14.04-10.72,20.38-5.55,4.51,3.67,5.2,8.71,2.1,15.1,6.55-5.41,12.61-5.85,18.16-1.31,6.86,5.6,6.74,12.75-.35,21.44l-15.64,19.15Zm-12.68-29.09l2.83-3.46c2.62-3.22,1.57-6.74-3.16-10.6-4.36-3.56-7.93-3.63-10.7-.24l-2.59,3.18,13.62,11.12Zm18.64,15.23l2.62-3.22c3.45-4.2,2.77-8.27-2.03-12.18-5.49-4.48-10-4.55-13.55-.21l-2.45,3.01,15.41,12.59Z"/>
          </g>
          <g id="g2730">
            <path id="path2732" class="cls-2" d="m525.67,353.98s-.27-.35-.82-1.12c-.54-.76-1.33-1.9-2.27-3.37-1.89-2.95-4.42-7.23-6.95-12.51-5.07-10.56-10.09-25.08-10.08-40.78.05-17.93,6.32-37.4,26.89-55.5l2.69-2.36-54.32-56.77-2.16,4.39s0,0-.04.08c-.04.08-.12.21-.22.39-.2.35-.52.87-.95,1.51-.86,1.27-2.2,3-4,4.7-3.63,3.42-8.92,6.7-16.47,6.71-1.95,0-4.07-.22-6.38-.74-.12-.01-57.85-13.09-96.85-13.12-39,.02-96.72,13.1-96.85,13.12-2.31.52-4.42.74-6.38.74-7.54-.01-12.83-3.29-16.46-6.71-1.8-1.7-3.13-3.43-4-4.7-.43-.64-.75-1.16-.95-1.51-.1-.17-.17-.31-.21-.39-.04-.08-.04-.08-.04-.08l-2.17-4.39-54.32,56.77,2.69,2.36c20.57,18.1,26.85,37.57,26.9,55.5,0,15.7-5.01,30.22-10.08,40.78-2.53,5.28-5.06,9.56-6.95,12.51-.95,1.47-1.73,2.61-2.27,3.37-.54.76-.81,1.11-.81,1.12-14.5,18.78-18.68,39.91-18.68,57.91.01,25.09,8.01,44.39,8.1,44.63,10,24.23,25.36,38.84,41.54,47.18,16.18,8.35,33.04,10.52,46.39,10.53,15.19,0,25.88-2.82,26.08-2.87,10.59-2.8,19.49-3.92,26.94-3.92,14.8.02,23.87,4.33,29.6,8.91,5.72,4.61,8.06,9.54,8.82,11.2l3.12,6.84,3.12-6.84c.76-1.67,3.1-6.59,8.82-11.2,5.73-4.58,14.79-8.89,29.6-8.91,7.45,0,16.35,1.12,26.94,3.92.2.05,10.89,2.86,26.08,2.87,13.35,0,30.22-2.18,46.39-10.53,16.18-8.33,31.54-22.95,41.54-47.18.09-.24,8.09-19.55,8.1-44.63,0-18.01-4.18-39.13-18.67-57.91"/>
          </g>
          <g id="g2734">
            <path id="path2736" class="cls-1" d="m530.21,453.15c-.2.53-.3.77-.3.77-9.47,22.83-23.5,36.01-38.35,43.71-14.86,7.68-30.64,9.77-43.25,9.76-10.75,0-19.17-1.51-22.62-2.25-1.15-.25-1.7-.39-1.7-.39-11.07-2.93-20.56-4.14-28.69-4.14-16.15-.02-27.01,4.87-33.89,10.42-3.47,2.78-5.93,5.71-7.65,8.2,0,0,0,0,0,0h0c-1.71-2.49-4.18-5.42-7.65-8.2-6.88-5.55-17.74-10.44-33.89-10.42-8.14,0-17.62,1.22-28.69,4.14,0,0-.55.15-1.7.39-3.45.74-11.87,2.25-22.62,2.25-12.61,0-28.4-2.09-43.25-9.76-14.85-7.7-28.88-20.88-38.35-43.71,0,0-.1-.24-.3-.77-1.42-3.72-7.29-20.58-7.29-41.25,0-16.99,3.92-36.44,17.25-53.73.16-.29,21.46-27.63,21.54-61.96.05-18.76-6.64-39.62-26.57-58.25l43.02-44.97c1.03,1.38,2.39,2.99,4.1,4.62,4.44,4.23,11.52,8.6,21.18,8.58,2.48,0,5.11-.28,7.88-.91,0,0,3.57-.8,9.55-2.02,17.93-3.65,57.57-10.94,85.79-10.93,28.23-.02,67.86,7.27,85.79,10.93,5.99,1.22,9.54,2.02,9.55,2.02,2.77.63,5.41.91,7.88.91,9.66.01,16.74-4.35,21.18-8.58,1.71-1.63,3.07-3.24,4.1-4.62l43.02,44.97c-19.93,18.62-26.62,39.49-26.57,58.25.08,34.33,21.38,61.67,21.54,61.96,13.33,17.29,17.25,36.74,17.25,53.73,0,20.67-5.87,37.53-7.29,41.25"/>
          </g>
          <g id="g2738">
            <path id="path2740" class="cls-3" d="m251.7,448.55c-.98,0-1.81.78-1.81,1.78s.82,1.78,1.81,1.78,1.76-.79,1.76-1.78-.77-1.78-1.76-1.78"/>
          </g>
          <g id="g2742">
            <path id="path2744" class="cls-3" d="m252.81,446.66c0-.61-.46-1.08-1.12-1.08-.59,0-1.08.47-1.08,1.08s.5,1.09,1.08,1.09c.65,0,1.12-.49,1.12-1.09"/>
          </g>
          <g id="g2746">
            <path id="path2748" class="cls-3" d="m256.36,446.87c0-.6-.48-1.09-1.08-1.09s-1.12.49-1.12,1.09.5,1.07,1.12,1.07,1.08-.46,1.08-1.07"/>
          </g>
          <g id="g2750">
            <path id="path2752" class="cls-3" d="m255.67,454.86c-.62,0-1.09.48-1.09,1.1s.47,1.08,1.09,1.08,1.09-.48,1.09-1.08-.47-1.1-1.09-1.1"/>
          </g>
          <g id="g2754">
            <path id="path2756" class="cls-3" d="m291,474.51c-.53,0-.96.41-.96.93s.43.94.96.94.93-.4.93-.94-.41-.93-.93-.93"/>
          </g>
          <g id="g2758">
            <path id="path2760" class="cls-3" d="m300.89,475.3c-.46,0-.83.36-.83.85s.36.85.83.85.87-.38.87-.85-.4-.85-.87-.85"/>
          </g>
          <g id="g2762">
            <path id="path2764" class="cls-3" d="m302.72,469.76c-.61,0-1.16.39-1.16.85s.54.85,1.16.85,1.15-.39,1.15-.85-.51-.85-1.15-.85"/>
          </g>
          <g id="g2766">
            <path id="path2768" class="cls-3" d="m311.64,476.43c-.48,0-.86.38-.86.85s.38.84.86.84.85-.37.85-.84-.39-.85-.85-.85"/>
          </g>
          <g id="g2770">
            <path id="path2772" class="cls-3" d="m325.31,476.66c-.49,0-.82.39-.82.86s.33.85.82.85.84-.39.84-.85-.37-.86-.84-.86"/>
          </g>
          <g id="g2774">
            <path id="path2776" class="cls-3" d="m331.52,471.4c-.49,0-.86.36-.86.84s.37.85.86.85c.45,0,.83-.39.83-.85s-.39-.84-.83-.84"/>
          </g>
          <g id="g2778">
            <path id="path2780" class="cls-3" d="m353.38,476.55c-.6,0-1.1.35-1.1.84s.5.84,1.1.84c.64,0,1.13-.37,1.13-.84s-.49-.84-1.13-.84"/>
          </g>
          <g id="g2782">
            <path id="path2784" class="cls-3" d="m371.86,477.14c-.77,0-1.41.42-1.41.94s.64.96,1.41.96,1.43-.44,1.43-.96-.65-.94-1.43-.94"/>
          </g>
          <g id="g2786">
            <path id="path2788" class="cls-3" d="m366.47,471.88c-.45,0-.85.39-.85.85s.41.86.85.86c.48,0,.86-.39.86-.86s-.38-.85-.86-.85"/>
          </g>
          <g id="g2790">
            <path id="path2792" class="cls-3" d="m364.88,477.62c-.44,0-.82.38-.82.85s.38.88.82.88c.5,0,.88-.4.88-.88s-.38-.85-.88-.85"/>
          </g>
          <g id="g2794">
            <path id="path2796" class="cls-3" d="m381.53,470.41c-.48,0-.89.39-.89.87,0,.45.41.84.89.84.43,0,.82-.38.82-.84,0-.48-.39-.87-.82-.87"/>
          </g>
          <g id="g2798">
            <path id="path2800" class="cls-3" d="m408.39,458.54c-.47,0-.84.39-.84.85,0,.49.36.85.84.85s.86-.36.86-.85c0-.46-.4-.85-.86-.85"/>
          </g>
          <g id="g2802">
            <path id="path2804" class="cls-3" d="m411.36,461.99c-.47,0-.87.41-.87.84,0,.5.4.87.87.87.45,0,.84-.37.84-.87,0-.44-.4-.84-.84-.84"/>
          </g>
          <g id="g2806">
            <path id="path2808" class="cls-3" d="m414.1,458.73c-.45,0-.86.38-.86.85s.41.86.86.86.86-.38.86-.86-.39-.85-.86-.85"/>
          </g>
          <g id="g2810">
            <path id="path2812" class="cls-3" d="m418.14,458.64c-.45,0-.84.39-.84.84,0,.49.4.88.84.88.5,0,.89-.39.89-.88,0-.45-.39-.84-.89-.84"/>
          </g>
          <g id="g2814">
            <path id="path2816" class="cls-3" d="m416.66,455.74c0,.47.35.82.82.82s.85-.35.85-.82-.36-.86-.85-.86-.82.39-.82.86"/>
          </g>
          <g id="g2818">
            <path id="path2820" class="cls-3" d="m413.98,451.19c0-.47-.4-.86-.86-.86-.44,0-.81.38-.81.86s.37.84.81.84c.47,0,.86-.39.86-.84"/>
          </g>
          <g id="g2822">
            <path id="path2824" class="cls-3" d="m418.71,451.78c0-.46-.36-.86-.82-.86-.5,0-.86.4-.86.86s.36.84.86.84c.46,0,.82-.36.82-.84"/>
          </g>
          <g id="g2826">
            <path id="path2828" class="cls-3" d="m420.46,455.08c-.46,0-.85.39-.85.85s.39.85.85.85.84-.38.84-.85-.38-.85-.84-.85"/>
          </g>
          <g id="g2830">
            <path id="path2832" class="cls-3" d="m426.95,455.08c-.49,0-.84.39-.84.85s.34.85.84.85.88-.38.88-.85-.4-.85-.88-.85"/>
          </g>
          <g id="g2834">
            <path id="path2836" class="cls-3" d="m431.22,455.08c-.47,0-.83.39-.83.85s.37.85.83.85.85-.38.85-.85-.38-.85-.85-.85"/>
          </g>
          <g id="g2838">
            <path id="path2840" class="cls-3" d="m416.48,461.59c-.47,0-.84.39-.84.86s.37.84.84.84.86-.38.86-.84-.38-.86-.86-.86"/>
          </g>
          <g id="g2842">
            <path id="path2844" class="cls-3" d="m392.38,371.18s.04,0,.07,0h-.07s0,0,0,0Z"/>
          </g>
          <g id="g2846">
            <path id="path2848" class="cls-3" d="m399.96,451.57c-.46,0-.82-.38-.82-.84s.36-.84.82-.84c.49,0,.85.36.85.84s-.36.84-.85.84m-13.3-32.11c-6.27.07-15.94.12-26.41-.02l1.09-4.6,5.45,1.13-.36,2.3-5.55.17-.07.92,9.32.13.11-1.13-2.46-.1.32-2.03,4.61.95-.32,2.3h1.46l6.57-47.29-1.51.36-.62,4.47-4.01-.17.59-3.72c4.14-1,8.08-1.59,11.79-1.84v48.16Zm-11.67,33.05s-1.68.26-1.61-1.33c0,0,.3-.99,1.38-.59,0,0,1.23.05,1.23.78,0,0,.32,1.2-1,1.13m-11.46.99c-.57,0-.99-.42-.99-.95s.42-.92.99-.92c.53,0,1.01.4,1.01.92s-.49.95-1.01.95m-4.64-34.22l.68.14c-11.07-.16-22.95-.54-32.6-1.35l.47-.16v.03h.29l.8.13-.03-.53,4.1-1.41.2,1.94,1.61.27-2.53-22.93c13.93-10.8,26.5-17.29,37.65-20.81l-10.66,44.67Zm-11.51,31.16c-.54.89-3,.38-3,.38-.11-.24-.37-.67-.37-.67-.09-1.59,2.45-.9,2.45-.9,1.25.15.93,1.19.93,1.19m-11.55-.88c-.86.81-4.22-.07-4.22-.07-.04-.25-.38-.7-.38-.7.26-1.6,3.51-.54,3.51-.54,1.78.34,1.1,1.32,1.1,1.32m-9.54-31.55c-1.4-.12-2.74-.25-4.03-.39v-1.01s5-1.8,5-1.8l.12,1.94-1.9.67.81.59Zm-3.55,30.62c-.75.81-3.39-.06-3.39-.06-.06-.26-.33-.74-.33-.74.2-1.57,2.85-.51,2.85-.51,1.39.35.88,1.31.88,1.31m-.43-34.9l4.77-1.93.1,1.62-4.89,1.9.02-1.59Zm.04-3.11l4.53-2.07.1,1.69-4.66,1.97.02-1.59Zm.05-3.96l4.25-1.86.14,2.28-4.42,1.97.03-2.39Zm.04-3.33l4-1.94.12,1.94-4.15,2.08.03-2.09Zm.05-4.13l3.73-1.39v.19c-.52,1.08-.95,1.91-1.25,2.49l-2.51,1.28.03-2.57Zm.05-3.93l3.45-1.27.12,1.99-3.6,1.37.03-2.09Zm.06-4.36l.06.27,3.1-1.08.14,2.29-3.33,1.24.03-2.73Zm.05-4.08l.14.36,2.73-.87.13,2.2-3.05,1.11.04-2.79Zm.05-3.65l2.6-.7.14,2.33-2.77.89.03-2.52Zm.05-3.65l2.33-.59.13,2.15-2.49.63.03-2.18Zm.05-3.6l2.08-.49.13,2.09-2.23.57.03-2.17Zm.05-3.61l1.82-.32.11,1.9-1.96.45.03-2.03Zm.03-2.03l1.68-.26.06,1-1.75.31v-1.04Zm4.87-.76l.1.93-1.94.34-.05-.98,1.9-.3Zm.38,3.62l-2.06.47-.1-1.83,1.99-.35.18,1.71Zm.36,3.49l-2.23.57-.12-2.07,2.13-.51.21,2.01Zm.37,3.54l-2.4.6-.12-2.15,2.29-.58.22,2.13Zm.14,1.32l.22,2.11-2.55.82-.13-2.27,2.46-.66Zm.58,5.6l-2.71.99-.12-2.15,2.62-.84.21,2Zm.33,3.14c-.12.27-.24.54-.37.81l-2.46.92-.13-2.26,2.79-.97.16,1.51Zm-2.62,5.32l-.11-1.98,1.45-.53c-.4.87-.79,1.7-1.15,2.44l-.19.07Zm3.4,2.11v-.06s-3.19,1.62-3.19,1.62v-.28c1.02-.85,2.05-1.68,3.07-2.49l.13,1.2Zm.36,3.44l-3.36,1.68-.11-1.93,3.27-1.58.19,1.83Zm.41,3.92l-3.55,1.58-.13-2.28,3.45-1.51.23,2.21Zm.83,7.98l.2,1.95-4.04,1.43-.11-1.95,3.95-1.42Zm-4.03,0l-.09-1.64,3.79-1.53.17,1.68-3.87,1.5Zm3.53-4.8l-3.71,1.57-.1-1.73,3.61-1.65.19,1.82Zm40.94-30.12l-.59,3.78-2.93-.31.84-3.55,2.69.08Zm-1.79-3.9c.84-.25,1.68-.48,2.51-.7l-.52,3.31-2.58-.11.59-2.5Zm1.77,12.58l.55-3.47,4.09.39-.49,3.54-4.15-.46Zm-.7,4.44l.51-3.22,4.16.53-.43,3.09-4.23-.41Zm-.77,4.88l.53-3.4,4.27.32-.51,3.67-4.3-.59Zm-.75,4.75l.54-3.4,4.31.64-.48,3.43-4.37-.66Zm-.77,4.89l.58-3.68,4.4.65-.55,3.96-4.42-.92Zm-.69,4.38l.5-3.19,4.45.87-.43,3.08-4.53-.75Zm-.21,1.34l4.55.78-.51,3.64-4.58-.97.54-3.45Zm.88-14.21l-.53,3.4-4.34-.65.79-3.35,4.08.6Zm.73-4.65l-.52,3.32-3.99-.55.72-3.05,3.79.29Zm-2.36-6.33l.8-3.38,3.04.29-.54,3.45-3.3-.36Zm3.11,1.56l-.51,3.26-3.65-.35.79-3.34,3.38.43Zm-7.42,16.66l.78-3.29,4.44.66-.57,3.6-4.65-.97Zm3.74,6.74l-.53,3.4-5.34-1.13.75-3.16,5.13.88Zm-4.82-2.17l.79-3.32,4.75.93-.51,3.23-5.03-.83Zm11.37-30.91l4.04.12-.58,4.2-4.07-.43.61-3.88Zm-64.82,68.27c-.48,0-.93-.4-.93-.96,0-.49.45-.93.93-.93.58,0,.97.44.97.93,0,.55-.39.96-.97.96m-5.35.69c-.52,0-.93-.42-.93-.93,0-.54.41-.96.93-.96s.94.42.94.96c0,.51-.4.93-.94.93m-7.89-.57c.65,0,1.16.43,1.16.96s-.51.93-1.16.93-1.13-.4-1.13-.93.49-.96,1.13-.96m-9.14-36.55l.73-1.91,7.04,1.92-.44,1.6-7.33-1.61Zm6.74,3.76l-7.26-.98-.5-.12.43-1.12.56.14-.21-.51s0,0,0-.01l7.23,1.72-.24.88Zm-4.87-8.62l6.64,2.2-.4,1.46-6.91-1.93.66-1.73Zm1.23-3.2l6.25,2.36-.52,1.89-6.5-2.25.77-2.01Zm1.15-2.99l5.88,2.52-.51,1.84-6.12-2.41.75-1.94Zm1.21-3.13l5.54,2.52-.53,1.91-5.77-2.47.75-1.96Zm1.24-3.22l5.28,2.19-.59,2.15-5.45-2.35.77-2Zm1.11-2.89l5.05,1.88-.52,1.9-5.19-2.07.66-1.71Zm1.31-3.4l4.77,1.54-.65,2.35-4.93-1.82.8-2.07Zm1.17-3.04l4.43,1.6-.48,1.74-4.63-1.56.69-1.78Zm1.21-3.15l4.14,1.41-.57,2.07-4.33-1.5.76-1.97Zm1.28-3.33l3.79,1.36-.59,2.14-4.03-1.33.84-2.18Zm1.16-3.02l3.59.91-.65,2.37-3.72-1.23.79-2.05Zm1.19-3.1l3.3.73-.6,2.16-3.47-.88.77-2.01Zm1.2-3.11l3.05.4-.61,2.21-3.15-.76.71-1.85Zm5.57,4.6l-.43,2.32-2.39-.61.61-2.2,2.21.49Zm-1.22-4.03l1.93.25-.49,2.6-2.1-.5.65-2.35Zm.07,10.2l-2.66-.88.68-2.46,2.49.63-.51,2.71Zm-.63,3.34l-2.94-.97.59-2.11,2.75.99-.39,2.09Zm-.65,3.45l-3.21-1.11.58-2.07,3.04,1.04-.4,2.15Zm-.58,3.07l-3.48-1.17.48-1.72,3.32,1.2-.32,1.69Zm-.72,3.83l-3.77-1.39.67-2.4,3.59,1.16-.49,2.63Zm-.66,3.53l-4.03-1.6.54-1.92,3.88,1.45-.39,2.07Zm-.7,3.73l-4.29-1.85.6-2.17,4.12,1.71-.43,2.31Zm-.64,3.42l-4.57-1.96.52-1.88,4.4,2-.35,1.85Zm-.56,2.97l-4.86-1.91.5-1.8,4.68,2-.32,1.71Zm-.51,2.7l-5.14-1.78.52-1.86,4.95,1.87-.33,1.77Zm-.43,2.27l-5.42-1.51.39-1.4,5.25,1.74-.22,1.18Zm-.47,2.5l-5.72-1.26.43-1.55,5.53,1.51-.24,1.3Zm-19.7,32.5c-.54,0-.95-.39-.95-.9s.42-.92.95-.92.92.41.92.92-.38.9-.92.9m-11.42,1.76c-.84,0-1.47-.38-1.47-.84s.63-.85,1.47-.85,1.48.37,1.48.85-.66.84-1.48.84m-4.22-1.59c-.53,0-.9-.4-.9-.9s.36-.87.9-.87c.5,0,.89.38.89.87s-.39.9-.89.9m15.79-38.3h-2.26s.06-5.78-.58-6.99h2.47s.59,2.99.38,6.99m-5.83-2.06h-2.3s.05-5.82-.52-7.03h2.46s.57,3.02.36,7.03m-5.81-1.59h-2.33s.06-5.78-.52-7.01h2.46s.57,3.01.38,7.01m-5.67-2.47h-2.3s.08-5.8-.54-7.05h2.48s.61,3.04.37,7.05m-4.82-2.27h-2.29s.01-5.79-.57-7.04h2.46s.62,3.03.4,7.04m-9.28-4.82l-2.89-4.75,2.17.09s2.17,3.95,2.99,4.66h-2.28Zm-5.87-2.68l-2.87-4.73,2.18.1s2.2,3.95,2.98,4.63h-2.28Zm-3.81-14.82h-2.5v-1.38h2.5v1.38Zm-3.93,11.46l-2.83-4.74,2.19.09s2.17,3.97,2.96,4.65h-2.32Zm-5.49-2.26l-2.88-4.74,2.19.1s2.17,3.93,2.95,4.65h-2.26Zm-2.26-12.66h2.47v1.39h-2.47v-1.39Zm4.44.99h2.49v1.38h-2.49v-1.38Zm9.19,2.47h2.48v1.39h-2.48v-1.39Zm4.97,1.41h2.45v1.37h-2.45v-1.37Zm-20.87-4.18h-2.5v-1.38h2.5v1.38Zm168.98,4.38l.33,2.77-2.01.32-.06-2.73,1.74-.36Zm.78,6.48l-2.37.34-.06-2.41,2.14-.34.29,2.4Zm.44,3.67l-2.73.4-.05-2.4,2.5-.34.28,2.34Zm2.53-10.93l.6,2.91-2.85.45-.35-2.82,2.61-.54Zm1.36,6.63l-3.15.45-.3-2.42,2.95-.47.5,2.43Zm.74,3.62l-3.43.5-.29-2.33,3.26-.44.47,2.26Zm.78,3.82l-3.73.52-.31-2.47,3.54-.48.5,2.43Zm.72,3.51l-3.99.65-.28-2.25,3.85-.49.43,2.09Zm.74,3.61l-4.27.73-.29-2.31,4.09-.71.47,2.29Zm.75,3.66l-4.54.94-.31-2.5,4.37-.78.48,2.33Zm.76,3.71l-4.82,1.02-.3-2.35,4.64-.99.48,2.33Zm.72,3.51l-5.06,1.33-.31-2.47,4.92-1.06.45,2.2Zm-11.29,2.96l-.06-2.82,4.7-1.01.31,2.53-4.94,1.29Zm-.15-6.62l4.34-.93.28,2.35-4.56.96-.06-2.39Zm-.09-4.2l3.95-.7.31,2.54-4.19.87-.06-2.71Zm-.08-3.77l3.59-.62.28,2.3-3.82.65-.05-2.33Zm-.09-3.9l3.24-.41.28,2.3-3.46.57-.05-2.45Zm-.09-3.87l2.86-.39.3,2.47-3.1.43-.06-2.52Zm92.21,7.64c8.08-7.57,11.59-20.22,11.59-20.22-6.45-1.39-12.93-2.21-19.03-2.66l9.59-9.96-2.03-2.01-11.5,11.74c-16.39-.82-29.1.89-29.1.89-.47,2.53-12.6,24.25-12.6,24.25,13.4-8.8,23.45-12.89,30.98-14.2l-23.36,23.83-33.15,1.59-13.68,8.17s-.17,0-.49,0l1.22-.83-.1-4.28,5.07-1.46.32,2.66,1.27-.69-.29-2.34,5.14-1.48.19.92,1.07-.68-7.88-39.4h-1.41l.91,4.44-2.5.54-.68-5.41-1.13.06.67,5.6-1.61.35-.14-6.01-1.15-.17s-.04,0-.07,0l.88,48.18c-.49,0-1.24.02-2.21.04v-48.25c.45,0,.88.02,1.32.03h0s.07,0,.07,0c26.75.67,40.7,18.67,40.7,18.67,6.55-61.16-10.13-74.31-10.13-74.31h-75.31c.99,26.71-9.45,55.59-16.66,72.15l-2.11-19.09-1.33-.39.09.89-.37-.89-1.56.25-.04-.68-1.36-.54.09,1.42-1.57.25.03-2.13c5.45,1.39,9.11,2.83,9.11,2.83-3.02-6.06,1-11.12,1-11.12,5.59-9.08,5.59-36.9,5.59-36.9h-21.29v-1.5h20.27v-3.04h-20.27v-25.28h-1.62c17.85-2.68,27.47,11.12,27.47,11.12,2.48-27.31-9.64-47.51-9.64-47.51h-36.4c1.51,27.81-9.08,51.55-9.08,51.55,10.51-9.61,19.65-13.87,27.29-15.11v25.22h-38.43v3.04h38.43v1.5h-34.89c.3,5.51.24,10.64-.07,15.41l-.2-1.98-19.79-10.9-5.72-8.55-1.48,1.12,3.5,5.39-26.91-14.82-1.24,2.12,30.78,16.76,4.01,6.18-32.42-17.3c2.53,32.87-7.58,48.53-7.58,48.53,22.74-18.19,44.98-9.09,44.98-9.09,1.89-3.54,2.12-7.93,1.83-11.64l7.4,11.4.91-3.07-9.07-13.56c-.31-1.44-.58-2.34-.58-2.34l-1.54-.82-4.16-6.21,17.22,9.38c-1.88,27.27-12.03,42.14-12.03,42.14,7.6-.99,17.22-10.12,17.22-10.12,8.02-6.2,20-6.05,29.79-4.43v51.47h1.99v-51.11c1.44.27,2.83.57,4.13.88l-.43,50.99.71.14c-2.36-.27-4.52-.56-6.4-.91l-21.08-2.84.58-.07.17-.63,5.81,1.38,1.23.24,9.23-49.83-1.11-.24-.45,2.4-1.82-.24.63-2.27h-1.35l-.58,2.1-2.92-.39.76-1.97-1.11.12-16.69,42.57c-.65-2.38-2.56-2.39-2.56-2.39l-.54-8.92-27.93-6.68-2.1-11.66-25.89-6.69-6.67.51-.19,2.4,16.46,25.74,47.77,11.88-.42,1.08.37.15-46.33-11.22,1.71,6.34s6.34,8.07,7.04,14.41c0,0,9.26,19.71,16.12,26.06l.66-.05c-.39-.11-.68-.46-.68-.89,0-.54.42-.93.93-.93s.96.39.96.93c0,.37-.23.69-.54.84l2.94-.23s.36,2.4,4.66,1.88c0,0,2.4.32,1.87-2.2-.49-.04-.87-.41-.87-.9,0-.53.42-.93.95-.93s.95.4.95.93c0,.47-.35.82-.79.89.98.03,4.89.03,8.01-1.9l3.42.03s-.08-.02-.08-.02c-1.43-.26-.92-1.27-.92-1.27.67-.81,3.37-.12,3.37-.12.05.25.34.7.34.7-.02.36-.19.58-.42.73l5.13.05s-.08.07-.08.07c-1.53,1.8.49,2.86.49,2.86.2.07,3.64,1.03,3.64,1.03,3.08.22,3.08-1.82,3.08-1.82.33-1.65-1.79-1.77-1.79-1.77-.69.19-2.18-.13-2.99-.34l4.13.04s3.77,3.1,5.33,2.41c0,0,4.53-1.6,7.19-1.94-.18-.25,0-.52,0-.52.75-.59,3.56-.14,3.56-.14.08.18.37.47.37.47-.07.62-1.01.71-1.82.67.95.94,4.51,4.05,9.19,3.34,0,0,1.76.23,3.14-1.86,0,0,.42-1.78,3.48.91,0,0,3.06,2.57,8.42.28,0,0,1.89-1.29,3.82.69,0,0,2.34,2.25,6.19.8-.49-.08-.83-.43-.83-.91s.43-.93,1.04-.93c.5,0,.98.43.98.93,0,.17-.06.31-.13.44.3-.16.62-.34.94-.55,0,0,2.09-2.05,3.68.42,0,0,.12.28.52.56-.05-.13-.07-.27-.06-.44,0,0,.4-.91,1.88-.54,0,0,1.63.07,1.63.7,0,0,.21.57-.36.86.5-.04,1.07-.12,1.71-.26,0,0,1.11-.6,1.11,1.59,0,0-.12,1.47,2.78,1.08,0,0,1.87.48,2.38-2.16l6.39-.32s-.34,2.02,1.24,2.28c0,0,3.94,1.2,4.1-1.96,0,0,3.62,1.1,5.62.08-.29-.18-.5-.45-.46-.9,0,0,.38-.89,1.85-.53,0,0,1.63.07,1.63.72,0,0,.4,1-1.22,1,.04.08.07.17.07.27,0,0-.24.94.59,1.33-.17-.06-.29-.09-.29-.09l-4.72-.55c-2.09,0-2.03,1.74-2.03,1.74-.32,1.06,1.47,1.57,1.47,1.57l4.89.53c1.74-.05,1.88-1.36,1.88-1.36.14-1.09-.6-1.58-1.09-1.79.42.15,1.06.18,2.05-.06,0,0,.78-.14,1.32-1.57l2.82-.06c-.35-.12-.64-.39-.66-.96,0,0,.21-.86,1.39-.6,0,0,1.22-.03,1.26.59,0,0,.23.7-.44.94l8.97-.19,1.42-.06c-.19-.2-.32-.49-.28-.94,0,0,.27-1,1.4-.59,0,0,1.28.07,1.28.8,0,0,.06.33-.07.64l2.31-.1s30.05-25.18,45.32-39.96l32.23-13.49-39.62,11.37-.83.04,23.17-24.08c15.27-.3,17.27,12.66,17.27,12.66"/>
          </g>
          <g id="g2850">
            <path id="path2852" class="cls-3" d="m316.27,254.97h1.25v-2.5h17.21v-1.81h-17.21v-19.15c2.85-.47,9.21-1.26,11.67.53,0,0-.18-7.36-12.92-4.72l-.17,4.45s.07-.01.17-.03v18.93h-19.04v1.81h19.04v2.5Z"/>
          </g>
          <g id="g2854">
            <path id="path2856" class="cls-3" d="m346.2,309.17l.2,2.49,40.56-.48v3.64s2.81,0,2.81,0l-.06-3.68,33.33-.39v-2.28l-33.37.3-.46-27.36c23.64-4.44,29.26,13.91,29.26,13.91,1.03-19.73-11.63-44.48-11.63-44.48h-18.13l-.04-2.69h19.3v-2.08h-19.34l-.28-16.73s5.46-3.01,8.32-.37c0,0,4.1,3.89,8.13,2.65,0,0,.52-3.89,2.32-3.89,0,0,1.94-1.59-3.02-1.24,0,0-3.19-.53-5.47-4.07,0,0-2.51-5.15-11.32-1.25l-.1,24.89h-18.42v2.08h18.41v2.69h-19.8c1.99,27.79-12.13,49.52-12.13,49.52l-.49,1.02c16.69-13.14,24.73-17.19,24.73-17.19,2.7-1.03,5.21-1.78,7.56-2.34l-.11,26.93-40.78.36Z"/>
          </g>
          <g id="g2858">
            <path id="path2860" class="cls-3" d="m244.56,449.13c-.94,0-1.75.8-1.75,1.77s.81,1.8,1.75,1.8c1.01,0,1.79-.8,1.79-1.8s-.78-1.77-1.79-1.77"/>
          </g>
          <g id="g2862">
            <path id="path2864" class="cls-3" d="m260.68,446.57c0-.63-.49-1.09-1.05-1.09-.61,0-1.1.47-1.1,1.09,0,.6.49,1.09,1.1,1.09.56,0,1.05-.49,1.05-1.09"/>
          </g>
          <g id="g2866">
            <path id="path2868" class="cls-3" d="m272.8,462.88c-.48,0-.91.41-.91.93s.43.95.91.95c.54,0,.96-.44.96-.95s-.42-.93-.96-.93"/>
          </g>
          <g id="g2870">
            <path id="path2872" class="cls-3" d="m328.33,456.34c-.84,0-1.55.7-1.55,1.59s.71,1.58,1.55,1.58c.92,0,1.64-.72,1.64-1.58s-.72-1.59-1.64-1.59"/>
          </g>
          <g id="g2874">
            <path id="path2876" class="cls-3" d="m271.67,454.76l5.17.32c1.75-.11,1.66-2.18,1.66-2.18-.5-1.1-2.1-.97-2.1-.97-.5.1-5.02-.52-5.02-.52-2.67-.3-2.77.62-2.77.62-.89,3.33,3.05,2.73,3.05,2.73"/>
          </g>
          <g id="g2878">
            <path id="path2880" class="cls-3" d="m265.82,456.26l-1.12-.3c-1.03-.78-4.19-.61-4.19-.61-1.9.72-.11,1.8-.11,1.8.28.09.98-.11.98-.11,1.09-.19,3.97.97,3.97.97,1.67.22,1.6-.68,1.6-.68.16-1.47-1.13-1.07-1.13-1.07"/>
          </g>
          <g id="g2882">
            <path id="path2884" class="cls-3" d="m260.51,449.32c-2.07-2.16-3.87-.49-3.87-.49-1.36,2.05.91,2.96.91,2.96.36.3,1.66.23,1.66.23,2.51-.62,1.3-2.7,1.3-2.7"/>
          </g>
          <g id="g2886">
            <path id="path2888" class="cls-3" d="m263.18,449.12c-1.46,1.61.18,3.07.18,3.07,1.11.79,2.11.2,2.11.2,2.85-.47,1.26-2.76,1.26-2.76-.6-1.28-3.56-.51-3.56-.51"/>
          </g>
          <g id="g2890">
            <path id="path2892" class="cls-3" d="m284.5,452.2c1.86-.23,2.23,0,2.23,0,.46.22,2.67.36,2.67.36,3.12-.06,1.87-2.43,1.87-2.43-.84-1.57-7.43-1.19-7.43-1.19-2.68.15-2.24,1.33-2.24,1.33-.22,2.23,2.89,1.93,2.89,1.93"/>
          </g>
          <g id="g2894">
            <path id="path2896" class="cls-3" d="m325.47,456.28s1.64-2.12-1.41-2.76c0,0-2.2-.24-2.7-.09,0,0-.42.14-2.19-.4,0,0-3-.84-3.16,1.38,0,0-.71,1.11,1.91,1.73,0,0,6.45,1.52,7.54.14"/>
          </g>
          <g id="g2898">
            <path id="path2900" class="cls-3" d="m282.28,457.41c.67.28,4.63.43,4.63.43,2.64-.05,1.45-2.36,1.45-2.36-.27-1.51-5.4-1.19-5.4-1.19-2.16-.16-1.98,1.27-1.98,1.27-.25,1.54,1.31,1.85,1.31,1.85"/>
          </g>
          <g id="g2902">
            <path id="path2904" class="cls-3" d="m298.87,458.64c.27-.93-.81-1.02-.81-1.02l-5.07-.16c-.82,0-1.18.67-1.18.67,0,.97.96,1.11.96,1.11l4.07.17c2.04,0,2.04-.78,2.04-.78"/>
          </g>
          <g id="g2906">
            <path id="path2908" class="cls-3" d="m303.52,453.38s-4.65-1.18-7.35-1.18c0,0-2.15-.53-2.67.97h.14s-.8,1.78,2.17,2.3c0,0,7.07,1.58,8.32.29,0,0,1.39-1.35-.61-2.38"/>
          </g>
          <g id="g2910">
            <path id="path2912" class="cls-3" d="m276.08,458.15s-1.82-.48-2.03-.65c0,0-2.15-.67-3.87,0,0,0-1.19.77.67,1.43,0,0,2.45-.07,3.1.49,0,0,2.36,1.03,2.92.25,0,0,.67-1.21-.78-1.52"/>
          </g>
          <g id="g2914">
            <path id="path2916" class="cls-3" d="m282.31,464.09s-1.14-.42-3.2-.23c0,0-2.59-.57-2.12,1.12,0,0,.5,1.2,5.28.84,0,0,1.52-.95.04-1.73"/>
          </g>
          <g id="g2918">
            <path id="path2920" class="cls-3" d="m280.46,460.07s.32.24.6.43c0,0,4.6.71,5.9.53,0,0,1.23-.11.58-1.45,0,0-.9-.35-3.28-.48l-2.81-.24s-1.85-.11-.99,1.21"/>
          </g>
          <g id="g2922">
            <path id="path2924" class="cls-3" d="m294.14,464s-.89-.27-3.22-.22l-2.77-.04s-1.78.04-.85,1.28c0,0,.31.2.64.37,0,0,4.53.38,5.74.12,0,0,1.25-.22.47-1.51"/>
          </g>
          <g id="g2926">
            <path id="path2928" class="cls-3" d="m303.71,459.85s-1.66-.15-.86,1.18c0,0,.24.24.51.43,0,0,4.1.8,5.25.65,0,0,1.15-.1.57-1.42,0,0-.79-.38-2.93-.54l-2.54-.3Z"/>
          </g>
          <g id="g2930">
            <path id="path2932" class="cls-3" d="m376.84,463.04l-3-.31s-1.97-.17-1.03,1.17c0,0,.32.23.63.42,0,0,4.89.84,6.24.66,0,0,1.36-.05.66-1.42,0,0-.91-.36-3.5-.53"/>
          </g>
          <g id="g2934">
            <path id="path2936" class="cls-3" d="m312.88,452.99c2-.23,1.78-1.98,1.78-1.98.18-1.08-1.58-1.39-1.58-1.39l-4.63.05c-1.62.26-1.62,1.57-1.62,1.57,0,1.61,1.62,1.74,1.62,1.74h4.42Z"/>
          </g>
          <g id="g2938">
            <path id="path2940" class="cls-3" d="m357.08,457.39l5.93.35c2.1-.09,2.18-1.4,2.18-1.4.12-1.62-1.96-1.9-1.96-1.9l-5.67-.4c-2.58.06-2.36,1.83-2.36,1.83-.33,1.07,1.87,1.51,1.87,1.51"/>
          </g>
          <g id="g2942">
            <path id="path2944" class="cls-3" d="m369.23,457.54l4.92-.07c1.71-.23,1.71-1.56,1.71-1.56,0-1.62-1.71-1.74-1.71-1.74h-4.74c-2.11.24-1.83,1.99-1.83,1.99-.25,1.07,1.65,1.38,1.65,1.38"/>
          </g>
          <g id="g2946">
            <path id="path2948" class="cls-3" d="m306.29,456.78c0,1.62,1.17,1.74,1.17,1.74h3.31c1.46-.26,1.3-2,1.3-2,.13-1.08-1.15-1.36-1.15-1.36l-3.47.03c-1.17.25-1.17,1.59-1.17,1.59"/>
          </g>
          <g id="g2950">
            <path id="path2952" class="cls-3" d="m349.27,453.34l-3.67.35c-1.26.32-1.16,1.65-1.16,1.65.17,1.61,1.44,1.62,1.44,1.62l3.48-.25c1.52-.38,1.2-2.1,1.2-2.1.06-1.09-1.29-1.27-1.29-1.27"/>
          </g>
          <g id="g2954">
            <path id="path2956" class="cls-3" d="m394.42,452.7l-3.92.38c-1.35.35-1.26,1.66-1.26,1.66.11,1.61,1.49,1.62,1.49,1.62l3.81-.3c1.63-.39,1.34-2.11,1.34-2.11.03-1.08-1.46-1.25-1.46-1.25"/>
          </g>
          <g id="g2958">
            <path id="path2960" class="cls-3" d="m405.09,455.58c.31-1.05-1.15-1.54-1.15-1.54l-3.91-.49c-1.39.05-1.55,1.38-1.55,1.38-.23,1.6,1.09,1.89,1.09,1.89l3.78.51c1.67-.01,1.73-1.76,1.73-1.76"/>
          </g>
          <g id="g2962">
            <path id="path2964" class="cls-3" d="m414.35,455.35c.19-1.07-1.27-1.4-1.27-1.4l-3.93-.12c-1.38.18-1.4,1.51-1.4,1.51-.12,1.62,1.28,1.8,1.28,1.8l3.77.16c1.7-.17,1.55-1.94,1.55-1.94"/>
          </g>
          <g id="g2966">
            <path id="path2968" class="cls-3" d="m302.84,465.29s-.83-.49-3.55-.53c0,0-2.67-.73-1.99,1.13,0,0-.03.49,1.81.61l3.51.21s1.22-.28.21-1.42"/>
          </g>
          <g id="g2970">
            <path id="path2972" class="cls-3" d="m321.32,458.77s-2.27-.3-4.14-.3c0,0-1.12-.15-1.25-.36,0,0-1.7-.53-1.2,1.16,0,0,.38.84,2.61,1.09,0,0,3.55.15,4.18-.2,0,0,.89-1.07-.2-1.38"/>
          </g>
          <g id="g2974">
            <path id="path2976" class="cls-3" d="m316.17,464.37s-5.1-.58-7.33,0c0,0-1.72,1.12.42,1.73,0,0,5.14-.35,5.89,0,0,0,1.8.53,1.97-.2,0,0,.58-1.09-.95-1.53"/>
          </g>
          <g id="g2978">
            <path id="path2980" class="cls-3" d="m367.86,463.99s.66-1.05-.89-1.57c0,0-5.04-.79-7.3-.28,0,0-1.75,1.07.35,1.74,0,0,5.12-.14,5.92.24,0,0,1.76.61,1.92-.12"/>
          </g>
          <g id="g2982">
            <path id="path2984" class="cls-3" d="m331.44,451.77c-.38-1.64-3.36-1.04-3.36-1.04-1.97.38-1.7,1.57-1.7,1.57.21,1.51,1.7,1.64,1.7,1.64l1.83.08c1.8-.4,1.54-2.24,1.54-2.24"/>
          </g>
          <g id="g2986">
            <path id="path2988" class="cls-3" d="m325.96,465.8s-.26-.51-1.68-.44c0,0-3.4-.32-3.33.79,0,0-.56.46.77,1.04l3.77-.05s1.18-.45.47-1.34"/>
          </g>
          <g id="g2990">
            <path id="path2992" class="cls-3" d="m312.94,470.94s-2.63-1.03-2.84.54c0,0,.21.47.33.72,0,0,2.61.86,3.33.07,0,0,.53-.98-.82-1.33"/>
          </g>
          <g id="g2994">
            <path id="path2996" class="cls-3" d="m287.3,469.68s-3.25-.67-3.33.93c0,0,.37.43.48.68,0,0,3.29.47,4.09-.41,0,0,.5-1.05-1.23-1.2"/>
          </g>
          <g id="g2998">
            <path id="path3000" class="cls-3" d="m360.49,471.36s-2.78-.48-2.65,1.11c0,0,.37.41.48.65,0,0,2.78.26,3.31-.67,0,0,.31-1.07-1.13-1.09"/>
          </g>
          <g id="g3002">
            <path id="path3004" class="cls-3" d="m384.44,466.73s-3.16-.79-3.23.81c0,0,.34.44.42.7,0,0,3.17.59,3.94-.28,0,0,.51-1.03-1.13-1.23"/>
          </g>
          <g id="g3006">
            <path id="path3008" class="cls-3" d="m293.12,470.28s-.49,1.01.91,1.26c0,0,2.73.92,2.8-.68,0,0-.26-.46-.34-.72,0,0-2.69-.71-3.37.14"/>
          </g>
          <g id="g3010">
            <path id="path3012" class="cls-3" d="m324.82,471.22c-1.69-.4-2.16.62-2.16.62-.08,1.55,2.55,1.3,2.55,1.3,2.02.05,1.57-1.12,1.57-1.12,0-.72-1.96-.8-1.96-.8"/>
          </g>
          <g id="g3014">
            <path id="path3016" class="cls-3" d="m335.15,475.75c-1.35-.37-1.74.61-1.74.61-.08,1.6,2.03,1.3,2.03,1.3,1.64.07,1.25-1.09,1.25-1.09,0-.74-1.54-.82-1.54-.82"/>
          </g>
          <g id="g3018">
            <path id="path3020" class="cls-3" d="m353.02,472.31c0-.7-1.56-.79-1.56-.79-1.35-.39-1.72.6-1.72.6-.1,1.56,2.01,1.31,2.01,1.31,1.63.07,1.27-1.12,1.27-1.12"/>
          </g>
          <g id="g3022">
            <path id="path3024" class="cls-3" d="m389.57,466.01c-1.38-.39-1.72.58-1.72.58-.12,1.6,2.04,1.33,2.04,1.33,1.59.05,1.26-1.12,1.26-1.12,0-.76-1.57-.79-1.57-.79"/>
          </g>
          <g id="g3026">
            <path id="path3028" class="cls-3" d="m394.46,459.08c-.12,1.57,2.05,1.32,2.05,1.32,1.63.08,1.22-1.12,1.22-1.12,0-.72-1.51-.78-1.51-.78-1.34-.39-1.76.58-1.76.58"/>
          </g>
          <g id="g3030">
            <path id="path3032" class="cls-3" d="m403.52,460.22c1.63.05,1.27-1.13,1.27-1.13,0-.72-1.58-.8-1.58-.8-1.36-.39-1.72.6-1.72.6-.13,1.59,2.03,1.33,2.03,1.33"/>
          </g>
          <g id="g3034">
            <path id="path3036" class="cls-3" d="m343.4,476.07c-1.57-.41-1.98.59-1.98.59-.13,1.57,2.27,1.31,2.27,1.31,1.83.08,1.42-1.11,1.42-1.11,0-.75-1.7-.79-1.7-.79"/>
          </g>
          <g id="g3038">
            <path id="path3040" class="cls-3" d="m374.61,471.03c-1.54-.41-1.96.6-1.96.6-.1,1.57,2.28,1.32,2.28,1.32,1.84.07,1.41-1.11,1.41-1.11,0-.73-1.72-.8-1.72-.8"/>
          </g>
          <g id="g3042">
            <path id="path3044" class="cls-3" d="m335.3,462.39c.05-.99-.93-.94-.93-.94-.41.18-3.2-.05-3.2-.05-.55,0-3.56-.43-3.56-.43-2.01.32-.27,1.65-.27,1.65.74.43,5.45.67,5.45.67,2.42.17,2.52-.91,2.52-.91"/>
          </g>
          <g id="g3046">
            <path id="path3048" class="cls-3" d="m338.53,454.28c-.98.27-3.51-.46-3.51-.46-1.3-.4-1.85.19-1.85.19-1.6,1.72.44,2.72.44,2.72.2.06,3.62.97,3.62.97,3.11.19,3.11-1.69,3.11-1.69.32-1.6-1.81-1.72-1.81-1.72"/>
          </g>
          <g id="g3050">
            <path id="path3052" class="cls-3" d="m339.79,459.69c-1.54-.22-1.46.72-1.46.72-.04,1.19,4.25,1.05,4.25,1.05,3.4.4,3.4-.78,3.4-.78.22-1.97-6.19-.99-6.19-.99"/>
          </g>
          <g id="g3054">
            <path id="path3056" class="cls-3" d="m351.38,459.78c-1.57-.21-1.46.72-1.46.72-.05,1.19,4.21,1.07,4.21,1.07,3.44.38,3.44-.81,3.44-.81.19-1.96-6.19-.97-6.19-.97"/>
          </g>
          <g id="g3058">
            <path id="path3060" class="cls-3" d="m364.81,460.84c-.09,1.17,4.72,1.05,4.72,1.05,3.8.37,3.8-.8,3.8-.8.2-1.97-6.91-.98-6.91-.98-1.77-.2-1.61.73-1.61.73"/>
          </g>
          <g id="g3062">
            <path id="path3064" class="cls-3" d="m340.42,467.19c.18-.91-1.07-1.04-1.07-1.04l-1.89-.05c-1.15-.2-3.91-.08-3.91-.08-.59-.08-.59.72-.59.72.12,1.05,1.67,1.05,1.67,1.05l2.67.14c2.91.4,3.12-.74,3.12-.74"/>
          </g>
          <g id="g3066">
            <path id="path3068" class="cls-3" d="m343.11,471.61c.29-1.3-1.06-1.3-1.06-1.3-.22.09-3.02-.2-3.02-.2-.95-.19-1.2.5-1.2.5-.41.94.46,1.24.46,1.24.35.12,3.54.28,3.54.28,1.28.25,1.28-.52,1.28-.52"/>
          </g>
          <g id="g3070">
            <path id="path3072" class="cls-3" d="m377.43,461.82c.4.16,4.01.28,4.01.28,1.52.24,1.52-.54,1.52-.54.38-1.28-1.21-1.28-1.21-1.28-.31.11-3.46-.19-3.46-.19-1.07-.18-1.45.49-1.45.49-.44.95.58,1.24.58,1.24"/>
          </g>
          <g id="g3074">
            <path id="path3076" class="cls-3" d="m398.15,461.93c-.29.12-3.49-.18-3.49-.18-1.09-.21-1.41.48-1.41.48-.45.94.54,1.24.54,1.24.42.15,4.07.31,4.07.31,1.53.23,1.53-.55,1.53-.55.31-1.3-1.24-1.3-1.24-1.3"/>
          </g>
          <g id="g3078">
            <path id="path3080" class="cls-3" d="m406.71,462.24c-.28.1-3.49-.18-3.49-.18-1.04-.2-1.38.49-1.38.49-.42.93.57,1.24.57,1.24.41.13,4.01.28,4.01.28,1.55.26,1.55-.53,1.55-.53.31-1.3-1.26-1.3-1.26-1.3"/>
          </g>
          <g id="g3082">
            <path id="path3084" class="cls-3" d="m391.17,460.03c-.3.12-3.47.14-3.47.14-1.08-.07-1.36.66-1.36.66-.33.97.7,1.16.7,1.16.39.11,4.01-.1,4.01-.1,1.58.1,1.52-.72,1.52-.72.18-1.3-1.4-1.13-1.4-1.13"/>
          </g>
          <g id="g3086">
            <path id="path3088" class="cls-3" d="m377.12,467.59c-.32-.17-3.51-.61-3.51-.61-1.28-.36-1.36.44-1.36.44-.39,1.25.95,1.37.95,1.37.3-.08,3.04.46,3.04.46.89.28,1.24-.4,1.24-.4.49-.9-.36-1.26-.36-1.26"/>
          </g>
          <g id="g3090">
            <path id="path3092" class="cls-3" d="m387.43,462.6c-.35-.13-3.52-.18-3.52-.18-1.32-.19-1.32.57-1.32.57-.24,1.3,1.12,1.26,1.12,1.26.22-.12,3.04.12,3.04.12.93.15,1.17-.57,1.17-.57.39-.92-.5-1.2-.5-1.2"/>
          </g>
          <g id="g3094">
            <path id="path3096" class="cls-3" d="m350.56,467.28s.54-.99-1.16-1.24c0,0-3.2-.55-4.91-.39,0,0-1.74.68.08,1.73l4.59.53s1.16.27,1.41-.64"/>
          </g>
          <g id="g3098">
            <path id="path3100" class="cls-3" d="m353.43,466.15s-1.66.69.13,1.73l4.37.55s1.11.25,1.31-.66c0,0,.55-.97-1.09-1.22,0,0-3.04-.55-4.71-.41"/>
          </g>
          <g id="g3102">
            <path id="path3104" class="cls-3" d="m368.53,466.59s-3.1-.47-4.73-.28c0,0-1.67.72.09,1.72l4.43.43s1.08.22,1.29-.67c0,0,.51-.99-1.09-1.2"/>
          </g>
        </g>
      </g>
    </g>
  </g>
</svg>