<?xml version="1.0" encoding="UTF-8"?>
<svg id="Layer_2" data-name="Layer 2" xmlns="http://www.w3.org/2000/svg" viewBox="0 0 312.87 368.78">
  <defs>
    <style>
      .cls-1 {
        fill: #351860;
      }

      .cls-1, .cls-2, .cls-3, .cls-4, .cls-5, .cls-6 {
        stroke-width: 0px;
      }

      .cls-2 {
        fill: #d30029;
      }

      .cls-3 {
        fill: #adadad;
      }

      .cls-4 {
        fill: #ece65a;
      }

      .cls-5 {
        fill: #fff;
      }

      .cls-6 {
        fill: #008357;
      }
    </style>
  </defs>
  <g id="Layer_1-2" data-name="Layer 1">
    <path class="cls-3" d="m241.98,2.28c-6.41,4.35-26.11,15.63-40.04,15.63-23.73,0-40.46-12.7-40.63-12.83l-4.85-3.74-4.9,3.74c-.17.13-16.89,12.83-40.63,12.83-13.93,0-33.63-11.28-40.04-15.63L67.54,0l-3.81,1.38L16.08,18.65l2.96,7.58c11.79,30.17,15.46,47.23,15.46,95.11,0,29.86-9.53,60.16-18.74,89.46C7.66,236.59,0,260.93,0,282.34c0,25.28,10.61,48.16,29.88,64.44,16.31,13.77,38.01,22,58.06,22s31.06-4.28,40.93-8.06c8.33-3.19,15.52-5.94,27.57-5.94s19.24,2.75,27.57,5.94c9.88,3.78,21.07,8.06,40.93,8.06s41.75-8.22,58.06-22c19.27-16.27,29.88-39.16,29.88-64.44,0-21.41-7.66-45.76-15.76-71.54-9.21-29.3-18.74-59.6-18.74-89.46,0-47.88,3.67-64.94,15.46-95.11l2.96-7.58L245.34,0l-3.36,2.28Z"/>
    <path class="cls-2" d="m66.9,191.44H30.02c-9.89,33.5-22.09,65.03-22.09,90.9,0,41.05,29.47,66.87,58.96,75.38v-166.28Z"/>
    <path class="cls-1" d="m92.43,270.97c0-23.13,13.1-43.34,32.47-54.03v-25.49h-52.9v167.58c5.43,1.2,10.8,1.82,15.93,1.82,17.68,0,27.7-3.57,36.96-7.11v-28.74c-19.37-10.69-32.47-30.9-32.47-54.03Z"/>
    <path class="cls-2" d="m156.44,208.84c9.44,0,18.39,2.01,26.47,5.58v-22.98h-52.9v22.96c8.06-3.57,17.01-5.57,26.43-5.57Z"/>
    <path class="cls-2" d="m156.44,333.09c-9.42,0-18.37-2-26.43-5.57v24.28c7.33-2.7,14.99-4.96,26.43-4.96s19.12,2.27,26.47,4.97v-24.31c-8.07,3.57-17.03,5.58-26.47,5.58Z"/>
    <path class="cls-1" d="m188,191.44v25.51c19.35,10.7,32.43,30.89,32.43,54.01s-13.09,43.31-32.43,54.01v28.77c9.26,3.53,19.28,7.09,36.93,7.09,5.13,0,10.5-.61,15.93-1.82v-167.58h-52.87Z"/>
    <path class="cls-2" d="m282.85,191.44h-36.88v166.28c29.49-8.52,58.96-34.34,58.96-75.38,0-25.87-12.2-57.39-22.09-90.9Z"/>
    <path class="cls-1" d="m281.37,186.34c-4.53-15.88-8.39-32.16-10.05-48.45H41.56c-1.66,16.29-5.52,32.57-10.05,48.45h249.86Z"/>
    <g>
      <path class="cls-5" d="m44.8,149.65h4.5v14.71c0,2.29.06,3.77.17,4.47.2,1.2.67,2.12,1.42,2.78s1.74.98,2.96.98c1.04,0,1.89-.23,2.55-.69.66-.46,1.11-1.11,1.35-1.93.24-.82.36-2.58.36-5.29v-15.03h4.5v14.27c0,3.64-.2,6.28-.58,7.9-.39,1.62-1.27,2.94-2.64,3.95-1.37,1.01-3.17,1.51-5.41,1.51s-4.15-.42-5.45-1.25c-1.31-.83-2.25-2.01-2.84-3.52-.59-1.51-.88-4.3-.88-8.37v-14.49Z"/>
      <path class="cls-5" d="m66.01,176.84v-5.19h4.31v5.19h-4.31Z"/>
      <path class="cls-5" d="m73.52,149.65h8.21c2.08,0,3.64.23,4.7.7,1.06.46,2.03,1.25,2.92,2.35.89,1.1,1.59,2.53,2.09,4.28.51,1.76.76,3.94.76,6.55,0,2.35-.27,4.39-.8,6.13-.53,1.74-1.21,3.11-2.02,4.13-.82,1.01-1.8,1.78-2.96,2.29-1.16.51-2.64.77-4.46.77h-8.45v-27.19Zm4.5,4.62v17.94h3.38c1.45,0,2.5-.13,3.15-.41.65-.27,1.18-.68,1.6-1.23.41-.55.76-1.41,1.03-2.6.27-1.18.41-2.74.41-4.67s-.14-3.59-.42-4.75c-.28-1.16-.71-2.07-1.3-2.73-.59-.66-1.3-1.1-2.14-1.31-.63-.16-1.85-.24-3.66-.24h-2.04Z"/>
      <path class="cls-5" d="m94.73,176.84v-5.19h4.31v5.19h-4.31Z"/>
      <path class="cls-5" d="m109.69,176.84v-27.19h7.23c2.69,0,4.45.13,5.28.39,1.32.42,2.41,1.32,3.27,2.69.86,1.37,1.29,3.14,1.29,5.31,0,1.97-.37,3.61-1.11,4.94-.74,1.33-1.67,2.26-2.78,2.8-1.11.54-3.02.81-5.74.81h-2.94v10.25h-4.5Zm4.5-22.56v7.69h2.49c1.67,0,2.8-.12,3.4-.35.6-.23,1.09-.66,1.47-1.27.38-.61.58-1.36.58-2.25s-.2-1.66-.59-2.27-.88-1.03-1.46-1.24c-.58-.21-1.81-.31-3.69-.31h-2.19Z"/>
      <path class="cls-5" d="m128.38,163.41c0-3.23.48-5.9,1.44-7.99.96-2.09,2.21-3.65,3.76-4.67,1.54-1.02,3.42-1.54,5.62-1.54,3.19,0,5.79,1.22,7.8,3.65,2.01,2.43,3.01,5.89,3.01,10.38s-1.06,8.09-3.19,10.64c-1.87,2.26-4.4,3.39-7.6,3.39s-5.77-1.12-7.64-3.35c-2.13-2.55-3.19-6.06-3.19-10.51Zm4.62-.19c0,3.12.59,5.46,1.79,7.02,1.19,1.56,2.67,2.34,4.43,2.34s3.24-.77,4.41-2.32c1.17-1.55,1.75-3.93,1.75-7.13s-.57-5.47-1.7-6.97c-1.13-1.5-2.62-2.26-4.46-2.26s-3.33.76-4.49,2.28c-1.15,1.52-1.73,3.87-1.73,7.05Z"/>
      <path class="cls-5" d="m152.29,149.65h8.94c2.44,0,4.16.22,5.15.66.99.44,1.83,1.22,2.51,2.34.68,1.12,1.02,2.38,1.02,3.8,0,1.3-.29,2.48-.87,3.53-.58,1.05-1.34,1.83-2.26,2.33,1.31.47,2.34,1.28,3.08,2.42.74,1.14,1.11,2.54,1.11,4.18,0,1.99-.48,3.67-1.43,5.04-.95,1.37-2.08,2.22-3.38,2.54-.9.22-3,.34-6.29.34h-7.59v-27.19Zm4.5,4.62v6.06h2.98c1.79,0,2.89-.03,3.31-.09.77-.12,1.37-.43,1.8-.94.43-.51.65-1.19.65-2.07,0-.77-.18-1.4-.53-1.89-.35-.48-.78-.78-1.29-.9-.5-.12-1.95-.18-4.33-.18h-2.61Zm0,10.69v7.25h4.19c1.84,0,3.01-.09,3.54-.29.52-.19.96-.57,1.31-1.13.35-.56.53-1.27.53-2.14s-.19-1.62-.57-2.19c-.38-.57-.88-.97-1.51-1.18-.63-.22-1.91-.32-3.84-.32h-3.65Z"/>
      <path class="cls-5" d="m173.69,176.84v-27h4.5v22.37h11.19v4.62h-15.69Z"/>
      <path class="cls-5" d="m191.51,176.84v-27.19h16.5v4.62h-12v6h11.12v4.56h-11.12v7.37h12.44v4.62h-16.94Z"/>
      <path class="cls-5" d="m211.08,176.84v-27.19h4.37l9.13,18.16v-18.16h4.19v27.19h-4.52l-8.98-17.73v17.73h-4.19Z"/>
      <path class="cls-5" d="m231.16,167.9l4.37-.5c.49,3.46,2.1,5.19,4.83,5.19,1.35,0,2.42-.35,3.19-1.06.77-.71,1.16-1.58,1.16-2.63,0-.61-.14-1.14-.41-1.57-.27-.43-.68-.78-1.24-1.06s-1.9-.74-4.04-1.39c-1.92-.57-3.32-1.2-4.21-1.88-.89-.68-1.6-1.57-2.12-2.67-.53-1.1-.79-2.29-.79-3.56,0-1.48.34-2.81,1.01-3.99.67-1.18,1.61-2.08,2.79-2.68s2.65-.91,4.4-.91c2.62,0,4.67.71,6.14,2.14,1.47,1.42,2.25,3.46,2.34,6.11l-4.5.25c-.2-1.46-.62-2.48-1.27-3.06-.65-.58-1.58-.87-2.78-.87s-2.13.25-2.78.74c-.65.5-.98,1.11-.98,1.85s.29,1.33.87,1.83c.58.5,1.94,1.05,4.08,1.66,2.26.66,3.89,1.36,4.89,2.08s1.77,1.66,2.3,2.8c.53,1.14.79,2.53.79,4.17,0,2.36-.72,4.35-2.17,5.96-1.45,1.61-3.71,2.41-6.79,2.41-5.45,0-8.48-3.12-9.1-9.37Z"/>
      <path class="cls-5" d="m251.92,176.84v-27.19h16.5v4.62h-12v6h11.12v4.56h-11.12v7.37h12.44v4.62h-16.94Z"/>
    </g>
    <path class="cls-6" d="m153.89,132.79V13.12c-5.95,3.87-21.85,12.72-42.95,12.72-19.5,0-44.5-17-44.5-17l-40,14.5c12.5,32,16,50.5,16,98,0,3.81-.16,7.63-.44,11.45h111.88Z"/>
    <path class="cls-4" d="m98.1,34.68v3.17l-1.33.83h-13.33c-4.24.83-7.67,4.83-7.67,4.83,0,0-8.83,1.83-8.83,5.67,0,0,4.58-1,6.5-1s2.5.5,2.5,1.17-2,2.67-2,2.67c0,0,3.21.21,4,1,.79,1.83-1,5-1,5l1.67-.33s.17.75.17,2c-3.25,2.25-4.83,6.83-4.83,6.83l4.33-1.17s-2.92,5.33-7.17,5.33c-1.25,0-1.83-.83-1.83-.83-5.17-5.17-8.08-15.92-10.17-18-1.46-1.46-2.08-1.83-3.5-1.83-2.83,0-4.67,2.33-4.67,2.33,0,0,3.83.08,3.83,1.67-4.42,2.25-7.5,6.33-7.5,6.33h4.5s.83,1.25.83,2.17c-2.5,2.99-3.17,5-3.17,5,0,0,.67,1.5,3.5,1.5,2.17,0,5-1.17,6.17-1.17s2.5,1,2.5,1c0,0,5.58,10.83,7.33,10.83,1.92,0,2.83-4.33,2.83-4.33v-2.67h1v3.33l-2,5.17,4.67-2.17-.83,3.83,6-1.33v5.17h-.83v-3.83s-10.83,4.5-13.17,4.5c-4.08,0-9.5-7.5-11.67-7.5-2.5,0-4,3.5-4,3.5h2.17s-3.5,2.67-3.5,5.5h5.17v7.33l-1.33,3c6,0,7.11-5.9,7.11-5.9,10.64,0,18.56,2.4,23.89,2.4,1.17,0,2.83-1,2.83-1,0,0,1.42-1.33,2.33-1.33s1.33,1.33,1.33,1.33h3.17v7.83h3.33l3.17,8,2.5-1.5s3.67,5.33,3.67,6.33c0,1.42-1,3-1,3-9.33,1.08-11.83,3.5-11.83,3.5l-1.17,1.67,3.83-.83s.42,2.33,1.67,2.33,2.25-1.83,3.17-1.83,2,1.17,2,1.17h5.33s1.17-1,2.33-1,1.42,1.5,4.33,1.5c1.42,0,3.83-1,3.83-1h3.5l-5-6.83s2.33-.08,2.33-1.17c0-2-2.17-3.5-2.17-4.83,0-4.67,5.83-5.83,5.83-5.83,0,0,5.67,14.33,14.17,14.33,5.25,0,8-3.75,8-8.83,0-12.08-18.67-18.67-18.67-35.17,0-3.92,1.58-6.83,4-6.83,1.75,0,3.67,1.83,3.67,3.67s-4.17,5.75-4.17,10.67c0,6.17,6.17,8.67,6.17,8.67,0,0,2-16,2-18.17,0-6.75-3-8.67-8-8.67-5.67,0-6.83,5.25-6.83,10.83,0,17.08,18.83,29.83,18.83,35.5,0,2.75-1.92,4.42-4.42,4.42-14.75,0-11.92-40.08-33.42-40.08v-1.83h5.83c5.58,0,11.17-6,11.17-6l-2-.5c3.33,0,5-3.67,5-5.17,6.17-1.5,7.33-5.5,7.33-5.5,0,0-6.33,1.33-6,1.33,6-3,11.5-11.17,11.5-11.17l-4.5,1.83s4.42-3.08,5.33-7.33l-5.17,2.5s3.67-4.92,5.33-11.17c-5.08,3.83-8.33,9-8.33,9-8.25,1.08-11.58,4.5-12.67,4.5s-2.33-1.5-4.33-1.5c-3.33,0-8,5.08-8,5.83s2.5,2.42,2.5,3.17-4,3.58-4,4.17,2.67,1.92,2.67,2.67-2.33,3.17-2.33,3.17h-2.33s3.25-2.67,3.25-3.25-3.33-2.83-3.33-3.33,4-2.72,4-3.32-3.25-2.93-3.25-3.6,1.17-2.17,1.17-2.83c0-1.42-3.67-4.17-3.67-5.83,0-1,.83-2.83.83-2.83v-3.83h-3Z"/>
    <path class="cls-2" d="m173.22,20.34c-6.57-2.56-11.47-5.42-14.23-7.22v119.67h14.23V20.34Z"/>
    <path class="cls-4" d="m192.6,25.26c-5.22-.64-10.01-1.78-14.27-3.13v110.66h14.27V25.26Z"/>
    <path class="cls-2" d="m197.7,132.79h14.23V24.59c-3.39.78-6.77,1.25-9.99,1.25-1.44,0-2.85-.05-4.24-.13v107.08Z"/>
    <path class="cls-4" d="m217.03,132.79h14.23V17.45c-4.31,2.1-9.21,4.19-14.23,5.76v109.58Z"/>
    <path class="cls-2" d="m236.36,132.79h14.23V10.35l-4.16-1.51s-4.01,2.73-10.07,6v117.95Z"/>
    <polygon class="cls-4" points="255.7 132.79 269.93 132.79 269.93 17.36 255.7 12.2 255.7 132.79"/>
    <path class="cls-2" d="m275.03,19.21v40.53c2.48-11.85,6.14-22.93,11.4-36.4l-11.4-4.13Z"/>
    <path class="cls-4" d="m138.94,244.59s-11,10-15.5,21.25c0,2.25,2.25,3,2.25,3h28.5v-51.25s-.69-2.23-1.54-4.37c-7.39.45-14.42,2.2-20.84,5.02l7.13,26.35Z"/>
    <path class="cls-4" d="m129.94,237.09c-1.25,0-20.25,20.75-20.25,42.5,0,14.17,6.79,29.29,11.52,38.11,2.82,2,5.83,3.77,8.99,5.27.98-.69,1.73-1.44,1.73-2.13,0-2-15.75-18.5-15.75-40.75,0-18,15.75-36,15.75-39.25,0-1.75-.75-3.75-2-3.75Z"/>
    <path class="cls-4" d="m173.94,244.59s11,10,15.5,21.25c0,2.25-2.25,3-2.25,3h-28.5v-51.25s.69-2.23,1.54-4.37c7.39.45,14.42,2.2,20.84,5.02l-7.13,26.35Z"/>
    <path class="cls-4" d="m182.94,237.09c1.25,0,20.25,20.75,20.25,42.5,0,14.17-6.79,29.29-11.52,38.11-2.82,2-5.83,3.77-8.99,5.27-.98-.69-1.73-1.44-1.73-2.13,0-2,15.75-18.5,15.75-40.75,0-18-15.75-36-15.75-39.25,0-1.75.75-3.75,2-3.75Z"/>
    <path class="cls-4" d="m96.69,270.97c0,13.36,4.69,25.66,12.54,35.46-1.7-8.32-4.29-21.8-4.29-26.83,0-23.25,23.5-47,23.5-51.25,0-1.12-1.31-4.24-2.62-7.08-17.45,10.11-29.13,28.58-29.13,49.7Z"/>
    <path class="cls-4" d="m216.19,270.97c0,13.36-4.69,25.66-12.54,35.46,1.7-8.32,4.29-21.8,4.29-26.83,0-23.25-23.5-47-23.5-51.25,0-1.12,1.31-4.24,2.62-7.08,17.45,10.11,29.13,28.58,29.13,49.7Z"/>
    <path class="cls-4" d="m156.44,296.09c5.25,0,26.75-1,26.75-1,6,0,8.75-1.25,8.75-13.5,0-4.25-.12-7.35-1.5-8.5-1.38-1.15-10,1.5-10,1.5h-48s-8.62-2.65-10-1.5c-1.38,1.15-1.5,4.25-1.5,8.5,0,12.25,2.75,13.5,8.75,13.5,0,0,21.5,1,26.75,1Z"/>
    <path class="cls-4" d="m186.94,300.34c0,6-9,18.5-13.25,18.5-4,0-11-4-17.25-4s-13.25,4-17.25,4c-4.25,0-13.25-12.5-13.25-18.5h61Z"/>
    <path class="cls-4" d="m138.73,326.26c5.59,1.68,11.54,2.58,17.7,2.58s12.11-.91,17.7-2.58c-3.66-2.38-9.47-4.92-17.7-4.92s-14.04,2.54-17.7,4.92Z"/>
  </g>
</svg>