<?xml version="1.0" encoding="UTF-8"?>
<svg id="Layer_2" data-name="Layer 2" xmlns="http://www.w3.org/2000/svg" viewBox="0 0 171.46 378.69">
  <defs>
    <style>
      .cls-1 {
        fill: #353537;
      }

      .cls-1, .cls-2 {
        fill-rule: evenodd;
        stroke-width: 0px;
      }

      .cls-2 {
        fill: #a29368;
      }
    </style>
  </defs>
  <g id="Ebene_1" data-name="Ebene 1">
    <path class="cls-2" d="m39.87,147.37l-1.04,138.16c35.98,9,70.08-1.29,88.73-33.67,4.39-7.62,8.36-16.88,10.69-26.82,4.97-21.21,3.04-55.38-11.46-80.74,15.21.35,28.1,3.55,43.49,12.49.67,13.71.51,25.93.31,36.9-.22,11.97-.57,22.46-1.84,31.76-4.35,31.75-15.37,49.75-33.41,66.42-8.35,7.71-17.98,14-29.68,18.72-17.1,6.9-38.63,10.23-67.08,7.93l-.43,60.19H6.4l.67-247.08c8.92,6.83,19.27,12.38,32.79,15.76Z"/>
    <path class="cls-1" d="m45.1,31.05v11.91s88.39,35.15,88.39,35.15l-.05-8.35,36.89,6.06.91,75.41c-14.85-10.48-31.65-14.32-49.37-14.45-18.13-26.8-46.1-41.83-81.47-46.8l.17,46.81c-12.35-3-24.42-9.78-33.39-17.74V31.05s-7.18,0-7.18,0L26.93.25l25.38,30.79h-7.22Z"/>
    <path class="cls-2" d="m159.27,31.53c1.33.33,2.06.75,2.06,1.3,0,1.7-14.45,4.92-30.03,4.19-15.59-.73-26.96-3.97-26.96-5.67,0-.42.79-.78,2.21-1.06-.86-1.32-1.51-2.81-1.74-4.61l-.55.16c-.73.22-1.52-.2-1.73-.94-.22-.73.2-1.52.94-1.73l.52-.15-3.61-7.82-.07.03c-.6.27-1.06-.71-.45-.98l.06-.03-2.37-5.15-1.46.68-1.18-2.54,1.1-.51.84,1.82,2.05-.95-.84-1.82,1.1-.51.83,1.8,2.03-.94-.83-1.8,1.09-.51,1.18,2.54-1.38.64,3.46,6.69c1.46-.77,3.94-1.5,7.12-2.11l-.89-6.75-1.59.28-.48-2.76,1.2-.21.35,1.98,2.23-.39-.35-1.97,1.19-.21.34,1.95,2.2-.39-.34-1.95,1.19-.21.48,2.76-1.5.26,1.5,6.78c3.68-.44,7.85-.72,12.22-.79l.31-7.13h-1.61V0h1.22v2.01h2.26V0h1.21v1.98h2.23V0h1.21v2.8h-1.53l.31,7.17c3.87.11,7.55.38,10.88.78l1.5-6.8-1.5-.26.49-2.76,1.19.21-.34,1.95,2.2.39.34-1.95,1.19.21-.35,1.97,2.23.39.35-1.98,1.2.21-.49,2.76-1.59-.28-.89,6.78c3.46.66,6.29,1.48,8.22,2.4l3.63-7.02-1.38-.64,1.18-2.54,1.09.51-.83,1.8,2.03.94.83-1.8,1.1.51-.84,1.82,2.05.95.84-1.82,1.1.51-1.18,2.54-1.47-.68-2.51,5.15.06.03c.61.28.15,1.25-.45.98l-.09-.04-3.85,7.89.32.1c.73.22,1.16,1,.94,1.73-.22.73-1,1.16-1.73.94l-.18-.05c-.29,2.08-1.06,3.9-2.06,5.74Z"/>
  </g>
</svg>