<?xml version="1.0" encoding="UTF-8"?>
<svg id="Layer_2" data-name="Layer 2" xmlns="http://www.w3.org/2000/svg" viewBox="0 0 266.71 323.92">
  <defs>
    <style>
      .cls-1 {
        fill: #f4b916;
      }

      .cls-1, .cls-2, .cls-3, .cls-4, .cls-5, .cls-6, .cls-7, .cls-8, .cls-9, .cls-10, .cls-11, .cls-12, .cls-13, .cls-14, .cls-15, .cls-16, .cls-17, .cls-18, .cls-19, .cls-20, .cls-21, .cls-22, .cls-23, .cls-24, .cls-25, .cls-26, .cls-27, .cls-28, .cls-29, .cls-30, .cls-31, .cls-32 {
        stroke-width: 0px;
      }

      .cls-2 {
        fill: #f3b916;
      }

      .cls-3 {
        fill: #f9e7b2;
      }

      .cls-4 {
        fill: #271950;
      }

      .cls-5 {
        fill: #261851;
      }

      .cls-6 {
        fill: #231651;
      }

      .cls-7 {
        fill: #221552;
      }

      .cls-8 {
        fill: #c8221b;
      }

      .cls-9 {
        fill: #bf1a1e;
      }

      .cls-10 {
        fill: #c51a1c;
      }

      .cls-11 {
        fill: #c4171c;
      }

      .cls-12 {
        fill: #73543a;
      }

      .cls-13 {
        fill: #c4161c;
      }

      .cls-14 {
        fill: #664a3e;
      }

      .cls-15 {
        fill: #edb418;
      }

      .cls-16 {
        fill: #f2b416;
      }

      .cls-17 {
        fill: #eeb71c;
      }

      .cls-18 {
        fill: #eeb31b;
      }

      .cls-19 {
        fill: #eeb41b;
      }

      .cls-20 {
        fill: #eeb51b;
      }

      .cls-21 {
        fill: #eeb61b;
      }

      .cls-22 {
        fill: #e9b119;
      }

      .cls-23 {
        fill: #fae6b1;
      }

      .cls-24 {
        fill: #edb61c;
      }

      .cls-25 {
        fill: #edaf1b;
      }

      .cls-26 {
        fill: #fae8b6;
      }

      .cls-27 {
        fill: #e6b11d;
      }

      .cls-28 {
        fill: #ebb41c;
      }

      .cls-29 {
        fill: #ebb51c;
      }

      .cls-30 {
        fill: #ecb61c;
      }

      .cls-31 {
        fill: #eab41c;
      }

      .cls-32 {
        fill: #e89017;
      }
    </style>
  </defs>
  <g id="Ebene_1" data-name="Ebene 1">
    <path class="cls-17" d="m266.49,122.77c-.02.98-.02,1.97-.07,2.95-.25,5.61-.82,11.19-1.52,16.77-1.4,11.09-3.71,21.99-6.82,32.72-2.75,9.49-6.09,18.77-10.13,27.8-1.61,3.59-3.23,7.17-5,10.68-6.72,13.32-14.61,25.92-23.69,37.77-4.24,5.53-8.65,10.93-13.37,16.06-3.78,4.11-7.63,8.17-11.64,12.06-8.24,8.01-16.98,15.44-26.2,22.3-10.23,7.61-20.91,14.55-32.08,20.71-.7.39-1.4.79-2.15,1.26-.17.07-.29.07-.5.07-1.67-.92-3.25-1.84-4.83-2.74-13.89-7.93-27.07-16.9-39.42-27.07-5.42-4.46-10.71-9.06-15.69-14.01-3.49-3.47-7.01-6.9-10.36-10.5-6.97-7.5-13.45-15.42-19.43-23.73-6.12-8.5-11.69-17.35-16.63-26.59-5.23-9.79-9.79-19.88-13.56-30.33-2.89-8.03-5.34-16.2-7.31-24.51-1.56-6.6-2.88-13.25-3.71-19.99-.5-4.07-.97-8.14-1.33-12.22-.29-3.2-.4-6.41-.65-9.83-.07-1.86-.06-3.5-.1-5.14C.29,116.84.1,116.44,0,116.03c0-29.82,0-59.64.1-89.61,7.48-2.95,14.82-5.9,22.27-8.53,10.23-3.62,20.67-6.56,31.24-9.05,9.47-2.22,19-4.13,28.64-5.39,5.96-.78,11.94-1.46,17.91-2.11,3.14-.34,6.3-.56,9.46-.76,2.58-.17,5.17-.23,7.88-.33,1.28,0,2.44.03,3.6,0,.37-.01.74-.17,1.11-.26,4.75,0,9.5,0,14.45.08,1.76.11,3.33.14,5.01.19,1.37.09,2.61.15,3.86.22,4.58.28,9.18.45,13.75.87,5.5.5,10.99,1.11,16.47,1.83,5.61.74,11.23,1.5,16.79,2.55,7.8,1.47,15.58,3.09,23.31,4.88,12.36,2.87,24.52,6.45,36.56,10.46,4.79,1.59,9.53,3.3,14.3,4.96,0,30.45,0,60.89-.09,91.54-.1,1.86-.12,3.52-.14,5.18M131.08,5.42c-3.08.05-6.17.06-9.25.16-4.47.15-8.94.3-13.4.58-4.28.27-8.56.6-12.82,1.07-5.54.62-11.08,1.36-16.6,2.14-7.74,1.1-15.4,2.66-23.01,4.43-15.56,3.63-30.78,8.39-45.66,14.21-1.57.61-3.12,1.27-4.7,1.91v1.87c0,26.77,0,53.53,0,80.3,0,3.62.09,7.24.22,10.86.11,3.04.27,6.07.55,9.1.37,4.04.83,8.08,1.34,12.11.79,6.21,1.99,12.34,3.42,18.43,1.83,7.8,4.07,15.47,6.75,23.01,3.22,9.08,7.02,17.89,11.38,26.48,5.47,10.8,11.78,21.08,18.86,30.89,6.45,8.94,13.48,17.4,21.08,25.37,4.63,4.86,9.43,9.55,14.44,14.03,5.44,4.86,11.05,9.51,16.86,13.93,7.48,5.7,15.25,10.97,23.28,15.86,2.44,1.49,4.95,2.85,7.56,4.42.7.4,1.39.79,2.09,1.19.45-.23.85-.43,1.23-.65,27.47-15.49,51.71-34.92,72.2-58.95,12.42-14.57,22.99-30.39,31.53-47.53,10.2-20.48,17.15-42.01,20.55-64.66,1.51-10.06,2.35-20.17,2.36-30.34.02-28.06,0-56.13,0-84.19v-1.5c-.56-.22-1.05-.43-1.55-.61-13.99-4.97-28.18-9.31-42.6-12.86-9.64-2.37-19.34-4.47-29.14-6.02-5.65-.9-11.31-1.74-16.99-2.44-5.19-.64-10.4-1.11-15.62-1.56-3.61-.31-7.23-.54-10.85-.68-4.42-.17-8.85-.21-13.53-.35Z"/>
    <path class="cls-26" d="m0,116.16c.1.28.29.69.3,1.1.04,1.64.03,3.28.04,5.05-.05.13-.11.15-.25.17C0,120.41,0,118.35,0,116.16Z"/>
    <path class="cls-23" d="m266.54,122.77c-.04-1.66-.02-3.32.08-5.05.09,1.54.09,3.16.09,4.9,0,.13-.11.15-.16.15Z"/>
    <path class="cls-3" d="m117.49.26c-.13,0-.12-.14-.12-.2,1.53-.06,3.05-.06,4.71-.06-.25.09-.61.25-.99.26-1.16.03-2.32.02-3.6,0Z"/>
    <path class="cls-3" d="m141.42,0c.13,0,.12.13.13.19-1.56.04-3.12,0-4.76-.11,1.45-.08,2.98-.08,4.63-.08Z"/>
    <path class="cls-13" d="m131.26,316.44c-2.48-1.42-4.99-2.79-7.44-4.27-8.03-4.89-15.8-10.16-23.28-15.86-5.8-4.42-11.42-9.07-16.86-13.93-5.01-4.48-9.81-9.17-14.44-14.03-7.6-7.98-14.63-16.43-21.08-25.37-7.08-9.82-13.39-20.1-18.86-30.89-4.35-8.59-8.16-17.4-11.38-26.48-2.68-7.55-4.92-15.22-6.75-23.01-1.43-6.09-2.63-12.22-3.42-18.43-.51-4.03-.97-8.07-1.34-12.11-.28-3.02-.44-6.06-.55-9.1-.13-3.62-.22-7.24-.22-10.86-.02-26.77,0-53.53,0-80.3v-1.87c1.58-.64,3.13-1.29,4.7-1.91,14.88-5.82,30.1-10.58,45.66-14.21,7.61-1.77,15.27-3.33,23.01-4.43,5.52-.78,11.06-1.52,16.6-2.14,4.26-.48,8.54-.81,12.82-1.07,4.46-.28,8.93-.43,13.4-.58,3.08-.1,6.17-.11,9.37-.02.12,4.85.12,9.57.02,14.3-1.28.15-2.4.43-3.33,1.2-1.41,1.16-1.99,2.67-1.98,4.49.02,8.45,0,16.9.01,25.35,0,.35.05.69.09,1.11h3.47v-6.85c.71,0,1.27,0,1.84.12,0,12.26,0,24.4-.08,36.59-1.65.6-2.82,1.67-3.87,2.93-.51.62-1.09,1.19-1.6,1.8-.44.52-.97.71-1.65.68-1.12-.05-2.24-.04-3.36,0-1.43.05-2.11.73-2.25,2.12-.03.25-.09.5-.16.89-.84,0-1.65-.06-2.44.01-1.45.13-2.75-.16-3.84-1.18-.05-.04-.17,0-.26,0-.05.35-.09.7-.15,1.19h-5.31v5.88c.68-.51,1.28-.95,1.89-1.38.01.01.04.04.04.15-.11.44-.21.79-.33,1.12-.91,2.52-.99,5.07-.22,7.62.53,1.73,1.29,3.35,2.9,4.36.41.26.93.36,1.28.48.53-1.3.86-2.47,1.45-3.5.91-1.57,2.37-2.52,4.22-2.34,1.88.18,2.96,1.51,3.57,3.23.06.17.15.34.15.51.02,1.42.21,2.88-.02,4.26-.36,2.22-2.2,2.78-3.99,1.38-.41-.32-.82-.64-1.2-.94-1.97,1.6-2.42,4.93-1.54,6.72.33.67.42,1.24.21,2.01-.54,1.96.43,3.81,2.33,4.57.89.36,1.86.5,2.8.75,1.04-5.08,1.98-6.41,4.61-6.41.18.51.38,1.06.59,1.62.79-.85,1.3-1.97,2.73-2.1,0,.61.03,1.15,0,1.68-.05.75-.15,1.5-.26,2.25-.02,0,0-.01.11-.04,1.24-.76,2.23-1.68,3-2.83.16-.24.43-.4.65-.48.01,1.9.02,3.68-.06,5.51-1.93.56-3.77,1.14-5.63,1.57-3.3.77-6.65,1.38-9.81,2.67-8.27,3.38-13.67,9.38-16.2,17.94-1.04,3.51-1.11,7.13-1.08,10.76.01,1,0,2,0,3,.35-.14.47-.32.59-.49,1.26-1.9,2.47-3.83,3.8-5.68,1.5-2.09,3.32-3.86,5.58-5.15.56-.32,1.1-.74,1.9-.7-.43,1.42-1.43,2.52-1.63,4.14.36-.22.52-.28.64-.4,3.99-3.7,8.81-5.71,14.05-6.82.53-.11,1.15-.01,1.69.13.62.16.93.71.99,1.32.07.63-.26,1.12-.83,1.41-.27.14-.56.23-.89.36.45.67,1.12.81,1.77.88,1.55.16,2.9-.35,4.06-1.38.36-.32.72-.64,1.08-.83,0,1.24,0,2.36-.13,3.5-3.12,0-6.1.21-9.04.89-7.58,1.76-13.69,5.75-18.4,11.94-.89,1.17-1.28,2.71-2.56,3.55-1.23.8-2.56,1.46-3.85,2.18-.39.22-.77.45-1.16.67-.3.16-.62.31-.97.48-.53-.73-1.01-1.41-1.6-2.23-.46,1.62-.87,3.02-1.27,4.43-.51-3.72-2.76-6.12-5.64-8.45.15,3.43.06,6.53-1.13,9.71-.24-.72-.4-1.2-.56-1.68-.26.58-.33,1.14-.39,1.71-.13,1.35-.31,2.76-1.27,3.75-1.17,1.21-2.75,1.88-4.22,2.79-.2-.42-.33-.66-.43-.9-.78-1.99-1.99-3.69-3.4-5.27-1.56-1.75-3.48-2.77-5.87-2.8-.98-.01-1.97.03-2.95-.04-1.45-.11-2.73.36-3.99.96-.84.4-1.41,1.06-1.81,1.9-.69,1.49-.82,3.06-.3,4.57.56,1.64,1.33,3.22,2.1,4.77.96,1.93,1.95,3.83,2.4,5.95.2.95.33,1.91.49,2.9.36.06.66.14.96.17,3.68.36,6.89,1.79,9.68,4.19,1.01.87,1,.89,2.14.14,3.29-2.17,6.74-4.06,10.27-5.81.66-.33,1.22-.35,1.9-.07,2.41,1,4.45,2.46,6.02,4.56.22.3.49.57.83.95,0-.45.02-.72,0-.98-.37-4.72,2.76-9.88,8.41-11.06,1.53-.32,3.06-.63,4.58-1.01,4.58-1.15,7.99-3.86,10.36-7.91.15-.25.3-.5.45-.75-.34,4.2-2.32,7.44-5.84,9.94,2.11.9,4.24,1.34,6.16,2.28l-.04.33c-1.15.17-2.3.35-3.6.54.29.21.45.35.63.46,2.66,1.59,5.59,2.33,8.65,2.63,1.46.14,2.92.27,4.38.53-.01,2.34-.02,4.54-.15,6.76-.93-.02-1.73-.04-2.53-.07-4.03-.15-7.54,1.2-10.59,3.76-1.08.9-2.07,1.92-3.13,2.91-.99-1.14-1.78-2.44-3.27-3.38.5,2.61.45,5.03.27,7.76-.57-.41-.86-.65-1.18-.85-1.27-.8-2.56-1.58-3.85-2.42-.05-.05-.08-.06-.11-.07.04.04.09.08.1.22.1.43.22.77.34,1.1.82,2.17,1.68,4.33,2.44,6.52.54,1.56.78,3.18.83,4.86.08,2.72.3,5.44.95,8.1.42,1.73.87,3.45,1.3,5.17-1.4.94-2.65.82-3.83-.38-.37-.38-.72-.89-1.39-.94-.14.96.55,1.91-.26,2.91-1.63-1.34-2.59-3.09-3.43-5.04-.47,1.87-.22,3.67-.78,5.6-.63-.94-1.1-1.64-1.67-2.5-.12.94-.21,1.64-.3,2.35h-2.1c-.82-2.22-2.02-4.16-3.43-5.96-2.52-3.21-5.71-5.08-9.89-5.02-1.48.02-2.2.48-2.38,1.97-.26,2.26-.5,4.54-.44,6.8.06,2.23.57,4.42,1.42,6.51.75,1.85,1.39,3.75,2.09,5.68,5.83,0,8.41,3.81,10.05,8.83,8.05-5.41,17.01-6.32,26.27-6.4-.07,1.2-.12,2.2-.2,3.48.46-.49.71-.78.98-1.05,1.47-1.47,3.08-2.58,5.33-2.23.83.13,1.69.08,2.54.23,0,22.69,0,45.26-.01,67.83,0,.62-.03,1.25-.05,1.87m-38.69-199.95c2.85-2.34,5.9-2.77,9.21-1.02.55.29,1.13.56,1.73.71,1.02.26,2.12.38,2.91-.46.99-1.05,2.17-1.27,3.51-1.29.53,0,1.2-.23,1.55-.6.74-.77,1.34-1.67,1.92-2.57.26-.4.64-.9.08-1.56-.4.35-.76.65-1.12.97-1.27,1.12-2.69,2-4.42,1.99-1.14,0-2.3-.24-3.42-.48-1.48-.32-2.93-.81-4.41-1.1-2.2-.43-4.16.08-5.76,1.74-.98,1.01-1.77,2.12-2.4,3.56.01.16.03.31.04.47.14-.09.27-.17.57-.35m-17.51,21.05c.44.31.85.66,1.32.92,2.24,1.28,3.7,3.19,4.56,5.59.41,1.14.78,2.29,1.25,3.39.58,1.35,1.22,2.68,1.88,3.99.2.4.58.71,1.04,1.25-.22-3.46,2.44-5.37,5.03-5,1.05.15,2.09.42,3.11.72.76.22,1.47.58,2.2.87.21-1.5.32-2.92.61-4.31.8-3.79,2.73-7.06,4.89-10.21.26-.38.49-.79.79-1.28-1.26-.51-2.36-.95-3.52-1.42.33-.6.63-1.05.83-1.54.19-.46.27-.97.4-1.49-.68-.08-1.18-.14-1.76-.2.21-1,.45-1.86.55-2.74.09-.85.02-1.72.02-2.77-2.32,3.15-3.94,4.06-6.04,3.45.14-.57.29-1.15.45-1.8-1.33.67-2.51,1.26-3.67,1.85-2.7-2.08-4.98-4.33-6.93-6.91-.38-.5-.91-.88-1.51-1.44-.06-.89-.16-2-.21-3.12-.19-4.59-1.29-8.92-3.73-12.85-1.31-2.11-2.83-4.02-5.06-5.25-.87-.48-1.69-.72-2.64-.16-.65.39-1.39.6-2.07.94-2.22,1.11-3.15,2.83-2.7,5.25.27,1.44.66,2.88,1.21,4.23.94,2.35,1.63,4.7,1.62,7.27-.01,1.46.17,2.94.88,4.29.25.48.56.75,1.09.88,1.76.42,3.13,2.17,3.18,4.01-.58.1-1.16.2-1.82.31.34.72.59,1.24.98,2.06-1.47-.7-2.64-.92-3.9-.08.9.8,1.75,1.51,2.56,2.25,1.58,1.45,2.86,3.13,3.12,5.32.18,1.48.75,2.64,2.01,3.7m26.96-97.11v12.97c1.26-.11,2.34-.21,3.56-.32,0-.53,0-.96,0-1.4,0-8.14,0-16.28,0-24.42,0-.36,0-.72-.02-1.07-.2-2.79-1.92-4.46-4.7-4.41-1.65.03-3.29.24-4.94.4-.69.06-1.38.18-2.04.27-.27,2.43-.16,30.78.13,31.79,1.12-.13,2.25-.27,3.49-.42v-28.44c.82-.12,1.51-.28,2.22-.33,1.19-.08,1.84.41,2.1,1.6.13.6.19,1.24.19,1.86.02,3.89,0,7.78,0,11.94m-53.26-8.15c-.87,1.36-1.2,2.87-1.2,4.47,0,6.71,0,13.43.01,20.14,0,.71.08,1.43.25,2.12.41,1.75,1.67,2.72,3.45,2.82,4.23.23,8-2.98,7.9-7.55-.16-6.8-.04-13.61-.04-20.41,0-.45.01-.9-.04-1.34-.27-2.18-1.8-3.54-3.99-3.53-2.57.02-4.69,1-6.33,3.28m-16.73,29.1v5.78c1.33-.41,2.46-.76,3.65-1.13v-13.05c.7-.22,1.33-.43,1.96-.61,2.72-.77,4.74-2.29,5.45-5.16.2-.82.33-1.67.35-2.51.05-2.19.06-4.38,0-6.57-.03-.92-.2-1.87-.49-2.75-.45-1.36-1.47-2.1-2.95-2.07-.4,0-.82-.05-1.2.05-2.23.6-4.46,1.25-6.76,1.9,0,8.7,0,17.28,0,26.13m86.44-12.3h-4.64c.07-.4.11-.75.2-1.08.6-2.01,1.21-4.02,1.84-6.02,1.77-5.72,3.56-11.43,5.32-17.15.16-.53.28-1.18.13-1.69-.27-.93-.75-1.79-1.11-2.63-2.12-.18-8.6.23-9.98.63v3c2.5.12,4.93-.52,7.42-.15-.06.33-.08.59-.15.84-.5,1.67-1,3.34-1.51,5-1.94,6.27-3.88,12.54-5.81,18.82-.11.37-.23.82-.12,1.15.31.97.74,1.89,1.1,2.76,2.59.21,9.47-.24,10.42-.68,0-.94.2-1.91-.21-2.98-.89.04-1.77.08-2.9.17m-30.69-11.12c.17-.53.34-1.06.57-1.78-1.76.22-3.33.41-4.89.6-.28-1.5-.23-8.71.07-9.78,1.93-.27,3.9-.55,5.87-.83v-3.28c-3.25.46-6.41.91-9.56,1.36v31.84c3.26-.47,6.42-.93,9.54-1.38v-3.22c-2.07.26-4.02.5-6.02.75v-12c1.28-.2,2.5-.4,3.78-.61.19-.5.38-.99.64-1.68m-16.58,14.55v-23.45c1.51-.29,2.85-.55,4.15-.81v-3.29c-4.04.77-7.96,1.51-11.85,2.25v3.22c1.4-.23,2.7-.44,4.17-.67v28.48c1.26-.25,2.34-.46,3.53-.7,0-1.65,0-3.2,0-5.03m37.43,100.16s.03-.03,0,0m-16.84-35.43l-.08-.04s.01.1.08.04Z"/>
    <path class="cls-7" d="m131.31,81.82c0-12.14,0-24.28.13-36.56.92-.14,1.71-.14,2.62-.14v6.89h3.59c.02-.47.06-.87.06-1.26,0-8.23,0-16.47,0-24.7,0-.62-.06-1.25-.18-1.86-.4-2.08-1.65-3.45-3.69-4.01-.81-.22-1.68-.23-2.52-.33,0-4.71,0-9.42,0-14.26,4.43-.02,8.86.01,13.28.18,3.62.14,7.24.37,10.85.68,5.21.45,10.43.92,15.62,1.56,5.68.7,11.34,1.55,16.99,2.44,9.81,1.56,19.51,3.65,29.14,6.02,14.42,3.55,28.61,7.89,42.6,12.86.5.18.99.39,1.55.61v1.5c0,28.06.01,56.13,0,84.19,0,10.17-.85,20.28-2.36,30.34-3.4,22.65-10.35,44.18-20.55,64.66-8.54,17.15-19.11,32.96-31.53,47.53-20.49,24.03-44.74,43.46-72.2,58.95-.39.22-.78.41-1.23.65-.7-.4-1.39-.79-2.15-1.26-.04-.7-.01-1.32-.01-1.95,0-22.57,0-45.14.14-67.85,1.87-.14,3.62-.05,5.36-.16,2.76-.16,5.63-2.56,6.45-5.23-.04-.01-.09-.05-.12-.04-.43.11-.86.23-1.3.34-2.45.63-4.5-.06-6.18-1.91-1.26-1.39-2.1-3.01-2.44-4.86-.87-4.73.46-8.84,3.6-12.41.29-.33.71-.54,1.03-.76-2.8-7.45-3.18-14.79-1.24-22.31-.54-.14-.96-.28-1.39-.36-1.31-.27-2.62-.52-3.93-.77,0-2.21.02-4.41.13-6.72,2.6,1.27,5.09,2.65,7.61,4.04.34-.28.68-.57,1.02-.85,1.98-1.61,4.1-2.99,6.66-3.82.23.06.32.08.34.17-.2.11-.35.13-.44.21-3.11,2.81-5.32,6.21-6.68,10.18-1.13,3.31-1.23,6.63-.35,10.02,1.39,5.37,4.16,9.95,7.95,13.93,1.23,1.28,1.64,2.71,1.51,4.38-.16,2.07-.94,2.95-2.94,3.32-.02-.04-.06-.03-.09-.02.04.01.07.03.11.14,3.62,3.98,7.92,4.32,13.3,1.14,2.07.83,4.14,1.65,6.25,2.5-.05.42-.16.82-.13,1.21.08,1.07-.5,1.73-1.27,2.36-1.27,1.03-2.66,1.81-4.2,2.33-.32.11-.62.24-.94.36.96.45,1.9.75,2.87.86.94.11,1.91.02,2.87.02.02.05.05.11.07.16-1.01.44-2.03.88-3.25,1.41,1.03.43,1.84.78,2.62,1.1,0,.16.02.26,0,.34-1.48,4.33-3.56,8.39-5.55,12.49-.52,1.07-1.34,1.77-2.68,1.55-.43-.07-.89,0-1.34.03-2.92.19-5.79.59-8.46,1.85-3.03,1.43-5.33,3.59-6.43,6.84-.28.83-.58,1.68-.31,2.68.6.03,1.17.07,1.75.09,2.77.07,5.55.18,8.32.19,7.43.03,14.85.03,22.28.03.33,0,.67-.12,1.05-.19-.05-.45-.1-.8-.14-1.15-.22-2.15-.26-4.29.43-6.38.84-2.52,2.42-4.37,5.03-5.15.62-.19,1.29-.21,2.06-.32-1.05-3.25-2.28-6.43-1.88-10.04,2.06-.17,3.98-.34,6.05-.51-1.24-1.16-2.5-2.16-3.35-3.74.91.08,1.63.15,2.47.23-.21-.53-.4-.89-.5-1.27-.27-.99-.53-1.98-.76-2.98-.16-.71.07-1.28.66-1.76,1.14-.94,2.25-1.91,3.34-2.91,3.15-2.89,3.49-6.74,3.74-10.77-3.5.82-6.88,1.25-10.31.59.06-.46.1-.8.14-1.12-.33-.05-.56-.08-.87-.12.48-1.32.5-2.58.31-4.06-.69,1.06-1.15,2.05-2.27,2.41-.06-.31-.11-.56-.16-.78-.3-.04-.53-.07-.81-.11.32-.64.58-1.16.85-1.72-1.18.1-2.23.19-3.2.27-2.42-4.9-2.15-10.92.8-13.5,3.12.54,6.27.89,9.46.48,2.13-.28,4.3-.53,6.14-1.75,3.86-2.57,6.49-6.1,7.21-10.7.43-2.76.3-5.61.31-8.43,0-2.88-.85-5.55-2.32-8.02-1.43-2.41-3.29-4.46-5.29-6.39-.34-.33-.68-.67-.99-.98.72-1.43,1.42-2.71,1.7-4.3h-2.9c3.46-2.11,4.64-3.58,4.7-5.82-3.04,2.3-6.31,3.28-10.09,2.04.28-1.01.53-1.92.86-3.09-.63.34-.97.53-1.32.71-1.05.54-2.16.84-3.35.84-.58,0-1.06-.15-1.38-.65-.76-1.21-1.69-2.34-2.24-3.64-1.27-3.04-1.22-6.11.36-9.06.93-1.75,2.45-2.62,4.42-2.46,4.06.34,6.68,1.55,5.6,7.25-.04.22-.05.45-.09.9,1.18-.9,1.94-1.82,2.45-2.92.51-1.11.91-2.27,1.43-3.61.97.9,1.82,1.69,2.73,2.54-.2-2.09-.77-3.98-1.89-5.62-.68-1-1-2.04-1.21-3.19-.23-1.27-.61-2.52-.92-3.77-.07-.28-.13-.57-.18-.79,1.19-.44,2.3-.78,3.36-1.24,4.28-1.89,6.87-5.44,9.12-9.41.05-.11.04-.18.04-.24-.07.05-.15.1-.32.17-5.37,2.83-10.65,5.65-16.93,6.09.25-.68.45-1.24.66-1.8-1.34,1.15-2.84,1.81-4.51,2.02-1.02.13-2.05.11-3.08.1-.62,0-1.09.15-1.54.61-2.51,2.54-4.58,5.37-6.07,8.62-2.02,4.39-2.51,9.01-1.93,13.76.28,2.3,1.51,4.17,2.8,6.01,2.95,4.19,6.53,7.82,10.05,11.52,2.47,2.59,4.85,5.26,7.21,7.95,1.16,1.33,1.92,2.9,2.3,4.64.79,3.6.62,7.17-.32,10.74-.17-.35-.21-.73-.3-1.09-.29-1.07-.47-2.2-.92-3.2-.81-1.8-2.22-3-4.16-3.52-2.33-.63-4.55.51-5.27,2.72-.29.89-.38,1.8.19,2.71.31-.29.56-.55.84-.76,1.64-1.26,3.77-.69,4.53,1.23.44,1.11.38,2.22-.44,3.15-.88,1.01-2,1.5-3.36,1.18-1.13-.27-2.01-.96-2.81-1.76-1.29-1.3-2.51-2.68-3.84-3.94-.82-.78-1.09-1.68-1.13-2.75-.1-2.52.13-5,.61-7.47.09-.44.1-.9.18-1.59-2.12,1.29-4.01,1.62-6,.22.34-.65.64-1.21.99-1.87-1.13.11-2.04.21-2.99.3-.39-1.69.23-3.09.78-4.62-.65.15-1.15.29-1.67.37-1.7.29-3.47.16-4.69-1.03-1.48-1.46-2.68-3.23-3.87-4.96-.86-1.24-.87-2.69-.42-4.13.38-1.21.93-2.31,1.79-3.26.53-.58.99-1.22,1.62-1.99-1.12-.05-2.03.13-2.76-.5.04-.27.07-.51.11-.76-1.6-.17-1.57-.2-2.72-1.41-.67-.71-1.42-1.36-2.21-1.95-1.82-1.34-3.88-2.21-5.99-2.96-4.33-1.55-8.79-2.37-13.38-2.54,0-1.12.01-2.24.09-3.43.15.22.22.52.31.88.92-.23,1.48-.89,1.96-1.57.78-1.13,1.71-1.31,3.02-.96,3.75.99,7.29,2.43,10.68,4.29.41.23.83.44,1.36.71.11-1.85-.53-3.36-.97-4.92,4.28,2.8,7.78,6.33,10.91,10.29.05-.48.04-.92-.04-1.34-.77-4.09-2.54-7.71-5.19-10.9-3.46-4.16-7.8-7.06-12.87-8.92-.41-.15-.81-.33-1.21-.5.05-.08.09-.17.14-.25,10.08.52,17.76,4.95,22.7,14.33-.16-2.71-.55-5.07-1.13-7.39-2.06-8.23-6.2-15.35-11.85-21.87.79-.06,1.36-.1,1.92-.15,3.98-.42,7.4.79,10.36,3.45,2.29,2.06,4.01,4.56,5.64,7.14.25.4.53.79.87,1.3.07-2.08-.47-7.36-1.26-9.81-.52-1.59-.27-2.97.35-4.38.31-.69.69-1.35,1.03-2.03.12-.25.2-.53.3-.78-1.11-.12-2.11-.22-3.29-.35.92-1.17,1.68-2.14,2.58-3.28-1.63.21-3.01.87-4.52.26.46-.57.84-1.03,1.33-1.64-.58,0-.92-.03-1.26,0-2.04.21-4.02.23-5.59-1.42-.24-.25-.6-.39-.91-.56-1.33-.73-2.67-1.45-4-2.19-.24-.13-.44-.34-.89-.69,5.91-.27,11.3.46,16.59,3.4-.35-1.15-.54-1.96-.84-2.74-1.05-2.73-2.95-4.87-4.96-6.89.97-.67,1.93-1.23,2.77-1.95.82-.71,1.47-1.6,1.72-2.9-.49.15-.78.22-1.06.32-2.19.73-4.44,1.01-6.75.86-1.22-.08-2.37-.31-3.42-1.01-.81-.54-1.71-.96-2.59-1.45-2.45,1.75-4.97,3.28-7.77,4.38-.14-.13-.21-.22-.22-.38,2.68-2.59,5.6-6.71,5.84-8.35h-7.72c-.25-1.46.45-2.5,1.23-3.62-1.68-.18-3.06.4-4.67,1.09.73-2.03,2.05-3.19,3.58-4.19-1.34-.06-2.4.51-3.42,1.14-1.52.95-3.13,1.42-4.94,1.42-.81,0-1.66.28-2.43.6-.53.22-.93.73-1.44,1.16-.18-1.32.9-2,1.39-3.09-.6.05-1.03.09-1.47.12m46.68-57.71c-1.25-1.14-2.77-1.6-4.41-1.74-2.86-.25-4.84,1.29-5.29,4.13-.1.61-.11,1.25-.12,1.87,0,8.05,0,16.1,0,24.14v1.39c1.26.14,2.39.27,3.7.41v-6.9c1.57.19,2.97.36,4.52.54v6.93c1.24.16,2.33.31,3.48.46.04-.31.1-.53.1-.74,0-8.63,0-17.26-.01-25.89,0-1.72-.59-3.24-1.97-4.6m45.62,39.81c1.53,1.35,3.33,2.08,5.37,2.12,1.91.04,3.22-1.09,3.58-2.96.07-.39.11-.8.11-1.2,0-7.11.05-14.21-.01-21.32-.03-3.62-2.16-6.27-5.63-7.28-3.81-1.11-5.81.82-5.79,4.18.04,6.97.02,13.95,0,20.92,0,2.12.71,3.93,2.37,5.55m-14.42-8.13c-.07-.25-.06-.61-.23-.72-1.02-.68-2.09-1.3-3.3-2.05-.05.79-.07,1.36-.13,1.92-.2,1.7-1.52,2.28-2.86,1.19-.42-.34-.74-.9-.93-1.42-.19-.53-.21-1.14-.21-1.72-.01-6.53-.01-13.07,0-19.6,0-.53.06-1.08.19-1.59.25-.96.99-1.37,1.95-1.11,1.07.29,1.66,1.04,1.81,2.1.11.74.12,1.5.19,2.37,1.19-.2,2.31-.4,3.47-.6.02-.32.06-.54.04-.75-.4-4.65-3.65-6.47-7.09-6.61-2.03-.08-3.41,1.01-3.9,2.98-.15.6-.23,1.24-.23,1.85-.02,6.98-.03,13.96,0,20.94.02,3.8,2.23,6.32,5.97,6.94,3.06.51,4.59-.53,5.19-3.52.03-.13.04-.27.07-.61m-53.09-25.57c0-.67-.02-1.34,0-2.01.04-.89.07-1.78.19-2.66.1-.72.56-1.22,1.3-1.35.79-.14,1.55,0,2.03.7.24.35.4.8.48,1.22.13.69.18,1.39.27,2.21,1.2-.36,2.29-.69,3.35-1.02.34-3.41-1.72-6.03-4.96-6.37-.71-.07-1.43-.08-2.14-.02-1.88.17-3.18,1.18-3.76,2.96-.27.83-.35,1.75-.35,2.64-.03,6.8-.02,13.59-.01,20.39,0,.49-.01.99.06,1.47.29,1.99,1.25,3.53,3.14,4.36,1.34.59,2.74.79,4.19.54,2.74-.47,4.25-2.64,3.79-5.52-1.05-.47-2.13-.96-3.31-1.49-.09.78-.13,1.4-.23,2.01-.2,1.22-.68,1.7-1.67,1.74-1.12.05-1.89-.48-2.17-1.58-.15-.6-.21-1.23-.21-1.85-.02-5.37,0-10.73,0-16.37m2.65,49.15c-3.92-.79-5.27-4.6-3.08-8.12,1.59.91,2.44.97,3.3.22.87-.75.93-1.69.22-3.29.93-1.61.84-2.79-.26-3.55-1.11-.77-2.15-.47-3.43.98-1.77-.15-2.59.2-3.01,1.33-.53,1.43.29,2.27,1.38,2.96-2.17,2.56-4.82,3.12-7.13,1.63-1.68-1.09-2.81-3.46-1.35-5.77,1.06.7,2.2,1.05,3.25.02,1-.99.78-2.09.09-3.12,1.18-2.02.85-3.3-1.06-3.85-1.84,3.57-3.7,7.16-5.57,10.8,6,4.23,11.87,8.37,17.82,12.56,2.84-3.04,5.6-6,8.33-8.93-.49-.81-1.09-1-1.8-1.04-1.1-.07-1.65.72-2.21,1.4-1.6-.23-2.46.11-2.93,1.11-.49,1.06-.16,1.98,1.17,3.12-.94,1.07-2.1,1.62-3.73,1.55m25.5-44.05v20.67c3.2.53,6.25,1.04,9.35,1.55v-3.25c-1.91-.35-3.74-.69-5.71-1.05v-28.51c-1.26-.2-2.38-.38-3.64-.58,0,3.75,0,7.32,0,11.16m29.24,19.07v7.42c1.2.29,2.3.56,3.49.85v-31.8c-1.11-.28-2.22-.56-3.49-.87,0,8.14,0,16.14,0,24.4m-70.06,18.55c-.73-.51-1.46-1.02-2.27-1.59-.35.49-.65.91-1.04,1.44,5.85,4.12,11.63,8.19,17.49,12.32.38-.58.66-1,.98-1.48-5.09-3.59-10.05-7.09-15.17-10.7Z"/>
    <path class="cls-2" d="m131.21,150.59c4.71.15,9.18.97,13.5,2.52,2.11.76,4.18,1.62,5.99,2.96.79.58,1.54,1.24,2.21,1.95,1.15,1.22,1.12,1.25,2.72,1.41-.03.25-.07.49-.11.76.73.64,1.65.45,2.76.5-.63.78-1.09,1.41-1.62,1.99-.86.95-1.41,2.06-1.79,3.26-.45,1.44-.44,2.89.42,4.13,1.19,1.72,2.39,3.5,3.87,4.96,1.21,1.19,2.98,1.32,4.69,1.03.51-.09,1.02-.23,1.67-.37-.55,1.53-1.17,2.93-.78,4.62.94-.1,1.86-.19,2.99-.3-.35.67-.65,1.22-.99,1.87,1.99,1.41,3.88,1.08,6-.22-.08.69-.09,1.14-.18,1.59-.48,2.47-.71,4.95-.61,7.47.04,1.07.31,1.97,1.13,2.75,1.33,1.26,2.55,2.64,3.84,3.94.79.8,1.67,1.5,2.81,1.76,1.36.32,2.48-.17,3.36-1.18.82-.93.89-2.03.44-3.15-.77-1.92-2.9-2.49-4.53-1.23-.28.21-.52.47-.84.76-.57-.91-.48-1.82-.19-2.71.72-2.22,2.94-3.35,5.27-2.72,1.93.52,3.35,1.72,4.16,3.52.45,1,.63,2.13.92,3.2.1.36.13.73.3,1.09.94-3.57,1.1-7.14.32-10.74-.38-1.74-1.14-3.32-2.3-4.64-2.36-2.69-4.74-5.36-7.21-7.95-3.52-3.69-7.1-7.32-10.05-11.52-1.29-1.84-2.52-3.71-2.8-6.01-.58-4.76-.08-9.37,1.93-13.76,1.49-3.25,3.56-6.09,6.07-8.62.45-.45.92-.62,1.54-.61,1.03.01,2.06.03,3.08-.1,1.67-.21,3.17-.87,4.51-2.02-.21.56-.41,1.12-.66,1.8,6.28-.45,11.56-3.26,16.96-6.06.13.02.19.09.19.09-2.19,3.93-4.78,7.47-9.06,9.37-1.06.47-2.17.81-3.36,1.24.05.23.11.51.18.79.31,1.26.69,2.5.92,3.77.21,1.15.53,2.2,1.21,3.19,1.12,1.64,1.69,3.53,1.89,5.62-.91-.85-1.77-1.64-2.73-2.54-.53,1.34-.92,2.5-1.43,3.61-.51,1.1-1.27,2.02-2.45,2.92.05-.45.05-.68.09-.9,1.08-5.7-1.54-6.91-5.6-7.25-1.97-.16-3.48.71-4.42,2.46-1.58,2.95-1.64,6.03-.36,9.06.54,1.3,1.47,2.44,2.24,3.64.32.5.79.65,1.38.65,1.19,0,2.3-.3,3.35-.84.35-.18.7-.37,1.32-.71-.32,1.17-.58,2.08-.86,3.09,3.78,1.24,7.05.26,10.09-2.04-.06,2.23-1.24,3.71-4.7,5.82h2.9c-.27,1.6-.98,2.88-1.7,4.3.31.31.65.65.99.98,2,1.94,3.86,3.98,5.29,6.39,1.47,2.48,2.32,5.14,2.32,8.02,0,2.81.13,5.67-.31,8.43-.72,4.6-3.35,8.13-7.21,10.7-1.83,1.22-4,1.48-6.14,1.75-3.19.41-6.34.07-9.46-.48-2.94,2.58-3.21,8.6-.8,13.5.97-.08,2.01-.17,3.2-.27-.27.55-.54,1.08-.85,1.72.29.04.52.07.81.11.04.22.09.47.16.78,1.12-.36,1.58-1.35,2.27-2.41.19,1.48.17,2.74-.31,4.06.31.04.55.08.87.12-.04.32-.08.66-.14,1.12,3.43.67,6.81.23,10.31-.59-.25,4.02-.58,7.88-3.74,10.77-1.09,1-2.2,1.97-3.34,2.91-.59.48-.82,1.05-.66,1.76.23,1,.49,1.99.76,2.98.11.38.29.74.5,1.27-.84-.08-1.56-.15-2.47-.23.84,1.58,2.1,2.58,3.35,3.74-2.06.18-3.99.34-6.05.51-.4,3.61.82,6.78,1.88,10.04-.77.12-1.44.14-2.06.32-2.62.78-4.19,2.62-5.03,5.15-.69,2.08-.65,4.23-.43,6.38.04.35.08.7.14,1.15-.38.07-.71.19-1.05.19-7.43,0-14.85,0-22.28-.03-2.77-.01-5.55-.12-8.32-.19-.58-.01-1.15-.06-1.75-.09-.27-1,.03-1.85.31-2.68,1.1-3.25,3.4-5.41,6.43-6.84,2.67-1.27,5.55-1.67,8.46-1.85.45-.03.91-.1,1.34-.03,1.34.22,2.16-.48,2.68-1.55,1.99-4.1,4.07-8.16,5.55-12.49.03-.08,0-.18,0-.34-.78-.33-1.59-.67-2.62-1.1,1.22-.53,2.23-.97,3.25-1.41-.02-.05-.05-.11-.07-.16-.96,0-1.92.08-2.87-.02-.96-.11-1.91-.41-2.87-.86.31-.12.62-.25.94-.36,1.54-.52,2.93-1.3,4.2-2.33.77-.62,1.35-1.28,1.27-2.36-.03-.39.08-.79.13-1.21-2.11-.84-4.18-1.67-6.25-2.5-5.38,3.18-9.69,2.84-13.31-1.14-.01-.09-.02-.08-.02-.08,2-.42,2.79-1.29,2.94-3.36.13-1.67-.29-3.1-1.51-4.38-3.79-3.97-6.56-8.56-7.95-13.93-.88-3.38-.78-6.71.35-10.02,1.36-3.97,3.56-7.37,6.68-10.18.09-.08.24-.1.52-.22.34-.21.53-.36.71-.5-.04-.08-.08-.15-.13-.23-.38.17-.76.35-1.14.52-2.42.87-4.54,2.25-6.52,3.86-.34.28-.68.57-1.02.85-2.53-1.4-5.02-2.77-7.61-4.18-1.56-.16-3.02-.29-4.48-.43-3.06-.29-5.98-1.04-8.65-2.63-.18-.11-.34-.24-.63-.46,1.3-.2,2.45-.37,3.6-.54l.04-.33c-1.92-.95-4.05-1.38-6.16-2.28,3.52-2.49,5.5-5.74,5.84-9.94-.15.25-.31.49-.45.75-2.38,4.05-5.78,6.76-10.36,7.91-1.51.38-3.05.7-4.58,1.01-5.65,1.18-8.77,6.34-8.41,11.06.02.26,0,.53,0,.98-.34-.38-.6-.65-.83-.95-1.57-2.1-3.6-3.57-6.02-4.56-.68-.28-1.24-.26-1.9.07-3.53,1.75-6.98,3.64-10.27,5.81-1.14.75-1.13.73-2.14-.14-2.79-2.41-6-3.83-9.68-4.19-.3-.03-.61-.11-.96-.17-.17-.99-.29-1.95-.49-2.9-.45-2.12-1.45-4.02-2.4-5.95-.77-1.56-1.53-3.13-2.1-4.77-.52-1.51-.39-3.08.3-4.57.39-.85.97-1.5,1.81-1.9,1.26-.6,2.55-1.07,3.99-.96.98.07,1.97.03,2.95.04,2.39.03,4.31,1.05,5.87,2.8,1.4,1.58,2.62,3.29,3.4,5.27.1.25.23.48.43.9,1.47-.91,3.05-1.59,4.22-2.79.95-.98,1.13-2.39,1.27-3.75.05-.57.12-1.13.39-1.71.16.48.32.96.56,1.68,1.18-3.18,1.27-6.29,1.13-9.71,2.88,2.33,5.13,4.73,5.64,8.45.4-1.4.81-2.81,1.27-4.43.59.82,1.08,1.5,1.6,2.23.35-.17.67-.31.97-.48.39-.21.77-.45,1.16-.67,1.29-.72,2.62-1.38,3.85-2.18,1.28-.83,1.68-2.38,2.56-3.55,4.7-6.19,10.82-10.18,18.4-11.94,2.94-.68,5.91-.89,9.04-.89Z"/>
    <path class="cls-2" d="m145.64,95.96c2.73-1.15,5.25-2.68,7.7-4.42.88.49,1.77.91,2.59,1.45,1.05.7,2.21.93,3.42,1.01,2.31.15,4.55-.13,6.75-.86.28-.1.57-.17,1.06-.32-.25,1.3-.9,2.19-1.72,2.9-.83.72-1.8,1.28-2.77,1.95,2.01,2.02,3.9,4.16,4.96,6.89.3.78.49,1.59.84,2.74-5.28-2.94-10.68-3.67-16.59-3.4.45.35.65.56.89.69,1.33.74,2.67,1.45,4,2.19.31.17.67.31.91.56,1.57,1.65,3.55,1.63,5.59,1.42.34-.03.69,0,1.26,0-.49.61-.87,1.07-1.33,1.64,1.5.6,2.89-.06,4.52-.26-.9,1.14-1.66,2.12-2.58,3.28,1.18.12,2.18.23,3.29.35-.1.26-.18.53-.3.78-.33.68-.72,1.34-1.03,2.03-.62,1.41-.87,2.79-.35,4.38.79,2.45,1.34,7.73,1.26,9.81-.34-.51-.62-.9-.87-1.3-1.63-2.58-3.35-5.08-5.64-7.14-2.96-2.66-6.38-3.87-10.36-3.45-.56.06-1.12.09-1.92.15,5.65,6.52,9.8,13.65,11.85,21.87.58,2.32.97,4.68,1.13,7.39-4.93-9.38-12.62-13.81-22.7-14.33-.05.08-.09.17-.14.25.4.17.8.35,1.21.5,5.06,1.86,9.4,4.76,12.87,8.92,2.65,3.19,4.42,6.81,5.19,10.9.08.42.1.86.04,1.34-3.13-3.96-6.63-7.49-10.91-10.29.44,1.56,1.08,3.07.97,4.92-.53-.28-.95-.49-1.36-.71-3.39-1.86-6.93-3.3-10.68-4.29-1.31-.35-2.24-.17-3.02.96-.47.68-1.03,1.33-1.96,1.57-.09-.36-.16-.66-.31-1-.44.27-.8.59-1.16.91-1.16,1.03-2.51,1.54-4.06,1.38-.65-.07-1.32-.21-1.77-.88.33-.13.62-.22.89-.36.57-.29.9-.78.83-1.41-.06-.6-.37-1.16-.99-1.32-.54-.14-1.16-.24-1.69-.13-5.24,1.11-10.06,3.13-14.05,6.82-.12.11-.29.18-.64.4.2-1.62,1.2-2.71,1.63-4.14-.81-.03-1.35.39-1.9.7-2.25,1.28-4.08,3.06-5.58,5.15-1.33,1.85-2.54,3.79-3.8,5.68-.12.18-.23.35-.59.49,0-1,0-2,0-3-.04-3.63.03-7.25,1.08-10.76,2.54-8.56,7.93-14.56,16.2-17.94,3.16-1.29,6.51-1.89,9.81-2.67,1.87-.44,3.7-1.01,5.73-1.58,1.4-.72,2.68-1.28,3.81-2.06,4.12-2.84,6.45-7.41,4.79-14.13-.11.62-.19.99-.24,1.37-.31,2.43-1.31,4.52-3.06,6.27-1.5,1.5-3.35,2.35-5.35,2.92-.22.2-.48.37-.64.6-.77,1.15-1.75,2.06-2.99,2.83-.08.03-.07.04-.07.04.08-.75.17-1.5.22-2.25.04-.53,0-1.06,0-1.68-1.43.13-1.94,1.26-2.73,2.1-.21-.57-.4-1.11-.59-1.62-2.62,0-3.57,1.34-4.61,6.41-.94-.24-1.91-.39-2.8-.75-1.9-.76-2.87-2.6-2.33-4.57.21-.77.11-1.34-.21-2.01-.88-1.8-.42-5.13,1.54-6.72.38.3.79.62,1.2.94,1.79,1.4,3.63.84,3.99-1.38.23-1.39.04-2.84.02-4.26,0-.17-.09-.34-.15-.51-.61-1.72-1.69-3.04-3.57-3.23-1.84-.18-3.3.78-4.22,2.34-.6,1.02-.93,2.2-1.45,3.5-.35-.13-.87-.23-1.28-.48-1.61-1.01-2.38-2.63-2.9-4.36-.78-2.55-.7-5.11.22-7.62.12-.33.22-.68.39-1.14.04-.19.03-.25.02-.31-.04.06-.09.11-.13.17-.6.44-1.19.89-1.87,1.39v-5.88h5.31c.06-.49.11-.84.15-1.19.09,0,.21-.04.26,0,1.09,1.02,2.39,1.31,3.84,1.18.79-.07,1.59-.01,2.44-.01.07-.38.14-.63.16-.89.14-1.39.82-2.07,2.25-2.12,1.12-.04,2.24-.04,3.36,0,.68.03,1.21-.16,1.65-.68.52-.62,1.09-1.19,1.6-1.8,1.05-1.26,2.22-2.33,3.87-2.93.51-.08.94-.11,1.54-.16-.49,1.09-1.58,1.77-1.39,3.09.51-.42.91-.93,1.44-1.16.76-.32,1.61-.6,2.43-.6,1.81,0,3.42-.48,4.94-1.42,1.02-.64,2.08-1.2,3.42-1.14-1.52,1-2.85,2.16-3.58,4.19,1.61-.69,2.99-1.26,4.67-1.09-.79,1.12-1.49,2.16-1.23,3.62h7.72c-.24,1.64-3.16,5.76-5.93,8.38-.35.31-.56.52-.77.73.06.07.12.14.18.22.32-.18.64-.37.96-.55m-24.31-2.24c.65-.21,1.3-.41,2.22-.71h-6.97c.08.99.2,1.84,1.12,2.34.89.48,1.53-.09,2.18-.55.44-.31.84-.66,1.45-1.08m22.79,2.88l.04-.05s-.08,0-.04.05Z"/>
    <path class="cls-2" d="m131.16,198.26c1.43.25,2.75.5,4.06.77.43.09.85.22,1.39.36-1.94,7.52-1.56,14.86,1.24,22.31-.31.23-.74.44-1.03.76-3.14,3.57-4.47,7.68-3.6,12.41.34,1.84,1.17,3.47,2.44,4.86,1.68,1.85,3.73,2.54,6.18,1.91.43-.11.86-.23,1.3-.34.04,0,.08.02.12.04-.82,2.67-3.69,5.07-6.45,5.23-1.74.1-3.49.02-5.36.03-.98-.01-1.84.04-2.67-.09-2.25-.34-3.86.77-5.33,2.23-.27.27-.52.56-.98,1.05.07-1.29.13-2.29.2-3.48-9.26.08-18.22.99-26.27,6.4-1.65-5.03-4.23-8.83-10.05-8.83-.71-1.93-1.34-3.83-2.09-5.68-.85-2.1-1.37-4.29-1.42-6.51-.06-2.26.18-4.55.44-6.8.17-1.49.9-1.95,2.38-1.97,4.18-.06,7.37,1.81,9.89,5.02,1.42,1.8,2.61,3.73,3.43,5.96h2.1c.09-.72.18-1.41.3-2.35.57.86,1.04,1.56,1.67,2.5.56-1.93.31-3.73.78-5.6.84,1.95,1.8,3.7,3.43,5.04.82-1.01.12-1.95.26-2.91.67.05,1.02.56,1.39.94,1.18,1.2,2.43,1.31,3.83.38-.43-1.72-.88-3.44-1.3-5.17-.65-2.66-.87-5.38-.95-8.1-.05-1.68-.29-3.3-.83-4.86-.75-2.19-1.62-4.35-2.44-6.52-.13-.33-.25-.67-.35-1.1.03-.1.03-.1.03-.1,1.28.79,2.56,1.58,3.83,2.37.32.2.61.44,1.18.85.17-2.73.23-5.14-.27-7.76,1.49.94,2.28,2.24,3.27,3.38,1.06-.99,2.05-2,3.13-2.91,3.06-2.56,6.57-3.91,10.59-3.76.8.03,1.61.05,2.53.07Z"/>
    <path class="cls-1" d="m74.99,137.47c-1.19-1-1.77-2.16-1.94-3.64-.26-2.19-1.54-3.87-3.12-5.32-.81-.74-1.65-1.46-2.56-2.25,1.26-.83,2.44-.62,3.9.08-.39-.82-.64-1.35-.98-2.06.65-.11,1.24-.21,1.82-.31-.05-1.84-1.42-3.59-3.18-4.01-.53-.13-.84-.4-1.09-.88-.71-1.35-.89-2.84-.88-4.29.02-2.57-.68-4.92-1.62-7.27-.54-1.36-.94-2.79-1.21-4.23-.45-2.43.49-4.14,2.7-5.25.68-.34,1.42-.55,2.07-.94.95-.57,1.77-.32,2.64.16,2.23,1.23,3.76,3.14,5.06,5.25,2.44,3.93,3.54,8.26,3.73,12.85.05,1.11.15,2.22.21,3.12.6.56,1.13.94,1.51,1.44,1.95,2.59,4.23,4.83,6.93,6.91,1.17-.59,2.35-1.18,3.67-1.85-.16.65-.31,1.23-.45,1.8,2.1.61,3.72-.3,6.04-3.45,0,1.05.07,1.92-.02,2.77-.09.88-.34,1.74-.55,2.74.58.07,1.09.13,1.76.2-.13.52-.21,1.02-.4,1.49-.2.49-.5.94-.83,1.54,1.16.47,2.26.91,3.52,1.42-.3.49-.52.9-.79,1.28-2.16,3.15-4.09,6.42-4.89,10.21-.29,1.38-.4,2.81-.61,4.31-.73-.29-1.45-.65-2.2-.87-1.02-.3-2.06-.57-3.11-.72-2.59-.37-5.25,1.54-5.03,5-.46-.54-.84-.85-1.04-1.25-.67-1.31-1.31-2.64-1.88-3.99-.47-1.11-.85-2.26-1.25-3.39-.86-2.4-2.32-4.31-4.56-5.59-.46-.27-.88-.61-1.39-.99Z"/>
    <path class="cls-28" d="m131.22,19.86c.95.08,1.81.08,2.62.31,2.03.56,3.28,1.93,3.69,4.01.12.61.18,1.24.18,1.86.01,8.23,0,16.47,0,24.7,0,.39-.04.79-.06,1.26h-3.59v-6.89c-.91,0-1.7,0-2.62.02-.69.02-1.26.02-1.97.02v6.85h-3.47c-.03-.42-.09-.76-.09-1.11,0-8.45,0-16.9-.01-25.35,0-1.82.58-3.33,1.98-4.49.93-.77,2.05-1.05,3.33-1.2m-.14,3.45c-.24.11-.51.19-.71.35-.81.67-.89,1.6-.89,2.56,0,4.83,0,9.66,0,14.5,0,.35.05.69.08,1.13.63,0,1.2,0,2.01.04h2.41c.03-.41.06-.67.06-.93,0-4.99,0-9.97,0-14.96,0-.35-.01-.72-.09-1.06-.3-1.32-1.23-1.88-2.87-1.63Z"/>
    <path class="cls-19" d="m102.01,40.29c0-4.03,0-7.92,0-11.81,0-.62-.06-1.25-.19-1.86-.26-1.19-.91-1.68-2.1-1.6-.7.05-1.4.2-2.22.33v28.44c-1.24.15-2.37.28-3.49.42-.29-1.01-.4-29.36-.13-31.79.66-.09,1.35-.2,2.04-.27,1.64-.15,3.29-.37,4.94-.4,2.79-.05,4.51,1.62,4.7,4.41.03.36.02.72.02,1.07,0,8.14,0,16.28,0,24.42,0,.44,0,.87,0,1.4-1.22.11-2.3.21-3.56.32,0-4.41,0-8.69,0-13.1Z"/>
    <path class="cls-20" d="m48.81,32.19c1.59-2.2,3.7-3.18,6.27-3.2,2.2-.02,3.73,1.35,3.99,3.53.05.44.04.89.04,1.34,0,6.8-.11,13.61.04,20.41.11,4.57-3.67,7.79-7.9,7.55-1.78-.1-3.04-1.07-3.45-2.82-.16-.69-.25-1.41-.25-2.12-.02-6.71,0-13.43-.01-20.14,0-1.6.33-3.1,1.26-4.55m6.76,23.64c0-7.06.02-14.12.03-21.18,0-.13,0-.27,0-.4-.16-1.77-1.63-2.5-3.05-1.43-.53.4-.94,1.07-1.2,1.7-.23.55-.25,1.22-.25,1.84-.02,6.39-.02,12.78,0,19.17,0,.57.08,1.16.22,1.72.24.95.97,1.34,1.93,1.15,1.3-.26,1.98-1.11,2.34-2.56Z"/>
    <path class="cls-25" d="m32.02,61.24c0-8.71,0-17.29,0-26,2.31-.65,4.53-1.3,6.76-1.9.38-.1.8-.05,1.2-.05,1.48-.02,2.5.71,2.95,2.07.29.88.46,1.83.49,2.75.07,2.19.05,4.38,0,6.57-.02.84-.15,1.69-.35,2.51-.71,2.87-2.73,4.39-5.45,5.16-.64.18-1.26.39-1.96.61v13.05c-1.19.37-2.32.72-3.65,1.13,0-2.05,0-3.92,0-5.91m3.64-18.13c0,2.08,0,4.17,0,6.4.78-.19,1.34-.3,1.88-.47,1.4-.43,2.17-1.43,2.2-2.87.06-2.5.02-5.01.02-7.51,0-.18-.02-.36-.06-.53-.26-1.08-.9-1.5-1.97-1.24-.68.17-1.34.42-2.08.66,0,1.81,0,3.55,0,5.56Z"/>
    <path class="cls-18" d="m118.58,49.05c1-.07,1.89-.11,2.78-.15.41,1.07.21,2.04.21,2.98-.95.44-7.83.88-10.42.68-.35-.87-.78-1.8-1.1-2.76-.11-.34.01-.78.12-1.15,1.93-6.27,3.87-12.54,5.81-18.82.51-1.66,1.01-3.33,1.51-5,.07-.25.09-.51.15-.84-2.49-.37-4.92.27-7.42.15v-3c1.38-.39,7.85-.81,9.98-.63.37.83.84,1.7,1.11,2.63.15.51.03,1.15-.13,1.69-1.75,5.72-3.54,11.43-5.32,17.15-.62,2-1.23,4.01-1.84,6.02-.1.33-.13.68-.2,1.08,1.62,0,3.13,0,4.76-.02Z"/>
    <path class="cls-21" d="m87.74,38.06c-.23.59-.41,1.09-.6,1.59-1.28.2-2.5.4-3.78.61v12c2-.25,3.96-.49,6.02-.75v3.22c-3.13.45-6.28.91-9.54,1.38v-31.84c3.15-.45,6.31-.9,9.56-1.36v3.28c-1.97.28-3.94.56-5.87.83-.3,1.07-.34,8.29-.07,9.78,1.56-.19,3.13-.39,4.89-.6-.23.72-.4,1.25-.61,1.88Z"/>
    <path class="cls-21" d="m71.19,52.64c0,1.69,0,3.25,0,4.89-1.19.24-2.27.45-3.53.7v-28.48c-1.48.24-2.77.45-4.17.67v-3.22c3.89-.74,7.81-1.48,11.85-2.25v3.29c-1.3.25-2.64.51-4.15.81,0,7.84,0,15.65,0,23.59Z"/>
    <path class="cls-16" d="m92.08,116.25c.5-1.32,1.3-2.43,2.27-3.44,1.61-1.66,3.56-2.17,5.76-1.74,1.49.29,2.93.78,4.41,1.1,1.13.24,2.28.47,3.42.48,1.74.02,3.15-.86,4.42-1.99.36-.31.72-.62,1.12-.97.55.67.17,1.16-.08,1.56-.58.9-1.19,1.8-1.92,2.57-.35.37-1.02.59-1.55.6-1.35.02-2.52.24-3.51,1.29-.79.83-1.89.71-2.91.46-.6-.15-1.18-.42-1.73-.71-3.31-1.76-6.36-1.33-9.36,1.02-.21-.08-.27-.16-.34-.24Z"/>
    <path class="cls-4" d="m131.3,118.87c2-.7,3.85-1.54,5.35-3.04,1.74-1.74,2.74-3.83,3.06-6.27.05-.38.13-.75.24-1.37,1.66,6.71-.67,11.28-4.79,14.13-1.13.78-2.42,1.34-3.73,2.01-.11-1.77-.11-3.55-.12-5.45Z"/>
    <path class="cls-32" d="m92.02,116.31c.13.02.19.11.32.23-.07.12-.21.21-.34.3-.01-.16-.03-.31.02-.53Z"/>
    <path class="cls-2" d="m127.58,122.2s-.04.01-.02.02c.04,0,.03-.01.02-.02Z"/>
    <path class="cls-32" d="m91.75,117.26s-.05-.07-.05-.07c0,0,.08.04.05.07Z"/>
    <path class="cls-2" d="m106.9,206.01s-.09-.08-.13-.12c.03,0,.06.02.11.07.02.05.02.05.02.05Z"/>
    <path class="cls-31" d="m178.06,24.18c1.31,1.3,1.89,2.82,1.89,4.54.02,8.63.01,17.26.01,25.89,0,.21-.06.43-.1.74-1.15-.15-2.24-.3-3.48-.46v-6.93c-1.55-.18-2.95-.35-4.52-.54v6.9c-1.3-.15-2.44-.27-3.7-.41v-1.39c0-8.05,0-16.1,0-24.14,0-.62.02-1.26.12-1.87.45-2.83,2.43-4.38,5.29-4.13,1.63.14,3.16.6,4.48,1.81m-6.21,15.71v4.32c1.55.17,2.95.33,4.4.49.06-.38.13-.64.13-.9,0-4.96.01-9.91,0-14.87,0-.57-.1-1.17-.29-1.7-.38-1.09-1.54-1.68-2.71-1.48-.94.17-1.42.83-1.5,2.08-.03.4-.02.8-.02,1.2,0,3.53,0,7.05,0,10.85Z"/>
    <path class="cls-29" d="m223.54,63.85c-1.6-1.55-2.31-3.36-2.3-5.48,0-6.97.03-13.95,0-20.92-.02-3.36,1.98-5.29,5.79-4.18,3.47,1.01,5.6,3.67,5.63,7.28.06,7.11.02,14.21.01,21.32,0,.4-.03.81-.11,1.2-.36,1.87-1.67,3-3.58,2.96-2.04-.04-3.83-.77-5.44-2.19m1.23-6.25c.01.71-.02,1.43.05,2.14.12,1.26.75,2.17,1.97,2.63,1.26.47,2.14-.02,2.32-1.34.05-.35.04-.71.04-1.07,0-6.57,0-13.14,0-19.7,0-.45,0-.9-.08-1.33-.22-1.22-1.14-2.18-2.24-2.4-1.13-.23-1.84.24-2,1.38-.07.53-.06,1.07-.06,1.61,0,5.94,0,11.89,0,18.09Z"/>
    <path class="cls-31" d="m209.18,55.9c-.02.24-.03.37-.06.51-.61,2.99-2.14,4.03-5.19,3.52-3.74-.62-5.95-3.14-5.97-6.94-.03-6.98-.02-13.96,0-20.94,0-.62.08-1.25.23-1.85.5-1.97,1.87-3.06,3.9-2.98,3.44.14,6.69,1.96,7.09,6.61.02.21-.02.43-.04.75-1.15.2-2.28.39-3.47.6-.07-.87-.08-1.63-.19-2.37-.15-1.07-.74-1.81-1.81-2.1-.96-.26-1.7.15-1.95,1.11-.13.51-.19,1.06-.19,1.59-.01,6.53-.01,13.07,0,19.6,0,.58.02,1.19.21,1.72.19.52.51,1.08.93,1.42,1.34,1.09,2.66.51,2.86-1.19.07-.56.08-1.13.13-1.92,1.21.74,2.27,1.37,3.3,2.05.16.11.16.47.22.83Z"/>
    <path class="cls-30" d="m156.09,30.35c0,5.5,0,10.87,0,16.23,0,.62.06,1.26.21,1.85.28,1.11,1.05,1.63,2.17,1.58.99-.04,1.46-.52,1.67-1.74.1-.61.14-1.23.23-2.01,1.18.53,2.27,1.02,3.31,1.49.47,2.88-1.05,5.05-3.79,5.52-1.45.25-2.86.05-4.19-.54-1.89-.83-2.85-2.37-3.14-4.36-.07-.48-.06-.98-.06-1.47,0-6.8-.01-13.6.01-20.39,0-.88.08-1.8.35-2.64.58-1.78,1.88-2.79,3.76-2.96.71-.06,1.43-.05,2.14.02,3.24.34,5.3,2.96,4.96,6.37-1.06.32-2.16.65-3.35,1.02-.1-.82-.14-1.52-.27-2.21-.08-.43-.24-.87-.48-1.22-.48-.71-1.24-.84-2.03-.7-.74.13-1.2.63-1.3,1.35-.12.88-.16,1.77-.19,2.66-.03.67,0,1.34,0,2.15Z"/>
    <path class="cls-15" d="m158.85,79.39c1.53.05,2.69-.5,3.63-1.57-1.33-1.14-1.66-2.07-1.17-3.12.47-1,1.33-1.34,2.93-1.11.56-.68,1.11-1.47,2.21-1.4.71.04,1.31.24,1.8,1.04-2.73,2.93-5.49,5.89-8.33,8.93-5.94-4.19-11.82-8.33-17.82-12.56,1.88-3.63,3.73-7.23,5.57-10.8,1.91.55,2.24,1.83,1.06,3.85.69,1.03.91,2.13-.09,3.12-1.05,1.03-2.18.68-3.25-.02-1.47,2.31-.33,4.69,1.35,5.77,2.31,1.5,4.96.93,7.13-1.63-1.09-.69-1.91-1.53-1.38-2.96.42-1.13,1.24-1.48,3.01-1.33,1.28-1.45,2.32-1.75,3.43-.98,1.1.76,1.18,1.95.26,3.55.71,1.6.65,2.54-.22,3.29-.86.74-1.72.69-3.3-.22-2.18,3.52-.84,7.34,3.19,8.15Z"/>
    <path class="cls-27" d="m184.24,35.18v-11.02c1.26.2,2.38.38,3.64.58v28.51c1.97.36,3.8.7,5.71,1.05v3.25c-3.11-.52-6.16-1.02-9.35-1.55,0-6.93,0-13.8,0-20.81Z"/>
    <path class="cls-24" d="m213.48,54.25c0-8.13,0-16.12,0-24.27,1.27.32,2.37.59,3.49.87v31.8c-1.19-.29-2.29-.56-3.49-.85,0-2.52,0-4.97,0-7.56Z"/>
    <path class="cls-22" d="m143.5,72.99c5.04,3.55,10,7.05,15.09,10.64-.32.48-.6.9-.98,1.48-5.86-4.13-11.64-8.2-17.49-12.32.38-.53.68-.95,1.04-1.44.81.57,1.54,1.08,2.34,1.64Z"/>
    <path class="cls-12" d="m146.71,190.9c.24-.22.62-.39,1-.56.04.08.08.15.13.23-.19.14-.38.28-.64.43-.17-.02-.26-.04-.49-.1Z"/>
    <path class="cls-14" d="m145.57,95.91c-.25.23-.57.41-.89.59-.06-.07-.12-.14-.18-.22.21-.21.42-.42.72-.66.15.06.22.15.36.28Z"/>
    <path class="cls-2" d="m200.1,126.51c.04-.09.12-.14.19-.19,0,.07.01.13-.04.24-.06.05-.12-.02-.15-.06Z"/>
    <path class="cls-2" d="m146.12,233.13s-.06-.03-.1-.05c.03,0,.06-.02.09.02,0,.04,0,.03.01.03Z"/>
    <path class="cls-8" d="m121.24,93.76c-.51.37-.92.72-1.35,1.03-.65.46-1.29,1.03-2.18.55-.92-.49-1.04-1.34-1.12-2.34h6.97c-.92.29-1.57.5-2.31.75Z"/>
    <path class="cls-13" d="m108.23,94.8c.03-.07.07-.13.12-.19.01.06.02.12-.02.21-.05.02-.08,0-.1-.02Z"/>
    <path class="cls-14" d="m144.09,96.57s.06-.03.06-.03c0,0-.04.05-.06.03Z"/>
    <path class="cls-6" d="m131.27,23.29c1.45-.23,2.38.33,2.68,1.65.08.34.09.71.09,1.06,0,4.99,0,9.97,0,14.96,0,.26-.03.52-.06.93-.83,0-1.62,0-2.53-.14-.13-1.3-.13-2.46-.14-3.62-.01-4.95-.03-9.89-.04-14.84Z"/>
    <path class="cls-9" d="m131.17,23.3c.11,4.94.12,9.88.14,14.83,0,1.16,0,2.32.01,3.6-.56.12-1.13.12-1.77.12-.03-.44-.08-.79-.08-1.13,0-4.83,0-9.66,0-14.5,0-.96.08-1.89.89-2.56.2-.16.47-.24.81-.36Z"/>
    <path class="cls-10" d="m55.56,55.94c-.34,1.33-1.03,2.18-2.33,2.44-.96.19-1.69-.2-1.93-1.15-.14-.56-.21-1.14-.22-1.72-.01-6.39-.02-12.78,0-19.17,0-.62.02-1.29.25-1.84.26-.63.67-1.29,1.2-1.7,1.42-1.07,2.89-.33,3.05,1.43.01.13,0,.27,0,.4,0,7.06-.02,14.12-.04,21.29Z"/>
    <path class="cls-11" d="m35.66,42.97c0-1.87,0-3.62,0-5.43.73-.24,1.4-.48,2.08-.66,1.07-.27,1.71.15,1.97,1.24.04.17.06.35.06.53,0,2.5.04,5.01-.02,7.51-.03,1.44-.8,2.44-2.2,2.87-.54.17-1.11.28-1.88.47,0-2.23,0-4.32,0-6.53Z"/>
    <path class="cls-5" d="m171.85,39.75c0-3.66,0-7.19,0-10.72,0-.4,0-.8.02-1.2.08-1.25.57-1.91,1.5-2.08,1.16-.21,2.32.39,2.71,1.48.19.54.29,1.13.29,1.7.02,4.96.01,9.91,0,14.87,0,.26-.07.51-.13.9-1.45-.16-2.85-.32-4.4-.49,0-1.49,0-2.9,0-4.45Z"/>
    <path class="cls-7" d="m224.77,57.47c0-6.08,0-12.02,0-17.96,0-.54-.02-1.08.06-1.61.16-1.14.87-1.61,2-1.38,1.1.22,2.01,1.18,2.24,2.4.08.44.08.89.08,1.33,0,6.57,0,13.14,0,19.7,0,.36,0,.72-.04,1.07-.18,1.31-1.06,1.81-2.32,1.34-1.22-.46-1.85-1.37-1.97-2.63-.07-.71-.03-1.43-.05-2.28Z"/>
  </g>
</svg>