<?xml version="1.0" encoding="UTF-8"?>
<svg id="Layer_2" data-name="Layer 2" xmlns="http://www.w3.org/2000/svg" viewBox="0 0 308.73 394.56">
  <defs>
    <style>
      .cls-1 {
        font-family: Arial-Black, 'Arial Black';
        font-size: 34.95px;
        font-weight: 800;
      }

      .cls-1, .cls-2 {
        fill: #ecbb03;
      }

      .cls-3 {
        fill: #fff;
      }

      .cls-3, .cls-2, .cls-4 {
        stroke-width: 0px;
      }

      .cls-4 {
        fill: #055390;
      }
    </style>
  </defs>
  <g id="Layer_1-2" data-name="Layer 1">
    <g>
      <path class="cls-4" d="m154.37,394.56s154.37-71.52,154.37-279.53c0-42.91-2.98-72.12-2.98-72.12,0,0-67.95-42.91-151.39-42.91S2.98,42.91,2.98,42.91c0,0-2.98,29.21-2.98,72.12,0,208.01,154.37,279.53,154.37,279.53Z"/>
      <path class="cls-3" d="m154.37,58.64c62.92,0,116.54,23.42,140.93,36.08-.45-20.13-1.47-35.59-2.11-43.82-17.19-9.55-73.36-37.69-138.82-37.69S32.74,41.35,15.55,50.9c-.64,8.23-1.66,23.69-2.11,43.81,24.4-12.66,78.03-36.08,140.93-36.08Z"/>
      <path class="cls-3" d="m154.37,71.85c-65.7,0-122.25,27.66-141.14,38.03,0,1.7-.02,3.42-.02,5.16,0,82.48,24.59,152.5,73.09,208.12,28.06,32.19,56.41,49.95,68.07,56.48V71.85Z"/>
      <text class="cls-1" transform="translate(21.96 81.25) rotate(-24.74)"><tspan x="0" y="0">A</tspan></text>
      <text class="cls-1" transform="translate(43.61 71.4) rotate(-21.92)"><tspan x="0" y="0">.</tspan></text>
      <text class="cls-1" transform="translate(51.2 68.05) rotate(-19.11)"><tspan x="0" y="0">C</tspan></text>
      <text class="cls-1" transform="translate(74.27 60.19) rotate(-16.13)"><tspan x="0" y="0">.</tspan></text>
      <text class="cls-1" transform="translate(82.44 57.78) rotate(-14.54)"><tspan x="0" y="0"> </tspan></text>
      <text class="cls-1" transform="translate(90.37 55.45) rotate(-11.61)"><tspan x="0" y="0">P</tspan></text>
      <text class="cls-1" transform="translate(111.37 50.92) rotate(-6.91)"><tspan x="0" y="0">R</tspan></text>
      <text class="cls-1" transform="translate(134.46 47.92) rotate(-1.55)"><tspan x="0" y="0">A</tspan></text>
      <text class="cls-1" transform="translate(155.43 47.13) rotate(3.3)"><tspan x="0" y="0">T</tspan></text>
      <text class="cls-1" transform="translate(175.63 48.01) rotate(8.26)"><tspan x="0" y="0">O</tspan></text>
      <text class="cls-1" transform="translate(200.94 51.85) rotate(11.75)"><tspan x="0" y="0"> </tspan></text>
      <text class="cls-1" transform="translate(209.1 53.33) rotate(14.49)"><tspan x="0" y="0">1</tspan></text>
      <text class="cls-1" transform="translate(228.28 58.18) rotate(18.12)"><tspan x="0" y="0">9</tspan></text>
      <text class="cls-1" transform="translate(247.13 64.23) rotate(21.59)"><tspan x="0" y="0">0</tspan></text>
      <text class="cls-1" transform="translate(265.57 71.41) rotate(25.08)"><tspan x="0" y="0">8</tspan></text>
      <g>
        <path class="cls-2" d="m36.54,69.98l-8,3.69.63,4.26-7.18,3.31-1.93-26.66,7.66-3.53,19.01,18.79-7.35,3.39-2.84-3.24Zm-3.74-4.23l-6.28-7.01,1.27,9.32,5.01-2.31Z"/>
        <path class="cls-2" d="m43.01,64.13l6.89-2.77,2.6,6.46-6.89,2.77-2.6-6.46Z"/>
        <path class="cls-2" d="m66.01,52.1l7.07-.28c.19,1.94.03,3.68-.47,5.2-.51,1.52-1.34,2.83-2.5,3.92-1.16,1.09-2.8,2-4.91,2.73-2.57.89-4.8,1.24-6.68,1.06-1.89-.18-3.75-1.01-5.58-2.48-1.83-1.47-3.26-3.67-4.28-6.61-1.36-3.91-1.36-7.28,0-10.1,1.35-2.82,3.93-4.89,7.74-6.21,2.98-1.03,5.52-1.24,7.65-.63,2.12.61,4.03,2.03,5.72,4.23l-5.95,3.67c-.48-.64-.89-1.09-1.26-1.34-.6-.42-1.25-.67-1.95-.77-.69-.1-1.41-.02-2.14.23-1.65.58-2.69,1.68-3.11,3.32-.32,1.22-.12,2.89.62,5.01.91,2.62,1.93,4.28,3.06,4.98,1.13.7,2.42.8,3.86.3,1.4-.48,2.32-1.24,2.76-2.28.44-1.03.57-2.35.37-3.96Z"/>
        <path class="cls-2" d="m74.36,52.91l7.13-2.06,1.93,6.69-7.13,2.06-1.93-6.69Z"/>
        <path class="cls-2" d="m87.81,30.43l12.59-2.59c2.74-.56,4.93-.33,6.56.69,1.63,1.02,2.7,2.74,3.19,5.14.51,2.48.16,4.56-1.04,6.26-1.2,1.7-3.33,2.86-6.38,3.49l-4.15.85,1.87,9.09-7.61,1.56-5.04-24.51Zm9.75,8.89l1.85-.38c1.46-.3,2.43-.76,2.92-1.39.48-.63.65-1.34.48-2.13-.16-.77-.55-1.37-1.17-1.8-.62-.43-1.64-.5-3.06-.21l-2.16.44,1.12,5.47Z"/>
        <path class="cls-2" d="m113.99,50.6l-3.01-24.84,12.79-1.55c2.37-.29,4.21-.3,5.51-.05,1.3.25,2.4.89,3.31,1.89.9,1.01,1.45,2.3,1.64,3.88.17,1.38.02,2.6-.45,3.67-.46,1.07-1.17,1.98-2.13,2.73-.61.47-1.46.91-2.57,1.31.95.19,1.65.42,2.11.67.31.17.77.55,1.39,1.16.62.6,1.04,1.07,1.26,1.41l4.58,6.75-8.67,1.05-5.02-7.09c-.64-.92-1.18-1.5-1.62-1.75-.6-.32-1.25-.43-1.95-.35l-.68.08,1.22,10.08-7.71.94Zm5.92-15.71l3.24-.39c.35-.04,1.01-.24,1.99-.58.5-.16.88-.48,1.15-.93.27-.46.37-.96.31-1.5-.1-.8-.43-1.39-.98-1.75-.56-.37-1.54-.47-2.94-.3l-3.37.41.61,5.05Z"/>
        <path class="cls-2" d="m152.26,43.3l-8.8.24-1.1,4.16-7.9.21,8.72-25.26,8.43-.23,10.08,24.75-8.08.22-1.34-4.09Zm-1.77-5.36l-3.01-8.91-2.5,9.06,5.51-.15Z"/>
        <path class="cls-2" d="m157.67,22.2l23.46,1.35-.36,6.17-7.87-.45-1.08,18.81-7.72-.45,1.08-18.81-7.87-.46.35-6.17Z"/>
        <path class="cls-2" d="m178.97,35.88c.58-4.04,2.17-7.02,4.75-8.95,2.58-1.93,5.88-2.6,9.9-2.01,4.12.6,7.14,2.16,9.04,4.7,1.91,2.53,2.57,5.8,2,9.78-.42,2.89-1.25,5.19-2.49,6.91-1.24,1.71-2.86,2.95-4.85,3.71-1.99.76-4.36.94-7.11.55-2.79-.4-5.04-1.19-6.74-2.34-1.7-1.16-2.98-2.78-3.84-4.87-.86-2.09-1.08-4.58-.66-7.48Zm7.64,1.14c-.36,2.5-.16,4.36.61,5.59.77,1.23,1.95,1.96,3.55,2.19,1.64.24,2.99-.11,4.05-1.05,1.06-.94,1.78-2.79,2.19-5.56.34-2.33.11-4.1-.67-5.31-.78-1.21-1.98-1.93-3.59-2.17-1.54-.23-2.86.14-3.95,1.1-1.09.96-1.82,2.69-2.19,5.22Z"/>
        <path class="cls-2" d="m232.11,32.99l-6.36,24.64-6.81-1.76,4.17-16.14c-1.32.55-2.56.95-3.72,1.21-1.16.25-2.58.41-4.26.48l1.43-5.52c2.48-.15,4.49-.57,6.03-1.28,1.53-.71,2.86-1.73,3.96-3.06l5.57,1.44Z"/>
        <path class="cls-2" d="m231.66,53.37l6.84,1.32c-.13.97-.05,1.72.24,2.23.29.51.73.87,1.32,1.06,1.06.35,2.06.08,3.01-.79.69-.65,1.56-2.21,2.61-4.69-1.06.55-2.06.88-3.02.99-.96.11-1.98-.02-3.07-.38-2.13-.7-3.68-2.04-4.65-4.03-.97-1.99-1.08-4.15-.32-6.46.52-1.58,1.36-2.89,2.53-3.95,1.17-1.05,2.52-1.7,4.04-1.94,1.53-.24,3.28-.03,5.26.61,2.38.78,4.15,1.81,5.32,3.1,1.17,1.29,1.9,2.96,2.17,5.02.28,2.06-.06,4.55-1.01,7.47-1.4,4.29-3.34,7.14-5.79,8.55-2.46,1.4-5.29,1.58-8.49.54-1.89-.62-3.31-1.33-4.26-2.12-.95-.8-1.65-1.73-2.1-2.81-.45-1.08-.66-2.32-.64-3.71Zm15.64-6.63c.42-1.29.43-2.4.02-3.34-.41-.94-1.08-1.57-2.01-1.87-.88-.29-1.71-.19-2.51.27-.8.47-1.41,1.37-1.84,2.69-.44,1.33-.47,2.45-.1,3.34.37.9,1,1.5,1.9,1.79.93.31,1.82.22,2.66-.26.84-.48,1.47-1.35,1.88-2.62Z"/>
        <path class="cls-2" d="m253.08,53.03c1.75-4.42,3.77-7.2,6.06-8.34,2.29-1.14,5.06-1.06,8.32.23,1.57.62,2.77,1.32,3.63,2.1.85.78,1.47,1.61,1.86,2.48.39.87.63,1.72.73,2.54.09.83.07,1.74-.06,2.74-.25,1.91-.75,3.8-1.5,5.68-1.67,4.22-3.6,7.03-5.81,8.42-2.2,1.39-5.05,1.4-8.54.02-1.96-.78-3.41-1.71-4.37-2.81-.96-1.1-1.59-2.41-1.88-3.92-.22-1.08-.2-2.42.08-4.03.27-1.61.77-3.31,1.48-5.11Zm6.4,2.55c-1.17,2.96-1.71,5.09-1.62,6.38.1,1.29.64,2.13,1.63,2.53.66.26,1.32.25,1.98-.01.66-.27,1.31-.86,1.93-1.76.62-.91,1.35-2.41,2.18-4.51,1.22-3.09,1.78-5.27,1.68-6.54-.1-1.27-.68-2.11-1.72-2.53-1.07-.42-2.05-.18-2.96.71-.91.9-1.94,2.81-3.1,5.74Z"/>
        <path class="cls-2" d="m276.36,61.61c-.74-.99-1.19-1.91-1.34-2.77-.2-1.18-.03-2.34.5-3.5.89-1.9,2.5-3.03,4.85-3.4,1.83-.27,3.88.12,6.17,1.19,3.03,1.42,5,3.04,5.91,4.87.91,1.83.95,3.62.13,5.37-.48,1.02-1.21,1.84-2.21,2.45-.74.46-1.72.78-2.94.96.95,1.16,1.5,2.37,1.65,3.62.15,1.25-.05,2.46-.6,3.64-.53,1.13-1.29,2.07-2.27,2.81-.98.74-1.98,1.2-2.98,1.38-1.01.18-2.14.13-3.38-.14-1.24-.28-2.51-.71-3.79-1.31-2.4-1.12-4.1-2.27-5.1-3.43-1-1.16-1.57-2.44-1.72-3.85-.14-1.41.1-2.8.74-4.16.62-1.33,1.46-2.31,2.51-2.94,1.05-.63,2.34-.9,3.86-.8Zm0,6.47c-.47,1-.55,1.96-.23,2.88.31.92.86,1.56,1.64,1.93.75.35,1.58.35,2.48-.02.9-.36,1.58-1.04,2.04-2.03.47-1,.55-1.96.25-2.88-.3-.92-.85-1.57-1.65-1.94-.78-.37-1.61-.38-2.48-.03-.87.35-1.55,1.04-2.05,2.1Zm4.9-9.59c-.37.78-.42,1.53-.15,2.24.26.71.8,1.25,1.62,1.63.72.34,1.42.38,2.11.12.69-.26,1.21-.76,1.56-1.52.37-.78.42-1.53.17-2.25-.25-.72-.76-1.25-1.51-1.6-.76-.36-1.5-.41-2.2-.15-.7.25-1.23.76-1.59,1.53Z"/>
      </g>
      <path class="cls-2" d="m222.79,175.36c-45.13,0-56.38,45.58-56.38,45.58h-2c0-34.79,27.59-59.58,27.59-90.76,0-28.39-28.39-58.34-37.64-58.34s-37.64,29.95-37.64,58.34c0,31.19,27.59,55.98,27.59,90.76h-2s-11.25-45.58-56.38-45.58c-25.99,0-43.98,21.59-43.98,45.98s19.99,39.98,41.58,39.98,23.99-14.79,23.99-14.79c0,0-9.6-4.8-9.6-12.79,0-6,3.2-8.4,9.19-8.4,13.19,0,22.39,12.39,22.39,33.99h-.4c-8.39,0-15.19,6.8-15.19,15.19s6.8,15.2,15.19,15.2h11.19c0,26.39-34.79,32.79-34.79,32.79,0,11.2,15.19,15.99,28.79,15.99,0,25.59,9.6,37.98,20.05,37.98s20.05-12.39,20.05-37.98c13.59,0,28.79-4.8,28.79-15.99,0,0-34.79-6.4-34.79-32.79h11.2c8.39,0,15.19-6.8,15.19-15.2s-6.8-15.19-15.19-15.19h-.4c0-21.59,9.2-33.99,22.39-33.99,6,0,9.2,2.4,9.2,8.4,0,8-9.6,12.79-9.6,12.79,0,0,2,14.79,23.99,14.79s41.58-14.79,41.58-39.98-17.99-45.98-43.98-45.98Z"/>
    </g>
  </g>
</svg>