<?xml version="1.0" encoding="UTF-8"?>
<svg id="Livello_2" data-name="Livello 2" xmlns="http://www.w3.org/2000/svg" viewBox="0 0 270 248.32">
  <defs>
    <style>
      .cls-1 {
        fill: #ccd3dd;
      }

      .cls-1, .cls-2, .cls-3, .cls-4 {
        stroke-width: 0px;
      }

      .cls-5 {
        fill: none;
        stroke: #fff;
        stroke-miterlimit: 1.96;
        stroke-width: 1.96px;
      }

      .cls-2 {
        fill: #fff;
      }

      .cls-3 {
        fill: #002156;
      }

      .cls-4 {
        fill: #0072ba;
      }
    </style>
  </defs>
  <g id="Livello_1-2" data-name="Livello 1">
    <g>
      <g>
        <path class="cls-3" d="m135.47,240.7l-.32-.09c-29.51-8.27-50.92-27.9-50.96-27.93-18.43-15.77-27.86-34.32-32.14-54.04-1.11-5.12-1.77-15.33-2.21-27.99-.44-12.66-.62-27.68-.67-42.1-.1-28.83.33-55.21.33-55.21l.02-1.19,171.06.06.03,1.18s.66,26.3.79,55.04c.06,14.37,0,29.36-.35,41.98-.35,12.63-.95,22.82-2.07,27.94-4.29,19.72-13.72,38.26-32.14,54.03-.04.04-21.51,19.93-51.03,28.22l-.32.09Z"/>
        <path class="cls-2" d="m218.7,34.28s2.61,104.28-1.6,123.63-13.41,37.47-31.49,52.94c0,0-21.18,19.6-50.14,27.73-28.96-8.12-50.08-27.46-50.08-27.46-18.08-15.47-27.28-33.58-31.48-52.93-4.21-19.36-2.5-123.97-2.5-123.97l167.28.06Z"/>
        <path class="cls-4" d="m162.17,54.23c1.11,1.28,2,2.78,1.92,4.43-.54,1.38,1.14,1.79,1.32,2.99.86,1.56,2.24,2.37,3.32,3.68l.87-.21c2.75-1.94,5.45-4.43,7.96-6.46.9-2.27,2.48-5.06,5.29-5.51,1.56-.3,2.72.03,4.1.54.9.54,1.2,1.47,2.03,1.94.51.93.57,1.83.96,2.69.12,2.48-.99,4.55-2.9,5.8-1.94,1.35-4.19.33-5.8,2.27-2.04,1.65-4.4,3.83-6.46,5.38-.06.84.63,1.14.96,1.7.99,1.32,2.36,3.05,3.68,4.22,1.59.3,3.47,1.05,4.39,2.48l.33.09.96,2.16.12,2.36c5.29.3,10.56,2.3,13.34,7,3.98,4.13,11.99,4.87,13.7,11.55.6.51.09,1.28.84,1.82.15,2.27,1.32,4.16,2.48,6.01.27.36.75.6.87.99-5.44-.33-9.48-4.28-12.71-8.41-.84-1.46-2.63-1.55-3.98-2.27-1.62-.3-3.23-.63-4.84-.96-.21-.27-.6-.15-.87-.33l-.21.21c.87,1.32,2.45,2.21,3.77,3.14,2.84.96,6.07,3.32,6.88,6.25,1.28,1.82,1.13,4.34,2.81,5.92-.21.27.21.57.33.84.15.63.54,1.14.75,1.73-1.47.03-3.11-.45-4.51-.54-.75-1.02-2.07-.6-2.82-1.62-1.25-1.17-2.75-2.75-4.63-2.9-2.18-.9-4.82-.9-6.67-2.37-2.57-1.31-3.8-4.04-6.13-5.71-.78-.48-1.71-1.08-2.69-1.28-3.08-1.02-6.67-.42-10.02-.12-2.81-.3-5.71-.09-8.08-1.82-3.89-1.32-7-5.24-10.02-8.08-1.46-.51-2.33-2.75-4.19-2.06-.96.36-1.68,1.56-2.48,2.06-2.99,1.53-5.11,4.49-8.07,6.13-.6,1.28-2.48,1.59-2.78,2.9,1.53.93,3.53,1.11,5.27,1.29,3.65.48,7.59.27,11.42.33,3.44.84,6.64-.24,10.23.21,2.13,1.35,5.35.09,7.63,1.07.9,0,1.86.51,2.69,0,2.58.63,5.24.96,7.87,1.41,3.56,1.47,6.97,3.71,10.11,5.72,1.55,2.12,3.53,4.34,5.83,5.59,2.39,2.51,3.95,5.08,5.71,7.87.3.96,1.05,1.16,1.62,2.03.12.3.3.83.63,1.2.48,4.31,4.01,8.28,3.35,12.92,2.03,5.89-3.23,9.84-5.06,14.66-1.71.09-2.18,2.42-4.22,1.7-1.26.93-3.14-.54-4.19.87-1.23-.66-2.24-.09-3.23.66-2-.18-3.32-1.59-4.96-2.39-1.08-.27-2.06-1.08-3.11-1.08-1.35.18-2.93.66-4.22,0-2.15.18-3.23-.75-5.38-.3-2.27.24-4.76.12-6.46,1.83-3.65,2.3-6.43-2-9.99-1.2-.42,1.07-1.68,1.01-2.6,1.28-1.59,3.05-4.87.63-7.09.45-1.29-.99-2.6-2.07-2.81-3.68-.63-.66-1.71-.51-2.48-.54l-5.27.12c-.36,1.11.18,1.89.21,3.02.36.63.75,1.38.42,2.16-.72.57-1.71-.15-2.57-.21-2.66-.63-5.32-.6-7.96-.87-3.41,1.58-7.63,1.52-11.43.87-1.68.48-3.5.03-5.06-.45-1.62.03-3.5.03-5.06-.42-4.04.27-7.3.33-11.1.42-2.18-.39-4.58-.33-6.25-1.94-1.68-.6-2.63-2.42-3.77-3.44-1.05-1.2-.93-2.93-.66-4.19.54-1.17,1.59-1.85,1.62-3.23,2.21-1.05,3.77-3.65,6.37-3.77,1.67-.54,3.2-1.47,4.84-2.15.63-.93-.66-1.56-.87-2.36-.54-.24-1.28,0-1.82-.24-.99-.66,1.17-3.56-1.2-1.92-3.68,2.87-7.18,5.74-10.97,8.82-1.2,1.59-3.53,2.42-5.06,3.86-2.75,2.09-4.93,5.06-8.08,6.58-.96.69-1.97.99-3.14.54-1.52-1.14-2.51-2.78-3.77-4.31-.39-.72.72-1.49.33-2.37,1.35-2.39,4.16-3.53,5.83-5.59-.81-.69-2.15-.06-3.02-.53-1.55-1.17-3.62-1.38-4.96-2.81-.45-.09-.84-.6-1.08-.96,1.23-2.09,3.53-3.17,4.97-5.17,1.34-.69,1.23-2.18,2.48-3.02l2.04-3.23c3.14-3.29,7.72-4.97,11.18-8.28,1.32-1.32,2.75-1.74,4.01-3.02,1.97-.75,3.95-2.6,6.46-1.73,1.44.45,3.11.3,4.31,1.41.78.12.78,1.23,1.71,1.2.3.24.27.78.75.75,1.65-1.59,1.26-3.59,1.86-5.59-.06-1.86-2.42-1.97-3.77-2.6-2.15-1.47-4.76-2.57-6.37-4.61-1.35-1.2-3.38-2.27-4.1-4.1-1.08-1.62-1.82-3.35-2.9-4.97-.6-2.87-2.3-5.38-2.24-8.4-1.25-3.26-.42-6.31-.12-9.69.03-1.44,1.2-2.45,1.07-3.98.42-.57.75-1.2.75-1.94,2.42-7.12,9.66-13.28,16.15-16.24,2.93-.99,5.74-2.51,9.06-2.27,1.62-.42,3.56.36,5.27-.21,3.17.36,5.89.87,8.73,2.03,2.06.42,3.68,2.13,5.47,2.93,2.21,1.7,4.07,3.89,6.58,5.38.27,2.45,2.78,3.71,3.23,6.13.83.51.54,1.49,1.08,2.15,1.44,2.69,2.12,5.45,2.69,8.41.66.69-.03,1.94.87,2.57-.06.27-.15.54-.12.87,0-.12.03-.27-.12-.33h-.09c-.15,1.44.33,2.63.21,4.31.18.36.33.06.54,0,.09-.03.15.06.21.12.09-.69.87-.69,1.2-1.07,1.4-1.35,3.05-2.39,4.4-3.68,6.01-3.92,10.71-8.68,16.48-12.71-.18-1.68-1.86-2.42-2.37-3.98-.63-.36-1.05-1.02-1.41-1.62l-.09.12c-.12-.3-.24-.3-.45-.54-.86.3-1.28-.53-2.03-.53-2.12-.93-4.16-3.02-4.1-5.59-.36-2.27,1.65-4.31,3.44-5.51,2.09-1.07,5.05-.66,6.91,1.08"/>
        <path class="cls-2" d="m161.73,56.6c.6.96.72,2.09.33,3.02.39.99,1.38,1.94,2.03,2.9,1.53,1.58,2.57,3.32,4.22,4.84.93.21,1.32-.84,2.03-1.08,3.11-2.21,6.07-4.58,9.16-7.09-.21-1.76,1.14-3.26,2.48-4.01,1.44-.72,3.14-.48,4.52.24,1.02,1.04,2.07,2.36,1.62,3.77.27,1.53-1.01,2.51-2.03,3.53-1.14.87-2.45.6-3.77.66-3.2,2.54-6.52,5.23-9.48,7.87-.54,1.01.87,1.79,1.29,2.69,1.52,1.83,3.02,3.65,4.52,5.47,1.47.18,2.99.81,3.89,1.94.93,1.35.93,3.23.12,4.76-1.11,1.53-3.17,1.94-5.08,1.7-1.14-.9-2.72-1.68-2.9-3.32-.48-.99,1.25-2.24-.42-2.48-1.82-2.87-4.07-4.7-6.04-7.21-2.12.45-3.29,2.51-5.17,3.53-4.7,4.07-9.81,7.24-14.42,11.55-2.9,2.06-5.65,4.78-8.94,6.46-1.89,2-3.98,3.41-6.13,5.06-1.34.21-1.85-1.64-2.81-2.48-.39-1.67,1.38-1.94,2.27-3.11.99-.42,1.5-1.5,2.58-1.94.77-1.56,2.81-1.41,3.89-2.9.99-.36,1.41-1.44,2.48-1.61.84-1.05,2.21-1.47,3.02-2.6,5.03-4.1,10.77-7.93,15.82-12.05,1.2-1.47,3.14-2.24,4.19-3.56-.18-1.31-1.41-1.88-2.04-3.02-.18-.81-1.26-.84-1.41-1.71l-3.23-3.44c-1.52.06-3.17-.77-3.98-2.27-.9-1.35-.66-3.56.21-4.85,1.25-1.08,2.93-1.47,4.63-1.2.99.33,2,1.11,2.57,1.94"/>
        <path class="cls-2" d="m120.93,57.79c.24.78,1.05.15,1.62.63,2.39,1.97,4.93,3.62,7.21,5.92,4.01,4.9,6.4,10.86,7.75,17.02.24,1.68.51,3.35.12,4.76l.21.21c-.06,1.05-.3,2.57-.21,3.56-2.42,2.45-5.44,3.74-7.87,6.01-.96-.03-1.2-1.08-1.61-1.71-2.13-2.42-5.32-5.08-4.19-8.41,1.11-.36,2.21.24,3.32-.12,1.41-.3,2.21-1.41,3.02-2.48-1.95-2.69-4.61-4.16-7.96-4.4-1.05-.51-2.78.21-3.23-1.2-.24-.96-1.41-1.41-2.16-1.94-1.17-.18-1.89-1.35-3.23-1.07-.42-.51-1.14-.6-1.62-.54-2.15-1.41-4.1-1.38-6.58-.96-1.65-.42-2.63,1.05-4.19.54-.78.33-1.5-.06-1.94-.66-1.53-.24-2.45.69-3.23,1.73.69,1.08.39,2.72,1.07,3.89,0,1.68-2.06,2.03-3.02,3.23-1.74.51-2.18,2.13-3.77,2.99-.78,1.11-2.6,1.49-3.02,3.02-1.07,1.17-1.37,3.2-1.94,4.64-.33,1.64.45,3.08,1.41,4.31.89.39,2.09.54,3.02,1.08.6.8,1.65.54,2.48.75,1.89.9,5.56-.21,5.59,2.9-.75,1.49.48,2.33.21,3.89.42,1.52-.3,2.96-.21,4.43-1.94-.24-3.44-1.59-5.17-2.39-3.56-2.07-7.42-5.45-9.03-9.45-1.74-2.51-2.42-5.41-3.44-8.2-1.82-8.88.51-18.72,7-25.1.81-.39,1.41-1.28,1.83-1.94,2.93-2.24,5.68-4.76,9.24-5.68.96-.66,2.31-.84,3.47-1.2,1.53-.87,3.62-.39,5.27-.96,5-.03,9.66,1.01,13.79,2.9"/>
        <path class="cls-2" d="m100.56,75.23c-.06.96-.87,1.35-1.08,2.27-.51,0-.96.21-1.38-.33-.9-.57-.09-1.47-.33-2.27.18-.33.54-.63.87-.75.78.03,1.68.24,1.92,1.08"/>
        <path class="cls-2" d="m110.7,75.65c.12.45.24.99.63,1.2.51.03.81-.45,1.2-.66,1.46.27,2.6,1.68,4.18,1.31.27.3.6.24.78.63.45.87-1.02,2,.42,2.15.84-.06,1.82-.45,2.27.54.09.6-.12,1.14-.54,1.41-.69.36-2.07-.63-2.15.33.45.9,2.06.69,1.7,1.94.72.57,2.57.06,2.27,1.38-.99.66-2.57.15-3.77,0-.63.27-.12,1.02-.45,1.41-.75.33-.99-.78-1.17-1.29.6-2.12-.99-3.62-1.29-5.5-.75-.87-1.85-.81-2.69-1.38-.72-.39-.96-1.65-1.95-1.53-.42.36-.96.93-.45,1.41.3.48.9.21,1.31.42.72.84.72,2.06.54,3.14-.12.45-.6.9-1.08.87-2.03.03-3.83-.66-5.08-2.28-.21-.69-.06-1.08.12-1.73.96-.66,2.21.42,3.23-.09-.06-.63-.75-1.04-1.2-1.41-1.08.24-2.54.15-3.44-.75-.45.09-1.14-.24-1.29.33-.03.99,1.41.63,1.2,1.71-.12.93.51,1.92,0,2.6-.51.12-1.28.51-.87,1.17.72.6,0,1.35-.21,1.94-.39.36-1.13.66-1.31,1.29.21.57.87.3,1.2.21,1.05-.45,1.65-1.68,1.83-2.78.33-.24.8-.48,1.2-.21.27,1.28.87,2.42,1.83,3.44.63.18,1.58-.45,1.49.54v.32c-.86.33-2.12-.3-2.78.54.03.3.33.6.63.63,1.2-.15,2.75-.27,3.56.54.63.9-.54,1.13-1.07,1.28-1.62.06-2.72-1.2-4.1-1.82-1.41.06-1.97,3.14-3.65,1.52.12-.3.21-.6.33-.87-.24-.51-.96-.24-1.28,0-1.26,1.26-2.96-.21-4.31.42.33,1.74,2.57.72,3.77,1.29,1.38.12,2.6.72,3.65,1.41-.66.81-1.89,1.11-2.9,1.41,0,.27-.45.33-.33.66.42.99,2.75.12,1.83,1.71-1.79-.03-2.96,2.39-4.85,1.2-.21-.48.06-1.23-.63-1.41-1.38-.03-2.55,1.44-3.77.75-.09-1.41,1.83-1.37,2.69-2.24.69-.09,1.14-.72,1.92-.54.18-.21.45-.36.33-.66-.9-1.04-2.07.18-3.11-.21-1.11.84-2.31,1.26-3.02,2.57-.9.48-2,.48-2.9,0l-1.62-1.17c-.93-2.24.54-4.93,1.94-6.79,2.9-1.47,4.28-4.6,7.3-5.83,1.47-1.77,4.34-2.66,4.76-5.15.57-.99,1.7-1.55,2.69-2.06,1.29-.06,2.63-.03,3.32,1.08,1.05-.12,1.25-1.82,2.48-1.17l.66.84Z"/>
        <path class="cls-2" d="m168.1,77.27c1.73,1.79,3.2,3.59,4.72,5.3-.12.75.21,1.58.12,2.48-2.51-1.7-4.19-3.92-5.92-6.58-.6-.75.51-1.25,1.08-1.2"/>
        <path class="cls-2" d="m167.86,82.02c1.85,2.33,3.8,4.43,6.46,5.47,1.29,1.71,3.41,2.57,5.62,2.15.57-.48,1.41-.3,1.91-.96.81-.18,1.25-.66,1.86-1.08.53-1.88,2.57-.87,3.86-1.29,1.53.42,3.02.87,4.52,1.29,1.49.81,3.05,2.03,4.01,3.44,2.15,1.56,3.53,4.55,6.34,4.97,2.18,1.58,5.21,1.89,6.79,4.31.63,1.05,1.62,1.97,1.83,3.23.75,1.41,1.14,2.99,1.61,4.52.15.72.57,1.35.75,2.04-.78.45-1.26-.51-1.94-.63-3.8-1.76-5.44-6.25-9.03-8.28-1.49-.18-2.69-1.02-4.19-1.2-.3-.33-.42-.75-.66-1.08-.6.15-1.17.9-1.83.33-.63-.33-.99-.6-1.2-1.28.27-1.02-.72-2.07.54-2.48.9-.75,1.83.69,2.6-.12-1.16-.72-1.76-2.3-3.35-2.48-.36.45-.39,1.2-1.08,1.31-.48-.09-.93-.81-1.41-.24.12.81,1.89.99.75,1.94-1.23.78-2.13-.48-3.23-.63-.99-.69-2.45-.66-3.65-1.08-1.23.18-2.66-.96-3.35.42.57.9,1.85.45,2.69.87,1.47.63,2.93,1.25,4.22,2.36,1.13,1.59,2.36,3.53,4.1,4.52,2.04,2.45,5.38,2.66,7.75,4.76,2.55,2.42,3.32,5.8,4.73,8.82v.96c-1.32-.63-2.96-.42-4.1-1.49-1.91-2.72-4.93-3.5-7.75-3.98-.93-.6-.03-1.49-.09-2.27.42-.66,1.29-.6,1.92-.42.51-.06.75.53,1.32.29l.42-.63c-.57-.77-2.3-.48-2.15-1.82-.93-1.17-2.61-1.17-3.44-2.48l-.45.42c-.06.99,2.39,1.07.99,2.15-.33.45-.87.09-1.2-.09-.72-.63-1.38-1.17-2.15-1.86-.84.57-.27,1.23,0,1.86.87.36,1.28,1.28,1.94,1.92-.18.75-.87.9-1.49.66-1.94-.48-2.75-2.37-4.1-3.56-.99-.87-.84-2.51-.53-3.65l-.33-.33c-.72.75-1.08,1.7-2.27,1.61-2.72-1.52-5.86-1.08-9.03-1.49-.24-.3-.78-.3-.75-.78.15-.54-.66-.54-.21-1.07-.99-.51,0-1.29,0-1.92.39-.63,1.46-.09,1.62-.87-.51-.27-.93,0-1.2-.54.63-1.29,1.89.21,2.81-.54-.27-.72-1.43-.15-1.52-1.08.39-1.08,2.66.42,2.27-1.29.48-.81,1.79-.96,1.83-2.15.48-.3,1.55.18,1.49-.66-.57-.42-2.01-.06-2.9-.33-.33.39-.18,1.14-.87,1.2h-.3c.24-.75-.36-1.29-.87-1.62-.51.06-1.2-.63-1.52.21.09.45.48,2.03-.75,1.73-.96.36-1.07,1.82-2.24,1.91-.42,0-.6-.48-1.07-.3-.87,1.26,2.15,1.41.42,2.37-.75.36-1.73-1.23-1.82.09l1.07.87c-.87,1.58-1.82,3.23-3.44,4.1-1.04.36-1.86-.54-2.69-.96-.21-1.01.21-2.39,1.08-3.14.09-.3-.15-.45-.33-.63-.78-.33-.42.69-.99.75-.15.75-.84,1.08-1.29,1.62-.36.15-.87-.21-.96-.66,0-1.02.69-1.98,1.49-2.48.36-.33.75-.69.75-1.17-.87-.33-1.44-1.73-2.37-1.62.06.96-.39,1.65-1.07,2.24-.51.27-1.08.39-1.7.33-.84-.45-1.35-1.11-1.74-1.94-.15-.42.54-.69-.12-.96-1.05.6-1.89-.69-2.9-.87-.45-.3-.54-.75-.63-1.17.42-.27.03-.87.3-1.2,3.2-2.63,6.55-5.08,9.6-7.87l3.11-2.04c1.4.33,1.79,1.95,2.9,2.69"/>
        <path class="cls-2" d="m127.72,81.69c.45.63,1.17,1.56.42,2.27-.48.15-.72.9-1.29.84-.6.03-.9-.36-1.08-.84.24-1.25-1.2-.75-1.73-1.32-.75-.51-2-.24-2.37-1.16-.24-.81.33-1.11.87-1.41,2.15-.54,3.35,1.26,5.17,1.62"/>
        <path class="cls-4" d="m166.24,83.19c-.18.18-.33.45-.63.33-.18-.15-.15-.51.09-.63.3-.12.36.21.54.3"/>
        <path class="cls-4" d="m102.41,83.43c.15.27.15.72-.12.96-.51.6-1.23.69-1.82,1.07-2.03,2.31-4.63,3.59-7.33,4.52-.81.63-1.52,2.13-2.57,1.53-.3-1.14.84-1.76,1.5-2.39.93,0,1.16-1.11,2.27-.84,2.06-.84,4.61-2.39,5.26-4.84h2.81Z"/>
        <path class="cls-2" d="m115,84.59c.03.81-.99,1.53-1.2,2.27-.57-.03-1.59.12-1.94-.54v-1.94c1.2.12,2.81-2.15,3.14.21"/>
        <path class="cls-2" d="m122.54,88.36c.21,1.49-1.14,2.18-1.73,3.23.09.89.36,2-.21,2.9.15.36.63.24.87.12.66-.93,1.29-1.56,1.71-2.57.3-.18.57-.45.99-.33,1.17,1.68-1.2,2.66-1.29,4.19-.12.33-.27.75-.66.87-1.2-.36-2.06.42-2.9,1.08-.42.21-1.11-.24-1.53.21-.15.39.33.63.54.75.72.12,1.71-.3,1.94.66.06,1.17-2.75,1.5-.96,2.69.69-.18,1.14.27,1.7.42.81-.09,1.11-1.73,1.94-.75.3.99-1.46,1.55-.33,2.15.96-.48,2.04-.96,3.14-.75.03.39.51.6.33,1.08-.24.57-.96.18-1.08.75.21,1.23,1.55.36,2.36.54.54-.48,1.23,0,1.83,0,.36.63.21,1.61.21,2.27-.51.42-.81,1.14-1.7.87-.21-.27-.06-.69-.45-.87-1.17.03-1.08,1.31-1.49,2.03.69.99,1.44-.54,2.36.12.66.51,1.82.57,2.57.21,1.02-1.2,2.66,1.5,3.02-.66-.33-.63-1.76-.57-1.07-1.62,1.17-.51,1.49-2.48,3.14-1.7.45.12.69.57.84.96-.03,1.05-2.15,1.38-1.08,2.48.96.15,1.62-2.15,2.39-.54,0,.48-.12,1.02.42,1.29.87-.24,1.53-1.31,2.57-.75.42-1.47,2.21-1.08,2.6-2.36,1.32.66,2.39,0,3.77.54,1.32.12,1.73-1.62,3.11-.99.87,1.04-.36,2.15.66,3.14-.51.42-1.11.69-.87,1.5.42.36.9.33,1.29-.09.63-.45.09-1.56.86-1.74,2.16-.63-.21,2.15,1.62,1.74.24-.87.72-1.65,1.61-1.94.81-.09,1.59-.36,2.27.21.48.27.3,1.23,1.08,1.29,1.35-.24.9-2,1.61-2.9-.06-.3-.32-.51-.54-.75l-1.32-.12c-.33-.42.15-.77.45-1.07.83-.21.57.87,1.28.99.69-.27,1.44-.03,2.03.21.9.96.03,1.76-.3,2.78-.39.27-.51.66-.45,1.08,1.04.77,1.94-.81,2.9-1.17.96-.18,1.79-.87,2.6.09.36.33.45,1.04,1.08.99,1.08-.81-.39-2.18.87-2.6.93.18,1.71.66,2.57,0,.6-.18.09-1.47.96-.96.66,2.54,3.65,1.44,4.76,3.56.9.93.54,2.15.54,3.11-.21.6-1.29.45-1.08,1.29.33.63.99.18,1.41,0,.3-1.79,3.29-.33,2.69-2.45-.63-.54-1.35-1.05-1.2-1.94.18-.42.69-.39.96-.21.42.36.33,1.37,1.2,1.07.75-.21.24-1.68,1.29-.99.57.24.57,1.05.53,1.52-.72.66-2.15.78-2.15,2.04.66,1.34,3.08.3,2.69,2.36.03,1.01-.12,2.06.54,2.81.87.54,1.41-.66,2.15-.33.27-.32.93-.32,1.2,0,.03.3,0,.84-.45,1.08-.45,0-.99-.48-1.38,0-.33.3-.36.75-.33,1.2,1.2.86,2.12-.84,3.32-.87.66-.84,1.68-2.34,2.81-2.37.78,1.17-1.04,2.1-.12,3.32v.33c-.63.51-1.29-1.04-1.71.12.15.93,1.08,1.79.42,2.78.3.51.87.36,1.29.54.54.63.09,1.73,1.32,1.62.9-1.11-1.94-3.68.75-3.32.69.48-.09,1.92,1.08,1.83.48-.51.69-1.29,1.5-.99.24.3.32.66.45.99-.33.75-1.59,1.47-1.2,2.48.51,1.05,1.94.66,2.81.75.9.84,2.09,1.44,3.23,1.94.27,1.53-2.96.63-1.52,2.24.66.18,1.65-.75,1.82.33.54,1.35-.24,2.72,1.08,3.89.12.3-.15.45-.3.63-1.65-.12-3.14-.3-4.55.45-.09.27-.45.45-.3.83,1.08.72,2.45-1.34,3.32.45.84,1.89-1.58,3.38-.42,5.27.66.42,1.32.06,1.83.66.77,1.41-1.41,1.59-1.2,2.9-1.26.39-2.93-.39-3.98.66-.21,1.52,2.1.9,2.36,2.45-.3.9-1.17.06-1.7,0-.6.63-1.53,1.41-1.41,2.28.15,1.01,2.01-.24,1.5,1.07-.33.87-1.38,0-1.71.87-1.32.21-2.42-1.65-3.77-.66-.03.51.42.81.63,1.2-1.44.12-2.27-1.64-3.86-1.61-.48,0-.87.36-1.08.75.03.63-.39,1.11-.99.87-1.32-.99.75-2.03-.09-3.35l-.87-1.41c1.26-.72.39-3.86,2.48-2.69.15.36.63.24.87.12.48-1.38,1.47-1.88,2.57-2.81-.72-1.65,3.59-3.14.21-3.44-.39-.3-.03-.84.12-1.17.45-.24,1.23.06,1.41-.66.57-1.14-2.03-1.05-.65-2.27.27-.33.51-.69.41-1.17-.21-.27-.69-.3-.96-.12.03-.63.27-1.38.87-1.61l.54.53c.63-.51.15-1.44,0-2.24-.12-.36-.48-.6-.86-.54-.51.48.11,1.41-.54,1.82-1.61-.21-.93-2.45-1.4-3.44-.27-.54-.69-1.17-1.17-1.41-.36-.24-.81-.03-1.08.21-.33,1.05,2.03,1.44.42,2.27-.09.63.78,1.02.33,1.7-.9.27-1.83,1.08-2.6,0-.36-.15-.42.24-.54.45,1.41,2.31-2.99,2.6-.3,4.73,1.41-.24.81-2.09,2.03-2.81.21-.27.63-.51,1.08-.42.36.15.24.63.12.87-.6.45-.99,1.17-.66,1.94.66.75.15,1.86,0,2.69-.93.78-1.35,1.79-1.29,2.99-.57.99-1.92,1.47-2.06,2.81-.42,1.17-1.89,2.09-2.15,3.44-.18,1.25.96,3.02-.54,3.77-.81,0-1.68-.33-2.04-.96-.36-1.2,2.18-1.14.66-2.37-.72-.24-1.05.36-1.52.63-1.59-.21-3.2.99-4.4-.42-1.29-.27-2.34,1.49-3.35,0-1.2-.15-2.6-1.41-3.65-.33-.33.18-.36.57-.33.75-.18.18-.36.42-.66.33-1.29-.75-.96-2.28-2.04-3.02-.8.42-1.7-.39-2.36.33-.45.42-.54,1.08-.33,1.62.8.84,2.27.06,3.02,1.08.51.33.36.81.3,1.28-.93.84-2.15-.77-2.78.54,0,.78.75.93,1.28,1.2.36-.03.63.39.75.63-1.92,1.65-4.16-.18-5.92-1.07-.81-.51-1.59-1.11-1.62-2.15.33-.81,2.28-.69,1.08-1.82-.39-.39-1.2-.96-1.83-.42-1.16,2.45-1.91-1.53-3.23,0-.06,1.11,1.41,1.01,1.94,1.62.33.87.3,1.76.09,2.57-.66.33-1.02,1.31-1.83,1.28-.36-.51-.06-1.49-.96-1.61-1.7.09-3.29.99-4.21,2.48-.6.21-1.02-.33-1.29-.75-.03-1.41,1.68-2,2.27-3.23.6-.84.84-1.8,1.94-2.16.03-1.08-.87-2.78.54-3.44,2.72-1.73,6.07-1.79,9.03-.54l1.41-.33c3.62-.09,7.24.48,10.65,1.2.86-.03,1.64-.18,2.27-.78.33-.36-.24-.87-.66-.96-2.24.12-4.01-.93-5.92-1.62-.81-2.09-3.17-1.25-4.52-2.48-2.45-1.04-5.89-2.45-6.04-5.71-1.53-2.96-.3-6.25.12-9.36-.21-.54-.87-.3-1.2-.21-.54.36-.6.93-.84,1.41,1.47,2.45-1.44,3.92-.45,6.55.57,1.41,2,2.87,1.53,4.31-.48.18-.96-.27-1.41-.42-.63-.84.84-2-.45-2.69-1.44.06-1.17,1.38-1.5,2.36.39.93,1.92,1.55,1.2,2.81-.27,1.14-1.89.75-2.15,2.03-.27,1.76-2.45,1.08-3.47,2.15-.09.84.53,1.65-.3,2.06-.93.18-1.25-1.29-2.27-.87-.48-.54.39-1.05.42-1.62.84-.81,2.51-.66,2.6-2.06-.93-.84-2,.78-2.9-.09-.71-.33-1.23.48-1.31.96-.06,1.08-.87,1.73-1.71,2.27-.99.18-2.06.24-2.36-.87.03-1.29,1.17-2.3,2.36-2.69.45-.42.93-1.08.42-1.61-.66-.39-1.28-1.08-2.15-.66-1.65.81.99,2.18-.75,2.93-.42-.42-1.04-.33-1.61-.33-1.17.72-1.5,2.69-3.11,2.36-.24.06-.57.36-.45.54.72,1.49,2.42-.69,2.9.87-.63,1.68-2.51,1.23-3.86,1.62-.27-.45-.87-.06-1.2-.33-1.14-1.62-5.08-.54-3.98-3.56.42-.63,1.41-.42,1.83-1.29h.54c.51.87-1.76,1.32-.21,2.04,1.85.3,1.76-2.96,3.65-1.62,1.44-.36,2.12-1.7,2.69-2.9.75-.96-.93-1.73-.21-2.69.27-.33.66-.78.21-1.17-.75-1.14-1.55,1.35-2.15-.12,0-.77.15-1.49-.54-2.15-.45-.3-.75.12-1.08.42-.54,1.11.18,1.56-.21,2.69-.72-.06-.87-.84-1.61-.84-.39.24-.48.63-.42,1.08.15.33.66.66.33,1.08-.39.09-.78.53-1.2.21-.9-.48-.99-1.59-.75-2.49.45-1.04,1.7-1.76,1.49-2.81.48-.75,1.68-.18,1.83-1.28.27-.06.57-.24.66-.54-.51-.8-1.28.18-2.03,0-.84-.27-1.68-.84-1.62-1.71.18-.69.39-1.38,1.08-1.85.57.15.93,1.7,1.83.66.36.54,1.11.93,1.7.75,1.08-.99-1.05-1.47-.75-2.58.75-.45,2.1.54,2.06-.87-1.4-.12-2.06-2.57-3.56-1.2-.15.6-.06,1.47-.75,1.62-.87-.03-1.79-.03-2.15.87-.09,1.11-.18,2.1-.78,3.14-.93-.33-.75-1.68-1.7-2.27.21-.3-.06-.78.42-.96.42,0,.96.03,1.08-.45.09-.45-.24-1.02-.75-.96-1.17.78-2.58.27-3.89.42-.27.3-.78.66-.42,1.08.51.87,1.5.6,2.27.87-.45,1.58,1.56,1.68,1.83,3.02-.06.42.15,1.31-.54,1.4-1.23.06-2-1.52-3.35-1.4-.93-1.2-2.36-.3-3.44-1.2-.75-.63-.75-1.97-2.03-1.7-.57.21-.33.93-.24,1.29.6.78,2.06.57,2.27,1.82-.18.33-.33.81-.12,1.2.36.06.6.72.99.3.45-.36.87-1.17,1.49-.75.51.54.24,1.58,1.2,1.73.53-.06.9-.6,1.49-.53.12.84-1.74,1.31-.75,2.24.78.78,2.15.24,2.69,1.32.21.48.12,1.14-.33,1.49-1.82-.03-3.98-1.73-5.26.42-.27-.06-.48.24-.54.45-.15.45.18.81.54.96,1.08.45,2.66-1.83,2.69,0-.21.72-1.01.48-1.41.45-.24-.06-.51-.42-.75-.12-.6.18-.57.77-.54,1.28.33.39.54.84.96,1.2l1.2-.12c.24.45-.48.75-.21,1.29.42.72,2.06.9,1.28,2.15-.99.57-2.21-1.14-3.14.24-1.62-1.04-1.65,3.14-2.57.42-.15-.72.99-1.32.12-1.94-.99-.45-.96,1.05-1.73.87-.6-.6-1.14-1.29-2.03-1.08-.39.33-.69.66-.54,1.2.75,1.68,3.92-.24,2.99,2.37-.36.53-.78.3-1.29.21-1.14.39-2.21,1.23-3.56.87-1.17-.45-2.07-1.67-3.32-1.94l-.45.42c-1.17-.36-2.18-1.35-3.53-.96-.75,1.11-1.08,2.75-2.69,2.81-.8-.3-1.59.06-2.39.09.33-.66,0-1.52-.75-1.71-.75-.24-1.23.33-1.62.75-.06.48.69.87.12,1.29-1.02-.27-2.1-.03-2.9.54-1.11-.99.86-2.6-.87-3.11-1.62-.63-1.86,2.4-3.44.84-.84.48-2.18.18-2.6,1.2-.03.3.15.81.54,1.08,1.29.33,1.89-.96,3.02-.96.3.54-.45,1.05-.75,1.37.45.69,1.32,1.11,2.16.78.78-.81,1.7.06,2.48.3,2.07.89,3.8-1.29,5.59.24,2.21.99,4.76-2.06,6.01.54-.03.48.24,1.08-.3,1.38-.54-.03-1.02.06-1.41.33-.24.69.33.96.75,1.2,1.26.24,2.33-.96,3.44-.12.63.12,1.53-.27,1.83.33.15.51-.33.96-.63,1.08-2.34.18-4.43.15-6.67-.12-.99-1.01-2.51.24-3.56-.63-1.4-.12-3.02.39-3.98-.87-1.85-.54-3.53.54-5.5.33-.21-.57-.87-.8-1.41-.54-.54.33-1.08.69-1.83.54-.27-.75-.15-1.68-1.2-1.82.06-.51-.48-.84-.75-1.08-.99-.3-2.87,1.17-3.11-.66.81-1.86-1.25-3.59.54-5.18,2.48-1.82,5.21-3.11,7.75-4.84,3.56-1.2,7.36-1.82,10.98-2.9,1.82.09,4.15-.81,5.92.42.39.03.87.03.99-.42-.06-.48-.63-.99-.12-1.41.81.15,1.44-.18,2.03-.54,1.68-.69,3.98-.27,5.17-1.62.18-.57-.6-.51-.75-.63-1.65.54-3.41.69-5.06.96-.09,1.08-1.08.21-1.62.33-1.97-.96-1.97-3.11-2.48-4.85-.51-.45-1.62.06-1.73-.86.15-.84,1.35-1.29,1.41-2.04-.45-.24-.96-.36-.96-.99-.18-1.2,1.89-1.05,1.28-2.37-.51-.75-1.85-.21-1.94-1.28.09-1.44,2.57-1.89,1.73-3.56-.27-.3-.53-.54-.99-.42-.06.21-.24.36-.42.54-1.04-.3-2.3.33-3.23-.87-.39.03-.93-.57-1.2.09-.09,1.52,2.69,1.2,2.06,2.93-.48.39-1.14.36-1.52.96.03.42.33.93.87,1.07.75-.18,1.44.18,1.61.87.54.39-.03.99-.42,1.17-.54.12-1.2.12-1.41.77,0,.39.27.9.75.84.18-.12.42-.09.66-.09.06.21.3.36.21.63-.57,1.2-2.87-.63-2.04,1.41.21.3,1.02.36.63.87-.3.75-1.38-.15-1.5.75-.18.51.24.78.54,1.08.84-.03,1.94-.03,2.69.54.48.56.69,1.26.42,1.94-.18.27-.72.87-1.08.33l-1.07-.99c-.99.39-.45,1.29,0,1.86.24.24.66.51.33.84-.42.63-1.5.15-2.15.45-1.25.12-2.15,1.47-3.56.96-.96.06-1.47-.81-1.95-1.5.24-.81-.3-1.47-.96-1.73-.42-.06-.81-.12-1.08-.53-.12-.63.66-1.32.33-2.03-.66,0-.96-.78-.66-1.29,1.08-1.08-.75-2.16.33-3.23.63-.9.12-2.24.42-3.23.36-.78,1.65-1.02,1.32-2.06-1.82-1.53,1.17-2.66,1.08-4.31,1.23-.69,2.57-1.34,4.07-1.07.42-1.38-1.35-2.36-2.04-3.56-.48-1.31,1.86-2.9.12-4.07-.39-1.53,1.29-.15,1.62-1.2-1.41.03-.3-1.55-1.08-2.03-.69-1.28,1.26-1.61.54-2.93,0-.66-.51-.99,0-1.61-.45-1.23-.57-2.18-.24-3.32.9-1.25,2.36-1.79,3.56-2.27.57-.93,1.64-1.59,2.81-1.61.9.15,1.79.63,2.69.45.66-1.7,2.93-.99,3.56-2.81,1.38-1.62,1.11-4.22,3.44-5.17,1.31.45.06,1.94,1.08,2.6.72-1.14,1.11-2.57,2.15-3.35.81.03,1.89-.15,2.16.75"/>
        <path class="cls-2" d="m107.79,91.5c.18.48-.3.66-.33,1.08.18.57.18,1.44-.45,1.71-.45-.45-1.31,0-1.7-.33.27-.33.51-.6.54-1.08-.3-.33-.78-.72-.45-1.17.8-.09,1.76-1.29,2.39-.21"/>
        <path class="cls-2" d="m126.73,95.57c.6,2.39-2.33,2.42-2.48,4.43-.6.57-1.62-.24-2.24.21-.45-.48-.09-1.65.09-2.36.84-1.11,2.48.36,2.6-1.62.45-.54,1.35-1.73,2.03-.66"/>
        <path class="cls-2" d="m170.55,101.4c-.09.21-.18.48-.42.63-.48-.06-1.29-.18-.96-.96.24-.3.33-.3.63-.42.42,0,.75.33.75.75"/>
        <path class="cls-2" d="m131.78,102.9c.12,1.2-.6,2.48-.54,3.68-.24.15-.33.15-.63.09.6-2.07-3.02-2.9-.66-4.64.78-.09,1.65.06,1.83.87"/>
        <path class="cls-2" d="m142.01,107.12c.15.36-.21.42-.42.54-.33.03-.81,0-.75-.45-.03-.24,0-.3.21-.42.39-.06.8.06.96.33"/>
        <path class="cls-4" d="m167.23,108.49c-.03.24-.36.48-.54.24-.15.03-.21-.15-.33-.24-.09-.42.09-.57.42-.75.42,0,.72.39.45.75"/>
        <path class="cls-2" d="m178.86,108.73c.33.24.15.69.21,1.08-.54.03-1.08.39-1.62.09-.18-.33-.48-.6-.54-.96-.15-1.38,1.5-.63,1.94-.21"/>
        <path class="cls-4" d="m155.59,113.13c-.06.27.12.63-.21.75-.78.15-1.11-.54-1.4-1.08l-.12-.63c.77-.15,1.38.36,1.73.96"/>
        <path class="cls-2" d="m187.78,117.02c-.06.45-.24.84-.54,1.17-.45-.42-1.31-.42-1.49-1.07.21-.81-.42-1.86.12-2.69,1.02.45,1.94,1.58,1.91,2.6"/>
        <path class="cls-2" d="m94.33,118.84c.51.45.69,1.05.96,1.62-.06.48-.42.96-.87,1.2-1.11.12-1.94.81-3.02,1.08-.93-.21-1.73.56-2.58,0-.51-.75,1.17-1.11.12-1.86-1.29.45-2.84-1.89-3.47.33-.33,1.47-1.56,2.18-2.69,3.14.12.33-.36.72.12.96h.87c.06,1.35-1.29,2.15-1.94,3.23-1.53.9-.54,3.02-1.62,4.19-1.08.15-2.48,1.59-3.23.45-.21-.66-.21-1.58-.96-1.82h-3.14c-.21.39-.09.9.33,1.17.99.36,2.42-.42,2.57,1.08-.24.93-1.28,1.62-1.7,2.6-.24.36.12,1.41-.66,1.49-.33.03-.78,0-.75-.42.57-1.02-.09-1.62-.33-2.69-1.05-1.28-4.96-.33-3.65-3.23,1.8-1.76.75-4.42,3.56-5.38,2.45-.27,3.5-2.57,5.8-3.23,3.8-3.59,8.73-7.96,14.21-5.38.72.66,1.32.93,2.07,1.49"/>
        <path class="cls-2" d="m195.55,121.95c.15.63-.24.99-.66.99-.33-.3-.81-.42-.96-.87-.03-1.02,1.35-.87,1.62-.12"/>
        <path class="cls-2" d="m87.75,123.36l1.2,1.28c-.45.66-1.38.99-2.27.99-.51-.51-1.28-.36-1.94-.54.36-1.11,1.14-2.48,2.48-2.81.84-.18.21.78.54,1.08"/>
        <path class="cls-2" d="m94.1,126.38c-.36.93-.24,2.18-.75,2.9.39,1.14-.27,2.39,0,3.35-.66,1.85-2.81,2.36-4.1,3.86-2.84,2.39-5.62,4.96-8.71,6.79-.75.96-1.55,1.68-2.48,2.15-.48.06-.87-.69-1.28-.09-.24.21,0,.93-.21,1.29-.51.99-1.44,1.44-2.15,2.15-2.21,2.15-4.9,3.8-7.33,5.38l-.75-.12-2.48-2.69c.09-3.11,3.59-4.15,5.27-6.13,7.08-6.07,14.35-10.74,21.54-16.81,1.05-.93,2-1.8,3.23-2.45l.21.42Z"/>
        <path class="cls-2" d="m89.58,126.5c-.36,1.02-1.92,1.41-2.57,2.45-.45.39-1.14.84-1.53,1.31-1.13.63-2.21,1.94-3.44,2.45-.09-1.05.6-1.79.66-2.78,1.82-2.06,4.28-3.08,6.88-3.44"/>
        <path class="cls-2" d="m201.03,128.2l-.09.66c-.33.48-.72-.09-1.08-.12-.42-.36-.18-.99.21-1.29.42.03.93.3.96.75"/>
        <path class="cls-2" d="m71.18,135.65c-.21,1.68-1.2,3.17-2.27,4.31.42.72-.24,1.26-.87,1.38-.96-.06-2.18.15-2.57-.84.18-1.82,2.72-2.9,1.94-4.85-1.43,1.11-1.37,3.83-3.56,3.65-.24-.99.84-1.94,1.08-3.02,1.11-.6,1.41-3.11,3.23-2.16.93.72,2.3.27,3.02,1.53"/>
        <path class="cls-2" d="m72.56,139.72c-.18.36-.72.6-1.08.24-.33-.39-.06-.78,0-1.2l.66-.53c.63.21.6,1.01.42,1.49"/>
        <path class="cls-1" d="m203.09,139.84l-.12.66c-.29.12-.54.06-.75-.24l.09-.75c.3,0,.72-.06.78.33"/>
        <path class="cls-2" d="m137.95,140.26c.18.54.18,1.29-.45,1.62-1.11.18-2.15-.45-2.9.66l-.75-.12c-.18-.48-.21-1.41.42-1.83.24-.42.93-.54,1.41-.33.72.93,1.44.15,2.27,0"/>
        <path class="cls-2" d="m160.23,142.11c.27.54-.03,1.14-.33,1.62-.39.33-.66.39-1.2.29-.93-.63-1.32-1.67-1.29-2.78,1.08-1.35,1.82.69,2.81.87"/>
        <path class="cls-2" d="m142.13,147.38c.03.39.03.96-.42.96h-.33c-.21-.27-.09-.72-.12-1.07.15-.48.96-.39.87.12"/>
        <path class="cls-2" d="m147.4,148.24c-.3,1.58-2.15,1.68-3.32,2.36-.54-.12-1.14-.51-1.28-1.08-.3-.9.57-1.01.96-1.61,1.08-.69,2.24.57,2.9-.87.9-.24.51.93.75,1.2"/>
        <path class="cls-2" d="m140.31,149.86c-.6.24-1.28.06-1.28-.66-.09-.54.57-.27.75-.63.48.21.84.78.54,1.29"/>
        <path class="cls-2" d="m111.65,149.74c.27,2.18-2.36.3-3.44,1.2-.33-.78.48-1.47.96-1.94.96-.06,1.49.92,2.48.75"/>
        <path class="cls-2" d="m131.9,150.19c.45.54,1.2,1.68,2.16,1.38-.12,1.41,2.27,1.01,1.41,2.6-.42.51-1.14.66-1.74.42-2.12-.66-3.8-.18-5.92.21-.96.09-1.32-1.01-1.83-1.62.27-.77-.48-1.85-.21-2.78.93-.39,1.86-1.83,3.11-.99.93.48,1.86,1.23,3.02.78"/>
        <path class="cls-2" d="m141.92,150.82c-.18.27-.03.84-.54.75-.39-.3-.63-.93-.21-1.28.39-.15.6.33.75.54"/>
        <path class="cls-2" d="m124.49,151.68c0,1.17-.15,2.42.54,3.35-.45.63,1.02,1.01.21,1.7-1.35-.3-1.2-2.45-2.9-1.49-.33.06-.42.39-.45.63.36.45,1.23.57,1.07,1.32.21.66-.69,1.04-1.16,1.37-1.89.48-3.17-.66-4.43-1.49-.72-.27-1.32.69-1.83-.12.27-.53.39-1.16,0-1.7-1.23-.48-2.93.15-3.89-.99.21-4.04,5.38-1.92,7.87-2.9,1.2-1.68,4.13-1.08,4.96.33"/>
        <path class="cls-2" d="m150.21,150.61c-.06,1.44-1.2,2.63-2.27,3.44h-.3c-.15-1.38,1.32-2.45,2.24-3.44h.33Z"/>
        <path class="cls-4" d="m169.59,87.73c-.15.36-.63.21-.87.09-.96-.77-1.34-2-2.03-3.02l.09-.21c1.02,1.02,1.92,2.15,2.81,3.14"/>
        <path class="cls-4" d="m163.25,87.28c.69.48,1.2,1.89,2.24,1.08.39-.27.18-.87,0-1.17-.24-.21-.39-.45-.33-.78l.12-.09c.63.87,1.7,1.64,2.48,2.36v.75c-1.52,1.08-2.6,2.54-3.77,3.77-.81-.09-1.7-.54-2.06-1.28-.09-.6.24-1.02-.09-1.5.72-.24,1.32.48,1.94-.33.48-.78.06-1.55-.53-2.27-.36-.27-.78-.45-1.08-.87-.15-.57.15-1.05.63-1.29.3.39.3.96.45,1.62"/>
        <path class="cls-4" d="m160.98,87.82c-.48.39-.72,1.35-1.49,1.41l-.24-.21c.45-.48.87-1.88,1.73-1.2"/>
        <path class="cls-4" d="m113.72,88.57c0,.42-.27.81-.66.99l-.42-.12c.12-.36.06-.93.54-1.08.21-.03.39.03.54.21"/>
        <path class="cls-4" d="m190.8,89.11v.45c-.66-.06-1.61,0-2.03.63.06.69-.54,1.07-.54,1.73-.27.03-.63,0-.66-.33.12-.9-1.47-.87-2.03-1.29.84-.33,2.1.6,2.37-.66l-.33-.3c-.66-.36-1.88-.09-2.03-.99,1.94.45,3.68-.54,5.27.75"/>
        <path class="cls-4" d="m192.2,90.43c-.03.12.09.33-.12.42-.18.06-.3-.09-.42-.21-.27-.48.54-.6.54-.21"/>
        <path class="cls-4" d="m116.83,91.26c0,.27-.09.48-.33.66-.27.12-.3-.21-.42-.33l.09-.63c.27-.03.48.09.66.3"/>
        <path class="cls-4" d="m191.67,91.92v.33c-.39.18-.51-.3-.42-.45.12.06.33-.09.42.12"/>
        <path class="cls-4" d="m193.82,92.79c-.24.51-.57.18-.87,0-.3-.33-.3-.6-.09-.99.36.21,1.01.39.96.99"/>
        <path class="cls-4" d="m197.8,94.19c-.9-.12-1.68-.99-2.15-1.62,1.01-.51,1.49,1.11,2.15,1.62"/>
        <path class="cls-4" d="m191.25,93.75c-.24.03-.42-.03-.54-.21l.3-.33c.21.15.27.33.24.54"/>
        <path class="cls-4" d="m164.96,95.81c-.12.21-.36.24-.54.09-.12-.42.63-.69.54-.09"/>
        <path class="cls-4" d="m116.83,96.98c.39.57-.18,1.29-.75,1.29-.3-.03-.78-.27-.45-.63.3-.45.57-.81,1.2-.66"/>
        <path class="cls-4" d="m198.99,97.42c-.27.09-.36.69-.75.3-.09-.45.57-.99.75-.3"/>
        <path class="cls-4" d="m185.2,98.38c-.45.66-.72,1.79-1.82,1.49-.75-.99,1.01-1.25,1.16-2.03.27.06.45.36.66.54"/>
        <path class="cls-4" d="m205.13,99.58c.09.33-.15.66-.42.75h-.24c.21-.27-.03-1.08.66-.75"/>
        <path class="cls-4" d="m186.4,100.42c-.45.18-.27.81-.78.78-.75-.33.09-.9.12-1.2.27-.24.9-.06.66.42"/>
        <path class="cls-4" d="m112.73,100.95c-.09.45-.39.63-.75.87-.53.12-1.17.36-1.73.12-.09-.33-.78-.69-.09-.99.77.15,1.92-.78,2.57,0"/>
        <path class="cls-4" d="m117.79,103.23c.12.93-.84,1.31-1.62.96.3-.53.66-1.23,1.41-1.37l.21.42Z"/>
        <path class="cls-4" d="m188.43,104.18c-.09.21-.24.39-.21.66-.36-.03-.72-.3-.87-.66-.06-.66.96-.63,1.08,0"/>
        <path class="cls-4" d="m121.14,105.17c-.18.36-.57.27-.87.42-.18-.06-.06-.27-.09-.42l.75-.54c.24,0,.45.36.21.54"/>
        <path class="cls-4" d="m196.09,106.04c-.51-.51-1.41-.48-1.62-1.2.54-.48,1.08.36,1.62.54v.66Z"/>
        <path class="cls-4" d="m112.64,105.8c.03.21-.03.57-.33.45h-.33v-.54l.66.09Z"/>
        <path class="cls-4" d="m109.08,106.34c-.63.75-1.68,1.68-2.69,1.52-.21-.18-.09-.51-.12-.75.54-.75,1.26-.96,1.94-1.32.27.24.63.27.87.54"/>
        <path class="cls-4" d="m124.58,107.53c-.03.6-.63,1.02-1.17,1.28-.84.69-2,1.23-2.69,2.16l-.66-.09v-.45l3.35-3.77c.63-.09.84.48,1.17.87"/>
        <path class="cls-4" d="m119.73,107.42c.15.36-.21.57-.42.66h-.66c-.27-.48.42-.72.75-.87.18-.03.24.15.33.21"/>
        <path class="cls-4" d="m198.67,109.03c-.18.09-.06.3-.33.24-.21.03-.39-.03-.54-.24.03-.48.62-.45.87,0"/>
        <path class="cls-4" d="m115.87,109.36c.09.54-.51.69-.87.75-1.2-.18-2.51,1.41-3.35-.09.09-1.88,2.51-.39,3.44-1.28.45,0,.57.33.78.63"/>
        <path class="cls-4" d="m149.13,110.35c-.75.84,1.56,2.48-.33,2.58-.69-1.14-.87-2.58-1.71-3.56l.3-.53c.84.12,1.58.63,1.73,1.52"/>
        <path class="cls-4" d="m107.79,109.36c.24.99-1.35,1.2-1.41,2.15-.6.72-1.52.93-2.36.66-.6-.21-.48-.63-.33-1.08,2.01.54,2.16-2.36,4.1-1.73"/>
        <path class="cls-4" d="m146.32,111.96c0,.15.18.24.12.42-.42.3-1.41-.21-1.41.66.03.39.03.87-.42.96-.42-.18-.96-.48-1.08-.87.57-1.25-.63-1.94-.21-3.02,1.44.24,1.38,2.06,2.99,1.85"/>
        <path class="cls-4" d="m201.15,111.84c-.33.12-.21.63-.66.42-.24-.51-.87-.99-.54-1.62.93-.75,1.68.15,1.2,1.2"/>
        <path class="cls-4" d="m175.39,111.3v.66c-1.49-.57-1.73,1.5-2.99.54-.33-.51-.78-1.2-.33-1.73,1.11.18,2.37.03,3.32.54"/>
        <path class="cls-4" d="m134.8,111.72c.21.42.06.87-.21,1.2-.24,0-.51.06-.66-.21.51-.99-1.17-.9-.42-1.83.66-.3,1.11.42,1.28.84"/>
        <path class="cls-4" d="m118.86,111.63c.15.57-.54.54-.75.96-.33-.09-.93.24-.96-.33-.12-.99,1.38-1.49,1.71-.63"/>
        <path class="cls-4" d="m124.9,112.17c.09.42-.12.72-.42.96-.66-.15-.93-.48-1.41-.96.12-1.23,1.5-.48,1.83,0"/>
        <path class="cls-4" d="m110.04,112.5c.06.3-.42.27-.63.42l-.24-.21c.18-.15.6-.78.87-.21"/>
        <path class="cls-4" d="m138.78,114.41c.39.69-.21,1.23-.3,1.86-.18.21-.39.33-.66.3-.63-1.08.21-2.75-1.29-3.44-.09-.42.42-.39.63-.54,1.02.06,1.35,1.08,1.62,1.83"/>
        <path class="cls-4" d="m129.54,113.34c-.06.81-1.31.6-1.08,1.62-.66.36-1.49-.12-2.15-.42-.12-.39-.27-.69,0-1.08.87-.39.99.69,1.7.33.15-.66,1.17-1.29,1.52-.45"/>
        <path class="cls-4" d="m117.79,114.12c.06.3-.36.6-.54.63.03-.54-.93-.57-.42-1.17.45-.15.81.18.96.54"/>
        <path class="cls-4" d="m175.93,114.74c-.39.21-1.11.12-1.17-.33-.09-.33.42-.21.54-.54.54-.03.81.48.63.87"/>
        <path class="cls-4" d="m106.18,115.49c.09.36-.15.66-.45.78-.18-.15-.51-.15-.54-.45.15-.33.66-.81.99-.33"/>
        <path class="cls-4" d="m145.03,116.15c-.42.48-1.23.87-1.94.54-.24-.12-.27-.48-.09-.66.48-.75,2-.9,2.03.12"/>
        <path class="cls-4" d="m116.5,116.15c.03.27,0,.81-.33,1.08-.78.12-.27-.87-.63-1.2-.06-1.05.87-.27.96.12"/>
        <path class="cls-4" d="m181.56,115.82c-.12.54-.84.54-1.2.99h-.75c-.39-.48.18-.9.54-1.07.38-.15,1.04-.24,1.4.09"/>
        <path class="cls-4" d="m113.93,116.27c-.15,1.44-1.73.78-2.6,1.17-.15-.06-.15-.36,0-.42.54-.78,1.68-.36,2.06-1.29.33,0,.51.18.54.54"/>
        <path class="cls-4" d="m171.62,116.69c-.15.33-.3.45-.63.54-.3-.06-.63-.18-.66-.54-.06-.87,1.49-.78,1.28,0"/>
        <path class="cls-4" d="m160.11,117.02c-.06.18-.45.33-.63.09-.24-.24-.24-.48,0-.75.51-.09.51.3.63.66"/>
        <path class="cls-4" d="m149.25,117.44l-.33.66c-.33-.09-.63-.24-.87-.54-.09-.36.12-.6.42-.66.36.09.54.24.78.54"/>
        <path class="cls-4" d="m179.4,118.42c-.24.66-.96.06-1.4.09-.39-.24-1.14-.81-.54-1.28.83-.06,1.49.51,1.94,1.2"/>
        <path class="cls-4" d="m166.48,118.09c.15,1.28-1.71,1.08-1.86,2.36.09.75-.27,1.32-.75,1.83-.6.18-.99-.21-.96-.63.54-.99.09-2.81,1.62-2.93.36-.63,1.49-1.65,1.94-.63"/>
        <path class="cls-4" d="m169.59,117.97c-.15.15-.09.57-.42.45-.27.06-.48-.12-.54-.33.03-.48.9-.66.96-.12"/>
        <path class="cls-4" d="m183.17,119.26c0,.18-.03.63.09.87.27.06.45.36.66.54.03.42-.33.9-.75.54-.3-.87-1.82-.6-1.41-1.83.27-.56,1.17-.77,1.41-.12"/>
        <path class="cls-4" d="m102.71,119.5c.18.3-.24.54-.42.75-.24,0-.51.06-.66-.21.06-.48.66-.87,1.08-.54"/>
        <path class="cls-4" d="m123.17,119.71c.09.27.39.3.33.63-.78.27-1.62.15-2.36.66-.63.09-1.11-.15-1.62-.32-.21-.21-.06-.57-.12-.87.9-.9,1.97.42,2.93-.3l.84.21Z"/>
        <path class="cls-4" d="m111.86,120.46c.03.27-.09.48-.3.66-.42-.03-.99.09-1.08-.45.09-.75,1.14-.99,1.38-.21"/>
        <path class="cls-4" d="m179.94,121.2c-.69.06-1.14.72-1.86.75-.39-.48-1.31-1.02-.83-1.62.86.69,2.48-.54,2.69.87"/>
        <path class="cls-4" d="m127.06,120.67c-.15.36-.45.24-.75.12v-.33c.27.06.6-.12.75.21"/>
        <path class="cls-4" d="m125.65,121.65c.06,1.31,1.79.06,2.27,1.08-.39.66-1.31.51-2.06.54-.57-.33-.27-1.23-.96-1.32-.36,0-.77.51-1.08,0-.08-.48.09-.78.54-.84.54-.09,1.17.03,1.29.54"/>
        <path class="cls-4" d="m129.75,121.86c-.09.45-.18.9-.75.87-.36-.03-.75-.42-.75-.78-.09-.3.06-.54.3-.75.51,0,1.01.15,1.2.66"/>
        <path class="cls-4" d="m160.02,122.73c-.15.33-.51.15-.78.21-.21-.3-.45-.72-.21-1.08.66-1.14,1.47.18.99.87"/>
        <path class="cls-4" d="m186.28,123.9c.09.27-.24.48-.42.54-1.47.45-1.68-1.35-3.02-1.17-.24-.6.48-.33.63-.66,1.05,0,2.24.36,2.81,1.28"/>
        <path class="cls-4" d="m179.16,124.97c-.03.27-.12.6-.42.66-.39-.12-1.08-.27-1.41.09-.72.33-.3,1.49-1.29,1.31-.36-.48-.24-1.73-.12-2.48.51-.45.63-1.17,1.2-1.53,1.17.21,1.29,1.29,2.03,1.94"/>
        <path class="cls-4" d="m189.51,123.15c.09.36-.12.6-.42.66-.45-.15-.36-.42-.24-.77l.66.12Z"/>
        <path class="cls-4" d="m119.52,124.44c-.42.3-1.08.51-1.62.75-.21-.06-.36-.24-.54-.42,0-.42.27-.81.66-.96.6-.06,1.25,0,1.49.63"/>
        <path class="cls-4" d="m116.29,125.51c-.51.03-1.08.03-1.28-.42-.06-.99,1.97-.54,1.28.42"/>
        <path class="cls-4" d="m183.17,124.88c-.51,1.11.78,1.56,1.37,2.24l1.41.54c.54-.27.6-1.79,1.61-1.08.72.42,1.11,1.14,1.29,1.83-.33.96-.72-.39-1.29-.09-.36-.09-.51-.69-.96-.54-.24.72-.69,1.73-1.73,1.17-1.23-.66-2.39-1.41-3.77-1.7-.36-.33-.24-1.01-.09-1.41.3-.81,1.44-1.61,2.16-.96"/>
        <path class="cls-4" d="m146.32,125.42c.15.51-.45.6-.75.75-.42-.21-.84-.42-.87-.99.39-.72,1.41-.48,1.62.24"/>
        <path class="cls-4" d="m157.96,125.09c.06.33-.06.57-.33.75-.24,0-.51.06-.63-.21-.06-.39.06-.78.42-.87.27-.12.36.21.54.33"/>
        <path class="cls-4" d="m189.63,125.42l-.12.42c-.63.03-1.28.03-1.73-.42.18-.99,1.44-.51,1.86,0"/>
        <path class="cls-4" d="m142.34,125.63c.21.15.09.42.12.63-.24.27-.6.45-.87.12v-1.2c.36-.06.66.15.75.45"/>
        <path class="cls-4" d="m112.73,126.5v.84c-.33.3-.69-.03-.96-.21.18-.57-.72-.93-.12-1.41.48.03.87.36,1.08.78"/>
        <path class="cls-4" d="m125.44,127.13c-.48.54-.93-.21-1.41-.33-.12-.24-.24-.78.12-.96.66.24,1.23.66,1.28,1.28"/>
        <path class="cls-4" d="m151.08,127.34c-.33.24-.72.06-.99-.21-.03-.39.03-.81.33-.96h.66v1.17Z"/>
        <path class="cls-4" d="m79.47,126.8c-.45.33-.66.87-.87,1.2-.69.12-1.97.39-2.03-.66.27-.96,1.68-.63,2.57-.84l.33.3Z"/>
        <path class="cls-4" d="m191.67,129.07c.15.36-.3.27-.42.42-.84.09-.9-.66-.99-1.28.03-.57-.63-.39-.87-.75.06-.33.42-.87.87-.66.8.78.68,1.59,1.4,2.27"/>
        <path class="cls-4" d="m99.72,129.07c.15.39-.27.39-.45.54-.39.12-.72-.33-.75-.66-.09-.9,1.2-.6,1.2.12"/>
        <path class="cls-4" d="m175.84,129.4c-.69.9-1.82,2.09-3.23,1.95-.36-.42-.69-.81-.54-1.41.72-.18,1.59-.48,1.82-1.41.54.51,1.71-.21,1.94.87"/>
        <path class="cls-4" d="m196.18,129.94c.3.3,0,1.02-.54.75-.54.21-.42-.51-.87-.54-.42.03-1.05.03-1.07-.53l.32-.96c1.02-.06,1.05,1.35,2.16,1.29"/>
        <path class="cls-4" d="m182.93,129.49l.12.66c-.51.36-.9-.21-1.4-.21-.18-.24-.24-.54-.21-.87.45-.72,1.25-.08,1.49.42"/>
        <path class="cls-4" d="m113.6,129.61v.33c-.75-.36-2.18.78-2.48-.54.36-.9,1.53-.15,2.27-.21l.21.42Z"/>
        <path class="cls-4" d="m152.15,130.36c-.09.27-.27.57-.54.66-.27-.15-.57-.12-.75-.45-.12-.42.18-.48.42-.75.33.06.9.03.87.54"/>
        <path class="cls-4" d="m141.8,130.27c.03.21-.03.39-.21.54l-.75-.12c-.03-.51.69-1.14.96-.42"/>
        <path class="cls-4" d="m145.78,130.03c.15.93.27,1.31-.09,2.15-.54.12-1.02.51-1.29.99-.18.72,0,1.83-.99,1.94-.78.33-.66-.57-.96-.87.24-.51-.3-.93.33-1.41,1.11-.54,1.97-1.65,2.58-2.81h.42Z"/>
        <path class="cls-4" d="m115.96,132.84c.15.3-.21.3-.33.42-.96.3-1.11-.8-1.62-1.28l.33-.96c1.47-.24.57,1.52,1.62,1.82"/>
        <path class="cls-4" d="m199.32,131.55c-.45.36.03,1.41-.87,1.28-.3.09-.48-.15-.66-.32-.15-.66.21-1.23.75-1.5.51-.18.78.27.78.54"/>
        <path class="cls-4" d="m188.85,131.88c.18,1.59-1.53.03-1.91,1.38-.33-.06-.78.18-.99-.21-.06-1.05,1.14-1.38,1.82-1.71.48-.12.93.09,1.08.54"/>
        <path class="cls-4" d="m177.01,132.18c.24.51-.3.72-.63.78-.72-.33-1.23.48-1.29.96.03.6.12,1.23.42,1.62-.24.36-.78.24-1.08.12-.78-.72-1.05-1.79-.75-2.81.39-1.34,1.91-.86,3.02-.96l.3.3Z"/>
        <path class="cls-4" d="m141.27,132.84c.12.42-.18.45-.33.66-.33.03-.9-.24-.54-.66.15-.39.84-.51.87,0"/>
        <path class="cls-4" d="m108.96,134.04c-.06.18-.27.06-.42.09-.33-.42-.3-.81-.12-1.28.51.18.36.77.54,1.2"/>
        <path class="cls-4" d="m113.27,134.13c.18.39-.27.51-.42.75-.54,0-.72-.72-1.07-1.08l.09-.63c.84-.38,1.08.69,1.41.96"/>
        <path class="cls-4" d="m183.05,134.13c0,.36.09.78-.33.99-.6-.09-1.2-.18-1.62-.77-.15-.6.36-.66.66-1.08.66-.27.96.54,1.29.87"/>
        <path class="cls-4" d="m155.8,133.92l-.33.54c-.45-.06-.69-.45-.42-.87.24-.21.83-.09.75.33"/>
        <path class="cls-4" d="m151.7,135.11c-.33,1.08-2.13.27-2.57,1.49-.12.75-.54,1.56-1.28,1.83-.6.12-.6-.57-.87-.87.78-1.2,2.09-1.68,2.81-3.11.63-.42,1.83-.21,1.92.66"/>
        <path class="cls-4" d="m200.28,135.11c.06.24.36.42.54.63.15,1.17-1.17,1.05-1.82,1.41-.39.03-.6-.42-.54-.75-.09-.72-1.8-.93-.99-1.82.99.33,1.79.65,2.81.54"/>
        <path class="cls-4" d="m181.11,136.07c.42.57,1.23.18,1.62.75-.78,1.46-1.89,2.81-2.37,4.42-.69.18-1.65-.06-1.94.87-.96-.3-1.14,1.38-2.16.84.39-1.2,2.09-1.46,2.27-2.9,2.01-1.41,1.53-3.14,1.71-5.17.78.06.39.75.87,1.2"/>
        <path class="cls-4" d="m141.92,136.07c-.3-.06-.72.18-.87-.21.18-.33.45-.51.87-.45v.66Z"/>
        <path class="cls-4" d="m122.21,136.19c-.93.36-.3,2.75-1.62,1.62-.33-.54.15-1.17.21-1.73.21-.75,1.2-.39,1.41.12"/>
        <path class="cls-4" d="m153.65,137.68c-.48,1.05.66,2.81-.96,3.35-.54.06-1.23-.03-1.29-.66.3-1.01-1.31-.6-1.08-1.61,1.05.21,1.56-.69,2.04-1.41.42.12,1.17-.27,1.28.33"/>
        <path class="cls-4" d="m169.47,138.64c-.21.18.03.54-.3.66-.39-.15-.84-.09-1.08-.53l.09-.66c.48.12,1.16.09,1.28.54"/>
        <path class="cls-4" d="m119.94,139.09c.03.39.06.96-.42.96-.48.12-.72-.48-.96-.63,0-.36-.06-.75.21-.99.63-.15.9.21,1.17.66"/>
        <path class="cls-4" d="m142.67,139.09c.24.27.03.63-.21.87-.51.09-1.11-.39-.75-.87.12-.45.93-.51.96,0"/>
        <path class="cls-4" d="m185.95,139.96v.3c-.39.3-1.32.03-.96-.54.33-.21.84-.3.96.24"/>
        <path class="cls-4" d="m200.07,141.33c-.27.03-.48-.09-.66-.3.12-.27,0-1.11.66-1.08.48.39,0,.93,0,1.38"/>
        <path class="cls-4" d="m150.21,140.71c-.03,1.04-1.41.57-2.04.54-.11-.18-.45-.27-.32-.54.51-.57,1.64-.3,2.15-.21l.21.21Z"/>
        <path class="cls-4" d="m188.64,141.66c-.03.48-.54.3-.87.33-.27-.33-.39-.75,0-1.08.54-.24.72.45.87.75"/>
        <path class="cls-4" d="m184.99,141.87c.12.96-.72,2.03-.12,3.02-.21.48-.69.27-1.08.33-.84.33-.81,1.41-1.82,1.28-.21-1.37,1.2-2.36,1.28-3.77.36-.6.96-1.05,1.73-.87"/>
        <path class="cls-4" d="m198.99,144.47c-.21.36-.39,1.02-.99.96-.87-.33-.45-1.58-1.28-2.15.09-.57-.18-.87.21-1.29,1.31,0,1.49,1.62,2.06,2.48"/>
        <path class="cls-4" d="m164,145.01c-.12.18-.36.06-.54.09-.54-.36.03-.78.33-1.08.29.15.42.69.21.99"/>
        <path class="cls-4" d="m116.29,145.01c.03.36.03,1.02-.54.87-.48.21-.42-.36-.66-.54,0-.66.86-.69,1.2-.33"/>
        <path class="cls-4" d="m105.19,147.17c.15.39-.18.6-.42.87-.53-.03-1.23.12-1.4-.54.36-.63,1.38-1.17,1.82-.33"/>
        <path class="cls-4" d="m117.37,148.12c-.33.93-1.17.06-1.83.33l-.45-.42c.24-.81,1.17-.72,1.73-.54.12.33.3.36.54.63"/>
        <path class="cls-4" d="m100.02,148.12c-.24.33-.51.81-.84,1.2-.39-.3-.75-.75-.45-1.2.24-.48,1.07-.48,1.28,0"/>
        <path class="cls-4" d="m122.96,152.88c0,.27.18.45.12.75-.8.57-1.79-.69-2.6.21-.48.15-.96-.21-1.07-.54.06-1.17,1.52-.39,2.06-1.08.66-.18,1.17.24,1.49.66"/>
        <path class="cls-2" d="m134.39,156.86c.33-.15.54.21.63.42.12.63-.99.63-1.49.45-.69-1.14-2.78.03-3.11-1.41.72-.84,1.86.24,2.78-.12l1.2.66Z"/>
        <path class="cls-3" d="m133.52,182.63c0,3.74-1.42,6.53-4.25,8.38-2.83,1.85-6.64,2.78-11.43,2.78-.61,0-1.13-.02-1.57-.05,0,3.57.13,7.89.39,12.95h-4.72c.25-4.65.37-10.26.37-16.81,0-5.64-.12-10.7-.37-15.19h3.51c.38,0,1.45-.02,3.22-.07,1.79-.05,3.3-.07,4.55-.07,3.15,0,5.64.72,7.5,2.16,1.87,1.43,2.8,3.4,2.8,5.92Zm-4.1,1.43c0-4.21-2.88-6.32-8.63-6.32-1.41,0-2.99.12-4.74.37.11,2.67.17,6.83.17,12.48.57.03,1.28.05,2.11.05,7.39,0,11.08-2.2,11.08-6.59Z"/>
        <path class="cls-3" d="m161.5,182.63c0,3.74-1.42,6.53-4.25,8.38-2.83,1.85-6.64,2.78-11.43,2.78-.61,0-1.13-.02-1.57-.05,0,3.57.13,7.89.39,12.95h-4.72c.25-4.65.37-10.26.37-16.81,0-5.64-.12-10.7-.37-15.19h3.51c.38,0,1.45-.02,3.22-.07,1.79-.05,3.3-.07,4.55-.07,3.15,0,5.64.72,7.5,2.16,1.87,1.43,2.8,3.4,2.8,5.92h0Zm-4.1,1.43c0-4.21-2.88-6.32-8.63-6.32-1.41,0-2.99.12-4.74.37.11,2.67.17,6.83.17,12.48.57.03,1.28.05,2.11.05,7.39,0,11.08-2.2,11.08-6.59Z"/>
        <path class="cls-2" d="m13.94,59.13c21.53-.38,34.8-10.34,34.8-10.34l.42-.31v-.52s-.59-26.37-.59-26.37l-1.8,2.77c-1.12,1.72-4.37,3.78-8.61,5.59-4.23,1.81-9.42,3.45-14.45,4.84-10.05,2.77-19.43,4.49-19.43,4.49l-2.81.51,2.51,1.38c5.56,3.05,8.36,4.96,9.72,6.06.47.38.59.53.77.72-4.42,5.23-10.63,8.83-10.63,8.83l-2.72,1.54,3.11.36c3.4.39,6.64.53,9.72.48h0Z"/>
        <path class="cls-3" d="m13.9,57.11c-2.09.03-4.3-.07-6.55-.23,2.38-1.54,5.96-4.1,9.27-8.26l.26-.33-.05-.42s-.02-.14-.04-.21c-.02-.07-.05-.14-.08-.2-.07-.14-.16-.28-.29-.45-.26-.33-.69-.76-1.45-1.38-1.25-1.01-3.84-2.68-7.69-4.9,2.91-.57,9.05-1.81,16.97-3.99,5.08-1.4,10.33-3.06,14.7-4.93,3.15-1.34,5.82-2.75,7.7-4.37l.44,19.99c-.96.7-13.13,9.34-33.2,9.68Z"/>
      </g>
      <path class="cls-5" d="m47.1,47.43l-10.46-5.76"/>
      <path class="cls-2" d="m257.18,59.13c-21.53-.38-34.8-10.34-34.8-10.34l-.42-.31v-.52s.59-26.37.59-26.37l1.8,2.77c1.12,1.72,4.37,3.78,8.61,5.59,4.23,1.81,9.42,3.45,14.45,4.84,10.05,2.77,19.43,4.49,19.43,4.49l2.81.51-2.51,1.38c-5.56,3.05-8.36,4.96-9.72,6.06-.47.38-.59.53-.77.72,4.42,5.23,10.63,8.83,10.63,8.83l2.72,1.54-3.11.36c-3.4.39-6.64.53-9.72.48h0Z"/>
      <path class="cls-3" d="m257.22,57.11c2.09.03,4.3-.07,6.55-.23-2.38-1.54-5.96-4.1-9.27-8.26l-.26-.33.05-.42s.02-.14.04-.21c.02-.07.05-.14.08-.2.07-.14.16-.28.29-.45.26-.33.69-.76,1.45-1.38,1.25-1.01,3.84-2.68,7.69-4.9-2.91-.57-9.05-1.81-16.98-3.99-5.08-1.4-10.33-3.06-14.7-4.93-3.15-1.34-5.82-2.75-7.7-4.37l-.44,19.99c.96.7,13.13,9.34,33.2,9.68Z"/>
      <path class="cls-5" d="m224.02,47.43l9.66-5.41"/>
      <path class="cls-2" d="m234.12,42.96l-1.36-.48s-74.06-26.39-195.37.04l-1.23.27V12.86l.75-.2s103.81-28.49,196.5,0l.72.22v30.07Z"/>
      <path class="cls-3" d="m38.19,40.28c115.04-24.78,186.99-2.44,193.9-.15V14.41c-89.87-27.33-189.85-1.06-193.9.03v25.85Z"/>
      <g>
        <path class="cls-2" d="m48.61,20.32c-.46,0-.94.07-1.46.21-.41.12-.9.26-1.46.43-.55.17-.93.28-1.13.33l-1.4.39c.45,1.38.94,3.03,1.47,4.96.58,2.1,1.04,3.93,1.39,5.49l2.26-.62c-.51-1.64-.9-2.95-1.17-3.96.11-.02.29-.06.54-.13,1.38-.38,2.46-1,3.25-1.87.78-.87,1-1.95.65-3.23-.26-.94-.8-1.54-1.63-1.81-.41-.13-.85-.2-1.31-.19h0Zm-.74,1.75c.91-.02,1.49.4,1.72,1.26.34,1.24-.47,2.13-2.42,2.66-.18.05-.33.08-.47.11-.35-1.28-.7-2.42-1.03-3.41.4-.19.79-.35,1.17-.45s.72-.16,1.03-.17h0Z"/>
        <path class="cls-2" d="m58.16,17.91c-.49,0-1.04.08-1.66.22-.44.1-.91.23-1.42.37-.51.14-.85.23-1.02.27l-1.4.33c.4,1.37.84,3.04,1.3,5,.49,2.05.89,3.89,1.21,5.54l2.25-.53c-.38-1.4-.74-2.8-1.07-4.19.28-.07.58-.15.9-.23.75-.18,1.34-.08,1.78.29.44.37,1.2,1.43,2.28,3.19l2.4-.57c-1.14-1.7-2-2.85-2.58-3.45-.58-.6-1.16-.91-1.74-.94l-.03-.12c1.29-.86,1.77-1.97,1.45-3.32-.3-1.27-1.19-1.9-2.66-1.88h0Zm-.79,1.74c.83.02,1.34.43,1.53,1.23.28,1.19-.43,2-2.15,2.41-.21.05-.45.1-.75.17-.32-1.35-.61-2.43-.87-3.25.37-.17.81-.32,1.31-.44.35-.08.66-.12.93-.12h0Z"/>
        <path class="cls-2" d="m66.97,25.21c-.24-.95-.48-1.98-.71-3.08,1.16-.24,2.38-.46,3.66-.68l-.35-1.7c-1.28.33-2.49.61-3.63.85-.21-1.03-.42-1.92-.63-2.66,1.32-.28,2.82-.54,4.46-.79l-.28-1.8-6.62,1.37c.36,1.38.75,3.06,1.16,5.04.43,2.06.77,3.92,1.04,5.58l6.94-1.44-.31-1.81c-1.66.44-3.24.82-4.73,1.13"/>
        <path class="cls-2" d="m78.97,19.27c-.55-.37-1.32-.65-2.32-.86-.94-.2-1.56-.37-1.86-.51-.34-.18-.55-.45-.61-.81-.13-.69.45-1.15,1.75-1.38.86-.16,1.68-.17,2.46-.04l-.03-1.87c-.76-.05-1.68.03-2.75.22-1.31.24-2.26.69-2.86,1.34-.6.66-.81,1.46-.64,2.39.15.81.54,1.44,1.17,1.9.5.36,1.21.65,2.14.86,1.03.23,1.72.44,2.07.63.41.22.66.54.73.95.07.4-.07.72-.42.96s-.96.44-1.84.6c-.79.14-1.65.14-2.59,0l-.07,1.9c.94.08,1.93.03,2.98-.15,3.07-.56,4.41-1.91,4.01-4.04-.16-.89-.61-1.58-1.34-2.08"/>
        <path class="cls-2" d="m80.04,13.4l.21,1.79c1.34-.3,2.39-.51,3.16-.63.19,1.06.38,2.21.58,3.46.31,1.99.57,3.86.77,5.62l2.3-.36c-.34-1.75-.66-3.61-.97-5.59-.2-1.27-.38-2.43-.53-3.47.97-.15,2.01-.28,3.12-.37l-.22-1.78-8.43,1.32Z"/>
        <path class="cls-2" d="m96.05,10.94c-.34-.02-.69-.01-1.05.04-1.53.19-2.74.91-3.64,2.15-.9,1.24-1.24,2.7-1.03,4.39.2,1.58.84,2.81,1.96,3.71,1.11.9,2.39,1.26,3.84,1.08,1.53-.19,2.74-.91,3.63-2.15.9-1.24,1.24-2.7,1.03-4.4-.19-1.58-.85-2.82-1.95-3.72-.83-.67-1.76-1.04-2.78-1.11Zm-1.05,1.86c.86-.11,1.63.16,2.31.8.68.64,1.09,1.54,1.23,2.69.14,1.1-.03,2.04-.5,2.84-.47.79-1.12,1.24-1.92,1.34-.86.11-1.63-.16-2.31-.81-.68-.64-1.1-1.54-1.24-2.69-.14-1.1.03-2.04.5-2.84.47-.79,1.12-1.23,1.92-1.34Z"/>
        <path class="cls-2" d="m111.56,14.68c-.19-2.06-.32-3.78-.37-5.16l-2.07.2c.23,1.57.41,3.1.55,4.6.09.98.26,2.08.51,3.3h-.13c-.29-.74-1.26-2.13-2.92-4.17-1.56-1.92-2.35-3.02-2.38-3.31l-2.46.23c.22,1.41.42,3.12.61,5.14.2,2.05.33,3.93.41,5.66l2.04-.2c-.26-1.95-.46-3.61-.59-4.98-.09-.98-.26-2.07-.52-3.26h.13c.3.8,1.35,2.28,3.16,4.41,1.72,2.02,2.6,3.14,2.62,3.37l2.05-.2c-.24-1.68-.45-3.55-.65-5.63"/>
        <path class="cls-2" d="m126.84,13.81c-.1-2.07-.14-3.79-.13-5.17l-2.08.1c.15,1.58.26,3.11.33,4.62.05.98.17,2.09.35,3.32h-.13c-.25-.76-1.16-2.2-2.72-4.31-1.46-1.99-2.2-3.13-2.22-3.42l-2.47.11c.15,1.42.27,3.14.36,5.16.1,2.06.14,3.94.14,5.67l2.04-.09c-.17-1.97-.28-3.63-.35-5-.05-.98-.17-2.08-.36-3.28h.13c.26.83,1.24,2.35,2.94,4.57,1.63,2.1,2.44,3.27,2.45,3.49l2.06-.1c-.15-1.69-.28-3.57-.38-5.66"/>
        <path class="cls-2" d="m134.36,8.22c-1.54.01-2.82.59-3.85,1.72-1.03,1.13-1.54,2.55-1.52,4.26.02,1.59.53,2.89,1.52,3.91s2.23,1.52,3.7,1.5c1.54-.01,2.82-.59,3.85-1.72,1.03-1.13,1.54-2.55,1.52-4.25-.02-1.59-.53-2.9-1.53-3.92-1-1.02-2.23-1.51-3.7-1.49h0Zm-.2,1.81c.87-.01,1.61.35,2.21,1.06.6.71.91,1.65.92,2.81,0,1.1-.27,2.02-.83,2.76-.56.74-1.24,1.11-2.05,1.12-.87.01-1.6-.34-2.21-1.06-.61-.71-.92-1.65-.93-2.81-.01-1.11.26-2.03.82-2.76.56-.74,1.24-1.11,2.05-1.12h0Z"/>
        <path class="cls-2" d="m141.71,8.43c.04,1.43.04,3.15,0,5.17-.04,2.1-.12,3.99-.22,5.67l2.31.04c-.02-1.46-.02-2.9.01-4.32.29,0,.6,0,.92.01.77.01,1.32.26,1.66.72.33.47.8,1.7,1.41,3.68l2.47.05c-.68-1.93-1.22-3.26-1.63-3.99-.4-.73-.89-1.17-1.45-1.34v-.13c1.47-.52,2.21-1.46,2.24-2.84.04-1.74-1.22-2.64-3.76-2.69-.45-.01-.94,0-1.47,0-.53,0-.88,0-1.05,0l-1.44-.03Zm3.49,1.6c1.42.03,2.13.59,2.1,1.69-.03,1.23-.92,1.82-2.69,1.79-.21,0-.47-.01-.77-.03.03-1.38.02-2.51-.03-3.37.4-.07.86-.1,1.38-.09h0Z"/>
        <path class="cls-2" d="m151.28,8.64l-.16,1.79c1.37-.01,2.44,0,3.22.04-.03,1.07-.08,2.24-.15,3.5-.1,2.01-.24,3.9-.41,5.66l2.32.13c.04-1.78.1-3.67.21-5.67.07-1.29.14-2.45.2-3.5.98.06,2.02.15,3.13.29l.15-1.78-8.52-.45Z"/>
        <path class="cls-2" d="m169.66,15.05c.17-2.03.34-3.75.54-5.14l-2.35-.19c-.07,1.72-.15,3.16-.25,4.32l-4.22-.34c.11-1.32.26-2.76.45-4.31l-2.35-.19c-.04,1.48-.15,3.2-.31,5.16-.16,1.94-.35,3.82-.57,5.64l2.35.19c.1-1.97.2-3.56.3-4.77l4.18.34c-.11,1.34-.26,2.93-.47,4.76l2.35.19c.06-1.65.17-3.54.34-5.66"/>
        <path class="cls-2" d="m177.87,20.03c.08-.98.2-2.03.35-3.14,1.17.15,2.39.35,3.68.58l.23-1.73c-1.32-.11-2.55-.25-3.7-.4.14-1.04.23-1.95.28-2.72,1.34.18,2.83.42,4.47.73l.34-1.79-6.7-.9c-.12,1.42-.31,3.14-.58,5.14-.28,2.08-.56,3.96-.86,5.61l7.03.94.31-1.8c-1.72-.14-3.33-.3-4.84-.51"/>
        <path class="cls-2" d="m193.91,18.46c.34-2.04.66-3.73.96-5.08l-2.05-.34c-.18,1.57-.4,3.1-.64,4.59-.16.97-.28,2.07-.35,3.32l-.12-.02c-.08-.8-.67-2.39-1.75-4.79-1.02-2.25-1.5-3.52-1.45-3.81l-2.44-.41c-.15,1.42-.39,3.12-.72,5.12-.34,2.03-.69,3.89-1.05,5.58l2.02.33c.24-1.96.48-3.61.7-4.96.16-.97.27-2.06.33-3.29l.13.02c.08.87.72,2.56,1.93,5.09,1.15,2.39,1.7,3.71,1.67,3.93l2.03.34c.2-1.68.47-3.55.81-5.61"/>
        <path class="cls-2" d="m197.67,13.94c-.22,1.41-.54,3.11-.95,5.09-.43,2.06-.85,3.91-1.26,5.53,1.4.36,2.5.62,3.3.79,1.78.37,3.29.09,4.52-.86,1.23-.95,2-2.19,2.32-3.73.29-1.37.09-2.63-.59-3.8-.68-1.16-2-1.95-3.96-2.36-.14-.03-.45-.09-.91-.17-.47-.08-.81-.14-1.05-.19l-1.43-.3Zm1.74,2.09c.42.04.74.09.97.13,1.25.26,2.1.81,2.56,1.65.46.84.59,1.79.37,2.83-.22,1.05-.68,1.87-1.4,2.47-.71.61-1.65.8-2.82.55-.35-.07-.7-.19-1.04-.33.21-1.29.45-2.58.72-3.88.25-1.18.46-2.33.63-3.42h0Z"/>
        <path class="cls-2" d="m212.56,17.29c-.3,1.4-.7,3.07-1.21,5.03-.54,2.04-1.06,3.85-1.55,5.45l2.22.59c.3-1.35.66-2.79,1.06-4.3,1.02.27,2.19.61,3.51,1l.44-1.67c-1.33-.29-2.51-.58-3.55-.85.3-1.12.53-2.14.7-3.08,1.36.36,2.86.8,4.52,1.33l.54-1.75-6.66-1.76Z"/>
        <path class="cls-2" d="m223.61,30.01c-1.13-.34-1.89-.97-2.29-1.9s-.45-1.89-.14-2.88c.3-.98.81-1.73,1.54-2.25.73-.52,1.64-.62,2.72-.29.57.17,1.14.46,1.71.85l.84-1.75c-.54-.32-1.13-.59-1.77-.78-1.76-.54-3.32-.41-4.67.39s-2.25,1.94-2.7,3.43c-.44,1.44-.34,2.81.31,4.1.65,1.3,1.88,2.22,3.7,2.77.73.23,1.5.36,2.31.41l.69-1.79c-.85,0-1.59-.11-2.25-.31"/>
      </g>
      <path class="cls-2" d="m222.55,227.18l-.59-26.89.42-.31s17.33-13.01,44.51-9.87l3.11.36-2.72,1.54s-6.21,3.6-10.63,8.83c.18.19.3.34.77.72,1.36,1.1,4.16,3.01,9.72,6.06l2.51,1.38-2.81.52s-9.38,1.72-19.43,4.49c-5.02,1.38-10.21,3.03-14.45,4.84-4.23,1.81-7.49,3.86-8.61,5.59l-1.8,2.77Z"/>
      <path class="cls-3" d="m224.46,221.33c1.87-1.62,4.55-3.02,7.7-4.37,4.37-1.87,9.63-3.53,14.7-4.93,7.93-2.18,14.07-3.43,16.97-4-3.86-2.22-6.44-3.89-7.69-4.9-.76-.61-1.18-1.04-1.45-1.38-.13-.17-.22-.31-.29-.45-.03-.07-.06-.14-.08-.2-.02-.07-.04-.21-.04-.21l-.05-.42.26-.33c3.31-4.17,6.9-6.72,9.27-8.26-23.85-1.79-38.69,8.67-39.75,9.44l.44,19.99Z"/>
      <path class="cls-2" d="m47.45,226.74l-1.8-2.77c-1.12-1.72-4.37-3.78-8.61-5.59-4.23-1.81-9.42-3.45-14.45-4.84-10.05-2.77-19.43-4.49-19.43-4.49l-2.81-.51,2.51-1.38c5.56-3.05,8.36-4.96,9.72-6.06.47-.38.59-.53.77-.72-4.42-5.23-10.63-8.83-10.63-8.83l-2.72-1.54,3.11-.36c27.18-3.14,44.51,9.87,44.51,9.87l.42.31v.52s-.59,26.37-.59,26.37Z"/>
      <path class="cls-3" d="m45.54,220.88l.44-19.99c-1.06-.78-15.89-11.24-39.75-9.44,2.38,1.55,5.96,4.1,9.27,8.26l.26.33-.05.42s-.02.14-.04.21c-.02.07-.05.14-.08.2-.07.14-.16.28-.29.45-.26.33-.68.76-1.44,1.38-1.25,1.01-3.84,2.68-7.69,4.9,2.91.57,9.05,1.81,16.98,3.99,5.08,1.4,10.33,3.06,14.7,4.93,3.15,1.34,5.82,2.75,7.7,4.37Z"/>
      <path class="cls-2" d="m139.5,248.18c-31.83.83-68.14-1.85-102.9-12.53l-.72-.22v-30.07l1.35.48s74.06,26.39,195.37-.04l1.23-.27v29.91l-.75.21s-40.55,11.13-93.59,12.52h0Z"/>
      <path class="cls-3" d="m139.4,246.13c51.85-1.36,91.07-11.9,92.41-12.26v-25.85c-117.96,25.4-190.29,1.36-193.9.12v25.74c34.25,10.42,70.06,13.08,101.49,12.25h0Z"/>
      <path class="cls-5" d="m36.33,206.23l10.09-5.73"/>
      <path class="cls-5" d="m233.34,206.39l-10.09-5.73"/>
      <g>
        <path class="cls-2" d="m71.32,233.12c.1-.98.23-2.03.39-3.14,1.17.17,2.39.38,3.68.62l.25-1.72c-1.32-.13-2.55-.28-3.7-.45.15-1.04.25-1.94.31-2.71,1.34.2,2.83.45,4.46.78l.35-1.79-6.69-.97c-.13,1.42-.35,3.13-.64,5.13-.3,2.08-.61,3.95-.92,5.6l7.01,1.02.33-1.8c-1.72-.15-3.33-.34-4.83-.56"/>
        <path class="cls-2" d="m84.59,231.29c-.41-.51-1.07-1.02-1.96-1.51-.84-.47-1.38-.82-1.62-1.05-.28-.27-.39-.59-.35-.96.08-.69.78-.96,2.08-.8.87.1,1.66.34,2.37.7l.53-1.8c-.71-.27-1.61-.47-2.69-.61-1.32-.16-2.36-.02-3.13.43-.77.45-1.21,1.15-1.33,2.09-.1.82.08,1.54.55,2.16.37.49.97.98,1.79,1.46.91.52,1.51.93,1.79,1.23.33.33.47.7.42,1.13-.05.4-.28.66-.68.79-.41.13-1.05.13-1.93.03-.79-.1-1.62-.35-2.47-.77l-.63,1.79c.87.37,1.84.61,2.89.74,3.1.38,4.78-.51,5.04-2.66.11-.9-.11-1.69-.66-2.38"/>
        <path class="cls-2" d="m86.99,225.93l-.24,1.79c1.37.04,2.44.1,3.22.18-.08,1.07-.18,2.23-.31,3.49-.2,2.01-.42,3.88-.66,5.63l2.32.23c.11-1.78.27-3.66.46-5.65.13-1.28.25-2.44.36-3.49.98.1,2.02.24,3.11.43l.23-1.78-8.49-.83Z"/>
        <path class="cls-2" d="m99.22,227.07c-.03.34-.82,2.12-2.36,5.35-1.55,3.22-2.33,4.95-2.35,5.17l2.5.19c.03-.39.37-1.41,1.02-3.04l3.83.29c.37,1.75.54,2.8.52,3.17l2.66.2c.02-.3-.43-2.13-1.34-5.52-.92-3.38-1.36-5.23-1.34-5.55l-3.14-.24Zm1.15,1.58h.13c-.02.25.34,1.83,1.06,4.76l-3.03-.24c1.2-2.8,1.82-4.31,1.83-4.52Z"/>
        <path class="cls-2" d="m107.03,227.65c0,1.43-.05,3.15-.16,5.17-.11,2.1-.24,3.99-.39,5.66,1.33.1,2.3.16,2.92.19,3.61.18,5.47-.83,5.58-3.03.04-.83-.17-1.46-.65-1.9-.48-.45-1.05-.74-1.72-.88v-.12c1.28-.34,1.96-1.12,2.02-2.35.08-1.6-1.1-2.45-3.56-2.58-.34-.02-.82-.04-1.42-.05-.6-.01-1.02-.03-1.28-.04l-1.35-.07Zm3.55,1.7c1.24.06,1.84.59,1.79,1.58-.05,1.03-.96,1.49-2.71,1.41-.24-.01-.45-.03-.66-.05.06-1.36.09-2.33.05-2.89.45-.06.96-.07,1.53-.04Zm-1.65,4.45c.28-.01.61,0,.99.01,1.93.1,2.88.7,2.82,1.81-.03.61-.29,1.02-.78,1.25-.49.22-1.25.31-2.28.25-.37-.02-.65-.06-.84-.11,0-.98.03-2.05.09-3.2h0Z"/>
        <path class="cls-2" d="m119,237.34c.1-.98.18-2.3.24-3.97.07-2.19.16-3.91.27-5.17l-2.34-.07c.03,1.36,0,3.08-.07,5.17-.07,2.28-.17,4.16-.28,5.66l6.92.23.13-1.82c-1.71.03-3.33.02-4.86-.03"/>
        <path class="cls-2" d="m127.56,233.55c.03-2.05.08-3.77.18-5.17l-2.36-.03c.06,1.42.07,3.15.04,5.17-.03,2.06-.09,3.95-.18,5.67l2.36.03c-.05-1.69-.06-3.58-.03-5.67"/>
        <path class="cls-2" d="m136.28,234.01c-.47-.46-1.18-.88-2.14-1.26-.89-.36-1.47-.64-1.74-.84-.31-.23-.46-.54-.46-.91,0-.7.65-1.05,1.96-1.05.87,0,1.68.13,2.43.41l.31-1.85c-.74-.18-1.65-.27-2.74-.27-1.33,0-2.35.27-3.05.81-.71.54-1.06,1.29-1.06,2.24,0,.82.27,1.51.81,2.07.43.44,1.08.86,1.96,1.23.97.41,1.61.74,1.93.99.37.29.55.65.55,1.07,0,.41-.19.69-.58.87-.39.17-1.03.26-1.92.26-.8,0-1.65-.15-2.55-.46l-.41,1.86c.91.25,1.9.38,2.96.38,3.12,0,4.68-1.09,4.68-3.26,0-.9-.31-1.66-.94-2.28"/>
        <path class="cls-2" d="m147.69,233.33c-.06-2.04-.06-3.76-.02-5.17l-2.36.07c.11,1.71.19,3.15.22,4.32l-4.23.11c-.03-1.32-.04-2.77-.01-4.33l-2.36.06c.11,1.47.2,3.2.25,5.17.05,1.95.07,3.84.04,5.67l2.36-.07c-.11-1.97-.18-3.56-.21-4.77l4.2-.11c.04,1.35.05,2.94.04,4.78l2.36-.06c-.12-1.65-.21-3.54-.27-5.66"/>
        <path class="cls-2" d="m152.72,237.09c-.09-.98-.17-2.03-.22-3.16,1.18-.06,2.42-.09,3.72-.1l-.08-1.74c-1.31.12-2.55.21-3.71.27-.05-1.05-.12-1.96-.21-2.72,1.35-.07,2.86-.09,4.53-.08v-1.83s-6.75.32-6.75.32c.14,1.42.26,3.14.35,5.16.1,2.1.16,3.99.17,5.67l7.08-.34-.02-1.83c-1.72.17-3.33.3-4.85.37"/>
        <path class="cls-2" d="m163.67,227.3c-.43-.03-.9-.03-1.4.01-.14.01-.45.05-.92.1-.47.05-.82.08-1.06.1l-1.46.11c.18,1.42.35,3.13.5,5.15.16,2.1.27,3.98.32,5.66,1.45-.04,2.58-.09,3.39-.15,1.82-.14,3.18-.83,4.1-2.08.92-1.25,1.32-2.66,1.2-4.23-.1-1.39-.65-2.56-1.62-3.49-.73-.7-1.75-1.09-3.06-1.18h0Zm-1.61,1.7c1.28-.09,2.24.19,2.92.88.67.68,1.06,1.55,1.13,2.62.08,1.06-.13,1.98-.65,2.77-.52.78-1.38,1.21-2.57,1.3-.36.03-.72.02-1.09-.02-.15-1.3-.28-2.61-.38-3.93-.09-1.21-.21-2.36-.35-3.47.41-.08.74-.12.97-.14h0Z"/>
        <path class="cls-2" d="m176.33,233.54c-.12-1.26-.27-3.03-.43-5.31l-1.03.1-2.69,2.52.51.75,1.27-.71c.14,1.01.25,1.96.34,2.85.08.87.17,2.02.25,3.45l2.21-.22c-.2-1.45-.35-2.59-.43-3.44"/>
        <g>
          <path class="cls-2" d="m180.92,225.05c-.94.11-1.69.44-2.26.99-.57.57-.81,1.24-.72,2.01.13,1.06.77,1.84,1.93,2.35v.13c-.69.38-1.21.89-1.54,1.52-.31.58-.42,1.2-.35,1.86.11.92.54,1.62,1.3,2.12.76.5,1.69.68,2.8.55,1.13-.13,2.02-.54,2.67-1.25.65-.7.92-1.53.81-2.49-.15-1.34-1.04-2.31-2.64-2.92l-.02-.13c.53-.29.91-.7,1.16-1.22.23-.47.32-.96.26-1.48-.08-.71-.45-1.25-1.07-1.63-.63-.38-1.41-.52-2.34-.41Zm.07,1.28c.43-.05.79.04,1.09.26.3.22.47.56.52,1,.1.83-.2,1.47-.91,1.94-1.21-.41-1.87-1.03-1.96-1.85-.04-.36.06-.66.29-.9.24-.25.56-.4.97-.45Zm.16,4.62c1.46.46,2.24,1.21,2.37,2.28.06.49-.06.91-.35,1.25-.29.35-.68.55-1.18.61-.53.06-.99-.06-1.38-.36-.38-.3-.61-.75-.68-1.33-.06-.5.02-.97.25-1.44.22-.47.55-.8.96-1.01h0Z"/>
          <path class="cls-2" d="m190.48,223.97c-.39-.06-.81-.06-1.27,0-.94.13-1.69.48-2.24,1.05-.56.58-.78,1.25-.67,2.02.15,1.06.81,1.82,1.99,2.3l.02.13c-.69.4-1.2.92-1.51,1.55-.3.59-.4,1.21-.3,1.87.13.91.58,1.61,1.35,2.09s1.71.64,2.81.48c1.12-.16,2-.6,2.63-1.31.63-.72.88-1.55.75-2.5-.19-1.34-1.1-2.3-2.72-2.86v-.13c.5-.3.88-.71,1.12-1.24.22-.48.3-.97.22-1.49-.1-.7-.47-1.24-1.11-1.61-.32-.18-.67-.3-1.06-.36h0Zm-1.17,1.29c.43-.06.78.02,1.08.24.3.22.49.54.55.97.12.83-.17,1.49-.86,1.97-1.22-.38-1.89-.98-2-1.8-.05-.35.04-.66.27-.92.23-.25.55-.41.96-.47h0Zm.27,4.61c1.46.42,2.27,1.17,2.42,2.23.07.49-.04.91-.32,1.26s-.67.57-1.17.64c-.53.07-.99-.04-1.38-.33-.39-.3-.63-.73-.71-1.31-.07-.49,0-.98.21-1.45.22-.47.53-.82.95-1.04h0Z"/>
          <path class="cls-2" d="m198.76,225.04c-.27,0-.56.01-.86.06-1.25.2-2.14.79-2.66,1.77-.53.98-.67,2.24-.43,3.76.24,1.49.72,2.52,1.45,3.1.73.58,1.7.78,2.91.59,1.25-.2,2.15-.74,2.68-1.63.53-.88.67-2.1.42-3.67-.23-1.45-.72-2.52-1.46-3.19-.55-.5-1.23-.77-2.05-.79h0Zm-.8,1.67c.64-.1,1.16.15,1.54.75.38.6.65,1.41.81,2.41.27,1.72-.13,2.65-1.22,2.83-.63.1-1.13-.09-1.5-.58-.36-.48-.63-1.28-.81-2.38-.3-1.85.1-2.86,1.18-3.04h0Z"/>
        </g>
      </g>
    </g>
  </g>
</svg>