<?xml version="1.0" encoding="UTF-8"?>
<svg id="Layer_2" data-name="Layer 2" xmlns="http://www.w3.org/2000/svg" viewBox="0 0 273.25 381.17">
  <defs>
    <style>
      .cls-1 {
        fill: #1e3b72;
      }

      .cls-1, .cls-2, .cls-3 {
        stroke-width: 0px;
      }

      .cls-2 {
        fill: #1e3b73;
      }

      .cls-3 {
        fill: #b29c66;
      }
    </style>
  </defs>
  <g id="Ebene_1" data-name="Ebene 1">
    <g>
      <path class="cls-2" d="m0,308.89c1.49.36,2.94.86,4.45,1.13,4.43.79,8.89.97,13.37.81,1.85-.06,3.66-.39,5.4-1.06,3.29-1.26,5.27-3.61,5.61-7.15.29-3.07-.38-5.91-2.85-7.98-1.87-1.57-4.06-2.66-6.35-3.52-4.33-1.63-8.59-3.45-12.37-6.15-2.25-1.61-3.84-3.79-4.87-6.37-2.06-5.17-2.29-10.46-.91-15.81.83-3.21,2.53-5.96,4.91-8.29,2.05-2.01,4.43-3.53,7.05-4.66,2.54-1.1,5.23-1.67,7.98-1.94,2.89-.29,5.79-.23,8.68,0,3.03.25,6.04.7,9.02,1.32.29.06.58.11.57.59-.03,3.9-.01,7.79-.01,11.75-1.43-.39-2.8-.8-4.19-1.13-3.43-.83-6.9-1.38-10.44-1.23-2.38.11-4.7.51-6.77,1.85-2.17,1.4-3.35,3.41-3.59,5.93-.38,3.97,1.42,6.82,4.72,8.85,2.43,1.5,5.13,2.4,7.73,3.53,3.77,1.64,7.49,3.36,10.45,6.36,2.5,2.54,3.96,5.61,4.62,9.06.96,5,.69,9.93-1.24,14.7-1.8,4.48-4.93,7.75-9.14,10.01-3.79,2.03-7.89,2.94-12.16,3.28-2.61.21-5.21.16-7.81.1-1.86-.04-3.73-.24-5.52-.8-.48-.15-.88-.37-1.12-.97-1.56-3.85-3.21-7.66-4.83-11.48-.09-.21-.11-.48-.38-.57v-.16Z"/>
      <path class="cls-3" d="m195.51,354.5c-.09-1.86-1.42-3.19-3.5-3.5-2.74-.4-5.4-.16-7.96.97-.21-.89-.07-1.79-.08-2.69-.01-1.03-.06-2.07.03-3.11,1.2-.75,2.58-.96,3.93-1.1,2.69-.29,5.39-.33,8.02.45,3.1.92,5.43,2.72,6.31,5.97.99,3.65-.46,8.2-4.34,10-.42.2-.84.42-1.38.7,1.91.49,3.53,1.16,4.84,2.51,1.09,1.13,1.71,2.47,1.96,3.95.48,2.76,0,5.36-1.64,7.67-1.85,2.6-4.44,3.97-7.52,4.54-.59.11-1.21.02-1.76.31h-.32c-.95-.18-1.9-.04-2.86-.08-.28-.02-.57.04-.86-.04-.87-.05-1.73-.11-2.59-.31-.59-.14-.93-.41-1.15-.94-.7-1.68-1.41-3.36-2.12-5.04-.07-.15-.15-.3-.03-.44.14-.14.29-.02.44.03,1.87.59,3.79.77,5.74.71.62.12,1.24.11,1.86,0,2.21-.09,4.11-.78,5.28-2.8,1.84-3.17,0-6.5-3.64-6.78-1.5-.11-2.99-.13-4.48-.1-.67.01-.79-.22-.78-.82.04-1.66.01-3.33.02-4.99.87-.21,1.75-.03,2.62-.09.32-.02.64.08.95-.07,2.32-.11,4.42-1.19,4.93-3.3.04-.18.04-.37.06-.55.12-.35.1-.7,0-1.06Z"/>
      <path class="cls-1" d="m136.31,175.53c3.43,6.29,7.76,11.67,12.94,16.35,6.8,6.14,14.58,10.57,23.36,13.22,3.44,1.04,6.97,1.69,10.56,2.04,6.75.66,13.39.13,19.96-1.58,3.49-.91,6.87-2.09,10.14-3.61,4.1-1.9,7.89-4.26,11.47-7.02,2.73-2.11,5.21-4.46,7.53-6.98,2.79-3.03,5.17-6.37,7.3-9.91,2.01-3.34,3.76-6.81,5.18-10.43,1.78-4.55,3.06-9.24,3.83-14.07.79-4.9,1.02-9.82.76-14.76-.3-5.84-1.31-11.57-3.08-17.17-1.04-3.3-2.33-6.5-3.87-9.59-1.2-2.42-2.6-4.74-4.13-6.97-1.59-2.32-3.32-4.53-5.18-6.64-1.73-1.97-3.59-3.81-5.56-5.53-3.03-2.65-6.3-4.96-9.8-6.98-3.59-2.07-7.34-3.73-11.26-5-3.21-1.04-6.5-1.8-9.86-2.23-1.11-.14-2.23-.29-3.35-.36-.59-.04-.52-.25-.3-.63.85-1.46,1.68-2.92,2.52-4.38,1.13-1.94,2.26-3.88,3.39-5.82,1.48-2.55,2.94-5.12,4.46-7.65.73-1.22.78-1.17,2.25-.87,7.5,1.5,14.61,4.11,21.38,7.64,5.1,2.66,9.86,5.84,14.31,9.5,3.27,2.7,6.36,5.59,9.19,8.76,4.55,5.1,8.46,10.64,11.72,16.66,3.79,7.01,6.52,14.41,8.27,22.16.98,4.35,1.62,8.76,1.87,13.22.12,2.17.26,4.34.22,6.51-.09,4.84-.5,9.66-1.34,14.44-1.29,7.37-3.51,14.43-6.61,21.23-3.3,7.23-7.56,13.85-12.71,19.89-6.05,7.1-13.12,13-21.14,17.77-5.3,3.15-10.9,5.66-16.77,7.53-4.53,1.45-9.16,2.51-13.88,3.15-5.01.68-10.03.94-15.08.72-3.64-.16-7.26-.56-10.86-1.18-4.5-.78-8.89-1.92-13.18-3.45-2.39-.85-4.74-1.81-7.04-2.89-4.37-2.04-8.51-4.45-12.45-7.22-2.23-1.57-4.36-3.27-6.47-4.99-1.67-1.37-3.23-2.85-4.75-4.35-1.31-1.3-2.67-2.6-3.83-4.07-.7-.89-1.48-1.73-2.23-2.58-.23-.26-.29-.43-.06-.81,1.52-2.54,2.97-5.11,4.46-7.67,1.65-2.85,3.32-5.69,4.97-8.54.91-1.57,1.8-3.16,2.78-4.87Z"/>
      <path class="cls-1" d="m103.29,121.11c1.13,1.93,2.2,3.74,3.26,5.55,2.86,4.89,5.73,9.79,8.59,14.68.73,1.24,1.4,2.52,2.18,3.73.26.4.13.6-.08.89-1.97,2.6-4.19,4.97-6.62,7.12-3.6,3.18-7.64,5.7-11.99,7.73-4.35,2.02-8.87,3.54-13.52,4.65-4.65,1.12-9.37,1.78-14.15,2.13-5.26.39-10.52.35-15.78.21-3.8-.1-7.61-.22-11.4-.55-.27-.02-.4.05-.38.34.01.21,0,.43,0,.65,0,18.77,0,37.54.02,56.3,0,.76-.14.97-.94.97-6.83-.04-13.66-.04-20.48,0-.77,0-.97-.17-.97-.96.02-47.57.02-95.13.02-142.7q0-1.31-1.32-1.31c-5.97,0-11.94-.01-17.9.01-.7,0-.97-.13-.96-.91.04-6.18.03-12.37,0-18.55,0-.69.2-.82.85-.82,21.91.02,43.82.02,65.73,0,.65,0,.94.24,1.24.75,2.94,5.1,5.9,10.19,8.85,15.28,1.23,2.12,2.47,4.24,3.7,6.36.05.08.05.19.09.4-1.4-.51-2.74-.88-4.1-1.21-3.22-.79-6.48-1.28-9.79-1.29-7.74-.02-15.48,0-23.23-.02-.69,0-.82.21-.82.86.02,21.83.02,43.67,0,65.5,0,.62.09.83.8.87,5.47.27,10.93.51,16.41.52,5.37,0,10.73-.19,16.02-1.21,3.73-.72,7.32-1.91,10.65-3.75,3.25-1.79,6.23-3.97,8.7-6.77,2.06-2.34,3.74-4.92,4.97-7.82,1.02-2.41,1.75-4.9,2.37-7.61Z"/>
      <path class="cls-1" d="m183.77,165.15c-.26,0-.4,0-.53,0-8.3.03-16.61.03-24.91.13-1.16.01-1.8-.36-2.31-1.31-1.53-2.86-3.2-5.64-4.85-8.43-1.64-2.77-3.2-5.6-4.81-8.39-2.37-4.09-4.77-8.16-7.13-12.26-2.28-3.95-4.52-7.92-6.79-11.88-2.17-3.78-4.35-7.54-6.54-11.31-2.1-3.61-4.22-7.2-6.31-10.81-1.72-2.97-3.38-5.96-5.1-8.93-1.89-3.27-3.81-6.52-5.71-9.78-.28-.47-.51-.97-.82-1.58.36,0,.64,0,.92,0,3.65.06,7.29-.15,10.91-.62,3.73-.48,7.38-1.32,10.92-2.58,3.74-1.34,7.17-3.23,10.25-5.73,3.22-2.62,5.86-5.76,7.72-9.49,1.84-3.7,2.75-7.65,3.03-11.78.28-4.15-.48-8.1-2.08-11.88-1.04-2.46-2.49-4.69-4.27-6.75-2.65-3.07-5.83-5.38-9.44-7.1-3.3-1.58-6.8-2.58-10.39-3.34-4.82-1.01-9.68-1.26-14.58-1.24-6.02.03-12.04.02-18.06-.01-.74,0-.86.22-.86.9.02,10.43.01,20.86.01,31.3v.85s-.09,0-.14,0C81.73,35.47,71.56,17.8,61.33,0c.39,0,.64,0,.9,0,18.15,0,36.29-.03,54.44.02,4.71.01,9.38.59,14.01,1.48,3.56.68,7.08,1.47,10.51,2.61,6.45,2.14,12.41,5.21,17.68,9.52,4.13,3.38,7.54,7.4,10.15,12.08,2.68,4.81,4.33,9.98,5.15,15.4.56,3.75.7,7.53.33,11.31-.52,5.38-1.88,10.54-4.12,15.48-2.58,5.69-6.22,10.6-10.81,14.79-4.45,4.06-9.5,7.22-15.07,9.52-1.03.43-2.05.89-3.1,1.25-.51.18-.48.37-.26.73,1.98,3.28,3.97,6.57,5.94,9.86,4.21,7.01,8.42,14.02,12.63,21.03,4.87,8.1,9.75,16.2,14.62,24.3,3.13,5.21,6.25,10.42,9.45,15.75Z"/>
      <path class="cls-2" d="m273.25,285.26c-.05,7.17-1.24,13.9-4.58,20.11-3.13,5.82-7.6,10.35-13.35,13.6-5,2.83-10.38,4.17-16.11,4.3-3.35.07-6.64-.22-9.89-1.03-3.24-.81-6.25-2.16-9.09-3.92-2.51-1.55-4.79-3.4-6.83-5.51-1.93-1.99-3.59-4.21-4.98-6.63-2.76-4.83-4.19-10.04-4.72-15.55-.69-7.15-.18-14.17,2.3-20.96,1.36-3.73,3.32-7.13,5.89-10.17,2.37-2.81,5.08-5.27,8.21-7.18,3.33-2.04,6.91-3.51,10.78-4.19,3.33-.58,6.66-.83,10.04-.57,3.4.25,6.69.89,9.88,2.08,3.47,1.29,6.6,3.16,9.46,5.53,4.04,3.35,7.14,7.41,9.34,12.16,1.63,3.53,2.63,7.23,3.15,11.08.32,2.34.47,4.69.49,6.85Z"/>
      <path class="cls-2" d="m49.18,248.55h1.02c13.33,0,26.66,0,40-.02.71,0,.94.14.93.9-.05,3.41-.04,6.83,0,10.24,0,.69-.2.82-.85.82-7.39-.02-14.78,0-22.17-.03-.69,0-.89.14-.88.86.04,5.35.03,10.7,0,16.05,0,.71.15.94.91.93,6.48-.03,12.96,0,19.43-.03.65,0,.86.13.85.82-.04,3.41-.04,6.83,0,10.24,0,.66-.14.84-.82.84-6.48-.03-12.96,0-19.43-.04-.81,0-.94.23-.94.98.03,6.13.03,12.26,0,18.39,0,.66.14.84.83.84,7.93-.03,15.86-.02,23.79-.02h.96c-.91,2.16-1.78,4.23-2.65,6.31-.7,1.66-1.42,3.32-2.1,4.99-.19.46-.44.63-.95.63-11.05-.02-22.09-.02-33.14,0-.73,0-.74-.31-.74-.85,0-20.59.02-41.19,0-61.78,0-3.15-.59-6.2-2.08-9.03-.43-.82-1.03-1.48-1.96-2.06Z"/>
      <path class="cls-2" d="m137.1,261.62c-2.29-.71-4.54-1.34-6.84-1.74-3.96-.69-7.94-1.16-11.89-.02-3.3.95-5.56,2.99-6.18,6.5-.58,3.29.44,6.05,2.94,8.26,1.73,1.52,3.8,2.44,5.9,3.31,3.83,1.59,7.7,3.1,11.16,5.46,4.23,2.89,6.62,6.89,7.51,11.9.79,4.46.58,8.86-.88,13.13-1.99,5.82-6.06,9.74-11.68,12.09-4.19,1.75-8.6,2.4-13.11,2.43-2.98.02-5.96.07-8.9-.5-.49-.09-.99-.17-1.44-.35-.51-.2-.88-.53-1.12-1.13-1.5-3.65-3.08-7.27-4.63-10.89-.16-.37-.19-.78-.6-1.22.81.23,1.45.42,2.1.6,2.53.71,5.11,1.05,7.73,1.25,2.84.21,5.69.31,8.53.13,2.72-.17,5.35-.8,7.56-2.5,1.64-1.26,2.57-2.99,2.9-5.04.47-2.9-.12-5.53-1.96-7.84-.82-1.03-1.98-1.64-3.08-2.31-2.57-1.57-5.46-2.42-8.19-3.62-3.07-1.34-6.09-2.82-8.72-4.93-3.22-2.58-4.88-6.07-5.62-10.04-.71-3.76-.74-7.52.19-11.25.99-3.98,3.17-7.22,6.3-9.87,2.24-1.9,4.76-3.25,7.51-4.19,2.76-.94,5.63-1.39,8.55-1.48,5.19-.16,10.31.44,15.38,1.48.27.06.63.04.63.54-.02,3.92-.01,7.85-.01,11.86Z"/>
      <path class="cls-2" d="m199.23,248.58c-1.58,3.83-3.15,7.57-4.65,11.34-.21.54-.54.41-.88.41-4.95,0-9.89.02-14.84-.01-.69,0-.82.19-.82.85.02,20,.02,40,.02,60q0,1.06-1.03,1.06c-3.92,0-7.85-.02-11.77.02-.69,0-.87-.14-.87-.86.02-20,.02-40,.02-60q0-1.05-1.07-1.05c-5.54,0-11.07-.01-16.61.01-.6,0-.75-.14-.75-.75.03-3.44.03-6.88,0-10.32,0-.52.06-.74.67-.74,17.39.02,34.78.01,52.17.02.11,0,.21.01.42.02Z"/>
      <path class="cls-3" d="m127.09,359.42c-.15-.26,0-.56-.11-.83-.11-1.81-.44-3.56-.97-5.31-1.42-4.65-4.94-8.1-10.05-8.29-.53-.07-1.06-.07-1.59,0-.56.05-1.12.07-1.67.19-3.61.74-6.25,2.79-8.01,5.99-1.67,3.05-1.98,6.32-1.28,9.69.96,4.61,4.37,7.4,9.07,7.57,2.17.07,4.24-.37,6.28-1.02.62-.2.67.01.55.49-.52,2.16-1.61,3.99-3.4,5.31-2.62,1.9-5.62,2.05-8.71,1.75-1.08-.11-2.08-.46-3.19-.89.81,2,1.57,3.86,2.31,5.73.25.65.73.96,1.37,1.04,2.29.32,4.58.24,6.83-.32,4.39-1.08,7.68-3.56,9.73-7.65,1.72-3.44,2.49-7.1,2.74-10.91.11-.26-.03-.56.11-.83v-1.71Zm-8.86,2.68c-1.45.4-2.91.69-4.43.41-2.15-.4-3.34-1.66-3.67-3.79-.27-1.7-.18-3.36.48-4.96.76-1.86,2.22-2.8,4.16-2.91,1.98-.11,3.52.75,4.45,2.57.93,1.84,1.02,3.85,1.12,5.54,0,2.47-.05,2.57-2.1,3.13Z"/>
      <path class="cls-3" d="m151.95,380.71c-.27-.27-.14-.61-.14-.92-.01-8.92,0-17.84-.05-26.76,0-1.56-.3-3.1-1.77-4.19,1.25-.54,2.42-1.04,3.59-1.54,1.36-.58,2.73-1.16,4.09-1.76.76-.33.86-.29.86.56,0,11.28,0,22.57,0,33.85,0,.26.1.54-.14.76-2.14.09-4.29.09-6.43,0Z"/>
      <path class="cls-3" d="m72.11,380.71c-.27-.27-.14-.61-.14-.92-.01-8.87,0-17.74-.04-26.6,0-1.62-.26-3.21-1.76-4.34,2.53-1.11,5-2.15,7.44-3.28.82-.38.79-.02.79.6-.01,7.28,0,14.56,0,21.85,0,4.22,0,8.44,0,12.66-.73.21-1.48.08-2.21.08-1.36,0-2.71.07-4.07-.04Z"/>
      <path class="cls-3" d="m223.7,366.97c-1.92.22-3.88-1.93-3.86-3.86.03-2.18,1.82-4.04,3.95-4.02,2.2.02,3.93,1.78,3.97,3.96.03,2.03-1.83,4.1-4.06,3.92Z"/>
      <path class="cls-3" d="m53.59,363.41c-.23,1.8-1.31,3.04-3.03,3.49-1.44.37-3.25-.3-4.18-1.56-1.03-1.4-.75-4.13.54-5.2,1.66-1.38,3.93-1.36,5.37,0,.74.69,1.19,1.49,1.29,2.49.07.26.07.52,0,.79Z"/>
    </g>
  </g>
</svg>