<?xml version="1.0" encoding="UTF-8"?>
<svg id="Livello_2" data-name="Livello 2" xmlns="http://www.w3.org/2000/svg" viewBox="0 0 566.93 566.93">
  <defs>
    <style>
      .cls-1, .cls-2 {
        fill-rule: evenodd;
      }

      .cls-1, .cls-2, .cls-3 {
        stroke-width: 0px;
      }

      .cls-1, .cls-3 {
        fill: #0070b6;
      }

      .cls-2 {
        fill: #fff;
      }
    </style>
  </defs>
  <g id="Livello_1-2" data-name="Livello 1">
    <g>
      <path class="cls-1" d="m283.46,0c156.53,0,283.46,126.94,283.46,283.46s-126.94,283.46-283.46,283.46S0,439.99,0,283.46,126.94,0,283.46,0h0Z"/>
      <path class="cls-2" d="m283.46,11.59c150.13,0,271.88,121.75,271.88,271.88s-121.75,271.88-271.88,271.88S11.59,433.59,11.59,283.46,133.34,11.59,283.46,11.59h0Z"/>
      <path class="cls-1" d="m283.46,79.59c112.58,0,203.88,91.3,203.88,203.87,0,41.61-12.47,80.31-33.88,112.57,9.19,2.51,17.55.97,22.36-4.87-2.78,14.17-14.75,18.06-26.01,18.59-9.56.44-20.61-2.49-31.34-7.65-18.44-8.88-33.67-23.43-53.31-35.14-13.32-7.94-27.92-14.88-42.83-18.94v29.04c9.75,3.41,19.2,7.78,27.96,12.73,20.83,11.78,42.28,28.73,63.67,38.2,5-4.52,9.77-9.29,14.27-14.3,3.29,1.03,6.66,1.87,10.04,2.44-4.66,5.44-9.61,10.62-14.81,15.54,1.06.35,2.11.67,3.17.97,9.09,2.57,20.35,3.58,29.81,2.19,15.11-2.23,28.42-12.41,31.84-25.47,2.16-8.22.34-16.27-6.06-20.7,9.99-.79,15.93,8.66,15.32,18.68-.83,13.46-9.11,24.4-19.48,31.44-10.37,7.05-22.83,10.2-34.05,10.81-12.24.66-31.86-1.68-47.61-8.98-20.9-9.69-41.36-25.44-62.66-37.29-3.52-1.96-7.05-3.8-10.61-5.51.81,3.7,2.43,7.44,5.67,11.36h-33.7c6.4-9.7,6.47-15.36,6.47-23.48v-75.66c6.92-.78,13.97-2.29,20.76-4.51v20.28c7.22,4.75,17.05,8.63,25.57,10.93,11.83,3.2,28.99,3.22,40.72-.62,13.49-4.43,23.59-13.01,31.24-23.4,8.74-11.87,13.72-27,13.72-43.7,0-20.31-7.06-38.99-19.69-51.65-11.14-11.17-26.5-17.88-43.53-17.74-17.44.14-35.26,6.49-48.03,18.08v64.06c2.63-1.6,5.08-3.38,7.3-5.32,14.4-12.54,23.14-31.81,23.14-53.61,0-4.56-.35-9-1.04-13.28,6.11-1.78,12.45-2.72,18.68-2.76,1.23,0,2.46.02,3.68.09.87,4.99,1.32,10.16,1.32,15.47,0,25.83-12.08,48.85-30.9,63.71-13.81,10.91-34.62,17.42-53.59,17.42-15.9,0-34.64-3.94-48.07-10.78v40.49c5.05-4.38,9.52-9.55,13.27-15.36,2.18-3.37,4.1-6.97,5.76-10.75,6.94,1.68,14.07,2.78,20.92,3.27-2.23,4.71-4.91,9.19-8.04,13.4-7.97,10.73-18.57,19.66-30.84,25.97.82,3.58,2.25,7.25,4.72,11.33h-32.73c.37-.6.71-1.19,1.04-1.76h0s.02-.04.02-.04l.02-.04.08-.15.02-.04.02-.04h0s.02-.04.02-.04l.02-.04.02-.04.08-.15.02-.04v-.02s.02-.02.02-.02c2.41-4.35,4.04-8.81,4.67-13.75.27-2.27.35-4.58.35-7.1v-131.09c7.66,3.01,14.64,7.65,20.54,13.7v51.95c5.8,5.7,14.81,10.91,24.96,14.35.74-4.63,1.13-9.39,1.13-14.26,0-21.71-6.59-41.11-19.01-54.96-12.57-14.02-30.14-22-48.98-21.93-20.53.08-39.39,9.27-52,25.35-10.61,13.53-16.68,32.14-16.68,51.54,0,14.81,3.75,29.23,10.25,40.92,3.89,7.01,8.77,13.19,14.41,18.36-2.4-7.53-1.11-14.21,1.89-19.04,4.7-7.59,13.82-11.23,21.1-11.25,8.75-.03,16.89,3.55,21.61,9.94,3.95,5.34,6.49,13.82,6.16,23.73-.16,4.8-.91,9.38-2.21,13.81,2.95-.21,5.86-.63,8.7-1.24-.79,3.07-2.14,5.98-4.36,9.61l-1.53,2.49c-2.37.18-4.76.27-7.17.27h-.11c-4.98,9.75-12.49,19.01-21.69,28.64l.28.61c30.48-14.97,60.36-21.52,89.51-21.08,8.2.12,16.72.71,25.3,1.99v15.47c0,.48,0,.94,0,1.38-8.75-2.32-17.75-3.85-27.1-4.48-30.24-2.04-63.83,2.56-104.73,26.42l-10.77-11.61c18.78-12.1,31.74-26.19,37.89-40.6,3.73-8.73,6.2-19.9,4.16-29.55-1.56-7.39-6.59-12.3-13.77-12.5-6.3-.17-12.75,4.73-13.3,12.12-.43,5.85.54,13.28,12.87,18.59,1.92.67,3.87,1.26,5.86,1.75-.68,2.38-1.51,4.67-2.41,6.77-.58,1.35-1.22,2.69-1.91,4-24.34-5.14-45.36-19.49-58.05-39.34-8.59-13.44-12.89-29.63-12.89-46.65,0-22.3,8.03-43.69,22.07-59.24,16.68-18.48,41.64-29.04,68.8-29.14,7.24-.02,14.36.85,21.21,2.49v-22.02c0-7.06-1.74-14.48-6.4-20.2h26.94v8.98c13.55-7.48,31.61-11.55,48.22-11.67,22.01-.16,44.7,8.49,59.1,21.58,7.33,6.66,13.16,14.55,17.37,23.36,1.28-.06,2.56-.1,3.83-.12,23.09-.33,45.18,8.89,59.74,22.12,16.51,15,25.51,36.14,25.51,60.2,0,26.11-12.22,50.61-31.24,65.62-13.74,10.85-34.34,18.29-53.26,18.52v1.14c5.49.65,16.36,5.73,24.76,10.66,15.95,9.37,33.05,21.82,47.74,28.45,21.18-31.16,33.56-68.77,33.56-109.28,0-107.53-87.2-194.73-194.73-194.73s-194.73,87.2-194.73,194.73,87.2,194.73,194.73,194.73c39.69,0,76.61-11.89,107.4-32.29.84.41,1.68.81,2.52,1.2,2.37,1.1,4.88,2.12,7.49,3.05-33.2,23.43-73.7,37.2-117.41,37.2-112.58,0-203.87-91.3-203.87-203.88s91.3-203.87,203.87-203.87h0Zm-40.61,113.99v-20.11c13.11-13.09,30.27-19.01,47.21-19.14,16.84-.13,32.37,7.17,43.39,18.22,4.88,4.89,8.89,10.56,11.97,16.85-8.35,2.06-16.3,5.04-23.1,8.87v-8.6h-27.23c4.71,5.11,6.47,13.28,6.47,20.42v79.66c-4.04.72-8.18,1.01-12.3.91,1.19-6,1.79-12.24,1.79-18.66,0-18.8-5.3-36.73-15.4-50.99-7.78-10.98-19.26-20.66-32.8-27.42h0Z"/>
      <path class="cls-3" d="m227.76,493.54c-2.16.4-4.22.75-6.19,1.04-1.96.29-3.91.52-5.84.72-1.93.19-3.92.33-5.97.44.17.24.37.56.59.99.22.42.42.87.64,1.36.21.49.38.95.53,1.4.58-.07,1.2-.17,1.9-.28.69-.13,1.38-.25,2.07-.38.69-.13,1.31-.24,1.88-.35.56-.1,1-.16,1.31-.2l-4.52,15.17c-.45,1.5-.92,2.98-1.4,4.44-.48,1.45-.95,2.83-1.41,4.13-.46,1.3-.88,2.47-1.26,3.52-.38,1.04-.69,1.9-.95,2.59.72.15,1.44.3,2.18.45.73.16,1.45.34,2.15.54.7.22,1.39.45,2.07.72.68.27,1.36.53,2.04.81.48-1.85.91-3.53,1.32-5.02.4-1.49.77-2.89,1.14-4.2.36-1.3.73-2.6,1.1-3.88.37-1.28.77-2.63,1.2-4.06l.98-3.28c.41-1.36.83-2.77,1.29-4.2.45-1.42.91-2.83,1.39-4.22.47-1.4.92-2.73,1.37-4.01.46-1.28.88-2.44,1.29-3.5l-.89-.74h0Z"/>
      <path class="cls-3" d="m306.16,527.97c.11,2.07-.02,3.78-.4,5.13-.38,1.35-.92,2.36-1.62,3.04-.69.68-1.47,1.04-2.33,1.08-.98.06-1.85-.22-2.62-.84-.77-.61-1.4-1.57-1.87-2.85-.48-1.29-.78-2.92-.91-4.88-.12-2.12-.01-3.84.31-5.16.33-1.32.82-2.29,1.5-2.92.69-.62,1.49-.96,2.43-1.01.98-.07,1.86.19,2.64.76.78.57,1.43,1.49,1.92,2.75.5,1.26.81,2.89.93,4.89h0Zm-10.96-9.37c-1,.29-1.94.73-2.84,1.32-.88.59-1.66,1.33-2.33,2.2-.67.88-1.17,1.92-1.51,3.11-.34,1.18-.48,2.53-.4,4.03.12,1.84.54,3.43,1.26,4.76.73,1.34,1.7,2.44,2.92,3.3,1.21.85,2.63,1.46,4.23,1.83,1.61.36,3.36.5,5.24.38,1.93-.11,3.69-.47,5.28-1.07,1.59-.61,2.95-1.44,4.09-2.51,1.14-1.06,2-2.35,2.57-3.86.57-1.51.8-3.23.7-5.17-.09-1.42-.4-2.67-.92-3.74-.52-1.08-1.18-1.98-1.97-2.73-.8-.74-1.65-1.32-2.57-1.73-.92-.41-1.83-.67-2.72-.76l-.02-.39c1.16-.31,2.2-.85,3.12-1.62.92-.77,1.63-1.74,2.13-2.92.51-1.18.72-2.56.65-4.13-.07-1.19-.38-2.28-.92-3.29-.56-1.01-1.35-1.88-2.39-2.62-1.04-.74-2.32-1.28-3.85-1.65-1.53-.36-3.32-.48-5.35-.37-1.72.1-3.29.4-4.71.88-1.42.49-2.63,1.15-3.65,1.99-1.03.84-1.79,1.84-2.32,3.01-.52,1.17-.74,2.49-.67,3.97.1,1.33.47,2.53,1.11,3.6.65,1.06,1.48,1.93,2.5,2.59,1.01.66,2.11,1.08,3.3,1.22l.02.39h0Zm9.44-8.71c.08,1.5-.03,2.79-.35,3.87-.32,1.08-.8,1.92-1.45,2.52-.65.6-1.42.93-2.32.99-.74.04-1.45-.17-2.14-.61-.68-.46-1.25-1.16-1.72-2.11-.47-.95-.75-2.14-.85-3.58-.1-1.56-.02-2.9.22-4.02.24-1.13.69-2.01,1.32-2.65.65-.63,1.52-.99,2.61-1.05.97-.05,1.79.19,2.45.74.66.54,1.17,1.32,1.54,2.33.37,1.01.59,2.21.67,3.58h0Z"/>
      <path class="cls-3" d="m260.16,527.6c-.26,2.06-.7,3.71-1.31,4.98-.62,1.26-1.33,2.16-2.14,2.7-.8.54-1.63.76-2.48.65-.98-.12-1.78-.55-2.43-1.3-.65-.74-1.09-1.79-1.33-3.14-.24-1.36-.25-3.01-.02-4.96.27-2.11.68-3.78,1.23-5.02.56-1.24,1.22-2.1,2-2.6.79-.49,1.64-.68,2.57-.55.98.11,1.79.52,2.46,1.22.67.7,1.14,1.72,1.4,3.05.26,1.33.28,2.98.04,4.97h0Zm-9.1-11.18c-1.04.11-2.04.37-3.03.79-.98.42-1.87,1.01-2.68,1.75-.82.75-1.5,1.67-2.05,2.79-.55,1.1-.92,2.4-1.12,3.89-.21,1.83-.08,3.47.38,4.91.47,1.45,1.23,2.71,2.28,3.77,1.04,1.05,2.32,1.9,3.84,2.56,1.52.65,3.21,1.09,5.09,1.32,1.92.23,3.72.2,5.39-.11,1.67-.32,3.16-.89,4.47-1.74,1.31-.84,2.39-1.95,3.23-3.34.83-1.39,1.37-3.04,1.61-4.96.16-1.41.08-2.7-.24-3.85-.32-1.15-.8-2.16-1.45-3.04-.66-.87-1.39-1.59-2.22-2.17-.84-.57-1.68-.99-2.54-1.23l.05-.39c1.2-.1,2.32-.44,3.36-1.03,1.04-.59,1.92-1.42,2.62-2.49.72-1.07,1.17-2.39,1.38-3.95.14-1.18.04-2.31-.32-3.4-.37-1.09-.99-2.09-1.88-3-.89-.91-2.05-1.67-3.49-2.31-1.44-.63-3.18-1.07-5.19-1.32-1.71-.21-3.3-.2-4.79.02-1.48.23-2.8.66-3.95,1.3-1.16.64-2.1,1.49-2.82,2.54-.72,1.06-1.18,2.32-1.37,3.78-.14,1.33,0,2.57.45,3.74.45,1.16,1.11,2.16,1.99,3,.88.83,1.88,1.44,3.02,1.79l-.05.39h0Zm10.85-6.88c-.19,1.49-.53,2.73-1.04,3.75-.51,1-1.13,1.75-1.87,2.22-.75.47-1.56.66-2.46.56-.73-.09-1.4-.43-1.99-.99-.59-.57-1.02-1.37-1.31-2.39-.29-1.02-.36-2.24-.19-3.67.18-1.55.5-2.85.94-3.92.44-1.07,1.04-1.85,1.78-2.37.75-.5,1.67-.7,2.76-.57.96.13,1.73.51,2.28,1.16.55.65.92,1.51,1.1,2.57.18,1.06.18,2.28.02,3.64h0Z"/>
      <path class="cls-3" d="m335.12,534.7c1.94-.56,3.89-1.11,5.84-1.66,1.94-.56,3.9-1.08,5.85-1.59,2.04-.51,4.08-.99,6.12-1.44,2.04-.46,4.08-.92,6.14-1.37-.19-.59-.38-1.18-.58-1.76-.21-.59-.38-1.18-.54-1.77-.14-.6-.26-1.2-.36-1.79-.09-.59-.21-1.19-.32-1.8-2.51.83-5.05,1.6-7.62,2.29-2.56.7-5.13,1.37-7.68,2.04l-.08-.1c1.98-2.79,3.64-5.27,4.99-7.46,1.36-2.19,2.45-4.13,3.26-5.84.82-1.7,1.42-3.23,1.8-4.57.38-1.33.57-2.55.6-3.64.02-1.09-.1-2.1-.35-3.05-.2-.85-.54-1.69-1.01-2.5-.47-.82-1.09-1.57-1.87-2.23-.79-.67-1.74-1.2-2.87-1.6-1.14-.4-2.48-.6-4.03-.6-1.55-.01-3.33.23-5.34.73-2.12.55-3.86,1.32-5.23,2.32-1.38,1-2.42,2.15-3.12,3.43-.71,1.29-1.11,2.64-1.21,4.08.85.38,1.7.78,2.56,1.18.85.4,1.72.85,2.6,1.34l.5-.3c-.16-.58-.28-1.22-.36-1.95-.08-.72-.08-1.47-.02-2.23.07-.77.22-1.49.47-2.19.25-.69.63-1.29,1.13-1.8.5-.51,1.15-.87,1.95-1.08.7-.19,1.41-.22,2.13-.11.72.11,1.41.4,2.1.88.67.48,1.29,1.18,1.85,2.12.57.94,1.03,2.14,1.42,3.62.46,1.79.63,3.63.52,5.56-.12,1.92-.54,4-1.29,6.21-.73,2.21-1.82,4.66-3.23,7.31-1.41,2.66-3.19,5.61-5.33,8.87l.62,2.45h0Z"/>
      <path class="cls-3" d="m27.34,271.95c-.08,2.62.18,5.06.78,7.32.6,2.25,1.49,4.29,2.67,6.1,1.17,1.82,2.57,3.38,4.21,4.69,1.64,1.31,3.46,2.32,5.45,3.05,1.99.73,4.1,1.13,6.33,1.22,2.79.09,5.3-.19,7.51-.83,2.21-.64,4.14-1.58,5.79-2.82,1.64-1.23,3.02-2.7,4.12-4.4,1.1-1.7,1.94-3.57,2.52-5.61.58-2.03.91-4.16.99-6.4,1.64-3.84,3.53-7.01,6.92-12.38-1.56-2.21-3.01-6.44-3.43-8.33-.62,2.48-1.67,8.62-4.24,12.78-.95-3.04-2.32-5.67-4.12-7.87-1.8-2.21-3.94-3.93-6.42-5.16-2.48-1.24-5.22-1.91-8.2-2.03-2.72-.09-5.18.19-7.35.82-2.19.64-4.1,1.57-5.76,2.81-1.65,1.24-3.04,2.73-4.17,4.47-1.12,1.74-1.98,3.67-2.58,5.79-.6,2.13-.94,4.39-1.03,6.79h0Zm19.38-11.47c3.08.12,5.72.56,7.96,1.31,2.23.75,4.06,1.74,5.5,2.97,1.43,1.23,2.47,2.61,3.14,4.16.66,1.55.96,3.18.9,4.88-.05,1.59-.38,3.08-.99,4.49-.62,1.4-1.58,2.63-2.89,3.68-1.3,1.06-2.99,1.86-5.09,2.42-2.09.56-4.64.79-7.63.69-2.45-.09-4.71-.45-6.8-1.07-2.09-.62-3.92-1.48-5.48-2.59-1.56-1.1-2.76-2.43-3.61-3.98-.84-1.55-1.24-3.28-1.18-5.22.06-1.82.49-3.48,1.26-4.96.78-1.48,1.87-2.73,3.27-3.78,1.4-1.04,3.08-1.83,5.04-2.36,1.97-.52,4.17-.74,6.61-.66h0Z"/>
      <path class="cls-3" d="m74.72,226.16c.96-3.53,1.14-6.67.55-9.38-.59-2.72-2.05-5.05-4.36-6.97-2.32-1.92-5.58-3.45-9.8-4.58-2.37-.63-4.61-1.26-6.72-1.87-2.1-.61-4.04-1.19-5.8-1.74-1.76-.54-3.29-1.04-4.61-1.48-1.32-.44-2.38-.81-3.17-1.11-.04.49-.1.96-.17,1.42-.07.46-.17.92-.29,1.39-.12.46-.28.92-.45,1.37-.18.45-.37.9-.57,1.34,2.55.54,5.09,1.1,7.6,1.69,2.52.59,5.03,1.22,7.55,1.9,2.04.54,4.02,1.12,5.91,1.72,1.89.61,3.61,1.31,5.17,2.08,1.57.76,2.88,1.66,3.94,2.67,1.07,1.01,1.8,2.19,2.18,3.52.39,1.34.36,2.87-.09,4.61-.37,1.42-.83,2.68-1.37,3.77-.54,1.1-1.25,2-2.1,2.71-.87.72-1.96,1.21-3.27,1.5-1.32.29-2.93.34-4.85.14-1.91-.19-4.2-.64-6.85-1.35-2.1-.56-4.16-1.12-6.18-1.7-2.03-.58-4.08-1.21-6.17-1.89-2.08-.68-4.27-1.44-6.57-2.31-.12.76-.25,1.52-.4,2.29-.16.77-.33,1.52-.53,2.26-.2.74-.43,1.48-.67,2.22-.26.74-.52,1.47-.8,2.19.91.18,2.31.5,4.18.95,1.87.46,4.25,1.07,7.14,1.84.97.26,1.91.52,2.82.77.92.26,1.85.52,2.82.8.97.27,2.03.57,3.19.89,1.15.32,2.46.68,3.93,1.07,2.56.67,4.87.84,6.92.48,2.06-.35,3.86-1.13,5.41-2.32,1.55-1.2,2.87-2.74,3.95-4.6,1.08-1.87,1.93-3.97,2.55-6.33h0Z"/>
      <path class="cls-3" d="m69.91,190.25c1.41.68,2.73,1.32,3.95,1.92,1.21.61,2.37,1.19,3.48,1.76,1.1.57,2.17,1.14,3.22,1.71,1.05.57,2.11,1.16,3.18,1.77.08-.22.18-.48.29-.78.12-.3.28-.69.48-1.16.21-.47.48-1.1.82-1.86.34-.76.78-1.71,1.33-2.86.54-1.14,1.2-2.54,1.99-4.18.74-1.54,1.39-2.85,1.96-3.94.56-1.08,1.06-2,1.48-2.77.41-.76.77-1.44,1.08-2.03-.31-.09-.65-.19-.98-.31-.34-.11-.77-.29-1.29-.54-.35-.17-.65-.32-.89-.47-.24-.14-.47-.28-.68-.41-.19-.14-.41-.28-.62-.42-.71,2.06-1.48,4.09-2.31,6.07-.82,1.98-1.69,3.93-2.61,5.83-1.04-.44-2.1-.9-3.18-1.38-1.08-.49-2.16-1-3.22-1.51-1.09-.52-2.17-1.06-3.24-1.59-1.08-.54-2.15-1.06-3.21-1.58.92-1.92,1.88-3.82,2.87-5.69.99-1.87,2.03-3.73,3.11-5.58-.38-.12-.69-.22-.95-.29-.26-.08-.49-.15-.68-.22-.2-.06-.39-.15-.56-.23-.21-.1-.42-.21-.62-.32-.19-.11-.41-.25-.65-.42-.25-.16-.54-.36-.89-.61-.54,1.31-1.08,2.56-1.62,3.79-.53,1.22-1.08,2.47-1.64,3.76-.57,1.28-1.19,2.65-1.86,4.13-1.85-.88-3.68-1.78-5.5-2.69-1.82-.91-3.62-1.87-5.41-2.87.15-.31.39-.78.71-1.38.33-.61.71-1.32,1.16-2.12.44-.8.9-1.65,1.4-2.55.49-.89.98-1.77,1.47-2.65.49-.88.95-1.69,1.37-2.44-.27-.09-.51-.16-.74-.23-.23-.08-.47-.16-.72-.27-.27-.1-.56-.23-.91-.4-.45-.21-.83-.43-1.15-.64-.31-.19-.61-.4-.88-.59-.18.5-.49,1.26-.94,2.31-.46,1.04-1.02,2.29-1.69,3.73-.66,1.44-1.39,2.98-2.2,4.65-.73,1.49-1.48,2.97-2.28,4.45-.79,1.48-1.56,2.96-2.31,4.43,1.14.46,2.26.91,3.37,1.38,1.1.46,2.21.95,3.34,1.45,1.12.51,2.31,1.05,3.54,1.62,1.23.58,2.55,1.21,3.96,1.89l6.88,3.31h0Z"/>
      <path class="cls-3" d="m87.23,157.46c1.28.9,2.48,1.75,3.58,2.53,1.1.79,2.15,1.56,3.15,2.29.99.74,1.96,1.48,2.9,2.2.94.73,1.89,1.49,2.85,2.26.12-.2.26-.45.42-.73.17-.27.39-.63.66-1.07.28-.43.65-1.01,1.11-1.7.46-.69,1.05-1.56,1.77-2.61.72-1.04,1.6-2.31,2.64-3.8.98-1.4,1.84-2.59,2.57-3.57.73-.98,1.37-1.81,1.91-2.49.52-.68,1-1.29,1.39-1.82-.29-.14-.61-.29-.92-.46-.32-.17-.72-.41-1.19-.74-.31-.22-.59-.42-.8-.6-.22-.18-.42-.35-.6-.51-.17-.17-.36-.34-.54-.52-1.03,1.92-2.12,3.79-3.26,5.62-1.13,1.83-2.31,3.61-3.51,5.33-.95-.6-1.93-1.23-2.91-1.88-.99-.66-1.97-1.33-2.93-2.01-.99-.69-1.97-1.39-2.94-2.09-.98-.71-1.95-1.4-2.91-2.07,1.22-1.75,2.47-3.47,3.76-5.15,1.28-1.68,2.61-3.35,3.97-5-.35-.18-.65-.33-.89-.44-.24-.13-.46-.23-.64-.33-.18-.09-.36-.21-.52-.32-.19-.13-.38-.28-.56-.41-.17-.14-.36-.31-.57-.52-.22-.2-.48-.45-.78-.75-.75,1.2-1.48,2.36-2.21,3.48-.72,1.12-1.46,2.27-2.23,3.44-.77,1.17-1.61,2.43-2.51,3.77-1.68-1.17-3.34-2.35-4.99-3.54-1.65-1.19-3.27-2.43-4.87-3.71.2-.28.51-.71.92-1.25.42-.55.91-1.19,1.48-1.91.56-.72,1.16-1.49,1.79-2.29.63-.8,1.25-1.59,1.88-2.37.62-.79,1.21-1.52,1.75-2.19-.25-.13-.48-.24-.69-.35-.22-.12-.44-.24-.67-.38-.25-.14-.52-.32-.83-.54-.41-.28-.75-.56-1.03-.81-.28-.24-.54-.49-.77-.72-.25.46-.69,1.16-1.3,2.12-.62.96-1.38,2.1-2.27,3.41-.88,1.31-1.86,2.72-2.92,4.24-.96,1.35-1.94,2.69-2.97,4.02-1.02,1.33-2.02,2.67-3,4,1.05.63,2.08,1.27,3.1,1.91,1.01.64,2.03,1.3,3.06,1.97,1.03.69,2.11,1.41,3.23,2.17,1.12.77,2.33,1.61,3.61,2.5l6.26,4.38h0Z"/>
      <path class="cls-3" d="m101.76,117.9c1.33,1.38,2.69,2.82,4.05,4.3,1.37,1.48,2.71,2.95,4.03,4.41,1.31,1.47,2.55,2.86,3.71,4.19,1.16,1.33,2.21,2.52,3.13,3.61.92,1.08,1.68,1.98,2.26,2.7.59.71.97,1.2,1.13,1.43.24-.35.51-.7.79-1.04.28-.34.58-.66.88-.95.3-.29.63-.57.99-.85.36-.26.72-.53,1.11-.78-.38-.33-.84-.75-1.36-1.24-.53-.48-1.17-1.11-1.94-1.85-.77-.76-1.7-1.69-2.81-2.81-1.11-1.13-2.43-2.49-3.98-4.1-.98-1.02-1.98-2.06-3-3.12-1.01-1.06-2.03-2.14-3.04-3.21-1.01-1.07-1.99-2.12-2.94-3.17,6.27.28,12.46.64,18.56,1.08,6.11.43,12.12.96,18.04,1.57.18-.29.4-.59.62-.88.23-.29.48-.57.76-.84.28-.27.58-.52.88-.74.31-.22.63-.44.97-.65-1.72-1.79-3.32-3.45-4.79-5-1.48-1.54-2.89-3.01-4.23-4.44-1.34-1.41-2.66-2.82-3.96-4.23-1.3-1.4-2.63-2.86-3.98-4.36-1.36-1.51-2.8-3.12-4.31-4.85-1.52-1.72-3.16-3.61-4.93-5.67-.24.35-.5.69-.77,1.02-.27.33-.56.64-.86.93-.3.29-.63.56-.96.82-.34.25-.69.5-1.05.73.35.26.91.77,1.67,1.49.77.73,1.68,1.62,2.73,2.68,1.06,1.06,2.21,2.23,3.44,3.48,1.24,1.26,2.5,2.56,3.79,3.89,1.29,1.34,2.55,2.64,3.78,3.91,1.23,1.27,2.36,2.45,3.4,3.53-6.06-.36-12.1-.74-18.09-1.13-5.99-.4-12-.81-18-1.23-.24.35-.5.69-.77,1.02-.27.33-.56.64-.86.93-.3.29-.63.56-.96.82-.34.25-.69.5-1.05.73.63.63,1.34,1.32,2.13,2.07.79.76,1.66,1.61,2.62,2.55.97.95,2.03,2.03,3.19,3.24h0Z"/>
      <path class="cls-3" d="m155.83,69.57c-.24-.81-.46-1.53-.64-2.15-.18-.62-.35-1.2-.49-1.76-.15-.55-.29-1.12-.41-1.72-1.36-.13-2.81.01-4.35.44-1.55.43-3.16,1.2-4.86,2.3-1.41.92-2.61,2.02-3.58,3.28-.98,1.27-1.68,2.64-2.11,4.14-.42,1.49-.5,3.06-.25,4.67.24,1.62.9,3.24,1.95,4.88.87,1.32,1.83,2.34,2.86,3.06,1.03.72,2.11,1.22,3.24,1.49,1.13.28,2.29.4,3.46.38,1.18-.01,2.34-.09,3.51-.24,1.17-.15,2.3-.28,3.4-.41,1.11-.12,2.15-.17,3.13-.12.99.06,1.88.28,2.69.66.81.39,1.51,1.01,2.09,1.88.58.88.9,1.82.97,2.81.06.99-.17,1.96-.71,2.92-.53.96-1.41,1.85-2.62,2.66-1.28.81-2.52,1.29-3.72,1.42-1.2.13-2.32-.01-3.36-.42-1.04-.41-1.94-1.02-2.72-1.83l-.89.58c.35.77.67,1.52.95,2.24.29.73.56,1.47.81,2.22.25.76.51,1.55.78,2.4.69.05,1.51-.02,2.46-.2.95-.19,1.97-.51,3.07-.96,1.11-.44,2.22-1.04,3.36-1.77,1.87-1.23,3.4-2.6,4.59-4.11,1.19-1.51,2.03-3.08,2.51-4.75.48-1.66.59-3.32.34-5.01-.26-1.68-.9-3.31-1.93-4.9-.87-1.32-1.84-2.34-2.88-3.06-1.04-.72-2.13-1.21-3.29-1.48-1.15-.27-2.32-.4-3.51-.38-1.19.02-2.39.11-3.58.26-1.18.16-2.34.3-3.46.44-1.12.13-2.17.18-3.17.14-1-.04-1.9-.24-2.72-.62-.81-.37-1.5-.98-2.08-1.84-.49-.76-.74-1.61-.75-2.51,0-.91.23-1.8.72-2.66.47-.87,1.19-1.62,2.15-2.26,1.43-.94,2.83-1.37,4.21-1.3,1.38.06,2.75.6,4.12,1.62l.7-.46h0Z"/>
      <path class="cls-3" d="m200.15,65.05c.49,1.49.93,2.88,1.35,4.18.4,1.3.78,2.54,1.14,3.72.35,1.19.68,2.36,1,3.5.32,1.15.62,2.33.92,3.52.57-.25,1.21-.52,1.91-.82.71-.29,1.5-.58,2.38-.88.88-.28,1.69-.51,2.44-.7.74-.17,1.42-.34,2.02-.46-1.05-2.61-2.05-5.24-2.97-7.89-.93-2.65-1.82-5.31-2.69-7.98l2.72-.89c2-.65,3.77-1.46,5.29-2.44,1.53-.97,2.76-2.11,3.68-3.43.93-1.31,1.5-2.8,1.7-4.47.2-1.67-.03-3.52-.69-5.56-.51-1.57-1.22-2.84-2.14-3.82-.93-.98-2.1-1.76-3.52-2.31-.69-.28-1.5-.46-2.41-.52-.92-.06-1.99.01-3.23.23-1.24.22-2.69.59-4.35,1.14-1.29.43-2.59.91-3.89,1.42-1.31.52-2.58.98-3.82,1.4-.88.29-1.69.51-2.44.69-.74.18-1.42.34-2.02.47.46,1.14.91,2.26,1.33,3.38.42,1.11.84,2.25,1.26,3.42.41,1.17.84,2.39,1.28,3.68.43,1.29.9,2.68,1.38,4.17l2.37,7.26h0Zm12.05-16.99c.55,1.71.75,3.17.6,4.37-.15,1.21-.52,2.21-1.14,3-.61.8-1.36,1.44-2.23,1.93-.87.49-1.76.87-2.67,1.16-.81-2.48-1.62-4.98-2.41-7.49-.8-2.51-1.59-5.02-2.39-7.54.28-.12.63-.25,1.01-.38.38-.13.79-.27,1.22-.41,1.03-.35,2.03-.44,3.03-.26,1,.17,1.92.7,2.78,1.59.86.89,1.59,2.23,2.19,4.03h0Z"/>
      <path class="cls-3" d="m242.55,29.59c-.35.12-.69.24-1.02.36-.33.12-.67.22-1.03.28-.36.06-.72.09-1.07.08-.35,0-.71,0-1.08,0-.37,1.93-.78,3.98-1.22,6.17-.45,2.18-.91,4.41-1.4,6.71-.49,2.3-.99,4.6-1.5,6.89-.5,2.29-1,4.51-1.49,6.66-.49,2.15-.95,4.16-1.39,6.05-.43,1.88-.82,3.56-1.18,5.05-.35,1.49-.64,2.71-.88,3.66.5-.15.98-.29,1.42-.44.43-.13.87-.24,1.3-.32.44-.07.88-.12,1.32-.13.44,0,.88-.03,1.33-.04.19-2,.43-4,.72-5.99.29-2,.64-4,1.06-6.01.96-.2,1.92-.39,2.86-.58.95-.19,1.9-.37,2.87-.54,1.19-.21,2.37-.4,3.55-.58,1.17-.19,2.36-.36,3.55-.54,1.02,1.76,2.01,3.53,2.98,5.32.97,1.79,1.91,3.57,2.81,5.35.76-.2,1.54-.39,2.32-.59.78-.19,1.56-.36,2.33-.5.78-.13,1.56-.23,2.37-.32.81-.08,1.66-.17,2.55-.26-.96-1.39-2.02-2.96-3.16-4.71-1.14-1.75-2.34-3.62-3.6-5.62-1.25-2-2.55-4.08-3.86-6.23-1.32-2.15-2.64-4.33-3.95-6.52-1.32-2.2-2.61-4.37-3.88-6.5-1.27-2.14-2.48-4.19-3.63-6.17h0Zm-5.24,25.48c.41-2.38.85-4.74,1.34-7.08.48-2.33,1-4.67,1.56-6.99,1.25,2,2.48,4.03,3.66,6.08,1.18,2.05,2.37,4.13,3.56,6.23l-10.12,1.77h0Z"/>
      <path class="cls-3" d="m291.33,65.47c.84-.06,1.69-.1,2.56-.16.86-.05,1.71-.07,2.56-.07.84.02,1.68.06,2.53.12.84.07,1.68.14,2.52.21-1.34-2.13-2.7-4.27-4.06-6.41-1.35-2.14-2.68-4.28-3.98-6.41-1.3-2.13-2.54-4.27-3.72-6.39,2.81-.67,4.96-1.87,6.48-3.58,1.51-1.72,2.29-3.93,2.33-6.66,0-1.66-.3-3.11-.94-4.35-.63-1.24-1.51-2.27-2.63-3.1-.47-.36-.99-.66-1.53-.91-.55-.25-1.19-.45-1.91-.61-.73-.16-1.6-.28-2.62-.35-1.01-.09-2.22-.13-3.63-.14-1.26-.01-2.4,0-3.39.04-.99.04-1.88.06-2.68.1-.8.04-1.53.06-2.19.05-.93,0-1.77-.06-2.54-.13-.76-.06-1.45-.14-2.07-.2.07,1.23.13,2.43.18,3.63.04,1.19.08,2.41.1,3.64.02,1.24.03,2.54.03,3.89,0,1.36-.01,2.83-.03,4.39l-.08,7.64c-.02,1.56-.04,3.02-.06,4.39-.03,1.36-.07,2.66-.12,3.89-.05,1.24-.11,2.45-.18,3.64-.07,1.19-.16,2.4-.25,3.63.62-.06,1.31-.11,2.07-.17.77-.05,1.61-.07,2.54-.07.93.02,1.77.06,2.53.12.76.07,1.45.14,2.07.21-.07-1.23-.13-2.44-.18-3.63-.04-1.19-.08-2.41-.1-3.64-.02-1.24-.03-2.54-.03-3.89,0-1.37.01-2.83.03-4.39l.02-2.3h.51s9.86,17.96,9.86,17.96h0Zm-1.39-28.2c-.04,2.64-.71,4.63-2.03,5.97-1.32,1.34-3.21,2-5.69,1.98-.2,0-.39-.01-.6-.04-.2-.02-.41-.05-.64-.08.03-2.55.06-5.1.12-7.64.05-2.54.13-5.08.21-7.63,1.53,0,2.84.09,3.94.26,1.1.17,2,.51,2.69,1,.7.5,1.21,1.25,1.54,2.23.33,1,.47,2.31.45,3.95h0Z"/>
      <path class="cls-3" d="m323.65,50.92c1.3,3.2,2.62,6.42,3.95,9.66,1.32,3.23,2.64,6.46,3.94,9.7.81.08,1.62.17,2.44.25.81.09,1.62.21,2.42.34.79.15,1.6.33,2.46.54.84.22,1.79.45,2.85.71-.46-.91-1.03-2.09-1.69-3.54-.67-1.44-1.39-3.06-2.19-4.85-.79-1.79-1.61-3.66-2.45-5.59-.84-1.93-1.66-3.84-2.47-5.72-.8-1.88-1.56-3.62-2.25-5.25.6-.52,1.36-1.16,2.29-1.91.93-.75,1.95-1.57,3.07-2.45,1.12-.89,2.26-1.78,3.44-2.69,1.17-.91,2.3-1.77,3.38-2.6,1.08-.82,2.06-1.56,2.92-2.19.87-.64,1.55-1.14,2.05-1.48-.65-.06-1.24-.1-1.79-.14-.56-.03-1.08-.09-1.57-.18-.52-.1-1.03-.23-1.53-.38-.5-.15-1-.31-1.52-.46-.5.5-1.22,1.19-2.16,2.03-.94.86-2.02,1.83-3.25,2.91-1.22,1.08-2.52,2.2-3.9,3.39-1.37,1.18-2.74,2.35-4.11,3.5-1.37,1.15-2.66,2.23-3.88,3.23.33-1.8.65-3.58.98-5.35.32-1.77.65-3.45.96-5.03.32-1.58.62-2.99.9-4.23.29-1.23.55-2.21.8-2.94-.62-.05-1.31-.11-2.07-.19-.77-.07-1.6-.19-2.51-.35-.91-.17-1.73-.35-2.48-.55-.74-.19-1.41-.38-2-.54-.14,1.22-.28,2.42-.44,3.61-.16,1.18-.33,2.39-.51,3.61-.19,1.22-.4,2.51-.62,3.84-.23,1.34-.49,2.78-.77,4.32l-1.37,7.51c-.28,1.54-.55,2.98-.8,4.31-.26,1.33-.52,2.61-.77,3.82-.26,1.21-.52,2.4-.79,3.56-.27,1.16-.56,2.34-.86,3.53.62.05,1.31.11,2.07.19.77.08,1.6.2,2.51.36.91.18,1.73.35,2.48.55.73.2,1.4.38,2,.55.11-1.79.4-4.14.89-7.07.48-2.92,1.09-6.37,1.83-10.36l.11.02h0Z"/>
      <path class="cls-3" d="m384.06,89.53c.79.31,1.58.63,2.38.95.8.33,1.58.68,2.34,1.04.75.38,1.5.77,2.23,1.19.73.43,1.46.85,2.19,1.28-.3-2.5-.61-5.01-.92-7.53-.31-2.51-.59-5.01-.84-7.5-.26-2.48-.46-4.94-.62-7.37,2.82.6,5.28.44,7.39-.46,2.1-.9,3.75-2.57,4.96-5.01.72-1.49,1.06-2.94,1.02-4.33-.04-1.39-.39-2.7-1.05-3.93-.27-.53-.62-1.02-1-1.48-.39-.46-.88-.92-1.47-1.37-.59-.45-1.32-.94-2.21-1.44-.88-.51-1.95-1.07-3.22-1.68-1.14-.55-2.17-1.03-3.08-1.42-.91-.39-1.73-.75-2.46-1.06-.74-.31-1.4-.6-2-.89-.83-.41-1.57-.81-2.23-1.2-.66-.38-1.25-.74-1.78-1.07-.46,1.14-.92,2.26-1.4,3.36-.47,1.09-.96,2.21-1.47,3.33-.52,1.12-1.06,2.3-1.64,3.53-.59,1.22-1.22,2.55-1.91,3.95l-3.35,6.86c-.69,1.4-1.33,2.71-1.94,3.94-.61,1.21-1.21,2.37-1.77,3.47-.58,1.09-1.15,2.17-1.72,3.21-.57,1.04-1.17,2.1-1.79,3.17.58.21,1.23.46,1.94.74.71.29,1.48.63,2.32,1.03.83.41,1.57.81,2.24,1.2.65.39,1.25.75,1.78,1.07.46-1.14.93-2.27,1.4-3.36.47-1.09.96-2.21,1.47-3.33.52-1.12,1.06-2.3,1.64-3.53.59-1.23,1.22-2.55,1.91-3.95l1.01-2.07.45.22,1.21,20.45h0Zm10.84-26.07c-1.17,2.37-2.63,3.88-4.39,4.52-1.76.65-3.76.43-5.99-.65-.18-.09-.35-.18-.52-.3-.17-.1-.35-.22-.54-.35,1.12-2.3,2.24-4.58,3.38-6.85,1.14-2.27,2.29-4.53,3.47-6.81,1.38.65,2.53,1.3,3.45,1.92.92.63,1.59,1.32,2,2.06.41.75.56,1.65.43,2.68-.13,1.04-.56,2.29-1.29,3.77h0Z"/>
      <path class="cls-3" d="m435.83,75.83c-.33-.17-.66-.32-.97-.47-.32-.15-.63-.32-.93-.53-.3-.21-.57-.45-.81-.7-.25-.25-.5-.51-.77-.76-1.63,1.09-3.38,2.25-5.24,3.47-1.86,1.21-3.78,2.46-5.76,3.73-1.98,1.27-3.97,2.53-5.95,3.78-1.98,1.25-3.91,2.46-5.78,3.63-1.87,1.16-3.62,2.26-5.27,3.27-1.64,1.02-3.11,1.92-4.42,2.71-1.3.8-2.37,1.45-3.22,1.95.47.25.9.49,1.31.7.4.21.78.45,1.14.7.36.27.7.55,1.02.84.31.3.64.6.97.92,1.56-1.27,3.15-2.51,4.76-3.7,1.62-1.2,3.29-2.36,5.02-3.47.82.55,1.63,1.09,2.42,1.63.8.54,1.6,1.09,2.4,1.66.98.7,1.96,1.4,2.91,2.11.96.7,1.92,1.42,2.89,2.14-.53,1.96-1.1,3.92-1.69,5.86-.59,1.95-1.2,3.87-1.82,5.76.68.4,1.36.82,2.05,1.23.69.42,1.35.86,2,1.31.64.46,1.27.95,1.89,1.46.63.52,1.29,1.06,1.97,1.63.31-1.66.69-3.52,1.13-5.56.44-2.04.93-4.21,1.46-6.52.54-2.3,1.11-4.68,1.71-7.13.61-2.45,1.22-4.92,1.86-7.39.63-2.49,1.27-4.93,1.89-7.33.63-2.4,1.24-4.71,1.83-6.92h0Zm-21.8,14.2c1.98-1.38,3.97-2.72,5.98-4.03,1.99-1.3,4.02-2.57,6.07-3.8-.54,2.3-1.12,4.6-1.74,6.88-.63,2.29-1.26,4.59-1.93,6.91l-8.37-5.95h0Z"/>
      <path class="cls-3" d="m452.48,104.12c-1.4,1.31-2.86,2.64-4.36,3.98-1.5,1.35-2.99,2.66-4.48,3.96-1.49,1.29-2.9,2.5-4.25,3.65-1.34,1.14-2.56,2.17-3.66,3.08-1.09.9-2.01,1.64-2.73,2.21-.72.58-1.21.95-1.45,1.11.35.25.69.52,1.03.8.33.29.65.59.94.89.29.31.56.64.83,1,.26.36.52.73.76,1.12.34-.38.76-.83,1.26-1.34.49-.52,1.13-1.15,1.88-1.91.77-.75,1.71-1.68,2.86-2.77,1.14-1.09,2.53-2.39,4.16-3.92,1.03-.96,2.09-1.95,3.17-2.95,1.08-1,2.17-2,3.26-2.99,1.08-.99,2.15-1.96,3.21-2.89-.38,6.26-.83,12.44-1.37,18.54-.53,6.1-1.15,12.1-1.85,18.02.29.19.58.4.87.63.28.23.56.49.83.78.27.29.51.59.73.89.21.31.43.64.63.98,1.81-1.69,3.5-3.26,5.07-4.72,1.56-1.45,3.06-2.84,4.5-4.16,1.43-1.32,2.86-2.61,4.29-3.9,1.42-1.27,2.9-2.59,4.43-3.91,1.53-1.34,3.17-2.75,4.91-4.24,1.75-1.49,3.66-3.1,5.74-4.84-.35-.25-.68-.51-1.01-.78-.32-.28-.63-.56-.92-.87-.29-.31-.55-.64-.81-.97-.25-.35-.49-.7-.71-1.07-.27.34-.78.89-1.52,1.65-.74.76-1.65,1.65-2.72,2.69-1.08,1.04-2.26,2.17-3.54,3.39-1.28,1.22-2.6,2.46-3.94,3.73-1.36,1.27-2.68,2.51-3.97,3.72-1.29,1.21-2.48,2.32-3.59,3.34.46-6.06.93-12.08,1.42-18.07.49-5.99.99-11.98,1.51-17.98-.35-.25-.68-.51-1.01-.78-.32-.28-.63-.57-.92-.87-.29-.31-.55-.63-.81-.97-.25-.35-.49-.7-.71-1.06-.64.62-1.34,1.32-2.1,2.1-.78.77-1.63,1.64-2.59,2.58-.97.95-2.06,2-3.29,3.14h0Z"/>
      <path class="cls-3" d="m505.03,169.1c.91-.34,1.84-.64,2.81-.89.96-.25,1.93-.49,2.91-.71-.08-1.51-.25-2.98-.52-4.41-.28-1.43-.7-2.87-1.27-4.33-.56-1.46-1.33-2.99-2.3-4.6-1.36-2.27-2.89-4.27-4.59-5.98-1.69-1.71-3.53-3.1-5.5-4.15-1.97-1.06-4.04-1.75-6.23-2.07-2.19-.31-4.45-.21-6.8.32-2.35.53-4.74,1.52-7.19,2.98-2.45,1.5-4.4,3.3-5.81,5.41-1.42,2.12-2.32,4.45-2.71,7-.39,2.54-.26,5.19.37,7.96.63,2.76,1.78,5.53,3.45,8.32,1.29,2.12,2.79,4.15,4.48,6.07,1.7,1.94,3.48,3.77,5.36,5.5.17-.13.44-.33.81-.58.37-.24.79-.52,1.28-.83.49-.32,1-.64,1.54-.97.54-.34,1.06-.65,1.57-.96.78-.47,1.59-.95,2.44-1.43.85-.48,1.66-.93,2.45-1.36.78-.43,1.48-.79,2.08-1.08.61-.3,1.06-.49,1.36-.6-.15-.18-.34-.42-.57-.72-.23-.29-.51-.68-.83-1.16-.33-.49-.73-1.11-1.18-1.88-.39-.65-.71-1.21-.96-1.68-.25-.46-.45-.87-.59-1.2-.14-.33-.26-.6-.35-.82-.28.2-.73.51-1.33.95-.61.43-1.45,1.02-2.54,1.73-1.09.72-2.48,1.59-4.21,2.63-.7.43-1.34.8-1.93,1.14-.59.33-1.09.58-1.53.74-.26-.12-.56-.35-.91-.7-.35-.35-.71-.75-1.1-1.22-.38-.47-.75-.96-1.1-1.45-.35-.5-.66-.95-.91-1.36-1.11-1.86-1.75-3.72-1.96-5.57-.19-1.85,0-3.64.62-5.36.61-1.73,1.57-3.35,2.89-4.85,1.32-1.5,2.93-2.83,4.85-3.99,2.03-1.21,3.98-2.06,5.86-2.58,1.88-.52,3.66-.75,5.35-.68,1.68.07,3.22.38,4.64.92,1.42.55,2.68,1.3,3.78,2.22,1.1.94,2.01,1.99,2.73,3.2.87,1.46,1.46,2.9,1.77,4.32.31,1.42.38,2.81.21,4.15-.17,1.35-.54,2.65-1.1,3.91l.4.67h0Z"/>
      <path class="cls-3" d="m499.52,192.76c-1.46.55-2.84,1.06-4.11,1.53-1.28.46-2.5.89-3.67,1.3-1.17.4-2.32.78-3.46,1.15-1.13.37-2.3.72-3.47,1.08.1.21.23.47.36.75.13.29.3.68.51,1.15.2.48.47,1.1.78,1.88.31.77.7,1.75,1.15,2.94.45,1.18,1.01,2.62,1.65,4.33.6,1.6,1.1,2.98,1.49,4.14.39,1.15.72,2.15.98,2.98.27.82.5,1.55.72,2.18.28-.16.58-.34.9-.5.32-.17.74-.36,1.28-.56.36-.14.68-.24.95-.32.27-.08.52-.15.76-.21.23-.05.48-.1.73-.16-1-1.93-1.93-3.89-2.79-5.87-.87-1.96-1.67-3.94-2.41-5.91,1.03-.45,2.1-.9,3.19-1.34,1.1-.44,2.21-.87,3.32-1.29,1.13-.42,2.26-.84,3.39-1.24,1.14-.41,2.25-.82,3.36-1.23.75,2,1.46,4,2.13,6.01.67,2.01,1.29,4.04,1.88,6.1.35-.19.64-.35.87-.49.24-.13.45-.25.63-.34.18-.1.37-.18.56-.25.22-.08.44-.16.65-.23.22-.06.46-.12.75-.18.28-.07.64-.14,1.06-.22-.57-1.3-1.11-2.55-1.62-3.79-.52-1.22-1.04-2.49-1.58-3.78-.53-1.3-1.09-2.7-1.7-4.2,1.92-.73,3.83-1.43,5.74-2.12,1.91-.69,3.85-1.33,5.81-1.93.12.32.3.82.51,1.47.22.66.47,1.42.74,2.3.28.87.57,1.79.87,2.77.3.97.61,1.93.9,2.89.3.96.57,1.86.82,2.68.25-.13.47-.26.68-.37.22-.11.44-.23.69-.34.25-.12.56-.25.92-.38.46-.17.89-.3,1.25-.39.35-.09.71-.17,1.03-.23-.24-.47-.57-1.22-1.02-2.28-.44-1.06-.95-2.32-1.53-3.8-.58-1.47-1.19-3.07-1.85-4.8-.57-1.55-1.13-3.13-1.64-4.72-.52-1.59-1.06-3.17-1.61-4.73-1.12.51-2.22,1-3.32,1.48-1.09.47-2.22.94-3.36,1.41-1.15.46-2.35.94-3.62,1.44-1.27.49-2.64,1.01-4.1,1.56l-7.15,2.69h0Z"/>
      <path class="cls-3" d="m499.38,249.74c.22.82.43,1.64.65,2.48.21.84.4,1.67.56,2.49.15.83.27,1.66.37,2.5.09.84.19,1.68.28,2.52,1.83-1.73,3.66-3.48,5.5-5.23,1.83-1.74,3.68-3.46,5.52-5.15,1.84-1.69,3.69-3.32,5.55-4.89,1.2,2.62,2.79,4.5,4.77,5.66,1.98,1.15,4.3,1.48,6.98,1,1.63-.31,2.99-.9,4.09-1.76,1.1-.86,1.93-1.92,2.53-3.19.26-.53.45-1.1.59-1.68.14-.59.21-1.26.23-1.99.01-.75-.04-1.62-.16-2.64-.11-1.01-.31-2.2-.57-3.59-.23-1.24-.47-2.35-.7-3.32-.23-.97-.43-1.83-.62-2.61-.19-.77-.35-1.49-.48-2.14-.17-.91-.29-1.75-.37-2.51-.08-.76-.15-1.45-.21-2.07-1.19.31-2.36.6-3.53.88-1.16.27-2.35.54-3.55.81-1.21.25-2.48.52-3.81.79-1.33.26-2.77.54-4.31.83l-7.51,1.4c-1.54.29-2.97.55-4.32.79-1.34.23-2.62.44-3.84.64-1.22.19-2.43.37-3.6.53-1.18.16-2.39.31-3.61.46.18.59.36,1.27.56,2,.2.74.38,1.57.56,2.48.16.91.29,1.75.37,2.51.08.76.15,1.45.2,2.07,1.19-.31,2.37-.61,3.53-.88,1.16-.27,2.34-.54,3.55-.81,1.21-.25,2.48-.52,3.81-.79,1.34-.26,2.77-.54,4.31-.83l2.26-.42.09.5-15.7,13.16h0Zm27.4-6.84c-2.6.48-4.68.2-6.25-.83-1.57-1.03-2.58-2.76-3.05-5.2-.04-.19-.06-.39-.07-.6-.02-.2-.03-.41-.04-.64,2.51-.47,5.02-.93,7.51-1.37,2.5-.44,5.01-.86,7.53-1.28.3,1.5.47,2.81.51,3.91.05,1.11-.11,2.06-.46,2.84-.36.78-.99,1.43-1.89,1.94-.91.51-2.17.91-3.79,1.21h0Z"/>
      <path class="cls-3" d="m533.1,289.81c.82.23,1.54.43,2.16.62.62.18,1.2.35,1.75.53.55.17,1.1.36,1.67.58.84-1.08,1.5-2.38,1.96-3.91.47-1.54.69-3.31.67-5.33-.02-1.68-.3-3.28-.84-4.78-.54-1.51-1.33-2.84-2.36-4-1.03-1.16-2.31-2.07-3.8-2.72-1.5-.67-3.22-.98-5.16-.98-1.58.03-2.95.29-4.12.77-1.16.48-2.16,1.12-3,1.93-.84.81-1.57,1.71-2.18,2.71-.62,1-1.18,2.03-1.68,3.09-.5,1.06-.99,2.09-1.48,3.09-.49,1-1.02,1.9-1.59,2.71-.58.8-1.25,1.44-2.01,1.91-.76.48-1.67.73-2.71.75-1.06.01-2.02-.22-2.89-.69-.87-.48-1.56-1.2-2.09-2.16-.53-.97-.8-2.18-.83-3.64,0-1.52.27-2.82.8-3.9.54-1.08,1.26-1.95,2.16-2.61.91-.66,1.91-1.09,3.01-1.31v-1.07c-.85-.12-1.65-.25-2.41-.4-.77-.15-1.54-.32-2.31-.51-.77-.2-1.59-.4-2.44-.63-.41.56-.8,1.28-1.15,2.19-.34.9-.63,1.94-.84,3.1-.22,1.17-.32,2.43-.31,3.78.04,2.24.37,4.26,1,6.08.63,1.82,1.51,3.37,2.66,4.67,1.14,1.3,2.48,2.28,4.04,2.97,1.56.68,3.28,1.02,5.17,1,1.58-.03,2.96-.29,4.13-.78,1.16-.49,2.17-1.15,3.02-1.97.84-.82,1.58-1.74,2.2-2.76.62-1.02,1.19-2.07,1.7-3.16.5-1.08,1-2.14,1.49-3.15.49-1.02,1.01-1.93,1.58-2.75.57-.82,1.23-1.47,1.98-1.96.75-.49,1.64-.74,2.67-.76.91,0,1.75.24,2.52.72.76.49,1.39,1.16,1.86,2.04.48.86.73,1.87.75,3.02.02,1.71-.36,3.13-1.16,4.25-.79,1.13-1.99,2-3.58,2.6v.84h.01Z"/>
    </g>
  </g>
</svg>