<?xml version="1.0" encoding="UTF-8" standalone="no"?>
<!-- Created with Inkscape (http://www.inkscape.org/) -->

<svg
   xmlns:dc="http://purl.org/dc/elements/1.1/"
   xmlns:cc="http://creativecommons.org/ns#"
   xmlns:rdf="http://www.w3.org/1999/02/22-rdf-syntax-ns#"
   xmlns:svg="http://www.w3.org/2000/svg"
   xmlns="http://www.w3.org/2000/svg"
   xmlns:xlink="http://www.w3.org/1999/xlink"
   xmlns:sodipodi="http://sodipodi.sourceforge.net/DTD/sodipodi-0.dtd"
   xmlns:inkscape="http://www.inkscape.org/namespaces/inkscape"
   version="1.1"
   width="652.09088"
   height="652.09088"
   id="svg2"
   inkscape:version="0.91 r13725"
   sodipodi:docname="Racing_club_roma_stemma.svg">
  <sodipodi:namedview
     pagecolor="#ffffff"
     bordercolor="#666666"
     borderopacity="1"
     objecttolerance="10"
     gridtolerance="10"
     guidetolerance="10"
     inkscape:pageopacity="0"
     inkscape:pageshadow="2"
     inkscape:window-width="1202"
     inkscape:window-height="934"
     id="namedview4160"
     showgrid="false"
     fit-margin-top="0"
     fit-margin-left="0"
     fit-margin-right="0"
     fit-margin-bottom="0"
     inkscape:zoom="0.66797098"
     inkscape:cx="226.12253"
     inkscape:cy="456.17716"
     inkscape:window-x="56"
     inkscape:window-y="4"
     inkscape:window-maximized="1"
     inkscape:current-layer="layer3" />
  <defs
     id="defs4">
    <linearGradient
       inkscape:collect="always"
       id="linearGradient4401">
      <stop
         style="stop-color:#fafd07;stop-opacity:1;"
         offset="0"
         id="stop4403" />
      <stop
         style="stop-color:#ffffff;stop-opacity:1"
         offset="1"
         id="stop4405" />
    </linearGradient>
    <linearGradient
       inkscape:collect="always"
       xlink:href="#linearGradient4401"
       id="linearGradient4407"
       x1="391.67377"
       y1="-35.192505"
       x2="388.83844"
       y2="470.8175"
       gradientUnits="userSpaceOnUse" />
    <filter
       inkscape:collect="always"
       style="color-interpolation-filters:sRGB"
       id="filter4538"
       x="-0.018675599"
       width="1.0373513"
       y="-0.030096041"
       height="1.0601921">
      <feGaussianBlur
         inkscape:collect="always"
         stdDeviation="0.80255846"
         id="feGaussianBlur4540" />
    </filter>
    <filter
       inkscape:collect="always"
       style="color-interpolation-filters:sRGB"
       id="filter4542"
       x="-0.016474174"
       width="1.0329483"
       y="-0.019837318"
       height="1.0396746">
      <feGaussianBlur
         inkscape:collect="always"
         stdDeviation="0.80255846"
         id="feGaussianBlur4544" />
    </filter>
  </defs>
  <metadata
     id="metadata7">
    <rdf:RDF>
      <cc:Work
         rdf:about="">
        <dc:format>image/svg+xml</dc:format>
        <dc:type
           rdf:resource="http://purl.org/dc/dcmitype/StillImage" />
        <dc:title />
      </cc:Work>
    </rdf:RDF>
  </metadata>
  <g
     inkscape:groupmode="layer"
     id="layer3"
     inkscape:label="Layer 2"
     style="display:inline"
     transform="translate(-58.222382,103.74173)">
    <circle
       style="opacity:1;fill:#00e401;fill-opacity:1;fill-rule:nonzero;stroke:none;stroke-width:4;stroke-linecap:round;stroke-linejoin:round;stroke-miterlimit:4;stroke-dasharray:none;stroke-dashoffset:0;stroke-opacity:1"
       id="path4328"
       cx="384.26782"
       cy="222.30371"
       r="326.04544" />
    <circle
       style="opacity:1;fill:url(#linearGradient4407);fill-opacity:1;fill-rule:nonzero;stroke:none;stroke-width:3.84121251;stroke-linecap:round;stroke-linejoin:round;stroke-miterlimit:4;stroke-dasharray:none;stroke-dashoffset:0;stroke-opacity:1"
       id="path4330"
       cx="384.26782"
       cy="222.30371"
       r="251.58733" />
    <path
       style="opacity:1;fill:#000000;fill-opacity:1;fill-rule:nonzero;stroke:#000000;stroke-width:1;stroke-linecap:round;stroke-linejoin:round;stroke-miterlimit:4;stroke-dasharray:none;stroke-dashoffset:0;stroke-opacity:1"
       d="m 388.21201,176.6833 c 10.00114,-15.28942 22.48925,-28.29624 35.54613,-41.15288 28.69805,-28.07943 63.86515,-59.724553 99.72484,-71.005961 14.77221,-4.44057 37.23024,-7.990253 46.08592,8.682294 10.00272,18.83207 7.15125,42.241157 -3.84957,60.306227 -10.28462,16.88895 -19.35036,34.05814 -34.05932,47.40204 -12.66406,11.48878 -21.89525,24.91073 -36.02918,36.41969 -12.26771,9.98934 -26.66469,25.49074 -42.79162,21.28007 -19.55411,-5.10548 -8.32354,-29.84366 -1.61488,-36.94714 13.67908,-14.4841 23.95577,-28.57097 41.1249,-38.61959 6.70321,-3.9232 -11.77765,21.58611 5.10779,8.56281 11.52714,-8.89058 20.60028,-20.08713 29.10461,-32.0749 7.53524,-10.62175 17.0669,-22.05345 21.67384,-34.49806 4.31916,-11.667241 2.56001,-29.456603 -17.84981,-20.674006 -31.14838,18.034126 -63.55422,43.271016 -84.94297,67.581556 -7.55532,8.64445 -13.39996,16.92064 -19.29611,26.73021 z"
       id="path4391"
       inkscape:connector-curvature="0"
       sodipodi:nodetypes="cccsssssssssscccc" />
    <path
       style="opacity:1;fill:#00e401;fill-opacity:1;fill-rule:nonzero;stroke:none;stroke-width:1;stroke-linecap:round;stroke-linejoin:round;stroke-miterlimit:4;stroke-dasharray:none;stroke-dashoffset:0;stroke-opacity:1"
       d="m 373.91016,30.923828 c -25.17101,-0.285587 -50.39055,3.474677 -74.77149,9.708984 -23.83299,7.100204 -52.10868,12.380898 -65.58203,35.826172 -6.90728,15.824631 -26.95502,49.332026 -7.51172,53.267576 21.37267,-2.41603 42.86414,-4.09742 64.38672,-3.91797 1.47928,-7.95724 -6.14781,-5.46169 -14.32226,-5.74609 -25.63985,0.55444 -17.04972,-9.97016 17.97265,-16.31836 14.98513,-2.91161 24.35352,-5.534446 48.22266,-8.726562 -8.50609,13.537422 -19.28344,32.968062 -27.8418,46.472652 -9.79414,14.16022 -23.7898,37.78078 -32.0625,52.91211 -6.88083,2.38183 -33.8567,-3.69535 -45.51367,23.60938 -7.60646,12.65089 -8.54392,18.39337 -7.2207,22.06836 1.47693,4.10191 13.92934,9.28788 16.32226,10.91797 -9.99074,12.74815 -19.40625,31.92874 -26.66797,46.31445 -4.34111,13.49982 -25.40007,41.00983 -13.63867,49.72266 18.31046,4.75432 26.84205,-22.29864 30.95508,-35.89649 10.28277,-17.08599 17.80357,-33.69449 27.35351,-48.95703 24.26183,14.20201 52.06842,28.60977 76.31641,42.83594 22.80769,15.29325 50.53078,26.36078 65.50391,50.66015 3.61628,19.00394 22.39265,9.28499 24.91797,-5.12304 5.75047,-19.33524 8.92216,-43.97549 -6.7168,-59.77149 -21.20512,-13.97235 -44.19688,-25.5386 -66.83984,-37.17382 -23.37039,-12.94529 -49.29398,-23.60576 -74.33985,-35.62891 36.02804,-3.41606 74.11197,-7.58802 109.24805,-16.3457 29.86671,-7.97875 62.51937,-18.09363 80.45508,-45.36329 16.57241,-25.48313 21.7524,-60.746381 6.94922,-88.214839 -14.338,-24.78739 -45.34471,-30.336544 -71.36329,-34.087891 -11.33808,-1.949166 -22.76957,-2.91511 -34.21093,-3.044922 z m 28.52343,57.984375 c 18.20322,0.02406 36.12443,2.569906 52.53516,11.441407 13.37008,11.24922 4.8154,31.69968 -7.92578,39.59961 -12.77594,7.01224 -25.14996,13.81129 -38.44531,19.92773 -31.15952,12.72093 -66.71097,22.07691 -99.75391,28.84961 7.88572,-15.50901 16.56167,-27.23331 31.23047,-52.39844 10.78012,-17.45087 16.39335,-28.24235 14.35742,-44.20312 15.65846,-1.294824 31.94029,-3.238023 48.00195,-3.216797 z"
       id="path4375"
       inkscape:connector-curvature="0"
       sodipodi:nodetypes="sccccccccccscccccccccccccccssccccccs" />
    <path
       style="opacity:1;fill:#000000;fill-opacity:1;fill-rule:nonzero;stroke:#000000;stroke-width:1;stroke-linecap:round;stroke-linejoin:round;stroke-miterlimit:4;stroke-dasharray:none;stroke-dashoffset:0;stroke-opacity:1"
       d="m 415.03139,195.08379 c 0,0 -12.0072,20.59088 -23.23277,41.83073 -11.383,21.15616 -15.04382,51.25439 1.7383,70.91873 13.42313,12.95341 33.20889,13.63194 49.2767,8.15112 23.60427,-7.40813 42.26887,-17.65001 60.88,-31.04226 14.67335,-9.67752 26.44342,-21.04445 40.74572,-33.10037 4.07032,-3.13201 12.72044,-11.24664 12.72044,-11.24664 0,0 1.40731,5.87383 0.44983,11.2413 -12.42399,14.26283 -20.37637,21.77077 -32.0716,32.47479 -23.40317,20.22942 -41.33901,38.85591 -73.98655,54.51512 -18.81283,6.58828 -38.32548,14.4529 -58.62952,12.5686 -14.83062,-3.37682 -28.45246,-11.74667 -39.63273,-21.92722 -10.85206,-10.73585 -14.70549,-25.88861 -15.03676,-40.86396 1.02351,-24.90662 6.5307,-43.55314 19.4576,-69.42489 4.60256,-8.08933 7.01451,-11.59797 7.01451,-11.59797 17.04027,-2.85318 33.79549,-6.99925 50.30683,-12.49708 z"
       id="path4398"
       inkscape:connector-curvature="0"
       sodipodi:nodetypes="cccccccccccccccc" />
    <g
       id="g4359"
       transform="matrix(-0.6071812,0,0,-0.6071812,923.43023,606.50246)"
       style="stroke-width:1.64695477;stroke-miterlimit:4;stroke-dasharray:none">
      <path
         d="m 994.68709,362.30995 a 106.71048,104.20385 0 1 1 -213.42095,0 106.71048,104.20385 0 1 1 213.42095,0 z"
         id="path3779"
         style="fill:#ffffff;fill-opacity:1;fill-rule:nonzero;stroke:#000000;stroke-width:1.64695477;stroke-miterlimit:4;stroke-dasharray:none;stroke-opacity:1"
         inkscape:connector-curvature="0" />
      <path
         d="m 944.67074,286.81152 -7.0898,-9.87507 -8.86224,-8.35583 -7.59621,-5.31735 -7.54251,-2.29245 -9.6684,-1.6114 -10.20553,-1.07427 -10.74267,0 -8.23604,0.71618 -9.6684,5.01324 -10.56362,6.08751 9.48935,9.31031 7.87796,11.81693 12.17502,1.6114 11.45884,1.96949 10.56362,2.68567 10.02649,3.58088 3.58089,1.6114 5.01324,-4.65515 6.62464,-4.47611 6.62465,-3.75993 z"
         id="path3785"
         style="fill:none;stroke:#000000;stroke-width:1.64695477;stroke-linecap:butt;stroke-linejoin:miter;stroke-miterlimit:4;stroke-dasharray:none;stroke-opacity:1"
         inkscape:connector-curvature="0" />
      <path
         d="m 932.02155,343.68934 -6.26655,-20.23202 -6.26656,-20.76916 8.057,-6.62464 7.69891,-4.65515 9.31031,-4.47611 8.77318,5.90846 7.87795,7.51987 7.16178,7.16177 4.8342,6.26656 3.40184,7.16177 -1.79044,10.74267 -2.68567,9.31031 -3.58089,10.02649 -10.38457,-2.86471 -10.02649,-2.14854 -8.77318,-1.43235 z"
         id="path3787"
         style="fill:#000000;fill-opacity:1;stroke:#000000;stroke-width:1.64695477;stroke-linecap:butt;stroke-linejoin:miter;stroke-miterlimit:4;stroke-dasharray:none;stroke-opacity:1"
         inkscape:connector-curvature="0" />
      <path
         d="m 838.91846,322.92018 7.87795,-8.59413 0,0 8.23604,-8.77318 0,0 8.057,-7.51986 0,0 8.59413,-7.16178 12.8912,2.14854 9.31031,1.43235 8.23604,1.96949 6.4456,1.79044 6.80369,2.32758 3.93898,1.96949 4.8342,16.65113 3.2228,10.56362 3.40184,11.81693 0.71618,2.68567 -5.90847,8.95222 -6.80369,6.98273 -7.6989,8.23604 -9.31031,9.31031 -10.56363,-0.89522 -13.24928,-2.50662 -13.24929,-1.96949 -11.45884,-1.6114 -5.55038,-10.92171 -4.65515,-11.99597 -2.68567,-11.81693 z"
         id="path3789"
         style="fill:none;stroke:#000000;stroke-width:1.64695477;stroke-linecap:butt;stroke-linejoin:miter;stroke-miterlimit:4;stroke-dasharray:none;stroke-opacity:1"
         inkscape:connector-curvature="0" />
      <path
         d="m 976.9617,320.77165 6.08751,2.50662 4.8342,3.2228 -3.75993,-9.31031 -5.55038,-9.84744 -6.98273,-9.48936 -6.4456,-7.34082 -8.057,-7.51986 -8.59413,-6.4456 -9.13127,-5.37133 -7.87795,-3.75994 -8.057,-3.2228 -3.58089,-1.25331 8.057,4.8342 4.11802,3.93898 4.11802,4.29707 4.11802,4.47611 4.29707,6.26655 6.08751,3.93898 6.26656,5.01324 6.26655,6.08751 5.90847,6.4456 5.37133,6.98273 z"
         id="path3791"
         style="fill:none;stroke:#000000;stroke-width:1.64695477;stroke-linecap:butt;stroke-linejoin:miter;stroke-miterlimit:4;stroke-dasharray:none;stroke-opacity:1"
         inkscape:connector-curvature="0" />
      <path
         d="m 976.24552,394.89604 6.08751,2.14853 5.37134,1.43236 3.40184,-9.31031 2.14853,-8.95222 1.07427,-9.6684 0.17904,-10.20553 -0.71617,-9.6684 -1.6114,-10.20553 -1.79045,-8.057 -2.50662,-6.08751 -4.47611,-2.86471 -6.4456,-2.68567 -0.89522,5.72942 -1.43236,8.41509 -2.50662,7.69891 -3.04375,8.77317 1.79044,6.80369 2.50662,11.10076 2.32758,19.15775 z"
         id="path3793"
         style="fill:none;stroke:#000000;stroke-width:1.64695477;stroke-linecap:butt;stroke-linejoin:miter;stroke-miterlimit:4;stroke-dasharray:none;stroke-opacity:1"
         inkscape:connector-curvature="0" />
      <path
         d="m 946.52415,428.37734 -0.89522,9.48936 -1.6114,7.69891 -1.07427,3.93897 1.6114,0.89523 6.08751,-3.75994 8.41509,-6.62464 8.59413,-8.23604 6.62464,-8.057 5.90847,-8.59413 4.29707,-8.23605 3.58088,-8.23604 -5.01324,-1.43235 -4.65515,-1.79045 -2.50663,-0.89522 -3.04375,6.08751 -4.65516,6.80369 -4.29706,5.37133 -4.8342,5.72942 -5.19229,4.47611 -4.65515,3.75993 z"
         id="path3795"
         style="fill:#000000;fill-opacity:1;stroke:#000000;stroke-width:1.64695477;stroke-linecap:butt;stroke-linejoin:miter;stroke-miterlimit:4;stroke-dasharray:none;stroke-opacity:1"
         inkscape:connector-curvature="0" />
      <path
         d="m 906.59724,422.28983 8.23605,2.86471 8.77317,2.32758 8.77318,1.43236 7.69891,0.35809 6.26655,-0.89523 -0.53713,6.08751 -1.07426,8.41509 -2.14854,6.4456 1.6114,1.25331 -11.10075,6.26656 -13.78642,5.01324 -11.10076,2.68567 -16.65113,1.96948 -10.02648,-0.35808 -9.48936,-3.04376 -7.16178,-2.68567 0.53714,-21.66437 8.057,-1.43236 9.48935,-3.58088 9.48936,-3.75994 8.41508,-3.93897 z"
         id="path3797"
         style="fill:none;stroke:#000000;stroke-width:1.64695477;stroke-linecap:butt;stroke-linejoin:miter;stroke-miterlimit:4;stroke-dasharray:none;stroke-opacity:1"
         inkscape:connector-curvature="0" />
      <path
         d="m 901.76305,377.88682 1.96948,12.17502 1.79045,17.54635 1.25331,14.32355 -7.87796,5.37134 -7.87795,3.2228 -6.98273,2.50662 -7.34082,2.86471 -5.90847,1.79044 -5.55038,1.07427 -10.74266,-7.16178 -8.41509,-8.23604 -7.34082,-9.13127 -5.01324,-7.6989 4.29706,-10.02649 5.19229,-10.02649 5.37133,-8.77318 4.65516,-7.16177 10.74266,1.6114 11.81694,1.79044 10.56362,1.79045 10.92171,1.96948 z"
         id="path3799"
         style="fill:#000000;fill-opacity:1;stroke:#000000;stroke-width:1.64695477;stroke-linecap:butt;stroke-linejoin:miter;stroke-miterlimit:4;stroke-dasharray:none;stroke-opacity:1"
         inkscape:connector-curvature="0" />
      <path
         d="m 799.1706,399.1931 5.37133,3.40185 5.72942,2.32758 6.80369,1.43235 7.51986,0.35809 8.95222,0 5.19229,7.69891 6.08751,7.51986 5.90847,6.26656 6.4456,5.72942 5.55037,3.2228 2.68567,2.32758 -0.71618,21.12724 -11.99598,-2.32758 -11.10075,-2.14853 -8.95222,-4.47611 -9.13126,-6.4456 -7.16178,-5.90847 -6.4456,-6.08751 -6.08751,-6.80368 -5.01324,-7.16178 z"
         id="path3801"
         style="fill:none;stroke:#000000;stroke-width:1.64695477;stroke-linecap:butt;stroke-linejoin:miter;stroke-miterlimit:4;stroke-dasharray:none;stroke-opacity:1"
         inkscape:connector-curvature="0" />
      <path
         d="m 785.56322,356.75958 1.96949,12.17502 2.50662,11.10075 3.40184,8.95222 3.93898,7.34082 1.96949,2.86471 -0.53713,19.69489 -7.16178,-11.81693 -4.8342,-10.92171 -2.86471,-11.63789 -1.96949,-11.45884 -0.71618,-9.6684 0.35809,-6.62464 z"
         id="path3803"
         style="fill:#000000;fill-opacity:1;stroke:#000000;stroke-width:1.64695477;stroke-linecap:butt;stroke-linejoin:miter;stroke-miterlimit:4;stroke-dasharray:none;stroke-opacity:1"
         inkscape:connector-curvature="0" />
      <path
         d="m 807.94377,321.30878 -7.69891,7.34082 -5.19229,8.59414 -4.47611,7.87795 -3.04375,6.80369 -1.96949,4.65515 -3.93898,0.17905 1.43236,-11.81693 2.32758,-10.92171 2.86471,-9.84745 3.40184,-7.16177 4.11802,-7.87796 5.55038,-7.51986 6.80369,-8.23605 7.34082,-7.51986 1.79044,1.07427 -4.29706,6.98273 -2.86472,7.34082 -2.14853,9.31031 z"
         id="path3805"
         style="fill:#ffffff;stroke:#000000;stroke-width:1.64695477;stroke-linecap:butt;stroke-linejoin:miter;stroke-miterlimit:4;stroke-dasharray:none;stroke-opacity:1"
         inkscape:connector-curvature="0" />
      <path
         d="m 854.31628,269.74399 -11.81694,4.11802 -7.6989,3.40185 -8.41509,4.29706 -7.87796,4.65516 -1.25331,1.07426 -4.11802,6.26656 -3.04376,7.69891 -1.6114,8.057 -0.53713,7.34082 0.17905,5.01324 30.61659,1.07427 11.81693,-12.8912 10.20553,-10.20553 10.56362,-8.59413 -3.58088,-5.90847 -6.26656,-8.41509 z"
         id="path3807"
         style="fill:#000000;fill-opacity:1;stroke:#000000;stroke-width:1.64695477;stroke-linecap:butt;stroke-linejoin:miter;stroke-miterlimit:4;stroke-dasharray:none;stroke-opacity:1"
         inkscape:connector-curvature="0" />
      <path
         d="m 839.45559,455.05496 25.06622,6.08751 18.79966,5.19229 -16.83017,-1.79044 -10.74267,-2.86471 -10.20553,-3.75994 z"
         id="path3809"
         style="fill:#000000;fill-opacity:1;stroke:#000000;stroke-width:1.64695477;stroke-linecap:butt;stroke-linejoin:miter;stroke-miterlimit:4;stroke-dasharray:none;stroke-opacity:1"
         inkscape:connector-curvature="0" />
    </g>
    <path
       style="opacity:1;fill:none;fill-opacity:1;fill-rule:nonzero;stroke:none;stroke-width:3.83571029;stroke-linecap:round;stroke-linejoin:round;stroke-miterlimit:4;stroke-dasharray:none;stroke-dashoffset:0;stroke-opacity:1"
       d="m 71.613892,222.30371 c 0,172.674 139.979928,312.65393 312.653928,312.65393 172.674,0 312.65393,-139.97993 312.65393,-312.65393"
       id="circle4332"
       inkscape:connector-curvature="0"
       sodipodi:nodetypes="csc" />
    <g
       transform="translate(0.06358191,0)"
       style="font-style:normal;font-variant:normal;font-weight:bold;font-stretch:normal;font-size:62.5px;line-height:125%;font-family:Arial;-inkscape-font-specification:'Arial Bold';text-align:center;letter-spacing:0.77999997px;writing-mode:lr-tb;text-anchor:middle;opacity:1;fill:#ffffff;fill-opacity:1;fill-rule:nonzero;stroke:none;stroke-width:4;stroke-linecap:round;stroke-linejoin:round;stroke-miterlimit:4;stroke-dasharray:none;stroke-dashoffset:0;stroke-opacity:1"
       id="text4335">
      <path
         d="m 104.32969,326.68602 4.36267,7.67756 q -3.71738,2.52818 -4.62971,5.57555 -0.89989,3.07524 0.77935,6.83736 1.77875,3.98506 4.34639,5.24519 2.60795,1.27556 4.86522,0.26802 1.44911,-0.64682 2.06674,-1.95851 0.65794,-1.29626 0.46501,-3.75004 -0.1452,-1.67301 -1.16447,-7.40068 -1.31625,-7.36636 -0.11377,-11.11138 1.69273,-5.26721 6.54168,-7.43156 3.12117,-1.39315 6.60796,-0.84406 3.5271,0.56452 6.42856,3.24638 2.9139,2.70972 5.01606,7.41933 3.4331,7.69144 1.79013,13.07012 -1.63054,5.40655 -7.17271,8.11426 l -4.04416,-8.08708 q 2.91269,-1.93507 3.49455,-4.30023 0.62218,-2.34972 -0.93267,-5.83316 -1.60461,-3.59491 -3.98962,-4.96999 -1.53212,-0.88685 -3.12057,-0.17784 -1.44911,0.64682 -1.9329,2.33322 -0.6132,2.14521 0.65233,8.79897 1.26554,6.65377 1.01402,10.20826 -0.21121,3.56991 -2.13717,6.36792 -1.88566,2.81343 -5.75925,4.54242 -3.51131,1.56729 -7.44745,0.98483 -3.93614,-0.58246 -7.03315,-3.47781 -3.06915,-2.90779 -5.444959,-8.23048 -3.457985,-7.74718 -1.744323,-13.4916 1.74153,-5.75687 8.236212,-9.62497 z"
         style="font-size:62.5px;letter-spacing:0.77999997px;fill:#ffffff"
         id="path4176" />
      <path
         d="m 121.08713,363.65601 5.36597,7.01314 q -3.33915,3.01011 -3.82869,6.15322 -0.47344,3.16903 1.70169,6.66792 2.30402,3.70622 5.01915,4.60557 2.75716,0.90915 4.85648,-0.39593 1.34772,-0.83783 1.78128,-2.22131 0.47559,-1.37367 -0.0491,-3.77844 -0.3713,-1.63773 -2.15982,-7.17365 -2.30553,-7.11901 -1.62337,-10.99274 0.96091,-5.44844 5.47058,-8.25194 2.90277,-1.80455 6.43184,-1.73461 3.5711,0.0797 6.81024,2.34223 3.25524,2.28841 5.97818,6.66849 4.44693,7.15327 3.55047,12.70538 -0.88035,5.57803 -6.00293,9.01409 l -5.10609,-7.46217 q 2.62256,-2.3131 2.87746,-4.7354 0.29694,-2.4125 -1.71707,-5.6522 -2.07845,-3.34338 -4.62827,-4.38143 -1.63846,-0.67032 -3.11577,0.24807 -1.34772,0.83783 -1.59774,2.57435 -0.31585,2.20866 1.84255,8.62858 2.1584,6.41993 2.39248,9.97561 0.2761,3.56548 -1.25158,6.59935 -1.48565,3.04368 -5.0882,5.28325 -3.26562,2.03012 -7.24441,1.98821 -3.97878,-0.0419 -7.44068,-2.48931 -3.43598,-2.46352 -6.51338,-7.41379 -4.47915,-7.20511 -3.56239,-13.12918 0.94268,-5.94018 6.85117,-10.65536 z"
         style="font-size:62.5px;letter-spacing:0.77999997px;fill:#ffffff"
         id="path4178" />
      <path
         d="m 144.16713,423.37822 32.58576,-30.65495 13.0273,13.84784 q 4.914,5.2235 6.24141,8.41606 1.37056,3.19387 0.46384,6.72841 -0.90671,3.53454 -3.79631,6.25292 -3.66756,3.45025 -8.09648,3.55251 -4.40669,0.0814 -9.06481,-3.62309 0.76267,3.30485 0.56987,6.08398 -0.17188,2.80135 -1.75629,8.7332 l -2.61412,9.95918 -7.40235,-7.86859 2.61576,-11.4272 q 1.41712,-6.10967 1.51689,-7.9633 0.122,-1.87454 -0.50515,-3.25381 -0.60493,-1.40018 -2.73781,-3.6674 l -1.25464,-1.33366 -13.60333,12.79729 -6.18954,-6.57939 z m 24.99414,-11.11098 4.57943,4.86785 q 4.45395,4.7345 5.96231,5.53617 1.50836,0.80168 3.1137,0.54844 1.60534,-0.25323 3.07236,-1.63333 1.64485,-1.54739 1.80867,-3.37747 0.20696,-1.82877 -1.03187,-3.68009 -0.64165,-0.90475 -4.40555,-4.90573 l -4.83035,-5.13459 -8.2687,7.77875 z"
         style="font-size:62.5px;letter-spacing:0.77999997px;fill:#ffffff"
         id="path4180" />
      <path
         d="m 207.80602,481.38941 -7.70485,-6.09907 3.24463,-10.39253 -14.02185,-11.09955 -9.20272,5.67617 -7.51342,-5.94754 41.43075,-24.26314 7.48949,5.9286 -13.72203,46.19706 z m -2.05491,-24.20125 5.47055,-16.843 -15.04178,9.26652 9.57123,7.57648 z"
         style="font-size:62.5px;letter-spacing:0.77999997px;fill:#ffffff"
         id="path4182" />
      <path
         d="m 245.78399,484.4274 6.20258,6.77882 q -5.4017,5.34067 -11.25638,6.08819 -5.81301,0.73632 -12.05344,-2.85923 -7.72121,-4.44873 -9.66056,-12.57504 -1.92411,-8.15275 3.34733,-17.30186 5.57615,-9.67795 13.65132,-12.13985 8.09042,-2.48834 16.23471,2.20415 7.11303,4.09832 9.13295,10.86222 1.21212,4.00914 -0.14718,9.42478 l -8.81413,-2.61299 q 1.04933,-3.41056 -0.13986,-6.4203 -1.16275,-2.99451 -4.28297,-4.79228 -4.31013,-2.48337 -8.7898,-0.94361 -4.45323,1.555 -8.4449,8.48294 -4.23544,7.35101 -3.38896,11.99476 0.84647,4.64376 5.07727,7.08142 3.12022,1.79777 6.51048,1.10959 3.39027,-0.68818 6.82154,-4.38171 z"
         style="font-size:62.5px;letter-spacing:0.77999997px;fill:#ffffff"
         id="path4184" />
      <path
         d="m 252.90807,506.14083 18.24084,-40.85131 8.24828,3.68301 -18.24083,40.8513 -8.24829,-3.683 z"
         style="font-size:62.5px;letter-spacing:0.77999997px;fill:#ffffff"
         id="path4186" />
      <path
         d="m 269.73697,513.87216 13.93699,-42.51256 8.35171,2.73796 8.09225,34.09413 9.30717,-28.39004 7.97473,2.61437 -13.93699,42.51256 -8.61271,-2.82352 -8.04991,-33.34159 -9.08851,27.72306 -7.97473,-2.61437 z"
         style="font-size:62.5px;letter-spacing:0.77999997px;fill:#ffffff"
         id="path4188" />
      <path
         d="m 336.7627,514.7241 1.22668,-7.43736 19.21067,3.16853 -2.90034,17.58468 q -3.24727,2.2481 -8.91955,3.4467 -5.63721,1.17346 -11.08725,0.27455 -6.92548,-1.14225 -11.59765,-4.88213 -4.66721,-3.76999 -6.36776,-9.58692 -1.69559,-5.84704 -0.64769,-12.20041 1.13729,-6.89537 4.91193,-11.77831 3.77464,-4.88295 9.81694,-6.8247 4.60816,-1.49784 10.93142,-0.45491 8.22023,1.35581 12.25605,5.5784 4.0709,4.19744 4.39257,10.49834 l -9.12571,0.19599 q -0.39707,-3.40592 -2.67868,-5.69989 -2.24654,-2.31912 -6.10072,-2.95481 -5.84148,-0.96347 -9.91508,2.16902 -4.04349,3.13747 -5.24534,10.42427 -1.29621,7.85891 1.54605,12.37952 2.84722,4.49049 8.50804,5.42416 2.80031,0.46187 5.77939,-0.16025 3.01417,-0.64726 5.28984,-1.88028 l 0.92374,-5.6006 -10.20755,-1.68359 z"
         style="font-size:62.5px;letter-spacing:0.77999997px;fill:#ffffff"
         id="path4190" />
      <path
         d="m 408.40582,517.72637 8.87493,2.37908 q -1.68164,7.40764 -6.21546,11.18661 -4.50471,3.74711 -11.69952,4.07207 -8.90206,0.40207 -14.90753,-5.40588 -6.00685,-5.83843 -6.48328,-16.38676 -0.50396,-11.15806 4.97984,-17.57657 5.48243,-6.44901 14.87227,-6.87311 8.20087,-0.3704 13.54153,4.24563 3.17809,2.72803 4.94475,8.02481 l -8.83615,2.5375 q -0.94962,-3.43966 -3.57088,-5.33748 -2.59077,-1.8992 -6.18818,-1.73672 -4.9693,0.22444 -7.91782,3.93181 -2.91803,3.706 -2.55727,11.69346 0.38279,8.47524 3.59392,11.93496 3.21113,3.45971 8.08897,3.2394 3.59741,-0.16248 6.08549,-2.56601 2.48808,-2.40353 3.39439,-7.3628 z"
         style="font-size:62.5px;letter-spacing:0.77999997px;fill:#ffffff"
         id="path4192" />
      <path
         d="m 426.65524,532.44062 -7.96442,-43.65194 8.8865,-1.62137 6.61146,36.23651 22.09617,-4.03151 1.35296,7.41543 -30.98267,5.65288 z"
         style="font-size:62.5px;letter-spacing:0.77999997px;fill:#ffffff"
         id="path4194" />
      <path
         d="m 450.7153,482.56134 8.5826,-2.8174 7.55746,23.02225 q 1.79895,5.48011 2.65092,6.99915 1.40754,2.42873 3.98971,3.34767 2.60165,0.88044 6.19706,-0.29982 3.6534,-1.1993 5.02367,-3.28722 1.36075,-2.11692 1.02383,-4.41531 -0.33693,-2.29838 -1.9931,-7.34356 l -7.71927,-23.51517 8.5826,-2.81739 7.32902,22.32636 q 2.51281,7.65476 2.85441,11.04368 0.3416,3.38892 -0.82923,6.18225 -1.14183,2.78381 -3.845,5.11657 -2.71269,2.30376 -7.75786,3.95993 -6.08901,1.99882 -9.70637,1.64454 -3.59789,-0.39281 -6.15749,-2.02579 -2.56912,-1.66199 -3.95808,-3.93622 -2.04016,-3.37738 -4.38164,-10.51022 l -7.44324,-22.6743 z"
         style="font-size:62.5px;letter-spacing:0.77999997px;fill:#ffffff"
         id="path4196" />
      <path
         d="m 488.14334,470.0083 15.98424,-8.01976 q 4.74617,-2.3813 7.26999,-3.13542 2.5374,-0.79508 4.99449,-0.45728 2.48437,0.32411 4.76561,1.80858 2.26757,1.45719 3.5677,4.04849 1.40962,2.80952 1.05907,5.92172 -0.32326,3.09852 -2.32608,5.57155 4.18883,-0.77007 7.43921,0.80859 3.25038,1.57867 4.98845,5.04283 1.36856,2.72768 1.38668,5.96221 0.0317,3.19356 -1.39763,5.85687 -1.41576,2.62236 -4.45652,4.59185 -1.909,1.23095 -9.60098,5.15853 l -13.61115,6.82911 -20.06308,-39.98787 z m 11.41323,2.60461 4.63942,9.24686 5.29171,-2.65501 q 4.7189,-2.3676 5.7961,-3.07878 1.94987,-1.2856 2.53429,-3.04699 0.59802,-1.80234 -0.37366,-3.739 -0.93062,-1.85483 -2.54194,-2.4804 -1.59772,-0.66654 -3.73938,0.1007 -1.26861,0.46578 -6.96947,3.32607 l -4.63707,2.32655 z m 7.9787,15.90241 5.36476,10.69253 7.47386,-3.74985 q 4.36429,-2.1897 5.41403,-3.02367 1.63604,-1.23057 2.12486,-3.04641 0.5024,-1.85681 -0.56507,-3.98441 -0.90325,-1.80027 -2.40565,-2.61707 -1.5024,-0.81679 -3.45368,-0.55479 -1.92401,0.24833 -7.43394,3.01282 l -6.51917,3.27085 z"
         style="font-size:62.5px;letter-spacing:0.77999997px;fill:#ffffff"
         id="path4198" />
      <path
         d="m 564.10565,478.72144 -27.77464,-35.07316 14.9049,-11.80328 q 5.62223,-4.45227 8.91605,-5.50356 3.2988,-1.09416 6.7435,0.10967 3.44469,1.20383 5.90765,4.314 3.12607,3.94753 2.85156,8.36911 -0.29346,4.39766 -4.38039,8.7241 3.35771,-0.47904 6.1104,-0.0507 2.77661,0.40935 8.55234,2.49216 l 9.70098,3.45107 -8.46923,6.70683 -11.16356,-3.57747 q -5.96712,-1.93124 -7.80556,-2.18819 -1.85739,-0.28087 -3.28497,0.2268 -1.44653,0.48374 -3.88682,2.41622 l -1.43546,1.13675 11.59487,14.64173 -7.08162,5.60797 z m -8.94658,-25.84801 5.23944,-4.14915 q 5.0959,-4.03547 6.02287,-5.47024 0.92696,-1.43477 0.81108,-3.05581 -0.11589,-1.62105 -1.36632,-3.20006 -1.40199,-1.77041 -3.21153,-2.08917 -1.80456,-0.36164 -3.75447,0.71537 -0.95601,0.56243 -5.2624,3.97269 l -5.52653,4.37649 7.04786,8.89988 z"
         style="font-size:62.5px;letter-spacing:0.77999997px;fill:#ffffff"
         id="path4200" />
      <path
         d="m 582.32586,435.98814 q -5.00438,-4.65685 -7.00732,-9.31369 -1.46271,-3.44548 -1.66316,-7.21707 -0.17967,-3.79393 1.00099,-6.989 1.55238,-4.2665 5.2737,-8.26554 6.73579,-7.23848 15.25949,-7.39394 8.54449,-0.17781 16.54256,7.26483 7.93106,7.38026 8.40922,15.87076 0.45583,8.46971 -6.25917,15.68585 -6.79817,7.3055 -15.2564,7.48021 -8.48056,0.15391 -16.29991,-7.12241 z m 6.11738,-7.0219 q 5.56291,5.17659 10.83569,5.28922 5.25044,0.0918 8.93018,-3.86252 3.67974,-3.95435 3.19164,-9.11915 -0.48964,-5.20793 -6.1866,-10.50925 -5.62992,-5.23895 -10.70784,-5.33699 -5.05713,-0.12039 -8.8616,3.96801 -3.80448,4.0884 -3.31794,9.21007 0.4642,5.10087 6.11647,10.36061 z"
         style="font-size:62.5px;letter-spacing:0.77999997px;fill:#ffffff"
         id="path4202" />
      <path
         d="m 632.86475,413.16873 -37.26064,-24.76292 7.48293,-11.25953 29.90967,10.13069 -20.97407,-23.57603 7.49982,-11.28495 37.26064,24.76293 -4.64516,6.98954 -29.33068,-19.49277 24.41526,26.88899 -4.81408,7.24371 -34.22921,-12.12199 29.33068,19.49278 -4.64516,6.98955 z"
         style="font-size:62.5px;letter-spacing:0.77999997px;fill:#ffffff"
         id="path4204" />
      <path
         d="m 678.09615,331.70243 -4.07868,8.94022 -10.86698,-0.66414 -7.4227,16.27009 7.71296,7.57755 -3.97735,8.7181 -33.4703,-34.42304 3.96468,-8.69034 48.13837,2.27156 z m -23.00687,7.78504 -17.66266,-1.28224 12.59597,12.38811 5.06669,-11.10587 z"
         style="font-size:62.5px;letter-spacing:0.77999997px;fill:#ffffff"
         id="path4206" />
    </g>
    <path
       style="opacity:1;fill:#000000;fill-opacity:0.06829266;fill-rule:nonzero;stroke:none;stroke-width:1;stroke-linecap:round;stroke-linejoin:round;stroke-miterlimit:4;stroke-dasharray:none;stroke-dashoffset:0;stroke-opacity:1;filter:url(#filter4542)"
       d="m 439.05642,353.41766 c 5.8463,9.65715 9.21137,20.98411 9.21137,33.09702 0,35.34611 -28.65367,63.99979 -63.99978,63.99979 -21.99516,0 -41.39881,-11.09562 -52.919,-27.99494 59.56609,11.31096 98.01759,-10.98426 107.70741,-69.10187 z"
       id="path4409"
       inkscape:connector-curvature="0"
       sodipodi:nodetypes="csscc" />
    <path
       sodipodi:nodetypes="cscc"
       inkscape:connector-curvature="0"
       id="path4412"
       d="m 448.26779,386.51468 c 0,35.34611 -28.65367,63.99979 -63.99978,63.99979 -14.74052,0 -28.31712,-4.98337 -39.13695,-13.35727 50.42487,11.90719 87.42876,-7.08822 103.13673,-50.64252 z"
       style="opacity:1;fill:#000000;fill-opacity:0.1414634;fill-rule:nonzero;stroke:none;stroke-width:1;stroke-linecap:round;stroke-linejoin:round;stroke-miterlimit:4;stroke-dasharray:none;stroke-dashoffset:0;stroke-opacity:1;filter:url(#filter4538)" />
  </g>
</svg>
