<?xml version="1.0" encoding="UTF-8"?>
<svg id="Livello_2" data-name="Livello 2" xmlns="http://www.w3.org/2000/svg" viewBox="0 0 405.74 561.25">
  <defs>
    <style>
      .cls-1 {
        stroke-linecap: round;
      }

      .cls-1, .cls-2, .cls-3, .cls-4, .cls-5, .cls-6, .cls-7 {
        fill: none;
      }

      .cls-1, .cls-3, .cls-4, .cls-5 {
        stroke: #13110c;
      }

      .cls-1, .cls-4, .cls-5, .cls-7 {
        stroke-width: 1.58px;
      }

      .cls-1, .cls-5 {
        stroke-linejoin: round;
      }

      .cls-2 {
        stroke: #1d1d1b;
      }

      .cls-2, .cls-8 {
        stroke-miterlimit: 2.61;
        stroke-width: 4.83px;
      }

      .cls-9 {
        fill: #792016;
      }

      .cls-9, .cls-10, .cls-11, .cls-12, .cls-13, .cls-14, .cls-15, .cls-16, .cls-17, .cls-18 {
        stroke-width: 0px;
      }

      .cls-9, .cls-11, .cls-12, .cls-13, .cls-16, .cls-17, .cls-18, .cls-8 {
        fill-rule: evenodd;
      }

      .cls-10, .cls-12 {
        fill: #e42a16;
      }

      .cls-11 {
        fill: #c09a13;
      }

      .cls-13, .cls-14 {
        fill: #2b2523;
      }

      .cls-15, .cls-16 {
        fill: #fff;
      }

      .cls-3 {
        stroke-width: .64px;
      }

      .cls-3, .cls-4, .cls-6, .cls-7 {
        stroke-miterlimit: 2.61;
      }

      .cls-17 {
        fill: #13110c;
      }

      .cls-18 {
        fill: #1f8b37;
      }

      .cls-6 {
        stroke: #aa7519;
        stroke-width: 4.36px;
      }

      .cls-8 {
        fill: #6e302c;
        stroke: #12100b;
      }

      .cls-7 {
        stroke: #792016;
      }
    </style>
  </defs>
  <g id="Capa_1" data-name="Capa 1">
    <g>
      <path class="cls-12" d="m118.54,149.55l-34.21-30.57,7.26-19.18s24.88-27.98,55.99-16.58c22.28-17.1,54.93-2.58,54.93-2.58,55.98-19.19,58.04,4.66,58.04,4.66,37.31-4.15,62.71,31.62,62.71,31.62l-30.05,41.45-174.68-8.81"/>
      <path class="cls-4" d="m118.54,149.55l-34.21-30.57,7.26-19.18s24.88-27.98,55.99-16.58c22.28-17.1,54.93-2.58,54.93-2.58,55.98-19.19,58.04,4.66,58.04,4.66,37.31-4.15,62.71,31.62,62.71,31.62l-30.05,41.45-174.68-8.81Z"/>
      <path class="cls-11" d="m153.81,68.18c-62.2-10.37-64.82,45.62-57.04,54.94,6.74-9.84,19.7-2.59,19.7-2.59,0,0-2.09,7.27-14,11.92.52,2.6,8.82,16.6,23.34,1.04,19.16,1.03,20.24-11.93,20.24-11.93-2.03,2.56-16.12,5.41-19.73.52,6.19-11.01,16.94-9.49,16.94-9.49-9.79-10.24-.88-24.2-.88-24.2,0,0,0-7.23,11.44-20.21m101.55,2.59c11.94-9.83,67.4,3.11,58.08,55.46-9.86-8.8-21.25-3.11-21.25-3.11,0,0,3.09,10.37,16.05,12.97-12.96,15.04-22.8,2.58-23.84-2.59-21.76,8.81-22.3-10.39-22.3-10.39,0,0,13.58,5.39,23.57,0-9.5-13.31-19.22-10.51-19.22-10.51,6.21-15.04.85-21.6.85-21.6,0,0-15.03-18.14-11.94-20.22m6.23,23.32s-22.77-33.16-49.73-37.3c2.59,22.29-5.19,25.91-5.19,25.91,8.36,7.35,1.01,22.81,1.01,22.81,3.99-3.31,14.21-3.66,20.77,5.17,0,0-6.03,7.81-20.23,5.7,5.18,17.11,22.28,4.15,22.28,4.15,0,0,16.67,16.87,22.38-.22-12.96-1.57-15.14-7.03-15.14-7.03,0,0,6.75-7.82,19.01-2.59-1.04-13.46,4.84-16.59,4.84-16.59m-112.46-4.14s17.62-29.02,44.57-33.17c-2.59,22.29,5.16,25.91,5.16,25.91-6.09,7.14-1.02,21.76-1.02,21.76-12.85-2.61-20.74,6.23-20.74,6.23,0,0,7.27,5.7,20.21,5.7-5.16,17.11-20.74,3.64-20.74,3.64,0,0-16.56,17.1-22.28,0,12.97-1.56,16.58-8.3,16.58-8.3,0,0-11.4-6.21-17.1-1.56,1.03-13.48-4.66-20.21-4.66-20.21m11.51-27.15c7.51-6.09,17.54-11.69,30.48-14.31-4.66-17.11,8.26-21.77,8.26-21.77v-11.55h-7v-7.11h7V.79h7.29v7.26h7.14v7.11h-7.14v11.55s12.44,4.66,7.79,21.77c12.24,2.48,22.3,7.99,30.05,14.51,68.94-21.78,81.37,50.79,81.37,50.79,0,0,12.96,4.66,8.81,15.03-20.74-6.22-18.14,39.91-55.44,13.99-17.64,3.12-19.18-4.15-23.34-10.37-17.62,7.78-26.96-1.56-26.96-1.56,0,0-18.14,7.26-26.96-6.22-15.03,13.48-25.89,5.71-25.89,5.71,0,0-9.86,10.37-24.37,1.03-10.38,12.45-24.89,10.37-24.89,10.37-24.87,15.03-26.63-.59-36.8-9.85-6.5-5.92-16.58-8.29-16.58-8.29-.75-8.65,7.24-12.97,7.24-12.97,16.61-75.16,78.79-48.72,78.79-48.72l1.15.84Z"/>
      <path class="cls-5" d="m160.64,62.8c7.51-6.09,17.54-11.69,30.48-14.31-4.66-17.11,8.26-21.77,8.26-21.77v-11.55h-7v-7.11h7V.79h7.29v7.26h7.14v7.11h-7.14v11.55s12.44,4.66,7.79,21.77c12.24,2.48,22.3,7.99,30.05,14.51,68.94-21.78,81.37,50.79,81.37,50.79,0,0,12.96,4.66,8.81,15.03-20.74-6.22-18.14,39.91-55.44,13.99-17.64,3.12-19.18-4.15-23.34-10.37-17.62,7.78-26.96-1.56-26.96-1.56,0,0-18.14,7.26-26.96-6.22-15.03,13.48-25.89,5.71-25.89,5.71,0,0-9.86,10.37-24.37,1.03-10.38,12.45-24.89,10.37-24.89,10.37-24.87,15.03-26.63-.59-36.8-9.85-6.5-5.92-16.58-8.29-16.58-8.29-.75-8.65,7.24-12.97,7.24-12.97,16.61-75.16,78.79-48.72,78.79-48.72l1.15.84Z"/>
      <path class="cls-5" d="m149.13,89.95s17.61-29.02,44.57-33.17c-2.59,22.29,5.16,25.91,5.16,25.91-6.09,7.14-1.02,21.76-1.02,21.76-12.85-2.61-20.74,6.23-20.74,6.23,0,0,7.27,5.7,20.21,5.7-5.16,17.11-20.74,3.64-20.74,3.64,0,0-16.56,17.1-22.28,0,12.97-1.56,16.57-8.3,16.57-8.3,0,0-11.39-6.21-17.09-1.56,1.03-13.48-4.66-20.21-4.66-20.21Z"/>
      <path class="cls-5" d="m261.59,94.09s-22.77-33.16-49.73-37.3c2.59,22.29-5.19,25.91-5.19,25.91,8.35,7.35,1.01,22.81,1.01,22.81,3.99-3.31,14.21-3.66,20.77,5.17,0,0-6.04,7.81-20.23,5.7,5.17,17.1,22.28,4.15,22.28,4.15,0,0,16.66,16.87,22.38-.22-12.96-1.57-15.14-7.03-15.14-7.03,0,0,6.75-7.82,19-2.59-1.04-13.46,4.85-16.59,4.85-16.59Z"/>
      <path class="cls-5" d="m255.36,70.77c11.94-9.83,67.4,3.11,58.08,55.46-9.86-8.8-21.25-3.11-21.25-3.11,0,0,3.09,10.37,16.04,12.97-12.95,15.04-22.79,2.58-23.83-2.59-21.76,8.81-22.3-10.39-22.3-10.39,0,0,13.57,5.39,23.57,0-9.5-13.31-19.22-10.51-19.22-10.51,6.21-15.04.85-21.6.85-21.6,0,0-15.05-18.14-11.94-20.22Z"/>
      <path class="cls-5" d="m153.81,68.18c-62.2-10.37-64.82,45.62-57.05,54.94,6.75-9.84,19.7-2.59,19.7-2.59,0,0-2.08,7.27-13.99,11.92.52,2.6,8.82,16.6,23.34,1.04,19.16,1.03,20.24-11.93,20.24-11.93-2.03,2.56-16.12,5.41-19.74.52,6.19-11.01,16.94-9.49,16.94-9.49-9.77-10.24-.87-24.2-.87-24.2,0,0,0-7.23,11.44-20.21Z"/>
      <path class="cls-11" d="m107.65,156.81l7.27,13.47s61.15-21.76,88.08-17.09c49.78.52,87.63,17.63,87.63,17.63l9.85-12.45s-34.73-19.69-97.48-23.32c-69.44,3.1-95.36,21.77-95.36,21.77"/>
      <path class="cls-5" d="m107.65,156.81l7.27,13.47s61.15-21.76,88.08-17.09c49.78.52,87.63,17.63,87.63,17.63l9.85-12.45s-34.73-19.69-97.48-23.32c-69.44,3.1-95.36,21.77-95.36,21.77Z"/>
      <path class="cls-10" d="m203.02,105.51c2.57,0,4.66,2.08,4.66,4.65s-2.09,4.66-4.66,4.66-4.66-2.09-4.66-4.66,2.09-4.65,4.66-4.65"/>
      <path class="cls-4" d="m203.02,105.51c2.57,0,4.66,2.08,4.66,4.65s-2.09,4.66-4.66,4.66-4.66-2.09-4.66-4.66,2.09-4.65,4.66-4.65Z"/>
      <path class="cls-18" d="m148.16,111.98c2.19,0,3.96,1.78,3.96,3.95s-1.78,3.98-3.96,3.98-3.96-1.77-3.96-3.98,1.78-3.95,3.96-3.95"/>
      <path class="cls-4" d="m148.16,111.98c2.19,0,3.96,1.78,3.96,3.95s-1.78,3.98-3.96,3.98-3.96-1.77-3.96-3.98,1.78-3.95,3.96-3.95Z"/>
      <path class="cls-18" d="m259.61,112.5c2.19,0,3.96,1.77,3.96,3.96s-1.78,3.96-3.96,3.96-3.96-1.78-3.96-3.96,1.77-3.96,3.96-3.96"/>
      <path class="cls-4" d="m259.61,112.5c2.19,0,3.96,1.77,3.96,3.96s-1.78,3.96-3.96,3.96-3.96-1.78-3.96-3.96,1.77-3.96,3.96-3.96Z"/>
      <path class="cls-11" d="m114.6,175.74c27.19-12.13,57.46-19.96,89.47-19.96s61.34,7.59,88.2,19.4c4.04-.23,5.97-4.35,0-6.22-29.59-12.51-56.74-18.38-88.2-18.38s-62.28,6.81-89.47,18.94c-6.72,3.99,0,6.22,0,6.22"/>
      <path class="cls-4" d="m114.6,175.74c27.19-12.13,57.46-19.96,89.47-19.96s61.34,7.59,88.2,19.4c4.04-.23,5.97-4.35,0-6.22-29.59-12.51-56.74-18.38-88.2-18.38s-62.28,6.81-89.47,18.94c-6.72,3.99,0,6.22,0,6.22Z"/>
      <path class="cls-11" d="m106.62,158.37c27.19-12.14,65.46-20.22,97.44-20.22s69.48,10.14,97.45,23.84c4.05-.22,4.58-5.33,0-6.22-26.86-11.8-65.96-22.81-97.45-22.81s-70.26,7.02-97.44,19.18c-7.06,3.27,0,6.22,0,6.22"/>
      <path class="cls-4" d="m106.62,158.37c27.19-12.14,65.46-20.22,97.44-20.22s69.48,10.14,97.45,23.84c4.05-.22,4.58-5.33,0-6.22-26.86-11.8-65.96-22.81-97.45-22.81s-70.26,7.02-97.44,19.18c-7.06,3.27,0,6.22,0,6.22Z"/>
      <path class="cls-10" d="m95.21,126.74c2.01,0,3.63,1.62,3.63,3.63s-1.61,3.64-3.63,3.64-3.63-1.62-3.63-3.64,1.62-3.63,3.63-3.63"/>
      <path class="cls-4" d="m95.21,126.74c2.01,0,3.63,1.62,3.63,3.63s-1.61,3.64-3.63,3.64-3.63-1.62-3.63-3.64,1.62-3.63,3.63-3.63Z"/>
      <path class="cls-10" d="m314.47,128.3c2.28,0,4.14,1.87,4.14,4.15s-1.86,4.15-4.14,4.15-4.16-1.85-4.16-4.15,1.88-4.15,4.16-4.15"/>
      <path class="cls-4" d="m314.47,128.3c2.28,0,4.14,1.87,4.14,4.15s-1.86,4.15-4.14,4.15-4.16-1.85-4.16-4.15,1.88-4.15,4.16-4.15Z"/>
      <path class="cls-10" d="m197.34,141.84c-2.4,0-4.36,1.28-4.36,2.86s1.96,2.85,4.36,2.85h11.53c2.38,0,4.33-1.28,4.33-2.85s-1.95-2.86-4.33-2.86h-11.53"/>
      <path class="cls-4" d="m197.34,141.84c-2.4,0-4.36,1.28-4.36,2.86s1.96,2.85,4.36,2.85h11.53c2.38,0,4.33-1.28,4.33-2.85s-1.95-2.86-4.33-2.86h-11.53Z"/>
      <path class="cls-18" d="m152.93,147.02c-2.81.5-4.87,2.18-4.59,3.7.27,1.55,2.77,2.4,5.61,1.9l9.66-1.7c2.83-.48,4.88-2.14,4.61-3.7-.29-1.55-2.8-2.4-5.61-1.91l-9.68,1.7"/>
      <path class="cls-4" d="m152.93,147.02c-2.81.5-4.87,2.18-4.59,3.7.27,1.55,2.77,2.4,5.61,1.9l9.66-1.7c2.83-.48,4.88-2.14,4.61-3.7-.29-1.55-2.8-2.4-5.61-1.91l-9.68,1.7Z"/>
      <path class="cls-10" d="m109.57,161.23c-2.66,1.1-4.3,3.15-3.68,4.6.58,1.45,3.23,1.75,5.87.67l9.1-3.74c2.63-1.08,4.29-3.14,3.67-4.6-.6-1.45-3.24-1.74-5.86-.66l-9.1,3.73"/>
      <path class="cls-4" d="m109.57,161.23c-2.66,1.1-4.3,3.15-3.68,4.6.58,1.45,3.23,1.75,5.87.67l9.1-3.74c2.63-1.08,4.29-3.14,3.67-4.6-.6-1.45-3.24-1.74-5.86-.66l-9.1,3.73Z"/>
      <path class="cls-18" d="m251.68,147.23c2.81.6,4.83,2.32,4.5,3.86-.32,1.53-2.86,2.3-5.66,1.73l-9.65-2.05c-2.81-.6-4.81-2.32-4.5-3.85.34-1.53,2.87-2.3,5.67-1.72l9.63,2.03"/>
      <path class="cls-4" d="m251.68,147.23c2.81.6,4.83,2.32,4.5,3.86-.32,1.53-2.86,2.3-5.66,1.73l-9.65-2.05c-2.81-.6-4.81-2.32-4.5-3.85.34-1.53,2.87-2.3,5.67-1.72l9.63,2.03Z"/>
      <path class="cls-10" d="m297.27,162.63c2.64,1.1,4.28,3.17,3.68,4.63-.61,1.44-3.23,1.73-5.88.62l-9.11-3.79c-2.63-1.1-4.29-3.17-3.67-4.61.6-1.46,3.23-1.73,5.88-.64l9.1,3.79"/>
      <path class="cls-4" d="m297.27,162.63c2.64,1.1,4.28,3.17,3.68,4.63-.61,1.44-3.23,1.73-5.88.62l-9.11-3.79c-2.63-1.1-4.29-3.17-3.67-4.61.6-1.46,3.23-1.73,5.88-.64l9.1,3.79Z"/>
      <path class="cls-15" d="m203.02,39.69c1.99,0,3.64,1.62,3.64,3.63s-1.64,3.64-3.64,3.64-3.63-1.62-3.63-3.64,1.62-3.63,3.63-3.63"/>
      <path class="cls-3" d="m203.02,39.69c1.99,0,3.64,1.62,3.64,3.63s-1.64,3.64-3.64,3.64-3.63-1.62-3.63-3.64,1.62-3.63,3.63-3.63Z"/>
      <path class="cls-15" d="m203.02,52.12c1.99,0,3.64,1.62,3.64,3.63s-1.64,3.64-3.64,3.64-3.63-1.62-3.63-3.64,1.62-3.63,3.63-3.63"/>
      <path class="cls-3" d="m203.02,52.12c1.99,0,3.64,1.62,3.64,3.63s-1.64,3.64-3.64,3.64-3.63-1.62-3.63-3.64,1.62-3.63,3.63-3.63Z"/>
      <path class="cls-15" d="m203.02,63.01c1.99,0,3.64,1.62,3.64,3.63s-1.64,3.63-3.64,3.63-3.63-1.62-3.63-3.63,1.62-3.63,3.63-3.63"/>
      <path class="cls-3" d="m203.02,63.01c1.99,0,3.64,1.62,3.64,3.63s-1.64,3.63-3.64,3.63-3.63-1.62-3.63-3.63,1.62-3.63,3.63-3.63Z"/>
      <path class="cls-15" d="m76.03,103.17c2.3,0,4.16,1.87,4.16,4.15s-1.86,4.15-4.16,4.15-4.14-1.85-4.14-4.15,1.87-4.15,4.14-4.15"/>
      <path class="cls-3" d="m76.03,103.17c2.3,0,4.16,1.87,4.16,4.15s-1.86,4.15-4.16,4.15-4.14-1.85-4.14-4.15,1.87-4.15,4.14-4.15Z"/>
      <path class="cls-15" d="m78.89,92.79c2.29,0,4.15,1.88,4.15,4.15s-1.86,4.15-4.15,4.15-4.16-1.85-4.16-4.15,1.87-4.15,4.16-4.15"/>
      <path class="cls-3" d="m78.89,92.79c2.29,0,4.15,1.88,4.15,4.15s-1.86,4.15-4.15,4.15-4.16-1.85-4.16-4.15,1.87-4.15,4.16-4.15Z"/>
      <path class="cls-15" d="m82.26,83.22c2.28,0,4.14,1.84,4.14,4.14s-1.86,4.14-4.14,4.14-4.14-1.86-4.14-4.14,1.84-4.14,4.14-4.14"/>
      <path class="cls-3" d="m82.26,83.22c2.28,0,4.14,1.84,4.14,4.14s-1.86,4.14-4.14,4.14-4.14-1.86-4.14-4.14,1.84-4.14,4.14-4.14Z"/>
      <path class="cls-15" d="m88.21,73.36c2.29,0,4.15,1.86,4.15,4.15s-1.86,4.14-4.15,4.14-4.15-1.85-4.15-4.14,1.87-4.15,4.15-4.15"/>
      <path class="cls-3" d="m88.21,73.36c2.29,0,4.15,1.86,4.15,4.15s-1.86,4.14-4.15,4.14-4.15-1.85-4.15-4.14,1.87-4.15,4.15-4.15Z"/>
      <path class="cls-15" d="m95.21,64.8c2.28,0,4.16,1.87,4.16,4.15s-1.88,4.16-4.16,4.16-4.14-1.86-4.14-4.16,1.86-4.15,4.14-4.15"/>
      <path class="cls-3" d="m95.21,64.8c2.28,0,4.16,1.87,4.16,4.15s-1.88,4.16-4.16,4.16-4.14-1.86-4.14-4.16,1.86-4.15,4.14-4.15Z"/>
      <path class="cls-15" d="m103.5,57.81c2.29,0,4.15,1.86,4.15,4.15s-1.86,4.15-4.15,4.15-4.15-1.86-4.15-4.15,1.88-4.15,4.15-4.15"/>
      <path class="cls-3" d="m103.5,57.81c2.29,0,4.15,1.86,4.15,4.15s-1.86,4.15-4.15,4.15-4.15-1.86-4.15-4.15,1.88-4.15,4.15-4.15Z"/>
      <path class="cls-15" d="m113.36,52.38c2.27,0,4.15,1.87,4.15,4.15s-1.87,4.15-4.15,4.15-4.15-1.86-4.15-4.15,1.86-4.15,4.15-4.15"/>
      <path class="cls-3" d="m113.36,52.38c2.27,0,4.15,1.87,4.15,4.15s-1.87,4.15-4.15,4.15-4.15-1.86-4.15-4.15,1.86-4.15,4.15-4.15Z"/>
      <path class="cls-15" d="m124.24,49.25c2.28,0,4.16,1.86,4.16,4.15s-1.88,4.16-4.16,4.16-4.16-1.87-4.16-4.16,1.87-4.15,4.16-4.15"/>
      <path class="cls-3" d="m124.24,49.25c2.28,0,4.16,1.86,4.16,4.15s-1.88,4.16-4.16,4.16-4.16-1.87-4.16-4.16,1.87-4.15,4.16-4.15Z"/>
      <path class="cls-15" d="m136.42,47.96c2.28,0,4.16,1.87,4.16,4.15s-1.88,4.14-4.16,4.14-4.14-1.85-4.14-4.14,1.84-4.15,4.14-4.15"/>
      <path class="cls-3" d="m136.42,47.96c2.28,0,4.16,1.87,4.16,4.15s-1.88,4.14-4.16,4.14-4.14-1.85-4.14-4.14,1.84-4.15,4.14-4.15Z"/>
      <path class="cls-15" d="m147.06,48.22c2.26,0,4.14,1.86,4.14,4.15s-1.88,4.14-4.14,4.14-4.16-1.85-4.16-4.14,1.86-4.15,4.16-4.15"/>
      <path class="cls-3" d="m147.06,48.22c2.26,0,4.14,1.86,4.14,4.15s-1.88,4.14-4.14,4.14-4.16-1.85-4.16-4.14,1.86-4.15,4.16-4.15Z"/>
      <path class="cls-15" d="m140.31,72.84c2.28,0,4.16,1.86,4.16,4.16s-1.87,4.15-4.16,4.15-4.15-1.87-4.15-4.15,1.87-4.16,4.15-4.16"/>
      <path class="cls-3" d="m140.31,72.84c2.28,0,4.16,1.86,4.16,4.16s-1.87,4.15-4.16,4.15-4.15-1.87-4.15-4.15,1.87-4.16,4.15-4.16Z"/>
      <path class="cls-15" d="m147.31,63.77c2.28,0,4.16,1.87,4.16,4.16s-1.88,4.15-4.16,4.15-4.15-1.87-4.15-4.15,1.87-4.16,4.15-4.16"/>
      <path class="cls-3" d="m147.31,63.77c2.28,0,4.16,1.87,4.16,4.16s-1.88,4.15-4.16,4.15-4.15-1.87-4.15-4.15,1.87-4.16,4.15-4.16Z"/>
      <path class="cls-15" d="m156.13,54.96c2.28,0,4.14,1.86,4.14,4.15s-1.86,4.16-4.14,4.16-4.16-1.87-4.16-4.16,1.86-4.15,4.16-4.15"/>
      <path class="cls-3" d="m156.13,54.96c2.28,0,4.14,1.86,4.14,4.15s-1.86,4.16-4.14,4.16-4.16-1.87-4.16-4.16,1.86-4.15,4.16-4.15Z"/>
      <path class="cls-15" d="m164.68,48.49c2.3,0,4.14,1.84,4.14,4.15s-1.84,4.15-4.14,4.15-4.17-1.87-4.17-4.15,1.87-4.15,4.17-4.15"/>
      <path class="cls-3" d="m164.68,48.49c2.3,0,4.14,1.84,4.14,4.15s-1.84,4.15-4.14,4.15-4.17-1.87-4.17-4.15,1.87-4.15,4.17-4.15Z"/>
      <path class="cls-15" d="m174.52,44.07c2.29,0,4.14,1.87,4.14,4.15s-1.85,4.14-4.14,4.14-4.16-1.84-4.16-4.14,1.86-4.15,4.16-4.15"/>
      <path class="cls-3" d="m174.52,44.07c2.29,0,4.14,1.87,4.14,4.15s-1.85,4.14-4.14,4.14-4.16-1.84-4.16-4.14,1.86-4.15,4.16-4.15Z"/>
      <path class="cls-15" d="m184.36,40.19c2.3,0,4.15,1.86,4.15,4.15s-1.85,4.15-4.15,4.15-4.14-1.87-4.14-4.15,1.86-4.15,4.14-4.15"/>
      <path class="cls-3" d="m184.36,40.19c2.3,0,4.15,1.86,4.15,4.15s-1.85,4.15-4.15,4.15-4.14-1.87-4.14-4.15,1.86-4.15,4.14-4.15Z"/>
      <path class="cls-15" d="m221.43,40.45c2.28,0,4.14,1.85,4.14,4.15s-1.86,4.15-4.14,4.15-4.16-1.85-4.16-4.15,1.86-4.15,4.16-4.15"/>
      <path class="cls-3" d="m221.43,40.45c2.28,0,4.14,1.85,4.14,4.15s-1.86,4.15-4.14,4.15-4.16-1.85-4.16-4.15,1.86-4.15,4.16-4.15Z"/>
      <path class="cls-15" d="m231.28,43.81c2.28,0,4.16,1.87,4.16,4.16s-1.88,4.14-4.16,4.14-4.14-1.86-4.14-4.14,1.85-4.16,4.14-4.16"/>
      <path class="cls-3" d="m231.28,43.81c2.28,0,4.16,1.87,4.16,4.16s-1.88,4.14-4.16,4.14-4.14-1.86-4.14-4.14,1.85-4.16,4.14-4.16Z"/>
      <path class="cls-15" d="m240.35,48.74c2.28,0,4.16,1.86,4.16,4.15s-1.88,4.15-4.16,4.15-4.14-1.86-4.14-4.15,1.85-4.15,4.14-4.15"/>
      <path class="cls-3" d="m240.35,48.74c2.28,0,4.16,1.86,4.16,4.15s-1.88,4.15-4.16,4.15-4.14-1.86-4.14-4.15,1.85-4.15,4.14-4.15Z"/>
      <path class="cls-15" d="m248.63,55.49c2.29,0,4.15,1.85,4.15,4.16s-1.86,4.14-4.15,4.14-4.15-1.87-4.15-4.14,1.85-4.16,4.15-4.16"/>
      <path class="cls-3" d="m248.63,55.49c2.29,0,4.15,1.85,4.15,4.16s-1.86,4.14-4.15,4.14-4.15-1.87-4.15-4.14,1.85-4.16,4.15-4.16Z"/>
      <path class="cls-15" d="m256.93,62.73c2.29,0,4.15,1.87,4.15,4.15s-1.86,4.14-4.15,4.14-4.15-1.84-4.15-4.14,1.87-4.15,4.15-4.15"/>
      <path class="cls-3" d="m256.93,62.73c2.29,0,4.15,1.87,4.15,4.15s-1.86,4.14-4.15,4.14-4.15-1.84-4.15-4.14,1.87-4.15,4.15-4.15Z"/>
      <path class="cls-15" d="m263.94,70.79c2.26,0,4.14,1.84,4.14,4.15s-1.87,4.15-4.14,4.15-4.16-1.88-4.16-4.15,1.86-4.15,4.16-4.15"/>
      <path class="cls-3" d="m263.94,70.79c2.26,0,4.14,1.84,4.14,4.15s-1.87,4.15-4.14,4.15-4.16-1.88-4.16-4.15,1.86-4.15,4.16-4.15Z"/>
      <path class="cls-15" d="m270.15,80.63c2.3,0,4.15,1.85,4.15,4.15s-1.85,4.14-4.15,4.14-4.15-1.87-4.15-4.14,1.87-4.15,4.15-4.15"/>
      <path class="cls-3" d="m270.15,80.63c2.3,0,4.15,1.85,4.15,4.15s-1.85,4.14-4.15,4.14-4.15-1.87-4.15-4.14,1.87-4.15,4.15-4.15Z"/>
      <path class="cls-15" d="m259.26,49.25c2.28,0,4.16,1.86,4.16,4.15s-1.88,4.16-4.16,4.16-4.16-1.87-4.16-4.16,1.87-4.15,4.16-4.15"/>
      <path class="cls-3" d="m259.26,49.25c2.28,0,4.16,1.86,4.16,4.15s-1.88,4.16-4.16,4.16-4.16-1.87-4.16-4.16,1.87-4.15,4.16-4.15Z"/>
      <path class="cls-15" d="m270.15,48.74c2.3,0,4.15,1.86,4.15,4.15s-1.85,4.15-4.15,4.15-4.15-1.86-4.15-4.15,1.87-4.15,4.15-4.15"/>
      <path class="cls-3" d="m270.15,48.74c2.3,0,4.15,1.86,4.15,4.15s-1.85,4.15-4.15,4.15-4.15-1.86-4.15-4.15,1.87-4.15,4.15-4.15Z"/>
      <path class="cls-15" d="m282.08,50.56c2.28,0,4.14,1.86,4.14,4.16s-1.86,4.15-4.14,4.15-4.16-1.87-4.16-4.15,1.86-4.16,4.16-4.16"/>
      <path class="cls-3" d="m282.08,50.56c2.28,0,4.14,1.86,4.14,4.16s-1.86,4.15-4.14,4.15-4.16-1.87-4.16-4.15,1.86-4.16,4.16-4.16Z"/>
      <path class="cls-15" d="m293.22,54.44c2.28,0,4.16,1.87,4.16,4.15s-1.87,4.16-4.16,4.16-4.16-1.86-4.16-4.16,1.86-4.15,4.16-4.15"/>
      <path class="cls-3" d="m293.22,54.44c2.28,0,4.16,1.87,4.16,4.15s-1.87,4.16-4.16,4.16-4.16-1.86-4.16-4.16,1.86-4.15,4.16-4.15Z"/>
      <path class="cls-15" d="m302.79,60.14c2.31,0,4.16,1.87,4.16,4.15s-1.85,4.15-4.16,4.15-4.14-1.87-4.14-4.15,1.88-4.15,4.14-4.15"/>
      <path class="cls-3" d="m302.79,60.14c2.31,0,4.16,1.87,4.16,4.15s-1.85,4.15-4.16,4.15-4.14-1.87-4.14-4.15,1.88-4.15,4.14-4.15Z"/>
      <path class="cls-15" d="m312.91,68.44c2.29,0,4.15,1.85,4.15,4.15s-1.86,4.14-4.15,4.14-4.15-1.86-4.15-4.14,1.86-4.15,4.15-4.15"/>
      <path class="cls-3" d="m312.91,68.44c2.29,0,4.15,1.85,4.15,4.15s-1.86,4.14-4.15,4.14-4.15-1.86-4.15-4.14,1.86-4.15,4.15-4.15Z"/>
      <path class="cls-15" d="m319.38,76.99c2.31,0,4.16,1.85,4.16,4.15s-1.85,4.15-4.16,4.15-4.15-1.87-4.15-4.15,1.87-4.15,4.15-4.15"/>
      <path class="cls-3" d="m319.38,76.99c2.31,0,4.16,1.85,4.16,4.15s-1.85,4.15-4.16,4.15-4.15-1.87-4.15-4.15,1.87-4.15,4.15-4.15Z"/>
      <path class="cls-15" d="m323.79,86.84c2.3,0,4.16,1.85,4.16,4.16s-1.86,4.15-4.16,4.15-4.14-1.88-4.14-4.15,1.86-4.16,4.14-4.16"/>
      <path class="cls-3" d="m323.79,86.84c2.3,0,4.16,1.85,4.16,4.16s-1.86,4.15-4.16,4.15-4.14-1.88-4.14-4.15,1.86-4.16,4.14-4.16Z"/>
      <path class="cls-15" d="m328.72,95.91c2.28,0,4.16,1.85,4.16,4.16s-1.88,4.15-4.16,4.15-4.14-1.87-4.14-4.15,1.86-4.16,4.14-4.16"/>
      <path class="cls-3" d="m328.72,95.91c2.28,0,4.16,1.85,4.16,4.16s-1.88,4.15-4.16,4.15-4.14-1.87-4.14-4.15,1.86-4.16,4.14-4.16Z"/>
      <path class="cls-15" d="m331.58,106.53c2.28,0,4.14,1.86,4.14,4.15s-1.86,4.16-4.14,4.16-4.16-1.88-4.16-4.16,1.86-4.15,4.16-4.15"/>
      <path class="cls-3" d="m331.58,106.53c2.28,0,4.14,1.86,4.14,4.15s-1.86,4.16-4.14,4.16-4.16-1.88-4.16-4.16,1.86-4.15,4.16-4.15Z"/>
      <path class="cls-1" d="m152.34,96.72c-3.48-9.29-7.79-11.38-7.79-11.38,0,0-4.62,3.82-5.69,15.79"/>
      <path class="cls-1" d="m209.9,88.19c-3.57-7.77-6.82-8.96-6.82-8.96,0,0-3.58,1.27-6.55,8.44"/>
      <path class="cls-1" d="m269.33,101.01c-.12-6.06-4.37-9.31-4.37-9.31,0,0-4.14.51-7.12,7.69"/>
      <path class="cls-16" d="m2.18,358.39c0,110.84,89.84,200.68,200.69,200.68s200.69-89.84,200.69-200.68-89.85-200.71-200.69-200.71S2.18,247.54,2.18,358.39"/>
      <path class="cls-6" d="m2.18,358.39c0,110.84,89.84,200.68,200.69,200.68s200.69-89.84,200.69-200.68-89.85-200.71-200.69-200.71S2.18,247.54,2.18,358.39Z"/>
      <path class="cls-17" d="m48.1,353.4l.49-5.82-11.13-.95.55-6.13c.39-4.4,1.91-4.52,5.79-4.17,2.92.28,4.43.15,5.79-.11l.57-6.59-.75-.06c-.57,1.22-1.6,1.13-5.76.76-5.31-.46-6.27.74-7.52,2.98-.7-2.88-3.26-4.71-6.38-4.99-2.48-.21-8.16.68-8.81,8.26l-1.26,14.35,28.43,2.47m-15.41-7.2l-7.59-.68.65-7.39c.3-3.48,2.57-3.96,4.06-3.82,2.82.24,3.76,1.84,3.49,4.92l-.61,6.96Z"/>
      <polyline class="cls-17" points="30.46 294.87 24.35 314.93 51.63 323.26 57.97 302.56 53.12 301.09 48.49 316.2 41.45 314.05 45.5 300.75 40.68 299.26 36.64 312.56 30.88 310.81 35.3 296.35 30.46 294.87"/>
      <path class="cls-17" d="m58.63,287.94l4.91-9.3,6.05,1.16,3.05-5.71-29.89-4.53-3.23,6.06,20.41,22.37,2.96-5.55-4.26-4.51m-11.86-12.23l.05-.08,11.61,2.19-3.42,6.41-8.24-8.52Z"/>
      <polyline class="cls-17" points="58.99 246.87 55.15 251.42 77 269.76 89.92 254.32 85.99 251.02 76.87 261.88 58.99 246.87"/>
      <path class="cls-17" d="m125.47,227.24l5.38-2.27-4.39-10.28,5.69-2.41c4.07-1.71,4.85-.43,6.38,3.17,1.16,2.7,1.94,3.96,2.84,5.04l6.07-2.56-.31-.7c-1.34.06-1.75-.89-3.39-4.73-2.07-4.9-3.58-5.21-6.14-5.25,2.22-1.97,2.63-5.08,1.38-7.96-.94-2.27-4.41-6.87-11.4-3.92l-13.26,5.62,11.15,26.25m-.87-16.98l-2.98-7.02,6.83-2.9c3.21-1.37,4.72.42,5.3,1.8,1.09,2.6.12,4.18-2.72,5.38l-6.44,2.74Z"/>
      <path class="cls-17" d="m158.22,208.14l10.28-2.19,3.02,5.35,6.36-1.34-15.78-25.79-6.7,1.43-4.01,29.98,6.12-1.3.71-6.14m1.77-16.94l.08-.02,5.79,10.29-7.09,1.51,1.22-11.79Z"/>
      <path class="cls-17" d="m204.33,188.86c-.62-4.19-4.46-9.82-12.97-9.22-7.34.51-12.72,5.98-12.04,15.92.69,9.84,6.47,14.58,14.05,14.03,7.12-.5,10.87-5.09,11.61-11.36l-5.94.42c-.46,3.53-2.63,5.55-5.93,5.81-5.03.32-7.37-4.12-7.73-9.24-.57-8.02,3.51-10.21,6.36-10.43,4.91-.35,6.05,2.81,6.64,4.46l5.94-.39"/>
      <polyline class="cls-17" points="218.98 180.82 213.03 180.5 211.55 208.97 217.5 209.3 218.98 180.82"/>
      <polyline class="cls-17" points="244.36 205.12 244.3 205.1 237.35 183.31 231.2 181.99 225.3 209.9 230.72 211.06 234.93 191.17 235.02 191.19 242.19 213.5 248 214.75 253.93 186.85 248.48 185.69 244.36 205.12"/>
      <path class="cls-17" d="m271.39,212.73l6.1,2.6c-3.38,4.82-7.6,3.59-8.8,3.08-3.75-1.59-6.84-5.11-3.81-12.27,2.83-6.73,7.6-7.9,11.52-6.23,3.88,1.65,4.35,5.73,3.92,6.74l5.46,2.33c1.25-3.75.28-10.31-7.76-13.74-8.82-3.8-15.68,1.28-18.73,8.45-3.92,9.21-.09,16.17,6.24,18.86,4.79,2.04,7.8.51,9.89-.52l-.85,3.53,3.64,1.55,6.01-14.15-10.95-4.65-1.89,4.42"/>
      <path class="cls-17" d="m345.62,260.95c3.01-2.95,5.3-9.38-.19-15.92-4.73-5.63-12.3-6.76-19.95-.37-7.53,6.34-7.96,13.8-3.1,19.59,4.6,5.48,10.52,5.81,16.03,2.74l-3.83-4.57c-3.15,1.7-6.06,1.14-8.18-1.39-3.24-3.86-1-8.37,2.91-11.68,6.18-5.18,10.33-3.17,12.2-.98,3.15,3.78,1.27,6.54.26,8l3.84,4.57"/>
      <polyline class="cls-17" points="362.2 270.25 359.3 265.04 334.35 278.86 344.13 296.49 348.63 293.98 341.75 281.57 362.2 270.25"/>
      <path class="cls-17" d="m380.67,315.81l-1.77-5.82-17.97,5.49c-3.31,1.01-5.7,0-6.88-3.92-.81-2.65.18-5.38,3.98-6.52l17.71-5.42-1.79-5.82-18.07,5.53c-2.72.91-4.73,2.15-5.96,4.13-1.96,3.28-1.43,7.19-.66,9.68,2.09,6.87,6.5,10.26,13.67,8.07l17.74-5.41"/>
      <path class="cls-17" d="m355.28,331.8l.62,12.04c.33,5.84,1.38,7.33,3.07,8.88,1.54,1.42,3.74,2.27,5.99,2.14,2.82-.14,5.52-1.21,6.66-4.76.67,1.17,1.93,3.41,6.02,3.19,2.95-.15,7.22-2.16,6.83-9.15l-.72-13.84-28.47,1.49m12.82,5.05l.4,7.59c.11,2.13-.72,4.32-3.22,4.45-2.89.14-4.26-1.43-4.39-4.34l-.39-7.3,7.59-.4Zm11.03-.58l.37,6.84c.12,2.69-.51,4.39-2.84,4.5-2.23.12-3.27-1.68-3.39-4.02l-.36-6.98,6.22-.34Z"/>
      <path class="cls-17" d="m73.1,475.11c-2.35,2.62-5.03,8.28,2.69,15.23,1.85,1.69,8.86,6.98,14.6.61,3.42-3.83,1.82-7.37-.44-10.7l-4-5.92c-.71-1-1.77-2.58-.27-4.22,1.72-1.93,4.31-.74,5.97.79,3.88,3.47,2.21,6.03,1.46,7.09l4.24,3.82c2.33-2.62,4.42-8.45-2.08-14.27-6.86-6.21-11.89-3.2-14.03-.82-4.17,4.66-1.56,8.4,1.14,12.28l1.8,2.57c1.77,2.55,2.94,4.43,1.47,6.07-2.03,2.25-4.8.67-6.89-1.23-3.88-3.48-2.45-6.24-1.42-7.46l-4.25-3.83"/>
      <path class="cls-17" d="m102.83,502.85l9.01,5.41-1.48,6,5.54,3.33,6.08-29.63-5.88-3.54-23.39,19.2,5.38,3.25,4.73-4.02m12.83-11.2l.06.04-2.76,11.48-6.23-3.74,8.93-7.79Z"/>
      <polyline class="cls-17" points="144.66 521.15 144.58 521.11 141.13 498.53 135.27 496.26 125.07 522.9 130.24 524.88 137.53 505.91 137.62 505.94 141.17 529.1 146.75 531.24 156.97 504.61 151.77 502.62 144.66 521.15"/>
      <polyline class="cls-17" points="175.74 513.8 184.25 515.29 185.12 510.33 162.27 506.3 161.39 511.26 169.87 512.75 165.81 535.89 171.68 536.92 175.74 513.8"/>
      <path class="cls-17" d="m192.88,533.5l10.51.2,1.74,5.9,6.48.12-9.56-28.69-6.86-.13-10.67,28.33,6.26.12,2.11-5.86m5.5-16.1h.09l3.34,11.34-7.27-.13,3.84-11.21Z"/>
      <polyline class="cls-17" points="238.62 527.55 238.53 527.57 223.93 509.99 217.75 511.06 222.71 539.15 228.19 538.19 224.66 518.17 224.72 518.16 239.72 536.15 245.61 535.13 240.64 507.03 235.15 508 238.62 527.55"/>
      <path class="cls-17" d="m257.44,532.19l11.7-4.03c8.86-3.07,8.31-12.18,6.31-17.97-1.75-5.11-6.29-12.19-15.39-9.05l-11.9,4.08,9.28,26.98m-2.15-24.21l5.42-1.87c2.4-.83,6.42-1.47,9.14,6.46,1.52,4.45,1.58,9.58-3,11.18l-5.46,1.87-6.09-17.63Z"/>
      <polyline class="cls-17" points="294.82 483.87 276.65 494.36 290.93 519.05 309.67 508.23 307.14 503.86 293.45 511.76 289.77 505.37 301.81 498.43 299.26 494.05 287.23 501 284.24 495.8 297.35 488.24 294.82 483.87"/>
      <path class="cls-17" d="m320.54,500.95l4.33-3.9-7.48-8.3,4.58-4.11c3.3-2.95,4.47-1.98,7.08.9,1.96,2.17,3.13,3.12,4.32,3.87l4.89-4.42-.5-.57c-1.26.51-1.96-.27-4.74-3.37-3.56-3.96-5.08-3.76-7.52-2.95,1.45-2.58.83-5.66-1.28-7.99-1.64-1.83-6.41-5.06-12.05,0l-10.71,9.66,19.09,21.18m-6.37-15.77l-5.1-5.67,5.52-4.95c2.59-2.35,4.59-1.14,5.58-.02,1.91,2.09,1.5,3.9-.81,5.97l-5.2,4.68Z"/>
      <path class="cls-13" d="m70.01,358.69c0,73.6,59.69,133.3,133.31,133.3s133.32-59.7,133.32-133.3-59.7-133.3-133.32-133.3-133.31,59.66-133.31,133.3"/>
      <g>
        <path class="cls-8" d="m250.23,436.81c0,26.16-21.21,47.37-47.37,47.37s-47.36-21.21-47.36-47.37,21.2-47.37,47.36-47.37,47.37,21.21,47.37,47.37h0Z"/>
        <path class="cls-2" d="m193.65,390.35s7.53,6.41,7.53,14.85-7.53,15.95-7.53,15.95m-37.06,5.57s11.71-9.72,27.3-9.72c0,0,14.97.42,14.97,14.96,0,0-2.11,10.54-11.17,15.39m-28.97,6.61s11.27-9.56,19.28-9.56c0,0,7.59-.84,11.38,6.74,0,0,4.21,9.69,13.91,9.69,0,0,24.03-.84,24.03-31.19,0,0,1.9-24.81-11.77-38.47m-4.38,67.68s2.13,17.53,24.31,12.29"/>
      </g>
      <path class="cls-6" d="m70.01,358.69c0,73.6,59.69,133.3,133.31,133.3s133.32-59.7,133.32-133.3-59.7-133.3-133.32-133.3-133.31,59.66-133.31,133.3Z"/>
      <path class="cls-9" d="m104.36,253.28l7.33,96.4,7.87,107.95s4.07,3.08,14,9.51l-6.01-46.47-14.37-156.25-1.26-12.12-7.56.98"/>
      <polyline class="cls-18" points="260.03 254.1 264.21 290.75 265.06 297.78 231.95 312.19 209.48 273.14 260.03 254.1"/>
      <polygon class="cls-4" points="260.03 254.1 264.21 290.75 265.06 297.78 231.95 312.19 209.48 273.14 260.03 254.1"/>
      <path class="cls-9" d="m113.68,252.03c2.3-2.79-.22-5.74-6.3-5.21-2.53.22-4.12.46-5.67,2.36-2.11,2.55.84,6.3,3.85,5.77,2.28-.18,5.39.28,8.12-2.92"/>
      <path class="cls-7" d="m113.68,252.03c2.3-2.79-.22-5.74-6.3-5.21-2.53.22-4.12.46-5.67,2.36-2.11,2.55.84,6.3,3.85,5.77,2.28-.18,5.39.28,8.12-2.92Z"/>
      <path class="cls-18" d="m254.56,379.4c1.24,14.61,12.63,30.8,27.25,20.91,15.13-10.22,39.68-16.25,57.86-10.76-38.58-56.58-38.85-133.14-38.85-133.14-19.01,15.22-13.92,38.67-55.12,39.93-31.32.97,18.36-36.76,13.95-45.64-19.22-38.41-89.02,34.26-146.74,9.22,0,0,40.96,68.04,4.79,140.62,51.79,15.4,87.68-39.29,136.86-21.15"/>
      <path class="cls-5" d="m254.56,379.4c1.24,14.61,12.63,30.8,27.25,20.91,15.13-10.22,39.68-16.25,57.86-10.76-38.58-56.58-38.85-133.14-38.85-133.14-19.01,15.22-13.92,38.67-55.12,39.93-31.32.97,18.36-36.76,13.95-45.64-19.22-38.41-89.02,34.26-146.74,9.22,0,0,40.96,68.04,4.79,140.62,51.79,15.4,87.68-39.29,136.86-21.15Z"/>
      <path class="cls-16" d="m185.02,255.97c-19.76,5.37-53.66,10.15-72.11,3.96,0,0,18,31.89,19.05,62.34,0,0,41.09-1.43,65.07-10.77-12.36-20.32-12.01-55.53-12.01-55.53"/>
      <path class="cls-4" d="m185.02,255.97c-19.76,5.37-53.66,10.15-72.11,3.96,0,0,18,31.89,19.05,62.34,0,0,41.09-1.43,65.07-10.77-12.36-20.32-12.01-55.53-12.01-55.53Z"/>
      <path class="cls-4" d="m254.19,379.46c13.91-44.34-18.56-86.12-18.56-86.12"/>
      <path class="cls-17" d="m147.11,290.9l-4.61-16.02,13.61-2.99c5.72-1.26,11.45-.91,13.25,5.34,1.67,5.84-2.53,9.36-8.9,10.74l-13.35,2.93m14.45.4c4.27-.94,8.15-1.18,10.46,3.13,1.61,3.01,3.41,10.92,5.98,13.36l4.72-1.04-.1-.38c-1.37-.58-2.44-2.2-4.43-8.45-1.41-4.38-3.21-9.51-9.06-10.01,4.63-3.29,5.97-6.54,4.48-11.81-2.22-7.68-8.63-9.72-18.58-7.54l-17.77,3.9,11.67,41.56,4.56-.85-5.42-18.91,13.49-2.96Z"/>
      <path class="cls-14" d="m181.89,298.35c-2.15,1.43-12.86,5.76-20.36,7.29-16.89,3.47-24.75-5.4-25.4-10.77-1.22-10.2,3.04-16.5,21.32-20.26,5.99-1.23,17.83-1.87,19.95-.8l-.79,3.91c-2.06-1.06-11.4.15-18.21,1.13-16.73,2.42-18.82,9.07-17.58,15.18,1.39,6.77,8.66,9.92,21.39,7.23,7.72-1.64,14.72-5.28,17.46-6.54l2.22,3.62"/>
    </g>
  </g>
</svg>