<?xml version="1.0" encoding="UTF-8"?>
<svg id="Layer_2" data-name="Layer 2" xmlns="http://www.w3.org/2000/svg" viewBox="0 0 332.64 500.4">
  <defs>
    <style>
      .cls-1 {
        fill: #231f20;
      }

      .cls-1, .cls-2, .cls-3, .cls-4, .cls-5, .cls-6, .cls-7, .cls-8 {
        fill-rule: evenodd;
        stroke-width: 0px;
      }

      .cls-2 {
        fill: #38a86a;
      }

      .cls-3 {
        fill: #cb5e4d;
      }

      .cls-4 {
        fill: #c79e85;
      }

      .cls-5 {
        fill: #e83e37;
      }

      .cls-6 {
        fill: #fff;
      }

      .cls-7 {
        fill: #e8e13d;
      }
    </style>
  </defs>
  <g id="Layer_1-2" data-name="Layer 1">
    <g>
      <path class="cls-6" d="m166.32,4.03c89.42,0,162.36,110.59,162.36,246.17s-72.94,246.24-162.36,246.24S3.96,385.85,3.96,250.2,76.9,4.03,166.32,4.03h0Z"/>
      <path class="cls-5" d="m166.32,0c46.15,0,87.91,28.37,118.08,74.09,29.81,45.22,48.24,107.5,48.24,176.11s-18.43,130.97-48.24,176.18c-30.17,45.72-71.93,74.02-118.08,74.02s-87.91-28.3-118.01-74.02C18.5,381.17,0,318.82,0,250.2S18.5,119.3,48.31,74.09C78.41,28.37,120.17,0,166.32,0h0Zm111.38,78.48C248.98,34.99,209.59,7.99,166.32,7.99s-82.66,27-111.31,70.49C25.99,122.47,7.99,183.24,7.99,250.2s18,127.8,47.02,171.79c28.66,43.49,68.04,70.42,111.31,70.42s82.66-26.93,111.38-70.42c28.94-43.99,46.94-104.76,46.94-171.79s-18-127.73-46.94-171.72h0Z"/>
      <path class="cls-8" d="m139.56,40.61c-1.08-.22-2.16-.86-3.31-.72-1.3.14-2.52.94-3.74,1.51-1.3.58-2.52,1.3-3.82,1.8-.72.22-1.51.29-2.3.5-1.08.29-2.3.43-3.31,1.01-.86.5-1.3,1.73-2.23,2.23-.79.43-1.73.29-2.52.29-.86-.07-1.73-.65-2.59-.5-1.37.22-2.74.86-4.03,1.51-1.22.58-2.38,1.3-3.53,2.02-.72.43-1.44.94-2.02,1.51-.65.65-1.15,1.44-1.8,2.02-.65.65-1.22,1.37-2.02,1.8-1.08.58-2.45.43-3.53,1.01-1.01.58-1.73,1.58-2.59,2.3-.72.58-1.37,1.37-2.23,1.73-.94.5-2.02.58-3.1.79-.79.22-1.73.07-2.52.5-.86.5-1.66,1.22-2.23,2.02-.86,1.01-1.58,2.09-2.09,3.31-.29.79.43,2.02-.22,2.52-.94.72-2.59-.43-3.53.29-.79.5-.58,1.8-.79,2.74-.36,1.44-.72,2.88-1.01,4.32-.14.86.14,1.8-.29,2.52-.29.72-1.22,1.01-1.73,1.58-.65.58-1.22,1.3-1.8,2.02-.58.72-1.51,1.3-1.73,2.23-.36,1.22-.07,2.59.22,3.82.36,1.44.86,2.88,1.8,4.03.65.94,1.8,1.37,2.74,1.8.65.29,1.58,0,2.09.5.58.65.43,1.73.72,2.52.29.86.43,1.87,1.01,2.59.79.94,1.66,1.87,2.81,2.23,1.37.5,2.88.22,4.32.29,1.37.07,2.66.22,4.03.22,1.08,0,2.3.22,3.31-.22.65-.29.58-1.51,1.22-1.8.86-.36,1.94-.29,2.81,0,.65.22.65,1.3,1.3,1.51.86.36,1.94.36,2.74,0,1.01-.36,1.51-1.44,2.3-2.02.79-.5,1.58-1.08,2.52-1.3,1.01-.14,2.09.14,3.1.29.65.07,1.37.22,2.02.5.94.43,1.66,1.22,2.52,1.8,1.01.65,1.94,1.44,3.02,2.02.86.43,1.87.72,2.81,1.01.72.22,1.66.07,2.3.5.86.65,1.01,2.09,2.02,2.52,1.15.58,2.52.22,3.82.29,1.01,0,2.02-.36,3.02,0,.58.22.65,1.22,1.22,1.51.86.36,1.87.22,2.81.22,1.3.07,2.59.36,3.82,0,2.16-.58,4.03-1.8,6.05-2.74,1.01-.5,1.8-1.22,2.81-1.58,1.66-.58,3.31-1.01,5.04-1.22,1.87-.22,3.74.29,5.62,0,1.08-.14,1.94-1.15,3.02-1.3,1.44-.14,2.95-.07,4.32.29,1.58.43,3.02,1.44,4.54,2.02,1.51.5,3.02,1.15,4.61,1.3,1.66.07,3.38-.22,5.04-.5,1.22-.29,2.45-.72,3.53-1.3,1.08-.58,1.94-1.44,2.81-2.3.94-.94,1.66-2.09,2.52-3.02.72-.72,1.3-2.02,2.3-2.02s1.44,1.44,2.3,2.02c.79.58,1.8,1.01,2.74,1.3,1.22.29,2.59.79,3.82.5.72-.22.58-1.87,1.3-1.8,1.15.07,1.73,1.58,2.74,2.02,1.3.58,2.66,1.01,4.1,1.01s2.88-.22,4.03-1.01c.86-.5,1.08-1.66,1.51-2.52.29-.58.22-1.44.79-1.8.94-.58,2.16-.86,3.24-.72,1.15.14,2.16.79,3.1,1.51.72.58,1.01,1.66,1.73,2.3.58.43,1.37.58,2.09.72,1.15.22,2.38.58,3.53.29,1.08-.36,1.73-1.66,2.81-2.09.65-.22,1.51.29,2.23,0,1.08-.36,1.73-1.66,2.81-1.73.79-.07,1.51.65,2.02,1.22.86,1.01,1.01,2.52,2.02,3.31.72.5,1.73.43,2.52.29,1.37-.36,2.59-1.08,3.82-1.8.58-.29.94-1.08,1.51-1.3,1.22-.36,2.59-.14,3.82-.5,1.08-.22,2.09-.65,3.02-1.22.86-.58,1.66-1.3,2.3-2.02.79-.94,1.8-1.87,2.02-3.1.29-1.37-.14-2.88-.5-4.25-.22-.94-.65-1.87-1.22-2.59-.58-.58-1.51-.65-2.09-1.22-.43-.5-.43-1.22-.72-1.8-.43-.86-.72-1.8-1.3-2.52-.43-.65-1.08-1.08-1.73-1.51-.5-.29-1.3,0-1.58-.5-.58-1.3-.5-2.88-.72-4.32-.22-1.08-.43-2.16-.5-3.31-.07-1.01-.07-2.02,0-3.02.07-.72.43-1.37.5-2.02.07-1.01-.07-2.02-.29-3.02-.07-.58-.14-1.15-.5-1.58-.65-.72-1.66-1.15-2.52-1.73-.65-.5-1.3-1.08-2.02-1.51-.65-.5-1.44-.72-2.02-1.3-.58-.5-.79-1.22-1.3-1.8-.65-.65-1.58-1.08-2.23-1.73-.36-.36-.43-.94-.79-1.3-.65-.65-1.51-1.22-2.3-1.73-1.15-.86-2.3-1.66-3.53-2.3-.86-.5-1.8-.94-2.81-1.3-.86-.29-1.8-.36-2.74-.5-.86-.07-1.73,0-2.59,0-1.01,0-2.02.36-3.02,0-.86-.29-1.37-1.37-2.23-1.73-.65-.29-1.44.29-2.09,0-.58-.29-.79-1.08-1.22-1.51-.5-.5-1.08-.86-1.51-1.3-.43-.43-.79-.94-1.3-1.3-.86-.5-1.8-1.01-2.81-1.22-1.08-.22-2.16.14-3.24,0-1.01-.14-1.94-.36-2.81-.79-.65-.29-.86-1.3-1.51-1.51-1.15-.36-2.38-.22-3.6-.22-.79,0-1.73-.14-2.52.22-.79.36-1.15,1.51-2.02,1.8-.86.29-1.94.07-2.81-.29-1.01-.43-1.73-1.58-2.74-2.02-.79-.36-1.73-.14-2.59-.22-.79-.14-1.66-.43-2.52-.29-.86.14-1.73.58-2.52,1.01-.94.58-1.51,1.58-2.52,2.02-1.22.5-2.52.65-3.82.79-.86.07-1.73-.29-2.52,0-.65.22-.94.94-1.51,1.22-.58.29-1.22.72-1.8.5-1.08-.36-1.87-1.3-2.81-2.02-.43-.29-.72-.86-1.22-1.01-.94-.29-1.87-.22-2.81-.22-1.01,0-2.02.36-3.02.22-.72-.07-1.37-.43-2.02-.72-.65-.29-1.15-.94-1.8-1.01-.94-.14-1.87.29-2.81.5-.94.14-1.87.07-2.74.5-.94.36-1.73,1.08-2.59,1.73-.65.58-1.3,1.22-2.02,1.8-.65.5-1.22,1.15-2.02,1.3-.65.07-1.15-.65-1.73-.79-1.22-.36-2.38-.5-3.6-.79h0Z"/>
      <path class="cls-2" d="m91.18,63.43c-.65.07-1.22.29-1.8.5-.72.36-1.51.65-2.02,1.3-.43.5-.72,1.37-.5,2.02.36.86,1.37,1.37,2.02,2.02.43.36,1.37.5,1.3,1.01-.14.79-1.08,1.15-1.8,1.51-.65.36-1.51.5-2.23.5-.72.07-1.37-.43-2.09-.22-.58.14-1.15.72-1.51,1.22-.43.72-.65,1.51-.72,2.3-.14.58,0,1.22.14,1.8.07.43.5.79.5,1.22-.07.79-.22,1.66-.79,2.16-.5.43-1.3.14-1.87.43-.58.22-1.01.65-1.44,1.01-.58.43-1.15.86-1.66,1.37-.36.43-.72.94-1.01,1.51-.22.58-.43,1.22-.5,1.87-.07.86-.07,1.73.14,2.59.14.58.58,1.01.86,1.51.43.58.86,1.22,1.44,1.66.58.36,1.3.58,2.02.72.72.22,1.51.65,2.16.29.5-.29.36-1.08.36-1.66,0-.43-.29-.86-.5-1.3-.36-.58-.79-1.15-1.15-1.73-.29-.5-.72-1.01-.86-1.51-.07-.36-.07-1.01.22-.94.72.29,1.01,1.08,1.51,1.66.65.65,1.22,1.44,1.94,2.02.79.65,1.8,1.01,2.52,1.66.36.36.94.79.79,1.3-.22.58-.94.94-1.51,1.15-.86.22-1.87-.22-2.66.07-.43.14-.65.72-.65,1.15-.07.72.07,1.51.5,2.02.5.72,1.44,1.01,2.16,1.51.5.43.86,1.01,1.37,1.44.43.29.94.65,1.51.72,1.15.29,2.3.43,3.46.29.58-.07,1.15-.5,1.66-.86.29-.29.72-.65.58-1.08-.22-.72-1.08-1.08-1.51-1.73-.43-.72-1.44-1.44-1.15-2.16.29-.58,1.3.36,1.8.72.58.43.86,1.08,1.37,1.44.5.29,1.08.58,1.66.5.5-.07.72-.65,1.15-.79.65-.22,1.37-.43,2.02-.22.79.22,1.37.94,1.94,1.51.36.36.5.86.86,1.15.43.29,1.01.72,1.51.65.5-.14.79-.79,1.15-1.15.79-.86,1.44-1.73,2.3-2.52.5-.58,1.15-.86,1.66-1.44.36-.5.86-1.01,1.01-1.66.07-.58-.22-1.15-.29-1.73,0-.58-.36-1.22,0-1.66.72-1.01,2.09-1.3,2.95-2.16.22-.29.07-.72.22-1.01.36-.72.65-1.51,1.3-1.94.79-.5,1.87-.72,2.88-.86,1.08-.07,2.16-.14,3.17.29.79.29,1.15,1.3,1.94,1.73.58.36,1.51.94,2.09.5.65-.36.5-1.37.5-2.16.07-.72-.29-1.44-.07-2.16.14-.58.65-1.15,1.22-1.51.65-.36,1.51-.22,2.16-.5.65-.22,1.15-.72,1.8-.86.5-.14,1.22.36,1.66,0,.43-.29.79-1.22.36-1.51-.72-.5-1.66,0-2.52,0h-3.46c-.79,0-1.66.22-2.38-.14-.36-.14-.29-.86,0-1.15.43-.43,1.15-.5,1.8-.65.86-.07,1.8.14,2.74,0,.79-.07,1.58-.14,2.3-.5.58-.22.94-.79,1.37-1.22.36-.36.43-1.3.94-1.15.58.14.5,1.22,1.01,1.66.65.65,1.37,1.37,2.23,1.51.72.07,1.37-.5,1.94-1.01.36-.36.43-.86.65-1.3.22-.5.22-1.08.58-1.51.43-.5,1.15-.65,1.66-1.01.58-.36,1.08-1.22,1.8-1.15.5.07.58.94.65,1.44,0,.5-.22,1.08-.5,1.51-.5.58-1.51.65-1.94,1.22-.29.43.14,1.08,0,1.51-.07.43-.36.79-.72.94-.58.14-1.22-.43-1.8-.29-.72.22-1.22,1.01-1.87,1.44-.65.36-1.37.58-1.94,1.01-.36.22-.65.58-.86,1.01s0,1.08-.36,1.37c-.58.43-1.37.5-2.09.65-.72.14-1.51-.14-2.23.14-.43.14-.58.72-.79,1.08-.14.5-.22,1.01-.22,1.58-.07.5.36,1.22,0,1.58-.5.58-1.58.07-2.02.58-.36.36.43,1.22,0,1.51-1.01.43-2.3.43-3.31.07-.65-.22-.65-1.3-1.3-1.58-.72-.43-1.58-.36-2.38-.43-.86-.07-1.87-.43-2.66-.14-.65.29-1.01.94-1.3,1.58-.22.43-.22,1.01-.22,1.51,0,.36-.14,1.01.22,1.15.58.22,1.3-.22,1.94-.29.58-.07,1.3-.72,1.87-.36.43.22.43,1.08.14,1.51-.58.65-1.51.94-2.3,1.22-1.08.5-2.16.72-3.31,1.08-.5.14-1.15.07-1.66.36-.65.36-1.3.79-1.73,1.37-.36.58-.94,1.37-.5,1.94.43.58,1.44.36,2.16.36.94,0,1.87-.22,2.74-.36s1.66-.36,2.45-.5c.43-.14,1.01-.07,1.37-.29.36-.14.43-1.15.65-.86.58.58.22,1.73.79,2.38.36.5,1.01.58,1.58.65.94.14,1.87,0,2.81,0,1.01,0,2.02.07,3.02,0,.72-.07,1.66.29,2.09-.29.5-.72.22-1.8.22-2.74s-.14-1.8-.22-2.66c-.14-1.01-.29-1.94-.43-2.95-.07-.65-.29-1.22-.22-1.87,0-.43.07-1.01.5-1.15.72-.22,1.58-.07,2.23.29.72.36,1.01,1.15,1.58,1.73.5.58,1.08,1.01,1.58,1.51.5.5.72,1.3,1.3,1.66.72.5,1.8.43,2.52,1.01.58.5.58,1.44,1.15,1.94.43.29,1.15.43,1.66.22.79-.29,1.58-.79,2.02-1.51.5-.79.5-1.73.65-2.66.14-.79.29-1.58.22-2.38,0-1.08-.22-2.09-.5-3.1-.14-.58-.58-1.01-.72-1.58-.22-.72-.29-1.37-.36-2.09-.14-.58-.22-1.22-.29-1.87-.07-.58-.36-1.15-.22-1.8,0-.43.22-.94.58-1.08.65-.29,1.37-.07,2.09.07.58.22,1.37.36,1.73.94.29.36.36,1.01,0,1.37-.36.43-1.3-.07-1.66.36-.36.5-.14,1.22,0,1.8.14.5.43,1.08.94,1.37.36.36,1.01.36,1.51.43,1.01.07,2.02.29,3.02.07.65-.07,1.3-.5,1.8-1.01.36-.43.58-1.08.72-1.66.14-.58.29-1.15.29-1.73-.07-.72,0-1.58-.5-2.02-.58-.5-1.44-.29-2.16-.43-.79-.14-1.66-.07-2.3-.5-.29-.22-.36-.79-.14-1.15.36-.43,1.01-.79,1.51-.72.86.07,1.58.72,2.45,1.01.5.14,1.08.29,1.66.36.65.07,1.44.36,2.02,0,.65-.36.94-1.08,1.22-1.73.22-.43-.07-1.01.29-1.3.72-.58,1.73-.86,2.66-1.01.65-.07,1.3.22,1.87.36.43.07.86.36,1.3.29.65-.22,1.08-.79,1.66-1.15.43-.36,1.01-.58,1.37-1.01.5-.5.65-1.3,1.15-1.66.5-.36,1.37-1.01,1.8-.5.43.58-.07,1.51-.43,2.16-.29.65-.94,1.15-1.51,1.66-.58.5-1.37.79-1.87,1.37-.5.5-.5,1.51-1.15,1.8-1.01.36-2.09,0-3.17-.14-.58-.07-1.22-.79-1.8-.5-.72.36-1.01,1.37-1.51,2.02-.5.65-1.08,1.22-1.51,1.87-.5.94-.79,1.87-1.15,2.81-.29.86-.72,1.66-.86,2.52-.07.5-.22,1.15.14,1.51.36.58,1.3.43,1.73.94.36.36.72,1.01.43,1.37-.65.72-2.09.43-2.66,1.15-.43.43.07,1.15.07,1.8.07.65,0,1.3,0,2.02.07.72.29,1.44.14,2.16-.07.29-.43.58-.72.72-.79.36-1.58.65-2.45.65-.5,0-1.01-.14-1.37-.5-.43-.43-.36-1.37-.86-1.66-.72-.43-1.66-.43-2.45-.22-.5.07-1.01.5-1.15,1.01-.14.58.14,1.15.29,1.73.29,1.08.5,2.09,1.01,3.1.58,1.08,1.37,2.09,2.16,3.02.43.5.86,1.15,1.51,1.22.65.07,1.44-.29,1.8-.86.29-.65-.14-1.51-.14-2.3-.07-.79-.5-1.66-.14-2.38.36-.65,1.22-.79,1.87-1.01.94-.36,1.87-.86,2.81-.79.58.07.65,1.08,1.15,1.15.79.14,1.73-.07,2.38-.5.58-.36.72-1.15,1.15-1.66.79-.86,1.87-1.51,2.52-2.52.58-.79.86-1.73,1.08-2.66.14-.94.22-1.94.07-2.88-.07-.79-.14-1.8-.72-2.3-.43-.43-1.22-.14-1.8,0-.86.14-1.66.79-2.52.72-.58,0-1.37-.29-1.37-.86-.07-.79.58-1.58,1.22-2.02.72-.43,1.8,0,2.52-.36.79-.43,1.3-1.15,1.66-1.94.36-.72.22-1.73.5-2.52.22-.58.43-1.22.94-1.66.43-.43,1.01-.58,1.58-.72.5-.14,1.08-.29,1.44,0,.5.36.86,1.01.86,1.66,0,.58-.58,1.08-1.01,1.51-.36.36-1.15.29-1.37.72-.36.72-.36,1.66-.14,2.45.14.5.72,1.01,1.3,1.08,1.08.29,2.3.29,3.38,0,.65-.07,1.08-.65,1.66-1.01.5-.29,1.37-.29,1.51-.86.29-.94.22-2.16-.22-3.02-.36-.72-1.22-1.01-1.94-1.3-.58-.22-1.37.22-1.87-.14-.5-.22-1.08-.86-.94-1.37.22-.5,1.08-.36,1.58-.65.58-.29,1.15-.72,1.73-1.08.5-.36,1.08-.65,1.51-1.08.5-.43.94-.94,1.3-1.51.36-.65,0-1.94.72-2.16.72-.14.86,1.22,1.44,1.66.36.36.86.72,1.37.94.58.22,1.3.07,1.8.5.36.29.65.86.65,1.37-.07.65-.22,1.51-.79,1.8-.86.36-1.94-.5-2.81-.14-.65.29-1.01,1.15-1.22,1.87-.22.72.07,1.44.07,2.16.07.79.07,1.66.14,2.45.07.43.07.94.43,1.22.5.43,1.22.58,1.87.5.79-.07,1.58-.43,2.16-1.01.5-.5.58-1.22.72-1.87.14-.58-.07-1.22.14-1.8.29-.58,1.15-.79,1.44-1.37.22-.58-.36-1.3,0-1.8.29-.58,1.15-.65,1.58-1.15.5-.5.58-1.44,1.15-1.87.5-.43,1.15-.5,1.8-.5.94-.07,1.94.58,2.81.22.72-.29,1.08-1.3,1.51-2.02.36-.58.29-1.51.86-1.87.36-.22.94.36,1.01.72.14.86-.07,1.73-.5,2.45-.65.94-1.73,1.58-2.66,2.3-.72.5-1.66.58-2.3,1.22-.36.43-.29,1.08-.36,1.66-.07.65.07,1.3-.14,1.87-.07.43-.36.94-.72,1.15-.79.43-1.87.29-2.66.79-.58.29-1.01.94-1.37,1.51-.29.36-.36.86-.65,1.22-.36.5-.79.94-1.3,1.15-.65.36-1.44.29-2.16.5-.65.22-1.73.14-2.02.79-.5,1.15.43,2.52.14,3.67-.22.65-1.15.79-1.51,1.37-.36.43-.22,1.08-.5,1.51-.29.43-.65.79-1.01.94-.94.29-1.94.29-2.95.36-.79.07-1.58-.07-2.38,0-.79.07-1.66-.14-2.3.29-.86.5-1.15,1.58-1.8,2.38-.5.72-1.3,1.22-1.66,2.02-.14.5,0,1.15.43,1.51.72.72,1.73,1.3,2.74,1.51.94.22,1.87-.07,2.81-.22,1.22-.22,2.45-.58,3.53-1.01,1.08-.43,1.87-1.37,2.95-1.66.94-.29,1.94-.36,2.88-.14,1.58.43,2.95,1.3,4.32,2.16.65.43.94,1.44,1.66,1.51,1.3.22,2.59-.22,3.82-.65.79-.22,1.37-.86,2.02-1.37.79-.65,1.58-1.37,2.3-2.16.58-.72,1.01-1.51,1.51-2.3.22-.36.36-.79.65-1.08.43-.5,1.15-.65,1.51-1.15.36-.58.36-1.3.5-1.94.07-.5.36-1.01.22-1.51-.07-.43-.43-.86-.72-1.22-.65-.72-1.22-1.51-2.02-1.94-.65-.36-1.51-.65-2.16-.36-.86.36-1.15,1.44-1.66,2.16-.43.58-1.08,1.01-1.3,1.66-.22.86.36,1.87,0,2.74-.29.86-1.01,1.44-1.73,1.94-.65.36-1.37.86-2.09.65-.86-.36-1.15-1.44-1.73-2.16,0,0-.14-1.94.14-2.52.22-.65,2.74-2.66,2.74-2.66.72-.5,1.44-.94,2.02-1.58.5-.43.94-1.01,1.15-1.58.29-.65.22-1.37.29-2.09.07-.58-.22-1.44.22-1.87.65-.58,1.58-.65,2.45-.79.72-.07,1.66-.29,2.23.14.43.36.07,1.15-.07,1.66-.29.65-1.08,1.08-1.15,1.8-.07.65.36,1.22.72,1.73.43.65.86,1.37,1.51,1.66.86.36,2.02.65,2.81.14.58-.29.43-1.3.29-1.87-.22-.65-.94-1.08-1.15-1.66-.29-.72-.86-1.58-.5-2.3.43-.79,1.51-1.15,2.38-1.37.86-.22,1.73,0,2.52.22.58.22,1.66.5,1.44,1.01-.36.72-1.58.5-2.3.79-.5.22-1.3.22-1.51.72-.29.65.36,1.37.36,2.09,0,.94-.58,1.87-.36,2.74.22.65,1.01.94,1.51,1.3.65.43,1.44.58,1.94,1.15.29.29.65.94.36,1.22-.43.58-1.3.5-1.94.65-.72.22-1.58-.07-2.23.36-.72.5-1.08,1.37-1.44,2.16-.22.65-.43,1.44-.22,2.09.14.43.79.58,1.22.72.72.22,1.37.36,2.09.29.94-.14,2.02-.29,2.74-.94.43-.29,0-1.01.14-1.51.36-.86.65-1.8,1.37-2.38.5-.43,1.3-.29,1.94-.29.65.07,1.44.79,2.02.36.72-.43.72-1.44.86-2.23.14-.58.36-1.3,0-1.8-.5-.79-1.66-1.01-2.38-1.66-.72-.58-1.44-1.3-2.02-2.02-.5-.58-1.01-1.15-1.15-1.87-.07-.43.07-1.08.5-1.15.79-.14,1.66.22,2.3.72.43.43.36,1.22.58,1.8.29.58.65,1.15,1.08,1.66.29.36.58.86,1.08,1.01.86.22,1.8-.07,2.66-.14.79,0,1.51-.07,2.3-.07.94-.07,1.94-.22,2.88-.14.79,0,1.73-.14,2.3.36.43.43.07,1.22,0,1.8,0,.43.14,1.15-.22,1.22-1.01.22-2.02-.36-3.1-.5-.72-.07-1.44,0-2.16,0-.72.07-1.58-.07-2.23.29-.43.22-.36.79-.5,1.22-.14.5-.36.94-.43,1.44,0,.5.5,1.08.14,1.51-.43.5-1.22.5-1.87.72-.5.22-1.15.07-1.51.43-.43.36-.79,1.08-.65,1.66.22,1.01.72,2.09,1.51,2.88.65.65,1.51.94,2.38,1.01,1.01.07,2.09-.07,2.95-.65.58-.36.72-1.22.86-1.87.14-.65-.29-1.37,0-1.87.43-.72,1.3-1.15,2.02-1.44.79-.29,1.94.22,2.59-.36.5-.5-.07-1.58.36-2.16.36-.58,1.01-.94,1.66-1.01,1.01-.14,2.02.72,3.02.5.86-.22,1.22-1.37,2.02-1.8.72-.36,1.51-.65,2.3-.65.65,0,1.15.58,1.73.65,1.15.14,2.23.07,3.31,0,.43,0,1.08.29,1.3-.07.43-.65-.07-1.66.22-2.3.29-.58.79-1.22,1.44-1.3.5,0,1.01.58,1.15,1.01.22.79.14,1.66-.14,2.45-.22.43-.79.5-1.15.86-.29.36-.36,1.01-.79,1.15-.86.29-1.94.07-2.88,0-1.01-.07-1.94-.22-2.95-.29-.72,0-1.51-.07-2.23.14-.65.22-1.15.65-1.66,1.01-.43.36-.86.65-1.01,1.15-.14.58,0,1.22.22,1.8.29.58.72,1.22,1.3,1.51,1.01.43,2.16.5,3.31.65,1.15.07,2.38.07,3.53,0,.79-.07,1.58-.07,2.3-.43.5-.22.72-.86,1.01-1.37.22-.43.58-.79.65-1.3.07-.72-.43-1.44-.29-2.16.07-.43.36-1.37.79-1.08.5.36.07,1.44.5,2.02.29.43.86.58,1.37.72.5.22,1.08,0,1.51.29.65.36,1.15.94,1.51,1.51.43.58.43,1.51.94,2.02.43.5,1.08.79,1.73.86.86.22,1.87.36,2.66-.07.5-.29.29-1.15.5-1.66.29-.58.58-1.15.86-1.66.29-.43.36-1.08.79-1.3.72-.29,1.66.43,2.3,0,.5-.29.14-1.15.36-1.73.29-.79.43-1.58,1.01-2.16.43-.43,1.22-.86,1.66-.5.58.36.43,1.3.36,2.02,0,.58-.29,1.08-.65,1.51-.29.43-.94.5-1.22.86-.36.43-.94,1.22-.5,1.51.5.43,1.3-.07,1.87-.36.94-.36,1.73-.86,2.52-1.37.58-.36,1.15-.72,1.44-1.3.29-.79.36-1.66.22-2.52-.07-.72-.43-1.44-.72-2.16-.36-.79-.65-1.58-1.15-2.3-.36-.43-1.01-.65-1.3-1.08-.29-.5,0-1.22-.36-1.66-.36-.5-1.08-.65-1.51-1.01-.43-.36-.5-1.15-1.01-1.3-.65-.14-1.37.29-1.94.65-.43.29-.94.72-1.08,1.22-.22.65.29,1.3.22,1.94,0,.5-.14,1.15-.5,1.51-.5.5-1.22,1.3-1.87,1.01-.72-.29-.58-1.3-.65-2.02-.14-.86-.29-1.73,0-2.52.22-.58.94-.72,1.37-1.15.5-.5.86-1.01,1.3-1.51.22-.36.58-.72.65-1.15.07-.65,0-1.3-.29-1.94-.22-.43-.5-.94-1.01-1.01-1.08,0-2.09.5-3.02.94-.79.36-1.44,1.01-2.16,1.51-.58.36-1.08.86-1.66,1.15-.5.22-1.15,0-1.51.36-.5.43-.43,1.22-.86,1.66-.5.36-1.08.5-1.66.65-.79.07-1.94.65-2.3,0-.36-.65.94-1.08,1.3-1.66.29-.65.43-1.37.58-2.02.22-.86.43-1.73.5-2.59.07-.72-.36-1.58,0-2.23.29-.43,1.08.29,1.44,0,.29-.29.14-.86.14-1.3-.14-.65-.36-1.3-.65-1.87-.36-.65-.79-1.3-1.44-1.66-.5-.36-1.22-.29-1.87-.5-.86-.29-1.94-.36-2.52-1.01-.29-.36.07-1.01.36-1.3.5-.43,1.15-1.01,1.8-.86,1.3.29,2.3,1.3,3.38,2.02.72.5,1.37,1.01,1.94,1.66.43.5.94,1.08,1.01,1.8,0,.86-.65,1.73-.79,2.59-.14.72-.5,1.51-.14,2.09.36.43,1.15.07,1.66.07.72.07,1.44.07,2.16.14.5.07,1.01.5,1.51.36.58-.07,1.01-.5,1.44-.86.36-.36.72-.79.86-1.22.22-.72.07-1.44.14-2.16,0-.5.22-1.08.07-1.58-.07-.5-.65-.94-.72-1.51-.07-.5.14-1.08.22-1.66.14-.65.29-1.37.29-2.09,0-.79-.07-1.58-.36-2.3-.36-.79-.94-1.44-1.51-2.02-.43-.43-1.01-.72-1.58-1.01-.65-.43-1.51-.65-2.09-1.15-.29-.22-.22-.79-.58-.94-.58-.22-1.3.14-2.02,0-.72-.07-1.66,0-2.23-.5-.36-.22-.07-.86-.29-1.22-.36-.72-1.01-1.3-1.51-1.94-.65-.72-1.3-1.37-1.87-2.09-.5-.65-.79-1.44-1.44-1.94-.29-.22-.86,0-1.22-.14-.79-.14-1.44-.5-2.16-.58-1.01-.22-2.02,0-2.95-.29-.5-.14-.79-.72-1.22-1.01-.65-.36-1.3-.72-2.09-.86-.58-.14-1.15,0-1.73.07-.65.14-1.58,0-1.8.5-.22.58.5,1.22.94,1.66.36.43.94.5,1.37.94.43.36.65.94,1.01,1.37.58.65,1.22,1.37,1.87,1.87.79.65,1.87.79,2.45,1.58.5.65.29,1.58.5,2.38.14.58.29,1.15.36,1.8.07.58.5,1.37.14,1.87-.36.58-1.15.86-1.8.79-.58-.07-.94-.72-1.37-1.15-.43-.43-.94-.86-1.15-1.44-.29-.72-.22-1.51-.5-2.23-.22-.65-.58-1.22-1.01-1.8-.58-.79-1.22-1.51-1.87-2.16-.5-.43-1.15-.72-1.66-1.15-.36-.29-.58-.72-.94-1.01-.58-.43-1.22-.79-1.87-1.15-.5-.22-1.08-.5-1.66-.58-1.01-.22-2.16,0-3.17-.29-.79-.22-1.66-.5-2.16-1.15-.36-.5-.58-1.58,0-1.87.65-.36,1.44.5,2.16.72.86.29,1.66.79,2.52.79.65,0,1.3-.36,1.66-.86.29-.43.36-1.08.14-1.58-.29-.58-.86-1.01-1.37-1.51-.65-.5-1.3-1.08-2.09-1.51-.86-.43-1.87-.72-2.88-1.01-1.08-.29-2.16-.5-3.17-.86-.86-.29-1.66-1.01-2.52-1.15-.86-.14-1.8,0-2.66.14-1.08.14-2.09.58-3.17.72-.79.14-1.51,0-2.3,0-.94.07-2.09-.43-2.88.14-.79.58-.43,1.87-.94,2.66-.29.5-.79,1.3-1.37,1.15-.86-.22-1.51-1.15-1.66-2.02-.14-.72,1.01-1.3.86-2.02-.07-.65-.72-1.3-1.37-1.44-.94-.22-1.94.36-2.88.5-1.15.22-2.23.43-3.31.65-.79.22-1.73.14-2.45.65-.58.36-.5,1.44-1.08,1.8-.72.36-1.8-.22-2.45.22-.36.22-.14.94.14,1.3.58.72,1.44,1.01,2.16,1.58.79.72,1.37,1.8,2.23,2.3.86.5,1.94.65,2.95.79.43.07,1.15.29,1.3-.14.14-.58-1.01-1.01-.79-1.51.29-.72,1.15-1.15,1.87-1.15.79,0,1.3.72,1.94,1.15.29.22.36.65.72.72,1.08.22,2.16-.07,3.17,0,.94.07,1.87.14,2.66.5.36.22.94,1.01.5,1.15-1.08.36-2.23-.07-3.38-.07-.79,0-1.66-.22-2.45.07-.43.22-.43,1.08-.86,1.3-.65.36-1.58.65-2.3.36-.58-.22-.5-1.3-1.08-1.51-.86-.29-1.73.29-2.59.29-1.22-.07-2.59,0-3.74-.43-.72-.22-1.08-.94-1.58-1.37-.65-.65-1.37-1.22-2.02-1.87-.36-.36-.5-.94-1.01-1.15-.65-.29-1.44-.36-2.16-.29-1.08.14-2.16.72-3.31.79-.5,0-1.22-.14-1.51-.65-.14-.43.58-.79.65-1.3.07-.43,0-.86-.22-1.22-.36-.58-.86-1.01-1.44-1.44-.5-.36-1.08-.72-1.73-.72-.79-.07-1.51.36-2.3.5-.79.07-1.58.22-2.38.14-.65-.14-1.15-.72-1.8-.79-1.15-.14-2.38,0-3.53.14-.86.07-1.73.5-2.59.65-.43,0-.94-.58-1.22-.29-.5.43-.22,1.3-.65,1.8-.36.36-1.15.22-1.51.65-.5.5-.43,1.3-.86,1.87-.36.43-.79.94-1.3.86-.58,0-.79-.79-1.3-1.01-.79-.29-1.66-.22-2.52-.36-.94-.14-1.94-.36-2.88-.36-1.01-.07-1.94.07-2.95.07-.94.07-1.87-.14-2.74,0-1.01.22-1.94.58-2.66,1.15-.86.65-1.44,1.58-2.16,2.3-.72.65-1.3,1.44-2.16,1.8-.86.29-1.87-.14-2.66.22-.58.29-.43,1.15-.94,1.51-.36.36-1.01.72-1.51.5-.58-.22-.58-1.22-1.15-1.66-.5-.43-1.3-.58-2.02-.72-.65-.22-1.37-.43-2.16-.43-1.08.07-2.23.29-3.24.65-.72.29-1.37.79-1.94,1.3-.36.36-.72.79-.86,1.22-.22.65-.22,1.3-.14,1.94.07.43.22,1.01.65,1.22.79.5,1.73.58,2.66.65.79.07,1.58-.07,2.38-.07,1.01-.07,1.94-.29,2.95-.29.86,0,1.8-.07,2.52.36.36.29.58,1.22.14,1.44-1.01.5-2.3.22-3.46.36-1.08.07-2.16.29-3.24.22-.79,0-1.58-.43-2.3-.58-.72-.22-1.44-.43-2.16-.5-.65-.14-1.3-.5-1.87-.29-.5.22-.72.79-.94,1.3-.22.58,0,1.51-.5,1.87-.58.43-1.44.36-2.16.14-.58-.22-.72-1.08-1.22-1.3-.72-.22-1.58-.14-2.3,0-.79.14-1.44.58-2.16.94-.72.29-1.58.43-2.16,1.01-.43.36-.65,1.01-.72,1.66-.14.58-.14,1.3.22,1.73.43.5,1.44.14,1.8.65.29.5.07,1.3-.43,1.66-.58.5-1.58.72-2.38.65-.72-.14-1.37-.65-1.87-1.15-.5-.43-.58-1.15-1.01-1.51-.36-.29-.86-.29-1.3-.29h0Z"/>
      <path class="cls-2" d="m127.54,100.8c-.58.29-1.37.14-1.87.5-.43.36-.65,1.01-.65,1.51,0,.72.14,1.44.65,1.94.43.43,1.08.65,1.73.72,1.01.14,2.09.36,2.95-.07.5-.29.36-1.08.36-1.66,0-.5-1.01-1.37-.5-1.44.72-.07,1.3.79,1.8,1.3.29.36.14,1.15.58,1.37.79.36,1.73.22,2.59.14.5,0,1.22-.79,1.66-.36.5.58-.29,1.66.07,2.3.43.58,1.22.86,1.94,1.01.36.07,1.15,0,1.15-.43,0-1.01-.65-1.94-1.15-2.74-.72-1.15-1.94-1.87-2.66-2.95-.58-.72-.65-1.8-1.15-2.52-.36-.58-.94-1.01-1.51-1.3-.79-.29-1.58-.22-2.45-.22-.65,0-1.44-.22-1.87.22s.07,1.3-.29,1.8c-.29.43-.86.65-1.37.86h0Z"/>
      <path class="cls-8" d="m130.85,90.29c-.79,0-1.66.07-2.3.5-.65.43-1.51,1.08-1.51,1.94,0,.79.94,1.22,1.37,1.87.5.65.94,1.37,1.51,1.87.58.58,1.3.94,1.94,1.44.58.5,1.22.94,1.8,1.51.65.72,1.15,1.51,1.73,2.3.72.86,1.66,1.58,2.3,2.52.43.65.72,1.44,1.15,2.16.43.72.94,1.44,1.51,2.16.36.43.79.86,1.15,1.37.58.79,1.15,1.66,1.66,2.52.43.79.5,1.73,1.08,2.45.36.36,1.15.22,1.51.58.86.79,1.58,1.66,2.16,2.59.43.5.58,1.15.94,1.73.29.65.65,1.22,1.01,1.8.22.43.36,1.01.72,1.37.43.43,1.3.36,1.51.94.36.58.36,1.44.14,2.16-.14.58-.94.86-1.15,1.51-.14.58-.14,1.3,0,1.87.29.94.79,1.8,1.44,2.52.5.65,1.37.94,2.02,1.44.5.36,1.08.79,1.51,1.37.36.5.58,1.08.86,1.66.36.65.86,1.22,1.01,1.87.36,1.37.36,2.81.43,4.18.07,1.51,0,3.1,0,4.61v4.18c-.07,1.37-.14,2.74-.14,4.18s.07,2.88.14,4.32c0,1.44-.07,2.88,0,4.25.07,1.73.22,3.38.36,5.11.22,3.38.36,6.84.65,10.22.22,3.31.5,6.62.72,9.94.29,4.75.72,9.5.79,14.33.07,4.75-.29,9.58-.29,14.4.07,3.17.72,6.34.5,9.5-.22,4.25-1.44,8.35-1.73,12.53-.36,4.97-.22,10.01-.29,14.98,0,2.52-.07,5.04,0,7.63.07,1.37.58,2.66.5,4.03,0,1.01,0,2.09-.65,2.88-.72,1.01-2.02,1.22-3.02,1.94-.94.72-1.87,1.44-2.74,2.23-.94.94-1.51,2.16-2.59,2.81-1.3.86-2.95.94-4.39,1.51-1.15.5-2.09,1.22-3.17,1.66-1.58.72-3.46.79-4.82,1.8-.65.43-.43,1.58-.79,2.3-.43.86-1.08,1.73-1.73,2.52-.65.65-1.44,1.15-2.02,1.73-.58.5-1.15,1.01-1.44,1.66-.14.43-.14,1.15.29,1.44.65.43,1.58.58,2.38.5,1.08-.14,2.16-.5,3.02-1.01,1.15-.72,1.94-1.87,3.1-2.66.72-.58,1.73-.86,2.52-1.44.94-.72,1.73-1.66,2.66-2.52.94-.86,1.73-2.02,2.88-2.66.65-.36,1.44-.36,2.16-.22.72.07,2.16.22,1.94.86-.5,1.22-2.16,1.66-3.17,2.52-1.01.79-2.09,1.44-2.95,2.45-.72.79-1.51,1.66-1.66,2.74-.22,1.44,0,2.95.65,4.18.36.72,1.3,1.58,2.02,1.3,1.08-.43,1.15-2.02,2.02-2.81,1.01-.86,2.23-1.3,3.31-2.02,1.15-.72,2.09-1.66,3.31-2.3,1.01-.5,2.16-.58,3.17-1.01,1.01-.43,2.02-1.08,3.02-1.51.65-.29,1.51-1.15,2.02-.65.72.72.29,2.02.36,3.1.14,1.15.14,2.3.14,3.53.07,1.22.14,2.52.14,3.82,0,.72-.79,1.8-.14,2.16,1.01.43,2.38-.07,3.17-.79,1.08-.94,1.58-2.38,2.02-3.67.36-.94.07-1.94.14-2.88.14-1.08.22-2.09.5-3.1.14-.5.36-1.3.94-1.37.58-.14,1.08.5,1.58.86,1.15.79,2.3,1.51,3.31,2.45.86.72,1.3,1.94,2.16,2.66.86.65,1.87,1.15,2.95,1.37.86.14,1.8-.58,2.74-.36,1.22.22,2.3.79,3.31,1.51,1.15.79,1.8,2.23,3.02,3.02,1.01.65,2.23.94,3.46,1.01.58.07,1.44.07,1.66-.5.22-.65-.5-1.3-.94-1.8-.94-1.08-2.16-1.87-3.24-2.88-.65-.58-1.22-1.08-1.8-1.66-.43-.36-.86-.86-1.37-1.15-1.22-.65-2.59-.94-3.67-1.73-.65-.43-.86-1.22-1.3-1.8-.58-.65-1.3-1.15-1.8-1.87-.36-.65-.86-1.37-.72-2.09.07-.43.65-1.08,1.15-.86,1.08.5,1.66,1.8,2.66,2.52,1.01.79,2.09,1.51,3.24,1.94,1.01.29,2.16-.07,3.17.22,1.22.36,2.23,1.01,3.31,1.66,1.01.58,1.87,1.37,2.81,2.02.72.5,1.44,1.15,2.23,1.44,1.15.29,2.3.5,3.46.36.72-.07,1.94-.29,2.02-1.01.14-1.01-.86-1.8-1.51-2.52-.86-.94-2.09-1.44-3.02-2.3-.86-.79-1.44-1.73-2.16-2.52-.94-1.01-1.87-2.09-2.95-2.95-1.01-.79-2.23-1.44-3.38-2.16-1.08-.65-2.16-1.3-3.17-2.02-1.37-.86-2.81-1.73-4.03-2.81-1.22-1.01-2.3-2.3-3.31-3.53-.72-.79-1.66-1.51-1.94-2.52-.5-2.02-.22-4.18-.5-6.19-.29-2.74-.72-5.47-1.08-8.28-.5-3.24-1.01-6.55-1.44-9.86-.58-4.39-1.22-8.78-1.51-13.18-.58-9.79-.5-19.58-1.15-29.38-.5-7.56-1.8-15.05-2.23-22.54-.43-6.12-.14-12.17-.29-18.29-.07-3.74-.72-7.49-.5-11.23.07-1.66.79-3.17,1.51-4.61.5-1.08,1.44-1.94,2.16-2.88,1.15-1.51,2.59-2.81,3.53-4.46.72-1.08,1.22-2.38,1.44-3.67.07-.86-.22-1.8-.5-2.66-.29-.58-1.01-.94-1.3-1.51-.36-.58-.79-1.22-.65-1.87.5-1.73,1.44-3.31,2.45-4.82.94-1.58,2.16-2.88,3.24-4.32,1.37-1.8,2.74-3.6,4.1-5.33,1.01-1.3,1.87-2.81,3.17-3.96,1.3-1.08,2.95-1.66,4.39-2.66,1.44-.94,3.67-1.37,4.1-3.02.36-1.58-1.3-3.02-2.3-4.32-.58-.72-1.51-1.22-2.45-1.51-.65-.22-1.44-.07-2.09.14-1.01.36-1.87,1.01-2.66,1.66-.86.58-1.58,1.44-2.45,2.02-.94.65-2.02,1.08-2.88,1.8-1.01.79-1.51,2.3-2.66,2.88-.58.29-1.3-.36-1.66-.86-.58-.79-1.44-1.73-1.15-2.66.29-1.08,1.87-1.37,2.52-2.3.94-1.15,1.22-2.66,2.16-3.82.65-.79,1.94-.94,2.52-1.73.72-1.01,1.01-2.23,1.15-3.46.07-.5.14-1.37-.36-1.66-.94-.36-2.16-.36-3.02.14-1.58.86-2.66,2.38-3.82,3.67-1.08,1.3-1.73,2.81-2.81,4.1-.65.79-1.3,2.16-2.38,2.09-.86,0-1.01-1.44-1.3-2.23-.36-1.15.22-2.52-.5-3.46-.43-.58-1.51-.43-2.3-.22-.58.14-1.15.58-1.37,1.15-.43,1.37-.36,2.81-.36,4.25,0,1.87.36,3.67.36,5.47,0,1.3-.36,2.52-.36,3.82,0,1.8.22,3.53.5,5.33.07.79.43,1.51.65,2.23.22.94.5,1.8.72,2.66.22.79.58,1.66.36,2.45-.14,1.01-.79,1.94-1.37,2.81-.58.86-1.01,2.02-2.02,2.38-.72.29-2.02,0-2.3-.79-.43-1.15.58-2.38.5-3.67,0-1.37-.5-2.74-.72-4.18-.22-.86.07-1.94-.5-2.66-.65-.72-1.87-.65-2.81-1.01-.72-.29-1.8-.14-2.16-.86-.58-1.22-.22-2.74-.22-4.03,0-1.01-.07-2.09.22-3.1.36-1.15.94-2.23,1.51-3.24.79-1.3,1.73-2.52,2.66-3.67,1.08-1.37,2.23-2.59,3.46-3.82.58-.65,1.3-1.22,2.02-1.8.94-.79,2.09-1.3,2.81-2.23.43-.72.65-1.58.58-2.45,0-.65-.36-1.22-.86-1.66-1.08-.86-2.23-1.58-3.53-2.02-1.22-.36-2.52-.79-3.67-.36-.72.22-.79,1.22-1.01,1.87-.29.79-.22,1.73-.43,2.52-.14.94-.14,2.02-.58,2.81-.72,1.08-1.73,1.94-2.66,2.81-1.15.94-2.3,1.87-3.6,2.66-.65.36-1.37,1.01-2.16.86-.94-.22-1.94-.94-2.23-1.87-.5-1.22.07-2.66.07-3.96,0-1.22.22-2.59-.07-3.82-.22-.65-.72-1.15-1.3-1.51-.72-.36-1.66-.36-2.52-.5-.79-.14-1.66-.58-2.45-.22-.86.36-1.58,1.15-2.02,2.02-.5,1.08-.65,2.38-.5,3.53.22,1.01.94,1.8,1.51,2.52.65.79,1.58,1.37,2.3,2.02.79.79,1.8,1.44,2.45,2.3.72,1.08,1.15,2.3,1.58,3.53.36.86.58,1.8.65,2.66.14,1.22.22,2.45,0,3.6-.07.5-.43,1.44-1.01,1.37-1.01-.07-1.94-.94-2.66-1.66-.72-.72-1.08-1.73-1.51-2.66-.72-1.66-1.01-3.53-1.8-5.18-.43-1.01-.94-2.16-1.73-2.88-.58-.58-1.44-.65-2.16-.79-1.08-.29-2.3,0-3.31-.5-1.15-.58-1.87-1.8-2.81-2.66-.72-.72-1.37-1.58-2.23-2.16-.5-.36-1.08-.58-1.66-.65h0Z"/>
      <path class="cls-4" d="m132.58,92.81c-.5-.29-1.01-.86-1.58-.86s-1.15.43-1.3.86c-.22.5.07,1.08.36,1.58.36.5.94.79,1.44,1.22.43.43.86.94,1.37,1.44.72.65,1.51,1.22,2.3,1.87.72.65,1.51,1.3,2.23,2.02.58.58,1.08,1.15,1.51,1.8.65.72,1.22,1.51,1.8,2.23.79,1.01,1.73,1.8,2.45,2.81.43.72.5,1.66,1.01,2.3.79,1.01,1.8,1.87,2.74,2.74.72.72,1.51,1.37,2.16,2.16.5.65.79,1.37,1.15,2.09.36.65.65,1.51,1.15,2.09.36.5,1.01.79,1.51,1.15.36.29.86.5,1.01.94.22.79,0,1.66,0,2.52,0,1.37,0,2.81.14,4.18.07.58.14,1.3.5,1.8.36.43,1.01.5,1.51.72.72.36,1.66.36,2.16,1.01.43.58-.07,1.37.14,2.02.22.94.86,1.73,1.15,2.66.29,1.3.36,2.66.5,3.96.43,3.89,1.08,7.78,1.22,11.66.29,6.7-.22,13.39,0,20.16.29,9.14,1.08,18.29,1.44,27.43.29,8.78.58,17.57.5,26.42-.14,8.14-.86,16.34-1.15,24.55-.14,3.82-.29,7.63-.29,11.38,0,.65.14,1.3.36,1.94.29.58.79,1.08,1.15,1.66,0,0,1.15.86.79,1.58-.36.79-1.01,3.96-1.01,3.96,0,.58.43,1.3,0,1.66-.65.5-1.58.07-2.45.14-.58,0-1.15-.07-1.73.07-.86.29-1.8.65-2.45,1.3-.5.5-.65,1.37-1.01,2.02-.36.72-.5,1.58-1.15,2.02-.5.43-1.22.36-1.87.43-1.15.14-2.45-.14-3.53.22-1.22.43-2.09,1.58-3.17,2.16-1.37.72-2.95.94-4.18,1.8-.5.29-.5,1.08-.79,1.66-.29.58-1.37,1.3-1.01,1.87.36.5,1.22-.43,1.66-.86.72-.79.94-2.02,1.8-2.66.43-.43,1.3-.07,1.87-.29.65-.22,1.15-.79,1.8-1.15.86-.43,1.8-.86,2.74-1.15.86-.14,1.73-.14,2.52-.22.79-.07,1.58-.14,2.3-.14.65,0,1.3.5,1.94.29.65-.29,1.08-1.08,1.58-1.51.5-.43.86-1.37,1.44-1.15.5.14.43,1.15.14,1.66-.72.94-1.94,1.3-2.81,2.16-.72.65-1.3,1.44-1.94,2.23-.43.65-.72,1.44-1.22,2.02-.43.5-1.15.79-1.66,1.15-.72.58-1.51,1.01-2.02,1.66-.5.58-.79,1.3-1.01,2.02-.14.36-.36,1.3,0,1.15.86-.36,1.3-1.37,2.02-2.02.79-.72,1.58-1.37,2.38-2.02,0,0,1.8-1.51,2.52-1.66.79-.14,2.95-1.15,2.95-1.15.86-.29,1.87-.29,2.52-.86.5-.43.43-1.37.79-1.94.36-.65,1.01-1.15,1.51-1.73.58-.72,1.08-1.51,1.66-2.16.36-.43.58-1.15,1.15-1.15.43,0,.79.65.86,1.15.22,1.51-.07,3.02-.14,4.54-.07,1.22-.29,2.38-.36,3.53-.07.94-.22,1.8,0,2.66.07.58.79.86.86,1.44.14.72-.07,1.51-.14,2.23,0,.65-.79,2.16-.22,1.94.79-.29,1.08-1.44,1.22-2.3.29-1.15.07-2.38.14-3.53.14-1.44.29-2.81.43-4.18,0-.86.14-1.8.07-2.66,0-.79-.22-1.51-.22-2.3,0-.86-.14-1.8.22-2.52.29-.43,1.01-.79,1.44-.5.65.36.86,1.3,1.08,2.02.36.94.29,1.87.58,2.81.14.65.29,1.37.58,2.02.36.58.72,1.15,1.3,1.51.72.5,1.73.5,2.38,1.01.65.5,1.01,1.3,1.51,1.94.58.65,1.15,1.3,1.8,1.87.58.43,1.22.79,1.94,1.01.65.22,1.58.72,2.09.29.43-.43-.43-1.08-.72-1.58-.65-.94-1.58-1.73-2.16-2.74-.43-.79-.58-1.66-1.01-2.45-.36-.58-.94-1.08-1.37-1.66-.65-.65-1.3-1.22-1.94-1.87-.72-.72-1.37-1.37-2.16-2.02-.58-.5-1.15-.94-1.73-1.44-.43-.29-1.08-.5-1.3-1.01-.14-.29-.07-.94.22-1.08.65-.36,1.44-.29,2.09,0,1.15.5,1.94,1.73,3.02,2.38.79.5,1.66.65,2.52,1.01.79.36,1.51.79,2.3,1.01.58.14,1.22-.07,1.73.14,1.73.58,3.24,1.51,4.82,2.3.65.29,1.15.79,1.8,1.01.86.29,1.87.79,2.81.5.5-.22-.72-.86-1.15-1.15-1.01-.72-2.09-1.22-3.02-1.94-1.08-.65-2.16-1.44-3.1-2.23-.86-.79-1.58-1.73-2.38-2.52-.72-.72-1.37-1.51-2.16-2.09-.65-.43-1.51-.5-2.16-.86-.79-.43-1.37-1.08-2.16-1.51-.72-.43-1.58-.58-2.3-1.15-.58-.43-1.01-1.08-1.37-1.73-.36-.79-.65-1.58-.72-2.45-.14-1.08-.36-2.3.22-3.17.5-.72,1.66-.36,2.38-.72.72-.36,1.51-.72,1.8-1.44.29-.58.29-1.58-.22-2.02-.86-.65-2.09-.22-3.1-.5-.72-.22-1.58-.5-2.02-1.15-.22-.43.07-1.15.5-1.37.79-.43,1.8-.14,2.66-.36.58-.22,1.44-.22,1.66-.79.36-.79.36-1.87-.14-2.52-.5-.79-1.66-.72-2.52-1.15-.79-.36-1.73-.65-2.3-1.3-.5-.58-.72-1.37-.72-2.16-.07-.72.29-1.44.5-2.16.14-.43.43-.79.65-1.22.29-.65.94-1.3,1.01-2.02.07-1.37-.5-2.59-.5-3.96-.07-1.3.29-2.59.36-3.89.07-.79.36-1.66.14-2.45-.36-1.15-1.01-2.23-1.66-3.31-.58-.86-1.66-1.44-2.16-2.38-.43-.86-.94-1.87-.65-2.81.22-.58,1.3-1.08,1.66-.65.86,1.01.5,2.59,1.15,3.74.36.65.94,1.37,1.66,1.51.43.07.86-.58.86-1.01.22-2.3,0-4.61-.14-6.84-.07-2.88-.22-5.69-.5-8.5-.14-1.8-.43-3.6-.58-5.33-.22-1.87-.14-3.74-.58-5.62-.14-.86-.94-1.44-1.22-2.23-.43-1.15-.72-2.3-.86-3.46-.22-1.3-.07-2.59,0-3.89,0-1.15.14-2.3.36-3.46.14-1.01.58-1.94.65-2.88,0-1.15-.43-2.3-.5-3.46-.36-3.38-.58-6.77-.79-10.15-.14-2.66-.36-5.4-.22-8.06,0-1.3.36-2.52.58-3.67.29-1.37.86-2.74,1.01-4.1.14-1.15-.14-2.23-.22-3.38-.07-.94.36-1.94-.14-2.66-.36-.58-1.44,0-1.87-.5-.43-.5-.65-1.37-.29-1.94.43-.65,1.51-.58,2.16-1.15.79-.58,1.37-1.44,1.94-2.23.22-.43.43-.86.58-1.3.29-.58,1.22-1.37.79-1.87-.5-.58-1.44.22-2.16.36-.72.14-1.44,1.01-2.02.65-.58-.36-.29-1.37,0-1.87.36-.72,1.3-1.01,1.87-1.58.43-.43.79-1.01,1.15-1.51.58-.65.86-1.58,1.66-2.02.79-.43,2.02.14,2.66-.5.5-.43.14-1.37,0-2.02-.14-.79-.29-1.66-.86-2.16-.43-.36-1.08.22-1.58,0-.36-.22-.72-.72-.58-1.15.22-1.01.86-1.8,1.51-2.66.94-1.3,2.09-2.52,3.17-3.82,1.15-1.3,2.45-2.52,3.53-3.89.86-1.08,1.44-2.45,2.38-3.46,1.08-1.08,2.59-1.8,3.67-2.88,1.08-1.08,1.73-2.45,2.66-3.53.5-.58,1.3-.79,1.66-1.44.36-.5,1.01-1.66.43-1.87-.86-.36-1.73.58-2.45,1.15-.86.65-1.22,1.87-2.16,2.52-1.08.79-2.52,1.15-3.67,1.87-.72.5-1.44,1.01-2.02,1.66-.58.65-.72,1.51-1.3,2.16-.5.65-.94,1.73-1.73,1.8-.86,0-1.37-1.08-2.02-1.66-.5-.5-1.01-1.01-1.44-1.51-.43-.58-1.01-1.15-1.37-1.8-.36-.65-.5-1.44-.5-2.16,0-.86.07-1.73.5-2.52.22-.43.79-1.08,1.3-.86.72.22.72,1.66,1.51,1.87.86.29,2.09.07,2.74-.65.5-.5.07-1.44-.22-2.02-.36-.72-1.44-.94-1.66-1.66-.14-.58.29-1.15.65-1.66.65-1.01,1.51-2.02,2.38-2.88,1.01-1.01,2.38-1.58,3.17-2.66.72-.94,1.22-2.02,1.3-3.17,0-.43-.72-.94-1.15-.79-1.3.65-2.23,1.73-3.17,2.81-.79.94-1.22,2.23-2.02,3.17-.86,1.01-1.8,1.94-2.95,2.66-.65.43-1.51.5-2.23.65-.5.07-1.22.36-1.51,0-.58-.72-.36-1.73-.5-2.52-.22-.94-.07-2.09-.65-2.81-.29-.36-.65.72-.65,1.15-.07,1.22.07,2.45.22,3.67.22,1.37.58,2.66.65,4.03.07,1.51-.14,3.02-.14,4.54,0,1.22.07,2.38.14,3.6.07,1.15-.07,2.38.29,3.53.22.72,1.08,1.08,1.37,1.8.36.72.22,1.58.36,2.38.14.72.72,1.44.5,2.16-.22.72-1.08,1.01-1.58,1.51-.65.58-1.3,1.15-1.94,1.8-1.01,1.01-1.94,2.09-3.02,3.02-.86.72-1.8,1.66-2.95,1.87-.72.14-1.66-.29-2.09-.86-.65-.72-.5-1.87-.94-2.81-.36-.79-1.15-1.37-1.37-2.23-.22-.86-.36-2.02.22-2.66.65-.65,1.94.29,2.59-.29.5-.43.22-1.44.22-2.16,0-.5,0-1.15-.36-1.51-.65-.58-1.66-.58-2.45-1.01-.79-.5-1.66-1.08-2.23-1.87-.58-.86-.94-1.8-1.01-2.81-.07-1.01.36-2.02.58-3.02,0,0,.14-1.01.14-1.8s.29-4.03.29-4.03c.07-.58-.07-1.3.22-1.8.58-.86,1.51-1.37,2.3-2.02.86-.79,1.73-1.66,2.66-2.38.86-.79,1.87-1.51,2.81-2.3.65-.65,1.08-1.44,1.73-2.02,1.01-.86,2.45-1.3,3.31-2.3.5-.58.65-1.44.5-2.16-.14-.5-.72-1.01-1.3-1.01-.94,0-1.94.5-2.74,1.01-1.08.65-1.87,1.66-2.81,2.45-.86.65-1.8,1.15-2.52,2.02-.58.58-.58,1.51-1.15,2.16-.72.72-1.66,1.3-2.52,1.87-.94.58-1.87,1.3-2.95,1.51-.72.22-1.58.07-2.23-.22-.79-.36-1.51-.94-1.94-1.66-.43-.79-.5-1.73-.65-2.52-.14-1.15-.29-2.3-.36-3.46-.07-.86.5-1.87,0-2.52-.43-.58-1.44-.29-2.16-.36-.5-.07-1.08-.29-1.51,0-.65.36-1.3,1.08-1.37,1.87-.14,1.01.14,2.16.72,3.02.79,1.08,2.16,1.58,3.1,2.52.43.5.65,1.15,1.01,1.8.5,1.15.86,2.3,1.51,3.46.58.94,1.73,1.66,2.02,2.74.22.86-.5,1.8-.5,2.66-.07,1.3.43,2.52.36,3.82,0,1.01-.43,2.02-.65,3.02-.07.5.14,1.08-.22,1.44-.5.36-1.3.58-1.8.22-.86-.58-1.08-1.73-1.73-2.52-.94-1.08-2.09-1.87-2.81-3.02-.65-1.01-.79-2.23-1.3-3.31-.58-1.3-1.08-2.66-1.73-3.96-.58-1.01-1.01-2.16-1.8-3.02-.5-.58-1.3-.79-2.02-1.01-.94-.29-1.94-.07-2.81-.36-.86-.36-1.73-.86-2.38-1.51-.58-.5-.72-1.37-1.15-1.94-.22-.29-.58-.43-.94-.65h0Z"/>
      <path class="cls-8" d="m109.32,140.62c-.94,0-1.8-.14-2.66-.14s-1.66.29-2.45.29c-.58-.07-1.15-.79-1.73-.5-.65.22-.5,1.22-1.01,1.58-.65.5-1.51.72-2.3.79-.86.07-1.8-.22-2.66-.22-.86-.07-1.73-.43-2.52-.14-.72.22-1.22.86-1.8,1.37-.72.65-1.58,1.22-2.02,2.02-.14.36.5.72.36,1.01-.29.65-.86,1.22-1.51,1.51-.65.36-1.58-.29-2.16.14-.86.72-1.08,1.94-1.66,2.95-.22.43-.43.94-.86,1.22-.29.29-.94-.07-1.15.29-.36.5.07,1.3-.22,1.87-.29.5-.94.65-1.3,1.01-.29.36-.65.72-.79,1.15-.22.86-.29,1.8-.22,2.66.07.79.72,1.51.72,2.3.07.79-.43,1.51-.58,2.23-.22.72-.36,1.37-.43,2.09,0,.36.07.79.29,1.08.22.5.58.86,1.01,1.15.29.22.86-.07,1.01.29.36.79.14,1.66.14,2.52,0,.79.22,1.58-.14,2.3-.36.65-1.3.86-1.8,1.51-.43.58-.72,1.3-.86,2.02-.14,1.08,0,2.23.14,3.31.14,1.15.22,2.38.72,3.38.29.58,1.22.5,1.58,1.01.29.43,0,1.08.22,1.51.22.65.65,1.15,1.01,1.66.36.65.72,1.22,1.15,1.8.29.36.58.72,1.01,1.01.43.29.94.72,1.37.5.5-.29.43-1.01.43-1.51,0-.58-.65-1.22-.43-1.8.22-.43.86-.65,1.3-.5.5.22.65.94,1.01,1.44.36.43.72.79,1.01,1.22.36.58.36,1.37.86,1.8.36.29,1.08-.22,1.44.14s.36,1.01.22,1.51c-.07.36-1.01.29-.86.65.43.65,1.44.79,2.02,1.37.72.72,1.3,1.51,1.8,2.38.43.79.65,1.73,1.01,2.59.29.58.86,1.08,1.01,1.73.22.94.29,1.87.14,2.81-.14.94-.65,1.87-1.01,2.81-.5,1.15-1.08,2.23-1.51,3.38-.29.65-.36,1.3-.65,1.94-.29.58-.65,1.08-1.01,1.58-.72,1.01-1.66,1.8-2.3,2.81-.72,1.15-1.08,2.45-1.66,3.67-1.22,2.45-2.38,4.9-3.82,7.2-1.3,2.16-2.81,4.25-4.25,6.26-.86,1.15-1.94,2.16-2.81,3.24-.58.72-.94,1.66-1.66,2.16-.65.5-1.37.86-2.16.94-1.01,0-2.02-.29-2.88-.79-1.01-.5-1.8-1.3-2.45-2.16-.94-1.15-1.94-2.45-2.3-3.89-.43-1.8-.14-3.74,0-5.62.29-2.74.72-5.4,1.15-8.06.29-1.87.65-3.67,1.01-5.47.86-3.82,1.87-7.56,2.81-11.3,1.08-4.03,2.59-7.99,3.31-12.17.58-3.24.79-6.62.65-10.01-.14-2.45-.72-4.97-1.58-7.34-.58-1.73-1.58-3.38-2.74-4.82-1.15-1.37-2.45-2.88-4.18-3.38-2.38-.79-5.11-1.01-7.49-.29-1.73.5-2.59,2.52-3.96,3.67-1.51,1.37-2.95,2.81-4.54,4.1-1.08.86-2.38,1.51-3.46,2.38-.94.79-1.94,1.66-2.74,2.66-.79,1.01-1.3,2.16-1.8,3.31-.43,1.01-1.01,2.02-1.15,3.17-.07.94.14,1.87.5,2.81.36.79,1.3,1.37,1.51,2.23.36,1.3.07,2.74,0,4.1,0,1.08,0,2.23-.22,3.38-.22,1.22-1.01,2.3-1.01,3.53,0,.94-.07,2.66.86,2.66,1.3,0,1.8-1.8,2.81-2.66,1.15-.94,2.45-1.8,3.67-2.74,1.73-1.37,3.67-2.52,5.18-4.1,1.08-1.08,1.94-2.45,2.38-3.89.5-1.51.5-3.17.5-4.68.07-1.37.14-2.74-.07-4.1-.22-1.01-1.08-1.87-1.01-2.88,0-.86.58-1.73,1.08-2.45.79-.94,1.73-1.73,2.66-2.38.72-.5,1.58-1.01,2.45-1.01.94,0,1.94.29,2.66.86.86.79,1.44,1.87,1.87,2.95.5,1.3.72,2.74.94,4.18.22,2.16.43,4.32.22,6.48-.29,3.02-1.01,5.98-1.8,8.93-1.22,4.68-3.02,9.22-4.25,13.82-1.3,4.68-2.74,9.43-3.46,14.18-.5,3.38-.58,6.91-.14,10.3.29,2.02,1.08,4.1,2.16,5.83,1.08,1.73,2.74,3.02,4.32,4.32,1.15.94,2.52,1.66,3.96,2.16,1.3.43,2.74.36,4.18.5.79.07,1.66-.29,2.38,0,.36.07.36.72.65,1.01.72.79,1.58,1.44,2.3,2.23.94,1.08,1.66,2.38,2.74,3.31,1.08.94,2.3,1.51,3.46,2.3.72.5,1.51,1.01,2.3,1.51.65.5,1.8.72,2.02,1.51.22,1.01-.65,1.94-.94,2.95-.29,1.3-.14,2.88-.86,4.03-1.01,1.66-3.02,2.59-4.18,4.18-.86,1.22-1.73,2.59-1.87,4.03-.22,1.44.29,2.88.86,4.18.36.94,1.08,1.73,1.8,2.45.86.86,1.8,1.8,2.88,2.38,1.37.72,2.95.72,4.32,1.44.65.29.72,1.37,1.37,1.58,1.08.43,2.23,0,3.31,0,2.74.07,5.4-.14,8.14.14,1.15.14,2.23.94,3.38,1.15,1.58.29,3.24.22,4.82.29,1.51,0,2.95.36,4.46.07,1.01-.14,2.02-.58,2.88-1.22.79-.65,1.44-1.51,1.8-2.45.43-1.15.65-2.45.5-3.67-.14-.79-.79-1.44-1.44-2.02-.86-.79-1.8-1.58-2.88-2.02-.86-.36-1.8-.36-2.66-.36-1.37-.07-2.81-.07-4.18,0-1.22.07-2.45.36-3.67.36-1.58,0-3.24,0-4.82-.29-.86-.07-1.8-.22-2.52-.72-.79-.5-1.58-1.22-1.94-2.16-.22-.65.22-1.44.5-2.02.5-.79,1.15-1.37,1.8-2.02,1.44-1.51,3.02-2.88,4.32-4.46.86-1.08,1.44-2.38,2.16-3.53.43-.72,1.01-1.37,1.22-2.16.29-.72-.07-1.58.14-2.3.22-.58.5-1.22,1.01-1.51.65-.29,1.51-.36,2.16,0,.58.29,1.01,1.01.86,1.66-.22,1.22-1.15,2.16-1.87,3.17-.65.86-1.66,1.37-2.16,2.3-.5.86-.94,2.02-.65,3.02.43,1.3,1.51,2.38,2.59,3.31,1.15,1.08,2.59,1.73,3.89,2.66,1.58,1.15,2.95,2.66,4.68,3.67,1.3.72,2.74,1.08,4.18,1.37,1.3.22,2.59-.07,3.82,0,1.37.07,2.74,0,4.03.22.94.22,1.8.79,2.66.94,1.44.22,2.81.14,4.18.14,1.15-.07,2.45.07,3.46-.43,1.01-.43,1.66-1.44,2.3-2.38.5-.86.94-1.8,1.01-2.81,0-.94-.29-2.02-.94-2.81-.65-.79-1.87-1.01-2.74-1.58-.86-.58-1.51-1.37-2.3-1.94-.58-.36-1.08-.86-1.8-1.01-.79-.14-1.58.07-2.38.14-1.08.14-2.16.43-3.31.5-1.58.07-3.31.22-4.82-.29-1.37-.43-2.59-1.44-3.67-2.52-.72-.72-1.37-1.73-1.37-2.81,0-.94.72-1.73,1.22-2.52,1.08-1.37,2.38-2.45,3.46-3.82,1.01-1.22,2.23-2.45,2.88-3.89.58-1.15.86-2.45.79-3.67-.07-1.37-.43-2.81-1.15-3.96-.94-1.44-2.45-2.38-3.67-3.67-1.22-1.22-2.23-2.59-3.53-3.82-.86-.72-2.16-1.08-2.81-2.02-.36-.43-.14-1.22.14-1.73,1.01-1.8,2.66-3.17,3.67-4.97,1.87-3.31,3.24-6.84,4.97-10.3,1.66-3.38,3.53-6.7,5.33-10.08.65-1.37,1.15-2.81,1.87-4.1.72-1.15,1.44-2.38,2.38-3.38.72-.79,1.8-1.22,2.59-2.02.86-1.01,1.51-2.16,2.38-3.17.65-.79,1.3-1.58,2.02-2.3.5-.43,1.01-1.08,1.66-1.15.58,0,1.01.72,1.51.94.65.22,1.37.65,2.02.5.79-.29,1.22-1.15,1.8-1.66.65-.65,1.22-1.37,2.02-1.8.94-.43,2.09-.22,2.95-.79.86-.5,1.58-1.44,2.23-2.23.72-.86,1.44-1.66,1.8-2.66.43-1.22.58-2.52.65-3.82,0-1.08.22-2.23-.29-3.17-.5-1.01-1.58-1.66-2.38-2.38-.72-.72-1.3-1.51-2.16-1.94-.65-.29-1.44-.43-2.16-.22-.86.22-1.58.79-2.16,1.37-.58.58-.86,1.37-1.3,2.02-.58,1.01-1.01,2.16-1.87,2.95-.5.43-1.3.5-1.87.36-.43-.07-.72-.58-.79-1.01-.07-.72,0-1.44.36-2.02.58-.94,1.44-1.58,2.16-2.3,1.01-1.01,2.16-1.87,3.17-2.88.65-.72,1.15-1.58,1.8-2.3.5-.58,1.08-1.15,1.73-1.51.79-.36,1.66-.43,2.45-.65.79-.22,2.02,0,2.38-.79.58-1.08,0-2.52-.07-3.74-.14-1.37.14-2.88-.43-4.1-.43-.94-1.66-1.3-2.38-2.02-.79-.72-1.58-1.51-2.3-2.38-.58-.79-.65-1.87-1.37-2.45-.79-.58-1.8-1.15-2.81-1.01-.79.14-1.15,1.08-1.66,1.66-.65.72-1.37,1.44-1.73,2.3-.36.72-.36,1.58-.43,2.38,0,.58.07,1.22,0,1.8-.14,1.3-.22,2.66-.72,3.89-.5,1.22-1.37,2.3-2.16,3.31-1.15,1.51-2.23,2.95-3.53,4.32-1.15,1.15-2.52,2.02-3.67,3.17-1.08,1.01-1.73,2.38-2.95,3.17-1.44.94-3.24,1.22-4.97,1.8-.86.29-1.8.58-2.74.58-1.08,0-2.23-.14-3.17-.58-.72-.36-1.15-1.15-1.51-1.8-.36-.58-.94-1.3-.65-1.87.22-.58,1.08-.65,1.66-.5,1.22.22,2.3,1.15,3.53,1.51.79.22,1.66,0,2.52,0,.94-.07,2.02.29,2.66-.29.86-.72,1.15-2.02,1.37-3.17.22-.94.07-1.94-.07-2.88-.22-1.01-.29-2.09-.94-2.81-.5-.65-1.44-.86-2.23-1.01-.94-.14-1.87.36-2.81.22-.86-.07-2.38,0-2.52-.86-.14-.94,1.22-1.51,2.02-2.16.36-.29.86-.65,1.37-.65.86.14,1.73.5,2.45,1.01.94.72,1.66,1.58,2.38,2.45.5.5.58,1.66,1.3,1.66.94-.07,1.37-1.22,2.02-1.94.79-.79,1.94-1.51,2.16-2.66.14-.72-.79-1.22-1.3-1.73-.5-.5-1.22-.79-1.73-1.3-1.01-.86-2.02-1.8-2.81-2.88-.5-.65-.5-1.58-1.01-2.16-.72-.79-1.73-1.37-2.66-1.94-.94-.5-1.87-1.01-2.81-1.51-1.01-.58-2.45-.72-3.02-1.73-.36-.65.72-1.37.72-2.09.07-.86.07-1.94-.58-2.52-.58-.43-1.37.36-2.02.5-.65.14-1.22.5-1.8.43-.58-.14-1.08-.5-1.51-.94-.72-.72-1.08-1.8-1.94-2.38-.65-.5-1.58-.72-2.38-.5-.72.14-.94,1.22-1.66,1.51-.72.29-1.58,0-2.38,0h0Z"/>
      <path class="cls-7" d="m101.4,144.14c-.86,0-1.87-.14-2.52.36-.43.43-.22,1.3-.22,1.94,0,.58.22,1.15.22,1.73.07.5.22,1.01,0,1.44-.14.43-.86.65-1.01,1.15-.14.43-.14,1.15.29,1.37.65.36,1.51,0,2.23-.14.43-.07.79-.36,1.15-.36.58-.07,1.3-.14,1.8.14.43.22,1.08.79.86,1.22-.22.65-1.3.58-1.73,1.01-.5.5-.58,1.22-1.01,1.66-.43.43-.94.72-1.44.94-.65.22-1.37.36-2.02.22-.65-.07-1.15-.43-1.66-.86-.72-.65-.86-2.3-1.8-2.16-.79.07-.14,1.58-.07,2.38,0,.72.22,1.37.36,2.09.14.5.14,1.08.5,1.51.5.58,1.15,1.15,1.87,1.37.86.22,1.8.22,2.59-.14.36-.14.14-.86.36-1.22.14-.36.43-.72.72-.79.65-.14,1.3,0,1.94.14.58.14,1.08.36,1.51.72.43.43.72,1.01.79,1.58,0,.5-.58.86-.65,1.37-.14.43.22,1.01,0,1.37-.29.43-.79.72-1.3.65-.43-.07-.72-.5-1.01-.86-.36-.5-.36-1.37-.86-1.66-.5-.29-1.3-.29-1.8,0-.36.22-.43.79-.5,1.22-.07.72.14,1.37.29,2.09.14,1.22.22,2.52.5,3.74.14.72.43,1.44.72,2.09.36.65,1.08,1.15,1.3,1.87.22.72,0,1.51-.14,2.3-.14.86-.36,1.66-.65,2.52-.07.29-.14.94-.5.86-.58-.07-1.01-.65-1.22-1.15-.36-.72-.29-1.58-.43-2.38-.07-.79-.29-1.58-.36-2.45-.07-1.15,0-2.3,0-3.53,0-.86.07-1.8,0-2.66-.07-.58-.07-1.22-.36-1.73-.36-.58-.86-1.08-1.44-1.44-.43-.29-.94-.5-1.51-.5-.29,0-.5.43-.86.5-.43.07-.94.14-1.3-.14s-.43-.86-.58-1.37c-.22-.5-.29-1.08-.29-1.66,0-.72-.07-1.51.14-2.23.14-.79.79-1.37,1.01-2.09.22-.65,0-1.44.22-2.16.14-.43.36-.94.79-1.08.65-.29,1.51.29,2.02-.14.36-.29-.14-1.01-.5-1.15-.72-.29-1.66.14-2.38-.14-.5-.14-.65-.86-1.01-1.15-.5-.29-1.08-.65-1.66-.58-.72,0-1.3.43-1.94.72-1.01.58-2.16,1.15-3.02,1.94-.72.58-1.22,1.37-1.66,2.23-.36.86-.36,1.87-.65,2.81-.14.65-.36,1.3-.58,1.87-.29.5-.79.86-.94,1.44-.14.79.22,1.58.29,2.38,0,1.01-.22,1.94,0,2.95.07.5.36,1.01.72,1.37.29.22.79-.14,1.01.14.5.5.79,1.3.94,2.02.14.72,0,1.51-.14,2.3-.07.36-.43.72-.5,1.08-.14.72.14,1.51-.14,2.16-.22.65-.86,1.01-1.22,1.51-.29.36-.58.72-.65,1.15-.14.72-.07,1.44,0,2.16,0,.79.07,1.58.22,2.3.14.43.36.79.65,1.15.43.43.86.86,1.37,1.15.36.14.86.36,1.15.07.43-.29.5-1.01.65-1.51s-.07-1.3.36-1.51c.5-.14.72.65,1.01,1.01.43.43.94.86,1.15,1.44.22.58-.07,1.3.14,1.87.22.72.65,1.3,1.15,1.87.36.5.86.94,1.37,1.3s1.08.72,1.66.86c.43.14,1.08.5,1.37.14.43-.43,0-1.15,0-1.8.07-.65.22-1.3.29-2.02.07-.5.22-1.01.14-1.51-.14-.72-.43-1.51-.94-2.16-.36-.5-1.01-.79-1.51-1.22-.5-.5-1.01-1.08-1.51-1.58-.29-.29-.5-.58-.86-.86-.36-.22-.94-.29-1.15-.65-.36-.5-.43-1.15-.5-1.73-.07-.72.14-1.44.29-2.16.07-.79.29-1.58.36-2.45.07-.65-.22-1.37,0-2.02.14-.5.58-1.15,1.15-1.22.58-.14,1.08.43,1.66.72.43.22,1.15.29,1.37.79.29.58.07,1.37,0,2.02-.14.79-.65,1.58-.79,2.38-.07.86.14,1.73.14,2.52,0,.72-.14,1.37,0,2.09.07.5.22,1.08.65,1.37.58.36,1.37.07,2.02.36.5.29.72.79,1.15,1.15.58.5,1.15.94,1.8,1.37.5.43,1.01.86,1.58,1.08.94.22,1.94.36,2.81.07.65-.22,1.08-.86,1.37-1.51.29-.5-.07-1.22.14-1.73.29-.58.86-.86,1.3-1.3.43-.5.79-.94,1.15-1.51.22-.5.29-2.02.5-1.51.29.86.07,1.94,0,2.88-.07.86-.36,1.58-.5,2.45-.14.58-.5,1.22-.43,1.87.14.79.43,1.58.94,2.16.58.65,1.51.86,2.23,1.37.36.29.43,1.01.79.94.5-.14.58-.94.86-1.3.43-.5,1.08-.79,1.44-1.37.29-.58.36-1.22.36-1.8,0-.65-.36-1.3-.5-1.87-.22-.79-1.3-2.3-.5-2.3.94,0,1.08,1.51,1.66,2.3.36.58.72,1.22,1.15,1.87.29.58.5,1.22,1.01,1.66.22.22.72-.14,1.01,0,.58.29.79,1.08,1.37,1.37.43.29,1.15.5,1.51.14.43-.43.07-1.22.29-1.8.22-.5.5-1.01,1.01-1.37.65-.5,1.37-.86,2.16-1.01.5-.07,1.15.07,1.66.36.43.36.36,1.22.86,1.51.58.43,1.44.79,2.02.43.5-.36,0-1.37.29-1.94.14-.36.72-.43,1.01-.72.22-.22.36-.5.5-.79.22-.43,0-1.15.5-1.37s1.08.14,1.51.5c.5.43.72,1.15.86,1.73.14.58-.14,1.22,0,1.8.14.43.5.79.86.86.5.14,1.01.14,1.44-.07.58-.36.94-1.01,1.37-1.51.43-.58.65-1.22,1.15-1.66.43-.43,1.15-.36,1.66-.65.43-.29.79-.79,1.3-1.01.36-.22.86-.36,1.37-.43.5,0,1.01.22,1.51,0,.36-.07.58-.5.65-.86.14-.72,0-1.44,0-2.16-.07-.72-.43-1.44-.29-2.16.14-.43.72-.58,1.01-.86.43-.36,1.01-.65,1.3-1.15.58-.86.72-1.94,1.3-2.81.29-.5.94-.79,1.37-1.22.58-.58,1.08-1.08,1.66-1.66.5-.5,1.01-1.08,1.51-1.66.43-.43.86-.94,1.22-1.37.43-.5.65-1.15,1.15-1.51.43-.29,1.01-.22,1.51-.29.5,0,1.08.22,1.58,0,.36-.14.58-.5.72-.86.29-.5.43-1.08.5-1.66.07-.65.14-1.3,0-1.87-.07-.58-.43-1.01-.72-1.44-.58-.79-1.08-1.58-1.66-2.3-.43-.43-1.01-.65-1.44-1.08-.43-.58-.72-1.15-1.01-1.8-.22-.5-.07-1.15-.36-1.66-.22-.36-.72-.5-1.15-.65-.29-.07-.65-.07-.86.14-.43.36-.65.94-.86,1.37-.29.65-.29,1.37-.65,1.94-.29.5-1.01.65-1.3,1.15-.22.36-.36,1.15,0,1.37.58.36,1.37-.14,2.02-.14.58.07,1.22-.07,1.66.29.5.36.5,1.15.86,1.66.29.22.86.07,1.08.36.29.58.79,1.44.36,1.87-.5.5-1.37-.22-2.02-.22s-1.22.5-1.8.36c-.36-.07-.22-.94-.65-1.01-.58-.07-1.22.22-1.66.65-.58.58-.94,1.44-1.37,2.16-.43.72-.86,1.51-1.3,2.23-.5,1.08-.79,2.23-1.51,3.17-.65.94-1.66,1.51-2.38,2.45-.58.65-.72,1.58-1.3,2.3-.86,1.01-1.87,1.87-2.88,2.74-.5.5-1.08.94-1.66,1.3-.79.5-1.58.94-2.45,1.22-.5.22-1.15.22-1.73.29-.72.07-1.44-.36-2.02,0-.43.22-.14.94-.14,1.37,0,.65.14,1.3,0,1.94-.07.22-.36.58-.65.5-.5-.14-.86-.72-1.22-1.01-.43-.29-.79-.58-1.15-.94-.43-.36-.72-.86-1.15-1.22-.43-.29-.86-.58-1.44-.65-.94-.14-1.94.14-2.88,0-.72-.14-1.37-.43-1.87-.86-.58-.43-.58-1.3-1.15-1.66-.65-.43-1.58-.22-2.3-.5-.5-.22-.86-.65-1.22-1.01-.5-.58-.86-1.22-1.3-1.8-.29-.43-.5-1.01-.86-1.37-.29-.29-.58-.5-.94-.5-.72-.07-1.44.29-2.16.36-.58.07-1.22.29-1.73,0-.58-.29-.79-1.01-1.01-1.51-.29-.5-.43-1.08-.5-1.66-.07-.36-.22-.79,0-1.15.14-.36.58-.58,1.01-.72.65-.29,1.3-.43,2.02-.43.65.07,1.44,0,1.87.5.43.5.14,1.37.29,2.02.07.58.07,1.08.36,1.58.29.43.79.72,1.3,1.01.43.29.94.58,1.51.58.43,0,.94-.29,1.22-.58.29-.29.14-1.3.5-1.15.58.14.29,1.08.65,1.51.29.29.79.29,1.15.36.65.22,1.22.5,1.87.5.36,0,.65-.22.79-.5.14-.36-.43-.94-.14-1.15.43-.29,1.08,0,1.51.14.58.22,1.01.65,1.51.86.65.29,1.37.5,2.09.65.79.14,1.58.22,2.38.29.79,0,1.66.22,2.38,0,.5-.14.79-.72.94-1.15.14-.58,0-1.22-.14-1.8-.14-.5-.43-.86-.65-1.37-.14-.5.07-1.3-.36-1.51-.58-.36-1.3.07-1.87.22-.5.14-.94.65-1.44.79-.58.14-1.3.36-1.87.22-.72-.14-1.44-.5-1.8-1.08-.29-.5,0-1.22,0-1.8,0-.79-.22-1.66,0-2.45.14-.5.72-.79,1.15-1.08.58-.43,1.15-.72,1.8-.94.65-.14,1.3-.22,2.02-.22.65,0,1.22.14,1.87.22.72.14,1.37.43,2.02.29.58-.14,1.08-.5,1.3-1.01.29-.72.22-1.51.14-2.3-.07-.36-.22-.79-.5-.86-.72-.29-1.51.14-2.16-.14-.36-.14-.43-.72-.5-1.15-.22-.5,0-1.3-.43-1.66-.43-.36-1.3,0-1.87-.22-.43-.14-.79-.5-1.15-.79-.5-.36-1.01-.72-1.37-1.22-.29-.36-.14-1.01-.5-1.3-.5-.36-1.22-.29-1.8-.36-.65-.14-1.3-.14-1.87-.29-.43-.07-.86-.36-1.3-.5-.43-.14-1.01-.86-1.37-.5-.43.43-.07,1.22.14,1.8.07.36.29.72.58,1.01.5.43,1.37.43,1.51,1.01.22.65-.36,1.3-.58,1.87-.29.58-.43,1.15-.94,1.51-.43.43-1.08.72-1.73.79-.72.07-1.51-.22-2.16-.5-.72-.29-1.44-.72-2.02-1.3-.5-.43-1.01-1.08-1.15-1.73-.14-.5,0-1.01.22-1.44.29-.43.72-.86,1.15-1.08.65-.43,1.37-.58,2.02-.79.5-.22,1.08-.22,1.51-.5.36-.22.86-.5.94-.86,0-.43-.5-.65-.79-.94-.36-.29-.79-.65-1.22-.86-.36-.14-.65-.36-1.01-.36-.58-.07-1.15-.22-1.66,0-.36.07-.43.5-.65.72-.43.43-.65,1.22-1.3,1.3-.58,0-.86-.72-1.22-1.15-.29-.29-.43-.79-.79-.86-.65-.22-1.37-.07-2.02.07-.36.14-.65.43-.79.79-.22.65.14,1.44-.22,2.02-.22.29-.79.14-1.01-.14-.5-.36-.65-1.08-1.01-1.58-.22-.36-.43-.72-.79-.94-.58-.29-1.22-.5-1.8-.5h0Z"/>
      <path class="cls-7" d="m96.22,144.5c-.14-.29-.5-.58-.86-.5-.72.29-1.3.94-1.87,1.44-.58.43-1.37.65-1.66,1.22-.22.5-.14,1.22.22,1.51.58.5,1.37.36,2.02.43.58.07,1.15-.07,1.66,0,.58,0,1.3.5,1.66.14.36-.43-.29-1.08-.5-1.58-.14-.5-.36-.94-.5-1.51-.07-.36.07-.79-.14-1.15h0Z"/>
      <path class="cls-7" d="m97.87,191.52c-.43,0-.86-.14-1.22-.22-.36-.07-.72-.5-.94-.29-.29.43-.22,1.01-.07,1.51.07.65.29,1.22.58,1.66.43.65,1.15.94,1.51,1.51.36.58.36,1.22.65,1.8.29.5.86.86,1.15,1.37.43.79.65,1.58.86,2.45.22.72.36,1.44.43,2.16.07.94.14,1.87,0,2.74-.14.94-.58,1.73-.94,2.59-.43,1.15-.94,2.3-1.51,3.38-.79,1.58-1.66,3.24-2.66,4.68-.79,1.22-2.02,2.09-2.74,3.31-.58.86-.86,1.8-1.01,2.81-.29,1.08-.14,2.16-.29,3.31-.22,1.44-.36,2.95-.79,4.39-.29,1.15-1.08,2.09-1.37,3.17-.22.79-.07,1.73-.14,2.52-.07,1.37-.36,2.66-.5,3.96-.14,1.3.22,2.74-.36,3.89-.22.43-1.01-.07-1.3-.5-.65-1.01-.86-2.3-1.22-3.53-.22-.72,0-1.66-.5-2.16-.5-.43-1.3-.14-1.94,0-.65.14-1.37.43-1.87.94-.86.65-1.73,1.44-2.16,2.52-.29.72.07,1.58.14,2.38.14,1.44.07,2.95.65,4.32.29.79,1.15,1.15,1.73,1.8,1.01.94,1.87,2.02,2.95,2.88.72.65,1.51,1.15,2.38,1.51.58.22,1.22.29,1.8.14.5-.14.86-.86,1.37-1.01.65-.22,1.58-.65,2.02-.14.58.72-.07,1.8,0,2.66.07.72.22,1.44.43,2.16.22,1.01.86,1.87,1.01,2.95.07.86-.14,1.87-.43,2.74-.22,1.08-.5,2.23-1.08,3.17-.58.86-1.66,1.22-2.16,2.02-.65.94-1.01,2.02-1.3,3.1-.22.86.07,1.8-.14,2.66-.07.5-.43,1.51-.86,1.22-.79-.43-.5-1.94-1.3-2.38-.36-.29-.79.65-.86,1.15-.14.58,0,1.22.29,1.73.36.94.86,1.8,1.51,2.52.5.65,1.15,1.3,1.87,1.66.79.43,1.87.36,2.66.79.86.43,1.3,1.44,2.16,1.87.86.5,1.94.58,2.88.79,1.01.14,1.94.29,2.95.36.94.14,1.87.22,2.81.29,1.01,0,2.02-.07,3.02-.14.86-.07,1.66-.36,2.52-.29.65.07,1.22.65,1.87.79,1.37.22,2.74.07,4.1.14.65,0,1.37.22,2.02,0,.29-.14.29-.58.36-.94.22-.58-.07-1.44.43-1.73.29-.29.58.58.72,1.01.14.5-.29,1.3.14,1.66.43.36,1.15.14,1.66-.14.5-.29.65-.94,1.01-1.37.36-.43,1.01-.65,1.15-1.15.07-.79-.22-1.58-.65-2.16-.58-.72-1.3-1.37-2.16-1.66-.94-.36-1.94-.14-2.95-.14-.5,0-1.08.29-1.58.29-.86-.07-1.66-.36-2.45-.43-.65,0-1.37-.07-2.02,0-.94.14-1.8.79-2.81.79s-1.94-.36-2.88-.79c-.86-.36-1.44-1.15-2.3-1.51-.79-.29-1.66-.29-2.52-.36-1.08-.07-2.3.43-3.31,0-.65-.29-1.08-1.3-1.01-2.02.14-1.01,1.01-1.8,1.51-2.66.72-1.22,1.22-2.45,2.02-3.53.5-.72,1.3-1.22,1.94-1.8.86-.86,1.8-1.66,2.66-2.52.86-.94,1.8-1.73,2.52-2.81.5-.72.58-1.73.86-2.52.36-.94.94-1.8,1.15-2.81.14-.79,0-1.73-.14-2.52-.22-1.22-.72-2.45-1.01-3.67-.22-.86-.43-1.8-.5-2.66-.07-.94,0-1.87,0-2.81,0-1.15-.07-2.23-.14-3.38,0-.94-.29-1.8-.22-2.66,0-.72.22-1.44.5-2.02.29-.79.86-1.44,1.3-2.16.43-.94.79-1.87,1.22-2.81.29-.65.36-2.02,1.01-1.8.72.29.14,1.44,0,2.16-.14,1.08-.58,2.02-.72,3.02-.14.79-.07,1.66,0,2.45,0,.5-.07,1.22.36,1.37.43.22.86-.43,1.3-.72.65-.58,1.15-1.3,1.73-1.94,1.37-1.51,2.74-2.88,3.96-4.54,1.22-1.8,2.09-3.82,3.38-5.54,1.08-1.51,2.74-2.52,3.67-4.1.65-1.01.58-2.38.79-3.53.14-1.01.43-1.94.5-2.95.07-1.01.14-2.02,0-3.02-.14-.79-.5-1.58-1.01-2.23-.58-.79-1.3-1.37-2.02-1.94-.79-.5-1.73-.72-2.45-1.22-.58-.43-.94-1.01-1.37-1.58-.29-.36-.36-1.01-.79-1.08-.94-.29-2.02.07-3.02,0-.79-.07-1.66-.14-2.3-.5-.5-.36-.65-1.01-.86-1.58-.29-.65-.36-1.37-.79-2.02-.36-.58-1.08-.94-1.58-1.51s-.94-1.15-1.44-1.73c-.43-.58-2.02-1.37-1.37-1.66.79-.43,1.66.65,2.38,1.08.72.43,1.3.94,1.94,1.44.79.65,1.44,1.37,2.23,2.02.79.65,1.51,1.44,2.45,1.8.79.29,1.8.07,2.66,0,.58-.07,1.22-.86,1.73-.5.86.5.86,1.73,1.44,2.52.5.65.94,1.51,1.73,1.73.79.22,1.66-.22,2.3-.58.5-.36.43-1.37,1.01-1.44.79-.07,1.87.22,2.3.94.36.5-.79,1.3-.5,1.87.22.43,1.01.29,1.37,0,.65-.43.86-1.15,1.3-1.8.58-.94,1.15-1.87,1.66-2.88.36-.79.43-1.87,1.01-2.52.5-.65,1.37-.94,2.16-1.3.65-.36,1.37-.43,2.02-.86.79-.58,1.51-1.3,2.16-2.02.65-.86,1.01-1.87,1.66-2.66.58-.86,1.3-1.66,2.16-2.3.65-.58,1.37-1.22,2.23-1.51.86-.29,1.87-.14,2.81-.29.72-.07,1.58.07,2.3-.22.65-.29,1.15-.79,1.73-1.3.79-.58,1.37-1.37,2.16-1.87.86-.58,1.8-.86,2.66-1.3.65-.29,1.44-.5,1.87-1.01.5-.5.72-1.3.94-2.02.22-.94.36-1.87.36-2.81,0-.58-.14-1.22-.5-1.73-.43-.65-1.15-1.08-1.8-1.58-.58-.43-1.15-.94-1.87-1.08-.79-.22-1.73-.29-2.52,0-.72.22-1.37.65-1.8,1.22-.5.72-.58,1.66-.72,2.52-.14.72,0,1.37-.14,2.09-.22.72-.36,1.51-.86,2.16-.29.29-.86.22-1.3.22-.58,0-1.08-.36-1.66-.36-.79-.07-1.66-.29-2.38,0-.72.22-1.22.79-1.66,1.37-.43.5-.36,1.44-.94,1.8-.58.36-1.44-.07-2.09.14-.5.07-.94.43-1.3.72-.43.36-.72.79-1.15,1.15-.36.29-.86.5-1.3.72-.65.43-1.22,1.01-2.02,1.3-.72.29-1.51,0-2.23.29-.58.22-.79,1.08-1.44,1.08-.79.07-1.51-.58-2.23-.86-.72-.29-1.37-.72-2.09-.86-.58-.14-1.22-.29-1.73,0-.58.22-.94.86-1.3,1.37-.65.94-1.01,2.09-1.73,2.95-.58.58-1.37,1.01-2.16,1.22-.58.14-1.3.07-1.8-.22-.29-.22-.22-.79-.22-1.15-.14-.72,0-1.44-.14-2.16-.07-.43-.14-1.01-.5-1.3-.5-.29-1.22-.22-1.8-.22s-1.22-.14-1.66.22c-.72.65-.65,1.94-1.37,2.59-.5.36-1.3.29-1.94.36-.72,0-1.58.29-2.23-.14-.5-.29-.14-1.15-.43-1.66-.14-.43-.43-1.01-.86-1.22-.58-.36-1.37-.22-2.02-.43-.58-.14-1.08-.72-1.66-.58-.43.07-.65.65-.86,1.08-.36.72-.29,1.66-.79,2.3-.36.5-1.15.58-1.73.79-.5.07-.94.14-1.44.07h0Z"/>
      <path class="cls-7" d="m119.18,234.72c-.43-.14-.79-.72-1.3-.58-.72.14-1.22.86-1.73,1.37-.5.5-.86,1.08-1.3,1.66-.43.58-1.08,1.01-1.37,1.66-.36.72-.58,1.58-.65,2.38-.14,1.08-.14,2.23,0,3.31.07.72.14,1.51.5,2.16.5,1.08,1.44,1.87,2.02,2.88.36.72.22,1.51.65,2.16.29.5,1.08.65,1.37,1.15.36.72.43,1.51.43,2.3-.07.58-.29,1.22-.5,1.73-.36.65-.72,1.3-1.15,1.8-.5.58-1.22,1.08-1.66,1.66-.36.43-.58.94-.79,1.37-.29.79-.65,1.51-.86,2.3-.22.58-.86,1.37-.36,1.8.43.36,1.08-.43,1.51-.79.43-.43.29-1.37.86-1.51.5-.14.94.58,1.3,1.01.36.43.65.94.72,1.51.14.72-.07,1.44,0,2.16.07.65.14,1.3.5,1.8.43.65,1.15,1.08,1.8,1.51,1.15.72,2.38,1.51,3.67,2.02.86.36,1.87.22,2.81.36.72.14,1.37.58,2.16.65.86.07,1.73,0,2.66-.14.5-.07,1.08-.36,1.58-.36,1.08,0,2.16.29,3.17.36,1.15.07,2.23,0,3.31,0,1.15,0,2.3.14,3.46,0,.65-.07,1.51-.07,1.87-.65.36-.5.14-1.3-.14-1.87-.43-.86-1.15-1.51-1.87-2.16-.94-.72-1.94-1.51-3.02-1.87-1.22-.43-2.52-.36-3.82-.36-1.08-.07-2.23,0-3.31.07-.86.07-1.73.22-2.66.29-.72,0-1.58.14-2.3-.14-.72-.29-1.3-.86-1.87-1.37-.72-.65-1.51-1.3-2.16-2.02-.5-.65-1.01-1.37-1.22-2.16-.29-.86-.14-1.73-.14-2.59,0-.94-.29-2.02.22-2.88.72-1.22,2.23-1.87,3.17-2.95.79-.86,1.3-2.02,2.02-3.02.58-.72,1.51-1.22,1.94-2.02.29-.58.36-1.37.22-2.02-.14-.94-.43-1.94-1.08-2.66-.58-.58-1.66-.36-2.3-.86-.65-.58-1.01-1.44-1.37-2.16-.43-.86-.65-1.73-1.08-2.52-.29-.65-.72-1.3-1.22-1.8-.43-.5-.86-.94-1.44-1.3-.36-.29-.79-.43-1.22-.65h0Z"/>
      <path class="cls-7" d="m70.51,243.86c.5.29,1.08.29,1.66.29.5-.07.94-.22,1.37-.43.58-.22,1.44-.36,1.51-1.01.14-.5-.65-.86-1.08-1.22-.65-.5-1.3-1.01-1.94-1.44-.65-.43-1.51-.58-2.16-1.08-.65-.58-1.37-1.22-1.73-2.09-.58-1.3-.65-2.81-.94-4.25-.22-1.51-.65-3.02-.58-4.61,0-1.44.65-2.88.86-4.32.36-2.09.58-4.32.86-6.41.29-1.66.5-3.24.94-4.82.5-2.02,1.51-3.96,2.02-5.98.29-1.51.14-3.02.36-4.54.14-.94.29-1.94.65-2.81.36-1.01,1.15-1.87,1.51-2.95.5-1.51.72-3.17,1.01-4.75.22-1.44.29-2.81.36-4.18.14-1.73.43-3.38.43-5.11-.07-1.73-.22-3.53-.65-5.18-.43-1.66-1.08-3.31-1.94-4.82-.65-1.15-1.58-2.23-2.52-3.17-.65-.65-1.44-1.3-2.3-1.66-.86-.36-1.87-.43-2.88-.5-1.37-.07-2.88-.14-4.18.29-1.15.36-2.02,1.22-2.95,2.02-1.01.94-1.87,2.02-2.88,3.02-.65.65-1.44,1.01-1.87,1.8-.36.5-.14,1.22-.29,1.87-.14.5-.07,1.15-.5,1.37-.94.65-2.23.58-3.17,1.15-.94.65-1.8,1.44-2.38,2.45-.5.79-.65,1.73-.65,2.66,0,.5.29,1.08.65,1.51.43.65,1.15,1.01,1.58,1.66.36.43.58.94.65,1.51.14.65,0,1.3-.14,1.87-.07.58-.29,1.08-.58,1.51-.36.43-1.01.5-1.3.94-.36.43-.58,1.08-.5,1.66.07.36.36,1.08.79,1.01.72-.29,1.01-1.15,1.51-1.8.29-.36.58-1.73.72-1.3.29.86.07,1.87-.22,2.66-.22.5-1.22.79-1.01,1.3.14.43,1.01.07,1.37-.29.58-.5.86-1.3,1.3-2.02.36-.5.65-1.15,1.08-1.66.43-.36.94-.86,1.58-.86.58,0,1.08.94,1.58.79.5-.22.36-1.01.5-1.51.29-.86.65-1.73.79-2.59.14-1.01.14-2.09.14-3.17,0-.94.29-1.94,0-2.88-.22-.58-.79-.94-1.3-1.3-.58-.36-1.44-.36-2.02-.86-.36-.29-.58-.79-.5-1.3.07-.5.43-1.01.86-1.22.65-.36,1.44-.07,2.02-.29.58-.14,1.08-.43,1.44-.86.43-.58.5-1.37,1.01-1.94.5-.5,1.15-.94,1.8-1.37.72-.43,1.51-.86,2.38-1.15.86-.22,1.8-.36,2.66-.36.79,0,1.66.14,2.38.36s1.51.43,2.09.94c.58.5,1.01,1.3,1.37,2.02.5,1.01,1.08,2.09,1.3,3.31.14,1.37-.22,2.74-.14,4.18,0,1.15.29,2.3.22,3.53,0,1.51-.07,3.02-.36,4.54-.29,1.44-.86,2.81-1.3,4.18-.5,1.73-.94,3.38-1.51,5.11-.36,1.22-.86,2.52-1.22,3.82-.5,1.51-1.01,3.02-1.44,4.54-1.01,3.46-2.02,6.91-2.88,10.37-.58,2.16-1.08,4.39-1.44,6.62-.22,1.73-.58,3.46-.5,5.18.07.86.29,1.94.94,2.52.5.5,1.44,0,2.16.29.5.22,1.15.58,1.37,1.08.29.65.36,1.51.14,2.16-.22.5-1.22.5-1.3,1.01-.07.72.43,1.3.79,1.94.29.5.79.94,1.15,1.51.29.5.36,1.22.86,1.66.43.36,1.15.29,1.66.65.43.29.43.94.86,1.22h0Z"/>
      <path class="cls-8" d="m223.37,139.61c.86,0,1.73-.14,2.66-.14.79,0,1.58.29,2.38.29.65-.07,1.22-.79,1.8-.5.58.22.5,1.22,1.01,1.58.65.5,1.51.72,2.3.79.86.07,1.73-.22,2.66-.29.79,0,1.66-.36,2.52-.07.72.22,1.22.86,1.73,1.37.72.65,1.58,1.22,2.09,2.02.14.36-.58.72-.43,1.01.29.65.86,1.22,1.51,1.51.65.29,1.58-.29,2.16.14.86.72,1.08,1.94,1.66,2.95.29.43.5.94.86,1.22.36.22.94-.07,1.15.29.36.5,0,1.3.29,1.87.22.5.86.65,1.22,1.01s.65.72.79,1.15c.22.86.36,1.8.29,2.66-.14.79-.79,1.51-.79,2.3s.43,1.51.65,2.23c.14.72.36,1.37.36,2.09,0,.36-.07.79-.22,1.08-.29.5-.65.86-1.08,1.15-.29.22-.86-.07-1.01.29-.29.79-.07,1.66-.07,2.52,0,.79-.22,1.58.07,2.3.36.65,1.37.86,1.8,1.51.43.58.79,1.3.86,2.02.14,1.08.07,2.23-.07,3.31-.22,1.15-.29,2.38-.79,3.38-.29.58-1.15.5-1.51,1.01-.29.43-.07,1.08-.29,1.51-.22.65-.65,1.15-1.01,1.66-.36.58-.72,1.22-1.15,1.8-.29.36-.58.72-1.01,1.01-.36.29-.94.72-1.37.5-.43-.29-.36-1.01-.36-1.51,0-.65.58-1.22.36-1.8-.14-.43-.86-.65-1.3-.5-.5.22-.65.94-1.01,1.44-.29.43-.72.79-1.01,1.22-.36.58-.36,1.37-.86,1.8-.36.29-1.08-.22-1.37.14-.36.36-.43,1.01-.29,1.51.07.36,1.08.29.86.58-.36.72-1.44.86-2.02,1.44-.72.72-1.3,1.51-1.73,2.38-.5.79-.65,1.73-1.01,2.52-.36.65-.86,1.15-1.08,1.8-.22.94-.22,1.87-.07,2.81s.65,1.87,1.01,2.81c.43,1.15,1.01,2.23,1.51,3.38.22.65.36,1.3.65,1.87.22.65.58,1.15,1.01,1.66.72,1.01,1.66,1.8,2.23,2.81.72,1.15,1.08,2.45,1.66,3.67,1.22,2.45,2.45,4.9,3.82,7.2,1.3,2.16,2.81,4.25,4.32,6.26.86,1.15,1.87,2.16,2.81,3.24.58.72.94,1.58,1.66,2.16.58.5,1.37.86,2.09.94,1.01,0,2.09-.29,2.95-.79.94-.5,1.73-1.3,2.38-2.16.94-1.22,1.94-2.45,2.3-3.89.43-1.87.14-3.74,0-5.62-.22-2.74-.72-5.4-1.15-8.06-.29-1.87-.58-3.67-1.01-5.47-.86-3.82-1.8-7.56-2.81-11.3-1.01-4.03-2.52-7.99-3.24-12.17-.58-3.24-.86-6.62-.65-10.01.14-2.45.65-4.97,1.51-7.34.65-1.73,1.58-3.38,2.81-4.82,1.15-1.37,2.45-2.88,4.18-3.38,2.38-.79,5.04-1.01,7.49-.29,1.66.5,2.59,2.52,3.89,3.67,1.51,1.37,3.02,2.81,4.54,4.1,1.15.86,2.38,1.51,3.46,2.38,1.01.79,2.02,1.66,2.81,2.66.72,1.01,1.22,2.16,1.73,3.31.5,1.01,1.08,2.02,1.15,3.17.14.94-.14,1.87-.5,2.74-.36.86-1.3,1.44-1.51,2.3-.29,1.3-.07,2.74,0,4.03.07,1.15.07,2.3.29,3.46.22,1.22.94,2.3,1.01,3.53,0,.94,0,2.66-.94,2.66-1.3,0-1.8-1.8-2.74-2.66-1.22-1.01-2.52-1.8-3.67-2.74-1.8-1.37-3.74-2.52-5.26-4.1-1.01-1.08-1.87-2.45-2.38-3.89-.5-1.51-.43-3.17-.5-4.68-.07-1.37-.07-2.74.14-4.1.14-1.01,1.01-1.87,1.01-2.88-.07-.94-.58-1.73-1.15-2.45-.72-.94-1.66-1.73-2.66-2.38-.72-.5-1.51-1.01-2.38-1.01-.94-.07-1.94.29-2.66.86-.94.72-1.51,1.87-1.94,2.95-.5,1.3-.72,2.74-.86,4.18-.22,2.09-.5,4.32-.29,6.41.36,3.1,1.01,6.05,1.8,9,1.22,4.68,3.02,9.22,4.32,13.82,1.3,4.68,2.74,9.36,3.38,14.18.5,3.38.58,6.91.14,10.3-.22,2.02-1.01,4.1-2.16,5.83-1.08,1.73-2.66,3.02-4.32,4.32-1.15.86-2.45,1.66-3.89,2.16-1.37.43-2.81.36-4.18.5-.79,0-1.66-.29-2.45,0-.36.07-.36.72-.65,1.01-.65.79-1.51,1.44-2.23,2.23-1.01,1.08-1.73,2.38-2.81,3.31-1.01.94-2.3,1.51-3.38,2.3-.79.5-1.58,1.01-2.3,1.51-.72.5-1.8.72-2.02,1.51-.29,1.01.65,1.94.86,2.95.36,1.3.14,2.81.86,4.03,1.08,1.66,3.02,2.59,4.18,4.18.94,1.22,1.73,2.59,1.94,4.03.14,1.44-.36,2.88-.86,4.18-.43.94-1.08,1.73-1.8,2.45-.86.86-1.8,1.8-2.95,2.38-1.3.72-2.95.72-4.25,1.44-.65.29-.72,1.37-1.44,1.58-1.01.36-2.16,0-3.31,0-2.66.07-5.4-.14-8.06.14-1.22.14-2.23.94-3.46,1.15-1.58.29-3.17.22-4.82.29-1.44,0-2.95.29-4.39.07-1.08-.14-2.09-.58-2.95-1.22-.79-.65-1.37-1.51-1.73-2.45-.43-1.15-.72-2.45-.5-3.67.07-.79.79-1.44,1.37-2.02.86-.79,1.8-1.58,2.95-2.02.79-.36,1.73-.36,2.59-.36,1.44-.07,2.81-.07,4.25,0,1.22,0,2.45.36,3.67.36,1.58,0,3.17-.07,4.75-.29.94-.07,1.8-.22,2.59-.72.79-.5,1.58-1.22,1.87-2.16.22-.65-.14-1.44-.5-2.02-.43-.79-1.15-1.37-1.8-2.02-1.37-1.51-2.95-2.88-4.25-4.46-.94-1.08-1.44-2.38-2.16-3.53-.43-.72-1.01-1.37-1.3-2.16-.22-.72.07-1.58-.14-2.3-.14-.58-.43-1.22-1.01-1.51-.65-.29-1.51-.36-2.16,0-.5.29-1.01,1.01-.86,1.66.22,1.22,1.15,2.16,1.87,3.17.65.86,1.73,1.37,2.16,2.3.5.86.94,2.02.65,3.02-.36,1.3-1.51,2.3-2.52,3.31-1.15,1.01-2.66,1.66-3.96,2.59-1.58,1.22-2.95,2.74-4.68,3.74-1.22.72-2.74,1.08-4.18,1.37-1.22.22-2.52-.07-3.82,0-1.3,0-2.66,0-4.03.22-.94.22-1.73.79-2.66.94-1.37.22-2.81.14-4.18.07-1.15,0-2.38.14-3.46-.36-.94-.5-1.66-1.44-2.23-2.38-.58-.86-1.01-1.8-1.01-2.81-.07-.94.22-2.02.86-2.81.72-.79,1.87-1.01,2.81-1.66.79-.5,1.44-1.3,2.23-1.87.58-.36,1.15-.86,1.8-1.01.79-.14,1.58.07,2.45.14,1.08.07,2.16.43,3.24.5,1.66,0,3.31.22,4.82-.29,1.44-.43,2.66-1.44,3.67-2.52.72-.72,1.37-1.73,1.44-2.81,0-.94-.72-1.73-1.3-2.52-1.01-1.37-2.38-2.45-3.46-3.82-1.01-1.22-2.16-2.45-2.88-3.89-.58-1.15-.79-2.45-.79-3.67.07-1.37.43-2.81,1.15-3.96.94-1.44,2.52-2.45,3.67-3.67,1.22-1.22,2.3-2.59,3.6-3.82.79-.72,2.09-1.08,2.74-2.02.36-.5.22-1.22-.14-1.73-1.01-1.8-2.59-3.17-3.67-4.97-1.87-3.31-3.17-6.84-4.9-10.3-1.73-3.38-3.6-6.7-5.33-10.08-.65-1.37-1.15-2.81-1.87-4.1-.72-1.15-1.51-2.38-2.45-3.38-.72-.79-1.8-1.22-2.52-2.02-.94-1.01-1.58-2.16-2.45-3.17-.58-.79-1.22-1.58-2.02-2.3-.43-.43-.94-1.08-1.66-1.15-.58-.07-.94.65-1.51.86-.65.29-1.37.72-2.02.5-.79-.22-1.15-1.08-1.8-1.58-.65-.65-1.22-1.37-2.02-1.8-.86-.43-2.02-.29-2.88-.79-.94-.5-1.58-1.44-2.3-2.23-.65-.86-1.37-1.66-1.73-2.66-.5-1.22-.58-2.52-.65-3.82-.07-1.08-.22-2.23.22-3.17.5-1.01,1.58-1.66,2.45-2.38.65-.72,1.3-1.51,2.16-1.94.65-.29,1.44-.43,2.16-.22.79.22,1.51.79,2.09,1.37.58.58.86,1.37,1.3,2.02.65,1.01,1.01,2.16,1.87,2.95.5.36,1.3.5,1.94.36.43-.07.72-.58.72-1.01.14-.72,0-1.44-.36-2.02-.5-.94-1.37-1.58-2.16-2.3-1.01-1.01-2.16-1.87-3.17-2.95-.65-.65-1.08-1.51-1.73-2.23-.58-.58-1.08-1.15-1.8-1.51-.72-.43-1.58-.43-2.38-.65-.86-.22-2.09,0-2.45-.79-.58-1.08.07-2.52.14-3.74.07-1.37-.22-2.88.36-4.1.43-.94,1.66-1.3,2.45-2.02.79-.72,1.58-1.51,2.23-2.38.58-.79.72-1.87,1.44-2.45.72-.58,1.8-1.15,2.74-1.01.79.14,1.15,1.08,1.66,1.66.65.72,1.37,1.44,1.8,2.3.36.72.29,1.58.36,2.38.07.58-.07,1.22,0,1.8.22,1.3.29,2.66.79,3.89.43,1.22,1.37,2.23,2.16,3.31,1.08,1.51,2.23,2.95,3.53,4.32,1.08,1.15,2.52,2.02,3.67,3.17,1.01,1.01,1.66,2.38,2.88,3.17,1.51.94,3.31,1.22,4.97,1.8.94.22,1.8.58,2.81.58,1.08,0,2.16-.14,3.17-.58.65-.36,1.08-1.15,1.51-1.8.36-.58.86-1.3.65-1.94-.22-.5-1.08-.58-1.66-.5-1.3.29-2.3,1.22-3.6,1.58-.79.14-1.66,0-2.52,0-.86-.07-1.94.29-2.66-.29-.86-.72-1.15-2.02-1.37-3.17-.22-.94-.07-1.94.14-2.88.14-1.01.22-2.09.86-2.81.5-.65,1.44-.94,2.3-1.01.94-.14,1.87.36,2.74.22.94-.07,2.45,0,2.59-.86.14-1.01-1.3-1.51-2.09-2.16-.36-.29-.86-.65-1.37-.65-.86.07-1.66.5-2.38,1.01-.94.65-1.66,1.58-2.45,2.45-.43.5-.58,1.66-1.22,1.66-.94-.07-1.44-1.22-2.09-1.94-.72-.79-1.87-1.51-2.09-2.66-.14-.72.72-1.22,1.22-1.73.5-.5,1.22-.79,1.8-1.3,1.01-.94,1.94-1.8,2.81-2.88.43-.65.43-1.58,1.01-2.16.72-.86,1.73-1.37,2.66-1.94.86-.58,1.8-1.01,2.74-1.51,1.01-.58,2.45-.79,3.1-1.73.36-.65-.79-1.37-.79-2.09,0-.86-.07-2.02.65-2.52.5-.43,1.3.36,2.02.5.58.14,1.15.5,1.8.36.58-.07,1.08-.43,1.51-.86.72-.72,1.01-1.8,1.87-2.38.65-.5,1.58-.72,2.38-.5.79.14,1.01,1.22,1.66,1.51.79.29,1.66,0,2.45,0h0Z"/>
      <path class="cls-3" d="m231.29,143.14c.79,0,1.8-.14,2.45.36.5.43.29,1.3.29,1.94,0,.58-.22,1.15-.29,1.73,0,.5-.14,1.01,0,1.44.22.43.86.65,1.01,1.15.14.43.22,1.15-.22,1.37-.72.36-1.58,0-2.3-.14-.43-.07-.72-.36-1.15-.36-.58-.07-1.22-.14-1.73.14-.5.22-1.08.79-.94,1.22.29.65,1.3.58,1.8,1.01.43.5.58,1.22,1.01,1.66.36.43.86.72,1.37.94.65.22,1.37.36,2.02.22.65-.07,1.22-.43,1.66-.86.72-.65.86-2.3,1.8-2.16.79.07.14,1.58.14,2.38-.07.72-.22,1.37-.43,2.02-.07.58-.14,1.15-.5,1.58-.5.58-1.15,1.15-1.87,1.37-.79.22-1.8.22-2.52-.14-.43-.14-.14-.86-.36-1.22-.22-.36-.43-.72-.79-.79-.65-.14-1.3,0-1.87.14s-1.15.36-1.58.72c-.36.43-.72,1.01-.72,1.51,0,.58.5.94.65,1.44.07.43-.29,1.01,0,1.37.22.43.79.72,1.22.65.43-.07.79-.5,1.01-.86.43-.5.36-1.37.94-1.66.5-.36,1.22-.29,1.73,0,.43.22.5.79.5,1.22.07.72-.14,1.37-.22,2.09-.14,1.22-.22,2.52-.5,3.74-.14.72-.43,1.44-.79,2.02-.36.72-1.08,1.22-1.22,1.94-.22.72,0,1.51.07,2.3.14.79.36,1.66.65,2.52.14.29.22.94.5.86.58-.07,1.08-.65,1.3-1.15.36-.72.22-1.58.36-2.38.14-.79.36-1.58.36-2.45.07-1.15,0-2.38,0-3.53,0-.86-.07-1.8,0-2.66.07-.58.14-1.22.43-1.8.29-.5.79-1.01,1.37-1.37.43-.29,1.01-.5,1.51-.5.36,0,.58.43.86.5.43.07.94.14,1.3-.14.43-.29.5-.86.65-1.37.14-.5.22-1.08.22-1.66.07-.72.07-1.51-.07-2.3-.22-.72-.79-1.3-1.01-2.02-.22-.65-.07-1.44-.29-2.16-.14-.43-.36-.94-.79-1.08-.58-.29-1.44.29-2.02-.14-.29-.29.14-1.01.5-1.15.79-.36,1.66.14,2.45-.14.43-.14.58-.86,1.01-1.15.5-.29,1.08-.65,1.66-.58.65,0,1.3.43,1.87.72,1.08.58,2.16,1.08,3.02,1.87.72.65,1.3,1.44,1.66,2.3.43.86.43,1.87.65,2.81.14.65.36,1.3.65,1.87.22.5.79.86.86,1.44.14.79-.22,1.58-.22,2.38-.07,1.01.14,1.94,0,2.95-.14.5-.36,1.01-.79,1.37-.22.22-.79-.14-1.01.14-.5.5-.79,1.3-.86,2.02-.14.72,0,1.51.07,2.23.14.43.43.79.5,1.15.14.72-.07,1.51.14,2.16.29.65.94,1.01,1.3,1.51.22.36.58.72.65,1.15.14.72,0,1.44,0,2.16-.07.79-.07,1.58-.29,2.3-.07.43-.36.79-.65,1.15-.36.43-.86.86-1.37,1.08-.36.22-.86.43-1.15.14-.43-.29-.43-1.01-.65-1.51-.14-.5.14-1.37-.36-1.51-.43-.14-.72.65-1.01,1.01-.43.43-.94.86-1.15,1.37-.22.65.07,1.3-.14,1.94-.22.72-.65,1.3-1.08,1.87-.43.5-.94.94-1.44,1.3-.5.36-1.01.65-1.66.86-.43.14-1.08.5-1.37.14-.36-.43,0-1.22,0-1.8-.07-.65-.22-1.3-.29-2.02,0-.5-.22-1.01-.07-1.51.14-.79.43-1.51.86-2.16.36-.5,1.01-.79,1.51-1.3.5-.43,1.01-1.01,1.51-1.51.29-.29.58-.58.94-.86.29-.29.86-.29,1.08-.65.36-.5.5-1.15.5-1.73.07-.72-.14-1.44-.22-2.16-.14-.79-.29-1.66-.36-2.45-.07-.65.22-1.37,0-2.02-.22-.5-.58-1.15-1.15-1.3-.58-.07-1.15.5-1.66.79-.5.22-1.15.29-1.37.79-.36.58-.14,1.37,0,2.02.14.79.65,1.58.72,2.38.14.86-.07,1.73-.14,2.52,0,.72.14,1.37,0,2.09-.07.5-.22,1.08-.58,1.37-.58.36-1.44.07-2.09.36-.43.22-.72.79-1.08,1.15-.58.5-1.22.94-1.8,1.37-.5.43-1.01.86-1.66,1.01-.86.29-1.87.43-2.81.14-.65-.22-1.08-.86-1.37-1.51-.22-.5.14-1.22-.14-1.8-.22-.5-.86-.79-1.22-1.22-.43-.5-.86-.94-1.15-1.51-.29-.5-.36-2.02-.5-1.51-.36.86-.14,1.94,0,2.88.07.79.29,1.58.5,2.45.14.58.43,1.22.36,1.87-.07.79-.36,1.58-.86,2.16-.65.65-1.58.86-2.3,1.37-.29.22-.36,1.01-.79.94-.43-.14-.5-.94-.86-1.3-.43-.5-1.08-.79-1.37-1.37-.29-.58-.43-1.22-.36-1.8,0-.65.29-1.3.5-1.87.14-.79,1.22-2.3.5-2.3-.94,0-1.15,1.51-1.66,2.3-.43.58-.79,1.22-1.15,1.87-.36.58-.5,1.22-1.01,1.66-.29.22-.72-.22-1.01,0-.58.29-.86,1.08-1.44,1.37-.43.22-1.15.5-1.51.14-.43-.43,0-1.22-.22-1.8-.22-.5-.58-1.01-1.01-1.37-.65-.5-1.37-.86-2.16-1.01-.58-.07-1.22,0-1.66.36-.5.36-.43,1.22-.86,1.51-.58.36-1.51.79-2.09.43-.5-.36.07-1.37-.22-1.94-.22-.36-.72-.43-1.01-.72-.22-.22-.36-.5-.5-.79-.22-.43-.07-1.22-.5-1.37-.5-.22-1.15.14-1.51.5-.5.43-.79,1.08-.94,1.73-.14.58.22,1.22,0,1.8-.14.43-.5.72-.86.86-.43.14-1.01.14-1.37-.07-.65-.36-1.01-1.01-1.44-1.58-.43-.5-.58-1.22-1.15-1.58-.43-.43-1.08-.36-1.58-.65s-.79-.79-1.3-1.01c-.43-.22-.94-.36-1.37-.43-.5-.07-1.08.22-1.58,0-.29-.14-.5-.5-.58-.86-.14-.72-.07-1.44,0-2.16,0-.72.43-1.44.22-2.16-.07-.43-.65-.58-1.01-.86-.43-.36-.94-.65-1.3-1.15-.5-.86-.65-1.94-1.22-2.81-.36-.5-.94-.79-1.37-1.22-.58-.58-1.15-1.08-1.66-1.66-.58-.58-1.01-1.08-1.51-1.66-.43-.43-.94-.94-1.3-1.37-.43-.5-.65-1.22-1.15-1.51-.43-.29-1.01-.22-1.51-.29-.5-.07-1.08.22-1.51,0-.36-.14-.58-.5-.79-.86-.22-.5-.43-1.08-.5-1.66-.07-.65-.14-1.3,0-1.94.14-.5.5-.94.79-1.37.5-.79,1.01-1.58,1.66-2.3.36-.43,1.01-.65,1.37-1.08.43-.58.79-1.15,1.01-1.8.22-.5.07-1.15.36-1.66.29-.36.72-.5,1.15-.65.29-.07.65-.07.94.14.36.36.65.86.86,1.37.29.65.29,1.37.65,1.94.29.43,1.01.65,1.22,1.15.22.36.43,1.15,0,1.37-.58.36-1.3-.14-2.02-.14-.58,0-1.22-.07-1.66.29-.5.36-.43,1.15-.86,1.66-.22.22-.86.07-1.01.36-.36.58-.86,1.44-.36,1.87.43.5,1.3-.29,2.02-.22.58,0,1.15.5,1.73.36.43-.07.29-.94.65-1.01.58-.07,1.22.22,1.66.65.65.58.94,1.37,1.37,2.16.5.72.94,1.51,1.3,2.23.5,1.08.86,2.23,1.51,3.17.65.94,1.73,1.51,2.45,2.45.5.65.65,1.58,1.22,2.23.86,1.08,1.94,1.94,2.95,2.81.5.5,1.01.94,1.66,1.3.72.43,1.51.94,2.38,1.22.58.22,1.15.22,1.8.29.65.07,1.44-.36,2.02,0,.36.22.07.94.14,1.37,0,.65-.22,1.3,0,1.94,0,.22.36.58.58.5.58-.14.86-.72,1.3-1.01.36-.36.79-.58,1.15-.94.36-.36.65-.94,1.15-1.22.36-.36.86-.58,1.37-.65.94-.14,1.94.14,2.88,0,.72-.14,1.37-.43,1.94-.86.5-.43.58-1.3,1.15-1.66.65-.43,1.51-.22,2.23-.5.5-.22.94-.65,1.3-1.01.5-.58.86-1.22,1.3-1.8.29-.43.5-1.01.86-1.37.22-.29.5-.5.86-.5.72-.07,1.44.29,2.16.36.58.07,1.3.29,1.8,0,.5-.29.72-1.01,1.01-1.51.22-.5.36-1.08.5-1.66.07-.36.14-.79,0-1.15-.22-.36-.65-.65-1.01-.79-.65-.22-1.37-.36-2.02-.36s-1.51,0-1.94.5c-.43.5-.14,1.37-.22,2.02-.14.5-.14,1.08-.43,1.51-.29.5-.79.79-1.22,1.08-.5.22-1.01.58-1.51.58s-.94-.29-1.3-.58c-.29-.36-.07-1.3-.5-1.15-.5.14-.29,1.08-.65,1.51-.29.29-.72.29-1.15.36-.58.22-1.22.5-1.87.5-.29,0-.65-.22-.79-.5-.07-.36.5-.94.14-1.15-.36-.29-1.01,0-1.51.14-.58.22-1.01.65-1.51.86-.65.29-1.37.5-2.02.65-.79.14-1.58.22-2.45.29-.79,0-1.66.22-2.38,0-.43-.22-.79-.72-.86-1.15-.14-.58-.07-1.22.07-1.8.14-.5.5-.86.65-1.37.22-.5-.07-1.3.36-1.51.58-.36,1.3.07,1.94.22.5.14.86.65,1.37.79.65.14,1.3.36,1.94.22.65-.14,1.37-.5,1.73-1.15.36-.5,0-1.15,0-1.73,0-.79.29-1.66,0-2.45-.14-.5-.65-.79-1.15-1.08-.5-.43-1.08-.72-1.73-.94-.65-.14-1.37-.22-2.02-.22s-1.3.14-1.94.22c-.65.07-1.37.43-2.02.29-.5-.14-1.08-.5-1.3-1.01-.29-.72-.22-1.58-.07-2.3,0-.36.14-.79.5-.86.65-.29,1.51.14,2.16-.14.36-.22.36-.72.5-1.15.14-.5-.07-1.3.36-1.66.5-.36,1.3-.07,1.87-.22.43-.14.79-.5,1.15-.79.5-.36,1.01-.79,1.44-1.22.22-.43.14-1.01.5-1.3.43-.36,1.15-.29,1.73-.36.65-.14,1.3-.14,1.94-.29.43-.07.79-.36,1.22-.5.5-.14,1.08-.86,1.44-.5.36.43,0,1.22-.14,1.8-.14.36-.36.72-.65,1.01-.43.43-1.37.43-1.51,1.01-.22.65.36,1.3.65,1.87.22.58.43,1.15.86,1.51.5.43,1.15.72,1.8.79.72.07,1.44-.22,2.16-.5.72-.29,1.44-.72,2.02-1.3.5-.43.94-1.08,1.15-1.73.07-.5-.07-1.01-.29-1.44-.29-.43-.65-.86-1.15-1.15-.58-.36-1.3-.5-2.02-.72-.5-.22-1.08-.22-1.51-.5-.36-.22-.86-.5-.86-.86-.07-.43.43-.65.72-.94.43-.36.86-.65,1.3-.86.29-.22.65-.36,1.01-.36.5-.07,1.15-.22,1.66,0,.29.07.36.5.65.72.36.43.65,1.22,1.22,1.3.58,0,.86-.72,1.3-1.15.29-.29.36-.79.72-.86.65-.22,1.44-.07,2.02.07.36.14.65.43.79.79.22.65-.14,1.44.29,2.02.14.29.72.07,1.01-.14.43-.43.65-1.08,1.01-1.66.22-.29.43-.65.72-.86.58-.29,1.22-.5,1.87-.5h0Z"/>
      <path class="cls-3" d="m236.4,143.5c.22-.29.58-.58.86-.5.79.29,1.3.94,1.94,1.44.5.36,1.3.65,1.66,1.22.22.5.14,1.22-.29,1.51-.5.5-1.37.36-2.02.43-.58,0-1.08-.07-1.66,0-.58,0-1.3.5-1.66.07-.29-.36.36-1.01.5-1.51.22-.5.43-1.01.5-1.51.14-.36-.07-.79.14-1.15h0Z"/>
      <path class="cls-3" d="m234.74,190.51c.43,0,.86-.14,1.3-.22.29-.07.65-.5.86-.29.36.43.22,1.01.14,1.51-.07.58-.29,1.15-.65,1.66-.43.58-1.15.94-1.51,1.51-.36.58-.36,1.22-.65,1.8-.29.5-.86.86-1.15,1.37-.36.79-.65,1.58-.86,2.45-.22.72-.36,1.44-.36,2.16-.07.94-.14,1.87,0,2.74.14.94.5,1.73.86,2.59.5,1.15.94,2.3,1.51,3.38.86,1.58,1.66,3.24,2.66,4.68.79,1.22,2.02,2.09,2.81,3.31.5.86.79,1.8,1.01,2.81.22,1.08.07,2.16.22,3.24.22,1.51.36,3.02.79,4.46.29,1.08,1.08,2.09,1.37,3.17.22.79.07,1.73.14,2.52.14,1.37.36,2.66.5,3.96.14,1.3-.22,2.74.36,3.89.22.43,1.08-.07,1.3-.5.65-1.01.86-2.3,1.3-3.53.22-.72-.07-1.66.5-2.16.43-.43,1.22-.14,1.87,0,.72.14,1.37.43,1.87.86.86.72,1.8,1.51,2.16,2.59.36.72,0,1.58-.07,2.38-.22,1.44-.14,2.95-.65,4.32-.29.79-1.22,1.15-1.8,1.8-.94.94-1.87,2.02-2.88,2.88-.72.58-1.51,1.15-2.45,1.51-.5.22-1.15.29-1.73.14-.58-.14-.86-.86-1.44-1.01-.65-.22-1.58-.65-2.02-.14-.58.72.07,1.8,0,2.66-.07.72-.14,1.44-.36,2.16-.29,1.01-.94,1.87-1.01,2.88-.14.94.14,1.94.36,2.81.29,1.08.58,2.23,1.15,3.17.5.86,1.58,1.22,2.16,2.02.58.94,1.01,2.02,1.22,3.1.22.86-.07,1.8.14,2.59.14.5.43,1.51.86,1.3.86-.43.5-1.94,1.3-2.38.43-.29.79.65.86,1.08.14.65,0,1.22-.22,1.8-.36.94-.94,1.8-1.51,2.52-.58.65-1.15,1.3-1.94,1.66-.79.43-1.8.36-2.66.79-.79.43-1.3,1.44-2.16,1.87-.86.5-1.87.58-2.88.79-.94.14-1.94.22-2.88.36-.94.07-1.87.22-2.81.29-1.01,0-2.02-.07-3.02-.14-.86-.07-1.73-.36-2.59-.29-.65.07-1.22.65-1.87.79-1.37.22-2.74.07-4.03.14-.72,0-1.44.22-2.09,0-.29-.14-.29-.58-.36-.94-.14-.58.14-1.44-.36-1.73-.36-.29-.65.58-.79,1.01-.14.5.29,1.3-.07,1.66-.43.36-1.22.14-1.66-.14-.5-.29-.65-.94-1.01-1.44-.36-.36-1.08-.58-1.15-1.08-.14-.79.14-1.58.65-2.16.5-.72,1.3-1.37,2.16-1.66.86-.36,1.94-.14,2.88-.14.58,0,1.08.29,1.66.29.79-.07,1.58-.36,2.38-.43.72-.07,1.37-.07,2.02,0,1.01.14,1.87.79,2.81.79,1.01,0,2.02-.36,2.95-.79.79-.36,1.44-1.15,2.23-1.51.79-.29,1.73-.29,2.59-.36,1.08-.07,2.3.43,3.24,0,.72-.36,1.15-1.3,1.01-2.02-.07-1.01-1.01-1.8-1.51-2.66-.65-1.22-1.22-2.45-2.02-3.6-.5-.65-1.3-1.15-1.87-1.73-.94-.86-1.8-1.66-2.66-2.52-.86-.94-1.87-1.73-2.52-2.81-.5-.79-.58-1.73-.94-2.52-.36-.94-.94-1.8-1.15-2.81-.14-.86,0-1.73.14-2.52.22-1.3.72-2.45,1.01-3.67.22-.86.43-1.8.5-2.66.07-.94,0-1.87,0-2.81.07-1.15.07-2.3.14-3.38.07-.94.29-1.8.29-2.66-.07-.72-.29-1.44-.5-2.09-.36-.72-.94-1.37-1.3-2.09-.5-.94-.79-1.87-1.3-2.81-.29-.65-.36-2.02-1.01-1.8-.65.29-.07,1.44,0,2.16.14,1.01.65,2.02.79,3.02.07.79.07,1.66,0,2.45-.07.43.07,1.22-.36,1.37-.5.22-.94-.43-1.3-.72-.65-.58-1.22-1.3-1.8-1.94-1.3-1.51-2.74-2.95-3.89-4.54-1.3-1.8-2.16-3.82-3.46-5.62-1.08-1.44-2.74-2.45-3.67-4.03-.58-1.01-.5-2.38-.72-3.53-.22-1.01-.43-1.94-.5-2.95-.14-1.01-.22-2.02,0-3.02.14-.79.5-1.58,1.01-2.3.5-.72,1.22-1.3,2.02-1.87.72-.5,1.66-.72,2.38-1.3.58-.36,1.01-.94,1.44-1.51.29-.36.29-1.01.72-1.15,1.01-.29,2.02.14,3.02,0,.79-.07,1.66-.07,2.3-.5.5-.29.65-.94.86-1.51.36-.65.36-1.44.79-2.02.43-.58,1.15-.94,1.66-1.51.5-.58.94-1.15,1.37-1.8.5-.5,2.02-1.3,1.44-1.58-.79-.43-1.66.65-2.45,1.08-.65.43-1.3.94-1.87,1.44-.79.65-1.51,1.37-2.3,2.02-.79.65-1.44,1.44-2.38,1.8-.86.29-1.8.07-2.66,0-.65-.07-1.3-.86-1.8-.58-.79.58-.79,1.8-1.37,2.59-.5.65-1.01,1.51-1.8,1.73-.79.22-1.58-.22-2.3-.58-.43-.36-.43-1.37-1.01-1.44-.79-.14-1.8.22-2.23.86-.36.58.72,1.37.5,1.94-.22.43-1.01.22-1.44,0-.58-.43-.86-1.15-1.22-1.8-.65-.94-1.15-1.87-1.66-2.88-.43-.86-.43-1.87-1.01-2.52-.58-.65-1.44-.94-2.16-1.3-.65-.36-1.44-.43-2.02-.86-.86-.58-1.58-1.3-2.16-2.02-.65-.86-1.01-1.87-1.66-2.66-.65-.86-1.37-1.66-2.16-2.3-.72-.58-1.44-1.22-2.3-1.51-.86-.36-1.87-.14-2.74-.29-.79-.07-1.58,0-2.3-.22-.72-.29-1.22-.86-1.8-1.3-.72-.58-1.37-1.37-2.16-1.87-.79-.58-1.73-.86-2.66-1.3-.65-.29-1.37-.5-1.87-1.01-.5-.58-.72-1.3-.86-2.02-.29-.94-.43-1.87-.43-2.81.07-.58.22-1.22.5-1.73.5-.65,1.15-1.08,1.8-1.58.58-.43,1.15-.94,1.87-1.08.86-.22,1.73-.29,2.59,0,.65.14,1.37.65,1.73,1.22.5.72.58,1.66.79,2.52.14.72-.07,1.37.14,2.09.14.72.36,1.51.86,2.09.29.36.86.29,1.22.29.58,0,1.15-.36,1.66-.36.79-.07,1.66-.29,2.45,0,.65.22,1.15.79,1.66,1.37.36.5.29,1.44.86,1.8.58.36,1.44-.07,2.16.07.5.14.86.5,1.3.79.36.36.72.79,1.08,1.15.43.29.86.5,1.3.72.65.43,1.3,1.01,2.02,1.3.72.29,1.58,0,2.3.29.58.14.79,1.08,1.37,1.08.79.07,1.51-.58,2.3-.86.65-.29,1.3-.72,2.02-.86.58-.14,1.22-.29,1.8,0,.58.22.86.86,1.22,1.37.65.94,1.01,2.09,1.8,2.95.58.58,1.37,1.01,2.16,1.22.58.14,1.3.07,1.73-.22.36-.22.22-.79.29-1.15.07-.72,0-1.44.14-2.16.07-.43.07-1.01.5-1.3.5-.29,1.15-.22,1.73-.22s1.3-.14,1.66.22c.72.65.72,1.94,1.44,2.52.43.43,1.22.36,1.87.43.79,0,1.66.29,2.3-.14.43-.29.14-1.15.36-1.66.22-.43.43-1.01.86-1.22.65-.36,1.37-.22,2.02-.43.58-.14,1.08-.72,1.66-.65.5.14.72.72.94,1.15.29.72.22,1.66.72,2.3.43.5,1.15.58,1.8.79.43.07.94.14,1.37.07h0Z"/>
      <path class="cls-3" d="m213.5,233.71c.36-.22.79-.72,1.22-.58.72.14,1.22.86,1.8,1.37.5.5.79,1.08,1.22,1.66.5.58,1.08,1.01,1.44,1.66.36.72.5,1.58.65,2.38.07,1.08.07,2.23,0,3.31-.07.72-.22,1.51-.58,2.16-.5,1.08-1.44,1.87-2.02,2.88-.29.65-.22,1.51-.58,2.16-.36.5-1.15.65-1.44,1.15-.36.72-.36,1.51-.36,2.3,0,.58.22,1.22.5,1.73.29.65.72,1.22,1.15,1.8.5.58,1.15,1.01,1.66,1.66.29.43.5.94.72,1.37.36.79.65,1.51.94,2.3.14.58.79,1.37.36,1.8-.43.36-1.15-.43-1.51-.79-.43-.43-.36-1.37-.94-1.51-.5-.14-.94.58-1.22,1.01-.36.43-.65.94-.79,1.51-.14.72.07,1.44,0,2.16-.07.58-.14,1.3-.5,1.8-.43.65-1.08,1.08-1.73,1.51-1.22.72-2.38,1.51-3.67,2.02-.94.29-1.87.22-2.81.36-.72.14-1.44.58-2.16.65-.86.07-1.8,0-2.66-.14-.58-.07-1.08-.36-1.66-.36-1.08,0-2.09.29-3.17.36-1.08.07-2.16,0-3.31,0s-2.3.14-3.38,0c-.65-.07-1.51-.07-1.94-.65-.36-.5-.14-1.3.14-1.87.43-.86,1.15-1.51,1.94-2.16.86-.72,1.87-1.51,3.02-1.87,1.22-.43,2.52-.36,3.82-.43,1.08,0,2.16.07,3.24.14.94.07,1.8.22,2.66.29.79,0,1.58.14,2.3-.14.72-.29,1.3-.86,1.87-1.37.79-.65,1.58-1.3,2.16-2.09.58-.65,1.08-1.3,1.3-2.09.22-.86.14-1.73.14-2.59-.07-.94.22-2.02-.29-2.88-.72-1.22-2.23-1.87-3.17-2.95-.79-.86-1.3-2.09-2.02-3.02-.58-.72-1.44-1.22-1.87-2.02-.36-.58-.43-1.37-.29-2.02.22-.94.5-2.02,1.15-2.66.58-.58,1.66-.36,2.3-.86.65-.58.94-1.44,1.37-2.16.43-.86.58-1.73,1.01-2.59.36-.65.79-1.22,1.3-1.73.36-.5.86-.94,1.37-1.3.36-.29.86-.43,1.3-.65h0Z"/>
      <path class="cls-3" d="m262.1,242.86c-.43.29-1.08.29-1.66.29-.43-.07-.94-.22-1.37-.43-.58-.22-1.44-.36-1.51-1.01-.07-.58.72-.86,1.15-1.22.58-.58,1.22-1.01,1.87-1.44.72-.43,1.51-.58,2.16-1.15.72-.5,1.44-1.15,1.8-2.02.58-1.3.65-2.81.86-4.32.29-1.51.65-3.02.65-4.54-.07-1.44-.65-2.88-.86-4.32-.36-2.16-.58-4.32-.94-6.41-.22-1.66-.43-3.24-.86-4.82-.58-2.02-1.58-3.96-2.02-5.98-.36-1.51-.22-3.02-.43-4.54-.07-1.01-.29-1.94-.58-2.81-.43-1.01-1.22-1.87-1.51-2.95-.58-1.51-.79-3.17-1.08-4.75-.14-1.44-.22-2.81-.36-4.25-.14-1.66-.43-3.31-.36-5.04.07-1.73.22-3.53.65-5.18.43-1.66,1.01-3.31,1.87-4.82.65-1.15,1.58-2.23,2.52-3.17.72-.65,1.44-1.3,2.3-1.66.94-.36,1.94-.43,2.88-.5,1.44-.07,2.88-.14,4.25.29,1.08.36,2.02,1.22,2.88,2.02,1.08.94,1.94,2.02,2.88,3.02.65.65,1.51,1.01,1.94,1.8.29.5.07,1.22.22,1.87.14.5.14,1.15.5,1.37.94.65,2.23.58,3.17,1.15,1.01.65,1.87,1.44,2.45,2.45.43.79.65,1.73.65,2.66,0,.5-.36,1.08-.65,1.51-.43.65-1.22,1.01-1.66,1.66-.29.43-.58.94-.65,1.51-.07.58,0,1.3.14,1.87.14.58.29,1.08.65,1.51.29.43.94.5,1.22.94.36.43.58,1.08.5,1.58,0,.43-.36,1.15-.72,1.08-.72-.29-1.08-1.15-1.51-1.8-.29-.43-.58-1.73-.79-1.3-.29.86,0,1.8.29,2.66.14.5,1.15.79,1.01,1.3-.22.43-1.08.07-1.44-.29-.58-.5-.79-1.37-1.22-2.02-.36-.58-.65-1.15-1.15-1.66-.43-.36-.94-.86-1.51-.86-.65,0-1.08.94-1.66.79-.5-.22-.36-1.01-.5-1.58-.29-.79-.65-1.66-.79-2.52-.14-1.01-.07-2.09-.07-3.17-.07-.94-.29-1.94,0-2.88.14-.58.72-.94,1.22-1.3.65-.36,1.51-.43,2.02-.86.36-.29.58-.86.5-1.3-.07-.5-.43-1.01-.86-1.22-.58-.36-1.37-.07-2.02-.29-.5-.14-1.01-.43-1.37-.86-.5-.58-.58-1.37-1.01-1.94-.5-.58-1.15-1.01-1.8-1.37-.79-.43-1.58-.86-2.45-1.15-.79-.22-1.73-.36-2.66-.36-.79,0-1.58.14-2.38.36-.72.22-1.44.43-2.02.94-.65.5-1.01,1.3-1.37,2.02-.58,1.01-1.15,2.09-1.3,3.24-.22,1.44.14,2.81.14,4.25-.07,1.15-.29,2.3-.29,3.53,0,1.51.14,3.02.36,4.54.29,1.44.86,2.81,1.3,4.18.5,1.73,1.01,3.38,1.51,5.11.43,1.22.86,2.52,1.3,3.74.43,1.51.94,3.1,1.37,4.61,1.01,3.46,2.02,6.91,2.95,10.37.5,2.16,1.01,4.39,1.37,6.62.29,1.66.58,3.46.5,5.18-.07.86-.22,1.94-.86,2.52-.58.5-1.51,0-2.16.22-.58.29-1.15.65-1.44,1.15-.29.65-.36,1.51-.07,2.16.14.5,1.15.5,1.22,1.01.14.72-.43,1.3-.72,1.94-.36.5-.79.94-1.15,1.51-.36.5-.43,1.22-.86,1.66-.5.36-1.22.29-1.66.58-.43.36-.5,1.01-.94,1.3h0Z"/>
      <path class="cls-8" d="m89.82,345.1h-10.44c-1.87-2.59-3.31-4.61-4.54-6.12-1.22-1.51-2.66-3.31-4.46-5.26h-1.08v7.63c0,.43.07.79.29,1.08.14.36.5.58.94.79.29.07.65.22,1.15.29.58.07,1.01.14,1.37.22v1.37h-14.62v-1.37c.43-.07.86-.07,1.51-.14.58-.07,1.01-.14,1.3-.29.5-.14.79-.43,1.01-.72.14-.29.22-.65.22-1.08v-17.86c0-.43-.07-.79-.22-1.08-.14-.29-.5-.5-1.01-.72-.43-.22-.86-.29-1.44-.43-.58-.07-1.01-.14-1.37-.22v-1.37h15.34c3.46,0,6.05.5,7.85,1.44,1.8,1.01,2.66,2.52,2.66,4.54,0,1.73-.58,3.17-1.66,4.25s-2.74,1.94-5.04,2.52c.86,1.08,1.94,2.3,3.1,3.67,1.15,1.37,2.38,2.74,3.6,4.18.43.5.94,1.08,1.66,1.73.65.65,1.3,1.08,1.8,1.22.29.07.65.14,1.15.22.43.07.72.14.94.14v1.37h0Zm-13.1-18.79c0-1.73-.5-2.95-1.51-3.74-1.01-.72-2.52-1.15-4.39-1.15h-1.51v10.58h1.44c1.94,0,3.38-.43,4.39-1.37,1.08-.86,1.58-2.38,1.58-4.32h0Z"/>
      <path class="cls-8" d="m119.56,345.1h-14.9v-1.37c.72-.07,1.51-.14,2.45-.36.94-.22,1.44-.43,1.44-.72,0-.07,0-.14-.07-.29,0-.14-.07-.29-.14-.5l-2.3-5.26h-9.43c-.22.5-.5,1.08-.72,1.73-.29.65-.5,1.22-.72,1.8-.22.65-.36,1.08-.43,1.44,0,.29-.07.5-.07.58,0,.43.36.72.94,1.01.65.22,1.66.43,3.1.58v1.37h-11.16v-1.37c.43,0,.86-.07,1.44-.22.5-.07.94-.22,1.22-.43.58-.29,1.01-.58,1.37-1.01.36-.43.65-.94.94-1.51,1.44-3.31,2.95-6.7,4.46-10.01,1.51-3.38,3.1-7.06,4.97-11.09h3.82c2.52,5.69,4.46,10.22,5.9,13.54,1.44,3.38,2.66,6.12,3.67,8.28.14.36.36.72.65,1.01.22.29.58.58,1.08.79.36.22.79.36,1.22.43.5.14.94.22,1.3.22v1.37h0Zm-14.33-10.22l-3.96-9.14-3.96,9.14h7.92Z"/>
      <path class="cls-8" d="m149.36,321.19c-.43.07-.86.14-1.22.22-.43.14-.79.29-1.22.5-.5.29-.94.65-1.3,1.01-.29.29-.58.79-.86,1.37-.43.79-.94,2.02-1.66,3.6s-1.58,3.38-2.52,5.4c-.79,1.8-1.66,3.74-2.66,5.9-.94,2.16-1.87,4.25-2.74,6.19h-3.82c-1.8-4.1-3.67-8.21-5.54-12.46-1.87-4.18-3.17-7.13-3.89-8.71-.29-.65-.58-1.08-.86-1.37s-.72-.65-1.37-.94c-.43-.22-.79-.36-1.08-.5-.36-.07-.79-.14-1.37-.22v-1.37h14.83v1.3c-1.44.22-2.38.36-2.81.5-.5.22-.79.43-.79.65,0,.14.07.29.07.43.07.14.14.36.22.58.43,1.08,1.15,2.81,2.23,5.18s2.66,5.98,4.82,10.8c1.3-2.95,2.38-5.47,3.24-7.49.79-2.02,1.58-3.82,2.23-5.4.36-.79.58-1.51.79-2.16.22-.65.36-1.15.36-1.44,0-.43-.29-.72-.94-1.01-.58-.22-1.66-.43-3.24-.58v-1.37h11.09v1.37h0Z"/>
      <path class="cls-8" d="m174.13,326.23h-1.51c-.36-.94-1.01-1.94-1.94-2.88-.86-1.01-1.8-1.58-2.66-1.8-.43-.07-.94-.07-1.66-.14h-5.62v9.79h2.81c.72,0,1.3-.07,1.87-.29.58-.14,1.15-.43,1.58-.86.29-.29.65-.72.94-1.44.29-.72.5-1.3.58-1.8h1.44v10.58h-1.44c-.07-.5-.29-1.15-.58-1.94-.36-.72-.65-1.22-.94-1.51-.36-.43-.86-.72-1.44-.86-.65-.22-1.3-.29-2.02-.29h-2.81v7.34c0,.72.07,1.3.14,1.8.14.43.36.79.72,1.01.29.22.72.36,1.3.43.58.07,1.3.14,2.3.14.43,0,.94-.07,1.58-.07s1.22,0,1.66-.07c.58-.07,1.08-.14,1.51-.29.5-.14.86-.29,1.08-.5.58-.58,1.3-1.51,2.09-2.66.72-1.22,1.22-2.09,1.51-2.66h1.37l-.5,7.85h-25.63v-1.37c.36,0,.86-.07,1.44-.14.65-.07,1.08-.14,1.37-.29.43-.14.79-.43.94-.72.22-.29.29-.65.29-1.08v-17.86c0-.43-.07-.79-.22-1.08-.14-.29-.5-.5-1.01-.72-.36-.14-.86-.29-1.44-.43-.58-.07-1.08-.22-1.37-.22v-1.37h24.26v6.41h0Z"/>
      <path class="cls-8" d="m209.7,321.19c-.36,0-.86.07-1.51.22-.72.07-1.3.29-1.8.65-.5.36-.86.86-1.08,1.66-.14.79-.29,1.94-.29,3.46v18.07h-3.38l-17.06-19.58v11.88c0,1.51.14,2.59.36,3.38.22.79.5,1.3,1.01,1.66.36.29.94.5,1.66.72.79.22,1.37.36,1.8.43v1.37h-11.74v-1.37c.5-.07,1.08-.14,1.73-.29.65-.14,1.22-.36,1.66-.65.43-.29.79-.86,1.01-1.51.14-.72.29-1.87.29-3.53v-11.95c0-.65-.14-1.15-.29-1.73-.22-.5-.58-.94-.94-1.37-.5-.36-1.01-.72-1.58-.94-.58-.22-1.22-.43-2.02-.58v-1.37h10.3l14.98,17.06v-9.58c0-1.51-.14-2.59-.36-3.38-.22-.72-.58-1.3-1.01-1.66-.36-.22-.94-.5-1.66-.65-.72-.22-1.37-.36-1.8-.43v-1.37h11.74v1.37h0Z"/>
      <path class="cls-8" d="m242.82,321.19c-.36,0-.86.07-1.58.22-.65.07-1.22.29-1.8.65-.43.36-.79.86-1.01,1.66-.14.79-.29,1.94-.29,3.46v18.07h-3.46l-16.99-19.58v11.88c0,1.51.07,2.59.36,3.38.14.79.5,1.3,1.01,1.66.36.29.86.5,1.66.72.72.22,1.37.36,1.8.43v1.37h-11.74v-1.37c.5-.07,1.08-.14,1.73-.29.65-.14,1.15-.36,1.58-.65.5-.29.86-.86,1.08-1.51.14-.72.29-1.87.29-3.53v-11.95c0-.65-.14-1.15-.36-1.73-.14-.5-.5-.94-.94-1.37-.43-.36-.94-.72-1.51-.94-.58-.22-1.3-.43-2.02-.58v-1.37h10.3l14.98,17.06v-9.58c0-1.51-.14-2.59-.36-3.38-.22-.72-.58-1.3-1.01-1.66-.43-.22-.94-.5-1.66-.65-.79-.22-1.37-.36-1.8-.43v-1.37h11.74v1.37h0Z"/>
      <path class="cls-8" d="m274.21,345.1h-14.9v-1.37c.65-.07,1.51-.14,2.45-.36.94-.22,1.37-.43,1.37-.72v-.29c0-.14-.07-.29-.14-.5l-2.38-5.26h-9.43c-.22.5-.43,1.08-.72,1.73-.29.65-.5,1.22-.65,1.8-.29.65-.43,1.08-.43,1.44-.07.29-.07.5-.07.58,0,.43.29.72.94,1.01.58.22,1.66.43,3.1.58v1.37h-11.23v-1.37c.43,0,.94-.07,1.44-.22.5-.07.94-.22,1.3-.43.5-.29.94-.58,1.3-1.01.36-.43.72-.94.94-1.51,1.51-3.31,2.95-6.7,4.46-10.01,1.51-3.38,3.17-7.06,4.97-11.09h3.82c2.52,5.69,4.54,10.22,5.98,13.54,1.37,3.38,2.59,6.12,3.6,8.28.14.36.36.72.65,1.01.22.29.65.58,1.08.79.36.22.79.36,1.3.43.43.14.86.22,1.3.22v1.37h0Zm-14.4-10.22l-3.96-9.14-3.89,9.14h7.85Z"/>
      <path class="cls-8" d="m106.16,383.33c-1.8,0-3.53-.29-5.11-.94-1.58-.58-2.95-1.44-4.18-2.59-1.15-1.15-2.09-2.52-2.74-4.18-.65-1.58-1.01-3.46-1.01-5.4s.36-3.82,1.01-5.47c.72-1.66,1.66-3.1,2.88-4.32,1.15-1.22,2.59-2.16,4.25-2.81,1.73-.65,3.53-1.01,5.4-1.01,1.37,0,2.66.22,3.74.58,1.15.29,2.09.72,2.88,1.08l1.08-.94h1.58l.14,9.22h-1.58c-.86-2.81-1.87-4.9-3.1-6.19-1.3-1.3-2.74-1.94-4.54-1.94-2.16,0-3.89.94-5.04,2.88-1.08,2.02-1.66,4.75-1.66,8.28,0,2.02.14,3.74.58,5.18.36,1.44.86,2.59,1.51,3.46.65.86,1.51,1.51,2.38,1.94.94.43,1.94.65,3.1.65,1.66,0,3.1-.43,4.39-1.37,1.3-.86,2.45-2.23,3.53-4.1l1.51.94c-.5,1.08-1.08,2.02-1.73,2.81-.65.86-1.44,1.58-2.23,2.16-.94.65-1.94,1.15-3.1,1.51-1.08.36-2.45.58-3.96.58h0Z"/>
      <path class="cls-8" d="m145.84,382.61h-13.54v-1.37c.65-.07,1.37-.14,2.23-.36.86-.14,1.3-.43,1.3-.65,0-.14,0-.22-.07-.36,0-.07-.07-.29-.14-.43l-2.09-5.26h-8.64c-.14.43-.43,1.01-.65,1.66-.22.72-.43,1.3-.65,1.8-.22.65-.29,1.15-.36,1.44-.07.29-.07.5-.07.58,0,.43.29.72.86,1.01.58.29,1.51.43,2.81.58v1.37h-10.22v-1.37c.43,0,.86-.07,1.37-.22.43-.07.86-.22,1.15-.36.43-.29.86-.65,1.22-1.08.29-.43.58-.94.79-1.51,1.37-3.31,2.74-6.62,4.1-10.01,1.37-3.38,2.88-7.06,4.46-11.09h3.53c2.3,5.76,4.1,10.22,5.4,13.61,1.3,3.31,2.38,6.05,3.31,8.28.14.36.36.65.58.94.22.29.58.58,1.01.86.36.14.72.29,1.15.43.43.07.79.14,1.15.14v1.37h0Zm-13.03-10.22l-3.67-9.14-3.53,9.14h7.2Z"/>
      <path class="cls-8" d="m169.52,374.54l-.5,8.06h-22.97v-1.37c.43,0,.94-.07,1.44-.14.58-.07.94-.14,1.15-.22.36-.22.65-.43.86-.72.14-.29.22-.72.22-1.15v-17.86c0-.43-.07-.79-.22-1.08-.07-.29-.43-.5-.86-.72-.36-.14-.79-.29-1.37-.43-.5-.07-.86-.14-1.22-.22v-1.37h13.68v1.37c-.36.07-.79.07-1.3.14-.5.07-.94.14-1.3.29-.5.14-.79.43-.94.72-.14.36-.22.72-.22,1.15v16.63c0,.79,0,1.37.14,1.8.07.5.29.79.58,1.01.36.29.79.43,1.3.43.58.07,1.3.14,2.23.14s1.87-.07,2.74-.22c.94-.07,1.51-.36,1.94-.72.58-.58,1.22-1.44,1.8-2.52.65-1.15,1.15-2.16,1.51-3.02h1.3Z"/>
      <path class="cls-8" d="m183.78,383.33c-1.8,0-3.53-.29-5.11-.94-1.58-.58-3.02-1.44-4.18-2.59-1.15-1.15-2.09-2.52-2.74-4.18-.65-1.58-1.01-3.46-1.01-5.4s.36-3.82,1.01-5.47c.72-1.66,1.66-3.1,2.88-4.32,1.15-1.22,2.59-2.16,4.25-2.81,1.73-.65,3.46-1.01,5.4-1.01,1.37,0,2.66.22,3.74.58,1.15.29,2.09.72,2.88,1.08l1.08-.94h1.58l.14,9.22h-1.58c-.86-2.81-1.87-4.9-3.17-6.19-1.22-1.3-2.66-1.94-4.46-1.94-2.16,0-3.89.94-5.04,2.88-1.15,2.02-1.73,4.75-1.73,8.28,0,2.02.22,3.74.65,5.18.36,1.44.86,2.59,1.51,3.46.65.86,1.51,1.51,2.38,1.94.94.43,1.94.65,3.1.65,1.66,0,3.1-.43,4.39-1.37,1.3-.86,2.45-2.23,3.46-4.1l1.51.94c-.5,1.08-1.08,2.02-1.66,2.81-.65.86-1.44,1.58-2.23,2.16-.94.65-1.94,1.15-3.1,1.51-1.08.36-2.45.58-3.96.58h0Z"/>
      <path class="cls-8" d="m210.13,382.61h-13.82v-1.37c.36,0,.79-.07,1.44-.07.58-.07,1.01-.14,1.22-.22.43-.22.72-.43.94-.72.14-.29.22-.65.22-1.15v-17.93c0-.43-.07-.72-.22-1.08-.14-.29-.43-.58-.94-.72-.22-.14-.65-.29-1.22-.36-.58-.14-1.01-.22-1.44-.29v-1.37h13.82v1.37c-.36.07-.79.07-1.3.14-.5.07-1.01.14-1.37.29-.43.14-.72.43-.86.72-.14.36-.22.72-.22,1.15v17.93c0,.43.07.79.22,1.08.14.29.43.5.86.72.29.14.65.22,1.22.29.58.14,1.08.22,1.44.22v1.37h0Z"/>
      <path class="cls-8" d="m235.48,360.14c1.22,1.15,2.23,2.52,2.95,4.1.72,1.66,1.08,3.53,1.08,5.54,0,1.87-.36,3.6-.94,5.26-.65,1.66-1.51,3.1-2.66,4.32-1.15,1.22-2.59,2.23-4.25,2.95-1.58.65-3.53,1.01-5.76,1.01-1.87,0-3.53-.29-5.18-.94-1.58-.58-3.02-1.44-4.25-2.59s-2.16-2.52-2.88-4.18c-.72-1.58-1.08-3.38-1.08-5.4s.36-3.89,1.01-5.62c.72-1.66,1.66-3.1,2.88-4.32,1.22-1.15,2.66-2.09,4.32-2.74,1.66-.58,3.38-.94,5.26-.94s3.6.29,5.26.94,3.02,1.51,4.25,2.59h0Zm-4.54,18.07c.58-1.08.94-2.3,1.15-3.67.22-1.37.36-2.88.36-4.61,0-1.44-.07-2.88-.29-4.25-.22-1.44-.58-2.66-1.08-3.74-.5-1.08-1.15-1.94-2.02-2.59-.79-.65-1.8-.94-3.1-.94-2.09,0-3.67,1.01-4.82,3.02-1.08,2.02-1.66,4.9-1.66,8.64,0,1.58.14,3.1.36,4.46.29,1.44.65,2.66,1.15,3.67.5,1.08,1.22,1.87,2.02,2.45.79.65,1.8.94,2.95.94s2.16-.29,3.02-.94c.79-.58,1.44-1.37,1.94-2.45h0Z"/>
      <polygon class="cls-5" points="73.44 394.13 259.2 394.13 259.2 397.73 73.44 397.73 73.44 394.13 73.44 394.13"/>
      <path class="cls-1" d="m148.1,421.7h-10.73v-.29c3.31-3.89,5.26-6.55,5.98-7.92.72-1.3,1.08-2.66,1.08-3.96,0-.94-.29-1.73-.86-2.3-.58-.65-1.3-.94-2.16-.94-1.37,0-2.45.65-3.24,2.09l-.5-.22c.5-1.73,1.22-2.95,2.23-3.82,1.01-.79,2.16-1.22,3.38-1.22.94,0,1.8.22,2.59.65.72.43,1.3,1.01,1.73,1.73.43.79.65,1.51.65,2.16,0,1.15-.29,2.38-.94,3.6-.94,1.66-2.88,3.96-5.98,6.91h3.96c.94,0,1.58,0,1.87-.07.29-.07.5-.22.72-.43s.43-.58.72-1.22h.5l-1.01,5.26h0Z"/>
      <path class="cls-1" d="m165.1,412.63c0,1.8-.29,3.53-.79,5.04-.29,1.01-.72,1.8-1.22,2.45-.5.58-1.08,1.08-1.73,1.44s-1.37.58-2.16.58c-.86,0-1.66-.29-2.38-.72-.72-.43-1.37-1.08-1.87-1.87-.43-.65-.72-1.44-1.08-2.45-.36-1.37-.58-2.81-.58-4.25,0-2.02.29-3.82.86-5.47.43-1.37,1.15-2.45,2.09-3.17.94-.72,1.94-1.08,2.95-1.08,1.08,0,2.02.36,2.95,1.08s1.58,1.66,2.02,2.88c.65,1.73.94,3.53.94,5.54h0Zm-4.18-.07v-5.54c-.14-1.22-.36-2.09-.65-2.52-.22-.29-.65-.43-1.15-.43-.36,0-.65.07-.86.29-.36.36-.58.86-.72,1.66-.07.79-.14,3.6-.14,8.35,0,2.52.07,4.25.29,5.18.14.65.29,1.01.58,1.22.22.22.58.36,1.01.36s.72-.14,1.01-.43c.36-.5.58-1.3.65-2.3v-5.83h0Z"/>
      <path class="cls-1" d="m180.72,412.63c0,1.8-.29,3.53-.79,5.04-.29,1.01-.72,1.8-1.22,2.45-.5.58-1.08,1.08-1.73,1.44-.65.36-1.37.58-2.16.58-.86,0-1.66-.29-2.38-.72-.72-.43-1.3-1.08-1.87-1.87-.43-.65-.72-1.44-1.01-2.45-.43-1.37-.65-2.81-.65-4.25,0-2.02.29-3.82.86-5.47.43-1.37,1.15-2.45,2.09-3.17.94-.72,1.94-1.08,2.95-1.08,1.08,0,2.02.36,2.95,1.08s1.58,1.66,2.02,2.88c.65,1.73.94,3.53.94,5.54h0Zm-4.18-.07v-5.54c-.14-1.22-.36-2.09-.65-2.52-.22-.29-.58-.43-1.15-.43-.36,0-.65.07-.86.29-.36.36-.58.86-.65,1.66-.14.79-.22,3.6-.22,8.35,0,2.52.07,4.25.29,5.18.14.65.29,1.01.58,1.22.22.22.58.36,1.01.36s.79-.14,1.01-.43c.36-.5.58-1.3.65-2.3v-5.83h0Z"/>
      <path class="cls-1" d="m192.53,403.13v14.9c0,1.08.07,1.8.14,2.16.14.29.36.58.65.72.29.22.79.29,1.51.29h.43v.5h-9.65v-.5h.5c.79,0,1.37-.07,1.66-.22.36-.22.58-.43.65-.79.14-.29.22-1.01.22-2.16v-9.43c0-.86-.07-1.37-.14-1.58-.07-.22-.22-.43-.43-.58-.22-.14-.5-.22-.79-.22-.43,0-1.01.14-1.66.43l-.22-.5,6.7-3.02h.43Z"/>
      <path class="cls-6" d="m166.28,428.11c-16.49,0-30.02,13.46-30.02,30.02s13.54,30.02,30.02,30.02,30.1-13.46,30.1-30.02-13.54-30.02-30.1-30.02h0Z"/>
      <path class="cls-1" d="m166.28,428.83c-8.06,0-15.34,3.31-20.66,8.57-5.33,5.33-8.64,12.67-8.64,20.74s3.31,15.41,8.64,20.74c5.33,5.26,12.6,8.57,20.66,8.57s15.41-3.31,20.74-8.57c5.33-5.33,8.64-12.67,8.64-20.74s-3.31-15.41-8.64-20.74c-5.33-5.26-12.6-8.57-20.74-8.57h0Zm-21.67,7.56c5.54-5.54,13.25-9,21.67-9s16.2,3.46,21.74,9,9.07,13.25,9.07,21.74-3.46,16.13-9.07,21.74-13.25,9-21.74,9-16.13-3.46-21.67-9c-5.62-5.62-9.07-13.25-9.07-21.74s3.46-16.13,9.07-21.74h0Z"/>
      <path class="cls-8" d="m157.07,443.3c-3.53,1.87-7.42,2.74-11.66,2.52.58,4.03.86,8.06.79,12.1,3.02-.36,6.05-.22,9.07.07,1.87-2.81,3.74-5.62,5.62-8.5-1.8-1.87-3.02-3.96-3.82-6.19h0Z"/>
      <path class="cls-8" d="m188.46,445.46c-3.74-.43-7.49-2.02-11.23-4.18-1.15,3.1-3.17,5.9-5.98,8.35,2.74,2.45,4.9,5.47,6.19,9.29,3.46-2.16,6.84-2.95,10.3-3.1-.07-3.6.14-7.06.72-10.37h0Z"/>
      <path class="cls-8" d="m172.62,437.11h-11.09c-1.15-2.23-2.59-4.18-4.75-5.69,1.37-1.44,3.31-2.3,5.33-3.02,2.88-.36,5.69-.36,8.5,0,2.02.79,3.89,1.66,5.18,3.17-1.22,1.3-2.23,3.17-3.17,5.54h0Z"/>
      <path class="cls-8" d="m146.2,480.31c-5.11-4.97-8.5-10.73-9.5-17.71,1.8.29,3.6.58,5.4.86.65,3.96,2.59,7.2,5.26,10.15-.43,2.23-.79,4.46-1.15,6.7h0Z"/>
      <path class="cls-8" d="m186.37,480.31c5.04-4.97,8.42-10.73,9.5-17.71-1.87.29-3.67.58-5.47.86-.58,3.96-2.59,7.2-5.18,10.15.36,2.23.72,4.46,1.15,6.7h0Z"/>
      <path class="cls-8" d="m171.76,467.93c-3.17.58-6.62.72-10.51,0-1.44,2.59-3.24,5.11-6.05,7.06,3.89,2.38,7.56,5.11,11.09,8.14,3.17-2.95,6.48-5.76,9.94-8.35-2.09-1.94-3.38-4.32-4.46-6.84h0Z"/>
      <path class="cls-8" d="m141.59,441.43l4.18,4.03,3.89,3.6h2.52l4.46-6.05h0l4.46-6.19h0l5.11-6.48.36-.43.36.36,6.05,6.48,4.61,4.18h0l7.06,7.13.29.29-.22.29-.36.58h1.37l.14.36,2.3,6.12h0l3.31,7.85h0l1.58,4.32.07.14-.07.22-2.09,5.04-.14.29h-.29l-5.33.58-8.93,1.08-10.08,1.66-.07.07v-.07h-.14l-10.87-1.37h-.07l-7.85-1.37h0l-5.62-1.22-.22-.07-.14-.22-2.09-5.83-.07-.22.14-.22,2.52-3.17,4.03-5.62h0l5.69-7.56h-2.16l-.14-.07-4.1-3.74h0l-4.18-4.03.72-.72h0Zm11.81,7.63l7.49-.07h0l10.37.14,11.95.07.43-.72-6.77-6.84h0l-4.54-4.18h-.07l-5.69-6.05-4.68,5.98-4.39,6.19h0l-4.1,5.47h0Zm7.49.94h-8.21l-.94,1.3.22-.14,3.74,6.62h0l5.98,9.86h0l4.54,7.42,5.11-7.42h0l5.69-9h.07l5.47-8.42-11.3-.07h0l-10.37-.14h0Zm24.19.22h-1.37l-5.83,8.93h0l-5.69,9v.07l-5.18,7.49,9.14-1.44h0l9-1.15h0l5.04-.5,1.87-4.61-1.51-4.1-3.31-7.85h0l-2.16-5.83h0Zm-29.81,24.26l10.22,1.3-4.68-7.63h0l-5.98-9.86h0l-3.6-6.34-4.68,6.26h0l-4.03,5.54h0l-2.38,2.95,1.94,5.26,5.33,1.15,7.85,1.37h0Z"/>
      <polygon class="cls-8" points="153.83 430.56 157.57 430.92 175.14 431.06 178.52 430.27 178.74 431.28 175.28 432 175.21 432 175.21 432 157.57 431.93 157.57 431.93 157.5 431.93 153.76 431.5 153.83 430.56 153.83 430.56"/>
      <polygon class="cls-8" points="192.35 443.38 188.17 446.4 187.6 445.61 191.77 442.51 192.35 443.38 192.35 443.38"/>
      <polygon class="cls-8" points="166.79 482.04 167.08 488.02 166.07 488.09 165.85 482.11 166.79 482.04 166.79 482.04"/>
    </g>
  </g>
</svg>