<?xml version="1.0" encoding="UTF-8"?>
<svg id="Layer_2" data-name="Layer 2" xmlns="http://www.w3.org/2000/svg" xmlns:xlink="http://www.w3.org/1999/xlink" viewBox="0 0 237.84 382.8">
  <defs>
    <style>
      .cls-1 {
        clip-path: url(#clippath);
      }

      .cls-2, .cls-3, .cls-4, .cls-5, .cls-6, .cls-7, .cls-8, .cls-9, .cls-10, .cls-11, .cls-12, .cls-13, .cls-14, .cls-15, .cls-16, .cls-17, .cls-18, .cls-19, .cls-20, .cls-21, .cls-22, .cls-23, .cls-24, .cls-25, .cls-26, .cls-27, .cls-28, .cls-29, .cls-30, .cls-31, .cls-32, .cls-33, .cls-34 {
        stroke-width: 0px;
      }

      .cls-2, .cls-35 {
        fill: none;
      }

      .cls-3 {
        fill: #004a91;
      }

      .cls-3, .cls-4, .cls-5, .cls-6, .cls-7, .cls-8, .cls-9, .cls-10, .cls-11, .cls-12, .cls-13, .cls-14, .cls-15, .cls-16, .cls-17, .cls-18, .cls-19, .cls-20, .cls-21, .cls-22, .cls-23, .cls-24, .cls-25, .cls-26, .cls-27, .cls-28, .cls-29, .cls-30, .cls-31, .cls-32, .cls-33, .cls-34 {
        fill-rule: evenodd;
      }

      .cls-4 {
        fill: #004d97;
      }

      .cls-5 {
        fill: #1b1918;
      }

      .cls-6 {
        fill: #336ea5;
      }

      .cls-7 {
        fill: #195c9b;
      }

      .cls-8 {
        fill: #4c80ae;
      }

      .cls-9 {
        fill: #da2938;
      }

      .cls-10 {
        fill: #b1c7d6;
      }

      .cls-11 {
        fill: #d61122;
      }

      .cls-12 {
        fill: #d71223;
      }

      .cls-13 {
        fill: #e25863;
      }

      .cls-14 {
        fill: #cad9df;
      }

      .cls-15 {
        fill: #de404d;
      }

      .cls-16 {
        fill: #ed9fa4;
      }

      .cls-17 {
        fill: #fbfcf7;
      }

      .cls-18 {
        fill: #f5ced0;
      }

      .cls-19 {
        fill: #fff;
      }

      .cls-20 {
        fill: #ea878f;
      }

      .cls-21 {
        fill: #e4ebe9;
      }

      .cls-22 {
        fill: #e66f79;
      }

      .cls-23 {
        fill: #fdfdfb;
      }

      .cls-24 {
        fill: #fdfdf3;
      }

      .cls-25 {
        fill: #7fa4c2;
      }

      .cls-26 {
        fill: #6592b8;
      }

      .cls-27 {
        fill: #98b5cc;
      }

      .cls-28 {
        fill: #f1b6ba;
      }

      .cls-29 {
        fill: #304888;
      }

      .cls-30 {
        fill: #304886;
      }

      .cls-31 {
        fill: #30478a;
      }

      .cls-32 {
        fill: #f7f8fd;
      }

      .cls-33 {
        fill: #f9f8f6;
      }

      .cls-34 {
        fill: #f9e5e5;
      }

      .cls-35 {
        stroke: #1b1918;
        stroke-width: .43px;
      }
    </style>
    <clipPath id="clippath">
      <rect class="cls-2" width="237.84" height="382.8"/>
    </clipPath>
  </defs>
  <g id="Layer_1-2" data-name="Layer 1">
    <g>
      <path class="cls-31" d="m132.08,142.17c0-.57.14-1.17.57-1.62,2.15-2.24,3.64-3.8,4.78-5.03,2.11-2.26,3.12-3.38,5.48-5.3.78-.63,1.84-.61,2.96-.56.64.03.83,1.51.77,2.32-.12,1.71-.54,4.05-.98,5.13-.41,1-.35,2.53.7,1.69,3.55-2.84,6.25-6.64,9.84-9.42.89-.69,2.31-1.32,3.3-.77.77.43,1.22,1.83,1.05,2.81-.25,1.47-.6,3.16-.7,4.85-.09,1.43-.51,2.81-.74,4.22-.12.77.04,1.15.76.5.38-.35.72-.68.86-1.15.08-.28.39-.5.62-.69,1.59-1.29,3.06-2.69,4.81-3.74.61-.37,1.46-.66,2.11-.35,1.22.57,2.11,1.7,2.95,2.74.64.79.89,1.83,1.41,2.71.41.7.73,1.45,1.26,2.06.63.71,1.72.8,2.64.12.8-.59,1.43-2.03,2.27-1.95.06,1.2-.05,3.07.05,4.34-.51.68-1.29,1.68-2.18,2.21-.96.58-2.11,1.26-3.2,1.02-1.77-.39-3.55-1.35-4.68-2.78-.84-1.06-1.53-2.45-3.02-3.2-.44-.22-.93-.56-1.41-.46-.82.18-1.53.74-2.21,1.23-.79.57-1.52,1.22-2.18,1.93-.58.63-.96,1.41-1.51,2.07-.57.69-1.22,1.31-1.83,1.97-.68.74-1.27,1.57-2.04,2.21-.62.52-1.3,1.02-2.08,1.27-.39.12-.89.03-1.19-.25-.35-.32-.64-.87-.53-1.34.9-3.59,2.2-7.12,2.71-10.86.08-.57.3-1.17.14-1.72-.08-.29-.47-.48-.77-.49-.46-.02-.92.17-1.3.42-.56.37-.93.97-1.44,1.41-.51.43-1.15.72-1.62,1.19-1.27,1.29-2.38,2.73-3.59,4.08-1.04,1.17-2.09,2.34-3.16,3.48-.52.55-1.01,1.13-1.62,1.58-.84.62-1.64,1.53-2.67,1.62-.56.05-1.05-.74-1.05-1.3-.02-1.42.61-2.78.98-4.15.33-1.23.76-2.43,1.12-3.66.19-.66.56-1.31.56-2,0-.38-.19-1.05-.56-1.06-.68,0-1.29.57-1.79,1.02-.82.74-1.4,1.72-2.11,2.57-.45.53-.89,1.08-1.37,1.58-.2.21-.38.53-.67.56-.21.02-.4-.25-.42-.46-.09-.95-.1-1.77-.09-2.62h0Z"/>
      <path class="cls-29" d="m128.36,155.7h14.13v45.77c-2.3,6.43-6.78,10.95-12.46,14.01-.88-1.27-1.56-4.27-1.57-6.7l-.11-53.09Z"/>
      <path class="cls-19" d="m137.84,166.51l1.12-2,1.06,2v7h-2.18v-3.62h-1.54v3.62h-2.18v-3.62h-1.65v3.62h-2.18v-7l1.12-2,1.06,2v1.86h1.65v-1.86l1.12-2,1.05,2v1.86h1.54v-1.86Z"/>
      <path class="cls-29" d="m181.05,155.7h-13.22l-.14,45.56c2.31,6.43,6.97,11.22,12.66,14.27.88-1.27.59-4.33.6-6.75l.11-53.09Z"/>
      <path class="cls-33" d="m169.53,169.06c-.06.04-.17,0-.19-.07-.05-.21-.04-.44,0-.65.01-.07.16-.08.16-.15,0-.18.05-.3.18-.32.08-.02.11-.15.09-.24-.01-.11.02-.18.13-.25.09-.06.09-.25.24-.28.08-.02.19-.04.21-.12.02-.13.07-.23.26-.16.11.04.28,0,.33-.12.06-.15.2-.07.37-.11.19-.03.36-.05.39.12.01.08.11.17.18.15.2-.05.22.02.24.11.02.08.13.15.21.14.35-.05.5.12.48.44,0,.09.07.22,0,.28-.06.05-.21-.14-.25-.06-.09.22.02.48.02.72,0,.22-.08.44-.05.65.01.07.07.11.12.16.08.08.14.2.06.33-.03.05-.11.05-.16.08-.08.05-.14.16-.24.18-.16.02-.45.09-.5-.07-.06-.19-.23-.25-.44-.18-.18.06-.41,0-.49-.12-.06-.08-.19-.08-.29-.11-.14-.04-.34.01-.39-.19-.03-.12,0-.3-.11-.37-.13-.09-.31-.08-.45-.02-.09.04-.04.21-.12.26h0Z"/>
      <path class="cls-33" d="m171.05,170.19c-.13-.1-.06-.23.08-.24.15,0,.36-.07.5-.01.11.04.13.21.24.27.13.07.28.1.43.12.15.03.32.09.46.04.12-.05.16-.21.24-.32.06-.08.19-.14.19-.25,0-.13-.13-.24-.17-.37-.08-.29-.32-.61-.18-.87.09-.17.29.26.47.31.16.04.34-.07.5-.04.15.03.24.21.39.22.21.02.41-.13.62-.14.47-.02.88-.09,1.13-.2.3-.12.67-.16.96-.03.38.16.75.26,1.14.16.2-.05.42.09.6.18.15.08.31.04.44.09.24.09.35.29.5.5.13.18.34.34.32.58,0,.17-.11.33.05.51.17.19.33.44.4.68.02.08-.09.18-.16.13-.26-.18-.33-.41-.71-.41-.12,0-.03.25-.06.37-.04.16.18.28.29.43.09.11.12.26.16.39.03.09.1.21.04.28-.11.12-.36.04-.48.14-.21.17-.43.33-.68.23-.26-.1-.53-.02-.73.12-.09.06-.18.11-.27.16-.07.04-.14.02-.21.05-.13.07-.25.24-.39.25-.23.01-.49.01-.68-.12-.15-.11-.34-.43-.18-.5.23-.1.56-.05.57-.25,0-.07-.01-.24-.08-.23-.26.05-.43-.04-.55-.16-.14-.14-.38.01-.57.05-.09.02-.16.07-.25.11-.1.05-.22.02-.31.09-.09.06-.14.21-.21.3-.08.11-.14.23-.23.34-.05.05-.1.11-.17.11-.27.01-.54-.08-.82-.05-.2.02-.37.16-.57.18-.34.03-.67-.04-1.01-.07-.17-.01-.35-.08-.51-.12l-.48-.1-.22-.44.27-.39.04-.36c.01-.12.09-.21.14-.32.11-.24.15-.49,0-.74-.08-.14.04-.38-.08-.49l-.22-.19Z"/>
      <path class="cls-30" d="m147.27,155.95h5.42v7h4.96l.03-7,5.1.07.07,46.55c2.34,7.62,7,13.28,15.08,17.56-8.64,12.13-32.17,15.58-45.42-.05,8.23-4.73,12.89-10.61,14.98-17.79l-.21-46.34Z"/>
      <path class="cls-19" d="m154.93,223.63c-.93,0-1.69.75-1.69,1.69s.76,1.69,1.69,1.69,1.69-.76,1.69-1.69-.76-1.69-1.69-1.69h0Z"/>
      <path class="cls-19" d="m152.79,220.25c-.93,0-1.69.75-1.69,1.69s.75,1.69,1.69,1.69,1.69-.76,1.69-1.69-.76-1.69-1.69-1.69h0Z"/>
      <path class="cls-19" d="m157.21,220.15c-.93,0-1.69.75-1.69,1.69s.75,1.69,1.69,1.69,1.69-.76,1.69-1.69-.76-1.69-1.69-1.69h0Z"/>
      <path class="cls-19" d="m150.5,216.84c-.93,0-1.69.75-1.69,1.69s.75,1.69,1.69,1.69,1.69-.76,1.69-1.69-.76-1.69-1.69-1.69h0Z"/>
      <path class="cls-19" d="m155,216.81c-.93,0-1.69.75-1.69,1.69s.75,1.69,1.69,1.69,1.69-.76,1.69-1.69-.76-1.69-1.69-1.69h0Z"/>
      <path class="cls-19" d="m159.43,216.77c-.93,0-1.69.75-1.69,1.69s.75,1.69,1.69,1.69,1.69-.76,1.69-1.69-.76-1.69-1.69-1.69h0Z"/>
      <path class="cls-19" d="m148.32,213.36c-.93,0-1.69.75-1.69,1.69s.76,1.69,1.69,1.69,1.69-.76,1.69-1.69-.76-1.69-1.69-1.69h0Z"/>
      <path class="cls-19" d="m152.75,213.25c-.93,0-1.69.75-1.69,1.69s.76,1.69,1.69,1.69,1.69-.76,1.69-1.69-.76-1.69-1.69-1.69h0Z"/>
      <path class="cls-19" d="m157.18,213.25c-.93,0-1.69.75-1.69,1.69s.75,1.69,1.69,1.69,1.69-.76,1.69-1.69-.76-1.69-1.69-1.69h0Z"/>
      <path class="cls-19" d="m161.54,213.29c-.93,0-1.69.75-1.69,1.69s.76,1.69,1.69,1.69,1.69-.76,1.69-1.69-.76-1.69-1.69-1.69h0Z"/>
      <path class="cls-32" d="m152.58,208.31l1.45-.37,1.3,4.61-1.45.39-1.3-4.62Z"/>
      <path class="cls-5" d="m105.62,343.61v-8.5h-2.65v-1.22c.96-.01,1.68-.2,2.17-.57.49-.37.77-.95.86-1.73h1.11v12.03h-1.49Z"/>
      <path class="cls-5" d="m112.48,335.57c0,.77.2,1.39.6,1.85.41.46.94.7,1.61.7.74,0,1.32-.23,1.75-.69.43-.45.64-1.08.64-1.88s-.21-1.44-.63-1.91c-.42-.47-.98-.71-1.69-.71s-1.24.24-1.66.72c-.41.48-.62,1.12-.62,1.91h0Zm-1.49,5.07h1.51c.02.59.21,1.06.57,1.4.36.34.85.51,1.48.51.83,0,1.47-.36,1.91-1.07.45-.71.7-1.8.78-3.27-.32.43-.71.76-1.17.99-.46.23-.98.34-1.55.34-1.08,0-1.95-.36-2.62-1.08-.66-.73-1-1.68-1-2.87s.35-2.17,1.06-2.91c.71-.74,1.64-1.11,2.79-1.11,1.33,0,2.35.48,3.06,1.45.71.96,1.07,2.37,1.07,4.19,0,2.16-.38,3.82-1.12,4.98-.75,1.16-1.82,1.74-3.22,1.74-1.08,0-1.94-.3-2.57-.89-.63-.6-.95-1.4-.96-2.41h0Z"/>
      <path class="cls-5" d="m121.61,343.61c.24-1.91.74-3.7,1.51-5.37.77-1.66,1.82-3.25,3.16-4.75h-6.22v-1.57h7.79v1.42c-1.29,1.47-2.31,3.06-3.07,4.76-.76,1.71-1.26,3.54-1.5,5.5h-1.67Z"/>
      <path class="cls-5" d="m135.32,339.96c0-.78-.21-1.4-.61-1.87-.41-.46-.95-.7-1.61-.7-.75,0-1.33.23-1.76.69-.43.46-.63,1.09-.63,1.89s.21,1.44.63,1.91c.43.47.99.7,1.71.7s1.23-.24,1.65-.72c.41-.48.62-1.12.62-1.91h0Zm1.49-5.08h-1.51c-.05-.63-.25-1.1-.6-1.43-.35-.32-.83-.48-1.45-.48-.83,0-1.47.36-1.91,1.08-.44.71-.7,1.8-.77,3.25.32-.43.71-.76,1.17-.98.46-.22.97-.34,1.53-.34,1.09,0,1.97.36,2.64,1.09.67.73,1,1.68,1,2.87s-.36,2.16-1.07,2.9c-.71.74-1.64,1.11-2.8,1.11-1.33,0-2.34-.49-3.05-1.46-.71-.97-1.06-2.37-1.06-4.19,0-2.14.38-3.8,1.13-4.97.75-1.17,1.81-1.75,3.17-1.75,1.08,0,1.92.29,2.54.86.62.57.97,1.39,1.03,2.44h0Z"/>
      <path class="cls-3" d="m196.91,105.49l-1.83-3.35-4.07.9-1.32-2.41,17.05-4.56,1.4,2.57-12.93,12.09-1.33-2.44,3.02-2.8Zm.91-4.14l1.23,2.25,4.46-4.03-5.69,1.78Z"/>
      <path class="cls-7" d="m196.98,105.5l-1.87-3.43-4.07.9-1.26-2.32,16.94-4.52,1.36,2.5-12.86,12.01-1.27-2.34,3.03-2.8Zm.76-4.18l1.29,2.36,4.69-4.24-5.98,1.88Z"/>
      <path class="cls-6" d="m197.05,105.51l-1.91-3.5-4.07.9-1.22-2.22,16.83-4.49,1.32,2.42-12.77,11.94-1.22-2.24,3.03-2.81Zm.62-4.22l1.35,2.48,4.93-4.45-6.28,1.97Z"/>
      <path class="cls-8" d="m197.12,105.52l-1.95-3.57-4.07.89-1.16-2.13,16.72-4.46,1.28,2.35-12.69,11.86-1.17-2.14,3.02-2.81Zm.47-4.26l1.42,2.6,5.16-4.66-6.58,2.06Z"/>
      <path class="cls-26" d="m197.18,105.53l-1.98-3.64-4.07.89-1.11-2.03,16.61-4.44,1.24,2.27-12.61,11.79-1.11-2.04,3.02-2.81Zm.33-4.31l1.48,2.72,5.4-4.87-6.88,2.15Z"/>
      <path class="cls-25" d="m197.25,105.54l-2.03-3.72-4.07.9-1.06-1.93,16.51-4.41,1.2,2.2-12.53,11.71-1.06-1.95,3.03-2.8Zm.18-4.35l1.55,2.84,5.63-5.09-7.18,2.25Z"/>
      <path class="cls-27" d="m197.32,105.55l-2.07-3.79-4.07.9-1-1.84,16.4-4.38,1.16,2.13-12.45,11.63-1-1.85,3.02-2.8Zm.03-4.39l1.61,2.95,5.87-5.3-7.48,2.34Z"/>
      <path class="cls-10" d="m197.39,105.56l-2.11-3.86-4.07.89-.95-1.74,16.3-4.35,1.12,2.05-12.36,11.56-.95-1.75,3.02-2.81Zm-.11-4.44l1.68,3.07,6.1-5.51-7.77,2.44Z"/>
      <path class="cls-14" d="m197.46,105.58l-2.15-3.93-4.07.9-.9-1.65,16.19-4.32,1.08,1.98-12.28,11.48-.9-1.65,3.03-2.8Zm-.26-4.48l1.74,3.19,6.33-5.72-8.07,2.53Z"/>
      <path class="cls-21" d="m197.52,105.58l-2.18-4-4.07.9-.85-1.55,16.08-4.29,1.04,1.9-12.2,11.41-.85-1.55,3.03-2.81Zm-.41-4.52l1.8,3.31,6.57-5.93-8.37,2.62Z"/>
      <path class="cls-24" d="m190.51,100.96l15.97-4.26,1,1.83-12.12,11.33-.79-1.45,3.02-2.81-2.22-4.07-4.07.9-.79-1.45Zm6.53.07l1.87,3.43,6.81-6.14-8.67,2.71Z"/>
      <path class="cls-3" d="m184.19,92.16l13.84-9.33,2.57,3.93c2.51,3.84-.26,7.21-3.42,9.39-6.49,4.45-8.79,2.42-12.7-3.54l-.29-.45Zm3.73.78c2.3,3.39,3.62,3.56,7.18,1.13,3.73-2.54,4.5-3.71,2.15-7.46l-9.33,6.33Z"/>
      <path class="cls-7" d="m184.26,92.17l13.75-9.26,2.54,3.88c2.49,3.81-.28,7.16-3.41,9.31-6.47,4.44-8.73,2.41-12.62-3.53l-.26-.4Zm3.59.75c2.34,3.46,3.68,3.64,7.28,1.19,3.77-2.56,4.54-3.76,2.14-7.58l-9.42,6.39Z"/>
      <path class="cls-6" d="m184.34,92.19l13.66-9.2,2.51,3.84c2.48,3.79-.28,7.11-3.39,9.24-6.43,4.42-8.67,2.4-12.54-3.51l-.23-.36Zm3.43.73c2.38,3.52,3.75,3.73,7.39,1.25,3.81-2.59,4.58-3.82,2.12-7.7l-9.51,6.46Z"/>
      <path class="cls-8" d="m184.41,92.2l13.57-9.14,2.48,3.79c2.46,3.75-.3,7.05-3.38,9.16-6.41,4.4-8.61,2.39-12.47-3.5l-.2-.31Zm3.28.69c2.42,3.59,3.81,3.81,7.5,1.31,3.85-2.62,4.62-3.87,2.11-7.83l-9.6,6.52Z"/>
      <path class="cls-26" d="m184.48,92.22l13.48-9.08,2.45,3.74c2.44,3.73-.31,6.99-3.37,9.09-6.38,4.38-8.55,2.38-12.39-3.48l-.18-.27Zm3.14.66c2.45,3.66,3.87,3.9,7.6,1.37,3.89-2.65,4.66-3.92,2.09-7.95l-9.69,6.58Z"/>
      <path class="cls-25" d="m184.56,92.23l13.39-9.02,2.42,3.7c2.43,3.7-.32,6.93-3.35,9.01-6.35,4.36-8.5,2.37-12.32-3.47l-.15-.22Zm2.99.64c2.49,3.73,3.94,3.98,7.7,1.42,3.93-2.67,4.7-3.98,2.08-8.07l-9.78,6.64Z"/>
      <path class="cls-27" d="m184.63,92.25l13.3-8.96,2.39,3.66c2.4,3.67-.33,6.88-3.34,8.94-6.33,4.35-8.43,2.37-12.24-3.45l-.12-.17Zm2.84.6c2.52,3.8,4,4.07,7.81,1.48,3.97-2.7,4.73-4.04,2.06-8.18l-9.87,6.7Z"/>
      <path class="cls-10" d="m184.71,92.26l13.21-8.9,2.36,3.61c2.39,3.65-.34,6.82-3.32,8.87-6.3,4.33-8.37,2.36-12.16-3.44l-.09-.14Zm2.69.58c2.56,3.86,4.07,4.16,7.91,1.55,4.01-2.73,4.77-4.1,2.05-8.31l-9.96,6.76Z"/>
      <path class="cls-14" d="m184.78,92.28l13.12-8.84,2.33,3.56c2.37,3.62-.36,6.76-3.31,8.79-6.28,4.3-8.31,2.35-12.09-3.42l-.06-.09Zm2.54.55c2.59,3.94,4.13,4.25,8.02,1.6,4.05-2.75,4.8-4.15,2.03-8.43l-10.05,6.82Z"/>
      <path class="cls-21" d="m184.85,92.29l13.04-8.78,2.3,3.52c2.35,3.59-.36,6.71-3.29,8.72-6.25,4.29-8.25,2.34-12.01-3.41l-.03-.04Zm2.4.52c2.63,4.01,4.19,4.34,8.12,1.66,4.09-2.78,4.84-4.21,2.02-8.55l-10.14,6.88Z"/>
      <path class="cls-24" d="m184.93,92.31l12.94-8.72,2.27,3.47c2.38,3.63-.48,6.72-3.28,8.64-6.13,4.21-8.11,2.45-11.94-3.39h0Zm2.25.49c2.82,4.3,4.48,4.27,8.23,1.72,4-2.72,4.96-4.16,2-8.67l-10.23,6.95Z"/>
      <path class="cls-3" d="m186.4,85.37l8.24-6.94,1.68,2.07-12.74,10.47-1.89-2.32,5.85-10.8-9.01,7.68-1.68-2.06,13.23-11.04,1.95,2.39-5.62,10.54Z"/>
      <path class="cls-7" d="m186.22,85.59l8.41-7.08,1.62,1.98-12.66,10.4-1.84-2.25,5.97-11.02-9.18,7.84-1.62-1.98,13.15-10.97,1.9,2.33-5.74,10.76Z"/>
      <path class="cls-6" d="m186.04,85.81l8.58-7.23,1.55,1.89-12.57,10.33-1.78-2.18,6.09-11.24-9.36,7.99-1.55-1.9,13.06-10.9,1.84,2.25-5.85,10.98Z"/>
      <path class="cls-8" d="m185.86,86.04l8.75-7.38,1.48,1.81-12.49,10.27-1.72-2.11,6.21-11.47-9.54,8.14-1.48-1.81,12.98-10.83,1.78,2.18-5.97,11.19Z"/>
      <path class="cls-26" d="m185.68,86.26l8.92-7.52,1.41,1.73-12.41,10.2-1.66-2.04,6.33-11.69-9.72,8.3-1.41-1.73,12.9-10.76,1.73,2.12-6.09,11.41Z"/>
      <path class="cls-25" d="m185.5,86.48l9.1-7.66,1.34,1.65-12.32,10.13-1.61-1.97,6.45-11.91-9.9,8.44-1.34-1.64,12.81-10.69,1.67,2.04-6.2,11.62Z"/>
      <path class="cls-27" d="m185.32,86.7l9.27-7.81,1.27,1.56-12.24,10.06-1.55-1.9,6.57-12.14-10.08,8.6-1.27-1.56,12.73-10.62,1.61,1.98-6.32,11.84Z"/>
      <path class="cls-10" d="m185.14,86.92l9.44-7.95,1.2,1.48-12.16,9.99-1.5-1.83,6.7-12.36-10.25,8.75-1.21-1.47,12.65-10.55,1.55,1.9-6.43,12.05Z"/>
      <path class="cls-14" d="m184.96,87.14l9.61-8.1,1.14,1.39-12.07,9.92-1.44-1.76,6.82-12.58-10.44,8.9-1.13-1.39,12.57-10.48,1.5,1.83-6.55,12.27Z"/>
      <path class="cls-21" d="m184.79,87.37l9.78-8.25,1.07,1.31-11.99,9.85-1.38-1.69,6.94-12.8-10.62,9.05-1.07-1.31,12.48-10.41,1.44,1.76-6.66,12.49Z"/>
      <path class="cls-24" d="m177.6,83.54l12.4-10.34,1.38,1.69-6.78,12.7,9.96-8.39,1,1.22-11.91,9.78-1.32-1.62,7.06-13.03-10.79,9.21-1-1.22Z"/>
      <path class="cls-3" d="m174,68.75c2.66-2.73,6.88-5.73,10.35-2.34,3.43,3.35.68,8.05-2.25,10.59-2.9,2.51-6.09,5.53-9.68,2.02-3.39-3.3-1.14-7.49,1.58-10.28h0Zm1.99,1.93c-1.45,1.49-3.63,4.47-1.66,6.39,2.01,1.96,4.42-.6,5.82-2.04,1.38-1.42,4.28-4.7,2.28-6.65-1.97-1.92-5.06.89-6.43,2.3h0Z"/>
      <path class="cls-7" d="m174.04,68.78c2.63-2.7,6.82-5.7,10.27-2.34,3.41,3.32.66,7.99-2.24,10.51-2.87,2.49-6.04,5.51-9.61,2.03-3.36-3.28-1.11-7.44,1.58-10.21h0Zm1.91,1.86c-1.47,1.51-3.66,4.51-1.66,6.46,2.04,1.99,4.47-.58,5.9-2.04,1.41-1.45,4.32-4.74,2.28-6.73-2-1.95-5.11.87-6.51,2.3h0Z"/>
      <path class="cls-6" d="m174.08,68.82c2.61-2.68,6.77-5.67,10.19-2.34,3.38,3.29.64,7.93-2.25,10.43-2.84,2.47-5.99,5.49-9.53,2.03-3.34-3.25-1.09-7.38,1.58-10.13h0Zm1.83,1.79c-1.5,1.54-3.68,4.56-1.66,6.54,2.07,2.02,4.52-.55,5.97-2.04,1.44-1.47,4.34-4.79,2.28-6.8-2.04-1.98-5.16.84-6.59,2.3h0Z"/>
      <path class="cls-8" d="m174.12,68.86c2.59-2.66,6.72-5.65,10.12-2.34,3.36,3.27.61,7.88-2.24,10.35-2.82,2.45-5.94,5.46-9.46,2.03-3.31-3.23-1.07-7.33,1.59-10.05h0Zm1.75,1.71c-1.52,1.56-3.71,4.61-1.66,6.61,2.1,2.05,4.57-.53,6.05-2.04,1.46-1.5,4.38-4.83,2.27-6.88-2.07-2.01-5.21.81-6.66,2.3h0Z"/>
      <path class="cls-26" d="m174.16,68.89c2.56-2.63,6.67-5.62,10.04-2.34,3.33,3.25.59,7.82-2.24,10.28-2.8,2.43-5.9,5.43-9.39,2.04-3.29-3.21-1.05-7.28,1.59-9.98h0Zm1.68,1.64c-1.55,1.59-3.74,4.66-1.66,6.69,2.13,2.08,4.63-.51,6.12-2.04,1.48-1.52,4.41-4.88,2.27-6.95-2.1-2.04-5.26.79-6.74,2.3h0Z"/>
      <path class="cls-25" d="m174.19,68.93c2.54-2.6,6.62-5.59,9.96-2.34,3.31,3.22.57,7.76-2.24,10.2-2.77,2.42-5.85,5.42-9.31,2.04-3.26-3.18-1.02-7.22,1.59-9.9h0Zm1.6,1.56c-1.57,1.61-3.77,4.71-1.66,6.77,2.16,2.11,4.68-.48,6.2-2.04,1.51-1.55,4.43-4.93,2.27-7.03-2.13-2.07-5.32.77-6.82,2.31h0Z"/>
      <path class="cls-27" d="m174.23,68.97c2.52-2.58,6.57-5.56,9.89-2.33,3.28,3.2.54,7.7-2.23,10.12-2.75,2.39-5.8,5.39-9.24,2.04-3.24-3.16-1-7.17,1.59-9.82h0Zm1.52,1.49c-1.6,1.64-3.79,4.76-1.66,6.84,2.19,2.14,4.73-.46,6.28-2.04,1.54-1.58,4.47-4.97,2.27-7.11-2.16-2.1-5.36.74-6.89,2.31h0Z"/>
      <path class="cls-10" d="m174.27,69.01c2.49-2.56,6.52-5.54,9.81-2.33,3.25,3.17.52,7.65-2.23,10.04-2.73,2.37-5.76,5.36-9.17,2.04-3.22-3.14-.98-7.11,1.59-9.75h0Zm1.45,1.41c-1.62,1.66-3.82,4.81-1.66,6.92,2.23,2.17,4.79-.43,6.36-2.04,1.56-1.6,4.49-5.02,2.27-7.18-2.19-2.13-5.42.72-6.97,2.31h0Z"/>
      <path class="cls-14" d="m174.31,69.05c2.47-2.54,6.47-5.52,9.74-2.33,3.23,3.14.5,7.59-2.23,9.96-2.71,2.35-5.71,5.34-9.09,2.04-3.2-3.11-.95-7.06,1.59-9.67h0Zm1.37,1.33c-1.64,1.69-3.84,4.86-1.65,7,2.25,2.2,4.84-.41,6.43-2.04,1.59-1.63,4.53-5.06,2.27-7.26-2.22-2.16-5.47.69-7.05,2.31h0Z"/>
      <path class="cls-21" d="m174.35,69.08c2.45-2.51,6.42-5.49,9.66-2.33,3.2,3.12.47,7.53-2.23,9.88-2.68,2.33-5.67,5.31-9.02,2.04-3.17-3.09-.93-7.01,1.59-9.59h0Zm1.29,1.26c-1.67,1.71-3.87,4.91-1.65,7.07,2.28,2.23,4.89-.39,6.5-2.04,1.61-1.66,4.55-5.11,2.27-7.34-2.25-2.19-5.52.67-7.12,2.31h0Z"/>
      <path class="cls-24" d="m174.39,69.12c2.34-2.4,6.33-5.5,9.59-2.33,3.23,3.15.34,7.57-2.23,9.8-2.55,2.21-5.59,5.33-8.95,2.05-3.24-3.15-.73-7.13,1.59-9.51h0Zm1.22,1.18c-1.54,1.59-3.96,4.9-1.65,7.15,2.34,2.28,5.01-.43,6.58-2.05,1.57-1.61,4.61-5.13,2.27-7.41-2.31-2.25-5.65.73-7.2,2.31h0Z"/>
      <path class="cls-3" d="m168.36,61.33l3.44,2.72,4.3-5.3,2.16,1.71-10.68,13.4-2.16-1.71,4.66-5.93-3.43-2.71-4.65,5.93-2.16-1.71,10.68-13.62,2.16,1.71-4.3,5.51Z"/>
      <path class="cls-7" d="m168.28,61.34l3.52,2.79,4.3-5.3,2.07,1.64-10.61,13.32-2.07-1.64,4.65-5.93-3.52-2.78-4.66,5.93-2.08-1.64,10.61-13.53,2.08,1.64-4.3,5.51Z"/>
      <path class="cls-6" d="m168.21,61.35l3.61,2.86,4.3-5.3,1.99,1.57-10.55,13.23-1.99-1.57,4.66-5.93-3.6-2.85-4.66,5.93-1.99-1.57,10.54-13.45,1.99,1.57-4.3,5.51Z"/>
      <path class="cls-8" d="m168.13,61.36l3.69,2.92,4.3-5.3,1.9,1.51-10.48,13.15-1.91-1.51,4.66-5.93-3.68-2.91-4.66,5.93-1.91-1.51,10.48-13.36,1.91,1.51-4.3,5.5Z"/>
      <path class="cls-26" d="m168.05,61.37l3.78,2.98,4.3-5.3,1.82,1.44-10.41,13.06-1.82-1.44,4.66-5.93-3.77-2.98-4.65,5.93-1.82-1.44,10.41-13.28,1.82,1.44-4.3,5.51Z"/>
      <path class="cls-25" d="m167.98,61.38l3.86,3.05,4.3-5.3,1.73,1.37-10.34,12.98-1.74-1.37,4.66-5.93-3.86-3.05-4.66,5.93-1.74-1.38,10.34-13.19,1.74,1.38-4.3,5.51Z"/>
      <path class="cls-27" d="m167.91,61.38l3.94,3.12,4.3-5.3,1.65,1.3-10.28,12.89-1.65-1.3,4.65-5.93-3.94-3.12-4.66,5.93-1.65-1.31,10.28-13.11,1.65,1.31-4.3,5.51Z"/>
      <path class="cls-10" d="m167.83,61.39l4.03,3.18,4.3-5.3,1.57,1.24-10.22,12.81-1.57-1.24,4.66-5.93-4.03-3.18-4.65,5.93-1.57-1.24,10.21-13.02,1.57,1.24-4.3,5.51Z"/>
      <path class="cls-14" d="m167.75,61.4l4.11,3.25,4.3-5.29,1.48,1.17-10.14,12.73-1.48-1.17,4.66-5.93-4.11-3.25-4.66,5.93-1.48-1.17,10.14-12.94,1.48,1.17-4.3,5.51Z"/>
      <path class="cls-21" d="m167.68,61.41l4.2,3.32,4.3-5.3,1.4,1.11-10.08,12.64-1.4-1.11,4.65-5.93-4.19-3.32-4.66,5.93-1.4-1.11,10.08-12.86,1.4,1.11-4.3,5.51Z"/>
      <path class="cls-24" d="m160.58,67.64l10.01-12.76,1.31,1.04-4.3,5.51,4.28,3.38,4.3-5.3,1.31,1.04-10.01,12.56-1.31-1.04,4.66-5.93-4.28-3.38-4.65,5.93-1.32-1.04Z"/>
      <path class="cls-3" d="m158.04,62.31l-3.27-1.98-3,2.76-2.36-1.43,12.7-12.41,2.51,1.51-5.35,16.85-2.36-1.43,1.14-3.89Zm-1.29-4.02l2.19,1.32,2.04-5.71-4.23,4.38Z"/>
      <path class="cls-7" d="m158.1,62.29l-3.34-2.02-3,2.76-2.27-1.37,12.62-12.33,2.43,1.47-5.32,16.74-2.27-1.37,1.14-3.88Zm-1.43-3.99l2.31,1.4,2.14-6.01-4.45,4.61Z"/>
      <path class="cls-6" d="m158.16,62.26l-3.41-2.06-3,2.76-2.17-1.31,12.54-12.25,2.36,1.43-5.29,16.63-2.17-1.31,1.13-3.88Zm-1.58-3.95l2.42,1.46,2.25-6.3-4.67,4.84Z"/>
      <path class="cls-8" d="m158.23,62.23l-3.49-2.1-3,2.76-2.08-1.25,12.46-12.17,2.29,1.38-5.25,16.53-2.08-1.25,1.14-3.89Zm-1.74-3.91l2.53,1.53,2.36-6.6-4.89,5.07Z"/>
      <path class="cls-26" d="m158.29,62.21l-3.55-2.14-3,2.76-1.98-1.2,12.38-12.09,2.22,1.34-5.21,16.42-1.99-1.2,1.14-3.88Zm-1.88-3.88l2.65,1.6,2.46-6.9-5.11,5.3Z"/>
      <path class="cls-25" d="m158.35,62.19l-3.62-2.19-3,2.76-1.89-1.14,12.3-12.02,2.15,1.29-5.18,16.32-1.89-1.14,1.14-3.88Zm-2.03-3.84l2.77,1.67,2.57-7.2-5.33,5.53Z"/>
      <path class="cls-27" d="m158.41,62.16l-3.69-2.23-3,2.76-1.79-1.09,12.22-11.94,2.07,1.25-5.15,16.21-1.79-1.08,1.13-3.89Zm-2.18-3.8l2.88,1.74,2.68-7.5-5.55,5.76Z"/>
      <path class="cls-10" d="m158.48,62.14l-3.76-2.27-3,2.76-1.7-1.03,12.14-11.86,2,1.21-5.12,16.1-1.7-1.03,1.14-3.88Zm-2.33-3.77l3,1.81,2.78-7.8-5.77,5.99Z"/>
      <path class="cls-14" d="m158.54,62.11l-3.84-2.32-3,2.76-1.61-.97,12.06-11.78,1.93,1.16-5.08,16-1.61-.97,1.14-3.88Zm-2.48-3.74l3.11,1.88,2.89-8.09-6,6.21Z"/>
      <path class="cls-21" d="m158.6,62.09l-3.9-2.36-3,2.76-1.51-.91,11.98-11.7,1.86,1.12-5.05,15.89-1.51-.91,1.14-3.89Zm-2.63-3.7l3.22,1.95,2.99-8.39-6.21,6.44Z"/>
      <path class="cls-24" d="m150.28,61.57l11.9-11.63,1.79,1.08-5.02,15.79-1.41-.86,1.13-3.88-3.97-2.4-3,2.76-1.42-.85Zm5.61-3.17l3.34,2.02,3.1-8.69-6.44,6.67Z"/>
      <path class="cls-3" d="m140.3,57.74l6.33-15.22,4.38,1.74c4.33,1.72,3.44,6.35,2,9.77-1.7,4-3.78,7.24-8.64,5.32l-4.07-1.6Zm3.62-1.5l1.46.62c2.24.95,4.16-1.72,4.9-3.48.96-2.28,2.35-5.49-.72-6.78l-1.4-.59-4.24,10.24Z"/>
      <path class="cls-7" d="m140.37,57.71l6.29-15.12,4.33,1.72c4.3,1.71,3.4,6.31,1.96,9.7-1.68,3.98-3.74,7.2-8.57,5.29l-4.02-1.58Zm3.48-1.45l1.51.64c2.27.96,4.21-1.72,4.97-3.52.98-2.31,2.36-5.54-.75-6.85l-1.45-.61-4.28,10.34Z"/>
      <path class="cls-6" d="m140.44,57.68l6.25-15.02,4.29,1.7c4.26,1.69,3.35,6.27,1.93,9.62-1.67,3.95-3.7,7.16-8.5,5.27l-3.96-1.57Zm3.34-1.39l1.56.66c2.3.98,4.27-1.72,5.04-3.54.99-2.34,2.37-5.59-.78-6.92l-1.5-.64-4.32,10.44Z"/>
      <path class="cls-8" d="m140.52,57.65l6.21-14.92,4.23,1.68c4.23,1.68,3.31,6.23,1.9,9.55-1.66,3.92-3.66,7.11-8.43,5.24l-3.91-1.55Zm3.19-1.33l1.6.68c2.34.99,4.33-1.72,5.11-3.57,1-2.37,2.38-5.65-.81-6.99l-1.55-.66-4.36,10.54Z"/>
      <path class="cls-26" d="m140.59,57.62l6.16-14.82,4.19,1.66c4.2,1.67,3.27,6.19,1.87,9.48-1.65,3.9-3.63,7.07-8.36,5.21l-3.86-1.53Zm3.06-1.27l1.66.7c2.38,1,4.39-1.71,5.18-3.6,1.01-2.4,2.38-5.7-.83-7.06l-1.6-.68-4.4,10.64Z"/>
      <path class="cls-25" d="m140.66,57.59l6.13-14.72,4.14,1.64c4.16,1.65,3.22,6.15,1.84,9.41-1.63,3.87-3.59,7.03-8.29,5.18l-3.82-1.5Zm2.91-1.21l1.7.72c2.41,1.02,4.45-1.72,5.25-3.63,1.03-2.43,2.4-5.76-.86-7.14l-1.65-.7-4.45,10.74Z"/>
      <path class="cls-27" d="m140.73,57.56l6.08-14.62,4.09,1.62c4.12,1.64,3.18,6.11,1.81,9.34-1.62,3.84-3.55,6.99-8.22,5.14l-3.76-1.48Zm2.77-1.15l1.75.74c2.44,1.03,4.5-1.71,5.32-3.66,1.04-2.46,2.4-5.81-.89-7.2l-1.7-.72-4.49,10.84Z"/>
      <path class="cls-10" d="m140.8,57.53l6.04-14.52,4.04,1.61c4.09,1.63,3.14,6.07,1.78,9.27-1.61,3.81-3.51,6.95-8.15,5.12l-3.71-1.47Zm2.63-1.09l1.8.76c2.47,1.05,4.56-1.71,5.4-3.68,1.05-2.49,2.41-5.87-.92-7.28l-1.75-.74-4.53,10.94Z"/>
      <path class="cls-14" d="m140.87,57.5l6-14.43,3.99,1.59c4.06,1.61,3.09,6.02,1.75,9.19-1.6,3.78-3.48,6.91-8.08,5.09l-3.66-1.44Zm2.49-1.04l1.85.79c2.51,1.06,4.62-1.71,5.47-3.71,1.06-2.52,2.41-5.93-.95-7.35l-1.8-.76-4.57,11.04Z"/>
      <path class="cls-21" d="m140.94,57.47l5.96-14.32,3.94,1.57c4.01,1.59,3.05,5.98,1.72,9.13-1.59,3.75-3.44,6.86-8.01,5.06l-3.61-1.43Zm2.35-.98l1.9.8c2.54,1.08,4.68-1.7,5.54-3.74,1.08-2.55,2.42-5.98-.98-7.41l-1.85-.78-4.61,11.14Z"/>
      <path class="cls-24" d="m143.22,56.52l1.95.82c2.57,1.09,4.73-1.69,5.61-3.77,1.08-2.56,2.45-6.03-1.01-7.49l-1.9-.8-4.65,11.24Zm-2.21.91l5.92-14.22,3.89,1.55c4.02,1.59,2.99,6,1.7,9.05-1.61,3.81-3.45,6.81-7.94,5.03l-3.56-1.41Z"/>
      <path class="cls-3" d="m137.05,53.17l-3.72-.89-1.95,3.56-2.69-.64,8.15-15.44,2.85.68.21,17.43-2.68-.64-.17-4.06Zm-2.46-3.44l2.48.59.14-5.86-2.62,5.27Z"/>
      <path class="cls-7" d="m137.1,53.13l-3.8-.9-1.94,3.56-2.58-.61,8.1-15.34,2.77.66.21,17.31-2.57-.61-.17-4.06Zm-2.59-3.36l2.61.62.15-6.17-2.76,5.55Z"/>
      <path class="cls-6" d="m137.15,53.08l-3.88-.92-1.95,3.56-2.47-.59,8.05-15.24,2.68.64.21,17.2-2.47-.59-.17-4.07Zm-2.71-3.28l2.75.65.15-6.48-2.89,5.83Z"/>
      <path class="cls-8" d="m137.2,53.04l-3.96-.94-1.95,3.56-2.37-.56,8-15.15,2.6.62.21,17.09-2.36-.56-.17-4.07Zm-2.85-3.2l2.88.68.16-6.79-3.04,6.1Z"/>
      <path class="cls-26" d="m137.25,52.99l-4.04-.96-1.94,3.56-2.26-.54,7.94-15.05,2.52.6.21,16.98-2.25-.54-.17-4.07Zm-2.98-3.12l3.01.71.17-7.09-3.18,6.38Z"/>
      <path class="cls-25" d="m137.31,52.95l-4.12-.98-1.95,3.56-2.15-.51,7.89-14.95,2.44.58.21,16.87-2.15-.51-.17-4.07Zm-3.11-3.04l3.14.75.17-7.41-3.31,6.66Z"/>
      <path class="cls-27" d="m137.36,52.91l-4.2-1-1.95,3.56-2.04-.48,7.84-14.85,2.36.56.21,16.76-2.04-.48-.17-4.07Zm-3.24-2.96l3.27.78.18-7.71-3.45,6.94Z"/>
      <path class="cls-10" d="m137.41,52.86l-4.28-1.02-1.94,3.56-1.94-.46,7.79-14.75,2.27.54.2,16.65-1.93-.46-.17-4.07Zm-3.37-2.88l3.4.81.19-8.03-3.59,7.22Z"/>
      <path class="cls-14" d="m137.46,52.82l-4.36-1.03-1.94,3.56-1.83-.43,7.73-14.65,2.19.52.2,16.54-1.83-.43-.17-4.07Zm-3.5-2.8l3.53.84.2-8.33-3.73,7.49Z"/>
      <path class="cls-21" d="m137.52,52.78l-4.44-1.05-1.95,3.56-1.72-.41,7.68-14.55,2.11.5.2,16.43-1.72-.41-.17-4.07Zm-3.63-2.72l3.66.87.2-8.64-3.86,7.77Z"/>
      <path class="cls-24" d="m133.8,50.09l3.8.9.21-8.95-4.01,8.05Zm-4.31,4.75l7.63-14.45,2.03.48.2,16.32-1.61-.38-.17-4.07-4.51-1.07-1.95,3.56-1.61-.38Z"/>
      <path class="cls-3" d="m121.51,48.1l2.65.2-.17,2.16c-.04.45-.03,1.08.21,1.49.17.29.43.4.77.42.36.03.71-.02.93-.35.34-.52.48-2.22.53-2.84l.88-11.23,2.65.2-.97,12.51c-.09,1.18-.38,2.5-1.23,3.38-.81.84-1.93,1.06-3.07.98-1.11-.09-2.07-.54-2.68-1.5-.65-1.02-.73-2.36-.64-3.53l.15-1.9Z"/>
      <path class="cls-7" d="m121.56,48.16l2.54.19-.16,2.11c-.04.47-.03,1.1.21,1.52.18.3.46.43.81.45.39.03.75-.03.98-.37.35-.54.49-2.23.54-2.86l.87-11.18,2.54.2-.97,12.45c-.09,1.16-.38,2.48-1.21,3.35-.8.83-1.91,1.05-3.02.96-1.1-.08-2.05-.52-2.65-1.47-.64-1.01-.71-2.34-.63-3.5l.15-1.85Z"/>
      <path class="cls-6" d="m121.61,48.21l2.43.19-.16,2.06c-.03.48-.03,1.12.22,1.55.19.32.48.45.85.48.41.03.79-.04,1.03-.4.36-.54.5-2.24.55-2.89l.87-11.12,2.43.19-.96,12.4c-.09,1.15-.37,2.46-1.19,3.32-.79.82-1.88,1.03-2.98.95-1.08-.09-2.02-.52-2.61-1.45-.64-1-.71-2.32-.62-3.47l.14-1.8Z"/>
      <path class="cls-8" d="m121.66,48.27l2.33.18-.15,2c-.04.5-.03,1.14.23,1.59.2.34.51.47.89.5.43.03.83-.04,1.08-.42.36-.56.5-2.26.55-2.91l.86-11.07,2.33.18-.96,12.34c-.09,1.13-.36,2.43-1.18,3.28-.78.81-1.86,1.01-2.94.93-1.07-.08-1.98-.51-2.56-1.42-.63-.99-.7-2.3-.61-3.44l.13-1.74Z"/>
      <path class="cls-26" d="m121.71,48.33l2.22.17-.15,1.94c-.04.51-.03,1.16.24,1.62.21.35.53.5.93.53.45.04.87-.05,1.12-.45.37-.57.52-2.27.57-2.94l.86-11.01,2.22.17-.96,12.29c-.09,1.12-.36,2.41-1.16,3.25-.77.79-1.83.99-2.9.91-1.05-.08-1.95-.5-2.52-1.4-.62-.98-.69-2.28-.6-3.4l.13-1.69Z"/>
      <path class="cls-25" d="m121.76,48.39l2.11.16-.14,1.89c-.04.52-.03,1.19.25,1.65.22.37.55.52.98.56.47.04.9-.06,1.18-.47.38-.58.52-2.28.57-2.96l.86-10.96,2.11.16-.95,12.24c-.09,1.1-.35,2.39-1.15,3.21-.75.79-1.8.98-2.85.89-1.03-.08-1.92-.48-2.48-1.37-.61-.97-.68-2.26-.59-3.37l.12-1.63Z"/>
      <path class="cls-27" d="m121.8,48.45l2,.15-.14,1.84c-.04.53-.03,1.21.25,1.68.23.38.58.55,1.02.58.49.04.95-.06,1.23-.5.39-.59.53-2.29.59-2.98l.85-10.91,2,.16-.95,12.18c-.09,1.09-.35,2.37-1.14,3.18-.74.77-1.78.96-2.81.88-1.01-.08-1.88-.47-2.44-1.35-.61-.96-.67-2.23-.59-3.34l.12-1.58Z"/>
      <path class="cls-10" d="m121.85,48.5l1.9.14-.14,1.79c-.04.54-.03,1.23.26,1.71.23.4.61.57,1.06.61.51.04.98-.07,1.28-.52.39-.61.54-2.3.59-3.01l.84-10.85,1.9.15-.94,12.12c-.08,1.08-.34,2.34-1.12,3.15-.73.76-1.75.94-2.77.86-1-.08-1.85-.46-2.4-1.32-.6-.95-.66-2.22-.58-3.31l.12-1.52Z"/>
      <path class="cls-14" d="m121.91,48.56l1.79.14-.13,1.73c-.04.55-.03,1.25.27,1.74.25.41.63.6,1.1.64.53.04,1.02-.08,1.33-.54.4-.62.54-2.32.6-3.04l.84-10.8,1.79.14-.94,12.07c-.08,1.07-.34,2.32-1.1,3.12-.72.75-1.73.92-2.73.85-.98-.07-1.82-.45-2.36-1.3-.59-.94-.65-2.2-.57-3.27l.11-1.47Z"/>
      <path class="cls-21" d="m121.96,48.62l1.68.13-.13,1.68c-.04.57-.02,1.27.27,1.77.25.43.66.62,1.14.66.55.04,1.06-.09,1.38-.57.41-.63.55-2.32.61-3.06l.84-10.75,1.68.13-.93,12.02c-.08,1.05-.33,2.3-1.09,3.09-.71.74-1.7.9-2.68.83-.96-.07-1.79-.44-2.31-1.27-.59-.93-.64-2.18-.56-3.24l.11-1.42Z"/>
      <path class="cls-24" d="m122,48.68l1.57.12-.12,1.62c-.06.79.03,1.39.28,1.81.25.42.65.65,1.19.69.66.05,1.13-.15,1.43-.59.29-.45.49-1.48.62-3.09l.83-10.69,1.57.12-.93,11.96c-.11,1.4-.47,2.42-1.07,3.05-.61.63-1.49.9-2.64.81-1.04-.08-1.8-.5-2.27-1.25-.47-.75-.66-1.82-.55-3.21l.11-1.36Z"/>
      <path class="cls-3" d="m117.58,50.43l-3.87.07-.97,4.33-2.78.17,3.81-17.08,2.92-.18,4.85,16.47-2.75.17-1.21-3.95Zm-3.05-2.56l2.41-.16-1.47-5.39-.94,5.55Z"/>
      <path class="cls-7" d="m117.62,50.38l-3.95.07-.97,4.33-2.66.17,3.78-16.97,2.83-.18,4.82,16.36-2.64.16-1.21-3.95Zm-3.15-2.45l2.54-.16-1.55-5.69-.99,5.85Z"/>
      <path class="cls-6" d="m117.66,50.33l-4.04.07-.97,4.33-2.55.16,3.76-16.86,2.75-.17,4.79,16.25-2.53.16-1.21-3.94Zm-3.26-2.33l2.68-.18-1.63-5.99-1.05,6.16Z"/>
      <path class="cls-8" d="m117.7,50.27l-4.12.07-.96,4.34-2.44.15,3.73-16.75,2.66-.17,4.76,16.15-2.42.15-1.21-3.95Zm-3.36-2.22l2.81-.18-1.71-6.29-1.1,6.47Z"/>
      <path class="cls-26" d="m117.74,50.22l-4.21.07-.96,4.34-2.33.14,3.71-16.64,2.58-.16,4.73,16.04-2.31.14-1.21-3.94Zm-3.46-2.11l2.95-.19-1.79-6.59-1.15,6.78Z"/>
      <path class="cls-25" d="m117.78,50.16l-4.29.07-.96,4.34-2.21.14,3.68-16.53,2.5-.16,4.7,15.93-2.2.14-1.21-3.94Zm-3.57-1.99l3.08-.2-1.88-6.89-1.2,7.09Z"/>
      <path class="cls-27" d="m117.82,50.11l-4.37.07-.97,4.34-2.1.13,3.66-16.42,2.41-.15,4.66,15.83-2.09.13-1.21-3.94Zm-3.67-1.88l3.21-.21-1.96-7.19-1.25,7.4Z"/>
      <path class="cls-10" d="m117.85,50.05l-4.45.08-.97,4.34-1.99.13,3.64-16.31,2.33-.15,4.63,15.72-1.98.12-1.21-3.94Zm-3.77-1.77l3.35-.22-2.04-7.49-1.3,7.71Z"/>
      <path class="cls-14" d="m117.9,50l-4.54.08-.97,4.34-1.88.12,3.61-16.2,2.25-.14,4.6,15.62-1.87.12-1.2-3.93Zm-3.88-1.65l3.48-.23-2.12-7.79-1.36,8.02Z"/>
      <path class="cls-21" d="m117.94,49.94l-4.62.08-.97,4.35-1.77.11,3.59-16.09,2.16-.13,4.57,15.51-1.76.11-1.2-3.93Zm-3.99-1.54l3.62-.24-2.2-8.09-1.41,8.33Z"/>
      <path class="cls-24" d="m113.89,48.46l3.75-.25-2.29-8.39-1.46,8.64Zm-3.24,5.96l3.56-15.98,2.08-.13,4.54,15.41-1.65.1-1.2-3.93-4.7.08-.97,4.35-1.65.1Z"/>
      <path class="cls-3" d="m104.76,44.88l.13,11.18-2.39.57-4.88-9.7,2.51,10.27-2.6.62-3.99-16.34,3.61-.87,5.29,10.47-.13-11.89,3.57-.86,4.14,16.48-2.6.63-2.66-10.57Z"/>
      <path class="cls-7" d="m104.7,44.42l.14,11.6-2.3.56-5.08-10.09,2.61,10.68-2.5.6-3.96-16.24,3.52-.85,5.38,10.64-.13-12.08,3.48-.84,4.11,16.38-2.5.6-2.76-10.97Z"/>
      <path class="cls-6" d="m104.64,43.96l.14,12.01-2.22.54-5.27-10.47,2.71,11.09-2.4.58-3.94-16.13,3.43-.82,5.46,10.81-.14-12.27,3.38-.82,4.09,16.27-2.39.58-2.86-11.36Z"/>
      <path class="cls-8" d="m104.58,43.5l.15,12.43-2.14.52-5.46-10.86,2.81,11.5-2.29.55-3.91-16.02,3.33-.81,5.55,10.98-.14-12.46,3.29-.79,4.06,16.16-2.29.55-2.96-11.75Z"/>
      <path class="cls-26" d="m104.52,43.04l.16,12.84-2.05.5-5.66-11.24,2.91,11.91-2.18.53-3.89-15.92,3.23-.78,5.64,11.14-.15-12.64,3.2-.77,4.04,16.06-2.18.53-3.06-12.14Z"/>
      <path class="cls-25" d="m104.46,42.59l.16,13.26-1.97.48-5.85-11.63,3.01,12.32-2.08.5-3.86-15.82,3.14-.76,5.72,11.31-.15-12.83,3.11-.75,4.01,15.96-2.08.5-3.16-12.54Z"/>
      <path class="cls-27" d="m104.4,42.13l.16,13.68-1.89.45-6.05-12.01,3.11,12.73-1.97.47-3.84-15.71,3.05-.73,5.81,11.48-.15-13.03,3.01-.73,3.98,15.86-1.97.48-3.25-12.93Z"/>
      <path class="cls-10" d="m104.34,41.67l.17,14.09-1.81.43-6.24-12.4,3.21,13.13-1.87.45-3.81-15.61,2.95-.71,5.89,11.65-.15-13.21,2.92-.7,3.95,15.75-1.87.45-3.35-13.32Z"/>
      <path class="cls-14" d="m104.28,41.22l.18,14.5-1.72.41-6.43-12.79,3.31,13.54-1.76.43-3.79-15.5,2.86-.69,5.98,11.82-.15-13.4,2.82-.68,3.93,15.64-1.76.42-3.45-13.71Z"/>
      <path class="cls-21" d="m104.22,40.75l.18,14.92-1.64.39-6.63-13.17,3.41,13.95-1.66.4-3.76-15.4,2.77-.67,6.06,11.99-.15-13.59,2.73-.66,3.9,15.54-1.66.4-3.55-14.11Z"/>
      <path class="cls-24" d="m107.81,54.8l-3.65-14.5.18,15.34-1.56.38-6.82-13.56,3.51,14.36-1.55.38-3.74-15.29,2.67-.64,6.15,12.16-.16-13.78,2.64-.64,3.88,15.43-1.55.38Z"/>
      <path class="cls-3" d="m79.16,57.34c-1.82-3.37-3.34-8.35.86-10.71,4.03-2.27,7.73,2.37,9.54,5.43,1.83,3.1,2.7,8.33-1.15,10.32-4.26,2.2-7.43-1.68-9.25-5.04h0Zm2.44-1.32c.91,1.7,3.21,5.06,5.54,3.94,2.34-1.12.87-4.91-.02-6.56-.89-1.64-3.4-5.61-5.72-4.36-2.34,1.27-.73,5.27.19,6.97h0Z"/>
      <path class="cls-7" d="m79.2,57.31c-1.8-3.34-3.31-8.3.84-10.64,4-2.26,7.68,2.39,9.47,5.41,1.82,3.07,2.7,8.27-1.12,10.24-4.23,2.18-7.38-1.68-9.18-5.02h0Zm2.35-1.27c.93,1.73,3.25,5.09,5.61,3.96,2.38-1.14.91-4.96,0-6.63-.9-1.67-3.43-5.66-5.79-4.37-2.37,1.29-.77,5.31.17,7.05h0Z"/>
      <path class="cls-6" d="m79.25,57.28c-1.79-3.31-3.3-8.24.82-10.56,3.97-2.24,7.62,2.39,9.39,5.4,1.8,3.04,2.69,8.21-1.1,10.16-4.2,2.17-7.32-1.69-9.11-5h0Zm2.25-1.21c.95,1.76,3.28,5.14,5.68,3.98,2.42-1.16.95-5,.03-6.71-.92-1.7-3.46-5.7-5.87-4.39-2.41,1.31-.81,5.35.15,7.12h0Z"/>
      <path class="cls-8" d="m79.3,57.26c-1.77-3.28-3.29-8.19.8-10.49,3.93-2.22,7.57,2.41,9.32,5.38,1.78,3.01,2.68,8.15-1.08,10.09-4.16,2.15-7.26-1.69-9.03-4.98h0Zm2.16-1.16c.96,1.79,3.31,5.18,5.75,4.01,2.46-1.18,1-5.04.05-6.78-.94-1.74-3.5-5.74-5.94-4.42-2.45,1.33-.84,5.39.13,7.19h0Z"/>
      <path class="cls-26" d="m79.35,57.23c-1.76-3.25-3.28-8.13.77-10.42,3.9-2.2,7.51,2.42,9.25,5.36,1.77,2.98,2.67,8.09-1.06,10.01-4.14,2.14-7.21-1.7-8.96-4.95h0Zm2.06-1.11c.98,1.82,3.35,5.22,5.83,4.03,2.5-1.2,1.04-5.08.08-6.86-.95-1.77-3.53-5.78-6.01-4.44-2.48,1.35-.88,5.43.11,7.26h0Z"/>
      <path class="cls-25" d="m79.39,57.21c-1.74-3.22-3.27-8.08.75-10.35,3.86-2.18,7.45,2.43,9.18,5.34,1.75,2.95,2.66,8.03-1.04,9.94-4.1,2.12-7.15-1.71-8.89-4.93h0Zm1.96-1.06c1,1.85,3.39,5.26,5.9,4.06,2.53-1.22,1.08-5.13.1-6.93-.97-1.8-3.57-5.83-6.08-4.46-2.52,1.36-.92,5.47.08,7.34h0Z"/>
      <path class="cls-27" d="m79.44,57.18c-1.73-3.2-3.26-8.02.73-10.27,3.83-2.16,7.4,2.44,9.1,5.32,1.73,2.93,2.65,7.97-1.02,9.86-4.07,2.1-7.09-1.71-8.82-4.91h0Zm1.87-1.01c1.02,1.88,3.42,5.29,5.97,4.08,2.57-1.24,1.12-5.16.13-7-.99-1.83-3.61-5.87-6.16-4.48-2.55,1.38-.96,5.51.06,7.41h0Z"/>
      <path class="cls-10" d="m79.49,57.16c-1.71-3.17-3.25-7.97.71-10.2,3.8-2.14,7.34,2.45,9.03,5.3,1.72,2.9,2.64,7.91-1,9.79-4.04,2.09-7.04-1.72-8.75-4.88h0Zm1.78-.96c1.03,1.91,3.46,5.34,6.04,4.1,2.61-1.25,1.16-5.2.15-7.07-1.01-1.87-3.64-5.91-6.23-4.51-2.59,1.41-1,5.56.04,7.49h0Z"/>
      <path class="cls-14" d="m79.54,57.13c-1.69-3.14-3.24-7.91.69-10.13,3.76-2.12,7.29,2.46,8.96,5.28,1.69,2.87,2.63,7.85-.97,9.71-4.01,2.07-6.98-1.73-8.68-4.86h0Zm1.68-.91c1.05,1.94,3.49,5.37,6.11,4.12,2.65-1.27,1.2-5.25.18-7.15-1.02-1.9-3.67-5.96-6.31-4.53-2.62,1.42-1.04,5.6.02,7.56h0Z"/>
      <path class="cls-21" d="m79.58,57.11c-1.68-3.11-3.23-7.86.67-10.06,3.73-2.1,7.23,2.47,8.88,5.26,1.68,2.84,2.62,7.79-.95,9.64-3.98,2.06-6.92-1.73-8.6-4.84h0Zm1.59-.86c1.06,1.97,3.53,5.42,6.18,4.14,2.68-1.28,1.25-5.29.2-7.22-1.04-1.93-3.71-6-6.38-4.55-2.66,1.44-1.07,5.64,0,7.63h0Z"/>
      <path class="cls-24" d="m79.63,57.08c-1.59-2.94-3.31-7.75.65-9.98,3.65-2.05,7.1,2.35,8.81,5.24,1.74,2.95,2.53,7.77-.93,9.56-4.02,2.07-6.95-1.89-8.53-4.82h0Zm1.49-.81c1.06,1.95,3.55,5.47,6.25,4.17,2.72-1.31,1.29-5.32.22-7.3-1.07-1.98-3.75-6.04-6.45-4.57-2.72,1.48-1.08,5.75-.03,7.7h0Z"/>
      <path class="cls-3" d="m73.7,63.09l-9.32-5.85,2.55-1.81,5.84,3.91-1.54-6.83,2.41-1.71,2.28,10.71,4.01,5.66-2.23,1.59-4.02-5.66Z"/>
      <path class="cls-7" d="m73.74,63.05l-9.26-5.82,2.46-1.74,5.92,3.96-1.55-6.93,2.32-1.64,2.26,10.64,3.99,5.62-2.14,1.52-3.99-5.62Z"/>
      <path class="cls-6" d="m73.78,63.01l-9.2-5.78,2.36-1.68,6,4.02-1.58-7.02,2.22-1.57,2.25,10.57,3.96,5.59-2.05,1.46-3.97-5.59Z"/>
      <path class="cls-8" d="m73.82,62.97l-9.14-5.74,2.26-1.6,6.09,4.07-1.6-7.12,2.12-1.51,2.23,10.5,3.94,5.55-1.97,1.4-3.94-5.56Z"/>
      <path class="cls-26" d="m73.85,62.93l-9.08-5.7,2.17-1.54,6.16,4.13-1.62-7.21,2.03-1.44,2.21,10.43,3.92,5.52-1.88,1.33-3.92-5.52Z"/>
      <path class="cls-25" d="m73.89,62.89l-9.02-5.67,2.07-1.47,6.25,4.18-1.64-7.31,1.93-1.37,2.2,10.37,3.89,5.48-1.79,1.27-3.89-5.48Z"/>
      <path class="cls-27" d="m73.93,62.85l-8.96-5.63,1.97-1.4,6.33,4.23-1.67-7.41,1.84-1.3,2.19,10.3,3.87,5.45-1.7,1.21-3.87-5.45Z"/>
      <path class="cls-10" d="m73.97,62.81l-8.9-5.59,1.88-1.34,6.41,4.29-1.69-7.5,1.74-1.23,2.17,10.23,3.84,5.41-1.61,1.15-3.84-5.41Z"/>
      <path class="cls-14" d="m74.01,62.77l-8.84-5.55,1.78-1.27,6.5,4.35-1.71-7.6,1.64-1.17,2.16,10.16,3.82,5.38-1.53,1.08-3.82-5.38Z"/>
      <path class="cls-21" d="m73.52,60.42l-1.73-7.7,1.55-1.1,2.14,10.09,3.79,5.34-1.44,1.02-3.78-5.34-8.79-5.52,1.69-1.2,6.57,4.4Z"/>
      <path class="cls-24" d="m77.85,68l-3.77-5.31-8.72-5.48,1.59-1.13,6.66,4.45-1.75-7.79,1.45-1.03,2.13,10.02,3.76,5.3-1.35.96Z"/>
      <path class="cls-3" d="m60.21,72.57c.32-.09.66-.12,1.01-.09,2.3.22,4.65,3.65,5.99,3.59l1.33-.06-2.52,2.69-.32-.09c-1.75-.49-3.64-3.44-5.19-3.38-.61.03-1.3.68-1.69,1.1l-1.07,1.13,5.02,4.9-1.83,1.95-12.62-12.04,3.18-3.39c.91-.97,2.07-1.84,3.45-1.9,1.36-.07,2.57.67,3.52,1.56.75.71,1.43,1.58,1.67,2.6.12.49.12.97.05,1.44h0Zm-4.21,3.12l.99-1.06c.49-.52,1.03-1.25,1.03-1.99,0-.72-.51-1.35-1-1.81-.45-.42-1.08-.9-1.73-.87-.66.03-1.29.58-1.71,1.03l-1.21,1.28,3.63,3.41Z"/>
      <path class="cls-7" d="m60.14,72.64c.34-.11.7-.15,1.07-.12,2.29.22,4.62,3.65,6,3.59l1.2-.06-2.41,2.57-.29-.08c-1.75-.5-3.61-3.45-5.2-3.38-.62.03-1.33.69-1.73,1.11l-1.1,1.17,5.02,4.9-1.76,1.87-12.54-11.97,3.15-3.35c.9-.96,2.05-1.82,3.42-1.89,1.34-.07,2.54.66,3.48,1.55.75.7,1.41,1.56,1.66,2.58.12.51.12,1.02.04,1.5h0Zm-4.15,3.12l1.03-1.09c.5-.53,1.05-1.26,1.04-2.03,0-.73-.51-1.38-1.01-1.85-.46-.43-1.11-.91-1.77-.88-.67.03-1.32.59-1.75,1.05l-1.24,1.32,3.71,3.48Z"/>
      <path class="cls-6" d="m60.07,72.73c.36-.13.74-.18,1.14-.14,2.28.21,4.59,3.65,6,3.58l1.07-.05-2.3,2.45-.25-.07c-1.75-.5-3.59-3.45-5.22-3.38-.64.02-1.35.69-1.77,1.13l-1.14,1.21,5.02,4.9-1.68,1.79-12.47-11.89,3.11-3.31c.89-.95,2.03-1.8,3.38-1.87,1.33-.07,2.51.66,3.44,1.54.74.69,1.4,1.54,1.64,2.55.13.54.12,1.06.02,1.57h0Zm-4.07,3.11l1.06-1.13c.51-.54,1.06-1.29,1.06-2.07,0-.75-.52-1.41-1.03-1.89-.47-.44-1.13-.93-1.81-.9-.69.03-1.34.59-1.78,1.07l-1.28,1.36,3.79,3.56Z"/>
      <path class="cls-8" d="m60,72.81c.37-.15.78-.22,1.21-.18,2.27.21,4.56,3.66,6.01,3.59l.93-.04-2.18,2.33-.22-.06c-1.76-.5-3.57-3.45-5.24-3.38-.66.03-1.38.7-1.81,1.14l-1.17,1.25,5.02,4.9-1.61,1.72-12.38-11.82,3.07-3.27c.88-.94,2.01-1.79,3.34-1.85,1.31-.07,2.48.66,3.4,1.52.73.68,1.39,1.53,1.62,2.52.13.56.12,1.11,0,1.64h0Zm-3.99,3.1l1.1-1.17c.52-.55,1.07-1.31,1.07-2.1,0-.77-.52-1.43-1.05-1.93-.48-.45-1.15-.94-1.85-.91-.7.03-1.37.59-1.82,1.08l-1.32,1.4,3.87,3.63Z"/>
      <path class="cls-26" d="m59.92,72.91c.39-.18.82-.26,1.28-.22,2.27.21,4.53,3.66,6.02,3.59l.8-.04-2.07,2.21-.19-.05c-1.76-.5-3.54-3.46-5.26-3.39-.68.03-1.4.7-1.84,1.16l-1.21,1.29,5.02,4.9-1.54,1.63-12.31-11.75,3.04-3.24c.87-.92,1.99-1.76,3.31-1.83,1.29-.07,2.45.65,3.36,1.51.72.68,1.38,1.51,1.61,2.5.14.59.12,1.16-.03,1.73h0Zm-3.91,3.09l1.14-1.21c.53-.57,1.09-1.33,1.09-2.14s-.53-1.46-1.07-1.97c-.49-.46-1.17-.96-1.89-.92-.72.03-1.39.6-1.86,1.1l-1.36,1.44,3.94,3.71Z"/>
      <path class="cls-25" d="m59.83,73c.41-.21.87-.31,1.36-.26,2.25.21,4.5,3.66,6.03,3.59l.67-.03-1.96,2.08-.16-.04c-1.76-.5-3.52-3.46-5.27-3.39-.7.03-1.43.7-1.88,1.18l-1.25,1.33,5.02,4.9-1.46,1.55-12.23-11.67,3-3.19c.86-.92,1.97-1.75,3.27-1.82,1.28-.07,2.42.65,3.32,1.49.72.67,1.36,1.5,1.59,2.47.15.62.11,1.23-.06,1.81h0Zm-3.82,3.06l1.18-1.25c.54-.57,1.1-1.35,1.1-2.18,0-.8-.53-1.49-1.09-2.01-.51-.48-1.2-.97-1.93-.94-.74.03-1.42.61-1.9,1.12l-1.39,1.48,4.02,3.78Z"/>
      <path class="cls-27" d="m59.74,73.11c.44-.24.92-.36,1.45-.31,2.24.21,4.46,3.66,6.04,3.59l.53-.03-1.84,1.96-.13-.04c-1.76-.5-3.5-3.46-5.29-3.39-.71.03-1.45.71-1.91,1.2l-1.28,1.37,5.02,4.9-1.39,1.48-12.15-11.6,2.96-3.16c.85-.91,1.95-1.74,3.23-1.8,1.27-.06,2.4.64,3.29,1.48.71.66,1.35,1.48,1.58,2.44.15.65.1,1.29-.1,1.91h0Zm-3.73,3.04l1.21-1.29c.55-.58,1.12-1.37,1.12-2.21,0-.81-.54-1.52-1.11-2.05-.51-.48-1.22-.98-1.96-.95-.75.03-1.45.61-1.93,1.13l-1.43,1.52,4.1,3.85Z"/>
      <path class="cls-10" d="m59.65,73.23c.46-.28.97-.43,1.54-.38,2.23.21,4.43,3.66,6.04,3.59l.4-.02-1.73,1.84-.09-.03c-1.76-.5-3.48-3.47-5.31-3.39-.73.03-1.48.71-1.95,1.21l-1.32,1.4,5.02,4.9-1.31,1.4-12.07-11.52,2.92-3.11c.84-.9,1.93-1.72,3.2-1.79,1.25-.06,2.37.64,3.24,1.46.7.66,1.33,1.46,1.56,2.41.16.69.09,1.37-.14,2.02h0Zm-3.63,2.99l1.25-1.33c.56-.6,1.13-1.39,1.13-2.25,0-.83-.54-1.55-1.12-2.09-.53-.5-1.24-1-2.01-.97-.77.03-1.47.62-1.97,1.15l-1.47,1.56,4.18,3.93Z"/>
      <path class="cls-14" d="m59.53,73.37c.49-.33,1.03-.52,1.64-.47,2.22.21,4.41,3.67,6.05,3.59h.26s-1.61,1.71-1.61,1.71l-.06-.02c-1.77-.5-3.46-3.47-5.32-3.39-.75.03-1.5.72-1.99,1.23l-1.36,1.44,5.02,4.9-1.24,1.32-12-11.45,2.89-3.08c.83-.88,1.91-1.7,3.16-1.77,1.23-.06,2.34.64,3.2,1.45.69.65,1.32,1.45,1.55,2.39.18.74.07,1.46-.2,2.14h0Zm-3.52,2.93l1.28-1.37c.57-.61,1.15-1.42,1.14-2.28,0-.85-.55-1.57-1.14-2.13-.54-.51-1.27-1.02-2.04-.98-.79.03-1.5.62-2.01,1.16l-1.5,1.6,4.26,4Z"/>
      <path class="cls-21" d="m59.41,73.52c.51-.39,1.1-.63,1.76-.57,2.2.21,4.38,3.67,6.06,3.58h.13s-1.5,1.59-1.5,1.59h-.03c-1.77-.51-3.44-3.48-5.34-3.41-.76.03-1.53.72-2.02,1.25l-1.39,1.48,5.02,4.9-1.17,1.24-11.92-11.38,2.85-3.04c.82-.88,1.88-1.69,3.12-1.75,1.22-.06,2.31.63,3.17,1.43.68.64,1.31,1.43,1.53,2.36.19.79.05,1.56-.27,2.28h0Zm-3.39,2.85l1.32-1.41c.58-.62,1.16-1.44,1.16-2.32,0-.86-.55-1.6-1.16-2.17-.55-.52-1.29-1.03-2.08-1-.8.03-1.52.62-2.05,1.18l-1.54,1.64,4.34,4.08Z"/>
      <path class="cls-24" d="m56.02,76.45l1.36-1.45c.79-.84,1.18-1.63,1.18-2.36,0-.74-.39-1.47-1.17-2.21-.75-.7-1.46-1.04-2.12-1.01-.66.03-1.36.43-2.09,1.2l-1.57,1.67,4.42,4.15Zm4.91,7.08l-11.84-11.3,2.81-3c1.04-1.11,2.07-1.68,3.09-1.73,1.02-.05,2.06.42,3.12,1.42.82.77,1.33,1.55,1.52,2.34.19.79.06,1.61-.38,2.47.61-.54,1.25-.77,1.91-.71,2.18.21,4.36,3.67,6.06,3.59l-1.39,1.48c-1.67-.47-3.46-3.48-5.36-3.4-.61.02-1.29.45-2.06,1.27l-1.43,1.52,5.02,4.9-1.09,1.16Z"/>
      <path class="cls-3" d="m70.53,69.06l-2.85,2.52,1.99,3.64-2.08,1.83-8.23-15.53,2.2-1.94,14.52,9.86-2.07,1.82-3.48-2.2Zm-4.23.03l1.91-1.69-4.77-3.48,2.86,5.18Z"/>
      <path class="cls-7" d="m70.52,69l-2.92,2.57,1.99,3.64-2,1.76-8.18-15.43,2.13-1.88,14.43,9.79-1.99,1.75-3.48-2.2Zm-4.24.18l2.02-1.78-5.03-3.67,3.01,5.45Z"/>
      <path class="cls-6" d="m70.52,68.93l-2.98,2.63,1.99,3.64-1.91,1.68-8.12-15.34,2.07-1.82,14.34,9.73-1.9,1.67-3.48-2.2Zm-4.25.33l2.12-1.87-5.28-3.85,3.16,5.72Z"/>
      <path class="cls-8" d="m70.52,68.86l-3.04,2.69,1.99,3.64-1.83,1.61-8.07-15.24,2.01-1.77,14.25,9.67-1.82,1.6-3.48-2.2Zm-4.27.49l2.22-1.96-5.53-4.04,3.31,5.99Z"/>
      <path class="cls-26" d="m70.51,68.79l-3.11,2.74,1.99,3.64-1.74,1.54-8.02-15.14,1.95-1.72,14.15,9.61-1.74,1.53-3.48-2.2Zm-4.27.64l2.32-2.05-5.78-4.22,3.46,6.27Z"/>
      <path class="cls-25" d="m70.5,68.73l-3.17,2.79,1.99,3.64-1.66,1.47-7.97-15.04,1.88-1.66,14.06,9.54-1.66,1.46-3.48-2.2Zm-4.28.79l2.42-2.13-6.03-4.4,3.61,6.53Z"/>
      <path class="cls-27" d="m70.5,68.66l-3.23,2.85,1.99,3.64-1.58,1.39-7.91-14.95,1.82-1.6,13.97,9.48-1.57,1.39-3.48-2.2Zm-4.29.94l2.52-2.22-6.28-4.59,3.76,6.81Z"/>
      <path class="cls-10" d="m70.49,68.59l-3.29,2.91,1.99,3.64-1.49,1.32-7.86-14.85,1.75-1.55,13.88,9.42-1.49,1.31-3.48-2.2Zm-4.3,1.1l2.62-2.31-6.54-4.77,3.91,7.08Z"/>
      <path class="cls-14" d="m70.49,68.52l-3.36,2.96,1.99,3.64-1.41,1.25-7.81-14.75,1.69-1.49,13.78,9.35-1.41,1.24-3.48-2.2Zm-4.31,1.25l2.73-2.4-6.79-4.95,4.06,7.36Z"/>
      <path class="cls-21" d="m70.48,68.46l-3.42,3.01,1.99,3.64-1.32,1.17-7.76-14.65,1.62-1.43,13.69,9.29-1.33,1.17-3.48-2.2Zm-4.32,1.4l2.82-2.49-7.04-5.14,4.22,7.62Z"/>
      <path class="cls-24" d="m67.74,76.2l-7.71-14.55,1.56-1.38,13.6,9.23-1.24,1.09-3.48-2.2-3.48,3.07,1.99,3.64-1.24,1.1Zm-1.59-6.26l2.93-2.58-7.29-5.32,4.36,7.9Z"/>
      <path class="cls-3" d="m53.33,93.41l-2.7-2.04,1.7-2.24,2.7,2.04-1.7,2.24Z"/>
      <path class="cls-7" d="m53.32,93.34l-2.61-1.98,1.63-2.16,2.61,1.98-1.63,2.16Z"/>
      <path class="cls-6" d="m53.31,93.26l-2.52-1.91,1.57-2.07,2.52,1.91-1.57,2.07Z"/>
      <path class="cls-8" d="m53.3,93.18l-2.44-1.85,1.5-1.98,2.44,1.85-1.5,1.98Z"/>
      <path class="cls-26" d="m53.29,93.11l-2.35-1.79,1.44-1.9,2.35,1.78-1.44,1.9Z"/>
      <path class="cls-25" d="m53.28,93.03l-2.26-1.71,1.37-1.81,2.26,1.72-1.37,1.81Z"/>
      <path class="cls-27" d="m53.27,92.96l-2.18-1.65,1.31-1.73,2.18,1.65-1.3,1.73Z"/>
      <path class="cls-10" d="m53.26,92.88l-2.09-1.59,1.24-1.64,2.09,1.59-1.24,1.64Z"/>
      <path class="cls-14" d="m53.25,92.8l-2.01-1.52,1.18-1.56,2.01,1.52-1.18,1.55Z"/>
      <path class="cls-21" d="m53.23,92.73l-1.92-1.46,1.11-1.47,1.92,1.46-1.11,1.47Z"/>
      <path class="cls-24" d="m53.23,92.66l-1.84-1.39,1.05-1.38,1.83,1.39-1.05,1.38Z"/>
      <path class="cls-3" d="m39.93,88.27l3.33,2.35,2.72-3.88,2.31,1.63-2.73,3.88,5.88,4.23-1.59,2.25-13.79-9.81,4.51-6.41,2.28,1.6-2.92,4.16Z"/>
      <path class="cls-7" d="m39.85,88.29l3.42,2.41,2.72-3.87,2.22,1.56-2.73,3.88,5.88,4.23-1.52,2.16-13.71-9.74,4.45-6.33,2.18,1.54-2.93,4.16Z"/>
      <path class="cls-6" d="m39.78,88.3l3.51,2.47,2.72-3.87,2.13,1.5-2.73,3.87,5.88,4.23-1.46,2.08-13.62-9.68,4.38-6.24,2.1,1.48-2.93,4.16Z"/>
      <path class="cls-8" d="m39.7,88.31l3.6,2.54,2.72-3.87,2.05,1.44-2.73,3.88,5.88,4.23-1.4,1.99-13.53-9.62,4.32-6.14,2.01,1.41-2.93,4.16Z"/>
      <path class="cls-26" d="m39.63,88.33l3.68,2.6,2.72-3.87,1.96,1.38-2.72,3.88,5.88,4.23-1.34,1.9-13.44-9.55,4.26-6.06,1.92,1.35-2.92,4.16Z"/>
      <path class="cls-25" d="m39.55,88.34l3.78,2.66,2.72-3.87,1.87,1.31-2.73,3.88,5.88,4.23-1.27,1.81-13.36-9.49,4.2-5.97,1.83,1.29-2.93,4.16Z"/>
      <path class="cls-27" d="m39.48,88.35l3.86,2.72,2.72-3.87,1.78,1.25-2.73,3.88,5.88,4.23-1.21,1.72-13.26-9.43,4.14-5.88,1.74,1.23-2.93,4.16Z"/>
      <path class="cls-10" d="m39.4,88.36l3.95,2.78,2.72-3.87,1.7,1.19-2.73,3.87,5.88,4.23-1.15,1.64-13.17-9.37,4.07-5.79,1.66,1.16-2.93,4.16Z"/>
      <path class="cls-14" d="m39.33,88.38l4.04,2.85,2.72-3.87,1.6,1.12-2.72,3.88,5.88,4.23-1.09,1.55-13.09-9.3,4.01-5.71,1.57,1.1-2.92,4.16Z"/>
      <path class="cls-21" d="m39.25,88.39l4.13,2.91,2.72-3.87,1.52,1.07-2.72,3.87,5.88,4.23-1.03,1.46-13-9.24,3.95-5.62,1.48,1.04-2.93,4.16Z"/>
      <path class="cls-24" d="m49.73,97.98l-12.91-9.18,3.89-5.53,1.39.98-2.93,4.16,4.21,2.97,2.73-3.87,1.43,1-2.72,3.87,5.88,4.23-.97,1.37Z"/>
      <path class="cls-3" d="m40.43,101.53l1.37-2.55.56.31c2.7,1.47,4.31,4.92,2.77,7.78-1.99,3.68-7.23,2.4-10.19.82-3.16-1.68-7.16-5.15-5.12-9.13.74-1.44,2.01-2.35,3.61-2.6,1.15-.18,2.55-.02,3.56.57l.53.31-1.33,2.5-.56-.3c-1.28-.68-2.52-.37-3.23.92-1.04,1.89,2.5,4.12,3.82,4.82,1.44.77,4.98,2.87,6.13.71.76-1.43.32-2.97-1.12-3.74l-.79-.43Z"/>
      <path class="cls-7" d="m40.52,101.5l1.31-2.44.51.28c2.67,1.46,4.27,4.87,2.74,7.7-1.97,3.64-7.18,2.36-10.11.79-3.12-1.67-7.11-5.11-5.09-9.04.73-1.43,1.98-2.32,3.56-2.57,1.13-.18,2.52-.01,3.52.57l.48.28-1.27,2.39-.51-.27c-1.3-.7-2.59-.37-3.31.95-1.07,1.94,2.48,4.19,3.84,4.91,1.48.79,5.04,2.89,6.22.68.78-1.46.32-3.05-1.14-3.83l-.74-.39Z"/>
      <path class="cls-6" d="m40.6,101.48l1.25-2.33.45.25c2.64,1.44,4.23,4.82,2.71,7.61-1.95,3.61-7.13,2.31-10.02.77-3.09-1.65-7.06-5.05-5.06-8.95.72-1.41,1.96-2.29,3.51-2.54,1.12-.18,2.49-.02,3.48.56l.43.25-1.22,2.27-.45-.24c-1.34-.72-2.66-.38-3.4.97-1.09,1.99,2.47,4.25,3.87,5,1.52.81,5.1,2.91,6.31.66.8-1.49.32-3.11-1.17-3.91l-.68-.36Z"/>
      <path class="cls-8" d="m40.69,101.45l1.19-2.22.39.22c2.61,1.42,4.18,4.76,2.69,7.52-1.93,3.57-7.08,2.27-9.93.74-3.05-1.63-7.02-5.01-5.04-8.87.72-1.39,1.93-2.26,3.47-2.5,1.1-.18,2.46-.01,3.43.55l.38.22-1.16,2.16-.39-.21c-1.37-.73-2.73-.38-3.49,1-1.12,2.04,2.45,4.31,3.89,5.08,1.56.84,5.16,2.94,6.4.63.81-1.52.33-3.18-1.2-4l-.62-.33Z"/>
      <path class="cls-26" d="m40.78,101.42l1.12-2.1.34.18c2.57,1.41,4.14,4.7,2.66,7.44-1.91,3.53-7.03,2.22-9.85.72-3.02-1.61-6.97-4.96-5.01-8.79.7-1.37,1.9-2.23,3.42-2.47,1.09-.17,2.43-.02,3.39.54l.32.19-1.1,2.05-.34-.18c-1.4-.75-2.79-.39-3.57,1.02-1.15,2.08,2.44,4.38,3.92,5.17,1.6.86,5.22,2.96,6.48.6.83-1.55.34-3.25-1.22-4.09l-.57-.31Z"/>
      <path class="cls-25" d="m40.87,101.4l1.06-1.99.28.15c2.55,1.39,4.1,4.65,2.64,7.35-1.89,3.5-6.98,2.18-9.77.69-2.98-1.59-6.93-4.91-4.98-8.7.69-1.36,1.88-2.2,3.38-2.44,1.07-.17,2.4-.02,3.35.54l.27.15-1.04,1.94-.28-.15c-1.43-.77-2.86-.39-3.66,1.05-1.17,2.13,2.43,4.45,3.95,5.26,1.64.88,5.28,2.99,6.57.58.85-1.58.34-3.32-1.25-4.17l-.51-.27Z"/>
      <path class="cls-27" d="m40.95,101.37l1-1.88.23.12c2.51,1.37,4.05,4.59,2.61,7.26-1.87,3.45-6.93,2.13-9.68.66-2.95-1.58-6.88-4.86-4.96-8.61.68-1.34,1.85-2.16,3.33-2.4,1.06-.17,2.37-.01,3.31.53l.21.12-.98,1.84-.22-.12c-1.46-.78-2.93-.4-3.75,1.07-1.2,2.18,2.41,4.52,3.97,5.35,1.68.89,5.34,3.01,6.65.55.86-1.62.34-3.39-1.28-4.26l-.45-.24Z"/>
      <path class="cls-10" d="m41.04,101.34l.94-1.76.17.09c2.48,1.36,4.01,4.54,2.59,7.18-1.85,3.42-6.88,2.09-9.59.64-2.92-1.56-6.84-4.81-4.93-8.53.68-1.32,1.82-2.13,3.28-2.37,1.04-.16,2.34-.01,3.27.52l.16.09-.92,1.72-.17-.09c-1.49-.8-3-.41-3.83,1.1-1.22,2.22,2.4,4.58,4,5.43,1.72.92,5.4,3.04,6.74.53.88-1.65.35-3.46-1.3-4.34l-.4-.21Z"/>
      <path class="cls-14" d="m41.12,101.32l.88-1.66.11.06c2.45,1.34,3.97,4.48,2.56,7.09-1.83,3.38-6.83,2.05-9.51.61-2.88-1.54-6.79-4.77-4.9-8.44.67-1.3,1.8-2.11,3.24-2.33,1.03-.17,2.31-.02,3.22.51l.11.06-.86,1.61-.11-.06c-1.52-.81-3.07-.41-3.91,1.12-1.25,2.27,2.39,4.65,4.02,5.52,1.76.94,5.46,3.06,6.83.5.89-1.68.35-3.53-1.33-4.43l-.34-.18Z"/>
      <path class="cls-21" d="m41.21,101.29l.82-1.54.05.03c2.42,1.32,3.93,4.42,2.54,7-1.81,3.34-6.77,2-9.42.59-2.85-1.52-6.74-4.72-4.88-8.36.66-1.28,1.77-2.07,3.19-2.3,1.01-.16,2.28-.02,3.18.5l.05.03-.8,1.5-.05-.03c-1.55-.83-3.14-.41-4,1.15-1.27,2.32,2.38,4.71,4.05,5.61,1.79.96,5.52,3.08,6.91.47.91-1.71.36-3.6-1.36-4.52l-.29-.15Z"/>
      <path class="cls-24" d="m41.3,101.27l.76-1.43c2.55,1.39,3.82,4.51,2.51,6.92-1.77,3.27-6.66,1.99-9.33.56-2.84-1.52-6.69-4.68-4.85-8.27,1.46-2.84,4.82-2.61,6.28-1.77l-.74,1.39c-1.49-.8-3.16-.52-4.09,1.18-1.3,2.36,2.35,4.77,4.07,5.69,1.8.96,5.57,3.11,7,.45,1.06-1.98.12-3.81-1.38-4.6l-.23-.12Z"/>
      <path class="cls-3" d="m47.77,101.88l-2.82-1.87,1.56-2.34,2.82,1.87-1.56,2.34Z"/>
      <path class="cls-7" d="m47.75,101.81l-2.73-1.81,1.5-2.25,2.73,1.81-1.5,2.25Z"/>
      <path class="cls-6" d="m47.74,101.74l-2.64-1.75,1.44-2.16,2.64,1.75-1.44,2.16Z"/>
      <path class="cls-8" d="m47.72,101.66l-2.55-1.7,1.38-2.07,2.55,1.7-1.38,2.08Z"/>
      <path class="cls-26" d="m47.71,101.59l-2.46-1.63,1.32-1.99,2.46,1.63-1.32,1.98Z"/>
      <path class="cls-25" d="m47.69,101.51l-2.37-1.57,1.26-1.89,2.37,1.57-1.26,1.89Z"/>
      <path class="cls-27" d="m47.68,101.43l-2.28-1.51,1.2-1.8,2.28,1.51-1.2,1.81Z"/>
      <path class="cls-10" d="m47.66,101.36l-2.19-1.45,1.14-1.72,2.19,1.45-1.14,1.71Z"/>
      <path class="cls-14" d="m47.64,101.29l-2.1-1.4,1.08-1.62,2.1,1.4-1.08,1.63Z"/>
      <path class="cls-21" d="m47.63,101.21l-2.01-1.33,1.02-1.54,2.01,1.34-1.02,1.54Z"/>
      <path class="cls-24" d="m47.62,101.14l-1.92-1.28.96-1.44,1.92,1.27-.96,1.45Z"/>
      <g class="cls-1">
        <path class="cls-35" d="m225.59,165.77c0-87.92-47.43-159.33-107.16-159.33S12.26,77.43,12.26,165.35s46.45,159.47,106.18,159.47,107.16-71.13,107.16-159.05h0Zm12.05,25.17C237.64,85.63,184.49.25,118.93.25S.21,85.63.21,190.94s53.15,190.69,118.72,190.69,118.72-85.37,118.72-190.69h0Z"/>
      </g>
      <path class="cls-4" d="m64.39,57.24l2.55-1.81,5.84,3.91-1.54-6.83,2.41-1.71,2.28,10.71,4.01,5.66-2.23,1.59-4.02-5.66-9.32-5.85Zm24.02,5.14c-4.26,2.2-7.43-1.68-9.25-5.04-1.82-3.37-3.34-8.35.86-10.71,4.03-2.27,7.73,2.37,9.54,5.43,1.83,3.1,2.7,8.33-1.15,10.32h0ZM30.05,192.72c0-72.85,40.21-131.91,89.82-131.91s88.41,59.06,88.41,131.91-38.95,131.34-88.55,131.34S30.05,265.57,30.05,192.72h0ZM97.53,57.83l-3.99-16.34,3.61-.87,5.29,10.47-.13-11.89,3.57-.86,4.13,16.45,3.76-16.86,2.92-.18,4.85,16.47-2.75.17-1.21-3.95-3.87.07-.97,4.33-2.78.17.04-.18-2.59.62-2.66-10.57.13,11.18-2.39.57-4.88-9.7,2.51,10.27-2.6.62Zm24.47-4.3c-.65-1.02-.73-2.36-.64-3.53l.15-1.9,2.65.2-.17,2.16c-.04.45-.03,1.08.21,1.49.17.29.43.4.77.42.36.03.71-.02.93-.35.34-.52.48-2.22.53-2.84l.88-11.23,2.65.2-.97,12.51c-.09,1.18-.38,2.5-1.23,3.38-.81.84-1.93,1.06-3.07.98-1.11-.09-2.07-.54-2.68-1.5h0Zm6.69,1.67l8.15-15.44,2.85.68.21,17.43-2.68-.64-.17-4.06-3.72-.89-1.95,3.56-2.69-.64Zm11.61,2.53l6.33-15.22,4.38,1.74c4.33,1.72,3.44,6.35,2,9.77-1.7,4-3.78,7.24-8.64,5.32l-4.07-1.6Zm9.1,3.93l12.7-12.41,2.51,1.51-5.35,16.85-2.36-1.43,1.14-3.89-3.27-1.98-3,2.76-2.36-1.43Zm10.42,6.06l10.68-13.62,2.16,1.71-4.3,5.51,3.44,2.72,4.3-5.3,2.16,1.71-10.68,13.4-2.16-1.71,4.66-5.93-3.43-2.71-4.65,5.93-2.16-1.71ZM118.43,6.44C58.71,6.44,12.26,77.43,12.26,165.35s46.45,159.47,106.18,159.47,107.16-71.13,107.16-159.05S178.16,6.44,118.43,6.44h0Zm-51.38,69.61l-7.7-14.53,2.2-1.94,14.52,9.86-2.07,1.82-3.48-2.2-2.85,2.52,1.99,3.64-2.08,1.83-.02-.03-1.55,1.66-.32-.09c-1.75-.49-3.64-3.44-5.19-3.38-.61.03-1.3.68-1.69,1.1l-1.07,1.13,5.02,4.9-1.83,1.95-12.62-12.04,3.18-3.39c.91-.97,2.07-1.84,3.45-1.9,1.36-.07,2.57.67,3.52,1.56.75.71,1.43,1.58,1.67,2.6.12.49.12.97.05,1.44.32-.09.66-.12,1.01-.09,2.21.21,4.48,3.4,5.84,3.58h0Zm106.95-7.3c2.66-2.73,6.88-5.73,10.35-2.34,3.43,3.35.68,8.05-2.25,10.59-2.9,2.51-6.09,5.53-9.68,2.02-3.39-3.3-1.14-7.49,1.58-10.28h0Zm2.84,14.72l13.23-11.04,1.95,2.39-5.62,10.54,8.24-6.94,1.68,2.07-12.74,10.47-1.89-2.32,5.85-10.8-9.01,7.68-1.68-2.06Zm-131.28,8.78l5.88,4.23-1.59,2.25-13.79-9.81,4.51-6.41,2.28,1.6-2.92,4.16,3.33,2.35,2.72-3.88,2.31,1.63-2.73,3.88Zm.94,5.42l2.82,1.87-1.56,2.34-2.82-1.87,1.56-2.34Zm-4.71,1.3l.56.31c2.7,1.47,4.31,4.92,2.77,7.78-1.99,3.68-7.23,2.4-10.19.82-3.16-1.68-7.16-5.15-5.12-9.13.74-1.44,2.01-2.35,3.61-2.6,1.15-.18,2.55-.02,3.56.57l.53.31-1.33,2.5-.56-.3c-1.28-.68-2.52-.37-3.23.92-1.04,1.89,2.5,4.12,3.82,4.82,1.44.77,4.98,2.87,6.13.71.76-1.43.32-2.97-1.12-3.74l-.79-.43,1.37-2.55Zm10.53-9.85l2.7,2.04-1.7,2.24-2.7-2.04,1.7-2.24Zm131.86,3.04l13.84-9.33,2.57,3.93c2.51,3.84-.26,7.21-3.42,9.39-6.49,4.45-8.79,2.42-12.7-3.54l-.29-.45Zm5.51,8.46l17.05-4.56,1.4,2.57-12.93,12.09-1.33-2.44,3.02-2.8-1.83-3.35-4.07.9-1.32-2.41Z"/>
      <path class="cls-4" d="m57.01,70.83c-.45-.42-1.08-.9-1.73-.87-.66.03-1.29.58-1.71,1.03l-1.21,1.28,3.63,3.41.99-1.06c.49-.52,1.03-1.25,1.03-1.99,0-.72-.51-1.35-1-1.81h0Z"/>
      <path class="cls-4" d="m63.44,63.92l2.86,5.18,1.91-1.69-4.77-3.48Z"/>
      <path class="cls-4" d="m81.6,56.02c.91,1.7,3.21,5.06,5.54,3.94,2.34-1.12.87-4.91-.02-6.56-.89-1.64-3.4-5.61-5.72-4.36-2.34,1.27-.73,5.27.19,6.97h0Z"/>
      <path class="cls-4" d="m115.47,42.33l-.94,5.55,2.41-.16-1.47-5.39Z"/>
      <path class="cls-4" d="m137.21,44.46l-2.62,5.27,2.48.59.14-5.86Z"/>
      <path class="cls-4" d="m148.16,46l-4.24,10.24,1.46.62c2.24.95,4.16-1.72,4.9-3.48.96-2.28,2.35-5.49-.72-6.78l-1.4-.59Z"/>
      <path class="cls-4" d="m160.98,53.9l-4.23,4.38,2.19,1.32,2.04-5.71Z"/>
      <path class="cls-4" d="m175.99,70.68c-1.45,1.49-3.63,4.47-1.66,6.39,2.01,1.96,4.42-.6,5.82-2.04,1.38-1.42,4.28-4.7,2.28-6.65-1.97-1.92-5.06.89-6.43,2.3h0Z"/>
      <path class="cls-4" d="m197.25,86.61l-9.33,6.33c2.3,3.39,3.62,3.56,7.18,1.13,3.73-2.54,4.5-3.71,2.15-7.46h0Z"/>
      <path class="cls-4" d="m203.51,99.57l-5.69,1.78,1.23,2.25,4.46-4.03Z"/>
      <path class="cls-17" d="m118.32,349.4l-1.79,6.62-7.03.55,5.89,3.92-1.71,6.89,5.69-4.57,5.87,4.08-2.38-6.6,5.54-4.8-7.03.44-3.05-6.51Z"/>
      <path class="cls-19" d="m96.17,344.56l-3.98,5.04-6.41-1.92,3.5,5.95-4.16,5.67,6.75-2.03,4.34,5.77.21-6.91,6.34-2.4-6.12-2.45-.48-6.73Z"/>
      <path class="cls-19" d="m76.19,331.42l-5.75,3.82-5.97-3.7,2.27,6.67-5.65,4.19,6.89.11,2.16,6.45,2.57-6.43,6.69.36-5.05-4.49,1.84-6.98Z"/>
      <path class="cls-19" d="m58.49,313.67l-6.33,2.35-4.81-5.3.36,7.13-6.49,2.72,7.1,1.84.5,7.14,3.91-6,6.9,1.52-4.65-5.3,3.49-6.12Z"/>
      <path class="cls-19" d="m140.69,345.84l.91,6.79-6.2,3.02,6.46,1.3,1.12,6.66,3.62-5.9,7.24,1.56-4.75-5.17,2.83-6.71-5.9,3.27-5.33-4.82Z"/>
      <path class="cls-19" d="m161.6,333.39l2.6,6.34-5.18,4.57,6.99-.33,2.9,6.16,1.67-6.75,7-.82-5.91-4.01.92-6.69-4.62,4.84-6.38-3.31Z"/>
      <path class="cls-19" d="m179.21,315.42l3.87,5.38-4.15,5.98,6.81-1.93,4.48,5.21.15-7.09,6.43-2.58-6.36-1.64-.62-7.19-3.88,5.28-6.72-1.41Z"/>
      <path class="cls-11" d="m105.08,335.65h-2.66v-2.3h.54c.59-.01,1.36-.09,1.85-.46.43-.32.59-.85.64-1.36l.05-.48h2.14v13.11h-2.57v-8.5Z"/>
      <path class="cls-9" d="m105.13,335.59h-2.65v-2.19h.48c.6-.01,1.38-.1,1.88-.48.44-.34.61-.87.67-1.4l.05-.43h2.04v13h-2.47v-8.5Z"/>
      <path class="cls-15" d="m105.18,335.54h-2.65v-2.08h.43c.62-.02,1.41-.1,1.91-.49.45-.34.63-.89.69-1.44l.04-.39h1.94v12.89h-2.36v-8.5Z"/>
      <path class="cls-13" d="m105.24,335.48h-2.65v-1.97h.38c.63-.01,1.42-.1,1.94-.5.47-.36.65-.91.71-1.48l.04-.34h1.83v12.79h-2.25v-8.5Z"/>
      <path class="cls-22" d="m105.29,335.43h-2.65v-1.87h.32c.64-.01,1.45-.11,1.98-.51.48-.36.67-.93.73-1.51l.03-.29h1.73v12.68h-2.14v-8.5Z"/>
      <path class="cls-20" d="m105.35,335.38h-2.65v-1.76h.27c.66-.01,1.47-.11,2.01-.52.49-.38.69-.96.75-1.55l.03-.24h1.63v12.57h-2.03v-8.5Z"/>
      <path class="cls-16" d="m105.4,335.32h-2.66v-1.65h.21c.67,0,1.49-.11,2.04-.53.5-.38.71-.98.77-1.59l.02-.2h1.53v12.47h-1.92v-8.5Z"/>
      <path class="cls-28" d="m105.45,335.27h-2.65v-1.54h.16c.69,0,1.51-.11,2.07-.54.52-.39.73-1,.79-1.62l.02-.14h1.43v12.36h-1.82v-8.5Z"/>
      <path class="cls-18" d="m105.51,335.21h-2.65v-1.43h.11c.7-.01,1.54-.12,2.11-.55.53-.4.75-1.02.81-1.66v-.1h1.33v12.25h-1.71v-8.5Z"/>
      <path class="cls-34" d="m105.56,335.16h-2.65v-1.33h.05c.72,0,1.55-.12,2.14-.56.54-.41.76-1.04.84-1.7v-.05h1.22v12.14h-1.6v-8.5Z"/>
      <path class="cls-23" d="m107.1,343.61v-12.03h-1.11c-.09.79-.37,1.37-.86,1.73-.49.37-1.21.56-2.17.57v1.22h2.65v8.5h1.49Z"/>
      <path class="cls-11" d="m116.54,339.55c-.08.05-.16.09-.25.14-.56.28-1.16.4-1.78.4-1.18,0-2.22-.39-3.02-1.26-.82-.9-1.14-2.03-1.14-3.24s.35-2.38,1.21-3.28c.86-.89,1.96-1.27,3.18-1.27,1.43,0,2.64.52,3.49,1.68.93,1.27,1.17,2.98,1.17,4.51,0,1.76-.23,3.77-1.21,5.28-.86,1.32-2.1,1.99-3.67,1.99-1.09,0-2.13-.28-2.94-1.04-.79-.75-1.12-1.72-1.13-2.8v-.54s2.57,0,2.57,0v.53c.02.38.12.75.41,1.02.3.28.71.36,1.11.36.65,0,1.11-.27,1.45-.82.28-.45.45-1.05.55-1.65h0Zm-3.05-2.48c.32.37.72.51,1.2.51.52,0,1-.13,1.36-.52.38-.41.5-.96.5-1.51s-.12-1.12-.5-1.55c-.34-.39-.78-.53-1.29-.53s-.92.15-1.25.54c-.38.43-.49,1-.49,1.56s.11,1.08.47,1.5h0Z"/>
      <path class="cls-9" d="m116.62,339.45c-.11.07-.23.14-.35.2-.55.27-1.15.39-1.76.39-1.16,0-2.19-.38-2.98-1.25-.81-.89-1.12-2.01-1.12-3.2s.34-2.35,1.2-3.24c.84-.88,1.93-1.26,3.14-1.26,1.41,0,2.61.51,3.45,1.65.93,1.26,1.16,2.96,1.16,4.48,0,1.75-.23,3.75-1.21,5.25-.84,1.3-2.07,1.97-3.62,1.97-1.07,0-2.11-.28-2.91-1.03-.78-.74-1.11-1.7-1.11-2.76v-.49s2.47,0,2.47,0v.47c.02.4.13.78.43,1.06.31.29.73.38,1.14.38.67,0,1.15-.28,1.5-.84.3-.49.48-1.14.58-1.78h0Zm-3.17-2.34c.33.38.75.53,1.25.53.53,0,1.02-.13,1.39-.53.39-.42.51-.98.51-1.54s-.12-1.15-.51-1.59c-.35-.4-.8-.55-1.33-.55s-.95.16-1.29.55c-.38.45-.5,1.02-.5,1.59s.11,1.11.48,1.53h0Z"/>
      <path class="cls-15" d="m116.69,339.33c-.14.1-.29.18-.44.26-.55.27-1.13.39-1.74.39-1.15,0-2.16-.38-2.94-1.23-.81-.88-1.11-1.99-1.11-3.16s.34-2.32,1.18-3.2c.84-.87,1.91-1.24,3.1-1.24,1.4,0,2.57.5,3.41,1.63.92,1.25,1.15,2.94,1.15,4.45,0,1.73-.23,3.73-1.2,5.22-.83,1.29-2.04,1.94-3.58,1.94-1.06,0-2.08-.27-2.87-1.01-.77-.73-1.09-1.68-1.1-2.72v-.43s2.36,0,2.36,0v.42c.02.42.13.81.44,1.1.32.3.75.39,1.18.39.69,0,1.18-.29,1.54-.87.33-.53.51-1.23.61-1.92h0Zm-3.28-2.2c.34.39.77.55,1.29.55.55,0,1.06-.14,1.44-.55.4-.43.52-1.01.52-1.58s-.12-1.18-.52-1.62c-.36-.41-.83-.56-1.37-.56s-.98.17-1.33.57c-.4.46-.52,1.04-.52,1.63s.12,1.13.5,1.57h0Z"/>
      <path class="cls-13" d="m116.76,339.22c-.16.12-.34.23-.54.33-.54.27-1.12.38-1.71.38-1.13,0-2.13-.37-2.9-1.21-.8-.87-1.1-1.96-1.1-3.12s.33-2.3,1.16-3.17c.82-.86,1.89-1.22,3.06-1.22,1.38,0,2.54.49,3.36,1.61.91,1.23,1.14,2.91,1.14,4.41,0,1.72-.23,3.71-1.19,5.19-.82,1.27-2.02,1.92-3.54,1.92-1.05,0-2.06-.27-2.83-1-.76-.71-1.08-1.65-1.08-2.68v-.38s2.25,0,2.25,0v.37c.02.43.14.83.46,1.13.33.31.77.41,1.22.41.71,0,1.22-.3,1.59-.89.35-.57.53-1.33.63-2.07h0Zm-3.4-2.04c.35.4.8.56,1.33.56.56,0,1.08-.14,1.48-.57.41-.44.54-1.03.54-1.62s-.12-1.2-.54-1.66c-.37-.42-.86-.58-1.41-.58s-1.01.18-1.37.59c-.4.46-.53,1.06-.53,1.66s.12,1.16.51,1.61h0Z"/>
      <path class="cls-22" d="m116.83,339.09c-.19.16-.4.29-.63.4-.53.26-1.1.38-1.69.38-1.12,0-2.1-.36-2.86-1.19-.78-.86-1.09-1.94-1.09-3.09s.33-2.27,1.15-3.13c.81-.85,1.86-1.21,3.02-1.21,1.36,0,2.51.48,3.32,1.59.9,1.23,1.13,2.9,1.13,4.38,0,1.71-.23,3.69-1.18,5.16-.81,1.26-1.99,1.89-3.49,1.89-1.03,0-2.03-.26-2.79-.98-.75-.71-1.06-1.63-1.06-2.64v-.33s2.15,0,2.15,0v.32c.02.45.14.86.47,1.17.35.32.8.42,1.26.42.73,0,1.26-.31,1.64-.92.38-.6.56-1.44.65-2.22h0Zm-3.5-1.88c.36.41.82.58,1.37.58.58,0,1.11-.15,1.52-.58.42-.45.55-1.05.55-1.66s-.13-1.23-.55-1.7c-.38-.43-.88-.6-1.45-.6s-1.04.18-1.41.61c-.41.48-.54,1.09-.54,1.7s.12,1.18.52,1.64h0Z"/>
      <path class="cls-20" d="m116.9,338.97c-.22.19-.46.35-.72.48-.52.26-1.09.37-1.67.37-1.1,0-2.07-.36-2.82-1.18-.78-.85-1.07-1.92-1.07-3.05s.32-2.24,1.14-3.09c.81-.84,1.84-1.19,2.98-1.19,1.34,0,2.48.48,3.28,1.57.89,1.22,1.12,2.88,1.12,4.35,0,1.7-.22,3.67-1.17,5.13-.8,1.25-1.96,1.87-3.44,1.87-1.02,0-2-.25-2.76-.97-.74-.69-1.04-1.6-1.05-2.6v-.27h2.04v.26c.02.46.15.89.49,1.21.36.33.82.44,1.29.44.74,0,1.29-.31,1.68-.95.4-.64.59-1.55.68-2.37h0Zm-3.61-1.72c.37.42.84.6,1.41.6.59,0,1.14-.16,1.55-.6.43-.46.57-1.08.57-1.69s-.14-1.25-.56-1.73c-.4-.45-.91-.62-1.49-.62s-1.07.19-1.45.63c-.42.48-.56,1.11-.56,1.73s.13,1.21.54,1.68h0Z"/>
      <path class="cls-16" d="m116.96,338.84c-.24.22-.51.42-.81.56-.52.25-1.07.36-1.64.36-1.09,0-2.04-.35-2.78-1.16-.77-.84-1.06-1.89-1.06-3.02s.32-2.21,1.12-3.05c.79-.83,1.81-1.18,2.94-1.18,1.32,0,2.44.47,3.24,1.54.89,1.21,1.11,2.86,1.11,4.32,0,1.69-.22,3.65-1.16,5.1-.79,1.23-1.93,1.84-3.4,1.84-1,0-1.97-.25-2.72-.95-.73-.69-1.02-1.58-1.03-2.57v-.22h1.93v.21c.02.47.15.92.5,1.25.37.34.84.45,1.33.45.76,0,1.33-.32,1.73-.97.43-.7.62-1.66.7-2.54h0Zm-3.72-1.55c.38.44.87.62,1.45.62.61,0,1.17-.16,1.59-.61.44-.47.58-1.1.58-1.73s-.14-1.28-.58-1.77c-.4-.46-.93-.64-1.53-.64s-1.1.2-1.5.65c-.43.5-.57,1.13-.57,1.77s.14,1.23.55,1.71h0Z"/>
      <path class="cls-28" d="m117.03,338.7c-.26.27-.56.48-.91.65-.51.25-1.05.36-1.62.36-1.07,0-2.01-.34-2.74-1.14-.76-.83-1.04-1.87-1.04-2.98s.31-2.19,1.11-3.02c.78-.82,1.79-1.16,2.91-1.16,1.31,0,2.41.46,3.19,1.52.88,1.2,1.1,2.84,1.1,4.29,0,1.68-.22,3.63-1.16,5.07-.78,1.21-1.91,1.82-3.35,1.82-.99,0-1.95-.25-2.68-.94-.72-.67-1.01-1.55-1.01-2.52v-.16h1.83v.16c.02.49.16.95.52,1.28.38.36.86.47,1.37.47.78,0,1.36-.34,1.77-1,.46-.74.65-1.79.72-2.7h0Zm-3.83-1.38c.39.45.89.64,1.49.64.62,0,1.2-.17,1.63-.63.45-.48.59-1.12.59-1.77s-.14-1.3-.59-1.8c-.41-.47-.95-.66-1.57-.66s-1.13.2-1.54.67c-.44.5-.58,1.15-.58,1.81s.14,1.26.56,1.75h0Z"/>
      <path class="cls-18" d="m117.1,338.55c-.28.31-.61.57-1,.75-.5.25-1.04.35-1.59.35-1.06,0-1.98-.34-2.7-1.12-.75-.82-1.03-1.85-1.03-2.94s.3-2.16,1.09-2.98c.78-.81,1.77-1.14,2.87-1.14,1.29,0,2.38.45,3.15,1.5.87,1.19,1.09,2.83,1.09,4.26,0,1.66-.22,3.61-1.15,5.04-.77,1.2-1.88,1.79-3.31,1.79-.98,0-1.92-.24-2.65-.93-.71-.66-.99-1.53-1-2.48v-.11h1.72v.1c.01.5.16.97.53,1.32.39.36.89.48,1.41.48.8,0,1.4-.34,1.82-1.02.49-.79.67-1.92.74-2.88h0Zm-3.94-1.2c.4.46.92.66,1.53.66.64,0,1.23-.18,1.67-.65.46-.49.61-1.14.61-1.8s-.15-1.33-.6-1.84c-.43-.48-.98-.67-1.61-.67s-1.16.21-1.58.69c-.45.52-.59,1.17-.59,1.84s.14,1.29.57,1.78h0Z"/>
      <path class="cls-34" d="m117.16,338.39c-.3.36-.66.66-1.09.86-.49.24-1.02.35-1.57.35-1.04,0-1.95-.33-2.66-1.11-.74-.8-1.01-1.83-1.01-2.9s.3-2.13,1.07-2.94c.76-.8,1.74-1.12,2.83-1.12,1.27,0,2.34.44,3.1,1.48.86,1.18,1.08,2.8,1.08,4.22,0,1.65-.21,3.59-1.14,5.01-.76,1.18-1.85,1.77-3.26,1.77-.96,0-1.9-.23-2.61-.91-.7-.65-.97-1.5-.98-2.45v-.05h1.61v.05c.01.52.16,1,.55,1.36.4.37.91.5,1.44.5.82,0,1.44-.35,1.87-1.05.52-.84.7-2.07.76-3.07h0Zm-4.04-1c.41.47.94.68,1.57.68s1.26-.18,1.71-.67c.47-.5.63-1.17.63-1.84s-.15-1.35-.62-1.88c-.43-.49-1-.69-1.65-.69s-1.2.22-1.62.71c-.46.53-.61,1.19-.61,1.88s.15,1.31.59,1.82h0Z"/>
      <path class="cls-23" d="m110.89,335.59c0,1.19.34,2.14,1,2.87.67.73,1.54,1.08,2.62,1.08.57,0,1.09-.11,1.55-.34.46-.23.85-.55,1.17-.99-.08,1.47-.33,2.56-.78,3.27-.44.71-1.08,1.07-1.91,1.07-.63,0-1.12-.17-1.48-.51-.36-.34-.55-.81-.57-1.4h-1.51c0,1.01.33,1.81.96,2.41.64.6,1.5.89,2.57.89,1.39,0,2.46-.58,3.22-1.74.75-1.17,1.12-2.83,1.12-4.98,0-1.82-.35-3.23-1.07-4.19-.71-.97-1.73-1.45-3.06-1.45-1.15,0-2.09.37-2.79,1.11-.71.74-1.06,1.71-1.06,2.91h0Zm2.19,1.83c-.4-.46-.6-1.08-.6-1.85s.21-1.43.62-1.91c.42-.48.97-.72,1.66-.72s1.27.23,1.69.71c.42.47.63,1.11.63,1.91s-.22,1.42-.64,1.88c-.43.46-1.01.69-1.75.69-.67,0-1.21-.24-1.61-.7h0Z"/>
      <path class="cls-11" d="m125.12,334.03h-5.6v-2.65h8.88v2.17l-.14.15c-1.22,1.39-2.23,2.93-2.98,4.62-.75,1.7-1.23,3.5-1.45,5.35l-.06.47h-2.76l.08-.61c.24-1.91.75-3.77,1.55-5.52.66-1.43,1.5-2.76,2.48-3.99h0Z"/>
      <path class="cls-9" d="m125.23,333.97h-5.66v-2.54h8.77v2.09l-.12.14c-1.22,1.39-2.24,2.94-2.99,4.64-.76,1.71-1.23,3.51-1.46,5.36l-.05.43h-2.65l.07-.55c.24-1.91.75-3.76,1.55-5.51.68-1.46,1.54-2.82,2.55-4.06h0Z"/>
      <path class="cls-15" d="m125.34,333.92h-5.72v-2.43h8.66v2.02l-.11.12c-1.23,1.4-2.25,2.95-3,4.65-.76,1.71-1.24,3.52-1.47,5.38l-.05.38h-2.54l.06-.49c.24-1.9.74-3.75,1.55-5.49.69-1.49,1.58-2.87,2.61-4.14h0Z"/>
      <path class="cls-13" d="m125.46,333.86h-5.78v-2.32h8.55v1.94l-.09.11c-1.23,1.4-2.25,2.96-3.01,4.66-.77,1.72-1.24,3.53-1.47,5.39l-.04.33h-2.43l.05-.43c.24-1.9.74-3.74,1.54-5.48.7-1.52,1.62-2.93,2.68-4.22h0Z"/>
      <path class="cls-22" d="m125.57,333.81h-5.84v-2.21h8.44v1.87l-.08.09c-1.24,1.41-2.26,2.97-3.02,4.68-.77,1.72-1.25,3.54-1.47,5.41l-.03.29h-2.32l.05-.36c.24-1.89.74-3.73,1.54-5.46.71-1.55,1.65-2.98,2.74-4.29h0Z"/>
      <path class="cls-20" d="m125.69,333.76h-5.9v-2.11h8.34v1.79l-.07.07c-1.24,1.41-2.26,2.98-3.03,4.7-.76,1.73-1.25,3.55-1.48,5.43l-.03.23h-2.21l.04-.3c.24-1.89.74-3.72,1.54-5.45.73-1.58,1.69-3.04,2.81-4.37h0Z"/>
      <path class="cls-16" d="m125.8,333.7h-5.97v-2h8.23v1.72l-.05.06c-1.24,1.41-2.27,2.99-3.04,4.71-.77,1.73-1.25,3.56-1.48,5.44l-.02.19h-2.11l.03-.24c.24-1.88.74-3.71,1.53-5.43.74-1.61,1.73-3.09,2.88-4.44h0Z"/>
      <path class="cls-28" d="m125.92,333.65h-6.03v-1.89h8.12v1.65l-.04.05c-1.25,1.42-2.28,3-3.05,4.72-.77,1.73-1.25,3.57-1.49,5.45l-.02.14h-2l.02-.18c.23-1.88.73-3.7,1.52-5.41.76-1.64,1.77-3.15,2.95-4.52h0Z"/>
      <path class="cls-18" d="m126.04,333.59h-6.09v-1.78h8.01v1.57l-.03.03c-1.25,1.42-2.28,3-3.05,4.73-.77,1.74-1.26,3.58-1.49,5.47v.09h-1.9v-.12c.25-1.87.74-3.69,1.53-5.4.77-1.68,1.8-3.21,3.02-4.6h0Z"/>
      <path class="cls-34" d="m126.16,333.54h-6.16v-1.67h7.9v1.51c-1.26,1.43-2.3,3.01-3.07,4.75-.78,1.75-1.26,3.59-1.5,5.49v.05h-1.78v-.06c.24-1.86.73-3.67,1.52-5.38.79-1.71,1.84-3.27,3.08-4.68h0Z"/>
      <path class="cls-23" d="m126.28,333.49c-1.34,1.5-2.39,3.09-3.16,4.75-.77,1.67-1.27,3.46-1.51,5.37h1.67c.24-1.96.74-3.79,1.5-5.5.76-1.7,1.79-3.29,3.07-4.76v-1.42h-7.79v1.57h6.22Z"/>
      <path class="cls-11" d="m131.25,335.97c.08-.05.17-.09.25-.14.55-.27,1.15-.39,1.77-.39,1.18,0,2.23.39,3.03,1.26.83.9,1.15,2.04,1.15,3.24s-.35,2.38-1.22,3.27c-.86.89-1.96,1.28-3.19,1.28-1.43,0-2.64-.52-3.49-1.68-.93-1.27-1.16-2.97-1.16-4.51,0-1.76.24-3.75,1.21-5.26.84-1.31,2.06-2,3.63-2,1.07,0,2.11.26,2.91,1,.8.74,1.13,1.74,1.2,2.81l.04.57h-2.58l-.04-.5c-.04-.39-.14-.8-.43-1.08-.29-.27-.7-.34-1.08-.34-.65,0-1.11.27-1.45.82-.28.45-.45,1.04-.55,1.64h0Zm.49,2.48c-.38.41-.49.98-.49,1.53s.11,1.12.5,1.55c.35.39.79.53,1.31.53s.91-.15,1.24-.54c.38-.43.49-1,.49-1.56s-.11-1.09-.48-1.51c-.32-.37-.72-.51-1.2-.51-.52,0-1,.12-1.36.52h0Z"/>
      <path class="cls-9" d="m131.18,336.08c.11-.07.23-.13.35-.19.55-.27,1.14-.39,1.74-.39,1.17,0,2.2.38,2.99,1.24.82.89,1.13,2.01,1.13,3.2s-.35,2.35-1.2,3.23c-.85.88-1.94,1.26-3.15,1.26-1.41,0-2.61-.51-3.44-1.66-.92-1.26-1.15-2.95-1.15-4.47,0-1.75.24-3.73,1.2-5.23.84-1.3,2.04-1.98,3.59-1.98,1.06,0,2.08.26,2.87.99.79.73,1.12,1.72,1.19,2.76l.04.52h-2.47l-.04-.45c-.03-.4-.14-.83-.44-1.11-.3-.28-.72-.35-1.12-.35-.67,0-1.15.28-1.5.84-.3.49-.48,1.13-.58,1.77h0Zm.52,2.34c-.39.42-.51,1-.51,1.57s.12,1.15.51,1.58c.36.4.82.55,1.34.55s.94-.16,1.28-.56c.38-.44.5-1.02.5-1.59s-.11-1.12-.49-1.55c-.33-.38-.75-.53-1.24-.53-.54,0-1.03.13-1.4.53h0Z"/>
      <path class="cls-15" d="m131.1,336.19c.14-.09.29-.18.45-.26.54-.27,1.12-.38,1.72-.38,1.15,0,2.17.38,2.95,1.23.81.87,1.12,1.99,1.12,3.16s-.34,2.32-1.19,3.2c-.84.87-1.91,1.24-3.11,1.24-1.4,0-2.57-.5-3.4-1.64-.91-1.25-1.14-2.93-1.14-4.44,0-1.73.23-3.71,1.2-5.21.82-1.28,2.01-1.95,3.54-1.95,1.04,0,2.06.25,2.84.98.78.72,1.1,1.7,1.17,2.73l.03.46h-2.36l-.04-.39c-.04-.42-.15-.86-.46-1.15-.31-.29-.74-.37-1.15-.37-.69,0-1.18.29-1.54.87-.32.52-.5,1.23-.61,1.91h0Zm.55,2.19c-.4.44-.52,1.02-.52,1.6s.12,1.17.53,1.62c.37.41.84.56,1.38.56s.97-.17,1.32-.58c.39-.45.52-1.04.52-1.63s-.12-1.14-.5-1.58c-.34-.39-.77-.55-1.28-.55-.55,0-1.06.14-1.44.55h0Z"/>
      <path class="cls-13" d="m131.04,336.31c.17-.12.35-.23.54-.33.53-.26,1.11-.37,1.7-.37,1.14,0,2.14.37,2.91,1.21.8.87,1.1,1.96,1.1,3.13s-.34,2.29-1.17,3.16c-.83.86-1.89,1.23-3.07,1.23-1.38,0-2.54-.49-3.36-1.61-.9-1.24-1.13-2.91-1.13-4.41,0-1.73.23-3.69,1.19-5.18.81-1.27,1.99-1.93,3.49-1.93,1.03,0,2.03.25,2.8.96.77.71,1.09,1.68,1.15,2.7l.02.4h-2.26l-.03-.35c-.04-.43-.16-.88-.48-1.18-.32-.3-.77-.38-1.19-.38-.7,0-1.22.3-1.59.9-.35.56-.53,1.33-.63,2.06h0Zm.59,2.03c-.41.45-.54,1.04-.54,1.64s.13,1.2.54,1.66c.38.42.87.58,1.43.58s1-.17,1.36-.59c.4-.46.53-1.06.53-1.66s-.13-1.17-.52-1.62c-.35-.4-.8-.57-1.32-.57-.57,0-1.09.14-1.48.57h0Z"/>
      <path class="cls-22" d="m130.96,336.43c.2-.15.41-.29.63-.4.52-.26,1.09-.37,1.67-.37,1.12,0,2.11.36,2.87,1.19.79.86,1.08,1.94,1.08,3.09s-.33,2.27-1.16,3.12c-.82.85-1.86,1.21-3.03,1.21-1.36,0-2.51-.48-3.32-1.59-.9-1.23-1.12-2.89-1.12-4.38,0-1.71.24-3.68,1.18-5.15.8-1.25,1.96-1.9,3.45-1.9,1.02,0,2,.24,2.76.95.76.7,1.07,1.65,1.14,2.66l.02.34h-2.15l-.02-.3c-.04-.44-.16-.9-.5-1.21-.33-.31-.79-.4-1.23-.4-.72,0-1.25.31-1.63.92-.38.61-.56,1.43-.66,2.21h0Zm.61,1.88c-.42.46-.55,1.07-.55,1.68s.13,1.22.55,1.69c.39.43.89.6,1.47.6s1.03-.18,1.4-.61c.41-.48.55-1.08.55-1.7s-.13-1.2-.53-1.65c-.36-.41-.82-.59-1.37-.59-.58,0-1.12.15-1.52.58h0Z"/>
      <path class="cls-20" d="m130.9,336.56c.22-.19.46-.35.72-.48.52-.25,1.07-.36,1.65-.36,1.1,0,2.08.36,2.83,1.18.78.85,1.07,1.92,1.07,3.06s-.32,2.24-1.14,3.09c-.81.84-1.84,1.19-2.99,1.19-1.34,0-2.48-.47-3.27-1.57-.89-1.22-1.11-2.88-1.11-4.35,0-1.7.23-3.66,1.17-5.12.79-1.24,1.93-1.88,3.4-1.88,1,0,1.98.24,2.73.93.75.69,1.06,1.63,1.12,2.62l.02.29h-2.04l-.02-.25c-.04-.46-.17-.93-.51-1.25-.34-.32-.81-.41-1.26-.41-.74,0-1.29.32-1.68.94-.4.65-.59,1.54-.68,2.37h0Zm.64,1.71c-.43.47-.56,1.09-.56,1.71s.14,1.25.57,1.73c.4.45.91.62,1.5.62s1.06-.19,1.44-.63c.42-.48.55-1.11.55-1.73s-.13-1.22-.54-1.69c-.37-.43-.85-.61-1.41-.61-.6,0-1.15.16-1.56.6h0Z"/>
      <path class="cls-16" d="m130.83,336.69c.24-.23.52-.41.82-.56.51-.25,1.06-.36,1.63-.36,1.09,0,2.05.35,2.79,1.16.77.84,1.06,1.9,1.06,3.02s-.32,2.21-1.13,3.05c-.8.82-1.82,1.17-2.95,1.17-1.32,0-2.44-.46-3.23-1.55-.88-1.21-1.1-2.86-1.1-4.32,0-1.69.23-3.64,1.16-5.09.78-1.22,1.9-1.86,3.35-1.86.99,0,1.95.23,2.69.92.73.68,1.04,1.61,1.1,2.59l.02.23h-1.93l-.02-.2c-.04-.47-.18-.95-.53-1.29-.35-.33-.83-.43-1.3-.43-.76,0-1.32.32-1.73.97-.42.69-.61,1.66-.7,2.53h0Zm.67,1.54c-.44.48-.58,1.11-.58,1.75s.14,1.28.58,1.77c.41.45.94.63,1.55.63s1.09-.2,1.48-.65c.43-.5.57-1.13.57-1.77s-.14-1.24-.56-1.72c-.38-.44-.87-.62-1.44-.62-.61,0-1.18.16-1.6.62h0Z"/>
      <path class="cls-28" d="m130.76,336.83c.27-.27.57-.49.91-.66.5-.25,1.05-.35,1.6-.35,1.08,0,2.02.34,2.75,1.14.76.83,1.05,1.87,1.05,2.98s-.32,2.18-1.11,3.01c-.79.82-1.79,1.16-2.91,1.16-1.3,0-2.41-.46-3.18-1.52-.87-1.2-1.09-2.84-1.09-4.29,0-1.68.22-3.62,1.15-5.06.77-1.21,1.88-1.83,3.31-1.83.97,0,1.92.23,2.65.9.73.67,1.02,1.59,1.08,2.55v.17s-1.82,0-1.82,0v-.15c-.05-.49-.2-.98-.56-1.32-.36-.34-.85-.44-1.34-.44-.78,0-1.36.34-1.77,1-.46.74-.64,1.78-.72,2.7h0Zm.7,1.36c-.45.49-.59,1.13-.59,1.78s.14,1.3.59,1.8c.42.47.96.65,1.59.65s1.12-.2,1.53-.67c.44-.5.58-1.15.58-1.8s-.14-1.27-.57-1.76c-.39-.44-.9-.64-1.49-.64-.62,0-1.2.17-1.64.64h0Z"/>
      <path class="cls-18" d="m130.69,336.98c.28-.31.61-.57,1-.75.5-.25,1.03-.35,1.58-.35,1.06,0,1.99.33,2.71,1.12.75.82,1.03,1.85,1.03,2.95s-.31,2.16-1.1,2.97c-.78.81-1.77,1.14-2.88,1.14-1.29,0-2.38-.45-3.14-1.5-.86-1.19-1.08-2.82-1.08-4.25,0-1.67.22-3.6,1.15-5.03.76-1.19,1.85-1.8,3.26-1.8.96,0,1.9.22,2.62.89.71.66,1,1.56,1.07,2.52v.11s-1.71,0-1.71,0v-.1c-.05-.5-.2-1-.57-1.35-.38-.35-.88-.46-1.38-.46-.8,0-1.4.35-1.82,1.02-.49.79-.67,1.92-.74,2.87h0Zm.73,1.18c-.46.5-.61,1.16-.61,1.82s.15,1.33.61,1.84c.43.48.99.67,1.63.67s1.16-.21,1.57-.69c.45-.52.6-1.17.6-1.84s-.15-1.29-.59-1.8c-.4-.46-.92-.66-1.53-.66-.64,0-1.23.18-1.68.66h0Z"/>
      <path class="cls-34" d="m130.63,337.13c.3-.36.66-.66,1.08-.86.49-.24,1.01-.34,1.56-.34,1.05,0,1.96.33,2.67,1.1.74.81,1.02,1.83,1.02,2.91s-.3,2.13-1.08,2.94c-.77.79-1.74,1.12-2.84,1.12-1.27,0-2.34-.44-3.1-1.48-.86-1.18-1.07-2.8-1.07-4.22,0-1.66.22-3.58,1.13-5,.75-1.17,1.82-1.78,3.22-1.78.95,0,1.87.22,2.58.88.7.65.99,1.54,1.05,2.48v.05s-1.61,0-1.61,0v-.05c-.05-.52-.2-1.03-.59-1.39-.38-.36-.9-.47-1.41-.47-.82,0-1.43.36-1.86,1.05-.52.84-.7,2.06-.76,3.06h0Zm.75.99c-.47.51-.62,1.18-.62,1.86s.16,1.36.62,1.87c.44.49,1.01.69,1.66.69s1.19-.22,1.61-.7c.45-.52.61-1.19.61-1.88s-.15-1.32-.6-1.83c-.41-.47-.95-.68-1.57-.68-.66,0-1.26.18-1.72.67h0Z"/>
      <path class="cls-23" d="m130.06,333.33c-.75,1.17-1.13,2.83-1.13,4.97,0,1.82.36,3.22,1.06,4.19.71.97,1.72,1.46,3.05,1.46,1.15,0,2.09-.37,2.8-1.11.71-.74,1.07-1.71,1.07-2.9s-.33-2.14-1-2.87c-.67-.73-1.55-1.09-2.64-1.09-.56,0-1.08.11-1.53.34-.45.23-.84.55-1.17.98.08-1.45.33-2.54.77-3.25.44-.72,1.08-1.08,1.91-1.08.62,0,1.1.16,1.45.48.34.32.55.8.6,1.43h1.51c-.07-1.05-.41-1.87-1.03-2.44-.62-.57-1.46-.86-2.54-.86-1.37,0-2.42.58-3.17,1.75h0Zm1.28,4.75c.43-.46,1.01-.69,1.76-.69.66,0,1.2.23,1.61.7.41.47.61,1.09.61,1.87s-.21,1.43-.62,1.91c-.42.48-.96.72-1.65.72s-1.28-.23-1.71-.7c-.43-.47-.63-1.11-.63-1.91s.21-1.43.63-1.89h0Z"/>
      <path class="cls-12" d="m133.23,331.04c1.07,0,2.11.26,2.91,1,.8.74,1.13,1.74,1.2,2.81l.04.57h-2.58l-.04-.5c-.04-.39-.14-.8-.43-1.08-.29-.27-.7-.34-1.08-.34-.65,0-1.11.27-1.45.82-.28.45-.45,1.04-.55,1.64l.25-.14c.55-.27,1.15-.39,1.77-.39,1.18,0,2.23.39,3.03,1.26.83.9,1.15,2.04,1.15,3.24s-.35,2.38-1.22,3.27c-.86.89-1.96,1.28-3.19,1.28-1.43,0-2.64-.52-3.49-1.68-.93-1.27-1.16-2.97-1.16-4.51,0-1.76.24-3.75,1.21-5.26.84-1.31,2.06-2,3.63-2h0Zm45.98-15.62l6.72,1.41,3.88-5.28.62,7.19,6.36,1.64-6.43,2.58-.15,7.09-4.48-5.21-6.81,1.93,4.15-5.98-3.87-5.38Zm-17.61,17.98l6.38,3.31,4.62-4.84-.92,6.69,5.91,4.01-7,.82-1.67,6.75-2.9-6.16-6.99.33,5.18-4.57-2.6-6.34Zm64-167.62c0,87.92-47.43,159.05-107.16,159.05S12.26,253.27,12.26,165.35,58.71,6.44,118.43,6.44s107.16,71.41,107.16,159.33h0ZM118.93.25C53.36.25.21,85.63.21,190.94s53.15,190.69,118.72,190.69,118.72-85.37,118.72-190.69S184.49.25,118.93.25h0Zm9.47,331.13v2.17l-.14.15c-1.22,1.39-2.23,2.93-2.98,4.62-.75,1.7-1.23,3.5-1.45,5.35l-.06.47h-2.76l.08-.61c.24-1.91.75-3.77,1.55-5.52.66-1.43,1.5-2.76,2.48-3.99h-5.6v-2.65h8.88Zm-69.9-17.71l-3.49,6.12,4.65,5.3-6.9-1.52-3.91,6-.5-7.14-7.1-1.84,6.49-2.72-.36-7.13,4.81,5.3,6.33-2.35Zm60.91,23.55c0,1.76-.23,3.77-1.21,5.28-.86,1.32-2.1,1.99-3.67,1.99-1.09,0-2.13-.28-2.94-1.04-.79-.75-1.12-1.72-1.13-2.8v-.54s2.57,0,2.57,0v.53c.02.38.12.75.41,1.02.3.28.71.36,1.11.36.65,0,1.11-.27,1.45-.82.28-.45.45-1.05.55-1.65l-.25.14c-.56.28-1.16.4-1.78.4-1.18,0-2.22-.39-3.02-1.26-.82-.9-1.14-2.03-1.14-3.24s.35-2.38,1.21-3.28c.86-.89,1.96-1.27,3.18-1.27,1.43,0,2.64.52,3.49,1.68.93,1.27,1.17,2.98,1.17,4.51h0Zm21.29,8.62l5.33,4.82,5.9-3.27-2.83,6.71,4.75,5.17-7.24-1.56-3.62,5.9-1.12-6.66-6.46-1.3,6.2-3.02-.91-6.79Zm-22.37,3.55l3.05,6.51,7.03-.44-5.54,4.8,2.38,6.6-5.87-4.08-5.69,4.57,1.71-6.89-5.89-3.92,7.03-.55,1.79-6.62Zm-10.67-18.36v13.11h-2.57v-8.5h-2.66v-2.3h.54c.59-.01,1.36-.09,1.85-.46.43-.32.59-.85.64-1.36l.05-.48h2.14Zm-31.46.38l-1.84,6.98,5.05,4.49-6.69-.36-2.57,6.43-2.16-6.45-6.89-.11,5.65-4.19-2.27-6.67,5.97,3.7,5.75-3.82Zm19.98,13.14l.48,6.73,6.12,2.45-6.34,2.4-.21,6.91-4.34-5.77-6.75,2.03,4.16-5.67-3.5-5.95,6.41,1.92,3.98-5.04Z"/>
      <path class="cls-12" d="m134.3,338.45c-.32-.37-.72-.51-1.2-.51-.52,0-1,.12-1.36.52-.38.41-.49.98-.49,1.53s.11,1.12.5,1.55c.35.39.79.53,1.31.53s.91-.15,1.24-.54c.38-.43.49-1,.49-1.56s-.11-1.09-.48-1.51h0Z"/>
      <path class="cls-12" d="m116.05,337.06c.38-.41.5-.96.5-1.51s-.12-1.12-.5-1.55c-.34-.39-.78-.53-1.29-.53s-.92.15-1.25.54c-.38.43-.49,1-.49,1.56s.11,1.08.47,1.5c.32.37.72.51,1.2.51.52,0,1-.13,1.36-.52h0Z"/>
      <path class="cls-12" d="m84.32,171.58l-29.32-33.96,11.95,72.42-23.48-13.36,57.23,119.39-17.72-116.44,28.69,18-17.72-100.13,20.53,29.67-17.79-81.94c-10.9,4.26-20.98,11.46-29.84,20.98l17.46,85.36Z"/>
      <path class="cls-19" d="m111.67,217.63l-28.69-18,17.72,116.44-57.23-119.39,23.48,13.36-11.95-72.42,29.32,33.96-17.46-85.36c-22.32,24-36.81,62.76-36.81,106.5,0,72.85,40.07,131.34,89.68,131.34s88.55-58.49,88.55-131.34S169.48,60.81,119.87,60.81c-8.02,0-15.79,1.54-23.18,4.43l17.79,81.94-20.53-29.67,17.72,100.13Zm66.26,2.5c-8.64,12.13-32.17,15.58-45.42-.05,8.23-4.73,12.89-10.61,14.98-17.79l-.21-46.34h5.42v7h4.96l.03-7,5.1.07.07,46.55c2.34,7.62,7,13.28,15.08,17.56h0Zm-35.44-18.65c-2.3,6.43-6.78,10.95-12.46,14.01-.88-1.27-1.56-4.27-1.57-6.7l-.11-53.09h14.13v45.77Zm25.2-.21l.14-45.56h13.22l-.11,53.09c0,2.42.28,5.48-.6,6.75-5.68-3.06-10.35-7.84-12.66-14.27h0Zm-35.52-56.47c-.09-.95-.1-1.77-.09-2.62,0-.57.14-1.17.57-1.62,2.15-2.24,3.64-3.8,4.78-5.03,2.11-2.26,3.12-3.38,5.48-5.3.78-.63,1.84-.61,2.96-.56.64.03.83,1.51.77,2.32-.12,1.71-.54,4.05-.98,5.13-.41,1-.35,2.53.7,1.69,3.55-2.84,6.25-6.64,9.84-9.42.89-.69,2.31-1.32,3.3-.77.77.43,1.22,1.83,1.05,2.81-.25,1.47-.6,3.16-.7,4.85-.09,1.43-.51,2.81-.74,4.22-.12.77.04,1.15.76.5.38-.35.72-.68.86-1.15.08-.28.39-.5.62-.69,1.59-1.29,3.06-2.69,4.81-3.74.61-.37,1.46-.66,2.11-.35,1.22.57,2.11,1.7,2.95,2.74.64.79.89,1.83,1.41,2.71.41.7.73,1.45,1.26,2.06.63.71,1.72.8,2.64.12.8-.59,1.43-2.03,2.27-1.95.06,1.2-.05,3.07.05,4.34-.51.68-1.29,1.68-2.18,2.21-.96.58-2.11,1.26-3.2,1.02-1.77-.39-3.55-1.35-4.68-2.78-.84-1.06-1.53-2.45-3.02-3.2-.44-.22-.93-.56-1.41-.46-.82.18-1.53.74-2.21,1.23-.79.57-1.52,1.22-2.18,1.93-.58.63-.96,1.41-1.51,2.07-.57.69-1.22,1.31-1.83,1.97-.68.74-1.27,1.57-2.04,2.21-.62.52-1.3,1.02-2.08,1.27-.39.12-.89.03-1.19-.25-.35-.32-.64-.87-.53-1.34.9-3.59,2.2-7.12,2.71-10.86.08-.57.3-1.17.14-1.72-.08-.29-.47-.48-.77-.49-.46-.02-.92.17-1.3.42-.56.37-.93.97-1.44,1.41-.51.43-1.15.72-1.62,1.19-1.27,1.29-2.38,2.73-3.59,4.08-1.04,1.17-2.09,2.34-3.16,3.48-.52.55-1.01,1.13-1.62,1.58-.84.62-1.64,1.53-2.67,1.62-.56.05-1.05-.74-1.05-1.3-.02-1.42.61-2.78.98-4.15.33-1.23.76-2.43,1.12-3.66.19-.66.56-1.31.56-2,0-.38-.19-1.05-.56-1.06-.68,0-1.29.57-1.79,1.02-.82.74-1.4,1.72-2.11,2.57-.45.53-.89,1.08-1.37,1.58-.2.21-.38.53-.67.56-.21.02-.4-.25-.42-.46h0Z"/>
    </g>
  </g>
</svg>