<?xml version="1.0" encoding="UTF-8"?>
<svg id="Layer_2" data-name="Layer 2" xmlns="http://www.w3.org/2000/svg" xmlns:xlink="http://www.w3.org/1999/xlink" viewBox="0 0 288.6 269.1">
  <defs>
    <style>
      .cls-1 {
        fill: none;
      }

      .cls-1, .cls-2, .cls-3, .cls-4, .cls-5, .cls-6, .cls-7, .cls-8, .cls-9, .cls-10, .cls-11, .cls-12, .cls-13, .cls-14, .cls-15, .cls-16, .cls-17, .cls-18, .cls-19, .cls-20, .cls-21, .cls-22, .cls-23, .cls-24, .cls-25, .cls-26, .cls-27, .cls-28 {
        stroke-width: 0px;
      }

      .cls-2 {
        fill: url(#linear-gradient);
      }

      .cls-4 {
        fill: #530000;
      }

      .cls-5 {
        fill: #2a765c;
      }

      .cls-6 {
        fill: #5b6436;
      }

      .cls-7 {
        fill: #384f59;
      }

      .cls-8 {
        fill: #393e56;
      }

      .cls-9 {
        fill: #2d6848;
      }

      .cls-10 {
        fill: #1b2800;
      }

      .cls-11 {
        fill: #3f78a1;
      }

      .cls-12 {
        fill: #101c4b;
      }

      .cls-13 {
        fill: #143881;
      }

      .cls-14 {
        fill: #d2d0d5;
      }

      .cls-15 {
        fill: #cfcdcc;
      }

      .cls-16 {
        fill: #d23814;
      }

      .cls-17 {
        fill: #c93;
      }

      .cls-18 {
        fill: #db3e09;
      }

      .cls-19 {
        fill: #bbb;
      }

      .cls-20 {
        fill: #d93d15;
      }

      .cls-21 {
        fill: #7f200d;
      }

      .cls-22 {
        fill: #f2cf03;
      }

      .cls-23 {
        fill: #fff;
      }

      .cls-24 {
        fill: #ff2800;
      }

      .cls-25 {
        fill: #026234;
      }

      .cls-26 {
        fill: #004d8d;
      }

      .cls-27 {
        fill: #007703;
      }

      .cls-28 {
        fill: #0092bf;
      }
    </style>
    <linearGradient id="linear-gradient" x1="89.97" y1="71.79" x2="103.35" y2="76.66" gradientUnits="userSpaceOnUse">
      <stop offset=".31" stop-color="#c30"/>
      <stop offset=".51" stop-color="#913313"/>
      <stop offset=".71" stop-color="#5e3324"/>
      <stop offset=".86" stop-color="#3e332f"/>
      <stop offset=".94" stop-color="#333"/>
    </linearGradient>
  </defs>
  <g id="Layer_1-2" data-name="Layer 1">
    <path class="cls-22" d="m144.3,269.1c29.25-63.15,144.3-43.2,144.3-173.4C288.6,39.6,255.9,0,255.9,0c0,0-13.5,17.1-50.4,17.1-34.8,0-61.2-17.1-61.2-17.1,0,0-26.4,17.1-61.2,17.1C46.2,17.1,32.7,0,32.7,0,32.7,0,0,39.6,0,95.7c0,130.2,115.05,110.25,144.3,173.4Z"/>
    <path class="cls-23" d="m83.1,34.45c-20.71,0-35.62-4.71-45.86-9.95-8.45,14.7-19.89,40.27-19.89,71.2,0,70.4,35.12,88.46,75.78,109.38,18.25,9.39,36.93,19.02,51.17,33.87,14.25-14.85,32.92-24.47,51.17-33.87,40.66-20.92,75.78-38.98,75.78-109.38,0-30.93-11.44-56.51-19.89-71.2-10.24,5.24-25.15,9.95-45.86,9.95-26.83,0-49.2-8.8-61.2-14.7-12,5.9-34.37,14.7-61.2,14.7Z"/>
    <path class="cls-24" d="m141.6,169.5l65.25-97.65-27.2,5.99,25.39-43.41c-6.75-.03-13.21-.6-19.29-1.55l-31.87,59.28,19.19-3.05-28.76,49.17-6.53-16.16-35.2,65.47-6.19-3.92,1.57,22.05,20.48-8.1-6.44-4.08,24.19-41.35,5.43,17.31Z"/>
    <path class="cls-3" d="m241.23,77.31c-1.78,0-3.49-.35-5.12-1.06-1.63-.71-3.08-1.72-4.35-3.05-1.25-1.33-2.24-2.94-2.99-4.86-.74-1.91-1.11-4.07-1.11-6.47s.37-4.57,1.09-6.53c.73-1.95,1.74-3.64,3.03-5.05,1.28-1.4,2.78-2.48,4.52-3.24,1.74-.76,3.6-1.14,5.58-1.14,1.47,0,2.81.2,4,.59,1.19.39,2.33.92,3.41,1.58l.86-1.43h1.69l.17,10.69h-1.74c-.22-1.06-.56-2.2-1-3.43-.45-1.23-.97-2.28-1.57-3.14-.67-.97-1.46-1.73-2.38-2.28-.92-.55-1.97-.82-3.16-.82-1.35,0-2.61.3-3.77.91-1.16.61-2.17,1.51-3.02,2.7-.81,1.15-1.44,2.61-1.9,4.37-.46,1.77-.69,3.74-.69,5.92,0,1.92.24,3.69.72,5.3.48,1.61,1.17,3.02,2.06,4.24.89,1.2,1.95,2.14,3.17,2.82,1.22.68,2.59,1.02,4.1,1.02,1.13,0,2.17-.18,3.12-.54s1.78-.84,2.47-1.44c.7-.62,1.31-1.33,1.84-2.12.53-.79.96-1.66,1.3-2.59l1.58.76c-1.21,2.98-2.81,5.1-4.8,6.38-1.99,1.28-4.36,1.91-7.11,1.91Z"/>
    <path class="cls-3" d="m234.86,99.36h-1.58c-.29-1.09-.91-2.27-1.85-3.51-.94-1.25-1.84-1.93-2.69-2.06-.44-.05-.95-.1-1.55-.12-.6-.03-1.28-.04-2.04-.04h-5.03v11.92h3.46c1.04,0,1.86-.11,2.44-.33.58-.22,1.08-.55,1.48-1.01.28-.31.54-.79.77-1.45.23-.66.39-1.36.46-2.11h1.57v11.81h-1.57c-.04-.62-.19-1.32-.43-2.11-.25-.79-.51-1.36-.8-1.71-.42-.52-.96-.88-1.6-1.07-.64-.19-1.42-.29-2.32-.29h-3.46v10.28c0,.46.09.88.28,1.24.18.36.51.66.98.88.21.1.67.22,1.39.36.71.14,1.25.22,1.62.23v1.52h-13.05v-1.52c.42-.03.99-.07,1.69-.14.7-.06,1.16-.14,1.38-.24.42-.18.73-.45.92-.81.19-.36.29-.79.29-1.3v-21.56c0-.46-.08-.87-.23-1.23-.16-.36-.48-.65-.97-.87-.38-.18-.89-.34-1.54-.48-.64-.14-1.15-.23-1.53-.25v-1.52h23.51v7.48Z"/>
    <path class="cls-3" d="m218.49,163.43h-8.08c-1.78-2.79-3.39-5.19-4.82-7.22-1.44-2.03-2.99-4.12-4.67-6.28h-3.07v9.42c0,.49.08.92.23,1.29.15.37.49.65.99.85.25.1.7.19,1.33.27.63.08,1.17.13,1.61.15v1.52h-12.66v-1.52c.33-.03.82-.08,1.46-.15.64-.07,1.08-.16,1.33-.27.42-.18.72-.45.91-.8.19-.35.28-.8.28-1.35v-21.6c0-.49-.07-.93-.21-1.31-.14-.38-.47-.67-.99-.86-.35-.13-.81-.24-1.37-.35-.56-.11-1.04-.17-1.43-.2v-1.52h13.79c1.26,0,2.45.13,3.56.39,1.11.26,2.11.68,3.01,1.26.87.56,1.57,1.3,2.08,2.21.52.91.78,2,.78,3.29,0,1.15-.18,2.18-.53,3.06-.35.89-.87,1.66-1.55,2.3-.63.6-1.39,1.13-2.27,1.58-.88.44-1.86.82-2.92,1.13,1.48,1.95,2.7,3.59,3.68,4.93.98,1.33,2.18,2.96,3.6,4.86.62.84,1.18,1.46,1.68,1.85.5.39.99.71,1.49.96.37.18.82.32,1.37.42.55.09,1.01.15,1.37.16v1.52Zm-11.14-22.29c0-1.81-.52-3.25-1.55-4.31-1.03-1.06-2.5-1.59-4.38-1.59h-3.57v12.83h2.75c1.93,0,3.54-.62,4.83-1.86,1.29-1.24,1.93-2.93,1.93-5.07Z"/>
    <path class="cls-3" d="m189.81,201.42h-13.27v-1.52c.48-.01,1.09-.06,1.85-.15.75-.08,1.27-.2,1.55-.36.44-.27.76-.57.96-.92.2-.34.31-.77.31-1.29v-21.74h-.32l-10.19,25.47h-1.05l-9.71-26h-.27v17.84c0,1.73.11,3.04.33,3.94.22.9.55,1.54,1.01,1.94.31.3.95.58,1.93.84.98.27,1.61.41,1.91.42v1.52h-12.09v-1.52c.63-.06,1.3-.16,1.99-.32.7-.16,1.23-.39,1.61-.69.49-.39.83-1,1.01-1.81.18-.81.27-2.18.27-4.09v-15.29c0-.88-.11-1.61-.32-2.17-.21-.56-.51-1.02-.91-1.37-.44-.38-.98-.66-1.61-.84-.63-.18-1.26-.29-1.88-.32v-1.52h10.21l8.55,22.4,7.31-18.74c.27-.69.5-1.41.69-2.16.19-.75.29-1.25.31-1.51h9.78v1.52c-.39.01-.89.08-1.5.19-.61.11-1.05.22-1.33.32-.47.17-.8.45-.96.84-.17.39-.25.82-.25,1.29v21.54c0,.49.08.91.25,1.24.17.34.49.63.97.88.25.14.7.27,1.35.39.64.12,1.16.19,1.54.2v1.52Z"/>
    <g>
      <path class="cls-3" d="m74.39,160.55c9.1-7.14,26.61-3.92,26.61-14.4v-52.76h-53.22v52.76c0,10.48,17.51,7.26,26.61,14.4Z"/>
      <path class="cls-28" d="m89.71,137.34c-5.27-.72-11.22-1.54-15.32-6.19-4.1,4.65-10.05,5.47-15.32,6.19-5.98.82-10.7,1.46-10.7,7.32h0v1.5c0,5.72,5.8,7.06,12.52,8.62,4.56,1.05,9.7,2.26,13.5,5.07,3.8-2.81,8.94-4.02,13.5-5.07,6.72-1.55,12.53-2.89,12.53-8.62v-1.5c0-5.86-4.73-6.5-10.71-7.32Z"/>
      <path class="cls-27" d="m74.1,93.98h-25.73v47.5c1.52-3.48,5.81-4.06,10.62-4.72,5.23-.71,11.15-1.52,15.1-6.15v-36.63Z"/>
      <path class="cls-19" d="m74.69,93.98v36.63c3.96,4.63,9.88,5.44,15.1,6.15,4.82.66,9.11,1.24,10.63,4.72v-47.5h-25.73Z"/>
      <path class="cls-3" d="m80.1,136.35h-2.6v1.96h-1.14v-1.96h-3.93v1.96h-1.14v-1.96h-2.89v2.55h1.21v7.09c-.27.17-9.96,6.1-9.96,6.1v.92h29.5v-.92s-9.69-5.94-9.96-6.1v-7.09h1.21v-2.55h-.29Z"/>
      <polygon class="cls-4" points="88.85 152.72 88.85 152.26 78.89 146.15 78.89 138.61 80.1 138.61 80.1 136.65 77.79 136.65 77.79 138.61 76.06 138.61 76.06 136.65 72.72 136.65 72.72 138.61 70.99 138.61 70.99 136.65 68.69 136.65 68.69 138.61 69.9 138.61 69.9 146.15 59.94 152.26 59.94 152.72 88.85 152.72"/>
      <g>
        <path class="cls-9" d="m80.44,111.94c0-.62.31-1.15.74-1.32h0s-1.6-.75-1.6-.75c0,0-.58-.58-.29-1.04.29-.46,1.15-.46,1.15-.46l1.05-.86c0-.06-.01-.11-.01-.17,0-.76.46-1.38,1.04-1.38.24,0,.45.11.62.28l1.05-.74h0c.14-.54.52-.93.97-.93.28,0,.54.15.72.4l.4-.12h0c.1-.62.52-1.08,1.01-1.08.57,0,1.04.62,1.04,1.38,0,.08,0,.16-.02.24l.06.02c.18-.19.4-.31.65-.31.49,0,.89.45,1,1.05l1.77,1.07s.05-.62.4-.62,1.9.69,1.9.69c0,0-.26-1.01-.81-1.56-.54-.55-2.36-.75-2.36-.75,0,0-5.61-2.16-6.16-2.71-.55-.55-.76-1.44-1.15-2.19-.4-.75-1.04-3.17-1.04-3.17l-2.36,1.84s2.07.86,2.65,2.53c.57,1.67-.27,1.84-.27,1.84l-2.24,3.54s-2.56,1.58-2.56,2.56.63,1.44.63,1.44c0,0,.17.63,1.04,1.04.4.19.73.25.98.26,0-.01,0-.02,0-.03Z"/>
        <g>
          <path class="cls-8" d="m86.2,105.95c0,.76-.47,1.38-1.04,1.38s-1.04-.62-1.04-1.38.46-1.38,1.04-1.38,1.04.62,1.04,1.38Z"/>
          <path class="cls-5" d="m88.33,105.14c0,.76-.46,1.38-1.04,1.38s-1.04-.62-1.04-1.38.46-1.38,1.04-1.38,1.04.62,1.04,1.38Z"/>
          <path class="cls-8" d="m90.06,106.46c0,.76-.46,1.38-1.04,1.38s-1.04-.62-1.04-1.38.47-1.38,1.04-1.38,1.04.62,1.04,1.38Z"/>
          <path class="cls-7" d="m82.51,111.94c0,.76-.46,1.38-1.04,1.38s-1.04-.62-1.04-1.38.46-1.38,1.04-1.38,1.04.62,1.04,1.38Z"/>
          <path class="cls-8" d="m91.44,108.14c0,.76-.46,1.38-1.04,1.38s-1.04-.62-1.04-1.38.46-1.38,1.04-1.38,1.04.62,1.04,1.38Z"/>
          <path class="cls-7" d="m87.53,110.04c0,.76-.46,1.38-1.04,1.38s-1.04-.62-1.04-1.38.46-1.38,1.04-1.38,1.04.62,1.04,1.38Z"/>
          <path class="cls-5" d="m89.6,109.86c0,.76-.47,1.38-1.04,1.38s-1.04-.62-1.04-1.38.46-1.38,1.04-1.38,1.04.62,1.04,1.38Z"/>
          <path class="cls-8" d="m91.15,109.98c0,.76-.46,1.38-1.04,1.38s-1.04-.62-1.04-1.38.46-1.38,1.04-1.38,1.04.62,1.04,1.38Z"/>
          <path class="cls-12" d="m92.13,111.3c0,.76-.46,1.38-1.04,1.38s-1.04-.62-1.04-1.38.46-1.38,1.04-1.38,1.04.62,1.04,1.38Z"/>
          <path class="cls-12" d="m90.52,112.28c0,.76-.47,1.38-1.04,1.38s-1.04-.62-1.04-1.38.46-1.38,1.04-1.38,1.04.62,1.04,1.38Z"/>
          <path class="cls-8" d="m94.84,110.44c0,.76-.47,1.38-1.04,1.38s-1.04-.62-1.04-1.38.47-1.38,1.04-1.38,1.04.62,1.04,1.38Z"/>
          <path class="cls-8" d="m94.09,111.82c0,.76-.46,1.38-1.04,1.38s-1.04-.62-1.04-1.38.46-1.38,1.04-1.38,1.04.62,1.04,1.38Z"/>
          <path class="cls-12" d="m91.1,114.36c0,.76-.46,1.38-1.04,1.38s-1.04-.62-1.04-1.38.46-1.38,1.04-1.38,1.04.62,1.04,1.38Z"/>
          <path class="cls-13" d="m86.43,117.29c0,.76-.47,1.38-1.04,1.38s-1.04-.62-1.04-1.38.46-1.38,1.04-1.38,1.04.62,1.04,1.38Z"/>
          <path class="cls-13" d="m84.59,116.09c0,.76-.46,1.38-1.04,1.38s-1.04-.62-1.04-1.38.47-1.38,1.04-1.38,1.04.62,1.04,1.38Z"/>
          <path class="cls-13" d="m89.25,121.21c0,.77-.46,1.38-1.04,1.38s-1.04-.62-1.04-1.38.46-1.38,1.04-1.38,1.04.62,1.04,1.38Z"/>
          <ellipse class="cls-8" cx="90.81" cy="121.27" rx="1.04" ry="1.38"/>
          <path class="cls-8" d="m92.57,118.42c0,.76-.46,1.38-1.04,1.38s-1.04-.62-1.04-1.38.46-1.38,1.04-1.38,1.04.62,1.04,1.38Z"/>
          <path class="cls-13" d="m88.45,123.57c0,.76-.46,1.38-1.04,1.38s-1.04-.62-1.04-1.38.47-1.38,1.04-1.38,1.04.62,1.04,1.38Z"/>
          <path class="cls-8" d="m86.89,123.63c0,.76-.46,1.38-1.04,1.38s-1.04-.62-1.04-1.38.46-1.38,1.04-1.38,1.04.62,1.04,1.38Z"/>
          <path class="cls-8" d="m90.81,126.57c0,.76-.47,1.38-1.04,1.38s-1.04-.62-1.04-1.38.46-1.38,1.04-1.38,1.04.62,1.04,1.38Z"/>
          <path class="cls-12" d="m89.4,115.25c0,.76-.46,1.38-1.04,1.38s-1.04-.62-1.04-1.38.47-1.38,1.04-1.38,1.04.62,1.04,1.38Z"/>
          <path class="cls-8" d="m90.69,119.08c0,.76-.46,1.38-1.04,1.38s-1.04-.62-1.04-1.38.46-1.38,1.04-1.38,1.04.62,1.04,1.38Z"/>
          <path class="cls-8" d="m87.47,118.96c0,.76-.46,1.38-1.04,1.38s-1.04-.62-1.04-1.38.47-1.38,1.04-1.38,1.04.62,1.04,1.38Z"/>
          <path class="cls-13" d="m85.34,108.08c0,.76-.46,1.38-1.04,1.38s-1.04-.62-1.04-1.38.46-1.38,1.04-1.38,1.04.62,1.04,1.38Z"/>
          <path class="cls-7" d="m86.31,111.02c0,.76-.46,1.38-1.03,1.38s-1.04-.62-1.04-1.38.46-1.38,1.04-1.38,1.03.62,1.03,1.38Z"/>
          <path class="cls-5" d="m86.89,107.56c0,.76-.46,1.38-1.04,1.38s-1.04-.62-1.04-1.38.46-1.38,1.04-1.38,1.04.62,1.04,1.38Z"/>
          <path class="cls-13" d="m83.55,107.33c0,.76-.46,1.38-1.04,1.38s-1.04-.62-1.04-1.38.46-1.38,1.04-1.38,1.04.62,1.04,1.38Z"/>
          <path class="cls-5" d="m83.95,113.49c0,.76-.46,1.38-1.04,1.38s-1.04-.62-1.04-1.38.46-1.38,1.04-1.38,1.04.62,1.04,1.38Z"/>
          <path class="cls-11" d="m84.59,110.44c0,.76-.46,1.38-1.04,1.38s-1.04-.62-1.04-1.38.47-1.38,1.04-1.38,1.04.62,1.04,1.38Z"/>
          <path class="cls-11" d="m92.77,113.72c0,.76-.46,1.38-1.04,1.38s-1.04-.62-1.04-1.38.47-1.38,1.04-1.38,1.04.62,1.04,1.38Z"/>
          <path class="cls-11" d="m84.59,119.19c0,.76-.46,1.38-1.04,1.38s-1.04-.62-1.04-1.38.47-1.38,1.04-1.38,1.04.62,1.04,1.38Z"/>
          <path class="cls-11" d="m87.27,120.84c0,.76-.46,1.38-1.04,1.38s-1.04-.62-1.04-1.38.46-1.38,1.04-1.38,1.04.62,1.04,1.38Z"/>
          <path class="cls-11" d="m86.14,113.15c0,.76-.46,1.38-1.04,1.38s-1.03-.62-1.03-1.38.46-1.38,1.03-1.38,1.04.62,1.04,1.38Z"/>
          <path class="cls-11" d="m82.51,109.29c0,.76-.46,1.38-1.04,1.38s-1.04-.62-1.04-1.38.46-1.38,1.04-1.38,1.04.62,1.04,1.38Z"/>
          <path class="cls-13" d="m91.04,123.75c0,.76-.46,1.38-1.04,1.38s-1.04-.62-1.04-1.38.46-1.38,1.04-1.38,1.04.62,1.04,1.38Z"/>
          <path class="cls-13" d="m92.25,125.47c0,.76-.46,1.38-1.04,1.38s-1.04-.62-1.04-1.38.46-1.38,1.04-1.38,1.04.62,1.04,1.38Z"/>
          <path class="cls-13" d="m89.6,125.24c0,.76-.47,1.38-1.04,1.38s-1.04-.62-1.04-1.38.46-1.38,1.04-1.38,1.04.62,1.04,1.38Z"/>
          <path class="cls-13" d="m88.62,112.28c0,.76-.46,1.38-1.04,1.38s-1.04-.62-1.04-1.38.46-1.38,1.04-1.38,1.04.62,1.04,1.38Z"/>
          <path class="cls-13" d="m87.7,114.99c0,.76-.46,1.38-1.04,1.38s-1.04-.62-1.04-1.38.46-1.38,1.04-1.38,1.04.62,1.04,1.38Z"/>
          <path class="cls-5" d="m88.99,117.73c0,.76-.46,1.38-1.04,1.38s-1.04-.62-1.04-1.38.46-1.38,1.04-1.38,1.04.62,1.04,1.38Z"/>
          <path class="cls-13" d="m92.83,109.75c0,.76-.46,1.38-1.04,1.38s-1.04-.62-1.04-1.38.46-1.38,1.04-1.38,1.04.62,1.04,1.38Z"/>
          <path class="cls-5" d="m91.33,116.43c0,.76-.46,1.38-1.04,1.38s-1.04-.62-1.04-1.38.46-1.38,1.04-1.38,1.04.62,1.04,1.38Z"/>
          <path class="cls-5" d="m88.68,107.96c0,.76-.46,1.38-1.04,1.38s-1.04-.62-1.04-1.38.47-1.38,1.04-1.38,1.04.62,1.04,1.38Z"/>
          <path class="cls-5" d="m93.06,115.85c0,.76-.46,1.38-1.04,1.38s-1.04-.62-1.04-1.38.46-1.38,1.04-1.38,1.04.62,1.04,1.38Z"/>
        </g>
      </g>
      <g>
        <path class="cls-14" d="m51.53,99.38c0-1.04,1.96-2.88,4.55-2.88.98,0,.4,1.04.4,1.56s1.79,2.02,1.79,2.02l10.31.35c1.5,0,2.88,1.15,2.88,2.25s-.89,1.4-.89,1.4v1.36l.64.64v1.08l-3.56.29-1.84.63h-1.73v-.81l1.55-.81,1.96-.52v-1.73l-.98-.12-.4,1.61-1.56.58h-4.49l.72.72h-2.56s-1.44,1.18-2.36,1.18-1.33-.63-1.33-.63c0,0-1.09.11-1.09-.58s.83-.84.83-.84h.49l-.12-3.54s-3.23-2.19-3.23-3.22Z"/>
        <polygon class="cls-10" points="58.09 105.49 59.82 105.83 59.82 104.33 58.09 105.49"/>
        <polygon class="cls-10" points="56.71 99.84 55.95 101.05 55.12 101.88 56.65 101.45 57.47 100.15 56.71 99.84"/>
      </g>
      <g>
        <path class="cls-15" d="m74.1,117.75l-.05-.05h-2.07l-.92-.92-1.15-.46-1.5-1.5-1.61.63-1.87,1.01-2.97,2.97-.35-.35,2.74-2.73-1.07-1.07-1.04-.23-2.19.58-6.51,4.66.35-1.21-.52-1.9-5,3.18v2.58h1.83l.12,1.56h1.04v-1.96l1.5.29v1.67h1.32v-1.93h5.79l.43-.43,1.27.69h3.34v-.69h1.15l.29.98,7.66-.21v-5.16Z"/>
        <polygon class="cls-6" points="65.7 117.7 65.21 118.47 64.66 118.47 64.31 120.35 64.74 120.78 65.47 120.78 66.11 119.76 66.11 117.93 65.7 117.7"/>
        <polygon class="cls-6" points="68.75 118.27 69.55 118.27 69.55 117.73 70.27 117.73 70.88 118.33 70.88 117.32 71.6 117.32 71.05 116.78 70.88 116.71 68.85 116.44 68.36 115.94 67.83 116.78 67.83 118.33 67.6 119.08 68.4 118.83 68.75 118.27"/>
        <path class="cls-6" d="m62.82,117.47l-.55-.55-.37-.84-.54.86-.32,2.02-.52.52-.68,1.08.43.43.88-.88.46-.46.22-.35-.22-.23,1.43-1.43-.23-.18Zm.61.48l-.15.15h.35l-.19-.15Z"/>
      </g>
      <path class="cls-3" d="m69.71,129.39c-.05-.13-.11-.26-.19-.37l.89-.89v-1.09h-1.33l-1.11.92h0c-.96-.33-2.19-.47-3.48-.46l-1.69-1.85-.16,1.95h-.03l.02.16-.02.19.04.04.14,1.33c3.56-.37,5.23.33,5.3.68.09.45-2.06,2.24-6.65,3.16-3.49.69-6.24.44-7.16-.17-.13-.09-.19-.16-.2-.19-.07-.37,1.56-1.98,5.9-2.99l-.14-.6h0l-.25-1.76-.99.52v.42c-.68.19-1.35.41-1.98.66l-1.08-1.08-1.42,2.34c-1.22.83-1.94,1.8-1.74,2.84.07.35.29.86.93,1.29,1.48.99,4.8,1.16,8.46.43,3.58-.71,7.23-2.26,7.92-4.17h0s.82-.37.82-.37v-.65l-.82-.28Z"/>
      <g>
        <g>
          <path class="cls-3" d="m41,69.99c.56,0,1.02-.33,1.02-.73s-.46-.73-1.02-.73-1.02.32-1.02.73.46.73,1.02.73Z"/>
          <path class="cls-3" d="m41.49,68.4c.56,0,1.02-.33,1.02-.73s-.46-.73-1.02-.73-1.02.33-1.02.73.46.73,1.02.73Z"/>
          <path class="cls-3" d="m42.54,67.02c.56,0,1.02-.33,1.02-.73s-.46-.73-1.02-.73-1.02.33-1.02.73.46.73,1.02.73Z"/>
          <path class="cls-3" d="m43.93,65.82c.56,0,1.02-.33,1.02-.73s-.46-.73-1.02-.73-1.02.33-1.02.73.46.73,1.02.73Z"/>
          <path class="cls-3" d="m45.63,64.93c.56,0,1.02-.33,1.02-.73s-.46-.73-1.02-.73-1.02.33-1.02.73.46.73,1.02.73Z"/>
          <path class="cls-3" d="m47.51,64.16c.56,0,1.02-.33,1.02-.73s-.46-.73-1.02-.73-1.02.33-1.02.73.46.73,1.02.73Z"/>
          <path class="cls-3" d="m49.57,63.67c.56,0,1.02-.33,1.02-.73s-.46-.73-1.02-.73-1.02.33-1.02.73.46.73,1.02.73Z"/>
          <path class="cls-3" d="m51.59,63.36c.56,0,1.02-.33,1.02-.73s-.46-.73-1.02-.73-1.02.33-1.02.73.46.73,1.02.73Z"/>
          <path class="cls-3" d="m55.89,63.3c.56,0,1.02-.33,1.02-.73s-.45-.73-1.02-.73-1.02.33-1.02.73.46.73,1.02.73Z"/>
          <path class="cls-3" d="m59.56,62.36c.56,0,1.02-.33,1.02-.73s-.46-.73-1.02-.73-1.02.33-1.02.73.46.73,1.02.73Z"/>
          <path class="cls-3" d="m61.51,61.63c.56,0,1.02-.33,1.02-.73s-.46-.73-1.02-.73-1.02.33-1.02.73.46.73,1.02.73Z"/>
          <path class="cls-3" d="m63.6,61.13c.56,0,1.02-.33,1.02-.73s-.46-.73-1.02-.73-1.02.33-1.02.73.46.73,1.02.73Z"/>
          <path class="cls-3" d="m65.68,60.95c.56,0,1.02-.33,1.02-.73s-.46-.73-1.02-.73-1.02.33-1.02.73.45.73,1.02.73Z"/>
          <path class="cls-3" d="m67.81,60.98c.56,0,1.02-.33,1.02-.73s-.46-.73-1.02-.73-1.02.33-1.02.73.46.73,1.02.73Z"/>
          <path class="cls-3" d="m69.81,61.28c.56,0,1.02-.33,1.02-.73s-.46-.73-1.02-.73-1.02.33-1.02.73.46.73,1.02.73Z"/>
          <path class="cls-3" d="m107.71,70.12c-.43,0-.8.19-.95.46.03-.19.05-.39.05-.6,0-2.44-1.94-3.53-2.03-3.58l-.17.11c-1.58-1.88-4.98-3.13-9.25-3.29.42-.09.73-.36.73-.69,0-.4-.46-.73-1.02-.73s-1.02.33-1.02.73c0,.31.28.58.66.68-.1,0-.19,0-.29,0-.47,0-1.78.13-1.83.13l-.27.03v.03c-.12-.05-.27-.07-.43-.07-.31,0-.59.1-.77.26h-.01s-.57-.27-.57-.27c.09.02.18.03.28.03.56,0,1.02-.33,1.02-.73s-.46-.73-1.02-.73-1.01.33-1.01.73c0,.26.19.48.47.61l-.13.1c-1.52-1.38-4.24-2.26-7.47-2.26-3.45,0-5.69,1-5.78,1.04l-.04.02-.07.07c-.02-.15-.05-.28-.1-.41.12.03.24.05.37.05.56,0,1.01-.32,1.01-.73s-.46-.73-1.01-.73c-.51,0-.93.27-1,.62-.3-.19-.67-.32-1.12-.37.85-.12,1.6-.49,2.02-1.05l.06-.08h.32v-1.09h-.04v-.02c-.11-.78-.85-1.47-1.88-1.74l-.09-.02v-1.13h1.46v-1.26h-1.46v-1h-1.86v1h-1.46v1.26h1.46v1.13l-.09.02c-1.04.28-1.77.96-1.88,1.74v.02h-.05v1.09h.32l.06.08c.42.56,1.17.94,2.02,1.05-.45.05-.83.18-1.12.37-.07-.35-.49-.62-1-.62-.56,0-1.01.33-1.01.73s.46.73,1.01.73c.13,0,.25-.02.37-.05-.05.13-.08.26-.1.41l-.07-.07-.04-.02c-.09-.04-2.33-1.04-5.78-1.04-3.23,0-5.95.88-7.47,2.26l-.13-.1c.28-.13.47-.35.47-.61,0-.4-.46-.73-1.02-.73s-1.02.33-1.02.73.46.73,1.02.73c.1,0,.19-.01.28-.03l-.53.24-.05.02h0c-.19-.15-.46-.25-.77-.25-.16,0-.31.03-.44.07v-.03s-.26-.03-.26-.03c-.06,0-1.36-.13-1.83-.13-.1,0-.19,0-.29,0,.39-.1.66-.37.66-.68,0-.4-.45-.73-1.02-.73s-1.02.33-1.02.73c0,.33.31.61.73.69-4.28.16-7.67,1.41-9.25,3.29l-.17-.11c-.08.04-2.03,1.14-2.03,3.58,0,.21.02.41.05.6-.15-.27-.51-.46-.94-.46-.56,0-1.02.33-1.02.73s.46.73,1.02.73c.53,0,.96-.29,1.01-.67.09.36.21.68.35.94-.19-.17-.48-.29-.81-.29-.56,0-1.02.33-1.02.73s.45.73,1.02.73,1.02-.33,1.02-.73c0-.03,0-.06-.01-.1.26.41.5.65.52.67l.19.18.02-.02.03.03c.22.22.38.35.74.53h.02s-.02.04-.02.04l-.02.1.04.08c-.24.02-.44.07-.62.13.06-.1.1-.2.1-.32,0-.4-.46-.73-1.02-.73s-1.02.33-1.02.73.46.73,1.02.73c.11,0,.21-.01.31-.04-.29.28-.41.61-.43.85l-.02.19h1.58c.32.09.79.25.91.34l.89.7.37.3c-.25.26-.13.71.31,1.09.48.42,1.13.58,1.53.39l2.08,1.67c.37.26,1.04.41,1.89.41.16,0,.32,0,.46-.02-.09.02-.14.03-.15.03h-.02s-.02.01-.02.01c-.34.13-.47.43-.32.73.15.3.51.47.88.42h.02s.02,0,.02,0c0,0,.01,0,.03,0l.83,1.15-.48,1.22,1.47.16.86,1.2c-.31.11-.49.18-.5.18h-.03s-.02.03-.02.03c-.37.26-.46.62-.23.88.22.23.65.3,1.09.16.1-.04,7.61-2.97,18.46-2.97s18.36,2.93,18.44,2.96c.47.14.9.08,1.12-.16.24-.25.14-.61-.23-.88l-.02-.02h-.03s-.19-.08-.5-.2l.86-1.2,1.47-.16-.48-1.22.82-1.15s.03,0,.04,0h.01s.02,0,.02,0c.37.05.73-.12.88-.42.15-.3.01-.6-.32-.73h-.02s-.02-.01-.02-.01c0,0-.06-.01-.15-.03.15.01.3.02.46.02.85,0,1.52-.14,1.88-.4,0,0,2.03-1.63,2.09-1.68.4.19,1.05.02,1.53-.39.44-.38.56-.83.31-1.09l.37-.3.89-.7c.13-.09.6-.25.91-.34h1.59l-.02-.19c-.02-.23-.15-.57-.43-.85.1.02.2.04.31.04.56,0,1.01-.33,1.01-.73s-.46-.73-1.01-.73-1.02.33-1.02.73c0,.11.04.22.11.32-.18-.07-.39-.11-.62-.13l.04-.08-.02-.1-.02-.03h.02c.36-.19.52-.32.74-.54l.03-.03.02.02.19-.18s.27-.26.53-.67c0,.03-.01.06-.01.1,0,.4.46.73,1.02.73s1.01-.33,1.01-.73-.46-.73-1.01-.73c-.33,0-.62.11-.81.29.14-.27.26-.58.35-.94.04.37.48.67,1.01.67.56,0,1.01-.33,1.01-.73s-.46-.73-1.01-.73Zm-13.06-5.9c5.34,0,9.63,2.63,9.63,4.81,0,.53-.31,1.12-.63,1.59-1.12-.78-5.63-2.44-9.4-2.44-.67,0-1.22.04-1.56.07h0c-.07-.18-.25-.34-.48-.43l.06-.1c.07.01.15.02.23.02.56,0,1.02-.33,1.02-.73,0-.37-.4-.68-.9-.72v-.05c.56-.01,1-.33,1-.72s-.46-.73-1.02-.73c-.13,0-.25.02-.37.05l-.03-.09c.35-.07.63-.27.71-.53h1.75Zm-17.55-.96l.06-.03s2.62-1.14,5.32-1.14c3.16,0,7.56,1.47,7.56,3.86,0,.95-.6,1.68-1.21,2.18h-.2c-1.19-.06-2.17-.41-3.31-.81-1.67-.59-3.57-1.26-6.78-1.26-.81,0-1.24.04-1.26.04h0c-.19-.91-.36-1.94-.43-2.85h.25Zm-10.79-1.16c2.7,0,5.29,1.12,5.32,1.14l.06.03h.26c-.07.91-.25,1.93-.44,2.85h0s-.44-.04-1.25-.04c-3.22,0-5.11.67-6.78,1.26-1.14.4-2.12.75-3.31.8h-.2c-.6-.49-1.21-1.22-1.21-2.17,0-2.39,4.4-3.86,7.56-3.86Zm-12.17,2.12h1.76c.08.26.36.46.71.53l-.03.09c-.12-.03-.24-.05-.37-.05-.56,0-1.02.33-1.02.73s.44.71.98.72v.02s.01.03.01.03c-.51.04-.9.35-.9.72,0,.4.46.73,1.02.73.08,0,.15,0,.22-.02h0s.05.1.05.1c-.23.09-.41.25-.48.43h0c-.34-.03-.88-.07-1.56-.07-3.77,0-8.29,1.66-9.4,2.44-.32-.47-.63-1.06-.63-1.59,0-2.18,4.3-4.81,9.63-4.81Z"/>
          <path class="cls-3" d="m106.77,69.27c0,.4.46.73,1.02.73s1.02-.33,1.02-.73-.46-.73-1.02-.73-1.02.32-1.02.73Z"/>
          <path class="cls-3" d="m106.28,67.68c0,.4.46.73,1.01.73s1.02-.33,1.02-.73-.46-.73-1.02-.73-1.01.33-1.01.73Z"/>
          <path class="cls-3" d="m105.23,66.3c0,.4.45.73,1.02.73s1.02-.33,1.02-.73-.46-.73-1.02-.73-1.02.33-1.02.73Z"/>
          <path class="cls-3" d="m103.84,65.1c0,.4.46.73,1.02.73s1.01-.33,1.01-.73-.46-.73-1.01-.73-1.02.33-1.02.73Z"/>
          <path class="cls-3" d="m103.15,64.93c.56,0,1.02-.33,1.02-.73s-.45-.73-1.02-.73-1.02.33-1.02.73.46.73,1.02.73Z"/>
          <path class="cls-3" d="m101.28,64.16c.56,0,1.02-.33,1.02-.73s-.46-.73-1.02-.73-1.01.33-1.01.73.46.73,1.01.73Z"/>
          <path class="cls-3" d="m99.22,63.67c.56,0,1.02-.33,1.02-.73s-.46-.73-1.02-.73-1.02.33-1.02.73.46.73,1.02.73Z"/>
          <path class="cls-3" d="m97.19,63.36c.56,0,1.02-.33,1.02-.73s-.46-.73-1.02-.73-1.02.33-1.02.73.46.73,1.02.73Z"/>
          <path class="cls-3" d="m92.9,63.3c.56,0,1.02-.33,1.02-.73s-.46-.73-1.02-.73-1.02.33-1.02.73.45.73,1.02.73Z"/>
          <path class="cls-3" d="m89.22,62.36c.56,0,1.01-.33,1.01-.73s-.46-.73-1.01-.73-1.02.33-1.02.73.46.73,1.02.73Z"/>
          <path class="cls-3" d="m87.27,61.63c.56,0,1.02-.33,1.02-.73s-.46-.73-1.02-.73-1.02.33-1.02.73.46.73,1.02.73Z"/>
          <path class="cls-3" d="m85.18,61.13c.56,0,1.02-.33,1.02-.73s-.46-.73-1.02-.73-1.02.33-1.02.73.46.73,1.02.73Z"/>
          <path class="cls-3" d="m83.11,60.95c.56,0,1.02-.33,1.02-.73s-.46-.73-1.02-.73-1.01.33-1.01.73.46.73,1.01.73Z"/>
          <path class="cls-3" d="m80.98,60.98c.56,0,1.02-.33,1.02-.73s-.46-.73-1.02-.73-1.02.33-1.02.73.46.73,1.02.73Z"/>
          <path class="cls-3" d="m78.98,61.28c.56,0,1.02-.33,1.02-.73s-.46-.73-1.02-.73-1.02.33-1.02.73.46.73,1.02.73Z"/>
        </g>
        <g>
          <path class="cls-26" d="m73.46,58.43v-1.6c-.94.25-1.62.86-1.72,1.6h1.72Z"/>
          <path class="cls-26" d="m75.32,56.83v1.6h1.72c-.1-.74-.79-1.35-1.72-1.6Z"/>
          <path class="cls-26" d="m72.05,59.51c.45.6,1.33,1,2.35,1s1.89-.41,2.35-1h-4.69Z"/>
        </g>
        <polygon class="cls-17" points="77.09 59.34 77.09 58.6 75.08 58.6 75.08 55.33 76.54 55.33 76.54 54.42 75.08 54.42 75.08 53.42 73.71 53.42 73.71 54.42 72.25 54.42 72.25 55.33 73.71 55.33 73.71 58.6 71.7 58.6 71.7 59.34 77.09 59.34"/>
        <path class="cls-17" d="m47.52,76.68l.1-.49c.37-1.38-.12-2.22-1.25-2.22l-.18.74s-.58-.74-1.8-.74c-1.52,0-1.65,1.2-1.65,1.2h1.37s.81.23,1.04.39c.41.29.68.53,1.26,1.01.29-.13.72-.08,1.11.12Z"/>
        <path class="cls-17" d="m52.74,75.71c-1.19-.33-2.65,0-2.65,0,0,0,.29-.64,0-1.09-1.6.49-2.26,1.98-2.26,1.98l-.08.15v.06c.05.05.12.1.18.15.21.18.34.37.4.56l.23.09c.48.07,1.87.24,3.3.15-.14-.58-.85-.81-.85-.81,0,0,1.28-.37,1.74-1.24Z"/>
        <path class="cls-17" d="m58.86,73.9c.29-.18.66-.3,1.07-.3.27,0,.53.05.76.14l.07-.1s.69-1.5.79-2.46c-.98,0-1.16.41-1.16.41,0,0-.46-1.09-1.43-1.39-.78.56-.61,1.68-.61,1.68,0,0-.59-.1-1.07,0,0,.63,1.49,1.92,1.49,1.92l.08.11Z"/>
        <path class="cls-17" d="m60.9,73.84c.39.21.63.54.63.91,0,.16-.04.31-.13.44h.07s.7.49,2.77.36c0-.67-.55-.81-.55-.81,0,0,1.65-.41,1.98-1.07-.82-.41-2.26-.39-2.26-.39,0,0,.15-.57,0-.91-1.46.24-2.44,1.39-2.44,1.39l-.1.07Z"/>
        <path class="cls-17" d="m56.64,75.86v.98l2.33-1.17c-.39-.21-.64-.54-.64-.92,0-.28.14-.53.37-.73l-.09-.06s-1.23-.64-2.67-.51c.03.61.43,1.02.43,1.02,0,0-1.08.01-1.83.89.91.65,2.1.5,2.1.5Z"/>
        <path class="cls-18" d="m47.74,77.07c.41.35.51.77.23.94-.28.16-.84.01-1.24-.34-.4-.35-.51-.77-.23-.94.28-.16.83-.01,1.24.34Z"/>
        <path class="cls-23" d="m54.61,77.04c.13.39,0,.74-.32.8-.31.06-.67-.21-.81-.6-.13-.38,0-.74.32-.8.31-.05.67.21.81.6Z"/>
        <path class="cls-23" d="m67.87,75.21c.05.4-.17.73-.49.75-.32.02-.62-.28-.67-.68-.05-.39.17-.73.49-.75.32-.02.62.28.67.68Z"/>
        <path class="cls-18" d="m61.29,74.75c0,.54-.61.97-1.36.97s-1.36-.43-1.36-.97.61-.97,1.36-.97,1.36.44,1.36.97Z"/>
        <path class="cls-17" d="m56.15,63.52s-1.34-.13-1.8-.13c-6.34,0-10.91,2.39-10.91,5.64,0,1.63,1.22,2.66,1.22,2.66l-1.07,1.26c.22.22.37.33.69.49l1.39-1.82s-1.4-1.41-1.4-2.59c0-2.35,4.54-4.99,9.88-4.99h1.83l.18-.52Z"/>
        <path class="cls-17" d="m43.88,72.27c.21-.25.42-.5.48-.57-.3-.29-1.17-1.25-1.17-2.67,0-.9.34-1.73.95-2.47h0s-1.93,1.05-1.93,3.43c0,1.7,1.13,2.76,1.13,2.76l.53-.48Z"/>
        <path class="cls-17" d="m66.31,61.92c2.8,0,5.45,1.16,5.45,1.16h.2c.01-.2.02-.4.02-.59l-.22-.22s-2.24-1.02-5.65-1.02c-5.2,0-8.53,2.21-8.53,4.73,0,1.92,2.07,3.16,2.07,3.16l-.61.7-.02.18h.04c.23.08.43.19.6.32l.15-.04,1.22-1.28s-2.52-1.07-2.52-3.08c0-2.47,4.39-4.04,7.8-4.04Z"/>
        <path class="cls-17" d="m57.9,64.05c0,.07-.02.14-.04.2.2-.31.45-.61.76-.89l-.77.34-.04.04c.06.09.1.2.1.3Z"/>
        <path class="cls-17" d="m58.1,68.44c0,.27-.21.5-.51.62v.02s.15.08.15.08c.11-.03.23-.05.35-.05.41,0,.77.18.93.43.12-.13.25-.28.32-.37-.5-.34-2-1.51-2-3.19,0-.56.16-1.1.44-1.59-.17.23-.5.38-.89.38,0,0,0,0-.01,0l-.03.04-.03.11c.26.13.42.34.42.59,0,.35-.34.64-.8.71h0s.01.07.01.07c.5.05.88.35.88.72,0,.28-.23.52-.56.65h0s.05.09.05.09c.09-.02.17-.03.27-.03.56,0,1.02.33,1.02.73Z"/>
        <path class="cls-23" d="m43.39,73.62c0,.3-.35.55-.77.55s-.77-.25-.77-.55.34-.55.77-.55.77.25.77.55Z"/>
        <path class="cls-23" d="m42.4,72.28c0,.3-.35.55-.77.55s-.77-.25-.77-.55.35-.55.77-.55.77.25.77.55Z"/>
        <path class="cls-23" d="m41.85,70.85c0,.31-.35.55-.77.55s-.77-.25-.77-.55.35-.55.77-.55.77.25.77.55Z"/>
        <path class="cls-23" d="m41.77,69.27c0,.31-.35.55-.77.55s-.77-.25-.77-.55.35-.55.77-.55.77.25.77.55Z"/>
        <path class="cls-23" d="m42.26,67.68c0,.3-.35.55-.77.55s-.77-.25-.77-.55.35-.55.77-.55.77.25.77.55Z"/>
        <path class="cls-23" d="m43.31,66.3c0,.3-.35.55-.77.55s-.77-.25-.77-.55.35-.55.77-.55.77.25.77.55Z"/>
        <path class="cls-23" d="m44.7,65.1c0,.31-.35.55-.77.55s-.77-.25-.77-.55.35-.55.77-.55.77.25.77.55Z"/>
        <path class="cls-23" d="m46.41,64.2c0,.31-.35.55-.77.55s-.77-.25-.77-.55.35-.55.77-.55.77.25.77.55Z"/>
        <path class="cls-23" d="m48.28,63.43c0,.31-.35.55-.77.55s-.77-.25-.77-.55.35-.55.77-.55.77.25.77.55Z"/>
        <path class="cls-23" d="m50.34,62.94c0,.31-.35.55-.77.55s-.77-.25-.77-.55.35-.55.77-.55.77.25.77.55Z"/>
        <path class="cls-23" d="m52.36,62.64c0,.3-.35.55-.77.55s-.77-.25-.77-.55.35-.55.77-.55.77.25.77.55Z"/>
        <path class="cls-23" d="m54.48,62.54c0,.31-.35.55-.77.55s-.77-.25-.77-.55.35-.55.77-.55.77.25.77.55Z"/>
        <path class="cls-23" d="m56.66,62.57c0,.3-.34.55-.77.55s-.77-.25-.77-.55.34-.55.77-.55.77.25.77.55Z"/>
        <path class="cls-23" d="m58.86,69.85c0,.3-.35.55-.77.55s-.77-.25-.77-.55.35-.55.77-.55.77.25.77.55Z"/>
        <path class="cls-23" d="m57.85,68.44c0,.31-.35.55-.77.55s-.77-.25-.77-.55.35-.55.77-.55.77.25.77.55Z"/>
        <path class="cls-23" d="m57.07,67c0,.31-.35.55-.77.55s-.77-.25-.77-.55.35-.55.77-.55.77.25.77.55Z"/>
        <path class="cls-23" d="m56.98,65.51c0,.3-.34.55-.77.55s-.77-.25-.77-.55.35-.55.77-.55.77.25.77.55Z"/>
        <path class="cls-23" d="m57.65,64.05c0,.3-.35.55-.77.55s-.77-.25-.77-.55.35-.55.77-.55.77.25.77.55Z"/>
        <path class="cls-23" d="m58.74,62.63c0,.31-.35.55-.77.55s-.77-.25-.77-.55.35-.55.77-.55.77.25.77.55Z"/>
        <path class="cls-23" d="m60.34,61.64c0,.3-.35.55-.77.55s-.77-.25-.77-.55.35-.55.77-.55.77.25.77.55Z"/>
        <path class="cls-23" d="m62.29,60.91c0,.3-.35.55-.77.55s-.77-.25-.77-.55.35-.55.77-.55.77.25.77.55Z"/>
        <path class="cls-23" d="m64.37,60.41c0,.3-.35.55-.77.55s-.77-.25-.77-.55.35-.55.77-.55.77.25.77.55Z"/>
        <path class="cls-23" d="m66.45,60.22c0,.3-.35.55-.77.55s-.77-.25-.77-.55.35-.55.77-.55.77.25.77.55Z"/>
        <path class="cls-23" d="m68.58,60.25c0,.31-.35.55-.77.55s-.77-.25-.77-.55.35-.55.77-.55.77.25.77.55Z"/>
        <path class="cls-23" d="m70.58,60.56c0,.3-.35.55-.77.55s-.77-.25-.77-.55.35-.55.77-.55.77.25.77.55Z"/>
        <path class="cls-23" d="m72.5,61.12c0,.31-.35.55-.77.55s-.77-.25-.77-.55.35-.55.77-.55.77.25.77.55Z"/>
        <path class="cls-17" d="m74.39,83.25c11.04,0,18.56,2.98,18.56,2.98.79.24,1.2-.33.6-.76,0,0-7.62-3.09-19.16-3.09s-19.16,3.09-19.16,3.09c-.59.42-.19,1,.6.76,0,0,7.51-2.98,18.56-2.98Z"/>
        <path class="cls-17" d="m95.61,81.35c-1.45-.31-8.85-1.73-21.22-1.73s-19.77,1.43-21.22,1.73l.81,1.13h2.75l-1.7,1.46.8,1.12c2.16-.75,9.08-2.85,18.56-2.85s16.4,2.1,18.56,2.85l.8-1.12-1.7-1.46h2.75l.81-1.13Zm-36.66,1.61c-.52,0-.94-.3-.94-.67s.42-.67.94-.67.93.3.93.67-.42.67-.93.67Zm6.67-1.07l-3.02.38c-.22.03-.45,0-.63-.1-.18-.09-.31-.23-.35-.39-.08-.33.23-.64.68-.7l3.02-.38c.46-.06.9.16.98.49.08.33-.23.64-.68.7Zm3.13-.16c-.52,0-.93-.3-.93-.67s.42-.67.93-.67.94.3.94.67-.42.67-.94.67Zm7.85-.25h-4.43c-.42,0-.76-.24-.76-.54s.34-.54.76-.54h4.43c.42,0,.76.24.76.54s-.34.54-.76.54Zm3.43.25c-.51,0-.94-.3-.94-.67s.42-.67.94-.67.93.3.93.67-.42.67-.93.67Zm7.13.06c-.04.16-.16.3-.35.39-.19.09-.41.13-.63.1l-3.02-.38c-.46-.06-.76-.37-.68-.7h0c.08-.33.52-.55.98-.49l3.02.38c.46.06.76.37.68.7Zm2.67,1.18c-.52,0-.94-.3-.94-.67s.42-.67.94-.67.93.3.93.67-.42.67-.93.67Z"/>
        <path class="cls-17" d="m74.39,79.44c14.02,0,21.57,1.8,21.57,1.8.57.08.91-.63.4-.82,0,0-7.53-1.85-21.96-1.85s-21.96,1.85-21.96,1.85c-.52.2-.17.9.4.82,0,0,7.55-1.8,21.57-1.8Z"/>
        <path class="cls-17" d="m101.27,76.68l-.1-.49c-.37-1.38.12-2.22,1.25-2.22l.18.74s.58-.74,1.8-.74c1.52,0,1.65,1.2,1.65,1.2h-1.37s-.81.23-1.04.39c-.41.29-.68.53-1.26,1.01-.29-.13-.72-.08-1.11.12Z"/>
        <path class="cls-17" d="m96.05,75.71c1.19-.33,2.65,0,2.65,0,0,0-.29-.64,0-1.09,1.6.49,2.26,1.98,2.26,1.98l.08.15v.06c-.06.05-.12.1-.18.15-.2.18-.34.37-.4.56l-.23.09c-.48.07-1.87.24-3.3.15.14-.58.85-.81.85-.81,0,0-1.28-.37-1.74-1.24Z"/>
        <path class="cls-17" d="m89.93,73.9c-.28-.18-.66-.3-1.07-.3-.28,0-.53.05-.76.14l-.07-.1s-.69-1.5-.79-2.46c.97,0,1.16.41,1.16.41,0,0,.46-1.09,1.43-1.39.78.56.61,1.68.61,1.68,0,0,.59-.1,1.07,0,0,.63-1.49,1.92-1.49,1.92l-.09.11Z"/>
        <path class="cls-17" d="m87.89,73.84c-.38.21-.64.54-.64.91,0,.16.05.31.13.44h-.07s-.7.49-2.77.36c0-.67.55-.81.55-.81,0,0-1.65-.41-1.98-1.07.82-.41,2.26-.39,2.26-.39,0,0-.15-.57,0-.91,1.46.24,2.44,1.39,2.44,1.39l.1.07Z"/>
        <path class="cls-17" d="m72.21,70.47c0,.96,1.28,2.37,1.28,2.37l.04.06c.25-.11.54-.18.86-.18s.61.07.86.18l.04-.06s1.28-1.41,1.28-2.37c-1.1,0-1.22.17-1.22.17,0,0,.25-.83-.96-1.7-1.21.87-.96,1.7-.96,1.7,0,0-.12-.17-1.22-.17Z"/>
        <path class="cls-17" d="m75.6,72.95l-.14.06c.33.21.55.52.55.86,0,.17-.06.34-.16.49l.21.08s.7.78,3.2.78c.09-.76-.27-1.05-.27-1.05,0,0,1.22.09,2.01-.65-.64-.85-2.26-.85-2.26-.85,0,0,.44-.4.34-.96-2.87.17-3.47,1.24-3.47,1.24Z"/>
        <path class="cls-17" d="m69.81,74.17s-.37.28-.27,1.05c2.5,0,3.2-.78,3.2-.78l.21-.08c-.1-.15-.15-.31-.15-.49,0-.34.21-.65.55-.86l-.14-.06s-.61-1.07-3.47-1.24c-.11.56.34.96.34.96,0,0-1.62,0-2.26.85.79.74,2.01.65,2.01.65Z"/>
        <path class="cls-17" d="m100.42,77.73l-.17.07s-1.86,1.55-3.38,1.55c-1.71,0-2.07-1.24-2.07-1.24v-.12c-.12.03-.25.04-.36.02-.08-.01-.15-.04-.21-.07l-.04.05s-.73.7-1.98.7c-3.14,0-3.28-2.58-3.31-2.77-.01,0-.03,0-.04,0-.3,0-.57-.06-.81-.16l-.11.14s-.82,2.09-3.14,2.09c-2.19,0-3.17-1.74-3.17-1.74l-.02-.11c-.07.02-.15.02-.22.02-.08,0-.16-.02-.24-.05l-.07.15s-.91,1.39-2.8,1.39-3.45-1.65-3.45-2.61v-.05c-.14.03-.29.04-.44.04s-.3-.02-.44-.04v.05c0,.96-1.59,2.61-3.45,2.61s-2.8-1.39-2.8-1.39l-.06-.15c-.07.03-.15.05-.24.05-.08,0-.15,0-.22-.02l-.03.11s-.97,1.74-3.17,1.74c-2.32,0-3.14-2.09-3.14-2.09l-.11-.14c-.24.1-.51.16-.81.16-.01,0-.03,0-.04,0-.03.2-.17,2.77-3.31,2.77-1.25,0-1.98-.7-1.98-.7l-.03-.05c-.06.03-.14.06-.21.07-.12.02-.24.01-.36-.02v.12s-.37,1.24-2.07,1.24c-1.52,0-3.38-1.55-3.38-1.55l-.17-.07c0,.12-.04.23-.12.31,1.11.89,2.08,1.67,2.08,1.67.29.21.88.35,1.71.35,1.95,0,2.53-1.22,2.53-1.22,0,0,.43.52,2.2.52,2.96,0,3.78-2.09,3.78-2.09,0,0,1.04,1.39,3.6,1.39s3.35-1.39,3.35-1.39c0,0,.79,1.05,3.17,1.05,2.9,0,3.73-1.89,3.73-1.89,0,0,.84,1.89,3.73,1.89,2.38,0,3.17-1.05,3.17-1.05,0,0,.82,1.39,3.35,1.39s3.6-1.39,3.6-1.39c0,0,.82,2.09,3.78,2.09,1.77,0,2.19-.52,2.19-.52,0,0,.58,1.22,2.53,1.22.82,0,1.42-.14,1.71-.35,0,0,.98-.78,2.08-1.67-.08-.09-.12-.19-.12-.31Z"/>
        <path class="cls-17" d="m92.15,75.86v.98l-2.33-1.17c.39-.21.64-.54.64-.92,0-.28-.14-.53-.37-.73l.09-.06s1.24-.64,2.67-.51c-.03.61-.43,1.02-.43,1.02,0,0,1.08.01,1.83.89-.91.65-2.1.5-2.1.5Z"/>
        <path class="cls-18" d="m101.05,77.07c-.4.35-.51.77-.23.94.28.16.83.01,1.24-.34.41-.35.51-.77.23-.94-.28-.16-.83-.01-1.24.34Z"/>
        <path class="cls-23" d="m94.18,77.04c-.13.39,0,.74.32.8.31.06.67-.21.81-.6.14-.38,0-.74-.32-.8-.31-.05-.67.21-.81.6Z"/>
        <path class="cls-23" d="m80.92,75.21c-.05.4.17.73.49.75.32.02.62-.28.67-.68.05-.39-.17-.73-.49-.75-.32-.02-.62.28-.67.68Z"/>
        <path class="cls-18" d="m87.5,74.75c0,.54.61.97,1.36.97s1.36-.43,1.36-.97-.61-.97-1.36-.97-1.36.44-1.36.97Z"/>
        <path class="cls-18" d="m73.03,73.87c0,.54.61.97,1.36.97s1.36-.44,1.36-.97-.61-.97-1.36-.97-1.36.44-1.36.97Z"/>
        <path class="cls-17" d="m92.64,63.52s1.34-.13,1.8-.13c6.34,0,10.91,2.39,10.91,5.64,0,1.63-1.22,2.66-1.22,2.66l1.07,1.26c-.22.22-.36.33-.68.49l-1.39-1.82s1.4-1.41,1.4-2.59c0-2.35-4.54-4.99-9.88-4.99h-1.83l-.18-.52Z"/>
        <path class="cls-17" d="m104.91,72.27c-.21-.25-.42-.5-.48-.57.31-.29,1.17-1.25,1.17-2.67,0-.9-.34-1.73-.95-2.47h0s1.93,1.05,1.93,3.43c0,1.7-1.13,2.76-1.13,2.76l-.53-.48Z"/>
        <path class="cls-17" d="m82.48,61.92c-2.8,0-5.45,1.16-5.45,1.16h-.2c-.01-.2-.02-.4-.02-.59l.22-.22s2.24-1.02,5.65-1.02c5.2,0,8.54,2.21,8.54,4.73,0,1.92-2.07,3.16-2.07,3.16l.61.7.02.18h-.04c-.23.08-.43.19-.6.32l-.15-.04-1.22-1.28s2.52-1.07,2.52-3.08c0-2.47-4.39-4.04-7.8-4.04Z"/>
        <path class="cls-17" d="m90.89,64.05c0,.07.02.14.05.2-.2-.31-.46-.61-.76-.89l.77.34.04.04c-.06.09-.1.2-.1.3Z"/>
        <path class="cls-17" d="m90.69,68.44c0,.27.21.5.51.62v.02s-.15.08-.15.08c-.11-.03-.23-.05-.35-.05-.41,0-.77.18-.93.43-.11-.13-.25-.28-.32-.37.5-.34,2-1.51,2-3.19,0-.56-.16-1.1-.44-1.59.17.23.5.38.89.38,0,0,0,0,.01,0l.03.04.03.11c-.25.13-.42.34-.42.59,0,.35.34.64.8.71h0s-.01.07-.01.07c-.5.05-.88.35-.88.72,0,.28.23.52.56.65h0s-.05.09-.05.09c-.08-.02-.18-.03-.27-.03-.56,0-1.02.33-1.02.73Z"/>
        <path class="cls-17" d="m76.56,62.46c0-.61-.27-1.67-2.17-1.67s-2.17,1.06-2.17,1.67c0,2.34-1.08,6.22-1.08,6.22l2.07,1.41c.02-.06.04-.12.06-.18-.21-.18-.33-.41-.33-.66,0-.06,0-.12.02-.18h-.18l-.85-.58.02-.09c.3-1.14.99-4.01.99-5.95,0-1.02.77-1.15,1.44-1.15s1.44.13,1.44,1.15c0,1.94.69,4.8.99,5.95l.02.09-.85.58h-.17c.01.06.02.12.02.18,0,.25-.13.49-.34.67.02.06.05.12.06.17l2.07-1.41s-1.08-3.88-1.08-6.22Z"/>
        <path class="cls-1" d="m74.39,68.56l.07.19.1.07c.66.47.91.93,1,1.27l2.07-1.41s-1.08-3.88-1.08-6.22c0-.61-.27-1.67-2.17-1.67s-2.17,1.06-2.17,1.67c0,2.34-1.08,6.22-1.08,6.22l2.07,1.41c.09-.35.35-.8,1-1.27l.1-.07.07-.19Z"/>
        <path class="cls-23" d="m105.4,73.62c0,.3.35.55.77.55s.77-.25.77-.55-.34-.55-.77-.55-.77.25-.77.55Z"/>
        <path class="cls-23" d="m106.39,72.28c0,.3.34.55.77.55s.77-.25.77-.55-.34-.55-.77-.55-.77.25-.77.55Z"/>
        <path class="cls-23" d="m106.94,70.85c0,.31.35.55.77.55s.77-.25.77-.55-.35-.55-.77-.55-.77.25-.77.55Z"/>
        <path class="cls-23" d="m107.02,69.27c0,.31.34.55.77.55s.77-.25.77-.55-.34-.55-.77-.55-.77.25-.77.55Z"/>
        <path class="cls-23" d="m106.53,67.68c0,.3.35.55.77.55s.77-.25.77-.55-.34-.55-.77-.55-.77.25-.77.55Z"/>
        <path class="cls-23" d="m105.48,66.3c0,.3.34.55.77.55s.77-.25.77-.55-.35-.55-.77-.55-.77.25-.77.55Z"/>
        <path class="cls-23" d="m104.09,65.1c0,.31.35.55.77.55s.77-.25.77-.55-.34-.55-.77-.55-.77.25-.77.55Z"/>
        <path class="cls-23" d="m102.38,64.2c0,.31.34.55.77.55s.77-.25.77-.55-.35-.55-.77-.55-.77.25-.77.55Z"/>
        <path class="cls-23" d="m100.51,63.43c0,.31.34.55.77.55s.77-.25.77-.55-.34-.55-.77-.55-.77.25-.77.55Z"/>
        <path class="cls-23" d="m98.45,62.94c0,.31.35.55.77.55s.77-.25.77-.55-.35-.55-.77-.55-.77.25-.77.55Z"/>
        <path class="cls-23" d="m96.42,62.64c0,.3.34.55.77.55s.77-.25.77-.55-.34-.55-.77-.55-.77.25-.77.55Z"/>
        <path class="cls-23" d="m94.3,62.54c0,.31.35.55.77.55s.77-.25.77-.55-.35-.55-.77-.55-.77.25-.77.55Z"/>
        <path class="cls-23" d="m92.12,62.57c0,.3.35.55.77.55s.77-.25.77-.55-.34-.55-.77-.55-.77.25-.77.55Z"/>
        <path class="cls-23" d="m89.93,69.85c0,.3.35.55.77.55s.77-.25.77-.55-.35-.55-.77-.55-.77.25-.77.55Z"/>
        <path class="cls-23" d="m90.93,68.44c0,.31.35.55.77.55s.77-.25.77-.55-.35-.55-.77-.55-.77.25-.77.55Z"/>
        <path class="cls-23" d="m91.71,67c0,.31.35.55.77.55s.77-.25.77-.55-.35-.55-.77-.55-.77.25-.77.55Z"/>
        <path class="cls-23" d="m91.8,65.51c0,.3.34.55.77.55s.77-.25.77-.55-.35-.55-.77-.55-.77.25-.77.55Z"/>
        <path class="cls-23" d="m91.13,64.05c0,.3.35.55.77.55s.77-.25.77-.55-.35-.55-.77-.55-.77.25-.77.55Z"/>
        <path class="cls-23" d="m90.05,62.63c0,.31.35.55.77.55s.77-.25.77-.55-.35-.55-.77-.55-.77.25-.77.55Z"/>
        <path class="cls-23" d="m88.45,61.64c0,.3.35.55.77.55s.77-.25.77-.55-.34-.55-.77-.55-.77.25-.77.55Z"/>
        <path class="cls-23" d="m86.5,60.91c0,.3.34.55.77.55s.77-.25.77-.55-.34-.55-.77-.55-.77.25-.77.55Z"/>
        <path class="cls-23" d="m84.41,60.41c0,.3.35.55.77.55s.77-.25.77-.55-.34-.55-.77-.55-.77.25-.77.55Z"/>
        <path class="cls-23" d="m82.34,60.22c0,.3.35.55.77.55s.77-.25.77-.55-.34-.55-.77-.55-.77.25-.77.55Z"/>
        <path class="cls-23" d="m80.2,60.25c0,.31.34.55.77.55s.77-.25.77-.55-.34-.55-.77-.55-.77.25-.77.55Z"/>
        <path class="cls-23" d="m78.21,60.56c0,.3.35.55.77.55s.77-.25.77-.55-.34-.55-.77-.55-.77.25-.77.55Z"/>
        <path class="cls-23" d="m76.29,61.12c0,.31.35.55.77.55s.77-.25.77-.55-.35-.55-.77-.55-.77.25-.77.55Z"/>
        <path class="cls-23" d="m74.89,62.47c0,.19-.22.35-.49.35s-.49-.16-.49-.35.22-.35.49-.35.49.16.49.35Z"/>
        <path class="cls-23" d="m75.11,63.89c0,.28-.32.52-.72.52s-.72-.23-.72-.52.32-.52.72-.52.72.23.72.52Z"/>
        <path class="cls-23" d="m75.34,65.62c0,.37-.42.67-.95.67s-.95-.3-.95-.67.42-.67.95-.67.95.3.95.67Z"/>
        <path class="cls-23" d="m75.48,67.42c0,.43-.49.78-1.09.78s-1.09-.35-1.09-.78.49-.78,1.09-.78,1.09.35,1.09.78Z"/>
        <path class="cls-23" d="m74.22,68.82l.17-.12.17.12c.44.31.7.62.85.9.12-.13.19-.29.19-.46,0-.48-.54-.86-1.21-.86s-1.21.39-1.21.86c0,.17.07.32.19.46.15-.27.41-.58.85-.89Z"/>
        <path class="cls-17" d="m75.59,62.46c0-.9-.62-.97-1.19-.97s-1.19.08-1.19.97c0,1.98-.72,4.94-.99,5.98.21.14.34.23.68.46h.15c.14-.28.44-.5.82-.61-.47-.15-.79-.48-.79-.87,0-.52.6-.95,1.33-.95s1.33.43,1.33.95c0,.39-.33.72-.79.87.38.11.69.33.83.61h.14c.34-.23.47-.32.68-.46-.27-1.04-1-4-1-5.98Zm-1.19-.51c.4,0,.73.24.73.52s-.33.52-.73.52-.73-.23-.73-.52.33-.52.73-.52Zm0,1.24c.53,0,.96.31.96.69s-.43.69-.96.69-.97-.31-.97-.69.43-.69.97-.69Zm0,3.27c-.66,0-1.19-.38-1.19-.85s.53-.85,1.19-.85,1.19.38,1.19.85-.53.85-1.19.85Z"/>
        <path class="cls-20" d="m77.12,80.93c0,.21-.23.37-.52.37h-4.43c-.29,0-.52-.17-.52-.37h0c0-.2.23-.37.52-.37h4.43c.29,0,.52.17.52.37h0Z"/>
        <polygon class="cls-20" points="53.59 83.62 53.98 82.65 56.21 82.65 54.91 83.77 53.59 83.62"/>
        <polygon class="cls-20" points="95.2 83.62 94.81 82.65 92.58 82.65 93.88 83.77 95.2 83.62"/>
        <path class="cls-23" d="m59.65,82.29c0,.27-.31.49-.69.49s-.69-.22-.69-.49.31-.49.69-.49.69.22.69.49Z"/>
        <path class="cls-23" d="m69.44,81.05c0,.27-.31.49-.69.49s-.69-.22-.69-.49.31-.49.69-.49.69.22.69.49Z"/>
        <path class="cls-25" d="m66.06,81.22c.06.23-.16.45-.49.5l-3.02.38c-.33.04-.64-.11-.7-.35h0c-.06-.23.16-.46.49-.5l3.02-.38c.33-.04.64.11.69.35h0Z"/>
        <path class="cls-25" d="m82.72,81.22c-.06.23.16.45.48.5l3.02.38c.33.04.64-.11.69-.35h0c.06-.23-.16-.46-.48-.5l-3.02-.38c-.33-.04-.64.11-.7.35h0Z"/>
        <path class="cls-23" d="m89.14,82.29c0,.27.31.49.69.49s.69-.22.69-.49-.31-.49-.69-.49-.69.22-.69.49Z"/>
        <path class="cls-23" d="m79.35,81.05c0,.27.31.49.69.49s.69-.22.69-.49-.31-.49-.69-.49-.69.22-.69.49Z"/>
        <path class="cls-16" d="m59.19,75.77l-2.8,1.41v-1.13c-.44,0-1.31-.05-2.03-.56l-.14-.1.1-.12c.54-.64,1.24-.86,1.66-.93-.13-.19-.28-.5-.3-.89v-.16s.21-.02.21-.02c.97-.09,1.83.15,2.35.33-.46-.43-1.22-1.23-1.22-1.73v-.13l.18-.04c.3-.06.64-.05.87-.04,0-.02,0-.03,0-.06,0-.27.05-.7.28-1.08-.09.02-.18.03-.28.03-.56,0-1.02-.33-1.02-.73,0-.25.17-.46.43-.59l-.06-.04-.11-.07c-.08.01-.16.02-.25.02-.56,0-1.02-.33-1.02-.73,0,0,0-.02,0-.02-.3-.03-.84-.07-1.53-.07-3.83,0-8.35,1.72-9.29,2.43.31.43.61.73.61.73l.09.09-1.58,2.07v.03s.03.09.03.09c.78,0,1.31.27,1.63.51.04-.18.12-.51.12-.51h.2c.47,0,.86.13,1.14.37.45.38.58,1.03.4,1.87.35-.5,1.01-1.24,2.09-1.57l.22-.07.1.15c.11.17.15.37.15.55,0,.14-.02.26-.05.37.54-.08,1.54-.17,2.42.07l.23.06-.09.16c-.33.63-1.05,1.01-1.49,1.2.24.15.53.39.62.76l.04.19-.26.02c-1.16.07-2.28-.02-2.96-.1v.02c.52.39,1.88,1.32,3,1.32,1.44,0,1.8-.99,1.83-1.09v-.2c-.22-.13-.4-.35-.49-.6-.1-.3-.07-.59.1-.79.1-.12.24-.19.4-.22.16-.03.33,0,.5.06.28.12.5.36.6.66.1.3.07.59-.1.79,0,0,0,0,0,.01.03.04.06.08.06.09.06.05.71.62,1.78.62,2.41,0,2.95-1.61,3.06-2.57v-.04c-.15-.02-.31-.06-.45-.11Z"/>
        <path class="cls-16" d="m73.06,74.5c-.07.03-.14.05-.17.06-.19.17-1.06.82-3.36.82h-.23l-.02-.16c-.01-.09-.02-.17-.02-.25,0-.29.07-.49.14-.64-.47-.03-1.24-.17-1.82-.71l-.1-.09.07-.1c.5-.67,1.51-.86,2.07-.91-.1-.16-.2-.38-.2-.64,0-.06,0-.13.02-.2l.03-.16h.23c1.61.11,2.55.48,3.07.81-.38-.51-.83-1.26-.83-1.87v-.18h.24c.44,0,.74.03.96.07,0-.02,0-.04,0-.05l-2.3-1.56.03-.09s.29-1.06.56-2.37c0,0-.42-.04-1.22-.04-5.37,0-7.06,1.93-10.08,2.06.51.38.97.58.98.58l.22.09-1.41,1.48-.13.03c.29.25.5.55.63.76.21-.12.54-.24,1.08-.24h.26l-.02.19c-.07.68-.43,1.62-.64,2.13.42-.38,1.21-.95,2.24-1.12l.22-.04.07.15c.06.13.08.29.08.45,0,.13-.02.25-.03.35.48.02,1.46.09,2.12.42l.15.08-.06.12c-.27.52-1.2.88-1.74,1.06.17.14.32.38.32.76v.16h-.22c-1.87.13-2.69-.23-2.9-.35,0,0-.04,0-.08-.01-.1.11-.22.21-.36.29.03.03.07.08.12.16v.02s.02.02.02.02c0,.02.8,1.96,2.9,1.96,1.95,0,2.88-1.52,2.93-1.62,0-.03.02-.09.02-.09l.02-.05s-.03-.01-.04-.02c-.25-.15-.41-.42-.45-.72-.06-.5.25-.91.71-.94h0c.17-.01.33.03.48.12.25.15.41.42.45.72.04.3-.06.59-.27.77,0,0,0,0,0,0,.04.08.08.19.09.2.04.05.9,1.29,2.58,1.29s3.2-1.61,3.2-2.44v-.12c-.26-.09-.49-.23-.65-.4Z"/>
        <path class="cls-2" d="m89.6,75.77l2.8,1.41v-1.13c.44,0,1.3-.05,2.03-.56l.14-.1-.1-.12c-.54-.64-1.24-.86-1.66-.93.13-.19.28-.5.3-.89v-.16s-.21-.02-.21-.02c-.96-.09-1.83.15-2.35.33.46-.43,1.22-1.23,1.22-1.73v-.13l-.18-.04c-.3-.06-.64-.05-.88-.04,0-.02,0-.03,0-.06,0-.27-.05-.7-.28-1.08.09.02.18.03.28.03.56,0,1.01-.33,1.01-.73,0-.25-.17-.46-.43-.59l.06-.04.12-.07c.08.01.16.02.25.02.56,0,1.01-.33,1.01-.73,0,0,0-.02,0-.02.3-.03.84-.07,1.53-.07,3.83,0,8.34,1.72,9.29,2.43-.31.43-.61.73-.61.73l-.09.09,1.58,2.07v.03s-.03.09-.03.09c-.78,0-1.31.27-1.63.51-.05-.18-.12-.51-.12-.51h-.21c-.47,0-.86.13-1.14.37-.44.38-.58,1.03-.39,1.87-.35-.5-1.01-1.24-2.09-1.57l-.22-.07-.1.15c-.11.17-.15.37-.15.55,0,.14.02.26.05.37-.54-.08-1.53-.17-2.42.07l-.23.06.08.16c.33.63,1.05,1.01,1.49,1.2-.24.15-.53.39-.62.76l-.04.19.26.02c1.16.07,2.28-.02,2.96-.1v.02c-.52.39-1.88,1.32-3,1.32-1.44,0-1.8-.99-1.83-1.09v-.2c.22-.13.4-.35.49-.6.1-.3.06-.59-.1-.79-.1-.12-.24-.19-.4-.22-.16-.03-.33,0-.5.06-.27.12-.5.36-.6.66-.1.3-.07.59.1.79,0,0,0,0,.01.01-.03.04-.06.08-.06.09-.06.05-.71.62-1.78.62-2.41,0-2.95-1.61-3.06-2.57v-.04c.16-.02.31-.06.45-.11Z"/>
        <path class="cls-16" d="m75.72,74.5c.07.03.15.05.17.06.19.17,1.06.82,3.36.82h.23l.02-.16c.01-.09.02-.17.02-.25,0-.29-.07-.49-.15-.64.47-.03,1.24-.17,1.82-.71l.1-.09-.07-.1c-.5-.67-1.51-.86-2.07-.91.1-.16.2-.38.2-.64,0-.06,0-.13-.02-.2l-.03-.16h-.23c-1.61.11-2.55.48-3.07.81.38-.51.83-1.26.83-1.87v-.18h-.24c-.44,0-.74.03-.96.07,0-.02,0-.04,0-.05l2.3-1.56-.03-.09s-.29-1.06-.56-2.37c0,0,.42-.04,1.22-.04,5.37,0,7.06,1.93,10.08,2.06-.51.38-.97.58-.98.58l-.22.09,1.41,1.48.13.03c-.29.25-.5.55-.63.76-.21-.12-.54-.24-1.08-.24h-.27l.02.19c.08.68.43,1.62.65,2.13-.42-.38-1.21-.95-2.24-1.12l-.22-.04-.07.15c-.06.13-.08.29-.08.45,0,.13.02.25.03.35-.48.02-1.46.09-2.11.42l-.15.08.06.12c.26.52,1.2.88,1.74,1.06-.16.14-.32.38-.32.76v.16h.22c1.87.13,2.69-.23,2.9-.35,0,0,.04,0,.08-.01.1.11.22.21.36.29-.03.03-.07.08-.12.16v.02s-.02.02-.02.02c0,.02-.8,1.96-2.9,1.96-1.95,0-2.88-1.52-2.93-1.62,0-.03-.02-.09-.02-.09l-.03-.05s.03-.01.04-.02c.24-.15.41-.42.45-.72.06-.5-.25-.91-.71-.94h0c-.17-.01-.33.03-.48.12-.25.15-.41.42-.45.72-.04.3.06.59.27.77,0,0,0,0,0,0-.04.08-.08.19-.09.2-.04.05-.9,1.29-2.58,1.29s-3.2-1.61-3.2-2.44v-.12c.26-.09.48-.23.64-.4Z"/>
        <path class="cls-21" d="m69.84,78.46c-1.27-.14-1.99-.58-2.32-.85-.26.29-.79.75-1.73,1.03,1.26-.07,2.61-.13,4.05-.17Z"/>
        <path class="cls-21" d="m74.39,78.39c.93,0,1.83,0,2.7.02-1.54-.26-2.35-1.07-2.7-1.56-.36.48-1.17,1.3-2.7,1.56.87-.01,1.77-.02,2.7-.02Z"/>
        <path class="cls-21" d="m63.28,78.79c-1.43-.18-2.28-.78-2.68-1.14-.27.43-.88,1.18-2.04,1.6,1.36-.16,2.93-.32,4.72-.46Z"/>
        <path class="cls-21" d="m56.38,79.54c-.94-.04-1.47-.23-1.75-.39-.2.26-.62.67-1.35.91.67-.13,1.71-.32,3.1-.52Z"/>
        <path class="cls-21" d="m78.95,78.46c1.27-.14,1.99-.58,2.32-.85.26.29.79.75,1.73,1.03-1.27-.07-2.62-.13-4.05-.17Z"/>
        <path class="cls-21" d="m85.51,78.79c1.43-.18,2.28-.78,2.68-1.14.27.43.88,1.18,2.04,1.6-1.35-.16-2.93-.32-4.72-.46Z"/>
        <path class="cls-21" d="m92.4,79.54c.94-.04,1.47-.23,1.75-.39.2.26.62.67,1.35.91-.68-.13-1.71-.32-3.1-.52Z"/>
      </g>
    </g>
  </g>
</svg>