<?xml version="1.0" encoding="UTF-8"?>
<svg id="Layer_2" data-name="Layer 2" xmlns="http://www.w3.org/2000/svg" viewBox="0 0 285.88 348.24">
  <defs>
    <style>
      .cls-1 {
        fill: #d4e5f1;
      }

      .cls-1, .cls-2, .cls-3, .cls-4, .cls-5, .cls-6 {
        stroke-width: 0px;
      }

      .cls-2 {
        fill: #937430;
      }

      .cls-3 {
        fill: #009ddd;
      }

      .cls-4 {
        fill: #fff;
      }

      .cls-5 {
        fill: #f15d2a;
      }

      .cls-6 {
        fill: #68246d;
      }
    </style>
  </defs>
  <g id="Layer_1-2" data-name="Layer 1">
    <g>
      <path class="cls-2" d="m179.47,93.89c39.67,18.04,68.42,56.17,73.06,101.23l33.35,13.53-33.35,12.47c-6.59,62.93-60.06,112.25-124.63,112.25-32.86,0-62.85-12.78-85.27-33.61l-29.76,11.14v31.62l-11.76,5.71V103.76c-.66-.4-1.11-1.15-1.11-2.03v-2.92c0-1.33,1.06-2.43,2.39-2.43h11.68c1.33,0,2.43,1.11,2.43,2.43v.58l31.09,12.6c8.67-7.25,18.35-13.36,28.75-18.09-.09-.22-.18-.44-.31-.66l-8.49-.13,5.53-6.28c-.18-.27-.31-.53-.44-.75-1.37.31-2.61-.58-3.18-1.86-.35-.88-.31-1.81.13-2.57.04-1.24-.04-1.59-1.28-2.12-.66-.27-1.5-.62-2.43-1.73-.75-.93-1.28-1.99-1.73-2.87-.97-2.08-1.06-2.39-3.36-2.34-2.12.09-4.91.18-5.44-2.61-.4-2.03.84-3.58,2.21-4.64-.4-1.06-.31-2.26.27-3.27-2.12-.88-2.96-3.41-1.9-5.4-1.86-1.33-2.26-3.89-.84-5.66-2.17-1.72-1.86-5.13.58-6.46-1.5-2.26-.35-5.4,2.39-6.01-.84-2.87,1.77-5.48,4.56-4.91,0-2.92,3.14-4.69,5.66-3.45,0-3.32,3.76-5.04,6.24-3.14,1.33-2.92,5.4-3.1,6.99-.35.27-3.45,5.04-4.02,6.24-.84.66-2.79,4.29-3.36,5.84-1.06.66-.93,1.77-1.46,2.92-1.42.22-2.26,2.52-3.63,4.56-2.83.71-1.95,3.18-2.52,4.64-1.11.62-2.03,3.18-2.65,4.69-1.24.62-2.03,3.18-2.65,4.69-1.19.66-2.21,3.49-2.7,4.91-.97h1.95c.13-2.21,1.42-4.07,3.27-5.04v-1.99h-3.23v-4.86h3.23V0h5.48v4.11h3.27v4.86h-3.27v1.99c.57.31,1.11.66,1.55,1.11,1.02,1.02,1.64,2.43,1.72,3.94h1.95c1.42-1.72,4.29-1.24,4.95.97,1.5-1.46,3.98-.84,4.64,1.19,1.46-1.41,4.02-.8,4.64,1.24,1.46-1.42,3.98-.84,4.64,1.11,2.03-.8,4.38.57,4.56,2.83,1.15-.04,2.26.49,2.92,1.42,1.55-2.3,5.17-1.73,5.84,1.06,1.19-3.18,5.97-2.61,6.28.84,1.59-2.74,5.66-2.56,6.94.35,2.48-1.9,6.28-.18,6.28,3.14,2.48-1.24,5.62.53,5.62,3.45,2.83-.57,5.4,2.04,4.6,4.91,2.7.62,3.85,3.76,2.34,6.01,2.48,1.33,2.74,4.73.57,6.46,1.42,1.77,1.06,4.33-.79,5.66,1.06,1.99.18,4.51-1.95,5.4.58,1.02.66,2.21.26,3.27,1.37,1.06,2.61,2.61,2.21,4.64-.53,2.79-3.32,2.7-5.39,2.61-2.3-.04-2.39.27-3.41,2.34-.44.88-.93,1.95-1.72,2.87-.88,1.11-1.72,1.46-2.39,1.73-1.28.53-1.37.88-1.28,2.12.44.75.49,1.68.09,2.57-.53,1.28-1.81,2.17-3.19,1.86-.13.22-.26.49-.4.75l5.48,6.28-8.49.13c-.09.22-.18.44-.27.66h0Zm-64.44,45.46l69.92,28.39c-12.69-17.91-33.57-29.59-57.05-29.59-4.38,0-8.71.4-12.87,1.19h0Zm71.65,106.45l-78.41,29.37c6.24,1.81,12.83,2.79,19.64,2.79,24.59,0,46.35-12.83,58.78-32.15Z"/>
      <path class="cls-4" d="m127.9,84.56c-66.34,0-120.74,52.81-123.39,118.44h6.9c2.65-61.87,53.96-111.54,116.49-111.54,58.51,0,107.25,43.56,115.39,99.91l7.34,2.96c-6.85-61.56-59.35-109.77-122.73-109.77h0ZM7.92,237.36c4.95,20.12,14.82,38.34,28.3,53.29,6.02,6.68,16.67,9.15,25.21,6.9,11.85-3.14,19.24-13.58,19.28-25.65,0-5-2.34-11.81-5.75-15.52-8.67-9.46-14.82-21.23-17.43-34.28v12.07c0,.88-.35,1.68-.93,2.26-.44.44-1.06.75-1.68.88,3.41,8.49,8.27,16.23,14.29,23,2.57,2.88,4.2,6.41,4.82,10.26,1.06,6.72-1.5,13.31-6.9,17.47-5.53,4.25-12.87,5.09-19.28,2.34-3.27-1.37-6.15-3.85-8.45-6.54-8.93-10.39-16.05-22.38-20.87-35.47-1.33-3.58-2.52-7.25-3.49-11.01h-7.12Zm48.38-33.7c-.53-.4-1.19-.66-1.95-.66h-4.95c2.61-40.95,36.88-73.59,78.5-73.59,30.74,0,57.49,17.87,70.41,43.74l-10.35-4.2c-12.83-19.59-34.98-32.59-60.06-32.59-38.04,0-69.35,29.85-71.6,67.31h0Zm133.17,41.09l9.73-3.63c-12.52,26.85-39.8,45.6-71.29,45.6-9.02,0-17.73-1.55-25.78-4.38-7.03-2.43-13.62-5.88-19.59-10.13v-.31c0-3.67-.93-7.16-2.48-10.48,12.74,11.41,29.5,18.4,47.85,18.4,26.09,0,49.05-14.11,61.56-35.07h0Zm53.82-20.17l7.3-2.74c-6.9,61.61-59.35,109.73-122.68,109.73-32.9,0-62.85-13-85.05-34.1,4.29,2.03,9.02,2.96,13.71,2.7,9.24,7.17,19.59,13,30.74,17.16,12.65,4.73,26.36,7.34,40.6,7.34,58.56,0,107.34-43.65,115.39-100.08h0Zm-160.9,49.75c5.88,4.07,12.29,7.34,19.11,9.73,8.27,2.87,17.16,4.47,26.4,4.47,32.86,0,61.25-19.95,73.73-48.34l39.71-14.86c-8.36,55.06-56.12,97.52-113.44,97.52-14.06,0-27.51-2.57-39.98-7.21-10.39-3.89-20.03-9.2-28.75-15.75.88-.18,1.81-.35,2.7-.58,11.85-3.14,19.59-13.13,20.52-24.99h0Zm158.95-83.76l-40.51-16.45c-12.83-27.42-40.73-46.53-72.93-46.53-42.63,0-77.71,33.48-80.32,75.41H13.22c2.65-60.85,53.16-109.73,114.68-109.73,57.27,0,104.99,42.37,113.44,97.3h0ZM16.94,237.36h36.04c3.49,8.93,8.58,17.07,14.86,24.15,2.34,2.61,3.85,5.84,4.38,9.33.97,6.1-1.28,12.03-6.19,15.75-5,3.85-11.68,4.6-17.47,2.17-3.01-1.28-5.66-3.63-7.78-6.1-8.76-10.21-15.79-22.02-20.57-34.89-1.24-3.41-2.34-6.85-3.27-10.39Z"/>
      <polygon class="cls-2" points="96.41 288.84 89.69 305.38 94.38 307.24 92.83 311.09 84.12 307.55 92.35 287.21 96.41 288.84"/>
      <path class="cls-2" d="m109.86,292.65l-.18,22.55-4.47-1.11.22-3.71-4.2-1.06-1.77,3.36-4.25-1.06,10.22-20.08,4.42,1.11h0Zm-4.29,14.46l.53-9.77-3.67,9.02,3.14.75Z"/>
      <path class="cls-2" d="m131.75,298.66c-1.77-.53-3.76-.22-5.22.93-2.87,2.34-2.26,8.23-.58,10.97,1.19,1.95,3.54,2.34,5.57,1.86l-.09,3.89c-3.36,1.41-6.77-.49-8.8-2.87-4.16-4.69-3.32-14.51,2.3-17.82,2.03-1.19,4.69-1.55,6.9-.58l-.09,3.63Z"/>
      <path class="cls-2" d="m153.86,290.79c3.67-1.02,7.25.49,8.4,4.29.66,2.39.09,4.29-1.55,6.19l6.54,8.54-4.38,1.28-6.63-8.8,2.87,9.86-4.42,1.28-6.1-21.1,5.26-1.55h0Zm-.09,3.85l1.55,5.48c2.65-.18,4.02-3.27,2.03-5.17-.88-.84-2.34-.97-3.58-.31Z"/>
      <path class="cls-2" d="m164.97,286.5l7.21,13.8c.75,1.42,1.64,2.3,3.01,1.81,1.9-.71,1.99-1.64,1.06-3.41l-7.43-14.24,3.67-1.9,7.61,14.64c1.5,2.88,1.64,5.57-1.37,7.34-.8.49-1.59.93-2.43,1.33-3.32,1.46-5.93-.4-7.56-3.23l-7.43-14.24,3.67-1.9Z"/>
      <path class="cls-2" d="m175.31,279.2s-1.59-2.3-.4-4.2c.88-1.37,3.67-1.72,3.94-2.48.13-.27,0-.62-.4-1.15l1.95-1.59c1.5,2.3,1.68,3.71.4,4.87-1.06.97-2.34.93-3.41,1.68-.35.26-.53.62-.09,1.28l-1.99,1.59Z"/>
      <polygon class="cls-2" points="178.32 278.41 190.31 286.46 182.43 275.49 185.75 273.1 198.58 290.92 195.39 293.22 183.54 285.66 191.15 296.27 187.56 298.79 174.78 280.97 178.32 278.41"/>
      <path class="cls-2" d="m192.34,265.8l19.77,10.84-3.05,3.4-3.18-1.95-2.92,3.23,2.12,3.14-2.96,3.23-12.87-18.49,3.1-3.41h0Zm10.7,10.66l-8.36-5.13,6.19,7.47,2.17-2.34Z"/>
      <path class="cls-2" d="m133.87,300.08c-.35,1.77-.4,3.89-.18,5.93.4,3.58,2.03,8.4,5.84,9.69,1.64.53,3.89.31,5.39-.53,3.49-1.95,4.16-7.03,3.89-10.61-.18-2.03-.62-4.11-1.33-5.79-3.14-7.65-11.94-6.81-13.62,1.33h0Zm7.21,12.03c-2.17-.71-2.96-4.82-3.14-6.68-.13-1.37-.13-2.74,0-3.89.53-5.22,4.42-5.57,5.88-.57.35,1.11.62,2.43.71,3.85.18,1.86.18,6.06-1.77,7.16-.4.22-1.24.31-1.68.13Z"/>
      <polygon class="cls-2" points="24.41 175.31 27.55 167 31.36 168.5 29.85 172.53 34.05 174.12 35.34 170.76 39.36 172.31 38.08 175.71 42.5 177.39 44.05 173.41 47.85 174.83 44.67 183.19 24.41 175.31"/>
      <path class="cls-2" d="m33.88,154.04l21.76,6.06-2.26,4.02-3.49-1.19-2.12,3.8,2.74,2.56-2.08,3.8-16.81-15.04,2.26-4.02h0Zm12.87,7.96l-9.29-3.1,7.74,5.88,1.55-2.79Z"/>
      <polygon class="cls-2" points="41.17 142.59 55.42 153.33 58.42 149.31 61.74 151.83 56.08 159.3 38.52 146.08 41.17 142.59"/>
      <polygon class="cls-2" points="68.15 117.47 77.88 132.41 82.13 129.72 84.34 133.17 76.47 138.25 64.53 119.85 68.15 117.47"/>
      <path class="cls-2" d="m99.51,103.31c1.33-.27,2.74.13,3.85.8,1.59.93,2.65,2.39,3.14,4.16.49,1.81.13,3.58-1.28,4.91,2.17.35,3.63,1.9,4.16,3.94.93,3.32-.84,6.55-4.16,7.43l-5.53,1.46-5.71-21.18,5.53-1.5h0Zm3.49,18.27c1.5-.09,2.39-1.24,2.3-2.74-.09-1.19-.84-2.39-1.86-2.92-.62-.27-1.28-.4-1.99-.04l1.55,5.71h0Zm-2.39-8.85c.58.04,1.06-.18,1.42-.53,1.15-1.06.62-3.98-.58-4.73-.53-.31-1.24-.27-2.26,0l1.41,5.26Z"/>
      <path class="cls-2" d="m118.48,99.64h.88c2.74-.09,6.15-.58,8.4,1.06,2.08,1.46,3.14,3.45,3.8,5.84,1.06,3.94.66,10.04-2.48,13-1.24,1.19-3.01,1.81-5.26,1.9l-4.6.13-.75-21.94h0Zm5,18.13c4.25-.35,4.11-5.09,4.02-8.31-.27-2.83-1.19-5.93-4.56-6.06l.53,14.37Z"/>
      <polygon class="cls-2" points="136.84 99.69 145.68 100.79 145.15 104.91 140.91 104.37 140.37 108.89 143.96 109.33 143.43 113.66 139.84 113.22 139.23 117.95 143.52 118.48 142.98 122.6 134.18 121.49 136.84 99.69"/>
      <polygon class="cls-2" points="207.29 133.39 204.33 136.57 201.81 134.23 189.78 147.1 186.46 143.96 198.44 131.09 195.92 128.74 198.93 125.56 207.29 133.39"/>
      <polygon class="cls-2" points="212.33 139.45 196.01 154.13 193.23 151.08 209.55 136.35 212.33 139.45"/>
      <polygon class="cls-2" points="217.55 146.7 207.33 157.4 221.18 152.27 223.65 156.08 201.98 163.02 199.99 159.97 214.98 142.67 217.55 146.7"/>
      <path class="cls-2" d="m220.25,160.59c-1.77.13-3.8.66-5.75,1.41-3.32,1.37-7.52,4.25-7.74,8.27-.04,1.68.79,3.85,1.99,5.04,2.83,2.83,7.87,2.12,11.28.88,1.95-.71,3.76-1.68,5.22-2.79,6.5-5.13,3.32-13.4-5-12.83h0Zm-9.64,10.22c.13-2.26,3.89-4.16,5.62-4.87,1.28-.49,2.61-.84,3.76-1.06,5.13-.88,6.55,2.79,2.17,5.57-1.02.62-2.21,1.24-3.54,1.72-1.72.66-5.79,1.81-7.39.22-.31-.35-.62-1.15-.62-1.59Z"/>
      <path class="cls-2" d="m64.26,125.21c-1.77.66-3.1,2.21-3.49,4.02-.8,3.63,3.45,7.78,6.5,8.85,2.12.75,4.2-.4,5.48-2.08l2.39,3.05c-1.73,3.27-5.57,3.94-8.62,3.36-6.19-1.02-11.76-9.15-9.51-15.26.84-2.21,2.65-4.16,5-4.78l2.26,2.83Z"/>
      <path class="cls-2" d="m21.14,187.61c.84-3.76,3.89-6.19,7.78-5.31,2.43.53,3.8,1.95,4.69,4.29l10.61-1.64-.97,4.47-10.88,1.55,10.04,2.26-1.02,4.47-21.45-4.73,1.19-5.35h0Zm3.32,1.9l5.53,1.28c1.11-2.43-.93-5.13-3.54-4.25-1.15.35-1.95,1.55-1.99,2.96Z"/>
      <path class="cls-2" d="m79.65,110.79l6.86,13.98c.71,1.46,1.55,2.34,2.96,1.86,1.9-.62,2.03-1.55,1.15-3.36l-7.03-14.37,3.67-1.81,7.25,14.82c1.41,2.92,1.46,5.62-1.55,7.3-.84.49-1.64.88-2.52,1.24-3.32,1.41-5.88-.53-7.43-3.41l-7.08-14.42,3.71-1.81Z"/>
      <path class="cls-2" d="m156.78,103c3.72.97,6.06,4.07,5.09,7.92-.75,3.8-5.09,5.79-9.07,4.25l-2.3,8.89-4.47-1.15,5.44-21.27,5.31,1.37h0Zm-1.99,3.27l-1.46,5.48c2.34,1.15,5.13-.8,4.38-3.45-.35-1.15-1.5-1.99-2.92-2.03Z"/>
      <path class="cls-2" d="m165.1,111.72c-1.19,1.37-2.3,3.18-3.1,5.09-1.37,3.32-2.34,8.31.35,11.28,1.19,1.28,3.32,2.21,5.04,2.21,3.98,0,7.03-4.07,8.58-7.34.84-1.86,1.46-3.89,1.68-5.66.97-8.27-7.17-11.85-12.56-5.57h0Zm.4,14.06c-1.55-1.68-.22-5.71.49-7.39.57-1.28,1.24-2.48,1.9-3.45,3.01-4.25,6.59-2.65,5.48,2.43-.27,1.11-.66,2.43-1.24,3.71-.75,1.68-2.83,5.35-5.09,5.35-.49,0-1.28-.35-1.55-.66Z"/>
      <path class="cls-2" d="m190.22,118.97c3.1,2.26,4.16,5.97,1.86,9.24-1.46,2.03-3.27,2.74-5.79,2.61l-2.61,10.44-3.76-2.65,2.83-10.66-5.97,8.4-3.76-2.65,12.74-17.91,4.47,3.18h0Zm-3.05,2.34l-3.36,4.56c1.81,1.95,5.13,1.15,5.35-1.59.09-1.19-.71-2.43-1.99-2.96Z"/>
      <path class="cls-4" d="m28.04,233.34c.93,2.04,2.03,2.04,2.96,0,1.19-2.65,1.19-6.81,0-9.42-.93-2.04-2.03-2.04-2.96,0-1.19,2.65-1.19,6.77,0,9.42Z"/>
      <path class="cls-4" d="m23.84,225.56c.49.27,1.06.49,1.68.66.18-1.11.44-2.12.88-3.05,1.55-3.49,4.64-3.49,6.24,0,.4.93.71,1.95.88,3.05.57-.18,1.15-.4,1.68-.66,2.61-1.28,2.61-3.1,0-4.38-3.18-1.59-8.23-1.59-11.37,0-2.65,1.28-2.65,3.1,0,4.38Z"/>
      <path class="cls-4" d="m33.3,232.15c-.18.66-.4,1.33-.66,1.9-.27.62-.58,1.11-.93,1.5h22.64c.4,0,.71-.18.97-.4.27-.27.4-.58.4-.97v-28c0-.35-.13-.71-.4-.97-.27-.22-.57-.4-.97-.4H4.64c-.35,0-.71.18-.93.4-.27.27-.44.62-.44.97v28c0,.4.18.71.44.97.22.22.58.4.93.4h22.69c-.35-.4-.66-.88-.93-1.5-.27-.58-.49-1.24-.66-1.9H7.92c-.4,0-.8-.18-1.06-.4h0c-.31-.31-.53-.66-.53-1.11v-22.2c0-.44.22-.84.53-1.15.26-.22.66-.4,1.06-.4h43.17c.44,0,.8.18,1.11.4h0c.31.31.53.71.53,1.15v22.2c0,.44-.22.8-.53,1.11h0c-.31.22-.66.4-1.11.4h-17.78Z"/>
      <path class="cls-6" d="m60.1,190.93h50.77v-49.36l35.56,14.42v34.94h86.33l43.3,17.56-48.61,18.22h-81.02v30.3l-35.56,13.36v-43.65h-50.37c-1.64-5.97-2.52-12.21-2.52-18.66,0-5.88.71-11.63,2.12-17.12Z"/>
      <path class="cls-4" d="m23.04,219.54c3.67-1.81,9.29-1.81,12.96,0,3.98,1.99,3.98,5.66,0,7.65-.71.35-1.5.62-2.3.84,0,.75,0,1.55-.09,2.3h17.25v-21.62H8.14v21.62h17.29c-.09-.75-.13-1.55-.09-2.3-.84-.22-1.59-.49-2.3-.84-4.02-1.99-4.02-5.66,0-7.65Z"/>
      <path class="cls-1" d="m12.87,110.79l18.09,18.04c.88-1.11,1.81-2.17,2.74-3.27l-20.83-20.83v6.06h0Zm57.58,57.54l19.06,18.97h5.93l-22.47-22.42c-.88,1.11-1.72,2.26-2.52,3.45Z"/>
      <path class="cls-4" d="m3.71,104.6h3.49v69.75c-1.55,5.48-2.74,11.19-3.49,16.98v-86.73h0Zm3.49,137.19v99.78l-3.49,1.81v-106.14c.31.09.62.13.93.13h1.42c.35,1.46.75,2.96,1.15,4.42Z"/>
      <path class="cls-4" d="m155.77,77.04c8.93,1.9,17.51,4.69,25.7,8.31-.13.22-.22.44-.35.71l-8.45.13,5.48,6.19c-.13.27-.22.53-.35.8-31.76-13.89-68.07-13.89-99.82,0-.09-.27-.22-.53-.31-.8l5.44-6.19-8.4-.13c-.13-.27-.27-.49-.4-.71,8.18-3.63,16.81-6.41,25.74-8.31,18.31-3.89,37.46-3.89,55.73,0Z"/>
      <path class="cls-3" d="m126.18,41.93c0-.97.75-1.77,1.73-1.77s1.77.8,1.77,1.77-.8,1.72-1.77,1.72-1.73-.8-1.73-1.72Z"/>
      <path class="cls-3" d="m126.18,37.64c0-.97.75-1.77,1.73-1.77s1.77.8,1.77,1.77-.8,1.73-1.77,1.73-1.73-.75-1.73-1.73Z"/>
      <path class="cls-3" d="m126.18,33.35c0-.97.75-1.77,1.73-1.77s1.77.8,1.77,1.77-.8,1.72-1.77,1.72-1.73-.75-1.73-1.72Z"/>
      <path class="cls-3" d="m126.18,29.06c0-.97.75-1.77,1.73-1.77s1.77.8,1.77,1.77-.8,1.77-1.77,1.77-1.73-.8-1.73-1.77Z"/>
      <path class="cls-3" d="m126.18,24.77c0-.97.75-1.77,1.73-1.77s1.77.8,1.77,1.77-.8,1.77-1.77,1.77-1.73-.8-1.73-1.77Z"/>
      <path class="cls-3" d="m126.62,16.14c0-.66.57-1.24,1.28-1.24s1.28.58,1.28,1.24c0,.71-.58,1.28-1.28,1.28s-1.28-.57-1.28-1.28Z"/>
      <path class="cls-3" d="m126.18,20.48c0-.97.75-1.77,1.73-1.77s1.77.8,1.77,1.77-.8,1.77-1.77,1.77-1.73-.8-1.73-1.77Z"/>
      <path class="cls-5" d="m127.9,51.44c-.71.31-1.9,1.46-3.14,1.46-1.5,0-2.87-2.52-2.03-3.36.88-.84,2.65-.22,3.32-1.37.58-1.15-.13-3.05,1.86-2.79,2.03-.27,1.28,1.64,1.9,2.79.62,1.15,2.43.53,3.27,1.37.84.84-.53,3.36-1.99,3.36-1.28,0-2.43-1.15-3.18-1.46Z"/>
      <path class="cls-2" d="m112.16,79.21c0-1.33,1.11-2.43,2.43-2.43s2.43,1.11,2.43,2.43-1.11,2.39-2.43,2.39-2.43-1.06-2.43-2.39Z"/>
      <path class="cls-3" d="m113.53,79.21c0-.62.49-1.11,1.06-1.11.62,0,1.11.49,1.11,1.11,0,.57-.49,1.06-1.11,1.06-.57,0-1.06-.49-1.06-1.06Z"/>
      <polygon class="cls-2" points="119.41 78.5 127.9 74.57 136.44 78.5 127.9 82.44 119.41 78.5"/>
      <polygon class="cls-5" points="121.62 78.5 127.9 81.38 134.23 78.5 127.9 75.58 121.62 78.5"/>
      <polygon class="cls-2" points="92.88 83.01 100.39 77.44 109.55 79.52 101.99 85.14 92.88 83.01"/>
      <polygon class="cls-5" points="95.04 82.57 101.81 84.12 107.38 79.96 100.62 78.41 95.04 82.57"/>
      <polygon class="cls-5" points="69.57 92.21 76.51 92.3 81.07 87.08 74.17 86.99 69.57 92.21"/>
      <path class="cls-2" d="m85.93,85.22c-.27-1.33.58-2.61,1.86-2.87,1.33-.27,2.61.57,2.87,1.86.27,1.33-.58,2.61-1.86,2.87-1.33.27-2.61-.57-2.87-1.86Z"/>
      <path class="cls-3" d="m87.21,84.96c-.09-.62.27-1.19.84-1.33.62-.09,1.19.27,1.28.84.13.62-.22,1.19-.84,1.33-.57.09-1.15-.27-1.28-.84Z"/>
      <path class="cls-2" d="m143.6,79.21c0-1.33-1.06-2.43-2.39-2.43s-2.39,1.11-2.39,2.43,1.06,2.39,2.39,2.39,2.39-1.06,2.39-2.39Z"/>
      <path class="cls-3" d="m142.32,79.21c0-.62-.49-1.11-1.11-1.11-.57,0-1.06.49-1.06,1.11,0,.57.49,1.06,1.06,1.06.62,0,1.11-.49,1.11-1.06Z"/>
      <polygon class="cls-2" points="162.93 83.01 155.41 77.44 146.26 79.52 153.78 85.14 162.93 83.01"/>
      <polygon class="cls-5" points="160.76 82.57 154 84.12 148.42 79.96 155.19 78.41 160.76 82.57"/>
      <polygon class="cls-5" points="186.24 92.21 179.29 92.3 174.69 87.08 181.64 86.99 186.24 92.21"/>
      <path class="cls-2" d="m169.87,85.22c.27-1.33-.57-2.61-1.9-2.87-1.28-.27-2.57.57-2.83,1.86-.31,1.33.53,2.61,1.86,2.87,1.28.27,2.57-.57,2.87-1.86Z"/>
      <path class="cls-3" d="m168.55,84.96c.13-.62-.27-1.19-.84-1.33-.58-.09-1.15.27-1.28.84-.13.62.27,1.19.84,1.33.58.09,1.15-.27,1.28-.84Z"/>
      <path class="cls-3" d="m126.18,55.73c0-.97.75-1.72,1.73-1.72s1.77.75,1.77,1.72-.8,1.77-1.77,1.77-1.73-.8-1.73-1.77Z"/>
      <path class="cls-3" d="m56.34,53.43c0-.97.8-1.73,1.77-1.73s1.77.75,1.77,1.73-.8,1.77-1.77,1.77-1.77-.8-1.77-1.77Z"/>
      <path class="cls-3" d="m55.77,47.94c0-.97.75-1.72,1.73-1.72s1.77.75,1.77,1.72-.8,1.77-1.77,1.77-1.73-.8-1.73-1.77Z"/>
      <path class="cls-3" d="m57.14,42.32c0-.97.75-1.77,1.73-1.77s1.77.8,1.77,1.77-.8,1.77-1.77,1.77-1.73-.8-1.73-1.77Z"/>
      <path class="cls-3" d="m60.02,37.46c0-.97.8-1.77,1.77-1.77s1.72.8,1.72,1.77-.75,1.77-1.72,1.77-1.77-.8-1.77-1.77Z"/>
      <path class="cls-3" d="m64.75,33.66c0-.97.8-1.77,1.77-1.77s1.72.8,1.72,1.77-.8,1.73-1.72,1.73-1.77-.75-1.77-1.73Z"/>
      <path class="cls-3" d="m70.36,30.16c0-.97.8-1.77,1.77-1.77s1.77.8,1.77,1.77-.8,1.72-1.77,1.72-1.77-.8-1.77-1.72Z"/>
      <path class="cls-3" d="m76.33,28.61c0-.97.75-1.77,1.73-1.77s1.77.8,1.77,1.77-.8,1.77-1.77,1.77-1.73-.8-1.73-1.77Z"/>
      <path class="cls-3" d="m92.35,31.58c0-.84.71-1.5,1.55-1.5s1.5.66,1.5,1.5-.66,1.55-1.5,1.55-1.55-.71-1.55-1.55Z"/>
      <circle class="cls-3" cx="91.59" cy="37.06" r="1.5"/>
      <circle class="cls-3" cx="91.59" cy="43.17" r="1.5"/>
      <path class="cls-3" d="m59.44,64c0-.97.8-1.77,1.77-1.77s1.77.8,1.77,1.77-.8,1.72-1.77,1.72-1.77-.75-1.77-1.72Z"/>
      <path class="cls-3" d="m116.45,17.82c0-.71.57-1.28,1.28-1.28s1.28.58,1.28,1.28-.58,1.24-1.28,1.24-1.28-.53-1.28-1.24Z"/>
      <path class="cls-3" d="m98.32,23.66c0-.84.66-1.5,1.5-1.5s1.5.66,1.5,1.5-.66,1.5-1.5,1.5-1.5-.66-1.5-1.5Z"/>
      <path class="cls-3" d="m107.12,20.26c0-.71.57-1.28,1.28-1.28.66,0,1.24.58,1.24,1.28s-.58,1.28-1.24,1.28c-.71,0-1.28-.57-1.28-1.28Z"/>
      <path class="cls-3" d="m111.76,19.02c0-.71.58-1.28,1.28-1.28s1.28.58,1.28,1.28-.57,1.28-1.28,1.28-1.28-.57-1.28-1.28Z"/>
      <path class="cls-3" d="m82.88,27.02c0-.97.8-1.72,1.77-1.72s1.72.75,1.72,1.72-.75,1.77-1.72,1.77-1.77-.8-1.77-1.77Z"/>
      <path class="cls-3" d="m89.07,26.67c0-.97.8-1.77,1.72-1.77s1.77.8,1.77,1.77-.8,1.77-1.77,1.77-1.72-.8-1.72-1.77Z"/>
      <path class="cls-3" d="m102.43,21.45c0-.71.58-1.28,1.28-1.28s1.28.57,1.28,1.28-.57,1.28-1.28,1.28-1.28-.57-1.28-1.28Z"/>
      <path class="cls-5" d="m117.24,59.93c.13-.62,1.02-3.18,1.02-3.18,0,0-.93-1.42-.84-1.99.09-.53.88-1.15,1.37-1.33.44-.18,3.72.88,3.98,1.28.27.44-1.33,2.39-1.11,2.96.22.58,2.39.66,2.43,1.15.04.53-1.46,2.92-1.95,3.01-.49.13-2.26-.75-2.48-.84-.22-.09-2.65-.04-2.43-1.06Z"/>
      <path class="cls-5" d="m78.33,32.06c-.31,1.42-12.65,3.67-14.06,12.78-1.46,9.11,7.3,13.58,7.3,13.58,0,0,1.46.84,0,2.43-1.42,1.55-4.6-.49-4.6-.49,0,0-7.52-4.51-6.1-15.21,1.46-10.7,17.78-14.46,17.47-13.09Z"/>
      <path class="cls-5" d="m79.83,35.73s-8.45,3.01-10.53,7.03c-2.12,3.98.93,11.81.93,11.81,0,0,1.86-1.37,3.14-1.68,1.28-.31,2.92.22,4.69-.09,1.77-.31,2.52-4.42,2.52-4.42,0,0-1.15-6.1-1.15-7.39,0-1.99.4-5.26.4-5.26Z"/>
      <path class="cls-5" d="m74.88,54.44c.62-.49,2.56.44,3.85-.18,1.28-.66,2.52-1.95,2.52-1.95,0,0,.13-.31,1.28.49,1.11.8,2.56,2.26,2.87,3.36.31,1.15-1.28,0-1.59.97-.31.97,0,2.43,0,2.43,0,0-3.67,2.65-5.26,2.83-1.59.18-2.74-1.06-3.67-2.83-.97-1.77.31-1.46.62-2.12.31-.62-1.28-2.57-.62-3.01Z"/>
      <path class="cls-5" d="m59.31,65.94c.66-.09,3.36-.04,3.36-.04,0,0,1.06-1.37,1.64-1.41.53-.09,1.37.49,1.68.88.31.35.35,3.8.04,4.2-.31.35-2.7-.53-3.18-.18-.44.4.13,2.52-.35,2.7-.44.18-3.18-.49-3.45-.93-.27-.4.04-2.39.04-2.61s-.8-2.48.22-2.61Z"/>
      <path class="cls-5" d="m75.05,65.23c.09.62.13,3.32.13,3.32,0,0,1.37,1.06,1.46,1.59.09.53-.49,1.42-.88,1.73-.35.31-3.8.4-4.2.13-.4-.31.49-2.74.09-3.18-.35-.44-2.48.18-2.7-.31-.18-.44.44-3.18.88-3.45.4-.31,2.39,0,2.61-.04.22,0,2.48-.84,2.61.22Z"/>
      <path class="cls-5" d="m117.2,26.09s-9.29,3.36-12.34,8.05c-3.05,4.78-1.19,10.97-1.19,10.97,0,0,4.64-.44,5.93-.75,1.28-.31,2.96.27,4.73-.09,1.77-.31,2.52-4.42,2.52-4.42,0,0-.22-5.17-.22-6.46,0-1.99.57-7.3.57-7.3Z"/>
      <path class="cls-5" d="m117.51,22.33c-1.28,1.37-16.05,7.78-17.51,15.08-1.42,7.39,5.84,10.66,4.38,12.69-.88,1.28-9.55-1.59-7.03-13.53,2.57-11.94,21.49-15.61,20.17-14.24Z"/>
      <path class="cls-5" d="m105.61,51.21c.04-1.02,1.15-.18,1.46-1.24.31-1.11-.58-3.54-.4-3.89.22-.4,3.89.88,5.31.62,1.37-.27,1.15-1.19,2.39-1.59,1.28-.4,4.02,4.33,3.32,5.75-.66,1.42-3.05,3.8-3.05,3.8,0,0-3.76,1.55-5.44.84-1.72-.71-3.67-3.23-3.58-4.29Z"/>
      <path class="cls-5" d="m80.18,40.07c-.18,8.14,3.05,14.24,5.31,13.05,2.08-1.06-3.01-5.09-2.87-12.07.18-7.87,5.13-12.34,3.85-12.83-1.28-.49-6.1,5.13-6.28,11.85Z"/>
      <path class="cls-5" d="m120.25,18.04c.49-.27.84.18,1.33,1.73.66,2.03-2.56,12.34-2.56,15.79s2.08,10,.97,12.07c-1.11,2.12-2.08-11.1-2.34-13.58-.22-2.43,2.52-11.72,2.26-13.58-.22-1.86-.13-2.17.35-2.43Z"/>
      <path class="cls-5" d="m123.52,26.62c.66,1.5-.93,1.37-.84,9.46.13,8.05,1.19,6.15.75,8.98-.44,2.87-2.96-7.52-2.96-10.17s2.43-9.73,3.05-8.27Z"/>
      <path class="cls-3" d="m57.58,58.47c0-.97.8-1.77,1.77-1.77s1.73.8,1.73,1.77-.75,1.77-1.73,1.77-1.77-.8-1.77-1.77Z"/>
      <path class="cls-3" d="m94.78,26.71c0-.84.71-1.5,1.55-1.5s1.5.66,1.5,1.5-.66,1.5-1.5,1.5-1.55-.66-1.55-1.5Z"/>
      <path class="cls-3" d="m110.52,58.29c-.13-.97.58-1.86,1.55-1.95.97-.09,1.81.62,1.95,1.55.09.97-.62,1.86-1.59,1.95-.93.09-1.81-.57-1.9-1.55Z"/>
      <path class="cls-3" d="m94.56,59.57c-.22-.93.4-1.86,1.33-2.08.97-.18,1.9.4,2.12,1.37.18.93-.44,1.86-1.37,2.08-.97.18-1.9-.4-2.08-1.37Z"/>
      <path class="cls-3" d="m79.96,65.1c-.31-.93.22-1.9,1.11-2.21.93-.31,1.95.22,2.21,1.15.31.88-.18,1.9-1.11,2.21-.93.27-1.9-.22-2.21-1.15Z"/>
      <path class="cls-5" d="m92.61,49.27c.62.18,3.1,1.24,3.1,1.24,0,0,1.5-.84,2.03-.71.53.13,1.11.97,1.24,1.46.18.44-1.11,3.67-1.5,3.89-.44.27-2.3-1.5-2.87-1.33-.58.18-.84,2.39-1.33,2.39-.53,0-2.79-1.68-2.88-2.17-.09-.49.93-2.21,1.02-2.43.09-.18.18-2.61,1.19-2.34Z"/>
      <path class="cls-5" d="m86.91,63.86c.09-.62.8-3.23.8-3.23,0,0-1.06-1.37-.97-1.95.04-.53.84-1.19,1.28-1.42.44-.18,3.76.62,4.07,1.02.31.4-1.19,2.48-.93,3.01.27.58,2.43.53,2.52,1.02.04.53-1.28,2.96-1.77,3.14-.49.13-2.3-.62-2.52-.71-.22-.04-2.61.13-2.48-.88Z"/>
      <path class="cls-5" d="m106.28,56.39c-.18.62-1.41,3.01-1.41,3.01,0,0,.75,1.59.62,2.08-.18.53-1.06,1.06-1.55,1.15-.49.13-3.58-1.33-3.8-1.77-.22-.44,1.64-2.21,1.5-2.79-.13-.57-2.3-.97-2.3-1.46.04-.53,1.86-2.7,2.34-2.74.49-.04,2.12,1.06,2.34,1.15.22.13,2.61.4,2.26,1.37Z"/>
      <path class="cls-3" d="m67.67,75.58c0-.97.8-1.72,1.72-1.72s1.77.75,1.77,1.72-.8,1.77-1.77,1.77-1.72-.8-1.72-1.77Z"/>
      <path class="cls-5" d="m71.69,74.83c4.02.31,7.3-1.33,9.46-5.66.31-.58,1.15-.88,1.72-.66,5.44,2.21,9.82,1.68,13.22-3.49.31-.53,1.19-.75,1.72-.44,5.22,2.83,9.6,2.65,13.62-2.12.4-.44,1.28-.57,1.77-.22,4.91,3.41,9.29,3.58,13.8-.66.44-.44,1.37-.44,1.81,0,4.51,4.25,8.85,4.07,13.75.66.49-.35,1.37-.22,1.77.22,3.98,4.78,8.36,4.95,13.58,2.12.53-.31,1.41-.09,1.77.44,3.41,5.17,7.74,5.7,13.22,3.49.57-.22,1.41.09,1.68.66,2.17,4.33,5.44,5.97,9.46,5.66l.27,2.65c-4.69.35-8.8-1.37-11.54-6.06-5.75,2.03-10.84,1.11-14.64-3.98-5.57,2.7-10.7,2.26-15.08-2.39-5.17,3.27-10.3,3.32-15.17-.75-4.87,4.07-10,4.02-15.21.75-4.38,4.64-9.51,5.09-15.04,2.39-3.8,5.09-8.89,6.02-14.68,3.98-2.7,4.69-6.81,6.41-11.54,6.06l.27-2.65Z"/>
      <path class="cls-4" d="m127.06,10.39c.27-.04.57-.09.84-.09.31,0,.58.04.88.09v-3.27h3.27v-1.15h-3.27V1.9h-1.73v4.07h-3.27v1.15h3.27v3.27Z"/>
      <path class="cls-4" d="m132.06,16.01c-.09-1.02-.53-1.9-1.19-2.61-.75-.75-1.81-1.19-2.96-1.19-2.17,0-3.98,1.68-4.11,3.8h1.28c.09-1.5,1.33-2.7,2.83-2.7s2.79,1.19,2.83,2.7h1.33Z"/>
      <path class="cls-3" d="m199.42,53.43c0-.97-.8-1.73-1.77-1.73s-1.72.75-1.72,1.73.75,1.77,1.72,1.77,1.77-.8,1.77-1.77Z"/>
      <path class="cls-3" d="m200.04,47.94c0-.97-.79-1.72-1.77-1.72s-1.77.75-1.77,1.72.8,1.77,1.77,1.77,1.77-.8,1.77-1.77Z"/>
      <path class="cls-3" d="m198.67,42.32c0-.97-.8-1.77-1.77-1.77s-1.77.8-1.77,1.77.8,1.77,1.77,1.77,1.77-.8,1.77-1.77Z"/>
      <path class="cls-3" d="m195.75,37.46c0-.97-.75-1.77-1.72-1.77s-1.77.8-1.77,1.77.8,1.77,1.77,1.77,1.72-.8,1.72-1.77Z"/>
      <path class="cls-3" d="m191.06,33.66c0-.97-.8-1.77-1.77-1.77s-1.77.8-1.77,1.77.8,1.73,1.77,1.73,1.77-.75,1.77-1.73Z"/>
      <path class="cls-3" d="m185.4,30.16c0-.97-.79-1.77-1.72-1.77s-1.77.8-1.77,1.77.8,1.72,1.77,1.72,1.72-.8,1.72-1.72Z"/>
      <path class="cls-3" d="m179.47,28.61c0-.97-.8-1.77-1.77-1.77s-1.72.8-1.72,1.77.75,1.77,1.72,1.77,1.77-.8,1.77-1.77Z"/>
      <path class="cls-3" d="m163.42,31.58c0-.84-.66-1.5-1.5-1.5s-1.5.66-1.5,1.5.66,1.55,1.5,1.55,1.5-.71,1.5-1.55Z"/>
      <path class="cls-3" d="m165.72,37.06c0-.84-.71-1.5-1.55-1.5-.79,0-1.5.66-1.5,1.5s.71,1.5,1.5,1.5c.84,0,1.55-.66,1.55-1.5Z"/>
      <path class="cls-3" d="m165.72,43.16c0-.84-.71-1.5-1.55-1.5-.79,0-1.5.66-1.5,1.5s.71,1.5,1.5,1.5c.84,0,1.55-.66,1.55-1.5Z"/>
      <path class="cls-3" d="m196.32,64c0-.97-.8-1.77-1.77-1.77s-1.72.8-1.72,1.77.75,1.72,1.72,1.72,1.77-.75,1.77-1.72Z"/>
      <path class="cls-3" d="m139.36,17.82c0-.71-.57-1.28-1.28-1.28s-1.24.58-1.24,1.28.53,1.24,1.24,1.24,1.28-.53,1.28-1.24Z"/>
      <path class="cls-3" d="m157.49,23.66c0-.84-.71-1.5-1.55-1.5-.8,0-1.5.66-1.5,1.5s.71,1.5,1.5,1.5c.84,0,1.55-.66,1.55-1.5Z"/>
      <path class="cls-3" d="m148.69,20.26c0-.71-.58-1.28-1.28-1.28s-1.28.58-1.28,1.28.58,1.28,1.28,1.28,1.28-.57,1.28-1.28Z"/>
      <path class="cls-3" d="m144,19.02c0-.71-.58-1.28-1.24-1.28-.71,0-1.28.58-1.28,1.28s.57,1.28,1.28,1.28c.66,0,1.24-.57,1.24-1.28Z"/>
      <path class="cls-3" d="m172.88,27.02c0-.97-.75-1.72-1.72-1.72s-1.77.75-1.77,1.72.8,1.77,1.77,1.77,1.72-.8,1.72-1.77Z"/>
      <path class="cls-3" d="m166.73,26.67c0-.97-.8-1.77-1.77-1.77s-1.77.8-1.77,1.77.8,1.77,1.77,1.77,1.77-.8,1.77-1.77Z"/>
      <path class="cls-3" d="m153.38,21.45c0-.71-.57-1.28-1.28-1.28s-1.28.57-1.28,1.28.57,1.28,1.28,1.28,1.28-.57,1.28-1.28Z"/>
      <path class="cls-5" d="m138.56,59.93c-.13-.62-.97-3.18-.97-3.18,0,0,.93-1.42.84-1.99-.09-.53-.93-1.15-1.37-1.33-.49-.18-3.76.88-4.02,1.28-.27.44,1.37,2.39,1.15,2.96-.22.58-2.43.66-2.48,1.15,0,.53,1.5,2.92,1.99,3.01.49.13,2.26-.75,2.48-.84.22-.09,2.61-.04,2.39-1.06Z"/>
      <path class="cls-5" d="m177.48,32.06c.31,1.42,12.61,3.67,14.06,12.78,1.46,9.11-7.34,13.58-7.34,13.58,0,0-1.46.84,0,2.43,1.46,1.55,4.6-.49,4.6-.49,0,0,7.56-4.51,6.1-15.21-1.46-10.7-17.78-14.46-17.43-13.09Z"/>
      <path class="cls-5" d="m175.93,35.73s8.49,3.01,10.57,7.03c2.08,3.98-.97,11.81-.97,11.81,0,0-1.81-1.37-3.1-1.68-1.28-.31-2.96.22-4.73-.09-1.77-.31-2.52-4.42-2.52-4.42,0,0,1.15-6.1,1.15-7.39,0-1.99-.4-5.26-.4-5.26Z"/>
      <path class="cls-5" d="m180.93,54.44c-.66-.49-2.56.44-3.85-.18-1.28-.66-2.52-1.95-2.52-1.95,0,0-.18-.31-1.28.49-1.15.8-2.57,2.26-2.92,3.36-.31,1.15,1.28,0,1.64.97.31.97,0,2.43,0,2.43,0,0,3.63,2.65,5.22,2.83,1.64.18,2.74-1.06,3.71-2.83.97-1.77-.31-1.46-.66-2.12-.31-.62,1.28-2.57.66-3.01Z"/>
      <path class="cls-5" d="m196.45,65.94c-.62-.09-3.32-.04-3.32-.04,0,0-1.11-1.37-1.64-1.41-.53-.09-1.37.49-1.68.88-.31.35-.35,3.8-.04,4.2.31.35,2.7-.53,3.14-.18.49.4-.09,2.52.35,2.7.44.18,3.18-.49,3.45-.93.27-.4-.04-2.39-.04-2.61s.79-2.48-.22-2.61Z"/>
      <path class="cls-5" d="m180.71,65.23c-.09.62-.09,3.32-.09,3.32,0,0-1.37,1.06-1.46,1.59-.09.53.49,1.42.84,1.73.4.31,3.8.4,4.2.13.4-.31-.49-2.74-.09-3.18.4-.44,2.48.18,2.7-.31.22-.44-.44-3.18-.84-3.45-.44-.31-2.39,0-2.65-.04-.22,0-2.48-.84-2.61.22Z"/>
      <path class="cls-5" d="m138.61,26.09s9.24,3.36,12.29,8.05c3.05,4.78,1.24,10.97,1.24,10.97,0,0-4.69-.44-5.97-.75-1.28-.31-2.92.27-4.64-.09-1.77-.31-2.52-4.42-2.52-4.42,0,0,.22-5.17.22-6.46,0-1.99-.62-7.3-.62-7.3Z"/>
      <path class="cls-5" d="m138.3,22.33c1.33,1.37,16.05,7.78,17.47,15.08,1.46,7.39-5.84,10.66-4.38,12.69.93,1.28,9.55-1.59,7.03-13.53-2.52-11.94-21.45-15.61-20.12-14.24Z"/>
      <path class="cls-5" d="m150.19,51.21c-.09-1.02-1.15-.18-1.46-1.24-.35-1.11.58-3.54.35-3.89-.18-.4-3.85.88-5.26.62-1.37-.27-1.11-1.19-2.39-1.59-1.28-.4-4.02,4.33-3.32,5.75.71,1.42,3.05,3.8,3.05,3.8,0,0,3.72,1.55,5.44.84s3.63-3.23,3.58-4.29Z"/>
      <path class="cls-5" d="m175.58,40.07c.18,8.14-3.05,14.24-5.31,13.05-2.08-1.06,3.05-5.09,2.92-12.07-.18-7.87-5.17-12.34-3.89-12.83,1.28-.49,6.1,5.13,6.28,11.85Z"/>
      <path class="cls-5" d="m135.6,18.04c-.49-.27-.88.18-1.37,1.73-.66,2.03,2.56,12.34,2.56,15.79s-2.08,10-.97,12.07c1.11,2.12,2.08-11.1,2.34-13.58.27-2.43-2.52-11.72-2.26-13.58.27-1.86.18-2.17-.31-2.43Z"/>
      <path class="cls-5" d="m132.28,26.62c-.62,1.5.97,1.37.84,9.46-.09,8.05-1.15,6.15-.75,8.98.44,2.87,2.96-7.52,2.96-10.17s-2.43-9.73-3.05-8.27Z"/>
      <path class="cls-3" d="m198.18,58.47c0-.97-.75-1.77-1.73-1.77s-1.77.8-1.77,1.77.79,1.77,1.77,1.77,1.73-.8,1.73-1.77Z"/>
      <path class="cls-3" d="m160.98,26.71c0-.84-.66-1.5-1.5-1.5s-1.55.66-1.55,1.5.71,1.5,1.55,1.5,1.5-.66,1.5-1.5Z"/>
      <path class="cls-3" d="m145.28,58.29c.09-.97-.62-1.86-1.59-1.95-.88-.09-1.77.62-1.86,1.55-.13.97.58,1.86,1.5,1.95.97.09,1.81-.57,1.95-1.55Z"/>
      <path class="cls-3" d="m161.25,59.57c.18-.93-.44-1.86-1.37-2.08-.93-.18-1.9.4-2.08,1.37-.22.93.4,1.86,1.37,2.08.93.18,1.86-.4,2.08-1.37Z"/>
      <path class="cls-3" d="m175.85,65.1c.26-.93-.22-1.9-1.15-2.21s-1.9.22-2.21,1.15c-.31.88.22,1.9,1.15,2.21.93.27,1.9-.22,2.21-1.15Z"/>
      <path class="cls-5" d="m163.2,49.27c-.66.18-3.14,1.24-3.14,1.24,0,0-1.5-.84-2.03-.71-.53.13-1.11.97-1.24,1.46-.13.44,1.11,3.67,1.55,3.89.44.27,2.3-1.5,2.87-1.33.58.18.8,2.39,1.33,2.39.49,0,2.79-1.68,2.87-2.17.09-.49-.93-2.21-1.02-2.43-.09-.18-.22-2.61-1.19-2.34Z"/>
      <path class="cls-5" d="m168.9,63.86c-.09-.62-.8-3.23-.8-3.23,0,0,1.02-1.37.97-1.95-.09-.53-.84-1.19-1.28-1.42-.49-.18-3.8.62-4.11,1.02-.27.4,1.24,2.48.97,3.01-.26.58-2.48.53-2.52,1.02-.09.53,1.28,2.96,1.77,3.14.44.13,2.3-.62,2.52-.71.22-.04,2.61.13,2.48-.88Z"/>
      <path class="cls-5" d="m149.49,56.39c.22.62,1.41,3.01,1.41,3.01,0,0-.75,1.59-.58,2.08.13.53,1.06,1.06,1.5,1.15.49.13,3.63-1.33,3.8-1.77.22-.44-1.64-2.21-1.5-2.79.18-.57,2.34-.97,2.3-1.46-.04-.53-1.81-2.7-2.34-2.74-.49-.04-2.12,1.06-2.34,1.15-.18.13-2.57.4-2.26,1.37Z"/>
      <path class="cls-3" d="m188.14,75.58c0-.97-.8-1.72-1.77-1.72s-1.77.75-1.77,1.72.79,1.77,1.77,1.77,1.77-.8,1.77-1.77Z"/>
      <path class="cls-5" d="m99.07,73.2c-9.6,2.08-18.8,5.13-27.55,9.07-.53.22-.57.8-.4,1.24.35.84.88.88,1.55.57,8.58-3.8,17.6-6.81,26.98-8.8,18.58-3.98,37.95-3.98,56.48,0,9.38,1.99,18.44,5,26.98,8.8.71.31,1.19.27,1.55-.57.22-.44.18-1.02-.4-1.24-8.71-3.94-17.96-6.99-27.51-9.07-18.93-4.07-38.74-4.07-57.67,0Z"/>
      <path class="cls-4" d="m107.25,271.68v-41.35h-45.64c6.68,19.73,21.94,35.56,41.26,42.99l4.38-1.64h0Zm-94.38-13.93v49.27l26.89-10.04c-11.28-11.19-20.48-24.5-26.89-39.23h0Zm204.86-27.42h-67.67v25.34l67.67-25.34h0Zm-67.67-72.88v29.85h73.77l-73.77-29.85h0Zm-49.09,29.85h6.28v-46.04c-12.38,3.85-23.35,11.1-31.75,20.61l25.47,25.43h0Zm-56.43-72.62l-27.16-11.01,18.97,18.97c2.61-2.79,5.31-5.44,8.18-7.96h0Zm16.58,72.62c1.81-5.84,4.38-11.32,7.61-16.36l16.41,16.36h-24.02Zm-32.11-56.04c-6.46,8.27-11.9,17.38-16.14,27.11v-43.25l16.14,16.14Z"/>
      <path class="cls-2" d="m109.81,222.9c-.13-.31-.22-.57-.35-.84l-3.01-.04,1.95-2.25c-.04-.09-.09-.18-.13-.27-.49.09-.97-.22-1.15-.66-.13-.31-.13-.62.04-.88,0-.44,0-.57-.44-.79-.27-.09-.53-.22-.88-.58-.27-.35-.44-.71-.62-1.06-.35-.71-.35-.84-1.19-.8-.75,0-1.72.04-1.9-.93-.18-.75.27-1.28.75-1.68-.13-.35-.09-.79.13-1.15-.75-.31-1.06-1.19-.71-1.9-.66-.49-.8-1.42-.31-2.04-.75-.62-.66-1.81.22-2.3-.53-.8-.13-1.9.84-2.12-.27-1.02.62-1.95,1.64-1.77,0-1.02,1.11-1.68,1.99-1.24,0-1.15,1.37-1.77,2.26-1.11.44-1.02,1.9-1.11,2.48-.13.09-1.2,1.77-1.42,2.21-.27.22-1.02,1.55-1.19,2.08-.4.22-.31.62-.53,1.02-.49.09-.8.93-1.28,1.64-1.02.27-.71,1.15-.88,1.64-.4.22-.71,1.15-.93,1.68-.44.22-.71,1.15-.93,1.68-.4.22-.79,1.24-.97,1.72-.35h.71c.04-.8.49-1.46,1.15-1.81v-.71h-1.15v-1.73h1.15v-1.46h1.95v1.46h1.15v1.73h-1.15v.71c.22.13.4.27.57.4.35.35.57.88.62,1.42h.66c.53-.62,1.55-.44,1.77.35.53-.53,1.46-.31,1.68.4.53-.49,1.42-.27,1.64.44.53-.49,1.41-.31,1.64.4.75-.26,1.55.22,1.64,1.02.4-.04.8.18,1.06.49.53-.8,1.81-.62,2.08.4.4-1.15,2.03-.93,2.17.27.58-.97,1.99-.88,2.48.13.88-.66,2.21-.04,2.21,1.11.88-.44,1.99.22,2.03,1.24.97-.18,1.9.75,1.59,1.77.97.22,1.37,1.33.84,2.12.88.49.97,1.68.22,2.3.49.62.35,1.55-.31,2.04.4.71.09,1.59-.66,1.9.18.35.22.8.09,1.15.49.4.93.93.8,1.68-.18.97-1.2.93-1.95.93-.8-.04-.84.09-1.19.8-.18.35-.35.71-.62,1.06-.31.35-.62.49-.84.58-.44.22-.49.35-.49.79.18.27.18.58.04.88-.18.44-.62.75-1.11.66-.04.09-.09.18-.18.27l1.99,2.25-3.05.04c-.09.27-.22.53-.35.84-11.37-5.22-24.68-5.22-36.13,0Z"/>
      <path class="cls-6" d="m127.28,203.8c0-.35.27-.62.62-.62s.62.27.62.62-.27.62-.62.62-.62-.26-.62-.62Z"/>
      <path class="cls-6" d="m127.28,202.29c0-.35.27-.66.62-.66s.62.31.62.66c0,.31-.27.62-.62.62s-.62-.31-.62-.62Z"/>
      <path class="cls-6" d="m127.28,200.74c0-.35.27-.62.62-.62s.62.26.62.62-.27.62-.62.62-.62-.26-.62-.62Z"/>
      <path class="cls-6" d="m127.28,199.24c0-.35.27-.62.62-.62s.62.27.62.62c0,.31-.27.62-.62.62s-.62-.31-.62-.62Z"/>
      <path class="cls-6" d="m127.28,197.69c0-.35.27-.62.62-.62s.62.27.62.62-.27.62-.62.62-.62-.27-.62-.62Z"/>
      <path class="cls-6" d="m127.46,194.64c0-.27.22-.44.44-.44.27,0,.44.18.44.44s-.18.44-.44.44c-.22,0-.44-.18-.44-.44Z"/>
      <path class="cls-6" d="m127.28,196.19c0-.35.27-.62.62-.62s.62.27.62.62-.27.62-.62.62-.62-.26-.62-.62Z"/>
      <path class="cls-6" d="m127.9,207.2c-.27.09-.66.53-1.11.53-.53,0-1.02-.93-.71-1.24.27-.31.93-.04,1.15-.49.22-.4-.04-1.06.66-.97.71-.09.44.57.66.97.22.44.88.18,1.19.49.31.31-.18,1.24-.71,1.24-.44,0-.88-.44-1.15-.53Z"/>
      <polygon class="cls-6" points="107.16 221.66 109.64 221.71 111.27 219.85 108.8 219.85 107.16 221.66"/>
      <polygon class="cls-6" points="148.6 221.66 146.17 221.71 144.53 219.85 147.01 219.85 148.6 221.66"/>
      <path class="cls-6" d="m127.28,208.71c0-.35.27-.62.62-.62s.62.27.62.62-.27.62-.62.62-.62-.27-.62-.62Z"/>
      <path class="cls-6" d="m102.47,207.91c0-.35.27-.62.62-.62s.62.27.62.62-.27.62-.62.62-.62-.27-.62-.62Z"/>
      <path class="cls-6" d="m102.25,205.96c0-.35.27-.62.62-.62s.62.26.62.62c0,.31-.27.62-.62.62s-.62-.31-.62-.62Z"/>
      <path class="cls-6" d="m102.74,203.93c0-.31.27-.62.62-.62s.62.31.62.62c0,.35-.27.66-.62.66s-.62-.31-.62-.66Z"/>
      <path class="cls-6" d="m103.76,202.2c0-.35.31-.62.62-.62.35,0,.66.27.66.62s-.31.62-.66.62c-.31,0-.62-.27-.62-.62Z"/>
      <path class="cls-6" d="m105.44,200.88c0-.35.31-.66.62-.66.35,0,.62.31.62.66,0,.31-.27.62-.62.62-.31,0-.62-.31-.62-.62Z"/>
      <path class="cls-6" d="m107.47,199.59c0-.31.27-.62.62-.62.31,0,.62.31.62.62,0,.35-.31.66-.62.66-.35,0-.62-.31-.62-.66Z"/>
      <path class="cls-6" d="m109.55,199.06c0-.35.31-.62.62-.62.35,0,.66.27.66.62s-.31.62-.66.62c-.31,0-.62-.27-.62-.62Z"/>
      <path class="cls-6" d="m115.25,200.12c0-.31.27-.53.57-.53.27,0,.53.22.53.53s-.27.53-.53.53c-.31,0-.57-.22-.57-.53Z"/>
      <path class="cls-6" d="m114.46,202.07c0-.31.22-.53.53-.53s.53.22.53.53-.22.53-.53.53-.53-.22-.53-.53Z"/>
      <path class="cls-6" d="m114.46,204.24c0-.31.22-.53.53-.53s.53.22.53.53-.22.53-.53.53-.53-.22-.53-.53Z"/>
      <path class="cls-6" d="m103.58,211.67c0-.35.27-.66.62-.66s.62.31.62.66c0,.31-.27.62-.62.62s-.62-.31-.62-.62Z"/>
      <path class="cls-6" d="m123.83,195.22c0-.22.22-.44.44-.44.27,0,.49.22.49.44,0,.27-.22.44-.49.44-.22,0-.44-.18-.44-.44Z"/>
      <path class="cls-6" d="m117.38,197.29c0-.27.27-.53.53-.53.31,0,.53.26.53.53,0,.31-.22.58-.53.58-.27,0-.53-.27-.53-.58Z"/>
      <path class="cls-6" d="m120.52,196.1c0-.27.18-.44.44-.44s.44.18.44.44c0,.22-.18.44-.44.44s-.44-.22-.44-.44Z"/>
      <path class="cls-6" d="m122.15,195.66c0-.27.22-.44.49-.44.22,0,.44.18.44.44s-.22.44-.44.44c-.27,0-.49-.18-.49-.44Z"/>
      <path class="cls-6" d="m111.89,198.49c0-.31.27-.62.62-.62s.62.31.62.62c0,.35-.27.66-.62.66s-.62-.31-.62-.66Z"/>
      <path class="cls-6" d="m114.1,198.36c0-.31.27-.62.62-.62s.62.31.62.62c0,.35-.27.66-.62.66s-.62-.31-.62-.66Z"/>
      <path class="cls-6" d="m118.84,196.54c0-.26.22-.49.49-.49.22,0,.44.22.44.49,0,.22-.22.44-.44.44-.27,0-.49-.22-.49-.44Z"/>
      <path class="cls-6" d="m124.1,210.21c.09-.22.4-1.15.4-1.15,0,0-.35-.49-.31-.71.04-.18.31-.4.49-.44.18-.09,1.33.31,1.41.44.09.13-.49.84-.4,1.06.09.18.84.22.88.4,0,.18-.53,1.02-.71,1.06-.18.04-.8-.27-.89-.31-.09,0-.93,0-.88-.35Z"/>
      <path class="cls-6" d="m110.26,200.3c-.09.49-4.47,1.28-5,4.56-.49,3.23,2.61,4.82,2.61,4.82,0,0,.53.31,0,.84-.49.57-1.64-.18-1.64-.18,0,0-2.65-1.59-2.17-5.4.53-3.8,6.32-5.13,6.19-4.64Z"/>
      <path class="cls-6" d="m110.83,201.58s-3.01,1.11-3.76,2.52c-.75,1.41.35,4.2.35,4.2,0,0,.62-.49,1.11-.62.44-.09,1.02.09,1.64,0,.66-.13.93-1.59.93-1.59,0,0-.4-2.17-.4-2.61,0-.71.13-1.9.13-1.9Z"/>
      <path class="cls-6" d="m109.06,208.26c.22-.18.88.18,1.37-.09.44-.22.88-.66.88-.66,0,0,.04-.13.44.18.4.26.93.8,1.02,1.19.13.4-.44,0-.53.35-.13.31,0,.84,0,.84,0,0-1.33.97-1.9,1.02-.57.04-.97-.4-1.28-1.02-.35-.62.09-.53.22-.75.09-.22-.49-.88-.22-1.06Z"/>
      <path class="cls-6" d="m103.53,212.33h1.19s.35-.49.58-.53c.18,0,.49.18.57.35.13.13.13,1.33.04,1.46-.13.13-.97-.18-1.15-.04-.18.13.04.88-.13.97-.13.04-1.11-.18-1.24-.35-.09-.13.04-.84.04-.93s-.31-.88.09-.93Z"/>
      <path class="cls-6" d="m109.11,212.07c.04.26.04,1.19.04,1.19,0,0,.49.4.53.57.04.22-.18.49-.31.62-.13.09-1.37.13-1.5.04-.13-.13.18-.97.04-1.15-.13-.13-.88.09-.97-.09-.04-.18.18-1.15.31-1.24.18-.09.84,0,.93,0s.88-.31.93.04Z"/>
      <path class="cls-6" d="m124.1,198.18s-3.27,1.2-4.38,2.88c-1.11,1.68-.44,3.89-.44,3.89,0,0,1.68-.18,2.12-.27.44-.13,1.06.09,1.68-.04.62-.09.88-1.59.88-1.59,0,0-.09-1.81-.09-2.26,0-.71.22-2.61.22-2.61Z"/>
      <path class="cls-6" d="m124.23,196.85c-.49.49-5.75,2.74-6.24,5.35-.53,2.61,2.08,3.8,1.55,4.51-.31.44-3.41-.58-2.48-4.82.88-4.25,7.61-5.53,7.16-5.04Z"/>
      <path class="cls-6" d="m119.99,207.11c0-.35.4-.09.53-.44.09-.4-.22-1.24-.13-1.42.04-.13,1.37.35,1.86.27.49-.09.4-.44.84-.57.49-.13,1.46,1.55,1.19,2.03-.22.49-1.06,1.37-1.06,1.37,0,0-1.37.53-1.95.26-.62-.22-1.33-1.15-1.28-1.5Z"/>
      <path class="cls-6" d="m110.96,203.13c-.09,2.92,1.06,5.09,1.86,4.64.75-.35-1.06-1.81-1.02-4.29.04-2.79,1.81-4.38,1.37-4.56-.44-.18-2.17,1.81-2.21,4.2Z"/>
      <path class="cls-6" d="m125.21,195.3c.18-.09.31.09.44.62.27.71-.88,4.38-.88,5.62s.71,3.54.35,4.29c-.4.75-.75-3.94-.84-4.82-.09-.88.88-4.16.8-4.82-.09-.66-.04-.8.13-.88Z"/>
      <path class="cls-6" d="m126.36,198.36c.22.53-.35.49-.31,3.36.04,2.87.44,2.21.27,3.23-.13.97-1.06-2.7-1.06-3.63s.88-3.49,1.11-2.96Z"/>
      <path class="cls-6" d="m102.91,209.68c0-.35.27-.62.62-.62s.62.27.62.62-.27.62-.62.62-.62-.27-.62-.62Z"/>
      <path class="cls-6" d="m116.14,198.4c0-.31.22-.53.53-.53s.53.22.53.53-.22.53-.53.53-.53-.22-.53-.53Z"/>
      <path class="cls-6" d="m121.71,209.63c-.04-.35.22-.66.58-.71.35-.04.66.22.66.57.04.31-.18.62-.53.66-.35.04-.66-.22-.71-.53Z"/>
      <path class="cls-6" d="m116.05,210.08c-.09-.31.13-.66.49-.75.31-.04.66.18.75.49.04.35-.18.66-.49.75-.35.09-.66-.13-.75-.49Z"/>
      <path class="cls-6" d="m110.88,212.07c-.13-.35.04-.71.4-.8.31-.13.66.04.75.4.13.31-.04.66-.4.8-.31.09-.66-.09-.75-.4Z"/>
      <path class="cls-6" d="m115.34,206.41c.22.09,1.11.44,1.11.44,0,0,.53-.31.75-.27.18.04.4.35.44.53.04.18-.4,1.33-.57,1.42-.13.09-.8-.58-1.02-.49-.18.04-.27.84-.44.84s-1.02-.57-1.06-.75c0-.18.35-.8.4-.88,0-.04.04-.93.4-.84Z"/>
      <path class="cls-6" d="m113.31,211.62c.04-.27.31-1.15.31-1.15,0,0-.4-.53-.35-.71,0-.18.31-.44.44-.49.18-.09,1.37.22,1.46.35.09.13-.44.88-.31,1.06.09.18.84.18.88.35,0,.18-.49,1.06-.62,1.11-.18.09-.84-.22-.93-.22-.04-.05-.93.04-.88-.31Z"/>
      <path class="cls-6" d="m120.21,208.93c-.04.22-.49,1.11-.49,1.11,0,0,.27.53.22.75-.09.18-.4.35-.57.4-.13.04-1.24-.49-1.33-.66-.09-.13.58-.75.53-.97-.04-.22-.84-.35-.8-.53,0-.18.62-.93.8-.97.18,0,.75.4.84.44.09,0,.93.13.8.44Z"/>
      <path class="cls-6" d="m106.5,215.78c0-.35.27-.62.62-.62s.62.26.62.62-.27.62-.62.62-.62-.26-.62-.62Z"/>
      <path class="cls-6" d="m107.91,215.52c1.46.09,2.61-.49,3.36-2.04.13-.18.4-.31.62-.22,1.95.79,3.49.62,4.69-1.24.13-.18.44-.27.62-.18,1.86,1.02,3.45.93,4.87-.75.13-.13.44-.18.62-.09,1.77,1.24,3.32,1.28,4.91-.22.18-.18.49-.18.66,0,1.59,1.5,3.14,1.46,4.87.22.18-.09.53-.04.66.09,1.42,1.68,2.96,1.77,4.82.75.18-.09.49,0,.62.18,1.24,1.86,2.79,2.03,4.64,1.24.22-.09.53.04.62.22.8,1.55,1.95,2.12,3.36,2.04l.09.93c-1.64.13-3.14-.49-4.11-2.17-1.99.75-3.8.4-5.13-1.37-1.99.93-3.8.75-5.35-.88-1.9,1.19-3.72,1.19-5.44-.27-1.73,1.46-3.54,1.46-5.4.27-1.55,1.64-3.41,1.81-5.35.88-1.37,1.77-3.18,2.12-5.22,1.37-.97,1.68-2.43,2.3-4.11,2.17l.09-.93Z"/>
      <path class="cls-6" d="m127.59,192.61c.13-.04.22-.04.31-.04.13,0,.22,0,.31.04v-1.19h1.15v-.4h-1.15v-1.46h-.62v1.46h-1.15v.4h1.15v1.19Z"/>
      <path class="cls-6" d="m153.33,207.91c0-.35-.31-.62-.66-.62-.31,0-.62.27-.62.62s.31.62.62.62c.35,0,.66-.27.66-.62Z"/>
      <path class="cls-6" d="m153.51,205.96c0-.35-.27-.62-.62-.62-.31,0-.62.26-.62.62,0,.31.31.62.62.62.35,0,.62-.31.62-.62Z"/>
      <path class="cls-6" d="m153.02,203.93c0-.31-.27-.62-.62-.62-.31,0-.62.31-.62.62,0,.35.31.66.62.66.35,0,.62-.31.62-.66Z"/>
      <path class="cls-6" d="m152.01,202.2c0-.35-.26-.62-.62-.62s-.62.27-.62.62.27.62.62.62.62-.27.62-.62Z"/>
      <path class="cls-6" d="m150.33,200.88c0-.35-.26-.66-.62-.66s-.62.31-.62.66c0,.31.26.62.62.62s.62-.31.62-.62Z"/>
      <path class="cls-6" d="m148.34,199.59c0-.31-.26-.62-.62-.62s-.62.31-.62.62c0,.35.26.66.62.66s.62-.31.62-.66Z"/>
      <path class="cls-6" d="m146.21,199.06c0-.35-.27-.62-.62-.62s-.62.27-.62.62.27.62.62.62.62-.27.62-.62Z"/>
      <path class="cls-6" d="m140.55,200.12c0-.31-.22-.53-.53-.53s-.53.22-.53.53.22.53.53.53.53-.22.53-.53Z"/>
      <path class="cls-6" d="m141.35,202.07c0-.31-.22-.53-.53-.53-.27,0-.53.22-.53.53s.27.53.53.53c.31,0,.53-.22.53-.53Z"/>
      <path class="cls-6" d="m141.35,204.24c0-.31-.22-.53-.53-.53-.27,0-.53.22-.53.53s.27.53.53.53c.31,0,.53-.22.53-.53Z"/>
      <path class="cls-6" d="m152.23,211.67c0-.35-.31-.66-.62-.66-.35,0-.66.31-.66.66,0,.31.31.62.66.62.31,0,.62-.31.62-.62Z"/>
      <path class="cls-6" d="m131.97,195.22c0-.22-.18-.44-.44-.44s-.44.22-.44.44c0,.27.18.44.44.44s.44-.18.44-.44Z"/>
      <path class="cls-6" d="m138.43,197.29c0-.27-.22-.53-.53-.53s-.53.26-.53.53c0,.31.22.58.53.58s.53-.27.53-.58Z"/>
      <path class="cls-6" d="m135.33,196.1c0-.27-.22-.44-.49-.44-.22,0-.44.18-.44.44,0,.22.22.44.44.44.27,0,.49-.22.49-.44Z"/>
      <path class="cls-6" d="m133.65,195.66c0-.27-.22-.44-.44-.44-.27,0-.49.18-.49.44s.22.44.49.44c.22,0,.44-.18.44-.44Z"/>
      <path class="cls-6" d="m143.87,198.49c0-.31-.27-.62-.62-.62-.31,0-.58.31-.58.62,0,.35.27.66.58.66.35,0,.62-.31.62-.66Z"/>
      <path class="cls-6" d="m141.75,198.36c0-.31-.31-.62-.62-.62-.35,0-.66.31-.66.62,0,.35.31.66.66.66.31,0,.62-.31.62-.66Z"/>
      <path class="cls-6" d="m136.97,196.54c0-.26-.18-.49-.44-.49s-.44.22-.44.49c0,.22.18.44.44.44s.44-.22.44-.44Z"/>
      <path class="cls-6" d="m131.71,210.21c-.04-.22-.35-1.15-.35-1.15,0,0,.31-.49.31-.71-.04-.18-.35-.4-.49-.44-.18-.09-1.33.31-1.46.44-.09.13.49.84.44,1.06-.09.18-.88.22-.88.4s.53,1.02.71,1.06c.18.04.8-.27.88-.31.04,0,.93,0,.84-.35Z"/>
      <path class="cls-6" d="m145.51,200.3c.13.49,4.51,1.28,5,4.56.53,3.23-2.61,4.82-2.61,4.82,0,0-.49.31,0,.84.53.57,1.64-.18,1.64-.18,0,0,2.7-1.59,2.17-5.4-.49-3.8-6.32-5.13-6.19-4.64Z"/>
      <path class="cls-6" d="m144.98,201.58s3.01,1.11,3.76,2.52c.71,1.41-.35,4.2-.35,4.2,0,0-.66-.49-1.11-.62-.44-.09-1.06.09-1.68,0-.62-.13-.88-1.59-.88-1.59,0,0,.4-2.17.4-2.61,0-.71-.13-1.9-.13-1.9Z"/>
      <path class="cls-6" d="m146.74,208.26c-.22-.18-.93.18-1.37-.09-.44-.22-.89-.66-.89-.66,0,0-.09-.13-.49.18-.4.26-.89.8-1.02,1.19-.09.4.44,0,.58.35.13.31,0,.84,0,.84,0,0,1.28.97,1.86,1.02.58.04.97-.4,1.33-1.02.35-.62-.13-.53-.22-.75-.13-.22.44-.88.22-1.06Z"/>
      <path class="cls-6" d="m152.27,212.33h-1.19s-.4-.49-.58-.53c-.18,0-.49.18-.62.35-.09.13-.13,1.33,0,1.46.09.13.97-.18,1.11-.04.18.13-.04.88.13.97.18.04,1.15-.18,1.24-.35.09-.13,0-.84,0-.93s.27-.88-.09-.93Z"/>
      <path class="cls-6" d="m146.65,212.07c-.04.26-.04,1.19-.04,1.19,0,0-.49.4-.49.57-.04.22.13.49.31.62.13.09,1.33.13,1.46.04.13-.13-.18-.97,0-1.15.13-.13.88.09.93-.09.09-.18-.13-1.15-.31-1.24-.13-.09-.84,0-.93,0s-.88-.31-.93.04Z"/>
      <path class="cls-6" d="m131.71,198.18s3.32,1.2,4.38,2.88c1.11,1.68.44,3.89.44,3.89,0,0-1.64-.18-2.12-.27-.44-.13-1.02.09-1.64-.04-.66-.09-.93-1.59-.93-1.59,0,0,.09-1.81.09-2.26,0-.71-.22-2.61-.22-2.61Z"/>
      <path class="cls-6" d="m131.62,196.85c.44.49,5.71,2.74,6.24,5.35.49,2.61-2.08,3.8-1.59,4.51.35.44,3.41-.58,2.52-4.82-.88-4.25-7.65-5.53-7.17-5.04Z"/>
      <path class="cls-6" d="m135.86,207.11c-.04-.35-.44-.09-.53-.44-.13-.4.18-1.24.13-1.42-.09-.13-1.37.35-1.9.27-.49-.09-.4-.44-.84-.57-.44-.13-1.41,1.55-1.19,2.03.27.49,1.11,1.37,1.11,1.37,0,0,1.33.53,1.95.26.62-.22,1.28-1.15,1.28-1.5Z"/>
      <path class="cls-6" d="m144.84,203.13c.04,2.92-1.11,5.09-1.9,4.64-.71-.35,1.1-1.81,1.06-4.29-.09-2.79-1.81-4.38-1.33-4.56.4-.18,2.12,1.81,2.17,4.2Z"/>
      <path class="cls-6" d="m130.65,195.3c-.18-.09-.31.09-.49.62-.22.71.93,4.38.93,5.62s-.75,3.54-.35,4.29c.4.75.75-3.94.84-4.82.09-.88-.88-4.16-.8-4.82.09-.66.04-.8-.13-.88Z"/>
      <path class="cls-6" d="m129.45,198.36c-.22.53.35.49.31,3.36-.04,2.87-.4,2.21-.27,3.23.18.97,1.06-2.7,1.06-3.63s-.88-3.49-1.11-2.96Z"/>
      <path class="cls-6" d="m152.89,209.68c0-.35-.31-.62-.62-.62-.35,0-.62.27-.62.62s.27.62.62.62c.31,0,.62-.27.62-.62Z"/>
      <path class="cls-6" d="m139.71,198.4c0-.31-.27-.53-.57-.53-.27,0-.53.22-.53.53s.27.53.53.53c.31,0,.57-.22.57-.53Z"/>
      <path class="cls-6" d="m134.09,209.63c.04-.35-.22-.66-.53-.71-.35-.04-.66.22-.71.57-.04.31.22.62.58.66.31.04.62-.22.66-.53Z"/>
      <path class="cls-6" d="m139.8,210.08c.04-.31-.18-.66-.49-.75-.35-.04-.71.18-.75.49-.09.35.13.66.49.75.31.09.66-.13.75-.49Z"/>
      <path class="cls-6" d="m144.93,212.07c.09-.35-.09-.71-.4-.8-.35-.13-.71.04-.8.4-.09.31.09.66.4.8.35.09.66-.09.8-.4Z"/>
      <path class="cls-6" d="m140.46,206.41c-.22.09-1.11.44-1.11.44,0,0-.53-.31-.71-.27-.22.04-.4.35-.44.53-.04.18.4,1.33.53,1.42.18.09.84-.58,1.02-.49.22.04.31.84.49.84s.97-.57,1.02-.75c.04-.18-.35-.8-.35-.88-.04-.04-.09-.93-.44-.84Z"/>
      <path class="cls-6" d="m137.85,216.31c3.14.66,6.19,1.64,9.07,2.92-.04.09-.09.18-.13.27l-3.01.04,1.95,2.21c-.04.09-.04.18-.09.27-11.28-4.91-24.19-4.91-35.47,0-.04-.09-.09-.18-.13-.27l1.95-2.21-3.01-.04c-.04-.09-.09-.18-.13-.27,2.92-1.28,5.97-2.25,9.15-2.92,6.5-1.41,13.31-1.41,19.86,0Z"/>
      <path class="cls-6" d="m142.5,211.62c-.04-.27-.27-1.15-.27-1.15,0,0,.35-.53.31-.71,0-.18-.27-.44-.44-.49-.13-.09-1.33.22-1.46.35-.09.13.44.88.35,1.06s-.88.18-.88.35c-.04.18.44,1.06.62,1.11.18.09.8-.22.88-.22.09-.05.93.04.88-.31Z"/>
      <path class="cls-6" d="m135.6,208.93c.09.22.49,1.11.49,1.11,0,0-.27.53-.18.75.04.18.35.35.53.4.18.04,1.28-.49,1.37-.66.04-.13-.62-.75-.53-.97.04-.22.8-.35.8-.53s-.66-.93-.84-.97c-.18,0-.75.4-.84.44-.04,0-.93.13-.8.44Z"/>
      <path class="cls-6" d="m149.31,215.78c0-.35-.31-.62-.62-.62-.35,0-.62.26-.62.62s.26.62.62.62c.31,0,.62-.26.62-.62Z"/>
      <path class="cls-6" d="m117.64,214.94c-3.41.71-6.68,1.81-9.77,3.23-.22.05-.22.27-.13.44.09.27.31.31.53.18,3.05-1.37,6.24-2.43,9.6-3.14,6.59-1.41,13.49-1.41,20.12,0,3.32.71,6.5,1.77,9.51,3.14.26.13.44.09.58-.18.09-.18.04-.4-.13-.44-3.14-1.41-6.37-2.52-9.77-3.23-6.72-1.46-13.75-1.46-20.52,0Z"/>
      <path class="cls-6" d="m126.93,194.64c0-.53.44-1.02.97-1.02.58,0,1.02.49,1.02,1.02,0,.26-.13.53-.31.71.09.09.18.22.27.35.27-.27.44-.66.44-1.06,0-.8-.62-1.42-1.41-1.42-.75,0-1.42.62-1.42,1.42,0,.4.18.79.49,1.06.04-.13.13-.27.22-.35-.18-.18-.27-.44-.27-.71Z"/>
      <path class="cls-2" d="m122.33,217.06c0-.49.35-.88.84-.88s.88.4.88.88-.4.84-.88.84-.84-.35-.84-.84Z"/>
      <polygon class="cls-2" points="124.9 216.8 127.9 215.43 130.95 216.8 127.9 218.21 124.9 216.8"/>
      <polygon class="cls-2" points="115.43 218.44 118.13 216.44 121.36 217.15 118.7 219.14 115.43 218.44"/>
      <path class="cls-2" d="m113,219.19c-.13-.44.18-.93.66-1.02.44-.09.88.22,1.02.66.09.49-.22.93-.66,1.02-.49.09-.93-.18-1.02-.66Z"/>
      <path class="cls-2" d="m133.52,217.06c0-.49-.4-.88-.88-.88-.44,0-.84.4-.84.88s.4.84.84.84c.49,0,.88-.35.88-.84Z"/>
      <polygon class="cls-2" points="140.37 218.44 137.72 216.44 134.45 217.15 137.15 219.14 140.37 218.44"/>
      <path class="cls-2" d="m142.85,219.19c.09-.44-.22-.93-.66-1.02-.49-.09-.93.22-1.02.66-.09.49.18.93.66,1.02.44.09.93-.18,1.02-.66Z"/>
      <path class="cls-6" d="m122.77,217.06c0-.22.18-.4.4-.4s.4.18.4.4-.18.4-.4.4-.4-.18-.4-.4Z"/>
      <polygon class="cls-6" points="125.69 216.8 127.9 217.86 130.16 216.8 127.9 215.78 125.69 216.8"/>
      <polygon class="cls-6" points="116.23 218.26 118.62 218.79 120.61 217.33 118.22 216.8 116.23 218.26"/>
      <path class="cls-6" d="m113.44,219.1c-.04-.22.09-.4.31-.44.22-.04.4.09.44.26.04.22-.09.44-.31.49-.18.04-.4-.09-.44-.31Z"/>
      <path class="cls-6" d="m133.03,217.06c0-.22-.18-.4-.4-.4s-.35.18-.35.4.13.4.35.4.4-.18.4-.4Z"/>
      <polygon class="cls-6" points="139.62 218.26 137.19 218.79 135.2 217.33 137.63 216.8 139.62 218.26"/>
      <path class="cls-6" d="m142.37,219.1c.04-.22-.09-.4-.27-.44-.22-.04-.44.09-.49.26-.04.22.09.44.31.49.22.04.4-.09.44-.31Z"/>
      <path class="cls-2" d="m37.28,241.52c2.26,0,4.11,1.86,4.11,4.11s-1.86,4.11-4.11,4.11-4.07-1.86-4.07-4.11,1.81-4.11,4.07-4.11h0Zm0,1.86c-1.24,0-2.26,1.02-2.26,2.25s1.02,2.3,2.26,2.3,2.3-1.02,2.3-2.3-1.02-2.25-2.3-2.25Z"/>
      <path class="cls-2" d="m46.39,257.89c1.15,0,2.17.44,2.87,1.19h0c.75.75,1.19,1.77,1.19,2.88,0,2.26-1.81,4.07-4.07,4.07-1.11,0-2.12-.44-2.87-1.19h0c-.75-.71-1.19-1.77-1.19-2.88,0-2.26,1.81-4.07,4.07-4.07h0Zm0,1.81c-1.24,0-2.26,1.02-2.26,2.26,0,.62.27,1.19.66,1.59h0c.4.44.97.66,1.59.66,1.24,0,2.26-1.02,2.26-2.26,0-.62-.22-1.19-.66-1.59h0c-.4-.4-.97-.66-1.59-.66Z"/>
    </g>
  </g>
</svg>