<?xml version="1.0" encoding="UTF-8"?>
<svg id="Layer_2" data-name="Layer 2" xmlns="http://www.w3.org/2000/svg" viewBox="0 0 234.95 341.98">
  <defs>
    <style>
      .cls-1, .cls-2, .cls-3, .cls-4, .cls-5 {
        stroke-width: 0px;
      }

      .cls-2 {
        fill: #fd0014;
      }

      .cls-3 {
        fill: #37419b;
      }

      .cls-4 {
        fill: #fff;
      }

      .cls-5 {
        fill: #ffcc17;
      }
    </style>
  </defs>
  <g id="Layer_1-2" data-name="Layer 1">
    <g>
      <path class="cls-5" d="m48.4,54.55c1.93-10.29,9.15-17.94,18.37-20.14.51-.12.95-.14,1.5-.24,1.25-.24,2.83-.53,4.35-.36.05,0,.12,0,.11,0,1.21.15,2.42.19,3.71.42,1.23.22,2.47.66,3.6,1.08.27.1.87.55,1.18.48l.05-.12c1.47-1.46,2.69-3.23,4.24-4.61,3.54-3.18,8.82-5.46,15.09-5.46,2.57,0,4.74.59,6.98.96-1.19-5,1.63-9.57,4.24-11.33,1.01-.68,2.16-1.08,3.33-1.62v-4.38h-4.3v-4.62h4.3c0-1.52,0-3.2.05-4.62h4.51c.05,1.41.05,3.1.05,4.62h4.3v4.62h-4.3v4.38c1.17.54,2.33.94,3.33,1.62,2.61,1.76,5.43,6.33,4.24,11.33,2.25-.37,4.42-.96,6.98-.96,6.27,0,11.55,2.28,15.09,5.46,1.55,1.39,2.77,3.16,4.24,4.61l.05.12c.31.08.91-.38,1.18-.48,1.12-.42,2.37-.86,3.6-1.08,1.28-.23,2.5-.27,3.71-.42,0,0,.06,0,.11,0,1.52-.17,3.11.11,4.35.36.55.11,1,.12,1.5.24,9.22,2.2,16.44,9.85,18.37,20.14.37,1.97.54,4.45.37,6.83-.72,10.73-4.07,17.96-7.84,25.24-1.67,3.22-3.59,7.19-6.44,9.05.43.67.96,1.32,1.29,2.1.74,1.79.71,4.25.11,6.11-2.23,6.86-12.53,8.61-18.8,4.73-2.79-1.72-4.3-3.75-4.72-7.97-5.2,5.53-16.51,5.29-20.68-1.2-.52-.82-.84-1.78-1.18-2.82-.73,1.08-1.41,2.23-2.36,3.06-2.24,1.93-5.51,2.9-8.81,2.93-3.29-.03-6.57-1-8.81-2.93-.96-.83-1.63-1.98-2.36-3.06-.34,1.03-.66,2-1.18,2.82-4.17,6.49-15.47,6.73-20.68,1.2-.42,4.23-1.94,6.25-4.73,7.97-6.27,3.88-16.57,2.13-18.8-4.73-.6-1.86-.64-4.33.11-6.11.33-.78.86-1.43,1.29-2.1-2.86-1.87-4.78-5.83-6.44-9.05-3.78-7.28-7.12-14.5-7.84-25.24-.16-2.39,0-4.86.37-6.83Z"/>
      <path class="cls-2" d="m71.77,48.74c-3.84.29-6.43,2.15-8.06,4.92-2.9,4.93-.82,13.98.8,18.76.87,2.56,2.18,4.93,3.39,7.19.79,1.5,1.81,2.92,2.74,4.32,1.27,1.93,2.88,3.75,2.52,7.32,1.56.26,2.71.4,3.92.78,2.13.66,3.58,2.06,5.16,3.3,0-2.55.83-4.09,1.88-5.46.56-.74,1.15-1.37,1.88-1.92.33-.24.6-.45.97-.66-.38-.34-.79-.8-1.12-1.2-1.43-1.68-2.24-4.28-3.17-6.47-2.77-6.55-5.21-13.34-6.23-21.94-.31-2.62-.47-5.6-.11-8.33-1.27-.42-3.21-.7-4.56-.6"/>
      <path class="cls-2" d="m103.02,40.28c2.92.24,5.36,1.16,7.52,2.28v34.29c0,1.33-.06,2.73.11,3.9.2,1.38.74,2.58,1.34,3.54-3.39,1.78-4.72,2.99-6.34,6.77-1.39-2.99-4.17-4.69-7.41-5.64.18-1,.51-1.93.43-3.17-.16-2.46-1.24-4.05-1.99-5.82-.74-1.75-1.49-3.5-2.2-5.27-2.1-5.23-5.92-17.21-3.28-24.22.63-1.66,1.67-2.84,2.85-3.9,2.05-1.84,5.02-3.09,8.97-2.76"/>
      <path class="cls-2" d="m163.18,48.74c3.84.29,6.43,2.15,8.06,4.92,2.9,4.93.82,13.98-.8,18.76-.87,2.56-2.18,4.93-3.39,7.19-.79,1.5-1.81,2.92-2.74,4.32-1.27,1.93-2.88,3.75-2.53,7.32-1.56.26-2.71.4-3.92.78-2.13.66-3.58,2.06-5.16,3.3,0-2.55-.83-4.09-1.88-5.46-.56-.74-1.15-1.37-1.88-1.92-.33-.24-.6-.45-.97-.66.38-.34.79-.8,1.12-1.2,1.43-1.68,2.24-4.28,3.17-6.47,2.77-6.55,5.21-13.34,6.23-21.94.31-2.62.47-5.6.11-8.33,1.27-.42,3.21-.7,4.56-.6"/>
      <path class="cls-2" d="m131.92,40.28c-2.92.24-5.36,1.16-7.52,2.28v34.29c0,1.33.06,2.73-.11,3.9-.2,1.38-.74,2.58-1.34,3.54,3.39,1.78,4.72,2.99,6.34,6.77,1.39-2.99,4.17-4.69,7.41-5.64-.18-1-.51-1.93-.43-3.17.16-2.46,1.24-4.05,1.99-5.82.74-1.75,1.49-3.5,2.2-5.27,2.1-5.23,5.92-17.21,3.28-24.22-.63-1.66-1.67-2.84-2.85-3.9-2.05-1.84-5.02-3.09-8.97-2.76"/>
      <path class="cls-2" d="m0,224.51c0-64.88,52.59-117.47,117.47-117.47s117.47,52.59,117.47,117.47-52.59,117.47-117.47,117.47S0,289.39,0,224.51Z"/>
      <path class="cls-1" d="m15.72,223.45c0,2.25,2.18,4.07,4.87,4.07s4.87-1.82,4.87-4.07-2.18-4.07-4.87-4.07-4.87,1.82-4.87,4.07Z"/>
      <path class="cls-1" d="m25.53,260.3c5.32-1.58,8.8-7.19,7.47-12.8l-1.72-7.22-20.49,5.34,1.72,7.22c1.39,5.82,7.5,9.08,13.02,7.45Zm-8.45-8.65l-.49-2.07,11.34-2.96.49,2.07c.69,2.89-1.39,5.56-4.13,6.39-2.91.87-6.47-.36-7.2-3.43Z"/>
      <polygon class="cls-1" points="41.06 276.92 45.18 274.53 39.23 263.29 20.76 273.99 26.89 285.55 31.01 283.16 27.35 276.24 30.85 274.2 33.84 279.84 37.96 277.45 34.98 271.81 37.56 270.32 41.06 276.92"/>
      <path class="cls-1" d="m62.26,291.59l-4.49-3.67-13,17.4,4.91,4.01c3.44,2.81,7.92,3.58,10.39.27,1.52-2.03,1.3-4.54-.04-6.71,2.06.47,3.96-.03,5.26-1.77,2.27-3.05.17-6.92-3.03-9.53Zm-5.89,14.29c-.91,1.22-2.37.72-4.06-.66l-.64-.52,2.47-3.31.64.52c1.8,1.47,2.48,2.78,1.59,3.97Zm4.23-7.15c-.65.87-1.61.84-3.16-.43l-.61-.5,2.03-2.73.58.48c1.55,1.27,1.8,2.31,1.15,3.18Z"/>
      <path class="cls-1" d="m65.97,319.13l4.17,3.23,2.92-3.52,6.11,2.84-.54,4.62,5.09,1.08,1.5-22.99-3.92-1.83-15.33,16.55Zm13.8-2.55l-3.48-1.62,4.29-5.18-.81,6.8Z"/>
      <polygon class="cls-1" points="149.14 323.02 147.96 319.01 153.85 317.12 152.48 312.41 146.59 314.29 145.72 311.33 152.62 309.13 151.24 304.41 139.5 308.17 145.67 329.29 157.76 325.42 156.38 320.7 149.14 323.02"/>
      <polygon class="cls-1" points="171.36 312.92 163.41 297.92 158.98 300.49 169.22 319.8 180.11 313.49 177.83 309.17 171.36 312.92"/>
      <path class="cls-1" d="m178.25,285.88c-4.08,4.12-2.84,11.01,1.09,15.27,3.94,4.26,10.48,5.79,14.56,1.67,4.08-4.12,2.85-11.01-1.09-15.27-3.94-4.26-10.48-5.79-14.56-1.67Zm12.42,13.45c-2.18,2.2-5.19.74-7.64-1.91-2.44-2.65-3.74-5.85-1.56-8.04,2.18-2.2,5.19-.74,7.64,1.91,2.45,2.65,3.74,5.84,1.56,8.04Z"/>
      <polygon class="cls-1" points="196.17 262.36 206.64 268.42 192.66 268.99 190.2 273.62 208.67 284.33 211.13 279.69 200.66 273.63 214.65 273.06 217.1 268.43 198.63 257.72 196.17 262.36"/>
      <path class="cls-1" d="m220.36,243.63l4.44-.41-.05-5.43-21.82,3.24-.89,4.4,18.67,12.24,2.16-4.94-3.89-2.26,1.39-6.84Zm-5.7,4.34l-5.73-3.31,6.53-.58-.79,3.89Z"/>
      <path class="cls-1" d="m210.67,225.81c0,2.24,2.18,4.07,4.87,4.07s4.87-1.82,4.87-4.07-2.18-4.07-4.87-4.07-4.87,1.82-4.87,4.07Z"/>
      <polygon class="cls-1" points="203.29 212.54 207.87 211.35 206.08 203.85 221.99 199.7 220.77 194.55 200.28 199.9 203.29 212.54"/>
      <path class="cls-1" d="m193.87,185.42c2.83,5.13,9.52,5.56,14.43,2.59,4.91-2.96,7.9-9.23,5.07-14.37-2.83-5.13-9.52-5.56-14.43-2.59-4.91,2.96-7.9,9.23-5.07,14.37Zm7.64-9.71c3.05-1.84,6.32-2.38,7.84.37,1.51,2.74-.57,5.44-3.62,7.29-3.05,1.84-6.33,2.37-7.84-.37-1.51-2.74.57-5.44,3.62-7.28Z"/>
      <polygon class="cls-1" points="182.04 169.21 187.88 163.52 201.59 160.16 199.39 155.21 189.58 158.19 190.24 156.31 190.78 156.18 193.48 148.37 192.98 148.08 192.98 148.09 188.53 145.52 184.37 159.59 178.54 165.28 182.04 169.21"/>
      <polygon class="cls-1" points="166.49 139.72 166.3 154.35 170.6 157.16 181.79 138.43 177.49 135.62 171.15 146.23 171.17 144.17 171.55 143.51 171.68 131.83 171.33 131.59 171.33 131.6 167.04 128.79 155.85 147.52 160.15 150.33 166.49 139.72"/>
      <path class="cls-1" d="m146.44,139.98l.23,4.65,5.19.14-2.34-22.91-4.16-1.09-12.35,19.09,4.64,2.42,2.29-3.99,6.49,1.69Zm-.59-11.99l.33,6.84-3.69-.96,3.36-5.88Z"/>
      <path class="cls-1" d="m120.21,133.41h.81c4.51,0,8.83-3.2,8.83-7.91s-4.33-7.92-8.83-7.92h-5.88v22.09h5.07v-6.26Zm0-10.89h.81c1.8,0,3.69,1.1,3.69,2.98s-1.9,2.98-3.69,2.98h-.81v-5.96Z"/>
      <path class="cls-1" d="m99.62,132.94c1.04.33,2.02.72,2.21,1.84.18,1.09-.46,2.17-1.47,2.51-1.45.47-3.1.13-3.75-1.27l-2.43,4.34c2.06,1.99,4.85,2.27,7.16,1.76,3.68-.82,6.16-4.57,5.44-8.43-.62-3.25-3.12-4.73-6.22-5.62l-1.45-.43c-1.56-.44-2.87-.68-2.78-2.02.05-.8.55-1.55,1.31-1.72,1.16-.3,2.37-.37,3.16.5l2.29-4.16c-1.96-1.52-3.98-1.71-6.42-1.17-3.07.68-5.94,4.07-5.28,7.64.65,3.54,3.66,4.75,7.01,5.82l1.23.4Z"/>
      <polygon class="cls-1" points="79.5 142.92 77.86 139.08 83.49 136.46 81.57 131.96 75.94 134.58 74.74 131.76 81.33 128.69 79.42 124.18 68.19 129.4 76.78 149.58 88.33 144.2 86.41 139.7 79.5 142.92"/>
      <path class="cls-1" d="m56.68,164.11c3.98-4.31,3.39-11.46-.86-15.5-4.1-3.88-10.5-4-14.33.16l-4.94,5.35,15.19,15.34,4.94-5.35Zm-11.8-11.91c1.98-2.14,5.25-1.71,7.37.28,2.25,2.12,3.14,5.93,1.03,8.21l-1.42,1.54-8.41-8.49,1.42-1.54Z"/>
      <path class="cls-1" d="m29.54,183.82c4.89,2.83,11.59,2.42,14.3-2.7,1.5-2.83,1.82-5.34.81-8.37h0s-.11-.36-.11-.36l-4.59,1.09.09.25h0c.85,1.67.73,3.41-.25,5.03-1.63,2.63-5.13,1.87-7.75.35-2.62-1.52-5-4.16-3.83-7.05.72-1.73,1.89-2.73,3.64-3.07l-1.35-4.44c-2.99.71-4.85,2.32-6.35,5.15-2.57,4.86.51,11.28,5.4,14.11Z"/>
      <path class="cls-1" d="m33.77,203.12l-6.79-1.64.17-.79,8.82-4.29-1.16-5.08h-.02s-.18-.66-.18-.66l-7.89,4.17c-.82-2.23-2.54-3.81-4.6-4.3-4.12-.99-7.81,2.5-8.76,6.8l-1.32,5.99,20.58,4.97,1.14-5.17Zm-11.21-3.57l-.18.82-4.6-1.11.18-.82c.53-2.4,1.54-3.03,3.01-2.67,1.47.36,1.93,2.24,1.58,3.78Z"/>
      <path class="cls-1" d="m106,323.2c2.07-1.01,3.47-2.91,3.8-5.1.66-4.36-2.93-7.98-7.1-8.67l-5.81-.96-3.3,21.81,5.01.83,1.09-7.2.76.13,4.71,8.91,4.76-1.56v-.02s.57-.15.57-.15l-4.5-8.01Zm-1.28-5.94c-.24,1.56-2,2.17-3.5,1.92l-.8-.13.74-4.87.8.13c2.33.39,3,1.39,2.76,2.96Z"/>
      <path class="cls-1" d="m131.54,325.25l-.16.32c-.88,1.62-2.33,2.45-4.14,2.47-3,0-4.29-3.49-4.5-6.61-.21-3.12.61-6.65,3.57-7.2,1.78-.31,3.22.17,4.44,1.52l2.83-3.6c-2.2-2.24-4.5-2.99-7.59-2.76-5.3.39-8.77,6.58-8.38,12.42.39,5.84,4.37,11.48,9.95,11.08,3.09-.22,5.28-1.31,7.15-3.84h0s.18-.29.18-.29l-3.35-3.5Z"/>
      <path class="cls-5" d="m14.35,224.61c0,2.25,2.18,4.07,4.87,4.07s4.87-1.82,4.87-4.07-2.18-4.07-4.87-4.07-4.87,1.82-4.87,4.07Z"/>
      <path class="cls-5" d="m209.37,224.61c0,2.25,2.18,4.07,4.87,4.07s4.87-1.82,4.87-4.07-2.18-4.07-4.87-4.07-4.87,1.82-4.87,4.07Z"/>
      <path class="cls-5" d="m28.1,184.28c4.9,2.84,11.6,2.42,14.31-2.69,1.5-2.83,1.82-5.34.81-8.37l-4.62.98c.85,1.67.73,3.41-.25,5.03-1.63,2.63-5.13,1.87-7.75.35-2.62-1.52-5-4.16-3.83-7.06.72-1.73,1.89-2.73,3.64-3.07l-1.35-4.44c-2.99.71-4.85,2.32-6.35,5.15-2.58,4.86.51,11.27,5.4,14.11Z"/>
      <path class="cls-5" d="m54.84,164.19c3.98-4.32,3.39-11.46-.86-15.5-4.1-3.88-10.5-4-14.33.16l-4.94,5.35,15.19,15.34,4.94-5.35Zm-11.8-11.91c1.98-2.15,5.24-1.71,7.37.28,2.25,2.12,3.14,5.93,1.03,8.2l-1.42,1.54-8.41-8.49,1.42-1.53Z"/>
      <polygon class="cls-5" points="165.99 137.96 165.8 152.59 170.1 155.4 181.29 136.67 176.99 133.86 170.65 144.47 170.85 129.84 166.54 127.03 155.36 145.76 159.65 148.57 165.99 137.96"/>
      <path class="cls-5" d="m145.11,138.7l.23,4.65,5.2.14-2.34-22.91-4.16-1.09-12.35,19.08,4.64,2.42,2.29-3.99,6.49,1.69Zm-.59-11.99l.33,6.84-3.69-.96,3.36-5.88Z"/>
      <path class="cls-5" d="m118.87,132.13h.81c4.51,0,8.83-3.2,8.83-7.92s-4.33-7.91-8.83-7.91h-5.88v22.08h5.07v-6.26Zm0-10.89h.81c1.8,0,3.7,1.1,3.7,2.98s-1.9,2.98-3.7,2.98h-.81v-5.96Z"/>
      <path class="cls-5" d="m98.55,131.74c1.04.33,2.02.72,2.21,1.84.18,1.09-.46,2.17-1.47,2.51-1.45.47-3.1.12-3.75-1.28l-2.43,4.34c2.06,1.99,4.85,2.27,7.16,1.76,3.68-.82,6.16-4.57,5.44-8.44-.63-3.25-3.12-4.73-6.22-5.62l-1.46-.43c-1.56-.44-2.87-.68-2.78-2.01.05-.8.55-1.55,1.31-1.72,1.16-.3,2.37-.38,3.16.5l2.29-4.16c-1.96-1.52-3.98-1.71-6.42-1.17-3.07.68-5.94,4.07-5.28,7.65.65,3.54,3.66,4.75,7.01,5.81l1.23.41Z"/>
      <polygon class="cls-5" points="77.81 142.36 76.18 138.52 81.81 135.9 79.89 131.4 74.26 134.02 73.06 131.19 79.65 128.12 77.73 123.62 66.51 128.84 75.1 149.02 86.64 143.65 84.72 139.14 77.81 142.36"/>
      <polygon class="cls-5" points="182.08 167.33 187.92 161.64 201.63 158.29 199.43 153.33 189.62 156.31 193.14 146.28 188.57 143.64 184.41 157.71 178.57 163.41 182.08 167.33"/>
      <path class="cls-5" d="m193.76,183.64c2.83,5.13,9.53,5.55,14.43,2.59,4.91-2.96,7.9-9.24,5.07-14.37-2.83-5.13-9.53-5.55-14.43-2.59-4.91,2.96-7.9,9.23-5.07,14.37Zm7.64-9.71c3.05-1.84,6.32-2.38,7.84.37,1.51,2.74-.57,5.44-3.62,7.28-3.05,1.84-6.33,2.38-7.84-.37-1.52-2.74.57-5.45,3.62-7.28Z"/>
      <polygon class="cls-5" points="204.17 210.9 208.75 209.71 206.96 202.21 222.87 198.06 221.64 192.92 201.16 198.26 204.17 210.9"/>
      <path class="cls-5" d="m26.37,258.63c5.32-1.58,8.81-7.19,7.47-12.8l-1.72-7.22-20.49,5.34,1.72,7.22c1.39,5.82,7.5,9.08,13.02,7.46Zm-8.44-8.65l-.49-2.07,11.34-2.96.49,2.07c.69,2.89-1.4,5.56-4.13,6.39-2.91.87-6.47-.37-7.2-3.43Z"/>
      <polygon class="cls-5" points="41.56 275.04 45.68 272.65 39.73 261.41 21.26 272.11 27.38 283.67 31.51 281.28 27.84 274.36 31.35 272.33 34.33 277.96 38.46 275.57 35.48 269.94 38.06 268.44 41.56 275.04"/>
      <path class="cls-5" d="m62.03,289.67l-4.49-3.67-13,17.4,4.91,4.01c3.44,2.81,7.92,3.58,10.38.27,1.52-2.03,1.3-4.54-.03-6.71,2.06.47,3.96-.04,5.26-1.77,2.27-3.04.16-6.92-3.02-9.53Zm-5.89,14.29c-.91,1.22-2.37.72-4.06-.66l-.64-.52,2.47-3.31.64.52c1.8,1.47,2.48,2.78,1.6,3.97Zm4.22-7.15c-.65.87-1.61.84-3.16-.43l-.61-.5,2.04-2.73.58.48c1.56,1.27,1.8,2.31,1.15,3.18Z"/>
      <path class="cls-5" d="m64.82,317.61l4.17,3.23,2.92-3.51,6.11,2.84-.54,4.62,5.09,1.08,1.51-22.99-3.93-1.83-15.33,16.55Zm13.8-2.56l-3.47-1.62,4.28-5.18-.81,6.79Z"/>
      <path class="cls-5" d="m108.69,316.62c.66-4.36-2.93-7.98-7.1-8.67l-5.81-.96-3.3,21.81,5,.83,1.09-7.2.77.13,4.71,8.9,4.76-1.56-4.54-7.91c2.42-.91,4.05-2.98,4.41-5.38Zm-5.08-.84c-.24,1.56-2,2.16-3.5,1.91l-.8-.13.74-4.87.8.13c2.33.39,3,1.39,2.76,2.96Z"/>
      <path class="cls-5" d="m125.91,327.08c-3,0-4.29-3.49-4.5-6.61-.21-3.12.61-6.65,3.58-7.2,1.78-.32,3.22.17,4.44,1.52l2.83-3.6c-2.2-2.24-4.5-2.99-7.6-2.77-5.3.39-8.76,6.58-8.37,12.42.39,5.83,4.37,11.49,9.95,11.08,3.09-.22,5.28-1.31,7.16-3.84l-3.31-3.52c-.88,1.65-2.34,2.49-4.17,2.52Z"/>
      <polygon class="cls-5" points="147.49 322.22 146.32 318.2 152.21 316.32 150.83 311.61 144.94 313.49 144.08 310.53 150.98 308.33 149.6 303.61 137.85 307.37 144.03 328.48 156.11 324.62 154.73 319.91 147.49 322.22"/>
      <path class="cls-5" d="m176.61,285.48c-4.07,4.12-2.84,11.01,1.09,15.27,3.93,4.26,10.48,5.78,14.56,1.67,4.08-4.11,2.84-11.01-1.09-15.27-3.94-4.26-10.49-5.78-14.56-1.67Zm12.42,13.45c-2.18,2.2-5.19.74-7.64-1.91-2.44-2.65-3.73-5.85-1.56-8.04,2.18-2.2,5.19-.74,7.64,1.91,2.44,2.65,3.74,5.84,1.56,8.04Z"/>
      <polygon class="cls-5" points="169.64 312.44 161.69 297.44 157.26 300.01 167.5 319.32 178.39 313.01 176.1 308.69 169.64 312.44"/>
      <path class="cls-5" d="m219.21,245.15l4.44-.41-.05-5.43-21.82,3.24-.9,4.39,18.67,12.24,2.16-4.94-3.9-2.26,1.39-6.84Zm-5.71,4.34l-5.73-3.3,6.52-.58-.79,3.89Z"/>
      <polygon class="cls-5" points="194.49 262.92 204.96 268.98 190.97 269.55 188.52 274.18 206.99 284.89 209.45 280.25 198.98 274.19 212.96 273.62 215.42 268.99 196.95 258.28 194.49 262.92"/>
      <path class="cls-5" d="m32.3,204.16l-6.79-1.64.17-.79,8.83-4.29-1.16-5.07-7.86,4.18c-.7-2.58-2.56-4.43-4.83-4.98-4.11-.99-7.81,2.5-8.76,6.8l-1.32,5.99,20.58,4.97,1.14-5.17Zm-11.21-3.57l-.18.82-4.6-1.11.19-.83c.53-2.4,1.54-3.03,3.01-2.67,1.47.36,1.93,2.24,1.58,3.78Z"/>
      <path class="cls-4" d="m144.59,151.84l-98.53,102.96c2.14,5.04,4.8,9.8,7.91,14.23l105.19-109.92c-4.55-2.91-9.43-5.35-14.57-7.27Z"/>
      <path class="cls-4" d="m40.27,217.15l66.47-69.45c-35.36,4.9-63.09,33.63-66.47,69.45Z"/>
      <path class="cls-4" d="m180.98,180l-105.19,109.92c4.55,2.91,9.43,5.35,14.56,7.26l98.53-102.96c-2.14-5.04-4.8-9.8-7.9-14.22Z"/>
      <path class="cls-4" d="m194.67,231.86l-66.47,69.45c35.36-4.9,63.1-33.63,66.47-69.45Z"/>
      <path class="cls-3" d="m159.16,159.11l-105.19,109.92c5.83,8.31,13.25,15.42,21.83,20.89l105.19-109.92c-5.83-8.31-13.25-15.42-21.82-20.89Z"/>
      <path class="cls-3" d="m195.02,224.51c0-10.75-2.19-20.98-6.14-30.29l-98.53,102.96c8.44,3.15,17.58,4.88,27.12,4.88,3.64,0,7.23-.26,10.73-.74l66.47-69.45c.23-2.42.35-4.87.35-7.35Z"/>
      <path class="cls-3" d="m117.47,146.96c-3.64,0-7.23.26-10.74.74l-66.47,69.45c-.23,2.42-.35,4.88-.35,7.36,0,10.75,2.19,20.98,6.14,30.29l98.53-102.96c-8.44-3.15-17.58-4.88-27.12-4.88Z"/>
    </g>
  </g>
</svg>