<?xml version="1.0" encoding="UTF-8"?>
<svg id="Layer_2" data-name="Layer 2" xmlns="http://www.w3.org/2000/svg" viewBox="0 0 250.22 205.42">
  <defs>
    <style>
      .cls-1 {
        fill: #de9500;
      }

      .cls-1, .cls-2, .cls-3, .cls-4 {
        stroke-width: 0px;
      }

      .cls-2 {
        fill: #d7013e;
      }

      .cls-3 {
        fill: #fff;
      }

      .cls-4 {
        fill: #00954c;
      }
    </style>
  </defs>
  <g id="Layer_1-2" data-name="Layer 1">
    <g>
      <path class="cls-1" d="m157.54,81.21c-8.4-8.15-19.84-13.17-32.44-13.17s-24.04,5.02-32.44,13.17H0l125.11,124.21,125.11-124.21h-92.67Z"/>
      <path class="cls-3" d="m125.11,72.39c23.31,0,42.28,18.96,42.28,42.27s-18.97,42.27-42.28,42.27-42.27-18.96-42.27-42.27,18.96-42.27,42.27-42.27"/>
      <path class="cls-4" d="m105.58,106.46h3.49v-5.3h-3.49v-6.38h10.24v17.46h-10.24v-5.78m0,23h3.49v-5.3h-3.49v-5.66h10.24v16.99h-10.24v-6.03Zm28.67,6.03h-12.41v-16.99h2.41v1.81h3.49v-1.81h4.94c1.37,0,1.56,2.44,1.56,2.44v14.56h0Zm0-26.82l-.02.8s-.31,2.73-2.08,2.77h-4.4v-2.29h-3.49v2.29h-2.41v-17.46h12.41v13.9h0Zm15.26,21.28c-.31.91-1.94,5.5-3.69,5.5-.09,0-.14.03-.2.05h-5.95v-14.82h-.03c-.08-.98-.5-2.04-.56-2.17h6.17c.49.05,4.52,1.63,4.54,6.63h-3.96v4.82h3.69Zm.27-23.61h0s-2.17,5.89-4.07,5.89h-.13s-6.73,0-6.73,0c.1-.19.81-1.55.81-2.77v-14.69h5.75c.1.03,4.37,1.54,4.37,6.74h-3.97v4.82h3.97Zm9.29-4.82h-3.59s-.75-9.53-7.86-12.64h-7.66v-.19c0-7.68-5.63-9.26-9.73-9.26s-6.01,1.72-6.01,1.72v5.54s.1-1.95,5.4-1.95c5.91,0,4.75,4.14,4.75,4.14h0s-12.53,0-12.53,0v-3.38c0-5.73-2.9-7.23-6.29-7.23h-2.39v6.15h1.44c.96,0,1.16.72,1.21,1.21v3.25h-19.27v5.9h4.22v6.38h-4.22v5.3h4.22v5.78h-4.22v6.27h4.22v5.66h-4.22v5.3h4.22v6.03h-4.22v5.3h18.98v1.5c0,1.02-.91.9-.91.9h-1.92v6.15h3.84c1.58,0,5.18-1.64,5.18-5.67v-2.88h12.57c0,2.8-1.47,4.14-5.32,4.14s-4.93-1.86-4.93-1.86v5.59c1.14,1.27,5.85,1.64,5.85,1.64,9.56,0,9.85-8,9.81-9.5h8.53s6.05-2.55,6.85-10.85h4v-4.82h-3.74c0-.35-.19-8.07-4.27-10.28,0,0,3.92-2.21,3.95-8.5h-.03s4.08,0,4.08,0v-4.82Z"/>
      <polygon class="cls-4" points="28.18 103.06 45.8 120.56 45.8 85.56 28.18 85.56 28.18 103.06"/>
      <polygon class="cls-3" points="10.55 85.56 28.18 103.06 28.18 85.56 10.55 85.56"/>
      <path class="cls-4" d="m78.49,114.66c0-5.33.91-10.45,2.56-15.22v-13.88h-17.62v52.49l17.62,17.5v-25.64c-1.66-4.78-2.56-9.91-2.56-15.24h0Z"/>
      <polygon class="cls-3" points="45.8 85.56 45.8 120.56 63.43 138.05 63.43 85.56 45.8 85.56"/>
      <path class="cls-4" d="m98.67,153.04v20l17.62,17.5v-30.09c-6.44-1.24-12.41-3.8-17.62-7.4Z"/>
      <path class="cls-3" d="m81.05,129.91v25.64l17.62,17.5v-20c-8.09-5.59-14.34-13.68-17.62-23.14h0Z"/>
      <path class="cls-3" d="m88.72,85.56h-7.67v13.88c1.76-5.08,4.37-9.77,7.67-13.88Z"/>
      <path class="cls-4" d="m133.92,160.44v30.1l17.62-17.5v-20c-5.21,3.6-11.18,6.17-17.62,7.4Z"/>
      <path class="cls-3" d="m125.11,161.28c-3.01,0-5.96-.29-8.81-.84v30.09l8.81,8.75,8.81-8.75v-30.1c-2.86.55-5.8.84-8.82.84Z"/>
      <path class="cls-4" d="m169.17,85.56v13.88c1.65,4.77,2.56,9.89,2.56,15.22s-.9,10.46-2.56,15.24v25.64l17.62-17.5v-52.49h-17.62Z"/>
      <path class="cls-3" d="m151.55,153.04v20l17.62-17.5v-25.64c-3.28,9.46-9.53,17.54-17.62,23.14Z"/>
      <path class="cls-3" d="m161.5,85.56c3.3,4.12,5.91,8.8,7.67,13.88v-13.88h-7.67Z"/>
      <polygon class="cls-4" points="222.04 103.06 222.04 85.56 204.42 85.56 204.42 120.55 222.04 103.06"/>
      <polygon class="cls-3" points="186.79 85.56 186.79 138.05 204.42 120.55 204.42 85.56 186.79 85.56"/>
      <polygon class="cls-3" points="239.67 85.56 222.04 85.56 222.04 103.06 239.67 85.56"/>
      <g>
        <path class="cls-2" d="m119.54,45.46c0-2.01,1.08-3.76,2.7-4.72v-12.36c-9.97.43-19.01,3.15-25.94,7.39.7,2.82,2.47,5.52,5.17,7.87.68-.3,1.43-.47,2.22-.47,3.04,0,5.5,2.46,5.5,5.5,0,2.18-1.27,4.05-3.1,4.94l.03.07c.52,1.04,1.41,1.82,2.51,2.19,1.1.37,2.28.29,3.32-.23,1.04-.52,1.82-1.41,2.19-2.51.06-.16.1-.32.13-.49-.86-.38-1.31-1.35-1-2.26.32-.97,1.37-1.48,2.34-1.16.96.32,1.48,1.37,1.16,2.34-.12.35-.33.64-.61.85.51.97,1.37,1.73,2.44,2.09,1.1.37,2.28.29,3.32-.23,1.04-.52,1.82-1.41,2.19-2.51.1-.28.15-.57.19-.86-2.67-.38-4.73-2.66-4.73-5.44"/>
        <path class="cls-2" d="m103.69,54.16c-3.04,0-5.5-2.46-5.5-5.5,0-.09,0-.19.02-.28-3.19-2.65-5.5-5.74-6.79-9.07-4.69,4.03-7.8,8.93-8.69,14.28.49-.14,1-.22,1.54-.22,3.04,0,5.5,2.46,5.5,5.5,0,1.42-.54,2.72-1.43,3.69.78.75,1.84,1.21,3.01,1.21,2.4,0,4.35-1.95,4.35-4.35,0-.17-.01-.34-.04-.5-.93-.09-1.67-.87-1.67-1.83,0-1.02.82-1.84,1.84-1.84s1.84.82,1.84,1.84c0,.37-.11.72-.3,1,.79.75,1.85,1.2,2.98,1.2,2.4,0,4.35-1.95,4.35-4.35,0-.3-.04-.59-.1-.88-.29.05-.59.08-.9.08"/>
        <path class="cls-2" d="m130.68,45.46c0-2.01-1.08-3.76-2.7-4.72v-12.36c9.97.43,19.01,3.15,25.94,7.39-.7,2.82-2.47,5.52-5.17,7.87-.68-.3-1.43-.47-2.22-.47-3.04,0-5.5,2.46-5.5,5.5,0,2.18,1.27,4.05,3.1,4.94l-.03.07c-.52,1.04-1.41,1.82-2.51,2.19-1.1.37-2.28.29-3.32-.23-1.04-.52-1.82-1.41-2.19-2.51-.06-.16-.1-.32-.13-.49.86-.38,1.31-1.35,1-2.26-.32-.97-1.37-1.48-2.34-1.16-.96.32-1.48,1.37-1.16,2.34.12.35.33.64.61.85-.51.97-1.37,1.73-2.44,2.09-1.1.37-2.28.29-3.32-.23-1.04-.52-1.82-1.41-2.19-2.51-.1-.28-.15-.57-.19-.86,2.67-.38,4.73-2.66,4.73-5.44"/>
        <path class="cls-2" d="m146.53,54.16c3.04,0,5.5-2.46,5.5-5.5,0-.09,0-.19-.02-.28,3.19-2.65,5.5-5.74,6.79-9.07,4.69,4.03,7.8,8.93,8.69,14.28-.49-.14-1-.22-1.54-.22-3.04,0-5.5,2.46-5.5,5.5,0,1.42.54,2.72,1.43,3.69-.78.75-1.84,1.21-3.01,1.21-2.4,0-4.35-1.95-4.35-4.35,0-.17.01-.34.04-.5.93-.09,1.67-.87,1.67-1.83,0-1.02-.82-1.84-1.84-1.84s-1.84.82-1.84,1.84c0,.37.11.72.3,1-.79.75-1.85,1.2-2.98,1.2-2.4,0-4.35-1.95-4.35-4.35,0-.3.04-.59.1-.88.29.05.59.08.9.08"/>
      </g>
      <path class="cls-1" d="m179.64,43.25c0-5.21-2.26-10.22-6.38-14.09-4.41-4.16-10.35-6.47-16.92-6.65-5.06-7.05-15.03-12.14-26.82-13.19-.01-2.01-1.35-3.71-3.18-4.26v-.84h2.2s0-2.52,0-2.52h-2.2s0-1.7,0-1.7h-1.23s-1.23,0-1.23,0v1.7s-2.2,0-2.2,0v2.51s2.19,0,2.19,0v.84c-1.83.56-3.16,2.25-3.18,4.26-11.79,1.05-21.75,6.14-26.82,13.19-6.57.18-12.51,2.49-16.92,6.65-4.12,3.87-6.38,8.87-6.38,14.09,0,5.67,2.96,11.05,8.26,15.25,0,.12-.02.25-.02.38,0,3.03,2.46,5.5,5.5,5.5.6,0,1.19-.1,1.73-.28.45.89,1.93,3.14,5.41,3.21-.22.15-.44.3-.65.46-.57.44-1.42,1.64-.49,3.1.43.67,1.07,1.02,1.84,1.02.27,0,.52-.05.73-.1l2.82,3.85.56-.41c8.42-6.17,18.39-9.44,28.84-9.44s20.42,3.27,28.84,9.44l.56.41,2.82-3.85c.21.06.46.1.73.1.77,0,1.4-.35,1.84-1.02.93-1.45.09-2.66-.49-3.1-.22-.16-.44-.31-.65-.46,3.48-.07,4.96-2.32,5.41-3.21.55.18,1.13.28,1.73.28,3.04,0,5.5-2.46,5.5-5.5,0-.13-.01-.25-.02-.38,5.3-4.2,8.26-9.58,8.26-15.25Zm-79.24,16.06c-1.13,0-2.18-.45-2.98-1.2.19-.29.3-.63.3-1,0-1.02-.83-1.84-1.85-1.84s-1.84.82-1.84,1.84c0,.96.73,1.74,1.67,1.83.02.17.03.33.03.5,0,2.4-1.95,4.35-4.35,4.35-1.17,0-2.22-.46-3-1.21.89-.98,1.43-2.27,1.43-3.69,0-3.04-2.46-5.5-5.5-5.5-.54,0-1.05.08-1.54.22-.23.07-.45.14-.67.24-3.76-3.07-5.86-6.79-5.86-10.59s1.63-7.17,4.59-9.95c2.7-2.54,6.18-4.18,10.1-4.81-.42,1.49-.65,3.02-.65,4.59,0,2.14.41,4.23,1.19,6.24,1.29,3.33,3.6,6.42,6.79,9.07,0,.09-.02.19-.02.28,0,3.04,2.46,5.5,5.5,5.5.31,0,.6-.03.9-.08.06.29.1.58.1.88,0,2.4-1.95,4.35-4.35,4.35Zm23.76-7.55c-.37,1.1-1.14,1.99-2.19,2.51-1.04.52-2.22.6-3.32.23-1.07-.36-1.93-1.12-2.44-2.09.27-.21.49-.5.6-.85.32-.97-.2-2.01-1.16-2.33-.97-.33-2.01.19-2.34,1.16-.3.91.15,1.88,1.01,2.26-.03.17-.08.33-.13.49-.37,1.1-1.15,1.99-2.19,2.51-1.04.52-2.22.6-3.32.23-1.1-.37-1.99-1.15-2.51-2.19l-.03-.07c1.83-.89,3.1-2.77,3.1-4.94,0-3.04-2.46-5.5-5.5-5.5-.79,0-1.54.17-2.22.48-2.69-2.34-4.47-5.05-5.17-7.87-.22-.89-.33-1.79-.33-2.7,0-9.27,11.76-17.19,26.27-18.13v25.79c-1.61.96-2.69,2.71-2.69,4.72,0,2.78,2.06,5.06,4.73,5.44-.04.29-.09.58-.19.86Zm19.87,1.92c-.52,1.04-1.41,1.82-2.51,2.19-1.1.37-2.28.29-3.32-.23-1.04-.52-1.82-1.41-2.19-2.51-.05-.16-.1-.32-.13-.49.86-.38,1.31-1.35,1.01-2.26-.33-.97-1.37-1.48-2.34-1.16-.96.32-1.48,1.37-1.16,2.33.12.35.33.64.6.85-.51.97-1.37,1.73-2.44,2.09-1.1.37-2.28.29-3.32-.23-1.04-.52-1.81-1.41-2.19-2.51-.1-.28-.15-.57-.19-.86,2.67-.38,4.73-2.66,4.73-5.44,0-2.01-1.08-3.76-2.69-4.72V14.95c14.51.94,26.27,8.86,26.27,18.13,0,.91-.11,1.81-.33,2.7-.7,2.82-2.47,5.52-5.17,7.87-.68-.3-1.43-.48-2.22-.48-3.04,0-5.5,2.46-5.5,5.5,0,2.18,1.27,4.05,3.1,4.94l-.03.07Zm24.07.16c-.22-.1-.44-.17-.67-.24-.49-.14-1-.22-1.54-.22-3.04,0-5.5,2.46-5.5,5.5,0,1.42.54,2.72,1.43,3.69-.78.75-1.84,1.21-3,1.21-2.4,0-4.35-1.95-4.35-4.35,0-.17.01-.34.03-.5.94-.09,1.67-.87,1.67-1.83,0-1.02-.83-1.84-1.84-1.84s-1.85.82-1.85,1.84c0,.37.11.72.3,1-.79.75-1.85,1.2-2.98,1.2-2.4,0-4.35-1.95-4.35-4.35,0-.3.04-.59.1-.88.29.05.59.08.9.08,3.04,0,5.5-2.46,5.5-5.5,0-.09,0-.19-.02-.28,3.19-2.65,5.5-5.74,6.79-9.07.78-2.01,1.19-4.11,1.19-6.24,0-1.57-.23-3.11-.65-4.59,3.92.64,7.4,2.27,10.1,4.81,2.96,2.78,4.59,6.32,4.59,9.95,0,3.8-2.09,7.52-5.86,10.59Z"/>
    </g>
  </g>
</svg>