<?xml version="1.0" encoding="UTF-8"?>
<svg id="Layer_2" data-name="Layer 2" xmlns="http://www.w3.org/2000/svg" viewBox="0 0 138.69 187.09">
  <defs>
    <style>
      .cls-1, .cls-2 {
        stroke: #231f20;
        stroke-miterlimit: 2.61;
        stroke-width: 2.05px;
      }

      .cls-1, .cls-3, .cls-4, .cls-5, .cls-6, .cls-7, .cls-8, .cls-9 {
        fill-rule: evenodd;
      }

      .cls-1, .cls-5 {
        fill: #231f20;
      }

      .cls-2 {
        fill: none;
      }

      .cls-3 {
        fill: #0062a8;
      }

      .cls-3, .cls-4, .cls-5, .cls-6, .cls-7, .cls-8, .cls-9 {
        stroke-width: 0px;
      }

      .cls-4 {
        fill: #179867;
      }

      .cls-6 {
        fill: #e19633;
      }

      .cls-7 {
        fill: #fff;
      }

      .cls-8 {
        fill: #ebcd46;
      }

      .cls-9 {
        fill: #ee3124;
      }
    </style>
  </defs>
  <g id="Layer_1-2" data-name="Layer 1">
    <g>
      <path class="cls-7" d="m74.57,6.47c-.76-.09-1.57-.18-2.42-.27-.91-.1-1.88-.21-2.91-.33.21.12.41.23.6.33.17.1.33.18.48.27.81.08,1.59.16,2.32.23.7.07,1.36.13,1.99.2,0-.06-.02-.12-.03-.19-.01-.07-.02-.15-.04-.23h0Z"/>
      <path class="cls-7" d="m62.63,6.47c.76-.09,1.57-.18,2.42-.27.91-.1,1.88-.21,2.91-.33-.21.12-.41.23-.6.33-.17.1-.33.18-.48.27-.81.08-1.59.16-2.32.23-.7.07-1.36.13-1.99.2,0-.06.02-.12.03-.19.01-.07.02-.15.04-.23h0Z"/>
      <path class="cls-8" d="m68.6,39.8c8.02,0,15.66,1.65,22.6,4.63.36.41.31,1.49-.15,2.61-.47,1.12-1.2,1.92-1.74,1.95-6.36-2.74-13.36-4.25-20.71-4.25s-14.34,1.52-20.71,4.25c-.54-.03-1.28-.83-1.74-1.95-.46-1.12-.51-2.2-.15-2.61,6.95-2.98,14.59-4.63,22.6-4.63h0Z"/>
      <path class="cls-9" d="m47.6,17.65c1.76-.25,3.5.05,5.1.79-.42,1.4-.64,2.87-.64,4.39s.21,2.86.59,4.2l2.15,11.43c-3.42.8-6.72,1.89-9.89,3.25-3.03-1.93-5.35-5.5-5.96-9.81-1-7.03,2.89-13.43,8.65-14.25h0Z"/>
      <path class="cls-9" d="m68.6,6.91c9.11,0,16.54,7.15,16.54,15.91,0,1.45-.21,2.86-.59,4.2l-2.15,11.43c-4.44-1.04-9.06-1.59-13.8-1.59s-9.37.55-13.8,1.59l-2.15-11.43c-.38-1.34-.59-2.75-.59-4.2,0-8.77,7.43-15.91,16.54-15.91h0Z"/>
      <path class="cls-9" d="m89.6,17.65c-1.76-.25-3.5.05-5.1.79.42,1.4.64,2.87.64,4.39s-.21,2.86-.59,4.2l-2.15,11.43c3.42.8,6.72,1.89,9.89,3.25,3.03-1.93,5.35-5.5,5.96-9.81,1-7.03-2.89-13.43-8.65-14.25h0Z"/>
      <path class="cls-8" d="m46.65,40.99v-.17c1.33-.43,2.62-1.24,3.72-2.3,1.29-1.23,2.5-2.95,3.17-4.96.05-.02.09-.04.14-.07.29.4.62.77.99,1.12,1.06.98,2.38,1.63,3.81,1.92,1.78.35,3.95.2,5.91-.86,1.64-.89,2.83-2.25,3.48-3.88.23.07.47.11.73.11s.5-.04.73-.11c.66,1.62,1.84,2.99,3.48,3.88,1.96,1.06,4.12,1.21,5.91.86,1.43-.28,2.76-.93,3.81-1.92.37-.34.7-.72.99-1.12.16.08.33.15.51.2-.13-.03-.25-.08-.36-.13.67,2.01,1.89,3.73,3.17,4.96,1.09,1.05,2.35,1.84,3.67,2.28v.17c-6.8-2.65-14.18-4.11-21.9-4.11s-15.14,1.47-21.95,4.13h0Z"/>
      <path class="cls-8" d="m73.49,32.71c-.38-.43-.8-.79-1.26-1.08-.56-.35-1.14-.57-1.73-.68.18-.24.32-.51.4-.82.17-.63.06-1.28-.24-1.81.33-.09.65-.23.95-.41.71-.42,1.28-1.05,1.66-1.83,1.04,1.2,1.47,3.06.97,4.92-.17.62-.42,1.2-.75,1.7h0Z"/>
      <path class="cls-8" d="m63.72,26.34c.38.43.8.79,1.26,1.08.56.35,1.14.57,1.73.68-.18.24-.32.51-.4.82-.17.63-.06,1.28.24,1.81-.33.09-.65.23-.95.41-.71.41-1.28,1.05-1.66,1.83-1.05-1.2-1.47-3.06-.97-4.92.17-.62.42-1.2.75-1.7h0Z"/>
      <path class="cls-7" d="m68.6,27.15c1.31,0,2.37,1.07,2.37,2.37s-1.07,2.37-2.37,2.37-2.37-1.07-2.37-2.37,1.07-2.37,2.37-2.37h0Z"/>
      <path class="cls-8" d="m130.41,182.85L11.79,21.94c-.5,1.02-1.3,2.03-2.3,2.86-.77.64-1.58,1.1-2.35,1.39l117.95,160c.6.55,1.42.89,2.33.89,1.81,0,3.29-1.35,3.29-3,0-.44-.11-.86-.29-1.24h0Z"/>
      <path class="cls-5" d="m68.6,48.11c27.36,0,49.68,22.3,49.68,49.64,0,7.16-1.53,13.97-4.28,20.13-6.14-6.16-10.24-13.43-11.83-20.66-1.78,0-3.57.06-5.36.19-12.39.88-23.14,4.51-31.67,9.86v.02c-2.93,1.81-5.66,3.68-8.18,5.61h0c-4.61,3.24-9.82,6.31-15.54,9.13h0c-2.05.91-4.45,1.5-7.03,1.65-3.38.19-6.53-.41-9.05-1.56-4.08-7.2-6.42-15.52-6.42-24.36,0-27.34,22.32-49.64,49.68-49.64h0Z"/>
      <path class="cls-6" d="m58.16,72.39c.21,1.82.51,3.68.89,5.56,1.87,9.23,5.45,17.16,9.64,22.33.3.41.55.9.73,1.46.39,1.21.33,2.39-.09,3.15-1.47.76-2.88,1.57-4.23,2.42v.02c-2.91,1.8-5.63,3.66-8.13,5.58h0c-2.13,1.49-4.39,2.95-6.76,4.37-.5.22-1.14.35-1.83.35-.99,0-1.87-.27-2.4-.69-.2-.22-.4-.45-.59-.68-6.17-7.27-10.27-17.49-10.83-28.9-.1-2-.08-3.98.04-5.92,3.84-6.7,9.98-12.13,17.45-15.39,2.07-.67,4.64,1.4,5.72,4.63.2.58.33,1.16.41,1.72h0Zm-10.45,46.33s-.02.01-.03.02c0,0-.01-.01-.02-.02h.05Z"/>
      <path class="cls-6" d="m112.62,116.44c-.14-.15-.27-.3-.41-.45-.03-.04-.06-.07-.09-.11-.02-.03-.05-.05-.07-.08,0,0,0-.01-.01-.02,0,0-.01-.01-.02-.02-.02-.02-.04-.05-.07-.07-.03-.03-.05-.06-.08-.09-.1-.11-.19-.22-.28-.33-.02-.02-.04-.04-.06-.07-.09-.1-.18-.21-.26-.31-3.21-3.79-5.7-7.89-7.37-12.09,6.74-4.62,11.01-10.77,11.41-17.54l.12.42.54,2.33.43,2.37.31,2.41.19,2.45c.03,1.26.07,2.52.05,3.78-.05,1.51-.16,2.99-.33,4.49-.24,1.89-.58,3.74-1.01,5.59-.15.61-.31,1.21-.48,1.81-.44,1.49-.93,2.95-1.49,4.39h0s-.05.13-.05.13c0,.01-.01.03-.02.04h0s-.54,1.36-.54,1.36c-.13-.14-.27-.29-.4-.43h0Z"/>
      <path class="cls-6" d="m42.47,121.5c-.35.18-.7.35-1.05.52h0c-2.05.91-4.45,1.5-7.03,1.65-.65.04-1.29.04-1.92.02-.4-.04-.81-.11-1.23-.19-2.45-.5-4.44-1.6-5.18-2.76h.02c-1.33-2.44-2.42-4.98-3.33-7.61-.4-1.22-.76-2.44-1.08-3.69-.43-1.78-.77-3.54-1.02-5.35-.2-1.58-.33-3.15-.39-4.74l.04-4.09.06-.76c1.69-6.39,5.85-11.21,10.92-12.35.85.19,1.57,2.38,1.92,5.48,0,.07,0,.14,0,.21.53,10.83,4.25,20.58,9.9,27.76.35.64.57,1.55.57,2.56,0,1.53-.5,2.84-1.2,3.32h0Z"/>
      <path class="cls-3" d="m138.69,150.1c-1.83-.14-3.7-.21-5.61-.21-13.69,0-25.7,3.7-32.23,9.19h-.02c-.07.06-.14.13-.2.19-.29.25-.57.51-.84.76-8.88,7.91-22.59,14-38.83,17-.77.07-1.55.11-2.34.12-7.31.04-14.37-2.83-19.84-7.65-2.68-2.36-4.97-5.19-6.7-8.33h-.02L5.97,113.29c-.72-1.37-1.44-2.84-2.14-4.38-.52-1.16-1.01-2.3-1.45-3.42-1.46-4.22-2.38-10.46-2.38-17.42,0-5.15.51-9.91,1.36-13.74,1.48-5.76,2.34-12.62,2.34-19.96,0-3.98-.25-7.81-.72-11.4-.1-1.16-.16-2.38-.16-3.63,0-5.37.99-10.09,2.48-12.78.22,0,.45-.02.69-.05.64-.1,1.33-.33,2.02-.7.51,1.93.94,4.09,1.23,6.39.05.36.09.71.13,1.06.44,5.83,3.62,15.28,8.8,25.23,2.61,5.02,5.42,9.56,8.13,13.29-4.68,7.57-7.38,16.47-7.38,25.99,0,8.84,2.34,17.15,6.42,24.36,2.52,1.16,5.67,1.76,9.05,1.56,2.58-.15,4.98-.74,7.03-1.65h0c5.72-2.81,10.93-5.89,15.54-9.13h0c2.51-1.9,5.23-3.77,8.13-5.57v-.02c8.53-5.37,19.3-9.01,31.71-9.89,1.79-.13,3.58-.19,5.36-.19,1.66,7.53,6.03,15.11,12.6,21.42,8.06,8.28,15.64,17.96,22.32,28.82.54.88,1.07,1.76,1.59,2.64h0Z"/>
      <path class="cls-7" d="m22.4,125.22c3.36-1.84,9.65,1.82,15.94,8.44,5.38,5.65,10.14,12.78,13.19,19.58,2.46,5.54,3.42,10,3.25,13-.15,2.67-1.19,4.41-3.09,4.86-1.87.45-4.43-.38-7.25-2.18-3.08-1.96-6.8-5.29-10.59-9.89-4.61-5.54-8.65-12.11-11.16-18.29-3.02-7.43-3.65-13.67-.29-15.52h0Z"/>
      <path class="cls-3" d="m38.26,163.34c-.78-1.23-1.58-2.51-2.4-3.83-.86-1.37-1.74-2.78-2.66-4.25.12,0,.24,0,.36,0,1.87,2.66,3.36,4.48,4.56,5.67,1.19,1.18,2.14,1.78,2.86,1.9,1.47.24.98-1.62-.06-3.46-.63-1.13-1.31-2.06-2.07-2.77-.52-.48-1.38-1.19-2.42-1.9-.6-.44-1.2-.87-1.8-1.29-.86-.64-1.64-1.25-2.35-1.86-.7-.61-1.35-1.23-1.95-1.89-1.14-1.2-2.34-2.85-3.59-4.86-1.45-2.31-2.78-4.89-3.58-7.11-.85-2.39-1.09-4.39-.15-5.14.5-.39,1.36-.28,2.13-.09.79.19,1.46.48,1.53.43.34-.24,0-1.13-.71-2.68.17-.13.33-.26.5-.4,1.37,2.55,2.69,4.98,3.94,7.31,1.2,2.22,2.35,4.35,3.45,6.38-.16.05-.33.1-.49.15-1.76-2.69-3.67-5.19-5.34-6.92-1.69-1.76-3.07-2.66-3.75-2.19-.89.62,0,3.34,1.64,6.07,1.02,1.68,1.86,2.83,2.55,3.48.69.65,1.99,1.64,3.75,2.86.77.53,1.55,1.07,2.34,1.61.97.61,1.92,1.4,2.78,2.34,1.7,1.73,3.12,3.73,4.34,6.02,1.07,2,1.79,3.98,1.83,5.33.03,1.26-.53,1.98-1.96,1.71-.61-.11-1.41-.51-2.31-1.07-.13-.08-.25-.15-.37-.23-.19-.12-.37-.23-.46-.24-.29-.05-.15.3.21,1-.12-.02-.25-.05-.37-.07h0Z"/>
      <path class="cls-3" d="m35.66,131.88c.05-.03.1-.05.15-.08.81,1.33,1.64,2.67,2.48,4.04.86,1.4,1.73,2.81,2.61,4.26-.07.05-.15.11-.22.16-1.44-2.09-2.82-3.64-3.99-4.58-1.16-.94-2.13-1.29-2.72-.96-.92.51-.53,2.49.5,4.31.35.62.67,1.08,1.04,1.53.48.55,1.05,1.03,1.7,1.46.49.36,1.42.77,2.8,1.38.99.44,1.88.91,2.66,1.4.78.49,1.47,1.02,2.06,1.58,1.14,1.17,2.35,2.71,3.57,4.72,1.54,2.54,2.71,5.23,3.31,7.56.63,2.42.67,4.47-.12,5.52-.51.69-1.11.91-2.56.48-.42-.03-.67,0-.79.15-.24.3-.14,1.34.56,3.11-.08.11-.16.22-.24.33-1.32-2.4-2.62-4.75-3.87-7.03-1.23-2.23-2.43-4.41-3.59-6.52.09-.08.17-.16.26-.25,2.21,3.4,4.21,5.79,5.81,7.14,1.61,1.36,2.78,1.63,3.37.87.86-1.11-.01-4.25-1.5-6.76-.94-1.58-1.91-2.64-3.07-3.49-.64-.48-1.42-.81-2.54-1.28-1.6-.68-2.79-1.31-3.79-2.03-1.01-.72-1.82-1.52-2.69-2.52-.78-.95-1.65-2.2-2.38-3.53-1.24-2.26-2.03-4.47-2.28-6.2-.24-1.68.02-2.92.85-3.36.29-.15.64-.19,1.01-.1.63.09,1.96.83,2.19.7.23-.13.21-.42-.58-2h0Z"/>
      <path class="cls-8" d="m11.94,18c.61.87.59,2.09.1,3.36-.47,1.22-1.36,2.46-2.56,3.45-1.15.96-2.4,1.53-3.49,1.69-1.08.16-2.05-.06-2.66-.72-.62-.67-.78-1.7-.51-2.83.28-1.18,1.02-2.5,2.17-3.64,1.21-1.19,2.62-1.96,3.9-2.21,1.3-.25,2.44.04,3.05.91h0Z"/>
      <path class="cls-7" d="m106.15,107.54c1.02,1.83,2.19,3.63,3.52,5.37-1.31-.09-2.64-.15-3.98-.16-5.72-.05-11.15.64-16.17,1.93-5.07,1.31-9.77,3.24-14,5.68v.02c-2.9,1.65-5.64,3.4-8.22,5.22,0,0,0,0,0,0-4.73,3.09-10.12,6-16.03,8.62h0c-1.65.65-3.49,1.08-5.45,1.23-1.89-2.07-3.88-3.86-5.9-5.33.17,0,.35,0,.52,0,2.61.03,5.06-.44,7.19-1.29h0c5.91-2.62,11.3-5.52,16.03-8.61,0,0,0,0,0,0,2.58-1.82,5.32-3.57,8.22-5.22,0,0,0,0,0-.02,4.23-2.45,8.93-4.38,14-5.68,5.02-1.29,10.44-1.98,16.17-1.93,1.38,0,2.75.07,4.1.16h0Z"/>
      <path class="cls-7" d="m116.9,120.86c1.56,1.67,3.1,3.39,4.62,5.16-1.63-.15-3.28-.25-4.93-.28-5.96-.11-11.59.54-16.77,1.83-5.21,1.3-10,3.23-14.28,5.69v.02c-2.92,1.64-5.66,3.38-8.21,5.18,0,0,0,0,0,0-4.66,3.04-9.93,5.84-15.68,8.33h0c-.23.08-.47.17-.71.25l-6.37,2.38-.39-1.21-.12-.31c-.55-1.19-1.16-2.38-1.82-3.56l4.47-1.5c.42-.12.82-.26,1.22-.42h0c5.5-2.43,10.63-5.22,15.26-8.28,0,0,0,0,0,0,2.57-1.84,5.32-3.62,8.28-5.31,0,0,0,0,0-.02,4.36-2.56,9.25-4.6,14.59-5.99,5.39-1.41,11.26-2.15,17.51-2.08,1.11.01,2.22.05,3.33.12h0Zm4.81,5.39c.06.07.12.14.18.22h-.15c-.01-.07-.02-.14-.03-.22h0Z"/>
      <path class="cls-7" d="m129.37,135.95c1.06,1.45,2.11,2.93,3.13,4.43-1.59-.12-3.21-.18-4.84-.2-7.11-.08-13.76.78-19.44,2.33-5.64,1.54-10.35,3.76-13.64,6.44,0,0-.02,0-.02,0-.07.06-.14.12-.2.18-.31.24-.58.49-.85.74-4.46,3.82-10.04,7.14-16.47,9.8-5.76,2.39-12.2,4.25-19.08,5.49,0-.14,0-.28.01-.42.05-2.1-.15-4.32-.58-6.63,3.7-.88,7.29-1.98,10.72-3.27,6.6-2.48,12.62-5.69,17.72-9.5.32-.25.64-.5.98-.75.07-.06.15-.12.23-.19h.02c3.81-2.7,9.01-4.96,15.09-6.51,6.23-1.59,13.43-2.45,21.02-2.3,2.1.04,4.16.16,6.17.35h0Z"/>
      <path class="cls-7" d="m15.43,85.62c-1.41,3.74-2.24,8.3-2.24,13.21,0,9.88,3.35,18.33,8.01,21.52v.88c-7.75-2.91-13.58-14.57-13.58-28.45,0-1.07.04-2.13.1-3.17.02-.18.04-.37.07-.56.11-.8.27-1.56.46-2.24,2.63-7.42,4.26-17.83,4.26-29.32,0-1.96-.05-3.9-.14-5.79,2.56,4.38,4.39,10.63,4.85,17.64.4,6.13-.31,11.81-1.81,16.27h0Z"/>
      <path class="cls-6" d="m21.02,89.22l.21-1.18.54-2.33.65-2.29.76-2.24.87-2.19.97-2.14,1.07-2.08,1.17-2.02,1.26-1.96,1.35-1.9,1.44-1.83,1.52-1.75,1.6-1.68,1.68-1.6,1.76-1.52,1.83-1.44,1.9-1.35,1.96-1.26,2.03-1.17,2.08-1.07,2.14-.97,2.19-.87,2.24-.76,2.29-.65,2.34-.54,2.38-.43,2.41-.31,2.45-.19,2.48-.06,2.48.06,2.45.19,2.42.31,2.38.43c-.65.17-1.3.35-1.95.55-.91.31-1.79.64-2.67,1-.86.38-1.69.79-2.53,1.22-.81.45-1.59.93-2.37,1.43-.75.52-1.48,1.06-2.2,1.63-.69.58-1.35,1.18-2.01,1.81-.63.64-1.22,1.29-1.8,1.98-.55.7-1.07,1.4-1.58,2.13l-1.34,2.28c-.4.81-.76,1.62-1.1,2.46-.11.43-.2.86-.28,1.3-.03.21-.06.42-.08.63-.18-.37-.39-.72-.62-1.08l-.38-.54c-.74-.92-1.52-1.63-2.58-2.16l-.55-.22c-.71-.22-1.32-.29-2.06-.2l-.64.15c-.74.33-1.48.68-2.21,1.04-1.16.6-2.28,1.24-3.39,1.93-1.3.84-2.54,1.73-3.75,2.7-.79.65-1.54,1.32-2.29,2.02-.91.89-1.77,1.8-2.61,2.75-.98,1.17-1.87,2.35-2.72,3.61-.36.56-.7,1.12-1.04,1.68h0c-.25.31-.68.52-1.17.52-.18,0-.36-.03-.52-.08v.02l-.56-.19c-.65.16-1.26.33-1.89.55-.69.27-1.33.57-1.98.93-.64.39-1.24.8-1.83,1.25-.74.62-1.4,1.26-2.05,1.97-.38.45-.74.9-1.09,1.37-.46.66-.88,1.33-1.29,2.03-.06.11-.11.21-.17.32h0Z"/>
      <path class="cls-6" d="m103.43,101.59c-.52-1.45-.94-2.91-1.26-4.37-1.78,0-3.57.06-5.36.19-7.4.53-14.22,2.03-20.32,4.3-.6.2-1.25.31-1.92.31-1.91,0-3.61-.89-4.62-2.25l-.2-.29c-.66-.83-1.28-1.68-1.87-2.56-.88-1.35-1.67-2.72-2.41-4.16-.9-1.81-1.7-3.64-2.42-5.53-.56-1.53-1.06-3.05-1.51-4.61-.83-2.99-1.47-5.99-1.9-9.05-.05-.59-.07-1.23-.07-1.9,0-1.78.18-3.37.46-4.35,3.17-8.27,11.3-14.57,21.28-16.18l1.65.47,2.24.76,2.19.87,2.14.97,2.08,1.07,2.03,1.17,1.96,1.26,1.9,1.35,1.83,1.44,1.76,1.52,1.68,1.6,1.6,1.68,1.52,1.75,1.44,1.83,1.35,1.9,1.26,1.96,1.17,2.02,1.07,2.08.97,2.14.2.5c.34,1.39.52,2.81.52,4.26,0,6.83-3.94,13.08-10.43,17.86h0Z"/>
      <path class="cls-5" d="m78.31,79.38c.7-.58,1.41-1.16,2.13-1.73-.9-1.07-1.83-2.1-2.8-3.09-.28-.38-.47-.96-.47-1.61,0-.33.05-.65.13-.93,2-5.77,8.75-11.48,17.81-14.61l.48.31,1.5,1.07c-8.11,2.73-14.41,7.53-17.2,12.61-.1.22-.16.52-.16.84,0,.42.11.8.26,1.02.86.91,1.68,1.84,2.48,2.8,1.2-.9,2.42-1.78,3.68-2.65-.93-.94-1.89-1.84-2.89-2.7-.06-.07-.09-.14-.07-.19.04-.1.24-.11.51-.06.23.04.5.14.71.25.17.08.29.16.38.23.71.64,1.4,1.3,2.08,1.98,1.27-.86,2.58-1.71,3.9-2.53-.96-.98-1.97-1.91-3-2.81-.07-.08-.1-.15-.07-.2.04-.11.26-.12.53-.06.24.05.52.15.75.26.18.09.31.17.4.24.75.67,1.47,1.36,2.18,2.08,1.17-.71,2.36-1.41,3.56-2.09-1.1-1.13-2.25-2.21-3.44-3.23-.07-.08-.1-.15-.08-.21.04-.11.27-.12.56-.07.25.05.55.16.79.28.19.09.32.18.43.26.89.8,1.76,1.64,2.6,2.5,1.06-.58,2.13-1.16,3.22-1.72-1.14-1.17-2.34-2.29-3.57-3.36-.07-.08-.11-.16-.08-.22.05-.12.28-.13.59-.07.26.05.58.17.83.29.2.1.34.19.45.27.94.84,1.84,1.71,2.72,2.61.91-.46,1.83-.91,2.76-1.35l1.44,1.51.72.83c-.93.44-1.85.9-2.75,1.36,1.2,1.37,2.33,2.8,3.39,4.29.03.05.06.11.09.17.15.3.26.67.31,1.02.05.31.04.54-.01.68-.05.12-.12.17-.22.13-.03-.02-.07-.04-.11-.08-1.35-2-2.81-3.92-4.39-5.72-1.09.57-2.16,1.14-3.21,1.73,1.09,1.26,2.12,2.56,3.09,3.92.03.05.06.1.09.16.14.28.25.63.3.97.04.29.03.52-.01.64-.04.12-.12.16-.21.12-.03-.01-.07-.04-.1-.07-1.23-1.84-2.57-3.59-4.01-5.25-1.2.68-2.37,1.38-3.53,2.09,1.09,1.24,2.11,2.54,3.08,3.89.03.05.06.1.08.16.13.27.24.6.28.92.04.28.03.49-.01.61-.04.11-.11.15-.2.11-.03-.01-.06-.04-.1-.07-1.21-1.8-2.52-3.51-3.93-5.13-1.32.83-2.62,1.68-3.89,2.55.98,1.14,1.91,2.32,2.79,3.54.03.05.05.09.08.15.12.26.22.57.27.87.04.26.03.46-.01.58-.04.11-.1.15-.19.11-.03-.01-.06-.04-.09-.06-1.1-1.64-2.29-3.2-3.57-4.68-1.32.92-2.61,1.87-3.87,2.83.45.62.9,1.24,1.33,1.88.2.36.38.83.5,1.37.18.77.2,1.51.08,2.04-.12.55-.38.83-.74.69-.17-.07-.33-.22-.49-.43-.85-1.36-1.75-2.68-2.7-3.96-.73.59-1.44,1.18-2.15,1.78-.24.14-.52.22-.82.22-.92,0-1.67-.77-1.67-1.71,0-.45.17-.85.44-1.16h0Z"/>
      <path class="cls-7" d="m41.33,12.22c1.23,0,2.23,1,2.23,2.23s-1,2.23-2.23,2.23-2.23-1-2.23-2.23,1-2.23,2.23-2.23h0Z"/>
      <path class="cls-7" d="m95.87,16.69c-1.23,0-2.23-1-2.23-2.23s1-2.23,2.23-2.23,2.23,1,2.23,2.23-1,2.23-2.23,2.23h0Z"/>
      <path class="cls-7" d="m50.82,17.59c1.23,0,2.23,1,2.23,2.23s-1,2.23-2.23,2.23-2.23-1-2.23-2.23,1-2.23,2.23-2.23h0Z"/>
      <path class="cls-7" d="m86.38,22.05c-1.23,0-2.23-1-2.23-2.23s1-2.23,2.23-2.23,2.23,1,2.23,2.23-1,2.23-2.23,2.23h0Z"/>
      <path class="cls-7" d="m51.21,21.95c.98,0,1.79.8,1.79,1.79s-.8,1.79-1.79,1.79-1.79-.8-1.79-1.79.8-1.79,1.79-1.79h0Z"/>
      <path class="cls-7" d="m85.99,25.52c-.98,0-1.79-.8-1.79-1.79s.8-1.79,1.79-1.79,1.79.8,1.79,1.79-.8,1.79-1.79,1.79h0Z"/>
      <path class="cls-7" d="m46.15,10.11c1.46,0,2.65,1.19,2.65,2.65s-1.19,2.65-2.65,2.65-2.65-1.19-2.65-2.65,1.19-2.65,2.65-2.65h0Z"/>
      <path class="cls-7" d="m91.06,15.4c-1.46,0-2.65-1.19-2.65-2.65s1.19-2.65,2.65-2.65,2.65,1.19,2.65,2.65-1.19,2.65-2.65,2.65h0Z"/>
      <path class="cls-7" d="m51.4,9.97c1.46,0,2.65,1.19,2.65,2.65s-1.19,2.65-2.65,2.65-2.65-1.19-2.65-2.65,1.19-2.65,2.65-2.65h0Z"/>
      <path class="cls-7" d="m51.52,13.27c1.23,0,2.23,1,2.23,2.23s-1,2.23-2.23,2.23-2.23-1-2.23-2.23,1-2.23,2.23-2.23h0Z"/>
      <path class="cls-7" d="m85.81,15.26c-1.46,0-2.65-1.19-2.65-2.65s1.19-2.65,2.65-2.65,2.65,1.19,2.65,2.65-1.19,2.65-2.65,2.65h0Z"/>
      <path class="cls-7" d="m85.68,17.73c-1.23,0-2.23-1-2.23-2.23s1-2.23,2.23-2.23,2.23,1,2.23,2.23-1,2.23-2.23,2.23h0Z"/>
      <path class="cls-7" d="m55.29,6.22c1.46,0,2.65,1.19,2.65,2.65s-1.19,2.65-2.65,2.65-2.65-1.19-2.65-2.65,1.19-2.65,2.65-2.65h0Z"/>
      <path class="cls-7" d="m81.92,11.51c-1.46,0-2.65-1.19-2.65-2.65s1.19-2.65,2.65-2.65,2.65,1.19,2.65,2.65-1.19,2.65-2.65,2.65h0Z"/>
      <path class="cls-7" d="m59.92,3.32c1.46,0,2.65,1.19,2.65,2.65s-1.19,2.65-2.65,2.65-2.65-1.19-2.65-2.65,1.19-2.65,2.65-2.65h0Z"/>
      <path class="cls-7" d="m77.29,8.61c-1.46,0-2.65-1.19-2.65-2.65s1.19-2.65,2.65-2.65,2.65,1.19,2.65,2.65-1.19,2.65-2.65,2.65h0Z"/>
      <path class="cls-7" d="m37.96,15.63c1.23,0,2.23,1,2.23,2.23s-1,2.23-2.23,2.23-2.23-1-2.23-2.23,1-2.23,2.23-2.23h0Z"/>
      <path class="cls-7" d="m99.24,20.1c-1.23,0-2.23-1-2.23-2.23s1-2.23,2.23-2.23,2.23,1,2.23,2.23-1,2.23-2.23,2.23h0Z"/>
      <path class="cls-7" d="m36.12,19.96c1.23,0,2.23,1,2.23,2.23s-1,2.23-2.23,2.23-2.23-1-2.23-2.23,1-2.23,2.23-2.23h0Z"/>
      <path class="cls-7" d="m101.09,24.43c-1.23,0-2.23-1-2.23-2.23s1-2.23,2.23-2.23,2.23,1,2.23,2.23-1,2.23-2.23,2.23h0Z"/>
      <path class="cls-7" d="m34.6,24.43c1.49,0,2.7,1.21,2.7,2.7s-1.21,2.7-2.7,2.7-2.7-1.21-2.7-2.7,1.21-2.7,2.7-2.7h0Z"/>
      <path class="cls-7" d="m102.61,29.83c-1.49,0-2.7-1.21-2.7-2.7s1.21-2.7,2.7-2.7,2.7,1.21,2.7,2.7-1.21,2.7-2.7,2.7h0Z"/>
      <path class="cls-7" d="m52.58,29.02c1.31,0,2.37,1.07,2.37,2.37s-1.07,2.37-2.37,2.37-2.37-1.07-2.37-2.37,1.07-2.37,2.37-2.37h0Z"/>
      <path class="cls-7" d="m84.62,33.76c-1.31,0-2.37-1.07-2.37-2.37s1.07-2.37,2.37-2.37,2.37,1.07,2.37,2.37-1.07,2.37-2.37,2.37h0Z"/>
      <path class="cls-7" d="m38.23,32.82c1.28,0,2.32,1.04,2.32,2.32s-1.04,2.32-2.32,2.32-2.32-1.04-2.32-2.32,1.04-2.32,2.32-2.32h0Z"/>
      <path class="cls-7" d="m98.97,37.45c-1.27,0-2.32-1.04-2.32-2.32s1.04-2.32,2.32-2.32,2.32,1.04,2.32,2.32-1.04,2.32-2.32,2.32h0Z"/>
      <path class="cls-8" d="m89.52,49.08c.64.66.9,1.54.59,2.3-.21.52-.65.88-1.2,1.07-6.2-2.79-13.08-4.35-20.3-4.35s-14.1,1.56-20.3,4.35c-.55-.19-.99-.56-1.2-1.07-.31-.76-.05-1.64.59-2.3,6.42-2.79,13.49-4.35,20.92-4.35s14.5,1.55,20.92,4.35h0Z"/>
      <path class="cls-8" d="m68.6,36.86c8.48,0,16.56,1.76,23.9,4.93.44.25.74.75.74,1.32,0,.82-.62,1.49-1.37,1.49-.18,0-.35-.04-.51-.11h0c-6.99-3.02-14.68-4.7-22.76-4.7s-15.77,1.68-22.76,4.7h0c-.16.07-.33.11-.51.11-.76,0-1.37-.67-1.37-1.49,0-.57.3-1.07.74-1.32,7.34-3.17,15.42-4.93,23.9-4.93h0Z"/>
      <path class="cls-8" d="m38.32,32.72s.05.07.08.1c-.05,0-.11,0-.16,0-.74,0-1.4.35-1.82.89-.92-1.34-2.51-2.49-4.49-3.09.24-.35,1.05-.61,2.01-.61.56,0,1.07.09,1.44.23,1.06.55,2.09,1.39,2.95,2.48h0Z"/>
      <path class="cls-8" d="m98.89,32.72s-.05.07-.08.1c.05,0,.11,0,.16,0,.74,0,1.4.35,1.82.89.92-1.34,2.51-2.49,4.49-3.09-.24-.35-1.05-.61-2.01-.61-.56,0-1.07.09-1.44.23-1.06.55-2.09,1.39-2.95,2.48h0Z"/>
      <path class="cls-8" d="m67.88,31.78c-.66,1.62-1.84,2.99-3.48,3.88-1.96,1.06-4.12,1.21-5.91.86-1.43-.28-2.76-.93-3.81-1.92-.37-.34-.7-.72-.99-1.12.54-.28.95-.77,1.14-1.35.18.19.37.37.58.54.88.72,1.99,1.2,3.19,1.41,1.49.26,3.31.15,4.95-.63,1.38-.66,2.37-1.66,2.93-2.86.29.56.79.99,1.39,1.19h0Z"/>
      <path class="cls-8" d="m69.33,31.78c.66,1.62,1.84,2.99,3.48,3.88,1.96,1.06,4.12,1.21,5.91.86,1.43-.28,2.76-.93,3.81-1.92.37-.34.7-.72.99-1.12-.54-.28-.95-.77-1.15-1.35-.18.19-.37.37-.58.54-.88.72-1.99,1.2-3.19,1.41-1.49.26-3.31.15-4.95-.63-1.38-.66-2.37-1.66-2.93-2.86-.29.56-.79.99-1.39,1.19h0Z"/>
      <path class="cls-8" d="m53.55,33.56c-.67,2.01-1.89,3.73-3.17,4.96-1.14,1.09-2.46,1.91-3.84,2.33-1.3.4-2.58.43-3.68.14-1.16-.31-2.27-1.05-3.07-2.23-.3-.44-.55-.93-.75-1.46.59-.22,1.07-.68,1.32-1.25.13.35.31.68.53.97.56.75,1.35,1.23,2.19,1.45.8.2,1.73.2,2.69-.03,1.01-.25,1.99-.74,2.85-1.41,1.04-.81,2.02-1.98,2.52-3.36.04-.1.07-.21.1-.31.38.26.84.41,1.33.41.34,0,.67-.07.97-.21h0Z"/>
      <path class="cls-8" d="m83.66,33.56c.67,2.01,1.89,3.73,3.17,4.96,1.14,1.09,2.46,1.91,3.84,2.33,1.3.4,2.58.43,3.68.14,1.16-.31,2.27-1.05,3.07-2.23.3-.44.55-.93.75-1.46-.59-.22-1.07-.68-1.32-1.25-.13.35-.31.68-.53.97-.56.75-1.35,1.23-2.19,1.45-.8.2-1.73.2-2.69-.03-1.01-.25-1.99-.74-2.85-1.41-1.03-.81-2.02-1.98-2.52-3.36-.04-.1-.07-.21-.1-.31-.38.26-.84.41-1.33.41-.34,0-.67-.07-.97-.21h0Z"/>
      <path class="cls-8" d="m62.78,11.37c-2.54.57-4.92,1.94-6.87,3.84-1.18,1.15-2.21,2.51-3.03,4.01,1.04-6.51,6.11-11.52,12.24-11.76-.96,1.14-1.76,2.46-2.34,3.9h0Z"/>
      <path class="cls-8" d="m74.42,11.37c2.54.57,4.92,1.94,6.87,3.84,1.18,1.15,2.21,2.51,3.03,4.01-1.04-6.51-6.11-11.52-12.24-11.76.96,1.14,1.76,2.46,2.34,3.9h0Z"/>
      <path class="cls-8" d="m54.39,25.85c-.32.47-.55.98-.71,1.5-.19.63-.26,1.25-.21,1.84-.28-.11-.58-.17-.89-.17-.66,0-1.25.27-1.68.7-.18-.29-.39-.56-.64-.81-.58-.58-1.34-.96-2.2-1.13.89-1.32,2.57-2.21,4.5-2.21.65,0,1.26.1,1.83.28h0Z"/>
      <path class="cls-8" d="m58.12,33.21c-.47-.32-.98-.55-1.5-.71-.63-.19-1.25-.26-1.84-.21.11-.28.17-.58.17-.89,0-.66-.27-1.25-.7-1.68.29-.18.56-.39.81-.64.58-.58.96-1.34,1.13-2.2,1.32.89,2.21,2.57,2.21,4.5,0,.65-.1,1.26-.28,1.83h0Z"/>
      <path class="cls-8" d="m42.93,35.41c-.42-.19-.85-.31-1.28-.37-.38-.05-.75-.05-1.11,0-.03-.77-.45-1.45-1.06-1.84-.02-.02-.04-.03-.06-.05.21-.18.4-.38.56-.61.38-.54.59-1.18.61-1.88,1.15.53,2.08,1.75,2.32,3.27.08.51.08,1.01.01,1.49h0Z"/>
      <path class="cls-8" d="m94.28,35.41c.42-.19.85-.31,1.28-.37.38-.05.75-.05,1.11,0,.03-.77.45-1.45,1.06-1.84.02-.02.04-.03.06-.05-.21-.18-.4-.38-.56-.61-.38-.54-.59-1.18-.61-1.88-1.15.53-2.08,1.75-2.32,3.27-.08.51-.08,1.01-.01,1.49h0Z"/>
      <path class="cls-8" d="m47.04,29.58c.47.32.98.55,1.5.71.63.19,1.25.26,1.84.21-.11.28-.17.58-.17.89,0,.66.27,1.25.7,1.68-.29.18-.56.39-.81.64-.58.58-.96,1.34-1.13,2.2-1.32-.89-2.21-2.57-2.21-4.5,0-.65.1-1.26.28-1.83h0Z"/>
      <path class="cls-8" d="m82.81,25.85c.32.47.55.98.71,1.5.19.63.26,1.25.21,1.84.28-.11.58-.17.89-.17.66,0,1.25.27,1.68.7.18-.29.39-.56.64-.81.58-.58,1.34-.96,2.2-1.13-.89-1.32-2.57-2.21-4.5-2.21-.65,0-1.26.1-1.83.28h0Z"/>
      <path class="cls-8" d="m90.17,29.58c-.47.32-.98.55-1.5.71-.63.19-1.25.26-1.84.21.11.28.17.58.17.89,0,.66-.27,1.25-.7,1.68.29.18.56.39.81.64.58.58.96,1.34,1.13,2.2,1.32-.89,2.21-2.57,2.21-4.5,0-.65-.1-1.26-.28-1.83h0Z"/>
      <path class="cls-8" d="m79.08,33.21c.47-.32.98-.55,1.5-.71.63-.19,1.25-.26,1.84-.21-.11-.28-.17-.58-.17-.89,0-.66.27-1.25.7-1.68-.29-.18-.56-.39-.82-.64-.58-.58-.96-1.34-1.13-2.2-1.32.89-2.21,2.57-2.21,4.5,0,.65.1,1.26.28,1.83h0Z"/>
      <path class="cls-4" d="m68.6,39.8c1.55,0,3.09.06,4.61.18l-.46,2.1c-.46-.04-.91-.07-1.37-.09-1.39-.06-2.78-.08-4.17-.05-.92.03-1.84.08-2.76.15l-.46-2.1c1.52-.12,3.06-.18,4.62-.18h0Z"/>
      <path class="cls-4" d="m47.44,43.84c2.7-1.07,5.5-1.95,8.39-2.61l.56,2.11c-.86.21-1.72.43-2.58.67l-1.28.39c-1.23.4-2.45.83-3.66,1.31l-1.44-1.87h0Z"/>
      <path class="cls-4" d="m89.77,43.84c-2.7-1.07-5.5-1.95-8.39-2.61l-.56,2.11c.86.21,1.72.43,2.58.67l1.28.39c1.24.4,2.45.83,3.66,1.31l1.44-1.87h0Z"/>
      <path class="cls-2" d="m68.6,39.8c8.02,0,15.66,1.65,22.6,4.63.36.41.31,1.49-.15,2.61-.47,1.12-1.2,1.92-1.74,1.95-6.36-2.74-13.36-4.25-20.71-4.25s-14.34,1.52-20.71,4.25c-.54-.03-1.28-.83-1.74-1.95-.46-1.12-.51-2.2-.15-2.61,6.95-2.98,14.59-4.63,22.6-4.63"/>
      <path class="cls-8" d="m72.32,3.03h-7.44c.13-1.69,1.75-3.03,3.72-3.03s3.58,1.34,3.72,3.03h0Z"/>
      <polygon class="cls-5" points="67.36 3.01 69.84 3.01 69.84 6.17 67.36 6.17 67.36 3.01 67.36 3.01"/>
      <path class="cls-1" d="m68.6,24.21c1.03-1.07,1.85-2.36,2.4-3.78.54-1.39.83-2.91.8-4.48-.03-1.54-.37-2.97-.94-4.25-.56-1.26-1.35-2.37-2.3-3.27-.95.9-1.73,2.01-2.29,3.27-.56,1.28-.89,2.72-.92,4.25-.03,1.57.27,3.09.82,4.48.56,1.42,1.39,2.71,2.43,3.78h0Z"/>
      <path class="cls-7" d="m68.6,13.82c1.46,0,2.65,1.19,2.65,2.65s-1.19,2.65-2.65,2.65-2.65-1.19-2.65-2.65,1.19-2.65,2.65-2.65h0Zm0-4.61c1.14,0,2.07.93,2.07,2.07s-.93,2.07-2.07,2.07-2.07-.93-2.07-2.07.93-2.07,2.07-2.07h0Zm0,10.26c1.14,0,2.07.93,2.07,2.07s-.93,2.07-2.07,2.07-2.07-.93-2.07-2.07.93-2.07,2.07-2.07h0Z"/>
      <path class="cls-7" d="m68.6,24.21c1.03-1.07,1.85-2.36,2.4-3.78.54-1.39.83-2.91.8-4.48-.03-1.54-.37-2.97-.94-4.25-.56-1.26-1.35-2.37-2.3-3.27-.95.9-1.73,2.01-2.29,3.27-.56,1.28-.89,2.72-.92,4.25-.03,1.57.27,3.09.82,4.48.56,1.42,1.39,2.71,2.43,3.78h0Zm-.04-17.98c1.43,1.03,2.64,2.41,3.51,4.03.89,1.66,1.44,3.59,1.5,5.68.07,2.15-.37,4.23-1.22,6.1-.87,1.91-2.15,3.59-3.74,4.88-1.6-1.29-2.9-2.97-3.77-4.88-.86-1.87-1.31-3.95-1.25-6.1.06-2.09.59-4.03,1.47-5.68.86-1.63,2.07-3,3.5-4.03h0Z"/>
      <path class="cls-8" d="m71.79,24.64c-.43.38-.79.8-1.08,1.26-.35.56-.57,1.14-.68,1.73-.24-.18-.51-.32-.82-.4-.63-.17-1.28-.06-1.81.24-.09-.33-.23-.65-.41-.95-.42-.71-1.05-1.28-1.83-1.66,1.2-1.05,3.06-1.47,4.92-.97.62.17,1.2.42,1.7.75h0Z"/>
      <path class="cls-5" d="m68.6,5.58c1.63,0,3.03.71,3.58,1.71-1.15-.25-2.35-.38-3.58-.38s-2.43.13-3.58.38c.56-1,1.95-1.71,3.58-1.71h0Z"/>
    </g>
  </g>
</svg>