<?xml version="1.0" encoding="UTF-8"?>
<svg id="Livello_2" data-name="Livello 2" xmlns="http://www.w3.org/2000/svg" viewBox="0 0 82.45 187.09">
  <defs>
    <style>
      .cls-1 {
        fill: #c70c0f;
      }

      .cls-1, .cls-2, .cls-3, .cls-4 {
        fill-rule: evenodd;
        stroke-width: 0px;
      }

      .cls-2 {
        fill: #00448c;
      }

      .cls-3 {
        fill: #fff;
      }

      .cls-4 {
        fill: #dbb447;
      }
    </style>
  </defs>
  <g id="Livello_1-2" data-name="Livello 1">
    <g>
      <path class="cls-4" d="m0,54.41v109.86c0,14.19,24.24,22.81,41.24,22.81s41.21-8.62,41.21-22.81V54.41H0Z"/>
      <path class="cls-3" d="m5.1,164.32l.17,1.64c.5,1.88,1.32,3.13,2.57,4.62,5.08,5.25,12.31,7.93,19.25,9.74,3.22.73,6.37,1.27,9.66,1.62l3.02.17c4.77.09,9.29-.45,13.98-1.43l3.22-.8c4.58-1.32,8.79-2.96,12.87-5.42l2.18-1.53c1.75-1.43,3.13-2.79,4.32-4.71.5-1.04.8-1.88.97-3l.04-88.69H5.1v87.79h0Z"/>
      <polygon class="cls-4" points="14.45 46.77 68 46.77 68 52.71 14.45 52.71 14.45 46.77 14.45 46.77"/>
      <polygon class="cls-2" points="5.1 59.51 77.35 59.51 77.35 71.43 5.1 71.43 5.1 59.51 5.1 59.51"/>
      <path class="cls-4" d="m16.57,81.76v48.11c0,7.45,14.47,12.98,24.67,12.98s24.65-5.53,24.65-12.98v-48.11H16.57Z"/>
      <path class="cls-2" d="m21.69,129.71c.06,1.36,1.84,2.59,2.85,3.28,4.43,2.85,9.83,4.28,15.06,4.69,5.81.28,11.9-1.14,17.06-3.91,1.43-.84,2.92-1.77,3.84-3.2.17-.32.26-.5.28-.86v-42.86H21.69v42.86h0Z"/>
      <path class="cls-4" d="m45.66,111.63c-.43.67-.99,1.23-1.66,1.64l1.04,21.9h-7.62l1.04-21.9c-.67-.41-1.23-.97-1.66-1.64l-11.71,1.02v-7.65l11.71.99c.43-.65.99-1.21,1.64-1.62l-1.02-15.94h7.62l-1.02,15.94c.65.41,1.21.97,1.64,1.62l11.71-.99v7.65l-11.71-1.02h0Z"/>
      <path class="cls-3" d="m35.21,68.95c-.13-.32-.32-.69-.58-1.1-.24-.39-.52-.78-.84-1.14-.3-.35-.65-.63-.99-.82.82-.17,1.45-.48,1.86-.91.39-.43.6-.99.6-1.73,0-.35-.06-.67-.19-.99-.11-.3-.28-.58-.52-.82-.24-.24-.5-.41-.8-.54-.26-.11-.54-.19-.84-.24-.32-.02-.69-.04-1.12-.04h-3.18c-.43,0-.73.09-.93.28-.17.19-.28.5-.28.91v7.43c0,.39.09.67.26.89.17.19.41.3.73.3.28,0,.52-.11.69-.3.19-.19.28-.5.28-.89v-3.11h.67c.35,0,.65.04.86.15.15.04.28.13.43.26.09.06.17.15.24.24.24.26.48.63.76,1.1l.8,1.3c.17.3.32.54.43.69.11.17.24.3.39.39.13.11.32.17.54.17.19,0,.35-.04.5-.11.13-.09.24-.17.32-.3.09-.13.13-.26.13-.39,0-.11-.09-.35-.22-.67h0Zm-2.94-4.34c-.26.06-.58.11-.95.11h-1.97v-2.64h1.97c.58,0,.97.04,1.19.13.24.11.41.26.56.45.13.22.19.45.19.71,0,.35-.09.6-.26.8-.15.19-.41.35-.73.43h0Z"/>
      <path class="cls-3" d="m53.87,62.77c-.37-.73-.93-1.32-1.64-1.73-.69-.39-1.56-.6-2.53-.6h-.04c-.73,0-1.38.11-1.97.35-.58.24-1.08.56-1.47.99-.41.43-.71.97-.93,1.58-.22.63-.32,1.3-.32,2.05,0,.71.11,1.38.3,2.01.22.63.52,1.17.91,1.6.41.45.91.78,1.49,1.04.6.24,1.27.37,2.03.37s1.43-.13,2.01-.37c.6-.24,1.1-.58,1.49-1.02.41-.45.71-.99.91-1.6.22-.6.3-1.27.3-2.03,0-.99-.17-1.88-.54-2.64h0Zm-1.81,4.56c-.24.52-.58.91-.99,1.14-.41.26-.86.39-1.36.39h-.02c-.39,0-.73-.09-1.06-.22-.35-.15-.63-.37-.89-.67-.24-.28-.43-.65-.58-1.1-.13-.43-.19-.93-.19-1.47s.07-1.04.19-1.47c.15-.45.32-.8.56-1.08.26-.28.54-.5.86-.65.32-.15.69-.22,1.08-.22h.04c.52,0,.99.13,1.43.39.41.28.73.67.97,1.19.22.52.35,1.12.35,1.84,0,.76-.13,1.4-.39,1.92h0Z"/>
      <path class="cls-4" d="m41.28,13.82c-3.97-3.8-9.87-7.47-16.22-3.69C18.14,5.38,2.92,13.24,2.18,24.58v1.75c.22,3.26,1.64,6.74,4.75,10.28l7.52,8.45h53.66l7.5-8.45c3.13-3.54,4.56-7.02,4.77-10.28v-1.75c-.76-11.34-15.96-19.2-22.88-14.45-6.33-3.76-12.2-.15-16.16,3.63-.02.02-.04.04-.06.06h0Z"/>
      <path class="cls-1" d="m63.81,15.12c1.4,3.2,1.64,7.99,1.19,12.44h-3.39c1.14-12.7-10.33-15.47-18.27-11.25l-.06,11.25h-4.06l-.09-11.25c-7.95-4.21-19.42-1.45-18.27,11.25h-3.39c-.45-4.45-.22-9.25,1.19-12.44-6.59.41-15.29,10.69-8.38,18.97l6.31,7.58h49.32l6.31-7.58c6.91-8.27-1.79-18.56-8.38-18.97h0Z"/>
      <path class="cls-2" d="m56.53,161.55c0-8.42-6.89-15.32-15.29-15.32s-15.32,6.89-15.32,15.32,6.89,15.29,15.32,15.29,15.29-6.87,15.29-15.29h0Z"/>
      <path class="cls-3" d="m43.07,154.68c-.56-.06-1.12-.11-1.73-.11-6.8,0-12.66,4.84-13.98,11.54.19.6.43,1.17.69,1.73,1.12-2.29,2.89-4.17,5.08-5.42,2.35-1.36,5.1-1.92,7.8-1.62,1.3-1.79,2.03-3.93,2.14-6.13v.02h0Z"/>
      <path class="cls-3" d="m34.37,163.37c2.22,5.27,7.39,8.68,13.09,8.68,1.58,0,3.15-.26,4.64-.78.41-.48.8-.95,1.14-1.45-2.53.15-5.03-.43-7.21-1.68-2.35-1.36-4.19-3.43-5.29-5.92-.39-.06-.8-.09-1.21-.09-1.79,0-3.56.43-5.16,1.23h0Z"/>
      <path class="cls-3" d="m46.23,166.59c1.86-2.46,2.87-5.49,2.87-8.58,0-4.13-1.79-8.04-4.9-10.74-.61-.13-1.21-.22-1.81-.28,1.4,2.12,2.14,4.58,2.14,7.09,0,2.72-.89,5.36-2.46,7.56.86,2.03,2.33,3.76,4.19,4.97l-.02-.02h0Z"/>
      <path class="cls-3" d="m40.63,146.97c-7.82.32-14,6.76-14,14.58,0,.54.04,1.1.11,1.64,2.55-6.65,9.29-10.74,16.33-9.94-.17-2.29-1.02-4.47-2.44-6.29h0Z"/>
      <path class="cls-3" d="m28.92,169.37c2.68,4.23,7.32,6.78,12.31,6.78,3.11,0,6.16-1.02,8.66-2.87-7.02,1.12-13.91-2.66-16.76-9.18-1.9,1.27-3.37,3.11-4.21,5.25v.02h0Z"/>
      <path class="cls-3" d="m54.15,168.32c1.08-2.12,1.66-4.43,1.66-6.76,0-5.81-3.43-11.06-8.75-13.37,2.22,2.79,3.46,6.24,3.46,9.83,0,3.35-1.06,6.59-3.05,9.29,1.56.76,3.26,1.15,4.97,1.15.58,0,1.14-.04,1.71-.13h0Z"/>
      <path class="cls-4" d="m41.26,12.51c-1.17-1.27-2.4-2.16-3.8-2.98.39-1.3,1.19-2.76,2.72-3.26v-2.03h-2.76v-2.12h2.76V0h2.14v2.12h2.77v2.12h-2.77v2.03c1.53.5,2.33,1.97,2.72,3.26-1.4.82-2.66,1.71-3.78,2.98h0Z"/>
      <path class="cls-4" d="m44.15,33.59c.3-.52.48-1.08.48-1.71,0-1.88-1.53-3.41-3.39-3.41s-3.39,1.53-3.39,3.41c0,.63.15,1.19.45,1.71h-.02c-1.86,0-3.39,1.51-3.39,3.39s1.53,3.41,3.39,3.41c1.27,0,2.38-.69,2.96-1.73.58,1.04,1.66,1.73,2.94,1.73,1.86,0,3.39-1.53,3.39-3.41s-1.53-3.39-3.39-3.39h-.02Z"/>
      <path class="cls-4" d="m61.84,33.59c.3-.52.45-1.08.45-1.71,0-1.88-1.51-3.41-3.39-3.41s-3.41,1.53-3.41,3.41c0,.63.17,1.19.48,1.71h-.02c-1.86,0-3.39,1.51-3.39,3.39s1.53,3.41,3.39,3.41c1.27,0,2.38-.69,2.96-1.73.58,1.04,1.68,1.73,2.94,1.73,1.88,0,3.41-1.53,3.41-3.41s-1.53-3.39-3.41-3.39h0Z"/>
      <path class="cls-4" d="m27.52,33.59c.28-.52.45-1.08.45-1.71,0-1.88-1.53-3.41-3.41-3.41s-3.39,1.53-3.39,3.41c0,.63.17,1.19.45,1.71-1.88,0-3.41,1.51-3.41,3.39s1.53,3.41,3.41,3.41c1.25,0,2.35-.69,2.94-1.73.6,1.04,1.71,1.73,2.96,1.73,1.88,0,3.39-1.53,3.39-3.41s-1.51-3.39-3.39-3.39h0Z"/>
    </g>
  </g>
</svg>