<?xml version="1.0" encoding="UTF-8"?>
<svg id="Layer_2" data-name="Layer 2" xmlns="http://www.w3.org/2000/svg" xmlns:xlink="http://www.w3.org/1999/xlink" viewBox="0 0 434.88 503.76">
  <defs>
    <style>
      .cls-1 {
        clip-path: url(#clippath);
      }

      .cls-2 {
        fill: none;
      }

      .cls-2, .cls-3, .cls-4, .cls-5, .cls-6, .cls-7, .cls-8, .cls-9, .cls-10, .cls-11, .cls-12, .cls-13, .cls-14, .cls-15, .cls-16, .cls-17, .cls-18, .cls-19, .cls-20, .cls-21, .cls-22, .cls-23, .cls-24, .cls-25, .cls-26, .cls-27, .cls-28 {
        stroke-width: 0px;
      }

      .cls-3 {
        fill: #060500;
      }

      .cls-3, .cls-4, .cls-5, .cls-6, .cls-7, .cls-8, .cls-9, .cls-10, .cls-11, .cls-12, .cls-13, .cls-14, .cls-15, .cls-16, .cls-17, .cls-18, .cls-19, .cls-20, .cls-21, .cls-22, .cls-23, .cls-24, .cls-25, .cls-26, .cls-27, .cls-28 {
        fill-rule: evenodd;
      }

      .cls-4 {
        fill: #030200;
      }

      .cls-5 {
        fill: #090600;
      }

      .cls-6 {
        fill: #070601;
      }

      .cls-7 {
        fill: #0e0c00;
      }

      .cls-8 {
        fill: #0a0900;
      }

      .cls-9 {
        fill: #423501;
      }

      .cls-10 {
        fill: #0d0a00;
      }

      .cls-11 {
        fill: #5b5309;
      }

      .cls-12 {
        fill: #262101;
      }

      .cls-13 {
        fill: #524501;
      }

      .cls-14 {
        fill: #776704;
      }

      .cls-15 {
        fill: #4d3a1e;
      }

      .cls-16 {
        fill: #534f2f;
      }

      .cls-17 {
        fill: #edce00;
      }

      .cls-18 {
        fill: #fadd00;
      }

      .cls-19 {
        fill: #ffdf00;
      }

      .cls-20 {
        fill: #fe0000;
      }

      .cls-21 {
        fill: #fcdd00;
      }

      .cls-22 {
        fill: #f3d404;
      }

      .cls-23 {
        fill: #fdde00;
      }

      .cls-24 {
        fill: #6c6102;
      }

      .cls-25 {
        fill: #826d01;
      }

      .cls-26 {
        fill: #f9da00;
      }

      .cls-27 {
        fill: #f7d80a;
      }
    </style>
    <clipPath id="clippath">
      <rect class="cls-2" width="434.88" height="503.76"/>
    </clipPath>
  </defs>
  <g id="Layer_1-2" data-name="Layer 1">
    <g>
      <g class="cls-1">
        <path class="cls-28" d="m300.14,81.05l23.05,4.34-1.44,7.69-7.37-1.38-5.51,29.88-8.82-1.65,5.59-29.88-6.89-1.3,1.4-7.71Z"/>
        <path class="cls-19" d="m142.51,50.98c-10.34,3.71-21.15,7.17-32.53,10.29-7.79,2.14-15.43,3.57-23.7,3.98-8.26.41-17.09-.2-27.24-2.14-8.9-1.7-17.89-4.02-26.55-7.25-4.95-1.85-9.78-3.99-14.41-6.47-4.08,39.93-4.12,78.85-.97,115.51,3.76,43.7,12.04,84.11,23.4,119.15,17.01,52.46,41.46,93.7,71.55,126.66,9.62,10.54,19.83,20.24,30.56,29.2l-.11-335.05c1.06.52,1.82,1.57,2.08,3.09.35,2.07.68,4.15,1.07,6.21.4,2.09.85,3.42,1.5,4.4l9.79-1.76c-.97-.73-2.12-2.6-2.57-4.61l-1.52-6.78c-.73-3.25-2.93-5.28-5.46-5.8,3.08-1.79,4-5.4,3.21-10.03-.91-5.25-3.81-7.7-8.09-8.22v-30.38Zm151.09,387.22c10.76-9.25,20.88-19.14,30.32-29.67,28.07-31.35,50.14-68.47,65.11-111.57,9.95-28.64,19.66-60.69,25.39-101.89,5.39-38.84,7.25-85.81,2.45-145.71-4.79,2.45-9.63,4.59-14.53,6.44-8.47,3.2-17.09,5.58-25.91,7.31-5.84,1.14-12.09,2.03-19.25,2.14-7.09.11-14.87-.57-23.71-2.59-13.41-3.07-26.7-7.2-39.98-12.07v55.21l-2.24-26.22-10.3-1.28-13,36.84,8.65,1.1,2.24-7.25,6.8.87.33,7.57,7.52.96.11,319.81ZM180.67,114.21l-20.72,2.18-4.09-37.99,20.55-2.15.82,7.82-11.45,1.2.74,6.89,10.75-1.11.78,7.64-10.74,1.14.88,8.2,11.71-1.23.77,7.43Zm-14.56,275.74h8.22v36.43h-10.06v-23.84c-1.62,1.23-3.2,2.23-4.73,2.98-1.53.76-3.44,1.49-5.73,2.19v-8.11c3.39-1.1,6.02-2.42,7.89-3.95,1.88-1.54,3.34-3.44,4.4-5.7h0Zm20.42,5.94c1.12-1.95,2.68-3.43,4.64-4.44,1.97-1,4.45-1.5,7.43-1.5,3.59,0,6.46.62,8.62,1.84,2.17,1.23,3.9,3.19,5.2,5.86,1.29,2.68,1.94,6.21,1.94,10.62,0,6.46-1.36,11.19-4.09,14.2-2.72,3-6.49,4.5-11.32,4.5-2.85,0-5.1-.32-6.75-.98-1.64-.66-3.01-1.63-4.11-2.89-1.09-1.27-1.93-2.85-2.51-4.75l9.91-1.24c.26,1.37.7,2.34,1.32,2.9.63.57,1.39.85,2.28.85,1.6,0,2.84-.8,3.75-2.41.65-1.19,1.14-3.7,1.46-7.54-1.19,1.23-2.41,2.12-3.67,2.68-1.25.57-2.7.86-4.35.86-3.21,0-5.92-1.14-8.13-3.42-2.21-2.29-3.31-5.17-3.31-8.66,0-2.38.56-4.55,1.69-6.51h0Zm38.55-4.68c1.9-.84,4.53-1.26,7.88-1.26s6.22.4,8.18,1.2c1.94.79,3.48,2.02,4.59,3.67,1.12,1.66,1.67,3.51,1.67,5.56,0,2.18-.64,4.26-1.92,6.25-1.28,1.98-3.6,4.17-6.98,6.55-2,1.39-3.34,2.36-4.02,2.91-.67.56-1.47,1.28-2.39,2.18h15.55v8.1h-29.88c.34-2.94,1.39-5.72,3.12-8.32,1.73-2.6,4.99-5.67,9.76-9.21,2.92-2.17,4.79-3.81,5.61-4.94.82-1.12,1.23-2.19,1.23-3.2,0-1.09-.4-2.02-1.21-2.8-.81-.78-1.83-1.16-3.05-1.16s-2.31.4-3.12,1.2c-.81.81-1.35,2.22-1.62,4.25l-9.96-.81c.39-2.81,1.11-4.99,2.15-6.57,1.04-1.57,2.51-2.78,4.41-3.62h0Zm27.07,8.02c.79-2.99,2.28-5.29,4.5-6.89,2.22-1.59,5.36-2.39,9.42-2.39,4.67,0,8.04.87,10.12,2.61,2.08,1.75,3.12,3.94,3.12,6.57,0,1.54-.43,2.94-1.27,4.19-.84,1.25-2.11,2.35-3.81,3.29,1.39.34,2.45.74,3.17,1.2,1.19.74,2.11,1.7,2.77,2.89.66,1.2.99,2.63.99,4.29,0,2.08-.54,4.09-1.64,6-1.09,1.91-2.66,3.39-4.71,4.42-2.05,1.04-4.75,1.55-8.09,1.55s-5.82-.38-7.7-1.15c-1.88-.77-3.43-1.89-4.64-3.36-1.21-1.47-2.15-3.33-2.79-5.57l9.96-1.33c.39,2.01.99,3.41,1.82,4.19.82.77,1.86,1.17,3.13,1.17s2.44-.49,3.33-1.47c.88-.98,1.33-2.28,1.33-3.91s-.43-2.94-1.28-3.86c-.85-.91-2.01-1.37-3.47-1.37-.78,0-1.85.19-3.21.58l.52-7.11c.54.08.97.13,1.28.13,1.29,0,2.36-.42,3.22-1.24.86-.82,1.29-1.8,1.29-2.94s-.33-1.96-.97-2.6c-.65-.65-1.54-.97-2.67-.97s-2.11.35-2.84,1.06c-.73.7-1.22,1.93-1.48,3.69l-9.41-1.67Zm-40.19-286.52l8.63-38.1,10.37.07,7.84,38.31-8.67-.1-1.21-7.48-6.86-.07-1.38,7.46-8.72-.09Zm-14.48,1.27c-9.41.47-12.17-4.98-12.95-11.81-.63-5.54-.86-11.29-.56-17.22.32-6.34,4.23-9.63,10.98-10.24,7.47-.68,12.03,3.34,13.06,9.6.21,1.25.37,2.4.41,3.8l-8.55.46c-.07-.86-.12-1.72-.23-2.57-.26-2.04-1.27-4.2-3.34-4.14-2.61.07-3.51,1.49-3.53,3.98-.02,5.15.28,10.35.66,15.38.21,2.84,1.16,5.98,3.76,5.8,2.6-.18,3.45-2.21,3.39-4.23l-.13-4.48,8.66-.47c.18,1.69.18,3.11.15,4.8-.14,6.66-3.36,10.91-11.77,11.33h0Zm44.13-1.02l2.75-38.11,8.91.66,5.97,24.82c-.34-8.02.05-16.7.33-24.38l8.27.58-2.7,38.13-9.1-.67-5.88-24.25c.38,8.2-.14,15.97-.38,23.8l-8.18-.59ZM163.8,26.67c17.73-7.57,34.44-15.88,50.67-24.32l3.29-1.71,3.37,1.62c19.93,9.62,39.38,18.95,58.69,26.98,19.08,7.94,37.97,14.59,56.96,18.93,7.63,1.75,14.26,2.34,20.22,2.25,5.88-.09,11.34-.89,16.58-1.91,8.1-1.58,15.93-3.73,23.53-6.61,7.62-2.88,15.03-6.49,22.27-10.97l10.18-6.3,1.1,11.94c6.13,66.74,4.34,118.3-1.52,160.53-5.88,42.31-15.86,75.25-26.08,104.67-15.64,45.04-38.73,83.84-68.08,116.63-30.54,34.11-67.79,61.65-110.43,82.86h-.03c-2.06,1.02-4.39,1.53-6.65,1.53s-4.57-.51-6.64-1.53c-41.37-20.3-78.69-46.12-110.13-80.56-31.45-34.44-56.96-77.46-74.69-132.13C14.67,252.45,6.14,210.9,2.29,166.12-1.25,124.99-.85,81.07,4.62,36.04l1.51-12.44,10.18,7.27c6.5,4.64,13.75,8.27,21.37,11.11,7.75,2.89,15.93,5,24.1,6.56,8.98,1.71,16.68,2.25,23.81,1.9,7.11-.35,13.72-1.6,20.5-3.46,20.83-5.73,39.86-12.68,57.71-20.3h0Z"/>
      </g>
      <path class="cls-4" d="m207.46,279.99l.06,1.2c-1.11.59-2.66.36-3.99.46-1.99.17-1.88,1.18-2.98,1.62-.85.33-.93-.02-1.63.63-.58.53-.39.63-1.15,1.15-1.21.84-1.61.87-2.47,2.13-1.44,2.13-2.48,3.32-1.26,6.61,1.17,3.16,2.38-.4,2.76,6.42.08,1.47-.1,2.8.61,3.79.81,1.13,2.22.84,3.05,1.57.63.56.81,2.65,1.11,3.47.2.57.4,1.2.6,1.77.42,1.17,1.57,4.32,1.38,5.48-.2,1.21-4.59,4.82-9.31,4.23-7.83-.98-9.1-2.81-13.8-4.39-1.22-.41-2-.79-3.07-1.29-.63-.3-1.11-.35-1.72-.57-.75-.27-.82-.45-1.55-.76-6.83-2.86-16.16.52-18.59-4.21-.64-1.24-.85-2.27-.32-3.86.66-2.01,1.51-2.24,5.03-1.85.92.1,3.27,1.12,3.13-.63-.14-1.87-3.38-.82-5.12-1.7.24-.91,1.39-2.67,2.04-3.5,2.36-2.96,5.28-1.66,6.78.66.75,1.16,1.08,3.46,3.01,2.4.54-.55-.92-3.81-2.23-4.87-.44-.35-1.19-.84-1.23-1.39-.1-1.31,3.52-3.79,7.34,4.5.97,2.1,1.72,2.48,3.14,3.96l4.53,2.79c1.36.6,5.14.73,6.15-.05.67-.52,3.02-6.84-2.63-9.77-.94-.49-1.38-.9-2.33-1.16-1.18-.32-1.94-.07-2.85-.89-.39-2.38,1.91-2.72-1.8-2.83-.06-1.17.37-1.86.38-3.03.01-2.01-.65-1.56-.87-2.56-.26-1.22.4-1.5.85-2.18.93-1.4-1.55-2.27.24-4.99.72-1.09,5.8-2.77,6.99-2.84,1.84-.1,4.55-.08,6.2.32l6.94,2.68c1.4.54,6.92,1.24,8.59,1.47h0Zm-.21-8.67c1.66-.12,1.48.57,2.31,1.74.56.79,1.32,1.37,2,1.96,3.02,2.64,1.77,5.38.32,8.66-.47,1.07-.33,2.76-.66,3.34-.47.82-1.88.45-2.9,1.05-.95.56-1.24,1.5-1.83,2.33l-1.23-.06c-1.46-2.35.09-3.46,1.42-4.53,1.32-1.05,2.72-2.09,3.27-3.85,2.06-6.55-2.78-7.91-2.7-10.64h0Zm27.92-10.34c1.53-.36,2.27,1.12,2.89,2.01.8,1.17.6,3.25.01,4.42-1.49.08-2.48-.58-2.73-1.93-.06-.33-.2-4.36-.17-4.5h0Zm17.28-8.64c.58,2.1.34,2.49-.71,3.89-1.05,1.4-1.83.71-1.74,3.21.12,3.43-.1,6.8,0,10.25.09,3.07.47,6.38.87,9.27.69,4.98,2.15,8.85,1.57,13.33-.23,1.73,1.41,12.19.33,14.29-.27.52-.8.92-1.1,1.41-.62,1.02.03.71-1.01,1.5-1.66,1.26-.83,1.53-2.91,2.32-2.05.79-6.98.63-8.84-.34-1.03-.54-1.71-1.71-2.16-2.86-.56-1.42-.29-2.81.09-4.18.73-2.7.51-6.73-.13-9.41-1.08-4.54-1.9-13.73.64-17.85,1-1.61-.2-.42,1.88-3.13,2.66-3.46,1.87-2.61,3.68-6.32.81-1.66.56-1.15,3.11-2.18,1.26-.51,2.47-.22,2.77-2.16.1-.65.05-1.81.01-2.48-.07-1.28-.32-1.14-.39-2.27-.06-1,.48-3.67.96-4.14.52-.51,1.1-.4,1.57-.95.69-.81.04-1.23,1.52-1.19h0Zm-72.08,6.06c.65,1.12,2.46,1.67,3.78,1.84,3.35.43,7.89-.27,11.02-.14,1.35.05,3.42.8,3.23,2.41-1.1.88-1.74.67-3.47.8-1.66.13-.4.43-3.96.38-2.83-.04-5.36-.19-7.77-.84-9.24-2.49-8.26-.41-10.85-.07-1.43.18-2.92-.12-4.36.07-1.44.19-1.99.33-3.78.34-2.94,0-5.61.38-8.07-.69-2.21-.97-6.6-5.41-3.73-7.74,2.07-1.69,4.85,1.84,6.49,1.06.77-1.56-1.81-2.6-2.88-3.46-1.57-1.26-1.93-6.41,2.52-5.6,1.49.27,3.03,3,4.18,2.83,1.46-.22.18-1.69-.17-2.08-.53-.59-1.13-1.11-1.59-1.74-.53-.73-.9-2.39.31-2.66,2.24-.51,3.95,1.08,5.25,1.9,3.92,2.45,3.39,3.9,10.23,3.82,1.48-.02,1.81-.32,2.92-.41,1.14-.09,2.34.09,3.44-.17,1.66-.39,3.44-1.39,5.05-1.82,1.66-.43,4.93-.24,6.45.2,2.02.58,3.78.93,4.39,2.72,1.37,4.01-3.05,5.02-4.5,5.7-7.33,3.48-14.11.19-14.15,3.36h0Zm69.25-9.29c-.07-1.5.16-3.41.65-4.59.31-.75.64-1.14.91-1.82.42-1.07.23-1.35,1.49-1.34l.19.36c.44,1.23-.11-.8.12.38.16.81-.42,3.35-.54,4.39-.22,1.89-.72,2.82-2.81,2.62h0Zm-50.2,109.52c-1.4-1.12-1.02-5.78-.92-5.97,1.63-.2.74,1.12,2.27.55,1.25-.47,2.12-.65,2.54-1.38-1.23-.59-2.42.05-3.78-.41-.34-1.55.17-1.51.37-1.69,2.78-3.24,7.45-.77,11.01-1.62,2.61-.63,2.44-1.32,3.72-2.73,2.05-2.26,1.4-1.34,1.89-4.81.87-6.09.2-5.53-.83-11.55-.53-3.09-2.06-7.19-3.7-9.71-1.2-1.85-1.44-2.2-2.2-4.29-.44-1.21-.87-1.01-1.47-1.85-2.28-3.2-3.56-10.24-2.69-13.78.23-.96,1.96-2.9,2.66-3.81,1.03-1.36.27-3.85,1.74-4.97,2.02-1.53,3.44.43,3.42-3.15,0-1.34.07-1.98.21-3.16.28-2.3.56-1.92,1.29-1.83,1.01.13.4,3.36.62,4.2l1.18.06c1.49-2.29-.09-8.47,2.52-10.08,2.56-.84,4.31,1.97,5.38,3.23.65.76,3.18,7.96,3.5,9.72.23,1.25.46,2.41.87,3.45.68,1.75.73,5.91,3.18,5.31.62-1.56.04-3.34.75-5.1,1.77-.32,1.54,1.14,1.86,3.01.56,3.13-.38,5.44-1.32,8.15-.45,1.28-1.22,2-1.03,3.71,1.62,1.18,1.92.91,2.61,2.97.5,1.5,1.81,2.17,3.16,2.64,2.33.82,8.21.82,10.4-.25,1.27-.62,2.44-1.42,3.48-2.14,5.17-3.57,4.07-6.68,4.05-12.84-.02-8.38-3.7-13.35-3.71-30.73,0-2.53-.14-6.1.05-8.57.14-1.72,2.13-1.99,2.16-6.28.02-3.16,4.64-8.38,7.01-10.39,1.94-1.65,5.62-3.04,8.12-3.35,3.27-.4,6.54-1.09,9.1,1.52,1.83,1.86,1.31,7.21,1.3,10.14,0,1.88,0,3.76,0,5.65,0,2.25.17,3.19-1.15,4.66-.55.61-.69,1.04-1.18,1.53-.57.57-.98.92-1.5,1.42-1.59,1.56-1.24,1.9-2.33,3.52-1.57,2.33-1.77,3.56-2.86,5.72-.46.92-.7,1.27-1.76,1.09-.31-2.66,1.79-5.41,1.4-8.96l-1.64-.4c-1.54-4.49,3.48-6.28,1.18-8.33-.75-.67-1.05-.28-1.11-1.71-.07-1.62.23-1.39,1.36-1.54,2.5-.34-.52-2.54-.64-3.11-.65-2.88,6.83-.91,7.27-3.53.23-1.36.05-3.86-.61-4.73-.93-1.21-3.21-.51-4.54-.4-2.48.2-3.86,1.26-5.66,2.44-.84.55-1.35.24-2.16.57-.09.04-1.18.99-1.46,1.22-.56.46-.76.9-1.3,1.42-.56.54-2.83,4.11-3.13,5.01-.26.77-.45,1.41-.68,2.05-.5,1.41-.88,2.85-1.14,4.34-.18,1-.38,1.12-.43,2.3-.11,2.75.22,5.44.32,8.16.25,7.16,1.67,10.28,1.8,11.71.22,2.3.55,4.91,1.14,7.05.66,2.36.62,18.61-.33,20.71-.43.97-2.55,3.84-3.5,4.61-1.55,1.25-2.47,1.18-3.47,1.97-1.17.92-4.31,2.21-5.91,2.29-3.84.2-6.69.09-9.65-1.26-3.84-1.75-3.8-6.15-4.58-6.5-1.33-.11-1.8.67-2.12,1.6-.55,1.61-.65,1.13-1.39,2.38-1.97,3.32.9,6.8-1.08,6.43-.63-.12-.64-.73-.75-1.33-2.1-11.38,3.66-8.3,3.13-15.08-.82-.62-1.36-1.09-2.65-.54-.86.37-2.73.61-3.24.95-.24.16-.62.56-1,.88-1.91,1.59-1.06,2.3-1.88,4.35-.86,2.13-.36,4.61.29,6.8.63,2.09,1.02,4.52,1.74,6.49l1.76,6.33c.14.71.16,3.18,0,3.86-.25,1.11-.8,1.23-.9,3.19-.2,4.09-1.42,6.45-1.97,10.26-.3,2.08.16,2.11,1.39,2.75.19,2.31.5,3.69-.69,5.45-1.4,2.06-.08,2.31-3.59,2.63.08-.6,3.93-5.16,1.21-5.08-.94.03-.41,0-.72.39-.29.36-.29.87-.71,1.38-.62.77-1.23,1.16-1.81,2.38-.85,1.78.27,5.64-.68,7.69-2.99.27-1.33-2.51-8.4.38-.98.4-.31.42-1.44.72-1.06.28-2.81.35-4.03.11-.42-.75-.87-1.9-.49-2.99.47-1.35.86-1.09,2.15-1.66,2.48-1.1,5.3-.46,6.2-1.41-.13-1.19-.76-1.02-1.98-1.01-1.04.01-2.12-.03-3.16.06-2.12.18-3.25,1.32-5.25,1.16l-.51-.73Zm12.95-126.89c1-.55.73-1.16,1.32-1.45.83-.41,3.02,2.35,5.75.73.5-.3.69-.83,1.48-1.07,1.01-.32,1.36.04,2.26.13,2.44.24,2.71-.7,4.49-.65.18.82.25,1.71.8,2.34.58.66,1.2.75,1.88,1.26,2.05,1.54,5.38,3.87,8.09,4.22,2.28.29,3.63-.4,5.38.7.06,1.68-1.26,2.35-2.64,2.75-2.41.7-2.27-.2-3.55,1.82-1.11.06-3-.18-3.92.09-.96.28-1.45,1.1-2.17,1.57-1.5.99-3.27,1.72-4.75,2.71-.66,3.04,2.89,2.33,2.84,4.82-1.05.69-2.49,1.21-3.24,2.17-.75.96-.45,2.56-1.28,3.95-3.65,6.15-1.65,7.08-3.84,6.86-.34-1.25.03-2.45-.45-4.16-1.17-.2-1.59-.21-2.55.25-.14,1.01.73,2.65-.94,2.45-.51-.06-.25-.09-.58-.29-.69-.43-.13-.53-1.4-.28l-.53,2.21c-2.39.14-1.82-1.66-2.5-3.16-1.62.4-.59,2.38-3.39,2.12-.34-1.12.02-4.57-1.75-2.64-.63.69.06.51-1.16.6-1.95-.34-1.41-5.64-.98-6.27.7-1.02,3.32-2.1,3.11-3.59-.15-1.06,0-.3-.32-.59-1.34-1.15-1.52,2.32-3.67,2.04-.16-2.45.98-4.32,2.16-5.77,1.05-1.29.77-1.55.73-3.23-.05-2.04-.02-1.7-1.32-2.63-1.34-.96-1.12-.87-3.2-.63-3.76.43-2.93,1.84-5.91,2.09-1.08.09-2.95.07-4.02-.05-.1-3.48,3.09-1.54,6.18-2.88l3.31-1.07c1.28-.51,2.6-.26,2.4-1.85-1.42-.15-1.71.03-2.9-.46v-1.15c1.93-1.36,3.67-.12,4.98-.86,1.66-.95,1.84-2.02,2.6-2.98,1.02-.07,2.36.14,3.18-.16h0Zm-32.23.32c1.51-1.25,3.89,3.04,5.26,4.73,1.93,2.39,6.99,3.79,4.71,4.69-1.47.57-6.45-2.7-7.12-3.33-1.16-1.08-4.89-4.42-2.86-6.09h0Zm26.52.43c-.53.58-1.87,1.21-2.97.63-.65-.34-1.07-1.55-1.46-2.27-1.06-1.96-3.88-.17-3.21-4.1,2.64-.22,4.68.12,6.11,1.41,1.18,1.07,3.19,2.53,1.53,4.34h0Zm19.23-6.91l.19,1.68c-.27,1.19-1.84,1.29-2.91,1.18-1.63-.16-1.83-.53-1.69-2.28.62-.41,1.45-.54,2.12-.99.8-.54.95-.96,2.11-.47l.18.88Zm-48.77,4.15c-1.46.28-2.32-.68-2.95-1.36-1.6-1.71-4.16-2.89-5.99-6.56-1.36-2.71,4.29-3.84,6.09-6.22.69-.91,1.06-1.7,1.7-2.47,2.05-.21,1.94.48,3.01,1.66,1.17,1.29,2.56,3.5,4.59,5.02.89.66,1.91,1.17,2.7,1.89.57.51.64.72,1.31,1.2.66.48.74.49,1.25,1.06,2.29,2.55,3.63,1.61,6.64,2.94,1.52.66,1.83,1.08,1.62,3.08-.93,1.19-1.78,1.18-3.2,1.72-.51.2-1.22.46-1.48.77-.3.36-.26.81-.4,1.44-.01.05-.05.21-.05.18,0-.03-.03.13-.06.18-.25.24-1.78.22-2.56-.16l-4.8-3.56c-2.7-1.89-4.71-4.04-7.37-3.69-.15,1.14.35,1.86-.06,2.87h0Zm-17.96-6.7c-3.65.39-2.28-3.82-1.55-5.51,1.52-.05,2.46.79,2.52,2.2.06,1.36-.47,2.31-.97,3.31h0Zm104.11-1.06c-1.07.21-1.98-.03-2.39-.87-.74-1.53-.11-4.96,2.46-1.6.75.98.45,1.53-.07,2.47h0Zm-35.6,1.41c3.3-.93,5.05.94,8.23-1.39.55-.4.88-.69,1.52-1.02.96-.5.59-.51,1.28-1.01,1.19-.87,2.43-.05,3.65-1.15l1.47-1.04c2.96-1.43,2.72,1.8.5,2.58-2.54.89-6.38.63-2.73,3.9.43.01,3.14-.55,3.66-.72,1.24-.41,1.3-1.36,2.58-1.76,1.35-.43,2.24.57,2.27,1.92.06,3.46-4.89,3.15-5.41,3.34-1.1.39-.9,1.5-2.87,1.45-.81-.02-2.1-.84-3.18-1.19-1.52-.5-1.68.31-2.27,1.31-1.04-.29-.59-.93-2.6-.78-.67.82-2,3.04-3.51,2.2-.68-.65-.61-1.7-.04-2.41.43-.55,1.53-.87.59-1.71-.91-.81-1.71.42-2.59.52-.59-.73-.8-2.29-.53-3.05h0Zm37.37-5.49c-1.06-.02-2.09-.88-2.41-1.62-.37-.85-.41-2.68.45-3.06,1.76-.79,2.82,2.79,1.96,4.68h0Zm-46.25-3.28c-.14.86-.3.93-.83,1.53-.78.01-1.16-.28-1.62-.63-.41-.65-1.51-5.95,3.71-4.6.32.08.88.27,1,.54.46.96-.25,1-.29,1.05-.38.55-.55.54-1.08,1-.57.5-.44.63-.89,1.11h0Zm-57.34,1.94c-3.42.79-5.06-4.93-3.84-7.18,1.34.06.99.52,1.8,1.38,1,1.06,2.74,4.14,2.04,5.8h0Zm23.08-7.08c-.77-.66-.72-.85-.64-2.05,2.26-.36,4.21,1.06,2.49,2.81-1.05.07-1.26-.24-1.86-.76h0Zm-24.58-4.25c1.84-.38,3.33,1.94,3.86,3.03.48.99,2.77,3.58.92,4.9-1.14.82-1.69.29-2.33-.58-1.66-2.25-3.53-4.71-2.45-7.35h0Zm9.5,4.06c-3.5.58-3.7-1.65-4.81-2.92-1.78-2.03-1.39-7.27,3.57-6.35,1.33.25.97.66,1.31,2.13.4,1.74.47,5.49-.06,7.14h0Zm61.21-6.06c.82-.57,3.64-.62,4.51-.49.22,1.99,0,2.22-2.14,1.95-1.05-.13-2.02-.62-2.36-1.46h0Zm-58.41-3.68c2.29-1.28,3.56,2.93,3.94,4.46.29,1.18.2,2.87.22,4.24.04,1.87.27,2.62-1.74,2.5-.74-1.72-.98-3.4-1.61-5.31-.57-1.7-1.36-3.98-.81-5.89h0Zm71.17,3.53c-.28.57-.25.48-.89.93-1.5,1.05-1.82.84-3.33.75-.05-.7.25-.93.33-1.54.07-.53.01-1.21.06-1.82.48-.35,3.25-1.07,3.88-.06.79.18.6.07.95.62-.41,1.02-.49.45-1,1.1h0Zm13.79-3.76c.86.17,2.4.09,3.3.47,1.39,4.4-5.66,8.79-5.8,4.41.23-.16.41-.28.66-.37.29-.45.02-.22.54-.55.92-.59,1.18,0,1.08-1.28l-2.34-.44c-.15-.97.08-1.78.32-2.55,3.21-.37,1.9-.07,2.24.31h0Zm-42.2,10.42c-.32-.5-.16-.08-.26-.85l.11-7.33c.26-1.82,3.08.18,6.53-1.59,1.02-.52,2.16-.56,3.22-.98,1.69-.67,6.14-2.4,7.79-2.51.68-.05,1.12-.01,1.83-.11,2.21-.31,5.7-.37,8-.34,1.86.02,9.75.65,9.5,2.82-.14,1.25-2.04.93-3.4.77-2.31-.27-5.29-.32-7.78-.31-3.86.02-3.69.02-6.79,1.11-.73.25-2.32.8-3.23.55-1.01-.27-.25-.43-1.04-.9-1.59-.96-2.25,1.84-1.72,3.23.29.78,2.77,3.08,4.14,3.31,1.06.17,2.33.15,3.41.16,11.53.11,5.57-2.47,12.34-2.34,3.99.08,1.65,1.91,3.68,3.89.95.93,2.43.77,1.77,5.6-3.65,1.34-3.71,2.47-6.11.99l.08-1.85c.4-.27.79-.53,1.34-.68.36-.1,3.01-.1,1.11-3.15-1.3-.23-3.43-.12-4.78,0-2.86.26-4.63,3.5-6.66,1.89-.01-.01-1.69-2.57-2.78-1.41-1.06,1.13,2.76,3.58,1.94,8.38-.17.99-1,1.32-1.7,1.9-2.92,2.42-11.39.53-17.15,1.06-1.17.11-1.9.57-3.15.64-1.31.07-2.3-.08-2.77-1.06-.73-1.48.04-2.37.45-2.96,2.98-.13,6.18.03,9.22.14,2.27.09,6.4,1.43,8.53.47,4.73-2.15,2.48-6.96.16-8.66-1.18-.86-3.55-.59-5.35-.59-5.22.02-8.53.98-9.42.97-.32,0-.29,0-.58-.06-.74-.15-.2-.01-.48-.19h0Zm-46.13-12.54c-1.3,1.24-5.79-3.27-7.52-4.27-.57-.32-2.39-1.3-1.32-2.24.95-.83,3.65,1.7,5.1,2.65,1.31.85,4.88,2.78,3.74,3.86h0Zm106.19-10.42c.22-.34.72-1.06.97-1.55.73-.04,2.05.12,2.58.44.56.33.72,1.02.98,1.54.93.74.5,2.56-.16,3.24-2.26.79-3.59-.4-4.69-1.3-.05-.31-.18-1.09-.16-1.39.15-1.73-.11-.57.48-.97h0Zm-24.38-5.59c2.13-.56,1.61.82,2.51,1.87.72.84,1.99,1.14,2.12,2.77-2.36.1-3.17-.49-4.86-1.28l.23-3.36Zm-21.13,1.66c1.06-.7,3.24-.36,4.79-.81,2.72-.79,1.22-4.75,4.43-3.17.73.36.73.77,1.31,1.41,1.38,1.52,1.2,1.76,1.46,4.15,1.44,1.01,3.72.93,6.54,1.58l2.71.74c3.6,1.24,9.72,1.91,11.59,2.98-.12,1.84-.85,1.22-4.28,1.41-.08,1.67.34,4.52-.25,5.8-1.19.57-5.28-.18-5.82-1.19-.36-.67-.19-2.53-.35-3.45-.36-2.12.42-1.68.55-3.05-.84-.84-7.34-2.25-9.05-1.74-.43.68-.6,2.47-.42,3.57.15.89.89,1.34.94,2.16,0,0,.32,1.14-1.92.92-1.55-.16-1.52-.78-1.67-3.65-.1-1.99.72-3.65-1.45-3.31-.81,1.12-.28,2.82-2.11,2.88-1.62.05-1.73-1.58-1.86-2.91-.35-3.73-5.59-.7-5.13-4.3h0Zm39.75-3.26c.09,1.45.75,2.4-.77,2.62-.66.1-1.01-.14-1.49-.43-.91-.53-.88-.56-1.47-1.12-.58-.34-.09.1-.43-.31-.74-.88.05-2.19.54-2.97,1.2-.16,3.83.91,3.62,2.2h0Zm-46.76-4.61c.94-.52,2.68-.11,3.27.75.56.81.65,3.12-.36,3.46-2.35.78-5.24-2.93-2.91-4.21h0Zm29.24-2.34c2.84-1.12,3.85,3.23,1.66,3.98-1.26.44-2.89,0-3.1-1.21-.28-1.58.29-2.32,1.45-2.78h0Zm-13.24,1.89c-.26,2.45-3.49.16-3.51.14-.78-.77-.81-3.36-.08-4.42,1.21-.84,2.76-.48,3.8.38.29.8.32.81.35,1.67.07,1.84-.31,1.53-.49,1.67l-.07.56Zm-48.41,4.89c-1.14-.8-1.69.92-2.11,1.81-.69,1.48-1.59,2.8-2.67,3.83-.96.92-5.43,7.99-5.9,8.95-.42.85-.87,2.05-1.62,2.58-.46.33-2.19,1.53-2.85,1.14-.55-.32-.39-1.02-.54-1.79-.54-2.74-.25-3.58,1.05-4.85,1.78-1.73,4.32-5.06,5.81-7.18,2.31-3.28,3.49-3.88,5.69-6.83,2.62-3.51,4.96-6.09,7.81-9.33.35-.4.82-.76,1.16-1.14.31-.34.63-.89.86-1.23.93-1.35.87-1.26,1.86-2.32,3.89-4.12,3.47-3.64,6.71-8.14.53-.73,2.91-2.6,5-5.66,2.11-3.07,2.26-2.59,3.84-4.7.35-.47,1.59-1.75,2.06-2.14,1.19-.99.7-1.94,2.28-1.86.15,1.43-1.16,3.14-1.95,4.05-.67.77-5.45,9-6.98,10.59-1,1.05-1.63,2.28-2.54,3.52l-3.59,5.19c-.43.6-.73,1.23-1.09,1.8-.58.9-.6.82-1.05,1.88l-11.72,17.77c-.36.59-.61,1.26-1.03,1.92l-4.71,7c-.43.55-.95,1-1.38,1.54-.63.81-1.7,2.1-1.76.51-.03-.73.14-.38.87-2.02.46-1.04.55-1.29,1.12-2.22l4.24-6.21c.72-.88,3.57-4.59,3.41-5.81-.15-1.09,0-.3-.28-.64h0Zm10.34-22.46c-.39,1.08-1.08,1.68-1.71,2.61-2.27,3.36-1.93,2.32-2.83,3.45-.87,1.09-.89,1.73-2.7,3.57-1.99,2.03-3.33,3.94-3.89,4.48l-3.74,4.4c-2.24,3.07-3.06,4.16-5.68,6.88-1.65,1.71-1.86,1.61-2.91,3.34-.39.65-1.15,1.03-2.73,3.55-.67,1.06-1.25,1.23-1.79,2.41-.67,1.48.48,4.21-1.42,3.54l-4.79-3.21c-2.57-1.71-3.43-3.23-5.83-3.14-3.07.12-3.76,3.24-1.21,4.96.76.52,5,3.42,5.1,4,.32,1.72-3.52,1.59-4.74,4.81-.46,1.21-.7.83-1.39,1.74-1.34,1.77-.04,1.37-1.94,4.32-1.68,2.62-.74,7.48-1.29,11.11-.36,2.41.4,3.56,1.87,4.38,2.71,1.52,4.05-.16,4.7-.36,1.03-.32,1.46-.14,2-1.15.6-1.13.35-1.11,1.99-1.06,3.45,6.38,4.74,5.74,6.18,7.16,1.41,1.39,1.47,2.1,2.61,2.82,1.49.95,2.26,2.59,3.59,4.36,2.13,2.84,3.78,4.62,6.9,6.26.81.43.91.68.99,1.64-1.63,1.23-5.27,2.44-8,2.48-4.21.07-5,1.65-8.1-1.15-1.19-1.07-4.94-3.33-6.47-3.98-1.57-.67-5.38-3.9-7.39-2.65-.37.33-.35.95-.06,1.51.34.67,2.2,1.96,1.39,3.36-1.4,2.41-7.62-.49-8.64.58-.76.79.99,2.06,2.14,3.5.84,1.05,1.35,3.62.36,4.85-1.81.62-5.2-.64-6.85.22l.04,1.25c2.93-.24,7.4,7.77,8.54,8.73,1.66,1.4,3.4,2.52,6.22,2.58,5.51.11,10.91.04,16.21-1.41,2.42-.67,4.9.75,7.1,1.52,7.35,2.55,8.31,1.29,15.63,1.52,1.49,2.23,3.38,3.43,5.35,5.06.61.5,2.39,1.71,2.86,2.37l1.44,2.55c.97,3.04-7.67-.46-8.25-.72-1.33-.59-2.55-.88-3.78-1.46-1.13-.53-2.25-1.12-3.74-1.29-5.84-.68-3.58-.69-8.82.62-2.89.72-4.91,2.04-6.47,3.74-1.97,2.14-1.59,5.33-1.6,8.59-.02,5.08.04,4.51,1.87,8.36.54,1.14,1.51,1.98,2.23,2.96,1.41,1.91,6.73.69,7.64,2.39.66,1.25.2,3.57-.33,4.4-2.36.21-3.07.27-4.85-.69l-3.39-2.25c-1.24-1.07-1.78-1.42-2.54-3.14-.35-.8-1.5-2.65-2.07-3.34-.78-.93-1.56-2.11-2.77-2.86-2.28-1.41-2.11-.85-3.8-1.66-1.47-.7-2.88-1.02-4.79-.42-1.98.62.31,1.88.05,3.09-.55,2.58-9.14-1.97-10.18,1.23-.61,1.85,1.27,2.53,2.36,3.45.85.72,2.62,2.26,1.29,3.77-1.41.45-3.74.03-5.55.68-1.3.46-3,1.47-2.99,3.04.49.49.79.51,1.34.93,1.32,1,2.32,2.35,3.54,3.36l2.46,2.14c.68.69,1.74,1.25,2.94,1.68,3.35,1.21,3.98,1.07,8.09,1.08,4.11.02,7.38,1.55,11.02,2.8,1.24.43,2.32.56,3.57,1.04,2.17.84,4.28,1.78,6.59,2.59,2.67.93,4.09,1.51,7.35,1.81,10.13.92,8.62-4.76,13.08-4.97,1.83-.09,2.08.71,2.85,1.82,1.6,2.3,3.21,7.22,3.8,10,.6,2.84,1.41,9.39.19,12.43-2.12,5.29-4.93,3.83-9.78,3.97-3.08.09-4.92,1.06-6.61,2.65-.66.61-.44.74-.82,1.45-.75,1.38-2.84,1.72-2.72,3.84.84.66,2.1.53,2.44,1.09.8,1.32-.26,1.77-1.21,1.98-2.52.56-3.19,3.5-2.58,4.1,1.09.61,6.03-1.44,6.48.84-.31.82-.37.41-.98.9-.45.36-.45.61-.81,1.06-.98,1.21-1.09.6-1.04,2.98,4.85,1.27,5.35,1.43,10.58,1.57,5.44.14,11.29.81,13.95-4.25.66-1.26,1.09-3.3,1.75-4.31,2.25-3.45,2.79-7.43,5.54-9.73.7-.59.89-.96,1.43-1.49,1.11-1.07,2.06-1.61,2.62-3.41.62-1.97-.39-3.56.73-5.38.59-.96.61-1.11,1.32-1.81,2.55-2.52.2-4.54.03-6.84-.13-1.77.34-4.23-.35-5.71-.73-1.55-1.86-1.98-2.71-3.35-.41-.66-1.68-7.2.78-4.98.32.28.56.63.93.96,1.85,1.65,5.38,2.79,8.05,2.8,2.09.01,5.3.19,7.27-.06,4.38-.57,4.36-1.56,7.79-3.26.97-.48,2.93-2.8,3.49-3.82.52-.97.78-1.38,1.32-2.24,2.97-4.74,2.68-16.55,1.48-22.68-.2-1-.54-1.76-.71-2.82-.18-1.16-.47-1.78-.75-3.04-.23-1.07-.34-1.64-.51-2.96-.78-6.09-2.63-13.92-1.51-20.27.17-.98,1.94-3.95,2.55-4.71.69-.88,2.42-1.77,3.54-2.18,1.08-.39.83-.12,1.06-.08.05.01.14.12.18.07.17-.28,1.19,4.17,1.08,5.16-.65.31-1.02.08-1.37.85-.63,1.39-.14,8.3-.14,10.23,0,3.3-.04,2.01.84,3.21.92,1.26.18,9.63.72,12.01.28,1.26-.21,3.01.49,3.73.8.77,1.45,0,2.29-.29,2.29-.78,1.25-2.41,2.2-4.08.42-.74.74-1.08.98-1.88,1.65-5.43,1-.64,4.09-5.19.81-1.19,2.23-1.94,2.66-3.35.34-1.12.43-1.25,1.4-1.77,2.36-1.28,1.19-1.71,2.43-3.61.68-1.04,1.11-.61,1.55-1.61.52-1.15.12-.92,1.06-1.85,1.94-1.93,1-2.68,2-4.03,1.58-.15,3.41-.05,3.74-1.55.47-2.11-1.34-1.96-2.46-2.53-.15-1.26.24-1.34.79-2.03.49-.62.66-1.2.94-1.98,1.34-3.9-.33-3.99-1.92-6.27-.41-.58-.68-1.11-1.74-1.21-3.32-.31-1.68,1.64-4.18,1.45-.42-.63-1.23-3.14-1.72-4.29-1.43-3.36-3.11-4.27-6.64-5.11-2.48-.59-3.11.07-5.23.29-4.53.45-5.38,1.54-8.62,3.26-4.53,2.41-4.16,5.57-6.31,5.58-.07-1.35.41-1.58.97-2.76l2.71-4.41c.67-.83.88-1.32,1.47-2.08l3.18-3.93c3.77-4.86,1.17-8.08,2.09-11.95.1-.43.96-1.82,1.23-2.32.39-.72.79-1.43.92-2.36.32-2.15-.38-4.16-.82-6.14-.25-1.14-.58-5.56.54-6.09,2.32-1.11,2.23.28,2.6-4.46.17-2.15.43-1.22,1.21-2.36.55-.8.08-1.46.76-2.61,1.86-3.12,8.13.66,9.76-4.24,1.25-3.75-1.71-8.32-6.2-7.23-1.26.31-2.56,2.66-3.18,3.91-.64,1.29-2.86,2.61-4.54,1.45-.79-1.62-.49-3.12.97-3.63,1.32-.45,2.24-.71,2.57-2.12.58-2.45-1.24-5.65-2.59-6.76-1.14-.95-2.59-.75-4.18-.45-3.02.55-1.16,5.3-2.28,7.28-2.24,3.94-9.75,1.16-7.23-2.61.89-1.32,1.15-1.6,1.2-3.62.06-1.9.18-2.76-.67-4.17-.48-.79-1.73-1.88-2.91-1.94-1.32-.08-2.59.89-3.29,1.55-2.17,2.02-.13,5.95-.52,8.28-4.07,2.52-8.18.66-8.09-4.34.05-2.57.55-4.76-.94-6.38-2.06-2.24-8.39-2.47-7.11,4.86.42,2.41,2.39,2.69,1.68,5.42-.41,1.57-3.91,1.87-5.32,1.09-1.33-.73-.64-3.77-1.52-5.61-.9-1.87-5.34-3.43-7.08-.23-.5.91-.49,1.93-.23,2.95,1.04,4.18,1.23,2.15,3.37,3.98,3.65,3.11,3.84,3.8,3.97,10.45.05,2.64.71,3.89-2.27,4.44-1.82.34-3.84,1.25-5.37,1.93-1.25.55-5.08.2-6.8.34-.93,1.05-1.31,3.39-1.22,5.21.08,1.66,1.08,3.87.41,5.41-1,.64-4.01.34-5.45.3-8.18-.25-4.35-7.51-4.31-9.27,0-.32,0-.3-.06-.59-.37-1.75-4.84-.8-6.68,2.71-1.12,2.14-.73,6.14.38,8.15,1.63,2.95,5.97,5.02,9.13,5.62,1.29.25,2.71.1,4.02.47.05.02.15.13.19.07.04-.06.12.04.18.08.77.51.58,1.16.61,2.3.06,2.22,1.67,3.88,3.77,4.54,2.26.7,1.83,1.9,3.1,2.49,1.66.77,2.98.05,2.57,2.73-2.48,1.31-4.25.07-5.69-1.27-2.29-2.15-2.51-2.09-5.94-2-3.18.08-4-1.06-6.9-1.11-2.68-.04-4.67.25-6.94-.75-5.41-2.37-4.5-2.95-7.1-4.8-1.97-1.4-4.55-3.82-6.09-5.63-1.68-1.98-2.11-4.75-.61-5.49,3.59-.34,2.21,2.86,4.66,3.38,1.13.23,2.48.17,3.16-.81,2.57-3.7-2.29-4.27-4.55-6-.69-.53-1.62-1.22-2.22-1.74-.6-.52-1.6-1.37-1.08-2.4.33-.51,1.87-.55,2.61-1.16,1.06-.88,3.33-5.16,4.41-6.46.67-.8,1.12-1.4,1.61-2.16.59-.91,1-1.44,1.43-2.13,1.2-1.95,3-4.84,4.59-6.48.59-.62.99-1.39,1.49-2.06,1.65-2.21,5.19-9.84,6.57-11.62.53-.69,1.02-1.15,1.54-2.02.8-1.33,1.98-3.16,3.03-4.28.88-.93.74-1.42,1.34-2.41l10.08-15.43c.93-1.61,1.66-3.12,2.67-4.65.62-.94.94-1.23,1.43-2.35.77-1.74,4.2-5.89,2.57-7.11-1.52-1.07-2.85,1.59-3.6,2.55-.92,1.18-1.96,2.36-3.01,3.48-.55.59-1.01,1.17-1.59,1.75l-6.45,6.72c-2.24,2.21-2.89,3.93-4.35,5.48-2,2.12-3.88,5.09-6.05,6.47-.31.2-.11.09-.33.18h0Z"/>
      <path class="cls-23" d="m199.9,349.73c-.13,1.76.16,1.4,1.74,1.39,1.59-.02,4.82.43,6.25.97,1.95.73,2.1.21,2.09,1.43-1.56.77-3.75-.5-5.41-.7-1.26-.14-1.75.03-2.7.49-1.32.64-1.38.36-2.64.73-.58,1.59.07,3.06.19,4.6l.51.73c2,.15,3.13-.98,5.25-1.16,1.03-.09,2.12-.05,3.16-.06,1.23,0,1.86-.18,1.98,1.01-.91.95-3.72.31-6.2,1.41-1.29.57-1.68.31-2.15,1.66-.38,1.1.07,2.24.49,2.99,1.21.23,2.97.17,4.03-.11,1.13-.3.46-.32,1.44-.72,7.06-2.89,5.41-.11,8.39-.38.94-2.04-.17-5.9.68-7.69.58-1.22,1.19-1.6,1.81-2.38.41-.52.41-1.02.71-1.38.31-.38-.22-.36.72-.39,2.72-.08-1.13,4.48-1.21,5.08,3.51-.32,2.19-.57,3.59-2.63,1.19-1.75.88-3.13.69-5.45-1.23-.64-1.68-.67-1.39-2.75.55-3.81,1.77-6.17,1.97-10.26.1-1.96.65-2.08.9-3.19.15-.68.14-3.15,0-3.86l-1.76-6.33c-.72-1.97-1.11-4.4-1.74-6.49-.66-2.2-1.16-4.68-.29-6.8.82-2.05-.02-2.76,1.88-4.35.38-.32.77-.72,1-.88.51-.34,2.38-.58,3.24-.95,1.29-.55,1.82-.09,2.65.54.53,6.79-5.23,3.7-3.13,15.08.11.6.12,1.21.75,1.33,1.98.37-.89-3.11,1.08-6.43.74-1.24.84-.76,1.39-2.38.32-.93.78-1.71,2.12-1.6.78.35.75,4.75,4.58,6.5,2.96,1.35,5.81,1.46,9.65,1.26,1.6-.08,4.74-1.37,5.91-2.29,1-.79,1.92-.71,3.47-1.97.95-.77,3.07-3.64,3.5-4.61.95-2.1.99-18.35.33-20.71-.6-2.15-.93-4.76-1.14-7.05-.13-1.43-1.55-4.55-1.8-11.71-.1-2.73-.42-5.41-.32-8.16.05-1.18.25-1.3.43-2.3.27-1.5.64-2.94,1.14-4.34.23-.64.41-1.28.68-2.05.3-.9,2.57-4.47,3.13-5.01.54-.52.74-.96,1.3-1.42.29-.23,1.38-1.18,1.46-1.22.8-.33,1.32-.02,2.16-.57,1.8-1.18,3.18-2.24,5.66-2.44,1.33-.11,3.61-.81,4.54.4.66.87.84,3.37.61,4.73-.44,2.62-7.92.65-7.27,3.53.13.57,3.15,2.77.64,3.11-1.13.15-1.42-.08-1.36,1.54.05,1.44.36,1.05,1.11,1.71,2.3,2.05-2.72,3.84-1.18,8.33l1.64.4c.39,3.55-1.71,6.3-1.4,8.96,1.06.18,1.29-.17,1.76-1.09,1.09-2.16,1.29-3.39,2.86-5.72,1.09-1.62.75-1.96,2.33-3.52.51-.5.93-.85,1.5-1.42.49-.49.63-.91,1.18-1.53,1.32-1.46,1.15-2.4,1.15-4.66,0-1.88,0-3.76,0-5.65.02-2.94.53-8.28-1.3-10.14-2.56-2.61-5.84-1.92-9.1-1.52-2.5.31-6.18,1.71-8.12,3.35-2.37,2.01-6.99,7.23-7.01,10.39-.03,4.29-2.02,4.55-2.16,6.28-.2,2.47-.06,6.04-.05,8.57.01,17.38,3.69,22.35,3.71,30.73.02,6.16,1.12,9.28-4.05,12.84-1.04.72-2.21,1.52-3.48,2.14-2.19,1.07-8.07,1.06-10.4.25-1.34-.47-2.66-1.15-3.16-2.64-.69-2.07-.99-1.79-2.61-2.97-.19-1.71.59-2.43,1.03-3.71.94-2.72,1.88-5.02,1.32-8.15-.33-1.87-.09-3.33-1.86-3.01-.7,1.76-.12,3.54-.75,5.1-2.45.6-2.5-3.56-3.18-5.31-.41-1.04-.64-2.2-.87-3.45-.33-1.76-2.86-8.96-3.5-9.72-1.07-1.26-2.82-4.07-5.38-3.23-2.61,1.61-1.03,7.79-2.52,10.08l-1.17-.06c-.23-.84.38-4.07-.63-4.2-.74-.09-1.01-.48-1.29,1.83-.14,1.18-.21,1.83-.21,3.16.02,3.57-1.4,1.62-3.42,3.15-1.47,1.12-.71,3.61-1.74,4.97-.7.91-2.43,2.85-2.66,3.81-.86,3.54.41,10.58,2.69,13.78.6.84,1.03.64,1.47,1.85.76,2.08.99,2.44,2.2,4.29,1.64,2.52,3.17,6.62,3.7,9.71,1.03,6.01,1.7,5.45.83,11.55-.49,3.47.16,2.55-1.89,4.81-1.28,1.41-1.11,2.1-3.72,2.73-3.55.85-8.23-1.61-11.01,1.62h0Z"/>
      <path class="cls-23" d="m199.44,316.51c.27,1.99-2.01,1.68-3.65,1.68-3.84.02-5.91-.4-9.24-1.6-4.99-1.8-4.97-4.82-.45-3.13,1.62.61,2.03.94,4.04,1.44,1.62.4,2.31.98,4.38,1.1,1.74.09,3.77-.29,4.92.51h0Zm-44.24-11.07c-.53,1.6-.32,2.62.32,3.86,2.43,4.74,11.76,1.35,18.59,4.21.73.3.8.49,1.55.76.61.22,1.09.27,1.72.57,1.06.5,1.84.89,3.07,1.29,4.7,1.57,5.98,3.4,13.8,4.39,4.71.59,9.11-3.02,9.31-4.23.18-1.16-.97-4.31-1.38-5.48-.2-.57-.4-1.2-.6-1.77-.3-.82-.48-2.91-1.11-3.47-.84-.73-2.24-.43-3.05-1.57-.71-.99-.53-2.32-.61-3.79-.38-6.82-1.59-3.25-2.76-6.42-1.22-3.29-.18-4.48,1.26-6.61.86-1.27,1.26-1.29,2.47-2.13.75-.52.57-.62,1.15-1.15.7-.65.78-.3,1.63-.63,1.1-.43,1-1.45,2.98-1.62,1.33-.11,2.88.13,3.99-.46l-.06-1.2c-1.66-.23-7.19-.93-8.59-1.47l-6.94-2.68c-1.65-.4-4.36-.42-6.2-.32-1.19.07-6.27,1.75-6.99,2.84-1.79,2.72.69,3.59-.24,4.99-.45.68-1.11.96-.85,2.18.21,1,.88.55.87,2.56,0,1.17-.43,1.86-.38,3.03,3.72.11,1.41.44,1.8,2.83.91.82,1.67.57,2.85.89.95.26,1.39.67,2.33,1.16,5.65,2.93,3.3,9.25,2.63,9.77-1,.78-4.78.65-6.15.05l-4.53-2.79c-1.41-1.47-2.17-1.86-3.14-3.96-3.82-8.28-7.43-5.81-7.34-4.5.04.55.79,1.04,1.23,1.39,1.31,1.06,2.77,4.32,2.23,4.87-1.93,1.06-2.26-1.24-3.01-2.4-1.5-2.32-4.42-3.62-6.78-.66-.66.83-1.8,2.59-2.04,3.5,1.75.89,4.99-.16,5.12,1.7.13,1.75-2.22.74-3.13.63-3.52-.39-4.37-.16-5.03,1.85h0Z"/>
      <path class="cls-23" d="m216.56,259.17c-.41-.81-.46-.76.04-1.48.91-1.33,2.78-2.49,4.55-2.06l.12.89c-.85.52-1.64.53-2.45,1.29-.72.68-.93,1.63-2.26,1.36h0Zm4.78-7.24c.05.72.27,1.17.06,1.97l-1.28.05c-3.23-4.14-3.39-3.05.31-5,1.5-.79,1.5-1.03,3.5-.5.07,1.04-.43,1.15-.99,1.96-.58.84-.82.87-1.59,1.51h0Zm-10.37-10.93c-.49.59-1.3,1.58-2.15,1.43-2.6-.45.29-3.78,1.39-3.81,1.26-.04,1.4,1.6.76,2.38h0Zm1.41-9.24c-.82.3-2.16.09-3.18.16-.76.95-.95,2.03-2.6,2.98-1.31.74-3.05-.5-5,.86v1.15c1.2.49,1.49.32,2.91.46.21,1.59-1.11,1.34-2.4,1.85l-3.31,1.07c-3.09,1.34-6.29-.6-6.18,2.88,1.07.11,2.94.14,4.02.05,2.99-.25,2.15-1.66,5.91-2.09,2.08-.24,1.86-.33,3.2.63,1.3.93,1.27.6,1.32,2.63.03,1.68.32,1.95-.73,3.23-1.19,1.45-2.32,3.32-2.16,5.77,2.15.29,2.32-3.19,3.67-2.04.32.3.16-.46.32.59.21,1.49-2.41,2.57-3.11,3.59-.43.63-.97,5.93.98,6.27,1.22-.09.54.09,1.16-.6,1.77-1.94,1.41,1.52,1.75,2.64,2.79.26,1.77-1.71,3.39-2.12.68,1.5.11,3.3,2.5,3.16l.53-2.21c1.27-.25.71-.15,1.4.28.33.21.07.23.58.29,1.67.2.8-1.44.94-2.45.96-.46,1.38-.45,2.55-.25.48,1.7.12,2.91.45,4.16,2.19.22.19-.71,3.84-6.86.83-1.39.52-2.99,1.28-3.95.75-.96,2.2-1.49,3.24-2.17.05-2.49-3.5-1.78-2.84-4.82,1.47-1,3.25-1.72,4.75-2.71.72-.48,1.21-1.29,2.17-1.57.91-.27,2.81-.04,3.92-.09,1.28-2.03,1.13-1.12,3.55-1.82,1.38-.4,2.7-1.07,2.64-2.75-1.75-1.1-3.1-.41-5.38-.7-2.71-.34-6.04-2.68-8.09-4.22-.68-.51-1.29-.6-1.88-1.26-.55-.62-.62-1.51-.8-2.34-1.79-.05-2.06.89-4.49.65-.9-.09-1.25-.45-2.26-.13-.79.25-.98.78-1.48,1.07-2.74,1.61-4.93-1.14-5.75-.73-.59.29-.31.91-1.32,1.45h0Z"/>
      <path class="cls-23" d="m161.96,260.07c.41-1.02,1.49-.85,2.67-.85,5.16.04,7.68-1.15,9.43-1.26.19,2.71-2.92,2.59-5.24,2.76-1.69.12-6.12,1.01-6.86-.66h0Zm32.98,3.24c1.72-.14,2.36.07,3.47-.8.19-1.61-1.88-2.36-3.23-2.41-3.14-.13-7.67.57-11.02.14-1.32-.17-3.13-.71-3.78-1.84.03-3.17,6.82.12,14.15-3.36,1.45-.68,5.87-1.69,4.5-5.7-.61-1.79-2.38-2.14-4.39-2.72-1.52-.44-4.79-.63-6.45-.2-1.62.43-3.4,1.42-5.05,1.82-1.1.26-2.3.08-3.44.17-1.11.09-1.43.39-2.92.41-6.84.09-6.31-1.36-10.23-3.82-1.3-.82-3.02-2.41-5.25-1.9-1.21.28-.84,1.94-.31,2.66.46.63,1.06,1.16,1.59,1.74.35.39,1.63,1.85.17,2.08-1.15.18-2.69-2.55-4.18-2.83-4.45-.82-4.1,4.34-2.52,5.6,1.07.86,3.65,1.9,2.88,3.46-1.64.78-4.42-2.75-6.49-1.06-2.86,2.33,1.52,6.77,3.73,7.74,2.45,1.08,5.13.7,8.07.69,1.79,0,2.34-.14,3.78-.34,1.44-.19,2.93.11,4.36-.07,2.59-.33,1.61-2.41,10.85.07,2.42.65,4.95.8,7.77.84,3.56.05,2.31-.25,3.96-.38h0Z"/>
      <path class="cls-21" d="m215,209.73c.28.18-.25.05.48.19.3.06.27.05.58.06.89.01,4.2-.95,9.42-.97,1.8,0,4.17-.27,5.35.59,2.32,1.7,4.58,6.51-.16,8.66-2.13.97-6.26-.38-8.53-.47-3.05-.12-6.25-.27-9.22-.14-.4.59-1.17,1.48-.45,2.96.47.98,1.46,1.13,2.77,1.06,1.25-.07,1.98-.53,3.15-.64,5.75-.53,14.23,1.36,17.15-1.06.7-.58,1.53-.91,1.7-1.9.82-4.79-3-7.25-1.94-8.38,1.09-1.16,2.77,1.4,2.78,1.41,2.03,1.61,3.8-1.62,6.66-1.89,1.35-.12,3.49-.24,4.78,0,1.9,3.05-.75,3.05-1.11,3.16-.55.15-.94.41-1.34.68l-.08,1.85c2.4,1.48,2.46.35,6.11-.99.66-4.84-.82-4.67-1.77-5.6-2.04-1.98.3-3.81-3.68-3.89-6.77-.13-.82,2.45-12.34,2.34-1.09-.01-2.35.01-3.41-.16-1.37-.23-3.85-2.53-4.14-3.31-.53-1.39.12-4.19,1.72-3.23.79.48.03.63,1.04.9.91.25,2.5-.3,3.23-.55,3.11-1.08,2.93-1.09,6.79-1.11,2.49-.02,5.46.04,7.78.31,1.36.16,3.26.48,3.4-.78.25-2.18-7.64-2.8-9.5-2.82-2.3-.02-5.78.04-8,.35-.71.1-1.15.06-1.83.11-1.64.11-6.09,1.85-7.79,2.52-1.06.42-2.21.46-3.22.98-3.45,1.77-6.26-.23-6.53,1.59l-.11,7.33c.09.77-.06.35.26.85h0Z"/>
      <path class="cls-23" d="m190.12,179.41c.28.34.13-.45.28.64.16,1.22-2.69,4.93-3.41,5.81l-4.24,6.21c-.57.93-.66,1.18-1.12,2.22-.73,1.64-.9,1.29-.87,2.02.06,1.59,1.13.3,1.76-.51.43-.54.94-.99,1.38-1.54l4.71-7c.41-.66.67-1.33,1.03-1.92l11.72-17.77c.45-1.07.47-.98,1.05-1.88.37-.57.66-1.2,1.09-1.8l3.59-5.19c.91-1.24,1.54-2.47,2.54-3.52,1.53-1.59,6.31-9.82,6.98-10.59.79-.91,2.1-2.62,1.95-4.05-1.58-.08-1.09.87-2.28,1.86-.46.38-1.71,1.67-2.06,2.14-1.57,2.12-1.73,1.63-3.84,4.7-2.09,3.05-4.48,4.92-5,5.66-3.24,4.5-2.82,4.02-6.71,8.14-.99,1.05-.93.97-1.86,2.32-.23.34-.56.89-.86,1.23-.34.38-.81.74-1.16,1.14-2.85,3.24-5.19,5.82-7.81,9.33-2.2,2.95-3.38,3.55-5.69,6.83-1.49,2.12-4.03,5.46-5.81,7.18-1.3,1.27-1.59,2.11-1.05,4.85.15.77,0,1.48.54,1.79.66.38,2.39-.82,2.85-1.14.75-.52,1.2-1.73,1.62-2.58.47-.95,4.94-8.03,5.9-8.95,1.07-1.03,1.98-2.34,2.67-3.83.41-.89.96-2.62,2.11-1.81h0Z"/>
      <path class="cls-23" d="m177.13,229.73c.41-1.01-.09-1.73.06-2.87,2.66-.35,4.67,1.8,7.37,3.69l4.8,3.56c.78.38,2.31.4,2.56.16.03-.06.05-.21.06-.18,0,.03.04-.13.05-.18.14-.63.1-1.08.4-1.44.25-.31.97-.57,1.48-.77,1.42-.54,2.27-.52,3.2-1.72.22-2-.1-2.41-1.62-3.08-3.01-1.32-4.35-.39-6.64-2.94-.51-.57-.59-.58-1.25-1.06-.66-.48-.74-.69-1.31-1.2-.79-.72-1.82-1.23-2.7-1.89-2.04-1.52-3.43-3.74-4.59-5.02-1.07-1.18-.96-1.87-3.01-1.66-.64.77-1.01,1.56-1.7,2.47-1.8,2.38-7.45,3.5-6.09,6.22,1.84,3.67,4.39,4.84,5.99,6.56.63.67,1.49,1.64,2.95,1.36h0Z"/>
      <path class="cls-26" d="m253.54,190.51c.13-1.27.62-1.07,1.78-.6.25.93.46,4.12-.57,4.52-1.44.08-1.39-.36-1.54-1.52-.12-.89-.36-2.09.33-2.4h0Zm-16.17-9.26c1.34-1.05,2,3.8-.82,3.75-.99-.02-1.69-1.07-.83-1.85,1.78-1.61,1.11-1.48,1.65-1.91h0Zm-7.82,1.58c-.46,3.6,4.79.57,5.13,4.3.12,1.33.23,2.96,1.86,2.91,1.83-.05,1.3-1.76,2.11-2.88,2.18-.33,1.36,1.33,1.45,3.31.15,2.86.12,3.49,1.67,3.65,2.25.23,1.92-.91,1.92-.92-.05-.82-.79-1.26-.94-2.16-.18-1.1-.02-2.89.42-3.57,1.71-.5,8.21.91,9.05,1.74-.13,1.37-.91.93-.55,3.05.16.92,0,2.78.35,3.45.55,1.01,4.63,1.76,5.82,1.19.6-1.28.17-4.12.25-5.8,3.43-.19,4.16.43,4.28-1.41-1.86-1.07-7.98-1.73-11.59-2.98l-2.71-.74c-2.82-.65-5.1-.57-6.54-1.58-.26-2.39-.07-2.63-1.46-4.15-.58-.64-.59-1.05-1.31-1.41-3.21-1.58-1.71,2.38-4.43,3.17-1.55.45-3.73.11-4.79.81h0Z"/>
      <path class="cls-21" d="m227.67,223.39c-.28.76-.06,2.31.53,3.05.89-.11,1.68-1.34,2.59-.52.94.83-.16,1.16-.59,1.71-.56.71-.64,1.77.04,2.41,1.52.84,2.84-1.39,3.51-2.2,2.01-.14,1.56.5,2.6.78.59-1,.74-1.81,2.27-1.31,1.07.35,2.36,1.17,3.18,1.19,1.97.05,1.77-1.07,2.87-1.45.52-.18,5.47.12,5.41-3.34-.02-1.36-.92-2.35-2.27-1.92-1.28.4-1.34,1.36-2.58,1.76-.51.17-3.22.73-3.66.72-3.65-3.27.19-3.02,2.73-3.9,2.22-.78,2.46-4.01-.5-2.58l-1.47,1.04c-1.21,1.1-2.46.28-3.65,1.15-.69.5-.32.51-1.28,1.01-.63.33-.97.62-1.52,1.02-3.18,2.33-4.93.46-8.23,1.39h0Z"/>
      <path class="cls-21" d="m209.56,273.06c-.83-1.17-.65-1.86-2.31-1.74-.08,2.74,4.76,4.09,2.7,10.64-.56,1.77-1.96,2.8-3.27,3.85-1.33,1.07-2.88,2.18-1.42,4.53l1.23.06c.59-.83.89-1.76,1.83-2.33,1.02-.6,2.43-.23,2.9-1.05.33-.58.19-2.27.66-3.34,1.45-3.28,2.7-6.01-.32-8.66-.68-.59-1.44-1.17-2-1.96h0Z"/>
      <path class="cls-21" d="m169.44,209.28c.53-1.65.46-5.4.06-7.14-.34-1.46.03-1.88-1.31-2.13-4.95-.92-5.34,4.32-3.57,6.35,1.11,1.27,1.31,3.5,4.81,2.92h0Z"/>
      <path class="cls-5" d="m186.55,316.59c3.33,1.2,5.41,1.62,9.24,1.6,1.65,0,3.92.31,3.65-1.68-1.15-.8-3.18-.42-4.92-.51-2.07-.12-2.76-.7-4.38-1.1-2.01-.5-2.42-.83-4.04-1.44-4.52-1.69-4.54,1.34.45,3.13h0Z"/>
      <path class="cls-26" d="m180.15,232.07c-2.03,1.68,1.7,5.02,2.86,6.09.66.62,5.65,3.9,7.12,3.33,2.28-.89-2.78-2.3-4.71-4.69-1.37-1.69-3.75-5.98-5.26-4.73h0Z"/>
      <path class="cls-22" d="m199.03,226.75c-.67,3.93,2.15,2.14,3.21,4.1.39.72.81,1.93,1.46,2.27,1.11.58,2.44-.06,2.97-.63,1.66-1.8-.35-3.27-1.53-4.34-1.43-1.28-3.47-1.63-6.11-1.41h0Z"/>
      <path class="cls-21" d="m172.24,199.54c-.55,1.91.25,4.19.81,5.89.63,1.91.87,3.59,1.61,5.31,2.01.12,1.78-.62,1.74-2.5-.03-1.37.06-3.05-.22-4.24-.38-1.54-1.65-5.74-3.94-4.46h0Z"/>
      <path class="cls-21" d="m159.94,205.22c-1.08,2.64.79,5.1,2.45,7.35.64.87,1.19,1.39,2.33.58,1.84-1.32-.44-3.91-.92-4.9-.53-1.09-2.02-3.41-3.86-3.03h0Z"/>
      <path class="cls-21" d="m255.36,203.82c-.26.09-.43.21-.66.37.14,4.38,7.19,0,5.8-4.41-.9-.38-2.45-.3-3.3-.47-1.75-.13-2.49,0-2.05,2.03.95.3,2.9-.1,2.29,1.39-.21.52-1.52.95-2.08,1.09h0Z"/>
      <path class="cls-8" d="m161.96,260.07c.74,1.67,5.18.78,6.86.66,2.31-.17,5.43-.05,5.24-2.76-1.75.11-4.27,1.29-9.43,1.26-1.18,0-2.26-.18-2.67.85h0Z"/>
      <path class="cls-17" d="m160.03,190.68c-1.07.94.75,1.92,1.32,2.24,1.73.99,6.21,5.5,7.52,4.27,1.14-1.08-2.43-3-3.74-3.86-1.46-.95-4.15-3.48-5.1-2.65h0Z"/>
      <path class="cls-21" d="m161.44,216.55c.7-1.66-1.04-4.75-2.04-5.8-.81-.86-.46-1.32-1.8-1.38-1.22,2.25.42,7.97,3.84,7.18h0Z"/>
      <path class="cls-23" d="m275.05,186.76c-.24,2.14-.18,2.03,1.27,2.87.92.53,1.87,1.02,3.09.37.51-.99.28-1.74.16-2.82-.27-.52-.42-1.21-.98-1.54-.53-.31-1.85-.47-2.58-.44-.25.49-.75,1.21-.97,1.55h0Z"/>
      <path class="cls-6" d="m221.34,251.93c.77-.64,1.01-.68,1.59-1.51.56-.81,1.06-.92.99-1.96-2-.53-1.99-.29-3.5.5-3.7,1.95-3.54.86-.31,5l1.28-.05c.22-.8,0-1.25-.06-1.97h0Z"/>
      <path class="cls-12" d="m199.42,358.64c-.13-1.55-.78-3.01-.19-4.6,1.27-.37,1.32-.09,2.64-.73.96-.46,1.44-.63,2.7-.49,1.66.19,3.85,1.47,5.41.7,0-1.21-.14-.69-2.09-1.43-1.43-.54-4.66-.98-6.25-.97-1.58.02-1.87.37-1.74-1.39-.2.18-.71.14-.37,1.69,1.36.45,2.54-.18,3.78.41-.41.72-1.29.91-2.54,1.38-1.53.58-.64-.75-2.27-.55-.1.19-.48,4.86.92,5.97h0Z"/>
      <path class="cls-22" d="m249.62,249.11c2.09.19,2.59-.73,2.81-2.62.12-1.04.7-3.58.54-4.39-.24-1.18.32.84-.12-.38l-.19-.36c-1.26,0-1.07.27-1.49,1.34-.27.68-.59,1.07-.91,1.82-.49,1.18-.72,3.09-.65,4.59h0Z"/>
      <path class="cls-21" d="m238.05,262.99c-.61-.89-1.36-2.37-2.89-2.01-.03.15.11,4.18.17,4.5.25,1.35,1.23,2.01,2.73,1.93.59-1.18.79-3.25-.01-4.42h0Z"/>
      <path class="cls-21" d="m222.53,174.96c-2.34,1.29.56,4.99,2.91,4.21,1.01-.34.92-2.65.36-3.46-.59-.86-2.32-1.28-3.27-.75h0Z"/>
      <path class="cls-21" d="m238.53,174.52l.07-.56c.03-.87.18-2.05-.12-2.72-1.36-2.8-5.96.23-2.32,3.54,1.21,1.1,1.84.1,2.37-.25h0Z"/>
      <path class="cls-26" d="m251.77,172.63c-1.16.46-1.73,1.2-1.45,2.78.22,1.22,1.84,1.65,3.1,1.21,2.2-.76,1.19-5.11-1.66-3.98h0Z"/>
      <path class="cls-21" d="m159.16,223.03c.5-1,1.02-1.95.97-3.31-.05-1.41-1-2.25-2.52-2.2-.73,1.68-2.1,5.9,1.55,5.51h0Z"/>
      <path class="cls-21" d="m250.45,184.53c1.69.79,2.5,1.38,4.86,1.28-.12-1.62-1.4-1.93-2.12-2.77-.9-1.05-.38-2.43-2.51-1.87l-.23,3.36Z"/>
      <path class="cls-27" d="m218.78,214.62c.45-.48.32-.6.89-1.11.52-.46.7-.45,1.08-1l-.04-.79c-1.11-.81-3.26-.72-4.19.28-.33,1.54-.22,3.51,1.21,3.75.68-.71.18-.64,1.04-1.13h0Z"/>
      <path class="cls-21" d="m265.57,180.65c.59.56.56.6,1.47,1.12.48.28.83.52,1.49.43,1.51-.23.86-1.17.77-2.62-1.21-.89-1.47-1.68-3.27-1.63-.75.93-.82,1.34-.45,2.7h0Z"/>
      <path class="cls-18" d="m265.04,217.89c.86-1.9-.2-5.47-1.96-4.68-.86.38-.82,2.21-.45,3.06.32.74,1.35,1.61,2.41,1.62h0Z"/>
      <path class="cls-18" d="m243.41,203.07c.51-.65.59-.09,1-1.1-.34-.56-.16-.44-.95-.62-3.61-.2-3.75-.22-3.55,2.3,0,.05-.11,1.05.99.82.29-.06,1.42-1.03,2.51-1.39h0Z"/>
      <path class="cls-26" d="m263.27,221.97c.53-.94.82-1.49.07-2.47-2.57-3.36-3.2.07-2.46,1.6.4.84,1.32,1.09,2.39.87h0Z"/>
      <path class="cls-22" d="m226.09,227.26l-.19-1.68-.84-.66c-.88.12-1.11.7-3.2,1.42l.11,1.13c1.76,1.42,3.01.27,4.12-.21h0Z"/>
      <path class="cls-8" d="m210.97,240.99c.64-.78.5-2.42-.76-2.38-1.1.03-3.99,3.36-1.39,3.81.85.15,1.67-.84,2.15-1.43h0Z"/>
      <path class="cls-10" d="m216.56,259.17c1.33.28,1.54-.67,2.26-1.36.81-.77,1.6-.77,2.45-1.29l-.12-.89c-1.77-.43-3.64.74-4.55,2.06-.5.72-.45.67-.04,1.48h0Z"/>
      <path class="cls-7" d="m237.37,181.25c-.54.42.13.29-1.65,1.91-.86.78-.15,1.83.83,1.85,2.82.05,2.16-4.8.82-3.75h0Z"/>
      <path class="cls-27" d="m230.64,203.22c.34.85,1.31,1.33,2.36,1.46,2.14.27,2.37.04,2.14-1.95-.86-.13-3.69-.08-4.51.49h0Z"/>
      <path class="cls-9" d="m238.53,174.52c-.53.35-1.16,1.35-2.37.25-3.64-3.31.96-6.34,2.32-3.54.3.68.16,1.86.12,2.72.18-.14.56.17.49-1.67-.03-.86-.06-.87-.35-1.67-1.04-.86-2.59-1.22-3.8-.38-.73,1.06-.7,3.65.08,4.42.02.02,3.25,2.32,3.51-.14h0Z"/>
      <path class="cls-3" d="m253.54,190.51c-.02,1.11-.09,2.64.32,3.54l.98.06c.27-.76.34-1.82.33-2.82-.03-1.5-.54-1.57-1.51-.88-.03.02-.08.07-.12.09h0Z"/>
      <path class="cls-16" d="m218.78,214.62c-.86.5-.36.43-1.04,1.13-1.43-.24-1.54-2.21-1.21-3.75.93-1,3.08-1.09,4.19-.28l.04.79s.75-.09.29-1.05c-.12-.27-.68-.46-1-.54-5.22-1.35-4.12,3.95-3.71,4.6.46.35.84.64,1.62.63.53-.61.69-.67.83-1.53h0Z"/>
      <path class="cls-25" d="m226.09,227.26c-1.11.48-2.36,1.63-4.12.21l-.11-1.13c2.09-.72,2.32-1.3,3.2-1.42l.84.66-.18-.88c-1.16-.49-1.31-.07-2.11.47-.68.45-1.5.59-2.12.99-.14,1.75.06,2.12,1.69,2.28,1.07.11,2.64,0,2.91-1.18h0Z"/>
      <path class="cls-15" d="m243.41,203.07c-1.09.37-2.23,1.34-2.51,1.39-1.09.24-.98-.77-.99-.82-.2-2.53-.06-2.51,3.55-2.3-.64-1.01-3.4-.29-3.88.06-.05.61.01,1.28-.06,1.82-.08.61-.38.84-.33,1.54,1.5.09,1.83.29,3.33-.75.64-.44.61-.35.89-.93h0Z"/>
      <path class="cls-24" d="m279.59,187.18c.12,1.07.35,1.82-.16,2.82-1.23.65-2.18.16-3.09-.37-1.45-.84-1.51-.73-1.27-2.87-.58.4-.33-.76-.48.97-.03.3.11,1.08.16,1.39,1.1.9,2.43,2.09,4.69,1.3.66-.68,1.09-2.5.16-3.24h0Z"/>
      <path class="cls-14" d="m253.54,190.51s.09-.07.12-.09c.97-.69,1.48-.62,1.51.88.02,1-.05,2.05-.33,2.82l-.98-.06c-.41-.91-.34-2.43-.32-3.54h0Zm0,0c-.7.32-.45,1.51-.33,2.4.15,1.16.1,1.6,1.54,1.52,1.03-.41.82-3.6.57-4.52-1.16-.47-1.65-.67-1.78.6h0Z"/>
      <path class="cls-11" d="m255.36,203.82c.56-.14,1.87-.57,2.08-1.09.61-1.49-1.34-1.09-2.29-1.39-.44-2.03.3-2.16,2.05-2.03-.34-.38.98-.68-2.24-.31-.24.77-.47,1.57-.32,2.55l2.34.44c.1,1.29-.16.69-1.08,1.28-.52.33-.25.1-.54.55h0Z"/>
      <path class="cls-9" d="m265.57,180.65c-.36-1.37-.3-1.77.45-2.7,1.8-.05,2.07.73,3.27,1.63.21-1.3-2.42-2.36-3.62-2.2-.49.78-1.28,2.09-.54,2.97.34.41-.15-.03.43.31h0Z"/>
      <path class="cls-13" d="m184.26,207.78c1.65-.25,2.36.31,2.17,1.96-.82.03-.95-.03-1.53-.45-.64-.46-.74-.52-.64-1.51h0Zm2.12,2.45c1.72-1.75-.23-3.17-2.49-2.81-.08,1.2-.13,1.39.64,2.05.6.52.8.82,1.86.76h0Z"/>
      <path class="cls-26" d="m186.43,209.75c.19-1.66-.52-2.22-2.17-1.96-.1,1,0,1.05.64,1.51.58.43.72.48,1.53.45h0Z"/>
      <path class="cls-28" d="m250.16,89.75c.38,8.2-.14,15.97-.38,23.8l-8.18-.59,2.75-38.11,8.91.66,5.97,24.82c-.34-8.02.05-16.7.33-24.38l8.27.59-2.7,38.13-9.1-.67-5.88-24.25Z"/>
      <path class="cls-28" d="m280.66,102.5l4.95.61-.49-15.89-4.45,15.29Zm13.91,16.03l-8.6-1.1-.33-7.57-6.8-.87-2.24,7.25-8.65-1.1,13-36.84,10.3,1.28,3.32,38.96Z"/>
      <path class="cls-28" d="m209.11,97.85c.18,1.69.18,3.11.15,4.8-.14,6.66-3.36,10.91-11.77,11.33-9.41.46-12.17-4.98-12.95-11.81-.63-5.54-.86-11.29-.56-17.22.32-6.34,4.23-9.63,10.98-10.24,7.47-.68,12.03,3.34,13.06,9.6.21,1.25.37,2.4.41,3.8l-8.55.46c-.07-.86-.12-1.72-.23-2.57-.26-2.04-1.27-4.2-3.34-4.14-2.61.07-3.51,1.49-3.53,3.98-.02,5.15.28,10.35.66,15.38.21,2.84,1.16,5.98,3.76,5.8,2.6-.18,3.45-2.21,3.39-4.23l-.13-4.48,8.66-.47Z"/>
      <path class="cls-28" d="m166.52,92.14l10.75-1.11.78,7.64-10.74,1.14.88,8.2,11.71-1.23.77,7.43-20.72,2.18-4.09-37.99,20.55-2.15.82,7.82-11.45,1.2.74,6.89Z"/>
      <path class="cls-28" d="m135.12,88.95l1.68,9.34c.78-.12,1.53-.32,2.29-.49,1.03-.22,3.88-1.36,3.11-5.47-.47-2.55-2.07-3.96-4.85-3.64-.75.09-1.5.12-2.24.26h0Zm12.04,29.61c-.65-.98-1.09-2.31-1.5-4.4-.39-2.06-.72-4.14-1.07-6.21-.44-2.61-2.37-3.83-4.76-3.38l-1.83.34,2.65,14.82-8.63,1.55-6.75-37.62,11.17-2c7.55-1.36,12.87.46,14.16,7.91.8,4.63-.12,8.25-3.21,10.03,2.53.52,4.73,2.55,5.46,5.8l1.52,6.78c.45,2,1.6,3.88,2.57,4.61l-9.79,1.76Z"/>
      <path class="cls-28" d="m125.45,113.82l2.04,8.44-8.48,2.05-2.27-8.48,8.71-2Z"/>
      <path class="cls-28" d="m352.05,103.12c2.18-5.97,6.74-8.32,13.81-5.8,6.91,2.47,8.93,7.56,6.7,13.71l-.41,1.12-7.54-2.64.53-1.47c.86-2.34.02-3.66-1.64-4.24-1.79-.62-3.2.38-3.66,1.79-.42,1.28.41,3.17,1.38,4.6,2.29,3.41,5.65,6.25,6.61,10.3.59,2.51-.18,5.54-1.1,7.78-2.39,5.84-7.27,8.51-14.66,5.9-6.17-2.17-8.79-7.05-6.95-12.84l1.2-3.77,7.68,2.77-.82,2.67c-.64,2.08-.47,4.34,1.77,4.85,1.92.44,3.34-.48,3.73-1.86.46-1.63.27-2.86-.68-4.86-1.82-3.86-5.4-6.46-6.57-10.86-.64-2.44-.21-4.86.61-7.12h0Z"/>
      <path class="cls-28" d="m87.38,124.54l3.2,8.2-8.2,3.09-3.15-8.14,8.14-3.14Z"/>
      <path class="cls-28" d="m48,109.88l12,24.38c.98,1.98,2.15,2.92,4.17,1.93,1.87-.91,2.07-2.52,1.19-4.3l-12.12-24.59,7.95-3.88,11.77,23.86c2.79,5.65,2.53,11.64-5.52,15.61-8,3.94-12.67.86-15.62-5.14l-11.77-23.98,7.94-3.9Z"/>
      <path class="cls-28" d="m174.34,389.95v36.43h-10.06v-23.84c-1.62,1.23-3.2,2.23-4.73,2.98-1.53.76-3.44,1.49-5.73,2.19v-8.11c3.39-1.1,6.02-2.42,7.89-3.95,1.88-1.54,3.34-3.44,4.4-5.7h8.22Zm11.26,28.41l9.91-1.24c.26,1.37.7,2.34,1.32,2.9.63.57,1.39.85,2.28.85,1.6,0,2.84-.8,3.75-2.41.65-1.19,1.14-3.7,1.46-7.54-1.19,1.23-2.41,2.12-3.67,2.68-1.25.57-2.7.86-4.35.86-3.21,0-5.92-1.14-8.13-3.42-2.21-2.29-3.31-5.17-3.31-8.66,0-2.38.56-4.55,1.69-6.51,1.12-1.95,2.68-3.43,4.64-4.44,1.97-1,4.45-1.5,7.43-1.5,3.59,0,6.46.62,8.62,1.84,2.17,1.23,3.9,3.19,5.2,5.86,1.29,2.68,1.94,6.21,1.94,10.62,0,6.46-1.36,11.19-4.09,14.2-2.72,3-6.49,4.5-11.32,4.5-2.85,0-5.1-.32-6.75-.98-1.64-.66-3.01-1.63-4.11-2.89-1.09-1.27-1.93-2.85-2.51-4.75h0Zm18.35-15.99c0-1.94-.49-3.46-1.47-4.56-.98-1.1-2.17-1.65-3.57-1.65-1.32,0-2.42.5-3.29,1.49-.88.99-1.31,2.48-1.31,4.48s.45,3.54,1.36,4.6c.9,1.06,2.03,1.59,3.38,1.59s2.57-.52,3.5-1.54c.92-1.02,1.39-2.49,1.39-4.4h0Zm43.7,24.01h-29.88c.34-2.94,1.39-5.72,3.12-8.32,1.73-2.6,4.99-5.67,9.76-9.21,2.92-2.17,4.79-3.81,5.61-4.94.82-1.12,1.23-2.19,1.23-3.2,0-1.09-.4-2.02-1.21-2.8-.81-.78-1.83-1.16-3.05-1.16s-2.31.4-3.12,1.2c-.81.81-1.35,2.22-1.62,4.25l-9.96-.81c.39-2.81,1.11-4.99,2.15-6.57,1.04-1.57,2.51-2.78,4.41-3.62,1.9-.84,4.53-1.26,7.88-1.26s6.22.4,8.18,1.2c1.94.79,3.48,2.02,4.59,3.67,1.12,1.66,1.67,3.51,1.67,5.56,0,2.18-.64,4.26-1.92,6.25-1.28,1.98-3.6,4.17-6.98,6.55-2,1.39-3.34,2.36-4.02,2.91-.67.56-1.47,1.28-2.39,2.18h15.55v8.1Zm13.91-25.47l-9.41-1.67c.79-2.99,2.28-5.29,4.5-6.89,2.22-1.59,5.36-2.39,9.42-2.39,4.67,0,8.04.87,10.12,2.61,2.08,1.75,3.12,3.94,3.12,6.57,0,1.54-.43,2.94-1.27,4.19-.84,1.25-2.11,2.35-3.81,3.29,1.39.34,2.45.74,3.17,1.2,1.19.74,2.11,1.7,2.77,2.89.66,1.2.99,2.63.99,4.29,0,2.08-.54,4.09-1.64,6-1.09,1.91-2.66,3.39-4.71,4.42-2.05,1.04-4.75,1.55-8.09,1.55s-5.82-.38-7.7-1.15c-1.88-.77-3.43-1.89-4.64-3.36-1.21-1.47-2.15-3.33-2.79-5.57l9.96-1.33c.39,2.01.99,3.41,1.82,4.19.82.77,1.86,1.17,3.13,1.17s2.44-.49,3.33-1.47c.88-.98,1.33-2.28,1.33-3.91s-.43-2.94-1.28-3.86c-.85-.91-2.01-1.37-3.47-1.37-.78,0-1.85.19-3.21.58l.52-7.11c.54.08.97.13,1.28.13,1.29,0,2.36-.42,3.22-1.24.86-.82,1.29-1.8,1.29-2.94s-.33-1.96-.97-2.6c-.65-.65-1.54-.97-2.67-.97s-2.11.35-2.84,1.06c-.73.7-1.22,1.93-1.48,3.69h0Z"/>
      <path class="cls-28" d="m86.02,104.4c-1.88-6.07.28-10.77,7.43-13.04,6.99-2.22,11.74.68,13.68,6.93l.35,1.14-7.6,2.46-.46-1.5c-.73-2.38-2.2-2.93-3.87-2.38-1.8.59-2.32,2.24-1.83,3.63.44,1.27,2.25,2.27,3.88,2.83,3.89,1.33,8.29,1.56,11.49,4.2,1.99,1.64,3.21,4.52,3.84,6.86,1.63,6.1-.64,11.17-8.1,13.57-6.23,2-11.26-.29-13.3-6.02l-1.33-3.73,7.8-2.44.97,2.62c.75,2.04,2.25,3.74,4.34,2.79,1.8-.81,2.37-2.4,1.85-3.74-.62-1.58-1.52-2.44-3.49-3.46-3.78-1.96-8.21-1.87-11.79-4.67-1.99-1.55-3.11-3.74-3.83-6.05h0Z"/>
      <path class="cls-28" d="m223.11,98.69l4.98.03-2.34-15.73-2.65,15.7Zm15.68,14.3l-8.67-.1-1.21-7.48-6.86-.07-1.38,7.46-8.72-.09,8.63-38.1,10.37.07,7.84,38.31Z"/>
      <path class="cls-28" d="m333.66,103.14l10.42,2.88-2.05,7.39-10.41-2.84-2.17,7.96,11.36,3.11-1.98,7.2-20.09-5.5,10.01-36.88,19.92,5.47-2.08,7.57-11.1-3.05-1.82,6.68Z"/>
      <path class="cls-28" d="m385.18,121.87l9.62,4.92-3.5,6.83-9.62-4.88-3.73,7.36,10.5,5.34-3.39,6.65-18.57-9.45,17.25-34.1,18.41,9.38-3.57,7-10.26-5.22-3.13,6.18Z"/>
      <path class="cls-20" d="m142.51,439.82V104.86c-.76-.38-1.68-.48-2.68-.3l-1.83.34,2.65,14.82-8.63,1.55-6.75-37.62,11.17-2c2.24-.4,4.27-.52,6.07-.3v-30.38c-10.34,3.71-21.15,7.17-32.53,10.29-7.79,2.14-15.43,3.57-23.7,3.98-8.26.41-17.09-.2-27.24-2.14-8.9-1.7-17.89-4.02-26.55-7.25-4.95-1.85-9.78-3.99-14.41-6.47-4.08,39.93-4.12,78.85-.97,115.51,3.76,43.7,12.04,84.11,23.4,119.15,17.01,52.46,41.46,93.7,71.55,126.66,9.59,10.5,19.76,20.18,30.45,29.11h0ZM89.84,110.44c-1.99-1.55-3.11-3.74-3.83-6.05-1.88-6.07.28-10.77,7.43-13.04,6.99-2.22,11.74.68,13.68,6.93l.35,1.14-7.6,2.46-.46-1.5c-.73-2.38-2.2-2.93-3.87-2.38-1.8.59-2.32,2.24-1.83,3.63.44,1.27,2.25,2.27,3.88,2.83,3.89,1.33,8.29,1.56,11.49,4.2,1.99,1.64,3.21,4.52,3.84,6.86,1.63,6.1-.64,11.17-8.1,13.57-6.23,2-11.26-.29-13.3-6.02l-1.33-3.73,7.8-2.44.97,2.62c.75,2.04,2.25,3.74,4.34,2.79,1.8-.81,2.37-2.4,1.85-3.74-.62-1.58-1.52-2.44-3.49-3.46-3.78-1.96-8.21-1.87-11.79-4.67h0Zm37.65,11.81l-8.48,2.05-2.27-8.48,8.71-2,2.04,8.44Zm-36.91,10.48l-8.2,3.09-3.15-8.14,8.14-3.14,3.2,8.2Zm-23.13,10.16c-8,3.94-12.67.86-15.62-5.14l-11.77-23.98,7.94-3.9,12,24.38c.97,1.98,2.15,2.92,4.17,1.93,1.87-.91,2.07-2.52,1.19-4.3l-12.12-24.59,7.95-3.88,11.77,23.86c2.79,5.65,2.53,11.64-5.52,15.61h0Z"/>
      <path class="cls-20" d="m136.8,98.28c.78-.12,1.53-.32,2.29-.49,1.03-.22,3.88-1.36,3.11-5.47-.47-2.55-2.07-3.96-4.85-3.64-.75.09-1.5.12-2.24.26l1.68,9.34Z"/>
      <path class="cls-20" d="m293.49,118.39v319.91c10.8-9.28,20.96-19.2,30.43-29.77,28.07-31.35,50.14-68.47,65.11-111.57,9.95-28.64,19.66-60.69,25.39-101.89,5.39-38.84,7.25-85.81,2.45-145.71-4.79,2.45-9.63,4.59-14.53,6.44-8.47,3.2-17.09,5.58-25.91,7.31-5.84,1.14-12.09,2.03-19.25,2.14-7.09.11-14.87-.57-23.71-2.59-13.41-3.07-26.7-7.2-39.98-12.07v55.21l1.09,12.74-1.09-.14Zm45.34,10.46l-20.09-5.5,10.01-36.88,19.92,5.47-2.08,7.57-11.1-3.05-1.82,6.68,10.42,2.88-2.05,7.39-10.41-2.84-2.17,7.96,11.36,3.11-1.98,7.2Zm-24.45-37.16l-5.51,29.88-8.82-1.65,5.59-29.88-6.89-1.3,1.4-7.71,23.05,4.34-1.44,7.69-7.37-1.38Zm37.7,42.46c-6.17-2.17-8.79-7.05-6.95-12.84l1.2-3.77,7.68,2.77-.82,2.67c-.64,2.08-.47,4.34,1.77,4.85,1.92.44,3.34-.48,3.73-1.86.46-1.63.27-2.86-.68-4.86-1.82-3.86-5.4-6.46-6.57-10.86-.64-2.44-.21-4.86.61-7.12,2.18-5.97,6.74-8.32,13.81-5.8,6.91,2.47,8.93,7.56,6.7,13.71l-.41,1.12-7.54-2.64.53-1.47c.86-2.34.02-3.66-1.64-4.24-1.79-.62-3.2.38-3.66,1.79-.42,1.28.41,3.17,1.38,4.6,2.29,3.41,5.65,6.25,6.61,10.3.59,2.51-.18,5.54-1.1,7.78-2.39,5.84-7.27,8.51-14.66,5.9h0Zm32.97,13.94l-18.57-9.45,17.25-34.1,18.41,9.38-3.57,7-10.26-5.22-3.13,6.17,9.62,4.92-3.5,6.83-9.62-4.88-3.73,7.36,10.5,5.34-3.39,6.65Z"/>
      <path class="cls-19" d="m280.66,102.5l4.95.61-.49-15.89-4.45,15.29Z"/>
    </g>
  </g>
</svg>