<?xml version="1.0" encoding="UTF-8"?>
<svg id="Layer_2" data-name="Layer 2" xmlns="http://www.w3.org/2000/svg" viewBox="0 0 532.73 811.67">
  <defs>
    <style>
      .cls-1, .cls-2 {
        fill-rule: evenodd;
      }

      .cls-1, .cls-2, .cls-3, .cls-4 {
        stroke-width: 0px;
      }

      .cls-1, .cls-3 {
        fill: #223f98;
      }

      .cls-2, .cls-4 {
        fill: #fbc53b;
      }
    </style>
  </defs>
  <g id="Capa_1" data-name="Capa 1">
    <g>
      <polygon class="cls-1" points="257.75 0 275.79 0 272.44 16.09 287.13 16.09 284.8 23.47 272.44 23.47 272.44 32.85 260.76 32.99 260.76 23.47 248.41 23.47 246.07 16.09 260.76 16.09 257.75 0 257.75 0"/>
      <g>
        <path class="cls-2" d="m266.91,29.8c9.03,0,16.39,7.36,16.39,16.38s-7.36,16.38-16.39,16.38-16.38-7.35-16.38-16.38,7.36-16.38,16.38-16.38h0Z"/>
        <path class="cls-3" d="m266.91,64.34c-10.01,0-18.16-8.15-18.16-18.16s8.15-18.16,18.16-18.16,18.16,8.15,18.16,18.16-8.15,18.16-18.16,18.16Zm0-32.76c-8.06,0-14.61,6.55-14.61,14.61s6.55,14.61,14.61,14.61,14.61-6.55,14.61-14.61-6.55-14.61-14.61-14.61Z"/>
      </g>
      <g>
        <path class="cls-2" d="m405.69,77.78c-7.09,0-12.87,5.78-12.87,12.87s5.78,12.87,12.87,12.87,12.87-5.78,12.87-12.87-5.78-12.87-12.87-12.87h0Z"/>
        <path class="cls-3" d="m405.69,105.29c-8.07,0-14.65-6.57-14.65-14.65s6.58-14.64,14.65-14.64,14.65,6.57,14.65,14.64-6.57,14.65-14.65,14.65Zm0-25.74c-6.12,0-11.09,4.98-11.09,11.1s4.97,11.1,11.09,11.1,11.1-4.98,11.1-11.1-4.98-11.1-11.1-11.1Z"/>
      </g>
      <g>
        <path class="cls-2" d="m426.51,123.19c-7.11,0-12.9,5.79-12.9,12.9s5.79,12.91,12.9,12.91,12.91-5.8,12.91-12.91-5.8-12.9-12.91-12.9h0Z"/>
        <path class="cls-3" d="m426.51,150.77c-8.09,0-14.68-6.58-14.68-14.68s6.58-14.67,14.68-14.67,14.68,6.58,14.68,14.67-6.59,14.68-14.68,14.68Zm0-25.81c-6.14,0-11.13,4.99-11.13,11.13s4.99,11.13,11.13,11.13,11.13-4.99,11.13-11.13-5-11.13-11.13-11.13Z"/>
      </g>
      <g>
        <path class="cls-2" d="m421.72,97.23c-7.09,0-12.87,5.78-12.87,12.87s5.78,12.87,12.87,12.87,12.87-5.78,12.87-12.87-5.78-12.87-12.87-12.87h0Z"/>
        <path class="cls-3" d="m421.72,124.75c-8.08,0-14.65-6.57-14.65-14.65s6.57-14.64,14.65-14.64,14.65,6.57,14.65,14.64-6.57,14.65-14.65,14.65Zm0-25.74c-6.12,0-11.1,4.98-11.1,11.1s4.98,11.1,11.1,11.1,11.1-4.98,11.1-11.1-4.97-11.1-11.1-11.1Z"/>
      </g>
      <g>
        <path class="cls-2" d="m365.88,82.8c-6.58,0-11.94,5.36-11.94,11.94s5.36,11.94,11.94,11.94,11.94-5.36,11.94-11.94-5.36-11.94-11.94-11.94h0Z"/>
        <path class="cls-3" d="m365.88,108.46c-7.56,0-13.72-6.15-13.72-13.71s6.16-13.72,13.72-13.72,13.72,6.15,13.72,13.72-6.16,13.71-13.72,13.71Zm0-23.88c-5.61,0-10.16,4.56-10.16,10.17s4.56,10.16,10.16,10.16,10.17-4.56,10.17-10.16-4.56-10.17-10.17-10.17Z"/>
      </g>
      <g>
        <path class="cls-2" d="m364.47,107.43c-6.1,0-11.07,4.98-11.07,11.08s4.97,11.07,11.07,11.07,11.07-4.97,11.07-11.07-4.97-11.08-11.07-11.08h0Z"/>
        <path class="cls-3" d="m364.47,131.36c-7.08,0-12.85-5.76-12.85-12.84s5.77-12.85,12.85-12.85,12.85,5.76,12.85,12.85-5.76,12.84-12.85,12.84Zm0-22.15c-5.13,0-9.29,4.17-9.29,9.3s4.17,9.3,9.29,9.3,9.3-4.17,9.3-9.3-4.17-9.3-9.3-9.3Z"/>
      </g>
      <g>
        <path class="cls-2" d="m287.52,53.05c-5.8,0-10.53,4.72-10.53,10.53s4.73,10.53,10.53,10.53,10.53-4.73,10.53-10.53-4.73-10.53-10.53-10.53h0Z"/>
        <path class="cls-3" d="m287.52,75.88c-6.79,0-12.3-5.52-12.3-12.3s5.52-12.3,12.3-12.3,12.3,5.52,12.3,12.3-5.52,12.3-12.3,12.3Zm0-21.06c-4.83,0-8.76,3.93-8.76,8.75s3.93,8.76,8.76,8.76,8.76-3.93,8.76-8.76-3.93-8.75-8.76-8.75Z"/>
      </g>
      <g>
        <path class="cls-2" d="m266.96,61.48c-6.17,0-11.2,5.03-11.2,11.19s5.03,11.21,11.2,11.21,11.2-5.04,11.2-11.21-5.03-11.19-11.2-11.19h0Z"/>
        <path class="cls-3" d="m266.96,85.65c-7.16,0-12.97-5.82-12.97-12.98s5.82-12.96,12.97-12.96,12.97,5.82,12.97,12.96-5.82,12.98-12.97,12.98Zm0-22.4c-5.2,0-9.42,4.22-9.42,9.42s4.23,9.43,9.42,9.43,9.42-4.23,9.42-9.43-4.23-9.42-9.42-9.42Z"/>
      </g>
      <g>
        <path class="cls-2" d="m309.19,56.59c-5.8,0-10.53,4.73-10.53,10.53s4.73,10.54,10.53,10.54,10.53-4.74,10.53-10.54-4.73-10.53-10.53-10.53h0Z"/>
        <path class="cls-3" d="m309.19,79.43c-6.79,0-12.31-5.52-12.31-12.31s5.53-12.3,12.31-12.3,12.3,5.52,12.3,12.3-5.52,12.31-12.3,12.31Zm0-21.07c-4.83,0-8.76,3.93-8.76,8.76s3.93,8.76,8.76,8.76,8.76-3.93,8.76-8.76-3.93-8.76-8.76-8.76Z"/>
      </g>
      <g>
        <path class="cls-2" d="m330.86,60.59c-5.8,0-10.53,4.73-10.53,10.53s4.73,10.54,10.53,10.54,10.53-4.74,10.53-10.54-4.73-10.53-10.53-10.53h0Z"/>
        <path class="cls-3" d="m330.86,83.43c-6.78,0-12.31-5.52-12.31-12.31s5.53-12.31,12.31-12.31,12.31,5.52,12.31,12.31-5.53,12.31-12.31,12.31Zm0-21.07c-4.83,0-8.75,3.93-8.75,8.76s3.93,8.76,8.75,8.76,8.75-3.93,8.75-8.76-3.93-8.76-8.75-8.76Z"/>
      </g>
      <g>
        <path class="cls-2" d="m352.09,66.36c-5.8,0-10.53,4.73-10.53,10.53s4.73,10.53,10.53,10.53,10.53-4.73,10.53-10.53-4.73-10.53-10.53-10.53h0Z"/>
        <path class="cls-3" d="m352.09,89.2c-6.78,0-12.31-5.52-12.31-12.3s5.53-12.31,12.31-12.31,12.31,5.52,12.31,12.31-5.52,12.3-12.31,12.3Zm0-21.07c-4.83,0-8.75,3.93-8.75,8.76s3.92,8.76,8.75,8.76,8.76-3.93,8.76-8.76-3.93-8.76-8.76-8.76Z"/>
      </g>
      <g>
        <path class="cls-2" d="m383.49,72.58c-5.8,0-10.53,4.73-10.53,10.53s4.73,10.53,10.53,10.53,10.53-4.73,10.53-10.53-4.73-10.53-10.53-10.53h0Z"/>
        <path class="cls-3" d="m383.49,95.41c-6.79,0-12.3-5.52-12.3-12.3s5.52-12.3,12.3-12.3,12.31,5.52,12.31,12.3-5.52,12.3-12.31,12.3Zm0-21.06c-4.83,0-8.76,3.93-8.76,8.76s3.93,8.76,8.76,8.76,8.76-3.93,8.76-8.76-3.93-8.76-8.76-8.76Z"/>
      </g>
      <g>
        <path class="cls-2" d="m267.61,84.66c5.42,0,9.84,4.42,9.84,9.84s-4.42,9.83-9.84,9.83-9.84-4.42-9.84-9.83,4.42-9.84,9.84-9.84h0Z"/>
        <path class="cls-3" d="m267.61,106.1c-6.4,0-11.61-5.21-11.61-11.6s5.21-11.62,11.61-11.62,11.62,5.21,11.62,11.62-5.21,11.6-11.62,11.6Zm0-19.67c-4.45,0-8.06,3.62-8.06,8.07s3.62,8.05,8.06,8.05,8.06-3.62,8.06-8.05-3.62-8.07-8.06-8.07Z"/>
      </g>
      <g>
        <path class="cls-2" d="m266.67,29.8c-9.02,0-16.38,7.36-16.38,16.38s7.36,16.38,16.38,16.38,16.38-7.35,16.38-16.38-7.36-16.38-16.38-16.38h0Z"/>
        <path class="cls-3" d="m266.67,64.34c-10.01,0-18.16-8.15-18.16-18.16s8.15-18.16,18.16-18.16,18.16,8.15,18.16,18.16-8.15,18.16-18.16,18.16Zm0-32.76c-8.06,0-14.61,6.55-14.61,14.61s6.55,14.61,14.61,14.61,14.61-6.55,14.61-14.61-6.55-14.61-14.61-14.61Z"/>
      </g>
      <path class="cls-3" d="m395.96,157.82c-18.81,0-32.03-8.22-39.46-24.59h-179.68c-11.75,19.47-32.99,26.54-63.11,21.04-.96-.18-1.6-1.1-1.43-2.07.18-.96,1.11-1.59,2.06-1.43,28.95,5.3,49.12-1.5,59.93-20.2.32-.55.9-.89,1.54-.89h181.85c.71,0,1.35.42,1.63,1.07,9.39,21.88,28.91,28.44,59.68,20.05.94-.25,1.92.3,2.18,1.25.26.95-.3,1.92-1.24,2.18-8.79,2.4-16.77,3.59-23.95,3.59Z"/>
      <path class="cls-3" d="m166.74,229.55c-.62,0-1.22-.33-1.55-.91-2.72-4.83-3.24-10.35-1.54-14.92-10.46-2.48-12.32-9.83-11.95-15.77.06-.98.9-1.76,1.88-1.66.98.06,1.72.9,1.66,1.88-.45,7.29,3.12,11.25,11.25,12.48.58.09,1.08.46,1.33.99.25.53.23,1.15-.07,1.66-2.23,3.84-2.03,9.06.53,13.61.48.85.18,1.94-.68,2.42-.28.15-.57.23-.87.23Z"/>
      <path class="cls-3" d="m366.23,229.55c-.29,0-.59-.07-.87-.23-.86-.48-1.16-1.56-.68-2.42,2.55-4.56,2.75-9.77.52-13.61-.29-.51-.32-1.13-.07-1.66.26-.53.76-.9,1.34-.99,8.12-1.23,11.7-5.19,11.25-12.48-.06-.98.68-1.82,1.66-1.88.93-.1,1.82.68,1.88,1.66.37,5.94-1.49,13.29-11.95,15.77,1.71,4.57,1.18,10.08-1.53,14.92-.32.58-.93.91-1.55.91Z"/>
      <g>
        <path class="cls-2" d="m267.5,105.36c4.07,0,7.4,3.33,7.4,7.4s-3.33,7.4-7.4,7.4-7.4-3.33-7.4-7.4,3.32-7.4,7.4-7.4h0Z"/>
        <path class="cls-3" d="m267.5,121.93c-5.06,0-9.17-4.11-9.17-9.17s4.12-9.17,9.17-9.17,9.18,4.11,9.18,9.17-4.12,9.17-9.18,9.17Zm0-14.8c-3.1,0-5.62,2.53-5.62,5.62s2.52,5.62,5.62,5.62,5.62-2.53,5.62-5.62-2.52-5.62-5.62-5.62Z"/>
      </g>
      <g>
        <path class="cls-2" d="m267.04,120.72c7.19,0,13.06,5.87,13.06,13.06s-5.87,13.06-13.06,13.06-13.06-5.87-13.06-13.06,5.87-13.06,13.06-13.06h0Z"/>
        <path class="cls-3" d="m267.04,148.62c-8.18,0-14.84-6.65-14.84-14.84s6.66-14.83,14.84-14.83,14.84,6.65,14.84,14.83-6.66,14.84-14.84,14.84Zm0-26.12c-6.22,0-11.29,5.06-11.29,11.29s5.06,11.29,11.29,11.29,11.29-5.07,11.29-11.29-5.06-11.29-11.29-11.29Z"/>
      </g>
      <g>
        <path class="cls-2" d="m122.19,154.39c22.37,1.08,41.82-4.09,54.88-23.04h181.6c7.76,21.42,27.49,27.16,53.88,24.54l-32.42,42.07c-1,8.68-5.32,13.35-12.97,14.02,2.33,5.68,2,11.36-1,17.03l-199.06,1.51c-3.33-5.85-3.33-11.69,0-17.54-10.39-1.88-15.05-6.97-13.47-15.52l-31.43-43.07h0Z"/>
        <path class="cls-3" d="m167.09,232.29c-.64,0-1.23-.34-1.54-.89-3.24-5.7-3.6-11.46-1.08-17.16-5.08-1.26-8.71-3.42-10.8-6.44-1.85-2.68-2.5-6-1.93-9.89l-30.99-42.47c-.4-.55-.45-1.29-.13-1.89.33-.6.99-.91,1.65-.93,1.82.09,3.62.14,5.39.14,22.17,0,37.41-7.12,47.94-22.41.33-.48.88-.77,1.46-.77h181.6c.75,0,1.42.47,1.67,1.17,6.76,18.67,23.52,26.2,52.04,23.38.72-.09,1.39.29,1.73.91.34.62.29,1.38-.15,1.94l-32.13,41.68c-1.33,10.09-6.99,13.69-12.28,14.77,1.65,5.47,1.04,10.98-1.82,16.41-.31.58-.9.94-1.56.95l-199.06,1.51h-.01Zm-41.32-76.01l29.28,40.13c.29.39.4.89.31,1.37-.61,3.3-.21,5.92,1.23,8,1.84,2.66,5.47,4.49,10.81,5.45.57.1,1.05.48,1.29,1,.24.52.22,1.13-.07,1.63-2.85,5-3.01,9.88-.48,14.88l196.9-1.49c2.32-4.9,2.46-9.69.45-14.59-.21-.52-.17-1.11.13-1.6.29-.48.8-.8,1.36-.84,6.75-.59,10.47-4.66,11.37-12.46.03-.32.16-.62.36-.88l29.97-38.88c-2.55.17-5,.26-7.34.26-22.9,0-37.28-8.22-43.91-25.13h-179.45c-11.4,16.02-28.62,23.58-52.22,23.16Z"/>
      </g>
      <g>
        <path class="cls-2" d="m189.53,165.67c-34.01,12.96,13.56,49.26,17.19,11.59,35.71,11.92,26.32-41.18-1.62-20.9,2.18-34.55-46.04-6.98-15.57,9.32h0Z"/>
        <path class="cls-3" d="m193.65,195.67c-8.1,0-16.45-6.78-17.87-14.51-.57-3.12-.6-10.49,9.88-15.73-8.5-5.71-8.53-11.94-7.68-15.34,1.64-6.56,9.15-12.1,16.38-12.1,3.43,0,6.4,1.23,8.58,3.56,2.48,2.65,3.82,6.5,3.98,11.49,3.55-2.07,6.99-3.12,10.26-3.12,9.1,0,14.54,8.2,14.54,16.13,0,3.94-1.32,7.55-3.72,10.16-4.16,4.53-11.17,5.78-19.78,3.37-2.16,14.47-10.82,16.09-14.57,16.09Zm.71-54.13c-5.63,0-11.68,4.4-12.94,9.41-1.19,4.76,1.98,9.44,8.94,13.15.61.33.98.98.93,1.68-.04.69-.49,1.3-1.14,1.55-8.03,3.06-11.9,7.74-10.89,13.18,1.12,6.07,7.97,11.6,14.38,11.6s10.37-5.33,11.3-15.02c.05-.54.35-1.02.8-1.32.46-.3,1.02-.36,1.53-.2,8.11,2.71,14.61,2.05,18.11-1.77,1.8-1.96,2.79-4.72,2.79-7.76,0-6.18-4.11-12.58-10.99-12.58-3.37,0-7.09,1.46-11.05,4.33-.56.4-1.3.45-1.9.12-.6-.33-.96-.98-.92-1.67.35-5.58-.67-9.83-2.97-12.27-1.89-2.01-4.3-2.43-6-2.43Z"/>
      </g>
      <g>
        <path class="cls-2" d="m344.82,166.7c34.01,12.95-13.56,49.26-17.19,11.59-35.71,11.92-26.32-41.18,1.62-20.91-2.18-34.55,46.05-6.97,15.57,9.32h0Z"/>
        <path class="cls-3" d="m340.69,196.69c-3.76,0-12.41-1.62-14.57-16.09-9.98,2.79-17.85.6-21.5-5.72-2.78-4.81-2.63-11.52.35-16.69,4.37-7.56,13.36-9.43,22.44-4.12.17-4.99,1.5-8.85,3.98-11.49,2.19-2.33,5.16-3.56,8.58-3.56,7.24,0,14.74,5.54,16.38,12.1.85,3.4.82,9.62-7.68,15.34,10.49,5.24,10.46,12.6,9.88,15.72-1.42,7.73-9.78,14.51-17.88,14.52h0Zm-13.06-20.18c.34,0,.68.09.97.29.45.29.75.78.8,1.32.93,9.69,4.95,15.02,11.3,15.02h0c6.42,0,13.27-5.53,14.39-11.61,1-5.44-2.87-10.12-10.89-13.17-.65-.25-1.09-.85-1.14-1.55-.04-.69.32-1.35.94-1.68,6.96-3.72,10.13-8.39,8.94-13.15-1.25-5.02-7.3-9.42-12.94-9.42-1.69,0-4.1.42-5.99,2.44-2.29,2.45-3.32,6.69-2.97,12.27.04.69-.32,1.34-.92,1.67-.6.33-1.35.28-1.9-.12-3.96-2.87-7.68-4.33-11.05-4.33-5.17,0-7.93,3.43-9.11,5.48-2.38,4.11-2.52,9.39-.35,13.14,3.04,5.27,10.1,6.59,19.37,3.5.18-.06.37-.09.56-.09Z"/>
      </g>
      <g>
        <path class="cls-2" d="m123.37,169.38c2.72,7.17,7.65,12.29,15.82,15.37,1.19,15.02,12.92,16.05,19.9,10.25,12.24-12.47-2.55-24.24-13.77-18.44,1.95-8.71-7.57-17.59-21.94-7.17h0Z"/>
        <path class="cls-3" d="m150.47,200.04c-5.54,0-11.73-3.71-12.95-14.04-7.76-3.19-12.94-8.43-15.81-15.99-.29-.75-.03-1.6.62-2.07,8.84-6.4,18.01-6.46,22.55-.8,1.53,1.91,2.37,4.25,2.46,6.7,1.37-.39,2.78-.59,4.23-.59,5.8,0,11.04,3.21,13.05,7.99,1.99,4.75.44,10.21-4.26,15-2.95,2.46-6.5,3.8-9.88,3.8Zm-24.92-30.01c2.73,6.26,7.29,10.43,14.26,13.06.64.24,1.09.83,1.14,1.52.6,7.56,4.07,11.89,9.52,11.89,2.56,0,5.29-1.05,7.47-2.87,3.57-3.65,4.82-7.6,3.39-11.01-2.07-4.93-9.66-7.36-15.21-4.48-.61.32-1.35.25-1.9-.17-.55-.42-.8-1.12-.65-1.79.55-2.46.01-4.94-1.48-6.8-3.17-3.96-9.79-3.82-16.55.66Z"/>
      </g>
      <g>
        <path class="cls-2" d="m409.59,169.38c-2.72,7.17-7.65,12.29-15.81,15.37-1.19,15.02-12.93,16.05-19.9,10.25-12.25-12.47,2.55-24.24,13.77-18.44-1.96-8.71,7.57-17.59,21.94-7.17h0Z"/>
        <path class="cls-3" d="m382.49,200.04c-3.37,0-6.93-1.34-9.75-3.68-4.83-4.91-6.39-10.37-4.39-15.12,2-4.78,7.25-7.99,13.05-7.99,1.45,0,2.86.2,4.23.59.08-2.45.93-4.79,2.46-6.7,4.53-5.66,13.71-5.61,22.54.8.65.47.9,1.32.62,2.07-2.87,7.56-8.05,12.8-15.81,15.99-1.21,10.33-7.41,14.04-12.95,14.04Zm-1.09-23.24c-4.33,0-8.34,2.39-9.78,5.81-1.43,3.41-.18,7.36,3.52,11.13,2.06,1.7,4.79,2.75,7.34,2.75,5.45,0,8.92-4.34,9.52-11.89.05-.69.5-1.28,1.14-1.52,6.97-2.63,11.54-6.8,14.26-13.06-6.76-4.48-13.38-4.62-16.55-.66-1.49,1.86-2.03,4.34-1.48,6.8.15.67-.1,1.37-.65,1.79-.55.43-1.29.49-1.9.17-1.7-.88-3.53-1.32-5.44-1.32Z"/>
      </g>
      <g>
        <path class="cls-2" d="m258.06,150.94c-33.25-5.89-12.67,45.67,8.17,17.42,22.75,26.49,40.58-20.25,8.67-17.42,18.19-26.46-33.33-27.49-16.84,0h0Z"/>
        <path class="cls-3" d="m253.2,178.65c-8.51,0-14.44-8.96-14.44-17.01,0-3.62,1.18-6.74,3.4-9.03,2.86-2.93,7.13-4.27,12.73-3.86-2.96-6.44-1.98-10.82-.48-13.47,2.22-3.92,6.99-6.35,12.46-6.35s10.42,2.51,12.54,6.54c1.43,2.72,2.22,7.17-1.26,13.57,11.66.22,15.81,7.56,15.81,13.86,0,7.43-5.54,15.38-13.78,15.38-3.26,0-8.22-1.29-13.85-7.18-5.14,6.18-9.92,7.54-13.12,7.54Zm-.14-26.41c-3.7,0-6.51.96-8.36,2.85-1.98,2.03-2.39,4.68-2.39,6.54,0,6.36,4.66,13.46,10.89,13.46,3.82,0,7.83-2.7,11.6-7.8.32-.43.82-.7,1.36-.72.52-.02,1.06.2,1.41.62,4.23,4.93,8.59,7.54,12.61,7.54,2.77,0,5.37-1.3,7.31-3.66,1.86-2.26,2.93-5.25,2.93-8.18,0-7.11-5.62-11.07-15.36-10.2-.7.09-1.34-.28-1.69-.87-.35-.59-.32-1.33.07-1.9,3.54-5.16,4.52-9.59,2.83-12.81-1.49-2.82-5.17-4.64-9.4-4.64s-7.78,1.74-9.37,4.55c-1.82,3.21-1.1,7.7,2.08,12.99.36.6.33,1.35-.06,1.92-.4.57-1.09.86-1.77.74-1.67-.29-3.25-.45-4.68-.45Z"/>
      </g>
      <g>
        <path class="cls-2" d="m127.9,77.78c7.09,0,12.87,5.78,12.87,12.87s-5.78,12.87-12.87,12.87-12.87-5.78-12.87-12.87,5.79-12.87,12.87-12.87h0Z"/>
        <path class="cls-3" d="m127.9,105.29c-8.08,0-14.65-6.57-14.65-14.65s6.57-14.64,14.65-14.64,14.65,6.57,14.65,14.64-6.57,14.65-14.65,14.65Zm0-25.74c-6.12,0-11.1,4.98-11.1,11.1s4.98,11.1,11.1,11.1,11.1-4.98,11.1-11.1-4.98-11.1-11.1-11.1Z"/>
      </g>
      <g>
        <path class="cls-2" d="m107.08,123.19c7.11,0,12.91,5.79,12.91,12.9s-5.8,12.91-12.91,12.91-12.91-5.8-12.91-12.91,5.8-12.9,12.91-12.9h0Z"/>
        <path class="cls-3" d="m107.08,150.77c-8.1,0-14.68-6.58-14.68-14.68s6.59-14.67,14.68-14.67,14.68,6.58,14.68,14.67-6.59,14.68-14.68,14.68Zm0-25.81c-6.14,0-11.13,4.99-11.13,11.13s4.99,11.13,11.13,11.13,11.13-4.99,11.13-11.13-4.99-11.13-11.13-11.13Z"/>
      </g>
      <g>
        <path class="cls-2" d="m111.86,97.23c7.09,0,12.87,5.78,12.87,12.87s-5.78,12.87-12.87,12.87-12.87-5.78-12.87-12.87,5.78-12.87,12.87-12.87h0Z"/>
        <path class="cls-3" d="m111.86,124.75c-8.08,0-14.65-6.57-14.65-14.65s6.57-14.64,14.65-14.64,14.65,6.57,14.65,14.64-6.57,14.65-14.65,14.65Zm0-25.74c-6.12,0-11.1,4.98-11.1,11.1s4.98,11.1,11.1,11.1,11.09-4.98,11.09-11.1-4.98-11.1-11.09-11.1Z"/>
      </g>
      <g>
        <path class="cls-2" d="m167.71,82.8c6.58,0,11.94,5.36,11.94,11.94s-5.36,11.94-11.94,11.94-11.94-5.36-11.94-11.94,5.36-11.94,11.94-11.94h0Z"/>
        <path class="cls-3" d="m167.71,108.46c-7.56,0-13.71-6.15-13.71-13.71s6.15-13.72,13.71-13.72,13.72,6.15,13.72,13.72-6.15,13.71-13.72,13.71Zm0-23.88c-5.61,0-10.16,4.56-10.16,10.17s4.56,10.16,10.16,10.16,10.16-4.56,10.16-10.16-4.56-10.17-10.16-10.17Z"/>
      </g>
      <g>
        <path class="cls-2" d="m169.11,107.43c6.1,0,11.07,4.98,11.07,11.08s-4.97,11.07-11.07,11.07-11.07-4.97-11.07-11.07,4.97-11.08,11.07-11.08h0Z"/>
        <path class="cls-3" d="m169.11,131.36c-7.08,0-12.85-5.76-12.85-12.84s5.76-12.85,12.85-12.85,12.85,5.76,12.85,12.85-5.77,12.84-12.85,12.84Zm0-22.15c-5.13,0-9.3,4.17-9.3,9.3s4.17,9.3,9.3,9.3,9.3-4.17,9.3-9.3-4.17-9.3-9.3-9.3Z"/>
      </g>
      <g>
        <path class="cls-2" d="m246.07,53.05c5.8,0,10.53,4.72,10.53,10.53s-4.73,10.53-10.53,10.53-10.53-4.73-10.53-10.53,4.73-10.53,10.53-10.53h0Z"/>
        <path class="cls-3" d="m246.07,75.88c-6.79,0-12.31-5.52-12.31-12.3s5.52-12.3,12.31-12.3,12.3,5.52,12.3,12.3-5.52,12.3-12.3,12.3Zm0-21.06c-4.83,0-8.76,3.93-8.76,8.75s3.93,8.76,8.76,8.76,8.75-3.93,8.75-8.76-3.92-8.75-8.75-8.75Z"/>
      </g>
      <g>
        <path class="cls-2" d="m266.63,61.48c6.17,0,11.2,5.03,11.2,11.19s-5.03,11.21-11.2,11.21-11.2-5.04-11.2-11.21,5.03-11.19,11.2-11.19h0Z"/>
        <path class="cls-3" d="m266.63,85.65c-7.15,0-12.98-5.82-12.98-12.98s5.82-12.96,12.98-12.96,12.98,5.82,12.98,12.96-5.82,12.98-12.98,12.98Zm0-22.4c-5.2,0-9.42,4.22-9.42,9.42s4.23,9.43,9.42,9.43,9.42-4.23,9.42-9.43-4.23-9.42-9.42-9.42Z"/>
      </g>
      <g>
        <path class="cls-2" d="m224.4,56.59c5.8,0,10.53,4.73,10.53,10.53s-4.73,10.54-10.53,10.54-10.53-4.74-10.53-10.54,4.73-10.53,10.53-10.53h0Z"/>
        <path class="cls-3" d="m224.4,79.43c-6.79,0-12.31-5.52-12.31-12.31s5.52-12.3,12.31-12.3,12.31,5.52,12.31,12.3-5.52,12.31-12.31,12.31Zm0-21.07c-4.83,0-8.76,3.93-8.76,8.76s3.93,8.76,8.76,8.76,8.76-3.93,8.76-8.76-3.93-8.76-8.76-8.76Z"/>
      </g>
      <g>
        <path class="cls-2" d="m202.73,60.59c5.8,0,10.53,4.73,10.53,10.53s-4.73,10.54-10.53,10.54-10.53-4.74-10.53-10.54,4.73-10.53,10.53-10.53h0Z"/>
        <path class="cls-3" d="m202.73,83.43c-6.79,0-12.31-5.52-12.31-12.31s5.52-12.31,12.31-12.31,12.31,5.52,12.31,12.31-5.52,12.31-12.31,12.31Zm0-21.07c-4.83,0-8.75,3.93-8.75,8.76s3.93,8.76,8.75,8.76,8.76-3.93,8.76-8.76-3.93-8.76-8.76-8.76Z"/>
      </g>
      <g>
        <path class="cls-2" d="m181.5,66.36c5.8,0,10.53,4.73,10.53,10.53s-4.73,10.53-10.53,10.53-10.53-4.73-10.53-10.53,4.73-10.53,10.53-10.53h0Z"/>
        <path class="cls-3" d="m181.5,89.2c-6.79,0-12.31-5.52-12.31-12.3s5.52-12.31,12.31-12.31,12.31,5.52,12.31,12.31-5.52,12.3-12.31,12.3Zm0-21.07c-4.83,0-8.75,3.93-8.75,8.76s3.93,8.76,8.75,8.76,8.76-3.93,8.76-8.76-3.93-8.76-8.76-8.76Z"/>
      </g>
      <g>
        <path class="cls-2" d="m150.1,72.58c5.8,0,10.53,4.73,10.53,10.53s-4.73,10.53-10.53,10.53-10.53-4.73-10.53-10.53,4.73-10.53,10.53-10.53h0Z"/>
        <path class="cls-3" d="m150.1,95.41c-6.79,0-12.31-5.52-12.31-12.3s5.52-12.3,12.31-12.3,12.31,5.52,12.31,12.3-5.52,12.3-12.31,12.3Zm0-21.06c-4.83,0-8.76,3.93-8.76,8.76s3.93,8.76,8.76,8.76,8.76-3.93,8.76-8.76-3.93-8.76-8.76-8.76Z"/>
      </g>
      <g>
        <path class="cls-2" d="m179.34,126.74c4.71,0,8.55,3.84,8.55,8.56s-3.84,8.55-8.55,8.55-8.56-3.84-8.56-8.55,3.84-8.56,8.56-8.56h0Z"/>
        <path class="cls-3" d="m179.34,145.62c-5.7,0-10.33-4.63-10.33-10.33s4.63-10.33,10.33-10.33,10.33,4.63,10.33,10.33-4.63,10.33-10.33,10.33Zm0-17.11c-3.74,0-6.78,3.04-6.78,6.78s3.04,6.78,6.78,6.78,6.78-3.04,6.78-6.78-3.04-6.78-6.78-6.78Z"/>
      </g>
      <g>
        <path class="cls-2" d="m123.09,143.92c6.77,0,12.29,5.52,12.29,12.29s-5.52,12.28-12.29,12.28-12.29-5.52-12.29-12.28,5.52-12.29,12.29-12.29h0Z"/>
        <path class="cls-3" d="m123.09,170.27c-7.75,0-14.06-6.3-14.06-14.06s6.31-14.07,14.06-14.07,14.06,6.31,14.06,14.07-6.31,14.06-14.06,14.06Zm0-24.58c-5.8,0-10.51,4.72-10.51,10.52s4.71,10.51,10.51,10.51,10.51-4.71,10.51-10.51-4.71-10.52-10.51-10.52Z"/>
      </g>
      <g>
        <path class="cls-2" d="m166.22,226.75c-.68,40.29,200.34,40.29,201.02,0h-201.02Z"/>
        <path class="cls-3" d="m266.22,258.74c-35.22,0-81.7-5.45-96.81-20.82-3.36-3.42-5.03-7.19-4.96-11.2.01-.97.81-1.74,1.77-1.74h201.02c.48,0,.93.19,1.27.53.33.34.51.8.51,1.28-.37,22.08-51.9,31.97-102.79,31.97Zm-98.1-30.22c.39,2.4,1.67,4.72,3.82,6.91,11.8,12,48.81,19.76,94.28,19.76s95.67-9.15,99.06-26.67h-197.15Z"/>
      </g>
      <g>
        <path class="cls-2" d="m187.46,229.75l-15.16-19.9c22.62-2.73,37.75-11.94,33.81-33.94,13.58,28.9,58.97,28.9,60.62-8.19,1.56,37.09,47.41,37.09,60.61,8.19-4.49,22,11.1,31.2,33.81,33.94l-15.16,19.9h-158.53Z"/>
        <path class="cls-3" d="m346,231.52h-158.53c-.55,0-1.08-.26-1.41-.7l-15.16-19.9c-.39-.51-.47-1.18-.22-1.77.25-.59.79-1,1.42-1.07,14.3-1.73,24.03-5.96,28.92-12.58,3.63-4.92,4.76-11.4,3.35-19.28-.16-.88.36-1.74,1.21-2,.84-.27,1.77.13,2.14.94,5.63,11.98,17.67,19.73,30.68,19.73,11.69,0,25.66-7.13,26.55-27.24.04-.95.83-1.69,1.77-1.69h0c.95,0,1.73.75,1.77,1.7.85,20.11,14.9,27.24,26.67,27.24,13.1,0,25.08-7.73,30.55-19.71.38-.82,1.32-1.23,2.16-.95.86.28,1.37,1.16,1.19,2.04-1.58,7.73-.59,14.13,2.94,19.02,4.85,6.73,14.73,11.04,29.33,12.8.63.08,1.18.48,1.42,1.07.25.58.16,1.26-.22,1.77l-15.15,19.9c-.34.44-.86.7-1.41.7Zm-157.65-3.55h156.78l12.77-16.77c-13.98-2.12-23.64-6.77-28.75-13.83-2.79-3.87-4.24-8.48-4.34-13.75-6.94,9.19-17.89,14.82-29.63,14.82s-23.9-6.34-28.42-20.22c-4.63,14.72-17.38,20.22-28.35,20.22-11.8,0-22.88-5.75-29.91-15.12-.14,5.53-1.68,10.32-4.62,14.3-5.2,7.04-14.48,11.5-28.31,13.58l12.78,16.77Z"/>
      </g>
      <g>
        <path class="cls-2" d="m410.5,143.92c-6.77,0-12.29,5.52-12.29,12.29s5.52,12.28,12.29,12.28,12.28-5.52,12.28-12.28-5.52-12.29-12.28-12.29h0Z"/>
        <path class="cls-3" d="m410.5,170.27c-7.76,0-14.07-6.3-14.07-14.06s6.31-14.07,14.07-14.07,14.06,6.31,14.06,14.07-6.3,14.06-14.06,14.06Zm0-24.58c-5.8,0-10.52,4.72-10.52,10.52s4.71,10.51,10.52,10.51,10.51-4.71,10.51-10.51-4.72-10.52-10.51-10.52Z"/>
      </g>
      <g>
        <path class="cls-2" d="m354.24,126.74c-4.71,0-8.55,3.84-8.55,8.56s3.84,8.55,8.55,8.55,8.56-3.84,8.56-8.55-3.84-8.56-8.56-8.56h0Z"/>
        <path class="cls-3" d="m354.24,145.62c-5.7,0-10.33-4.63-10.33-10.33s4.63-10.33,10.33-10.33,10.33,4.63,10.33,10.33-4.63,10.33-10.33,10.33Zm0-17.11c-3.74,0-6.78,3.04-6.78,6.78s3.04,6.78,6.78,6.78,6.78-3.04,6.78-6.78-3.04-6.78-6.78-6.78Z"/>
      </g>
      <path class="cls-3" d="m426.44,248.86l101.07,115.39,3.97,4.53-3.66,4.76c-25.74,33.49-38.61,66.82-38.61,100.21s12.89,67.3,38.67,101.8l4.85,6.49-6.97,4.17-255.64,153.19-3.76,2.24-3.76-2.24L6.97,586.22l-6.97-4.17,4.85-6.49c25.78-34.5,38.67-68.36,38.67-101.8s-12.87-66.72-38.61-100.21l-3.66-4.76,3.97-4.53,101.07-115.39,3.61-4.12,4.96,2.29h0c14.23,6.59,28.41,12.25,42.54,16.96,14.15,4.72,28.29,8.52,42.42,11.4,72.61,14.8,145.29,5.35,218.05-28.36l4.96-2.3,3.62,4.13h0Zm86.13,120.54l-93.54-106.8c-73.98,33.19-148.02,42.23-222.13,27.13-14.72-3-29.44-6.96-44.14-11.86-13.06-4.35-26.08-9.44-39.05-15.26l-93.54,106.8c25.36,34.54,38.04,69.26,38.04,104.35s-12.28,69.13-36.84,104.03l245.01,146.82,245.01-146.82c-24.56-34.89-36.84-69.5-36.84-104.03s12.68-69.81,38.04-104.35h0Z"/>
      <path class="cls-1" d="m175.34,810.72h-12.1v-38.33c-4.42,3.47-9.63,6.05-15.63,7.71v-9.23c3.16-.86,6.6-2.53,10.29-4.94,3.7-2.43,6.25-5.26,7.63-8.5h9.82v53.28h0Zm43.05-28.63c-3.13-1.1-5.41-2.63-6.83-4.57-1.42-1.94-2.13-4.08-2.13-6.39,0-3.95,1.65-7.22,4.93-9.81,3.28-2.58,7.96-3.89,14.01-3.89s10.66,1.29,13.97,3.88c3.31,2.58,4.97,5.87,4.97,9.81,0,2.45-.77,4.65-2.28,6.57-1.52,1.91-3.67,3.39-6.41,4.4,3.49,1.17,6.16,2.91,7.97,5.17,1.82,2.26,2.74,4.9,2.74,7.86,0,4.89-1.85,8.88-5.57,11.95-3.71,3.06-8.67,4.59-14.83,4.59-5.74,0-10.53-1.27-14.33-3.8-4.51-2.99-6.77-7.1-6.77-12.3,0-2.88.85-5.51,2.54-7.91,1.69-2.4,4.36-4.26,8-5.56h.01Zm2.5-10.24c0,2.02.68,3.61,2.03,4.73,1.36,1.14,3.19,1.71,5.45,1.71s4.14-.58,5.51-1.72c1.37-1.14,2.07-2.74,2.07-4.76,0-1.91-.69-3.45-2.04-4.58-1.36-1.15-3.17-1.72-5.42-1.72s-4.17.57-5.54,1.73c-1.37,1.17-2.07,2.7-2.07,4.61h.01Zm-1.12,22.73c0,2.79.85,4.99,2.56,6.55,1.71,1.57,3.85,2.35,6.39,2.35s4.57-.75,6.2-2.26c1.64-1.5,2.46-3.68,2.46-6.52,0-2.49-.84-4.5-2.5-6-1.66-1.5-3.78-2.26-6.34-2.26-2.96,0-5.17.86-6.61,2.56-1.45,1.72-2.18,3.58-2.18,5.58h0Zm62.25-12.49c-3.12-1.1-5.41-2.63-6.82-4.57-1.42-1.94-2.14-4.08-2.14-6.39,0-3.95,1.65-7.22,4.93-9.81,3.28-2.58,7.96-3.89,14-3.89s10.67,1.29,13.98,3.88c3.31,2.58,4.97,5.87,4.97,9.81,0,2.45-.77,4.65-2.28,6.57-1.52,1.91-3.66,3.39-6.42,4.4,3.5,1.17,6.16,2.91,7.98,5.17,1.82,2.26,2.73,4.9,2.73,7.86,0,4.89-1.85,8.88-5.57,11.95-3.71,3.06-8.67,4.59-14.83,4.59-5.74,0-10.53-1.27-14.33-3.8-4.51-2.99-6.77-7.1-6.77-12.3,0-2.88.84-5.51,2.54-7.91,1.7-2.4,4.36-4.26,8-5.56h.01Zm2.5-10.24c0,2.02.67,3.61,2.02,4.73,1.37,1.14,3.19,1.71,5.45,1.71s4.14-.58,5.51-1.72c1.37-1.14,2.07-2.74,2.07-4.76,0-1.91-.69-3.45-2.04-4.58-1.36-1.15-3.17-1.72-5.42-1.72s-4.17.57-5.54,1.73c-1.38,1.17-2.08,2.7-2.08,4.61h.02Zm-1.12,22.73c0,2.79.85,4.99,2.55,6.55,1.71,1.57,3.85,2.35,6.39,2.35s4.58-.75,6.2-2.26c1.64-1.5,2.46-3.68,2.46-6.52,0-2.49-.84-4.5-2.5-6-1.66-1.5-3.77-2.26-6.33-2.26-2.96,0-5.16.86-6.61,2.56-1.45,1.72-2.17,3.58-2.17,5.58h0Zm52.13,3.87l11.7-1.08c.29,2,1.04,3.49,2.25,4.45,1.2.96,2.8,1.45,4.78,1.45,2.5,0,4.62-.97,6.36-2.89,1.74-1.92,2.88-5.93,3.36-12.01-3.04,2.97-6.85,4.45-11.41,4.45-4.96,0-9.24-1.61-12.83-4.82-3.6-3.21-5.41-7.42-5.41-12.58s1.9-9.72,5.71-13.01c3.8-3.29,8.64-4.95,14.52-4.95,6.39,0,11.65,2.09,15.75,6.25,4.1,4.17,6.16,11.02,6.16,20.54s-2.14,16.7-6.41,21c-4.27,4.29-9.85,6.44-16.7,6.44-4.93,0-8.92-1.11-11.95-3.31-3.05-2.21-5.01-5.51-5.87-9.9h0Zm27.38-22.24c0-3.26-.91-5.81-2.7-7.62-1.79-1.81-3.87-2.72-6.24-2.72-2.23,0-4.1.74-5.56,2.22-1.47,1.49-2.22,3.93-2.22,7.3s.8,5.95,2.41,7.55c1.6,1.6,3.63,2.41,6.03,2.41s4.29-.78,5.87-2.32c1.59-1.53,2.39-3.81,2.39-6.8v-.02h.01Z"/>
      <path class="cls-4" d="m269.17,311h0c49.28,0,94,20.09,126.42,52.5,32.41,32.41,52.5,77.14,52.5,126.42h0c0,49.28-20.09,94.01-52.5,126.41-32.42,32.41-77.14,52.51-126.42,52.51h0c-49.28,0-94.01-20.1-126.42-52.51-32.41-32.41-52.5-77.14-52.5-126.41h0c0-49.28,20.1-94.02,52.5-126.43,32.41-32.41,77.14-52.5,126.42-52.5h0Zm0,14.68h0c-45.22,0-86.28,18.45-116.03,48.21-29.75,29.75-48.2,70.81-48.2,116.04h0c0,45.23,18.45,86.29,48.2,116.04,29.75,29.76,70.81,48.2,116.04,48.2h0c45.22,0,86.28-18.45,116.03-48.2,29.76-29.76,48.21-70.82,48.21-116.04h0c0-45.23-18.45-86.29-48.2-116.04-29.76-29.76-70.81-48.21-116.04-48.21h0Z"/>
      <polygon class="cls-1" points="183.39 363.28 205.4 363.28 205.4 467.8 257.88 467.8 257.88 363.28 281.58 363.28 281.58 604.61 257.88 604.61 257.88 489.9 205.4 489.9 205.4 604.61 183.39 604.61 183.39 363.28 183.39 363.28"/>
      <path class="cls-1" d="m281.58,363.28h33.86c62.3-4.29,71.73,93.69,19.47,115.57,43.17,3.68,18.62,85.54,35.55,125.76h-25.39c-7.06-25.49-7.9-54.1-5.93-84.12-2.54-16.99-11.86-27.19-27.93-30.59h-29.62v-22.1h39.78c17.49-11.9,24.83-27.19,22.01-45.89-17.36-13.02-39.08-17.27-61.79-19.54v-39.09h0Z"/>
      <path class="cls-1" d="m378.93,454.2c-69.76-87.1-217.75-51.7-224.31,31.45-7.37,79.72,158.04,137.22,228.54,30.58l16.08,13.6c-77.38,121.17-277.85,59.56-269.17-44.18,7-112.81,198.06-143.23,268.33-41.64l-19.47,10.19h0Z"/>
    </g>
  </g>
</svg>