<?xml version="1.0" encoding="UTF-8"?>
<svg id="Layer_2" data-name="Layer 2" xmlns="http://www.w3.org/2000/svg" viewBox="0 0 238.05 295">
  <defs>
    <style>
      .cls-1 {
        fill: none;
        stroke: #d70e16;
        stroke-miterlimit: 10;
      }

      .cls-2 {
        fill: #d70e16;
      }

      .cls-2, .cls-3, .cls-4 {
        stroke-width: 0px;
      }

      .cls-3 {
        fill: #da1019;
      }

      .cls-4 {
        fill: #fff;
      }
    </style>
  </defs>
  <g id="Layer_1-2" data-name="Layer 1">
    <path class="cls-2" d="m238.05,147.5c0,47.91-18.44,90.49-47,117.44-13.92,13.13-30.24,22.54-48.01,27.05-7.75,1.98-15.78,3.01-24.01,3.01s-16.98-1.13-25.06-3.28c-16.61-4.4-31.93-13.11-45.18-25.13C19.21,239.76,0,196.41,0,147.5S19.21,55.24,48.79,28.41c13.25-12.02,28.57-20.73,45.18-25.13,8.08-2.15,16.46-3.28,25.06-3.28s16.26,1.03,24.01,3.01c17.77,4.51,34.09,13.92,48.01,27.05,28.56,26.95,47,69.53,47,117.44Z"/>
    <ellipse class="cls-4" cx="119.03" cy="147.5" rx="114.22" ry="141.54"/>
    <path class="cls-1" d="m117.62,130.92c-.45,0-.89,0-1.34.01-8.32.12-16.04,1.44-22.31,4.98-9.09,5.13-15.11,14.95-15.43,32.63v.18c0,.42,0,.85,0,1.29,0,25.65,9.18,36.74,15.44,42.34.21.19.41.37.61.54,1.25,1.08,2.36,1.95,3.23,2.67-1.38,0-2.65.04-3.84.12-10.6.69-13.83,4.32-14.42,7.86-.34,2,.17,3.98.67,5.37,2.02-3.18,9.86-7.41,12.72-7.84.35-.05.69-.1,1.03-.14,7.75-.98,12.48.44,16.45,3.34,2.1,1.54,3.98,3.49,6,5.73.3.33.6.67.91,1.02.09.11.19.22.29.33-.09-.12-.18-.24-.27-.35h-.01c-.27-.36-.58-.69-.92-1-4.98-4.68-14.6-3.91-17.23-1.09-1.12,1.2-2.96,2.23-5.22,3.12-2.22.88-4.85,1.62-7.62,2.28-1.59.38-3.23.73-4.85,1.06,3.79,2.9,8.32,1.66,12.47-.35,3.6-1.73,6.93-4.04,9.24-4.73,2.48-.74,4.25-.77,5.63-.02,1.39.75,2.37,2.29,3.27,4.68-5.72-4.87-9.43-.53-10.17,3.39-2.68,2.3-5.35,4.1-7.97,5.48-19.21,10.18-35.78-1.88-35.78-1.88,0,0,.07-1.03.19-2.62.38-5.25,1.19-16.62,1.19-17.19,0-.74,8.58,0,13.66,0,.32-8.37,9.33-7.41,9.33-7.41,0,0-.02-1.17-.04-2.76-.03-2.15-.07-5.06-.07-6.88,0-3.18-15.57-14.73-15.57-14.73,0,0,.52-.51.99-2.01.24-.75.47-1.76.6-3.07.08-.82.07-1.69-.02-2.6-.85-8.3-8.35-19.67-8.35-25.69,0-.63.02-1.24.05-1.83.66-12.25,7.97-17.58,13.93-22.64,9.84,4.22,16.38.52,19.89-3.28,2.04-2.21,3.06-4.46,3.1-5.2.03-.6-.29-.7-.87-.59-.54.09-1.32.36-2.23.57-1.33.3-2.94.44-4.53-.4-2.1-1.11-2.3-3.01-1.83-4.77.38-1.44,1.21-2.77,1.83-3.49.43-.49.46-1.73.26-3.3-.44-3.49-2.03-8.63-2.91-10.9-1.27-3.28-7.41-15.68-7.2-18.96.02-.35.11-.63.26-.86,1.24-1.92,6.54.09,10.23.75.86-2.44,2.38-3.48,3.89-3.98.51-.17,1.03-.28,1.51-.36,1.91-.32,3.5,2.44,5.61,4.66,2.12,2.23,8.37,1.49,10.6-1.8,2.22-3.28,4.59-3.92,4.59-3.92"/>
    <path class="cls-1" d="m117.62,110.79s-18.22.42-19.7.85-4.24,1.27-3.6,2.33,7.52,2.33,7.42,4.66,2.75,23.09-27.86,18.64c-3.92,4.34-10.7,12.39-9.43,18.54s8.05,16.95,7.84,24.05-.85,9.85-.85,9.85c0,0,19.6,10.81,16.47,25.85"/>
    <path class="cls-1" d="m114.95,130.92c.44,0,.89,0,1.33.01,10.41.15,19.9,2.17,26.76,8.1,6.57,5.65,10.73,14.89,10.99,29.51v.18c.01.42.01.85.01,1.29,0,24.54-5.91,36.09-11,42.08-.44.52-.87.99-1.28,1.43-1.03,1.06-1.99,1.91-2.83,2.61,1.47,0,2.84.12,4.11.31,7.87,1.18,11.98,5.58,12.86,9.21.26,1.1.23,2.12-.07,2.97-1.51-2.39-8.31-5.22-12.79-6.66-1.48-.46-2.7-.79-3.41-.89-7.96-1.18-12.03-.05-15.38,2.6-1.93,1.52-3.62,3.55-5.69,5.94-.39.45-.79.91-1.21,1.39,0,.01-.01.01-.02.02"/>
    <path class="cls-1" d="m117.35,231c.36-.51.77-.97,1.21-1.39,4.84-4.7,13.28-4.64,15.89-1.84,1.55,1.67,4.78,3.32,8.59,4.73,1.85.68,3.84,1.31,5.84,1.85,1.44.39,2.9.73,4.3,1.02-3.13,2.38-6.7,2.11-10.14.93-4.36-1.49-8.51-4.44-11.29-5.26-.17-.05-.34-.1-.5-.14-4.62-1.24-6.66.19-8.4,4.8,5.72-4.87,10.02-2.39,10.76,1.53,1.81,4.46,5.25,7.08,9.43,8.51,12.93,4.41,32.87-2.71,32.87-2.71,0,0-.02-1.07-.06-2.74-.11-5.22-.33-16.26-.28-18.19-6.33-.06-9.24.14-14.33.14-.59-6.36-9.25-7.59-9.25-7.59,0,0,.02-1.17.04-2.75.03-2.15.07-5.07.07-6.89,0-3.18,15.02-13.7,15.02-13.7,0,0-.26-.96-.5-2.41-.25-1.43-.49-3.34-.46-5.24.01-.34.02-.68.04-1.01v-.04c.63-10.5,7.95-21.52,7.95-27.97,0-.63-.01-1.24-.05-1.83-.57-12.02-6.93-15.06-12.89-20.11-7.51,3.22-13.73,1.79-18.17-.78-4.77-2.77-7.48-6.85-7.54-7.89-.04-.69.41-.72,1.16-.53,1.41.33,3.91,1.4,6.38.15.03-.01.06-.02.09-.04,2.1-1.11,2.3-3.02,1.83-4.78-.38-1.43-1.21-2.77-1.83-3.48-.03-.04-.06-.08-.09-.13-.34-.56-.35-1.72-.17-3.16.04-.35.1-.73.17-1.11.59-3.4,1.95-7.76,2.74-9.8,1.27-3.28,7.41-15.68,7.2-18.96-.02-.35-.11-.63-.26-.86-1.18-1.83-6.04-.1-9.68.65-.19.03-.37.07-.55.1-1.16-3.28-3.49-4.02-5.4-4.34s-3.5,2.44-5.62,4.66c-2.11,2.23-8.36,1.49-10.59-1.8-2.22-3.28-4.6-3.92-4.6-3.92"/>
    <path class="cls-1" d="m117.28,231.08s.04-.04.05-.06"/>
    <path class="cls-1" d="m114.95,110.79s18.22.42,19.7.85,4.24,1.27,3.6,2.33-7.52,2.33-7.42,4.66-1.25,23.3,29.36,18.85c3.92,4.34,11,12.42,9.73,18.56s-7.92,16.92-7.71,24.02.86,10.57.86,10.57c0,0-18.89,6.36-14.79,27.08"/>
    <path class="cls-1" d="m114.95,135s-21.88-1.77-28.09,12.65-14.58,55.14,30.05,76.41c4.91-1.29,12.19-5.56,17.97-9.18,0,0,17.68-15.39,14.54-48.83s-18.36-29.69-34.47-31.04Z"/>
    <path class="cls-1" d="m116.28,138.36c-7.32.18-19.97-1.87-24.39,10.49s-2.92,42.62.07,48.02c3,5.39,11.23,21.72,25.65,21.72,6.71,0,21.17-4.27,26.64-26.74s.57-40.22-2.1-44.57c-1.36-2.22-4.86-9.45-25.87-8.92Z"/>
    <path class="cls-1" d="m123.23,201.15v-7.47c0-3.12-2.53-5.66-5.66-5.66h-.41c-3.12,0-5.66,2.53-5.66,5.66v7.47h-12.03l4.52-22.04h-1.71v-2.44h1.71v-14.84h-1.28v-3.6h8.61v3.6h-1.65v14.84h3.77v-24.42h-2.33v-3.61h11.52v3.61h-1.76v24.42h3.33v-14.84h-1.57v-3.6h8.61v3.6h-1.36v14.84h3.05v2.44h-3.05l4.39,22.04h-11.05Z"/>
    <path class="cls-1" d="m101.93,238.3c8.23,10.26,15.61-.91,15.61-.91,0,0,8.34,10.19,16.02.17"/>
    <path class="cls-1" d="m88.27,105.65c.14-.2,15.33-4.38,28.53-4.11s27.5,4.11,27.5,4.11"/>
    <path class="cls-1" d="m88.27,102.37c.14-.2,15.33-4.38,28.53-4.11s27.5,4.11,27.5,4.11"/>
    <circle class="cls-1" cx="96.23" cy="95.9" r="2.06"/>
    <circle class="cls-1" cx="116.28" cy="95.9" r="2.06"/>
    <circle class="cls-1" cx="135.46" cy="95.9" r="2.06"/>
    <path class="cls-1" d="m102.2,87.21s0,6.44,4.05,5.44,3.85-2.26,3.85-2.26c0,0,7.63,1.46,3.18-4.98"/>
    <path class="cls-1" d="m120.12,84.35c-.2,0-3.12,1.66-1.46,4.31s5.31,6.83,11.21.86"/>
    <circle class="cls-1" cx="125.42" cy="87.47" r=".99"/>
    <circle class="cls-1" cx="107.44" cy="87.47" r=".99"/>
    <circle class="cls-1" cx="95.2" cy="82.53" r="1.03"/>
    <circle class="cls-1" cx="135.89" cy="82.53" r="1.03"/>
    <circle class="cls-1" cx="95.95" cy="106.58" r="1.69"/>
    <circle class="cls-1" cx="105.75" cy="105.28" r="1.69"/>
    <circle class="cls-1" cx="116.28" cy="105.28" r="1.69"/>
    <circle class="cls-1" cx="127.49" cy="105.28" r="1.69"/>
    <circle class="cls-1" cx="136.55" cy="106.58" r="1.69"/>
    <path class="cls-1" d="m47.08,69.48c2.92,2.92-1.64,6.67-1.64,6.67l-5.03-4.22s3.74-5.38,6.67-2.45Z"/>
    <polyline class="cls-1" points="48.79 77.67 55.67 82.53 51.57 86.69 48.79 84.56"/>
    <path class="cls-1" d="m48.79,77.19c.25-.25.76-.77,1.77-1.78,2.06-2.05,3.68-.19,3.68-.19l4.54,3.87h0c.09-.04.68-.55,3.99-3.87-5.79-5.6-8.91-6.22-10.84-4.54.89-3.55-.96-5.29-3.14-6.13"/>
    <path class="cls-1" d="m45.44,76.15l-5.03-4.22s3.74-5.38,6.67-2.45c2.92,2.92-1.64,6.67-1.64,6.67Z"/>
    <path class="cls-1" d="m47.18,58.33l16.23,15.95s9.5-9.36,9.5-9.57-3.4-3.4-3.4-3.4l-6.1,6.45-3.75-4,5.76-5.78-2.65-2.98-5.74,5.9-2.98-3.19,6.45-5.76-2.82-3.09-10.5,9.47Z"/>
    <path class="cls-1" d="m74.02,36.41l-4.37,3.4,8.39,11.65-12.14-9.85-5.34,3.95,12.83,18.93s3.95-2.98,3.95-3.33-9.02-12.69-9.02-12.69l12.83,10.61,5.9-4.3-13.04-18.38Z"/>
    <path class="cls-1" d="m93.97,52.47c-4.06,2.1-7.4,3.15-7.4,3.15l-.13-.38-.91-2.6h0s-6.38-18.38-6.38-18.38c0,0,10.05-6.21,14.82-2.03"/>
    <path class="cls-1" d="m93.97,46.85c.4-1.06.5-2.47,0-4.36"/>
    <path class="cls-1" d="m93.97,46.85c-.99,2.63-3.79,3.08-3.79,3.08l-4.85-13.52c3.74-1.04,5.54-1.6,7.9,3.95.33.77.57,1.48.74,2.13.5,1.89.4,3.3,0,4.36Z"/>
    <path class="cls-1" d="m143.04,48.94l.99-1.89s3.8,2.08,4.07,2.17.09,5.97.09,5.97l15.37,9.13,2.71-4.25-7.23-4.88,9.22-14.47-3.89-3.43s-10.76,18.53-10.49,16.9l2.36-20.34-5.43-2.8s-3.97,4.61-7.77,9.08"/>
    <path class="cls-1" d="m151.08,37.47c-.36.36-5.33,6.78-5.33,6.78l4.7,2.08.63-8.86Z"/>
    <path class="cls-1" d="m180.55,59.44l4.16,3.62s4.7-5.06,1.99-9.22-7.87-6.96-12.02-3.16-11.57,11.66-6.69,17.27,9.04,4.7,13.29-.63l-3.62-3.71s-3.44,4.43-5.88,2.17,3.62-8.41,6.15-10.49,6.96-.36,2.62,4.16Z"/>
    <polyline class="cls-1" points="191.05 67.4 179.74 78.06 175.67 73.99 191.05 60.07"/>
    <path class="cls-1" d="m191.05,70.83c-1,.71-1.65,1.29-1.73,1.35-3.52,2.81-9.31,9.32-3.61,14.56,1.82,1.68,3.62,2.28,5.34,2.23"/>
    <path class="cls-1" d="m191.05,84.22c1.67-.25,3.81-1.27,6.05-3,6.01-4.64,3.34-7.5,3.34-7.5-1.35-1.17-5.15-.36-8.67,2.26-.25.19-.49.38-.72.57"/>
    <path class="cls-1" d="m197.1,81.22c-2.24,1.73-4.38,2.75-6.05,3-1.29.19-2.31-.08-2.9-.83-1.26-1.59-.1-4.36,2.9-6.84.23-.19.47-.38.72-.57,3.52-2.62,7.32-3.43,8.67-2.26,0,0,2.67,2.86-3.34,7.5Z"/>
    <path class="cls-1" d="m100.53,82.11c-1.54,5.28-8.3,4.97-8.5,4.97,0,0,2,7.38-6.86,9.48"/>
    <path class="cls-1" d="m130.08,83.18s6.94,9.79,12.41-1.1"/>
    <path class="cls-3" d="m93.97,46.85v-4.36c.5,1.89.4,3.3,0,4.36Z"/>
    <path class="cls-3" d="m143.04,40.13V3.01c-7.75-1.98-15.78-3.01-24.01-3.01s-16.98,1.13-25.06,3.28v28.95c.4.35.76.77,1.07,1.27,4.09,6.52,6.65,14.49,1.52,17.54-.88.52-1.75,1-2.59,1.43v22.87c.51-.17,1.03-.28,1.51-.36,1.91-.32,3.5,2.44,5.61,4.66,2.12,2.23,8.37,1.49,10.6-1.8,2.22-3.28,4.59-3.92,4.59-3.92,0,0,2.38.64,4.6,3.92,2.23,3.29,8.48,4.03,10.59,1.8,2.12-2.22,3.71-4.98,5.62-4.66,1.91.32,4.24,1.06,5.4,4.34.18-.03.36-.07.55-.1v-30.28l-1.49,2.84s-2.35-1.44-5.31-3.34c-.04-.03.3-.49.92-1.26-1.21,1.28-2.96,2.04-5.34,1.95-4.7-.18-6.78-3.89-6.5-10.04.27-6.14,2.35-11.93,8.4-12.38,9.22-.69,7.6,9.22,7.6,9.22l-4.88-.18c.81-3.26.54-5.06-2.08-5.61-2.63-.54-3.98,2.35-4.89,5.25-.9,2.89-1.73,9.94,1.98,10.76,3.7.81,4.17-3.98,4.17-3.98,0,0,.36-.09,3.62.09-.18,1.55-.65,2.98-1.44,4.13,1.3-1.59,3.25-3.91,5.24-6.26Zm-28.74,7.7c-.12.14-12.16.81-12.16.81l-1.47-20.52,12.28-.88.11,4.08-7.36.48.11,3.95,7.47-.74.05,3.64-7.44.62.15,4.95,8-.73s.39,4.2.26,4.34Zm3.32,193.33c-2.93,4.65-17.18,7.65-23.65,7.28v43.28c8.08,2.15,16.46,3.28,25.06,3.28s16.26-1.03,24.01-3.01l-1.75-43.55c-13.2-.48-19.86-2.79-23.66-7.28Z"/>
    <path class="cls-1" d="m139.1,89.84c-.05.36-.26,5.17,2.51,4.3s1.95-4.61,9.07-4.81"/>
    <path class="cls-3" d="m47.08,69.48c2.92,2.92-1.64,6.67-1.64,6.67l-5.03-4.22s3.74-5.38,6.67-2.45Z"/>
    <path class="cls-3" d="m48.51,77.47l.28-.28v.48l-.28-.2Z"/>
    <path class="cls-3" d="m48.79,28.41v36.14c-2.38-.93-5.14-.79-5.14-.79l-9.03,9.97,14.17,10.83v182.03C19.21,239.76,0,196.41,0,147.5S19.21,55.24,48.79,28.41Z"/>
    <path class="cls-3" d="m197.1,81.22c-2.24,1.73-4.38,2.75-6.05,3v-7.67c.23-.19.47-.38.72-.57,3.52-2.62,7.32-3.43,8.67-2.26,0,0,2.67,2.86-3.34,7.5Z"/>
    <path class="cls-3" d="m238.05,147.5c0,47.91-18.44,90.49-47,117.44V88.97c3.64-.09,6.91-3.1,9.3-4.94,3.53-2.71,7.42-7.96,2.45-13.74-3.65-4.24-9.02-1.38-11.75.54v-3.43l4.42-4.17-3.43-4.06-.99.9v-30.01c28.56,26.95,47,69.53,47,117.44Z"/>
  </g>
</svg>