<?xml version="1.0" encoding="UTF-8"?>
<svg id="Layer_2" data-name="Layer 2" xmlns="http://www.w3.org/2000/svg" xmlns:xlink="http://www.w3.org/1999/xlink" viewBox="0 0 260.88 378.96">
  <defs>
    <style>
      .cls-1 {
        clip-path: url(#clippath);
      }

      .cls-2, .cls-3, .cls-4, .cls-5, .cls-6, .cls-7, .cls-8, .cls-9 {
        stroke-width: 0px;
      }

      .cls-2, .cls-10 {
        fill: none;
      }

      .cls-11 {
        clip-path: url(#clippath-1);
      }

      .cls-3 {
        fill: #080808;
      }

      .cls-3, .cls-4, .cls-5, .cls-6, .cls-7, .cls-8, .cls-9 {
        fill-rule: evenodd;
      }

      .cls-4 {
        fill: #070707;
      }

      .cls-5 {
        fill: #c20f25;
      }

      .cls-6 {
        fill: #c01024;
      }

      .cls-7 {
        fill: #c10e24;
      }

      .cls-8 {
        fill: #fff;
      }

      .cls-9 {
        fill: #f3e13f;
      }

      .cls-10 {
        stroke: #007038;
        stroke-width: .43px;
      }
    </style>
    <clipPath id="clippath">
      <rect class="cls-2" width="260.88" height="378.96"/>
    </clipPath>
    <clipPath id="clippath-1">
      <rect class="cls-2" width="260.88" height="378.96"/>
    </clipPath>
  </defs>
  <g id="Layer_1-2" data-name="Layer 1">
    <g>
      <path class="cls-4" d="m61.78,203.34l4.94.03c.49,0,1.31-.26,1.02-.93-2.31-5.31-7.63-6.5-13.29-6.47-9.54.06-15.04,2.88-15.15,10.87-.11,7.92,6.88,11.8,14.1,11.77,6.32-.02,11.45-1.73,14.1-7.35.34-.73.14-.95-.88-.95l-4.89.03c-.59.11-.84.35-.99.63-1.18,2.39-3.21,3.65-6.93,3.71-4.44.07-7.79-2.99-7.7-7.93.08-4.29,2.59-6.92,8.44-6.96,2.56-.02,4.36.04,6.16,2.82.34.53.56.75,1.06.72h0Z"/>
      <path class="cls-4" d="m76.97,213.45h4.92c.23,0,.42.19.42.43v4.28c0,.24-.19.43-.42.43h-4.92c-.24,0-.43-.19-.43-.43v-4.28c0-.23.19-.43.43-.43h0Z"/>
      <path class="cls-4" d="m121.83,213.45h4.91c.24,0,.43.19.43.43v4.28c0,.24-.19.43-.43.43h-4.91c-.23,0-.43-.19-.43-.43v-4.28c0-.23.19-.43.43-.43h0Z"/>
      <path class="cls-4" d="m174.55,213.45h4.92c.23,0,.43.19.43.43v4.28c0,.24-.19.43-.43.43h-4.92c-.23,0-.42-.19-.42-.43v-4.28c0-.23.19-.43.42-.43h0Z"/>
      <path class="cls-4" d="m227.06,213.45h4.92c.24,0,.43.19.43.43v4.28c0,.24-.19.43-.43.43h-4.92c-.23,0-.42-.19-.42-.43v-4.28c0-.23.19-.43.42-.43h0Z"/>
      <path class="cls-4" d="m95.01,195.95h21.86c.23,0,.43.19.43.42v3.2c0,.23-.19.42-.43.42h-15.36v5.03h13.04c.23,0,.43.19.43.43v2.81c0,.23-.19.42-.43.42h-13.04v9.45c0,.23-.19.43-.43.43h-6.07c-.24,0-.43-.19-.43-.43v-21.75c0-.23.19-.42.43-.42h0Z"/>
      <path class="cls-4" d="m163.95,202.45c.25,1.06.02,4.2-3.64,4.63-.25.06-.36.49.21.65,2.2.61,2.48,1.83,2.48,4.18v6.25c0,.24-.19.43-.43.43h-5.12c-.23,0-.43-.19-.43-.43v-6.25c0-1.13-.22-2.43-2.18-2.43h-8.75v8.68c0,.23-.19.43-.43.43h-5.34c-.23,0-.43-.19-.43-.43v-21.76c0-.23.19-.45.43-.45h4.72s10.76.08,10.76.08c4.62.31,8.03,1.79,8.14,6.42h0Zm-8.14-2.58h-9.72v6h8.75c4.64.09,4.26-6.04.96-6h0Z"/>
      <path class="cls-4" d="m205.07,200.03h-7.53v14.2h6.16c3.31,0,6.41-2.13,6.6-7.34.16-4.17-1.91-6.86-5.23-6.86h0Zm-1.37,18.56h-6.41c-.06.02-.11.04-.17.04h-5.27c-.23,0-.43-.19-.43-.43v-21.79c0-.23.19-.43.43-.43h4.42v-.04h8.79c6.11.89,11.64,3.75,11.6,10.97-.03,7.22-5.8,11.65-12.97,11.67h0Z"/>
      <g class="cls-1">
        <path class="cls-5" d="m73.64,131.16c-7.25,0-13.12,5.41-13.12,12.09s5.88,12.09,13.12,12.09,13.12-5.42,13.12-12.09-5.88-12.09-13.12-12.09h0Z"/>
        <path class="cls-3" d="m15.75,121.19c5.99,3.06,11.55,3.96,16.61,3.36,5.98-.7,11.47-3.52,16.28-7.35,4.86-3.87,7.73-8.33,8.82-13.27,1.2-5.43.38-11.66-2.18-18.53l-2.46-6.59,6.82-1.78c13.97-3.64,27.21-8.39,40.1-14.5,12.9-6.11,25.42-13.55,37.94-22.57,13.41-9.66,27.37-18.37,41-24.93,12.34-5.94,24.46-10.17,35.76-11.84l15.56-2.3-9.61,12.49c-8.74,11.36-12.3,22.43-11.88,33.23.42,10.94,4.94,21.9,12.32,32.82,11.2,16.58,21.71,33.85,29.09,52.34,7.48,18.76,11.64,38.55,9.85,59.75-3.01,35.73-13.57,61.68-28.5,82.73-14.8,20.87-33.64,36.59-53.6,52.25-8.22,6.46-15.49,14.09-19.13,22.04-2.68,5.85-3.34,11.93-.73,17.82l5.03,11.34-12.16-2.55c-20.01-4.19-40.19-12.98-59.12-26.92-17.3-12.74-33.56-29.77-47.67-51.5-9.18-14.13-17.57-28.49-23.03-44.84-5.53-16.55-7.99-34.95-5.12-56.85,4.58-35.05-.34-46.34-6.21-59.77-.81-1.86-1.64-3.76-2.56-5.99L.41,113.36l15.34,7.83Zm198.32,113.51v41.07c2.38-2.87,4.66-5.83,6.84-8.89,6.69-9.43,12.42-19.98,16.86-32.18h-23.7Zm-39.19,77.77v-77.77h-21.38v97.91c4.52-5.9,10.21-11.34,16.29-16.12,1.7-1.34,3.4-2.68,5.09-4.02h0Zm-60,35.7v-113.47h-21.94v98.51c2.04,1.66,4.09,3.24,6.15,4.77,5.18,3.81,10.45,7.2,15.78,10.19h0Zm-61.88-60.77v-52.7h-23.6c.92,4.55,2.11,8.93,3.52,13.16,4.72,14.15,12.01,26.94,20.08,39.54h0Zm-25.41-65.64h214.21c2.41-9.15,4.17-19.15,5.16-30.19l-217.99-.09c-.19,1.68-.4,3.41-.63,5.21-1.17,8.97-1.36,17.29-.75,25.07h0Zm2.37-41.34l92.97.04v-115.77c-5.87,3.41-11.78,6.52-17.77,9.36-11.59,5.49-23.48,9.95-35.91,13.53,1.68,6.72,1.94,13.11.61,19.1-1.73,7.82-6.06,14.72-13.3,20.49-6.52,5.2-14.16,9.03-22.76,10.04-3.12.37-6.35.36-9.67-.09,4.2,10.43,7.18,21.77,5.83,43.3h0Zm105.16.04l112.3.05c-.17-15.4-3.72-30.03-9.32-44.06-6.9-17.29-17.02-33.87-27.84-49.9-8.63-12.78-13.93-25.93-14.46-39.5-.36-9.2,1.48-18.45,5.96-27.74-5.7,1.86-11.58,4.29-17.56,7.17-12.98,6.25-26.3,14.56-39.11,23.79-3.32,2.39-6.64,4.68-9.97,6.87v123.32Z"/>
      </g>
      <path class="cls-5" d="m44.65,145.53c-5.84,3.31-7.39,9.15-3.66,17.06,2.95,6.25,8.81,7.76,16.08,6.09.44.69.98,1.32,1.31,2.06.28.62.42,1.3.52,1.97.18,1.26.83,2.01,1.62,2.67.62.53,1.2.58,1.62.28,1.76-1.26,3.6-2.59,5.63-3.56,2.01,2.83,5.57,5.01,11.48,5.16,4.17.1,7.75-2.08,10.5-5.43,1.36-1.66,2.52-3.89,3.56-5.76,2.41.36,4.84.8,7.22.33,1.07-.21,1.86-.75,1.5-2.16-.39-1.54-1.37-2.97-2.51-4.34,5.23-2.38,10.82-6.24,11.55-11.04.75-4.9-1.77-9.35-5.44-12.52-1.13-.98-1.7-2.4-1.41-3.89.22-1.09,1.16-1.91,1.88-2.76,1.01-1.21.87-2.42-.61-3.09-.88-.41-1.94-.19-2.91-.28.48-7.95-2.77-12.55-7.83-15.42-4.59-2.61-9.97-3-15.56-.19-2.48,1.25-4.77,2.41-6.7-.33-1.03-1.46-1.62-3.2-2.39-4.82-.07.38-.15.75-.23,1.12-1.73,7.82-6.06,14.72-13.3,20.49-5.52,4.4-11.84,7.82-18.86,9.38,1.45,5.12,3.87,7.84,6.93,8.98h0Zm29.07,13.03c-8.77.08-15.95-6.68-16.02-14.92-.07-8.24,6.98-15.36,15.76-15.44,8.78-.08,16,6.96,16.07,15.2.07,8.24-7.03,15.08-15.81,15.16h0Zm-1.49-34.52c-1.43.02-2.62-1.93-2.66-4.37-.04-2.43,1.09-4.42,2.52-4.44,1.43-.02,2.62,1.93,2.66,4.36.04,2.43-1.09,4.43-2.52,4.45h0Zm-10.19,43.6c.93-1.97,2.19-3.32,2.81-3.03.62.29.37,2.12-.57,4.09-.93,1.97-2.19,3.32-2.81,3.03-.62-.29-.37-2.13.57-4.09h0Zm29.53-8.23c.49-.78,2.26-.56,3.97.51,1.71,1.06,2.7,2.56,2.22,3.34-.48.78-2.26.56-3.97-.51-1.71-1.06-2.7-2.56-2.21-3.34h0Zm2.51-27.07c-.3-.87,1.09-2.13,3.09-2.82,2.01-.69,3.88-.54,4.17.33.3.87-1.09,2.13-3.09,2.82-2.01.69-3.87.54-4.17-.33h0Zm-48.05,6.61c-.33.79-1.55,1.02-2.71.53-1.16-.49-1.84-1.53-1.51-2.31.33-.78,1.54-1.02,2.71-.53,1.16.49,1.84,1.53,1.51,2.31h0Z"/>
      <path class="cls-8" d="m73.46,128.19c-8.78.07-15.83,7.2-15.76,15.44.07,8.24,7.25,15,16.02,14.92,8.78-.08,15.88-6.91,15.81-15.16-.07-8.24-7.29-15.28-16.07-15.2h0Zm-12.95,15.06c0-6.68,5.88-12.09,13.12-12.09s13.12,5.41,13.12,12.09-5.88,12.09-13.12,12.09-13.12-5.42-13.12-12.09h0Z"/>
      <path class="cls-8" d="m46.03,138.94c.33-.79-.34-1.82-1.51-2.31-1.17-.49-2.38-.25-2.71.53-.33.79.34,1.82,1.51,2.31,1.16.49,2.38.25,2.71-.53h0Z"/>
      <path class="cls-8" d="m69.57,119.67c.04,2.43,1.23,4.39,2.66,4.37,1.43-.02,2.56-2.01,2.52-4.45-.04-2.43-1.23-4.39-2.66-4.36-1.43.02-2.56,2.01-2.52,4.44h0Z"/>
      <path class="cls-8" d="m97.17,129.52c-2.01.68-3.39,1.95-3.09,2.82.3.87,2.16,1.02,4.17.33,2-.69,3.39-1.94,3.09-2.82-.3-.87-2.16-1.02-4.17-.33h0Z"/>
      <path class="cls-8" d="m95.54,159.91c-1.71-1.06-3.49-1.29-3.97-.51-.48.78.51,2.27,2.21,3.34,1.71,1.06,3.49,1.29,3.97.51.48-.78-.51-2.27-2.22-3.34h0Z"/>
      <g class="cls-11">
        <path class="cls-8" d="m64.28,168.7c.93-1.97,1.19-3.8.57-4.09-.62-.29-1.88,1.06-2.81,3.03-.93,1.96-1.19,3.8-.57,4.09.62.29,1.88-1.06,2.81-3.03h0Z"/>
        <path class="cls-3" d="m241.82,221.76H27.61c-.61-7.79-.42-16.1.75-25.07.23-1.79.45-3.52.63-5.21l217.99.09c-.98,11.04-2.74,21.04-5.16,30.19h0Zm-118.87-41.3l-92.97-.04c1.35-21.53-1.64-32.87-5.83-43.3,3.32.45,6.54.46,9.67.09,1.33-.16,2.63-.38,3.9-.66,7.02-1.56,13.34-4.98,18.86-9.38,7.25-5.77,11.57-12.67,13.3-20.49.08-.37.16-.74.23-1.12,1.06-5.66.74-11.68-.84-17.98,12.44-3.58,24.33-8.04,35.91-13.53,5.99-2.83,11.9-5.95,17.77-9.36v115.77Zm-90.58-55.91c-5.06.6-10.62-.3-16.61-3.36L.41,113.36l6.57,15.93c.92,2.23,1.75,4.12,2.56,5.99,5.86,13.44,10.79,24.73,6.21,59.77-2.86,21.9-.4,40.3,5.12,56.85,5.46,16.35,13.86,30.71,23.03,44.84,14.11,21.73,30.37,38.77,47.67,51.5,18.93,13.94,39.11,22.73,59.12,26.92l12.16,2.55-5.03-11.34c-2.61-5.89-1.95-11.97.73-17.82,3.64-7.95,10.91-15.59,19.13-22.04,19.96-15.67,38.8-31.39,53.6-52.25,14.93-21.05,25.49-47,28.5-82.73,1.78-21.2-2.37-40.99-9.85-59.75-7.38-18.49-17.89-35.76-29.09-52.34-7.38-10.92-11.89-21.88-12.32-32.82-.42-10.8,3.14-21.87,11.88-33.23l9.61-12.49-15.56,2.3c-11.3,1.67-23.42,5.9-35.76,11.84-13.62,6.56-27.59,15.27-41,24.93-12.52,9.02-25.04,16.46-37.94,22.57-12.89,6.1-26.13,10.86-40.1,14.5l-6.82,1.78,2.46,6.59c2.57,6.87,3.38,13.11,2.18,18.53-1.09,4.93-3.96,9.39-8.82,13.27-4.82,3.84-10.31,6.65-16.28,7.35h0Zm60.58,208.66v-98.51h21.94v113.47c-5.33-2.99-10.61-6.38-15.78-10.19-2.07-1.52-4.12-3.11-6.15-4.77h0Zm60.56-.6v-97.91h21.38v77.77c-1.69,1.34-3.38,2.68-5.09,4.02-6.09,4.78-11.77,10.22-16.29,16.12h0Zm-100.5-97.91v52.7c-8.07-12.59-15.36-25.38-20.08-39.54-1.42-4.24-2.61-8.61-3.52-13.16h23.6Zm194.42-54.19l-112.3-.05V57.15c3.33-2.18,6.65-4.47,9.97-6.87,12.81-9.22,26.13-17.54,39.11-23.79,5.98-2.88,11.86-5.31,17.56-7.17-4.48,9.29-6.32,18.55-5.96,27.74.53,13.57,5.83,26.71,14.46,39.5,10.83,16.03,20.94,32.6,27.84,49.9,5.6,14.03,9.15,28.66,9.32,44.06h0Zm-33.36,95.26v-41.07h23.7c-4.44,12.2-10.17,22.74-16.86,32.18-2.18,3.07-4.46,6.03-6.84,8.89h0Z"/>
        <path class="cls-10" d="m241.82,221.76H27.61c-.61-7.79-.42-16.1.75-25.07.23-1.79.45-3.52.63-5.21l217.99.09c-.98,11.04-2.74,21.04-5.16,30.19h0Zm-118.87-41.3l-92.97-.04c1.35-21.53-1.64-32.87-5.83-43.3,3.32.45,6.54.46,9.67.09,1.33-.16,2.63-.38,3.9-.66,7.02-1.56,13.34-4.98,18.86-9.38,7.25-5.77,11.57-12.67,13.3-20.49.08-.37.16-.74.23-1.12,1.06-5.66.74-11.68-.84-17.98,12.44-3.59,24.33-8.04,35.91-13.53,5.99-2.83,11.9-5.95,17.77-9.36v115.77Zm-90.58-55.91c-5.06.6-10.62-.3-16.61-3.36L.41,113.36l6.57,15.93c.92,2.23,1.75,4.12,2.56,5.98,5.86,13.44,10.79,24.73,6.21,59.77-2.86,21.9-.4,40.3,5.12,56.85,5.46,16.35,13.86,30.71,23.03,44.84,14.11,21.73,30.37,38.77,47.67,51.5,18.93,13.94,39.11,22.73,59.12,26.92l12.16,2.55-5.03-11.34c-2.61-5.89-1.95-11.97.73-17.82,3.64-7.95,10.91-15.59,19.13-22.04,19.96-15.67,38.8-31.39,53.6-52.25,14.93-21.05,25.49-47,28.5-82.73,1.78-21.2-2.37-40.99-9.85-59.75-7.38-18.48-17.89-35.76-29.09-52.34-7.38-10.92-11.89-21.88-12.32-32.82-.42-10.8,3.14-21.87,11.88-33.23l9.61-12.49-15.56,2.3c-11.3,1.67-23.42,5.9-35.76,11.84-13.62,6.56-27.59,15.27-41,24.93-12.52,9.02-25.04,16.46-37.94,22.57-12.89,6.1-26.13,10.86-40.1,14.5l-6.82,1.78,2.46,6.59c2.57,6.87,3.38,13.1,2.18,18.53-1.09,4.93-3.96,9.39-8.82,13.27-4.82,3.84-10.31,6.65-16.28,7.35h0Zm60.58,208.66v-98.51h21.94v113.47c-5.33-2.99-10.61-6.38-15.78-10.19-2.07-1.52-4.12-3.11-6.15-4.77h0Zm60.56-.6v-97.91h21.38v77.77c-1.69,1.34-3.38,2.68-5.09,4.02-6.09,4.78-11.77,10.22-16.29,16.12h0Zm-100.5-97.91v52.7c-8.07-12.59-15.36-25.38-20.08-39.54-1.42-4.24-2.61-8.61-3.52-13.16h23.6Zm194.42-54.19l-112.3-.05V57.15c3.33-2.18,6.65-4.47,9.97-6.87,12.81-9.22,26.13-17.54,39.11-23.79,5.98-2.88,11.86-5.31,17.56-7.17-4.48,9.29-6.32,18.55-5.96,27.74.53,13.57,5.83,26.71,14.46,39.5,10.83,16.03,20.94,32.61,27.84,49.9,5.6,14.03,9.15,28.66,9.32,44.05h0Zm-33.36,95.26v-41.07h23.7c-4.44,12.2-10.17,22.74-16.86,32.18-2.18,3.07-4.46,6.03-6.84,8.89h0Z"/>
        <path class="cls-3" d="m92.95,333.21v-98.51h21.94v113.47c-5.33-2.99-10.61-6.38-15.78-10.19-2.07-1.52-4.12-3.11-6.15-4.77h0Zm148.87-111.45H27.61c-.61-7.79-.42-16.1.75-25.07.23-1.79.45-3.52.63-5.21l217.99.09c-.98,11.04-2.74,21.04-5.16,30.19h0Zm-118.87-41.3l-92.97-.04c1.35-21.53-1.64-32.87-5.83-43.3,3.32.45,6.54.46,9.67.09,1.33-.16,2.63-.38,3.9-.66,7.02-1.56,13.34-4.98,18.86-9.38,7.25-5.77,11.57-12.67,13.3-20.49.08-.37.16-.74.23-1.12,1.06-5.66.74-11.68-.84-17.98,12.44-3.58,24.33-8.04,35.91-13.53,5.99-2.83,11.9-5.95,17.77-9.36v115.77Zm-90.58-55.91c-5.06.6-10.62-.3-16.61-3.36L.41,113.36l6.57,15.93c.92,2.23,1.75,4.12,2.56,5.99,5.86,13.44,10.79,24.73,6.21,59.77-2.86,21.9-.4,40.3,5.12,56.85,5.46,16.35,13.86,30.71,23.03,44.84,14.11,21.73,30.37,38.77,47.67,51.5,18.93,13.94,39.11,22.73,59.12,26.92l12.16,2.55-5.03-11.34c-2.61-5.89-1.95-11.97.73-17.82,3.64-7.95,10.91-15.59,19.13-22.04,19.96-15.67,38.8-31.39,53.6-52.25,14.93-21.05,25.49-47,28.5-82.73,1.78-21.2-2.37-40.99-9.85-59.75-7.38-18.49-17.89-35.76-29.09-52.34-7.38-10.92-11.89-21.88-12.32-32.82-.42-10.8,3.14-21.87,11.88-33.23l9.61-12.49-15.56,2.3c-11.3,1.67-23.42,5.9-35.76,11.84-13.62,6.56-27.59,15.27-41,24.93-12.52,9.02-25.04,16.46-37.94,22.57-12.89,6.1-26.13,10.86-40.1,14.5l-6.82,1.78,2.46,6.59c2.57,6.87,3.38,13.11,2.18,18.53-1.09,4.93-3.96,9.39-8.82,13.27-4.82,3.84-10.31,6.65-16.28,7.35h0Zm121.14,208.06v-97.91h21.38v77.77c-1.69,1.34-3.38,2.68-5.09,4.02-6.09,4.78-11.77,10.22-16.29,16.12h0Zm-100.5-97.91v52.7c-8.07-12.59-15.36-25.38-20.08-39.54-1.42-4.24-2.61-8.61-3.52-13.16h23.6Zm194.42-54.19l-112.3-.05V57.15c3.33-2.18,6.65-4.47,9.97-6.87,12.81-9.22,26.13-17.54,39.11-23.79,5.98-2.88,11.86-5.31,17.56-7.17-4.48,9.29-6.32,18.55-5.96,27.74.53,13.57,5.83,26.71,14.46,39.5,10.83,16.03,20.94,32.6,27.84,49.9,5.6,14.03,9.15,28.66,9.32,44.06h0Zm-33.36,95.26v-41.07h23.7c-4.44,12.2-10.17,22.74-16.86,32.18-2.18,3.07-4.46,6.03-6.84,8.89h0Z"/>
      </g>
      <path class="cls-8" d="m122.95,180.46v-115.77c-5.87,3.41-11.78,6.52-17.77,9.36-11.59,5.49-23.48,9.95-35.91,13.53,1.58,6.3,1.9,12.32.84,17.98.77,1.62,1.36,3.35,2.39,4.82,1.93,2.73,4.22,1.57,6.7.33,5.59-2.81,10.97-2.42,15.56.19,5.06,2.88,8.31,7.47,7.83,15.42.97.09,2.02-.13,2.91.28,1.48.68,1.62,1.89.61,3.09-.71.85-1.66,1.67-1.88,2.76-.3,1.49.27,2.91,1.41,3.89,3.67,3.16,6.19,7.61,5.44,12.52-.73,4.8-6.32,8.66-11.55,11.04,1.14,1.36,2.12,2.8,2.51,4.34.36,1.41-.43,1.94-1.5,2.16-2.38.47-4.81.04-7.22-.33-1.05,1.88-2.2,4.11-3.56,5.76-2.75,3.35-6.33,5.54-10.5,5.43-5.91-.14-9.47-2.33-11.48-5.16-2.02.97-3.86,2.3-5.63,3.56-.42.3-1,.25-1.62-.28-.79-.66-1.44-1.41-1.62-2.67-.09-.67-.23-1.35-.52-1.97-.34-.74-.87-1.38-1.31-2.06-7.26,1.66-13.13.16-16.08-6.09-3.73-7.91-2.19-13.75,3.66-17.06-3.06-1.13-5.48-3.86-6.93-8.98-1.28.28-2.58.5-3.9.66-3.12.37-6.35.36-9.67-.09,4.2,10.43,7.18,21.77,5.83,43.3l92.97.04Z"/>
      <path class="cls-8" d="m246.98,191.58l-217.99-.09c-.19,1.68-.4,3.41-.63,5.21-1.17,8.97-1.36,17.29-.75,25.07h214.21c2.41-9.15,4.17-19.15,5.16-30.19h0Zm-152.39,26.55v-21.75c0-.23.19-.42.43-.42h21.86c.23,0,.43.19.43.42v3.2c0,.23-.19.42-.43.42h-15.36v5.03h13.04c.23,0,.43.19.43.43v2.81c0,.23-.19.42-.43.42h-13.04v9.45c0,.23-.19.43-.43.43h-6.07c-.24,0-.43-.19-.43-.43h0Zm45.32.03v-21.76c0-.23.19-.45.43-.45h4.72s10.76.08,10.76.08c4.62.31,8.03,1.79,8.14,6.42.25,1.06.02,4.2-3.64,4.63-.25.06-.36.49.21.65,2.2.61,2.48,1.83,2.48,4.18v6.25c0,.24-.19.43-.43.43h-5.12c-.23,0-.43-.19-.43-.43v-6.25c0-1.13-.22-2.43-2.18-2.43h-8.75v8.68c0,.23-.19.43-.43.43h-5.34c-.23,0-.43-.19-.43-.43h0Zm51.53.04v-21.79c0-.23.19-.43.43-.43h4.42v-.04h8.79c6.11.89,11.64,3.75,11.6,10.97-.03,7.22-5.8,11.65-12.97,11.67h-6.41c-.06.02-.11.04-.17.04h-5.27c-.23,0-.43-.19-.43-.43h0Zm35.64-4.75h4.92c.24,0,.43.19.43.43v4.28c0,.24-.19.43-.43.43h-4.92c-.23,0-.42-.19-.42-.43v-4.28c0-.23.19-.43.42-.43h0Zm-52.51,0h4.92c.23,0,.43.19.43.43v4.28c0,.24-.19.43-.43.43h-4.92c-.23,0-.42-.19-.42-.43v-4.28c0-.23.19-.43.42-.43h0Zm-52.72,0h4.91c.24,0,.43.19.43.43v4.28c0,.24-.19.43-.43.43h-4.91c-.23,0-.43-.19-.43-.43v-4.28c0-.23.19-.43.43-.43h0Zm-44.86,0h4.92c.23,0,.42.19.42.43v4.28c0,.24-.19.43-.42.43h-4.92c-.24,0-.43-.19-.43-.43v-4.28c0-.23.19-.43.43-.43h0Zm-10.25-10.08l-4.94-.03c-.5.03-.72-.19-1.06-.72-1.8-2.78-3.6-2.84-6.16-2.82-5.85.04-8.36,2.67-8.44,6.96-.09,4.94,3.26,8,7.7,7.93,3.72-.06,5.74-1.32,6.93-3.71.14-.28.4-.52.99-.63l4.89-.03c1.02,0,1.22.21.88.95-2.64,5.61-7.78,7.33-14.1,7.35-7.22.03-14.21-3.86-14.1-11.77.11-7.98,5.61-10.81,15.15-10.87,5.66-.03,10.98,1.16,13.29,6.47.29.67-.53.94-1.02.93h0Z"/>
      <path class="cls-8" d="m155.8,199.87h-9.72v6h8.75c4.64.09,4.26-6.04.96-6h0Z"/>
      <path class="cls-8" d="m197.54,200.03v14.2h6.16c3.31,0,6.41-2.13,6.6-7.34.16-4.17-1.91-6.86-5.23-6.86h-7.53Z"/>
      <path class="cls-6" d="m157.64,180.48V41.67c-4.21,2.75-8.4,5.63-12.54,8.61-.26.19-.52.38-.78.56v129.63h13.31Z"/>
      <path class="cls-6" d="m169.27,34.48v146h14.25s0-153.65,0-153.65c-4.72,2.3-9.49,4.87-14.25,7.65h0Z"/>
      <path class="cls-6" d="m196.45,53.74v126.75h13.69s0-94.12,0-94.12c-7.14-10.61-11.97-21.48-13.69-32.62h0Z"/>
      <path class="cls-6" d="m221.58,104.11v76.39h13.31s0-51.58,0-51.58c-3.84-8.43-8.38-16.7-13.31-24.82h0Z"/>
      <path class="cls-7" d="m53.01,287.4v-52.7h-23.6c.92,4.55,2.11,8.93,3.52,13.16,4.72,14.15,12.01,26.94,20.08,39.54h0Z"/>
      <path class="cls-7" d="m92.95,234.7v98.51c2.04,1.66,4.09,3.24,6.15,4.77,5.18,3.81,10.45,7.2,15.78,10.19v-113.47h-21.94Z"/>
      <path class="cls-7" d="m153.51,234.7v97.91c4.52-5.9,10.21-11.34,16.29-16.12,1.7-1.34,3.4-2.68,5.09-4.02v-77.77h-21.38Z"/>
      <path class="cls-7" d="m214.08,234.7v41.07c2.38-2.87,4.66-5.83,6.84-8.89,6.69-9.43,12.42-19.98,16.86-32.18h-23.7Z"/>
      <path class="cls-9" d="m144.33,180.47V50.84c-3.06,2.19-6.12,4.29-9.19,6.31v123.32h9.19Z"/>
      <path class="cls-9" d="m157.64,41.67v138.81h11.62s0-146,0-146c-3.88,2.27-7.77,4.67-11.62,7.19h0Z"/>
      <path class="cls-9" d="m183.52,26.83v153.66h12.94s0-126.74,0-126.74c-.34-2.21-.56-4.44-.64-6.68-.36-9.2,1.48-18.45,5.96-27.74-5.7,1.86-11.58,4.29-17.56,7.17-.23.11-.46.22-.69.34h0Z"/>
      <path class="cls-9" d="m210.14,86.37v94.13h11.44s0-76.39,0-76.39c-3.6-5.93-7.41-11.77-11.31-17.55-.04-.06-.09-.13-.13-.19h0Z"/>
      <path class="cls-9" d="m234.89,128.92v51.59h12.54c-.17-15.39-3.72-30.02-9.32-44.05-1.01-2.53-2.08-5.04-3.22-7.53h0Z"/>
    </g>
  </g>
</svg>