<?xml version="1.0" encoding="UTF-8"?>
<svg id="Layer_2" data-name="Layer 2" xmlns="http://www.w3.org/2000/svg" viewBox="0 0 119.49 181.92">
  <defs>
    <style>
      .cls-1 {
        stroke-width: 6.18px;
      }

      .cls-1, .cls-2, .cls-3, .cls-4, .cls-5, .cls-6 {
        stroke: #231f20;
      }

      .cls-1, .cls-2, .cls-3, .cls-4, .cls-5, .cls-6, .cls-7 {
        stroke-miterlimit: 2.61;
      }

      .cls-1, .cls-4, .cls-7 {
        fill: none;
      }

      .cls-2, .cls-3, .cls-5, .cls-6, .cls-8, .cls-9 {
        fill-rule: evenodd;
      }

      .cls-2, .cls-4 {
        stroke-width: .37px;
      }

      .cls-2, .cls-6, .cls-8 {
        fill: #231f20;
      }

      .cls-3, .cls-5, .cls-9 {
        fill: #fff;
      }

      .cls-3, .cls-6 {
        stroke-width: .13px;
      }

      .cls-5 {
        stroke-width: 3.82px;
      }

      .cls-8, .cls-9 {
        stroke-width: 0px;
      }

      .cls-7 {
        stroke: #fff200;
        stroke-width: 2.78px;
      }
    </style>
  </defs>
  <g id="Layer_1-2" data-name="Layer 1">
    <g>
      <path class="cls-9" d="m4.38,90.94C4.38,42.65,29.26,3.56,59.96,3.56s55.58,39.09,55.58,87.37-24.88,87.32-55.58,87.32S4.38,139.16,4.38,90.94h0Z"/>
      <path class="cls-8" d="m36.75,11.38l.05,159.27c-6.14-3.49-14-14.26-14-14.26l-.11-130.69s7.54-10.51,14.06-14.32h0Z"/>
      <path class="cls-8" d="m82.15,169.96s5.28-4.44,8.19-7.66c2.91-3.22,5.82-7.24,5.82-7.24l-.05-128.15s-3.45-4.44-5.33-6.76c-2.21-2.8-8.67-8.19-8.67-8.19l.05,158h0Z"/>
      <path class="cls-8" d="m53.17,4.14v173.69s4.25.63,6.68.63,7.32-.85,7.32-.85V4.3l-14-.16h0Z"/>
      <path class="cls-5" d="m17.2,34.62S3.41,60.88,4.11,90.99c0,0,21.92-18.54,54.39-16.43,0,0,28.44-3.49,56.06,17.38,0,0,5.01-30.69-12.98-57.9,0,0-22.89,15.48-42.76,15.48s-41.63-14.9-41.63-14.9h0Z"/>
      <path class="cls-8" d="m42.99,64.36c-.05,1.69-.92,3.75-2.1,4.91-.92.95-2.69,2.11-4.58,2.54-3.45.74-5.87-1.74-6.73-6.02-.16-.95-.27-2.27-.27-3.64s.11-2.8.38-3.96c.86-3.8,2.69-6.55,6.73-5.97,1.13.11,2.69.48,4.2,1.9,2.21,1.9,2.32,4.07,2.37,4.91l-3.07-.11c-.05-1-.81-3.54-3.93-3.54-1.45,0-2.59,1.21-3.07,2.91-.22.69-.43,1.95-.48,3.38-.05,1.43.05,2.96.48,4.17.48,1.37,1.18,2.11,1.99,2.48.43.16.81.21,1.24.16.43,0,.92-.16,1.35-.37,2.26-.95,2.32-2.75,2.42-3.54l3.07-.21h0Z"/>
      <polygon class="cls-8" points="44.99 66.53 48.22 66.21 48.22 69.22 44.99 69.75 44.99 66.53 44.99 66.53"/>
      <path class="cls-8" d="m58.4,58.34c0-1.21-.81-2.32-2.59-2.38-1.18,0-2.1.48-2.21,1.74-.05,1,.22,1.21.75,1.48.32.37,2.64.85,3.12.95.7.11,2.15.48,2.91,1.48,1.45,1.8.75,5.34-.75,6.55-1.08.85-2.53,1.06-3.88,1.06-.65.05-2.1-.26-3.02-1.06-1.13-.95-1.67-2.43-1.72-3.86h2.42c0,.37.11,1,.54,1.53.59.74,1.51.95,2.32.9.86,0,1.67-.32,1.99-.69.54-.63.65-1.8.05-2.54-.81-1.06-3.29-1.06-4.85-1.69-1.35-.58-2.48-1.74-2.26-4.17.22-2.38,1.62-4.12,4.63-4.12.7,0,2.96.05,4.2,1.9.65,1,.81,2.38.7,2.91h-2.37Z"/>
      <path class="cls-8" d="m23.77,73.19l-2.91.32-.97-4.65-5.06.42-.22,5.07-3.66.37,4.79-25.3,4.04.32,3.99,23.45h0Zm-8.08-8.24l3.55-.16-1.83-9.35-1.72,9.51h0Z"/>
      <polygon class="cls-8" points="25.33 68.43 28.13 68.22 28.13 72.66 25.33 72.97 25.33 68.43 25.33 68.43"/>
      <polygon class="cls-8" points="65.61 68.64 63.3 68.33 63.35 53.96 65.61 53.64 65.61 68.64 65.61 68.64"/>
      <polygon class="cls-8" points="78.27 52.21 78.27 55.38 71.16 55.86 71.16 59.61 77.73 59.56 77.73 62.67 71.16 62.41 71.16 66.64 78.59 67.43 78.59 70.6 68.31 69.07 68.31 53.38 78.27 52.21 78.27 52.21"/>
      <polygon class="cls-8" points="84.25 51.9 90.06 67.48 89.8 51 92.65 50.68 92.65 72.82 88.34 71.92 83.55 57.6 83.55 71.34 80.69 70.91 80.69 51.95 84.25 51.9 84.25 51.9"/>
      <path class="cls-8" d="m99.01,49.84l3.23-.32,5.06,25.2-2.91-.32-.97-5.07-5.12-.32-.92,4.65-2.85-.26,4.47-23.56h0Zm1.67,5.71l-1.72,9.4,3.5.11-1.78-9.51h0Z"/>
      <path class="cls-8" d="m53.17,4.14s4.42-.58,6.57-.58,7.43.74,7.43.74l-14-.16h0Z"/>
      <path class="cls-1" d="m3.09,90.99C3.09,42.44,28.45,3.09,59.74,3.09s56.66,39.35,56.66,87.9-25.37,87.85-56.66,87.85S3.09,139.53,3.09,90.99h0Z"/>
      <path class="cls-7" d="m3.09,90.99C3.09,42.44,28.45,3.09,59.74,3.09s56.66,39.35,56.66,87.9-25.37,87.85-56.66,87.85S3.09,139.53,3.09,90.99h0Z"/>
      <polygon class="cls-9" points="40.03 132.4 78.43 132.4 78.43 155.86 40.03 155.86 40.03 132.4 40.03 132.4"/>
      <path class="cls-8" d="m48.22,134.57c.32.16.59.32.81.58.16.21.32.42.43.69.11.26.16.53.16.84,0,.37-.11.79-.32,1.16-.16.37-.48.63-.97.79,0-.05,1.4,3.86,1.4,3.86h-1.89c-.05-.21-1.13-3.17-1.18-3.17h-2.15v3.17h-1.67v-8.13h4.04c.59.05,1.02.11,1.35.21h0Zm-3.72,1.21v2.17h1.94c.43,0,.7,0,.92-.11.32-.16.48-.48.48-.9,0-.53-.16-.85-.48-1-.22-.11-.48-.16-.86-.16h-1.99Z"/>
      <path class="cls-4" d="m48.22,134.57c.32.16.59.32.81.58.16.21.32.42.43.69.11.26.16.53.16.84,0,.37-.11.79-.32,1.16-.16.37-.48.63-.97.79l1.4,3.86h-1.89c-.05-.21-1.13-3.17-1.18-3.17h-2.15v3.17h-1.67v-8.13h4.04c.59.05,1.02.11,1.35.21h0Zm-3.72,1.21v2.17h1.94c.43,0,.7,0,.92-.11.32-.16.48-.48.48-.9,0-.53-.16-.85-.48-1-.22-.11-.48-.16-.86-.16h-1.99Z"/>
      <path class="cls-2" d="m42.73,147.77v-1.06c.48,0,.86-.05,1.02-.11.32-.05.59-.21.81-.42.11-.11.22-.32.32-.58,0-.11.05-.21.05-.32h1.29v7.98h-1.62v-5.49h-1.89Z"/>
      <path class="cls-8" d="m52.15,146.03c.48-.53,1.13-.79,1.94-.79,1.24,0,2.1.53,2.59,1.64.22.58.38,1.37.38,2.38,0,.95-.11,1.8-.38,2.43-.48,1.21-1.35,1.85-2.64,1.85-.59,0-1.13-.21-1.62-.53-.54-.37-.81-.9-.86-1.58h1.62c0,.26.11.42.27.58.16.16.38.21.65.21.54,0,.92-.26,1.13-.85.11-.32.16-.79.22-1.37-.16.16-.32.32-.48.42-.27.16-.65.26-1.08.26-.65,0-1.24-.21-1.72-.69-.48-.42-.75-1.06-.75-1.9s.27-1.53.75-2.06h0Zm2.69,3.17c.38-.21.54-.63.54-1.16,0-.48-.11-.85-.32-1.11-.22-.26-.48-.37-.86-.37-.27,0-.54.05-.7.21-.32.26-.48.63-.48,1.21,0,.48.11.79.27,1.06.22.21.54.37.92.37.22,0,.43-.11.65-.21h0Z"/>
      <path class="cls-4" d="m52.15,146.03c.48-.53,1.13-.79,1.94-.79,1.24,0,2.1.53,2.59,1.64.22.58.38,1.37.38,2.38,0,.95-.11,1.8-.38,2.43-.48,1.21-1.35,1.85-2.64,1.85-.59,0-1.13-.21-1.62-.53-.54-.37-.81-.9-.86-1.58h1.62c0,.26.11.42.27.58.16.16.38.21.65.21.54,0,.92-.26,1.13-.85.11-.32.16-.79.22-1.37-.16.16-.32.32-.48.42-.27.16-.65.26-1.08.26-.65,0-1.24-.21-1.72-.69-.48-.42-.75-1.06-.75-1.9s.27-1.53.75-2.06h0Zm2.69,3.17c.38-.21.54-.63.54-1.16,0-.48-.11-.85-.32-1.11-.22-.26-.48-.37-.86-.37-.27,0-.54.05-.7.21-.32.26-.48.63-.48,1.21,0,.48.11.79.27,1.06.22.21.54.37.92.37.22,0,.43-.11.65-.21h0Z"/>
      <path class="cls-8" d="m62.44,151.47c.16.48.43.74.92.74s.81-.26.92-.74c.16-.48.27-1.16.27-2.11s-.11-1.64-.27-2.11c-.11-.48-.43-.69-.92-.69s-.75.21-.92.69-.27,1.16-.27,2.11.11,1.64.27,2.11h0Zm3.12-5.12c.38.69.59,1.69.59,3.01s-.22,2.32-.59,3.06c-.43.69-1.18,1.06-2.21,1.06s-1.78-.37-2.15-1.06c-.43-.74-.65-1.74-.65-3.06s.22-2.32.65-3.01c.38-.74,1.13-1.11,2.15-1.11s1.78.37,2.21,1.11h0Z"/>
      <path class="cls-4" d="m62.44,151.47c.16.48.43.74.92.74s.81-.26.92-.74c.16-.48.27-1.16.27-2.11s-.11-1.64-.27-2.11c-.11-.48-.43-.69-.92-.69s-.75.21-.92.69c-.16.48-.27,1.16-.27,2.11s.11,1.64.27,2.11h0Zm3.12-5.12c.38.69.59,1.69.59,3.01s-.22,2.32-.59,3.06c-.43.69-1.18,1.06-2.21,1.06s-1.78-.37-2.15-1.06c-.43-.74-.65-1.74-.65-3.06s.22-2.32.65-3.01c.38-.74,1.13-1.11,2.15-1.11s1.78.37,2.21,1.11h0Z"/>
      <path class="cls-8" d="m75.36,151.58h-.92v1.69h-1.56v-1.69h-3.23v-1.37l2.96-4.86h1.83v5.02h.92v1.21h0Zm-2.48-1.21v-3.49l-2.05,3.49h2.05Z"/>
      <path class="cls-4" d="m75.36,151.58h-.92v1.69h-1.56v-1.69h-3.23v-1.37l2.96-4.86h1.83v5.02h.92v1.21h0Zm-2.48-1.21v-3.49l-2.05,3.49h2.05Z"/>
      <path class="cls-8" d="m54.79,140.91c.22-.32.38-.79.38-1.37,0-.63-.16-1.11-.38-1.43-.27-.32-.65-.48-1.08-.48-.48,0-.86.16-1.08.48-.27.32-.38.79-.38,1.43,0,.58.11,1.06.38,1.37.22.32.59.48,1.08.48.43,0,.81-.16,1.08-.48h0Zm1.24.85c-.48.63-1.29.95-2.32.95-1.08,0-1.83-.32-2.37-.95-.48-.63-.75-1.37-.75-2.22,0-.9.27-1.64.75-2.27.54-.63,1.29-.95,2.37-.95s1.83.32,2.32.95c.54.63.81,1.37.81,2.27,0,.85-.27,1.58-.81,2.22h0Z"/>
      <path class="cls-4" d="m54.79,140.91c.22-.32.38-.79.38-1.37,0-.63-.16-1.11-.38-1.43-.27-.32-.65-.48-1.08-.48-.48,0-.86.16-1.08.48-.27.32-.38.79-.38,1.43,0,.58.11,1.06.38,1.37.22.32.59.48,1.08.48.43,0,.81-.16,1.08-.48h0Zm1.24.85c-.48.63-1.29.95-2.32.95-1.08,0-1.83-.32-2.37-.95-.48-.63-.75-1.37-.75-2.22,0-.9.27-1.64.75-2.27.54-.63,1.29-.95,2.37-.95s1.83.32,2.32.95c.54.63.81,1.37.81,2.27,0,.85-.27,1.58-.81,2.22h0Z"/>
      <path class="cls-8" d="m63.14,137.21c.48.58.7,1.32.7,2.22s-.22,1.69-.65,2.32c-.48.58-1.08.9-1.89.9-.54,0-.92-.11-1.24-.32-.16-.11-.38-.32-.59-.58v.74h-1.56v-8.08h1.62v2.85c.16-.26.38-.48.65-.63.27-.16.65-.26,1.08-.26.81,0,1.45.26,1.89.85h0Zm-1.29,3.64c.22-.32.32-.74.32-1.27,0-.42-.05-.79-.16-1.06-.22-.53-.59-.79-1.18-.79s-.97.26-1.18.79c-.11.26-.16.63-.16,1.06,0,.53.11.95.32,1.27.22.32.59.53,1.08.53.38,0,.7-.16.97-.53h0Z"/>
      <path class="cls-4" d="m63.14,137.21c.48.58.7,1.32.7,2.22s-.22,1.69-.65,2.32c-.48.58-1.08.9-1.89.9-.54,0-.92-.11-1.24-.32-.16-.11-.38-.32-.59-.58v.74h-1.56v-8.08h1.62v2.85c.16-.26.38-.48.65-.63.27-.16.65-.26,1.08-.26.81,0,1.45.26,1.89.85h0Zm-1.29,3.64c.22-.32.32-.74.32-1.27,0-.42-.05-.79-.16-1.06-.22-.53-.59-.79-1.18-.79s-.97.26-1.18.79c-.11.26-.16.63-.16,1.06,0,.53.11.95.32,1.27.22.32.59.53,1.08.53.38,0,.7-.16.97-.53h0Z"/>
      <path class="cls-2" d="m66.58,136.52v3.59c0,.32.05.58.11.79.16.26.43.42.86.42.54,0,.92-.21,1.13-.63.11-.26.16-.53.16-.95v-3.22h1.62v5.97h-1.56v-.84s-.05.05-.11.16c-.05.11-.11.16-.22.26-.27.21-.48.37-.7.42-.27.11-.54.16-.86.16-.86,0-1.51-.32-1.83-1-.16-.32-.22-.85-.22-1.53v-3.59h1.62Z"/>
      <path class="cls-8" d="m75.42,136.36h.11v1.58h-.43c-.65,0-1.08.21-1.29.63-.16.21-.22.58-.22,1.06v2.85h-1.62v-5.97h1.56v1c.22-.37.43-.63.65-.79.27-.26.65-.37,1.13-.37h.11Z"/>
      <path class="cls-4" d="m75.42,136.36h.11v1.58h-.43c-.65,0-1.08.21-1.29.63-.16.21-.22.58-.22,1.06v2.85h-1.62v-5.97h1.56v1c.22-.37.43-.63.65-.79.27-.26.65-.37,1.13-.37h.11Z"/>
      <path class="cls-3" d="m40.41,108.47c-.16.21-.48.32-.7.37.16-.11.48-.26.7-.37h0Z"/>
      <path class="cls-6" d="m39.87,110.85c0,.16-.22.21-.32.26-.27-.05-.59.26-.75-.05.11-.37.59-.26.92-.37.11-.05.05.11.16.16h0Z"/>
      <path class="cls-3" d="m39.6,112.06h-.32.32Z"/>
      <path class="cls-6" d="m60.61,114.07c.22.58.22,1.21-.11,1.74.05.26-.22.69.22.74.16.21.75.16.59.53-.48.11-.7-.26-1.13-.32-.22-.26,0-.69,0-1,.11-.53.43-1,.16-1.58-.05-.16-.16-.32-.05-.53.05-.05.11-.11.16-.11.22.11.11.37.16.53h0Z"/>
      <path class="cls-6" d="m61.36,117.93c.11.26.05.48.22.69q-.05.11,0,.16c0,.21-.11.37-.22.48h-.22c0-.37.11-.95-.27-1.22-.22-.26-.59.26-.54-.21.05-.11.11-.21.27-.21.32-.05.54.16.75.32h0Z"/>
      <path class="cls-6" d="m66.96,119.41h-.43c-.27.16.05.63-.11.48-.38.05-.81.11-1.13.32-.11.21.22.32-.05.48,1.29-1.11-1.83-.21-.59.16-.11-.05-.27-.16-.27-.32l-.32.11c-.27-.11-.32-.42-.32-.74-.38-.11-.59-.42-.97-.42l-.05.11c-.38.05-.16.48-.27.74-.27.16-.16.58-.38.74-.05.37-.22.79-.16,1.11-.22.53,0,1,.11,1.48.16.32.16.74.43,1,.11-.05.11-.21.16-.21.11-.48.59-.11.81-.42.32.11.48-.26.81-.26.32.26-.11.58-.16.9.22.21.38-.16.65-.16.11,0,.11.16.16.21-.38.53-.43,1.21-.27,1.8.43.42.92.74,1.4,1-.16-.53.22-.95.43-1.37.05-.26.22-.58.16-.85-.05-.42-.05-.9.05-1.37.32-.37-.38-.74-.22-1.21-.11-.32.27-.48.27-.74,0-.37.32-.26.54-.37l.7-.74v-.95l-.97-.48h0Z"/>
      <path class="cls-6" d="m60.5,119.51c-.54,1.43-.97,3.01-1.29,4.54-.16,1.37-.86,2.38-1.13,3.7-.05.05-.11.11-.16.05-.16-.16-.11-.48-.05-.69.7-1.53,1.08-3.33,1.51-4.97.16-.9.43-1.9.81-2.69.11-.11.32-.11.32.05h0Z"/>
      <path class="cls-6" d="m61.09,126.7c.05.11.16.16.05.26-.32.21-.75-.05-1.08-.05-.16-.11-.38-.21-.22-.42.16-.05.38.16.65.16l.59.05h0Z"/>
      <path class="cls-6" d="m61.31,128.44c.32.37.22,1,.54,1.37,0,.11,0,.26-.11.26-.43-.05-.32-.63-.48-.85-.05-.32-.48-.74-.16-1.11.27-.05.22.21.22.32h0Z"/>
      <path class="cls-8" d="m95.72,114.92c0-.11,0-.26-.05-.53-.05-.05-.16-.11-.22-.11h-.27l-.22-.05h-.27c-1.4.05-3.99-.74-4.42-.95l-.22-.16-.27-.11c-.22-.05-1.56-.85-1.99-1.21-.65-.53-1.45-1.32-2.32-2.43-.48-.58-1.18-1.53-2.1-2.96-.65-1-1.4-1.85-2.26-2.48-.43-.32-.75-.53-.86-.58-.05,0-.48-.11-1.35-.32l-.22-.05-.27-.05c-.22-.05-.48-.16-.75-.37-.11-.05-.16-.11-.22-.11-.22-.16-.43-.32-.59-.48-.97-.74-2.91-1.06-3.02-1.06l-.27.05h-1.08c-.86-.05-1.72.05-2.64.26-.11.05-.16.05-.27.05-.16.05-.48.11-1.08.26-.75.21-1.45.32-2.1.37h-.54c-.38.05-1.02.05-1.89-.05h-.27l-.27-.05c-.38-.11-.92-.11-1.62-.11-1.99,0-3.18-.05-3.5-.05h-1.35c-1.4,0-2.64-.11-3.77-.32-.92-.21-2.15-.37-3.77-.42-.92-.05-1.67-.05-2.15,0l-.27.05-.22-.05c-.32-.05-.81.11-1.51.42-.16.11-.22.11-.27.11l-.22.11-.22.16c-.27.16-.81.26-1.02.21l-.27-.05h-.27c-.05,0-.48-.05-.54-.11-.05,0-.11-.05-.11-.11v-.53c0-.11-.05-.16-.16-.21-.05,0-.16.11-.48.21-.48.21-1.08.26-1.83.21-.54-.11-1.02-.11-1.29,0-.11-.05-.22-.11-.22-.11l-.22-.21c-.54-.63-1.51-1-2.85-1.21-.7-.11-1.45-.37-2.32-.74-.38-.16-.59-.26-.7-.26-.22.05-.27.21-.27.37.11.21.22.42.32.74-.05.05-.11.11-.16.11h-.81c-.05,0-.11.05-.16.16.05.11.05.16.11.26.05.21.16.42.27.74.05.05.11.21.22.48.11.42.22.63.27.74.05.16.16.26.32.42l.16.16c.05,0,.11.11.11.16-.54.26-1.08.63-1.62,1.21-.32.37-.65.63-.97.9-.27.21-.54.42-.81.63-.92.74-1.56,1.16-1.94,1.32l-.22.11c-.81.42-.92.58-.75,1.16.11.42.22.63.27.69l.27.11s.11.05.16.11l.22.21c.27.26.75.42,1.51.42.16.05.65-.05,1.29-.16.38-.05.75-.05,1.08-.05-.22.16-.65.32-1.18.32-.43.05-.65.11-.75.21-.05.11-.11.16-.05.21l.05.26.05.26s.22.37.27.42c.27.26.75.48,1.24.26l.22-.11c.32-.11.92-.21,1.89-.21.54,0,.97.05,1.29.16.48.16.81.21,1.02.26h.27l.27.05c.22.05,1.18.21,1.62.11l.22-.11.27-.05c.05,0,.22-.11.43-.26.32-.16.54-.26.75-.26.32.05.59.16.7.32l.16.21c.05.05.11.11.22.11.16-.05.27-.16.38-.37l.05-.26c.05,0,.11-.05.16-.16.32.37.7.37,1.08,0,.05.16.11.32.27.42.38,0,.65-.05.75-.16l.22-.16c.05-.11.11-.16.16-.16.11-.05.27-.05.54,0,.38,0,1.24.37,1.56.95l.05.21c.27.63.65,1.11,1.08,1.48.16.05.38.21.7.42.22.16.43.32.59.53.11.11.22.37.38.69l.11.21c0,.11-.05.63-.32,1.58-.32,1.21-1.08,2.48-2.42,3.96-.38.37-.59.74-.75,1l-.11.21c-.16.32-.27.58-.38.69-.27.37-.38.58-.43.69l-.11.26c-.05.05-.27.37-.65.79-.11.11-.16.16-.16.16l-.16.21-.22.16c-.32.26-.54.53-.65.79l-.11.26c0,.05-.05.11-.11.16-.32,0-.97.11-1.89.26-.81.11-1.29.58-1.4,1.32-.11.48.11.74.7.74h.27c.11,0,.16.05.27.11l.16.16c.11.11.54.05,1.35-.11.7-.16,1.35-.21,1.83-.21.43.05.7.05.81,0,.27-.11.43-.32.48-.58l.11-.26c.11-.21.27-.37.65-.42l.22-.05c.16,0,.27-.11.38-.37l.05-.21.22-.21c0-.05.05-.11.05-.26l-.05-.26s.22-.26.59-.79c.38-.48.97-1.27,1.83-2.54.48-.74.86-1.32,1.13-1.74.27-.48.75-1.11,1.35-1.85.05,0,.05.05.05.05l-.16.21s-.05.11-.11.21c-.11.26-.48.84-1.08,1.8l-.16.21-.16.21c-.11.11-.7.95-1.78,2.48l-.11.26c-.32.53-.54.79-.59.85l-.16.21c0,.05-.05.11-.11.21l.11.21c.05.05.05.16.05.26s.05.11.22.16c0-.11.05-.16.05-.21l.05-.26c0-.05,0-.11.11-.26.22-.32.32-.53.43-.63-.05.21,0,.37.22.42.11-.11.22-.42.32-.9.05-.37.16-.63.27-.74.05,0,.11.05.11.05l.05.26c0,.05.05.11.11.21.11,0,.16,0,.22-.11,0-.58.16-1.16.48-1.74.11.11.16.26.16.48.05.05.11.05.22,0,.05-.74.27-1.37.7-1.95.05.05.11.11.11.16v.26c0,.05.05.11.16.21.05-.05.11-.11.16-.21v-.26c0-.63.11-1.06.22-1.32l.16-.21c.38-.53.59-.9.43-1.11-.22,0-.32.11-.43.26,0-.05-.05-.05,0-.11.65-.79,1.08-1.27,1.4-1.48l.16-.11.27-.11.27-.11.22-.11.27-.11c0-.05.11,0,.16.05l.22.16c.05,0,.22.05.54.16,0,0,.05.05,0,.16-.05.05-.16.11-.22.11l-.22.11c-.05.05-.22.11-.48.26-.38.21-.65.63-.81,1.32-.05.11-.05.32-.05.53-.05.37-.16.9-.43,1.53-.38.85-.48,1.37-.43,1.53l.11.21c.38.58.81.95,1.4,1.11l.27.05c.38.05.59.16.7.32,0,.05,0,.16-.05.26l-.05.26c-.05.32.11.9.27,1.06l.16.16c.05,0,.05.05.11.16-.43,0-.75.26-1.02.74-.22.32-.38.48-.54.53l-.27.05c-.32.11-.48.26-.54.48.05.26.27.42.65.42s.86-.11,1.56-.26c.38-.05.75-.05,1.08.05,0,.05.11.05.27.11.32.11.65.21.97.37.65.21,1.13.32,1.62.32.59,0,1.08-.21,1.29-.63.38.21.75.26,1.29.16.48-.11.92-.16,1.29-.11.54.11.86.05,1.02-.11.27-.26.32-.48.11-.69.11-.05.16-.11.22-.11l.22-.11c.16-.11.54-.42,1.24-1,.22-.21.38-.37.59-.53.32-.16.59-.21.75-.05l.22.21c.38.32,1.4.42,1.99-.05.16-.11.22-.26.16-.42,0,0-.16-.11-.38-.32-.27-.26-.48-.53-.65-.85l-.11-.21c-.22-.37-.32-.63-.43-.69-.22-.26-.43-.32-.7-.16,0-.05.16-.26.43-.69.22-.32.32-.63.32-.95,0-.48-.11-.79-.27-1l-.16-.21c-.05-.05-.11-.11-.16-.21.05-.11.05-.21.11-.26l.22-.16c.11-.11.27-.53.48-1.16.11-.21.22-.48.38-.69.38-.58.59-1.06.65-1.43.05-.37-.16-1.21-.59-1.43l-.22-.11c-.05,0-.11-.05-.22-.11.05-.11.11-.16.16-.21,0,0,.11,0,.27-.05.54-.11.86-.21,1.02-.37.27-.21.48-.53.48-.85v-.26c0-.05.11-.21.22-.48.27-.48.22-.9-.16-1.21,0-.05-.16-.16-.43-.32-.11-.05-.27-.21-.59-.48,0-.11.05-.21.16-.21.48.16.92.48,1.24.85.43.58.65.85-.16,2.43-.32.69-.27.9,1.13,1.64,1.24.69,1.94,1.16,2.15,1.48l.16.21c.11.11.38.16.81.05.38-.11.59-.11.75-.05,0,.11,0,.16-.05.21-.16,0-.43,0-.81.11-.54.11-.65.26-.81.58-.27.74-.65,1.43-1.13,2.01-.11.16-.16.21-.16.21l-.11.21c-.05.11-.22.32-.54.58-.11.11-.22.21-.32.37-.22.21-.32.37-.38.37l-.22.11c-.27.16-.43.26-.43.32l-.11.26c-.16.32-.54.58-1.02.74-.54.16-.81.37-.81.58,0,.11.05.21.11.21l.27.16c.05,0,.11.05.16.16l.05.26c.05.26.22.42.48.58.16.11.22.11.27.11.05.05.16,0,.43,0h.38c.43.05.97-.74.97-1.11v-.26c0-.05.16-.37.27-.48,0,0,.22-.16.65-.42.43-.32.97-.9,1.51-1.74,1.08-1.69,1.83-2.38,2.85-2.96.38-.21.65-.37.81-.58.27-.21.38-.42.48-.58.22-.48.16-.9-.16-1.22-.05-.05-.22-.16-.43-.26-.48-.32-.81-.69-.97-1.16-.16-.37-.27-.63-.32-.74q.05-.05.11-.05c.05,0,.11.05.22.11.05.05.11.11.22.16l.22.16c.81.58,1.51.95,2.1,1.06.81.16,1.51.42,1.99.74.86.48,1.67.85,2.48,1.11l.27.05c1.02.26,1.62.48,1.72.53.97.53,1.08.63,1.13,1.58,0,.11,0,.85.05,2.17,0,.42.05.85.11,1.32.05.37,0,.69-.22,1.06-.22.42-.32.63-.32.69l-.11.21c-.05.21-.59.26-.7.21l-.27-.05c-.54-.11-.7.05-1.13.48l-.22.16c0,.05-.11.05-.22.11l-.27.05c-.16.05-.43.42-.54.85-.16.63,0,1.43.81,1.06l.27-.11c.05,0,.16-.05.22,0,.05,0,.11,0,.27.11l.22.11.22.05.27.05h.27c.05-.05.16-.05.27-.05.43-.11.75-.11,1.08-.11.7.05,1.18-.05,1.51-.32.27-.26.38-.48.32-.69l-.05-.26c-.05-.21-.05-.42,0-.53.11,0,.16,0,.27-.05.11-.05.16-.05.16-.11l.11-.21.22-.21.22-.16c.05-.11.16-.79.05-1.32,0-.05-.05-.21-.11-.53-.38-1.21-.32-1.9-.16-3.17.11-1.06.11-1.9,0-2.43-.05-.11-.05-.32-.05-.53-.05-.32-.16-.58-.27-.74,0,0,0-.05.05-.11.27.21.54.32.7.26v-.26h.11c.38.32.86.53,1.45.69.38.11.59.11.81,0l.22-.05c.05-.05.11-.05.22-.05.11-.05.11-.11.11-.21-.16-.11-.32-.21-.43-.26,0,0,.16.05.43.16.81.26.97.21,1.62.05.43-.11.81-.32,1.13-.58l-.05-.21c.05-.11.11-.16.16-.16l.22-.16c.22-.11.38-.32.43-.63h0Z"/>
      <path class="cls-9" d="m93.24,115.55c0,.05.05.11.16.21.05.05.38.16,1.02.32-.97.42-2.64.11-3.39-.95l-.11-.21c-.11-.11-.27-.21-.43-.21-.16.16-.16.37,0,.69.22.37.43.69.59.85-.86-.05-1.4-.42-1.72-1-.05-.16-.22-.48-.38-.95-.22-.58-.54-.84-.92-.84,0,.16.11.37.32.63l.22.21s.11.26.27.74c-.05.05-.11.11-.11.16v.26c0,.05-.05.11-.11.11-.48-.16-.86-.58-1.13-1.37,0-.05-.11-.26-.32-.74-.05-.11-.05-.21-.11-.21-.16-.58-.48-1-.86-1.27-.32-.26-.54-.37-.7-.37-.05.05-.11.11-.05.21.22.11.48.32.75.69.38.53,0,.9,0,.95-.22-.11-1.13-1-1.13-2.01v-1.32c-.11-.05-.16-.05-.27-.05-.05.11-.05.21-.05.26v.26l-.16.21c-.05.05-.11.11-.16.21q-.05-.05-.05-.11l-.05-.26c0-.32-.11-.58-.22-.74-.11-.16-.27-.21-.38-.21-.27-.37-.48-.63-.75-.69-.05.11-.11.16-.05.21l.11.26.11.21c.05.16.11.26.11.26,0,.05-.05.11-.11.16-.16-.32-.27-.69-.32-.95-.05-.58-.16-1-.32-1.27-.32-.53-.59-.95-.75-1.37-.22-.37-.32-.58-.38-.69-.05,0-.11-.05-.22-.16-.11-.05-.22-.16-.38-.32-.22-.21-.43-.37-.65-.48-.38-.11-.59-.16-.75-.05.05.11.11.16.16.21l.22.05c.65.16,1.35,1,2.15,2.54.22.48.43,1.11.54,2.01.16.95.54,2.01,1.24,3.17.65,1,1.13,1.64,1.62,2.01.59.42,1.13.74,1.56.9.48.16.75.37.86.63l.11.21c.05.11.16.26.27.42l.16-.11c.05.11.11.26.16.48l.05.26.11.26c.05.11.05.42.05,1.06,0,.11-.05.58-.16,1.32-.11.95-.11,1.8.05,2.43.11.53.16.85.22,1.06l.11.21v.58c0,.26-.05.42-.11.48l-.22.16-.16.21-.27.11c-.22.11-.38.48-.38.63l.05.26c0,.16.05.21,0,.26,0,.05-.27.37-.32.37-.11.11-.38.11-.81.05-.48-.11-.92-.05-1.29.05l-.27.11c-.38.11-.65.16-.75.16-.05-.26.11-1.16.7-1.16h.32c.11,0,.27-.05.48-.16.22-.11.32-.21.38-.32.05-.11,0-.16-.11-.26-.11,0-.16,0-.22.05l-.22.16c0,.05-.27.11-.75.16-.38.05-.59.16-.7.32-.11.11-.16.21-.22.48-.05.26-.11.48-.11.48-.11-.05-.22-.05-.27-.05l-.27.11c-.16.05-.32.05-.43,0,0-.11.05-.21.05-.26v-.26c.05,0,.59-.85.97-.85h.27c.11,0,.27,0,.54-.11.32-.11.65-.21,1.02-.21.38-.05.54-.05.54-.05.11-.11.11-.21.11-.26v-.26c0-.26.05-.53.22-.74.32-.53.48-.95.43-1.22,0,0,0-.11-.05-.26,0-.16-.05-.32-.05-.53-.05-.11-.05-.26-.11-.53-.11-.48-.16-1.11-.16-1.85.05-1-.05-1.58-.22-1.85-.16-.32-.86-.58-1.08-.63l-.27-.05-.27-.11c-.05-.05-.48-.16-1.29-.37-.32-.05-.65-.21-.97-.42-1.29-.79-1.99-1.21-2.05-1.21,0-.48-.05-.74-.05-.79-.11-.26-.27-.48-.54-.58-.05,0-.16,0-.22.05v.53c-.05.21-.11.37-.22.48-.75-.05-1.29-.21-1.51-.48l-.16-.16c-.43-.48-.92-.85-1.51-1.06-1.08-.48-1.83-.95-2.21-1.37l-.16-.21-.22-.05-.27-.16-.27-.05c-.43-.11-.97-.58-1.45-1.37l-.16-.21-.16-.16c-.05-.05-.05-.16-.11-.26v-.21c0-.11-.27-.32-.38-.37l-.27-.11-.16-.16c-.11-.11-.38-.16-.75-.26-2.53-.58-5.6.63-5.87,1.06.11.05.27.05.48,0l.27-.05c.75-.21,1.45-.37,2.1-.37-.32.32-.48.58-.48.85.11.05.16.05.22,0l.22-.11c.16-.11.38-.11.75,0l.27.05c.05.05.16,0,.27-.05l.16-.21c0-.05.11-.05.22-.11l.27.05c.05,0,.32,0,.81-.05.92-.05,1.24,0,1.72.37-.05.32-.48.42-1.35.26l-.27-.05c-.16-.05-.7.11-.75.21l-.11.21c-.11.21-.43.32-.97.42-.97.11-1.13.26-1.56.85-.11.16-.22.32-.32.37-.16-.11-.27-.26-.32-.37l-.11-.26c0-.11-.05-.16-.11-.21-.05,0-.11-.05-.27-.05l-.27-.11c-.05,0-.27-.21-.27-.42v-.26c0-.16-.05-.32-.16-.48-.22-.05-.38.05-.65.37-.22.37-.38.58-.43.63,0,0-.05.05-.22.16-.16.16-.27.26-.38.37v.21c.11.11.16.16.22.16l.27.05c.05,0,.11.05.16.16,0,.05,0,.16-.05.21,0,.05-.22.21-.65.48-.32.26-.54.53-.7.79l-.11.21c-.05.21-.16.32-.32.32-.43-.26-.65-.53-.65-.74l-.05-.26-.16-.21-.22-.16c-.11-.16-.11-.58.16-.74l.22-.16c0-.05.11-.11.16-.16-.22-.26-1.08.16-1.24.53l-.11.21c0,.05-.05.16-.11.21l-.22.21c-.16.11-.38.42-.54.84-.22.48-.65.79-1.18.95-.16.05-.27.11-.27.11l-.22.11c-.05,0-.16,0-.27-.05-.05-.11-.05-.16-.05-.21l-.05-.26c-.05-.26-.22-.48-.43-.63-.32-.26-.48-.53-.54-.9-.05-.37-.05-.69.05-1.06,0-.05-.05-.11-.16-.16-.27.16-.48.26-.59.48l-.16.16c-.43.48-.97.69-1.18-.05-.16-.37-.22-.63-.22-.74l.05-.26c.05-.05,0-.16-.11-.21-.11,0-.16.05-.22.11-.11.95,0,1.74.43,2.32.43.58.65.95.7,1.11.27.79-.05,1.53-1.02,2.22-.22.16-.38.26-.38.26l-.27.11c-.05,0-1.02.69-2.05,1.95-.38.42-.86,1.16-1.51,2.17-.05.11-.27.37-.65.79,0,0-.05.05-.11.21l-.16.21-.16.21-.11.21-.16.21c-1.56,2.06-2.26,3.22-2.21,3.43l.05.26c0,.05-.11.32-.32.37l-.05.26c-.05.11-.11.16-.16.16h-.27c-.32.05-.59.32-.86.9-.16.32-.38.48-.65.42l-.22-.11c-.43-.11-.86-.11-1.35,0l-.27.05-.27.05c-.32.05-.48.05-.54.11l-.22.11c-.05,0-.16.05-.27.05-.27-.53.22-1.06.32-1.11.05-.05.43-.16.54-.11h.27s.16-.11.22-.26c-.54-.11-1.02-.05-1.35.11-.22.11-.38.21-.38.26l-.11.26c-.05.21-.16.37-.22.48-.16.05-.32,0-.48-.16-.05-.37.22-.74.7-1,.38-.16.7-.26,1.02-.32h.27l.27-.05h.27l.22.11c.22.11.43,0,.59-.37l.05-.26c.05-.11.38-.42.92-.95.22-.26.65-.79,1.18-1.69.7-1.11,1.08-1.74,1.24-1.95,1.78-2.22,2.53-3.65,3.02-5.07l.11-.26.16-.21c0-.05.54-1.95-.05-2.85-.75-1.27-1.4-1.95-1.89-2.11-.05,0-.16.05-.22.11-.05.21,0,.42.27.69.48.48.7.85.75,1.06,0,.16-.05.32-.22.42-.16.05-.38,0-1.08-.58-.48-.42-.75-.69-.75-.74-.05,0-.32-.69-.32-.69v-.53c0-.05,0-.16.05-.26l.11-.21c0-.05,0-.16-.05-.26-.11-.05-.22-.05-.27,0-.05.11-.11.16-.11.21l-.11.26c-.05.11-.27.16-.75.05-.32-.05-.59-.11-.81-.11.05-.11.11-.11.11-.16l.16-.21c.16-.16.22-.42.22-.74,0-.21-.11-.48-.38-.63-.05-.05-.16,0-.22.05,0,.11,0,.21.05.26,0,.21,0,.48-.05.84v.26c0,.05-.16.16-.43.26l-.22.11-.22.16c0,.05-.11.11-.22.11s-.16,0-.22-.05c0-.21-.11-.37-.32-.37-.11.05-.16.11-.22.16l-.16.16c-.05.05-.16.05-.27.05l-.22-.11-.27-.11-.22-.11c-.05-.05-.16-.05-.27-.05,0,.16,0,.21-.05.26l-.11.21c-.05.05-.05.16-.05.26-.11-.11-.22-.16-.43-.21l-.27-.05-.22-.05c-.16-.05-.32-.05-.54,0-.81.26-1.29.42-1.51.42-.48.05-1.08,0-1.89-.16-.7-.16-1.4-.26-2.1-.26-.43-.05-.7-.05-.81,0l-.27.05c-.11,0-.27.05-.54.05s-.48,0-.54.05l-.27.11c-.11.05-.43.05-.54,0-.16-.05-.32-.26-.32-.63.43-.21,3.5-.69,3.93-.53l.22.11c.11.05.38.11.81.21.32.11.59.11.75,0l.11-.21.11.16c.11,0,.16-.05.22-.11.27-.32-.11-1.32-1.51-1.21-.22,0-.81.05-1.83.11-.43,0-.92.05-1.62.21-.43.11-2.1.26-2.69.16-.05,0-.22-.05-.54-.11-.05,0-.16-.05-.27-.05-.05-.05-.05-.11-.05-.21.11-.05.16-.11.27-.11.32-.21.54-.37.59-.42-.05-.21-.32-.26-.38-.26l-.27.11c-.54.16-.81.05-.81-.37.16-.11.43-.32.92-.53.48-.21,1.51-1,3.18-2.32.38-.32.81-.69,1.35-1.21.27-.26.54-.48.81-.58.48-.26.65-.26.92,0l.16.21c.05,0,.16.05.27.05.05.05.16,0,.22-.05.05-.11,0-.16,0-.26,0,0-.11-.16-.32-.42-.38-.48-.7-1-.86-1.58l-.05-.26c-.05-.26-.27-.74-.59-1.43.05,0,.16.05.22.11.54.21.97.37,1.29.42,1.72.21,2.85.63,3.45,1.27.54.53.7,1.32.59,1.64.05.05.16.11.22.11.27-.21.38-.32.38-.32.05-.11.11-.37.05-.53l-.05-.26v-.21c.38-.16.81-.16,1.35-.11.59.16,1.02.11,1.35,0l.27-.11h.16c-.11.16-.27.21-.43.21-.05.21,0,.37.16.42.27-.11.54-.16.75-.16s.43.11.75.26c-.05.16-.11.26-.22.37,0,.11.05.16.11.16.11,0,.16-.05.27-.05.32-.11.54-.21.65-.37l-.05-.26c.05,0,.27-.11.7-.21l.27-.11.22-.11c.11,0,.27-.05.54-.05,0,.11-.05.26-.11.53-.22,1.32.65,1.85,1.13,2.11.32.21.48.37.59.53.05,0,.16,0,.22-.05,0-.21-.05-.37-.11-.53l.11-.21c-.05-.05-.16-.11-.16-.11l-.27-.11c-.22-.16-1.29-1.32-.7-2.01.16-.21.38-.37.65-.42.48-.16.92-.21,1.29-.21h.27l.22-.05c.11-.05.59,0,1.35.11.48.05,1.35.21,2.64.48.32.05,1.08.11,2.15.16.16,0,.32,0,.54.05.27.05.59.05,1.08.05.38-.05,1.02,0,1.94.05h3.55c.59,0,1.13.05,1.62.16,1.51.32,3.12.26,4.79-.05.05,0,.75-.21,2.1-.58.92-.21,1.67-.37,2.1-.37h.54c.05-.05.11,0,.27,0,.27.11.65.16,1.08.21.38.05,1.02.37,1.89.9.32.21.59.32.75.42l.27.05.22.11c.27.11.54.16.81.21,1.02.16,1.78.58,2.32,1.16.22.26.43.48.48.53.43.32.86.85,1.29,1.64,1.24,1.9,1.62,2.43,2.42,3.33.05.11.32.42.81,1,.65.79,1.4,1.43,2.37,1.9l.22.16.22.11c1.51.95,1.89,1.06,3.18,1.27.54.11,1.08.16,1.62.16.11,0,.27.05.54.05.27.05.54.05.81.05.22,0,.43,0,.54.05-.16.53-.43.85-.81.85l-.27.05-.27.05-.27-.05c-.16-.05-.48,0-.54,0h0Z"/>
      <path class="cls-9" d="m66.8,114.65v.05s0,.05-.05.05c.22.26.54.53.92.69l.22.11c.38.16.59.74.54,1.21-.05.32-.22.74-.54,1.21-.27.42-.43.74-.48,1-.22.74-.27.95-.97,1.16-.05,0-.59.16-1.62.37-.27.05-.48.16-.81.32-.32.16-.59.26-.75.26h-.54c-.11,0-.16.05-.27.16l-.22.21c-.05.05-.48.16-.65,0-.05,0-.11,0-.22.05-.05,0-.11,0-.11-.05,0,0,0-.11.05-.26.05-.53.16-.79.22-.85.16-.16.48-.21.86-.05l.32.05h.11s.16-.11.43-.26c.59-.42,1.13-.69,1.72-.85.16-.05.27-.05.27-.05.11-.11.27-.42.48-.95.16-.37.38-.74.7-1.16.16-.16.27-.32.27-.48-.05-.05-.16-.11-.27-.05,0,.05-.05.05-.05.05-.05.11-.16.26-.32.48-.16.16-.27.37-.38.53l-.11.26c-.22.37-.86.11-.92.05l-.16-.26h0q-.05,0-.05-.05l-.16.05c0,.11-.11.21-.22.26.11.16.22.32.38.37l.27.11c.11.05.22.11.27.16.11.05.16.16.16.21v.05c-.11.05-.22.11-.27.11l-.27.11c-.32.05-.75.26-1.24.58-.22.16-.38.26-.48.26-.05-.05-.05-.26,0-.63,0-.11.05-.32.16-.63.11-.21.16-.42.27-.53.05.11.22.16.27.11.05-.16.05-.21,0-.26l-.22-.21c-.05,0-.11-.05-.22-.16l-.05-.26-.05-.26.05-.32v-.32l.11-.32c.05,0,0-.05,0-.11h-.22c-.16.32-.27.69-.38,1-.11,0-.16.05-.22.11l-.11.21-.16.26-.05.26c-.11.26-.43.42-.92.48-.22,0-.27.05-.27.05l-.27.11-.27.05-.27.16-.27.05-.22.16c-.05,0-.11-.05-.11-.21v-.26c.11-.05.22-.05.27-.11l.22-.11.27-.05c.43-.11.7-.32.81-.69l.11-.26c.05-.05.38-.37,1.02-.9.16-.21.38-.48.65-.9.32-.53.48-.63,1.02-.79.16-.05.48-.05.86-.05h.32c.05,0,.11,0,.22-.05v-.37c.11-.05.16-.05.22-.05h.92c.11,0,.32-.16.54-.37v-.11c0-.11-.05-.11-.27-.05-.05,0-1.88.16-1.72-.69,0-.05.16-.37.43-.9h.05c.11.37.59.53.81.21l.16-.26c.32-.48,1.13-.79,1.29-.69l.22.16.27.11c.16.11.27.32.22.53-.05.11-.11.16-.22.26l-.27.16c-.05.05-.11.16-.16.26.16.26.32.32.54.21.11-.05.16-.05.22-.05.22.11-.16.53-.38.63l-.27.11c-.27.05-.43.21-.48.37h0c0,.11.05.16.16.21l.05.05c0,.11-.05.32-.11.53-.11.05-.16,0-.22,0l-.22-.11h-.22Z"/>
      <path class="cls-9" d="m60.39,122.89l.05-.05.22-.26c.16-.16.27-.37.38-.58.05.05.11,0,.16,0l.05-.11c.05,0,.05-.05.11-.11h.32c.43,0,.75-.05.86-.21l.27-.21h.27c.38,0,.7-.05,1.02-.26.38-.16.75-.32,1.02-.37.81-.16,1.24-.26,1.35-.26.27.69.38,1.11.38,1.32,0,.53-.32,1.16-.97,1.85-.43.48-.75.85-.97,1-.38.32-.7.69-.97,1.06.11.11.22.21.32.21.05,0,.27-.26.32-.26v-.16c0-.05.43-.42,1.24-1.06.38-.32.59-.53.65-.53.27-.11.48-.16.7-.16.05.11.22.37.43.74.27.63.59,1.11,1.08,1.37v.05c-.54.48-1.4.32-1.67.11l-.27-.21c-.32-.26-.7-.42-1.78.53-.11.11-1.4,1.11-1.62,1.11l-.16-.05h-.16l-.11-.05c-.05,0-.11.05-.11.05-.32-.05-.59-.11-.86-.11,0-.05-.05-.05-.05-.11-.05-.11-.11-.16-.16-.16.05-.11.27-.42.59-.95.16-.21.27-.42.43-.69.05-.16.11-.26.11-.26.54-.95.43-1.64-.38-2.11,0-.26,1.08-.9,1.18-.95l.27-.11c.11-.05.16-.11.22-.26q-.05,0-.05-.05c-.38,0-.81.21-1.24.58-.05,0-.11-.05-.11-.11-.16-.16-.22-.26-.22-.26-.11,0-.16,0-.16.05v.37c0,.21-.11.42-.32.58h-.86c-.22,0-.43,0-.81.05h0Z"/>
      <path class="cls-9" d="m59.42,118.03v-.05c0-.21-.27-.58-.81-.69-.16-.05-.54-.11-1.13-.11,0-.16.16-.42.54-.69l.22-.21c.22-.16.32-.37.38-.69,0-.05-.11-.58-.11-.69l-.11-.32v-.05c.11-.11.32-.37.7-.85.05-.05.11-.16.16-.21h.05l.16.21c.11.11.38.16.81.21.38.05.65.11.86.16.43.21.75.11.97-.21l.11-.26c.11-.26.38-.53.75-.85.27-.21.48-.42.59-.63l.22-.21c0-.05.11-.11.22-.11l.27-.05c.43,0,.75,0,.86.05-.32.63-.54,1.06-.54,1.11v.11l.16.32c.22.48.27.79.16.95-.43-.11-1.56-.05-2.1.58-.11.11-.27.37-.54.69-.11.21-.32.37-.59.58-.27.21-.48.37-.59.53-.22.26-.32.37-.38.42l-.11.26c-.16.37-.59.58-1.18.69h0Z"/>
      <path class="cls-9" d="m57.97,127.65c.05-.11-.05-.16-.11-.16l.05-.37h-.22c-.05.05-.11.05-.11.11-.11,0-.16-.05-.27-.11-.43-.26-.81-.42-1.02-.48-.32-.16-.59-.26-.75-.42-.48-.53-.7-1.06-.7-1.53.38.16.65.16.86,0,.59-.37,1.02-1.64-.05-1.64-.05,0-.11,0-.16.05-.11.05-.27.05-.59,0v-.37h.05c-.05-.05-.05-.11-.05-.16-.05-.05-.05-.21.05-.37l.05-.11-.05-.11c-.11-.37,0-.69.32-.95.11.11.75.11.92.05.38-.16.75-.53.54-.74-.11.05-.22.05-.27.11l-.22.16c-.32.21-.75.16-1.29-.16.05-.11,0-.21-.05-.32-.16-.16-.38.05-.38.16v.26s-.05.21-.11.48c-.16.42-.27.69-.38.74,0,.05-.11.05-.27.11-.38.11-.65.21-.75.26,0,.05.05.11.16.21.05,0,.16,0,.32-.05.11-.05.16-.11.22-.05.22.05.32.21.43.37l.16.32c.05.16.22.37.38.48.05.05.05,0,.11-.05h0c.16.05.43.05.86,0,.16,0,.32.05.32.16v.32l-.11.11-.11.26c-.05.11-.43.32-.59.32-.05,0-.38-.16-.48-.26l-.22-.16c-.05-.05-.32-.16-.81-.26-1.24-.32-1.62-1.06-1.08-2.27.05-.16.16-.32.22-.53.32-.58.48-1.22.54-1.8.05-.37.05-.85.7-1.11.7-.32,1.18-.74,1.35-1.27.05-.16.11-.32.05-.42,0-.05-.11-.16-.22-.26l-.27-.21c-.05-.05-.16-.16-.22-.26.22-.53.27-.9.27-1.11v-.21l-.05-.16.05-.05v-.05c.11.11.32.16.65.16.27.05.48.11.54.16l.22.21.22.16.22.21c.05,0,.16,0,.16-.05s.05,0,.05,0c.05.05.05,0,.11,0l.22-.16c.11-.11.32-.16.59-.16.11.48.11.74.11.79-.05.37-.48.69-.54.69s-.97.16-1.45.05h-.16c-.05,0-.11-.05-.16-.05v.11h-.05v.05c0,.16.27.32.81.37h.32c.05.05.16.11.27.16-.11.21-.22.42-.22.63.11.11.16.11.22.05q.05,0,.05-.05h0c.05-.05.11,0,.11.05.32-.05.7,0,1.08.11.59.16.86.9.86.95l-.22,1.53h-.43l-.22.11h-.7v.05c-.16-.05-.22-.11-.27-.11l-.11-.05v.11l-.05.05c.11.16.27.21.54.26h.32l.11.11c.16.16.27.21.32.21h.16v1.27l-.05.11v.11c-.11.11-.16.16-.22.16h-.27c-.59,0-.86.16-.86.48.05.11.11.16.16.11l.16-.21c.05-.05.48-.11.54-.11l.27.16.27.16c.05.05.38,1.11.38,1.16,0,.26-.05.53-.27.85h-.32c-.05-.05-.32-.16-.81-.48-.22-.11-.38-.16-.38-.11v.05h-.05v.05c.05.11.32.32.65.48.59.32,1.02.69,1.24,1.11.05.05.22.58.54,1.53.32.85-.43,1.58-2.26.95-.16-.05-.27-.05-.27-.11-1.02-.32-1.67-.53-1.94-.53-.11,0-.48.05-1.13.16-.86.16-1.29.16-1.24-.05.11-.05.16-.11.22-.16l.27-.05c.22-.05.48-.26.81-.74.16-.26.38-.42.65-.48.22-.05.54-.05.54-.05l.22.21c.05.05.92.58,1.13.42,0-.05.05-.05.11-.05.16,0,.38.11.54.26l.22.21c.05.05.16.11.27.16.05-.05.05-.11.11-.21q.05.05.11,0h0Z"/>
      <path class="cls-8" d="m35.45,106.52c.05-.05,0-.11-.11-.16l-.11-.05h-.32c-.11,0-.32-.11-.59-.26-.54-.37-1.02-.26-1.35.32l-.11.21c-.11.16-.59.42-1.45.79-.97.42-1.56.74-1.78.85v.05c.11.21.54.16,1.4-.26l.27-.11.22-.11c.32-.11.59-.21.81-.26l.27-.11.22-.11c.16-.05.27-.05.27-.05.05-.05.16,0,.27,0l.22.11h.27c.05,0,.11-.05.27-.05.05,0,.38-.21.38-.26v-.16c-.11,0-.11-.05-.11-.16-.11-.05-.22,0-.27.05l-.16.11c-.05.11-.16.05-.27-.05l-.11-.16-.11-.11v-.05c0-.16.38-.32.59-.21q.05.05.11.11t.05-.05h.05l.32.16.32.05.38.11c0,.05.05,0,.05,0,0,0,0-.05-.05-.05.05-.05.11-.11.11-.11h.05Z"/>
      <path class="cls-8" d="m52.8,124.58c0-.16-.22-.79-.38-1.06-.11.05-.16.11-.16.11-.97-.95-.22-2.48-.16-2.54l.22-.16q.05,0,.05-.05l.11-1.32c0-.32-.27-1.32-.32-1.37-.05-.05-.11-.11-.16-.11-.11.16-.22.42-.32.79-.22.74-.38,1.21-.48,1.32l-.16.26c-.16.21-.27.69-.22,1.37.05.26.05.42,0,.48,0,.05,0,.11-.05.11h0c-.16-.16-.32-.37-.48-.69-.11,0-.16,0-.22.11,0,.05,0,.11-.05.11l-.05.21-.05.21c0,.32,0,.48.11.48.22,1.37-.43,2.32-1.99,2.8-.38.11-.65.37-.7.69-.16.58-.16.9,0,.9h.05c.27.05.54.05.7,0,1.02-.21,1.78-.26,2.21-.16.65.11.92.05,1.18-.11.16-.16.32-.32.38-.53-.11-.32.22-.48.54-.48,0-.05,0-.21-.11-.48-.05-.05-.05-.16-.05-.26.32-.21.54-.42.59-.63h0Z"/>
      <path class="cls-8" d="m73.05,123.48v.05s.16.16.32.26c.05,0,.11.05.16.05l.05-.05v-.42c-.05-.21,0-.48.11-.74h.05c.11.26.22.37.32.37,0-.05.05-.05.05-.11h.05c-.05-.53-.05-.85-.05-.95.05-.16.11-.26.16-.37h0l.05.26c0,.11,0,.16.05.26,0,.11.11.11.27.11q0-.05.05-.05h0c0-.16,0-.26-.05-.32-.05-.21.05-.95.38-1.32l.05.05v.26c0,.21.11.37.27.48h.05c.05-.11.11-.32.16-.63.05-.21.11-.42.16-.58v.05c.05.11.16.42.22.42.05.05.11.11.22.11,0-.11.05-.32.11-.58.11-.37.22-.74.43-1.11.11-.26.22-.42.22-.58-.11,0-.16-.05-.22-.05,0,0-.05.05-.22.16-1.45,1.16-2.42,2.22-2.91,3.22-.32.63-.65,1.11-.92,1.37-.54.48-.86.79-.97.95,0,0,.05.05.16.11.05-.05.11-.11.11-.11.05,0,.11,0,.16-.05h.16c.05.26.16.42.32.32,0,0,.05,0,.05-.05v-.32c0-.05.05-.16.11-.26.11-.11.16-.16.27-.21h0Z"/>
      <path class="cls-8" d="m70.19,104.3c0-.05,0-.42-.32-.37-.22.05-.92.58-1.29,1-.75.9-1.35,1.48-1.72,1.74l-.27.16-.22.16s-.11.05-.22.11c-.27.16-.38.26-.48.32,0,.05.05.11.11.16.05.05.11.11.16.11s.27-.11.75-.32c.59-.21,1.18-.74,1.89-1.53.22-.26.43-.42.59-.58.65-.48.97-.79,1.02-.95h0Z"/>
      <path class="cls-8" d="m73.42,107.36c-.05-.16-.11-.26-.22-.37l-.22-.21c-.22-.21-.16-.58.11-1.11.11-.26.16-.42.11-.53,0-.11-.16-.32-.48-.32h-.32c-.11,0-.38-.16-.86-.37-.16-.11-.38-.16-.54-.16-.11.05-.27.21-.43.42-.16.21-.43.42-.92.74-.43.32-.65.53-.59.69,0,0,.22.26.27.26h.11v-.05c.05,0,.05.05.11.05.16.11.7-.42.75-.48l.16-.26c.43-.79,1.4-.69,1.83-.32-.05.05-.11.16-.16.37-.65,1.43.48,2.11.86,2.01.11,0,.43-.26.43-.37h0Z"/>
      <path class="cls-9" d="m59.8,127.23v-.05l.11-.16.11-.11q0-.05.05-.11c-.16-1.06-.22-1.37.81-1.74.16.21.27.11.27.05v-.11l-.11-.16c-.11-.11-.11-.26,0-.42.05-.11.05-.16.05-.21-.11-.11-.48.11-.59.21l-.11.26c-.22.32-.75.53-.97.58-.05-.05-.05-.11-.11-.11.16-.26.16-.48,0-.48l.11-.69c.05-.26,0-.48-.22-.69,0,0,.59-.05,1.72-.16.7-.11,1.13-.05,1.45.11.32.21.48.48.48.79-.05.48-.11.63-.22.95-.22.42-.54.9-.92,1.43-.54.74-.54.79-.38,1,.11.11.22.16.32.16h.27l.32.05.32.05c.11,0,.38.16.81.42,0,.21-.38.32-.43.26,0-.05-.05-.11-.16-.11-.16.05-.38.05-.48.05l-.32-.05c-.32-.11-.59-.05-.92.05-.27.05-.48.11-.59.11-.11-.11-.16-.16-.22-.21l-.22-.16-.05-.32c-.05-.05-.05-.11-.11-.26l-.11-.26h0Z"/>
      <path class="cls-8" d="m33.19,108.53c-.11.21.11.26.59.16h.27l.22-.05c.05-.05.16,0,.38.05l.27.05c.11.05.27.11.54.11.32.05.54.05.59.11.22.11.32.21.38.37l.11.26c.05.05.11.11.22.21h.05c.65-.58-.05-1.32-.59-1.32h-.32c-.43,0-.59-.11-.54-.32,0-.05.05-.05.11-.16.16-.21-.22-.21-.27-.21l-.22.16c-.11.05-.27.16-.59.26-.11,0-.22.05-.27.05l-.27.16c-.11,0-.16.05-.32.05l-.32.05h0Z"/>
      <path class="cls-8" d="m80.32,111.75c0-.26-.22-.48-.59-.63-.32-.16-.65-.37-.97-.53-.27-.16-.59-.42-.81-.69,0-.05,0-.21.05-.48.05-.05.05-.11,0-.21,0-.11-.11-.21-.22-.21l-.38-.11-.32-.11c0-.05-.27,0-.32.16h-.16s0,.05-.05.05c.05.32.38,1.21,1.24,1.8.16.11.38.26.75.42.22.16.54.37.86.69.27.26.54.37.75.32.11-.11.16-.26.16-.48h0Z"/>
      <path class="cls-8" d="m37.23,102.66c.05-.11-.22-.79-.48-1-.32-.37-.92-.58-1.78-.69-.38-.05-.65-.11-.81-.21l-.22-.16c-.05-.05-.11,0-.16.05-.05.11,0,.26.16.42.27.32.48.53.59.58.16.16.32.21.54.21l.32.05c.38.05.54.16.48.37,0,.05-.05.11-.05.11h-.11c-.05,0-.11,0-.16.11.05.69,1.08.48,1.18-.21.05.16.16.32.27.48h.11c.05,0,.11-.05.11-.11h0Z"/>
      <path class="cls-8" d="m88.02,118.09c0-.11,0-.79-.05-1-.16-.42-.59-.74-1.35-.9-.48-.05-.75-.16-.81-.16s-.7-.48-.86-.69c-.11,0-.22.05-.22.11v.05s.27.42.54.63c.43.37.86.58,1.29.58h.27c.05,0,.05.11-.05.26-.22.32.38.79.59.58.11-.05.16-.11.16-.11.11.21.11.32.11.37v.26l-.16.42v.16c.05,0,.11,0,.11.05h.16c.16-.21.22-.42.27-.63h0Z"/>
      <path class="cls-8" d="m62.11,110c0-.16-.11-.26-.32-.32-.27-.05-.7.05-1.24.42-.54.42-.92.63-1.18.69l-.27.05c-.05,0-.11.05-.22.16.05.32,1.08.16,1.62-.05.11-.05.32-.21.7-.42.27-.16.43-.26.48-.26l.27-.11c.11,0,.16-.05.16-.16h0Z"/>
      <path class="cls-8" d="m33.41,104.35v-.05c-.05-.16-.81.16-1.4.9-.54.74-.81.95-1.67,1.48,0,.05.05.21.16.16.05,0,.32-.11.86-.42.22-.11.38-.16.54-.16.16.26.32.37.48.37.11-.16.16-.32.05-.58-.05-.26-.05-.48,0-.63.16-.32.32-.53.54-.69l.27-.16c.05-.05.11-.11.16-.21h0Z"/>
      <path class="cls-9" d="m62.6,120.04c-.05.05-.16,0-.27-.16l-.11-.26c-.16-.26-.81-.16-.92-.16l-.27.16c-.16.05-.22.11-.22.11-.05.05-.27.05-.59.05-.27.05-.48.05-.59.11v-.53c.16-.11.65-.16,1.45-.32.59-.11.7-.16,1.02-.42.27-.21.48-.32.54-.26-.22.48-.27.9-.16,1.27l.05.21c.05.11.05.16.05.21h0Z"/>
      <path class="cls-8" d="m44.99,105.09v-.05c0-.05-.05-.05,0-.05-.32,0-.48-.05-.59-.05-.05-.05-.11-.11-.27-.16-.54-.32-.97-.53-1.35-.53-.43-.05-.65-.05-.7,0-.05.05-.05.11,0,.16l.05.05h.27c0,.05,0,.11.05.11h.27c.16,0,.38.11.7.37.16.16.32.21.48.26v.05c-.05.05-.11.11-.16.11h-.59c0,.11.05.21.11.26h.59l.32-.16c.48-.21.75-.32.81-.37h0Z"/>
      <path class="cls-8" d="m37.99,105.62v-.05c-.05-.16-.11-.26-.11-.26l-.32-.05c-.16-.05-.38-.37-.65-.95l-.05.05q-.05,0-.11-.05v.05c-.11.05-.27.05-.38.05-.05,0-.54-.21-.59-.21l-.22-.21h-.16c-.05,0-.11.05-.11.11v.05l.22.21.16.26c.22.21.43.32.7.26l.05-.05h.05c.27.53.65.74,1.45.85.05,0,.05-.05.05-.05h0Z"/>
      <path class="cls-8" d="m44.34,103.98l-.05-.11c0-.05-.05-.11-.22-.16l-.22-.11-.27-.16c-.38-.21-.65-.32-.75-.32h-.59c-.48,0-.7.11-.59.26.05.16.16.16.27.05.05-.05.16-.05.38,0,.16,0,.32.05.54.16.32.26.59.37.7.37h.27c.16,0,.32.05.38.05h.11c0-.05.05-.05.05-.05h0Z"/>
      <path class="cls-9" d="m59.42,120.2s.22-.05.54-.11h.59l.27-.05.27-.11c.48-.21.81-.21.97-.05-.43.05-.7.16-.81.42-.11.16-.16.32-.16.58-.11,0-.27-.05-.43-.11s-.32-.05-.48,0h-.32c-.05-.05-.16,0-.27,0-.05-.05-.11-.21-.11-.37-.05-.11-.05-.16-.05-.21h0Z"/>
      <path class="cls-8" d="m43.64,106.31v.21h.32v.05l.05.21.27.16c.43.21.75.48.86.69l.16.26c.11.21.48.42.7.26.05-.26-.22-.9-.59-1.21-.38-.42-.81-.58-1.18-.63h-.59Z"/>
      <path class="cls-8" d="m50.48,117.98c-.11-.16-.27-.11-.43.11-.11.05-.22.21-.38.42l-.11.26c-.05.05-.16.21-.32.48-.59.85-.86,1.32-.86,1.48.05.05.11.11.16.11.05-.11.11-.21.16-.21l.16-.21.16-.21c.16-.32.43-.69.81-1.06.59-.63.81-1,.65-1.16h0Z"/>
      <path class="cls-9" d="m58.94,121.89h.22l.32-.11c.05-.05.16-.05.27-.11.27-.11.48-.16.54-.21.32-.05.54-.11.59-.11h0v.05c-.05.05-.11.11-.11.11,0,0,0,.05.05.05,0,.05.05.11,0,.11,0,0-.32.69-.54.95-.16.16-.27.32-.38.37-.16,0-.43.05-.86.05q-.05-.11-.05-.16l-.05-.16c0-.05-.05-.11-.11-.16.11-.21.11-.42.11-.69h0Z"/>
      <path class="cls-8" d="m40.84,109.69c0-.11,0-.21-.05-.32l-.05-.11v-.32c0-.37-.22-.79-.59-1.27-.32-.26-.48-.53-.54-.69-.11-.26-.16-.85-.05-1.11,0,0-.05-.05-.16-.05-.48.32-.43,1.58-.05,2.17.11.16.22.26.38.42.43.37.65.69.7.9,0,.05,0,.26-.05.58v.32h.05c.32-.16.43-.32.43-.53h0Z"/>
      <path class="cls-8" d="m83.6,114.28c0-.21-.38-.79-.43-.84l-.22-.16c-.16-.16-.27-.32-.38-.48-.22-.42-.38-.63-.48-.69-.11,0-.16,0-.27.11,0,.05.05.26.16.63.16.53.48,1,.97,1.37.43.32.65.37.65.05h0Z"/>
      <path class="cls-8" d="m60.44,108.26c0-.32-.05-.74-.22-1.21-.05-.16-.22-.69-.43-1.64-.48-2.01-1.08-1.16-1.08-1.06.05.16.16.42.43.79.32.58.43.95.48,2.22v.95c0,.16-.05.32-.16.53q.05,0,.05.05c.11.05.22.11.27.11.38-.05.59-.26.65-.74h0Z"/>
      <path class="cls-8" d="m36.64,105.88v.05c0,.53-.27,1-.54,1.06l-.32.05c-.05.05-.16.11-.22.21,0,.16.27.05.32,0,.92.05,1.35-.21,1.24-.79,0-.05-.05-.21-.22-.53,0-.05-.16-.05-.27-.05h0Z"/>
      <path class="cls-8" d="m58.34,111.54c.05-.16,0-.21-.05-.21h-.16l-.16-.05c-.22-.05-.43,0-.75.11-.22.05-.32.16-.48.32.22.21.38.26.59.11l.05-.05h.27l.27.05c.27,0,.43-.05.43-.26h0Z"/>
      <path class="cls-8" d="m89.53,119.41c.05,0,.16.05.32.21.22.11.32.11.32,0,0-.05,0-.11-.05-.11h.05c-.05-.11-.11-.16-.16-.21-.22-.26-.38-.53-.38-.79-.05-.16-.05-.26,0-.32h.05c.05.05.11.11.11.16l.11.21c.11.21.32.16.32-.11-.05-.21-.22-.42-.54-.74-.22-.26-.38-.48-.54-.74,0,0-.05,0-.11.05h-.05v.05q-.05.05-.11.05c.05.05.32.69.32.79,0,.05-.05.05-.05.05v1.9l-.05.26v1.21l-.05.21c-.05.05,0,.26,0,.58l.05.32v.26s.05.11.11.26c.11.37.16.74.27,1.11,0,.11,0,.21.05.32h.05c.11.05.16,0,.22,0v-.69h0c.16.37.32.53.43.42.22-.21-.38-1.69-.48-1.9l-.16-.21v-.05h0c.43.63.7.79.75.58,0-.05-.11-.32-.32-.79-.22-.48-.32-.85-.32-1.06.32.26.54.37.54.37.11.05.16,0,.16-.16,0-.05-.05-.11-.16-.26-.22-.21-.38-.48-.48-.69-.22-.37-.27-.58-.22-.58h0Z"/>
      <path class="cls-8" d="m63.14,107.47v-.42c0-.21-.27-1-.75-2.38-.22-.53-.43-.79-.65-.79-.22.11-.11.48.27,1.16.32.58.54,1.9.43,2.32,0,.16-.05.26-.05.32.11.21.32.26.54.21.16-.11.22-.21.22-.42h0Z"/>
      <path class="cls-8" d="m53.77,114.97c0-.32-.05-.58-.22-.79l-.16-.16-.16-.26-.11-.05s-.05-.05-.05-.21c-.16,0-.22.05-.27.05.11.16.11.26.05.37-.05.11,0,.32.11.58l.16.32c.11.37-.16.85-.81.95v.16c.05,0,.11,0,.11.05.22.05.43,0,.65-.11.38-.16.65-.48.7-.9h0Z"/>
      <path class="cls-8" d="m42.94,109.42c.05-.58-.16-1.16-.75-1.69-.32-.32-.54-.42-.65-.32,0,.11.05.21.05.26l.22.21c.22.21.59.95.59,1,0,.11,0,.48-.16,1.21v.26c.05.21.16.26.27.21.27-.63.38-1,.43-1.16h0Z"/>
      <path class="cls-8" d="m57.48,109.11v-.42c0-.26-.65-1.69-.75-1.85-.43-.63-.75-.21-.48.42.22.48.32.85.38,1.06.11.48.16.74.16.85.05.26.05.37.05.37.05.05.16.11.27.05.05,0,.16-.05.27-.05.05-.16.11-.26.11-.42h0Z"/>
      <path class="cls-8" d="m44.07,126.96c0-.16-.05-.21-.22-.11-.05.05-.11.05-.27,0-.27,0-.43-.16-.54-.48-.11-.05-.16,0-.22.05,0,.11-.05.16-.05.21l-.05.21c-.11.32,1.08.74,1.08.37,0-.05.05-.11.05-.11h.11c.05,0,.11-.05.11-.16h0Z"/>
      <path class="cls-8" d="m55.6,110.11v-.11l-.05-.21c-.05-.26-.11-.48-.11-.63,0-.37,0-.74-.11-1.11-.05-.21-.11-.42-.16-.58-.05-.37-.16-.63-.38-.69-.32-.16-.65.21-.38.69.27.42.38.63.43.69,0,.11.38,1.8.16,1.69v.32c.05.53.59.48.59-.05h0Z"/>
      <path class="cls-8" d="m39.82,104.67c0-.11-.05-.21-.11-.26l-.22-.16c-.05-.05-.11-.11-.22-.21l-.11-.21c-.22-.37-.54-.42-.59-.05v.16c.05.16.22.37.59.63l.22.21.16.21c.05.05.16.05.27-.05.05-.05.05-.16,0-.26h0Z"/>
      <path class="cls-8" d="m63.57,104.04c-.05.05,0,.42.27,1.16.11.37.22.95.27,1.69v.32c-.05.21-.05.32-.05.42.05.11.59.26.7-.11.11-.26.05-.79-.22-1.53-.11-.21-.16-.58-.27-1.11-.16-.53-.32-.85-.59-.9,0,0,0,.05-.05.05h-.05Z"/>
      <path class="cls-8" d="m34.97,105.73v-.05c0-.32-.92-.53-1.24-.26-.05.05-.05.11-.05.11l.05.05c.05,0,.05.05.05.05,0,0,.11,0,.22-.05.22-.05.43,0,.59.16l.16.16h.11v-.11q0-.05.11-.05h0Z"/>
      <path class="cls-8" d="m92.81,115.71v-.05c-.32-.16-.59-.32-.7-.42l-.22-.16q0-.05-.05,0c-.11,0-.16.05-.16.21,0,0,.16.26.32.37.16.11.7.26.75.21.05-.05.05-.11.05-.16h0Z"/>
      <path class="cls-8" d="m78.81,104.56v-.11c0-.05-.27-.37-.32-.42-.22-.16-.7-.11-.81-.05,0,.16.48.85.92.69.11,0,.22-.05.22-.11h0Z"/>
      <path class="cls-8" d="m44.07,107.94v-.05c0-.05-.65-.53-.7-.53-.11-.05-.22-.05-.32,0v.05s0,.05.05,0v.05h-.05c.05.05.05.11.05.11v.11c.05.05.16.05.16.11l.16.11.22.05.16.16c.16.05.27.05.27-.05v-.11h0Z"/>
      <path class="cls-8" d="m41.86,109.32c.11-.63-.43-1.48-.81-1.37-.11.05-.16.16-.11.21l.11.26c.32.63.38,1.11.22,1.43l-.11.21c-.05.05-.05.16-.11.26.38.42.81-.95.81-1h0Z"/>
      <path class="cls-8" d="m66.15,112.54h0c0,.05-.05.05-.11.05h-.16c-.54-.21-.11.69.54.11.22-.16.22-.26.05-.26-.05,0-.32.05-.32.11h0Z"/>
      <path class="cls-8" d="m61.95,107.79c0-.11-.16-1.32-.38-1.64-.16-.26-.32-.37-.54-.21,0,0,0,.11.05.37l.11.26.05.26v.32c-.11.58-.11.95.05,1.06.27.16.59-.05.65-.42h0Z"/>
      <path class="cls-8" d="m90.23,115.66v-.11l-.16-.21c-.11-.16-.22-.26-.27-.42l-.05-.21c-.05-.11-.16-.16-.27-.11-.11.05-.11.16-.11.16l.11.26c.22.42.43.69.7.74.05,0,.05-.05.05-.05v-.05h0Z"/>
      <path class="cls-8" d="m88.34,123.05c0-.05-.05-.21-.11-.42-.16-.53-.22-.85-.22-.95l.11-1.74c0-.11,0-.16-.05-.21-.05,0-.32.05-.32.11l-.05.26c0,.05,0,.11-.05.21l-.11.21.16,2.38c0,.11.16.42.22.42.11.05.16.11.27.11.11-.16.16-.26.16-.37h0Z"/>
      <path class="cls-8" d="m46.93,110.53c0-.05,0-.11-.05-.11v-.53c.05-.95-1.13-.95-.7.16.22.58.38.79.59.69l.05-.05c0-.05,0-.11.05-.11q0-.05.05-.05h0Z"/>
      <path class="cls-8" d="m53.17,109.32v-.21c0-.16-.22-1.06-.65-1.11-.11,0-.16.05-.11.16l.05.16c.11.26.16.42.11.53-.11.21.05.58.38.63.16,0,.22-.05.22-.16h0Z"/>
      <path class="cls-8" d="m48.92,105.67v-.11c0-.37-.43-.74-.65-.58l-.05.05h-.05c-.05.05,0,.37.05.37l.16.11.11.11s.22.16.27.16c.11,0,.16-.05.16-.11h0Z"/>
      <path class="cls-8" d="m57.48,115.08c0-.05-.16-.05-.16-.05l-.11.05c0,.05-.05.05-.05.11l-.11.05h-.22q-.05,0-.05.05h-.05v.11h.05c0,.05.05.05.05.11h.32l.11-.05c.22-.11.27-.16.27-.21l-.05-.16h0Z"/>
      <path class="cls-8" d="m57.91,123.37v.05h-.05c0,.05,0,.11.11.16l.05.05.27.05c.11,0-.05-.37-.38-.32h0Z"/>
      <path class="cls-8" d="m40.79,106.73l-.27.05h-.05c0,.21,0,.37.11.48.05.05.11.05.22.05,0-.05,0-.11.05-.11l-.05-.48h0Z"/>
      <path class="cls-8" d="m67.23,112.01v-.05c.16-.21-.11-.26-.27-.16h-.05v.11h.05c.05.05.05.11.05.11h.22Z"/>
      <path class="cls-8" d="m55.7,114.6v-.05h-.22c-.22,0-.22.21.05.26.11.05.22-.05.22-.11v-.11h-.05Z"/>
      <path class="cls-9" d="m79.67,111.38c.05,0,.32.21.32.32-.16,0-.32-.26-.32-.32h0Z"/>
      <path class="cls-9" d="m34.11,99.86q0-.05.05-.05l.27.11h-.27v-.05h-.05Z"/>
      <polygon class="cls-9" points="79.24 115.13 79.35 115.13 79.4 115.13 79.4 115.18 79.35 115.18 79.24 115.13 79.24 115.13 79.24 115.13"/>
      <polygon class="cls-9" points="88.29 116.61 88.34 116.71 88.29 116.71 88.23 116.61 88.23 116.61 88.29 116.61 88.29 116.61"/>
      <path class="cls-9" d="m31.58,100.28v-.05h.05v.05h-.05Z"/>
      <polygon class="cls-9" points="54.95 120.78 55 120.78 55 120.83 55 120.83 54.95 120.78 54.95 120.78 54.95 120.78"/>
      <path class="cls-9" d="m75.58,119.78v-.05h.05s0,.05-.05.05h0Z"/>
      <path class="cls-9" d="m45.1,111.11h.05v.05h-.05v-.05h0Z"/>
    </g>
  </g>
</svg>