<?xml version="1.0" encoding="UTF-8" standalone="no"?>
<svg
   xmlns:dc="http://purl.org/dc/elements/1.1/"
   xmlns:cc="http://creativecommons.org/ns#"
   xmlns:rdf="http://www.w3.org/1999/02/22-rdf-syntax-ns#"
   xmlns:svg="http://www.w3.org/2000/svg"
   xmlns="http://www.w3.org/2000/svg"
   xmlns:sodipodi="http://sodipodi.sourceforge.net/DTD/sodipodi-0.dtd"
   xmlns:inkscape="http://www.inkscape.org/namespaces/inkscape"
   xml:space="preserve"
   style="enable-background:new 0 0 587.5 761.7;"
   viewBox="0 0 587.5 761.7"
   y="0px"
   x="0px"
   sodipodi:docname="AS_Roma_Logo_2017.svg"
   inkscape:version="1.0 (4035a4f, 2020-05-01)"
   id="svg3839"
   version="1.1"><metadata
   id="metadata9067"><rdf:RDF><cc:Work
       rdf:about=""><dc:format>image/svg+xml</dc:format><dc:type
         rdf:resource="http://purl.org/dc/dcmitype/StillImage" /></cc:Work></rdf:RDF></metadata><defs
   id="defs9065" /><sodipodi:namedview
   inkscape:current-layer="svg3839"
   inkscape:window-maximized="1"
   inkscape:window-y="25"
   inkscape:window-x="0"
   inkscape:cy="345.80343"
   inkscape:cx="350.36195"
   inkscape:zoom="0.73656568"
   showgrid="false"
   id="namedview9063"
   inkscape:window-height="793"
   inkscape:window-width="1440"
   inkscape:pageshadow="2"
   inkscape:pageopacity="0"
   guidetolerance="10"
   gridtolerance="10"
   objecttolerance="10"
   borderopacity="1"
   bordercolor="#666666"
   pagecolor="#ffffff" />
<style
   id="style8938"
   type="text/css">
	.st0{fill:#17191D;}
	.st1{fill:#FBBA00;}
	.st2{fill:#970A2C;}
	.st3{fill:#100F0D;}
	.st4{fill:#BCB9B7;}
	.st5{fill:#110F0D;}
	.st6{fill:none;}
</style>
<g
   id="g9060">
	<g
   id="g9052">
		<path
   style="fill:#101820;fill-opacity:1"
   d="M577.9,161.1l-2-10.9l-10.9-2.3c-0.7-0.2-72.7-15.2-136.7-51    C337,45.8,306.3,13.6,306,13.3L293.8,0l-12.2,13.2c-0.3,0.3-31.1,32.7-122.2,83.7c-64,35.7-136,50.8-136.8,51l-10.9,2.3l-2,10.9    C-3,229.4-3.2,298.1,9.2,365.6l5.5,26.9l1.5,6.2c17.4,70.8,48.2,137,91.6,196.7c47,64.7,106.7,119,177.5,161.3l8.5,5l8.5-5    c70.8-42.3,130.5-96.6,177.6-161.3c43.3-59.7,74-125.8,91.5-196.7l7-33.1C590.8,298.1,590.6,229.4,577.9,161.1L577.9,161.1z"
   class="st0"
   inkscape:connector-curvature="0"
   id="path3856" />
		<path
   style="fill:#ffb500;fill-opacity:1"
   d="M561.6,164.1c0,0-74.5-15.4-141.4-52.8    C324,57.5,293.8,24.4,293.8,24.4c0,0-30.2,33.1-126.4,86.9C100.5,148.7,26,164.1,26,164.1c-13.8,73.8-12.2,147.7,3.4,218h528.8    C573.7,311.8,575.3,237.9,561.6,164.1L561.6,164.1z"
   class="st1"
   inkscape:connector-curvature="0"
   id="path3866" />
		<path
   style="fill:#971b2f;fill-opacity:1"
   d="M293.8,742.4C433.8,658.8,526,528,558.2,382.2H29.4    C61.6,528,153.8,658.8,293.8,742.4L293.8,742.4z"
   class="st2"
   inkscape:connector-curvature="0"
   id="path3871" />
		<g
   id="g8951">
			<path
   id="path8943"
   d="M246.1,641.2c-3,0-5.7-0.1-7.7-0.1c-1.2,0-2.1-0.1-2.8-0.1c-0.6,0-1.6,0-3,0.1c-2.2,0.1-5.3,0.1-7.8,0.1     c-0.6,0-1.2-0.1-1.2-0.7c0-0.4,0.3-0.7,0.6-0.7c0.8,0,3.9-0.2,5.1-0.5c2-0.4,2.2-1.3,2.4-3.2c0.2-2.5,0.4-7.7,0.3-14.3l-0.1-10.1     v-8.3c0-1.7-0.1-2.2-0.9-2.2c-0.9,0-3.8,1.4-5.7,2.3c-0.6,0.3-1.2,0.6-1.5,0.7c-0.1,0-0.2,0.1-0.3,0.1c-0.2,0.1-0.4,0.2-0.6,0.2     c-0.2,0-0.6-0.5-0.6-0.9c0-0.4,0.4-0.7,0.6-0.9c0.1,0,0.5-0.4,1.3-0.9c3.1-2.1,11.5-7.6,13.3-8.9c0.5-0.4,1.1-0.8,1.6-0.8     c0.6,0,0.9,0.7,0.9,1.4c0,0.1-0.4,6.2-0.4,16.5l0,11.8c0,5.9,0,11.5,0.2,14.3c0.2,2,0.5,2.8,2.4,3.3c1,0.2,3.7,0.4,4.2,0.4     c0.3,0,0.7,0.3,0.7,0.7C247.1,641.1,246.8,641.2,246.1,641.2z"
   class="st3" />
			<path
   id="path8945"
   d="M263.8,642.5c-0.3,0-0.7-0.4-0.7-0.8c0.1-0.5,0.7-1,0.8-1.1c1.9-1.2,6.6-4.5,10.6-10.6     c3.8-5.8,5.7-12.1,5.7-18.8c0-8-3-16.1-9.5-16.1c-4.4,0-7.5,4-7.5,9.4c0,9.9,6.6,11.9,8.3,11.9c1.8,0,3.2-0.3,4.3-0.8     c0.3-0.1,0.6-0.3,0.8-0.4c0.2-0.1,0.4-0.2,0.5-0.2c0.3,0,0.6,0.2,0.6,0.6c0.1,0.2-0.1,0.6-0.3,0.8c-1.7,1.9-4.7,2.9-8.3,2.9     c-9.4,0-12.9-7.3-12.9-12.3c0-4.2,1.6-8,4.4-10.7c2.9-2.7,7-4.2,11.7-4.2c4.9,0,9,1.7,11.9,5c2.7,3.1,4.1,7.4,4.1,12.2v0.1h0     c0,7.8-2.9,15.1-8.7,21.6c-5.8,6.6-12.6,10.2-14.5,11.1C264.7,642.4,264.3,642.5,263.8,642.5z"
   class="st3" />
			<path
   id="path8947"
   d="M319.3,641h-24.6c-0.5,0-0.9-0.5-0.9-1c0-0.4,0.4-1,1.2-1.7c0.6-0.5,1.2-1.1,1.8-1.6     c8.7-7.6,19.6-17.1,19.6-29.5c0-4.4-1.1-7.7-3.1-9.7c-2.1-2.1-4.5-2.3-5.5-2.3c-2.9,0-4.8,0.7-6.5,2.3c-1.5,1.5-2.7,4.5-2.7,6     c0,0.6-0.1,0.9-0.3,1.1c-0.1,0.2-0.3,0.2-0.6,0.2c-0.3,0-0.6-0.5-0.7-1.4c0-0.2,0-0.7-0.1-1.4c-0.1-1.8-0.2-4.9-0.2-6.2     c0-0.6,0.1-0.9,0.7-1.4c3.1-1.6,6.8-2.4,11.4-2.4c9.9,0,15.9,5.1,15.9,13.6c0,12.3-13.5,23.1-21.5,29.6l-0.1,0.1     c-0.1,0.1-0.2,0.1-0.2,0.2c0,0,0.1,0.1,0.2,0.1h4.3c2.6,0,8.7,0,10.8-0.3c3.9-0.5,6.2-2.3,7.1-5.6c0.2-0.7,0.3-1.1,0.8-1.1     c0.6,0,0.6,0.8,0.6,1.3c0,1-1.2,6.9-1.8,9.1C324.4,640.8,323.3,641,319.3,641z"
   class="st3" />
			<path
   id="path8949"
   d="M340.9,642.1c-0.7,0-1-0.2-1-0.8c0-0.8,0.1-1.7,0.4-2.6c1.9-6.6,10-25.2,18.4-39.5h-16.1     c-1.5,0-4.3,0.2-5.9,1.2c-1.1,0.7-1.9,2.8-2.1,3.8c0,0.6-0.3,0.9-0.7,0.9c-0.5,0-0.6-0.4-0.6-1.1c0-1.5,0.4-5,0.6-7.6     c0.1-1.4,0.3-2.5,0.3-2.8c0-0.6,0.3-0.9,0.8-0.9c0.1,0,0.2,0,0.3,0.1c0.7,0.1,2.7,0.5,8.2,0.5h20.1c1.1,0,1.6,0.2,1.6,0.6     c0,0.4-0.2,0.9-0.4,1.2c-5.2,7.4-15.1,32.6-16,40.9c-0.1,0.7-0.1,1.1,0,1.6c0,0.2,0,0.5,0,0.8     C348.8,639.6,343.6,642.1,340.9,642.1z"
   class="st3" />
		</g>
		<g
   id="g8961">
			<path
   style="fill:#bbbcbc;fill-opacity:1"
   id="path8953"
   d="M246.1,638.9c-3,0-5.7-0.1-7.7-0.1c-1.2,0-2.1-0.1-2.8-0.1c-0.6,0-1.6,0-3,0.1c-2.2,0.1-5.3,0.1-7.8,0.1     c-0.6,0-1.2,0-1.2-0.6c0-0.5,0.3-0.8,0.6-0.8c0.8,0,3.9-0.2,5.1-0.5c2-0.4,2.2-1.3,2.4-3.3c0.2-2.6,0.4-8,0.3-14.2l-0.1-10.1     v-8.3c0-1.7-0.1-2.2-0.9-2.2c-0.9,0-3.8,1.4-5.7,2.3c-0.6,0.3-1.2,0.6-1.5,0.7c-0.1,0-0.2,0.1-0.3,0.1c-0.2,0.1-0.4,0.2-0.6,0.2     c-0.2,0-0.6-0.3-0.6-0.8c0-0.4,0.2-0.7,0.6-1c0.1,0,0.5-0.4,1.3-0.9c3.1-2.1,11.5-7.6,13.3-8.9c0.5-0.4,1.1-0.8,1.6-0.8     c0.6,0,0.9,0.7,0.9,1.4c0,0.1-0.4,6.2-0.4,16.5l0,11.8c0,5.9,0,11.5,0.2,14.2c0.2,2.1,0.5,3,2.4,3.4c1,0.2,3.7,0.4,4.2,0.4     c0.3,0,0.7,0.2,0.7,0.8C247.1,638.9,246.7,638.9,246.1,638.9z"
   class="st4" />
			<path
   style="fill:#bbbcbc;fill-opacity:1"
   id="path8955"
   d="M263.8,640.3c-0.3,0-0.7-0.4-0.7-0.8c0-0.4,0.4-0.8,0.7-1l0.1-0.1c1.9-1.1,6.6-4.4,10.6-10.6     c3.8-5.8,5.7-12.1,5.7-18.8c0-8-3-16.1-9.5-16.1c-4.4,0-7.5,4-7.5,9.4c0,9.9,6.6,11.9,8.3,11.9c2.1,0,3.4-0.4,4.3-0.7     c0.2-0.1,0.3-0.2,0.5-0.3c0.4-0.3,0.6-0.5,0.8-0.5c0.4,0,0.6,0.4,0.6,0.7c0.1,0.2-0.1,0.6-0.3,0.8c-1.7,1.9-4.7,2.9-8.3,2.9     c-9.4,0-12.9-7.3-12.9-12.3c0-4.2,1.6-8,4.4-10.7c2.9-2.7,7-4.2,11.7-4.2c4.9,0,9,1.7,11.9,5c2.7,3.1,4.1,7.4,4.1,12.3v0.1h0     c0,7.8-2.9,15.1-8.7,21.6c-5.8,6.6-12.6,10.2-14.5,11.1C264.7,640.1,264.4,640.3,263.8,640.3z"
   class="st4" />
			<path
   style="fill:#bbbcbc;fill-opacity:1"
   id="path8957"
   d="M319.3,638.8h-24.6c-0.5,0-0.9-0.5-0.9-1c0-0.4,0.4-1,1.2-1.7c0.7-0.6,1.4-1.3,2.2-1.9     c8.6-7.5,19.2-16.9,19.2-29.2c0-4.4-1.1-7.7-3.1-9.7c-2.1-2.1-4.5-2.3-5.5-2.3c-2.9,0-4.8,0.7-6.5,2.3c-1.5,1.5-2.7,4.5-2.7,6     c0,0.5-0.1,0.9-0.2,1.1c-0.1,0.2-0.4,0.2-0.6,0.2c-0.3,0-0.6-0.4-0.7-1.3c0-0.1,0-0.4,0-0.7c-0.1-1.6-0.3-5.4-0.3-7     c0-0.5,0.1-0.8,0.7-1.3c3.1-1.6,6.8-2.4,11.4-2.4c9.9,0,15.9,5.1,15.9,13.6c0,12.3-13.5,23.1-21.6,29.6l-0.1,0.1     c-0.1,0.1-0.2,0.2-0.2,0.2c0,0.1,0.1,0.1,0.2,0.1h4.3c1.3,0,8.6-0.1,10.8-0.4c3.9-0.5,6.2-2.3,7.1-5.6c0.1-0.7,0.4-1.1,0.8-1.1     c0.6,0,0.6,0.8,0.6,1.3c0,1-1.2,6.9-1.8,9.1C324.4,638.6,323.3,638.8,319.3,638.8z"
   class="st4" />
			<path
   style="fill:#bbbcbc;fill-opacity:1"
   id="path8959"
   d="M340.9,639.8c-0.8,0-1-0.1-1-0.8c0-0.8,0.1-1.7,0.4-2.6c1-3.3,3.6-9.8,6.7-16.6c3.8-8.3,7.9-16.4,11.8-22.9     h-16.1c-1.5,0-4.3,0.2-5.9,1.2c-1.1,0.7-1.9,2.8-2.1,3.8c0,0.6-0.3,0.9-0.7,0.9c-0.5,0-0.6-0.4-0.6-1c0-1.6,0.4-5.4,0.7-8     c0.1-1.2,0.2-2.2,0.2-2.4c0-0.7,0.3-1,0.8-1c0.1,0,0.2,0,0.3,0.1c0.7,0.1,2.7,0.5,8.2,0.5h20.1c1.1,0,1.6,0.2,1.6,0.6     c0,0.4-0.2,0.9-0.4,1.2c-5.2,7.6-15.1,32.8-16,40.9c-0.1,0.7-0.1,1.1,0,1.6c0,0.2,0,0.5,0,0.8     C348.8,637.3,343.6,639.8,340.9,639.8z"
   class="st4" />
		</g>
		<g
   id="g8967">
			<path
   d="M120.6,490.6c0,1.3,0.2,1.8,1,2.1c2.5,0.9,6.1,1.3,9,1.3     c4.7,0,6.2-0.5,8.4-2.1c3.5-2.5,7-8,7-17.7c0-16.7-11.1-21.6-18.1-21.6c-3,0-5.1,0.1-6.3,0.5c-0.8,0.2-1,0.7-1,1.6     C120.6,454.7,120.6,490.6,120.6,490.6z M106.7,481.3c0-17.9,0-21.2-0.2-25c-0.2-4-1.2-5.9-5.1-6.8c-0.9-0.2-2.9-0.3-4.6-0.3     c-1.3,0-2-0.2-2-1.1c0-0.8,0.8-1,2.6-1c6.2,0,13.7,0.4,16.2,0.4c4,0,13-0.4,16.6-0.4c7.5,0,15.4,0.7,21.7,5     c3.4,2.3,8.1,8.3,8.1,16.2c0,8.8-3.7,16.8-15.6,26.5c10.5,13.2,18.7,23.7,25.6,31c6.6,6.9,11.5,7.7,13.3,8.1     c1.2,0.2,2.3,0.3,3.2,0.3c1,0,1.5,0.4,1.5,0.9c0,1-0.8,1.2-2.3,1.2h-11.2c-6.6,0-9.5-0.5-12.6-2.2c-5.1-2.7-9.6-8.3-16.2-17.4     c-4.7-6.5-10.2-14.5-11.7-16.2c-0.6-0.8-1.3-0.9-2.1-0.9l-10.3-0.2c-0.6,0-0.9,0.2-0.9,0.9l0,1.7c0,11,0,20.3,0.5,25.2     c0.4,3.5,1.1,6.1,4.7,6.5c1.7,0.3,4.3,0.5,5.8,0.5c0.9,0,1.4,0.4,1.4,0.9c0,0.9-0.9,1.2-2.4,1.2c-6.9,0-15.6-0.3-17.3-0.3     c-2.3,0-9.8,0.3-14.5,0.3c-1.5,0-2.3-0.3-2.3-1.2c0-0.5,0.4-0.9,1.9-0.9c1.7,0,3.1-0.2,4.2-0.5c2.4-0.4,3-3,3.4-6.5     c0.6-4.9,0.6-14.2,0.6-25.1L106.7,481.3L106.7,481.3L106.7,481.3z"
   class="st5"
   inkscape:connector-curvature="0"
   id="path3972" />
			<path
   d="M262.9,494c0-26.5-15.2-42.9-34.5-42.9     c-13.7,0-29.1,7.6-29.1,37c0,24.6,13.6,44,36.2,44C243.8,532.1,263,528.2,262.9,494L262.9,494z M183,491.8     c0-20.2,13.3-46.3,48.8-46.3c29.4,0,47.7,17.1,47.7,44.1c0,27.1-18.9,48.4-48.9,48.4C196.6,538,183,512.7,183,491.8z"
   class="st5"
   inkscape:connector-curvature="0"
   id="path3980" />
			<path
   d="M297.9,448.6c0.3-2.1,1-3.1,2-3.1c0.9,0,1.6,0.5,3.2,3.6     l32.2,65.7l32.1-66.5c0.9-1.9,1.5-2.8,2.6-2.8c1.1,0,1.8,1.1,2.1,3.6l10.8,72.3c1.1,7.4,2.2,10.9,5.8,11.9     c3.4,1.1,5.8,1.2,7.3,1.2c1.1,0,1.9,0.1,1.9,0.8c0,1-1.4,1.3-3.1,1.3c-2.9,0-19.2-0.2-23.9-0.6c-2.8-0.2-3.5-0.6-3.5-1.2     c0-0.6,0.5-1,1.3-1.4c0.7-0.2,1.1-1.7,0.6-5l-7.1-51.4h-0.5L336,529.7c-2.7,5.5-3.3,6.6-4.4,6.6c-1,0-2.2-2.4-4.1-5.9     c-2.8-5.4-12.1-23.5-13.6-26.8c-1-2.5-8.1-16.4-12.2-25.3h-0.5l-6.1,46c-0.2,2.2-0.3,3.7-0.3,5.6c0,2.2,1.5,3.3,3.5,3.8     c2.2,0.5,3.8,0.6,5,0.6c0.9,0,1.8,0.2,1.8,0.8c0,1.1-1.1,1.3-2.9,1.3c-4.9,0-10.3-0.4-12.4-0.4c-2.2,0-7.9,0.4-11.7,0.4     c-1.1,0-2.1-0.2-2.1-1.3c0-0.6,0.7-0.8,1.9-0.8c0.9,0,1.8,0,3.5-0.4c3.3-0.7,4.3-5.3,4.9-9.3L297.9,448.6L297.9,448.6z"
   class="st5"
   inkscape:connector-curvature="0"
   id="path3990" />
			<path
   d="M451.4,500.3c0.6,0,0.7-0.3,0.6-0.7l-10.6-29     c-0.1-0.5-0.2-1.1-0.6-1.1c-0.4,0-0.6,0.6-0.7,1.1l-10.8,28.9c-0.1,0.5-0.1,0.8,0.4,0.8C429.6,500.3,451.4,500.3,451.4,500.3z      M427.3,506.2c-0.6,0-0.9,0.3-1.1,1l-6.4,16.2c-1.2,2.9-1.8,5.7-1.8,7.2c0,2.1,1.1,3.6,4.7,3.6h1.8c1.4,0,1.8,0.3,1.8,1     c0,0.9-0.7,1.1-2,1.1c-3.8,0-8.8-0.3-12.5-0.3c-1.3,0-7.8,0.3-14,0.3c-1.5,0-2.2-0.2-2.2-1.1c0-0.7,0.5-1,1.4-1     c1.1,0,2.7-0.1,3.7-0.2c5.4-0.7,7.6-4.7,10-10.6l29.6-73.3c1.4-3.4,2.2-4.6,3.3-4.6c1.1,0,1.9,1,3,3.7     c2.9,6.5,21.7,53.7,29.3,71.7c4.5,10.6,7.9,12.2,10.4,12.8c1.8,0.4,3.5,0.5,5,0.5c0.9,0,1.5,0.1,1.5,1c0,0.9-1.1,1.1-5.4,1.1     c-4.3,0-12.9,0-22.3-0.2c-2.2-0.1-3.6-0.1-3.6-0.9c0-0.7,0.4-1,1.6-1.1c0.9-0.2,1.7-1.3,1.1-2.7l-9.4-24.3     c-0.3-0.6-0.6-0.9-1.2-0.9L427.3,506.2L427.3,506.2z"
   class="st5"
   inkscape:connector-curvature="0"
   id="path3995" />
		</g>
		<g
   id="g8973">
			<path
   style="fill:#ffb500;fill-opacity:1"
   d="M120.6,488c0,1.4,0.2,1.8,1,2.2c2.5,0.8,6.1,1.2,9,1.2     c4.7,0,6.2-0.5,8.4-2c3.5-2.7,7-8.1,7-17.8c0-16.7-11.1-21.6-18.1-21.6c-3,0-5.1,0.1-6.3,0.5c-0.8,0.2-1,0.7-1,1.6L120.6,488     L120.6,488z M106.7,478.7c0-17.9,0-21.2-0.2-25c-0.2-4-1.2-5.9-5.1-6.8c-0.9-0.2-2.9-0.3-4.6-0.3c-1.3,0-2-0.2-2-1.1     c0-0.8,0.8-1,2.6-1c6.2,0,13.7,0.3,16.2,0.3c4,0,13-0.3,16.6-0.3c7.5,0,15.4,0.7,21.7,5c3.4,2.3,8.1,8.3,8.1,16.2     c0,8.8-3.7,16.8-15.6,26.5c10.5,13.2,18.7,23.7,25.6,31c6.6,6.9,11.5,7.7,13.3,8.1c1.2,0.2,2.3,0.3,3.2,0.3c1,0,1.5,0.4,1.5,0.9     c0,1-0.8,1.2-2.3,1.2h-11.2c-6.6,0-9.5-0.6-12.6-2.2c-5.1-2.7-9.6-8.3-16.2-17.4c-4.7-6.4-10.2-14.5-11.7-16.2     c-0.6-0.8-1.3-0.9-2.1-0.9l-10.3-0.2c-0.6,0-0.9,0.2-0.9,0.9l0,1.7c0,11,0,20.3,0.5,25.2c0.4,3.5,1.1,6.1,4.7,6.5     c1.7,0.3,4.3,0.5,5.8,0.5c0.9,0,1.4,0.4,1.4,0.9c0,0.9-0.9,1.2-2.4,1.2c-6.9,0-15.6-0.3-17.3-0.3c-2.3,0-9.8,0.3-14.5,0.3     c-1.5,0-2.3-0.3-2.3-1.2c0-0.5,0.4-0.9,1.9-0.9c1.7,0,3.1-0.2,4.2-0.5c2.4-0.4,3-3,3.4-6.5c0.6-4.9,0.6-14.2,0.6-25.1     L106.7,478.7L106.7,478.7z"
   class="st1"
   inkscape:connector-curvature="0"
   id="path4000" />
			<path
   style="fill:#ffb500;fill-opacity:1"
   d="M262.9,491.4c0-26.5-15.2-42.9-34.5-42.9     c-13.7,0-29.1,7.6-29.1,37c0,24.6,13.6,44,36.2,44C243.8,529.5,263,525.5,262.9,491.4L262.9,491.4z M183,489.2     c0-20.2,13.3-46.3,48.8-46.3c29.4,0,47.7,17.1,47.7,44.1c0,27.1-18.9,48.4-48.9,48.4C196.6,535.4,183,510.1,183,489.2z"
   class="st1"
   inkscape:connector-curvature="0"
   id="path4005" />
			<path
   style="fill:#ffb500;fill-opacity:1"
   d="M297.9,445.8c0.3-2,1-3,2-3c0.9,0,1.6,0.6,3.2,3.6     l32.2,65.7l32.1-66.5c0.9-1.9,1.5-2.8,2.6-2.8c1.1,0,1.8,1.2,2.1,3.6l10.8,72.3c1.1,7.4,2.2,10.9,5.8,12c3.4,1,5.8,1.1,7.3,1.1     c1.1,0,1.9,0.1,1.9,0.8c0,1-1.4,1.3-3.1,1.3c-3,0-19.2-0.2-23.9-0.5c-2.8-0.3-3.5-0.6-3.5-1.3c0-0.6,0.5-1,1.3-1.3     c0.7-0.3,1.1-1.8,0.6-5.1l-7.1-51.4h-0.5L336,527c-2.7,5.5-3.3,6.6-4.4,6.6c-1,0-2.2-2.4-4.1-5.9c-2.8-5.4-12.1-23.5-13.6-26.8     c-1-2.5-8.1-16.4-12.2-25.3h-0.5l-6.1,46.1c-0.2,2.1-0.3,3.6-0.3,5.5c0,2.2,1.5,3.3,3.5,3.8c2.2,0.5,3.8,0.6,5,0.6     c0.9,0,1.8,0.2,1.8,0.8c0,1.1-1.1,1.3-2.9,1.3c-4.9,0-10.3-0.3-12.4-0.3c-2.2,0-7.9,0.3-11.7,0.3c-1.1,0-2.1-0.2-2.1-1.3     c0-0.6,0.7-0.8,1.9-0.8c0.9,0,1.8,0,3.5-0.4c3.3-0.7,4.3-5.3,4.9-9.3L297.9,445.8z"
   class="st1"
   inkscape:connector-curvature="0"
   id="path4010" />
			<path
   style="fill:#ffb500;fill-opacity:1"
   d="M451.4,497.7c0.6,0,0.7-0.3,0.6-0.7l-10.6-29     c-0.1-0.5-0.2-1.1-0.6-1.1c-0.4,0-0.6,0.6-0.7,1.1l-10.8,28.9c-0.1,0.5-0.1,0.8,0.4,0.8C429.6,497.7,451.4,497.7,451.4,497.7z      M427.3,503.6c-0.6,0-0.9,0.3-1.1,0.9l-6.4,16.3c-1.2,2.9-1.8,5.7-1.8,7.2c0,2.1,1.1,3.6,4.7,3.6h1.8c1.4,0,1.8,0.3,1.8,1     c0,0.9-0.7,1.1-2,1.1c-3.8,0-8.8-0.3-12.5-0.3c-1.3,0-7.8,0.3-14,0.3c-1.5,0-2.2-0.2-2.2-1.1c0-0.7,0.5-1,1.4-1     c1.1,0,2.7-0.1,3.7-0.2c5.4-0.7,7.6-4.7,10-10.6l29.6-73.3c1.4-3.4,2.2-4.7,3.3-4.7c1.1,0,1.9,1.1,3,3.8     c2.9,6.5,21.7,53.7,29.3,71.7c4.5,10.6,7.9,12.2,10.4,12.8c1.8,0.4,3.5,0.5,5,0.5c0.9,0,1.5,0.1,1.5,1c0,0.9-1.1,1.1-5.4,1.1     c-4.3,0-12.9,0-22.3-0.2c-2.2-0.1-3.6-0.1-3.6-0.9c0-0.7,0.4-1,1.6-1.1c0.9-0.2,1.7-1.3,1.1-2.7l-9.4-24.3     c-0.3-0.6-0.6-0.9-1.2-0.9L427.3,503.6L427.3,503.6z"
   class="st1"
   inkscape:connector-curvature="0"
   id="path4015" />
		</g>
		<path
   style="fill:#101820;fill-opacity:1"
   id="path8975"
   d="M562.4,386.1H25.2c-2.2,0-4-1.8-4-4c0-2.2,1.8-4,4-4h537.2c2.2,0,4,1.8,4,4    C566.4,384.3,564.6,386.1,562.4,386.1z"
   class="st0" />
		<g
   id="g9050">
			<path
   style="fill:#101820;fill-opacity:1"
   d="M85.5,238.6c-2.3,1.5-3.2-2.6-3.2-2.6     c-0.7-1.6-0.7-3.3,0.2-3.9c1.8,1,3.8,1,4.5,2C87.7,235.3,86.7,237.9,85.5,238.6L85.5,238.6z M512,336c-1.5-1.9-3.1-3.8-4.8-5.9     c-7.6-9.2-24.5-31.9-24.5-31.9c0-73.7-13.2-87.4-26.8-99c-11.9-10.2-31-15.4-51.5-18.6c-5.6-0.9-11.7-1.2-18.8-1.2     c-6.8,0-13.7,0.3-20.3,0.7c-5.5,0.3-101.6,4.3-132.5-0.9c-13.4-2.2-32.1,0.4-43.1,1.7c-5.1,0.6-32.9,5-36.1-0.2     c-0.7-1-0.6-3.2-0.3-5.6c0.3-3.9,1.9-8.6-1.1-12.8c-4.2-5.8-8.7-12-11.2-12c-0.8,0-7.6,5.6-9.3,7.3c-2.8,2.8-3.7,7.4-3.6,12.8     c0.1,3.3-0.1,2.7-0.4,2.9c-0.4,0.4-18.1,0.4-22.5,0.8c0-0.9-0.2-5.5-3.2-9.9c-1.9-2.8-3.6-12.1-3.6-12.1c0,0-6.4,11.1-8.5,14     c-2.4,3.3-4.9,6.7-6.4,10.6c-0.5,1.5-0.6,3.3-0.8,5c0,1.3-0.2,3.9-0.7,4.3c-3.4,2.5-5.3,5.9-5.6,10.2c-0.1,1.2,0.3,2.9,0.6,4.8     c0.3,1.3,0.7,3.2,0.7,4.1c-0.4,0.3-0.7,0.5-1,0.7c-3.1,1.9-7.2,4.7-6.9,9.4c0.4,7.2,2,10,4.3,13.9c0.6,1.1,1.3,2.2,2,3.6     c1,1.9,1.5,4.7,1.9,7.4c0.6,3.7-2.9,7.8-0.5,10.1c3.1,3.1,11.2,3.3,14.8,3.3c0.9,0,4.6-0.1,5.5-0.1c1.3,0,2.4,0.1,3.3,0.2     c6.8,1.4,13.5,1.9,20.1,2.5c9,0.6,17.5,1.3,26.1,3.9c15.8,4.6,31.4,11.1,47.6,19.8c0.9,0.4,1.7,0.9,2.5,1.3     c6,3.1,7.3,2.7,10.1,10.9c2.9,8.3-2.3,73-3.5,79.7c-1.8,10.8-5.3,17.3-10.9,19.4c-7.5,2.7-10.6,8.6-13.5,14.3c-1,1.8-0.8,4-2,5.9     c0,0-2.4,2.7-1.6,3.3c0.8,0.7,8.4-1.1,8.4-1.1c2.6,0.2-0.2,1.5,2.4,1.5c6.4,0,14.2,0,22.1-4.5c3.3,0,1.1,4.2,4.1,3.6     c9.5-1.7,10.3-9,11.5-15.9c1.9-11.7,1.6-13.7,2.9-14.8c1.3-1.1,5.5,0.7,6.6-0.5c0.9-1,0-9.5,0.4-17.2c0.7-11,3.7-23.8,7-34.4     l0.2-0.6c0.7-2.3,1.8-5.1,2.9-8.1c3.1-8.1,6.8-17.9,6.4-25.8c3.4,0.6,3.9,0.8,5.8,3.5c0.3,0.4,0.8,1.2,1.4,2.1     c3.7,6.1,5.6,7.8,8.1,7.8c0.2,0,0.5,0,0.7-0.1c4-1,6.2-4.4,8.4-8.9c2.3-4.4,4.6-8.9,8.4-9.8c0.1,0,0.3,0,0.5,0     c3,0,8.4,2.7,11.5,7.5c6.7,10.4,12.5,3.1,13,2.2c0.8-1.2,6.2-10.1,7.6-12.2c1.6-2.5,2.6-2.7,3-2.7h0.1     c3.3,0.5,17.7,17.7,22.8,16.6c4.9-0.6,10.4-19.5,13.5-19.5c0.1,0,0.3,0,0.4,0.1c0.8,0.6,2.5,3.2,3.6,4.9c3.8,5.8,4.7,9.6,7.7,9.6     c1,0,2.6-0.8,3.6-3.3c0.3-0.7,1.5-3.5,1.6-3.9c0.2,0.3,2.8,8.9,9,1.2c-0.1-0.1-0.1-0.2-0.2-0.3c0,0.1,0,0.1,0,0.1c0,0,0,0,0-0.1     c0,0,0-0.1,0-0.1c0,0,0,0.1,0,0.1c0.9-2,12.4,9.4,17.9,13.8c5,4.6,9.2,8.7,9.5,9c11.9,10.5,26.6,23.7,29.4,37.9     c1.7,8.2,1.3,17.7-1,26.7c-0.5,1.9-1,3-1.5,3.3c-0.4,0.3-1.7,0.4-3.4,0.4c-0.7,0-1.5,0.1-2.4,0.2c-4.1,0.2-6.8,4.5-9.3,8.3     c-1.1,1.8-2.6,3.3-3.3,4.5c-0.8,1.4,0.4,3.5,1.2,4c0.7,0.4,8,2.1,10.2,2.1c0.6,0,1.3,0,1.7-0.2c1.6,0.6,3.5,0.9,5.6,0.9     c6.4,0,14.4-2.6,16.6-7c3.9-7.5,6.5-15.7,9-23.6c0.3-0.9,0.6-1.8,0.8-2.7c0.6-1.7,1.4-3.7,2.2-5.7c2.7-7.2,7.4-15,5.3-22.1     c-1.1-3.8-4.9-7.4-7.3-10.7c-2.1-2.8-10.2-13.4-12.7-17c7.6,7.3,28.5,18.1,33.8,30.7c1.9,4.5,0,23.1-0.3,28     c-0.2,2.4-0.3,4.8-0.4,7.2c-0.2,7.6-2.4,9-10.1,9.8c-6.6,0.6-9.7,10.4-11.3,15.7c-0.1,0.3-0.2,0.6-0.2,0.8l-0.8,2.5l2.6,0.4     c1,0.2,2,0.4,3.2,0.6c4.8,0.9,12.8,3.9,18.5,3.9c6.6,0,11.3-1.6,14.3-4.9c3.9-4.1,5.3-11.7,6.6-18.3c0.5-2.4,3.3-11.3,4.3-14.5     C516.4,355.4,522.6,347.6,512,336L512,336z"
   class="st0"
   inkscape:connector-curvature="0"
   id="path4038" />
			<path
   style="fill:#bbbcbc;fill-opacity:1"
   d="M480.9,394.6c-0.7,1.4-3.4,1.7-4.3,2     c-1.8,0.8-3.6,1.9-3.5,3.3c0,0.5-0.3,6.6,0,7.2c0.4,0.7,2.9,1.5,3.5,0.7c0.3-0.6-0.1-4.9,0.4-7.9c0.1-0.4,0.4-2.2,1.3-2.6     C478.6,397.2,481.6,395.9,480.9,394.6L480.9,394.6z"
   class="st4"
   inkscape:connector-curvature="0"
   id="path4051" />
			<path
   style="fill:#bbbcbc;fill-opacity:1"
   d="M266,286.9c2.3-0.2,5.5-0.8,6.6,0c1,0.8,2.6,3.6,2.5,5.3     c-0.1,1.7-5.7,10.8-6.1,11.2c-0.3,0.5-0.9,1.7-1.9,0.4c-1-1.4-2.8-15.3-2.8-15.3C264.3,288.5,264,287.1,266,286.9z"
   class="st4"
   inkscape:connector-curvature="0"
   id="path4064" />
			<path
   style="fill:#bbbcbc;fill-opacity:1"
   d="M509.6,340.6c-3.1-4.4-10.8-12.3-13.9-16.1     c-4.1-5-22.9-27.1-22.9-27.1c0,0-5.4-33.3-7.7-40.9c-1.4-4.8-5.5-40-32.7-59c1.5-2.5,19.1,11.3,25.4,22.1     c11.6,19.5,16.5,70.5,16.5,70.5c0,0,7.4-77.9-33.8-94.3c-29.6-12.4-44.3-10.4-44.3-10.4c0,0-20.5,12.3-8.2,35.6     c2.4,4.6,29.3,45.8,31.1,49.1c15.3,28.7,63.9,62.1,72.8,71.2c0.5,0.5,8.8,6,9.4,12.1c0.1,1.1-11.4-6.6-11.2-5.2     c1.6,14.4-0.1,42-0.4,45.2c-0.2,3.6-0.4,4.2-2.7,5c-2.2,0.7-4.5-1.4-5.8,2.4c-1.5,4.2-1,7.3,2.9,7.3c3.9,0,9.7,2,13.4-12.1     c3.8-14.4,11.9-39.8,14.3-49.2C512.5,344.6,510.7,342.2,509.6,340.6L509.6,340.6z"
   class="st4"
   inkscape:connector-curvature="0"
   id="path4074" />
			<path
   style="fill:#bbbcbc;fill-opacity:1"
   d="M98,164.7c0,0,3.2,9.5,3.2,12.1c-0.1,2.8-0.9,3-0.9,3     l-9.6,4.1c0,0,2.1-2.4,3.2-5.4C95,175.4,98.1,167.5,98,164.7z"
   class="st4"
   inkscape:connector-curvature="0"
   id="path4079" />
			<path
   d="M212.6,404.4c-0.2,0.1-0.4,0.1-0.5,0l-0.6-0.8     c-0.1-0.1,0-0.3,0.2-0.5l0.5-0.3c0.2-0.2,0.5-0.2,0.5-0.1l0.6,0.9c0.1,0.1,0,0.3-0.2,0.5L212.6,404.4L212.6,404.4L212.6,404.4z"
   class="st4"
   inkscape:connector-curvature="0"
   id="path4084" />
			<path
   style="fill:#bbbcbc;fill-opacity:1"
   d="M434.4,389.1c0,0-1.2-0.4-1.9,0.5c-0.9,1.2-1.3,5.8-1.3,5.8     s1.1,1.4,3.2,0.6c2-0.8,6.2-3.9,4.9-4.9C437.9,390.1,434.4,389.1,434.4,389.1L434.4,389.1z"
   class="st4"
   inkscape:connector-curvature="0"
   id="path4092" />
			<path
   style="fill:#bbbcbc;fill-opacity:1"
   d="M430.7,386.8c0,0-1.8,0-2.7,1c-0.9,1-2.5,3.7-2.4,4.8     c0.1,1.1,1.7,2.9,2.5,1.8C429,393.3,432.8,386.7,430.7,386.8L430.7,386.8z"
   class="st4"
   inkscape:connector-curvature="0"
   id="path4102" />
			<path
   style="fill:#bbbcbc;fill-opacity:1"
   d="M78.4,213.7c-2.2,3.4,4,6.3,5.6,4.5     C85.2,213.6,80.5,211.9,78.4,213.7L78.4,213.7z"
   class="st4"
   inkscape:connector-curvature="0"
   id="path4107" />
			<path
   d="M86.6,215.3C86.6,215.3,86.6,215.3,86.6,215.3     C86.6,215.3,86.6,215.3,86.6,215.3L86.6,215.3z"
   class="st4"
   inkscape:connector-curvature="0"
   id="path4112" />
			<path
   style="fill:#bbbcbc;fill-opacity:1"
   d="M128.5,219.7c-3.1-3.8-5.5-10-3.4-11.2     c2.1-1.1,4.1,0.5,5.3,1.2c1.9,1,2.8,0.4,2.7-2.1c-0.1-2-0.3-3.8-0.5-5.6c-0.6-5.3-3.4-11.2-5.6-13.5c-3.7-3.9-14-8.4-20.5-4     c-1.9,1.3-3.3,3.3-4.5,5.8c-0.5,0.9,0.8,2.1,0.4,3.1c-2.4,5.8-6,12.5-10.2,16.8c-0.2,0.3,14.4,1.5,35,16.6     c1.8,1.3-1.7,8.7-2.9,8.3c-0.6-0.1,2.1-6.2,0.1-7.3c-9.5-5.3-15.1-6-22.2-8.6c-1.7-0.5-6.6,2.6-7.9,1.4c-1.8-2.3-7.2-4.9-7.7-5.2     c0.2,0.1,0.9,0.6,1.1,2.9c0.7,5.8-10.2,0-1,9.3c2.6,2.6,5.1,4.6,7,3.8c3-0.1,1.6,0.3,1.9,1l1.6,3.8c0.3,0.7,0.6,0.6,0.8-0.1     l0.7-4c0.1-0.7,0.9-1.3,1.6-1.3c0,0,14,0.3,16.8,0.6c2.8,0.3,3,1.3,3,1.3c0.1,0.8,1.2,2.4-1.1,4.3c-1.7,1.4-5.9-1.5-9.2,1.2     c-3.3,2.6-9.9,3.8-9.9,3.8c-0.8,0.2-1.6-0.2-1.9-1l-1.7-3.7c-0.3-0.7-0.6-0.7-0.6,0.1l-0.4,4.9c-0.1,0.7-0.4,1.4-0.5,1.4     c-0.2,0-0.7-0.5-1-1.2l-0.1-0.3c-0.3-0.7-1-0.7-1.5-0.2l-0.9,1c-0.5,0.6-1.2,0.5-1.6-0.2l-0.3-0.5c-0.4-0.6-1-0.6-1.5,0l-0.5,0.9     c-0.4,0.6-0.9,0.5-1.1-0.2l-0.2-0.5c-0.2-0.7-0.7-0.7-1-0.1c-0.2,0.5-0.6,0.6-0.8,0.3c-0.5,0.5-0.8,0.8-1,1     c-0.4,0.4-1.3,1.2-1.4,2c0,0.8,1,1.3,5.8,2.3c4.8,0.9,27.2-8.2,34.2-6.7c8.2,1.7,11.3-5,11.9-13.7c0-0.2-0.1-0.7-0.2-1.4     c-1.4-2.3-3.5-4.6-5.1-6.6L128.5,219.7L128.5,219.7z"
   class="st4"
   inkscape:connector-curvature="0"
   id="path4120" />
			<path
   d="M106.6,193.4c0,0,2.8-4.9,6.2-5.9c2.6-0.7,5.2,0.8,9.2,3.4     c3.9,2.6,6,6.8,9.9,5.7c1.3-0.4-3,4.4-6.8,3.1c-0.9-0.4-6.6-9.8-12.1-9.7C112.9,190,109.4,190.7,106.6,193.4z"
   class="st0"
   inkscape:connector-curvature="0"
   id="path4132" />
			<path
   d="M117.7,198.9c-0.8,0-1.5-0.9-1.5-1.9c0-1,0.7-1.9,1.5-1.9     c0.9,0,2,0.9,2,2C119.6,198.1,118.6,198.9,117.7,198.9L117.7,198.9z M116.7,188.8c-4.6-1.3-7.3,1.9-7.3,1.9     c1.2-3.1,6.7-1.2,9.1-0.2c1.4,0.6,3.2,3.7,4.6,6.2c-1.5-1.5-3.6-3.1-5.4-3.3c-3.5-0.3-3.8,4.4-3.8,4.4l-1.8,2.2     c0,0,0.3,0.5,3,0.5c2.7,0,12.1-0.1,13.3-1.2C129.7,198.2,121.8,190.3,116.7,188.8L116.7,188.8z"
   class="st0"
   inkscape:connector-curvature="0"
   id="path4140" />
			<path
   style="fill:#bbbcbc;fill-opacity:1"
   d="M189,400c0,0-3.5,7.2-3.6,8c-0.1,0.7,0.1,1.2,0.5,1.2     s1.7,0.3,2.6-0.3c0.9-0.6,4.3-7.7,4.7-8.7C193.3,399.9,190.5,398.3,189,400L189,400z"
   class="st4"
   inkscape:connector-curvature="0"
   id="path4150" />
			<path
   style="fill:#bbbcbc;fill-opacity:1"
   d="M466.8,347.3c1.8-6.4-4.2-7.1-6.2,1.1     c-0.7,2.9-9,32.8-9.8,40.6c-0.1,0.4,0.2,0.8,0.6,0.3C451.5,392,466,350.1,466.8,347.3L466.8,347.3z"
   class="st4"
   inkscape:connector-curvature="0"
   id="path4158" />
			<path
   d="M420.1,247.1c0,0.2-0.4,0.2-0.8,0.2l-3-0.5     c-0.4-0.1-0.7-0.3-0.7-0.5l0.1-0.4c0-0.2,0.4-0.2,0.8-0.2l3,0.5c0.4,0.1,0.8,0.3,0.6,0.5L420.1,247.1z"
   class="st4"
   inkscape:connector-curvature="0"
   id="path4168" />
			<path
   style="fill:#bbbcbc;fill-opacity:1"
   d="M419,248.3c0,0.1-0.2,0.2-0.5,0.2l-2-0.3     c-0.3-0.1-0.5-0.3-0.4-0.4l0-0.4c0-0.2,0.3-0.3,0.6-0.3l1.9,0.4c0.3,0,0.5,0.2,0.5,0.4L419,248.3z"
   class="st4"
   inkscape:connector-curvature="0"
   id="path4173" />
			<path
   style="fill:#bbbcbc;fill-opacity:1"
   d="M200.5,184.7c-14.4,2.8-34.7,4-45.7,2.5     c-8.7-1.2-9.1-6.6-7.5-11.3c-8.1,7.9-12.4,4.8-12.6,3.9c-0.3-1.3,3,0,5.1-2.2c2.2-2,3.4-9.6,1.8-13.2c-1.8-3.6,0.1-3,0.1-3     s4.5,0.5,6.5,5.8c1.2-5.3-6.2-12-8.6-10.5c-2.4,1.5-7.3,5.5-6.6,11.4c0.8,7.2,0.3,10.8-2,10.7c-15.8-0.7-33.5-2.8-43.3,7.4     c0,0,11.9-7.9,21.1-7c9.1,0.8,27.8,2.7,28.9,24.6c0,0-0.2,5,0.2,10.7c0.2,3.1-2.6,1.1-2.6,2.5c0.1,6.1,4.4,5.1,4.1,10.4     c-1.5,21.6-11.5,21.1-11.5,21.1c0,0,12,1.7,18-18.5c0,11.6-1.2,14.5-5.9,19c9.2,0.6,16.4-8.1,16.6-9.4c1.4,2.2,4,9.3,10.8,12.2     c-3.3-5.6-2.5-12.4-1.8-18.4c2.1,13.5,5.5,18.5,12.4,21.4c-2.8-2.8-8.5-8.9-6.8-19.8c1.4,9.3,12.3,17.6,12.3,17.6     c0,0-3.5-5.6-4.4-15.5c4.7,10.1,9.7,10.9,9.7,10.9c0,0-7.8-8.1-9.1-18.8c-0.2-0.1,5.5,7.3,10,7.3c-3.5-4.3-9-10.3-9.7-17.8     c3.6,4.5,6.1,7.5,10.1,7.9c-3.4-3.9-6.2-10.2-7.2-17.7c3.9,4.9,3.2,6.5,10.5,8.5c-2.8-2.8-4.8-10.4-3.4-14.1     c1.3,2.6,6.2,5.2,12,6c-1.9-1.2-4.9-8.5-4.5-11.3c2.6,1.3,8.3,3.2,12.8,2.6c-2.1-1.3-3.6-7.6-3-9.1c1.2,0.7,9.8,0.6,11.6,0     c-2.8-1.7-5.2-4.3-4.5-4.1c2,0.7,5.4-1,9.8-1.7c4.7-0.8,5.5-0.8,8.5-0.8C229.8,183.5,211.8,181.9,200.5,184.7L200.5,184.7z"
   class="st4"
   inkscape:connector-curvature="0"
   id="path4178" />
			<path
   style="fill:#bbbcbc;fill-opacity:1"
   d="M346.1,274.9c0,0-9.2-0.6-9.9,2.2     c-0.7,2.8,4.2,17.9,4.9,19.7c1.2,2.8,4.3-3.8,4.3-3.8c1-1.7,4.8-10.6,4.8-11.8C350.1,279.7,350.2,274.9,346.1,274.9L346.1,274.9z     "
   class="st4"
   inkscape:connector-curvature="0"
   id="path4183" />
			<path
   d="M390.6,292.9c-0.6,0.3-1.2,0.4-1.6,0.5     c0.4,0.2,0.9,0.3,1.3,0.3C390.2,293.5,390.4,293.2,390.6,292.9z"
   class="st4"
   inkscape:connector-curvature="0"
   id="path4188" />
			<path
   style="fill:#bbbcbc;fill-opacity:1"
   d="M309.9,276.3c0,0-9.3-0.6-10,2.2     c-0.7,2.9,3.3,16.1,3.9,17.9c0.9,2.7,2.9-1.4,2.9-1.4c1-1.8,8.3-11.2,8.4-12.4C315.1,281.2,314.1,276.3,309.9,276.3L309.9,276.3z     "
   class="st4"
   inkscape:connector-curvature="0"
   id="path4193" />
			<path
   style="fill:#bbbcbc;fill-opacity:1"
   d="M374.7,185c-2.9,0.1-27,2.9-43,2.9     c-12.9,0.1-26.4-0.6-33.7-0.3c-0.6-0.1-1.5,0-2.3,0.1c-10.8-0.5-45.2-1-45.2-1c-2.6-0.5-37.6,8.5-42.7,47.4     c-3.1,24-1.6,31.6,3.8,43c3.3,6.8,9.8,19.3,9.5,29.1c-0.1,4-7.3-17.1-7.2-14.7c1.1,24.6-3.2,80-5.7,91.8c-2.9,14-5.7,6.9-9,12.8     c-0.5,0.9-7.7,14-7.5,14.1c0.1,0.1,3.6-0.4,7.2-0.7c4.3-0.2,7.8-11.7,10.7-11.7c0.4,0-3.2,9.3-2.7,9.1c3-0.7,7.9-2,7.6,0.4     c1.1,0.4,2-0.2,2.6-1c0.9-1.1,4.9-19,7.4-28.3c0.5-1.5,4.5-0.7,5.6-0.2c2.2-4.4-1.3-19.1,5-39.4c6.2-20,12.7-37.4,9.8-42.5     c-0.3-0.6-10.9,13.4-11.2,12.9c-0.7-1.6,34.6-60.8,27.8-91.4c-0.2-1.1-0.7-2.4-0.7-3.3c0-0.2,4.1,1.5,9.2,2.9     c6.6,2,12.4,3.1,14.4,10.7c2.4,14.7,9.2,35.6,23.1,36.9c-6.3-5.8-14.4-35.2-13.4-47.2c3.9,19.7,15.9,48.2,25.8,46.9     c-2-3.2-10.3-21.2-10.3-32.4c3.6,9.3,12.1,29.9,18.5,30c16.8,0.3,21.1-7.3,33.5-10.1c27.9-6.3,35.2,4.4,39.4,6.6     c-3.4-3.3-15-23.6-22.7-39.4c-6.1-12.5,4.2-25,21.9-32.8C403.6,184.6,380.1,184.8,374.7,185L374.7,185L374.7,185z"
   class="st4"
   inkscape:connector-curvature="0"
   id="path4201" />
			<path
   d="M386.7,293.2c0,0-0.9-0.8-1.7-0.9c-0.3-0.1-0.4-0.1-0.6-0.1     c-0.3,0-0.5,0.1-0.5,0.1l-0.4,0.1l0.1-0.3c0.1-0.3,0.4-0.8,1.1-0.8c0.3,0,0.6,0.1,0.8,0.2c1.1,0.4,1.5,1.5,1.5,1.5l0.2,0.6     L386.7,293.2z"
   class="st0"
   inkscape:connector-curvature="0"
   id="path4213" />
			<path
   d="M378.7,291.7c0.1-0.3,0.4-0.8,1.1-0.8     c0.3,0,0.6,0.1,0.9,0.2c0.1,0.1,0.5,0.2,0.5,0.2l0.2,0.2l-0.8,0.5h-0.1c0,0-0.3-0.1-0.4-0.1c-0.2-0.1-0.4-0.1-0.6-0.1     c-0.4,0-0.5,0.1-0.5,0.1l-0.4,0.1L378.7,291.7L378.7,291.7z"
   class="st0"
   inkscape:connector-curvature="0"
   id="path4218" />
			<path
   d="M380.6,291.3c0.1,0,0.5,0.2,0.5,0.2l-0.5,0.3     c0,0-0.3-0.1-0.5-0.1c-0.8-0.2-1.2,0-1.2,0S379.2,290.8,380.6,291.3L380.6,291.3z"
   class="st0"
   inkscape:connector-curvature="0"
   id="path4226" />
			<path
   style="fill:#101820;fill-opacity:1"
   d="M395.8,398.4c-9.9,0-11.1-16-11.3-18.8     c-2.4-0.2-5-1.9-6.7-3.3c-0.1,0-0.3-0.1-0.5-0.2c0,1.2,0.1,2.4,0.1,3.5c0.1,1.9,0.5,6.7,0.6,8l0.1,0.1c0.2,1.8,0.7,6-3.5,8.3     c-1.2,0.7-2.6,1.1-4.1,1.1c-1.2,0-2.3-0.3-3.1-0.5c-0.2,0-0.3,0-0.5,0l-0.7-0.1c-1.1-0.2-2.5-0.3-3.6-0.4h-0.3     c-2.1,0-7.9,0.4-8.9,0.5c-0.2,0-0.4,0-0.6,0c-3.3,0-6-2.6-6-2.7c-1.7-1.6-1.8-4.2-0.4-6.3l0.4-0.5l0.6-0.5     c0.3-0.2,1.3-0.9,2.8-1.1c1.2-0.8,3.1-1.9,6-3.5c-2.5-5-13.7-22.2-4-27.6c3.7-1.9,9.2-3.9,14.5-5.2c0-0.3,0.1-0.6,0.2-0.9     c0.1-0.4,0.2-1.8,0-2.8c-1.5,0.8-3,1.2-4.3,1.2c-0.4,0-0.8,0-1.2-0.1c-3.4-0.7-7.7-5.6-8.2-6.3c-0.7-1-3.5-6.1-6.2-11     c-7.1-0.4-7.7-0.6-8.2-0.7c-0.8-0.3-1.6-0.5-6.2-4.4c-1.5-1.3-2.3-3.1-2.1-4.8c0.2-1.4,1.1-2.7,2.4-3.3c0.1-0.1,0.2-0.1,0.4-0.2     c0.6-0.8,1.5-1.6,3.2-2l0.5-0.1h0.6c1.1,0,2.1,0.4,3,0.9c0-0.5,0.2-1.1,0.4-1.6c0.9-1.7,2.7-2.7,4.7-2.7c1.2,0,2.4,0.3,3.8,1     l0.2,0.1l0.2,0.1c0.5,0.3,0.5,0.3,0.5,0.3c0.9,0.2,2.9,0.8,3.6,1.1c1.2,0.5,2.1,1.1,4.3,5l3.5,3.6c1.6-3.8,3.6-5.5,4.3-6.1     c1-0.9,2.3-1.3,3.6-1.7c0.2-0.1,0.6-0.2,0.9-0.2c0.5-0.5,1.1-0.9,1.8-1.3c0-0.2,0.1-0.4,0.1-0.6c-0.5-0.7-1.1-1.7-1.6-2.5     c-1.5-2.4-1.3-4.6-1.2-6l0-0.4c0.2-3.7,5-6.9,5-7c0.5-0.3,1.1-0.6,1.6-0.8c1-1.1,2.6-3,3.8-4c0.9-0.9,2.2-1.5,3.4-1.9     c1-2.1,3.2-3.2,6.5-3.2c1,0,4.4,0.3,5.5,0.4c2.5,0.4,4.1,2,4.9,3.8c2.1,0.7,3.5,2.6,3.7,5.2l0.8,0.8c0.5,0.5,1.7,1.9,2.1,4     c1.3,2.5,1,5.4,0.9,6.7c-0.1,4-1.1,6.4-2.2,7.8c-0.2,0.4-0.3,0.8-0.4,1.1c3.8,2.4,5,7.8,5.3,9.9c0.4,1.2,1.9,6.4,2.7,9.8     c1,4.9-0.7,9.4-0.8,10l-0.2,0.5l-0.3,0.4c-0.3,0.5-1.9,2.6-2.6,3.5c-1.3,1.5-2.7,2.2-3.9,2.4c0.4,1.7,0.8,3.5,1.1,5.1     c3.1,3.8,4.7,9.2,4.7,11c0,1.3-0.4,2.6-0.7,3.6h0c0.3,0.9,0.4,2.1,0.3,4.7c1.3,1.5,2.5,3.5,3.7,5.8c0.1,0.3,0.2,0.5,0.2,0.6     c5.9,12.8-8.8,13.7-9.7,13.4C403.1,398.2,396.9,398.4,395.8,398.4L395.8,398.4L395.8,398.4z"
   class="st0"
   inkscape:connector-curvature="0"
   id="path4239" />
			<path
   style="fill:#bbbcbc;fill-opacity:1"
   d="M394.9,290.4c-0.9-0.2-4.1-0.4-5-0.4c-4.3,0-2,2.2-2,2.2     c0,0-3.5,0.5-5,1.8c-1.4,1.3-4,4.4-4,4.4c0,0-1.2,0.4-1.9,0.9c-0.7,0.4-2.7,2-3,3.6c-0.3,1.2-0.4,2.6,0.5,4.1     c0.9,1.5,2.4,3.5,2.4,3.5c0,0,0.4,0.7,0,1.5c-0.4,0.9-1,3-1,3c0,0-2.1,1.1-2.7,1.8c-0.6,0.7-3.6,1.1-4.3,1.7     c-0.7,0.6-2.6,2.3-3.9,6.8c-1.5,1.3-2.3,3-2.3,3l-7.8-7.9c0,0-1-3.1-2.5-3.6c-0.5-0.2-3.9-1.4-4.7-1.7c-2.9-1.1-3.4-0.3-2.9,0.6     c0.6,0.7,2.4,1.6,2.9,1.8c0.4,0.3,0.6,3.4-6.7,2.2c-0.4-0.1-2.3-1.3-3.6-1.8c-3.1-1-2.5,2-1.9,2.6c0.7,0.5,3.8,3.8,4.6,4     c0.7,0.2,9.6,0.6,9.6,0.6c0,0,6.1,11.5,6.9,12.6c0.9,1.2,4.3,4.4,5.7,4.7c1.4,0.3,5.5-1.2,7.5-4.9l0.8,15.1c0,0-14,3.1-16.6,5.2     c-5.2,4.2,4.1,20,7.2,24.3c1,1.3,0.3,1.7,0.3,1.7c0,0-9.8,5.3-9.9,5.8c-0.9-0.3-1.7,0.3-1.7,0.3c0,0-0.5,0.6-0.2,1     c0.4,0.3,2,1.5,3.3,1.4c1.2-0.1,8.1-0.5,9.8-0.5c1.6,0.1,3.6,0.4,4.7,0.5c1,0.1,3.2,1,5,0c1.8-1,1.5-2.7,1.3-4.4     c-0.2-1.6-0.6-8.1-0.6-8.1c0,0-0.2-7.6-0.4-8.5c1.9,0.2,5,0.9,5.6,0.6c1-0.6,2,1.1,2,1.1s3.2,2.5,4.7,2.3     c1.4-0.3,1.7-0.4,2.4-2.6c0.5-0.7,1-0.5,1,1.5c0,2-1,20.3,7.7,20c5.4-0.2,9.2-2.8,9.2-2.8c0,0,1.6,2.1,3.6,1.3     c5.6-2,2.5-7,2.1-7.7c-0.5-0.8-3-6.3-4.6-6.4c0.1-2.4-0.3-5.9-0.7-6.8c0.3-0.5,1.2-2.6,1.2-3.5c0-1-1.6-6.2-4.5-9.3     c-0.7-4.8-3.1-12.2-3.1-12.2s3.2,1.2,4.2,1.3c1,0.1,1.8-0.3,2.4-1.1c0.7-0.8,2.5-3.2,2.5-3.2c0,0,1.5-3.8,0.6-7.6     c-0.8-3.7-2.6-9.9-2.6-9.9c0,0-0.9-5.9-3.8-7.3c-3-1.3-3.6-1.2-3.6-1.2c0,0-0.9-1.3-0.2-1.6c0.7-0.2,1.8-1.1,2.1-1.4     c0.4-0.4,0.9-2.5,0.9-2.5c0,0,1.7-0.9,1.7-5.9c0.1,0,0.6-3.4-0.7-5.1c0-1.5-1.1-2.4-1.1-2.4l-1.9-2.1c0,0,0.3-2.5-0.9-2.8     c-1.2-0.3-2-0.6-2-0.6C397,293.4,396.9,290.7,394.9,290.4L394.9,290.4z"
   class="st4"
   inkscape:connector-curvature="0"
   id="path4254" />
			<path
   d="M379.1,299.6c0.9-0.1,1.6,1.5,1.6,1.8     c0.1,0.3-0.1,0.3-0.6,0.2c-0.5,0-0.9-1-1.9-1c-1,0.1-1,0.8-1.3,0.7C376.6,301.3,378.2,299.6,379.1,299.6L379.1,299.6z"
   class="st0"
   inkscape:connector-curvature="0"
   id="path4267" />
			<path
   d="M386.5,297.1c1,0.3,1.4,1.3,1.4,1.3c0,0-1-0.8-1.9-0.9     c-0.8-0.2-1.2,0-1.2,0S385.1,296.5,386.5,297.1L386.5,297.1L386.5,297.1z"
   class="st0"
   inkscape:connector-curvature="0"
   id="path4280" />
			<path
   d="M396.4,305c-0.1-0.3-0.3-0.5-0.5-0.5h-0.2l-0.1,0.1     c-0.4,0.5-0.9,0.7-1.4,0.7c-0.7,0-1.2-0.4-1.2-0.4s-0.1,1.4,1.4,1.4c1.2,0,1.9-1,1.9-1L396.4,305L396.4,305     C396.4,305,396.4,305,396.4,305z"
   class="st0"
   inkscape:connector-curvature="0"
   id="path4292" />
			<path
   d="M388.2,327.5c0.4-0.5,1.7,0.7,2,0.4     c0.4-0.3-2.5-3.6-1.6-4.3c1.1-0.7,2.3,1.8,2.9,1.4c0.6-0.5,0.4-0.7,0.2-1.1c-0.1-0.2-1.3-2.5-1.3-2.5c-0.1-0.1-1.4-2.2-0.6-2.6     c0.9-0.3,1.9,1.2,2.1,1.4c0,0.1,1.7,3.1,2.4,2.8c0.7-0.4-1.2-4.9-1.2-4.9c-0.1-0.5-1-1.6-0.6-2c0.5-0.3,0.9-0.2,2.1,1.4     c0.1,0.1,3.2,5.8,3.6,5.6c0,0,0.1-1.2-0.4-2c0.6,0.5,1.8,0.8,1.7,1.6c0,0.4-0.1,2.8-0.5,3.4c-1.4,1.6-7.8,3.8-9.9,3.5     C389,329.4,387.7,328.1,388.2,327.5L388.2,327.5z M401,352.3l-0.9-4.1l-0.4-1.5l-7.5-14l-0.3-0.5c-0.3-0.2-0.5-0.5-1.1-1.1     c-0.2-0.2-0.1-0.4,0.2-0.4c2.6,0.4,7.2-0.9,8.2-1.3c0.3,0.4,7.6,8.9,8.1,8.6c0.6-0.4-7.3-10.8-7.3-10.9c0,0,0.7-4.3,0.5-4.8     c-0.3-1-2.4-2.5-3.3-2.5h-0.1c-0.1-0.3-0.3-0.5-0.4-0.6l-0.1-0.2c-0.6-1-1-1.7-1.3-2.2c1.4,0.5,2.9,0.9,3,1l0.8,0.1l0.9-1.2     l-6.1-2.1c-0.5-0.1-1.1-1.3-1.2-2.3c0-0.7,4.3-4.9,3.5-5.1c-1.7-0.6-5.6,3.6-5.7,4.9c-0.1,0.8,0.4,2.6,1.1,3.3     c-0.3,0.3-0.4,0.7-0.4,1.2c-7.6,0.5-10.4,3.2-10.7,4.6c0,0,6.1-2.4,8.2-2.7c-1.4,1.3,0.9,3.9,0.9,3.9c-0.3-0.1-1-0.6-1.8-0.1     c-1.4,1.2,0,3.5,0.3,4c-0.6,0-1,0.2-1.2,0.4c-0.7,0.9,0.7,2.6,1.7,3.8c0.5,0.5-1.7,0.4-8.1-4.4c0.2,4.6,7.9,7.4,10.3,7.4     C390.8,333.6,400.6,351.7,401,352.3C401,352.3,401,352.3,401,352.3z"
   class="st0"
   inkscape:connector-curvature="0"
   id="path4300" />
			<path
   d="M370.3,351.7l-1.1,0.7l-1.6,0.9c0.3,0.7,6.6,16,13,20.8     l0.2-0.5C372.3,362,370.4,351.7,370.3,351.7L370.3,351.7z"
   class="st0"
   inkscape:connector-curvature="0"
   id="path4315" />
			<path
   d="M394,359.5c-3.8,0.6-6.6,13.3-6.6,13.3c0.9-1.2,1,0.8,1,0.8     c0,0,3.1-10.8,5.7-11.9c2.8-1.1,6.8-0.6,6.8-0.6C400.9,361.1,397.8,358.9,394,359.5L394,359.5z"
   class="st0"
   inkscape:connector-curvature="0"
   id="path4325" />
			<path
   d="M364.4,339.5c0.4-0.3-1.1-12.4-1.1-12.4l-0.6,0.6l-0.9-0.6     C361.3,328.2,363.9,339.7,364.4,339.5L364.4,339.5z"
   class="st0"
   inkscape:connector-curvature="0"
   id="path4333" />
			<path
   d="M367.2,329.8l0.9,9.8l1.7-0.9l-0.5-7.2c0,0,0.9,0.4,1.2,0.1     c0.3-0.3-1.4-1.7-1.5-3.6c0-1.3,1.5-3,1.2-3.1c-0.3-0.2-0.8,0.3-0.8,0.3c0.1-1.2,0.2-2.5,0.3-3.3c0.1-1.2,1.7-3.6,1.7-3.6     c-3.5,1.2-4.2,5.2-4.2,5.2l-0.2,3.1c0,0.1-0.3,1-0.3,1.7S367.2,329.8,367.2,329.8L367.2,329.8L367.2,329.8z"
   class="st0"
   inkscape:connector-curvature="0"
   id="path4343" />
			<path
   d="M406.6,377.4c0,0-0.1,11.9-2.6,14.9h1.4     c0.5-0.4,1.5-4.2,1.9-5.7c0.4-1.6,0.3-8.2,0.3-8.2S406.6,377.4,406.6,377.4z"
   class="st0"
   inkscape:connector-curvature="0"
   id="path4348" />
			<path
   d="M363,361c-0.5,2.5,9.9,12.1,9.9,12.1l2.8-1.3     C375.8,371.8,366,364.6,363,361L363,361z"
   class="st0"
   inkscape:connector-curvature="0"
   id="path4356" />
			<path
   d="M391.4,294.8c0.1,0.2,0.1,1,0,1.6c0,0.1-0.3,1.3,1.3,2.1     c1,0.5,1.6,1.4,2.1,2c0,0.1,0.1,0.3,0.2,0.4c0.3,0.3,0.4,0.6,0.2,1.3c-0.1,0.4-0.3,0.6-0.4,0.8c-0.2,0.1-0.4,0.3-0.2,0.6l0,0.1     c0.1,0.4,0.3,1.2,1.1,1.5c0.2,0.1,0.6,0.7,0.1,2l-0.1,0.4c-0.5,1.4-0.1,4.7,0.7,4.5c0.9-0.2,0.7-3.1,0.9-3.5     c0.5-0.6,0.9-2.4,0.7-3.4c-0.1-0.3-0.2-0.6-0.4-0.7c-0.8-0.5-1-0.9-1-1c0,0,0.1-0.2,0.2-0.3c0.2-0.2,0.4-0.5,0.5-0.8     c0.3-0.6,0.1-1.5-0.2-2.1c-0.2-0.6-1.7-2.4-2.6-2.7c-0.7-0.3-1.1-0.7-1.1-1.1c0-0.2,0-0.5,0-0.8c0.1-0.6,0.2-1.3-0.1-1.6     c-2.5-3.5-6.2-3.1-6.2-3.1l-1.6,1.8C385.5,292.8,388.3,291.3,391.4,294.8C391.4,294.8,391.4,294.8,391.4,294.8z"
   class="st0"
   inkscape:connector-curvature="0"
   id="path4369" />
			<path
   d="M371.5,317.4c0.5,0.3,2.9,0.7,7.3,3.4     c0.6-1.1-4-3.6-6.1-4.3c-1.3,0-1.4,0.2-1.5,0.3C371.3,317,371.3,317.2,371.5,317.4L371.5,317.4z"
   class="st0"
   inkscape:connector-curvature="0"
   id="path4384" />
			<path
   style="fill:#101820;fill-opacity:1"
   d="M358.3,385.4c-3.9-5.3-12.3-5.5-15.1-2.9     c-0.2-0.1-0.3-0.2-0.4-0.3c-1.2-0.9-4.6-3-6.2-3.9c-2.6-2.7-3.7-3.4-4.2-3.7c-2.1-1.2-6.2-2.7-9.6-3.5c-0.7-7.3-1.3-9.1-1.7-9.8     c0.1-0.2,0.9-6.7,0.7-10.8c2.2,0.4,5.1,0.9,7.4,0.9c1.3,0,2.4-0.2,3.2-0.5c2.3-0.6,6-1.9,7.5-4.4l0.4-0.5l0.2-0.6     c0.1-0.5,1.2-5.3-1.7-9.9c-2-3.1-7.5-8.8-10.5-11.8c0.1-1.7,0.2-3.4,0.2-3.4c0.1-1.4-0.3-2.8-1.9-4.5c-0.5-0.5-4.2-4.7-5.2-5.3     c-1-0.6-2.6-1.1-4-1.1c-0.4,0-0.9,0.1-1.3,0.2c-3.6,0.8-3.3,6.3-3.1,6.8c-0.5-0.3-1-0.5-1.5-0.7c-1.2-1.4-3-2.2-4.8-2.5     c-1-0.7-2.3-1.4-4.1-1.4c-0.1,0-0.2,0-0.4,0c-2.3,0.1-2.4,0.4-3.5,1.3c-1.7,0.4-3.3,1.4-4.5,2.9c-1,0.5-2.2,1.5-3.2,3.2     c-1,0.9-2.2,2.3-3.1,4.8l-0.3,0.9c-0.8,2.1-1.8,4.5-1.1,7.1c0,0,0,0.1,0,0.2c-2,0.5-4.8,1.7-6.4,4.8c-0.7,1.4-1.4,3.2-2,4.8     c-0.9,0.1-11,1.3-10.8,6.1c0.1,1.5,0.8,3,2.2,3.9c-1,1.6-1,3.3-0.2,4.7c0.8,1.3,1.7,2.2,2.9,2.7c0.4,1.2,0.9,2.4,1.8,3.5     c1,1.3,2.1,2.2,3,2.9c-1.9,0.6-3.9,1.5-5.8,2.9c-2.8,1.9-7,6-3.4,12.5c0.6,1,2.4,3,11.2,11.7c-0.3,0.3-7.3,13.1,4.1,13.7     c2.6,4.3,11.5-1.9,11.8-2.1c0.7,0.1,12.6,0.2,9.4-9c0.9-0.1,5-1.3,5.2-1.3c1.3,0.6,4.3,1.8,6,1.9c0.8,0.1,2.1,0.2,3,0.2     c1.2,0,4.2-0.1,5.6-0.4c0.4,0,0.8-0.2,1.3-0.2c1.2,2,3.2,4.5,5.7,5.9c3,1.7,9.8,4.8,12.1,5.8c0.5,0.4,5.3,4.4,8.5,4.4     c10.1,0,7-9.2,7.1-9.7C359.6,399.5,361.1,389.2,358.3,385.4L358.3,385.4z"
   class="st0"
   inkscape:connector-curvature="0"
   id="path4397" />
			<path
   style="fill:#bbbcbc;fill-opacity:1"
   d="M322.8,336.7c-0.4-0.5-4.4-1.5-6-1.7     c-0.5-0.5-2.3-1.1-2.3-1.1c-0.1,0,2.4-1.8,2.4-3.1c-1.8-8.8-4.7-9.4-4.7-9.4c0,0-0.9-2-3.5-2.3c-0.4-1.9-4-2.2-4-2.2     c0,0-1-1.2-2.4-1.2c-1.1,0.1-1.4,0.6-2,1.2c0,0-2.2-0.3-3.6,2.2c0,0-1.8,0.4-2.8,2.9c0,0-1.3,0.3-2.5,3.3     c-0.8,2.1-1.7,4.2-1.3,5.7c0.4,1.5,1.7,3.1,1.7,3.1s-1.2,1-2.5,1.4c-1.3,0.4-4.5,0.7-5.8,3.3c-1.3,2.6-3,7.6-3,7.6     c0,0-0.8-0.5-1.7-0.6c-0.9-0.1-4.7,0.1-5.6,0.7c-0.5,0.3-2.1,0.5-2.1,1.2c0.1,1.8,3.1,1.2,3.1,1.2l-0.7,4c0,0-1.3,1.2-0.9,1.7     c0.3,0.6,0.9,0.8,1.3,0.7c0.5-0.1,1.3-1,1.3-1c0,0,0,3.8,1.7,6c1.7,2.2,3.7,3,3.7,3c0,0,1.3,0.5,2.4,0c1.2-0.5,3.3-2.2,3.5-2.8     c0.2-0.7,0.7-2.9,0.7-2.9c0,0,0.9-3.5,1.4-3.5c0.4-0.1,0.8,0.4,0.8,0.4l0,7.1c0,0-2.8,5.3-2.8,6.7c-1.5,0.1-7.9-0.6-13.4,3.4     c-4.5,3.1-2.9,5.9-2.1,7.4c0.8,1.5,14.6,14.8,15,15.3c-0.2,0.4,0.2,1-0.4,1h-1.5c0,0-2.1-0.8-2.5,0c-0.8,2,1.4,1.8,1.5,2.2     c0,0.3-1.8-0.3-2.1,0.8c-0.4,1.2,0,2.5,0.9,3.5c0.6,0.8,2,0.4,2.4,0.6c0.4,0.1,0.6,0.8,1.7,1.1c2.4,0.9,7.7-3.4,8.4-3.3     c2.6,1.3,5.7-1.1,5.8-2.6c0.2-1.4,0-2.2-0.5-3.3c-0.5-1.1-2.2-2.9-2.2-2.9c0,0,2-0.6,2.5-0.8c0,0,0.3-0.2,1,0.1     c0.7,0.3,3.7,0.9,4.6,0.8c0.9,0,4.4-1.6,4.9-1.3c0.5,0.2,3.9,1.7,5.1,1.8c1.3,0.1,6.1,0.1,7.5-0.2c1.3-0.2,4-1,4-1     c0,0,2.2,5.2,5.6,7.1c3.4,2,12.6,6,12.6,6c0,0,3.7,3.7,6.1,3.7c2.4,0,3-2,3-2.5s-0.1-3.1,0.4-4.5s0.9-5.5,1-7.5     c0.2-1.9,0.8-7.3-4.3-8.1c-0.9-0.1-2.7-0.4-3-0.4c-0.7,0-0.4,1.8-0.6,1.1c-0.3-0.8-1.2-1-1.5-0.9c-1,0.5-1.4,1.3-1.4,1.7     c0.1,0.8,0.4,3,0.4,3c0.1,0-4.2-3.4-5.3-4.4c-1.2-0.9-6.2-3.8-6.2-3.8c0,0-2.7-2.9-3.6-3.2c-0.4-0.6-7.6-3.8-11.4-3.8     c-0.1-2.9-0.3-9.8-1.9-13.1c0-0.9,1-10.5,0.4-13c-0.2-1.2,1.4-2,2.3-2c0.9,0,9.1,1.8,11.3,0.9c0,0,4.4-1.1,5.4-2.7     c0,0,0.8-3.6-1.3-6.8c-2.1-3.3-9.4-10.8-11.3-12.4c0.3-1.9,0.4-5.3,0.4-5.3c0,0,0-0.7-0.4-1.2c-0.6-0.5-3.9-4.3-4.4-4.7     c-0.3-0.4-1.8-0.9-2.5-0.7c-0.6,0.2-0.4,1.5,0,1.9c0.4,0.4,1.3,1.2,1.3,1.2l0.6,1.5c0,0-0.7,0.3-0.8,0.6c-0.1,0.3-0.1,2,0.1,2.4     c0.2,0.4,1,0.5,1,0.5c0,0-0.7,1.7-1.4,1.7c-0.7-0.9-1.7-3.6-2.6-2.7c-0.4,0.5-0.7,1.2-0.4,1.9c0.2,0.7,1.4,4.2,2,4.9     c0.6,0.6,1.1,0.9,1.1,0.9C318,328.2,322.6,335.4,322.8,336.7L322.8,336.7z"
   class="st4"
   inkscape:connector-curvature="0"
   id="path4410" />
			<path
   d="M278.7,371.4c6.6-0.7,18.6,19.8,19,20.2     c0.5,0.4,1.2-0.5,1.2-0.5C298.4,390.2,287.9,368.5,278.7,371.4z"
   class="st0"
   inkscape:connector-curvature="0"
   id="path4423" />
			<path
   d="M277.9,349.8c1.2-0.2,3.1-2.5,2.8-2.6     c-0.3-0.1-1.3,1.4-3.1,1.4c-0.5,0-1.2-0.1-2-0.3h-0.1c-0.2,0.4-1.8,0.6-1.8,0.6l0.2,1l1.5-0.4     C275.6,349.6,276.7,349.9,277.9,349.8L277.9,349.8z"
   class="st0"
   inkscape:connector-curvature="0"
   id="path4436" />
			<path
   d="M287.8,337.4c-1.4,0.2,0.2,18.9,0.2,18.9l1.4-1.8     c-0.2-1.1-0.3-6.6-0.3-7.4c0.5,0.4,6.9-1,8.3-3.4c0,0-4.5,0.8-5.6,0.6c-2-0.3-2.5-1.2-2.7-1.8     C289.2,342.3,288.4,337.4,287.8,337.4L287.8,337.4z"
   class="st0"
   inkscape:connector-curvature="0"
   id="path4449" />
			<path
   d="M287,367l-1.3,0.9c9.1,4.8,14.6,22.6,14.7,22.7l0,0.2l2.9,1     C303.3,391.8,296.4,371.2,287,367L287,367z"
   class="st0"
   inkscape:connector-curvature="0"
   id="path4462" />
			<path
   d="M308.4,390.8c0.4,0.6,2.5-0.5,2.5-0.5l0-0.2     c0,0-0.3-8.6,6.6-15.1C317.6,375,310,376.5,308.4,390.8z"
   class="st0"
   inkscape:connector-curvature="0"
   id="path4475" />
			<path
   d="M345.6,389.3l-1.7-1.2c0,0,0.9,3.9,0.8,5.6     c0,0.2-0.1,0.3-0.2,0.4c-0.1,0.1-0.1,0.1-0.2,0.2c-0.6,0.7-0.2,3.3-0.2,3.3c0,0,0.8-1.5,1.6-2.4c0,0,0.1-0.1,0.2-0.2     c0.3-0.3,0.4-0.6,0.2-2.1C346.1,392.4,345.7,389.3,345.6,389.3L345.6,389.3z"
   class="st0"
   inkscape:connector-curvature="0"
   id="path4488" />
			<path
   d="M318.5,337.2c-0.3,0.1-0.9,4.6-0.9,5.2c0,0.1-0.2,3-3.5,2.5     c-3.2-0.5-4.6-1.2-4.6-1.2c1.2,2.4,6.6,3.5,8,5.4c0.2,0.4,0.5,2.5,0.5,2.7h1.1v-3.7l1.1-0.3C319.7,339.9,318.8,337.2,318.5,337.2     L318.5,337.2z"
   class="st0"
   inkscape:connector-curvature="0"
   id="path4501" />
			<path
   d="M296.3,333.9c-2,0-4.9,0.3-5,0.3l-3.3,0.7l1,0.7     c0.1,0,4.3-0.9,7.2-0.9c0.4,0,0.8,0.1,1.1,0.2c2.5,0.5,5.4,1.5,5.5,1.1c0-0.4-3.5-1.7-5.2-2C297.3,333.9,296.8,333.9,296.3,333.9     L296.3,333.9z"
   class="st0"
   inkscape:connector-curvature="0"
   id="path4514" />
			<path
   d="M296.3,333.9c-2,0-4.9,0.3-5,0.3l-3.3,0.7l1,0.7     c0.1,0,4.3-0.9,7.2-0.9c0.4,0,0.8,0.1,1.1,0.2c2.5,0.5,5.4,1.5,5.5,1.1c0-0.4-3.5-1.7-5.2-2C297.3,333.9,296.8,333.9,296.3,333.9     L296.3,333.9z"
   class="st6"
   inkscape:connector-curvature="0"
   id="path4519" />
			<path
   d="M317.6,335.1l0.2-0.2l0.1-0.1l0.1-0.2l-0.1-0.2l-1.3-0.8     c-0.1,0-6.4,0-6.4,0c-1.6,0.1-6.5,2-6.2,2.4c0.3,0.3,3.9-1.1,6.3-1.5C312.9,334.2,317.4,335.1,317.6,335.1L317.6,335.1z"
   class="st0"
   inkscape:connector-curvature="0"
   id="path4527" />
			<path
   d="M312.5,323c1.3-1.3-1.2-2.8-1.2-3c0,0,1.7,2.2,0.3,1.6     c-1.2-1.9-5.8-3.2-5.9-3.4c-0.3-0.3,0.6-1.1,3.1,0.8c0.1-0.3-1.4-1.8-3.6-1.6c0-0.3-0.2-0.7-0.4-0.8c-0.1,0-0.1,0-0.1,0     c-0.1,0-0.2,0-0.2,0c0.2,0.2,0.5,0.8,0.2,0.8c-0.5,0.1-0.7-0.7-0.8-0.8c-0.2-0.4-1.3,0.1-0.7,0.6c0.2,0.2,0.5,0.3,0.7,0.4     c0.3,0.2,0.2,0.4-0.1,0.2c-0.3-0.1-0.7-0.2-1.2-0.2c-0.5,0-0.9,0.2-1.3,0.4c-0.2,0-0.4-0.1-0.2-0.3c0.2-0.1,0.5-0.2,0.7-0.3     c0.8-0.7-0.6-1.7-0.9-0.2c-0.2,0.3-0.3,0.4-0.5,0.5c-0.6,0,0.1-1,0-1c0,0,0,0.1-0.1,0.1c-0.2,0.2-0.4,0.4-0.5,0.7     c-0.2,0-2.7,0.1-3.1,1.5c1.9-1.4,2.9-1.3,2.8-0.7c-0.1,0.2-2.3,1.5-3.2,2.4c-0.8,0.5-1.8,1.8-2,1.8c-0.4,0.1-0.4-0.6,0-1.6     c-1.1,1.2-0.9,2.1-0.6,2.6c-0.6,1.4-0.5,3.2,0.3,4.6c0.7,1.2,4.8,4.7,5.2,4.5c0.3-0.2-4.3-4.3-4.7-6.1c-0.7-4.1,4.9-7.8,6.8-8     c0.1,0,0.3,0.5,1.3,0.4c1.3,0,1.5-0.4,1.5-0.4c1.4-0.2,8.3,2.4,7.6,7.5c-0.3,1.6-0.9,3.5-0.6,3.7c0.3,0.2,0.6-0.7,1.2-2.1     C313.2,326.2,313.2,324.4,312.5,323L312.5,323z"
   class="st0"
   inkscape:connector-curvature="0"
   id="path4540" />
			<path
   d="M330.5,345.8c-0.9-1-8.3-9.9-8.3-9.9c0-0.1-0.2-0.4-0.5-0.4     c-0.1,0-1.1,0.1-1.1,0.3c1.6,2.6,5.1,6.7,7.5,8.7C329.3,345.5,330.2,346,330.5,345.8L330.5,345.8z"
   class="st0"
   inkscape:connector-curvature="0"
   id="path4553" />
			<path
   d="M285.1,393.8c0.4,0.5,1,1.4,1,1.4c0,0,0.9-2.2,2.5-3.1     c1.5-0.8,4.2-2,5.4-2.1C289.5,388.9,285.3,392.2,285.1,393.8L285.1,393.8z"
   class="st0"
   inkscape:connector-curvature="0"
   id="path4563" />
			<path
   d="M282.9,357.7c0.8,0.1,1-0.7,1.1-1.6l0.1-0.2     c0,0,0.8-0.7,1.3-2.3c0.4,2.1,1.5,6.4,0.7,7.5l-1.2,1.2l1.3-0.7c0.5-0.2,1.3-1.1,1-2.6c-0.1-0.8-1.4-7.5-1.4-7.5l0-0.3     c-0.1-0.9-0.4-1.7-0.9-2.4c-0.8-1.1-2.1-1.7-3-1.8c0,0,3.5,2.4,3.1,4.8c-0.4,2.4-0.9,2.6-0.9,2.6l-0.5-0.5l0,1.3     c-0.1,0.7-0.3,1-0.8,1c-1.3,0-2.3,1.8-3.7,1.4c-1.4-0.4-2.1-1.5-2.9-2.2c-0.8-0.6,0.4-1.8,0.4-1.8c0,0-0.1-0.4-0.4-0.7     c-0.4-0.2-1,1.3-1,1.3c0,0-0.8,2.1,0.3,2.8c2,1.3,1.4,1.3,3.6,2C281.3,359.6,281.1,357.7,282.9,357.7L282.9,357.7z"
   class="st0"
   inkscape:connector-curvature="0"
   id="path4571" />
			<path
   d="M377.9,292.9c-1.5,0-3.3-0.9-3.8-3.5     c-0.1-0.5-1.4-3.5-2.6-6.1c-6.3-14.9-5.8-9.4-5.2-11.8c1.1-4.3,6.9-4.8,11.2-4.8c1,0,1.8,0.1,2.1,0.1c2.1,0,3.9,0.8,5.3,2.2     c2.4,2.3,3,5.8,3,7.4c0,0.1-3.2,9.7-4.8,12.6l-0.1,0.1C380.6,292.9,378.5,292.9,377.9,292.9L377.9,292.9L377.9,292.9L377.9,292.9     z"
   class="st0"
   inkscape:connector-curvature="0"
   id="path4581" />
			<path
   style="fill:#bbbcbc;fill-opacity:1"
   d="M379.4,270.1c0,0-9.3-0.6-10,2.2     c-0.7,2.8,5.9,13.6,7.9,16.6c1.4,2.1,2.9-1.4,2.9-1.4c1-1.8,4.3-9.9,4.3-11.1C384.5,274.9,383.6,270,379.4,270.1L379.4,270.1z"
   class="st4"
   inkscape:connector-curvature="0"
   id="path4586" />
			<path
   d="M116.5,178.1c0,0,25.8,1.6,30.3,30.7     c1.5-5.3-4.4-23-11.8-27.2c-0.8-0.5-4-2.1-1.6-7.3C124.7,173,116.5,178.1,116.5,178.1z"
   class="st0"
   inkscape:connector-curvature="0"
   id="path4591" />
			<path
   d="M239.6,189.9c0,0,15.8-6,19.5,19.3     c1.7-9.2-0.4-20.2-6.8-23.6C245.9,182.3,239.6,189.9,239.6,189.9z"
   class="st0"
   inkscape:connector-curvature="0"
   id="path4596" />
			<path
   d="M165.4,217c0,0,1.6,5.3,3.2,6.4c1.7,1,6.1-5.5,6.1-5.5     s-3.1,7.8-5.7,9.8C166.8,226.1,165.9,224.1,165.4,217z"
   class="st0"
   inkscape:connector-curvature="0"
   id="path4601" />
			<path
   d="M171.8,223c0,0,2.5,5.2,4.2,6.3c1.7,1,5.6-5.3,5.6-5.3     c-0.1,0-3.5,8.1-5.3,9.6C174.7,232.2,171.6,230.3,171.8,223L171.8,223z"
   class="st0"
   inkscape:connector-curvature="0"
   id="path4606" />
			<path
   d="M157.1,231.9c0,0,3.1,5.7,4.9,6.5c3.2,1.2,3.4-7.1,3.4-7.1     c0,0,1.3,9.2-2.1,12.2C160.4,241.9,158.8,240.8,157.1,231.9z"
   class="st0"
   inkscape:connector-curvature="0"
   id="path4611" />
			<path
   d="M165,228.6c0,0,1.7,5,3.2,6.2c1.6,1.2,4.9-7.8,4.9-7.8     c0,0-1.1,8.8-3.6,13.2C167.9,238.4,165.2,235.6,165,228.6z"
   class="st0"
   inkscape:connector-curvature="0"
   id="path4616" />
			<path
   d="M171.4,232.7c0,0.2,3,4.7,4.9,5.5c1.9,0.8,3.1-6.8,3.1-6.8     c0,0,0.5,8.7-1.7,11.2C176.3,241.7,172,239.5,171.4,232.7z"
   class="st0"
   inkscape:connector-curvature="0"
   id="path4621" />
			<path
   d="M173.1,211.5c0,0,3,6.7,4.9,7.7c2,1,4.9-6.1,4.9-6.1     c0,0-1.5,7.8-5,10.2C175.5,221.3,174.8,219.9,173.1,211.5L173.1,211.5z"
   class="st0"
   inkscape:connector-curvature="0"
   id="path4626" />
			<path
   d="M168.1,205.7c0,0,1.9,5,3.5,5.8c1.7,0.9,4.6-5.8,4.6-5.8     c0,0-1.7,8.6-4.4,11.2C170,215.5,169.2,213.1,168.1,205.7z"
   class="st0"
   inkscape:connector-curvature="0"
   id="path4631" />
			<path
   d="M178.3,204c0,0,1.6,4.3,3,5.2c1.4,0.9,3.7-2.9,3.7-2.9     c-0.1,0-0.9,6-3.6,6.8C180.3,212.2,179.1,210.2,178.3,204z"
   class="st0"
   inkscape:connector-curvature="0"
   id="path4636" />
			<path
   d="M186.2,198.8c0,0,0.9,4.1,2.1,5c1.2,0.8,3.4-2.9,3.4-2.9     c0,0-0.3,4.5-3.5,6.5C187,206,185.6,204.3,186.2,198.8L186.2,198.8z"
   class="st0"
   inkscape:connector-curvature="0"
   id="path4641" />
			<path
   d="M193.5,192.9c0,0,0.8,4.1,2,4.9c1.2,0.9,3.4-2.8,3.4-2.8     c0,0-0.4,5.5-3.4,6.1C195.9,201.6,193,197.8,193.5,192.9L193.5,192.9z"
   class="st0"
   inkscape:connector-curvature="0"
   id="path4646" />
			<path
   d="M158.8,222.1c0,0,2.7,4.8,3.9,4.9c1.3,0.1,3.7-4.9,3.7-4.9     c0,0-1.1,6.8-3.7,8.1C161.6,228.9,159.4,226.7,158.8,222.1z"
   class="st0"
   inkscape:connector-curvature="0"
   id="path4651" />
			<path
   d="M174.8,199.5c0,0,1.1,4,2.3,4.8c1.3,0.8,3.2-3.1,3.2-3.1     c0,0-0.6,5.7-2.8,7.3C176.1,207.3,174.5,205.2,174.8,199.5L174.8,199.5z"
   class="st0"
   inkscape:connector-curvature="0"
   id="path4656" />
			<path
   style="fill:#bbbcbc;fill-opacity:1"
   d="M290.4,262.2c-4.4-1.4-9.7-10.5-11.3-14.4     c-1.7-3.9-4.6-15.3-2.8-19.5c0.9,4.1,3.4,13,5.3,16.9C284.5,251.2,288.1,259,290.4,262.2L290.4,262.2z"
   class="st4"
   inkscape:connector-curvature="0"
   id="path4661" />
			<path
   d="M384.5,379.1c-0.8-1.6-5-3.3-6.8-3.5     c-1.7-0.3-2-0.3-2.2,1.4c-0.1,1.4-0.2,2.8,0.1,4.3c0.4,2.5,0.6,1.8,2.9,1.9c1.7,0.2,3.3,0.4,5,0.3c1.5-0.1,1.9-0.1,1.9-1.6     C385.4,380.8,385.8,379.4,384.5,379.1L384.5,379.1z"
   class="st0"
   inkscape:connector-curvature="0"
   id="path4669" />
		</g>
	</g>
	<g
   id="g9058">
		<path
   id="path9054"
   d="M345.9,757.3v-14.3h-5.1v-2.9h13.7v2.9h-5.1v14.3H345.9z" />
		<path
   id="path9056"
   d="M356.6,757.3v-17.2h5.2l3.1,11.7l3.1-11.7h5.2v17.2H370v-13.5l-3.4,13.5h-3.3l-3.4-13.5v13.5H356.6z" />
	</g>
</g>
</svg>
