<?xml version="1.0" encoding="UTF-8"?>
<svg id="Livello_2" data-name="Livello 2" xmlns="http://www.w3.org/2000/svg" viewBox="0 0 250 332.41">
  <defs>
    <style>
      .cls-1 {
        stroke-width: 5.58px;
      }

      .cls-1, .cls-2 {
        fill: none;
        stroke: #231f20;
        stroke-miterlimit: 19.38;
      }

      .cls-3 {
        fill: #e21d25;
      }

      .cls-3, .cls-4, .cls-5 {
        stroke-width: 0px;
      }

      .cls-4 {
        fill: #fff;
      }

      .cls-5 {
        fill: #231f20;
      }

      .cls-2 {
        stroke-width: 3.91px;
      }
    </style>
  </defs>
  <g id="svg3538">
    <g id="layer1">
      <g id="g90">
        <g id="g92">
          <g id="g98">
            <g id="g100">
              <path id="path106" class="cls-5" d="m121.19,330.48c-.53-.23-13.26-5.7-30.51-19.6-15.57-12.54-38.28-34.88-58.09-70.03C6.59,194.74.54,142.65.04,107.06-.5,68.74,4.98,41.34,5.22,40.19l.88-4.34,3.62-2.55c.49-.35,12.31-8.61,31.96-16.81C59.71,8.97,88.24,0,121.72,0s63.58,8.83,83.1,16.23c21.2,8.04,34.49,16.07,35.04,16.4l4.13,2.5,1,4.73c.22,1.05,5.44,26.13,4.99,62.68-.42,33.75-6.01,84.07-30.26,132.11-18.47,36.6-41.55,60.52-57.65,74.14-17.73,14.99-31.29,21.29-31.85,21.55l-4.48,2.06"/>
              <path id="path108" class="cls-4" d="m123.37,325.34c-.5-.21-12.55-5.4-29.19-18.81-15.18-12.24-37.35-34.04-56.73-68.42C12.03,193.02,6.11,141.92,5.62,106.99c-.53-37.74,4.84-64.56,5.07-65.68l.44-2.17,1.81-1.28c.47-.33,11.8-8.26,30.89-16.22C61.39,14.31,89.17,5.58,121.72,5.58s62.04,8.63,81.12,15.87c20.67,7.85,33.58,15.63,34.12,15.95l2.07,1.25.5,2.36c.22,1.03,5.31,25.56,4.86,61.46-.41,33.16-5.89,82.57-29.66,129.66-18.05,35.77-40.57,59.11-56.28,72.39-17.17,14.52-30.04,20.5-30.58,20.74l-2.24,1.03"/>
              <path id="path110" class="cls-3" d="m16.15,42.42S60.49,11.16,121.72,11.16s112.34,31.02,112.34,31.02c0,0,20.76,98.15-24.32,187.45-34.13,67.61-84.2,90.58-84.2,90.58,0,0-46.56-19.77-83.24-84.84C-5.78,150.07,16.15,42.42,16.15,42.42"/>
              <path id="path112" class="cls-4" d="m73.71,203.91s17.59-104.55,26.22-128.53c8.63-23.98,25.58-38.37,25.58-38.37,0,0,23.66,20.14,31.33,45.08,7.67,24.94,19.82,121.18,19.82,121.18"/>
              <path id="path114" class="cls-1" d="m73.71,203.91s17.59-104.55,26.22-128.53c8.63-23.98,25.58-38.37,25.58-38.37,0,0,23.66,20.14,31.33,45.08,7.67,24.94,19.82,121.18,19.82,121.18l-102.96.64h0Z"/>
              <path id="path116" class="cls-2" d="m175.38,186.65s-12.85-23.75-49.56-23.42c-34.54.31-50.52,23.42-50.52,23.42"/>
              <path id="path118" class="cls-2" d="m171.55,162.35s-17.9-19.18-45.72-18.23c-27.82.96-43.48,15.99-43.48,15.99"/>
              <path id="path120" class="cls-5" d="m135.42,176.02c0,4.37-3.54,7.91-7.91,7.91h-1.44c-4.37,0-7.91-3.54-7.91-7.91v-17.11c0-4.37,3.54-7.91,7.91-7.91h1.44c4.37,0,7.91,3.54,7.91,7.91"/>
              <path id="path122" class="cls-4" d="m185.61,231.73c0,33.2-26.91,60.11-60.11,60.11s-60.11-26.91-60.11-60.11,26.91-60.11,60.11-60.11,60.11,26.91,60.11,60.11"/>
              <path id="path124" class="cls-1" d="m185.61,231.73c0,33.2-26.91,60.11-60.11,60.11s-60.11-26.91-60.11-60.11,26.91-60.11,60.11-60.11,60.11,26.91,60.11,60.11Z"/>
              <path id="path126" class="cls-1" d="m113.35,257.95s-21.74-9.59-31.01-17.27c-9.27-7.67-15.67-16.95-15.67-16.95"/>
              <path id="path128" class="cls-1" d="m125.18,235.57s-20.78-6.08-31.01-15.99c-10.23-9.91-18.54-20.14-18.54-20.14"/>
              <path id="path130" class="cls-1" d="m89.05,277.77s38.69-20.46,38.37-47c-.32-26.54-36.77-47-36.77-47"/>
              <path id="path132" class="cls-1" d="m121.67,291.52s24.94-20.46,30.06-40.61c5.12-20.14,1.6-26.86,1.6-26.86"/>
              <path id="path134" class="cls-1" d="m180.82,208.71s-16.62-9.27-28.46-9.27c-17.59,0-31.01,9.59-31.01,9.59"/>
              <path id="path136" class="cls-1" d="m161.64,184.09s-17.59-3.84-32.29,0c-14.71,3.84-23.66,9.91-23.66,9.91"/>
              <path id="path138" class="cls-1" d="m184.98,227.89s-5.12-5.44-13.75-5.76-17.9,4.16-17.9,4.16c0,0-3.2-5.11-12.15-5.75-8.95-.64-14.39,3.2-14.39,3.2"/>
              <path id="path140" class="cls-4" d="m55.36,129.89l33.73-33.73-33.73-33.73,36.25-36.26,33.73,33.73,33.73-33.73,36.26,36.26-33.73,33.73,33.73,33.73-36.26,36.26-33.73-33.73-33.73,33.73"/>
              <path id="path142" class="cls-5" d="m159.08,22.62l-33.73,33.73-33.73-33.73-39.81,39.81,33.73,33.73-33.73,33.73,39.81,39.81,33.73-33.73,33.73,33.73,39.81-39.81-33.73-33.73,33.73-33.73-39.81-39.81Zm0,7.1l32.7,32.7-30.18,30.18-3.55,3.55,3.55,3.55,30.18,30.18-32.7,32.7-30.18-30.18-3.55-3.55-3.55,3.55-30.18,30.18-32.7-32.7,30.18-30.18,3.55-3.55-3.55-3.55-30.18-30.18,32.7-32.7,30.18,30.18,3.55,3.55,3.55-3.55,30.18-30.18"/>
              <path id="path144" class="cls-5" d="m87.72,63.55l3.91-3.91c1.39-1.39,3.05-3.55.74-5.85-1.62-1.62-3.4-1.7-6.26,1.15l-3.5,3.5,5.11,5.11Zm-18.7-3.75l14.24-14.24c4.25-4.25,10.4-5.44,15.26-.58,2.66,2.66,4.31,6.62,2.8,10.08,2.87-1.21,6.5-.09,9.97,2.84,1.36,1.16,4.45,4.18,6.32,4.69l-7.48,7.48c-1.67-.92-3.14-2.12-4.57-3.35-2.65-2.24-5.41-4.59-8.37-1.64l-3.98,3.98,8.96,8.96-7.48,7.48"/>
              <path id="path146" class="cls-5" d="m167.14,76.05c-7.13,7.12-14.18,6.91-21.59-.5-7.41-7.41-7.66-14.5-.54-21.62l15.76-15.76,7.48,7.48-14,14c-2.63,2.63-5.9,5.9-2.27,9.54,3.54,3.53,6.81.26,9.44-2.37l14-14,7.48,7.48"/>
              <path id="path148" class="cls-5" d="m67.88,129.36l18.76-18.76,6.58,6.58-11.28,11.28,3.2,3.2,9.69-9.69,6.12,6.12-9.69,9.69,9.79,9.79-7.48,7.48"/>
              <path id="path150" class="cls-5" d="m166.93,131.38c.8-1.07,2.96-4.59-.13-7.69-3.5-3.5-8.22-1.02-11.68,2.43-3.45,3.45-5.93,8.17-2.43,11.67,2.51,2.52,5.37,1.63,8.22-.34l7.34,7.34c-5.18,5.18-14.66,6.71-21.77-.39-7.85-7.85-6.44-18.17,1.15-25.76,8.1-8.09,18.28-8.63,25.76-1.15,6.63,6.7,6.59,14.07.79,21.16"/>
              <path id="path152" class="cls-5" d="m138.21,96.48c0,7.24-5.87,13.11-13.11,13.11s-13.11-5.87-13.11-13.11,5.87-13.11,13.11-13.11,13.11,5.87,13.11,13.11"/>
            </g>
          </g>
        </g>
      </g>
    </g>
  </g>
</svg>