<?xml version="1.0" encoding="UTF-8"?>
<svg id="Layer_2" data-name="Layer 2" xmlns="http://www.w3.org/2000/svg" viewBox="0 0 298.37 346.75">
  <defs>
    <style>
      .cls-1 {
        fill: none;
      }

      .cls-1, .cls-2, .cls-3, .cls-4, .cls-5, .cls-6 {
        stroke-width: 0px;
      }

      .cls-3 {
        fill: #e34b3d;
      }

      .cls-4 {
        fill: #8a8e8a;
      }

      .cls-5 {
        fill: #fffe5c;
      }

      .cls-6 {
        fill: #fff;
      }
    </style>
  </defs>
  <g id="Layer_1-2" data-name="Layer 1">
    <path class="cls-1" d="m48.94,42.33c-2.67,3.17-41.91,49.67-44.04,52.19v18.67c14.93,157.01,127.92,219.81,144.28,228.1,16.37-8.29,129.36-71.09,144.28-228.1v-18.67c-2.13-2.52-41.37-49.03-44.04-52.19-49.64-.05-65.95-2.06-100.25-35.49-34.3,33.43-50.6,35.44-100.25,35.49Z"/>
    <path class="cls-4" d="m149.18,346.75s132.77-59.62,149.18-233.28v-20.74l-46.66-55.3c-53.57,0-67.1-2.01-102.53-37.44-35.42,35.43-48.96,37.44-102.53,37.44L0,92.74v20.74c16.41,173.66,149.18,233.28,149.18,233.28Z"/>
    <path class="cls-5" d="m71.42,41.98c-6.73.26-14.1.34-22.49.35-2.67,3.17-41.91,49.67-44.04,52.19v18.67c7.07,74.37,36.14,127.57,66.52,163.89V41.98Z"/>
    <path class="cls-2" d="m71.42,41.98v235.11c33.76,40.35,69.15,59.84,77.76,64.21V6.84c-28.51,27.78-44.65,33.85-77.76,35.14Z"/>
    <path class="cls-5" d="m226.94,277.09V41.98c-33.12-1.29-49.25-7.36-77.76-35.14v334.46c8.62-4.37,44-23.86,77.76-64.21Z"/>
    <path class="cls-2" d="m249.43,42.33c-8.38,0-15.75-.09-22.49-.35v235.11c30.38-36.32,59.45-89.52,66.52-163.89v-18.67c-2.13-2.52-41.37-49.03-44.04-52.19Z"/>
    <path class="cls-4" d="m234.14,142.56c0,46.92-38.04,84.96-84.96,84.96s-84.96-38.04-84.96-84.96,38.04-84.96,84.96-84.96,84.96,38.04,84.96,84.96Z"/>
    <circle class="cls-6" cx="149.18" cy="142.56" r="80.06"/>
    <path class="cls-3" d="m203.76,166.18c-9.16,21.08-30.16,35.87-54.57,35.87-32.8,0-59.49-26.69-59.49-59.49s26.69-59.49,59.49-59.49c24.41,0,45.41,14.79,54.57,35.87h11.52c-9.73-27.14-35.64-46.65-66.09-46.65-38.75,0-70.27,31.52-70.27,70.27s31.52,70.26,70.27,70.26c30.45,0,56.36-19.5,66.09-46.65h-11.52Z"/>
    <path class="cls-3" d="m171.03,143.33l-.41.15c3.91-1.26,10.52-5.67,10.52-14.16,0-9.48-4.86-15.84-12.1-15.84h-54.44v65.38h9.8v-15.77l21.49-9.11,19.52,24.87h12.45l-22.62-28.83,15.79-6.69Zm-46.62-20.06h44.64c1.44,0,2.3,3.07,2.3,6.05,0,3.42-3.41,4.73-3.8,4.86,0,0-32.98,13.97-43.14,18.27v-29.18Z"/>
  </g>
</svg>