<?xml version="1.0" encoding="UTF-8"?>
<svg id="Layer_2" data-name="Layer 2" xmlns="http://www.w3.org/2000/svg" xmlns:xlink="http://www.w3.org/1999/xlink" viewBox="0 0 33.56 19.58">
  <defs>
    <style>
      .cls-1 {
        clip-path: url(#clippath);
      }

      .cls-2 {
        fill: none;
      }

      .cls-2, .cls-3, .cls-4, .cls-5, .cls-6 {
        stroke-width: 0px;
      }

      .cls-7 {
        clip-path: url(#clippath-1);
      }

      .cls-8 {
        clip-path: url(#clippath-4);
      }

      .cls-9 {
        clip-path: url(#clippath-3);
      }

      .cls-10 {
        clip-path: url(#clippath-2);
      }

      .cls-11 {
        clip-path: url(#clippath-6);
      }

      .cls-12 {
        clip-path: url(#clippath-5);
      }

      .cls-3 {
        fill: #347d59;
      }

      .cls-4 {
        fill: #3e81c5;
      }

      .cls-5 {
        fill: #dfad29;
      }

      .cls-6 {
        fill: #f1d62f;
      }
    </style>
    <clipPath id="clippath">
      <rect class="cls-2" width="33.56" height="19.58"/>
    </clipPath>
    <clipPath id="clippath-1">
      <rect class="cls-2" width="33.56" height="19.58"/>
    </clipPath>
    <clipPath id="clippath-2">
      <rect class="cls-2" width="33.56" height="19.58"/>
    </clipPath>
    <clipPath id="clippath-3">
      <rect class="cls-2" width="33.56" height="19.58"/>
    </clipPath>
    <clipPath id="clippath-4">
      <rect class="cls-2" width="33.56" height="19.58"/>
    </clipPath>
    <clipPath id="clippath-5">
      <rect class="cls-2" width="33.56" height="19.58"/>
    </clipPath>
    <clipPath id="clippath-6">
      <rect class="cls-2" width="33.56" height="19.58"/>
    </clipPath>
  </defs>
  <g id="Layer_1-2" data-name="Layer 1">
    <g id="RWANDA">
      <g>
        <g class="cls-1">
          <rect class="cls-4" width="33.56" height="9.78"/>
        </g>
        <g class="cls-7">
          <rect class="cls-6" y="9.79" width="33.56" height="4.89"/>
        </g>
        <g class="cls-10">
          <rect class="cls-3" y="14.68" width="33.56" height="4.9"/>
        </g>
        <g class="cls-9">
          <polygon class="cls-5" points="31.57 7.13 30.05 5.96 30.78 7.73 29.62 6.21 29.87 8.11 29.14 6.34 28.89 8.24 28.63 6.34 27.9 8.11 28.15 6.21 26.99 7.73 27.71 5.96 26.2 7.13 27.36 5.6 25.59 6.34 27.11 5.17 25.22 5.42 26.98 4.69 25.09 4.45 26.98 4.19 25.22 3.46 27.11 3.71 25.59 2.54 27.36 3.27 26.2 1.75 27.71 2.92 26.99 1.15 28.15 2.67 27.9 .77 28.63 2.54 28.89 .64 29.14 2.54 29.87 .77 29.62 2.67 30.78 1.15 30.05 2.92 31.57 1.75 30.41 3.27 32.17 2.54 30.66 3.71 32.55 3.46 30.79 4.19 32.68 4.45 30.79 4.69 32.55 5.42 30.66 5.17 32.17 6.34 30.41 5.6 31.57 7.13"/>
        </g>
        <g class="cls-8">
          <g>
            <g class="cls-12">
              <path class="cls-5" d="m30.27,4.45c0,.75-.62,1.38-1.38,1.38s-1.38-.62-1.38-1.38.62-1.39,1.38-1.39,1.38.62,1.38,1.39h0Z"/>
            </g>
            <g class="cls-11">
              <path class="cls-4" d="m28.89,5.89c-.8,0-1.45-.65-1.45-1.45s.65-1.46,1.45-1.46,1.45.65,1.45,1.46c0,.8-.65,1.45-1.45,1.45h0Zm0-2.76c-.73,0-1.32.59-1.32,1.32s.59,1.31,1.32,1.31,1.31-.59,1.31-1.31-.59-1.32-1.31-1.32h0Z"/>
            </g>
          </g>
        </g>
      </g>
    </g>
  </g>
</svg>