<?xml version="1.0" encoding="UTF-8"?>
<svg id="Layer_2" data-name="Layer 2" xmlns="http://www.w3.org/2000/svg" viewBox="0 0 511.09 566.93">
  <defs>
    <style>
      .cls-1 {
        stroke: #fff200;
        stroke-miterlimit: 22.93;
        stroke-width: .22px;
      }

      .cls-1, .cls-2, .cls-3, .cls-4, .cls-5, .cls-6 {
        fill-rule: evenodd;
      }

      .cls-1, .cls-5 {
        fill: #ed1c29;
      }

      .cls-2 {
        fill: #0058a9;
      }

      .cls-2, .cls-3, .cls-4, .cls-5, .cls-6, .cls-7 {
        stroke-width: 0px;
      }

      .cls-3, .cls-7 {
        fill: #231f20;
      }

      .cls-4 {
        fill: #f6b12d;
      }

      .cls-6 {
        fill: #f3f4f4;
      }
    </style>
  </defs>
  <g id="Layer_1-2" data-name="Layer 1">
    <polygon class="cls-2" points="401.3 259.33 256.25 259.33 256.25 316.12 390.87 316.12 401.3 259.33 401.3 259.33"/>
    <path class="cls-2" d="m256.25,259.33H114.67l-3.46-68.18c42.36,9.46,100.32,10.4,145.04-55.81v123.99h0Z"/>
    <path class="cls-1" d="m389.39,317.06c-11.91,48.12-31.61,95.23-55.58,138.27-20.46,36.73-44.26,71.05-72.38,102.34l-4.04,4.5-4.11-4.43c-18.13-19.55-34.4-40.91-49.19-63.07-18.5-27.72-34.77-57.01-48.47-87.39-10.19-22.61-18.97-45.89-25.78-69.74-1.95-6.81-3.76-13.64-5.43-20.48h264.99Z"/>
    <path class="cls-4" d="m389.39,317.06c-8.7,35.13-21.54,69.72-37.16,102.57v-102.57h37.16Zm-64.4,153.6c-8.51,14.32-17.57,28.25-27.24,41.74v-195.34h27.24v153.6h0Zm-54.47,76.62c-2.98,3.5-6.01,6.96-9.09,10.39l-4.04,4.5-4.11-4.43c-3.4-3.66-6.73-7.39-10-11.18v-229.5h27.24v230.22h0Zm-54.47-35.36c-4.09-5.69-8.07-11.44-11.95-17.26-5.28-7.91-10.38-15.95-15.28-24.11v-153.5h27.24v194.86h0Zm-54.47-91.86c-2.03-4.24-4.02-8.5-5.95-12.78-10.19-22.61-18.97-45.89-25.78-69.74-1.95-6.81-3.76-13.64-5.43-20.48h37.16v103h0Z"/>
    <path class="cls-3" d="m105.53,184.56c17.46,6.84,36.6,7.99,53.64,6.71,41.91-3.14,84.45-32.87,96.85-71.07,14.94,35.12,51.47,65.58,91.96,71.13,18.03,2.47,39.93-.99,59.95-7.72.94,41.59-3.96,80.88-11.26,116.36-11.03,53.57-32.82,108.25-59.96,156.97-23.95,42.99-49.71,78.31-79.26,109.98-51.83-53.27-105.75-140.88-130.79-228.48-13.84-48.4-21.31-97.72-21.12-153.89h0Zm23.85,129.67h255.01c1.3-5.34,2.51-10.69,3.62-16.04,6.97-33.84,11.07-68.2,11.19-102.73-16.98,4.53-35.6,6.93-52.43,4.62-36.16-4.96-70.48-28.59-90.11-59.74-19.29,33.66-59.03,56.9-96.83,59.74-15.09,1.13-30.64.38-45.38-3.4.69,40.07,5.56,78.81,14.94,117.55h0Zm252.77,8.83h-250.55c1.12,4.32,2.3,8.64,3.54,12.97,6.74,23.57,15.44,46.65,25.51,68.99,13.54,30.05,29.73,59.17,48.03,86.59,14.54,21.79,30.76,43.09,48.64,62.38,27.9-31.04,51.29-64.76,71.67-101.34,22.44-40.28,41.23-84.54,53.16-129.59h0Z"/>
    <polygon class="cls-3" points="149.69 125.6 200.71 183.83 191.46 188.43 141.77 131.7 149.69 125.6 149.69 125.6"/>
    <polygon class="cls-3" points="359 122.59 314.12 182.56 324.03 185.98 366.48 129.26 359 122.59 359 122.59"/>
    <path class="cls-6" d="m37.75,428.24l20.39-15.69C22.75,368.14,3.31,313.07,3.31,255.54,3.31,116.26,116.26,3.31,255.54,3.31s252.23,112.95,252.23,252.23c0,53.44-16.76,104.83-47.67,147.57l21.7,15.81-44.93,11.93-62.4-58.69,1.93-2.01c30.02-31.27,46.65-72.61,46.65-115.96,0-92.5-75.02-167.52-167.52-167.52S88.02,161.69,88.02,254.19c0,46.33,19.01,90.27,52.75,122.01l2.1,1.98-61.53,59.75-43.59-9.7h0Z"/>
    <path class="cls-3" d="m255.54,0c141.11,0,255.54,114.43,255.54,255.54,0,55.05-17.42,106.02-47.04,147.74l24.26,17.16-51.28,14.98-.06.06-.04-.03-.06.02-2.32-2.26-64.85-61c30.86-29.86,50.06-71.7,50.06-118.02,0-90.68-73.53-164.21-164.21-164.21S91.33,163.52,91.33,254.19c0,49.43,21.85,93.76,56.42,123.86l-66.37,64.45-.12-.11-50.31-12.49,22.76-17.66C20.06,368.97,0,314.6,0,255.54,0,114.43,114.43,0,255.54,0h0Zm204.95,408.16c-4.8,6.44-9.91,12.65-15.28,18.6l29.32-8.62-14.04-9.98h0Zm-387.83,25.83c-5.33-5.46-10.42-11.16-15.25-17.08l-12.86,10.12,28.11,6.96h0Zm8.67.1l57.53-55.87c-34.2-32.17-53.62-76.8-53.62-124.02,0-94.03,76.26-170.28,170.28-170.28s170.28,76.25,170.28,170.28c0,44.17-16.97,86.16-47.42,117.87l58.36,54.89c43.91-46.39,68.25-107.35,68.25-171.42,0-137.76-111.71-249.47-249.47-249.47S6.07,117.78,6.07,255.54c0,67.55,27.09,131.53,75.27,178.54h0Z"/>
    <polygon class="cls-3" points="79.67 51.9 79.67 75.07 103.79 53.79 79.67 51.9 79.67 51.9"/>
    <polygon class="cls-3" points="421.16 42.44 421.16 65.61 397.04 44.33 421.16 42.44 421.16 42.44"/>
    <path class="cls-7" d="m88.46,370.82c4.43-3.13,8.73-4.64,12.9-4.49,4.17.14,7.57,1.91,10.21,5.3,3.05,3.9,3.69,8.3,1.9,13.18-1.77,4.88-5.8,9.77-12.07,14.66-6.4,5-12.16,7.72-17.29,8.17-5.13.46-9.31-1.39-12.55-5.54-2.63-3.37-3.54-6.94-2.72-10.72.81-3.77,3.28-7.44,7.41-10.96l4.18,5.35c-1.95,1.89-3.09,3.76-3.44,5.63-.34,1.86.15,3.64,1.46,5.32,1.87,2.39,4.38,3.35,7.55,2.87,3.17-.48,6.86-2.36,11.08-5.65,4.09-3.19,6.76-6.28,8.03-9.25,1.26-2.98,1.01-5.61-.78-7.9-1.28-1.64-2.94-2.52-4.96-2.64-2.02-.11-4.27.55-6.76,2l-4.15-5.32h0Z"/>
    <polygon class="cls-7" points="97.57 354.89 56.25 378.75 44.09 357.7 51.28 353.55 60.03 368.72 68.84 363.63 60.84 349.76 67.91 345.68 75.91 359.55 86.54 353.41 77.38 337.53 85.01 333.13 97.57 354.89 97.57 354.89"/>
    <polygon class="cls-7" points="82.02 324.75 36.9 340.29 34.55 333.48 61.14 309.95 30.13 320.63 27.92 314.21 73.04 298.67 75.36 305.39 48.81 329 79.81 318.33 82.02 324.75 82.02 324.75"/>
    <polygon class="cls-7" points="70.95 285.84 31.97 289.93 33 299.81 24.52 300.7 21.74 274.17 30.22 273.28 31.25 283.08 70.23 278.99 70.95 285.84 70.95 285.84"/>
    <path class="cls-7" d="m41.56,252.38l.28-8.09c.06-1.75-.4-3.06-1.39-3.92-.99-.86-2.57-1.32-4.75-1.4-2.07-.07-3.65.28-4.75,1.04-1.1.76-1.67,1.94-1.73,3.52l-.29,8.41,12.63.44h0Zm26.6,7.82l-47.69-1.66.57-16.22c.13-3.64,1.34-6.31,3.62-7.98,2.28-1.68,5.72-2.44,10.29-2.28,2.91.1,5.32.61,7.24,1.54,1.92.92,3.2,2.2,3.85,3.83.79-1.43,1.94-2.42,3.48-2.99,1.54-.56,3.9-.83,7.1-.81l5.63.06s.11,0,.2,0c2.84.06,4.59-.31,5.22-1.11l1.46.05-.26,7.55c-.68.22-1.51.37-2.49.46-.99.09-2.16.13-3.52.11l-5.02-.08c-2.95-.03-4.97.29-6.02.96-1.06.67-1.63,1.92-1.69,3.75l-.25,7.29,18.55.65-.24,6.88h0Z"/>
    <polygon class="cls-7" points="70.45 223.14 24.14 211.59 30.02 188.01 38.07 190.02 33.84 207.01 43.71 209.47 47.58 193.93 55.5 195.91 51.63 211.45 63.54 214.42 67.97 196.63 76.53 198.76 70.45 223.14 70.45 223.14"/>
    <path class="cls-7" d="m79,170.83l2.51-4.92c1.45-2.85,1.44-5.46-.04-7.81-1.47-2.36-4.6-4.76-9.37-7.19-4.75-2.42-8.55-3.61-11.38-3.55-2.84.05-4.9,1.33-6.19,3.86l-2.89,5.67,27.37,13.94h0Zm4.61,9.92l-42.52-21.67,5.95-11.68c2.33-4.57,5.83-7.09,10.5-7.54,4.66-.45,10.58,1.14,17.74,4.79,3.88,1.98,7.1,4.14,9.64,6.48,2.54,2.34,4.31,4.77,5.31,7.26.74,1.88,1.02,3.72.84,5.53-.19,1.81-.97,4.07-2.36,6.8l-5.11,10.02h0Z"/>
    <polygon class="cls-7" points="107.53 140.98 71.51 109.67 87.45 91.33 93.71 96.77 82.23 109.99 89.9 116.66 100.41 104.58 106.57 109.93 96.06 122.02 105.33 130.07 117.36 116.24 124.01 122.02 107.53 140.98 107.53 140.98"/>
    <path class="cls-7" d="m117.13,107.14l5.35-4.18c1.81,1.9,3.59,2.96,5.35,3.2,1.75.23,3.55-.38,5.41-1.82,1.58-1.23,2.45-2.56,2.62-3.99.18-1.42-.35-2.91-1.57-4.48-1.78-2.28-5.55-2.37-11.32-.28-.07.03-.14.06-.2.07-.15.06-.38.14-.7.25-3.06,1.16-5.48,1.67-7.28,1.53-1.6-.11-3.2-.71-4.82-1.77-1.61-1.06-3.18-2.56-4.71-4.52-2.86-3.66-4.18-7.15-3.96-10.46.22-3.3,1.98-6.25,5.27-8.82,3.08-2.41,6.3-3.25,9.65-2.53,3.36.73,6.56,2.93,9.61,6.64l-5.21,4.07c-1.52-1.74-3.09-2.75-4.71-3.01-1.63-.26-3.26.25-4.89,1.52-1.42,1.11-2.21,2.36-2.36,3.75-.15,1.4.34,2.82,1.49,4.28,1.56,2,4.21,2.31,7.98.96,1.02-.37,1.82-.65,2.4-.85,2.46-.8,4.26-1.32,5.36-1.56,1.11-.24,2.16-.35,3.13-.34,1.74.02,3.42.51,5.06,1.5,1.63.98,3.22,2.45,4.75,4.42,3.06,3.91,4.5,7.67,4.33,11.27-.17,3.6-1.93,6.71-5.3,9.34-3.32,2.59-6.78,3.53-10.38,2.8-3.6-.72-7.06-3.05-10.36-6.99h0Z"/>
    <path class="cls-7" d="m145.62,71.7l5.76-3.33c1.56-.9,2.42-2.02,2.59-3.38.16-1.36-.36-3.07-1.57-5.17-1.13-1.96-2.34-3.25-3.62-3.86-1.28-.6-2.61-.51-3.98.28l-6.08,3.51,6.9,11.95h0Zm4.28,7.51l8.49,14.7-5.96,3.44-23.86-41.33,12.89-7.44c3.04-1.76,6-1.96,8.87-.61,2.86,1.35,5.56,4.2,8.08,8.57,2.46,4.26,3.59,7.99,3.39,11.19-.2,3.19-1.73,5.62-4.57,7.26l-7.32,4.23h0Z"/>
    <path class="cls-7" d="m179.86,57.03c1.71,4.97,3.82,8.56,6.31,10.78,2.49,2.22,5.13,2.84,7.91,1.89,2.81-.97,4.52-3.09,5.14-6.38.61-3.29.06-7.41-1.65-12.38-1.71-4.96-3.81-8.55-6.32-10.76-2.51-2.21-5.17-2.83-7.97-1.86-2.78.96-4.47,3.07-5.07,6.34-.6,3.27-.05,7.4,1.66,12.38h0Zm-6.64,2.29c-2.51-7.29-3.11-13.55-1.79-18.79,1.31-5.24,4.33-8.67,9.06-10.3,4.72-1.63,9.22-.78,13.5,2.55,4.28,3.32,7.67,8.62,10.17,15.89,2.51,7.28,3.1,13.54,1.77,18.8-1.33,5.25-4.35,8.69-9.07,10.32-4.73,1.63-9.22.78-13.48-2.55-4.26-3.33-7.65-8.63-10.15-15.91h0Z"/>
    <path class="cls-7" d="m223.74,42.76l8.05-.85c1.74-.18,2.97-.82,3.69-1.92.71-1.1.95-2.72.72-4.9-.22-2.06-.78-3.58-1.69-4.56-.91-.98-2.16-1.39-3.73-1.22l-8.37.88,1.32,12.57h0Zm-4.04,27.43l-4.99-47.46,16.14-1.7c3.62-.38,6.43.45,8.41,2.47,1.98,2.03,3.21,5.32,3.69,9.88.3,2.89.13,5.36-.52,7.38-.65,2.03-1.73,3.47-3.25,4.35,1.53.58,2.67,1.59,3.45,3.03.77,1.44,1.36,3.75,1.79,6.92l.73,5.58s.01.11.02.2c.34,2.82.95,4.5,1.83,5.01l.15,1.45-7.51.79c-.31-.65-.57-1.44-.81-2.41-.23-.97-.43-2.12-.6-3.47l-.62-4.98c-.39-2.93-.98-4.88-1.79-5.83-.81-.96-2.13-1.34-3.95-1.15l-7.26.76,1.94,18.46-6.85.72h0Z"/>
    <polygon class="cls-7" points="262.63 67.29 265.36 28.19 255.46 27.5 256.05 18.99 282.66 20.85 282.06 29.36 272.23 28.67 269.5 67.77 262.63 67.29 262.63 67.29"/>
    <path class="cls-7" d="m286.96,54.62l6.62,1.53c-.34,2.6-.04,4.66.88,6.17.93,1.51,2.53,2.52,4.82,3.05,1.95.45,3.53.29,4.75-.47,1.22-.75,2.05-2.1,2.49-4.04.65-2.82-1.65-5.81-6.91-8.97-.07-.04-.13-.08-.18-.11-.14-.08-.35-.21-.64-.39-2.83-1.65-4.75-3.21-5.77-4.69-.92-1.31-1.46-2.94-1.66-4.85-.19-1.92-.01-4.08.55-6.5,1.04-4.53,2.93-7.75,5.64-9.66,2.71-1.91,6.1-2.39,10.17-1.45,3.81.88,6.49,2.85,8.04,5.91,1.55,3.07,1.85,6.94.89,11.65l-6.45-1.49c.4-2.28.19-4.13-.63-5.56-.82-1.43-2.24-2.38-4.26-2.85-1.76-.41-3.22-.23-4.4.53-1.18.76-1.98,2.04-2.39,3.85-.57,2.47.86,4.73,4.28,6.81.93.57,1.65,1.01,2.17,1.33,2.17,1.41,3.71,2.48,4.59,3.18.89.72,1.63,1.45,2.23,2.22,1.08,1.36,1.75,2.98,2.02,4.87s.12,4.05-.44,6.47c-1.12,4.84-3.12,8.33-6.03,10.46-2.9,2.13-6.43,2.73-10.6,1.76-4.1-.95-7.01-3.05-8.71-6.3-1.71-3.25-2.07-7.4-1.09-12.45h0Z"/>
    <path class="cls-7" d="m332.83,67.94l6.11,2.98c-.91,2.46-1.09,4.53-.53,6.22.56,1.68,1.9,3.03,4.01,4.06,1.8.88,3.37,1.08,4.73.61,1.35-.46,2.47-1.59,3.34-3.38,1.27-2.61-.3-6.03-4.71-10.3-.06-.05-.11-.1-.15-.15-.12-.11-.3-.28-.53-.52-2.38-2.24-3.91-4.19-4.57-5.87-.6-1.48-.76-3.19-.52-5.1.24-1.91.9-3.98,2-6.21,2.04-4.17,4.59-6.89,7.67-8.15,3.07-1.25,6.48-.96,10.24.87,3.51,1.71,5.68,4.24,6.51,7.57.82,3.34.24,7.18-1.75,11.55l-5.95-2.9c.9-2.13,1.11-3.98.64-5.56-.48-1.58-1.65-2.82-3.51-3.73-1.62-.79-3.09-.95-4.41-.48-1.32.48-2.38,1.54-3.2,3.21-1.11,2.28-.23,4.8,2.64,7.6.78.76,1.39,1.35,1.81,1.78,1.8,1.86,3.06,3.25,3.76,4.13.7.9,1.26,1.78,1.68,2.66.74,1.57,1.04,3.3.87,5.2s-.8,3.97-1.89,6.2c-2.18,4.46-4.92,7.41-8.23,8.83-3.31,1.42-6.88,1.21-10.72-.66-3.79-1.85-6.14-4.55-7.07-8.1-.93-3.56-.35-7.68,1.74-12.38h0Z"/>
    <path class="cls-7" d="m390.27,74.23l-16.39,12.87,7.22,5.85,9.17-18.72h0Zm2.91-9.94l6.18,5-20.66,44.68-5.62-4.55,4.41-9.05-10.08-8.16-7.89,6.24-5.63-4.56,39.29-29.59h0Z"/>
    <path class="cls-7" d="m393.52,114.87l5.34,6.15c1.26,1.45,2.56,2.19,3.88,2.19,1.33,0,2.79-.68,4.41-2.09,1.68-1.46,2.6-2.84,2.78-4.13.18-1.3-.39-2.69-1.69-4.19l-5.32-6.12-9.42,8.18h0Zm15.58-13.53l5.15,5.93c1.11,1.28,2.24,1.94,3.39,2,1.14.05,2.39-.52,3.75-1.69,1.32-1.15,2.03-2.27,2.12-3.36.09-1.09-.44-2.31-1.6-3.65l-5.13-5.9-7.68,6.67h0Zm-26.41,14.21l36.03-31.29,10.34,11.9c2.25,2.59,3.18,5.23,2.8,7.94-.38,2.7-2.05,5.35-5.02,7.93-1.82,1.58-3.57,2.66-5.23,3.22-1.66.55-3.26.62-4.8.19.38,1.96.14,3.87-.71,5.74-.84,1.87-2.32,3.72-4.42,5.55-3.51,3.05-6.91,4.59-10.2,4.65-3.31.06-6.23-1.38-8.78-4.32l-10-11.51h0Z"/>
    <path class="cls-7" d="m444.74,131.59l-19.82,6.45,4.77,7.97,15.04-14.42h0Zm6.14-8.34l4.08,6.82-34.75,34.86-3.71-6.2,7.25-6.99-6.66-11.13-9.55,3.15-3.72-6.22,47.06-14.29h0Z"/>
    <path class="cls-7" d="m435.18,173.34l1.62,5.28c.94,3.05,2.76,4.92,5.46,5.58,2.69.67,6.61.22,11.73-1.36,5.1-1.57,8.65-3.36,10.65-5.36,2.01-2.01,2.59-4.37,1.76-7.08l-1.87-6.08-29.36,9.02h0Zm-10.22-3.92l45.62-14.01,3.85,12.53c1.51,4.91.74,9.15-2.29,12.72-3.04,3.57-8.39,6.54-16.08,8.9-4.17,1.28-7.98,1.96-11.44,2.05-3.46.09-6.41-.42-8.87-1.52-1.84-.83-3.32-1.96-4.45-3.39-1.12-1.43-2.14-3.6-3.04-6.53l-3.3-10.75h0Z"/>
    <polygon class="cls-7" points="434.83 199.98 481.13 188.43 487.01 212.01 478.97 214.02 474.73 197.03 464.86 199.49 468.73 215.03 460.81 217 456.94 201.46 445.03 204.43 449.46 222.22 440.91 224.36 434.83 199.98 434.83 199.98"/>
    <polygon class="cls-7" points="441.41 231.25 488.95 227.09 489.55 233.95 450.79 237.35 452.21 253.61 443.43 254.38 441.41 231.25 441.41 231.25"/>
    <polygon class="cls-7" points="442.73 261.12 490.33 264.45 489.85 271.32 451.04 268.6 449.9 284.9 441.11 284.28 442.73 261.12 442.73 261.12"/>
    <polygon class="cls-7" points="435.58 306.08 480.97 320.83 473.75 343.04 465.86 340.48 470.98 324.73 460.68 321.38 456.2 335.19 448.31 332.62 452.79 318.82 433.48 312.54 435.58 306.08 435.58 306.08"/>
    <polygon class="cls-7" points="428.21 326.25 437.12 330.22 434.34 336.47 425.43 332.5 428.21 326.25 428.21 326.25"/>
    <path class="cls-7" d="m423.87,369.74c-4.56-2.93-7.57-6.36-9-10.27-1.43-3.92-1.06-7.73,1.08-11.45,2.48-4.29,6.31-6.53,11.5-6.7,5.19-.18,11.23,1.72,18.12,5.7,7.03,4.06,11.71,8.38,14.06,12.97,2.34,4.59,2.2,9.16-.43,13.71-2.14,3.7-5.11,5.88-8.92,6.54-3.8.66-8.13-.26-12.94-2.76l3.4-5.88c2.48,1.1,4.65,1.46,6.5,1.08,1.85-.38,3.32-1.5,4.38-3.34,1.52-2.63,1.46-5.32-.17-8.07-1.63-2.76-4.76-5.48-9.39-8.15-4.49-2.59-8.35-3.92-11.59-3.98-3.24-.05-5.58,1.17-7.03,3.68-1.04,1.81-1.24,3.67-.59,5.59.65,1.92,2.11,3.75,4.38,5.52l-3.37,5.84h0Z"/>
    <polygon class="cls-7" points="404.72 367.03 412.51 372.9 408.39 378.37 400.6 372.5 404.72 367.03 404.72 367.03"/>
    <path class="cls-7" d="m70.11,124.37l-6.87-5.84,4.74-5.59,6.87,5.84c2.53,2.15,4.25,4.24,5.19,6.28.92,2.05,1.14,4.22.67,6.52l-3.75-.83c.32-1.51.14-2.97-.52-4.37-.67-1.42-1.99-3.01-3.98-4.79l-2.36,2.78h0Z"/>
    <path class="cls-5" d="m266.37,286.63c18.4-6.19,23.03-13.81,23.31-20.82.51-12.82-8.77-18.06-18.31-22.28-2.69-1.19-6.63-3.6-6.68-5.43l-16.22-.05c-.38,1.97-5.91,4.13-8.6,5.55-8.78,4.64-16.18,10.29-15.83,21.44.25,8.17,6.46,17.75,23.88,21.45l18.46.15h0Z"/>
    <path class="cls-3" d="m253.72,293.58l1.67,3.04,4.4-.2,1.47-1.99,6.25,1.61-.38-7.75c19.13-6.19,23.82-15.47,24.11-22.48.53-12.82-8.62-18.89-18.55-23.11-2.8-1.19-7.38-2.83-7.44-4.66-.37,0-.74,0-1.11,0-.06,3.35,2.03,4.84,4.5,6.36,4.81,2.98,13.79,8.94,13.65,14.96-1.6-1.22-4.15-2.91-5.75-3.53,1.11,6.48,1.05,11.26-.68,14.57-2.01-1.11-3.67-1.48-4.61-1.68-.16,5.88-1.82,13.12-7.64,16.24-2.76,1.48-4.33-1.84-4.6-3.12-.52.32-1.89,1.02-3.59,1.27-1.32.2-2.86-.63-3.56-1.5-1.91-2.36-3.18-4.34-4.15-6.32-1.55,1.4-2.1,3.11-3.9,3.12-2.32.02-3.81-3.16-5.04-5.76-1.4,2.43-1.78,4.34-3.86,3.46-1.16-.49-3.62-3.4-3.96-6.69-.49-4.75-4.23-.84-2.92-9.2.98-6.27,7.34-12.58,14.68-16.68,2.53-1.41,5.74-2.28,6.45-5.51-.34,0-.69,0-1.03,0-.39,1.97-5.9,3.19-8.7,4.6-9.13,4.64-16.82,11.24-16.46,22.38.26,8.17,6.47,19.65,24.59,23.35l-.24,6.15,6.38-.95h0Z"/>
    <path class="cls-3" d="m264.44,201.05c-1.66,5.51-3.24,13.23-3.48,19.25,5.62-3.91,11.82-11.58,15.87-16.48,1.41-1.71,3.7-4.71,6.06-4.99,2.61-.31,7.34,8.57,8.33,10.49,1.32,2.55,2.7,5.57,3.32,8.38l.41,1.85-1.81-.56c-1.34-.41-2.66-.94-3.95-1.5-1.32-.57-6.47-3.12-7.6-3.18-1.41-.08-2.62.47-3.69,1.36-2.89,2.73-6.42,5.42-9.28,8.33,4.5-.73,9.45-3.87,13.9-1.92,2.51,1.1,4.29,2.62,6.07,4.66,2.99,3.43,3.58,6.82,4.32,11.12l.6,3.42-2.46-2.45c-4.03-4.01-5.62-5.09-10.82-7.05-1.6-.6-3.65-.87-5.36-1-1.24-.1-6.12-.25-7.22.34-2.17,2.14-2.72,5.09-2.28,8.02l.2,1.32-1.33-.05c-5.05-.2-10.1-.46-15.14-.66l-1.06-.04v-1.06c0-1.76,0-3.52-.11-5.28-.64-1.71-7.21-8.97-8.78-8.87-.68.1-1.33.32-1.94.63-4.66,2.34-7.04,9.47-12.19,12.46l-1.63.95-.03-1.89c-.09-6.14,1.42-13.75,3.49-19.52.66-1.85,2.51-3.34,4.54-3.21,6.14.41,12.36,4.03,17.79,7.21-.48-1.99-1.26-3.92-2.19-5.73-1.82-3.55-4.35-6.92-7.09-9.81-.75-.79-3.59-3.6-4.8-4.18-1.25.91-5.72,6.57-6.62,7.63-1.8,2.14-4.49,5.35-6.86,6.8l-1.93,1.18.26-2.25c1.05-8.98,5.03-18.54,9.98-26.1l.29-.44.53-.05c1.5-.15,3-.02,4.46.4,8.53,2.42,14.35,14.38,18.34,23.31.36-5.51,1.3-11.1,2.97-16.27-.44-1.53-1.53-2.85-.82-4.62.87-2.16,3.33-5.47,5.96-3.8,5.71,3.63,10.33,9.57,13.08,15.69l.88,1.96-2.11-.43c-.9-.18-1.78-.45-2.64-.75-.91-.32-5.01-2.19-6.39-2.63h0Z"/>
    <path class="cls-4" d="m256.69,191.42c.75-1.87,2.64-4.36,4.34-3.28,5.79,3.68,10.18,9.67,12.66,15.21-4.64-.95-9.75-4.51-10.13-3.21-1.88,6.05-3.83,16.13-3.73,22.18,5.56-3.14,12.25-11.01,17.85-17.79,2.45-2.97,3.86-4.42,5.34-4.59,1.66-.19,8.98,11.39,10.44,18.02-4.45-1.37-10.06-4.63-11.82-4.73-1.52-.09-3.01.41-4.49,1.64-3.36,3.18-8.49,7.18-11.13,10.36,5.07.52,11.39-4.15,16.05-2.11,2.69,1.18,4.34,2.83,5.68,4.37,2.96,3.4,3.44,6.97,4.07,10.58-4.66-4.64-6.31-5.46-11.21-7.3-4.06-1.53-12.5-1.43-13.66-.48-2.74,2.64-3.1,6.19-2.67,9.05-5.58-.22-9.56-.44-15.14-.66,0-1.81,0-3.63-.12-5.43-.07-1.18-7.52-10.19-10.04-9.8-6.45.99-8.86,9.93-14.53,13.23-.08-5.43,1.27-13.13,3.43-19.13.61-1.7,2.2-2.56,3.42-2.48,6.28.42,12.25,4.16,19.37,8.27-1.31-11.54-13.79-22.82-15.59-23.04-1.49-.29-9.49,11.86-14.06,14.65.98-8.39,4.71-17.84,9.8-25.62,11.62-1.14,18.51,16.09,23.62,27.4.06-6.55.92-14.15,3.19-21.03-.32-1.42-1.48-2.9-.94-4.25h0Z"/>
  </g>
</svg>