<?xml version="1.0" encoding="UTF-8"?>
<svg id="Layer_2" data-name="Layer 2" xmlns="http://www.w3.org/2000/svg" viewBox="0 0 316.23 316.23">
  <defs>
    <style>
      .cls-1 {
        fill: #fff;
        fill-rule: evenodd;
      }

      .cls-1, .cls-2 {
        stroke-width: 0px;
      }
    </style>
  </defs>
  <g id="Layer_1-2" data-name="Layer 1">
    <g>
      <circle class="cls-2" cx="158.11" cy="158.11" r="158.11"/>
      <path class="cls-1" d="m157.73,16.72c77.84,0,141.01,63.17,141.01,141.01s-63.17,141.01-141.01,141.01S16.72,235.57,16.72,157.73,79.89,16.72,157.73,16.72Zm0,6.61c-18.09,0-35.73,3.57-52.3,10.49-16.04,6.77-30.33,16.5-42.72,28.81-12.31,12.31-22.04,26.68-28.81,42.72-7.07,16.57-10.49,34.13-10.49,52.3s3.57,35.73,10.49,52.3c6.77,16.04,16.5,30.33,28.81,42.72,12.31,12.31,26.68,22.04,42.72,28.81,16.57,7.07,34.13,10.49,52.3,10.49s35.73-3.57,52.3-10.49c16.04-6.77,30.33-16.5,42.72-28.81,12.31-12.31,22.04-26.68,28.81-42.72,7.07-16.57,10.49-34.13,10.49-52.3s-3.57-35.73-10.49-52.3c-6.77-16.04-16.5-30.33-28.81-42.72-12.31-12.31-26.68-22.04-42.72-28.81-16.57-6.92-34.21-10.49-52.3-10.49h0Zm-3.04,242.57l5.63.08,4.48,17.18-3.95-.08-.91-3.88-5.55-.08-.99,3.88-3.65-.08,4.94-17.03Zm-24.86-3.04l5.7.99,1.6,14.14,6.16-12.85,5.7.99-2.89,16.88-3.65-.61,2.43-14.06-6.54,13.38-4.26-.68-1.67-14.75-2.43,14.06-3.19-.53,3.04-16.95Zm46.9,1.52l2.89,2.2,1.6,12.01-2.2,2.89-10.87,1.44-2.36-16.95,10.95-1.6Zm15.2-3.8l2.96,1.6,1.44,5.17-1.44,2.66,4.33,6.23-3.8,1.06-3.95-5.85-3.8,1.06,1.82,6.46-3.72,1.06-4.71-16.5,10.87-2.96Zm-17.1,6.99l-4.79.61,1.52,11.33,4.79-.61.84-1.06-1.22-9.35-1.14-.91Zm-17.48.53l-2.28,8.21,4.18.08-1.9-8.29Zm-45.08-11.93l10.49,4.26-1.06,2.74-6.99-2.81-1.52,3.8,6.31,2.58-1.06,2.74-6.31-2.58-1.6,3.95,6.99,2.81-1.06,2.74-10.49-4.26,6.31-15.96Zm91.98-.53l.99,2.51-2.74,1.14,4.56,10.95,2.74-1.14.99,2.51-8.89,3.72-.99-2.51,2.74-1.14-4.56-10.95-2.74,1.14-.99-2.51,8.89-3.72Zm-13.68,8.13l-4.87,1.37,1.37,4.87,4.79-1.37.61-1.06-.91-3.19-.99-.61Zm24.63-14.29l3.5.91,6.01,10.41-.91,3.5-9.43,5.4-8.51-14.82,9.35-5.4Zm-116.53-.84l9.5,5.4.91,3.5-5.93,10.41-3.5.91-9.5-5.4,8.51-14.82Zm116,4.48l-4.18,2.43,5.7,9.88,4.18-2.43.38-1.37-4.71-8.21-1.37-.3Zm-114.02-.08l-5.63,9.88,4.18,2.43,1.29-.38,4.64-8.21-.38-1.29-4.1-2.43Zm168.15-140.93c5.78,14.06,8.97,29.42,8.97,45.61,0,37.78-17.41,71.46-44.62,93.42l-4.1-5.17c3.12-2.58,6.08-5.17,8.97-8.06,10.41-10.41,18.55-22.5,24.33-35.96,5.85-13.91,8.89-28.81,8.89-44.09s-2.89-29.42-8.51-43.1l6.08-2.66Zm-222.04,0l6.16,2.51c-5.63,13.68-8.51,28.2-8.51,43.1s3.04,30.1,8.89,44.09c5.7,13.45,13.83,25.62,24.33,35.96,2.89,2.89,5.85,5.55,8.97,8.06l-4.1,5.17c-27.29-21.89-44.7-55.57-44.7-93.35,0-16.04,3.19-31.39,8.97-45.53h0Zm82.93,25.24c1.9,0,3.57,1.6,3.57,3.72v72.82c0,.99.38,1.9,1.06,2.66l1.82,1.9c11.86,12.31,31.17,12.31,43.03,0l1.6-1.67c.61-.68.99-1.6.99-2.58v-20.6c0-.99.38-1.9,1.06-2.66l9.27-9.2c1.37-1.37,3.65-1.37,5.02.08l.15.15c.61.68.91,1.52.91,2.51l.15,38.31c0,.99-.38,1.9-.99,2.66l-5.7,5.93c-18.62,19.46-49.03,19.46-67.73,0l-5.93-6.08c-.68-.68-1.06-1.6-1.06-2.66l-.15-81.57c0-1.98,1.6-3.72,3.57-3.72h9.35Zm28.35-25.24c5.09,0,9.96,2.05,13.61,5.85l23.11,23.72,22.88-23.72c3.65-3.72,8.51-5.78,13.53-5.78h12.92c1.9,0,3.57,1.6,3.57,3.72v9.58c0,1.98-1.6,3.72-3.57,3.72h-5.93c-4.33,0-8.51,1.75-11.55,4.94l-17.26,17.86c-1.37,1.44-1.37,3.8,0,5.25l17.18,17.79c3.12,3.19,7.22,4.94,11.55,4.94h6.01c1.9,0,3.57,1.6,3.57,3.72v9.65c0,1.98-1.6,3.72-3.57,3.72h-13c-5.09,0-9.96-2.05-13.61-5.85l-22.73-23.72-23.03,23.72c-3.65,3.72-8.51,5.78-13.61,5.78h-13.07c-1.9,0-3.57-1.6-3.57-3.72v-9.73c0-1.98,1.6-3.72,3.57-3.72h5.93c4.33,0,8.44-1.75,11.55-4.87l17.33-17.86c1.37-1.44,1.37-3.8,0-5.25l-17.18-17.79c-3.12-3.19-7.22-4.94-11.55-4.94h-46.98c-1.9,0-3.57,1.6-3.57,3.72v43.41c0,1.98,1.6,3.72,3.57,3.72h1.22c1.9,0,3.57,1.6,3.57,3.72v10.19c0,1.67-1.37,3.12-3.12,3.12l-34.51.08c-1.98,0-3.57-1.6-3.57-3.72v-9.73c0-1.98,1.6-3.72,3.57-3.72h9.27c1.9,0,3.57-1.6,3.57-3.72v-43.41c0-1.98-1.6-3.72-3.57-3.72h-9.27c-1.9,0-3.57-1.6-3.57-3.72v-9.58c0-1.98,1.6-3.72,3.57-3.72l86.73.08Zm53.06-33.83c1.9,0,3.57,1.6,3.57,3.72v9.58c0,1.98-1.6,3.72-3.57,3.72h-9.12c-1.9,0-3.57,1.6-3.57,3.72v4.71l-.08,21.06c0,.99-.38,1.9-1.06,2.66-1.37,1.37-3.65,1.44-5.02.08l-9.27-9.2c-.68-.68-1.06-1.6-1.06-2.66v-16.57c0-1.98-1.6-3.72-3.57-3.72h-.99c-1.98,0-3.57-1.6-3.57-3.72v-9.58c0-1.98,1.6-3.72,3.57-3.72l33.75-.08Zm52.3,11.48l1.9,3.27-12.09,7.22,3.34,5.63-2.66,1.52-5.25-8.89,14.75-8.74Zm-206.23-1.6l10.26,6.23.84,3.5-5.63,9.27-14.6-8.89,5.7-9.27,3.42-.84Zm80.65-9.88c1.98,0,3.57,1.6,3.57,3.72v9.58c0,1.98-1.6,3.72-3.57,3.72h-.99c-1.9,0-3.57,1.6-3.57,3.72v.99c0,1.98-1.6,3.72-3.57,3.72h-9.2c-1.98,0-3.57-1.67-3.57-3.72v-.99c0-1.98-1.6-3.72-3.57-3.72h-9.27c-1.9,0-3.57-1.6-3.57-3.72v-9.58c0-1.98,1.6-3.72,3.57-3.72h33.75Zm-81.49,13.83l-1.37.3-2.51,4.1,9.73,5.93,2.51-4.1-.3-1.37-8.06-4.87Zm198.93-13.45l3.5,4.41-10.57,14.22-2.43-3.12,2.51-3.12-3.42-4.41-3.65,1.6-2.28-2.89,16.34-6.69Zm-188.9-5.93l11.17,9.35.3,3.57-5.25,6.23-3.57.38-11.25-9.35,2.51-2.96,10.11,8.44,1.37-.15,2.36-2.89-.15-1.37-10.11-8.36,2.51-2.89Zm188.82,9.35l-7.83,3.42,2.58,3.27,5.25-6.69Zm-15.05-19.08l2.89,2.81-3.57,12.39,7.91-8.29,2.51,2.36-11.93,12.39-2.96-2.81,3.72-12.39-7.98,8.29-2.51-2.36,11.93-12.39Zm-160.7-2.58l2.43,9.05,9.35,3.42-3.19,2.96-6.77-2.81,2.2,6.99-3.04,2.81-2.66-9.43-8.74-3.5,3.19-2.89,6.46,2.81-2.05-6.77,2.81-2.66Zm147.93-7.07l7.07,5.02.61,3.57-7.07,9.81-3.57.61-7.07-5.02-.61-3.57,7.07-9.81,3.57-.61Zm-131.81-3.88l1.37,2.28-2.51,1.52,6.31,9.96,2.51-1.52,1.37,2.28-8.13,5.17-1.37-2.28,2.51-1.52-6.31-9.96-2.51,1.52-1.37-2.28,8.13-5.17Zm131.96,7.53l-1.37.23-5.47,7.68.23,1.37,3.34,2.36,1.37-.23,5.47-7.68-.23-1.37-3.34-2.36Zm-14.06-11.63l8.51,4.56-1.22,2.36-2.58-1.37-5.63,10.34,2.58,1.37-1.22,2.36-8.51-4.56,1.22-2.36,2.58,1.37,5.63-10.34-2.58-1.37,1.22-2.36Zm-101.71-3.95l7.22,15.58-3.72,1.67-10.19-7.91,4.87,10.41-3.12,1.44-7.22-15.51,3.65-1.67,10.26,7.75-4.79-10.34,3.04-1.44Zm88.41-1.67l7.83,3.12,1.37,3.27-1.22,3.12-3.57-1.37.76-1.9-.53-1.14-3.65-1.37-1.29.53-3.5,8.82.53,1.29,3.65,1.37,1.14-.53.76-1.98,3.57,1.37-1.22,3.19-3.27,1.37-7.83-3.12-1.44-3.27,4.41-11.25,3.5-1.52Zm-73.2-3.19l.91,2.96-4.48,1.37,4.26,13.38-3.65,1.14-4.26-13.38-4.48,1.37-.91-2.96,12.62-3.88Zm57.62-1.14l5.47,1.29.61,17.79-3.8-.91-.08-3.95-5.4-1.29-1.82,3.5-3.57-.84,8.59-15.58Zm-44.01-1.6l.53,2.89-7.37,1.37.76,3.95,6.77-1.29.53,2.89-6.77,1.29.76,4.26,7.45-1.37.53,2.89-11.17,2.2-3.19-16.8,11.17-2.28Zm22.42-1.22l4.03.38,4.94,11.93.99-11.4,3.42.3-1.52,17.03-4.03-.38-4.94-11.93-.99,11.48-3.42-.3,1.52-17.1Zm-6.84.08l2.58,2.28.3,5.32-1.98,2.28,2.89,7.15-3.95.23-2.58-6.61-3.95.23.38,6.77-3.8.23-.99-17.26,11.1-.61Zm30.63,5.47l-3.95,7.53,4.03.91-.08-8.44Zm-32.84-2.74l-5.02.3.3,5.02,4.94-.23.84-.91-.15-3.34-.91-.84Z"/>
    </g>
  </g>
</svg>