<?xml version="1.0" encoding="UTF-8"?>
<svg id="Layer_2" data-name="Layer 2" xmlns="http://www.w3.org/2000/svg" viewBox="0 0 160.24 160.24">
  <defs>
    <style>
      .cls-1 {
        fill: #231f20;
      }

      .cls-1, .cls-2, .cls-3, .cls-4, .cls-5, .cls-6 {
        fill-rule: evenodd;
        stroke-width: 0px;
      }

      .cls-2 {
        fill: #4da948;
      }

      .cls-3 {
        fill: #afcadf;
      }

      .cls-4 {
        fill: #cb6e2e;
      }

      .cls-5 {
        fill: #fff;
      }

      .cls-6 {
        fill: #f8d8b1;
      }
    </style>
  </defs>
  <g id="Layer_1-2" data-name="Layer 1">
    <g>
      <path class="cls-5" d="m80.07,159.32C36.37,159.32.79,123.71.79,79.97S36.37.65,80.07.65s79.25,35.61,79.25,79.31-35.58,79.35-79.25,79.35h0Z"/>
      <path class="cls-1" d="m27.98,80.54s-.46-1.56-1.54-2.48c-.61-.52-2.21-1.58-2.91-1.93-.69-.35-1.92.07-2.81.07s-1.12-.32-1.22-.52c-.1-.2-.62-.08-.99-.75-.25-.45-.77-1.14.17-2.18.81-.9,1.07-.9,1.46-2.43.4-1.54,1.49-2.23,2.88-2.68.94-.3,2.28-.55,2.97-.2.76.38,1.09.74,2.08.6,1.59-.24,2.18.25,7.54,1.98,5.35,1.73,8.53,1.73,10.96,1.73,5.55,0,6.54-1.14,8.82-.89,2.09.23,4.36,2.28,4.36,2.28l.59.94c.6.94.4,6.54.4,6.54l-32.77-.1h0Z"/>
      <path class="cls-5" d="m19.76,66.73s.1.94.4,1.77c.33.94.37,1.24,1.24,1.64,1.02.47,1.87.47,2.84.33.97-.13,1-.4,1-.8s-.54-.77-1.17-.7c-.64.07-.97.33-2.24-.47-1.09-.69-1.67-1.61-2.07-1.77h0Z"/>
      <path class="cls-1" d="m19.66,66.74s.11.96.41,1.8l.08.24c.27.76.38,1.08,1.21,1.46,1.03.47,1.9.48,2.9.34,1.01-.14,1.09-.45,1.09-.9,0-.18-.09-.36-.25-.5-.25-.23-.64-.34-1.03-.3l-.31.05c-.45.08-.84.15-1.87-.5-.61-.39-1.06-.84-1.41-1.2-.27-.28-.49-.5-.68-.58l-.16-.07.02.17h0Zm1.78,3.31c-.75-.35-.84-.6-1.1-1.34l-.08-.24c-.21-.58-.32-1.22-.37-1.54.13.1.27.25.44.42.34.35.82.83,1.45,1.23,1.09.69,1.51.61,2.01.53l.3-.04c.33-.03.67.06.88.25.12.11.18.23.18.35,0,.35,0,.58-.92.7-.99.14-1.8.13-2.79-.33h0Z"/>
      <path class="cls-1" d="m21.7,65.72s0,.66.17,1.27c.17.6.46,1.2.48,1.22l.04.08,1.75-.53-.08-.11s-.19-.25-.76-.63c-.55-.36-1.41-1.34-1.42-1.35l-.18-.2v.27h0Zm.36,1.21c-.1-.34-.13-.7-.15-.93.29.32.85.91,1.27,1.18.32.21.51.37.61.47-.23.07-1.17.36-1.3.4-.08-.18-.3-.64-.42-1.11h0Z"/>
      <path class="cls-1" d="m105.56,98.28c8.97,0,12.72-4.35,15.06-8.17,2.15-3.5,2.41-4.89,2.41-22.62,0-15.26-.23-15.79,1.83-16.75,1.9-.88,3.09-1.08,3.09-1.08v-.37h-14.09v.4s1.49-.18,2.48,1.07c.98,1.25.77,3.21.77,15.86,0,18.27.47,20.08-.97,22.69-2.49,4.51-5.49,6.16-10.54,6.19h-.6c-5.05-.03-8.06-1.68-10.54-6.19-1.44-2.61-.97-4.42-.97-22.69,0-12.65-.21-14.61.77-15.86.98-1.25,2.48-1.07,2.48-1.07v-.4h-14.09v.37s1.19.2,3.09,1.08c2.06.96,1.83,1.49,1.83,16.75,0,17.74.26,19.12,2.41,22.62,2.34,3.81,6.09,8.17,15.06,8.17h.54Z"/>
      <path class="cls-1" d="m120.65,101.46c4.38,14.83,5.99,26.61.63,33.57-7.44,9.68-18.47,8.03-23.83,3.35-3.13-2.74-4.55-2.14-5.89-.54-1.34,1.61-.8,6.02-.8,6.02h-.4l-4.02-37.21.54-.13s.47,3.14,2.94,10.98c3.35,10.58,9.5,24.5,20.35,21.42,10.44-2.96,9.24-16.6,8.43-22.22-1.45-10.16-17.8-60.37-21.42-76.43-1.56-6.91,2.54-15.53,10.44-17.6,8.01-2.1,11.73,1.66,14.05,2.54,2.48.94,2.34-1,2.34-1.94s-.47-2.74-.47-2.74l.27-.13,7.7,26.3-.27.13s-2.34-6.63-5.82-12.25c-3.48-5.62-9.86-12.69-17.94-9.17-5.22,2.28-5.48,8.98-4.69,13.99,2.81,17.74,14.92,52.19,17.84,62.07h0Z"/>
      <path class="cls-1" d="m114.11,116.6l-18.92-.05v-1.2l2.41-.4c1.5-.09,2.14-1.43,2.14-3.88v-30.92c0-2.68-3.75-2.28-3.75-2.28l-.13-1.69h19.67c4.53,0,8.04.25,10.5.74,2.47.49,4.7,1.3,6.7,2.41,3.18,1.79,5.63,4.18,7.37,7.15,1.74,2.98,2.61,6.3,2.61,9.98s-.87,7.03-2.62,10.02c-1.75,2.99-4.22,5.37-7.42,7.14-1.92,1.06-4.02,1.82-6.31,2.29-2.29.47-5.71.7-10.26.7h-1.98Zm-9.42-37.93v35.74h13.92c3.93,0,7.09-1.2,10.17-2.94,2.96-1.67,8.3-5.35,8.3-15.39s-6.29-13.92-9.91-15.53c-3.39-1.51-5.21-1.87-9.1-1.87h-13.39Z"/>
      <path class="cls-3" d="m64.15,112.79c-.53-.08-.98.4-.54.54.45.13.54.31,1.03.31s.62.18,1.07.22c.45.04,1.12-.13,1.29.13.18.27.71.4.85.18.13-.22.49-.13.8-.31.31-.18.58-.85.4-1.07-.18-.22-.71-.18-1.07-.09-.36.09-.62-.18-1.07-.13-.45.04-.85.36-1.12.13-.27-.22-.89,0-1.07.09-.18.09-.27.04-.58,0h0Z"/>
      <path class="cls-3" d="m63.93,113.99c-.53.05-1.12.13-1.61.13s-1.03.09-1.43.09-.58.13-.18.4c.4.27.67.13,1.25.04.58-.09.71.27,1.07.04.36-.22.8-.13.98-.27.18-.13.4-.49-.09-.45h0Z"/>
      <path class="cls-3" d="m68.35,114.93c-.31-.22-1.65-.18-2.41,0-.76.18-.98.71-1.2.67-.22-.04,0-.31-1.03-.31s-1.34.31-1.83.27c-.49-.04-1.29.18-1.25.4.04.22.27.4,1.2.27.94-.13,1.34-.18,2.23-.18s1.34-.04,1.61-.22c.27-.18,1.29-.45,1.92-.36.62.09,1.38-.09.76-.54h0Z"/>
      <path class="cls-3" d="m66.12,116.53c-.63,0-1.29.22-1.56.49-.27.27-.18.54.49.4.67-.13,1.16-.36,1.7-.31.54.04.94-.09.67-.27-.27-.18-.67-.31-1.29-.31h0Z"/>
      <path class="cls-3" d="m63.26,117.56c-.4.04-.85.13-1.25-.09-.4-.22-1.2.09-1.38.36-.18.27-.18.54.36.4.54-.13.67.09,1.56.09s1.52-.22,1.47-.54c-.04-.31-.31-.27-.76-.22h0Z"/>
      <path class="cls-3" d="m65.85,118.5c-.66-.08-1.52-.09-1.61.18-.09.27-.09.85.45.85s.98-.45,1.38-.31c.4.13.8.58,1.34.31.54-.27.89-.45,1.38-.45s.71-.49,0-.54c-.71-.04-1.16-.13-1.65-.18-.49-.04-.94.18-1.29.13h0Z"/>
      <path class="cls-3" d="m48.18,111.27c-.3-.09-.27.27-.54.18-.27-.09-1.07-.4-1.03,0,.04.4.4.58.89.58s1.87-.4.67-.76h0Z"/>
      <path class="cls-3" d="m43.58,111.36c-.45-.04-.62.31-.85.54-.22.22.22.4.62.22.4-.18.76-.71.22-.76h0Z"/>
      <path class="cls-3" d="m48.54,113.32c-.71-.04-1.38.36-1.61,0-.22-.36-.58-.36-.76-.18-.18.18-.98.18-1.25.45-.27.27,0,.36.22.62.22.27.36.58-.36.58s-1.47.13-2.19.09c-.71-.04-.98.09-.58.49.4.4.76.67,1.34.36.58-.31,1.52-.4,2.01-.36.49.04,1.16-.18,1.07-.45-.09-.27-.98-.94-.31-.76.67.18.98.04,1.12.49.13.45.85.76,1.34.36.49-.4.8-1.65-.04-1.7h0Z"/>
      <path class="cls-3" d="m45.23,116.22c-.57-.09-1.07.18-1.29,0-.22-.18-1.2-.09-1.34.22-.13.31-.4.62.85.62s1.87.18,2.37-.09c.49-.27.94.04.94-.36s-.09-.62-.49-.62-.45.31-1.03.22h0Z"/>
      <path class="cls-3" d="m47.69,115.91c-.3.13-.58.49-.04.58.54.09.94.18,1.21-.13.27-.31.13-.63-.4-.63s-.45.04-.76.18h0Z"/>
      <path class="cls-3" d="m48.22,116.85c-.45,0-.62.13-.89.22-.27.09-.09.31.54.31s1.43-.54.36-.54h0Z"/>
      <path class="cls-3" d="m42.11,117.78c-.58,0-1.34-.04-1.78.22-.45.27-.58.58,0,.62.58.04.98.27,1.12.04.13-.22.4-.36.62-.18s.89-.13.71-.36c-.18-.22-.22-.36-.67-.36h0Z"/>
      <path class="cls-3" d="m48.71,117.96c-.53-.09-1.65.36-2.54.31-.89-.04-1.21.62-1.29.85-.09.22.54.71.09.71s-2.54,0-3.26-.09c-.71-.09-1.74.4-1.74.67s.27.18,1.47.27c1.2.09,3.52.45,3.97.04.45-.4.36-.98.71-.98s.98-.36,1.03.27c.04.62-.22,1.29.76,1.12.98-.18,1.25-.22,1.07-.8-.18-.58-.89-.31-.62-.71.27-.4,1.16-1.52.36-1.65h0Z"/>
      <path class="cls-3" d="m21.27,111.31c-.5.05-1.29.45-.98.58.31.13.89.31,1.16-.04.27-.36.31-.58-.18-.54h0Z"/>
      <path class="cls-3" d="m21.14,114.21c-.41.25-.94.71-.63.71s.58.04,1.21-.09c.62-.13.85-.45.31-.67-.54-.22-.67-.09-.89.04h0Z"/>
      <path class="cls-3" d="m27.25,111.89c-.41-.06-1.03-.04-.94.36.09.4.54.45.94.45s.58-.71,0-.8h0Z"/>
      <path class="cls-3" d="m25.65,113.68c-.81,0-1.65.18-1.65.4s.45.36,1.43.45c.98.09,1.74-.27,1.2-.49-.54-.22-.63-.36-.98-.36h0Z"/>
      <path class="cls-3" d="m22.84,117.07c-.4,0-.8.05-1.12.45-.31.4-.89.45-1.25.49-.36.04-.98-.09-.94.4.04.49.54.89.94.8.4-.09.89-.58,1.12-.36.22.22.71.45.71,0s.04-.27.58-.04c.54.22,1.43.04.94.45-.49.4-1.25.27-1.78.22-.54-.04-2.14.22-2.45.63-.31.4-.62,1.2.58,1.2s1.78-.09,1.96-.49c.18-.4,1.29-.62,2.1-.62s.8-.22,1.61-.13c.8.09,1.25,0,1.56-.13.31-.13,1.07.18.67-.4-.4-.58-1.03-.45-1.74-.36-.71.09-1.47.04-.98-.31.49-.36.85-.4,1.43-.18.58.22.71.36,1.12.18.4-.18.89-.31.8-.76-.09-.45-.89-.27-.85-.62.04-.36.76-1.07-.31-.94-1.07.13-2.28.31-2.81.85-.53.54-.62.76-1.29.49-.67-.27-.71-.45-.49-.49.22-.04.49-.31-.09-.31h0Z"/>
      <path class="cls-3" d="m21.5,115.69c-.4.08-1.03-.4-.94.09.09.49,0,.76.67.71.67-.05,1.43.04,1.47-.31.04-.36-.49-.63-1.2-.49h0Z"/>
      <path class="cls-3" d="m79.41,124.07s-3.35.18-5.62-.09c-2.28-.27-3.21-.13-3.75-.58-.54-.45-.71-.85-.67-1.2.05-.36-.76-.13-1.2-.04-.45.09-1.34.04-1.56-.13-.22-.18.04-.45.71-.63.67-.18,1.38-.13,1.12-.8-.27-.67-.18-.94-.98-.71-.8.22-1.61.13-2.05.13s-.45.67-1.7.98c-1.25.31-2.86.31-2.68.63.18.31.58,1.03-.13.98-.71-.04-10.26-.98-12.27-.98s-3.03.13-5-.13c-1.96-.27-3.03-.22-4.73-.09-1.7.13-8.66-.45-9.82-.54-1.16-.09-2.14-.67-3.79-.18-1.65.49-1.07,1.07-2.32,1.12-1.25.05-1.7-.49-2.68-.09-.98.4-1.25.98-1.7.98s-3.79,3.79-2.01,5.85c1.78,2.05,9.41,10.57,15.13,14.63,5.71,4.06,6.38,4.15,6.38,4.15,0,0,.18-.27,1.03-.85.85-.58,1.83-.54,2.72-.18.89.36,2.01-.04,3.35.04,1.34.09,3.21,0,4.24-.27,1.03-.27,1.65-.94,1.65.04s-.04,1.78-.71,1.52c-.67-.27-.4-.58-2.63-.58s-4.28.09-4.19.54c.09.45,1.47.54,1.78.94.31.4.71.67.49,1.38-.22.71-.54,1.38-.54,1.38l2.19,1.29s.27-.58.54-1.34c.27-.76,0-1.16.45-1.16s1.12.27,1.47,0c.36-.27.85-.4,1.52.13.67.54,1.52,1.29.94,2.23-.58.94-1.03,1.74-1.03,1.74l8.39,2.59s.27-.67.62-1.38c.36-.71.58-1.07.22-1.52-.36-.45-.04-.67.31-.67s1.29.09,1.61.63c.31.53.45.89,1.16.76.71-.13,1.07-.31,2.5-.13,1.43.18,2.45.05,3.39.05s1.65.13.89.31c-.76.18-1.74.49-2.54.58-.8.09-1.38,1.07-.94,1.21.45.13,1.12,0,1.78-.4.67-.4,1.83-.76,2.41-.36.58.4,1.74.45,3.26.45s3.26.22,4.02.05,1.03-.22,1.03-.22l.09-5.49s-1.92.22-2.41-.09c-.49-.31-.62-1.96.45-2.05,1.07-.09,1.87-.13,1.87-.13l-.04-24.27h0Z"/>
      <path class="cls-3" d="m61.52,70.67c-.45-.02-.67.13-.54.36.13.22.62.63.89.27.27-.36.54-.58-.36-.62h0Z"/>
      <path class="cls-3" d="m45.99,64.95c-.87-.36-2.19.22-2.45.4-.27.18-.54.62.22.54.76-.09,1.7-.13,2.41.04.71.18,1.56-.27-.18-.98h0Z"/>
      <path class="cls-3" d="m40.77,66.38c-.45,0-.85.67-.31.89.54.22,1.2.13,1.07-.27-.13-.4-.31-.63-.76-.63h0Z"/>
      <path class="cls-3" d="m40.46,68.57c-.66.18-.89.36-.4.67.49.31.98.04,1.2-.4.22-.45-.31-.4-.8-.27h0Z"/>
      <path class="cls-3" d="m37.38,66.47c-.45,0-1.34.27-2.41.18-1.07-.09-1.38,0-2.59,0s-3.88-.13-3.66.22c.22.36.8.76,1.38.62.58-.13.85-.18,1.34.04.49.22,1.47.45,1.96.04.49-.4.76-.49,1.38-.13.62.36,1.7.22,2.23-.13.54-.36.76-.85.36-.85h0Z"/>
      <path class="cls-3" d="m37.87,64.82c-.44-.04-1.78.04-1.65.54.13.49.54.8,1.34.49.8-.31,1.29-.94.31-1.03h0Z"/>
      <path class="cls-3" d="m34.93,65.04c-.48-.24-1.52-.04-2.05.09-.54.13-1.25.58-1.74.4-.49-.18-2.23-.36-2.59-.09-.36.27-.76.49.27.49s1.43.22,2.1.22,1.52-.09,2.32-.36c.8-.27,1.7.04,1.83-.09.13-.13.22-.49-.13-.67h0Z"/>
      <path class="cls-3" d="m43.67,62.68c-.94-.06-2.36,0-3.61.13-1.25.13-2.77.4-3.17.18-.4-.22-1.38.22-2.36.22s-3.84-.09-4.64.04c-.8.13-3.08.13-2.99.62.09.49.13.62.98.45.85-.18,2.45-.36,3.61-.22,1.16.13,1.92.22,2.63,0,.71-.22,1.56-.04,2.9-.04s2.68-.67,3.93-.62c1.25.04,2.9.31,3.08-.13.18-.45.31-.58-.36-.62h0Z"/>
      <path class="cls-3" d="m41.58,60.8c-.81,0-2.72-.09-2.72.36s.45.98.98.89c.54-.09,1.16-.4,1.74-.49.58-.09,1.16-.76,0-.76h0Z"/>
      <path class="cls-3" d="m41.44,58.66c-.63-.2-1.78.13-3.26.18-1.47.04-3.17.04-2.59.49.58.45.98.49,1.61.4.63-.09.94-.36,1.78-.13.85.22,1.07-.09,1.38-.13.31-.04,1.03.31,1.2.13.18-.18.45-.76-.13-.94h0Z"/>
      <path class="cls-3" d="m34.75,61.65c-.14-.33-2.41.09-4.24-.04-1.83-.13-3.48-.04-4.06-.27-.58-.22-2.28-.22-3.12,0-.85.22-3.08.36-4.82.45-1.74.09-2.5,0-1.43.54,1.07.54,1.65.8,2.19.36.54-.45.76-.4,2.28-.4s2.14.09,2.81.09,1.25-.49,2.14-.27c.89.22,1.52.22,2.94.18,1.43-.04,2.05,0,2.72.13.67.13,2.72-.45,2.59-.76h0Z"/>
      <path class="cls-3" d="m15.87,65.09c-.71,0-1.87.04-2.68-.05-.8-.09-2.77-.22-4.28-.04-1.52.18-1.87.18-3.12.04-1.25-.13-2.1.22-1.56.45.54.22,1.7.13,2.9.31,1.2.18,2.63.54,3.52.36.89-.18,1.07-.58,2.01-.49.94.09,3.12.31,3.48,0,.36-.31.62-.58-.27-.58h0Z"/>
      <path class="cls-3" d="m12.13,67.01c-.3-.08-.27.13-.8.13s-.89-.18-1.29-.04c-.4.13-.62.31-1.43.27-.8-.04-1.16-.31-1.87-.04-.71.27-1.25.58-.45.62.8.04,2.05-.22,2.59-.13.54.09.89-.18,1.65.13.76.31,1.74.36,2.1.18.36-.18.94-.71-.49-1.12h0Z"/>
      <path class="cls-3" d="m14.8,70.22c-.66-.08-2.1-.18-2.63-.04-.54.13-.98.09-1.56-.18-.58-.27-1.87-.13-2.63-.09-.76.04-1.16-.13-2.01-.09-.85.04-1.74.36-1.34.67.4.31.98.49,1.52.27.54-.22.71-.18,1.03,0,.31.18.89.09,1.25-.05.36-.13.45-.09,1.2.05.76.13,1.78.31,2.9.13,1.12-.18,3.75-.49,2.28-.67h0Z"/>
      <path class="cls-3" d="m10.61,72.67c-1.2-.08-3.93.27-4.73.04-.8-.22-.85.09-.62.27.22.18.85.09,1.29.36.45.27.8.45,1.96.31,1.16-.13,2.32-.45,2.99-.49.67-.05,1.2.22,1.52.49.31.27,1.25-.09,1.47-.45.22-.36-.71-.71-1.87-.58-1.16.13-1.29.09-2.01.04h0Z"/>
      <path class="cls-3" d="m31.67,58.22c-.4-.02-.27.31-1.38.36-1.12.04-3.26.09-4.06.31-.8.22-1.03.58-.18.62.85.04.89-.27,2.63-.22,1.74.04,2.68.49,3.12.49s.94-1.52-.13-1.56h0Z"/>
      <path class="cls-3" d="m17.53,59.96c-.54,0-.67.27-2.45.4-1.78.13-2.36.22-2.99.13-.62-.09-1.16-.4-2.14,0-.98.4-1.65.22-2.77.13-1.12-.09-2.28.04-2.99-.27-.71-.31-1.2-.49-1.2-.49l-.67,1.83s.31.13,1.03.13,2.72.13,4.02,0c1.29-.13,2.28-.54,2.77-.45.49.09.94.09,2.14-.09,1.2-.18,3.48-.54,4.24-.31.76.22,1.7.22,1.83-.36.13-.58-.54-.67-.8-.67h0Z"/>
      <path class="cls-3" d="m24.26,58.75c-.53-.02-1.16.31-1.47.13-.31-.18-.98-.62-1.78-.45-.8.18-1.43.09-2.05.04s-1.34-.4-2.36-.36c-1.03.04-.94.31-2.86.36-1.92.04-3.52,0-4.55,0s-2.59,0-2.99-.22c-.4-.22-.89,0-1.25,0s-1.38-.13-1.38-.13l-.36,1.12s.8-.13,1.74-.13,1.87.31,2.36.27c.49-.04,1.56-.31,2.19-.13.63.18,1.83.31,2.5.13.67-.18,1.79.09,2.28,0,.49-.09.98-.49,2.05-.31,1.07.18,2.01.4,3.57.31,1.56-.09,2.77.31,3.57.13.8-.18,1.87-.71.8-.76h0Z"/>
      <path class="cls-3" d="m4.14,56.48s.45-.13,1.79-.27c1.34-.13,3.21-.22,3.93-.09.71.13,1.16-.13,1.78,0,.62.13,1.16.62.31.94-.85.31-1.34.45-1.78.18-.45-.27-.71-.54-1.38-.4-.67.13-1.74.22-2.28.13-.54-.09-1.03-.09-1.83.18-.8.27-1.12.22-1.12.22l.58-.89h0Z"/>
      <path class="cls-3" d="m40.28,56.21c-.44.04-1.16.27-2.86.22-1.7-.04-2.9-.09-2.9-.4s1.12-.58,1.87-.71c.76-.13,1.38-.09,1.7-.45.31-.36.76-.31,1.03-.18.27.13.8-.13.62-.54-.18-.4-1.2-.67-2.81-.67s-7.9.45-8.97.4c-1.07-.04-3.97.31-5.26.18-1.29-.13-6.07-.22-6.96,0-.89.22-1.92.54-3.39.31-1.47-.22-3.26-.13-4.73,0-1.47.13-2.01.36-1.43.62.58.27,1.2.4,2.28.13,1.07-.27,2.45-.45,3.52,0,1.07.45,1.92.62,4.19.4,2.28-.22,4.06-.58,6.02-.22,1.96.36,4.91.49,6.2.67,1.29.18,1.92.45.27.54-1.65.09-2.9.18-3.7.04-.8-.13-1.52.22-3.61.18-2.1-.04-2.81.04-2.5.36.31.31,1.34.49,5,.49s8.43.04,8.88-.18c.45-.22.45-1.03.71-1.03s.54.58,1.25.58,1.96.22,3.79.13c1.83-.09,2.54.04,2.54-.45s-.27-.49-.76-.45h0Z"/>
      <path class="cls-3" d="m37.96,51.97c-.44-.08-1.25.09-1.83-.09-.58-.18-2.32-.31-3.66-.13-1.34.18-1.96.36-1.61,0,.36-.36,1.07-1.03.45-1.03s-1.43.31-4.1.36c-2.68.05-4.95-.31-5.85-.71-.89-.4-3.44-.4-5.35-.36-1.92.04-4.33.13-5.89.04-1.56-.09-2.63.18-2.86.49-.22.31.22.49,1.03.49s1.52-.27,2.1-.04c.58.22.8.49,1.92.27,1.12-.22,2.28-.49,4.68-.36,2.41.13,3.79.09,3.7.4-.09.31.05.58-2.9.54-2.94-.04-6.02-.22-7.76.13-1.74.36-1.61.54-2.36.62-.76.09-1.78.4-1.12.71.67.31,1.7.22,3.84.13,2.14-.09,3.88-.58,5.18-.4,1.29.18,1.78.13,3.08-.22,1.29-.36,2.05-.22,4.24-.18,2.19.05,3.93.36,5.31.49,1.38.13,1.78.27,3.61-.13,1.83-.4,2.1-.67,3.39-.36,1.29.31,2.32.49,2.77.05.45-.45.71-.58,0-.71h0Z"/>
      <path class="cls-3" d="m37.34,49.56c-1.01.2-2.05.62-2.54.49-.49-.13-2.01-.54-2.1.13-.09.67.63.8,1.52.8s1.16,0,1.96.22c.8.22,1.29.18,2.32-.18,1.03-.36,1.21-.94,1.03-1.25-.18-.31-1.74-.31-2.19-.22h0Z"/>
      <path class="cls-3" d="m7.98,46.88s.31.4.89.58c.58.18,2.1.22,3.97.31,1.87.09,3.03.04,3.7.36.67.31,1.87.4,3.21.09,1.34-.31,1.47-.49,1.07-1.03-.4-.54-.76-.27-1.16-.13-.4.13-1.56.13-3.03-.67-1.47-.8-3.57-.71-4.33-.85-.76-.13-2.23-.89-.94-.98,1.29-.09,3.61-.18,4.46-.13.85.04,1.78.98,2.41.85.62-.13,1.38-.76.18-1.43-1.2-.67-3.39-.71-4.91-.4-1.52.31-2.72.58-3.3,0-.58-.58-.76-.45-.76-.45,0,0,2.01-3.84,4.15-6.96,2.14-3.12,3.44-4.02,3.44-4.02,0,0,1.16.27,1.87.27s.85.09,2.05.18c1.2.09,1.96.27,2.36-.18.4-.45.27-.67-.76-.89-1.03-.22-2.63-.04-3.7-.09-1.07-.04-1.16-.31-1.16-.31l.94-.85s.4.09.94.04c.54-.04.85-.05,1.12.18.27.22.94.49,1.25.09.31-.4.31-.54-.18-.8-.49-.27-.94-.18-1.25-.18s-1.25-.13-1.25-.13c0,0,5.89-7.36,9.77-10.31,3.88-2.94,16.29-12.18,34.31-16.29,7.38-1.68,16.11-1.38,16.11-1.38l-.04,37.03s-16.91,5.89-26.64,7.09-11.56,1.2-12.94,1.83c-1.38.62-2.63,1.12-4.24,1.07-1.61-.05-1.83.22-1.96.58-.13.36-2.32,1.03-3.57,1.12-1.25.09-5.58-.22-6.78-.31-1.2-.09-2.59-.8-3.61-.8s-2.19.09-2.77.09-1.34-.45-2.28-.54c-.94-.09-2.5.27-4.06-.04-1.56-.31-3.21-.31-3.21-.31l.62-1.29h0Z"/>
      <path class="cls-5" d="m39.3,41.53c-1.07.08-1.92-.05-1.61.49.31.54,1.47.85,2.19.67.71-.18,1.16-.36,1.96-.36s.98-.13.85-.45c-.13-.31-1.12-.22-1.87-.27-.76-.04-.89-.13-1.52-.09h0Z"/>
      <path class="cls-5" d="m25.42,45.99c-.46.31-.71.45,0,.71.71.27,1.34.22,2.19.05.85-.18,2.32-.31,3.93-.27,1.61.04,2.77-.05,4.24-.13,1.47-.09,3.21-.27,3.79-.71.58-.45.09-.58-.71-.49-.8.09-4.1.45-5.09.27-.98-.18-2.63.27-3.97.54-1.34.27-2.45.09-3.08-.04-.63-.13-1.16,0-1.29.09h0Z"/>
      <path class="cls-5" d="m30.11,48.44c-1.02.13-3.26-.22-2.99.31.27.54.49.45,1.7.45s2.99-.09,3.39-.22c.4-.13.94-.09.94-.36s-.45-.49-1.25-.45c-.8.05-1.43.22-1.79.27h0Z"/>
      <path class="cls-5" d="m35.24,47.64c.29.22,1.16.22,1.96.13.8-.09,1.61-.22,2.1-.67.49-.45.62-.71-.67-.4-1.29.31-2.28.45-2.77.49-.49.04-.8.31-.62.45h0Z"/>
      <path class="cls-5" d="m42.47,144.64c-.28-.02-.89.36-.04.71.85.36.76.49,1.7.18.94-.31,1.74-.31,2.36-.27.62.04,1.61-.31,1.52-.62-.09-.31-.45-.76-1.38-.63-.94.13-3.53.67-4.15.63h0Z"/>
      <path class="cls-5" d="m60.23,139.02c.64-.21,1.12-.71,1.83-.31.71.4.8.94,1.7,1.03.89.09,1.61.09,1.52.4-.09.31-.49.62-1.43.45-.94-.18-1.78-.45-2.68-.49-.89-.05-1.21-.98-.94-1.07h0Z"/>
      <path class="cls-5" d="m63.04,142.86c.68.08,1.2.18,2.01,0,.8-.18,1.52,0,1.7.31.18.31.4.76-.58.8-.98.04-2.54.4-2.9-.09-.36-.49-.58-1.07-.22-1.03h0Z"/>
      <path class="cls-5" d="m63.53,148.17c.76-.08,1.61-.09,1.7.22.09.31.13.71-1.03.8-1.16.09-2.41.04-2.5-.4-.09-.45.13-.49.76-.49s.67-.09,1.07-.13h0Z"/>
      <path class="cls-5" d="m61.97,150.09c.79-.16,1.96-.45,3.08-.45s1.7.27,1.61.76c-.09.49-.36.67-1.52.67s-1.87.27-2.81.09c-.94-.18-1.25-.89-.36-1.07h0Z"/>
      <path class="cls-5" d="m65.85,152.09c.67.17.8.27.89.71.09.45-.36.49-.85.49s-.67-.18-.76-.71c-.09-.54.54-.54.71-.49h0Z"/>
      <path class="cls-5" d="m68.53,153.08c.89-.16,2.05-.09,2.5-.22.45-.13,1.29-.18.98.36-.31.54-.89.63-1.65.67-.76.04-1.2.13-1.74-.22-.54-.36-.58-.49-.09-.58h0Z"/>
      <path class="cls-5" d="m68.84,151.43c.89-.17,1.43-.45,1.83-.09.4.36.8,1.03.13,1.03s-1.29.31-1.83,0c-.54-.31-.85-.8-.13-.94h0Z"/>
      <path class="cls-5" d="m70.71,147.28c.57.13,1.29.22.85.8-.45.58-.98.71-1.29.13-.31-.58-.36-1.12.45-.94h0Z"/>
      <path class="cls-6" d="m28.37,140.05s.22-.8.94-1.03c.71-.22,2.5-.89,5.62-.76,3.12.13,4.64,0,4.42.45-.22.45-.76,1.16-1.21,1.21-.45.04-1.07-.27-2.01-.31-.94-.04-2.54.4-2.01.76.54.36,1.38.45,2.45.4,1.07-.04,1.34.09,1.65.54.31.45.89.49.89-.04s.4-1.2.63-.89c.22.31.85,1.52.31,1.87-.54.36-1.07.62-2.28.22-1.2-.4-2.05.09-1.7.45.36.36,1.12.58,2.86.58s3.52.31,2.54,1.03c-.98.71-1.92.8-3.12,1.25-1.21.45-1.65.89-1.65.89,0,0-2.14-.67-4.55-2.5-2.41-1.83-3.79-4.11-3.79-4.11h0Z"/>
      <path class="cls-6" d="m59.51,137.06s1.65.36,1.56.71c-.09.36-.22.58-1.29.49-1.07-.09-1.56.09-1.52.45.04.36.54.63,1.03.4.49-.22.76-.09.8.4.04.49,1.65.71.8.85-.85.13-2.01-.18-3.26-.31-1.25-.13-2.99-.49-4.42-.31-1.43.18-1.92-.18-2.1-.71-.18-.54-1.83-1.03.8-.98,2.63.04,7.59-.98,7.59-.98h0Z"/>
      <path class="cls-6" d="m57.06,140.81c.85.14,1.03.62,2.1.62s1.56-.04,1.74.22c.18.27-.4.8-1.2,1.07-.8.27-2.05.49-2.94.13-.89-.36-1.83-.71-2.45-.62-.62.09-1.61.18-2.01-.22-.4-.4-.58-.62.89-.53,1.47.09,2.63-.13,3.03-.18.4-.04.04-.62.85-.49h0Z"/>
      <path class="cls-6" d="m58.98,143.88c.93-.15,2.5.36,2.45.62-.04.27.04.85-2.14.8-2.19-.04-3.88-.09-4.82-.71-.94-.62-.45-1.07.13-.98.58.09.49.63,1.25.31.76-.31.8-.31,1.47-.04.67.27,1.38.04,1.65,0h0Z"/>
      <path class="cls-6" d="m53.49,144.91c.34.11,1.29,1.2.54,1.47-.76.27-1.16.62-1.96.18-.8-.45-.89-.94-.18-1.25.71-.31,1.34-.49,1.61-.4h0Z"/>
      <path class="cls-6" d="m52.15,147.36c.58.23,1.38-.18,1.87-.09.49.09.49.04,1.29-.09.8-.13,1.78,0,2.19-.09.4-.09,1.29,0,1.7.18.4.18.76.31-.13.54-.89.22-.45.36.18.36s1.16.4,1.12.58c-.04.18-1.38.27-2.14.31-.76.04-2.54-.76-2.77-.54-.22.22-.71.62-.13.8.58.18,1.29.4,1.87.67.58.27,1.38.18,2.19.13.8-.04,1.96-.04,1.65.45-.31.49-1.03.76-2.68.53-1.65-.22-3.93,0-5.22.31-1.29.31-1.78,0-2.41-.4-.62-.4-.98-.62.18-.85,1.16-.22,2.19-.62,2.59-.58.4.05,1.03-.22.8-.54-.22-.31-.98-.49-2.05-.36-1.07.13-1.34,0-1.12-.62.22-.62.8-.8,1.03-.71h0Z"/>
      <path class="cls-6" d="m55.23,155.17s.45-.8.58-1.87c.13-1.07.27-1.56.89-1.43.62.13,1.87.54,2.68.54s1.56,0,1.65.45c.09.45.04,1.21-.8,1.25-.85.04-1.52.49-1.87,1.25-.36.76-.45.89-.45.89l-2.59-.89-.09-.18h0Z"/>
      <path class="cls-4" d="m50.28,138.4s-.62.27-.62,1.34.98,1.65.71,1.92c-.27.27-1.03.58-.62,1.29.4.71.89,1.03.85,2.05-.04,1.03-.13,3.97.54,3.08.67-.89.49-1.12.36-2.23-.13-1.12-.13-1.56-.36-1.83-.22-.27-.09-.67.22-.89.31-.22.62-1.03.04-1.03s-.8-.4-.4-.67c.4-.27,1.03-.94.8-1.96-.22-1.03-.4-1.56-.4-1.56,0,0-.71.18-1.12.49h0Z"/>
      <path class="cls-6" d="m79.41,137.91s-7.23-.09-7.85.36c-.62.45-.67,1.29.31,1.2.98-.09,1.43-.04,3.3-.13,1.87-.09,4.24,0,4.24,0v-1.43h0Z"/>
      <path class="cls-6" d="m79.46,139.56s-.4.13-.58.22c-.18.09-.62.4-1.2.36-.58-.04-.94.18-1.47.31-.54.13-1.92.4-2.72.45-.8.04-1.12.04-1.52.22-.4.18-1.7.85-.54,1.16,1.16.31,1.25.8,1.07.89-.18.09-1.07.09-1.07.09,0,0-1.12,1.16-.18,1.16s1.61.05,2.41-.13c.8-.18,1.2-1.03,1.78-1.16.58-.13,2.19.18,2.63.53.45.36,1.12.71.36,1.03-.76.31-2.54.04-3.66.18-1.12.13-2.77.22-2.99.54-.22.31-.8,1.16.58,1.16s3.03-.13,3.97-.27c.94-.13,3.17-.13,3.17-.13l-.04-3.44s-.89.04-.98-.45c-.09-.49,1.03-.45,1.03-.45l-.04-2.28h0Z"/>
      <path class="cls-6" d="m79.46,147.86s-1.03-.22-2.23-.22-5.4,0-5.62.09c-.22.09-1.07.58-.31.71.76.13,1.61.22,2.81.18,1.21-.04,1.43.49.98.67-.45.18-1.2.36-1.87.18-.67-.18-1.03.04-1.2.4-.18.36-.22.89.49.71.71-.18,1.61-.13,1.52.27-.09.4-.49.62-1.16.49-.67-.13-1.78-.45-2.01-.18-.22.27-.4,1.12.8,1.29,1.21.18,1.78.18,3.03.18s2.05.09,1.61.36c-.45.27-1.12.4-.62.62.49.22.94.67.18.71-.76.04-2.94-.13-3.75.13-.8.27-1.7.54-.71.67.98.13,2.19.62,4.64.45,2.45-.18,3.35-.45,3.35-.45l.09-2.19s-1.52-.09-1.74-.8c-.22-.71.22-.85.85-.85h.89l.04-1.34s-.62.45-1.2.27c-.58-.18-1.43-.85-.54-.98.89-.13,1.7-.4,1.7-.4v-.98h0Z"/>
      <path class="cls-4" d="m69.06,137.99c.66.08,1.43,0,2.14.31.71.31,1.07.54.8.94-.27.4-.58.71-1.47.18-.89-.54-1.56-.71-1.65-.98-.09-.27-.18-.49.18-.45h0Z"/>
      <path class="cls-4" d="m70.35,140.31c.66.09,1.87.18,1.78.85-.09.67-.54.94-.54,1.34s.31.76.13,1.34c-.18.58-.67,1.03-.58,1.47.09.45.8,1.25,0,.98-.8-.27-1.12-.18-1.12-.89s.67-.45.4-1.2c-.27-.76-.36-1.25-.13-1.47.22-.22.67-.58.27-.98-.4-.4-1.16-1.56-.22-1.43h0Z"/>
      <path class="cls-2" d="m79.26,37.91s-.87-.27-1.47-.54c-.6-.27-1.07,0-1.61-.07-.54-.07-1.54-.67-2.14-.87-.6-.2-1.14.47-1.41.13-.27-.33-.25-.92-1.34-.87-1.54.07-2-.94-2.61-.94-.87,0-1.54-.47-3.61-.4-2.07.07-2.49.28-3.08.87-.33.33-.94.2-1.61.33-.67.13-.54.74-1.2.54-.67-.2-1.34-.07-1.94.2-.6.27-1,.47-1.61.54-.6.07-1.34.47-1.94.47s-.94.33-1.61.47c-.67.13-1.74-.13-2.01.2-.27.33-.54.47-.8.27-.27-.2-1.2.33-1.47.54-.27.2.32.26-1.34,1.41-1.94,1.34-3.35,1.74-3.35,2.01,0,.47-1.61,2.01-1.94,2.61-.34.6-1.14,2.14-1.14,2.61s.6,1,.33,1.54c-.27.54-.67,1.27-.74,2.41-.07,1.14.74,1.47.74,1.81s.09,1.96.47,2.34c.6.6.27,1.05.67,1.94.33.74.73,1.68,1.07,1.94.54.4,1,.87,1.14,1.47.13.6.94.87,1.94,1.67,1,.8,1.67,1.61,1.81,2.07.13.47.8.6,1,.94.2.33.79.93,1.41,1,.54.07.87-.2,1.34.07.47.27.94.4,1.41.13.47-.27,1.27-.27,1.61.27.33.54.87.6,1.54.67.67.07,1.14.27,1.34.47.2.2.74-.13,1.07,0,.33.13.6.07.87,0,.27-.07.8.07,1.21.2.4.13,1.07.2,1.34-.07.27-.27.87-.13,1.34-.27.47-.13.94-.8,1.41-.87.47-.07,1.41-.33,2.01.47.6.8.8,1.61,1.34,1.67.54.07,1.34-1.07,2.14-1.2.8-.13,1.74-.67,2.28-.47.54.2.94,0,1.34-.2.4-.2.47.13,1,.13s1.27-.27,2.01-.6c.74-.33.87-.74,1.67-.6.8.13,1.14.2,1.14.2v-28.65h0Z"/>
      <path class="cls-6" d="m77.65,46.31c-.11.07-.47.3-.43.7.03.4.13.67.5.67s.34-.17.17-.4c-.17-.23-.3-.33-.17-.57.13-.23.13-.53-.07-.4h0Z"/>
      <path class="cls-6" d="m76.58,46.38c-.13.01-.5.13-.47.5.03.37.17.57.3.77.13.2.37.3.5.23.13-.07-.07-.37-.07-.7s.07-.84-.27-.8h0Z"/>
      <path class="cls-6" d="m73.87,47.38c-.2-.01-.17.33-.2.64-.03.3-.07,1.07.2,1.1.27.03.27-.2.27-.7s.3-1-.27-1.04h0Z"/>
      <path class="cls-6" d="m72.8,46.68c-.16.13-.5.17-.57.77-.07.6-.37,1.37-.13,1.71.23.33.47.54.64.33.17-.2-.13-.3-.1-.57.03-.27.4-.17.33-.7-.07-.53,0-.8.1-1.07.1-.27-.1-.6-.27-.47h0Z"/>
      <path class="cls-6" d="m71.49,47.59c-.24.02-.27.37-.33.64-.07.27-.4,1.1-.17,1.31.23.2.5.47.47-.1-.03-.57.13-.9.23-1.17.1-.27.17-.7-.2-.67h0Z"/>
      <path class="cls-6" d="m70.02,48.49c-.21.09-.43.33-.27.5.17.17.4.2.54-.1.13-.3.03-.54-.27-.4h0Z"/>
      <path class="cls-6" d="m69.02,47.55c-.17,0-.7.54-.67,1.07.03.54.27,1.14.57,1.2.3.07.33-.27.17-.6-.17-.33,0-.6.13-.8.13-.2-.03-.87-.2-.87h0Z"/>
      <path class="cls-6" d="m67.98,47.49c-.17,0-.7.3-.74.9-.03.6-.03,1.17.37,1.34.4.17.2-.2.13-.54-.07-.33.07-.47.27-.9.2-.43.2-.8-.03-.8h0Z"/>
      <path class="cls-6" d="m66.1,47.89c-.12.06-.37.27-.37.6s.2.5.1.7c-.1.2-.07.74.23.74s.23-.17.23-.44.23-.27.23-.54-.27-.37-.3-.64c-.03-.27.07-.54-.13-.44h0Z"/>
      <path class="cls-6" d="m62.16,48.05c-.16.05-.5.3-.54.77-.03.47.13.77.43.8.3.03.27-.1.17-.4-.1-.3.3-.13.27-.53-.03-.4-.13-.7-.33-.64h0Z"/>
      <path class="cls-6" d="m62.06,46.95c-.1,0-.3.2-.6.37-.3.17-.7.27-.8.74-.1.47-.13,1.2.13,1.17.27-.03.3.03.33-.53.03-.57.2-.77.4-.77s.2-.2.37-.4c.17-.2.4-.57.17-.57h0Z"/>
      <path class="cls-6" d="m59.85,48.02c-.13.04-.33.1-.43.6-.1.5-.13.84.17,1.04.3.2.23.03.3-.44.07-.47.2-1.27-.03-1.2h0Z"/>
      <path class="cls-6" d="m59.85,46.35c-.4.04-.74.37-.9.8-.17.44-.54,1-.33,1.34.2.33.27.4.4-.13.13-.54.13-1,.4-1.27.27-.27.77-.77.43-.74h0Z"/>
      <path class="cls-6" d="m58.61,45.95c-.24,0-.77.64-.84,1.07-.07.43-.1,1.34.13,1.34s.23-.3.33-.87c.1-.57.8-1.54.37-1.54h0Z"/>
      <path class="cls-6" d="m56.9,46.45c-.2,0-.47.2-.37.7.1.5.13.87.57.8.44-.07.57-.2.2-.4-.37-.2,0-1.1-.4-1.1h0Z"/>
      <path class="cls-6" d="m51.58,46.98c-.2,0-.4.3-.34.9.07.6.27.87.54.87s.4-.13.17-.43c-.23-.3.03-1.34-.37-1.34h0Z"/>
      <path class="cls-6" d="m49.74,47.59c-.23-.02-.2.57-.13,1,.07.43.44.6.6.57.17-.03.27-.3.1-.54-.17-.23-.13-1-.57-1.04h0Z"/>
      <path class="cls-6" d="m48.9,47.92c-.12.06-.23.5-.13.74.1.23.5.74.5.47s-.2-.33-.17-.8c.03-.47-.07-.47-.2-.4h0Z"/>
      <path class="cls-6" d="m48.13,47.92c-.27-.04-.44.64-.3,1.07.13.44.47.87.77.74.3-.13.17-.3-.13-.64-.3-.34-.1-1.14-.33-1.17h0Z"/>
      <path class="cls-6" d="m47.16,48.02c-.22.03-.57.7-.33,1.41.23.7.54,1.07.84.9.3-.17.27-.29-.1-.64-.54-.5.17-1.74-.4-1.67h0Z"/>
      <path class="cls-6" d="m45.83,50c-.06.19.2.64.47.67.27.03.47-.2.1-.5-.37-.3-.5-.37-.57-.17h0Z"/>
      <path class="cls-6" d="m44.35,49.66c-.16.04-.4.27-.27.67.13.4.23.7.5.57.27-.13-.03-.37-.03-.67s.1-.64-.2-.57h0Z"/>
      <path class="cls-6" d="m44.19,42.5c-.11.03-.08.39-.17.64-.12.32-.35.54-.23.64.2.17.1.23.4-.23.3-.47,1.07-1.3,0-1.04h0Z"/>
      <path class="cls-6" d="m45.26,42.16c-.07.37-.6,1.2-.5,1.51.1.3.2.37.47-.23.27-.6.8-1.31.5-1.44-.3-.13-.44,0-.47.17h0Z"/>
      <path class="cls-6" d="m47.23,41.29c-.25.22-.64.7-.37.87.27.17.33.17.57-.3.23-.47.1-.84-.2-.57h0Z"/>
      <path class="cls-6" d="m48.54,40.76c-.45.45-.9,1.07-.77,1.41.13.33.3.2.64-.3.33-.5.84-1,.67-1.2-.17-.2-.4-.03-.54.1h0Z"/>
      <path class="cls-6" d="m50.04,40.86c-.27.03-.33.37-.33.74s.1,1.41.4,1.34c.3-.07.33-.17.23-.77-.1-.6.43-1.37-.3-1.31h0Z"/>
      <path class="cls-6" d="m51.05,41.76c-.31.22-.33.67-.2.9.13.23.44.17.6.23.17.07.43.03.64,0,.2-.03.33,0,.47.2.13.2.27.03.3-.13.03-.17-.2-.13-.1-.4.1-.27.07-.6-.3-.37-.37.23-.6.47-.64.2-.03-.27-.4-.9-.77-.64h0Z"/>
      <path class="cls-6" d="m55.09,40.73c-.16.3.07.34.37.17.3-.17.47-.13.4.07-.07.2.33.5.47.17.13-.33.07-.64.33-.9.27-.27.35-.77-.23-.6-.47.13-1.07.6-1.34,1.1h0Z"/>
      <path class="cls-6" d="m58.34,37.14c-.41.25-.67.57-.54.64.13.07.57.07.84-.23.27-.3.64-.47.33-.57-.3-.1-.2-.1-.64.17h0Z"/>
      <path class="cls-6" d="m60.98,36.41c-.3.03-.37.57-.64,1.14-.27.57-.33,1.31.03,1.74.37.44.7.7.67.07-.03-.64-.57-.87-.27-1.51.3-.64.8-1.51.2-1.44h0Z"/>
      <path class="cls-6" d="m62.09,36.84c-.38.3-.54,1-.5,1.61.03.6.47.7.54.37.07-.33-.17-.74,0-.97.17-.23.65-.49.4-1.1-.13-.33-.27-.03-.43.1h0Z"/>
      <path class="cls-6" d="m63.96,35.81c-.17.02-.37.43-.5.94-.13.5-.5,1-.6,1.47-.1.47.17,1.14.5.57.33-.57.13-.97.5-1.37.37-.4,1-1.71.1-1.61h0Z"/>
      <path class="cls-6" d="m64.6,36.78c-.17.37-.17.84-.44,1.07-.27.23-.23.67.17.7.4.03.44-.1.4-.37-.03-.27.13-.37.4-.13.27.23.44.3.47-.1.03-.4.3-.54.47-.8.17-.27.3-.23.3.54s-.07,1.31.23,1.27c.3-.03.47-.03.44-1-.03-.97.03-1.31.17-1.57.13-.27-.03-.5-.23-.33-.2.17.03-.3-.37-.3s-.33.17-.6.44c-.27.27-.27.57-.44.57s-.67-.64-.97.03h0Z"/>
      <path class="cls-6" d="m68.35,35.61c-.35.2-.47.74,0,.7.47-.03,1-.47.84-.67-.17-.2-.54-.2-.84-.03h0Z"/>
      <path class="cls-6" d="m66.2,40.19c-.28.12-.74,1.07-.77,1.47-.03.4.27.84.6.87.33.03.37-.1.27-.47-.1-.37-.23-.6-.03-1.07.2-.47.23-.94-.07-.8h0Z"/>
      <path class="cls-6" d="m67.61,39.39c-.21.52-.9,1.2-.9,1.84s.1.9.44.87c.33-.03.23-.5.23-.9s.23-.47.57-.9c.33-.44.57-1.17.2-1.24-.37-.07-.47.17-.54.33h0Z"/>
      <path class="cls-6" d="m67.95,41.23c0,.34-.03.74.33.67.37-.07.3-.3.37-.8.07-.5.27-.8.47-1.1.2-.3.1-.74-.3-.47-.4.27-.87,1.27-.87,1.71h0Z"/>
      <path class="cls-6" d="m70.12,39.45c-.35.24-1.04,1.14-1.04,1.64s.27,1.1.64.9c.37-.2.13-.4.27-.7.13-.3.5-.67.37-.84-.13-.17-.07-.34.13-.5.2-.17.27-.94-.37-.5h0Z"/>
      <path class="cls-6" d="m71.26,40.09c-.3.11-.84.74-.94,1.2-.1.47.03,1.1.33.87.3-.23.3-.5.44-.87.13-.37.9-1.47.17-1.2h0Z"/>
      <path class="cls-4" d="m73.5,44.11c-.17-.23.13-.67.57-1.17.44-.5,1.04-1.14,1.14-.5.1.64,0,.77-.44.9-.44.13-1.1,1-1.27.77h0Z"/>
      <path class="cls-4" d="m75.37,37.58c-.23.21-.64.84-.47,1.07.17.23.13.23.44.07.3-.17.47-.03.64,0,.17.03.54-.3.4-.54-.13-.23-.64-.94-1-.6h0Z"/>
      <path class="cls-4" d="m76.61,39.39c-.26.05-.64.27-.67.7-.03.44.23.74.6.4.37-.33.7-1.24.07-1.1h0Z"/>
      <path class="cls-4" d="m76.91,37.75c-.2.28-.1.47.67.74.77.27,1.07.33,1.04.7-.03.37.13,1.04.3.4.17-.64.37-1.17-.17-1.54-.54-.37-1.67-.54-1.84-.3h0Z"/>
      <path class="cls-4" d="m45.29,53.07c-.3.04-.67.3-.67.94s.27.7.44.64c.17-.07.23-.3.27-.7.03-.4.44-.94-.03-.87h0Z"/>
      <path class="cls-4" d="m48.6,53.68c-.27,0-.23.4-.5.2-.27-.2-.5.03-.54.4-.03.37.4.64.6.87.2.23.3.03.74-.07.44-.1.9-.37.6-.6-.3-.23-.13-.8-.9-.8h0Z"/>
      <path class="cls-4" d="m44.19,56.82c-.27.24-.9,1.24-.74,1.37.17.13.34.7.54.17.2-.54.2-.77.5-1.04.3-.27-.03-.74-.3-.5h0Z"/>
      <path class="cls-4" d="m44.69,58.09c-.26.07-.54.77-.47,1.04.07.27.54.3.6-.03.07-.33.13-1.07-.13-1h0Z"/>
      <path class="cls-4" d="m46.26,58.36c-.31.12-1,.94-.94,1.74.07.8.3.9.54.74.23-.17.33-.23.47.23.13.47.37,1.17.9,1.07.54-.1.37-.43.54-.67.17-.23.67-.77.3-.97-.37-.2-.4.27-.7.6-.3.33-.57.23-.5-.13.07-.37.2-.87.37-1.07.17-.2.17-.57-.03-.64-.2-.07-.54.23-.64.64-.1.4-.6.64-.54.2.07-.43.2-.77.47-1.04.27-.27.57-1-.23-.7h0Z"/>
      <path class="cls-4" d="m54.69,52.64c-.2,0-.47.47-.54.2-.07-.27-.43-.44-.74-.07-.3.37-.1.9-.64,1.17-.54.27-.74,1.07-.5,1.31.23.23.37.23.57.1.2-.13.74-.3.64.13-.1.43-.07.6.3.54.37-.07.27.3.6.3s.37-.17.54-.3c.17-.13.5-.07.5.1s.37.4.6,0c.23-.4.54-.77.64-.33.1.44.2,1.24.57.7.37-.54.7-1,.33-1.14-.37-.13-.23-.33-.07-.64.17-.3-.07-.77-.44-.67-.37.1-.87.77-.77.4.1-.37-.13-.47-.47-.37-.33.1-.57-.13-.33-.27.23-.13.9-.74.33-.67-.57.07-.64.94-1.07.94s-.4-.3-.13-.57c.27-.27.67-.87.07-.87h0Z"/>
      <path class="cls-4" d="m59.31,54.45c-.14-.11-.44.54-.7.64-.27.1-.67.67-.67,1.1s.1.7.6.5c.5-.2.5-.23.6-.7.1-.47.7-1.1.17-1.54h0Z"/>
      <path class="cls-4" d="m61.42,54.55c-.43.04-.77.6-1.17,1.37-.4.77-.5,1.24,0,1.24s.7,0,.7-.6.1-1,.4-1.2c.3-.2.44-.84.07-.8h0Z"/>
      <path class="cls-4" d="m62.52,55.28c-.26-.05-.33.3-.07.44.27.13.47.54,0,.33-.47-.2-1-.4-.97-.1.03.3.23.8,1.04.8s1.34-.23.87-.74c-.47-.5-.7-.7-.87-.74h0Z"/>
      <path class="cls-4" d="m65.84,54.31c-.4.08-.4.8-.8.94-.4.13-.74.7-.17.8.57.1.74.4.97-.27.23-.67.87-1.64,0-1.47h0Z"/>
      <path class="cls-4" d="m48.94,55.82c-.27.2-.4.5.2.9.6.4.84.7,1.04.37.2-.33.1-.54-.33-.84-.43-.3-.54-.7-.9-.43h0Z"/>
      <path class="cls-4" d="m50.21,55.35c-.21.25-.3.5.07.77.37.27.64.43.9.27.27-.17.1-.44-.17-.5-.27-.07-.4-.4-.3-.54.1-.13-.3-.23-.5,0h0Z"/>
      <path class="cls-4" d="m51.55,62.38c-.33.05-.43.6-.47,1-.03.4-.03,1.17.5,1.2.54.03.54.07.44-.57-.1-.64.2-1.74-.47-1.64h0Z"/>
      <path class="cls-4" d="m57.5,64.89c-.3.15-.37.7-.13,1.27.23.57.43,1.04.64.3.2-.74.33-1.54.13-1.64-.2-.1-.44-.03-.64.07h0Z"/>
      <path class="cls-4" d="m58.94,64.89c-.07-.25-.57.74-.6,1.34-.03.6.1,1.2.37.74.27-.47.4-1.51.23-2.07h0Z"/>
      <path class="cls-4" d="m60.98,63.28c-.24.21-.2,1.37.2,1.37s.47.1.47-.44-.23-1.3-.67-.94h0Z"/>
      <path class="cls-4" d="m60.15,65.59c-.13.39-.2.87.1,1.2.3.33.7.44,1,.13.3-.3.17-.77.4-.6.23.17.5.5,1,.23.5-.27.87-.4.97-1,.1-.6,0-.74-.5-.67-.5.07-.87.47-1.1.64-.23.17-.33-.2-.57-.17-.23.03-.33.57-.57.4-.23-.17-.6-.57-.74-.17h0Z"/>
      <path class="cls-6" d="m47.26,56.55c-.26.05-.44.17-.13.34.3.17.74.17.7.5-.03.33.1.5.4.67.3.17.6.47.6-.03s-.1-.6-.44-.74c-.33-.13-.64-.84-1.14-.74h0Z"/>
      <path class="cls-6" d="m49.97,57.99c-.16.05-.17.77-.23,1.14-.07.37-.47,1.04-.1,1.4.37.37.64.3.7.07.07-.23-.3-.43-.2-.84.1-.4.3-1.91-.17-1.77h0Z"/>
      <path class="cls-6" d="m51.08,57.69c-.3.05-.57.67-.5,1.67.07,1,.47,1.81.97,1.84.5.03.97.07.74-.37-.23-.43-.7-.74-.7-1.57s-.1-1.64-.5-1.57h0Z"/>
      <path class="cls-6" d="m52.52,57.46c-.3.28-.67,1.1-.47,1.71.2.6.54,1.17.97,1.04.44-.13.47-.33.1-.67s-.57-.87-.4-1.24c.17-.37.33-1.34-.2-.84h0Z"/>
      <path class="cls-6" d="m53.76,57.73c-.22.45-.74.87-.33,1.44.4.57.57.57.74.3.17-.27.03-.5-.1-.77-.13-.27.17-.54.2-.94.03-.4-.37-.3-.5-.03h0Z"/>
      <path class="cls-6" d="m54.99,57.32c-.25.14-.7.74-.6,1.2.1.47.33.64.57.64s.33-.17.1-.43c-.23-.27-.07-.34.07-.67.13-.33.33-1-.13-.74h0Z"/>
      <path class="cls-6" d="m55.7,57.59c-.17.13.2.44-.07.54-.27.1-.3.47.1.44.4-.03.7-.07.7.2s.54.3.57.1c.03-.2-.03-.43-.1-.67-.07-.23-.1-.54-.43-.44-.33.1-.6-.3-.77-.17h0Z"/>
      <path class="cls-6" d="m53.42,62.08c-.23.13-.97.4-.97.7s.03.64.67,1.17c.64.54.7.74.97.4.27-.33.23-.33-.17-.7-.4-.37-.64-.7-.33-.7s.7.44,1.2.44,1,.07.7-.3c-.3-.37-.57-.3-1.04-.74-.47-.43-.64-.5-1.04-.27h0Z"/>
      <path class="cls-6" d="m54.53,61.71c-.05.3-.03.47.44.7.47.23,1.37.57,1.51.23.13-.33.03-.64-.67-1-.7-.37-1.24-.13-1.27.07h0Z"/>
      <path class="cls-6" d="m59.28,58.36c-.26.33-.7.64-.44,1.07.27.43.67.47,1.14.8.47.33.7.33.67,0-.03-.34-.94-.9-.7-1.07.23-.17.67-.2.8.17.13.37.74,1.14,1.07.74.33-.4.33-.47-.23-.94-.57-.47-.77-1.07-1.21-1.1-.43-.03-.37.3-.57.37-.2.07-.4-.2-.54-.03h0Z"/>
      <path class="cls-6" d="m62.72,56.79c-.27-.05-.03.67-.33.64-.3-.03-.94-.07-1.07.23-.13.3-.23.87.4,1.14.64.27.9.3.9.03s-.03-.57.3-.47c.33.1.67.23.64-.13-.03-.37-.13-.43-.43-.67-.3-.23-.4-.44-.03-.27.37.17.9.7,1.17.23.27-.47.54-.5.1-.84-.44-.33-.64-.4-.77-.2-.13.2-.5.37-.87.3h0Z"/>
      <path class="cls-6" d="m66.17,57.06c-.2.27-.2.44.23.97.44.54.94.97,1.1.74.17-.23.07-.4-.37-.74-.44-.34-.2-1-.44-1.04-.23-.03-.43-.07-.54.07h0Z"/>
      <path class="cls-6" d="m67.78,57.16c0,.3.33.67.37.94.03.27.23.77.7.8.47.03.77-.3.23-.57-.54-.27-.9-.77-.94-1.07-.03-.3-.37-.47-.37-.1h0Z"/>
      <path class="cls-6" d="m69.42,57.19c-.03.48.37,1.24.74,1.51.37.27.7.1.87.23.17.13.57.1.37-.27-.2-.37-.13-1-.17-1.51-.03-.5-.27-.54-.4-.23-.13.3-.4.37-.5.07-.1-.3-.87-.4-.9.2h0Z"/>
      <path class="cls-6" d="m71.63,57.39c.16.24.87.84,1.17,1.14.3.3,1,.64,1.07.07.07-.57-.07-.87-.5-.94-.44-.07-.84-.43-1.24-.5-.4-.07-.57.13-.5.23h0Z"/>
      <path class="cls-4" d="m67.24,56.72c.28.06.37.13.77-.27.4-.4.74-.77,1.04-1.04.3-.27.64-.2.74-.57.1-.37.23-.84.54-.84s.33.2.1.47c-.23.27-.03.6-.37.77-.33.17-.67.43-.67.8s.17.33.54,0c.37-.33.4-.64.74-.6.33.03.57-.13.67-.57.1-.43.27-.47.57-.6.3-.13.27-.4.44-.64.17-.23.67-.43.54-.94-.13-.5-.23-.07-.4.1-.17.17-.33.07-.43-.1-.1-.17-.57,0-.67.37-.1.37-.47.67-.57.37-.1-.3-.6-.47-1-.03-.4.44-1.07,1.27-1.31,1.71-.23.43-.4,1.04-.87,1.2-.47.17-.67.33-.37.4h0Z"/>
      <path class="cls-4" d="m72.3,55.62c.4.09.84-.47,1.2-.9.37-.43.57-.47.87-.87.3-.4,1.2-1.04.97-1.54-.23-.5-.87-.17-1.1.07-.23.23-.3.67-.47.87-.17.2-.44.2-.54.47-.1.27,0,.67-.4.94-.4.27-.97.87-.54.97h0Z"/>
      <path class="cls-4" d="m72.63,57.16c.37.06.44-.27.84-.27s.3,0,.5-.34c.2-.33.2-.74.54-.7.33.03.5.2.3.4-.2.2-.37.64.07.5.43-.13.57-.3.67-.67.1-.37.33-.77.47-.4.13.37-.07.64-.23.8-.17.17.1.87.37.54.27-.33.57-.87.54-1.2-.03-.33-.5-.54-.37-.8.13-.27.74-.74.47-.97-.27-.23-.47.13-.67.03-.2-.1.03-.54-.37-.5-.4.03-.44.5-.74.6-.3.1-.07.3-.3.54-.23.23-.44.17-.64.44-.2.27-.27.84-.77,1.1-.5.27-1.31.8-.67.9h0Z"/>
      <path class="cls-4" d="m75.78,58.56c-.23.33-.43.53-.6,1-.17.47-.44.94-.13,1.2.3.27.54.47.6-.17.07-.64.23-1.07.4-1.44.17-.37-.03-.94-.27-.6h0Z"/>
      <path class="cls-4" d="m77.11,57.42c-.18.32.23.97-.1,1.17-.33.2-.54.77-.3,1.17.23.4.47.67.07.9-.4.23-.9.87-.33.87s1.14-.43,1.3-.84c.17-.4.3-.64.64-.97.33-.33.33-.6.2-1.27-.13-.67-.3-.6-.5-.27-.2.33-.44.2-.44-.2s-.27-1.04-.54-.57h0Z"/>
      <path class="cls-4" d="m74.77,61.64c-.42.17-.57.64-.77,1.07-.2.44-.3.57-.64.7-.33.13-.57.37-.2.3.37-.07.84-.03.74.27-.1.3-.57.67-.27.74.3.07.57-.03.74-.33.17-.3.47-.47.47-.13s-.37.7,0,.94c.37.23.94.54,1-.13.07-.67.03-.94.4-1.1.37-.17.7-.47.4-.47s-.3-.4-.27-.67c.03-.27-.64-.47-.87-.23-.23.23-.44.67-.47.03-.03-.64-.1-1.04-.27-.97h0Z"/>
      <path class="cls-4" d="m77.28,63.75c-.23.14-1.14,1.27-1.21,1.64-.07.37.03.87.44.37.4-.5.5-1,.87-1.47.37-.47.54-.94-.1-.53h0Z"/>
      <path class="cls-4" d="m77.92,64.55c-.24.3-.7.6-.67.9.03.3.1.37.3.23.2-.13-.03.33.27.4.3.07.47.1.64-.27.17-.37.84-.84.5-1.14-.33-.3-.64-.3-.43-.5.2-.2.3-.5-.03-.3-.33.2-.43.5-.57.67h0Z"/>
      <path class="cls-4" d="m67.54,60.27c-.26.04-.33.2-.54.7-.2.5-.47.87-.74,1.24-.27.37-.37.7-.17,1.37.2.67.64,2.11.87,2.91.23.8.5,1.51.74,1.47.23-.03.37-.37.6-1,.23-.64.54-1.34.7-1.77.17-.44-.1-.94.17-1.34.27-.4.9-1.14.87-1.61-.03-.47-.47.33-.87.94-.4.6-.8,1.27-1.31,1.31-.5.03-.5-.2-.57-.44-.07-.23-.77.03-.84-.57-.07-.6.13-.87.3-.6.17.27.57.37.6-.03.03-.4.33-.77.37-.4.03.37.17,1.74.44.77.27-.97.44-1.47.7-1.71.27-.23.13-.33-.03-.44-.17-.1-.23-.5-.47-.5s-.33.67-.5.57c-.17-.1.27-.97-.33-.87h0Z"/>
      <path class="cls-4" d="m64.97,64.89c-.33.14-.6.4-.64.94-.03.54.17.87.57,1.44.4.57.54.87.74,1.27.2.4.3.9.4,2.11.1,1.2.5,1.94.5,2.88s0,2.71-.1,3.75c-.1,1.04-.27,3.51-.27,3.51h3.92s-.2-1.14-.33-4.82c-.13-3.68.23-6.46.33-7.19.1-.74-.3-1.17-.1-2.07.2-.9.23-1.2-.33-1.04-.57.17-.13.5-.27.77-.13.27-.37.64-.17.9.2.27.37.57.13.9-.23.33,0,.97-.27,1.17-.27.2-.43-.4-.77-.07-.33.33-1.64-.03-2.11-1.04-.47-1-.67-1.57-.67-2.44s-.03-1.2-.57-.97h0Z"/>
      <path class="cls-6" d="m70.86,60.94c-.27,0-.13.43-.33.9-.2.47-.9,1.87-1.17,2.81-.27.94-.64,2.11-1.07,2.98-.43.87-.54,1.1-.8.77-.27-.33-.33-.9-.77-1.97-.43-1.07-.43-2.34-.87-2.88-.43-.54-.67-.2-.84.23-.17.43.17.7.37,1.27.2.57.02,1.51.52,2.59.41.89.95,1.63.88,2.6-.07.97.17,1.41.4,2.07.23.67.4,2.11.3,2.88-.1.77-.33,1.34-.13,1.87.2.54.33,1.14,0,1.64-.34.5-.13.8,0,1.27.13.47.27.84.27.84l1.41-.03s-.37-.6-.6-1.14c-.23-.54-.37-1.27-.07-1.77.3-.5.8-.4.7-.87-.1-.47-.4-.47-.47-.87-.07-.4.3-.27.23-.57-.07-.3-.43-.2-.3-.7.13-.5.4-.54.27-.9-.13-.37-.47-.8-.27-1.1.2-.3.2-.44-.2-1.04-.4-.6-.37-1.14-.2-1.47.17-.33-.1-.77.2-1,.3-.23.66.3.78.11.31-.47.07-.77.23-1.14.17-.37.39-.68.09-.91-.3-.23-.37-.4-.17-.6.2-.2-.03.01.2-.49.23-.5.65-.32.69-.45.09-.26.11-.27.55-1.41.43-1.14,1.07-2.41.67-3.18-.4-.77-.27-.33-.5-.33h0Z"/>
      <path class="cls-4" d="m3.31,100.31s.78-.09,1.72-.09c2.01,0,3.95,3.75,3.95,3.75v11.78s1.34,3.08,2.28,4.55c.94,1.47,7.09-17.74,7.09-17.74,0,0,2.88-2.28,5.15-2.28,3.41,0,5.82,4.95,5.82,4.95v33.46h8.77v-36.14s3.55-3.08,5.49-3.08c3.75,0,6.16,4.35,6.16,4.35v34.53h9.04v-35.4s3.35-3.61,5.76-3.61c3.41,0,5.82,5.35,5.82,5.35v33.87h9.04l.13-40.96-77.1.2.89,2.5h0Z"/>
      <path class="cls-6" d="m10.36,102.9s-2.14-3.84-4.19-3.93c-1.78-.08-2.86,1.34-2.86,1.34,0,0-1.29-6.02-2.1-10.66-.8-4.64-.67-9.15-.67-9.15h78.71l.13,56.93h-7.7l.07-33.73s-2.14-5.42-5.82-5.42c-3.48,0-5.69,4.82-5.69,4.82l.07,34.07h-9.17v-34.33s-2.68-4.48-5.69-4.48c-3.75,0-5.96,4.55-5.96,4.55v34.74h-8.77v-33.66s-2.41-4.82-5.69-4.82c-3.75,0-5.89,3.82-5.89,3.82v26.37h-1.54s-2.48-3.28-4.48-6.16c-2.01-2.88-2.74-4.48-2.74-4.48l-.02-15.8h0Z"/>
      <polygon class="cls-4" points="71.56 105.65 71.56 106.05 79.46 106.05 79.46 105.65 71.56 105.65 71.56 105.65"/>
      <polygon class="cls-4" points="71.49 110.46 71.49 110.87 79.39 110.87 79.39 110.46 71.49 110.46 71.49 110.46"/>
      <polygon class="cls-4" points="71.49 115.02 71.49 115.42 79.39 115.42 79.39 115.02 71.49 115.02 71.49 115.02"/>
      <polygon class="cls-4" points="71.43 119.9 71.43 120.3 79.37 120.3 79.37 119.9 71.43 119.9 71.43 119.9"/>
      <polygon class="cls-4" points="71.49 124.45 71.49 124.85 79.39 124.85 79.39 124.45 71.49 124.45 71.49 124.45"/>
      <polygon class="cls-4" points="71.43 128.47 71.43 128.87 79.41 128.87 79.41 128.47 71.43 128.47 71.43 128.47"/>
      <polygon class="cls-4" points="71.56 132.22 71.56 132.62 79.46 132.62 79.46 132.22 71.56 132.22 71.56 132.22"/>
      <polygon class="cls-4" points="71.49 135.96 71.49 136.37 79.39 136.37 79.39 135.96 71.49 135.96 71.49 135.96"/>
      <polygon class="cls-4" points="50.88 105.65 50.88 106.05 60.25 106.05 60.25 105.65 50.88 105.65 50.88 105.65"/>
      <polygon class="cls-4" points="51.1 110.46 51.1 110.87 60.25 110.87 60.25 110.46 51.1 110.46 51.1 110.46"/>
      <polygon class="cls-4" points="51.08 115.08 51.08 115.48 60.27 115.48 60.27 115.08 51.08 115.08 51.08 115.08"/>
      <polygon class="cls-4" points="51.08 119.97 51.08 120.37 60.27 120.37 60.27 119.97 51.08 119.97 51.08 119.97"/>
      <polygon class="cls-4" points="51.15 124.45 51.15 124.85 60.27 124.85 60.27 124.45 51.15 124.45 51.15 124.45"/>
      <polygon class="cls-4" points="51.1 128.54 51.1 128.94 60.29 128.94 60.29 128.54 51.1 128.54 51.1 128.54"/>
      <polygon class="cls-4" points="51.12 132.28 51.12 132.69 60.29 132.69 60.29 132.28 51.12 132.28 51.12 132.28"/>
      <polygon class="cls-4" points="51.15 135.96 51.15 136.37 60.32 136.37 60.32 135.96 51.15 135.96 51.15 135.96"/>
      <polygon class="cls-4" points="30.47 128.6 30.47 129 39.5 129 39.5 128.6 30.47 128.6 30.47 128.6"/>
      <polygon class="cls-4" points="30.47 105.71 30.47 106.11 39.5 106.11 39.5 105.71 30.47 105.71 30.47 105.71"/>
      <polygon class="cls-4" points="30.4 110.46 30.4 110.87 39.43 110.87 39.43 110.46 30.4 110.46 30.4 110.46"/>
      <polygon class="cls-4" points="30.4 115.08 30.4 115.48 39.5 115.48 39.5 115.08 30.4 115.08 30.4 115.08"/>
      <polygon class="cls-4" points="30.47 119.9 30.47 120.3 39.5 120.3 39.5 119.9 30.47 119.9 30.47 119.9"/>
      <polygon class="cls-4" points="30.47 124.45 30.47 124.85 39.5 124.85 39.5 124.45 30.47 124.45 30.47 124.45"/>
      <polygon class="cls-4" points="30.47 132.15 30.47 132.55 39.5 132.55 39.5 132.15 30.47 132.15 30.47 132.15"/>
      <polygon class="cls-4" points="30.53 135.96 30.53 136.37 39.5 136.37 39.5 135.96 30.53 135.96 30.53 135.96"/>
      <polygon class="cls-4" points="10.05 105.71 10.05 106.11 19.15 106.11 19.15 105.71 10.05 105.71 10.05 105.71"/>
      <polygon class="cls-4" points="10.05 110.46 10.05 110.87 19.15 110.87 19.15 110.46 10.05 110.46 10.05 110.46"/>
      <polygon class="cls-4" points="10.12 115.08 10.12 115.48 19.15 115.48 19.15 115.08 10.12 115.08 10.12 115.08"/>
      <polygon class="cls-4" points="10.92 119.97 10.92 120.37 19.15 120.37 19.15 119.97 10.92 119.97 10.92 119.97"/>
      <polygon class="cls-4" points="13.6 124.39 13.6 124.79 19.15 124.79 19.15 124.39 13.6 124.39 13.6 124.39"/>
      <polygon class="cls-4" points="16.48 128.47 16.48 128.87 19.15 128.87 19.15 128.47 16.48 128.47 16.48 128.47"/>
      <polygon class="cls-4" points=".37 83.69 .37 84.1 79.52 84.1 79.52 83.69 .37 83.69 .37 83.69"/>
      <polygon class="cls-4" points=".62 88.51 .62 88.91 79.59 88.91 79.59 88.51 .62 88.51 .62 88.51"/>
      <polygon class="cls-4" points="1.49 93.33 1.49 93.73 79.39 93.73 79.39 93.33 1.49 93.33 1.49 93.33"/>
      <polygon class="cls-4" points="74.44 97.41 74.44 97.82 77.52 97.82 77.52 97.41 74.44 97.41 74.44 97.41"/>
      <polygon class="cls-4" points="54.11 97.41 54.11 97.82 57.41 97.82 57.41 97.41 54.11 97.41 54.11 97.41"/>
      <polygon class="cls-4" points="33.14 97.35 33.14 97.75 36.78 97.75 36.78 97.35 33.14 97.35 33.14 97.35"/>
      <polygon class="cls-4" points="13.22 97.35 13.22 97.75 16.68 97.75 16.68 97.35 13.22 97.35 13.22 97.35"/>
      <polygon class="cls-4" points="14.47 105.78 14.47 110.67 14.87 110.67 14.87 105.78 14.47 105.78 14.47 105.78"/>
      <polygon class="cls-4" points="14.47 88.58 14.47 93.47 14.87 93.47 14.87 88.58 14.47 88.58 14.47 88.58"/>
      <polygon class="cls-4" points="8.51 83.76 8.51 88.65 8.91 88.65 8.91 83.76 8.51 83.76 8.51 83.76"/>
      <polygon class="cls-4" points="3.69 88.71 3.69 93.6 4.1 93.6 4.1 88.71 3.69 88.71 3.69 88.71"/>
      <polygon class="cls-4" points="14.47 115.22 14.47 120.1 14.87 120.1 14.87 115.22 14.47 115.22 14.47 115.22"/>
      <polygon class="cls-4" points="19.96 83.83 19.96 88.71 20.36 88.71 20.36 83.83 19.96 83.83 19.96 83.83"/>
      <polygon class="cls-4" points="24.37 88.58 24.37 93.47 24.78 93.47 24.78 88.58 24.37 88.58 24.37 88.58"/>
      <polygon class="cls-4" points="29.66 83.76 29.66 88.65 30.06 88.65 30.06 83.76 29.66 83.76 29.66 83.76"/>
      <polygon class="cls-4" points="34.82 88.71 34.82 93.6 35.22 93.6 35.22 88.71 34.82 88.71 34.82 88.71"/>
      <polygon class="cls-4" points="34.82 105.78 34.82 110.67 35.22 110.67 35.22 105.78 34.82 105.78 34.82 105.78"/>
      <polygon class="cls-4" points="34.82 115.15 34.82 120.04 35.22 120.04 35.22 115.15 34.82 115.15 34.82 115.15"/>
      <polygon class="cls-4" points="34.82 124.52 34.82 128.87 35.22 128.87 35.22 124.52 34.82 124.52 34.82 124.52"/>
      <polygon class="cls-4" points="34.82 132.28 34.82 136.17 35.22 136.17 35.22 132.28 34.82 132.28 34.82 132.28"/>
      <polygon class="cls-4" points="14.6 80.5 14.6 83.96 15 83.96 15 80.5 14.6 80.5 14.6 80.5"/>
      <polygon class="cls-4" points="34.75 80.53 34.75 83.96 35.15 83.96 35.15 80.53 34.75 80.53 34.75 80.53"/>
      <polygon class="cls-4" points="41.24 83.76 41.24 88.65 41.64 88.65 41.64 83.76 41.24 83.76 41.24 83.76"/>
      <polygon class="cls-4" points="46.26 88.58 46.26 93.47 46.66 93.47 46.66 88.58 46.26 88.58 46.26 88.58"/>
      <polygon class="cls-4" points="55.56 105.85 55.56 110.73 55.96 110.73 55.96 105.85 55.56 105.85 55.56 105.85"/>
      <polygon class="cls-4" points="55.56 115.15 55.56 119.97 55.96 119.97 55.96 115.15 55.56 115.15 55.56 115.15"/>
      <polygon class="cls-4" points="55.56 124.52 55.56 128.8 55.96 128.8 55.96 124.52 55.56 124.52 55.56 124.52"/>
      <polygon class="cls-4" points="55.56 132.37 55.56 136.17 55.96 136.17 55.96 132.37 55.56 132.37 55.56 132.37"/>
      <polygon class="cls-4" points="56.3 88.58 56.3 93.47 56.7 93.47 56.7 88.58 56.3 88.58 56.3 88.58"/>
      <polygon class="cls-4" points="50.74 83.76 50.74 88.65 51.15 88.65 51.15 83.76 50.74 83.76 50.74 83.76"/>
      <polygon class="cls-4" points="60.38 83.69 60.38 88.58 60.78 88.58 60.78 83.69 60.38 83.69 60.38 83.69"/>
      <polygon class="cls-4" points="65.67 88.71 65.67 93.6 66.07 93.6 66.07 88.71 65.67 88.71 65.67 88.71"/>
      <polygon class="cls-4" points="70.42 83.83 70.42 88.71 70.82 88.71 70.82 83.83 70.42 83.83 70.42 83.83"/>
      <polygon class="cls-4" points="75.31 88.65 75.31 93.53 75.71 93.53 75.71 88.65 75.31 88.65 75.31 88.65"/>
      <polygon class="cls-4" points="75.57 105.71 75.57 110.6 75.98 110.6 75.98 105.71 75.57 105.71 75.57 105.71"/>
      <polygon class="cls-4" points="56.3 80.5 56.3 83.83 56.7 83.83 56.7 80.5 56.3 80.5 56.3 80.5"/>
      <polygon class="cls-4" points="77.32 80.53 77.32 83.83 77.72 83.83 77.72 80.53 77.32 80.53 77.32 80.53"/>
      <polygon class="cls-4" points="75.64 115.28 75.64 120.17 76.04 120.17 76.04 115.28 75.64 115.28 75.64 115.28"/>
      <polygon class="cls-4" points="75.64 124.52 75.64 128.74 76.04 128.74 76.04 124.52 75.64 124.52 75.64 124.52"/>
      <polygon class="cls-4" points="75.64 132.28 75.64 136.37 76.04 136.37 76.04 132.28 75.64 132.28 75.64 132.28"/>
      <path class="cls-4" d="m76,100.53l-4.51,3.12.23.33s4.16-2.88,4.39-3.04c.22.17,3.23,2.52,3.23,2.52l.25-.32-3.46-2.7-.12.08h0Z"/>
      <path class="cls-4" d="m55.6,100.44l-4.64,3.3.14.43s4.39-3.16,4.61-3.32c.22.17,4.53,3.45,4.53,3.45l.02-.47-4.5-3.42-.16.02h0Z"/>
      <path class="cls-4" d="m34.85,100.53l-4.51,3.28.24.32s4.16-3.03,4.39-3.19c.22.16,4.53,3.28,4.53,3.28v-.47l-4.53-3.3-.12.09h0Z"/>
      <path class="cls-4" d="m14.75,100.49l-4.82,3.5.24.32s4.46-3.25,4.7-3.41c.23.17,4.29,3.32,4.29,3.32l-.02-.49-4.26-3.33-.12.09h0Z"/>
      <path class="cls-4" d="m77.22,97.83c-.95,1.35-1.29,2.69-1.3,2.74l.39.1s.34-1.32,1.24-2.61c.74-1.06,2.02-2.09,2.04-2.1l-.25-.31c-.05.04-1.34,1.08-2.11,2.18h0Z"/>
      <path class="cls-4" d="m57.78,96.94c-1.61,1.78-2.25,3.54-2.27,3.61l.38.14c.02-.07,2.59-6.96,10.05-6.96,3.21,0,5.86,1.17,7.89,3.47,1.52,1.72,2.09,3.47,2.1,3.49l.38-.12c-.02-.07-.6-1.83-2.17-3.62-1.45-1.65-4.04-3.62-8.2-3.62s-6.67,1.97-8.16,3.61h0Z"/>
      <path class="cls-4" d="m37.08,96.98c-1.64,1.8-2.29,3.57-2.32,3.65l.38.14c.03-.07,2.64-7.03,10.25-7.03,3.27,0,5.98,1.18,8.05,3.5,1.55,1.74,2.13,3.5,2.14,3.52l.38-.12c-.02-.07-.61-1.85-2.21-3.65-1.47-1.66-4.12-3.65-8.36-3.65s-6.8,1.98-8.31,3.65h0Z"/>
      <path class="cls-4" d="m16.8,97.08c-1.59,1.85-2.23,3.67-2.26,3.75l.38.13c.02-.07,2.57-7.23,9.98-7.23,3.19,0,5.82,1.21,7.83,3.6,1.51,1.79,2.08,3.6,2.08,3.62l.38-.12c-.02-.08-.59-1.9-2.15-3.75-1.44-1.71-4.02-3.75-8.15-3.75s-6.63,2.04-8.11,3.75h0Z"/>
      <path class="cls-4" d="m6.1,93.33c-4.44.05-4.59.33-4.68.47l.33.54s.12-.56,4.35-.6c6.01-.06,8.55,6.89,8.58,6.96l.38-.13c-.03-.07-2.66-7.29-8.96-7.23h0Z"/>
      <polygon class="cls-4" points="42.45 93.99 43.86 98.81 44.24 98.7 42.84 93.88 42.45 93.99 42.45 93.99"/>
      <polygon class="cls-4" points="21.64 94 23.63 99.4 24.01 99.26 22.02 93.86 21.64 94 21.64 94"/>
      <polygon class="cls-4" points="17.14 97.02 20.91 100.88 21.19 100.6 17.42 96.74 17.14 97.02 17.14 97.02"/>
      <polygon class="cls-4" points="8.8 100.88 9.11 101.13 12.77 96.76 12.46 96.5 8.8 100.88 8.8 100.88"/>
      <polygon class="cls-4" points="5.71 99.05 6.09 99.17 7.77 93.66 7.38 93.54 5.71 99.05 5.71 99.05"/>
      <polygon class="cls-4" points="28.44 101.09 28.74 101.36 32.69 97.01 32.39 96.74 28.44 101.09 28.44 101.09"/>
      <polygon class="cls-4" points="26.52 99.71 26.91 99.8 28.25 93.98 27.86 93.89 26.52 99.71 26.52 99.71"/>
      <polygon class="cls-4" points="46.81 98.69 47.19 98.81 48.73 94.06 48.34 93.94 46.81 98.69 46.81 98.69"/>
      <polygon class="cls-4" points="49.09 100.43 49.41 100.68 52.84 96.4 52.53 96.15 49.09 100.43 49.09 100.43"/>
      <polygon class="cls-4" points="37.74 96.6 40.95 100.68 41.26 100.44 38.05 96.35 37.74 96.6 37.74 96.6"/>
      <polygon class="cls-4" points="57.77 97.23 61.7 100.8 61.97 100.5 58.04 96.93 57.77 97.23 57.77 97.23"/>
      <polygon class="cls-4" points="61.88 94.36 64.08 98.78 64.44 98.6 62.23 94.18 61.88 94.36 61.88 94.36"/>
      <polygon class="cls-4" points="66.77 98.52 67.16 98.62 68.41 93.78 68.02 93.68 66.77 98.52 66.77 98.52"/>
      <polygon class="cls-4" points="69.61 100.42 69.94 100.65 73.13 96.06 72.8 95.83 69.61 100.42 69.61 100.42"/>
      <path class="cls-1" d="m0,80.1c0,44.19,35.95,80.14,80.14,80.14s80.1-35.95,80.1-80.14c0-10.79-2.12-21.26-6.31-31.14-4.04-9.53-9.83-18.1-17.19-25.46-7.36-7.36-15.93-13.15-25.46-17.19-9.87-4.19-20.35-6.31-31.14-6.31C35.95,0,0,35.93,0,80.1h0Zm1.61,0C1.61,36.82,36.84,1.61,80.14,1.61c10.57,0,20.83,2.08,30.51,6.18,9.34,3.96,17.74,9.63,24.96,16.85,7.22,7.22,12.89,15.61,16.85,24.96,4.1,9.67,6.18,19.94,6.18,30.51,0,43.3-35.21,78.53-78.49,78.53S1.61,123.4,1.61,80.1h0Z"/>
      <polygon class="cls-1" points="80.33 158.99 79.26 158.99 79.26 .5 80.33 .5 80.33 158.99 80.33 158.99"/>
      <path class="cls-6" d="m63.61,18.7c0,8.93,7.26,16.19,16.19,16.19s16.19-7.26,16.19-16.19-7.26-16.19-16.19-16.19-16.19,7.26-16.19,16.19h0Z"/>
      <path class="cls-4" d="m94.16,21.71c-.69.78-1.2,1.47-1.22,1.49l.54.4s.51-.69,1.19-1.45c.75-.85.99-1.09.99-1.09l-.47-.47s-.25.25-1.02,1.12h0Z"/>
      <path class="cls-4" d="m94.15,19.32c-.61.61-1.11,1.24-1.13,1.27l.53.41s.5-.63,1.08-1.21c.44-.44,1.02-.95,1.02-.96l-.44-.5s-.6.53-1.05.98h0Z"/>
      <path class="cls-4" d="m94.04,17.62c-.54.57-.87.97-.88.99l.51.43s.34-.4.86-.96c.5-.53.85-.79.86-.8l-.39-.54s-.4.29-.95.88h0Z"/>
      <path class="cls-4" d="m92.76,16.33l-1.18,1.38.52.43,1.16-1.36c.47-.53,1.14-1.14,1.14-1.14l-.45-.5s-.71.64-1.2,1.2h0Z"/>
      <path class="cls-4" d="m91.85,14.49l-1.07,1.27.51.44,1.07-1.28c.64-.77,1.32-1.32,1.33-1.33l-.42-.52s-.74.6-1.42,1.42h0Z"/>
      <path class="cls-4" d="m91.49,13.01c-.77.87-1.21,1.47-1.23,1.5l.54.39s.44-.6,1.18-1.45c.66-.74,1.15-1.21,1.15-1.22l-.46-.48s-.51.49-1.19,1.26h0Z"/>
      <path class="cls-4" d="m90.69,12.24c-.84.91-1.12,1.29-1.13,1.3l.54.39s.27-.37,1.08-1.24c.82-.88,1.32-1.35,1.32-1.35l-.46-.49s-.52.49-1.36,1.39h0Z"/>
      <path class="cls-4" d="m85.98,15.34c-1.84,4.05-2.19,7.74-2.2,7.89l.67.06s.35-3.73,2.15-7.67c1.44-3.16,3.53-5.27,3.55-5.29l-.47-.47c-.09.09-2.19,2.21-3.68,5.49h0Z"/>
      <path class="cls-4" d="m83.39,18.19c-1,3.29-1.18,4.97-1.18,5.04l.67.07s.18-1.69,1.16-4.91c.77-2.52,1.8-4.44,1.81-4.45l-.59-.32c-.04.08-1.08,1.99-1.87,4.58h0Z"/>
      <path class="cls-4" d="m81.81,18.4c-.7,2.47-1.07,4.63-1.08,4.65l.66.11s.37-2.15,1.06-4.58c.68-2.39,1.49-3.64,1.5-3.66l-.56-.37c-.04.05-.87,1.34-1.58,3.84h0Z"/>
      <path class="cls-4" d="m79.66,13.39c-2.37,4.78-2.92,8.8-2.94,8.97l.66.09s.56-4.09,2.88-8.76c1.92-3.87,4.67-6.96,4.7-6.99l-.5-.45s-2.84,3.18-4.8,7.14h0Z"/>
      <path class="cls-4" d="m75.88,19.63c-.17.85-.21,1.53-.21,1.55l.67.03s.03-.66.19-1.46c.15-.76.49-1.28.49-1.29l-.56-.36s-.4.63-.58,1.52h0Z"/>
      <path class="cls-4" d="m74.58,19.82c-.17.78-.24,1.77-.24,1.81l.67.05s.07-.97.23-1.71c.17-.78.58-1.7.58-1.71l-.61-.27s-.44.99-.62,1.84h0Z"/>
      <path class="cls-4" d="m72.7,18.98c-.17.78-.27,1.6-.27,1.64l.66.08s.1-.83.26-1.57c.15-.7.39-1.1.39-1.1l-.57-.35s-.3.49-.48,1.31h0Z"/>
      <polygon class="cls-4" points="86.29 16.89 86.88 17.2 88.45 14.19 87.86 13.88 86.29 16.89 86.29 16.89"/>
      <polygon class="cls-4" points="86.7 18.85 87.27 19.2 89.51 15.58 88.94 15.23 86.7 18.85 86.7 18.85"/>
      <polygon class="cls-4" points="87.5 20.29 88.08 20.63 90.25 16.99 89.68 16.64 87.5 20.29 87.5 20.29"/>
      <polygon class="cls-4" points="87.84 22.25 88.4 22.62 91.02 18.57 90.45 18.21 87.84 22.25 87.84 22.25"/>
      <polygon class="cls-4" points="89.5 23.1 90.09 23.42 91.7 20.45 91.11 20.13 89.5 23.1 89.5 23.1"/>
      <polygon class="cls-4" points="89.14 26.08 89.72 26.42 92.29 22.17 91.72 21.83 89.14 26.08 89.14 26.08"/>
      <polygon class="cls-4" points="88.88 28.51 89.44 28.88 92.49 24.19 91.93 23.83 88.88 28.51 88.88 28.51"/>
      <polygon class="cls-4" points="89.19 30.04 89.74 30.43 92.81 26.04 92.27 25.66 89.19 30.04 89.19 30.04"/>
      <path class="cls-4" d="m87.23,13.55s1.98,1.82,3.66,6.13c1.42,3.64,1.32,8.22,1.32,8.27l.67.02c0-.19.11-4.76-1.36-8.53-1.75-4.47-3.75-6.31-3.84-6.39l-.45.5h0Z"/>
      <path class="cls-4" d="m69.9,25.25c-.65.32-1.21.56-1.22.56l.25.62s.59-.24,1.26-.58c.73-.37,1.17-.94,1.19-.97l-.53-.4s-.37.48-.95.77h0Z"/>
      <path class="cls-4" d="m71.84,25.87c-.76.51-1.54.84-1.55.84l.26.62s.84-.35,1.66-.9c.83-.55,1.41-1.2,1.44-1.23l-.5-.45s-.55.61-1.31,1.12h0Z"/>
      <path class="cls-4" d="m73.82,26.9c-.87.55-1.75.91-1.75.91l.25.62s.94-.39,1.86-.96c.6-.38,1.27-1.06,1.3-1.09l-.48-.47s-.64.65-1.18.99h0Z"/>
      <path class="cls-4" d="m76.69,26.98c-1.42.96-2.82,1.46-2.83,1.47l.22.63c.06-.02,1.5-.53,2.99-1.55,1.48-1.01,2.48-1.97,2.52-2.01l-.46-.48s-1,.96-2.43,1.94h0Z"/>
      <path class="cls-4" d="m78.07,27.58c-1.3.84-2.81,1.47-2.82,1.48l.26.62c.06-.03,1.58-.66,2.93-1.53,1.34-.87,2.69-2.05,2.75-2.1l-.44-.5s-1.37,1.2-2.67,2.05h0Z"/>
      <path class="cls-4" d="m80.77,27.85c-1.91,1.33-3.23,1.87-3.25,1.87l.25.62c.06-.02,1.4-.57,3.38-1.94,1.98-1.37,3.01-2.4,3.06-2.45l-.47-.47s-1.04,1.04-2.97,2.37h0Z"/>
      <path class="cls-4" d="m82.31,28.43c-1.6,1.02-3.1,1.62-3.11,1.62l.25.62c.06-.03,1.57-.63,3.22-1.68,2.28-1.45,3.03-2.66,3.06-2.71l-.57-.35s-.72,1.14-2.85,2.49h0Z"/>
      <path class="cls-4" d="m83.87,28.9c-1.33.84-2.63,1.35-2.64,1.35l.24.62c.06-.02,1.37-.54,2.76-1.41,1.4-.89,2.11-1.69,2.14-1.72l-.5-.44s-.68.77-1.99,1.6h0Z"/>
      <path class="cls-4" d="m85.49,29.41c-.64.51-1.14.79-1.15.79l.32.59s.56-.31,1.24-.86c.5-.4,1.07-1.06,1.09-1.09l-.51-.43s-.55.64-1,1h0Z"/>
      <polygon class="cls-4" points="69.46 30.53 69.85 31.07 71.12 30.17 70.73 29.63 69.46 30.53 69.46 30.53"/>
      <polygon class="cls-4" points="72.34 31.46 72.72 32.02 74.72 30.68 74.35 30.12 72.34 31.46 72.34 31.46"/>
      <polygon class="cls-4" points="73.42 32.83 73.78 33.39 75.82 32.09 75.46 31.52 73.42 32.83 73.42 32.83"/>
      <path class="cls-4" d="m76.87,32.65l-1.3,1,.4.54,1.31-1.01c.63-.49,1.24-1.26,1.26-1.29l-.53-.41s-.59.74-1.15,1.18h0Z"/>
      <path class="cls-4" d="m79.4,32.73c-1.08.95-1.59,1.36-1.59,1.36l.42.52s.52-.42,1.62-1.38c1.11-.98,1.5-1.46,1.51-1.48l-.53-.41s-.37.47-1.43,1.39h0Z"/>
      <path class="cls-4" d="m81.08,32.83c-.85.75-1.68,1.38-1.69,1.39l.41.53s.86-.65,1.73-1.42c.88-.78,1.46-1.52,1.48-1.55l-.53-.41s-.56.72-1.4,1.46h0Z"/>
      <path class="cls-4" d="m83.34,32.77c-.77.77-1.41,1.19-1.42,1.19l.36.56s.71-.46,1.53-1.28c.85-.85,1.1-1.53,1.11-1.56l-.63-.23s-.23.59-.96,1.32h0Z"/>
      <path class="cls-4" d="m85.17,32.65c-.58.63-1.18.88-1.19.89l.25.62s.74-.31,1.42-1.05c.68-.74.98-1.32.99-1.35l-.6-.3s-.27.53-.88,1.2h0Z"/>
      <path class="cls-4" d="m67.83,23.16c-.88,2.77-.43,5.61-.41,5.73l.66-.11s-.12-.75-.12-1.83c0-1.01.1-2.32.51-3.59.74-2.31,1.95-3.56,2.25-3.6.05.02.16.1.26.18.6.45,1.86,1.39,5.77,2.65,3.3,1.06,5.36.92,6.59.83.46-.03.82-.06,1.01,0,.79.24,2.06,2.17,2.45,4.19.36,1.86.26,4.85.26,4.88l.67.02c0-.13.1-3.09-.27-5.03-.42-2.16-1.78-4.36-2.91-4.71-.31-.1-.71-.07-1.26-.03-1.18.08-3.16.22-6.34-.8-3.8-1.22-5.04-2.15-5.57-2.55-.25-.19-.42-.31-.65-.31-.87,0-2.19,1.86-2.9,4.07h0Z"/>
      <path class="cls-4" d="m67.7,14.81c-2.19,2.34-3.03,6.35-3.06,6.52l.66.13s.83-3.99,2.89-6.2c3.28-3.5,5.52-3.54,5.54-3.54v-.67c-.09,0-2.52,0-6.03,3.75h0Z"/>
      <path class="cls-4" d="m69.73,14.63c-1.82,1.26-2.32,3.02-2.34,3.1l.64.18s.47-1.61,2.08-2.73c1.59-1.1,2.4-1.11,2.41-1.11l.02-.67c-.1,0-1.03,0-2.81,1.23h0Z"/>
      <path class="cls-4" d="m69.22,17.47c-1.06.99-1.35,2.02-1.37,2.06l.64.18s.26-.9,1.18-1.75c.87-.82,1.57-.81,1.6-.81l.02-.67s-.99-.03-2.08.99h0Z"/>
      <path class="cls-4" d="m75.15,4.94c-2.55.45-3.52,1.43-3.56,1.47l.48.47s.88-.87,3.2-1.28c2.23-.39,2.78-.23,2.8-.22h-.02s.28-.62.28-.62c-.14-.07-.78-.25-3.18.17h0Z"/>
      <path class="cls-4" d="m73.68,10.7c-2.78,5.05-3.26,8.54-3.28,8.68l.66.09s.5-3.52,3.21-8.45c1.63-2.96,4.61-6.26,4.64-6.29l-.5-.45c-.12.14-3.07,3.39-4.73,6.42h0Z"/>
      <path class="cls-4" d="m67.5,25.57c.16.13,3.92,3.13,9.48,4.6,5.58,1.48,10.36.23,10.56.18l-.17-.65s-4.81,1.25-10.21-.18c-5.42-1.44-9.2-4.45-9.23-4.48l-.42.52h0Z"/>
    </g>
  </g>
</svg>