<?xml version="1.0" encoding="UTF-8"?>
<svg id="Layer_2" data-name="Layer 2" xmlns="http://www.w3.org/2000/svg" viewBox="0 0 250.11 318.09">
  <defs>
    <style>
      .cls-1, .cls-2, .cls-3, .cls-4 {
        stroke-width: 0px;
      }

      .cls-2 {
        fill: #dc291e;
      }

      .cls-3 {
        fill: #fff;
      }

      .cls-4 {
        fill: #00539f;
      }
    </style>
  </defs>
  <g id="Ebene_1" data-name="Ebene 1">
    <path id="path11131" class="cls-3" d="m248.4,0H0v150.61c0,20.1,3.75,39.19,10.39,56.9,6.99,18.74,17.55,35.95,30.33,51.28,10.9,12.95,23.68,24.53,37.65,34.42,14.14,10.05,29.82,18.4,46,24.87h1.36c16.36-6.3,31.86-14.82,46-24.87,13.97-9.88,26.75-21.47,37.65-34.42,12.95-15.33,23.34-32.54,30.33-51.28,6.64-17.72,10.39-36.8,10.39-56.9V0h-1.7Z"/>
    <path id="path11133" class="cls-1" d="m201.21,113.64c3.41-5.62,13.8-12.1,17.72-15.5-24.87-1.19-26.92,1.02-29.82,2.21-.51.17-2.56.68-3.24.17-2.9-2.73-4.26-4.43-7.16-6.13,5.11-5.62,30.33-22.49,35.44-32.54-18.4,8.35-35.1,6.47-50.43,5.96-3.07-.68-18.23-1.36-21.3-.51,1.36-2.9,4.94-3.58,7.16-3.75,2.73-.17,5.45.85,7.5,2.21.85-5.45-1.7-6.64-3.75-8.86-2.9-2.04-10.39-3.75-14.65-1.7-.85-1.7,1.19-3.92-1.19-5.79-2.39-2.04-6.47-.68-9.37-.17-6.47,1.02-10.73,3.41-17.04,8.86-2.21,1.7-8.69,6.81-9.2,9.37,2.21-1.02,4.6-2.04,7.67-1.36-8.86.51-10.9,10.9-15.84,17.55,6.99-2.73,11.76-6.64,15.84-5.45,1.02.34.68,1.19-.17,1.87-7.5,5.62-15.84,4.77-28.96,7.16-7.16,9.71-8.86,11.24-18.74,20.96-2.39,2.39-16.7,12.61-19.59,13.63,2.9,2.21,23.68,4.09,33.05,2.73l1.87.85c.68,3.07.34,5.96-1.53,8.18-5.28-.68-13.46-.68-16.19,1.36-2.73,2.21-.51,4.43,0,6.47.51,1.87,1.53,8.35-1.53,8.86-2.39.17-16.19.34-18.74,3.07-.51-2.39-.17-4.26-.17-6.81s-4.6-2.73-8.01-2.73-8.18,1.36-7.84,3.58c.68,5.96,1.36,10.73,1.7,16.87.34,3.24,13.8,3.58,13.97-.68,0-1.87.17-5.28.17-5.28,1.53-1.87,11.93-3.92,14.48-3.24-1.87,3.75-5.45,5.45-6.99,9.88,3.92-1.7,8.69-3.92,10.39-3.41-.34,4.09-5.11,11.24-5.79,14.48,5.62-.51,10.56-5.28,13.46-4.6-1.19,5.62-4.43,18.57-4.43,18.57,6.64-4.43,12.61-5.28,17.04-4.94-6.64,5.45-14.31,12.61-19.42,17.21,19.76-1.53,39.87,6.13,43.96,6.81,4.09.51,6.3-.85,6.64-4.43s1.7-9.03,4.6-13.8c1.02-1.02,2.04,0,3.41.51,5.79,13.46,6.99,28.96,4.26,39.19,8.69-14.82,24.19-24.87,37.65-32.54,6.47-3.92,20.79-8.52,26.75-9.37-5.62-2.39-11.41-5.62-15.33-11.41-2.73-3.24-3.92-7.84.85-12.1,4.43-3.75,8.52-8.01,15.84-6.81,5.96.17,13.12,16.36,19.93,20.79-1.19-13.29,2.04-28.45,5.28-39.7,2.73,1.7,6.99,3.58,10.22,2.04-6.13-5.45-7.16-8.35-8.01-14.48-1.02-6.13-3.92-14.14-12.44-13.29"/>
    <path id="path11135" class="cls-4" d="m40.04,124.54l-4.43-3.58,5.45-2.04c2.04-.85,15.84-10.56,18.4-12.95,9.88-9.37,11.24-10.9,18.4-20.44l.68-1.02,1.19-.17c4.09-.85,7.67-1.19,10.73-1.7l.51-.85c1.19-1.7,2.39-3.75,3.41-5.79,1.19-2.04,2.21-4.26,3.75-6.3l.51-2.73c.51-2.73,3.24-5.62,10.22-11.07l.17-.17c6.99-5.96,11.76-8.52,18.57-9.54.51,0,1.02-.17,1.53-.34,1.53-.34,3.24-.68,4.94-.68,2.21,0,4.09.68,5.62,1.87,1.53,1.36,2.04,2.9,2.21,4.09h1.7c4.26,0,9.03,1.36,11.59,3.24l.34.17.17.17.85.85c1.53,1.36,3.41,3.24,3.75,6.64L248.06,11.59V2.04h-60.99L2.56,108.7l-.34,43.62v1.36l46-26.58c-3.75-.68-6.81-1.36-8.18-2.56Zm208.03,28.79v-22.49l-36.63,21.13c-2.21,10.39-2.9,19.25-2.21,26.75l.68,6.64-5.62-3.75c-3.41-2.21-6.64-6.81-9.71-11.07-1.19-1.7-3.07-4.26-4.77-6.13l-17.89,10.39.17.17.17.17c2.9,4.26,7.33,7.5,13.8,10.22l11.59,4.6-12.27,1.53c-5.62.68-19.59,5.28-25.39,8.86-13.46,7.84-28.28,17.55-36.46,31.35l-8.01,11.07,2.56-13.97c1.7-6.47,1.36-14.65-.34-22.83l-80.42,46.34c7.84,10.39,16.87,20.1,27.09,29.13l181.96-105.12c1.02-7.5,1.7-15.33,1.7-23h0Z"/>
    <path id="path11137" class="cls-2" d="m60.14,176c-2.39,1.19-5.45,2.73-8.86,3.07l-4.43.51,1.02-4.43c.17-.68.51-1.36.85-2.21l-40.21,23.17c1.36,4.77,3.07,9.54,4.77,14.14l44.81-25.9c.68-2.56,1.36-5.62,2.04-8.35Zm125.91-79.73l1.02,1.02c.34,0,.51-.17.68-.17.17-.17.51-.17.68-.34,2.39-1.02,5.62-2.39,17.89-2.39,2.21,0,4.6,0,7.16.17l34.42-19.93v-16.87l-63.72,36.8c.68.51,1.36,1.19,1.87,1.7Z"/>
    <path id="path11139" class="cls-1" d="m55.37,201.21c1.53-1.36,3.41-4.09,5.45-5.79,1.7-1.53,3.41-3.41,5.11-5.11-1.36.68-2.73,1.36-4.09,2.21l-6.81,4.43,2.04-8.01,1.19-4.77-44.98,26.07c1.7,4.6,3.75,9.03,5.96,13.46l33.39-19.25,2.73-3.24Zm163.73-106.48l8.01.34-5.96,5.28c-1.19,1.02-2.9,2.21-4.77,3.75-2.73,2.04-6.13,4.6-8.86,7.16,1.19.51,2.21,1.19,3.07,2.04l37.65-21.64v-16.87l-34.42,19.93c1.53-.17,3.24,0,5.28,0h0Z"/>
    <path id="path11141" class="cls-1" d="m246.7,0H0v150.61c0,20.1,3.75,39.19,10.39,56.9,6.99,18.74,17.55,35.95,30.33,51.28,10.9,12.95,23.68,24.53,37.65,34.42,14.14,10.05,29.82,18.4,46,24.87h1.36c16.36-6.3,31.86-14.82,46-24.87,13.97-9.88,26.75-21.47,37.65-34.42,12.95-15.33,23.34-32.54,30.33-51.28,6.64-17.72,10.39-36.8,10.39-56.9V0h-3.41Zm0,12.61v138c0,9.37-.85,18.4-2.39,27.26-1.7,9.71-4.26,19.25-7.67,28.28-6.99,18.4-17.04,35.27-29.82,50.26-10.73,12.78-23.34,24.19-36.97,33.9-13.8,9.71-28.79,17.89-44.64,24.19-15.84-6.3-30.84-14.31-44.64-24.19-4.6-3.24-9.03-6.64-13.29-10.22-8.69-7.16-16.7-15.16-23.85-23.68-1.36-1.7-2.73-3.24-4.09-4.94-6.99-9.03-13.29-18.57-18.4-28.79-2.21-4.43-4.26-8.86-6.13-13.46-.34-1.02-.85-2.04-1.19-3.07-1.36-3.58-2.56-7.33-3.58-11.07-3.92-13.46-6.13-27.6-6.47-42.42V3.58h243.12v9.03h0Z"/>
  </g>
</svg>