<?xml version="1.0" encoding="UTF-8"?>
<svg id="Layer_2" data-name="Layer 2" xmlns="http://www.w3.org/2000/svg" viewBox="0 0 51.79 68">
  <defs>
    <style>
      .cls-1 {
        fill: #3f3276;
      }

      .cls-1, .cls-2 {
        stroke-width: 0px;
      }

      .cls-2 {
        fill: #fff200;
      }
    </style>
  </defs>
  <g id="Layer_1-2" data-name="Layer 1">
    <path class="cls-1" d="m51.37,16.42l-6.52-6.94c-.29-.31-.71-.49-1.14-.49H8.08c-.43,0-.84.18-1.14.49L.42,16.42c-.46.48-.55,1.21-.24,1.8.03.06,3.15,6.06,3.15,13.81,0,4.03-.49,6.31-.92,8.32-.34,1.56-.65,3.03-.65,4.95,0,3.29.99,6.43,2.86,9.09,1.64,2.34,3.93,4.23,6.44,5.34,1.05.47,2,.82,2.92,1.17,3.07,1.15,5.72,2.15,10.89,6.71.29.26.66.39,1.03.39s.74-.13,1.03-.39c5.16-4.56,7.82-5.55,10.89-6.71.92-.35,1.87-.7,2.92-1.17,2.51-1.11,4.8-3,6.44-5.34,1.87-2.66,2.86-5.81,2.86-9.09,0-1.91-.32-3.39-.65-4.95-.43-2.01-.92-4.29-.92-8.32,0-7.75,3.11-13.76,3.15-13.81.31-.59.21-1.31-.24-1.8Z"/>
    <path class="cls-2" d="m35.21,54.73c0-.62,1.07-1.13,1.07-1.13,0-3.76.31-4.27.31-9.54,0,0-.99-.47-.99-1.05,0-.64.99-.97.99-1.52,0-1.47,1.04-2.7,2.45-3.09v-.33l.35-.21v-.57h.26v-.43l-.24-.25.67-.67.67.67-.24.25v.43h.26v.57l.35.21v.39c1.32.44,2.26,1.63,2.26,3.03v.35c0,.37,1.17.52,1.17,1.17,0,.72-.86,1.05-.86,1.05v4.05c0,.66.52.51,1.17.33l3.45-.96c.11-.71.17-1.44.17-2.19,0-3.26-1-5.1-1.41-9.43H4.72c-.41,4.33-1.41,6.17-1.41,9.43,0,6.41,4.09,11.12,8.37,13.01,4.5,1.99,7.27,2.01,14.21,8.13,6.18-5.45,9.05-6.07,12.79-7.54l-2.61-3.08s-.87-.2-.87-1.09Z"/>
    <path class="cls-2" d="m9.4,32.92h-1.85l-.26.82h-1.67l1.98-4.98h1.78l1.98,4.98h-1.71l-.26-.82Zm-.34-1.08l-.58-1.79-.58,1.79h1.16Z"/>
    <path class="cls-2" d="m11.02,28.76h4.96v1.23h-1.66v3.75h-1.63v-3.75h-1.66v-1.23Z"/>
    <path class="cls-2" d="m16.71,28.76h1.63v3.75h2.55v1.23h-4.18v-4.98Z"/>
    <path class="cls-2" d="m21.63,28.76h4.37v1.06h-2.74v.79h2.54v1.02h-2.54v.98h2.82v1.13h-4.45v-4.98Z"/>
    <path class="cls-2" d="m26.59,28.76h4.96v1.23h-1.66v3.75h-1.63v-3.75h-1.66v-1.23Z"/>
    <path class="cls-2" d="m32.35,28.76h1.63v4.98h-1.63v-4.98Z"/>
    <path class="cls-2" d="m38.67,31.7l1.43.41c-.1.38-.25.69-.45.95-.21.25-.46.44-.77.57-.31.13-.7.19-1.17.19-.57,0-1.04-.08-1.41-.24-.36-.16-.68-.43-.94-.83-.26-.4-.4-.9-.4-1.52,0-.82.23-1.46.7-1.9.46-.44,1.12-.66,1.97-.66.67,0,1.19.13,1.57.38.38.25.66.64.85,1.17l-1.44.3c-.05-.15-.1-.26-.16-.33-.09-.12-.2-.21-.33-.27-.13-.06-.28-.09-.44-.09-.37,0-.65.14-.85.42-.15.21-.22.54-.22.98,0,.55.09.93.27,1.14.18.2.43.31.75.31s.55-.08.71-.25c.16-.17.28-.41.35-.72Z"/>
    <path class="cls-2" d="m40.69,31.25c0-.81.24-1.45.72-1.9.48-.45,1.15-.68,2.01-.68s1.56.22,2.03.67c.48.45.71,1.07.71,1.87,0,.58-.1,1.06-.31,1.43-.21.37-.51.66-.9.87-.39.21-.88.31-1.47.31s-1.09-.09-1.48-.27c-.39-.18-.71-.46-.95-.85s-.36-.87-.36-1.45Zm1.63,0c0,.5.1.86.3,1.08.2.22.47.33.81.33s.62-.11.81-.32c.19-.22.29-.6.29-1.16,0-.47-.1-.81-.3-1.03-.2-.22-.47-.32-.82-.32s-.59.11-.79.33-.3.58-.3,1.09Z"/>
    <polygon class="cls-1" points="11.82 0 12.71 2.72 15.57 2.72 13.25 4.4 14.14 7.12 11.82 5.44 9.51 7.12 10.39 4.4 8.08 2.72 10.94 2.72 11.82 0"/>
    <polygon class="cls-1" points="21.2 0 22.09 2.72 24.95 2.72 22.63 4.4 23.52 7.12 21.2 5.44 18.89 7.12 19.77 4.4 17.46 2.72 20.32 2.72 21.2 0"/>
    <polygon class="cls-1" points="30.58 0 31.47 2.72 34.33 2.72 32.01 4.4 32.9 7.12 30.58 5.44 28.27 7.12 29.15 4.4 26.84 2.72 29.7 2.72 30.58 0"/>
    <polygon class="cls-1" points="39.96 0 40.85 2.72 43.71 2.72 41.39 4.4 42.28 7.12 39.96 5.44 37.65 7.12 38.53 4.4 36.22 2.72 39.08 2.72 39.96 0"/>
    <path class="cls-2" d="m27.31,20.27c-.33-3.21-.72-5.74-1.03-7.47-.19-1.07-.34-1.83-.44-2.26h-13.71c-.29.28-.74.71-1.28,1.25-.99,1-2.29,2.4-3.56,3.97,0,.49.06,4.78,1.64,10.22.17.05.64.16,1.3.29.71.13,1.64.28,2.68.35h7.38c2.28-2.48,6.52-5.95,7.02-6.36Z"/>
    <path class="cls-2" d="m8.61,26.13s.03-.04.05-.06c-1.54-5.28-1.64-9.49-1.65-10.24-.19-.03-.59-.09-1.14-.16-.65-.07-1.5-.15-2.45-.17l-1.86,1.98s1.96,3.69,2.87,9.15h3.68c.22-.19.4-.38.5-.5Z"/>
    <path class="cls-2" d="m38.29,24c-.1-.04-.35-.16-.74-.32-.51-.21-1.27-.52-2.22-.86-1.9-.69-4.61-1.57-7.83-2.33-.1.08-.38.31-.78.65-.51.43-1.22,1.02-2,1.7-1.34,1.17-2.9,2.59-4.04,3.79h18.42c-.14-.68-.32-1.29-.48-1.76-.15-.45-.28-.76-.33-.88Z"/>
    <path class="cls-2" d="m47.9,18.04c-1.11-.59-2.67-1.26-4.5-1.65-1.8,3.39-4.45,7-4.84,7.52.12.29.56,1.37.83,2.72h7.96c.56-3.35,1.51-6.03,2.17-7.61-.08-.05-.18-.12-.31-.21-.3-.2-.75-.47-1.32-.77Z"/>
    <path class="cls-2" d="m49.64,18.76c.35-.82.59-1.27.59-1.27l-6.52-6.94h-4.58c.96,1.1,3.41,3.93,4.29,5.56,3.16.66,5.52,2.16,6.22,2.65Z"/>
    <path class="cls-1" d="m7.65,48.94l5.73-.33c.12.87.38,1.52.76,1.98.62.73,1.51,1.1,2.66,1.1.86,0,1.52-.19,1.99-.56.46-.37.7-.81.7-1.3s-.22-.89-.67-1.26c-.44-.37-1.47-.72-3.08-1.05-2.64-.55-4.52-1.29-5.65-2.2-1.13-.92-1.7-2.08-1.7-3.5,0-.93.29-1.81.87-2.64.58-.83,1.45-1.48,2.62-1.95,1.17-.47,2.76-.71,4.79-.71,2.49,0,4.39.43,5.7,1.29,1.31.86,2.09,2.23,2.33,4.11l-5.68.31c-.15-.82-.47-1.41-.95-1.78-.48-.37-1.15-.56-2-.56-.7,0-1.23.14-1.58.41-.35.28-.53.61-.53,1.01,0,.29.15.55.44.78.28.24.96.46,2.02.67,2.63.53,4.52,1.06,5.66,1.6,1.14.54,1.97,1.21,2.49,2.01.52.8.78,1.69.78,2.68,0,1.16-.34,2.23-1.04,3.21-.69.98-1.66,1.73-2.9,2.23-1.24.51-2.8.76-4.69.76-3.31,0-5.61-.59-6.89-1.78-1.28-1.19-2-2.7-2.17-4.53Z"/>
    <path class="cls-1" d="m28.73,43.67h6.03v9.85c0,2.07-.2,3.64-.59,4.72-.39,1.08-1.19,1.99-2.38,2.74-1.19.75-2.72,1.12-4.58,1.12-1.97,0-3.49-.25-4.57-.74-1.08-.49-1.92-1.22-2.51-2.17-.59-.95-.94-2.13-1.04-3.53l5.75-.73c0,.8.08,1.39.23,1.78.14.39.38.7.72.94.23.16.56.23.98.23.67,0,1.17-.23,1.48-.7.31-.47.47-1.25.47-2.35v-11.17Z"/>
    <path class="cls-2" d="m39.79,45.34s-.03-.02-.04-.02h-1.05s-.03,0-.04.02-.02.03-.02.04v2.73s0,.03.02.04.03.02.04.02h1.05s.03,0,.04-.02c.01-.01.02-.03.02-.04v-2.73s0-.03-.02-.04Z"/>
  </g>
</svg>