<?xml version="1.0" encoding="UTF-8"?>
<svg id="Layer_2" data-name="Layer 2" xmlns="http://www.w3.org/2000/svg" viewBox="0 0 266.64 306.83">
  <defs>
    <style>
      .cls-1 {
        stroke: #000;
        stroke-width: 2.64px;
      }

      .cls-1, .cls-2 {
        fill: #fff;
      }

      .cls-3, .cls-4, .cls-5, .cls-6, .cls-7, .cls-8, .cls-9, .cls-10, .cls-11, .cls-2, .cls-12 {
        stroke-width: 0px;
      }

      .cls-4 {
        fill: #1faa1b;
      }

      .cls-5 {
        fill: #2440e2;
      }

      .cls-6 {
        fill: #e21a1a;
      }

      .cls-7 {
        fill: #c19527;
      }

      .cls-8 {
        fill: #93776f;
      }

      .cls-9 {
        fill: #c42a2a;
      }

      .cls-10 {
        fill: #7f1b1b;
      }

      .cls-11 {
        fill: #933612;
      }

      .cls-12 {
        fill: #e57623;
      }
    </style>
  </defs>
  <g id="Layer_1-2" data-name="Layer 1">
    <path class="cls-7" d="m133.32,306.83c26.84-8.8,133.32-81.4,133.32-187C171.6,73.19,174.66,55.13,133.32,0,91.98,55.13,95.04,73.19,0,119.83c0,105.6,106.48,178.2,133.32,187Z"/>
    <path class="cls-2" d="m149.23,31.55c-4.63-6.78-9.81-14.35-15.91-22.71-6.1,8.36-11.28,15.92-15.91,22.71-23.8,34.89-37.18,54.36-112.07,91.47,1.14,53.46,30.41,96.34,55.1,123.07,27.35,29.61,58.76,49.81,72.88,55.11,14.12-5.3,45.53-25.5,72.88-55.11,24.69-26.73,53.96-69.61,55.1-123.07-74.89-37.1-88.27-56.57-112.07-91.46Zm-15.91,240.72c-27.69-15.72-90.3-66.07-100.39-133.92,59.02-30.95,78.33-52.13,100.39-83.73,22.07,31.61,41.37,52.79,100.39,83.73-10.09,67.85-72.7,118.21-100.39,133.92Z"/>
    <g>
      <path class="cls-3" d="m28.61,178.79l.13.29c-1.46.8-2.46,1.78-2.99,2.96-.53,1.17-.51,2.37.04,3.58.44.96,1.11,1.62,2,1.98.89.36,1.79.34,2.68-.07.37-.17.69-.41.95-.7.26-.3.44-.64.56-1.03.19-.64.07-1.86-.38-3.66-.03-.13-.05-.23-.07-.29-.34-1.42-.34-2.54,0-3.36.34-.82,1.07-1.49,2.18-2,1.26-.58,2.42-.7,3.47-.35,1.05.35,1.84,1.1,2.38,2.26.34.73.48,1.56.43,2.48-.05.92-.07,1.4-.06,1.42.07.15.19.25.36.29.16.04.35,0,.56-.08l.11-.05.13.29-4.06,1.87-.13-.29c1.25-.77,2.09-1.66,2.5-2.67.41-1.01.38-2.05-.11-3.11-.42-.92-.99-1.52-1.71-1.8-.72-.28-1.52-.22-2.4.19-.51.23-.9.52-1.17.86-.27.34-.43.75-.49,1.25-.04.3.06.88.3,1.73.23.86.4,1.51.5,1.97.28,1.37.23,2.46-.12,3.27-.36.81-1.09,1.46-2.18,1.96-1.37.63-2.64.75-3.82.35-1.18-.4-2.06-1.23-2.65-2.51-.34-.75-.53-1.63-.57-2.66-.03-1.02-.07-1.59-.12-1.68-.07-.14-.19-.23-.38-.25-.19-.03-.4.01-.65.11l-.13-.28,4.91-2.26Z"/>
      <path class="cls-3" d="m27.15,188.81l.29-.15.14.26c.38.71,1.04.98,1.99.81h.03l14.12-2.48.12.22-10.75,11.82.71,1.34-.29.15-2.73-5.16.29-.15.93,1.74,3.27-3.64-2.18-4.12-3.75.71c-.08.02-.16.03-.24.06-.08.02-.14.04-.16.05-.17.08-.23.24-.19.47.03.22.23.7.58,1.43l-.29.15-1.86-3.51Zm6.25.58l2.08,3.92,4.66-5.09-6.74,1.17Z"/>
      <path class="cls-3" d="m35.7,200.34c-.62.38-.95.72-1,1.03-.05.31.13.84.55,1.61l-.27.16-2.19-3.57.27-.17c.42.58.76.91,1.04.98.28.07.73-.08,1.37-.47l10.89-6.68-.88-1.44.27-.17,2.27,3.7-5.25,12.75,7.72-4.74c.63-.38.96-.73,1.01-1.03.05-.31-.14-.85-.56-1.62l.27-.16,2.19,3.57-.27.17c-.41-.58-.76-.91-1.05-.98-.28-.07-.74.08-1.37.47l-11.26,6.91-.14-.22,6.74-16.44-10.35,6.35Z"/>
      <path class="cls-3" d="m48.53,214.08l.2.27c-1.28,1.08-2.06,2.25-2.34,3.51-.28,1.26-.03,2.43.76,3.5.62.85,1.41,1.36,2.36,1.53.95.18,1.82-.03,2.62-.62.33-.25.59-.54.78-.89.19-.35.3-.73.33-1.14.06-.66-.31-1.83-1.12-3.5-.06-.13-.1-.22-.13-.27-.62-1.33-.85-2.42-.68-3.29.17-.87.74-1.66,1.72-2.38,1.11-.82,2.22-1.16,3.31-1.03,1.1.13,2.02.71,2.78,1.74.48.65.79,1.43.92,2.35.14.92.21,1.38.22,1.4.1.14.24.21.41.21.17,0,.35-.06.54-.2l.1-.07.2.27-3.62,2.66-.2-.27c1.08-1.01,1.72-2.06,1.92-3.14.2-1.07-.04-2.08-.73-3.03-.6-.82-1.28-1.29-2.04-1.42-.76-.13-1.53.09-2.31.67-.45.33-.78.69-.97,1.08-.2.38-.27.83-.23,1.32.03.3.25.85.65,1.64.41.79.7,1.41.89,1.84.55,1.29.73,2.37.55,3.24-.19.87-.76,1.65-1.73,2.37-1.21.89-2.43,1.26-3.67,1.11-1.24-.15-2.27-.79-3.1-1.93-.49-.66-.85-1.5-1.08-2.5-.23-1-.38-1.54-.45-1.63-.09-.13-.24-.18-.43-.17-.19.02-.4.1-.63.25l-.19-.26,4.39-3.23Z"/>
      <path class="cls-3" d="m51.58,226.79l11.26-9.23-1.01-1.24.25-.2,7.12,8.69-2.69,2.57-.22-.27c.94-.91,1.4-1.75,1.4-2.51,0-.76-.53-1.77-1.57-3.04l-1.82-2.23-5.4,4.43.45.55c.84,1.03,1.54,1.59,2.1,1.71.56.11,1.23-.15,2.01-.79l.07-.06.2.25-4.41,3.61-.2-.25.15-.12c.76-.62,1.14-1.19,1.14-1.72,0-.52-.44-1.33-1.33-2.42l-.45-.55-5.59,4.58,1.87,2.28c1.25,1.52,2.34,2.38,3.28,2.59.94.2,1.99-.17,3.15-1.12l.05-.04.2.25-3.42,2.8-7.84-9.57.25-.2,1.01,1.24Z"/>
      <path class="cls-3" d="m59.25,236.61l.25-.23,1.15,1.26,10.76-9.81-1.15-1.26.23-.21,4.06,4.46c1.17,1.28,1.84,2.49,2.02,3.61.17,1.12-.17,2.07-1.02,2.84-.73.67-1.6.94-2.58.79-.99-.14-1.96-.67-2.92-1.58.92,1.24,1.41,2.38,1.46,3.43.05,1.05-.34,1.95-1.16,2.7-.91.83-1.97,1.15-3.17.98-1.21-.18-2.33-.83-3.36-1.96l-4.58-5.02Zm2.94,2.72l.66.73c1.04,1.14,2.04,1.77,2.99,1.87.95.11,1.92-.29,2.91-1.19.92-.84,1.33-1.77,1.25-2.79-.09-1.03-.67-2.14-1.76-3.33-.04-.04-.11-.11-.2-.21-.1-.09-.17-.16-.21-.21l-5.64,5.14Zm5.86-5.34c.07.11.15.21.24.3.09.1.21.25.39.43,1.01,1.1,1.93,1.74,2.76,1.92.83.17,1.65-.11,2.46-.84.8-.73,1.19-1.58,1.17-2.53-.02-.96-.46-1.9-1.31-2.84l-.81-.89-4.88,4.45Z"/>
      <path class="cls-3" d="m66.57,244.71l.23-.22.21.21c.57.57,1.29.64,2.15.2h.02s12.78-6.47,12.78-6.47l.17.17-6.85,14.43,1.07,1.08-.23.22-4.12-4.15.23-.22,1.39,1.4,2.09-4.45-3.28-3.3-3.4,1.78c-.07.04-.14.08-.21.12-.07.04-.12.08-.14.1-.13.13-.15.3-.05.51.1.21.43.61.98,1.21l-.23.22-2.81-2.83Zm6.17-1.26l3.12,3.14,2.98-6.22-6.1,3.07Z"/>
      <path class="cls-3" d="m79.44,249.9l.25.23c-1.05,1.3-1.6,2.59-1.64,3.88-.04,1.29.43,2.39,1.4,3.29.77.72,1.64,1.08,2.6,1.07.97,0,1.78-.37,2.46-1.09.28-.3.48-.64.6-1.02.12-.38.16-.77.11-1.18-.07-.67-.65-1.75-1.75-3.24-.08-.11-.14-.19-.17-.24-.86-1.19-1.28-2.22-1.28-3.11,0-.89.42-1.78,1.25-2.67.94-1.01,1.97-1.56,3.07-1.63,1.1-.08,2.12.32,3.06,1.19.59.55,1.04,1.26,1.34,2.14.3.87.46,1.32.48,1.33.13.12.27.16.44.13.17-.03.33-.12.49-.29l.08-.09.25.23-3.05,3.28-.25-.23c.87-1.19,1.3-2.34,1.3-3.43,0-1.1-.43-2.04-1.29-2.84-.74-.69-1.5-1.03-2.27-1.02-.77.01-1.49.37-2.15,1.08-.38.41-.63.82-.75,1.24-.12.41-.11.86.02,1.34.08.29.4.79.95,1.5.55.7.95,1.25,1.22,1.64.78,1.17,1.16,2.2,1.14,3.08-.02.89-.44,1.77-1.27,2.65-1.03,1.1-2.16,1.69-3.4,1.78-1.24.08-2.38-.36-3.41-1.32-.6-.56-1.11-1.31-1.53-2.25-.42-.94-.66-1.45-.74-1.52-.11-.11-.27-.13-.45-.08-.19.05-.38.17-.57.36l-.24-.22,3.71-3.98Z"/>
      <path class="cls-3" d="m103.19,257.93l-2.88,3.37-.25-.21.37-.44c.48-.57.83-1.03,1.03-1.38.2-.35.3-.68.31-.97,0-.41-.13-.83-.42-1.25-.29-.42-.89-1.02-1.79-1.78l-.74-.63-9.45,11.08,1.28,1.09-.21.25-4.33-3.7.21-.25,1.28,1.09,9.45-11.08-.72-.61c-.9-.77-1.59-1.27-2.05-1.49-.46-.22-.9-.3-1.31-.23-.29.06-.59.21-.91.46-.32.25-.72.66-1.2,1.23l-.37.44-.25-.21,2.88-3.37,10.06,8.59Z"/>
      <path class="cls-3" d="m93.58,269.65l.2-.25,1.34,1.06,9.07-11.41-1.34-1.06.2-.25,4.43,3.53-.2.25-1.28-1.02-9.07,11.41,1.28,1.02-.2.25-4.43-3.53Z"/>
      <path class="cls-3" d="m96.73,272.26l.2-.27.23.17c.65.48,1.36.45,2.14-.11h.02s11.7-8.29,11.7-8.29l.2.15-4.66,15.28,1.22.91-.2.27-4.68-3.5.2-.27,1.58,1.18,1.39-4.68-3.74-2.79-3.08,2.23c-.06.05-.13.1-.19.15-.06.05-.11.09-.12.12-.11.15-.1.32.03.51.13.19.51.54,1.14,1.04l-.2.27-3.18-2.37Zm5.9-2.15l3.56,2.66,2.04-6.6-5.6,3.95Z"/>
      <path class="cls-3" d="m109.38,279.05c-.4.6-.57,1.05-.48,1.35.08.3.47.71,1.17,1.23l-.18.27-3.46-2.32.18-.27c.62.35,1.07.5,1.35.45.28-.05.63-.38,1.04-1l7.12-10.62-1.4-.94.18-.27,3.6,2.41.54,13.79,5.04-7.53c.41-.61.57-1.07.49-1.36-.08-.3-.48-.71-1.19-1.24l.18-.27,3.49,2.34-.18.27c-.62-.35-1.07-.5-1.35-.45-.29.05-.64.38-1.05,1l-7.36,10.98-.22-.14-.75-17.78-6.76,10.09Z"/>
      <path class="cls-3" d="m148.28,287.58l-.18-.27,1.4-.94-8.11-12.09-1.4.94-.18-.27,4.77-3.2c1.06-.71,2.03-1.2,2.93-1.47.9-.27,1.8-.35,2.71-.24,1.11.14,2.13.51,3.05,1.09.91.58,1.7,1.37,2.37,2.35.67.99,1.1,2.02,1.28,3.08.19,1.06.14,2.13-.16,3.21-.24.9-.66,1.71-1.25,2.44-.59.73-1.41,1.45-2.46,2.15l-4.77,3.2Zm3.12-2.48l1.11-.74c1.72-1.15,2.67-2.52,2.85-4.08.18-1.56-.42-3.36-1.78-5.4-1.37-2.04-2.81-3.28-4.32-3.7-1.51-.43-3.13-.06-4.86,1.1l-1.11.74,8.11,12.09Z"/>
      <path class="cls-3" d="m161.69,278.02l-8.78-11.57-1.28.97-.2-.27,8.96-6.8,2.46,2.78-.27.21c-.87-.96-1.69-1.46-2.45-1.47-.76-.02-1.79.46-3.09,1.45l-2.29,1.74,4.21,5.55.56-.43c1.05-.8,1.65-1.48,1.78-2.04.13-.56-.11-1.24-.72-2.04l-.05-.07.27-.2,3.44,4.54-.27.2-.12-.15c-.59-.78-1.15-1.18-1.67-1.21-.52-.03-1.34.39-2.46,1.24l-.56.43,4.37,5.75,2.34-1.78c1.56-1.18,2.46-2.24,2.69-3.18.24-.93-.1-2-1-3.19l-.04-.05.27-.2,2.69,3.55-9.86,7.48-.2-.27,1.28-.97Z"/>
      <path class="cls-3" d="m175.92,267.36l-.22-.25,1.3-1.13-9.58-10.97-1.3,1.13-.22-.25,4.27-3.73.22.25-1.22,1.06,9.58,10.97,1.93-1.68c1.75-1.52,2.71-2.75,2.89-3.69.18-.94-.26-2.03-1.34-3.26l-.27-.3.25-.22,3.26,3.73-9.55,8.33Z"/>
      <path class="cls-3" d="m180.79,253.01c-.75-.78-1.33-1.61-1.74-2.49-.41-.88-.64-1.79-.7-2.75-.06-1.06.07-2.03.38-2.91.31-.88.81-1.64,1.47-2.28.67-.64,1.45-1.11,2.33-1.39.89-.28,1.86-.37,2.92-.27.95.08,1.85.35,2.71.79.86.45,1.67,1.06,2.42,1.85.76.79,1.35,1.62,1.76,2.49.41.87.64,1.78.7,2.74.06,1.05-.06,2.02-.38,2.9-.31.88-.8,1.65-1.47,2.29-.67.64-1.45,1.1-2.34,1.38-.89.28-1.87.37-2.92.28-.96-.1-1.86-.37-2.72-.81-.86-.44-1.67-1.05-2.42-1.83Zm1.8-1.73c1.65,1.71,3.21,2.78,4.69,3.21,1.48.43,2.71.18,3.68-.75.97-.94,1.27-2.15.89-3.63-.38-1.49-1.4-3.09-3.05-4.81-1.66-1.72-3.23-2.8-4.71-3.23-1.48-.43-2.7-.19-3.66.75-.97.94-1.26,2.15-.88,3.65.38,1.5,1.4,3.11,3.05,4.82Z"/>
      <path class="cls-3" d="m192.99,244.2l.21-.23c1.29,1.06,2.58,1.62,3.87,1.66,1.29.05,2.39-.41,3.31-1.38.72-.77,1.09-1.64,1.09-2.6,0-.97-.36-1.79-1.07-2.46-.3-.28-.63-.49-1-.62-.37-.13-.76-.18-1.17-.13-.66.06-1.75.64-3.26,1.74-.11.08-.19.13-.24.17-1.2.85-2.24,1.27-3.12,1.27-.89,0-1.78-.43-2.66-1.27-1.01-.95-1.54-1.98-1.61-3.08-.07-1.1.34-2.12,1.22-3.06.55-.59,1.27-1.03,2.15-1.34.88-.3,1.33-.46,1.34-.47.12-.13.16-.27.14-.44-.02-.17-.12-.33-.29-.49l-.09-.08.21-.23,3.26,3.08-.21.23c-1.19-.87-2.33-1.31-3.43-1.32-1.09,0-2.04.42-2.85,1.28-.7.74-1.05,1.5-1.04,2.27,0,.77.36,1.49,1.07,2.16.41.38.82.64,1.23.76.42.12.86.12,1.34-.01.29-.08.79-.39,1.5-.94.71-.54,1.26-.94,1.65-1.21,1.17-.78,2.2-1.15,3.09-1.12.88.03,1.76.45,2.64,1.28,1.09,1.03,1.68,2.17,1.75,3.41.07,1.24-.38,2.37-1.34,3.4-.57.6-1.32,1.11-2.26,1.53-.94.42-1.44.66-1.52.74-.11.11-.14.26-.09.45.05.19.16.37.34.56l-.21.22-3.94-3.71Z"/>
      <path class="cls-3" d="m207.61,236.38l-.25-.2,1.09-1.32-11.26-9.25-1.09,1.32-.25-.2,4.05-4.93c1.1-1.34,2.17-2.16,3.21-2.47,1.04-.3,2.02-.08,2.94.68.8.66,1.21,1.47,1.22,2.42.01.95-.37,2.01-1.16,3.18.98-.88,1.86-1.36,2.66-1.44.79-.08,1.73.23,2.79.92.21.14.51.33.87.59,1.52,1.04,2.51,1.28,2.98.71.1-.12.18-.24.24-.35.06-.11.12-.24.16-.39l.32.08c-.14.34-.29.66-.46.96-.17.3-.36.57-.57.83-.3.36-.62.62-.97.77-.35.15-.75.2-1.19.16-.6-.07-1.51-.52-2.74-1.32-.48-.32-.85-.57-1.12-.73-.84-.51-1.57-.68-2.19-.49-.62.19-1.36.8-2.21,1.83l-.49.59,5.73,4.71,1.02-1.24.25.2-3.59,4.37Zm-8.93-12.59l5.26,4.32.49-.59c.97-1.18,1.47-2.23,1.52-3.14.05-.91-.37-1.73-1.24-2.45-.94-.78-1.81-1.11-2.6-1.01-.79.1-1.6.66-2.43,1.67l-.99,1.2Z"/>
      <path class="cls-3" d="m217,224.27l-11.76-8.56-.95,1.3-.27-.2,6.61-9.07,3.16,1.95-.2.28c-1.12-.67-2.04-.91-2.77-.71-.73.2-1.58.96-2.54,2.28l-1.69,2.32,5.63,4.1.41-.57c.78-1.07,1.15-1.88,1.12-2.45-.03-.57-.46-1.15-1.27-1.74l-.07-.05.2-.27,4.62,3.37-.2.27-.16-.11c-.79-.58-1.45-.81-1.95-.68-.51.12-1.17.75-2,1.89l-.42.57,5.84,4.25,1.73-2.37c1.15-1.59,1.71-2.86,1.67-3.82-.04-.96-.66-1.88-1.87-2.77l-.05-.04.2-.27,3.59,2.61-7.29,10-.27-.2.95-1.3Z"/>
      <path class="cls-3" d="m225.8,212.45l-.27-.17,1.08-1.67-4.56-2.94-9.9-1.54-.97,1.51-.27-.17,3.18-4.93.27.17-.89,1.38,8.87,1.35-4.04-6.13c-.12-.19-.22-.33-.31-.42-.08-.09-.17-.17-.26-.23-.2-.13-.39-.13-.58-.02-.19.11-.41.37-.67.77l-.12.18-.27-.17,2.11-3.28.27.17-.19.29c-.25.38-.37.71-.36.98,0,.27.16.65.47,1.13l4.49,6.84,4.93,3.18,1.07-1.65.27.17-3.35,5.2Z"/>
      <path class="cls-3" d="m231.2,203.35l-12.68-7.12-.79,1.4-.29-.16,5.51-9.82,3.37,1.57-.17.3c-1.19-.54-2.14-.66-2.85-.38-.71.29-1.46,1.15-2.26,2.58l-1.41,2.51,6.06,3.4.35-.62c.65-1.16.92-2.01.82-2.58-.1-.56-.58-1.09-1.46-1.58l-.08-.04.16-.29,4.97,2.79-.16.29-.17-.09c-.86-.48-1.53-.63-2.02-.44-.49.18-1.08.89-1.77,2.12l-.35.62,6.31,3.54,1.44-2.57c.96-1.72,1.37-3.05,1.21-4-.15-.95-.88-1.79-2.19-2.53l-.06-.03.16-.29,3.88,2.18-6.06,10.81-.29-.16.79-1.4Z"/>
      <path class="cls-3" d="m232.95,189.61l.14-.29c1.56.62,2.96.76,4.21.41,1.25-.34,2.16-1.12,2.73-2.32.45-.95.53-1.89.24-2.81-.3-.92-.89-1.6-1.79-2.02-.37-.18-.75-.27-1.15-.28-.39-.01-.78.07-1.16.23-.62.26-1.47,1.15-2.58,2.66-.08.11-.14.19-.17.24-.88,1.18-1.74,1.91-2.59,2.17-.85.27-1.83.14-2.93-.39-1.25-.6-2.08-1.41-2.48-2.44-.4-1.04-.33-2.13.23-3.29.35-.73.9-1.38,1.65-1.93.75-.55,1.13-.84,1.14-.86.07-.16.07-.31,0-.46-.07-.16-.22-.28-.43-.38l-.11-.05.14-.29,4.06,1.94-.14.29c-1.41-.47-2.63-.54-3.68-.21-1.05.33-1.83,1.03-2.33,2.09-.44.92-.54,1.75-.29,2.48.24.74.8,1.31,1.68,1.73.51.24.98.36,1.41.35.43,0,.86-.15,1.28-.42.26-.17.64-.62,1.14-1.35.51-.73.91-1.29,1.2-1.66.88-1.1,1.75-1.77,2.6-2.02.85-.25,1.82-.11,2.91.41,1.36.65,2.26,1.56,2.71,2.72.45,1.16.37,2.38-.23,3.65-.36.74-.92,1.46-1.69,2.14-.77.68-1.18,1.07-1.22,1.16-.07.14-.05.29.05.46.1.16.27.3.5.43l-.13.28-4.91-2.34Z"/>
    </g>
    <polygon class="cls-9" points="20.24 141.29 14.83 145.21 16.88 138.85 11.49 134.91 18.17 134.9 20.24 128.55 22.31 134.9 29 134.91 23.6 138.85 25.65 145.21 20.24 141.29"/>
    <polygon class="cls-9" points="246.4 141.29 251.81 145.21 249.76 138.85 255.16 134.91 248.47 134.9 246.4 128.55 244.33 134.9 237.65 134.91 243.04 138.85 240.99 145.21 246.4 141.29"/>
    <g>
      <path class="cls-3" d="m134.69,22.39v2.44h3.23v9.44c0,2.98-.78,4.97-4.6,4.97s-4.39-2.22-4.39-4.39v-10.02h3.16v-2.44h-8.25v2.44h2.68v9.71c0,2.36.19,4.6,2.44,6.03,1.46.92,2.78,1.11,4.43,1.11,1.35,0,2.71-.3,4.03-.89,2.14-.97,2.9-3.49,2.9-5.53v-10.43h2.61v-2.44h-8.24Z"/>
      <path class="cls-3" d="m131.78,31.05v2.44h2.71v14h-2.71v2.44h8.45c6.13,0,9.24-3.3,9.24-9.82,0-1.82-.41-6.26-4.19-8.21-1.12-.57-2.5-.85-4.22-.85h-9.27Zm5.12,16.07v-13.62h4.25c3.75,0,5.9,2.46,5.9,6.76,0,2.96-1,5.23-2.81,6.39-1.27.78-2.69.85-4.15.85h-3.19v-.37Z"/>
      <path class="cls-3" d="m150.05,46.26c-.49.47-.77,1.09-.77,1.71,0,.75.74,2.41,2.96,2.41,1.56,0,2.78-1.07,2.78-2.44,0-.6-.26-1.21-.71-1.66-.37-.37-1.04-.81-2.15-.81-.83,0-1.58.28-2.12.8Z"/>
    </g>
    <path class="cls-2" d="m81.36,222.13c18.5,20.74,38.7,36.03,51.96,44.01,13.26-7.98,33.46-23.27,51.96-44.01h-103.92Z"/>
    <g>
      <polygon class="cls-9" points="120.83 245.06 123.88 247.26 122.72 243.69 125.76 241.47 122 241.47 120.83 237.9 119.67 241.47 115.91 241.47 118.95 243.69 117.79 247.26 120.83 245.06"/>
      <polygon class="cls-9" points="133.32 245.06 130.28 247.26 131.43 243.69 128.4 241.47 132.16 241.47 133.32 237.9 134.49 241.47 138.25 241.47 135.21 243.69 136.37 247.26 133.32 245.06"/>
      <polygon class="cls-9" points="145.81 245.06 142.76 247.26 143.92 243.69 140.89 241.47 144.64 241.47 145.81 237.9 146.98 241.47 150.73 241.47 147.7 243.69 148.85 247.26 145.81 245.06"/>
      <polygon class="cls-9" points="114.59 236.64 117.63 238.84 116.48 235.26 119.51 233.05 115.75 233.04 114.59 229.47 113.42 233.04 109.66 233.05 112.7 235.26 111.54 238.84 114.59 236.64"/>
      <polygon class="cls-9" points="127.08 236.64 124.03 238.84 125.19 235.26 122.15 233.05 125.91 233.04 127.08 229.47 128.24 233.04 132 233.05 128.96 235.26 130.12 238.84 127.08 236.64"/>
      <polygon class="cls-9" points="139.57 236.64 142.61 238.84 141.45 235.26 144.49 233.05 140.73 233.04 139.57 229.47 138.4 233.04 134.64 233.05 137.68 235.26 136.52 238.84 139.57 236.64"/>
      <polygon class="cls-9" points="152.05 236.64 149.01 238.84 150.16 235.26 147.13 233.05 150.89 233.04 152.05 229.47 153.22 233.04 156.98 233.05 153.94 235.26 155.1 238.84 152.05 236.64"/>
    </g>
    <path class="cls-2" d="m133.32,63.69c-20.46,28.42-40.85,48.94-94.51,77.47h189.01c-53.65-28.53-74.04-49.05-94.5-77.47Z"/>
    <path class="cls-10" d="m38.82,141.16c2,11.08,5.48,21.67,9.95,31.7,2.69-10.93,12.52-19.04,24.28-19.04,13.82,0,25.03,11.2,25.03,25.03v14.4c1.93-1.37,3.37-2.36,5.11-2.36s3.31.6,5.12,1.51v-13.56c0-13.82,11.2-25.03,25.03-25.03s25.03,11.2,25.03,25.03v13.56c1.8-.91,3.34-1.51,5.12-1.51s3.18.99,5.11,2.36v-14.4c0-13.82,11.21-25.03,25.03-25.03,11.75,0,21.59,8.11,24.28,19.04,4.47-10.03,7.95-20.62,9.95-31.7H38.82Z"/>
    <polygon class="cls-8" points="146 131.87 134.81 122.98 144.24 115.5 143.09 114.05 133.32 121.8 123.55 114.05 122.4 115.5 131.83 122.98 120.65 131.87 121.8 133.31 133.32 124.16 144.85 133.31 146 131.87"/>
    <path class="cls-11" d="m137.17,114.46c-1.25.2-2.53.31-3.85.31s-2.6-.11-3.85-.31v20.99h-2.53v2.42h12.76v-2.42h-2.53v-20.99Z"/>
    <path class="cls-4" d="m153.12,98.82c0,8.81-8.86,15.95-19.8,15.95s-19.8-7.14-19.8-15.95,8.87-15.95,19.8-15.95,19.8,7.14,19.8,15.95Z"/>
    <g>
      <path class="cls-12" d="m132.44,85.51c0,1.22-.98,2.2-2.2,2.2s-2.2-.98-2.2-2.2.98-2.2,2.2-2.2,2.2.98,2.2,2.2Z"/>
      <path class="cls-12" d="m126.5,111.25c0,1.22-.98,2.2-2.2,2.2s-2.2-.98-2.2-2.2.98-2.2,2.2-2.2,2.2.98,2.2,2.2Z"/>
      <path class="cls-12" d="m121.77,96.18c0,1.22-.98,2.2-2.2,2.2s-2.2-.99-2.2-2.2.98-2.2,2.2-2.2,2.2.99,2.2,2.2Z"/>
      <path class="cls-12" d="m147.62,91.01c0,1.22-.99,2.2-2.2,2.2s-2.2-.98-2.2-2.2.98-2.2,2.2-2.2,2.2.98,2.2,2.2Z"/>
      <path class="cls-12" d="m142.78,101.35c0,1.22-.98,2.2-2.2,2.2s-2.2-.98-2.2-2.2.99-2.2,2.2-2.2,2.2.98,2.2,2.2Z"/>
      <path class="cls-12" d="m145.2,108.39c0,1.22-.98,2.2-2.2,2.2s-2.2-.98-2.2-2.2.99-2.2,2.2-2.2,2.2.98,2.2,2.2Z"/>
      <path class="cls-12" d="m132.44,100.25c0,1.22-.98,2.2-2.2,2.2s-2.2-.98-2.2-2.2.98-2.2,2.2-2.2,2.2.98,2.2,2.2Z"/>
    </g>
    <path class="cls-2" d="m63.86,191.59c4.22,2.25,9.01,4.8,16.88,4.8,8.34,0,12.38-2.87,15.63-5.18.58-.41,1.14-.8,1.69-1.17v-2.08c-.06.04-.11.08-.17.12-3.37,2.39-7.98,5.66-17.16,5.66-8.53,0-13.84-2.84-18.12-5.11-2.59-1.38-4.89-2.54-7.39-2.88.54.96,1.1,1.9,1.65,2.85,2.44.57,4.67,1.74,6.98,2.97Z"/>
    <path class="cls-2" d="m53.9,182.97c3.71,0,6.75,1.62,9.96,3.34,4.22,2.25,9.01,4.8,16.88,4.8,8.34,0,12.38-2.87,15.63-5.18.58-.41,1.14-.8,1.69-1.17v-5.92c0-13.82-11.2-25.03-25.03-25.03-11.76,0-21.59,8.12-24.28,19.04,1.54,3.45,3.23,6.8,4.99,10.11.05,0,.09,0,.14,0Z"/>
    <path class="cls-2" d="m111.27,190.98c4.52,2.41,10.14,5.41,22.06,5.41s17.54-3,22.06-5.41c1.03-.55,2-1.04,2.97-1.47v-2.38c-.55.28-1.11.58-1.73.9-4.53,2.41-10.72,5.72-23.3,5.72s-18.77-3.31-23.3-5.72c-.61-.33-1.18-.63-1.73-.9v2.38c.97.43,1.94.92,2.97,1.47Z"/>
    <path class="cls-2" d="m111.27,185.7c4.52,2.41,10.14,5.41,22.06,5.41s17.54-3,22.06-5.41c1.03-.55,2-1.04,2.97-1.47v-5.38c0-13.82-11.2-25.03-25.03-25.03s-25.03,11.2-25.03,25.03v5.38c.97.44,1.94.93,2.97,1.47Z"/>
    <path class="cls-2" d="m170.27,191.21c3.25,2.31,7.29,5.18,15.63,5.18,7.87,0,12.65-2.55,16.88-4.8,2.31-1.23,4.53-2.4,6.98-2.97.55-.95,1.11-1.89,1.65-2.85-2.5.34-4.8,1.5-7.38,2.88-4.27,2.28-9.59,5.12-18.12,5.12-9.18,0-13.79-3.27-17.16-5.66-.06-.04-.11-.07-.17-.12v2.08c.56.36,1.11.75,1.69,1.17Z"/>
    <path class="cls-2" d="m170.27,185.93c3.25,2.31,7.29,5.18,15.63,5.18,7.87,0,12.65-2.55,16.88-4.8,3.22-1.71,6.25-3.34,9.96-3.34.05,0,.09,0,.14,0,1.76-3.31,3.45-6.67,4.99-10.12-2.69-10.92-12.52-19.04-24.28-19.04-13.82,0-25.03,11.2-25.03,25.03v5.92c.56.36,1.11.76,1.69,1.17Z"/>
    <path class="cls-6" d="m185.26,222.13c8.05-9.03,15.79-19.09,22.48-30.04-1.21.52-2.42,1.14-3.72,1.83-4.27,2.28-9.59,5.11-18.12,5.11-9.18,0-13.79-3.27-17.16-5.66-2.02-1.44-3.49-2.47-5.28-2.47-2.31,0-4.21,1.01-6.84,2.42-4.53,2.41-10.72,5.72-23.3,5.72s-18.77-3.31-23.3-5.72c-2.63-1.41-4.53-2.42-6.84-2.42-1.8,0-3.26,1.04-5.28,2.47-3.37,2.39-7.98,5.66-17.16,5.66-8.53,0-13.84-2.84-18.12-5.11-1.3-.69-2.51-1.31-3.72-1.84,6.69,10.96,14.43,21.01,22.48,30.05h103.87Z"/>
    <path class="cls-5" d="m202.78,191.59c-4.22,2.25-9.01,4.8-16.88,4.8-8.34,0-12.38-2.87-15.63-5.18-2.24-1.59-4.17-2.96-6.81-2.96-2.97,0-5.34,1.27-8.09,2.73-4.52,2.41-10.14,5.41-22.06,5.41s-17.54-3-22.06-5.41c-2.74-1.46-5.12-2.73-8.09-2.73-2.64,0-4.57,1.37-6.81,2.96-3.25,2.31-7.29,5.18-15.63,5.18-7.87,0-12.65-2.55-16.88-4.8-2.33-1.24-4.58-2.43-7.05-2.99.68,1.17,1.38,2.33,2.09,3.49,1.21.52,2.43,1.14,3.72,1.84,4.27,2.28,9.59,5.11,18.12,5.11,9.18,0,13.79-3.27,17.16-5.66,2.02-1.44,3.49-2.47,5.28-2.47,2.31,0,4.21,1.01,6.84,2.42,4.53,2.41,10.73,5.72,23.3,5.72s18.77-3.31,23.3-5.72c2.63-1.41,4.53-2.42,6.84-2.42,1.79,0,3.26,1.04,5.28,2.47,3.37,2.39,7.98,5.66,17.16,5.66,8.53,0,13.85-2.84,18.12-5.11,1.29-.69,2.51-1.31,3.72-1.83.71-1.16,1.41-2.32,2.09-3.49-2.47.56-4.71,1.75-7.05,2.99Z"/>
    <path class="cls-5" d="m212.74,182.97c-3.71,0-6.75,1.62-9.96,3.34-4.22,2.25-9.01,4.8-16.88,4.8-8.34,0-12.38-2.87-15.63-5.18-2.24-1.59-4.17-2.96-6.81-2.96-2.97,0-5.34,1.27-8.09,2.73-4.52,2.41-10.14,5.41-22.06,5.41s-17.54-3-22.06-5.41c-2.74-1.46-5.12-2.73-8.09-2.73-2.64,0-4.57,1.37-6.81,2.96-3.25,2.31-7.29,5.18-15.63,5.18-7.87,0-12.65-2.55-16.88-4.8-3.22-1.71-6.26-3.34-9.96-3.34-.07,0-.13,0-.2,0,.5.93,1,1.86,1.51,2.78,2.51.33,4.82,1.5,7.42,2.88,4.27,2.28,9.59,5.11,18.12,5.11,9.18,0,13.79-3.27,17.16-5.66,2.02-1.44,3.49-2.48,5.28-2.48,2.31,0,4.21,1.01,6.84,2.42,4.53,2.41,10.73,5.72,23.3,5.72s18.77-3.31,23.3-5.72c2.63-1.41,4.53-2.42,6.84-2.42,1.79,0,3.26,1.04,5.28,2.48,3.37,2.39,7.98,5.66,17.16,5.66,8.53,0,13.85-2.84,18.12-5.12,2.6-1.38,4.9-2.55,7.41-2.88.51-.92,1.01-1.85,1.51-2.78-.07,0-.13,0-.2,0Z"/>
    <g>
      <path class="cls-1" d="m111.54,208.38c3,.26,4.58,1.58,4.79,2.99.84,5.72-9.05,8.11-13.19,8.72-1.12.16-4.62.68-4.87-.98-.09-.6.69-2.27,1.09-2.78.3-.34,1.92-1.13,2.35-1.2.14-.02.23,0,.26.17.04.29-.22.47-.41.62-.16.14-.28.3-.43.5v.06c10.32-1.14,12.7-4.51,12.63-4.97-.22-1.47-8.34-1.44-9.76-1.47-1.47-.02-3.03-.26-3.29-1.98-.14-.95.01-3.11.36-3.96.67-1.59,5.47-5.09,11.77-6.02,1.21-.18,2.43-.21,3.68-.13.68.05.8.26.89.84.31,2.13-.33,2.72-1.93,3.63-1.17.64-1.38.82-2.38,1.79-.18.14-.45.36-.68.39-.29.04-.48-.08-.52-.36,0-.06.41-1.03,1.8-2.32l-.07-.05c-7.37,1.35-10.17,4.49-10.1,5.16.06.4-.28.66,8.01,1.35Z"/>
      <path class="cls-1" d="m123.13,214.72c-.48.51-2.1,2.28-2.76,2.37-.8.12-2.75-1.53-3.03-3.02-.64-3.58,6.28-8.35,9.6-8.93,1.32-.22,2.02.76,2.07,1.1.05.35-.65.74-.9.87.58.15.91.42,1.01,1.05.14.92-2.07,3.3-1.87,4.65.07.49.53.63.99.56,1.21-.18,2.63-1.88,3.74-2.9l.39,1.03c-1.03,1.59-4.43,5.23-5.83,5.44-.95.14-1.48-.49-1.6-1.32-.14-.92.33-2.54.59-3.38l-.07-.05-2.33,2.52Zm-3.59-.23c.05.14.24.64.66.49.56-.2,1.46-.25,6.3-6.83l-.07-.05c-6.53,3.1-7.1,4.98-6.9,6.39Z"/>
      <path class="cls-1" d="m145.31,207.64l.41,1.23c-1.32,1.58-3.76,5.54-5.86,5.85-1.09.16-1.74-.68-1.89-1.66-.26-1.72,1.02-3.85,1.74-5.3l-.06-.05c-1.48,1.48-2.73,3.19-3.78,5.04-.35.61-1.21,2.17-1.98,2.29-1.26.18-1.85-1.58-2.02-2.55-.38-1.97,1-5.14,2.46-6.79.33-.37.58-.44,1.07-.51,1.73-.2,1.65.23,1.67.4.17,1.12-3.03,4.56-2.93,5.24.03.17.19.29.36.27.2-.03.42-.33.51-.49,1.87-3.27,6.63-7.58,7.47-7.7.12-.02.31.1.54.48.23.41.48.9.66,1.49.16,1.12-3.05,3.83-2.76,5.81.04.26.31.48.59.44.69-.1,1.8-1.29,2.26-1.8l1.51-1.69Z"/>
      <path class="cls-1" d="m155.2,206.94l.45,1.05c-1.5,2.01-4.24,5.08-6.56,5.31-1.94.2-4.23-.58-5.05-2.6-.15.2-.32.43-.58.47-.29.04-.53-.21-.57-.47-.05-.37.35-.84.54-1.11l5.39-6.64c-.08-.96.33-1.95,1.36-2.11.86-.13,1.07.11,1.28.9.28,1.07.85,1.99,1.04,3.25.35,2.36-1.29,4.39-2.96,5.78,1.88.04,2.88-.98,4.13-2.25l1.53-1.58Zm-9.68,2.04c1.07-.1,1.84.7,2.49,1.37,1.57-1.32,1.96-1.87,1.8-3.55-.17-.59-.4-1.35-.72-2.3l-3.57,4.49Z"/>
      <path class="cls-1" d="m166.27,205.99c-1.45,2.3-4.21,5.46-7.06,5.88-2.1.31-3.35-1.42-3.69-3.3-.67-3.75,2.93-8.21,6.67-8.73.92-.13,2.1-.07,2.27,1.08.21,1.41-.89,3.74-6.14,6.36l.04.64c.07,1.11,1.08,1.34,2,1.2,2.04-.3,4.15-2.75,5.49-4.18l.42,1.05Zm-4.24-4.1c-.03-.2-.2-.35-.39-.26-1.38.58-2.84,2.21-3.34,4.22,2.4-1.24,3.83-3.47,3.73-3.96Z"/>
    </g>
    <g>
      <path class="cls-2" d="m111.54,207.39c3,.26,4.58,1.58,4.79,2.99.84,5.72-9.05,8.11-13.19,8.72-1.12.17-4.62.68-4.87-.98-.09-.6.69-2.27,1.09-2.77.3-.34,1.92-1.13,2.35-1.2.14-.02.23,0,.26.17.04.29-.22.47-.41.62-.16.14-.28.3-.43.5v.06c10.32-1.14,12.7-4.51,12.63-4.97-.22-1.47-8.34-1.44-9.76-1.47-1.47-.02-3.03-.26-3.29-1.98-.14-.95.01-3.12.36-3.96.67-1.6,5.47-5.09,11.77-6.02,1.21-.18,2.43-.21,3.68-.13.68.05.8.26.89.84.31,2.13-.33,2.72-1.93,3.63-1.17.64-1.38.82-2.38,1.79-.18.15-.45.36-.68.4-.29.04-.48-.08-.52-.36,0-.06.41-1.03,1.8-2.32l-.07-.05c-7.37,1.35-10.17,4.49-10.1,5.16.06.4-.28.66,8.01,1.35Z"/>
      <path class="cls-2" d="m123.13,213.73c-.48.51-2.1,2.28-2.76,2.37-.8.12-2.75-1.53-3.03-3.02-.64-3.58,6.28-8.35,9.6-8.93,1.32-.22,2.02.76,2.07,1.1.05.34-.65.74-.9.87.58.15.91.42,1.01,1.05.14.92-2.07,3.3-1.87,4.65.07.49.53.63.99.56,1.21-.18,2.63-1.89,3.74-2.9l.39,1.03c-1.03,1.59-4.43,5.23-5.83,5.44-.95.14-1.48-.49-1.6-1.32-.14-.92.33-2.54.59-3.37l-.07-.05-2.33,2.52Zm-3.59-.24c.05.14.24.64.66.49.56-.2,1.46-.24,6.3-6.83l-.07-.05c-6.53,3.1-7.1,4.98-6.9,6.39Z"/>
      <path class="cls-2" d="m145.31,206.65l.41,1.23c-1.32,1.58-3.76,5.54-5.86,5.85-1.09.16-1.74-.68-1.89-1.66-.26-1.72,1.02-3.85,1.74-5.3l-.06-.05c-1.48,1.48-2.73,3.19-3.78,5.05-.35.61-1.21,2.17-1.98,2.29-1.26.19-1.85-1.58-2.02-2.55-.38-1.97,1-5.14,2.46-6.79.33-.37.58-.44,1.07-.51,1.73-.2,1.65.23,1.67.4.17,1.12-3.03,4.55-2.93,5.24.03.17.19.29.36.27.2-.03.42-.33.51-.49,1.87-3.27,6.63-7.58,7.47-7.7.12-.02.31.1.54.48.23.41.48.9.66,1.49.16,1.12-3.05,3.83-2.76,5.81.04.26.31.48.59.44.69-.1,1.8-1.29,2.26-1.8l1.51-1.69Z"/>
      <path class="cls-2" d="m155.2,205.95l.45,1.05c-1.5,2.01-4.24,5.08-6.56,5.31-1.94.2-4.23-.58-5.05-2.6-.15.2-.32.43-.58.47-.29.04-.53-.21-.57-.47-.05-.37.35-.84.54-1.11l5.39-6.64c-.08-.96.33-1.96,1.36-2.11.86-.13,1.07.11,1.28.9.28,1.08.85,1.99,1.04,3.25.35,2.36-1.29,4.39-2.96,5.78,1.88.04,2.88-.98,4.13-2.25l1.53-1.58Zm-9.68,2.04c1.07-.1,1.84.7,2.49,1.37,1.57-1.32,1.96-1.87,1.8-3.55-.17-.59-.4-1.35-.72-2.3l-3.57,4.49Z"/>
      <path class="cls-2" d="m166.27,205c-1.45,2.3-4.21,5.46-7.06,5.88-2.1.31-3.35-1.42-3.69-3.3-.67-3.75,2.93-8.21,6.67-8.73.92-.13,2.1-.08,2.27,1.08.21,1.41-.89,3.74-6.14,6.36l.04.64c.07,1.11,1.08,1.34,2,1.2,2.04-.3,4.15-2.75,5.49-4.18l.42,1.05Zm-4.24-4.1c-.03-.2-.2-.35-.39-.27-1.38.58-2.84,2.21-3.34,4.22,2.4-1.23,3.83-3.47,3.73-3.95Z"/>
    </g>
  </g>
</svg>