<?xml version="1.0" encoding="UTF-8"?>
<svg id="Layer_2" data-name="Layer 2" xmlns="http://www.w3.org/2000/svg" viewBox="0 0 361.83 369">
  <defs>
    <style>
      .cls-1 {
        stroke: #000;
        stroke-width: .3px;
      }

      .cls-2, .cls-3, .cls-4, .cls-5, .cls-6, .cls-7 {
        stroke-width: 0px;
      }

      .cls-3 {
        fill: #3900a5;
      }

      .cls-4 {
        fill: #fff318;
      }

      .cls-5 {
        fill: #fff;
      }

      .cls-6 {
        fill: #f71c31;
      }

      .cls-7 {
        fill: #fbf808;
      }
    </style>
  </defs>
  <g id="Layer_1-2" data-name="Layer 1">
    <path class="cls-2" d="m180.92,369c83.92,0,180.92-44.14,180.92-114.22,0-43.33-46-95.5-46-140.33,0-13.5,2.67-15.33,2.67-15.33,0,0,6.83,6,16.33,6,13.17,0,18-10,18-19.67,0-7.17-8-14.33-8-14.33l-70.33-55.67s-7.33-3.67-15.33-3.67c-5.67,0-11.83,2.33-20,2.33-18.33,0-37.83-14.11-58.25-14.11s-39.92,14.11-58.25,14.11c-8.17,0-14.33-2.33-20-2.33-8,0-15.33,3.67-15.33,3.67L17,71.11s-8,7.17-8,14.33c0,9.67,4.83,19.67,18,19.67,9.5,0,16.33-6,16.33-6,0,0,2.67,1.83,2.67,15.33C46,159.28,0,211.44,0,254.78c0,70.08,97,114.22,180.92,114.22Z"/>
    <path class="cls-5" d="m41.05,78.86c-2.27,2-6.23,5.47-7.24,6.36.69,1.31,1.67,3.65,1.67,6.39,0,.99-.08,1.89-.2,2.7,1.55-.86,2.49-1.63,2.51-1.65l4.96-4.17,2.98-2.4c-1.48-2.91-3.1-5.29-4.68-7.23Z"/>
    <path class="cls-5" d="m32.65,91.61c0-3.18-1.8-5.86-1.81-5.89-.4-.59-.3-1.39.23-1.86l8.11-7.13c-3.54-3.69-6.52-5.14-6.83-5.29l-1.3-.61c-3.09,2.45-8.38,6.63-8.47,6.7-2.42,2.26-5.08,6.06-5.08,7.9,0,7.41,3.19,11.16,9.5,11.16,1.84,0,3.56-.37,5.06-.87.31-1.03.58-2.4.58-4.12Z"/>
    <path class="cls-5" d="m320.78,78.86c2.27,2,6.23,5.47,7.24,6.36-.68,1.31-1.67,3.65-1.67,6.39,0,.99.08,1.89.2,2.7-1.55-.86-2.49-1.63-2.51-1.65l-4.96-4.17-2.98-2.4c1.48-2.91,3.09-5.29,4.68-7.23Z"/>
    <path class="cls-5" d="m329.19,91.61c0-3.18,1.8-5.86,1.82-5.89.4-.59.3-1.39-.24-1.86l-8.11-7.13c3.54-3.69,6.52-5.14,6.83-5.29l1.3-.61c3.09,2.45,8.38,6.63,8.47,6.7,2.42,2.26,5.08,6.06,5.08,7.9,0,7.41-3.2,11.16-9.5,11.16-1.84,0-3.56-.37-5.06-.87-.31-1.03-.58-2.4-.58-4.12Z"/>
    <path class="cls-3" d="m124.9,105.65c.55-.02,1.08-.04,1.58-.04.17,0,.33,0,.5-.01v-2.57h-2.08v2.62Z"/>
    <path class="cls-3" d="m103.65,130.44c1.87,0,4.5-.98,4.5-3.17,0-.55,0-1.83-3.17-1.83-1.89,0-3.98.97-5.99,2.32.68,1.76,2.22,2.68,4.65,2.68Z"/>
    <path class="cls-3" d="m328.3,68.87c-19.21-15.2-57.06-45.16-58.26-46.11-1.65-.71-6.21-2.48-10.88-2.48-1.82,0-4.07.4-6.67.87-3.62.65-8.12,1.46-13.33,1.46-10.42,0-20.61-3.7-30.46-7.28-9.67-3.51-18.8-6.83-27.79-6.83s-18.12,3.32-27.79,6.83c-9.86,3.58-20.05,7.28-30.46,7.28-5.21,0-9.71-.81-13.33-1.46-2.6-.47-4.85-.87-6.67-.87-4.67,0-9.23,1.77-10.87,2.48-1.19.94-39.05,30.9-58.26,46.11,0,0,20.97,9.49,20.97,45.57,0,14.92-4.54,30.26-10.76,45.57h274.35c-6.22-15.31-10.76-30.65-10.76-45.57,0-36.08,20.97-45.57,20.97-45.57ZM163.08,23.03h9v3h3.08v-3h11.5v3h3.08v-3h9v9.25h-4.08v5.83l2.55,3.04v12.79h-13.34v-4.21c0-1.63-1.32-2.96-2.96-2.96s-2.96,1.32-2.96,2.96v4.21h-13.34v-12.79l2.55-3.04v-5.83h-4.08v-9.25Zm107.9,89.75h-2.86c-.28,8-3.97,18.5-11.81,18.5-4.71,0-8-3.84-8-9.33,0-5.18,5.23-11.62,10.84-14.56-.21-.26-.39-.53-.63-.79-1.59-1.71-3.5-2.82-4.87-2.82-.17,0-.39,0-.65.01l-.02.11s-2.12,4.17-2.12,9.92c0,1.63-1.83,3.17-1.83,3.17h-8.08c-1.34-2.94-3.84-7-3.84-7v-5.21c-7.7.5-15.96,1-20.45,1-9.71,0-17.18-.67-22.74-1.41l24.17,37.71-12.5,8.01-24.67-38.49-24.67,38.49-12.5-8.01,26.66-41.6c-3.86,1.12-7.74,2.66-11.75,4.27-9.15,3.68-19.52,7.85-32.19,7.85-7.34,0-17.13,2.23-22.95,5.94.48-.06.97-.1,1.45-.1,6.18,0,10.17,3.47,10.17,8.83,0,6.36-5.85,10.17-11.5,10.17-4.49,0-8.06-1.88-10.12-5.03-1.28,1.31-2.33,2.53-2.92,3.31l-5.58-4.23c.5-.66,3.02-3.89,6.63-6.97.8-12.42,18.87-17.63,30.5-18.7v-.72h.92v-2.25h-1s-1.58.75-3,.75c-2.5,0-11.25-3.83-11.25-9.92,0-2.25,1.25-3.42,1.25-4.25s-.92-1.5-.92-1.5l-5.08-1.58s5.83-7.33,9.5-7.33c5.25,0,8.58,9.17,8.58,9.17,0,0,11.58,2.58,18.25,2.58,5.25,0,12.83-3.33,12.83-3.33,0,0,.33,1.33.33,2.5,0,4.42-14.75,13.75-23.67,13.75v1.85c10.23-.48,18.83-3.93,27.16-7.29,4.48-1.8,8.83-3.55,13.25-4.77l-24.14-37.67,12.49-8.01,23.26,36.29,23.26-36.29,12.49,8.01-26.25,40.96c5.63.93,13.95,2,26.23,2,4.19,0,12.02-.47,19.46-.95v-6.11c0-1.05.85-1.9,1.9-1.9.38,0,.73.11,1.02.3v-4.05c0-1.17.95-2.12,2.12-2.12.31,0,.61.07.87.19v-.82c0-1.24,1.01-2.25,2.25-2.25s2.25,1.01,2.25,2.25v4.35c.35-.42.87-.69,1.46-.69,1.06,0,1.92.86,1.92,1.92v6.24l.5-1.12s2.42-1.79,3.42-1.17.79,1.62.79,1.62l-.4,2.33c3.22.19,6.63,1.98,9.45,5.02,1.14,1.23,2.03,2.57,2.76,3.94h4.57v7Z"/>
    <path class="cls-3" d="m255.31,121.94c0,.55.07,2.33,1,2.33,1.72,0,4-4.57,4.64-9.75-2.81,2.05-5.64,5.42-5.64,7.42Z"/>
    <path class="cls-5" d="m192.4,38.93v-7.07h-22.96v7.07s-1.88,2.25-2.55,3.04v9.7h8.8v-1.94c0-2.88,2.34-5.23,5.23-5.23s5.23,2.34,5.23,5.23v1.94h8.8v-9.7c-.66-.79-2.55-3.04-2.55-3.04Z"/>
    <path class="cls-5" d="m192.4,30.01h4.08v-4.71h-4.46v3h-7.62v-3h-6.96v3h-7.62v-3h-4.46v4.71h27.05Z"/>
    <path class="cls-7" d="m180.92,91.78c1.99,0,7.57.7,8.79.85,11.54-18.01,21.83-34.05,23.05-35.96-2.39-1.53-5.34-3.42-7.72-4.95-1.26,1.96-12.15,18.95-24.11,37.62-11.97-18.67-22.86-35.66-24.11-37.62-2.39,1.53-5.33,3.42-7.72,4.95,1.22,1.91,11.56,18.03,23.13,36.09,2.83-.62,5.71-.99,8.7-.99Z"/>
    <path class="cls-7" d="m185.54,103.03c-1.75-.32-3.27-.59-3.89-.59-.92.01-5.59.76-9.39,1.44l-.15-.81c-12.1,18.88-23.18,36.17-24.45,38.15,2.39,1.53,5.34,3.42,7.72,4.95,1.31-2.04,13.01-20.31,25.53-39.83,12.51,19.52,24.22,37.79,25.53,39.83,2.39-1.53,5.33-3.42,7.72-4.95-1.25-1.95-12.06-18.81-23.97-37.4-1.83-.29-3.38-.57-4.66-.8Z"/>
    <g>
      <path class="cls-5" d="m185.31,94.11l-.5,2.99c.82.09,1.64.18,2.34.27.16-1.22.23-1.78.39-3.01-.75-.09-1.5-.17-2.23-.25Z"/>
      <path class="cls-5" d="m182.45,93.84l-.99,2.97c.62.03,1.45.1,2.35.19l.5-2.99c-.68-.07-1.3-.12-1.86-.17Z"/>
      <path class="cls-5" d="m173.87,94.48l-.2,3.12c.79-.16,1.58-.31,2.37-.43l1.38-3.23c-1.2.12-2.38.31-3.55.53Z"/>
      <path class="cls-5" d="m170.19,95.33l-.12,3.19c.86-.25,1.73-.48,2.59-.68l.2-3.16c-.89.19-1.78.41-2.66.65Z"/>
      <path class="cls-5" d="m161.92,101.34c1.31-.51,2.61-1,3.91-1.46v-3.21c-1.28.44-2.57.91-3.87,1.41l-.04,3.26Z"/>
      <path class="cls-5" d="m166.84,96.34v3.19c.73-.25,1.47-.5,2.21-.73l.13-3.2c-.78.22-1.56.48-2.34.73Z"/>
      <path class="cls-5" d="m150.77,102.48c-1.3.49-2.61.97-3.95,1.42l.1,3.16c1.35-.44,2.68-.91,3.98-1.39l-.13-3.19Z"/>
      <path class="cls-5" d="m145.83,104.23c-1.07.35-2.16.69-3.26,1l-1.18,3.44c1.55-.39,3.06-.83,4.54-1.3l-.1-3.14Z"/>
      <path class="cls-5" d="m127.62,110.6c1.17-.02,2.32-.07,3.44-.17l1.28-3.17c-1.17.13-2.35.22-3.57.28l-1.15,3.06Z"/>
      <path class="cls-5" d="m137.65,106.43c-1.37.28-2.76.52-4.19.7l-1.29,3.19c1.21-.12,2.4-.28,3.57-.47l1.9-3.42Z"/>
      <path class="cls-5" d="m141.4,105.55c-.81.22-1.63.42-2.45.61l-1.93,3.47c1.09-.2,2.16-.43,3.22-.68l1.17-3.4Z"/>
      <path class="cls-5" d="m157.42,99.86l-.18,3.33c.23-.09.46-.18.68-.27,1-.4,2-.8,2.99-1.19l.04-3.27c-1.17.45-2.35.92-3.54,1.4Z"/>
      <path class="cls-5" d="m108.47,110.75l-.57,3.43c1.15-.45,2.33-.86,3.54-1.22l1.92-3.64c-1.64.4-3.28.88-4.88,1.44Z"/>
      <path class="cls-5" d="m102.53,116.84l-.15-3.41c-.97.54-1.89,1.11-2.75,1.73l.63,3.14,2.2-1.42s.05-.03.07-.04Z"/>
      <path class="cls-5" d="m114.64,109.01l-1.87,3.57c1.39-.38,2.8-.71,4.19-.97l1.44-3.31c-1.23.2-2.49.44-3.76.72Z"/>
      <path class="cls-5" d="m91.2,131.98c.25-.27.51-.55.78-.82v-4.28c-.87.79-1.65,1.57-2.34,2.29l1.56,2.81Z"/>
      <path class="cls-5" d="m88.92,129.94c-.4.44-.76.85-1.07,1.21,1.01.76,1.47,1.12,2.43,1.85.07-.08.14-.15.21-.23l-1.57-2.83Z"/>
      <path class="cls-5" d="m107.55,131.43c-.77.44-1.65.73-2.56.88l-.49,3.11c1.22-.1,2.43-.4,3.54-.89l-.49-3.11Z"/>
      <path class="cls-5" d="m112.93,129.15c.15-.59.23-1.21.23-1.87,0-.98-.17-1.86-.49-2.66l-3.06.7c.42.66.53,1.39.53,1.96,0,.29-.03.55-.08.82l2.88,1.06Z"/>
      <path class="cls-5" d="m106.83,123.63c.87.17,1.52.47,1.99.84l3.38-.77c-.78-1.25-2.02-2.19-3.62-2.73l-1.75,2.66Z"/>
      <path class="cls-5" d="m97.47,126.39l.42-.28c1.61-1.08,3.09-1.81,4.47-2.23l.5-3.29-2.39.18c-1.1.74-2.27,1.58-2.41,1.74-.45.87-.56,2.7-.58,3.88Z"/>
      <path class="cls-5" d="m103.48,135.45l.48-3.03c-.11,0-.21.01-.32.01-1.46,0-2.61-.29-3.51-.72l-1.7,2.54c1.45.76,3.15,1.18,5.05,1.2Z"/>
      <path class="cls-5" d="m94.87,120.39c-.69,1.31-1.14,2.73-1.24,4.26v.08s2.84,1.84,2.84,1.84c0-1,.08-2.92.55-4.17l-2.15-2.01Z"/>
      <path class="cls-5" d="m98.75,115.84c-1.36,1.1-2.5,2.32-3.37,3.67l2.23,2.08c.24-.2.54-.43.88-.67l.39-.97.48-1.07-.61-3.04Z"/>
      <path class="cls-5" d="m94.17,129.78l3.08-1.04c-.04-.09-.08-.18-.11-.27l-.15-.38-3.69-2.38-.32.28v4.14l.85-.87.34.52Z"/>
      <path class="cls-5" d="m103.41,123.62c.54-.1,1.06-.16,1.57-.16.26,0,.51,0,.75.03l1.84-2.79c-.79-.17-1.66-.26-2.59-.26l-1.1.08-.47,3.1Z"/>
      <path class="cls-5" d="m97.57,133.75l1.7-2.54c-.68-.47-1.17-1.03-1.53-1.57l-3,1.01.45.68c.64.97,1.44,1.78,2.39,2.42Z"/>
      <path class="cls-5" d="m109.77,129.06c-.29.68-.74,1.26-1.31,1.74l.51,3.27c1.61-.91,2.93-2.26,3.63-3.97l-2.84-1.04Z"/>
      <path class="cls-5" d="m107.39,111.14c-1.4.53-2.75,1.11-4.03,1.77l.15,3.36c1.04-.59,2.14-1.14,3.3-1.63l.58-3.49Z"/>
      <path class="cls-5" d="m156.4,100.26c-1.53.62-3.08,1.24-4.64,1.84l.13,3.19c1.48-.56,2.92-1.13,4.33-1.69l.18-3.34Z"/>
      <path class="cls-5" d="m118.14,111.39c1.26-.21,2.49-.38,3.67-.5l1.68-3.18c-1.25.08-2.57.22-3.93.41l-1.42,3.27Z"/>
      <path class="cls-5" d="m123,110.78c1.23-.1,2.4-.15,3.48-.15.02,0,.04,0,.06,0l1.15-3.05c-.4,0-.8.02-1.21.02-.58,0-1.19.02-1.82.04l-1.66,3.14Z"/>
      <path class="cls-5" d="m180.92,93.76c-.79,0-1.58.04-2.37.09l-1.36,3.17c1.07-.12,2.14-.2,3.21-.22l1.01-3.03c-.18,0-.36-.01-.5-.01Z"/>
    </g>
    <g>
      <path class="cls-5" d="m196.95,99.7c-1.26-.15-2.44-.3-3.54-.46l-.99,2.92c1.02.15,2.12.3,3.29.44l1.24-2.9Z"/>
      <path class="cls-5" d="m187.93,101.44c1.03.18,2.2.37,3.49.57l.99-2.91c-1.12-.17-2.14-.33-3.09-.49l-1.38,2.84Z"/>
      <path class="cls-5" d="m202.1,100.21c-1.46-.12-2.83-.25-4.11-.39l-1.24,2.9c1.29.15,2.66.29,4.12.41l1.23-2.93Z"/>
      <path class="cls-5" d="m212.48,103.75c1.3.03,2.63.05,4.03.05l.88-3.04c-.26,0-.51,0-.75,0-1.1,0-2.16-.01-3.2-.03l-.97,3.01Z"/>
      <path class="cls-5" d="m228.37,100.29c-1.65.1-3.25.18-4.75.25l-.96,3.08c1.41-.06,2.93-.14,4.51-.23l1.2-3.1Z"/>
      <path class="cls-5" d="m233.83,99.96c-1.47.09-2.93.18-4.36.27l-1.2,3.1c1.36-.08,2.75-.16,4.16-.25l1.41-3.12Z"/>
      <path class="cls-5" d="m217.55,103.79c1.17-.02,2.53-.05,4.05-.12l.96-3.08c-1.52.07-2.91.12-4.12.14l-.89,3.05Z"/>
      <path class="cls-5" d="m178.4,97.79c-1.38.2-3.1.48-5.07.82.22,1.22.32,1.78.54,2.99.95-.16,2.03-.35,3.1-.52l1.44-3.29Z"/>
      <path class="cls-5" d="m207.26,100.54c-1.44-.07-2.81-.15-4.11-.25l-1.23,2.94c1.13.09,2.3.17,3.54.25l1.8-2.93Z"/>
      <path class="cls-5" d="m248.19,99.03c-.74.05-1.52.1-2.36.15l-1.47,3.13c1-.07,1.95-.13,2.85-.18l.98-3.1Z"/>
      <path class="cls-5" d="m253.86,98.77l-.52,3.03c.1,0,.22,0,.3,0,.58,0,1.19.12,1.81.34l1.16-2.8c-.93-.33-1.86-.53-2.76-.55Z"/>
      <path class="cls-5" d="m258.11,114.3c.58-.52,1.16-.99,1.68-1.37l2.51-1.83-1.89-2.13-.34.18c-.77.41-1.53.88-2.25,1.41l.29,3.75Z"/>
      <path class="cls-5" d="m251.8,117.14c-.78,1.38-1.3,2.75-1.46,4.01l2.99.85v-.06c0-.86.29-1.79.76-2.71l-2.29-2.09Z"/>
      <path class="cls-5" d="m254.6,118.34c.7-1.11,1.62-2.2,2.57-3.16l-.3-3.91c-1.81,1.46-3.38,3.21-4.54,5l2.27,2.07Z"/>
      <path class="cls-5" d="m266.98,107.76v3.03h2.01v-3.03h-2.01Z"/>
      <path class="cls-5" d="m265.98,107.76h-.76l-.56-1.05c-.09-.16-.18-.31-.27-.47l-2.88.97.63.82-.83.45.78.88,3.88,2.23v-3.82Z"/>
      <path class="cls-5" d="m263.37,111.23l-.37,2.96,2.78,2.08c.19-1.21.31-2.38.35-3.45l-2.76-1.58Z"/>
      <path class="cls-5" d="m262.6,125.31c.5-.77.94-1.63,1.33-2.53l-2.36-2.4c-.35.96-.75,1.87-1.21,2.69l2.24,2.24Z"/>
      <path class="cls-5" d="m262.84,115.33c-.18,1.24-.49,2.62-.92,3.99l2.42,2.46c.54-1.42.94-2.93,1.23-4.41l-2.73-2.04Z"/>
      <path class="cls-5" d="m259.81,123.94c-.8,1.15-1.73,1.98-2.81,2.24l.04,3.07c2.02-.23,3.65-1.42,4.96-3.11l-2.19-2.19Z"/>
      <path class="cls-5" d="m256.01,126.24c-.37-.04-.9-.19-1.39-.6l-2.23,2.1c.96.94,2.21,1.48,3.66,1.55l-.04-3.04Z"/>
      <path class="cls-5" d="m253.98,124.86c-.17-.29-.33-.62-.44-1.04l-.08-.74-3.15-.9c.04,1.93.55,3.57,1.43,4.79l2.25-2.11Z"/>
      <path class="cls-5" d="m257.54,99.71l-1.16,2.8c.81.39,1.63.94,2.42,1.62l1.83-2.42c-1-.84-2.04-1.51-3.09-2Z"/>
      <path class="cls-5" d="m262.2,103.18c-.26-.29-.54-.55-.81-.81l-1.84,2.44c.14.14.29.28.43.43l.58.71.32.42,2.99-1.01c-.52-.8-1.06-1.53-1.67-2.18Z"/>
      <path class="cls-5" d="m244.69,99.25c-1,.07-2.05.14-3.15.21-.35.02-.71.05-1.07.07l-1.57,3.14c.96-.06,1.91-.13,2.83-.19.5-.03,1-.07,1.49-.1l1.47-3.13Z"/>
      <path class="cls-5" d="m239.32,99.61c-1.43.09-2.89.19-4.36.29l-1.41,3.13c1.4-.09,2.81-.18,4.2-.27l1.57-3.14Z"/>
      <path class="cls-5" d="m178.14,100.89c1.56-.24,2.93-.42,3.48-.43.24,0,.54.02.88.06l1.41-2.86c-.92-.14-1.66-.23-2.26-.23-.38,0-1.1.07-2.08.2l-1.43,3.27Z"/>
      <path class="cls-5" d="m183.54,100.67c.64.1,1.41.24,2.35.41.32.06.66.12,1.01.18l1.38-2.83c-.66-.11-1.28-.23-1.85-.33-.54-.1-1.04-.19-1.5-.27l-1.39,2.84Z"/>
      <path class="cls-5" d="m212.41,100.71c-1.39-.03-2.73-.07-4.01-.12l-1.81,2.94c1.54.08,3.15.15,4.85.19l.97-3.01Z"/>
    </g>
    <path class="cls-5" d="m241.4,97.48c2.86-.19,5.42-.36,7.5-.49v-8.09c0-.51-.41-.92-.92-.92s-.92.42-.92.92v6.08h-1.53v-11.67c0-.69-.56-1.26-1.26-1.26s-1.26.56-1.26,1.26v11.67h-.73v-8.92c0-.62-.51-1.13-1.13-1.13s-1.13.51-1.13,1.13v9.19l-1.11.26v-3.81c0-.5-.41-.9-.9-.9s-.9.41-.9.9v6.05c1.47-.1,2.91-.19,4.3-.28Z"/>
    <path class="cls-5" d="m251.19,94.69c-.24.32-2.01,4.49-2.01,4.49l-1.55,4.92-9.89.16s.06,4.5.36,5.44c.3.94,2.19,3.8,3.47,6.29h7.06c.47-.47,1.24-1.38,1.24-2.17,0-5.49,1.82-9.52,2.16-10.22.04-.26,1.6-9.28,1.6-9.28,0-.02,0-.04,0-.07,0-.14-.05-.36-.34-.54-.65-.12-1.86.67-2.1.99Z"/>
    <path class="cls-5" d="m151.11,89.43c-2.6,1.01-7.71,2.77-11.72,2.77s-9.16-.81-13.13-1.53c-1.43-.26-4.31.12-4.71.65-1.14,1.49-2.41,3.44-2.41,4.62s1.81,3.63,3.02,5.33l6.73,1.02c9.01,0,22.25-9.38,22.25-12.33,0-.17-.02-.34-.03-.52Z"/>
    <path class="cls-5" d="m117.75,95.92c0-1.94,2.13-4.8,3.35-6.29-.13-.03-.23-.05-.26-.06l-.76-.17-.27-.73c-.84-2.29-3.77-8.23-7.25-8.23-1.69,0-4.74,2.68-7.02,5.2,1.46.45,3.25,1.01,3.25,1.01l.19.14c.25.18,1.5,1.17,1.5,2.65,0,.65-.27,1.19-.55,1.76-.33.67-.7,1.43-.7,2.49,0,5.11,7.93,8.5,9.83,8.5.48,0,.75-1.38.34-2.06-.84-1.41-1.65-3.07-1.65-4.2Zm-3.77-12.02h-3s0-1.87,1.58-1.87,1.42,1.87,1.42,1.87Z"/>
    <path class="cls-5" d="m336.23,199.51c-1.56-3.32-3.16-6.67-4.78-10.05-3.94-8.23-7.91-16.56-11.48-24.91H41.85c-3.56,8.35-7.54,16.68-11.48,24.91-1.62,3.38-3.22,6.73-4.78,10.05h310.63Z"/>
    <g>
      <path class="cls-1" d="m64.98,172.21h2.66v11.59c0,2.02-.23,3.62-.68,4.8-.46,1.19-1.28,2.15-2.47,2.89-1.19.74-2.75,1.12-4.69,1.12s-3.42-.32-4.61-.97c-1.2-.65-2.05-1.58-2.56-2.81-.51-1.23-.77-2.9-.77-5.03v-11.59h2.66v11.57c0,1.74.16,3.03.49,3.85.32.83.88,1.46,1.67,1.91.79.45,1.75.67,2.89.67,1.95,0,3.34-.44,4.17-1.33.83-.88,1.25-2.58,1.25-5.1v-11.57Z"/>
      <path class="cls-1" d="m72.42,192.28v-2.81h2.81v2.81h-2.81Z"/>
      <path class="cls-1" d="m79.92,192.28v-20.06h14.47v2.37h-11.81v6.12h11.06v2.37h-11.06v6.81h12.28v2.37h-14.94Z"/>
      <path class="cls-1" d="m98.87,192.28v-2.81h2.81v2.81h-2.81Z"/>
      <path class="cls-1" d="m113.18,185.84l2.5-.22c.12,1,.39,1.83.82,2.47.43.64,1.1,1.16,2.01,1.56s1.93.59,3.06.59c1.01,0,1.9-.15,2.67-.45.77-.3,1.34-.71,1.72-1.24.38-.52.56-1.1.56-1.71s-.18-1.18-.53-1.64c-.36-.47-.95-.86-1.79-1.18-.54-.21-1.72-.54-3.56-.98-1.84-.44-3.13-.86-3.86-1.25-.96-.5-1.67-1.13-2.14-1.87-.47-.75-.7-1.58-.7-2.5,0-1.01.29-1.96.86-2.85.57-.88,1.41-1.55,2.51-2.01,1.1-.46,2.32-.69,3.67-.69,1.48,0,2.79.24,3.92.72,1.13.48,2,1.18,2.61,2.12.61.93.94,1.99.98,3.16l-2.53.19c-.14-1.26-.6-2.21-1.38-2.85-.79-.64-1.95-.96-3.49-.96s-2.77.29-3.5.88c-.73.59-1.1,1.29-1.1,2.12,0,.72.26,1.31.78,1.78.51.46,1.84.94,3.99,1.43s3.63.91,4.42,1.28c1.16.54,2.02,1.22,2.57,2.04s.83,1.77.83,2.85-.3,2.07-.91,3.01c-.61.94-1.48,1.68-2.62,2.2-1.14.52-2.42.79-3.85.79-1.81,0-3.32-.26-4.55-.79-1.22-.53-2.18-1.32-2.88-2.39-.7-1.06-1.06-2.26-1.1-3.6Z"/>
      <path class="cls-1" d="m130.55,192.28l7.65-20.06h2.9l8.18,20.06h-3.02l-2.32-6.06h-8.42l-2.17,6.06h-2.81Zm5.76-8.22h6.8l-2.07-5.57c-.65-1.68-1.13-3.08-1.45-4.18-.27,1.3-.64,2.58-1.1,3.85l-2.18,5.9Z"/>
      <path class="cls-1" d="m151.38,192.28v-20.06h2.71l10.6,15.78v-15.78h2.53v20.06h-2.71l-10.6-15.77v15.77h-2.53Z"/>
      <path class="cls-1" d="m176.72,192.28v-17.69h-6.59v-2.37h15.84v2.37h-6.59v17.69h-2.66Z"/>
      <path class="cls-1" d="m193.82,192.28l7.65-20.06h2.9l8.18,20.06h-3.02l-2.32-6.06h-8.42l-2.17,6.06h-2.81Zm5.76-8.22h6.8l-2.07-5.57c-.65-1.68-1.13-3.08-1.45-4.18-.27,1.3-.64,2.58-1.1,3.85l-2.18,5.9Z"/>
      <path class="cls-1" d="m214.65,192.28v-20.06h2.71l10.6,15.78v-15.78h2.53v20.06h-2.71l-10.6-15.77v15.77h-2.53Z"/>
      <path class="cls-1" d="m234.9,192.28v-20.06h6.9c1.56,0,2.75.1,3.57.29,1.15.26,2.13.74,2.94,1.44,1.06.89,1.85,2.04,2.37,3.43s.79,2.98.79,4.77c0,1.52-.18,2.87-.53,4.05-.36,1.18-.81,2.15-1.37,2.92-.56.77-1.16,1.38-1.82,1.82-.66.44-1.46.78-2.39,1.01-.93.23-2.01.34-3.22.34h-7.23Zm2.66-2.37h4.27c1.32,0,2.35-.12,3.1-.37s1.35-.59,1.79-1.04c.63-.63,1.12-1.47,1.46-2.54.35-1.06.53-2.35.53-3.86,0-2.1-.34-3.71-1.03-4.83-.69-1.12-1.52-1.88-2.5-2.26-.71-.27-1.85-.41-3.42-.41h-4.2v15.31Z"/>
      <path class="cls-1" d="m255.15,192.28v-20.06h8.89c1.79,0,3.15.18,4.08.54.93.36,1.67,1,2.23,1.91.56.91.83,1.92.83,3.03,0,1.42-.46,2.62-1.38,3.6-.92.98-2.34,1.6-4.27,1.86.7.34,1.23.67,1.6,1,.78.71,1.51,1.6,2.2,2.67l3.47,5.46h-3.31l-2.65-4.17c-.78-1.2-1.41-2.12-1.92-2.76-.5-.64-.95-1.08-1.35-1.34-.4-.26-.8-.43-1.21-.53-.3-.06-.79-.1-1.48-.1h-3.08v8.91h-2.66Zm2.66-11.22h5.7c1.21,0,2.16-.12,2.84-.38.68-.25,1.2-.65,1.55-1.2.35-.55.53-1.15.53-1.8,0-.95-.34-1.72-1.03-2.34-.69-.61-1.77-.92-3.25-.92h-6.35v6.62Z"/>
      <path class="cls-1" d="m275.44,192.28v-20.06h14.47v2.37h-11.81v6.12h11.06v2.37h-11.06v6.81h12.28v2.37h-14.94Z"/>
      <path class="cls-1" d="m307.18,172.21h2.66v11.59c0,2.02-.23,3.62-.68,4.8-.46,1.19-1.28,2.15-2.47,2.89-1.19.74-2.75,1.12-4.69,1.12s-3.42-.32-4.61-.97c-1.2-.65-2.05-1.58-2.56-2.81-.51-1.23-.77-2.9-.77-5.03v-11.59h2.66v11.57c0,1.74.16,3.03.49,3.85.32.83.88,1.46,1.67,1.91.79.45,1.75.67,2.89.67,1.95,0,3.34-.44,4.17-1.33.83-.88,1.25-2.58,1.25-5.1v-11.57Z"/>
    </g>
    <path class="cls-4" d="m61.96,204.04H23.49c-8.34,18.13-14.99,35.27-14.99,50.73,0,28.57,18.98,55.26,53.45,75.28v-126.01Z"/>
    <path class="cls-6" d="m96.12,204.04h-29.91v128.41c9.23,5.03,19.31,9.47,29.91,13.25v-141.66Z"/>
    <path class="cls-4" d="m128.46,204.04h-28.08v143.13c9.07,3.04,18.49,5.6,28.08,7.64v-150.78Z"/>
    <path class="cls-6" d="m141.04,283.11c0-15.43,8.77-28.8,21.58-35.43v-43.64h-29.91v151.64c9.89,1.94,19.93,3.32,29.91,4.09v-41.24c-12.82-6.63-21.58-20-21.58-35.43Z"/>
    <path class="cls-4" d="m180.92,243.24c4.94,0,9.67.91,14.04,2.55v-41.74h-28.08v41.74c4.37-1.64,9.1-2.55,14.04-2.55Z"/>
    <path class="cls-4" d="m180.92,322.99c-4.94,0-9.67-.91-14.04-2.55v39.62c4.7.28,9.39.44,14.04.44s9.34-.15,14.04-.43v-39.63c-4.37,1.64-9.1,2.55-14.04,2.55Z"/>
    <path class="cls-6" d="m199.21,204.04v43.64c12.82,6.63,21.58,20,21.58,35.43s-8.77,28.8-21.58,35.43v41.24c9.99-.77,20.03-2.16,29.91-4.1v-151.63h-29.91Z"/>
    <path class="cls-4" d="m261.46,204.04h-28.08v150.78c9.59-2.04,19.01-4.62,28.08-7.66v-143.12Z"/>
    <path class="cls-6" d="m295.62,204.04h-29.91v141.65c10.61-3.78,20.68-8.22,29.91-13.25v-128.4Z"/>
    <path class="cls-4" d="m338.34,204.04h-38.47v126.01c34.48-20.02,53.45-46.71,53.45-75.28,0-15.46-6.65-32.6-14.99-50.73Z"/>
    <path class="cls-5" d="m200.09,284.52c-.56-3.57-19.89-27.02-44.81-27.32-5.01,4.96-8.6,11.37-10.08,18.53,1.52-.64,3.54-1.2,5.97-1.2,8.8,0,13.63,7.26,15.4,12.14,1.18-.18,2.91-.39,4.72-.39,8.66,0,12.88,9.3,13.96,12.14.77.26,1.93.58,2.9.58,6.88,0,11.92-9.5,11.94-14.48Z"/>
    <path class="cls-5" d="m203.15,283.13c.47.08,1.31.16,2.77.16,4.45,0,8.92-5.37,10.63-7.97-3.58-16.38-18.19-28.68-35.63-28.68-8.23,0-15.84,2.75-21.95,7.36,23.35,2.24,41.54,22.48,44.18,29.12Z"/>
    <path class="cls-5" d="m163.58,314.25c-.49-.22-.87-.41-1.05-.49-.7-.35-.98-1.2-.63-1.9.27-.54.85-.83,1.42-.77-.03-.43-.06-.87-.09-1.32-.88-.36-1.67-.75-2.06-1.15-.55-.54-.55-1.42-.01-1.98.51-.53,1.33-.56,1.9-.11-.02-.44-.04-.88-.06-1.33-.65-.23-1.17-.44-1.37-.53-.72-.3-1.06-1.13-.76-1.85.3-.72,1.13-1.06,1.85-.76.06.02.13.05.19.08,0-.41-.01-.83-.02-1.24-.93-.34-1.65-.67-1.81-.74-.71-.33-1.02-1.17-.69-1.88.33-.71,1.17-1.02,1.88-.69.18.08.4.18.63.27,0-.64.02-1.28.04-1.9-.77-.24-1.35-.45-1.5-.51-.73-.27-1.11-1.08-.84-1.82.27-.74,1.08-1.11,1.82-.84.2.07.44.16.68.24.12-1.66.31-3.15.57-4.35-.62-1.97-3.85-10.73-12.5-10.73-3.41,0-5.76,1.41-6.58,1.98-.09,1.05-.15,2.12-.15,3.2,0,13.88,7.8,25.97,19.24,32.13-.03-.32-.07-.65-.1-1Z"/>
    <path class="cls-5" d="m205.92,286.69c-1.07,0-1.91-.04-2.6-.11-1.09,6.92-7.24,15.83-15.17,15.83-.54,0-1.07-.06-1.59-.14-.15,1.15-.31,2.78-.31,4.6,0,5.28,2.43,9.65,3.71,11.59,15.75-4.03,27.43-18.35,27.43-35.34,0-1.05-.05-2.08-.14-3.1-2.48,2.93-6.58,6.68-11.33,6.68Z"/>
    <path class="cls-5" d="m182.84,306.86c0-2.3.22-4.28.41-5.56,0,0,0,0,0,0v-.03s-.95-1.02-.95-1.02c-.03-.11-3.49-10.57-11.01-10.57-1.71,0-3.39.22-4.44.39-.19,1.1-.33,2.41-.42,3.86.43.08.82.13,1.11.13.78,0,1.42.63,1.42,1.42s-.63,1.42-1.42,1.42c-.37,0-.79-.04-1.23-.11-.02.69-.02,1.4-.03,2.12.14.02.27.03.38.03.78,0,1.42.63,1.42,1.42s-.63,1.42-1.42,1.42c-.11,0-.23,0-.36-.01,0,.47.02.94.03,1.41.07,0,.14.02.2.02.78,0,1.42.63,1.42,1.42s-.63,1.42-1.42,1.42c-.03,0-.06,0-.09,0,.03.64.06,1.27.09,1.89.09.03.19.06.28.09.75.22,1.18,1.01.95,1.76-.15.51-.57.87-1.06.97.04.61.09,1.19.13,1.75.59.2,1.11.33,1.44.33.78,0,1.42.63,1.42,1.42s-.63,1.42-1.42,1.42c-.35,0-.74-.06-1.16-.15.06.55.12,1.03.17,1.43,4.21,1.7,8.8,2.65,13.61,2.65,1.86,0,3.69-.14,5.47-.41-1.54-2.6-3.55-7.01-3.55-12.31Z"/>
  </g>
</svg>