<?xml version="1.0" encoding="UTF-8" standalone="no"?>
<svg
   xmlns:ns="&amp;ns_sfw;"
   xmlns:dc="http://purl.org/dc/elements/1.1/"
   xmlns:cc="http://creativecommons.org/ns#"
   xmlns:rdf="http://www.w3.org/1999/02/22-rdf-syntax-ns#"
   xmlns:svg="http://www.w3.org/2000/svg"
   xmlns="http://www.w3.org/2000/svg"
   xmlns:sodipodi="http://sodipodi.sourceforge.net/DTD/sodipodi-0.dtd"
   xmlns:inkscape="http://www.inkscape.org/namespaces/inkscape"
   inkscape:version="1.0 (4035a4f, 2020-05-01)"
   sodipodi:docname="sassuolo-calcio.svg"
   xml:space="preserve"
   style="enable-background:new 0 0 3677.2 4029.9;"
   viewBox="0 0 3677.2 4029.9"
   y="0px"
   x="0px"
   id="Livello_1"
   version="1.1"><defs
   id="defs11799" /><sodipodi:namedview
   inkscape:current-layer="Livello_1"
   inkscape:window-maximized="1"
   inkscape:window-y="25"
   inkscape:window-x="0"
   inkscape:cy="2014.95"
   inkscape:cx="1838.6"
   inkscape:zoom="0.14538442"
   showgrid="false"
   id="namedview11797"
   inkscape:window-height="793"
   inkscape:window-width="1440"
   inkscape:pageshadow="2"
   inkscape:pageopacity="0"
   guidetolerance="10"
   gridtolerance="10"
   objecttolerance="10"
   borderopacity="1"
   bordercolor="#666666"
   pagecolor="#ffffff" />
<style
   id="style11712"
   type="text/css">
	.Ombra_x0020_esterna{fill:none;}
	.Bagliore_x0020_esterno_x0020_5_x0020_pt{fill:none;}
	.Jive_GS{fill:#A7D0E4;}
	.st0{fill:#B2B2B2;}
	.st1{fill:#1E1E1C;}
	.st2{fill:#FFFFFF;}
	.st3{fill:#0FA653;}
</style>
<metadata
   id="metadata11714">
	<ns:sfw>
		<ns:slices />
		<ns:sliceSourceBounds
   y="-2555.7"
   x="-878.5"
   width="3677.2"
   height="4029.9"
   bottomLeftOrigin="true" />
	</ns:sfw>
<rdf:RDF><cc:Work
     rdf:about=""><dc:format>image/svg+xml</dc:format><dc:type
       rdf:resource="http://purl.org/dc/dcmitype/StillImage" /></cc:Work></rdf:RDF></metadata>
<g
   id="g11794">
	<path
   style="fill:#b3b3b3;fill-opacity:1"
   id="path11716"
   d="M2474,38.7L2507.2,0c54.8,78.9,119.7,207.4,202.3,255.8c75.2,44.1,223.1,88.3,538.1,89.1l49.2,0.1l193.7,258.5   c-118.4,204.1-229.2,469.5-229.2,711.7c0,64,11.2,152.1,44.3,263.6l202,56.2l-45.7,92.6l149.1,67.3l-75.6,100.7l141.7,107.3   l-143.3,108.2c54.2,143,123.8,367.1,123.8,550.5c0,640.7-520,870.2-1510.2,1037.9l70.1,243l-263.8-113.9l-184.6,201.2l-80.5-206   l-313.1,94.2l84.2-230.8C516,3520.7,19.4,3287.5,19.4,2661.6c0-183.4,69.5-407.4,123.8-550.5L0,2002.9l141.6-107.3L66.1,1795   l149-67.3l-45.5-92.6l202-56.2c33.1-111.5,44.3-199.5,44.3-263.6c0-242.3-111-507.6-229.2-711.7L380.4,345l49.1-0.1   c169.9-0.4,500.3-5,612.8-155.2C1087.8,129,1126.5,62.5,1170,0c188.8,219.6,346.5,366.8,655.2,371.3l26.1-0.8   C2129.3,367.5,2295.7,245.9,2474,38.7"
   class="st0" />
	<path
   style="fill:#1c1e1c;fill-opacity:1"
   id="path11718"
   d="M1852.4,479.4c264.8-3,480.1-114.8,646.4-308.1c72.4,104.5,106.5,281,748.5,282.5L3373,621.3   c0,0-210.2,362.1-210.2,705c0,85.6,17.2,200.4,64.9,343.6l139.6,38.8l-38.1,77.6l130,58.6l-60.6,81.1l116.1,87.9l-99.8,75.3   c54.1,128.8,144.3,387.3,144.3,583.5c0,570.9-456.9,786.8-1536.9,959.2l43.1,149.5l-137.1-59.1l-125.3,136.4l-56.1-143.6l-212.4,64   l57.4-157.4C556.9,3450.9,117.7,3232.5,117.7,2672.7c0-196.2,90.2-454.7,144.3-583.5l-99.8-75.3l116.1-87.9l-60.7-81.1l130-58.6   l-38-77.6l139.6-38.8c47.8-143.2,64.8-258,64.8-343.6c0-342.9-210.1-705-210.1-705l125.7-167.6c642-1.5,676.1-178,748.5-282.5   c166.2,193.3,381.6,305.1,646.4,308.9L1852.4,479.4"
   class="st1" />
	<polyline
   id="polyline11720"
   points="1955.2,3207.3 2073.8,3153.1 2070,2851.2 1957.5,2787.6 1700.9,2947.1 1709.3,3058.2  "
   class="st2" />
	<path
   id="path11722"
   d="M1472.5,2827.8l9.6-300.3l-63.5-35.5c-78.1,93.4-125.2,213.5-125.2,344.6l1.1,33.9l128,15"
   class="st2" />
	<polyline
   id="polyline11724"
   points="1693.6,2465.6 1561.2,2517.4 1551.9,2806.2 1657.9,2881.8 1907.5,2726.5 1897.8,2577.4  "
   class="st2" />
	<path
   id="path11726"
   d="M1476.1,3240l31.1-119.9l-101.6-157.8l-100-11.6C1330.3,3064.8,1391.4,3165.5,1476.1,3240"
   class="st2" />
	<path
   id="path11728"
   d="M2377,2836.7c0-20.1-1.1-39.6-3.2-58.8l-117.2-14.1l-108.1,81.8l3.8,306.9l88.7,41.2   C2325.7,3098.5,2377,2973.6,2377,2836.7"
   class="st2" />
	<path
   id="path11730"
   d="M2120.1,2378c-82.7-50.9-180.4-80.4-285-80.4c-14.4,0-28.9,0.5-43.1,1.7l-34.8,111.8l200,109.5h138.5"
   class="st2" />
	<path
   id="path11732"
   d="M2358.9,2697.9c-28.2-105.6-87.7-198.2-168-267.8l-20.9,122.4l88.7,133"
   class="st2" />
	<path
   id="path11734"
   d="M1914.1,3369.9l4.9-92.9l-253.5-153.7l-82.2,15.8l-38.8,152.4c84.1,53.2,183.7,84,290.5,84   C1862,3375.5,1888.4,3373.6,1914.1,3369.9"
   class="st2" />
	<path
   id="path11736"
   d="M1010.7,946.3c18.2,0,33-14.6,33-32.7c0-18.1-14.8-32.9-33-32.9c-18.2,0-32.9,14.8-32.9,32.9   C977.8,931.7,992.5,946.3,1010.7,946.3"
   class="st2" />
	<path
   id="path11738"
   d="M938.7,736.5c-18.1,0-33,14.6-33,32.9c0,17,13.5,31.1,30.2,32.6c5.4-18.1,18.1-32.9,34.6-41   C966.8,746.8,954,736.5,938.7,736.5"
   class="st2" />
	<path
   id="path11740"
   d="M1571.6,959c0,18.1,14.6,32.7,32.9,32.7c18.3,0,33-14.6,33-32.7c0-18.1-14.6-32.7-33-32.7   C1586.2,926.3,1571.6,940.9,1571.6,959"
   class="st2" />
	<path
   id="path11742"
   d="M870.3,1433.3h206.6c-1.4-72.4-17.9-243.2-106.7-243.2C883.9,1190.1,871.8,1338.8,870.3,1433.3"
   class="st2" />
	<path
   id="path11744"
   d="M1588,808c-18.2,0-33,14.6-33,32.9c0,18.1,14.8,32.7,33,32.7c18.2,0,32.9-14.6,32.9-32.7   C1620.8,822.7,1606.2,808,1588,808"
   class="st2" />
	<path
   id="path11746"
   d="M877.2,823.6c0-18.1-14.8-32.9-32.9-32.9c-18.2,0-33,14.8-33,32.9c0,18.1,14.8,32.7,33,32.7   C862.4,856.3,877.2,841.7,877.2,823.6"
   class="st2" />
	<path
   id="path11748"
   d="M1076.9,1452.8H870c-0.1,13.7,0,25.7,0,35.1c0,45.1,1.7,73,3.4,89.6h203.5"
   class="st2" />
	<path
   id="path11750"
   d="M794.8,941.8c0,18.1,14.6,32.7,32.9,32.7c18.3,0,33-14.6,33-32.7c0-18.1-14.6-32.9-33-32.9   C809.5,909,794.8,923.7,794.8,941.8"
   class="st2" />
	<path
   id="path11752"
   d="M925.1,1009.9c18.2,0,33-14.6,33-32.9c0-17.9-14.8-32.7-33-32.7c-18.2,0-33,14.8-33,32.7   C892.1,995.3,906.9,1009.9,925.1,1009.9"
   class="st2" />
	<path
   id="path11754"
   d="M891.4,919.1c9.8-5.7,21.2-9,33.6-9l18.1,2.4c0.4-15,5.5-29,14.3-40.1c-11-9.2-19.1-21.8-22.3-36.2l-23.8-5.7   c-2.8,26.3-20.6,48-44.6,56.3C877.8,894.8,886.7,906.1,891.4,919.1"
   class="st2" />
	<path
   id="path11756"
   d="M1000.7,853.5c18.2,0,33-14.6,33-32.7s-14.8-32.7-33-32.7c-18.2,0-33,14.6-33,32.7S982.5,853.5,1000.7,853.5"
   class="st2" />
	<path
   id="path11758"
   d="M1520.9,847.7l-23.6,5.5c-3.3,14.5-11.3,27-22.3,36.3c8.7,11.1,14,24.9,14.3,40.1l17.9-2.4   c12.4,0,23.9,3.3,33.8,9c4.9-13.1,13.6-24.3,24.8-32.2C1541.5,895.8,1523.6,874,1520.9,847.7"
   class="st2" />
	<path
   id="path11760"
   d="M1359.6,1577.5h222.9l0.8-88c0-9.6,0.1-22.2,0-36.7h-220.7"
   class="st2" />
	<path
   id="path11762"
   d="M1216.3,1054c-83.9,0-106,156.1-108.5,222.7l-1.3,50.4c6.7,38.9,9.2,77.2,9.8,106.2h207.3   c0.3-17.9,1.7-38.1,4.4-59.2C1323.3,1277.8,1301,1054,1216.3,1054"
   class="st2" />
	<polyline
   id="polyline11764"
   points="1116.4,1452.8 1116.4,1577.5 1320,1577.5 1323.1,1452.8  "
   class="st2" />
	<path
   id="path11766"
   d="M1202.9,430.9C1051.7,596.4,748.3,617.1,528.2,625c0,0,162.9,378.3,162.9,680c0,95.4-13.6,185.6-35.6,272.5   h178.7c-1.7-18.7-3.2-47.4-3.2-89.7c0-97.9-5.1-336.7,139.2-336.7l15.7,1.1l-11.5-24.7L874,1110.2l2.6-37.1l94.3-6.9l-7.7-33.8   c-11,7.5-24,11.7-38.3,11.7c-29.2,0-54.1-18.5-63.5-44.3c-9.9,5.7-21.4,9-33.8,9c-37.2,0-67.4-30-67.4-67   c0-29.4,18.9-54.2,45.3-63.5c-17.4-12.1-28.6-32.2-28.6-54.9c0-37.1,30.2-67,67.4-67l27.2,5.7c3.6-33.8,32.2-60,67-60   c32.1,0,58.8,22,65.8,51.7c35.5,2,63.7,31.1,63.7,67c0,15.6-5.3,29.8-14.3,41.2c14.8,12.4,24.3,30.9,24.3,51.6   c0,31.4-21.8,57.8-51.2,65l45.4,57.4l27.7-66.4l36.4,5.3l-10.6,103.2c20.8-28.6,49.7-63.3,90.2-63.3c39.5,0,68.3,38.9,89.7,76.7   l-10.2-99.4l36.4-5.1l27.8,66.4l45.3-57.5c-29.3-7.3-51.1-33.6-51.1-65c0-20.7,9.4-39.2,24.3-51.5c-9-11.3-14.4-25.7-14.4-41.3   c0-35.8,28.2-65,63.9-66.9c6.9-29.7,33.6-51.9,65.7-51.9c34.8,0,63.5,26.4,67,60.2l27.3-5.8c37.2,0,67.4,30.1,67.4,67.2   c0,22.7-11.3,42.7-28.6,54.9c26.3,9.1,45.1,34,45.1,63.3c0,37.1-30.1,67.2-67.4,67.2c-12.3,0-23.9-3.3-33.8-9   c-9.4,25.7-34.3,44.3-63.6,44.3c-14.1,0-27.3-4.4-38.1-11.7l-7.7,33.8l94.3,6.9l2.6,37.1l-100.4,17.2l-10.6,22.8   c12-4,25.1-6.1,39.2-6.1c139.7,0,135.9,233,135.9,328.1l-0.4,88H1731V644.7C1533.5,627.3,1356.3,566.8,1202.9,430.9"
   class="st2" />
	<path
   id="path11768"
   d="M1582.8,1433.3c-1.8-91.7-14.6-232.7-96.2-232.7c-98.4,0-122.2,156-123.8,232.7"
   class="st2" />
	<path
   id="path11770"
   d="M1474.4,994.5c0,18.1,14.8,32.7,32.9,32.7c18.3,0,33-14.6,33-32.7c0-18.1-14.6-32.7-33-32.7   C1489.1,961.7,1474.4,976.4,1474.4,994.5"
   class="st2" />
	<path
   id="path11772"
   d="M1493.5,753.5c-15.2,0-28.1,10.3-31.8,24.4c16.6,8.2,29.3,23,34.7,41c16.9-1.5,30.1-15.4,30.1-32.7   C1526.5,768.2,1511.8,753.5,1493.5,753.5"
   class="st2" />
	<path
   id="path11774"
   d="M1388.7,930.7c0,18.1,14.8,32.7,33,32.7c18.2,0,32.9-14.6,32.9-32.7c0-18.1-14.6-32.7-32.9-32.7   C1403.5,898,1388.7,912.7,1388.7,930.7"
   class="st2" />
	<path
   id="path11776"
   d="M1431.6,805.3c-18.2,0-33,14.6-33,32.7l13.3,26.4l9.6-0.7l23.6,4.2c11.3-5.3,19.4-16.6,19.4-30   C1464.6,819.9,1449.8,805.3,1431.6,805.3"
   class="st2" />
	<path
   style="fill:#00a353;fill-opacity:1"
   id="path11778"
   d="M3052,1584.4c-23.1-88.8-37.3-181.4-37.3-279.3c0-301.8,163-680,163-680c-97.9-3.6-212-9.6-321.9-29.8v989.2"
   class="st3" />
	<path
   style="fill:#00a353;fill-opacity:1"
   id="path11780"
   d="M3413.5,2665.9c0-152.7-41.3-294.1-97.4-433.2h-351.5v1007.5C3226,3131.6,3413.5,2966.8,3413.5,2665.9"
   class="st3" />
	<path
   style="fill:#00a353;fill-opacity:1"
   id="path11782"
   d="M3087.8,1701.7h-2470c-49.9,143.3-117.4,278.5-178.3,413.9H3266C3205.2,1980.2,3137.5,1845,3087.8,1701.7"
   class="st3" />
	<path
   style="fill:#00a353;fill-opacity:1"
   id="path11784"
   d="M389.2,2233.2c-55.9,138.9-97.1,280.3-97.1,432.8c0,280.5,163.1,442.7,396.9,551.4v-984.2"
   class="st3" />
	<path
   style="fill:#00a353;fill-opacity:1"
   id="path11786"
   d="M2602.5,1584.4V509.6c-37.6-21.6-71.3-47.6-99.6-78.6c-30.6,27-62.1,50.9-94.6,72.3v1081.2"
   class="st3" />
	<path
   style="fill:#00a353;fill-opacity:1"
   id="path11788"
   d="M2164.4,1584.4V612c-62.3,16.9-127.1,27.3-194.1,33v939.4"
   class="st3" />
	<path
   style="fill:#00a353;fill-opacity:1"
   id="path11790"
   d="M1182.8,2232.8V3373c131.7,30.9,266.4,58.7,395.3,90l23.2-98.8c-203.6-89.5-345.8-292-345.8-527.6   c0-318.4,259.5-576.6,579.6-576.6c320.2,0,579.8,258.2,579.8,576.6c0,252.1-162.6,466.2-389.1,544.7l30.1,99.9   c132.6-34.3,273.4-63.9,412.3-95.4V2232.8"
   class="st3" />
	<path
   id="path11792"
   d="M2809.9,1959.2c-23.1,0-42.5-50.3-42.5-92.2c0-31,12.5-40.9,42.5-40.9c30,0,42.5,9.9,42.5,40.9   C2852.4,1909,2833,1959.2,2809.9,1959.2 M2809.9,2014c71.9,0,106.1-88.3,106.1-149.9c0-50.1-24.3-92.2-106.1-92.2   c-81.9,0-106.1,42.1-106.1,92.2C2703.8,1925.7,2738,2014,2809.9,2014 M2622.8,1777h-61v231.8h126.9l14.3-52.3h-80.2V1777z    M2427.7,1959.2c-23,0-42.5-50.3-42.5-92.2c0-31,12.7-40.9,42.5-40.9c30.1,0,42.6,9.9,42.6,40.9   C2470.3,1909,2450.9,1959.2,2427.7,1959.2 M2427.7,2014c71.9,0,106.2-88.3,106.2-149.9c0-50.1-24.3-92.2-106.2-92.2   c-81.8,0-106.1,42.1-106.1,92.2C2321.6,1925.7,2355.9,2014,2427.7,2014 M2295.7,1777h-61v179.6h-23c-12,0-45,0-45-43.9   c0-48.8,30.5-105.8,43.9-135.6h-66c-21.6,42.9-40.5,88-40.5,136.6c0,53.6,24.3,95.3,92.5,95.3h99V1777z M2073,1777h-65.6   c-51.2,0-62.9,33-62.9,53.7c0,23,14.4,39.3,28.6,55.5l41.3,46.6l10,16.1l-22.4,7.7h-55.4l14.3,52.3h71.1   c50.9,0,62.7-32.9,62.7-53.6c0-23-14.3-39.5-28.8-55.4l-42.5-46.8l-10-16.1l22.4-7.7h51.5L2073,1777z M1913.2,1777h-65.6   c-51.1,0-62.8,33-62.8,53.7c0,23,14.3,39.3,28.6,55.5l41.3,46.6l10,16.1l-22.6,7.7h-55.3l14.1,52.3h71.1   c51.1,0,62.8-32.9,62.8-53.6c0-23-14.4-39.5-28.9-55.4l-42.5-46.8l-9.9-16.1l22.4-7.7h51.5L1913.2,1777z M1758,1845.9h-61v37.2   h-60.8c7.8-19.8,18.9-53.8,84.2-53.8h47.9l-14.3-52.3h-30c-43.9,0-81.8,5.4-114.4,38c-29,28.9-42,71-42,111.2   c0,40.9,13.9,81.4,36.3,115.3l49.6-32.7c-13.3-22.2-23.1-47.4-23.4-73.5h66.8v73.5h61V1845.9z M1536.8,1777h-65.6   c-51.1,0-62.7,33-62.7,53.7c0,23,14.1,39.3,28.5,55.5l41.3,46.6l10,16.1l-22.6,7.7h-55.3l14.1,52.3h71.1   c51.1,0,62.8-32.9,62.8-53.6c0-23-14.3-39.5-28.9-55.4l-42.5-46.8l-9.9-16.1l22.4-7.7h51.3L1536.8,1777z M1232.8,1956.6h51.3v52.2   h-51.3V1956.6z M1191.7,1777h-65.6c-51.1,0-62.7,33-62.7,53.7c0,23,14.1,39.3,28.5,55.5l41.3,46.6l9.9,16.1l-22.4,7.7h-55.4   l14.4,52.3h71c51.1,0,62.7-32.9,62.7-53.6c0-23-14.3-39.5-28.8-55.4l-42.5-46.8l-10-16.1l22.6-7.7h51.3L1191.7,1777z M987.6,1956.6   h51.3v52.2h-51.3V1956.6z M952.5,1777h-61.1v179.6h-22.8c-11.9,0-45,0-45-43.9c0-48.8,30.5-105.8,43.9-135.6h-65.8   c-21.8,42.9-40.5,88-40.5,136.6c0,53.6,24.1,95.3,92.4,95.3h99V1777z"
   class="st2" />
</g>
</svg>
