<?xml version="1.0" encoding="UTF-8"?>
<svg id="Layer_2" data-name="Layer 2" xmlns="http://www.w3.org/2000/svg" viewBox="0 0 356.85 461.83">
  <defs>
    <style>
      .cls-1 {
        fill: #2d3e86;
      }

      .cls-1, .cls-2, .cls-3, .cls-4 {
        stroke-width: 0px;
      }

      .cls-2 {
        fill: #b82c1f;
      }

      .cls-3 {
        fill: #e49908;
      }

      .cls-4 {
        fill: #fff;
      }
    </style>
  </defs>
  <g id="Layer_1-2" data-name="Layer 1">
    <path class="cls-3" d="m294.78,0l-24.37,25.35H86.45S62.08,0,62.08,0L0,57.85l24.7,25.65v237.93c0,67.6,64.35,140.4,153.72,140.4s153.73-72.8,153.73-140.4V83.5l24.7-25.65L294.78,0Zm-43.55,34.19h10.67l-10.67,11.1v-11.1Zm-37.18,0h32.75v15.7l-32.75,34.07v-49.77Zm-35.62,0h31.2v54.37l-31.2,32.45V34.19Zm-37.18,0h32.76v91.42l-32.76,34.07V34.19Zm-34.81,0h30.39v130.09l-30.39,31.6V34.19Zm-37.18-13.96c6.5,6.76,13.42,13.96,13.42,13.96h19.33v166.29l-32.76,34.07V20.23Zm-35.71,62.32v-43.87c11.15-10.39,23.1-21.53,28.19-26.27.92.95,1.97,2.05,3.1,3.23v223.52l-31.29,32.55V82.55Zm-4.33-7.11c-4.69-4.87-12.1-12.57-16.61-17.25,3.39-3.15,9.62-8.97,16.61-15.48v32.73Zm149.21,377.54c-80.04,0-137.34-60.93-144.19-119.82l288.35.25c-6.98,58.81-64.23,119.57-144.16,119.57Zm-78.43-128.41l223.31-231.89v231.89H99.99Zm-12.28,0h-54.17v-40.11C102.64,212.6,289.55,18.2,295.12,12.41c9.05,8.43,39.82,37.11,49.13,45.78-5.85,6.07-195.59,203.1-256.53,266.38Z"/>
    <path class="cls-1" d="m34.23,333.16c6.85,58.89,64.15,119.82,144.19,119.82s137.18-60.76,144.16-119.57l-288.35-.25Z"/>
    <g>
      <path class="cls-4" d="m69.19,346.46h10.29c2.32,0,4.09.18,5.31.53,1.64.48,3.04,1.34,4.2,2.57,1.17,1.23,2.05,2.74,2.66,4.53.61,1.79.91,3.99.91,6.6,0,2.3-.29,4.28-.86,5.95-.7,2.03-1.69,3.68-2.99,4.94-.98.95-2.3,1.7-3.96,2.23-1.24.39-2.9.59-4.98.59h-10.59v-27.94Zm5.62,4.75v18.44h4.21c1.57,0,2.71-.09,3.41-.27.91-.23,1.67-.61,2.28-1.16.6-.54,1.09-1.44,1.48-2.69.38-1.25.57-2.95.57-5.1s-.19-3.8-.57-4.96c-.38-1.15-.91-2.05-1.6-2.7-.69-.65-1.55-1.08-2.61-1.31-.79-.18-2.33-.27-4.63-.27h-2.53Z"/>
      <path class="cls-4" d="m100.71,346.46h5.62v15.15c0,2.4.07,3.96.21,4.67.24,1.15.81,2.06,1.71,2.76.9.69,2.14,1.04,3.71,1.04s2.79-.33,3.6-.98c.81-.66,1.29-1.46,1.46-2.41.16-.95.25-2.54.25-4.75v-15.48h5.62v14.69c0,3.36-.15,5.73-.46,7.12-.3,1.39-.86,2.56-1.68,3.51-.82.95-1.91,1.71-3.27,2.28-1.37.57-3.15.85-5.35.85-2.66,0-4.67-.31-6.04-.92-1.37-.62-2.46-1.42-3.26-2.4-.8-.99-1.32-2.02-1.57-3.1-.37-1.6-.55-3.97-.55-7.09v-14.91Z"/>
      <path class="cls-4" d="m132.23,374.4v-27.94h11.82c2.97,0,5.13.25,6.48.75,1.35.5,2.42,1.39,3.23,2.67.81,1.28,1.21,2.75,1.21,4.4,0,2.09-.61,3.82-1.84,5.19-1.22,1.36-3.05,2.22-5.49,2.58,1.21.71,2.21,1.5,3,2.35.79.85,1.85,2.37,3.19,4.54l3.39,5.46h-6.73l-4.01-6.09c-1.44-2.18-2.43-3.55-2.96-4.12-.53-.57-1.1-.96-1.69-1.17-.6-.21-1.54-.32-2.83-.32h-1.14v11.69h-5.62Zm5.62-16.12h4.14c2.69,0,4.36-.11,5.03-.34.67-.23,1.19-.62,1.57-1.18.38-.56.57-1.25.57-2.09,0-.94-.25-1.69-.75-2.27-.5-.58-1.2-.94-2.11-1.09-.45-.06-1.82-.09-4.09-.09h-4.37v7.06Z"/>
      <path class="cls-4" d="m188.87,374.4h-6.05l-2.43-6.37h-11.18l-2.3,6.37h-6.03l10.76-27.94h5.99l11.24,27.94Zm-10.29-11.12l-3.93-10.31-3.73,10.31h7.66Z"/>
      <path class="cls-4" d="m195.27,374.4v-27.94h5.44l11.56,18.85v-18.85h5.19v27.94h-5.61l-11.39-18.45v18.45h-5.19Z"/>
      <path class="cls-4" d="m239.78,364.15v-4.75h12.06v11.18c-1.18,1.14-2.89,2.15-5.12,3.02-2.24.87-4.5,1.3-6.8,1.3-2.91,0-5.46-.61-7.62-1.84-2.17-1.23-3.8-2.98-4.89-5.27-1.09-2.28-1.63-4.77-1.63-7.46,0-2.91.61-5.5,1.82-7.77,1.22-2.26,3-4,5.34-5.21,1.79-.93,4.01-1.39,6.67-1.39,3.46,0,6.16.73,8.1,2.18,1.94,1.45,3.2,3.45,3.75,6.01l-5.62,1.06c-.39-1.37-1.13-2.45-2.21-3.25-1.08-.79-2.42-1.19-4.04-1.19-2.45,0-4.39.78-5.84,2.35-1.45,1.57-2.17,3.89-2.17,6.98,0,3.33.74,5.82,2.21,7.49,1.47,1.66,3.41,2.5,5.8,2.5,1.18,0,2.37-.23,3.56-.7,1.19-.46,2.21-1.03,3.06-1.69v-3.55h-6.44Z"/>
      <path class="cls-4" d="m259.29,360.6c0-2.85.42-5.24,1.28-7.18.63-1.43,1.5-2.7,2.6-3.84,1.1-1.13,2.3-1.97,3.61-2.52,1.74-.74,3.74-1.11,6.01-1.11,4.11,0,7.4,1.28,9.87,3.84,2.47,2.56,3.7,6.12,3.7,10.67s-1.22,8.05-3.67,10.6c-2.45,2.55-5.72,3.83-9.82,3.83s-7.45-1.27-9.9-3.81c-2.45-2.54-3.67-6.04-3.67-10.49Zm5.81-.19c0,3.17.73,5.58,2.19,7.22,1.46,1.64,3.31,2.46,5.56,2.46s4.09-.81,5.53-2.44,2.16-4.06,2.16-7.31-.7-5.61-2.1-7.19c-1.4-1.58-3.26-2.37-5.59-2.37s-4.19.8-5.62,2.4c-1.42,1.6-2.13,4.01-2.13,7.24Z"/>
    </g>
    <polygon class="cls-4" points="323.31 324.57 323.31 92.68 99.99 324.57 323.31 324.57"/>
    <polygon class="cls-3" points="301.71 324.57 301.71 259.78 308.86 259.78 308.86 244.83 296.73 244.83 296.73 254.37 290.66 254.37 290.66 244.83 277.66 244.83 277.66 254.37 271.59 254.37 271.59 244.83 259.46 244.83 259.46 259.78 266.61 259.78 266.61 269.97 259.46 269.97 259.46 279.72 254.04 279.72 254.04 269.97 244.51 269.97 244.51 279.72 239.09 279.72 239.09 269.97 231.94 269.97 231.94 259.78 239.09 259.78 239.09 244.83 226.96 244.83 226.96 254.37 220.89 254.37 220.89 244.83 207.89 244.83 207.89 254.37 201.82 254.37 201.82 244.83 189.69 244.83 189.69 259.78 196.84 259.78 196.84 324.57 301.71 324.57"/>
    <path class="cls-1" d="m220.24,324.57v-23.73c0-3.53-2.86-6.39-6.39-6.39s-6.39,2.86-6.39,6.39v23.73h12.78Z"/>
    <path class="cls-1" d="m256.21,324.57v-14.73c0-3.83-3.11-6.93-6.93-6.93s-6.93,3.1-6.93,6.93v14.73h13.87Z"/>
    <path class="cls-1" d="m278.31,324.57v-23.73c0-3.53,2.86-6.39,6.39-6.39s6.39,2.86,6.39,6.39v23.73h-12.78Z"/>
    <path class="cls-3" d="m256.21,232.05l1.62,1.62v3.14l-1.62,1.62v3.14h-2.6v-4.55h-6.72v4.55h-4.12v-6.07h-3.25v-3.25l-1.3-1.3,1.08-1.08h2.6l1.66-1.84h1.81v2.06h2.17l8.67,1.95Z"/>
    <path class="cls-3" d="m256.21,216.45l1.62,1.62v3.14l-1.62,1.62v3.14h-2.6v-4.55h-6.72v4.55h-4.12v-6.07h-3.25v-3.25l-1.3-1.3,1.08-1.08h2.6l1.66-1.84h1.81v2.06h2.17l8.67,1.95Z"/>
    <g>
      <path class="cls-1" d="m219.65,228.41l-11.57-4.37-1.56,4.13-2.36-.89,4.18-11.07,2.36.89-1.56,4.12,11.57,4.37-1.06,2.81Z"/>
      <path class="cls-1" d="m233.39,210.27l-2.38,2.24-3.27-1.57-4.33,4.08,1.42,3.31-2.32,2.19-5.98-14.82,2.32-2.18,14.55,6.76Zm-8.07-.5l-5.28-2.62,2.32,5.4,2.96-2.79Z"/>
      <path class="cls-1" d="m233.64,194.35l5.81-1.26c1.15-.25,2.02-.39,2.6-.41.59-.03,1.14.06,1.65.27.51.21.97.53,1.38.97.41.44.68.98.82,1.6.15.68.1,1.35-.14,2-.24.65-.65,1.18-1.21,1.6.94.07,1.72.36,2.33.88.61.52,1.01,1.2,1.19,2.04.14.66.13,1.34-.04,2.03-.17.69-.48,1.28-.93,1.77-.45.49-1.06.86-1.82,1.12-.48.16-1.65.45-3.52.87l-4.95,1.07-3.15-14.54Zm3.46,1.78l.73,3.36,1.92-.42c1.14-.25,1.85-.42,2.12-.51.49-.17.85-.43,1.07-.78.22-.35.28-.76.18-1.23-.1-.45-.3-.79-.61-1.02-.31-.23-.71-.32-1.22-.27-.3.03-1.14.2-2.52.5l-1.69.37Zm1.26,5.78l.84,3.89,2.72-.59c1.06-.23,1.72-.4,1.99-.53.42-.17.73-.44.94-.81.21-.37.26-.81.14-1.32-.1-.44-.28-.78-.56-1.04-.28-.26-.63-.41-1.06-.47-.43-.05-1.31.07-2.65.36l-2.37.51Z"/>
      <path class="cls-1" d="m253.34,207.15l2.62-14.66,2.96.53-2.62,14.66-2.96-.53Z"/>
      <path class="cls-1" d="m260.98,208.58l8.03-12.53,5.33,3.41c1.34.86,2.24,1.59,2.7,2.21.46.61.69,1.33.69,2.13,0,.81-.24,1.58-.72,2.33-.6.94-1.38,1.54-2.32,1.8-.94.26-2.02.11-3.22-.43.34.67.57,1.31.68,1.92.11.61.16,1.6.14,2.96l-.04,3.43-3.03-1.94-.08-3.9c-.03-1.39-.08-2.29-.15-2.7-.08-.41-.22-.74-.43-1.01-.21-.27-.6-.58-1.18-.96l-.51-.33-3.35,5.23-2.53-1.62Zm7.16-5.61l1.87,1.2c1.21.78,2,1.21,2.37,1.3.37.09.72.07,1.05-.08.33-.14.62-.4.86-.78.27-.42.38-.83.32-1.24-.06-.4-.27-.77-.64-1.1-.19-.16-.79-.57-1.82-1.23l-1.98-1.26-2.04,3.18Z"/>
      <path class="cls-1" d="m280.44,230.82l-1.46-2.93,2.45-2.67-2.65-5.33-3.58.41-1.42-2.86,15.92-1.45,1.42,2.85-10.67,11.98Zm2.81-7.58l4.03-4.3-5.84.66,1.81,3.64Z"/>
    </g>
    <path class="cls-2" d="m87.71,324.57c60.94-63.28,250.68-260.31,256.53-266.38-9.31-8.67-40.08-37.35-49.13-45.78-5.57,5.79-192.48,200.19-261.57,272.05v40.11s54.17,0,54.17,0Z"/>
    <g>
      <path class="cls-3" d="m106.88,265.82l5.38-2.92c1.72,2.9,2.43,5.64,2.12,8.24-.31,2.59-1.57,5.04-3.78,7.34-2.74,2.85-5.97,4.25-9.68,4.21-3.71-.04-7.26-1.69-10.63-4.94-3.57-3.44-5.46-7.03-5.66-10.78-.2-3.75,1.15-7.12,4.04-10.13,2.53-2.62,5.36-4.01,8.48-4.15,1.86-.09,3.88.45,6.06,1.61l-3.1,5.27c-1.36-.82-2.74-1.13-4.16-.95-1.42.19-2.68.85-3.79,2-1.53,1.59-2.2,3.43-2.02,5.52.19,2.09,1.56,4.37,4.12,6.83,2.71,2.61,5.11,3.98,7.2,4.12,2.09.13,3.89-.58,5.39-2.14,1.11-1.15,1.7-2.49,1.76-4.03s-.51-3.24-1.73-5.11Z"/>
      <path class="cls-3" d="m104.92,240.71l4.17-4.33,11.62,11.19c1.84,1.78,3.09,2.87,3.74,3.29,1.06.66,2.19.9,3.39.71,1.2-.19,2.39-.88,3.55-2.09,1.18-1.23,1.82-2.4,1.92-3.51.1-1.11-.16-2.08-.77-2.91-.61-.83-1.76-2.06-3.46-3.7l-11.87-11.43,4.17-4.33,11.27,10.85c2.58,2.48,4.28,4.35,5.12,5.61.84,1.26,1.32,2.55,1.45,3.89.13,1.33-.1,2.74-.68,4.21-.58,1.47-1.69,3.06-3.32,4.75-1.97,2.05-3.71,3.37-5.2,3.98-1.49.6-2.91.85-4.26.73-1.35-.11-2.53-.47-3.55-1.08-1.5-.9-3.45-2.51-5.85-4.82l-11.44-11.02Z"/>
      <path class="cls-3" d="m151.36,235.42l-21.28-20.49,4.17-4.33,17.66,17.01,10.37-10.77,3.61,3.48-14.54,15.1Z"/>
      <path class="cls-3" d="m175.39,210.48l-17.82-17.16-6.13,6.37-3.63-3.49,16.42-17.05,3.63,3.49-6.12,6.35,17.82,17.16-4.17,4.33Z"/>
      <path class="cls-3" d="m170.9,172.2l4.17-4.33,11.62,11.19c1.84,1.78,3.09,2.87,3.74,3.29,1.06.66,2.19.9,3.39.71,1.2-.19,2.39-.88,3.55-2.09,1.18-1.23,1.82-2.4,1.92-3.51.1-1.11-.16-2.08-.77-2.91-.61-.83-1.76-2.06-3.46-3.7l-11.87-11.43,4.17-4.33,11.27,10.85c2.57,2.48,4.28,4.35,5.12,5.61s1.32,2.55,1.45,3.89c.12,1.33-.1,2.74-.68,4.21-.58,1.47-1.69,3.06-3.32,4.75-1.97,2.05-3.71,3.37-5.2,3.98-1.49.6-2.91.85-4.26.73-1.35-.11-2.53-.47-3.55-1.08-1.5-.9-3.45-2.51-5.85-4.82l-11.44-11.02Z"/>
      <path class="cls-3" d="m217.24,167.02l-21.45-20.66,8.78-9.12c2.21-2.29,4-3.77,5.39-4.44,1.38-.67,2.87-.84,4.46-.52,1.59.32,3.01,1.1,4.28,2.32,1.61,1.55,2.48,3.3,2.62,5.26.14,1.96-.56,4.01-2.1,6.15,1.45-.41,2.79-.61,4.03-.59s3.19.32,5.86.89l6.71,1.41-4.99,5.18-7.68-1.36c-2.74-.49-4.52-.75-5.35-.75-.83,0-1.54.14-2.15.44-.6.3-1.38.95-2.34,1.95l-.84.88,8.96,8.62-4.17,4.33Zm-8.21-16.25l3.09-3.2c2-2.08,3.16-3.46,3.49-4.15.32-.69.41-1.38.26-2.09-.15-.71-.54-1.37-1.19-1.99-.72-.69-1.49-1.06-2.3-1.11-.81-.04-1.62.23-2.41.82-.39.3-1.43,1.33-3.12,3.09l-3.25,3.38,5.44,5.24Z"/>
      <path class="cls-3" d="m260.7,121.89l-4.54,4.71-6.68-2.82-8.26,8.58,3.17,6.46-4.42,4.59-13.41-29.01,4.41-4.58,29.72,12.07Zm-16.17-.2l-10.81-4.71,5.17,10.56,5.64-5.85Z"/>
      <path class="cls-3" d="m267.05,115.29l-21.28-20.49,4.17-4.33,17.66,17.01,10.37-10.77,3.61,3.48-14.54,15.1Z"/>
    </g>
    <g>
      <path class="cls-4" d="m251.22,34.19v11.1l10.67-11.1h-10.67Z"/>
      <path class="cls-4" d="m209.62,34.19h-31.2v86.82l31.2-32.45v-54.37Z"/>
      <polygon class="cls-4" points="106.44 34.19 106.44 195.88 136.83 164.28 136.83 34.19 106.44 34.19"/>
      <path class="cls-4" d="m33.54,82.55h0v189.15s31.29-32.55,31.29-32.55V15.63c-1.13-1.17-2.18-2.27-3.1-3.23-5.09,4.74-17.04,15.88-28.19,26.27v43.87Z"/>
    </g>
    <g>
      <path class="cls-1" d="m246.8,34.19h-32.75v49.77l32.75-34.07v-15.7Z"/>
      <path class="cls-1" d="m174,34.19h-32.76v125.49l32.76-34.07V34.19Z"/>
      <path class="cls-1" d="m69.26,234.55l32.76-34.07V34.19h-19.33s-6.92-7.2-13.42-13.96v214.32Z"/>
      <path class="cls-1" d="m29.22,42.71c-6.99,6.51-13.22,12.32-16.61,15.48,4.51,4.68,11.92,12.38,16.61,17.25v-32.73Z"/>
    </g>
  </g>
</svg>