<?xml version="1.0" encoding="UTF-8"?>
<svg id="Layer_2" data-name="Layer 2" xmlns="http://www.w3.org/2000/svg" viewBox="0 0 427.46 422.23">
  <defs>
    <style>
      .cls-1 {
        fill: none;
        stroke: #000;
        stroke-width: .16px;
      }

      .cls-2 {
        fill: #008c29;
      }

      .cls-2, .cls-3, .cls-4, .cls-5, .cls-6, .cls-7, .cls-8, .cls-9, .cls-10, .cls-11, .cls-12 {
        fill-rule: evenodd;
        stroke-width: 0px;
      }

      .cls-3 {
        fill: #0073bd;
      }

      .cls-4 {
        fill: #006329;
      }

      .cls-5 {
        fill: #29195a;
      }

      .cls-6 {
        fill: #a5a59c;
      }

      .cls-7 {
        fill: #c57b42;
      }

      .cls-8 {
        fill: #ffbd94;
      }

      .cls-9 {
        fill: #ff0008;
      }

      .cls-10 {
        fill: #fff;
      }

      .cls-11 {
        fill: #6b6308;
      }
    </style>
  </defs>
  <g id="Layer_1-2" data-name="Layer 1">
    <g>
      <path class="cls-12" d="m316.84,77.41c-5.1-1.5-10.3-2.71-15.48-3.92l-2.24,6.5-2.06-.41c-4.96-.98-9.9-2.02-14.89-2.88l-2.93-.5,20.54-51.75,2,.45c5.44,1.21,10.76,2.82,16.17,4.14l1.3.32,20.43,62.68-4.55-1.54c-5.01-1.7-9.96-3.43-15.04-4.92l-1.32-.39-1.94-7.79Zm-3.77-14.45l-3.89-14.44-3.85,12.4,7.75,2.04Zm-94.29-20.65c.32-18.55,12.93-28.94,31.18-27.09,11.18,1.14,20.67,7.3,25.6,17.49,2.16,4.47,3.27,9.41,3.27,14.38,0,7.27-1.76,14.72-7.14,19.93-5.85,5.67-14.16,6.94-21.99,6.3-17.95-1.46-31.24-12.08-30.92-31.02h0Zm20.75,1.35c.05,7.15,1.95,12.99,9.77,14.2,6.95,1.07,9.2-6.7,9.23-12.18.04-6.98-2.1-14.57-10.1-15.41-1.56-.16-3.05.1-4.36,1.01-3.48,2.43-4.57,8.37-4.54,12.37h0Zm-44.93-28.37c5.3-.44,10.61-.54,15.92-.64l2.45-.04-.07,55.92-2.38.02c-5.22.04-10.4.06-15.62.45l-2.59.2.08-55.73,2.2-.18Zm-36.47,18.32c-.02,1.8-.05,3.59-.07,5.39,2.95-.46,5.89-.95,8.84-1.37,3.67-.53,7.34-.95,11.04-1.24l2.56-.2.21,15.11-2.23.2c-3.31.29-6.63.52-9.94.8-3.54.29-7.04.68-10.55,1.18v6.22c8.29-1.5,17-2.4,25.38-2.83l2.57-.13-.22,14.8-2.28.09c-6.72.26-13.38.91-20.04,1.88-7.57,1.1-15.08,2.59-22.57,4.16l-2.89.61-.09-56.07,2.01-.34c6.73-1.12,13.46-2.29,20.21-3.29,7.29-1.09,14.57-1.95,21.93-2.5l2.56-.19.17,15.09-2.24.19c-8.1.67-16.07,1.22-24.12,2.44-.07,0-.15.02-.23.03h0Zm-49.44,36.5c6.98-1.93,13.9-3.89,20.97-5.49l2.93-.66.05,15.18-1.86.44c-6.1,1.43-12.22,2.83-18.29,4.42-7,1.84-13.84,3.95-20.62,6.46l-3.24,1.2-.09-56.13,1.67-.54c5.06-1.64,10.1-3.32,15.21-4.82l3.07-.91.21,40.85Z"/>
      <path class="cls-10" d="m316.05,64.74l-5.66-20.99c-.36-1.31-1.96-.89-2.25.02l-5.5,17.69c-.24.68-.06,1.21.7,1.41l11.35,2.99c.57.15,1.52-.56,1.36-1.13h0Zm2.8,10.76c-6.02-1.84-12.81-3.38-19.05-4.85l-2.27,6.57c-5.59-1.11-9.39-1.93-14.95-2.88l18.69-47.09c6.01,1.33,10.11,2.66,16.12,4.13l18.52,56.85c-5.74-1.95-9.45-3.28-15.13-4.95l-1.93-7.78Z"/>
      <path class="cls-10" d="m237.12,43.68c.06,8.43,2.77,15.16,11.81,16.56,8.27,1.28,11.96-6.88,12-14.54.06-10.04-4.06-16.95-12.26-17.81-8.45-.89-11.61,8.36-11.55,15.79h0Zm-15.94-1.33c.29-16.77,11.3-26.48,28.53-24.73,16.99,1.73,26.7,15.26,26.71,29.48.02,16.44-9.4,25.23-26.53,23.84-16.86-1.37-29.01-11.09-28.71-28.58h0Z"/>
      <path class="cls-10" d="m194.8,17.68c5.17-.43,10.2-.53,15.76-.63l-.06,51.09c-5.54.04-10.26.04-15.78.46l.07-50.91Z"/>
      <path class="cls-10" d="m140.26,24.21c14.82-2.47,26.7-4.62,41.92-5.76l.12,10.28c-8.22.68-15.29,1.09-24.29,2.46-1.34.2-2.24.01-2.27,2.01-.02,2.68-.06,4.1-.09,6.79-.05,1.02.35,1.75,2.06,1.48,7.49-1.17,12.58-2.09,20.43-2.7l.14,10.31c-8,.71-12.54.83-20.78,2.01-1.48.21-1.9,1.14-1.91,1.79v7.53c-.07,1.16.54,2.05,2.11,1.76,8.21-1.53,17.85-2.52,25.8-2.93l-.15,9.95c-15.07.58-28.08,2.95-43,6.08l-.09-51.07Z"/>
      <path class="cls-10" d="m90.94,37.26c5.49-1.78,9.63-3.18,15.14-4.81l.21,39.08c0,1.57.38,1.61,1.59,1.28,7.85-2.16,14.22-4.04,22.31-5.86l.03,10.27c-14.11,3.32-25.11,5.75-39.2,10.96l-.09-50.93Z"/>
      <path class="cls-12" d="m250.58,300.27c0-1,.29-1.86,1-2.58l20.56-20.81c4.07-4.12,12.42-12.14,18.91-9.18,3.4,1.55,4.89,5.45,5.64,8.86,1.06,4.8,1.14,10.31,1.03,15.21-.45,20.96-7.71,42.52-22.47,57.76l-19.51,20.14c-.86.92-2.05,1.52-3.33,1.07-1.4-.49-1.91-1.82-1.88-3.14l.05-67.34Zm17.74,35.87l1.55-1.64c7.65-8.07,10.3-18.59,10.33-29.49,0-2.6-.08-5.48-.63-8.03-.17-.8-.74-2.97-1.58-3.38-1.27-.61-4.77,2.59-5.52,3.31-1.37,1.34-2.87,2.55-4.13,4-.06.12-.07.32-.06.44v.11s.04,34.68.04,34.68Zm-54.7,14.82l13.86-12.49c.95-.86,2.19-1.34,3.44-.71,1.07.54,1.52,1.6,1.52,2.74v11.52c.01,1.06-.34,2.02-1.15,2.73l-15.24,13.45c-1.69,1.49-3.22,1.08-4.79-.29l-14.9-13.03c-.91-.8-1.22-1.59-1.22-2.78v-11.82c.01-2.43,2.61-3.75,4.44-2.08l14.03,12.76Zm-42.72-26.81l-12.83-12.69-.13-.75c-1.1-6.25-3.03-8.85-7.47-13.21-.36-.35-1.21-1.05-1.86-1.36-.01.18-.02.36-.01.47.03,3.51,3.22,7.93,5.27,10.65,2.84,3.75,5.68,7.51,8.45,11.3,2.05,2.79,4.08,5.62,5.99,8.51,4.31,6.55,7.67,14.1,9.22,21.8.95,4.74,1.53,11.48-.61,15.98-.94,1.98-2.4,3.62-4.56,4.27-5.74,1.73-13.04-5.07-16.99-8.67-13.52-12.33-21.8-26.95-25.56-44.95-.3-1.46-.19-3.08,1.39-3.81,1.28-.59,2.52.01,3.44.9l13.63,13.18v1.02c0,2.79,2.17,7.02,3.62,9.34,1.3,2.09,2.97,4.31,4.83,5.93.48.42,2.21,1.77,2.92,1.58.03,0,.05-.02.07-.03.03-.02.06-.04.08-.07.3-.48-.14-2.07-.31-2.55-.62-1.86-1.69-3.77-2.72-5.43-1.75-2.83-3.82-5.64-5.95-8.19-5.8-6.95-11.12-14.54-15.23-22.62-4.24-8.34-8.07-21.71-3.7-30.6.56-1.14,1.41-2.07,2.55-2.65,4.18-2.12,10,1.67,13.27,4.11,2.49,1.86,5.04,4.08,7.16,6.37,11.7,12.64,17.32,22.81,21.03,39.71.73,3.36-3.05,5.14-4.98,2.44h0Z"/>
      <path class="cls-10" d="m265.88,301.57l.03,37.22c0,1.1,1.41,1.89,2.11,1.16l3.59-3.79c7.32-7.72,10.95-18.15,10.99-31.14.03-9.79-1.71-19.64-11.8-9.84-1.01.98-2.99,2.65-4.31,4.19-.37.43-.69,1.25-.6,2.19h0Zm-12.9-1.32c0-.37.06-.62.31-.87l20.56-20.81c17.16-17.37,21.93-8.2,21.47,13.15-.48,22.53-8.76,42.69-21.79,56.14l-19.54,20.17c-.59.63-1.07.73-1.05-.42l.05-67.36Z"/>
      <path class="cls-10" d="m197.56,340.29c0-.36.14-.54.4-.3l14.41,13.1c.92.84,1.25,1.1,2.2.25l14.5-13.08c.65-.58.94-.46.94.24v11.52c.02.36-.06.68-.34.93l-15.24,13.45c-.58.51-.76.45-1.61-.29l-14.89-13.03c-.38-.33-.4-.47-.4-.97v-11.81Z"/>
      <path class="cls-10" d="m132.96,314.34l12.9,12.47c-.01,6.89,10.31,22.07,15.18,18.83,5-3.33-6.56-17.59-8.39-19.79-6.9-8.27-11.68-15.77-14.93-22.17-3.45-6.78-7.85-19.97-3.69-28.45,3.02-6.16,15,4.02,19.05,8.4,11.34,12.26,16.79,21.91,20.44,38.59.18.81-.3,1.18-.77.39l-12.46-12.32c-1.2-6.84-3.39-9.83-8.15-14.5-2.28-2.25-6.01-3.86-5.97.85.03,4.27,3.46,9.04,5.76,12.08,6.45,8.52,11.25,14.98,14.35,19.69,9.57,14.55,11.26,29.51,8.45,35.43-3.4,7.14-11.17.87-17.76-5.14-12.28-11.2-20.93-25-24.83-43.66-.3-1.46.14-1.32.8-.69h0Z"/>
      <path class="cls-12" d="m100.16,148.38l1.75-.56c5.09-1.63,9.84-3.15,14.83-4.29,1.19-.27,2.39-.51,3.62-.67,1.25-.16,2.52-.23,3.81-.16,5.75.31,10.61,1.23,16.12,2.28,3.66.69,7.61,1.44,12.3,2.1.71.1,1.42.09,2.09-.01.72-.1,1.37-.31,1.91-.57,2.13-1.04,3.87-1.95,5.57-2.84,1.12-.59,2.23-1.16,2.96-1.54.81-.41,1.6-.63,2.42-.75.77-.11,1.55-.11,2.39-.09h.25c.92.02,1.39.03,2.38.38.78.27,1.82.38,2.82.32.95-.06,1.83-.25,2.38-.59,1.34-.82,2.65-1.73,3.94-2.63,1.61-1.12,3.23-2.24,4.97-3.24,1.23-.71,2.57-1.05,3.96-1.05s2.91.35,4.43.99c1.43.6,2.69,1.18,4.05,2.07,1.18.78,2.41,1.78,3.85,3.22.39-.31.81-.61,1.27-.88.75-.45,1.6-.84,2.55-1.15.4-.13.85-.1,1.22.07.39.17.71.49.86.93.32.95.81,1.75,1.42,2.42.62.68,1.39,1.24,2.27,1.71l-.95,1.76c-1.06-.57-2-1.27-2.79-2.13-.72-.79-1.3-1.7-1.72-2.76-.67.24-1.28.53-1.83.86-.62.38-1.17.8-1.66,1.27l-.72.68-.69-.72c-1.64-1.71-2.95-2.8-4.18-3.61-1.22-.8-2.39-1.34-3.73-1.9-1.27-.54-2.5-.83-3.65-.83-1.06,0-2.05.25-2.97.77-1.64.94-3.23,2.05-4.82,3.16-1.33.92-2.66,1.85-4.04,2.7-.83.51-2.05.8-3.3.88-1.25.08-2.58-.07-3.61-.43-.7-.25-1.05-.25-1.75-.26h-.26s0,0,0,0c-.74-.02-1.42-.01-2.07.08-.6.09-1.19.25-1.78.55-1.3.66-2.11,1.09-2.95,1.52-1.7.89-3.45,1.8-5.61,2.86-.73.35-1.59.62-2.5.76-.85.12-1.75.14-2.66.01-4.73-.66-8.71-1.42-12.39-2.12-5.44-1.03-10.24-1.94-15.85-2.25-1.18-.06-2.32,0-3.45.15-1.14.15-2.29.38-3.44.64-4.9,1.12-9.61,2.62-14.66,4.24l-1.75.56-.61-1.91Z"/>
      <path class="cls-12" d="m109.19,178.04c3.7.35,7.15.15,10.43-.36,3.29-.51,6.45-1.34,9.54-2.26,2.41-.71,4.86-1.71,7.32-2.71,5.81-2.37,11.65-4.75,17.77-3.76.92.15,1.96.24,3.05.28,1.31.05,2.67.04,3.95,0,.66-.02,1.32-.1,2-.21.67-.11,1.34-.27,1.99-.45,1.74-.48,3.44-1.09,5.14-1.71.92-.33,1.85-.67,2.61-.92h0c3.61-1.3,7.75-1.77,12.23-1.59,4.94.2,10.27,1.16,15.72,2.65.59.16,1.19.25,1.79.22.6-.03,1.23-.16,1.86-.45,1.17-.52,2.34-1.02,3.52-1.44,1.22-.44,2.47-.82,3.76-1.1l.42,1.96c-1.21.26-2.37.62-3.5,1.03-1.17.43-2.29.9-3.39,1.39-.89.39-1.75.58-2.59.62-.84.04-1.64-.07-2.4-.28-5.33-1.45-10.52-2.4-15.28-2.59-4.23-.17-8.13.27-11.49,1.48h-.02c-.97.34-1.77.62-2.57.91-1.75.63-3.5,1.26-5.29,1.75-.72.2-1.46.37-2.19.49-.74.12-1.49.21-2.26.23-1.32.05-2.74.05-4.09,0-1.17-.05-2.29-.14-3.29-.31-5.56-.91-11.14,1.37-16.7,3.64-2.49,1.01-4.97,2.03-7.5,2.78-3.16.94-6.38,1.79-9.8,2.32-3.43.54-7.04.74-10.91.37l.18-1.99Z"/>
      <path class="cls-12" d="m108.26,176.55l2.2,5.38c6.96-10.16,13.68-20.04,20.39-29.92,11.52-16.95,23.03-33.9,34.7-50.62l.34-.49.49.34,6.31,4.36,1.75-2.49-6.29-4.38-.5-.34.35-.5c1.09-1.56,1.95-2.78,2.56-3.65.5-.7,1.23-1.75,2.22-3.15l-1.42-.99-2.27,3.13-2.62,3.61-.35.48-.48-.34-6.89-4.8-1.73,2.6,6.78,4.68.51.35-.36.5c-11.42,15.72-23.05,31.61-34.67,47.49-7.33,10.02-14.68,20.05-21.02,28.75h0Zm1.51,6.86l-2.75-6.72-.12-.31.19-.27c7.73-10.59,14.47-19.8,21.22-29.02,11.41-15.59,22.82-31.19,34.31-46.98l-6.76-4.67-.48-.33.33-.49,2.39-3.6.34-.51.5.35,6.91,4.81,2.27-3.13,2.61-3.61.34-.48.48.34,2.4,1.67.49.34-.35.5c-.55.77-1.41,2-2.57,3.64-.9,1.29-1.64,2.34-2.21,3.15l6.29,4.39.5.35-.35.49-2.44,3.46-.34.48-.49-.34-6.31-4.36c-11.55,16.55-22.95,33.33-34.35,50.11-7.07,10.42-14.15,20.84-21.02,30.84l-.63.92-.42-1.03Z"/>
      <path class="cls-10" d="m108.74,175.89c.63,1.91,1.28,3.81,1.95,5.69,6.88-10.04,13.52-19.8,20.15-29.57,11.52-16.95,23.03-33.9,34.7-50.62l.34-.49.49.34,6.31,4.36,1.75-2.49-6.29-4.38-.5-.34.35-.5,2.56-3.65,2.22-3.15-1.42-.99-2.27,3.13-2.62,3.61-.35.48-.48-.34-6.89-4.8-1.73,2.6,6.78,4.68.51.35-.36.5c-11.42,15.72-23.05,31.61-34.67,47.49-7.14,9.76-14.31,19.55-20.54,28.09h0Z"/>
      <path class="cls-8" d="m141.92,101.06c.18-.27.54-.41.75-.62.45-.48.68-1,1.19-1.42.92-.74,2.1-1.28,3.06-1.91.27-.17.69-.1.97.13,1.16.95.98,1.46.93,2.08-.05.66-.15,1.3-.24,1.99-.2.23-.27.62-.47.85.05.83-.16,1.67-.11,2.5-1.8,1.2-4.77.76-6.9-.65.04-1,.49-2.47.81-2.96h0Z"/>
      <path class="cls-9" d="m136.65,109.27c.37-.6.84-.79,1.14-.39,1.56,2.11,2.97,4.31,3.74,6.86.71,2.34.67,6.39-.08,7.35-.11.13-.47.34-.65-.02-1.04-1.97-1.94-3.83-2.44-6.04-.05-.22-.23-.55-.6-.48-1.96.38-3.52,1.95-3.99,2.96-1.56,3.29-1.58,6.55-1.67,9.99-.05,1.77-1.06,1.25-1.15.8-.5-2.41-.47-5-.37-7.37.14-3.39,3.36-9.25,6.07-13.66h0Z"/>
      <path class="cls-9" d="m148.93,127.57c-.28,2.55-1.37,3.94-3.23,4.73-4.24,6.22-8.48,12.45-12.71,18.68.6,1.05.91,2.11.93,3.24.07,2.91-.5,4.82-1.05,7.16-1.06,4.51-1.46,9.73-1.51,13.82,0,.34-.26.97.47.41,1.89-1.46,3.82-2.67,5.8-4,.28-.19.71-.54,1.04-.52.31.02.53.35.68.66.17.14.01.51-.13.61-.77.83-.9,2.14-.86,3.57.44.51.86,1.13,1.48,1.45,1.27.64,2.93.85,4.45.93,1.59.09,2.72.15,4.12-.1,2.01-.35,2.15-1.01,2.89-1.66.5-.45.83-.67,1.41-.13.43.4.89.69,1.46.77.6.09,1.56-.02,1.56-.54-.04-6.99-.58-13.92-.83-20.8-.46-5.59-.63-10.97.05-16.45.06-.45-.11-1-.58-1.22-1.37-.65-1.75-1.76-1.82-3-.18-3.43-.46-6.97-.51-10.43,0-.55-.04-1.09-.08-1.63-1.01,1.48-2.02,2.95-3.04,4.43h0Z"/>
      <path class="cls-9" d="m148.46,119.54c.83-1.13,1.66-2.27,2.49-3.41-.02-.11-.03-.22-.05-.32-.46-1.86-1.07-3.23-1.87-4.66-.89-1.6-1.01-2.58-1.04-3.3-.02-.52.44-.66.5-1.4.05-.54-.27-.69-1.01-.51-.78.18-1.18.3-2.26.17-.8-.1-.91.27-.21.8.71.52,1.74,2.39,2.52,3.59l.93,7s0,.93-.02,2.03h0Z"/>
      <path class="cls-12" d="m140.8,123.08c-1.04-1.97-1.94-3.83-2.44-6.04-.05-.22-.23-.55-.6-.48-1.96.38-3.52,1.95-3.99,2.96-1.56,3.29-1.58,6.55-1.67,9.99-.05,1.77-1.06,1.25-1.15.8-.5-2.41-.47-5-.37-7.37.14-3.39,3.36-9.25,6.07-13.66.37-.6.84-.79,1.14-.39,1.56,2.11,2.97,4.31,3.74,6.86.71,2.34.67,6.39-.08,7.35-.11.13-.47.34-.65-.02h0Zm-.61-20.89c-.18.75-.61,1.43-1.05,2.02-.59.79-1.46,1.37-2.13,2.1-.74.8-1.4,1.57-2,2.48-1.37,2.09-2.7,4.22-3.68,6.52-1.48,3.48-2.73,7.07-2.38,10.76.36,3.73,1.16,7.49,1.87,11.22.32,1.66.85,3.29,1.03,4.98,5.53-7.56,11.07-15.13,16.61-22.73,0-1.1.02-2.03.02-2.03l-.93-7c-.78-1.2-1.81-3.07-2.52-3.59-.71-.52-.59-.89.21-.8,1.08.13,1.48.01,2.26-.17.74-.18,1.05-.03,1.01.51-.07.74-.52.87-.5,1.4.02.71.14,1.7,1.04,3.3.8,1.43,1.41,2.8,1.87,4.66l.05.32c3.72-5.1,7.44-10.21,11.17-15.34-1.24-.3-2.79-.04-3.71.8-1.38,1.26-2.14,2.53-3.32,3.69-1.38,1.36-2.11,1.41-3.31,1.48-.76.05-1.65-.5-2.06-1.09-.35-.5-.46-.94-.41-1.55.07-.88.14-1.78.51-2.98.25-.81.33-1.47.27-2.98-.04-.91-1.07-2.03-2.02-2.55-1.07-.59-2.42-.53-3.66-.46-1.36.08-3.28.41-3.91,1.55-.36.65-.3,1.4-.37,2.15-.05.53.12,1.07.19,1.6.08.54-.01,1.18-.14,1.71h0Zm7.82,2.48c-1.8,1.2-4.77.76-6.9-.65.04-1,.49-2.47.81-2.96.18-.27.54-.41.75-.62.45-.48.68-1,1.19-1.42.92-.74,2.1-1.28,3.06-1.91.27-.17.69-.1.97.13,1.16.95.98,1.46.93,2.08-.05.66-.15,1.3-.24,1.99-.2.23-.27.62-.47.85.05.83-.16,1.67-.11,2.5h0Z"/>
      <path class="cls-12" d="m152.04,124.77c.05,3.46.34,7,.51,10.43.06,1.24.44,2.36,1.82,3,.47.22.64.77.58,1.22-.68,5.48-.51,10.86-.05,16.45.25,6.88.79,13.81.83,20.8,0,.52-.96.62-1.56.54-.57-.09-1.04-.38-1.46-.77-.58-.53-.9-.32-1.41.13-.74.66-.88,1.31-2.89,1.66-1.4.25-2.53.18-4.12.1-1.52-.08-3.18-.3-4.45-.93-.63-.32-1.05-.94-1.48-1.45-.04-1.43.09-2.74.86-3.57.15-.1.3-.47.13-.61-.15-.32-.36-.64-.68-.66-.33-.02-.75.33-1.04.52-1.98,1.33-3.92,2.54-5.8,4-.73.57-.47-.07-.47-.41.05-4.09.45-9.31,1.51-13.82.55-2.34,1.12-4.25,1.05-7.16-.03-1.13-.34-2.18-.93-3.24-.3.45-.61.89-.91,1.34,1,2.41-.04,4.95-.48,7.28-.55,2.93-1.46,5.35-1.51,8.86-.03,2.06-.03,4.12-.08,6.18-.02,1.02-.08,1.88.02,2.99.03.35.57.72.87.52,1.72-1.15,3.14-2.27,5.14-3.36.25-.14.76-.09.85.19.12.35.07.79.08,1.19.03,1.07.51,1.79,1.46,2.28,1.77.92,3.66,1.32,5.81,1.43,4.5.23,5.99-.46,7.35-1.59.33-.27.75-.5,1.25-.18.37.23.7.47,1.11.51.79.07,1.52,0,2.3-.42.8-.42,1.13-1.54,1.15-2.44.14-4.99-.38-9.98-.58-14.96-.16-3.91-.52-7.81-.53-11.73,0-3.31.13-6.55.48-9.92.32-3.12-.23-6.34-.45-9.46-.32-4.46-1.57-6.42-2.35-9.47-.66.96-1.32,1.92-1.98,2.88.04.54.07,1.08.08,1.63h0Z"/>
      <path class="cls-10" d="m188.31,150.77c.26-.21.38-.47,1.2-.45,1.77.05,3.3.49,4.83,1.12,1.94.8,3.79,1.86,5.46,3.13.86.66,1.62,1.36,2.01,2.56.17.52,0,1.1.04,1.65.03.48.04.97.16,1.43.19.77.52,1.48.42,2.23-.07.53-.46,1-.88,1.33-.34.28-.85.25-1.27.4-.39.13-.74.39-1.14.45-.56.09-1.17.19-1.7-.03-.8-.32-.92-1.16-1.11-1.86-.35-1.28-.53-2.62-.48-3.95.03-.97-.23-1.14-.64-1.51-.23-.21-.66-.07-.93.08-.5.28-.98.66-1.25,1.16-.34.63-.32,1.33-.35,2.04-.02.62.3,1.27.21,1.88-.13.89-.7,1.81-1.51,2.1-.71.25-1.73-.03-2.6-.05-.75-.02-1.5-.03-2.25-.08-.34-.02-.69-.02-1.01-.13-.98-.36-1.88-.91-2.84-1.3-.33-.13-.75-.06-1.03-.26-.32-.23-.59-.57-.66-.95-.07-.32.09-.55-.35-1.09-.57-.71-1.16-1.39-1.67-2.15-.19-.29-.42-.6-.43-.95-.01-.97.05-1.98.37-2.89.19-.54.62-1.01,1.11-1.3.66-.39,1.45-.53,2.2-.66.93-.16,1.91.04,2.81-.24,1.25-.38,2.16-.8,3.25-1.69h0Z"/>
      <path class="cls-10" d="m173.75,155.4c.01-.32.24-.63.5-.8.28-.18.66-.2.98-.13.19.04.43.2.43.4,0,.33-.18.7-.45.87-.28.18-.68.16-1.01.08-.2-.05-.46-.22-.45-.42h0Z"/>
      <path class="cls-10" d="m169.18,153.49c.08-.28.13-.62.37-.77.23-.14.59-.09.82.05.27.17.49.48.56.8.07.32-.08.66-.18.98-.09.26-.22.5-.37.72-.15.2-.26.53-.5.55-.29.03-.6-.18-.75-.42-.16-.29-.05-.66-.05-.99.01-.31.02-.63.1-.92h0Z"/>
      <path class="cls-12" d="m170.38,152.77c.27.17.49.48.56.8.07.32-.08.66-.18.98-.09.26-.22.5-.37.72-.15.2-.26.53-.5.55-.29.03-.6-.18-.75-.42-.16-.29-.05-.66-.05-.99.01-.31.02-.63.1-.92.08-.28.13-.62.37-.77.23-.14.59-.09.82.05h0Zm-6.65.99c-.23.34-.45.73-.48,1.14-.04.43.12.87.29,1.27.09.23.29.42.48.59.2.18.43.35.69.42.4.11.83.23,1.22.11.49-.16.78-.7,1.25-.9.31-.14.74-.28,1.01-.08.59.44.79,1.23,1.27,1.78.32.36.78.57,1.11.9.45.44,1,.85,1.22,1.43.26.7.15,1.48.16,2.23,0,.63-.21,1.27-.11,1.89.09.51.37.98.66,1.41.48.68,1.09,1.26,1.64,1.88.53.59,1.22,1.05,1.62,1.73.19.34.05.77.05,1.16,0,.08-.13.21-.05.24.35.13.75.24,1.12.16.22-.05.43-.27.45-.49.07-.85-.19-1.7-.21-2.55,0-.29-.05-.63.12-.86.18-.24.51-.33.8-.39.77-.13,1.55-.11,2.34-.16.78-.05,1.59-.3,2.36-.13.81.18,1.43.87,2.23,1.12.88.27,1.81.35,2.73.42.93.07,1.88.02,2.81,0,.7-.02,1.4-.18,2.09-.11.7.07,1.35.4,2.04.53.58.11,1.19.08,1.78.19.39.07.81.13,1.14.34.33.2.63.49.77.84.14.34-.02.73.02,1.1.03.34.06.7.21,1.02.12.25.34.45.56.62.21.16.44.39.7.37.19-.02.3-.27.34-.45.1-.38.05-.78.08-1.18.03-.48-.09-.99.08-1.45.12-.32.53-.44.71-.71.39-.57.6-1.25,1-1.81.29-.41.56-1.04,1.06-1.06.36-.01.06.98.42,1.01.43.04.73-.51.9-.9.26-.59.28-1.27.32-1.91.06-.92.06-1.84,0-2.76-.12-1.79-.23-3.59-.53-5.36-.18-1.04-.13-2.31-.9-3.02-1.53-1.43-3.55-2.27-5.52-2.97-3.02-1.09-6.16-1.93-9.34-2.39-2.61-.38-5.27-.09-7.9-.11-1.08,0-2.16.1-3.24.03-.29-.02-.55-.2-.82-.32-.48-.22-.91-.64-1.43-.71-.58-.08-1.15.23-1.72.27-1.11.07-2.26-.21-3.34.05-.51.12-.78.7-1.17,1.06-.25.23-.43.57-.74.71-.42.21-.98.07-1.38.32-.31.19-.45.57-.61.9-.12.25-.09.57-.24.8-.64.96-1.48,1.78-2.13,2.74h0Zm15.21.91c.19-.54.62-1.01,1.11-1.3.66-.39,1.45-.53,2.2-.66.93-.16,1.91.04,2.81-.24,1.25-.38,2.16-.8,3.25-1.69.26-.21.38-.47,1.2-.45,1.77.05,3.3.49,4.83,1.12,1.94.8,3.79,1.86,5.46,3.13.86.66,1.62,1.36,2.01,2.56.17.52,0,1.1.04,1.65.03.48.04.97.16,1.43.19.77.52,1.48.42,2.23-.07.53-.46,1-.88,1.33-.34.28-.85.25-1.27.4-.39.13-.74.39-1.14.45-.56.09-1.17.19-1.7-.03-.8-.32-.92-1.16-1.11-1.86-.35-1.28-.53-2.62-.48-3.95.03-.97-.23-1.14-.64-1.51-.23-.21-.66-.07-.93.08-.5.28-.98.66-1.25,1.16-.34.63-.32,1.33-.35,2.04-.02.62.3,1.27.21,1.88-.13.89-.7,1.81-1.51,2.1-.71.25-1.73-.03-2.6-.05-.75-.02-1.5-.03-2.25-.08-.34-.02-.69-.02-1.01-.13-.98-.36-1.88-.91-2.84-1.3-.33-.13-.75-.06-1.03-.26-.32-.23-.59-.57-.66-.95-.07-.32.09-.55-.35-1.09-.57-.71-1.16-1.39-1.67-2.15-.19-.29-.42-.6-.43-.95-.01-.97.05-1.98.37-2.89h0Zm-5.19.73c.01-.32.24-.63.5-.8.28-.18.66-.2.98-.13.19.04.43.2.43.4,0,.33-.18.7-.45.87-.28.18-.68.16-1.01.08-.2-.05-.46-.22-.45-.42h0Z"/>
      <path class="cls-3" d="m128.94,126.07c-.35-3.69.9-7.28,2.38-10.76.98-2.3,2.31-4.43,3.68-6.52.6-.92,1.25-1.68,2-2.48.67-.73,1.54-1.31,2.13-2.1.44-.59.87-1.27,1.05-2.02.12-.54.21-1.17.14-1.71-.07-.54-.24-1.07-.19-1.6.07-.75.01-1.5.37-2.15.63-1.14,2.54-1.47,3.91-1.55,1.24-.07,2.58-.13,3.66.46.95.52,1.98,1.64,2.02,2.55.06,1.52-.02,2.18-.27,2.98-.37,1.2-.44,2.1-.51,2.98-.05.61.07,1.05.41,1.55.41.59,1.29,1.14,2.06,1.09,1.21-.08,1.93-.13,3.31-1.48,1.18-1.16,1.94-2.43,3.32-3.69.93-.85,2.47-1.11,3.71-.8.16-.23.33-.46.5-.69l-6.76-4.67-.48-.33.33-.49,2.39-3.6.34-.51.5.35,6.91,4.81,2.27-3.13,2.61-3.61.34-.48.48.34,2.4,1.67.49.34-.35.5-2.57,3.64-2.21,3.15,6.29,4.39.5.35-.35.49-2.44,3.46-.34.48-.49-.34-6.31-4.36c-.35.5-.7,1-1.05,1.5.13,1.26-.47,2.62-1.13,3.71-1.08,1.77-2.93,3.21-4.56,4.5-1.84,2.66-3.67,5.32-5.5,7.98.78,3.05,2.02,5.01,2.35,9.47.22,3.12.77,6.34.45,9.46-.26,2.52-.4,4.97-.45,7.43.11-.05.21-.09.32-.14,2.13-1.04,3.87-1.95,5.57-2.84,1.12-.59,2.23-1.16,2.96-1.54.81-.41,1.6-.63,2.42-.75.77-.11,1.55-.11,2.39-.09h.25c.92.02,1.39.03,2.38.38.78.27,1.82.38,2.82.32.95-.06,1.83-.25,2.38-.59,1.34-.82,2.65-1.73,3.94-2.63,1.61-1.12,3.23-2.24,4.97-3.24,1.23-.71,2.57-1.05,3.96-1.05s2.91.35,4.43.99c1.43.6,2.69,1.18,4.05,2.07,1.18.78,2.41,1.78,3.85,3.22.39-.31.81-.61,1.27-.88.75-.45,1.6-.84,2.55-1.15.4-.13.85-.1,1.22.07.39.17.71.49.86.93.32.95.81,1.75,1.42,2.42.28.3.59.59.93.85v-59.12c-20.43.23-42.62,2.69-63.5,7.34-19.26,4.29-37.39,10.44-51.96,18.4,1.02,13.2,2.83,26.01,5.46,38.45l.69-.22c5.09-1.63,9.84-3.15,14.83-4.29,1.19-.27,2.39-.51,3.62-.67,1.25-.16,2.52-.23,3.81-.16,2.41.13,4.66.37,6.86.67.27-.36.54-.73.81-1.09-.18-1.68-.72-3.31-1.03-4.98-.71-3.73-1.51-7.48-1.87-11.22h0Z"/>
      <path class="cls-10" d="m117.19,145.48c-4.9,1.12-9.61,2.62-14.66,4.24l-.87.28c1.11,5.06,2.36,10.05,3.75,14.99.9,3.19,1.86,6.36,2.87,9.5,7.24-9.92,13.63-18.65,20.03-27.4.46-.63.92-1.26,1.38-1.89-1.82-.23-3.67-.41-5.62-.52-1.18-.06-2.32,0-3.45.15-1.14.15-2.29.38-3.44.64h0Z"/>
      <path class="cls-10" d="m131.84,152.68c-5.83,8.58-11.66,17.16-17.37,25.51,1.76-.07,3.48-.25,5.15-.5,3.29-.51,6.45-1.34,9.54-2.26.27-.08.55-.16.82-.25,0-.17.01-.34.02-.52.05-2.06.05-4.12.08-6.18.05-3.51.96-5.93,1.51-8.86.44-2.34,1.48-4.88.48-7.28-.08.12-.16.23-.24.35h0Z"/>
      <path class="cls-10" d="m156.79,160.83c.12,2.8.33,5.6.47,8.4h.03c1.31.05,2.67.04,3.95,0,.66-.02,1.32-.1,2-.21.67-.11,1.34-.27,1.99-.45,1.74-.48,3.44-1.09,5.14-1.71.78-.28,1.56-.56,2.24-.79-.03-.05-.07-.1-.11-.15-.3-.43-.58-.9-.66-1.41-.11-.62.11-1.26.11-1.89,0-.74.11-1.53-.16-2.23-.22-.59-.78-.99-1.22-1.43-.34-.34-.8-.54-1.11-.9-.48-.54-.69-1.34-1.27-1.78-.27-.2-.7-.05-1.01.08-.47.2-.76.74-1.25.9-.39.12-.83,0-1.22-.11-.26-.07-.48-.25-.69-.43-.19-.16-.38-.35-.48-.59-.17-.4-.33-.84-.29-1.27.03-.41.25-.8.48-1.14.64-.96,1.48-1.78,2.13-2.74.15-.23.11-.55.24-.79.16-.33.3-.72.61-.9.4-.25.96-.11,1.38-.32.31-.15.49-.48.74-.71.39-.36.66-.94,1.17-1.06,1.08-.27,2.23.02,3.34-.05.58-.04,1.15-.35,1.72-.27.53.07.95.49,1.43.71.27.12.53.3.82.32,1.08.07,2.16-.03,3.24-.03,2.63.02,5.3-.27,7.9.11,3.18.46,6.32,1.3,9.34,2.39,1.96.71,3.99,1.55,5.52,2.97.77.71.73,1.99.9,3.02.3,1.77.41,3.57.53,5.36.06.91.06,1.84,0,2.76-.04.64-.06,1.32-.32,1.91-.07.17-.18.37-.3.54.15-.05.31-.11.46-.18,1.17-.52,2.34-1.02,3.52-1.44,1.02-.37,2.05-.7,3.12-.96v-19.01c-.89-.53-1.7-1.16-2.39-1.91-.72-.79-1.3-1.7-1.72-2.76-.67.24-1.28.53-1.83.86-.62.38-1.17.8-1.66,1.27l-.72.69-.69-.72c-1.64-1.71-2.95-2.8-4.18-3.61-1.22-.8-2.39-1.34-3.73-1.9-1.27-.54-2.5-.83-3.65-.83-1.06,0-2.05.25-2.97.77-1.64.94-3.23,2.05-4.82,3.16-1.33.92-2.66,1.85-4.04,2.7-.83.51-2.05.8-3.3.88-1.26.08-2.59-.07-3.61-.43-.7-.25-1.05-.25-1.75-.27h-.26s0,0,0,0c-.74-.02-1.42-.01-2.07.08-.6.08-1.19.25-1.78.55-1.29.66-2.11,1.09-2.95,1.52-1.7.89-3.45,1.8-5.61,2.86-.38.18-.78.34-1.22.47v.36c.01,3.91.37,7.82.53,11.73h0Z"/>
      <path class="cls-4" d="m165.76,170.5c-.72.2-1.46.37-2.19.49-.74.12-1.49.21-2.26.23-1.28.04-2.65.05-3.96,0,.05,1.51.07,3.04.03,4.55-.02.9-.35,2.02-1.15,2.44-.79.41-1.52.5-2.3.42-.41-.04-.74-.28-1.11-.51-.49-.32-.91-.1-1.25.18-1.35,1.13-2.85,1.82-7.35,1.59-2.15-.11-4.04-.52-5.81-1.43-.95-.49-1.43-1.21-1.46-2.28-.01-.4.04-.84-.08-1.19-.03-.09-.1-.16-.2-.2-.67.27-1.34.54-2,.8-1.34.84-2.48,1.69-3.78,2.56-.29.2-.84-.17-.87-.52-.01-.12-.02-.25-.03-.38-.09.03-.17.06-.26.08-3.16.94-6.38,1.79-9.8,2.32-2.2.34-4.47.55-6.84.56-.63.92-1.26,1.84-1.89,2.76.2.54.39,1.07.59,1.61l99.43-.05v-18.08c-.83.22-1.64.48-2.43.77-1.17.43-2.29.9-3.39,1.39-.88.39-1.75.58-2.58.62-.59.03-1.16-.02-1.72-.12-.02.03-.03.05-.05.08-.19.28-.6.4-.71.71-.17.45-.05.97-.08,1.45-.02.4.02.8-.08,1.18-.05.18-.16.44-.34.45-.26.02-.5-.21-.7-.37-.22-.17-.44-.37-.56-.62-.15-.32-.18-.68-.21-1.02-.04-.37.12-.76-.02-1.1-.14-.35-.44-.65-.77-.84-.33-.21-.75-.27-1.14-.34-.59-.1-1.19-.08-1.78-.19-.69-.13-1.34-.46-2.04-.53-.7-.07-1.4.09-2.09.11-.94.02-1.88.07-2.81,0-.92-.07-1.85-.15-2.73-.42-.79-.25-1.41-.94-2.23-1.11-.77-.17-1.57.08-2.36.13-.78.05-1.57.03-2.34.16-.29.05-.62.15-.8.39-.17.23-.12.57-.12.86.02.85.28,1.7.21,2.55-.02.22-.23.44-.45.49-.37.08-.76-.03-1.11-.16-.07-.03.05-.16.05-.24,0-.39.14-.82-.05-1.15-.4-.69-1.09-1.15-1.62-1.74-.04-.04-.07-.08-.11-.12-.13.05-.27.09-.4.14h-.02c-.97.34-1.77.62-2.57.91-1.75.63-3.5,1.26-5.29,1.75h0Z"/>
      <path class="cls-12" d="m267.93,135.45c-.61.26-1.34.6-1.59,1.22-.18.45-.18.94-.22,1.38-.09.8,1.05.96,1.45,1.67.16.29-.24.68-.11.98.2.46.55.91,1.01,1.11.28.12.55-.31.85-.32.24-.01.46.16.69.24.26.09.52.18.77.29.34.15.82.18,1.01.5.23.39-.03.92.11,1.35.15.49.55.86.74,1.33.13.3.48.77.21.95-.43.3-1.07-.11-1.59,0-.29.06-.43.47-.72.5-.31.05-.59-.23-.9-.26-.89-.09-1.79-.02-2.68-.08-.23-.02-.44-.12-.66-.17-.68-.16-1.34-.38-2.03-.45-.84-.09-1.52.58-1.89,1.23-.21.39.25.88.52,1.22.35.44.77.9,1.3,1.1.85.33,1.8.35,2.71.44.75.07,1.52.04,2.28.05.46.01.94-.07,1.39.03.25.05.57.18.64.43.08.25-.09.57-.29.73-.62.49-1.41.73-2.09,1.14-.75.45-1.46.96-2.18,1.46-.81.57-1.73,1.03-2.41,1.75-.58.61-1.01,1.31-1.12,2.15-.08.58-.05,1.16.26,1.66.36.58.74.97,1.39,1.17.46.14,1.05.03,1.48-.18.39-.18.83-.36,1.06-.71.48-.73,1.14-1.72,1.27-1.91.13-.18,1.49-1.86,1.49-1.86.34-.17.65-.38,1.01-.5.34-.12.72-.1,1.06-.21.25-.08.45-.43.69-.34.5.18.85.64,1.2,1.04.35.4.52.93.85,1.35.32.41.68.8,1.09,1.12.42.33.96.49,1.38.82.27.22.48.51.66.8.19.29.24.66.45.93.38.49.66.97.08,1.93,5.52.33,11.11.03,16.55-.95-.3-.86-.38-1.3-.4-1.97,0-.34.12-.7.32-.98.19-.28.46-.57.79-.64.3-.06.57.22.85.32.34.12.67.32,1.03.34,1.43.11,2.71-.12,3.9-.55,1.18-.44,2.46-1.78,2.7-3.16.21-1.18.32-2.59.23-3.68-.09-1.05-1.02-1.77-1.92-2.25-.76-.4-1.73-.3-2.57-.13-.3.06-.45.47-.53.77-.24.84.02,1.82-.42,2.57-.55.94-1.43,1.71-2.39,2.23-.95.51-2.08.77-3.16.74-.75-.01-1.44-.47-2.09-.85-.76-.44-1.39-1.07-2.09-1.59-.78-.58-1.56-1.16-2.36-1.7-.93-.63-1.91-1.17-2.84-1.81-.9-.61-1.74-1.3-2.62-1.93-.87-.62-1.8-1.14-2.63-1.8-.29-.23-.57-.52-.68-.88-.31-1.05-.76-2.14-.76-3.24,0-.27.37-.6.76-.61.32,0,.64.11.97.09.44-.03.88,0,1.26-.22.29-.16.54-.46.66-.77.18-.43.23-.92.21-1.38-.02-.48-.18-.95-.32-1.42-.13-.46-.2-.98-.49-1.36-.29-.37-.73-.62-1.17-.77-.32-.1-.67.05-1.01.05-.65,0-1.33.11-1.96-.05-.48-.12-.78-.73-1.27-.79-.57-.08-1.13.21-1.67.39-.4.14-.77.27-1.14.56-.39.29-.91.28-1.38.32-.51.04-1.03-.06-1.54-.06-.47,0-.98-.11-1.41.08h0Z"/>
      <path class="cls-12" d="m227.66,102.9h65.7c.39,0,.74.16.99.41.25.25.41.61.41.99v11.34c0,.38-.16.73-.41.99h0c-.25.26-.61.41-.99.41h-65.7c-.39,0-.74-.16-.99-.41-.25-.25-.41-.6-.41-.99v-11.34c0-.38.16-.73.41-.99h0c.25-.26.6-.41.99-.41h0Zm65.1,2h-64.5v10.13h64.5v-10.13Z"/>
      <path class="cls-2" d="m272.41,94c.41-.14.85-.37,1.27-.26.7.18,1.38.56,1.91,1.06.97.92,1.56,2.18,2.5,3.13.45.46,1.13.61,1.62,1.03.79.68,1.53,1.43,2.18,2.25.25.32.32.74.48,1.11.23.56.41,1.14.69,1.67.39.73.97,1.35,1.32,2.1.23.48.52,1.03.43,1.56-.11.62-.66,1.07-.98,1.62-.59,1.01-1.51,1.91-1.75,3.05-.18.84.3,1.69.58,2.5.29.83.76,1.58,1.11,2.39.44,1,1.15,1.94,1.26,3.02.05.52-.41,1-.81,1.34-1.62,1.36-3.21,2.89-5.17,3.66-1.11.44-2.47.19-3.58-.24-1.17-.45-2.05-1.45-2.97-2.31-1.06-1-2.07-2.07-2.94-3.24-.52-.69-1.02-1.46-1.22-2.31-.3-1.25-.07-2.57-.25-3.85-.07-.47-.17-.97-.48-1.32-.18-.21-.59-.32-.81-.16-1.58,1.12-2.73,2.8-4.37,3.83-.45.29-1.34.42-1.59-.05-.39-.73.29-1.64.27-2.47-.02-.66-.15-1.32-.37-1.93-.22-.63-.78-1.13-.93-1.78-.12-.54.24-1.1.13-1.64-.1-.52-.35-1.03-.71-1.41-.27-.27-.69-.44-1.06-.4-.9.09-1.71.62-2.6.77-.69.11-1.5.36-2.1,0-.32-.2.09-.79.35-1.06.63-.66,1.5-1.06,2.23-1.62.72-.55,1.59-.96,2.12-1.7.43-.59.56-1.37.64-2.09.08-.77-.16-1.54-.18-2.31-.03-.72-.22-1.49.01-2.17.11-.33.55-.53.89-.52.47.01.82.48,1.29.58.98.22,1.98.4,2.98.37,1.49-.05,2.98-.24,4.43-.61,1.45-.37,2.78-1.12,4.2-1.61h0Z"/>
      <path class="cls-12" d="m239.12,102.36c-.26.14-.48.4-.64.71-.23.44-.35.96-.37,1.4-.02.38.02.76.05,1.15.03.29.06.59.07.92,0,.27.08.57.14.88.12.53.24,1.05.17,1.67-.02.21-.03.42-.02.62.01.23.04.45.07.66.04.25.09.48.17.71.07.21.17.41.29.62.23.39.52.74.82,1.1.19.22.38.45.52.64.37.49.71,1.09.68,1.8-.03.75-.45,1.49-1.6,2.07-.31.16-.58.27-.83.39-.59.27-1.09.5-1.44.88-.11.12-.17.26-.19.4-.03.21,0,.46.07.74.07.34.19.67.36.98.16.3.37.59.61.84.57.6,1.06,1.24,1.43,1.92.38.7.64,1.45.74,2.25.09.74.15,1.47.15,2.19,0,.74-.03,1.45-.12,2.15-.06.48-.07.91-.02,1.3.05.38.17.75.38,1.13.11.21.34.39.61.54.35.18.78.32,1.19.41l.12.03c.69.16,1.43.33,2.05.3.55-.03,1.08-.01,1.59.05.51.06,1.01.17,1.51.32,1.47.44,2.85,1.04,4.24,1.65.72.32,1.44.63,2.13.9.45.18.91.34,1.37.45.44.11.89.17,1.34.17.65,0,1.34-.03,2.04-.07,1.07-.05,2.14-.11,3.23-.04.89.05,1.8.28,2.59.7.75.39,1.41.94,1.86,1.67.16.25.39.53.64.69.07.05.07.1.09.09h0c1.76-.44,3.41-1.02,4.85-1.84,1.41-.79,2.62-1.8,3.55-3.11l.44-.61c2.88-4.02,5.72-7.97,8.86-11.89l.14-.17c.67-.83,1.32-1.64,1.3-2.71,0-.39-.03-.84-.05-1.27-.02-.45-.05-.91-.05-1.43,0-.18-.03-.38-.09-.58-.07-.25-.17-.49-.29-.72-.2-.38-.4-.74-.6-1.11-.1-.18-.2-.37-.41-.76-.38-.71-.43-1.31-.24-1.84.18-.53.57-.91,1.07-1.21.14-.09.29-.2.44-.32.16-.14.32-.29.46-.42.36-.35.52-.61.57-.82.03-.14-.02-.31-.1-.49-.29-.59-.5-1.1-.65-1.59-.16-.52-.23-1.03-.25-1.58,0-.22-.03-.44-.06-.67-.04-.27-.11-.54-.17-.8-.04-.15-.29-.38-.52-.6l-.22-.2c-.57-.56-1.14-1.14-1.63-1.7-.44-.49-.84-.99-1.17-1.45-.31-.45-.62-.8-.93-1.11-.34-.32-.68-.6-1.07-.91-.77-.61-1.52-1.08-2.31-1.57h0c-.41-.25-.82-.52-1.22-.78-.65-.43-1.21-.82-1.77-1.21-1-.7-2.01-1.4-3.02-2h0s-.1-.07-.1-.07h0c-1.96-1.16-4.11-2.44-6.24-2.45-1.33,0-2.56,0-3.76,0-1.18.02-2.35.04-3.57.07-1.17.04-2.32.07-3.52.12-1.12.05-2.27.12-3.5.22-1.08.09-2.14.38-3.01.88-.76.43-1.37,1-1.73,1.72-.36.72-.65,1.48-.93,2.21-.33.85-.64,1.68-1.09,2.5-.34.62-.66,1.18-1.08,1.7-.45.55-.97,1.01-1.67,1.35-.41.2-.79.36-1.18.52-.5.21-1,.42-1.55.71h0Zm-2.41-.22c.34-.64.82-1.2,1.49-1.55.59-.31,1.16-.55,1.71-.78.37-.16.73-.31,1.09-.48.4-.19.71-.46.97-.79.3-.37.57-.86.88-1.42.39-.71.68-1.46.97-2.24h0c.28-.75.58-1.53,1.01-2.39.56-1.1,1.45-1.96,2.53-2.57,1.14-.65,2.49-1.03,3.85-1.14,1.16-.09,2.35-.16,3.57-.22,1.14-.05,2.34-.09,3.55-.12,1.2-.04,2.38-.06,3.61-.07,1.21-.02,2.45-.02,3.79-.01,2.68.02,5.06,1.43,7.25,2.73h0s.1.06.1.06h0c1.1.65,2.13,1.36,3.15,2.08.6.42,1.2.84,1.72,1.18.43.28.81.52,1.19.76h0c.84.53,1.65,1.04,2.49,1.7.45.35.84.67,1.23,1.04.4.39.79.83,1.18,1.41.26.38.61.8,1.01,1.26.49.54,1.01,1.09,1.53,1.59.14.14.16.16.18.17h0c.44.41.91.84,1.09,1.56.08.3.16.64.21,1,.05.3.08.62.09.93.01.37.07.7.17,1.06.11.39.29.8.52,1.28.27.54.4,1.11.27,1.75-.12.59-.46,1.2-1.12,1.85-.19.18-.38.37-.58.53-.21.18-.45.35-.7.5-.12.07-.2.12-.21.14,0,.01.03.09.12.25.07.12.23.42.41.74.2.35.4.72.62,1.16.18.34.33.71.44,1.09.1.35.16.73.16,1.11,0,.41.03.87.05,1.34.02.42.05.85.05,1.35.03,1.79-.85,2.87-1.74,3.98l-.14.17c-3.06,3.82-5.9,7.78-8.79,11.81h0l-.44.62c-1.12,1.56-2.55,2.75-4.2,3.68-1.6.9-3.42,1.55-5.34,2.03-.61.15-1.19-.03-1.7-.37-.49-.33-.93-.84-1.22-1.3-.25-.4-.63-.72-1.08-.95-.54-.28-1.17-.44-1.8-.48-.99-.07-2-.02-3.01.04-.7.03-1.39.07-2.13.07-.61,0-1.21-.09-1.8-.23-.57-.14-1.12-.32-1.65-.54-.78-.31-1.49-.62-2.19-.93-1.33-.58-2.64-1.15-4.02-1.56-.39-.12-.78-.2-1.18-.25-.41-.05-.81-.06-1.23-.04-.93.06-1.8-.15-2.62-.34l-.12-.03c-.55-.13-1.14-.32-1.68-.6-.61-.33-1.13-.77-1.45-1.39-.31-.6-.49-1.17-.58-1.77-.09-.59-.07-1.18,0-1.82.08-.65.12-1.28.11-1.91,0-.63-.05-1.28-.14-1.95-.07-.54-.25-1.05-.52-1.55-.28-.51-.66-1.01-1.13-1.5-.38-.39-.69-.82-.93-1.28-.24-.45-.42-.95-.54-1.49-.11-.48-.16-.96-.1-1.42.07-.54.28-1.03.69-1.49.63-.7,1.31-1,2.1-1.36.25-.11.51-.23.75-.35.38-.19.5-.3.51-.37,0-.11-.13-.31-.28-.5-.18-.23-.32-.41-.46-.58-.36-.43-.7-.84-1.01-1.37-.19-.32-.34-.64-.46-.97-.12-.33-.2-.68-.26-1.06-.04-.29-.08-.57-.1-.86-.02-.31-.01-.62.02-.95.04-.29-.05-.65-.13-1.01-.09-.39-.18-.79-.19-1.26,0-.26-.04-.53-.06-.79-.04-.46-.09-.92-.06-1.43.04-.69.23-1.52.6-2.24h0Z"/>
      <path class="cls-4" d="m270.88,135.43c.47-.04.99-.03,1.38-.32.38-.29.74-.42,1.14-.56.54-.18,1.1-.47,1.67-.39.38.05.65.42.97.65v-.02c2.9-4.02,5.73-7.98,8.88-11.89l.14-.17c.67-.83,1.32-1.64,1.3-2.71,0-.39-.03-.83-.05-1.27-.02-.46-.05-.91-.05-1.43,0-.18-.03-.38-.09-.58-.07-.25-.17-.49-.29-.72-.2-.38-.4-.75-.6-1.11l-.41-.76c-.38-.71-.43-1.31-.24-1.84.18-.53.57-.91,1.07-1.21.14-.09.29-.2.44-.32.16-.14.32-.28.46-.42.36-.35.52-.61.57-.82.03-.14-.02-.31-.1-.49-.29-.59-.5-1.1-.65-1.59-.16-.52-.23-1.03-.25-1.58,0-.22-.03-.44-.06-.67-.04-.27-.11-.54-.17-.8-.04-.15-.29-.38-.52-.6h0s-.22-.2-.22-.2c-.57-.56-1.14-1.14-1.63-1.7-.44-.49-.84-.99-1.17-1.45-.31-.45-.62-.8-.93-1.11-.34-.32-.68-.6-1.07-.91-.77-.61-1.52-1.08-2.31-1.57h0c-.41-.26-.82-.52-1.22-.78-.12-.08-.24-.16-.36-.24.52.71.99,1.47,1.6,2.09.45.46,1.13.61,1.62,1.03.79.68,1.53,1.43,2.18,2.25.25.32.32.74.48,1.11.23.56.41,1.14.69,1.67.39.73.97,1.35,1.32,2.1.23.48.52,1.03.43,1.56-.11.62-.66,1.07-.98,1.62-.59,1.01-1.51,1.91-1.75,3.05-.18.84.3,1.69.58,2.5.29.83.76,1.58,1.11,2.39.44,1,1.15,1.94,1.26,3.02.05.52-.41,1-.81,1.34-1.62,1.36-3.21,2.89-5.17,3.66-1.11.44-2.47.19-3.58-.24-1.17-.45-2.05-1.45-2.97-2.31-1.06-1-2.07-2.07-2.94-3.24-.52-.69-1.02-1.46-1.22-2.31-.3-1.25-.07-2.57-.25-3.85-.07-.47-.17-.97-.48-1.32-.18-.21-.59-.32-.81-.16-1.58,1.12-2.73,2.8-4.37,3.83-.45.29-1.34.42-1.59-.05-.39-.73.29-1.64.27-2.47-.02-.66-.15-1.32-.37-1.93-.22-.63-.78-1.13-.93-1.78-.12-.54.24-1.1.13-1.64-.1-.52-.35-1.03-.71-1.41-.27-.27-.69-.44-1.06-.4-.9.09-1.71.62-2.6.77-.69.11-1.5.36-2.1,0-.32-.2.09-.79.35-1.06.63-.66,1.5-1.06,2.23-1.62.72-.55,1.59-.96,2.12-1.7.43-.59.56-1.37.64-2.09.08-.77-.16-1.54-.18-2.31-.03-.72-.22-1.49.01-2.17.11-.33.55-.53.89-.52.47.01.82.48,1.29.58.98.22,1.98.4,2.98.37,1.49-.05,2.98-.24,4.43-.61,1.45-.37,2.78-1.12,4.2-1.61.32-.11.65-.27.98-.29-.45-.3-.89-.58-1.34-.85h0s-.1-.07-.1-.07h0c-1.96-1.16-4.11-2.44-6.24-2.45-1.33,0-2.56,0-3.76,0-1.18.01-2.35.04-3.57.07-1.17.04-2.32.07-3.52.12-1.12.05-2.27.12-3.5.22-1.08.09-2.14.38-3.01.88-.76.43-1.37,1-1.73,1.72-.36.72-.65,1.48-.93,2.21-.33.85-.64,1.68-1.09,2.49-.34.62-.66,1.18-1.08,1.7-.45.55-.97,1.01-1.67,1.35-.41.2-.79.36-1.18.52-.5.21-1,.42-1.55.71-.27.14-.48.4-.65.71-.23.44-.35.96-.37,1.4-.02.38.02.76.05,1.15.03.29.06.59.07.92,0,.27.08.58.14.88.12.53.24,1.05.17,1.67-.02.21-.03.42-.02.62.01.23.04.45.07.66.04.25.09.48.17.71.07.21.17.41.29.62.23.39.52.74.82,1.1.18.23.37.45.52.64.37.48.71,1.08.68,1.79-.03.75-.45,1.49-1.6,2.07-.31.16-.58.28-.83.39-.59.27-1.09.5-1.44.88-.12.12-.17.26-.19.4-.03.21,0,.46.07.74.07.34.19.67.36.98.16.3.37.59.61.84.57.6,1.06,1.24,1.43,1.92.38.7.64,1.45.74,2.25.09.74.15,1.47.15,2.19,0,.74-.03,1.45-.12,2.15-.06.48-.07.91-.02,1.3.05.38.18.75.38,1.13.11.21.34.39.61.54.35.18.78.32,1.19.41l.12.03c.69.16,1.42.34,2.05.3.55-.03,1.08-.01,1.59.05.51.06,1.01.17,1.51.32,1.47.44,2.85,1.04,4.24,1.65.72.32,1.44.63,2.13.9.45.18.91.34,1.37.45.44.11.89.17,1.34.17.65,0,1.34-.03,2.04-.07,1.07-.05,2.14-.11,3.22-.04.89.05,1.8.28,2.59.7.75.39,1.41.94,1.86,1.67.16.25.39.53.64.69.07.05.07.1.09.09h0c.09-.02.19-.05.29-.07.07-.19.15-.39.06-.55-.39-.7-1.53-.87-1.45-1.67.05-.44.05-.94.22-1.38.25-.62.98-.95,1.59-1.22.43-.19.94-.08,1.41-.08.51,0,1.03.1,1.54.06h0Z"/>
      <path class="cls-11" d="m228.26,115.04h10.8c-.05-.11-.14-.25-.25-.39-.18-.23-.32-.41-.46-.58-.35-.43-.7-.84-1.01-1.37-.19-.32-.34-.64-.45-.97-.12-.33-.2-.67-.26-1.05-.04-.29-.08-.58-.1-.86-.02-.31-.01-.62.02-.95.04-.29-.05-.65-.13-1.01-.09-.39-.18-.79-.19-1.25,0-.26-.04-.53-.06-.79-.03-.3-.06-.59-.07-.9h-7.84v10.13Z"/>
      <path class="cls-11" d="m289.1,109.92c-.12.59-.45,1.2-1.12,1.85-.19.18-.38.37-.58.53-.21.18-.45.35-.7.5-.12.07-.2.12-.21.14,0,.01.03.09.12.26l.4.74c.19.34.38.68.59,1.09h5.14v-10.13h-4.7c.05.3.08.62.09.93.01.36.07.7.17,1.06.11.39.29.8.52,1.29.27.54.4,1.1.27,1.75h0Z"/>
      <path class="cls-1" d="m289.1,109.92c-.12.59-.45,1.2-1.12,1.85-.19.18-.38.37-.58.53-.21.18-.45.35-.7.5-.12.07-.2.12-.21.14,0,.01.03.09.12.26l.4.73c.19.34.38.68.59,1.09h5.14v-10.13h-4.7c.05.3.08.62.09.93.01.36.07.7.17,1.06.11.39.29.8.52,1.29.27.54.4,1.1.27,1.75h0Z"/>
      <path class="cls-12" d="m260.54,138.27v.49c0,2.27-.01,4.15-.33,6.6-.07.54-.16,1.01-.37,1.52-.2.5-.51,1.03-1,1.7-.23.31-.41.56-.54.85-.13.3-.24.67-.32,1.24-.11.7-.14,2.58-.18,4.8-.05,2.43-.04,5.65-.21,7.79,1.3-.03,2.63-.07,3.96-.11,1.55-.04,3.1-.09,4.65-.12-.4-1.23-.79-2.88-1.07-4.15-.37-1.73-.62-3.51-.69-5.41v-.04l.1-13.53h2s-.1,13.51-.1,13.51c.07,1.75.3,3.42.65,5.05.36,1.65.83,3.24,1.37,4.8l.47.78-1.38.03c-1.94.04-3.96.09-5.99.15-2,.05-4.01.11-6.02.15l-1.34.02.16-.55c.06-.17.43-.41.85-.52.83-.21.56-6.49.59-7.89.04-2.29.07-4.24.21-5.07.12-.76.27-1.29.47-1.74.21-.47.44-.81.75-1.23.38-.52.61-.91.75-1.25.14-.33.2-.65.25-1.04.31-2.33.31-4.15.32-6.34v-.49h2Z"/>
      <path class="cls-11" d="m259.84,146.88c-.2.5-.51,1.03-1,1.7-.23.31-.41.56-.54.85-.13.3-.24.67-.32,1.24-.11.7-.14,2.58-.18,4.8-.04,2.43-.04,5.65-.21,7.79l3.95-.11c1.55-.04,3.1-.09,4.65-.12-.26-.8-.52-1.79-.74-2.73-.24.03-.48.02-.69-.05-.66-.2-1.03-.59-1.39-1.17-.32-.5-.34-1.08-.26-1.66.11-.84.55-1.54,1.12-2.15.1-.1.2-.2.3-.29-.04-.5-.07-1-.09-1.52v-.04l.03-4.07c-.09-.03-.19-.06-.28-.09-.53-.2-.95-.66-1.3-1.1-.27-.35-.73-.84-.52-1.22.37-.66,1.05-1.32,1.89-1.23.08,0,.16.02.23.03l.04-5.45c-.23-.25-.51-.46-.83-.63-.54-.28-1.17-.44-1.8-.48-.45-.03-.91-.04-1.37-.03,0,2.1-.03,3.9-.33,6.2-.07.54-.16,1.01-.37,1.52h0Z"/>
      <path class="cls-12" d="m215.18,164.08c.51-.07,1.11-.18,1.7-.28,1.18-.21,2.36-.41,3.62-.47,7.27-.32,14.44-.31,21.69-.3,3.27,0,6.56,0,9.88-.02,2.8-.02,5.58-.07,8.49-.15,2.88-.08,5.89-.19,9.22-.34,7.79-.34,15.55-1.19,23.38-2.04l2.76-.3c2.87-.31,5.72-.57,8.54-.8,2.79-.23,5.65-.42,8.55-.58,2.52-.15,5.08-.18,7.64-.2,1.26-.01,2.52-.03,3.8-.06l.04,2c-1.26.03-2.54.04-3.81.06-2.51.03-5.02.06-7.56.21-2.79.16-5.62.35-8.5.58-2.86.23-5.69.49-8.48.79l-2.76.3c-7.85.86-15.62,1.7-23.51,2.05-3.29.14-6.32.25-9.25.34-2.9.08-5.68.13-8.53.15-3.33.03-6.62.02-9.9.02-7.21,0-14.34-.02-21.61.3-1.09.05-2.22.25-3.36.45-.56.1-1.12.2-1.77.29l-.27-1.98Z"/>
      <path class="cls-12" d="m281.8,147.81c.96-.6,1.89-1.22,2.82-1.84.5-.33,1.01-.67,1.65-1.09.52-.34,1.06-.75,1.61-1.16,1.01-.76,2.02-1.52,3.18-2.06,1.62-.75,3.24-1.12,4.92-1.51l.58-.13c.91-.21,1.84-.34,2.76-.46,1.19-.16,2.37-.33,3.48-.68.53-.17,1.05-.41,1.54-.72.43-.28.82-.61,1.12-.98.16-.2.32-.44.47-.69.27-.42.54-.85.97-1.29.6-.6,1.4-1.02,2.26-1.24.87-.22,1.8-.24,2.62-.03,1.47.37,3.58,1.11,6.02,1.95,3.3,1.15,7.21,2.51,10.84,3.42l-.48,1.94c-3.71-.93-7.67-2.3-11.02-3.47-2.37-.82-4.43-1.54-5.84-1.9-.51-.13-1.09-.12-1.64.02-.52.13-.99.38-1.33.72-.28.28-.49.61-.7.94-.18.29-.37.59-.62.9-.44.54-.99,1.01-1.58,1.39-.62.4-1.32.72-2.02.94-1.28.41-2.55.58-3.82.76-.87.12-1.73.24-2.58.43l-.58.13c-1.57.36-3.08.71-4.52,1.38-.97.45-1.89,1.15-2.81,1.84-.56.42-1.11.84-1.73,1.24-.45.3-1.04.69-1.63,1.08-.96.63-1.92,1.27-2.87,1.87l-1.06-1.7Z"/>
      <path class="cls-12" d="m214.51,159.89c.06-.1.33-.59.59-1.06.93-1.66,1.87-3.33,3.2-4.84h0c.74-.84,1.51-1.67,2.35-2.44.86-.79,1.77-1.5,2.77-2.08.74-.43,1.63-.79,2.53-.93.82-.13,1.65-.08,2.42.23,1.03.41,1.94.88,2.9,1.36,1,.51,2.04,1.04,3.18,1.5.83.34,1.64.64,2.49.74.79.1,1.64.02,2.6-.37.95-.39,1.8-.77,2.64-1.16,1.13-.52,2.28-1.04,3.48-1.5.97-.37,2-.61,3.03-.75,1-.14,2.02-.2,3.04-.21.49,0,.9.14,1.28.38.23.15.43.31.63.49.44.08.89.12,1.34.12.56,0,1.12-.05,1.7-.13l.3,1.97c-.67.11-1.34.16-2.01.16-.68,0-1.36-.08-2.02-.22l-.27-.06-.19-.18c-.21-.19-.4-.36-.55-.46-.07-.05-.14-.08-.19-.08-.92.01-1.86.06-2.79.19-.89.13-1.77.33-2.6.64-1.21.46-2.29.96-3.36,1.45-.93.42-1.84.84-2.73,1.2-1.31.53-2.48.64-3.59.5-1.05-.13-2.02-.48-3-.88-1.31-.54-2.35-1.06-3.34-1.57-.93-.48-1.82-.93-2.73-1.29-.41-.16-.89-.18-1.37-.11-.63.1-1.27.36-1.83.68-.88.51-1.68,1.13-2.43,1.82-.77.7-1.5,1.48-2.2,2.29h0c-1.19,1.36-2.07,2.94-2.95,4.5-.14.24-.29.5-.64,1.11l-1.71-1.03Z"/>
      <path class="cls-12" d="m293.06,109.44c.36-.39.83-.72,1.31-1h0c.46-.27.89-.48,1.24-.65.45-.22.92-.4,1.4-.53.48-.13.95-.23,1.43-.29.81-.1,1.58.01,2.32.12l.14.02c.34.05.64.1.94.16.45.09.9.18,1.3.2.36.02.73.05,1.08.09.66.06,1.28.12,1.91.07h.09s.01,0,.01,0c1.02-.06,2.2.23,3.13.82,1.02.63,1.79,1.61,1.89,2.87h0s0,.07,0,.07h0c.04.57.07,1.01.1,1.4.04.39.08.77.14,1.19.07.56.16,1.09.39,1.44.2.3.6.55,1.35.66.91.14,1.95-.16,2.95-.45.42-.12.83-.24,1.19-.32,1.1-.26,2.21-.44,3.32-.57,1.09-.13,2.2-.22,3.3-.3.76-.06,1.55-.07,2.36-.07.8,0,1.56.04,2.32.07.68.03,1.32.12,1.96.21.28.04.57.08.91.12l-.22,1.99c-.28-.03-.62-.08-.96-.13-.61-.08-1.21-.16-1.78-.19-.77-.03-1.53-.06-2.25-.07-.71,0-1.45.01-2.2.07-1.07.08-2.14.17-3.22.29-1.05.12-2.09.29-3.1.53-.39.09-.73.19-1.09.29-1.21.35-2.47.71-3.8.52-1.41-.21-2.21-.77-2.72-1.53-.48-.71-.61-1.5-.71-2.29-.06-.43-.11-.83-.15-1.27-.04-.45-.08-.9-.11-1.44v-.05c-.05-.56-.44-1.02-.96-1.34-.59-.37-1.32-.56-1.95-.52h0s-.07,0-.07,0c-.78.07-1.5,0-2.27-.07-.32-.03-.64-.06-1-.09-.56-.03-1.07-.13-1.58-.23-.29-.06-.58-.11-.84-.15h0l-.14-.02c-.61-.09-1.25-.18-1.8-.11-.41.05-.79.12-1.14.22-.36.1-.71.23-1.06.4-.32.16-.73.36-1.09.57h0c-.34.2-.65.42-.86.64l-1.47-1.35Z"/>
      <path class="cls-3" d="m235.67,121.62c-.24-.45-.42-.95-.54-1.48-.11-.48-.16-.96-.1-1.43.07-.54.28-1.03.69-1.48.06-.07.12-.13.17-.19h-8.25c-.39,0-.74-.16-.99-.41-.25-.25-.41-.6-.41-.99v-11.34c0-.38.16-.73.41-.99h0c.25-.26.6-.41.99-.41h8.73c.09-.26.19-.52.32-.77.34-.64.82-1.2,1.49-1.55.59-.31,1.16-.55,1.71-.78.37-.16.73-.31,1.09-.48.4-.2.71-.47.97-.8.3-.37.57-.86.88-1.42.39-.71.68-1.46.97-2.24h0c.28-.75.58-1.53,1.01-2.39.56-1.1,1.45-1.96,2.53-2.57,1.14-.65,2.49-1.03,3.85-1.14,1.16-.09,2.35-.16,3.57-.22,1.14-.05,2.33-.09,3.55-.12,1.2-.03,2.38-.06,3.61-.07,1.21-.02,2.45-.02,3.79-.01.32,0,.64.02.95.06-17.5-3.09-34.9-4.48-50.43-4.58v73.06c.59-1,1.26-1.98,2.07-2.9.74-.84,1.51-1.67,2.35-2.44.86-.78,1.77-1.5,2.77-2.08.74-.43,1.63-.79,2.52-.93.82-.13,1.65-.08,2.42.23,1.03.41,1.94.88,2.9,1.36,1,.51,2.04,1.04,3.18,1.5.83.34,1.64.64,2.49.74.79.1,1.64.02,2.6-.37.95-.39,1.79-.77,2.64-1.16,1.13-.52,2.28-1.04,3.47-1.5.98-.37,2-.61,3.04-.75,1-.14,2.02-.2,3.04-.21.49,0,.9.14,1.28.38.23.14.43.31.63.49.44.08.89.12,1.34.12.41,0,.83-.02,1.24-.07.07-.26.15-.48.25-.69.21-.47.44-.81.75-1.23.38-.52.61-.91.75-1.25.14-.33.2-.65.25-1.04.29-2.16.31-3.88.32-5.86-.58.03-1.16.05-1.77.05s-1.21-.09-1.8-.23c-.57-.14-1.12-.32-1.65-.53-.78-.31-1.49-.62-2.19-.93-1.33-.58-2.64-1.15-4.02-1.57-.39-.11-.78-.2-1.18-.25-.41-.05-.81-.06-1.23-.04-.93.06-1.8-.15-2.62-.34l-.12-.03c-.55-.13-1.14-.32-1.68-.6-.61-.32-1.13-.77-1.45-1.39-.31-.6-.49-1.17-.58-1.77-.09-.58-.07-1.18,0-1.82.08-.65.12-1.28.11-1.9,0-.64-.05-1.29-.14-1.95-.07-.54-.25-1.06-.52-1.55-.28-.51-.66-1.01-1.13-1.49-.38-.4-.69-.83-.93-1.29h0Z"/>
      <path class="cls-3" d="m294.76,104.3v3.92c.32-.17.61-.32.86-.43.45-.22.92-.4,1.4-.53.48-.13.95-.23,1.43-.29.81-.1,1.58.01,2.32.12l.14.02c.34.05.64.1.94.16.45.09.9.18,1.3.2.36.02.73.05,1.08.09.66.06,1.28.12,1.91.07h.09s.01,0,.01,0c1.02-.06,2.2.23,3.13.82,1.02.63,1.79,1.61,1.89,2.87h0s0,.07,0,.07h0c.04.57.07,1.01.1,1.4.04.39.08.77.14,1.19.07.56.16,1.09.39,1.44.2.3.6.55,1.35.66.91.14,1.95-.16,2.95-.45.42-.12.83-.24,1.19-.32,1.1-.26,2.21-.44,3.32-.57,1.09-.13,2.2-.22,3.3-.3.76-.06,1.55-.07,2.36-.07.8,0,1.56.04,2.32.07.63.03,1.22.11,1.82.19.11-1.7.2-3.39.27-5.1-15.58-8.49-33.54-14.55-51.84-18.64-3.8-.85-7.61-1.61-11.42-2.3,1.95.45,3.74,1.51,5.41,2.51h0s.1.06.1.06h0c1.1.65,2.12,1.36,3.14,2.08.6.42,1.2.84,1.72,1.18.43.28.81.52,1.18.76.84.53,1.65,1.04,2.49,1.7.45.35.84.68,1.23,1.04.4.39.79.83,1.18,1.41.26.38.61.81,1.01,1.26.49.54,1.01,1.09,1.53,1.59l.19.17c.19.18.38.36.55.56h6.05c.39,0,.74.16.99.41.25.25.41.61.41.99h0Z"/>
      <path class="cls-10" d="m248.96,150.57c-.89.13-1.77.33-2.6.64-1.21.46-2.29.96-3.36,1.45-.93.42-1.84.84-2.73,1.2-1.31.53-2.48.64-3.59.5-1.05-.12-2.02-.48-3-.88-1.31-.54-2.35-1.06-3.34-1.57-.93-.48-1.82-.93-2.73-1.29-.41-.16-.89-.18-1.37-.11-.63.1-1.27.36-1.83.68-.88.51-1.68,1.13-2.43,1.82-.77.7-1.5,1.48-2.2,2.29h0c-1.19,1.36-2.07,2.94-2.95,4.5l-.63,1.11v2.99c.22-.04.44-.08.66-.12,1.18-.21,2.36-.41,3.62-.47,7.27-.32,14.44-.31,21.69-.3,3.27,0,6.56.01,9.88-.02,1.14,0,2.27-.02,3.4-.04.5-1.38.3-6.31.32-7.53.03-1.63.06-3.09.11-4.09-.31.02-.62.04-.93.03-.68,0-1.36-.08-2.02-.22l-.27-.06-.19-.18c-.21-.19-.4-.36-.55-.46-.07-.05-.14-.08-.19-.08-.92.01-1.86.06-2.79.19h0Z"/>
      <path class="cls-10" d="m266.52,142.19l-.03,4.02c.15.05.31.11.47.12.89.07,1.79,0,2.68.08.31.03.59.31.9.26.29-.04.43-.44.72-.5.52-.11,1.16.3,1.59,0,.27-.18-.09-.65-.21-.95-.19-.47-.59-.84-.74-1.33-.14-.43.12-.96-.11-1.35-.19-.32-.67-.35-1.01-.5-.25-.11-.51-.2-.77-.29-.06-.02-.12-.05-.18-.08-.69.23-1.4.44-2.12.62-.41.1-.81.05-1.18-.09h0Z"/>
      <path class="cls-10" d="m269.17,149.75c-.76-.01-1.53.02-2.28-.05-.14-.02-.29-.03-.43-.04l-.03,3.75c0,.09,0,.17.01.25.07-.04.13-.09.2-.13.71-.5,1.43-1,2.18-1.46.68-.41,1.47-.65,2.09-1.14.21-.16.37-.48.29-.73-.07-.25-.39-.37-.64-.43-.45-.1-.93-.02-1.39-.03h0Z"/>
      <path class="cls-10" d="m277.43,141.38c0,1.09.45,2.19.76,3.24.1.35.39.64.68.88.82.67,1.76,1.19,2.62,1.8.18.12.35.25.52.38.89-.56,1.75-1.13,2.62-1.71.5-.34,1-.67,1.65-1.09.52-.34,1.06-.75,1.61-1.16,1.01-.76,2.02-1.53,3.18-2.06,1.61-.75,3.24-1.12,4.92-1.51l.58-.13c.91-.21,1.84-.34,2.75-.46,1.19-.16,2.38-.33,3.48-.68.53-.17,1.05-.41,1.54-.72.43-.28.82-.61,1.12-.98.16-.2.32-.44.47-.69.27-.42.54-.85.97-1.29.6-.6,1.4-1.02,2.26-1.24.87-.22,1.8-.24,2.62-.03,1.47.37,3.58,1.11,6.02,1.96,3.04,1.06,6.59,2.29,9.96,3.19,1.23-7.38,2.12-14.86,2.66-22.45-.6-.08-1.2-.16-1.77-.19-.77-.03-1.53-.06-2.25-.07-.71,0-1.45.01-2.2.07-1.07.08-2.14.17-3.22.29-1.05.12-2.09.29-3.1.53-.39.09-.73.19-1.09.29-1.21.35-2.47.71-3.8.52-1.41-.21-2.22-.77-2.72-1.53-.48-.71-.61-1.5-.71-2.29-.06-.43-.11-.83-.15-1.27-.04-.45-.07-.9-.11-1.44v-.05c-.05-.56-.44-1.02-.96-1.34-.59-.37-1.32-.56-1.95-.52h-.07c-.78.07-1.5,0-2.27-.07-.32-.03-.64-.06-1-.09-.56-.03-1.07-.13-1.58-.23-.29-.06-.58-.11-.84-.15h0l-.14-.02c-.61-.09-1.25-.18-1.8-.11-.41.05-.79.12-1.14.22-.36.1-.71.23-1.06.4-.32.16-.73.36-1.09.57-.23.14-.45.28-.64.43v5.05c0,.38-.16.73-.41.99h0c-.25.26-.61.41-.99.41h-5.12c0,.08,0,.17.01.26,0,.41.03.87.05,1.34.02.42.05.85.05,1.35.03,1.79-.85,2.87-1.74,3.98l-.14.17c-2.82,3.52-5.45,7.15-8.11,10.86.32-.01.65-.15.95-.05.44.15.88.4,1.17.77.29.38.36.89.49,1.36.14.46.3.93.32,1.42.02.46-.04.95-.21,1.38-.12.31-.37.61-.66.77-.38.21-.82.19-1.26.22-.32.02-.64-.1-.97-.09-.4,0-.76.34-.76.61h0Z"/>
      <path class="cls-7" d="m291.91,143.48c-.97.45-1.89,1.15-2.81,1.84-.56.42-1.11.84-1.73,1.24l-1.63,1.08c-.67.44-1.34.89-2.01,1.32.13.09.26.19.39.28.93.63,1.91,1.18,2.84,1.81.8.54,1.58,1.12,2.36,1.7.7.52,1.34,1.15,2.09,1.59.65.38,1.34.84,2.09.85,1.08.02,2.21-.23,3.16-.74.96-.51,1.84-1.29,2.39-2.23.44-.75.18-1.74.42-2.57.09-.3.23-.71.53-.77.84-.17,1.82-.27,2.57.13.91.48,1.84,1.2,1.92,2.25.09,1.09-.02,2.5-.23,3.68-.24,1.39-1.52,2.73-2.7,3.16-1.19.44-2.46.66-3.9.55-.36-.03-.69-.23-1.03-.34-.29-.1-.56-.38-.85-.32-.33.07-.6.36-.79.64-.2.29-.33.64-.32.98,0,.25.02.48.06.7l1.2-.13c2.87-.31,5.72-.57,8.54-.8,2.79-.23,5.65-.42,8.55-.58,2.52-.15,5.08-.18,7.64-.2,1-.01,1.99-.02,3-.04,1.47-5.77,2.73-11.6,3.77-17.5-3.49-.92-7.15-2.19-10.28-3.28-2.37-.82-4.43-1.54-5.84-1.9-.51-.13-1.09-.12-1.64.02-.52.13-.99.38-1.33.72-.28.28-.49.61-.7.94-.18.29-.37.59-.62.9-.44.54-.99,1.01-1.58,1.39-.62.4-1.32.72-2.02.94-1.28.41-2.55.58-3.82.76-.87.12-1.73.24-2.58.43l-.58.13c-1.57.36-3.08.71-4.52,1.38h0Z"/>
      <path class="cls-7" d="m275.95,158.04c-.41-.32-.77-.71-1.09-1.12-.33-.42-.5-.95-.85-1.35-.34-.4-.7-.86-1.2-1.04-.24-.09-.44.27-.69.34-.34.11-.72.1-1.06.21-.36.12-.67.34-1.01.5,0,0-1.35,1.67-1.49,1.86-.13.19-.79,1.18-1.27,1.91,0,0,0,0,0,.01.27,1.09.58,2.15.93,3.2.51-.02,1.03-.04,1.56-.07,3.01-.13,6.01-.34,9.01-.59.17-.59-.06-.96-.35-1.34-.21-.27-.26-.64-.45-.93-.19-.29-.39-.58-.66-.8-.42-.33-.96-.49-1.38-.82h0Z"/>
      <path class="cls-4" d="m252.09,165c-3.33.03-6.62.02-9.9.02-7.21,0-14.34-.02-21.61.3-1.09.05-2.22.25-3.36.45-.33.06-.66.11-1.01.17v18.59s99.19-.05,99.19-.05c2.4-6.3,4.54-12.68,6.4-19.14.46-1.59.89-3.18,1.32-4.78-.82.01-1.63.02-2.45.03-2.51.03-5.02.06-7.56.21-2.79.16-5.62.35-8.5.58-2.86.23-5.69.49-8.48.79l-2.76.3c-7.85.86-15.62,1.7-23.51,2.05-3.29.14-6.32.25-9.25.34-2.9.08-5.69.13-8.53.15h0Z"/>
      <path class="cls-12" d="m165.68,230.33h7.41v-11.9c0-.93-.38-1.79-1-2.4-.62-.62-1.47-1-2.41-1h-.61c-.93,0-1.79.38-2.4,1s-1,1.47-1,2.4v11.9Zm8.32,1.8h-10.12v-13.71c0-1.43.59-2.73,1.53-3.68.95-.94,2.25-1.53,3.68-1.53h.61c1.43,0,2.74.59,3.68,1.53.95.95,1.53,2.25,1.53,3.68v13.71h-.9Z"/>
      <path class="cls-12" d="m123.12,211.58c1.12-.03,2.33-.12,3.54-.2.57-.04,1.15-.08,1.72-.12.54-.72,1.22-1.42,1.97-2.04.91-.75,1.91-1.4,2.88-1.83.71-.31,1.44-.57,2.18-.78.74-.21,1.49-.38,2.25-.51l.21-.04c1.03-.18,2.01-.35,3.01-.8.83-.37,1.71-.66,2.61-.88.87-.21,1.78-.34,2.69-.38,1.37-.05,2.83-.02,4.29.01.34,0,.67.02,1,.02-.22-1.97-.41-3.93-.6-5.84l-.12-1.2h0c0-.07,0-.04-.02-.14-.01-.12-.03-.22-.03-.38h0c0-.84.26-1.3,1.36-1.3h4.97c.25,0,.54.04.81.23.32.22.54.56.54,1.08h0v5.31s3.13,0,3.13,0v-5.52s0,0,0,0c0-.28.12-.56.31-.75.19-.21.48-.35.8-.35h0s6.41,0,6.41,0h0c.3,0,.57.12.76.34.17.19.28.44.28.71h0v5.58h3.25s0-5.57,0-5.57h0c0-.28.13-.56.31-.74.18-.18.45-.31.74-.31h0s6.27,0,6.27,0h0c.32,0,.62.14.83.35.2.2.34.5.34.81h0v5.46h2.25v-5.35h0c0-.32.15-.65.36-.88.23-.23.55-.4.9-.4h0s5.68,0,5.68,0h0c.39,0,.72.08.99.33h0c.38.35.5.79.28,1.37-1.14,3.02-2.31,6.43-3.34,9.77,1.77-.6,3.55-1.04,5.34-1.37,2.42-.44,4.85-.67,7.3-.75,1.9-.07,3.75.04,5.61.34,1.86.31,3.73.82,5.62,1.59l-.75,1.86c-1.76-.71-3.48-1.18-5.2-1.47-1.73-.29-3.45-.38-5.21-.32-2.37.09-4.71.3-7.02.72-2.15.39-4.29.97-6.41,1.78l-.05.16c-.39,1.32-.74,2.62-1.06,3.85,1.2.04,2.3-.03,3.37-.09.51-.03,1.02-.06,1.6-.09.94-.03,1.93.1,2.86.4.89.29,1.74.73,2.44,1.32,1,.84,2.04,1.54,3.12,2.27.18.12.37.25.79.53.56.38,1.22.68,1.89.98.26.12.52.24.84.38.38.18.83.31,1.32.4.53.09,1.09.12,1.65.09,1.02-.05,1.96.1,2.9.37.88.25,1.75.61,2.68.99l-.76,1.85c-.85-.35-1.66-.68-2.46-.91-.75-.21-1.49-.34-2.25-.3-.7.04-1.41,0-2.08-.11-.66-.11-1.29-.3-1.85-.57-.22-.11-.5-.23-.79-.36-.74-.33-1.48-.66-2.2-1.15-.1-.07-.44-.3-.78-.52-1.14-.76-2.24-1.5-3.3-2.4-.5-.42-1.1-.74-1.75-.95-.71-.23-1.47-.33-2.18-.3-.46.02-1.01.05-1.56.08-1.23.07-2.51.15-3.97.08-.33,1.42-.59,2.72-.75,3.84-.26,1.76-.38,3.51-.43,5.27-.04,1.77,0,3.57.08,5.37v.11c.05,1.21.1,2.34.47,3.43.44,1.31,1.31,3.01,2.12,4.61.21.4.41.79.61,1.2h0c.36.72.65,1.33.89,2.07.24.74.4,1.56.5,2.71v.06s0,.06,0,.06l-.16,5.41v.07c-.08.82-.14,1.64-.18,2.47-.04.84-.06,1.66-.05,2.47,0,.46.1.97.2,1.48.07.36.14.72.19,1.11.21,1.73.27,3.24.34,5.26l.03.88c.02.53.09,1.05.24,1.53h0c.14.44.36.85.67,1.22,1.27,1.46,2.78,2.35,4.97,3.61l.11-.05c.35-.19.71-.38.98-.51.51-.25,1.04-.47,1.6-.63.58-.16,1.18-.25,1.81-.22,2.7.12,5.27.51,7.84.9,1.26.19,2.53.38,3.81.54l-.24,1.99c-1.29-.16-2.58-.35-3.87-.55-2.54-.39-5.07-.77-7.62-.88-.4-.02-.8.04-1.2.15-.41.11-.83.29-1.25.5-.38.19-.66.34-.95.49-1.08.57-2.16,1.14-3.39,1.44-3.52.85-7.35,1.5-11.65,2.01-4.28.51-9.04.89-14.44,1.23l-.13-2c5.34-.33,10.07-.72,14.33-1.22,4.24-.5,8-1.13,11.41-1.96.2-.05.41-.11.61-.18-1.73-1.03-3.05-1.92-4.27-3.33-.5-.58-.84-1.23-1.06-1.92h0c-.21-.65-.3-1.35-.33-2.07l-.03-.88c-.07-1.93-.12-3.37-.33-5.09-.04-.33-.1-.65-.16-.97-.12-.59-.23-1.16-.24-1.86,0-.88.01-1.73.05-2.57.04-.84.1-1.68.18-2.54l.16-5.32c-.09-.96-.22-1.64-.41-2.23-.18-.59-.44-1.12-.77-1.77h0c-.18-.37-.4-.78-.61-1.19-.85-1.67-1.76-3.44-2.24-4.88-.46-1.36-.51-2.62-.57-3.99v-.11c-.08-1.83-.12-3.66-.08-5.5.04-1.85.17-3.69.44-5.51.39-2.62,1.25-6.16,2.35-9.94,1.11-3.82,2.46-7.88,3.78-11.46h-3.96s0,5.59,0,5.59h0c0,.26-.11.52-.27.7h0c-.18.21-.46.35-.76.35h0s-4.17,0-4.17,0h0c-.3,0-.57-.14-.75-.33h0c-.17-.18-.28-.45-.28-.7h0v-5.59h-4.5v5.45s0,0,0,0c0,.29-.09.56-.27.78h0c-.22.26-.51.41-.89.41h0s0,0,0,0h-5s0,0,0,0c-.32,0-.61-.15-.8-.36h0c-.17-.19-.29-.47-.29-.74h0v-5.53h-4.55v5.44s0,0,0,0c0,.29-.13.59-.31.79h0c-.21.23-.51.4-.85.4h-4.72c-.44,0-.79-.24-1-.56-.15-.22-.24-.52-.24-.78h0,0v-5.29s-3.59,0-3.59,0l.08.81c.54,5.46,1.11,11.25,2.25,16.74.22,1.02.37,2.05.47,3.1.1,1.03.15,2.07.16,3.12.02,2.74-.23,4.34-.79,7.89-.07.45-.15.93-.23,1.45-.3,1.91-.83,3.71-1.37,5.5-.25.85-.51,1.7-.72,2.5-.1.37-.18.72-.26,1.07-.2.86-.4,1.72-.74,2.56-.54,1.31-1.03,2.47-1.75,3.67-.72,1.21-1.66,2.45-3.07,3.91l-1.43-1.39c1.29-1.33,2.13-2.45,2.78-3.54.65-1.09,1.11-2.18,1.63-3.41.29-.7.46-1.46.64-2.23.09-.39.18-.78.27-1.14.24-.89.49-1.73.74-2.57.52-1.75,1.04-3.5,1.31-5.24.08-.52.16-1,.23-1.45h0c.54-3.45.79-5,.76-7.56,0-.97-.05-1.95-.15-2.93h0c-.09-.91-.22-1.81-.4-2.71-.38.55-.8,1.09-1.28,1.62-.54.6-1.25,1-2.02,1.26-.86.29-1.8.4-2.65.39-.93,0-1.83-.21-2.68-.53-.82-.3-1.6-.7-2.33-1.1-.61-.34-1.18-.66-1.74-1-.49-.29-1.06-.64-1.68-1.02-.81-.5-1.63-.89-2.46-1.17-.84-.29-1.69-.46-2.57-.55-2.28-.21-4.62-.05-6.98.12-1.18.08-2.35.16-3.62.2l-.06-2Zm8.04-.43c.93,0,1.86.02,2.8.11,1.04.1,2.04.31,3.01.64.98.33,1.93.78,2.88,1.36.5.31,1.03.63,1.65,1,.55.32,1.1.65,1.69.96.66.37,1.35.72,2.05.98.66.25,1.34.41,2,.41.66,0,1.38-.07,2.01-.29.46-.16.88-.39,1.18-.71.72-.79,1.31-1.69,1.89-2.58h0c.11-.16.22-.33.33-.5-.38-2.15-.69-4.32-.95-6.49-.43,0-.86-.02-1.29-.03h0c-1.42-.03-2.84-.07-4.16-.01-.77.03-1.54.14-2.32.32-.77.18-1.53.44-2.25.76-1.22.54-2.32.74-3.47.94l-.21.03c-.7.12-1.38.27-2.04.47-.66.19-1.3.41-1.92.69-.81.36-1.65.9-2.41,1.53-.16.13-.31.26-.46.4h0Z"/>
      <path class="cls-10" d="m165.68,218.43v11.9h7.41v-11.9c0-.93-.38-1.79-1-2.4-.62-.62-1.47-1-2.41-1h-.61c-.93,0-1.79.38-2.4,1s-1,1.47-1,2.4h0Z"/>
      <path class="cls-10" d="m150.43,215.61c.72-.79,1.31-1.69,1.89-2.58l.33-.5c-.38-2.15-.69-4.32-.95-6.49l-1.29-.03c-1.42-.03-2.84-.07-4.17-.01-.77.03-1.54.14-2.32.32-.77.18-1.53.44-2.25.76-1.22.54-2.32.74-3.47.94l-.21.03c-.7.12-1.38.27-2.04.47-.66.19-1.3.41-1.92.69-.81.36-1.65.9-2.41,1.53-.16.13-.31.26-.46.4.93,0,1.86.02,2.8.11,1.04.1,2.04.31,3.01.64.98.33,1.93.78,2.88,1.36.5.31,1.03.63,1.65,1,.55.32,1.1.65,1.69.96.66.37,1.35.72,2.05.98.66.25,1.34.41,2,.41.66,0,1.38-.07,2.01-.29.46-.16.88-.39,1.18-.71h0Z"/>
      <path class="cls-10" d="m197.36,214.6c1,.84,2.04,1.54,3.12,2.27l.79.53c.56.38,1.23.68,1.89.98.26.12.52.24.83.38.38.18.83.31,1.32.4.53.09,1.09.12,1.65.09,1.02-.06,1.96.1,2.89.37.45.13.9.29,1.35.46v-12.06c-1.46-.54-2.91-.91-4.36-1.15-1.73-.29-3.45-.38-5.21-.32-2.37.09-4.71.3-7.02.72-2.15.39-4.29.97-6.41,1.78l-.05.16c-.38,1.32-.74,2.62-1.05,3.85,1.2.04,2.3-.03,3.37-.09.51-.03,1.01-.06,1.6-.09.95-.03,1.93.1,2.86.4.89.29,1.73.73,2.43,1.32h0Z"/>
      <path class="cls-3" d="m194.26,205.3c2.42-.44,4.85-.67,7.3-.75,1.9-.07,3.75.04,5.61.34,1.34.22,2.68.56,4.04,1.01v-16.37s-97.52.05-97.52.05c2.95,7.46,6.26,14.79,9.94,21.98.97-.04,2-.11,3.03-.19l1.72-.12c.54-.72,1.22-1.42,1.97-2.04.91-.75,1.91-1.4,2.88-1.83.71-.31,1.44-.57,2.18-.78.74-.21,1.49-.38,2.25-.51l.21-.04c1.03-.18,2.01-.35,3.01-.8.84-.37,1.71-.66,2.61-.88.87-.21,1.78-.34,2.69-.38,1.37-.05,2.83-.02,4.29.01l1,.02c-.22-1.97-.41-3.93-.6-5.84l-.12-1.2h0s-.02-.14-.02-.14c-.01-.12-.03-.22-.03-.38h0c0-.84.26-1.3,1.36-1.3h4.97c.24,0,.53.04.8.23.32.22.54.56.54,1.08h0v5.31s3.13,0,3.13,0v-5.52s0,0,0,0c0-.28.12-.56.31-.75.19-.21.48-.35.8-.35h0s6.41,0,6.41,0h0c.3,0,.57.12.76.34.17.19.28.44.28.71h0v5.58h3.25s0-5.57,0-5.57h0c0-.28.13-.56.31-.74.18-.18.45-.31.74-.31h0s6.27,0,6.27,0h0c.32,0,.62.14.83.35.2.2.34.5.34.81h0v5.46h2.25v-5.35h0c0-.32.15-.65.36-.88.23-.23.55-.4.9-.4h0s5.68,0,5.68,0h0c.39,0,.72.09.99.33h0c.38.35.5.79.28,1.37-1.14,3.02-2.31,6.43-3.34,9.77,1.78-.6,3.55-1.04,5.35-1.37h0Z"/>
      <path class="cls-9" d="m183.52,229.59c-.08-1.83-.12-3.66-.08-5.5.04-1.85.18-3.69.44-5.51.39-2.62,1.26-6.16,2.35-9.94,1.11-3.82,2.46-7.88,3.78-11.46h-3.97s0,5.59,0,5.59h0c0,.26-.11.52-.27.7h0c-.18.2-.46.34-.76.34h0s-4.18,0-4.18,0h0c-.3,0-.57-.14-.75-.33-.17-.18-.28-.44-.28-.7h0v-5.59s-4.5,0-4.5,0v5.45s0,0,0,0c0,.29-.09.56-.28.77-.22.26-.51.41-.89.41h-5s0,0,0,0c-.32,0-.61-.15-.8-.36h0c-.18-.2-.29-.47-.29-.74h0v-5.53h-4.55v5.44s0,0,0,0c0,.29-.13.59-.31.8-.21.23-.52.39-.86.39h-4.72c-.44,0-.79-.24-1-.56-.15-.22-.24-.52-.24-.78v-5.3s-3.59,0-3.59,0l.08.81c.54,5.46,1.11,11.25,2.26,16.74.21,1.01.36,2.05.47,3.1.1,1.03.15,2.07.16,3.11.02,2.74-.23,4.34-.79,7.89l-.23,1.45c-.3,1.91-.84,3.71-1.37,5.5-.25.85-.5,1.7-.72,2.5-.1.37-.18.72-.26,1.07-.19.86-.39,1.72-.74,2.56-.55,1.31-1.04,2.46-1.75,3.67-.63,1.06-1.43,2.15-2.57,3.39,6.15,7.98,12.66,15.42,19.45,22.34.74.75,1.48,1.5,2.23,2.25,4.86-.32,9.2-.68,13.14-1.15,4.24-.5,8-1.13,11.41-1.96.2-.05.41-.11.61-.18-1.73-1.03-3.05-1.92-4.27-3.33-.5-.58-.84-1.23-1.06-1.92h0c-.21-.65-.3-1.35-.33-2.07l-.03-.88h0c-.07-1.93-.12-3.37-.33-5.09-.04-.33-.11-.65-.17-.97-.12-.59-.23-1.16-.23-1.86,0-.88.01-1.73.05-2.57.04-.84.1-1.68.18-2.54l.16-5.32c-.09-.96-.22-1.64-.41-2.23-.19-.59-.45-1.12-.77-1.77h0s-.61-1.19-.61-1.19c-.85-1.67-1.76-3.44-2.24-4.88-.46-1.37-.51-2.62-.57-3.99v-.11Zm-9.52,2.54h-10.12v-13.71c0-1.43.59-2.73,1.53-3.68.95-.94,2.25-1.53,3.68-1.53h.61c1.43,0,2.74.59,3.68,1.53.95.95,1.53,2.25,1.53,3.68v13.71h-.9Z"/>
      <path class="cls-4" d="m152.97,228.54c.55-3.45.79-4.99.77-7.56,0-.97-.06-1.95-.15-2.93h0c-.09-.91-.22-1.81-.4-2.71-.38.55-.8,1.09-1.28,1.62-.55.6-1.25,1-2.02,1.26-.86.29-1.8.4-2.65.39-.93,0-1.82-.21-2.68-.53-.82-.3-1.59-.7-2.32-1.1-.61-.34-1.18-.67-1.74-1-.5-.29-1.06-.64-1.68-1.02-.81-.5-1.62-.89-2.46-1.17-.84-.28-1.69-.46-2.57-.54-2.28-.21-4.63-.05-6.98.12-.71.05-1.43.1-2.16.14.64,1.23,1.29,2.45,1.95,3.66,5.9,10.85,12.44,20.9,19.48,30.21.91-1.01,1.56-1.91,2.08-2.79.65-1.09,1.11-2.18,1.63-3.41.28-.7.46-1.46.64-2.23.09-.39.18-.79.27-1.15.24-.89.49-1.73.73-2.57.52-1.75,1.04-3.5,1.32-5.23l.23-1.45h0Z"/>
      <path class="cls-4" d="m188.11,237.66l.61,1.2c.36.72.65,1.33.89,2.07.24.74.4,1.56.5,2.71v.06s0,.06,0,.06l-.16,5.41v.07c-.08.82-.14,1.64-.18,2.47-.04.84-.05,1.66-.05,2.47,0,.46.1.97.2,1.48.07.36.14.72.19,1.11.21,1.73.27,3.24.34,5.26l.03.88c.02.53.09,1.05.24,1.53h0c.14.44.36.85.67,1.22,1.27,1.46,2.78,2.35,4.97,3.61l.11-.05c.36-.19.72-.38.98-.51.51-.25,1.04-.47,1.61-.63.58-.16,1.19-.25,1.82-.22,2.7.12,5.27.51,7.83.9.83.12,1.66.25,2.49.37v-46.89c-.63-.26-1.26-.5-1.89-.68-.75-.21-1.49-.34-2.25-.3-.7.04-1.41,0-2.08-.11-.66-.11-1.29-.3-1.85-.57-.23-.11-.51-.23-.79-.36-.74-.33-1.48-.66-2.19-1.15l-.78-.52c-1.14-.76-2.24-1.5-3.3-2.4-.5-.42-1.1-.74-1.75-.95-.71-.23-1.46-.33-2.18-.3-.46.02-1,.05-1.55.08-1.23.07-2.51.15-3.97.08-.33,1.42-.59,2.72-.75,3.84-.26,1.76-.39,3.51-.43,5.27-.04,1.77,0,3.57.08,5.37v.11c.05,1.21.1,2.34.47,3.43.44,1.31,1.31,3.01,2.13,4.61h0Z"/>
      <path class="cls-4" d="m197.4,270.98c-1.09.57-2.16,1.14-3.39,1.44-3.52.85-7.36,1.5-11.65,2.01-3.48.41-7.27.74-11.47,1.03,12.76,12.44,26.39,23.14,40.3,32.38v-36.7c-.92-.13-1.85-.27-2.78-.41-2.54-.38-5.08-.76-7.62-.88-.4-.01-.81.04-1.2.15-.41.11-.83.29-1.25.5-.38.19-.66.34-.95.49h0Z"/>
      <path class="cls-12" d="m259.2,235.65l35.3-8.95,2.27-2.99-13.38-11.35-39.02,5.39,14.82,17.9Zm-16.32-19.7h0s40.69-5.63,40.69-5.63l.44-.06.34.29,14.43,12.25.72.61-.57.75-3.05,4.02-.21.28-.34.09-35.5,9v3.15s9.81-2.28,9.81-2.28h0c.09-.02.17-.03.25-.03.32,0,.6.13.81.34h0c.16.16.28.37.33.59.02.09.04.19.04.27h0v7.05h.01c0,.39-.16.68-.42.89h0c-.14.12-.28.19-.42.24l-10.43,4.08v6.53s19.29-8,19.29-8l.77,1.85-20.69,8.57-.45.19-.43-.24-31.3-17.42-.52-.29v-.6s.14-9.06.14-9.06v-.4s.27-.28.27-.28l15.21-15.96.77-.81Zm16.94,26.81l-.02,6.96,9.27-3.62v-5.48s-9.25,2.15-9.25,2.15Zm-31.32-.87l5.22,2.91v-10.13c0-.41.06-.82.16-1.19.22-.84.67-1.59,1.32-2.14.66-.56,1.51-.9,2.52-.9.4,0,.81.05,1.24.17.87.23,2.09.89,2.97,1.95.66.81,1.14,1.84,1.14,3.09v14.35s14.74,8.2,14.74,8.2l.04-21.06-15.05-18.18-14.16,14.86-.12,8.07Zm7.21,4.02l5.35,2.98v-13.24c0-.73-.29-1.34-.69-1.82-.58-.7-1.37-1.14-1.93-1.29-.26-.07-.51-.1-.73-.1-.5,0-.91.16-1.23.43-.33.28-.56.67-.67,1.12-.06.22-.09.46-.09.69v11.24Zm10.71-14.88l4.39,2.66.05.03c.34.19.65.37.65,1.04l.02,4.93c0,.19-.05.43-.15.62-.08.14-.18.27-.33.38-.19.14-.41.23-.67.23-.18,0-.37-.04-.56-.15l-4.36-2.34c-.09-.05-.21-.11-.32-.21h0c-.26-.22-.45-.51-.45-.92v-5.21c0-.22.08-.46.19-.64h0c.08-.13.18-.25.3-.34.19-.15.42-.23.67-.23.19,0,.38.05.57.16h0Zm3.1,4.21l-2.82-1.71v3.28l2.83,1.52v-3.09Zm19.54,4.36h0s0,0,0,0Z"/>
      <path class="cls-12" d="m244.12,203.81h3.58c.11,0,.2.09.2.2v13.61c0,.11-.09.2-.2.2h-3.58c-.11,0-.2-.09-.2-.2v-13.61c0-.11.09-.2.2-.2h0Z"/>
      <path class="cls-12" d="m251.77,205.33h3.58c.11,0,.2.09.2.2v13.61c0,.11-.09.2-.2.2h-3.58c-.11,0-.2-.09-.2-.2v-13.61c0-.11.09-.2.2-.2h0Z"/>
      <path class="cls-12" d="m214.96,215.14c1.47-.45,3.05-.94,4.73-1.52,1.61-.55,3.21-1.15,4.69-1.8,1.39-.61,2.68-1.68,3.89-2.67l.06-.05c.64-.53,1.27-1.09,1.9-1.64,1.05-.93,2.09-1.86,3.25-2.7.91-.66,1.92-1.16,2.98-1.5,1.09-.35,2.23-.52,3.36-.52,1.53,0,2.95.11,4.42.4,1.46.29,2.95.77,4.62,1.52.36.16.78.25,1.21.3.47.05.96.05,1.42.02.84-.04,1.62-.09,2.38-.21.73-.12,1.45-.34,2.25-.7.77-.36,1.57-.26,2.31.07.82.37,1.56,1.03,2.1,1.63.6.66,1.19,1.27,1.77,1.88.9.93,1.78,1.86,2.59,2.82.03.03.05.05.08.08.06.05.12.09.16.09,0,0-.01,0,0-.01.02-.01.03-.03.05-.05l.34-.4c1.58-1.88,3.16-3.77,5.22-5.34.76-.58,1.5-1.03,2.36-1.35.86-.32,1.82-.49,3-.49.97,0,1.85.01,2.76.05.91.04,1.87.11,2.97.21.14.02.27.02.39.02.57,0,1.05-.14,1.38-.39.26-.19.43-.46.46-.77h0c0-.05,0-.09,0-.13,0-.67.02-1.18.05-1.8.02-.4.04-.83.05-1.3.03-.86.49-1.56,1.14-2.07.67-.52,1.57-.84,2.37-.92,3.84-.37,7.8-.61,11.8-.57,4.02.04,8.04.36,11.96,1.12l-.38,1.96c-3.81-.74-7.71-1.05-11.6-1.09-3.91-.04-7.82.21-11.6.57-.46.05-.96.22-1.34.51-.21.16-.36.35-.36.55-.02.56-.04.96-.05,1.33-.03.61-.05,1.12-.05,1.7,0,.11,0,.22-.02.32-.09.91-.54,1.67-1.26,2.2-.66.48-1.54.77-2.55.77-.19,0-.39,0-.58-.02-1.05-.1-1.98-.16-2.87-.21-.9-.04-1.76-.06-2.67-.05-.92,0-1.66.13-2.31.38-.66.24-1.24.61-1.85,1.06-1.86,1.41-3.38,3.22-4.89,5.03l-.34.4c-.09.11-.19.21-.29.3-.48.4-1,.53-1.51.47-.46-.05-.88-.26-1.22-.54-.12-.1-.23-.21-.33-.32-.78-.93-1.64-1.82-2.51-2.73-.61-.64-1.23-1.29-1.81-1.92-.4-.44-.92-.92-1.43-1.15-.25-.11-.48-.16-.66-.08-.97.45-1.86.71-2.75.86-.85.15-1.7.2-2.62.24-.56.03-1.15.03-1.73-.03-.62-.07-1.24-.21-1.81-.46-1.54-.68-2.89-1.12-4.2-1.39-1.3-.26-2.6-.36-4.03-.36-.94,0-1.88.15-2.75.42-.86.28-1.68.68-2.41,1.22-1.07.78-2.09,1.68-3.1,2.59-.64.57-1.29,1.14-1.96,1.69l-.06.05c-1.32,1.09-2.71,2.24-4.37,2.96-1.58.69-3.21,1.31-4.84,1.87-1.55.54-3.21,1.05-4.8,1.54l-.58-1.91Z"/>
      <path class="cls-6" d="m294.79,189.42c-.32.29-.8.76-1.31,1.26-.99.97-2.09,2.05-2.97,2.71h0c-.36.27-.76.52-1.18.7-.41.18-.85.32-1.3.38-.59.08-1.12.12-1.66.15-.4.03-.79.05-1.11.09h0l-.21.02c-.7.07-1.46.14-1.92.42-1.23.73-2.38,1.69-3.53,2.64-.75.62-1.5,1.24-2.25,1.8-.22.16-.46.37-.71.57-.45.39-.91.77-1.6,1.19-.64.39-1.5.67-2.32.7h0c-.84.03-1.66-.19-2.3-.77-.24-.21-.48-.39-.73-.5-.23-.1-.47-.17-.73-.18-.43-.02-.74-.04-1.04-.06-.79-.05-1.58-.1-2.27-.1-.25,0-.48,0-.71,0h0c-.89-.02-1.79-.03-2.6.12-.45.08-.91.2-1.37.36-.39.14-.76.31-1.11.52-.41.24-.78.54-1.14.85-.36.32-.73.71-1.09,1.12-.37.41-.78.73-1.18,1.06-.58.46-1.17.93-1.15,1.54l-3,.08c-.06-2.11,1.11-3.05,2.28-3.98.31-.24.6-.48.82-.72.4-.44.83-.89,1.33-1.34.5-.45,1.04-.86,1.61-1.21.52-.3,1.07-.56,1.64-.76.59-.21,1.21-.37,1.85-.48,1.09-.2,2.13-.18,3.17-.16.23,0,.47,0,.68,0,.88,0,1.66.05,2.45.1.38.02.76.05,1,.06.65.03,1.26.19,1.82.45.55.25,1.04.59,1.49.99,0,0,.09,0,.2,0,.31-.01.64-.12.88-.27.44-.26.83-.59,1.21-.92.26-.22.52-.45.86-.7.73-.54,1.43-1.12,2.12-1.69,1.25-1.04,2.5-2.07,3.9-2.91,1.03-.61,2.14-.73,3.16-.83l.21-.02c.45-.05.83-.07,1.21-.1.51-.04,1.03-.07,1.46-.13.16-.02.32-.07.48-.14.21-.1.42-.22.61-.36h0c.75-.57,1.77-1.56,2.68-2.46.47-.46.92-.91,1.39-1.33l2.02,2.21Z"/>
      <path class="cls-6" d="m244.4,203.81v-.8c.02-.25.02-.49.03-.66.02-.54.11-1.08.27-1.6.16-.52.38-1.02.67-1.47.3-.47.66-.94,1.09-1.37h0c.39-.39.83-.74,1.33-1,.7-.38,1.33-.4,1.97-.43.23,0,.46-.02.6-.05.22-.05.39-.08.56-.11.41-.08.82-.15,1.04-.3.11-.07.27-.32.43-.58.19-.3.38-.59.65-.9.17-.2.23-.26.29-.33.47-.55.95-1.11,1.64-1.55.64-.42,1.28-.58,1.91-.74.05-.01.11-.03.34-.09h0c.33-.09.64-.12.96-.15.22-.02.44-.05.51-.08.25-.12.56-.41.86-.69.11-.11.23-.22.3-.28.35-.32.71-.65,1.11-1.01.86-.77,1.84-1.66,2.37-2.18l2.1,2.14c-.63.62-1.61,1.5-2.46,2.26-.44.4-.85.77-1.09.99-.12.11-.19.18-.26.25-.46.44-.94.89-1.63,1.23-.55.27-1.03.31-1.51.36-.17.01-.34.03-.47.07h0s-.41.1-.41.1c-.38.09-.76.19-.98.33-.34.22-.68.61-1,.99-.14.17-.29.34-.32.38-.11.12-.23.32-.35.51-.33.52-.66,1.03-1.29,1.46-.72.49-1.46.62-2.18.76-.17.03-.34.06-.45.09-.42.09-.78.1-1.14.12-.28.01-.56.02-.66.07-.21.12-.43.29-.63.49h0c-.24.24-.47.54-.67.85-.15.24-.26.49-.34.73-.08.27-.13.55-.14.84,0,.2-.02.4-.02.59v.77h-3.01Z"/>
      <path class="cls-12" d="m91.93,105.99c15.21-8.57,34.36-15.15,54.72-19.68,22.08-4.92,45.62-7.43,67.09-7.48,20.07-.04,43.44,2.05,66.31,7.16,19.28,4.31,38.21,10.77,54.54,19.89l1.34.75-.05,1.53c-.72,20.27-3.84,39.76-9.24,58.54-5.4,18.79-13.08,36.88-22.91,54.32h0c-11.03,19.57-23.7,36.89-38.36,52.34-14.66,15.45-31.31,29.05-50.33,41.19l-1.35.86-1.34-.86c-17.04-10.95-33.77-24.04-49.14-39.72-15.38-15.69-29.4-33.96-40.99-55.28-9.24-17-16.4-34.71-21.61-53.22-5.21-18.5-8.48-37.8-9.94-57.99l-.11-1.57,1.39-.79Zm124.3-22.16l-.02,100.69,99.2-.05c2.4-6.3,4.54-12.68,6.4-19.14,5.16-17.95,8.2-36.54,9-55.82-15.58-8.49-33.54-14.55-51.84-18.64-21.55-4.82-43.56-6.9-62.74-7.03h0Zm-.02,105.68l-.03,118.33c17.07-11.27,32.15-23.81,45.55-37.93,14.39-15.17,26.82-32.16,37.63-51.34h0c5.35-9.51,10.06-19.21,14.09-29.11l-97.23.05Zm-5.02,118.31l.03-118.31-97.52.05c3.72,9.42,8.02,18.61,12.9,27.6,11.35,20.87,25.08,38.78,40.16,54.16,13.93,14.21,29.02,26.26,44.44,36.5h0Zm.03-123.3l.02-100.68c-20.44.23-42.63,2.69-63.51,7.34-19.26,4.29-37.39,10.44-51.96,18.4,1.49,19.27,4.66,37.72,9.64,55.4,1.87,6.64,3.99,13.17,6.38,19.59l99.43-.05Z"/>
      <path class="cls-12" d="m215.64,231.86c2.02.92,4.03,1.76,5.99,2.34,1.92.57,3.81.88,5.64.75l.13,2c-2.09.14-4.2-.2-6.33-.83-2.09-.61-4.17-1.49-6.25-2.44l.82-1.82Z"/>
      <path class="cls-9" d="m244.43,217.82l14.77,17.83,35.3-8.95.5-.66c.51-.84,1.02-1.69,1.52-2.54l-13.12-11.14-27.85,3.85v2.93c0,.11-.09.2-.2.2h-3.58c-.11,0-.2-.09-.2-.2v-2.38l-3.67.51v.35c0,.11-.09.2-.2.2h-3.27Z"/>
      <path class="cls-9" d="m249.52,235.25l-2.82-1.71v3.28l2.83,1.52v-3.09Z"/>
      <path class="cls-9" d="m269.06,240.62l-9.24,2.15-.02,6.96,9.27-3.62v-5.48Z"/>
      <path class="cls-9" d="m241.06,248.9v-13.24c0-.73-.29-1.34-.69-1.82-.58-.7-1.37-1.14-1.93-1.29-.26-.07-.51-.1-.73-.1-.5,0-.91.16-1.23.43-.33.28-.56.67-.67,1.12-.06.22-.09.46-.09.69v11.24s5.34,2.98,5.34,2.98Z"/>
      <path class="cls-4" d="m258.3,260.77l-31.3-17.42-.52-.29v-.59s.09-5.49.09-5.49c-1.82.01-3.66-.32-5.5-.86-1.62-.48-3.25-1.12-4.87-1.82l-.02,73.55c17.07-11.27,32.15-23.81,45.55-37.93,4.82-5.09,9.43-10.38,13.82-15.88l-16.38,6.79-.45.19-.43-.24Z"/>
      <path class="cls-7" d="m226.89,232.73l15.21-15.96.77-.81h0s1.04-.15,1.04-.15v-10.71s-.03,0-.05-.01c-1.3-.26-2.6-.36-4.03-.36-.94,0-1.88.15-2.75.42-.86.28-1.68.68-2.41,1.22-1.07.78-2.09,1.68-3.1,2.59-.64.57-1.29,1.14-1.96,1.69l-.06.05c-1.32,1.08-2.71,2.24-4.37,2.96-1.58.69-3.21,1.31-4.84,1.87-1.34.46-2.76.91-4.14,1.34v15.26c1.83.82,3.64,1.57,5.43,2.09,1.68.5,3.35.8,4.97.78l.02-1.58v-.4s.27-.28.27-.28Z"/>
      <path class="cls-7" d="m247.89,206.39v8.86l3.67-.51v-7.78c-.54.02-1.12.02-1.68-.04-.62-.07-1.24-.21-1.81-.46-.06-.02-.12-.05-.18-.07h0Z"/>
      <path class="cls-7" d="m255.54,206.42v7.78l28.02-3.87.44-.06.34.29,13.2,11.2c.61-1.05,1.21-2.11,1.81-3.17h0c3.79-6.72,7.24-13.54,10.37-20.45-3.37-.57-6.8-.81-10.23-.84-3.91-.04-7.82.2-11.6.57-.46.04-.96.22-1.34.51-.21.16-.36.35-.36.55-.02.56-.04.96-.05,1.33-.03.61-.05,1.12-.05,1.7,0,.11,0,.22-.02.33-.09.91-.54,1.67-1.27,2.2-.66.48-1.54.77-2.55.77-.19,0-.39,0-.58-.02-1.05-.1-1.98-.17-2.87-.21-.9-.04-1.76-.06-2.67-.05-.92,0-1.66.13-2.31.38-.66.24-1.24.6-1.85,1.06-1.86,1.41-3.38,3.22-4.89,5.03l-.34.4c-.09.11-.19.21-.29.3-.48.4-1,.53-1.51.47-.46-.05-.88-.26-1.22-.54-.11-.1-.23-.21-.33-.32-.78-.93-1.64-1.82-2.51-2.73-.61-.64-1.23-1.29-1.81-1.92-.4-.44-.92-.92-1.43-1.15-.25-.11-.48-.16-.66-.08-.5.23-.98.41-1.44.55h0Z"/>
      <path class="cls-3" d="m233.5,204.75c.91-.66,1.92-1.16,2.98-1.5,1.09-.35,2.23-.52,3.36-.52,1.53,0,2.95.11,4.42.4.05,0,.1.02.15.03v-.15s.02-.66.02-.66c.02-.54.11-1.08.27-1.6.16-.52.38-1.02.67-1.47.3-.47.66-.94,1.09-1.37h0c.39-.39.83-.74,1.33-1,.7-.38,1.33-.4,1.97-.43.23,0,.46-.02.6-.05.22-.05.39-.08.56-.11.41-.08.82-.15,1.04-.3.11-.07.27-.32.43-.58.19-.3.38-.59.65-.9l.29-.33c.47-.55.95-1.11,1.64-1.55.64-.42,1.28-.58,1.91-.74l.34-.09h0c.33-.09.64-.12.96-.15.22-.02.44-.05.51-.08.25-.12.56-.41.86-.69l.3-.28,1.11-1.01s.08-.08.13-.11l-44.87.02v25.24c1.1-.34,2.27-.72,3.49-1.14,1.61-.55,3.21-1.15,4.69-1.8,1.4-.61,2.68-1.68,3.89-2.67l.06-.05c.64-.53,1.27-1.09,1.9-1.64,1.05-.93,2.09-1.86,3.25-2.7h0Z"/>
      <path class="cls-3" d="m254.93,197.05c-.33.52-.66,1.03-1.29,1.46-.72.49-1.46.62-2.18.76l-.45.09c-.42.09-.78.1-1.14.12-.28.01-.56.02-.66.07-.21.12-.43.29-.63.49h0c-.24.24-.47.54-.67.85-.15.24-.26.48-.34.73-.08.27-.13.55-.14.84v.59s-.01.77-.01.77h.28c.11,0,.2.09.2.2v.21c.32.13.65.27.99.42.36.16.78.25,1.21.3.47.05.96.05,1.42.02.29-.01.58-.03.85-.05.32-1.33,1.25-2.07,2.17-2.8.31-.24.6-.48.82-.72.4-.44.83-.89,1.33-1.34.5-.45,1.04-.86,1.61-1.21.52-.3,1.07-.56,1.64-.76.59-.21,1.21-.37,1.85-.48,1.09-.2,2.13-.18,3.17-.16h.68c.88.01,1.66.06,2.45.11l1,.06c.65.03,1.26.19,1.82.45.55.25,1.04.59,1.49.99,0,0,.09,0,.2,0,.31-.01.64-.12.88-.27.44-.26.83-.59,1.21-.92.26-.22.52-.45.86-.7.73-.54,1.43-1.12,2.12-1.69,1.25-1.04,2.5-2.07,3.9-2.91,1.03-.61,2.14-.73,3.16-.83l.21-.02c.45-.05.83-.07,1.21-.1.51-.04,1.03-.07,1.46-.13.16-.02.32-.07.48-.14.21-.1.42-.22.61-.36h0c.49-.38,1.09-.92,1.7-1.51h-25.06s.08.09.08.09c-.63.62-1.61,1.5-2.46,2.26l-1.09.99-.26.25c-.46.44-.94.89-1.63,1.23-.55.27-1.03.31-1.51.36-.17.02-.34.04-.47.07l-.41.1c-.38.09-.76.19-.98.33-.34.22-.68.61-1,.99l-.32.38c-.11.12-.23.32-.35.51h0Z"/>
      <path class="cls-3" d="m260.94,200.92c-.39.14-.76.31-1.11.52-.41.24-.78.54-1.14.85-.36.32-.73.71-1.09,1.12-.13.15-.27.28-.41.41.43,0,.86.11,1.28.3.82.37,1.56,1.03,2.1,1.63.6.66,1.19,1.27,1.77,1.88.9.93,1.78,1.86,2.59,2.82l.08.08c.06.05.12.09.16.09,0,0-.01,0,0-.01l.05-.05.34-.4c1.58-1.88,3.16-3.77,5.22-5.34.76-.58,1.5-1.03,2.36-1.35.86-.32,1.82-.49,3-.49.97,0,1.85.01,2.76.05.91.04,1.87.11,2.97.21.14.02.27.02.39.02.57,0,1.05-.14,1.38-.39.26-.19.43-.46.46-.77h0c0-.05,0-.09,0-.13,0-.67.02-1.18.05-1.8.02-.4.04-.83.05-1.3.03-.86.49-1.56,1.14-2.07.67-.52,1.57-.84,2.37-.92,3.84-.37,7.8-.61,11.8-.57,3.71.03,7.42.31,11.05.95,1-2.25,1.95-4.5,2.88-6.77h-18.72c-.32.3-.77.74-1.24,1.2-.99.97-2.09,2.05-2.97,2.71h0c-.36.27-.76.52-1.18.7-.41.18-.85.32-1.3.38-.59.08-1.12.12-1.66.15-.4.03-.79.05-1.11.09h0l-.21.02c-.7.07-1.46.14-1.92.42-1.23.73-2.38,1.69-3.53,2.64-.75.62-1.5,1.25-2.25,1.8-.22.16-.46.37-.71.57-.45.39-.91.78-1.6,1.19-.64.39-1.5.67-2.32.7h0c-.84.03-1.66-.19-2.3-.76-.24-.22-.48-.39-.73-.5-.23-.1-.47-.17-.73-.18l-1.04-.06c-.79-.05-1.58-.1-2.27-.1h-.71s0,0,0,0c-.89-.02-1.79-.03-2.6.12-.45.08-.91.2-1.37.37h0Z"/>
      <path class="cls-12" d="m1.32,54.08C26.32,37.9,59.15,23.9,97.49,14.2,132.55,5.33,172.27.06,214.87,0c38.36-.05,77.54,4.64,114.5,14.18,35.08,9.05,68.19,22.48,96.74,40.38l1.35.84-.08,1.57c-1.74,34.89-7.49,68.08-16.66,99.88-9.17,31.8-21.74,62.17-37.13,91.41-18.61,35.36-41.18,67.74-67.89,96.89-26.21,28.61-56.38,54.07-90.67,76.15l-1.46.94-1.47-.95c-27.34-17.69-53.81-38.28-78.71-63.45-24.91-25.17-48.24-54.91-69.3-90.9-16.49-28.18-31.13-58.44-42.33-92.82C10.57,139.71,2.81,101.19.09,56.5l-.09-1.57,1.32-.86ZM98.8,19.45C61.71,28.83,29.93,42.26,5.59,57.76c2.77,43.52,10.39,81.09,21.32,114.68,11.07,34,25.55,63.91,41.84,91.76,20.81,35.57,43.87,64.95,68.48,89.82,24.17,24.43,49.84,44.5,76.35,61.77,33.32-21.62,62.65-46.46,88.15-74.29,26.37-28.78,48.68-60.78,67.09-95.76,15.24-28.96,27.68-58.99,36.73-90.37,8.91-30.91,14.55-63.18,16.36-97.08-27.76-17.18-59.86-30.11-93.87-38.88-36.53-9.43-75.25-14.06-113.17-14.01-42.09.05-81.37,5.28-116.07,14.05h0Z"/>
      <path class="cls-9" d="m100.59,166.34c-5.21-18.5-8.48-37.8-9.94-57.99l-.11-1.57,1.39-.79c9.48-5.34,20.49-9.91,32.38-13.69v-11.22c-3.95.93-7.89,1.88-11.81,2.9-7,1.84-13.84,3.95-20.62,6.46l-3.24,1.2-.09-56.13,1.67-.54c5.06-1.64,10.1-3.32,15.21-4.82l3.07-.91.21,40.85c5.2-1.44,10.38-2.9,15.61-4.21V13.81c-8.75,1.66-17.25,3.55-25.5,5.64-12.24,3.09-23.91,6.63-34.91,10.54v225.73c1.6,2.85,3.23,5.67,4.87,8.48,17.12,29.26,35.77,54.35,55.55,76.17v-117.04c-.71-1.25-1.41-2.5-2.1-3.77-9.24-17-16.4-34.71-21.61-53.22h0Z"/>
      <path class="cls-9" d="m212.98,14.6l-.07,55.92-2.38.02c-5.22.04-10.4.06-15.62.45l-2.59.2.08-55.73,2.2-.18c5.3-.44,10.61-.54,15.92-.64l2.45-.04Zm-28.38,16.35v25.83l1.35-.07-.22,14.8-1.12.04v8.75c9.91-.96,19.73-1.46,29.14-1.48,9.79-.02,20.36.47,31.27,1.56v-7.68c-15.53-2.81-26.52-13.16-26.23-30.41.29-16.82,10.68-26.93,26.23-27.29V6.34c-10.07-.64-20.13-.96-30.14-.94-10.27.01-20.37.33-30.27.94v12.98l.13,11.63h-.13Z"/>
      <path class="cls-9" d="m239.53,43.66c.04,5.6,1.21,10.4,5.48,12.8v-25.7c-.32.14-.63.32-.93.53-3.48,2.43-4.57,8.37-4.54,12.37h0Z"/>
      <path class="cls-9" d="m212.33,314.56c-9.4-6.04-18.7-12.73-27.74-20.14v101.03c9.52,7.22,19.2,13.98,28.98,20.36,10.9-7.07,21.38-14.49,31.43-22.25v-101c-9.29,7.84-19.26,15.16-29.99,22l-1.35.86-1.34-.86Zm1.28,36.41l13.86-12.49c.95-.86,2.19-1.34,3.44-.71,1.07.54,1.52,1.6,1.52,2.74v11.52c.01,1.06-.34,2.02-1.15,2.73l-15.24,13.45c-1.69,1.49-3.22,1.08-4.79-.29l-14.9-13.03c-.91-.8-1.22-1.59-1.22-2.78v-11.82c.01-2.43,2.61-3.75,4.44-2.08l14.03,12.76Z"/>
      <path class="cls-9" d="m319.26,29.36l20.43,62.68-4.55-1.54c-5.01-1.7-9.96-3.43-15.04-4.92l-1.32-.39-1.94-7.79c-4.2-1.24-8.48-2.28-12.75-3.29v18.51c10.74,3.59,21.05,7.98,30.48,13.25l1.34.75-.05,1.53c-.72,20.27-3.84,39.76-9.24,58.54-5.33,18.55-12.88,36.41-22.53,53.64v118.56c23.34-25.88,43.43-54.32,60.41-85.16V30.72c-11.82-4.33-24.02-8.1-36.47-11.32-7.89-2.03-15.88-3.85-23.94-5.44v11.46c4.64,1.12,9.22,2.47,13.87,3.61l1.3.32Z"/>
      <path class="cls-9" d="m313.07,62.95l-3.89-14.44-3.85,12.4,7.75,2.04Z"/>
      <path class="cls-5" d="m63.89,255.72V29.99c-22.34,7.93-42,17.39-58.3,27.77,2.77,43.52,10.39,81.09,21.32,114.68,9.96,30.57,22.66,57.85,36.98,83.29h0Z"/>
      <path class="cls-5" d="m124.3,65.89c1.78-.45,3.57-.88,5.37-1.28l2.93-.66.05,15.18-1.86.44c-2.16.51-4.32,1.01-6.48,1.52v11.22c7.18-2.28,14.68-4.28,22.34-5.99,12.4-2.76,25.26-4.76,37.95-6v-8.75l-1.15.04c-6.72.26-13.38.91-20.04,1.88-7.57,1.1-15.08,2.59-22.57,4.16l-2.89.61-.09-56.07,2.01-.34c6.73-1.12,13.46-2.29,20.21-3.29,7.29-1.09,14.57-1.95,21.93-2.5l2.56-.19.04,3.46V6.33c-21.05,1.29-41.24,3.86-60.29,7.48v52.07Z"/>
      <path class="cls-5" d="m166.91,37.61c3.67-.53,7.34-.95,11.04-1.24l2.56-.2.21,15.11-2.23.2c-3.31.29-6.63.52-9.94.8-3.54.29-7.04.68-10.55,1.18v6.22c8.29-1.5,17-2.4,25.38-2.83l1.22-.06v-25.83l-2.1.17c-8.1.67-16.07,1.22-24.12,2.44l-.23.03c-.02,1.8-.05,3.59-.07,5.39,2.95-.46,5.89-.95,8.84-1.37h0Z"/>
      <path class="cls-5" d="m163.19,274.84c-14.47-14.75-27.72-31.8-38.89-51.5v117.04c4.26,4.7,8.57,9.25,12.93,13.65,15.24,15.41,31.09,29.08,47.36,41.42v-101.03c-7.35-6.03-14.52-12.54-21.41-19.58h0Zm-15.49.79c2.49,1.86,5.04,4.08,7.16,6.37,11.7,12.64,17.32,22.81,21.03,39.71.73,3.36-3.05,5.14-4.98,2.44l-12.83-12.69-.13-.75c-1.1-6.25-3.03-8.85-7.47-13.21-.36-.35-1.21-1.05-1.86-1.36-.01.18-.02.36-.01.47.03,3.51,3.22,7.93,5.27,10.65,2.84,3.75,5.68,7.51,8.45,11.3,2.05,2.79,4.08,5.62,5.99,8.51,4.31,6.55,7.67,14.1,9.22,21.8.95,4.74,1.53,11.48-.61,15.98-.94,1.98-2.4,3.62-4.56,4.27-5.74,1.73-13.04-5.07-16.99-8.67-13.52-12.33-21.8-26.95-25.56-44.95-.3-1.46-.19-3.08,1.39-3.81,1.28-.59,2.52.01,3.44.9l13.63,13.18v1.02c0,2.79,2.17,7.02,3.62,9.34,1.3,2.09,2.97,4.31,4.83,5.93.48.42,2.21,1.77,2.92,1.58.03,0,.05-.02.07-.03.03-.02.06-.04.08-.07.3-.48-.14-2.07-.31-2.55-.62-1.86-1.69-3.77-2.72-5.43-1.75-2.83-3.82-5.64-5.95-8.19-5.8-6.95-11.12-14.54-15.23-22.62-4.24-8.34-8.07-21.71-3.7-30.6.56-1.14,1.41-2.07,2.55-2.65,4.18-2.12,10,1.67,13.27,4.11h0Z"/>
      <path class="cls-5" d="m297.73,291.77c-.45,20.96-7.71,42.52-22.47,57.76l-19.51,20.14c-.86.92-2.05,1.52-3.33,1.07-1.4-.49-1.91-1.82-1.88-3.14l.05-67.34c0-1,.29-1.86,1-2.58l20.56-20.81c4.07-4.12,12.42-12.14,18.91-9.18,3.4,1.55,4.89,5.45,5.64,8.86,1.06,4.8,1.14,10.31,1.03,15.21h0Zm-52.72.78v101c20.67-15.95,39.57-33.32,56.72-52.05.79-.86,1.58-1.73,2.37-2.6v-118.56c-.12.23-.25.45-.38.67h0c-11.03,19.57-23.7,36.89-38.36,52.34-6.4,6.74-13.16,13.12-20.34,19.19h0Z"/>
      <path class="cls-5" d="m269.87,334.5c7.65-8.07,10.3-18.59,10.33-29.49,0-2.6-.08-5.48-.63-8.03-.17-.8-.74-2.97-1.58-3.38-1.27-.61-4.77,2.59-5.52,3.31-1.37,1.34-2.87,2.55-4.13,4-.06.12-.07.32-.06.44v.11s.04,34.68.04,34.68l1.55-1.64Z"/>
      <path class="cls-5" d="m279.25,76.2l20.54-51.75,2,.45c.77.17,1.54.35,2.3.53v-11.46c-19.42-3.83-39.26-6.37-59.09-7.63v8.68c1.6-.04,3.25.03,4.95.2,11.18,1.14,20.67,7.3,25.6,17.49,2.16,4.47,3.27,9.41,3.27,14.38,0,7.27-1.76,14.72-7.14,19.93-5.85,5.67-14.16,6.94-21.99,6.3-1.6-.13-3.17-.33-4.69-.61v7.68c11.47,1.15,23.32,2.98,35.04,5.59,8.14,1.82,16.21,4.02,24.05,6.64v-18.51c-.91-.21-1.82-.43-2.73-.64l-2.24,6.5-2.06-.41c-4.96-.98-9.9-2.02-14.89-2.88l-2.93-.5Z"/>
      <path class="cls-5" d="m249.3,57.86c6.95,1.07,9.2-6.7,9.23-12.18.04-6.98-2.1-14.57-10.1-15.41-1.2-.13-2.36,0-3.42.48v25.7c1.18.66,2.6,1.14,4.29,1.41h0Z"/>
      <path class="cls-5" d="m364.51,30.72v223.02c1.46-2.65,2.89-5.32,4.31-8,15.24-28.96,27.68-58.99,36.73-90.37,8.91-30.91,14.55-63.18,16.36-97.08-17.59-10.89-36.93-20.07-57.4-27.57h0Z"/>
      <path class="cls-12" d="m145.7,132.3c1.86-.79,2.95-2.18,3.23-4.73-1.08,1.58-2.15,3.16-3.23,4.73h0Z"/>
      <path class="cls-10" d="m243.05,235.65v14.35s14.74,8.2,14.74,8.2l.04-21.06-15.06-18.18-14.16,14.86-.12,8.07,5.22,2.91v-10.13c0-.41.06-.82.16-1.19.22-.84.67-1.59,1.32-2.14.66-.56,1.51-.9,2.52-.9.4,0,.81.05,1.24.17.87.23,2.09.89,2.97,1.95.66.81,1.14,1.84,1.14,3.09h0Zm7.33,5.26c-.18,0-.37-.04-.56-.15l-4.36-2.34c-.09-.05-.21-.11-.32-.21h0c-.26-.22-.45-.51-.45-.92v-5.21c0-.22.08-.46.19-.64.08-.13.18-.25.3-.34.19-.15.42-.23.67-.23.19,0,.38.05.57.16l4.39,2.66.05.03c.34.19.65.37.65,1.04l.02,4.93c0,.19-.05.43-.15.62-.07.14-.18.27-.33.38-.19.14-.41.23-.67.23h0Z"/>
      <path class="cls-10" d="m271.06,239.61v7.05h.01c0,.39-.16.68-.42.89h0c-.14.12-.28.19-.42.24l-10.43,4.08v6.53s18.27-7.58,18.27-7.58c5.32-6.89,10.32-14.12,15.05-21.71l-33.29,8.44v3.15s9.81-2.28,9.81-2.28h0c.09-.02.17-.03.25-.03.32,0,.6.13.81.34h0c.16.16.28.37.33.59.02.09.04.19.04.27h0Z"/>
    </g>
  </g>
</svg>