<?xml version="1.0" encoding="UTF-8"?>
<svg id="Layer_2" data-name="Layer 2" xmlns="http://www.w3.org/2000/svg" viewBox="0 0 910.13 1139.4">
  <defs>
    <style>
      .cls-1 {
        fill: #0d160e;
      }

      .cls-1, .cls-2, .cls-3, .cls-4, .cls-5, .cls-6, .cls-7, .cls-8, .cls-9, .cls-10, .cls-11, .cls-12, .cls-13, .cls-14, .cls-15, .cls-16, .cls-17, .cls-18, .cls-19, .cls-20, .cls-21, .cls-22, .cls-23, .cls-24, .cls-25, .cls-26 {
        stroke-width: 0px;
      }

      .cls-2 {
        fill: #0f170e;
      }

      .cls-3 {
        fill: #0e170e;
      }

      .cls-4 {
        fill: #0e160e;
      }

      .cls-5 {
        fill: #0c150e;
      }

      .cls-6 {
        fill: #0d150e;
      }

      .cls-7 {
        fill: #131a0f;
      }

      .cls-8 {
        fill: #10180e;
      }

      .cls-9 {
        fill: #11180e;
      }

      .cls-10 {
        fill: #12190f;
      }

      .cls-11 {
        fill: #12190e;
      }

      .cls-12 {
        fill: #d7af20;
      }

      .cls-13 {
        fill: #dbb121;
      }

      .cls-14 {
        fill: #dbb220;
      }

      .cls-15 {
        fill: #e0001e;
      }

      .cls-16 {
        fill: #dab220;
      }

      .cls-17 {
        fill: #dab120;
      }

      .cls-18 {
        fill: #a4881c;
      }

      .cls-19 {
        fill: #806d19;
      }

      .cls-20 {
        fill: #fefefe;
      }

      .cls-21 {
        fill: #ecd78f;
      }

      .cls-22 {
        fill: #e7cb6c;
      }

      .cls-23 {
        fill: #f5eac4;
      }

      .cls-24 {
        fill: #038;
      }

      .cls-25 {
        fill: #003387;
      }

      .cls-26 {
        fill: #013387;
      }
    </style>
  </defs>
  <g id="Layer_1-2" data-name="Layer 1">
    <g>
      <path class="cls-22" d="m0,704.19v-23.99c.66-.3,1.19-.14,1.58.47,1.5,7.68,1.5,15.37,0,23.06-.4.61-.93.76-1.59.47Z"/>
      <path class="cls-21" d="m.85,680.14c-.29,0-.57.02-.85.06v-9c.63-.31,1.14-.17,1.54.41,1.1,2.95,1.59,5.85-.69,8.53Z"/>
      <path class="cls-23" d="m0,704.19c.31,0,.61.03.92.08,1.73,2.01,1.77,4-.07,5.97h-.43s-.42-.05-.42-.05v-6Z"/>
      <path class="cls-23" d="m.83,671.13c-.28-.02-.56,0-.83.07v-6c.28-.05.56-.07.85-.05,1.82,2,1.84,3.99-.02,5.98Z"/>
      <path class="cls-13" d="m251.43,34.83c4.3,2.03,8.67,4,12.95,6.15,2.17,1.09,3.76,1.11,5.66-.8,3.96-3.96,8.24-7.6,12.99-11.91,1.36,10.18,2.61,19.55,3.87,28.92.64,4.78,1.49,9.55,1.87,14.35.23,2.89,1.48,3.33,3.86,2.66,2.08-.59,4.16-1.2,6.26-1.71,10.9-2.65,10.75-2.63,9.86-14.36-.8-10.42-1.2-20.86-1.81-32.01,5.42,2.4,10.3,4.41,15.03,6.73,2.16,1.06,3.51.8,5.21-.86,4.02-3.92,8.26-7.61,13.11-12.03.53,8.44,1.02,16,1.49,23.56.35,5.65.79,11.29.96,16.94.08,2.63,1.09,2.93,3.4,2.47,4.73-.93,9.49-1.85,14.28-2.23,3.38-.27,3.98-1.76,3.95-4.74-.13-12.49.09-24.99-.14-37.48-.07-4.12,1.12-4.28,4.47-2.87,5.62,2.37,11.26,7.33,16.94,6.21,5.4-1.07,9.98-6.27,14.92-9.65,1.08-.74,2.18-1.43,4.35-2.85,0,8.23-.02,15.59,0,22.95.02,6.5.26,13,.07,19.49-.09,3.2,1.04,4.02,4.04,3.75,5.97-.52,11.96-.98,17.94-1.04,3.25-.03,4.19-1.03,4.15-4.28-.17-14.83-.07-29.65-.07-44.48V0c6.97,4.17,13.29,7.76,19.4,11.68,2.48,1.59,4.3,1.49,6.72-.06,6-3.87,12.19-7.45,18.3-11.14,1.77,1.44.99,3.23,1,4.74.07,14.66.12,29.32-.02,43.98-.03,3.13.7,4.44,4.11,4.39,4.64-.08,9.34.17,13.93.82,4.71.67,5.52-1.38,5.47-5.49-.15-12.82.02-25.65.09-38.48,0-1.27.14-2.54.27-4.85,5.53,4.31,10.45,7.89,15.06,11.84,2.3,1.97,4.08,2.06,6.62.57,4.54-2.68,9.29-5.03,14.74-7.95v27.97c0,4,0,8,0,12,0,8.26,0,8.24,8.39,9.25,3.8.46,7.67.68,11.35,1.64,3.83.99,5.03-.23,5.25-3.92.62-10.63,1.45-21.25,2.2-31.88.22-3.12.15-6.29,1.34-9.82,3.85,3.51,7.75,6.61,11.08,10.24,2.77,3.01,5.21,3.23,8.67,1.31,3.88-2.14,8.09-3.71,12.94-5.88-.51,8.61-.94,16.49-1.47,24.37-.42,6.31-.9,12.61-1.46,18.91-.22,2.47.19,3.82,3.14,4.38,6.04,1.13,12.01,2.71,17.91,4.42,3.57,1.04,4.56-.02,4.86-3.59,1.21-14.41,2.72-28.79,4.22-44.22,4.45,4.45,8.51,8.25,12.24,12.35,1.91,2.1,3.48,2.34,5.96,1.06,3.82-1.97,7.85-3.51,12.14-5.39.87,2.17.39,4.13.21,5.97-1.38,13.74-2.73,27.49-4.4,41.19-.34,2.79.22,4.26,2.57,5.63,2.45,1.44,4.34,3.63,5.75,6.14,4.58,8.17.9,16.26-8.67,17.89-4.04.69-5.41,2.43-6.38,6.09-3.3,12.37-6.99,24.63-10.51,36.94-.54,1.89-.89,3.37.88,5.31,7.94,8.66,4.11,20.8-7.26,23.74-.32.08-.68.06-.98.18-2.87,1.17-7.02-.64-8.72,2.05-1.55,2.46-1.31,6.08-1.74,9.21-.88,6.43-1.77,12.86-2.46,19.31-.34,3.18-1.46,4.81-4.93,5.64-25.14,5.99-50.65,9.65-76.28,12.51-32.63,3.63-65.35,5.49-98.19,3.85-37.56-1.88-75.12-3.64-112.45-8.58-13.92-1.84-14.02-1.68-16.37-15.28-1.39-8.03-2.59-16.09-3.66-24.17-.43-3.26-1.6-5.13-4.99-6.38-9.91-3.67-11.97-11.18-5.51-19.59,1.43-1.86,1.3-3.02.35-4.78-7.49-13.92-14.97-27.84-22.32-41.82-1.15-2.2-2.44-3.27-4.98-3.08-1.45.11-2.96-.37-4.41-.71-5.25-1.25-9.78-3.41-11.24-9.27-1.48-5.98,1.02-10.7,5.58-13.92,3.55-2.5,3.74-5.02,3.06-8.82-2.33-13.1-4.3-26.26-6.35-39.4-.2-1.26-.67-2.61.33-4.28Z"/>
      <path class="cls-13" d="m.83,671.13c0-1.99.01-3.99.02-5.98,6.46-108.59,45.97-203.43,119.89-283.23,69.24-74.75,154.59-121.5,255.03-138.49,135.38-22.9,258.13,8.3,365.6,93.68,86.12,68.42,140.39,157.84,160.32,266.18,25.97,141.14-8.03,267.8-100.59,377.29-69.69,82.43-159.44,131.93-265.58,151.6-34.37,6.37-69.07,8.49-103.92,6.51-97.07-5.53-184.37-37.74-260.45-98.37-83.15-66.26-136.44-151.73-160.15-255.48-5.61-24.55-8.84-49.44-10.14-74.58.02-1.99.05-3.98.07-5.97-.02-8.04-.04-16.09-.06-24.13,0-3-.02-6-.02-9.01Z"/>
      <path class="cls-5" d="m455.23,86.93c60.83-1.42,120.29,8.3,179.14,22.7,2.36.58,3.59,1.05,2.69,4.14-3.62,12.45-6.92,24.99-10.18,37.53-.67,2.56-1.61,2.88-4.17,2.4-41.29-7.87-83.01-11.61-125.01-12.56-54.68-1.24-109.11,1.88-163.28,9.38-10.04,1.39-19.99,3.42-29.92,5.46-3.13.64-4.76.14-6.28-2.82-6.9-13.47-13.96-26.86-21.18-40.15-1.77-3.27-.98-4.02,2.34-4.83,46.82-11.44,94.21-19.07,142.4-21.17,11.13-.49,22.3-.07,33.45-.07Z"/>
      <path class="cls-5" d="m472.45,62.04c52.47,1.05,107.5,8.51,161.31,24.26,2.86.84,5.7,1.84,8.44,2.99,4.63,1.95,6.73,5.68,5.49,9.32-1.2,3.54-5.42,5.38-10,4.24-25.33-6.32-50.85-11.72-76.63-15.86-25.81-4.14-51.76-6.71-77.89-7.9-37.01-1.68-73.85.09-110.6,4.37-32.9,3.83-65.37,10.1-97.52,18.08-.65.16-1.26.43-1.91.57-5.31,1.09-9.27-.36-10.19-3.72-1-3.64,1.42-7.73,6.47-9.35,8.85-2.83,17.82-5.38,26.83-7.65,35.26-8.89,71.16-13.68,107.39-16.25,21.75-1.55,43.5-2.72,68.82-3.11Z"/>
      <path class="cls-5" d="m622.07,176.15c-18.85-2.2-36.69-4.37-54.56-6.34-28.62-3.16-57.27-5.87-86.09-6.72-45.9-1.35-91.45,2.74-136.94,8.05-11.41,1.33-22.8,2.76-34.21,4.01-2.96.32-6.01.37-8.97.07-3.35-.33-6.58-2.04-6.85-5.52-.28-3.56,2.76-5.58,6.05-6.29,6.83-1.48,13.67-3,20.58-3.98,42.07-5.93,84.38-8.86,126.82-10.6,39.34-1.62,78.57-.47,117.71,3.6,19.04,1.98,38,4.49,56.68,8.79,3.36.77,6.53,1.82,7.69,5.49,1.69,5.37-2.48,9.69-7.91,9.45Z"/>
      <path class="cls-5" d="m454.06,171.15c38.7-.26,75.33,2.87,111.9,6.87,13.56,1.48,27.12,3.04,40.7,4.24,3.82.34,4.77,1.7,4.23,5.29-1.2,7.89-2.21,15.82-3.09,23.75-.31,2.78-1.63,3.17-4,2.83-23.71-3.46-47.46-6.6-71.37-8.23-42.7-2.91-85.4-4.45-128.13.09-29.14,3.1-58.04,7.55-86.68,13.69-2.51.54-3.46.45-3.82-2.44-1.35-10.72-2.92-21.42-4.59-32.1-.41-2.62.31-3.49,2.91-3.83,26.89-3.59,53.86-6.33,80.93-8.02,20.93-1.3,41.88-2.29,60.99-2.14Z"/>
      <path class="cls-5" d="m373.04,220.45c22.89-3.3,45.84-6.3,68.97-6.97,37.63-1.1,75.2.06,112.59,4.77.59.07,1.17.23,2.75.55-6.03,2.37-11.53,2.53-16.85,3.2-17.67,2.23-35.44,3.21-53.24,3.75-29.13.89-58.22.31-87.29-1.48-9.3-.57-18.57-1.43-27.86-2.15-.74-1.15.3-1.29.93-1.67Z"/>
      <path class="cls-5" d="m469.05,12.71c0,13.36-.03,25.76.03,38.15,0,2.02-.91,2.48-2.72,2.5-8.3.08-16.6.19-24.9.43-2.59.07-3.46-.88-3.44-3.46.1-11.3.09-22.59,0-33.89-.02-2.78.53-3.82,3.28-2.05,3.07,1.98,6.33,3.65,9.34,5.71,2.24,1.53,4.08,1.51,6.32.01,3.67-2.45,7.51-4.62,12.08-7.39Z"/>
      <path class="cls-5" d="m397.92,24.05c0,9.47-.1,18.93.06,28.39.05,2.82-.52,4.12-3.64,4.33-6.62.45-13.23,1.19-19.8,2.11-2.51.35-2.79-.68-2.79-2.64.03-9.47.06-18.94,0-28.41-.02-2.58,1.04-2.89,2.97-1.7,8.09,5,15.7,5.54,22.3-3.93.3.61.6,1.23.91,1.84Z"/>
      <path class="cls-6" d="m507.91,19.89c6.39,8.82,13.49,9.23,21.81,1.19,0,12.48,0,23.34,0,34.2,0,2.03-1.32,1.94-2.71,1.81-5.95-.59-11.88-1.27-17.84-1.72-2.18-.16-2.29-1.37-2.29-2.99.02-10.42,0-20.84,0-31.26.34-.41.68-.82,1.01-1.23Z"/>
      <path class="cls-5" d="m571.41,29.66c5.06,9.91,11.57,6.79,18.71,2.33-.81,12.09-1.55,23.1-2.3,34.29-5.78-1.04-11.14-2.05-16.53-2.95-1.97-.33-2.9-1.14-2.72-3.29.77-9.69,1.44-19.38,2.15-29.08.23-.43.46-.87.7-1.3Z"/>
      <path class="cls-5" d="m277.7,42.79c1.46,10.72,2.71,20.42,4.15,30.09.44,2.94-.15,4.57-3.34,5.25-3.55.75-6.98,2.05-10.49,3.06-1.49.43-2.83.73-3.19-1.62-1.53-9.99-3.22-19.96-4.8-29.94-.16-.99-.14-3.21,1.4-2.01,7.14,5.58,11.24.06,16.26-4.83Z"/>
      <path class="cls-5" d="m630.96,40.53c4.77,7.81,9.93,9.47,17.09,2.67-1.48,13.92-2.76,25.94-4.07,38.3-3.39-1.14-6.2-2.1-9.02-3.04q-7.77-2.58-6.93-10.39c.92-8.56,1.82-17.13,2.92-27.54Z"/>
      <path class="cls-5" d="m314.77,37.1c7,4.15,13.32,7.78,18.56-1.87l.65,1.42c.59,8.52,1.17,17.04,1.78,25.56.14,1.88-.81,2.69-2.53,3.01-4.73.88-9.46,1.73-14.15,2.78-2.15.48-2.97.05-3.05-2.29-.31-9.11-.79-18.22-1.26-28.6Z"/>
      <path class="cls-19" d="m373.04,220.45c-.31.56-.62,1.11-.93,1.67-.93.21-2.64.26-2.53-.32.33-1.82,2.01-1.6,3.47-1.35Z"/>
      <path class="cls-5" d="m902.41,687.72c-2,121.13-44.19,225.78-129.64,312.13-66.54,67.23-146.98,109.55-240.16,124.68-144.75,23.5-273.08-13.69-382-112.34-72.8-65.94-118.42-148.45-135.02-245.21-24.76-144.42,12.84-272.03,111.58-380.31,66.16-72.55,148.91-117.85,245.49-134.77,143.08-25.06,271,9.77,380.71,105.54,72.44,63.24,118.23,143.1,139.04,237.06,6.79,30.65,9.96,61.74,10,93.24Z"/>
      <path class="cls-14" d="m406.91,115.43c0-3.5.14-7-.05-10.48-.14-2.66.4-4.93,2.35-6.76,1.79-1.67,2.77-5.96,5.21-4.73,3.36,1.69,7.3,3.98,7.13,9.22-.26,7.81-.18,15.65-.01,23.47.06,3-1,3.97-3.97,4.21-10.68.88-10.67,1-10.67-9.93v-4.99Z"/>
      <path class="cls-17" d="m374.92,121.5c0,3.99-.15,7.99.05,11.97.13,2.62-1,3.37-3.39,3.7-11.25,1.54-11.25,1.6-11.25-9.52,0-4.49.15-8.99-.05-13.47-.14-3.17.4-5.97,2.74-8.18,1.69-1.6,2.92-5.72,4.81-4.6,3.2,1.89,7.64,3.74,7.15,9.12-.33,3.63-.06,7.31-.06,10.97Z"/>
      <path class="cls-16" d="m540.89,121.19c0-3.65.01-7.29,0-10.94,0-1.67-.14-3.32,1.61-4.37,2.31-1.39,4.37-5.72,6.35-4.41,3.2,2.1,6.57,5.48,6.78,9.86.36,7.61.07,15.24.12,22.86.01,1.93-.67,2.82-2.66,2.36-.16-.04-.33-.05-.49-.05q-11.71-.34-11.71-15.3Z"/>
      <path class="cls-14" d="m509.05,116.02v3.99c0,10.72-1.44,11.74-12,8.9-1.85-.5-2.34-1.41-2.33-3.14.05-7.81-.09-15.62.06-23.43.08-4.36,4.33-5.49,6.88-7.88.9-.84,1.66.58,2.27,1.29,3.17,3.67,6.11,7.36,5.18,12.8-.41,2.42-.07,4.97-.07,7.47Z"/>
      <path class="cls-14" d="m468.06,112.97c0,3.32,0,6.64,0,9.97,0,.83.33,1.93-.08,2.45-3.09,4-7.46,1.12-11.19,1.89-1.88.39-3.1-.21-3.07-2.59.1-7.64-.09-15.28.09-22.92.1-4.07,3.63-6.16,6.16-8.61,1.29-1.25,7.97,5.13,8.06,7.86.13,3.98.03,7.97.04,11.96Z"/>
      <path class="cls-17" d="m305.93,136.45c-1.12-7.4.51-14.03,4.96-20.15,1.73-2.39,2.38-2.05,4.31-.23,4.82,4.53,5.03,10.07,5.57,16.2.74,8.46-2.04,13.02-10.07,15.64-3.9,1.27-5.29,1.69-4.83-2.99.27-2.8.05-5.64.05-8.46Z"/>
      <path class="cls-17" d="m603.52,109.39c3.76,5.16,7.39,10.09,6.62,17.11-.54,4.93-.21,9.97-.07,14.96.09,3.11-.14,4.64-4.05,3.2-7.91-2.91-7.99-2.68-7.99-11.21v-7.99q0-8.51,5.5-16.07Z"/>
      <path class="cls-12" d="m438.31,186.48q0-12.35,12.34-12.35,11.86,0,11.86,11.83,0,12.94-12.34,12.94-11.86,0-11.86-11.92v-.5Z"/>
      <path class="cls-16" d="m476.87,199.24q-11.93-.14-11.82-12.09.12-12.74,12.61-12.7,11.47.04,11.39,11.26c-.02,2-.08,3.99-.14,5.99q-.23,7.82-8.05,7.55c-1.33-.05-2.66,0-3.99,0Z"/>
      <path class="cls-16" d="m528.8,177.41c5.47.37,10.43.81,15.41,1.01,2.6.11,3.98.79,3.68,3.79-.6,5.95-.99,11.92-1.36,17.89-.13,2.18-.67,3.35-3.24,3.1-5.95-.59-11.92-.99-17.89-1.39-2.61-.18-3.24-1.35-2.92-3.92.63-5.1,1.18-10.26,1.16-15.39-.02-4.27,1.07-6.38,5.16-5.1Z"/>
      <path class="cls-16" d="m325.07,212.16c-2.24.53-2.81-.71-3.1-2.67-.89-6.06-1.86-12.12-2.94-18.15-.41-2.33.42-3.31,2.67-3.64,6.07-.87,12.14-1.73,18.17-2.83,2.45-.45,2.77.72,3.05,2.61.88,5.9,1.86,11.78,2.88,17.66.44,2.54.01,3.9-3.05,4.24-5.92.65-11.78,1.82-17.68,2.78Z"/>
      <path class="cls-16" d="m600.95,210.43c-6.63-.88-12.53-1.72-18.45-2.42-2.48-.3-2.86-1.67-2.53-3.79.94-6.05,1.89-12.11,2.66-18.18.26-2.02.78-2.97,3.05-2.6,6.04.99,12.1,1.93,18.18,2.64,2.4.28,3.04,1.09,2.64,3.48-1,5.87-1.85,11.78-2.56,17.69-.29,2.44-.9,3.94-2.99,3.18Z"/>
      <path class="cls-16" d="m369.46,180.25c2.47-.73,3.34.52,3.61,3.31.57,5.94,1.4,11.86,2.38,17.74.37,2.18-.11,2.94-2.29,3.21-6.25.77-12.48,1.73-18.71,2.63-1.49.21-2.48.03-2.71-1.85-.83-6.58-1.77-13.14-2.75-19.7-.35-2.32.97-2.85,2.81-3.08,5.76-.71,11.51-1.46,17.66-2.24Z"/>
      <path class="cls-14" d="m577.11,186.52c-.76,6.15-1.56,11.42-2,16.72-.21,2.53-.93,3.52-3.6,3.17-6.1-.82-12.22-1.47-18.35-2.06-1.74-.17-2.33-.9-2.14-2.54.75-6.44,1.48-12.89,2.19-19.33.23-2.04,1.09-2.78,3.32-2.46,5.27.75,10.57,1.3,15.87,1.74,3.65.3,6.35,1.07,4.7,4.78Z"/>
      <path class="cls-16" d="m396.86,177.29c3.63-1,5.38.29,5.4,4.92.02,5.29.93,10.58,1.58,15.85.27,2.22-.18,3.29-2.73,3.47-5.96.41-11.91,1.12-17.85,1.78-2.19.24-3.27-.23-3.44-2.8-.37-5.8-.97-11.59-1.8-17.34-.48-3.34.83-4.38,3.9-4.56,4.81-.29,9.6-.83,14.94-1.31Z"/>
      <path class="cls-16" d="m417.33,200.1q-8.22.31-8.59-6.29c-.26-4.63-.35-9.28-.91-13.88-.42-3.46,1-4.25,4.1-4.31,5.46-.11,10.92-.48,16.36-.93,2.51-.21,3.55.47,3.61,3.15.14,5.79.43,11.59.98,17.36.32,3.36-.83,4.24-4.07,4.2-4.29-.06-8.59.5-11.49.7Z"/>
      <path class="cls-16" d="m518.79,184.73c-.3,4.48-.67,8.95-.86,13.43-.08,1.78-.39,2.81-2.52,2.66-5.97-.42-11.94-.73-17.92-1.04-2.46-.13-3.91-.76-3.63-3.8.56-5.95.83-11.94,1.04-17.92.09-2.51,1.25-3.02,3.48-2.86,5.97.43,11.94.8,17.92,1.01,2.22.08,2.88.92,2.66,3.04-.18,1.81-.04,3.65-.04,5.48-.05,0-.09,0-.14,0Z"/>
      <path class="cls-13" d="m400.92,263.29c-7.39,7.68-17.41,8.26-26.99,9.84-2.84.47-4.34,1.5-5.16,4.37-1.76,6.17-3.93,12.23-5.87,18.14.47.43.57.57.71.64,1.84.9,5.31-2.3,5.41.64.1,2.73-1.56,6.29-5.67,7.17-13.02,2.79-25.74,6.66-38.33,11-56.45,19.44-106.18,49.86-148.84,91.62-55.98,54.8-92.41,120.58-109.56,197-4.01,17.87-6.47,35.96-7.84,54.27-2.01,27-1.49,53.86,2.07,80.68,9.15,68.95,34.49,131.38,76.83,186.53,60.19,78.38,138.88,128.8,235.66,148.23,124.71,25.03,237.84-2.75,336.65-83.12,70.63-57.45,114.86-132,134.33-220.97,6.92-31.65,9.42-63.7,8.1-96.19-4.01-99.22-40.53-184.66-108.57-256.52-53.83-56.85-119.37-93.97-195.49-112.23-5.29-1.27-8.11-3.75-9.16-8.81,2.51-1.02,4.79,1.01,8.09.54-2.38-7.21-4.66-14.2-7-21.17-.43-1.27-1.64-1.46-2.84-1.66-3.61-.61-7.2-1.82-10.8-1.85-8.32-.07-14.06-4.95-20.88-10.13,12.15,1.23,23.22,3.12,34.25,5.25,166.47,32.16,301.82,161.85,337.21,327.21,31.43,146.86-4.91,277.09-106.54,387.62-63.48,69.04-143.12,111.12-235.23,128.33-93.5,17.47-183.55,5.23-269.5-35.72-46.32-22.07-87.35-51.7-122.88-88.67-60.59-63.05-99.1-137.61-114.14-223.85-16.17-92.67-2.78-181.25,38.98-265.47,21.19-42.75,49.07-80.8,83.27-114.03,59.34-57.63,129.53-95.45,210.28-113.55,12.31-2.76,24.7-5.12,37.29-6.27,1.1-.34,2.26-.81,2.16,1.13Z"/>
      <path class="cls-13" d="m360.5,319.54c.15.66.27.98.28,1.29.3,9.46-4.45,12.94-13.57,15.96-136.14,45.09-224.14,136.64-254.24,277.2-26.31,122.86,6.78,232.46,92.18,324.73,57.2,61.8,128.75,99.01,212.09,111.34,117.53,17.38,221.55-13.71,309.75-93.3,62.66-56.54,100.98-127.58,113.8-211.15,17.05-111.14-11.23-210.34-83.87-296.1-48.2-56.91-109.21-94.73-180.94-115.22-2.02-.58-5.1-.21-5.78-2.21-1.26-3.73-2.05-7.81-1.99-11.72.04-2.27,2.59-.79,3.96-.45,19.38,4.93,38.33,11.18,56.54,19.42,105.73,47.84,178.2,126.26,212.95,237.21,29.46,94.04,21.89,186.49-20.8,275.39-37.38,77.85-95.55,135.89-172.45,174.96-43.62,22.16-89.99,35.53-138.83,39.33-112.57,8.75-211.5-24.03-295.11-100.02-64.27-58.4-104.03-131.19-117.4-217.05-18.85-121,13.65-227.57,95.74-318.3,50.57-55.89,113.55-92.11,186.43-111.16.32-.08.66-.08,1.24-.15Z"/>
      <path class="cls-20" d="m335.76,354.68v19.29c0,24.99,0,49.98,0,74.97,0,55.18,37.54,102.15,91.3,114.22,64.01,14.37,126.06-24.38,141.21-88.22,1.93-8.12,2.8-16.38,2.79-24.75-.04-30.82.05-61.65-.09-92.47-.02-4.08.6-5.18,4.82-3.55,122.61,47.24,201.98,133.81,229.1,262.64,24.73,117.47-6.2,222.39-87.34,311.13-54.45,59.55-122.56,96.18-202.21,108.74-115.48,18.22-217.87-11.72-304.43-90.66-60.27-54.97-97.17-123.71-108.87-204.63-16.29-112.65,14.88-211.41,91.82-295.19,38.1-41.49,84.49-71.18,137.31-90.75,1.33-.49,2.65-1.56,4.58-.78Z"/>
      <path class="cls-13" d="m544.9,405.2c0,22.32.41,44.64-.09,66.95-.94,42.18-30.18,75.35-72.06,81.91-28.86,4.52-55.75-.36-78.93-19.2-19.82-16.12-29.52-37.58-29.77-62.83-.45-44.13-.16-88.28-.11-132.41.04-40.18,27.56-74.41,67.45-83.14,32.91-7.2,63.03-1.38,88.03,22.34,18.29,17.35,25.74,39.49,25.64,64.43-.08,20.65-.02,41.31-.02,61.96-.05,0-.1,0-.14,0Z"/>
      <path class="cls-18" d="m400.92,263.29c-.44-.91-1.38-.87-2.16-1.13,1.24-1.09,2.73-.72,4.47-.94-.41,1.45-1.28,1.85-2.31,2.07Z"/>
      <path class="cls-9" d="m455.38,186.35c1.1,4.34-.98,5.13-4.99,5.26-4.31.14-4.61-1.7-4.77-5.21-.18-4.13,1-5.28,5.18-5.27,4.14.02,5.43,1.34,4.58,5.22Z"/>
      <path class="cls-10" d="m481.95,186.8c.52,3.57-.12,5.65-4.79,5.53-4.74-.12-5.26-2.17-5.23-6.12.03-4.1,1.71-4.9,5.42-4.88,4.07.02,5.44,1.58,4.6,5.47Z"/>
      <path class="cls-8" d="m539.87,190.1c1.07,4.91-1.45,5.47-5.75,5.38-4.24-.08-4.72-2.04-4.02-5.2.51-2.31-1.04-6.43,4.03-5.33,2.86.62,7.95-1.26,5.74,5.15Z"/>
      <path class="cls-2" d="m334.03,192.81c4.98.42,3.07,4.85,3.53,7.16,1.14,5.72-4.35,3.64-6.51,3.85-5.6.55-3.4-4.89-3.68-7.28-.57-4.78,4.34-2.18,6.66-3.73Z"/>
      <path class="cls-8" d="m593.56,202.34c-1.9-1.06-6.76,1.06-5.42-4.17.58-2.29-1.58-7.06,3.35-6.47,2.25.27,7.39-1.79,6.77,3.46-.3,2.47,1.99,7.89-4.69,7.18Z"/>
      <path class="cls-8" d="m360.82,188.37c8.56-.66,6.25,4.75,6.48,7.18.47,5.08-4.61,3.16-6.89,3.35-4.85.42-2.55-4.29-3.19-6.61-.9-3.26.16-3.77,3.61-3.92Z"/>
      <path class="cls-8" d="m569,193.68c1.19,5.42-2.44,4.99-6.73,4.72-4.11-.25-3.74-2.71-3.08-5.09.62-2.27-1.2-6.57,4.42-5.44,5.86,1.18,5.94.8,5.39,5.81Z"/>
      <path class="cls-8" d="m395.59,189.73c1.81,6.73-2.66,5.2-5.61,5.72-5.48.97-3.48-3.31-4.04-5.71-1.46-6.24,3.68-4.39,6.43-4.86,5.21-.88,2.46,3.71,3.22,4.84Z"/>
      <path class="cls-7" d="m420.07,182.44c7.6-1.22,4.96,4.5,5.2,7.13.46,5.02-4.21,3.03-6.53,3.19-5.41.37-2.95-4.29-3.48-6.79-1.09-5.19,3.29-2.95,4.81-3.53Z"/>
      <path class="cls-11" d="m501.66,187.52c-1.19-4.9,1.72-5.17,6.13-4.95,5.03.24,3.52,3.36,3.73,6.14.46,5.9-3.59,4.44-6.84,4.47-3.95.04-3.57-2.47-3.03-5.65Z"/>
      <path class="cls-5" d="m249.98,1057.72c3.12-5.15,6.29-10.03,9.05-15.13,1.39-2.57,2.66-2.08,4.68-1,24.53,13.11,50.18,23.53,76.9,31.26,3.33.96,3.96,2.35,2.66,5.29-.53,1.2-.7,2.56-1.08,3.83-1.19,3.93-.77,9.88-3.97,11.23-2.97,1.25-7.76-1.67-11.7-2.89-24.64-7.67-48.34-17.6-71.18-29.61-1.76-.92-3.47-1.92-5.37-2.98Z"/>
      <path class="cls-5" d="m655.58,1059.47c-.21,1.47-1.52,1.74-2.47,2.23-25.58,13.23-52.18,23.88-79.85,31.9-2.89.84-3.42-.29-3.91-2.52-.93-4.21-1.77-8.47-3.06-12.58-1.04-3.33-.16-4.62,3.19-5.57,18.38-5.23,36.27-11.86,53.65-19.8,6.64-3.03,13.25-6.18,19.7-9.59,2.56-1.35,3.64-.88,4.86,1.54,2.09,4.15,4.49,8.14,6.76,12.2.4.72.77,1.47,1.13,2.18Z"/>
      <path class="cls-5" d="m461.75,1099.62c.23-10.3.23-10.24,10.32-10.65,22.33-.91,44.45-3.56,66.29-8.29,3.74-.81,5.05-.06,5.65,3.56.65,3.93,1.7,7.8,2.83,11.63.95,3.22.14,4.51-3.33,5.18-22.41,4.36-44.95,7.55-67.79,8.48-1,.04-1.99.12-2.99.21q-11.23,1.06-10.99-10.12Z"/>
      <path class="cls-5" d="m56.06,767.86c1.74-.52,2.53.68,3.05,3.15,4.61,21.66,10.92,42.83,19.17,63.38,1.11,2.76.49,3.92-2.07,4.77-1.89.63-3.71,1.47-5.55,2.24-10.42,4.39-10.47,4.41-14.31-5.95-7.35-19.82-13.31-40.03-17.74-60.71-.73-3.38-.08-4.39,3.29-4.69,4.46-.39,8.87-1.35,14.18-2.2Z"/>
      <path class="cls-5" d="m853.43,767.88c6.21,1.2,11.25,2.27,16.32,3.12,3.8.64,2.1,3.2,1.72,4.96-4.15,19.33-9.57,38.31-16.5,56.83-1.22,3.26-2.59,6.47-3.7,9.78-.79,2.37-1.73,3.2-4.3,1.91-4.89-2.45-11.95-3.28-14.41-7.14-2.6-4.08,2.49-9.89,4.21-14.92,5.7-16.65,10.73-33.48,14.39-50.71.37-1.72.12-4.45,2.26-3.84Z"/>
      <path class="cls-5" d="m438.91,1097.77c-.24,11.8-.25,11.99-12.09,11.3-20.58-1.18-40.93-4.21-61.12-8.37-3.25-.67-4.53-1.64-3.18-5.23,1.51-4.01,2.44-8.27,3.36-12.48.54-2.49,1.66-3.33,4.14-2.77,21.75,4.93,43.83,7.4,66.06,8.68,2.12.12,3.01.71,2.86,2.88-.13,1.98-.03,3.98-.03,5.98Z"/>
      <path class="cls-5" d="m839.96,868.36c-.31.7-.69,1.62-1.13,2.51-9.62,19.78-20.76,38.67-33.19,56.81-1.74,2.54-3.06,3.22-5.64.96-3.37-2.96-7-5.64-10.68-8.21-2.05-1.43-2.42-2.44-.86-4.66,11.97-17.04,22.5-34.95,31.49-53.74,1.22-2.55,2.34-3.58,5.25-2.02,3.94,2.12,8.18,3.68,12.25,5.57,1.1.51,2.76.64,2.52,2.78Z"/>
      <path class="cls-5" d="m859.98,693.94c0-3.12.09-8.45-.04-13.78-.06-2.33.78-3.33,3.12-3.38,4.99-.12,9.98-.3,14.96-.62,2.23-.14,2.81.68,2.84,2.82.3,22.34-.91,44.58-3.97,66.72-.31,2.24-1.17,2.89-3.21,2.48-2.94-.58-5.88-1.14-8.81-1.71-9-1.76-8.93-1.75-7.76-10.51,1.77-13.21,2.72-26.48,2.87-42.02Z"/>
      <path class="cls-5" d="m87.97,859.3c1.54.07,1.74,1.38,2.22,2.37,9.08,18.73,19.48,36.68,31.47,53.7,1.48,2.1.97,3.05-.88,4.3-3.85,2.61-7.71,5.24-11.33,8.15-2.57,2.07-3.79,1.19-5.4-1.16-12.42-18.13-23.41-37.08-33.02-56.85-.96-1.98-1.24-3.13,1.32-4.06,4.67-1.7,9.22-3.77,13.81-5.69.61-.25,1.22-.51,1.82-.76Z"/>
      <path class="cls-5" d="m677.15,1048.09c-1.57.18-1.91-1.1-2.45-2.05-2.37-4.2-4.59-8.49-7.11-12.59-1.46-2.38-.6-3.4,1.46-4.67,17.3-10.67,33.75-22.54,49.21-35.74,1.69-1.44,2.74-1.9,4.38.05,3.2,3.82,6.57,7.51,10,11.14,1.42,1.51,1.68,2.49-.08,3.99-17.02,14.46-35.01,27.57-54.12,39.14-.42.26-.86.49-1.29.73Z"/>
      <path class="cls-5" d="m50.15,698.65c.83,13.46,1.44,26.92,3.57,40.25.63,3.95.76,7.02-4.61,6.66-.96-.07-1.95.49-2.93.53-4.07.15-9.09,3.33-11.78.79-2.3-2.17-1.76-7.49-2.2-11.45-2.01-18.05-2.72-36.16-2.68-54.31,0-3.96.99-5.74,5.32-5.09,4.91.73,11.24-.72,14.46,1.88,3.11,2.5.47,9.03.83,13.77.18,2.31.03,4.65.03,6.98Z"/>
      <path class="cls-5" d="m240.08,1029.26c-1.2,2-2.39,4.2-3.79,6.25-2.32,3.39-3.43,9.15-6.95,9.69-2.98.45-6.69-3.7-10.03-5.88-14.52-9.46-28.19-20.06-41.57-31.06-3.01-2.47-2.99-3.98-.25-6.47,3.07-2.79,5.95-5.84,8.59-9.04,2.04-2.47,3.43-2.03,5.6-.15,14.38,12.42,29.71,23.58,45.75,33.76,1.05.67,2.51,1.06,2.65,2.91Z"/>
      <path class="cls-5" d="m868.07,653.2c-9.53.4-9.34.38-10.35-9.06-1.76-16.39-4.5-32.63-8.5-48.63-.83-3.3-.61-5.21,3.28-5.92,4.24-.77,8.38-2.11,12.54-3.28,2.39-.67,3.53-.08,4.15,2.55,4.69,19.96,8.17,40.09,9.9,60.53.25,2.97-.76,3.94-3.52,3.83-2.49-.1-4.99-.02-7.49-.02Z"/>
      <path class="cls-5" d="m31.34,648.88c1.73-19.91,5.26-39.88,9.81-59.67.6-2.62,1.39-4.05,4.55-2.91,4.37,1.58,8.88,2.78,13.38,3.96,2.47.65,2.95,1.65,2.32,4.24-4.53,18.44-7.7,37.13-9.34,56.05-.24,2.79-.99,3.74-3.93,3.37-4.61-.58-9.29-.69-13.94-.93-2.51-.13-3.7-1.16-2.85-4.1Z"/>
      <path class="cls-5" d="m278.85,323.82c.65,2.42-.86,2.81-1.99,3.36-15.67,7.67-30.84,16.23-45.38,25.88-1.54,1.02-2.47,1.03-3.58-.64-2.84-4.29-5.76-8.54-8.87-12.64-1.64-2.15-.71-3.05,1.08-4.22,15.6-10.15,31.75-19.33,48.49-27.46,1.27-.62,2.89-1.91,3.81.16,2.35,5.3,4.45,10.72,6.44,15.55Z"/>
      <path class="cls-5" d="m691.86,338.11c-1.51,2.06-3.17,4.34-4.85,6.6q-6.66,8.96-16.19,3.09c-11.74-7.27-23.69-14.14-36.22-19.94-3.57-1.65-4.12-3.35-2.39-6.73,1.88-3.68,3.31-7.61,4.77-11.49.86-2.29,1.83-3.15,4.37-1.9,16.74,8.19,32.94,17.32,48.52,27.55.91.6,2.21.98,1.99,2.81Z"/>
      <path class="cls-5" d="m801.08,441.77c-.18,1.51-1.23,1.85-2.02,2.37-4.02,2.65-8.17,5.11-12.08,7.92-2.26,1.63-3.35.86-4.75-1.05-9.41-12.9-19.53-25.22-30.61-36.72-1.72-1.79-1.59-2.71.19-4.29,3.72-3.31,7.28-6.81,10.77-10.36,1.49-1.52,2.54-1.66,4.03-.02,11.77,12.89,23.1,26.14,33.32,40.31.47.65.85,1.37,1.15,1.85Z"/>
      <path class="cls-5" d="m145.55,398.16c.5.08.72.05.81.15,4.45,4.47,8.94,8.9,13.28,13.47.92.97-.42,1.75-1.04,2.43-10.91,11.87-21.33,24.16-30.78,37.23-1.06,1.46-1.88,1.95-3.56.72-4.15-3.04-8.41-5.94-12.71-8.76-1.8-1.18-2.07-2.23-.76-3.99,10.32-13.88,21.2-27.28,33.19-39.77.55-.57,1.15-1.08,1.58-1.48Z"/>
      <path class="cls-5" d="m751.04,990.94c-.62-1.01-1.03-1.97-1.68-2.71-3.18-3.62-6.37-7.24-9.69-10.73-1.37-1.45-1.72-2.28-.03-3.92,11.14-10.75,21.45-22.27,31.2-34.28,1.43-1.76,2.35-2.26,4.31-.62,3.82,3.2,7.86,6.15,11.89,9.08,1.68,1.22,2.04,2.17.59,3.94-10.65,13.01-21.88,25.48-33.96,37.18-.56.55-1.24.98-2.63,2.05Z"/>
      <path class="cls-5" d="m136.86,936.98c1.41.29,1.94,1.42,2.65,2.29,9.23,11.4,18.99,22.34,29.57,32.49,2.23,2.14,2.29,3.43,0,5.53-3.42,3.16-6.58,6.61-9.7,10.08-1.6,1.78-2.67,1.8-4.37.06-11.54-11.79-22.72-23.89-33.03-36.78-.86-1.07-1.87-2.08-.2-3.27,4.6-3.3,9.2-6.6,13.82-9.87.39-.27.89-.38,1.26-.52Z"/>
      <path class="cls-5" d="m565.51,279.65c7.15,2.09,13.36,3.7,19.42,5.73,9.42,3.17,18.69,6.78,28.13,9.89,3.67,1.21,4.11,2.77,2.46,6.06-1.93,3.84-3.41,7.92-4.92,11.95-.83,2.22-1.68,3.14-4.3,2.01-9.75-4.19-19.81-7.58-29.94-10.7-2.15-.66-3.29-1.69-3.95-3.84-2.04-6.65-4.3-13.23-6.89-21.11Z"/>
      <path class="cls-5" d="m748.47,380.72c-1.28,1.44-1.87,2.19-2.55,2.85-3.33,3.27-6.73,6.45-9.99,9.78-1.83,1.87-3.23,2.13-5.32.13-9.03-8.64-18.64-16.62-28.66-24.06-2.39-1.77-2.41-3.05-.66-5.15,2.02-2.42,3.8-5.05,5.69-7.59q4.63-6.23,10.95-1.31c9.33,7.26,18.28,14.98,27.06,22.88.98.88,2.16,1.54,3.47,2.47Z"/>
      <path class="cls-5" d="m344.45,279.95c-2.63,7.97-4.98,14.98-7.25,22.03-.47,1.46-1.43,1.96-2.79,2.44-10.33,3.59-20.65,7.23-30.91,11.03-2.01.74-2.91.58-3.7-1.51-1.82-4.8-3.78-9.56-5.88-14.25-.97-2.17-.06-2.82,1.77-3.55,15.56-6.2,31.4-11.54,48.77-16.18Z"/>
      <path class="cls-5" d="m112.88,473.18c-.6.93-1.05,1.63-1.49,2.33-6.56,10.61-12.79,21.4-18.3,32.59-1.05,2.13-1.97,3.08-4.43,1.79-4.26-2.23-8.61-4.33-13.07-6.15-2.64-1.07-2.57-2.25-1.43-4.47,6.22-12.13,12.93-23.99,20.08-35.59,1.26-2.05,2.28-2.82,4.56-1.06,3.81,2.94,7.89,5.54,11.86,8.28.92.63,1.96,1.15,2.21,2.28Z"/>
      <path class="cls-5" d="m837.53,502.04c-.27.35-.48.82-.84,1.05-.55.36-1.19.59-1.8.84-5.19,2.14-10.87,6.66-15.44,5.72-4.46-.91-5.45-8.74-8.27-13.36-4.16-6.79-8.01-13.77-12.17-20.56-1.33-2.17-1.36-3.49,1.06-4.65,1.33-.64,2.47-1.69,3.77-2.41,3.72-2.04,7.24-7.02,10.84-5.9,3.04.95,4.88,6.27,6.91,9.85,4.9,8.66,9.6,17.43,14.37,26.17.55,1.01,1.01,2.08,1.57,3.24Z"/>
      <path class="cls-5" d="m176.91,395.62c-.67-.52-1.23-.85-1.68-1.3-3.74-3.78-7.4-7.64-11.2-11.35-1.55-1.51-.98-2.49.29-3.66,10.26-9.48,20.99-18.4,32.03-26.95,1.9-1.47,2.8-.81,3.9.82,2.79,4.13,5.62,8.24,8.57,12.25,1.22,1.66,1.3,2.7-.48,4.04-10.25,7.67-19.98,15.98-29.41,24.63-.59.54-1.28.97-2.02,1.52Z"/>
      <path class="cls-5" d="m843.8,568.07c-2.15.55-2.47-1.07-2.91-2.49-3.24-10.45-7.08-20.67-11.3-30.76-.93-2.22-.62-3.19,1.62-4.08,4.46-1.76,8.88-3.66,13.2-5.76,2.34-1.14,3.48-.82,4.47,1.67,4.43,11.07,8.75,22.18,12.23,33.59.45,1.47,1.3,2.89-.98,3.5-5.44,1.45-10.88,2.89-16.32,4.33Z"/>
      <path class="cls-5" d="m81.35,533.34c-.32.79-.64,1.55-.95,2.32-3.87,9.69-7.75,19.38-10.65,29.41-.91,3.15-2.35,3.83-5.34,2.78-3.9-1.36-7.89-2.53-11.91-3.5-2.99-.72-4.03-1.67-2.87-5.07,3.74-10.97,7.65-21.87,12.01-32.62,1.07-2.63,2.07-3.19,4.66-1.8,4.08,2.19,8.39,3.95,12.55,5.98,1.06.52,2.75.61,2.5,2.51Z"/>
      <path class="cls-4" d="m344.53,301.64c2.53-7.72,4.74-14.3,6.83-20.91,1.64-5.2,6.49-3.34,10.97-5.43-2.68,8.11-4.57,15.41-7.56,22.23-1.44,3.3-6.12,2.31-10.24,4.11Z"/>
      <path class="cls-4" d="m565.18,300.68c-6.93-.11-11.03-2.5-12.37-9.26-1.02-5.17-3.13-10.12-4.77-15.23,8.85.11,9.23.38,11.88,8.44,1.71,5.19,3.4,10.39,5.25,16.05Z"/>
      <path class="cls-4" d="m46.72,670.13c-5.02-.35-9.3-.83-13.58-.9-4.74-.08-2.8-3.4-2.97-5.66-.19-2.56.15-4.56,3.73-4.09,4.08.55,8.24.92,12.34.78,4.41-.15,5.04,1.86,4.84,5.67-.2,3.72-1.3,5.31-4.35,4.2Z"/>
      <path class="cls-1" d="m445.19,1099.58c.17-1.98.65-4,.44-5.94-.41-3.81,1-4.66,4.73-4.53,3.6.12,5.11.85,4.76,4.73-.38,4.29-.31,8.64-.24,12.96.08,5.07-3.68,2.91-6.02,3.29-2.61.42-4.15-.49-3.83-3.51.25-2.31.25-4.64.35-6.97-.07,0-.13,0-.2-.01Z"/>
      <path class="cls-4" d="m870.24,660.02c1.99,0,4.05.34,5.94-.08,3.33-.74,3.56.87,4.05,3.57.82,4.56-.27,6.31-5.15,5.96-4.09-.29-8.25.39-12.38.57-5.58.24-2.29-4.31-3.27-6.49-.88-1.97.36-3.37,2.86-3.24,2.64.14,5.3.03,7.95.03,0-.11,0-.22,0-.33Z"/>
      <path class="cls-4" d="m53.76,751.75c3.92.15,1.63,4.26,2.77,6.33.99,1.79.18,2.93-2.14,3.22-5.09.65-10.14,1.62-15.2,2.46-4.52.74-2.86-3.06-3.49-4.99-.54-1.65-1.92-4.01,1.56-4.52,5.25-.76,10.48-1.59,16.5-2.5Z"/>
      <path class="cls-2" d="m866.21,577.48c.53,1.86-1.02,1.76-2.02,2.03-5.11,1.38-10.22,2.75-15.35,4.04-4.89,1.23-2.68-3.37-3.92-5.1-1.17-1.64-1.4-3.63,1.74-4.23,3.89-.74,7.69-1.93,11.52-2.94,5.77-1.52,8.02.21,8.02,6.2Z"/>
      <path class="cls-3" d="m254.34,1037.13c-.65,1.15-1.1,2.03-1.61,2.87-2.24,3.68-4.71,7.24-6.67,11.06-1.52,2.96-2.78,2.96-5.67,1.52-4.17-2.08-4.59-4.04-1.87-7.65,2.38-3.16,4.15-6.78,6.29-10.13.69-1.08.95-3.3,3.12-1.98,2.18,1.31,4.78,2.1,6.42,4.31Z"/>
      <path class="cls-4" d="m669.94,1051.72c-1.45,2.3-4.17,2.92-6.31,4.31-2.16,1.4-2.45-.82-3.09-1.92-2.43-4.17-4.54-8.53-7.16-12.57-2.5-3.86,1.07-4.09,2.85-5.11,1.64-.94,3.57-3.69,5.46.17,2.18,4.48,4.79,8.75,7.21,13.11.32.58.61,1.18,1.04,2.01Z"/>
      <path class="cls-4" d="m624.66,300.26c4.94.05,7.33,3.62,5.48,8.16-1.19,2.92-2.62,5.77-3.49,8.78-1.35,4.7-3.4,6.02-8.01,3.3-2.43-1.43-2.96-2.34-1.8-4.84,1.95-4.21,3.5-8.6,5.35-12.85.46-1.07.5-2.83,2.47-2.54Z"/>
      <path class="cls-4" d="m693.29,362.91c-2.29-1.67-4.81-2.93-6.45-4.92-1.16-1.41,1.03-2.8,1.92-4.06,2.21-3.13,4.47-6.22,6.83-9.23.95-1.21,1.52-3.77,3.33-3.03,2.38.98,4.37,2.94,6.42,4.62.68.56-.16,1.21-.5,1.68-3.33,4.58-6.68,9.14-10.05,13.68-.36.49-.95.8-1.5,1.25Z"/>
      <path class="cls-4" d="m805.26,448.34c2.38,1.42,3.34,3.98,4.81,6.09,1.49,2.15-.82,2.45-1.83,3.14-3.97,2.69-8.09,5.18-12.05,7.88-4.35,2.96-4.27-1.92-5.99-3.39-1.91-1.63-1.66-3.15.74-4.56,4.27-2.52,8.34-5.39,12.5-8.1.55-.36,1.14-.66,1.82-1.05Z"/>
      <path class="cls-4" d="m826.58,525.35c-2.68-1.14-2.54-4.24-3.87-6.31-1.28-1.99.3-2.49,1.75-3.1,4.58-1.95,9.18-3.84,13.67-5.99,4.48-2.14,3.86,2.14,5.08,3.93,1.29,1.88,2,3.65-1.24,4.85-5.12,1.9-10.06,4.3-15.39,6.63Z"/>
      <path class="cls-4" d="m759.78,391.92c-4.61,4.81-8.79,9.04-12.8,13.42-2.92,3.19-3.95-.25-5.27-1.53-1.35-1.31-4.67-2.47-1.55-5.32,3.54-3.24,7.17-6.4,10.4-9.93,2.15-2.35,3.48-2.21,5.37.11,1.13,1.38,2.76,2.36,3.83,3.25Z"/>
      <path class="cls-3" d="m65.95,576.9c0,5.74-2.41,7.65-7.63,6.15-3.96-1.14-7.88-2.44-11.87-3.48-2.1-.55-2.86-1.49-1.79-3.47,1.1-2.04-.04-6.31,3.68-5.7,5.49.91,10.79,2.99,16.17,4.54,1.11.32,1.75.88,1.43,1.94Z"/>
      <path class="cls-4" d="m85.43,851.48c.6,1.87-1.12,1.88-1.98,2.25-4.56,1.98-9.24,3.67-13.76,5.74-4.89,2.24-3.93-2.48-5.28-4.3-1.71-2.29-.8-3.7,1.86-4.62,3.59-1.25,7.05-2.89,10.57-4.35,4.99-2.07,8.13-.12,8.59,5.28Z"/>
      <path class="cls-4" d="m121.7,460.11c-1.39,1.84-2.67,4.34-4.67,5.91-1.42,1.12-2.84-1.12-4.16-1.96-3.48-2.24-6.72-4.87-10.29-6.95-4.09-2.39-.98-4.25.18-6.23,1.13-1.93,1.97-4.3,5.06-1.84,3.75,2.98,7.87,5.5,11.8,8.26.88.62,2.25.9,2.07,2.82Z"/>
      <path class="cls-1" d="m874.95,757.63c.07,6.34-1.08,7.31-7.09,6.11-3.9-.78-7.8-1.58-11.72-2.26-4.36-.76-2.03-3.71-1.81-5.76.2-1.88-.12-4.54,3.55-3.63,4.82,1.19,9.75,1.96,14.65,2.81,1.7.3,2.9.78,2.42,2.73Z"/>
      <path class="cls-4" d="m211.48,341.4c.63.67,1.25,1.21,1.71,1.86,2.97,4.19,5.81,8.48,8.87,12.6,2.77,3.72-1.2,4-2.7,5.34-1.42,1.28-3.08,3.43-5.08.22-2.37-3.79-5.14-7.33-7.61-11.05-.83-1.24-3.01-2.53-1.62-4.09,1.73-1.93,4.17-3.22,6.43-4.88Z"/>
      <path class="cls-3" d="m563.24,1094.43c-.37,3.75-4.02,2.25-6.03,3.32-1.63.87-3,.53-3.49-1.88-1.02-5.01-2.3-9.98-3.67-14.91-.74-2.68.93-3.54,2.74-3.41,2.11.15,4.89-3.64,6.22.29,1.79,5.3,2.8,10.86,4.21,16.58Z"/>
      <path class="cls-4" d="m287.2,322.29c-1.23.26-1.79-.44-2.2-1.46-2.05-5.04-4.28-10.02-6.13-15.13-1.49-4.11,2.86-2.98,4.44-4.26,1.18-.95,3.17-2.33,4.3.58,1.93,4.92,4.04,9.76,5.94,14.68.82,2.13-3,5.41-6.34,5.59Z"/>
      <path class="cls-3" d="m359.89,1079.45c-1.67,6.03-2.76,11.98-5.07,17.41-1.18,2.76-4.27-.28-6.53-.36-1.58-.06-2.81-.84-2.21-2.92,1.51-5.24,2.92-10.51,4.37-15.77.71-2.56,2.46-1.65,3.95-1.08,1.93.74,4.76-.05,5.49,2.73Z"/>
      <path class="cls-4" d="m846.85,853.26c-.21,5.14-3.72,7.33-8.38,5.26-3.64-1.62-7.2-3.49-10.95-4.79-3.21-1.11-2.74-2.98-1.37-4.85,1.25-1.7.39-6.22,4.97-4.05,4.5,2.14,9.08,4.13,13.65,6.12,1.1.48,2.14.89,2.08,2.3Z"/>
      <path class="cls-4" d="m116.48,942.74c-2.36-1.3-3.38-3.85-5-5.81-1.3-1.56.09-2.32,1.17-3.09,4.04-2.9,8.06-5.82,12.13-8.69,4.48-3.16,4.43,2.13,6.4,3.56,2.23,1.61,1.07,2.86-.69,4.06-4.1,2.81-8.12,5.74-12.17,8.63-.54.38-1.07.78-1.84,1.34Z"/>
      <path class="cls-4" d="m783.13,924.43c.5.34,1.06.68,1.58,1.08,4.11,3.11,8.21,6.24,12.33,9.35,3.99,3.02-.53,4.36-1.37,6.3-.74,1.7-1.82,3.63-4.38,1.35-3.1-2.75-6.57-5.08-9.89-7.59-3.9-2.95-3.55-7.83.75-10.11.28-.15.59-.22.99-.37Z"/>
      <path class="cls-4" d="m70.24,508.68c6.08,2.93,11.91,5.12,16.98,8.46,2.17,1.43-.94,4.3-1.6,6.52-.55,1.87-1.91,1.94-3.54,1.15-4.63-2.23-9.29-4.4-13.96-6.57-1.26-.59-2.57-1.06-1.55-2.87,1.22-2.19,1.77-4.82,3.67-6.69Z"/>
      <path class="cls-4" d="m732.24,980.59c1.48.16,2.12,1.21,2.89,2.05,2.81,3.07,5.65,6.1,8.29,9.31,1.04,1.26,3.63,2.32,2.49,4.14-1.26,2.02-3.49,3.54-5.52,4.94-1.32.92-2.01-.77-2.72-1.52-2.96-3.15-5.86-6.36-8.67-9.64-.98-1.15-3.34-2.2-2.32-3.78,1.4-2.17,3.72-3.74,5.56-5.5Z"/>
      <path class="cls-1" d="m177.09,979.97q6.95,5.4.54,11.91c-1.97,2.01-4.08,3.91-5.83,6.1-1.97,2.46-3.27,1.98-5.54.11-3.52-2.9-3.71-5.05-.17-7.99,3.81-3.16,7.31-6.7,11.01-10.13Z"/>
      <path class="cls-6" d="m156.9,385.88c1.12.98,1.75,1.47,2.31,2.03,3.61,3.65,7.18,7.35,10.81,10.98,3.25,3.25-.89,3.99-2,5.59-1.14,1.65-2.51,3.58-4.91.85-2.94-3.36-6.36-6.3-9.39-9.59-.95-1.03-3.51-1.69-2.13-3.76,1.45-2.18,3.44-4,5.31-6.1Z"/>
      <path class="cls-25" d="m581.71,367.8c8.58,2.7,16.26,6.2,23.78,9.97,100.41,50.33,166.01,129.24,188.99,239.58,24.07,115.6-5.82,218.2-85.82,304.96-52.81,57.27-118.89,92.38-195.89,104.28-111.43,17.21-210.36-11.51-294.09-87.5-58.53-53.12-94.67-119.62-106.22-197.89-16.34-110.78,14.37-207.78,90.85-289.77,33.03-35.41,72.5-61.87,117.17-80.56,1.35-.56,2.73-1.03,4.61-1.74,0,2.23-.02,4.02,0,5.8.36,27.98-1.25,56,.75,83.93,3.91,54.65,42.18,99.96,95.08,113.45,72.72,18.55,143.85-26.22,158.44-99.75,1.69-8.51,2.28-17.16,2.31-25.82.09-24.33.03-48.66.03-72.98v-5.96Z"/>
      <path class="cls-5" d="m375.68,326.22c2.15-12.19,7.04-23.17,14.71-32.88,5.95-7.53,13.29-13.41,21.51-18.38,3.65-2.21,5.13-1.54,7.12,2.03,22.91,41.1,45.97,82.12,69.01,123.15,14.49,25.81,28.96,51.62,43.52,77.39,1.55,2.75,2.12,5.26,1.42,8.45-4.84,21.93-17.07,38.24-36.62,49.24-2.75,1.55-3.92.94-5.36-1.63-37.94-67.75-75.95-135.46-113.93-203.18-.72-1.29-1.67-2.53-1.37-4.19Z"/>
      <path class="cls-6" d="m374.44,346.44c3.95,6.96,7.45,13.08,10.9,19.22,31.73,56.53,63.46,113.06,95.19,169.6,3.1,5.53,3.14,5.75-2.95,7.08-31.17,6.83-59.62,2.17-83.07-21.04-14.23-14.08-20.19-31.95-20.33-51.58-.3-40.28-.09-80.57-.08-120.85,0-.44.12-.88.36-2.43Z"/>
      <path class="cls-6" d="m534.73,461.26c-2.02-1.15-2.43-2.84-3.21-4.23-34.38-61.21-68.69-122.47-103.21-183.61-2.39-4.24-1.59-5.26,2.73-6.27,27.56-6.48,53.38-3.51,76.05,14.58,18.5,14.75,27.23,34.79,27.5,58.06.48,40.31.13,80.64.13,121.48Z"/>
      <path class="cls-14" d="m566.04,787.51c0,20.43-.13,40.21.1,60,.05,4.25-1.18,5.57-5.3,5.16-4.11-.41-9.6,1.28-12.08-.81-2.92-2.46-.97-8.13-.99-12.39-.1-23.32.03-46.65-.13-69.97-.02-3.55.97-4.61,4.46-4.37,6.45.46,14.13-2.25,19.06.98,4.71,3.08,6.72,10.4,9.72,15.96,8.48,15.75,18.42,30.73,26,47.28,0-1.69,0-3.38,0-5.07,0-18.32.07-36.65-.07-54.97-.02-3.19.72-4.54,4.09-4.16,4.58.52,10.71-1.98,13.36,1.04,2.26,2.59.75,8.55.76,13.02.03,22.82-.07,45.65.1,68.47.03,3.88-.94,5.27-4.95,5-6.13-.41-13.23,1.57-18.18-.92-4.99-2.51-6.46-10.04-9.41-15.41-8.81-16.01-17.45-32.1-26.53-48.84Z"/>
      <path class="cls-14" d="m361.08,809.57c4.56,1.81,6.68,5.32,8.34,9.14,4.45,10.2,8.78,20.45,13.26,30.64,1.06,2.41,1.1,3.77-2.08,3.39-.33-.04-.67,0-1,0-5.3-.23-11.73,1.99-15.6-.85-3.59-2.64-4.51-8.93-6.54-13.63-2.11-4.88-3.97-9.87-6.26-14.66-2.71-5.68-9.67-8.47-15.65-6.84-2.28.62-1.59,2.25-1.6,3.56-.06,9.49-.14,18.98.03,28.47.05,2.97-.63,4.25-3.84,4.02-3.64-.26-7.33-.24-10.98,0-3.22.21-3.87-1.21-3.86-4.11.08-26.64.05-53.27.05-79.91,0-1.85-.29-3.72,2.64-3.61,13.29.49,26.65-1.1,39.88.99,14.45,2.28,22.71,15.62,18.61,29.68-1.6,5.5-5.68,8.85-10.47,11.46-1.44.79-2.98,1.39-4.94,2.29Z"/>
      <path class="cls-14" d="m535.04,826.2c0,6.5,0,12.99,0,19.49,0,1.63.27,3.16-2.11,3.77-16.01,4.03-32.11,6.22-48.25,1.2-15.75-4.9-26.42-19.11-27.72-36.16-.51-6.67-.31-13.32,1.37-19.84,4.61-17.88,18.09-25.57,34.56-29.13,11.85-2.57,23.81-1.64,35.62,1.27,3.09.76,4.13,2,3.6,5.14-.6,3.57,1.14,8.46-1.21,10.52-2.2,1.92-6.25-1.51-9.62-2.1-8.06-1.42-16.14-2.63-24.27-.75-14.15,3.28-23.04,17.78-20.73,33.63,3.14,21.56,18.71,27.87,37.49,24.74,1.97-.33,3.25-1.11,3.16-3.56-.18-4.99-.15-9.99-.01-14.99.07-2.42-.82-3.21-3.17-3.12-3.83.15-7.67-.14-11.49.09-2.95.18-3.55-1.02-3.6-3.74-.19-10.32-.29-10.32,10-10.32,7.66,0,15.32.09,22.98-.05,2.62-.05,3.48.83,3.43,3.43-.14,6.83-.05,13.66-.05,20.49Z"/>
      <path class="cls-14" d="m722.03,808.84c-.02,20.9-8.44,34.65-25.3,41.34-18.03,7.15-39.4,2.99-51.83-10.16-8.06-8.53-10.32-19.13-10.45-30.39-.21-18.01,5.51-33.15,22.93-40.84,18.11-8,35.87-6.63,51.53,6.34,10.43,8.64,13.17,20.75,13.11,33.71Z"/>
      <path class="cls-14" d="m575.86,906.83c.04-20.32,9.91-34.62,28.93-40.06,22.81-6.52,45.9,4.48,52.33,25.15,3.44,11.06,3.52,22.34.14,33.4-4.52,14.76-15.09,23.01-29.89,26.17-17.49,3.73-35.43-2.64-44.43-15.74-5.59-8.14-7.21-17.37-7.08-28.92Z"/>
      <path class="cls-14" d="m349.95,865q13.18,0,17.01,12.69c6.93,22.72,13.82,45.45,20.93,68.12,1.21,3.87.43,4.92-3.52,4.56-3.47-.31-7.03-.4-10.47.02-3.92.48-5.19-1.42-5.95-4.74-.96-4.21-2.4-8.3-3.4-12.5-.56-2.37-1.73-3.1-4.12-3.05-6.99.15-13.99.15-20.98,0-2.41-.05-3.53.72-4.12,3.07-1.17,4.67-2.71,9.25-3.92,13.91-.58,2.22-1.44,3.43-4.02,3.28-4.97-.29-12.01,1.66-14.38-.88-2.67-2.87,1.56-9.02,2.9-13.69,6.22-21.72,12.79-43.34,18.82-65.12,1.27-4.58,3.08-6.4,7.74-5.72,2.45.36,4.99.06,7.48.06Z"/>
      <path class="cls-14" d="m246.95,808.88c0-13.16.08-26.32-.06-39.48-.03-3.02.43-4.36,3.97-4.31,15.32.21,30.65.15,45.97.03,2.78-.02,3.67.74,3.74,3.61.33,12.29.43,12.28-11.62,12.28-6.83,0-13.66.09-20.49-.05-2.62-.05-3.52.84-3.41,3.45.18,3.99.22,8-.01,11.99-.18,3.04.8,4.06,3.91,3.98,7.99-.19,15.99.07,23.98-.13,3.23-.08,4.25.83,4.25,4.17,0,10.58.14,10.58-10.27,10.58-6,0-12,.16-17.99-.06-3.14-.12-4.02,1-3.88,4.01.22,4.82.21,9.67,0,14.49-.13,2.94,1.04,3.66,3.78,3.61,9.16-.14,18.33.08,27.48-.12,3.24-.07,4.26.83,4.28,4.16.07,11.64.2,11.64-11.3,11.64-12.83,0-25.65-.09-38.48.07-3.07.04-3.97-.84-3.93-3.94.16-13.32.07-26.65.07-39.98Z"/>
      <path class="cls-14" d="m393.92,808.88c0-13.16.08-26.32-.06-39.48-.03-3.02.43-4.36,3.97-4.31,15.32.21,30.65.15,45.97.03,2.78-.02,3.67.74,3.74,3.61.33,12.29.43,12.28-11.63,12.28-6.83,0-13.66.09-20.49-.05-2.62-.05-3.52.84-3.41,3.45.18,3.99.22,8-.01,11.99-.18,3.04.8,4.06,3.91,3.98,7.99-.19,15.99.07,23.98-.13,3.23-.08,4.25.83,4.25,4.17,0,10.58.14,10.58-10.27,10.58-6,0-12,.16-17.99-.06-3.14-.12-4.02,1-3.88,4.01.22,4.82.21,9.67,0,14.49-.13,2.94,1.04,3.65,3.78,3.61,9.16-.14,18.33.08,27.48-.12,3.24-.07,4.26.83,4.28,4.16.07,11.64.2,11.64-11.3,11.64-12.83,0-25.65-.09-38.48.07-3.07.04-3.97-.85-3.93-3.94.16-13.32.07-26.65.07-39.98Z"/>
      <path class="cls-14" d="m229.68,782c-6.93-2.1-13.54-4.44-20.68-3.99-2.17.14-4.31.23-6.35,1.12-6.59,2.88-7.91,10.1-2.68,15.02,2.33,2.19,5.07,3.74,8.05,4.91,5.58,2.2,10.72,5.31,16.1,7.9,15.68,7.58,16.07,33.18-1.37,42.11-13.87,7.1-28.46,4.99-42.82.8-1.65-.48-1.69-1.68-1.46-3.17.63-4.1,1.11-8.22,1.7-12.72,5.87,2.03,11.52,3.87,17.44,4.72,3.85.55,7.68.65,11.33-.77,3.92-1.52,6.92-4.11,7.4-8.61.45-4.26-1.44-7.54-5.07-9.54-5.53-3.04-11.25-5.73-16.82-8.68-2.49-1.32-4.89-2.83-7.23-4.41-8.56-5.77-10.88-13.96-8.63-23.6,2.29-9.84,8.53-15.99,18.49-18.01,10.69-2.17,21.18-.35,31.63,1.99,2.31.52,2.97,1.49,2.54,3.8-.67,3.58-1.02,7.22-1.55,11.1Z"/>
      <path class="cls-14" d="m504.32,952.39c-17.87-.69-33.6-6.25-40.86-23.92-9.82-23.89-2.57-59.74,38.08-63.15,7.15-.6,14.27-.18,21.29,1.64,2.76.71,3.96,1.82,3.55,4.79-.48,3.43.66,8.03-1.18,10.05-1.7,1.88-5.94-1.32-9.21-1.56-5.14-.39-10.3-.81-15.38.38-16.83,3.94-24.98,17.69-21.62,36.4,2.44,13.61,17.24,22.97,32.87,20.75,3.45-.49,6.94-.98,10.14-2.45,2.92-1.33,3.87-.23,3.74,2.66-.06,1.32.09,2.66.15,3.99.35,7.68.36,7.73-7.13,9.05-4.75.84-9.53,1.57-14.45,1.38Z"/>
      <path class="cls-14" d="m301.09,882.86c-7.03-2.13-13.46-3.47-20.18-2.91-18.61,1.56-29.72,14.61-27.59,32.59,2.09,17.62,16.21,27.95,34.42,25.05,3.1-.49,6.18-1.3,9.15-2.32,2.65-.91,3.48-.24,3.62,2.49.71,13.6,2.98,11.28-10.21,13.63-14.24,2.54-27.84.84-39.99-7.85-7.83-5.6-12.58-13.11-14.43-22.51-1.69-8.62-1.7-17.23.62-25.71,4.76-17.36,19.45-28.4,39.86-30,7.16-.56,14.27-.14,21.3,1.65,2.56.65,3.64,1.65,3.47,4.37-.22,3.64-.05,7.3-.05,11.53Z"/>
      <path class="cls-14" d="m436.57,685.63c-5.74,6.35-12.6,7.32-20.16,4.96-11.05-3.45-16.31-12.28-14.93-24.98,1.39-12.75,8.8-20.57,20.33-21.44,18.27-1.38,28.15,7.42,29.29,25.76.49,7.85.46,15.63-1.18,23.33-2.92,13.72-12.93,21.93-26.87,22.08-4.66.05-9.29.07-13.91-.98-2.78-.63-3.41-1.85-3.04-4.49,1.05-7.48.96-7.49,8.62-5.96,13.03,2.61,22.48-5.07,21.86-18.27Z"/>
      <path class="cls-16" d="m404.34,908.79c0-12.83.09-25.66-.06-38.48-.04-3.18.73-4.51,4.15-4.21,4.28.38,9.88-1.31,12.54.84,2.83,2.28.87,8.1.89,12.36.11,17.49.17,34.98-.05,52.47-.05,4.01.77,5.51,5.1,5.32,8.31-.36,16.66-.01,24.98-.16,2.81-.05,4.08.38,4.1,3.72.09,11.07.25,11.06-10.75,11.06-12.16,0-24.32-.12-36.48.07-3.52.06-4.55-1.04-4.5-4.52.18-12.82.07-25.65.07-38.48Z"/>
      <path class="cls-14" d="m502.36,658.19c-.97-14.71-3.16-11.25,9.64-13.62,6.67-1.24,13.62-1.14,20.33.68,7.78,2.12,13.14,8.03,13.56,14.84.54,8.66-2.93,14.15-11.4,17.78,8.57,3.18,12.63,9.43,11.84,18.22-.82,9.14-6.71,14.72-15.03,17.44-9.42,3.08-19.02,2.3-28.57.08-4.79-1.12-2.31-4.7-2.63-7.27-.56-4.42,1.08-5.84,5.5-4.03,4.84,1.98,10.01,2.43,15.21,1.85,6.19-.68,10.15-4.75,10.25-10.24.07-3.96-1.66-6.59-5.37-8.1-3.48-1.41-7.09-2.03-10.75-1.57-4.81.6-6.73-.7-6.39-6.03.26-3.95.87-5.7,5.2-5.28,2.76.27,5.64-.27,8.42-.75,5.26-.9,8.85-5.01,8.52-9.46-.29-3.96-4-7.02-9.29-7.45-6.39-.52-12.57.66-19.05,2.9Z"/>
      <path class="cls-14" d="m560.88,909.32c0,12.82-.09,25.65.07,38.47.04,3.01-.74,3.95-3.87,4.01-14.04.25-14.04.35-14.04-13.37,0-22.48.11-44.97-.1-67.45-.04-4.02,1.13-5.24,5-4.87,4.1.39,9.48-1.22,12.04.85,2.74,2.21.79,7.79.84,11.89.14,10.16.05,20.32.05,30.48Z"/>
      <path class="cls-14" d="m475.33,660.71c-3.79,3.24-6.65,5.49-9.27,8-1.9,1.82-3.25,1.83-4.67-.44-.7-1.12-1.56-2.18-2.53-3.07-2.28-2.11-1.94-3.56.51-5.44,3.95-3.03,7.95-6.14,11.25-9.82,4.53-5.04,10-5.76,16.18-5.37,2.33.15,3.15.77,3.14,3.18-.08,21.44-.05,42.89-.04,64.33,0,1.58,0,3.02-2.25,2.96-3.32-.08-6.65.03-9.97-.04-3.34-.07-2.3-2.72-2.31-4.45-.08-14.63-.04-29.26-.04-43.88v-5.96Z"/>
      <path class="cls-14" d="m380.76,659.54c-3.79,3.18-6.79,5.48-9.53,8.07-1.87,1.77-3.2,2.03-4.72-.26-.92-1.38-2-2.67-3.15-3.87-1.46-1.53-1.4-2.58.32-4,5.63-4.67,11.01-9.67,16.71-14.26,4.05-3.26,8.97-1.22,13.5-1.35,1.46-.04,1.18,1.76,1.18,2.87.02,21.32-.02,42.63.06,63.95.01,2.62-.88,3.33-3.45,3.42-10.91.39-10.91.48-10.91-10.41v-44.16Z"/>
      <path class="cls-20" d="m379.46,326.97c1.76-8.72,4.28-15.7,8-22.27,5.77-10.21,13.75-18.23,23.52-24.69,3.29-2.17,4.42-1.51,6.21,1.7,28.18,50.47,56.51,100.86,84.8,151.26,8.62,15.36,17.2,30.74,25.91,46.04,1.33,2.33,1.67,4.43,1.06,7.04-4.37,18.73-14.55,33.24-30.79,43.63-3.11,1.99-4.21,1.21-5.84-1.71-36.99-66.09-74.09-132.13-111.14-198.19-.71-1.27-1.84-2.46-1.73-2.82Z"/>
      <path class="cls-15" d="m378.7,361.93c5.23,9.27,10.28,18.17,15.3,27.1,27.03,48.19,54.01,96.4,81.17,144.52,2.26,4,2.37,5.25-2.68,6.09-27.59,4.55-52.82.19-73.79-19.54-13.67-12.86-20.2-29.44-20.47-47.87-.53-36.31-.16-72.64-.14-108.96,0-.25.22-.5.62-1.34Z"/>
      <path class="cls-15" d="m529.95,446.23c-4.05-7.16-8.12-14.32-12.15-21.5-27.75-49.45-55.5-98.91-83.24-148.37-3.04-5.41-3.06-5.55,2.82-6.65,35.86-6.7,68.3,6.44,84.48,35.66,5.66,10.22,8.73,21.31,8.8,32.92.24,35.29.09,70.59.09,105.88,0,.59,0,1.19,0,1.78-.27.09-.53.18-.8.27Z"/>
      <path class="cls-25" d="m333.93,791.15c0-1-.13-2.02.02-2.99.47-2.95-1.62-6.78,1.23-8.74,3.52-2.42,16.78.42,19.9,3.53,3.42,3.42,4.19,7.52,2.48,11.93-1.4,3.61-4.29,5.84-7.91,7.12-.46.16-.98.18-1.47.28-13.29,2.83-14.26,2.07-14.26-11.13Z"/>
      <path class="cls-25" d="m653.93,809.07c-.34-4.46.15-8.76,1.11-12.98,2.68-11.73,11.86-19.14,23.45-19.08,11.46.06,20.7,7.77,23.13,19.5,1.71,8.23,1.69,16.52.02,24.75-2.4,11.76-12.18,19.85-23.58,19.74-11.45-.11-20.79-8.25-23.19-20.16-.79-3.93-1.22-7.88-.94-11.77Z"/>
      <path class="cls-25" d="m641.01,909.03c-.13,3.98-.24,7.95-1.09,11.89-2.44,11.36-11.02,19.02-21.71,19.23-10.98.21-19.64-6.64-22.47-18.14-2.18-8.85-2.15-17.82.06-26.66,2.83-11.32,11.81-18.17,22.78-17.75,10.56.4,18.97,7.97,21.31,19.04.87,4.1,1.04,8.24,1.12,12.39Z"/>
      <path class="cls-26" d="m350.18,882.64c2.97,10.29,5.92,20.59,8.92,30.87.47,1.6-.19,2.17-1.63,2.18-5.14.02-10.29.04-15.43,0-3.14-.02-1.77-1.93-1.34-3.4,2.82-9.86,5.65-19.72,8.47-29.59.34-.02.67-.05,1.01-.07Z"/>
      <path class="cls-26" d="m435.89,667.58c.1,2.21-.33,4.34-.99,6.38-1.32,4.06-4.18,6.28-8.47,6.37-4.31.09-7.19-2.08-8.75-6.01-1.33-3.35-1.08-6.86-.68-10.31.58-5.1,4.01-8.5,8.55-8.8,4.94-.33,8.5,2.56,9.73,7.97.33,1.44.43,2.93.63,4.4Z"/>
      <path class="cls-24" d="m489.21,490.24c-11.05.02-19.64-8.41-19.77-19.42-.13-10.89,8.5-19.65,19.45-19.74,11.33-.09,20.03,8.46,20.01,19.66-.02,10.91-8.67,19.47-19.68,19.5Z"/>
      <path class="cls-24" d="m438.9,341.14c0,10.91-8.64,19.53-19.64,19.61-11.03.08-19.68-8.38-19.82-19.39-.14-11.09,8.73-19.98,19.86-19.92,10.88.06,19.6,8.83,19.6,19.7Z"/>
      <path class="cls-24" d="m455.1,425.42c-11.12-.04-19.38-8.39-19.36-19.59.01-11.08,8.45-19.55,19.49-19.57,11.25-.01,19.75,8.59,19.67,19.93-.07,10.99-8.6,19.27-19.8,19.23Z"/>
    </g>
  </g>
</svg>