<?xml version="1.0" encoding="UTF-8"?>
<svg id="Layer_2" data-name="Layer 2" xmlns="http://www.w3.org/2000/svg" xmlns:xlink="http://www.w3.org/1999/xlink" viewBox="0 0 139.01 171.62">
  <defs>
    <style>
      .cls-1 {
        fill: url(#linear-gradient);
      }

      .cls-1, .cls-2, .cls-3, .cls-4, .cls-5, .cls-6, .cls-7 {
        stroke-width: 0px;
      }

      .cls-2 {
        fill: url(#linear-gradient-4);
      }

      .cls-3 {
        fill: url(#linear-gradient-2);
      }

      .cls-4 {
        fill: url(#linear-gradient-3);
      }

      .cls-5 {
        fill: url(#linear-gradient-5);
      }

      .cls-6 {
        fill: url(#linear-gradient-6);
      }

      .cls-7 {
        fill: #008fd7;
      }
    </style>
    <linearGradient id="linear-gradient" x1="208.04" y1="-67.88" x2="232.41" y2="-134.12" gradientTransform="translate(-147.66 -.93) scale(1 -1)" gradientUnits="userSpaceOnUse">
      <stop offset="0" stop-color="#0c5ead"/>
      <stop offset="1" stop-color="#033b82"/>
    </linearGradient>
    <linearGradient id="linear-gradient-2" x1="224.15" y1="-98.58" x2="202.87" y2="-92.06" xlink:href="#linear-gradient"/>
    <linearGradient id="linear-gradient-3" x1="278.16" y1="-121.86" x2="213.29" y2="-163.74" xlink:href="#linear-gradient"/>
    <linearGradient id="linear-gradient-4" x1="233.35" y1="-125.46" x2="209.32" y2="-166.99" xlink:href="#linear-gradient"/>
    <linearGradient id="linear-gradient-5" x1="156.95" y1="-122.41" x2="220.1" y2="-162.91" xlink:href="#linear-gradient"/>
    <linearGradient id="linear-gradient-6" x1="204.93" y1="-149.85" x2="220.72" y2="-134.74" xlink:href="#linear-gradient"/>
  </defs>
  <g id="Layer_1-2" data-name="Layer 1">
    <path class="cls-1" d="m69.34,129.06h27.46l-27.46-75.51v75.51Z"/>
    <path class="cls-3" d="m42.22,129.06h27.12V53.55l-27.12,75.51Z"/>
    <path class="cls-4" d="m96.8,129.06l-27.46,42.56,69.68-42.56h-42.22Z"/>
    <path class="cls-2" d="m69.34,129.06v42.56l27.46-42.56h-27.46Z"/>
    <path class="cls-5" d="m0,129.06l69.34,42.56-27.12-42.56H0Z"/>
    <path class="cls-6" d="m42.22,129.06l27.12,42.56v-42.56h-27.12Z"/>
    <path class="cls-7" d="m139.01,129.06L83.75,0h-28.83L0,129.06h42.22l27.12-75.51,12.7,35.01h-12.7l-7.21,21.62h27.8l6.87,18.88h42.22Z"/>
  </g>
</svg>