<?xml version="1.0" encoding="UTF-8" standalone="no"?>
<!-- Created with Inkscape (http://www.inkscape.org/) -->

<svg
   xmlns:dc="http://purl.org/dc/elements/1.1/"
   xmlns:cc="http://creativecommons.org/ns#"
   xmlns:rdf="http://www.w3.org/1999/02/22-rdf-syntax-ns#"
   xmlns:svg="http://www.w3.org/2000/svg"
   xmlns="http://www.w3.org/2000/svg"
   xmlns:xlink="http://www.w3.org/1999/xlink"
   xmlns:sodipodi="http://sodipodi.sourceforge.net/DTD/sodipodi-0.dtd"
   xmlns:inkscape="http://www.inkscape.org/namespaces/inkscape"
   width="39.289299mm"
   height="56.444443mm"
   viewBox="0 0 139.21405 199.99999"
   id="svg4602"
   version="1.1"
   inkscape:version="0.91 r13725"
   sodipodi:docname="Serie-B.svg">
  <defs
     id="defs4604">
    <clipPath
       clipPathUnits="userSpaceOnUse"
       id="clipPath304">
      <path
         d="m 161.583,116.34 0.0186,0 0,0.11023 -0.0186,0 0,-0.11023 z"
         id="path306"
         inkscape:connector-curvature="0" />
    </clipPath>
    <linearGradient
       x1="0"
       y1="0"
       x2="1"
       y2="0"
       gradientUnits="userSpaceOnUse"
       gradientTransform="matrix(-4.1882,4.8,4.8,4.1882,160.195,114.825)"
       spreadMethod="pad"
       id="linearGradient316">
      <stop
         style="stop-opacity:1;stop-color:#ffffff"
         offset="0"
         id="stop318" />
      <stop
         style="stop-opacity:1;stop-color:#98add0"
         offset="1"
         id="stop320" />
    </linearGradient>
    <clipPath
       clipPathUnits="userSpaceOnUse"
       id="clipPath328">
      <path
         d="m 161.601,115.838 0.0234,0 0,0.50269 -0.0234,0 0,-0.50269 z"
         id="path330"
         inkscape:connector-curvature="0" />
    </clipPath>
    <linearGradient
       x1="0"
       y1="0"
       x2="1"
       y2="0"
       gradientUnits="userSpaceOnUse"
       gradientTransform="matrix(-4.1882,4.8,4.8,4.1882,160.195,114.825)"
       spreadMethod="pad"
       id="linearGradient340">
      <stop
         style="stop-opacity:1;stop-color:#eceef8"
         offset="0"
         id="stop342" />
      <stop
         style="stop-opacity:1;stop-color:#8ba0c9"
         offset="1"
         id="stop344" />
    </linearGradient>
    <clipPath
       clipPathUnits="userSpaceOnUse"
       id="clipPath352">
      <path
         d="m 157.215,114.57 0.0496,0 0,0.062 -0.0496,0 0,-0.062 z"
         id="path354"
         inkscape:connector-curvature="0" />
    </clipPath>
    <clipPath
       clipPathUnits="userSpaceOnUse"
       id="clipPath376">
      <path
         d="m 159.396,113.668 0.51239,0 0,0.0964 -0.51239,0 0,-0.0964 z"
         id="path378"
         inkscape:connector-curvature="0" />
    </clipPath>
    <linearGradient
       x1="0"
       y1="0"
       x2="1"
       y2="0"
       gradientUnits="userSpaceOnUse"
       gradientTransform="matrix(-4.1882,4.8,4.8,4.1882,160.195,114.825)"
       spreadMethod="pad"
       id="linearGradient388">
      <stop
         style="stop-opacity:1;stop-color:#118542"
         offset="0"
         id="stop390" />
      <stop
         style="stop-opacity:1;stop-color:#0b6c37"
         offset="1"
         id="stop392" />
    </linearGradient>
    <clipPath
       clipPathUnits="userSpaceOnUse"
       id="clipPath400">
      <path
         d="m 157.157,113.661 4.4689,0 0,3.6362 -4.4689,0 0,-3.6362 z"
         id="path402"
         inkscape:connector-curvature="0" />
    </clipPath>
    <clipPath
       clipPathUnits="userSpaceOnUse"
       id="clipPath424">
      <path
         d="m 160.43,116.595 0.97449,0 0,0.71625 -0.97449,0 0,-0.71625 z"
         id="path426"
         inkscape:connector-curvature="0" />
    </clipPath>
    <linearGradient
       x1="0"
       y1="0"
       x2="1"
       y2="0"
       gradientUnits="userSpaceOnUse"
       gradientTransform="matrix(-4.1882,4.8,4.8,4.1882,160.195,114.825)"
       spreadMethod="pad"
       id="linearGradient436">
      <stop
         style="stop-opacity:1;stop-color:#eb7723"
         offset="0"
         id="stop438" />
      <stop
         style="stop-opacity:1;stop-color:#9d5525"
         offset="1"
         id="stop440" />
    </linearGradient>
    <clipPath
       clipPathUnits="userSpaceOnUse"
       id="clipPath448">
      <path
         d="m 157.532,114.481 1.8787,0 0,1.887 -1.8787,0 0,-1.887 z"
         id="path450"
         inkscape:connector-curvature="0" />
    </clipPath>
    <linearGradient
       x1="0"
       y1="0"
       x2="1"
       y2="0"
       gradientUnits="userSpaceOnUse"
       gradientTransform="matrix(-4.1882,4.8,4.8,4.1882,160.195,114.825)"
       spreadMethod="pad"
       id="linearGradient460">
      <stop
         style="stop-opacity:1;stop-color:#e21e26"
         offset="0"
         id="stop462" />
      <stop
         style="stop-opacity:1;stop-color:#9a2327"
         offset="1"
         id="stop464" />
    </linearGradient>
    <linearGradient
       inkscape:collect="always"
       xlink:href="#linearGradient316"
       id="linearGradient4938"
       gradientUnits="userSpaceOnUse"
       gradientTransform="matrix(-4.1882,4.8,4.8,4.1882,160.195,114.825)"
       spreadMethod="pad"
       x1="0"
       y1="0"
       x2="1"
       y2="0" />
    <linearGradient
       inkscape:collect="always"
       xlink:href="#linearGradient316"
       id="linearGradient4940"
       gradientUnits="userSpaceOnUse"
       gradientTransform="matrix(-4.1882,4.8,4.8,4.1882,160.195,114.825)"
       spreadMethod="pad"
       x1="0"
       y1="0"
       x2="1"
       y2="0" />
    <linearGradient
       inkscape:collect="always"
       xlink:href="#linearGradient316"
       id="linearGradient4942"
       gradientUnits="userSpaceOnUse"
       gradientTransform="matrix(-4.1882,4.8,4.8,4.1882,160.195,114.825)"
       spreadMethod="pad"
       x1="0"
       y1="0"
       x2="1"
       y2="0" />
  </defs>
  <sodipodi:namedview
     id="base"
     pagecolor="#ffffff"
     bordercolor="#666666"
     borderopacity="1.0"
     inkscape:pageopacity="0.0"
     inkscape:pageshadow="2"
     inkscape:zoom="2.6550001"
     inkscape:cx="69.607026"
     inkscape:cy="99.999997"
     inkscape:document-units="px"
     inkscape:current-layer="layer1"
     showgrid="false"
     fit-margin-top="0"
     fit-margin-left="0"
     fit-margin-right="0"
     fit-margin-bottom="0"
     inkscape:window-width="1366"
     inkscape:window-height="706"
     inkscape:window-x="-8"
     inkscape:window-y="-8"
     inkscape:window-maximized="1" />
  <metadata
     id="metadata4607">
    <rdf:RDF>
      <cc:Work
         rdf:about="">
        <dc:format>image/svg+xml</dc:format>
        <dc:type
           rdf:resource="http://purl.org/dc/dcmitype/StillImage" />
        <dc:title></dc:title>
      </cc:Work>
    </rdf:RDF>
  </metadata>
  <g
     inkscape:label="Calque 1"
     inkscape:groupmode="layer"
     id="layer1"
     transform="translate(-256.08544,-385.83321)">
    <g
       transform="matrix(5.6708631,0,0,-5.6708631,-553.88391,1129.238)"
       id="g4298">
      <g
         transform="translate(155.148,95.914)"
         id="g248">
        <path
           inkscape:connector-curvature="0"
           id="path250"
           style="fill:#ffffff;fill-opacity:1;fill-rule:nonzero;stroke:none"
           d="m 0,0 c -6.728,0 -10.544,1.839 -10.704,1.921 -0.97,0.476 -1.526,1.364 -1.526,2.431 l 0.045,26.487 c 0,1.068 0.548,1.963 1.504,2.452 0.032,0.014 3.678,1.797 10.595,1.797 6.883,0 10.665,-1.783 10.701,-1.804 0.965,-0.482 1.519,-1.37 1.519,-2.445 L 12.143,4.277 c 0,-1.061 -0.554,-1.949 -1.52,-2.445 L 10.597,1.825 C 10.194,1.632 6.477,0 0,0" />
      </g>
      <g
         transform="translate(155.148,95.914)"
         id="g252">
        <path
           inkscape:connector-curvature="0"
           id="path254"
           style="fill:#b2b3b0;fill-opacity:1;fill-rule:nonzero;stroke:none"
           d="m 0,0 0,-0.09 c -6.744,0 -10.574,1.846 -10.743,1.929 -0.998,0.489 -1.577,1.412 -1.575,2.513 l 0.046,26.487 c -0.002,1.102 0.568,2.025 1.551,2.528 0.044,0.02 3.701,1.811 10.635,1.811 6.899,0 10.692,-1.791 10.741,-1.811 0.992,-0.496 1.568,-1.419 1.567,-2.528 L 12.231,4.277 C 12.232,3.189 11.656,2.259 10.663,1.756 l -0.027,-0.014 -0.002,0 C 10.221,1.55 6.492,-0.09 0,-0.09 l 0,0.18 c 6.462,0 10.166,1.632 10.56,1.811 l 0.037,-0.076 -0.04,0.076 0.027,0.013 c 0.938,0.476 1.469,1.337 1.471,2.363 l -0.01,26.562 c -10e-4,1.047 -0.532,1.901 -1.469,2.369 -0.024,0.007 -3.795,1.791 -10.662,1.791 -6.901,0 -10.536,-1.777 -10.555,-1.791 -0.928,-0.475 -1.454,-1.329 -1.455,-2.369 L -12.141,4.352 C -12.14,3.313 -11.607,2.465 -10.665,1.997 -10.515,1.921 -6.712,0.09 0,0.09 L 0,0" />
      </g>
      <g
         transform="translate(165.152,112.787)"
         id="g256">
        <path
           inkscape:connector-curvature="0"
           id="path258"
           style="fill:#ffffff;fill-opacity:1;fill-rule:nonzero;stroke:none"
           d="m 0,0 c -0.032,-0.014 -3.711,-1.687 -10.009,-1.715 l 0,-0.007 -0.182,0 0,0.007 c -6.298,0.028 -9.876,1.777 -9.907,1.798 -0.476,0.234 -0.707,0.599 -0.707,1.102 l 0.035,12.781 c 0,0.503 0.238,0.882 0.711,1.123 0.148,0.069 3.695,1.784 9.955,1.784 l 0.009,0 c 6.259,0 9.948,-1.708 10.095,-1.784 0.472,-0.241 0.711,-0.62 0.711,-1.123 L 0.707,1.102 C 0.707,0.599 0.475,0.234 0,0" />
      </g>
      <g
         transform="translate(166.476,127.318)"
         id="g260">
        <path
           inkscape:connector-curvature="0"
           id="path262"
           style="fill:#118542;fill-opacity:1;fill-rule:nonzero;stroke:none"
           d="m 0,0 c 0,0.558 -0.377,1.005 -1.06,1.26 -0.034,0.014 -3.792,1.619 -10.415,1.619 -6.702,0 -10.138,-1.598 -10.171,-1.612 C -22.324,1.005 -22.697,0.558 -22.697,0 l -0.046,-20.853 -0.001,-0.138 0.002,-0.165 c 0.191,0.151 0.489,0.351 0.946,0.516 l 0.028,0.007 c 4.216,1.495 8.263,1.495 9.992,1.495 l 0.78,0 c 1.728,0 5.777,0 9.993,-1.495 l 0.028,-0.007 c 0.469,-0.165 0.783,-0.372 0.984,-0.53 l 0,0.062 c 0,0.062 0,0.131 -10e-4,0.2 L 0,0" />
      </g>
      <g
         transform="translate(165.162,115.39)"
         id="g264">
        <path
           inkscape:connector-curvature="0"
           id="path266"
           style="fill:#ffffff;fill-opacity:1;fill-rule:nonzero;stroke:none"
           d="m 0,0 c -0.032,-0.021 -3.711,-1.426 -10.009,-1.46 l -0.182,0 c -6.298,0.034 -9.876,1.508 -9.908,1.529 -0.475,0.2 -0.706,0.503 -0.706,0.93 l 0.035,10.812 c 0,0.427 0.238,0.744 0.711,0.95 0.148,0.062 3.695,1.509 9.954,1.509 l 0.01,0 c 6.258,0 9.947,-1.447 10.095,-1.509 0.472,-0.206 0.71,-0.523 0.71,-0.95 L 0.707,0.93 C 0.707,0.503 0.475,0.2 0,0" />
      </g>
      <g
         transform="translate(158.609,126.009)"
         id="g268">
        <path
           inkscape:connector-curvature="0"
           id="path270"
           style="fill:#0460a8;fill-opacity:1;fill-rule:nonzero;stroke:none"
           d="m 0,0 c -0.524,0.014 -1.061,0.434 -1.336,1.04 -0.198,0.441 -0.227,0.923 -0.074,1.288 0.102,0.248 0.279,0.427 0.509,0.516 0.111,0.042 0.228,0.062 0.352,0.055 C -0.025,2.886 0.512,2.465 0.786,1.853 0.986,1.412 1.014,0.937 0.863,0.572 0.758,0.324 0.582,0.145 0.351,0.055 0.242,0.014 0.123,-0.007 0,0" />
      </g>
      <g
         transform="translate(149.665,115.404)"
         id="g272">
        <path
           inkscape:connector-curvature="0"
           id="path274"
           style="fill:#eb7723;fill-opacity:1;fill-rule:nonzero;stroke:none"
           d="M 0,0 C -0.092,0.007 -0.177,0.062 -0.238,0.172 L -0.244,0.186 C -0.559,1.067 -0.122,2.3 1.567,3.044 2.3,3.375 2.855,3.657 3.26,3.919 3.917,4.346 3.892,4.986 3.777,5.234 3.741,5.31 3.702,5.413 3.755,5.489 3.778,5.523 3.823,5.558 3.914,5.558 4.005,5.551 4.123,5.509 4.237,5.468 4.528,5.351 5.21,5.027 5.233,4.449 5.258,3.774 4.373,3.003 2.6,2.162 0.92,1.364 0.353,0.331 0.294,0.214 L 0.291,0.207 C 0.199,0.069 0.102,0 0,0" />
      </g>
      <g
         transform="translate(155.892,114.915)"
         id="g276">
        <path
           inkscape:connector-curvature="0"
           id="path278"
           style="fill:#118542;fill-opacity:1;fill-rule:nonzero;stroke:none"
           d="m 0,0 -0.072,0.014 c -0.91,0.268 -1.281,1.088 -1.311,1.418 -0.035,0.4 0,0.834 0.502,1.275 0.382,0.337 0.89,0.654 1.382,0.957 C 1.307,4.167 2.14,4.69 2.229,5.206 2.259,5.379 2.2,5.558 2.05,5.737 1.68,6.171 0.635,6.26 -0.286,6.336 -1.244,6.412 -2.071,6.481 -2.309,6.88 c -0.046,0.076 -0.055,0.158 -0.029,0.248 0.107,0.358 0.851,0.757 1.713,1.219 1.004,0.537 2.254,1.205 2.153,1.742 -0.11,0.592 -1.722,1.068 -4.792,1.426 -0.83,0.138 -2.773,1.15 -2.721,1.584 0.023,0.199 0.321,0.193 0.42,0.193 0.06,0 0.126,-0.007 0.2,-0.014 3.081,-0.344 7.275,-1.86 7.594,-3.072 C 2.414,9.504 1.455,8.912 0.608,8.395 0.094,8.078 -0.489,7.72 -0.395,7.52 -0.309,7.341 0.395,7.211 1.076,7.087 2.222,6.88 3.649,6.618 3.985,5.895 4.391,5.021 3.221,4.098 1.981,3.127 1.351,2.631 0.7,2.114 0.257,1.605 -0.052,1.123 0.069,0.682 0.225,0.393 0.278,0.296 0.278,0.2 0.226,0.117 0.178,0.041 0.092,0 0,0" />
      </g>
      <g
         transform="translate(161.623,114.495)"
         id="g280">
        <path
           inkscape:connector-curvature="0"
           id="path282"
           style="fill:#0e8040;fill-opacity:1;fill-rule:nonzero;stroke:none"
           d="m 0,0 c -0.217,-0.041 -0.443,-0.076 -0.678,-0.117 -0.107,-0.103 -0.227,-0.207 -0.359,-0.289 -0.058,-0.042 -0.117,-0.076 -0.177,-0.111 -0.378,-0.213 -0.793,-0.316 -1.207,-0.316 -0.004,0 -0.008,0 -0.011,0 -0.37,0 -0.737,0.082 -1.071,0.234 0.278,-0.365 0.79,-0.558 1.358,-0.558 0.493,0 1.027,0.145 1.487,0.455 C -0.372,-0.51 -0.153,-0.269 0,0" />
      </g>
      <g
         transform="translate(161.601,116.34)"
         id="g284">
        <path
           inkscape:connector-curvature="0"
           id="path286"
           style="fill:#eceef8;fill-opacity:1;fill-rule:nonzero;stroke:none"
           d="m 0,0 c 0.015,-0.103 0.023,-0.207 0.025,-0.317 0,-0.014 0,-0.02 0,-0.034 C 0.024,-0.42 0.02,-0.489 0.014,-0.558 c -0.052,-0.516 -0.281,-1.012 -0.67,-1.405 0.236,0.042 0.462,0.076 0.678,0.117 0.345,0.6 0.347,1.316 0,1.819 L 0,0" />
      </g>
      <g
         transform="translate(160.586,114.088)"
         id="g288">
        <path
           inkscape:connector-curvature="0"
           id="path290"
           style="fill:#ffffff;fill-opacity:1;fill-rule:evenodd;stroke:none"
           d="M 0,0 C 1.039,0.695 1.337,2.032 0.722,3.071 0.032,3.368 -0.786,3.264 -1.754,2.376 -2.329,1.846 -2.951,1.226 -3.43,0.627 L -3.394,0.572 C -2.622,-0.489 -1.103,-0.744 0,0" />
      </g>
      <g
         transform="translate(161.404,116.774)"
         id="g292">
        <path
           inkscape:connector-curvature="0"
           id="path294"
           style="fill:#eb7723;fill-opacity:1;fill-rule:nonzero;stroke:none"
           d="m 0,0 c -0.069,-0.193 -0.304,-0.234 -0.522,-0.096 -0.218,0.144 -0.434,0.468 -0.479,0.73 l -0.013,0.068 c -0.045,0.262 -0.031,0.489 0.031,0.51 0.063,0.014 0.305,-0.069 0.54,-0.193 0,0 0.319,-0.165 0.443,-1.019" />
      </g>
      <g
         transform="translate(157.914,116.216)"
         id="g296">
        <path
           inkscape:connector-curvature="0"
           id="path298"
           style="fill:#e21e26;fill-opacity:1;fill-rule:nonzero;stroke:none"
           d="M 0,0 C 0.191,0.179 0.547,0.255 0.793,0.158 L 1.074,0.048 C 1.319,-0.048 1.509,-0.344 1.496,-0.606 L 1.481,-0.895 C 1.468,-1.157 1.266,-1.474 1.031,-1.598 L 0.952,-1.639 C 0.718,-1.756 0.336,-1.763 0.104,-1.653 c -0.232,0.11 -0.459,0.413 -0.506,0.675 l -0.006,0.034 c -0.046,0.262 0.072,0.62 0.263,0.806 L 0,0" />
      </g>
      <g
         id="g300">
        <g
           clip-path="url(#clipPath304)"
           id="g302">
          <g
             id="g308">
            <g
               id="g314">
              <path
                 inkscape:connector-curvature="0"
                 id="path322"
                 style="fill:url(#linearGradient4938);stroke:none"
                 d="m 161.583,116.444 0,0.006 0,-0.006 m 0.007,-0.035 c -0.002,0.007 -0.002,0.014 -0.004,0.021 0.002,-0.007 0.002,-0.014 0.004,-0.021 m 0.011,-0.069 c -0.001,0.007 -0.003,0.021 -0.004,0.028 -0.001,0.007 -0.002,0.014 -0.003,0.021 -0.001,0 -0.001,0.006 -0.002,0.006 0,0 0,0.007 -0.001,0.007 0.003,-0.02 0.007,-0.041 0.01,-0.062" />
            </g>
          </g>
        </g>
      </g>
      <g
         id="g324">
        <g
           clip-path="url(#clipPath328)"
           id="g326">
          <g
             id="g332">
            <g
               id="g338">
              <path
                 inkscape:connector-curvature="0"
                 id="path346"
                 style="fill:url(#linearGradient340);stroke:none"
                 d="m 161.601,116.34 c 0.004,-0.034 0.009,-0.062 0.012,-0.089 -0.003,0.02 -0.005,0.041 -0.008,0.062 -10e-4,0.007 -10e-4,0.007 -0.002,0.014 0,0.006 -0.001,0.006 -0.002,0.013 z m 0.013,-0.11 c 0,0.007 0,0.007 0,0.007 0,0 0,0 0,-0.007 m 0.01,-0.317 c 0,0.007 0.001,0.007 0.001,0.014 0,-0.007 -0.001,-0.007 -0.001,-0.014 m -0.005,-0.075 c 0.002,0.02 0.004,0.048 0.005,0.068 -0.001,-0.02 -0.003,-0.048 -0.005,-0.068" />
            </g>
          </g>
        </g>
      </g>
      <g
         id="g348">
        <g
           clip-path="url(#clipPath352)"
           id="g350">
          <g
             id="g356">
            <g
               id="g362">
              <path
                 inkscape:connector-curvature="0"
                 id="path370"
                 style="fill:url(#linearGradient4940);stroke:none"
                 d="m 157.216,114.632 c -0.001,0 -0.001,0 -0.001,0 l 0.001,0 m 0.025,-0.034 c -0.001,0 -0.003,0.007 -0.005,0.007 0.002,0 0.004,-0.007 0.005,-0.007 m 0.024,-0.028 c -0.002,0 -0.004,0 -0.006,0.007 0.002,-0.007 0.004,-0.007 0.006,-0.007" />
            </g>
          </g>
        </g>
      </g>
      <g
         id="g372">
        <g
           clip-path="url(#clipPath376)"
           id="g374">
          <g
             id="g380">
            <g
               id="g386">
              <path
                 inkscape:connector-curvature="0"
                 id="path394"
                 style="fill:url(#linearGradient388);stroke:none"
                 d="m 159.406,113.668 c 0.169,0.014 0.338,0.048 0.503,0.097 -0.165,-0.049 -0.334,-0.083 -0.503,-0.097 m -0.01,0 c 0.002,0 0.003,0 0.004,0 -0.001,0 -0.002,0 -0.004,0" />
            </g>
          </g>
        </g>
      </g>
      <g
         id="g396">
        <g
           clip-path="url(#clipPath400)"
           id="g398">
          <g
             id="g404">
            <g
               id="g410">
              <path
                 inkscape:connector-curvature="0"
                 id="path418"
                 style="fill:url(#linearGradient4942);stroke:none"
                 d="m 159.918,117.174 c -0.001,0 -0.001,0 -0.002,0 -0.007,0 -0.014,-0.007 -0.021,-0.007 -0.002,0 -0.004,0 -0.005,0 -0.006,-0.007 -0.012,-0.007 -0.019,-0.007 -0.002,-0.007 -0.005,-0.007 -0.008,-0.007 -0.005,0 -0.011,-0.007 -0.016,-0.007 -0.004,0 -0.007,0 -0.011,-0.007 -0.005,0 -0.009,0 -0.014,0 -0.005,-0.007 -0.011,-0.007 -0.015,-0.007 -0.004,-0.007 -0.007,-0.007 -0.011,-0.007 -0.018,-0.007 -0.035,-0.013 -0.053,-0.027 -0.001,0 -0.001,0 -0.002,0 -0.008,0 -0.017,-0.007 -0.026,-0.014 -0.001,0 -0.001,0 -0.002,0 -0.009,0 -0.017,-0.007 -0.026,-0.014 0,0 -0.001,0 -0.002,0 -0.008,0 -0.017,-0.007 -0.026,-0.014 0,0 0,0 -0.001,0 -0.234,-0.117 -0.477,-0.289 -0.732,-0.509 l -10e-4,0 c -0.009,-0.014 -0.019,-0.021 -0.029,-0.028 0,0 -10e-4,0 -0.002,0 -0.009,-0.013 -0.019,-0.02 -0.029,-0.027 0,0 0,0 -0.001,0 -0.01,-0.014 -0.021,-0.021 -0.03,-0.028 -0.036,-0.034 -0.071,-0.069 -0.106,-0.096 l 0.26,-0.103 c 0.245,-0.097 0.435,-0.393 0.423,-0.655 l -0.015,-0.289 c -0.014,-0.262 -0.216,-0.578 -0.451,-0.702 l -0.078,-0.042 c -0.124,-0.062 -0.288,-0.096 -0.449,-0.096 -0.146,0 -0.29,0.027 -0.4,0.083 -0.208,0.096 -0.412,0.358 -0.486,0.592 -0.132,-0.145 -0.258,-0.296 -0.375,-0.441 l 0.036,-0.055 c 0.008,-0.007 0.015,-0.021 0.022,-0.028 0,0 0,0 0.001,0 0.006,-0.013 0.013,-0.02 0.02,-0.027 0.002,0 0.004,-0.007 0.005,-0.007 0.007,-0.007 0.012,-0.014 0.018,-0.021 0.002,-0.007 0.004,-0.007 0.006,-0.007 0.099,-0.124 0.209,-0.234 0.327,-0.337 0.003,0 0.005,0 0.008,-0.007 0.006,-0.007 0.013,-0.007 0.018,-0.014 0.005,0 0.009,-0.007 0.014,-0.007 0.004,-0.007 0.008,-0.007 0.012,-0.013 0.006,-0.007 0.011,-0.007 0.017,-0.014 0.003,0 0.007,-0.007 0.009,-0.007 0.007,-0.007 0.013,-0.007 0.02,-0.014 0.002,0 0.004,-0.007 0.007,-0.007 0.007,-0.007 0.015,-0.007 0.022,-0.013 0.001,0 0.002,0 0.004,-0.007 0.008,0 0.016,-0.007 0.025,-0.014 0,0 0,0 0,0 0.401,-0.282 0.879,-0.441 1.366,-0.455 0,0 0,0 0.001,0 0.01,0 0.021,0 0.031,0 0.002,0 0.002,0 0.004,0 0.01,0 0.02,0 0.031,0 l 0.024,0 c 0.063,0 0.126,0 0.19,0.007 10e-4,0 10e-4,0 10e-4,0 0.002,0 0.003,0 0.004,0 0.001,0 0.002,0 0.003,0 0.001,0 0.002,0 0.003,0 0.169,0.014 0.338,0.048 0.503,0.097 0.003,0 0.006,0 0.009,0.006 0.092,0.028 0.183,0.056 0.272,0.097 0.137,0.062 0.269,0.131 0.397,0.22 0.008,0 0.017,0.007 0.026,0.014 0.004,0.007 0.007,0.007 0.01,0.007 0.005,0.007 0.011,0.007 0.016,0.014 0.004,0 0.008,0.007 0.012,0.007 0.004,0.007 0.009,0.007 0.013,0.007 0.004,0.006 0.009,0.006 0.013,0.013 0.004,0 0.008,0.007 0.012,0.007 0.005,0.007 0.009,0.007 0.014,0.014 0.003,0 0.007,0 0.009,0.007 0.006,0 0.011,0.007 0.015,0.007 0.002,0.007 0.002,0.007 0.004,0.007 0.013,0.006 0.026,0.02 0.039,0.027 10e-4,0 0.002,0.007 0.003,0.007 0.005,0 0.012,0.007 0.017,0.014 0.002,0 0.004,0 0.006,0.007 0.006,0 0.011,0.007 0.017,0.014 0.002,0 0.004,0 0.007,0 0.005,0.006 0.011,0.013 0.016,0.013 0.002,0.007 0.004,0.007 0.005,0.007 0.006,0.007 0.012,0.014 0.018,0.014 0.001,0 0.001,0.007 0.002,0.007 0.027,0.02 0.053,0.048 0.079,0.076 0,0 0.001,0 0.002,0 0.006,0.006 0.012,0.013 0.018,0.013 0,0.007 0.002,0.007 0.002,0.007 0.006,0.007 0.012,0.014 0.018,0.014 0.001,0.007 0.001,0.007 0.002,0.007 0.031,0.027 0.062,0.062 0.091,0.096 0.001,0 0.001,0 0.002,0.007 0.005,0.007 0.011,0.007 0.016,0.014 0.001,0.007 0.001,0.007 0.001,0.007 0.006,0.007 0.011,0.014 0.017,0.021 0.001,0 0.001,0 0.001,0 0.029,0.034 0.056,0.068 0.082,0.103 0.001,0 0.001,0 0.001,0.007 0.005,0.007 0.01,0.014 0.015,0.02 0.001,0 0.001,0 0.002,0 0.004,0.007 0.009,0.014 0.014,0.021 l 0.001,0 c 0.025,0.034 0.049,0.076 0.073,0.117 0.004,0.007 0.009,0.014 0.013,0.021 0,0 0,0 0.001,0 0.004,0.007 0.008,0.014 0.013,0.02 0.022,0.042 0.043,0.083 0.063,0.117 0,0.007 0.001,0.007 0.001,0.007 0.004,0.007 0.007,0.014 0.011,0.021 0,0 0,0 0.001,0 0.023,0.048 0.044,0.096 0.063,0.145 l 0.001,0.007 c 0.003,0.006 0.006,0.013 0.009,0.02 0.001,0 0.001,0 0.001,0 0.019,0.048 0.036,0.104 0.051,0.152 0,0 0,0 10e-4,0 0.002,0.007 0.005,0.02 0.007,0.027 l 0.001,0 c 0.012,0.042 0.023,0.083 0.033,0.124 0.002,0.014 0.004,0.021 0.005,0.028 0.001,0 0.001,0 0.001,0 0.002,0.014 0.003,0.02 0.005,0.027 0.009,0.042 0.017,0.09 0.023,0.131 0.001,0.007 0.003,0.014 0.003,0.028 l 0.001,0 c 0.006,0.041 0.011,0.082 0.013,0.131 0.002,0.02 0.004,0.048 0.005,0.068 0,0.007 0,0.007 0,0.007 0,0.007 0.001,0.007 0.001,0.014 0.005,0.131 -0.002,0.255 -0.02,0.386 -10e-4,0.007 -10e-4,0.007 -0.002,0.014 0,0.006 -0.001,0.006 -0.002,0.013 -0.001,0.007 -0.003,0.021 -0.004,0.028 -0.001,0.007 -0.002,0.014 -0.003,0.021 -0.001,0 -0.001,0.006 -0.002,0.006 -0.038,0.221 -0.109,0.434 -0.214,0.641 -10e-4,0 -0.003,0.007 -0.003,0.007 -0.003,0.007 -0.006,0.007 -0.008,0.013 -0.004,0.007 -0.008,0.014 -0.011,0.021 -0.001,0 -0.002,0.007 -0.003,0.007 -0.005,0.007 -0.01,0.021 -0.015,0.028 0.024,-0.097 0.048,-0.214 0.066,-0.338 -0.042,-0.117 -0.142,-0.179 -0.264,-0.179 -0.081,0 -0.171,0.028 -0.258,0.083 -0.189,0.124 -0.376,0.385 -0.452,0.62 -0.165,-0.014 -0.336,-0.056 -0.512,-0.124" />
            </g>
          </g>
        </g>
      </g>
      <g
         id="g420">
        <g
           clip-path="url(#clipPath424)"
           id="g422">
          <g
             id="g428">
            <g
               id="g434">
              <path
                 inkscape:connector-curvature="0"
                 id="path442"
                 style="fill:url(#linearGradient436);stroke:none"
                 d="m 160.584,117.311 c -0.005,0 -0.009,0 -0.014,0 -0.002,0 -0.005,0 -0.008,0 -0.043,-0.007 -0.087,-0.007 -0.132,-0.013 0.076,-0.235 0.263,-0.496 0.452,-0.62 0.087,-0.055 0.177,-0.083 0.258,-0.083 0.122,0 0.222,0.062 0.264,0.179 -0.018,0.124 -0.042,0.241 -0.066,0.338 -0.002,0 -0.003,0.006 -0.004,0.006 -0.008,0.014 -0.017,0.028 -0.026,0.042 -0.22,0.096 -0.453,0.151 -0.701,0.151 -0.008,0 -0.015,0 -0.023,0" />
            </g>
          </g>
        </g>
      </g>
      <g
         id="g444">
        <g
           clip-path="url(#clipPath448)"
           id="g446">
          <g
             id="g452">
            <g
               id="g458">
              <path
                 inkscape:connector-curvature="0"
                 id="path466"
                 style="fill:url(#linearGradient460);stroke:none"
                 d="m 158.412,116.065 c -0.302,-0.289 -0.603,-0.599 -0.88,-0.909 0.074,-0.234 0.278,-0.496 0.486,-0.592 0.11,-0.056 0.254,-0.083 0.4,-0.083 0.161,0 0.325,0.034 0.449,0.096 l 0.078,0.042 c 0.235,0.124 0.437,0.44 0.451,0.702 l 0.015,0.289 c 0.012,0.262 -0.178,0.558 -0.423,0.655 l -0.26,0.103 c -0.104,-0.103 -0.21,-0.2 -0.316,-0.303" />
            </g>
          </g>
        </g>
      </g>
      <g
         transform="translate(159.721,113.93)"
         id="g468">
        <path
           inkscape:connector-curvature="0"
           id="path470"
           style="fill:#0460a8;fill-opacity:1;fill-rule:nonzero;stroke:none"
           d="M 0,0 C 0.001,0.014 0.07,0.138 0.153,0.282 0.237,0.434 0.45,0.641 0.626,0.744 L 0.992,0.971 C 1.169,1.081 1.346,1.143 1.386,1.123 1.426,1.095 1.41,0.916 1.352,0.716 c 0,0 -0.088,-0.303 -1.298,-0.695" />
      </g>
      <g
         transform="translate(151.635,97.209)"
         id="g472">
        <path
           inkscape:connector-curvature="0"
           id="path474"
           style="fill:#118542;fill-opacity:1;fill-rule:nonzero;stroke:none"
           d="m 0,0 -0.08,-0.813 c 0,0 -2.469,0.214 -4.95,0.964 -2.706,0.82 -2.808,1.398 -2.808,1.398 l 0,0.923 c 0,0 0.304,-0.564 1.156,-0.909 C -5.98,1.281 -3.924,0.434 0,0" />
      </g>
      <g
         transform="translate(158.643,97.14)"
         id="g476">
        <path
           inkscape:connector-curvature="0"
           id="path478"
           style="fill:#e21e26;fill-opacity:1;fill-rule:nonzero;stroke:none"
           d="m 0,0 0.081,-0.813 c 0,0 2.468,0.214 4.949,0.965 2.707,0.826 2.808,1.404 2.808,1.404 l 0,0.916 c 0,0 -0.304,-0.564 -1.156,-0.909 C 5.98,1.281 3.924,0.434 0,0" />
      </g>
      <g
         transform="translate(147.895,110.418)"
         id="g480">
        <path
           inkscape:connector-curvature="0"
           id="path482"
           style="fill:#ffffff;fill-opacity:1;fill-rule:nonzero;stroke:none"
           d="m 0,0 0.647,0 c 0.025,-0.186 0.096,-0.317 0.214,-0.386 0.123,-0.089 0.293,-0.13 0.509,-0.13 0.191,0 0.336,0.034 0.434,0.103 0.1,0.062 0.149,0.165 0.149,0.289 0,0.2 -0.277,0.358 -0.833,0.475 L 1.101,0.365 1.028,0.379 C 0.713,0.448 0.503,0.517 0.398,0.592 0.274,0.661 0.188,0.758 0.139,0.888 0.077,0.999 0.046,1.136 0.046,1.309 c 0,0.296 0.105,0.53 0.315,0.702 0.21,0.165 0.515,0.248 0.916,0.248 0.377,0 0.666,-0.083 0.87,-0.255 C 2.357,1.811 2.468,1.57 2.48,1.26 l -0.37,0 C 1.968,1.26 1.866,1.329 1.804,1.453 L 1.676,1.612 C 1.564,1.687 1.412,1.729 1.222,1.729 1.036,1.729 0.904,1.694 0.824,1.625 0.731,1.563 0.685,1.467 0.685,1.343 0.685,1.178 0.864,1.054 1.222,0.978 1.326,0.944 1.404,0.93 1.453,0.923 1.564,0.888 1.662,0.854 1.744,0.833 1.828,0.813 1.895,0.799 1.943,0.785 2.03,0.751 2.116,0.709 2.202,0.675 2.326,0.599 2.421,0.51 2.49,0.393 2.558,0.262 2.592,0.124 2.592,-0.027 2.592,-0.358 2.48,-0.62 2.258,-0.799 2.036,-0.971 1.722,-1.054 1.315,-1.054 0.895,-1.054 0.58,-0.971 0.371,-0.792 0.142,-0.613 0.019,-0.351 0,0" />
      </g>
      <g
         transform="translate(151.45,110.9)"
         id="g484">
        <path
           inkscape:connector-curvature="0"
           id="path486"
           style="fill:#ffffff;fill-opacity:1;fill-rule:nonzero;stroke:none"
           d="M 0,0 0.944,0 C 0.932,0.165 0.888,0.289 0.815,0.365 0.734,0.454 0.62,0.496 0.472,0.496 0.336,0.496 0.225,0.454 0.139,0.365 0.052,0.282 0.006,0.158 0,0 m 1.11,-0.716 0.463,0 C 1.505,-0.971 1.376,-1.164 1.185,-1.302 0.993,-1.439 0.753,-1.508 0.463,-1.508 c -0.352,0 -0.627,0.11 -0.824,0.337 -0.198,0.221 -0.296,0.53 -0.296,0.944 0,0.392 0.096,0.695 0.287,0.916 0.197,0.227 0.472,0.337 0.823,0.337 0.371,0 0.657,-0.11 0.862,-0.33 C 1.512,0.468 1.61,0.158 1.61,-0.248 l 0,-0.103 -0.009,-0.062 -1.601,0 c 0.006,-0.186 0.052,-0.331 0.139,-0.42 0.08,-0.097 0.201,-0.145 0.361,-0.145 0.105,0 0.194,0.021 0.269,0.062 l 0.05,0.034 0.051,0.049 0.069,0.075 c 0.04,0.028 0.097,0.042 0.171,0.042" />
      </g>
      <g
         transform="translate(153.394,109.433)"
         id="g488">
        <path
           inkscape:connector-curvature="0"
           id="path490"
           style="fill:#ffffff;fill-opacity:1;fill-rule:nonzero;stroke:none"
           d="m 0,0 0,1.184 c 0,0.235 0.035,0.434 0.107,0.6 0.071,0.158 0.167,0.289 0.291,0.392 0.117,0.09 0.255,0.159 0.412,0.2 0.157,0.041 0.319,0.062 0.485,0.062 l 0.093,0 0,-0.647 -0.212,0 C 0.997,1.791 0.864,1.742 0.778,1.66 0.691,1.577 0.647,1.439 0.647,1.253 L 0.647,0" />
      </g>
      <g
         transform="translate(155.135,111.871)"
         id="g492">
        <path
           inkscape:connector-curvature="0"
           id="path494"
           style="fill:#ffffff;fill-opacity:1;fill-rule:nonzero;stroke:none"
           d="m 0,0 0.333,0 c 0.086,0 0.161,-0.027 0.222,-0.09 0.062,-0.061 0.092,-0.137 0.092,-0.22 l 0,-2.128 L 0,-2.438 0,0 Z m 0,0.716 0.333,0 C 0.419,0.716 0.494,0.682 0.555,0.627 0.617,0.565 0.647,0.489 0.647,0.406 l 0,-0.192 -0.647,0" />
      </g>
      <g
         transform="translate(156.644,110.9)"
         id="g496">
        <path
           inkscape:connector-curvature="0"
           id="path498"
           style="fill:#ffffff;fill-opacity:1;fill-rule:nonzero;stroke:none"
           d="M 0,0 0.944,0 C 0.932,0.165 0.888,0.289 0.815,0.365 0.734,0.454 0.62,0.496 0.472,0.496 0.336,0.496 0.225,0.454 0.139,0.365 0.052,0.282 0.006,0.158 0,0 m 1.11,-0.716 0.463,0 C 1.505,-0.971 1.376,-1.164 1.185,-1.302 0.993,-1.439 0.753,-1.508 0.463,-1.508 c -0.352,0 -0.627,0.11 -0.824,0.337 -0.198,0.221 -0.296,0.53 -0.296,0.944 0,0.392 0.096,0.695 0.287,0.916 0.197,0.227 0.472,0.337 0.824,0.337 0.37,0 0.656,-0.11 0.86,-0.33 C 1.512,0.468 1.61,0.158 1.61,-0.248 l 0,-0.103 -0.009,-0.062 -1.601,0 c 0.006,-0.186 0.052,-0.331 0.139,-0.42 0.08,-0.097 0.201,-0.145 0.361,-0.145 0.105,0 0.194,0.021 0.268,0.062 l 0.051,0.034 0.051,0.049 0.069,0.075 c 0.04,0.028 0.097,0.042 0.171,0.042" />
      </g>
      <g
         transform="translate(160.514,110.004)"
         id="g500">
        <path
           inkscape:connector-curvature="0"
           id="path502"
           style="fill:#ffffff;fill-opacity:1;fill-rule:nonzero;stroke:none"
           d="M 0,0 0.778,0 C 0.95,0 1.083,0.034 1.176,0.096 1.262,0.158 1.305,0.262 1.305,0.413 1.305,0.558 1.262,0.661 1.176,0.73 1.095,0.792 0.959,0.819 0.769,0.819 L 0,0.819 0,0 Z m 0,1.364 0.749,0 c 0.161,0 0.279,0.027 0.352,0.082 0.075,0.055 0.111,0.138 0.111,0.255 0,0.117 -0.036,0.2 -0.111,0.255 C 1.039,2.004 0.919,2.032 0.74,2.032 L 0,2.032 0,1.364 Z m -0.629,-1.936 0,2.824 c 0,0.09 0.032,0.172 0.097,0.234 0.064,0.062 0.144,0.097 0.236,0.097 l 1.166,0 c 0.327,0 0.577,-0.069 0.75,-0.2 C 1.793,2.231 1.879,2.032 1.879,1.784 1.879,1.625 1.845,1.494 1.777,1.384 1.709,1.274 1.614,1.191 1.49,1.136 1.651,1.067 1.774,0.971 1.86,0.847 1.941,0.737 1.981,0.578 1.981,0.393 1.981,0.09 1.882,-0.152 1.685,-0.324 1.481,-0.489 1.194,-0.572 0.824,-0.572" />
      </g>
      <g
         transform="translate(161.959,101.286)"
         id="g504">
        <path
           inkscape:connector-curvature="0"
           id="path506"
           style="fill:#005588;fill-opacity:1;fill-rule:nonzero;stroke:none"
           d="m 0,0 c -0.088,0 -0.167,0.014 -0.236,0.048 -0.07,0.028 -0.129,0.069 -0.177,0.117 -0.047,0.049 -0.084,0.11 -0.108,0.179 -0.025,0.069 -0.038,0.145 -0.038,0.235 l 0,0.805 -0.294,0 0,0.138 0.036,0.124 0.09,0.034 0.168,0 0,0.235 0.009,0.075 0.031,0.069 0.064,0.048 0.114,0.021 0.125,0 0,-0.448 0.577,0 0,-0.186 c 0,-0.055 -0.031,-0.11 -0.104,-0.11 l -0.473,0 0,-0.792 c 0,-0.089 0.021,-0.158 0.062,-0.206 0.041,-0.042 0.102,-0.069 0.18,-0.069 l 0.092,0.014 0.074,0.02 0.08,0.035 C 0.337,0.406 0.395,0.379 0.413,0.344 L 0.5,0.158 C 0.5,0.158 0.348,0.069 0.236,0.034 0.163,0.014 0.098,0 0,0" />
      </g>
      <g
         transform="translate(149.432,101.299)"
         id="g508">
        <path
           inkscape:connector-curvature="0"
           id="path510"
           style="fill:#005588;fill-opacity:1;fill-rule:nonzero;stroke:none"
           d="m 0,0 c -0.215,0 -0.415,0.034 -0.598,0.117 -0.184,0.076 -0.343,0.186 -0.478,0.324 -0.135,0.144 -0.24,0.31 -0.317,0.502 -0.075,0.193 -0.113,0.407 -0.113,0.634 0,0.22 0.038,0.434 0.113,0.627 0.077,0.193 0.182,0.358 0.317,0.503 0.135,0.144 0.294,0.254 0.478,0.337 C -0.415,3.127 -0.215,3.168 0,3.168 0.162,3.168 0.317,3.147 0.464,3.12 0.611,3.085 0.853,3.01 0.963,2.961 0.957,2.941 0.883,2.734 0.848,2.645 0.819,2.569 0.739,2.527 0.659,2.548 L 0.426,2.61 C 0.377,2.631 0.319,2.645 0.252,2.658 0.186,2.665 0.108,2.672 0.019,2.672 -0.117,2.672 -0.244,2.651 -0.361,2.596 -0.478,2.541 -0.581,2.472 -0.667,2.376 -0.755,2.28 -0.822,2.162 -0.872,2.025 -0.921,1.894 -0.946,1.742 -0.946,1.577 c 0,-0.172 0.025,-0.324 0.074,-0.461 0.05,-0.131 0.117,-0.248 0.205,-0.345 0.086,-0.089 0.189,-0.165 0.306,-0.206 0.117,-0.048 0.244,-0.076 0.38,-0.076 0.089,0 0.166,0.007 0.231,0.021 C 0.382,0.53 0.621,0.613 0.654,0.62 0.763,0.647 0.82,0.585 0.846,0.523 0.873,0.461 0.963,0.2 0.963,0.2 0.831,0.138 0.627,0.076 0.485,0.041 0.342,0.014 0.181,0 0,0" />
      </g>
      <g
         transform="translate(153.496,101.313)"
         id="g512">
        <path
           inkscape:connector-curvature="0"
           id="path514"
           style="fill:#005588;fill-opacity:1;fill-rule:nonzero;stroke:none"
           d="m 0,0 -0.301,0 0,2.348 0.334,0 c 0.128,0 0.174,-0.048 0.174,-0.185 l 0,-0.173 c 0.079,0.111 0.183,0.207 0.312,0.276 0.128,0.076 0.273,0.11 0.435,0.11 0.257,0 0.459,-0.09 0.608,-0.255 C 1.711,1.956 1.785,1.708 1.785,1.398 l 0,-1.171 C 1.785,0.103 1.76,0 1.593,0 l -0.326,0 0,1.336 C 1.267,1.543 1.223,1.694 1.134,1.791 1.046,1.88 0.921,1.928 0.759,1.928 0.657,1.928 0.512,1.901 0.426,1.818 0.3,1.701 0.216,1.488 0.216,1.205 l 0,-0.978 C 0.216,0.096 0.173,0 0,0" />
      </g>
      <g
         transform="translate(151.682,103.682)"
         id="g516">
        <path
           inkscape:connector-curvature="0"
           id="path518"
           style="fill:#005588;fill-opacity:1;fill-rule:nonzero;stroke:none"
           d="m 0,0 c -0.658,0 -1.191,-0.537 -1.191,-1.198 0,-0.661 0.533,-1.199 1.191,-1.199 0.658,0 1.191,0.538 1.191,1.199 C 1.191,-0.537 0.658,0 0,0 m 0,-1.908 c -0.392,0 -0.709,0.317 -0.709,0.71 0,0.392 0.317,0.709 0.709,0.709 0.391,0 0.709,-0.317 0.709,-0.709 0,-0.393 -0.318,-0.71 -0.709,-0.71" />
      </g>
      <g
         transform="translate(156.428,101.313)"
         id="g520">
        <path
           inkscape:connector-curvature="0"
           id="path522"
           style="fill:#d41f32;fill-opacity:1;fill-rule:nonzero;stroke:none"
           d="m 0,0 -0.261,0 0,2.645 -0.97,0 0,0.289 c 0,0.124 0.03,0.193 0.195,0.193 l 2.267,0 0,-0.317 C 1.231,2.7 1.158,2.645 1.051,2.645 l -0.779,0 L 0.271,0.22 C 0.271,0.041 0.163,0 0,0" />
      </g>
      <g
         transform="translate(158.547,101.286)"
         id="g524">
        <path
           inkscape:connector-curvature="0"
           id="path526"
           style="fill:#d41f32;fill-opacity:1;fill-rule:nonzero;stroke:none"
           d="m 0,0 c -0.193,0 -0.366,0.034 -0.518,0.096 -0.152,0.056 -0.28,0.145 -0.385,0.248 -0.105,0.111 -0.184,0.241 -0.24,0.386 -0.055,0.152 -0.083,0.31 -0.083,0.482 0,0.172 0.028,0.331 0.086,0.475 0.057,0.138 0.135,0.269 0.235,0.372 0.1,0.11 0.218,0.193 0.354,0.255 0.136,0.055 0.283,0.089 0.442,0.089 0.176,0 0.334,-0.034 0.471,-0.096 C 0.498,2.238 0.612,2.149 0.701,2.045 0.791,1.935 0.859,1.811 0.906,1.673 0.951,1.543 0.974,1.398 0.974,1.26 0.974,1.178 0.966,1.095 0.95,1.019 l -1.648,0 C -0.676,0.833 -0.605,0.696 -0.482,0.599 -0.36,0.503 -0.199,0.455 0,0.455 c 0.085,0 0.16,0 0.223,0.013 0.063,0.014 0.121,0.028 0.172,0.048 0.05,0.014 0.189,0.063 0.261,0.063 L 0.812,0.489 0.915,0.227 C 0.778,0.152 0.627,0.103 0.485,0.062 0.342,0.021 0.181,0 0,0 M 0.489,1.391 C 0.473,1.563 0.416,1.708 0.316,1.825 0.216,1.942 0.075,1.997 -0.109,1.997 -0.284,1.997 -0.422,1.942 -0.525,1.832 -0.628,1.715 -0.687,1.57 -0.703,1.391" />
      </g>
      <g
         transform="translate(160.764,103.29)"
         id="g528">
        <path
           inkscape:connector-curvature="0"
           id="path530"
           style="fill:#005588;fill-opacity:1;fill-rule:nonzero;stroke:none"
           d="m 0,0 -0.135,0.055 c -0.265,0.437 0.537,0.441 0.273,0 L 0,0 m 0.029,-1.997 -0.2,0 0,1.536 c 0,0.096 0.066,0.151 0.151,0.151 l 0.203,0 -0.001,-1.549 c 0,-0.069 -0.042,-0.138 -0.153,-0.138" />
      </g>
      <g
         transform="translate(160.269,101.506)"
         id="g532">
        <path
           inkscape:connector-curvature="0"
           id="path534"
           style="fill:#005588;fill-opacity:1;fill-rule:nonzero;stroke:none"
           d="m 0,0 c 0,-0.117 -0.096,-0.214 -0.215,-0.214 -0.119,0 -0.215,0.097 -0.215,0.214 0,0.124 0.096,0.22 0.215,0.22 C -0.096,0.22 0,0.124 0,0" />
      </g>
      <g
         transform="translate(163.041,104.977)"
         id="g536">
        <path
           inkscape:connector-curvature="0"
           id="path538"
           style="fill:#005588;fill-opacity:1;fill-rule:nonzero;stroke:none"
           d="m 0,0 c -1.311,0.765 -3.784,1.86 -7.386,1.949 l -0.175,0 C -7.654,1.956 -7.746,1.956 -7.84,1.956 l -0.01,0 c -3.854,0 -6.481,-1.164 -7.848,-1.956 -0.204,-0.117 -0.103,-0.241 0.055,-0.172 1.484,0.661 4.114,1.425 7.793,1.425 0.156,0 0.31,0 0.464,0 3.438,-0.062 5.909,-0.792 7.33,-1.425 C 0.103,-0.241 0.205,-0.117 0,0" />
      </g>
      <g
         transform="translate(147.229,100.645)"
         id="g540">
        <path
           inkscape:connector-curvature="0"
           id="path542"
           style="fill:#d41f32;fill-opacity:1;fill-rule:nonzero;stroke:none"
           d="m 0,0 0,-1.068 c 0,-0.344 0.278,-0.585 0.618,-0.585 l 14.709,0 c 0.342,0 0.619,0.241 0.619,0.585 l 0,1.068" />
      </g>
      <g
         transform="translate(148.516,100.287)"
         id="g544">
        <path
           inkscape:connector-curvature="0"
           id="path546"
           style="fill:#ffffff;fill-opacity:1;fill-rule:nonzero;stroke:none"
           d="m 0,0 0.353,-0.943 -0.215,0 -0.072,0.206 -0.352,0 -0.076,-0.206 -0.208,0 L -0.213,0 0,0 Z m 0.012,-0.578 -0.119,0.344 -0.002,0 -0.124,-0.344" />
      </g>
      <g
         transform="translate(149.076,99.578)"
         id="g548">
        <path
           inkscape:connector-curvature="0"
           id="path550"
           style="fill:#ffffff;fill-opacity:1;fill-rule:nonzero;stroke:none"
           d="M 0,0 0.045,-0.055 0.112,-0.09 C 0.365,-0.147 0.52,0.079 0.197,0.152 L 0.096,0.179 -0.008,0.207 -0.098,0.262 -0.162,0.337 -0.187,0.448 -0.155,0.572 -0.074,0.661 0.04,0.716 0.167,0.737 0.309,0.716 0.43,0.661 0.514,0.565 0.545,0.427 0.344,0.427 0.326,0.496 0.286,0.544 0.228,0.565 0.158,0.572 0.107,0.565 0.062,0.551 0.028,0.517 0.015,0.461 0.025,0.42 0.067,0.386 C 0.292,0.311 0.673,0.303 0.552,-0.076 L 0.477,-0.172 0.354,-0.234 C 0.305,-0.248 0.249,-0.255 0.184,-0.255 l -0.151,0.014 -0.13,0.062 -0.09,0.103 -0.031,0.152 0.201,0 L 0,0" />
      </g>
      <g
         transform="translate(149.921,99.578)"
         id="g552">
        <path
           inkscape:connector-curvature="0"
           id="path554"
           style="fill:#ffffff;fill-opacity:1;fill-rule:nonzero;stroke:none"
           d="M 0,0 0.045,-0.055 0.112,-0.09 C 0.365,-0.147 0.519,0.08 0.197,0.152 L 0.096,0.179 -0.008,0.207 -0.098,0.262 -0.162,0.337 -0.187,0.448 -0.155,0.572 -0.074,0.661 0.039,0.716 0.167,0.737 0.309,0.716 0.43,0.661 0.514,0.565 0.545,0.427 0.344,0.427 0.326,0.496 0.286,0.544 0.228,0.565 0.158,0.572 0.107,0.565 0.062,0.551 0.028,0.517 0.014,0.461 0.025,0.42 0.067,0.386 C 0.292,0.311 0.673,0.303 0.552,-0.076 L 0.477,-0.172 0.354,-0.234 C 0.305,-0.248 0.249,-0.255 0.184,-0.255 l -0.152,0.014 -0.129,0.062 -0.09,0.103 -0.031,0.152 0.201,0 L 0,0 m 0.873,-0.234 -0.20798,0 0,0.94348 0.20798,0 0,-0.94348 z" />
      </g>
      <g
         transform="translate(151.548,100.039)"
         id="g556">
        <path
           inkscape:connector-curvature="0"
           id="path558"
           style="fill:#ffffff;fill-opacity:1;fill-rule:nonzero;stroke:none"
           d="M 0,0 -0.046,0.048 -0.109,0.083 -0.183,0.096 -0.302,0.069 -0.382,0 l -0.044,-0.11 -0.013,-0.117 0.013,-0.117 0.044,-0.104 0.08,-0.068 0.119,-0.028 c 0.063,0 0.113,0.021 0.149,0.055 0.036,0.041 0.058,0.09 0.066,0.158 l 0.201,0 -0.042,-0.165 -0.086,-0.117 -0.128,-0.083 -0.16,-0.02 c -0.072,0 -0.137,0.007 -0.195,0.034 l -0.146,0.103 -0.092,0.159 c -0.021,0.062 -0.031,0.124 -0.031,0.193 0,0.069 0.01,0.137 0.031,0.199 l 0.092,0.159 0.146,0.103 c 0.058,0.028 0.123,0.041 0.195,0.041 L -0.035,0.248 0.09,0.186 0.18,0.076 0.225,-0.069 0.024,-0.069 0,0" />
      </g>
      <g
         transform="translate(152.582,99.413)"
         id="g560">
        <path
           inkscape:connector-curvature="0"
           id="path562"
           style="fill:#ffffff;fill-opacity:1;fill-rule:nonzero;stroke:none"
           d="m 0,0 c -0.071,-0.062 -0.17,-0.09 -0.296,-0.09 -0.128,0 -0.227,0.028 -0.298,0.09 -0.07,0.062 -0.104,0.158 -0.104,0.289 l 0,0.586 0.207,0 0,-0.586 0.007,-0.075 0.028,-0.069 0.059,-0.049 0.101,-0.013 c 0.074,0 0.125,0.013 0.153,0.048 0.028,0.034 0.042,0.083 0.042,0.158 l 0,0.586 0.208,0 0,-0.586 C 0.107,0.158 0.071,0.062 0,0" />
      </g>
      <g
         transform="translate(153.343,100.287)"
         id="g564">
        <path
           inkscape:connector-curvature="0"
           id="path566"
           style="fill:#ffffff;fill-opacity:1;fill-rule:nonzero;stroke:none"
           d="m 0,0 0.114,-0.021 0.088,-0.055 0.056,-0.082 0.019,-0.104 -0.035,-0.144 -0.115,-0.09 0,-0.007 0.064,-0.027 c 0.106,-0.111 0.057,-0.234 0.091,-0.365 l 0.023,-0.048 -0.209,0 -0.02,0.103 -0.013,0.124 -0.044,0.103 -0.113,0.035 -0.207,0 0,-0.365 -0.208,0 0,0.943 L 0,0 Z m -0.074,-0.427 0.108,0.034 0.035,0.104 -0.035,0.096 -0.108,0.035 -0.227,0 0,-0.269" />
      </g>
      <g
         transform="translate(154.259,100.287)"
         id="g568">
        <path
           inkscape:connector-curvature="0"
           id="path570"
           style="fill:#ffffff;fill-opacity:1;fill-rule:nonzero;stroke:none"
           d="m 0,0 0.353,-0.943 -0.215,0 -0.072,0.206 -0.352,0 -0.076,-0.206 -0.208,0 L -0.213,0 0,0 Z m 0.012,-0.578 -0.119,0.344 -0.003,0 -0.123,-0.344" />
      </g>
      <g
         transform="translate(155.167,100.115)"
         id="g572">
        <path
           inkscape:connector-curvature="0"
           id="path574"
           style="fill:#ffffff;fill-opacity:1;fill-rule:nonzero;stroke:none"
           d="m 0,0 -0.467,0 0,0.172 0.744,0 0,-0.165 -0.507,-0.606 0.52,0 0,-0.172 -0.797,0 0,0.165 L 0,0 Z m 0.606,-0.771 -0.20798,0 0,0.94348 0.20798,0 0,-0.94348 z" />
      </g>
      <g
         transform="translate(155.906,100.005)"
         id="g576">
        <path
           inkscape:connector-curvature="0"
           id="path578"
           style="fill:#ffffff;fill-opacity:1;fill-rule:nonzero;stroke:none"
           d="m 0,0 0.092,0.158 0.146,0.111 c 0.057,0.027 0.122,0.034 0.194,0.034 0.074,0 0.139,-0.007 0.197,-0.034 L 0.774,0.158 0.865,0 c 0.021,-0.055 0.032,-0.124 0.032,-0.193 0,-0.069 -0.011,-0.131 -0.032,-0.193 L 0.774,-0.544 0.629,-0.647 C 0.571,-0.675 0.506,-0.682 0.432,-0.682 c -0.072,0 -0.137,0.007 -0.194,0.035 L 0.092,-0.544 0,-0.386 c -0.021,0.062 -0.032,0.124 -0.032,0.193 0,0.069 0.011,0.138 0.032,0.193 m 0.19,-0.31 0.044,-0.103 0.079,-0.069 c 0.231,-0.092 0.378,0.059 0.376,0.289 L 0.675,-0.076 0.631,0.035 0.552,0.103 0.432,0.131 0.313,0.103 0.234,0.035 0.19,-0.076 0.176,-0.193 0.19,-0.31" />
      </g>
      <g
         transform="translate(157.085,100.287)"
         id="g580">
        <path
           inkscape:connector-curvature="0"
           id="path582"
           style="fill:#ffffff;fill-opacity:1;fill-rule:nonzero;stroke:none"
           d="m 0,0 0.395,-0.634 0.002,0 0,0.634 0.195,0 0,-0.943 -0.208,0 -0.394,0.633 -0.002,0 0,-0.633 -0.195,0 0,0.943" />
      </g>
      <g
         transform="translate(158.513,100.287)"
         id="g584">
        <path
           inkscape:connector-curvature="0"
           id="path586"
           style="fill:#ffffff;fill-opacity:1;fill-rule:nonzero;stroke:none"
           d="m 0,0 0,-0.172 -0.499,0 0,-0.207 0.458,0 0,-0.158 -0.458,0 0,-0.234 0.509,0 0,-0.172 -0.716,0 0,0.943" />
      </g>
      <g
         transform="translate(159.433,100.287)"
         id="g588">
        <path
           inkscape:connector-curvature="0"
           id="path590"
           style="fill:#ffffff;fill-opacity:1;fill-rule:nonzero;stroke:none"
           d="m 0,0 0.353,-0.943 -0.215,0 -0.072,0.206 -0.353,0 -0.075,-0.206 -0.208,0 L -0.213,0 0,0 Z m 0.012,-0.578 -0.119,0.344 -0.002,0 -0.124,-0.344" />
      </g>
      <g
         transform="translate(160.523,99.413)"
         id="g592">
        <path
           inkscape:connector-curvature="0"
           id="path594"
           style="fill:#ffffff;fill-opacity:1;fill-rule:nonzero;stroke:none"
           d="m 0,0 c -0.071,-0.062 -0.17,-0.09 -0.296,-0.09 -0.128,0 -0.227,0.028 -0.297,0.09 -0.071,0.062 -0.105,0.158 -0.105,0.289 l 0,0.586 0.207,0 0,-0.586 0.007,-0.075 0.028,-0.069 0.059,-0.049 0.101,-0.013 c 0.074,0 0.125,0.013 0.153,0.048 0.028,0.034 0.042,0.083 0.042,0.158 l 0,0.586 0.208,0 0,-0.586 C 0.107,0.158 0.072,0.062 0,0" />
      </g>
      <g
         transform="translate(160.721,100.115)"
         id="g596">
        <path
           inkscape:connector-curvature="0"
           id="path598"
           style="fill:#ffffff;fill-opacity:1;fill-rule:nonzero;stroke:none"
           d="m 0,0 0,0.172 0.774,0 0,-0.172 -0.284,0 0,-0.771 -0.207,0 0,0.771" />
      </g>
      <g
         transform="translate(161.541,100.005)"
         id="g600">
        <path
           inkscape:connector-curvature="0"
           id="path602"
           style="fill:#ffffff;fill-opacity:1;fill-rule:nonzero;stroke:none"
           d="m 0,0 0.092,0.158 0.146,0.111 c 0.057,0.027 0.122,0.034 0.194,0.034 0.074,0 0.139,-0.007 0.196,-0.034 L 0.773,0.158 0.865,0 c 0.021,-0.055 0.032,-0.124 0.032,-0.193 0,-0.069 -0.011,-0.131 -0.032,-0.193 L 0.773,-0.544 0.628,-0.647 C 0.571,-0.675 0.506,-0.682 0.432,-0.682 c -0.072,0 -0.137,0.007 -0.194,0.035 L 0.092,-0.544 0,-0.386 c -0.021,0.062 -0.032,0.124 -0.032,0.193 0,0.069 0.011,0.138 0.032,0.193 m 0.19,-0.31 0.044,-0.103 0.079,-0.069 c 0.231,-0.092 0.378,0.059 0.376,0.289 L 0.675,-0.076 0.631,0.035 0.552,0.103 0.432,0.131 0.313,0.103 0.234,0.035 0.19,-0.076 0.176,-0.193 0.19,-0.31" />
      </g>
    </g>
  </g>
</svg>
