<?xml version="1.0" encoding="UTF-8"?>
<svg id="Layer_2" data-name="Layer 2" xmlns="http://www.w3.org/2000/svg" viewBox="0 0 144.82 175.75">
  <defs>
    <style>
      .cls-1 {
        fill: #231f20;
      }

      .cls-1, .cls-2, .cls-3, .cls-4, .cls-5, .cls-6 {
        fill-rule: evenodd;
        stroke-width: 0px;
      }

      .cls-2 {
        fill: #f7942a;
      }

      .cls-3 {
        fill: #fff;
      }

      .cls-4 {
        fill: #eb262c;
      }

      .cls-5 {
        fill: #a16b34;
      }

      .cls-6 {
        fill: #ee3124;
      }
    </style>
  </defs>
  <g id="Layer_1-2" data-name="Layer 1">
    <g>
      <path class="cls-2" d="m107.16,9.38c-8.56-.26-17.18-2.09-25.81-5.38-2.94-1.14-5.88-2.44-8.82-3.89v-.12s-.09.02-.12.05c-.05-.02-.09-.05-.12-.05v.12c-3.1,1.52-6.19,2.87-9.29,4.03-8.58,3.25-17.13,5-25.64,5.24C24.76,9.72,12.28,6.68,0,0v27.77c2.04,48.61,15.24,86.05,37.37,114.58,7.54,9.74,16.11,18.44,25.64,26.19,3.01,2.44,6.09,4.79,9.29,7.04v.17s.07-.05.12-.07c.02.02.07.05.12.07v-.17c3.01-2.16,5.95-4.38,8.82-6.68,9.57-7.75,18.22-16.45,25.81-26.19,22.28-28.58,35.59-66.12,37.66-114.94V0c-12.39,6.73-24.95,9.76-37.66,9.38h0Z"/>
      <path class="cls-3" d="m4.76,29.43c11.11-5.24,21.97-7.89,32.61-7.82,8.72.07,17.28,1.94,25.64,5.71,2.35,1.04,4.67,2.25,6.97,3.58v21.02c-2.49.26-4.83,1.02-6.97,2.13-4.98,2.65-8.67,7.42-9.93,13.06H9.34c-2.51-12.25-4.01-24.88-4.57-37.68h0Z"/>
      <path class="cls-1" d="m72.09,55.22h.33c3.29.07,6.4,1.14,8.93,2.96,4.08,2.91,6.75,7.68,6.75,13.08s-2.68,10.17-6.75,13.08c-2.54,1.8-5.64,2.89-8.93,2.96h-.33c-3.37,0-6.49-1.04-9.08-2.84-4.19-2.89-6.97-7.73-6.97-13.2s2.77-10.33,6.97-13.22c2.58-1.78,5.71-2.82,9.08-2.82h0Z"/>
      <path class="cls-3" d="m135.46,67.11h-44.39c-1.21-5.57-4.83-10.28-9.72-12.94-2.06-1.14-4.36-1.9-6.75-2.2v-20.83c2.06-1.47,4.34-2.82,6.75-4.01,7.37-3.63,16.16-5.78,25.81-5.83,10.17-.05,21.28,2.27,32.59,7.77-.59,12.8-1.78,25.78-4.29,38.04h0Z"/>
      <path class="cls-6" d="m140.2,25.64c-11.21-5.38-22.32-7.75-33.04-7.61-8.96.12-17.61,2.01-25.81,5.36-3.06,1.26-6.02,2.73-8.93,4.36-.05.02-.09.05-.12.07v.09h-.02c-3.06-1.68-6.14-3.15-9.27-4.38-8.41-3.34-17.02-5.05-25.64-5.1-10.95-.05-21.94,2.58-32.73,8.01-.24-6.4-.26-12.39-.07-18.86l.14.07c10.9,4.55,21.8,6.68,32.66,6.49,8.58-.17,17.13-1.78,25.64-4.83,3.15-1.11,6.28-2.42,9.41-3.93,2.94,1.42,5.9,2.68,8.93,3.77,8.39,3.01,17.09,4.74,25.81,5,11.16.36,22.4-1.73,33.06-6.56.17,6.04.17,12.06-.02,18.06h0Z"/>
      <path class="cls-3" d="m22.02,71.66h-11.68c2.78,12.24,6.63,24.09,11.68,35.37v-35.37h0Z"/>
      <path class="cls-3" d="m44.17,71.66h-11.07v56.07s.03.38,4.27,6.4c2.15,3.04,4.41,6.01,6.8,8.92v-71.39h0Z"/>
      <path class="cls-3" d="m66.64,89.89c-1.26-.37-2.48-.86-3.63-1.47-3.23-1.7-5.92-4.28-7.75-7.43v74.19c2.48,2.44,5.06,4.81,7.75,7.11,1.19,1.01,2.4,2.01,3.63,2.99v-75.39h0Z"/>
      <path class="cls-3" d="m89.08,80.67s0,0,0-.01c-1.8,3.23-4.49,5.91-7.73,7.67-1.15.62-2.38,1.13-3.65,1.52v75.81c1.23-.99,2.45-1.99,3.65-3.01,2.68-2.28,5.25-4.62,7.73-7.02v-74.95h0Z"/>
      <path class="cls-3" d="m134.49,71.66h-12.18v36.43c-.39.85,8.31-17.36,12.18-36.43h0Z"/>
      <path class="cls-3" d="m111.24,71.66h-11.09v71.97c-1.28,1.54,3.66-4.39,7.01-9.12,1.41-1.99,2.77-4.01,4.08-6.06v-56.79h0Z"/>
      <path class="cls-4" d="m33.11,71.66v56.07c-4.19-6.64-7.89-13.53-11.09-20.69v-35.38h11.09Z"/>
      <path class="cls-4" d="m55.27,80.95v74.22c-3.96-3.89-7.65-7.92-11.09-12.11v-71.4h8.48c.07,3.39,1.02,6.54,2.61,9.29h0Z"/>
      <path class="cls-4" d="m77.71,89.84v75.81c-1.73,1.38-3.48,2.75-5.28,4.08-1.99-1.45-3.91-2.94-5.78-4.43v-75.41c1.73.52,3.58.78,5.45.78,1.97,0,3.82-.28,5.62-.83h0Z"/>
      <path class="cls-4" d="m100.15,71.66v71.97c-3.44,4.15-7.11,8.15-11.07,11.99v-74.96c1.49-2.68,2.37-5.74,2.44-9.01h8.63Z"/>
      <path class="cls-4" d="m122.31,71.66v36.43c-3.2,7.04-6.87,13.84-11.07,20.38v-56.81h11.07Z"/>
      <path class="cls-1" d="m123.46,51.71c0,.08,0,.16,0,.24-.09,7.88-4.29,12.49-12.15,13.33h-2.16c-2.59-.09-7.99-.81-8.74-2.05-.1-.17-.11-.34-.03-.52.49-.74,2.72-.02,4.34.5l.39.13c1.15.37,2.92.26,4.09.19,0,0,.03,0,.06,0v-7.33c-.06,0-1.58-.07-1.58-.07l-1.54-.36c-6.8-1.91-9.2-6.28-9.2-9.83,0-.09,0-.17,0-.25.14-4.39,3.72-8.08,8.92-9.21-.08-.07-.47-.42-.47-.42-.86-.75-1.66-1.45-2.14-2.56-.48-1.11-.72-2.16-.72-3.14s.25-1.91.75-2.71c1.09-1.77,3.32-2.87,6.09-3.02h0s1.95.28,1.95.28c1.09.16,5.22,2.37,5.46,4.03.07.46-.19.83-.76,1.09h-.02s-.02,0-.02,0c-1.29-1.49-4.15-3.33-6.18-3.57l-1.14.07c-1.34.07-2.64,1.05-3.24,2.44-.3.68-.44,1.31-.44,1.88,0,2.28,2.11,3.78,4.21,5.03v-4.24l9.78.02.08.12c.16.22.25.35.25.58,0,.17-.06.39-.19.74v.02h-6.92v2.99c1.96,0,4.05.19,6.22.58l.41.37.14.45c-.42,1.13-2,.71-3.27.37,0,0-.96-.23-.96-.23l-1.33-.05s-.66-.1-.85-.12c.11.09.3.25.3.25,6.53,3.28,10.59,6.77,10.59,13.99h0Zm-14.2,2.74v-16.02c-2.6-.63-5.16.17-7.03,2.21-1.47,1.61-2.28,3.76-2.28,5.84,0,.82.13,1.63.39,2.38.97,2.82,3.63,4.73,7.5,5.38,0,0,1.35.2,1.43.21h0Zm2.87-7.4c1.37.43,1.81.4,3.25.06.83-.2,1.14.04,1.25.21.15.23.11.56-.12.88-.53.75-1.87,1.29-3.67.81,0,0-.71-.18-.78-.2v5.87c.06,0,1.23-.03,1.23-.03,1.9-.08,4.77-.19,5.26.29l.07.18c-.01.26-.12.49-.32.68-.96.89-3.88.77-5.44.71,0,0-.66-.02-.73-.02v7.05c7.26-1.56,9.06-6.52,9.06-11.03,0-.66-.04-1.3-.1-1.93-.51-4.78-3.78-8.7-8.96-10.78v7.26h0Z"/>
      <path class="cls-5" d="m80.4,66.1s-.04-.02-.03-.01c-.7-.47-1.36-.63-1.95-.47-.76.2-1.45.94-2.05,2.18,1.51,2.23,2.27,4.49,2.27,6.77,0,1.05-.16,2.09-.48,3.14-.91,3.03-3.15,6.13-6.65,9.21.22,0,.6.02.6.02,2.04,0,4.01-.39,5.85-1.15,3.38-4.42,5.07-8.51,5.07-12.24,0-2.68-.87-5.16-2.62-7.45h0Z"/>
      <path class="cls-5" d="m87.62,72.02c0-1-.12-1.99-.37-2.97-.45-1.73-1.28-3.28-2.46-4.6-.82-.63-1.55-.86-2.17-.68-.69.19-1.28.9-1.76,2.1,1.77,2.36,2.66,4.92,2.66,7.66,0,3.63-1.56,7.59-4.66,11.84,5.31-2.56,8.76-8,8.76-13.36h0Z"/>
      <path class="cls-5" d="m72.76,69.54c.76-1.53,1.83-2.2,3.18-1.99.66-1.37,1.44-2.19,2.31-2.44.68-.19,1.42-.03,2.2.45.55-1.32,1.24-2.11,2.05-2.33.76-.2,1.64.08,2.61.83l.03.03c.95,1.06,1.68,2.24,2.18,3.52-.15-.67-.34-1.31-.57-1.91-.06,0-.13-.03-.18-.14-.96-1.78-2.37-3.13-4.09-3.9-1.23-.57-2.58-.82-4.01-.75-1.39.07-2.75.46-3.95,1.13-1.88,1.01-3.35,2.61-4.25,4.61-.04.32-.07.62-.07.88,0,.61.12,1.06.36,1.35.38.45,1.08.65,2.19.66h0Z"/>
      <path class="cls-5" d="m82.69,61.21c1.06.47,2.03,1.19,2.87,2.08-1.01-1.68-2.32-3.2-3.87-4.41-2.94-1.84-5.69-2.33-8.17-1.44-2.38.84-4.63,2.93-6.68,6.21-.13.32-.19.62-.19.89s.07.52.2.74c.39.65,1.38,1.08,2.94,1.27,0-.03.02-.06.02-.06l-.02.06v-.08c.95-2.09,2.5-3.77,4.5-4.87,1.32-.72,2.73-1.12,4.18-1.19,1.5-.08,2.96.2,4.23.79h0Z"/>
      <path class="cls-5" d="m63.43,61.66c.3.97,1.31,1.55,2.98,1.74,2.08-3.36,4.41-5.53,6.92-6.43,1.52-.53,3.08-.57,4.71-.18-1.92-.8-3.91-1.23-5.97-1.23-1.4,0-2.83.2-4.24.59l.04-.02s-.13.07-.09.06c-2.23,1.09-3.65,2.88-4.36,5.47h0Z"/>
      <path class="cls-5" d="m60.24,64.49c0,1.07.19,2.09.57,3.05.93,2.27,2.89,4.12,5.83,5.5.87.39,1.61.69,2.36.87.71.17,1.4.23,2.14.19,0,0,.29-.09.27-.08.77-.7,1.12-1.19,1.26-1.76.06-.23.09-.47.09-.73,0-.44-.08-.94-.2-1.49-1.18-.03-1.94-.29-2.39-.81-.33-.41-.49-.96-.49-1.72,0-.13,0-.27.02-.42-1.69-.22-2.8-.71-3.28-1.45-.2-.3-.3-.65-.3-1.04,0-.22.05-.46.11-.71-1.85-.23-2.97-.95-3.31-2.18v-.12c.52-1.98,1.5-3.54,2.87-4.69-1.71.76-3.24,1.77-4.54,3.03-.68,1.6-1.02,3.13-1.02,4.55h0Z"/>
      <path class="cls-5" d="m71.8,77.63c.08-.23.12-.48.12-.76s-.04-.59-.12-.93c-.1-.43-.28-.9-.54-1.36-.84.06-1.61,0-2.36-.19-.87-.21-1.7-.56-2.46-.91-3.02-1.41-5.13-3.41-6.08-5.78-.41-1.01-.62-2.1-.62-3.24s.22-2.34.63-3.59c-1.56,1.79-2.73,3.88-3.36,6.09,0,.05.02.11.02.1.55,4.15,2,7.24,4.31,9.19,2.14,1.82,5.15,2.71,8.91,2.66.27-.05.49-.16.66-.25.42-.23.73-.6.89-1.05h0Z"/>
      <path class="cls-5" d="m60.99,76.66c-2.18-1.85-3.61-4.68-4.28-8.38-.19,1.02-.3,2.02-.3,2.99,0,1.46.21,2.94.64,4.41,1.15,2.96,2.61,5.18,4.36,6.6,1.87,1.49,4.09,2.08,6.6,1.76.43-.04.84-.15,1.25-.35.45-.24.78-.56.98-.96.17-.34.25-.71.25-1.13,0-.13,0-.25-.02-.39-.07-.55-.26-1.14-.57-1.75-3.78,0-6.69-.92-8.91-2.79h0Z"/>
      <path class="cls-5" d="m68.07,84.52c-2.18.29-4.15-.1-5.88-1.13,2.44,2,5.45,3.23,8.59,3.5,3.64-3.14,5.95-6.28,6.87-9.32.31-1.01.47-2.02.47-3.03,0-2.19-.73-4.36-2.19-6.49-1.2-.19-2.13.43-2.81,1.87,0,0-.02.04-.04.08.12.57.2,1.07.2,1.54,0,.3-.03.59-.11.86-.16.67-.58,1.26-1.43,2.01.24.5.43.98.55,1.43.09.34.13.68.13.99,0,.34-.05.67-.16.98-.2.56-.57,1.01-1.11,1.33-.22.11-.47.2-.73.27.28.63.47,1.22.54,1.76.02.16.03.31.03.47,0,.46-.1.91-.3,1.34-.28.5-.68.89-1.2,1.15-.43.23-.91.36-1.43.41h0Z"/>
      <path class="cls-1" d="m61.36,50.19c-.4-1.4-1.09-2.75-2.04-4.12.09-.45.07-.85.05-1.3,0-.19-.02-.38-.02-.59v-.36c.02-.38.02-.73-.07-1.07,1.16-1.99,1.49-3.77,1.21-6.16-.36.21-.69.43-.95.76-.07-.38-.12-.76-.19-1.16-.02-.14-.21-.19-.31-.07-.31.38-.62.73-.95,1.11-.95,1.09-1.82,2.23-1.75,3.82v.28l-.09.14c-.92,1.18-1.33,2.49-1.75,3.82-.14.47-.28.95-.45,1.42v-9.86l-.05-.05c-.24-.21-.43-.38-.59-.55-.52-.45-.95-.66-.97-1.8-.02-.52.33-.85.55-1,.17-.14.4-.12.76.09.05.19.09.33.07.45-.05.59-.62.73.33,1.42.28.19.62.17,1-.36.17-.24.28-.5.31-.81.05-.43-.02-.88-.21-1.3-.19-.43-.47-.81-.83-1.09-.24-.17-.52-.31-.83-.33h-.05c-.85.09-1.42.36-1.8.76-.4.4-.59.95-.73,1.64-.12.71.02,1.37.36,2.01.28.59.73,1.16,1.23,1.64v15.52s-.07.02-.09.05c-.5.33-.52,1.37-.85,1.94-.4.64-1.28.76-1.8,1.26-.74.68-1.7,2.15-1.68,2.11V22.63c-.66-.12-1.35-.24-2.01-.33v.71h-1.49c-.26-1.28-2.3-1.21-2.56-.31h-1c-.64-1.42-2.32-1.09-2.8,0h-1.28c-.62-1.23-2.23-1.14-2.82,0h-1.07c-.05-.81-1.02-.9-1.71-.62-.47.21-.81.57-.71,1h-1.37v-1c-.69.07-1.37.17-2.06.26v10.71c-1-2.58-1.78-5.24-2.44-7.92-.02-.19-.36-.09-.33.07l2.77,12.75v25.5h19.72c0-.11,0,.24,0,.52,0,.45,1.47.38,1.66.36.14-.02.27-.03.4-.04l-.05,2.82h4.1c.08-.31.15-.6.23-.91,0,.01,0,.02-.01.03,0-.03.02-.07.03-.1,0,.02-.01.05-.02.07.01-.03.03-.07.03-.11.89-3.14,2.53-6.01,4.74-8.3,1.11-1.16,2.39-2.2,3.77-3.06.07-1.68-.07-3.15-.5-4.55h0Zm-15.03-.02c-.28-.36-3.7-4.48-5.1-6.21,1.75-1.11,3.22-2.39,4.22-4.19.14-.26.28-.55.4-.85.19-.05.33-.12.47-.24v11.49h0Zm0-13.84c-.24-.19-.54-.28-.88-.28-.55,0-1.02.28-1.28.71l-1.26.59c-.14-.52-.4-1.04-.73-1.59-.33-.5-.76-1-1.28-1.47.5-.83.55-1.66.31-2.54-.26-.85-.83-1.75-1.54-2.73.12-.19.21-.38.28-.59.07-.24.09-.52.02-.9-.05-.33-.33-.71-.66-1.14-.47-.62-1.07-1.37-1.23-2.3-.02-.17-.28-.17-.33-.02-.05.26-.12.5-.24.71-.26.52-.62.92-.95,1.3-.45.5-.81.92-.85,1.42-.02.26.02.55.12.83.07.24.17.45.28.69-.09.12-.19.26-.26.38-1,1.45-2.04,2.99-1.07,4.88-.43.38-.83.83-1.21,1.33-.38.5-.76,1.04-1.09,1.64l-.97-.52c-.05-.07-.07-.12-.12-.19-.31-.36-.76-.52-1.18-.5-.5.02-1.02.28-1.26.81v-12.87c.43.31.88.5,1.26.45.21-.02.43-.12.57-.28.19.24.38.45.62.66.36.36.76.66,1.19,1,.31-1.37.45-2.09,1.18-2.2.76-.12,1.52,1.04,1.97,1.9.45-1.09.95-1.9,1.52-2.39h.9c.71.59,1.14,1.45,1.33,2.44.64-1.11,1.16-2.18,2.04-2.09.85.1,1.09,1.26,1.18,2.35.52-.66,1.09-1.28,1.71-1.82.4.31.71.45,1.04.45.28,0,.55-.14.88-.38v12.28h0Z"/>
      <path class="cls-5" d="m40.86,44.03c1.52,1.87,3.06,3.74,4.6,5.59.24.28.47.57.71.88v2.94l-.71-.5-7.54-5.05s-.14-.02-.19,0l-8.86,6.16v-8.65l1.11,5.19c.02.09.14.14.24.12.02,0,.07-.02.07-.07.36-.52.71-1.04,1.11-1.56.97-1.35,2.13-2.68,3.44-4v-.02s.02-.02.02-.02c.02-.07.02-.14-.02-.21-1.07-.88-2.01-1.9-2.87-2.99h11.47c-.73.73-1.59,1.37-2.54,1.97-.09.05-.09.17-.05.24h0Z"/>
      <path class="cls-3" d="m25.97,30.43c.76,2.39,1.68,4.74,2.82,6.99v.02c-.02.5.26,1.09.73,1.35.24.38.45.76.69,1.11.38.59.76,1.16,1.18,1.73.9,1.21,1.9,2.35,3.08,3.32-.05.02-2.5,2.67-4.24,5.17l-.02-.07-4.24-19.62h0Z"/>
      <path class="cls-5" d="m46.33,56.26h-17.63v-1.71c.09-.02,9.05-6.28,9.12-6.33.66.4,8.46,5.66,8.51,5.69v2.35h0Z"/>
      <path class="cls-1" d="m45.45,38.65c-.55-.02-1.07-.36-1.14-.97v-.09c-.07-.78.55-1.18,1.14-1.18s1.11.36,1.11,1.11-.57,1.14-1.11,1.14h0Z"/>
      <path class="cls-5" d="m45.45,38.98c-.95,0-1.64-.85-1.45-1.78l-1.14.52s-.06.02-.09.01v1.46c0,.07-.09.17-.17.17h-2.13c-.07,0-.17-.09-.17-.17v-1.02h-5v1.02c0,.07-.09.17-.17.17h-2.13c-.07,0-.17-.09-.17-.17v-1.88c-.05.08-.1.16-.14.25-.05.07-.17.12-.24.07l-.76-.4c.1.45-.02.9-.31,1.23s-.71.52-1.18.52h-.12v-.02h-.07c.07.09.12.21.19.31.38.62.76,1.21,1.18,1.8.09.14.19.28.31.43h12.06c.66-.73,1.23-1.54,1.68-2.46t.02-.05h-.02Z"/>
      <path class="cls-5" d="m36.12,29.6c-.91,1.38-1.91,2.82-.99,4.56,0,0,.01,0,.02,0,.07,0,.17.07.17.17v1.92h5.07v-1.92c0-.1.11-.17.22-.18.45-.73.51-1.49.28-2.28-.24-.85-.81-1.73-1.54-2.7-.05-.05-.05-.14-.02-.19.14-.24.26-.4.31-.62.07-.19.07-.43.02-.76-.02-.24-.28-.59-.62-1-.38-.5-.85-1.11-1.11-1.85-.12.26-.26.5-.4.71-.21.33-.47.59-.71.88-.38.43-.71.81-.76,1.21-.02.24.02.45.1.69.09.24.19.5.31.76.02.02.02.12,0,.17-.12.14-.21.28-.33.45h0Z"/>
      <path class="cls-1" d="m39.08,29.77c-.31-.5-.76-.78-1.26-.78s-.95.28-1.26.78c-.31.45-.5,1.09-.5,1.78s.19,1.33.5,1.8c.31.47.76.78,1.26.78s.95-.31,1.26-.78c.31-.47.5-1.11.5-1.8s-.19-1.33-.5-1.78h0Z"/>
      <path class="cls-3" d="m38.79,33.15c-.26.38-.59.62-.97.62s-.71-.24-.97-.62c-.28-.4-.45-.97-.45-1.61s.17-1.19.45-1.59c.26-.4.59-.64.97-.64s.71.24.97.64c.26.4.43.97.43,1.59s-.17,1.21-.43,1.61h0Z"/>
      <path class="cls-3" d="m30.26,36.38c-.62,0-1.11.5-1.11,1.14s.5,1.14,1.11,1.14,1.14-.52,1.14-1.14-.5-1.14-1.14-1.14h0Z"/>
      <path class="cls-3" d="m45.45,36.38c-.64,0-1.14.5-1.14,1.14s.5,1.14,1.14,1.14,1.11-.52,1.11-1.14-.5-1.14-1.11-1.14h0Z"/>
      <path class="cls-5" d="m58.08,41.38c-.43-.21-.9-.31-1.42-.28v-.05c-.05-1.33.62-2.35,1.42-3.29.33-.4.66-.76.97-1.14.21,1.52.85,4.24.05,5.76-.28-.47-.64-.78-1.02-1h0Z"/>
      <path class="cls-5" d="m47.3,63.89l.33.12c.21.09.59.05.97,0,.43-.05.85-.12,1.14.02.38.21.64.4.83.57.4.31.64.47,1.61.31.05,0,.12.02.17.07.21.31.33.47.45.57h0c.09.09.24.17.45.28.64-2.28,1.71-4.36,3.08-6.23,1.42-1.9,3.18-3.55,5.19-4.83.07-1.66-.07-3.1-.47-4.48-.38-1.28-.97-2.46-1.8-3.72-.24,1.49-.57,2.7-1.28,3.65-.76,1.04-1.94,1.8-3.86,2.32-.02,0-.05,0-.07.02v3.48s-.02.09-.05.12c-.19.21-.36.47-.55.81-.19.36-.38.76-.57,1.26-.05.14-.31.09-.31-.07v-4.65h-.02c-.05.17-.09.31-.14.47-.12.45-.26.88-.5,1.28-.28.45-.71.66-1.14.9-.26.14-.52.26-.73.45-1.07.97-1.75,2.09-2.16,3.32-.4,1.21-.57,2.54-.57,3.96h0Z"/>
      <path class="cls-3" d="m56.5,43.18h0c-.12-.02-.21.02-.31.12-.12.1-.19.26-.21.43-.02.19,0,.36.07.47.07.12.17.21.26.21h0c.12.02.21-.02.31-.12.12-.09.19-.26.21-.43.02-.19,0-.36-.07-.47-.05-.12-.14-.19-.26-.21h0Z"/>
      <path class="cls-3" d="m53.68,36.99c-.19-.19-.36-.33-.5-.47-.59-.52-.88-.78-1.11-2.04l.02-.07c.19-.59.38-1.02.66-1.23.69-.52,1.45.09,1.37.85,0,.17-.07.31-.17.52.09.24.21.47.38.59.12.09.28.05.52-.26.12-.19.21-.4.24-.64.05-.38-.02-.78-.19-1.16-.17-.36-.4-.71-.71-.92-.21-.14-.43-.26-.66-.28-.76.09-1.26.31-1.59.66-.33.33-.52.83-.64,1.47-.12.62.02,1.23.31,1.8.31.57.73,1.11,1.23,1.59l.05.07v19.86c.07-.19.17-.36.24-.5.19-.33.38-.62.54-.83v-19.01h0Z"/>
      <path class="cls-1" d="m27.02,63.01c-.14-.88-.31-1.75-.43-2.65-.12-1.19-.17-2.39-.21-3.6-.05-.92-.07-1.85-.17-2.77,0-.02-.02-.09-.05-.12-.31-.31-.59-.62-.9-.95-.73-.83-1.49-1.66-2.42-2.18v-13.15c.47-.47.92-1.04,1.23-1.64.31-.64.47-1.3.33-2.01-.12-.69-.33-1.23-.71-1.64-.36-.36-.83-.59-1.49-.71-.09-.02-.21-.05-.33-.05h-.07c-.31.05-.57.17-.81.33-.05.05-.12.09-.17.17-.28.24-.5.57-.66.92-.17.43-.26.88-.21,1.3.05.31.14.57.31.81.21.28.4.4.57.45.17.02.31,0,.43-.09.24-.19.4-.52.52-.83v-.14c-.12-.21-.17-.33-.19-.45,0-.12.02-.26.09-.45.05-.02.07-.05.12-.07,0,0,.02,0,.02-.02h.02c.14-.07.26-.09.36-.09s.17.02.24.09c.21.14.38.5.55,1-.19.95-.4,1.26-.78,1.61-.07.07-.14.14-.21.19-.05.05-.09.09-.14.12,0,.02-.02.02-.02.05,0,0-.02,0-.02.02-.12.09-.24.21-.38.36-.02.02-.05.09-.05.12v9.05h-.55v-.09c-.09-.69-.28-1.35-.57-1.99-.4-.92-.97-1.75-1.66-2.49l-.09-.36c0-.26,0-.5-.02-.76-.02-.52-.02-1.02-.07-1.52-.09-.81-.24-1.59-.62-2.37l-.38-.81c-.05-.12-.24-.12-.28,0-.05.07-.09.14-.14.21-.09.17-.19.33-.31.5-.07.12-.14.24-.21.36-.05-.12-.09-.24-.17-.36-.09-.21-.19-.43-.31-.64-.05-.09-.17-.12-.24-.07-.97.69-1.42,1.87-1.54,3.18-.17,1.66.19,3.53.69,4.72-.05.52-.28.71-.57.95-.21.17-.45.36-.66.69-.24.38-.33.83-.4,1.26-.02.09-.05.19-.07.28v.05c.05.43.19.76.4,1.07.19.24.4.45.66.64l-.38.85c-.19.59-.4,1.18-.62,1.75-.5,1.42-1,2.82-1.26,4.34-.47,2.77-.64,5.59-.71,8.41,0,0,.02.09.05.09l.26.33.02.02c.47.36.66.36.43.26l-.31,2.63h14.31s0-.05-.02-.05l-.64-1.56,1.85.17c.09,0,.19-.09.17-.19-.09-.83-.24-1.64-.4-2.46h0Z"/>
      <path class="cls-3" d="m21.71,46.14v-9.15s.05-.05.09-.07v-.02l.02-.02.02-.02c.14-.12.26-.24.36-.31t.02-.02c.59-.52.88-.78,1.09-2.04v-.07c-.19-.59-.4-1.02-.66-1.23-.14-.09-.28-.14-.45-.14-.12,0-.21,0-.36.05l-.02.02h-.02c-.12.05-.24.12-.36.19-.02.02-.07.07-.07.09-.09.28-.14.45-.12.64.02.17.07.31.19.52-.12.24-.24.47-.38.59-.07.05-.14.05-.24,0-.09-.02-.19-.12-.28-.26-.14-.19-.21-.4-.24-.64-.05-.38.02-.78.17-1.16.09-.19.21-.38.36-.57.12-.14.24-.26.38-.36.17-.14.38-.24.59-.26v-.02h.07c.12.02.21.02.33.05.57.12.97.33,1.26.62.33.33.5.83.62,1.47.12.62-.02,1.23-.31,1.8-.28.57-.73,1.11-1.21,1.59-.02.02-.05.09-.05.14v13.01c-.12-.05-.21-.07-.31-.12h-.02v-.02h-.07v-.02h-.05s-.07-.02-.12-.05c-.02,0-.05-.02-.07-.02h-.12v.02h-.05v-4.19h0Z"/>
      <path class="cls-3" d="m18.41,43.27c.07.02.12.05.19.09.12.07.21.21.26.38.05.17.02.33-.02.47-.07.12-.17.21-.28.24-.05.02-.09.02-.14.02-.07-.02-.14-.05-.21-.09-.12-.09-.21-.21-.24-.4-.05-.17-.05-.33.02-.45.05-.12.14-.21.26-.26h.17Z"/>
      <path class="cls-5" d="m16.97,36.5s.02-.02.02-.05c.09-.14.17-.26.26-.4l.24.5c.57,1.21.62,2.46.66,3.77l.05.83c-.47-.19-.88-.05-1.21.21-.28.24-.55.57-.74.85t-.02.05s-.02.02-.02.02l-.02.02s-.02.02-.05.05c-.73-2.7-.24-4.08.83-5.85h0Z"/>
      <path class="cls-5" d="m18.41,64.74c-.47-.05-6.19-.52-6.56-.78l-.19-.26c.07-2.75.24-5.55.69-8.27.26-1.49.76-2.89,1.26-4.29.19-.57.4-1.14.59-1.75l.36-.81h.05s.02,0,.02-.02h.02c.47-.28.69-.47.83-.59.09-.07.14-.12.21-.14.26-.07.83.02,1.3.12.24.05.43.09.57.12.28.1.57.17.85.21.71.14,1.45.07,2.01-.47.21-.19.33-.43.4-.66.07-.26.07-.55.05-.83h.5v4.15c-.19.09-.38.17-.55.26-.9.47-1.71,1.04-2.42,1.75-.52.47-1,1.02-1.42,1.61-1.56,2.11-2.63,4.74-3.46,7.42,0,.05,0,.07-.02.12,0,.02-.02.07-.02.09v.02s-.02.07-.02.09c-.02.05-.02.07-.02.12-.02.07.05.19.12.19.17.02.33.05.52.07.95.14,1.82.28,2.82.33.02,0,.07-.02.09-.05.02,0,.05-.02.05-.02.5-.66.95-1.37,1.37-2.11,0-.02,0,1.02,0,1.02.02,1.14.07,2.25.12,3.36h-.12Z"/>
      <path class="cls-5" d="m25.17,65.12c-.12,0-.21.12-.17.24l.64,1.59h-1.04l.64-6.26c0-.07.02-.17-.14-.17-.17-.02-.19.05-.19.14l-.64,6.26v.02h-.88l.64-5.07c0-.07.02-.17-.14-.17-.17-.02-.19.05-.19.14l-.64,5.09h-4.12c0-.66-.02-1.33-.05-1.99v-.02c-.05-1.19-.12-2.35-.14-3.53v-.92l.57-1.66s.02-.05.05-.07v-.05h.02v-.05h.02v-.05h.02v-.07h.02l1.37-2.18.33-.55s.02-.05.02-.07c.07-.43-.12-.31-.36-.07-.26.28-.57.71-.66.85,0,0,0,.02-.02.02t-.02.05s0,.02-.02.02t-.02.05s0,.02-.02.02c0,.02,0,.05-.02.05t-.02.05l-.02.02s-.02.05-.02.05c0,.02-.02.02-.02.05,0,0-.02.02-.02.05-.02,0-.02.02-.02.02-.02.02-.02.05-.02.05t-.02.05s-.02.02-.05.05t-.02.05c-.24.43-.43.92-.69,1.35l-.02.02c-.05.14-.12.24-.19.38v.02h-.02c-.14.26-.28.5-.43.73-.45.78-.9,1.56-1.42,2.3-.05.07-.09.14-.17.21-.97-.05-1.97-.17-2.94-.33h-.07v-.02h-.02c.76-2.54,1.71-4.88,3.2-7.11.02-.02.05-.07.07-.09.4-.59.85-1.16,1.35-1.66.73-.78,1.54-1.45,2.42-1.9.24-.12.5-.24.76-.33l.19-.07h.12c.12.05.21.09.31.12,1.11.47,1.97,1.42,2.82,2.37.28.31.57.62.85.9.07.92.12,1.82.14,2.73.05,1.19.09,2.39.24,3.63.12.9.28,1.78.43,2.68.14.74.28,1.47.38,2.23l-1.9-.19h0Z"/>
      <path class="cls-1" d="m19.88,64.22c.05-.12.07-.24.12-.36.09-.24.17-.45.19-.69.02-.24,0-.43-.02-.62-.02-.31-.07-.59.07-1.07l.02-.05,2.06-2.44c.05-.12-.05-.33-.14-.54-.09-.21-.17-.43-.17-.64h0c-.02-.33.09-.78.19-1.11.05-.17.09-.31.09-.38.02-.07.02-.17.19-.14.17.02.17.09.14.19,0,.09-.05.26-.09.43-.09.31-.19.71-.19,1.02h0c0,.14.07.31.14.5.14.31.28.62.12.88v.02l-2.06,2.42c-.09.38-.07.62-.05.88.02.21.05.43.02.69-.02.28-.09.52-.19.78-.05.12-.09.24-.12.33-.02.09-.05.17-.21.12-.17-.05-.14-.12-.12-.21h0Z"/>
    </g>
  </g>
</svg>