<?xml version="1.0" encoding="UTF-8"?>
<svg id="Layer_2" data-name="Layer 2" xmlns="http://www.w3.org/2000/svg" viewBox="0 0 402.37 402.36">
  <defs>
    <style>
      .cls-1 {
        fill: #fbee23;
        stroke: #fbee23;
        stroke-width: .59px;
      }

      .cls-1, .cls-2, .cls-3, .cls-4, .cls-5, .cls-6, .cls-7 {
        stroke-miterlimit: 3.86;
      }

      .cls-1, .cls-2, .cls-3, .cls-5, .cls-6, .cls-8 {
        fill-rule: evenodd;
      }

      .cls-2, .cls-5, .cls-6, .cls-8 {
        fill: #fff;
      }

      .cls-2, .cls-7 {
        stroke: #fff;
        stroke-width: .29px;
      }

      .cls-3 {
        fill: #221f20;
        stroke-width: .58px;
      }

      .cls-3, .cls-4, .cls-5 {
        stroke: #221f20;
      }

      .cls-4 {
        stroke-width: 1.75px;
      }

      .cls-4, .cls-7 {
        fill: none;
      }

      .cls-5, .cls-6 {
        stroke-width: .88px;
      }

      .cls-6 {
        stroke: #e7e7e7;
      }

      .cls-8, .cls-9 {
        stroke-width: 0px;
      }

      .cls-9 {
        fill: #ed2127;
      }
    </style>
  </defs>
  <g id="Layer_1-2" data-name="Layer 1">
    <g>
      <path class="cls-8" d="m26.12,201.18C26.12,104.49,104.5,26.12,201.18,26.12c96.69,0,175.07,78.37,175.07,175.06s-78.38,175.06-175.07,175.06S26.12,297.87,26.12,201.18h0Z"/>
      <path class="cls-9" d="m0,201.18c0-55.55,22.52-105.85,58.93-142.25C95.33,22.52,145.63,0,201.18,0h0c55.55,0,105.85,22.52,142.26,58.92,36.34,36.34,58.83,86.63,58.83,142.25h.1c0,55.56-22.52,105.86-58.93,142.26-36.41,36.41-86.71,58.93-142.26,58.93s-105.85-22.52-142.26-58.93C22.52,307.03,0,256.74,0,201.18h0Zm95.86-105.32c-26.95,26.95-43.62,64.19-43.62,105.32s16.67,78.37,43.62,105.32c26.95,26.95,64.19,43.62,105.32,43.62s78.38-16.67,105.33-43.62c26.95-26.95,43.62-64.19,43.62-105.32h0s.1,0,.1,0c0-41.06-16.71-78.3-43.73-105.32-26.95-26.95-64.19-43.62-105.32-43.62h0c-41.13,0-78.37,16.67-105.32,43.62h0Z"/>
      <path class="cls-3" d="m60.67,201.18c0-77.61,62.9-140.51,140.51-140.51s140.51,62.91,140.51,140.51-62.9,140.51-140.51,140.51S60.67,278.79,60.67,201.18h0Z"/>
      <path class="cls-2" d="m194.9,88.58s1.76,0,3.22-2.35c1.75-2.78,2.36-4.99,2.36-4.99,0,0,1.21,3.27,3.22,5.28,2.01,2.02,3.22,2.35,3.22,2.35,0,0-2.57.3-4.59,1.74-2.01,1.44-2.01,2.88-2.01,2.88,0,0,0-.87-1.45-2.59-1.44-1.73-3.98-2.33-3.98-2.33h0Z"/>
      <path class="cls-2" d="m187.93,128.91c0-5.4,4.39-9.79,9.8-9.79s9.79,4.38,9.79,9.79-4.38,9.79-9.79,9.79-9.8-4.39-9.8-9.79h0Z"/>
      <path class="cls-2" d="m175.56,95.79c6.34-5.47,10.01-6.23,14.11-5.76,4.89.58,9.68,3.12,8.64,5.48-1.16,2.58-1.16-.29-5.76-.58-4.61-.29-3.74-.58-5.76,1.44-2.02,2.02-1.53,3.68-4.03,5.76-3.46,2.87-3.46,1.15-6.91,2.3-3.18,1.06-5.19,2.88-5.48,5.19-.28,2.3,1.74,8.06,1.74,8.06,0,0-4.32-.29-5.48-3.74-1.14-3.45-2.64-3.81,0-8.64,3.46-6.34,2.6-4.03,8.93-9.51h0Z"/>
      <path class="cls-2" d="m191.96,96.66c3.75,1.16,6.34.87,6.05,7.77-.29,6.91-1.44,12.68-1.44,12.68,0,0-2.02-.29-4.89,1.44-2.88,1.73-5.19,4.61-5.19,4.61,0,0-10.36-2.02-12.38-5.77-.73-1.36-1.16-5.76-.29-8.35.9-2.7,7.2-2.58,9.79-4.32,2.59-1.73,5.19-8.06,8.35-8.06h0Z"/>
      <path class="cls-8" d="m159.39,139.77c-3.25-7.72-2.84-11.46-1.12-15.2,2.06-4.48,5.95-8.25,7.87-6.53,2.11,1.9-.63,1.01-2.33,5.3-1.7,4.3-1.7,3.38-.4,5.92,1.29,2.54,3.02,2.59,4.23,5.62,1.68,4.17.03,3.64.06,7.28.02,3.36,1.14,5.83,3.24,6.81,2.1.98,8.2.85,8.2.85,0,0-1.61,4.02-5.25,4.05-3.65.02-4.44,1.32-8.23-2.68-4.95-5.24-3.03-3.71-6.27-11.42h0Z"/>
      <path class="cls-7" d="m159.39,139.77c-3.25-7.72-2.84-11.46-1.12-15.2,2.06-4.48,5.95-8.25,7.87-6.53,2.11,1.9-.63,1.01-2.33,5.3-1.7,4.3-1.7,3.38-.4,5.92,1.29,2.54,3.02,2.59,4.23,5.62,1.68,4.17.06,3.64.06,7.28,0,3.36,1.14,5.83,3.24,6.81,2.1.98,8.2.85,8.2.85,0,0-1.61,4.02-5.25,4.05-3.65.02-4.44,1.32-8.23-2.68-4.95-5.24-3.03-3.71-6.27-11.42h0Z"/>
      <path class="cls-2" d="m165.28,124.42c2.25-3.2,2.78-5.75,9.27-3.35,6.48,2.41,11.6,5.28,11.6,5.28,0,0-.9,1.83-.14,5.1.75,3.27,2.78,6.36,2.78,6.36,0,0-5.13,9.23-9.3,9.99-1.53.28-5.84-.68-8.04-2.3-2.29-1.7-.24-7.65-1.07-10.66-.85-3-6.07-7.42-5.09-10.42h0Z"/>
      <path class="cls-2" d="m196.2,168.73c-8.34.7-11.77-.84-14.8-3.64-3.63-3.34-6-8.21-3.77-9.5,2.45-1.43.76.91,4.32,3.85,3.55,2.94,2.69,2.66,5.51,2.22,2.81-.45,3.39-2.07,6.64-2.29,4.48-.3,3.47,1.1,6.94,2.19,3.2,1.01,5.89.72,7.47-.97,1.59-1.7,3.34-7.54,3.34-7.54,0,0,3.33,2.78,2.23,6.25-1.1,3.47-.11,4.63-5.07,6.98-6.52,3.09-4.47,1.74-12.81,2.44h0Z"/>
      <path class="cls-2" d="m183.43,158.38c-2.35-3.13-4.62-4.42-.32-9.85,4.3-5.42,8.61-9.4,8.61-9.4,0,0,1.47,1.42,4.82,1.72,3.34.29,6.89-.68,6.89-.68,0,0,7.2,7.72,6.63,11.94-.21,1.54-2.45,5.34-4.67,6.92-2.33,1.66-7.35-2.13-10.46-2.25-3.12-.13-8.94,3.47-11.5,1.61h0Z"/>
      <path class="cls-2" d="m235.12,142.67c-1.9,8.14-4.43,10.93-8.03,12.95-4.3,2.42-9.66,3.17-10.2.65-.59-2.77,1.1-.44,4.99-2.91,3.89-2.48,3.37-1.74,3.81-4.56.46-2.81-.92-3.86-.12-7.03,1.11-4.36,2.12-2.96,4.25-5.92,1.95-2.74,2.5-5.38,1.37-7.41-1.12-2.04-6.14-5.51-6.14-5.51,0,0,3.67-2.3,6.62-.19,2.97,2.12,4.37,1.53,5.08,6.99.93,7.15.27,4.79-1.64,12.94h0Z"/>
      <path class="cls-2" d="m221.34,151.62c-3.7,1.26-5.63,3.02-9.45-2.74-3.83-5.76-6.28-11.1-6.28-11.1,0,0,1.8-.95,3.11-4.04,1.31-3.09,1.49-6.78,1.49-6.78,0,0,9.57-4.46,13.4-2.62,1.39.67,4.31,3.98,5.14,6.58.87,2.72-4.3,6.33-5.38,9.25-1.07,2.92.55,9.57-2.01,11.44h0Z"/>
      <path class="cls-2" d="m222.37,97.59c7.16,4.34,9.03,7.59,9.84,11.64.96,4.82.02,10.17-2.54,9.9-2.82-.29-.08-1.18-1.23-5.65-1.15-4.47-.61-3.74-3.15-5.03-2.53-1.29-3.96-.32-6.71-2.06-3.8-2.4-2.16-2.92-4.33-5.86-2-2.7-4.34-4.04-6.61-3.6-2.28.43-7.14,4.13-7.14,4.13,0,0-1.07-4.21,1.87-6.36,2.93-2.16,2.81-3.68,8.22-2.67,7.1,1.32,4.64,1.22,11.8,5.55h0Z"/>
      <path class="cls-8" d="m226.62,113.47c.06,3.92,1.14,6.29-5.53,8.15-6.65,1.86-12.49,2.54-12.49,2.54,0,0-.35-2.01-2.88-4.21-2.53-2.21-5.98-3.52-5.98-3.52,0,0-1.28-10.48,1.65-13.54,1.07-1.13,5.12-2.89,7.86-2.86,2.85.02,4.69,6.05,7.13,7.98,2.45,1.93,9.27,2.44,10.25,5.45h0Z"/>
      <path class="cls-7" d="m226.62,113.47c0,3.92,1.14,6.29-5.53,8.15-6.65,1.86-12.49,2.54-12.49,2.54,0,0-.35-2.01-2.88-4.21-2.53-2.21-5.98-3.52-5.98-3.52,0,0-1.28-10.48,1.65-13.54,1.07-1.13,5.12-2.89,7.86-2.86,2.85.02,4.69,6.05,7.13,7.98,2.45,1.93,9.27,2.44,10.25,5.45h0Z"/>
      <path class="cls-2" d="m232.46,120.57s1.12-.64,2.93-3.38c2.06-3.08,1.21-4.4,1.21-4.4,0,0,.87,1.73,2.88,3.74,2.01,2.02,4.57,2.27,4.57,2.27,0,0-2.26,1.18-4.29,2.62-2.02,1.44-.86,5.18-.86,5.18,0,0-1.34-2.25-2.78-3.98-1.44-1.74-3.67-2.06-3.67-2.06h0Z"/>
      <path class="cls-8" d="m216.25,159.43s1.34,1.53,4.63,1.58c2.78.05,4.78-.99,4.78-.99,0,0-1.27-.31-1.37,2.54-.1,2.85.55,6.72.55,6.72,0,0-1.97-1.86-4.4-2.35-2.43-.5-6.17,1.17-6.17,1.17,0,0,1.77-1.47,3.05-4.15.96-2.03-1.07-4.52-1.06-4.52h0Z"/>
      <path class="cls-7" d="m216.25,159.43s1.34,1.53,4.63,1.58c2.78.05,4.78-.99,4.78-.99,0,0-1.37-.31-1.37,2.54s.55,6.72.55,6.72c0,0-1.97-1.86-4.4-2.35-2.43-.5-6.17,1.17-6.17,1.17,0,0,1.77-1.47,3.05-4.15.96-2.03-1.06-4.52-1.06-4.52h0Z"/>
      <path class="cls-8" d="m167,155.67s1.34,1.61,4.63,1.59c2.44,0,3.92-2.15,3.92-2.15,0,0-1.63,1.76-1.73,4.61-.1,2.85,1.73,4.61,1.73,4.61,0,0-1.79-1.21-3.83-1.21-2.48,0-5.38,2.36-5.38,2.36,0,0,1.57-2.48,1.86-4.71.28-2.23-1.2-5.09-1.2-5.09h0Z"/>
      <path class="cls-7" d="m167,155.67s1.34,1.61,4.63,1.59c2.44,0,3.92-2.15,3.92-2.15,0,0-1.73,1.76-1.73,4.61s1.73,4.61,1.73,4.61c0,0-1.79-1.21-3.83-1.21-2.48,0-5.38,2.36-5.38,2.36,0,0,1.57-2.48,1.86-4.71.28-2.23-1.2-5.09-1.2-5.09h0Z"/>
      <path class="cls-8" d="m163.17,107.14s-.55.67-.61,3.96c-.06,3.28,2.27,4.06,2.27,4.06,0,0-.74-.76-3.68,1-2.44,1.47-3.22,3.52-3.22,3.52,0,0,.59-3.52-.3-5.29-1.1-2.21-2.63-4.1-2.63-4.1,0,0,2.22-1.29,4.47-1.32,2.24-.03,3.7-1.83,3.7-1.83h0Z"/>
      <path class="cls-7" d="m163.17,107.14s-.61.67-.61,3.96,2.27,4.06,2.27,4.06c0,0-.74-.76-3.68,1-2.44,1.47-3.22,3.52-3.22,3.52,0,0,.59-3.52-.3-5.29-1.1-2.21-2.63-4.1-2.63-4.1,0,0,2.22-1.29,4.47-1.32,2.24-.03,3.7-1.83,3.7-1.83h0Z"/>
      <path class="cls-8" d="m239.76,263.08c4.61.29,7.2,3.17,5.76,10.38-1.45,7.19-5.19,9.5-6.33,17.56-1.16,8.06-1.1,6.32-2.6,11.8-1.72,6.34.86,14.86-5.19,15.26-4.32.29-5.75-5.47-5.47-10.94.32-6.05.29-6.62,2.88-13.24,3.42-8.75,6.61-9.79,5.75-18.43-.87-8.64,1.44-12.39,5.18-12.39h0Z"/>
      <path class="cls-1" d="m243.22,291.02c.86,3.45.86,6.04.86,6.04,0,0-1.43,1.44-2.58-1.45-1.16-2.87.86-8.06,1.73-4.6h0Z"/>
      <path class="cls-1" d="m245.24,288.14c.58,2.88,2.01,4.32,2.3,7.2.29,2.87,3.45,6.05,3.74,2.87.29-3.16-.29-4.9-1.72-7.19-1.44-2.3-4.9-5.77-4.32-2.88h0Z"/>
      <path class="cls-1" d="m252.44,287.27c0,2.01-.29.87,0,3.46.28,2.58.51,2.13,1.72,5.17,1.15,2.88,7.2,6.34,4.9,2.02-2.3-4.32-6.62-12.67-6.62-10.65h0Z"/>
      <path class="cls-1" d="m258.77,287.27c3.74,2.59,4.03,4.9,4.89,7.2.87,2.3,2.03,4.32.87,4.61-1.15.29-2.01.29-3.74-3.46-1.72-3.74-5.19-9.21-2.01-8.35h0Z"/>
      <path class="cls-1" d="m264.24,287.85s1.72.87,3.46,3.17c1.73,2.29,3.69,5.69,2.31,6.9-2.31,2.01-1.45.29-3.75-3.74-2.31-4.03-3.16-5.19-3.16-6.33,0-1.68,1.15,0,1.15,0h0Z"/>
      <path class="cls-1" d="m269.72,287.56c-1.45.87,1.44,3.74,2.87,6.33,1.45,2.59,1.45,4.9,2.59,3.46,1.16-1.45,2.02-3.17-.29-5.47-2.3-2.31-4.32-6.63-5.18-4.32h0Z"/>
      <path class="cls-1" d="m277.49,287.56s-2.89-1.44-.58,2.01c2.3,3.46,4.61,3.46,4.61,3.46,0,0,1.45-.29,0-2.59-1.43-2.3-4.03-2.88-4.03-2.88h0Z"/>
      <path class="cls-8" d="m163.18,263.66c-4.61.29-7.2,3.17-5.77,10.37,1.45,7.2,5.19,9.5,6.34,17.56,1.16,8.07,1.1,6.33,2.59,11.81,1.73,6.33-.86,14.86,5.19,15.26,4.32.29,5.75-5.48,5.46-10.94-.31-6.04-.28-6.62-2.87-13.25-3.43-8.75-6.62-9.79-5.77-18.43.87-8.64-1.44-12.38-5.18-12.38h0Z"/>
      <path class="cls-8" d="m296.2,153.38l-36.28,19.58s-4.2,34.88-20.72,54.71c-20.16,24.19-23.61,27.06-35.13,35.12-11.52,8.07-31.68,20.74-31.68,20.74l4.61,11.52s60.6-30.92,82.35-52.99c39.74-40.31,36.85-88.68,36.85-88.68h0Z"/>
      <path class="cls-1" d="m159.72,291.59c-.86,3.46-.86,6.05-.86,6.05,0,0,1.44,1.44,2.6-1.44,1.14-2.88-.87-8.06-1.74-4.61h0Z"/>
      <path class="cls-1" d="m157.7,288.72c-.57,2.87-2.02,4.32-2.31,7.19-.29,2.88-3.45,6.05-3.74,2.88-.29-3.17.29-4.9,1.72-7.2,1.45-2.31,4.9-5.76,4.32-2.87h0Z"/>
      <path class="cls-1" d="m150.51,287.85c0,2.01.28.87,0,3.45-.29,2.59-.52,2.14-1.74,5.19-1.15,2.88-7.19,6.33-4.89,2.02,2.3-4.32,6.62-12.67,6.62-10.65h0Z"/>
      <path class="cls-1" d="m144.18,287.85c-3.75,2.59-4.04,4.9-4.9,7.2-.87,2.3-2.01,4.32-.87,4.61,1.16.28,2.02.28,3.74-3.46,1.73-3.74,5.19-9.22,2.02-8.35h0Z"/>
      <path class="cls-1" d="m138.7,288.43s-1.72.86-3.45,3.16c-1.73,2.3-3.7,5.7-2.3,6.91,2.3,2.01,1.44.29,3.74-3.74,2.3-4.03,3.16-5.19,3.16-6.34,0-1.68-1.15,0-1.15,0h0Z"/>
      <path class="cls-1" d="m133.23,288.14c1.44.86-1.45,3.74-2.88,6.33-1.44,2.59-1.44,4.9-2.59,3.45-1.15-1.44-2.02-3.16.29-5.47,2.31-2.3,4.32-6.62,5.19-4.32h0Z"/>
      <path class="cls-1" d="m125.46,288.14s2.88-1.45.58,2.01c-2.3,3.45-4.61,3.45-4.61,3.45,0,0-1.43-.29,0-2.58,1.44-2.3,4.03-2.88,4.03-2.88h0Z"/>
      <path class="cls-8" d="m155.85,362.97l.96-4.48c2.1.35,3.57.53,4.45.52,1.39-.01,2.58-.37,3.61-1.08.69-.48,1.3-1.19,1.81-2.13.29-.56.47-.99.54-1.28l5.48,1.16-7.13,33.5-6.74-1.44,4.91-23.1-7.88-1.68h0Z"/>
      <path class="cls-8" d="m180.88,385.26c.82.98,2,1.53,3.54,1.64,1.54.1,2.77-.27,3.7-1.14.95-.87,1.48-2.14,1.59-3.83.12-1.75-.23-3.09-1.06-4.05-.82-.97-1.97-1.51-3.48-1.62-1.51-.11-2.74.27-3.7,1.12-.95.83-1.48,2.13-1.6,3.86-.11,1.68.23,3.02,1.02,4.01h0Zm-6.36-9.16c.98-1.49,2.35-2.57,4.08-3.23-1.57-1.22-2.56-2.48-2.98-3.79-.39-1.32-.56-2.53-.48-3.65.17-2.49,1.25-4.54,3.25-6.15,1.99-1.62,4.69-2.33,8.1-2.09,3.41.24,5.98,1.3,7.73,3.19,1.75,1.88,2.54,4.06,2.36,6.54-.08,1.12-.41,2.29-1.01,3.54-.57,1.24-1.72,2.27-3.43,3.1,1.61,1.07,2.79,2.4,3.53,4.02.74,1.61,1.03,3.38.91,5.29-.21,2.87-1.44,5.25-3.72,7.13-2.26,1.86-5.3,2.66-9.12,2.39-3.81-.26-6.63-1.47-8.46-3.62-1.82-2.16-2.62-4.68-2.43-7.55.13-1.92.69-3.63,1.66-5.12h0Zm7.91-6.36c.71.84,1.75,1.3,3.1,1.39,1.37.09,2.44-.22,3.23-.95.81-.74,1.26-1.73,1.34-2.97.09-1.35-.21-2.43-.91-3.23-.68-.83-1.7-1.28-3.08-1.37-1.34-.09-2.44.22-3.25.93-.81.7-1.26,1.73-1.35,3.08-.09,1.24.22,2.28.92,3.12h0Z"/>
      <path class="cls-8" d="m208.35,385.97c.94.87,2.18,1.25,3.72,1.14,1.54-.1,2.71-.65,3.51-1.64.8-.98,1.16-2.32,1.04-4-.13-1.75-.66-3.04-1.62-3.86-.94-.85-2.17-1.22-3.68-1.12-1.51.1-2.68.64-3.5,1.61-.83.96-1.17,2.31-1.04,4.05.11,1.68.64,2.96,1.57,3.82h0Zm-7.59-8.18c.76-1.61,1.97-2.87,3.6-3.78-1.73-.98-2.88-2.09-3.48-3.33-.58-1.25-.9-2.44-.98-3.55-.18-2.48.62-4.66,2.37-6.53,1.75-1.89,4.32-2.96,7.73-3.19,3.41-.24,6.11.45,8.1,2.08,1.99,1.62,3.07,3.67,3.25,6.15.08,1.12-.08,2.33-.5,3.66-.4,1.3-1.39,2.49-2.98,3.54,1.75.83,3.1,1.98,4.06,3.48.95,1.5,1.5,3.2,1.63,5.11.2,2.88-.69,5.4-2.69,7.57-1.98,2.16-4.89,3.38-8.7,3.65-3.81.26-6.78-.54-8.89-2.42-2.1-1.88-3.25-4.27-3.45-7.14-.13-1.91.18-3.68.93-5.3h0Zm6.94-7.4c.82.74,1.91,1.05,3.25.96,1.37-.1,2.4-.57,3.08-1.4.7-.84,1-1.87.92-3.12-.09-1.34-.55-2.38-1.36-3.08-.79-.71-1.87-1.02-3.23-.93-1.35.09-2.39.56-3.1,1.37-.7.8-1.01,1.89-.91,3.24.08,1.24.52,2.22,1.34,2.96h0Z"/>
      <path class="cls-8" d="m225.83,359.65c1.61-2.67,4.06-4.37,7.38-5.07,5.09-1.08,9.07.43,11.92,4.54,1.62,2.33,2.88,5.58,3.77,9.75.86,4.05,1.06,7.54.6,10.48-.87,5.58-3.94,8.93-9.21,10.04-2.51.54-4.93.28-7.24-.77-2.33-1.08-3.92-3-4.82-5.79l6.56-1.39c.36.95.95,1.66,1.76,2.14.8.47,1.77.59,2.9.35,2.17-.47,3.44-1.99,3.8-4.58.2-1.43.08-3.42-.33-5.99-.44.89-.96,1.6-1.55,2.14-1.08,1-2.51,1.7-4.32,2.08-2.65.57-5.22.16-7.68-1.24-2.45-1.41-4.05-3.84-4.78-7.32-.76-3.58-.35-6.7,1.24-9.36h0Zm13.92,10.92c1.29-1.27,1.68-3.09,1.19-5.44-.4-1.89-1.18-3.29-2.3-4.21-1.12-.92-2.44-1.22-3.98-.9-1.12.25-2.02.76-2.69,1.57-1.05,1.25-1.33,3.06-.83,5.42.42,1.98,1.14,3.39,2.15,4.22,1.03.82,2.38,1.03,4.06.68.91-.2,1.7-.64,2.4-1.33h0Z"/>
      <path class="cls-6" d="m194.54,129.39c0-2.31,1.57-4.16,3.51-4.16s3.51,1.86,3.51,4.16-1.57,4.17-3.51,4.17-3.51-1.87-3.51-4.17h0Z"/>
      <path class="cls-4" d="m196.74,126.32c0-2.31,1.57-4.17,3.51-4.17s3.51,1.87,3.51,4.17-1.58,4.17-3.51,4.17-3.51-1.87-3.51-4.17h0Zm-4.39.43c0-2.3,1.57-4.16,3.51-4.16s3.51,1.86,3.51,4.16-1.58,4.17-3.51,4.17-3.51-1.87-3.51-4.17h0Zm-.45,4.39c0-2.3,1.57-4.16,3.51-4.16s3.51,1.86,3.51,4.16-1.57,4.18-3.51,4.18-3.51-1.87-3.51-4.18h0Zm4.84.44c0-2.3,1.57-4.17,3.51-4.17s3.51,1.87,3.51,4.17-1.58,4.17-3.51,4.17-3.51-1.87-3.51-4.17h0Z"/>
      <path class="cls-5" d="m106.74,152.8l36.28,19.58s4.21,34.88,20.73,54.71c20.16,24.19,23.62,27.06,35.13,35.13,11.52,8.06,31.68,20.73,31.68,20.73l-4.61,11.52s-60.6-30.92-82.35-52.98c-39.74-40.31-36.86-88.68-36.86-88.68h0Z"/>
      <path class="cls-8" d="m35.25,225.25c1.57-.36,2.72-.9,3.44-1.61,1.32-1.3,1.86-3.38,1.61-6.23-.15-1.71-.45-3.08-.93-4.11-.9-1.96-2.33-2.86-4.29-2.69-1.15.1-1.98.68-2.53,1.73-.52,1.07-.92,2.69-1.21,4.88l-.5,3.74c-.51,3.68-1.17,6.25-2.01,7.72-1.39,2.47-3.8,3.86-7.2,4.16-3.11.27-5.78-.64-8.04-2.71-2.25-2.08-3.56-5.3-3.96-9.68-.32-3.66.38-6.85,2.11-9.6,1.7-2.76,4.39-4.36,8.06-4.81l.61,6.96c-2.07.31-3.47,1.34-4.21,3.12-.47,1.18-.65,2.6-.49,4.29.15,1.87.66,3.33,1.52,4.37.85,1.04,1.95,1.51,3.3,1.39,1.24-.11,2.12-.74,2.63-1.89.34-.74.69-2.29,1.03-4.64l.92-6.11c.39-2.67,1.06-4.72,1.99-6.15,1.46-2.21,3.72-3.46,6.81-3.73,3.17-.28,5.91.71,8.22,2.96,2.3,2.24,3.65,5.57,4.03,9.99.39,4.52-.32,8.15-2.15,10.92-1.84,2.77-4.57,4.32-8.17,4.63l-.61-6.91h0Z"/>
      <polygon class="cls-8" points="43.91 197.84 9.35 193.61 10.23 186.46 23.4 188.07 25.07 174.56 11.89 172.95 12.77 165.77 47.32 170.02 46.44 177.19 31.02 175.3 29.37 188.8 44.78 190.69 43.91 197.84 43.91 197.84"/>
      <polygon class="cls-8" points="29.37 130.27 23.67 147.78 30.7 150.07 35.93 133.99 41.67 135.86 36.45 151.94 44.97 154.71 50.92 136.37 56.87 138.31 48.72 163.4 15.61 152.64 23.5 128.36 29.37 130.27 29.37 130.27"/>
      <polygon class="cls-8" points="29.04 116.79 41.01 95.2 46.36 98.17 37.9 113.44 44.9 117.32 52.31 103.95 57.6 106.89 50.2 120.25 62.95 127.32 59.45 133.65 29.04 116.79 29.04 116.79"/>
      <polygon class="cls-8" points="47.72 86.25 63.59 67.34 68.27 71.28 57.05 84.65 63.19 89.8 73.01 78.09 77.65 81.98 67.82 93.68 79 103.06 74.36 108.6 47.72 86.25 47.72 86.25"/>
      <polygon class="cls-8" points="98.91 82.48 93.54 87.32 70.25 61.44 75.62 56.61 98.91 82.48 98.91 82.48"/>
      <polygon class="cls-8" points="109.58 39.93 94.13 49.97 98.15 56.16 112.33 46.96 115.63 52.03 101.44 61.24 106.32 68.75 122.48 58.25 125.89 63.5 103.77 77.87 84.81 48.67 106.22 34.77 109.58 39.93 109.58 39.93"/>
      <polygon class="cls-8" points="117.47 28.64 124.22 25.92 134.91 52.39 150.89 45.94 153.24 51.74 130.51 60.92 117.47 28.64 117.47 28.64"/>
      <path class="cls-8" d="m159.07,20.54l4.34,22.3,6.58-1.27c3.37-.66,5.39-2.78,6.07-6.36.37-1.97.32-4.21-.18-6.73-.67-3.47-1.75-6.03-3.2-7.68-1.45-1.65-3.79-2.17-7.03-1.54l-6.58,1.28h0Zm12.07-7.74c2.55.32,4.77,1.4,6.67,3.2,1.52,1.47,2.69,3.15,3.5,5.04.82,1.9,1.41,3.74,1.75,5.54.89,4.55.72,8.57-.49,12.08-1.65,4.73-5.05,7.59-10.22,8.6l-14.72,2.86-6.65-34.17,14.73-2.86c2.13-.38,3.94-.47,5.43-.29h0Z"/>
      <path class="cls-8" d="m209.15,9.57l7.34.9-2.6,21.24c-.3,2.38-.23,4.14.2,5.31.63,2.05,2.42,3.25,5.36,3.61,2.92.36,4.94-.37,6.05-2.21.7-1.03,1.19-2.72,1.48-5.1l2.6-21.24,7.35.9-2.61,21.24c-.45,3.67-1.38,6.46-2.76,8.37-2.59,3.49-6.87,4.86-12.86,4.13-5.98-.74-9.82-3.11-11.5-7.12-.89-2.19-1.1-5.12-.65-8.79l2.6-21.24h0Z"/>
      <polygon class="cls-8" points="250.38 15.65 257.6 18.13 262.79 45.63 270.7 22.65 277.12 24.85 265.78 57.77 258.9 55.4 253.51 27.39 245.45 50.77 239.05 48.56 250.38 15.65 250.38 15.65"/>
      <polygon class="cls-8" points="277.19 64.39 270.8 61 287.15 30.26 293.52 33.65 277.19 64.39 277.19 64.39"/>
      <polygon class="cls-8" points="324.76 54.51 321.13 59.5 312.71 53.38 295.87 76.56 289.94 72.25 306.78 49.08 298.32 42.93 301.94 37.94 324.76 54.51 324.76 54.51"/>
      <polygon class="cls-8" points="346.27 85.37 333.7 71.9 328.3 76.94 339.83 89.31 335.41 93.43 323.88 81.07 317.33 87.17 330.48 101.27 325.89 105.54 307.9 86.24 333.36 62.5 350.79 81.17 346.27 85.37 346.27 85.37"/>
      <path class="cls-8" d="m357.26,101.1l-19.48,11.71,3.45,5.74c1.77,2.94,4.45,4.12,8.05,3.54,1.97-.33,4.06-1.15,6.26-2.47,3.04-1.83,5.08-3.71,6.13-5.63,1.06-1.93.74-4.31-.96-7.15l-3.45-5.74h0Zm11.4,8.69c.57,2.51.32,4.96-.74,7.35-.86,1.93-2.04,3.61-3.54,5.02-1.5,1.41-3.03,2.59-4.6,3.53-3.97,2.39-7.81,3.62-11.52,3.68-5.01.06-8.87-2.15-11.57-6.66l-7.73-12.86,29.84-17.92,7.73,12.85c1.08,1.86,1.8,3.54,2.13,5h0Z"/>
      <polygon class="cls-8" points="384.09 144.05 390.07 168 384.13 169.48 379.9 152.54 372.14 154.48 375.83 169.31 369.97 170.77 366.27 155.94 352.11 159.47 350.36 152.46 384.09 144.05 384.09 144.05"/>
      <polygon class="cls-8" points="362.48 174.18 363.47 181.27 356.5 182.25 355.51 175.16 362.48 174.18 362.48 174.18"/>
      <path class="cls-8" d="m388.87,192.72c2.82,2.88,4.19,6.51,4.11,10.89-.1,5.86-2.1,10.1-5.98,12.74-2.19,1.46-4.36,2.22-6.54,2.3l.13-7.27c1.68-.45,2.96-1.03,3.81-1.76,1.54-1.29,2.33-3.25,2.38-5.84.04-2.65-.99-4.75-3.11-6.32-2.1-1.57-5.09-2.39-9-2.45-3.9-.07-6.85.68-8.83,2.25-1.96,1.59-2.96,3.63-3.01,6.11-.04,2.55.75,4.52,2.4,5.88.89.76,2.22,1.4,4.01,1.91l-.13,7.2c-3.78-.69-6.84-2.35-9.17-5-2.33-2.63-3.46-5.95-3.39-10,.08-5.01,1.75-8.92,5.02-11.73,3.27-2.81,7.73-4.17,13.35-4.06,6.07.1,10.73,1.82,13.96,5.13h0Z"/>
      <polygon class="cls-8" points="363.18 223.8 362.07 230.87 355.11 229.76 356.23 222.69 363.18 223.8 363.18 223.8"/>
    </g>
  </g>
</svg>