<?xml version="1.0" encoding="UTF-8"?>
<svg id="Livello_2" data-name="Livello 2" xmlns="http://www.w3.org/2000/svg" viewBox="0 0 394.72 576.68">
  <defs>
    <style>
      .cls-1 {
        fill: #009857;
      }

      .cls-1, .cls-2, .cls-3, .cls-4, .cls-5, .cls-6, .cls-7 {
        stroke-width: 0px;
      }

      .cls-2 {
        fill: #e65981;
      }

      .cls-3 {
        fill: #fff;
      }

      .cls-4 {
        fill: #3e3e36;
      }

      .cls-5 {
        fill: #f3c200;
      }

      .cls-6 {
        fill: #f7eca5;
      }

      .cls-7 {
        fill: #006cb6;
      }
    </style>
  </defs>
  <g id="Livello_1-2" data-name="Livello 1">
    <g>
      <path class="cls-4" d="m197.73,524.97c31.98-.04,63.07-5.6,93.19-16.2,8.3-2.92,16.32-6.86,23.95-11.41,1.39-.83,2.83-1.6,4.32-2.2,10.34-4.12,10.54-6.4,9.15-17.6-1.15-9.26-4.57-17.24-7.95-25.62-5.96-14.77,2.14-30.22,17.13-34.15,17.31-4.54,33.14,5.35,35,23.41,1.46,14.22,4.33,27.84,11.91,40.07,5.31,8.57,3.66,16.4-1.66,24.02-10.3,14.73-23.66,26.2-39.11,35.1-23.93,13.78-50.2,21.63-76.74,28.27-10.46,2.62-21.3,4.16-32.13,5.46-13.07,1.56-26.2,2.51-39.27,2.57-14.69.07-29.39-1.27-44.02-3.56-18.57-2.91-36.73-7.17-54.47-13.21-18.78-6.39-37.26-13.5-53.71-24.95-13.48-9.38-25.91-19.77-33.58-34.81-2.84-5.57-3.37-10.65-.08-16.52,4.55-8.11,8.8-16.47,11.03-25.67,1.55-6.39.7-13.05,2.43-19.37,3.65-13.3,11.13-19.66,22.97-21.45,13.94-2.11,22.89,3.86,28.76,15.47,3.8,7.52,3.02,15.51-1,22.4-6.26,10.74-7.23,22.17-6.79,34.05.04,1.14-.35,2.14,1.5,3.01,16.61,7.82,32.95,16.3,50.65,21.45,15.38,4.47,30.94,8.14,47.01,9.55,10.5.92,20.94,2.24,31.52,1.91Z"/>
      <path class="cls-4" d="m197.69.13C261.61.13,325.53.19,389.44,0c4.57-.01,5.29,1.3,5.28,5.48-.13,68.8-.13,137.61-.07,206.42.01,15.97-1.71,31.74-3.85,47.55-2.77,20.44-7.55,40.34-14.21,59.76-10.7,31.23-25.97,60.05-45.92,86.45-11.59,15.33-24.54,29.4-38.62,42.31-18.83,17.26-39.52,32.16-61.73,44.82-9.23,5.26-18.44,10.57-28.29,14.7-3.31,1.39-5.91,1.61-9.18.03-17.04-8.2-33.64-17.25-49.26-27.84-14.01-9.5-27.44-19.83-40.01-31.33-9.04-8.28-17.63-16.93-25.64-26.12-11.52-13.21-21.88-27.34-30.92-42.42-13.84-23.08-24.5-47.51-32.12-73.31-4.31-14.6-7.5-29.4-9.84-44.44-2.25-14.44-3.42-28.92-4.21-43.52-.48-8.77-.65-17.52-.67-26.27C.07,129.96.18,67.65,0,5.34-.01.83,1.2.01,5.45.02c64.08.15,128.17.1,192.25.1Z"/>
      <path class="cls-5" d="m370.69,458.55c3.61,11.5,7.82,21.85,12.63,31.99,1.57,3.31-.62,6.75-2.47,9.63-11.04,17.1-26.16,29.7-43.99,39.13-25.97,13.74-53.72,22.21-82.49,27.71-13.21,2.53-26.45,4.24-39.89,5.17-8.45.58-16.88.91-25.27.62-14.07-.49-28.02-2.21-41.95-4.58-19.65-3.34-38.69-8.65-57.43-15.25-18.87-6.65-37-15.02-52.5-27.7-8.97-7.34-17.73-15.47-23.4-26.06-2.11-3.94-2.67-7.95-.45-12.15,4.8-9.1,8.45-18.65,11.02-28.72,2.21.92,2.43,3.37,3.45,5.09,6.28,10.62,15.85,17.9,25.82,24.3,24.07,15.45,49.88,27.34,77.81,33.88,13.65,3.19,27.59,5.02,41.59,6.47,13.94,1.45,27.86,1.04,41.74.63,11.54-.34,23.01-2.61,34.48-4.39,16.89-2.61,32.96-7.47,48.5-14.35,19.89-8.81,39.81-17.38,56.59-31.96,6.36-5.52,10.98-12,16.21-19.47Z"/>
      <path class="cls-5" d="m331.76,488.56c1.89-7.96.83-20.16-2.1-27.48,7.62.45,14.63-.79,20.82-5.24,1.65-1.19,2.16.57,2.17,1.91,0,4.59.81,9.06,1.8,13.51.38,1.72-.88,2.46-1.86,3.18-6.66,4.9-12.92,10.39-20.83,14.13Z"/>
      <path class="cls-5" d="m43.54,454.92c6.59,5.43,13.94,6.97,22.38,5.8-4.49,8.92-2.16,18.11-3.16,27.41-7.52-4.11-13.68-9.32-20.13-14.13-1.52-1.13-1.74-2.67-1.45-4.42.77-4.64,1.5-9.28,2.36-14.67Z"/>
      <path class="cls-2" d="m50.12,452.87c-3.99-2.48-6.07-5.28-5.24-9.2.68-3.21,3.56-4.39,6.41-5.37,2.31-.79,4.15.54,5.87,1.5,1.06.6,2.2,2.26,1.53,3.74-.58,1.27-1.68,2.67-3.43,2.39-5.43-.84-5.7,2.52-5.14,6.93Z"/>
      <path class="cls-2" d="m345.69,452.69c0-1.39.05-2.48-.01-3.56-.1-1.64.82-3.75-2.76-2.56-1.45.48-5.54.12-6.13-3.31-.51-2.92,2-4.02,4.08-4.84,3.4-1.34,6.11.48,7.88,3.09,3.17,4.68,2.46,6.99-3.05,11.19Z"/>
      <path class="cls-5" d="m360.22,426.31c-6.8.16-11.88,3.75-17.77,7.86,1.21-5.52,3.58-9.36,8-11.31,3.94-1.74,6.53,1.98,9.76,3.46Z"/>
      <path class="cls-5" d="m34.76,427.25c8.75-8.19,14.24-3.97,17.46,6.41-5.68-2.68-9.91-7.88-17.46-6.41Z"/>
      <path class="cls-5" d="m349.14,436.21c4.37-4.74,8.74-5.36,13.42-5.25,3.14.08,4.14,2.6,3.89,4.64-.39,3.16-2.79.43-3.71.2-4.22-1.05-8.33-.21-13.59.41Z"/>
      <path class="cls-5" d="m46.4,436.35c-6.59-1.72-12.2-1.09-17.94.85,2.75-7.78,9.7-8.24,17.94-.85Z"/>
      <path class="cls-5" d="m26.64,448.73c-.48-7.09,3.44-9.19,16.13-8.49-5.35,4.52-13.02,2.36-16.13,8.49Z"/>
      <path class="cls-5" d="m344.55,421.19c-3.57,4-5.43,8.59-6.32,14.28-3.37-4.04-2.77-7.72-1.05-11.48,1.44-3.15,4.1-3.26,7.37-2.8Z"/>
      <path class="cls-5" d="m368.79,447.96c-4.78-2.38-8.27-5.79-13.32-5.18-.47.06-1.32-.98-1.57-1.66-.26-.73.49-1.04,1.21-1.1,4.33-.39,8.51.1,12.31,2.36,2.07,1.22.93,3.27,1.37,5.59Z"/>
      <path class="cls-5" d="m29.65,457.7c-3.76-4.99.87-6.54,3.49-8.67,1.19-.97,2.91-1.31,4.43-1.83.91-.31,2.02-.58,2.38.77.2.76.22,1.61-.85,1.98-4.05,1.42-6.2,5.24-9.44,7.75Z"/>
      <path class="cls-5" d="m57.54,434.71c-1.72-4.75-2.86-9.6-7.07-12.78,3.95-1.42,5.44-1.44,6.69.78,2.1,3.75,3.1,7.75.39,12Z"/>
      <path class="cls-5" d="m364.87,459.37c-.52-6.81-8.04-6.82-9.91-12.06,7.71-.25,12.99,5.6,9.91,12.06Z"/>
      <path class="cls-5" d="m357.96,468.06c-.65-4.14-1.32-8.39-1.99-12.63,8.01,5.96,7.94,7.92,1.99,12.63Z"/>
      <path class="cls-5" d="m38.6,455.78c1.38,4.07-1.41,7.31-.54,11.13-2.75-.43-4.9-2.32-4.63-3.94.44-2.66,1.64-5.61,5.17-7.19Z"/>
      <path class="cls-5" d="m59.08,453.74c-.33,1.25.66,3.62-1.8,3.03-1.63-.39-4.28.05-4.33-3.33-.05-3.75,3.06-2.64,4.49-2.95,2.69-.6,1.08,2.11,1.64,3.25Z"/>
      <path class="cls-5" d="m72.77,442.93c.69,6.63-4.3,6.45-7.71,7.93-.7.3-1.71.2-1.92-.91-.21-1.11.14-1.7,1.43-2.04,3.01-.8,5.65-2.41,8.19-4.98Z"/>
      <path class="cls-5" d="m331.19,443.64c-7.82-4.63-8.44-5.83-5.57-10.53,1.56,3.79,3.25,7.34,5.57,10.53Z"/>
      <path class="cls-5" d="m323.02,444.23c3.18,1.55,6.16,3.26,9.07,5.85-7.01.39-9.14-1.03-9.07-5.85Z"/>
      <path class="cls-5" d="m64.28,442.92c1.98-3.57,4.1-6.7,5.02-10.36,3.48,4.9,2.84,6.32-5.02,10.36Z"/>
      <path class="cls-5" d="m336.37,450.17c3.74.09,4.71,1.69,4.29,4.45-.26,1.7-2.37,2.32-2.78,2.07-2.79-1.72-.15-4.32-1.51-6.52Z"/>
      <path class="cls-5" d="m62.24,437.29c1.49-3.92.43-7.92,1.16-13.11,2.71,5.57,1.76,9.51-1.16,13.11Z"/>
      <path class="cls-5" d="m330.87,426.66c.48,3.68,1.34,7.24,2.43,10.76-2.79-3.2-3.76-6.78-2.43-10.76Z"/>
      <path class="cls-5" d="m68.62,453.82c-.73,2.61-2.21,3.34-4.37,3.08-1.1-.13-1.46-1.04-1.09-1.74,1.24-2.35,3.43-.69,5.46-1.34Z"/>
      <path class="cls-5" d="m331.86,456.29c-2.07.95-3.69,1.24-4.88-1.11,1.72-.03,3.49-.98,4.88,1.11Z"/>
      <path class="cls-5" d="m198.06,3.12c63.08,0,126.16.05,189.23-.11,4.37-.01,5.46.99,5.45,5.42-.16,67.46.15,134.93-.32,202.39-.1,14.38-1.67,28.82-3.59,43.2-2.91,21.74-7.58,43.02-14.62,63.7-10.37,30.45-25.03,58.75-44.32,84.57-13.1,17.53-28.2,33.15-44.52,47.68-12.02,10.7-24.88,20.22-38.24,29.09-14.99,9.96-31.1,17.93-47.18,25.92-1.75.87-3.05.52-4.51-.15-25.28-11.63-49.06-25.69-71.07-42.84-12.53-9.76-24.42-20.17-35.37-31.63-15.21-15.92-28.47-33.38-39.87-52.22-12.88-21.3-22.84-43.93-30.23-67.69-5.42-17.45-9.13-35.25-11.89-53.33-3.76-24.63-3.96-49.37-3.91-74.17.1-57.8.09-115.61-.08-173.41-.01-4.97.92-6.6,6.32-6.58,62.91.22,125.82.14,188.73.14Z"/>
      <path class="cls-4" d="m331.19,525.23c-1.28,2.17.5,3.68.46,5.38-.04,1.4.86,3.39-.75,4.08-1.59.68-3.59.67-5-1.02-1.06-1.27-2.21-2.47-3.5-3.9-.99,2.12.48,3.07.94,4.29.72,1.88,2.42,3.42-.87,5.08-3.43,1.74-3.79-.36-4.83-2.47-2.44-5-5.06-9.9-7.48-14.9-.69-1.42-2.69-3.37.04-4.48,2.27-.92,4.47-4.19,7.39-1.01,2.2,2.4,4.81,4.41,6.99,7.11-.63-3.36-.97-6.81-1.98-10.06-.63-2.04.48-2.43,1.62-3.22,3.43-2.4,5.6-1.87,7.39,2.24,2.21,5.07,5.07,9.85,7.71,14.72.81,1.51,1.44,2.79-.83,3.55-1.71.57-3.48,2.51-4.78-.59-.68-1.6-1.61-3.1-2.5-4.79Z"/>
      <path class="cls-4" d="m287.64,541.57c-.38,1.31,1.08,3.14,1.54,5.17.37,1.64,1.91,3.61-1.15,4.13-1.83.31-3.64,1.39-4.5-2.13-1.69-6.89-4.34-13.55-6.56-20.22,8.11-4.24,10.27,3.33,14.52,7.31.58-3.21-1.55-5.44-1.87-8.11-.15-1.29-1.98-2.97.23-3.57,1.76-.48,4.38-1.31,5.36,1.72,2.09,6.47,4.2,12.94,6.29,19.41.48,1.49-.55,2.42-1.64,2.49-1.58.09-3,2.06-4.89,0-2.21-2.39-4.99-4.27-7.32-6.21Z"/>
      <path class="cls-4" d="m82.17,527.32c1.9-3.6,3.49-6.06,4.53-8.74.9-2.31,1.95-2.47,3.95-1.48,1.93.96,2.54,1.85,1.37,4.01-3.04,5.61-5.79,11.36-8.68,17.05-.63,1.24-.92,3.23-2.97,2.45-1.79-.68-3.58-1.51-3.41-4.18.23-3.56.06-7.15-.66-10.89-1.22,2.4-2.56,4.75-3.62,7.23-1.03,2.41-2.54,2.58-4.7,1.67-2.36-.99-2.07-2.22-1.08-4.21,2.63-5.24,4.88-10.68,7.46-15.94.63-1.29,1-3.95,3.09-2.99,1.42.65,3.2,1.5,3.76,3.99.83,3.63.58,7.2.95,12.03Z"/>
      <path class="cls-4" d="m167.53,562.93c-6.53.58-9.07-1.96-9.53-12.14-.34-7.49,5-14.03,10.63-13.85,6.05.19,10.56,5.69,10.21,13.11-.32,6.58-3.63,14.34-11.3,12.87Z"/>
      <path class="cls-4" d="m58.44,527.94c-6.11-.01-10.23-3.72-10.38-9.33-.18-7.03,7.03-15.68,13.06-15.66,6.25.02,9.95,3.81,9.91,10.16-.05,7.39-6.37,14.84-12.59,14.83Z"/>
      <path class="cls-4" d="m368.66,505.66c-.08,5.79-6.52,10.14-12.07,8.4-1.93-.6-4-1.56-3.61-3.28.49-2.1,2.47-3.71,5.22-3.03.63.16,1.32.19,1.97.16,1.29-.06,2.44-.71,2.3-2.04-.16-1.56-1.49-2.2-2.95-1.81-1.87.5-3.72,1.15-5.5,1.93-3.76,1.64-6.42-.4-8.21-3.04-2.28-3.35-1.44-6.87,1.27-9.89,2.57-2.87,5.75-3.94,9.34-2.67,1.19.42,2.64,1.73,2.17,3.54-.53,2.08-2.53,2.8-4.16,2.78-1.22-.01-2.16-.41-2.58.98-.17.55-.13,1.5.22,1.81,1.07.95,2.05.16,3.13-.37,2.57-1.27,4.88-2.71,8.23-1.29,3.77,1.6,5.48,3.88,5.23,7.83Z"/>
      <path class="cls-4" d="m97.99,536.95c-.93-1.14-2.11-2.16-2.75-3.44-1.73-3.47.17-9.2,3.37-10.75,3.33-1.61,10.17.21,11.87,3.27,1.12,2.01.19,4.2.71,7.16-2.64-1.65-6.01-.01-6.73-3.96-.04-.24-1.79-1.67-2.9-.29-1.33,1.66.25,2.62,1.19,3.15,3.59,2.01,5.86,4.45,5.31,9.02-.37,3.07-1.33,5.52-4.31,6.46-4.29,1.35-8.13-.1-11.43-2.85-2.45-2.05-1.1-4.97-1.21-7.51-.06-1.43,1.37-1.52,2.15-1.07,1.57.9,3.16.83,4.81.75.66.91.19,2.24,1.14,3.07.69-1.47-.79-2.02-1.23-3Z"/>
      <path class="cls-4" d="m30.11,505.14c-.61-5.95,2.81-9.87,6.08-13.73,1.8-2.12,9.77-2.41,12.08-.27,2.78,2.57,5.07,5.79,3.09,9.94-.42.88.47,3.38-1.85,2.5-1.63-.62-4.26-1.1-3.77-3.64.38-1.97.32-3.31-1.68-3.91-1.8-.54-3.07.48-4.36,1.7-1.63,1.55-2.31,3.59-3.23,5.47-.69,1.4-1.08,3.29.34,4.58,1.31,1.19,2.96,1.2,4.43.11,2.02-1.5,3.69-1.08,5.08.85,1.77,2.46-.85,3.22-1.94,4.22-2.49,2.27-5.48,2.78-8.63,1.19-3.82-1.92-6.52-4.52-5.64-9.02Z"/>
      <path class="cls-4" d="m206.94,563.92c-1.66,0-3.32-.04-4.98,0-1.45.04-2.21-.59-2.06-2.05.62-6.3-1.02-12.47-1.06-18.74-.01-2.21.42-3.2,2.96-3.29,3.41-.12,6.75-1.25,10.26-.95,1.64.14,2.8.15,2.86,2.35.06,2.35-.98,2.84-2.98,2.71-1.49-.1-2.99-.09-4.48.04-2.46.21-1.52,2.18-1.49,3.45.05,2.05,1.22,1.16,2.36.8,1.07-.34,2.28-.24,3.43-.31,1.78-.11,3.28-.07,3.15,2.49-.11,2.16-.71,3.54-3.12,3.51-1.33-.02-2.66.04-3.98.01-2.49-.05-1.88,1.79-1.89,3.16-.01,2.32,1.2,1.62,2.57,1.08.88-.35,2.01-.42,2.93-.2,1.59.38,4.27-1.49,4.47,2.09.18,3.33-2.02,3.7-4.44,3.84-1.49.08-2.99.02-4.48.01Z"/>
      <path class="cls-4" d="m276.01,554.93c-1.26.18-2.24-.44-3.16-1.59-2.26-2.81-5.3-2.52-6.61.86-.79,2.03-1.7,3.38-3.85,3.69-1.86.27-2.99-.36-2.44-2.43,1.68-6.39.41-13.05,1.8-19.48.35-1.61-.07-3.56,2.09-3.91,1.89-.31,3.73-.52,5.03,1.87,3.1,5.7,6.58,11.2,9.87,16.79,1.7,2.88.77,4.27-2.72,4.21Z"/>
      <path class="cls-4" d="m131.18,550.5c1.91.48,3.77,1.07,5.68,1.39,1.56.26,3.91-.25,2.78,2.46-.59,1.41-.11,5.07-3.9,3.02-1.84-.99-4.28-1.24-6.17-1.21-5.24.08-5.51-2.76-4.46-6.38,1.41-4.88,1.97-9.9,2.83-14.86.44-2.55,1.21-4.53,4.34-3.95,3.44.64,2.77,2.75,2.09,5.26-1.26,4.68-2.14,9.46-3.19,14.27Z"/>
      <path class="cls-4" d="m229.91,561.87c-2.1.32-2.93-.28-3.18-2.56-.34-3.09-1.09-6.11-.91-9.27.21-3.6-.19-6.77-5.15-6.15-1.64.21-1.91-.95-1.81-2.24.08-1.06-.42-2.43,1.36-2.68,4.67-.66,9.33-1.42,14.01-1.98,1.75-.21,1.65,1.34,1.55,2.45-.12,1.29.82,3.56-1.58,3.38-4.22-.32-3.59,2.52-3.31,4.83.48,3.91.89,7.81,1.1,11.76.11,2.14,0,2.92-2.09,2.46Z"/>
      <path class="cls-4" d="m338.46,501.05c1.06-.14,1.08.87,1.5,1.51,3.55,5.46,7.15,10.9,10.7,16.37,1.18,1.82,1.42,3.06-.92,4.72-2.71,1.92-3.37-.41-4.14-1.46-3.73-5.14-7.26-10.43-10.74-15.75-1.28-1.95,1.04-5.38,3.59-5.4Z"/>
      <path class="cls-4" d="m115.02,551.95c-3.67.62-4.7-.5-3.14-4.53,2.1-5.4,3.39-11.12,5.22-16.64.58-1.77,1.17-3.41,4.19-2.38,2.85.98,2.41,1.91,1.74,4.04-1.84,5.85-3.45,11.77-5.02,17.69-.42,1.59-.61,2.97-2.99,1.81Z"/>
      <path class="cls-4" d="m313.37,542.02c-.27,1.43-1.79.69-2.5,1.27-1.41,1.15-3.04.91-3.75-.69-2.84-6.34-5.57-12.73-8.13-19.19-.61-1.54,1.01-2.04,2.24-2.64,1.23-.6,2.67-1.63,3.37-.04,3.04,6.95,5.82,14.02,8.78,21.28Z"/>
      <path class="cls-4" d="m150.46,560.67c-6.13-1.55-6.1-1.54-4.46-9.83.73-3.67,1.3-7.37,1.93-11.06.31-1.81-.43-4.02,2.94-4.02,3.96,0,3.28,2.56,2.97,4.66-.99,6.77-2.24,13.5-3.39,20.25Z"/>
      <path class="cls-4" d="m197.48,10.12c60.58,0,121.15.04,181.73-.09,4.15,0,5.57.67,5.56,5.31-.19,63.96.26,127.92-.35,191.88-.19,19.63-2.2,39.25-5.45,58.78-4.28,25.73-11.44,50.52-21.63,74.34-8.03,18.76-18.54,36.27-30.31,53.08-12.05,17.21-26.4,32.26-41.75,46.24-22.79,20.75-48.44,37.51-75.54,52.3-9.12,4.98-15.74,5.21-24.79.27-20.25-11.03-39.92-22.88-58.03-37.08-11.14-8.74-21.88-18.1-31.63-28.45-23.53-24.99-42.4-53.13-56.5-84.44-10.46-23.25-17.86-47.54-22.46-72.55-2.93-15.94-4.83-32.08-5.31-48.41-2.05-69.06-.2-138.12-1-207.18-.05-4.68,2.45-4.01,5.26-4.01,60.74.01,121.48,0,182.23,0Z"/>
      <path class="cls-5" d="m171.91,549.32c0,.85,0,1.18,0,1.51-.01,2.43.17,4.81-2.48,6.35-1.5.87-2.21.35-3.37-.54-2.53-1.95-2.36-4.46-1.96-7.12.02-.16.14-.3.19-.46.86-2.66,1.99-6.07,4.94-5.75,3.1.34,2.8,3.88,2.68,6Z"/>
      <path class="cls-5" d="m57.72,521.98c-1.51.19-2.43-1.03-2.95-2.76-.79-2.62,3.24-9.23,5.99-10.69,2.06-1.09,2.77.3,3.59,1.33,1.94,2.43.19,4.98-.86,6.79-1.17,2.02-1.93,5.12-5.77,5.33Z"/>
      <path class="cls-5" d="m97.99,536.95c.84-.03,1.67,0,2.23.74.71.95,2.52,1.54,1.26,3.17-.55.71-1.81,1.79-2.12,1.61-1.22-.7-2.64-1.61-2.29-3.41.15-.76.66-1.46,1-2.19,0,0-.09.07-.09.07Z"/>
      <path class="cls-5" d="m266.96,542.22c1.15,1.36,2.35,2.44,1.49,4.2-.09.19-.65.4-.78.31-1.67-1.19-.66-2.8-.7-4.51Z"/>
      <path class="cls-7" d="m197.96,14.12c58.91,0,117.81.05,176.72-.11,4.58-.01,6.11.76,6.1,5.81-.2,65.62.2,131.25-.34,196.86-.16,18.64-2.85,37.22-6.3,55.66-4,21.44-10.42,42.08-18.53,62.22-5.87,14.59-13.35,28.37-21.67,41.74-13.41,21.54-29.64,40.73-48.12,57.97-16.68,15.56-34.92,29.19-54.56,40.81-9.7,5.74-19.72,10.95-29.54,16.5-2.53,1.43-4.72,1.47-7.38.19-21.87-10.5-42.91-22.46-62.12-37.29-16.24-12.54-30.93-26.8-44.54-42.23-16.26-18.44-29.65-38.78-40.29-60.8-12.6-26.09-21.73-53.4-26.44-82.15-2.12-12.95-3.96-25.87-4.98-38.98-1.71-21.93-.65-43.86-.77-65.78-.26-48.47-.02-96.93-.18-145.4-.01-4.24,1.16-5.15,5.24-5.14,59.24.14,118.48.09,177.72.09Z"/>
      <path class="cls-4" d="m195.09,251.66c2,12.42,15.44,25.91,27.42,28.44,13.1,2.77,20.5-4.86,27.23-13.94,3.58-4.83,6.74-9.93,11.33-13.97,4.19-3.7,9.05-5.11,14.44-5.14,8.99-.04,17.98-.02,26.96,0,1.5,0,3.2.24,3.97-1.36.76-1.56-1.06-2.23-1.65-3.33-2.01-3.75-4.89-6.91-7.22-10.46-7.04-10.74-6-21.5-.53-32.09,1.72-3.32,1.27-3.92-1.81-4.79-8.86-2.49-15.58-7.49-17.82-16.88-1-4.2-2.05-8.29-.99-13.01,1.14-5.06,1.17-10.69-.14-15.84-1.05-4.1.95-3.4,3.21-2.86,9.01,2.17,15.51,7.88,21.05,15.55,1-7.15,4.49-12.49,9.03-17.35,1.54-1.64,2.66-3.73,3.74-5.73,3.07-5.69,2.99-5.68,7.78-.98,6.54,6.43,10.22,13.97,9.67,23.35-.11,1.86-.42,3.54-1.18,5.23-.61,1.33-.92,2.79-1.36,4.2,1.62.11,3.39.7,4.84.26,4.8-1.46,9.32.43,13.96.75,4.09.28,8.2.39,12.99.61-6.82,13.45-15.24,24.58-29.74,29.35-3.02.99-6.59.36-9.91.37-7.53.04-12.46,4.21-13.57,11.57-1.24,8.2,4.62,19.26,12.24,23.12,8.45,4.28,17.34,2.75,24.43-3.87,5.81-5.42,9.67-12.27,14.01-18.89,8.03,10.81,7.98,30.5-1.23,38.07-3.53,2.9-7.4,4.81-11.98,4.98-6.82.25-6.56.24-7.61,7.4-.84,5.68-2.77,10.95-6.99,15.36-3.49,3.65-7.63,5.01-12.29,5.2-5.82.23-11.76.78-17.45-.1-10.48-1.62-16.64,4.16-20.86,11.99-3.98,7.41-6.82,15.53-7.3,24.21-.18,3.27-1.35,6.45-.97,9.8.28,2.5,1.04,3.89,3.75,2.21,1.25-.78,2.65-1.32,3.83-2.17,10.34-7.51,20.81-6.2,29.56.17,2.91,2.12,5.64,4.47,8.96,6,1.2.55,2.71,1.54,1.22,2.96-6.43,6.12-11.39,13.98-21.07,16.19-4.05.92-7.35-.18-10.89-1.12-2.89-.77-5.75-1.27-8.76-1.13-4.7.22-6.51,2.58-4.98,7.13,1.29,3.86,3.19,7.52,4.3,11.42,2.4,8.36.32,15.93-5.39,22.27-3.63,4.03-6.93,8.25-9.64,12.83-8.42-15.11-16.98-30.09-6.08-48.23-16.4,7.45-25.48-2.49-35.63-12.88,8.65-1.33,13.76-6.94,19.56-11.58,5.81-4.64,12.35-3.33,18.88-1.43,1.91-9.44,1.19-19.19,3.28-28.66,1.07-4.86-1.93-7.49-7.06-7.87-8.82-.65-16.3,3.08-23.66,7.06-8.64,4.67-16.08,10.77-21.07,19.47-.57.99-1.65,1.95-1.68,2.94-.2,7.21-5.04,6.9-10.09,6.58-3.47-.22-7.95,1.08-10.15-.64-1.98-1.55-1.49-6.29-2.07-9.62-1.61-9.36-11.9-18.34-21.43-19.86-12.23-1.94-21.47,3.05-29.93,10.98-8.78,8.24-15.66,17.54-18.21,30.09,5.44-.99,8.24-5.37,12.12-8.02,6.1-4.17,11.86-8.57,20.14-6.2,5.15,1.48,7.41,5.56,10.34,9.2,1.36,1.69-.1,2.34-1.22,2.64-4.36,1.19-6.16,4.64-7.74,8.33-4.81,11.22-13.14,16.81-25.48,16.06-.93-.06-1.88,0-4.06,0,8.26,7.91,16.5,14.88,14.49,26.86-.82,4.89-3.02,9.23-6.49,13.51-1.8-4.57-5.41-6.27-9.12-7.61-10.3-3.72-13.66-11.88-14.3-21.86-.11-1.66-.08-3.33-.13-4.99,0-.09-.22-.17-.4-.3-1.25.17-1.92,1.16-2.4,2.16-4.64,9.52-13.56,12.1-22.81,14.08-2.25.48-2.63-.86-1.83-2.65,3.37-7.57,3.37-15.66,3.55-23.67.27-12.17,8.57-21.41,20.8-22.46,1.96-.17,3.92-.32,4.66-2.15,3.62-9.02,9.55-17.26,9.55-27.53,0-7.43-3.92-13.89-9.28-15.33-7.02-1.87-14.98,1.6-18.72,8.16-2.88,5.06-4.23,10.64-4.82,16.31-.32,3.05-.75,6-1.62,9.34-7.65-10.01-13.23-20.28-11.53-33.18.42-3.17,1.55-6.04,3.11-8.7,1.41-2.42.78-3.94-1.17-5.51-18.07-14.53-31.48-32.57-39.64-54.27-2.5-6.64-3.71-13.82-4.97-20.85-.65-3.65,3.15-5.62,5.14-7.93,4.95-5.73,10.23-11.19,14.96-17.12.49-.61,1.08-1.45,2.05-.9.87.5.51,1.46.57,2.24.96,12.77,2.8,25.39,8.08,37.18,5.27,11.76,13.32,21.21,25.05,28.1-2.67-11.51-3.36-22.62-3.27-33.85.05-6.5.74-12.82,2.66-18.95.86-2.72.14-3.99-2.16-4.99-1.65-.72-3.26-1.54-4.91-2.26-15.14-6.62-18.98-19.83-15.1-34.22,1.18-4.38,2.22-8.45.51-12.96,9.89,2.63,12.87.33,28.58,27.63,1.86-4.81,1.57-9.84,1.49-14.83-.13-8.39,4.33-14.2,11.15-17.84,6.68-3.57,14.32-5.3,20.6-11.37-1.46,8.05,1.08,14.8,1.28,21.74.23,7.9-2.33,14.43-8.2,19.73-2.59,2.34-5.03,4.84-7.84,7.56,1.85,1.24,3.51.66,5.02.74,4.65.27,11.45,5.33,12.76,9.57.26.83.39,1.93-.39,2.26-6.57,2.72-10.9,8.85-17.74,11.3-3.44,1.23-6.56.69-9.53-.3-2.95-.99-3.49-.19-4.29,2.49-2.72,9.12-3.67,18.21-2.02,27.7.78,4.48,1.35,9.05,1.94,13.58.98,7.51,5.35,12.6,10.63,17.21,6.97,6.08,17.02,3.79,23.34-5.24,1.78-2.54,3.7-5.09,4.84-7.92,1.41-3.5,2.83-3.75,6-1.91,3.78,2.2,8,3.65,12.19,5.5-4.81,6.36-10.26,12-12.08,20.07-.9,3.99.57,6.15,3.29,8.17,3.46,2.56,6.79,1.49,10.07-.52.98-.6.73-1.14.37-2-5.5-13.34-1.97-21.19,11.76-25.91,5.53-1.9,11.35-2.58,17.47-3.36-15.08-13.78-25.42-30.5-32.3-49.21-4.16-11.32-6.33-23.26-7.49-35.38-1.01-10.58-1.67-21.09.16-31.59,1.13-6.51,3.64-12.57,7.8-17.77,1.81-2.27,2.25-4.27,1.23-7.16-5.38-15.17-4.48-30.01,3.29-44.2,1.38-2.52,1.06-3.38-1.56-4.36-6.01-2.25-10.65-10.35-9.8-16.45.16-1.11.69-1.81,1.6-2.34,6.21-3.64,14.24-2.77,19.43,2.53,2.04,2.08,2.98,1.82,4.92-.09,6.49-6.37,14.72-8.97,23.55-9.56,9.61-.65,19.81-1.02,27.49,5.28,6.55,5.38,12.32,3.54,18.99,2.28,3.4-.64,7.1.11,10.63.52,1.95.23,1.47,2.25,1.13,3.24-1.63,4.81-2.04,10.47-7.94,12.64-2.14.79-1.59,2.06-1.1,3.91,2.1,7.89,4.39,15.71,4.27,24.1-.1,6.83-.87,13.42-3.19,19.82-.69,1.89-.97,2.86.92,4.85,6.76,7.13,8.41,16,6.39,25.52-.64,3.03-.57,5.31,2.05,7.73,5.87,5.42,6.88,12.6,5.07,20-1.07,4.37-2.4,7.88.11,12.73,3.04,5.89,2.16,12.76-1.38,18.86-1.49,2.56-1.72,4.84-.49,8.07,4.43,11.68,2.61,22.55-6.49,31.62-2.05,2.05-2.42,3.76-1.3,6.55,2.64,6.56,2.46,13.46,1.03,20.3-1.25,6.01-7.52,11.16-14.01,11.83-13.6,1.4-25.42-2.15-34.77-12.51-1.33-1.47-2.47-3.12-3.7-4.69-.37.27-.73.55-1.1.82Z"/>
      <path class="cls-3" d="m233.87,375.23c-.3,2.58-.43,5.47-1.31,7.66-1.63,4.02-.04,6.72,2.12,9.36,5.44,6.67,6.49,14.07,3.95,22.05-.43,1.34.02,2.19.39,3.12.35.88,1.22,1.54,1.77,2.36,6.74,10.12,6.79,10.36-5.11,12.98-2.83.62-3.71,2.07-4.82,4.07-4.2,7.54-10.58,12.23-18.96,14.12-4.81,1.08-6.33,5.53-8.83,8.75-4.85,6.23-4.52,6.39-9.08-.1-2.92-4.16-5.61-7.67-11.53-9.33-6.79-1.91-13.42-6.49-16.56-13.78-1.85-4.29-5.89-4.23-9.2-5.41-8.51-3.02-8.41-2.76-3.28-10.22,2.45-3.56,4.79-6.8,3.9-12.26-.99-6.11,1.39-12.83,5.53-17.72,3.36-3.97,4.31-7.85,4.16-12.76-.29-9.34,0-9.55,8.69-5.67,3.73,1.66,6.44,1.84,10.56.13,7.87-3.27,16.96-3.22,24.61-.14,6.68,2.69,12.17.95,18.2-.09,2.43-.42,5.24-1.58,4.82,2.86Z"/>
      <path class="cls-4" d="m323.23,25.12c14.48,0,28.95.04,43.43-.03,3.45-.02,6.4.59,6.93,4.56.5,3.77-1.76,5.51-5.17,6.62-6.42,2.08-7.35,6.81-3.6,13.6,4.36,7.88,7.78,15.96,8.02,25.43.39,14.97-10.29,23.04-22.16,25.82-10.1,2.37-18.72-.74-26.31-7.06-2.47-2.06-3.69-1.77-6.27-.24-6.26,3.72-12.32,7.81-20.39,7.38-22.02-1.15-33.69-19.28-24.83-39.11,2.86-6.39,6.51-12.45,10.15-18.46,2.15-3.54,1.07-5.3-2.34-6.55-1.37-.5-2.69-1.36-4.09-1.53-4.84-.57-3.88-4.14-3.76-7.13.15-3.66,3.1-3.27,5.48-3.28,14.97-.06,29.95-.03,44.92-.03Z"/>
      <path class="cls-4" d="m84.89,57.02c7.16,3.23,12.9,7.35,14.41,14.94,2.47,12.44.15,22.12-13.61,27.16-11.99,4.39-23.26,1.34-34.3-3.05-7.13-2.84-13.76-2.89-20.05,1.48-3.76,2.61-6.75,2.21-9.41-1.22-1.94-2.51-.78-7.4,2.19-9.69,9.31-7.2,18.58-14.45,28.01-21.49,2.8-2.09,2.06-2.39-.66-3.42-3.18-1.21-6.31-2.84-9.03-4.87-9.47-7.07-8.4-23.25,2.24-30.58,12.99-8.95,25.35-8.28,38.56-.27,6.67,4.04,12.62,6.66,19.45.36,2.96-2.73,6.22-1.07,8.62,1.65,2.38,2.7,1.88,5.44-.56,7.81-6.6,6.43-14.33,11.45-21.52,17.14-1.44,1.14-2.77,2.27-4.33,4.05Z"/>
      <path class="cls-3" d="m116.86,184.11c-7.09,7.94-11.3,10.22-20.81,6.79-3.27-1.18-4.28.24-4.99,2.49-3.82,11.97-5.14,24.09-3.26,36.68.87,5.81,1.98,11.44,3.69,17.04,3.31,10.79,11.31,15.98,21.66,17.72,3.87.65,8.05-1.09,11.19-3.8,3.49-3.01,6.77-6.29,9.28-10.22,3.33-5.23,3.55-5.28,9.14-1.39-3.42,4.14-6.33,8.54-7.91,13.78-1.54,5.12-1.93,10.16,2.05,14.14,4.33,4.32,9.94,4.86,15.34,2.43,3.21-1.44,4.18-1.35,4.78,2.33.75,4.54,5.1,5.95,8.46,8.11,1.75,1.13,1.23-.39,1.46-1.16,1.22-3.94,2.48-7.87,4.15-13.14,2.06,8.05,6.66,11.61,13.43,13.05.45-2.84.85-5.68,1.37-8.51,1.07-5.77,4.46-9.39,9.96-11.52,2.3-.89,2.91.53,3.9,1.56,5,5.25,10.28,10.28,17.31,12.45,13.43,4.15,26.43.7,35.74-13.86,1.83-2.86,3.7-5.72,5.86-8.33,4.67-5.63,9.94-9.68,18.14-8.83,8.71.91,17.43-1.51,26.23-.92,3.26.22,6.56-.12,8.12-3.84,1.52-3.64-1.33-5.84-3.05-8.08-3.26-4.25-6.67-8.37-9.02-13.22-3.16-6.54-3.16-13.11.03-19.66.71-1.45,1.5-2.86,2.23-4.3,3.67-7.29,3.36-8.49-4.68-10.72-8.32-2.31-13.95-7.53-15.5-15.64-1.39-7.22-.92-14.82.66-22.15.54-2.49,2.01-1.13,3.33-.45,7.03,3.61,11.91,8.95,13.55,16.84.6,2.88,1.76,5.49,2.93,8.16.86,1.96,2.18,2.44,3.9,2.07,2.28-.5.92-2.45,1.13-3.72.32-1.97-.61-3.94-1.12-5.69-2.75-9.41,1.14-16.51,7.2-22.95,1.8-1.92,3.37-3.89,4.37-6.38,3.01,2.46,5.24,5.33,7.12,8.71,3.89,7.01,2.72,13.31-1.48,19.57-1.44,2.14-2.91,4.31-3.93,6.65-.44,1.01-.75,2.87.5,3.68.85.55,2.23.42,3.33-.22.97-.57,2.03-.99,2.98-1.58,5.94-3.75,12.14-4.25,18.84-2.17,2.28.7,4.95.11,7.8.11-1.34,5.1-4.95,8.58-8.16,11.85-6.66,6.79-14.61,10.93-24.79,10.34-10.34-.6-16.4,6.21-16.65,16.79-.38,16.21,9.38,26.62,24.34,28.88,6.8,1.03,12.9-2.36,18.08-6.81,4.6-3.95,8.36-8.68,11.82-14.12,2.95,12.65,2.58,16.85-2.26,23.99-5.47,8.08-14.06,6.06-21.92,6.18,2.59,13.84-5.08,32.43-25.93,27.99-15.55-3.31-29.4,4.7-35.06,19.77-4.26,11.35-4.37,23.1-3.93,34.91.13,3.37,2.42,3.69,5.17,2.54,3.29-1.38,6.27-3.29,9.24-5.26,8.83-5.85,15.14-4.71,22.75,1.72.25.21.47.47.71.71,5.95,5.78,5.95,6.45-.68,11.68-5.21,4.1-10.82,6.55-17.62,3.89-3.26-1.27-6.76-1.09-10.22-1.07-7.4.04-10.92,4.69-9.01,11.91.66,2.49,1.28,4.98,2.61,7.23,5.06,8.57,3.01,16.08-3.51,22.85-1.7,1.77-3.52,3.42-4.68,6.1-3.88-7.05-9.28-13.16-7.7-21.5,1.01-5.33,2.8-10.54,4.56-15.7.81-2.39-.38-4.29-1.69-5.1-1.43-.88-3.28-2.58-5.66-.87-7.78,5.58-14.25,2.41-20.27-3.36-1.16-1.11-2.58-1.94-4.37-3.26,6.61-2.87,11.57-7.54,17.21-11.24,2.17-1.42,4.59-1.43,7.07-.62,1.83.6,3.69,1.21,5.59,1.52,5.91.96,6.58.45,6.42-5.52-.23-8.59.98-17.02,1.86-25.53,1.09-10.55-5.24-15.68-15.62-13.87-14.45,2.51-26.8,9.31-37.51,19.03-3.66,3.32-6.88,7.53-8.46,12.3-1.09,3.26-2.73,3.93-5.63,3.66-1.49-.14-3.02-.19-4.49.01-3.24.45-4.22-.73-4.11-4.04.46-13.37-11.83-22.72-21.9-25.03-14.77-3.38-26.16,2.93-36.65,12.22-8.11,7.18-13.89,15.85-17.49,26.11-.76,2.17-.47,4.19-.82,6.25-.98,5.69,2.54,7.07,7.23,4.26,5.4-3.23,10.26-7.36,15.46-10.95,5.96-4.12,12.19-3.92,15.95.31,1,1.13,2.29,1.76-.17,3.15-2.86,1.62-4.41,4.81-5.42,7.89-3.98,12.1-14.48,15.93-26.18,12.91-1.28-.33-2.93-2.38-4.33-.11-.96,1.55-.44,2.96.34,4.59,2.15,4.53,5.37,8.15,8.85,11.62,7.03,7.03,8.09,12.79,4.03,21.35-2.56-1.35-4.98-3.19-7.71-3.96-9.55-2.69-11.19-10.44-11.87-18.51-.26-3.11-.85-6.14-1.29-9.19-.14-.97-.42-2.63-2.13-2.9-1.74-.27-2.52.54-3.34,2.01-1.64,2.96-3.6,5.74-5.49,8.55-.46.68-1.18,1.17-1.73,1.79-2.96,3.31-6.93,4.61-11.07,5.58-.02-3.2-.81-6.65.12-9.54,1.5-4.66.2-9.4,1.62-14.07,2.97-9.76,8.48-14.72,18.63-15.29,2.53-.14,4.33-1.08,5.3-3.4,3.27-7.86,7.07-15.57,9.57-23.67,2.44-7.9.32-15.55-4.95-21.99-3.45-4.21-14.44-5.64-20.2-3.02-10.55,4.81-13.63,13.96-14.39,24.45-3.28-2.27-7.71-13.44-6.66-17.59,1.22-4.84,2.29-9.78,6.08-13.51,1.92-1.88.45-3.24-.93-4.54-5.66-5.32-11.64-10.35-16.9-16.04-15.09-16.32-25.9-35-30.2-57.1-.4-2.04.9-2.99,2.03-4.19,4.04-4.33,8.78-8,12.68-13.82,1.16,5.97,1.99,11.25,3.23,16.43,4.38,18.36,13.33,33.7,29.57,44.14,2.31,1.48,4.8,2.93,7.23,1.29,2.38-1.61,2.01-4.18,1.23-6.98-3.25-11.68-3.61-23.69-3-35.7.24-4.65,1.36-9.31,2.53-13.84,1.09-4.21.06-6.93-3.97-8.69-5.07-2.21-10.13-4.55-13.81-8.9-4.87-5.75-7.23-12.25-4.65-19.69,1.25-3.62,2.06-7.2,1.8-11.42,6.11,3.36,10.34,8.1,13.54,13.86,2.04,3.66,4.13,7.31,6,11.06,1,2.02,2.53,2.87,4.56,2.84,2.31-.03,3.18-1.61,3.98-3.65,1.08-2.74,1.19-5.52.81-8.23-1.21-8.55.3-16.03,7.29-21.82,3-2.48,6.79-2.83,10.2-4.18,1.81-.72,3.59-1.42,5.33-3.22.76,7.02,3.54,13.19,1.36,19.98-1.14,3.56-3.01,6.42-5.46,9.02-2.52,2.66-5.2,5.16-7.71,7.82-1.8,1.91-2.6,4.36-1.67,6.79.93,2.45,3.45,1.59,5.3,1.49,3.7-.22,6.68,1.23,9.34,3.51,1.46,1.25,2.27,2.65-.87,2.43-4.64-1.01-9.22-.22-13.85.27-5.9.63-6.69-.43-5.67-6.16.35-1.96.94-3.93.96-5.9.05-8,3.54-14.37,8.98-19.91.8-.81,1.7-1.61,1.97-3.97-6.62,5.83-11.28,11.77-11.99,20.04-.3,3.5-.85,6.89-1.8,10.27-1.36,4.85,1.09,7.71,6.19,7.38,3.15-.2,6.22-1.06,9.36-1.39,1.6-.17,3.28-.92,4.71.52Z"/>
      <path class="cls-3" d="m192.2,239.07c-2.48,8.1-1.49,15.5,1.63,22.75.55,1.28,2.02,2.61-.74,3.66-6.58,2.51-10.51,7.31-11.26,14.51-.09.91-.79,1.76-1.22,2.66-6.38-3.1-4.25-9.17-4.88-14.75-6.48,2.12-8.67,7.47-10.79,12.84-.32.81.33,2.01-1.19,2.28-1.67.31-1.78-1.03-2.31-1.96-2.48-4.33-.07-12.35,4.83-15.76,1.72-1.19,3.54-2.25,5.41-3.2,1.21-.62,2.72-1.08,1.88-2.73-.78-1.53-2.12-1.63-3.8-.8-5.02,2.5-9.68,5.3-11.95,10.82-.24.57-.84.99-1.28,1.49-5.5-5.39-4.19-12.5,3.19-16.79,6.38-3.71,13.49-5.21,20.73-6,2.56-.28,6.12-.29,7.06-1.95,1.44-2.55-2.15-3.98-3.76-5.65-19.18-20.05-32.11-43.36-36.73-70.89-1.48-8.84-3.01-17.84-2.88-26.74.23-15.06,4.53-28.75,17.63-38.21,6.23-4.5,24.46-5.65,28.98.42,1.41,1.9,3.14,3.5,4.39,5.58,2.08,3.45,5.44,3.44,7.58.04,5.28-8.38,13.11-12.11,22.46-10.39,9.82,1.8,17.99,6.7,20.9,17.49,1.48,5.47.78,10.6-1.3,15.69-.75,1.85-1.04,2.86,1.18,4.54,8.13,6.14,10.14,15.9,3.91,25.36-1.1,1.67-1.37,2.65-.04,4.28,6.52,8.05,6.77,16.17-.26,24.07-1.57,1.76-.45,3.1.27,4.44,6.23,11.63,4.64,21.72-4.4,30.84-4.14,4.18-9.41,3.35-14.19,3.88-11.84,1.32-21.61-4.07-29.77-11.89-15.59-14.95-26.21-32.83-29.61-54.52-.03-.16.05-.4-.03-.49-1.45-1.49-.34-5.6-3.75-4.72-2.64.68-1.44,3.88-1.05,5.58,4.29,18.63,11.42,35.81,24.35,50.43,8.43,9.54,17.98,16.64,30.48,19.27,6.18,1.3,12.45.72,18.56-.63,1.85-.41,2.57.02,3.07,1.44,2.23,6.23,3.25,12.54,1.16,19.06-2.35,7.31-10.34,10.99-18.15,10.13-9.15-1.01-16.22-5.56-22.6-11.22-4.42-3.92-7.64-9.18-11.73-14.25Z"/>
      <path class="cls-3" d="m158.67,75.58c2.77,2,4.61,1.35,6.27,1.5,1,.09,2.04-.02,1.96,1.5-.05.98-.36,1.48-1.43,1.54-.6.03-1.18.45-1.78.68-1.05.4-2.6.71-2.37,2,.2,1.17,1.65,1.3,2.9,1.34,1.2.04,2.62-.63,3.56.59.02.3.1.51.03.62-1.32,2.05-5.67,1.04-5.35,3.26.43,3.01,4.43.44,6.53,2.16-1.03,2.83-5.63-.37-5.97,3.67,2.09,1.92,5.58-.88,7.7,2.21-4.84,1.16-9.57,2.31-13.41,5.53-3.07,2.57-2.94-1.31-3.22-2.1-3.34-9.37-3.45-18.79-.47-28.39,1.79-5.78,4.56-11.01,7.29-16.3,1.72-3.35.2-4.84-2.99-5.27-6.87-.92-9.26-2.99-10.75-9.42-.35-1.5-.23-2.03,1.55-2.71,5.87-2.23,9.71.51,13.14,4.61,2.76,3.29,5.38,3.44,8.06.01,7.8-10,18.1-5.53,22.84,4.77.82,1.78,1.39,2.8,3.36,2.73,1.82-.06,2.32-1.09,2.84-2.75,3.68-11.64,15.98-15.31,24.05-6.76,2.86,3.03,6.52,3.45,10.49.57,3.37-2.44,7.68-.98,11.54-.81,1.35.06.77,1.71.23,2.8-1.51,3.05-3.95,5.57-6.91,6.54-3.15,1.03-2.87,2.26-1.96,4.57,3.85,9.79,5.91,19.88,5.53,30.5-.12,3.33-1.1,6.43-1.36,9.69-.16,2.01-.67,4.72-2.04,5.71-1.51,1.09-3.49-1.19-5.29-1.92-.74-.3-1.68-.23-2.3-.65-1.56-1.07-5.06.28-4.81-2.31.24-2.48,3.29-.66,5-1.19.58-.18,1.4.1,1.56-.79.17-.98-.56-1.49-1.25-1.94-1.36-.9-3.34.61-4.72-1.32,1.23-1.6,2.99-.7,4.43-.96,1-.18,2.47.58,2.66-1.31.18-1.85-1.15-1.5-2.27-1.74-1.23-.26-3.52,1.1-3.47-1.24.03-1.69,2.05-1.8,3.63-1.73.97.05,2.03.17,2.13-1.33.13-1.88-1.18-1.56-2.31-1.68-1.01-.1-2.51.6-2.64-1.3-.15-2.32,1.63-1.63,2.78-1.65,1.48-.02,3.04-.43,2.98-1.9-.08-2-2.04-.82-3.15-1.13-.97-.27-2.5.6-2.62-1.33-.04-.67,0-1.37.77-1.61,1.74-.54,4.65-.28,4-2.99-.56-2.35-3.53-.29-5.29-1.5,1.18-1.51,5.2.97,4.48-3.03-.54-2.96-3.07-.76-4.45-1.83.91-1.44,4.01-2.12,3.18-3.98-1.17-2.6-3.7,1.8-5.7-.46.08-1.76,4.65-1.07,2.62-4.1-1.5-2.23-3.41-.75-5.62.27.86-2.19,2.98-3.39,1.76-4.9-.93-1.15-2.69-.03-4.07.04-9.26.43-11.64,7-13.76,14.33-3.25,11.24-2.79,22.21,1.6,32.97.89,2.19.19,2.86-1.53,3.67-1.16.54-2.23,1.32-3.21,2.15-2.96,2.48-5.66,2.47-8.18-.61-.21-.26-.44-.66-.69-.69-8.8-.96-5.64-6.94-4.76-11.7,1.92-10.36,1.23-20.32-2.91-30.14-2.55-6.05-6.78-8.79-13.13-9.02-1.62-.06-3.58-2.12-4.73-.92-1.62,1.69,1.48,2.87,1.66,4.67-1.65.48-3.78-1.46-4.8.38-1.09,1.98,1.06,2.93,2.4,3.89-1.61,1.8-4.76-1.89-5.36,1.22-.55,2.89,3.52,2.51,5.15,4.51-2.64.28-6.05-1.72-6.74,1.03-.56,2.21,3.35,2.04,5.33,3.53-1.28.06-2.27.22-3.24.14-1.19-.1-2.25.56-2.36,1.39-.12.92,1.41,1.19,1.95,1.8,1.07,1.22,4.5-.13,3.54,2.86-.67,2.08-2.89.6-4.37.96-.77.18-1.58.22-3.72.5Z"/>
      <path class="cls-5" d="m224.89,76.62c.38,5.89-1.78,11.27-3.11,16.82-1.06,4.44-5.04,1.89-7.42,3.3-1.69,1-1.96-1.7-2.49-2.85-5.79-12.62-5.04-24.98,2.04-36.87,2.49-4.18,4.32-4.01,6.52.2,3.17,6.08,4.3,12.63,4.46,19.39Z"/>
      <path class="cls-5" d="m169.66,74.67c.78-4.74,1.32-9.96,2.6-14.98.5-1.96,1.01-4.97,3.64-5.41,2.91-.49,4.29,2.36,5.6,4.23,2.13,3.05,3.01,6.75,3.83,10.42,1.85,8.28,1.82,16.41-1.05,24.48-.59,1.65-.92,3.19-3.14,2.69-2.32-.53-5.26,1.49-6.84-2.08-2.66-6.04-3.75-12.4-4.64-19.33Z"/>
      <path class="cls-4" d="m116.86,184.11c-4.8.72-9.68,1.13-14.37,2.28-2.58.63-5.11.02-5.86-1.58-.93-1.99-3.98-3.68-1.69-6.98,3.55-5.12,1.55-11.61,3.72-17.39,2.31-6.16,7.49-9.73,10.63-14.97.49-.83,1.83-.56,2.7.11,1.13.88.83,1.63.25,2.92-1.35,3.04-4.13,4.69-6.15,7.04-4.88,5.68-5.01,12.76-5.97,19.54-.33,2.32-.87,4.44-1.76,6.59,5.13,1.56,10.01-1.16,15.04-.65,1.78.18,3.73-.33,4.61,1.92l-1.15,1.16Z"/>
      <path class="cls-3" d="m204.92,32.45c-3.3,2.91-5.91,4.71-7.58,7.56-1.44,2.46-2.91.36-3.78-.82-1.92-2.6-4.35-4.44-7.35-5.66,5.81-1.91,11.6-1.9,18.71-1.09Z"/>
      <path class="cls-4" d="m237,425.44c-2.24.74-4.18,1.51-6.19,2.01-2.39.59-3.39,1.89-4.49,4.26-3.53,7.54-8.91,13.2-18.13,13.27-4.39.03-5.52,4.03-7.09,6.72-1.87,3.22-2.96,2.28-4.61.37-1.16-1.35-2.61-2.67-3.17-4.27-.93-2.64-2.68-2.76-4.99-2.88-8.12-.41-14.49-4.84-17.86-11.55-2.04-4.06-4.56-5.34-8.03-6.35-3.56-1.03-4.84-2.12-1.72-5.51,2.47-2.69,4.72-5.51,2.56-10.19-2.23-4.83,2.65-16.12,7.09-19.42,2.09-1.55,3.08-3.16,1.96-6.28-2-5.58-.51-6.96,5.06-5.61,3.71.9,6.53.65,10.32-1.6,7.49-4.44,16.23-3.89,23.58.88,3.98,2.58,7.54,2.69,11.18,1.28,4.83-1.86,5.19,1.12,4.2,3.86-1.75,4.83.01,7.69,3.07,11.3,3.81,4.51,5.81,10.28,3.06,16.3-1.69,3.69-1.23,6.6,1.78,9.18,1.33,1.13,1.63,2.72,2.42,4.23Z"/>
      <path class="cls-3" d="m322.64,28.11c14.47,0,28.94,0,43.4.01,1.9,0,4.37-.57,4.55,2.37.15,2.59-2.02,2.26-3.82,2.71-6.49,1.62-9.1,7.84-6.15,14.37,1.8,3.97,3.96,7.78,5.69,11.78,4.29,9.96,5.75,19.96-.66,29.67-4.35,6.6-11.33,8.03-18.48,9.07-9.15,1.33-16.59-2.22-23.05-8.21-2.17-2.01-3.4-2.06-5.74-.11-8.07,6.73-17.22,10.55-27.87,7.51-15.12-4.32-22.13-17.58-14.92-33.66,2.99-6.66,7.18-12.6,10.35-19.12,2.95-6.07,2.14-8.05-4.25-10.4-2.58-.95-7.38-.26-6.53-4.39.65-3.17,4.93-1.5,7.56-1.53,13.3-.16,26.61-.07,39.91-.07Z"/>
      <path class="cls-3" d="m61.5,61.65c-4.99-1.61-9.15-2.62-13.18-4.4-13.81-6.09-10.8-23.01-1.75-28.79,12.43-7.95,21.02-8.19,33.75-.58,4.27,2.55,8.31,5.55,13.81,5.33,3.49-.14,6.41-.73,8.77-3.48,1.89-2.2,4.66-2.72,6.41-.53,1.89,2.36.71,4.98-1.76,6.79-9.79,7.16-19.57,14.33-29.54,21.64,5.02,2.55,10.29,4.09,14.26,8.16,5.63,5.77,6.46,12.62,4.41,19.76-1.85,6.47-7.21,9.77-13.42,11.52-11.31,3.18-21.79-1.06-32.31-4.08-7.42-2.13-14.48-4.3-20.87,2.42-1.32,1.39-3.88,1.44-5.34-.29-1.54-1.81-.82-3.74.97-5.14,5.49-4.32,11.04-8.56,16.52-12.9,6.25-4.95,12.45-9.96,19.26-15.42Z"/>
      <path class="cls-4" d="m286.17,161.08c5.37,1.08,5.32,6.09,6.44,9.66,2.23,7.13,5.31,13.17,12.6,16.24,2.03.86,3.25.87,3.75-1.63.47-2.34,1.75-4.66,1.65-6.95-.26-5.93,1.88-11.08,3.98-16.39,1.04-2.63,2.44-5.33,2.17-8.39-.11-1.32.69-2.43,1.94-2.39,1.57.05,2.19,1.38,1.99,2.85-.45,3.37-.23,7.12-1.69,9.99-3.41,6.68-4.74,13.7-5.34,21-.06.76-.6,1.48-1.02,2.47,4.48,1.46,8.49.18,12.01-2.05,3.44-2.18,7.12-3.79,10.7-5.63,1.85-.95,4.22-1.71,5.1.15,1,2.11-1.28,3.23-3.19,4.09-4.11,1.86-8.13,3.94-12.21,5.87-8.68,4.12-23.67,2.91-30.57-5.6-2.61-3.22-4.43-6.88-5.34-10.73-.98-4.12-4.86-7.58-2.98-12.55Z"/>
      <path class="cls-4" d="m294.72,342.11c-4.69-.57-9.57-2.06-14.66-.17-4.67,1.74-7.99,5.42-12.28,7.66-1.45.76-1.02,2.34-.96,3.61.33,6.93-.64,13.65-2.75,20.26-.77,2.4-.38,4.85.94,7.08.58.98,1.2,1.95,1.62,3,.78,1.91-.09,3.82-1.26,4.93-.5.47-1.8-1.75-2.7-2.83-6.45-7.74-2.48-15.63-.44-23.39.88-3.33.56-6.58.46-9.83-.08-2.69-7.57-5.94-10.85-4.9-2.14.67-4.15,1.76-6.29,2.42-1.31.4-2.84.14-3.43-1.28-.7-1.68.81-2.03,1.95-2.73,5.01-3.06,9.98-4.13,15.68-1.55,5.07,2.29,9.53-.06,13.44-3.32,4.75-3.97,10.04-4.8,15.92-3.39,3.08.74,6.34.78,9.33-.04,1.62-.45,3.13-1.03,3.72.54.55,1.47-1.43,2.26-2.4,3.22-1.35,1.33-3.17.31-5.04.73Z"/>
      <path class="cls-4" d="m107.97,362.23c.05-2.72-.41-5.15,2.56-5.16,2.58,0,2.64,2.13,2.42,3.99-.62,5.25,2.41,9.02,5.35,12.61,2.41,2.94,3.71,6.35,5.32,9.64.86,1.75.75,3.79-1.42,4.57-2.34.84-2.69-1.5-3.12-2.8-1.32-4.07-3.27-7.62-6.2-10.82-3.23-3.53-4.71-7.98-4.91-12.03Z"/>
      <path class="cls-4" d="m118.11,354.99c-1.16,0-2.33,0-3.49,0-.88,0-1.63-.18-1.63-1.32,0-.93.23-1.6,1.32-1.65,7.27-.3,12.47-4.88,18-8.77,3.51-2.47,7.57-3.39,11.66-4.18.94-.18,2.49-.7,2.88.92.37,1.51-.44,2.85-1.93,2.92-6.75.3-10.96,5.2-15.92,8.66-3.34,2.33-6.83,3.65-10.89,3.42Z"/>
      <path class="cls-4" d="m70.03,164.06c.59-1.16-1.3-3.56,1.3-3.89,2.53-.32,2.56,1.77,2.73,3.73.71,7.85,5.48,12.46,12.55,14.98,1.24.44,2.45.58,3.42,1.67.74.83,1.17,1.65.87,2.66-.4,1.34-1.62.79-2.51.83-8.35.41-18.32-10.37-18.37-19.98Z"/>
      <path class="cls-4" d="m105.07,352c.79,0,1.95-.02,3.11,0,.8.02,1.68-.04,1.77,1.14.09,1.18-.25,1.8-1.6,1.86-8.56.41-12.72,5.96-15.4,13.26-.38,1.05-.97,2.09-1.7,2.92-1.53,1.72-3.89,3.87-5.7,2.3-2.04-1.76.93-3.27,2.12-4.61,2.08-2.33,3.01-5.24,4.41-7.92,2.64-5.06,5.93-9.5,13-8.96Z"/>
      <path class="cls-4" d="m194.37,169.84c.91-3.5.25-7.49,3.55-6.92,3.77.65,1.89,4.48,1.47,6.92-.19,1.08-.52,2.2-.49,3.31.07,2-1.32,3.09-2.72,3.77-1.63.79-2.79-.63-3.68-1.8-1.86-2.43-3.68-4.9-5.33-7.47-.6-.94-.76-2.51.14-3.25,1.21-1,2.45-.13,3.36.92,1.07,1.25,2.09,2.54,3.7,4.51Z"/>
      <path class="cls-4" d="m204.9,136.68c1.57-2.93,1.45-6.82,4.15-6.25,3.38.71,1.85,4.55,1.56,6.86-.19,1.53-.65,3.13-.78,4.77-.08,1.02.69,2.5-.93,2.91-1.28.33-2.78.4-3.57-.98-1.86-3.24-5.25-5.35-6.51-9.04-.41-1.2-1.57-2.18.05-3.37,1.77-1.3,2.38.44,3.16,1.23,1.04,1.05,1.79,2.38,2.87,3.87Z"/>
      <path class="cls-4" d="m232.84,161.42c0-2.48-.05-4.12.01-5.76.09-2.2,1.54-2.65,3.42-2.59,2.3.07,1.64,1.87,1.48,2.92-.48,3.17-1.41,6.28-1.88,9.45-.38,2.56-2.6,1.98-3.27,1.41-2.93-2.51-6.44-4.62-7.75-8.58-.28-.86-1.55-1.98.11-2.83,1.13-.58,2.22-.63,3.13.42,1.36,1.57,2.7,3.17,4.73,5.55Z"/>
      <path class="cls-4" d="m193.15,195.09c3.37.7,6.12,1.9,7.78,4.82.48-.38.78-.5.83-.68.6-2.11.9-5.49,3.5-4.86,3.37.81.94,3.92.47,5.78-.62,2.53-.05,6.36-2.96,7.17-3.11.87-4.63-2.79-6.72-4.62-2.15-1.88-3.72-4.09-2.91-7.61Z"/>
      <path class="cls-4" d="m212.76,166.08c2.66-2.37-1.51-7.38,3.52-6.73,3.57.46,1.88,5.14,1.24,7.01-.74,2.17,1.14,5.73-2.28,6.62-3.78.99-4.32-3.05-6.35-4.79-.58-.5-.82-1.41-1.39-1.93-1.61-1.49-2.79-3.61-.9-4.94,1.47-1.03,3.57.35,4.52,2.37.41.86,1.08,1.6,1.63,2.39Z"/>
      <path class="cls-4" d="m176.27,133.11c3.55.6,5.18,3.32,7.77,5.42,1.35-2.49,1.51-5.28,3.72-6.85.9-.64,1.85-.91,2.69-.3.74.53.52,1.49.2,2.28-.55,1.33-.99,2.74-1.74,3.95-1.55,2.52-1.19,7.09-5.95,6.38-3.28-.49-7.08-6.89-6.69-10.88Z"/>
      <path class="cls-4" d="m235.47,192.86c1.11-1.87-.97-6.11,2.93-5.59,3.94.52,1.63,4.07,1.32,6.2-.38,2.59.18,6.31-2.57,7.33-3.52,1.31-3.84-3.18-5.85-4.8-.75-.6-1.2-1.43-1.62-2.38-.65-1.47-3.31-2.79-1.08-4.34,1.78-1.24,3.68.34,4.94,2.07.42.58.18,1.78,1.92,1.5Z"/>
      <path class="cls-4" d="m224.09,128.86c2.27,1.42,5.36.67,6.18,4.07.29-.53.37-.88.59-1.07,1.31-1.09.88-4.63,3.71-3.32,2.07.97,1.59,3.46.85,5.3-1.06,2.63-.07,6.01-3.34,8.21-2.38-4.35-9.32-5.78-7.99-13.19Z"/>
      <path class="cls-4" d="m221.34,204.04c-1.85-.04-8.42-7.24-8.51-9.05-.05-1.13.33-2.33,1.21-2.43.93-.1,2.2.5,2.92,1.21,2.06,2.04,3.61,3.41,4.01-1.03.08-.84,1.07-1.88,2.19-1.53.65.21,1.66,1.32,1.53,1.66-1.21,3.2-.16,6.77-1.73,9.92-.43.86-.77,1.36-1.62,1.26Z"/>
      <path class="cls-4" d="m221.9,70.51c-.32.95-.53,2.12-1.09,3.08-1.24,2.12-.4,6.27-3.47,6.23-3.5-.04-3.38-4.65-5.36-6.9-.36-.4-.1-1.68.27-2.32.47-.81,1.71-.74,2.18-.19,2.21,2.6,3.33.94,4.6-.92.43-.62,1.03-1.43,2-1.18,1.14.29.63,1.32.87,2.21Z"/>
      <path class="cls-4" d="m181.46,69.85c1.17,4.24-.92,7.46-1.57,10.91-.27,1.42-1.66,1.71-2.1,1.17-2.1-2.56-5.26-4.4-5.84-8.03-.13-.83.43-2.18,1.13-1.66,3.66,2.68,5.62-1.41,8.38-2.39Z"/>
      <path class="cls-2" d="m216.94,417.89c.19,2.13,2.36,2.05,3.52,3.11,4.29,3.91,4.83,9.83.83,13.98-3.16,3.29-6.37,6.74-11.42,6.98-7.24.35-10.95-3.22-10.99-10.5,0-1.63,0-3.27,0-5.88-2.66,6.22,1.47,14.58-7.75,16.36-6.95,1.34-16.13-4.86-17.81-11.2-2.74-10.32,6.48-10.97,12.51-14.21-6.59.88-13.89,4.83-18.51-2.32-3.42-5.3.06-17.19,5.3-20.33,7.68-4.6,11.92,1.5,16.91,6.12.4-2.52-1.36-3.88-2.37-5.05-5.49-6.33-3.79-12.5,4.69-14.36,5.01-1.1,10.19-1.29,15.15.1,7.51,2.09,8.83,5.72,4.91,12.86,4.56.28,9.21-2.48,13.45,1.34,3.72,3.36,5.22,7.46,5.45,12.14.38,7.72-3.86,10.96-13.92,10.95-.85-.95-2.26-.1-3.14-.96.9.91,2.27.12,3.21.88Z"/>
      <path class="cls-1" d="m171.55,422.11c-2.42-.03-.25,4.53-3.65,3.28-1.71-.63-4.77-.38-4.58-2.68.14-1.72,2.09-4.05,4.66-3.53,1.29.26,3.2.66,3.57,2.93Z"/>
      <path class="cls-1" d="m232.2,424.5c-4.61,2.7-6.85.5-7.8-4.07,4.46-2.83,6.8-.92,7.8,4.07Z"/>
      <path class="cls-1" d="m199.02,441.09c1.42.83,3.11,1.74,2.69,3.64-.36,1.66-1.44,3.87-3.07,3.88-1.78.01-3.43-2.34-3.04-3.87.3-1.18,1.32-3.27,3.42-3.65Z"/>
      <path class="cls-1" d="m224.08,382.69c-2.2,2.88.53,7.25-4.5,7.23-.71,0-1.84.89-2.11-1.38-.55-4.62,2.78-4.37,6.6-5.86Z"/>
      <path class="cls-1" d="m176.04,382.77c1.75.99,5.51-1,4.96,3.4-.25,2.02-.69,3.14-2.9,2.8-4.4-.66-1.09-4.05-2.07-6.2Z"/>
      <path class="cls-4" d="m341.11,86.09c-10.56.08-18.95-8.53-17.64-19.79.69-5.98,1.48-12.08,1.3-18.21-.18-6.03,3.81-12.29,8.33-13.78,4.66-1.53,10.9,1.53,14.62,6.77,5.4,7.6,7.97,16.21,8.86,25.26.86,8.79-6.26,20.95-15.47,19.75Z"/>
      <path class="cls-4" d="m318.82,46.4c-1.72,8.98-.65,18.31-3.15,27.16-1.94,6.84-8.17,10.8-15.2,10.56-6.62-.23-11.36-6.47-12.68-11.73-2.73-10.86,1.72-19.91,7.67-28.37,3.15-4.47,6.74-8.65,12.61-10.03,4.27-1,8.08.28,9.22,4.28.74,2.6,1.88,5.25,1.54,8.13Z"/>
      <path class="cls-4" d="m69.76,90.23c-6.72-1.51-13.19-2.22-18.51-6.4-2.36-1.86-2.73-3.41-.08-5.36,5.49-4.03,10.98-8.08,16.27-12.38,1.91-1.55,3.72-1.55,5.67-.92,4.38,1.42,7.77,4.47,10.3,8.05,2.26,3.2,2.15,6.77-.98,10.11-3.65,3.9-8.1,5.76-12.67,6.91Z"/>
      <path class="cls-4" d="m70.51,55.1c-6.45.07-14.91-6.58-16.22-12.36-.88-3.89,5.86-11.93,10.47-11.41,7.71.87,15.35,2.61,19.54,10.5.72,1.35,1.17,2.51-.06,3.48-4.05,3.2-8.19,6.3-12.34,9.38-.48.36-1.23.36-1.4.4Z"/>
      <path class="cls-4" d="m205.86,412.15c-.04,5.65-2.21,7.88-7.64,7.83-4.93-.05-8.47-3.31-8.34-7.7.15-4.95,3.5-8.26,8.38-8.29,4.69-.03,7.62,3.13,7.59,8.17Z"/>
      <path class="cls-4" d="m184.71,438.01c-3.82.07-5.69-2.88-7.58-5.62-.7-1.02-.15-2.2.91-2.98,1.15-.85,1.72.12,2.48.69,1.77,1.34,2.69,3.72,5.36,3.99,1.48.15,2.26,1.4,1.87,2.89-.41,1.55-1.86.8-3.05,1.04Z"/>
      <path class="cls-4" d="m205.43,384.46c-.46,2.05-1.59,3.1-3.24,2.43-2.27-.92-4.3-1.17-6.57-.02-.74.38-2.18.46-2.56-.71-.32-1-.54-2.18.63-3.13,1.99-1.61,9.52-1.3,11.23.62.27.3.44.71.5.81Z"/>
      <path class="cls-4" d="m227.78,406.83c-.31.91.95,2.82-1.52,3.13-2.59.33-2.17-1.48-2.55-3.06-.48-2-1.33-3.97-2.32-5.78-.62-1.13-.39-1.77.39-2.52.98-.95,1.72-.39,2.5.32,2.24,2.05,3.94,4.34,3.5,7.92Z"/>
      <path class="cls-4" d="m211.57,437.98c-1.1-.39-2.92.83-3.41-.82-.49-1.63,1.33-1.93,2.45-2.52,1.6-.84,3.41-1.55,4.09-3.35.71-1.86,2.2-1.55,3.25-1.12,1.6.65,1.12,2.34.56,3.42-1.4,2.72-3.54,4.57-6.94,4.39Z"/>
      <path class="cls-4" d="m175.78,399.3c-1.48,2.81-1.88,5.82-2.11,8.92-.07.93-1.31.72-2.1.73-1.32.03-2.16-.67-2.57-1.88-.78-2.31,2.37-8.43,4.71-8.98.9-.21,2.08-.35,2.07,1.2Z"/>
      <path class="cls-4" d="m216.94,417.89c-2.25.22-4.43.23-6.43-2.48,2.66.62,4.66,1.13,6.36,2.56,0,0,.07-.08.07-.08Z"/>
      <path class="cls-7" d="m326.71,66.16c.68-7.49.1-15.16,2.09-22.46,2.1-7.67,9.77-9.43,14.54-3.28,6.19,7.98,10.27,17.03,10.32,27.42.04,8.08-6.95,16.17-13.57,15.92-8.03-.31-13.38-6.55-13.38-15.61,0-.66,0-1.33,0-1.99Z"/>
      <path class="cls-7" d="m314.73,53.13c.27,5.51-.05,12.23-2.04,18.76-1.6,5.26-4.96,9.12-10.39,10.04-4.62.78-9.45-4.12-11.56-10.3-2.91-8.55.61-15.75,4.8-22.67,2.55-4.22,6.19-7.57,10.22-10.54,2.21-1.62,4.37-1.68,6.49-.93,2.34.82,2.61,3.09,2.51,5.41-.14,2.99-.03,5.99-.03,10.24Z"/>
      <path class="cls-7" d="m53.07,81.59c5.7-4.67,11.16-9.11,16.57-13.6.87-.72,1.48-.73,2.6-.32,5.08,1.84,10,7.6,8.99,10.83-1.45,4.6-10.2,9.67-14.84,8.14-1.9-.63-3.89-.04-5.72-1.25-2.26-1.49-4.86-2.47-7.6-3.8Z"/>
      <path class="cls-7" d="m66.88,35.11c1.88-.55,3.71.6,5.45,1.26,3.02,1.13,6.67,2.36,7.52,5.75.91,3.67-3.27,4.16-5.3,5.91-4.67,4.03-7.37,4.21-12.21.69-2.9-2.11-5.07-4.9-4.12-8.81.65-2.68,4.79-4.84,8.66-4.81Z"/>
      <path class="cls-6" d="m193.93,412.04c-.54-3.75,1.66-3.96,4.51-4.15,3.45-.23,5.15,1.57,5.27,4.4.13,3.07-2.11,5.68-5.05,5.39-2.51-.25-5.42-1.97-4.73-5.63Z"/>
    </g>
  </g>
</svg>