<?xml version="1.0" encoding="UTF-8"?>
<svg id="Layer_2" data-name="Layer 2" xmlns="http://www.w3.org/2000/svg" xmlns:xlink="http://www.w3.org/1999/xlink" viewBox="0 0 33.56 19.58">
  <defs>
    <style>
      .cls-1 {
        clip-path: url(#clippath);
      }

      .cls-2 {
        fill: none;
      }

      .cls-2, .cls-3, .cls-4 {
        stroke-width: 0px;
      }

      .cls-5 {
        clip-path: url(#clippath-1);
      }

      .cls-6 {
        clip-path: url(#clippath-4);
      }

      .cls-7 {
        clip-path: url(#clippath-3);
      }

      .cls-8 {
        clip-path: url(#clippath-2);
      }

      .cls-9 {
        clip-path: url(#clippath-7);
      }

      .cls-10 {
        clip-path: url(#clippath-8);
      }

      .cls-11 {
        clip-path: url(#clippath-6);
      }

      .cls-12 {
        clip-path: url(#clippath-5);
      }

      .cls-13 {
        clip-path: url(#clippath-9);
      }

      .cls-3 {
        fill: #da1841;
      }

      .cls-4 {
        fill: #fff;
      }
    </style>
    <clipPath id="clippath">
      <rect class="cls-2" width="33.56" height="19.58"/>
    </clipPath>
    <clipPath id="clippath-1">
      <rect class="cls-2" width="33.56" height="19.58"/>
    </clipPath>
    <clipPath id="clippath-2">
      <rect class="cls-2" width="33.56" height="19.58"/>
    </clipPath>
    <clipPath id="clippath-3">
      <rect class="cls-2" width="33.56" height="19.58"/>
    </clipPath>
    <clipPath id="clippath-4">
      <rect class="cls-2" width="33.56" height="19.58"/>
    </clipPath>
    <clipPath id="clippath-5">
      <rect class="cls-2" width="33.56" height="19.58"/>
    </clipPath>
    <clipPath id="clippath-6">
      <rect class="cls-2" width="33.56" height="19.58"/>
    </clipPath>
    <clipPath id="clippath-7">
      <rect class="cls-2" width="33.56" height="19.58"/>
    </clipPath>
    <clipPath id="clippath-8">
      <rect class="cls-2" width="33.56" height="19.58"/>
    </clipPath>
    <clipPath id="clippath-9">
      <rect class="cls-2" width="33.56" height="19.58"/>
    </clipPath>
  </defs>
  <g id="Layer_1-2" data-name="Layer 1">
    <g id="SINGAPORE">
      <g>
        <g class="cls-1">
          <rect class="cls-3" width="33.56" height="9.79"/>
        </g>
        <g class="cls-5">
          <rect class="cls-4" y="9.79" width="33.56" height="9.79"/>
        </g>
        <g class="cls-8">
          <g>
            <g class="cls-7">
              <path class="cls-4" d="m10.07,4.89c0,2.04-1.65,3.68-3.68,3.68s-3.68-1.65-3.68-3.68,1.65-3.68,3.68-3.68,3.68,1.65,3.68,3.68"/>
            </g>
            <g class="cls-6">
              <path class="cls-3" d="m11.23,4.89c0,1.93-1.56,3.48-3.48,3.48s-3.48-1.55-3.48-3.48,1.56-3.48,3.48-3.48,3.48,1.56,3.48,3.48"/>
            </g>
            <g class="cls-12">
              <polygon class="cls-4" points="6.85 4.98 6.35 4.6 5.84 4.98 6.04 4.37 5.54 3.98 6.16 3.99 6.35 3.37 6.54 3.99 7.15 3.98 6.65 4.37 6.85 4.98"/>
            </g>
            <g class="cls-11">
              <polygon class="cls-4" points="10.77 4.98 10.27 4.6 9.77 4.98 9.96 4.37 9.46 3.98 10.08 3.99 10.27 3.37 10.46 3.99 11.08 3.98 10.58 4.37 10.77 4.98"/>
            </g>
            <g class="cls-9">
              <polygon class="cls-4" points="8.81 3.53 8.31 3.14 7.81 3.53 8 2.91 7.5 2.53 8.12 2.53 8.31 1.91 8.5 2.53 9.12 2.53 8.62 2.91 8.81 3.53"/>
            </g>
            <g class="cls-10">
              <polygon class="cls-4" points="7.58 7.32 7.08 6.93 6.58 7.32 6.77 6.7 6.27 6.32 6.89 6.32 7.08 5.7 7.27 6.32 7.89 6.32 7.39 6.7 7.58 7.32"/>
            </g>
            <g class="cls-13">
              <polygon class="cls-4" points="10.04 7.32 9.53 6.93 9.04 7.32 9.23 6.7 8.73 6.32 9.35 6.32 9.53 5.7 9.73 6.32 10.34 6.32 9.84 6.7 10.04 7.32"/>
            </g>
          </g>
        </g>
      </g>
    </g>
  </g>
</svg>