<?xml version="1.0" encoding="UTF-8" standalone="no"?>
<!-- Created with Inkscape (http://www.inkscape.org/) -->

<svg
   xmlns:dc="http://purl.org/dc/elements/1.1/"
   xmlns:cc="http://creativecommons.org/ns#"
   xmlns:rdf="http://www.w3.org/1999/02/22-rdf-syntax-ns#"
   xmlns:svg="http://www.w3.org/2000/svg"
   xmlns="http://www.w3.org/2000/svg"
   xmlns:sodipodi="http://sodipodi.sourceforge.net/DTD/sodipodi-0.dtd"
   xmlns:inkscape="http://www.inkscape.org/namespaces/inkscape"
   id="svg2"
   version="1.1"
   inkscape:version="0.91 r13725"
   width="322.81381"
   height="400"
   viewBox="0 0 322.81381 400"
   sodipodi:docname="siracusa calcio.svg">
  <metadata
     id="metadata8">
    <rdf:RDF>
      <cc:Work
         rdf:about="">
        <dc:format>image/svg+xml</dc:format>
        <dc:type
           rdf:resource="http://purl.org/dc/dcmitype/StillImage" />
        <dc:title></dc:title>
      </cc:Work>
    </rdf:RDF>
  </metadata>
  <defs
     id="defs6" />
  <sodipodi:namedview
     pagecolor="#ffffff"
     bordercolor="#666666"
     borderopacity="1"
     objecttolerance="10"
     gridtolerance="10"
     guidetolerance="10"
     inkscape:pageopacity="0"
     inkscape:pageshadow="2"
     inkscape:window-width="1600"
     inkscape:window-height="838"
     id="namedview4"
     showgrid="false"
     inkscape:zoom="1.6575"
     inkscape:cx="161.40691"
     inkscape:cy="200"
     inkscape:window-x="-8"
     inkscape:window-y="-8"
     inkscape:window-maximized="1"
     inkscape:current-layer="svg2"
     showguides="false"
     fit-margin-top="0"
     fit-margin-left="0"
     fit-margin-right="0"
     fit-margin-bottom="0" />
  <g
     id="g4457"
     transform="matrix(0.3998001,0,0,0.3998001,-78.073422,-40.17991)">
    <path
       sodipodi:nodetypes="ccccccc"
       inkscape:connector-curvature="0"
       id="path4259"
       d="m 195.71023,315.59773 c 57.9121,-33.61216 95.14101,-69.94133 92.54453,-157.89819 85.89498,-28.35947 190.02314,-54.85985 310.74539,-57.19954 120.72226,2.33969 224.85042,28.84007 310.7454,57.19954 -2.59648,87.95686 34.63243,124.28603 92.54455,157.89819 C 1012.537,680.55535 838.13455,952.68937 599.00015,1101 359.86576,952.68937 185.46326,680.55535 195.71023,315.59773 Z"
       style="fill:#cb9521;fill-opacity:1;fill-rule:evenodd;stroke:none;stroke-width:1px;stroke-linecap:butt;stroke-linejoin:miter;stroke-opacity:1" />
    <path
       style="fill:#1066a1;fill-opacity:1;fill-rule:evenodd;stroke:none;stroke-width:1px;stroke-linecap:butt;stroke-linejoin:miter;stroke-opacity:1"
       d="M 982.33394,328.27439 C 926.89311,293.98825 891.52525,258.48803 888.26774,172.12771 801.36306,145.1145 720.15325,126.0016 599.00015,121 477.84706,126.0016 396.63725,145.1145 309.73257,172.12771 306.47506,258.48803 271.1072,293.98825 215.66637,328.27439 217.17663,689.10615 368.76355,924.63025 599.00015,1076.5 829.23676,924.63025 980.82368,689.10615 982.33394,328.27439 Z"
       id="path4373"
       inkscape:connector-curvature="0"
       sodipodi:nodetypes="ccccccc" />
    <path
       style="fill:#1a1b11;fill-opacity:1;fill-rule:evenodd;stroke:none;stroke-width:1;stroke-linecap:butt;stroke-linejoin:miter;stroke-miterlimit:4;stroke-dasharray:none;stroke-opacity:1"
       d="m 340.48364,562.55335 c -4.71026,-41.96142 -5.51755,-105.74791 39.46813,-130.56191 4.80952,-53.56784 48.59721,-96.58082 112.27122,-88.80561 -9.39146,-5.38239 -22.35576,-8.60452 -31.98334,-9.96983 48.53801,-35.2769 117.54245,-63.78197 157.60077,-5.0734 -7.47902,-13.7878 -19.49089,-27.74679 -34.89849,-36.08901 94.91932,-18.64099 118.54339,14.9557 137.0847,54.42633 -1.86054,-10.51966 -4.3998,-20.1909 -8.03711,-28.4896 50.93242,16.3218 105.43996,58.02911 99.17896,118.89409 3.163,-8.81026 5.7111,-17.41554 6.99242,-25.59857 45.70062,46.52805 55.82161,103.61707 33.4006,146.67134 26.3369,35.14934 17.14973,68.90964 0.37898,98.12726 l -3.03581,-3.15543 c 7.28654,27.27922 7.84935,58.67405 -0.35578,94.05385 l -39.03488,-46.60809 c 3.54572,44.224 14.8876,97.84455 -59.75415,138.55828 0.44699,-10.00328 2.22014,-22.50026 0.82367,-36.21199 -12.68651,29.97169 -27.1953,69.22348 -77.95509,90.09716 l 0.50654,-12.37299 c -19.12361,33.57327 -38.45066,41.93915 -58.93944,63.3878 -4.01504,-19.22617 -9.16611,-37.60032 -15.11588,-55.37544 -4.86331,16.23133 -7.54699,30.82794 -10.55785,45.66993 -50.1004,-26.13199 -69.15366,-53.09101 -85.98156,-78.74769 l 2.07382,25.10667 c -43.27008,-14.34643 -61.43969,-38.65028 -70.47595,-82.93589 -3.25276,9.58146 -5.64547,20.02297 -7.94519,30.55747 -40.36395,-44.04059 -48.06153,-73.4691 -43.32744,-123.19231 l -24.48247,35.53026 c -4.56184,-25.95323 -12.66411,-51.10182 -7.28515,-79.31432 -15.67713,-29.64095 -27.70142,-68.89288 2.90805,-110.57331 z"
       id="path4375"
       inkscape:connector-curvature="0"
       sodipodi:nodetypes="ccccccccccccccccccccccccccccccc" />
    <path
       style="fill:#e4b11e;fill-opacity:1;fill-rule:evenodd;stroke:none;stroke-width:1px;stroke-linecap:butt;stroke-linejoin:miter;stroke-opacity:1"
       d="m 345.50271,548.86134 c -3.3543,-33.1327 2.06588,-64.15344 12.00133,-84.23113 16.78812,-33.92566 50.414,-45.15693 100.33238,-34.42876 -29.30043,-19.88169 -53.38843,-17.55216 -71.58739,-3.93413 5.63777,-37.22777 34.45407,-68.33237 68.29295,-75.3524 31.48636,-6.53199 54.35283,-2.53614 81.39986,29.02034 -2.05406,-7.62822 -8.15287,-36.23784 -60.21615,-49.89287 90.73648,-58.66056 140.27338,-20.86387 154.86156,42.3411 8.44444,-32.45249 -9.39324,-58.29595 -31.0987,-76.72773 58.3794,-8.15996 124.1436,-0.0511 121.69535,114.27245 15.64028,-21.76666 6.97308,-54.92563 0.58841,-81.83867 53.83113,25.68526 118.6857,70.88438 60.99577,162.07716 20.72544,-14.38306 31.4005,-42.02252 38.53489,-64.97311 15.54817,18.43571 54.49166,75.21504 24.04022,133.37587 13.97152,23.06324 25.49568,47.60075 4.8826,87.64909 -3.49844,-3.72415 -7.25664,-7.4483 -12.55919,-11.17245 10.20707,27.12099 12.58113,63.64997 7.42045,99.04927 -14.41684,-16.61393 -26.93357,-32.91117 -43.77939,-49.92992 6.31552,43.59318 6.23488,71.23649 -2.37379,94.34044 -8.4416,22.65553 -23.53298,38.28831 -42.72331,49.8384 0.97411,-18.8401 1.61935,-41.10439 -2.6136,-61.65658 -8.13058,33.40968 -18.03808,57.73175 -33.49667,81.53485 -10.1061,15.56134 -23.07692,28.24279 -40.93241,35.22532 0.93031,-11.69024 1.88478,-23.39257 1.61841,-34.48447 -6.95058,17.55433 -17.21862,35.79069 -29.22713,51.52284 -10.29381,13.48575 -24.16997,20.75484 -33.72482,32.92994 -4.83441,-20.13462 -11.61724,-42.99704 -19.51766,-67.42408 -5.9961,20.8113 -11.30114,40.93156 -14.24776,58.69339 -31.53646,-17.90113 -62.22266,-39.71501 -87.86311,-96.60501 -1.95814,14.56894 -0.26498,28.40763 0.68503,42.39494 -51.20552,-17.21085 -53.14685,-62.65211 -60.41256,-101.55461 -5.03915,13.5951 -9.74028,28.03529 -13.55672,44.68717 -44.33676,-45.64708 -35.01488,-90.04628 -28.02921,-134.49982 -13.19528,16.16249 -24.64173,31.82532 -33.54068,46.76029 -8.71487,-30.66914 -7.913,-59.93877 4.25297,-87.53721 l -10.91616,15.51185 c -17.16982,-32.16903 -15.15614,-62.0909 -6.00754,-81.68369 10.78217,-23.09128 28.96678,-39.43731 59.08269,-50.64186 -23.20249,-0.6808 -43.97244,8.36855 -62.26092,27.34379 z"
       id="path4377"
       inkscape:connector-curvature="0"
       sodipodi:nodetypes="csccscccccccccccccsccsccscccccccccccscc" />
    <path
       style="fill:#1c1a1f;fill-opacity:1;fill-rule:evenodd;stroke:none;stroke-width:1px;stroke-linecap:butt;stroke-linejoin:miter;stroke-opacity:1"
       d="m 404.18899,405.0769 c 9.41438,-19.79857 24.90137,-33.85592 42.37613,-41.0937 34.83103,-14.4265 74.75679,-2.13251 95.52572,46.02597 4.87723,-21.06963 8.57124,-58.8572 -40.2201,-81.89099 84.84852,-47.42796 117.26614,11.50671 124.46838,75.95764 18.33298,-32.19764 27.27197,-65.07437 -3.70635,-100.83669 82.77543,-4.44233 96.53266,64.68825 84.234,128.50129 28.22183,-13.0633 40.67793,-37.17474 30.02902,-84.58911 53.31238,25.08392 81.45688,66.22944 37.63799,134.7826 0.0488,10.23753 -3.74295,16.63449 -9.06689,21.49926 22.88071,1.49872 45.78739,-16.03697 57.12795,-57.48305 28.18459,34.31806 42.48312,86.7779 -16.80612,144.52402 12.58392,-2.83872 23.6474,-11.37912 33.83707,-23.19629 6.72877,15.09906 16.85437,28.77788 7.05757,60.60943 -9.28077,-4.07566 -17.01938,-8.62583 -33.72822,-10.41594 16.58276,19.05782 31.91427,36.37101 25.43758,89.97106 -13.6793,-14.17371 -28.17634,-28.65408 -46.60315,-44.60811 0.99824,17.29605 4.82505,41.76607 5.2643,69.04305 0.47912,29.7523 -2.42863,55.89708 -28.78715,76.83002 -0.29134,-27.79096 -6.0529,-53.77009 -16.24043,-81.56444 -8.57555,34.0521 -16.58606,99.99748 -60.94313,137.793 1.35049,-32.14873 -4.32658,-41.83945 -10.08938,-57.35991 -10.30042,66.40102 -41.46116,89.17738 -57.01195,106.21863 -7.3235,-30.10095 -18.83322,-51.53166 -24.68679,-76.36829 -5.94301,-25.21612 -8.60513,-49.53947 -5.45108,-72.19575 -14.06431,28.99791 -9.21391,60.28852 -3.92404,91.63239 -4.34237,16.77973 -9.06639,31.65118 -12.87493,51.1 -61.13146,-38.82629 -74.77772,-90.44198 -81.44845,-120.54433 -5.07608,22.39855 -10.31067,44.76828 -8.96516,68.33439 -20.3335,-13.88966 -25.23931,-25.82764 -30.56567,-44.30708 -6.18119,-20.41927 -10.79909,-43.38352 -17.48825,-68.94771 -7.25607,15.23629 -14.52057,30.44729 -20.60703,49.19242 -28.98939,-45.07373 -19.30927,-93.63268 -6.49189,-131.77221 -17.89446,8.48645 -32.93491,21.14415 -44.99364,38.15974 -3.82458,-46.62945 17.11998,-72.40612 38.8248,-90.41438 -10.49253,-0.31975 -28.00451,-0.19296 -48.73325,25.21468 -5.27735,-23.47953 -1.87821,-43.23911 6.4216,-59.34024 15.58039,-30.22505 44.05331,-47.22146 73.57204,-52.4061 -18.3931,-18.55793 -59.13809,-9.815 -81.67886,6.38421 0.70814,-29.35975 6.0162,-56.23997 21.64679,-72.76766 16.46993,-17.41521 54.50118,-27.37637 90.48742,-8.55234 2.35554,0.0519 4.3729,0.21022 7.62325,1.12422 -7.60762,-34.01438 -34.77417,-43.47606 -70.4597,-42.2437 z"
       id="path4379"
       inkscape:connector-curvature="0"
       sodipodi:nodetypes="cscccccccccccccccscccccsccccccccccccsccsccc" />
    <path
       style="fill:#ec6410;fill-opacity:1;fill-rule:evenodd;stroke:none;stroke-width:1px;stroke-linecap:butt;stroke-linejoin:miter;stroke-opacity:1"
       d="m 361.51247,516.31367 c 4.63775,-66.24444 41.65641,-82.98636 94.41827,-68.0209 -11.21937,4.72337 -18.50996,16.41862 -19.66806,28.69398 -1.61999,17.17125 4.2242,29.05973 35.85675,44.13596 -16.30481,0.6444 -34.61462,0.86221 -42.72258,32.68791 -2.94372,11.5548 -1.1505,29.0307 -4.82353,48.34124 l 25.38036,-6.88116 c -4.90267,20.06739 -11.99879,38.97355 -24.9373,54.78666 11.38459,0.49866 24.33267,-2.12966 37.10818,-4.41285 -3.19488,12.52209 -6.07762,24.54476 -10.99904,39.82931 39.49182,26.46394 68.85563,7.8814 75.29737,-23.61974 3.89227,-19.03383 -2.47574,-43.19539 -18.40328,-64.84885 0.12447,42.22895 -1.33622,64.92084 -12.89983,76.60301 -4.2112,4.25438 -13.3177,4.60283 -18.7685,0.81357 8.21353,-28.8415 16.07992,-57.12757 22.115,-82.48354 -10.66938,7.99662 -24.77038,27.55659 -32.37738,26.83121 6.96924,-17.73989 7.92001,-38.08505 8.61236,-56.29349 -9.84188,4.1122 -18.74707,7.75605 -25.56942,10.35848 -1.61871,-37.41512 39.14345,-37.39695 55.7743,-40.13212 -19.49627,-10.65063 -36.04622,-19.30791 -46.79881,-26.56827 -3.89548,-2.6303 -6.84805,-5.15114 -9.07217,-7.57942 -8.25604,-7.46091 -8.00994,-20.5205 -3.83034,-30.4261 2.78955,-6.53865 7.84036,-12.23216 13.99143,-14.3138 6.18001,-2.55075 15.55409,-1.85041 29.51092,8.41085 2.61258,1.80552 4.4746,4.30124 7.17277,3.32253 1.2074,-0.53193 1.92579,-1.82156 2.01921,-3.14925 -0.17761,-1.60279 -1.12777,-2.31869 -2.30064,-3.14356 -3.72131,-2.71551 -8.06368,-5.40851 -14.30396,-9.05801 -3.57714,-27.62215 -18.99059,-49.68455 -66.22962,-51.9075 17.37272,-24.86653 49.36754,-38.21171 75.9443,-30.75048 21.01509,5.89982 39.5261,29.11549 52.77756,59.68326 16.51814,-46.23343 5.00032,-77.82586 -25.9467,-99.27193 84.19845,-35.16647 97.1352,38.11003 104.21467,90.59773 44.11477,-54.53031 25.77952,-89.08602 14.98242,-108.48653 75.28464,5.0868 73.17814,89.1429 62.5187,129.72819 52.04721,-13.56145 48.16979,-54.9125 47.45034,-79.53152 55.88971,34.73053 46.89708,73.96004 26.95073,110.22022 -3.3049,-5.95332 -7.64306,-19.60638 -23.15808,-23.87798 -7.04122,-1.93859 -17.58283,0.62069 -30.18808,5.63695 -4.30887,1.93329 -7.23664,2.67912 -10.56414,5.32251 -1.26598,1.15196 -1.97121,2.42929 -1.27534,3.62207 1.63089,2.68005 6.16871,0.89542 9.44396,-0.4357 10.31201,-4.07681 21.8983,-10.18891 31.28905,-7.3051 18.74457,6.10599 27.40067,35.45956 6.8519,50.18998 -17.36142,10.20083 -34.77656,18.33812 -49.88464,24.59649 20.26272,4.31788 55.99896,2.64106 54.18333,41.52151 -10.94891,-3.37848 -18.40728,-6.75695 -25.44985,-10.13543 -1.74365,16.53425 0.65143,35.46461 7.27861,56.84513 -12.5892,-3.98806 -18.27788,-14.87662 -23.51548,-26.21627 -1.49431,3.66567 -2.27459,8.69638 -1.18386,14.40606 3.10509,16.25437 11.56839,45.59064 15.64109,66.3589 -10.62787,6.26733 -23.95455,-0.82633 -27.60933,-21.285 -2.31352,-12.95057 -2.45617,-33.41036 -3.37163,-54.56587 -9.30688,10.69275 -20.45444,40.83836 -16.74002,63.02901 4.47114,26.71142 29.12004,50.9032 68.8211,22.62167 l -8.91721,-40.41437 c 10.67387,2.18779 24.63668,4.32863 37.41738,6.8174 -10.35996,-15.81443 -19.41724,-31.38248 -23.47099,-54.79726 l 23.08974,7.15718 c -0.80251,-31.36537 -1.04794,-47.62247 -7.36888,-59.97005 -6.76741,-13.21972 -18.00891,-20.1571 -25.78638,-24.50026 2.407,-1.24439 6.04487,-3.22399 9.31853,-5.33504 37.01131,2.59656 53.95537,-19.12039 66.57211,-48.51786 21.18193,39.95042 28.36908,82.34747 -38.55684,137.70136 38.2598,-3.3232 40.69723,-12.61679 51.63629,-20.49344 4.51595,12.56751 8.8423,25.21484 5.16982,41.2301 -12.47278,-6.12827 -27.28902,-9.21006 -44.1671,-9.61144 17.26327,22.39994 38.01583,41.69829 33.77927,83.20919 -16.26068,-17.06852 -32.52135,-30.72159 -48.78203,-44.79609 -0.73445,40.48557 19.65031,119.13438 -11.17598,146.16925 0.84757,-22.20483 -9.3212,-57.09353 -22.67402,-94.11615 -13.49765,48.09287 -13.51344,102.26059 -52.80709,150.58711 -1.95006,-32.48998 -11.72115,-44.2161 -18.09324,-65.09826 -5.34525,23.8714 -9.84374,48.61329 -21.43455,72.43299 -7.64085,15.70233 -17.65303,30.59776 -30.90525,43.36954 C 609.65989,850.74519 589.61856,799.94518 606.33064,744.6316 564.1158,769.27483 579.35848,829.36911 583.4937,856.42673 L 572.516,897.80652 C 517.23385,857.52987 508.93927,811.48188 501.63591,784.88579 l -11.3011,-0.69986 c -7.1052,22.44069 -8.83011,42.44827 -9.9312,60.06221 -10.49337,-8.33745 -14.07045,-19.48817 -18.58757,-35.98276 -6.51691,-23.79702 -11.80081,-52.25625 -20.50173,-83.84839 -10.99309,17.95015 -18.01702,35.23878 -24.75477,52.47972 -15.96665,-32.22341 -14.27863,-73.89579 6.01113,-125.52403 -14.92963,1.36138 -31.11034,7.98253 -50.76523,30.12366 4.59,-34.05029 19.59344,-56.79575 50.135,-77.5319 -22.51052,-7.56307 -43.14475,-3.09587 -61.61816,15.22607 -0.97674,-20.24407 4.39802,-37.13236 13.7568,-50.80083 16.01114,-23.38422 35.89164,-35.64448 71.16098,-42.56154 -2.70677,-15.11497 -19.86004,-22.89666 -42.64736,-21.9548 -11.70106,0.48363 -25.4853,4.12653 -41.08023,12.44033 z"
       id="path4381"
       inkscape:connector-curvature="0"
       sodipodi:nodetypes="ccscscccccscsccccccscccccccccscccccccscccccccccccscscscccccscccccccccccccscccccccsccccccscsc" />
    <path
       style="fill:#e4b11e;fill-opacity:1;fill-rule:evenodd;stroke:none;stroke-width:1px;stroke-linecap:butt;stroke-linejoin:miter;stroke-opacity:1"
       d="m 477.01511,529.19136 c -12.47035,-0.94317 -30.88386,-1.42968 -38.60367,18.85168 -3.63892,9.56013 -3.94911,25.17499 -5.75729,44.85928 7.83177,-2.54273 15.08753,-4.8386 25.07501,-8.3052 -0.36389,16.65732 -6.04313,38.63014 -19.61071,57.65226 14.4675,-0.72425 25.04537,-4.68985 35.70567,-8.58676 L 459.274,682.12329 c 13.79898,8.42768 24.96704,10.43055 33.82944,8.51946 15.52997,-3.34888 24.17269,-17.44248 26.1729,-31.45564 1.72434,-12.08045 -1.61067,-24.9728 -3.54483,-32.99545 -1.7864,8.16176 -1.06326,18.62907 -3.33617,27.87425 -2.38046,9.68267 -5.99637,18.63043 -11.8034,23.44279 -7.87393,6.52523 -23.2899,9.44667 -31.74945,-1.05678 l 16.03687,-61.49128 c -7.52735,7.46709 -14.67167,13.69365 -27.9472,10.57256 8.39797,-21.5985 8.86912,-36.59131 9.66979,-51.85873 -8.45921,3.09127 -16.9403,6.2117 -24.44784,8.03407 -1.11082,-11.49041 -0.25826,-27.23813 6.03487,-34.88274 7.45396,-9.05472 16.62908,-13.89846 28.82613,-17.63444 z"
       id="path4383"
       inkscape:connector-curvature="0"
       sodipodi:nodetypes="cscccccsscsscccccsc" />
    <path
       style="fill:#e4b11e;fill-opacity:1;fill-rule:evenodd;stroke:none;stroke-width:1px;stroke-linecap:butt;stroke-linejoin:miter;stroke-opacity:1"
       d="m 732.54145,524.19257 6.70408,-3.10828 c 13.61197,1.71813 22.46514,10.21658 27.87243,19.2743 9.11529,15.26898 8.78966,35.64053 7.08924,49.0807 -9.70702,-2.86931 -16.91527,-5.73863 -24.0401,-8.60794 1.95364,22.22908 10.41456,44.07463 19.15161,56.56102 -12.87134,-1.77569 -22.23981,-4.05179 -33.05432,-6.12132 l 11.54671,46.75564 c -11.85368,7.40104 -22.46345,9.93529 -30.43106,8.45831 -8.86982,-1.64423 -14.68362,-7.10133 -18.69764,-13.38424 -10.73145,-16.79733 -6.41977,-37.83955 -3.1301,-49.44859 0.45359,9.80083 1.77863,25.20125 6.40952,37.4095 3.40807,8.98456 9.84295,16.11657 17.80234,18.13895 5.69651,1.44741 13.47358,1.46964 20.76007,-4.81561 l -12.28234,-57.3699 c 8.64598,4.84514 17.65934,6.38632 23.11644,7.01141 -3.59332,-16.99003 -10.0347,-31.7649 -8.22385,-52.95817 7.68583,2.71062 14.91421,5.8787 23.82823,7.36113 5.07879,-39.59186 -14.7347,-46.80187 -34.42126,-54.23691 z"
       id="path4385"
       inkscape:connector-curvature="0"
       sodipodi:nodetypes="ccscccccsscsscccccc" />
    <path
       transform="matrix(0.87281654,0.48804846,-0.41917626,0.90790488,0,0)"
       style="fill:#1e161f;fill-opacity:1;stroke:none;stroke-width:1.2250216;stroke-miterlimit:4;stroke-dasharray:none;stroke-opacity:1"
       d="m 652.81709,187.70483 c 2.7e-4,0.63175 -0.10021,1.14682 -0.27193,1.60352 -0.35758,1.15904 -1.13206,1.4838 -1.76651,1.97555 -1.24257,0.96308 -1.30693,1.98612 -1.34284,2.32221 -0.12046,1.12741 0.64924,1.76602 -0.0825,2.68362 -0.47305,0.55535 -0.98687,1.09084 -1.53657,1.60386 -3.99356,3.72704 -9.8809,6.26775 -15.7859,6.61651 -10.43362,0.61623 -17.90889,-6.6406 -17.64689,-15.85457 0.25403,-8.93368 9.32908,-16.4724 19.73325,-16.4724 10.40418,0 18.69604,6.60435 18.69992,15.5217 z"
       id="path4387"
       inkscape:connector-curvature="0"
       sodipodi:nodetypes="scsscsssss" />
    <path
       sodipodi:nodetypes="cccccssssccccc"
       inkscape:connector-curvature="0"
       id="path4389"
       d="m 476.36315,479.19104 c -1.66122,-0.38786 -3.42822,0.25683 -3.31952,2.52871 0.0797,1.63309 0.87692,2.58249 1.81607,3.95155 l 2.23775,3.26212 c 0.62502,1.07426 0.48932,0.96505 -0.43078,1.24051 -2.06187,0.52768 -4.74971,0.56966 -7.29996,-0.61203 -6.39688,-2.96408 -10.09483,-10.49774 -7.30043,-15.8846 2.70938,-5.223 10.87796,-5.96311 17.08084,-2.64256 6.20289,3.32055 9.37536,9.76811 6.8244,15.06372 l -2e-5,0 c -0.18073,0.37516 -0.38811,0.64891 -0.62125,0.86525 -0.78811,0.85278 -1.77389,0.0416 -2.45822,-1.06969 l -2.93204,-3.62343 c -1.24585,-1.5768 -2.13169,-2.53226 -3.59684,-3.07955 z"
       style="fill:#e4b11e;fill-opacity:1;stroke:none;stroke-width:0.81751347;stroke-miterlimit:4;stroke-dasharray:none;stroke-opacity:1" />
    <path
       sodipodi:nodetypes="scsscsssss"
       inkscape:connector-curvature="0"
       id="path4391"
       d="m 719.90249,489.02451 c 0.26457,0.5737 0.56818,0.99229 0.9095,1.32313 0.79794,0.87778 1.61005,0.79464 2.36994,0.93146 1.48824,0.26795 1.97325,1.16537 2.14547,1.45298 0.57772,0.96479 0.17361,1.92024 1.19692,2.39621 0.64567,0.27333 1.31861,0.50874 2.01344,0.70623 5.04793,1.43475 11.25151,0.86816 16.55168,-1.69712 9.36494,-4.53264 12.84759,-14.76944 8.75664,-23.00698 -3.96651,-7.98696 -15.04742,-10.40233 -24.12835,-5.32459 -9.08094,5.07774 -13.54983,15.12069 -9.81527,23.21869 z"
       style="fill:#1e161f;fill-opacity:1;stroke:none;stroke-width:1.22319055;stroke-miterlimit:4;stroke-dasharray:none;stroke-opacity:1" />
    <path
       style="fill:#e4b11e;fill-opacity:1;stroke:none;stroke-width:0.81751347;stroke-miterlimit:4;stroke-dasharray:none;stroke-opacity:1"
       d="m 734.64748,479.19104 c 1.66122,-0.38786 3.42822,0.25683 3.31952,2.52871 -0.0797,1.63309 -0.87692,2.58249 -1.81607,3.95155 l -2.23775,3.26212 c -0.62502,1.07426 -0.48932,0.96505 0.43078,1.24051 2.06187,0.52768 4.74971,0.56966 7.29996,-0.61203 6.39688,-2.96408 10.09483,-10.49774 7.30043,-15.8846 -2.70938,-5.223 -10.87796,-5.96311 -17.08084,-2.64256 -6.20289,3.32055 -9.37536,9.76811 -6.8244,15.06372 l 2e-5,0 c 0.18073,0.37516 0.38811,0.64891 0.62125,0.86525 0.78811,0.85278 1.77389,0.0416 2.45822,-1.06969 l 2.93204,-3.62343 c 1.24585,-1.5768 2.13169,-2.53226 3.59684,-3.07955 z"
       id="path4393"
       inkscape:connector-curvature="0"
       sodipodi:nodetypes="cccccssssccccc" />
    <path
       style="fill:#1b191e;fill-opacity:1;fill-rule:evenodd;stroke:none;stroke-width:1px;stroke-linecap:butt;stroke-linejoin:miter;stroke-opacity:1"
       d="m 511.92747,484.55462 c 13.04412,4.40537 24.93133,6.0788 36.37418,8.73406 8.04593,1.86702 14.89887,1.24998 21.95898,3.90479 6.58367,3.65403 9.51576,9.33049 9.73962,15.68124 0.26017,7.3804 -7.30612,13.27576 -19.56983,9.48843 5.81171,-1.15749 12.79037,-5.22089 12.6897,-9.79724 -0.061,-2.77047 -3.07345,-10.19154 -14.31007,-10.18726 -2.52476,0.49148 -3.30418,2.82712 -4.54732,4.41577 -1.85203,2.36676 -4.67126,3.81983 -8.8477,1.74161 -12.87485,-7.13763 -22.7489,-15.77567 -33.48756,-23.9814 z"
       id="path4395"
       inkscape:connector-curvature="0"
       sodipodi:nodetypes="cscscscscc" />
    <path
       sodipodi:nodetypes="cscscscscc"
       inkscape:connector-curvature="0"
       id="path4397"
       d="m 699.4032,484.55462 c -13.04412,4.40537 -24.93133,6.0788 -36.37418,8.73406 -8.04593,1.86702 -14.89887,1.24998 -21.95898,3.90479 -6.58367,3.65403 -9.51576,9.33049 -9.73962,15.68124 -0.26017,7.3804 7.30612,13.27576 19.56983,9.48843 -5.81171,-1.15749 -12.79037,-5.22089 -12.6897,-9.79724 0.061,-2.77047 3.07345,-10.19154 14.31007,-10.18726 2.52476,0.49148 3.30418,2.82712 4.54732,4.41577 1.85203,2.36676 4.67126,3.81983 8.8477,1.74161 12.87485,-7.13763 22.7489,-15.77567 33.48756,-23.9814 z"
       style="fill:#1b191e;fill-opacity:1;fill-rule:evenodd;stroke:none;stroke-width:1px;stroke-linecap:butt;stroke-linejoin:miter;stroke-opacity:1" />
    <path
       style="fill:#1b191e;fill-opacity:1;fill-rule:evenodd;stroke:none;stroke-width:1px;stroke-linecap:butt;stroke-linejoin:miter;stroke-opacity:1"
       d="m 583.47253,544.86579 51.86739,0.0834 c 2.38596,0.12719 6.51009,0.30272 8.89136,1.19577 2.73983,0.69484 2.72534,3.88925 1.53317,5.32031 -0.95481,1.09026 -2.98669,2.03771 -6.81561,2.73708 -6.12238,1.01766 -12.52257,1.39343 -17.28354,7.19495 -3.38478,3.84963 -4.24139,7.91315 -7.03783,10.33215 -5.40724,5.1619 -12.09214,2.99287 -15.75015,-1.42813 -1.69882,-2.14141 -2.85863,-4.86366 -4.7377,-7.16691 -5.49829,-7.16126 -9.71268,-1.79355 -15.56871,-1.6922 -1.76692,-0.005 -3.30683,-0.62918 -4.89118,-2.40271 -1.36291,-1.53937 -1.99011,-2.90872 -2.13116,-4.15413 -0.26233,-2.31628 1.35301,-5.28237 2.84831,-7.03769 1.27359,-1.78975 2.45425,-3.05763 9.07565,-2.98185 z"
       id="path4399"
       inkscape:connector-curvature="0"
       sodipodi:nodetypes="cccccccccccsccc" />
    <path
       style="fill:#1b191e;fill-opacity:1;fill-rule:evenodd;stroke:none;stroke-width:1px;stroke-linecap:butt;stroke-linejoin:miter;stroke-opacity:1"
       d="m 537.01101,761.15307 c -10.94663,-4.20245 -18.52882,-32.75982 -17.35141,-46.14852 1.50487,-17.11234 12.60069,-31.59945 12.23506,-43.85401 0.17214,-17.12533 -3.12685,-40.59886 -1.91325,-60.16064 1.10557,-17.82038 7.93001,-34.12168 31.90379,-45.86768 -4.8269,16.79213 -11.71093,29.92365 -13.51666,49.72074 -1.75322,19.22131 0.98915,39.59725 1.45895,60.7062 -1.55797,23.27382 -12.76388,36.28609 -15.26658,55.10378 -1.30312,9.79805 -0.97218,19.88028 2.4501,30.50013 z"
       id="path4401"
       inkscape:connector-curvature="0"
       sodipodi:nodetypes="cscscscsc" />
    <path
       style="fill:#e4b11e;fill-opacity:1;fill-rule:evenodd;stroke:none;stroke-width:1px;stroke-linecap:butt;stroke-linejoin:miter;stroke-opacity:1"
       d="m 527.889,732.847 c -4.77626,-16.96313 -1.80416,-26.03947 4.30517,-40.68117 2.58714,-6.6213 4.68567,-7.41902 5.80889,-17.13594 -0.0515,-17.93392 -4.7772,-43.5862 -1.85976,-65.75966 1.45545,-11.0619 7.21253,-21.03703 12.71867,-26.81428 -10.70961,27.13004 -7.7668,42.24209 -6.80748,56.8753 0.10087,1.5386 0.0404,3.08176 0.21864,4.61335 1.88826,16.22552 3.60304,28.41178 1.79458,37.90736 -4.15837,16.8079 -12.88622,34.77888 -16.17871,50.99504 z"
       id="path4403"
       inkscape:connector-curvature="0"
       sodipodi:nodetypes="cccscsscc" />
    <path
       sodipodi:nodetypes="cscscscsc"
       inkscape:connector-curvature="0"
       id="path4405"
       d="m 676.304,758.57754 c 10.62469,-7.09993 17.56299,-34.36953 16.38558,-47.75823 -1.50487,-17.11234 -11.63486,-27.41421 -11.26923,-39.66877 -0.17214,-17.12533 3.12685,-40.59886 1.91325,-60.16064 -1.10557,-17.82038 -8.57389,-37.01916 -32.54767,-48.76516 4.8269,16.79213 11.71093,31.53336 13.51666,51.33045 1.75322,19.22131 -2.27692,36.69978 -2.74672,57.80873 1.55797,23.27382 14.69553,40.47133 17.19823,59.28902 1.30312,9.79805 0.97218,17.30475 -2.4501,27.9246 z"
       style="fill:#1b191e;fill-opacity:1;fill-rule:evenodd;stroke:none;stroke-width:1px;stroke-linecap:butt;stroke-linejoin:miter;stroke-opacity:1" />
    <path
       sodipodi:nodetypes="cccscsscc"
       inkscape:connector-curvature="0"
       id="path4407"
       d="m 683.49436,730.27147 c 4.77626,-16.96313 2.84765,-26.03947 -1.97391,-38.10564 -2.58714,-6.6213 -4.68567,-7.41902 -5.80889,-17.13594 -1.88016,-21.15334 2.76788,-42.94232 1.46015,-65.75966 -0.63841,-11.13896 -8.17836,-22.96868 -13.6845,-28.74593 10.70961,27.13004 7.12292,44.49568 6.1636,59.12889 -0.10087,1.5386 -0.0129,3.08521 -0.21864,4.61335 -2.09943,15.59202 -3.33212,24.07347 -0.18487,37.58542 4.15837,14.23237 12.24234,27.37422 14.24706,48.41951 z"
       style="fill:#e4b11e;fill-opacity:1;fill-rule:evenodd;stroke:none;stroke-width:1px;stroke-linecap:butt;stroke-linejoin:miter;stroke-opacity:1" />
    <path
       style="fill:#1b191e;fill-opacity:1;fill-rule:evenodd;stroke:none;stroke-width:1px;stroke-linecap:butt;stroke-linejoin:miter;stroke-opacity:1"
       d="m 566.38989,608.72182 c -3.20448,0.61017 -3.71869,0.26015 -5.4709,0.33377 -2.52193,0.10595 -4.06755,3.24194 -4.02013,5.9305 0.036,2.04249 0.83674,3.23258 1.92506,8.41079 l 0.11147,31.71617 c -7.7077,9.07125 -20.99637,47.683 0.68738,69.03942 2.71755,2.54511 5.51253,4.37676 8.45787,4.90415 2.68031,0.47993 4.58448,0.3301 7.56877,-1.79539 1.2325,-0.91364 3.25276,-2.65878 4.36025,-3.86629 3.66471,-4.23956 9.93801,-4.73956 14.75808,-5.27893 6.0539,-0.37771 11.0284,-0.34495 15.42988,-0.0867 10.18235,0.47185 14.48458,1.36967 16.97803,2.94182 3.18347,2.00721 5.90774,4.14574 8.92731,6.94241 2.43384,2.2216 4.46152,2.10346 6.52207,2.11452 4.87771,0.0262 9.09842,-3.42946 12.51207,-7.48479 3.21145,-3.86787 5.76734,-8.45871 7.30263,-12.68112 7.54174,-20.7415 -1.58317,-46.52323 -9.15789,-55.57503 l 2.41033,-35.93764 c 1.30188,-2.95814 1.68289,-6.83438 -1.46088,-9.02286 -0.90893,-0.63273 -2.61992,-0.21117 -4.56493,-0.60142 -23.79232,-21.29189 -57.35043,-23.58056 -83.27667,-0.003 z"
       id="path4409"
       inkscape:connector-curvature="0"
       sodipodi:nodetypes="csscccsccccscscsccsccc" />
    <path
       style="fill:#ec6410;fill-opacity:1;fill-rule:evenodd;stroke:none;stroke-width:1px;stroke-linecap:butt;stroke-linejoin:miter;stroke-opacity:1"
       d="m 566.94204,654.83808 c -6.49215,7.86823 -11.46674,17.42151 -13.46528,28.56974 -2.27286,12.67845 0.21242,24.79025 9.16303,36.08018 0.0765,-7.47787 0.56924,-14.95575 3.72873,-22.43362 -4.11685,-10.6779 -3.89708,-24.77253 0.57352,-42.2163 z"
       id="path4411"
       inkscape:connector-curvature="0"
       sodipodi:nodetypes="csccc" />
    <path
       style="fill:#e4b11e;fill-opacity:1;fill-rule:evenodd;stroke:none;stroke-width:1px;stroke-linecap:butt;stroke-linejoin:miter;stroke-opacity:1"
       d="m 566.37596,722.91382 c -0.28174,-14.97541 2.81482,-27.20596 8.41836,-37.39959 1.76546,9.7743 -0.14298,21.10877 6.48627,30.08528 -1.13444,2.7402 -8.58349,8.68816 -14.90463,7.31431 z"
       id="path4413"
       inkscape:connector-curvature="0"
       sodipodi:nodetypes="cccc" />
    <path
       style="fill:#e4b11e;fill-opacity:1;fill-rule:evenodd;stroke:none;stroke-width:1px;stroke-linecap:butt;stroke-linejoin:miter;stroke-opacity:1"
       d="m 572.0342,614.99325 c -1.0257,-1.18082 -5.77915,-3.31178 -10.48844,-1.51806 0.91102,10.48805 3.0107,21.02779 12.28252,31.87935 -0.84272,-10.24277 -1.67114,-20.4784 -1.79408,-30.36129 z"
       id="path4415"
       inkscape:connector-curvature="0"
       sodipodi:nodetypes="cccc" />
    <path
       sodipodi:nodetypes="csccc"
       inkscape:connector-curvature="0"
       id="path4417"
       d="m 645.08064,654.40623 c 7.28083,8.83922 13.75309,19.32029 14.76808,29.6836 1.44694,14.77354 -2.55735,28.70601 -11.30059,36.82319 -0.0765,-7.47787 0.24506,-13.12358 -2.91443,-20.60145 5.23757,-11.57448 4.70352,-29.09035 -0.55306,-45.90534 z"
       style="fill:#ec6410;fill-opacity:1;fill-rule:evenodd;stroke:none;stroke-width:1px;stroke-linecap:butt;stroke-linejoin:miter;stroke-opacity:1" />
    <path
       sodipodi:nodetypes="cccc"
       inkscape:connector-curvature="0"
       id="path4419"
       d="m 644.40481,725.76386 c 0.28174,-14.97541 -0.77908,-22.32018 -6.38262,-32.51381 -2.78305,12.82706 -0.44254,18.38669 -6.48627,25.60665 1.41633,2.45831 7.30357,7.52519 12.86889,6.90716 z"
       style="fill:#e4b11e;fill-opacity:1;fill-rule:evenodd;stroke:none;stroke-width:1px;stroke-linecap:butt;stroke-linejoin:miter;stroke-opacity:1" />
    <path
       sodipodi:nodetypes="csccssc"
       inkscape:connector-curvature="0"
       id="path4421"
       d="m 642.18093,615.28853 c 0.20719,-0.23853 0.55927,-0.52787 1.02805,-0.82299 1.85191,-1.16584 5.17087,-2.24457 8.92888,-0.81318 -0.91102,10.48805 -3.30597,20.96873 -12.57779,31.82029 0.96949,-9.06996 1.45833,-18.13593 0.98496,-25.03282 -0.0251,-0.36509 0.0679,-0.80382 0.0879,-1.28445 0.0761,-1.82758 1.14832,-3.51503 1.548,-3.86685 z"
       style="fill:#e4b11e;fill-opacity:1;fill-rule:evenodd;stroke:none;stroke-width:1px;stroke-linecap:butt;stroke-linejoin:miter;stroke-opacity:1" />
    <path
       style="fill:#e4b11e;fill-opacity:1;fill-rule:evenodd;stroke:none;stroke-width:1px;stroke-linecap:butt;stroke-linejoin:miter;stroke-opacity:1"
       d="m 579.89926,632.7521 c -2.05468,-2.53565 -3.68007,-5.40726 -4.54541,-8.87369 -0.79283,-3.17597 0.0393,-6.94098 -0.38951,-11.31467 7.53298,-1.46097 15.02667,0.23208 21.62315,1.70845 3.79158,0.84859 7.29009,1.53384 10.32256,1.6909 6.19949,0.3211 18.31793,-7.07643 31.75976,-6.0014 0.70453,2.29785 1.41975,13.65297 -7.35753,20.81644 0.43485,-3.37543 0.21579,-5.9033 -1.27797,-6.97887 -3.16463,-2.27868 -9.65789,2.65038 -21.06381,3.65901 -8.07995,-0.019 -14.33577,-1.27448 -20.89284,-3.06355 -3.3852,-0.92364 -6.10303,-1.55367 -7.34089,-0.6301 -1.47382,1.09963 -1.17666,5.52724 -0.83751,8.98748 z"
       id="path4423"
       inkscape:connector-curvature="0"
       sodipodi:nodetypes="cscssccscssc" />
    <path
       style="color:#000000;font-style:normal;font-variant:normal;font-weight:normal;font-stretch:normal;font-size:medium;line-height:normal;font-family:sans-serif;text-indent:0;text-align:start;text-decoration:none;text-decoration-line:none;text-decoration-style:solid;text-decoration-color:#000000;letter-spacing:normal;word-spacing:normal;text-transform:none;direction:ltr;block-progression:tb;writing-mode:lr-tb;baseline-shift:baseline;text-anchor:start;white-space:normal;clip-rule:nonzero;display:inline;overflow:visible;visibility:visible;opacity:1;isolation:auto;mix-blend-mode:normal;color-interpolation:sRGB;color-interpolation-filters:linearRGB;solid-color:#000000;solid-opacity:1;fill:#e4b11e;fill-opacity:1;fill-rule:evenodd;stroke:none;stroke-width:2;stroke-linecap:round;stroke-linejoin:miter;stroke-miterlimit:4;stroke-dasharray:none;stroke-dashoffset:0;stroke-opacity:1;color-rendering:auto;image-rendering:auto;shape-rendering:auto;text-rendering:auto;enable-background:accumulate"
       d="m 588.89648,644.30664 c -1.8745,0.12502 -3.57865,0.45794 -5.04101,1.2168 -1.46236,0.75885 -2.65344,1.97291 -3.39258,3.66406 -1.62096,3.70873 -1.787,8.68719 -2.39648,13.60352 -0.60949,4.91632 -1.63306,9.69774 -4.50977,12.96093 a 1.0001,1.0001 0 1 0 1.5,1.32227 c 3.35207,-3.80242 4.37159,-9.01544 4.99414,-14.03711 0.62255,-5.02167 0.87888,-9.92513 2.24414,-13.04883 0.5729,-1.31078 1.37831,-2.1165 2.48242,-2.68945 1.10412,-0.57295 2.53687,-0.88171 4.25196,-0.9961 1.23856,-0.0826 2.04825,0.0407 2.9414,0.42383 0.89316,0.38318 1.89177,1.07208 3.29102,2.16016 0.70747,0.55013 1.93179,2.33521 3.51758,3.60547 1.82475,1.46167 4.3344,2.15048 6.80273,2.2207 2.4533,0.0698 4.88695,-0.46622 6.61719,-1.79492 1.36771,-0.88098 2.09864,-2.1387 2.84375,-3.16016 0.7547,-1.0346 1.46955,-1.85024 2.87109,-2.3125 1.91419,-0.63133 3.71057,-1.0794 5.90039,-0.80664 1.58416,0.19732 2.70274,0.40176 3.72657,1.45313 1.02382,1.05136 2.03512,3.15083 2.80664,7.31445 l 0.006,0.0312 0.008,0.0293 c 0.88772,3.53399 1.48242,7.4684 2.04883,10.59961 0.88568,5.55677 1.73605,11.03917 4.4375,15.61132 a 1.0001,1.0001 0 1 0 1.7207,-1.01757 c -2.43742,-4.12528 -3.30071,-9.3644 -4.1875,-14.92774 l 0,-0.0117 -0.002,-0.01 c -0.55574,-3.0722 -1.154,-7.03702 -2.07032,-10.69532 -0.80472,-4.32721 -1.87016,-6.81315 -3.33593,-8.31835 -1.4693,-1.50882 -3.25905,-1.83707 -4.91211,-2.04297 -2.59694,-0.32348 -4.76957,0.22971 -6.77344,0.89062 -1.91071,0.63019 -3.03178,1.89794 -3.86133,3.03516 -0.82955,1.13722 -1.43264,2.11527 -2.33594,2.68359 l -0.041,0.0273 -0.0391,0.0293 c -1.18101,0.91825 -3.25085,1.4529 -5.3711,1.39258 -2.12025,-0.0603 -4.26354,-0.7032 -5.60937,-1.78125 -1.2194,-0.97676 -2.27451,-2.63973 -3.53907,-3.62305 -1.43533,-1.11613 -2.54799,-1.91261 -3.73046,-2.41992 -1.18248,-0.5073 -2.41265,-0.67878 -3.86329,-0.58203 z"
       id="path4425"
       inkscape:connector-curvature="0" />
    <path
       style="fill:#e4b11e;fill-opacity:1;fill-rule:evenodd;stroke:none;stroke-width:1px;stroke-linecap:butt;stroke-linejoin:round;stroke-opacity:1"
       d="m 580.08712,683.49223 -0.11045,8.33902 c 0.0452,1.69316 1.2117,3.00379 2.41563,4.05478 11.96433,10.39445 31.86218,9.38083 45.59803,0.80421 2.35078,-1.38302 5.23381,-3.49043 5.60308,-6.38187 l -0.0494,-6.2207 -11.57792,-0.3308 c -3.92653,0.79249 -5.34484,4.57474 -9.46078,8.97857 -2.22191,2.37732 -5.45319,3.05051 -7.6014,3.02646 -4.01137,-0.0449 -6.24452,-0.51327 -7.15843,-3.13792 -0.68056,-5.93522 -1.93476,-8.05131 -7.07287,-8.73479 z"
       id="path4427"
       inkscape:connector-curvature="0"
       sodipodi:nodetypes="cccccccssccc" />
    <path
       inkscape:connector-curvature="0"
       id="path4429"
       style="font-style:normal;font-variant:normal;font-weight:normal;font-stretch:condensed;font-size:medium;line-height:125%;font-family:Impact;-inkscape-font-specification:'Impact Condensed';letter-spacing:0px;word-spacing:0px;fill:#ffffff;fill-opacity:1;stroke:none;stroke-width:1;stroke-linecap:butt;stroke-linejoin:round;stroke-miterlimit:4;stroke-dasharray:none;stroke-opacity:1"
       d="m 369.33911,223.977 -10.65252,2.41474 c -0.70352,-2.10945 -1.27704,-4.34315 -1.80798,-6.24209 -1.60744,-10.13485 -8.87194,-6.30723 -9.46229,-3.45559 -1.01165,3.24602 0.60856,11.61778 6.9807,14.25252 7.43315,3.26711 14.73352,6.51525 16.91489,9.0796 7.15578,10.31296 11.8677,27.31941 0.61129,33.27359 -5.68275,3.11579 -13.2604,3.88491 -19.03112,-0.20841 -2.80551,-3.20395 -5.70241,-8.99985 -7.55566,-18.21361 l 10.98493,-2.58096 c 0.9189,5.91267 1.83418,8.16129 3.00925,10.20131 2.97855,5.32414 8.57333,1.41913 8.15883,-2.40783 -1.45161,-12.26981 -7.47773,-16.21053 -15.58456,-17.85763 -4.82415,-1.24 -8.59705,-3.46441 -10.91425,-6.64335 -2.06579,-2.83404 -3.67528,-6.24198 -4.5716,-10.53293 -2.34644,-11.27794 0.81889,-19.45821 12.32107,-21.40491 6.4558,-0.72197 12.91627,0.16247 16.03622,5.59035 2.44506,4.33548 4.04628,12.15135 4.5628,14.7352 z"
       sodipodi:nodetypes="cccccccccccccscccc" />
    <path
       inkscape:connector-curvature="0"
       id="path4431"
       style="font-style:normal;font-variant:normal;font-weight:normal;font-stretch:condensed;font-size:medium;line-height:125%;font-family:Impact;-inkscape-font-specification:'Impact Condensed';letter-spacing:0px;word-spacing:0px;fill:#ffffff;fill-opacity:1;stroke:none;stroke-width:1;stroke-linecap:butt;stroke-linejoin:round;stroke-miterlimit:4;stroke-dasharray:none;stroke-opacity:1"
       d="m 384.4924,196.3082 15.87164,69.33719 -11.22934,2.36569 -16.50225,-69.33719 z"
       sodipodi:nodetypes="ccccc" />
    <path
       inkscape:connector-curvature="0"
       id="path4433"
       style="font-style:normal;font-variant:normal;font-weight:normal;font-stretch:condensed;font-size:medium;line-height:125%;font-family:Impact;-inkscape-font-specification:'Impact Condensed';letter-spacing:0px;word-spacing:0px;fill:#ffffff;fill-opacity:1;stroke:none;stroke-width:1;stroke-linecap:butt;stroke-linejoin:round;stroke-miterlimit:4;stroke-dasharray:none;stroke-opacity:1"
       d="m 414.19497,190.05331 c 8.67289,-0.76476 12.39226,3.5407 14.78497,17.31458 1.68156,9.68005 2.56336,14.12456 -5.02995,19.29976 l 18.14122,30.36593 -12.24115,1.94811 -16.04327,-28.78097 6.07476,30.85799 -10.54386,2.58246 -15.30917,-69.66072 z m -6.83274,11.75441 4.01556,19.44078 c 3.85443,-0.3428 6.73791,-1.31484 7.41952,-3.70049 0.53804,-1.79882 -0.28417,-4.23327 -0.74595,-6.97021 -2.00437,-11.8798 -4.19001,-10.46625 -10.68913,-8.77008 z"
       sodipodi:nodetypes="cscccccccccccsc" />
    <path
       inkscape:connector-curvature="0"
       id="path4435"
       style="font-style:normal;font-variant:normal;font-weight:normal;font-stretch:condensed;font-size:medium;line-height:125%;font-family:Impact;-inkscape-font-specification:'Impact Condensed';letter-spacing:0px;word-spacing:0px;fill:#ffffff;fill-opacity:1;stroke:none;stroke-width:1;stroke-linecap:butt;stroke-linejoin:round;stroke-miterlimit:4;stroke-dasharray:none;stroke-opacity:1"
       d="m 458.51526,181.75941 21.7851,69.68595 -11.95283,0.95008 -3.99665,-14.47868 -9.97481,1.49564 0.32212,15.62617 -11.24822,1.35769 -0.37924,-71.784 z m -5.45007,19.12476 0.3098,27.91038 8.58627,-1.20292 z"
       sodipodi:nodetypes="ccccccccccccc" />
    <path
       inkscape:connector-curvature="0"
       id="path4437"
       style="font-style:normal;font-variant:normal;font-weight:normal;font-stretch:condensed;font-size:medium;line-height:125%;font-family:Impact;-inkscape-font-specification:'Impact Condensed';letter-spacing:0px;word-spacing:0px;fill:#ffffff;fill-opacity:1;stroke:none;stroke-width:1;stroke-linecap:butt;stroke-linejoin:round;stroke-miterlimit:4;stroke-dasharray:none;stroke-opacity:1"
       d="m 498.7887,200.52803 c -0.53065,-3.34875 -0.56034,-7.61883 -1.38456,-10.44712 -0.48909,-1.67828 -1.12373,-2.93837 -2.73723,-3.3709 -1.79066,-0.40311 -5.72234,-0.7124 -6.24893,3.19028 -0.16405,1.12687 -0.0426,3.47425 0.36432,7.04212 l 3.73182,32.71999 c 0.92427,7.27228 2.40021,9.42159 4.97514,9.47902 1.37949,0.10749 2.42297,-0.0962 3.12002,-0.64816 3.13511,-2.48245 1.00501,-10.3629 0.85187,-13.99151 l 10.84898,-1.17423 c 0.63826,5.31152 1.28798,6.61608 1.01407,13.03841 -0.36878,3.17978 -1.37105,5.84948 -3.60598,8.60829 -1.0667,1.56913 -3.99829,2.94896 -7.43475,3.76609 -4.50016,1.07007 -9.86612,1.1752 -13.04372,-0.5231 -2.67703,-1.48389 -4.60974,-3.86257 -5.79811,-7.13604 -1.1917,-3.30246 -2.18124,-8.40554 -2.96862,-15.30923 l -2.34726,-20.58053 c -0.57896,-5.07624 -0.88959,-8.89915 -0.93188,-11.46873 -0.3439,-10.69392 3.43077,-15.78877 12.99937,-17.67589 6.49536,-0.94177 14.91897,1.0492 17.55308,8.28758 1.13153,2.95823 1.50715,8.63463 2.25816,15.21924 z"
       sodipodi:nodetypes="csccsccsccccsccssccccc" />
    <path
       inkscape:connector-curvature="0"
       id="path4439"
       style="font-style:normal;font-variant:normal;font-weight:normal;font-stretch:condensed;font-size:medium;line-height:125%;font-family:Impact;-inkscape-font-specification:'Impact Condensed';letter-spacing:0px;word-spacing:0px;fill:#ffffff;fill-opacity:1;stroke:none;stroke-width:1;stroke-linecap:butt;stroke-linejoin:round;stroke-miterlimit:4;stroke-dasharray:none;stroke-opacity:1"
       d="m 548.53356,172.67563 2.84551,47.41646 c 0.32173,5.36114 0.39045,9.14694 0.24585,11.35505 -0.14621,2.17897 -0.21714,4.47493 -1.4136,6.8879 -1.19813,2.38383 -2.85524,4.26424 -4.97131,5.64124 -2.09523,1.34599 -4.61816,2.14203 -7.56879,2.38812 -3.26595,0.27239 -6.18924,-0.18653 -8.76987,-1.37677 -2.58063,-1.19026 -4.55489,-2.85565 -5.9228,-4.99617 -1.36791,-2.14053 -2.23574,-4.43988 -2.60348,-6.89806 -0.36943,-2.48733 -0.78384,-7.7233 -1.24323,-15.70791 l -2.40928,-41.87546 11.20383,-1.18633 3.05308,53.06557 c 0.2116,4.10537 1.28883,8.11165 5.63613,8.01534 4.43056,-0.36598 3.78247,-5.70729 3.5935,-9.27425 l -3.00028,-52.14762 c 4.0163,-0.39751 7.30883,-0.90556 11.32474,-1.30711 z"
       sodipodi:nodetypes="cscccssscsccccccc" />
    <path
       inkscape:connector-curvature="0"
       id="path4441"
       style="font-style:normal;font-variant:normal;font-weight:normal;font-stretch:condensed;font-size:medium;line-height:125%;font-family:Impact;-inkscape-font-specification:'Impact Condensed';letter-spacing:0px;word-spacing:0px;fill:#ffffff;fill-opacity:1;stroke:none;stroke-width:1;stroke-linecap:butt;stroke-linejoin:round;stroke-miterlimit:4;stroke-dasharray:none;stroke-opacity:1"
       d="m 753.77606,183.13566 -10.04895,60.63283 16.07493,2.40133 -1.32284,10.43945 -27.20977,-4.43082 10.97496,-70.67543 z"
       sodipodi:nodetypes="ccccccc" />
    <path
       inkscape:connector-curvature="0"
       id="path4443"
       style="font-style:normal;font-variant:normal;font-weight:normal;font-stretch:condensed;font-size:medium;line-height:125%;font-family:Impact;-inkscape-font-specification:'Impact Condensed';letter-spacing:0px;word-spacing:0px;fill:#ffffff;fill-opacity:1;stroke:none;stroke-width:1;stroke-linecap:butt;stroke-linejoin:miter;stroke-miterlimit:4;stroke-dasharray:none;stroke-opacity:1"
       d="m 853.04794,266.41439 c -3.44181,6.90039 -8.3331,10.71914 -18.37461,8.41052 -5.79665,-1.08107 -9.2516,-4.41521 -10.36855,-7.49818 -1.52645,-4.21326 -0.12008,-11.70785 1.26855,-16.75322 0.90581,-4.33881 1.90864,-7.15322 3.51637,-13.64903 l 2.67205,-10.79605 c 1.56915,-6.3399 2.79085,-10.78081 3.66509,-13.32274 1.79934,-6.02821 5.52598,-9.1902 10.27063,-9.62567 7.29328,-0.4181 17.59999,2.80165 19.54926,9.52265 0.74043,2.68045 0.91167,5.36476 0.51372,8.05295 -0.39793,2.68821 -2.5435,9.81962 -4.15124,16.31542 -2.95282,8.75794 -4.67794,18.22338 -8.56127,29.34335 z m 1.54809,-47.18601 c 1.4893,-5.5844 -7.55829,-8.02436 -8.86992,-2.37178 l -11.10179,42.03508 c -1.93182,7.06191 6.27731,8.01856 8.0969,2.53895 z"
       sodipodi:nodetypes="ccscsscccsccccccc" />
    <path
       inkscape:connector-curvature="0"
       id="path4445"
       style="font-style:normal;font-variant:normal;font-weight:normal;font-stretch:condensed;font-size:medium;line-height:125%;font-family:Impact;-inkscape-font-specification:'Impact Condensed';letter-spacing:0px;word-spacing:0px;fill:#ffffff;fill-opacity:1;stroke:none;stroke-width:1;stroke-linecap:butt;stroke-linejoin:round;stroke-miterlimit:4;stroke-dasharray:none;stroke-opacity:1"
       d="m 589.8396,194.96052 -10.92266,-0.052 c -0.20928,-2.2138 -0.26379,-4.51931 -0.35241,-6.48909 0.72159,-10.23612 -7.21938,-8.14696 -8.43814,-5.50216 -1.71821,2.93392 -2.02941,11.45534 3.5836,15.46035 6.50391,4.86055 12.88274,9.67264 14.42902,12.66318 4.64337,11.66197 5.39514,29.29309 -6.91471,32.55291 -6.23938,1.75273 -13.79508,0.79163 -18.49297,-4.49857 -2.00994,-3.7545 -3.52389,-10.0547 -3.24966,-19.44899 l 11.28401,-0.0349 c -0.43937,5.9675 -0.0553,8.36468 0.62904,10.61728 1.69996,5.85904 8.03178,3.31761 8.49176,-0.50415 1.35528,-12.28083 -3.62586,-17.48001 -11.15172,-20.91441 -4.41978,-2.29687 -7.59324,-5.31546 -9.13312,-8.93539 -1.37281,-3.22717 -2.17155,-6.91045 -2.07622,-11.29298 0.25967,-11.51652 5.18969,-18.77124 16.83444,-18.07154 6.45215,0.75381 12.54628,3.07363 14.36059,9.06565 1.4034,4.77548 1.19917,12.75107 1.11915,15.38482 z"
       sodipodi:nodetypes="cccccccccccccscccc" />
    <path
       inkscape:connector-curvature="0"
       id="path4447"
       style="font-style:normal;font-variant:normal;font-weight:normal;font-stretch:condensed;font-size:medium;line-height:125%;font-family:Impact;-inkscape-font-specification:'Impact Condensed';letter-spacing:0px;word-spacing:0px;fill:#ffffff;fill-opacity:1;stroke:none;stroke-width:1;stroke-linecap:butt;stroke-linejoin:round;stroke-miterlimit:4;stroke-dasharray:none;stroke-opacity:1"
       d="m 622.73666,171.09276 9.14858,72.43635 -11.93295,-1.17367 -1.37946,-14.95669 -10.08222,-0.28769 -2.43987,15.43788 -11.31131,-0.64815 12.29164,-70.72483 z m -8.73878,17.86319 -4.61932,27.5272 8.66381,0.33084 z"
       sodipodi:nodetypes="ccccccccccccc" />
    <path
       inkscape:connector-curvature="0"
       id="path4449"
       style="font-style:normal;font-variant:normal;font-weight:normal;font-stretch:condensed;font-size:medium;line-height:125%;font-family:Impact;-inkscape-font-specification:'Impact Condensed';letter-spacing:0px;word-spacing:0px;fill:#ffffff;fill-opacity:1;stroke:none;stroke-width:1;stroke-linecap:butt;stroke-linejoin:round;stroke-miterlimit:4;stroke-dasharray:none;stroke-opacity:1"
       d="m 678.80323,198.1294 c 0.11866,-3.38845 0.90608,-7.58548 0.63758,-10.51916 -0.15934,-1.74081 -0.54146,-3.09897 -2.04255,-3.83189 -1.68061,-0.73791 -5.48071,-1.7929 -6.74346,1.93721 -0.37638,1.07474 -0.70579,3.40206 -0.98825,6.98194 l -2.59028,32.83008 c -0.4826,7.31489 0.55536,9.70665 3.07185,10.25513 1.33352,0.36915 2.39669,0.36864 3.18638,-0.0399 3.55176,-1.83753 2.967,-9.97982 3.51017,-13.57082 l 10.87342,0.92083 c -0.38862,5.3356 -2e-4,6.74029 -1.49647,12.99188 -0.96969,3.0507 -2.4637,5.47964 -5.18469,7.76047 -1.34692,1.33634 -4.48819,2.13046 -8.01747,2.27577 -4.62172,0.1903 -9.90886,-0.73203 -12.70332,-3.00632 -2.34408,-1.96817 -3.78657,-4.67237 -4.32743,-8.11262 -0.53857,-3.46934 -0.5346,-8.66747 0.0119,-15.59438 l 1.62927,-20.64979 c 0.40186,-5.09331 0.82758,-8.90513 1.27715,-11.43543 1.70622,-10.56252 6.38501,-14.84206 16.1379,-14.86569 6.55562,0.31697 14.44346,3.88111 15.64565,11.48949 0.5453,3.11995 -0.17085,8.76351 -0.6921,15.37028 z"
       sodipodi:nodetypes="csccsccsccccsccssccccc" />
    <path
       inkscape:connector-curvature="0"
       id="path4451"
       style="font-style:normal;font-variant:normal;font-weight:normal;font-stretch:condensed;font-size:medium;line-height:125%;font-family:Impact;-inkscape-font-specification:'Impact Condensed';letter-spacing:0px;word-spacing:0px;fill:#ffffff;fill-opacity:1;stroke:none;stroke-width:1;stroke-linecap:butt;stroke-linejoin:round;stroke-miterlimit:4;stroke-dasharray:none;stroke-opacity:1"
       d="m 724.06487,178.97357 2.43621,72.97113 -11.77407,-2.26804 0.004,-15.02017 -10.01284,-1.21533 -3.85176,15.14745 -11.2035,-1.68749 18.75515,-69.29164 z m -10.34733,16.98213 -7.13571,26.98456 8.59648,1.12762 z"
       sodipodi:nodetypes="ccccccccccccc" />
    <path
       inkscape:connector-curvature="0"
       id="path4453"
       style="font-style:normal;font-variant:normal;font-weight:normal;font-stretch:condensed;font-size:medium;line-height:125%;font-family:Impact;-inkscape-font-specification:'Impact Condensed';letter-spacing:0px;word-spacing:0px;fill:#ffffff;fill-opacity:1;stroke:none;stroke-width:1;stroke-linecap:butt;stroke-linejoin:round;stroke-miterlimit:4;stroke-dasharray:none;stroke-opacity:1"
       d="m 792.23752,214.67827 c 0.50292,-3.35303 1.76214,-7.4334 1.82872,-10.37859 0.0395,-1.74764 -0.18582,-3.14042 -1.59391,-4.03916 -1.58588,-0.9241 -5.24149,-2.40405 -6.91991,1.15842 -0.49606,1.02501 -1.08778,3.29983 -1.77519,6.82443 l -6.30391,32.32312 c -1.31065,7.21268 -0.55118,9.70689 1.88669,10.53776 1.28294,0.51828 2.33928,0.63858 3.17028,0.32242 3.73755,-1.42205 4.08177,-9.57805 5.02945,-13.08408 l 10.69837,2.15039 c -0.99237,5.25689 -0.76608,6.69662 -2.96302,12.7377 -1.31005,2.92076 -3.07038,5.1642 -6.03291,7.12108 -1.49004,1.17464 -4.7012,1.60668 -8.22413,1.35003 -4.61342,-0.33609 -9.76151,-1.85321 -12.27945,-4.4303 -2.10526,-2.22178 -3.23113,-5.07237 -3.37758,-8.5518 -0.14087,-3.50806 0.45372,-8.67208 1.78377,-15.49202 l 3.96511,-20.33092 c 0.978,-5.01466 1.83409,-8.75342 2.56826,-11.21625 2.89536,-10.30024 8.03012,-14.02042 17.72253,-12.9357 6.47715,1.05982 13.90892,5.49715 14.2388,13.19286 0.18725,3.1617 -1.16552,8.68734 -2.43411,15.19209 z"
       sodipodi:nodetypes="csccsccsccccsccssccccc" />
    <path
       inkscape:connector-curvature="0"
       id="path4455"
       style="font-style:normal;font-variant:normal;font-weight:normal;font-stretch:condensed;font-size:medium;line-height:125%;font-family:Impact;-inkscape-font-specification:'Impact Condensed';letter-spacing:0px;word-spacing:0px;fill:#ffffff;fill-opacity:1;stroke:none;stroke-width:1;stroke-linecap:butt;stroke-linejoin:round;stroke-miterlimit:4;stroke-dasharray:none;stroke-opacity:1"
       d="m 828.62215,198.59125 -16.57854,68.70669 -10.9088,-2.36728 16.20214,-69.17692 z"
       sodipodi:nodetypes="ccccc" />
  </g>
</svg>
