<?xml version="1.0" encoding="UTF-8"?>
<svg id="Layer_2" data-name="Layer 2" xmlns="http://www.w3.org/2000/svg" xmlns:xlink="http://www.w3.org/1999/xlink" viewBox="0 0 33.56 19.58">
  <defs>
    <style>
      .cls-1 {
        clip-path: url(#clippath);
      }

      .cls-2 {
        fill: none;
      }

      .cls-2, .cls-3, .cls-4, .cls-5 {
        stroke-width: 0px;
      }

      .cls-6 {
        clip-path: url(#clippath-1);
      }

      .cls-7 {
        clip-path: url(#clippath-4);
      }

      .cls-8 {
        clip-path: url(#clippath-3);
      }

      .cls-9 {
        clip-path: url(#clippath-2);
      }

      .cls-10 {
        clip-path: url(#clippath-7);
      }

      .cls-11 {
        clip-path: url(#clippath-8);
      }

      .cls-12 {
        clip-path: url(#clippath-6);
      }

      .cls-13 {
        clip-path: url(#clippath-5);
      }

      .cls-14 {
        clip-path: url(#clippath-9);
      }

      .cls-15 {
        clip-path: url(#clippath-12);
      }

      .cls-16 {
        clip-path: url(#clippath-10);
      }

      .cls-17 {
        clip-path: url(#clippath-11);
      }

      .cls-3 {
        fill: #2534a4;
      }

      .cls-4 {
        fill: #bc0030;
      }

      .cls-5 {
        fill: #fff;
      }
    </style>
    <clipPath id="clippath">
      <rect class="cls-2" width="33.56" height="19.58"/>
    </clipPath>
    <clipPath id="clippath-1">
      <rect class="cls-2" width="33.56" height="19.58"/>
    </clipPath>
    <clipPath id="clippath-2">
      <rect class="cls-2" width="33.56" height="19.58"/>
    </clipPath>
    <clipPath id="clippath-3">
      <rect class="cls-2" width="33.56" height="19.58"/>
    </clipPath>
    <clipPath id="clippath-4">
      <rect class="cls-2" width="33.56" height="19.58"/>
    </clipPath>
    <clipPath id="clippath-5">
      <rect class="cls-2" width="33.56" height="19.58"/>
    </clipPath>
    <clipPath id="clippath-6">
      <rect class="cls-2" width="33.56" height="19.58"/>
    </clipPath>
    <clipPath id="clippath-7">
      <rect class="cls-2" width="33.56" height="19.58"/>
    </clipPath>
    <clipPath id="clippath-8">
      <rect class="cls-2" width="33.56" height="19.58"/>
    </clipPath>
    <clipPath id="clippath-9">
      <rect class="cls-2" width="33.56" height="19.58"/>
    </clipPath>
    <clipPath id="clippath-10">
      <rect class="cls-2" width="33.56" height="19.58"/>
    </clipPath>
    <clipPath id="clippath-11">
      <rect class="cls-2" width="33.56" height="19.58"/>
    </clipPath>
    <clipPath id="clippath-12">
      <rect class="cls-2" width="33.56" height="19.58"/>
    </clipPath>
  </defs>
  <g id="Layer_1-2" data-name="Layer 1">
    <g id="SLOVAKIA">
      <g>
        <g class="cls-1">
          <rect class="cls-5" width="33.56" height="19.58"/>
        </g>
        <g class="cls-6">
          <rect class="cls-3" y="6.53" width="33.56" height="13.05"/>
        </g>
        <g class="cls-9">
          <rect class="cls-4" y="13.05" width="33.56" height="6.53"/>
        </g>
        <g class="cls-8">
          <g>
            <g class="cls-7">
              <path class="cls-5" d="m5.07,4.6c-.39.03-.28.51-.33.78-.14,1.87-.33,3.8.24,5.63.45,1.47,1.53,2.68,2.84,3.47.32.18.63.4.99.5.38-.11.7-.34,1.04-.53,1.29-.78,2.34-1.99,2.79-3.44.58-1.85.38-3.82.23-5.72-.02-.26.02-.72-.37-.69h-7.42Z"/>
            </g>
            <g class="cls-13">
              <path class="cls-4" d="m8.81,4.89v9.79c-4.53-2.19-4.03-5.82-3.73-9.79h3.73Zm0,0v9.79c4.53-2.19,4.03-5.82,3.73-9.79h-3.73Z"/>
            </g>
            <g class="cls-12">
              <path class="cls-5" d="m9.34,7.58c.47,0,.96.09,1.43.18-.14-.45-.14-.73,0-1.19-.47.09-.95.18-1.43.18h-1.06c-.47,0-.96-.09-1.43-.18.14.45.14.73,0,1.19.47-.09.95-.18,1.43-.18h1.06Z"/>
            </g>
            <g class="cls-10">
              <path class="cls-5" d="m9.75,9.36c.48,0,.96.09,1.43.18-.14-.45-.14-.73,0-1.19-.47.09-.95.18-1.43.18h-1.88c-.48,0-.97-.09-1.43-.18.14.45.14.73,0,1.19.47-.09.95-.18,1.43-.18h1.88Z"/>
            </g>
            <g class="cls-11">
              <path class="cls-5" d="m8.21,5.27c.1.47.19.95.19,1.42v6.06h.83v-6.06c0-.48.09-.96.18-1.42-.46.14-.74.14-1.19,0"/>
            </g>
            <g class="cls-14">
              <path class="cls-3" d="m6.93,11.28c-.53,0-.97.43-.97.96,0,.04,0,.08.01.12.19.28.41.54.66.8.09.03.2.05.3.05.54,0,.97-.43.97-.97,0-.53-.43-.96-.98-.96"/>
            </g>
            <g class="cls-16">
              <path class="cls-3" d="m8.81,10.71c-.68,0-1.24.55-1.24,1.23s.55,1.23,1.24,1.23,1.24-.55,1.24-1.23-.55-1.23-1.24-1.23"/>
            </g>
            <g class="cls-17">
              <path class="cls-3" d="m10.69,11.28c-.53,0-.97.43-.97.96s.43.97.97.97c.11,0,.21-.02.3-.05.25-.26.47-.52.66-.8,0-.04.01-.08.01-.12,0-.53-.44-.96-.97-.96"/>
            </g>
            <g class="cls-15">
              <path class="cls-3" d="m6.12,12.58c.6.79,1.45,1.51,2.69,2.11,1.24-.6,2.09-1.31,2.69-2.11h-5.38Z"/>
            </g>
          </g>
        </g>
      </g>
    </g>
  </g>
</svg>