<?xml version="1.0" encoding="UTF-8"?>
<svg id="Layer_2" data-name="Layer 2" xmlns="http://www.w3.org/2000/svg" viewBox="0 0 248.19 350.39">
  <defs>
    <style>
      .cls-1 {
        fill: #00ace6;
      }

      .cls-1, .cls-2, .cls-3, .cls-4 {
        fill-rule: evenodd;
      }

      .cls-1, .cls-2, .cls-3, .cls-4, .cls-5 {
        stroke-width: 0px;
      }

      .cls-2 {
        fill: #535354;
      }

      .cls-3, .cls-5 {
        fill: #c0a678;
      }

      .cls-4 {
        fill: #fff;
      }
    </style>
  </defs>
  <g id="Ebene_1" data-name="Ebene 1">
    <g>
      <path class="cls-4" d="m7.81,147.41c.01-.1.02-.2.04-.3.13-1.13.27-2.25.42-3.37.02-.13.04-.27.06-.4,3.37-25.13,10.64-48.31,20.88-68.18,27.14,12.69,59.8,20.12,94.89,20.12s67.76-7.42,94.9-20.12c10.78,20.95,18.28,45.56,21.39,72.26-30.62,19.41-71.49,31.29-116.28,31.29s-85.66-11.89-116.28-31.3h0Z"/>
      <path class="cls-1" d="m241.06,154.03c.11,1.25.21,2.5.3,3.76,0,.12.02.23.03.35.09,1.33.18,2.66.25,4,0,.07,0,.13.01.2.07,1.38.13,2.76.18,4.14,0,.03,0,.07,0,.11.05,1.39.09,2.79.11,4.2,0,.05,0,.1,0,.15.02,1.42.04,2.85.04,4.27,0,93.08-52.96,168.99-117.89,168.99S6.2,268.27,6.2,175.19c0-1.43.01-2.85.04-4.27,0-.05,0-.1,0-.15.03-1.4.06-2.8.11-4.19,0-.04,0-.07,0-.11.05-1.41.11-2.82.19-4.22,0-.02,0-.03,0-.05.07-1.37.16-2.74.26-4.1,0-.09.01-.19.02-.28.09-1.26.19-2.53.3-3.78,30.87,19.24,71.96,31.01,116.97,31.01s86.09-11.77,116.96-31.01h0Z"/>
      <path class="cls-1" d="m124.09,6.2c.92,0,1.85.02,2.77.05.14,0,.28,0,.42.01.88.03,1.75.08,2.62.14.16.01.32.02.48.04.88.07,1.76.14,2.63.24.12.01.23.03.35.04.91.1,1.81.22,2.71.35.01,0,.03,0,.05,0,.89.13,1.77.28,2.65.44.16.03.32.06.48.09.84.16,1.67.32,2.5.5.18.04.36.08.53.12.83.19,1.66.38,2.48.59.15.04.3.08.45.12.8.21,1.6.43,2.39.66.09.03.19.05.28.08.81.24,1.62.5,2.43.76.19.06.37.12.56.18.78.26,1.55.53,2.32.82.21.08.43.16.64.24.76.29,1.53.58,2.29.89.19.08.37.15.56.23.69.29,1.38.58,2.06.88.19.08.38.17.56.25.7.32,1.4.65,2.1.98.24.11.47.23.71.34.7.34,1.39.69,2.08,1.05.26.14.52.27.78.41.69.37,1.37.74,2.06,1.12.24.13.47.27.7.4.56.32,1.12.65,1.68.99.29.18.59.35.88.53.59.36,1.18.73,1.76,1.11.28.18.55.35.83.53.61.4,1.21.8,1.82,1.22.32.22.64.44.96.67.52.37,1.05.74,1.57,1.12.37.27.75.55,1.12.83.39.29.78.58,1.16.88.47.36.95.73,1.42,1.11.39.31.77.62,1.16.93.35.28.69.56,1.03.85.52.44,1.05.88,1.57,1.33.36.31.71.62,1.06.93.32.29.65.58.97.87.54.49,1.09.99,1.62,1.49.26.24.52.49.77.73.64.61,1.27,1.22,1.9,1.85.18.18.36.35.53.53,1.26,1.27,2.5,2.56,3.72,3.9.11.12.21.24.32.35.75.83,1.5,1.67,2.24,2.52.05.06.1.12.16.18,6.71,7.77,12.82,16.57,18.21,26.23-26.49,12.2-58.14,19.31-92.09,19.31s-65.61-7.11-92.09-19.31c4.72-8.47,10-16.28,15.75-23.31.04-.05.09-.11.13-.16.74-.9,1.48-1.79,2.24-2.66.11-.13.23-.26.34-.4.68-.78,1.36-1.55,2.05-2.3.15-.17.3-.33.45-.49.61-.67,1.23-1.32,1.85-1.97.22-.23.44-.46.66-.68.37-.38.74-.76,1.12-1.14.25-.25.51-.51.77-.76.57-.56,1.14-1.12,1.72-1.67.27-.25.53-.51.8-.76.5-.47,1-.93,1.51-1.39.36-.33.73-.66,1.1-.98.34-.3.69-.61,1.04-.91.52-.45,1.05-.9,1.57-1.33.33-.28.67-.55,1.01-.83.4-.33.81-.65,1.21-.97.45-.36.9-.71,1.36-1.06.4-.31.81-.62,1.21-.92.36-.27.72-.54,1.08-.8.54-.39,1.07-.77,1.61-1.15.3-.21.6-.42.9-.63.63-.43,1.26-.85,1.89-1.27.25-.17.5-.33.76-.49.59-.38,1.19-.76,1.79-1.13.28-.17.57-.35.85-.52.57-.35,1.15-.69,1.73-1.02.22-.13.45-.26.67-.39.7-.4,1.41-.78,2.12-1.16.22-.12.45-.24.67-.35.71-.37,1.42-.73,2.14-1.08.23-.11.45-.22.68-.33.74-.36,1.48-.71,2.23-1.04.13-.06.27-.12.4-.18.7-.31,1.41-.61,2.12-.91.19-.08.37-.16.56-.23.76-.31,1.52-.6,2.29-.89.21-.08.43-.16.64-.24.77-.28,1.55-.56,2.33-.82.18-.06.35-.12.53-.17.82-.27,1.65-.53,2.48-.78.08-.02.16-.04.24-.07.8-.23,1.6-.45,2.41-.66.15-.04.3-.08.45-.12.82-.21,1.65-.41,2.48-.59.18-.04.36-.08.53-.12.83-.18,1.66-.35,2.5-.5.16-.03.32-.06.48-.09.88-.16,1.76-.31,2.65-.44.02,0,.03,0,.05,0,.9-.13,1.81-.25,2.71-.35.12-.01.23-.03.35-.04.87-.09,1.75-.17,2.63-.24.16-.01.32-.03.48-.04.87-.06,1.75-.11,2.62-.14.14,0,.28,0,.42-.01.92-.03,1.84-.05,2.77-.05h0Z"/>
      <path class="cls-3" d="m124.1,0c68.35,0,124.09,78.7,124.09,175.19s-55.75,175.19-124.09,175.19S0,271.69,0,175.19,55.75,0,124.1,0h0ZM32,69.91c26.49,12.2,58.14,19.31,92.09,19.31s65.6-7.11,92.09-19.31C194.56,31.13,161.29,6.2,124.09,6.2S53.63,31.13,32,69.91h0Zm186.99,5.24c-27.14,12.7-59.81,20.12-94.9,20.12s-67.75-7.43-94.89-20.12c-10.78,20.95-18.28,45.56-21.39,72.26,30.62,19.41,71.49,31.3,116.28,31.3s85.66-11.89,116.28-31.29c-3.1-26.7-10.6-51.31-21.39-72.26h0Zm22.07,78.88c-30.87,19.24-71.96,31.01-116.96,31.01s-86.1-11.77-116.97-31.01c-.61,6.93-.93,14-.93,21.16,0,93.08,52.96,168.99,117.89,168.99s117.89-75.91,117.89-168.99c0-7.17-.31-14.23-.93-21.16h0Z"/>
      <path class="cls-2" d="m75.6,261.75c-2.4-9.8-3.86-20.22-4.22-31.02h105.43c-.36,10.81-1.82,21.22-4.22,31.02h-97Z"/>
      <path class="cls-4" d="m124.09,330.74c-22.66-11.32-40.64-36.88-48.5-69h97c-7.86,32.12-25.83,57.67-48.5,69h0Z"/>
      <path class="cls-3" d="m29.97,142.15c1.82-2.34,3.64-4.67,5.43-6.98,1.64,1.91,3.42,3.53,5.27,4.81,1.85,1.29,3.78,2.27,5.7,2.9,6.03,1.97,9.25.95,9.88-2.99.27-1.73.04-3.45-1.28-5.59-1.31-2.11-3.69-4.65-7.69-8.01-3.86-3.19-6.21-5.39-7.68-7.26-1.46-1.85-2.07-3.37-2.44-5.17-.59-1.87-.69-3.77-.29-5.72.72-3.57,3.01-6.1,6.3-7.37,3.27-1.26,7.58-1.3,12.39.16,3.03.92,5.63,1.98,7.82,3.14,2.19,1.17,3.96,2.46,5.31,3.89-1.34,2.09-2.69,4.2-4.05,6.32-1.45-1.58-3.05-2.91-4.74-3.96-1.69-1.05-3.47-1.86-5.28-2.42-4.53-1.39-7.4-.04-7.98,3.08-.25,1.37.35,3.03,1.81,4.98,1.47,1.97,3.83,4.25,7.06,6.87,3.48,2.83,5.8,5.03,7.4,7.07,1.62,2.06,2.54,3.96,3.22,6.18.48,1.95.67,4.26.33,6.67-.58,4.19-3.13,7.23-7.11,8.69-4,1.47-9.41,1.34-15.64-.73-2.68-.89-5.17-2.07-7.46-3.5-2.29-1.43-4.38-3.13-6.28-5.05h0Z"/>
      <path class="cls-3" d="m94.54,142.36c-.26,3.23-.52,6.47-.78,9.71-.26,3.24-.52,6.48-.78,9.72-3.08-.31-6.16-.62-9.23-.93.71-8.77,1.42-17.52,2.13-26.26.71-8.72,1.41-17.44,2.12-26.14,3.11.2,5.51.33,7.28.43,1.77.1,2.89.15,3.43.2,8,.81,13.67,2.66,17.23,5.64,3.56,2.98,5.02,7.11,4.6,12.48-.46,5.94-2.52,10.23-6.18,12.85-3.66,2.63-8.92,3.6-15.77,2.91-1.07-.11-2.36-.24-4.05-.63h0Zm1.99-24.86c-.22,2.79-.45,5.57-.67,8.35-.22,2.78-.45,5.57-.67,8.35,1.48.37,2.55.48,3.62.59,4.07.41,7.06.05,9.1-1.22,2.04-1.26,3.13-3.43,3.38-6.62.22-2.74-.7-4.88-2.7-6.44-2-1.55-5.1-2.54-9.27-2.96-1.07-.11-1.92-.19-2.79-.06h0Z"/>
      <path class="cls-3" d="m66.93,153.11c0-3.15,2.41-5.56,5.56-5.56,2.97,0,5.38,2.41,5.38,5.56,0,2.97-2.41,5.38-5.38,5.38-3.15,0-5.56-2.41-5.56-5.38h0Z"/>
      <path class="cls-3" d="m111.48,158.57c0-3.15,2.41-5.56,5.56-5.56,2.97,0,5.38,2.41,5.38,5.56,0,2.97-2.41,5.38-5.38,5.38-3.15,0-5.56-2.41-5.56-5.38h0Z"/>
      <path class="cls-3" d="m175.02,152.29c0-3.15,2.41-5.56,5.56-5.56,2.97,0,5.38,2.41,5.38,5.56,0,2.97-2.41,5.38-5.38,5.38-3.15,0-5.56-2.41-5.56-5.38h0Z"/>
      <path class="cls-3" d="m220.19,143.88c-4.26,1.66-8.57,3.33-12.92,5.02-4.4,1.71-8.86,3.45-13.37,5.2-2.04-8.68-4.04-17.19-6-25.51-1.91-8.13-3.79-16.11-5.62-23.92,2.46-.79,4.92-1.57,7.35-2.35,1.58,6.47,3.2,13.05,4.85,19.74,1.67,6.81,3.38,13.75,5.12,20.82,3.13-1.18,6.24-2.35,9.32-3.52,3.06-1.15,6.09-2.3,9.1-3.44.72,2.63,1.44,5.28,2.16,7.94h0Z"/>
      <path class="cls-3" d="m223.71,133.44c0-3.15,2.41-5.56,5.56-5.56,2.97,0,5.38,2.41,5.38,5.56,0,2.97-2.41,5.38-5.38,5.38-3.15,0-5.56-2.41-5.56-5.38h0Z"/>
      <path class="cls-3" d="m170.44,159.98c-2.46.48-4.94.92-7.45,1.32-.6-4.68-1.18-9.28-1.76-13.8-3.66.42-7.33.86-11.02,1.28-3.69.42-7.39.86-11.1,1.29.37,4.5.75,9.09,1.14,13.76-2.55.16-5.11.29-7.68.38-.18-2.7-.37-5.37-.55-8.02-.59-8.7-1.17-17.13-1.72-25.27-.43-6.41,1.32-11.37,5.38-15.26,1.57-1.51,3.26-2.66,5.03-3.51,1.76-.85,3.61-1.45,5.55-1.71,2.02-.27,4-.05,5.89.44,1.9.49,3.7,1.39,5.47,2.49,4.46,2.77,7.19,7.16,8.12,13.68,1.14,7.97,2.32,16.22,3.54,24.74.39,2.69.77,5.42,1.17,8.17h0Zm-32.18-20.07c3.63-.4,7.26-.82,10.88-1.22,3.61-.4,7.21-.82,10.8-1.23-.42-3.25-.83-6.46-1.23-9.63-.39-3.06-2.04-5.07-5.03-6.61-2.29-1.18-4.58-1.78-6.45-1.58-2.26.24-4.43,1.03-6.4,2.69-2.47,2.08-3.65,4.48-3.37,7.81.27,3.22.54,6.47.81,9.76h0Z"/>
      <path class="cls-4" d="m124.09,330.74c-22.66-11.32-40.64-36.88-48.5-69h97c-7.86,32.12-25.83,57.67-48.5,69h0Z"/>
      <path class="cls-5" d="m124.09,332.78l-.81-.41c-11.61-5.8-22-15.22-30.48-27.29-8.43-12-14.99-26.62-18.97-42.91l-.55-2.25h101.63l-.55,2.25c-3.99,16.29-10.54,30.91-18.97,42.91-8.48,12.07-18.87,21.49-30.48,27.29l-.81.41h0Zm0-4.09c10.73-5.56,20.38-14.42,28.31-25.71,7.79-11.08,13.93-24.49,17.84-39.42h-92.32c3.91,14.92,10.05,28.33,17.84,39.42,7.94,11.29,17.58,20.15,28.32,25.71h0Z"/>
      <path class="cls-2" d="m75.6,261.75c-2.4-9.8-3.86-20.22-4.22-31.02h105.43c-.36,10.81-1.82,21.22-4.22,31.02h-97Z"/>
      <path class="cls-5" d="m74.17,263.57l-.34-1.4c-1.23-5.01-2.21-10.18-2.93-15.47-.71-5.23-1.17-10.55-1.35-15.92l-.06-1.88h109.21l-.06,1.88c-.18,5.37-.63,10.69-1.34,15.92-.72,5.29-1.7,10.46-2.93,15.48l-.34,1.4h-99.85Zm2.86-3.65h94.13c1.04-4.45,1.89-9.03,2.53-13.71.6-4.44,1.02-9,1.23-13.67h-101.63c.21,4.67.62,9.23,1.23,13.67.64,4.68,1.48,9.25,2.52,13.7h0Z"/>
    </g>
  </g>
</svg>