<?xml version="1.0" encoding="UTF-8"?>
<svg id="Layer_2" data-name="Layer 2" xmlns="http://www.w3.org/2000/svg" viewBox="0 0 265.7 285.5">
  <defs>
    <style>
      .cls-1 {
        fill: #1a1a1a;
        stroke-width: 0px;
      }
    </style>
  </defs>
  <g id="Ebene_1" data-name="Ebene 1">
    <g>
      <path class="cls-1" d="m3.02,137.61c2.89-7.09,6.3-14.05,10.11-20.62,11.29-19.83,26.27-37.17,44.13-51.48,11.29-9.06,23.77-16.68,37.04-22.72l2.89-1.31,2.89,1.31c11.56,5.25,22.46,11.82,32.7,19.44,10.24-7.62,21.15-14.18,32.7-19.44l2.89-1.31,2.89,1.31c13.13,6.04,25.61,13.66,37.04,22.72,25.61,20.36,45.05,47.28,56.47,77.75.66-5.65.92-11.43.92-17.34,0-18.39-3.02-36.12-8.8-52.53-7.75-22.72-20.49-43.08-36.77-60.02-19.96,11.69-42.55,19.44-66.59,22.33l-5.25-11.69c-.26-.66-.26-1.44.13-2.1s.92-1.44,1.58-2.23c1.31-1.97,3.02-4.47,4.2-6.17,0,0,1.71-2.63,3.68-3.02h.53c1.18,0,2.23.92,2.36,2.23.53-1.84.79-3.68.66-5.52-.26-7.22-3.41-6.57-11.56-5.12-1.31.26-1.97.39-1.97.39-2.5-3.55-6.57-2.63-9.98-1.18q-.13,0-.13.13c-4.99,2.23-9.19,5.65-13.26,9.19-1.05.92-1.97,2.1-2.5,3.41l-9.85,21.8c-.26,0-.39,0-.66-.13-23.77-2.89-46.1-10.64-65.93-22.2C29.29,30.31,16.55,50.8,8.8,73.39,3.15,89.94,0,107.53,0,126.05c0,5.91.39,11.82.92,17.6.53-2.1,1.31-4.07,2.1-6.04"/>
      <path class="cls-1" d="m132.78,251.09c-9.33,6.96-19.18,13-29.68,17.99l24.3,13.4,5.38,3.02,4.99-2.76,24.69-13.66c-10.51-5.12-20.49-11.03-29.68-17.99"/>
      <path class="cls-1" d="m222.22,166.11c-11.69,25.09-30.34,45.71-53.85,60.02-3.55-2.1-7.09-4.47-10.38-6.96,6.83-8.01,12.87-16.81,18.12-25.87,3.68-6.44,6.96-13.13,9.72-19.96,2.23-5.38,4.2-10.9,5.78-16.42l.13-.26-.13-.26c-1.71-5.52-3.55-11.16-5.78-16.42l-.26-.66h-67.11c4.07-7.49,8.93-14.58,14.32-21.28.92,1.05,1.71,2.1,2.36,3.02l.26.39h41.5l-.79-1.44c-5.25-9.19-11.29-17.86-18.12-25.87,3.28-2.5,6.83-4.73,10.38-6.96,23.64,14.18,42.29,34.94,53.85,60.02l.26.53h37.43l-.53-1.31c-10.9-29.95-29.95-56.21-54.9-76.18-11.03-8.8-22.98-16.15-35.72-21.93l-.39-.13-.39.13c-12.48,5.78-24.3,13-35.2,21.54-10.77-8.54-22.59-15.76-35.2-21.54l-.39-.13h-.39c-12.74,5.78-24.82,13.26-35.72,21.93-17.34,13.79-31.65,30.47-42.68,49.78-3.68,6.44-6.96,13.13-9.72,19.96-2.23,5.38-4.2,10.9-5.78,16.42l-.13.26.13.26c1.71,5.52,3.55,11.03,5.78,16.42l.26.66h71.18c6.83,16.42,16.15,31.65,27.58,45.18-3.28,2.5-6.83,4.73-10.38,6.96-14.71-8.93-27.58-20.23-38.09-33.88l-.26-.39H17.47l.79,1.44c11.03,19.18,25.35,35.99,42.68,49.78,11.03,8.8,22.98,16.15,35.72,21.93l.39.13.39-.13c12.48-5.78,24.3-13,35.2-21.54,10.77,8.54,22.59,15.76,35.2,21.54l.39.13.39-.13c12.74-5.78,24.82-13.26,35.72-21.93,25.09-19.96,44-46.23,54.9-76.18l.53-1.31h-37.43l-.13.66Zm-75.13,7.88c-3.41,6.3-7.49,12.48-11.95,18.26-.79,1.05-1.58,2.1-2.36,3.02-5.38-6.7-10.24-13.79-14.32-21.28h28.63Zm-39.53-79.85c-11.43,13.66-20.75,28.76-27.58,45.18h-32.83c3.55-6.44,7.49-12.48,11.95-18.26,10.51-13.66,23.25-25.09,38.09-33.88,3.55,2.1,7.09,4.46,10.38,6.96"/>
    </g>
  </g>
</svg>