<?xml version="1.0" encoding="UTF-8"?>
<svg id="Layer_2" data-name="Layer 2" xmlns="http://www.w3.org/2000/svg" xmlns:xlink="http://www.w3.org/1999/xlink" viewBox="0 0 33.56 19.58">
  <defs>
    <style>
      .cls-1 {
        clip-path: url(#clippath);
      }

      .cls-2 {
        fill: none;
      }

      .cls-2, .cls-3, .cls-4, .cls-5, .cls-6 {
        stroke-width: 0px;
      }

      .cls-7 {
        clip-path: url(#clippath-1);
      }

      .cls-8 {
        clip-path: url(#clippath-4);
      }

      .cls-9 {
        clip-path: url(#clippath-3);
      }

      .cls-10 {
        clip-path: url(#clippath-2);
      }

      .cls-11 {
        clip-path: url(#clippath-7);
      }

      .cls-12 {
        clip-path: url(#clippath-8);
      }

      .cls-13 {
        clip-path: url(#clippath-6);
      }

      .cls-14 {
        clip-path: url(#clippath-5);
      }

      .cls-15 {
        clip-path: url(#clippath-9);
      }

      .cls-16 {
        clip-path: url(#clippath-20);
      }

      .cls-17 {
        clip-path: url(#clippath-21);
      }

      .cls-18 {
        clip-path: url(#clippath-24);
      }

      .cls-19 {
        clip-path: url(#clippath-23);
      }

      .cls-20 {
        clip-path: url(#clippath-22);
      }

      .cls-21 {
        clip-path: url(#clippath-25);
      }

      .cls-22 {
        clip-path: url(#clippath-44);
      }

      .cls-23 {
        clip-path: url(#clippath-45);
      }

      .cls-24 {
        clip-path: url(#clippath-40);
      }

      .cls-25 {
        clip-path: url(#clippath-42);
      }

      .cls-26 {
        clip-path: url(#clippath-41);
      }

      .cls-27 {
        clip-path: url(#clippath-43);
      }

      .cls-28 {
        clip-path: url(#clippath-27);
      }

      .cls-29 {
        clip-path: url(#clippath-28);
      }

      .cls-30 {
        clip-path: url(#clippath-26);
      }

      .cls-31 {
        clip-path: url(#clippath-29);
      }

      .cls-32 {
        clip-path: url(#clippath-34);
      }

      .cls-33 {
        clip-path: url(#clippath-35);
      }

      .cls-34 {
        clip-path: url(#clippath-36);
      }

      .cls-35 {
        clip-path: url(#clippath-37);
      }

      .cls-36 {
        clip-path: url(#clippath-39);
      }

      .cls-37 {
        clip-path: url(#clippath-33);
      }

      .cls-38 {
        clip-path: url(#clippath-32);
      }

      .cls-39 {
        clip-path: url(#clippath-30);
      }

      .cls-40 {
        clip-path: url(#clippath-38);
      }

      .cls-41 {
        clip-path: url(#clippath-31);
      }

      .cls-42 {
        clip-path: url(#clippath-14);
      }

      .cls-43 {
        clip-path: url(#clippath-13);
      }

      .cls-44 {
        clip-path: url(#clippath-12);
      }

      .cls-45 {
        clip-path: url(#clippath-10);
      }

      .cls-46 {
        clip-path: url(#clippath-15);
      }

      .cls-47 {
        clip-path: url(#clippath-17);
      }

      .cls-48 {
        clip-path: url(#clippath-16);
      }

      .cls-49 {
        clip-path: url(#clippath-19);
      }

      .cls-50 {
        clip-path: url(#clippath-11);
      }

      .cls-51 {
        clip-path: url(#clippath-18);
      }

      .cls-3 {
        fill: #8e1841;
      }

      .cls-4 {
        fill: #2f742e;
      }

      .cls-5 {
        fill: #ed6f22;
      }

      .cls-6 {
        fill: #f5cd28;
      }
    </style>
    <clipPath id="clippath">
      <rect class="cls-2" width="33.56" height="19.58"/>
    </clipPath>
    <clipPath id="clippath-1">
      <rect class="cls-2" width="33.56" height="19.58"/>
    </clipPath>
    <clipPath id="clippath-2">
      <rect class="cls-2" width="33.56" height="19.58"/>
    </clipPath>
    <clipPath id="clippath-3">
      <rect class="cls-2" width="33.56" height="19.58"/>
    </clipPath>
    <clipPath id="clippath-4">
      <rect class="cls-2" width="33.56" height="19.58"/>
    </clipPath>
    <clipPath id="clippath-5">
      <rect class="cls-2" width="33.56" height="19.58"/>
    </clipPath>
    <clipPath id="clippath-6">
      <rect class="cls-2" width="33.56" height="19.58"/>
    </clipPath>
    <clipPath id="clippath-7">
      <rect class="cls-2" width="33.56" height="19.58"/>
    </clipPath>
    <clipPath id="clippath-8">
      <rect class="cls-2" width="33.56" height="19.58"/>
    </clipPath>
    <clipPath id="clippath-9">
      <rect class="cls-2" width="33.56" height="19.58"/>
    </clipPath>
    <clipPath id="clippath-10">
      <rect class="cls-2" width="33.56" height="19.58"/>
    </clipPath>
    <clipPath id="clippath-11">
      <rect class="cls-2" width="33.56" height="19.58"/>
    </clipPath>
    <clipPath id="clippath-12">
      <rect class="cls-2" width="33.56" height="19.58"/>
    </clipPath>
    <clipPath id="clippath-13">
      <rect class="cls-2" width="33.56" height="19.58"/>
    </clipPath>
    <clipPath id="clippath-14">
      <rect class="cls-2" width="33.56" height="19.58"/>
    </clipPath>
    <clipPath id="clippath-15">
      <rect class="cls-2" width="33.56" height="19.58"/>
    </clipPath>
    <clipPath id="clippath-16">
      <rect class="cls-2" width="33.56" height="19.58"/>
    </clipPath>
    <clipPath id="clippath-17">
      <rect class="cls-2" width="33.56" height="19.58"/>
    </clipPath>
    <clipPath id="clippath-18">
      <rect class="cls-2" width="33.56" height="19.58"/>
    </clipPath>
    <clipPath id="clippath-19">
      <rect class="cls-2" width="33.56" height="19.58"/>
    </clipPath>
    <clipPath id="clippath-20">
      <rect class="cls-2" width="33.56" height="19.58"/>
    </clipPath>
    <clipPath id="clippath-21">
      <rect class="cls-2" width="33.56" height="19.58"/>
    </clipPath>
    <clipPath id="clippath-22">
      <rect class="cls-2" width="33.56" height="19.58"/>
    </clipPath>
    <clipPath id="clippath-23">
      <rect class="cls-2" width="33.56" height="19.58"/>
    </clipPath>
    <clipPath id="clippath-24">
      <rect class="cls-2" width="33.56" height="19.58"/>
    </clipPath>
    <clipPath id="clippath-25">
      <rect class="cls-2" width="33.56" height="19.58"/>
    </clipPath>
    <clipPath id="clippath-26">
      <rect class="cls-2" width="33.56" height="19.58"/>
    </clipPath>
    <clipPath id="clippath-27">
      <rect class="cls-2" width="33.56" height="19.58"/>
    </clipPath>
    <clipPath id="clippath-28">
      <rect class="cls-2" width="33.56" height="19.58"/>
    </clipPath>
    <clipPath id="clippath-29">
      <rect class="cls-2" width="33.56" height="19.58"/>
    </clipPath>
    <clipPath id="clippath-30">
      <rect class="cls-2" width="33.56" height="19.58"/>
    </clipPath>
    <clipPath id="clippath-31">
      <rect class="cls-2" width="33.56" height="19.58"/>
    </clipPath>
    <clipPath id="clippath-32">
      <rect class="cls-2" width="33.56" height="19.58"/>
    </clipPath>
    <clipPath id="clippath-33">
      <rect class="cls-2" width="33.56" height="19.58"/>
    </clipPath>
    <clipPath id="clippath-34">
      <rect class="cls-2" width="33.56" height="19.58"/>
    </clipPath>
    <clipPath id="clippath-35">
      <rect class="cls-2" width="33.56" height="19.58"/>
    </clipPath>
    <clipPath id="clippath-36">
      <rect class="cls-2" width="33.56" height="19.58"/>
    </clipPath>
    <clipPath id="clippath-37">
      <rect class="cls-2" width="33.56" height="19.58"/>
    </clipPath>
    <clipPath id="clippath-38">
      <rect class="cls-2" width="33.56" height="19.58"/>
    </clipPath>
    <clipPath id="clippath-39">
      <rect class="cls-2" width="33.56" height="19.58"/>
    </clipPath>
    <clipPath id="clippath-40">
      <rect class="cls-2" width="33.56" height="19.58"/>
    </clipPath>
    <clipPath id="clippath-41">
      <rect class="cls-2" width="33.56" height="19.58"/>
    </clipPath>
    <clipPath id="clippath-42">
      <rect class="cls-2" width="33.56" height="19.58"/>
    </clipPath>
    <clipPath id="clippath-43">
      <rect class="cls-2" width="33.56" height="19.58"/>
    </clipPath>
    <clipPath id="clippath-44">
      <rect class="cls-2" width="33.56" height="19.58"/>
    </clipPath>
    <clipPath id="clippath-45">
      <rect class="cls-2" width="33.56" height="19.58"/>
    </clipPath>
  </defs>
  <g id="Layer_1-2" data-name="Layer 1">
    <g id="SRI_LANKA" data-name="SRI LANKA">
      <g>
        <g class="cls-1">
          <rect class="cls-6" width="33.56" height="19.58"/>
        </g>
        <g class="cls-7">
          <rect class="cls-5" x="7.1" y="2.05" width="5.7" height="15.47"/>
        </g>
        <g class="cls-10">
          <rect class="cls-4" x="1.48" y="2.05" width="5.62" height="15.48"/>
        </g>
        <g class="cls-9">
          <rect class="cls-3" x="14.28" y="2.05" width="17.8" height="15.48"/>
        </g>
        <g class="cls-8">
          <g>
            <g class="cls-14">
              <path class="cls-6" d="m21.07,9.24h.29s-.33.29-.26.66c.35-.51.47-.41.47-.41-.11.11-.31.27-.15.62.14-.35.41-.62.41-.62,0,0-.07.39.09.75.12-.36.32-.67.32-.67,0,0-.03.39.14.53.14-.12.23-.43.23-.43,0,0,.26.45.41.52.13-.3.13-.55.13-.55,0,0,.53.38.95.16-.38-.14-.5-.45-.5-.45,0,0,.68.3.98.17-.28-.22-.95-.54-.95-.54,0,0,.49.18.64.14-.07-.1-.29-.22-.29-.22l-2.92.35Z"/>
            </g>
            <g class="cls-13">
              <path class="cls-3" d="m21.95,10.24c-.17-.32-.14-.66-.13-.74-.04.07-.26.32-.38.62-.18-.33-.02-.5.09-.61l.02-.02s-.16.01-.44.43c-.11-.39.23-.68.23-.68l-.28.03s-.02-.01-.02-.02c0,0,0-.02.02-.02h.29s-.31.32-.24.68c.19-.34.33-.42.4-.43.04,0,.06,0,.06,0l-.03.06c-.11.11-.26.27-.11.57.1-.35.38-.63.38-.63.03.02-.04.41.12.75.09-.36.29-.66.29-.67.03.01,0,.39.17.53.11-.12.2-.42.2-.42.04,0,.29.44.44.51.1-.29.1-.53.1-.53.02,0,.34.2.67.2.1,0,.2-.02.29-.06-.38-.11-.51-.41-.51-.43.02-.01.48.18.8.18.07,0,.14-.01.19-.03-.28-.18-.95-.51-.95-.51.01-.03.4.11.58.11.02,0,.04,0,.06,0-.08-.07-.29-.18-.29-.19.03-.02.24.09.31.19-.1.05-.35,0-.51-.06.22.09.62.3.82.46-.28.16-.88-.09-.98-.13.05.04.18.3.5.41-.4.25-.89-.07-.96-.12.02.04,0,.26-.11.54-.17-.06-.4-.45-.44-.51,0,.05-.08.31-.2.43-.17-.13-.18-.43-.17-.52-.03.08-.19.35-.29.65h0Z"/>
            </g>
            <g class="cls-11">
              <path class="cls-6" d="m25.17,5.57c.91-.08,2.31.66,3.05,1.16,0-.17,0-.33.17-.41.16-.08.41.08.33.33-.25.57-1.24-.09-1.57-.25l.17.33c-.49-.08-.58-.17-.91-.58-.08.33-.08.41-.5.41.16-.25.21-.33,0-.57l-.08.49-.41-.57v.57c-.09-.08-.42-.33-.58-.33-.25-.08-.41.41-.49.66.25-.25.33-.41.74-.25-.22.21-.16.46.08.66,0,0,.04-.34.07-.42.13.1.41.46.76.5.25,0,.49-.08.74-.16.82-.09,2.64.08,2.23,1.32-.08.25-.17.41-.33.57,1.16.41.17,1.9-.08,2.64-.16.66-.05,1.18.76,1.1-.16.33-.43.38-.76.38,0,0,.04.2.26.29-.35.31.12.79-.09,1.02-.36.17-.83-.08-.83-.08l-.02.23s-.62-.04-.64-.07c0,0,.18-.33.17-.34-.17.25-.33.39-.66.34,0,0,.02-.15.21-.35-.25.25-.28.36-.54.35,0-.41.24-.9.74-.74.08,0,.35.21.47.07.1-.14.04-.62.04-.79.05-.73-.09-.69-.5-1.1-.33-.25-.57-.62-.98-.71-.41-.08-1.08.38-1.41.54-.82.5-1.57.82-2.47.99,0,0,.02-.04.02-.12,0-.05.89-.75,1.05-1.96-.24,1.2-1.11,1.84-1.14,2.06-.04.22-.21.6-.23.62.11-.06.45-.23.89-.27-.1.51-.58.41-.66.66,0,.25.33.58,0,.74h-1.32s.2-.28.21-.36c-.18.11-.29.39-.68.36.02-.11.2-.27.17-.34-.22.21-.33.38-.61.34.08-.25.08-.57.41-.57.25-.08.49.08.66-.17.33-.41-.06-1.31-.14-1.81,0-.41,0-.49-.11-.99l.08,1.48c-.33-.25-.66-.41-.91-.74-.58-.74-.41-1.56.33-2.06.33-.25.51-.38.92-.54-.08-.25.12-.43-.17-.51-.09.15-.17.32-.34.31l.09-.41s-.3.02-.24.55c-.34-.16-.17-.55-.17-.55h-.17s0,.49-.27.59c.07-.23.11-.59.11-.59,0,0-.44.53-.7.36.15-.17.27-.2.25-.41-.02-.2-.13-.47-.14-.51.09.05.71.23,1.11.04-.03.13-.02.28-.02.28.41-.08.5-.08.91.08-.08-.57-.41-.66-.74-1.07v.33c-.33-.08-.41-.16-.58-.49l-.25.16c-.43-.26-.76-.87-.14-.83.37.05.06.34.06.34,0,0,.95-.3,1.32-.33,0,0-.11-.23-.46-.27.29-.21.58-.29.79.17.21.02.4-.24.27-.56.31,0,.46.19.6.39.11.02.23-.1.2-.51.29.25.43.32.45.53.25.05.41,0,.78-.16-.08.33-.08.41-.41.58.23.29.26.63.21.76-.08-.02-.1-.03-.16-.05.02.13.04.48.04.69h-.17l.25.74-.17.24c.58-.24,1.16-.16,1.73-.32.66-.09,1.32-.34,2.06-.34.49,0,.49.25,1.15.25v-.41c0-.33-.25-.66-.66-.74-.25,0-.66.16-.91.24-.33.09-.83.09-1.16.09-1.07-.17-.9-.27-1.27-.47-.22.06-.35.25-.46.59-.21-.31-.16-.69.09-.86-.25-.9.41-1.32,1.23-1.48h0Z"/>
            </g>
            <g class="cls-12">
              <path class="cls-6" d="m25.43,12.98c-.17-.25-.74-.66-.58-1.07.25-.41,1.65-1.07,1.9-.16.08.25-.17.9-.26,1.15.12-.04.27-.23.67-.16-.08.32-.57.57-.57.57.05.22-.34,1.23-.34,1.23h-1.07l.17-.33-.25.33h-.41l.33-.41s-.39.46-.72.44c.08-.66.48-.77,1.05-.52.08-.33.25-.74.08-1.07h0Z"/>
            </g>
            <g class="cls-15">
              <path class="cls-3" d="m24.31,14.59h-.02c.05-.65.42-.83,1.06-.55-.01-.04,0-.1.02-.16.08-.29.17-.62.04-.89-.04-.06-.11-.14-.19-.22-.23-.25-.52-.55-.39-.87.17-.28.81-.63,1.29-.63.34,0,.56.16.64.47.07.22-.11.73-.22,1.04l-.04.11s.04-.05.08-.07c.11-.06.27-.16.58-.1-.06.35-.55.59-.57.61.06.2-.32,1.18-.33,1.22h-1.09s.15-.35.15-.35l-.22.35h-.43s.21-.29.21-.29c-.13.14-.37.33-.59.33h0Zm.6-.34l-.21.3.4-.03.23-.32-.14.35,1.06-.03s.37-1,.32-1.21c.02-.02.5-.27.57-.58-.05.01-.1,0-.15,0-.19,0-.3.07-.38.12-.04.03-.08.04-.11.06l.02-.14c.1-.28.29-.81.22-1.02-.1-.37-.39-.44-.61-.44-.51,0-1.11.37-1.26.61-.12.3.16.59.39.83.08.09.15.16.19.23.14.29.05.62-.04.92-.01.06-.03.11-.05.16-.21-.06-.37-.1-.51-.1-.31,0-.48.2-.54.61.32,0,.68-.43.69-.43h0s-.03.07-.09.13h0Z"/>
            </g>
            <g class="cls-45">
              <path class="cls-6" d="m21.01,6.78c-.11.07-.02.52.15.45.21-.1-.07-.5-.15-.45h0Z"/>
            </g>
            <g class="cls-50">
              <path class="cls-3" d="m21.12,7.25c-.06,0-.12-.07-.16-.18-.03-.11-.03-.26.04-.3.11,0,.22.14.25.28.02.09,0,.16-.08.2h-.05Zm-.09-.46c-.05.03-.06.15-.03.27.02.08.07.16.12.16v.02l.03-.03c.07-.03.07-.11.06-.16-.03-.13-.14-.25-.19-.25h0Z"/>
            </g>
            <g class="cls-44">
              <path class="cls-6" d="m21.11,6.64c.2.14.53.52.93.5-.3-.25-.24-.43-.24-.43.16.19.68.36.86.29-.2-.15-.24-.17-.29-.31.24.03.54.08.78-.02l-2.04-.03Z"/>
            </g>
            <g class="cls-43">
              <path class="cls-3" d="m21.96,7.14c-.29,0-.52-.2-.7-.36-.06-.05-.11-.09-.15-.12,0,0-.01-.02,0-.02,0,0,.02-.01.02,0,.05.03.1.07.16.12.19.17.45.39.76.38-.32-.22-.26-.41-.26-.42.18.18.7.35.87.27h-.06c-.15-.12-.19-.15-.23-.29h.09c.23.02.49.05.7-.04-.21.13-.47.09-.71.07h-.07c.06.09.09.11.24.22l.06.04c-.18.11-.7-.06-.87-.25.01.04.02.19.25.39-.03,0-.06,0-.09,0h0Z"/>
            </g>
            <g class="cls-42">
              <path class="cls-6" d="m21.5,9.15l.02-.35s.23.53.39.54c-.11-.39-.06-.69-.06-.69l-.36.5Z"/>
            </g>
            <g class="cls-46">
              <path class="cls-3" d="m21.93,9.34c-.19,0-.39-.47-.42-.52v.34s0,.01,0,.02c0,0-.02,0-.02-.02l.02-.35c.1.14.28.51.41.52-.12-.36-.08-.67-.08-.68.03,0,0,.31.09.69,0,0,0,0,0,0h0Z"/>
            </g>
            <g class="cls-48">
              <path class="cls-6" d="m22.03,8.73s.45.83.67.7c-.33-.3-.29-.68-.29-.68,0,0,.15.51.6.67.03-.29-.18-.75-.18-.75,0,0,.37.65.56.66.12-.15.08-.31.08-.31l-1.43-.28Z"/>
            </g>
            <g class="cls-47">
              <path class="cls-3" d="m22.64,9.45s-.02,0-.03,0c-.23-.06-.58-.68-.59-.71,0-.01,0-.02,0-.03,0,0,.02,0,.02,0,0,0,.35.64.57.7.03,0,.05,0,.07,0-.34-.27-.3-.66-.3-.66.04,0,.19.5.62.65,0-.26-.19-.72-.2-.73h0s.02.02.04.05c.15.2.4.58.54.59.1-.14.06-.29.06-.29h0s.08.16-.05.32c-.15,0-.39-.35-.51-.54.07.16.15.43.13.62-.39-.12-.56-.48-.61-.62.02.11.06.39.3.61-.02.04-.05.05-.07.05h0Z"/>
            </g>
            <g class="cls-51">
              <path class="cls-6" d="m21.68,8.16l.33.42.05-.56s.32.25.39.25c.06,0-.09-.6-.09-.6,0,0,.44.66.46.65.03-.02.05-.66.05-.66,0,0,.33.91.45.91.11-.01.08-.13.08-.13l-1.72-.27Z"/>
            </g>
            <g class="cls-49">
              <path class="cls-3" d="m22.03,8.58l-.36-.41s0-.02,0-.02c0,0,.02,0,.02,0l.33.42.02-.55c.18.11.36.23.4.23.02-.03-.04-.32-.11-.58.19.22.45.61.48.63,0-.03.02-.35.02-.64.19.43.4.89.46.89.03,0,.05-.01.05-.03.02-.03.01-.08.01-.08.03-.01.05.05.02.1-.02.02-.05.04-.08.04h0c-.12,0-.38-.7-.46-.91.02.64-.01.66-.02.66-.02,0-.04.02-.49-.65.06.11.17.54.13.6-.09.02-.34-.18-.42-.24l-.02.55h0Z"/>
            </g>
            <g class="cls-16">
              <path class="cls-6" d="m21.43,7.42s.51.46.56.43-.21-.54-.21-.54c0,0,.29.28.41.3.11.02.04-.36.04-.36,0,0,.35.3.4.28.06-.01.03-.28.03-.28,0,0,.23.23.24.23s-.05-.65-.05-.65c0,0,.5.54.54.53l-1.97.06Z"/>
            </g>
            <g class="cls-17">
              <path class="cls-3" d="m21.99,7.88c-.07,0-.35-.24-.57-.44,0,0,0-.02,0-.03,0,0,.02,0,.02,0,.23.21.5.43.55.43h0s-.11-.29-.22-.52c.11.05.33.26.42.27.06-.04.04-.23.02-.34.19.12.38.26.42.26.02,0,.03-.13.02-.26.13.09.25.2.27.21-.02-.02-.05-.4-.07-.63.21.18.52.49.56.51,0,.04-.05.04-.56-.5.09.62.08.64.07.64-.02,0-.04,0-.27-.23.04.07.05.27-.01.29-.06.02-.33-.2-.42-.28.03.04.07.28.02.34,0,0-.05.02-.05.02-.12-.02-.4-.29-.41-.3.21.33.27.52.23.54,0,0,0,0,0,0h0Z"/>
            </g>
            <g class="cls-20">
              <path class="cls-6" d="m19.38,7.59s.11.7,1.14.43c.1-.05.06.18.05.25.05,0,.54-.18.88.07-.04-.28-.11-.46-.41-.62-.15-.03-.25.04-.25.04,0,0-1.24.01-1.41-.18h0Z"/>
            </g>
            <g class="cls-19">
              <path class="cls-3" d="m21.44,8.36s0,0-.01,0c-.12-.09-.27-.13-.44-.13s-.32.04-.39.06c0,0-.03,0-.03,0,0,0-.02,0-.02-.01v-.04c.01-.06.02-.18,0-.2-.19.05-.34.07-.48.07-.37,0-.61-.16-.7-.49,0,0,0,0,0-.01.17.42.54.55,1.14.4h.06s.02.13.01.23v.04c.07-.04.22-.09.4-.09s.31.04.43.11c-.04-.25-.12-.42-.39-.56-.02,0-.04,0-.06,0-.1,0-.17.05-.17.05-.33,0-1.28,0-1.43-.18,0,0,0-.01,0-.02,0,0,.02-.02.02,0,.11.13.81.17,1.36.17.02,0,.1-.05.21-.05.02,0,.05,0,.07,0,.3.16.38.35.42.63,0,0,0,.02,0,.02,0,0,0,0-.01,0h0Z"/>
            </g>
            <g class="cls-18">
              <path class="cls-6" d="m18.82,11.82c-.02.08-.07.1-.23.32.07.1.38.25.47.16.08-.04.08-.25.08-.25.17.25.46.64.79.72.25.08.49-.09.49-.33s-.37-.64-.54-.81c-.41-.5-.38-1.43-1.16-1.3,0,0-.03.12-.11.14.06.12.1.22-.05.26.12.11.13.2-.02.25.09.12.2.17-.01.27.22.21.26.53.28.56h0Z"/>
            </g>
            <g class="cls-21">
              <path class="cls-3" d="m20.06,12.82s-.09,0-.14-.02c-.25-.06-.5-.29-.78-.71.02.05,0,.2-.07.23-.02.02-.05.02-.08.02h0c-.13,0-.35-.11-.41-.19.07-.12.11-.18.15-.22.04-.05.06-.07.07-.12-.02-.1-.08-.36-.27-.55.07-.06.11-.09.11-.12,0-.02-.02-.05-.06-.09-.02-.02-.03-.04-.05-.06.07-.05.1-.07.1-.1,0-.04-.02-.09-.08-.15.05-.04.08-.06.09-.09.02-.04,0-.1-.04-.18.05-.04.08-.07.11-.14.07-.02.11-.03.16-.03.42,0,.57.36.72.73.09.21.17.42.31.58.16.16.54.57.54.82,0,.21-.17.37-.38.37h0Zm-.93-.76c.31.41.56.64.81.7.24.08.47-.09.47-.31,0-.24-.37-.64-.53-.8-.14-.17-.23-.38-.31-.59-.17-.41-.32-.79-.83-.7-.02.07-.06.12-.11.13.05.04.08.12.06.18-.02.04-.05.06-.11.08.08.04.11.1.1.15,0,.04-.05.07-.12.1.02,0,.04.02.06.03.04.05.07.08.06.12,0,.04-.05.07-.13.11.2.16.26.43.28.52,0,.08-.03.11-.07.16-.03.04-.08.11-.15.2.06.06.38.2.44.14.06-.03.07-.18.07-.23h0Z"/>
            </g>
            <g class="cls-30">
              <path class="cls-6" d="m18.62,4.84c-.25.36-.27,4.31-.2,5.11-.25.16-.71.1-.84.05.06-.29.27-4.87,1.04-5.15h0Z"/>
            </g>
            <g class="cls-28">
              <path class="cls-3" d="m17.98,10.07c-.17,0-.33-.03-.41-.06,0-.07.02-.27.04-.55.11-1.32.36-4.4,1-4.64-.22.38-.25,4.28-.17,5.12-.14.1-.32.12-.45.12h0Zm.62-5.23c-.59.25-.85,3.43-.95,4.63-.02.29-.04.48-.05.54.06,0,.22.04.39.04.13,0,.3-.02.43-.1-.08-.7-.07-4.73.19-5.1h0Z"/>
            </g>
            <g class="cls-29">
              <path class="cls-6" d="m17.91,12.94s-1.1.15-.63-.5c.39-.17.39.23.24.37.18.02.3-.09.33-.27-.22-.3.1-.5.08-.5-.76.17-.86-.35-.58-.43.36.02.24.13.39.24.26-.24.41-.26.56-.02.15-.24.38-.21.39-.19.25.42-.3.45-.52.39.19.2.11.4.05.55,0,.14.11.16.29.22-.38-1.04,1.33.28-.39.14,0,.05,0,.09,0,.14.14.03.24.06.28.21-.06.08-.15.09-.3.04,0,0,.09.24-.07.3-.13-.08-.14-.26-.14-.26-.07.09-.18.03-.27-.04.08-.2.3-.11.29-.39h0Z"/>
            </g>
            <g class="cls-31">
              <path class="cls-6" d="m16.97,9.78c.07-.3.75-.26.43.06.22.35.89.3,1.15.1-.21-.41.37-.32.34,0-.07.55-1.99.48-1.91-.15h0Z"/>
            </g>
            <g class="cls-39">
              <path class="cls-6" d="m29.62,15.03c.2.39.57,1.29.77,1.51.19.17.66.15.81-.04,0,0,.3.31.42.41.07-.03.12-.09.12-.09-.12-.13-.29-.21-.37-.46.12-.16.19-.48.11-.73-.36-.61-1.56-.37-1.85-.59h0Z"/>
            </g>
            <g class="cls-41">
              <path class="cls-3" d="m31.62,16.93h0c-.12-.1-.41-.4-.43-.41-.09.18-.62.21-.81.04-.14-.14-.34-.59-.52-.98-.1-.21-.19-.41-.26-.54.13.06.36.08.63.1.46.04,1.02.09,1.25.48.09.26.01.59-.11.75.06.16.16.24.26.33.04.03.08.07.11.11,0,.03-.05.1-.13.12h0Zm-.44-.44s.32.3.44.4c.06-.03.1-.09.1-.09-.03-.01-.07-.05-.11-.08-.1-.09-.21-.18-.27-.36.12-.17.19-.48.11-.73-.22-.36-.78-.41-1.22-.45-.28-.02-.52-.04-.63-.13.1.11.19.31.28.52.18.39.38.83.51.97.17.15.65.12.78-.04h0Z"/>
            </g>
            <g class="cls-38">
              <path class="cls-6" d="m16.74,4.53c-.2-.38-.57-1.3-.77-1.52-.19-.17-.66-.15-.81.04,0,0-.3-.31-.42-.4-.07.02-.12.09-.12.09.12.13.29.21.37.46-.12.16-.19.48-.11.73.36.6,1.56.36,1.86.59h0Z"/>
            </g>
            <g class="cls-37">
              <path class="cls-3" d="m16.73,4.54c-.11-.08-.34-.1-.61-.12-.45-.04-1.02-.09-1.25-.48-.09-.27-.01-.59.11-.75-.06-.16-.16-.25-.26-.33-.04-.04-.08-.07-.11-.11,0-.03.05-.1.12-.12.14.1.43.4.44.41.09-.18.62-.21.81-.04.13.14.34.59.52.98.1.21.19.41.26.54l-.03.02h0Zm-2-1.88s-.09.09-.09.09c.03.01.07.05.11.08.1.09.2.18.27.36-.12.17-.19.48-.11.73.22.37.78.42,1.22.45.24.02.45.04.57.1-.07-.13-.15-.3-.23-.48-.18-.39-.38-.83-.51-.97-.17-.15-.65-.12-.78.04-.03,0-.33-.31-.45-.4h0Z"/>
            </g>
            <g class="cls-32">
              <path class="cls-6" d="m16.62,14.96c-.39.21-1.3.57-1.51.77-.17.19-.15.66.04.81,0,0-.31.3-.41.43.02.07.09.12.09.12.13-.12.21-.29.46-.38.17.12.48.19.73.11.61-.36.37-1.56.6-1.86h0Z"/>
            </g>
            <g class="cls-33">
              <path class="cls-3" d="m14.84,17.11h-.01s-.08-.05-.1-.13c.1-.14.4-.43.41-.44-.09-.04-.14-.17-.16-.34-.02-.19.03-.37.12-.47.15-.13.59-.34.98-.52.21-.1.41-.19.54-.26-.06.13-.08.36-.1.64-.04.45-.09,1.02-.48,1.25-.08.03-.16.04-.25.04h0c-.19,0-.38-.05-.5-.15-.15.06-.24.16-.33.26-.04.04-.07.08-.11.11h0Zm1.77-2.15c-.11.1-.31.19-.52.29-.39.18-.83.38-.97.51-.08.09-.12.27-.11.44.02.15.07.28.15.34,0,.03-.31.33-.4.45.02.04.06.07.08.09.03-.04.06-.07.09-.1.09-.1.18-.21.36-.27.19.13.51.18.73.11.37-.22.41-.77.45-1.22.02-.28.04-.51.13-.63h0Z"/>
            </g>
            <g class="cls-34">
              <path class="cls-6" d="m29.65,4.53c.2-.38.57-1.3.77-1.52.19-.17.66-.15.81.04,0,0,.3-.31.42-.4.07.02.12.09.12.09-.12.13-.29.21-.37.46.12.16.19.48.11.73-.36.6-1.56.36-1.85.59h0Z"/>
            </g>
            <g class="cls-35">
              <path class="cls-3" d="m29.66,4.54l-.03-.02c.07-.13.17-.33.26-.54.18-.39.39-.84.52-.98.19-.17.69-.14.83.04-.01-.02.28-.31.4-.41.1.02.14.09.14.1-.04.06-.08.09-.11.13-.1.08-.2.17-.26.34.12.15.2.47.11.73-.23.39-.8.44-1.25.48-.27.02-.51.04-.61.12h0Zm1.14-1.62c-.15,0-.29.04-.37.11-.13.14-.33.58-.51.97-.08.18-.16.35-.23.48.13-.05.34-.08.57-.1.45-.04,1-.09,1.22-.46.08-.25,0-.55-.11-.71.06-.2.16-.29.26-.38.04-.03.07-.06.11-.1-.01,0-.05-.05-.1-.07-.1.09-.4.4-.41.4-.1-.09-.26-.15-.44-.15h0Z"/>
            </g>
            <g class="cls-40">
              <path class="cls-6" d="m17.28,10.45c-.02.12.28.18.59.18.3,0,.62-.05.63-.14,0-.16-.27-.02-.58-.02-.31,0-.57-.12-.65-.02h0Z"/>
            </g>
            <g class="cls-36">
              <path class="cls-6" d="m17.88,10.65h-.01c-.11,0-.48-.01-.58-.12-.02-.02-.03-.05-.02-.08.06-.07.17-.06.33-.03.1.02.21.04.33.04h0c.12,0,.22-.02.31-.03.13-.02.23-.03.26,0,.02.02.02.04.02.07-.02.12-.43.15-.64.15h0Zm-.48-.23c-.05,0-.08.01-.11.04,0,0,0,.02.02.04.06.07.27.11.56.12v.02s.01-.02.01-.02c.35,0,.59-.07.6-.12,0-.02,0-.03-.01-.04-.03-.03-.12-.02-.23,0-.09.02-.2.03-.31.03-.13,0-.25-.02-.34-.04-.08-.02-.14-.03-.2-.03h0Z"/>
            </g>
            <g class="cls-24">
              <path class="cls-6" d="m17.31,10.8c0,.12.3.14.56.15.26,0,.53-.04.58-.13-.05-.13-.34-.02-.58-.02-.24,0-.5-.12-.56,0h0Z"/>
            </g>
            <g class="cls-26">
              <path class="cls-6" d="m17.92,10.97h-.05c-.27-.01-.58-.04-.58-.17.03-.06.09-.06.13-.06.05,0,.11.01.18.02.08.02.17.03.25.03.09,0,.17-.01.25-.02.08-.01.15-.02.21-.02.05,0,.13,0,.15.08-.06.11-.32.15-.54.15h0Zm-.51-.2s-.08,0-.09.04c0,.07.19.12.55.12h.05c.25,0,.47-.05.51-.12-.03-.04-.16-.04-.32-.02-.08.02-.16.03-.24.03-.09.01-.2-.02-.28-.03-.07-.02-.13-.02-.18-.02h0Z"/>
            </g>
            <g class="cls-25">
              <path class="cls-6" d="m17.39,11.11c-.02.09.24.15.48.15.24,0,.58-.09.58-.19-.02-.07-.35.03-.58.04-.23,0-.49-.08-.49,0h0Z"/>
            </g>
            <g class="cls-27">
              <path class="cls-6" d="m17.88,11.28h0c-.19,0-.42-.04-.48-.12-.01-.02-.02-.04-.01-.05,0-.05.06-.05.08-.05.04,0,.09,0,.15.02.08.01.16.02.24.02.12,0,.22-.02.31-.04.09-.01.17-.03.23-.03.02,0,.08,0,.09.05,0,.12-.36.2-.6.2h0Zm-.42-.19s-.05,0-.05.02c.05.09.26.13.47.13v.02s0-.02,0-.02c.24,0,.56-.09.56-.17,0,0-.13,0-.27.02-.1.01-.2.03-.29.03-.12,0-.2,0-.27-.02-.06,0-.11-.02-.15-.02h0Z"/>
            </g>
            <g class="cls-22">
              <path class="cls-6" d="m17.36,11.43c.02.09.32.11.58.09.26-.02.53-.1.55-.2-.01-.06-.31.05-.56.06-.25.01-.57-.03-.57.04h0Z"/>
            </g>
            <g class="cls-23">
              <path class="cls-6" d="m17.79,11.55c-.1,0-.42-.01-.44-.12.03-.05.08-.06.2-.06h.27s.08,0,.11,0c.11,0,.22-.02.32-.04.08-.02.15-.03.2-.03.01,0,.05,0,.06.04-.03.11-.31.2-.57.21-.05,0-.1,0-.16,0h0Zm-.24-.14c-.1,0-.15,0-.16.02.01.04.15.09.4.09.05,0,.1,0,.15,0,.27-.02.51-.1.53-.18-.07,0-.14.02-.22.03-.1.02-.22.04-.33.05-.04,0-.07,0-.11,0h-.27Z"/>
            </g>
          </g>
        </g>
      </g>
    </g>
  </g>
</svg>