<?xml version="1.0" encoding="UTF-8" standalone="no"?>
<svg
   xmlns:ns="http://ns.adobe.com/SaveForWeb/1.0/"
   xmlns:dc="http://purl.org/dc/elements/1.1/"
   xmlns:cc="http://creativecommons.org/ns#"
   xmlns:rdf="http://www.w3.org/1999/02/22-rdf-syntax-ns#"
   xmlns:svg="http://www.w3.org/2000/svg"
   xmlns="http://www.w3.org/2000/svg"
   xmlns:sodipodi="http://sodipodi.sourceforge.net/DTD/sodipodi-0.dtd"
   xmlns:inkscape="http://www.inkscape.org/namespaces/inkscape"
   inkscape:version="1.0 (4035a4f, 2020-05-01)"
   sodipodi:docname="SSC_Napoli_2007.svg"
   xml:space="preserve"
   style="enable-background:new 0 0 566 566;"
   viewBox="0 0 566 566"
   y="0px"
   x="0px"
   id="Ebene_1"
   version="1.1"><defs
   id="defs868" /><sodipodi:namedview
   inkscape:current-layer="Ebene_1"
   inkscape:window-maximized="1"
   inkscape:window-y="25"
   inkscape:window-x="0"
   inkscape:cy="201.46009"
   inkscape:cx="9.9772306"
   inkscape:zoom="0.50989413"
   showgrid="false"
   id="namedview866"
   inkscape:window-height="794"
   inkscape:window-width="1440"
   inkscape:pageshadow="2"
   inkscape:pageopacity="0"
   guidetolerance="10"
   gridtolerance="10"
   objecttolerance="10"
   borderopacity="1"
   bordercolor="#666666"
   pagecolor="#ffffff" />
<style
   id="style833"
   type="text/css">
	.st0{fill:#124A93;}
	.st1{fill:url(#SVGID_1_);}
	.st2{fill:#FFFFFF;}
	.st3{fill:#1C8FCE;}
	.st4{fill:url(#SVGID_2_);}
</style>
<metadata
   id="metadata835">
	<ns:sfw>
		<ns:slices />
		<ns:sliceSourceBounds
   y="0"
   x="0"
   width="566"
   height="566"
   bottomLeftOrigin="true" />
	</ns:sfw>
<rdf:RDF><cc:Work
     rdf:about=""><dc:format>image/svg+xml</dc:format><dc:type
       rdf:resource="http://purl.org/dc/dcmitype/StillImage" /></cc:Work></rdf:RDF></metadata>
<g
   id="g863">
	<path
   style="fill:#19428e;fill-opacity:1"
   id="path837"
   d="M0,283C0,126.7,126.7,0,283,0c156.3,0,283,126.7,283,283c0,156.3-126.7,283-283,283C126.7,566,0,439.3,0,283"
   class="st0" />
	<linearGradient
   y2="474.6063"
   x2="474.6071"
   y1="91.3875"
   x1="91.3883"
   gradientUnits="userSpaceOnUse"
   id="SVGID_1_">
		<stop
   id="stop839"
   style="stop-color:#7fa7ca;stop-opacity:1"
   offset="0" />
		<stop
   id="stop841"
   style="stop-color:#5680B9"
   offset="0.1" />
		<stop
   id="stop843"
   style="stop-color:#19428e;stop-opacity:1"
   offset="0.25" />
	</linearGradient>
	<path
   id="path846"
   d="M91.4,91.4C40.2,142.6,12,210.6,12,283c0,72.4,28.2,140.4,79.3,191.6C142.6,525.8,210.6,554,283,554   c72.4,0,140.4-28.2,191.6-79.4C525.8,423.4,554,355.4,554,283c0-72.4-28.2-140.4-79.4-191.6C423.4,40.2,355.4,12,283,12   C210.6,12,142.6,40.2,91.4,91.4"
   class="st1" />
	<path
   id="path848"
   d="M75.2,283c0,114.6,93.2,207.8,207.8,207.8c114.6,0,207.8-93.2,207.8-207.8c0-114.6-93.2-207.8-207.8-207.8   C168.4,75.2,75.2,168.4,75.2,283"
   class="st2" />
	<path
   style="fill:#008ccf;fill-opacity:1"
   id="path850"
   d="M83.2,283c0,110.2,89.6,199.8,199.8,199.8c110.2,0,199.8-89.6,199.8-199.8c0-110.2-89.6-199.8-199.8-199.8   C172.8,83.2,83.2,172.8,83.2,283"
   class="st3" />
	<linearGradient
   y2="419.2283"
   x2="419.2425"
   y1="146.7532"
   x1="146.7674"
   gradientUnits="userSpaceOnUse"
   id="SVGID_2_">
		<stop
   id="stop852"
   style="stop-color:#008ccf;stop-opacity:1"
   offset="0.4" />
		<stop
   id="stop854"
   style="stop-color:#44A4DB"
   offset="0.6" />
		<stop
   id="stop856"
   style="stop-color:#63b1dc;stop-opacity:1"
   offset="1" />
	</linearGradient>
	<path
   id="path859"
   d="M90.3,283c0,106.3,86.4,192.8,192.8,192.8c106.3,0,192.8-86.5,192.8-192.8c0-106.3-86.5-192.8-192.8-192.8   C176.7,90.2,90.3,176.7,90.3,283"
   class="st4" />
	<path
   id="path861"
   d="M164.9,164.1h73l118.8,142c0.8,0.9,2.2,0.4,2.2-0.8V198.6c0-13.6-11-24.6-24.6-24.6H327v-10h74v10h-4.9   c-12.2,0-22.1,9.9-22.1,22.1V400h-9.7L212.3,218.2c-0.4-0.5-1.3-0.2-1.3,0.5v140.3c0,14.4,11.7,26.1,26.1,26.1h5.9v9h-78v-9h8   c12.2,0,22.1-9.9,22.1-22.1V197.5l-11.1-13.2l-4.1-4.9c-2.9-3.4-7.1-5.4-11.5-5.4h-3.3V164.1z"
   class="st2" />
</g>
</svg>
