<?xml version="1.0" encoding="UTF-8"?>
<svg id="Layer_2" data-name="Layer 2" xmlns="http://www.w3.org/2000/svg" viewBox="0 0 329.97 329.93">
  <defs>
    <style>
      .cls-1, .cls-2, .cls-3, .cls-4, .cls-5, .cls-6, .cls-7, .cls-8, .cls-9, .cls-10 {
        stroke-width: 0px;
      }

      .cls-2 {
        fill: #e0d3d4;
      }

      .cls-3 {
        fill: #dd868f;
      }

      .cls-4 {
        fill: #d05460;
      }

      .cls-5 {
        fill: #ce9ca1;
      }

      .cls-6 {
        fill: #bb0a1b;
      }

      .cls-7 {
        fill: #bb091b;
      }

      .cls-8 {
        fill: #bc0b1c;
      }

      .cls-9 {
        fill: #9f9f9f;
      }

      .cls-10 {
        fill: #fefefe;
      }
    </style>
  </defs>
  <g id="Ebene_1" data-name="Ebene 1">
    <g>
      <path class="cls-1" d="m165.02,0c91.68-.07,166.67,75.17,164.92,168.25-1.67,88.88-74.51,162.55-166.72,161.67C72.51,329.05-1.38,254.71.02,162.32,1.38,72.42,74.69-.03,165.02,0Z"/>
      <path class="cls-10" d="m165.03,4c90.03.08,162.56,73.98,160.89,164.13-1.6,86.75-72.96,158.73-162.74,157.77-86.95-.93-156.65-70.59-159.11-156.08C1.44,78.17,75,3.97,165.03,4Z"/>
      <path class="cls-7" d="m297.51,168.64c-7.3-.22-14.6-.45-21.9-.64-.78-.02-.87-.27-.86-.98.27-26.01-7.85-49.17-23.95-69.51-13.97-17.63-31.68-30.06-53.08-37.11-14.15-4.66-28.66-6.26-43.47-4.68-23.51,2.52-44.04,11.9-61.67,27.56-14.96,13.29-25.67,29.46-32.01,48.47-3.38,10.14-5.16,20.56-5.36,31.25-.02,1.32-.09,2.63.02,3.94.07.75-.15,1.02-.97,1.04-5.43.12-10.85.3-16.28.46-9.14.27-18.27.53-27.41.82-.75.02-.82-.3-.84-.91-.22-6.84.11-13.65.85-20.44,1.39-12.74,4.3-25.13,8.79-37.15,7.36-19.68,18.26-37.17,32.68-52.45,12.99-13.76,27.99-24.78,44.99-33.08,13.49-6.58,27.64-11.07,42.45-13.51,9.64-1.59,19.35-2.3,29.11-2.06,19.83.5,38.91,4.54,57.18,12.33,19.69,8.4,36.94,20.34,51.66,35.85,20.11,21.19,33.27,46.1,39.44,74.66,2.01,9.3,3.12,18.73,3.31,28.25.05,2.32.07,4.63.08,6.95,0,1.54-.01,1.5-1.59,1.46-5.19-.15-10.38-.28-15.57-.39-1.87-.04-3.75,0-5.63,0v-.16Z"/>
      <path class="cls-1" d="m173.18,270.02c-65.47.46-113.89-46.7-113.36-106.25.51-56.69,46.76-103.95,105.15-103.99,58.03-.05,106.14,47.38,105.14,106.89-.48,28.47-11.06,52.99-31.35,73.02-20.26,19.99-44.85,29.97-65.57,30.33Z"/>
      <path class="cls-1" d="m125.73,283.41c-1.13,4.55-2.23,9.08-3.45,13.58-.63,2.34-1.3,4.68-1.87,7.04-.17.7-.38.78-1.03.59-1.52-.46-3.07-.85-4.62-1.22-.55-.13-.68-.3-.52-.89,2.5-9.31,4.98-18.63,7.44-27.95.15-.57.31-.67.88-.51,2.15.61,4.3,1.2,6.47,1.71.64.15.72.57.83,1.01,1.76,7.2,4.07,14.27,4.96,21.66.02.14.1.28.23.6.64-2.89,1.18-5.6,1.83-8.28.92-3.75,1.94-7.48,2.9-11.22.15-.59.33-.85,1.03-.63,1.44.46,2.91.86,4.39,1.17.79.17.93.46.73,1.21-1.8,6.65-3.56,13.31-5.34,19.97-.67,2.5-1.35,5-1.99,7.52-.17.66-.32.93-1.09.69-1.79-.56-3.61-1.02-5.43-1.45-.57-.13-.8-.42-.91-.93-1.84-7.88-4.21-15.63-5.44-23.65Z"/>
      <path class="cls-1" d="m283.42,197.6c6.82,1.09,13.55,2.58,20.33,3.89.83.16.97.5.78,1.26-.36,1.43-.7,2.87-.9,4.33-.11.8-.37.83-1.07.68-6.87-1.43-13.74-2.83-20.62-4.23-2.5-.51-4.99-1.06-7.5-1.53-.59-.11-.72-.33-.61-.86.47-2.18.95-4.36,1.36-6.56.1-.54.38-.7.83-.84,7.11-2.22,14.07-4.91,21.44-6.24.1-.02.19-.1.56-.3-2.03-.3-3.8-.55-5.56-.82-4.73-.74-9.39-1.86-14.09-2.73-.85-.16-.85-.56-.71-1.2.32-1.44.66-2.88.9-4.34.12-.74.31-.87,1.07-.72,6.94,1.46,13.9,2.86,20.85,4.29,2.34.48,4.68,1,7.04,1.43.77.14.99.38.81,1.15-.42,1.78-.82,3.58-1.13,5.38-.11.64-.41.87-.94,1.03-7.44,2.22-14.75,4.88-22.36,6.51-.37.08-.69.33-1.05.31.16.08.4-.05.58.12Z"/>
      <path class="cls-1" d="m232.57,275.82c1.13-.13,2.15-.3,3.19-.16,5.42.73,8.35,6.72,5.71,11.7-1.02,1.91-2.54,3.38-4.23,4.66-3.16,2.39-6.64,4.24-10.24,5.87-.7.32-.95.11-1.28-.47-4.63-8.09-9.29-16.17-13.94-24.25-.22-.39-.6-.77.01-1.21,3.91-2.84,7.87-5.6,12.51-7.12,1.65-.54,3.39-.62,5.09-.19,3.94.98,6,5.23,4.38,8.96-.31.72-.75,1.39-1.2,2.22Z"/>
      <path class="cls-1" d="m41.33,201.27c-.09.64-.13,1.14-.24,1.63-.73,3.24-2.72,5.31-5.98,5.93-3.52.67-6.37-.65-8.46-3.49-2.15-2.92-3.05-6.36-3.88-9.82-.45-1.86-.79-3.74-1.03-5.64-.08-.67.03-.98.76-1.16,9.1-2.19,18.19-4.42,27.28-6.64.51-.12.88-.15,1.11.49,1.61,4.55,3.17,9.11,3.3,14.01.03,1.25-.23,2.46-.65,3.62-1.69,4.61-7.29,5.92-10.83,2.53-.45-.43-.85-.9-1.37-1.45Z"/>
      <path class="cls-1" d="m250.65,246.99c6.22,0,12.77,4.99,15.29,11.62,1.37,3.6,1.45,7.24-.33,10.67-2.87,5.51-7.2,9.05-13.73,8.89-4.38-.11-7.92-2.26-10.84-5.4-3.91-4.22-5.88-9.08-4.39-14.89,1.5-5.87,7.89-11.19,14-10.88Z"/>
      <path class="cls-1" d="m32.71,223.77c.04-4.41,1.93-7.97,5.32-10.63,5.36-4.19,11.27-5.93,17.85-3.09,7.28,3.15,12.91,15.64,3.41,23.83-4.03,3.47-8.75,5.29-14.12,4.67-5.9-.69-10.76-5.51-12.12-11.69-.22-1.02-.34-2.04-.34-3.09Z"/>
      <path class="cls-1" d="m175.32,295.74c0,3.15-.44,5.82-1.6,8.32-2.49,5.4-7.75,8.32-14.02,8.03-8.21-.38-13.02-6.4-13.49-13.88-.25-3.95.41-7.71,2.61-11.08,3.3-5.08,9.33-7.38,15.62-5.99,5.68,1.25,9.66,5.61,10.62,11.57.18,1.15.21,2.3.26,3.04Z"/>
      <path class="cls-1" d="m83.13,287.35c3-3.11,5.98-6.28,9.05-9.35,4.15-4.15,8.38-8.22,12.55-12.35.53-.53.9-.67,1.6-.26,2.07,1.2,4.18,2.32,6.3,3.42.57.3.77.54.63,1.26-1.98,9.81-3.92,19.63-5.85,29.45-.13.68-.28.9-.98.5-1.69-.97-3.42-1.89-5.14-2.8-.45-.24-.59-.46-.47-1.02.5-2.18.87-4.38,1.37-6.55.14-.62-.05-.85-.53-1.1-2.07-1.1-4.14-2.22-6.19-3.37-.62-.35-.94-.2-1.39.29-1.4,1.53-2.9,2.97-4.3,4.5-.51.56-.9.55-1.51.2-1.76-1.01-3.56-1.95-5.14-2.81Z"/>
      <path class="cls-1" d="m278.65,219.67c.49-.02.45-.49.57-.78,1.17-2.75,2.37-5.48,3.44-8.27.39-1.03.8-1.14,1.72-.66.98.52,2.03.93,3.08,1.3.71.25.89.53.56,1.28-1.23,2.81-2.37,5.65-3.6,8.46-.33.76-.2,1.06.58,1.35,1.57.57,3.11,1.23,4.63,1.94.76.36,1.11.29,1.45-.54,1.31-3.25,2.71-6.46,4.03-9.7.25-.62.44-.86,1.15-.51,1.25.61,2.56,1.1,3.85,1.62.47.19.54.39.34.87-2.34,5.54-4.66,11.08-6.96,16.63-.22.54-.47.57-.98.36-8.88-3.74-17.76-7.46-26.66-11.16-.62-.26-.57-.54-.36-1.04,2.22-5.24,4.43-10.49,6.6-15.75.29-.7.56-.78,1.2-.48,1.19.55,2.4,1.07,3.63,1.53.64.24.73.51.46,1.13-1.32,3.07-2.58,6.17-3.92,9.23-.31.72-.2,1.01.53,1.28,1.34.49,2.65,1.09,3.97,1.65.22.09.44.17.69.27Z"/>
      <path class="cls-1" d="m87.86,259.16c-2.76-2.35-5.42-4.63-8.09-6.89q-1.89-1.6-.31-3.46c.7-.82,1.4-1.63,2.14-2.5,4.79,4.07,9.56,8.13,14.32,12.18.06.05.13.1.18.16.67.74,2.34,1.45,2,2.04-.77,1.31-1.62,2.79-3.43,3.26-7.25,1.89-14.47,3.88-21.7,5.83-.38.1-.77.21-1.35.38,2.01,1.71,3.91,3.33,5.82,4.95,1.52,1.29,3.02,2.61,4.57,3.87.48.39.55.64.11,1.12-.92,1-1.8,2.03-2.64,3.1-.4.51-.67.61-1.21.14-5.58-4.78-11.18-9.54-16.79-14.28-.5-.42-.41-.65-.08-1.13,1.14-1.67,2.69-2.49,4.65-2.97,7-1.74,13.96-3.65,20.93-5.49.26-.07.51-.17.9-.31Z"/>
      <path class="cls-1" d="m276.65,248.59c1.13-1.7,2.15-3.21,3.16-4.73,1.46-2.19,2.94-4.37,4.38-6.57.35-.53.6-.71,1.19-.28,1.13.82,2.3,1.59,3.48,2.33.5.31.52.53.19,1.01-4.12,6.12-8.22,12.25-12.29,18.4-.36.54-.58.52-1.11.22-1.65-.93-2.72-2.18-3.41-4.04-2.54-6.82-5.29-13.57-7.96-20.35-.1-.26-.22-.51-.39-.9-1.02,1.51-1.98,2.91-2.92,4.32-1.29,1.92-2.6,3.83-3.84,5.79-.43.68-.75.73-1.38.26-1.06-.78-2.16-1.5-3.28-2.2-.51-.32-.61-.56-.25-1.09,3.83-5.69,7.65-11.38,11.45-17.09.32-.47.5-.47.99-.2,1.9,1.03,3.09,2.47,3.87,4.56,2.56,6.82,5.33,13.56,8.11,20.58Z"/>
      <path class="cls-1" d="m62.03,260.8c-1.29,1.03-2.57,1.99-3.78,3.03-.59.51-.9.48-1.39-.15-3.51-4.46-7.04-8.9-10.6-13.31-.53-.66-.47-.94.18-1.45,6.05-4.78,12.07-9.59,18.09-14.4,1.44-1.15,2.89-2.27,4.29-3.45.45-.38.67-.34,1.02.12,1.04,1.36,2.09,2.73,3.22,4.02.61.69.5,1.01-.19,1.56-5.83,4.6-11.61,9.27-17.46,13.85-.83.65-.76,1-.15,1.73,2.28,2.77,4.49,5.6,6.76,8.45Z"/>
      <path class="cls-1" d="m196.05,300.77c-3.3-.02-5.88-2.64-5.87-5.96.01-3.36,2.65-5.94,6.05-5.91,3.3.03,5.9,2.67,5.89,5.96-.01,3.34-2.67,5.93-6.06,5.91Z"/>
      <path class="cls-9" d="m283.42,197.6c-.18,0-.37,0-.61,0,.3-.46.68-.48,1.08-.43-.16.14-.32.29-.47.43Z"/>
      <path class="cls-10" d="m144.83,44.71c0-9.06,0-18.13-.01-27.19,0-.63.05-1.03.82-1.15,6.09-.93,12.19-1.55,18.35-.75,8.7,1.14,14.08,7.29,14.12,16.05.02,4.74-.84,9.21-3.77,13.08-2.96,3.92-7.15,5.77-11.76,6.8-5.46,1.23-11,1.19-16.56.86-.95-.06-1.07-.41-1.06-1.23.05-2.16.02-4.31.02-6.47-.05,0-.1,0-.15,0Z"/>
      <path class="cls-10" d="m250.92,85.85c.56-7.87,5.26-13.62,12.82-17.23,4.33-2.07,8.86-2.26,13.34-.36,11.87,5.03,14.95,20.06,6.05,29.4-2.65,2.78-5.69,5-9.36,6.26-5.43,1.87-10.51,1.14-15.01-2.43-4.75-3.77-7.67-8.59-7.84-15.63Z"/>
      <path class="cls-10" d="m247.77,64.36c1.27,2.52.99,4.99.27,7.45-1.04,3.55-2.56,6.95-3.53,10.53-.15.54-.37.49-.75.22-2.35-1.72-4.7-3.44-7.07-5.14-.63-.45-.33-1.02-.21-1.52.61-2.44,1.48-4.79,2.36-7.14.33-.89.68-1.8.87-2.73.47-2.32-.86-4.65-3.02-5.53-.68-.28-.73.34-.93.63-2.17,3.16-4.35,6.31-6.43,9.52-.55.85-.9.77-1.6.23-1.96-1.5-3.97-2.96-6-4.37-.72-.5-.87-.84-.33-1.64,4.98-7.28,9.91-14.59,14.85-21.89,1.41-2.08,2.83-4.15,4.22-6.25.33-.49.58-.75,1.21-.39,5.08,2.95,10.08,6.03,14.24,10.24,2.06,2.08,3.65,4.46,3.77,7.52.28,6.71-4.91,11.25-11.94,10.25Z"/>
      <path class="cls-10" d="m104.48,62.53c-.09,2.98-1.14,5.62-2.98,7.92-3.64,4.53-8.32,7.48-13.91,9.04-.81.23-1.1.05-1.38-.72-.72-2.02-1.53-4.02-2.35-6.01-.27-.67-.27-.9.56-1.08,3.51-.78,6.75-2.17,9.4-4.7.44-.42.81-.88,1.08-1.42.9-1.84-.15-3.65-2.19-3.74-1.71-.07-3.3.5-4.91.95-2.67.73-5.34,1.26-8.15.86-5.56-.78-8.39-6.06-8.1-10.52.19-2.98,1.37-5.57,3.28-7.81,3.22-3.76,7.23-6.34,12-7.73.76-.22,1.13-.13,1.39.69.61,1.94,1.3,3.85,2.03,5.75.31.81.24,1.13-.68,1.33-2.57.57-4.86,1.76-6.91,3.4-.66.53-1.23,1.15-1.62,1.9-.94,1.79.09,3.47,2.11,3.4,1.53-.05,2.98-.51,4.44-.94,2.82-.82,5.67-1.47,8.61-.95,4.73.85,8.28,5.35,8.28,10.35Z"/>
      <path class="cls-10" d="m56.81,72.6c-1.38,1.02-2.67,2.07-3.77,3.36-6.68,7.86-2.23,15.45,5.06,18.28,3.79,1.47,7.55.22,10.33-3.2,1.5-1.84,2.63-3.91,3.38-6.16.25-.76.5-.71,1.07-.42,1.66.86,3.31,1.77,5.03,2.5,1.03.44,1.15.97.8,1.92-1.97,5.28-4.97,9.8-9.52,13.21-1.55,1.16-3.27,1.99-5.14,2.5-3.7,1-7.31.67-10.74-.97-6.57-3.15-11.09-8.01-12.22-15.46-.48-3.17-.05-6.29,1.06-9.31,1.75-4.76,4.6-8.72,8.6-11.86.63-.49,1.05-.57,1.62.19,1.4,1.84,2.92,3.59,4.43,5.42Z"/>
      <path class="cls-10" d="m49.6,108.88c-.09.25-.18.51-.28.77-1.25,3.27-2.48,6.56-3.77,9.82-.3.77-.28,1.13.6,1.48,3.63,1.45,7.2,3.02,10.81,4.5.74.31.93.59.6,1.39-1,2.43-1.91,4.9-2.8,7.37-.24.66-.44.87-1.16.56-10.68-4.52-21.36-9.01-32.06-13.49-.6-.25-.73-.5-.48-1.13,2.6-6.77,5.17-13.55,7.72-20.33.27-.72.57-.76,1.21-.47,1.82.82,3.64,1.61,5.51,2.32.85.32,1.06.65.7,1.54-1.4,3.51-2.69,7.07-4.08,10.59-.31.79-.27,1.18.6,1.49,1.42.51,2.82,1.11,4.19,1.75.71.33.99.24,1.28-.54,1.21-3.33,2.55-6.62,3.74-9.95.35-.97.71-1.05,1.59-.64,1.77.83,3.59,1.52,5.38,2.29.28.12.77.1.71.65Z"/>
      <path class="cls-10" d="m193.1,26.93c.18-.62-.4-.53-.72-.62-2.43-.62-4.87-1.25-7.32-1.78-.76-.17-.85-.46-.7-1.13.47-2.1.91-4.21,1.3-6.32.14-.74.43-.87,1.12-.7,8.63,2.13,17.26,4.25,25.9,6.34.72.17.97.35.78,1.17-.51,2.09-.92,4.21-1.3,6.33-.14.77-.47.84-1.14.67-2.39-.62-4.8-1.18-7.19-1.79-.71-.18-1.08-.21-1.27.74-1.71,8.52-3.51,17.02-5.25,25.54-.16.8-.33,1.12-1.29.85-2.53-.72-5.1-1.31-7.66-1.89-.7-.16-.86-.35-.7-1.1,1.78-8.42,3.51-16.86,5.26-25.29.06-.31.12-.63.2-.99Z"/>
      <path class="cls-10" d="m136.42,45.27c-.05,4.87-1.99,8.74-6,11.51-3.25,2.24-6.85,3.62-10.8,3.85-3.92.22-7.14-1.31-9.67-4.32-2.5-2.97-3.72-6.56-4.94-10.15-.42-1.24-.79-2.51-1.26-3.73-.22-.57-.17-.83.45-1.05,2.62-.96,5.23-1.94,7.82-2.96.67-.26.8.02.98.55.74,2.23,1.52,4.45,2.27,6.67.47,1.4,1.04,2.76,1.9,3.97,1.61,2.27,3.6,3.04,5.87,2.28,2.66-.89,3.95-2.81,3.85-5.64-.1-2.81-1.27-5.33-2.09-7.95-.36-1.14-.73-2.28-1.17-3.39-.23-.57-.17-.84.44-1.06,2.62-.96,5.23-1.95,7.83-2.94.42-.16.72-.29.9.3,1.21,3.95,2.99,7.74,3.44,11.91.08.71.12,1.43.18,2.14Z"/>
      <path class="cls-10" d="m304.27,110.49c.03.61-.57.56-.91.7-7.83,3.16-15.68,6.29-23.52,9.43-.04.01-.08.02-.11.04q-1.54.61-.96,2.13c1.34,3.54,2.65,7.09,4.05,10.61.32.81.13,1.08-.61,1.35-1.98.74-3.94,1.53-5.88,2.34-.57.24-.85.28-1.12-.43-2.6-6.94-5.23-13.87-7.91-20.77-.38-.97.27-.98.77-1.18,10.02-4.02,20.03-8.03,30.06-12.02.9-.36,1.95-1.26,2.71-.82.65.38.78,1.66,1.13,2.55.69,1.78,1.37,3.57,2.05,5.36.09.22.16.45.26.72Z"/>
      <path class="cls-10" d="m229.89,30.44c-.09.25-.17.47-.26.7-4.24,10.7-8.49,21.4-12.72,32.1-.24.61-.42.9-1.16.56-2.46-1.14-4.94-2.23-7.44-3.27-.73-.3-.72-.6-.47-1.24,4.27-10.73,8.52-21.47,12.76-32.22.23-.57.41-.82,1.11-.5,2.5,1.15,5.03,2.21,7.55,3.32.25.11.69.1.62.55Z"/>
      <path class="cls-10" d="m130.87,25.57c.08.42-.21.5-.47.6-2.68,1.02-5.37,2.03-8.04,3.05-.43.17-.65.07-.8-.37-.69-2.08-1.41-4.15-2.12-6.22-.15-.43,0-.64.43-.8,2.69-1,5.36-2.04,8.04-3.06.25-.09.54-.24.68.16.76,2.22,1.53,4.44,2.28,6.63Z"/>
      <path class="cls-10" d="m108.33,26.22c.39-.04.4.28.48.54.69,2.03,1.38,4.06,2.09,6.09.18.5.04.69-.44.87-2.68.99-5.36,2-8.02,3.05-.48.19-.63.02-.76-.37-.7-2.07-1.41-4.14-2.13-6.2-.16-.46,0-.65.4-.8,2.72-1.02,5.43-2.05,8.14-3.08.07-.03.15-.06.23-.1Z"/>
      <path class="cls-10" d="m136.3,261.86c-3.2-.79-6.27-1.97-9.31-3.22.46-1.3,1.69-1.86,2.62-2.69,2.01-1.8,4.05-3.56,6.19-5.34-5.68,1.15-11.3,2.24-16.89,3.4-.55.11-1.09.24-1.64.02-3.89-2.01-7.63-4.27-11.1-6.95.37-.52.96-.52,1.5-.63,11.19-2.29,22.36-4.68,33.57-6.89,1.52-.3,2.73-1.01,3.86-2.01,4.47-3.93,8.99-7.8,13.49-11.69,3.53-3.05,7.07-6.11,10.58-9.18,1.33-.61,2.8-.6,4.2-.85,8.85-1.57,16.69-5.28,23.64-10.96,1.24-1.01,2.22-2.3,3.59-3.15,4.57-1.16,9.22-1.97,13.83-2.95,4.22-.89,8.45-1.76,12.68-2.62.99-.2,1.75-.74,2.48-1.37,6.39-5.55,12.8-11.08,19.21-16.61,4.71-4.07,9.41-8.17,14.14-12.21.07-.06.1-.12.08-.27-3.88.73-7.73,1.56-11.6,2.34-7.91,1.6-15.8,3.31-23.74,4.76-2.26.41-3.57,2.02-5.12,3.34-2.95,2.51-5.82,5.11-8.74,7.66-.49.42-.92,1.03-1.71,1-.36-.24-.21-.58-.11-.86,1.55-4.2,2.38-8.58,3.09-12.98.45-.87,1.22-1.44,1.94-2.06,1.22-1.05,2.46-2.08,3.71-3.25-1.45.27-2.8.57-4.15.82-.43.08-.94.38-1.26-.24-.13-2.95-.42-5.88-.7-8.82.2-.65.81-.58,1.29-.67,3.49-.68,6.95-1.51,10.45-2.13,1.23-.22,2.26-.71,3.18-1.52,7.17-6.29,14.42-12.49,21.63-18.74,2.08-1.8,4.21-3.56,6.24-5.42.45-.41.89-.95,1.62-.88,1.14,2.76,2.08,5.59,2.92,8.45-.21.88-.92,1.38-1.55,1.93-4.54,3.95-9.04,7.96-13.57,11.92-4.2,3.67-8.36,7.4-12.6,11.03-.11.1-.29.16-.26.38,8.92-1.8,17.82-3.68,26.73-5.5,1.21-.25,2.43-.48,3.64-.73.42-.08.85-.25,1.27.02.54,6.57.67,13.15-.04,19.72-.9,1.52-2.39,2.46-3.67,3.59-5.21,4.59-10.42,9.19-15.64,13.77-4.1,3.6-8.21,7.2-12.47,10.94,8.1-1.68,16-3.31,23.9-4.92.86-.17,1.72-.69,2.65-.23-1.32,4.06-2.96,7.98-5,11.74-.48.51-1.14.54-1.76.67-8.69,1.75-17.39,3.47-26.08,5.25-1.18.24-2.16.74-3.05,1.53-6.46,5.71-12.94,11.39-19.42,17.08-4.5,3.95-9,7.9-13.65,12.04,2.57-.53,4.94-.98,7.29-1.48,7.15-1.5,14.31-2.96,21.47-4.44,2.23-.46,4.45-.96,6.69-1.37,1.02-.19,1.85-.67,2.62-1.34,4.54-3.97,9.09-7.91,13.67-11.83.97-.83,1.93-1.68,2.89-2.52.4-.35.79-.83,1.44-.64.02.4-.25.66-.45.94-7.61,10.53-16.89,19.28-27.83,26.28-.33.21-.69.39-1.04.58-3.01,1.11-6.18,1.51-9.3,2.16-7.92,1.65-15.88,3.16-23.8,4.8-1.27.26-2.29.81-3.23,1.67-2.03,1.86-4.1,3.66-6.19,5.45-.36.31-.74.61-1.24.67-4.43.41-8.86.66-13.3.32-.07-.53.32-.79.65-1.07,5.46-4.67,10.85-9.42,16.32-14.08.02-.02.02-.06.05-.15-3.91.76-7.78,1.52-11.65,2.33-7.27,1.53-14.55,3.05-21.86,4.35-2.84.5-5.08,1.7-7.01,3.71-.36.37-.72.76-1.28.83Z"/>
      <path class="cls-10" d="m148.14,65.29c4.46-.77,8.97-1.12,13.49-1.4.08.03.15.04.23.06.32.07.8-.22.93.25.09.32-.27.54-.51.76-3.18,2.84-6.41,5.64-9.6,8.47-1.24,1.1-2.53,2.16-3.8,3.38,8.92-1.86,17.74-3.67,26.56-5.49,2.93-.6,5.85-1.28,8.79-1.8,1.1-.2,2.04-.62,2.8-1.46.54-.59,1.19-1.06,1.98-1.29,3.29.9,6.6,1.72,9.76,3.02.14.52-.34.66-.6.91-2.25,2.1-4.63,4.06-6.92,6.11.17.12.28-.08.43-.06,4.85-1.03,9.7-2.03,14.55-3.02.63-.13,1.25-.27,1.89-.09,4.18,1.94,8.2,4.15,12,6.76-.34.65-1.02.57-1.58.69-8.32,1.77-16.68,3.36-25.02,5.07-2.54.52-5.07,1.16-7.64,1.53-1.84.27-3.25,1.12-4.59,2.32-6.44,5.74-12.94,11.4-19.42,17.09-3.75,3.29-7.5,6.58-11.23,9.89-1.99.91-4.14,1.42-6.14,2.34-2.46,1.14-4.91,2.29-7.17,3.8-.43.29-.89.53-1.39.68-7.11,1.51-14.26,2.84-21.38,4.33-4.93,1.03-9.87,2.01-14.81,2.98-1.04.2-1.86.69-2.61,1.37-4.9,4.41-9.88,8.72-14.83,13.07-5.76,5.06-11.49,10.15-17.3,15.16-.29.25-.54.61-1.02.47.05-3.82.5-7.61,1.03-11.38.06-.43.13-.86.19-1.3.31-.9,1.14-1.32,1.79-1.88,5.02-4.32,10.02-8.67,15.03-13,3.68-3.17,7.38-6.33,11.15-9.68-1.2.07-2.16.4-3.15.59-5.8,1.15-11.59,2.33-17.39,3.47-.57.11-1.17.36-1.71-.12,1.58-3.97,3.37-7.84,5.49-11.56.49-.48,1.13-.57,1.76-.69,6.43-1.26,12.81-2.76,19.26-3.9,2.46-.43,4.35-1.53,6.14-3.16,3.87-3.51,7.9-6.86,11.85-10.29,4.4-3.82,8.8-7.64,13.22-11.44,2.42-2.08,4.77-4.25,7.27-6.22-.16-.12-.25.09-.38.07-8.67,1.81-17.34,3.56-26.02,5.29-2.5.5-5,1.01-7.51,1.5-.53.1-1.1.32-1.59-.14,4.42-3.9,9.31-7.14,14.4-10.08,2.06-1.19,4.14-2.34,6.32-3.3,3.96-1.26,8.08-1.81,12.12-2.71,2.88-.64,5.77-1.25,8.67-1.78.98-.18,1.76-.67,2.5-1.32,1.16-1.02,2.2-2.21,3.66-2.84Z"/>
      <path class="cls-10" d="m220.91,80.85c2.92,1.92,5.74,3.96,8.37,6.26-.28.72-1,.58-1.53.68-1.21.22-2.21.69-3.16,1.52-6.62,5.83-13.23,11.67-19.87,17.48-4.23,3.71-8.42,7.47-12.71,11.12-.2.17-.45.32-.59.66,5.82-1.21,11.59-2.39,17.36-3.58,5.71-1.18,11.42-2.4,17.14-3.52,1.69-.33,3.03-1.06,4.28-2.18,3.51-3.14,7.1-6.19,10.68-9.25.29-.25.55-.61,1.03-.48,1.92,2.14,3.66,4.41,5.3,6.77.04.46-.28.72-.58.99-4.15,3.56-8.18,7.25-12.35,10.79-.12.1-.25.19-.31.45,3.69-.74,7.34-1.5,10.99-2.27,2.15-.45,4.31-.86,6.45-1.31.48-.1.95-.16,1.4.08,1.8,3.09,3.37,6.3,4.83,9.57-.44.58-1.12.56-1.73.68-8.63,1.83-17.28,3.58-25.95,5.2-2.9.54-5.24,1.71-7.38,3.74-3.24,3.07-6.68,5.93-10.04,8.88-.5.44-.98.95-1.67,1.13-.37-.04-.56-.31-.7-.59-1.09-2.23-2.41-4.33-3.74-6.42-.11-.17-.16-.36-.15-.57,1.07-1.52,2.62-2.53,3.99-3.73,3.36-2.94,6.75-5.85,10.25-8.89-.61-.1-1.04.06-1.46.15-6.23,1.21-12.44,2.52-18.66,3.78-.63.13-1.25.29-1.89.08-1.26-.64-2.2-1.69-3.31-2.53-6.81-5.18-14.46-8.33-22.86-9.72-1.02-.17-2.06-.18-3.06-.49-.22-.15-.37-.34-.32-.62,1.43-.79,3.06-.84,4.6-1.17,3.2-.7,6.39-1.44,9.62-1.96,1.77-.29,3.19-1.03,4.52-2.2,6.75-5.98,13.61-11.82,20.42-17.73,3.92-3.4,7.83-6.8,11.78-10.15.3-.25.56-.59,1.01-.59Z"/>
      <path class="cls-10" d="m69.51,198.11c-1.16-2.95-2-5.99-2.72-9.07-.02-.46.28-.72.58-.98,4.81-4.14,9.6-8.29,14.39-12.44,3.76-3.26,7.54-6.51,11.51-9.96-.82.05-1.36.25-1.91.36-8.54,1.68-17.04,3.49-25.59,5.15-.56.11-1.14.45-1.72.04-.21-3.05-.13-6.09-.07-9.14.36-.53.97-.52,1.5-.63,9.96-2.07,19.93-4.16,29.9-6.17q5.47-1.11,9.77-4.92c5.54-4.88,11.17-9.64,16.73-14.51.44-.39.88-.82,1.51-.93.21.02.34.12.41.32.03.44-.22.76-.46,1.08-3.68,5.02-6.25,10.57-7.83,16.58-.11.43-.25.84-.53,1.2-2.91,2.66-5.92,5.2-8.72,7.72,2.13-.47,4.42-1,6.74-1.38.37-.06.82-.05.98.46-.08,2.89.07,5.78-.13,8.66-.3.65-.95.67-1.52.78-3.91.79-7.82,1.62-11.74,2.37-1.51.29-2.78.87-3.9,1.9-4.21,3.85-8.55,7.56-12.83,11.33-3.59,3.16-7.16,6.36-10.81,9.46-.85.72-1.61,1.55-2.52,2.21-.31.23-.55.61-1.02.48Z"/>
      <path class="cls-10" d="m85.52,227.32c-1.87-2.19-3.53-4.54-5.05-6.98.3-1.16,1.39-1.62,2.17-2.29,3.52-3.05,7.02-6.13,10.63-9.2-5.28,1.05-10.51,2.1-15.74,3.14-.65.13-1.31.45-1.98.08-1.7-3.11-3.19-6.31-4.46-9.61.36-.67,1.05-.67,1.66-.79,8.76-1.77,17.5-3.67,26.27-5.36,1.62-.31,2.73-1.22,3.86-2.22,3.83-3.37,7.73-6.67,11.57-10.03.57-.5,1.06-1.24,1.99-1.16.84.77.96,1.89,1.41,2.85.68,1.44,1.23,2.94,2.08,4.29.21.34.39.7.28,1.12-1.47,1.68-3.27,3.01-4.92,4.5-2.87,2.58-5.8,5.08-8.85,7.8,1.41-.15,2.57-.51,3.75-.74,4.89-.97,9.76-2,14.64-3.01.47-.1.93-.25,1.42-.16.37.07.66.28.89.56,2.42,2.88,5.36,5.17,8.37,7.38.35.26.9.45.59,1.09-.42.37-.95.39-1.46.49-11.2,2.23-22.38,4.59-33.59,6.75-1.8.35-3.31,1-4.63,2.25-2.92,2.78-6.08,5.29-9.04,8.03-.55.5-1.07,1.09-1.87,1.23Z"/>
      <path class="cls-7" d="m123.42,135.01c-7.21,6.22-14.43,12.44-21.64,18.68-.59.52-1.22.83-1.99.99-11.59,2.38-23.17,4.78-34.75,7.18-.35.07-.7.14-1.05.21,0-.31.01-.61.02-.92,6.21-5.44,12.43-10.88,18.64-16.33,5.01-4.39,10.03-8.79,15.02-13.2.52-.46,1.08-.6,1.72-.73,12.04-2.43,24.08-4.87,36.11-7.31.15-.03.32-.01.48-.02.03.49-.36.68-.68.9-3.69,2.6-6.92,5.69-9.86,9.1-.33.39-.71.75-1.12,1.07-.26.22-.6.28-.91.38Z"/>
      <path class="cls-7" d="m220.91,80.85c-4.57,3.99-9.13,7.98-13.71,11.95-6.85,5.93-13.72,11.84-20.56,17.78-.5.44-1.01.71-1.66.84-5.31,1.08-10.62,2.18-15.93,3.27-.23.28-.52.45-.86.56-1.03.15-2.07-.03-3.1-.02-4.36.03-8.66.5-12.91,1.53-.56.13-1.14.46-1.71.02,5.05-4.46,10.09-8.94,15.15-13.39,5.63-4.96,11.27-9.9,16.89-14.86.5-.44,1.01-.69,1.67-.82,11.8-2.36,23.59-4.75,35.39-7.13.19-.04.37-.14.55-.21.36,0,.58.22.79.48Z"/>
      <path class="cls-7" d="m247.47,223.06c-1.74,1.06-3.14,2.54-4.67,3.85-4.49,3.84-8.98,7.68-13.38,11.62-1.26,1.12-2.75,1.2-4.19,1.5-11.08,2.32-22.17,4.58-33.25,6.87-.42.09-.83.18-1.39.06,4.77-4.2,9.47-8.32,14.16-12.45,6.56-5.77,13.14-11.53,19.68-17.33.9-.8,1.86-1.25,3.04-1.48,9.31-1.83,18.6-3.72,27.9-5.59-1.75,3.88-4.01,7.47-6.34,11.02-.45.68-.76,1.5-1.54,1.92Z"/>
      <path class="cls-7" d="m169.41,216.79c-4.6,4.01-9.19,8.02-13.8,12.02-3.82,3.32-7.67,6.62-11.49,9.95-.46.4-.95.69-1.56.81-12.13,2.49-24.27,5-36.4,7.5-.13-.09-.27-.17-.4-.26.58-1.35,1.87-2.02,2.89-2.92,3.73-3.3,7.46-6.6,11.22-9.87,3.61-3.14,7.2-6.3,10.79-9.46,2.99-2.63,6.03-5.21,8.96-7.92.54-.5,1.12-.89,1.85-1.03,2.43-.46,4.84-1.01,7.28-1.43,1.77.31,3.49.84,5.24,1.25,4.43,1.03,8.94,1.1,13.45,1.03.66,0,1.37-.16,1.95.33Z"/>
      <path class="cls-7" d="m136.37,80.58c-11.51,9.95-23.02,19.89-34.51,29.86-.7.6-1.44.93-2.32,1.1-7.7,1.57-15.39,3.16-23.08,4.75,1.6-3.31,3.65-6.35,5.75-9.35,4.85-6.92,10.52-13.12,16.92-18.65.41-.36.89-.65,1.34-.97,2.47-.16,4.85-.85,7.26-1.33,9.4-1.86,18.79-3.77,28.18-5.67.23-.04.52-.21.47.25Z"/>
      <path class="cls-7" d="m116.42,182.84c-4.86,4.19-9.74,8.37-14.58,12.58-.63.55-1.29.86-2.1,1.03-9.33,1.91-18.65,3.83-27.97,5.76-.23.05-.44.17-.66.25-.61-1.42-1.2-2.85-1.59-4.35,6.83-5.99,13.67-11.97,20.5-17.96,2.58-2.26,5.15-4.52,7.71-6.8.37-.33.79-.53,1.26-.63,4.88-.98,9.76-1.95,14.64-2.92.47.29.51.77.56,1.25.31,3.55,1.09,7,2.12,10.4.14.45.35.9.12,1.39Z"/>
      <path class="cls-7" d="m210.78,144.18c4.74-4.14,9.48-8.28,14.2-12.44.49-.43,1.01-.7,1.67-.83,10.22-2.04,20.44-4.12,30.66-6.19.12-.02.23-.08.34-.12.56,1.1,1.05,2.22,1.38,3.4-2.94,2.5-5.89,4.99-8.81,7.52-6.79,5.86-13.57,11.72-20.34,17.61-.98.85-1.99,1.44-3.32,1.68-3.92.71-7.8,1.57-11.7,2.37-.51-.3-.54-.85-.64-1.35-.69-3.56-1.81-6.98-3.25-10.31-.19-.43-.44-.86-.19-1.36Z"/>
      <path class="cls-7" d="m241.91,99.55c-4.23,3.65-8.47,7.29-12.69,10.96-.6.52-1.23.83-1.99.99-12.03,2.47-24.05,4.96-36.08,7.44-.15.03-.31.02-.49.03.04-.44.4-.59.65-.81,11.24-9.89,22.49-19.76,33.73-29.65.47-.41.95-.67,1.57-.78.9-.15,1.78-.41,2.66-.62,3.02,2.23,5.69,4.85,8.29,7.54,1.52,1.57,3.09,3.1,4.34,4.91Z"/>
      <path class="cls-7" d="m85.52,227.32c4.09-3.61,8.19-7.22,12.27-10.84.45-.4.98-.51,1.52-.62,11.98-2.41,23.97-4.82,35.95-7.24.31-.06.62-.16.93-.24.27-.13.45-.07.53.24-1.69,1.86-3.72,3.36-5.59,5.02-3.32,2.93-6.69,5.8-10.04,8.7-3.77,3.26-7.54,6.53-11.32,9.78-2.66,2.29-5.28,4.63-7.98,6.87-1.22,1.01-2.7,1.25-4.25,1.12-3.35-2.73-6.25-5.92-9.09-9.16-1.02-1.17-2.08-2.32-2.92-3.63Z"/>
      <path class="cls-10" d="m97.53,240.11c2.55-.2,4.44-1.57,6.33-3.22,10.55-9.23,21.17-18.37,31.77-27.54.3-.26.61-.51.92-.76.49-.18.84.14,1.2.36,2.95,1.86,6.07,3.34,9.33,4.57.5.19,1.12.26,1.28.93-2.09.46-4.17.96-6.28,1.34-.95.17-1.69.57-2.4,1.2-11.3,9.95-22.61,19.88-33.92,29.82-2.91-2.03-5.71-4.2-8.24-6.7Z"/>
      <path class="cls-7" d="m265.62,155.51c-10.81,2.23-21.62,4.46-32.44,6.69-.04-.07-.08-.13-.12-.2,1.71-1.51,3.42-3.02,5.14-4.53,7.59-6.67,15.18-13.33,22.76-20,.36-.31.67-.68,1-1.02,1.93,6.22,3.15,12.57,3.66,19.05Z"/>
      <path class="cls-7" d="m260.35,198.38c-9.05,1.86-18.1,3.71-27.14,5.57-.04-.07-.07-.13-.11-.2.97-.85,1.94-1.71,2.91-2.56,9.86-8.65,19.72-17.31,29.58-25.96-.76,7.66-2.4,15.12-4.91,22.39-.09.26-.21.51-.32.76Z"/>
      <path class="cls-7" d="m136.3,261.86c1.39-1.25,2.8-2.49,4.17-3.76.39-.37.88-.37,1.33-.46,9.61-1.95,19.23-3.89,28.84-5.82,2.77-.56,5.54-1.12,8.69-1.75-1.72,1.49-3.17,2.75-4.62,4.01-4.54,3.95-9.08,7.91-13.62,11.87-8.45-.21-16.71-1.56-24.78-4.08Z"/>
      <path class="cls-7" d="m64.07,171.21c9.92-2,19.83-4.01,29.87-6.03-.17.62-.61.84-.94,1.12-8.51,7.36-17.02,14.71-25.53,22.07-.24.21-.45.45-.67.67-1.49-5.85-2.39-11.8-2.72-17.83Z"/>
      <path class="cls-7" d="m189.01,66.76s-.05.06-.07.09c-2.69,3.3-6.7,3.33-10.37,4.11-10.05,2.14-20.12,4.18-30.18,6.25-.08.02-.16,0-.5,0,5.04-4.44,9.93-8.74,14.83-13.06-.38-.35-.78-.09-1.09-.27,9.27-.32,18.4.61,27.39,2.86Z"/>
      <path class="cls-7" d="m70.97,127.85c2.13,0,4.15-.68,6.22-1.07,5.24-1.01,10.46-2.12,15.69-3.18.31-.06.63-.05.96-.08,0,.49-.4.61-.64.82-9.25,8.02-18.51,16.02-27.77,24.03-.06.05-.13.08-.2.12,1.11-7.1,2.99-13.98,5.73-20.63Z"/>
      <path class="cls-7" d="m174.38,265.62c2.73-2.39,5.47-4.77,8.19-7.18.43-.38.87-.63,1.45-.74,11.3-2.27,22.6-4.56,33.89-6.84.08-.02.16,0,.24.01-5.16,3.38-10.68,6.05-16.41,8.3-8.43,3.31-17.15,5.46-26.18,6.35-.39.04-.79.08-1.18.11Z"/>
      <path class="cls-7" d="m252.82,115.04c-4.72.95-9.44,1.89-14.16,2.84-1.83.37-3.66.75-5.6.95,4.72-4.17,9.44-8.34,14.15-12.51,2.14,2.74,3.97,5.67,5.61,8.72Z"/>
      <path class="cls-7" d="m75.56,212.07c6.13-1.23,12.25-2.46,18.38-3.69.03.06.07.12.1.17-4.52,3.93-9.04,7.85-13.57,11.78-1.85-2.63-3.45-5.41-4.92-8.27Z"/>
      <path class="cls-7" d="m117.27,254.02c6.4-1.29,12.8-2.59,19.55-3.96-3.45,3.01-6.64,5.79-9.83,8.58-3.34-1.32-6.61-2.82-9.73-4.62Z"/>
      <path class="cls-7" d="m148.14,65.29c-1.46,1.29-2.92,2.57-4.38,3.86-.24.21-.51.36-.83.42-6.97,1.43-13.94,2.87-20.91,4.3-.27.06-.55.04-.83.06,2.71-1.54,5.62-2.64,8.52-3.74,5.82-2.22,11.83-3.78,17.96-4.89.15-.03.32,0,.48,0Z"/>
      <path class="cls-7" d="m208.12,73.61c-5.58,1.15-11.17,2.3-16.75,3.44-.23.04-.53.21-.51-.25,2.64-2.34,5.28-4.68,7.92-7.02,3.26.94,6.34,2.28,9.35,3.84Z"/>
      <path class="cls-10" d="m231.56,280.83c1.66.02,2.79.79,3.5,2.18.71,1.4.63,2.77-.27,4.05-1.17,1.66-2.94,2.51-4.66,3.43-.48.26-.54-.1-.68-.35-1.22-2.1-2.42-4.2-3.63-6.31-.13-.23-.37-.47,0-.69,1.82-1.05,3.58-2.26,5.74-2.31Z"/>
      <path class="cls-10" d="m224.68,270.32c2.72-.03,4.3,2.37,3.36,4.53-.91,2.1-2.93,2.93-4.73,4-.31.19-.42-.09-.53-.29-.99-1.72-1.97-3.45-2.97-5.17-.15-.26-.29-.48.04-.7,1.61-1.09,3.2-2.23,4.83-2.38Z"/>
      <path class="cls-10" d="m37.04,197.27c0,2.35-1.12,3.97-3.06,4.41-2.1.48-3.71-.38-4.81-2.56-.63-1.26-.89-2.62-1.19-3.98-.11-.5,0-.72.5-.84,2.36-.55,4.72-1.12,7.07-1.71.46-.11.65.03.74.46.31,1.39.73,2.77.75,4.22Z"/>
      <path class="cls-10" d="m48.88,193.94c0,2.26-.79,3.47-2.29,3.92-1.58.47-2.93-.1-3.98-1.64-.92-1.35-1.16-2.94-1.57-4.47-.09-.33-.01-.5.35-.59,1.93-.46,3.86-.93,5.79-1.41.41-.1.64-.01.79.44.45,1.36.84,2.73.91,3.75Z"/>
      <path class="cls-10" d="m253.98,271.72c-1.4.05-2.7-.36-3.87-1.06-3.8-2.27-6.71-5.31-7.5-9.83-.77-4.45,3.05-8.07,7.51-7.29,4.67.81,9.82,6.36,10.31,11.09.4,3.89-2.52,7.11-6.45,7.09Z"/>
      <path class="cls-10" d="m51.25,215.55c2.82-.02,5.06,1.01,6.36,3.62,1.28,2.58.79,5.03-.98,7.13-3.12,3.73-7.15,5.72-12.05,5.38-4.7-.32-7.35-5.31-5.09-9.44,1.97-3.6,5.37-5.3,9.15-6.37.85-.24,1.72-.32,2.61-.32Z"/>
      <path class="cls-10" d="m153.44,295.91c.05-1.98.5-4.55,2.06-6.79,2.66-3.81,7.8-3.85,10.54-.12,2.85,3.88,2.66,11.49-.37,15.22-2.64,3.25-7.47,3.21-10.06-.08-1.45-1.84-2.19-4.42-2.17-8.24Z"/>
      <path class="cls-10" d="m106.29,272.19c.12,1.21-.33,2.24-.56,3.32-.54,2.53-1.11,5.06-1.64,7.59-.11.54-.2.81-.81.46-1.52-.86-3.08-1.68-4.62-2.51-.29-.16-.6-.29-.22-.68,2.62-2.71,5.3-5.35,7.85-8.18Z"/>
      <path class="cls-7" d="m154.78,41.82c-.19-5.9-.04-11.81-.11-17.71-.01-.8.2-1.12,1.01-1.2,1.84-.18,3.66-.25,5.47.19,3.52.86,5.83,3.53,6.37,7.51.36,2.59.23,5.19-.72,7.66-1.7,4.42-5.22,6.2-9.69,6.53q-2.33.17-2.33-2.16c0-.28,0-.56,0-.84Z"/>
      <path class="cls-7" d="m266.08,95.33c-4.31-.01-7.3-4.12-6.04-8.43,1.18-4.04,4.14-6.62,7.56-8.75,1.75-1.09,3.66-1.83,5.75-1.74,4.38.19,7.15,4.18,5.83,8.47-1.34,4.36-4.58,7.08-8.41,9.2-1.45.8-3,1.28-4.68,1.26Z"/>
      <path class="cls-7" d="m246.26,57.35c-1.85-.09-3.25-1.12-4.73-2.09-1.06-.69-1.1-1.2-.35-2.18,1.21-1.58,2.29-3.26,3.35-4.94.46-.73.84-.77,1.49-.29,1.31.96,2.77,1.75,3.65,3.2.83,1.35.8,2.7.04,4.07-.76,1.36-1.89,2.12-3.44,2.23Z"/>
      <path class="cls-1" d="m148.36,214.45c-1.64-.7-3.27-1.4-4.91-2.11-2.41-1.05-4.66-2.4-6.91-3.76-.06-.18-.21-.2-.36-.2-3.58-2.55-6.89-5.42-9.88-8.65-.69-.24-1.04-.84-1.47-1.36-1.59-1.95-3.03-4.01-4.32-6.17-.2-.34-.46-.66-.43-1.09-1.31-2.71-2.73-5.38-3.68-8.26-1.34-3.89-2.27-7.87-2.6-11.98-.03-.35-.13-.7-.19-1.06-.02-3.07-.18-6.15.18-9.22-.16-.19-.25-.42-.22-.66.26-2.03.34-4.09,1.27-5.98.93-3.07,1.84-6.14,3.18-9.06,1.55-3.4,3.5-6.57,5.66-9.61.12-.27.19-.56.46-.73,3.52-4.12,7.38-7.87,11.82-10.98,4.52-2.92,9.35-5.18,14.49-6.76,4.07-1,8.18-1.74,12.38-1.86,1.63-.05,3.26-.18,4.88.16.16.03.36-.12.54-.18.31.15.69-.05.97.2,10.71,1.04,20.18,5.03,28.4,11.97.34.28.67.57,1,.85.34.11.67.23.95.49,2.36,2.23,4.5,4.63,6.39,7.27.21.3.35.62.43.98,1.61,2.42,3.05,4.93,4.36,7.52,1.85,4.18,3.23,8.52,4.08,13.01.44,3.04.72,6.09.72,9.16.6,1.47.34,2.89-.22,4.3-.51,4.7-1.53,9.29-3.26,13.7-.07.18-.11.27.07.36-.79,2.56-2.07,4.89-3.42,7.18-1.8,3.06-3.85,5.94-6.28,8.54-.52.55-1.09,1.05-1.73,1.45-4.86,4.77-10.38,8.55-16.69,11.15-4.45,1.83-9.06,3.03-13.84,3.56-.27.03-.53.13-.8.2-2.18.01-4.37.05-6.55.04-4.6-.02-9.06-.91-13.46-2.21-.34-.1-.66-.28-1.04-.17Z"/>
      <path class="cls-7" d="m221.69,208.4c-2.53,2.19-4.87,4.23-7.22,6.26-9.3,8.04-18.61,16.08-27.91,24.13-.4.34-.79.64-1.33.75-9.41,1.93-18.83,3.87-28.24,5.81-2.97.61-5.93,1.22-9.2,1.89,2.38-2.1,4.54-4.02,6.71-5.93,9.18-8.06,18.36-16.12,27.53-24.2.81-.71,1.65-1.12,2.71-1.33,12.01-2.4,24-4.85,36-7.28.22-.04.45-.05.93-.1Z"/>
      <path class="cls-7" d="m200.74,201.89c4.29-4.42,7.77-9.38,10.32-15,.34-.74.47-1.59,1.12-2.17,4.21-3.67,8.43-7.34,12.62-11.03.62-.54,1.26-.88,2.09-1.04,12-2.4,24-4.84,36-7.27.33-.07.66-.22,1.13-.01-2.49,2.15-4.92,4.25-7.36,6.36-9.18,7.94-18.37,15.87-27.54,23.82-.54.47-1.1.74-1.78.88-8.87,1.81-17.73,3.64-26.59,5.47Z"/>
      <path class="cls-8" d="m215.36,170.66c.07-1.43.15-2.87.22-4.3,1.94-.39,3.87-.79,5.81-1.18.04.07.07.14.11.21-2.05,1.76-4.09,3.51-6.14,5.27Z"/>
      <path class="cls-7" d="m178.88,80.52c-1.62,1.41-3.19,2.79-4.78,4.16-9.63,8.33-19.29,16.64-28.88,25.01-1.25,1.09-2.57,1.74-4.18,2.07-11.53,2.34-23.04,4.73-34.56,7.11-.29.06-.59.18-.95,0,8.08-7.1,16.14-14.18,24.2-21.26,3.48-3.06,6.97-6.11,10.44-9.17.4-.36.81-.57,1.35-.68,12.08-2.43,24.15-4.89,36.23-7.33.33-.07.68-.21,1.15.09Z"/>
      <path class="cls-3" d="m136.37,80.58c-.08-.23-.31-.17-.47-.25.24-.23.55-.35.79-.1.12.12-.13.3-.32.36Z"/>
      <path class="cls-4" d="m190.86,76.8c.17.08.34.17.51.25-.27.21-.6.36-.86.08-.11-.11.19-.25.35-.33Z"/>
      <path class="cls-7" d="m206.42,136.66c-2.34-3.13-4.86-6.11-7.77-8.73,4.77-.94,9.54-1.88,14.31-2.83,2.73-.54,5.46-1.1,8.19-1.65l.18.3c-4.97,4.3-9.94,8.61-14.91,12.91Z"/>
      <path class="cls-5" d="m169.25,115.11c-.34,0-.72.23-.97-.2.24-.14.48-.28.77-.2.07.13.14.27.2.4Z"/>
      <path class="cls-6" d="m114.85,153.95c-.35,2.21-.7,4.43-1.05,6.64-2.73.54-5.46,1.08-8.56,1.68,3.38-2.93,6.5-5.63,9.61-8.33Z"/>
      <path class="cls-2" d="m124.15,134.54c.03.36-.22.54-.46.73-.09-.08-.18-.17-.27-.25.16-.29.38-.49.73-.47Z"/>
      <path class="cls-7" d="m120.1,191.1c1.89,3,3.9,5.93,6.21,8.63-6.83,1.4-13.66,2.81-20.5,4.21-.05-.08-.1-.16-.15-.23l14.44-12.61Z"/>
      <path class="cls-10" d="m154.87,194.24c-1.96,0-3.91-.02-5.87.01-.52,0-.8-.2-1.04-.61-3.17-5.44-6.35-10.87-9.54-16.3-.26-.44-.24-.76.02-1.19,3.33-5.48,6.65-10.98,9.96-16.48.28-.46.58-.65,1.14-.63,5.94.28,11.87.54,17.81.75.64.02,1.02.24,1.36.74,3.58,5.19,7.17,10.37,10.78,15.53.38.54.39.92.04,1.48-3.31,5.26-6.61,10.54-9.88,15.83-.32.51-.68.66-1.25.66-4.51-.02-9.02-.01-13.53-.01,0,.07,0,.13,0,.2Z"/>
      <path class="cls-10" d="m185.93,140.35c2.6,0,5.19.02,7.79-.02.64,0,1,.19,1.34.72,3.47,5.3,6.95,10.6,10.46,15.87.38.57.42,1,.13,1.62-2.57,5.47-5.12,10.96-7.65,16.45-.28.61-.59.89-1.32.89-5.11.02-10.21.09-15.32.17-.54,0-.86-.16-1.17-.6-3.51-5.09-7.03-10.17-10.56-15.24-.33-.48-.37-.87-.14-1.41,2.46-5.87,4.91-11.75,7.32-17.64.28-.69.67-.83,1.34-.83,2.6.03,5.19.01,7.79.01Z"/>
      <path class="cls-10" d="m133.73,140.65c1.96,0,3.91.02,5.87-.01.59,0,.91.13,1.16.73,2.28,5.52,4.58,11.03,6.92,16.53.24.57.13.95-.16,1.42-3.23,5.31-6.46,10.63-9.66,15.97-.38.63-.75.86-1.51.81-4.06-.3-8.12-.54-12.19-.77-.57-.03-.81-.22-1.01-.76-1.89-5.2-3.8-10.4-5.73-15.59-.17-.47-.13-.81.1-1.22,3.08-5.54,6.16-11.08,9.22-16.63.27-.49.58-.65,1.12-.64,1.96.03,3.91.01,5.87.01,0,.05,0,.1,0,.15Z"/>
      <path class="cls-10" d="m185.77,139.42c-2.52,0-5.03-.01-7.55.01-.66,0-1.22-.13-1.79-.5-5.08-3.31-10.16-6.59-15.27-9.85-.64-.41-.81-.77-.65-1.53.49-2.38.92-4.78,1.27-7.18.11-.76.43-1.13,1.11-1.32.27-.07.54-.16.78-.3,3.67-2.08,7.48-1.89,11.44-.93,6.79,1.64,13.04,4.37,18.68,8.51.66.48.88.99.87,1.78-.04,3.51-.04,7.02,0,10.53,0,.73-.33.74-.87.73-2.67-.02-5.35,0-8.02,0,0,.02,0,.04,0,.06Z"/>
      <path class="cls-10" d="m152.58,195.02c5.11,0,10.21,0,15.32,0,.58,0,1.05.1,1.52.5,3.48,2.92,6.98,5.83,10.5,8.7.56.45.67.67.1,1.25-2.52,2.56-4.99,5.16-7.45,7.78-.41.43-.83.54-1.38.52-6.01-.25-12.03-.5-18.04-.74-.53-.02-.97-.14-1.39-.52-3.21-2.87-6.43-5.74-9.67-8.57-.53-.47-.59-.73-.1-1.3,1.88-2.17,3.71-4.38,5.52-6.62.47-.59.95-.85,1.71-.8,1.11.07,2.23.02,3.35.02v-.21Z"/>
      <path class="cls-10" d="m139.54,139.57c-3.79,0-7.59-.03-11.38.02-.81.01-.89-.36-1.11-1-1.04-3.08.25-5.18,2.43-7.29,7.3-7.08,15.83-11.75,25.82-13.74,1.21-.24,2.17.35,3.2.74,2.53.94,2.53.96,2.07,3.61-.34,1.93-.71,3.85-1.02,5.77-.1.6-.34.99-.87,1.31-5.7,3.44-11.39,6.9-17.06,10.39-.68.42-1.37.35-2.07.19Z"/>
      <path class="cls-10" d="m210.07,157.82c3,0,3.07,0,3.36,2.86,1.2,11.65-1.41,22.39-7.73,32.24-.33.51-.63.65-1.13.34-.03-.02-.07-.03-.11-.05-1.32-.55-2.95-.8-3.87-1.74-.9-.92-.56-2.65-.77-4.02-.53-3.47-.97-6.95-1.46-10.42-.07-.48.13-.85.31-1.24,2.6-5.59,5.23-11.17,7.78-16.79.43-.95.94-1.35,1.96-1.2.55.08,1.12.01,1.68.01Z"/>
      <path class="cls-10" d="m204.73,194.38c-8.02,10.86-18.52,17.53-31.99,20.08,2.52-2.63,4.89-5,7.12-7.49,1.73-1.93,3.76-3.43,5.89-4.84,4.56-3.01,9.1-6.05,13.64-9.11.55-.37,1.01-.48,1.63-.19,1.18.55,2.4,1,3.71,1.54Z"/>
      <path class="cls-10" d="m125.36,191.57c-.08.74-1.01.79-1.57,1.2-.54.39-.65-.28-.81-.55-5.69-9.1-8.22-19-7.49-29.72.06-.91.15-1.83.27-2.74.04-.26-.18-.71.34-.74.44-.03.47.39.57.66,1.07,2.87,2.12,5.75,3.17,8.63.4,1.08.73,2.19,1.2,3.24,2.24,5.03,2.55,10.5,3.59,15.8.26,1.33.46,2.67.73,4.23Z"/>
      <path class="cls-10" d="m150.48,212.93c-.76.1-1.44-.31-2.13-.56-9.71-3.44-17.61-9.33-23.67-17.65-.21-.29-1-.71-.25-1.11.62-.34,1.09-1.38,2.12-.59,8.04,6.22,16.19,12.3,23.6,19.3.16.15.44.25.34.61Z"/>
    </g>
  </g>
</svg>