<?xml version="1.0" encoding="UTF-8"?>
<svg id="Livello_2" data-name="Livello 2" xmlns="http://www.w3.org/2000/svg" viewBox="0 0 333.05 333.05">
  <defs>
    <style>
      .cls-1 {
        fill: #120e0b;
      }

      .cls-1, .cls-2 {
        stroke-width: 0px;
      }

      .cls-2 {
        fill: #fff;
      }
    </style>
  </defs>
  <g id="Layer_1" data-name="Layer 1">
    <g>
      <path class="cls-2" d="m329.16,166.52c0,89.68-72.96,162.64-162.63,162.64S3.89,256.2,3.89,166.52,76.85,3.89,166.53,3.89s162.63,72.96,162.63,162.63Z"/>
      <path class="cls-1" d="m325.05,166.52c0,87.41-71.11,158.53-158.52,158.53S8,253.94,8,166.52,79.12,8,166.53,8s158.52,71.11,158.52,158.52ZM166.53,0C74.7,0,0,74.7,0,166.52s74.7,166.53,166.53,166.53,166.52-74.71,166.52-166.53S258.35,0,166.53,0Z"/>
      <path class="cls-1" d="m134.16,195.05c-14.17,23.35-44.29,24.94-74.7,13.08,0,0,12.12-.34,22.82-6.24,9.41-5.17,10.33-8.06,19.61-19.46,26.61-32.71,50.75-47.44,75.45-23.87,0,0-22.2,1.93-43.18,36.49Z"/>
      <path class="cls-1" d="m166.45,215.2c-14.19,23.37-44.3,24.95-74.71,13.08,0,0,12.1-.34,22.83-6.23,9.38-5.17,10.33-8.06,19.59-19.47,26.61-32.7,50.76-47.43,75.45-23.87,0,0-22.21,1.94-43.16,36.49Z"/>
      <path class="cls-1" d="m271.51,181.82c1.27,13.2-6.9,25.09-33.55,40.88,0,0,40.96-34.83-9.27-59.32-31.32-15.27-54.98-28.46-63.39-48.05-5.8-13.53-.23-36.33,16.83-44.01,0,0,18.81-9.17,52.83,3.37,0,0,18.89,6.68,8.69,19.62,0,0,2.63,4.46,5.27,9.92,2.03,4.19,1.47,6.29-2.95,3.61,0,0-49.37-43.12-62.54-17.74,0,0-4.75,9.08,1.39,20.18,5.06,6.74,9.06,8.62,16.99,13.17,12.2,6.44,20.46,10.83,35.66,19.25,0,0,31.82,15.6,34.04,39.11Z"/>
      <path class="cls-1" d="m201.47,233.74c-14.17,23.36-44.28,24.94-74.71,13.09,0,0,12.11-.35,22.81-6.24,9.41-5.18,10.36-8.06,19.61-19.47,26.61-32.7,50.75-47.43,75.43-23.88,0,0-22.18,1.95-43.15,36.5Z"/>
      <path class="cls-1" d="m54.16,226.46c-.13-1.67-.27-2.56-.96-3.98-.73-1.54-2.17-3.08-4.17-2.11-3.69,1.79,1.17,9.62-5.14,12.69-4.08,1.99-7.23-.38-9.11-4.23-.66-1.34-.91-2.85-1.11-4.3l2.68-.98c.07,1.12.31,3.04,1.01,4.44.76,1.56,2.71,3.34,4.95,2.24,4.28-2.08-.9-9.74,5.05-12.64,3.4-1.66,6.53.16,8.21,3.61.61,1.26,1.12,2.88,1.3,4.42l-2.71.85Z"/>
      <path class="cls-1" d="m58.21,228.87l2.01,2.69-11.54,15.03.05.05,17.31-7.31,2.61,3.46-11.84,14.63.04.05,17.65-6.87,1.95,2.59-20.99,7.53-2.35-3.15,12.11-14.88-.05-.04-17.7,7.44-2.45-3.28,13.18-17.94Z"/>
      <path class="cls-1" d="m84.38,259.53l2.42,2.09-7.09,22.02-2.51-2.18,1.86-5.48-7.91-6.81-5.15,2.65-2.43-2.1,20.81-10.2Zm-.75,3.14l-10.11,5.24,6.43,5.54,3.67-10.78Z"/>
      <path class="cls-1" d="m96.97,269.6l3.59,2.08-.47,19.55.05.04,8.6-14.84,2.65,1.53-10.69,18.43-3.37-1.96.45-20-.05-.03-8.8,15.15-2.65-1.53,10.69-18.43Z"/>
      <path class="cls-1" d="m124.91,286.86c-1.23-1.13-1.92-1.69-3.39-2.27-1.61-.62-3.71-.77-4.51,1.31-1.47,3.81,7.4,6.23,4.87,12.78-1.63,4.24-5.56,4.66-9.55,3.12-1.4-.55-2.62-1.47-3.75-2.41l1.3-2.53c.82.77,2.31,2,3.76,2.56,1.62.62,4.26.6,5.15-1.74,1.72-4.43-7.3-6.52-4.91-12.69,1.37-3.53,4.89-4.33,8.48-2.95,1.3.51,2.79,1.34,3.96,2.36l-1.42,2.46Z"/>
      <path class="cls-1" d="m132.12,285.83l11.62,2.79-.64,2.61-8.63-2.08-1.46,6.05,7.86,1.89-.62,2.61-7.88-1.9-1.63,6.83,8.63,2.07-.63,2.62-11.61-2.8,4.98-20.7Z"/>
      <path class="cls-1" d="m156.02,290.15l3.18.23,7.42,21.91-3.31-.25-1.77-5.51-10.4-.77-2.57,5.21-3.19-.23,10.64-20.58Zm1.27,2.97l-5,10.22,8.46.62-3.46-10.84Z"/>
      <path class="cls-1" d="m196,290.9c-1.47-.55-3-.69-4.54-.43-4.83.83-7.46,4.87-6.66,9.6.86,4.93,4.97,7.6,9.33,6.86,1.51-.26,3.45-1,4.39-1.81l.69,2.89c-1.48.94-3.43,1.35-4.66,1.57-6.65,1.13-11.79-2.37-12.95-9.05-1.11-6.47,2.84-11.58,9.25-12.67,1.62-.28,3.27-.32,4.88.08l.26,2.96Z"/>
      <path class="cls-1" d="m199.68,286.07l2.92-.86,5.97,20.45-2.93.86-5.96-20.45Z"/>
      <path class="cls-1" d="m213.23,284.34l-6.14,2.52-1.02-2.49,15.09-6.2,1.02,2.48-6.14,2.52,7.08,17.22-2.83,1.16-7.06-17.22Z"/>
      <path class="cls-1" d="m236.02,283.93l-13.55-6.28,3.07-1.85,10.38,4.88.33-11.38,3.06-1.86-.68,14.9,4.63,7.62-2.6,1.59-4.64-7.62Z"/>
      <path class="cls-1" d="m253.93,254.58l2.24-2.28,21.51,8.53-2.34,2.37-5.34-2.22-7.33,7.43,2.3,5.32-2.25,2.28-8.8-21.43Zm3.1.95l4.53,10.43,5.96-6.05-10.5-4.38Z"/>
      <path class="cls-1" d="m264.51,242.8l6.59-9.21,2.18,1.56-4.8,6.73,5.06,3.62,4.6-6.43,2.19,1.56-4.6,6.43,7.9,5.65-1.78,2.48-17.33-12.39Z"/>
      <path class="cls-1" d="m283.5,218.06c-1.33.82-2.37,1.97-3.08,3.36-2.27,4.36-.62,8.88,3.64,11.09,4.45,2.3,9.06.63,11.09-3.3.69-1.36,1.28-3.35,1.21-4.59l2.72,1.2c-.15,1.74-.99,3.55-1.57,4.66-3.1,6-9,7.99-15.01,4.87-5.83-3.02-7.52-9.25-4.55-15.03.77-1.47,1.73-2.79,3.02-3.83l2.53,1.58Z"/>
    </g>
  </g>
</svg>