<?xml version="1.0" encoding="UTF-8"?>
<svg id="Layer_2" data-name="Layer 2" xmlns="http://www.w3.org/2000/svg" xmlns:xlink="http://www.w3.org/1999/xlink" viewBox="0 0 33.56 19.58">
  <defs>
    <style>
      .cls-1 {
        clip-path: url(#clippath);
      }

      .cls-2 {
        fill: none;
      }

      .cls-2, .cls-3, .cls-4, .cls-5, .cls-6, .cls-7 {
        stroke-width: 0px;
      }

      .cls-3 {
        fill: #630810;
      }

      .cls-4 {
        fill: #083d9c;
      }

      .cls-5 {
        fill: #ce1126;
      }

      .cls-6 {
        fill: #fff;
      }

      .cls-7 {
        fill: #ff9c10;
      }
    </style>
    <clipPath id="clippath">
      <ellipse class="cls-2" cx="16.78" cy="9.79" rx="3.65" ry="3.75"/>
    </clipPath>
  </defs>
  <g id="Layer_2-2" data-name="Layer 2">
    <path class="cls-5" d="m0,0h33.56v19.58H0V0Z"/>
    <path class="cls-6" d="m0,4.89h33.56v9.79H0V4.89Z"/>
    <g class="cls-1">
      <g>
        <g>
          <path class="cls-7" d="m15.2,9.35v-.24l.62.26-.62-.02Z"/>
          <path class="cls-7" d="m15.2,8.98v-.41s-.07.01-.06-.07c0-.17.45.31.68.47v.33s-.62-.31-.62-.31Z"/>
          <path class="cls-7" d="m14.44,10.37v-.81l-1.49-.07.19.87h1.3Z"/>
          <path class="cls-7" d="m14.46,9.38v-.57s-1.36-.53-1.36-.53l-.02.97,1.38.13Z"/>
          <path class="cls-7" d="m14.42,8.61l.15-.16s-.1-.07-.09-.13c0-.06.1-.07.1-.14,0-.06-.11-.07-.11-.13,0-.07.09-.14.09-.14l-.96-.83-.24,1.01,1.06.51Z"/>
          <path class="cls-7" d="m18.96,10.37v-.79s1.5-.11,1.5-.11l-.12.9h-1.37Z"/>
          <path class="cls-7" d="m20.37,9.23c-.02-.13-.04-.25-.07-.38-.04-.17-.09-.33-.15-.49,0-.01-.01-.02-.02-.03l-1.17.49v.58s1.41-.17,1.41-.17Z"/>
          <path class="cls-7" d="m19.57,7.35c-.23.18-.47.35-.7.53,0,.05.05.09.07.14.03.07-.03.13-.07.18-.03.04.04.07.06.09.05.05,0,.13-.05.16.07.04.1.11.11.18.35-.18.7-.36,1.05-.55-.13-.26-.28-.52-.47-.74h0Z"/>
          <path class="cls-7" d="m18.2,9.36v-.23s-.59.26-.59.26l.59-.03Z"/>
          <path class="cls-7" d="m17.61,8.99s.56-.5.68-.59c0,.1-.06.18-.06.18v.39l-.61.29v-.27Z"/>
          <path class="cls-7" d="m14,7.02l.63.69c.02-.06.16-.07.3-.06.14.01.26,0,.26.09s-.07.09-.07.16.11.07.11.16-.08.07-.08.14c0,.06.08.06.08.06l.59.56v-.6s-1.2-1.87-1.2-1.87l-.61.67Z"/>
          <path class="cls-7" d="m14.97,6.31l.82,1.65s0-1.53.15-1.61l-.23-.42-.74.37Z"/>
          <path class="cls-7" d="m17.6,6.14c-.1.35-.2.7-.31,1.06.1.01.19.01.29,0,.09,0,.02.09.02.14,0,.22,0,.43,0,.65.29-.51.58-1.02.86-1.52-.2-.1-.41-.18-.62-.25-.08-.03-.16-.05-.25-.07h0Z"/>
          <path class="cls-7" d="m18.68,6.58l-1.07,1.64v.63c.24-.23.48-.45.71-.68.04-.06-.14-.09-.05-.17.08-.03.1-.16,0-.19-.07-.11.07-.17.16-.15.12,0,.25-.03.37,0,.07.06.13-.1.19-.13.13-.13.26-.26.38-.39-.21-.22-.45-.41-.71-.56h0Z"/>
        </g>
        <g>
          <g>
            <path class="cls-4" d="m15.93,12.95c-.26.01-.52.19-.65.29.22.1.45.17.7.22.4.07.8.07,1.19.07.07,0,.13-.02.19-.03l.84-.28s-.4-.27-.72-.25c-.32.01-.54.32-.79.3-.26-.02-.36-.31-.73-.31-.01,0-.02,0-.03,0Z"/>
            <path class="cls-4" d="m17.16,13.57c-.39,0-.79,0-1.19-.07-.25-.05-.49-.13-.72-.23l-.07-.03.06-.04c.13-.1.4-.28.67-.3h0s.02,0,.03,0h.01c.22,0,.36.1.47.18.09.06.16.12.26.13.11.01.23-.06.35-.13.13-.08.27-.16.44-.17.33-.01.73.25.75.26l.07.05-.93.31c-.06.01-.13.02-.19.03h-.01s0,0,0,0Zm-1.8-.34c.2.08.41.15.63.19.39.07.79.07,1.17.07h.01c.06,0,.13-.02.18-.03l.75-.25c-.13-.07-.4-.21-.62-.2-.15,0-.28.08-.4.16-.13.08-.26.16-.4.14-.13-.01-.21-.08-.31-.15-.11-.08-.23-.17-.42-.17h-.01s-.01,0-.02,0h0c-.21.01-.43.14-.56.23Z"/>
          </g>
          <g>
            <g>
              <path class="cls-4" d="m19.17,12.75s-.41-.44-.9-.45c-.48-.01-.35.2-.72.23-.37.03-.46-.22-.8-.21-.34.01-.54.21-.79.22-.26.01-.59-.25-.78-.24-.2.01-.9.31-.9.31l.13.12,4.77.02Z"/>
              <path class="cls-4" d="m19.26,12.8l-4.88-.02-.19-.18.06-.02s.71-.3.91-.31c.1,0,.23.05.36.11.15.07.3.14.42.13.11,0,.21-.05.32-.1.13-.06.28-.12.47-.13.17,0,.29.05.4.11.12.06.22.12.41.1.15-.01.21-.06.27-.11.08-.07.17-.13.45-.13.5.01.91.44.93.46l.07.07Zm-4.85-.1l4.65.02c-.14-.12-.45-.36-.8-.37-.25,0-.32.05-.4.11-.07.05-.14.11-.32.12-.21.02-.33-.05-.45-.11-.1-.05-.2-.11-.36-.1-.18,0-.31.06-.44.12-.12.05-.23.1-.35.1-.15,0-.31-.07-.46-.14-.12-.06-.24-.11-.32-.11-.15,0-.65.21-.82.28l.07.07Z"/>
            </g>
            <g>
              <path class="cls-4" d="m13.79,12.17l5.88.02c.09-.13-.29-.45-.64-.48-.29.01-.5.3-.73.31-.24.01-.51-.3-.77-.29-.27.01-.55.29-.82.29s-.46-.3-.8-.3-.5.33-.75.31c-.26-.02-.49-.33-.73-.33s-.66.37-.74.35c-.08-.02.11.12.11.12h0Z"/>
              <path class="cls-4" d="m19.7,12.23h-.02s-5.89-.02-5.89-.02h-.01c-.17-.13-.16-.15-.15-.18,0-.01.02-.03.07-.02.02,0,.12-.06.2-.11.17-.11.38-.24.53-.24.14,0,.27.09.39.17.11.07.23.15.34.16.11,0,.2-.05.3-.13.12-.08.26-.18.45-.18s.34.09.47.17c.11.07.22.13.33.13.13,0,.26-.07.4-.14.14-.07.28-.14.42-.15.15,0,.29.08.43.15.12.07.24.14.34.13.1,0,.2-.07.31-.14.13-.08.26-.17.42-.17h0s0,0,0,0c.29.02.6.23.67.4.03.07.02.12,0,.15v.02Zm-5.89-.1l5.84.02s0-.03-.01-.05c-.06-.14-.35-.33-.6-.35-.14,0-.26.08-.38.16-.12.07-.23.14-.35.15-.13,0-.25-.07-.39-.14-.13-.07-.26-.15-.39-.14-.12,0-.25.07-.38.14-.14.07-.29.15-.43.15-.14,0-.25-.07-.37-.14-.13-.08-.26-.16-.43-.16s-.28.08-.4.16c-.11.08-.22.15-.36.14-.14-.01-.26-.09-.38-.17-.12-.08-.23-.15-.35-.15-.14,0-.34.13-.49.22-.09.06-.15.09-.19.11.02.02.04.04.07.05Z"/>
            </g>
            <g>
              <path class="cls-4" d="m16.07,11.61h1.31s-.29-.45-.66-.42c-.4.01-.66.42-.66.42h0Z"/>
              <path class="cls-4" d="m15.99,11.65l.04-.06s.27-.43.69-.44c.38-.03.68.42.69.44l.04.06h-1.46Zm.77-.42s-.02,0-.03,0c-.28,0-.49.23-.58.34h1.15c-.09-.11-.3-.34-.54-.34Z"/>
            </g>
            <g>
              <path class="cls-4" d="m20.25,11.58h-1.8s.23-.14.3-.26c.12.06.08.13.32.14.23.01.45-.26.68-.25.22.01.51.38.51.38Z"/>
              <path class="cls-4" d="m20.34,11.62h-2.03l.13-.08c.06-.04.23-.15.28-.24l.02-.04.04.02s.07.04.09.06c.04.04.07.06.21.07.11,0,.22-.06.32-.12.11-.07.23-.14.35-.13.24.01.53.38.54.39l.05.07Zm-1.74-.08h1.57c-.1-.12-.28-.29-.42-.29-.1,0-.2.05-.31.12-.12.07-.24.14-.37.13-.16,0-.21-.04-.26-.09-.01-.01-.02-.02-.04-.03-.04.06-.11.12-.17.16Z"/>
            </g>
            <g>
              <path class="cls-4" d="m13.17,11.58h1.8s-.23-.14-.3-.26c-.12.06-.08.13-.32.14-.23.01-.45-.26-.68-.25-.22.01-.51.38-.51.38Z"/>
              <path class="cls-4" d="m15.12,11.62h-2.03l.05-.07s.3-.38.54-.39c.12,0,.24.06.35.13.11.06.22.13.32.12.14,0,.17-.03.21-.07.02-.02.05-.04.09-.06l.04-.02.02.04c.05.09.22.21.28.24l.13.08Zm-1.86-.08h1.57c-.06-.04-.13-.1-.17-.16-.01.01-.03.02-.04.03-.06.05-.1.08-.26.09-.13,0-.25-.06-.37-.13-.11-.06-.21-.12-.31-.12-.14,0-.32.18-.42.29Z"/>
            </g>
            <g>
              <path class="cls-4" d="m14.59,11.03s-.08-.17-.09-.39c-.33-.11-.6.24-.84.25-.24.01-.48-.25-.48-.25l.13.38h1.28Z"/>
              <path class="cls-4" d="m14.65,11.07h-1.37s-.14-.42-.14-.42l.07-.04s.24.25.45.24c.08,0,.18-.06.28-.12.17-.1.36-.21.57-.13h.03s0,.04,0,.04c0,.2.09.37.09.37l.03.06Zm-1.32-.09h1.19c-.02-.06-.06-.17-.07-.31-.17-.05-.33.05-.48.14-.11.06-.21.12-.32.13-.15,0-.3-.08-.39-.16l.07.2Z"/>
            </g>
            <g>
              <path class="cls-4" d="m20.14,11.02h-1.28s.08-.16.09-.38c.33-.11.6.24.84.25.24.01.48-.25.48-.25l-.13.38Z"/>
              <path class="cls-4" d="m18.79,11.07l.03-.06s.08-.17.09-.37v-.03s.03,0,.03,0c.22-.07.41.04.57.13.1.06.19.11.28.12.22,0,.45-.24.45-.24l.07.04-.14.4h-1.37Zm.2-.4c-.01.13-.05.25-.07.31h1.19s.07-.21.07-.21c-.1.08-.25.17-.39.16-.1,0-.21-.07-.32-.13-.15-.09-.31-.18-.48-.14Z"/>
            </g>
            <g>
              <path class="cls-4" d="m16.39,11.03h.65s.01-.21-.33-.21-.32.21-.32.21h0Z"/>
              <path class="cls-4" d="m17.08,11.07h-.73s0-.04,0-.04c0,0,0-.09.06-.16.06-.07.16-.1.3-.1s.24.03.31.1c.07.07.06.15.06.16v.04Zm-.64-.08h.56s-.02-.04-.04-.06c-.05-.05-.13-.07-.25-.07s-.2.03-.24.08c-.02.02-.03.04-.03.06Z"/>
            </g>
          </g>
        </g>
        <g>
          <g>
            <g>
              <path class="cls-5" d="m16.05,8.94l1.35.36v-1.91c-.62.03-1.13-1.16-.04-1.24-1.07-.15-1.2.12-1.32.42v2.38s.01,0,.01,0Z"/>
              <path class="cls-3" d="m17.4,9.34s0,0-.01,0l-1.35-.36s-.03-.02-.03-.04v-2.38s0-.01,0-.02c.12-.3.25-.6,1.36-.44.02,0,.04.02.04.04,0,.02-.02.04-.04.04-.4.03-.62.22-.6.52.02.31.31.66.64.65.01,0,.02,0,.03.01,0,0,.01.02.01.03v1.91s0,.02-.02.03c0,0-.02,0-.03,0Zm-1.31-.43l1.27.34v-1.81c-.36-.01-.66-.39-.68-.72-.02-.27.13-.46.41-.55-.8-.07-.9.17-1.01.42v2.34Z"/>
            </g>
            <g>
              <path class="cls-5" d="m16.35,10.66c-.29.48-1.08.34-1.26,0-.06-.02-.02-2.07-.02-2.07,0,0-.09-.04-.09-.1,0-.06.12-.07.12-.15s-.13-.05-.13-.13c0-.08.13-.07.13-.14,0-.08-.15-.07-.16-.15,0-.06.1-.11.13-.14h-.1s-.23,0-.23,0c-.16,0,0,.03,0,.13,0,.06-.08.1-.09.15,0,.05.11.09.12.15,0,.06-.11.06-.11.11,0,.09.1.11.1.16,0,.05-.13.07-.13.12,0,.08.02,2.12.02,2.12.2,1.04,1.37,1.3,1.7-.06Z"/>
              <path class="cls-3" d="m15.5,11.64s-.01,0-.02,0c-.41,0-.77-.38-.87-.9,0,0,0,0,0,0,0-.02-.01-2.03-.02-2.11,0-.05.04-.07.08-.09.02,0,.04-.02.05-.03,0,0-.02-.02-.03-.03-.03-.03-.07-.06-.07-.13,0-.05.04-.08.08-.09.01,0,.03-.02.04-.02,0-.01-.03-.04-.05-.05-.03-.03-.07-.06-.07-.1,0-.04.03-.07.05-.09.02-.02.04-.04.04-.06,0-.02-.02-.04-.04-.06-.02-.02-.04-.04-.03-.07.01-.04.06-.04.11-.04h.22s.1,0,.1,0c.02,0,.03.01.04.03,0,.02,0,.03-.01.04,0,0-.02.02-.04.03-.02.02-.08.06-.08.08,0,.01.02.02.05.03.04.02.1.04.1.11,0,.06-.05.09-.08.11-.03.02-.04.02-.04.04,0,0,0,.01.04.03.03.01.09.04.09.1s-.05.1-.08.12c-.01,0-.04.02-.03.03,0,.03.05.06.07.07.01,0,.02.02.02.04-.01.74-.02,1.93.01,2.05,0,0,0,0,0,0,.09.16.33.28.6.29.26,0,.48-.1.6-.29.01-.02.03-.02.05-.02.02,0,.03.03.02.05-.15.6-.48.96-.89.96Zm-.81-.91c.1.48.42.82.79.83.34,0,.62-.26.77-.72-.14.12-.32.18-.54.18-.29,0-.56-.14-.66-.32-.03-.04-.04-.19-.04-1.07,0-.45,0-.9,0-1.01-.03-.02-.09-.06-.09-.12,0-.05.04-.08.07-.1.03-.02.05-.03.05-.05,0,0,0-.01-.04-.03-.03-.01-.09-.03-.09-.1,0-.07.05-.09.09-.11.03-.01.04-.02.04-.03,0-.02-.02-.02-.06-.04-.04-.02-.09-.04-.1-.1,0-.04.02-.07.05-.1h-.19s.03.05.03.09c0,.05-.03.08-.06.11-.01.01-.03.03-.03.04,0,0,.03.03.04.04.03.03.08.06.08.11,0,.05-.05.08-.08.1,0,0-.03.01-.03.02,0,.03.02.05.05.07.02.02.05.05.05.09,0,.05-.05.08-.09.1-.01,0-.03.02-.04.02,0,.14.02,1.98.02,2.11Zm.41-.1h0,0Zm0,0s0,0,0,0c0,0,0,0,0,0Zm0,0s0,0,0,0c0,0,0,0,0,0Zm0,0s0,0,0,0c0,0,0,0,0,0Z"/>
            </g>
            <g>
              <path class="cls-5" d="m17.12,10.66c.29.48,1.08.34,1.26,0,.06-.02.02-2.07.02-2.07,0,0,.09-.04.09-.1,0-.06-.11-.07-.11-.15s.12-.05.12-.13c0-.08-.12-.07-.12-.15,0-.08.1-.07.11-.15,0-.07-.06-.1-.09-.13h.09s.23,0,.23,0c.16,0,0,.03,0,.13,0,.06.08.1.09.15,0,.05-.11.09-.12.15,0,.06.11.06.11.11,0,.09-.1.11-.1.16,0,.05.13.07.13.12,0,.08-.02,2.12-.02,2.12-.2,1.04-1.37,1.3-1.7-.06h0Z"/>
              <path class="cls-3" d="m17.97,11.64c-.41,0-.75-.36-.89-.96,0-.02,0-.04.02-.05.02,0,.04,0,.05.02.12.19.33.3.6.29.26,0,.51-.12.6-.29,0,0,0,0,0,0,.03-.12.03-1.31.01-2.05,0-.02,0-.03.02-.04.02,0,.07-.04.07-.07,0,0-.02-.02-.03-.03-.03-.02-.08-.05-.08-.12,0-.07.05-.09.08-.1.03-.01.04-.02.04-.03,0-.01-.01-.02-.04-.04-.03-.02-.08-.05-.08-.11,0-.06.05-.09.07-.11.03-.02.03-.02.03-.04,0-.03-.02-.05-.06-.08,0,0-.01-.01-.02-.02-.01-.01-.02-.03-.01-.04,0-.02.02-.03.04-.03h.09s.23,0,.23,0c.05,0,.09,0,.11.04.01.03-.01.05-.03.07-.02.02-.04.04-.04.06,0,.02.02.04.04.06.02.02.05.05.05.09,0,.05-.03.08-.07.11-.02.02-.05.04-.05.05,0,0,.02.02.04.02.03.02.08.04.08.09,0,.07-.05.1-.07.13-.01,0-.03.02-.03.03,0,0,.03.02.05.03.04.02.08.04.08.09,0,.08-.02,2.1-.02,2.12,0,0,0,0,0,0-.1.52-.46.89-.87.9,0,0-.01,0-.02,0Zm-.76-.8c.15.45.43.72.76.72,0,0,0,0,.01,0,.37,0,.7-.35.79-.83,0-.12.01-1.95.02-2.11,0,0-.03-.02-.04-.02-.04-.02-.09-.05-.09-.1,0-.04.03-.07.05-.09.02-.02.04-.04.05-.07,0,0-.02-.01-.03-.02-.03-.02-.08-.04-.08-.1,0-.05.04-.09.08-.11.01-.01.03-.03.04-.04,0-.01-.02-.03-.03-.04-.02-.03-.06-.06-.06-.11,0-.04.01-.06.03-.09h-.21s.03.05.03.09c0,.06-.04.08-.07.1-.03.02-.04.03-.04.05,0,0,0,.01.04.03.03.02.08.05.08.11,0,.07-.05.09-.09.1-.03.01-.03.02-.03.03,0,.02.01.03.04.05.03.02.07.05.07.1,0,.06-.06.1-.09.12,0,.11,0,.56,0,1.01,0,.88-.01,1.03-.04,1.07-.11.18-.38.31-.66.32-.21,0-.4-.06-.54-.18Zm1.16-.21h0,0Zm0,0s0,0,0,0c0,0,0,0,0,0Zm0,0s0,0,0,0t0,0Zm0,0s0,0,0,0c0,0,0,0,0,0Z"/>
            </g>
          </g>
          <g>
            <g>
              <path class="cls-3" d="m16,10.76c.11-.06.22-.12.29-.27h-.44s-.21.13-.31.27h.46Z"/>
              <path class="cls-3" d="m16.02,10.81h-.6l.07-.1c.11-.14.32-.26.33-.27h.01s.56-.02.56-.02l-.04.09c-.08.15-.19.22-.31.29h-.01Zm-.34-.12h.31c.08-.04.14-.08.19-.14h-.32s-.11.08-.19.14Z"/>
            </g>
            <g>
              <path class="cls-3" d="m17.44,10.76c-.11-.06-.22-.12-.29-.27h.44s.21.13.31.27h-.46Z"/>
              <path class="cls-3" d="m18.02,10.81h-.61c-.13-.07-.24-.14-.31-.3l-.04-.09h.56s.01.02.01.02c0,0,.22.13.33.27l.07.1Zm-.57-.12h.31c-.07-.06-.16-.12-.19-.14h-.32c.05.06.12.09.19.14Z"/>
            </g>
            <g>
              <path class="cls-3" d="m15.2,10.33h3.05"/>
              <path class="cls-3" d="m18.25,10.4h-3.05s-.06-.04-.06-.07c0-.03.03-.06.06-.06h3.05s.06.04.06.07c0,.03-.03.06-.06.06Z"/>
            </g>
            <g id="b">
              <g>
                <path class="cls-3" d="m15.34,9.6l.36.48"/>
                <path class="cls-3" d="m15.7,10.14s-.04,0-.05-.02l-.36-.48s-.01-.06.01-.08c.03-.02.06-.01.08.01l.36.48s.01.06-.01.08c-.01,0-.02.01-.04.01Z"/>
              </g>
              <g>
                <path class="cls-3" d="m15.34,10.08l.39-.47"/>
                <path class="cls-3" d="m15.34,10.14s-.03,0-.04-.01c-.03-.02-.03-.06,0-.08l.39-.47s.06-.03.08,0c.03.02.03.06,0,.08l-.39.47s-.03.02-.05.02Z"/>
              </g>
              <g>
                <path class="cls-3" d="m15.55,9.57v.3"/>
                <path class="cls-3" d="m15.54,9.93s0,0,0,0c-.03,0-.06-.03-.06-.06v-.3s.04-.06.07-.06c.03,0,.06.03.06.06v.3s-.04.06-.07.06Z"/>
              </g>
            </g>
            <g>
              <g id="b-2" data-name="b">
                <g>
                  <path class="cls-3" d="m15.92,9.6l.36.48"/>
                  <path class="cls-3" d="m16.28,10.14s-.04,0-.05-.02l-.36-.48s-.01-.06.01-.08c.03-.02.06-.01.08.01l.36.48s.01.06-.01.08c-.01,0-.02.01-.04.01Z"/>
                </g>
                <g>
                  <path class="cls-3" d="m15.92,10.08l.39-.47"/>
                  <path class="cls-3" d="m15.92,10.14s-.03,0-.04-.01c-.03-.02-.03-.06,0-.08l.39-.47s.06-.03.08,0c.03.02.03.06,0,.08l-.39.47s-.03.02-.05.02Z"/>
                </g>
                <g>
                  <path class="cls-3" d="m16.12,9.57v.3"/>
                  <path class="cls-3" d="m16.11,9.93s0,0,0,0c-.03,0-.06-.03-.06-.06v-.3s.04-.06.07-.06c.03,0,.06.03.06.06v.3s-.04.06-.07.06Z"/>
                </g>
              </g>
              <g id="b-3" data-name="b">
                <g>
                  <path class="cls-3" d="m16.51,9.6l.36.48"/>
                  <path class="cls-3" d="m16.87,10.14s-.04,0-.05-.02l-.36-.48s-.01-.06.01-.08c.03-.02.06-.01.08.01l.36.48s.01.06-.01.08c-.01,0-.02.01-.04.01Z"/>
                </g>
                <g>
                  <path class="cls-3" d="m16.51,10.08l.39-.47"/>
                  <path class="cls-3" d="m16.51,10.14s-.03,0-.04-.01c-.03-.02-.03-.06,0-.08l.39-.47s.06-.03.08,0c.03.02.03.06,0,.08l-.39.47s-.03.02-.05.02Z"/>
                </g>
                <g>
                  <path class="cls-3" d="m16.71,9.57v.3"/>
                  <path class="cls-3" d="m16.7,9.93s0,0,0,0c-.03,0-.06-.03-.06-.06v-.3s.04-.06.07-.06c.03,0,.06.03.06.06v.3s-.04.06-.07.06Z"/>
                </g>
              </g>
              <g id="b-4" data-name="b">
                <g>
                  <path class="cls-3" d="m17.12,9.6l.36.48"/>
                  <path class="cls-3" d="m17.48,10.14s-.04,0-.05-.02l-.36-.48s-.01-.06.01-.08c.03-.02.06-.01.08.01l.36.48s.01.06-.01.08c-.01,0-.02.01-.04.01Z"/>
                </g>
                <g>
                  <path class="cls-3" d="m17.12,10.08l.39-.47"/>
                  <path class="cls-3" d="m17.12,10.14s-.03,0-.04-.01c-.03-.02-.03-.06,0-.08l.39-.47s.06-.03.08,0c.03.02.03.06,0,.08l-.39.47s-.03.02-.05.02Z"/>
                </g>
                <g>
                  <path class="cls-3" d="m17.32,9.57v.3"/>
                  <path class="cls-3" d="m17.31,9.93s0,0,0,0c-.03,0-.06-.03-.06-.06v-.3s.04-.06.07-.06c.03,0,.06.03.06.06v.3s-.04.06-.07.06Z"/>
                </g>
              </g>
              <g id="b-5" data-name="b">
                <g>
                  <path class="cls-3" d="m17.7,9.6l.36.48"/>
                  <path class="cls-3" d="m18.06,10.14s-.04,0-.05-.02l-.36-.48s-.01-.06.01-.08c.03-.02.06-.01.08.01l.36.48s.01.06-.01.08c-.01,0-.02.01-.04.01Z"/>
                </g>
                <g>
                  <path class="cls-3" d="m17.7,10.08l.39-.47"/>
                  <path class="cls-3" d="m17.7,10.14s-.03,0-.04-.01c-.03-.02-.03-.06,0-.08l.39-.47s.06-.03.08,0c.03.02.03.06,0,.08l-.39.47s-.03.02-.05.02Z"/>
                </g>
                <g>
                  <path class="cls-3" d="m17.91,9.57v.3"/>
                  <path class="cls-3" d="m17.9,9.93s0,0,0,0c-.03,0-.06-.03-.06-.06v-.3s.04-.06.07-.06c.03,0,.06.03.06.06v.3s-.04.06-.07.06Z"/>
                </g>
              </g>
            </g>
          </g>
        </g>
      </g>
    </g>
  </g>
</svg>