<?xml version="1.0" encoding="UTF-8"?>
<svg id="Layer_2" data-name="Layer 2" xmlns="http://www.w3.org/2000/svg" xmlns:xlink="http://www.w3.org/1999/xlink" viewBox="0 0 366.96 613.92">
  <defs>
    <style>
      .cls-1 {
        clip-path: url(#clippath);
      }

      .cls-2 {
        fill: none;
      }

      .cls-2, .cls-3, .cls-4, .cls-5, .cls-6, .cls-7, .cls-8 {
        stroke-width: 0px;
      }

      .cls-3, .cls-4, .cls-5, .cls-6, .cls-7 {
        fill-rule: evenodd;
      }

      .cls-3, .cls-8 {
        fill: #38059d;
      }

      .cls-4 {
        fill: #472a15;
      }

      .cls-5 {
        fill: #dd9b46;
      }

      .cls-6 {
        fill: red;
      }

      .cls-7 {
        fill: #fff;
      }
    </style>
    <clipPath id="clippath">
      <rect class="cls-2" width="366.96" height="613.92"/>
    </clipPath>
  </defs>
  <g id="Layer_1-2" data-name="Layer 1">
    <g>
      <path class="cls-6" d="m37.12,402.3c.03-5.71.07-11.47.1-17.2.03-5.75.06-11.49.09-17.24-3.17,1.72-6.33,3.41-9.47,5.11,0-2.32.03-4.66.03-7,8.45-4.55,16.93-9.11,25.45-13.68,0,2.32-.03,4.64-.03,6.98-3.17,1.7-6.34,3.41-9.48,5.09-.03,5.74-.06,11.49-.09,17.23-.03,5.73-.07,11.47-.1,17.18-2.18,1.18-4.35,2.36-6.5,3.54h0Zm45.8-25c-2.34,1.29-4.67,2.55-7.01,3.84-.93-2.62-1.82-5.24-2.75-7.86-4.29,2.34-8.58,4.66-12.87,7-.89,3.63-1.82,7.26-2.72,10.84-2.3,1.27-4.61,2.51-6.88,3.76,2.11-8.01,4.21-16.02,6.34-24.03,2.13-8.02,4.26-16,6.37-24.01,2.24-1.23,4.54-2.45,6.85-3.67,2.11,5.71,4.22,11.41,6.34,17.11,2.11,5.67,4.23,11.34,6.34,17.01h0Zm-11.81-9.84c-.76-2.1-1.49-4.25-2.21-6.38-.73-2.16-1.44-4.3-2.14-6.45-.77,2.95-1.55,5.9-2.27,8.83-.72,2.92-1.47,5.86-2.18,8.79,2.91-1.57,5.85-3.18,8.8-4.79h0Zm15.17,8.01c.03-6.83.03-13.66.06-20.49.03-6.85.1-13.68.13-20.53,3.23-1.74,6.5-3.5,9.76-5.24.93,4.14,1.89,8.29,2.82,12.42.93,4.12,1.85,8.25,2.78,12.37.96-5.13,1.95-10.31,2.91-15.47.96-5.13,1.95-10.31,2.91-15.48,3.23-1.72,6.5-3.48,9.76-5.22-.03,6.79-.05,13.57-.1,20.38-.05,6.79-.06,13.59-.06,20.36-2.02,1.09-4.04,2.19-6.02,3.28-.03-5.33,0-10.69.04-16.04.03-5.35.06-10.72.06-16.07-1.05,5.91-2.15,11.85-3.23,17.78-1.09,5.93-2.14,11.85-3.23,17.78-2.08,1.14-4.16,2.28-6.24,3.41-1.02-4.79-2.11-9.56-3.1-14.37-.99-4.81-2.05-9.62-3.04-14.45-.06,5.41-.09,10.78-.13,16.17-.03,5.37-.03,10.71-.06,16.11-2.02,1.1-4.03,2.21-6.02,3.29h0Zm66.41-36.25c-2.34,1.27-4.67,2.56-7.01,3.83-.93-2.56-1.82-5.13-2.75-7.71-4.32,2.36-8.61,4.68-12.9,7.02-.9,3.56-1.79,7.13-2.66,10.7-2.3,1.25-4.61,2.51-6.88,3.76,2.08-7.93,4.19-15.83,6.31-23.73,2.11-7.9,4.23-15.81,6.34-23.69,2.24-1.23,4.55-2.47,6.85-3.72,2.15,5.63,4.23,11.23,6.34,16.82,2.11,5.6,4.26,11.17,6.37,16.73h0Zm-11.84-9.58c-.77-2.08-1.49-4.18-2.21-6.29-.72-2.1-1.44-4.23-2.15-6.31-.77,2.9-1.54,5.8-2.24,8.7-.7,2.9-1.47,5.8-2.18,8.68,2.88-1.59,5.82-3.18,8.77-4.77h0Zm15.3,7.69c.03-6.72.01-13.46.07-20.19.05-6.74.06-13.48.09-20.21,4.55-2.45,9.09-4.87,13.67-7.34,3.39-1.84,5.89-2.82,7.46-2.95,1.57-.12,2.82.47,3.74,1.83.93,1.37,1.39,3.2,1.38,5.58-.02,3.01-.7,5.89-2.11,8.61-1.43,2.73-3.56,5.11-6.37,7.15,1.38.28,2.53.77,3.43,1.5.9.73,2.14,2.23,3.68,4.53,1.28,1.91,2.56,3.82,3.87,5.71-2.59,1.39-5.19,2.81-7.75,4.21-1.57-2.06-3.09-4.13-4.64-6.23-1.65-2.22-2.79-3.58-3.43-4.06-.58-.44-1.21-.69-1.92-.6-.71.09-1.79.52-3.26,1.33-.45.24-.89.47-1.34.71-.03,2.81-.03,5.63-.03,8.44s-.03,5.61-.03,8.42c-2.18,1.18-4.35,2.38-6.5,3.54h0Zm6.59-26.83c1.6-.86,3.2-1.72,4.8-2.6,3.13-1.7,5.06-2.87,5.86-3.65.77-.75,1.37-1.66,1.79-2.69.44-1.05.67-2.17.67-3.39,0-1.36-.25-2.28-.83-2.81-.57-.54-1.41-.61-2.43-.26-.54.18-2.11.98-4.73,2.4-1.7.92-3.39,1.83-5.09,2.73,0,3.43,0,6.85-.03,10.26h0Zm54.76-6.66c-2.34,1.29-4.67,2.56-7.01,3.82-.93-2.51-1.85-5.03-2.75-7.56-4.32,2.32-8.61,4.66-12.9,7-.9,3.52-1.79,7.04-2.69,10.57-2.3,1.27-4.6,2.51-6.88,3.76,2.11-7.82,4.16-15.64,6.27-23.43,2.12-7.83,4.22-15.61,6.34-23.43,2.27-1.23,4.58-2.45,6.88-3.7,2.11,5.52,4.22,11.05,6.34,16.54,2.11,5.49,4.25,10.95,6.4,16.43h0Zm-11.84-9.36c-.77-2.04-1.52-4.09-2.24-6.16-.72-2.07-1.44-4.15-2.18-6.23-.73,2.88-1.48,5.73-2.21,8.59-.72,2.85-1.47,5.73-2.18,8.57,2.91-1.59,5.86-3.18,8.8-4.77h0Zm35.88-18.36c2.08-.32,4.16-.66,6.27-1.03-.96,4.88-2.57,8.99-4.83,12.35-2.25,3.32-5.09,5.93-8.54,7.82-4.29,2.34-7.74,2.45-10.5.32-1.37-1.05-2.43-2.6-3.11-4.7-.67-2.1-1-4.75-.99-7.88.02-3.31.37-6.45,1.06-9.39.69-2.95,1.75-5.72,3.14-8.31,2.77-5.16,6.4-8.94,10.91-11.36,3.93-2.11,7.09-2.36,9.54-.82,1.46.92,2.56,2.77,3.3,5.54-2.14,1.78-4.29,3.56-6.4,5.32-.38-1.82-1.19-3.01-2.4-3.56-1.19-.54-2.66-.35-4.38.58-2.4,1.29-4.31,3.38-5.79,6.29-1.49,2.93-2.22,6.74-2.24,11.49-.01,2.51.14,4.56.48,6.16.34,1.59.89,2.73,1.63,3.39,1.47,1.33,3.39,1.36,5.73.09,1.73-.94,3.2-2.43,4.45-4.47,1.25-2.04,2.14-4.64,2.69-7.84h0Zm11.81,8.16c.03-6.59,0-13.19.03-19.78.03-6.61.06-13.21.06-19.8,7.91-4.23,15.84-8.48,23.75-12.76v6.66c-5.76,3.11-11.49,6.21-17.25,9.3-.03,2.92-.03,5.84-.03,8.78,5.35-2.9,10.69-5.78,16.07-8.68,0,2.21-.03,4.42-.03,6.66-5.38,2.9-10.72,5.78-16.07,8.68v10.72c5.95-3.24,11.91-6.49,17.89-9.75v6.66c-8.16,4.45-16.29,8.89-24.42,13.32h0Zm29.7-16.21c0-6.55.02-13.1.03-19.65.02-6.55.03-13.1.03-19.65,2.18-1.16,4.35-2.32,6.53-3.5,0,6.53,0,13.08-.04,19.63-.03,6.53-.03,13.08-.03,19.6-2.17,1.2-4.35,2.38-6.53,3.57h0Zm19.94-10.87c0-5.41-.01-10.85,0-16.26.02-5.41.03-10.84.07-16.26-3.17,1.7-6.34,3.4-9.51,5.09v-6.61c8.48-4.55,16.97-9.09,25.45-13.66v6.58c-3.17,1.72-6.34,3.41-9.47,5.11,0,5.41-.02,10.82-.04,16.23-.02,5.41,0,10.8,0,16.21-2.18,1.2-4.35,2.38-6.5,3.57h0Zm20.2-11.04c0-6.48-.02-12.97,0-19.46.02-6.51.03-12.99.03-19.48,7.91-4.25,15.84-8.52,23.78-12.78v6.55c-5.76,3.11-11.52,6.21-17.29,9.32v8.63c5.35-2.9,10.69-5.8,16.07-8.7,0,2.19-.03,4.38-.03,6.55-5.37,2.9-10.72,5.82-16.07,8.72v10.52c5.95-3.22,11.94-6.48,17.92-9.75v6.53c-8.16,4.46-16.29,8.91-24.42,13.34h0Z"/>
      <path class="cls-3" d="m199.67,110.81v491.77h-8.08V110.81h8.08Zm-25.09,494.44V110.81h8.08v494.44h-8.08Z"/>
      <path class="cls-3" d="m233.37,115.7v466.91h-8.08V115.7h8.08Zm-25.1,477.31V115.7h8.08v477.31h-8.08Z"/>
      <path class="cls-3" d="m267,121.43v438.89h-8.08V121.43h8.08Zm-24.81,451.05V115.7h8.08v456.78h-8.08Z"/>
      <rect class="cls-8" x="275.99" y="125.51" width="8.08" height="418.85"/>
      <path class="cls-3" d="m334.89,145.76v324h-8.08V145.76h8.08Zm-25.09,360.7V137.32h8.08v369.14h-8.08Z"/>
      <rect class="cls-8" x="343.7" y="153.07" width="8.08" height="251.58"/>
      <rect class="cls-8" x="293" y="131.41" width="8.08" height="396.56"/>
      <path class="cls-4" d="m183.79,432.09c-1.28,0-2.54.05-3.79.15-6.72,3.57-12.94,7.68-18.34,12.71-5.3,4.95-9.81,10.8-13.2,17.94,3.13,4.22,7.08,7.67,11.32,10.25,5.37-9.4,10.16-16.64,16.29-22.81,5.89-5.93,13-10.85,23.01-15.71-4.79-1.65-9.93-2.54-15.28-2.54h0Zm-9.58.98c-9.17,1.9-17.37,6.45-23.75,12.83-2.54,2.54-4.78,5.36-6.69,8.41.87,2.35,1.99,4.55,3.3,6.59,3.45-6.89,7.92-12.61,13.14-17.48,4.23-3.95,8.94-7.33,13.99-10.34h0Zm-31.79,23.56c-3.67,6.71-5.76,14.41-5.76,22.6,0,1.56.08,3.1.23,4.62,7.27,5.91,15.13,10.75,24.08,13.61,8.91,2.84,18.93,3.72,30.57,1.76-1.03-5.11-3.52-11.24-8.62-19.23-6.66,1.86-15.81.03-23.98-4.86-6.86-4.12-13.06-10.4-16.52-18.49h0Zm-5.15,30.25c1.12,6.84,3.7,13.18,7.43,18.7,5.49,5.9,12.06,9.53,19.49,11.34,7.86,1.91,16.71,1.8,26.29.2.12-.64.25-1.28.38-1.93.87-4.29,1.73-8.54,1.02-13.88-11.99,2.02-22.34,1.1-31.56-1.84-8.54-2.72-16.08-7.16-23.06-12.59h0Zm15.39,27.74c8.3,7.31,19.19,11.75,31.13,11.75,1.57,0,3.13-.08,4.66-.23.59-1.52,1.12-2.91,1.28-4.3.09-.85.21-1.68.35-2.5-9.55,1.53-18.43,1.58-26.39-.36-3.91-.95-7.6-2.39-11.04-4.36h0Zm38.18,11.22c8.3-1.24,15.89-4.65,22.18-9.63.4-10.98,0-20.46-2.39-29.55-2.37-8.99-6.69-17.62-14.15-26.97-5.16,4.07-9.06,10.14-11.76,18.94l-.21-.06c12.13,18.82,10.3,27.86,8.43,37.05-.43,2.1-.85,4.2-1.1,6.46-.14,1.3-.53,2.51-1,3.77h0Zm24.35-11.47c.66-.59,1.3-1.19,1.92-1.81,5.49-5.49,9.63-12.33,11.88-19.97l-.18.02c-.98-7.97-2.43-15.54-4.79-22.29-2.35-6.7-5.61-12.62-10.23-17.38-5.66.79-10.57,2.34-14.75,4.93-.29.18-.58.37-.86.56,7.62,9.57,12.05,18.43,14.49,27.68,2.31,8.79,2.81,17.89,2.52,28.26h0Zm15.04-27.09c.45-2.62.69-5.31.69-8.05,0-10.02-3.13-19.31-8.46-26.94-2.1.05-4.12.16-6.05.35,4.27,4.78,7.35,10.55,9.62,16.99,1.92,5.47,3.24,11.41,4.2,17.66h0Zm-9.3-37.07c-1.19-1.52-2.46-2.95-3.82-4.31-4.34-4.34-9.54-7.84-15.3-10.23-10.75,5.04-18.18,10.06-24.25,16.17-5.98,6.01-10.67,13.12-15.95,22.37,7.43,4.01,15.41,5.39,21.13,3.61,3.29-10.64,8.34-17.5,15.19-21.75,6.21-3.85,13.86-5.51,22.99-5.86h0Zm-72.73-6.57c9.1-9.1,21.69-14.74,35.58-14.74s26.48,5.63,35.58,14.74c9.1,9.11,14.74,21.69,14.74,35.58s-5.63,26.48-14.74,35.58c-9.1,9.11-21.69,14.74-35.58,14.74s-26.48-5.63-35.58-14.74c-9.11-9.11-14.74-21.69-14.74-35.58s5.63-26.48,14.74-35.58h0Z"/>
      <path class="cls-5" d="m147.07,460.89c3.45-6.89,7.92-12.61,13.14-17.48,4.23-3.95,8.94-7.33,13.99-10.34-9.17,1.9-17.37,6.45-23.75,12.83-2.54,2.54-4.78,5.36-6.69,8.41.87,2.35,1.99,4.55,3.3,6.59h0Z"/>
      <path class="cls-5" d="m161.66,444.96c-5.3,4.95-9.81,10.8-13.2,17.94,3.13,4.22,7.08,7.67,11.32,10.25,5.37-9.4,10.16-16.64,16.29-22.81,5.89-5.93,13-10.85,23.01-15.71-4.79-1.65-9.93-2.54-15.28-2.54-1.28,0-2.54.05-3.79.15-6.72,3.57-12.94,7.68-18.34,12.71h0Z"/>
      <path class="cls-5" d="m177.57,451.84c-5.98,6.01-10.67,13.12-15.95,22.37,7.43,4.01,15.41,5.39,21.13,3.61,3.29-10.64,8.34-17.5,15.19-21.75,6.21-3.85,13.86-5.51,22.99-5.86-1.19-1.52-2.46-2.95-3.82-4.31-4.34-4.34-9.54-7.84-15.3-10.23-10.75,5.04-18.18,10.06-24.25,16.17h0Z"/>
      <path class="cls-5" d="m196.48,459.68c-5.16,4.07-9.06,10.14-11.76,18.94l-.21-.06c12.13,18.82,10.3,27.86,8.43,37.05-.43,2.1-.85,4.2-1.1,6.46-.14,1.3-.53,2.51-1,3.77,8.3-1.24,15.89-4.65,22.18-9.63.4-10.98,0-20.46-2.39-29.55-2.37-8.99-6.69-17.62-14.15-26.97h0Z"/>
      <path class="cls-5" d="m198.19,458.43c7.62,9.57,12.05,18.43,14.49,27.68,2.31,8.79,2.81,17.89,2.52,28.26.66-.59,1.3-1.19,1.92-1.81,5.49-5.49,9.63-12.33,11.88-19.97l-.18.02c-.98-7.97-2.43-15.54-4.79-22.29-2.35-6.7-5.61-12.62-10.23-17.38-5.66.79-10.57,2.34-14.75,4.93-.29.18-.58.37-.86.56h0Z"/>
      <path class="cls-5" d="m216.42,452.63c4.27,4.78,7.35,10.55,9.62,16.99,1.92,5.47,3.24,11.41,4.2,17.66.45-2.62.69-5.31.69-8.05,0-10.02-3.13-19.31-8.46-26.94-2.1.05-4.12.16-6.05.35h0Z"/>
      <path class="cls-5" d="m191.54,499.21c-1.03-5.11-3.52-11.24-8.62-19.23-6.66,1.86-15.81.03-23.98-4.86-6.86-4.12-13.06-10.4-16.52-18.49-3.67,6.71-5.76,14.41-5.76,22.6,0,1.56.08,3.1.23,4.62,7.27,5.91,15.13,10.75,24.08,13.61,8.91,2.84,18.93,3.72,30.57,1.76h0Z"/>
      <path class="cls-5" d="m191.89,501.31c-11.99,2.02-22.34,1.1-31.56-1.84-8.54-2.72-16.08-7.16-23.06-12.59,1.12,6.84,3.7,13.18,7.43,18.7,5.49,5.9,12.06,9.53,19.49,11.34,7.86,1.91,16.71,1.8,26.29.2l.38-1.93c.87-4.29,1.73-8.54,1.02-13.88h0Z"/>
      <path class="cls-5" d="m190.09,519.33c-9.55,1.53-18.43,1.58-26.39-.36-3.91-.95-7.6-2.39-11.04-4.36,8.3,7.31,19.19,11.75,31.13,11.75,1.57,0,3.13-.08,4.66-.23.59-1.52,1.12-2.91,1.28-4.3.09-.85.21-1.68.35-2.5h0Z"/>
      <rect class="cls-8" x="270.12" y="87.57" width="11" height="11"/>
      <path class="cls-3" d="m223.51,50.79v38.07h8.63c3.23,0,5.55-.19,6.98-.55,1.89-.47,3.44-1.27,4.67-2.4,1.25-1.12,2.25-2.97,3.03-5.54.79-2.57,1.18-6.09,1.18-10.53s-.39-7.84-1.18-10.23c-.78-2.38-1.88-4.23-3.28-5.57-1.41-1.32-3.18-2.23-5.35-2.7-1.61-.36-4.78-.55-9.49-.55h-5.19Zm-11.64-9.72h21.17c4.78,0,8.42.36,10.92,1.09,3.36.99,6.25,2.76,8.65,5.3,2.41,2.53,4.23,5.64,5.49,9.32,1.24,3.67,1.88,8.21,1.88,13.59,0,4.74-.59,8.81-1.77,12.23-1.43,4.19-3.48,7.58-6.14,10.16-2.01,1.97-4.72,3.49-8.14,4.59-2.55.82-5.97,1.22-10.25,1.22h-21.8v-57.5Z"/>
      <rect class="cls-8" x="144.1" y="87.57" width="11" height="11"/>
      <path class="cls-3" d="m86.27,41.07h11.64v31.16c0,4.95.14,8.15.43,9.61.5,2.35,1.66,4.25,3.51,5.68,1.86,1.43,4.39,2.14,7.6,2.14s5.72-.67,7.37-2.02c1.66-1.35,2.65-3,2.99-4.97.33-1.97.51-5.22.51-9.77v-31.83h11.64v30.23c0,6.91-.31,11.79-.94,14.65-.63,2.85-1.78,5.26-3.47,7.23-1.67,1.97-3.92,3.52-6.73,4.68-2.82,1.17-6.49,1.75-11.03,1.75-5.48,0-9.62-.63-12.45-1.9-2.82-1.27-5.06-2.92-6.71-4.95-1.65-2.04-2.71-4.15-3.24-6.39-.76-3.29-1.14-8.16-1.14-14.6v-30.7Z"/>
      <path class="cls-3" d="m40.1,171.42v126.25l96.9-52.63v-102.38h8.08v107.15l-2.11,1.15-104.98,57.02-5.96,3.24v-139.8h8.08Z"/>
      <path class="cls-3" d="m62.94,196.25l.22,56.27c9.63-1.23,19.09-4.46,26.98-8.6,8.94-4.69,16.48-11.77,21.75-21.84,2.93-5.6,3.96-10.91,3-15.38-.89-4.16-3.72-8.84-8.27-11.57-5.65-3.38-13.29-3.88-21.07-3.26-7.25.58-14.2,1.65-22.6,4.39h0Zm-7.2,58.63l-.07-59.98v-3.02s2.91-.85,2.91-.85c8.55-2.5,17.81-4.46,26.64-5.17,9.29-.74,18.42.42,24.97,4.24,6.51,3.8,10.08,8.75,11.4,15.12,1.24,6.03.13,12.91-3.7,20.22-5.62,10.76-15.88,19.48-25.08,24.47-10.03,5.44-20.08,7.96-32.54,9.3-1.5.16-3.06.21-4.54.23v-4.57Z"/>
      <path class="cls-3" d="m50.93,162.02l70-16.63-.05,9.5-70.07,16.91.12-9.78Z"/>
      <g class="cls-1">
        <path class="cls-3" d="m84.46,217.46l.14-59.61,9.17-.63v60.22l-9.31.02Z"/>
        <path class="cls-3" d="m2.91,51.59c29.36-15.88,59.36-28.86,90.32-37.73C124.25,4.97,156.26.19,189.59.72c30.62.48,60.4,5.12,89.5,13.77,29.1,8.65,57.51,21.3,85.39,37.81l2.19,1.3v2.54s-.43,164.04-.43,164.04c-.11,40.72-1.69,95.78-8.51,149.01-6.86,53.57-19.05,105.35-40.4,139.11-15.97,25.25-36.33,44.88-59.08,61.38-22.61,16.39-47.5,29.65-72.78,42.27l-2.02,1.01-2.02-1.06c-26.34-13.78-52.05-27.47-75.2-44.57-23.36-17.25-44.05-37.91-60.05-65.49-18.02-31.07-29.68-71.3-36.76-117.43C2.38,338.63-.16,286.87,0,232.42L.57,55.51v-2.66s2.34-1.26,2.34-1.26Zm6.24,102.77c25-13.47,50.75-24.88,77.49-33.1,28.96-8.9,59.09-14.06,90.67-14.05,33.05.01,64.77,3.98,95.87,12.26,28.44,7.57,56.37,18.74,84.32,33.79l.25-94.56c-26.57-15.52-53.58-27.45-81.18-35.66-28.37-8.43-57.36-12.95-87.12-13.42-32.35-.51-63.51,4.15-93.78,12.82-29.51,8.46-58.16,20.73-86.21,35.75l-.31,96.17Zm348.34,8.53c-28.66-15.81-57.29-27.45-86.46-35.22-30.42-8.1-61.43-11.98-93.71-11.99-30.67-.01-59.98,5.02-88.18,13.68-27.63,8.49-54.21,20.48-80.01,34.66l-.22,68.4c-.17,53.93,2.35,105.22,9.33,150.66,6.92,45.09,18.23,84.27,35.64,114.29,15.31,26.39,35.18,46.21,57.64,62.8,22.07,16.3,46.71,29.53,71.99,42.78,24.23-12.15,48.03-24.92,69.5-40.49,21.93-15.9,41.5-34.75,56.78-58.9,20.57-32.52,32.39-83.04,39.12-135.48,6.76-52.79,8.33-107.46,8.44-147.9l.15-57.3Z"/>
      </g>
      <path class="cls-3" d="m357.48,162.79L13.99,349.74c1.18,11.42,2.58,22.55,4.24,33.35,2.53,16.5,5.65,32.21,9.45,46.96l329.29-179.1c.24-10.91.34-21.23.37-30.77l.15-57.39Zm-240.06,155.05c-.03,6.79-.05,13.57-.1,20.38-.05,6.79-.06,13.59-.06,20.36-2.02,1.09-4.04,2.19-6.02,3.28-.03-5.33,0-10.69.04-16.04.03-5.35.06-10.72.06-16.07-1.05,5.91-2.15,11.85-3.23,17.78-1.09,5.93-2.14,11.85-3.23,17.78l-6.24,3.41c-1.02-4.79-2.11-9.56-3.1-14.37-.99-4.81-2.05-9.62-3.04-14.45-.06,5.41-.09,10.78-.13,16.17-.03,5.37-.03,10.71-.06,16.11-2.02,1.1-4.03,2.21-6.02,3.29.03-6.83.03-13.66.06-20.49.03-6.85.1-13.68.13-20.53,3.23-1.74,6.5-3.5,9.76-5.24.93,4.14,1.89,8.29,2.82,12.42l2.78,12.37c.96-5.13,1.95-10.31,2.91-15.47.96-5.13,1.95-10.31,2.91-15.48,3.23-1.72,6.5-3.48,9.76-5.22h0Zm-47.18,25.34c2.11,5.71,4.22,11.41,6.34,17.11,2.11,5.67,4.23,11.34,6.34,17.01-2.34,1.29-4.67,2.55-7.01,3.84-.93-2.62-1.82-5.24-2.75-7.86-4.29,2.34-8.58,4.66-12.87,7-.89,3.63-1.82,7.26-2.72,10.84-2.3,1.27-4.61,2.51-6.88,3.76,2.11-8.01,4.21-16.02,6.34-24.03,2.13-8.02,4.26-16,6.37-24.01,2.24-1.23,4.54-2.45,6.85-3.67h0Zm-26.53,38.4l-.1,17.18c-2.18,1.18-4.35,2.36-6.5,3.54l.1-17.2.09-17.24c-3.17,1.72-6.33,3.41-9.47,5.11,0-2.32.03-4.66.03-7,8.45-4.55,16.93-9.11,25.45-13.68,0,2.32-.03,4.64-.03,6.98-3.17,1.7-6.34,3.41-9.48,5.09l-.09,17.23Zm102.6-59.08c2.11,5.6,4.26,11.17,6.37,16.73-2.34,1.27-4.67,2.56-7.01,3.83-.93-2.56-1.82-5.13-2.75-7.71-4.32,2.36-8.61,4.68-12.9,7.02-.9,3.56-1.79,7.13-2.66,10.7-2.3,1.25-4.61,2.51-6.88,3.76,2.08-7.93,4.19-15.83,6.31-23.73l6.34-23.69c2.24-1.23,4.55-2.47,6.85-3.72,2.15,5.63,4.23,11.23,6.34,16.82h0Zm9.83,14.84c.03-6.72.01-13.46.07-20.19.05-6.74.06-13.48.09-20.21,4.55-2.45,9.09-4.87,13.67-7.34,3.39-1.84,5.89-2.82,7.46-2.95,1.57-.12,2.82.47,3.74,1.83.93,1.37,1.39,3.2,1.38,5.58-.02,3.01-.7,5.89-2.11,8.61-1.43,2.73-3.56,5.11-6.37,7.15,1.38.28,2.53.77,3.43,1.5.9.73,2.14,2.23,3.68,4.53,1.28,1.91,2.56,3.82,3.87,5.71-2.59,1.39-5.19,2.81-7.75,4.21-1.57-2.06-3.09-4.13-4.64-6.23-1.65-2.22-2.79-3.58-3.43-4.06-.58-.44-1.21-.69-1.92-.6-.71.09-1.79.52-3.26,1.33-.45.24-.89.47-1.34.71-.03,2.81-.03,5.63-.03,8.44s-.03,5.61-.03,8.42c-2.18,1.18-4.35,2.38-6.5,3.54h0Zm29.12-15.89c2.11-7.82,4.16-15.64,6.27-23.43l6.34-23.43c2.27-1.23,4.58-2.45,6.88-3.7,2.11,5.52,4.22,11.05,6.34,16.54,2.11,5.49,4.25,10.95,6.4,16.43-2.34,1.29-4.67,2.56-7.01,3.82-.93-2.51-1.85-5.03-2.75-7.56-4.32,2.32-8.61,4.66-12.9,7l-2.69,10.57c-2.3,1.27-4.6,2.51-6.88,3.76h0Zm34.56-38.44c.02-3.31.37-6.45,1.06-9.39.69-2.95,1.75-5.72,3.14-8.31,2.77-5.16,6.4-8.94,10.91-11.36,3.93-2.11,7.09-2.36,9.54-.82,1.46.92,2.56,2.77,3.3,5.54l-6.4,5.32c-.38-1.82-1.19-3.01-2.4-3.56-1.19-.54-2.66-.35-4.38.58-2.4,1.29-4.31,3.38-5.79,6.29-1.49,2.93-2.22,6.74-2.24,11.49-.01,2.51.14,4.56.48,6.16.34,1.59.89,2.73,1.63,3.39,1.47,1.33,3.39,1.36,5.73.09,1.73-.94,3.2-2.43,4.45-4.47,1.25-2.04,2.14-4.64,2.69-7.84,2.08-.32,4.16-.66,6.27-1.03-.96,4.88-2.57,8.99-4.83,12.35-2.25,3.32-5.09,5.93-8.54,7.82-4.29,2.34-7.74,2.45-10.5.32-1.37-1.05-2.43-2.6-3.11-4.7-.67-2.1-1-4.75-.99-7.88h0Zm33.51,1.29c.03-6.59,0-13.19.03-19.78.03-6.61.06-13.21.06-19.8,7.91-4.23,15.84-8.48,23.75-12.76v6.66c-5.76,3.11-11.49,6.21-17.25,9.3-.03,2.92-.03,5.84-.03,8.78,5.35-2.9,10.69-5.78,16.07-8.68,0,2.21-.03,4.42-.03,6.66-5.38,2.9-10.72,5.78-16.07,8.68v10.72l17.89-9.75v6.66c-8.16,4.45-16.29,8.89-24.42,13.32h0Zm29.7-16.21c0-6.55.02-13.1.03-19.65.02-6.55.03-13.1.03-19.65,2.18-1.16,4.35-2.32,6.53-3.5,0,6.53,0,13.08-.04,19.63-.03,6.53-.03,13.08-.03,19.6-2.17,1.2-4.35,2.38-6.53,3.57h0Zm19.94-10.87c0-5.41-.01-10.85,0-16.26.02-5.41.03-10.84.07-16.26l-9.51,5.09v-6.61c8.48-4.55,16.97-9.09,25.45-13.66v6.58c-3.17,1.72-6.34,3.41-9.47,5.11,0,5.41-.02,10.82-.04,16.23-.02,5.41,0,10.8,0,16.21-2.18,1.2-4.35,2.38-6.5,3.57h0Zm20.2-11.04c0-6.48-.02-12.97,0-19.46.02-6.51.03-12.99.03-19.48,7.91-4.25,15.84-8.52,23.78-12.78v6.55c-5.76,3.11-11.52,6.21-17.29,9.32v8.63c5.35-2.9,10.69-5.8,16.07-8.7,0,2.19-.03,4.38-.03,6.55-5.37,2.9-10.72,5.82-16.07,8.72v10.52c5.95-3.22,11.94-6.48,17.92-9.75v6.53c-8.16,4.46-16.29,8.91-24.42,13.34h0Z"/>
      <path class="cls-3" d="m71.11,367.47c-.76-2.1-1.49-4.25-2.21-6.38-.73-2.16-1.44-4.3-2.14-6.45-.77,2.95-1.55,5.9-2.27,8.83-.72,2.92-1.47,5.86-2.18,8.79,2.91-1.57,5.85-3.18,8.8-4.79h0Z"/>
      <path class="cls-3" d="m134.25,325.74c-.7,2.9-1.47,5.8-2.18,8.68,2.88-1.59,5.82-3.18,8.77-4.77-.77-2.08-1.49-4.18-2.21-6.29-.72-2.1-1.44-4.23-2.15-6.31-.77,2.9-1.54,5.8-2.24,8.7h0Z"/>
      <path class="cls-3" d="m162.77,300.25c0,3.43,0,6.85-.03,10.26,1.6-.86,3.2-1.72,4.8-2.6,3.13-1.7,5.06-2.87,5.86-3.65.77-.75,1.37-1.66,1.79-2.69.44-1.05.67-2.17.67-3.39,0-1.36-.25-2.28-.83-2.81-.57-.54-1.41-.61-2.43-.26-.54.18-2.11.98-4.73,2.4-1.7.92-3.39,1.83-5.09,2.73h0Z"/>
      <path class="cls-3" d="m199.03,290.69c-.72,2.85-1.47,5.73-2.18,8.57,2.91-1.59,5.86-3.18,8.8-4.77-.77-2.04-1.52-4.09-2.24-6.16-.72-2.07-1.44-4.15-2.18-6.23-.73,2.88-1.48,5.73-2.21,8.59h0Z"/>
      <path class="cls-7" d="m43.71,381.58l.09-17.23c3.14-1.67,6.31-3.39,9.48-5.09,0-2.34.03-4.66.03-6.98-8.52,4.57-17,9.12-25.45,13.68,0,2.34-.03,4.68-.03,7,3.14-1.7,6.3-3.39,9.47-5.11l-.09,17.24-.1,17.2c2.14-1.18,4.32-2.36,6.5-3.54l.1-17.18Z"/>
      <path class="cls-7" d="m63.4,346.85c-2.11,8.01-4.24,15.99-6.37,24.01-2.13,8.01-4.22,16.02-6.34,24.03,2.27-1.24,4.58-2.49,6.88-3.76.9-3.59,1.82-7.21,2.72-10.84,4.29-2.34,8.58-4.66,12.87-7,.93,2.62,1.82,5.24,2.75,7.86,2.34-1.29,4.67-2.55,7.01-3.84-2.11-5.67-4.23-11.34-6.34-17.01-2.12-5.71-4.22-11.4-6.34-17.11-2.3,1.22-4.61,2.45-6.85,3.67h0Zm-1.09,25.41c.7-2.92,1.46-5.87,2.18-8.79.72-2.93,1.5-5.88,2.27-8.83.7,2.15,1.42,4.28,2.14,6.45.71,2.13,1.44,4.27,2.21,6.38-2.94,1.61-5.89,3.22-8.8,4.79h0Z"/>
      <path class="cls-7" d="m86.47,334.46c-.03,6.85-.1,13.68-.13,20.53-.03,6.83-.03,13.66-.06,20.49,1.99-1.07,4-2.19,6.02-3.29.03-5.39.03-10.74.06-16.11.04-5.39.07-10.76.13-16.17.99,4.83,2.05,9.64,3.04,14.45.99,4.81,2.08,9.58,3.1,14.37l6.24-3.41c1.09-5.93,2.15-11.85,3.23-17.78,1.09-5.93,2.18-11.88,3.23-17.78,0,5.35-.03,10.72-.06,16.07-.04,5.35-.07,10.72-.04,16.04,1.99-1.1,4-2.19,6.02-3.28,0-6.77.01-13.57.06-20.36.05-6.81.06-13.6.1-20.38-3.27,1.74-6.53,3.5-9.76,5.22-.96,5.18-1.96,10.35-2.91,15.48-.96,5.15-1.95,10.33-2.91,15.47l-2.78-12.37c-.93-4.12-1.89-8.27-2.82-12.42-3.26,1.74-6.53,3.5-9.76,5.24h0Z"/>
      <path class="cls-7" d="m133.13,309.4l-6.34,23.69c-2.11,7.9-4.22,15.8-6.31,23.73,2.27-1.25,4.58-2.51,6.88-3.76.86-3.57,1.76-7.13,2.66-10.7,4.29-2.34,8.57-4.66,12.9-7.02.93,2.58,1.82,5.15,2.75,7.71,2.34-1.27,4.67-2.56,7.01-3.83-2.11-5.56-4.25-11.13-6.37-16.73-2.11-5.59-4.19-11.19-6.34-16.82-2.3,1.25-4.61,2.49-6.85,3.72h0Zm-1.05,25.02c.7-2.88,1.47-5.78,2.18-8.68.7-2.9,1.47-5.8,2.24-8.7.7,2.08,1.43,4.21,2.15,6.31.72,2.11,1.44,4.21,2.21,6.29-2.95,1.59-5.89,3.18-8.77,4.77h0Z"/>
      <path class="cls-7" d="m156.3,296.94c-.03,6.72-.05,13.46-.09,20.21-.05,6.72-.04,13.46-.07,20.19,2.14-1.16,4.32-2.36,6.5-3.54,0-2.81.03-5.62.03-8.42s0-5.63.03-8.44c.45-.23.9-.47,1.34-.71,1.48-.81,2.56-1.25,3.26-1.33.7-.09,1.34.16,1.92.6.64.48,1.78,1.84,3.43,4.06,1.55,2.09,3.07,4.17,4.64,6.23,2.56-1.39,5.15-2.81,7.75-4.21-1.31-1.89-2.59-3.8-3.87-5.71-1.54-2.3-2.79-3.8-3.68-4.53-.89-.73-2.05-1.22-3.43-1.5,2.82-2.04,4.94-4.42,6.37-7.15,1.42-2.72,2.09-5.61,2.11-8.61.01-2.38-.45-4.21-1.38-5.58-.92-1.36-2.18-1.94-3.74-1.83-1.57.12-4.06,1.11-7.46,2.95-4.58,2.48-9.12,4.9-13.67,7.34h0Zm11.23,10.97c-1.6.88-3.2,1.74-4.8,2.6.03-3.41.03-6.83.03-10.26,1.7-.9,3.39-1.81,5.09-2.73,2.62-1.42,4.19-2.22,4.73-2.4,1.02-.35,1.86-.28,2.43.26.58.54.83,1.46.83,2.81,0,1.22-.23,2.34-.67,3.39-.43,1.03-1.02,1.94-1.79,2.69-.8.77-2.72,1.95-5.86,3.65h0Z"/>
      <path class="cls-7" d="m201.24,282.1c.74,2.08,1.46,4.15,2.18,6.23.72,2.07,1.47,4.12,2.24,6.16-2.94,1.59-5.89,3.18-8.8,4.77.7-2.83,1.46-5.72,2.18-8.57.72-2.86,1.47-5.71,2.21-8.59h0Zm-3.36-7.52l-6.34,23.43c-2.11,7.79-4.16,15.61-6.27,23.43,2.27-1.25,4.58-2.49,6.88-3.76l2.69-10.57c4.29-2.34,8.57-4.68,12.9-7,.89,2.54,1.82,5.05,2.75,7.56,2.34-1.27,4.67-2.53,7.01-3.82-2.14-5.48-4.29-10.94-6.4-16.43-2.11-5.49-4.23-11.02-6.34-16.54-2.3,1.25-4.61,2.47-6.88,3.7h0Z"/>
      <path class="cls-7" d="m220.89,273.62c-.69,2.94-1.04,6.08-1.06,9.39-.01,3.13.32,5.78.99,7.88.68,2.11,1.74,3.65,3.11,4.7,2.76,2.13,6.21,2.02,10.5-.32,3.46-1.89,6.3-4.49,8.54-7.82,2.27-3.36,3.87-7.47,4.83-12.35-2.11.36-4.19.71-6.27,1.03-.54,3.2-1.44,5.8-2.69,7.84-1.25,2.04-2.72,3.53-4.45,4.47-2.33,1.27-4.25,1.25-5.73-.09-.74-.67-1.3-1.8-1.63-3.39-.34-1.61-.49-3.65-.48-6.16.02-4.75.75-8.56,2.24-11.49,1.48-2.91,3.39-5.01,5.79-6.29,1.73-.92,3.19-1.12,4.38-.58,1.21.55,2.01,1.74,2.4,3.56l6.4-5.32c-.73-2.77-1.83-4.62-3.3-5.54-2.45-1.55-5.6-1.29-9.54.82-4.51,2.42-8.14,6.2-10.91,11.36-1.39,2.59-2.45,5.36-3.14,8.31h0Z"/>
      <path class="cls-7" d="m253.44,244.71c0,6.59-.03,13.19-.06,19.8-.03,6.59,0,13.19-.03,19.78,8.13-4.43,16.26-8.87,24.42-13.32v-6.66l-17.89,9.75v-10.72c5.34-2.9,10.69-5.78,16.07-8.68,0-2.23.03-4.45.03-6.66-5.37,2.9-10.72,5.78-16.07,8.68,0-2.94,0-5.86.03-8.78,5.76-3.09,11.49-6.18,17.25-9.3v-6.66c-7.91,4.28-15.84,8.53-23.75,12.76h0Z"/>
      <path class="cls-7" d="m283.07,248.43c-.02,6.55-.03,13.1-.03,19.65,2.18-1.18,4.35-2.36,6.53-3.57,0-6.53,0-13.08.03-19.6.04-6.55.04-13.1.04-19.63-2.18,1.18-4.36,2.34-6.53,3.5,0,6.55-.01,13.1-.03,19.65h0Z"/>
      <path class="cls-7" d="m302.98,240.96c-.01,5.41,0,10.84,0,16.26,2.15-1.18,4.32-2.36,6.5-3.57,0-5.41-.02-10.8,0-16.21.01-5.41.04-10.82.04-16.23,3.13-1.7,6.3-3.39,9.47-5.11v-6.58c-8.48,4.58-16.96,9.11-25.45,13.66v6.61l9.51-5.09c-.04,5.41-.05,10.85-.07,16.26h0Z"/>
      <path class="cls-7" d="m323.18,226.72c-.02,6.48,0,12.97,0,19.46,8.13-4.43,16.26-8.87,24.42-13.34v-6.53c-5.98,3.27-11.97,6.53-17.92,9.75v-10.52c5.34-2.9,10.69-5.82,16.07-8.72,0-2.17.03-4.36.03-6.55-5.38,2.9-10.72,5.8-16.07,8.7v-8.63c5.76-3.11,11.52-6.21,17.29-9.32v-6.55c-7.94,4.25-15.88,8.53-23.78,12.78,0,6.49-.02,12.97-.03,19.48h0Z"/>
      <path class="cls-7" d="m86.64,121.26c28.96-8.9,59.09-14.06,90.67-14.05,33.05.01,64.77,3.98,95.87,12.26,28.44,7.57,56.37,18.74,84.32,33.79l.25-94.56c-26.57-15.52-53.58-27.45-81.18-35.66-28.37-8.43-57.36-12.95-87.12-13.42-32.35-.51-63.51,4.15-93.78,12.82-29.51,8.46-58.16,20.73-86.21,35.75l-.31,96.17c25-13.47,50.75-24.88,77.49-33.1h0Zm-.37-49.48v-30.7h11.64v31.16c0,4.95.14,8.15.43,9.61.5,2.35,1.66,4.25,3.51,5.68,1.86,1.43,4.39,2.14,7.6,2.14s5.72-.67,7.37-2.02c1.66-1.35,2.65-3,2.99-4.97.33-1.97.51-5.22.51-9.77v-31.83h11.64v30.23c0,6.91-.31,11.79-.94,14.65-.63,2.85-1.78,5.26-3.47,7.23-1.67,1.97-3.92,3.52-6.73,4.68-2.82,1.17-6.49,1.75-11.03,1.75-5.48,0-9.62-.63-12.45-1.9-2.82-1.27-5.06-2.92-6.71-4.95-1.65-2.04-2.71-4.15-3.24-6.39-.76-3.29-1.14-8.16-1.14-14.6h0Zm57.83,26.8v-11h11v11h-11Zm67.76,0v-57.5h21.17c4.78,0,8.42.36,10.92,1.09,3.36.99,6.25,2.76,8.65,5.3,2.41,2.53,4.23,5.64,5.49,9.32,1.24,3.67,1.88,8.21,1.88,13.59,0,4.74-.59,8.81-1.77,12.23-1.43,4.19-3.48,7.58-6.14,10.16-2.01,1.97-4.72,3.49-8.14,4.59-2.55.82-5.97,1.22-10.25,1.22h-21.8Zm58.26,0v-11h11v11h-11Z"/>
      <path class="cls-7" d="m223.51,50.79v38.07h8.63c3.23,0,5.55-.19,6.98-.55,1.89-.47,3.44-1.27,4.67-2.4,1.25-1.12,2.25-2.97,3.03-5.54.79-2.57,1.18-6.09,1.18-10.53s-.39-7.84-1.18-10.23c-.78-2.38-1.88-4.23-3.28-5.57-1.41-1.32-3.18-2.23-5.35-2.7-1.61-.36-4.78-.55-9.49-.55h-5.19Z"/>
      <path class="cls-7" d="m174.58,350.15L27.68,430.05c6.57,25.57,15.15,48.29,26.2,67.32,15.31,26.39,35.18,46.21,57.64,62.8,19.47,14.38,40.93,26.37,63.07,38.09v-69.56c-10.2-1.89-19.32-6.86-26.37-13.9-9.11-9.11-14.74-21.69-14.74-35.58s5.63-26.48,14.74-35.58c7.04-7.04,16.16-12.01,26.37-13.9v-79.59Z"/>
      <path class="cls-7" d="m63.16,252.51c9.63-1.23,19.09-4.46,26.98-8.6,8.94-4.69,16.48-11.77,21.75-21.84,2.93-5.6,3.96-10.91,3-15.38-.89-4.16-3.72-8.84-8.27-11.57-3.62-2.17-8.07-3.15-12.84-3.41v25.73l-9.31.02.06-25.51c-6.89.6-13.57,1.7-21.58,4.3l.22,56.27Z"/>
      <path class="cls-7" d="m32.02,304.45v-133.03h8.08v126.25l96.9-52.63v-102.38h8.08v107.15l-2.11,1.15-104.98,57.02-5.96,3.24v-6.77Zm23.71-49.57l-.07-59.98v-3.02s2.91-.85,2.91-.85c8.33-2.43,17.34-4.36,25.97-5.11l.05-22.27-33.78,8.15.12-9.78,70-16.63-.05,9.5-27.1,6.54v24.31c6.17.35,11.9,1.72,16.41,4.36,6.51,3.8,10.08,8.75,11.4,15.12,1.24,6.03.13,12.91-3.7,20.22-5.62,10.76-15.88,19.48-25.08,24.47-10.03,5.44-20.08,7.96-32.54,9.3-1.5.16-3.06.21-4.54.23v-4.57Zm-41.75,94.86l160.59-87.4V115.69c-29.68.28-58.08,5.26-85.44,13.67-27.63,8.49-54.21,20.48-80.01,34.66l-.22,68.4c-.13,41.11,1.31,80.69,5.09,117.32h0Z"/>
      <path class="cls-7" d="m182.66,115.72v142.22l8.94-4.86V115.94c-2.97-.11-5.95-.18-8.94-.22h0Z"/>
      <path class="cls-7" d="m199.67,116.32v132.36l8.6-4.68v-127.08c-2.85-.23-5.72-.43-8.6-.59h0Z"/>
      <path class="cls-7" d="m216.35,117.66v121.94l8.94-4.86v-116.04c-2.97-.38-5.95-.73-8.94-1.04h0Z"/>
      <path class="cls-7" d="m233.37,119.83v110.51l8.81-4.8v-104.26c-2.93-.52-5.87-1.01-8.81-1.45h0Z"/>
      <path class="cls-7" d="m250.26,122.82v98.33l8.66-4.71v-91.76c-2.88-.66-5.76-1.28-8.66-1.86h0Z"/>
      <path class="cls-7" d="m267,126.62v85.41l8.99-4.89v-78.12c-1.65-.47-3.31-.92-4.96-1.36-1.34-.36-2.68-.7-4.03-1.05h0Z"/>
      <path class="cls-7" d="m284.07,131.41v71.34l8.93-4.86v-63.6c-2.97-1-5.95-1.96-8.93-2.88h0Z"/>
      <path class="cls-7" d="m301.07,137.11v56.38l8.72-4.75v-48.35c-2.9-1.14-5.81-2.23-8.72-3.29h0Z"/>
      <path class="cls-7" d="m317.87,143.67v40.68l8.94-4.86v-31.94c-2.98-1.34-5.96-2.63-8.94-3.88h0Z"/>
      <path class="cls-7" d="m334.89,151.28v23.81l8.81-4.8v-14.7c-2.94-1.48-5.87-2.92-8.81-4.32h0Z"/>
      <path class="cls-7" d="m351.78,159.79v6.11l5.62-3.06c-1.87-1.03-3.75-2.05-5.62-3.05h0Z"/>
      <path class="cls-7" d="m191.59,429.51v-88.61l-8.94,4.86v83.16c.38,0,.76-.01,1.14-.01,2.65,0,5.26.2,7.8.6h0Z"/>
      <path class="cls-7" d="m199.67,336.5v94.96c3,1,5.88,2.27,8.6,3.79v-103.43l-8.6,4.68Z"/>
      <path class="cls-7" d="m216.35,327.43v113.43c1.04.89,2.05,1.82,3.02,2.79,2.18,2.18,4.16,4.56,5.92,7.11v-128.19l-8.94,4.86Z"/>
      <path class="cls-7" d="m233.37,318.18v152.38c.49,2.82.74,5.71.74,8.67s-.25,5.85-.74,8.67v87.72c2.97-1.85,5.91-3.73,8.81-5.66v-256.57l-8.81,4.79Z"/>
      <path class="cls-7" d="m250.26,308.99v255.44c.92-.65,1.83-1.3,2.74-1.96,1.99-1.45,3.97-2.91,5.92-4.41v-253.77l-8.66,4.71Z"/>
      <path class="cls-7" d="m267,299.89v251.72c3.06-2.54,6.06-5.16,8.99-7.86v-248.75l-8.99,4.89Z"/>
      <path class="cls-7" d="m284.07,290.6v245.32c3.07-3.13,6.04-6.36,8.93-9.71v-240.46l-8.93,4.86Z"/>
      <path class="cls-7" d="m301.07,281.35v234.82c3.04-4.04,5.94-8.24,8.71-12.61,0,0,0,0,.01-.01v-226.94l-8.72,4.74Z"/>
      <path class="cls-7" d="m317.87,272.22v216.77c3.23-6.6,6.2-13.71,8.94-21.22v-200.41l-8.94,4.86Z"/>
      <path class="cls-7" d="m334.89,262.96v179.03c3.42-12.67,6.34-26.06,8.81-39.86v-143.97l-8.81,4.79Z"/>
      <path class="cls-7" d="m351.78,253.78v88.69c3.13-31.94,4.59-63.62,5.19-91.51l-5.19,2.82Z"/>
      <path class="cls-7" d="m225.29,580.51v-72.81c-1.75,2.55-3.74,4.93-5.92,7.11-.97.97-1.98,1.9-3.02,2.79v68.06c3-1.69,5.98-3.4,8.94-5.15h0Z"/>
      <path class="cls-7" d="m208.27,590.11v-66.91c-2.72,1.52-5.6,2.79-8.6,3.79v67.7c2.88-1.51,5.75-3.03,8.6-4.58h0Z"/>
      <path class="cls-7" d="m191.59,598.86v-69.92c-2.54.39-5.15.6-7.8.6-.38,0-.76,0-1.14-.01v72.98c.28.15.56.29.84.44,2.7-1.36,5.4-2.72,8.09-4.09h0Z"/>
    </g>
  </g>
</svg>