<?xml version="1.0" encoding="UTF-8"?>
<svg id="Layer_2" data-name="Layer 2" xmlns="http://www.w3.org/2000/svg" xmlns:xlink="http://www.w3.org/1999/xlink" viewBox="0 0 33.56 19.58">
  <defs>
    <style>
      .cls-1 {
        clip-path: url(#clippath);
      }

      .cls-2 {
        fill: none;
      }

      .cls-2, .cls-3, .cls-4, .cls-5, .cls-6 {
        stroke-width: 0px;
      }

      .cls-7 {
        clip-path: url(#clippath-1);
      }

      .cls-8 {
        clip-path: url(#clippath-4);
      }

      .cls-9 {
        clip-path: url(#clippath-3);
      }

      .cls-10 {
        clip-path: url(#clippath-2);
      }

      .cls-11 {
        clip-path: url(#clippath-7);
      }

      .cls-12 {
        clip-path: url(#clippath-8);
      }

      .cls-13 {
        clip-path: url(#clippath-6);
      }

      .cls-14 {
        clip-path: url(#clippath-5);
      }

      .cls-4 {
        fill: #4694d2;
      }

      .cls-5 {
        fill: #42a04b;
      }

      .cls-6 {
        fill: #eac126;
      }
    </style>
    <clipPath id="clippath">
      <rect class="cls-2" width="33.56" height="19.58"/>
    </clipPath>
    <clipPath id="clippath-1">
      <rect class="cls-2" width="33.56" height="19.58"/>
    </clipPath>
    <clipPath id="clippath-2">
      <rect class="cls-2" width="33.56" height="19.58"/>
    </clipPath>
    <clipPath id="clippath-3">
      <rect class="cls-2" width="33.56" height="19.58"/>
    </clipPath>
    <clipPath id="clippath-4">
      <rect class="cls-2" width="33.56" height="19.58"/>
    </clipPath>
    <clipPath id="clippath-5">
      <rect class="cls-2" width="33.56" height="19.58"/>
    </clipPath>
    <clipPath id="clippath-6">
      <rect class="cls-2" width="33.56" height="19.58"/>
    </clipPath>
    <clipPath id="clippath-7">
      <rect class="cls-2" width="33.56" height="19.58"/>
    </clipPath>
    <clipPath id="clippath-8">
      <rect class="cls-2" width="33.56" height="19.58"/>
    </clipPath>
  </defs>
  <g id="Layer_1-2" data-name="Layer 1">
    <g id="TANZANIA">
      <g>
        <g class="cls-1">
          <polygon class="cls-5" points="0 0 0 14.86 25.59 0 0 0"/>
        </g>
        <g class="cls-7">
          <polygon class="cls-4" points="7.97 19.58 33.56 19.58 33.56 4.71 7.97 19.58"/>
        </g>
        <g class="cls-10">
          <polygon class="cls-6" points="33.54 0 33.55 0 33.56 0 33.54 0"/>
        </g>
        <g class="cls-9">
          <polygon class="cls-6" points="0 19.58 .01 19.57 0 19.55 0 19.58"/>
        </g>
        <g class="cls-8">
          <polygon class="cls-6" points="25.59 0 0 14.86 0 16.38 28.14 0 25.59 0"/>
        </g>
        <g class="cls-14">
          <polygon class="cls-6" points="0 19.58 0 19.58 .02 19.58 .01 19.57 0 19.58"/>
        </g>
        <g class="cls-13">
          <polygon class="cls-6" points="33.56 0 33.55 0 33.56 .02 33.56 0"/>
        </g>
        <g class="cls-11">
          <polygon class="cls-6" points="5.42 19.58 7.97 19.58 33.56 4.71 33.56 3.2 5.42 19.58"/>
        </g>
        <g class="cls-12">
          <polygon class="cls-3" points="28.14 0 0 16.38 0 19.55 .01 19.57 .02 19.58 5.42 19.58 33.56 3.2 33.56 .02 33.55 0 33.54 0 28.14 0"/>
        </g>
      </g>
    </g>
  </g>
</svg>