<?xml version="1.0" encoding="UTF-8"?>
<svg id="Layer_2" data-name="Layer 2" xmlns="http://www.w3.org/2000/svg" viewBox="0 0 251.24 346.3">
  <defs>
    <style>
      .cls-1 {
        stroke: #662941;
      }

      .cls-1, .cls-2, .cls-3 {
        fill: none;
        stroke-width: 2px;
      }

      .cls-2 {
        stroke: #e38a91;
      }

      .cls-3 {
        stroke: #839eaf;
      }

      .cls-4 {
        fill: #063d5e;
      }

      .cls-4, .cls-5, .cls-6 {
        stroke-width: 0px;
      }

      .cls-5 {
        fill: #c61523;
      }

      .cls-6 {
        fill: #fff;
      }
    </style>
  </defs>
  <g id="Ebene_1" data-name="Ebene 1">
    <g>
      <path class="cls-3" d="m10.29,5.3c-1.62,0-3.3-.13-4.92-.04-.04,0-.08.04-.08.08,0,77.04.01,154.08.04,231.11,0,7.26.47,14.46,2.07,21.56,3.92,17.42,16.88,28.21,32.7,34.8,14.71,6.13,29.35,9.55,45.13,15.76,7.42,2.92,14.49,6.51,21.21,10.76,6.21,3.93,11.7,8.72,16.4,14.39.91,1.1,1.82,2.21,2.71,3.33.05.06.1.06.15,0,7-9.47,15.72-16.93,26.17-22.37,6.5-3.39,13.53-6.11,20.35-8.37,6.83-2.27,14.52-4.76,23.08-7.48,10.85-3.45,22.05-7.48,31.22-14.43,9.47-7.17,15.38-16.64,17.72-28.41,1.31-6.57,1.75-13.51,1.75-20.03,0-76.85,0-153.7,0-230.55,0-.07-.04-.11-.11-.11-.88-.03-1.76-.04-2.64-.04-77.65.03-155.3.05-232.95.05" vector-effect="non-scaling-stroke"/>
      <path class="cls-3" d="m161.12,27.52c-.05,3.3-.06,6.6-.03,9.89,0,1.22.15,2.51.44,3.85,1.37,6.58,7.65,8.13,13.38,6.89,4.53-.98,6.89-4.82,7.03-9.29.09-2.85.1-6.62.05-11.32-.03-2.8,0-4.54-.65-6.66-1.79-5.87-7.84-7.06-13.16-5.92-4.35.94-6.44,4.24-6.93,8.47-.05.43-.09,1.78-.12,4.07" vector-effect="non-scaling-stroke"/>
      <path class="cls-3" d="m226.64,42.88c-2.03-.18-3.09-1.9-3.13-3.8-.08-4.29-.08-9.09-.01-14.4.02-1.77.41-3.66,2.35-4.24,2.13-.63,4.98-.3,5.61,2.24.22.91.31,1.89.25,2.94,0,.08.03.12.11.12h6.11c.05,0,.08-.03.08-.08.14-7.63-4.01-11.39-11.52-11.02-6,.3-9.25,4.34-9.29,10.24-.01,2.63-.01,6.77,0,12.44.01,5.08,1.57,9.66,7.11,10.86,5.62,1.21,11.56-.26,13.21-6.47.47-1.76.48-3.57.51-5.4,0-.14-.07-.21-.21-.21h-5.97c-.09,0-.14.05-.14.14-.04,3.93.16,7.14-5.09,6.67" vector-effect="non-scaling-stroke"/>
      <path class="cls-3" d="m20.27,20.63s.06.03.06.06v27.3s.03.06.06.06l6.19-.02s.06-.03.06-.06v-27.28s.03-.06.06-.06h7.26s.06-.03.06-.06v-5.46s-.03-.06-.06-.06h0l-20.92.03s-.06.03-.06.06h0v5.42s.03.06.06.06h7.21" vector-effect="non-scaling-stroke"/>
      <path class="cls-3" d="m50.18,41.12s.07.03.08.07l1.57,6.81s.04.07.08.07h5.85s.08-.05.08-.1c0,0,0-.01,0-.02l-7.91-32.85s-.04-.07-.08-.07l-7.96.05s-.07.03-.08.06l-8.13,32.81s.02.09.06.1c0,0,.01,0,.02,0h5.9s.07-.02.08-.06l1.75-6.81s.04-.06.08-.06h8.62" vector-effect="non-scaling-stroke"/>
      <path class="cls-3" d="m76.48,33.29c4.23-1.72,5.35-6.03,4.76-10.16-.78-5.48-4.85-7.96-10.11-8.05-2.61-.05-5.94-.06-9.99-.03-.07,0-.11.04-.11.11.03,10.93.05,21.86,0,32.78,0,.08.04.11.11.11h6.05c.07,0,.11-.04.11-.11v-13.2c0-.07.04-.11.11-.11l2.82.03c.07,0,.13.04.15.1l5.39,13.18c.03.08.09.11.17.11h6.48c.1,0,.13-.05.09-.14l-6.1-14.47c-.03-.07,0-.12.06-.15" vector-effect="non-scaling-stroke"/>
      <path class="cls-3" d="m100.45,41.12s.06.02.06.05l1.57,6.84s.03.05.06.05h5.89s.06-.04.06-.07c0,0,0,0,0-.01l-7.92-32.88s-.03-.05-.06-.05l-7.99.03s-.05.02-.06.05l-8.14,32.86s.01.07.05.08c0,0,0,0,.01,0h5.94s.05-.02.06-.04l1.76-6.84s.03-.05.06-.05h8.65" vector-effect="non-scaling-stroke"/>
      <path class="cls-3" d="m117.39,26.85s.03-.06.06-.06c.02,0,.05.01.06.04l9.6,21.19s.03.04.06.04h5.96s.06-.03.06-.06l-.02-32.89s-.03-.06-.06-.06h-5.62s-.06.03-.06.06v19.5s-.03.06-.06.06c-.02,0-.05-.01-.06-.04l-8.77-19.55s-.03-.04-.06-.04h-6.78s-.06.03-.06.06v32.89s.03.06.06.06h5.63s.06-.02.06-.05v-21.14" vector-effect="non-scaling-stroke"/>
      <path class="cls-3" d="m137.11,20.57s.03.06.06.06h7.21s.06.03.06.06v27.28s.03.06.06.06h0l6.19.03s.06-.03.06-.06v-27.31s.03-.06.06-.06h7.21s.06-.03.06-.07h0v-5.44s-.03-.06-.06-.06h-20.87s-.06.04-.06.07h0s0,5.44,0,5.44" vector-effect="non-scaling-stroke"/>
      <path class="cls-3" d="m204.13,28.23s-.07-.03-.07-.07h0v-7.45s.03-.07.07-.07h10s.07-.03.07-.07v-5.44s-.03-.07-.07-.07h-16.32s-.07.02-.07.06h0v32.86s.03.07.07.07h6.18s.07-.02.07-.06h0v-14.14s.03-.07.07-.07h0l7.81.03s.07-.03.07-.07v-5.44s-.03-.07-.07-.07h-7.81" vector-effect="non-scaling-stroke"/>
      <path class="cls-3" d="m103.68,180.66l.79,2.91c.02.07,0,.1-.08.1H10.46c-.06,0-.11.05-.11.11,0,16.94,0,33.88,0,50.82,0,8.16.55,16.33,2.69,24.24,3.01,11.13,11.28,19.97,21.21,25.39,8.3,4.53,17.37,7.62,26.6,10.59,22.86,7.36,46.08,13.8,62.65,31.76.68.73,1.37,1.48,2.07,2.24.05.05.1.05.15,0,9.03-10.44,20.19-17.9,32.93-23.09,3.7-1.51,6.73-2.66,9.08-3.46,7.28-2.48,16.52-5.49,27.74-9.02,9.19-2.9,18.52-6.54,26.39-12.03,9.01-6.29,14.68-14.83,17.03-25.61,1.65-7.55,1.79-15.02,1.8-22.71.03-16.39.05-32.75.06-49.09,0-.07-.05-.12-.12-.12h0l-73.52-.02c-.06,0-.09-.03-.09-.09l-.05-2.91" vector-effect="non-scaling-stroke"/>
      <path class="cls-2" d="m166.97,180.67h73.67c.06,0,.1-.04.1-.1V57.85c0-.08-.04-.12-.12-.12H10.45c-.07,0-.11.04-.11.11v122.74c0,.05.04.1.1.1h93.25" vector-effect="non-scaling-stroke"/>
      <path class="cls-1" d="m166.97,180.67c-.81-6.12-2.75-12.26-2.99-18.38-.31-7.79,4-15.07,11.7-17.38,3.35-1.01,6.45-1.09,9.84-1.07.12,0,.14-.04.04-.12-7.71-6.58-16.56-10.95-26.91-8.13-4.22,1.15-8.17,3.05-12.39,4.22-.77.21-1.56.34-2.36.37-.07,0-.14-.01-.21-.05-4.47-2.59-9.12-4.81-13.95-6.65-.06-.02-.1-.08-.1-.14v-10.17c0-.05.04-.1.1-.1h0c5.68.08,11.22.95,16.64,2.61.08.03.18-.02.2-.11,0-.03,0-.06,0-.08-2.92-14.13.32-27.77,10.45-38.24,1.65-1.71,3.38-3.33,5.17-4.85.04-.03.04-.09,0-.13-.02-.02-.04-.03-.06-.03-8.86-.48-19.3,2.45-25.19,9.43-.01.02-.01.04,0,.05,0,0,.02.01.03.01,2.33-.18,4.66-.23,7-.16.04,0,.06.03.06.07,0,.01,0,.03-.01.04-4.6,7.05-6.61,15.9-6.46,24.24,0,.05-.04.09-.09.09,0,0-.01,0-.02,0-2.57-.43-5.15-.59-7.75-.47-.05,0-.09-.03-.09-.08,0,0,0,0,0,0v-34.24c0-.05.04-.1.1-.1.01,0,.02,0,.03,0l6.44,2.09s.07,0,.09-.04c0-.02,0-.04,0-.06l-10.52-18.35c-.1-.18-.2-.17-.3,0l-10.08,18.27c-.06.1-.03.14.08.1l6.19-2.03c.08-.03.12,0,.12.09v34.22c0,.06-.05.11-.11.11,0,0,0,0,0,0-2.6-.12-5.17.04-7.73.47-.08.01-.12-.02-.11-.1.12-8.4-1.86-17.04-6.42-24.15-.04-.06-.02-.13.04-.17.02-.01.04-.02.06-.02,2.28-.06,4.55,0,6.83.15.08,0,.09-.02.04-.08-5.78-6.99-16.39-9.88-25.11-9.4-.04,0-.08.04-.07.09,0,.02.01.04.03.05,1.38,1.24,2.76,2.52,4.12,3.84,10.79,10.48,14.56,24.59,11.48,39.22-.02.11.05.21.15.23.03,0,.06,0,.1,0,5.41-1.66,10.95-2.53,16.62-2.6.06,0,.09.03.09.09v7.57c0,.06-.05.12-.12.12-.01,0-.02,0-.03,0-12.16-3.35-25.3-4.43-37.74-1.95-5.54,1.11-14.19,4.06-16.5,9.94-.31.78-.5,1.81-.71,2.72-.02.07-.06.11-.13.12-1.2.13-2.39.28-3.58.43-2.9.38-7.6.85-9.36,3.42-1.2,1.75.68,3.22,2.09,3.76,5.57,2.16,11.83,2.57,17.82,3.32,1.95.24,3.3,1.01,4.89,2.08,4.34,2.91,8.32,5.57,13.27,8.22.07.04.08.09.03.15-.53.67-11.95,14.68-4.94,12.84,1.55-.41,3.11-.81,4.68-1.19,3.53-.88,7.12-1.21,10.77-.98.07,0,.11.04.13.11l1.29,6.84" vector-effect="non-scaling-stroke"/>
      <path class="cls-3" d="m167.47,24.46c-.06,5.57-.07,10.26-.02,14.07.04,3.33,1.76,4.81,5.08,4.33,2.67-.38,3.14-2.48,3.14-4.8,0-4.25,0-8.49,0-12.74,0-3.45-.98-5.42-4.8-5.11-2.54.2-3.38,1.94-3.4,4.25" vector-effect="non-scaling-stroke"/>
      <path class="cls-3" d="m42.68,35.42s.01.07.05.08c0,0,.01,0,.02,0h6.07s.07-.02.07-.06c0,0,0,0,0-.01l-3.01-13.18s-.04-.06-.08-.05c-.03,0-.05.03-.05.05l-3.06,13.17" vector-effect="non-scaling-stroke"/>
      <path class="cls-3" d="m67.32,20.35l-.03,8.96s.04.09.09.09c0,0,0,0,0,0h3.6c2.23.02,4.05-1.78,4.06-4.02h0s0-1.05,0-1.05c0-2.23-1.8-4.05-4.03-4.06h-3.6s-.09.03-.09.08" vector-effect="non-scaling-stroke"/>
      <path class="cls-3" d="m92.93,35.42s.01.07.05.08c0,0,.01,0,.02,0h6.08s.07-.02.07-.06c0,0,0,0,0-.01l-3.01-13.18s-.04-.06-.08-.06c-.03,0-.05.03-.06.06l-3.06,13.16" vector-effect="non-scaling-stroke"/>
      <path class="cls-3" d="m105.32,90.63c2.08-.32,4.27-.29,6.34-.12.04,0,.08-.03.08-.07,0-.03,0-.05-.03-.07-5.61-4.36-12.45-6.92-19.57-7.03-.03,0-.05.02-.05.05,0,.02,0,.03.02.04,11.95,10.37,16.95,24.91,14.22,40.47-.02.14.03.19.17.16,5.35-1.5,10.81-2.22,16.38-2.16.08,0,.11.04.11.12v9.05c0,.07.03.11.1.13l5.36,1.74c.06.02.1,0,.1-.07v-10.86c0-.08.04-.12.12-.12,5.57-.04,11.03.68,16.38,2.18.08.02.11,0,.1-.09-2.55-16.21,2.04-29.63,14.16-40.53.08-.07.06-.1-.04-.1-.99-.02-1.98.03-2.97.15-6.11.76-11.6,3.03-16.45,6.8-.19.14-.16.21.07.19,2.09-.18,4.18-.15,6.26.1.09.01.1.05.05.12-5.67,7.43-7.86,17.5-7.38,26.69,0,.04-.03.07-.06.07,0,0-.01,0-.02,0-3.38-.79-6.47-.85-10.11-.74-.07,0-.11-.03-.11-.1v-37c0-.09.04-.12.12-.09l4.99,1.62c.16.05.2,0,.12-.14l-8.03-14.01s-.08-.06-.12-.03c-.01,0-.03.02-.03.03l-7.73,14s0,.09.03.11c.02.01.04.01.07,0l4.92-1.62c.07-.02.11,0,.11.08v37.05c0,.07-.04.11-.11.1-3.6-.13-6.69-.06-10.14.74-.07.02-.11-.01-.11-.09.45-9.22-1.74-19.17-7.37-26.64-.05-.07-.03-.1.05-.12" vector-effect="non-scaling-stroke"/>
      <path class="cls-3" d="m145.53,143.05c.48-.08,1.19-.04,1.52-.07,3.3-.3,6.23-1.64,9.43-3.05,5.82-2.57,11.68-2.88,17.57-.94,2.36.78,5.03,1.95,7.42,3.17.02,0,.04,0,.05-.02,0-.01,0-.03-.01-.04-5.5-4.03-11.55-6.64-18.51-6.02-4.34.38-8.65,2.24-12.68,3.76-2.11.8-4.47,1.59-6.75,1.61-.07,0-.13-.02-.19-.05-16.34-9.59-36.31-14.4-55.27-11.95-6.32.82-13.67,2.73-18.1,7.67-1.32,1.47-1.95,3.2-1.89,5.19,0,.07.04.1.1.09,1.16-.14,2.32-.27,3.48-.41,1.94-.23,2.9-2.11,4.2-3.23,3.27-2.85,8.05-4.41,12.11-5.29,14.14-3.09,29.5-.24,42.79,5.23,5.66,2.33,10.71,5.22,15.02,9.58,9.06,9.17,14.51,21.82,16.13,34.55.89,6.97.04,13.99-1.69,20.75,0,.04.01.07.05.08.03,0,.06,0,.07-.04,4.01-8.79,4.5-18.79,2.35-28.19-2.72-11.84-8.34-23.92-17.25-32.22-.09-.08-.08-.14.05-.16" vector-effect="non-scaling-stroke"/>
      <path class="cls-3" d="m98.52,164.93c1.07,1.21,2.15,2.41,3.23,3.61.47.52,1.13,1.24,1.28,2.02,1.69,9.02,3.14,18.43,9.06,25.61.65.79,4.6,5.24,5.26,2.36.06-.26.09-.44.09-.53.02-2.09,0-4.18-.08-6.27-.08-2.35-.1-4.21,2.99-3.64,1.67.31,3.19.95,4.57,1.93,5.58,3.96,8.41,10.13,8.63,16.9.14,4.49-1.33,8.33-4.41,11.51-.05.06-.08.12-.08.2v6.67c0,.07.03.1.1.07,4.83-2.16,9.13-5.1,12.89-8.82,7.03-6.96,11.15-17.25,4.92-26.26-2.84-4.11-7.28-7.42-11.67-9.99-5.73-3.36-11.73-6.07-17.67-9.02-3.02-1.5-5.8-3.36-8.33-5.57-2.08-1.82-4.08-3.66-5.68-5.93-1.35-1.89-2.48-4.51-3.63-6.78-1.6-3.17-4.27-4.9-7.62-5.86-.07-.02-.11,0-.13.07-1.26,4.94-9.16,2.44-12.23,1.47-5.64-1.79-11.94-4.02-17.93-3.69-1.28.07-5.42.48-5.96,1.87-1.03,2.64,13.68,4.03,15.84,4.28,1.73.2,3.48.34,4.96,1.16,4.07,2.27,7.76,5.2,11.84,7.5,2.93,1.65,5.93,3.18,9,4.58.3.14.56.33.78.58" vector-effect="non-scaling-stroke"/>
      <path class="cls-3" d="m123.53,247.62c-.43,0-.84,0-1.19.18-1.21.62-.52,1.88.57,2.01.06,0,.09.04.09.1v2.65c0,.07.03.1.1.1h5.32c.09,0,.14-.05.13-.14l-.02-2.6c0-.06.03-.1.09-.11,2.09-.26,1.32-2.42-.63-2.19-.08,0-.12-.03-.12-.1v-52.95c0-.08-.02-.15-.07-.21-1.16-1.4-2.51-2.6-4.02-3.6-.1-.06-.15-.04-.15.08v56.66c0,.07-.04.1-.11.1" vector-effect="non-scaling-stroke"/>
      <path class="cls-3" d="m100.17,227.5s.04.07.02.1c0,.01-.02.02-.04.03-11.2,2.54-9.24,15.07-12.91,22.1-.83,1.59-2.26,3.11-3.5,4.54-.2.23-.17.42.1.54.06.03.13.04.2.04,9.22-.19,15.4-9.03,22.1-14.05,4.74-3.55,10.42-5.53,16.22-6.76.07-.01.11-.06.11-.14l-.04-1.37c0-.08-.04-.11-.12-.1-6.57,1.15-13.04,3.45-18.16,7.8-1.56,1.32-3.9,3.38-7.02,6.17-3.04,2.72-6.27,5.14-10.18,6.48-.09.03-.19-.02-.22-.11,0,0,0,0,0-.01-.03-.13.03-.26.18-.38,2.21-1.74,4.24-3.85,5.65-6.29,1.53-2.66,2.12-5.82,3.49-8.42,2.16-4.09,6.21-7.35,10.9-7.97.87-.12,2.45-.27,4.75-.46,3.34-.27,6.9-.79,10.66-1.57.07-.01.1-.05.1-.12l.02-4.6c0-.07-.03-.1-.1-.08-4.93,1.5-8.96.52-12.28-3.43-4.73-5.61-7.48-12.46-12.58-17.83-.53-.56-3.41-3.21-4.07-2.48-.07.07-.1.17-.09.27.24,3.56-.09,7.1-.34,10.71-.5,7.14,1.22,13.11,7.18,17.38" vector-effect="non-scaling-stroke"/>
      <path class="cls-3" d="m147.24,223.12c.28-.26.78-.65,1.13-1.01.21-.21.19-.23-.05-.05-5.85,4.4-11.93,7.53-19.16,8.93-.07.01-.1.06-.1.13v1.21c0,.08.04.11.11.09,6.87-1.48,12.9-4.58,18.07-9.29" vector-effect="non-scaling-stroke"/>
      <path class="cls-3" d="m120.86,254.07c.14,1.53-.06,3.11.18,4.59.6,3.83,2.13,7.26,4.6,10.29.04.06.09.06.14,0,2.67-3.05,4.29-6.56,4.86-10.53.21-1.49.09-3.27.12-4.89,0-.07-.03-.11-.11-.11h-9.63c-.07,0-.11.04-.13.11-.03.18-.04.36-.02.53" vector-effect="non-scaling-stroke"/>
      <path class="cls-3" d="m99.29,282.24l.04,16.31s.02.07.07.07h3.57c.07,0,.1-.03.1-.1v-21.7c0-.07-.04-.1-.1-.1h-2.18c-.07,0-.12.03-.15.09-1.04,1.65-2.55,2.61-4.51,2.86-.09.01-.13.06-.13.15v2.15c0,.1.05.15.15.15h3.03c.08,0,.12.04.12.12" vector-effect="non-scaling-stroke"/>
      <path class="cls-3" d="m118.18,289s.03,0,.03,0c0,0,0,0,0,.01.1,1.19.06,2.38-.11,3.57-.23,1.59-.78,2.69-2.45,2.88-1.93.22-3.08-.58-3.47-2.42-.01-.06-.05-.09-.11-.09h-3.66c-.08,0-.11.04-.11.11.3,4.37,3.8,6.19,7.81,5.76,3.97-.43,6.02-3.32,6.04-7.14.01-2.49.01-4.97,0-7.46-.01-3.81-1.76-6.88-5.8-7.42-6.03-.81-9.3,3.32-8.31,9.03.9,5.2,6.44,6.04,10.12,3.16" vector-effect="non-scaling-stroke"/>
      <path class="cls-3" d="m130.65,295.1c2.72-2.75,6.16-5.29,7.98-8.77,1.21-2.3,1.21-5.39-.53-7.44-2.09-2.45-6.5-2.72-9.21-1.37-2.28,1.14-3.37,3.18-3.26,6.11,0,.07.04.11.12.11h3.72c.07,0,.11-.04.11-.11-.03-2.38,1.24-3.91,3.77-3.46,2.23.4,2.67,3,1.83,4.69-.4.79-1.06,1.68-1.98,2.66-2.44,2.59-4.97,5.1-7.58,7.52-.05.04-.07.1-.07.17v3.31c0,.07.03.1.1.1h13.44s.06-.02.06-.06v-3.25c.01-.07-.02-.11-.09-.11h-8.35c-.1,0-.11-.04-.04-.11" vector-effect="non-scaling-stroke"/>
      <path class="cls-3" d="m151.09,280.38s.08.03.08.08c0,0,0,.02,0,.02l-5.91,18.03c-.02.07,0,.1.07.1h4.11c.06,0,.09-.03.11-.08,1.89-6.31,3.76-12.62,5.62-18.94.25-.85.2-1.62.18-2.48,0-.07-.03-.1-.1-.1h-13.45c-.07,0-.1.03-.1.1v3.16c0,.07.04.1.11.1h9.29" vector-effect="non-scaling-stroke"/>
      <path class="cls-3" d="m118.26,285.67c-.01-1.97.13-4.87-2.2-5.41-2.86-.67-4.3,1.27-4.23,3.87.05,1.85.89,3.41,2.91,3.46,1.36.03,2.54-.75,3.45-1.72.05-.05.07-.12.07-.19" vector-effect="non-scaling-stroke"/>
    </g>
    <path class="cls-4" d="m0,.24v-.05s.05-.05.06-.1c0-.06.04-.09.1-.09h250.98c.07,0,.1.03.1.1,0,79.15,0,158.29,0,237.43,0,2.47-.14,5.58-.43,9.31-.59,7.76-2.19,15.78-5.57,22.85-8.6,18.01-25.9,26.86-43.98,32.71-8.12,2.63-16.24,5.24-24.37,7.84-6.22,1.99-12.09,4.21-17.6,6.68-14.01,6.26-25.56,16.01-33.28,29.33-.03.05-.09.07-.14.04-.01,0-.03-.02-.03-.03-7.33-10.73-16.92-19.58-28.25-25.96-15.11-8.51-32.26-13-48.45-18.46-7.66-2.58-15.37-5.68-22.41-9.89-11.32-6.77-20.15-17.17-23.72-30.01C.76,253.88.05,245.38.05,237.06.05,217.03.26.38,0,.24Zm10.29,5.06c-1.62,0-3.3-.13-4.92-.04-.04,0-.08.04-.08.08,0,77.04.01,154.08.04,231.11,0,7.26.47,14.46,2.07,21.56,3.92,17.42,16.88,28.21,32.7,34.8,14.71,6.13,29.35,9.55,45.13,15.76,7.42,2.92,14.49,6.51,21.21,10.76,6.21,3.93,11.7,8.72,16.4,14.39.91,1.1,1.82,2.21,2.71,3.33.05.06.1.06.15,0,7-9.47,15.72-16.93,26.17-22.37,6.5-3.39,13.53-6.11,20.35-8.37,6.83-2.27,14.52-4.76,23.08-7.48,10.85-3.45,22.05-7.48,31.22-14.43,9.47-7.17,15.38-16.64,17.72-28.41,1.31-6.57,1.75-13.51,1.75-20.03,0-76.85,0-153.7,0-230.55,0-.07-.04-.11-.11-.11-.88-.03-1.76-.04-2.64-.04-77.65.03-155.3.05-232.95.05Z"/>
    <path class="cls-6" d="m5.37,5.26c1.62-.09,3.3.04,4.92.04,77.65,0,155.3-.02,232.95-.05.88,0,1.76.01,2.64.04.07,0,.11.04.11.11,0,76.85,0,153.7,0,230.55,0,6.51-.44,13.46-1.75,20.03-2.35,11.77-8.25,21.24-17.72,28.41-9.18,6.95-20.37,10.98-31.22,14.43-8.56,2.72-16.26,5.21-23.08,7.48-6.82,2.27-13.86,4.99-20.35,8.37-10.45,5.45-19.17,12.9-26.17,22.37-.05.07-.1.07-.15,0-.89-1.11-1.8-2.22-2.71-3.33-4.7-5.67-10.18-10.46-16.4-14.39-6.73-4.25-13.8-7.84-21.21-10.76-15.78-6.21-30.42-9.63-45.13-15.76-15.81-6.6-28.78-17.39-32.7-34.8-1.6-7.1-2.06-14.31-2.07-21.56-.03-77.03-.04-154.07-.04-231.11,0-.04.03-.08.08-.08Zm155.75,22.26c-.05,3.3-.06,6.6-.03,9.89,0,1.22.15,2.51.44,3.85,1.37,6.58,7.65,8.13,13.38,6.89,4.53-.98,6.89-4.82,7.03-9.29.09-2.85.1-6.62.05-11.32-.03-2.8,0-4.54-.65-6.66-1.79-5.87-7.84-7.06-13.16-5.92-4.35.94-6.44,4.24-6.93,8.47-.05.43-.09,1.78-.12,4.07Zm65.52,15.36c-2.03-.18-3.09-1.9-3.13-3.8-.08-4.29-.08-9.09-.01-14.4.02-1.77.41-3.66,2.35-4.24,2.13-.63,4.98-.3,5.61,2.24.22.91.31,1.89.25,2.94,0,.08.03.12.11.12h6.11c.05,0,.08-.03.08-.08.14-7.63-4.01-11.39-11.52-11.02-6,.3-9.25,4.34-9.29,10.24-.01,2.63-.01,6.77,0,12.44.01,5.08,1.57,9.66,7.11,10.86,5.62,1.21,11.56-.26,13.21-6.47.47-1.76.48-3.57.51-5.4,0-.14-.07-.21-.21-.21h-5.97c-.09,0-.14.05-.14.14-.04,3.93.16,7.14-5.09,6.67ZM20.27,20.63s.06.03.06.06v27.3s.03.06.06.06l6.19-.02s.06-.03.06-.06v-27.28s.03-.06.06-.06h7.26s.06-.03.06-.06v-5.46s-.03-.06-.06-.06h0l-20.92.03s-.06.03-.06.06h0v5.42s.03.06.06.06h7.21Zm29.92,20.48s.07.03.08.07l1.57,6.81s.04.07.08.07h5.85s.08-.05.08-.1c0,0,0-.01,0-.02l-7.91-32.85s-.04-.07-.08-.07l-7.96.05s-.07.03-.08.06l-8.13,32.81s.02.09.06.1c0,0,.01,0,.02,0h5.9s.07-.02.08-.06l1.75-6.81s.04-.06.08-.06h8.62Zm26.3-7.83c4.23-1.72,5.35-6.03,4.76-10.16-.78-5.48-4.85-7.96-10.11-8.05-2.61-.05-5.94-.06-9.99-.03-.07,0-.11.04-.11.11.03,10.93.05,21.86,0,32.78,0,.08.04.11.11.11h6.05c.07,0,.11-.04.11-.11v-13.2c0-.07.04-.11.11-.11l2.82.03c.07,0,.13.04.15.1l5.39,13.18c.03.08.09.11.17.11h6.48c.1,0,.13-.05.09-.14l-6.1-14.47c-.03-.07,0-.12.06-.15Zm23.97,7.83s.06.02.06.05l1.57,6.84s.03.05.06.05h5.89s.06-.04.06-.07c0,0,0,0,0-.01l-7.92-32.88s-.03-.05-.06-.05l-7.99.03s-.05.02-.06.05l-8.14,32.86s.01.07.05.08c0,0,0,0,.01,0h5.94s.05-.02.06-.04l1.76-6.84s.03-.05.06-.05h8.65Zm16.94-14.27s.03-.06.06-.06c.02,0,.05.01.06.04l9.6,21.19s.03.04.06.04h5.96s.06-.03.06-.06l-.02-32.89s-.03-.06-.06-.06h-5.62s-.06.03-.06.06v19.5s-.03.06-.06.06c-.02,0-.05-.01-.06-.04l-8.77-19.55s-.03-.04-.06-.04h-6.78s-.06.03-.06.06v32.89s.03.06.06.06h5.63s.06-.02.06-.05v-21.14Zm19.72-6.28s.03.06.06.06h7.21s.06.03.06.06v27.28s.03.06.06.06h0l6.19.03s.06-.03.06-.06v-27.31s.03-.06.06-.06h7.21s.06-.03.06-.07h0v-5.44s-.03-.06-.06-.06h-20.87s-.06.04-.06.07h0s0,5.44,0,5.44Zm67.02,7.65s-.07-.03-.07-.07h0v-7.45s.03-.07.07-.07h10s.07-.03.07-.07v-5.44s-.03-.07-.07-.07h-16.32s-.07.02-.07.06h0v32.86s.03.07.07.07h6.18s.07-.02.07-.06h0v-14.14s.03-.07.07-.07h0l7.81.03s.07-.03.07-.07v-5.44s-.03-.07-.07-.07h-7.81Zm-100.44,152.44l.79,2.91c.02.07,0,.1-.08.1H10.46c-.06,0-.11.05-.11.11,0,16.94,0,33.88,0,50.82,0,8.16.55,16.33,2.69,24.24,3.01,11.13,11.28,19.97,21.21,25.39,8.3,4.53,17.37,7.62,26.6,10.59,22.86,7.36,46.08,13.8,62.65,31.76.68.73,1.37,1.48,2.07,2.24.05.05.1.05.15,0,9.03-10.44,20.19-17.9,32.93-23.09,3.7-1.51,6.73-2.66,9.08-3.46,7.28-2.48,16.52-5.49,27.74-9.02,9.19-2.9,18.52-6.54,26.39-12.03,9.01-6.29,14.68-14.83,17.03-25.61,1.65-7.55,1.79-15.02,1.8-22.71.03-16.39.05-32.75.06-49.09,0-.07-.05-.12-.12-.12h0l-73.52-.02c-.06,0-.09-.03-.09-.09l-.05-2.91h73.67c.06,0,.1-.04.1-.1V57.85c0-.08-.04-.12-.12-.12H10.45c-.07,0-.11.04-.11.11v122.74c0,.05.04.1.1.1h93.25Z"/>
    <path class="cls-4" d="m161.24,23.44c.49-4.23,2.58-7.53,6.93-8.47,5.32-1.15,11.37.05,13.16,5.92.65,2.12.62,3.86.65,6.66.05,4.7.04,8.47-.05,11.32-.13,4.47-2.5,8.3-7.03,9.29-5.72,1.24-12.01-.31-13.38-6.89-.28-1.35-.43-2.63-.44-3.85-.03-3.3-.02-6.6.03-9.89.03-2.29.07-3.65.12-4.07Zm6.23,1.01c-.06,5.57-.07,10.26-.02,14.07.04,3.33,1.76,4.81,5.08,4.33,2.67-.38,3.14-2.48,3.14-4.8,0-4.25,0-8.49,0-12.74,0-3.45-.98-5.42-4.8-5.11-2.54.2-3.38,1.94-3.4,4.25Z"/>
    <path class="cls-4" d="m223.51,39.08c.03,1.9,1.1,3.62,3.13,3.8,5.25.47,5.05-2.73,5.09-6.67,0-.09.05-.14.14-.14h5.97c.14,0,.21.07.21.21-.03,1.84-.04,3.64-.51,5.4-1.65,6.21-7.59,7.68-13.21,6.47-5.55-1.19-7.1-5.77-7.11-10.86-.01-5.67-.02-9.82,0-12.44.03-5.9,3.29-9.94,9.29-10.24,7.51-.37,11.66,3.39,11.52,11.02,0,.05-.03.08-.08.08h-6.11c-.08,0-.11-.04-.11-.12.06-1.05-.03-2.03-.25-2.94-.63-2.55-3.48-2.88-5.61-2.24-1.94.58-2.33,2.47-2.35,4.24-.07,5.32-.07,10.12.01,14.4Z"/>
    <path class="cls-4" d="m20.27,20.63h-7.21s-.06-.03-.06-.06v-5.42s.03-.06.06-.06h0l20.92-.03s.06.03.06.06h0v5.46s-.03.06-.06.06h-7.26s-.06.03-.06.06v27.28s-.03.06-.06.06l-6.19.02s-.06-.03-.06-.06v-27.3s-.03-.06-.06-.06Z"/>
    <path class="cls-4" d="m50.18,41.12h-8.62s-.07.03-.08.06l-1.75,6.81s-.04.06-.08.06h-5.9s-.08-.05-.08-.09c0,0,0-.01,0-.02l8.13-32.81s.04-.06.08-.06l7.96-.05s.07.03.08.07l7.91,32.85s-.02.09-.06.1c0,0-.01,0-.02,0h-5.85s-.07-.01-.08-.05l-1.57-6.81s-.04-.07-.08-.07Zm-7.5-5.69s.01.07.05.08c0,0,.01,0,.02,0h6.07s.07-.02.07-.06c0,0,0,0,0-.01l-3.01-13.18s-.04-.06-.08-.05c-.03,0-.05.03-.05.05l-3.06,13.17Z"/>
    <path class="cls-4" d="m76.42,33.44l6.1,14.47c.04.09,0,.13-.09.13h-6.48c-.08,0-.14-.04-.17-.11l-5.39-13.18c-.03-.07-.08-.1-.15-.1l-2.82-.03c-.07,0-.11.04-.11.11v13.2c0,.07-.04.11-.11.11h-6.05c-.08,0-.11-.04-.11-.11.05-10.92.02-21.85,0-32.78,0-.07.03-.11.11-.11,4.06-.02,7.39-.01,9.99.03,5.27.09,9.33,2.57,10.11,8.05.59,4.13-.53,8.44-4.76,10.16-.07.03-.09.08-.06.15Zm-9.1-13.09l-.03,8.96s.04.09.09.09c0,0,0,0,0,0h3.6c2.23.02,4.05-1.78,4.06-4.02h0s0-1.05,0-1.05c0-2.23-1.8-4.05-4.03-4.06h-3.6s-.09.03-.09.08Z"/>
    <path class="cls-4" d="m100.45,41.12h-8.65s-.05.02-.06.05l-1.76,6.84s-.03.05-.06.05h-5.94s-.06-.03-.06-.07c0,0,0,0,0-.01l8.14-32.86s.03-.05.06-.05l7.99-.03s.05.02.06.05l7.92,32.88s-.01.07-.05.08c0,0,0,0-.01,0h-5.89s-.06-.01-.06-.04l-1.57-6.84s-.03-.05-.06-.05Zm-7.52-5.7s.01.07.05.08c0,0,.01,0,.02,0h6.08s.07-.02.07-.06c0,0,0,0,0-.01l-3.01-13.18s-.04-.06-.08-.06c-.03,0-.05.03-.06.06l-3.06,13.16Z"/>
    <path class="cls-4" d="m117.39,26.85v21.14s-.03.06-.06.06h-5.63s-.06-.04-.06-.08V15.09s.03-.06.06-.06h6.78s.05.01.06.04l8.77,19.55s.05.04.08.03c.02-.01.04-.03.04-.06V15.09s.03-.06.06-.06h5.62s.06.03.06.06l.02,32.89s-.03.06-.06.06h-5.96s-.05-.01-.06-.04l-9.6-21.19s-.05-.04-.08-.03c-.02.01-.04.03-.04.06Z"/>
    <path class="cls-4" d="m137.11,20.57v-5.44s.02-.06.06-.06h20.87s.06.02.06.05v5.44s-.03.06-.06.06h-7.21s-.06.03-.06.07v27.31s-.03.06-.06.06l-6.19-.03s-.06-.03-.06-.06h0v-27.28s-.03-.06-.06-.06h-7.21s-.06-.03-.06-.06Z"/>
    <path class="cls-4" d="m204.13,28.23h7.81s.07.03.07.07v5.44s-.03.07-.07.07l-7.81-.03s-.07.03-.07.07h0v14.14s-.03.07-.07.07h-6.18s-.07-.04-.07-.08h0V15.12s.03-.07.07-.07h16.32s.07.04.07.08v5.44s-.03.07-.07.07h-10s-.07.03-.07.07h0v7.45s.03.07.07.07h0Z"/>
    <path class="cls-6" d="m167.47,24.46c.02-2.3.86-4.05,3.4-4.25,3.82-.3,4.81,1.66,4.8,5.11,0,4.25,0,8.49,0,12.74,0,2.33-.47,4.42-3.14,4.8-3.33.47-5.04-1-5.08-4.33-.05-3.82-.04-8.51.02-14.07Z"/>
    <path class="cls-6" d="m67.32,20.35s.04-.09.09-.09h3.6c2.23.02,4.04,1.84,4.03,4.07h0s0,1.05,0,1.05c0,2.23-1.83,4.04-4.06,4.03h-3.6s-.09-.05-.09-.1c0,0,0,0,0,0l.03-8.96Z"/>
    <path class="cls-6" d="m42.68,35.42l3.06-13.17s.04-.06.08-.05c.03,0,.05.03.05.05l3.01,13.18s-.02.07-.05.08c0,0,0,0-.01,0h-6.07s-.07-.04-.07-.08c0,0,0-.01,0-.02Z"/>
    <path class="cls-6" d="m92.93,35.42l3.06-13.16s.04-.06.08-.06c.03,0,.05.03.06.06l3.01,13.18s-.02.07-.05.08c0,0,0,0-.01,0h-6.08s-.07-.04-.07-.08c0,0,0-.01,0-.02Z"/>
    <path class="cls-5" d="m166.97,180.67c-.81-6.12-2.75-12.26-2.99-18.38-.31-7.79,4-15.07,11.7-17.38,3.35-1.01,6.45-1.09,9.84-1.07.12,0,.14-.04.04-.12-7.71-6.58-16.56-10.95-26.91-8.13-4.22,1.15-8.17,3.05-12.39,4.22-.77.21-1.56.34-2.36.37-.07,0-.14-.01-.21-.05-4.47-2.59-9.12-4.81-13.95-6.65-.06-.02-.1-.08-.1-.14v-10.17c0-.05.04-.1.1-.1h0c5.68.08,11.22.95,16.64,2.61.08.03.18-.02.2-.11,0-.03,0-.06,0-.08-2.92-14.13.32-27.77,10.45-38.24,1.65-1.71,3.38-3.33,5.17-4.85.04-.03.04-.09,0-.13-.02-.02-.04-.03-.06-.03-8.86-.48-19.3,2.45-25.19,9.43-.01.02-.01.04,0,.05,0,0,.02.01.03.01,2.33-.18,4.66-.23,7-.16.04,0,.06.03.06.07,0,.01,0,.03-.01.04-4.6,7.05-6.61,15.9-6.46,24.24,0,.05-.04.09-.09.09,0,0-.01,0-.02,0-2.57-.43-5.15-.59-7.75-.47-.05,0-.09-.03-.09-.08,0,0,0,0,0,0v-34.24c0-.05.04-.1.1-.1.01,0,.02,0,.03,0l6.44,2.09s.07,0,.09-.04c0-.02,0-.04,0-.06l-10.52-18.35c-.1-.18-.2-.17-.3,0l-10.08,18.27c-.06.1-.03.14.08.1l6.19-2.03c.08-.03.12,0,.12.09v34.22c0,.06-.05.11-.11.11,0,0,0,0,0,0-2.6-.12-5.17.04-7.73.47-.08.01-.12-.02-.11-.1.12-8.4-1.86-17.04-6.42-24.15-.04-.06-.02-.13.04-.17.02-.01.04-.02.06-.02,2.28-.06,4.55,0,6.83.15.08,0,.09-.02.04-.08-5.78-6.99-16.39-9.88-25.11-9.4-.04,0-.08.04-.07.09,0,.02.01.04.03.05,1.38,1.24,2.76,2.52,4.12,3.84,10.79,10.48,14.56,24.59,11.48,39.22-.02.11.05.21.15.23.03,0,.06,0,.1,0,5.41-1.66,10.95-2.53,16.62-2.6.06,0,.09.03.09.09v7.57c0,.06-.05.12-.12.12-.01,0-.02,0-.03,0-12.16-3.35-25.3-4.43-37.74-1.95-5.54,1.11-14.19,4.06-16.5,9.94-.31.78-.5,1.81-.71,2.72-.02.07-.06.11-.13.12-1.2.13-2.39.28-3.58.43-2.9.38-7.6.85-9.36,3.42-1.2,1.75.68,3.22,2.09,3.76,5.57,2.16,11.83,2.57,17.82,3.32,1.95.24,3.3,1.01,4.89,2.08,4.34,2.91,8.32,5.57,13.27,8.22.07.04.08.09.03.15-.53.67-11.95,14.68-4.94,12.84,1.55-.41,3.11-.81,4.68-1.19,3.53-.88,7.12-1.21,10.77-.98.07,0,.11.04.13.11l1.29,6.84H10.44c-.05,0-.1-.04-.1-.09V57.83c0-.07.04-.11.11-.11h230.17c.08,0,.12.04.12.12v122.72c0,.06-.04.1-.1.1h-73.67Z"/>
    <path class="cls-4" d="m166.97,180.67l.05,2.91c0,.06.03.09.09.09l73.52.02c.07,0,.12.05.12.12h0c0,16.34-.03,32.7-.06,49.09-.01,7.69-.15,15.16-1.8,22.71-2.35,10.78-8.03,19.32-17.03,25.61-7.87,5.5-17.2,9.14-26.39,12.03-11.22,3.54-20.46,6.54-27.74,9.02-2.35.8-5.37,1.96-9.08,3.46-12.73,5.19-23.9,12.65-32.93,23.09-.05.06-.1.06-.15,0-.7-.76-1.39-1.51-2.07-2.24-16.58-17.96-39.79-24.39-62.65-31.76-9.23-2.97-18.3-6.07-26.6-10.59-9.93-5.42-18.2-14.26-21.21-25.39-2.14-7.91-2.69-16.08-2.69-24.24-.01-16.94-.01-33.88,0-50.82,0-.06.05-.11.11-.11h93.94c.07,0,.1-.03.08-.1l-.79-2.91-1.29-6.84c-.01-.07-.06-.11-.13-.11-3.65-.22-7.24.11-10.77.98-1.56.39-3.12.79-4.68,1.19-7.01,1.84,4.41-12.17,4.94-12.84.05-.06.04-.11-.03-.15-4.95-2.65-8.93-5.31-13.27-8.22-1.59-1.07-2.94-1.84-4.89-2.08-6-.75-12.25-1.16-17.82-3.32-1.41-.54-3.29-2.01-2.09-3.76,1.76-2.57,6.45-3.04,9.36-3.42,1.19-.16,2.38-.3,3.58-.43.07,0,.11-.05.13-.12.21-.91.4-1.94.71-2.72,2.31-5.88,10.96-8.83,16.5-9.94,12.44-2.48,25.58-1.4,37.74,1.95.06.02.13-.02.14-.08,0,0,0-.02,0-.03v-7.57c0-.06-.03-.09-.09-.09-5.67.07-11.21.94-16.62,2.6-.1.03-.21-.03-.24-.13,0-.03-.01-.06,0-.1,3.08-14.63-.69-28.75-11.48-39.22-1.36-1.32-2.74-2.6-4.12-3.84-.03-.03-.04-.08,0-.11.01-.02.03-.02.05-.03,8.72-.48,19.33,2.41,25.11,9.4.05.06.04.09-.04.08-2.27-.16-4.55-.21-6.83-.15-.07,0-.12.06-.12.13,0,.02,0,.04.02.06,4.56,7.11,6.53,15.75,6.42,24.15,0,.08.04.11.11.1,2.56-.43,5.13-.59,7.73-.47.06,0,.11-.04.12-.11,0,0,0,0,0,0v-34.22c0-.09-.04-.12-.12-.09l-6.19,2.03c-.11.04-.14,0-.08-.1l10.08-18.27c.1-.18.2-.18.3,0l10.52,18.35s0,.07-.02.09c-.02,0-.04.01-.06,0l-6.44-2.09c-.05-.02-.11.01-.12.06,0,.01,0,.02,0,.03v34.24s.04.08.08.08c0,0,0,0,0,0,2.6-.12,5.19.04,7.75.47.05,0,.09-.03.1-.07,0,0,0-.01,0-.02-.15-8.34,1.86-17.19,6.46-24.24.02-.03.01-.07-.02-.09-.01,0-.02-.01-.04-.01-2.34-.08-4.67-.03-7,.16-.02,0-.04-.01-.04-.04,0-.01,0-.02,0-.03,5.89-6.98,16.33-9.91,25.19-9.43.05,0,.09.05.09.1,0,.02-.01.05-.03.06-1.79,1.53-3.52,3.14-5.17,4.85-10.13,10.47-13.37,24.11-10.45,38.24.02.09-.04.17-.12.19-.03,0-.06,0-.08,0-5.42-1.66-10.97-2.54-16.64-2.61-.05,0-.1.04-.1.1h0v10.17c0,.06.04.12.1.14,4.83,1.85,9.48,4.06,13.95,6.65.06.04.13.05.21.05.8-.04,1.58-.16,2.36-.37,4.21-1.16,8.17-3.07,12.39-4.22,10.35-2.82,19.2,1.55,26.91,8.13.09.08.08.12-.04.12-3.39-.02-6.5.06-9.84,1.07-7.7,2.32-12.02,9.59-11.7,17.38.24,6.12,2.18,12.26,2.99,18.38Zm-61.65-90.04c2.08-.32,4.27-.29,6.34-.12.04,0,.08-.03.08-.07,0-.03,0-.05-.03-.07-5.61-4.36-12.45-6.92-19.57-7.03-.03,0-.05.02-.05.05,0,.02,0,.03.02.04,11.95,10.37,16.95,24.91,14.22,40.47-.02.14.03.19.17.16,5.35-1.5,10.81-2.22,16.38-2.16.08,0,.11.04.11.12v9.05c0,.07.03.11.1.13l5.36,1.74c.06.02.1,0,.1-.07v-10.86c0-.08.04-.12.12-.12,5.57-.04,11.03.68,16.38,2.18.08.02.11,0,.1-.09-2.55-16.21,2.04-29.63,14.16-40.53.08-.07.06-.1-.04-.1-.99-.02-1.98.03-2.97.15-6.11.76-11.6,3.03-16.45,6.8-.19.14-.16.21.07.19,2.09-.18,4.18-.15,6.26.1.09.01.1.05.05.12-5.67,7.43-7.86,17.5-7.38,26.69,0,.04-.03.07-.06.07,0,0-.01,0-.02,0-3.38-.79-6.47-.85-10.11-.74-.07,0-.11-.03-.11-.1v-37c0-.09.04-.12.12-.09l4.99,1.62c.16.05.2,0,.12-.14l-8.03-14.01s-.08-.06-.12-.03c-.01,0-.03.02-.03.03l-7.73,14s0,.09.03.11c.02.01.04.01.07,0l4.92-1.62c.07-.02.11,0,.11.08v37.05c0,.07-.04.11-.11.1-3.6-.13-6.69-.06-10.14.74-.07.02-.11-.01-.11-.09.45-9.22-1.74-19.17-7.37-26.64-.05-.07-.03-.1.05-.12Zm40.21,52.43c.48-.08,1.19-.04,1.52-.07,3.3-.3,6.23-1.64,9.43-3.05,5.82-2.57,11.68-2.88,17.57-.94,2.36.78,5.03,1.95,7.42,3.17.02,0,.04,0,.05-.02,0-.01,0-.03-.01-.04-5.5-4.03-11.55-6.64-18.51-6.02-4.34.38-8.65,2.24-12.68,3.76-2.11.8-4.47,1.59-6.75,1.61-.07,0-.13-.02-.19-.05-16.34-9.59-36.31-14.4-55.27-11.95-6.32.82-13.67,2.73-18.1,7.67-1.32,1.47-1.95,3.2-1.89,5.19,0,.07.04.1.1.09,1.16-.14,2.32-.27,3.48-.41,1.94-.23,2.9-2.11,4.2-3.23,3.27-2.85,8.05-4.41,12.11-5.29,14.14-3.09,29.5-.24,42.79,5.23,5.66,2.33,10.71,5.22,15.02,9.58,9.06,9.17,14.51,21.82,16.13,34.55.89,6.97.04,13.99-1.69,20.75,0,.04.01.07.05.08.03,0,.06,0,.07-.04,4.01-8.79,4.5-18.79,2.35-28.19-2.72-11.84-8.34-23.92-17.25-32.22-.09-.08-.08-.14.05-.16Zm-47,21.88c1.07,1.21,2.15,2.41,3.23,3.61.47.52,1.13,1.24,1.28,2.02,1.69,9.02,3.14,18.43,9.06,25.61.65.79,4.6,5.24,5.26,2.36.06-.26.09-.44.09-.53.02-2.09,0-4.18-.08-6.27-.08-2.35-.1-4.21,2.99-3.64,1.67.31,3.19.95,4.57,1.93,5.58,3.96,8.41,10.13,8.63,16.9.14,4.49-1.33,8.33-4.41,11.51-.05.06-.08.12-.08.2v6.67c0,.07.03.1.1.07,4.83-2.16,9.13-5.1,12.89-8.82,7.03-6.96,11.15-17.25,4.92-26.26-2.84-4.11-7.28-7.42-11.67-9.99-5.73-3.36-11.73-6.07-17.67-9.02-3.02-1.5-5.8-3.36-8.33-5.57-2.08-1.82-4.08-3.66-5.68-5.93-1.35-1.89-2.48-4.51-3.63-6.78-1.6-3.17-4.27-4.9-7.62-5.86-.07-.02-.11,0-.13.07-1.26,4.94-9.16,2.44-12.23,1.47-5.64-1.79-11.94-4.02-17.93-3.69-1.28.07-5.42.48-5.96,1.87-1.03,2.64,13.68,4.03,15.84,4.28,1.73.2,3.48.34,4.96,1.16,4.07,2.27,7.76,5.2,11.84,7.5,2.93,1.65,5.93,3.18,9,4.58.3.14.56.33.78.58Zm25.01,82.69c-.43,0-.84,0-1.19.18-1.21.62-.52,1.88.57,2.01.06,0,.09.04.09.1v2.65c0,.07.03.1.1.1h5.32c.09,0,.14-.05.13-.14l-.02-2.6c0-.06.03-.1.09-.11,2.09-.26,1.32-2.42-.63-2.19-.08,0-.12-.03-.12-.1v-52.95c0-.08-.02-.15-.07-.21-1.16-1.4-2.51-2.6-4.02-3.6-.1-.06-.15-.04-.15.08v56.66c0,.07-.04.1-.11.1Zm-23.36-20.11s.04.07.02.1c0,.01-.02.02-.04.03-11.2,2.54-9.24,15.07-12.91,22.1-.83,1.59-2.26,3.11-3.5,4.54-.2.23-.17.42.1.54.06.03.13.04.2.04,9.22-.19,15.4-9.03,22.1-14.05,4.74-3.55,10.42-5.53,16.22-6.76.07-.01.11-.06.11-.14l-.04-1.37c0-.08-.04-.11-.12-.1-6.57,1.15-13.04,3.45-18.16,7.8-1.56,1.32-3.9,3.38-7.02,6.17-3.04,2.72-6.27,5.14-10.18,6.48-.09.03-.19-.02-.22-.11,0,0,0,0,0-.01-.03-.13.03-.26.18-.38,2.21-1.74,4.24-3.85,5.65-6.29,1.53-2.66,2.12-5.82,3.49-8.42,2.16-4.09,6.21-7.35,10.9-7.97.87-.12,2.45-.27,4.75-.46,3.34-.27,6.9-.79,10.66-1.57.07-.01.1-.05.1-.12l.02-4.6c0-.07-.03-.1-.1-.08-4.93,1.5-8.96.52-12.28-3.43-4.73-5.61-7.48-12.46-12.58-17.83-.53-.56-3.41-3.21-4.07-2.48-.07.07-.1.17-.09.27.24,3.56-.09,7.1-.34,10.71-.5,7.14,1.22,13.11,7.18,17.38Zm47.07-4.38c.28-.26.78-.65,1.13-1.01.21-.21.19-.23-.05-.05-5.85,4.4-11.93,7.53-19.16,8.93-.07.01-.1.06-.1.13v1.21c0,.08.04.11.11.09,6.87-1.48,12.9-4.58,18.07-9.29Zm-26.38,30.94c.14,1.53-.06,3.11.18,4.59.6,3.83,2.13,7.26,4.6,10.29.04.06.09.06.14,0,2.67-3.05,4.29-6.56,4.86-10.53.21-1.49.09-3.27.12-4.89,0-.07-.03-.11-.11-.11h-9.63c-.07,0-.11.04-.13.11-.03.18-.04.36-.02.53Zm-21.56,28.17l.04,16.31s.02.07.07.07h3.57c.07,0,.1-.03.1-.1v-21.7c0-.07-.04-.1-.1-.1h-2.18c-.07,0-.12.03-.15.09-1.04,1.65-2.55,2.61-4.51,2.86-.09.01-.13.06-.13.15v2.15c0,.1.05.15.15.15h3.03c.08,0,.12.04.12.12Zm18.89,6.76s.03,0,.03,0c0,0,0,0,0,.01.1,1.19.06,2.38-.11,3.57-.23,1.59-.78,2.69-2.45,2.88-1.93.22-3.08-.58-3.47-2.42-.01-.06-.05-.09-.11-.09h-3.66c-.08,0-.11.04-.11.11.3,4.37,3.8,6.19,7.81,5.76,3.97-.43,6.02-3.32,6.04-7.14.01-2.49.01-4.97,0-7.46-.01-3.81-1.76-6.88-5.8-7.42-6.03-.81-9.3,3.32-8.31,9.03.9,5.2,6.44,6.04,10.12,3.16Zm12.47,6.1c2.72-2.75,6.16-5.29,7.98-8.77,1.21-2.3,1.21-5.39-.53-7.44-2.09-2.45-6.5-2.72-9.21-1.37-2.28,1.14-3.37,3.18-3.26,6.11,0,.07.04.11.12.11h3.72c.07,0,.11-.04.11-.11-.03-2.38,1.24-3.91,3.77-3.46,2.23.4,2.67,3,1.83,4.69-.4.79-1.06,1.68-1.98,2.66-2.44,2.59-4.97,5.1-7.58,7.52-.05.04-.07.1-.07.17v3.31c0,.07.03.1.1.1h13.44s.06-.02.06-.06v-3.25c.01-.07-.02-.11-.09-.11h-8.35c-.1,0-.11-.04-.04-.11Zm20.44-14.72s.08.03.08.08c0,0,0,.02,0,.02l-5.91,18.03c-.02.07,0,.1.07.1h4.11c.06,0,.09-.03.11-.08,1.89-6.31,3.76-12.62,5.62-18.94.25-.85.2-1.62.18-2.48,0-.07-.03-.1-.1-.1h-13.45c-.07,0-.1.03-.1.1v3.16c0,.07.04.1.11.1h9.29Z"/>
    <path class="cls-6" d="m105.27,90.74c5.62,7.48,7.82,17.42,7.37,26.64,0,.08.03.11.11.09,3.46-.81,6.54-.87,10.14-.74.07,0,.11-.03.11-.1v-37.05c0-.07-.04-.1-.11-.08l-4.92,1.62s-.09,0-.1-.05c0-.02,0-.05,0-.07l7.73-14s.08-.06.12-.04c.01,0,.03.02.03.03l8.03,14.01c.09.15.05.2-.12.14l-4.99-1.62c-.08-.03-.12,0-.12.09v37c0,.07.04.11.11.1,3.64-.11,6.73-.04,10.11.74.04,0,.07-.01.08-.05,0,0,0-.01,0-.02-.48-9.19,1.72-19.26,7.38-26.69.05-.07.04-.11-.05-.12-2.08-.25-4.17-.28-6.26-.1-.24.02-.26-.04-.07-.19,4.86-3.77,10.34-6.03,16.45-6.8.99-.12,1.98-.17,2.97-.15.1,0,.11.04.04.1-12.12,10.9-16.7,24.32-14.16,40.53.01.08-.02.11-.1.09-5.36-1.5-10.82-2.23-16.38-2.18-.08,0-.12.04-.12.12v10.86c0,.07-.03.09-.1.07l-5.36-1.74c-.06-.02-.1-.06-.1-.13v-9.05c0-.08-.04-.11-.11-.12-5.57-.06-11.02.66-16.38,2.16-.14.04-.2-.01-.17-.16,2.74-15.57-2.26-30.11-14.22-40.47-.02-.02-.03-.05,0-.07.01-.01.03-.02.04-.02,7.12.11,13.96,2.67,19.57,7.03.03.02.04.07.01.11-.02.02-.04.03-.07.03-2.08-.17-4.26-.2-6.34.12-.08.01-.09.05-.05.12Z"/>
    <path class="cls-6" d="m145.48,143.21c8.92,8.29,14.54,20.38,17.25,32.22,2.16,9.4,1.67,19.39-2.35,28.19-.02.03-.05.05-.09.03-.03-.01-.04-.04-.04-.07,1.73-6.75,2.58-13.78,1.69-20.75-1.63-12.73-7.07-25.38-16.13-34.55-4.32-4.37-9.37-7.25-15.02-9.58-13.28-5.48-28.64-8.33-42.79-5.23-4.06.89-8.84,2.45-12.11,5.29-1.29,1.12-2.26,3-4.2,3.23-1.16.14-2.32.28-3.48.41-.07,0-.1-.02-.1-.09-.06-1.99.57-3.72,1.89-5.19,4.43-4.94,11.79-6.86,18.1-7.67,18.96-2.45,38.93,2.36,55.27,11.95.06.04.12.05.19.05,2.28-.02,4.64-.81,6.75-1.61,4.04-1.53,8.35-3.38,12.68-3.76,6.96-.62,13,2,18.51,6.02.02.01.02.04,0,.05-.01.01-.03.02-.04.01-2.39-1.22-5.06-2.39-7.42-3.17-5.89-1.94-11.75-1.63-17.57.94-3.2,1.41-6.13,2.75-9.43,3.05-.34.03-1.04-.01-1.52.07-.12.02-.14.07-.05.16Z"/>
    <path class="cls-6" d="m97.74,164.35c-3.07-1.4-6.06-2.92-9-4.58-4.07-2.3-7.77-5.23-11.84-7.5-1.48-.82-3.23-.96-4.96-1.16-2.16-.25-16.87-1.63-15.84-4.28.54-1.39,4.69-1.8,5.96-1.87,5.99-.33,12.3,1.9,17.93,3.69,3.07.97,10.97,3.47,12.23-1.47.02-.07.06-.09.13-.07,3.36.96,6.02,2.68,7.62,5.86,1.15,2.27,2.29,4.89,3.63,6.78,1.61,2.27,3.6,4.11,5.68,5.93,2.54,2.21,5.31,4.07,8.33,5.57,5.93,2.95,11.94,5.67,17.67,9.02,4.38,2.57,8.83,5.89,11.67,9.99,6.24,9.02,2.11,19.31-4.92,26.26-3.76,3.72-8.06,6.66-12.89,8.82-.07.03-.1,0-.1-.07v-6.67c0-.08.03-.15.08-.2,3.08-3.18,4.55-7.02,4.41-11.51-.22-6.77-3.05-12.94-8.63-16.9-1.38-.98-2.9-1.62-4.57-1.93-3.09-.57-3.07,1.3-2.99,3.64.07,2.09.1,4.18.08,6.27,0,.09-.03.26-.09.53-.66,2.88-4.61-1.57-5.26-2.36-5.92-7.18-7.37-16.59-9.06-25.61-.14-.78-.81-1.49-1.28-2.02-1.08-1.2-2.16-2.4-3.23-3.61-.22-.25-.48-.44-.78-.58Z"/>
    <path class="cls-6" d="m123.64,247.51v-56.66c0-.12.05-.14.15-.08,1.52,1,2.86,2.2,4.02,3.6.05.06.07.13.07.21v52.95c0,.08.04.11.12.1,1.94-.22,2.72,1.93.63,2.19-.06,0-.09.04-.09.11l.02,2.6c0,.09-.04.14-.13.14h-5.32c-.07,0-.1-.03-.1-.1v-2.65c0-.06-.03-.09-.09-.1-1.08-.14-1.78-1.39-.57-2.01.35-.18.76-.19,1.19-.18.07,0,.11-.03.11-.1Z"/>
    <path class="cls-6" d="m100.17,227.5c-5.96-4.27-7.68-10.25-7.18-17.38.25-3.61.59-7.15.34-10.71,0-.1.03-.2.09-.27.66-.72,3.54,1.93,4.07,2.48,5.11,5.38,7.85,12.22,12.58,17.83,3.32,3.94,7.35,4.93,12.28,3.43.07-.02.1,0,.1.08l-.02,4.6c0,.07-.03.11-.1.12-3.77.77-7.32,1.29-10.66,1.57-2.3.19-3.88.34-4.75.46-4.69.62-8.74,3.88-10.9,7.97-1.37,2.6-1.95,5.76-3.49,8.42-1.41,2.44-3.44,4.55-5.65,6.29-.15.12-.21.25-.18.38.02.09.12.15.21.12,0,0,0,0,.01,0,3.91-1.33,7.14-3.76,10.18-6.48,3.12-2.79,5.46-4.85,7.02-6.17,5.12-4.35,11.59-6.65,18.16-7.8.08-.01.12.02.12.1l.04,1.37c0,.08-.03.12-.11.14-5.8,1.23-11.49,3.21-16.22,6.76-6.7,5.02-12.88,13.86-22.1,14.05-.07,0-.14-.01-.2-.04-.27-.13-.31-.31-.1-.54,1.24-1.42,2.66-2.95,3.5-4.54,3.67-7.03,1.71-19.56,12.91-22.1.04,0,.06-.05.05-.08,0-.02-.01-.03-.03-.04Z"/>
    <path class="cls-6" d="m147.24,223.12c-5.17,4.71-11.2,7.8-18.07,9.29-.07.02-.11-.01-.11-.09v-1.21c0-.07.03-.11.1-.13,7.23-1.4,13.32-4.53,19.16-8.93.24-.18.25-.16.05.05-.35.36-.85.76-1.13,1.01Z"/>
    <path class="cls-6" d="m120.86,254.07c-.02-.18,0-.35.02-.53.01-.07.05-.11.13-.11h9.63c.07,0,.11.04.11.11-.02,1.62.1,3.39-.12,4.89-.57,3.97-2.19,7.48-4.86,10.53-.05.05-.09.05-.14,0-2.47-3.03-4-6.46-4.6-10.29-.23-1.48-.03-3.06-.18-4.59Z"/>
    <path class="cls-6" d="m99.17,282.11h-3.03c-.1,0-.15-.05-.15-.15v-2.15c0-.09.04-.14.13-.15,1.97-.25,3.47-1.21,4.51-2.86.04-.06.09-.09.15-.09h2.18c.07,0,.1.03.1.1v21.7c0,.07-.03.1-.1.1h-3.57s-.07-.02-.07-.07l-.04-16.31c0-.08-.04-.12-.12-.12Z"/>
    <path class="cls-6" d="m118.18,289c-3.68,2.88-9.22,2.04-10.12-3.16-.99-5.71,2.28-9.84,8.31-9.03,4.05.54,5.79,3.61,5.8,7.42,0,2.48,0,4.97,0,7.46-.02,3.82-2.07,6.71-6.04,7.14-4.01.44-7.51-1.38-7.81-5.76,0-.08.03-.11.11-.11h3.66c.06,0,.1.03.11.09.39,1.84,1.54,2.64,3.47,2.42,1.67-.19,2.22-1.29,2.45-2.88.17-1.19.2-2.38.11-3.57,0-.01-.01-.02-.03-.02,0,0,0,0-.01,0Zm.08-3.33c-.01-1.97.13-4.87-2.2-5.41-2.86-.67-4.3,1.27-4.23,3.87.05,1.85.89,3.41,2.91,3.46,1.36.03,2.54-.75,3.45-1.72.05-.05.07-.12.07-.19Z"/>
    <path class="cls-6" d="m130.69,295.21h8.35c.07,0,.11.04.11.11v3.25s-.03.06-.07.06h-13.44c-.07,0-.1-.03-.1-.1v-3.31c0-.07.02-.12.07-.17,2.61-2.43,5.13-4.93,7.58-7.52.93-.98,1.59-1.87,1.98-2.66.84-1.69.4-4.29-1.83-4.69-2.52-.45-3.8,1.08-3.77,3.46,0,.07-.03.11-.11.11h-3.72c-.07,0-.11-.04-.12-.11-.1-2.93.99-4.97,3.26-6.11,2.7-1.35,7.12-1.07,9.21,1.37,1.75,2.05,1.74,5.14.53,7.44-1.83,3.48-5.27,6.02-7.98,8.77-.07.07-.05.11.04.11Z"/>
    <path class="cls-6" d="m151.09,280.38h-9.29c-.07,0-.11-.03-.11-.1v-3.16c0-.07.03-.1.1-.1h13.45c.07,0,.1.03.1.1.01.87.07,1.63-.18,2.48-1.86,6.32-3.74,12.63-5.62,18.94-.02.05-.05.08-.11.08h-4.11c-.07,0-.1-.03-.07-.1l5.91-18.03s0-.08-.05-.1c0,0-.02,0-.02,0Z"/>
    <path class="cls-4" d="m116.06,280.25c2.34.55,2.19,3.44,2.2,5.41,0,.07-.02.13-.07.19-.91.97-2.09,1.75-3.45,1.72-2.02-.04-2.86-1.61-2.91-3.46-.07-2.6,1.37-4.54,4.23-3.87Z"/>
  </g>
</svg>