<?xml version="1.0" encoding="UTF-8"?>
<svg id="Livello_2" data-name="Livello 2" xmlns="http://www.w3.org/2000/svg" viewBox="0 0 86.86 117.52">
  <defs>
    <style>
      .cls-1, .cls-2, .cls-3, .cls-4, .cls-5, .cls-6, .cls-7, .cls-8 {
        stroke: #231f20;
        stroke-miterlimit: 2.61;
        stroke-width: .05px;
      }

      .cls-1, .cls-4, .cls-9, .cls-10, .cls-11, .cls-12, .cls-6, .cls-7, .cls-13, .cls-8, .cls-14, .cls-15 {
        fill-rule: evenodd;
      }

      .cls-1, .cls-15 {
        fill: #d5d6d7;
      }

      .cls-2, .cls-11, .cls-6, .cls-16 {
        fill: #dca856;
      }

      .cls-3 {
        fill: none;
      }

      .cls-4, .cls-13 {
        fill: #231f20;
      }

      .cls-9 {
        fill: #0086c2;
      }

      .cls-9, .cls-10, .cls-11, .cls-12, .cls-17, .cls-18, .cls-13, .cls-14, .cls-16, .cls-15 {
        stroke-width: 0px;
      }

      .cls-10, .cls-5 {
        fill: #e3272a;
      }

      .cls-12, .cls-8 {
        fill: #cbd030;
      }

      .cls-17 {
        fill: #2a3b93;
      }

      .cls-18 {
        fill: #fff;
      }

      .cls-7, .cls-14 {
        fill: #0088cb;
      }
    </style>
  </defs>
  <g id="Layer_1" data-name="Layer 1">
    <g>
      <path class="cls-16" d="m64.79.17s-6.12,5.02-20.79,4.62C26.97,4.33,21.77,0,21.77,0c0,0-4.85,6.69-9.07,10.34C5.77,16.34,0,17.73,0,17.73c0,0,4.44,10.18,5.08,21.14.81,13.74-1.43,19.45-2.43,23.1C-1.27,76.4-.02,88.09,6.47,95.11c5.54,6.01,22.06,10.62,25.52,12.01,6.72,2.69,11.55,10.39,11.55,10.39,0,0,6.93-9.47,13.51-11.09,3.76-.92,19.52-5.08,25.76-13.05,3.77-4.82,5.85-16.54,1.85-31.88-1.39-5.31-3.75-12.13-2.66-23.91.92-9.93,4.85-19.64,4.85-19.64,0,0-6.1-1.86-12.36-7.39C68.49,5.25,64.79.17,64.79.17h0Z"/>
      <path class="cls-17" d="m16.2,11.32l6.44-7.94s9.27,4.33,20.96,4.33c13.34,0,20.18-4.33,20.18-4.33l6.84,7.71-18.19,24h-17.59L16.2,11.32h0Z"/>
      <path class="cls-17" d="m5.66,27.63l17.84,23.13.87,20.62-16.81,21.31s-4.24-3.64-4.33-15.68c-.05-7.36,1.39-14.02,2.43-16.89,2.34-6.5,2.75-12.21,2.51-17.33-.35-7.54-2.51-15.16-2.51-15.16h0Z"/>
      <path class="cls-17" d="m81.54,27.72l-17.85,23.13-.87,20.62,16.8,21.31s4.24-3.64,4.33-15.68c.05-7.36-1.39-14.03-2.42-16.89-2.34-6.5-2.75-12.21-2.51-17.32.35-7.54,2.51-15.16,2.51-15.16h0Z"/>
      <path class="cls-17" d="m37.02,85.67l-12.47,16.29s3.58,1.82,6.67,2.51c3.1.7,5.02,1.82,8.23,4.42,2.33,1.89,4.33,5.02,4.33,5.02,0,0,3.64-4.24,4.94-5.28,1.3-1.04,4.45-3.56,8.46-4.5,3.32-.78,6.44-2.25,6.44-2.25l-13.34-16.2s-3.81,1.64-6.58,1.56c-2.86-.09-6.67-1.56-6.67-1.56h0Z"/>
      <path class="cls-18" d="m53.04,84.72s3.37-2.42,4.85-3.9c2.86-2.86,3.98-6.32,3.98-6.32l15.77,20.1s-1.14,1.43-5.46,3.9c-3.03,1.73-6.41,2.6-6.41,2.6l-12.73-16.37h0Z"/>
      <path class="cls-18" d="m34.42,84.63s-3.37-2.41-4.85-3.9c-2.86-2.86-3.98-6.32-3.98-6.32l-15.77,20.1s1.14,1.43,5.46,3.9c3.03,1.73,6.41,2.6,6.41,2.6l12.73-16.37h0Z"/>
      <path class="cls-18" d="m54.52,36.38l18.02-23.48s1.99,1.65,4.59,3.38c3.92,2.61,6.93,3.55,6.93,3.55l-21.66,28.07s-1.27-3.77-3.38-6.41c-2.43-3.03-4.5-5.11-4.5-5.11h0Z"/>
      <path class="cls-18" d="m32.43,36.38L14.41,12.91s-1.99,1.65-4.59,3.38c-3.92,2.61-6.93,3.55-6.93,3.55l21.66,28.07s1.27-3.77,3.38-6.41c2.43-3.03,4.5-5.11,4.5-5.11h0Z"/>
      <path class="cls-11" d="m43.51,32.61c11.82,0,21.44,12.21,21.44,27.29s-9.62,27.29-21.44,27.29-21.44-12.21-21.44-27.29,9.62-27.29,21.44-27.29h0Z"/>
      <path class="cls-9" d="m43.72,35.2c10.52,0,19.23,11.04,19.23,24.69s-8.71,24.56-19.23,24.56-19.23-11.04-19.23-24.56,8.71-24.69,19.23-24.69h0Z"/>
      <path class="cls-11" d="m43.71,42.1c6.37,0,11.69,7.93,11.69,17.67s-5.33,17.54-11.69,17.54-11.69-7.93-11.69-17.54,5.33-17.67,11.69-17.67h0Z"/>
      <path class="cls-13" d="m46.4,63.09c.06-.15.17-.2.37-.23.26-.04.43.09.63,0,.55-.24.06-.75.32-.98.19-.17,1.18-.17,1.53-.2.35-.03.81-.29,1.24-.75.2-.21.23-.55.32-.58.09-.03.26.66.35.81.09.14.75.09.89.14s.38.12.35.72c0,0-.09.14.32.43.4.29.58.84.55,1.01-.03.17-.2.12-.43.03-.23-.09-.38.06-.29.32.09.26.35.66.49.84.14.17.29.32.23.52-.06.2-.37.26-.46.4-.09.14-.12.75-.12.75,0,0-.98.17-1.79.32s-2.66.43-2.66.43c0,0,.61-.69.81-.95.2-.26.26-.61.06-.75-.2-.14-.4-.29-.66-.12-.26.17-.37.52-.55.58-.17.06-.26.17-.49-.12-.23-.29-.29-.63-.49-.63s-.43.12-.61.2c-.17.09-.35-.03-.35-.03,0,0,.2-.03.38-.14.17-.12.35-.32.38-.46.03-.14,0-.43-.14-.64-.15-.2-.17-.92-.17-.92h0Z"/>
      <path class="cls-13" d="m34.51,63.06c.06-.14.17-.2.37-.23.26-.04.43.09.64,0,.55-.24.06-.75.32-.98.19-.17,1.18-.17,1.53-.2.35-.03.81-.29,1.24-.75.2-.21.23-.55.32-.58.09-.03.26.66.35.81.09.14.75.09.89.14.14.06.38.12.35.72,0,0-.09.14.32.43.4.29.58.84.55,1.01-.03.17-.2.12-.43.03-.23-.09-.38.06-.29.32.09.26.35.67.49.84.14.17.29.32.23.52-.06.2-.37.26-.46.4-.09.14-.12.75-.12.75,0,0-.98.17-1.79.32-.81.14-2.66.43-2.66.43,0,0,.61-.69.81-.95.2-.26.26-.61.06-.75-.2-.14-.4-.29-.66-.11-.26.17-.37.52-.55.58-.17.06-.26.17-.49-.12-.23-.29-.29-.63-.49-.63s-.43.12-.61.2c-.17.09-.35-.03-.35-.03,0,0,.2-.03.38-.15.17-.12.35-.32.38-.46.03-.14,0-.43-.14-.63-.14-.2-.17-.92-.17-.92h0Z"/>
      <path class="cls-13" d="m39.64,71.38c.06-.14.17-.2.37-.23.26-.04.43.09.64,0,.55-.24.06-.75.32-.98.19-.17,1.18-.17,1.53-.2.35-.03.81-.29,1.24-.75.2-.21.23-.55.32-.58.09-.03.26.66.35.81.09.14.75.09.9.14.14.06.38.12.35.72,0,0-.09.14.32.43.4.29.58.84.55,1.01-.03.17-.2.12-.43.03-.23-.09-.37.06-.29.32.09.26.35.66.49.84.15.17.29.32.23.52-.06.2-.37.26-.46.4-.09.14-.12.75-.12.75,0,0-.98.17-1.79.32-.81.14-2.66.43-2.66.43,0,0,.61-.69.81-.95.2-.26.26-.61.06-.75-.2-.14-.41-.29-.66-.12-.26.17-.37.52-.55.58-.17.06-.26.17-.49-.12-.23-.29-.29-.63-.49-.63s-.43.12-.61.2c-.17.09-.35-.03-.35-.03,0,0,.2-.03.38-.15.17-.11.35-.32.37-.46.03-.14,0-.43-.14-.63-.14-.2-.17-.92-.17-.92h0Z"/>
      <path class="cls-10" d="m43.02,66.56s.04.58.14,1.04c.12.49.26.92.46.92.29,0,.43-.46.52-.84.09-.38.03-1.15.03-1.15l-1.15.03h0Z"/>
      <path class="cls-10" d="m44.03,49.46s.26-.35.52-1.33c.17-.66.32-1.39-.15-2.28-.46-.9-1.07-1.59-1.07-1.59,0,0,.11.42-.09.95-.26.69-.68,1.19-.95,1.76-.2.43-.11.75.06,1.24.32.95.52,1.24.52,1.24h1.16Z"/>
      <path class="cls-10" d="m47.96,53.22s.14.03.55-.14c.4-.17.64-.54.61-1.1-.04-.61-.24-.92-.58-1.07-.43-.19-.81-.29-.81-.29,0,0,.32-.29.78-.29s1.05.27,1.39.75c.44.63.32,1.65.32,1.65,0,0,.32,0,1.1.23.99.29,1.39.9,1.39.9,0,0-.11.36-1.3.78-.89.31-1.04.29-1.04.29,0,0,.06.91-.23,1.47-.33.65-.83.82-1.56.92-.63.09-.81-.17-.81-.17,0,0,.37-.16.64-.29.4-.2.64-.48.64-1.18s-.24-.93-.53-1.05c-.29-.12-.58-.17-.58-.17l.03-1.24h0Z"/>
      <path class="cls-10" d="m39.28,53.24s-.14.03-.55-.15c-.4-.17-.64-.54-.61-1.1.04-.61.24-.92.58-1.07.43-.19.81-.29.81-.29,0,0-.32-.29-.78-.29s-1.05.27-1.39.75c-.44.64-.32,1.65-.32,1.65,0,0-.32,0-1.1.23-.99.29-1.39.89-1.39.89,0,0,.11.36,1.3.78.89.31,1.04.29,1.04.29,0,0-.06.91.23,1.47.33.65.83.82,1.56.92.63.09.81-.17.81-.17,0,0-.37-.16-.64-.29-.4-.2-.64-.48-.64-1.18s.24-.93.53-1.05c.29-.12.58-.17.58-.17l-.03-1.24h0Z"/>
      <path class="cls-15" d="m32.18,43.65c.52,0,1.04.52,1.04,1.04s-.52,1.04-1.04,1.04c-.2,0-.41-.08-.58-.21-.27-.2-.46-.52-.46-.83,0-.52.52-1.04,1.04-1.04h0Z"/>
      <path class="cls-15" d="m31.19,46.4l-.74-.37-.26.43.76.43-1.93,4.33s-.65-.41-.82-.97c-.11-.37-.06-.97-.06-.97h.54l-.82-1.58-1.02,1.49.56.09s0,.78.04,1.08c.09.54.45,1.56,1.21,1.93,1,.48,1.23.36,1.8.26.95-.17,1.6-1.11,1.6-1.11l.48.41.37-1.86-1.86.45.48.52s-.43.46-.71.52c-.67.15-1.17-.02-1.17-.02l1.88-4.35.74.35.24-.48-.78-.35.43-.97-.54-.24-.41.98h0Z"/>
      <path class="cls-15" d="m56.1,70.51l-.74-.37-.26.43.76.43-1.93,4.33s-.65-.41-.82-.98c-.11-.37-.06-.97-.06-.97h.54l-.82-1.58-1.02,1.5.56.09s0,.78.04,1.08c.09.54.45,1.56,1.21,1.93,1,.48,1.23.36,1.8.26.95-.17,1.6-1.11,1.6-1.11l.48.41.37-1.86-1.86.46.48.52s-.43.46-.71.52c-.67.15-1.17-.02-1.17-.02l1.88-4.35.74.35.24-.48-.78-.35.43-.97-.54-.24-.41.97h0Z"/>
      <path class="cls-15" d="m31.26,70.51l.74-.37.26.43-.76.43,1.93,4.33s.65-.41.82-.98c.11-.37.06-.97.06-.97h-.54l.82-1.58,1.02,1.5-.56.09s0,.78-.04,1.08c-.09.54-.45,1.56-1.21,1.93-1,.48-1.23.36-1.8.26-.95-.17-1.6-1.11-1.6-1.11l-.48.41-.37-1.86,1.86.46-.48.52s.43.46.71.52c.67.15,1.17-.02,1.17-.02l-1.88-4.35-.74.35-.24-.48.78-.35-.43-.97.54-.24.41.97h0Z"/>
      <path class="cls-15" d="m56.25,46.24l.74-.37.26.43-.76.43,1.93,4.33s.65-.41.82-.97c.11-.37.07-.97.07-.97h-.54l.82-1.58,1.02,1.49-.56.09s0,.78-.04,1.08c-.09.54-.45,1.56-1.21,1.93-1,.48-1.23.36-1.8.26-.95-.17-1.6-1.1-1.6-1.1l-.48.41-.37-1.86,1.86.45-.48.52s.43.46.71.52c.67.15,1.17-.02,1.17-.02l-1.88-4.35-.74.35-.24-.48.78-.35-.43-.97.54-.24.41.97h0Z"/>
      <path class="cls-15" d="m55.2,43.42c.52,0,1.04.52,1.04,1.04s-.52,1.04-1.04,1.04c-.2,0-.41-.08-.58-.21-.27-.2-.46-.52-.46-.83,0-.52.52-1.04,1.04-1.04h0Z"/>
      <path class="cls-15" d="m30.15,67.8c.52,0,1.04.52,1.04,1.04s-.52,1.04-1.04,1.04c-.2,0-.41-.08-.58-.21-.27-.2-.46-.52-.46-.83,0-.52.52-1.04,1.04-1.04h0Z"/>
      <path class="cls-15" d="m57.11,67.76c.52,0,1.04.52,1.04,1.04s-.52,1.04-1.04,1.04c-.2,0-.4-.08-.58-.21-.27-.2-.46-.52-.46-.83,0-.52.52-1.04,1.04-1.04h0Z"/>
      <path class="cls-1" d="m57.33,56.89h3.98v1.21s-.56-.07-.8.24c-.11.14-.09.37-.02.54.07.17.91,1.47.91,1.47l-.02,2.12-4.03-.02v-2.06s.37-.56.67-1.17c.21-.42.21-.58.04-.87-.13-.22-.71-.26-.71-.26l-.02-1.21h0Z"/>
      <polygon class="cls-4" points="58.86 59.65 58.36 59.65 58.36 58.81 58.86 58.81 58.86 59.65 58.86 59.65"/>
      <polygon class="cls-4" points="59.8 62.47 58.8 62.47 58.8 61.28 59.8 61.28 59.8 62.47 59.8 62.47"/>
      <polygon class="cls-4" points="60.27 59.65 59.77 59.65 59.77 58.81 60.27 58.81 60.27 59.65 60.27 59.65"/>
      <polygon class="cls-4" points="58.99 57.55 58.32 57.55 58.32 56.92 58.99 56.92 58.99 57.55 58.99 57.55"/>
      <polygon class="cls-4" points="60.33 57.53 59.66 57.53 59.66 56.9 60.33 56.9 60.33 57.53 60.33 57.53"/>
      <path class="cls-1" d="m25.97,56.8h3.99v1.21s-.56-.06-.8.24c-.11.14-.09.37-.02.54.07.17.91,1.47.91,1.47l-.02,2.12-4.03-.02v-2.06s.37-.56.67-1.17c.21-.43.21-.58.04-.87-.13-.22-.71-.26-.71-.26l-.02-1.21h0Z"/>
      <polygon class="cls-4" points="27.5 59.56 27 59.56 27 58.72 27.5 58.72 27.5 59.56 27.5 59.56"/>
      <polygon class="cls-4" points="28.44 62.38 27.44 62.38 27.44 61.19 28.44 61.19 28.44 62.38 28.44 62.38"/>
      <polygon class="cls-4" points="28.91 59.56 28.41 59.56 28.41 58.72 28.91 58.72 28.91 59.56 28.91 59.56"/>
      <polygon class="cls-4" points="27.63 57.46 26.96 57.46 26.96 56.84 27.63 56.84 27.63 57.46 27.63 57.46"/>
      <polygon class="cls-4" points="28.97 57.44 28.3 57.44 28.3 56.81 28.97 56.81 28.97 57.44 28.97 57.44"/>
      <polygon class="cls-1" points="41.55 79.32 46.2 79.29 46.08 82.22 41.59 82.24 41.55 79.32 41.55 79.32"/>
      <path class="cls-1" d="m45.54,78.49h2.22v.81s-.31-.04-.45.16c-.06.09-.05.25-.01.36.04.12.51.99.51.99v1.42s-2.25-.01-2.25-.01v-1.38s.2-.38.37-.78c.12-.29.12-.39.03-.58-.07-.15-.4-.17-.4-.17v-.81h-.01Z"/>
      <polygon class="cls-4" points="46.39 80.34 46.12 80.34 46.12 79.77 46.39 79.77 46.39 80.34 46.39 80.34"/>
      <polygon class="cls-4" points="46.92 82.23 46.36 82.23 46.36 81.43 46.92 81.43 46.92 82.23 46.92 82.23"/>
      <polygon class="cls-4" points="47.18 80.34 46.9 80.34 46.9 79.77 47.18 79.77 47.18 80.34 47.18 80.34"/>
      <polygon class="cls-4" points="46.46 78.93 46.09 78.93 46.09 78.51 46.46 78.51 46.46 78.93 46.46 78.93"/>
      <polygon class="cls-4" points="47.21 78.92 46.84 78.92 46.84 78.5 47.21 78.5 47.21 78.92 47.21 78.92"/>
      <path class="cls-1" d="m39.84,78.49h2.22v.81s-.31-.04-.45.16c-.06.09-.05.25-.01.36.04.12.51.99.51.99v1.42s-2.25-.01-2.25-.01v-1.38s.21-.38.37-.78c.12-.29.12-.39.02-.58-.07-.15-.4-.17-.4-.17v-.81h-.01Z"/>
      <polygon class="cls-4" points="40.69 80.34 40.41 80.34 40.41 79.78 40.69 79.78 40.69 80.34 40.69 80.34"/>
      <polygon class="cls-4" points="41.21 82.23 40.66 82.23 40.66 81.43 41.21 81.43 41.21 82.23 41.21 82.23"/>
      <polygon class="cls-4" points="41.47 80.34 41.19 80.34 41.19 79.78 41.47 79.78 41.47 80.34 41.47 80.34"/>
      <polygon class="cls-4" points="40.76 78.94 40.38 78.94 40.38 78.51 40.76 78.51 40.76 78.94 40.76 78.94"/>
      <polygon class="cls-4" points="41.51 78.92 41.13 78.92 41.13 78.5 41.51 78.5 41.51 78.92 41.51 78.92"/>
      <polygon class="cls-13" points="44.16 82.21 43.41 82.21 43.41 81.41 44.16 81.41 44.16 82.21 44.16 82.21"/>
      <polygon class="cls-13" points="42.98 80.66 42.55 80.66 42.55 79.99 42.98 79.99 42.98 80.66 42.98 80.66"/>
      <polygon class="cls-13" points="42.55 79.71 42.12 79.71 42.12 79.32 42.55 79.32 42.55 79.71 42.55 79.71"/>
      <polygon class="cls-13" points="43.55 79.71 43.12 79.71 43.12 79.32 43.55 79.32 43.55 79.71 43.55 79.71"/>
      <polygon class="cls-13" points="44.41 79.71 43.98 79.71 43.98 79.32 44.41 79.32 44.41 79.71 44.41 79.71"/>
      <polygon class="cls-13" points="45.43 79.67 45 79.67 45 79.28 45.43 79.28 45.43 79.67 45.43 79.67"/>
      <polygon class="cls-13" points="44.99 80.63 44.55 80.63 44.55 79.95 44.99 79.95 44.99 80.63 44.99 80.63"/>
      <polygon class="cls-15" points="35.72 41.58 51.66 41.49 43.51 36.3 35.72 41.58 35.72 41.58"/>
      <polygon class="cls-16" points="74.23 70.12 71.47 70.12 71.47 56.99 67.68 56.99 67.68 54.59 78.03 54.59 78.03 56.99 74.23 56.99 74.23 70.12 74.23 70.12"/>
      <path class="cls-16" d="m16.94,64.75l2.38.28c-.15,1.56-.71,2.84-1.66,3.84-.95,1-2.2,1.51-3.75,1.51-1.3,0-2.36-.36-3.17-1.07-.81-.71-1.44-1.68-1.88-2.9-.44-1.22-.66-2.57-.66-4.04,0-2.37.52-4.29,1.55-5.77,1.03-1.48,2.45-2.22,4.25-2.22,1.41,0,2.59.47,3.53,1.42.94.95,1.53,2.31,1.78,4.07l-2.38.27c-.44-2.34-1.41-3.52-2.9-3.52-.96,0-1.71.49-2.24,1.46-.53.98-.8,2.39-.8,4.24s.29,3.3.86,4.26c.57.96,1.33,1.44,2.27,1.44.75,0,1.39-.32,1.92-.97.53-.64.83-1.41.9-2.31h0Z"/>
      <path class="cls-16" d="m38.75,106.15v-15.82h4.89c1.81,0,3.26.76,4.36,2.29,1.1,1.53,1.64,3.41,1.64,5.65s-.56,4.12-1.69,5.62c-1.13,1.51-2.74,2.26-4.85,2.26h-4.36Zm2.46-2.33h1.99c1.07,0,1.98-.48,2.73-1.44.74-.96,1.12-2.38,1.12-4.28,0-1.54-.33-2.85-.98-3.92-.65-1.07-1.51-1.61-2.58-1.61h-2.28v11.24h0Z"/>
      <path class="cls-5" d="m31.94,22.97c.12,1.02,1.04,3.4,1.84,4.16.8.76,3.19,1,4.68,1.25,1.49.24,12.13-.21,13.76-.62,1.63-.42,2.56-2.18,3.05-3.19.48-1.01-.07-3.29-.66-4.05-.59-.76-3.71-4.15-11.02-4.02-7.66.14-11.95,3.88-11.64,6.48h0Z"/>
      <path class="cls-2" d="m44.2,14.73s1.16.02,2.94,1.46c.92.74,1.21,1.31,1.54,2.55.62,2.35-.15,4.17-.15,4.17l1.45.45s.66-1.58.42-3.67c-.18-1.57-.55-2.15-1.01-2.67-.45-.52-1.49-1.52-2.15-1.87l.83.14c1.03.17,3.5.8,4.75,2.01,1.25,1.21,1.77,2.43,1.97,3.53.21,1.11,0,3.36-.24,3.95-.24.59,1.38.45,1.38.45,0,0,1.01-2.53,1.04-3.5.03-.97-.38-3.15-1.66-4.33-1.28-1.18-2.77-1.87-4.5-2.25-1.73-.38-4.92-.73-5.86-.76-.93-.03-3.81-.14-7.38.42-3.57.55-4,1.01-4.96,1.73-1.42,1.09-1.73,1.94-2.08,2.91-.35.97-.69,2.98.21,4.71.9,1.73,1,1.73,1,1.73l1.07-.55s-.42-1.35-.49-2.46c-.07-1.11.21-2.67.66-3.71.45-1.04,1.41-2.18,2.87-2.81,2.84-1.21,4.75-1.35,4.75-1.35,0,0-.78.26-1.8,1.04-1.35,1.03-1.76,2.48-1.94,3.26-.22.93.04,2.91.31,3.43.28.52.45.94.45.94l1.25-.28s-.84-3.27-.24-4.89c.58-1.57,1.29-2.24,1.97-2.77,1.35-1.04,2.46-1.04,2.46-1.04,0,0-.48,2.04-.59,3.5-.1,1.46-.21,3.4-.14,4.19.07.8.41,1.63.41,1.63l2.01-.03s-.04-.48.1-1.56.07-3.19-.07-4.3c-.14-1.11-.62-3.4-.62-3.4h0Z"/>
      <path class="cls-2" d="m33.23,27.06s.78.75,1.01,1.47c.23.72.63,1.33.78,2.37.14,1.04.09.75.09.75,0,0,6.84-.92,8.43-.89,1.59.03,8.52.89,8.52.89,0,0,.06-.55.23-1.1.17-.55.63-1.94.98-2.4.35-.46.98-1.23.98-1.23,0,0-.13-.12-.55-.12-.45,0-.43.16-.43.16l-3.29-.06s-.26-.17-.49-.55c-.23-.38-.23-.61-.23-.61l-.61-.52-.72.32-.72.78-2.69.03-.03-1.1-.78-.64-.84.66-.03,1.04-2.71.03-.66-.78-.66-.32-.72.46s0,.14-.23.49c-.23.35-.43.64-.43.64l-3.15.32s-.12-.26-.55-.26-.49.14-.49.14h0Z"/>
      <path class="cls-2" d="m34.23,28.72s3.42-1.08,9.53-1.04c5.89.04,9.18,1.04,9.18,1.04l.36-.25.03-.4s-3.94-1-9.62-1c-4.33,0-9.79.95-9.79.95v.39l.3.3h0Z"/>
      <path class="cls-2" d="m35.1,32.22s3.51-1.04,8.53-1.04c5.5,0,8.49.95,8.49.95l-.04-.61s-3.03-.82-8.4-.95c-3.6-.09-8.53.87-8.53.87l-.04.78h0Z"/>
      <path class="cls-2" d="m46.95,23.74c.16-.28.49-.23.63-.17.14.06.43.32.43.32,0,0-.08-.86.03-.98.35-.38,1.03.09,1.03.09,0,0,.33-.12.75.01.31.1.31.45.22.65-.13.26-.42.46-.42.46,0,0,.28-.13.59-.09.27.04.32.2.36.46.12.77-.46.52-.46.52,0,0,.13.17.19.4.06.23.03.57-.29.61-1.13.12-1.36-.78-1.36-.78,0,0-.55.38-1.21.38-.17,0-.51,0-.54-.4-.03-.39.39-.62.39-.62,0,0-.23.02-.35-.25-.07-.16-.1-.43,0-.61h0Z"/>
      <path class="cls-16" d="m48.73,24.16c.26,0,.52.26.52.52s-.26.52-.52.52c-.1,0-.2-.04-.29-.1-.13-.1-.23-.26-.23-.42,0-.26.26-.52.52-.52h0Z"/>
      <path class="cls-11" d="m48.73,24.16c.26,0,.52.26.52.52s-.26.52-.52.52c-.1,0-.2-.04-.29-.1-.13-.1-.23-.26-.23-.42,0-.26.26-.52.52-.52h0Z"/>
      <path class="cls-3" d="m48.73,24.16c.26,0,.52.26.52.52s-.26.52-.52.52c-.1,0-.2-.04-.29-.1-.13-.1-.23-.26-.23-.42,0-.26.26-.52.52-.52h0Z"/>
      <path class="cls-2" d="m43.66,22.26s.35-.2.52-.2.51.25.53.45c.03.2-.19.81-.19.81,0,0,.09-.2.45-.16.36.04.62.32.58.64-.04.32-.32.43-.32.43,0,0,.2.1.25.4.04.3-.04.7-.4.71-.9.02-1.36-.71-1.36-.71,0,0-.53.59-1.17.68-.29.04-.75-.03-.75-.32s.25-.68.25-.68c0,0-.19-.01-.25-.3-.06-.29.07-.61.25-.72.17-.12.79.06.79.06,0,0-.33-.55-.27-.81.06-.26.29-.48.49-.48s.61.2.61.2h0Z"/>
      <path class="cls-16" d="m43.64,23.57c.26,0,.52.26.52.52s-.26.52-.52.52c-.1,0-.2-.04-.29-.1-.13-.1-.23-.26-.23-.42,0-.26.26-.52.52-.52h0Z"/>
      <path class="cls-11" d="m43.64,23.57c.26,0,.52.26.52.52s-.26.52-.52.52c-.1,0-.2-.04-.29-.1-.13-.1-.23-.26-.23-.42,0-.26.26-.52.52-.52h0Z"/>
      <path class="cls-3" d="m43.64,23.57c.26,0,.52.26.52.52s-.26.52-.52.52c-.1,0-.2-.04-.29-.1-.13-.1-.23-.26-.23-.42,0-.26.26-.52.52-.52h0Z"/>
      <path class="cls-2" d="m33.23,27s.56-.1.9-.27c.33-.17.5-.4.5-.62s-.3-.35-.58-.3c-.27.04-.33.06-.33.06,0,0,.04-.07.04-.39s-.16-.56-.43-.55c-.55.03-.74.32-.74.32,0,0-.29-.23-.62-.29-.33-.06-.78.45-.78.45l.9.91s.38.42.61.55c.23.13.53.14.53.14h0Z"/>
      <path class="cls-16" d="m32.66,26.11c.26,0,.52.26.52.52s-.26.52-.52.52c-.1,0-.2-.04-.29-.1-.13-.1-.23-.26-.23-.42,0-.26.26-.52.52-.52h0Z"/>
      <path class="cls-11" d="m32.66,26.11c.26,0,.52.26.52.52s-.26.52-.52.52c-.1,0-.2-.04-.29-.1-.13-.1-.23-.26-.23-.42,0-.26.26-.52.52-.52h0Z"/>
      <path class="cls-3" d="m32.66,26.11c.26,0,.52.26.52.52s-.26.52-.52.52c-.1,0-.2-.04-.29-.1-.13-.1-.23-.26-.23-.42,0-.26.26-.52.52-.52h0Z"/>
      <path class="cls-2" d="m54.21,26.88s-.56-.1-.9-.27c-.33-.17-.5-.4-.5-.62s.3-.35.58-.3c.28.04.33.06.33.06,0,0-.04-.07-.04-.39s.16-.56.43-.55c.55.03.74.32.74.32,0,0,.29-.23.62-.29.33-.06.78.45.78.45l-.89.91s-.37.42-.61.55c-.23.13-.53.14-.53.14h0Z"/>
      <path class="cls-16" d="m54.7,25.88c.26,0,.52.26.52.52s-.26.52-.52.52c-.1,0-.2-.04-.29-.1-.13-.1-.23-.26-.23-.42,0-.26.26-.52.52-.52h0Z"/>
      <path class="cls-11" d="m54.7,25.88c.26,0,.52.26.52.52s-.26.52-.52.52c-.1,0-.2-.04-.29-.1-.13-.1-.23-.26-.23-.42,0-.26.26-.52.52-.52h0Z"/>
      <path class="cls-3" d="m54.7,25.88c.26,0,.52.26.52.52s-.26.52-.52.52c-.1,0-.2-.04-.29-.1-.13-.1-.23-.26-.23-.42,0-.26.26-.52.52-.52h0Z"/>
      <polygon class="cls-6" points="43.28 9.56 44.02 9.56 44.02 10.15 44.45 10.16 44.47 10.71 44.01 10.76 44.01 12.1 43.27 12.11 43.31 10.74 42.84 10.73 42.85 10.16 43.27 10.14 43.28 9.59 43.28 9.56 43.28 9.56"/>
      <path class="cls-16" d="m43.62,11.99c.59,0,1.18.59,1.18,1.19s-.59,1.19-1.18,1.19c-.23,0-.46-.09-.66-.24-.31-.23-.53-.59-.53-.95,0-.59.59-1.19,1.18-1.19h0Z"/>
      <path class="cls-11" d="m43.62,11.99c.59,0,1.18.59,1.18,1.19s-.59,1.19-1.18,1.19c-.23,0-.46-.09-.66-.24-.31-.23-.53-.59-.53-.95,0-.59.59-1.19,1.18-1.19h0Z"/>
      <path class="cls-3" d="m43.62,11.99c.59,0,1.18.59,1.18,1.19s-.59,1.19-1.18,1.19c-.23,0-.46-.09-.66-.24-.31-.23-.53-.59-.53-.95,0-.59.59-1.19,1.18-1.19h0Z"/>
      <path class="cls-14" d="m43.6,18.77c.44,0,.89.44.89.89s-.44.89-.89.89c-.17,0-.35-.07-.49-.18-.23-.17-.4-.44-.4-.71,0-.44.44-.89.89-.89h0Z"/>
      <path class="cls-14" d="m43.6,18.77c.44,0,.89.44.89.89s-.44.89-.89.89c-.17,0-.35-.07-.49-.18-.23-.17-.4-.44-.4-.71,0-.44.44-.89.89-.89h0Z"/>
      <path class="cls-3" d="m43.6,18.77c.44,0,.89.44.89.89s-.44.89-.89.89c-.17,0-.35-.07-.49-.18-.23-.17-.4-.44-.4-.71,0-.44.44-.89.89-.89h0Z"/>
      <path class="cls-7" d="m50.19,20.23c.45,0,.89.44.89.89s-.44.89-.89.89c-.17,0-.35-.07-.49-.18-.23-.17-.39-.44-.39-.71,0-.44.44-.89.89-.89h0Z"/>
      <path class="cls-14" d="m37.04,20.53c.44,0,.89.44.89.89s-.45.89-.89.89c-.17,0-.35-.07-.49-.18-.23-.17-.4-.44-.4-.71,0-.44.44-.89.89-.89h0Z"/>
      <path class="cls-14" d="m37.04,20.53c.44,0,.89.44.89.89s-.45.89-.89.89c-.17,0-.35-.07-.49-.18-.23-.17-.4-.44-.4-.71,0-.44.44-.89.89-.89h0Z"/>
      <path class="cls-3" d="m37.04,20.53c.44,0,.89.44.89.89s-.45.89-.89.89c-.17,0-.35-.07-.49-.18-.23-.17-.4-.44-.4-.71,0-.44.44-.89.89-.89h0Z"/>
      <path class="cls-14" d="m30.59,21.92c.44,0,.89.44.89.89s-.44.89-.89.89c-.17,0-.35-.07-.49-.18-.23-.17-.39-.44-.39-.71,0-.44.44-.89.89-.89h0Z"/>
      <path class="cls-14" d="m30.59,21.92c.44,0,.89.44.89.89s-.44.89-.89.89c-.17,0-.35-.07-.49-.18-.23-.17-.39-.44-.39-.71,0-.44.44-.89.89-.89h0Z"/>
      <path class="cls-3" d="m30.59,21.92c.44,0,.89.44.89.89s-.44.89-.89.89c-.17,0-.35-.07-.49-.18-.23-.17-.39-.44-.39-.71,0-.44.44-.89.89-.89h0Z"/>
      <path class="cls-14" d="m56.73,21.81c.45,0,.89.44.89.89s-.44.89-.89.89c-.17,0-.35-.07-.49-.18-.23-.17-.39-.44-.39-.71,0-.44.45-.89.89-.89h0Z"/>
      <path class="cls-14" d="m56.73,21.81c.45,0,.89.44.89.89s-.44.89-.89.89c-.17,0-.35-.07-.49-.18-.23-.17-.39-.44-.39-.71,0-.44.45-.89.89-.89h0Z"/>
      <path class="cls-3" d="m56.73,21.81c.45,0,.89.44.89.89s-.44.89-.89.89c-.17,0-.35-.07-.49-.18-.23-.17-.39-.44-.39-.71,0-.44.45-.89.89-.89h0Z"/>
      <path class="cls-14" d="m43.61,16.22c.33,0,.67.33.67.67s-.33.67-.67.67c-.13,0-.26-.05-.37-.13-.17-.13-.3-.33-.3-.53,0-.33.33-.67.67-.67h0Z"/>
      <path class="cls-14" d="m43.61,16.22c.33,0,.67.33.67.67s-.33.67-.67.67c-.13,0-.26-.05-.37-.13-.17-.13-.3-.33-.3-.53,0-.33.33-.67.67-.67h0Z"/>
      <path class="cls-3" d="m43.61,16.22c.33,0,.67.33.67.67s-.33.67-.67.67c-.13,0-.26-.05-.37-.13-.17-.13-.3-.33-.3-.53,0-.33.33-.67.67-.67h0Z"/>
      <path class="cls-14" d="m37.58,17.61c.33,0,.67.33.67.67s-.33.67-.67.67c-.13,0-.26-.05-.37-.13-.17-.13-.3-.33-.3-.53,0-.33.33-.67.67-.67h0Z"/>
      <path class="cls-14" d="m37.58,17.61c.33,0,.67.33.67.67s-.33.67-.67.67c-.13,0-.26-.05-.37-.13-.17-.13-.3-.33-.3-.53,0-.33.33-.67.67-.67h0Z"/>
      <path class="cls-3" d="m37.58,17.61c.33,0,.67.33.67.67s-.33.67-.67.67c-.13,0-.26-.05-.37-.13-.17-.13-.3-.33-.3-.53,0-.33.33-.67.67-.67h0Z"/>
      <path class="cls-14" d="m31.83,16.74c.33,0,.67.33.67.67s-.33.67-.67.67c-.13,0-.26-.05-.37-.13-.17-.13-.3-.33-.3-.53,0-.33.33-.67.67-.67h0Z"/>
      <path class="cls-14" d="m31.83,16.74c.33,0,.67.33.67.67s-.33.67-.67.67c-.13,0-.26-.05-.37-.13-.17-.13-.3-.33-.3-.53,0-.33.33-.67.67-.67h0Z"/>
      <path class="cls-3" d="m31.83,16.74c.33,0,.67.33.67.67s-.33.67-.67.67c-.13,0-.26-.05-.37-.13-.17-.13-.3-.33-.3-.53,0-.33.33-.67.67-.67h0Z"/>
      <path class="cls-14" d="m49.68,17.54c.33,0,.67.33.67.67s-.33.67-.67.67c-.13,0-.26-.05-.37-.13-.17-.13-.29-.33-.29-.53,0-.33.33-.67.67-.67h0Z"/>
      <path class="cls-14" d="m49.68,17.54c.33,0,.67.33.67.67s-.33.67-.67.67c-.13,0-.26-.05-.37-.13-.17-.13-.29-.33-.29-.53,0-.33.33-.67.67-.67h0Z"/>
      <path class="cls-3" d="m49.68,17.54c.33,0,.67.33.67.67s-.33.67-.67.67c-.13,0-.26-.05-.37-.13-.17-.13-.29-.33-.29-.53,0-.33.33-.67.67-.67h0Z"/>
      <path class="cls-7" d="m55.38,16.77c.33,0,.67.33.67.67s-.33.67-.67.67c-.13,0-.26-.05-.37-.13-.17-.13-.3-.33-.3-.53,0-.33.33-.67.67-.67h0Z"/>
      <path class="cls-14" d="m46.03,14.5c.19,0,.37.19.37.38s-.19.38-.37.38c-.07,0-.15-.03-.21-.07-.1-.07-.17-.19-.17-.3,0-.19.19-.38.37-.38h0Z"/>
      <path class="cls-14" d="m46.03,14.5c.19,0,.37.19.37.38s-.19.38-.37.38c-.07,0-.15-.03-.21-.07-.1-.07-.17-.19-.17-.3,0-.19.19-.38.37-.38h0Z"/>
      <path class="cls-3" d="m46.03,14.5c.19,0,.37.19.37.38s-.19.38-.37.38c-.07,0-.15-.03-.21-.07-.1-.07-.17-.19-.17-.3,0-.19.19-.38.37-.38h0Z"/>
      <path class="cls-14" d="m41.12,14.47c.19,0,.37.19.37.38s-.19.38-.37.38c-.07,0-.15-.03-.21-.07-.1-.07-.17-.19-.17-.3,0-.19.19-.38.37-.38h0Z"/>
      <path class="cls-14" d="m41.12,14.47c.19,0,.37.19.37.38s-.19.38-.37.38c-.07,0-.15-.03-.21-.07-.1-.07-.17-.19-.17-.3,0-.19.19-.38.37-.38h0Z"/>
      <path class="cls-3" d="m41.12,14.47c.19,0,.37.19.37.38s-.19.38-.37.38c-.07,0-.15-.03-.21-.07-.1-.07-.17-.19-.17-.3,0-.19.19-.38.37-.38h0Z"/>
      <path class="cls-14" d="m35.23,14.95c.19,0,.37.19.37.38s-.19.38-.37.38c-.07,0-.15-.03-.21-.07-.1-.07-.17-.19-.17-.3,0-.19.19-.38.37-.38h0Z"/>
      <path class="cls-14" d="m35.23,14.95c.19,0,.37.19.37.38s-.19.38-.37.38c-.07,0-.15-.03-.21-.07-.1-.07-.17-.19-.17-.3,0-.19.19-.38.37-.38h0Z"/>
      <path class="cls-3" d="m35.23,14.95c.19,0,.37.19.37.38s-.19.38-.37.38c-.07,0-.15-.03-.21-.07-.1-.07-.17-.19-.17-.3,0-.19.19-.38.37-.38h0Z"/>
      <path class="cls-14" d="m52.13,15.17c.19,0,.37.19.37.38s-.19.38-.37.38c-.07,0-.14-.03-.21-.07-.1-.07-.17-.19-.17-.3,0-.19.19-.38.37-.38h0Z"/>
      <path class="cls-14" d="m52.13,15.17c.19,0,.37.19.37.38s-.19.38-.37.38c-.07,0-.14-.03-.21-.07-.1-.07-.17-.19-.17-.3,0-.19.19-.38.37-.38h0Z"/>
      <path class="cls-3" d="m52.13,15.17c.19,0,.37.19.37.38s-.19.38-.37.38c-.07,0-.14-.03-.21-.07-.1-.07-.17-.19-.17-.3,0-.19.19-.38.37-.38h0Z"/>
      <path class="cls-14" d="m43.65,14.48c.19,0,.37.19.37.38s-.19.38-.37.38c-.07,0-.15-.03-.21-.07-.1-.07-.17-.19-.17-.3,0-.19.19-.38.38-.38h0Z"/>
      <path class="cls-14" d="m43.65,14.48c.19,0,.37.19.37.38s-.19.38-.37.38c-.07,0-.15-.03-.21-.07-.1-.07-.17-.19-.17-.3,0-.19.19-.38.38-.38h0Z"/>
      <path class="cls-3" d="m43.65,14.48c.19,0,.37.19.37.38s-.19.38-.37.38c-.07,0-.15-.03-.21-.07-.1-.07-.17-.19-.17-.3,0-.19.19-.38.38-.38h0Z"/>
      <path class="cls-8" d="m42.17,28.46c-1.07.28-.9.81-.84,1,.19.52,4.73.71,4.77-.28.02-.42-.13-.48-.36-.58-.63-.26-1.43-.2-1.81-.19-.38.01-1.77.05-1.77.05h0Z"/>
      <path class="cls-8" d="m51.09,29.08c-.15-.03-.37.05-.48.16-.11.11-.3.47-.25.62.06.15.16.39.28.43.29.1,2.02.59,2.17.49.16-.1.39-.12.49-.4.13-.38.03-.47-.09-.59-.32-.34-.81-.42-1.04-.47-.23-.05-1.07-.24-1.07-.24h0Z"/>
      <path class="cls-8" d="m36.21,29.08c.15-.03.37.05.48.16s.31.47.25.62c-.06.15-.16.39-.28.43-.29.1-2.01.59-2.17.49-.16-.1-.39-.12-.49-.4-.13-.38-.03-.47.09-.59.32-.34.81-.42,1.05-.47.23-.05,1.07-.24,1.07-.24h0Z"/>
      <path class="cls-2" d="m40.56,23.79c-.16-.28-.49-.23-.64-.17-.14.06-.43.32-.43.32,0,0,.08-.86-.03-.98-.35-.38-1.02.09-1.02.09,0,0-.33-.12-.75.01-.31.1-.32.45-.22.65.13.26.42.46.42.46,0,0-.27-.13-.59-.09-.27.04-.32.2-.36.46-.12.77.46.52.46.52,0,0-.13.17-.19.4-.06.23-.03.57.29.61,1.13.12,1.36-.78,1.36-.78,0,0,.55.38,1.21.38.17,0,.5,0,.53-.4.03-.39-.39-.62-.39-.62,0,0,.23.01.35-.25.07-.16.1-.43,0-.61h0Z"/>
      <path class="cls-16" d="m38.66,24.22c.26,0,.52.26.52.52s-.26.52-.52.52c-.1,0-.2-.04-.29-.1-.13-.1-.23-.26-.23-.42,0-.26.26-.52.52-.52h0Z"/>
      <path class="cls-11" d="m38.66,24.22c.26,0,.52.26.52.52s-.26.52-.52.52c-.1,0-.2-.04-.29-.1-.13-.1-.23-.26-.23-.42,0-.26.26-.52.52-.52h0Z"/>
      <path class="cls-3" d="m38.66,24.22c.26,0,.52.26.52.52s-.26.52-.52.52c-.1,0-.2-.04-.29-.1-.13-.1-.23-.26-.23-.42,0-.26.26-.52.52-.52h0Z"/>
      <polygon class="cls-12" points="42.65 66.61 44.41 66.61 44.44 54.75 47.9 54.72 47.9 52.81 44.41 52.78 44.41 49.43 42.65 49.43 42.65 52.78 39.3 52.81 39.27 54.72 42.65 54.75 42.65 66.61 42.65 66.61"/>
    </g>
  </g>
</svg>