<?xml version="1.0" encoding="UTF-8"?>
<svg id="Layer_2" data-name="Layer 2" xmlns="http://www.w3.org/2000/svg" viewBox="0 0 306.31 425.19">
  <defs>
    <style>
      .cls-1 {
        fill: #ea2e23;
      }

      .cls-1, .cls-2 {
        fill-rule: evenodd;
      }

      .cls-1, .cls-2, .cls-3 {
        stroke-width: 0px;
      }

      .cls-2, .cls-3 {
        fill: #fff;
      }
    </style>
  </defs>
  <g id="Layer_1-2" data-name="Layer 1">
    <g>
      <path class="cls-1" d="m151.56,424.82c-21.08-4.9-42.04-13.3-61.05-23.58-19.37-10.47-38.41-23.82-53.68-39.76-9.86-10.29-17.94-21.6-24.19-34.42-8.37-17.17-12.63-35.35-12.63-54.46V7.5C0,2.48,2.96,0,7.86,0h291.43c4.44,0,7.02,2.61,7.02,7.03v263.86c0,23.67-6.46,46.86-18.65,67.15-5.48,9.12-12.02,17.59-19.54,25.12-7.21,7.24-15.19,13.66-23.38,19.74-26.72,19.86-57.59,34.06-89.92,41.9l-1.62.39-1.63-.38Z"/>
      <path class="cls-2" d="m151.76,423.96c-40.06-9.32-85.64-33.17-114.3-63.09-9.84-10.27-17.8-21.41-24.03-34.2-8.33-17.07-12.55-35.05-12.55-54.07V7.5C.88,3.11,3.3.88,7.86.88h291.43c4.05,0,6.14,2.32,6.14,6.15v263.86c0,23.52-6.41,46.53-18.52,66.7-5.45,9.07-11.93,17.46-19.41,24.96-7.18,7.2-15.13,13.6-23.29,19.66-26.62,19.79-57.38,33.93-89.61,41.75l-1.42.34-1.43-.33Z"/>
      <path class="cls-1" d="m7.04,7.04h292.23v263.85c0,22.41-6.11,44.32-17.64,63.52-5.12,8.52-11.24,16.51-18.49,23.78-6.92,6.94-14.64,13.15-22.6,19.07-23.96,17.81-53.54,32.5-87.38,40.7-36.21-8.42-81.89-30.71-111.25-61.35-9.55-9.97-17.01-20.48-22.94-32.64-7.38-15.14-11.92-32.06-11.92-51.36V7.04Z"/>
      <path class="cls-2" d="m14.23,294.37l280.38-133.05v64.73l-254.68,120.84c-6.48-7.66-11.91-15.88-16.39-25.05-4.34-8.89-7.44-18.03-9.3-27.46h0Z"/>
      <rect class="cls-3" x="12.32" y="12.32" width="281.66" height="126.49"/>
      <path class="cls-1" d="m43.39,24.69v23.83c0,.87-.07,1.56-.23,2.07-.16.5-.39.89-.7,1.12-.31.24-.7.39-1.16.46-.46.07-1,.1-1.61.09h-.85v1.34c.59,0,1.3-.01,2.13-.04.83-.03,1.72-.06,2.65-.09.94-.03,1.86-.05,2.76-.05.61,0,1.24,0,1.91.03.66.02,1.32.04,1.98.06.65.02,1.27.05,1.85.06.58.02,1.09.03,1.53.03v-1.34h-.85c-.54,0-1.03-.03-1.48-.12-.45-.08-.84-.25-1.18-.51-.33-.25-.59-.64-.77-1.15-.18-.52-.27-1.19-.27-2.05v-23.74h7.32c.75,0,1.33.16,1.76.44.44.28.77.64.98,1.09.22.44.36.91.43,1.39.07.49.12.95.14,1.37l1.34-.49c0-.6,0-1.21.01-1.81,0-.6.03-1.2.07-1.8.07-.61.14-1.21.23-1.81.08-.6.17-1.21.26-1.81l-1.07-.18c-.04.44-.16.76-.39.95-.23.2-.52.32-.88.37-.35.05-.73.07-1.14.06h-23.03c-.41,0-.78,0-1.15-.04-.36-.04-.67-.14-.94-.33-.27-.18-.46-.49-.59-.93h-1.07c0,.65-.02,1.29-.07,1.91-.05.63-.11,1.25-.2,1.88-.07.65-.16,1.28-.25,1.91-.1.63-.2,1.25-.29,1.88h1.34c.16-.81.31-1.48.46-2.01.15-.53.35-.94.61-1.24.26-.3.63-.51,1.12-.63.48-.13,1.14-.19,1.96-.18h7.32Z"/>
      <path class="cls-1" d="m72.04,53.61c.65,0,1.44,0,2.37-.03.93-.01,1.93-.04,3.02-.06,1.09-.02,2.18-.04,3.29-.06,1.12-.02,2.18-.03,3.19-.03s2.07,0,3.17.03c1.1.02,2.19.04,3.27.06,1.08.02,2.09.05,3.05.06.95.02,1.79.03,2.52.03.2-1.18.43-2.36.69-3.55.26-1.18.54-2.37.83-3.55l-1.25-.31c-.33,1.26-.74,2.26-1.23,3-.49.73-1.09,1.28-1.79,1.64-.72.35-1.56.57-2.55.68-.99.1-2.16.15-3.49.13-.72,0-1.4,0-2.05-.04-.66-.04-1.23-.14-1.74-.32-.5-.17-.91-.46-1.2-.86-.29-.4-.44-.96-.44-1.68v-10.4h5.35c.77,0,1.36.1,1.81.31.44.21.77.51.99.89.22.39.38.85.46,1.39.09.54.16,1.15.23,1.82l1.33-.27c-.09-1.7-.13-3.39-.13-5.09s.04-3.48.13-5.22h-1.33c-.08.8-.23,1.5-.44,2.09-.21.59-.56,1.04-1.04,1.35-.48.32-1.16.48-2.05.48h-5.31v-11.69h6.2c1.16,0,2.09.14,2.79.41.71.27,1.23.64,1.6,1.12.36.47.62,1.02.77,1.66.14.63.24,1.31.28,2.04l1.34-.36c-.03-.5-.06-1.04-.08-1.63-.02-.59-.04-1.19-.05-1.8,0-.62-.01-1.22,0-1.8,0-.58.02-1.12.04-1.6-.77,0-1.61,0-2.54.03-.93.02-1.9.04-2.91.06-1.01.02-2.02.05-3.04.06-1.01.02-2,.03-2.94.03s-1.92,0-2.94-.03c-1.01-.01-2.01-.04-3.01-.06-.99-.02-1.93-.04-2.81-.06-.89-.02-1.67-.03-2.36-.03v1.34h.62c.55-.01,1.07.04,1.57.14.5.11.91.34,1.24.7.32.38.49.93.5,1.69v23.38c0,.76-.18,1.32-.5,1.69-.32.37-.74.61-1.24.71-.5.11-1.02.16-1.57.14h-.62v1.34Z"/>
      <path class="cls-1" d="m117.97,24.25c.2-.02.42-.04.64-.07.22-.03.49-.05.79-.07.3-.02.68-.04,1.11-.04,1.33,0,2.48.27,3.46.81.96.53,1.72,1.28,2.25,2.25.53.98.79,2.13.8,3.46,0,1.74-.26,3.12-.79,4.14-.53,1.02-1.29,1.75-2.32,2.19-1.02.43-2.27.64-3.76.63h-2.19v-13.3Zm-5.71,25.61c0,.55-.16,1-.45,1.36-.3.36-.68.62-1.16.79-.48.18-1,.26-1.56.26h-.8v1.34c1.11,0,2.2-.04,3.27-.09,1.06-.05,2.14-.08,3.2-.09,1.27,0,2.55.04,3.84.09,1.29.05,2.57.08,3.84.09v-1.34h-.8c-.51,0-1-.01-1.43-.08-.45-.06-.84-.2-1.16-.42-.34-.22-.6-.58-.78-1.06-.19-.49-.28-1.16-.28-2.01v-9.55h2.95c1.44,2.57,2.92,5.05,4.44,7.46,1.52,2.41,3.13,4.75,4.84,7,.69,0,1.39-.04,2.1-.09.71-.05,1.41-.08,2.1-.09.74,0,1.46.04,2.19.09.72.05,1.45.08,2.19.09v-1.34c-.72-.08-1.33-.22-1.82-.39-.49-.18-.94-.45-1.32-.82-.39-.36-.78-.85-1.19-1.46l-7.63-11.42c1.19-.46,2.25-1.04,3.18-1.76.93-.72,1.66-1.57,2.2-2.59.54-1,.82-2.17.82-3.51,0-1.58-.3-2.88-.87-3.9-.57-1.02-1.34-1.82-2.33-2.4-.99-.57-2.12-.99-3.39-1.21-1.27-.23-2.61-.34-4.03-.33-.78,0-1.55.01-2.32.04-.76.03-1.54.06-2.34.09-.79.03-1.64.04-2.53.04s-1.81-.01-2.68-.04c-.88-.03-1.68-.06-2.41-.09-.73-.03-1.34-.04-1.82-.04v1.34h.8c.35,0,.72.02,1.08.07.37.06.71.2,1.03.41.31.21.57.55.77,1.01.2.46.29,1.09.3,1.91v22.66Z"/>
      <path class="cls-1" d="m154.96,42.59h10.13l1.74,5.18c.25.72.46,1.36.63,1.93.16.55.25.99.26,1.28,0,.27-.11.5-.29.67-.19.17-.42.3-.71.39-.29.09-.59.16-.91.19-.31.03-.6.04-.86.04h-.49v1.34c1.14-.04,2.27-.09,3.38-.12,1.12-.04,2.22-.06,3.31-.06s2.11.02,3.13.06c1.02.03,2.03.08,3.03.12v-1.34h-.27c-.74,0-1.34-.13-1.82-.42-.48-.29-.85-.74-1.12-1.36-.29-.67-.57-1.4-.84-2.19-.27-.78-.54-1.57-.81-2.36l-8.21-23.34c-.07-.18-.13-.36-.2-.56-.07-.19-.13-.38-.2-.56-.04-.07-.09-.1-.14-.12-.05-.01-.1-.01-.17-.01s-.12,0-.18.03c-.05.02-.11.04-.18.06-.29.19-.66.39-1.11.62-.45.24-.94.47-1.45.7-.52.23-1.02.42-1.5.59-.1.56-.23,1.16-.41,1.8-.19.65-.39,1.29-.61,1.93-.21.64-.42,1.24-.62,1.8l-7.14,20.48c-.34.95-.85,1.66-1.54,2.16-.68.49-1.46.74-2.34.74h-.27v1.34c.8-.04,1.61-.09,2.41-.12.8-.04,1.61-.06,2.41-.06.89,0,1.79.02,2.7.06.91.03,1.81.08,2.7.12v-1.34h-.49c-.37,0-.76-.01-1.15-.05-.39-.04-.75-.12-1.08-.22-.33-.11-.6-.27-.81-.48-.2-.21-.3-.48-.31-.81,0-.27.05-.57.16-.93.1-.35.22-.73.37-1.16.15-.42.3-.89.45-1.4l1.43-4.64Zm9.19-2.5h-8.34l4.15-12.63h.09l4.11,12.63Z"/>
      <path class="cls-1" d="m199.28,22.46c-.67,0-1.34.04-2.01.09-.67.05-1.34.08-2.01.09-.91,0-1.82-.03-2.72-.09-.9-.05-1.81-.08-2.72-.09v1.34h.58c.67,0,1.29.1,1.88.31.59.21,1.06.57,1.43,1.06.37.49.57,1.15.57,1.98,0,.6-.02,1.31-.06,2.13-.04.81-.1,1.71-.18,2.68-.08.97-.18,1.99-.3,3.05l-1.34,12.4c-.09.8-.19,1.5-.3,2.1-.12.59-.3,1.09-.55,1.49-.25.4-.63.71-1.14.91-.51.21-1.2.34-2.07.36h-.62v1.34c.87-.04,1.75-.09,2.63-.12.88-.04,1.76-.06,2.63-.06,1,0,2.02.02,3.03.06,1.02.03,2.03.08,3.03.12v-1.34h-.53c-.62-.01-1.18-.05-1.65-.11-.47-.06-.88-.19-1.21-.38-.29-.19-.52-.49-.68-.89-.16-.4-.25-.95-.25-1.66l1.52-19.59h.09l10.8,24.63h1.07l11.38-25.12h.09l1.25,18.83c.01.38.03.71.03.97,0,.26.02.48.02.67v.55c0,.48-.09.86-.28,1.14-.18.27-.44.47-.77.59-.34.12-.74.21-1.21.26-.47.03-1,.07-1.57.1v1.34c1.23-.04,2.45-.09,3.68-.12,1.23-.04,2.45-.06,3.68-.06,1.08,0,2.15.02,3.24.06,1.08.03,2.14.08,3.19.12v-1.34c-.88-.01-1.61-.08-2.18-.19-.56-.11-.99-.34-1.28-.68-.28-.35-.45-.89-.51-1.62l-1.7-20.44c-.05-.51-.1-1.06-.16-1.68-.05-.62-.07-1.22-.06-1.8.04-.49.2-.87.5-1.15.3-.28.67-.48,1.11-.61.44-.14.88-.22,1.34-.25.45-.04.85-.05,1.2-.05h.4v-1.34c-.78,0-1.57.04-2.37.09-.79.05-1.57.08-2.36.09-.81,0-1.6-.03-2.38-.09-.77-.05-1.5-.08-2.18-.09l-10.58,23.34-10.44-23.34Z"/>
      <path class="cls-1" d="m241.55,38.26c0,1.93.28,3.71.82,5.35.55,1.64,1.32,3.12,2.33,4.43,1,1.32,2.19,2.43,3.58,3.36,1.38.93,2.91,1.64,4.59,2.13,1.68.49,3.47.73,5.37.74,1.91,0,3.71-.26,5.41-.79,1.7-.52,3.24-1.28,4.64-2.26,1.4-.99,2.61-2.19,3.62-3.59,1.02-1.4,1.8-2.97,2.36-4.73.55-1.75.83-3.66.84-5.72,0-1.9-.3-3.65-.86-5.25-.57-1.6-1.38-3.02-2.41-4.28-1.04-1.25-2.27-2.31-3.69-3.19-1.42-.87-2.98-1.54-4.69-1.99-1.71-.46-3.52-.69-5.43-.69-1.86,0-3.62.29-5.27.82-1.66.54-3.17,1.31-4.53,2.31-1.37.99-2.54,2.17-3.54,3.53-1,1.37-1.76,2.88-2.3,4.53-.54,1.66-.82,3.41-.82,5.28h0Zm6.25-1.56c0-1.21.1-2.43.3-3.64.21-1.22.54-2.39,1.01-3.5.47-1.11,1.09-2.1,1.88-2.97.78-.87,1.74-1.56,2.89-2.06,1.14-.51,2.5-.77,4.05-.77,1.48,0,2.81.31,3.98.87,1.18.57,2.2,1.34,3.07,2.33.87.97,1.59,2.09,2.17,3.32.57,1.24,1,2.54,1.29,3.89.28,1.36.42,2.69.42,4,0,1.32-.07,2.64-.22,3.97-.16,1.34-.45,2.61-.86,3.82-.41,1.21-1,2.3-1.76,3.25-.77.95-1.75,1.7-2.95,2.25-1.2.56-2.66.83-4.38.85-1.45,0-2.75-.3-3.91-.86-1.16-.57-2.18-1.35-3.05-2.34-.87-1-1.6-2.16-2.19-3.47-.58-1.32-1.02-2.74-1.31-4.25-.29-1.52-.44-3.09-.44-4.69h0Z"/>
      <path class="cls-1" d="m72.36,72.41c-.16-1.25-.26-2.5-.31-3.74-.05-1.25-.07-2.48-.05-3.71-.83-.13-1.58-.29-2.26-.48-.68-.19-1.33-.38-1.96-.58-.62-.2-1.27-.39-1.93-.57-.67-.18-1.4-.32-2.2-.43-.8-.11-1.72-.17-2.76-.17-1.84,0-3.62.23-5.32.68-1.7.45-3.28,1.11-4.72,1.99-1.45.88-2.71,1.96-3.79,3.24-1.08,1.28-1.91,2.74-2.52,4.39-.6,1.65-.91,3.48-.91,5.48,0,2.24.29,4.25.86,6.04.57,1.79,1.37,3.34,2.41,4.67,1.04,1.34,2.29,2.45,3.73,3.33,1.44.88,3.05,1.55,4.82,1.98,1.77.44,3.66.66,5.67.66,1.37,0,2.67-.1,3.9-.28,1.23-.18,2.37-.42,3.43-.71,1.06-.31,2.02-.64,2.89-1.02.11-1.21.25-2.41.43-3.62.18-1.2.41-2.41.69-3.61l-1.25-.18c-.39,1.5-.99,2.8-1.82,3.91-.82,1.11-1.84,1.98-3.06,2.6-1.22.62-2.63.93-4.22.94-1.69,0-3.19-.29-4.51-.84-1.32-.56-2.47-1.32-3.45-2.29-.96-.97-1.77-2.09-2.4-3.37-.63-1.27-1.1-2.62-1.41-4.07-.3-1.45-.46-2.92-.46-4.42,0-1.96.23-3.77.71-5.41.48-1.65,1.18-3.08,2.12-4.3.94-1.22,2.1-2.16,3.5-2.83,1.38-.67,3-1.01,4.82-1.02,1.67,0,3.07.21,4.21.62,1.15.41,2.09.97,2.83,1.7.75.72,1.35,1.56,1.81,2.51.46.95.85,1.97,1.14,3.06l1.34-.18Z"/>
      <path class="cls-1" d="m92.64,83.52h10.13l1.74,5.18c.25.72.46,1.36.63,1.93.16.56.25.99.26,1.29,0,.28-.1.5-.29.68-.18.17-.41.3-.7.39-.29.09-.59.16-.91.19-.31.03-.6.05-.86.05h-.49v1.34c1.14-.04,2.27-.09,3.38-.12,1.12-.04,2.21-.06,3.31-.06s2.11.02,3.13.06c1.02.03,2.03.07,3.03.12v-1.34h-.27c-.73,0-1.34-.14-1.82-.43-.48-.28-.86-.74-1.12-1.36-.29-.68-.57-1.41-.84-2.2-.27-.78-.54-1.57-.81-2.36l-8.21-23.34c-.07-.18-.14-.36-.2-.56-.07-.19-.13-.38-.2-.56-.05-.07-.09-.1-.14-.12-.05-.02-.11-.02-.17-.02s-.12,0-.18.03c-.05.01-.11.04-.18.06-.29.19-.66.39-1.11.62-.45.24-.94.47-1.45.7-.52.23-1.02.43-1.5.59-.1.56-.23,1.16-.42,1.8-.18.65-.39,1.28-.61,1.93-.21.64-.42,1.24-.63,1.8l-7.14,20.48c-.34.95-.86,1.66-1.54,2.16-.68.49-1.46.75-2.34.75h-.27v1.34c.8-.04,1.61-.09,2.41-.12.8-.04,1.6-.06,2.41-.06.89,0,1.79.02,2.7.06.91.03,1.81.07,2.7.12v-1.34h-.49c-.38,0-.76-.01-1.15-.06-.39-.04-.75-.12-1.08-.22-.33-.11-.6-.27-.81-.48-.2-.21-.31-.48-.31-.81,0-.27.05-.58.16-.92.1-.35.22-.74.37-1.16.15-.43.3-.89.45-1.4l1.43-4.64Zm9.19-2.5h-8.34l4.15-12.63h.09l4.11,12.63Z"/>
      <path class="cls-1" d="m135.39,67.14c0-.59.08-1.04.24-1.37.15-.33.37-.57.64-.71.28-.15.6-.24.97-.27.36-.04.77-.05,1.19-.04h1.12v-1.34c-1.14,0-2.27.03-3.39.09-1.12.05-2.25.08-3.39.09-1.18,0-2.36-.04-3.52-.09-1.17-.05-2.34-.08-3.52-.09v1.34h.62c.55-.02,1.08.04,1.58.14.51.11.92.34,1.25.71.34.37.5.93.51,1.7v22.93c0,.68-.1,1.23-.3,1.64-.19.4-.45.7-.77.9-.32.2-.68.32-1.07.38-.39.05-.8.08-1.2.08h-.62v1.34c1.96,0,3.93-.04,5.89-.09,1.96-.05,3.93-.08,5.89-.09,1.96,0,3.93.03,5.89.09,1.97.05,3.93.08,5.89.09.27-1.27.55-2.54.84-3.79.29-1.26.56-2.52.81-3.79h-1.3c-.13.51-.3,1.04-.53,1.61-.22.57-.5,1.11-.86,1.61-.27.38-.62.73-1.05,1.07-.43.34-.92.62-1.47.86-.54.24-1.14.39-1.76.48-1.03.11-2.04.17-3.03.18-.99,0-1.95-.02-2.86-.09-.48-.05-.92-.16-1.33-.32-.4-.17-.72-.43-.97-.77-.24-.34-.37-.81-.38-1.4v-23.03Z"/>
      <path class="cls-1" d="m191.67,72.41c-.16-1.25-.26-2.5-.31-3.74-.05-1.25-.07-2.48-.04-3.71-.83-.13-1.58-.29-2.26-.48-.68-.19-1.33-.38-1.96-.58-.62-.2-1.27-.39-1.93-.57-.67-.18-1.39-.32-2.2-.43-.8-.11-1.73-.17-2.76-.17-1.85,0-3.63.23-5.33.68-1.7.45-3.28,1.11-4.72,1.99-1.45.88-2.71,1.96-3.79,3.24-1.08,1.28-1.91,2.74-2.51,4.39-.6,1.65-.91,3.48-.91,5.48,0,2.24.29,4.25.85,6.04.56,1.79,1.37,3.34,2.41,4.67,1.04,1.34,2.29,2.45,3.73,3.33,1.45.88,3.05,1.55,4.82,1.98,1.77.44,3.66.66,5.68.66,1.37,0,2.67-.1,3.89-.28,1.23-.18,2.38-.42,3.44-.71,1.05-.31,2.02-.64,2.89-1.02.11-1.21.25-2.41.42-3.62.18-1.2.41-2.41.69-3.61l-1.25-.18c-.39,1.5-.99,2.8-1.81,3.91-.82,1.11-1.84,1.98-3.07,2.6-1.22.62-2.63.93-4.22.94-1.69,0-3.19-.29-4.51-.84-1.32-.56-2.47-1.32-3.44-2.29-.97-.97-1.77-2.09-2.4-3.37-.63-1.27-1.1-2.62-1.41-4.07-.31-1.45-.46-2.92-.46-4.42,0-1.96.24-3.77.72-5.41.48-1.65,1.18-3.08,2.12-4.3.94-1.22,2.11-2.16,3.5-2.83,1.38-.67,3-1.01,4.83-1.02,1.66,0,3.06.21,4.21.62,1.15.41,2.09.97,2.84,1.7.74.72,1.34,1.56,1.81,2.51.46.95.85,1.97,1.15,3.06l1.34-.18Z"/>
      <path class="cls-1" d="m203.27,94.54c.59,0,1.25-.02,1.99-.04.75-.03,1.5-.06,2.29-.09.79-.03,1.55-.04,2.28-.04s1.53.01,2.34.04c.81.03,1.62.06,2.43.09.8.03,1.56.04,2.28.04v-1.34h-.62c-.55.01-1.07-.04-1.57-.14-.5-.11-.92-.35-1.24-.71-.32-.37-.49-.93-.5-1.69v-23.38c0-.77.18-1.32.5-1.7.32-.37.74-.6,1.24-.71.5-.1,1.02-.16,1.57-.14h.62v-1.34c-.71,0-1.46.01-2.25.04-.79.03-1.6.06-2.41.09-.81.03-1.59.05-2.34.05s-1.5-.01-2.3-.05c-.79-.03-1.56-.06-2.31-.09-.74-.03-1.41-.04-2-.04v1.34h.62c.55-.02,1.07.04,1.57.14.5.11.91.34,1.23.71.32.37.49.93.5,1.7v23.38c0,.76-.18,1.32-.5,1.69-.32.36-.74.6-1.23.71-.5.1-1.02.16-1.57.14h-.62v1.34Z"/>
      <path class="cls-1" d="m228.49,79.19c0,1.93.28,3.7.83,5.35.55,1.64,1.33,3.12,2.33,4.43,1,1.32,2.19,2.43,3.57,3.36,1.38.93,2.91,1.64,4.59,2.13,1.68.49,3.47.74,5.37.75,1.91,0,3.71-.27,5.41-.8,1.69-.52,3.24-1.28,4.64-2.26,1.4-.99,2.6-2.19,3.62-3.59,1.02-1.4,1.8-2.97,2.36-4.73.55-1.76.83-3.66.84-5.72,0-1.9-.3-3.65-.86-5.25-.57-1.6-1.38-3.02-2.42-4.27-1.04-1.25-2.27-2.31-3.69-3.19-1.42-.87-2.98-1.53-4.69-1.98-1.71-.46-3.52-.69-5.43-.69-1.86,0-3.62.28-5.27.82-1.66.54-3.17,1.31-4.53,2.3-1.37.99-2.54,2.17-3.54,3.53-1,1.37-1.76,2.88-2.3,4.53-.54,1.66-.82,3.41-.83,5.28h0Zm6.25-1.56c0-1.21.09-2.43.3-3.65.21-1.22.54-2.39,1.01-3.5.47-1.11,1.09-2.1,1.87-2.97.78-.87,1.74-1.56,2.89-2.06,1.15-.5,2.5-.77,4.06-.77,1.48,0,2.81.3,3.98.87,1.18.57,2.2,1.34,3.07,2.33.87.97,1.59,2.09,2.17,3.32.57,1.24,1,2.53,1.29,3.89.28,1.36.42,2.69.42,4,0,1.32-.07,2.64-.22,3.97-.16,1.34-.44,2.61-.86,3.82-.41,1.21-1,2.3-1.76,3.25-.76.95-1.75,1.7-2.95,2.25-1.19.56-2.65.83-4.38.85-1.44,0-2.75-.3-3.91-.85-1.16-.57-2.18-1.35-3.05-2.34-.87-1-1.6-2.16-2.19-3.47-.58-1.32-1.02-2.73-1.31-4.25-.29-1.52-.44-3.09-.44-4.69h0Z"/>
      <path class="cls-1" d="m112.69,104.66h-1c-.31.23-.69.49-1.12.78-.43.29-.9.6-1.41.94-.51.34-1.04.69-1.6,1.05-.81.53-1.62,1.02-2.43,1.48-.81.46-1.57.88-2.27,1.24l.57,1.04c.54-.25,1.09-.51,1.66-.78.56-.27,1.12-.53,1.66-.79.55-.26,1.07-.5,1.56-.73v18.05c0,.47-.1.84-.3,1.11-.19.26-.46.45-.78.57-.32.12-.68.2-1.07.22-.39.03-.79.04-1.19.03h-.79v1.08c1.09,0,2.18-.03,3.26-.07,1.08-.04,2.17-.05,3.27-.04,1,0,2.01.03,3.01.05,1.01.03,2.01.05,3.01.05v-1.08h-.82c-.44,0-.84,0-1.23-.03-.39-.02-.73-.1-1.03-.21-.3-.12-.53-.32-.71-.59-.17-.28-.25-.65-.26-1.14v-22.25Z"/>
      <path class="cls-1" d="m141.62,115.64c-.27.18-.52.34-.77.48-.25.14-.52.25-.8.33-.28.08-.62.12-1.01.12-.6,0-1.14-.13-1.63-.38-.49-.24-.93-.58-1.31-1-.38-.42-.7-.89-.96-1.43-.26-.54-.46-1.09-.59-1.67-.14-.59-.2-1.16-.2-1.72s.07-1.15.22-1.67c.14-.53.37-1,.66-1.41.3-.41.68-.74,1.15-.98.47-.23,1.02-.35,1.67-.36.62,0,1.18.16,1.67.45.49.29.91.69,1.27,1.18.36.5.66,1.05.91,1.66.25.62.45,1.25.6,1.89.15.64.26,1.26.32,1.86.07.59.1,1.12.1,1.57,0,1.56-.21,3.02-.63,4.38-.42,1.36-1.02,2.62-1.79,3.76-.77,1.14-1.69,2.16-2.76,3.06-1.06.9-2.24,1.66-3.53,2.3-1.29.63-2.67,1.12-4.13,1.47l.5.97c1.31-.2,2.64-.54,3.96-1.01,1.33-.48,2.62-1.08,3.86-1.8,1.25-.72,2.41-1.55,3.48-2.5,1.07-.95,2.02-1.99,2.82-3.12.81-1.14,1.44-2.36,1.9-3.67.46-1.3.69-2.68.7-4.12,0-1-.12-1.97-.35-2.92-.23-.94-.58-1.81-1.04-2.62-.46-.81-1.03-1.52-1.7-2.13-.68-.61-1.45-1.09-2.34-1.43-.89-.34-1.88-.52-2.97-.52-1.12,0-2.2.19-3.22.58-1.02.38-1.94.92-2.74,1.62-.8.71-1.44,1.54-1.91,2.51-.46.97-.7,2.04-.71,3.22,0,.9.13,1.75.38,2.57.25.81.63,1.54,1.14,2.19.5.64,1.14,1.15,1.9,1.52.77.38,1.66.57,2.68.57.76,0,1.49-.15,2.18-.42.69-.27,1.31-.63,1.85-1.07.54-.44.97-.91,1.27-1.42l-.11-.9Z"/>
      <path class="cls-1" d="m170.02,104.66h-1c-.31.23-.69.49-1.12.78-.43.29-.9.6-1.41.94-.51.34-1.04.69-1.6,1.05-.81.53-1.63,1.02-2.43,1.48-.8.46-1.57.88-2.27,1.24l.57,1.04c.55-.25,1.1-.51,1.66-.78.56-.27,1.12-.53,1.66-.79.55-.26,1.07-.5,1.56-.73v18.05c0,.47-.1.84-.3,1.11-.19.26-.45.45-.78.57-.32.12-.68.2-1.07.22-.39.03-.79.04-1.19.03h-.79v1.08c1.09,0,2.18-.03,3.27-.07,1.09-.04,2.17-.05,3.27-.04,1.01,0,2.01.03,3.01.05,1.01.03,2.01.05,3.02.05v-1.08h-.82c-.44,0-.84,0-1.23-.03-.39-.02-.73-.1-1.03-.21-.3-.12-.53-.32-.71-.59-.17-.28-.26-.65-.26-1.14v-22.25Z"/>
      <path class="cls-1" d="m191.1,118.34c.4-.11.87-.22,1.39-.32.53-.1,1.09-.14,1.69-.15.85,0,1.62.23,2.29.69.67.45,1.19,1.1,1.58,1.94.38.84.58,1.84.59,3.01,0,.77-.12,1.5-.37,2.18-.25.69-.61,1.29-1.07,1.82-.46.53-1.01.94-1.65,1.25-.65.3-1.36.46-2.15.46-.61,0-1.17-.11-1.69-.33-.53-.21-.98-.53-1.36-.94-.38-.42-.67-.93-.86-1.53-.1-.01-.23,0-.41.01-.17.02-.35.05-.55.1-.2.05-.38.11-.55.18-.1.04-.18.09-.27.16-.08.06-.13.13-.13.2,0,.1,0,.23.02.41.01.17.04.35.07.54.04.19.09.36.16.53.17.38.42.7.76.95.34.26.73.46,1.16.61.44.15.89.25,1.35.32.46.06.9.09,1.32.09.99,0,1.99-.15,2.99-.43,1-.28,1.95-.68,2.86-1.21.91-.54,1.72-1.17,2.43-1.91.71-.75,1.27-1.59,1.68-2.51.41-.93.62-1.94.62-3.03,0-1-.18-1.86-.54-2.58-.36-.73-.84-1.32-1.46-1.79-.62-.46-1.33-.79-2.14-.99-.8-.2-1.66-.27-2.58-.2v-.07c.71-.35,1.37-.72,1.99-1.12.62-.41,1.17-.87,1.64-1.38.47-.51.85-1.1,1.12-1.77.27-.66.41-1.43.41-2.3,0-.71-.17-1.34-.49-1.91-.32-.56-.74-1.04-1.26-1.44-.53-.39-1.11-.69-1.75-.9-.63-.2-1.27-.31-1.92-.31-.75,0-1.46.12-2.16.34-.7.23-1.35.54-1.97.93-.63.39-1.21.85-1.75,1.36-.54.52-1.03,1.06-1.47,1.64l.72.75c.37-.4.79-.76,1.24-1.08.45-.33.93-.59,1.45-.78.52-.19,1.06-.29,1.62-.29.75,0,1.4.16,1.95.49.56.32,1,.76,1.31,1.33.31.56.47,1.21.47,1.95,0,.62-.14,1.19-.4,1.72-.27.53-.62,1-1.07,1.45-.45.44-.95.83-1.52,1.19-.56.34-1.15.66-1.77.93-.61.27-1.22.5-1.81.68l.22,1.08Z"/>
      <path class="cls-1" d="m67.49,117.09c1.38,0,2.5,1.12,2.5,2.51s-1.12,2.5-2.5,2.5-2.51-1.12-2.51-2.5,1.12-2.51,2.51-2.51h0Z"/>
      <path class="cls-1" d="m238.57,117.18c1.39,0,2.51,1.12,2.51,2.5s-1.12,2.51-2.51,2.51-2.5-1.12-2.5-2.51,1.12-2.5,2.5-2.5h0Z"/>
      <path class="cls-2" d="m40.21,188.25c3.29,0,11.9,3.95,20.05,4.92-.81-7.18-4.73-15.94-4.73-19.32s2.55-6.11,6.02-6.11,6.02,2.64,6.02,6.11c0,3.19-3.73,11.4-4.83,19.34,8.18-.95,16.85-4.93,20.16-4.93,3.47,0,6.11,2.55,6.11,6.02s-2.64,6.02-6.11,6.02-12.79-4.22-20.1-4.81c1.17,7.81,4.77,15.79,4.77,18.93,0,3.47-2.55,6.02-6.02,6.02s-6.02-2.55-6.02-6.02,3.78-11.82,4.68-18.92c-7.29.62-16.5,4.8-20,4.8s-6.11-2.55-6.11-6.02,2.64-6.02,6.11-6.02h0Z"/>
      <path class="cls-2" d="m206.46,301.4c3.29,0,11.89,3.95,20.04,4.92-.8-7.17-4.73-15.94-4.73-19.32s2.55-6.11,6.02-6.11,6.02,2.64,6.02,6.11c0,3.19-3.73,11.4-4.83,19.34,8.18-.95,16.85-4.94,20.16-4.94,3.47,0,6.11,2.55,6.11,6.02s-2.64,6.02-6.11,6.02-12.79-4.21-20.1-4.81c1.17,7.81,4.77,15.79,4.77,18.93,0,3.47-2.55,6.02-6.02,6.02s-6.02-2.56-6.02-6.02,3.78-11.82,4.68-18.92c-7.29.62-16.5,4.8-20,4.8s-6.11-2.55-6.11-6.02,2.64-6.02,6.11-6.02h0Z"/>
      <path class="cls-1" d="m48.66,316.46c.61,1.26,1.17,2.45,1.69,3.56.52,1.11.97,2.11,1.37,3,.39.9.69,1.65.9,2.26.23.62.37,1.18.39,1.67.02.48-.14.87-.5,1.15-.16.13-.35.27-.59.42-.23.14-.5.3-.81.45-.24.11-.4.22-.47.33-.07.1-.08.21-.03.31.07.15.18.21.36.21.17,0,.39-.07.66-.19.41-.2.87-.43,1.36-.67.48-.25.98-.5,1.46-.75.48-.25.93-.48,1.33-.68.39-.21.72-.37.96-.48.39-.18.92-.42,1.59-.72.67-.29,1.42-.64,2.27-1.01.84-.38,1.73-.78,2.63-1.21.23-.11.4-.23.52-.36.11-.14.13-.27.07-.42-.05-.1-.14-.16-.27-.16-.14,0-.32.04-.54.15-.21.1-.44.2-.7.31-.26.1-.51.2-.77.29-.26.09-.49.16-.7.23-.43.14-.81.16-1.12.06-.32-.1-.59-.29-.84-.56-.24-.26-.48-.58-.69-.95-.35-.56-.75-1.28-1.2-2.15-.45-.88-.95-1.86-1.48-2.96-.54-1.11-1.1-2.29-1.7-3.56l-8.01-16.8,5.22-2.34c1.23-.54,2.24-.87,3.05-.97.81-.11,1.45-.06,1.91.13.46.2.79.47.98.82l.25.43c.16.29.3.48.42.59.13.09.26.09.42.02.12-.06.18-.16.17-.3,0-.13-.04-.32-.12-.53-.13-.28-.3-.64-.49-1.09-.19-.44-.4-.91-.62-1.4-.22-.49-.42-.95-.6-1.36-.18-.42-.33-.74-.44-.97-.14-.31-.26-.52-.37-.64-.1-.12-.23-.13-.37-.07-.08.04-.19.12-.35.24-.16.12-.38.29-.65.49-.28.19-.65.42-1.09.68-.43.27-.98.55-1.64.87l-16.23,7.74c-.45.21-.93.43-1.41.64-.49.21-.97.41-1.44.6-.48.18-.92.35-1.34.51-.35.12-.66.2-.92.24-.25.03-.48.04-.65.04s-.32.03-.43.07c-.13.06-.19.17-.2.33-.02.16.02.39.08.68.02.08.07.29.14.61.08.32.18.71.29,1.16.11.45.23.91.35,1.37.12.46.24.88.35,1.24.11.36.19.61.26.75.11.23.2.38.31.46.1.07.22.09.37.01.12-.06.2-.14.23-.26.03-.12.02-.27-.02-.45-.04-.18-.06-.42-.06-.71,0-.3.02-.64.08-1.05.05-.39.21-.75.45-1.06.23-.31.6-.63,1.08-.95.48-.32,1.1-.68,1.88-1.07l6.03-3.08,8.01,16.81Z"/>
      <path class="cls-1" d="m75.17,303.82c.61,1.26,1.17,2.45,1.69,3.56.52,1.11.97,2.11,1.37,3,.39.89.69,1.65.9,2.26.14.42.24.81.31,1.17.07.36.08.68.02.95-.06.28-.2.52-.45.7-.16.13-.36.27-.59.43-.23.14-.5.3-.81.44-.24.12-.4.22-.47.34-.07.1-.08.2-.03.31.07.14.18.21.36.21.17,0,.39-.07.66-.2.41-.2.86-.44,1.34-.69.49-.27.96-.51,1.44-.74.49-.26.94-.49,1.35-.68.41-.21.73-.36.97-.47.61-.29,1.25-.59,1.95-.89.69-.31,1.48-.64,2.37-1.02.89-.4,1.92-.86,3.09-1.38,1.18-.52,2.53-1.14,4.06-1.88.52-.24.91-.45,1.18-.62.27-.17.44-.36.52-.59.08-.22.07-.53,0-.92-.04-.24-.14-.58-.27-1-.13-.43-.28-.9-.45-1.39-.17-.5-.34-.96-.5-1.4-.16-.43-.3-.77-.42-1.02-.09-.21-.19-.38-.29-.5-.1-.13-.23-.15-.39-.08-.14.07-.22.16-.23.28-.01.12,0,.31.08.55.26.9.36,1.65.3,2.26-.06.62-.29,1.16-.7,1.65-.28.34-.64.64-1.07.94-.43.29-.87.55-1.32.78-.45.24-.87.44-1.23.61-1.04.5-1.9.85-2.59,1.07-.69.2-1.27.27-1.73.18-.46-.08-.86-.32-1.21-.71-.34-.39-.68-.93-1.04-1.63-.13-.24-.29-.57-.48-.98-.2-.41-.42-.86-.66-1.36-.23-.5-.47-1-.71-1.51-.23-.51-.46-.98-.67-1.42-.2-.44-.37-.8-.51-1.08l-1.55-3.24c-.06-.12-.09-.23-.09-.32s.04-.16.15-.2c.21-.1.51-.24.91-.43.4-.19.85-.39,1.34-.62.5-.23.99-.46,1.48-.68.49-.22.93-.42,1.31-.59.38-.17.66-.28.83-.34.53-.19.98-.28,1.37-.28.38,0,.71.07.98.2.28.14.51.33.7.58.19.24.35.49.49.73.13.25.27.47.38.67.05.1.12.18.2.22.09.04.2.04.35-.03.12-.07.18-.14.2-.25.01-.11,0-.22-.05-.35-.04-.13-.1-.24-.15-.35-.04-.08-.1-.23-.19-.45-.09-.22-.19-.47-.3-.76-.12-.28-.23-.57-.34-.86-.12-.28-.22-.53-.31-.75-.27-.72-.48-1.29-.63-1.73-.15-.43-.25-.76-.32-.97-.06-.22-.12-.37-.15-.45-.06-.12-.12-.19-.21-.22-.08-.02-.16-.01-.24.03-.09.05-.17.15-.22.29-.06.15-.11.33-.18.56-.09.29-.27.55-.55.79-.28.24-.65.5-1.13.76-.19.11-.51.28-.94.5-.43.21-.93.47-1.49.73-.56.27-1.11.55-1.67.81-.55.27-1.05.51-1.49.72-.43.2-.74.36-.93.45-.12.06-.22.05-.3,0-.07-.07-.14-.16-.21-.31l-4.94-10.37c-.07-.14-.1-.25-.08-.34,0-.09.07-.15.17-.2.17-.08.46-.22.85-.4.4-.18.86-.39,1.36-.61.51-.23,1.02-.46,1.53-.69.5-.22.95-.42,1.34-.58.39-.17.66-.28.82-.33.71-.24,1.29-.38,1.71-.41.43-.04.78,0,1.04.11.26.11.5.27.7.47.15.13.29.29.42.46.12.17.24.34.32.5.09.16.16.29.21.39.09.19.18.32.28.39.1.07.22.08.37,0,.14-.07.21-.17.23-.29,0-.12,0-.24-.04-.35-.04-.14-.11-.34-.21-.6-.1-.26-.21-.54-.34-.84-.11-.3-.23-.57-.32-.82-.1-.25-.17-.43-.22-.54-.25-.64-.44-1.15-.56-1.53-.12-.38-.2-.67-.25-.87-.05-.19-.09-.33-.13-.42-.05-.1-.1-.18-.17-.23-.07-.06-.15-.07-.25-.02-.1.05-.2.13-.3.22-.09.1-.19.18-.28.25-.15.12-.36.27-.65.46-.29.19-.62.39-.99.63-.13.07-.45.23-.93.46-.48.24-1.07.53-1.77.86-.69.34-1.43.69-2.21,1.06-.78.37-1.53.74-2.25,1.08-.73.34-1.36.65-1.91.91-.55.26-.93.45-1.16.55-.29.14-.66.31-1.12.5-.45.2-.95.41-1.5.65-.52.25-1.06.5-1.64.75-.58.26-1.14.52-1.7.79-.31.14-.52.27-.65.4-.12.12-.14.25-.08.4.07.14.18.21.32.21.14-.01.33-.07.55-.17.3-.14.6-.28.91-.4.31-.12.56-.2.75-.24.49-.11.9-.14,1.24-.07.34.07.63.23.89.5.25.27.5.62.74,1.07.14.25.28.52.43.79.14.28.32.62.52,1.01.19.39.43.89.72,1.48.28.59.64,1.33,1.05,2.2.42.87.92,1.93,1.51,3.17l3.44,7.21Z"/>
      <path class="cls-1" d="m104.09,290.03c.61,1.26,1.17,2.45,1.69,3.56.52,1.11.97,2.11,1.37,3,.39.89.69,1.65.9,2.26.14.42.24.81.32,1.18.07.35.08.67.02.95-.06.28-.2.51-.45.7-.17.13-.36.27-.59.42-.23.14-.5.3-.81.44-.24.12-.4.22-.47.34-.07.1-.08.2-.03.3.07.14.18.21.36.21.17,0,.39-.07.66-.2.41-.2.87-.42,1.36-.67.48-.25.97-.49,1.43-.73.48-.25.91-.46,1.28-.66.38-.2.67-.34.87-.44.16-.08.45-.21.88-.39.42-.19.92-.41,1.5-.67.58-.26,1.2-.54,1.84-.82.64-.29,1.27-.58,1.87-.87.27-.12.46-.26.57-.38.11-.14.13-.27.06-.42-.05-.1-.13-.17-.23-.18-.11-.02-.25.01-.41.09-.17.08-.37.17-.61.27-.24.09-.5.19-.75.28-.26.09-.5.17-.72.25-.43.14-.81.15-1.12.05-.31-.1-.59-.29-.84-.56-.25-.28-.49-.61-.71-.98-.35-.55-.74-1.26-1.19-2.12-.45-.87-.94-1.85-1.48-2.97-.54-1.11-1.11-2.3-1.71-3.58l-.27-.58c-.06-.12-.07-.22-.04-.3.03-.08.1-.13.21-.18l3.61-1.62c.14-.07.29-.12.43-.14.14-.02.29,0,.45.08.21.09.56.27,1.02.53.47.26,1.02.57,1.65.92.63.36,1.3.73,2,1.12.7.39,1.4.77,2.09,1.15,1.26.69,2.39,1.27,3.39,1.76,1,.48,1.93.87,2.75,1.13.83.26,1.61.42,2.34.45.44.03.88,0,1.32-.07.44-.07.94-.2,1.48-.4.55-.2,1.2-.48,1.96-.84l3.9-1.85c.25-.12.42-.24.54-.36.1-.12.12-.27.05-.42-.05-.1-.13-.16-.24-.18-.11-.02-.25,0-.41.09-.16.08-.34.16-.54.23-.2.07-.42.13-.67.2-.17.05-.41.1-.73.16-.32.05-.71.08-1.2.09-.48,0-1.05-.07-1.72-.19-.66-.12-1.42-.34-2.27-.66-1.81-.71-3.87-1.61-6.19-2.73-2.32-1.11-4.94-2.39-7.85-3.82.84-1.77,1.41-3.35,1.72-4.74.3-1.4.39-2.67.25-3.81-.13-1.14-.45-2.21-.94-3.21-.34-.69-.73-1.29-1.19-1.8-.46-.51-.95-.94-1.46-1.29-.51-.35-1.01-.62-1.5-.82-.49-.2-.93-.32-1.32-.38-.98-.14-1.94-.14-2.9,0-.95.15-1.89.38-2.81.71-.91.34-1.8.71-2.67,1.13-.33.16-.73.36-1.23.61-.5.25-1.02.52-1.58.8-.56.28-1.09.56-1.6.82-.51.26-.95.48-1.3.64-.22.11-.54.25-.95.43-.41.18-.88.38-1.4.62-.52.23-1.07.47-1.64.73-.58.25-1.14.52-1.68.78-.31.14-.52.27-.65.4-.12.12-.15.26-.08.4.07.14.18.21.32.21.14-.01.33-.07.55-.17.3-.15.6-.28.91-.4.3-.12.56-.2.75-.24.49-.12.9-.14,1.24-.07.33.07.63.23.89.5.25.26.5.62.74,1.07.14.25.28.51.43.79.14.29.32.62.52,1.01.19.4.43.9.71,1.48.29.59.64,1.33,1.06,2.2.42.88.92,1.93,1.51,3.17l3.44,7.21Zm-3-18.75c-.08-.16-.12-.3-.11-.42.01-.11.08-.22.2-.33.18-.16.44-.34.79-.54.36-.2.79-.42,1.3-.66.49-.24,1.05-.41,1.68-.53.64-.12,1.31-.13,2.03-.06.72.08,1.44.31,2.17.66.73.37,1.44.9,2.12,1.62.68.71,1.29,1.66,1.85,2.81.52,1.12.87,2.14,1.02,3.06.16.91.18,1.72.07,2.43-.11.71-.31,1.31-.58,1.81-.16.29-.33.54-.52.76-.19.22-.45.43-.77.64-.32.2-.75.43-1.29.69-.34.17-.71.32-1.09.47-.38.15-.77.27-1.14.38-.39.11-.73.18-1.07.23-.17.01-.31-.02-.41-.11-.11-.08-.21-.23-.31-.45l-5.94-12.46Z"/>
      <path class="cls-1" d="m152.67,268.33c.1-.05.2-.07.29-.05.08.01.17.06.26.15l7.42,7.13c.21.21.31.41.3.63-.01.21-.08.38-.22.49-.2.12-.32.22-.39.32-.07.1-.07.2-.01.32.07.13.22.16.46.09.24-.07.54-.18.93-.35,1.11-.5,2.17-.97,3.16-1.44,1-.46,1.89-.88,2.69-1.25.79-.37,1.44-.68,1.94-.91.5-.24.88-.44,1.14-.59.26-.15.44-.28.52-.39.07-.11.09-.22.03-.32-.07-.14-.16-.21-.27-.21-.12,0-.26.05-.42.13-.25.12-.52.23-.83.35-.31.11-.63.22-.97.31-.23.05-.52.06-.84.05-.32-.02-.71-.11-1.16-.27-.45-.17-.98-.45-1.59-.86-.61-.4-1.33-.96-2.16-1.69-.7-.63-1.52-1.37-2.47-2.23-.95-.86-1.97-1.79-3.06-2.79-1.1-1.01-2.23-2.05-3.4-3.12-1.17-1.08-2.33-2.15-3.48-3.22-1.16-1.07-2.26-2.09-3.31-3.07-1.06-.98-2.02-1.87-2.91-2.68-.87-.81-1.62-1.49-2.23-2.05-.62-.56-1.05-.96-1.32-1.18-.42-.37-.76-.62-1.01-.76-.25-.13-.46-.15-.64-.06-.2.09-.32.3-.36.63-.05.34-.05.86,0,1.56l1.98,30.65c.06.81.07,1.55.02,2.22-.05.67-.21,1.27-.47,1.79-.26.52-.68.97-1.27,1.35-.16.1-.36.22-.59.35-.23.13-.44.24-.64.34-.16.08-.28.16-.33.25-.06.09-.06.19,0,.31.07.16.19.23.35.23.15,0,.36-.07.63-.19.54-.26,1.06-.52,1.58-.78.52-.27,1-.51,1.43-.73.44-.23.82-.43,1.12-.59.31-.16.52-.27.64-.33.43-.21.9-.41,1.42-.63.52-.22,1.03-.45,1.54-.67.52-.23,1-.44,1.44-.65.23-.1.38-.22.48-.33.09-.12.1-.26.02-.41-.05-.12-.13-.19-.25-.2-.11-.01-.28.05-.53.16l-.61.29c-.62.29-1.12.38-1.47.26-.35-.12-.61-.37-.78-.75-.12-.25-.23-.63-.34-1.13-.11-.49-.19-1.05-.23-1.66l-.58-6.92c-.02-.14-.01-.24.01-.32.03-.07.1-.13.2-.18l9.14-4.36Zm-9.3,1.92c-.08.04-.15.04-.2,0-.05-.04-.09-.11-.1-.2l-1.04-11.88c-.02-.1-.02-.19-.02-.29,0-.09.03-.16.09-.19.07-.02.12,0,.19.05.06.06.13.14.19.21l8.52,8.37c.05.05.08.11.07.17-.01.07-.06.12-.16.17l-7.54,3.59Z"/>
      <path class="cls-1" d="m174.23,266.15c.16.5.29,1.02.4,1.54.1.51.12,1,.06,1.44-.07.43-.26.8-.6,1.07-.27.2-.5.35-.67.45-.17.1-.34.18-.5.25-.2.1-.36.2-.44.3-.1.1-.12.2-.08.31.09.17.22.26.39.26.17,0,.35-.05.56-.16.34-.16.69-.34,1.07-.54.38-.2.76-.39,1.13-.59.38-.2.72-.38,1.03-.54.32-.17.57-.3.77-.4.25-.12.61-.27,1.07-.47.47-.2.98-.43,1.56-.68.57-.25,1.15-.51,1.73-.79.31-.14.54-.29.68-.43.15-.14.17-.31.09-.49-.06-.1-.15-.14-.29-.13-.14,0-.29.05-.47.14-.2.1-.46.2-.76.31-.3.11-.65.21-1.06.3-.4.09-.75.09-1.08,0-.33-.09-.59-.34-.78-.72-.16-.32-.29-.63-.41-.95-.12-.31-.25-.66-.39-1.04l-5.65-17.33.16-.08c.59.48,1.23,1.01,1.93,1.59.7.57,1.41,1.15,2.12,1.74.71.58,1.39,1.13,2.02,1.65.62.52,1.16.96,1.61,1.32.45.38.75.63.91.77.18.16.48.41.91.74.43.33.93.73,1.51,1.18.58.45,1.2.92,1.84,1.43.65.5,1.29.98,1.91,1.46.62.47,1.19.91,1.72,1.3.52.39.94.71,1.26.95.62.47,1.14.83,1.54,1.09.4.26.7.36.88.28.12-.05.21-.16.27-.33.05-.18.09-.47.11-.89.02-.41.04-1.02.04-1.8l.06-22.87.16-.08,11.06,16.86c.36.53.57.95.66,1.26.09.3.08.51-.03.6-.11.13-.19.24-.24.36-.04.1-.05.2,0,.31.05.12.18.18.38.17.2-.01.55-.11,1.03-.29.29-.11.67-.27,1.15-.47.47-.2,1-.43,1.57-.68.58-.25,1.16-.51,1.76-.77.59-.27,1.16-.52,1.7-.76.54-.25,1.01-.46,1.41-.64.39-.19.68-.32.86-.4.29-.14.53-.29.7-.46.16-.16.22-.33.15-.5-.06-.12-.16-.17-.3-.14-.14.01-.3.07-.49.16-.27.14-.62.28-1.06.42-.44.15-1,.28-1.68.38-.46.07-.89,0-1.3-.2-.41-.2-.82-.55-1.25-1.05-.42-.5-.9-1.14-1.43-1.94l-15.8-23.56c-.27-.4-.51-.68-.73-.83-.22-.15-.43-.18-.61-.09-.18.08-.3.24-.35.46-.05.23-.09.54-.09.95v28.72s-22.2-17.78-22.2-17.78c-.34-.26-.62-.47-.84-.59-.21-.12-.39-.19-.52-.21-.13-.01-.25,0-.36.06-.16.08-.26.23-.29.48-.03.24,0,.54.11.92l8.68,28.66Z"/>
      <path class="cls-1" d="m229.27,242.58c.55.52,1.01.92,1.34,1.2.35.29.62.48.84.56.21.09.4.09.57,0,.19-.08.32-.25.38-.5.07-.25.1-.65.1-1.19,0-.54-.02-1.29-.05-2.24-.03-.84-.07-1.97-.11-3.41-.05-1.44-.11-3.14-.18-5.11-.07-1.97-.14-4.16-.22-6.58-.04-1.22-.07-2.32-.09-3.3-.02-.99-.04-1.9-.06-2.75-.02-.84-.04-1.65-.05-2.44-.02-.78-.04-1.57-.07-2.38-.02-.81-.06-1.67-.11-2.59-.05-1.04-.05-1.87-.02-2.5.04-.62.1-1.11.2-1.46.09-.34.19-.61.32-.8.18-.29.37-.52.59-.71.22-.19.44-.34.65-.47.21-.12.39-.21.53-.27.2-.1.36-.2.45-.31.08-.1.1-.24.03-.38-.07-.14-.19-.2-.37-.18-.18.02-.4.09-.67.22-.31.15-.65.32-1.01.51-.37.18-.72.38-1.08.57-.36.19-.69.36-.99.52-.29.16-.54.28-.71.37-.18.09-.48.21-.91.39-.43.18-.94.39-1.53.66-.59.25-1.23.54-1.92.87-.39.18-.66.34-.83.5-.16.14-.2.3-.13.46.07.13.18.19.34.17.15-.02.32-.09.51-.18.27-.13.55-.25.85-.36.3-.11.59-.18.89-.22.21-.03.4.01.55.12.16.09.27.23.35.4.09.19.16.45.22.75.06.31.1.62.13.94.04.46.09,1.16.17,2.06.07.92.14,1.98.23,3.2.08,1.23.17,2.54.27,3.93.09,1.41.18,2.83.27,4.27.09,1.45.19,2.84.28,4.2.09,1.36.18,2.6.24,3.73.08,1.13.14,2.09.2,2.86l-.16.08-15.92-15.25c-.64-.6-1.18-1.14-1.61-1.6-.43-.47-.71-.83-.84-1.1-.09-.18-.13-.36-.14-.54,0-.18.05-.35.14-.52.11-.21.3-.39.56-.56.26-.17.56-.34.9-.49.18-.09.32-.19.41-.29.08-.11.09-.24.03-.38-.08-.14-.22-.19-.43-.16-.21.03-.44.12-.69.24-.69.33-1.34.66-1.97.98-.63.32-1.21.62-1.72.89-.51.27-.94.49-1.29.66-.48.23-1.06.49-1.71.77-.66.29-1.35.59-2.08.93-.73.32-1.47.66-2.2,1.01-.32.15-.56.29-.74.43-.17.14-.22.29-.15.45.06.12.14.19.24.22.11.03.25,0,.43-.09.17-.09.4-.19.7-.31.3-.12.62-.22.98-.29.54-.11,1.04-.14,1.49-.11.44.04.91.18,1.39.45.49.27,1.06.69,1.72,1.29l22.27,20.12Z"/>
      <path class="cls-1" d="m250.95,229.58c.16.5.29,1.02.4,1.54.1.51.12,1,.06,1.44-.07.43-.27.8-.6,1.06-.27.21-.5.36-.67.46-.17.1-.34.18-.5.25-.2.1-.36.2-.45.3-.1.09-.12.2-.07.3.09.18.22.27.39.26.17,0,.35-.05.56-.16.34-.16.69-.34,1.07-.54.38-.2.76-.4,1.13-.59.38-.2.72-.38,1.03-.54.32-.16.57-.3.77-.39.25-.12.61-.28,1.07-.47.47-.19.98-.42,1.56-.67.57-.25,1.15-.51,1.73-.79.31-.14.54-.29.68-.43.15-.14.17-.31.09-.49-.06-.1-.15-.14-.29-.13-.14,0-.29.05-.46.14-.2.1-.46.2-.76.31-.3.11-.65.21-1.06.3-.39.09-.75.09-1.08,0-.33-.09-.59-.34-.78-.72-.16-.32-.29-.63-.41-.95-.12-.31-.25-.66-.39-1.04l-5.64-17.33.16-.08c.59.48,1.23,1.02,1.93,1.59.7.57,1.41,1.16,2.12,1.74.72.58,1.39,1.13,2.02,1.65.62.52,1.16.96,1.61,1.33.45.38.75.63.91.77.18.16.48.41.91.74.43.34.93.73,1.51,1.18.58.45,1.2.93,1.84,1.43.65.5,1.29.98,1.91,1.46.62.47,1.2.91,1.72,1.3.52.39.94.71,1.26.95.62.47,1.14.84,1.53,1.09.4.26.7.36.88.28.12-.05.21-.16.27-.33.05-.18.09-.47.11-.89.02-.41.04-1.02.04-1.8l.06-22.87.16-.08,11.06,16.87c.36.53.57.95.66,1.26.09.3.08.5-.03.6-.11.13-.19.24-.24.36-.04.1-.05.21,0,.31.05.13.18.18.38.18.2-.02.55-.11,1.03-.29.29-.11.67-.27,1.14-.47.47-.2,1-.42,1.57-.68.58-.25,1.16-.51,1.76-.77.59-.26,1.16-.52,1.7-.76.54-.25,1.01-.46,1.41-.64.39-.18.68-.31.86-.4.29-.14.53-.29.7-.46.16-.16.22-.33.14-.5-.05-.11-.16-.16-.3-.14-.14.01-.3.08-.49.17-.27.13-.62.28-1.06.42-.44.15-1,.27-1.68.38-.46.08-.89,0-1.3-.19-.41-.2-.82-.55-1.25-1.05-.42-.5-.9-1.14-1.43-1.94l-15.8-23.56c-.27-.4-.51-.68-.73-.83-.22-.15-.43-.18-.61-.09-.18.09-.3.24-.35.47-.05.23-.09.54-.09.94v28.72s-22.2-17.79-22.2-17.79c-.34-.26-.63-.46-.84-.59-.21-.12-.39-.2-.52-.22-.13-.01-.25,0-.36.06-.16.08-.26.23-.29.48-.04.24,0,.54.11.92l8.68,28.66Z"/>
    </g>
  </g>
</svg>