<?xml version="1.0" encoding="UTF-8"?>
<svg id="Layer_2" data-name="Layer 2" xmlns="http://www.w3.org/2000/svg" viewBox="0 0 206.66 309.62">
  <defs>
    <style>
      .cls-1, .cls-2, .cls-3, .cls-4, .cls-5, .cls-6, .cls-7, .cls-8, .cls-9, .cls-10, .cls-11, .cls-12, .cls-13, .cls-14, .cls-15, .cls-16, .cls-17, .cls-18, .cls-19, .cls-20, .cls-21, .cls-22, .cls-23, .cls-24, .cls-25, .cls-26, .cls-27, .cls-28, .cls-29, .cls-30, .cls-31, .cls-32, .cls-33, .cls-34, .cls-35, .cls-36, .cls-37, .cls-38, .cls-39, .cls-40, .cls-41, .cls-42, .cls-43, .cls-44, .cls-45, .cls-46, .cls-47, .cls-48, .cls-49, .cls-50, .cls-51, .cls-52, .cls-53, .cls-54, .cls-55, .cls-56, .cls-57, .cls-58, .cls-59, .cls-60, .cls-61, .cls-62, .cls-63, .cls-64, .cls-65, .cls-66, .cls-67, .cls-68, .cls-69, .cls-70, .cls-71, .cls-72, .cls-73, .cls-74, .cls-75, .cls-76, .cls-77, .cls-78, .cls-79, .cls-80, .cls-81, .cls-82, .cls-83, .cls-84, .cls-85, .cls-86, .cls-87, .cls-88, .cls-89, .cls-90, .cls-91, .cls-92, .cls-93, .cls-94, .cls-95, .cls-96, .cls-97, .cls-98, .cls-99, .cls-100, .cls-101, .cls-102, .cls-103, .cls-104, .cls-105, .cls-106, .cls-107, .cls-108, .cls-109, .cls-110, .cls-111, .cls-112, .cls-113, .cls-114, .cls-115, .cls-116, .cls-117, .cls-118, .cls-119, .cls-120, .cls-121, .cls-122, .cls-123, .cls-124, .cls-125, .cls-126, .cls-127, .cls-128, .cls-129, .cls-130, .cls-131, .cls-132, .cls-133, .cls-134, .cls-135, .cls-136, .cls-137, .cls-138, .cls-139, .cls-140, .cls-141, .cls-142, .cls-143, .cls-144, .cls-145, .cls-146, .cls-147, .cls-148, .cls-149, .cls-150, .cls-151, .cls-152, .cls-153, .cls-154, .cls-155, .cls-156, .cls-157, .cls-158, .cls-159, .cls-160, .cls-161, .cls-162, .cls-163, .cls-164, .cls-165, .cls-166, .cls-167, .cls-168, .cls-169, .cls-170, .cls-171, .cls-172, .cls-173, .cls-174 {
        stroke-width: 0px;
      }

      .cls-2 {
        fill: #f3e420;
      }

      .cls-3 {
        fill: #f3e520;
      }

      .cls-4 {
        fill: #f7e821;
      }

      .cls-5 {
        fill: #f6e720;
      }

      .cls-6 {
        fill: #f8e921;
      }

      .cls-7 {
        fill: #f9ea21;
      }

      .cls-8 {
        fill: #f9e921;
      }

      .cls-9 {
        fill: #4c4109;
      }

      .cls-10 {
        fill: #61620d;
      }

      .cls-11 {
        fill: #4a3908;
      }

      .cls-12 {
        fill: #4a2f06;
      }

      .cls-13 {
        fill: #493c08;
      }

      .cls-14 {
        fill: #533507;
      }

      .cls-15 {
        fill: #5e1f04;
      }

      .cls-16 {
        fill: #4d4409;
      }

      .cls-17 {
        fill: #5f5c0c;
      }

      .cls-18 {
        fill: #608f14;
      }

      .cls-19 {
        fill: #4c1002;
      }

      .cls-20 {
        fill: #7a7911;
      }

      .cls-21 {
        fill: #787610;
      }

      .cls-22 {
        fill: #791d1f;
      }

      .cls-23 {
        fill: #4d2c06;
      }

      .cls-24 {
        fill: #514409;
      }

      .cls-25 {
        fill: #50490a;
      }

      .cls-26 {
        fill: #50520b;
      }

      .cls-27 {
        fill: #502e06;
      }

      .cls-28 {
        fill: #51490a;
      }

      .cls-29 {
        fill: #266435;
      }

      .cls-30 {
        fill: #343b08;
      }

      .cls-31 {
        fill: #7c1b1f;
      }

      .cls-32 {
        fill: #7b4f0d;
      }

      .cls-33 {
        fill: #7c580c;
      }

      .cls-34 {
        fill: #2c6435;
      }

      .cls-35 {
        fill: #353d08;
      }

      .cls-36 {
        fill: #493d08;
      }

      .cls-37 {
        fill: #2a1a03;
      }

      .cls-38 {
        fill: #2b2505;
      }

      .cls-39 {
        fill: #281c04;
      }

      .cls-40 {
        fill: #292204;
      }

      .cls-41 {
        fill: #646160;
      }

      .cls-42 {
        fill: #463507;
      }

      .cls-43 {
        fill: #a1d21d;
      }

      .cls-44 {
        fill: #716f0f;
      }

      .cls-45 {
        fill: #93cece;
      }

      .cls-46 {
        fill: #382e06;
      }

      .cls-47 {
        fill: #383407;
      }

      .cls-48 {
        fill: #3a2605;
      }

      .cls-49 {
        fill: #3a3307;
      }

      .cls-50 {
        fill: #2e2305;
      }

      .cls-51 {
        fill: #342c06;
      }

      .cls-52 {
        fill: #2e2d06;
      }

      .cls-53 {
        fill: #352b06;
      }

      .cls-54 {
        fill: #2e673e;
      }

      .cls-55 {
        fill: #577777;
      }

      .cls-56 {
        fill: #573207;
      }

      .cls-57 {
        fill: #58590c;
      }

      .cls-58 {
        fill: #3c3d08;
      }

      .cls-59 {
        fill: #3c3307;
      }

      .cls-60 {
        fill: #2f5430;
      }

      .cls-61 {
        fill: #3e3707;
      }

      .cls-62 {
        fill: #0a0601;
      }

      .cls-63 {
        fill: #0a0802;
      }

      .cls-64 {
        fill: #1a1105;
      }

      .cls-65 {
        fill: #192605;
      }

      .cls-66 {
        fill: #1a4225;
      }

      .cls-67 {
        fill: #0e0000;
      }

      .cls-68 {
        fill: #362a06;
      }

      .cls-69 {
        fill: #0c0300;
      }

      .cls-70 {
        fill: #443f09;
      }

      .cls-71 {
        fill: #373e3e;
      }

      .cls-72 {
        fill: #452b06;
      }

      .cls-73 {
        fill: #1d1a04;
      }

      .cls-74 {
        fill: #1c1918;
      }

      .cls-75 {
        fill: #0f1202;
      }

      .cls-76 {
        fill: #100c02;
      }

      .cls-77 {
        fill: #0f0a01;
      }

      .cls-78 {
        fill: #090601;
      }

      .cls-79 {
        fill: #403407;
      }

      .cls-80 {
        fill: #434209;
      }

      .cls-81 {
        fill: #1b1918;
      }

      .cls-82 {
        fill: #070601;
      }

      .cls-83 {
        fill: #160c02;
      }

      .cls-84 {
        fill: #0c0a01;
      }

      .cls-85 {
        fill: #0b0a01;
      }

      .cls-86 {
        fill: #220501;
      }

      .cls-87 {
        fill: #1f1b1a;
      }

      .cls-88 {
        fill: #1f1102;
      }

      .cls-89 {
        fill: #210701;
      }

      .cls-90 {
        fill: #1e1a19;
      }

      .cls-91 {
        fill: #200701;
      }

      .cls-92 {
        fill: #140000;
      }

      .cls-93 {
        fill: #150701;
      }

      .cls-94 {
        fill: #130f02;
      }

      .cls-95 {
        fill: #171503;
      }

      .cls-96 {
        fill: #110300;
      }

      .cls-97 {
        fill: #190e04;
      }

      .cls-98 {
        fill: #171304;
      }

      .cls-99 {
        fill: #171303;
      }

      .cls-100 {
        fill: #246334;
      }

      .cls-101 {
        fill: #180b04;
      }

      .cls-102 {
        fill: #173e24;
      }

      .cls-103 {
        fill: #171002;
      }

      .cls-104 {
        fill: #246234;
      }

      .cls-105 {
        fill: #111703;
      }

      .cls-106 {
        fill: #c4c31b;
      }

      .cls-107 {
        fill: #c92429;
      }

      .cls-108 {
        fill: #d3252a;
      }

      .cls-109 {
        fill: #d4252a;
      }

      .cls-110 {
        fill: #cbc51c;
      }

      .cls-111 {
        fill: #ddd41e;
      }

      .cls-112 {
        fill: #ded61e;
      }

      .cls-113 {
        fill: #ded21d;
      }

      .cls-114 {
        fill: #cc262b;
      }

      .cls-115 {
        fill: #b22327;
      }

      .cls-116 {
        fill: #b09d15;
      }

      .cls-117 {
        fill: #af272a;
      }

      .cls-118 {
        fill: #e1d51e;
      }

      .cls-119 {
        fill: #dfd41e;
      }

      .cls-120 {
        fill: #dcd21e;
      }

      .cls-121 {
        fill: #dbd01d;
      }

      .cls-122 {
        fill: #d3c71c;
      }

      .cls-123 {
        fill: #d5252a;
      }

      .cls-124 {
        fill: #d52529;
      }

      .cls-125 {
        fill: #dfc21b;
      }

      .cls-126 {
        fill: #bdc41b;
      }

      .cls-127 {
        fill: #c02227;
      }

      .cls-128 {
        fill: #c0b81a;
      }

      .cls-129 {
        fill: #aaac18;
      }

      .cls-130 {
        fill: #b12327;
      }

      .cls-131 {
        fill: #b12226;
      }

      .cls-132 {
        fill: #ae2428;
      }

      .cls-133 {
        fill: #d7ce1d;
      }

      .cls-134 {
        fill: #cf252a;
      }

      .cls-135 {
        fill: #cf282d;
      }

      .cls-136 {
        fill: #cf3135;
      }

      .cls-137 {
        fill: #d0252a;
      }

      .cls-138 {
        fill: #d0262b;
      }

      .cls-139 {
        fill: #d0262a;
      }

      .cls-140 {
        fill: #8aae17;
      }

      .cls-141 {
        fill: #8c1e22;
      }

      .cls-142 {
        fill: #917110;
      }

      .cls-143 {
        fill: #b3b118;
      }

      .cls-144 {
        fill: #c1ac18;
      }

      .cls-145 {
        fill: #74362d;
      }

      .cls-146 {
        fill: #312b06;
      }

      .cls-147 {
        fill: #8e9314;
      }

      .cls-148 {
        fill: #bc2327;
      }

      .cls-149 {
        fill: #baa717;
      }

      .cls-150 {
        fill: #901e21;
      }

      .cls-151 {
        fill: #6c7810;
      }

      .cls-152 {
        fill: #8b8512;
      }

      .cls-153 {
        fill: #a13a31;
      }

      .cls-154 {
        fill: #932c2f;
      }

      .cls-155 {
        fill: #747272;
      }

      .cls-156 {
        fill: #989715;
      }

      .cls-157 {
        fill: #685b0c;
      }

      .cls-158 {
        fill: #fff;
      }

      .cls-159 {
        fill: #f4e520;
      }

      .cls-160 {
        fill: #f4e720;
      }

      .cls-161 {
        fill: #e4d91e;
      }

      .cls-162 {
        fill: #efe3e3;
      }

      .cls-163 {
        fill: #fbeb21;
      }

      .cls-164 {
        fill: #faea21;
      }

      .cls-165 {
        fill: #eadf1f;
      }

      .cls-166 {
        fill: #ebe01f;
      }

      .cls-167 {
        fill: #f0e120;
      }

      .cls-168 {
        fill: #f5e620;
      }

      .cls-169 {
        fill: #040201;
      }

      .cls-170 {
        fill: #040101;
      }

      .cls-171 {
        fill: #010000;
      }

      .cls-172 {
        fill: #060401;
      }

      .cls-173 {
        fill: #050401;
      }

      .cls-174 {
        fill: #020100;
      }
    </style>
  </defs>
  <g id="Ebene_1" data-name="Ebene 1">
    <g>
      <path class="cls-41" d="m0,150.03c.08,0,.16,0,.24.01,0,.6,0,1.2,0,1.81-.08,0-.16,0-.24-.01,0-.6,0-1.21,0-1.81Z"/>
      <g>
        <path class="cls-163" d="m2.68,154.21c-.07-3.79.07-8.12.32-12.45.4-7.07,1.11-14.12,2.14-21.13,2-13.52,5.19-26.75,9.79-39.63,4.78-13.36,10.94-26.04,18.98-37.76,6.16-8.97,13.24-17.11,21.64-24.06,8.27-6.85,17.39-12.18,27.66-15.44,4.5-1.43,9.1-2.41,13.8-2.88,2.74-.28,5.48-.43,8.24-.38,7.75.15,15.27,1.55,22.56,4.18,10.31,3.72,19.4,9.48,27.59,16.7,10.02,8.84,18.1,19.26,24.87,30.73,7.68,13.02,13.35,26.89,17.53,41.4,2.53,8.8,4.45,17.74,5.82,26.8.87,5.77,1.49,11.57,1.93,17.4.6,8.09.77,16.19.54,24.29-.16,5.54-.52,11.07-1.09,16.58-2.02,19.31-6.3,38.09-13.54,56.14-5.24,13.07-11.87,25.38-20.41,36.62-6.96,9.15-14.95,17.26-24.43,23.84-8.22,5.71-17.12,9.92-26.9,12.2-6.96,1.62-13.99,2.13-21.11,1.55-13.53-1.1-25.66-6-36.73-13.68-9.86-6.84-18.07-15.37-25.18-24.98-6.92-9.34-12.53-19.43-17.17-30.08-5.38-12.33-9.31-25.12-12.07-38.28-1.42-6.79-2.52-13.63-3.31-20.51-.46-4-.79-8.02-1.03-12.05-.3-4.86-.45-9.71-.42-15.13Z"/>
        <path class="cls-1" d="m104.2,309.62c-1.88,0-3.76-.08-5.64-.23-13.05-1.06-25.14-5.56-36.96-13.77-9.3-6.45-17.57-14.66-25.3-25.09-6.66-8.99-12.29-18.86-17.22-30.17-5.19-11.9-9.26-24.81-12.1-38.37-1.4-6.69-2.52-13.61-3.31-20.56-.43-3.77-.77-7.72-1.03-12.07-.31-5.17-.45-9.99-.43-15.15-.06-3.43.04-7.62.32-12.48.41-7.15,1.13-14.28,2.15-21.17,2.04-13.85,5.35-27.22,9.81-39.72,5.08-14.23,11.31-26.61,19.04-37.87,6.6-9.61,13.71-17.52,21.73-24.16,8.83-7.31,17.93-12.39,27.81-15.53,4.59-1.46,9.27-2.43,13.89-2.9,3.04-.3,5.75-.43,8.3-.38,7.73.14,15.37,1.56,22.71,4.21,9.91,3.57,18.98,9.07,27.74,16.79,9.5,8.38,17.66,18.47,24.97,30.84,7.39,12.52,13.14,26.1,17.57,41.51,2.48,8.6,4.44,17.64,5.83,26.86.84,5.53,1.47,11.23,1.93,17.44.59,7.93.77,16.12.54,24.34-.16,5.61-.53,11.2-1.1,16.61-2.14,20.41-6.58,38.82-13.57,56.27-5.6,13.96-12.3,25.98-20.47,36.73-7.5,9.86-15.52,17.69-24.53,23.95-8.58,5.96-17.68,10.08-27.06,12.27-5.12,1.19-10.35,1.79-15.62,1.79Zm0-308.68c-2.21,0-4.55.13-7.14.39-4.56.46-9.17,1.42-13.7,2.86-9.77,3.1-18.76,8.13-27.5,15.36-7.95,6.58-15,14.42-21.55,23.96-7.68,11.19-13.87,23.5-18.93,37.65-4.45,12.44-7.73,25.74-9.77,39.54-1.01,6.87-1.73,13.96-2.14,21.09-.28,4.83-.38,9.01-.32,12.41h0c-.02,5.16.11,9.96.42,15.11.26,4.34.6,8.27,1.03,12.02.79,6.92,1.9,13.81,3.3,20.47,2.83,13.5,6.88,26.35,12.04,38.19,4.9,11.24,10.5,21.05,17.11,29.98,7.66,10.35,15.86,18.48,25.07,24.88,11.68,8.11,23.62,12.56,36.5,13.6,7.06.57,14.11.05,20.97-1.54,9.26-2.16,18.26-6.24,26.74-12.13,8.93-6.2,16.88-13.97,24.32-23.74,8.13-10.68,14.78-22.63,20.35-36.51,6.96-17.37,11.38-35.69,13.51-56.02.56-5.39.93-10.96,1.09-16.54.23-8.19.05-16.35-.54-24.25-.46-6.18-1.09-11.86-1.92-17.36-1.39-9.18-3.34-18.18-5.81-26.74-4.41-15.33-10.13-28.84-17.48-41.29-7.25-12.29-15.36-22.3-24.78-30.62-8.67-7.65-17.64-13.08-27.44-16.62-7.25-2.61-14.78-4.01-22.41-4.15-.34,0-.69,0-1.04,0Z"/>
      </g>
      <path class="cls-158" d="m10.73,148.79c-.22-1.12-.08-2.25-.02-3.37.18-3.23.38-6.47.63-9.7.18-2.33.42-4.65.7-6.97.42-3.47.91-6.94,1.48-10.39.92-5.61,2.09-11.17,3.47-16.68,1.73-6.91,3.87-13.69,6.35-20.36.09-.25.2-.49.3-.73,1.03-.03,1.86.64,2.83.85,10.31,4.09,21,6.82,31.89,8.82,7.66,1.43,15.39,2.39,23.15,3.06,2.58.22,5.17.47,7.76.51,2.62.22,5.26.1,7.89.35.83.08,1.65.07,2.48.07,6.06,0,12.12.05,18.17-.22.98-.04,1.94-.32,2.92-.2,5.8-.25,11.57-.79,17.33-1.46,4.61-.54,9.2-1.16,13.77-1.95,9.17-1.57,18.22-3.63,27.13-6.3,1.58-.48,3.17-.95,4.74-1.48.72-.15,1.37-.63,2.16-.37,1.26,3.15,2.3,6.37,3.3,9.6,2.39,7.7,4.27,15.52,5.7,23.46.91,5.04,1.65,10.1,2.19,15.19.33,3.11.6,6.22.8,9.34.13,1.92.11,3.84.33,5.75.03.26-.02.53-.03.79-.56.2-1.02-.11-1.5-.31-4.3-1.77-8.64-3.4-13.06-4.85-10.36-3.43-20.92-6.04-31.68-7.88-7.5-1.29-15.04-2.28-22.62-2.93-2.85-.24-5.7-.44-8.55-.64-2.66-.28-5.34-.07-7.99-.36-1.28-.14-2.56-.04-3.84-.07-5.42-.1-10.83.09-16.24.24-1.2.03-2.39.32-3.6.19-10.31.72-20.58,1.83-30.75,3.76-5.02.8-9.96,1.99-14.87,3.26-5.76,1.49-11.42,3.28-17,5.35-4.92,1.87-9.74,3.99-14.48,6.29-.39.19-.75.54-1.25.36Z"/>
      <path class="cls-124" d="m26.21,141.96c2.96-1.21,6-2.17,9.04-3.13,7.21-2.27,14.56-4.01,21.97-5.48.29-.06.6-.04.9-.06.38.34.4.8.4,1.25,0,10.25.04,20.5-.02,30.75,0,.11-.02.22-.04.33-.11.77-.8,1.04-1.3,1.47-.8.69-1.38,1.49-1.42,2.58-.02.42-.02.9.46,1.05.43.13.49-.36.7-.59.27-.3.47-.7.97-.67.4.3.34.74.33,1.16-.71,1.24-.12,2.38.27,3.54.11,1.96.05,3.92.05,5.88,0,8.63-.05,17.26-.03,25.88.06,24.53,0,49.05.01,73.58,0,.69.31,1.53-.53,2.03-1.83-1.39-3.43-3.05-5.04-4.68-6.78-6.87-12.49-14.56-17.45-22.83-3.37-5.63-6.32-11.47-8.96-17.47-.12-.27-.3-.53-.27-.85-.29-.91-.37-1.83-.37-2.78,0-29.58,0-59.16,0-88.74,0-.75-.11-1.52.32-2.2Z"/>
      <path class="cls-124" d="m152.05,133.09c1.84.14,3.64.59,5.44.95,8.45,1.69,16.79,3.81,24.99,6.48.46.15.92.33,1.37.5.31.47.27,1.01.28,1.53,0,29.22,0,58.43,0,87.65,0,.76-.17,1.49-.31,2.23-.57,1.84-1.42,3.56-2.2,5.31-4.51,10.06-9.93,19.59-16.65,28.37-3.74,4.88-7.79,9.48-12.32,13.64-.16.15-.35.28-.53.41-.38-.29-.37-.72-.4-1.13-.03-.45-.01-.9-.01-1.36,0-30.28,0-60.56,0-90.83,0-.71-.07-1.43.13-2.14.3-.67.88-.57,1.43-.5.51.06,1.01.26,1.51-.02.05-.09.07-.19.07-.29-.45-.59-1.18-.58-1.78-.84-.52-.22-1.09-.35-1.25-1-.12-3.06-.21-6.12.05-9.18,1.08-.93,2.36-.71,3.51-.68-.81-.41-1.7-.95-2.69-1.26-.36-.12-.67-.32-.82-.7-.23-1.96-.16-3.92-.05-5.88.04-.19.11-.37.2-.54.46-.65-.22-1.13-.25-1.71-.12-1.77-.05-3.53-.06-5.3,0-7.29,0-14.58,0-21.87,0-.63-.12-1.29.33-1.84Z"/>
      <path class="cls-100" d="m152.12,184.43c-.01.45-.04.9-.04,1.35,0,31.01,0,62.02,0,93.03,0,.45.03.9.05,1.35-1.13,1.33-2.53,2.37-3.86,3.46-6.87,5.64-14.4,10.15-22.81,13.13-1.52.54-3.04,1.11-4.64,1.41-.36-.4-.31-.9-.31-1.37.01-1.37-.06-2.73.01-4.1.33-.5.86-.39,1.33-.42,2.51-.13,4.06-1.22,4.71-3.64.89-3.3.83-6.64-.11-9.92-.6-2.1-2.25-2.97-4.49-2.6-.46.07-1.05.34-1.27-.3-.2-.58-.38-1.27.4-1.66,1.46.05,2.91.02,4.37.02.37,0,.76.06,1.01-.32.24-.95.19-1.94.34-2.9.11-.75-.26-1.11-1.03-1.1-1.2,0-2.4.02-3.6-.01-.56-.01-1.14-.02-1.5-.59-.36-2.29-.21-4.58-.09-6.87.23-.69.86-.65,1.39-.71,2.01-.26,3.96-.73,5.84-1.53,1.22-.52,2.3-1.25,3.29-2.11.27-.23.77-.47.38-.99-.73-.25-1.32.21-1.93.42-1.8.63-3.42.4-4.84-.87-1.66-1.47-3.22-3.03-4.18-5.09-.13-4.24-.03-8.48-.06-12.72-.02-2.59.04-5.17-.02-7.76-.06-.66.21-1.26.42-1.85.74-2.07,1.1-4.24,1.14-6.4.03-2.05-.33-4.11-1.13-6.05-.16-.38-.33-.76-.35-1.18-.02-1.9-.17-3.81.07-5.71.69-.95,1.63-.6,2.45-.34,1.86.58,3.27,1.85,4.43,3.36,1.37,1.78,2.4,3.72,2.49,6.06.03.75.39.93,1,.48.87-.63,1.3-1.55,1.33-2.62.07-3.03-1.31-5.51-3.09-7.8-2.03-2.61-4.58-4.54-7.72-5.65-.32-.11-.63-.26-.8-.58-.13-.3-.13-.6-.03-.9.2-.46.61-.66,1.04-.81,1.53-.55,3.07-.83,4.75-.7,6.63.52,12.82,2.61,18.91,5.09.17.07.34.17.61.1-.07-.99-.61-1.72-1.36-2.3-3.76-2.92-8.07-4.66-12.66-5.76-2.9-.7-5.83-1.16-8.82-1.18-.46,0-.89-.15-1.34-.22-.28-.05-.66-.06-.7-.44-.03-.34.28-.51.53-.67,1.65-1.07,3.46-1.7,5.42-1.73,4.51-.06,8.91.82,13.31,1.68,2.61.51,4.99,1.69,7.68,2.52-.45-.95-1.08-1.6-1.67-2.28-2.04-2.33-4.81-3.28-7.67-4.06-4.44-1.21-8.93-2.17-13.55-2.27-.19,0-.38-.02-.56-.07-.35-.11-.83-.1-.97-.48-.17-.46.24-.75.52-1.04,2.18-2.36,5-3.27,8.09-3.5,3.37-.24,6.76-.36,10.13-.34,2.93.02,5.86.33,8.78.63.36.04.77.06.98.46Z"/>
      <path class="cls-124" d="m120.82,94.11c-4.09.32-8.19.4-12.29.46-5.31.08-10.61-.04-15.91-.24-1.16-.04-2.33-.15-3.49-.23-.48-.63-.32-1.38-.32-2.08,0-18.93,0-37.86,0-56.79,0-7.35,0-14.71,0-22.06,0-.56-.04-1.13.16-1.68,1.92-.68,3.93-.97,5.92-1.27,3.68-.56,7.39-.82,11.12-.7,4.9.16,9.72.85,14.46,2.09.14.04.27.12.41.19.48.63.33,1.37.33,2.07,0,15.78,0,31.56,0,47.34,0,10.28,0,20.56,0,30.84,0,.7.16,1.45-.4,2.05Z"/>
      <path class="cls-100" d="m57.98,281.51c.24-.46.12-.96.12-1.44,0-34.97,0-69.94,0-104.9,0-.49.03-.98.04-1.47.45-.74.89-1.49,1.47-2.14.21-.23.43-.46.77-.3.4.19.37.54.24.87-.21.53-.41,1.06-.51,1.61-.24,1.29.23,2.31,1.37,2.98.32.19.42.52.6.8.23.34.44.69.93.87.05-.85.16-1.66.33-2.46.22-.99.69-1.75,1.85-1.82.46-.03.84-.32,1.24-.52.94-.48,1.29-.32,1.45.72.23,1.43,0,2.86-.23,4.27-.52,3.23-1.21,6.44-1.61,9.69-.24,1.93-.61,3.86-.14,5.83.37,1.56,1.29,2.6,2.71,3.24.48.21.97.42,1.47.59,2.58.89,4.35,2.64,5.34,5.16.32.8,1.1,1.37,1.12,2.3-.05.11-.14.17-.26.19-1.4-.37-2.41-1.41-3.45-2.27-1.99-1.65-4.46-2.32-6.65-3.54-.27-.15-.61-.19-.88-.11-1.3.37-2.7.3-3.95.83-1.71.71-2.43,2.16-2.65,3.91-.05.41-.03.83-.05,1.37.64-.84,1.06-1.71,1.75-2.37.24-.23.47-.49.78-.65.18-.09.38-.14.53,0,.15.15.06.35-.04.52-.25.42-.58.79-.79,1.24-.19.41-.39.81-.38,1.28.01.46.04,1.02.53,1.14.45.11.49-.47.65-.78.31-.57.63-1.12,1.16-1.51.41-.3.83-.36,1.23.01.37.35.33.77.06,1.12-.65.84-.94,1.78-1,2.82-.06.93.27,1.65,1.09,2.16.36-.43.21-.86.22-1.25.03-.71.24-1.33.66-1.89.29-.38.66-.67,1.16-.43.54.26.46.74.26,1.17-.48,1.07-.46,2.11.06,3.16.07.14.15.25.32.27.1-.01.19-.03.28-.07.32-.4.15-.88.23-1.31.23-1.27,1.08-1.92,2.32-1.71.45.07.91.16,1.35.09,1.83-.29,3.16.59,4.43,1.74,2.29,2.07,4.57,4.15,7.07,5.98,1.83,1.34,3.7,2.62,6.08,2.75.31.02.59.14.72.47.24,2.16.16,4.31.05,6.47-.16.63-.7.83-1.22,1.06-1.87.8-3.44,2-4.78,3.51-1.81,2.03-2.44,4.32-1.79,7,.73,3.02,2.29,5.54,4.43,7.74.62.64,1.51.83,2.23,1.3.09.86,1.15,1.16,1.18,2.05.13,4.92.03,9.84.06,14.76,0,1.39,0,2.78,0,4.17,0,.49.03.98-.23,1.43-.59.58-1.34.38-2.04.4-.66.02-1.17.16-1.44.84-.44,1.13-1.34,1.71-2.51,1.83-.83.08-1.09.53-1.04,1.28.02.26,0,.53,0,.79.01,1.38,0,1.42,1.38,1.62.88.13,1.09.68,1.1,1.43.03,1.85,0,3.69.01,5.54,0,2.71,0,5.43,0,8.14,0,1.32.08,1.34,1.43,1.41,1.03.05,2.11-.3,3.08.34.33,1.89.58,3.78-.15,5.64-1.62-.17-3.13-.76-4.66-1.26-7.83-2.58-14.94-6.52-21.49-11.49-1.47-1.11-2.88-2.31-4.31-3.47-.26-.21-.54-.41-.69-.73Z"/>
      <path class="cls-100" d="m88.96,11.51c.29.45.15.96.15,1.43,0,26.6,0,53.21,0,79.81,0,.45,0,.9,0,1.36-1.73.08-3.45-.16-5.17-.28-3.63-.26-7.26-.61-10.88-1.04-4.81-.57-9.6-1.29-14.37-2.12-.22-.04-.43-.13-.65-.19-.31-.47-.25-1.01-.25-1.54,0-19.61,0-39.23,0-58.84,0-.61.05-1.2.28-1.77,2.69-2.47,5.61-4.67,8.63-6.71,6.62-4.48,13.75-7.88,21.49-9.94.25-.07.51-.11.77-.17Z"/>
      <path class="cls-100" d="m120.82,94.11c0-.49.02-.98.02-1.47,0-26.42,0-52.84,0-79.26,0-.53.03-1.05.04-1.58,5.1,1.32,9.92,3.33,14.55,5.81,5.78,3.09,11.06,6.9,15.96,11.24.25.22.48.48.72.71.34.5.34,1.07.34,1.63,0,19.27,0,38.54,0,57.81,0,.57.02,1.14-.33,1.63-2.5.57-5.04.86-7.58,1.23-4.25.62-8.52,1.11-12.79,1.5-3.3.3-6.61.51-9.92.75-.34.02-.68,0-1.01-.01Z"/>
      <path class="cls-124" d="m58.07,28.33c.01.41.04.83.04,1.24,0,19.89,0,39.78,0,59.67,0,.41-.03.83-.05,1.24-3.31-.5-6.57-1.25-9.82-2.01-7.07-1.65-14.01-3.72-20.8-6.32-.39-.15-.76-.32-1.14-.49-.25-.25-.38-.57-.37-.91.03-2.16-.27-4.33.31-6.47.34-1.28.98-2.44,1.53-3.64,3.67-7.95,7.9-15.59,12.92-22.77,4.7-6.73,10.04-12.9,16.07-18.47.42-.38.82-.78,1.31-1.07Z"/>
      <path class="cls-124" d="m152.12,90.64c-.01-.38-.04-.75-.04-1.13,0-19.57,0-39.13,0-58.7,0-.41.02-.83.04-1.24,1.02.66,1.81,1.58,2.67,2.42,7.17,7.03,13.21,14.95,18.38,23.54,4.17,6.92,7.77,14.11,10.77,21.61.18,1.44.22,2.88.18,4.32-.01.48,0,.97-.33,1.38-1.98.83-4.05,1.36-6.1,1.96-7.75,2.28-15.61,4.1-23.57,5.51-.66.12-1.33.22-2,.33Z"/>
      <path class="cls-100" d="m26.21,141.96c.02.45.07.9.07,1.35,0,30.34,0,60.68,0,91.02,0,.45-.02.9-.03,1.36-.78-1.3-1.25-2.73-1.8-4.13-4.61-11.59-7.96-23.53-10.23-35.78-1.06-5.74-1.9-11.52-2.5-17.33-.65-6.34-1.03-12.69-1.16-19.07-.06-3.13-.1-6.25.02-9.38.02-.41-.05-.83.16-1.22,4.59-2.35,9.29-4.46,14.1-6.32.46-.18.92-.33,1.38-.5Z"/>
      <path class="cls-100" d="m183.82,232.43c-.01-.49-.03-.98-.03-1.47,0-29.49,0-58.99,0-88.48,0-.49.04-.98.06-1.46,4.61,1.46,9.11,3.21,13.57,5.07.24.1.49.19.73.29.03.26.08.52.09.78.24,5.8.16,11.61-.09,17.41-.22,5.12-.64,10.23-1.21,15.32-1.49,13.37-4.21,26.47-8.26,39.3-1.31,4.17-2.8,8.28-4.42,12.34-.12.31-.3.6-.45.9Z"/>
      <path class="cls-123" d="m89.11,269.27c0-6.5,0-13,.01-19.5,0-.45.03-.9.05-1.35.45-.13.81.11,1.17.31,2.22,1.25,4.64,1.96,7.08,2.62.8.22,1.6.44,2.33.86,1.02.57,1.36,1.59.73,2.59-1.56,2.49-2.88,2.81-5.06,1.74-.3-.15-.6-.31-.93-.45.7,2.14,3.63,4.92,5.71,5.51.82.23,1.59.04,2.33-.17,2.08-.58,3.95-1.46,4.96-3.58.38-.8.82-.82,1.34-.06,2.13,3.13,5.33,3.81,8.79,3.95.72.03,1.43-.01,2.15.01.37.01.77-.05,1.02.33l.07,7.21c-.17.6-.69.49-1.11.52-.75.05-1.51.03-2.26.02-.77-.02-1.07.34-1.07,1.09,0,1.17-.12,2.32-.42,3.46-.25.29-.46.1-.67-.06-.35-.47-.41-1.05-.58-1.58-.65-1.99-2.13-3.1-4.21-3.15-.49-.01-.98-.01-1.47,0-2.42.08-4.29,1.64-4.86,3.99-.29,1.23-.25,2.47-.25,3.71,0,.59.23.93.86.93.94,0,1.89,0,2.83,0,.62,0,.88-.32.88-.92,0-.72-.01-1.43.02-2.15.03-.66.21-1.26.99-1.25.72,0,1.09.55,1.13,1.2.1,1.68-.36,3.2-1.46,4.51-.9,1.07-1.72,2.22-2.73,3.17-2.56,2.42-2.76,5.47-2.52,8.67.04.57.34.8.88.8,3.13.01,6.26,0,9.39,0,.63,0,.85-.34.86-.92.01-.71-.08-1.44.09-2.14.12-.52.39-.61.76-.18.17.2.3.44.42.67.71,1.31,1.85,2.05,3.24,2.47.35.11.76.11,1.01.44.25.28.21.62.21.96,0,1.53,0,3.06-.01,4.59-3.42.95-6.89,1.59-10.42,1.93-2.18.21-4.36.36-6.54.33-4.83-.07-9.61-.63-14.32-1.78-.14-.04-.28-.11-.42-.17.01-1.88.02-3.76.04-5.63.28-.67.33-1.37.33-2.09,0-6.42,0-12.85,0-19.27,0-.76-.07-1.49-.39-2.19Z"/>
      <path class="cls-29" d="m26.23,74.27c.02,2.46.04,4.92.06,7.38-.92-.26-1.8-.65-2.65-1.08.78-2.14,1.59-4.26,2.59-6.3Z"/>
      <path class="cls-34" d="m183.78,82.84c0-1.53,0-3.07.01-4.6,0-.37-.08-.75.14-1.1.68,1.69,1.44,3.34,1.93,5.1-.71.15-1.34.56-2.08.59Z"/>
      <path class="cls-100" d="m58.12,166.05c0-8.51-.01-17.02-.02-25.54,0-2.41,0-4.82,0-7.23,1.56-.45,3.16-.63,4.75-.9,4.78-.82,9.59-1.44,14.41-1.95,2.88-.3,5.77-.52,8.65-.75,1.01-.08,2.02-.12,3.04-.18.48.24.53.7.54,1.15,0,3.71.09,7.41-.04,11.12-.07.49-.42.76-.78,1.05-1.34,1.06-1.32,2.52.04,3.6.33.26.66.51.73.96.08,2.77.18,5.53-.05,8.3-.13.39-.48.55-.78.77-1.63,1.19-1.87,2.56-.7,4.19.45.64.1.89-.42,1.07-2.69.9-5.41,1.24-8.19.41-.48-.14-.94-.52-1.49-.23-.05.09-.09.19-.11.29.04.51.51.63.83.84,2.94,1.99,6.23,2.36,9.66,2.06.37-.03.74-.18,1.07.11.27.43.22.89.18,1.36,0,.82-1.01.83-1.19,1.5.2.11.45.14.53.4.19.12-.58.29.02.38.28.04.49.17.59.45.18,1.3.21,2.59-.02,3.88-.2.43-.62.54-1.01.64-1.5.41-2.75,1.23-3.77,2.38-.6.68-1.31,1.06-2.24,1.16-1.86.21-3.6.75-5.07,2-1.47,1.25-2.34,2.82-2.72,4.69-.03.15-.03.3-.05.45-.11.77-.31,1.62-1.12,1.8-.75.17-.95-.71-1.33-1.19-1.21-1.54-1.32-3.26-1-5.13.4-2.41.87-4.82.83-7.28-.03-1.48-.51-2.8-1.46-3.94-.6-.72-1.31-1.28-2.27-1.34-1.24-.09-2.23-.65-3.13-1.43-1.02-.88-2.08-1.1-3.31-.43-1.12.61-2.39.41-3.6.52Z"/>
      <path class="cls-100" d="m152.05,133.09c0,4.45.02,8.9.02,13.35,0,4.9,0,9.8,0,14.71,0,.45-.03.9-.04,1.36-.68.32-1.25-.1-1.83-.3-2.48-.86-5.02-1.39-7.65-1.19-4.07.31-8.05,1.07-11.94,2.35-2.87.94-5.69,1.98-8.45,3.2-.47.21-1.01.64-1.51,0-.15-.36-.15-.73-.15-1.11,0-6.08-.01-12.16,0-18.24,0-.23.01-.45.05-.67.06-.34.25-.59.52-.82,1.83-1.49,1.82-2.51-.04-4.07-.24-.2-.4-.43-.46-.74-.15-3.47-.05-6.93-.05-10.4,0-.38.07-.75.37-1.03,2.6.06,5.19.3,7.78.53,3.3.29,6.6.65,9.89,1.03,4.34.5,8.66,1.17,12.96,1.9.18.03.36.1.54.15Z"/>
      <path class="cls-1" d="m160.69,121.78v-1.22c0-8.86,0-17.72,0-26.58,0-1.19,0-1.23,1.17-1.39,1.03-.15,2.04-.5,3.15-.5v39.88c-1.4-.12-2.71-.47-4.03-.69-.48-.08-.53-.5-.69-.82-1.29-2.51-2.56-5.03-3.83-7.55-2.98-5.92-5.96-11.83-8.95-17.74-.13-.25-.16-.58-.59-.75v24.74c-1.47-.16-2.84-.31-4.2-.46-.28-.03-.39-.18-.4-.44,0-.26,0-.53,0-.79,0-10.29,0-20.59,0-30.88,0-.23.01-.45,0-.68-.03-.39.18-.54.53-.58,1.24-.14,2.47-.27,3.71-.42.41-.05.5.24.64.5.74,1.48,1.49,2.96,2.23,4.44,3.43,6.83,6.87,13.65,10.3,20.48.25.5.51.99.77,1.49.07-.01.14-.02.21-.04Z"/>
      <path class="cls-1" d="m174.96,120.63c-.78,4.34-1.56,8.62-2.35,13-1.43-.3-2.79-.59-4.14-.87-.38-.08-.44-.29-.36-.66.28-1.32.52-2.66.79-3.99,1.63-8.08,3.27-16.15,4.91-24.23.92-4.57,1.85-9.15,2.75-13.72.11-.57.4-.82.92-.95,1.39-.35,2.77-.71,4.14-1.1.53-.15.71-.04.83.51,1.1,5.38,2.24,10.76,3.36,16.13,1.77,8.47,3.54,16.94,5.31,25.41.64,3.05,1.27,6.1,1.91,9.15-.31.2-.54.03-.77-.05-1.14-.39-2.27-.81-3.42-1.15-.48-.14-.66-.4-.75-.85-.6-2.99-1.22-5.97-1.83-8.96-.47-2.29-.93-4.57-1.4-6.86-.17-.81-.18-.81-1.02-.81-2.94,0-5.88,0-8.87,0Z"/>
      <path class="cls-1" d="m105.22,118.1v-18.92c0-.26,0-.53,0-.79.01-1.22-.14-1.08,1.08-1.09.9,0,1.81,0,2.71-.03.37-.01.57.09.54.5-.02.22,0,.45,0,.68,0,9.05,0,18.09,0,27.14,0,.15-.02.31,0,.45.1.63-.21.76-.77.74-.87-.04-1.74-.07-2.6,0-.74.06-1.15-.21-1.55-.82-3.03-4.59-6.1-9.15-9.15-13.72-1.44-2.16-2.89-4.31-4.39-6.54-.25.45-.15.86-.15,1.24,0,6.3,0,12.59,0,18.89,0,.26-.01.53,0,.79.02.36-.09.56-.5.57-1.05.04-2.11.1-3.16.18-.43.03-.65-.09-.6-.56.02-.22,0-.45,0-.68,0-9.39,0-18.77,0-28.16,0-.19,0-.38,0-.57.02-.73.02-.74.76-.69.64.04,1.29.18,1.92.1,1.24-.16,1.85.47,2.48,1.43,4.15,6.33,8.36,12.62,12.56,18.93.2.3.33.67.81.93Z"/>
      <path class="cls-1" d="m61.33,94.3c4.3.85,8.59,1.12,12.85,1.65.93.12,1.86.27,2.8.37,2.58.26,4.44,2.07,4.95,5.08.47,2.71-.04,5.32-.7,7.92-.65,2.58-2.18,4.41-4.6,5.51-.5.23-1,.48-1.58.76,2.42,4.02,4.8,7.97,7.27,12.07-1.83.15-3.51.29-5.19.44-.32.03-.48-.15-.61-.39-.3-.52-.6-1.04-.9-1.57-1.85-3.23-3.71-6.46-5.54-9.71-.31-.54-.65-.81-1.31-.8-1.09.01-2.17-.1-3.26-.17-.25.4-.13.82-.13,1.22-.01,3.88,0,7.76,0,11.65,0,1.01,0,1.02-.97,1.17-1,.15-1.99.29-3.06.44v-35.64Z"/>
      <path class="cls-123" d="m120.88,129.48c-.01,3.91-.03,7.83-.04,11.74-.94.43-2.01.63-2.64,1.59-.17.25-.54.27-.84.26-1.64-.06-2.98.68-4.25,1.6-.15.11-.31.21-.47.31-.3.18-.62.32-.94.07-.35-.28-.38-.66-.17-1.02.68-1.18,1.15-2.51,2.8-2.85,1.21-.25,1.75-1.5,1.4-2.68-.3-1.04-1.44-1.71-2.48-1.45-1.14.28-1.89,1.39-1.59,2.58.21.86-.06,1.44-.64,2.01-.7.69-1.43,1.33-2.32,1.78-.66.33-1.14.21-1.52-.44-.55-.93-.79-1.95-.97-2.99-.1-.61.31-.96.72-1.32.76-.68.98-1.79.56-2.66-.41-.85-1.27-1.23-2.4-1.05-.91.14-1.51.84-1.65,1.89-.08.61.11,1.15.49,1.56.61.68.55,1.34.19,2.08-.4.81-.8,1.62-1.17,2.45-.37.82-.84.93-1.5.37-1.07-.9-1.97-1.96-2.83-3.06-.36-.46-.14-.92-.05-1.4.21-1.17-.44-2.3-1.4-2.51-1.38-.31-2.43.32-2.77,1.64-.25,1,.38,2.18,1.49,2.42.96.22,1.31.79,1.42,1.64.11.82.36,1.62.29,2.46-.07.87-.48,1.25-1.35,1.08-1.14-.22-2.27-.54-3.39-.85-.29-.08-.62-.22-.72-.5-.52-1.41-1.73-1.76-3.01-2.02,0-3.87,0-7.74,0-11.61,0-.37.04-.75-.15-1.1,4.65-.34,9.32-.46,13.98-.51,4.93-.05,9.86.08,14.78.26,1.05.04,2.1.15,3.15.22Z"/>
      <path class="cls-1" d="m41.19,90.42c2.48.51,4.88,1.02,7.28,1.48,2.48.48,4.96.91,7.44,1.35.9.16.91.15.95,1.14.03,1,.25,2.01.06,3.06-3.91-.58-7.74-1.37-11.56-2.11-.15.29-.11.56-.11.82,0,4.03,0,8.07,0,12.1,0,.98,0,.99.98.99,3.17,0,6.33,0,9.5,0,.92,0,.92,0,.93.9,0,.72,0,1.43,0,2.15,0,.82-.02.83-.89.83-2.83,0-5.66,0-8.48,0-.49,0-.98.02-1.47,0-.45-.03-.62.17-.57.59.01.11,0,.23,0,.34,0,4.64,0,9.27,0,13.91,0,.26-.06.53.13.84,3.81-.73,7.64-1.52,11.54-2.1.19,1.22-.08,2.37-.09,3.53,0,.56-.51.46-.85.52-1.96.36-3.93.67-5.89,1.06-2.7.53-5.38,1.11-8.07,1.66-.26.05-.52.08-.84.13v-43.2Z"/>
      <path class="cls-1" d="m113.95,126.95c.69-2.46,1.31-4.67,1.93-6.87,2.1-7.42,4.2-14.83,6.3-22.25.26-.94.27-.92,1.17-.97,1.24-.06,2.48-.14,3.72-.2.93-.05.93-.04,1.22.87,2.12,6.78,4.24,13.56,6.36,20.35,1.01,3.23,2.02,6.46,3.03,9.69.04.14.08.28.14.5-1.28.14-2.49-.14-3.71-.21-.49-.03-.42-.49-.51-.77-.8-2.58-1.58-5.18-2.36-7.77-.18-.61-.4-1.22-.55-1.84-.12-.49-.38-.64-.88-.63-2.75.02-5.5.03-8.25,0-.62,0-.83.22-.98.8-.71,2.77-1.47,5.52-2.21,8.28-.28,1.03-.28,1.03-1.32,1.02-.98,0-1.95,0-3.12,0Z"/>
      <path class="cls-1" d="m31.45,92.09v1.38c0,13.76,0,27.52,0,41.27,0,.23-.02.45,0,.68.06.52-.1.83-.66.95-1.09.23-2.12.7-3.23.88-.18-.46-.1-.88-.1-1.29,0-14.55,0-29.1,0-43.65,0-.26-.02-.53,0-.79.03-.45-.13-.67-.59-.8-1.01-.28-2.01-.62-3.01-.94-.97-.31-.97-.32-.79-1.28.16-.81.34-1.62.48-2.44.07-.43.21-.57.67-.41,4.03,1.34,8.11,2.54,12.24,3.56.37.09.58.25.47.71-.23.95-.41,1.91-.58,2.87-.08.47-.34.51-.73.4-1.34-.37-2.68-.72-4.17-1.12Z"/>
      <path class="cls-171" d="m58.12,166.05c.69-.33,1.42-.51,2.19-.43.52.06.95-.14,1.38-.39,1.19-.68,2.29-.55,3.33.34.31.27.64.52.98.76.43.31.89.63,1.42.65,2.74.12,3.9,1.91,4.58,4.24.34,1.15.26,2.33.12,3.48-.29,2.42-.68,4.82-1.02,7.23-.04.27.01.52.1.77.43,1.3,1.17,2.42,2.05,3.56.56-.57.9-1.12.99-1.89.37-3.05,2.06-5.17,4.79-6.5,1.13-.55,2.37-.77,3.6-.87.7-.06,1.11-.39,1.51-.84,1.35-1.51,2.99-2.5,4.99-2.88,2.77-1.25,5.46-2.72,8.49-3.35-2.95.65-5.62-1.18-8.51-.92-.48-.08-1,.17-1.48-.15.26-.47.76-.12,1-.43.24-.46.79-.39,1.14-.66.62-.46,1.14-.98,1.38-1.74.11-.35.33-.63.75-.5.42.14.38.51.32.86-.08.47-.4.86-.59,1.44.82-.45,1.27-1.01,1.54-1.74.14-.38.34-.74.81-.54.46.19.33.62.25.99-.15.64-.62,1.11-1.02,1.82.85-.29,1.13-.9,1.44-1.48.17-.31.29-.82.79-.57.39.2.29.64.24,1.02-.07.45-.47.75-.54,1.24.93-.11,1.41-.66,1.72-1.46.15-.38.23-1.05.83-.8.49.2.31.78.21,1.22-.09.4-.32.74-.57,1.11,1.7-.08,1.88-.21,2.15-1.77.08-.47.31-.71.76-.59,1.48.41,2.34-.47,3.14-1.48.07-.09.12-.19.2-.28.33-.35.58-1.14,1.18-.65.51.42,0,1-.32,1.38-.85.99-1.64,2.11-3.11,2.27-.44.05-.61.41-.76.76-.71,1.77-2.14,2.64-3.89,3.13-1.02.28-2.03.58-3.02.96-2.04.8-3.55,3.4-3.24,5.6.12.86.28,1.71.48,2.56.08.36.16.84-.3.97-.47.13-.64-.33-.74-.68-.53-1.87-.86-3.75-.15-5.66.11-.3.41-.65.1-.94-.27-.26-.65-.07-.97.02-3.36.88-5.8,3.74-6.15,7.2-.12,1.13.23,2.16.7,3.16.17.37.47.83-.02,1.1-.56.3-.77-.27-.98-.64-1-1.74-1.18-3.55-.4-5.42.14-.35.28-.7.4-1.06.15-.44.02-.62-.47-.62-2.93,0-6.04,2.68-6.71,5.84-.58,2.7,1.04,5.46,3.94,6.75.35.16.96.24.75.78-.2.52-.78.4-1.2.23-1.6-.63-2.8-1.76-3.71-3.19-.32-.51-.55-1.07-.78-1.63-3.28,2.63-3.71,6.13-1.65,9.86,1.57,2.84,4.15,4.4,7.41,4.75.67.07,1.34.2,2.02.24.29.02.66.08.65.48,0,.4-.37.45-.66.48-1.68.17-3.31-.07-4.88-.69-.84-.33-1.67-.7-2.38-1.28-.12-.1-.24-.22-.35-.34-.08-.07-.17-.13-.25-.2-.49-.5-.99-.98-1.53-1.43-2.6-2.79-3.35-8.24-.6-11.33.36-.41.32-.8.02-1.22-.3-.43-.59-.87-.87-1.32-.74-1.16-.99-2.42-.77-3.78.4-2.49.75-4.98.97-7.49.15-1.76-.37-3.35-1.63-4.64-.43-.44-.94-.77-1.57-.82-1.35-.09-2.44-.71-3.42-1.57-.91-.8-1.86-.93-2.87-.21-.08.08-.17.14-.27.2-.36.17-.73.07-1.11.04-1.85-.19-3.72,1.17-4.22,3.23,1.25-1.13,2.34-2.33,4.11-1.98.15.06.27.15.33.31-.01.27-.34.34-.39.6-.01.19,0,.39-.11.57-1.5,1.64-1.53,1.69-1.68,2.8.68-.55.94-1.5,1.87-1.7.17.01.3.1.41.23.16.28.34.56.46.86.05.16.05.32.03.49-.47,1.15-.74,2.32-.51,3.51.14-.78.19-1.65.82-2.32.22-.1.43-.06.64.03.1.05.19.12.26.2.02.05.04.1.06.15,0,.05,0,.11,0,.16-.02.21-.05.42-.06.63-.1.96-.44,1.92.06,2.98.3-1.44.28-2.99,1.96-3.55.1-.02.21-.03.32-.03.28.04.53-.03.77-.16,2.05-1.26,2.6-1,2.92,1.42.15,1.13-.09,2.25-.25,3.36-.53,3.69-1.35,7.33-1.79,11.03-.17,1.43-.17,2.86-.05,4.28.12,1.4.86,2.44,2.15,3.1,1.3.67,2.77,1.01,3.94,1.93.6.49,1.16,1,1.69,1.57.09.07.17.14.23.23.11.13.22.25.33.38.64.81.99,1.77,1.48,2.67,1.06,1.96,2.76,2.79,4.98,2.53,2.16-.25,4.17-1.01,6.17-1.79.49-.19.86-.44.76-1.08-.09-.6-.33-.93-.99-.99-2.94-.26-4.88-2.82-5.1-5.86-.22-3.07,1.14-5.55,2.88-7.88,2.43-3.25,5.76-5.4,9.24-7.32,9.65-5.32,19.97-8.81,30.76-10.97.99-.2,1.82-.6,2.62-1.21,4.21-3.23,8.88-5.44,14.21-5.92,2.58-.24,5.19-.17,7.79.01.46.16.95.12,1.41.23.42.27,1.17-.12,1.33.66,0,.13-.1.18-.21.21-.97.26-1.95.1-2.91.03-4.04-.31-8.04-.3-11.96.96-2.64.85-5.06,2.13-7.39,3.59-.4.25-.77.55-1.19.83,3.8-.65,7.64-.51,11.47-.65,3.68-.14,7.37.07,10.97,1.01.37.1.71.24.97.54,1.36.5,2.73.99,4,2.03-1.4.09-2.68.17-3.96.25-1.23.36-2.51.31-3.77.31-4.64,0-9.26.14-13.84.93-3.62.62-7.02,1.77-9.74,4.4-.29.28-.67.48-.79,1.02.77.09,1.52.11,2.24.03,4.33-.48,8.64.05,12.97.18,3.97.13,7.75,1.03,11.52,2.14.51.15,1.03.27,1.37.72.88.31,1.76.62,2.65.92.33.11.67.21.55.68-.33.22-.61-.04-.91-.1-1.74-.17-3.35-.88-5.01-1.36-3.86-1.12-7.78-1.67-11.79-1.89-3.81-.21-7.61-.1-11.41-.16-1.43-.02-2.83.15-4.2.7-1.23.5-2.61.21-3.92.34-4.49.46-8.84,1.46-13.09,2.96-.53.19-1.06.41-1.63.42-.27-.03-.52-.1-.62-.39.03-.54.49-.62.86-.76,5.32-2.01,10.78-3.4,16.51-3.46.8,0,1.5-.14,2.01-.8,3.33-4.33,7.96-6.15,13.17-6.88,3.48-.49,6.96-.8,10.48-.7,2.41.07,4.81-.45,7.23-.23-2.01-.82-4.12-1.21-6.25-1.4-13.43-1.15-26.36,1.07-38.9,5.86-5.22,1.99-10.34,4.21-15.11,7.14-3.31,2.03-6.26,4.49-8.2,7.93-1.39,2.46-1.83,5.03-.39,7.65.68,1.25,1.73,1.97,3.19,2,1.22.02,1.64-.62,1.15-1.75-.23-.52-.63-.94-.9-1.43-.67-1.2-.56-2.37.29-3.15.31.03.42.24.48.5-.14,1.14.16,2.12.93,3.02.69.81.76,1.85.38,2.79-.97,2.39.32,3.74,2.45,4.61,1,.41,1.65.49,2.51.43-1.26-3.69.31-6.6,2.68-9.21,4.51-4.95,10.36-7.21,16.81-8.23,2.25-.36,4.51-.3,6.76-.2.97.04,1.63-.24,2.28-.91,2.07-2.14,4.51-3.63,7.53-4.01,1.08-.14,2.18-.3,3.26-.29,2.53.02,5.04-.36,7.56-.26,4.28.18,8.57.35,12.8,1.09.33.13.71.13,1,.36-.03.42-.31.46-.64.43-.82-.08-1.64-.15-2.46-.23-1.4-.32-2.83-.31-4.25-.45-1.72-.16-3.44-.37-5.16-.33-1.19.03-2.39-.11-3.57.05-.22.03-.45.05-.68.04-2.1-.07-4.2.14-6.29.26-3.36.19-6.29,1.38-8.53,4.16.45.23.92.3,1.38.31,4.12.05,8.13.87,12.11,1.85,1.46.36,2.9.8,4.33,1.27,3.23,1.06,5.53,3.23,7.23,6.2-.35.14-.61-.02-.86-.11-1.2-.43-2.42-.84-3.6-1.33-2.53-1.04-5.21-1.45-7.86-1.93-2.18-.4-4.38-.66-6.58-.86-2.28-.21-4.52-.1-6.63.88-.67.31-1.29.72-1.88,1.28.69.08,1.37.2,2.06.22,6.01.25,11.75,1.56,17.14,4.28,1.25.63,2.42,1.38,3.59,2.14,1.33.86,2.21,2.02,2.46,3.69-.45,0-.84-.2-1.24-.36-3.79-1.57-7.64-2.96-11.65-3.91-2.23-.53-4.48-.88-6.77-1.12-1.66-.17-3.21-.01-4.76.51-.46.16-.93.32-1.28.68-.29.3-.35.59.02.88,1.74.63,3.42,1.37,4.92,2.48,3.36,2.51,5.81,5.65,6.76,9.81.3,1.32.23,2.62-.55,3.8-.38.59-.86,1.05-1.6,1.12-.4.04-.65-.09-.65-.55-.01-3.33-1.66-5.88-4-8.03-1.36-1.25-2.93-2.13-4.9-1.78-.05.05-.1.11-.17.14-1.76.94-1.87,1.26-.99,3.1.43.9.95,1.77,1.17,2.76.43,1.23.93,2.44,1.18,3.73.54,2.8.36,5.56-.34,8.3-.28,1.09-.64,2.15-.97,3.22.05.62-.16,1.17-.39,1.73-2.57,6.13-7.27,9.92-13.39,12.13-.28.1-.59.13-.87.38.45.34.98.45,1.47.46,2.66.07,5.29-.05,7.3-2.19.53-.56.85-1.23,1.13-1.93.15-.38.23-.96.91-.67.15.19.19.42.19.65-.58,3.07-2.88,4.28-5.54,4.95-2.26.57-4.56.73-6.67-.63-.42-.27-.85-.25-1.3-.07-.7.28-1.43.49-2.15.69-.31.09-.76.09-.84.47-.08.38.32.57.57.77,2.14,1.67,4.39,3.19,6.74,4.55,4.66,2.7,9.52,4.9,14.8,6.09.49.11,1.4.03,1.23.81-.18.87-1.02.38-1.53.26-5.28-1.16-10.17-3.31-14.82-6.02-2.8-1.64-5.54-3.37-8.01-5.5-.58-.51-1.18-.61-1.88-.41-2.14.61-4.33.49-6.52.48-.61,0-1.2-.13-1.78-.29-.21-.07-.42-.16-.61-.27-.19-.1-.32-.28-.49-.41-.92-.14-1.73-.53-2.37-1.19-2.18-2.21-3.75-4.77-4.5-7.83-.72-2.94.04-5.4,2.07-7.56,1.44-1.53,3.1-2.73,5.07-3.49.21-.08.41-.2.61-.3,1.14-.89,2.54-.86,3.86-1.09,1.79-.31,3.55-.08,5.24.48,2.48.82,3.86,2.91,3.93,5.73,0,.33-.14.77.19.95.4.22.71-.16.97-.4,1.62-1.55,2.58-3.41,2.54-5.71-.02-1.05-.49-1.87-1.37-2.47-.89-.6-1.86-.99-2.88-1.28-1.34-.38-2.69-.76-3.94-1.39-2.37-1.2-3.32-3.11-2.92-5.76.08-.56.24-1.1.33-1.77-.78.61-1.51,1.14-2.23,1.68-.46.35-.6.82-.68,1.37-.14,1.11-.73,1.97-1.7,2.53-.39.22-.8.45-1.27.15-2.5.13-4.47-1.15-6.37-2.5-2.04-1.46-3.95-3.11-5.8-4.8-1.02-.94-2.1-1.81-3.17-2.7-.35-.29-.76-.45-1.24-.46-1.12-.02-2.24.09-3.36-.18-.7-.17-1.47.68-1.55,1.59-.04.41.01.83-.03,1.24-.03.3-.18.51-.53.28-.41-1.55-.31-2.92,1.31-3.77.24-.09.48-.11.73-.11.18,0,.35.02.53.05.77.23,1.57.23,2.35.17,1.13-.08,2.04.33,2.89,1.03,2.32,1.92,4.5,4.01,6.87,5.87,1.57,1.23,3.17,2.43,5.08,3.12,2.45.88,3.72.19,4.26-2.35.15-.69.54-1.13,1.06-1.53,1.36-1.01,2.73-2.01,3.98-3.16.93-.86,1.04-2.62.28-3.57-.36-.45-.8-.67-1.37-.64-1.96.1-3.73-.47-5.31-1.58-.6-.42-.89-.24-1.25.32-.95,1.49-1.95,2.96-3.23,4.2-1.06,1.02-1.97,1.17-3.29.53-1.19-.57-2.26-1.36-3.32-2.14-2.55-1.87-5.05-3.8-7.62-5.66-1.62-1.17-3.64-1.41-5.28-2.51-.33-.22-.82-.27-1,.32-.07.16-.2.24-.37.27-.56-.01-1.12-.1-1.68-.08-1.63.07-2.71,1.02-3.42,3.13,1-1.63,2.32-2.3,4.04-2.13.41.04.81-.13,1.23-.12.11.02.22.05.31.11.08.09.11.19.1.31-.19.4-.6.47-.95.62-1.55.52-2.72,1.4-3.08,3.39.83-.99,1.18-2.16,2.47-2.24.4-.02.8-.03,1.12.27.15.18.23.39.31.61.04.11.06.22.07.33.01.17,0,.33-.05.49-.47.84-1.1,1.6-1.21,2.61-.04.4-.09.8.13,1.26.42-1.65,1.1-3.01,2.87-3.41.16.02.29.09.36.25-.05.56.31.56.7.49.17.06.24.19.25.36-.02.23-.14.43-.29.59-.98,1.07-1.2,2.28-.73,3.64.07.21.15.43.09.66-.29.38-.53.22-.68-.1-.47-1.09-.81-2.2-.24-3.37.08-.17.16-.34.24-.51.12-.22.14-.43-.08-.61-.24-.2-.5-.18-.71.03-.56.55-.89,1.21-.9,2,0,.59,0,1.18,0,1.82-1.5-.57-2-1.46-1.85-2.88.1-1,.33-1.92,1.01-2.69.27-.3.43-.64.02-.97-.39-.31-.69-.11-.99.16-.61.55-.92,1.28-1.25,1.99-.34.71-.6.76-1.07.16-.52-.66-.49-1.39-.21-2.14.29-.76.72-1.44,1.26-2.05-1.48.8-2.16,2.28-3.16,3.8-.15-2.06-.11-3.78,1.13-5.24.89-1.04,2.05-1.51,3.37-1.59.49-.03.95-.09,1.42-.3.8-.35,1.61-.31,2.37.19.38.25.75.57,1.17.66,2.44.57,4.26,2.2,6.23,3.56.71.49,1.4,1.02,2.09,1.53.54.29,1.01.67,1.52,1.01,1.5.78,2.71,2.01,4.21,2.8,1.5.78,1.61.75,2.82-.39,1.13-1.07,1.94-2.37,2.84-3.62.08-.07.16-.14.26-.18-.16-.03-.23.13-.35.19-2.16,1.05-4.42,1.72-6.82,1.84-.94.05-1.88-.07-2.74-.54-.55-.3-1.06-.63-1.47-1.11-.59-.96-1.19-1.9-1.66-2.94-.96-2.13-2.62-3.54-4.83-4.3-.43-.15-.84-.32-1.26-.49-2.22-.86-3.25-2.56-3.36-4.87-.1-2.07.23-4.12.55-6.16.52-3.29,1.15-6.57,1.64-9.87.16-1.1.24-2.25-.24-3.33-.41-.07-.62.25-.91.4-.36.19-.76.53-1.11.5-.51-.05-.9.06-1.21.4-.33.36-.48.83-.56,1.33-.16.95-.22,1.91-.25,3.05-.72-.56-1.27-1.02-1.63-1.71-.07-.14-.03-.99-.53-.22-.12-.09-.25-.17-.34-.28-1.21-1.41-1.34-2.96-.6-4.63.12-.28.53-.66.18-.89-.48-.32-.58.32-.78.56-.37.42-.64.92-.94,1.4-.13.21-.26.37-.53.28-.81-1.02-.75-2.07-.13-3.14.07-.57.36-1.02.76-1.47-.39.06-.68.33-1.04.37-.36.44-.71.86-.98,1.37-.32.6-.51.6-.97.09-.59-.65-.48-1.4-.23-2.12.33-.95.99-1.67,1.81-2.25.25-.17.5-.33.75-.5Z"/>
      <path class="cls-60" d="m57.75,169.46c.4-.54.96-.75,1.74-.9-.56.76-1.01,1.38-1.46,2-.14-.36.11-.81-.27-1.1Z"/>
      <path class="cls-100" d="m152.06,182.38c-2.74-.79-5.47-1.64-8.29-2.11-1.07-.18-2.15-.29-3.24-.38-2.25-.17-4.5-.26-6.74-.38-2.25-.13-4.51-.15-6.77.08-1.22.13-2.47.02-3.78.02.56-1.19,1.62-1.86,2.56-2.62,2.15-1.76,4.73-2.58,7.39-3.18,2.24-.5,4.52-.71,6.8-.91,2.76-.25,5.53-.25,8.31-.24,1.27,0,2.54-.31,3.81,0-.01,3.24-.03,6.49-.04,9.73Z"/>
      <path class="cls-174" d="m152.32,163.84c-.16-.25-.42-.23-.67-.24-.25,0-.51.03-.69-.19.27-.38.62-.16,1.01-.11.08.01-.02-.18-.07-.13-.23.17-.46-.05-.71-.05-3.21-1.31-6.55-1.74-9.98-1.43-3.5.32-6.92,1.13-10.27,2.17-5.67,1.76-11.02,4.31-16.36,6.86-1.16.55-2.32,1.09-3.54,1.5-.43.14-.86.27-1.32.27-.54,0-1.1-.04-1.37-.59-.27-.55.12-.95.48-1.28.61-.56.73-1.15.42-1.92-.23-.55-.36-1.15-.55-1.72-.08-.23-.21-.54.12-.69.28-.12.5.07.7.25.31.3.45.69.57,1.09.1.32.22.58.63.38.19-.12.36-.24.55-.35.16-.1.4-.19.42-.35.24-1.6,1.5-2.84,1.57-4.5.03-.81-.22-1.47-.77-2.03-.5-.51-.34-.86.29-1.06.81-.25,1.55-.49,1.66-1.55.06-.52.72-.42,1.12-.61.57-.27,1.41-.3,1.22-1.3-.05-.22-.1-.45,0-.67.28-.59,1-.94,1.02-1.74-.43-.14-.73.14-1.03.3-2.5,1.32-5.08,1.74-7.86.92-1.96-.58-3.92-.66-5.81.4-.79.44-1.71.6-2.63.53-1.17-.09-2.22.21-3.24.77-.89.49-1.82.91-2.74,1.33-1.17.52-2.11.42-3.07-.51-1.27-1.23-2.41-1.07-3.29.3-.36.57-.56,1.18-.16,1.8.42.66,1.04,1,1.83.81,1.47-.37,2.97-.49,4.46-.69,1.4-.2,2.79-.08,4.14.26,1.49.37,2.09,1.74,1.34,2.94-.34.55-.78.94-1.5.63-.1-.04-.25-.13-.32-.08-1.21.74-2.56-.03-3.8.37-.37.12-.74.12-1.11.05-1.54-.27-2.22.26-2.36,1.79-.14,1.57-.9,2.31-2.51,2.43-.14.01-.34.08-.41.02-.16-.15-.09-.35.08-.46.46-.29,1.01-.43,1.41-.84.17-.57.77-1.15-.03-1.7-2.87.55-5.67.3-8.41-.68-1.15-.41-2.16-1.07-3.13-1.78-.26-.19-.6-.44-.17-.8.24.02.41.21.64.27,2.71,1.62,5.59,2.61,8.8,2.46,1.6-.08,3.06-.46,4.04-1.88.34-.5.78-.56,1.28-.31.85.41,1.65.51,2.38-.25.31-.33.62-.17.88.09.53.52,1.09.51,1.6.01.49-.48.99-.44,1.7-.04-.04-.98-.61-1.22-1.24-1.25-1.54-.08-3.09-.15-4.63.06-1.91.25-3.76.79-5.61,1.32-2.68.76-5.37,1.26-8.11.28-.39-.14-.78-.28-1.12-.52-.22-.06-.39-.24-.61-.3.21-.63.63-.49,1.09-.31,1.49.56,3.02.79,4.63.73,1.67-.06,3.22-.54,4.94-1.06-1.01-.82-1.53-1.75-1.15-2.97.36-1.14,1.03-1.99,2.21-2.36,1.04-.56,1.94-.2,2.65.56.86.93,1.71.91,2.72.33.78-.45,1.61-.83,2.42-1.22,1.17-.57,2.38-.93,3.7-.85.72.05,1.43-.01,2.13-.32-1.24.02-2.46,0-3.69.01-2.06.01-3.62-.87-4.39-2.77-.61-1.49-1.58-2.62-2.69-3.71-.52-.51-.99-.88-1.78-.62-.35.12-.76.1-1.03-.26-.53-.39-1.17-.62-1.47-1.29-.62-1.36-.27-2.57,1.03-3.33.13-.07.26-.14.38-.22,1.69-.16,2.29.15,3.06,1.66.17.34.39.49.75.58,1.06.26,2.11.56,3.16.84.82.22,1.43-.03,1.24-1.09-.14-.81-.29-1.63-.37-2.45-.06-.62-.28-.94-.96-.98-.77-.05-1.31-.54-1.67-1.2-.56-1-.36-2.22.47-2.99.79-.74,2.13-.86,3.04-.27.9.58,1.39,1.75.97,2.77-.26.63-.09.95.29,1.37.83.93,1.65,1.86,2.57,2.7.54.48.66.45.98-.23.47-.99.91-1.98,1.37-2.98.2-.43.28-.77-.17-1.17-.69-.61-.92-1.44-.66-2.36.29-1.05,1.12-1.75,2.19-1.81,1.16-.07,2.13.53,2.5,1.55.37,1,.13,2.15-.76,2.73-.69.45-.74.9-.54,1.6.23.8.4,1.61.81,2.34.37.66.54.73,1.16.4,1.12-.59,1.99-1.47,2.87-2.35.38-.37.04-.69-.05-1.03-.43-1.51.64-3.04,2.2-3.13,1.27-.08,2.4.83,2.57,2.05.19,1.38-.61,2.67-1.97,2.82-.82.09-1.17.5-1.51,1.1-.29.53-.63,1.03-.95,1.54-.15.25-.21.48.04.7.23.21.41.04.6-.08.6-.39,1.18-.82,1.79-1.18.99-.58,2.04-.97,3.22-.87.35.03.64.02.87-.35.6-.97,1.54-1.26,2.63-1.22.14.2.4.19.58.3,1.69,1,1.72,3.28.06,4.33-.22.14-.51.12-.67.37-.87.53-1.65.14-2.27-.4-.66-.59-1.2-.46-1.82-.05-1.26.84-2.36,1.87-3.28,3.08-.91,1.2-1.67,2.51-2.64,3.66-.44.52-1.01.9-1.66,1.39,1.66.48,3.24.58,4.81.12,1.38-.41,2.67-1.01,3.92-1.72.87-.49,1.14-.32,1.2.66.03.57-.02,1.14-.27,1.66-.4.84-.91,1.63-.99,2.61-.03.38-.34.68-.7.84-.91.41-1.58,1.06-2.27,1.77-.63.65-.92,1.11-.6,2,.24.66.11,1.41-.04,2.12-.29,1.37-1.28,2.46-1.49,3.86-.04.24-.28.47-.5.59-1.14.61-1.6,1.74-2.32,2.93,1.81-.42,3.3-1.22,4.8-1.94,1.7-.81,3.42-1.58,5.11-2.41.33-.16.65-.4,1.06-.23,3.19-1.34,6.38-2.69,9.7-3.71,3.45-1.07,6.96-1.79,10.56-2.22,3.76-.45,7.24.3,10.69,1.62.07.03.15.03.22.05q.64.52.28,1.35Z"/>
      <path class="cls-100" d="m152.06,170.37c-2.77-.72-5.58-1.14-8.45-1.15-.97,0-1.95-.23-2.92-.13-2.29.23-4.59.08-6.88.21-1.94.1-3.86.34-6.02.54,7.31-6.02,15.54-7.07,24.33-5.78-.02,2.1-.03,4.21-.05,6.31Z"/>
      <path class="cls-32" d="m155.22,184.23c-.3-.06-.65.08-.89-.23.04-.1.12-.17.22-.19.23.06.47.11.7.17-.01.08-.02.17-.04.25Z"/>
      <path class="cls-81" d="m115.85,274.47c.08-1.39.16-2.78.25-4.17.05-.8.06-.82.84-.83,1.09-.01,2.19,0,3.28,0,.23,0,.45,0,.63-.17.42.22.87.19,1.32.19,1.42,0,2.85.01,4.27,0,.53,0,.73.2.73.73,0,1.35-.34,2.67-.22,4.02-1.95.26-3.91.16-5.87.05-.45.53-.24,1.1-.15,1.71.38-.07.72-.11,1.04-.2,2.1-.55,4.05.65,4.74,2.59.35.96.57,1.97.62,2.96.13,2.43.36,4.9-.41,7.27-.76,2.31-2.05,3.97-5.18,3.99-.38,0-.75,0-1.13.01-2.46-.11-4.03-1.46-5.03-3.7-.23.25-.15.51-.16.73-.01.75-.03,1.51,0,2.26.02.54-.19.77-.73.72-.11-.01-.23,0-.34,0-3.21,0-6.41,0-9.62,0-1.09,0-1.09,0-1.09-1.13,0-1.24,0-2.49,0-3.73,0-1.01.27-1.92.82-2.77.87-1.38,1.98-2.56,3.02-3.8.68-.81,1.4-1.58,2-2.45.71-1.04.85-2.23.9-3.45,0-.18-.05-.37-.1-.55-.12-.42-.42-.64-.84-.59-.44.06-.63.34-.62.79.01.94.01,1.89,0,2.83-.01.81-.03.82-.83.83-1.17.01-2.34-.02-3.51,0-.54.01-.86-.11-.82-.74.08-1.35-.09-2.71.17-4.06.5-2.63,2.61-4.47,5.29-4.55.53-.02,1.06-.01,1.58.01,2.05.09,3.57,1.21,4.26,3.15.21.6.33,1.23.49,1.85.08.18.16.36.18.56.04.96.04,1.92-.1,2.87.07,1.23-.38,2.28-1.12,3.23-1.4,1.82-2.88,3.58-4.35,5.34-.19.22-.47.38-.53.85,1.83-.21,3.65.36,5.43-.32.28-.61.12-1.26.15-1.88.04-.76.33-1.18,1.16-1.15,1.34.05,2.69-.06,4.03.06.56.26.59.77.63,1.29.04.54-.1,1.1.13,1.61.28.28.51.17.55-.16.18-1.47.55-2.93.12-4.41-.1-.34-.17-.86-.67-.27-.14.27-.12.57-.14.86-.02.75-.41,1.07-1.15,1.02-1.45-.08-2.91.16-4.35-.14-.54-.78-.34-1.65-.27-2.49.08-1.04.28-2.07.39-3.11,0-.8.18-1.59.11-2.39.03-.39-.08-.81.21-1.15Z"/>
      <path class="cls-123" d="m116.85,240.74c-.3-.01-.48.09-.56.41-.72,2.97-2.97,4.1-5.69,4.54-1.21.2-2.46.42-3.7.06-.57-.17-1.15-.3-1.61-.83,1.48-.5,2.9-.99,4.26-1.65,3.01-1.48,5.73-3.32,7.73-6.08,1.42-1.96,2.55-4.08,3.39-6.35.16.19.16.41.16.64,0,6.76-.02,13.53-.02,20.29-.1.06-.23.11-.31.04-1-.96-2.05-1.84-3.16-2.68-.48-.36-.16-.89.01-1.35.79-2.09.61-4.2.12-6.31-.05-.22-.14-.43-.37-.54-.09-.05-.18-.12-.25-.21Z"/>
      <path class="cls-170" d="m88.24,246.89c.19,0,.36.01.48.18.08.28.35.33.56.45,3.04,1.81,6.41,2.76,9.77,3.74.54.16,1.06.39,1.49.78.69.62,1.09,1.4.76,2.32-.41,1.15-1.08,2.15-2.18,2.79-1.22.72-2.41.76-3.59-.06-.11-.02-.09-.26-.27-.16.1.08.22.15.33.24.78.77,1.47,1.62,2.24,2.39,1.42,1.42,3.04,1.85,4.96,1.22,1.93-.63,3.55-1.59,4.38-3.59.47-1.14,1.05-1.25,1.67-.28,2.08,3.27,5.31,4.17,8.84,4.36,3.77.2,7.44-.34,10.84-2.12.94-.49,1.78-1.13,2.6-1.78.15-.15.3-.3.46-.44.05-.03.09-.05.14-.07.52.29.44.59.06.96-1.14,1.12-2.44,1.98-3.9,2.63-2.26,1-4.66,1.38-7.08,1.66-1.77-.05-3.53.04-5.3-.21-2.94-.42-5.41-1.55-7.05-4.14-.08-.13-.15-.27-.21-.38-.19.14-.27.17-.29.23-1.27,3.05-3.94,3.96-6.86,4.4-1.04.16-1.98-.37-2.83-.96-1.58-1.08-2.74-2.56-3.82-4.12-.27-.4-.51-.82-.77-1.23.32-.29.52,0,.72.08.75.35,1.48.74,2.28.98.82.25,1.56.1,2.22-.45.59-.48,1.08-1.05,1.41-1.74.44-.93.24-1.58-.66-2.08-.76-.42-1.6-.64-2.44-.86-2.82-.72-5.55-1.67-8.05-3.19-.11-.21-.29-.34-.5-.44-.5-.23-.57-.63-.44-1.1Z"/>
      <path class="cls-173" d="m116.91,240.73c.3-.22.59-.21.71.17.14.42.24.86.32,1.3.4,2.25.48,4.47-.77,6.61,1.49.69,2.51,1.9,3.65,2.96,1.4,1.75,2.71,3.59,4.55,4.94,1.08.79,2.24,1,3.51.63.72-.21,1.42-.47,2.12-.73.33-.13.58-.16.72.22,0,0,0,0,0,0-.11.13-.19.29-.32.4-3.51,2-5.53,1.46-8.29-1.39-1.05-1.08-2.07-2.19-2.93-3.43-1.77-2.57-4.19-3.01-7.02-2.35-1.65.39-3.28.84-4.82,1.57-.18.07-.36.12-.54.15-.3.06-.66.1-.79-.23-.17-.4.17-.62.47-.78,1.46-.8,3.04-1.28,4.65-1.66,1.02-.24,2.05-.46,3.11-.49.98-.03,1.49-.57,1.76-1.44.48-1.55.47-3.1.11-4.66-.07-.29-.1-.59-.09-.89.03-.3-.08-.59-.1-.88Z"/>
      <path class="cls-139" d="m120.81,215.58c-.65-1-1.18-2.07-1.66-3.17-.82-1.89-.41-2.56,1.65-2.84.07,2,.06,4,0,6.01Z"/>
      <path class="cls-54" d="m121.09,274.28c1.96-.02,3.91-.03,5.87-.05-.13.22-.35.25-.58.25-1.6,0-3.2,0-4.79,0-.19,0-.37-.05-.5-.2Z"/>
      <path class="cls-114" d="m120.83,202.72c-.31.03-.56-.12-.88-.25.2-.39.5-.55.86-.63,0,.29.01.58.02.88Z"/>
      <path class="cls-123" d="m89.18,219.54c1.81-.45,2.56-1.32,2.73-3.22.02-.26,0-.52.26-.71,1.07-.8,2.14-1.61,3.37-2.53-.17,1.1-.47,1.95-.57,2.84-.27,2.29.54,3.94,2.58,5.04,1.27.68,2.66,1.04,4.02,1.46.79.24,1.58.5,2.32.87,1.8.91,2.51,2.15,2.23,4.13-.28,2-1.19,3.71-2.71,5.07-.39.35-.84.62-1.36.76-.3-.27-.16-.58-.17-.86,0-.72.02-1.43-.14-2.14-.57-2.45-2.34-4-4.97-4.44-2.16-.36-4.27-.17-6.36.38-.43.11-.87.21-1.31.32.05-2.33-.07-4.65.07-6.98Z"/>
      <path class="cls-90" d="m89.11,269.27c.44.02.72.19.69.68-.01.19,0,.38,0,.56,0,7.06,0,14.12,0,21.18,0,.23,0,.45,0,.68,0,.44-.32.44-.63.45-1.24,0-2.48-.01-3.72-.03-1-.01-1.01-.02-1.02-1,0-3.5,0-6.99,0-10.49,0-1.39.01-2.78,0-4.17,0-.81-.03-.82-.82-.85q-1.67-.08-1.67-1.7c0-.64.02-1.28,0-1.92-.01-.47.17-.71.66-.68.19.01.38,0,.56,0,1.23-.12,2.14-.67,2.46-1.94.15-.62.49-.83,1.13-.79.79.06,1.58.01,2.37,0Z"/>
      <path class="cls-167" d="m67.07,212.01c-.92-1.76-1.1-2.85.82-4.97.19-.49.59-.73,1.07-.88,1.19.03,1.28.15,1.01,1.28-.31.53-.84.76-1.38.97-1.07.59-1.52,1.5-1.43,2.7.02.3-.01.6-.02.9,0,0-.06,0-.06,0Z"/>
      <path class="cls-66" d="m77.64,206.57c-.49-.33-1.02-.61-1.38-1.1.09,0,.18,0,.27,0,.49.24.93.54,1.34.89-.05.1-.12.18-.22.22Z"/>
      <path class="cls-74" d="m93.94,284.88c-2.08-1.62-2.31-3.89-2.44-6.15-.09-1.53-.11-3.08.12-4.62.37-2.58,2.61-4.68,5.21-4.82.75-.04,1.51-.09,2.25.1,2.94.77,4.22,2.5,4.29,5.34.1,4.22.08,8.44.02,12.66-.06,3.42-2.27,5.37-5.72,5.5-3.24.11-5.34-2.04-5.9-4.13-.28-1.06-.32-2.15-.29-3.25.01-.42.17-.62.6-.61.62.01,1.24,0,1.86,0Z"/>
      <path class="cls-117" d="m115.45,274.71c0-.15,0-.31,0-.46.13.07.27.15.4.22,0,.37,0,.75-.01,1.12-.59-.09-.12-.65-.39-.88Z"/>
      <path class="cls-163" d="m88.09,168.17c.55-.15,1.03-.46,1.47-.81.53-.42.94-.95.79-1.64-.26-1.17.74-1.62,1.24-2.35.15-.21.34-.06.5,0,.9.38,1.8.58,2.66-.1.25-.2.42,0,.59.13.55.41,1.1.38,1.68.05.29-.17.5-.59.84-.5.3.08.53.39.84.64.61-.31.94-.84,1.05-1.48.15-.88-.49-1.64-1.59-1.86-1-.2-2.01-.3-3.04-.23-1.73.11-3.46.25-5.14.72-.97.28-1.73,0-2.32-.71-.61-.75-.35-1.58.08-2.33.87-1.52,2.4-1.71,3.67-.49,1.21,1.17,1.44,1.23,2.98.54,1.03-.46,2.03-.98,3.04-1.48.86-.43,1.74-.71,2.71-.62,1.24.11,2.38-.15,3.46-.78,1.13-.66,2.38-.65,3.63-.45,1.08.18,2.15.38,3.21.62,1.49.34,2.91.1,4.32-.41.96-.34,1.88-.77,2.79-1.23.2-.1.37-.28.67-.18.04,1.12-.58,1.85-1.46,2.44-.13.19-.34.26-.53.34.09.14.13-.07.2-.03.2-.03.37.03.53.13.26.82.21,1.01-.44,1.34-.5.25-1.04.43-1.6.52-.24.04-.47.13-.39.43.21.8-.35,1.07-.9,1.3-.41.18-.86.26-1.29.38,0,.06-.03.16,0,.19,1.4,1.39,1.56,3.46.32,5.04-.33.41-.48.78-.45,1.29.03.6-.21,1.1-.86,1.28-.38-.26-.16-.71-.34-1.04-.16-.28-.12-.62-.3-.89-.16-.3-.33-.59-.55-.84.25.33.46.69.63,1.06.06.38.27.73.3,1.12.02.3-.04.58-.2.83-.18.3-.44.51-.87.64-.29-.87-.18-1.98-1.46-2.49.52.93.61,1.88.99,2.59.59,1.1-.16,1.48-.62,2.1-.19.25-.69.34-.52.77.18.45.64.45,1.06.48.62.03,1.19-.17,1.75-.39,1.87-.7,3.65-1.61,5.45-2.47,5.14-2.44,10.32-4.75,15.81-6.3,3.6-1.01,7.24-1.71,11-1.79,2.77-.06,5.36.61,7.88,1.68-.53.64-1.2.22-1.81.23-2.07-.01-4.14-.14-6.22-.07-4.16.15-7.99,1.37-11.61,3.35-1.62.89-3.16,1.9-4.58,3.1-.42.35-.87.53-1.41.63-10.86,2.12-21.23,5.63-31,10.86-3,1.61-5.85,3.45-8.22,5.93-1.9,1.99-3.45,4.19-4.03,6.94-.33,1.55-.22,3.09.37,4.55.86,2.11,2.39,3.35,4.75,3.33.52,0,.93.03.73.72,0,.03,0,.08,0,.11-.03.44.4.95.1,1.28-.3.34-.84.47-1.28.66-1.85.77-3.72,1.42-5.73,1.67-.92.11-1.81.02-2.69-.19-1.17-.29-1.99-1.03-2.55-2.07-.59-1.09-1.17-2.19-1.76-3.28-.08-.05-.13-.12-.16-.2-.06-.04-.1-.1-.11-.17-.07-.14-.05-.26.06-.37l.2.14c.09.05.16.1.23.18,2.12,1.44,4.46,2.15,7.03,2.03.19,0,.38,0,.56-.02.16-.01.29-.08.28-.27-.01-.19-.17-.23-.32-.24-.38-.02-.75,0-1.13-.02-3.73-.1-6.7-1.61-8.7-4.81-1.22-1.96-1.63-4.11-1.14-6.39.18-.82.5-1.58,1.03-2.23.61-.75,1.27-1.46,2-2.3.45,1.66,1.23,2.95,2.39,4,.68.61,1.44,1.1,2.31,1.37.24.07.6.21.71-.07.14-.36-.26-.37-.49-.45-2.49-.91-3.89-2.71-4.39-5.28-.21-1.05.05-2.02.41-2.98,1.05-2.79,4.05-5.03,7.78-4.93-.3.82-.56,1.62-.87,2.4-.69,1.71-.38,3.32.46,4.88.11.2.23.39.36.57.1.13.24.17.38.05.1-.08.12-.19.06-.3-.12-.23-.26-.46-.38-.69-.74-1.4-.94-2.84-.34-4.35.33-.84.67-1.68.97-2.53.22-.65.77-1.01,1.21-1.46,1.16-1.19,2.56-1.96,4.19-2.32.48-.11.95-.17,1.6-.12-.91,1.66-1.32,3.32-.96,5.08.18.89.19,1.85.81,2.67.36-.2.28-.47.21-.7-.22-.76-.35-1.54-.5-2.31-.23-1.2-.02-2.31.43-3.42.19-.48.56-.89.58-1.45,0-.35.34-.48.58-.64.84-.59,1.8-.92,2.78-1.23.97-.31,1.94-.61,2.91-.9,1.77-.53,2.64-1.84,3.08-3.58,2.16.15,3.15-1.4,4.17-2.92.09-.13.11-.3-.02-.41-.2-.17-.33,0-.45.14-.31.42-.59.87-.93,1.28-1.16,1.37-1.87,1.58-3.52,1.05-.3.3.05.55.07.82.06.86-.17,1.25-1.01,1.5-.4.12-.81.19-1.21.26-.26.04-.52.09-.86-.04.38-.52.81-1,.92-1.64.04-.22.04-.45.05-.67,0-.16-.07-.3-.26-.29-.11,0-.2.07-.22.2-.03.19-.06.37-.11.55-.34,1.36-1.15,1.9-2.67,1.79,0-.39.37-.54.54-.82.26-.42.48-.86.49-1.36,0-.18.05-.4-.22-.43-.26-.03-.28.18-.31.37-.11.75-.48,1.34-1.1,1.77-.39.28-.8.43-1.26.07,0-.34.32-.46.5-.67.43-.49.77-1.02.92-1.66.05-.21.13-.48-.17-.56-.31-.09-.38.13-.4.38-.09.91-.71,1.46-1.37,1.99-.33.26-.7.44-1.2.14.24-.32.47-.6.68-.89.25-.34.38-.73.46-1.14.03-.18.03-.39-.22-.44-.23-.05-.36.07-.37.3-.02.66-.39,1.13-.82,1.56-.55.55-1.21.88-2,.92-.18-.1-.47.02-.56-.27Z"/>
      <path class="cls-123" d="m89.17,147.04c.41.05.87.18,1.23-.02.69-.39,1.1-.08,1.54.41.43.48.9.91,1.36,1.35.61.58,1.02,1.27,1.32,2.07.87,2.34,2.22,3.25,4.71,3.27,1.35,0,2.7,0,4.26,0-.77.6-1.45.99-2.25.91-2.01-.21-3.77.45-5.48,1.39-.66.36-1.36.65-2.03.99-.7.35-1.29.25-1.81-.36-.19-.23-.43-.42-.65-.63-.65-.59-1.44-.57-2.24-.53.01-2.95-.08-5.9.04-8.85Z"/>
      <path class="cls-109" d="m89.13,169.02c1.18-.49,2.28-.22,3.46.13,1.58.48,3.23.73,4.9.47.33-.05.66-.1,1.14-.17-.34.6-.85.73-1.3.89-1.03.36-2.09.64-3.13.98-1.12.36-2.2.78-3.12,1.54-.57.46-1.29.31-1.94.44,0-1.42,0-2.85-.01-4.27Z"/>
      <path class="cls-109" d="m89.13,165.2c.3-.1.65-.39.69.26.04.61-.1,1.12-.66,1.44,0-.57-.02-1.13-.03-1.7Z"/>
      <path class="cls-20" d="m77.41,161.85c.18-.03.36-.09.45.15.08.05.11.1.08.15-.02.05-.05.08-.08.08-.21,0-.29-.2-.44-.3,0,0-.01-.08-.01-.08Z"/>
      <path class="cls-123" d="m120.87,166.76c-3.25,1.58-6.48,3.19-9.82,4.57-.52.21-1.05.4-1.6.35-.21-.32.05-.45.18-.6.34-.41.67-.82.86-1.32.21-.56.55-.95,1.09-1.21.76-.38,1.25-.97,1.18-1.88-.03-.37.15-.62.35-.91,1.13-1.61,1.26-3.43.37-5.29.81-.38,1.63-.77,1.82-1.8.03-.19.29-.2.47-.27.39-.15.77-.29,1.14-.48.59-.3.93-.77.8-1.47-.06-.35-.04-.62.2-.94.94-1.23,1.02-1.61.87-3.25-.34-.11-.56.16-.8.3-.92.52-1.88.94-2.85,1.37-2.19.97-4.37.8-6.6.12.12-.38.47-.41.71-.57.72-.49,1.37-1.05,1.87-1.78.74-1.09,1.48-2.18,2.28-3.23,1.05-1.4,2.33-2.56,3.94-3.31.44-.2.78-.27,1.15.22.57.75,1.44.89,2.35.83,0,6.32.02,12.64.03,18.97,0,.53.02,1.05.03,1.58Z"/>
      <path class="cls-158" d="m179.59,96.08c1.42,6.87,2.84,13.74,4.27,20.68h-8.21c1.24-6.93,2.48-13.79,3.71-20.66.08,0,.16-.01.24-.02Z"/>
      <path class="cls-158" d="m65.37,98.57c2.9.29,5.66.61,8.41,1.05,1.83.29,2.94,1.4,3.34,3.21.42,1.88.34,3.74-.21,5.57-.62,2.06-2.03,3.16-4.16,3.4-1.82.21-3.61-.02-5.39-.35-.65-.12-1.54.06-1.88-.5-.29-.47-.11-1.24-.11-1.88,0-3.16,0-6.33,0-9.49v-1.04Z"/>
      <path class="cls-158" d="m125.47,100.28c1.36,4.47,2.71,8.93,4.1,13.49h-7.89c1.14-4.53,2.39-8.98,3.56-13.46.08-.01.16-.02.24-.03Z"/>
      <path class="cls-163" d="m86.63,242.07c.16-.58.46-1.11.52-1.73.14-1.64-.51-2.94-1.7-4-.39-.35-.83-.63-1.3-.99.57-.67,1.14-1.3,1.67-1.98.73-.94,1.33-1.94,1.12-3.21-.06-.37-.13-.75-.29-1.08-.22-.45-.08-.67.32-.89,1.83-1.02,3.78-1.69,5.87-1.89,1.43-.14,2.86-.19,4.27.15,2.66.64,3.97,2.27,4.26,5,.18,1.65-.43,2.7-1.78,3.55-1.47.92-3.95,1.42-6.08.66.1-.39.42-.62.67-.88,1.55-1.64.31-4.36-1.65-4.86-1.14-.29-2.25-.05-3.33.3-.18.06-.36.19-.26.41.1.22.31.14.49.1.51-.12,1.02-.3,1.53-.36,1.6-.19,2.72.48,3.22,1.86.25.7.21,1.33-.25,1.92-.26.32-.57.61-.81.94-.25.35-.71.37-1.02.67,3.01,1.45,6.54,1.01,8.74-1.07.45-.42.92-.75,1.51-.92.7-.2,1.28-.64,1.78-1.16,1.52-1.57,2.43-3.46,2.61-5.63.14-1.66-.58-3-2.03-3.89-1.01-.62-2.12-.97-3.23-1.32-1.11-.35-2.24-.64-3.3-1.14-2.13-1.01-2.92-2.36-2.66-4.71.23-2.08.99-3.92,2.49-5.43.07-.21.1-.45.28-.6,2.13-1.75,4.2-3.59,6.93-4.42,1.92-.77,3.84-1.55,5.88-1.93,2.19-.4,4.39-.7,6.63-.42.4.05.83.16,1.22-.07.26-.16.52-.09.77-.01,5.98,1.76,10.15,5.44,12.07,11.46.32,1.01.46,2.07.12,3.12-.25.75-.57,1.47-1.51,1.77-.19-2.2-.92-4.15-2.11-5.92-1-1.49-2.2-2.78-3.79-3.66-1.24-.69-2.56-1.11-4.01-.78-.5.11-.97-.03-1.46-.07-1.4-.11-2.7.17-3.88.94-1.32.87-1.97,2.14-2.09,3.72-.69-.05-1.25-.38-1.84-.59-1.78-.65-3.41-.37-4.94.67-1.21.81-2.18,1.85-2.99,3.05-.1.15-.24.33-.02.48.2.13.34-.02.46-.17.45-.55.9-1.11,1.38-1.64.51-.56,1.1-1.02,1.75-1.42,1.26-.76,2.58-1.02,3.99-.49.28.11.56.23.85.3.93.24,1.47.72,1.74,1.76.51,1.94,2.16,2.58,3.97,2.81.62.08,1.25.08,2.04.12-2.68,3.37-2.95,6.62.12,9.76-.05.39-.4.29-.61.38-.92.36-1.81.76-2.59,1.37-.79.61-1.41,1.35-1.72,2.32-.35,1.07-.3,2.07.45,2.98.14.17.27.35.52.66-1.71.01-3.12.48-4.29,1.56-1.19,1.1-1.72,2.52-1.93,4.14-4.5-1.25-8.17-.21-10.85,3.77-.4-.1-.64-.45-.95-.7-1.71-1.39-3.54-2.55-5.78-2.93-1.7-.28-3.29.12-4.89.59-.26.06-.37-.04-.31-.31Z"/>
      <path class="cls-163" d="m87.8,194.6c-.78,1.27-.56,2.44.38,3.51.52.59.89,1.21.76,2.04-.11.71-.37.97-1.09,1.06-1.66.2-3.24-.64-4.11-2.24-.94-1.74-1.07-3.58-.55-5.48.56-2.05,1.68-3.77,3.04-5.35,1.84-2.14,4.07-3.8,6.47-5.26,5.33-3.25,11.04-5.67,16.91-7.74,5.29-1.87,10.68-3.41,16.22-4.39,2.6-.46,5.22-.69,7.85-.85,3.39-.2,6.78-.26,10.17-.15,2.87.09,5.71.43,8.45,1.31.43.14.85.3,1.27.46.14.05.26.14.39.21-.08.4-.37.21-.55.21-3.84.1-7.69.12-11.53.29-3.5.15-6.99.54-10.39,1.42-3.74.97-6.82,2.97-9.19,6.01-.46.6-.95.81-1.7.82-6.13.13-12,1.56-17.69,3.78-.07.03-.12.09-.17.14-.62.65-1.5.86-2.27,1.2-3.23,1.41-6.24,3.16-9.02,5.31-1.38,1.06-2.46,2.42-3.64,3.68Z"/>
      <path class="cls-163" d="m154.55,183.81c-.07.06-.15.13-.22.19-2.18-.18-4.35-.35-6.53-.56-3.87-.37-7.74-.44-11.62-.19-1.84.11-3.68.16-5.52.38-2.73.34-5.06,1.53-6.9,3.52-1.03,1.11-2.06,1.52-3.6,1.4-5.16-.38-10.12.55-14.84,2.69-2.87,1.31-5.48,2.99-7.66,5.31-1.04,1.11-1.95,2.31-2.53,3.71-.82,1.96-1.35,3.94.2,6.01-2.32.05-4.23-.51-5.75-2.09-.83-.86-.85-1.94-.42-2.95.54-1.29.47-2.41-.52-3.42-.77-.79-.86-1.71-.58-2.72.15-1.03.81-1.75,1.5-2.44,3.03-3.02,6.71-5.04,10.54-6.84,1.01-.47,1.99-1.04,3.14-1.14,2.32-.75,4.61-1.6,6.99-2.17,3.6-.87,7.23-1.45,10.94-1.48.42,0,.83.02,1.09-.41.21-.35.57-.3.91-.32,4.93-.26,9.85-.2,14.79-.01,5.57.22,10.84,1.62,16.06,3.36.18.06.36.11.54.16Z"/>
      <path class="cls-163" d="m97.63,207.89c-.59-.84-1.21-1.38-1.79-1.97-.83-.84-1.09-1.85-.92-3.01.26-1.76,1.01-3.3,2.07-4.7,2-2.65,4.61-4.54,7.55-5.98,4.96-2.44,10.21-3.57,15.75-3.1,1.62.14,3.19-.28,4.81-.17,5.86.38,11.56,1.51,17.07,3.53,2.19.8,3.79,2.4,5.25,4.36-.75-.11-1.29-.36-1.83-.59-3.29-1.4-6.77-1.99-10.27-2.55-2.12-.33-4.25-.61-6.39-.74-3.43-.22-6.51.59-9.05,2.99-.38.36-.78.39-1.23.39-2.95.03-5.87.3-8.74.98-2.17.52-4.26,1.25-6.18,2.41-2.89,1.74-4.95,4.14-5.85,7.45-.05.18-.13.35-.26.71Z"/>
      <path class="cls-163" d="m108.37,251.34c2.15-1.05,4.4-1.68,6.8-1.8.11,0,.23.02.34,0,1.63-.44,2.74.44,3.74,1.51.87.93,1.69,1.91,2.52,2.88.86,1,1.7,2,2.71,2.86,1.45,1.24,3.05,1.72,4.91,1.04.7-.26,1.41-.5,2.12-.75l.08.05-.03.1c-1.49,1.57-3.31,2.59-5.35,3.24-4.07,1.29-8.2,1.44-12.36.47-1.9-.45-3.45-1.45-4.59-3.07-.38-.54-.74-1.14-1.35-1.45-.22.06-.25.22-.29.35-.59,2-1.98,3.16-3.86,3.97-2.5,1.07-4.6.71-6.45-1.26-.72-.77-1.42-1.56-2.05-2.41-.06-.05-.07-.1-.04-.15.02-.04.05-.06.07-.06.35.12.71.23,1.06.37,1.14.42,2.14.16,3.05-.59.71-.59,1.25-1.3,1.58-2.17.37-.96.16-1.68-.65-2.28-.52-.38-1.12-.61-1.74-.79-1.3-.38-2.6-.74-3.89-1.14-2.06-.63-4.01-1.51-5.76-2.79.02-.19.11-.26.29-.16,1.64.26,3.29.4,4.95.29,1.32-.08,2.61-.35,3.89-.65.44-.1.82-.18,1.25.19,4.54,4,9.75,6.92,15.26,9.32,2.63,1.14,5.35,2.03,8.15,2.62.18.04.38.05.56.09.24.06.46.11.5-.22.04-.27-.18-.28-.37-.31-.48-.09-.96-.17-1.44-.29-5.03-1.19-9.68-3.28-14.13-5.87-.06-.04-.1-.11-.15-.16-.38-.73.45-.66.66-.99Z"/>
      <path class="cls-163" d="m67.7,206.85c-.26.14-.39.58-.84.25-.52-.38-.29-.57.1-.78.1-.15.18-.31.31-.43.08-.1.17-.19.25-.29.06-.11.09-.23.08-.35-.02-.23-.16-.38-.35-.51-.36-.19-.72-.13-1.08-.03-.18.05-.36.08-.55.1-.13.03-.27.06-.4.1-.09.02-.18.03-.27.03-.09-.02-.16-.07-.22-.14-.18-.1-.27-.25-.23-.46.32-.35.8-.37,1.19-.57.09-.05.17-.09.26-.14.23-.15.3-.36.24-.61-.04-.07-.07-.15-.12-.22-.03-.03-.05-.06-.08-.09-.09-.08-.19-.13-.31-.17-.12-.03-.24-.07-.35-.12-.15-.08-.3-.17-.37-.33.03-.07.07-.14.1-.22.04-.49-.11-.93-.36-1.34-.14-.14-.47-.28-.1-.48.57-.32,1.18-.31,1.7.11.79.63,1.69.97,2.64,1.22.67.17,1.24.54,1.81.91,2.57,1.66,4.94,3.58,7.38,5.41,1.09.81,2.18,1.62,3.35,2.3.36.21.74.38,1.11.55.76.35,1.45.24,2.1-.3.84-.71,1.54-1.55,2.18-2.44.75-1.04,1.45-2.11,2.19-3.2,1.18,1.07,2.51,1.78,4.06,2.11.71.15,1.43.21,2.13.14.79-.09,1.15.42,1.56.91.42.5.84.98.45,1.69-.05.1-.11.22-.1.32.14,1.11-.57,1.7-1.33,2.29-1.26.96-2.49,1.95-3.76,2.89-.46.34-.7.67-.71,1.28-.05,1.93-1.53,3.09-3.43,2.75-1.17-.2-2.21-.72-3.22-1.33-2.17-1.32-4.09-2.95-5.99-4.61-1.34-1.16-2.68-2.31-4.01-3.49-.8-.71-1.68-1.07-2.78-.99-.74.06-1.51.16-2.23-.16-.12-.1-.14-.23-.11-.38.03-.09.08-.17.15-.24.16-.12.21-.31.3-.48.13-1.12-.05-1.25-1.31-1-.36.14-.64.44-1.03.55Z"/>
      <path class="cls-163" d="m97.95,209.27c.32-1.39.63-2.79,1.29-4.08,1.15-2.26,2.92-3.91,5.09-5.14,2.69-1.53,5.63-2.29,8.67-2.72,2.01-.29,4.04-.45,6.08-.44.15,0,.34.05.45-.02,1.31-.89,2.78-.47,4.15-.39,4.18.24,8.29.99,12.24,2.42,2.88,1.04,5.62,2.36,8.11,4.16.71.51,1.36,1.07,1.59,2.06-.45.06-.79-.2-1.14-.34-4.47-1.83-9.04-3.32-13.8-4.17-1.74-.31-3.5-.53-5.27-.55-2.21-.02-4.25.59-6.01,1.95-.59.46-1.16.58-1.86.54-4.18-.25-8.17.53-11.97,2.26-.27.12-.57.19-.78.43-.54.61-1.32.86-1.98,1.28-1.24.8-2.45,1.62-3.59,2.56-.31.25-.58.62-1.06.57-.18-.07-.29-.17-.21-.38Z"/>
      <path class="cls-163" d="m60.01,168.53c.03-.41.38-.35.63-.44.21-.26.51-.36.8-.46q.94-.51.16-1.59c1.32-.9,1.99-.93,3.13.02,1.06.89,2.16,1.6,3.62,1.63.7.01,1.25.5,1.71,1.01,1.23,1.36,1.78,2.98,1.6,4.78-.24,2.39-.53,4.79-.93,7.16-.25,1.46-.09,2.75.73,3.98.38.56.71,1.15,1.09,1.72.21.31.33.57-.01.86-2.64,2.31-2.52,7.15-.46,10.23.27.41.56.8.84,1.2.07.22,0,.32-.24.27-.94-.55-1.92-1.01-2.95-1.39-2.49-.94-3.86-1.83-3.7-5.88.13-3.24.79-6.4,1.32-9.58.32-1.92.72-3.84.88-5.79.07-.83.02-1.66-.14-2.47-.2-1-.68-1.17-1.5-.61-.37.25-.7.57-1.16.66-.07-.07-.12-.16-.14-.27-.04-.44.52-.72.31-1.2-.25-.19-.54-.12-.82-.16-.16-.01-.3-.05-.44-.12-.09-.06-.14-.15-.18-.25-.02-.1-.01-.2.01-.3.05-.14.14-.26.23-.39.15-.22.17-.42-.06-.6-.28-.19-.66-.12-.93-.32-.07-.08-.09-.17-.08-.27.08-.36.57-.73,0-1.09-.08-.04-.17-.09-.25-.13-.14-.05-.28-.09-.42-.1-.41-.03-.82-.02-1.22.01-.22.01-.42.08-.64.12-.29.03-.57.03-.76-.25Z"/>
      <path class="cls-163" d="m108.37,251.34c-.14.38-.72.48-.66.99-2.89-1.54-5.53-3.44-8-5.54.18-.47.55-.38.81-.48.78-.28,1.59-.48,2.36-.78.9-.35,1.69-.52,2.57.19.77.61,1.8.72,2.8.71,1.67-.02,3.3-.22,4.85-.87,1.88-.79,3.19-2.09,3.71-4.11.13-.15.27-.15.4,0,.39,1.65.63,3.31.27,5.01-.11.52-.28,1.01-.49,1.49-.3.69-.74.96-1.56.98-2.78.06-5.38.93-7.88,2.08-.07.03-.13.08-.19.11-.14.07-.27.17-.19.34.06.14.2.22.37.16.28-.1.56-.2.84-.3Z"/>
      <path class="cls-163" d="m92.88,247.11c-1.59-.01-3.14-.25-4.67-.7-1.1-.32-1.9-1.01-2.65-1.83-.33-.36-.21-.58.11-.81.87-.62,1.83-1.01,2.87-1.25,2.06-.46,4.03-.27,5.9.73,1.17.63,2.24,1.38,3.22,2.27.2.19.58.33.47.69-.09.3-.44.25-.68.3-1.51.33-3.02.6-4.57.59Z"/>
      <path class="cls-163" d="m118.88,209.51c-.94.83-.81,1.68-.48,2.51.33.84.76,1.64,1.14,2.45.41.88.82,1.77,1.23,2.66.15.32.15.63-.26.68-1.93.22-3.86.28-5.53-.92-1.46-1.06-1.78-3.72-.67-5.35,1.04-1.52,2.56-2.06,4.58-2.02Z"/>
      <path class="cls-164" d="m120.79,228.3c-1.88-1.01-3.07-3.24-2.83-5.36.19-1.72,1.02-3.13,2.27-4.29.61-.57.91-.45,1.11.37.75,3.04.42,6.04-.35,9.02-.02.1-.13.17-.2.26Z"/>
      <path class="cls-164" d="m84.88,243.71c-1.31-1.51-2.15-3.16-2.71-4.97-.24-.79-.39-1.6-.47-2.43-.03-.34,0-.53.43-.6,2.86-.42,5.11,3.06,4.35,5.09-.38,1.03-.87,1.97-1.6,2.9Z"/>
      <path class="cls-164" d="m117.08,236.3c-.48-.22-.76-.52-1.05-.81-1.28-1.28-1.38-2.54-.32-4.03.65-.92,1.57-1.51,2.57-1.95.71-.32,1.44-.6,2.24-.67.08,1.37-1.99,5.87-3.43,7.46Z"/>
      <path class="cls-100" d="m77.64,206.57c.07-.07.15-.14.22-.22,2.42.87,4.77.39,7.1-.38.95-.31,1.89-.67,2.84-1.01.1.09.11.19.03.3-.87,1.68-2.06,3.11-3.43,4.41-.57.54-1.13.56-1.83.21-1.8-.88-3.32-2.16-4.93-3.32Z"/>
      <path class="cls-7" d="m99,246.03c1.5-3.65,6.6-5.47,10.51-3.6-.93.87-8,3.31-10.51,3.6Z"/>
      <path class="cls-164" d="m116.68,236.79c.03.39-.29.59-.49.84-1.49,1.84-3.38,3.17-5.42,4.33-.19.11-.39.29-.61.16-.28-.16-.16-.47-.14-.71.25-3.34,3.31-5.46,6.66-4.62Z"/>
      <path class="cls-7" d="m85.9,228.87c.65,1.14.72,2.16.12,3.2-.58,1.02-1.35,1.89-2.18,2.71-.63.62-1.39.29-2.18.27.43-2.74,2.11-4.53,4.25-6.18Z"/>
      <path class="cls-84" d="m103.23,184.67c-.99.45-1.98.89-2.96,1.34-2.98,1.37-5.83,2.96-8.42,4.97-1.49,1.16-2.84,2.46-3.8,4.11-.02-.19-.05-.38-.25-.49.3-.89.94-1.53,1.57-2.17,2.24-2.29,4.92-3.97,7.72-5.47,1.82-.97,3.66-1.93,5.65-2.55.1.2.3.23.49.26Z"/>
      <path class="cls-4" d="m60.38,167.87c-1.97-.12-3.13,1.12-4.18,2.59-.5-.59-.26-1.13-.06-1.64.76-1.86,2.99-2.97,4.96-2.52.15.03.29.06.44.09.44-.03.78.19.78.6,0,.57-.58.58-.96.76-.31.16-.66.05-.99.12Z"/>
      <path class="cls-5" d="m64.69,201.82c-.61.21-1.25.3-1.89.23-1.08-.12-1.88.35-2.57,1.12-.37.41-.71.84-1.12,1.32-.08-2.88,2.6-4.7,5.4-3.77.68.27.93.61.18,1.11Z"/>
      <path class="cls-3" d="m66.75,206.13c-1.83.7-2.63,2.11-2.71,4.1-.59-.43-.7-.94-.68-1.51.04-1.26.56-2.31,1.39-3.23.34-.7,1.06-.71,1.68-.91,1.26.06,1.36.2.96,1.24-.15.24-.42.22-.63.31Z"/>
      <path class="cls-159" d="m64.7,173.78c-1.86.8-1.65,2.55-1.88,4.21-.62-.47-.74-1.07-.81-1.7-.08-.76.14-1.48.25-2.22.08-.16.05-.37.22-.49h0c.12-.28.27-.54.55-.69.34-.22.67-.46,1.03-.63.26-.06.51-.15.77-.16.27.02.56-.05.82.08.31.91-.39,1.21-.96,1.6Z"/>
      <path class="cls-2" d="m63.3,204.07c-.72.1-1.05.68-1.41,1.19-.29.42-.52.89-.82,1.4-.37-.33-.38-.65-.3-1.03.38-1.79,1.54-2.76,3.27-3.14.26-.14.57-.05.83-.16.41,0,.76.19,1.14.31.15.09.26.21.37.35.09.33-.07.55-.32.73-.17.04-.33.1-.5.16-.73.42-1.53-.09-2.26.18Z"/>
      <path class="cls-168" d="m60.39,170.38c-.9.56-1.27,1.6-2.04,2.35-.4-1.31.37-2.78,1.86-3.71.27-.26.63-.31.97-.41.53-.03,1.07-.03,1.6,0,.12.02.23.06.34.11.51.22.86.49.32,1.03-.14.1-.29.19-.45.24-.48.12-.97.23-1.45.37-.38.18-.76-.1-1.14.02Z"/>
      <path class="cls-159" d="m61.78,173.11c-.59.81-.51,1.86-.99,2.9-.56-.98-.45-1.89-.25-2.77.12-.5.39-.97.59-1.46.14-.35.43-.53.74-.69.08-.06.17-.11.25-.17.04-.03.09-.06.13-.09.13-.09.27-.17.41-.25.26-.13.52-.2.81-.19.45.11,1.32-.3.98.79-.3.3-.51.7-.91.91-.25.17-.51.31-.75.49-.3.24-.66.39-1.01.53Z"/>
      <path class="cls-94" d="m98.23,209.55c1.74-1.5,3.58-2.86,5.62-3.92.3-.15.57-.37.92-.4.1.19.28.22.46.24-1.09.64-2.18,1.27-3.26,1.93-1.43.88-2.67,2.01-3.95,3.09-.14-.31-.77-.46-.3-.96.17.06.34.14.51.01Z"/>
      <path class="cls-128" d="m61.1,171.34c-.14-.23-.27-.45-.41-.68.13-.46.51-.35.83-.38.22-.07.44-.11.66-.07.17.05.3.15.34.33-.05.17-.16.28-.29.38-.39.12-.63.64-1.14.41Z"/>
      <path class="cls-79" d="m61.29,167.66c.06-.04.12-.08.19-.12.97-.47.97-.48.07-1.15.02-.12.03-.23.05-.35.04,0,.08.01.11.03.42.24.99.43.93.99-.06.54-.59.71-1.08.82-.09-.08-.23-.09-.26-.23Z"/>
      <path class="cls-12" d="m63.3,204.07c.78-.12,1.57-.24,2.35-.36.09.06.23.07.24.21-.41.31-.9.34-1.39.41-.35-.33-.82-.09-1.2-.26Z"/>
      <path class="cls-68" d="m64.7,173.78c.28-.52,1.05-.76.89-1.54.09-.12.2-.14.33-.04.34.65-.24.95-.51,1.38-.13.1-.18.35-.43.22-.09,0-.18,0-.27-.01Z"/>
      <path class="cls-106" d="m149.57,163.19c.59-.2,1.25.17,1.81-.23.29,0,.51.16.81.32-.46.24-.87.05-1.24.14-.45-.16-.95.03-1.38-.23Z"/>
      <path class="cls-110" d="m72.66,198.91c.08-.09.16-.18.24-.27.45.44.9.87,1.36,1.31-.02.12-.04.25-.06.37-.51-.47-1.02-.94-1.53-1.41Z"/>
      <path class="cls-24" d="m64.69,201.82c.4-.44.19-.79-.18-1.11.06-.07.13-.13.19-.2.8.57.83.66.36,1.34-.13-.01-.26-.02-.38-.03Z"/>
      <path class="cls-88" d="m66.3,204.75c-.58.12-1.05.47-1.55.74,0-.17,0-.34,0-.51.08-.08.17-.15.29-.16.07.02.12,0,.15-.07.09-.06.18-.14.3-.16l.53-.07c.09-.04.19-.05.29-.03.05.06.07.11.05.16-.02.05-.04.08-.05.08Z"/>
      <path class="cls-77" d="m68.59,208.41c.38-.3.75-.6,1.13-.9.07-.09.15-.1.24-.04.11.24-.09.35-.21.5l-.04.03c-.14.12-.24.29-.4.39-.24,0-.49.02-.73.03Z"/>
      <path class="cls-16" d="m67.7,206.85c.2-.35.53-.52.88-.66.11.07.25.08.29.23-.33.21-.65.41-.98.62-.06-.06-.13-.13-.19-.19Z"/>
      <path class="cls-39" d="m61.78,173.11c.13-.45.58-.48.9-.68.07-.07.15-.09.25-.05.06.08.08.17.07.26-.03.09-.07.17-.13.24-.06.07-.13.13-.2.18-.15.08-.32.15-.44.29-.15-.08-.3-.16-.45-.24Z"/>
      <path class="cls-92" d="m61.1,171.34c.44,0,.7-.47,1.14-.47.06.04.08.08.06.12-.02.04-.05.05-.07.05v.08c-.08.05-.16.1-.24.17-.29.16-.58.33-.86.49-.01-.15-.02-.29-.03-.44Z"/>
      <path class="cls-24" d="m64.97,202.5c-.31,0-.61,0-.92,0,.31-.14.62-.29.93-.43.15.07.3.15.45.22-.09.19-.33.08-.45.21Z"/>
      <path class="cls-53" d="m61.29,167.66c.09.08.17.15.26.23-.3.09-.58.28-.91.21-.09-.07-.17-.15-.26-.22.27-.21.59-.2.91-.21Z"/>
      <path class="cls-23" d="m61.09,168.82c-.3.05-.56.27-.88.2-.06-.16-.25-.28-.2-.49.27.13.55.02.82.03.26-.08.32.03.26.26Z"/>
      <path class="cls-48" d="m61.55,170.37c-.3.06-.63.04-.86.29-.1-.1-.2-.19-.3-.29.32-.35.76-.21,1.16-.27.06.06.08.11.06.17-.02.06-.04.09-.05.09Z"/>
      <path class="cls-147" d="m117.2,241.47c-.13,0-.27,0-.4,0-.06-.25,0-.49.05-.72,0,0,.05,0,.05,0,.16.22.37.42.29.73Z"/>
      <path class="cls-38" d="m63.13,173.07c-.22.17-.43.34-.65.51,0-.08-.02-.16-.02-.24-.16-.28.12-.33.24-.47h-.02c.07-.05.15-.09.24-.1.1-.01.18.01.26.07.05.09.04.17-.05.23Z"/>
      <path class="cls-149" d="m98.23,209.55c-.06.18-.19.35-.37.34-.14,0-.12-.22-.15-.36.08-.09.15-.18.23-.27.1.1.19.19.29.29Z"/>
      <path class="cls-43" d="m89.22,247.3c-.1.05-.19.11-.29.16-.13-.1-.51-.07-.22-.4.18.06.38.07.51.24Z"/>
      <path class="cls-80" d="m66.75,206.13c.05-.16.18-.23.34-.24.15-.09.28-.07.4.05-.12.21-.3.33-.53.37-.07-.06-.14-.12-.21-.18Z"/>
      <path class="cls-102" d="m87.84,205.27c0-.1-.02-.2-.03-.3.06-.11.2-.2.26-.11.14.23-.1.29-.23.4Z"/>
      <path class="cls-144" d="m86.63,242.07c.1.1.21.21.31.31-.11.19-.3.23-.49.23-.06-.05-.08-.11-.08-.18,0-.07.02-.1.04-.1.07-.09.15-.17.22-.26Z"/>
      <path class="cls-129" d="m62.7,172.88c-.08.16-.16.31-.24.47-.08,0-.16,0-.24,0-.03-.35.16-.47.47-.47Z"/>
      <path class="cls-167" d="m69.31,208.38c.07-.2.18-.35.4-.39,0,.13,0,.27,0,.4-.13,0-.26,0-.39-.01Z"/>
      <path class="cls-156" d="m64.98,173.79c.14-.07.29-.15.43-.22,0,.09,0,.19,0,.28-.17.23-.32.27-.43-.05Z"/>
      <path class="cls-28" d="m86.41,242.33c.01.09.03.19.04.28-.03.08-.11.12-.16.06-.09-.14-.02-.25.11-.33Z"/>
      <path class="cls-38" d="m62.49,173.58c-.01.19-.04.37-.22.49-.05-.22,0-.39.22-.49Z"/>
      <path class="cls-110" d="m74.3,200.49c.11.02.16.09.16.2-.11-.03-.17-.09-.16-.2Z"/>
      <path class="cls-110" d="m74.68,200.26c-.12,0-.2-.06-.23-.18.13-.01.2.06.23.18Z"/>
      <path class="cls-3" d="m65.03,204.82c-.06.12-.17.15-.29.16-.02-.06-.02-.12-.01-.19.1.01.2.02.3.03Z"/>
      <path class="cls-164" d="m77.86,162.23c0-.08,0-.15,0-.23.18.04.37.07.54.14,2.6,1.02,5.22.92,7.86.21,1.71-.46,3.38-1.03,5.12-1.36,1.97-.37,3.95-.46,5.95-.33.42.03.82.13,1.2.28.37.15.61.42.62.86,0,.35.01.74-.31.91-.35.18-.47-.27-.7-.42-.09-.06-.17-.14-.26-.21-.38.06-.52.42-.78.62-.79.63-1.13.62-1.81-.13-.12-.14-.23-.29-.35-.43-1.02,1.3-1.51,1.34-3.48.27-1.04,2.24-3.07,2.55-5.2,2.54-3.08-.01-5.96-.73-8.41-2.72Z"/>
      <path class="cls-6" d="m113.38,144.83c1.33-1.06,2.79-1.75,4.55-1.45.42.07.5-.22.64-.48.31-.62.8-.98,1.49-1.05.94-.1,1.71.39,2.01,1.26.3.87-.03,1.77-.81,2.23-.82.49-1.92.39-2.4-.43-.43-.73-.89-.73-1.53-.5-.14.04-.26.04-.36-.09-.03-.08-.03-.17-.01-.25-.24-.26-.46.02-.69.04-.96.18-1.64,1.04-2.65,1.08-.17-.07-.29-.16-.23-.37Z"/>
      <path class="cls-6" d="m97.57,141.65c-.12-.47-.24-.94-.36-1.4-.37,0-.71.04-1.03,0-1.11-.18-1.82-1.27-1.56-2.35.25-1.02,1.37-1.67,2.37-1.37,1.02.3,1.74,1.48,1.25,2.39-.47.87-.17,1.36.42,1.9.11.1.17.24.26.37.09.18-.01.28-.16.35-.26.05-.44-.07-.61-.24-.13-.1-.17,0-.21.11-.08.16-.15.32-.37.26Z"/>
      <path class="cls-165" d="m117,144.17c.11.09.21.17.32.26-2.24,1.1-3.93,2.8-5.27,4.89-.46.72-.97,1.42-1.47,2.12-.46.64-.99,1.21-1.74,1.53-.16-.06-.29-.15-.29-.34.69-.79.32-1.26-.44-1.72-.84-.51-1.79-.75-2.68-1.13-.2-.08-.41-.12-.63-.14-.29-.04-.59-.05-.76-.35.2-.54.68-.41,1.09-.46.29,0,.58.02.87.09,1.29.45,2.52,1,3.72,1.9-.63-.56-1.05-1.11-.69-1.87.35-.72.88-1.22,1.77-1.09.2.09.4.18.6.33-.12-.17-.31-.19-.44-.29-.97-.66-2.26-.7-3.07-1.65.1-.22.29-.32.51-.38,1.21.07,2.17.78,3.18,1.33.53.29.84.25,1.24-.21.85-1,1.8-1.91,2.97-2.55.37-.2.72-.6,1.21-.26Z"/>
      <path class="cls-166" d="m108.4,146c-.13.17-.32.19-.51.22-.12.1-.26.11-.4.09-.18-.04-.37-.09-.55-.12-.15-.02-.29-.05-.43-.09-.25-.07-.5-.09-.75-.09-.28,0-.55-.03-.83-.09-.86-.17-1.72-.17-2.57,0-.99.22-1.98.41-2.97.65-.15.04-.3.06-.45.08-.14.03-.27.07-.39.13-.12.08-.23.15-.35.23-.17.1-.34.19-.51.28-.63.3-1.22.7-1.9.88-.18.13-.38.24-.55.38.06.02.07-.05.1-.06.19-.15.38-.3.61-.39,1.27-.21,1.58,0,1.93,1.33-.04.4-.16.76-.52,1-.17.12-.35.23-.53.35-.16.03-.31.13-.47.13.01,0,.04.06.04.06,0,0,.06-.04.07-.05.12-.05.23-.09.35-.12.2-.11.37-.27.56-.39.28-.12.38-.44.64-.58.44-.25.9-.48,1.42-.53.2-.03.4-.07.58-.15.19-.09.39-.18.59-.24.28-.07.56-.09.85-.09.35.04.74,0,.87.45-.12.24-.35.28-.58.32-.27.03-.54.05-.79.16-1.58.58-3.22,1.06-4.37,2.42-.13.11-.26.19-.44.11-.57-.46-.82-1.12-1.05-1.77-.24-.67-.56-1.27-.99-1.82-.09-.19.01-.31.14-.42.97-.68,1.92-1.4,2.99-1.93.37-.17.75-.3,1.11-.48,2.2-.98,4.52-1.07,6.87-.86.28.05.55.17.84.18.21.02.42.05.63.1.19.05.38.12.57.16.14.03.28.06.42.11.14.04.27.1.4.15.13.06.26.13.31.27Z"/>
      <path class="cls-8" d="m111.55,141.63c.09-.12.16-.26.28-.34.51-.37.54-.71.21-1.3-.57-1.01-.08-2.2.94-2.6,1.04-.41,2.18.11,2.54,1.18.37,1.09-.35,2.42-1.49,2.38-1-.03-1.36.52-1.79,1.16-.21.11-.4.03-.58-.09-.12-.11-.21-.23-.11-.4Z"/>
      <path class="cls-7" d="m91.35,146.01c-.3.14-.6.31-.92.41-.98.31-2.05-.24-2.36-1.18-.32-.96.19-2.07,1.1-2.41.97-.36,2.17.05,2.4,1.03.21.87.73,1.07,1.42,1.22.06.29-.16.34-.36.42-.34.05-.67.13-.89.43-.12.1-.25.16-.41.08Z"/>
      <path class="cls-8" d="m104.97,139.32c.18-.54-.33-.58-.59-.8-1.06-.91-.95-2.47.23-3.15.93-.53,2.12-.19,2.62.75.55,1.03.15,2.05-1.05,2.63-.69.24-.22.88-.44,1.28-.07.07-.16.11-.27.1-.18-.09-.31-.24-.44-.4-.08-.13-.13-.26-.07-.42Z"/>
      <path class="cls-160" d="m108.58,152.72c.09.08.18.16.28.24-.46.45-1.06.58-1.66.58-2.74.02-5.47,0-8.21-.01-.33,0-.67-.1-1-.15-.14-.09-.33-.05-.46-.16-.07-.02-.14-.04-.21-.06-.08-.06-.17-.11-.26-.15-.08,0-.14-.02-.19-.09-.08-.04-.15-.09-.21-.16h-.01c-.09-.18.02-.26.15-.34.1-.02.19-.02.29,0,.14.04.28.1.42.15.1.03.2.05.31.08.17.02.35.02.52.03,3.28-.04,6.55.07,9.82-.06.16,0,.3.03.43.12Z"/>
      <path class="cls-118" d="m104.97,139.32l.28.31c.06.28,0,.55-.05.82-.43.96-.81,1.95-1.29,2.89-.87,1.73-1.92,1.94-3.24.57-.73-.76-1.81-1.26-2.01-2.46.09-.09.17-.18.26-.27.6.61,1.2,1.22,1.8,1.82.24.24.48.47.74.68.74.58,1.16.5,1.57-.34.52-1.07,1-2.17,1.5-3.25.12-.27.2-.56.43-.77Z"/>
      <path class="cls-161" d="m92.5,145.33c.18-.06.39-.06.5-.25,1.02.09,1.95.49,2.93.72.25.06.49.17.77.13.98-.15,1.35-.61,1.23-1.61-.11-.89-.24-1.78-.36-2.67.17-.11.19-.29.21-.47.14-.06.24-.03.32.1.54,1.13.53,2.36.62,3.56.03.46-.17.86-.56,1.14-.37.23-.79.36-1.17.57-1.63.07-3.13-.3-4.49-1.23Z"/>
      <path class="cls-119" d="m111.8,141.89c.15.07.3.15.45.22-.29.74-.75,1.37-1.18,2.02-.34.51-.14.81.22,1.15.36.34.7.53,1.16.15.28-.23.56-.49.93-.6.09.08.18.17.27.25-.73,1.47-2.1,1.7-3.11.53-.51-.58-.61-1.18-.17-1.84.21-.31.41-.63.62-.94.05-.09.11-.17.17-.25.08-.11.18-.22.27-.32.1-.14.23-.26.37-.37Z"/>
      <path class="cls-121" d="m105.49,140.06c.25-.22.16-.53.17-.8.02-.33.14-.55.52-.51-.25.2-.36.44-.32.78.14,1.2.43,2.35.97,3.44.35.71.86,1.12,1.7.93.13,0,.22-.09.32-.17.03-.06.08-.08.15-.06.22-.11.31.03.37.2-.01.12-.06.23-.13.33-.08.1-.17.18-.27.24-1.31.4-2.08.24-2.67-.85-.58-1.07-1.28-2.18-.81-3.52Z"/>
      <path class="cls-120" d="m91.35,146.01c.1-.09.2-.17.3-.26,1.33.47,2.19,1.42,2.73,2.69-.09.09-.18.19-.27.28-.92-.9-1.84-1.81-2.77-2.71Z"/>
      <path class="cls-133" d="m109.32,143.92c-.11-.09-.21-.18-.32-.26.85-.68,1.7-1.36,2.55-2.03.08.09.16.18.25.26,0,.17-.02.34-.19.44-.1.07-.19.15-.27.24l.02-.02c-.59.59-1.01,1.44-2.04,1.37Z"/>
      <path class="cls-47" d="m110.91,168.14c0-.31,0-.61,0-.92.14-.14,0-.39.22-.49.26.35.19.77.23,1.16-.15.08-.31.17-.46.25Z"/>
      <path class="cls-56" d="m115.84,155.99c.31-.1.63-.2.95-.31.07.15.13.29.2.44-.2.01-.4.03-.6.04-.23.1-.46.17-.55-.17Z"/>
      <path class="cls-122" d="m96.91,152.49c-.09.08-.19.17-.28.25-.24-.06-.39-.21-.48-.43.09-.09.18-.18.27-.28.34-.04.47.14.48.45Z"/>
      <path class="cls-122" d="m97.53,153.22c.19-.04.35,0,.46.16-.19.04-.34-.01-.46-.16Z"/>
      <path class="cls-133" d="m108.85,143.72c-.08.11-.18.17-.32.17.08-.11.18-.17.32-.17Z"/>
      <path class="cls-122" d="m96.65,152.75c.11,0,.18.05.21.16-.12.01-.18-.05-.21-.16Z"/>
      <path class="cls-122" d="m97.05,153c.13-.02.21.04.26.15-.13.02-.21-.04-.26-.15Z"/>
      <path class="cls-158" d="m119.76,278.15c.39-.35.65-.61.94-.83,1.79-1.4,4.19-.79,5.07,1.29.37.88.52,1.81.61,2.75.2,2.03.27,4.06-.11,6.08-.14.74-.37,1.46-.74,2.12-.76,1.36-1.92,2.09-3.49,2.12-.83.02-1.65.05-2.47-.2-1.94-.61-3.23-2.23-3.28-4.27-.02-.71-.29-1.6.12-2.09.43-.52,1.35-.11,2.05-.19.15-.02.3.01.45,0,.62-.08.79.23.75.79-.03.37-.02.76.02,1.13.1.98.68,1.52,1.62,1.55.83.03,1.39-.39,1.54-1.33.3-1.87.38-3.75.06-5.63-.16-.9-.54-1.28-1.27-1.36-.78-.08-1.34.26-1.68,1.05-.07.17-.13.35-.18.53q-.25.98-1.28.98c-.53,0-1.06-.02-1.58,0-.37,0-.55-.11-.52-.52.18-2.93.33-5.87.5-8.8.04-.75.1-1.5.12-2.26,0-.44.11-.69.63-.69,2.68.02,5.35.01,8.03,0,.37,0,.55.1.5.53-.07.6-.1,1.2-.1,1.8,0,.49-.2.65-.68.64-1.51-.02-3.02-.01-4.53,0-.91,0-.93.01-.95.92-.03,1.24-.27,2.47-.16,3.89Z"/>
      <path class="cls-158" d="m107.79,288.28c1.71,0,3.44,0,5.16,0q1.54,0,1.54,1.55,0,1.81-1.75,1.81c-2.41,0-4.82.02-7.23.03-.88,0-.89,0-.9-.84-.01-.87.05-1.74-.01-2.6-.09-1.36.35-2.52,1.19-3.55,1.24-1.51,2.5-3.02,3.78-4.5,1.25-1.44,1.81-3.1,1.75-4.99-.01-.35-.07-.67-.19-.99-.29-.77-.96-1.16-1.79-1.06-.86.1-1.38.59-1.44,1.46-.05.79-.02,1.58,0,2.37.02.47-.12.7-.63.67-.68-.03-1.36-.02-2.03,0-.4.01-.53-.17-.52-.54.02-1.02-.04-2.04.06-3.05.19-2,1.93-3.68,3.96-3.89.63-.06,1.28-.05,1.92-.01,1.77.11,3,1,3.48,2.72.82,2.96.81,5.78-1.44,8.26-1.47,1.61-2.81,3.35-4.21,5.03-.49.59-.93,1.2-.68,2.12Z"/>
      <path class="cls-109" d="m115.19,287.28c-2.05.19-4.09.04-6.3.08.59-1.08,1.39-1.77,2.02-2.58,1-1.27,2.05-2.49,3.06-3.75.74-.92,1.27-1.95,1.46-3.13.06-.11.13-.12.2,0,.1,1.89-.3,3.75-.21,5.64.08.12.08.24,0,.35-.33,1.12.09,2.29-.23,3.41Z"/>
      <path class="cls-104" d="m120.82,281.74c.05-.36.18-.68.61-.67.42.01.5.34.57.7.22,1.22.34,2.42.04,3.65-.1.39-.01.82-.06,1.23-.08.73-.32.82-1.14.48-.15-1.52-.14-3.05-.09-4.58.02-.27-.05-.56.08-.82Z"/>
      <path class="cls-153" d="m120.83,282.41c0,1.57,0,3.15,0,4.72-.39-.41-.18-.92-.23-1.38-.06-.58.15-1.2-.22-1.74-1.17-.3-2.35-.05-3.53-.14-.48-.04-.97.12-1.43-.11,0-.08,0-.16.01-.24,1.34.02,2.68.04,4.02.06,1.1.01,1.1,0,1.19-1.17.07-.1.13-.11.2,0Z"/>
      <path class="cls-136" d="m115.42,283.76c1.62,0,3.24,0,4.86.02.03,0,.07.02.1.04.07.05.07.11,0,.19-1.41,0-2.83.02-4.24,0-.59-.01-.8.21-.77.78.03.63.01,1.27,0,1.9,0,.21.06.45-.18.6,0-.9,0-1.8,0-2.69,0-.29-.06-.61.23-.83Z"/>
      <path class="cls-154" d="m115.64,277.88c-.07,0-.13,0-.2,0,0-1.06,0-2.12.01-3.18.32.21.07.67.39.88.12.78-.07,1.53-.2,2.29Z"/>
      <path class="cls-145" d="m120.83,282.41h-.1s-.1,0-.1,0c0-.24-.05-.5.19-.67,0,.22,0,.45,0,.67Z"/>
      <path class="cls-26" d="m95.29,256.85c.01.07,0,.14-.03.21-.17-.05-.24-.16-.12-.31.04-.05.13.01.15.1Z"/>
      <path class="cls-100" d="m131.56,257.22c-.05-.04-.07-.09-.06-.15.02-.13.1-.2.22-.25,0,.15.04.32-.16.4Z"/>
      <path class="cls-158" d="m88.78,281.12c0,3.24,0,6.47,0,9.71,0,1.02,0,1.02-1.06,1.02-.6,0-1.2,0-1.81,0-.38,0-.56-.15-.54-.54.01-.26,0-.53,0-.79,0-4.74,0-9.49,0-14.23,0-.97.05-.92-.91-.93-1.62-.01-1.59-.02-1.6-1.61,0-.59.13-.84.78-.91,1.19-.13,2.12-.76,2.61-1.9.23-.53.55-.76,1.11-.68.07.01.15,0,.23,0,1.24,0,1.18-.13,1.18,1.13,0,3.24,0,6.47,0,9.71Z"/>
      <path class="cls-11" d="m68.87,206.42c-.1-.08-.19-.16-.29-.23.07-.03.13-.07.2-.09.48-.21.95-.19,1.34.15.46.4.22.87.05,1.32-.04,0-.09-.01-.13-.02-.11-.01-.22-.02-.32-.03.35-1.07.33-1.1-.84-1.09Z"/>
      <path class="cls-158" d="m95.43,285.81c.05.48.06.86.13,1.22.21,1.01.96,1.66,1.86,1.67.89,0,1.51-.54,1.79-1.58.22-.82.09-1.65.12-2.47.02-.56,0-1.12,0-1.66-.4-.2-.51.14-.69.29-.48.39-.98.66-1.6.77-2.23.37-3.55-.42-4.19-2.58-.2-.69-.33-1.39-.33-2.11,0-1.54-.03-3.09,0-4.63.05-2.29,1.85-4.27,4.13-4.5,1.09-.11,2.18-.1,3.21.39,1.45.68,2.29,1.76,2.47,3.38.12,1.13.1,2.26.1,3.38,0,3.01,0,6.03,0,9.04,0,.76-.05,1.5-.29,2.23-.79,2.36-2.96,3.63-5.53,3.23-2.43-.38-4.09-2.29-4.09-4.77,0-1.53-.18-1.26,1.22-1.28.52,0,1.05,0,1.68,0Z"/>
      <path class="cls-137" d="m98.34,284.71c.13.78.15,1.55-.09,2.32-.12.39-.34.7-.75.73-.48.04-.73-.28-.92-.68-.2-.42-.16-.87-.18-1.32-.02-.44.17-.73.6-.79.44-.05.83-.36,1.33-.26Z"/>
      <path class="cls-82" d="m90.28,158.68c2.65.4,5.34.24,8,.5.34.03.48-.11.54-.41.06-.27.11-.49-.25-.63-.35-.13-.67-.34-.99-.54-.14-.09-.16-.24-.04-.38.08-.1.18-.13.29-.08.1.05.2.1.3.16.98.61,2.04.7,3.16.52.37-.06.75-.06,1.12-.07.1,0,.21.08.23.21.02.13-.05.22-.17.24-.29.06-.59.18-.88.15-.65-.06-.76.26-.82.82-.04.4.08.53.39.66,1.3.57,1.45,1.69.91,2.94-.37.84-.94,1.54-1.65,2.12-.13.1-.27.13-.39-.02-.12-.14-.09-.26.03-.39.36-.38.73-.76,1.06-1.17.26-.32.44-.69.57-1.1.29-.97.08-1.51-.84-1.91-.73-.32-1.51-.45-2.3-.54-1.61-.18-3.23-.23-4.85-.24-.98-.01-1.96-.07-2.93-.2-.19-.03-.38-.03-.56-.09-.19-.06-.49-.1-.39-.42.07-.23.29-.19.47-.14Z"/>
      <path class="cls-73" d="m106.72,173.17c.3-.03.59-.09.86-.23.15-.07.29-.02.38.12.1.16.02.28-.11.37-.77.59-2.1.4-2.88-.4-.76-.79-.9-2.14-.28-2.89.06-.08.13-.19.27-.13.15.06.27.17.23.33-.05.22-.17.42-.22.63-.28,1.15.57,2.21,1.75,2.19Z"/>
      <path class="cls-99" d="m104.86,174.92c.27,0,.52-.06.76-.18.18-.09.39-.11.49.08.11.21-.06.33-.23.43-.87.51-2.08.3-2.74-.53-.73-.91-.72-1.81-.15-2.7.08-.12.19-.26.36-.15.13.08.21.21.14.37-.09.21-.21.41-.26.62-.26,1.08.53,2.07,1.62,2.06Z"/>
      <path class="cls-95" d="m104.6,161.8c-.02.63-.33,1.34-.79,2-.08.12-.22.21-.38.11-.14-.09-.21-.21-.11-.37.04-.06.07-.13.11-.2.71-1.12.8-2.24.04-3.37-.1-.15-.23-.33,0-.49.28-.2.4.04.52.22.37.58.61,1.21.61,2.1Z"/>
      <path class="cls-46" d="m110.62,166.17c-.38-.57-.76-1.14-1.25-1.86.92.47.94.49,1.48,1.58-.04.12-.06.26-.22.28Z"/>
      <path class="cls-40" d="m110.62,166.17c.07-.09.15-.19.22-.28.16.26.31.52.3.84-.04.18-.05.37-.22.49-.1-.35-.2-.7-.3-1.05Z"/>
      <path class="cls-157" d="m111.11,162.94c-.23-.24-.48-.46-.53-.91.45.06.6.37.75.68-.04.11-.12.18-.22.23Z"/>
      <path class="cls-58" d="m111.11,162.94c.07-.08.15-.15.22-.23.11.17.3.3.26.54.08.14.07.27-.03.39-.23-.18-.32-.46-.44-.71Z"/>
      <path class="cls-18" d="m115.84,155.99c.15.16.36.15.55.17-.17.07-.33.17-.51.21-.12.02-.34.07-.35-.14,0-.17.15-.23.31-.24Z"/>
      <path class="cls-17" d="m112.06,164.51c.28.21.22.49.12.85-.23-.29-.25-.59-.33-.86.07-.09.14-.09.21.01Z"/>
      <path class="cls-52" d="m112.06,164.51l-.1-.02h-.1c-.08-.22-.15-.44-.23-.66.07-.1.15-.11.23-.01.25.18.21.44.21.69Z"/>
      <path class="cls-50" d="m111.85,163.82c-.08,0-.15,0-.23.01-.06-.05-.08-.11-.06-.19.01-.13.02-.26.03-.39.2.14.25.34.26.56Z"/>
      <path class="cls-61" d="m67.49,205.94c-.13-.02-.26-.03-.4-.05.07-.08.17-.16.21-.26.3-.63.24-.76-.45-.86-.18-.03-.37-.02-.56-.03,0-.05-.02-.11-.03-.16.4-.22.82-.17,1.23-.04.43.19.51.51.34.93-.05.09-.1.17-.16.25-.01.12-.07.19-.19.21Z"/>
      <path class="cls-83" d="m64.97,202.5c.1-.17.29-.15.45-.21.13.01.27.02.4.03.09.06.18.11.27.16v.1c.05.06.07.12.04.17-.03.05-.05.07-.08.07-.36-.11-.72-.22-1.08-.34Z"/>
      <path class="cls-15" d="m67.49,204.55c-.41.01-.82.03-1.23.04-.08-.02-.17-.04-.25-.06.5-.29.99-.32,1.48.02Z"/>
      <path class="cls-146" d="m66.07,203.55c.08-.15.15-.29.23-.44-.06-.12-.06-.23.01-.35.44.6.43.66-.24,1.09-.1-.1-.1-.2,0-.31Z"/>
      <path class="cls-167" d="m70.04,207.54s.09.02.13.02c-.03.25-.16.39-.42.41.1-.14.19-.28.29-.42Z"/>
      <path class="cls-86" d="m66.07,203.55c0,.1,0,.2,0,.31-.05.05-.11.07-.18.06-.08-.07-.16-.14-.24-.21.14-.05.28-.11.42-.16Z"/>
      <path class="cls-105" d="m66.31,202.77c0,.12,0,.23-.01.35-.08-.09-.16-.19-.25-.28,0-.08.02-.17.03-.25.13,0,.19.08.23.18Z"/>
      <path class="cls-2" d="m66.09,202.48c-.13,0-.22-.04-.27-.16.09.05.18.11.27.16Z"/>
      <path class="cls-3" d="m65.49,204.6c-.06.12-.17.17-.3.16.07-.11.17-.16.3-.16Z"/>
      <path class="cls-80" d="m67.68,205.73l.16-.25c.01.13-.06.19-.16.25Z"/>
      <path class="cls-49" d="m64.26,171.29c.23-.35.38-.67-.26-.69-.21,0-.43-.01-.64-.02,0-.06-.02-.12-.02-.18.05-.03.1-.06.16-.1.36,0,.73-.07,1.09.08.47.29.44.6.04.93-.09.02-.18.05-.27.09-.03-.04-.06-.08-.09-.12Z"/>
      <path class="cls-70" d="m63.35,169.62c.51-.44-.03-.57-.23-.79.05-.1.13-.17.24-.21.95.58.95.68.02,1.36-.03-.03-.06-.07-.1-.1,0-.1.02-.18.07-.26Z"/>
      <path class="cls-9" d="m61.09,168.82c-.09-.09-.17-.17-.26-.26.15-.1.32-.16.51-.15.48.16.99,0,1.48.1.1.07.14.16.11.28-.61,0-1.22.02-1.83.03Z"/>
      <path class="cls-143" d="m62.46,170.61l-.31-.28c.11-.38.5-.31.75-.46.15-.04.31-.05.46.01,0,0,.02.1.02.1,0,.06,0,.13,0,.19.13.1.11.16-.04.2h.03c-.16.21-.47.11-.64.3-.1.04-.18.02-.25-.06Z"/>
      <path class="cls-23" d="m62.94,168.61c-.53-.12-1.1.14-1.6-.2.53-.11,1.06-.14,1.58.04,0,0,.08.08.08.08-.02.03-.04.06-.07.09Z"/>
      <path class="cls-72" d="m63.36,171.97c.3-.23.6-.46.9-.69,0,0,.08.07.08.07,0,.1-.03.2-.06.29.01.05.01.1,0,.15-.13.12-.22.3-.42.33-.09.02-.18.02-.28,0-.04-.02-.09-.04-.13-.05-.03-.03-.06-.07-.09-.11Z"/>
      <path class="cls-89" d="m64.72,172.21c-.17.17-.39.23-.62.25-.09.05-.18.06-.28.04-.06-.08-.09-.17-.07-.27.14-.14.34-.17.51-.26.15.01.31.02.46.03.07.05.09.1.07.15-.03.05-.05.07-.08.07Z"/>
      <path class="cls-67" d="m64.72,172.21c0-.07,0-.14,0-.21.42-.1.86-.24,1.19.2-.11.01-.22.03-.33.04-.29,0-.58-.02-.87-.03Z"/>
      <path class="cls-19" d="m63.33,170.37c0-.07.02-.14.04-.2.41.03.85-.15,1.21.21-.42,0-.83,0-1.25,0Z"/>
      <path class="cls-159" d="m64.27,171.96c-.09.18-.25.22-.44.2-.06-.06-.08-.11-.04-.13.01,0,.05-.01.1-.01.13-.08.26-.15.38-.23,0,.05,0,.11,0,.16Z"/>
      <path class="cls-93" d="m62.92,168.79c0-.06,0-.12.01-.17,0,0,0-.01,0-.01.07-.09.14-.1.23-.03.07,0,.14,0,.2.05-.08.07-.16.14-.24.21-.07,0-.14,0-.2-.04Z"/>
      <path class="cls-9" d="m63.16,168.57c-.08.01-.16.02-.23.03-.01-.05-.01-.1,0-.16.11-.02.19.03.24.12Z"/>
      <path class="cls-75" d="m64.28,171.65c.02-.1.04-.19.06-.29.09-.02.19-.03.28-.05-.11.11-.23.22-.34.34Z"/>
      <path class="cls-35" d="m63.82,172.43c.09,0,.19.01.28.02-.32.21-.65.41-.97.62,0-.07,0-.15,0-.22-.08-.15,0-.27.06-.39.07-.07.14-.12.24-.15.15-.02.28,0,.38.13Z"/>
      <path class="cls-59" d="m62.93,169.98c-.18.28-.56.13-.77.35-.2.01-.4.02-.6.03,0-.09,0-.17,0-.26.43-.22.92-.23,1.37-.34.07.05.1.09.08.14-.02.05-.05.07-.07.07Z"/>
      <path class="cls-91" d="m62.93,169.98c0-.07,0-.14,0-.22.15-.05.29-.1.44-.15,0,.09,0,.17,0,.26-.14.03-.29.07-.43.1Z"/>
      <path class="cls-27" d="m62.94,172.44c-.09,0-.17,0-.26,0,.18-.22.42-.35.68-.46,0,0,.08.07.08.07.04.07.06.14.05.22-.03.07-.07.13-.14.18h.01c-.14.13-.28.13-.43,0Z"/>
      <path class="cls-103" d="m62.69,170.64c.15-.28.42-.23.66-.26,0,.07,0,.14,0,.21-.22.08-.45.15-.67.23-.08-.04-.1-.08-.08-.12.03-.04.05-.05.08-.05Z"/>
      <path class="cls-96" d="m62.69,170.64c0,.06,0,.12,0,.17-.14.1-.26.24-.46.23,0-.06,0-.12.01-.18.07-.08.15-.17.22-.25.08,0,.15.02.23.02Z"/>
      <path class="cls-128" d="m61.99,171.29c.04-.11.11-.19.25-.17-.04.12-.12.18-.25.17Z"/>
      <path class="cls-44" d="m62.94,172.44c.14,0,.29,0,.43,0-.08.14-.16.28-.23.43-.08,0-.16,0-.25,0l-.06-.09.08-.07c0-.08.02-.17.03-.25Z"/>
      <path class="cls-140" d="m62.92,172.69c0,.06-.01.11-.02.17-.07.03-.14.04-.21.04.01-.14.1-.2.24-.21Z"/>
      <path class="cls-169" d="m109.32,143.92c.8-.28,1.28-1.03,2.04-1.37-.15.56-.48,1.02-.82,1.46-.42.55-.3.95.15,1.36.16.15.32.31.49.47.45.41.93.45,1.42.07.35-.27.78-.45,1.05-.83.87-.42,1.63-1.07,2.63-1.2.27-.02.61-.27.72.23,0,0,0,.06,0,.06-1.41.45-2.46,1.41-3.46,2.44-.41.43-.79.89-1.2,1.36-1.26-.8-2.49-1.6-3.94-1.96-.11-.02-.23-.05-.34-.07-.13,0-.22-.09-.33-.14-.14-.03-.28-.05-.42-.08-.15-.09-.33-.08-.48-.15-.2-.08-.41-.13-.63-.08-.23-.13-.5-.05-.73-.15-2.5-.36-4.91,0-7.26.86-.23.06-.29-.04-.23-.25.44-.33.52-.78.45-1.3-.16-1.14-.33-2.29-.49-3.43-.04-.23.05-.3.26-.23.15.15.3.3.45.45.71.98,1.55,1.83,2.48,2.59,1.03.85,1.82.65,2.4-.57.5-1.05.99-2.11,1.48-3.16.12-.12.17-.36.42-.21l.06-.03c.08,1.14.4,2.21.93,3.2.66,1.24,1.37,1.43,2.68.8.08-.02.15-.06.2-.13h.02Z"/>
      <path class="cls-33" d="m117,144.11c-.18-.26-.49-.13-.72-.23.36-.29.77-.21,1.18-.15-.03.3-.23.36-.46.37Z"/>
      <path class="cls-142" d="m98.21,141c-.09.08-.18.15-.26.23-.06,0-.11-.02-.17-.04,0-.17-.09-.42.08-.49.17-.07.31.11.35.3Z"/>
      <path class="cls-63" d="m96.91,152.49c-.11-.21-.28-.34-.48-.45.09-.47.52-.62.84-.85,1.11-.79,2.37-1.28,3.67-1.65.21-.13.49,0,.69-.17.22-.02.43-.03.65-.05.61-.39,1.22-.39,1.83,0,.27.02.53.05.8.07.18.05.36.08.54.14,1.29.37,2.52.88,3.58,1.72.66.52.66.52.04,1.04-.17.14-.33.28-.5.43-.43.13-.84.34-1.3.33-3.15-.04-6.31.13-9.46-.11-.09-.04-.18-.08-.27-.13-.07-.02-.15-.05-.22-.07-.07-.06-.15-.11-.24-.15-.04-.06-.1-.09-.18-.1Z"/>
      <path class="cls-172" d="m101.28,149.09c-.26.02-.52.04-.78.06-.2.09-.29-.02-.36-.19q.24-1.57-1.02-2.26c-.06-.1-.06-.19.01-.28,1.01-.42,2.09-.56,3.16-.73.91-.12,1.82-.13,2.72,0l.83.06c.23.13.51.04.74.16.14.02.28.04.42.06.14.06.28.11.34.28-.04.28-.28.41-.46.59-.92.57-.59,1.38-.43,2.16-.09.15-.2.25-.38.15-.27-.02-.53-.04-.8-.05-.37-.19-.78-.02-1.16-.13-.13-.12-.17-.28-.15-.45.05-.22.21-.39.33-.57.33-.52.21-1-.21-1.4-.34-.33-.75-.29-1.11-.01-.44.34-.71.75-.41,1.34.1.2.23.38.26.61-.05.32-.28.46-.56.52-.33,0-.66-.02-.98.09Z"/>
      <path class="cls-78" d="m106.82,146.59c.15-.13.3-.27.45-.4.05-.09.13-.11.21-.05.14.03.27.06.41.09,1.08.51,2.25.82,3.21,1.56.03.23-.03.34-.28.27-.15,0-.3-.03-.45,0-.65.13-1.1.49-1.21,1.16-.1.62.21,1.07.75,1.38.18.11.57.1.31.5-.23.35-.42.17-.63-.01-1.02-.92-2.28-1.4-3.52-1.92.09-.07.19-.14.28-.21.03-.03.05-.08.08-.08.74.06,1.6.17,1.81-.76.22-.99-.74-1.11-1.37-1.43-.03-.01-.04-.06-.06-.09Z"/>
      <path class="cls-98" d="m111.33,149.28c.03.38-.43.94-.8.97-.41.04-.9-.4-.92-.82-.02-.41.43-.88.86-.89.4,0,.84.37.86.75Z"/>
      <path class="cls-111" d="m104.13,148.87c.38.08.81-.02,1.15.24-.38.1-.83-.13-1.17.22-.61,0-1.22,0-1.83,0-.28-.31-.67-.15-1.01-.23.29-.27.67-.14,1-.22.62-.17,1.23-.47,1.85,0Z"/>
      <path class="cls-51" d="m110.83,148.05c.09-.09.19-.18.28-.27.07.02.16.02.21.07.24.23.9.34.6.75-.34.46-.49-.32-.83-.36-.09-.01-.18-.12-.27-.19Z"/>
      <path class="cls-111" d="m105.45,149.53c-.2.03-.38-.01-.54-.14.2-.04.39-.04.54.14Z"/>
      <path class="cls-62" d="m94.39,148.44c-.83-.98-1.73-1.88-2.73-2.69-.03-.77.54-.33.85-.42,1.22.35,2.44.7,3.65,1.05.3.09.59.04.89,0,.25-.09.29.03.26.24-.97.61-1.95,1.21-2.92,1.82Z"/>
      <path class="cls-85" d="m95.75,148.19c.6-.46,1.2-.91,1.94-1.14.17-.08.3,0,.41.12.21.79.16,1.75,1.27,1.95.09.05.18.11.25.19.05.11.02.19-.09.24-.54.04-.96.41-1.46.53-.47.02-.42-.27-.34-.57-.42-1.26-.56-1.35-1.98-1.33h0Z"/>
      <path class="cls-76" d="m96.36,148.62c.48.01.83.41.8.9-.03.45-.36.76-.81.77-.48.01-.87-.37-.87-.83,0-.46.41-.84.88-.83Z"/>
      <path class="cls-125" d="m105.01,145.7c-.91,0-1.82,0-2.72,0,.91-.33,1.82-.33,2.72,0Z"/>
      <path class="cls-13" d="m97.31,146.62c-.09-.08-.18-.16-.26-.24.27-.23.6-.34.94-.43.08.08.15.17.23.25-.25.25-.57.35-.91.42Z"/>
      <path class="cls-14" d="m95.93,151.18c-.14-.17-.32-.39.05-.46.28-.06.59-.01.88-.01.06.05.08.1.06.14-.03.04-.05.06-.08.06-.14.08-.27.17-.41.25-.17,0-.34,0-.51.02Z"/>
      <path class="cls-36" d="m99.13,146.43c-.01.06-.01.13,0,.19-.18.45-.48.64-.97.48-.07-.11-.06-.22.03-.31.08-.06.17-.13.25-.19.1-.04.17-.13.28-.15.13,0,.27-.01.4-.02Z"/>
      <path class="cls-30" d="m97.72,149.51c.06.22.09.46.34.57-.19.24-.44.37-.75.4h0c.14-.32.27-.65.41-.97Z"/>
      <path class="cls-57" d="m100.25,148.91c.08.08.17.16.25.25-.16.08-.32.17-.48.25-.16.07-.32.09-.46-.05v.02c-.02-.53.3-.55.69-.46Z"/>
      <path class="cls-65" d="m95.93,151.18c.16-.25.33-.28.51-.02-.16.16-.32.39-.51.02Z"/>
      <path class="cls-116" d="m95.02,148.65c.16-.27.41-.42.73-.46,0,0,0,0,0,0-.06.25-.24.38-.45.49-.1.11-.19.11-.27-.02Z"/>
      <path class="cls-111" d="m101.63,149.37c-.21.16-.44.18-.69.17.19-.23.44-.19.69-.17Z"/>
      <path class="cls-21" d="m95.02,148.65c.09,0,.18.02.27.02-.06.17-.15.4-.35.32-.17-.07-.05-.24.08-.34Z"/>
      <path class="cls-165" d="m106.58,145.92c-.26.02-.52,0-.74-.16.26-.02.54-.08.74.16Z"/>
      <path class="cls-152" d="m96.84,150.92c0-.07.01-.14.02-.21.09-.2.25-.26.45-.23h0c-.04.27-.26.35-.47.43Z"/>
      <path class="cls-165" d="m105.48,145.33c.26-.05.51-.03.73.15-.26.02-.52.08-.73-.15Z"/>
      <path class="cls-37" d="m98.2,146.78c.01.11.02.22.04.33.04.17-.04.24-.2.25-.11-.11-.23-.21-.34-.32.12-.19.32-.22.51-.27Z"/>
      <path class="cls-121" d="m99.56,149.35c.15.02.31.03.46.05-.13.16-.31.18-.5.15.02-.07.03-.13.04-.2Z"/>
      <path class="cls-165" d="m107.49,146.14c-.07.01-.14.03-.21.05-.09-.07-.18-.14-.26-.21.18-.02.35,0,.48.15Z"/>
      <path class="cls-165" d="m106.83,145.56c.19-.04.35.01.48.15-.18.02-.36.01-.48-.15Z"/>
      <path class="cls-165" d="m107.74,145.79c.14-.02.25.02.33.14-.11-.05-.22-.09-.33-.14Z"/>
      <path class="cls-121" d="m98.73,146.45c-.06.11-.16.16-.28.15.09-.05.19-.1.28-.15Z"/>
      <path class="cls-42" d="m105.44,140.09c-.14.07-.28.14-.42.21-.04-.27.19-.44.23-.68.26.07.22.27.19.46Z"/>
      <path class="cls-122" d="m97.09,152.58c.12-.01.19.05.24.15-.12.01-.2-.04-.24-.15Z"/>
      <path class="cls-122" d="m97.55,152.81c.12-.02.22.01.27.13-.13.03-.22-.02-.27-.13Z"/>
      <path class="cls-25" d="m111.34,142.57c0-.18.11-.24.27-.24-.05.12-.11.24-.27.24Z"/>
      <path class="cls-133" d="m109.3,143.93c-.07.04-.13.09-.2.13.07-.04.13-.09.2-.13Z"/>
      <path class="cls-87" d="m99.2,277.31c0,.68.03,1.35,0,2.03-.06,1.12-.8,1.84-1.86,1.85-1.08.02-1.93-.65-1.98-1.75-.08-1.5-.07-3.01,0-4.51.05-1.1.9-1.81,1.94-1.8,1.13,0,1.84.72,1.92,1.92,0,.07,0,.15,0,.23,0,.68,0,1.35,0,2.03h0Z"/>
      <path class="cls-126" d="m99.81,158.48c.25.04.42.16.44.42.02.27-.13.43-.38.45-.29.02-.52-.1-.5-.45.02-.26.2-.38.44-.42Z"/>
      <path class="cls-151" d="m63.36,172.44c0-.07,0-.15,0-.22.07-.08.14-.15.2-.23.11.01.22.03.32.04,0,.05-.02.1-.06.14,0,.09-.01.18-.02.27-.15,0-.3,0-.45,0Z"/>
      <path class="cls-69" d="m63.57,171.99c0,.14-.1.19-.2.23.01-.06.04-.12.08-.17.04-.01.08-.03.12-.05Z"/>
      <path class="cls-134" d="m106.56,144.89c-.92-.11-1.85-.21-2.82-.33.33-1.07.83-2.01,1.36-3.08.48,1.2.75,2.36,1.7,3.13.07.22,0,.31-.23.27Z"/>
      <path class="cls-107" d="m101.04,144.75q-1.98.8-2.16-1.16c-.01-.15-.03-.3-.05-.44-.01-.13-.12-.26.05-.45.69.66,1.38,1.32,2.15,2.05Z"/>
      <path class="cls-148" d="m109.97,145.98c-.69-.26-1.38-.52-2.08-.78.07-.19.23-.17.36-.18.44-.03.83-.52,1.24-.27.32.2.5.63.74.96.05.22-.02.33-.26.27Z"/>
      <path class="cls-31" d="m109.97,145.98c.09-.09.17-.18.26-.27.23.11.39.3.58.57-.39.07-.62-.11-.84-.31Z"/>
      <path class="cls-22" d="m106.56,144.89c.08-.09.16-.18.23-.27.21.07.41.14.55.35-.29.15-.54.12-.78-.09Z"/>
      <path class="cls-45" d="m112.04,146.87c.07-.23.27-.2.44-.24.06.05.09.1.08.15,0,.06-.02.09-.04.09-.07.07-.11.18-.24.16-.1-.03-.18-.09-.24-.17Z"/>
      <path class="cls-71" d="m112.52,146.88c-.01-.08-.03-.16-.04-.25.03-.09.12-.14.16-.08.12.15.04.26-.12.33Z"/>
      <path class="cls-162" d="m112.04,146.87c.08.06.16.11.24.17-.16.06-.3.09-.24-.17Z"/>
      <path class="cls-108" d="m108.65,151.84c-.53.51-1.08.67-1.71.66-2.63-.01-5.27,0-7.9,0-.61,0-1.17-.12-1.68-.49,2.91-2.68,8.55-2.79,11.29-.17Z"/>
      <path class="cls-121" d="m98.03,147.37c.07-.08.14-.17.2-.25.3-.17.6-.33.9-.5,1.47.28,1.8.96,1.12,2.29-.23.15-.54.18-.68.46-1.45-.28-1.68-.58-1.54-2Z"/>
      <path class="cls-112" d="m106.82,146.59c.19,0,.37-.03.56,0,.83.13,1.35.82,1.2,1.57-.16.76-.88,1.19-1.7,1-.18-.04-.34-.14-.51-.21-.69-1.16-.62-1.52.46-2.36Z"/>
      <path class="cls-113" d="m102.72,148.49c-.44-.34-.69-.78-.58-1.35.11-.56.57-1.01,1.14-1.09.53-.08.96.13,1.26.55.33.46.38.97.06,1.46-.12.18-.31.32-.46.47-.48.37-.95.43-1.41-.03Z"/>
      <path class="cls-131" d="m101.62,147.13c-.04.34.02.66.11.99.04.16-.06.27-.24.3-.17.02-.3-.05-.31-.22-.01-.45-.12-.88-.35-1.27-.12-.22,0-.35.19-.42.21-.08.45-.17.62.01.17.18-.05.41-.03.63Z"/>
      <path class="cls-10" d="m102.72,148.49c.46.24.93.25,1.41.03,0,.12,0,.23,0,.35-.62,0-1.23,0-1.85,0,.15-.13.3-.26.45-.39Z"/>
      <path class="cls-115" d="m105.44,147.39c-.17-.53-.39-.81.02-.98.08-.04.28,0,.31.06.14.3-.15.44-.32.92Z"/>
      <path class="cls-155" d="m105.41,148.24c-.02.06-.04.15-.07.16-.05.01-.12-.04-.18-.06.03-.06.06-.12.1-.16.07-.06.13-.03.15.07Z"/>
      <path class="cls-130" d="m109.25,147.88c-.12-.05-.15-.16-.12-.27.03-.13.14-.16.24-.09.06.04.13.11.12.16-.02.12-.13.17-.25.19Z"/>
      <polygon class="cls-55" points="108.45 149.46 108.53 149.43 108.53 149.51 108.45 149.46"/>
      <path class="cls-132" d="m110.62,149.39c-.03.11-.1.19-.22.15-.11-.03-.16-.14-.11-.24.02-.05.1-.1.16-.1.12-.01.18.06.17.19Z"/>
      <path class="cls-127" d="m93.95,146.39c.56.09,1.1.22,1.6.48-.03.1-.04.18-.08.22q-.91.7-1.71-.11c-.1-.11-.2-.23-.29-.34-.02-.43.23-.34.48-.25Z"/>
      <path class="cls-141" d="m93.95,146.39c-.18.04-.39.04-.48.25-.16-.08-.35-.17-.29-.38.02-.05.26-.07.39-.05.13.02.25.12.38.19Z"/>
      <path class="cls-150" d="m96.38,149.75c-.16,0-.29-.08-.3-.24-.02-.15.08-.28.24-.3.16-.02.28.06.29.23.01.15-.04.28-.22.31Z"/>
      <path class="cls-109" d="m98.24,277.18c0,.68.02,1.36,0,2.03-.02.68-.37,1.05-.92,1.06-.56.01-.93-.35-.94-1.02-.02-1.36-.02-2.71,0-4.07.01-.7.34-1.05.9-1.06.56-.01.93.35.96,1.02.03.68,0,1.36,0,2.03Z"/>
      <path class="cls-97" d="m99.31,148.82c-.46.02-.86-.38-.87-.84,0-.45.41-.87.85-.86.41,0,.77.37.8.78.03.47-.33.9-.78.92Z"/>
      <path class="cls-101" d="m107.23,147.07c.45-.01.9.39.9.83,0,.43-.44.84-.9.82-.49-.02-.75-.31-.82-.77-.06-.44.35-.87.82-.88Z"/>
      <path class="cls-64" d="m104.31,147.33c.02.45-.38.89-.83.89-.44,0-.89-.43-.88-.86,0-.38.39-.78.8-.82.48-.05.89.31.92.79Z"/>
      <path class="cls-138" d="m99.47,147.91c.03.16-.04.23-.15.24-.05,0-.14-.03-.16-.08-.05-.1-.02-.22.08-.25.07-.02.17.06.24.08Z"/>
      <path class="cls-135" d="m107.44,147.96c-.03.11-.11.21-.22.15-.07-.03-.1-.16-.12-.25,0-.02.1-.09.16-.09.11,0,.2.05.18.19Z"/>
      <path class="cls-114" d="m103.26,147.35c.03-.12.11-.2.23-.16.11.03.16.14.14.25-.02.11-.07.21-.22.16-.11-.04-.17-.12-.16-.25Z"/>
    </g>
  </g>
</svg>