<?xml version="1.0" encoding="UTF-8"?>
<svg id="Layer_2" data-name="Layer 2" xmlns="http://www.w3.org/2000/svg" xmlns:xlink="http://www.w3.org/1999/xlink" viewBox="0 0 33.56 19.58">
  <defs>
    <style>
      .cls-1 {
        clip-path: url(#clippath);
      }

      .cls-2 {
        fill: none;
      }

      .cls-2, .cls-3, .cls-4, .cls-5, .cls-6 {
        stroke-width: 0px;
      }

      .cls-7 {
        clip-path: url(#clippath-1);
      }

      .cls-8 {
        clip-path: url(#clippath-4);
      }

      .cls-9 {
        clip-path: url(#clippath-3);
      }

      .cls-10 {
        clip-path: url(#clippath-2);
      }

      .cls-11 {
        clip-path: url(#clippath-7);
      }

      .cls-12 {
        clip-path: url(#clippath-8);
      }

      .cls-13 {
        clip-path: url(#clippath-6);
      }

      .cls-14 {
        clip-path: url(#clippath-5);
      }

      .cls-15 {
        clip-path: url(#clippath-9);
      }

      .cls-16 {
        clip-path: url(#clippath-13);
      }

      .cls-17 {
        clip-path: url(#clippath-12);
      }

      .cls-18 {
        clip-path: url(#clippath-10);
      }

      .cls-19 {
        clip-path: url(#clippath-11);
      }

      .cls-3 {
        fill: #2d6b4f;
      }

      .cls-4 {
        fill: #c0003b;
      }

      .cls-5 {
        fill: #fff;
      }

      .cls-6 {
        fill: #f5cd28;
      }
    </style>
    <clipPath id="clippath">
      <rect class="cls-2" width="33.56" height="19.58"/>
    </clipPath>
    <clipPath id="clippath-1">
      <rect class="cls-2" width="33.56" height="19.58"/>
    </clipPath>
    <clipPath id="clippath-2">
      <rect class="cls-2" width="33.56" height="19.58"/>
    </clipPath>
    <clipPath id="clippath-3">
      <rect class="cls-2" width="33.56" height="19.58"/>
    </clipPath>
    <clipPath id="clippath-4">
      <rect class="cls-2" width="33.56" height="19.58"/>
    </clipPath>
    <clipPath id="clippath-5">
      <rect class="cls-2" width="33.56" height="19.58"/>
    </clipPath>
    <clipPath id="clippath-6">
      <rect class="cls-2" width="33.56" height="19.58"/>
    </clipPath>
    <clipPath id="clippath-7">
      <rect class="cls-2" width="33.56" height="19.58"/>
    </clipPath>
    <clipPath id="clippath-8">
      <rect class="cls-2" width="33.56" height="19.58"/>
    </clipPath>
    <clipPath id="clippath-9">
      <rect class="cls-2" width="33.56" height="19.58"/>
    </clipPath>
    <clipPath id="clippath-10">
      <rect class="cls-2" width="33.56" height="19.58"/>
    </clipPath>
    <clipPath id="clippath-11">
      <rect class="cls-2" width="33.56" height="19.58"/>
    </clipPath>
    <clipPath id="clippath-12">
      <rect class="cls-2" width="33.56" height="19.58"/>
    </clipPath>
    <clipPath id="clippath-13">
      <rect class="cls-2" width="33.56" height="19.58"/>
    </clipPath>
  </defs>
  <g id="Layer_1-2" data-name="Layer 1">
    <g id="TOGO">
      <g>
        <g class="cls-1">
          <rect class="cls-3" width="33.56" height="19.58"/>
        </g>
        <g class="cls-7">
          <rect class="cls-6" y="3.91" width="33.56" height="3.91"/>
        </g>
        <g class="cls-10">
          <rect class="cls-6" y="11.75" width="33.56" height="3.92"/>
        </g>
        <g class="cls-9">
          <rect class="cls-4" width="11.74" height="11.75"/>
        </g>
        <g class="cls-8">
          <polygon class="cls-5" points="5.87 2.15 4.72 5.69 6.49 6.26 5.87 2.15"/>
        </g>
        <g class="cls-14">
          <polygon class="cls-5" points="5.87 2.15 7.02 5.69 5.25 6.26 5.87 2.15"/>
        </g>
        <g class="cls-13">
          <polygon class="cls-5" points="9.41 4.72 5.69 4.72 5.69 6.58 9.41 4.72"/>
        </g>
        <g class="cls-11">
          <polygon class="cls-5" points="9.41 4.72 6.4 6.91 5.31 5.4 9.41 4.72"/>
        </g>
        <g class="cls-12">
          <polygon class="cls-5" points="2.33 4.72 5.34 6.91 6.44 5.4 2.33 4.72"/>
        </g>
        <g class="cls-15">
          <polygon class="cls-5" points="2.33 4.72 6.05 4.72 6.05 6.58 2.33 4.72"/>
        </g>
        <g class="cls-18">
          <polygon class="cls-5" points="8.06 8.88 6.91 5.34 5.14 5.92 8.06 8.88"/>
        </g>
        <g class="cls-19">
          <polygon class="cls-5" points="8.06 8.88 5.05 6.7 6.14 5.19 8.06 8.88"/>
        </g>
        <g class="cls-17">
          <polygon class="cls-5" points="3.68 8.88 6.7 6.7 5.6 5.19 3.68 8.88"/>
        </g>
        <g class="cls-16">
          <polygon class="cls-5" points="3.68 8.88 4.84 5.34 6.6 5.92 3.68 8.88"/>
        </g>
      </g>
    </g>
  </g>
</svg>