<?xml version="1.0" encoding="UTF-8"?>
<svg id="Layer_2" data-name="Layer 2" xmlns="http://www.w3.org/2000/svg" viewBox="0 0 218.54 532.76">
  <defs>
    <style>
      .cls-1 {
        fill: #fff;
      }

      .cls-1, .cls-2 {
        stroke-width: 0px;
      }

      .cls-2 {
        fill: #001c58;
      }
    </style>
  </defs>
  <g id="Layer_1-2" data-name="Layer 1">
    <path class="cls-2" d="m17.72,447.34c-1.84-.46-3.43-1.6-4.66-3.32-6.23,9.61-8.85,18.2-6.56,25.91,9.58,32.35,38.12,56.24,72.31,59.42-32.67-9.92-56.85-43.96-61.08-82.01m-6.69-19.12c-2.06-1.47-3.82-2.84-5.08-4.04-2.18,8.05-3.19,16.56-2.83,25.34.07,1.77.2,3.53.37,5.27,1.26-5.18,3.75-10.6,7.32-16.12-.69-3.23-.58-6.91.22-10.44Zm1.61-4.94c.86-1.96,1.94-3.77,3.23-5.3,1.04-1.22,2.14-2.19,3.31-2.91,3.11-14.49,9.6-27.39,19.09-37.15-14.17,10.08-25.03,24.44-30.74,41.11.76,1.04,2.77,2.61,5.11,4.25Zm122.59,74.38c-7.07-.79-16.54-2.66-20.67-4.09-4.61-1.59-8.71-5.45-10.97-10.32-.93-2.01-1.78-4.69-1.91-7.93-.08-1.94.11-4.08.68-6.39-25.94-7.91-53.41-18.9-72.53-29.11-.67,1.23-1.44,2.38-2.31,3.4-1.44,1.7-3.05,2.94-4.72,3.64,1.8,15.91,7.32,31.51,16.12,45.09,11.67,18.02,27.57,30.37,44.74,34.26,6.09,1.37,14.04,3.08,21.16,1.51,26.4-5.84,47.91-24.1,58.43-48.12-1.23.22-2.62.34-4.1.4-6.02,17.62-18.69,18.24-23.92,17.66Zm34.93-54.94c-.37-9.28-2.25-18.14-5.38-26.36-3.85-10.08-16.72-17.24-33.67-21.07-31.33-7.08-72.5,4.62-98.69,26.65,1.01,4.02.71,8.81-.64,13.18,18.87,10.15,46.32,21.13,72.21,29.01,6.09-14,17.76-16.66,26.86-14.39,6.52,1.63,10.71,2.48,13.77,3.09l3.37.71c4.33,1.01,8.12,3.89,10.4,7.89,1.61,2.83,3.09,7.3,2.08,13.46,3.18-.19,4.72-.72,5.08-1.14,3.4-9.69,5.05-20.17,4.6-31.04Zm-14.85,32.18c1.04-5.16-.08-8.76-1.34-10.95-1.57-2.77-4.18-4.76-7.13-5.45l-3.22-.68c-2.93-.59-7.36-1.49-13.99-3.15-8.88-2.22-16.5,1.85-20.71,10.92,4.33,1.26,8.59,2.42,12.74,3.47.67-3.23.81-5.47.81-5.51.09-1.4,1.29-2.47,2.69-2.39,1.4.08,2.47,1.28,2.39,2.68,0,.18-.17,2.75-.94,6.42.82.19,1.65.39,2.45.57.83.19,1.65.37,2.46.54.72-3.57,1.19-6.61,1.2-6.67.21-1.39,1.51-2.34,2.89-2.13,1.39.21,2.34,1.5,2.14,2.89-.04.24-.51,3.29-1.25,6.93,1.7.33,3.32.62,4.85.88.56-3.08.7-5.53.7-5.58.07-1.4,1.26-2.48,2.66-2.41,1.41.07,2.49,1.26,2.42,2.66,0,.21-.15,2.78-.75,6.1,3.52.48,6.48.74,8.93.85Zm-47.11,6.21c1.99,4.29,5.45,6.77,8.02,7.65,3.35,1.16,12.21,3.02,19.56,3.83,8.07.89,14.38-3.6,17.97-12.67-2.7-.16-5.59-.47-8.58-.89-.56,1.83-1.28,3.65-2.2,5.26-.69,1.22-2.24,1.64-3.46.95-1.22-.69-1.65-2.25-.95-3.47.61-1.07,1.11-2.29,1.53-3.54-1.58-.27-3.17-.57-4.74-.87-.54,2.11-1.16,4.11-1.8,5.61-.56,1.29-2.06,1.87-3.35,1.31-1.29-.56-1.87-2.06-1.31-3.34.53-1.2,1.03-2.84,1.49-4.61-.82-.18-1.64-.36-2.45-.54-.85-.19-1.73-.4-2.6-.61-.46,1.47-1,3-1.65,4.56-.54,1.29-2.04,1.9-3.33,1.35-1.29-.54-1.9-2.04-1.35-3.33.55-1.28,1-2.55,1.39-3.78-4.28-1.09-8.68-2.29-13.15-3.6-1.07,4.68-.14,8.34.97,10.73Zm-83.75-63.35c-1.13-.21-3.36-.19-5.6,2.24-3.54,3.84-5.2,9.03-4.94,15.43h0c.07,1.63.3,2.55.76,3.86.82,2.33,2.81,3.87,4.25,4.13,1.72.32,3.66-.69,5.48-2.84,3.96-4.7,5.67-13.32,3.73-18.83-.81-2.29-2.11-3.72-3.68-4Z"/>
    <path class="cls-1" d="m50.43,0C17.68,0,9.91,16.79,9.91,16.79c0,0,37.79-2.73,37.79,34.59,0,16.79-9.14,28.18-18.81,40.23-11.24,13.99-23.97,29.85-23.97,56.45,0,44.04,28.29,64.7,53.25,82.92,21.75,15.88,42.28,30.88,42.28,59.12s-12.46,50.41-18.14,56.1c-9.53,9.54-18.13,11.27-25.02,12.66-7.09,1.43-13.78,2.8-15.18,12.98C15.88,387.59,0,415.64,0,446.07c0,1.19.02,2.38.07,3.57.94,23.13,10.83,44.5,27.85,60.18,17.02,15.69,39.12,23.8,62.25,22.86,23.12-.94,44.5-10.83,60.18-27.85,15.69-17.02,23.8-39.13,22.86-62.25-1.43-35.3-23.83-65.9-57.07-77.95l.13.05s-.45-.18-.45-.18c0,0-.78-.28-.78-.28-4.2-1.45-8.97-3.1-8.97-13.91s4.75-11.34,14.22-13.08c5.63-1.03,12.51-2.29,19.26-6.42,12.01-7.33,14.27-16.18,12.08-18.36-2.98-2.98-6.26,3.28-18.35,6.92-4.36,1.32-8.75,2.08-11.71,2.08-2.46,0-4.3-.21-5.66-.45,6.35-11.9,13.47-21.64,13.54-21.74l1.55-2.11-1.85-1.85c-2.46-2.46-3.87-7.57-3.87-14.42,0-8.45,2.15-19.56,7.14-31.61,5.9-14.24,29.33-60.73,83.08-60.73h3.05v-3.05c0-19.21-1.76-36.88-5.21-52.52l-.67-3.04s-5.22,1.48-9.56,2.45c-.52.11-4.58,1.11-4.77.25-.16-.76,2.97-2.34,4.06-2.88,4.08-2.03,9.17-4.17,9.17-4.17l-.7-2.44c-3.83-13.38-7.69-19.77-7.86-20.04l-1.25-2.04-2.27.72c-44.75,14.1-54.32,43.79-60.04,61.54-2.78,8.62-4.5,13.5-7.62,13.5-9.24,0-16.88-7.64-19.39-10.15-27.9-27.9-25.76-48.02-22.52-78.48,1.15-10.75,2.44-22.93,2.44-36.83C92.35,16.33,79.03,0,50.43,0"/>
    <path class="cls-2" d="m103.5,290.1c0,28.28-12.06,51.28-19.03,58.25-21.6,21.6-39.41,5.87-39.61,27.54-9.8,8.88-16.85,22.37-20.31,37.78.22.02.43.05.64.09,2.03.37,3.77,1.53,5.1,3.36,27.43-22.36,69.67-34.11,101.95-26.81,10.26,2.32,18.97,6.11,25.56,11.91-9.91-16.04-25.07-28.41-42.98-34.83-4.25-1.53-11.81-3.27-11.81-17.07,0-25.75,28.17-5.73,46.73-33.78.91-1.38-.4-2.59-1.49-1.5-5.61,5.61-19.4,9.47-26.7,9.47s-10.05-1.66-10.05-1.66c6.89-13.71,15.48-25.39,15.48-25.39-17.23-17.23,11.77-111.96,88.5-111.96,0-21.97-2.32-39.11-5.14-51.86-1.83.44-16.28,3.85-16.94.81-.58-2.69,10.65-8.53,14.51-10.45-3.77-13.13-7.53-19.29-7.53-19.29-65.77,20.72-52.55,75.17-68.57,75.17-10.43,0-18.62-8.12-21.54-11.04-39.28-39.28-20.97-65.27-20.97-117.47,0-35.16-13.66-48.33-38.87-48.33S16.2,13.97,16.2,13.97c0,0,34.55,1.12,34.55,37.41S7.96,99.86,7.96,148.06c0,80.23,95.54,78.73,95.54,142.05M57.96,51.38c0-4.66-.5-8.86-1.41-12.66,0,0,7.52-.39,7.52-9.55,0-7.54-5.03-12.69-6.38-12.69-1.09,0-1.36,1.16-3.72,1.16-5.74,0-6.16-7.34-6.16-7.34.85-.03,1.72-.04,2.62-.04,16.44,0,31.66,4.98,31.66,41.12,0,13.37-1.27,25.26-2.38,35.75-1.11,10.36-2.13,20-1.83,29.41,0,0-28.63-3.37-28.63-24.92,0-13.99,8.72-17.39,8.72-40.24ZM17.72,447.34c-1.84-.46-3.43-1.6-4.66-3.32-6.23,9.61-8.85,18.2-6.56,25.91,9.58,32.35,38.12,56.24,72.31,59.42-32.67-9.92-56.85-43.96-61.08-82.01Zm-6.69-19.12c-2.06-1.47-3.82-2.84-5.08-4.04-2.18,8.05-3.19,16.56-2.83,25.34.07,1.77.2,3.53.37,5.27,1.26-5.18,3.75-10.6,7.32-16.12-.69-3.23-.58-6.91.22-10.44Zm1.61-4.94c.86-1.96,1.94-3.77,3.23-5.3,1.04-1.22,2.14-2.19,3.31-2.91,3.11-14.49,9.6-27.39,19.09-37.15-14.17,10.08-25.03,24.44-30.74,41.11.76,1.04,2.77,2.61,5.11,4.25Zm122.59,74.38c-7.07-.79-16.54-2.66-20.67-4.09-4.61-1.59-8.71-5.45-10.97-10.32-.93-2.01-1.78-4.69-1.91-7.93-.08-1.94.11-4.08.68-6.39-25.94-7.91-53.41-18.9-72.53-29.11-.67,1.23-1.44,2.38-2.31,3.4-1.44,1.7-3.05,2.94-4.72,3.64,1.8,15.91,7.32,31.51,16.12,45.09,11.67,18.02,27.57,30.37,44.74,34.26,6.09,1.37,14.04,3.08,21.16,1.51,26.4-5.84,47.91-24.1,58.43-48.12-1.23.22-2.62.34-4.1.4-6.02,17.62-18.69,18.24-23.92,17.66Zm29.55-81.31c-3.85-10.08-16.72-17.24-33.67-21.07-31.33-7.08-72.5,4.62-98.69,26.65,1.01,4.02.71,8.81-.64,13.18,18.87,10.15,46.32,21.13,72.21,29.01,6.09-14,17.76-16.66,26.86-14.39,6.52,1.63,10.71,2.48,13.77,3.09l3.37.71c4.33,1.01,8.12,3.89,10.4,7.89,1.61,2.83,3.09,7.3,2.08,13.46,3.18-.19,4.72-.72,5.08-1.14,3.4-9.69,5.05-20.17,4.6-31.04-.37-9.28-2.25-18.14-5.38-26.36Zm-56.58,64.76c1.99,4.29,5.45,6.77,8.02,7.65,3.35,1.16,12.21,3.02,19.56,3.83,8.07.89,14.38-3.6,17.97-12.67-2.7-.16-5.59-.47-8.58-.89-.56,1.83-1.28,3.65-2.2,5.26-.69,1.22-2.24,1.64-3.46.95-1.22-.69-1.65-2.25-.95-3.47.61-1.07,1.11-2.29,1.53-3.54-1.58-.27-3.17-.57-4.74-.87-.54,2.11-1.16,4.11-1.8,5.61-.56,1.29-2.06,1.87-3.35,1.31-1.29-.56-1.87-2.06-1.31-3.34.53-1.2,1.03-2.84,1.49-4.61-.82-.18-1.64-.36-2.45-.54-.85-.19-1.73-.4-2.6-.61-.46,1.47-1,3-1.65,4.56-.54,1.29-2.04,1.9-3.33,1.35-1.29-.54-1.9-2.04-1.35-3.33.55-1.28,1-2.55,1.39-3.78-4.28-1.09-8.68-2.29-13.15-3.6-1.07,4.68-.14,8.34.97,10.73Zm47.11-6.21c1.04-5.16-.08-8.76-1.34-10.95-1.57-2.77-4.18-4.76-7.13-5.45l-3.22-.68c-2.93-.59-7.36-1.49-13.99-3.15-8.88-2.22-16.5,1.85-20.71,10.92,4.33,1.26,8.59,2.42,12.74,3.47.67-3.23.81-5.47.81-5.51.09-1.4,1.29-2.47,2.69-2.39,1.4.08,2.47,1.28,2.39,2.68,0,.18-.17,2.75-.94,6.42.82.19,1.65.39,2.45.57.83.19,1.65.37,2.46.54.72-3.57,1.19-6.61,1.2-6.67.21-1.39,1.51-2.34,2.89-2.13,1.39.21,2.34,1.5,2.14,2.89-.04.24-.51,3.29-1.25,6.93,1.7.33,3.32.62,4.85.88.56-3.08.7-5.53.7-5.58.07-1.4,1.26-2.48,2.66-2.41,1.41.07,2.49,1.26,2.42,2.66,0,.21-.15,2.78-.75,6.1,3.52.48,6.48.74,8.93.85Zm-130.85-57.13c-1.13-.21-3.36-.19-5.6,2.24-3.54,3.84-5.2,9.03-4.94,15.43h0c.07,1.63.3,2.55.76,3.86.82,2.33,2.81,3.87,4.25,4.13,1.72.32,3.66-.69,5.48-2.84,3.96-4.7,5.67-13.32,3.73-18.83-.81-2.29-2.11-3.72-3.68-4Z"/>
  </g>
</svg>