<?xml version="1.0" encoding="UTF-8"?>
<svg id="Layer_2" data-name="Layer 2" xmlns="http://www.w3.org/2000/svg" xmlns:xlink="http://www.w3.org/1999/xlink" viewBox="0 0 511 563">
  <defs>
    <style>
      .cls-1 {
        filter: url(#outer-glow-1);
      }

      .cls-1, .cls-2, .cls-3, .cls-4, .cls-5, .cls-6, .cls-7, .cls-8, .cls-9, .cls-10, .cls-11, .cls-12, .cls-13, .cls-14, .cls-15 {
        stroke-width: 0px;
      }

      .cls-1, .cls-11 {
        fill: #fecd1b;
      }

      .cls-16 {
        fill: url(#Dégradé_sans_nom_44);
      }

      .cls-16, .cls-17, .cls-18, .cls-19, .cls-20, .cls-21, .cls-22, .cls-23 {
        stroke: #000;
        stroke-miterlimit: 10;
      }

      .cls-2 {
        fill: url(#Dégradé_sans_nom_39-3);
      }

      .cls-3 {
        fill: url(#Dégradé_sans_nom_39-4);
      }

      .cls-4 {
        fill: url(#Dégradé_sans_nom_39-5);
      }

      .cls-5 {
        fill: url(#Dégradé_sans_nom_39-2);
      }

      .cls-6 {
        fill: url(#Dégradé_sans_nom_10-2);
      }

      .cls-7 {
        fill: url(#Dégradé_sans_nom_10-3);
      }

      .cls-17 {
        fill: url(#Dégradé_sans_nom_44-4);
      }

      .cls-18 {
        fill: url(#Dégradé_sans_nom_44-5);
      }

      .cls-19 {
        fill: url(#Dégradé_sans_nom_44-8);
      }

      .cls-20 {
        fill: url(#Dégradé_sans_nom_44-3);
      }

      .cls-21 {
        fill: url(#Dégradé_sans_nom_44-6);
      }

      .cls-22 {
        fill: url(#Dégradé_sans_nom_44-7);
      }

      .cls-23 {
        fill: url(#Dégradé_sans_nom_44-2);
      }

      .cls-9 {
        fill: #1a171b;
      }

      .cls-10 {
        fill: #0f1e44;
      }

      .cls-12 {
        fill: #fff;
      }

      .cls-13 {
        fill: url(#Dégradé_sans_nom_39);
      }

      .cls-14 {
        fill: url(#Dégradé_sans_nom_16);
      }

      .cls-15 {
        fill: url(#Dégradé_sans_nom_10);
      }

      .cls-24 {
        filter: url(#outer-glow-2);
      }
    </style>
    <filter id="outer-glow-1" filterUnits="userSpaceOnUse">
      <feOffset dx="0" dy="0"/>
      <feGaussianBlur result="blur" stdDeviation="42.52"/>
      <feFlood flood-color="#000" flood-opacity="1"/>
      <feComposite in2="blur" operator="in"/>
      <feComposite in="SourceGraphic"/>
    </filter>
    <filter id="outer-glow-2" filterUnits="userSpaceOnUse">
      <feOffset dx="0" dy="0"/>
      <feGaussianBlur result="blur-2" stdDeviation="8.5"/>
      <feFlood flood-color="#fff" flood-opacity=".6"/>
      <feComposite in2="blur-2" operator="in"/>
      <feComposite in="SourceGraphic"/>
    </filter>
    <linearGradient id="Dégradé_sans_nom_39" data-name="Dégradé sans nom 39" x1="251.1" y1="224.88" x2="227.54" y2="224.88" gradientUnits="userSpaceOnUse">
      <stop offset=".3" stop-color="#fc0"/>
      <stop offset="1" stop-color="#eb8600"/>
    </linearGradient>
    <linearGradient id="Dégradé_sans_nom_16" data-name="Dégradé sans nom 16" x1="249.39" y1="226.65" x2="225.31" y2="226.65" gradientUnits="userSpaceOnUse">
      <stop offset="0" stop-color="#7f0e12"/>
      <stop offset="1" stop-color="#e1001a"/>
    </linearGradient>
    <linearGradient id="Dégradé_sans_nom_44" data-name="Dégradé sans nom 44" x1="215.71" y1="337.43" x2="218.74" y2="337.43" gradientUnits="userSpaceOnUse">
      <stop offset="0" stop-color="#fc0"/>
      <stop offset="1" stop-color="#eb8600"/>
    </linearGradient>
    <linearGradient id="Dégradé_sans_nom_44-2" data-name="Dégradé sans nom 44" x1="201.24" y1="343.05" x2="204.49" y2="343.05" xlink:href="#Dégradé_sans_nom_44"/>
    <linearGradient id="Dégradé_sans_nom_44-3" data-name="Dégradé sans nom 44" x1="189.87" y1="331.37" x2="192.71" y2="331.37" xlink:href="#Dégradé_sans_nom_44"/>
    <linearGradient id="Dégradé_sans_nom_44-4" data-name="Dégradé sans nom 44" x1="187.08" y1="315.5" x2="193.84" y2="315.5" xlink:href="#Dégradé_sans_nom_44"/>
    <linearGradient id="Dégradé_sans_nom_39-2" data-name="Dégradé sans nom 39" x1="195.66" y1="334.89" x2="218.8" y2="310.93" xlink:href="#Dégradé_sans_nom_39"/>
    <linearGradient id="Dégradé_sans_nom_44-5" data-name="Dégradé sans nom 44" x1="1156.51" y1="337.43" x2="1159.54" y2="337.43" gradientTransform="translate(1451.38) rotate(-180) scale(1 -1)" xlink:href="#Dégradé_sans_nom_44"/>
    <linearGradient id="Dégradé_sans_nom_44-6" data-name="Dégradé sans nom 44" x1="1142.04" y1="343.05" x2="1145.29" y2="343.05" gradientTransform="translate(1451.38) rotate(-180) scale(1 -1)" xlink:href="#Dégradé_sans_nom_44"/>
    <linearGradient id="Dégradé_sans_nom_44-7" data-name="Dégradé sans nom 44" x1="1130.67" y1="331.37" x2="1133.51" y2="331.37" gradientTransform="translate(1451.38) rotate(-180) scale(1 -1)" xlink:href="#Dégradé_sans_nom_44"/>
    <linearGradient id="Dégradé_sans_nom_44-8" data-name="Dégradé sans nom 44" x1="1127.88" y1="315.5" x2="1134.64" y2="315.5" gradientTransform="translate(1451.38) rotate(-180) scale(1 -1)" xlink:href="#Dégradé_sans_nom_44"/>
    <linearGradient id="Dégradé_sans_nom_39-3" data-name="Dégradé sans nom 39" x1="1136.46" y1="334.89" x2="1159.6" y2="310.93" gradientTransform="translate(1451.38) rotate(-180) scale(1 -1)" xlink:href="#Dégradé_sans_nom_39"/>
    <radialGradient id="Dégradé_sans_nom_10" data-name="Dégradé sans nom 10" cx="246.87" cy="262.91" fx="246.87" fy="262.91" r="4.93" gradientUnits="userSpaceOnUse">
      <stop offset="0" stop-color="#a81c1f"/>
      <stop offset="1" stop-color="#7b1817"/>
    </radialGradient>
    <radialGradient id="Dégradé_sans_nom_10-2" data-name="Dégradé sans nom 10" cx="264.7" cy="259.96" fx="264.7" fy="259.96" r="4.88" xlink:href="#Dégradé_sans_nom_10"/>
    <radialGradient id="Dégradé_sans_nom_10-3" data-name="Dégradé sans nom 10" cx="255.39" cy="268.89" fx="255.39" fy="268.89" r="5.05" xlink:href="#Dégradé_sans_nom_10"/>
    <linearGradient id="Dégradé_sans_nom_39-4" data-name="Dégradé sans nom 39" x1="204" y1="251.87" x2="239.15" y2="251.87" xlink:href="#Dégradé_sans_nom_39"/>
    <linearGradient id="Dégradé_sans_nom_39-5" data-name="Dégradé sans nom 39" x1="306.59" y1="251.87" x2="271.44" y2="251.87" xlink:href="#Dégradé_sans_nom_39"/>
  </defs>
  <g id="Ebene_1" data-name="Ebene 1">
    <g>
      <path class="cls-10" d="m141.85,308.53s-6.13,70.63,113.44,113.22V140.37h-113.5l.06,168.16Z"/>
      <path class="cls-10" d="m391.07,311.42V121.65c-3.07-.75-6.07-5.85-6.07-5.85H125.58s-2.99,5.11-6.07,5.85v189.77s-7.28,75.45,125.48,131.71h20.6c132.76-56.26,125.48-131.71,125.48-131.71Zm-135.78,122.24c-133.53-46.22-126.69-122.89-126.69-122.89l-.07-182.52h253.51l-.07,182.52s6.84,76.67-126.69,122.89Z"/>
      <path class="cls-11" d="m368.74,308.53s6.13,70.63-113.44,113.22V140.37h113.5s-.06,168.16-.06,168.16Z"/>
      <path class="cls-1" d="m382.05,128.24h-253.51l.07,182.52s-6.84,76.67,126.69,122.89c133.53-46.22,126.69-122.89,126.69-122.89l.07-182.52Zm-126.76,293.51c-119.57-42.58-113.44-113.22-113.44-113.22l-.06-168.16h227.01l-.06,168.16s6.13,70.63-113.44,113.22Z"/>
    </g>
    <g class="cls-24">
      <g>
        <path class="cls-13" d="m249.89,235.04c-.09,0-.24-.03-.48-.2-1.7-1.14-4.25-1.74-6.29-2.21-.88-.21-1.94-.45-2.42-.66.23-.22.6-.5.85-.7.83-.64,1.24-.96,1.21-1.45-.02-.26-.06-.78-1.86-1.04l-.05-.26-.04-.04,3.6-1.12-3.76-2.12c-1.12-3.59-6.06-3.59-7.71-3.59-1.5,0-4.18.15-5.4.23v-.56c0-3.43,4.6-5.73,4.65-5.75l1.67-.85,4.9,3.87,9.16-.03,3.17,10c.08,2.02-.09,5.47-.92,6.34-.12.12-.2.14-.27.14Z"/>
        <path class="cls-8" d="m233.78,215.43l4.43,3.5.33.26h.42s8.51-.02,8.51-.02l3.01,9.5c.1,2.48-.22,5.05-.68,5.72-.02-.01-.04-.03-.07-.04-1.79-1.2-4.4-1.81-6.49-2.3-.41-.1-.89-.21-1.31-.32.89-.69,1.47-1.15,1.42-1.95-.04-.57-.38-.94-.87-1.19l.78-.24,2.66-.83-2.43-1.37-1.92-1.08-.43-.24c-1.37-3.78-6.48-3.78-8.21-3.78-1.29,0-3.43.11-4.8.19.07-3.01,4.27-5.12,4.33-5.15l1.32-.67m.14-1.42l-2,1.02s-4.98,2.44-4.98,6.29v1.2s4.06-.27,6-.27,6.35.1,7.19,3.35c.31,1.21.51,1.59.64,1.59.21,0,.22-1.08.22-1.08l1.92,1.08-3.12.97.5.61.1.54s1.74.18,1.77.54c.03.36-2.23,1.66-2.23,2.18,0,1,6.13,1.28,9.14,3.3.31.21.58.3.82.3,2.12,0,1.79-7.18,1.79-7.18l-3.33-10.49-9.39.03-5.03-3.97h0Z"/>
      </g>
      <g>
        <path class="cls-14" d="m234.53,228.9c-2.44,0-4.26-.03-5.57-.39-3-.83-3.65-2.42-3.65-2.7,0-.63.15-.63.46-.63.27.01.68.2,1.12.4,1.31.6,3.5,1.6,6.93,1.6,2.57,0,4.08-.81,5.41-1.53,1.21-.65,2.35-1.26,4.23-1.26,4.48,0,5.63,2.74,5.92,3.98-2.56.12-11.7.53-13.87.53h-.98Z"/>
        <path class="cls-8" d="m243.47,224.99c3.36,0,4.64,1.63,5.12,2.82-3.26.15-11.1.49-13.08.49h-.51s-.48,0-.48,0c-2.39,0-4.17-.03-5.4-.37-2.43-.67-3.06-1.8-3.19-2.11.18.07.47.2.71.31,1.35.62,3.62,1.65,7.18,1.65,2.72,0,4.3-.85,5.69-1.6,1.19-.64,2.21-1.19,3.95-1.19m0-1.2c-4.2,0-4.93,2.79-9.64,2.79s-6.96-1.94-7.93-2c-.04,0-.08,0-.12,0-.87,0-1.06.54-1.06,1.23,0,.56.82,2.37,4.09,3.27,1.41.39,3.32.41,5.73.41.32,0,.65,0,.99,0,2.56,0,14.57-.56,14.57-.56,0,0-.26-5.15-6.61-5.15h0Z"/>
      </g>
      <g>
        <path class="cls-16" d="m217.6,336.43c-.1.12-.95.92-1.89,1.43.26.14,1.15.74.82,2.6,0,0,2.2-2.87,2.2-6.04,0-.01,0-.02,0-.04-.37.96-1.03,1.92-1.14,2.05Z"/>
        <path class="cls-23" d="m204.49,340.74c-.59.1-1.06.13-1.46.16-.45.03-1.17-.12-1.78-.31.47,4.21,2.09,4.92,2.09,4.92-.33-3.23.97-4.59,1.15-4.76Z"/>
        <path class="cls-20" d="m191.82,329.52c-.27-.48-.65-.8-.85-1.2-2.36,3.32-.22,6.11-.22,6.11.14-2.91,1.53-3.26,1.96-3.3-.35-.44-.52-.94-.89-1.61Z"/>
        <path class="cls-17" d="m191.81,316h0c0-1.68,1.25-2.67,1.25-2.67,0,0,.28-.27.76-.52-6.73.21-6.76,5.39-6.76,5.39,3.4-2.71,4.73-2.2,4.73-2.2Z"/>
      </g>
      <g>
        <path class="cls-5" d="m202.89,340.3c-.61,0-1.75-.33-2.21-.59-.22-.12-.44-.34-.39-1.37.05-.86.72-2.68,1.12-3.36.44-.75,1.51-2,1.77-2.16.18-.1.64-.4.83-1.05.18-.63.04-1.37-.42-2.18-.64-1.12-1.36-1.35-1.85-1.35-.46,0-.79.2-.91.29-.03.02-.12.1-.26.22-.53.49-2.15,1.96-3.43,2.29-1.09.28-1.98.32-2.42.32-.18,0-.29,0-.3,0-.27-.04-.86-.22-1.11-.47s-.4-.55-.6-.96c-.11-.22-.22-.46-.37-.72-.16-.28-.34-.5-.5-.7-.33-.41-.46-.59-.39-.98.12-.66.8-1.13,1.21-1.41l.11-.08c1.4-.99,1.78-1.07,1.82-1.07.09,0,.17-.02.27-.02.29,0,.77.05,1.97.43.53.17.83.3,1.04.4.24.11.45.2.74.2.15,0,.3-.02.52-.08.52-.13.75-.45.86-.69.23-.51.13-1.16-.32-2.06-.68-1.36-3.38-3.24-3.91-3.61l-.33-.23c-.77-.52-2.81-1.89-2.89-2.53-.49-1.87.86-2.97.91-3.02.05-.05.84-.79,1.94-.79.06,0,.11,0,.17,0,1.36.09,3.07,1,3.47,1.37.56.53,1.75,1.66,2.58,3.54.89,2.04,1.65,3.49,3.21,3.56h0c1.53,0,6.04-1.74,7.62-2.91l.47-.35c3.93-2.89,5.91-4.41,6.6-5.07.02,0,.03,0,.05,0l.05.22.45.04c1.08.09,3.17,1.09,4.19,3.4.28.62.47,1.31.67,1.98.04.15.09.3.13.46-1.49.81-6.41,3.49-7.72,4.04-4.62,1.94-4.42,3.09-4.35,3.47.2,1.1,1.03,2.37,2.04,3.07,1.88,1.32,3.37,2.81,3.38,3.39.02.86-.99,2.49-1.25,2.81-.25.27-1.84,1.64-2.77,1.64-.79-.03-1.28-.64-1.68-2.05l-.12-.46c-.4-1.52-1.08-4.07-2.94-4.07-1.81.03-2.68,1.22-2.96,1.61-.18.24-.45.6-.16,4.54l.02.25c.11,1.37.04,2.1-.66,2.3-1.29.37-2.11.43-2.78.48h-.18Z"/>
        <path class="cls-8" d="m195.39,313.61h0s.08,0,.13,0c1.18.08,2.77.9,3.1,1.21l.05.04c.49.46,1.62,1.54,2.39,3.3.78,1.79,1.67,3.83,3.73,3.92h.11c1.56,0,6.22-1.78,7.9-3.02l.44-.32c3.64-2.68,5.4-4.03,6.26-4.76l.52.04c.79.06,2.74.89,3.69,3.05.26.59.44,1.22.64,1.9-2.21,1.2-6.15,3.32-7.24,3.78-5.06,2.12-4.82,3.53-4.71,4.13.22,1.27,1.14,2.66,2.28,3.46,1.71,1.2,2.98,2.48,3.12,2.94-.02.59-.76,1.92-1.11,2.37-.49.5-1.78,1.44-2.33,1.44-.19,0-.64-.03-1.1-1.61-.04-.13-.08-.29-.12-.45-.45-1.69-1.2-4.51-3.56-4.51h0c-2.08.03-3.08,1.41-3.41,1.86l-.04.05c-.24.32-.54.72-.24,4.88l.02.25c.08,1,.07,1.59-.23,1.68-1.22.36-2.02.41-2.65.46h-.14c-.5,0-1.53-.29-1.93-.52,0,0-.1-.15-.06-.8.04-.7.64-2.41,1.04-3.09.36-.62,1.29-1.72,1.57-1.96.52-.29.91-.8,1.08-1.39.23-.8.07-1.69-.47-2.64-.78-1.37-1.72-1.66-2.37-1.66-.61,0-1.05.25-1.26.4-.04.03-.15.12-.31.27-1.35,1.23-2.42,1.96-3.18,2.15-1.03.27-1.86.31-2.27.31-.1,0-.17,0-.22,0-.27-.05-.67-.19-.77-.29-.18-.18-.29-.4-.49-.8-.11-.23-.23-.47-.39-.75-.18-.32-.39-.58-.55-.78-.29-.36-.29-.38-.27-.5.08-.41.63-.8.96-1.03l.11-.08c1.07-.76,1.48-.93,1.58-.97.05,0,.11,0,.16,0,.22,0,.65.04,1.78.4.5.16.77.28.97.37.27.12.57.26.99.26.2,0,.4-.03.67-.1.58-.15,1.03-.51,1.26-1.02.41-.9,0-1.9-.33-2.57-.73-1.45-3.33-3.3-4.11-3.83l-.34-.23c-.59-.4-2.38-1.6-2.63-2.15v-.03s-.02-.07-.02-.07c-.36-1.38.61-2.23.71-2.31l.05-.04.04-.04s.64-.59,1.48-.59m0-1.2c-1.37,0-2.31.92-2.31.92,0,0-1.72,1.34-1.14,3.56.13,1,2.35,2.41,3.48,3.17,1.13.77,3.2,2.35,3.71,3.38.51,1.02.54,1.71-.15,1.89-.16.04-.27.06-.37.06-.33,0-.48-.22-1.6-.57-1.14-.36-1.72-.45-2.14-.45-.12,0-.23,0-.34.02-.49.05-1.66.87-2.1,1.18-.44.31-1.38.9-1.56,1.87-.18.97.52,1.31.95,2.08s.58,1.32,1.07,1.81c.49.49,1.48.64,1.48.64,0,0,.13.01.35.01.48,0,1.42-.05,2.57-.34,1.69-.44,3.71-2.48,3.89-2.61.08-.06.29-.18.57-.18.36,0,.85.21,1.33,1.05.84,1.48.2,2.2-.18,2.41-.38.2-1.56,1.64-2,2.38-.44.74-1.15,2.66-1.2,3.63-.05.97.1,1.59.69,1.92.55.31,1.78.67,2.5.67.05,0,.09,0,.13,0,.69-.05,1.59-.1,2.99-.51,1.41-.41,1.15-2.12,1.07-3.17-.08-1.05-.23-3.76,0-4.07.23-.31.92-1.41,2.51-1.43,0,0,.01,0,.02,0,1.57,0,2.13,2.85,2.49,4.1.36,1.25.92,2.43,2.2,2.48.02,0,.04,0,.06,0,1.28,0,3.08-1.68,3.23-1.86.15-.18,1.42-2.03,1.39-3.21-.03-1.18-2.69-3.2-3.63-3.86-.95-.67-1.64-1.82-1.79-2.69-.15-.87,2.41-2.15,3.99-2.82,1.59-.67,8.21-4.3,8.21-4.3-.31-.97-.54-2.01-.96-2.97-1.15-2.6-3.5-3.66-4.69-3.76-.02-.08-.04-.15-.06-.22-.41-.04-.77-.06-.77-.06-.42.59-5.63,4.4-7.2,5.55-1.54,1.13-5.96,2.79-7.19,2.79-.02,0-.04,0-.05,0-1.15-.05-1.79-1.15-2.69-3.2-.9-2.05-2.2-3.25-2.71-3.74-.51-.49-2.35-1.43-3.84-1.54-.07,0-.14,0-.21,0h0Z"/>
      </g>
      <g>
        <path class="cls-18" d="m292.98,336.43c.1.12.95.92,1.89,1.43-.26.14-1.15.74-.82,2.6,0,0-2.2-2.87-2.2-6.04,0-.01,0-.02,0-.04.37.96,1.03,1.92,1.14,2.05Z"/>
        <path class="cls-21" d="m306.1,340.74c.59.1,1.06.13,1.46.16.45.03,1.17-.12,1.78-.31-.47,4.21-2.09,4.92-2.09,4.92.33-3.23-.97-4.59-1.15-4.76Z"/>
        <path class="cls-22" d="m318.76,329.52c.27-.48.65-.8.85-1.2,2.36,3.32.22,6.11.22,6.11-.14-2.91-1.53-3.26-1.96-3.3.35-.44.52-.94.89-1.61Z"/>
        <path class="cls-19" d="m318.77,316h0c0-1.68-1.25-2.67-1.25-2.67,0,0-.28-.27-.76-.52,6.73.21,6.76,5.39,6.76,5.39-3.4-2.71-4.73-2.2-4.73-2.2Z"/>
      </g>
      <g>
        <path class="cls-2" d="m307.6,340.3c-.76-.05-1.59-.12-2.87-.49-.7-.2-.78-.94-.66-2.3l.02-.25c.29-3.93.01-4.3-.12-4.47-.33-.45-1.2-1.64-2.98-1.67-1.89,0-2.57,2.55-2.97,4.07l-.13.46c-.4,1.41-.89,2.02-1.65,2.05h0c-.97,0-2.56-1.37-2.81-1.65-.26-.31-1.27-1.94-1.25-2.81.01-.58,1.5-2.06,3.38-3.39,1-.71,1.84-1.97,2.04-3.07.07-.38.27-1.54-4.35-3.47-1.31-.55-6.23-3.23-7.72-4.04.04-.15.09-.3.13-.45.19-.67.39-1.36.67-1.98,1.02-2.32,3.11-3.32,4.19-3.4l.45-.04.05-.22s.03,0,.05,0c.7.66,2.68,2.18,6.62,5.08l.46.34c1.58,1.17,6.1,2.91,7.55,2.91,1.64-.07,2.4-1.52,3.29-3.56.82-1.88,2.02-3.02,2.53-3.5.44-.41,2.15-1.32,3.51-1.41.06,0,.11,0,.17,0,1.1,0,1.89.75,1.9.75.1.09,1.44,1.18.97,2.98-.1.71-2.13,2.09-2.9,2.6l-.34.23c-.53.36-3.23,2.25-3.91,3.61-.45.9-.55,1.55-.32,2.06.11.24.35.55.86.69.22.06.37.08.52.08.29,0,.5-.09.74-.2.21-.1.51-.23,1.04-.4,1.2-.38,1.68-.43,1.97-.43.1,0,.19,0,.27.02.04,0,.41.08,1.82,1.07l.11.08c.41.28,1.09.75,1.21,1.41.07.39-.06.57-.39.98-.16.2-.34.42-.5.7-.15.26-.26.5-.37.71-.2.41-.34.71-.6.96-.25.25-.83.42-1.15.47,0,0-.12,0-.26,0-.43,0-1.32-.04-2.42-.32-1.29-.33-2.9-1.81-3.43-2.29-.13-.12-.23-.2-.26-.23-.12-.09-.45-.29-.91-.29-.49,0-1.21.23-1.85,1.35-.46.81-.6,1.54-.42,2.18.19.65.65.95.84,1.05.25.16,1.32,1.4,1.76,2.16.4.68,1.08,2.5,1.12,3.36.05,1.03-.17,1.24-.39,1.37-.46.26-1.59.59-2.21.59h-.09Z"/>
        <path class="cls-8" d="m315.19,313.61c.84,0,1.47.58,1.47.58h0s.05.05.05.05l.04.03c.11.09,1.09.94.73,2.32l-.02.07v.03c-.25.55-2.04,1.75-2.64,2.15l-.34.23c-.78.53-3.38,2.38-4.11,3.83-.34.68-.74,1.68-.33,2.57.23.51.68.87,1.26,1.02.27.07.47.1.67.1.42,0,.72-.14.99-.26.2-.09.47-.21.97-.37,1.13-.36,1.56-.4,1.78-.4.06,0,.11,0,.16,0,.1.04.51.21,1.58.97l.11.08c.33.23.88.61.96,1.03.02.12.02.13-.27.5-.16.2-.37.46-.55.78-.15.27-.27.52-.39.75-.2.4-.31.62-.49.8-.1.1-.47.24-.77.29-.04,0-.12,0-.21,0-.4,0-1.23-.04-2.27-.31-.76-.2-1.83-.92-3.18-2.15-.16-.15-.27-.24-.31-.27-.21-.15-.65-.4-1.26-.4-.65,0-1.59.29-2.37,1.66-.54.96-.7,1.84-.47,2.64.17.59.56,1.1,1.08,1.39.29.23,1.21,1.33,1.57,1.96.4.68,1,2.39,1.04,3.09.03.65-.06.79-.08.81-.38.21-1.41.51-1.95.51h-.1c-.64-.05-1.43-.11-2.65-.47-.3-.09-.32-.68-.23-1.68l.02-.25c.3-4.16,0-4.56-.24-4.88l-.04-.05c-.33-.45-1.33-1.83-3.45-1.86-2.32,0-3.07,2.83-3.52,4.52-.04.17-.08.32-.12.45-.45,1.59-.9,1.61-1.1,1.61-.54,0-1.83-.94-2.32-1.44-.34-.45-1.09-1.78-1.11-2.37.14-.46,1.42-1.74,3.12-2.94,1.14-.8,2.06-2.19,2.28-3.46.11-.6.35-2.01-4.71-4.13-1.09-.46-5.04-2.58-7.24-3.78.19-.67.38-1.31.64-1.9.95-2.15,2.9-2.98,3.69-3.05l.52-.04c.87.73,2.62,2.08,6.26,4.76l.44.32c1.69,1.24,6.34,3.03,7.9,3.03h.11c2.06-.09,2.95-2.13,3.73-3.92.77-1.77,1.91-2.84,2.39-3.3l.05-.04c.33-.31,1.91-1.13,3.1-1.21.04,0,.09,0,.13,0m0-1.2c-.07,0-.14,0-.21,0-1.48.1-3.33,1.05-3.84,1.54s-1.82,1.69-2.71,3.74c-.9,2.05-1.54,3.15-2.69,3.2-.02,0-.03,0-.05,0-1.23,0-5.65-1.66-7.19-2.79-1.56-1.15-6.77-4.97-7.2-5.55,0,0-.36.03-.77.06-.02.07-.05.14-.06.22-1.19.1-3.55,1.16-4.69,3.76-.42.96-.66,2-.96,2.97,0,0,6.62,3.64,8.21,4.3,1.59.67,4.15,1.95,3.99,2.82-.15.87-.84,2.02-1.79,2.69-.95.67-3.61,2.69-3.63,3.86-.03,1.18,1.24,3.03,1.39,3.21.15.18,1.96,1.86,3.23,1.86.02,0,.04,0,.06,0,1.28-.05,1.84-1.23,2.2-2.48.36-1.25.92-4.1,2.49-4.1,0,0,.01,0,.02,0,1.59.03,2.28,1.13,2.51,1.43.23.31.08,3.02,0,4.07-.08,1.05-.33,2.76,1.07,3.17,1.41.41,2.3.46,2.99.51.04,0,.09,0,.13,0,.72,0,1.95-.36,2.5-.67.59-.33.74-.95.69-1.92-.05-.97-.77-2.89-1.2-3.63-.44-.74-1.61-2.18-2-2.38-.38-.2-1.02-.92-.18-2.41.48-.84.96-1.05,1.33-1.05.28,0,.49.12.57.18.18.13,2.2,2.18,3.89,2.61,1.15.3,2.08.34,2.57.34.23,0,.35-.01.35-.01,0,0,1-.15,1.48-.64s.64-1.04,1.07-1.81,1.13-1.11.95-2.08-1.13-1.56-1.56-1.87c-.44-.31-1.61-1.13-2.1-1.18-.11-.01-.22-.02-.34-.02-.43,0-1.01.09-2.14.45-1.12.35-1.28.57-1.6.57-.1,0-.21-.02-.37-.06-.69-.18-.67-.87-.15-1.89.51-1.02,2.58-2.61,3.71-3.38,1.13-.77,3.35-2.18,3.48-3.17.58-2.22-1.14-3.56-1.14-3.56,0,0-.94-.92-2.31-.92h0Z"/>
      </g>
      <path class="cls-9" d="m314.98,274.42c2.23.88,4.36,2.04,6.56,2.98.5.22,4.27,1.81,4.81,1.21-2.71-2.2-6.49-3.33-9.93-4.91-2.44-1.12-10.78-4.53-13.78-6.64,3.63.06,7.71,1.27,11.24,2.11,3.74.88,7.47,1.76,11.32,1.85,2.93.06,7.42,0,11.33-3.92-.95-.41-1.89-1.11-2.84-1.46-3.16-1.17-6.44-1.69-9.75-2.25-4.27-.73-8.55-1.11-12.64-2.61-1.23-.45-4.15-1.81-4.14-1.91.29-.16.56-.35.86-.47,1.8-.74,3.7-.74,5.55-.46,2.94.44,5.86,1.07,8.79,1.6,2.69.48,5.2.83,7.8-.36.66-.3,1.62-.45,2.36-.58.36-.06,1.4-.39,1.79-.32-5.14-.95-11.13-.41-16.33-.5,1.64-.65,7.31-2.78,8.29-3.18,2.45-1,5-2.28,6.82-4.25.69-.74,2.3-3.11,2.27-3.19-.58-.05-1.81-.14-2.38-.08-3.03.34-5.9.78-8.93,1.18-3.27.42-8.58.89-11.88.15,6.95-1.64,14.35-3.74,20.88-6.67-3.39.15-7.19,1.31-10.48,1.96-.03-.06,3.41-2.63,5.13-4.08,2.23-1.88,4-3.79,4.76-6.65.08-.3.28-1.47.41-2.02-6.78,3.04-13.68,5.62-20.85,6.83,6.29-4.46,13.27-8.55,19.83-12.82-.81-.63-1.74-.66-2.44-.33-.81.38-1.83,1.01-2.55,1.54-1.21.89-2.34,1.89-3.57,2.75-.58.41-1.79.73-1.87.65.5-2.5,1.87-4.64,3.08-6.96,1.82-3.47,3.82-6.92,4.53-10.83.25-1.37.26-.96.38-2.35.02-.21.13-2.68.08-3.15-.93.75-2.13,1.54-2.86,2.22-2.37,2.2-4.12,4.9-6.04,7.47-1.61,2.14-3.29,4.23-5.05,6.24-.97,1.11-2.26,2.01-3.54,2.71-.06-.04,2.7-5.09,4.86-7.99,1.55-2.07,3.75-6.03,4.58-10.36-.36.29-3.95,7.58-6.01,10.29-.45.59-.95,1.16-1.46,1.7-.23.24-.83.57-.83.57,0,0,2.18-6.86,3.34-10.35,1.17-3.53,2.37-7.53,2.65-11.25.29-3.91-.39-7.94-2.95-11.15-.21-.26-.46-.49-.82-.87-.12.58-.21.98-.28,1.39-.88,5.29-2.71,10.25-4.98,15.08-2.08,4.41-6.41,13.53-6.41,13.53,0,0,.33-2.22.5-3.18.86-4.83,1.87-9.52,2.57-14.37.76-5.25.8-10.64-.71-15.83-.52-1.8-1.34-3.46-2.52-4.92-.29-.36-.63-.69-1.09-1.18-.36,1.21-.74,2.23-.97,3.29-1.32,6.04-2.59,12.09-3.9,18.13-.96,4.38-1.83,8.78-2.98,13.1-1.28,4.82-3.64,9.21-6.03,13.57-1.52,2.77-3.02,5.54-4.45,8.36-1,1.98-1.66,4.09-1.83,6.32-.2,2.67,1.37,7.86,2.92,8.55,2.07.92,5.03-1.24,6.75-1.15,0,0,.68,1.57.1,4.14-.52,2.31-.97,4.21-1.24,6.38,0,0-3.46-1.69-4.77-2.27-2.24-.99-4.46-2.07-6.78-2.82-4.04-.92-6.36.04-9.44,2.67.37-3.3.49-4.57-2.21-5.26-.97-.22-1.97-.31-2.96-.44-.89-.12-.91-.25-.5-1.03.54-1.02,1.13-1.32,2.21-1.4,2.56-.18,8.72-.05,8.72-.05.1-.92-.37-1.92-.56-2.05-2.51-1.64-2.71-1.48-4.66-2.66-.42-.26-.74-1.71-.74-2.35.46,0,1.67.58,1.67-1.82,0-1.86-2.68-9.25-2.68-12.21,0,0-.54-2.69,2.25-4.68-3.74-.6-9.31-.83-8.85-4.99.19-1.75.54-3.21.54-3.21-1.87.02-3.38-.02-5.25.06-.5.02-1,0-1.5-.02-.5,0-1,.04-1.5.02-1.87-.08-3.75-.23-5.62-.25-1.78-.02-3.55.06-5.33.13-2.72.11-5.39.51-7.93,1.52-1.02.4-1.99.97-2.99,1.46.68.43,1.24.75,1.76,1.13,1.53,1.09,3.04,2.21,4.55,3.32.55.4,1.1.45,1.76.22,1.09-.37,2.2-.7,3.33-.89,1.03-.18,2.09-.23,3.13-.2.83.03.98.41.54,1.06-.3.44-.66.85-1.02,1.31,1.58.96,2.56,2.34,3.21,3.94,1.31,3.26,1.11,6.57.09,9.86-.15.48-.39,1-.74,1.35-3.36,3.41-6.75,6.79-10.13,10.18-.16.16-.65.59-.94.92.46-.13,1.3-.39,1.54-.46,1.71-.49,3.39-.78,5.2-.65,1.08.08,1.67.38,2.21,1.4.42.79.39.91-.5,1.03-.99.14-1.99.22-2.96.44-2.69.69-2.58,1.95-2.21,5.26-3.09-2.63-5.4-3.58-9.44-2.67-2.32.75-4.54,1.83-6.78,2.82-1.31.58-4.77,2.27-4.77,2.27-.27-2.17-.73-4.08-1.24-6.38-.58-2.57.1-4.14.1-4.14,1.72-.09,4.68,2.07,6.75,1.15,1.55-.69,3.12-5.87,2.92-8.55-.17-2.22-.83-4.34-1.83-6.32-1.42-2.82-2.93-5.59-4.45-8.36-2.39-4.36-4.75-8.74-6.03-13.57-1.15-4.33-2.03-8.73-2.98-13.1-1.32-6.04-2.59-12.09-3.9-18.13-.23-1.06-.61-2.09-.97-3.29-.45.49-.79.81-1.09,1.18-1.18,1.46-2,3.12-2.52,4.92-1.5,5.19-1.47,10.59-.71,15.83.7,4.85,1.71,9.54,2.57,14.37.17.96.5,3.18.5,3.18,0,0-4.33-9.12-6.41-13.53-2.27-4.82-4.11-9.79-4.98-15.08-.07-.41-.16-.81-.28-1.39-.36.38-.61.61-.82.87-2.55,3.21-3.24,7.24-2.95,11.15.28,3.72,1.48,7.72,2.65,11.25,1.16,3.49,3.34,10.35,3.34,10.35,0,0-.6-.34-.83-.57-.52-.54-1.02-1.12-1.46-1.7-2.06-2.71-5.65-10-6.01-10.29.83,4.33,3.03,8.28,4.58,10.36,2.16,2.9,4.92,7.95,4.86,7.99-1.28-.7-2.57-1.6-3.54-2.71-1.76-2.02-3.44-4.1-5.05-6.24-1.92-2.56-3.67-5.27-6.04-7.47-.74-.68-1.93-1.47-2.86-2.22-.05.47.06,2.94.08,3.15.13,1.39.13.98.38,2.35.71,3.9,2.71,7.36,4.53,10.83,1.22,2.32,2.59,4.46,3.08,6.96-.07.08-1.28-.24-1.87-.65-1.23-.86-2.36-1.85-3.57-2.75-.72-.53-1.75-1.16-2.55-1.54-.7-.33-1.63-.29-2.44.33,6.56,4.27,13.54,8.36,19.83,12.82-7.17-1.21-14.07-3.79-20.85-6.83.13.55.33,1.72.41,2.02.76,2.86,2.53,4.77,4.76,6.65,1.72,1.46,5.16,4.03,5.13,4.08-3.29-.65-7.09-1.81-10.48-1.96,6.53,2.92,13.93,5.03,20.88,6.67-3.3.74-8.61.27-11.88-.15-3.03-.39-5.89-.84-8.93-1.18-.57-.06-1.8.02-2.38.08-.04.08,1.58,2.44,2.27,3.19,1.82,1.97,4.37,3.25,6.82,4.25.98.4,6.65,2.53,8.29,3.18-5.2.09-11.18-.45-16.33.5.38-.07,1.43.26,1.79.32.74.13,1.7.27,2.36.58,2.6,1.19,5.11.85,7.8.36,2.93-.53,5.85-1.16,8.79-1.6,1.86-.28,3.75-.28,5.55.46.3.12.57.31.86.47,0,.1-2.91,1.46-4.14,1.91-4.1,1.5-8.38,1.88-12.64,2.61-3.31.56-6.59,1.08-9.75,2.25-.95.35-1.89,1.04-2.84,1.46,3.92,3.92,8.4,3.98,11.33,3.92,3.84-.09,7.58-.97,11.32-1.85,3.53-.83,7.61-2.05,11.24-2.11-3,2.11-11.33,5.52-13.78,6.64-3.44,1.58-7.22,2.71-9.93,4.91.54.61,4.31-.99,4.81-1.21,2.21-.95,4.33-2.11,6.56-2.98,1.84-.72,3.54-.94,5.44-.44-6.1,3.02-11.04,9.39-16.36,14.05,3.18.77,9.63-.75,12.24-1.83,3.98-1.64,7.24-4.33,10.44-7.13,3.07-2.69,5.02-5.09,8.65-7.24-1.54,3.1-4.18,7-6.5,9.34-5.62,5.67-11.97,11.55-17.58,17.17,1.52-.83,3.7-1.91,5.08-2.94,4.81-3.59,8.66-8.17,12.86-12.4,2.22-2.23,4.53-4.88,7.24-6.49-2.2,4.86-9.37,13.65-10.78,15.48-3.56,4.65-7.12,8.55-10.01,13.69,6.33-.52,11.51-2.21,16.06-6.95,2.8-2.92,4.91-6.32,6.95-9.78,2.24-3.78,4.38-7.87,7.17-11.35-.47,2.73-.39,5.25-4.74,11.88-1.46,2.51-2.58,4.37-3.94,6.94-.78,1.47-1.58,3.82-1.66,5.71,1.63-2.36,2.73-5.14,4.17-7.58,1.17-1.97,2.22-3.88,4.07-5.3.05,2.61-.85,4.12-1.82,6.45-1.29,3.1-3.2,4.79-1.74,7.58,1.9-.58,3.26-2.33,4.39-3.58,2.1-2.33,3.43-5.66,4.9-8.4,1.36-2.53,2.9-5.39,4.73-7.63.06.03-1.2,3.05-1.68,4.59-.27.85-.5,1.62-.56,2.51-.05.6.5,1.77,1.13,2.1.2-1.9.07-3.57,2.18-4.63.59,1.52-.41,3.79,1.02,4.53.49.36,1.84-2.74,2.66-4.3.82-1.55,1.73-2.31,3.46-2.64-.25,1.14-1.29,3.06-.53,3.91.65.73,2.72.21,3.63.46,1.22.32-1.74,3.86-3.19,3.82-4.13-.11-7.84.77-10.65,3.87-1.46,1.61-3.21,3.42-4.52,5.15-3.13,4.14-7.93,5.59-12.8,5.08,0,0-.63,1.36,1.65,2.44.65.36,1.5.31,2.15.66.51.27,1.13.82,1.3,1.63,1.19.1,3.55,1.16,4.69,3.76.42.96.66,2,.96,2.97,4.04-1.55,10.72-1.53,14.98-1.1,0,0,.94-4.38,1.42-5.93.84-2.71,3.04-2.56,5.53-2.2-.25-1.27-.52-2.7-.54-3.94-.02-1.41.92-2.97,2.89-3.02,2.13,2.17,1.33,6.58.71,7.86-1.08,2.25-3.19,3.58-6.42,2.73-.49,1.69.5,2.92,1.74,4.35,1.05,1.21,2.11,2.92,1.2,4.58-2.57,4.36-8.65,4.3-11.07,1.75-.13,1.23-.19,4.48-.13,5.8,2.63,2.23,6.08,1.15,9.16,3.24-1.19.54-2.76,2.4-3.86,2.46-2.21.12-3.03-2.61-5.07-2.57-1.16.02-1.61.12-1.95,1.75-.43,2.11-.2,5.22-2.14,5.49-5.07.54-6.07-5.13-7.79-5.84-.46,2.1-.53,3.04-2.63,4.05-1.66.8-5.17,1.66-5.53,3.9.89-.05,1.93-.33,2.55.12.98.72.81,3.37,1.77,4.22.41.36.7.55,1.44.42,0,0,.09-1.05.89-1.68.91-.72,3.67-.57,4.82-.6-.57,2.77-5.12,4.67-7.01,4.72-3.44.08-3.05-4.95-6.28-4.78-1.44.08-2.66,3.49-3.19,4.65-1.63,3.55-1.65,7.18-1.65,8.58,0,1.04.35,3.97,1.27,5.03.56.64,1.22.9,2.13.96,2.07.13,3.78-1.43,5.28-2.61,0,0-1.32.1-1.46.12-1.38.16-2.02-1.29-2.02-2.74,0-.86.13-2.11.13-2.11.6-.03,2.24.99,2.85,1.38,1.04.65,1.38,1.01,3.07,1.01,1.03,0,1.39.04,1.39-.87,0-.67-1.49-2.48-1.49-2.89,0-.58.38-.81,2.05-1.2.75-.18,1.46-1.32,2.32-.96.5.21.33,1.52.32,2.38-.02,1.23-.12,4.56,2.39,4.56,0-2.15,1.36-3.37,2.23-3.37.68,1.9,2.49,3.51,5.11,3.42,1.46-.05,3.63-.66,4.24-2.28-2.36-.35-3.57-1.33-4.43-3.57,1.36-2.28,4.08-2.86,5.05-2.96,1.73-.18,7.88.37,7.88-1.44s-3.78-1.56-3.78-3.9c0-1.02,1.17-2.31,1.74-3.15,1.06-1.55,2.39-4.38,4.03-5.21.72-.36,1.47.3,1.16,1.02-.38.88-.81,1.57-1.38,2.34-.53.72-1.47,1.36-1.98,2.09-.47.66-1.09,2.01-1.09,2.94,2.25,0,3.46.37,3.46,1.88,0,.82-.58,1.93-1,2.65-1.25,2.14-3.03,3.76-4.76,5.5-1.36,1.37-2.6,2.5-3.81,3.99-2.41,2.95-3.44,6.83-2.07,10.52,2.28,0,2.61-3.27,4.35-3.27.73,0,1.93.57,2.55.97.82-3.56,1.94-7.96,5.88-9.23,1.09,4.32-2.6,8.13-4.58,11.49,2.08-.56,3.91-.76,4.98,1.29,1.24,2.38,1.27,5.06,2.07,7.56.31.97.77,2.11,1.6,3.03.84-.92,1.29-2.06,1.6-3.03.8-2.5.83-5.18,2.07-7.56,1.07-2.05,2.9-1.85,4.98-1.29-1.98-3.37-5.67-7.17-4.58-11.49,3.94,1.27,5.06,5.67,5.88,9.23.62-.4,1.82-.97,2.55-.97,1.74,0,2.07,3.27,4.35,3.27,1.37-3.69.34-7.57-2.07-10.52-1.22-1.49-2.46-2.62-3.81-3.99-1.73-1.75-3.51-3.37-4.76-5.5-.42-.72-1-1.82-1-2.65,0-1.51,1.2-1.88,3.46-1.88,0-.93-.62-2.28-1.09-2.94-.52-.73-1.45-1.37-1.98-2.09-.57-.77-1.01-1.46-1.38-2.34-.31-.73.45-1.39,1.16-1.02,1.64.83,2.98,3.66,4.03,5.21.57.84,1.74,2.12,1.74,3.15,0,2.34-3.78,2.13-3.78,3.9s6.15,1.27,7.88,1.44c.97.1,3.7.68,5.05,2.96-.85,2.24-2.06,3.22-4.43,3.57.61,1.62,2.78,2.23,4.24,2.28,2.63.08,4.43-1.52,5.11-3.42.88,0,2.23,1.22,2.23,3.37,2.51,0,2.41-3.32,2.39-4.56-.01-.86-.18-2.16.32-2.38.85-.37,1.57.78,2.32.96,1.66.4,2.05.63,2.05,1.2,0,.41-1.49,2.22-1.49,2.89,0,.91.36.87,1.39.87,1.7,0,2.03-.36,3.07-1.01.62-.38,2.25-1.4,2.85-1.38,0,0,.13,1.25.13,2.11,0,1.46-.64,2.9-2.02,2.74-.14-.02-1.46-.12-1.46-.12,1.5,1.18,3.21,2.74,5.28,2.61.91-.06,1.57-.32,2.13-.96.92-1.06,1.27-3.99,1.27-5.03,0-1.4-.02-5.03-1.65-8.58-.53-1.15-1.74-4.57-3.19-4.65-3.22-.17-2.84,4.86-6.28,4.78-1.89-.04-6.44-1.94-7.01-4.72,1.14.02,3.9-.13,4.82.6.8.63.89,1.68.89,1.68.74.13,1.03-.07,1.44-.42.96-.84.78-3.5,1.77-4.22.62-.46,1.66-.17,2.55-.12-.36-2.24-3.87-3.1-5.53-3.9-2.1-1.01-2.17-1.95-2.63-4.05-1.73.71-2.73,6.37-7.79,5.84-1.94-.27-1.71-3.38-2.14-5.49-.34-1.63-.79-1.73-1.95-1.75-2.03-.04-2.86,2.69-5.07,2.57-1.1-.06-2.67-1.92-3.86-2.46,3.07-2.09,6.53-1.02,9.16-3.24.06-1.32,0-4.57-.13-5.8-2.42,2.55-8.5,2.61-11.07-1.75-.91-1.66.15-3.37,1.2-4.58,1.24-1.43,2.24-2.66,1.74-4.35-3.22.84-5.34-.48-6.42-2.73-.62-1.28-1.42-5.69.71-7.86,1.97.05,2.92,1.61,2.89,3.02-.02,1.24-.29,2.67-.54,3.94,2.49-.36,4.69-.51,5.53,2.2.48,1.55,1.42,5.93,1.42,5.93,4.25-.42,10.94-.45,14.98,1.1.31-.97.54-2.01.96-2.97,1.15-2.6,3.5-3.66,4.69-3.76.17-.81.79-1.35,1.3-1.63.66-.35,1.51-.29,2.15-.66,2.28-1.07,1.65-2.44,1.65-2.44-4.88.51-9.67-.94-12.8-5.08-1.31-1.74-3.06-3.54-4.52-5.15-2.81-3.09-6.52-3.97-10.65-3.87-1.45.04-4.41-3.49-3.19-3.82.91-.24,2.98.27,3.63-.46.76-.85-.28-2.77-.53-3.91,1.73.33,2.64,1.08,3.46,2.64.83,1.56,2.18,4.66,2.66,4.3,1.43-.74.43-3.01,1.02-4.53,2.1,1.06,1.98,2.73,2.18,4.63.63-.33,1.17-1.5,1.13-2.1-.07-.89-.3-1.66-.56-2.51-.48-1.53-1.74-4.56-1.68-4.59,1.83,2.24,3.37,5.1,4.73,7.63,1.47,2.74,2.8,6.07,4.9,8.4,1.13,1.25,2.49,3,4.39,3.58,1.46-2.79-.45-4.47-1.74-7.58-.97-2.33-1.87-3.84-1.82-6.45,1.85,1.42,2.9,3.33,4.07,5.3,1.45,2.44,2.54,5.22,4.17,7.58-.09-1.89-.89-4.24-1.66-5.71-1.36-2.56-2.48-4.43-3.94-6.94-4.35-6.63-4.28-9.15-4.74-11.88,2.8,3.48,4.94,7.58,7.17,11.35,2.04,3.45,4.15,6.86,6.95,9.78,4.55,4.74,9.73,6.42,16.06,6.95-2.89-5.15-6.45-9.04-10.01-13.69-1.41-1.84-8.57-10.62-10.78-15.48,2.71,1.6,5.03,4.26,7.24,6.49,4.2,4.23,8.05,8.81,12.86,12.4,1.38,1.03,3.56,2.12,5.08,2.94-5.61-5.63-11.97-11.5-17.58-17.17-2.32-2.34-4.97-6.24-6.5-9.34,3.63,2.15,5.58,4.55,8.65,7.24,3.2,2.8,6.46,5.49,10.44,7.13,2.61,1.08,9.06,2.6,12.24,1.83-5.32-4.66-10.26-11.03-16.36-14.05,1.91-.49,3.6-.28,5.44.44Zm-75.87-1.13c-7.47-.77-14.12-3.46-19.76-8.47-6.12-5.44-9.31-12.48-10.83-20.38-.13-.69-.24-1.39-.46-2.05-.37-1.09-1.15-1.49-2.23-1.11-.79.27-1.42.07-1.71-.61-.37-.85-.68-1.79-.72-2.7-.05-1.2.48-1.52,1.65-1.49.94,0,1.64.06,2.33-.01,1.02-.11,1.29-.55,1.46-1.57.17-1.05.37-2.14.81-3.09.79-1.72,2.45-1.77,3.53-.2.83,1.22.7,2.71-.32,3.77-.4.42-1.11.88-.74,1.47.24.39,1,.58,1.55.64,1.4.17,2.69,1.53,2.69,2.96,0,.71-.43,1.21-1.17,1.17-.69-.03-1.38-.21-2.06-.35-.56-.12-1.12-.28-1.68-.41-1.07-.24-1.51.11-1.44,1.24.06,1.1.15,2.2.35,3.28,1.34,7,5.24,12.3,11.02,16.3,4.79,3.32,10.17,5.26,15.82,6.47,1.11.24,1.73.67,1.9,1.81.13.89.43,1.75.65,2.62.14.55-.09.74-.63.68Zm10.46-5.86c-.69,1.12-1.66,1.75-3,1.58-1.41-.18-2.45-.96-2.87-2.3-.23-.73-.25-1.59-.11-2.35.51-2.84,2.1-5.15,3.84-7.37.04-.05.13-.07.37-.18.07.93.22,1.74.18,2.55-.06,1.22.31,2.21,1.1,3.15,1.35,1.59,1.47,3.33.49,4.92Zm5.72,7.74c-1.95-.32-3.3-2.01-3.32-4.27-.03-2.21.62-4.28,1.39-6.32.23-.62.51-1.22.82-1.94,1.72,2.34,3.16,4.46,4.65,5.68,0,1.89-.13,2.13-.38,3.34-.4,2.23-1.2,3.2-3.15,3.52Zm11.54-10.41c-.42,1.35-.67,1.61-1.4,1.61-1.35,0-1.48-.38-2.17-1.5-.98-1.59-1.11-2.25-1.11-2.98,0-1.29.75-2.5.75-4.68,0-.81-.61-2.74-.54-3.67,2.65,1.28,4.81,4.97,4.89,8.04.08.77-.2,2.44-.42,3.17Zm35.22-20.32c-1.52,7.91-4.7,14.94-10.83,20.38-5.63,5.01-12.29,7.7-19.76,8.47-.54.06-.77-.14-.63-.68.22-.87.52-1.74.65-2.62.17-1.15.79-1.57,1.9-1.81,5.65-1.22,11.03-3.15,15.82-6.47,5.78-4,9.68-9.3,11.02-16.3.21-1.08.29-2.18.35-3.28.06-1.13-.38-1.48-1.44-1.24-.56.13-1.11.29-1.68.41-.68.14-1.37.31-2.06.35-.74.04-1.17-.46-1.17-1.17,0-1.43,1.29-2.79,2.69-2.96.55-.07,1.31-.25,1.55-.64.37-.59-.34-1.05-.74-1.47-1.02-1.06-1.16-2.55-.32-3.77,1.08-1.57,2.74-1.53,3.53.2.44.95.64,2.04.81,3.09.17,1.03.45,1.47,1.46,1.57.69.07,1.39.01,2.33.01,1.17-.03,1.71.29,1.65,1.49-.04.91-.36,1.85-.72,2.7-.29.68-.93.88-1.71.61-1.08-.38-1.86.02-2.23,1.11-.22.66-.33,1.36-.46,2.05Z"/>
      <path class="cls-15" d="m247.8,256.8c-.24.11-.32.13-.37.18-1.74,2.22-3.33,4.53-3.84,7.37-.14.76-.11,1.62.11,2.35.42,1.35,1.47,2.13,2.87,2.3,1.34.17,2.31-.46,3-1.58.98-1.59.86-3.32-.49-4.92-.79-.94-1.16-1.93-1.1-3.15.04-.81-.11-1.63-.18-2.55Z"/>
      <path class="cls-6" d="m263.26,264.87c.69,1.12.82,1.5,2.17,1.5.73,0,.98-.26,1.4-1.61.23-.73.5-2.4.42-3.17-.08-3.07-2.25-6.76-4.89-8.04-.07.93.54,2.86.54,3.67,0,2.19-.75,3.4-.75,4.68,0,.73.13,1.38,1.11,2.98Z"/>
      <path class="cls-7" d="m254.17,262.62c-.31.72-.58,1.33-.82,1.94-.77,2.04-1.41,4.12-1.39,6.32.03,2.27,1.37,3.96,3.32,4.27,1.95-.32,2.75-1.29,3.15-3.52.25-1.21.38-1.45.38-3.34-1.49-1.23-2.93-3.34-4.65-5.68Z"/>
      <path class="cls-12" d="m246.46,218.62c-1.04-.04-2.11.02-3.13.2-1.13.2-2.24.53-3.33.89-.53.18-.99.18-1.43-.03h0s2.73,2.13,4.88,1.99,2.53-.68,2.53-.68c.36-.46.72-.87,1.02-1.31.45-.66.3-1.04-.54-1.06Z"/>
      <path class="cls-9" d="m241.62,219.6l-.63.18s.83,1.51,1.37,1.36.67-.67.64-.93-.31-.83-.31-.83l-.54.14s.08.68-.16.75-.38-.66-.38-.66Z"/>
      <g>
        <path class="cls-3" d="m239.15,272.68c-7.54-.78-14.07-3.58-19.39-8.32-5.51-4.9-8.99-11.46-10.63-20.05l-.07-.37c-.11-.58-.22-1.18-.41-1.76-.49-1.44-1.5-1.66-2.06-1.66-.3,0-.61.06-.94.17-.16.06-.31.08-.44.08-.26,0-.42-.11-.53-.36-.43-1-.64-1.79-.67-2.49-.02-.35.03-.59.13-.7.07-.08.27-.17.77-.17h.14c.32,0,.6,0,.86.01.24,0,.46.01.68.01.3,0,.59,0,.87-.04,1.4-.15,1.8-.9,1.99-2.07.18-1.05.37-2.07.76-2.94.29-.63.71-.98,1.18-.98s.92.32,1.31.88c.67.98.57,2.16-.26,3.02-.06.07-.14.13-.21.2-.41.38-1.17,1.09-.61,2,.38.61,1.29.84,1.99.92,1.14.14,2.17,1.27,2.16,2.37,0,.57-.37.57-.5.57h0c-.56-.03-1.07-.14-1.62-.25l-.4-.08c-.3-.06-.61-.14-.91-.22-.25-.06-.5-.13-.76-.19-.26-.06-.49-.09-.69-.09-.45,0-.81.14-1.07.42-.42.44-.43,1.09-.41,1.53.06,1.07.15,2.22.36,3.36,1.3,6.79,5.09,12.41,11.26,16.69,4.39,3.04,9.63,5.19,16.04,6.57.98.21,1.31.52,1.43,1.31.1.65.27,1.27.44,1.88.07.25.14.49.2.74Z"/>
        <path class="cls-8" d="m211.39,231.66c.19,0,.5.16.81.62.51.74.43,1.61-.2,2.26-.06.06-.12.12-.19.18-.38.35-1.53,1.43-.71,2.75.4.65,1.22,1.06,2.42,1.21.82.1,1.62.96,1.64,1.74-.44-.03-.9-.13-1.4-.23l-.4-.08c-.3-.06-.59-.14-.88-.21-.26-.07-.51-.13-.77-.19-.3-.07-.57-.1-.82-.1-.78,0-1.25.33-1.51.6-.26.28-.43.62-.52,1.05-.51-.84-1.31-1.31-2.28-1.31-.36,0-.75.07-1.14.21-.1.03-.16.05-.22.05-.39-.92-.6-1.66-.63-2.28,0-.1,0-.17,0-.22.06,0,.16-.02.3-.02h.16c.3,0,.57,0,.83.01.24,0,.47.01.69.01.36,0,.66-.01.93-.04,1.88-.2,2.33-1.41,2.52-2.57.17-1.01.35-1.99.72-2.79.18-.4.42-.63.64-.63m2.81,24.99c1.76,2.23,3.92,4.24,6.5,6.02,4.45,3.08,9.77,5.26,16.25,6.66.83.18.9.35.97.82.1.64.26,1.25.42,1.83-7.04-.89-13.16-3.6-18.18-8.07-2.36-2.1-4.34-4.51-5.96-7.26m-2.81-26.19c-.68,0-1.32.44-1.73,1.33-.44.95-.64,2.04-.81,3.09-.17,1.03-.45,1.47-1.46,1.57-.26.03-.53.04-.81.04-.45,0-.94-.02-1.52-.02-.05,0-.11,0-.16,0-1.06,0-1.55.34-1.5,1.49.04.91.36,1.85.72,2.7.21.48.59.73,1.08.73.2,0,.41-.04.64-.12.27-.09.52-.14.75-.14.7,0,1.21.43,1.49,1.25.22.66.33,1.36.46,2.05,1.52,7.91,4.7,14.94,10.83,20.38,5.63,5.01,12.29,7.7,19.76,8.47.06,0,.11,0,.17,0,.42,0,.59-.2.47-.69-.22-.87-.52-1.74-.65-2.62-.17-1.15-.79-1.57-1.9-1.81-5.65-1.22-11.03-3.15-15.82-6.47-5.78-4-9.68-9.3-11.02-16.3-.21-1.08-.29-2.18-.35-3.28-.05-.91.22-1.31.88-1.31.16,0,.35.02.56.07.56.13,1.11.29,1.68.41.68.14,1.37.31,2.06.35.02,0,.05,0,.07,0,.7,0,1.1-.48,1.1-1.17,0-1.43-1.29-2.79-2.69-2.96-.55-.07-1.31-.25-1.55-.64-.37-.59.34-1.05.74-1.47,1.02-1.06,1.16-2.55.32-3.77-.52-.76-1.17-1.14-1.8-1.14h0Z"/>
      </g>
      <g>
        <path class="cls-4" d="m271.44,272.68c.06-.25.13-.5.2-.74.17-.6.34-1.23.44-1.88.12-.8.45-1.1,1.43-1.31,6.41-1.38,11.65-3.53,16.04-6.57,6.17-4.28,9.96-9.89,11.26-16.69.22-1.14.3-2.29.37-3.36.03-.45,0-1.09-.41-1.53-.26-.28-.62-.42-1.08-.42-.21,0-.43.03-.69.09-.25.06-.5.12-.76.19-.3.08-.6.16-.91.22l-.4.08c-.55.12-1.06.23-1.57.25h-.02c-.18,0-.52-.02-.52-.57,0-1.1,1.03-2.22,2.16-2.36.7-.09,1.61-.32,1.99-.93.56-.91-.2-1.62-.61-2-.07-.07-.15-.14-.21-.2-.83-.86-.93-2.04-.26-3.02.38-.56.86-.88,1.3-.88s.9.36,1.18.98c.4.87.59,1.89.76,2.94.19,1.17.6,1.93,1.99,2.07.28.03.57.04.87.04.22,0,.44,0,.68-.01.26,0,.54-.01.84-.01h.16c.5,0,.7.09.77.16.1.1.14.35.13.7-.03.7-.25,1.49-.67,2.49-.11.25-.27.36-.53.36-.13,0-.28-.03-.44-.08-.33-.11-.65-.17-.94-.17-.56,0-1.57.22-2.06,1.66-.2.58-.31,1.18-.41,1.76l-.07.37c-1.65,8.59-5.13,15.15-10.63,20.05-5.33,4.74-11.85,7.53-19.39,8.32Z"/>
        <path class="cls-8" d="m299.2,231.66h0c.22,0,.46.24.64.63.37.8.55,1.77.72,2.79.19,1.16.64,2.38,2.52,2.57.28.03.57.04.93.04.22,0,.45,0,.69-.01.26,0,.53-.01.86-.01h.12c.14,0,.23,0,.3.01,0,.05,0,.12,0,.22-.03.61-.23,1.34-.63,2.28-.04,0-.11-.01-.21-.05-.39-.14-.78-.21-1.14-.21-.97,0-1.76.47-2.28,1.31-.08-.42-.26-.77-.52-1.05-.26-.28-.73-.6-1.51-.6-.25,0-.52.03-.82.1-.26.06-.51.12-.77.19-.29.08-.59.15-.88.21l-.4.08c-.48.1-.93.2-1.4.23.02-.78.82-1.63,1.64-1.74,1.21-.15,2.02-.55,2.42-1.21.82-1.32-.33-2.4-.71-2.75-.07-.06-.13-.12-.19-.18-.63-.65-.7-1.52-.2-2.26.31-.45.62-.62.81-.62m-2.81,24.99c-1.62,2.75-3.6,5.17-5.96,7.26-5.02,4.46-11.11,7.17-18.18,8.06.16-.59.33-1.19.42-1.83.07-.47.14-.64.97-.82,6.48-1.4,11.8-3.57,16.25-6.66,2.57-1.78,4.74-3.79,6.5-6.02m2.81-26.19c-.63,0-1.28.38-1.8,1.14-.83,1.22-.7,2.71.32,3.77.4.42,1.11.88.74,1.47-.24.39-1,.58-1.55.64-1.4.17-2.69,1.53-2.69,2.96,0,.69.4,1.17,1.1,1.17.02,0,.05,0,.07,0,.69-.03,1.38-.21,2.06-.35.56-.12,1.12-.28,1.68-.41.21-.05.4-.07.56-.07.66,0,.93.4.88,1.31-.06,1.1-.15,2.2-.35,3.28-1.34,7-5.24,12.3-11.02,16.3-4.79,3.32-10.17,5.26-15.82,6.47-1.11.24-1.73.67-1.9,1.81-.13.89-.43,1.75-.65,2.62-.12.49.05.69.47.69.05,0,.11,0,.17,0,7.47-.77,14.12-3.46,19.76-8.47,6.12-5.44,9.31-12.48,10.83-20.38.13-.69.24-1.39.46-2.05.28-.82.79-1.25,1.49-1.25.23,0,.48.05.75.14.23.08.44.12.64.12.49,0,.87-.24,1.08-.73.37-.85.68-1.79.72-2.7.05-1.15-.44-1.49-1.5-1.49-.05,0-.1,0-.16,0-.58,0-1.07.02-1.52.02-.28,0-.55,0-.81-.04-1.02-.11-1.29-.55-1.46-1.57-.17-1.05-.37-2.14-.81-3.09-.41-.89-1.05-1.33-1.73-1.33h0Z"/>
      </g>
    </g>
    <g>
      <path class="cls-11" d="m237.08,389.1h4.36v16.99h-3.01v-14.43h-1.35v-2.56Z"/>
      <path class="cls-11" d="m244.8,392.48c0-.79.05-1.42.15-1.89.1-.47.28-.83.55-1.09.27-.25.64-.42,1.12-.49.48-.08,1.11-.12,1.88-.12s1.4.04,1.88.12c.48.08.86.24,1.14.49.28.25.47.61.57,1.09.1.47.15,1.1.15,1.89v10.26c0,.79-.05,1.42-.15,1.88-.1.47-.29.82-.57,1.08-.28.25-.66.42-1.14.49-.48.08-1.11.12-1.88.12-.73,0-1.33-.04-1.78-.12-.46-.08-.82-.24-1.09-.49-.27-.25-.45-.61-.55-1.08-.1-.47-.15-1.09-.15-1.88v-1.31h2.84v1.3c0,.37.04.61.13.73.09.12.28.18.59.18.33,0,.54-.06.62-.18.08-.12.12-.37.12-.74v-3.85c-.27.53-.93.8-1.98.8-.52,0-.93-.06-1.25-.18-.32-.12-.56-.32-.74-.6-.18-.28-.3-.65-.37-1.11-.06-.46-.1-1.02-.1-1.7v-3.59Zm2.95,3.5c0,.32.01.57.03.75.02.19.06.33.11.42.05.09.12.15.21.17s.2.03.35.03c.29,0,.49-.05.59-.15.1-.1.17-.29.2-.58v-4.15c0-.4-.04-.66-.12-.76-.08-.11-.29-.16-.62-.16s-.54.05-.62.16c-.08.11-.12.36-.12.76v3.5Z"/>
    </g>
    <g>
      <path class="cls-10" d="m258.95,406.09v-5.2c0-.75.02-1.35.05-1.81.04-.46.11-.84.23-1.14.11-.3.29-.55.53-.75.24-.2.55-.42.94-.65l1.94-1.14c.29-.17.49-.34.6-.51.11-.16.17-.42.17-.76v-1.7c0-.37-.04-.61-.12-.72-.08-.11-.28-.16-.59-.16s-.54.06-.62.18c-.09.12-.13.36-.13.72v2.11h-2.9v-2.11c0-.79.05-1.42.15-1.88.1-.47.28-.82.55-1.08.27-.25.64-.42,1.12-.49.48-.08,1.11-.12,1.88-.12s1.4.04,1.87.12c.47.08.85.24,1.12.48.27.24.45.6.55,1.07.09.47.14,1.09.14,1.87v1.85c0,.47-.03.87-.08,1.18-.05.32-.14.59-.27.83-.13.24-.3.45-.53.63-.22.19-.51.38-.85.58l-2.13,1.25c-.24.14-.41.29-.49.44-.09.15-.13.4-.13.74v3.5h1.44v-3.78h3.03v6.45h-7.46Z"/>
      <path class="cls-10" d="m269.34,389.1h4.36v16.99h-3.01v-14.43h-1.35v-2.56Z"/>
    </g>
    <g>
      <path class="cls-10" d="m257.14,150.25h13.4v4.47h-3.24v-1.1h-5.66v4.12h5.66v3.39h-5.66v4.08h5.66v-1.1h3.24v4.5h-12.29v-14.99h-1.1v-3.37Z"/>
      <path class="cls-10" d="m272.58,168.62v-3.4h1.09v-14.96h3.4l7.37,11.91v-11.91h4.56v3.39h-1.14v14.97h-3.41l-7.37-11.91v11.91h-4.49Z"/>
      <path class="cls-10" d="m296.69,168.62v-14.97h-2.27v1.08h-3.38v-4.47h14.67v4.47h-3.37v-1.08h-2.28v14.97h-3.37Z"/>
      <path class="cls-10" d="m317.5,149.97c2.69,0,5,.93,6.9,2.78,1.91,1.85,2.86,4.08,2.86,6.68s-.95,4.85-2.86,6.69c-1.91,1.84-4.21,2.77-6.9,2.77s-4.99-.92-6.9-2.77c-1.9-1.84-2.86-4.08-2.86-6.69s.95-4.83,2.86-6.68c1.9-1.85,4.2-2.78,6.9-2.78Zm0,3.37c-1.65,0-3.09.59-4.33,1.77-1.23,1.18-1.85,2.62-1.85,4.32s.62,3.16,1.85,4.34c1.23,1.18,2.67,1.76,4.33,1.76s3.09-.59,4.33-1.76c1.23-1.18,1.85-2.62,1.85-4.34s-.62-3.14-1.85-4.32c-1.23-1.18-2.67-1.77-4.33-1.77Z"/>
    </g>
    <g>
      <g>
        <path class="cls-11" d="m227.89,168.62v-14.97h-2.27v1.08h-3.38v-4.47h14.67v4.47h-3.37v-1.08h-2.28v14.97h-3.37Z"/>
        <path class="cls-11" d="m238.95,150.25h7.79c.49,0,1.01.06,1.55.19.79.21,1.49.54,2.1,1,.61.46,1.08,1.03,1.42,1.7.36.74.54,1.57.54,2.48v.1c-.02.77-.15,1.46-.4,2.06-.24.58-.57,1.09-.99,1.51-.35.36-.76.69-1.24.97l2.62,4.96h1.09v3.4h-3.16l-3.9-7.49h-2.96v7.49h-3.38v-14.97h-1.09v-3.39Zm4.47,3.39v4.09h3.3c.52,0,1-.17,1.44-.52.43-.35.65-.85.65-1.5,0-.57-.21-1.06-.62-1.46-.41-.41-.9-.61-1.47-.61h-3.3Z"/>
      </g>
      <g>
        <path class="cls-11" d="m189.12,164.55h-4.16l-1.29,4.07h-2.94v-2.81h.91l3.9-12.35h2.86l4.11,12.35h.91v2.81h-2.96l-1.33-4.07Zm-3.27-2.81h2.37l-1.2-3.67-1.16,3.67Z"/>
        <path class="cls-11" d="m196.25,165.84c.42,0,.77.15,1.07.44s.44.65.44,1.07-.15.77-.44,1.06-.65.44-1.07.44-.77-.15-1.07-.44-.44-.65-.44-1.06.15-.77.44-1.07.65-.44,1.07-.44Z"/>
        <path class="cls-11" d="m207.14,155.99c-1.36,0-2.55.49-3.57,1.46-1.01.97-1.52,2.16-1.52,3.57s.51,2.61,1.52,3.58,2.2,1.46,3.57,1.46c1.46,0,2.69-.53,3.72-1.6l1.5,2.53c-.71.58-1.51,1.03-2.4,1.36s-1.83.49-2.82.49c-2.22,0-4.12-.76-5.69-2.28-1.57-1.52-2.36-3.36-2.36-5.52s.79-3.99,2.36-5.51c1.57-1.52,3.47-2.29,5.69-2.29,1.13,0,2.09.17,2.89.51.8.34,1.32.61,1.56.8v2.63h-2.78v-.89c-.51-.18-1.07-.27-1.67-.27Z"/>
        <path class="cls-11" d="m215.19,165.84c.42,0,.77.15,1.07.44s.44.65.44,1.07-.15.77-.44,1.06-.65.44-1.07.44-.77-.15-1.07-.44-.44-.65-.44-1.06.15-.77.44-1.07.65-.44,1.07-.44Z"/>
      </g>
    </g>
  </g>
</svg>