<?xml version="1.0" encoding="UTF-8"?>
<svg id="Layer_2" data-name="Layer 2" xmlns="http://www.w3.org/2000/svg" viewBox="0 0 390.42 430.08">
  <defs>
    <style>
      .cls-1, .cls-2, .cls-3, .cls-4, .cls-5, .cls-6, .cls-7, .cls-8, .cls-9, .cls-10 {
        stroke-width: 0px;
      }

      .cls-2 {
        fill: #f7bf0e;
      }

      .cls-3 {
        fill: #04b2ec;
      }

      .cls-4 {
        fill: #e40a24;
      }

      .cls-5 {
        fill: #bc8e64;
      }

      .cls-6 {
        fill: #fff;
      }

      .cls-7 {
        fill: #fcbe04;
      }

      .cls-8 {
        fill: #fcd274;
      }

      .cls-9 {
        fill: #0482d4;
      }

      .cls-10 {
        fill: #04825c;
      }
    </style>
  </defs>
  <g id="Layer_1-2" data-name="Layer 1">
    <g>
      <path class="cls-1" d="m382.21,25.25c-12.15,0-24.71,7.42-24.71,19.83,0,2.66.39,4.82.95,6.54-3.16-1.07-7.21-2.13-10.74-2.13-11.77,0-19.44,9.95-19.76,10.37l-1.71,2.26,2.27,1.71c1.83,1.38,4.37,4.15,4.37,5.74,0,3.56-6.48,11.66-17.16,11.66-15.79,0-21.41-9.25-21.41-17.91,0-7.45,6.4-10.67,9.66-10.67,4.2,0,9.74,1.4,9.8,1.41l3.53.9v-3.65c0-4.04-1.53-16.74-19.92-17.96,0-.53.01-1.1.01-1.72,0-6.67-.59-17.89-4.37-21.84-1.43-1.5-3-1.81-4.05-1.81-8.31,0-15,14.06-17.77,20.9-2.08-.83-5.11-1.65-8.98-1.65-11.09,0-15.89,10.48-16.09,10.93l-2.1,4.71,5.1-.75c2.68-.39,10.41-.73,14.01,2.38,1.34,1.15,1.99,2.73,1.99,4.81,0,15.43-14.23,18.66-26.16,18.66-24.12,0-26.91-10.65-26.91-18.66s.63-11.2,1.18-13.67c.42-1.88.82-3.65.82-7.08,0-8.19-7.11-14.16-11.31-16.97.72-1.24,1.31-2.82,1.31-4.78,0-3.77-3.96-6.83-8.83-6.83s-8.83,3.07-8.83,6.83c0,1.96.59,3.54,1.31,4.78-4.2,2.81-11.31,8.78-11.31,16.97,0,3.43.4,5.2.82,7.08.55,2.48,1.18,5.29,1.18,13.67s-2.79,18.66-26.91,18.66c-11.94,0-26.17-3.24-26.17-18.66,0-2.08.65-3.66,1.99-4.81,3.6-3.11,11.34-2.77,14.01-2.38l5.1.75-2.09-4.71c-.2-.45-5-10.93-16.09-10.93-3.87,0-6.9.82-8.98,1.65-2.77-6.84-9.47-20.9-17.77-20.9-1.8,0-4.29.86-5.99,4.94-1.33,3.22-2.57,12.37-2.57,18.75,0,.6.02,1.14.04,1.69-18.31,1.26-19.83,13.93-19.83,17.96v3.65l3.54-.9c.06-.01,5.6-1.41,9.8-1.41,3.26,0,9.66,3.22,9.66,10.67,0,8.66-5.63,17.91-21.41,17.91-10.68,0-17.17-8.1-17.17-11.66,0-1.59,2.54-4.35,4.37-5.74l2.26-1.71-1.71-2.27c-.32-.42-7.99-10.37-19.76-10.37-3.53,0-7.57,1.06-10.74,2.13.55-1.72.95-3.88.95-6.55,0-12.42-12.56-19.83-24.71-19.83-1.93,0-8.21.3-8.21,4.21v1.86l1.7.74c3.51,1.53,15.43,15.41,22.77,24.77l1.21,1.55,27.08,37.35c-.63,1.01-1,2.2-1,3.47,0,3.62,2.95,6.57,6.57,6.57.54,0,1.07-.07,1.57-.2l8.46,11.67.27-.15,2.24,2.77h-.36c-1.69,10.57-6.28,41.42-6.28,64.21,0,41.85,6.98,80.59,20.74,115.16,11,27.62,26.33,52.66,45.57,74.44,28.48,32.23,57.29,47.73,64.65,51.38,7.36-3.65,36.17-19.15,64.65-51.38,19.25-21.78,34.58-46.82,45.57-74.44,13.76-34.56,20.74-73.31,20.74-115.16,0-22.79-4.59-53.64-6.28-64.21h-.36l2.25-2.77.27.14,1.46-2,7.01-9.67c.5.12,1.03.2,1.57.2,3.62,0,6.57-2.95,6.57-6.57,0-1.28-.37-2.46-1-3.47l27.07-37.34,1.22-1.56c7.34-9.37,19.26-23.25,22.77-24.77l1.71-.74v-1.86c0-3.91-6.28-4.21-8.21-4.21Zm-187,70.67c76.88,3.72,111.02,14.65,121.21,18.66H74c10.18-4.01,44.33-14.94,121.21-18.66Z"/>
      <path class="cls-4" d="m195.21,95.92c-76.88,3.72-111.02,14.65-121.21,18.66h242.41c-10.18-4.01-44.33-14.94-121.21-18.66Z"/>
      <path class="cls-7" d="m323.44,115.33l-1.39,1.91-.27-.14-2.24,2.77h.36c1.69,10.57,6.28,41.42,6.28,64.21,0,41.85-6.98,80.59-20.74,115.16-11,27.62-26.33,52.66-45.57,74.44-28.48,32.23-57.29,47.73-64.65,51.38-7.36-3.65-36.17-19.15-64.65-51.38-19.25-21.78-34.58-46.82-45.57-74.44-13.76-34.56-20.74-73.31-20.74-115.16,0-22.79,4.59-53.64,6.28-64.21h.36l-2.24-2.77-.27.15-1.39-1.91h-.31s-6.96,40.25-6.96,68.75c0,186.5,135.5,246,135.5,246,0,0,135.5-59.5,135.5-246,0-28.5-6.96-68.75-6.96-68.75h-.31Z"/>
      <path class="cls-6" d="m195.21,318.79v-22.45c-20.37,0-36.87-14.72-36.87-32.87,0-8.89,3.97-16.95,10.4-22.87l-97.85-120.72h-.36c-1.69,10.57-6.28,41.42-6.28,64.21,0,41.85,6.98,80.59,20.74,115.16,11,27.62,26.33,52.66,45.57,74.44,28.48,32.23,57.29,47.73,64.65,51.38v-53.72h-6v-45.71c-10.97.84-20.63,3.77-26.62,5.99l1.35-7.5c7.72-2.57,18.91-5.34,31.27-5.34Z"/>
      <path class="cls-7" d="m26.71,55.08s3.37-2.62,3.37-10c0-11.25-12.12-17-21.87-17-3.08,0-5.37.83-5.37,1.37,5.75,2.5,23.87,25.62,23.87,25.62Z"/>
      <path class="cls-7" d="m325.52,99.21c0-3.62,2.95-6.57,6.57-6.57,1.31,0,2.52.39,3.55,1.05l27.08-37.35s-8.62-4-15-4c-10.5,0-17.5,9.25-17.5,9.25,0,0,5.5,4.12,5.5,8,0,5.12-7.75,14.5-20,14.5-17.62,0-24.25-10.75-24.25-20.75,0-9.37,8-13.5,12.5-13.5s10.5,1.5,10.5,1.5c0-7.75-4.87-15.25-20-15.25,0,0,1.12-25.25-5.5-25.25-8.37,0-16.25,22-16.25,22,0,0-3.75-2.75-10.5-2.75-9.37,0-13.5,9.25-13.5,9.25,0,0,19.25-2.87,19.25,10s-8.25,21.5-29,21.5c-22.62,0-29.75-9.12-29.75-21.5,0-14.87,2-13.25,2-20.75,0-9.75-12.75-16.25-12.75-16.25,0,0,2.75-2,2.75-5.5,0-2-2.5-4-6-4s-6,2-6,4c0,3.5,2.75,5.5,2.75,5.5,0,0-12.75,6.5-12.75,16.25,0,7.5,2,5.87,2,20.75,0,12.37-7.12,21.5-29.75,21.5-20.75,0-29-9.25-29-21.5,0-12.87,19.25-10,19.25-10,0,0-4.12-9.25-13.5-9.25-6.75,0-10.5,2.75-10.5,2.75,0,0-7.87-22-16.25-22-6.62,0-5.5,25.25-5.5,25.25-15.12,0-20,7.5-20,15.25,0,0,5.87-1.5,10.5-1.5s12.5,4.12,12.5,13.5c0,10-6.62,20.75-24.25,20.75-12.25,0-20-9.37-20-14.5,0-3.87,5.5-8,5.5-8,0,0-7-9.25-17.5-9.25-6.37,0-15,4-15,4l27.08,37.35c1.02-.66,2.24-1.05,3.55-1.05,3.62,0,6.57,2.95,6.57,6.57,0,2.05-.95,3.88-2.42,5.09l6.73,9.29s29.33-15.83,126-20.5c96.67,4.67,126,20.5,126,20.5l6.73-9.29c-1.48-1.21-2.42-3.04-2.42-5.09Zm-204.43-7.81c-3.62,0-6.57-2.95-6.57-6.57s2.95-6.57,6.57-6.57,6.57,2.95,6.57,6.57-2.95,6.57-6.57,6.57Zm74.12-6.58c-3.62,0-6.57-2.95-6.57-6.57s2.95-6.57,6.57-6.57,6.57,2.95,6.57,6.57-2.95,6.57-6.57,6.57Zm74.12,6.58c-3.62,0-6.57-2.95-6.57-6.57s2.95-6.57,6.57-6.57,6.57,2.95,6.57,6.57-2.95,6.57-6.57,6.57Z"/>
      <path class="cls-7" d="m363.71,55.08s-3.37-2.62-3.37-10c0-11.25,12.12-17,21.87-17,3.08,0,5.37.83,5.37,1.37-5.75,2.5-23.87,25.62-23.87,25.62Z"/>
      <path class="cls-7" d="m297.91,126.49h-97.49c-.8,2.1-2.83,3.6-5.21,3.6s-4.41-1.5-5.21-3.6h-97.49c-.1.25-.21.5-.34.73,8.76,10.8,28.63,35.32,48.72,60.11.42-.1.86-.16,1.32-.16,3.08,0,5.58,2.5,5.58,5.58,0,.87-.2,1.68-.55,2.41,11.5,14.19,22.7,28,31.51,38.88,1.26-.56,2.56-1.07,3.89-1.5-21.97-27.11-61.16-75.45-80.62-99.46h186.37c-19.46,24.01-58.65,72.35-80.62,99.46,1.34.43,2.64.94,3.9,1.5,8.82-10.88,20.01-24.68,31.51-38.88-.35-.73-.55-1.55-.55-2.41,0-3.08,2.5-5.58,5.58-5.58.46,0,.9.06,1.32.16,20.09-24.79,39.97-49.31,48.72-60.11-.13-.23-.24-.48-.34-.73Z"/>
      <path class="cls-7" d="m174.89,236.03c-8.85-10.92-19.69-24.29-30.82-38.02-.58.21-1.21.33-1.86.33-3.08,0-5.58-2.5-5.58-5.58,0-1.07.3-2.06.82-2.91-19.37-23.89-38.55-47.56-48.62-59.98-.49.14-1.01.22-1.54.22-3.08,0-5.58-2.5-5.58-5.58s2.5-5.58,5.58-5.58c2.28,0,4.23,1.37,5.1,3.32h97.72c.87-1.95,2.82-3.32,5.1-3.32s4.23,1.37,5.1,3.32h97.71c.87-1.95,2.82-3.32,5.1-3.32,3.08,0,5.58,2.5,5.58,5.58s-2.5,5.58-5.58,5.58c-.54,0-1.05-.08-1.54-.22-10.07,12.42-29.25,36.08-48.62,59.98.52.85.82,1.84.82,2.91,0,3.08-2.5,5.58-5.58,5.58-.65,0-1.28-.12-1.86-.33-11.13,13.73-21.97,27.1-30.82,38.02,1.4.83,2.73,1.74,3.99,2.72l98.35-121.34H72.54l98.35,121.34c1.26-.99,2.59-1.9,3.99-2.72Z"/>
      <path class="cls-9" d="m198.38,78.25c0,1.75-1.42,3.17-3.17,3.17s-3.17-1.42-3.17-3.17,1.42-3.17,3.17-3.17,3.17,1.42,3.17,3.17Z"/>
      <path class="cls-10" d="m124.25,84.83c0,1.75-1.42,3.17-3.17,3.17s-3.17-1.42-3.17-3.17,1.42-3.17,3.17-3.17,3.17,1.42,3.17,3.17Z"/>
      <path class="cls-4" d="m61.5,99.21c0,1.75-1.42,3.17-3.17,3.17s-3.17-1.42-3.17-3.17,1.42-3.17,3.17-3.17,3.17,1.42,3.17,3.17Z"/>
      <path class="cls-10" d="m266.17,84.83c0,1.75,1.42,3.17,3.17,3.17s3.17-1.42,3.17-3.17-1.42-3.17-3.17-3.17-3.17,1.42-3.17,3.17Z"/>
      <path class="cls-4" d="m328.92,99.21c0,1.75,1.42,3.17,3.17,3.17s3.17-1.42,3.17-3.17-1.42-3.17-3.17-3.17-3.17,1.42-3.17,3.17Z"/>
      <path class="cls-9" d="m132.31,159.23c-.7-.89-3.69-4.65-3.69-4.65v-7.24h7.83v5h3.16v-5h7.83v5h3.16v-5h8v7.21s-2.86,3.95-3.42,4.73c.16,1.01,2.22,13.73,2.55,15.73h15.94c.58-1.72,6.65-19.79,6.99-20.81-.44-.88-3.05-6.11-3.05-6.11v-7.08h8v5.17h5.16v-5.67h8.83v5.67h5.17v-5.17h8v7.08s-2.61,5.22-3.05,6.11c.34,1.01,6.41,19.09,6.99,20.81h15.94c.32-2,2.38-14.72,2.55-15.73-.56-.77-3.42-4.73-3.42-4.73v-7.21h8v5h3.17v-5h7.83v5h3.17v-5h7.83v7.24s-2.98,3.76-3.69,4.65c.13.45.8,2.79,1.61,5.63,12.39-15.29,22.12-27.29,23.92-29.51H106.78c1.8,2.22,11.53,14.22,23.92,29.51.81-2.84,1.48-5.18,1.61-5.63Z"/>
      <path class="cls-9" d="m164.78,197.42c-.32-1.95-3.35-17.08-20.4-17.08-.37,0-.73.02-1.1.04,4.56,5.63,9.23,11.39,13.81,17.04h7.68Z"/>
      <path class="cls-9" d="m233.33,197.42c4.58-5.65,9.25-11.42,13.81-17.04-.36-.02-.73-.04-1.1-.04-17.05,0-20.08,15.13-20.4,17.08h7.68Z"/>
      <path class="cls-9" d="m214.95,197.42c-.14-1.55-2.03-17.25-19.74-17.25s-19.6,15.69-19.74,17.25h39.49Z"/>
      <path class="cls-8" d="m256.54,158.92l3.83-4.83v-5.33h-5v5h-6v-5h-5v5h-6v-5h-5.17v5.33l3.5,4.83-2.83,17.5h-18.17l-7.5-22.33,3.17-6.33v-5.33h-5.17v5.17h-8v-5.67h-6v5.67h-8v-5.17h-5.17v5.33l3.17,6.33-7.5,22.33h-18.17l-2.83-17.5,3.5-4.83v-5.33h-5.17v5h-6v-5h-5v5h-6v-5h-5v5.33l3.83,4.83-2.08,7.29c3.33,4.1,6.83,8.42,10.41,12.84.7-.08,1.43-.13,2.17-.13,19.33,0,21.83,18.5,21.83,18.5h7.83s1.33-18.67,21.17-18.67,21.17,18.67,21.17,18.67h7.83s2.5-18.5,21.83-18.5c.74,0,1.47.05,2.17.13,3.58-4.42,7.08-8.74,10.41-12.84l-2.08-7.29Z"/>
      <path class="cls-3" d="m195.21,230.58c3.54,0,6.96.45,10.19,1.28,6.91-8.52,16.57-20.44,26.77-33.03h-73.94c10.2,12.59,19.87,24.51,26.77,33.03,3.24-.83,6.66-1.28,10.19-1.28Z"/>
      <g>
        <path class="cls-5" d="m206.9,263.46c0-6.43,2.1-12.57,6-17.8-5.24,2.61-11.27,4.11-17.69,4.11s-12.33-1.42-17.67-4.08c3.89,5.23,5.98,11.36,5.98,17.77s-2.22,12.69-6.02,17.79c5.35-2.67,11.41-4.1,17.72-4.1s12.36,1.43,17.72,4.1c-3.8-5.11-6.02-11.22-6.02-17.79Zm-11.69,10.12c-2.14,0-3.87-1.23-3.87-2.75s1.73-2.75,3.87-2.75,3.87,1.23,3.87,2.75-1.74,2.75-3.87,2.75Zm0-7.5c-2.14,0-3.87-1.23-3.87-2.75s1.73-2.75,3.87-2.75,3.87,1.23,3.87,2.75-1.74,2.75-3.87,2.75Zm0-7.5c-2.14,0-3.87-1.23-3.87-2.75s1.73-2.75,3.87-2.75,3.87,1.23,3.87,2.75-1.74,2.75-3.87,2.75Z"/>
        <path class="cls-5" d="m173.32,240.46c6.12,4.56,13.78,7.04,21.89,7.04s15.95-2.65,21.87-7.05c-6.12-4.55-13.78-7.03-21.87-7.03s-15.76,2.48-21.89,7.04Z"/>
        <path class="cls-5" d="m173.32,286.46c6.12,4.56,13.78,7.04,21.89,7.04s15.95-2.65,21.87-7.05c-6.12-4.55-13.78-7.03-21.87-7.03s-15.76,2.48-21.89,7.04Z"/>
        <path class="cls-5" d="m161.17,263.46c0,7.96,3.5,15.47,9.85,21.13.06.05.12.1.18.16,6.2-5.44,10.05-12.97,10.05-21.29s-3.5-15.47-9.85-21.13c-.06-.05-.13-.11-.19-.16-.06.05-.13.11-.19.16-6.35,5.66-9.85,13.17-9.85,21.13Z"/>
        <path class="cls-5" d="m209.17,263.46c0,8.31,3.84,15.84,10.04,21.28,6.2-5.44,10.04-12.97,10.04-21.28s-3.5-15.47-9.85-21.13c-.06-.05-.13-.11-.19-.16-.06.05-.13.11-.19.16-6.35,5.66-9.85,13.17-9.85,21.13Z"/>
      </g>
      <g>
        <path class="cls-1" d="m137.38,246.83c-17.27,0-26.58-12.92-26.58-25.08,0-10.13,8.07-18.22,12.88-22.14l.58-.48,6.6,8.15-.58.47c-2.7,2.2-8.99,7.98-8.99,13.99s4.28,14.58,16.08,14.58c6.55,0,10.79-1.98,13.19-3.64l.57-.4,6.59,8.13-.64.47c-3.7,2.71-10.12,5.94-19.71,5.94Z"/>
        <path class="cls-2" d="m124.15,200.2c1.89,2.33,3.78,4.66,5.66,6.98-4,3.26-9.27,8.85-9.27,14.58,0,6.16,4.48,15.33,16.83,15.33,6.66,0,11.03-1.99,13.61-3.78,1.93,2.38,3.82,4.71,5.66,6.98-3.82,2.8-10.05,5.8-19.27,5.8-16.78,0-25.83-12.54-25.83-24.33,0-9.72,7.68-17.54,12.61-21.56m.22-2.11l-1.17.95c-4.91,4.01-13.16,12.28-13.16,22.72,0,12.52,9.58,25.83,27.33,25.83,9.79,0,16.37-3.31,20.16-6.09l1.27-.93-.99-1.22-3.12-3.85-2.54-3.13-.88-1.08-1.14.79c-2.31,1.6-6.4,3.51-12.76,3.51s-15.33-3.68-15.33-13.83c0-5.69,6.09-11.28,8.71-13.41l1.16-.95-.94-1.16-1.35-1.67-4.31-5.31-.95-1.17h0Z"/>
      </g>
      <g>
        <path class="cls-6" d="m253.04,246.83c-5.51,0-10.55-1.05-14.98-3.12l-6.08-2.85,34.17-42.15,4.12,4.06c6.11,6.03,9.34,12.59,9.34,18.98,0,12.16-9.32,25.08-26.58,25.08Zm-3.67-10.74c1.23.16,2.45.24,3.67.24,11.8,0,16.08-8.72,16.08-14.58,0-2.19-.82-4.54-2.45-7l-17.3,21.34Z"/>
        <path class="cls-2" d="m266.22,199.82l3.53,3.48c5.97,5.88,9.12,12.26,9.12,18.45,0,11.8-9.05,24.33-25.83,24.33-5.4,0-10.33-1.03-14.66-3.05l-5.21-2.44,33.05-40.77m-13.18,37.26c12.35,0,16.83-9.17,16.83-15.33,0-2.96-1.39-5.82-3.15-8.25-4.19,5.17-13.74,16.95-18.75,23.13,1.61.28,3.29.45,5.07.45m13.06-39.49l-1.04,1.28-33.05,40.77-1.21,1.49,1.74.81,5.21,2.44c4.53,2.12,9.67,3.2,15.29,3.2,17.75,0,27.33-13.31,27.33-25.83,0-6.6-3.31-13.35-9.57-19.51l-3.53-3.48-1.18-1.16h0Zm-15.27,37.9l11.43-14.1,4.34-5.35c1.18,2.01,1.78,3.93,1.78,5.71,0,10.15-9.17,13.83-15.33,13.83-.74,0-1.48-.03-2.22-.09h0Z"/>
      </g>
      <path class="cls-2" d="m195.21,318.79c12.36,0,23.55,2.77,31.27,5.34l1.35,7.5c-5.99-2.22-15.66-5.15-26.62-5.99v45.71h-12v-45.71c-10.96.84-20.63,3.77-26.62,5.99l1.35-7.5c7.72-2.57,18.91-5.34,31.27-5.34m0-1.5c-12.78,0-24.32,2.95-31.75,5.42l-.85.28-.16.88-1.35,7.5-.47,2.59,2.46-.91c5.73-2.13,14.54-4.8,24.6-5.77v45.57h15v-45.57c10.07.97,18.87,3.64,24.6,5.77l2.46.91-.47-2.59-1.35-7.5-.16-.88-.84-.28c-7.43-2.47-18.97-5.42-31.75-5.42h0Z"/>
      <path class="cls-6" d="m226.48,324.12c-7.72-2.57-18.91-5.34-31.27-5.34v52.55h6v-45.71c10.97.84,20.63,3.77,26.62,5.99l-1.35-7.5Z"/>
      <path class="cls-6" d="m220.71,207.33h-17.62v2.5h17.62v-2.5Zm-26.62-7h-19.12v2h19.12v-2Zm-4.12,5.25h17.12v-2.12h-17.12v2.12Zm21.12,14.25h-15v2.12h15v-2.12Zm-14.87-12.5h-24.25v2.5h24.25v-2.5Zm29-8.5v2.12h5.25c.57-.71,1.15-1.41,1.72-2.12h-6.97Zm-48.75,19.12h14.25v-2h-14.25v2Zm6.12,7.5h10.75v-2.12h-10.75v2.12Zm27.62-13.5h-18.87v1.87h18.87v-1.87Zm-12.25,6h15.25v-2h-15.25v2Zm18.5-17.62h-16.75v2h16.75v-2Zm-33.39,29.12h13.27v-2.12h-14.99c.59.73,1.16,1.43,1.72,2.12Zm16.77-3.25h10.15c.59-.73,1.2-1.49,1.82-2.25h-11.98v2.25Zm16.25-13.5h4.85c.5-.62,1.01-1.25,1.52-1.87h-6.37v1.87Zm-2-7h12.52c.57-.71,1.15-1.41,1.72-2.12h-14.24v2.12Zm-12.75,23.75h6.02c.59-.73,1.2-1.48,1.82-2.25h-7.84v2.25Zm-12-9.62h-14.07c.58.72,1.16,1.43,1.72,2.12h12.35v-2.12Zm-8-16.37h-19.34c.61.75,1.22,1.5,1.82,2.25h17.52v-2.25Zm-11.12-3h-10.65c.51.63,1.01,1.25,1.52,1.87h9.13v-1.87Zm13.5,11.37h-14.93c.58.71,1.15,1.42,1.72,2.12h13.21v-2.12Z"/>
    </g>
  </g>
</svg>