<?xml version="1.0" encoding="UTF-8"?>
<svg id="Layer_2" data-name="Layer 2" xmlns="http://www.w3.org/2000/svg" xmlns:xlink="http://www.w3.org/1999/xlink" viewBox="0 0 33.56 19.58">
  <defs>
    <style>
      .cls-1 {
        clip-path: url(#clippath);
      }

      .cls-2 {
        fill: none;
      }

      .cls-2, .cls-3, .cls-4 {
        stroke-width: 0px;
      }

      .cls-5 {
        clip-path: url(#clippath-1);
      }

      .cls-6 {
        clip-path: url(#clippath-4);
      }

      .cls-7 {
        clip-path: url(#clippath-3);
      }

      .cls-8 {
        clip-path: url(#clippath-2);
      }

      .cls-9 {
        clip-path: url(#clippath-7);
      }

      .cls-10 {
        clip-path: url(#clippath-8);
      }

      .cls-11 {
        clip-path: url(#clippath-6);
      }

      .cls-12 {
        clip-path: url(#clippath-5);
      }

      .cls-13 {
        clip-path: url(#clippath-9);
      }

      .cls-14 {
        clip-path: url(#clippath-14);
      }

      .cls-15 {
        clip-path: url(#clippath-13);
      }

      .cls-16 {
        clip-path: url(#clippath-12);
      }

      .cls-17 {
        clip-path: url(#clippath-10);
      }

      .cls-18 {
        clip-path: url(#clippath-11);
      }

      .cls-3 {
        fill: #d30025;
      }

      .cls-4 {
        fill: #fff;
      }
    </style>
    <clipPath id="clippath">
      <rect class="cls-2" width="33.56" height="19.58"/>
    </clipPath>
    <clipPath id="clippath-1">
      <rect class="cls-2" width="33.56" height="19.58"/>
    </clipPath>
    <clipPath id="clippath-2">
      <rect class="cls-2" width="33.56" height="19.58"/>
    </clipPath>
    <clipPath id="clippath-3">
      <rect class="cls-2" width="33.56" height="19.58"/>
    </clipPath>
    <clipPath id="clippath-4">
      <rect class="cls-2" width="33.56" height="19.58"/>
    </clipPath>
    <clipPath id="clippath-5">
      <rect class="cls-2" width="33.56" height="19.58"/>
    </clipPath>
    <clipPath id="clippath-6">
      <rect class="cls-2" width="33.56" height="19.58"/>
    </clipPath>
    <clipPath id="clippath-7">
      <rect class="cls-2" width="33.56" height="19.58"/>
    </clipPath>
    <clipPath id="clippath-8">
      <rect class="cls-2" width="33.56" height="19.58"/>
    </clipPath>
    <clipPath id="clippath-9">
      <rect class="cls-2" width="33.56" height="19.58"/>
    </clipPath>
    <clipPath id="clippath-10">
      <rect class="cls-2" width="33.56" height="19.58"/>
    </clipPath>
    <clipPath id="clippath-11">
      <rect class="cls-2" width="33.56" height="19.58"/>
    </clipPath>
    <clipPath id="clippath-12">
      <rect class="cls-2" width="33.56" height="19.58"/>
    </clipPath>
    <clipPath id="clippath-13">
      <rect class="cls-2" width="33.56" height="19.58"/>
    </clipPath>
    <clipPath id="clippath-14">
      <rect class="cls-2" width="33.56" height="19.58"/>
    </clipPath>
  </defs>
  <g id="Layer_1-2" data-name="Layer 1">
    <g id="TUNISIA">
      <g>
        <g class="cls-1">
          <rect class="cls-3" width="33.56" height="19.58"/>
        </g>
        <g class="cls-5">
          <g>
            <g class="cls-8">
              <path class="cls-4" d="m16.78,4.89c2.7,0,4.89,2.2,4.89,4.89s-2.19,4.9-4.89,4.9-4.9-2.19-4.9-4.9c0-2.7,2.19-4.89,4.9-4.89"/>
            </g>
            <g class="cls-7">
              <path class="cls-3" d="m16.78,6.12c2.02,0,3.67,1.65,3.67,3.67s-1.64,3.67-3.67,3.67-3.68-1.65-3.68-3.67,1.65-3.67,3.68-3.67"/>
            </g>
            <g class="cls-6">
              <path class="cls-4" d="m17.76,6.85c1.62,0,2.93,1.32,2.93,2.93s-1.32,2.94-2.93,2.94-2.94-1.32-2.94-2.94,1.32-2.93,2.94-2.93"/>
            </g>
            <g class="cls-12">
              <polyline class="cls-3" points="15.56 9.79 17.65 10.47 17.99 9.42"/>
            </g>
            <g class="cls-11">
              <polyline class="cls-3" points="15.56 9.79 17.65 9.11 17.99 10.16"/>
            </g>
            <g class="cls-9">
              <polyline class="cls-3" points="17.08 7.69 17.08 9.9 18.18 9.9"/>
            </g>
            <g class="cls-10">
              <polyline class="cls-3" points="17.08 7.69 18.37 9.48 17.48 10.12"/>
            </g>
            <g class="cls-13">
              <polyline class="cls-3" points="17.08 11.88 18.37 10.1 17.48 9.45"/>
            </g>
            <g class="cls-17">
              <polyline class="cls-3" points="17.08 11.88 17.08 9.68 18.18 9.68"/>
            </g>
            <g class="cls-18">
              <polyline class="cls-3" points="19.54 8.49 17.45 9.18 17.79 10.23"/>
            </g>
            <g class="cls-16">
              <polyline class="cls-3" points="19.54 8.49 18.25 10.27 17.35 9.63"/>
            </g>
            <g class="cls-15">
              <polyline class="cls-3" points="19.54 11.09 18.25 9.3 17.35 9.95"/>
            </g>
            <g class="cls-14">
              <polyline class="cls-3" points="19.54 11.09 17.45 10.4 17.79 9.35"/>
            </g>
          </g>
        </g>
      </g>
    </g>
  </g>
</svg>