<?xml version="1.0" encoding="UTF-8"?>
<svg id="Layer_2" data-name="Layer 2" xmlns="http://www.w3.org/2000/svg" xmlns:xlink="http://www.w3.org/1999/xlink" viewBox="0 0 33.56 19.58">
  <defs>
    <style>
      .cls-1 {
        clip-path: url(#clippath);
      }

      .cls-2 {
        fill: none;
      }

      .cls-2, .cls-3, .cls-4 {
        stroke-width: 0px;
      }

      .cls-5 {
        clip-path: url(#clippath-1);
      }

      .cls-6 {
        clip-path: url(#clippath-4);
      }

      .cls-7 {
        clip-path: url(#clippath-3);
      }

      .cls-8 {
        clip-path: url(#clippath-2);
      }

      .cls-9 {
        clip-path: url(#clippath-7);
      }

      .cls-10 {
        clip-path: url(#clippath-8);
      }

      .cls-11 {
        clip-path: url(#clippath-6);
      }

      .cls-12 {
        clip-path: url(#clippath-5);
      }

      .cls-13 {
        clip-path: url(#clippath-9);
      }

      .cls-14 {
        clip-path: url(#clippath-13);
      }

      .cls-15 {
        clip-path: url(#clippath-12);
      }

      .cls-16 {
        clip-path: url(#clippath-10);
      }

      .cls-17 {
        clip-path: url(#clippath-11);
      }

      .cls-3 {
        fill: #d00027;
      }

      .cls-4 {
        fill: #fff;
      }
    </style>
    <clipPath id="clippath">
      <rect class="cls-2" width="33.56" height="19.58"/>
    </clipPath>
    <clipPath id="clippath-1">
      <rect class="cls-2" width="33.56" height="19.58"/>
    </clipPath>
    <clipPath id="clippath-2">
      <rect class="cls-2" width="33.56" height="19.58"/>
    </clipPath>
    <clipPath id="clippath-3">
      <rect class="cls-2" width="33.56" height="19.58"/>
    </clipPath>
    <clipPath id="clippath-4">
      <rect class="cls-2" width="33.56" height="19.58"/>
    </clipPath>
    <clipPath id="clippath-5">
      <rect class="cls-2" width="33.56" height="19.58"/>
    </clipPath>
    <clipPath id="clippath-6">
      <rect class="cls-2" width="33.56" height="19.58"/>
    </clipPath>
    <clipPath id="clippath-7">
      <rect class="cls-2" width="33.56" height="19.58"/>
    </clipPath>
    <clipPath id="clippath-8">
      <rect class="cls-2" width="33.56" height="19.58"/>
    </clipPath>
    <clipPath id="clippath-9">
      <rect class="cls-2" width="33.56" height="19.58"/>
    </clipPath>
    <clipPath id="clippath-10">
      <rect class="cls-2" width="33.56" height="19.58"/>
    </clipPath>
    <clipPath id="clippath-11">
      <rect class="cls-2" width="33.56" height="19.58"/>
    </clipPath>
    <clipPath id="clippath-12">
      <rect class="cls-2" width="33.56" height="19.58"/>
    </clipPath>
    <clipPath id="clippath-13">
      <rect class="cls-2" width="33.56" height="19.58"/>
    </clipPath>
  </defs>
  <g id="Layer_1-2" data-name="Layer 1">
    <g id="TURKEY">
      <g>
        <g class="cls-1">
          <rect class="cls-3" width="33.56" height="19.58"/>
        </g>
        <g class="cls-5">
          <g>
            <g class="cls-8">
              <path class="cls-4" d="m9.79,4.89c2.7,0,4.9,2.19,4.9,4.89s-2.19,4.89-4.9,4.89-4.89-2.19-4.89-4.89,2.19-4.89,4.89-4.89"/>
            </g>
            <g class="cls-7">
              <path class="cls-3" d="m11.01,5.87c2.17,0,3.92,1.76,3.92,3.92s-1.75,3.92-3.92,3.92-3.92-1.75-3.92-3.92,1.75-3.92,3.92-3.92"/>
            </g>
            <g class="cls-6">
              <polygon class="cls-4" points="13.93 9.79 16.25 10.55 16.63 9.38 13.93 9.79"/>
            </g>
            <g class="cls-12">
              <polygon class="cls-4" points="13.93 9.79 16.25 9.04 16.63 10.2 13.93 9.79"/>
            </g>
            <g class="cls-11">
              <polygon class="cls-4" points="15.62 7.46 15.62 9.91 16.84 9.91 15.62 7.46"/>
            </g>
            <g class="cls-9">
              <polygon class="cls-4" points="15.62 7.46 17.05 9.44 16.07 10.16 15.62 7.46"/>
            </g>
            <g class="cls-10">
              <polygon class="cls-4" points="15.62 12.12 17.05 10.14 16.07 9.42 15.62 12.12"/>
            </g>
            <g class="cls-13">
              <polygon class="cls-4" points="15.62 12.12 15.62 9.67 16.84 9.67 15.62 12.12"/>
            </g>
            <g class="cls-16">
              <polygon class="cls-4" points="18.35 8.36 16.03 9.11 16.4 10.27 18.35 8.36"/>
            </g>
            <g class="cls-17">
              <polygon class="cls-4" points="18.35 8.36 16.91 10.33 15.92 9.61 18.35 8.36"/>
            </g>
            <g class="cls-15">
              <polygon class="cls-4" points="18.35 11.23 16.91 9.25 15.92 9.97 18.35 11.23"/>
            </g>
            <g class="cls-14">
              <polygon class="cls-4" points="18.35 11.23 16.03 10.47 16.4 9.31 18.35 11.23"/>
            </g>
          </g>
        </g>
      </g>
    </g>
  </g>
</svg>