<?xml version="1.0" encoding="UTF-8"?>
<svg id="Layer_2" data-name="Layer 2" xmlns="http://www.w3.org/2000/svg" viewBox="0 0 301.45 383.95">
  <defs>
    <style>
      .cls-1 {
        fill: #038f34;
      }

      .cls-1, .cls-2, .cls-3, .cls-4, .cls-5 {
        stroke-width: 0px;
      }

      .cls-1, .cls-2, .cls-3, .cls-5 {
        fill-rule: evenodd;
      }

      .cls-2 {
        fill: red;
      }

      .cls-3, .cls-4 {
        fill: #fff;
      }
    </style>
  </defs>
  <g id="Ebene_1" data-name="Ebene 1">
    <g>
      <path class="cls-3" d="m182.67,283.74l9.76-13.47c.11-.15.54-.08.55.11l.78,13.34-10.48.84c-.35.03-.81-.54-.6-.82h0Zm15.29,2.33l4.85-.26-.18-2.73-4.76.42-1.35-17.54-4.7.28-13.37,18.82.14,2.18,15.41-.8.52,8.33,4.1-.27-.66-8.43Z"/>
      <path class="cls-3" d="m135.4,292l4.66-28.07-3.29-.6-7.21,1.85-.07,2.95,5.54-1.64c.54-.16.44.39.37.76l-4.28,24.03,4.28.71Z"/>
      <path class="cls-3" d="m210.59,281.5l8.03-14.57c.09-.16.52-.14.56.04l2.41,13.15-10.3,2.12c-.34.07-.87-.43-.7-.74h0Zm15.46.43l4.79-.86-.51-2.69-4.67,1-3.5-17.24-4.63.86-10.96,20.32.41,2.14,15.19-2.69,1.54,8.21,4.04-.77-1.69-8.29Z"/>
      <path class="cls-3" d="m295.13,191.67c0-51.43-16.29-97.81-42.57-131.34C226.36,26.93,190.24,6.33,150.48,6.33S74.78,26.9,48.72,60.25C22.52,93.78,6.33,140.2,6.33,191.67s16.18,98.14,42.39,131.84c26.01,33.43,61.89,54.1,101.56,54.1s75.9-20.74,102.14-54.26c26.36-33.68,42.71-80.23,42.71-131.68h0ZM120.46,70.37h8.92c1.16,0,2.03.25,2.7,1,.6.67.86,1.59.86,2.98v5.7s7,0,7,0v-5.72c-.01-1.63.56-2.63,1.51-3.26.83-.55,1.83-.69,2.92-.69h10.23c.85,0,1.58.35,2.1.91.51.55.81,1.3.81,2.1v32.71h39.02v51.28h-39.02v21.22c1.22-1.56,2.54-3.04,3.94-4.44,8.89-8.9,21.18-14.39,34.75-14.39s25.86,5.5,34.75,14.39c.92.92,1.8,1.87,2.64,2.86,5.5,5.53,9,11.42,11.15,18,2.13,6.5,2.91,13.64,2.99,21.75l22.79.18c1.05.01,2.4.32,3.4,1,.96.65,1.63,1.6,1.62,2.91,0,.54-.01,1.06-.02,1.57-.54,23.85-10.65,47.1-28.49,64.35-17.81,17.22-43.33,28.46-74.69,28.3-.78,0-1.56-.01-2.32-.03-22.81-.52-49.54-10.59-69.05-28.96-16.16-15.22-27.38-36.11-27.38-61.96v-66.74h-39.99v-51.28h39.99v-32.71c0-.83.34-1.58.88-2.12h0c.55-.55,1.3-.89,2.13-.89h10.07c1.37,0,2.21.2,2.87.99.58.68.71,1.56.71,2.98v5.71s5.68,0,5.68,0l.02-5.77v-.13c0-2.44.01-3.77,3.82-3.77h8.37c1.23,0,2.11.2,2.82.91.66.66.94,1.6.95,3.06l.03,5.69h4.97s0-5.7,0-5.7c0-1.04,0-1.84.48-2.6.55-.89,1.43-1.36,3.06-1.36h0Z"/>
      <path class="cls-3" d="m181.13,180.25l-10.4-10.26c-2.68,1.75-5.16,3.78-7.42,6.03-1.9,1.9-3.63,3.96-5.18,6.16l10.61,10.5,12.39-12.44Z"/>
      <path class="cls-3" d="m173.04,168.57l9.94,9.81,13.25-13.31-2.64-2.6c-7.45.41-14.44,2.58-20.55,6.1h0Z"/>
      <path class="cls-3" d="m152.76,208.75l-2.96-2.94c-.07,1.03-.1,2.06-.1,3.1,0,.95.03,1.9.09,2.83l2.98-2.99Z"/>
      <path class="cls-3" d="m168.71,224.59l-10.76,10.78c1.59,2.3,3.39,4.45,5.36,6.42,2.26,2.27,4.76,4.3,7.46,6.06l10.65-10.65-12.71-12.62Z"/>
      <path class="cls-3" d="m170.57,222.74l12.71,12.62,12.36-12.35-12.74-12.61-12.32,12.34Z"/>
      <path class="cls-3" d="m183.29,239.07l-10.21,10.2c5.97,3.43,12.78,5.57,20.04,6.04l-.35-.35,3.23-3.28-12.72-12.63Z"/>
      <path class="cls-3" d="m197.87,253.55l-1.85,1.87h.18c1.15,0,2.29-.04,3.43-.12l-1.76-1.75Z"/>
      <path class="cls-3" d="m199.71,251.68l3.27,3.25c6.59-.96,12.73-3.31,18.11-6.73l-9.09-8.99-12.3,12.47Z"/>
      <path class="cls-3" d="m199.36,222.99l12.63,12.5,12.4-12.57-12.56-12.39-12.46,12.46Z"/>
      <path class="cls-3" d="m226.26,224.77l-12.4,12.57,9.46,9.36c2.05-1.48,3.98-3.12,5.77-4.9,2.4-2.4,4.54-5.07,6.38-7.95l-9.21-9.08Z"/>
      <path class="cls-3" d="m197.49,221.14l12.46-12.46-12.77-12.6-12.43,12.45,12.74,12.61Z"/>
      <path class="cls-3" d="m228.1,222.9l8.74,8.63c3.45-6.19,5.53-13.25,5.82-20.77l-1.32-1.3-13.25,13.43Z"/>
      <path class="cls-3" d="m228.87,193.49l12.46,12.26,1.18-1.2c-.63-6.78-2.72-13.14-5.94-18.76l-7.7,7.7Z"/>
      <path class="cls-3" d="m212.31,177.21l8.04-8.05c-5.42-3.3-11.56-5.52-18.14-6.37l-2.25,2.26,12.35,12.15Z"/>
      <path class="cls-3" d="m182.98,178.39l13.25-13.31-2.64-2.6c-7.45.41-14.44,2.58-20.55,6.1l9.94,9.81Z"/>
      <path class="cls-3" d="m197.28,162.42l.8.79.73-.73c-.51-.03-1.02-.05-1.54-.06h0Z"/>
      <path class="cls-2" d="m154.5,182.89v-109.5h-10.13c-.57,0-1.04.04-1.26.19-.11.07-.18.29-.18.75v7.02c.02.48-.03.81-.48,1.25h0c-.35.34-.7.45-1.24.45h-9.43c-.47,0-.82-.06-1.22-.39-.44-.37-.61-.79-.61-1.41h0v-6.9c0-.59-.03-.9-.1-.97,0,0-.16.01-.47.01h-8.92c-.4,0-.46-.16-.5-.09-.04.06-.04.49-.04,1.04v6.87c0,.67-.22,1.12-.71,1.49-.38.28-.75.36-1.22.36h-7.1c-.6-.02-1.04-.17-1.42-.55-.39-.4-.53-.82-.53-1.4l-.03-6.74c0-.61-.03-.9-.08-.96,0,0-.25-.01-.69-.01h-8.37c-.82,0-.82.27-.82.76v.13l-.03,7.15c0,.46-.12.82-.46,1.16h0c-.33.34-.69.47-1.16.47h0s-8.43,0-8.43,0h0c-.38,0-.72-.11-1.02-.35h0c-.39-.32-.58-.73-.58-1.24h0l-.02-7.12c0-.68,0-1.03-.02-1.05-.06-.08-.13.1-.56.1h-10.07v150.74c0,24.93,10.83,45.08,26.43,59.77,18.96,17.86,44.92,27.65,67.05,28.15.77.02,1.53.03,2.27.03,30.52.15,55.31-10.76,72.6-27.47,17.26-16.69,27.05-39.18,27.57-62.24.01-.52.02-1.03.02-1.53,0-.15-.13-.29-.31-.42-.48-.33-1.18-.48-1.74-.48h0l-24.28-.19h-1.49v-1.5c0-.53,0-1.05,0-1.58-1.66,10.46-6.62,19.82-13.78,26.98-8.89,8.89-21.18,14.39-34.75,14.39s-25.86-5.5-34.75-14.39c-8.89-8.9-14.39-21.18-14.39-34.75,0-9.55,2.73-18.47,7.44-26.02h0Zm-17.73,80.44l3.29.6-4.66,28.07-4.28-.71,4.28-24.03c.07-.38.17-.92-.37-.76l-5.54,1.64.07-2.95,7.21-1.85Zm15.32,12.39c.32-5.39,4.11-10.36,11.5-9.93,7.63.45,10.2,6.99,9.64,14.1-.64,8.07-4.23,14.98-15.34,15.3-1.55.05-3.88-.07-4.92-.17l.14-3.12c1.09.14,3.1.13,4.65.06,8.25-.35,10.61-5.45,11.57-9.04.07-.24-.48-.89-.82-.57-1.96,1.35-3.39,2.5-6.72,2.44-5.8-.11-10-3.87-9.7-9.07h0Zm54.48,7.6l10.96-20.32,4.63-.86,3.5,17.24,4.67-1,.51,2.69-4.79.86,1.69,8.29-4.04.77-1.54-8.21-15.19,2.69-.41-2.14Zm-28.11,1.73l13.37-18.82,4.7-.28,1.35,17.54,4.76-.42.18,2.73-4.85.26.66,8.43-4.1.27-.52-8.33-15.41.8-.14-2.18Z"/>
      <path class="cls-5" d="m76.61,70.37h10.07c1.37,0,2.21.2,2.87.99.58.68.71,1.56.71,2.98v5.71s5.68,0,5.68,0l.02-5.77v-.13c0-2.44.01-3.77,3.82-3.77h8.37c1.23,0,2.11.2,2.82.91.66.66.94,1.6.95,3.06l.03,5.69h4.97s0-5.7,0-5.7c0-1.04,0-1.84.48-2.6.55-.89,1.43-1.36,3.06-1.36h8.92c1.16,0,2.03.25,2.7,1,.6.67.86,1.59.86,2.98v5.7s7,0,7,0v-5.72c-.01-1.63.56-2.63,1.51-3.26.83-.55,1.83-.69,2.92-.69h10.23c.85,0,1.58.35,2.1.91.51.55.81,1.3.81,2.1v141.89l73.32-39.49.96-.52.79.75c6.08,5.81,9.88,12.02,12.16,18.99,2.13,6.5,2.91,13.64,2.99,21.75l22.79.18c1.05.01,2.4.32,3.4,1,.96.65,1.63,1.6,1.62,2.91,0,.54-.01,1.06-.02,1.57-.54,23.85-10.65,47.1-28.49,64.35-17.81,17.22-43.33,28.46-74.69,28.3-.78,0-1.56-.01-2.32-.03-22.81-.52-49.54-10.59-69.05-28.96-16.16-15.22-27.38-36.11-27.38-61.96V73.39c0-.83.34-1.58.88-2.12h0c.55-.55,1.3-.89,2.13-.89h0Zm10.07,3.01h-10.07v150.73c0,24.93,10.83,45.09,26.43,59.77,18.96,17.86,44.92,27.65,67.05,28.15.77.02,1.53.03,2.27.03,30.52.15,55.31-10.76,72.6-27.47,17.26-16.69,27.05-39.18,27.57-62.24.01-.52.02-1.03.02-1.53,0-.15-.13-.29-.31-.42-.48-.33-1.18-.48-1.74-.48h0l-24.28-.19h-2.16s.15-1.5.15-1.5c0-8.41-.19-15.73-2.34-22.31-2.03-6.2-5.35-11.76-10.59-16.98l-74.56,40.16-2.22,1.2V73.39h-10.13c-.57,0-1.04.04-1.26.19-.11.07-.18.29-.18.75v7.02c.02.48-.03.81-.48,1.25h0c-.35.34-.7.45-1.24.45h-9.43c-.47,0-.82-.06-1.22-.39-.44-.37-.61-.79-.61-1.41h0v-6.9c0-.59-.03-.9-.1-.97,0,0-.16.01-.47.01h-8.92c-.4,0-.46-.16-.5-.09-.04.06-.04.49-.04,1.04v6.87c0,.67-.22,1.12-.71,1.49-.38.28-.75.36-1.22.36h-7.1c-.6-.02-1.04-.17-1.42-.55-.39-.4-.53-.82-.53-1.4l-.03-6.74c0-.61-.03-.9-.08-.96,0,0-.25-.01-.69-.01h-8.37c-.82,0-.82.27-.82.76v.13l-.03,7.15c0,.46-.12.82-.46,1.16h0c-.33.34-.69.47-1.16.47h0s-8.43,0-8.43,0h0c-.38,0-.72-.11-1.02-.35h0c-.39-.32-.58-.73-.58-1.24h0l-.02-7.12c0-.68,0-1.03-.02-1.05-.06-.08-.13.1-.56.1h0Z"/>
      <path class="cls-3" d="m226.99,191.64l8.16-8.16c-1.76-2.69-3.79-5.19-6.06-7.46-1.99-1.99-4.16-3.8-6.48-5.4l-8.42,8.43,12.8,12.59Z"/>
      <path class="cls-3" d="m154.62,210.6l-4.51,4.54c.87,6.52,3.09,12.61,6.38,17.98l10.36-10.38-12.22-12.14Z"/>
      <path class="cls-3" d="m166.89,194.55l-10.23-10.13c-3.34,5.37-5.6,11.48-6.52,18.02l4.48,4.44,12.27-12.33Z"/>
      <path class="cls-3" d="m183,182.09l-12.39,12.45,12.27,12.14,12.43-12.44-12.31-12.14Z"/>
      <path class="cls-3" d="m225.13,193.5l-12.8-12.59-13.29,13.32,12.77,12.6,13.32-13.32Z"/>
      <path class="cls-5" d="m193.59,162.48c-7.45.41-14.44,2.58-20.55,6.1l9.94,9.81,13.25-13.31-2.64-2.6Zm-43.45,39.97l4.48,4.44,12.27-12.33-10.23-10.13c-3.34,5.37-5.6,11.48-6.52,18.02h0Zm6.34,6.29l12.23,12.14,12.32-12.34-12.27-12.14-12.28,12.34Zm14.09,14l12.71,12.62,12.36-12.35-12.74-12.61-12.32,12.34Zm14.58,14.48l12.7,12.61,12.29-12.47-12.64-12.51-12.36,12.36Zm14.57,14.47l3.27,3.25c6.59-.96,12.73-3.31,18.11-6.73l-9.09-8.99-12.3,12.47Zm-.09,3.62l-1.76-1.75-1.85,1.87h.18c1.15,0,2.29-.04,3.43-.12h0Zm-3.62-3.6l-12.72-12.63-10.21,10.2c5.97,3.43,12.78,5.57,20.04,6.04l-.35-.35,3.23-3.28Zm-14.59-14.49l-12.71-12.62-10.76,10.78c1.59,2.3,3.39,4.45,5.36,6.42,2.26,2.27,4.76,4.3,7.46,6.06l10.65-10.65Zm-14.57-14.47l-12.22-12.14-4.51,4.54c.87,6.52,3.09,12.61,6.38,17.98l10.36-10.38Zm-14.09-13.99l-2.96-2.94c-.07,1.03-.1,2.06-.1,3.1,0,.95.03,1.9.09,2.83l2.98-2.99Zm30.12-2.07l12.43-12.44-12.31-12.14-12.39,12.45,12.27,12.14Zm14.28-14.3l13.29-13.31-12.35-12.15-13.25,13.32,12.31,12.15Zm15.15-15.17l8.04-8.05c-5.42-3.3-11.56-5.52-18.14-6.37l-2.25,2.26,12.35,12.15Zm10.29-6.58l-8.42,8.43,12.8,12.59,8.16-8.16c-1.76-2.69-3.79-5.19-6.06-7.46-1.99-1.99-4.16-3.8-6.48-5.4h0Zm-10.27,10.29l-13.29,13.32,12.77,12.6,13.32-13.32-12.8-12.59Zm-15.15,15.18l-12.43,12.45,12.74,12.61,12.46-12.46-12.77-12.6Zm-26.45-26.09c-2.68,1.75-5.16,3.78-7.42,6.03-1.9,1.9-3.63,3.96-5.18,6.16l10.61,10.5,12.39-12.44-10.4-10.26Zm42.95,38.68l12.55,12.38,13.25-13.43-12.47-12.27-13.32,13.32Zm14.42,14.23l8.74,8.63c3.45-6.19,5.53-13.25,5.82-20.77l-1.32-1.3-13.25,13.43Zm7.36,10.95l-9.21-9.08-12.4,12.57,9.46,9.36c2.05-1.48,3.98-3.12,5.77-4.9,2.4-2.4,4.54-5.07,6.38-7.95h0Zm-11.08-10.93l-12.56-12.39-12.46,12.46,12.63,12.5,12.4-12.57Zm-26.3-59.71l.73-.73c-.51-.03-1.02-.05-1.54-.06l.8.79Zm30.78,30.28l12.46,12.26,1.18-1.2c-.63-6.78-2.72-13.14-5.94-18.76l-7.7,7.7Zm16.47,16.2v.36c-.31,13.11-5.74,24.96-14.39,33.6-8.89,8.89-21.18,14.39-34.75,14.39s-25.86-5.5-34.75-14.39c-8.89-8.9-14.39-21.18-14.39-34.75s5.5-25.86,14.39-34.75c8.89-8.9,21.18-14.39,34.75-14.39s25.86,5.5,34.75,14.39c8.13,8.13,13.43,19.11,14.28,31.31v.07c.08,1.12.12,2.24.12,3.38,0,.26,0,.52,0,.78h0Z"/>
      <path class="cls-3" d="m181.17,118.8c-1.44-.66-3.84-1.35-7.04-1.35-6.64,0-10.88,3.51-10.88,8.18,0,4.01,3.37,6.67,8.35,8.45,3.97,1.47,5.68,3.01,5.68,5.52,0,2.66-2.23,4.48-6.21,4.48-2.75,0-5.46-.77-7.25-1.74l-1.14,3.74c1.62.96,4.94,1.77,8.08,1.77,7.51,0,11.67-3.7,11.67-8.64,0-4.05-2.58-6.63-7.95-8.72-4.24-1.62-6.12-2.85-6.12-5.36,0-1.89,1.66-3.94,5.64-3.94,2.75,0,4.85.77,5.94,1.31l1.22-3.7Z"/>
      <rect class="cls-4" x="152.29" y="118.17" width="5.07" height="29.55"/>
      <path class="cls-3" d="m131.32,131.57v-10.14c.61-.16,1.84-.27,3.54-.27,3.63,0,6.69,1.31,6.69,5.13,0,3.16-2.62,5.28-6.82,5.28h-3.41Zm9.3,1.74c3.37-1.12,5.99-3.71,5.99-7.49,0-2.39-.92-4.43-2.67-5.78-2.1-1.66-5.16-2.35-9.52-2.35-3.02,0-5.99.27-8.13.62v29.12h5.03v-12.5h3.06c3.54,0,5.16,1.51,6.07,5.44.83,3.63,1.62,6.21,2.1,7.06h5.24c-.66-1.12-1.49-4.17-2.49-8.02-.79-3.12-2.18-5.21-4.67-6.02v-.08Z"/>
      <path class="cls-3" d="m105.48,131.57v-10.14c.61-.16,1.84-.27,3.54-.27,3.63,0,6.68,1.31,6.68,5.13,0,3.16-2.62,5.28-6.81,5.28h-3.41Zm9.31,1.74c3.37-1.12,5.99-3.71,5.99-7.49,0-2.39-.92-4.43-2.67-5.78-2.1-1.66-5.16-2.35-9.53-2.35-3.01,0-5.98.27-8.13.62v29.12h5.02v-12.5h3.06c3.54,0,5.15,1.51,6.07,5.44.83,3.63,1.62,6.21,2.1,7.06h5.24c-.66-1.12-1.49-4.17-2.49-8.02-.79-3.12-2.18-5.21-4.67-6.02v-.08Z"/>
      <path class="cls-3" d="m93.55,118.02h-5.07v17.88c0,5.88-2.62,8.42-6.82,8.42-3.84,0-6.6-2.51-6.6-8.42v-17.88h-5.07v17.62c0,8.81,4.63,12.36,11.49,12.36s12.06-3.7,12.06-12.47v-17.5Z"/>
      <path class="cls-3" d="m66.14,118.02h-23.11v3.82h9v25.73h5.07v-25.73h9.04v-3.82Z"/>
      <path class="cls-5" d="m34.74,106.1h161.79v51.28H33.61v-51.28h1.13Zm159.53,2.26H35.87v46.76h158.4v-46.76Z"/>
      <path class="cls-1" d="m52.02,147.57v-25.73h-9v-3.82h23.11v3.82h-9.04v25.73h-5.07Zm17.98-11.93v-17.62h5.07v17.88c0,5.91,2.75,8.42,6.6,8.42,4.2,0,6.82-2.55,6.82-8.42v-17.88h5.07v17.5c0,8.77-4.94,12.47-12.06,12.47s-11.49-3.55-11.49-12.36h0Zm124.27-27.28H35.87v46.76h158.4v-46.76Zm-93.82,39.06v-29.12c2.14-.35,5.11-.62,8.13-.62,4.37,0,7.43.69,9.53,2.35,1.75,1.35,2.67,3.39,2.67,5.78,0,3.78-2.62,6.37-5.99,7.49v.08c2.49.81,3.89,2.9,4.67,6.02,1,3.86,1.83,6.91,2.49,8.02h-5.24c-.48-.85-1.27-3.43-2.1-7.06-.92-3.93-2.54-5.44-6.07-5.44h-3.06v12.5h-5.02Zm25.84,0v-29.12c2.14-.35,5.11-.62,8.13-.62,4.37,0,7.43.69,9.52,2.35,1.75,1.35,2.67,3.39,2.67,5.78,0,3.78-2.62,6.37-5.99,7.49v.08c2.49.81,3.89,2.9,4.67,6.02,1,3.86,1.84,6.91,2.49,8.02h-5.24c-.48-.85-1.27-3.43-2.1-7.06-.92-3.93-2.53-5.44-6.07-5.44h-3.06v12.5h-5.03Zm26,.3v-29.55h5.07v29.55h-5.07Zm10.97-22.1c0-4.67,4.24-8.18,10.88-8.18,3.19,0,5.59.7,7.04,1.35l-1.22,3.7c-1.09-.54-3.19-1.31-5.94-1.31-3.98,0-5.64,2.04-5.64,3.94,0,2.51,1.88,3.74,6.12,5.36,5.37,2.08,7.95,4.67,7.95,8.72,0,4.94-4.15,8.64-11.67,8.64-3.15,0-6.47-.81-8.08-1.77l1.14-3.74c1.79.96,4.5,1.74,7.25,1.74,3.98,0,6.21-1.81,6.21-4.48,0-2.51-1.71-4.05-5.68-5.52-4.98-1.77-8.35-4.44-8.35-8.45h0Z"/>
      <path class="cls-1" d="m105.48,121.42v10.14h3.41c4.19,0,6.81-2.12,6.81-5.28,0-3.82-3.06-5.13-6.68-5.13-1.7,0-2.93.12-3.54.27h0Z"/>
      <path class="cls-1" d="m131.32,121.42v10.14h3.41c4.2,0,6.82-2.12,6.82-5.28,0-3.82-3.06-5.13-6.69-5.13-1.7,0-2.93.12-3.54.27h0Z"/>
      <path class="cls-2" d="m169.47,277.72c.4-4.77-2.3-9.42-6.56-9.29-3.82.12-6.86,3.16-7.09,7.05-.2,3.43,2.38,6.5,6.99,6.64,2.98.09,6.43-1.7,6.66-4.41h0Z"/>
      <path class="cls-3" d="m162.96,268.64c4.52-.04,6.92,4.31,6.51,9.09-.23,2.7-3.68,4.49-6.66,4.41-4.61-.14-7.2-3.21-6.99-6.64.23-3.89,3.32-6.82,7.13-6.86h0Zm6.38,14.29c-1.26,4.15-3.74,8.7-11.57,9.04-1.54.07-3.56.08-4.65-.06l-.14,3.12c1.04.1,3.37.22,4.92.17,11.11-.33,14.69-7.23,15.34-15.3.56-7.11-2.01-13.51-9.64-13.95-7.39-.43-11.18,4.39-11.5,9.78-.3,5.2,4,9.21,9.79,9.32,3.33.06,5.09-.58,7.04-1.92.35-.32.47-.44.4-.19h0Z"/>
      <path class="cls-2" d="m192.43,270.27l-9.76,13.47c-.21.28.26.85.6.82l10.48-.84-.78-13.34c-.01-.19-.44-.26-.55-.11h0Z"/>
      <path class="cls-2" d="m218.63,266.93l-8.03,14.57c-.17.31.36.81.7.74l10.3-2.12-2.41-13.15c-.03-.18-.47-.21-.56-.04h0Z"/>
      <path class="cls-2" d="m295.13,191.67c0-51.43-16.29-97.81-42.57-131.34C226.36,26.93,190.24,6.33,150.48,6.33S74.78,26.9,48.72,60.25C22.52,93.78,6.33,140.2,6.33,191.67s16.18,98.14,42.39,131.84c26.01,33.43,61.89,54.1,101.56,54.1s75.9-20.74,102.14-54.26c26.36-33.68,42.71-80.23,42.71-131.68h0Zm-37.61-135.22c27.13,34.6,43.93,82.35,43.93,135.22s-16.87,100.81-44.07,135.57c-27.42,35.03-65.33,56.71-107.1,56.71s-79.37-21.61-106.55-56.55C16.69,292.64,0,244.65,0,191.67S16.71,90.97,43.75,56.37C71,21.51,108.72,0,150.48,0s79.67,21.54,107.04,56.45h0Z"/>
      <path class="cls-5" d="m210.46,179.07l-12.35-12.15-13.25,13.32,12.31,12.15,13.29-13.31Z"/>
      <path class="cls-5" d="m227.01,195.35l-13.32,13.32,12.55,12.38,13.25-13.43-12.47-12.27Z"/>
      <path class="cls-5" d="m210.14,237.36l-12.64-12.51-12.36,12.36,12.7,12.61,12.29-12.47Z"/>
      <path class="cls-5" d="m161.11,213.34l16.04-8.64-8.39-8.3-11.24,11.29v2.08l3.6,3.57Z"/>
      <path class="cls-5" d="m179.38,206.92l-16.04,8.64,5.36,5.33,12.32-12.34-1.64-1.62Z"/>
    </g>
  </g>
</svg>