<?xml version="1.0" encoding="UTF-8" standalone="no"?>
<!-- Created with Inkscape (http://www.inkscape.org/) -->

<svg
   xmlns:dc="http://purl.org/dc/elements/1.1/"
   xmlns:cc="http://creativecommons.org/ns#"
   xmlns:rdf="http://www.w3.org/1999/02/22-rdf-syntax-ns#"
   xmlns:svg="http://www.w3.org/2000/svg"
   xmlns="http://www.w3.org/2000/svg"
   xmlns:sodipodi="http://sodipodi.sourceforge.net/DTD/sodipodi-0.dtd"
   xmlns:inkscape="http://www.inkscape.org/namespaces/inkscape"
   width="66.886742mm"
   height="89.259087mm"
   viewBox="0 0 237.00026 316.27235"
   id="svg6937"
   version="1.1"
   inkscape:version="0.91 r13725"
   sodipodi:docname="A.C. Tuttocuoio 1957.svg">
  <defs
     id="defs6939" />
  <sodipodi:namedview
     id="base"
     pagecolor="#ffffff"
     bordercolor="#666666"
     borderopacity="1.0"
     inkscape:pageopacity="0.0"
     inkscape:pageshadow="2"
     inkscape:zoom="1.0235407"
     inkscape:cx="-14.385793"
     inkscape:cy="132.49092"
     inkscape:document-units="px"
     inkscape:current-layer="layer1"
     showgrid="false"
     fit-margin-top="0"
     fit-margin-left="0"
     fit-margin-right="0"
     fit-margin-bottom="0"
     inkscape:window-width="1366"
     inkscape:window-height="706"
     inkscape:window-x="-8"
     inkscape:window-y="-8"
     inkscape:window-maximized="1" />
  <metadata
     id="metadata6942">
    <rdf:RDF>
      <cc:Work
         rdf:about="">
        <dc:format>image/svg+xml</dc:format>
        <dc:type
           rdf:resource="http://purl.org/dc/dcmitype/StillImage" />
        <dc:title></dc:title>
      </cc:Work>
    </rdf:RDF>
  </metadata>
  <g
     inkscape:label="Calque 1"
     inkscape:groupmode="layer"
     id="layer1"
     transform="translate(-253.73811,-345.24265)">
    <g
       transform="translate(254.23811,345.96587)"
       id="g4443">
      <path
         sodipodi:nodetypes="ccccccc"
         inkscape:connector-curvature="0"
         id="path4160"
         d="m 236.00026,36.5 0,183.2 C 215.1666,274.61032 142.33997,303.9472 118.00013,315 93.660288,303.9472 20.833657,274.61032 0,219.7 L 0,36.5 C 51.450414,37.492603 85.712121,33.743754 118.00013,0 c 32.28801,33.743754 66.54972,37.492603 118.00013,36.5 z"
         style="fill:#96765b;fill-opacity:1;fill-rule:evenodd;stroke:#96765b;stroke-width:1px;stroke-linecap:butt;stroke-linejoin:miter;stroke-opacity:1" />
      <path
         sodipodi:nodetypes="sccscsccscs"
         inkscape:connector-curvature="0"
         id="path4171-1"
         d="m 118.48733,308.85663 c 26.71235,-12.00766 92.80232,-40.95303 112.11254,-90.29218 l 0,-176.642575 C 183.91773,42.459022 149.4571,37.856393 118.33812,7.9820502 118.26667,7.9134625 118.07167,7.7448543 118.00013,7.676 117.92863,7.744854 117.73359,7.9134625 117.66214,7.9820502 86.543156,37.856393 52.082531,42.459022 5.4003906,41.921875 l 0,176.642575 c 19.3102144,49.33915 85.4001884,78.28452 112.1125394,90.29218 0.16683,0.075 0.32334,0.14929 0.4872,0.22299 0.16386,-0.0737 0.32037,-0.148 0.4872,-0.22299 z"
         style="color:#000000;font-style:normal;font-variant:normal;font-weight:normal;font-stretch:normal;font-size:medium;line-height:normal;font-family:sans-serif;text-indent:0;text-align:start;text-decoration:none;text-decoration-line:none;text-decoration-style:solid;text-decoration-color:#000000;letter-spacing:normal;word-spacing:normal;text-transform:none;direction:ltr;block-progression:tb;writing-mode:lr-tb;baseline-shift:baseline;text-anchor:start;white-space:normal;clip-rule:nonzero;display:inline;overflow:visible;visibility:visible;opacity:1;isolation:auto;mix-blend-mode:normal;color-interpolation:sRGB;color-interpolation-filters:linearRGB;solid-color:#000000;solid-opacity:1;fill:#00804f;fill-opacity:1;fill-rule:evenodd;stroke:none;stroke-width:1;stroke-linecap:butt;stroke-linejoin:miter;stroke-miterlimit:4;stroke-dasharray:none;stroke-dashoffset:0;stroke-opacity:1;color-rendering:auto;image-rendering:auto;shape-rendering:auto;text-rendering:auto;enable-background:accumulate" />
      <path
         style="color:#000000;font-style:normal;font-variant:normal;font-weight:normal;font-stretch:normal;font-size:medium;line-height:normal;font-family:sans-serif;text-indent:0;text-align:start;text-decoration:none;text-decoration-line:none;text-decoration-style:solid;text-decoration-color:#000000;letter-spacing:normal;word-spacing:normal;text-transform:none;direction:ltr;block-progression:tb;writing-mode:lr-tb;baseline-shift:baseline;text-anchor:start;white-space:normal;clip-rule:nonzero;display:inline;overflow:visible;visibility:visible;opacity:1;isolation:auto;mix-blend-mode:normal;color-interpolation:sRGB;color-interpolation-filters:linearRGB;solid-color:#000000;solid-opacity:1;fill:#ffffff;fill-opacity:1;fill-rule:evenodd;stroke:#ffffff;stroke-width:1;stroke-linecap:butt;stroke-linejoin:miter;stroke-miterlimit:4;stroke-dasharray:none;stroke-dashoffset:0;stroke-opacity:1;color-rendering:auto;image-rendering:auto;shape-rendering:auto;text-rendering:auto;enable-background:accumulate"
         d="m 189.58675,220.364 40.26521,0 0.74791,-1.71738 0,-69.14662 -225.1994794,0 0,68.84064 0.8260564,2.02336 42.938774,0 4.114293,0 c 2.984822,-34.1716 30.483494,-61.2097 64.517366,-61.2097 34.0604,0 61.87614,27.00024 64.82439,61.2097 z"
         id="path4182-8"
         inkscape:connector-curvature="0"
         sodipodi:nodetypes="cccccccccscc" />
      <path
         inkscape:connector-curvature="0"
         id="path4141-6"
         d="M 70.554053,126.05331 C 60.609491,125.6346 60.609491,125.6346 60.609491,125.6346"
         style="fill:none;fill-rule:evenodd;stroke:#e6e6e6;stroke-width:1.10000002;stroke-linecap:round;stroke-linejoin:miter;stroke-miterlimit:4;stroke-dasharray:none;stroke-opacity:1" />
      <path
         sodipodi:nodetypes="cc"
         style="fill:none;fill-rule:evenodd;stroke:#e6e6e6;stroke-width:1.10000002;stroke-linecap:round;stroke-linejoin:miter;stroke-miterlimit:4;stroke-dasharray:none;stroke-opacity:1"
         d="m 70.397034,123.69802 -9.264145,-2.35528"
         id="path4143-3"
         inkscape:connector-curvature="0" />
      <path
         inkscape:connector-curvature="0"
         id="path4145"
         d="m 71.182131,121.18571 -8.374368,-3.66378"
         style="fill:none;fill-rule:evenodd;stroke:#e6e6e6;stroke-width:1.10000002;stroke-linecap:round;stroke-linejoin:miter;stroke-miterlimit:4;stroke-dasharray:none;stroke-opacity:1"
         sodipodi:nodetypes="cc" />
      <path
         style="color:#000000;font-style:normal;font-variant:normal;font-weight:normal;font-stretch:normal;font-size:medium;line-height:normal;font-family:sans-serif;text-indent:0;text-align:start;text-decoration:none;text-decoration-line:none;text-decoration-style:solid;text-decoration-color:#000000;letter-spacing:normal;word-spacing:normal;text-transform:none;direction:ltr;block-progression:tb;writing-mode:lr-tb;baseline-shift:baseline;text-anchor:start;white-space:normal;clip-rule:nonzero;display:inline;overflow:visible;visibility:visible;opacity:1;isolation:auto;mix-blend-mode:normal;color-interpolation:sRGB;color-interpolation-filters:linearRGB;solid-color:#000000;solid-opacity:1;fill:#a8c2ae;fill-opacity:1;fill-rule:nonzero;stroke:#000000;stroke-width:1;stroke-linecap:round;stroke-linejoin:round;stroke-miterlimit:4;stroke-dasharray:none;stroke-dashoffset:0;stroke-opacity:1;color-rendering:auto;image-rendering:auto;shape-rendering:auto;text-rendering:auto;enable-background:accumulate"
         d="M 100.69333,301.14954 C 75.494816,289.16527 39.31805,269.34895 17.889242,240.66861 L 152.94025,181.09296 c 10.9858,9.14307 18.5242,22.53226 20.31873,37.90472 z"
         id="path4175-9"
         inkscape:connector-curvature="0"
         sodipodi:nodetypes="ccccc" />
      <path
         sodipodi:nodetypes="cccccc"
         inkscape:connector-curvature="0"
         id="path4177"
         d="m 157.9283,187.0889 -9.06128,4.59713 m -73.016854,37.04419 -22.221482,11.27379 m -9.703328,4.92286 -14.989863,7.60492"
         style="fill:none;fill-rule:evenodd;stroke:#000000;stroke-width:1.39999998;stroke-linecap:round;stroke-linejoin:miter;stroke-miterlimit:4;stroke-dasharray:none;stroke-opacity:1" />
      <path
         sodipodi:nodetypes="cccccc"
         inkscape:connector-curvature="0"
         id="path4190-5"
         d="m 161.98467,192.22698 -10.33149,6.30197 m -59.830755,36.4954 -12.235378,7.46331 m -12.629562,7.70374 -24.230309,14.77994"
         style="fill:none;fill-rule:evenodd;stroke:#000000;stroke-width:1.39999998;stroke-linecap:round;stroke-linejoin:miter;stroke-miterlimit:4;stroke-dasharray:none;stroke-opacity:1" />
      <path
         sodipodi:nodetypes="cccc"
         inkscape:connector-curvature="0"
         id="path4192-1"
         d="m 167.6636,202.77356 -53.16282,44.97247 m -16.682311,14.11221 -26.696651,22.58372"
         style="fill:none;fill-rule:evenodd;stroke:#000000;stroke-width:1.39999998;stroke-linecap:round;stroke-linejoin:miter;stroke-miterlimit:4;stroke-dasharray:none;stroke-opacity:1" />
      <path
         sodipodi:nodetypes="cccc"
         inkscape:connector-curvature="0"
         id="path4194"
         d="m 165.22978,197.36505 -89.081531,64.0412 m -11.282873,8.11132 -8.346517,6.00036"
         style="fill:none;fill-rule:evenodd;stroke:#000000;stroke-width:1.39999998;stroke-linecap:butt;stroke-linejoin:miter;stroke-miterlimit:4;stroke-dasharray:none;stroke-opacity:1" />
      <path
         sodipodi:nodetypes="cccccc"
         inkscape:connector-curvature="0"
         id="path4196"
         d="m 170.9087,209.26376 -21.53157,20.92027 m -13.02944,12.65952 -31.27382,30.38591 m -9.328866,9.06401 -10.561077,10.26124"
         style="fill:none;fill-rule:evenodd;stroke:#000000;stroke-width:1.39999998;stroke-linecap:round;stroke-linejoin:miter;stroke-miterlimit:4;stroke-dasharray:none;stroke-opacity:1" />
      <rect
         ry="0"
         y="151.43948"
         x="6.6004462"
         height="6.5278058"
         width="20.091473"
         id="rect4198"
         style="fill:#000000;fill-opacity:1;stroke:#000000;stroke-width:1.20000005;stroke-linecap:round;stroke-linejoin:round;stroke-miterlimit:4;stroke-dasharray:none;stroke-opacity:1" />
      <path
         sodipodi:nodetypes="ccccc"
         inkscape:connector-curvature="0"
         id="rect4200"
         d="m 29.6,151.43948 22.591,0 0,6.52781 -22.591,0 z"
         style="fill:#000000;fill-opacity:1;stroke:#000000;stroke-width:1.20000005;stroke-linecap:round;stroke-linejoin:round;stroke-miterlimit:4;stroke-dasharray:none;stroke-opacity:1" />
      <path
         style="fill:#000000;fill-opacity:1;stroke:#000000;stroke-width:1.20000005;stroke-linecap:round;stroke-linejoin:round;stroke-miterlimit:4;stroke-dasharray:none;stroke-opacity:1"
         d="m 55.1,151.43948 22.791,0 0,6.52781 -22.791,0 z"
         id="path4203-0"
         inkscape:connector-curvature="0"
         sodipodi:nodetypes="ccccc" />
      <path
         sodipodi:nodetypes="ccccc"
         inkscape:connector-curvature="0"
         id="path4154"
         d="m 81.1,151.43948 22.791,0 0,6.52781 -22.791,0 z"
         style="fill:#000000;fill-opacity:1;stroke:#000000;stroke-width:1.20000005;stroke-linecap:round;stroke-linejoin:round;stroke-miterlimit:4;stroke-dasharray:none;stroke-opacity:1" />
      <path
         style="fill:#000000;fill-opacity:1;stroke:#000000;stroke-width:1.20000005;stroke-linecap:round;stroke-linejoin:round;stroke-miterlimit:4;stroke-dasharray:none;stroke-opacity:1"
         d="m 106.5,151.43948 22.791,0 0,6.52781 -22.791,0 z"
         id="path4156"
         inkscape:connector-curvature="0"
         sodipodi:nodetypes="ccccc" />
      <path
         sodipodi:nodetypes="ccccc"
         inkscape:connector-curvature="0"
         id="path4158"
         d="m 132,151.43948 22.791,0 0,6.52781 -22.791,0 z"
         style="fill:#000000;fill-opacity:1;stroke:#000000;stroke-width:1.20000005;stroke-linecap:round;stroke-linejoin:round;stroke-miterlimit:4;stroke-dasharray:none;stroke-opacity:1" />
      <path
         style="fill:#000000;fill-opacity:1;stroke:#000000;stroke-width:1.20000005;stroke-linecap:round;stroke-linejoin:round;stroke-miterlimit:4;stroke-dasharray:none;stroke-opacity:1"
         d="m 157.5,151.43948 22.791,0 0,6.52781 -22.791,0 z"
         id="path4161-5"
         inkscape:connector-curvature="0"
         sodipodi:nodetypes="ccccc" />
      <path
         sodipodi:nodetypes="ccccc"
         inkscape:connector-curvature="0"
         id="path4163-9"
         d="m 183.2,151.43948 22.791,0 0,6.52781 -22.791,0 z"
         style="fill:#000000;fill-opacity:1;stroke:#000000;stroke-width:1.20000005;stroke-linecap:round;stroke-linejoin:round;stroke-miterlimit:4;stroke-dasharray:none;stroke-opacity:1" />
      <path
         style="fill:#000000;fill-opacity:1;stroke:#000000;stroke-width:1.20000005;stroke-linecap:round;stroke-linejoin:round;stroke-miterlimit:4;stroke-dasharray:none;stroke-opacity:1"
         d="m 208.6,151.43948 20.791,0 0,6.52781 -20.791,0 z"
         id="path4165-7"
         inkscape:connector-curvature="0"
         sodipodi:nodetypes="ccccc" />
      <path
         sodipodi:nodetypes="ccccc"
         inkscape:connector-curvature="0"
         id="rect4167"
         d="m 5.6999998,161.43948 8.0914722,0 0,6.52781 -8.0914722,0 z"
         style="fill:#000000;fill-opacity:1;stroke:#000000;stroke-width:1.20000005;stroke-linecap:round;stroke-linejoin:round;stroke-miterlimit:4;stroke-dasharray:none;stroke-opacity:1" />
      <path
         style="fill:#000000;fill-opacity:1;stroke:#000000;stroke-width:1.20000005;stroke-linecap:round;stroke-linejoin:round;stroke-miterlimit:4;stroke-dasharray:none;stroke-opacity:1"
         d="m 16.699554,161.43948 22.591,0 0,6.52781 -22.591,0 z"
         id="path4169-1"
         inkscape:connector-curvature="0"
         sodipodi:nodetypes="ccccc" />
      <path
         sodipodi:nodetypes="ccccc"
         inkscape:connector-curvature="0"
         id="path4172-5"
         d="m 42.199554,161.43948 22.791,0 0,6.52781 -22.791,0 z"
         style="fill:#000000;fill-opacity:1;stroke:#000000;stroke-width:1.20000005;stroke-linecap:round;stroke-linejoin:round;stroke-miterlimit:4;stroke-dasharray:none;stroke-opacity:1" />
      <path
         style="fill:#000000;fill-opacity:1;stroke:#000000;stroke-width:1.20000005;stroke-linecap:round;stroke-linejoin:round;stroke-miterlimit:4;stroke-dasharray:none;stroke-opacity:1"
         d="m 68.199554,161.43948 22.791,0 0,6.52781 -22.791,0 z"
         id="path4174-8"
         inkscape:connector-curvature="0"
         sodipodi:nodetypes="ccccc" />
      <path
         sodipodi:nodetypes="ccccc"
         inkscape:connector-curvature="0"
         id="path4176"
         d="m 93.599554,161.43948 22.790996,0 0,6.52781 -22.790996,0 z"
         style="fill:#000000;fill-opacity:1;stroke:#000000;stroke-width:1.20000005;stroke-linecap:round;stroke-linejoin:round;stroke-miterlimit:4;stroke-dasharray:none;stroke-opacity:1" />
      <path
         style="fill:#000000;fill-opacity:1;stroke:#000000;stroke-width:1.20000005;stroke-linecap:round;stroke-linejoin:round;stroke-miterlimit:4;stroke-dasharray:none;stroke-opacity:1"
         d="m 119.09955,161.43948 22.791,0 0,6.52781 -22.791,0 z"
         id="path4178-9"
         inkscape:connector-curvature="0"
         sodipodi:nodetypes="ccccc" />
      <path
         sodipodi:nodetypes="ccccc"
         inkscape:connector-curvature="0"
         id="path4180-6"
         d="m 144.59955,161.43948 22.791,0 0,6.52781 -22.791,0 z"
         style="fill:#000000;fill-opacity:1;stroke:#000000;stroke-width:1.20000005;stroke-linecap:round;stroke-linejoin:round;stroke-miterlimit:4;stroke-dasharray:none;stroke-opacity:1" />
      <path
         style="fill:#000000;fill-opacity:1;stroke:#000000;stroke-width:1.20000005;stroke-linecap:round;stroke-linejoin:round;stroke-miterlimit:4;stroke-dasharray:none;stroke-opacity:1"
         d="m 170.29955,161.43948 22.791,0 0,6.52781 -22.791,0 z"
         id="path4183"
         inkscape:connector-curvature="0"
         sodipodi:nodetypes="ccccc" />
      <path
         sodipodi:nodetypes="ccccc"
         inkscape:connector-curvature="0"
         id="path4185"
         d="m 195.69955,161.43948 20.791,0 0,6.52781 -20.791,0 z"
         style="fill:#000000;fill-opacity:1;stroke:#000000;stroke-width:1.20000005;stroke-linecap:round;stroke-linejoin:round;stroke-miterlimit:4;stroke-dasharray:none;stroke-opacity:1" />
      <path
         style="fill:#000000;fill-opacity:1;stroke:#000000;stroke-width:1.20000005;stroke-linecap:round;stroke-linejoin:round;stroke-miterlimit:4;stroke-dasharray:none;stroke-opacity:1"
         d="m 221.3,161.43948 8.791,0 0,6.52781 -8.791,0 z"
         id="path4188-5"
         inkscape:connector-curvature="0"
         sodipodi:nodetypes="ccccc" />
      <rect
         style="fill:#000000;fill-opacity:1;stroke:#000000;stroke-width:1.20000005;stroke-linecap:round;stroke-linejoin:round;stroke-miterlimit:4;stroke-dasharray:none;stroke-opacity:1"
         id="rect4190"
         width="20.091473"
         height="6.5278058"
         x="6.6004462"
         y="171.43948"
         ry="0" />
      <path
         style="fill:#000000;fill-opacity:1;stroke:#000000;stroke-width:1.20000005;stroke-linecap:round;stroke-linejoin:round;stroke-miterlimit:4;stroke-dasharray:none;stroke-opacity:1"
         d="m 29.6,171.43948 22.591,0 0,6.52781 -22.591,0 z"
         id="path4193-2"
         inkscape:connector-curvature="0"
         sodipodi:nodetypes="ccccc" />
      <path
         sodipodi:nodetypes="ccccc"
         inkscape:connector-curvature="0"
         id="path4195-5"
         d="m 55.1,171.43948 22.791,0 0,6.52781 -22.791,0 z"
         style="fill:#000000;fill-opacity:1;stroke:#000000;stroke-width:1.20000005;stroke-linecap:round;stroke-linejoin:round;stroke-miterlimit:4;stroke-dasharray:none;stroke-opacity:1" />
      <path
         sodipodi:nodetypes="ccccc"
         inkscape:connector-curvature="0"
         id="path4204"
         d="m 157.5,171.43948 22.791,0 0,6.52781 -22.791,0 z"
         style="fill:#000000;fill-opacity:1;stroke:#000000;stroke-width:1.20000005;stroke-linecap:round;stroke-linejoin:round;stroke-miterlimit:4;stroke-dasharray:none;stroke-opacity:1" />
      <path
         style="fill:#000000;fill-opacity:1;stroke:#000000;stroke-width:1.20000005;stroke-linecap:round;stroke-linejoin:round;stroke-miterlimit:4;stroke-dasharray:none;stroke-opacity:1"
         d="m 183.2,171.43948 22.791,0 0,6.52781 -22.791,0 z"
         id="path4206"
         inkscape:connector-curvature="0"
         sodipodi:nodetypes="ccccc" />
      <path
         sodipodi:nodetypes="ccccc"
         inkscape:connector-curvature="0"
         id="path4208"
         d="m 208.6,171.43948 20.791,0 0,6.52781 -20.791,0 z"
         style="fill:#000000;fill-opacity:1;stroke:#000000;stroke-width:1.20000005;stroke-linecap:round;stroke-linejoin:round;stroke-miterlimit:4;stroke-dasharray:none;stroke-opacity:1" />
      <path
         style="fill:#000000;fill-opacity:1;stroke:#000000;stroke-width:1.20000005;stroke-linecap:round;stroke-linejoin:round;stroke-miterlimit:4;stroke-dasharray:none;stroke-opacity:1"
         d="m 5.6999998,181.43948 8.0914722,0 0,6.52781 -8.0914722,0 z"
         id="path4210"
         inkscape:connector-curvature="0"
         sodipodi:nodetypes="ccccc" />
      <path
         sodipodi:nodetypes="ccccc"
         inkscape:connector-curvature="0"
         id="path4212"
         d="m 16.699554,181.43948 22.591,0 0,6.52781 -22.591,0 z"
         style="fill:#000000;fill-opacity:1;stroke:#000000;stroke-width:1.20000005;stroke-linecap:round;stroke-linejoin:round;stroke-miterlimit:4;stroke-dasharray:none;stroke-opacity:1" />
      <path
         style="fill:#000000;fill-opacity:1;stroke:#000000;stroke-width:1.20000005;stroke-linecap:round;stroke-linejoin:round;stroke-miterlimit:4;stroke-dasharray:none;stroke-opacity:1"
         d="m 42.199554,181.43948 22.791,0 0,6.52781 -22.791,0 z"
         id="path4214"
         inkscape:connector-curvature="0"
         sodipodi:nodetypes="ccccc" />
      <path
         sodipodi:nodetypes="ccccc"
         inkscape:connector-curvature="0"
         id="path4224"
         d="m 170.29955,181.43948 22.791,0 0,6.52781 -22.791,0 z"
         style="fill:#000000;fill-opacity:1;stroke:#000000;stroke-width:1.20000005;stroke-linecap:round;stroke-linejoin:round;stroke-miterlimit:4;stroke-dasharray:none;stroke-opacity:1" />
      <path
         style="fill:#000000;fill-opacity:1;stroke:#000000;stroke-width:1.20000005;stroke-linecap:round;stroke-linejoin:round;stroke-miterlimit:4;stroke-dasharray:none;stroke-opacity:1"
         d="m 195.69955,181.43948 20.791,0 0,6.52781 -20.791,0 z"
         id="path4226"
         inkscape:connector-curvature="0"
         sodipodi:nodetypes="ccccc" />
      <path
         sodipodi:nodetypes="ccccc"
         inkscape:connector-curvature="0"
         id="path4228"
         d="m 221.3,181.43948 8.791,0 0,6.52781 -8.791,0 z"
         style="fill:#000000;fill-opacity:1;stroke:#000000;stroke-width:1.20000005;stroke-linecap:round;stroke-linejoin:round;stroke-miterlimit:4;stroke-dasharray:none;stroke-opacity:1" />
      <rect
         ry="0"
         y="191.43948"
         x="6.6004462"
         height="6.5278058"
         width="20.091473"
         id="rect4230"
         style="fill:#000000;fill-opacity:1;stroke:#000000;stroke-width:1.20000005;stroke-linecap:round;stroke-linejoin:round;stroke-miterlimit:4;stroke-dasharray:none;stroke-opacity:1" />
      <path
         sodipodi:nodetypes="ccccc"
         inkscape:connector-curvature="0"
         id="path4232"
         d="m 29.6,191.43948 22.591,0 0,6.52781 -22.591,0 z"
         style="fill:#000000;fill-opacity:1;stroke:#000000;stroke-width:1.20000005;stroke-linecap:round;stroke-linejoin:round;stroke-miterlimit:4;stroke-dasharray:none;stroke-opacity:1" />
      <path
         style="fill:#000000;fill-opacity:1;stroke:#000000;stroke-width:1.20000005;stroke-linecap:round;stroke-linejoin:round;stroke-miterlimit:4;stroke-dasharray:none;stroke-opacity:1"
         d="m 55.1,191.43948 10.791,0 0,6.52781 -10.791,0 z"
         id="path4234"
         inkscape:connector-curvature="0"
         sodipodi:nodetypes="ccccc" />
      <path
         style="fill:#000000;fill-opacity:1;stroke:#000000;stroke-width:1.20000005;stroke-linecap:round;stroke-linejoin:round;stroke-miterlimit:4;stroke-dasharray:none;stroke-opacity:1"
         d="m 169.5,191.43948 10.791,0 0,6.52781 -10.791,0 z"
         id="path4242-68"
         inkscape:connector-curvature="0"
         sodipodi:nodetypes="ccccc" />
      <path
         sodipodi:nodetypes="ccccc"
         inkscape:connector-curvature="0"
         id="path4244-7"
         d="m 183.2,191.43948 22.791,0 0,6.52781 -22.791,0 z"
         style="fill:#000000;fill-opacity:1;stroke:#000000;stroke-width:1.20000005;stroke-linecap:round;stroke-linejoin:round;stroke-miterlimit:4;stroke-dasharray:none;stroke-opacity:1" />
      <path
         style="fill:#000000;fill-opacity:1;stroke:#000000;stroke-width:1.20000005;stroke-linecap:round;stroke-linejoin:round;stroke-miterlimit:4;stroke-dasharray:none;stroke-opacity:1"
         d="m 208.6,191.43948 20.791,0 0,6.52781 -20.791,0 z"
         id="path4246-9"
         inkscape:connector-curvature="0"
         sodipodi:nodetypes="ccccc" />
      <path
         sodipodi:nodetypes="ccccc"
         inkscape:connector-curvature="0"
         id="path4248-4"
         d="m 5.6999998,201.43948 8.0914722,0 0,6.52781 -8.0914722,0 z"
         style="fill:#000000;fill-opacity:1;stroke:#000000;stroke-width:1.20000005;stroke-linecap:round;stroke-linejoin:round;stroke-miterlimit:4;stroke-dasharray:none;stroke-opacity:1" />
      <path
         style="fill:#000000;fill-opacity:1;stroke:#000000;stroke-width:1.20000005;stroke-linecap:round;stroke-linejoin:round;stroke-miterlimit:4;stroke-dasharray:none;stroke-opacity:1"
         d="m 16.699554,201.43948 22.591,0 0,6.52781 -22.591,0 z"
         id="path4250-7"
         inkscape:connector-curvature="0"
         sodipodi:nodetypes="ccccc" />
      <path
         sodipodi:nodetypes="ccccc"
         inkscape:connector-curvature="0"
         id="path4252"
         d="m 42.199554,201.43948 22.791,0 0,6.52781 -22.791,0 z"
         style="fill:#000000;fill-opacity:1;stroke:#000000;stroke-width:1.20000005;stroke-linecap:round;stroke-linejoin:round;stroke-miterlimit:4;stroke-dasharray:none;stroke-opacity:1" />
      <path
         style="fill:#000000;fill-opacity:1;stroke:#000000;stroke-width:1.20000005;stroke-linecap:round;stroke-linejoin:round;stroke-miterlimit:4;stroke-dasharray:none;stroke-opacity:1"
         d="m 174.29955,201.43948 18.791,0 0,6.52781 -18.791,0 z"
         id="path4262"
         inkscape:connector-curvature="0"
         sodipodi:nodetypes="ccccc" />
      <path
         sodipodi:nodetypes="ccccc"
         inkscape:connector-curvature="0"
         id="path4264"
         d="m 195.69955,201.43948 20.791,0 0,6.52781 -20.791,0 z"
         style="fill:#000000;fill-opacity:1;stroke:#000000;stroke-width:1.20000005;stroke-linecap:round;stroke-linejoin:round;stroke-miterlimit:4;stroke-dasharray:none;stroke-opacity:1" />
      <path
         style="fill:#000000;fill-opacity:1;stroke:#000000;stroke-width:1.20000005;stroke-linecap:round;stroke-linejoin:round;stroke-miterlimit:4;stroke-dasharray:none;stroke-opacity:1"
         d="m 221.3,201.43948 8.791,0 0,6.52781 -8.791,0 z"
         id="path4266"
         inkscape:connector-curvature="0"
         sodipodi:nodetypes="ccccc" />
      <rect
         style="fill:#000000;fill-opacity:1;stroke:#000000;stroke-width:1.20000005;stroke-linecap:round;stroke-linejoin:round;stroke-miterlimit:4;stroke-dasharray:none;stroke-opacity:1"
         id="rect4268"
         width="20.091473"
         height="6.5278058"
         x="6.6004462"
         y="211.43948"
         ry="0" />
      <path
         style="fill:#000000;fill-opacity:1;stroke:#000000;stroke-width:1.20000005;stroke-linecap:round;stroke-linejoin:round;stroke-miterlimit:4;stroke-dasharray:none;stroke-opacity:1"
         d="m 29.6,211.43948 22.591,0 0,6.52781 -22.591,0 z"
         id="path4270"
         inkscape:connector-curvature="0"
         sodipodi:nodetypes="ccccc" />
      <path
         style="fill:#000000;fill-opacity:1;stroke:#000000;stroke-width:1.20000005;stroke-linecap:round;stroke-linejoin:round;stroke-miterlimit:4;stroke-dasharray:none;stroke-opacity:1"
         d="m 183.2,211.43948 22.791,0 0,6.52781 -22.791,0 z"
         id="path4282"
         inkscape:connector-curvature="0"
         sodipodi:nodetypes="ccccc" />
      <path
         sodipodi:nodetypes="ccccc"
         inkscape:connector-curvature="0"
         id="path4284"
         d="m 208.6,211.43948 20.791,0 0,6.52781 -20.791,0 z"
         style="fill:#000000;fill-opacity:1;stroke:#000000;stroke-width:1.20000005;stroke-linecap:round;stroke-linejoin:round;stroke-miterlimit:4;stroke-dasharray:none;stroke-opacity:1" />
      <path
         style="color:#000000;font-style:normal;font-variant:normal;font-weight:normal;font-stretch:normal;font-size:medium;line-height:normal;font-family:sans-serif;text-indent:0;text-align:start;text-decoration:none;text-decoration-line:none;text-decoration-style:solid;text-decoration-color:#000000;letter-spacing:normal;word-spacing:normal;text-transform:none;direction:ltr;block-progression:tb;writing-mode:lr-tb;baseline-shift:baseline;text-anchor:start;white-space:normal;clip-rule:nonzero;display:inline;overflow:visible;visibility:visible;opacity:1;isolation:auto;mix-blend-mode:normal;color-interpolation:sRGB;color-interpolation-filters:linearRGB;solid-color:#000000;solid-opacity:1;fill:#000000;fill-opacity:1;fill-rule:nonzero;stroke:#000000;stroke-width:1.60000002;stroke-linecap:round;stroke-linejoin:round;stroke-miterlimit:4;stroke-dasharray:none;stroke-dashoffset:0;stroke-opacity:1;color-rendering:auto;image-rendering:auto;shape-rendering:auto;text-rendering:auto;enable-background:accumulate"
         d="m 117.79688,168.36112 c -28.910054,0 -52.342722,22.34515 -55.270394,51.63688 l 1.514573,0.31145 31.833531,-14.04286 z"
         id="path4286"
         inkscape:connector-curvature="0"
         sodipodi:nodetypes="ccccc" />
      <path
         style="color:#000000;font-style:normal;font-variant:normal;font-weight:normal;font-stretch:normal;font-size:medium;line-height:normal;font-family:sans-serif;text-indent:0;text-align:start;text-decoration:none;text-decoration-line:none;text-decoration-style:solid;text-decoration-color:#000000;letter-spacing:normal;word-spacing:normal;text-transform:none;direction:ltr;block-progression:tb;writing-mode:lr-tb;baseline-shift:baseline;text-anchor:start;white-space:normal;clip-rule:nonzero;display:inline;overflow:visible;visibility:visible;opacity:1;isolation:auto;mix-blend-mode:normal;color-interpolation:sRGB;color-interpolation-filters:linearRGB;solid-color:#000000;solid-opacity:1;fill:#a5a5a5;fill-opacity:1;fill-rule:nonzero;stroke:#ffffff;stroke-width:1.60000002;stroke-linecap:round;stroke-linejoin:round;stroke-miterlimit:4;stroke-dasharray:none;stroke-dashoffset:0;stroke-opacity:1;color-rendering:auto;image-rendering:auto;shape-rendering:auto;text-rendering:auto;enable-background:accumulate"
         d="m 182.62127,220.08613 c -2.94825,-34.20946 -30.76399,-60.93183 -64.82439,-60.93183 -34.033872,0 -61.532544,26.6801 -64.517366,60.8517 l 9.246972,-0.008 c 2.927672,-29.29173 26.36034,-51.63688 55.270394,-51.63688 28.91455,0 52.65024,22.35238 55.57185,51.65076 z"
         id="path4290"
         inkscape:connector-curvature="0"
         sodipodi:nodetypes="csccscc" />
      <g
         id="text4301"
         style="font-style:normal;font-variant:normal;font-weight:bold;font-stretch:normal;font-size:33.70886612px;line-height:125%;font-family:Tunga;-inkscape-font-specification:'Tunga Bold';letter-spacing:0px;word-spacing:0px;fill:#96765b;fill-opacity:1;stroke:#ffffff;stroke-width:1px;stroke-linecap:butt;stroke-linejoin:miter;stroke-opacity:1">
        <path
           id="path4359"
           style="fill:#96765b;fill-opacity:1;stroke:#ffffff;stroke-opacity:1"
           d="m 106.92829,43.763635 -2.46891,-7.719462 -2.38661,7.719462 4.85552,0 z m 6.63314,7.719462 -4.14777,0 -1.54718,-4.476959 -6.69898,0 -1.481349,4.476959 -3.983177,0 6.567306,-18.813102 4.42758,0 6.86357,18.813102 z"
           inkscape:connector-curvature="0" />
        <path
           id="path4361"
           style="fill:#96765b;fill-opacity:1;stroke:#ffffff;stroke-opacity:1"
           d="m 119.55266,51.483097 -4.08194,0 0,-3.88442 4.08194,0 0,3.88442 z"
           inkscape:connector-curvature="0" />
        <path
           id="path4363"
           style="fill:#96765b;fill-opacity:1;stroke:#ffffff;stroke-opacity:1"
           d="m 131.55156,51.779366 q -1.99159,0 -3.65399,-0.625457 -1.6624,-0.641917 -2.84747,-1.95867 -1.218,-1.333212 -1.79408,-3.094368 -0.55962,-1.761157 -0.55962,-4.016095 0,-4.509878 2.3537,-7.126924 1.21799,-1.316752 2.86393,-1.958669 1.64594,-0.658377 3.63753,-0.658377 1.58011,0 2.89686,0.378567 1.31675,0.378566 2.40307,1.168618 1.33321,0.987564 1.95867,2.254938 0.62546,1.267375 0.80651,2.863937 l -4.01609,0 q -0.19752,-1.530725 -1.25092,-2.386614 -1.0534,-0.872348 -2.7981,-0.872348 -1.06986,0 -1.95867,0.427944 -0.87235,0.411485 -1.4978,1.217996 -0.609,0.806511 -0.95465,1.991589 -0.32919,1.185077 -0.32919,2.699343 0,1.514265 0.32919,2.699342 0.32919,1.168618 0.93819,1.991589 0.609,0.806511 1.48134,1.234455 0.87235,0.411485 1.95867,0.411485 1.7447,0 2.7981,-0.888808 1.0534,-0.905267 1.28384,-2.584127 l 3.98317,0 q -0.18105,1.645941 -0.80651,2.929775 -0.609,1.267374 -1.69532,2.189101 -1.08632,0.888808 -2.45245,1.300293 -1.36613,0.411485 -3.07791,0.411485 z"
           inkscape:connector-curvature="0" />
        <path
           id="path4365"
           style="fill:#96765b;fill-opacity:1;stroke:#ffffff;stroke-opacity:1"
           d="m 146.87527,51.483097 -4.08193,0 0,-3.88442 4.08193,0 0,3.88442 z"
           inkscape:connector-curvature="0" />
      </g>
      <path
         d="m 28.511998,66.788063 -7.066013,0 0,20.996543 -4.251584,0 0,-20.996543 -7.036072,0 0,-4.359664 18.353669,0 0,4.359664 z"
         style="font-style:normal;font-variant:normal;font-weight:bold;font-stretch:normal;font-size:medium;line-height:125%;font-family:Mangal;-inkscape-font-specification:'Mangal Bold';letter-spacing:0px;word-spacing:0px;fill:#96765b;fill-opacity:1;stroke:#ffffff;stroke-width:1px;stroke-linecap:butt;stroke-linejoin:miter;stroke-opacity:1"
         id="path4310"
         inkscape:connector-curvature="0" />
      <path
         d="m 41.102076,88.185494 q -2.140763,0 -3.65277,-0.467704 -1.512007,-0.484406 -2.529991,-1.302887 -1.003015,-0.818481 -1.58686,-1.920925 -0.583844,-1.102444 -0.883252,-2.338517 -0.299407,-1.252777 -0.374258,-2.572369 -0.07486,-1.336295 -0.07486,-2.62248 l 0,-14.532213 4.236615,0 0,14.482102 q 0,2.154777 0.314377,3.524479 0.329349,1.352999 0.943133,2.121369 0.628756,0.751667 1.526977,1.03563 0.913193,0.267258 2.080882,0.267258 1.182659,0 2.095851,-0.283963 0.913192,-0.283962 1.512007,-1.035628 0.613785,-0.76837 0.928162,-2.121369 0.314379,-1.352999 0.314379,-3.507776 l 0,-14.482102 4.266554,0 0,14.532213 q 0,2.639184 -0.419171,4.727146 -0.4042,2.087961 -1.437154,3.541183 -1.032956,1.436518 -2.799459,2.204887 -1.751533,0.751666 -4.461169,0.751666 z"
         style="font-style:normal;font-variant:normal;font-weight:bold;font-stretch:normal;font-size:medium;line-height:125%;font-family:Mangal;-inkscape-font-specification:'Mangal Bold';letter-spacing:0px;word-spacing:0px;fill:#96765b;fill-opacity:1;stroke:#ffffff;stroke-width:1px;stroke-linecap:butt;stroke-linejoin:miter;stroke-opacity:1"
         id="path4312"
         inkscape:connector-curvature="0" />
      <path
         d="m 72.165588,66.788063 -7.066012,0 0,20.996543 -4.251585,0 0,-20.996543 -7.036073,0 0,-4.359664 18.35367,0 0,4.359664 z"
         style="font-style:normal;font-variant:normal;font-weight:bold;font-stretch:normal;font-size:medium;line-height:125%;font-family:Mangal;-inkscape-font-specification:'Mangal Bold';letter-spacing:0px;word-spacing:0px;fill:#96765b;fill-opacity:1;stroke:#ffffff;stroke-width:1px;stroke-linecap:butt;stroke-linejoin:miter;stroke-opacity:1"
         id="path4314"
         inkscape:connector-curvature="0" />
      <path
         d="m 92.225879,66.788063 -7.066013,0 0,20.996543 -4.251585,0 0,-20.996543 -7.036072,0 0,-4.359664 18.35367,0 0,4.359664 z"
         style="font-style:normal;font-variant:normal;font-weight:bold;font-stretch:normal;font-size:medium;line-height:125%;font-family:Mangal;-inkscape-font-specification:'Mangal Bold';letter-spacing:0px;word-spacing:0px;fill:#96765b;fill-opacity:1;stroke:#ffffff;stroke-width:1px;stroke-linecap:butt;stroke-linejoin:miter;stroke-opacity:1"
         id="path4316"
         inkscape:connector-curvature="0" />
      <path
         d="m 105.69921,62.02751 q 2.38029,0 4.38632,0.935407 2.00602,0.935408 3.45815,2.655887 1.45213,1.703778 2.26053,4.125813 0.82337,2.405332 0.82337,5.345182 0,2.906443 -0.80841,5.311775 -0.79342,2.405331 -2.24555,4.142515 -1.45212,1.72048 -3.45816,2.689295 -2.00603,0.95211 -4.41625,0.95211 -2.41023,0 -4.41626,-0.95211 -2.006026,-0.952111 -3.458152,-2.672591 -1.452125,-1.720481 -2.260527,-4.125813 -0.793434,-2.422035 -0.793434,-5.345181 0,-2.956554 0.808401,-5.361886 0.823369,-2.422035 2.275495,-4.125812 1.467102,-1.720481 3.473127,-2.639184 2.00603,-0.935407 4.37135,-0.935407 z m -0.015,21.948654 q 1.45212,0 2.66473,-0.601333 1.22757,-0.618037 2.09585,-1.753889 0.88324,-1.152554 1.3623,-2.789516 0.49402,-1.653666 0.49402,-3.741627 0,-2.104666 -0.49402,-3.741627 -0.49402,-1.653666 -1.37728,-2.772814 -0.86828,-1.135851 -2.08087,-1.72048 -1.19764,-0.601333 -2.60485,-0.601333 -1.43715,0 -2.66473,0.601333 -1.21259,0.601333 -2.11082,1.737185 -0.88325,1.13585 -1.377268,2.789515 -0.494024,1.636963 -0.494024,3.708221 0,2.087961 0.494024,3.741627 0.494018,1.636962 1.362298,2.789516 0.88325,1.135852 2.08088,1.753889 1.2126,0.601333 2.64976,0.601333 z"
         style="font-style:normal;font-variant:normal;font-weight:bold;font-stretch:normal;font-size:medium;line-height:125%;font-family:Mangal;-inkscape-font-specification:'Mangal Bold';letter-spacing:0px;word-spacing:0px;fill:#96765b;fill-opacity:1;stroke:#ffffff;stroke-width:1px;stroke-linecap:butt;stroke-linejoin:miter;stroke-opacity:1"
         id="path4318"
         inkscape:connector-curvature="0" />
      <path
         d="m 135.89443,71.164431 q -0.0749,-1.135852 -0.49402,-2.037851 -0.4042,-0.918703 -1.07786,-1.553444 -0.67367,-0.651443 -1.58686,-0.985517 -0.89822,-0.350777 -1.93118,-0.350777 -1.46709,0 -2.63478,0.584629 -1.1677,0.567925 -2.00603,1.703776 -0.82337,1.119147 -1.27248,2.772813 -0.43415,1.653667 -0.43415,3.791739 0,2.138073 0.44911,3.791738 0.44912,1.653666 1.25752,2.789516 0.82337,1.119148 1.97608,1.720481 1.16769,0.58463 2.60485,0.58463 1.09284,0 1.99106,-0.334074 0.91319,-0.350778 1.58686,-1.018926 0.67366,-0.684851 1.07786,-1.653665 0.4042,-0.985518 0.509,-2.271703 l 4.32643,0 q -0.17964,2.271703 -0.9581,4.042294 -0.76349,1.753888 -2.021,2.973258 -1.24254,1.202665 -2.88928,1.837405 -1.64675,0.634741 -3.57792,0.634741 -2.45514,0 -4.43123,-0.918703 -1.96112,-0.935406 -3.35336,-2.639184 -1.37727,-1.703776 -2.1258,-4.125812 -0.74851,-2.422035 -0.74851,-5.411996 0,-2.989962 0.74851,-5.411997 0.76349,-2.422035 2.15574,-4.125812 1.39225,-1.72048 3.35336,-2.639184 1.97609,-0.935407 4.40129,-0.935407 1.84135,0 3.47312,0.668148 1.63177,0.651444 2.88929,1.85411 1.27248,1.202666 2.08088,2.906442 0.82337,1.687074 1.00301,3.758332 l -4.34141,0 z"
         style="font-style:normal;font-variant:normal;font-weight:bold;font-stretch:normal;font-size:medium;line-height:125%;font-family:Mangal;-inkscape-font-specification:'Mangal Bold';letter-spacing:0px;word-spacing:0px;fill:#96765b;fill-opacity:1;stroke:#ffffff;stroke-width:1px;stroke-linecap:butt;stroke-linejoin:miter;stroke-opacity:1"
         id="path4320"
         inkscape:connector-curvature="0" />
      <path
         d="m 153.799,88.185494 q -2.14077,0 -3.65278,-0.467704 -1.512,-0.484406 -2.52998,-1.302887 -1.00302,-0.818481 -1.58686,-1.920925 -0.58385,-1.102444 -0.88326,-2.338517 -0.2994,-1.252777 -0.37426,-2.572369 -0.0749,-1.336295 -0.0749,-2.62248 l 0,-14.532213 4.23662,0 0,14.482102 q 0,2.154777 0.31438,3.524479 0.32934,1.352999 0.94312,2.121369 0.62876,0.751667 1.52698,1.03563 0.9132,0.267258 2.08089,0.267258 1.18266,0 2.09585,-0.283963 0.91319,-0.283962 1.512,-1.035628 0.61379,-0.76837 0.92817,-2.121369 0.31438,-1.352999 0.31438,-3.507776 l 0,-14.482102 4.26655,0 0,14.532213 q 0,2.639184 -0.41917,4.727146 -0.4042,2.087961 -1.43715,3.541183 -1.03296,1.436518 -2.79947,2.204887 -1.75152,0.751666 -4.46116,0.751666 z"
         style="font-style:normal;font-variant:normal;font-weight:bold;font-stretch:normal;font-size:medium;line-height:125%;font-family:Mangal;-inkscape-font-specification:'Mangal Bold';letter-spacing:0px;word-spacing:0px;fill:#96765b;fill-opacity:1;stroke:#ffffff;stroke-width:1px;stroke-linecap:butt;stroke-linejoin:miter;stroke-opacity:1"
         id="path4322"
         inkscape:connector-curvature="0" />
      <path
         d="m 178.27554,62.02751 q 2.38029,0 4.38631,0.935407 2.00603,0.935408 3.45816,2.655887 1.45212,1.703778 2.26052,4.125813 0.82337,2.405332 0.82337,5.345182 0,2.906443 -0.80839,5.311775 -0.79343,2.405331 -2.24556,4.142515 -1.45213,1.72048 -3.45815,2.689295 -2.00603,0.95211 -4.41626,0.95211 -2.41023,0 -4.41626,-0.95211 -2.00603,-0.952111 -3.45816,-2.672591 -1.45212,-1.720481 -2.26052,-4.125813 -0.79343,-2.422035 -0.79343,-5.345181 0,-2.956554 0.8084,-5.361886 0.82337,-2.422035 2.2755,-4.125812 1.46709,-1.720481 3.47312,-2.639184 2.00604,-0.935407 4.37135,-0.935407 z m -0.015,21.948654 q 1.45213,0 2.66473,-0.601333 1.22757,-0.618037 2.09585,-1.753889 0.88326,-1.152554 1.3623,-2.789516 0.49403,-1.653666 0.49403,-3.741627 0,-2.104666 -0.49403,-3.741627 -0.49402,-1.653666 -1.37727,-2.772814 -0.86828,-1.135851 -2.08088,-1.72048 -1.19762,-0.601333 -2.60484,-0.601333 -1.43716,0 -2.66473,0.601333 -1.2126,0.601333 -2.11082,1.737185 -0.88325,1.13585 -1.37727,2.789515 -0.49403,1.636963 -0.49403,3.708221 0,2.087961 0.49403,3.741627 0.49402,1.636962 1.3623,2.789516 0.88326,1.135852 2.08088,1.753889 1.21261,0.601333 2.64975,0.601333 z"
         style="font-style:normal;font-variant:normal;font-weight:bold;font-stretch:normal;font-size:medium;line-height:125%;font-family:Mangal;-inkscape-font-specification:'Mangal Bold';letter-spacing:0px;word-spacing:0px;fill:#96765b;fill-opacity:1;stroke:#ffffff;stroke-width:1px;stroke-linecap:butt;stroke-linejoin:miter;stroke-opacity:1"
         id="path4324"
         inkscape:connector-curvature="0" />
      <path
         d="m 198.08134,87.784606 -4.22164,0 0,-25.356207 4.22164,0 0,25.356207 z"
         style="font-style:normal;font-variant:normal;font-weight:bold;font-stretch:normal;font-size:medium;line-height:125%;font-family:Mangal;-inkscape-font-specification:'Mangal Bold';letter-spacing:0px;word-spacing:0px;fill:#96765b;fill-opacity:1;stroke:#ffffff;stroke-width:1px;stroke-linecap:butt;stroke-linejoin:miter;stroke-opacity:1"
         id="path4326"
         inkscape:connector-curvature="0" />
      <path
         d="m 213.18643,62.02751 q 2.3803,0 4.38633,0.935407 2.00602,0.935408 3.45815,2.655887 1.45212,1.703778 2.26053,4.125813 0.82336,2.405332 0.82336,5.345182 0,2.906443 -0.8084,5.311775 -0.79342,2.405331 -2.24555,4.142515 -1.45212,1.72048 -3.45815,2.689295 -2.00604,0.95211 -4.41627,0.95211 -2.41022,0 -4.41625,-0.95211 -2.00603,-0.952111 -3.45815,-2.672591 -1.45213,-1.720481 -2.26053,-4.125813 -0.79343,-2.422035 -0.79343,-5.345181 0,-2.956554 0.8084,-5.361886 0.82337,-2.422035 2.2755,-4.125812 1.46709,-1.720481 3.47312,-2.639184 2.00603,-0.935407 4.37134,-0.935407 z m -0.0149,21.948654 q 1.45212,0 2.66472,-0.601333 1.22757,-0.618037 2.09585,-1.753889 0.88325,-1.152554 1.36231,-2.789516 0.49402,-1.653666 0.49402,-3.741627 0,-2.104666 -0.49402,-3.741627 -0.49403,-1.653666 -1.37727,-2.772814 -0.86829,-1.135851 -2.08089,-1.72048 -1.19763,-0.601333 -2.60484,-0.601333 -1.43715,0 -2.66472,0.601333 -1.21261,0.601333 -2.11083,1.737185 -0.88325,1.13585 -1.37727,2.789515 -0.49402,1.636963 -0.49402,3.708221 0,2.087961 0.49402,3.741627 0.49402,1.636962 1.3623,2.789516 0.88325,1.135852 2.08089,1.753889 1.21259,0.601333 2.64975,0.601333 z"
         style="font-style:normal;font-variant:normal;font-weight:bold;font-stretch:normal;font-size:medium;line-height:125%;font-family:Mangal;-inkscape-font-specification:'Mangal Bold';letter-spacing:0px;word-spacing:0px;fill:#96765b;fill-opacity:1;stroke:#ffffff;stroke-width:1px;stroke-linecap:butt;stroke-linejoin:miter;stroke-opacity:1"
         id="path4328"
         inkscape:connector-curvature="0" />
      <g
         id="text4301-5"
         style="font-style:normal;font-variant:normal;font-weight:normal;font-stretch:normal;font-size:35.88995743px;line-height:125%;font-family:'Tw Cen MT Condensed Extra Bold';-inkscape-font-specification:'Tw Cen MT Condensed Extra Bold, ';letter-spacing:0px;word-spacing:0px;fill:#97775b;fill-opacity:1;stroke:#ffffff;stroke-width:1px;stroke-linecap:butt;stroke-linejoin:miter;stroke-opacity:1">
        <path
           inkscape:connector-curvature="0"
           id="path4433"
           style="font-style:normal;font-variant:normal;font-weight:normal;font-stretch:normal;font-family:'Tw Cen MT Condensed Extra Bold';-inkscape-font-specification:'Tw Cen MT Condensed Extra Bold, ';fill:#97775b;fill-opacity:1;stroke:#ffffff;stroke-opacity:1"
           d="m 86.396483,260.81596 8.043696,0 0,23.39507 -5.064549,0 0,-18.48824 -2.979147,0 0,-4.90683 z" />
        <path
           inkscape:connector-curvature="0"
           id="path4435"
           style="font-style:normal;font-variant:normal;font-weight:normal;font-stretch:normal;font-family:'Tw Cen MT Condensed Extra Bold';-inkscape-font-specification:'Tw Cen MT Condensed Extra Bold, ';fill:#97775b;fill-opacity:1;stroke:#ffffff;stroke-opacity:1"
           d="m 108.00406,278.83104 1.5071,-3.5224 q -1.20919,0.36801 -2.10293,0.36801 -2.57609,0 -4.17081,-2.01531 -1.57719,-2.03283 -1.57719,-5.34494 0,-3.66259 2.05035,-5.90572 2.06788,-2.24312 5.41504,-2.24312 3.41726,0 5.45009,2.17303 2.05035,2.17302 2.05035,5.83562 0,1.3669 -0.47316,3.39973 -0.45563,2.03283 -1.17413,3.87289 -0.70098,1.82254 -3.99556,8.7622 l -5.55524,0 2.57609,-5.37999 z m 3.5224,-10.74245 q 0,-1.52462 -0.6484,-2.43589 -0.63088,-0.9288 -1.68234,-0.9288 -1.06899,0 -1.78749,0.9288 -0.7185,0.92879 -0.7185,2.33074 0,1.64729 0.66593,2.62866 0.68345,0.96384 1.80501,0.96384 0.96384,0 1.66482,-1.01641 0.70097,-1.01642 0.70097,-2.47094 z" />
        <path
           inkscape:connector-curvature="0"
           id="path4437"
           style="font-style:normal;font-variant:normal;font-weight:normal;font-stretch:normal;font-family:'Tw Cen MT Condensed Extra Bold';-inkscape-font-specification:'Tw Cen MT Condensed Extra Bold, ';fill:#97775b;fill-opacity:1;stroke:#ffffff;stroke-opacity:1"
           d="m 122.70702,260.78092 9.93634,0 -0.10515,4.69653 -6.02839,0 -0.50821,3.55745 q 3.36468,0.10515 5.13465,2.10293 1.78749,1.98026 1.78749,5.43256 0,3.78527 -2.08541,6.02839 -2.0854,2.2256 -5.62533,2.2256 -1.98025,0 -5.16969,-1.05146 l 0.68345,-4.48625 q 2.54103,1.01642 3.80279,1.01642 1.5772,0 2.43589,-1.03394 0.8587,-1.03394 0.8587,-2.96162 0,-1.6473 -1.13909,-2.54104 -1.12156,-0.89374 -3.22449,-0.89374 -0.94631,0 -2.45341,0.31544 l 1.69986,-12.40727 z" />
        <path
           inkscape:connector-curvature="0"
           id="path4439"
           style="font-style:normal;font-variant:normal;font-weight:normal;font-stretch:normal;font-family:'Tw Cen MT Condensed Extra Bold';-inkscape-font-specification:'Tw Cen MT Condensed Extra Bold, ';fill:#97775b;fill-opacity:1;stroke:#ffffff;stroke-opacity:1"
           d="m 138.70679,260.81596 13.75665,0 -8.83229,23.39507 -5.37999,0 6.92214,-18.59338 -6.46651,0 0,-4.80169 z" />
      </g>
      <g
         transform="matrix(0.03814631,0,0,0.03814631,116.61525,159.23667)"
         id="g4404">
        <path
           id="path4839"
           d="m 929.96901,1181.0886 c 0,495.3345 -401.5481,896.8824 -896.882196,896.8824 -495.334604,0 -896.882704,-401.5479 -896.882704,-896.8824 0,-495.33417 401.5481,-896.88209 896.882704,-896.88209 495.334096,0 896.882196,401.54786 896.882196,896.88209 z"
           style="fill:#ffffff;stroke:#000000;stroke-width:2;stroke-miterlimit:4;stroke-dasharray:none;stroke-opacity:1"
           inkscape:connector-curvature="0" />
        <path
           d="m 33.089614,284.21332 c -98.1731,0 -192.635804,15.79358 -281.045004,44.94369 -13.1417,24.905 -27.1521,53.85398 -36.6424,75.75861 -1.9723,4.56445 -4.1691,9.61707 -4.8818,11.22809 -0.8887,2.02399 -3.2319,3.93176 -7.5378,6.2243 -3.4172,1.82483 -9.8122,5.23816 -14.2153,7.56677 -4.3937,2.32959 -10.0763,5.55152 -12.6345,7.17035 -2.5481,1.61884 -4.979,2.95936 -5.3991,2.95936 -0.4104,0 -3.9544,1.90484 -7.8695,4.24127 -3.9149,2.33648 -11.5017,6.79547 -16.8717,9.91595 -8.9531,5.20105 -18.2867,10.93518 -37.3747,22.88385 -9.6269,6.02313 -55.8084,36.63983 -63.4634,42.07422 -3.3782,2.39887 -10.8472,7.82752 -16.598,12.05219 -5.7509,4.22564 -12.4486,9.02057 -14.86,10.67938 -2.4213,1.65881 -6.6199,4.78515 -9.334,6.95642 -2.7241,2.17114 -8.3967,6.60254 -12.605,9.82446 -4.2081,3.22211 -12.7512,9.95984 -18.9803,14.98108 -6.2195,5.02124 -13.9231,11.1723 -17.1158,13.66895 -3.1927,2.49682 -6.5609,5.28405 -7.5081,6.19391 -1.8841,1.8302 -4.6573,2.41015 -15.4945,3.23407 -4.0328,0.30602 -9.0804,0.73034 -11.2281,0.94586 -2.1482,0.21533 -6.9814,0.62652 -10.74,0.91528 -3.759,0.28882 -10.3494,0.953 -14.6453,1.49518 -4.2964,0.54193 -10.3595,1.23309 -13.4545,1.52545 -3.105,0.29236 -10.1345,1.20282 -15.6217,2.01386 -5.4968,0.81091 -12.1749,1.68219 -14.86,1.95269 -1.1522,0.11621 -4.1399,0.54291 -7.8403,1.09845 -125.6767,150.55353 -202.9167,342.92243 -207.7885,553.19779 5.0182,4.2676 9.695,8.2083 12.5167,10.4656 2.3433,1.8796 8.5823,6.932 13.845,11.2281 5.2722,4.2959 10.5249,8.47 11.6868,9.2754 1.1717,0.8055 5.7218,4.3205 10.1349,7.8109 4.4032,3.4904 10.73,8.2336 14.0299,10.5574 11.5113,8.1038 10.9449,7.0707 14.3136,26.5442 0.6054,3.4905 1.6891,9.2023 2.4118,12.6928 0.7222,3.4903 2.0304,10.0808 2.9291,14.6452 5.0476,25.7184 6.8245,33.8914 12.3508,57.1171 10.6227,44.6245 25.1218,94.5134 40.1866,138.1547 2.1286,6.1754 4.5405,13.205 5.3409,15.6217 1.5327,4.6376 5.2332,14.7274 13.1222,35.637 2.6263,6.9809 5.4872,14.6697 6.3463,17.0863 0.8591,2.4163 2.2163,5.3583 2.9877,6.5601 1.2792,1.9771 1.0741,3.2356 -2.109,13.1809 -5.5846,17.4495 -6.1509,19.3036 -8.875,28.5888 -1.4159,4.8328 -3.0072,9.8856 -3.505,11.2281 -0.5077,1.3424 -1.7187,5.5162 -2.724,9.2754 -0.996,3.7588 -3.0369,11.228 -4.5109,16.598 -1.4741,5.37 -3.0364,11.0806 -3.4464,12.6918 -0.4104,1.6108 -1.7186,6.4437 -2.9,10.7399 -1.1813,4.2959 -2.3727,8.6895 -2.6264,9.7635 -0.2345,1.0153 -0.5372,2.1969 -0.7031,2.7826 109.8403,179.7085 281.1817,317.7364 484.7328,384.861 0.2732,-0.1756 0.4199,-0.2637 0.7031,-0.4588 7.6836,-5.1262 15.6704,-10.4277 17.7594,-11.7749 4.033,-2.5974 10.9551,-7.4402 19.1861,-13.425 2.7727,-2.0113 8.7089,-6.2683 13.1807,-9.4612 4.4814,-3.1829 13.1905,-9.5584 19.3514,-14.157 6.1607,-4.5986 12.5267,-9.1777 14.1571,-10.1833 1.6209,-1.0157 3.1732,-2.1675 3.4464,-2.5386 0.5472,-0.7517 11.4922,-9.1973 16.2567,-12.5364 3.3686,-2.353 2.5381,-2.353 38.4193,0.7908 54.412804,4.7744 122.836204,6.6391 182.305804,4.9695 43.575296,-1.2107 63.600196,-2.3138 106.208096,-5.8582 l 22.4563,-1.855 3.4173,2.314 c 4.1887,2.8608 10.0764,7.2056 24.5263,18.0625 10.0076,7.5281 31.3311,23.0032 42.2962,30.697 10.9738,7.7131 26.5666,18.0332 38.2241,25.5122 203.3462,-66.988 374.5503,-204.7424 484.459,-384.1091 -2.4702,-9.7733 -6.8247,-26.5667 -7.5374,-29.0164 -0.4687,-1.6112 -1.5525,-5.3457 -2.4116,-8.299 -0.8496,-2.9537 -2.8901,-9.9834 -4.5403,-15.6217 -1.6597,-5.6387 -3.3879,-11.7896 -3.8467,-13.6691 -0.459,-1.8795 -1.7966,-6.4929 -2.9585,-10.2517 -1.1716,-3.7592 -2.7143,-8.8118 -3.417,-11.2282 -1.1423,-3.9319 -3.144,-10.0634 -6.7758,-20.5943 -1.1228,-3.2602 -0.9373,-4.1662 2.6555,-12.6927 2.1284,-5.0507 5.3503,-13.3586 7.1372,-18.4599 4.5495,-12.9408 8.133,-22.596 9.2461,-24.8972 0.5173,-1.0741 2.8899,-7.6645 5.282,-14.6454 2.3823,-6.9811 5.038,-14.6699 5.8874,-17.0862 1.9136,-5.4356 9.8418,-30.6783 14.5867,-46.3771 1.9431,-6.4439 4.6865,-15.4508 6.0928,-20.0152 1.4155,-4.5646 3.134,-10.7157 3.788,-13.6691 0.6541,-2.9536 3.0171,-11.9478 5.282,-19.9851 2.2556,-8.0364 4.4622,-16.3843 4.9112,-18.5508 0.4394,-2.1655 2.3728,-10.3065 4.2668,-18.0929 3.4075,-13.9746 5.8972,-25.2633 9.002,-40.5189 0.8786,-4.296 2.2163,-10.6668 2.9585,-14.1571 1.7866,-8.3773 5.936,-31.4535 6.7465,-37.4678 0.7127,-5.3144 2.8509,-7.7825 12.2044,-14.0654 2.9487,-1.9839 6.0534,-4.2814 6.893,-5.0956 0.8396,-0.8143 3.6126,-3.0023 6.1609,-4.8818 2.5581,-1.8796 6.7076,-5.083 9.2168,-7.1089 2.5191,-2.0259 5.0186,-4.0177 5.5555,-4.4238 4.0129,-3.0433 16.2661,-12.8119 19.1269,-15.2557 1.9334,-1.649 5.6729,-4.748 8.2698,-6.896 2.1479,-1.7771 5.1553,-4.3684 7.5669,-6.4683 -4.9502,-210.03629 -82.1216,-402.18741 -207.6321,-552.61844 -0.7424,-0.10962 -1.5232,-0.21546 -2.0996,-0.30512 -1.6109,-0.24994 -5.126,-0.72961 -7.8108,-1.06799 -2.6851,-0.33826 -9.0017,-1.21405 -14.0691,-1.9527 -5.0576,-0.73871 -9.5391,-1.13635 -9.9394,-0.88476 -0.41,0.25152 -1.035,0.005 -1.3768,-0.5492 -0.3415,-0.55456 -1.0156,-0.77075 -1.5232,-0.45776 -0.5078,0.31311 -4.1105,0.1286 -7.9963,-0.42719 -9.656,-1.38012 -29.9058,-3.39361 -45.6448,-4.54602 -10.9255,-0.79999 -9.3437,0.15015 -37.3747,-22.3952 -6.6782,-5.37 -16.4031,-13.05878 -21.6362,-17.08631 -5.2332,-4.02746 -11.1792,-8.6408 -13.21,-10.25177 -11.8919,-9.44171 -52.2549,-37.82153 -75.9705,-53.42474 -24.2426,-15.94684 -68.5009,-42.99969 -86.6228,-52.96741 -2.685,-1.47723 -9.4995,-5.24597 -15.1335,-8.36053 -5.6431,-3.11463 -13.4737,-7.36664 -17.4278,-9.45801 -6.4831,-3.44263 -7.342,-4.26862 -9.1484,-8.63489 -2.2554,-5.47735 -3.5832,-8.46991 -10.0078,-22.88391 -6.0239,-13.52353 -19.6538,-41.79495 -29.6226,-61.66287 -88.7902,-29.42743 -183.7312,-45.37036 -282.382496,-45.37036 z m -322.052004,135.16507 24.1067,0.61023 c 20.9326,0.53796 54.969,2.23102 80.7347,3.99621 14.4403,0.99006 52.1083,4.80658 66.8805,6.77399 1.8745,0.25092 7.1472,0.90119 11.7163,1.46454 9.919904,1.22534 19.517604,2.54926 28.802604,3.96594 3.7595,0.57416 9.6853,1.47724 13.1808,1.98395 3.486,0.50678 8.7582,1.33081 11.7163,1.86096 2.9491,0.53021 8.2699,1.40503 11.8045,1.92243 3.534,0.51648 9.6854,1.64618 13.669,2.50146 3.9832,0.85529 10.9645,2.16559 15.5336,2.92908 4.5594002,0.76452 13.5718002,2.52289 20.0152002,3.90546 6.4445998,1.38348 13.9035998,2.95642 16.5690998,3.47869 2.6654,0.5224 5.1064,1.25269 5.4286,1.64716 0.7227,0.90112 -0.7518,215.66992 -1.7381,252.54138 l -0.7323,27.24665 -6.3463,3.90539 c -3.4955,2.1413 -12.9367998,7.93402 -20.9916998,12.87537 -31.7708002,19.492 -90.3132002,57.57879 -120.4631042,78.35278 -26.4298,18.2218 -35.7934,24.7663 -58.2105,40.73273 -48.1148,34.27112 -100.6527,73.68371 -140.2925,105.23279 -8.6023,6.84716 -15.9149,12.40954 -16.2664,12.35778 -0.3418,-0.0527 -6.3463,-1.84436 -13.3276,-3.96692 -6.9803,-2.12268 -20.1613,-6.00854 -29.2908,-8.63488 -9.1285,-2.62549 -23.1884,-6.73499 -31.2434,-9.1222 -25.9221,-7.682 -46.3771,-13.54504 -65.416,-18.76464 -9.4703,-2.59619 -19.1753,-5.30542 -36.1248,-10.09937 -21.3922,-6.05054 -24.6921,-6.9801 -42.4715,-11.86853 -9.9396,-2.73193 -20.9236,-5.77527 -24.4091,-6.77405 -3.4953,-0.9989 -10.7398,-2.97497 -16.1098,-4.39355 -18.0627,-4.76953 -20.484,-5.43152 -25.0244,-6.86487 -2.4895,-0.78601 -5.2041,-1.4342 -6.0336,-1.4342 -0.8401,0 -1.7673,-0.39356 -2.0504,-0.85437 -0.5274,-0.85913 1.0639,-14.85535 3.8467,-33.80634 0.8691,-5.90704 1.9332,-13.37622 2.3823,-16.59808 1.3863,-10.02338 4.0227,-25.54059 6.2195,-36.61353 0.8004,-4.02746 2.2259,-11.49664 3.1436,-16.59808 0.9181,-5.10144 2.2554,-11.54144 2.9877,-14.30951 0.7423,-2.76794 1.3478,-6.03979 1.3478,-7.26117 0,-1.22235 0.4099,-3.56854 0.9177,-5.21765 0.4977,-1.64905 1.4154,-5.62671 2.0404,-8.84875 1.6991,-8.7735 3.72,-17.85169 5.4286,-24.40894 2.2845,-8.76324 3.0072,-11.68732 5.7408,-23.43237 1.3769,-5.90698 2.9878,-12.05799 3.5636,-13.66901 0.586,-1.61102 1.4159,-4.46692 1.865,-6.34631 2.3824,-9.95618 3.1537,-12.8606 5.3114,-20.01538 1.2886,-4.29596 3.0755,-10.44709 3.964,-13.66901 0.8887,-3.22192 2.226,-7.29834 2.9878,-9.06183 0.7614,-1.76343 1.3768,-3.72876 1.3768,-4.3631 0,-1.14691 11.4136,-36.01501 16.0513,-49.06201 1.3668,-3.85821 3.4463,-7.68475 4.7841,-8.78717 28.0603,-23.04156 69.2041,-54.76227 90.9571,-70.1145 8.7973,-6.21258 60.8374,-41.08905 68.3451,-45.79803 2.6851,-1.68421 7.0786,-4.4444 9.7636,-6.16279 3.8763,-2.48284 32.7375,-19.74786 41.9834,-25.11096 11.2577,-6.53088 26.4304,-14.91681 42.7748,-23.64642 l 8.6013,-4.60645 z m 644.2795,0.0605 10.4959,5.52227 c 9.9685,5.25477 19.6152,10.60321 34.9047,19.37482 3.7596,2.1568 8.5921,4.87207 10.7398,6.0105 15.915,8.43866 84.7583,52.49976 104.9587,67.1861 3.4859,2.53759 8.104,5.80938 10.2517,7.26123 13.5328,9.15045 43.3601,31.80157 71.8797,54.58508 23.081,18.42828 21.8899,16.97833 26.8205,32.52484 1.2793,4.02747 2.7242,8.20142 3.2024,9.27539 1.5818,3.49176 9.9004,30.20538 9.8904,31.76215 0,0.83239 0.3809,1.93078 0.8496,2.44091 0.7127,0.76435 7.918,25.48328 11.9312,40.97651 0.5564,2.14807 1.4646,5.22351 2.0114,6.83453 1.4937,4.37549 7.0882,27.48187 8.5135,35.17938 0.4101,2.16767 1.0447,4.41174 1.406,5.00433 0.615,0.99305 2.7536,10.00873 4.6086,19.37391 0.4295,2.14807 1.2791,6.32189 1.8941,9.27539 0.6054,2.95349 1.4546,7.3471 1.894,9.76361 0.4297,2.41644 1.6797,8.78723 2.7727,14.15716 1.0938,5.37 2.7437,13.93756 3.6614,19.039 0.9177,5.10144 2.2654,11.98481 3.0173,15.31708 0.7613,3.3324 1.3762,7.40375 1.3762,9.03131 0,1.62665 0.4297,4.81934 0.9473,7.10889 0.5078,2.28961 1.6306,9.23242 2.4995,15.40796 0.8687,6.17541 1.9334,13.86426 2.4114,17.0863 0.9473,6.4928 2.5684,18.26477 3.3882,24.62275 0.4978,3.88098 0.3613,4.16711 -2.1677,4.75976 -4.6473,1.08765 -12.1748,3.0481 -19.9859,5.21765 -4.1399,1.15015 -8.3186,2.27198 -9.2754,2.47119 -2.1872,0.45398 -11.2085,2.82557 -18.0334,4.75977 -18.7849,5.32007 -26.6738,7.53247 -33.9871,9.45789 -4.5691,1.2019 -10.935,2.96704 -14.1572,3.93664 -3.2217,0.96851 -13.3272,3.79321 -22.4563,6.28479 -9.1284,2.49268 -20.1126,5.57703 -24.4089,6.8346 -4.2955,1.25842 -22.9734,6.52307 -41.4952,11.71631 -18.5307,5.19409 -37.6384,10.71545 -42.4716,12.26599 -4.8328,1.54944 -14.284,4.32226 -20.9917,6.16272 -6.7173,1.84143 -18.3553,5.17468 -25.8736,7.41443 -7.5175,2.23974 -14.323,4.26184 -15.1335,4.48547 -0.8198,0.22351 -5.428,-2.74951 -10.2517,-6.6217 -97.0886,-77.92408 -231.377,-172.31745 -332.664696,-233.83777 l -22.1534,-13.45496 -0.059,-139.77179 -0.029,-139.74127 5.6141,-1.03693 c 3.0855,-0.56921 8.69,-1.73498 12.4485,-2.59417 3.7597,-0.85822 12.5469,-2.64295 19.5272,-3.93567 6.9814,-1.29273 16.2082,-3.02771 20.5036,-3.87519 4.2964,-0.84649 10.447096,-1.94976 13.669096,-2.44091 3.2222,-0.49109 8.4945,-1.35126 11.7163,-1.92243 12.7708,-2.26123 27.1822,-4.33899 50.2826,-7.26117 6.7075,-0.84942 15.0551,-2.00061 18.5507,-2.53265 7.4886,-1.14142 42.9988,-4.65533 54.1878,-5.37 4.2964,-0.27435 9.7837,-0.71179 12.2046,-0.97637 2.4118,-0.26362 8.3481,-0.70392 13.1806,-0.97632 4.8333,-0.2724 11.6382,-0.71961 15.1336,-0.97638 11.1406,-0.8172 27.2214,-1.44794 50.0386,-2.01325 l 22.2121,-0.54968 0,0 z m -982.4313,492.2066 c 0.381,0.003 5.5359,1.36096 11.4432,3.02087 5.9068,1.6598 12.4971,3.47681 14.6453,4.02747 2.1477,0.55066 5.7896,1.65198 8.0841,2.44092 2.2945,0.78894 5.5458,1.62573 7.2349,1.89221 1.6791,0.2655 4.1887,0.94409 5.5846,1.49475 1.3864,0.55066 6.4832,2.01123 11.3163,3.23364 4.8326,1.22242 10.984,2.88709 13.6689,3.7229 4.0519,1.26136 22.2217,6.4751 36.6136,10.49585 1.8745,0.52527 8.6894,2.53663 15.1335,4.45411 6.4436,1.91858 12.5753,3.63989 13.6104,3.84497 1.025,0.20398 4.5399,1.22815 7.8109,2.28857 3.2608,1.05921 8.3281,2.55701 11.2862,3.32544 7.0886,1.84436 40.1384,11.70069 51.2588,15.28589 4.8331,1.55823 15.5927,4.81934 23.9208,7.23083 8.3191,2.4126 22.603,6.67249 31.7317,9.45899 9.1295,2.78564 18.7948,5.698 21.4798,6.49866 2.685,0.80053 5.214,1.77502 5.614,2.13623 0.391,0.36035 3.6128,11.83241 7.1377,25.50641 3.5241,13.6748 8.1718,31.0178 10.3395,38.5358 2.1773,7.5179 5.1651,18.0626 6.6586,23.4327 4.4718,16.0835 14.5677,50.8811 18.6973,64.4396 2.1285,6.9809 5.2039,17.0863 6.8344,22.4564 1.6405,5.3697 5.6436,18.1114 8.885,28.3143 3.2317,10.2029 6.7663,21.4067 7.8694,24.897 10.3004,32.5156 31.2731,94.0235 45.0982,132.2967 10.8181,29.9565 21.773,59.6663 23.4616,63.5854 1.4159,3.2989 1.1718,3.7176 -27.25,42.8376 -3.5053,4.833 -10.9254,15.1578 -16.4713,22.9445 -16.0808,22.5656 -24.8088,34.7426 -34.2993,47.9333 -4.8717,6.7748 -11.1694,15.5621 -13.9717,19.5271 -2.8022,3.965 -9.5195,13.3821 -14.8895,20.8998 -5.37,7.5181 -15.7781,22.2366 -23.1299,32.7081 -7.3421,10.4712 -15.2508,21.6741 -17.6035,24.8963 -8.524,11.6967 -28.0703,39.3082 -35.2371,49.7943 -8.6308,12.6339 -9.0413,13.1025 -10.9549,12.4485 -3.0073,-1.0252 -20.7376,-8.094 -23.7349,-9.4611 -1.7186,-0.7711 -7.5085,-3.2413 -12.8785,-5.4871 -5.37,-2.2456 -10.8668,-4.6767 -12.2045,-5.3993 -1.3473,-0.7321 -6.6195,-3.0655 -11.7163,-5.1942 -5.1058,-2.1186 -11.9114,-5.1455 -15.1335,-6.7368 -3.2218,-1.6013 -8.7187,-4.1006 -12.2041,-5.5554 -3.4954,-1.4547 -8.7676,-3.8761 -11.7162,-5.3993 -2.9588,-1.5232 -8.885,-4.3545 -13.1809,-6.2877 -4.2964,-1.9234 -8.9146,-4.1593 -10.2517,-4.9697 -1.3478,-0.8203 -4.8624,-2.6069 -7.811,-3.9642 -2.9586,-1.3569 -7.5667,-3.6026 -10.2517,-5.0085 -2.685,-1.4059 -10.5936,-5.5068 -17.5744,-9.09 -16.4423,-8.4542 -34.7389,-18.3341 -36.2135,-19.5583 -0.6441,-0.5302 -3.9054,-2.2788 -7.2641,-3.9055 -3.3586,-1.6276 -8.4359,-4.4591 -11.2867,-6.2858 -2.8605,-1.8268 -7.3226,-4.4493 -9.8904,-5.8279 -8.1622,-4.379 -15.2213,-8.4845 -21.753,-12.6623 -3.4955,-2.2311 -8.5431,-5.3056 -11.2282,-6.8345 -2.6849,-1.528 -7.9576,-4.7998 -11.7163,-7.2612 -7.6941,-5.036 -7.9086,-5.1669 -15.7781,-9.7636 -3.134,-1.8297 -7.4595,-4.6973 -9.6072,-6.3766 -2.1482,-1.6803 -5.1259,-3.842 -6.62,-4.79 -1.5036,-0.949 -3.124,-2.6957 -3.6026,-3.8751 -0.4788,-1.1805 -2.4701,-5.8709 -4.4227,-10.4353 -1.9528,-4.5646 -5.2237,-13.2307 -7.2936,-19.2528 -2.0701,-6.0213 -4.0619,-11.4303 -4.4227,-12.021 -2.0309,-3.2835 -23.3744,-66.7449 -27.3968,-81.4654 -0.7322,-2.6626 -2.4212,-8.1546 -3.759,-12.2044 -1.3378,-4.049 -3.2804,-10.6482 -4.335,-14.6757 -1.045,-4.0275 -2.3923,-8.6409 -2.9586,-10.2518 -1.7869,-5.1179 -10.8568,-40.0962 -10.8568,-41.8614 0,-0.9315 -1.0741,-5.5203 -2.3827,-10.1901 -4.8622,-17.355 -6.4045,-23.503 -6.4045,-25.5689 0,-1.1659 -0.6446,-4.8361 -1.4355,-8.1459 -2.0599,-8.6181 -5.8676,-27.0538 -7.8107,-37.743 -0.2442,-1.3425 -0.957,-5.2968 -1.582,-8.7872 -0.6345,-3.4904 -1.7476,-9.1203 -2.4799,-12.5091 -2.7727,-12.8226 -3.0263,-12.0055 19.4394,-63.1587 15.6414,-35.6253 43.4771,-92.5324 57.5175,-117.5595 3.7977,-6.7738 8.4549,-15.152 10.3394,-18.6425 15.0945,-27.9014 37.6971,-65.87393 56.3556,-94.70669 12.7414,-19.69507 15.2604,-23.43262 15.8949,-23.43262 z m 1320.1244,0.54968 c 0.2149,-0.008 0.3809,0.0273 0.459,0.0605 0.6345,0.26856 2.8604,3.20447 4.979,6.52991 10.926,17.17212 25.2686,39.9154 28.4317,45.09497 13.3469,21.85486 29.4472,49.52675 37.7753,64.92785 5.3699,9.9344 10.0662,18.5018 10.4666,19.0388 2.48,3.388 31.1067,59.8744 40.5774,80.0615 12.8782,27.4689 23.7256,52.0779 34.3579,78.0179 l 4.3645,10.6169 -1.6501,9.8866 c -1.4156,8.5958 -9.5879,50.6133 -12.263,63.0659 -3.5637,16.5152 -5.292,23.9618 -7.2348,31.2435 -1.2205,4.5645 -3.1829,12.4729 -4.3936,17.5745 -3.3684,14.1874 -11.5015,43.6618 -17.0862,61.9987 -5.8581,19.2137 -15.2605,48.7583 -16.3247,51.2588 -0.5664,1.3425 -2.9097,8.1524 -5.2139,15.1336 -2.3042,6.9809 -5.7605,16.8665 -7.6936,21.968 -1.9331,5.1014 -4.6377,12.4593 -6.0048,16.354 -1.3667,3.8957 -4.8426,12.6359 -7.6936,19.4363 -5.9363,14.1485 -3.6026,11.9087 -28.773,27.7951 -22.593,14.2596 -22.8667,14.4372 -24.4971,15.1648 -0.8105,0.3592 -3.6613,2.0709 -6.3464,3.8136 -7.0686,4.5879 -26.957,16.0484 -27.8552,16.0484 -0.4295,0 -0.9178,0.3299 -1.1033,0.7323 -0.3613,0.8172 -7.313,4.7578 -15.4658,8.7873 -2.958,1.4584 -5.5945,2.9388 -5.8582,3.2951 -0.5466,0.7226 -20.3376,11.4066 -39.0542,21.0835 -6.7173,3.4661 -13.3076,6.9225 -14.6455,7.6547 -3.4463,1.8941 -52.4302,25.268 -56.1406,26.7912 -1.0735,0.4394 -7.0784,3.2609 -13.3367,6.2583 -6.2585,2.9976 -11.6772,5.458 -12.0486,5.458 -0.7121,0 -3.124,1.0446 -14.8894,6.5025 -3.8955,1.8064 -9.6071,4.2081 -12.6926,5.3407 -3.0849,1.1324 -7.9768,3.1243 -10.8667,4.4228 -2.8806,1.2987 -9.6951,4.1398 -15.1335,6.3171 -5.4383,2.1674 -10.3301,4.1593 -10.8865,4.3936 -0.5562,0.2245 -6.9417,-8.055 -14.1863,-18.4043 -18.2776,-26.0982 -48.1055,-68.3226 -66.7632,-94.5212 -8.6213,-12.1021 -22.9348,-32.2366 -31.7907,-44.729 -8.8655,-12.4933 -18.7264,-26.3225 -21.909,-30.725 -3.1831,-4.4024 -10.4568,-14.5848 -16.1689,-22.6398 -5.721,-8.0549 -17.3103,-24.2733 -25.7564,-36.0334 -8.4353,-11.7601 -15.6999,-22.0853 -16.1389,-22.9445 -0.5273,-1.0358 0.9763,-6.3267 4.4912,-15.7135 2.9092,-7.7865 8.3086,-22.5051 11.9895,-32.708 3.6809,-10.2028 9.6175,-26.6789 13.21,-36.6134 8.9631,-24.7927 35.364,-102.6924 39.3577,-116.1866 0.5561,-1.8795 3.0559,-9.7881 5.5549,-17.5745 2.49,-7.7865 5.3308,-16.7933 6.3171,-20.0154 0.9763,-3.2219 2.6751,-8.714 3.7495,-12.2044 9.8804,-32.1006 22.4659,-74.9903 27.523,-93.7305 0.9375,-3.4905 3.7004,-13.1564 6.1318,-21.4799 2.4314,-8.3234 6.9424,-25.019 10.0078,-37.1015 3.0655,-12.0824 5.9268,-22.6222 6.3462,-23.40223 0.4197,-0.77918 3.3296,-2.1676 6.4636,-3.1117 3.1436,-0.94421 10.7591,-3.34899 16.9395,-5.30847 6.1709,-1.96057 12.5469,-3.88098 14.1572,-4.30285 4.4622,-1.16565 41.9834,-12.37329 50.2825,-15.01148 7.2253,-2.29553 43.917,-13.04126 61.0225,-17.87903 4.833,-1.36792 11.4235,-3.28064 14.6452,-4.24133 3.2224,-0.96081 10.0274,-2.93701 15.1336,-4.39368 5.0969,-1.45678 15.2021,-4.36328 22.4563,-6.46826 22.5249,-6.54065 23.5012,-6.82873 32.6203,-9.12317 4.8816,-1.22912 10.0171,-2.68298 11.4038,-3.23364 1.396,-0.55066 3.9056,-1.22925 5.5848,-1.49475 1.6889,-0.26648 4.9699,-1.10327 7.2639,-1.89221 2.2947,-0.78894 5.9072,-1.89026 8.0549,-2.44092 2.1482,-0.55066 8.6799,-2.33545 14.4895,-3.96594 5.0869,-1.42749 9.7537,-2.47705 11.2573,-2.53272 z m -433.1614,515.21163 6.981,9.4589 c 3.8372,5.199 12.2339,16.8265 18.6775,25.8119 6.4446,8.9864 14.5874,20.1346 18.0923,24.8054 3.5049,4.6718 8.4743,11.5882 11.0137,15.3475 2.5476,3.7588 8.3867,11.8871 12.9658,18.0626 4.5886,6.1754 9.9489,13.6337 11.9311,16.5677 1.982,2.9339 7.5569,10.654 12.3894,17.1781 4.8333,6.523 16.2569,22.3323 25.3855,35.1177 9.1294,12.7863 19.2344,26.8556 22.4561,31.2709 3.2224,4.4226 8.4946,11.6673 11.7163,16.1099 9.0515,12.4971 33.1477,46.5332 38.1663,53.9144 l 4.4914,6.6195 -3.9055,5.1943 c -3.5149,4.6377 -25.6589,31.5364 -31.0681,37.7071 -1.1717,1.3472 -6.6294,7.7131 -12.1358,14.1572 -5.5168,6.4438 -10.2812,11.9408 -10.5935,12.2045 -0.3122,0.2734 -3.4367,3.7882 -6.9228,7.8109 -3.4954,4.0322 -6.5904,7.5472 -6.8926,7.8108 -0.3127,0.2734 -4.6477,5.1063 -9.6462,10.7399 -39.5918,44.6488 -106.0723,109.9085 -158.5315,155.612 l -6.6883,5.7895 -10.8862,0.7618 c -6.0049,0.4296 -18.1213,1.2595 -26.9185,1.8356 -8.7873,0.576 -16.3339,1.2498 -16.7734,1.5232 -0.4492,0.2732 -13.6792,1.1619 -29.4177,1.9527 -26.899096,1.3569 -112.203096,2.5285 -132.5998958,1.8354 -39.0248002,-1.3279 -67.1732002,-2.646 -74.2032002,-3.4758 -4.569,-0.5469 -14.4499,-1.406 -21.968004,-1.894 -38.917,-2.5486 -37.1799,-2.285 -41.9539,-6.2 -4.6672,-3.8176 -14.0399,-12.1558 -26.3912,-23.4617 -4.2954,-3.925 -9.7926,-8.768 -12.2045,-10.7694 -10.4959,-8.6994 -60.1243,-57.2342 -87.8723,-85.9488 -37.5211,-38.8102 -115.2103,-128.3715 -115.2103,-132.814 0,-0.5078 2.3828,-4.218 5.2822,-8.2405 2.89,-4.0227 7.8204,-11.0523 10.9449,-15.6217 3.1342,-4.5597 10.75,-15.329 16.9109,-23.9208 6.1509,-8.592 12.829,-18.0333 14.8504,-20.9917 2.0308,-2.9486 7.869,-11.0808 13.0048,-18.0616 5.126,-6.9811 12.7028,-17.5256 16.8132,-23.4326 4.1104,-5.907 11.9117,-16.8169 17.3304,-24.2255 5.4091,-7.4096 12.6726,-17.5577 16.168,-22.548 3.4859,-4.9902 10.3009,-14.4472 15.1336,-21.0219 4.8332,-6.575 10.9258,-15.0995 13.5422,-18.9472 2.6168,-3.849 6.1608,-8.7453 7.8795,-10.8933 1.7086,-2.1479 6.3755,-8.5188 10.3394,-14.1571 3.9642,-5.6387 9.227,-12.8879 11.6869,-16.11 2.461,-3.222 8.075,-10.9107 12.4782,-17.0862 4.4031,-6.1755 8.7482,-12.1783 9.7049,-13.3332 1.6986,-2.069 2.0019,-2.0855 19.3122,-1.2507 69.6146,3.3576 111.568904,4.1895 210.405104,4.21 61.2375,0.014 115.103796,-0.4541 134.737596,-1.1589 42.4526,-1.526 81.282,-3.0882 87.2573,-3.509 l 4.7354,-0.3358 z"
           id="path4837"
           inkscape:connector-curvature="0"
           style="fill:#000000" />
      </g>
      <path
         style="fill:#00804f;fill-opacity:1;fill-rule:evenodd;stroke:#e6e6e6;stroke-width:2.79999995;stroke-linecap:butt;stroke-linejoin:round;stroke-miterlimit:4;stroke-dasharray:none;stroke-opacity:1"
         d="m 78.480759,131.68911 c 1.562055,0.45452 2.664769,1.03092 3.426125,1.66669 1.305794,0.8815 1.908829,1.75165 2.10971,2.61086 0.419826,3.49204 -2.724263,5.11104 -5.378402,4.72355 -3.105562,-0.1452 -5.753697,-2.6919 -8.451132,-4.97977 -1.855349,-2.03748 -3.947189,1.67493 -6.472991,2.2365 -3.348743,0.74453 -4.900726,1.08875 -4.353486,2.93159 1.129567,2.19491 2.917912,1.77355 7.068653,0.39079 3.626809,-1.20821 4.387239,1.6404 4.460967,2.76451 -0.167795,1.8645 -2.170525,3.75234 -5.888007,5.33892 -2.683487,1.44291 -7.740822,1.62907 -5.981752,5.42392 3.197064,4.38908 11.765648,-1.5812 19.192793,-5.35013 5.159036,-3.42888 11.139661,-0.87445 16.482368,-0.60539 15.410425,0.72291 23.630205,-5.10948 32.358695,-11.07255 4.47021,-3.59499 8.31591,-7.26628 13.20914,-7.57275 6.8871,-0.38035 13.38031,6.81165 20.12068,6.29245 10.94843,-0.72538 7.75259,-8.93172 20.59823,-0.33871 2.91697,1.35027 4.05495,-1.03867 3.36599,-3.17737 -0.29469,-2.13028 -2.8748,-2.79488 -5.83204,-3.93127 -1.60578,-0.35606 -1.97404,-1.53628 -2.57722,-2.89098 -1.30047,-2.96845 -1.37222,-2.0182 -6.59908,-2.58832 0.35239,-7.71272 11.56491,-4.95273 15.03521,-7.55456 0.34335,-0.0637 2.3694,-2.40263 -2.77166,-3.20251 -3.17295,-0.68603 -4.09867,0.88034 -7.55387,0.23235 -2.3215,-0.93019 -3.3748,-0.41315 -5.09118,1.11566 -3.26051,2.91668 -5.50214,6.31764 -8.03149,7.37605 -2.76193,1.56334 -6.17624,0.23513 -6.99338,-3.14545 -1.18235,-3.32191 2.88044,-7.65545 1.83031,-10.94985 -1.91143,-3.04164 -5.36434,-0.27958 -8.40848,2.62552 -4.76536,-2.18201 -7.97274,-2.74416 -12.41215,-1.57968 -6.14774,1.63837 -12.29818,7.58145 -19.2896,14.05334 -6.62897,6.13636 -16.039017,10.0759 -17.325163,2.9543 2.858353,-0.64338 4.356843,-2.84507 6.171523,-5.35042 3.99565,-6.11402 11.00283,-9.67236 17.02632,-13.15809 3.98925,-2.40622 2.76805,-4.56208 -1.32124,-3.95112 -5.91549,0.95402 -13.55186,9.00669 -22.102028,20.82879 2.044208,-6.7648 5.599168,-14.02036 13.155048,-23.07823 6.32543,-6.842906 0.29022,-3.270962 -2.85081,-0.91766 -4.58667,3.39204 -8.4747,9.37955 -12.073641,15.25176 -6.787254,-3.24773 -15.142765,-1.62091 -20.184672,6.32333 -0.839629,1.27524 -3.990259,0.33364 -2.399598,5.24612 0.0408,0.5695 0.824476,1.87625 3.164815,1.78277 1.74952,-0.0699 1.350617,2.20917 1.566495,3.22504 z"
         id="path4388"
         inkscape:connector-curvature="0"
         sodipodi:nodetypes="cccccscsccccccccccccccccccccccsccccccccccsc" />
      <path
         inkscape:connector-curvature="0"
         style="fill:none;fill-opacity:1;stroke:#e6e6e6;stroke-width:1.5;stroke-miterlimit:4;stroke-dasharray:none;stroke-opacity:1"
         d="m 86.393535,124.0078 a 1.7774231,1.6158392 0 0 1 -1.777423,1.61584 1.7774231,1.6158392 0 0 1 -1.777423,-1.61584 1.7774231,1.6158392 0 0 1 1.777423,-1.61584 1.7774231,1.6158392 0 0 1 1.777423,1.61584 z"
         id="path4390" />
      <path
         style="color:#000000;font-style:normal;font-variant:normal;font-weight:normal;font-stretch:normal;font-size:medium;line-height:normal;font-family:sans-serif;text-indent:0;text-align:start;text-decoration:none;text-decoration-line:none;text-decoration-style:solid;text-decoration-color:#000000;letter-spacing:normal;word-spacing:normal;text-transform:none;direction:ltr;block-progression:tb;writing-mode:lr-tb;baseline-shift:baseline;text-anchor:start;white-space:normal;clip-rule:nonzero;display:inline;overflow:visible;visibility:visible;opacity:1;isolation:auto;mix-blend-mode:normal;color-interpolation:sRGB;color-interpolation-filters:linearRGB;solid-color:#000000;solid-opacity:1;fill:none;fill-opacity:1;fill-rule:evenodd;stroke:#96765b;stroke-width:1;stroke-linecap:butt;stroke-linejoin:miter;stroke-miterlimit:4;stroke-dasharray:none;stroke-dashoffset:0;stroke-opacity:1;color-rendering:auto;image-rendering:auto;shape-rendering:auto;text-rendering:auto;enable-background:accumulate"
         d="m 118.48733,308.85663 c 26.71235,-12.00766 92.80232,-40.95303 112.11254,-90.29218 l 0,-176.642575 C 183.91773,42.459022 149.4571,37.856393 118.33812,7.9820502 118.26667,7.9134625 118.07167,7.7448543 118.00013,7.676 117.92863,7.744854 117.73359,7.9134625 117.66214,7.9820502 86.543156,37.856393 52.082531,42.459022 5.4003906,41.921875 l 0,176.642575 c 19.3102144,49.33915 85.4001884,78.28452 112.1125394,90.29218 0.16683,0.075 0.32334,0.14929 0.4872,0.22299 0.16386,-0.0737 0.32037,-0.148 0.4872,-0.22299 z"
         id="path4424"
         inkscape:connector-curvature="0"
         sodipodi:nodetypes="sccscsccscs" />
      <path
         sodipodi:nodetypes="sccscsccscs"
         inkscape:connector-curvature="0"
         id="path4426"
         d="m 118.48733,308.85663 c 26.71235,-12.00766 92.80232,-40.95303 112.11254,-90.29218 l 0,-176.642575 C 183.91773,42.459022 149.4571,37.856393 118.33812,7.9820502 118.26667,7.9134625 118.07167,7.7448543 118.00013,7.676 117.92863,7.744854 117.73359,7.9134625 117.66214,7.9820502 86.543156,37.856393 52.082531,42.459022 5.4003906,41.921875 l 0,176.642575 c 19.3102144,49.33915 85.4001884,78.28452 112.1125394,90.29218 0.16683,0.075 0.32334,0.14929 0.4872,0.22299 0.16386,-0.0737 0.32037,-0.148 0.4872,-0.22299 z"
         style="color:#000000;font-style:normal;font-variant:normal;font-weight:normal;font-stretch:normal;font-size:medium;line-height:normal;font-family:sans-serif;text-indent:0;text-align:start;text-decoration:none;text-decoration-line:none;text-decoration-style:solid;text-decoration-color:#000000;letter-spacing:normal;word-spacing:normal;text-transform:none;direction:ltr;block-progression:tb;writing-mode:lr-tb;baseline-shift:baseline;text-anchor:start;white-space:normal;clip-rule:nonzero;display:inline;overflow:visible;visibility:visible;opacity:1;isolation:auto;mix-blend-mode:normal;color-interpolation:sRGB;color-interpolation-filters:linearRGB;solid-color:#000000;solid-opacity:1;fill:none;fill-opacity:1;fill-rule:evenodd;stroke:#96765b;stroke-width:1.39999998;stroke-linecap:butt;stroke-linejoin:miter;stroke-miterlimit:4;stroke-dasharray:none;stroke-dashoffset:0;stroke-opacity:1;color-rendering:auto;image-rendering:auto;shape-rendering:auto;text-rendering:auto;enable-background:accumulate" />
      <path
         sodipodi:nodetypes="ccccc"
         inkscape:connector-curvature="0"
         id="path4430"
         d="m 64.041059,220.30945 20.536832,-9.0595 -0.06661,0.63876 c 1.737526,7.66258 6.046912,14.34863 11.972752,19.10273 -5.95372,0.1343 -24.268184,-3.73757 -32.442974,-10.68199 z"
         style="color:#000000;font-style:normal;font-variant:normal;font-weight:normal;font-stretch:normal;font-size:medium;line-height:normal;font-family:sans-serif;text-indent:0;text-align:start;text-decoration:none;text-decoration-line:none;text-decoration-style:solid;text-decoration-color:#000000;letter-spacing:normal;word-spacing:normal;text-transform:none;direction:ltr;block-progression:tb;writing-mode:lr-tb;baseline-shift:baseline;text-anchor:start;white-space:normal;clip-rule:nonzero;display:inline;overflow:visible;visibility:visible;opacity:1;isolation:auto;mix-blend-mode:normal;color-interpolation:sRGB;color-interpolation-filters:linearRGB;solid-color:#000000;solid-opacity:1;fill:#808080;fill-opacity:1;fill-rule:nonzero;stroke:#000000;stroke-width:0.1;stroke-linecap:round;stroke-linejoin:round;stroke-miterlimit:4;stroke-dasharray:none;stroke-dashoffset:0;stroke-opacity:1;color-rendering:auto;image-rendering:auto;shape-rendering:auto;text-rendering:auto;enable-background:accumulate" />
    </g>
  </g>
</svg>
