<?xml version="1.0" encoding="UTF-8"?>
<svg id="Layer_2" data-name="Layer 2" xmlns="http://www.w3.org/2000/svg" viewBox="0 0 406.5 406.5">
  <defs>
    <style>
      .cls-1 {
        fill: #002a9a;
      }

      .cls-1, .cls-2, .cls-3, .cls-4, .cls-5, .cls-6, .cls-7, .cls-8 {
        fill-rule: evenodd;
        stroke-width: 0px;
      }

      .cls-2 {
        fill: #00309d;
      }

      .cls-3 {
        fill: #1b1918;
      }

      .cls-4 {
        fill: #2131a1;
      }

      .cls-5 {
        fill: #e00000;
      }

      .cls-6 {
        fill: #ffc100;
      }

      .cls-7 {
        fill: #fff;
      }
    </style>
  </defs>
  <g id="Layer_1-2" data-name="Layer 1">
    <g>
      <path class="cls-1" d="m59.53,59.53C97.77,21.29,149.17,0,203.25,0s105.48,21.29,143.72,59.53c38.24,38.24,59.53,89.63,59.53,143.72s-21.29,105.48-59.53,143.72c-38.24,38.24-89.64,59.53-143.72,59.53s-105.48-21.29-143.72-59.53C21.29,308.73,0,257.34,0,203.25S21.29,97.77,59.53,59.53h0ZM203.25,21.9c-48.27,0-94.11,18.99-128.23,53.12S21.9,154.98,21.9,203.25s18.99,94.11,53.12,128.24,79.97,53.12,128.23,53.12,94.11-18.99,128.24-53.12,53.12-79.97,53.12-128.24-18.99-94.11-53.12-128.23S251.52,21.9,203.25,21.9h0Z"/>
      <path class="cls-5" d="m203.25,17.01c-51.43,0-97.99,20.85-131.69,54.55-33.7,33.7-54.55,80.26-54.55,131.69s20.85,97.99,54.55,131.7c33.7,33.7,80.26,54.55,131.69,54.55s97.99-20.85,131.7-54.55c33.7-33.7,54.55-80.26,54.55-131.7s-20.85-97.99-54.55-131.69S254.68,17.01,203.25,17.01h0ZM62.99,62.99C98.89,27.09,148.48,4.89,203.25,4.89s104.37,22.2,140.27,58.1c35.89,35.9,58.1,85.49,58.1,140.26s-22.2,104.37-58.1,140.27c-35.9,35.89-85.49,58.1-140.27,58.1s-104.36-22.2-140.26-58.1C27.09,307.62,4.89,258.03,4.89,203.25S27.09,98.89,62.99,62.99h0Z"/>
      <path class="cls-2" d="m66.31,220.78l-32.83,1.07-.21-6.43,21.56-14.23-22,.72-.2-6.15,32.83-1.07.22,6.64-21.15,14.01,21.58-.71.2,6.15Zm232.11,99.1l11.4,6.21-4.6-12.09-6.8,5.89Zm42.61-125.5l32.56.64-.13,6.65-27.01-.53-.32,16.47-5.55-.11.45-23.12Zm-1.87-11.89l32.58-4.17.84,6.6-32.58,4.17-.84-6.6Zm-4.49-19.61l26.28-7.39-2.63-9.36,5.34-1.5,7.05,25.09-5.34,1.5-2.62-9.32-26.28,7.39-1.8-6.4Zm13.57-50.44l3.09,5.89-15.76,8.27c-2.5,1.32-4.08,2.24-4.75,2.77-1.06.88-1.71,1.97-1.94,3.28-.23,1.32.08,2.79.94,4.41.86,1.65,1.86,2.71,2.98,3.19,1.12.48,2.22.54,3.31.19,1.09-.36,2.78-1.13,5.08-2.34l16.1-8.45,3.09,5.89-15.3,8.02c-3.49,1.84-6.04,2.98-7.65,3.41-1.61.44-3.14.5-4.58.16-1.44-.32-2.82-1.05-4.16-2.16-1.34-1.12-2.61-2.82-3.81-5.11-1.45-2.77-2.24-5.04-2.34-6.8-.11-1.77.13-3.34.73-4.71.59-1.38,1.38-2.48,2.37-3.33,1.46-1.26,3.82-2.74,7.08-4.45l15.53-8.15Zm-53.26-12.75l24.45-21.94,6.65,7.41-12.74,19.34,20.56-10.63,6.67,7.43-24.45,21.94-4.11-4.58,19.23-17.29-23.57,12.45-4.27-4.76,14.94-22.07-19.26,17.25-4.11-4.57Zm43.45,128.67l34.57-4.66-1.5,7.03-25.52,3.1,22.12,12.89-1.47,6.91-29.7-18.26,1.49-7.01Zm-4.61,19.59l29.98,13.4-9.92,22.2-5.07-2.26,7.21-16.13-6.66-2.98-6.7,14.99-5.07-2.26,6.7-14.99-8.12-3.63-7.47,16.71-5.07-2.27,10.18-22.78Zm-.78,42.93l-2.95,3.92c-1.91,2.54-3,4.2-3.26,5-.26.79-.27,1.57,0,2.32.25.76.78,1.43,1.57,2.02.89.67,1.77.96,2.68.91.9-.06,1.74-.47,2.53-1.21.39-.39,1.39-1.66,3-3.8l3.11-4.14-6.67-5.02Zm-11.12-16.71l26.23,19.76-8.41,11.16c-2.11,2.8-3.89,4.66-5.31,5.58-1.43.92-3.04,1.3-4.81,1.16-1.78-.15-3.45-.8-5-1.96-1.97-1.49-3.16-3.29-3.58-5.41-.41-2.12.08-4.45,1.47-7-1.53.64-2.97,1.03-4.32,1.17-1.36.14-3.54.07-6.52-.21l-5.51-.48,11.3,31.68-5.32,4.6-31.44-16.23,5.42-4.69,7.04,3.8,9.97-8.62-2.83-7.44,3.93-3.39,4.68-6.22,8.59.52c3.06.17,5.04.2,5.96.1.9-.11,1.67-.36,2.29-.78.62-.42,1.39-1.24,2.31-2.46l.81-1.07-10.95-8.25,4-5.31Zm-55.51-207.55l.59-12.97-8.86,9.43,8.27,3.54ZM47.11,150.28l20.27,7.86,1.78-4.6c.67-1.72,1.05-3,1.15-3.83.14-1.11.04-2.1-.31-2.98-.34-.89-1.12-1.81-2.32-2.76-1.21-.95-3-1.88-5.37-2.8-2.37-.92-4.26-1.41-5.69-1.48-1.43-.08-2.64.12-3.64.59-1,.48-1.85,1.23-2.54,2.29-.53.78-1.28,2.43-2.25,4.94l-1.07,2.77Zm-7.58,4.19l4.37-11.28c.99-2.55,1.93-4.41,2.84-5.59,1.22-1.59,2.76-2.76,4.61-3.51,1.85-.76,3.88-1.09,6.1-1,2.21.09,4.75.7,7.62,1.81,2.52.98,4.57,2.13,6.15,3.47,1.94,1.63,3.32,3.42,4.14,5.37.64,1.47.89,3.23.77,5.28-.09,1.53-.59,3.43-1.47,5.71l-4.5,11.61-30.62-11.88Zm42.34-16.89l-27.36-18.17,13.46-20.25,4.62,3.07-9.77,14.71,6.08,4.04,9.08-13.68,4.63,3.07-9.09,13.68,7.41,4.93,10.13-15.25,4.62,3.07-13.81,20.79Zm2-48l6.54,6.69,2.59-2.53c1.86-1.82,2.98-3.16,3.37-4.02.39-.86.51-1.72.34-2.6-.16-.87-.57-1.66-1.25-2.36-.84-.86-1.78-1.32-2.82-1.39-1.05-.07-2.02.2-2.93.81-.66.45-1.85,1.5-3.55,3.16l-2.28,2.23Zm14.32,24.17l-22.96-23.49,7.6-7.43c2.88-2.82,4.87-4.54,5.98-5.16,1.69-.96,3.57-1.29,5.63-1,2.06.29,4,1.38,5.83,3.25,1.41,1.44,2.33,2.91,2.77,4.4.44,1.5.53,2.92.27,4.27-.26,1.34-.71,2.52-1.37,3.51-.91,1.33-2.44,3.04-4.58,5.14l-3.09,3.01,8.66,8.86-4.76,4.65Zm17.26-37.21c1.94,3.18,4.14,5.14,6.61,5.89,2.47.75,4.84.43,7.09-.94,2.27-1.38,3.62-3.32,4.09-5.84.46-2.52-.31-5.4-2.29-8.66-1.96-3.22-4.13-5.19-6.51-5.91-2.38-.73-4.73-.38-7.07,1.05-2.34,1.43-3.74,3.38-4.2,5.85-.45,2.48.3,5.33,2.27,8.56h0Zm-5.72,3.74c-1.74-2.86-2.77-5.52-3.1-7.99-.24-1.82-.15-3.63.27-5.44.41-1.81,1.1-3.39,2.08-4.74,1.3-1.8,3.09-3.4,5.38-4.8,4.14-2.52,8.23-3.25,12.28-2.19,4.05,1.06,7.46,3.88,10.25,8.46,2.76,4.54,3.69,8.84,2.79,12.9-.9,4.07-3.42,7.35-7.54,9.86-4.17,2.54-8.27,3.29-12.29,2.24-4.01-1.05-7.39-3.81-10.11-8.29h0Zm38.67-23.71l4.68-1.48c3.03-.96,4.88-1.69,5.55-2.18.67-.49,1.13-1.12,1.35-1.89.23-.76.2-1.62-.1-2.56-.33-1.06-.88-1.81-1.65-2.29-.76-.47-1.69-.63-2.76-.47-.54.09-2.09.54-4.65,1.35l-4.93,1.56,2.51,7.96Zm-.63,20.07l-9.89-31.32,13.32-4.21c3.35-1.06,5.87-1.54,7.57-1.46,1.7.08,3.23.69,4.59,1.84,1.37,1.16,2.34,2.65,2.93,4.5.74,2.36.67,4.51-.22,6.48-.89,1.96-2.65,3.58-5.26,4.84,1.61.37,3.01.89,4.19,1.56,1.19.67,2.93,2,5.2,3.96l5.75,4.9-7.56,2.39-6.7-5.41c-2.39-1.91-3.99-3.09-4.8-3.53-.8-.44-1.57-.68-2.31-.69-.75-.02-1.85.2-3.31.66l-1.28.41,4.13,13.08-6.34,2Zm37.04-9.63l-3.01-27.13-9.66,1.07-.61-5.51,25.9-2.88.61,5.52-9.62,1.07,3.01,27.13-6.61.73Zm20.4-1.23l1.26-32.82,6.65.26-1.26,32.82-6.65-.26Zm19.6,1.68l-5.57-34.44,7.07,1.31,3.77,25.43,12.3-22.44,6.95,1.28-17.47,30.17-7.04-1.3Zm47.64,15.9l-6.59-2.82.34-7.99-12.11-5.18-5.45,5.8-6.47-2.76,24.64-25.18,6.46,2.77-.82,35.37Zm-176.46,253.17l-4.85-4.55,12.18-12.97c1.94-2.06,3.13-3.45,3.58-4.17.71-1.17.97-2.42.76-3.73-.21-1.32-.99-2.61-2.33-3.87-1.36-1.27-2.64-1.96-3.86-2.04-1.22-.09-2.27.21-3.18.9-.91.69-2.25,1.97-4.03,3.87l-12.45,13.25-4.85-4.55,11.82-12.59c2.7-2.88,4.74-4.79,6.12-5.73,1.37-.94,2.8-1.5,4.27-1.66,1.46-.16,3.01.07,4.63.68,1.63.62,3.39,1.81,5.28,3.58,2.28,2.14,3.76,4.02,4.44,5.66.68,1.64.96,3.2.86,4.69-.11,1.49-.49,2.79-1.15,3.92-.97,1.67-2.72,3.85-5.23,6.53l-12.01,12.79Zm.31-45.98l-27.29,18.27-3.58-5.35,10.77-23.48-18.29,12.25-3.42-5.11,27.29-18.27,3.7,5.52-10.54,23.07,17.94-12.01,3.42,5.11Zm-16.61-27.02l-29.86,13.68-2.77-6.05,29.86-13.68,2.77,6.05Zm-22.73-11.66c3.59-.96,6.1-2.53,7.51-4.69,1.41-2.16,1.77-4.52,1.09-7.07-.69-2.56-2.17-4.41-4.45-5.57-2.29-1.14-5.26-1.23-8.95-.24-3.64.98-6.14,2.5-7.5,4.58-1.37,2.08-1.69,4.43-.98,7.09.71,2.64,2.19,4.53,4.43,5.67,2.25,1.13,5.2,1.21,8.86.23h0Zm1.98,6.55c-3.23.86-6.08,1.11-8.54.73-1.81-.28-3.53-.88-5.15-1.79-1.62-.9-2.94-2.02-3.96-3.33-1.37-1.75-2.4-3.92-3.09-6.51-1.26-4.68-.8-8.81,1.35-12.4,2.16-3.59,5.82-6.07,11-7.46,5.13-1.38,9.52-1.05,13.16.95,3.65,2.01,6.1,5.35,7.34,10.01,1.26,4.72.83,8.86-1.31,12.42-2.13,3.56-5.73,6.02-10.8,7.38h0Z"/>
      <path class="cls-2" d="m203.74,333.16l3.42,6.78,6.36-4.16-.43,7.59,7.58-.43-4.16,6.35,6.78,3.42-6.78,3.42,4.16,6.36-7.58-.43.43,7.59-6.36-4.16-3.42,6.79-3.42-6.79-6.36,4.16.43-7.59-7.59.43,4.16-6.36-6.78-3.42,6.78-3.42-4.16-6.35,7.59.43-.43-7.59,6.36,4.16,3.42-6.78Z"/>
      <path class="cls-8" d="m203.87,157.38c-15.74,0-29.99,6.38-40.3,16.7-4.73,4.73-8.62,10.28-11.46,16.42h22.5c.87-3.93,4.45-7.46,9.52-10.08,5.51-2.85,12.87-4.69,20.3-4.79.32,0,.64,0,.96,0,6.65.05,13.38,1.92,18.52,4.54,5.19,2.65,8.86,6.17,9.5,9.58h21.89c-2.81-5.85-6.58-11.14-11.12-15.68-10.31-10.32-24.56-16.7-40.31-16.7h0Zm-1.95,33.66h-3.24c-.59,0-1.06-.48-1.06-1.06s.48-1.06,1.06-1.06h3.25v-2.37s-3.25,0-3.25,0c-.59,0-1.06-.47-1.06-1.06s.48-1.06,1.06-1.06h3.27v-3.83h3.19l-.25,72.1c8.26-.33,14.65-1.92,19.16-4.23,4.71-2.41,7.28-5.57,7.68-8.82-.75-.61-1.46-1.26-2.13-1.95-5.45-5.55-8.48-13.37-8.86-21.48-.37-8.08,1.9-16.47,7.05-23.18.76-.99,1.58-1.94,2.46-2.85-.48-2.32-3.5-4.96-7.8-7.15-4.76-2.43-10.98-4.16-17.1-4.21-.3,0-.6,0-.9,0-6.94.09-13.78,1.8-18.89,4.44-4.59,2.38-7.69,5.44-7.98,8.62,5.81,6.9,8.58,15.35,8.51,23.86-.06,8.67-3.07,17.41-8.8,24.64.57,3.01,3.66,6.02,8.1,8.34,4.48,2.33,10.26,3.89,16.3,4.02v-2.17s-3.03,0-3.03,0c-.59,0-1.06-.48-1.06-1.06s.48-1.06,1.06-1.06h3.04v-2.37s-3.04,0-3.04,0c-.59,0-1.06-.47-1.06-1.06s.48-1.06,1.06-1.06h3.06v-1.99s-3.06,0-3.06,0c-.59,0-1.06-.48-1.06-1.07s.48-1.06,1.06-1.06h3.07v-2.37s-3.07,0-3.07,0c-.59,0-1.06-.48-1.06-1.06s.48-1.06,1.06-1.06h3.09v-2.1s-3.09,0-3.09,0c-.59,0-1.06-.48-1.06-1.06s.48-1.06,1.06-1.06h3.1v-2.37s-3.1,0-3.1,0c-.59,0-1.06-.48-1.06-1.06s.48-1.06,1.06-1.06h3.12v-1.67s-3.11,0-3.11,0c-.59,0-1.07-.48-1.07-1.07s.48-1.06,1.07-1.06h3.12v-2.37s-3.12,0-3.12,0c-.59,0-1.07-.48-1.07-1.06s.48-1.06,1.07-1.06h3.14v-1.88s-3.14,0-3.14,0c-.59,0-1.07-.48-1.07-1.07s.48-1.06,1.07-1.06h3.16v-2.37s-3.16,0-3.16,0c-.59,0-1.07-.48-1.07-1.06s.48-1.06,1.07-1.06h3.17v-1.88s-3.17,0-3.17,0c-.59,0-1.06-.48-1.06-1.07s.47-1.06,1.06-1.06h3.19v-2.37s-3.19,0-3.19,0c-.59,0-1.06-.48-1.06-1.06s.47-1.06,1.06-1.06h3.2v-1.78s-3.2,0-3.2,0c-.59,0-1.07-.48-1.07-1.06s.48-1.06,1.07-1.06h3.21v-2.37s-3.21,0-3.21,0c-.59,0-1.07-.47-1.07-1.06s.48-1.06,1.07-1.06h3.23v-1.88Zm-26.97,2.65h-24.2c-2.37,6.09-3.73,12.67-3.86,19.56h35.97c-.45-7.02-3.04-13.88-7.91-19.56h0Zm7.97,22.75h-36.01c.27,7.64,2.04,14.89,5.03,21.47h23.26c4.88-6.37,7.51-13.93,7.72-21.47h0Zm-8.72,24.66h-20.69c2.67,5.02,6.07,9.6,10.05,13.59,10.32,10.31,24.57,16.7,40.3,16.7s29.99-6.38,40.31-16.7c3.99-3.99,7.39-8.57,10.06-13.59h-19.54c-.89,3.89-3.97,7.5-9.21,10.19-5.2,2.66-12.61,4.44-22.17,4.63-7.15.14-14.1-1.62-19.38-4.37-5.22-2.72-8.9-6.47-9.73-10.45h0Zm60.48-3.19h21.12c2.98-6.59,4.76-13.84,5.03-21.47h-36.9c.41,7.21,3.12,14.12,7.93,19.01.77.79,1.6,1.52,2.48,2.2l.35.27Zm-10.78-24.66h36.95c-.14-7.17-1.61-14.02-4.16-20.3h-24.69c-.6.64-1.16,1.32-1.69,2-4.09,5.33-6.18,11.83-6.41,18.3h0Zm-62.89-41.73c10.97-10.97,26.12-17.75,42.86-17.75s31.89,6.78,42.86,17.75c10.97,10.97,17.75,26.12,17.75,42.86s-6.79,31.89-17.75,42.86c-10.97,10.97-26.12,17.75-42.86,17.75s-31.89-6.79-42.86-17.75c-10.97-10.97-17.75-26.12-17.75-42.86s6.79-31.89,17.75-42.86h0Z"/>
      <path class="cls-8" d="m271.01,284.21h11.21V113.34c-2.19-.58-4.1-1.07-6.02-1.57-2.56-.66-5.13-1.33-7.07-1.85-5.7-1.53-11.19-2.5-16.52-2.94-5.3-.44-10.44-.34-15.43.27-3.94.48-7.57,1.45-10.85,3.17-3.25,1.71-6.17,4.17-8.72,7.69-4.96,6.84-10.34,10.27-16.1,10.73-5.71.46-11.68-2.05-17.9-7.07-3.21-2.59-6.37-4.58-9.48-5.82-3.03-1.21-6.01-1.73-8.96-1.42-12.14,1.27-22.43,5.57-31.41,11.98-7.1,5.07-13.39,11.46-19.11,18.7,9.3-4.95,18.37-8.2,27.03-8.87,10.89-.84,21.06,2.35,30.11,11.27,4.42,4.35,8.35,9.18,12.27,14.01,3.35,4.11,6.7,8.22,10.32,12,4.35,4.53,8.89,6.09,13.52,5.69,4.79-.42,9.74-2.89,14.71-6.36,3.59-2.51,7.94-4.42,12.2-5.65,4.69-1.36,9.32-1.89,12.73-1.51,6.38.71,12.44,3.43,16.8,7.61,4.08,3.91,6.68,9.1,6.68,15.12v95.7Zm12.8,3.19h-14.4c-.88,0-1.6-.71-1.6-1.59v-97.29c0-5.09-2.21-9.5-5.69-12.83-3.85-3.69-9.24-6.1-14.94-6.74-3.03-.34-7.21.16-11.51,1.4-3.95,1.14-7.96,2.9-11.26,5.2-5.39,3.77-10.85,6.46-16.25,6.93-5.56.48-10.98-1.34-16.08-6.66-3.7-3.86-7.1-8.03-10.49-12.2-3.87-4.76-7.74-9.51-12.04-13.75-8.32-8.2-17.66-11.14-27.65-10.37-10.16.79-21.05,5.39-32.27,12.21h0c-.52.32-1.21.32-1.74-.06-.71-.51-.89-1.5-.38-2.22,7.11-10.04,15.06-18.88,24.4-25.54,9.4-6.71,20.19-11.22,32.93-12.55,3.48-.36,6.97.23,10.47,1.63,3.42,1.37,6.84,3.51,10.29,6.29,5.58,4.51,10.8,6.77,15.66,6.38,4.81-.38,9.39-3.39,13.77-9.43,2.85-3.93,6.15-6.7,9.82-8.63,3.65-1.92,7.65-2.98,11.94-3.52,5.21-.64,10.56-.74,16.08-.28,5.51.46,11.19,1.46,17.08,3.04,2.68.72,4.87,1.29,7.05,1.85,2.58.67,5.16,1.34,7.14,1.87.72.15,1.27.79,1.27,1.56v173.68c0,.88-.71,1.59-1.59,1.59h0Z"/>
      <path class="cls-4" d="m194.38,173.61c4.35,4.53,8.89,6.09,13.52,5.69,4.79-.42,9.74-2.89,14.71-6.36,3.59-2.51,7.94-4.42,12.2-5.65,4.69-1.36,9.32-1.89,12.73-1.51,6.38.71,12.44,3.43,16.8,7.61,4.08,3.91,6.68,9.1,6.68,15.12v95.7h11.21V113.34c-2.19-.58-4.1-1.07-6.02-1.57-2.56-.66-5.13-1.33-7.07-1.85-5.7-1.53-11.19-2.5-16.52-2.94-5.3-.44-10.44-.34-15.43.27-3.94.48-7.57,1.45-10.85,3.17-3.25,1.71-6.17,4.17-8.72,7.69-4.96,6.84-10.34,10.27-16.1,10.73-5.71.46-11.68-2.05-17.9-7.07-3.21-2.59-6.37-4.58-9.48-5.82-3.03-1.21-6.01-1.73-8.96-1.42-12.14,1.27-22.43,5.57-31.41,11.98-7.1,5.07-13.39,11.46-19.11,18.7,9.3-4.95,18.37-8.2,27.03-8.87,10.89-.84,21.06,2.35,30.11,11.27,4.42,4.35,8.35,9.18,12.27,14.01,3.35,4.11,6.7,8.22,10.32,12h0Z"/>
      <path class="cls-6" d="m184.12,180.42c2.7-1.4,5.84-2.55,9.22-3.38-.42-.39-.83-.79-1.25-1.23-3.7-3.86-7.1-8.03-10.49-12.2-.34-.43-.69-.85-1.03-1.27-6.37,2.86-12.12,6.85-17,11.73s-8.62,10.28-11.46,16.42h22.5c.87-3.93,4.45-7.46,9.52-10.08h0Z"/>
      <path class="cls-6" d="m182.86,213.25c-.45-7.02-3.04-13.88-7.91-19.56h-24.2c-2.37,6.09-3.73,12.67-3.86,19.56h35.97Z"/>
      <path class="cls-6" d="m177.59,191.88c5.81,6.9,8.58,15.35,8.51,23.86-.06,8.67-3.07,17.41-8.8,24.64.57,3.01,3.66,6.02,8.1,8.34,4.48,2.33,10.26,3.89,16.3,4.02v-2.17s-3.03,0-3.03,0c-.59,0-1.06-.48-1.06-1.06s.48-1.06,1.06-1.06h3.04v-2.37s-3.04,0-3.04,0c-.59,0-1.06-.47-1.06-1.06s.48-1.06,1.06-1.06h3.06v-1.99s-3.06,0-3.06,0c-.59,0-1.06-.48-1.06-1.07s.48-1.06,1.06-1.06h3.07v-2.37s-3.07,0-3.07,0c-.59,0-1.06-.48-1.06-1.06s.48-1.06,1.06-1.06h3.09v-2.1s-3.09,0-3.09,0c-.59,0-1.06-.48-1.06-1.06s.48-1.06,1.06-1.06h3.1v-2.37s-3.1,0-3.1,0c-.59,0-1.06-.48-1.06-1.06s.48-1.06,1.06-1.06h3.12v-1.67s-3.11,0-3.11,0c-.59,0-1.07-.48-1.07-1.07s.48-1.06,1.07-1.06h3.12v-2.37s-3.12,0-3.12,0c-.59,0-1.07-.48-1.07-1.06s.48-1.06,1.07-1.06h3.14v-1.88s-3.14,0-3.14,0c-.59,0-1.07-.48-1.07-1.07s.48-1.06,1.07-1.06h3.16v-2.37s-3.16,0-3.16,0c-.59,0-1.07-.48-1.07-1.06s.48-1.06,1.07-1.06h3.17v-1.88s-3.17,0-3.17,0c-.59,0-1.06-.48-1.06-1.07s.47-1.06,1.06-1.06h3.19v-2.37s-3.19,0-3.19,0c-.59,0-1.06-.48-1.06-1.06s.47-1.06,1.06-1.06h3.2v-1.78s-3.2,0-3.2,0c-.59,0-1.07-.48-1.07-1.06s.48-1.06,1.07-1.06h3.21v-2.37s-3.21,0-3.21,0c-.59,0-1.07-.47-1.07-1.06s.48-1.06,1.07-1.06h3.23v-1.88s-3.23,0-3.23,0c-.59,0-1.06-.48-1.06-1.06s.47-1.06,1.06-1.06h3.25v-2.37s-3.25,0-3.25,0c-.59,0-1.06-.47-1.06-1.06s.47-1.06,1.06-1.06h3.26v-2.44c-1.8-.48-3.59-1.26-5.35-2.39-4.08.76-7.88,2.03-11.03,3.66-4.59,2.38-7.69,5.44-7.98,8.62h0Z"/>
      <path class="cls-6" d="m205.13,182.5l-.25,70.19c8.26-.33,14.65-1.92,19.16-4.23,4.71-2.41,7.28-5.57,7.68-8.82-.75-.61-1.46-1.26-2.13-1.95-5.45-5.55-8.48-13.37-8.86-21.48-.37-8.08,1.9-16.47,7.05-23.18.76-.99,1.58-1.94,2.46-2.85-.48-2.32-3.5-4.96-7.8-7.15-1.97-1.01-4.2-1.89-6.57-2.59-2.58,1.11-5.16,1.83-7.73,2.06-1.02.09-2.03.1-3.04.02h0Z"/>
      <path class="cls-6" d="m233.41,189.76h21.89c-2.81-5.85-6.58-11.14-11.12-15.68-1.62-1.62-3.34-3.15-5.14-4.56-1.1.22-2.23.5-3.36.83-3.95,1.14-7.96,2.9-11.26,5.2-1.5,1.05-3,2.01-4.5,2.87,1.41.53,2.75,1.12,4,1.76,5.19,2.65,8.86,6.17,9.5,9.58h0Z"/>
      <path class="cls-6" d="m256.71,192.95h-24.69c-.6.64-1.16,1.32-1.69,2-4.09,5.33-6.18,11.83-6.41,18.3h36.95c-.14-7.17-1.61-14.02-4.16-20.3h0Z"/>
      <path class="cls-6" d="m260.84,216.44h-36.9c.41,7.21,3.12,14.12,7.93,19.01.77.79,1.6,1.52,2.48,2.2l.35.27h21.12c2.98-6.59,4.76-13.84,5.03-21.47h0Z"/>
      <path class="cls-6" d="m225.5,251.29c-5.2,2.66-12.61,4.44-22.17,4.63-7.15.14-14.1-1.62-19.38-4.37-5.22-2.72-8.9-6.47-9.73-10.45h-20.69c2.67,5.02,6.07,9.6,10.05,13.59,10.32,10.31,24.57,16.7,40.3,16.7s29.99-6.38,40.31-16.7c3.99-3.99,7.39-8.57,10.06-13.59h-19.54c-.89,3.89-3.97,7.5-9.21,10.19h0Z"/>
      <path class="cls-6" d="m175.21,237.91c4.88-6.37,7.51-13.93,7.72-21.47h-36.01c.27,7.64,2.04,14.89,5.03,21.47h23.26Z"/>
      <path class="cls-8" d="m149.48,193.78c-4.91-1.02-10.08-5.54-16.16-10.87-2.43-2.12-5-4.38-7.66-6.5-.91-.73-1.94-1.35-3.04-1.83-1.07-.46-2.19-.79-3.33-.95-1.12-.16-2.23-.2-3.32-.14-1.11.06-2.21.22-3.29.46-.35.08-.63.25-.83.49-.27.31-.44.75-.52,1.22-.12.73-.22,1.45-.24,2.15-.02.69.04,1.42.21,2.22.09.44.27.88.51,1.27.24.38.54.73.9,1.01,2.11,1.66,4.42,3.06,6.72,4.46,3.44,2.09,6.88,4.18,9.76,7.08.16.17.33.36.5.56.83,1,1.33,2.09,1.4,3.21.07,1.24-.35,2.42-1.4,3.46-.11.11-.24.22-.39.35-1.57,1.31-3.17,2.14-4.69,2.93-1.39.72-2.71,1.41-3.66,2.33-.52.5-1.02,1.14-1.3,1.8-.18.42-.26.83-.18,1.18.18.76.45,1.48.82,2.14.37.66.85,1.29,1.43,1.86.45.46.91.8,1.39,1.07.52.29,1.09.52,1.73.71.43.13,1.03.2,1.62.27.97.11,1.95.23,2.93.66,1.26.54,2.18,1.31,2.79,2.2.56.81.87,1.7.94,2.6.07.89-.08,1.77-.43,2.59-.41.96-1.09,1.81-2,2.44-4.26,2.96-10.72,2.06-16.01,1.33-.77-.11-1.5-.21-2.38-.32-.52-.06-1.08.04-1.63.23-.64.24-1.24.61-1.71,1.05h0c-.81.76-1.35,1.85-1.56,3.04h0c-.21,1.19-.09,2.44.43,3.51.21.43.61.8,1.11,1.1.64.37,1.38.59,2.05.62,8.55.41,17.14.09,25.72-.24,4.3-.16,8.6-.32,12.98-.4l.06,3.6c-4.25.07-8.58.23-12.91.4-8.67.33-17.34.66-26.02.23-1.23-.06-2.56-.45-3.69-1.1-1.1-.64-2.03-1.54-2.57-2.66-.84-1.75-1.05-3.79-.71-5.69h0c.34-1.91,1.25-3.72,2.66-5.04h0c.81-.77,1.84-1.4,2.93-1.81,1.05-.39,2.19-.56,3.3-.43.64.08,1.53.2,2.45.33,4.66.65,10.36,1.44,13.46-.72.34-.23.59-.55.74-.9.12-.28.17-.58.15-.88-.02-.28-.12-.56-.3-.82-.25-.35-.66-.68-1.25-.94-.51-.22-1.22-.31-1.93-.39-.73-.09-1.45-.18-2.25-.41-.91-.28-1.71-.59-2.45-1.01-.78-.44-1.5-.97-2.18-1.66-.79-.79-1.47-1.68-2.02-2.67-.54-.96-.93-2-1.18-3.1-.27-1.16-.08-2.32.38-3.38.48-1.14,1.29-2.18,2.12-2.99,1.34-1.29,2.88-2.09,4.51-2.94,1.36-.71,2.79-1.45,4.04-2.49.04-.04.09-.08.15-.14.24-.24.35-.47.33-.68-.02-.32-.22-.71-.57-1.12-.07-.09-.17-.2-.29-.32-2.59-2.61-5.82-4.58-9.07-6.54-2.43-1.48-4.88-2.96-7.08-4.7-.68-.53-1.26-1.21-1.73-1.96-.46-.75-.8-1.58-.98-2.43-.23-1.08-.3-2.08-.27-3.04.02-.95.13-1.81.28-2.66.18-1.09.62-2.14,1.36-2.98.69-.79,1.6-1.39,2.78-1.65,1.28-.28,2.57-.47,3.86-.54h0c1.32-.07,2.65-.02,4.01.16,1.46.21,2.91.62,4.27,1.22,1.37.6,2.67,1.39,3.85,2.33,2.82,2.26,5.38,4.5,7.79,6.6,5.7,4.99,10.53,9.23,14.52,10.05l-.73,3.53Z"/>
      <path class="cls-5" d="m112.69,173.94c-.35.08-.63.25-.83.49-.27.31-.44.75-.52,1.22-.12.73-.22,1.45-.24,2.15-.02.69.04,1.42.21,2.22.09.44.27.88.51,1.27.24.38.54.73.9,1.01,2.11,1.66,4.42,3.06,6.72,4.46,3.44,2.09,6.88,4.18,9.76,7.08.16.17.33.36.5.56.83,1,1.33,2.09,1.4,3.21.07,1.24-.35,2.42-1.4,3.46-.11.11-.24.22-.39.35-1.57,1.31-3.17,2.14-4.69,2.93-1.39.72-2.71,1.41-3.66,2.33-.52.5-1.02,1.14-1.3,1.8-.18.42-.26.83-.18,1.18.18.76.45,1.48.82,2.14.37.66.85,1.29,1.43,1.86.45.46.91.8,1.39,1.07.52.29,1.09.52,1.73.71.43.13,1.03.2,1.62.27.97.11,1.95.23,2.93.66,1.26.54,2.18,1.31,2.79,2.2.56.81.87,1.7.94,2.6.07.89-.08,1.77-.43,2.59-.41.96-1.09,1.81-2,2.44-4.26,2.96-10.72,2.06-16.01,1.33-.77-.11-1.5-.21-2.38-.32-.52-.06-1.08.04-1.63.23-.64.24-1.24.61-1.71,1.05h0c-.81.76-1.35,1.85-1.56,3.04h0c-.21,1.19-.09,2.44.43,3.51.21.43.61.8,1.11,1.1.64.37,1.38.59,2.05.62,8.55.41,17.14.09,25.72-.24,3.52-.13,7.04-.27,10.59-.35-2.61-6.76-4.04-14.11-4.04-21.79s1.37-14.7,3.86-21.34c-4.21-1.74-8.68-5.65-13.8-10.13-2.43-2.12-5-4.38-7.66-6.5-.91-.73-1.94-1.35-3.04-1.83-1.07-.46-2.19-.79-3.33-.95-1.12-.16-2.23-.2-3.32-.14-1.12.06-2.21.22-3.29.46h0Z"/>
      <path class="cls-3" d="m260.2,195.64l8.16-3.02,1.24,3.39-8.16,3.02-1.24-3.39Z"/>
      <path class="cls-5" d="m261.39,195.2l6.43-2.38v-4.31c0-5.09-2.21-9.5-5.69-12.83-3.85-3.69-9.24-6.1-14.94-6.74-.98-.11-2.09-.13-3.27-.07.97.85,1.91,1.73,2.82,2.65,6.58,6.57,11.65,14.65,14.66,23.68h0Z"/>
      <path class="cls-8" d="m167.47,262.85c-.54,3.66-2.52,6.45-5.44,8.88-1.55,1.29-3.67,2.27-6.54,1.48-3.08-.86-6.02.04-11,1.74-1.5.51-2.73,1.26-4.61,2.53-1.99,1.34-1.78,2.56.7,3.95,2.96,1.65,6.88,1.89,10.69,1.95,3.07.05,6.13-.16,9.14-.76,3.5-.69,6.91-1.54,10.55-.49,7.6,2.19,15.44,3.11,23.41,3.23,3.87-.07,7.75.13,11.6-.21.95-.08,1.73-.86,2.67-1.05,2.18-.45,4.4-.65,6.61-.84,7.73-.67,15.52-.67,23.2-1.76,8.47-1.2,16.7-3.86,25.17-5.06,1.4-.2,2.77-.04,4.18.48v-7.73c-.39.27-.8.34-1.16,0-3.04-2.8-5.35-4.3-8.37-4.57-5.86-.52-14.64-.25-17.65.07-1.41.15-1.59-.36-1.5-1.01-9.93,7.12-22.11,11.31-35.26,11.31s-26.27-4.52-36.4-12.15h0Z"/>
      <path class="cls-7" d="m107.78,175.05c.18-1.09.62-2.14,1.36-2.98.69-.79,1.6-1.39,2.78-1.65,1.28-.28,2.57-.47,3.86-.54h0c1.32-.07,2.65-.02,4.01.16,1.46.21,2.91.62,4.27,1.22,1.37.6,2.67,1.39,3.85,2.33,2.82,2.26,5.38,4.5,7.79,6.6,4.9,4.29,9.16,8.03,12.8,9.51,3.04-6.82,7.31-12.98,12.52-18.19,4.95-4.95,10.76-9.06,17.17-12.06-2.76-3.33-5.59-6.59-8.63-9.58-8.32-8.2-17.66-11.14-27.65-10.37-10.16.79-21.05,5.39-32.27,12.21h0c-.52.32-1.21.32-1.74-.06-.71-.51-.89-1.5-.38-2.22,7.11-10.04,15.06-18.88,24.4-25.54,9.4-6.71,20.19-11.22,32.93-12.55,3.48-.36,6.97.23,10.47,1.63,3.42,1.37,6.84,3.51,10.29,6.29,5.58,4.51,10.8,6.77,15.66,6.38,4.81-.38,9.39-3.39,13.77-9.43,2.85-3.93,6.15-6.7,9.82-8.63,3.65-1.92,7.65-2.98,11.94-3.52,5.21-.64,10.56-.74,16.08-.28,5.51.46,11.19,1.46,17.08,3.04,2.68.72,4.87,1.29,7.05,1.85,2.58.67,5.16,1.34,7.14,1.87.72.15,1.27.79,1.27,1.56v173.68c0,.88-.71,1.59-1.59,1.59h-14.4c-.88,0-1.59-.71-1.59-1.59v-8.89c-1.41-.52-2.78-.68-4.18-.48-8.47,1.21-16.7,3.87-25.17,5.06-7.68,1.08-15.48,1.09-23.2,1.76-2.21.2-4.43.4-6.61.84-.94.19-1.72.97-2.67,1.05-3.85.34-7.74.14-11.6.21-7.98-.12-15.81-1.05-23.41-3.23-3.63-1.04-7.05-.2-10.55.49-3.01.59-6.07.81-9.14.76-3.81-.06-7.73-.3-10.69-1.95-2.49-1.39-2.69-2.61-.7-3.95,1.88-1.27,3.11-2.02,4.61-2.53,4.98-1.71,7.92-2.6,11-1.74,2.87.8,4.99-.19,6.54-1.48,2.92-2.43,4.91-5.22,5.44-8.88-2.29-1.72-4.44-3.59-6.46-5.61-5.04-5.03-9.19-10.95-12.21-17.5-3.95.07-7.96.23-11.98.38-8.67.33-17.34.66-26.02.23-1.23-.06-2.56-.45-3.69-1.1-1.09-.64-2.03-1.54-2.57-2.66-.84-1.75-1.05-3.79-.71-5.69h0c.34-1.91,1.25-3.72,2.66-5.04h0c.81-.77,1.84-1.4,2.93-1.81,1.05-.39,2.19-.56,3.29-.43.64.08,1.53.2,2.45.33,4.66.65,10.35,1.44,13.46-.72.34-.23.59-.55.74-.9.12-.28.17-.58.15-.88-.02-.28-.12-.56-.3-.82-.25-.35-.66-.68-1.25-.94-.51-.22-1.22-.31-1.93-.39-.73-.09-1.45-.18-2.25-.41-.91-.28-1.71-.59-2.45-1.01-.78-.44-1.5-.97-2.18-1.66-.79-.8-1.47-1.69-2.02-2.67-.54-.96-.94-2-1.19-3.1-.26-1.16-.07-2.32.38-3.38.48-1.14,1.29-2.18,2.12-2.99,1.34-1.29,2.88-2.09,4.51-2.94,1.36-.71,2.79-1.45,4.04-2.49l.15-.14c.24-.24.35-.47.33-.68-.02-.32-.22-.71-.57-1.12-.07-.09-.18-.2-.29-.32-2.59-2.61-5.82-4.58-9.07-6.54-2.44-1.48-4.88-2.96-7.08-4.7-.68-.53-1.26-1.21-1.73-1.96-.47-.75-.8-1.58-.98-2.43-.23-1.08-.3-2.08-.27-3.04.02-.95.13-1.81.28-2.66h0Zm-42.32,19.64l.22,6.64-21.15,14.01,21.58-.71.2,6.15-32.83,1.07-.21-6.43,21.56-14.23-22,.72-.2-6.15,32.83-1.07Zm227.69,122.4l9.97-8.62-2.83-7.44,3.93-3.39,4.68-6.22,8.59.52c3.06.17,5.04.2,5.96.1.9-.11,1.67-.36,2.29-.78.62-.42,1.39-1.24,2.31-2.46l.81-1.07-10.95-8.25,4-5.31,26.23,19.76-8.41,11.16c-2.11,2.8-3.89,4.66-5.31,5.58-1.43.92-3.04,1.3-4.81,1.16-1.78-.15-3.45-.8-5-1.96-1.97-1.49-3.16-3.29-3.58-5.41-.41-2.12.08-4.45,1.47-7-1.53.64-2.97,1.03-4.32,1.17-1.36.14-3.54.07-6.52-.21l-5.51-.48,11.3,31.68-5.32,4.6-31.44-16.23,5.42-4.69,7.04,3.8Zm47.87-122.72l32.56.64-.13,6.65-27.01-.53-.32,16.47-5.55-.11.45-23.12Zm-1.87-11.89l32.58-4.17.84,6.6-32.58,4.17-.84-6.6Zm-4.49-19.61l26.28-7.39-2.63-9.36,5.34-1.5,7.05,25.09-5.34,1.5-2.62-9.32-26.28,7.39-1.8-6.4Zm-18.55-39.64l-4.11-4.58,19.23-17.29-23.57,12.45-4.27-4.76,14.94-22.07-19.26,17.25-4.11-4.57,24.45-21.94,6.65,7.41-12.74,19.34,20.56-10.63,6.67,7.43-24.45,21.94Zm16.59-2.66l15.53-8.15,3.09,5.89-15.76,8.27c-2.5,1.32-4.08,2.24-4.75,2.77-1.06.88-1.71,1.97-1.94,3.28-.23,1.32.08,2.79.94,4.41.86,1.65,1.86,2.71,2.98,3.19,1.12.48,2.22.54,3.31.19,1.09-.36,2.78-1.13,5.08-2.34l16.1-8.45,3.09,5.89-15.3,8.02c-3.49,1.84-6.04,2.98-7.65,3.41-1.61.44-3.14.5-4.58.16-1.44-.32-2.82-1.05-4.16-2.16-1.34-1.12-2.61-2.82-3.81-5.11-1.45-2.77-2.24-5.04-2.34-6.8-.11-1.77.13-3.34.73-4.71.59-1.38,1.38-2.48,2.37-3.33,1.46-1.26,3.82-2.74,7.08-4.45h0Zm5.71,107.77l34.57-4.66-1.5,7.03-25.52,3.1,22.12,12.89-1.47,6.91-29.7-18.26,1.49-7.01Zm-14.79,42.38l10.18-22.78,29.98,13.4-9.92,22.2-5.07-2.26,7.21-16.13-6.66-2.98-6.7,14.99-5.07-2.26,6.7-14.99-8.12-3.63-7.47,16.71-5.07-2.27Zm-75-197.55l-6.47-2.76,24.64-25.18,6.46,2.77-.82,35.37-6.59-2.82.34-7.99-12.11-5.18-5.45,5.8Zm-172.52,75.85c-.09,1.53-.59,3.43-1.47,5.71l-4.5,11.61-30.62-11.88,4.37-11.28c.99-2.55,1.93-4.41,2.84-5.59,1.22-1.59,2.76-2.76,4.61-3.51,1.85-.76,3.88-1.09,6.1-1,2.21.09,4.75.7,7.62,1.81,2.52.98,4.57,2.13,6.15,3.47,1.94,1.63,3.32,3.42,4.14,5.37.64,1.47.89,3.23.77,5.28h0Zm19.56-32.23l-13.81,20.79-27.36-18.17,13.46-20.25,4.62,3.07-9.77,14.71,6.08,4.04,9.08-13.68,4.63,3.07-9.09,13.68,7.41,4.93,10.13-15.25,4.62,3.07Zm2.51-3.05l-22.96-23.49,7.6-7.43c2.88-2.82,4.87-4.54,5.98-5.16,1.69-.96,3.57-1.29,5.63-1,2.06.29,4,1.38,5.83,3.25,1.41,1.44,2.33,2.91,2.77,4.4.44,1.5.53,2.92.27,4.27-.26,1.34-.71,2.52-1.37,3.51-.91,1.33-2.44,3.04-4.58,5.14l-3.09,3.01,8.66,8.86-4.76,4.65Zm21.65-25.17c-4.01-1.05-7.39-3.81-10.11-8.29-1.74-2.86-2.77-5.52-3.1-7.99-.24-1.82-.15-3.63.27-5.44.41-1.81,1.1-3.39,2.08-4.74,1.3-1.8,3.09-3.4,5.38-4.8,4.14-2.52,8.23-3.25,12.28-2.19,4.05,1.06,7.46,3.88,10.25,8.46,2.76,4.54,3.69,8.84,2.79,12.9-.9,4.07-3.42,7.35-7.54,9.86-4.17,2.54-8.27,3.29-12.29,2.24h0Zm27.92-11.93l-9.89-31.32,13.32-4.21c3.35-1.06,5.87-1.54,7.57-1.46,1.7.08,3.23.69,4.59,1.84,1.37,1.16,2.34,2.65,2.93,4.5.74,2.36.67,4.51-.22,6.48-.89,1.96-2.65,3.58-5.26,4.84,1.61.37,3.01.89,4.19,1.56,1.19.67,2.93,2,5.2,3.96l5.75,4.9-7.56,2.39-6.7-5.41c-2.39-1.91-3.99-3.09-4.8-3.53-.8-.44-1.57-.68-2.31-.69-.75-.02-1.85.2-3.31.66l-1.28.41,4.13,13.08-6.34,2Zm37.04-9.63l-3.01-27.13-9.66,1.07-.61-5.51,25.9-2.88.61,5.52-9.62,1.07,3.01,27.13-6.61.73Zm20.4-1.23l1.26-32.82,6.65.26-1.26,32.82-6.65-.26Zm19.6,1.68l-5.57-34.44,7.07,1.31,3.77,25.43,12.3-22.44,6.95,1.28-17.47,30.17-7.04-1.3Zm-131.92,217.98l3.42,5.11-27.29,18.27-3.58-5.35,10.77-23.48-18.29,12.25-3.42-5.11,27.29-18.27,3.7,5.52-10.54,23.07,17.94-12.01Zm-4.09,20.63c2.7-2.88,4.74-4.79,6.12-5.73,1.37-.94,2.8-1.5,4.27-1.66,1.46-.16,3.01.07,4.63.68,1.63.62,3.39,1.81,5.28,3.58,2.28,2.14,3.76,4.02,4.44,5.66.68,1.64.96,3.2.86,4.69-.11,1.49-.49,2.79-1.15,3.92-.97,1.67-2.72,3.85-5.23,6.53l-12.01,12.79-4.85-4.55,12.18-12.97c1.94-2.06,3.13-3.45,3.58-4.17.71-1.17.97-2.42.76-3.73-.21-1.32-.99-2.61-2.33-3.87-1.36-1.27-2.64-1.96-3.86-2.04-1.22-.09-2.27.21-3.18.9-.91.69-2.25,1.97-4.03,3.87l-12.45,13.25-4.85-4.55,11.82-12.59Zm-25.07-77.46c3.65,2.01,6.1,5.35,7.34,10.01,1.26,4.72.83,8.86-1.31,12.42-2.13,3.56-5.73,6.02-10.8,7.38-3.23.86-6.08,1.11-8.54.73-1.81-.28-3.53-.88-5.15-1.79-1.62-.9-2.94-2.02-3.96-3.33-1.37-1.75-2.4-3.92-3.09-6.51-1.26-4.68-.8-8.81,1.35-12.4,2.16-3.59,5.82-6.07,11-7.46,5.13-1.38,9.52-1.05,13.16.95h0Zm-16.65,42.55l29.86-13.68,2.77,6.05-29.86,13.68-2.77-6.05Zm156.18,113.43c48.27,0,94.11-18.99,128.24-53.12s53.12-79.97,53.12-128.24-18.99-94.11-53.12-128.23S251.52,21.9,203.25,21.9s-94.11,18.99-128.23,53.12S21.9,154.98,21.9,203.25s18.99,94.11,53.12,128.24,79.97,53.12,128.23,53.12h0Zm-2.93-44.66l3.42-6.78,3.42,6.78,6.36-4.16-.43,7.59,7.58-.43-4.16,6.35,6.78,3.42-6.78,3.42,4.16,6.36-7.58-.43.43,7.59-6.36-4.16-3.42,6.79-3.42-6.79-6.36,4.16.43-7.59-7.59.43,4.16-6.36-6.78-3.42,6.78-3.42-4.16-6.35,7.59.43-.43-7.59,6.36,4.16Z"/>
      <path class="cls-7" d="m264.49,214.38c0,16.74-6.79,31.89-17.75,42.86-2.35,2.35-4.89,4.51-7.6,6.45-.09.64.1,1.16,1.5,1.01,3-.32,11.79-.59,17.65-.07,3.02.26,5.33,1.77,8.37,4.57.36.34.77.26,1.16,0v-72.52l-5.39,2c1.34,5.01,2.06,10.28,2.06,15.72h0Z"/>
      <path class="cls-7" d="m305.22,314l-6.8,5.89,11.4,6.21-4.6-12.09Z"/>
      <path class="cls-7" d="m326.82,302.12c.25.76.78,1.43,1.57,2.02.89.67,1.77.96,2.68.91.9-.06,1.74-.47,2.53-1.21.39-.39,1.39-1.66,3-3.8l3.11-4.14-6.67-5.02-2.95,3.92c-1.91,2.54-3,4.2-3.26,5-.26.79-.27,1.57,0,2.32h0Z"/>
      <path class="cls-7" d="m258.12,63.07l8.27,3.54.59-12.97-8.86,9.43Z"/>
      <path class="cls-7" d="m158.63,52.92c.67-.49,1.13-1.12,1.35-1.89.23-.76.2-1.62-.1-2.56-.33-1.06-.88-1.81-1.65-2.29-.76-.47-1.69-.63-2.76-.47-.54.09-2.09.54-4.65,1.35l-4.93,1.56,2.51,7.96,4.68-1.48c3.03-.96,4.88-1.69,5.55-2.18h0Z"/>
      <path class="cls-7" d="m130.96,67c-1.96-3.22-4.13-5.19-6.51-5.91-2.38-.73-4.73-.38-7.07,1.05-2.34,1.43-3.74,3.38-4.2,5.85-.45,2.48.3,5.33,2.27,8.56,1.94,3.18,4.14,5.14,6.61,5.89,2.47.75,4.84.43,7.09-.94,2.27-1.38,3.62-3.32,4.09-5.84.46-2.52-.31-5.4-2.29-8.66h0Z"/>
      <path class="cls-7" d="m96.37,89.73c.39-.86.51-1.72.34-2.6-.16-.87-.57-1.66-1.25-2.36-.84-.86-1.78-1.32-2.82-1.39-1.05-.07-2.02.2-2.93.81-.66.45-1.85,1.5-3.55,3.16l-2.28,2.23,6.54,6.69,2.59-2.53c1.86-1.82,2.98-3.16,3.37-4.02h0Z"/>
      <path class="cls-7" d="m62.31,141.17c-2.37-.92-4.26-1.41-5.69-1.48-1.43-.08-2.64.12-3.64.59-1,.48-1.85,1.23-2.54,2.29-.53.78-1.28,2.43-2.25,4.94l-1.07,2.77,20.27,7.86,1.78-4.6c.67-1.72,1.05-3,1.15-3.83.14-1.11.04-2.1-.31-2.98-.34-.89-1.12-1.81-2.32-2.76-1.21-.95-3-1.88-5.37-2.8h0Z"/>
      <path class="cls-7" d="m61.12,234.55c-2.29-1.14-5.26-1.23-8.95-.24-3.64.98-6.14,2.5-7.5,4.58-1.37,2.08-1.69,4.43-.98,7.09.71,2.64,2.19,4.53,4.43,5.67,2.25,1.13,5.2,1.21,8.86.23,3.59-.96,6.1-2.53,7.51-4.69,1.41-2.16,1.77-4.52,1.09-7.07-.69-2.56-2.17-4.41-4.45-5.57h0Z"/>
    </g>
  </g>
</svg>