<?xml version="1.0" encoding="UTF-8"?>
<svg id="Layer_2" data-name="Layer 2" xmlns="http://www.w3.org/2000/svg" viewBox="0 0 316.73 328.25">
  <defs>
    <style>
      .cls-1 {
        fill: #0a2363;
      }

      .cls-1, .cls-2 {
        stroke-width: 0px;
      }

      .cls-2 {
        fill: #e59d15;
      }
    </style>
  </defs>
  <g id="Layer_1-2" data-name="Layer 1">
    <g>
      <path class="cls-2" d="m304.53,7.5c-29.06,17.88-66.77,26.11-93.24,29.78-26.49,3.69-52.29,3.69-52.93,3.69s-26.43,0-52.93-3.69c-26.46-3.67-64.18-11.9-93.24-29.78L0,0l1.83,14.19c.1.75,8.67,66.11,31.5,136.72,13.45,41.58,29.16,76.88,46.76,104.94,21.6,34.44,46.21,58.13,73.32,70.21.85.38,1.61.71,2.31,1l2.65,1.18,2.64-1.17c.7-.29,1.47-.63,2.32-1,27.12-12.09,51.73-35.78,73.33-70.22,17.6-28.06,33.3-63.36,46.76-104.94,22.83-70.61,31.4-135.96,31.5-136.71l1.83-14.2-12.2,7.5Z"/>
      <path class="cls-1" d="m309.77,13.54c-.07.56-8.62,65.69-31.29,135.78-13.35,41.28-28.92,76.21-46.21,103.78-21.24,33.87-45.19,56.73-71.04,68.24-.85.38-1.61.7-2.29.99l-.19.07-.04.03-.34.15-.34-.15-.04-.02-.19-.08c-.67-.29-1.44-.61-2.29-.99-25.85-11.5-49.8-34.37-71.04-68.23-17.29-27.58-32.86-62.51-46.21-103.78C15.58,79.23,7.03,14.1,6.96,13.53l-.44-3.44,2.97,1.83c30.15,18.51,68.4,26.75,95.23,30.5,26.93,3.74,52.88,3.74,53.64,3.74.76,0,26.71,0,53.64-3.74,26.84-3.75,65.08-11.98,95.24-30.5l2.97-1.83-.45,3.45Z"/>
      <path class="cls-2" d="m58.49,70.39c1.27,8.48,4.39,13.15,7.66,18.94-.46.45-.86,2.23-.5,3.75,1.42,5.87,4.9,9.87,7.34,12.66.02,0,.03,0,.05,0,0,.04-.87,1.37-.51,4.17.8,6.28,7.47,11.91,7.48,11.94.62,5.56,4.72,11,5.99,12.49,1.27,1.48,3.63,2.68,5.31,2.64,1.24,3.68,2.41,7.54,4.21,10.25,1.27,1.91,2.52,3.14,3.76,3.83-.58.09-1.17.23-1.82.42h-.34c-9.21,4.03-16.16,4.48-25.04,10.43.11,3.06.76,8.1,4.01,10.01l-1.91.95.19,3.05,5.89-2.92,15.78,33.9,6.33,4.62.05-7.81-17.58-32.99,5.53-2.74-2.5-1.91-1.04.52c.82-1.24.57-2.97,1.73-3.41,5.77-2.21,5.99.21,12,.85,1.55.16,4.39-.1,6.41.26,1.73.3,4.7,1.39,7.18,2.59,5.02,2.43,8.9,1.51,11.05,6.37.21,3.54,2.43,9.54,3.46,13.16.95,3.34.77,7.24,2.28,10.56,3.15,6.94,10.41,9.59,8.98,19.99-.38,2.78-2.54,5.34-3.85,7.34-3.04,4.65-5.11,11.51-4.14,18.49.37,3.59-1.32,4.81-.85,8.23,1.1,8.06,11.93,8.8,17.72,12.62.9,3.47,1.27,6.95,3.28,9.17,2.06,2.27,5.32,4.61,8.67,5.29,1.75-5.89-.86-13.03-5.12-14.95,0-3.62-.21-7.01-2.57-8.15-1.7-.29-1.81.95-3.06,1.09.14-4.38.05-5.1-2.93-8.83,1.81-7.09,6.94-7.88,10.25-16.64,2.75,1.54,3.15,4.87,4.61,7.43,1.37,2.39,3.58,4.27,4.93,6.73,1.73,3.15,1.28,7.14,3.31,10.54-.61,4.31.18,5.19,1.87,7.49-.02.52-2.25-.49-2.73.4-1.56,2.53.22,4.54.15,7.18-.09,3.89-3.84,8.44-.72,14.05,5.51-1.58,7.79-7.88,6.17-15.19,2.84-3.37,6.87-3.23,8.75-6.35,2.66-4.41-.83-7.57-1.63-11.95-.72-3.97.85-9.38.27-13.74-1.45-10.78-10.6-18.01-12.14-29.12-.73-5.23.91-8.37,2.83-11.35,3.5,2.75,7.35,5.15,11.11,7.63,2.94,7.24,5.65,7.86,7.8,12.49-.28,2.97-1.76,4.8-1.53,8.25,2.15,2.48,4.58,6.99,8,5.99,1.27,4.04,1.84,8.81,5.36,10.49.16-3.35,1.73-6.47,1.17-9.26-.65-3.24-4.21-5.23-5.3-7.75.18-7.79,1.23-14.01-1.62-19.76-1.79-3.63-4.34-6.45-7.21-8.79-1.74-6.17-4.63-7.29-7.75-10.1-.72-2.54-1.12-4.75-2.19-6.46-.25-.4-.52-.76-.8-1.09.08-.02.15-.04.23-.06,3.78-1.05,7.31-4.51,7.7-5.18,1.64.22,3.28-.49,5.18-1.17,4.33-1.57,6.46-5.18,7.35-8.44,5.13,1.78,11.58-6.25,10.64-10.28,4.12-.3,7.69-1.95,10.77-5.47,2.51-2.86,3.48-6.65,4.65-10.28,3.12-.3,7.1-1.87,9-3.49,1.9-1.62,7.8-7.46,7.26-12.69,0-.03,10.6-6.57,10.17-12.5-.19-2.65-2.21-3.69-2.22-3.73.04,0,.08,0,.1,0,3.65-3.07,8.87-7.45,9.7-13.14.21-1.46-1.06-3.02-2.06-3.34,4.28-5.99,8.16-10.76,8.99-19.15.12-1.26-.27-2.46-.55-2.46-.24,0-1.64,1.48-2.11,1.91-1.3,1.37-2.61,2.73-3.92,4.1-1.59,1.58-3.29,2.83-4.89,4.37-1.06,1.05-2.14,2.1-3.21,3.14-7.03,6.01-12.14,17.85-25.91,19.56-9.75,1.21-16.52,1.04-29.12,2.94-8.34,1.25-30.49,6.62-40.65,25.69-1.92,3.6-2.1,8.1-1.43,11.53.32,1.64,1.09,3.49,1.74,5,.65,1.49,1.93,4.27,2.2,5.97.82,5.19.49,7.48-2.42,10.75-.84.95-1.77,1.86-2.64,2.79-.08-.03-.16-.05-.24-.07,1.22-2.52,1.85-5.34,1.78-8.26-.2-9.32-7.27-16.79-15.96-16.62-4.19.09-8.08,1.96-10.96,5.25-1.86,2.12-3.13,4.68-3.77,7.45-.91-.45-1.59-1.31-1.74-3.1-.15-1.81,4.94-10.58,5.02-12.22.08-1.66.16-3.69.04-5.45-.24-3.68-1.08-8.39-2.74-11.94-5.91-12.61-13.76-16.26-18.34-16.62-6.92-.54-13.04-.72-19.5-3.37-8.8-3.6-15.81-14.08-20.52-19.57-.73-.98-1.48-1.95-2.22-2.93-1.1-1.44-2.21-2.55-3.32-4.03-.92-1.28-1.96-2.5-2.88-3.78-.32-.4-.87-1.19-1.03-1.06-.09.07.08,1.19.21,2m93.24,93.04c-.34-.22-.65-.45-.92-.72,2.12-17.17-16.66-18.77-20.13-9.05-.69-.37-1.49-.5-2.31-.6.54-2.28,1.6-4.39,3.12-6.13,2.33-2.67,5.46-4.17,8.81-4.25.23,0,.46,0,.68,0,6.72.25,12.11,6.28,12.27,13.73.06,2.49-.49,4.88-1.53,7"/>
      <path class="cls-2" d="m87.12,63.16c.32.05.52.15.6.23.42.41.26,1.03.31,2.09.05,1.21,0,2.25,0,7.96v5.49c0,5.43,1.54,8.22,3.6,9.94,2.95,2.48,8.26,2.53,10.4,2.53,2.63,0,5.79-.43,8.66-2.72,3.39-2.7,3.84-7.14,3.84-11.3v-4.02c0-5.71,0-6.76.08-7.96.09-1.31.41-1.95,1.5-2.13.48-.08.48-.11.92-.11.48,0,.73-.07.73-.34s-.28-.33-.85-.33c-1.58,0-4.12.11-4.61.11-.04,0-2.58-.11-4.65-.11-.57,0-.85.07-.85.33s.24.34.69.34.88.03,1.21.11c1.33.26,1.66.86,1.74,2.13.08,1.21.08,2.26.08,7.96v4.69c0,3.86-.12,7.25-2.34,9.31-1.62,1.51-3.55,2.04-5.33,2.04-1.37,0-2.92-.15-4.74-1.54-1.98-1.5-3.15-3.79-3.15-9.24v-5.25c0-5.71,0-6.76.08-7.96.08-1.31.4-1.95,1.5-2.14.48-.08.41-.12.86-.12.4,0,.64-.07.64-.34s-.28-.33-.89-.33c-1.46,0-4,.11-4.98.11-1.21,0-3.48-.11-5.62-.11-.51,0-.62.17-.62.3,0,.25.9.33,1.2.37m36.65,24.23c3.61,2.91,8.17,4.02,13.6,4.02,2.54,0,5.55-.26,7.14-.85.67-.26.84-.44,1.04-1.07.39-1.25.86-4.46.86-4.9,0-.3-.08-.55-.35-.55-.32,0-.4.15-.51.74-.16.66-.61,2.19-1.28,2.89-1.59,1.69-1.85,1.76-5.39,1.76-5.31,0-12.49-4.35-12.49-13.12,0-3.57.75-7.07,3.65-9.54,1.75-1.48,3.15-2.28,6.61-2.28,3.65,0,5.65.83,6.95,2.12.99.96,1.51,2.24,1.55,3.39,0,.51.08.8.4.8.35,0,.43-.29.47-.84.08-.74.04-2.76.12-3.98.08-1.29.2-1.74.2-2.03,0-.22-.16-.4-.6-.44-1.19-.11-2.46-.44-3.96-.62-1.83-.23-3.3-.36-5.75-.36-5.91,0-9.68,1.47-12.54,3.9-3.81,3.24-4.63,7.59-4.63,10.09,0,3.58,1.03,7.7,4.92,10.87m59.53,3.96c1.28,0,3.2-.11,3.95-.11s2.51.11,4.18.11c.61,0,.96-.07.96-.41,0-.19-.29-.26-.61-.26-.4,0-.95-.04-1.67-.18-.68-.15-1.19-.48-1.19-1.19,0-.59.04-1.07.12-1.74l1.98-14.05c1.41,2.79,3.49,6.85,3.82,7.58.47,1.03,3.62,6.7,4.58,8.4.64,1.11.99,1.75,1.56,1.75s.97-.27,1.88-2.01l8.69-16.8h.16l2.39,16.29c.16,1.03.04,1.52-.2,1.59-.28.11-.44.22-.44.41,0,.22.23.33,1.15.41,1.6.11,7.1.22,8.09.22.55,0,1.03-.11,1.03-.41,0-.22-.28-.26-.64-.26-.52,0-.73-.11-1.88-.44-1.2-.34-1.59-1.41-1.95-3.74l-3.62-22.88c-.11-.71-.55-1.11-.99-1.13-.35-.02-.88.35-1.2.94l-10.61,20.57-10.88-20.88c-.43-.53-.83-.62-1.14-.62-.1,0-.71.02-1,.72l-3.95,24.13c-.2,1.26-.36,2.98-1.47,3.2-.6.11-.88.11-1.19.11-.4,0-.64.07-.64.26,0,.34.32.41.71.41m-34.15-.01c2.07,0,4.25-.12,4.69-.12,1.24,0,2.95.12,4.22.12.44,0,.68-.07.68-.37,0-.22-.12-.3-.59-.3h-.61c-1.23,0-1.59-.48-1.59-1.15,0-.44.24-1.29.63-2.22l1.53-3.21c.55-.79,1.33-1.07,1.67-1.14.24-.05,7.48.01,7.48,0,.62.13,1.52.96,1.6,1.15l2.67,5.67c.2.45-.08.78-.36.85-.4.03-.56.11-.56.33,0,.25.48.25,1.19.3,3.2.07,6.1.07,7.53.07s1.84-.07,1.84-.37c0-.26-.2-.3-.52-.3-.48,0-.59,0-1.2-.11-.84-.19-2-.71-3.5-4.04-2.55-5.63-8.85-20.75-9.88-22.76-.54-1.05-.9-1.21-1.25-1.25-.16-.03-1.05,0-1.53,1.08l-10,23.24c-.8,1.85-1.37,3.54-3.2,3.76-.32.04-.88.07-1.24.07-.32,0-.48.08-.48.3,0,.3.25.37.77.37m10.31-11.72l3.91-9.16c.04-.14.12-.33.24-.33s.15.19.22.33l3.39,9.14c.17.38-.11.79-.42.81-1.91.13-5.65.12-7.04.01-.41-.02-.42-.39-.3-.81"/>
    </g>
  </g>
</svg>