<?xml version="1.0" encoding="UTF-8"?>
<svg id="Layer_2" data-name="Layer 2" xmlns="http://www.w3.org/2000/svg" viewBox="0 0 218.9 255.83">
  <defs>
    <style>
      .cls-1, .cls-2, .cls-3, .cls-4, .cls-5, .cls-6, .cls-7, .cls-8, .cls-9, .cls-10, .cls-11, .cls-12, .cls-13, .cls-14, .cls-15, .cls-16, .cls-17, .cls-18, .cls-19, .cls-20, .cls-21, .cls-22, .cls-23, .cls-24, .cls-25, .cls-26, .cls-27, .cls-28, .cls-29, .cls-30, .cls-31, .cls-32, .cls-33, .cls-34, .cls-35, .cls-36, .cls-37, .cls-38, .cls-39, .cls-40, .cls-41, .cls-42, .cls-43, .cls-44, .cls-45, .cls-46, .cls-47, .cls-48, .cls-49, .cls-50, .cls-51, .cls-52, .cls-53, .cls-54, .cls-55, .cls-56, .cls-57, .cls-58, .cls-59, .cls-60, .cls-61, .cls-62, .cls-63, .cls-64, .cls-65, .cls-66, .cls-67, .cls-68, .cls-69, .cls-70, .cls-71, .cls-72, .cls-73, .cls-74, .cls-75, .cls-76, .cls-77, .cls-78, .cls-79, .cls-80, .cls-81, .cls-82, .cls-83, .cls-84, .cls-85, .cls-86, .cls-87, .cls-88, .cls-89, .cls-90, .cls-91, .cls-92, .cls-93, .cls-94, .cls-95, .cls-96, .cls-97, .cls-98, .cls-99, .cls-100, .cls-101, .cls-102, .cls-103, .cls-104, .cls-105, .cls-106, .cls-107, .cls-108, .cls-109, .cls-110, .cls-111, .cls-112, .cls-113, .cls-114, .cls-115, .cls-116, .cls-117, .cls-118, .cls-119, .cls-120, .cls-121, .cls-122, .cls-123, .cls-124, .cls-125, .cls-126, .cls-127, .cls-128, .cls-129, .cls-130, .cls-131, .cls-132, .cls-133, .cls-134, .cls-135, .cls-136, .cls-137, .cls-138, .cls-139, .cls-140, .cls-141, .cls-142, .cls-143, .cls-144, .cls-145, .cls-146, .cls-147, .cls-148, .cls-149, .cls-150, .cls-151, .cls-152, .cls-153, .cls-154, .cls-155, .cls-156, .cls-157, .cls-158, .cls-159, .cls-160, .cls-161, .cls-162, .cls-163, .cls-164, .cls-165, .cls-166, .cls-167, .cls-168, .cls-169, .cls-170, .cls-171, .cls-172, .cls-173, .cls-174, .cls-175, .cls-176, .cls-177, .cls-178, .cls-179, .cls-180, .cls-181, .cls-182, .cls-183, .cls-184, .cls-185, .cls-186, .cls-187, .cls-188, .cls-189, .cls-190, .cls-191, .cls-192, .cls-193, .cls-194, .cls-195, .cls-196, .cls-197, .cls-198, .cls-199, .cls-200, .cls-201, .cls-202, .cls-203, .cls-204, .cls-205, .cls-206, .cls-207, .cls-208, .cls-209, .cls-210, .cls-211, .cls-212, .cls-213, .cls-214, .cls-215, .cls-216, .cls-217, .cls-218, .cls-219, .cls-220, .cls-221, .cls-222, .cls-223, .cls-224, .cls-225, .cls-226, .cls-227, .cls-228, .cls-229, .cls-230, .cls-231, .cls-232, .cls-233, .cls-234, .cls-235, .cls-236, .cls-237, .cls-238, .cls-239, .cls-240, .cls-241, .cls-242, .cls-243, .cls-244, .cls-245, .cls-246, .cls-247, .cls-248, .cls-249, .cls-250, .cls-251, .cls-252, .cls-253, .cls-254, .cls-255, .cls-256, .cls-257, .cls-258, .cls-259, .cls-260, .cls-261, .cls-262, .cls-263, .cls-264, .cls-265, .cls-266 {
        stroke-width: 0px;
      }

      .cls-2 {
        fill: #f7f8fb;
      }

      .cls-3 {
        fill: #f7f9fb;
      }

      .cls-4 {
        fill: #f2ede0;
      }

      .cls-5 {
        fill: #fad810;
      }

      .cls-6 {
        fill: #f4c60f;
      }

      .cls-7 {
        fill: #f9fafc;
      }

      .cls-8 {
        fill: #f8f9fb;
      }

      .cls-9 {
        fill: #f8f8f8;
      }

      .cls-10 {
        fill: #534b3b;
      }

      .cls-11 {
        fill: #5ec8ac;
      }

      .cls-12 {
        fill: #602e0b;
      }

      .cls-13 {
        fill: #765d07;
      }

      .cls-14 {
        fill: #4b5520;
      }

      .cls-15 {
        fill: #5cc4ad;
      }

      .cls-16 {
        fill: #5e491b;
      }

      .cls-17 {
        fill: #5e481b;
      }

      .cls-18 {
        fill: #528474;
      }

      .cls-19 {
        fill: #60641e;
      }

      .cls-20 {
        fill: #4f591e;
      }

      .cls-21 {
        fill: #4f581e;
      }

      .cls-22 {
        fill: #836518;
      }

      .cls-23 {
        fill: #7c7577;
      }

      .cls-24 {
        fill: #4f96a8;
      }

      .cls-25 {
        fill: #5175b3;
      }

      .cls-26 {
        fill: #4ca89a;
      }

      .cls-27 {
        fill: #312f33;
      }

      .cls-28 {
        fill: #2653a4;
      }

      .cls-29 {
        fill: #4dac9d;
      }

      .cls-30 {
        fill: #2d3037;
      }

      .cls-31 {
        fill: #2c2c2c;
      }

      .cls-32 {
        fill: #808081;
      }

      .cls-33 {
        fill: #867963;
      }

      .cls-34 {
        fill: #9b6a1d;
      }

      .cls-35 {
        fill: #9a790d;
      }

      .cls-36 {
        fill: #538a94;
      }

      .cls-37 {
        fill: #545454;
      }

      .cls-38 {
        fill: #54513f;
      }

      .cls-39 {
        fill: #464646;
      }

      .cls-40 {
        fill: #86887e;
      }

      .cls-41 {
        fill: #6f4e1a;
      }

      .cls-42 {
        fill: #a41b11;
      }

      .cls-43 {
        fill: #954b00;
      }

      .cls-44 {
        fill: #a3a3a7;
      }

      .cls-45 {
        fill: #262626;
      }

      .cls-46 {
        fill: #36bbc1;
      }

      .cls-47 {
        fill: #262a34;
      }

      .cls-48 {
        fill: #3c63ad;
      }

      .cls-49 {
        fill: #83837a;
      }

      .cls-50 {
        fill: #1b1a19;
      }

      .cls-51 {
        fill: #1c4ca0;
      }

      .cls-52 {
        fill: #181818;
      }

      .cls-53 {
        fill: #1b1111;
      }

      .cls-54 {
        fill: #0d409b;
      }

      .cls-55 {
        fill: #0d419b;
      }

      .cls-56 {
        fill: #0c3098;
      }

      .cls-57 {
        fill: #0d2051;
      }

      .cls-58 {
        fill: #0c2e97;
      }

      .cls-59 {
        fill: #412300;
      }

      .cls-60 {
        fill: #0d6181;
      }

      .cls-61 {
        fill: #19479e;
      }

      .cls-62 {
        fill: #0e429b;
      }

      .cls-63 {
        fill: #1d4b8a;
      }

      .cls-64 {
        fill: #08419c;
      }

      .cls-65 {
        fill: #063ea3;
      }

      .cls-66 {
        fill: #063795;
      }

      .cls-67 {
        fill: #073896;
      }

      .cls-68 {
        fill: #11449c;
      }

      .cls-69 {
        fill: #0959b7;
      }

      .cls-70 {
        fill: #15529b;
      }

      .cls-71 {
        fill: #15479e;
      }

      .cls-72 {
        fill: #1551a9;
      }

      .cls-73 {
        fill: #14429b;
      }

      .cls-74 {
        fill: #080808;
      }

      .cls-75 {
        fill: #093d99;
      }

      .cls-76 {
        fill: #083c98;
      }

      .cls-77 {
        fill: #083a97;
      }

      .cls-78 {
        fill: #2154af;
      }

      .cls-79 {
        fill: #2259b8;
      }

      .cls-80 {
        fill: #2156b3;
      }

      .cls-81 {
        fill: #222534;
      }

      .cls-82 {
        fill: #1e499f;
      }

      .cls-83 {
        fill: #1e4ca0;
      }

      .cls-84 {
        fill: #1e4ea1;
      }

      .cls-85 {
        fill: #103d99;
      }

      .cls-86 {
        fill: #12419b;
      }

      .cls-87 {
        fill: #0f5c7e;
      }

      .cls-88 {
        fill: #18459d;
      }

      .cls-89 {
        fill: #1655ae;
      }

      .cls-90 {
        fill: #17489f;
      }

      .cls-91 {
        fill: #16489e;
      }

      .cls-92 {
        fill: #1451a8;
      }

      .cls-93 {
        fill: #13469d;
      }

      .cls-94 {
        fill: #13469e;
      }

      .cls-95 {
        fill: #13459d;
      }

      .cls-96 {
        fill: #e38e8f;
      }

      .cls-97 {
        fill: #d2b515;
      }

      .cls-98 {
        fill: #ce0e0d;
      }

      .cls-99 {
        fill: #d18079;
      }

      .cls-100 {
        fill: #cbe6db;
      }

      .cls-101 {
        fill: #cf100d;
      }

      .cls-102 {
        fill: #ccaf19;
      }

      .cls-103 {
        fill: #ccc1b9;
      }

      .cls-104 {
        fill: #e2060c;
      }

      .cls-105 {
        fill: #dfedd9;
      }

      .cls-106 {
        fill: #dfe8d3;
      }

      .cls-107 {
        fill: #db0d0d;
      }

      .cls-108 {
        fill: #d7d8ce;
      }

      .cls-109 {
        fill: #af8f1d;
      }

      .cls-110 {
        fill: #ac8824;
      }

      .cls-111 {
        fill: #c6b618;
      }

      .cls-112 {
        fill: #c6ccc6;
      }

      .cls-113 {
        fill: #df080c;
      }

      .cls-114 {
        fill: #c8c7bd;
      }

      .cls-115 {
        fill: #c8d2cd;
      }

      .cls-116 {
        fill: #d90000;
      }

      .cls-117 {
        fill: #e3060f;
      }

      .cls-118 {
        fill: #deebe4;
      }

      .cls-119 {
        fill: #d6696c;
      }

      .cls-120 {
        fill: #ae1611;
      }

      .cls-121 {
        fill: #af0000;
      }

      .cls-122 {
        fill: #d90c0d;
      }

      .cls-123 {
        fill: #d7898c;
      }

      .cls-124 {
        fill: #bbd6d7;
      }

      .cls-125 {
        fill: #bfd9d4;
      }

      .cls-126 {
        fill: #c0a610;
      }

      .cls-127 {
        fill: #c0b130;
      }

      .cls-128 {
        fill: #bca010;
      }

      .cls-129 {
        fill: #ad9b2c;
      }

      .cls-130 {
        fill: #a48727;
      }

      .cls-131 {
        fill: #b18629;
      }

      .cls-132 {
        fill: #a58e1d;
      }

      .cls-133 {
        fill: #b28e2a;
      }

      .cls-134 {
        fill: #aa1706;
      }

      .cls-135 {
        fill: #ceeaea;
      }

      .cls-136 {
        fill: #d11c11;
      }

      .cls-137 {
        fill: #86454a;
      }

      .cls-138 {
        fill: #b8d4d5;
      }

      .cls-139 {
        fill: #9e6c12;
      }

      .cls-140 {
        fill: #9d9b1b;
      }

      .cls-141 {
        fill: #9f2d14;
      }

      .cls-142 {
        fill: #914400;
      }

      .cls-143 {
        fill: #90828f;
      }

      .cls-144 {
        fill: #8cb019;
      }

      .cls-145 {
        fill: #c44b3b;
      }

      .cls-146 {
        fill: #8f8974;
      }

      .cls-147 {
        fill: #937d23;
      }

      .cls-148 {
        fill: #91781a;
      }

      .cls-149 {
        fill: #916e21;
      }

      .cls-150 {
        fill: #b76264;
      }

      .cls-151 {
        fill: #916009;
      }

      .cls-152 {
        fill: #b4a813;
      }

      .cls-153 {
        fill: #73541a;
      }

      .cls-154 {
        fill: #737370;
      }

      .cls-155 {
        fill: #73600f;
      }

      .cls-156 {
        fill: #315368;
      }

      .cls-157 {
        fill: #bc5254;
      }

      .cls-158 {
        fill: #8d8279;
      }

      .cls-159 {
        fill: #977225;
      }

      .cls-160 {
        fill: #9b2512;
      }

      .cls-161 {
        fill: #987723;
      }

      .cls-162 {
        fill: #6b4e1d;
      }

      .cls-163 {
        fill: #0159ba;
      }

      .cls-164 {
        fill: #9c7b19;
      }

      .cls-165 {
        fill: #a1a199;
      }

      .cls-166 {
        fill: #a17417;
      }

      .cls-167 {
        fill: #9f751d;
      }

      .cls-168 {
        fill: #9fb630;
      }

      .cls-169 {
        fill: #876b1a;
      }

      .cls-170 {
        fill: #86661d;
      }

      .cls-171 {
        fill: #fdfaef;
      }

      .cls-172 {
        fill: #fdfdfd;
      }

      .cls-173 {
        fill: #febabf;
      }

      .cls-174 {
        fill: #feb8bc;
      }

      .cls-175 {
        fill: #feb5b9;
      }

      .cls-176 {
        fill: #fdfcf0;
      }

      .cls-177 {
        fill: #6a5b63;
      }

      .cls-178 {
        fill: #6c3c18;
      }

      .cls-179 {
        fill: #925b1b;
      }

      .cls-180 {
        fill: #7e8593;
      }

      .cls-181 {
        fill: #7e820c;
      }

      .cls-182 {
        fill: #745a1b;
      }

      .cls-183 {
        fill: #817700;
      }

      .cls-184 {
        fill: #744016;
      }

      .cls-185 {
        fill: #818997;
      }

      .cls-186 {
        fill: #734117;
      }

      .cls-187 {
        fill: #ececec;
      }

      .cls-188 {
        fill: #eceae7;
      }

      .cls-189 {
        fill: #f5000c;
      }

      .cls-190 {
        fill: #e3d6c5;
      }

      .cls-191 {
        fill: #ec030b;
      }

      .cls-192 {
        fill: #e4e7e7;
      }

      .cls-193 {
        fill: #fedc0f;
      }

      .cls-194 {
        fill: #e5e7e7;
      }

      .cls-195 {
        fill: #e5e5e5;
      }

      .cls-196 {
        fill: #fbfbfd;
      }

      .cls-197 {
        fill: #fbfbfb;
      }

      .cls-198 {
        fill: #fefefe;
      }

      .cls-199 {
        fill: #fefcf0;
      }

      .cls-200 {
        fill: #eaeae9;
      }

      .cls-201 {
        fill: #ebeae9;
      }

      .cls-202 {
        fill: #ef000a;
      }

      .cls-203 {
        fill: #ef000c;
      }

      .cls-204 {
        fill: #ebfcfe;
      }

      .cls-205 {
        fill: #fe0006;
      }

      .cls-206 {
        fill: #fe0000;
      }

      .cls-207 {
        fill: #fe0005;
      }

      .cls-208 {
        fill: #fe000e;
      }

      .cls-209 {
        fill: #fcfcfb;
      }

      .cls-210 {
        fill: #fcfcfd;
      }

      .cls-211 {
        fill: #fcfcfc;
      }

      .cls-212 {
        fill: #fcfaef;
      }

      .cls-213 {
        fill: #f90010;
      }

      .cls-214 {
        fill: #f5f7fa;
      }

      .cls-215 {
        fill: #e7e7e7;
      }

      .cls-216 {
        fill: #eb7478;
      }

      .cls-217 {
        fill: #ed080b;
      }

      .cls-218 {
        fill: #002c90;
      }

      .cls-219 {
        fill: #00298d;
      }

      .cls-220 {
        fill: #00236b;
      }

      .cls-221 {
        fill: #003092;
      }

      .cls-222 {
        fill: #003695;
      }

      .cls-223 {
        fill: #002f92;
      }

      .cls-224 {
        fill: #002f91;
      }

      .cls-225 {
        fill: #003496;
      }

      .cls-226 {
        fill: #003494;
      }

      .cls-227 {
        fill: #002e90;
      }

      .cls-228 {
        fill: #003594;
      }

      .cls-229 {
        fill: #053a97;
      }

      .cls-230 {
        fill: #053594;
      }

      .cls-231 {
        fill: #0459b8;
      }

      .cls-232 {
        fill: #023697;
      }

      .cls-233 {
        fill: #030304;
      }

      .cls-234 {
        fill: #030303;
      }

      .cls-235 {
        fill: #023796;
      }

      .cls-236 {
        fill: #023594;
      }

      .cls-237 {
        fill: #023393;
      }

      .cls-238 {
        fill: #0342ad;
      }

      .cls-239 {
        fill: #033092;
      }

      .cls-240 {
        fill: #004cc3;
      }

      .cls-241 {
        fill: #0041a4;
      }

      .cls-242 {
        fill: #0041b0;
      }

      .cls-243 {
        fill: #0259b8;
      }

      .cls-244 {
        fill: #0049be;
      }

      .cls-245 {
        fill: #003ab8;
      }

      .cls-246 {
        fill: #0046b3;
      }

      .cls-247 {
        fill: #0047b7;
      }

      .cls-248 {
        fill: #060606;
      }

      .cls-249 {
        fill: #6a531d;
      }

      .cls-250 {
        fill: #00146a;
      }

      .cls-251 {
        fill: #00106f;
      }

      .cls-252 {
        fill: #000872;
      }

      .cls-253 {
        fill: #000e69;
      }

      .cls-254 {
        fill: #001583;
      }

      .cls-255 {
        fill: #000d69;
      }

      .cls-256 {
        fill: #000d64;
      }

      .cls-257 {
        fill: #020202;
      }

      .cls-258 {
        fill: #043192;
      }

      .cls-259 {
        fill: #001c87;
      }

      .cls-260 {
        fill: #001e65;
      }

      .cls-261 {
        fill: #001e88;
      }

      .cls-262 {
        fill: #043797;
      }

      .cls-263 {
        fill: #0155b4;
      }

      .cls-264 {
        fill: #013393;
      }

      .cls-265 {
        fill: #013394;
      }

      .cls-266 {
        fill: #0140a3;
      }
    </style>
  </defs>
  <g id="Layer_1-2" data-name="Layer 1">
    <g>
      <path class="cls-195" d="m95.31,255.83c-6.5-3-13.73-3.23-20.46-5.56-26.94-9.29-47.41-26.12-61.3-50.99-7.79-13.95-12.26-28.79-13.27-44.84-2.73-43.38,15.01-76.54,50.24-100.7,6.83-4.69,11.97-8.24,13.81-17.69,3.81-19.49,17.07-31.23,36.79-35.19.43-.09.79-.56,1.18-.85,4.66,0,9.33,0,13.99,0,8.28,2.4,16.31,5.17,23.04,10.96,8.95,7.7,14.4,17.21,15.92,28.91.52,4.01,1.24,7.25,5.54,9.58,21.36,11.57,37.51,28.32,47.84,50.41,5.44,11.64,8.44,23.92,9.74,36.8,2.06,20.43-1.92,39.64-10.66,57.83-7.56,15.76-18.57,28.99-32.71,39.49-15.25,11.32-32.29,18.18-51.04,20.92-.59.09-1.12.6-1.67.92h-2c-2.33-.82-4.66-.82-6.99,0h-7.99c-2.66-.84-5.33-.84-7.99,0h-2Z"/>
      <path class="cls-187" d="m97.31,255.83c2.66-1.55,5.33-1.54,7.99,0h-7.99Z"/>
      <path class="cls-187" d="m113.3,255.83c2.33-1.57,4.66-1.58,6.99,0h-6.99Z"/>
      <path class="cls-84" d="m78.33,246.96c-11.82-3.7-22.23-10.11-32.44-16.91-10.58-7.04-18.23-16.79-25.14-27.21-.73-1.1-1.5-2.17-2.26-3.25-2.41-1.37-2.67-4.11-3.97-6.19-2.02-5.83-4.16-11.62-6.03-17.5-.93-2.94-1.35-6.04-2-9.06.75-1.91-.54-3.75-.17-5.65-1.86-10.75-2.41-21.49.12-32.22-.82-5.5,1.49-10.42,2.99-15.45,3.78-12.68,9.84-24.55,18.56-34.18,10.67-11.79,22.69-22.54,37.66-29.11.28-.41.62-.43,1-.14.78,1.23,1.12,2.69,2.09,3.83.17.4.27.82.31,1.25-.24,1.98.19,3.79,1.45,5.37.2.38.32.79.38,1.21-.07,1.48.43,2.81,1.07,4.1.42,1.17,1.1,2.16,1.95,3.06.9,1.23,1.8,2.47,2.31,3.93.68,3.12,2.74,5.02,5.54,6.26.88.45,1.65,1.03,2.23,1.84.8,1.35,1.38,2.73.57,4.29-2.46,2.55-5.66,4.03-8.66,5.72-17.11,9.62-25.94,24.88-30.07,43.46-.39,1.74.26,4.19-2.52,4.71-.65-.75-.31-1.68-.45-2.77-.27,1.97.69,3.63.32,5.37-.37,1.36-.56,2.74-.53,4.14-.03,1.4.11,2.78.51,4.13.35,1.77-.36,3.4-.47,4.41-.36,1.33-.46.53.18.74.15-.83-.23-1.79.59-2.46,1.51.14,1.84,1.32,1.98,2.46,1.3,10.61,5.64,20,11.33,28.88.53.83.91,1.77,1.26,2.69.52,2.02,1.67,3.56,3.51,4.58.9.66,1.67,1.44,2.33,2.33.99,1.77,2.42,3.01,4.42,3.52,9.02,5.65,18.7,9.89,28.67,13.52,1.97,1.47,4.02.69,6.06.19,2.06-.39,4.13-.38,6.2-.36,2.06-.02,4.12-.05,6.15.32,1.11.22,2.16.61,3.17,1.13.56.29,1.17.4,1.77.59-.12-.72-1.33-.11-1.27-1.06.51-1.55,1.91-1.74,3.18-1.96,10.32-1.78,19.07-7.11,27.93-12.19,1.93-.7,3.51-1.85,4.56-3.66.57-.71,1.26-1.27,2-1.78,2.27-1.32,3.38-3.46,4.12-5.87,5.74-9.71,11.15-19.53,12.38-31.04.12-1.13.52-2.33,2.1-2.24.61,1.07.5,2.2.31,3.17.5-1.45-.09-3.06-.16-4.68.36-1.68.54-3.38.48-5.1.02-1.41-.07-2.81-.48-4.17-.53-1.76.59-3.42.31-5.3.02-.53-.97.25-.31.19.19-.02.27.12.27.42,0,.66-.02,1.32-.48,1.87-2.37-.28-2.08-2.3-2.33-3.8-1.98-11.71-6.93-22.13-14.32-31.28-5.89-7.29-13.31-12.82-22.04-16.45-1.8-.75-3.88-1.14-4.74-3.28,0-3.09,2.39-4.03,4.6-5.12,2.41-.71,4.13-2.17,4.95-4.6.71-1.84,1.78-3.48,2.87-5.11.83-1.25,1.73-2.45,2.39-3.8.73-1.31,1.3-2.69,1.72-4.13.59-2.05,1.68-3.99,1.35-6.23-.04-.44,0-.87.07-1.3.49-1.45,1.07-2.86,2.14-4,.42-.28.76-.19,1.05.21,7.99,3.86,15.99,8.22,22.45,13.98,19.06,16.99,33.36,37.2,37.11,63.35.06.44-.24.94-.37,1.41,2.24,10.75,2.52,21.48-.28,32.17-.06,1.91-.5,3.83.24,5.7-.91,7.46-3.57,14.39-6.41,21.27-.74,1.8-2.05,3.46-1.51,5.61-1.49,1.87-2.08,4.36-4.07,5.89-3.76,5.42-6.73,11.7-11.49,16.03-5.87,5.34-11.24,11.22-18.22,15.65-9.2,5.83-18.26,11.52-28.6,15.03-.55.19-.94.82-1.41,1.25-1.79.48-3.58.95-5.43,1.11-3.01-.52-5.6,2.43-8.72,1.03-1.59-.66-3.1.8-4.69.16-1.82-.11-3.6,0-5.24.91-.34.01-.68.02-1.01.03-4.06-1.16-8.2-.19-12.29-.51-1.85.19-3.62-.65-5.47-.46-1.74.67-3.43-.65-5.17-.14-3.08.48-5.93-1.8-9.06-.78-1.92,0-3.46-.95-4.97-1.98Z"/>
      <path class="cls-172" d="m131.15,10.93c2.27,1.08,4.36,2.44,6.18,4.18.36.42.49,1,.9,1.39.38.39.73.81,1.14,1.17.37.37.72.76,1.12,1.1.25.25.55.33.9.23.63.99,1.25,1.98,1.88,2.96.14,3.22-2,4.49-4.59,5.36-1.1-.21-2.13-.66-3.17-.91-.26-.01-.49-.15-.65-.39-.11.29.04.43.47.43,1.04.27,2.02.62,2.98,1.03.69.1,1.34.39,1.58,1.02,2.41,6.19,5.3,12.24,6.14,18.94-2.01,3.54-4.76,6.32-8.38,8.22-.72.15-1.4-.11-2.09-.27-.51-.31-1.13-.49-1.49-1.38.46,1.5,1.87,1.36,2.58,2.15,1.46,6.07,2.48,12.03-3.28,16.7-1.31,1.07-1.74,2.77-2.4,4.28-1.05,2.43-2.8,4.39-5.39,4.62-3.62.32-5.04,2.56-6.08,5.48-2.44,1.81-5.27,2.07-8.16,2.07-2.28-.01-4.57.02-6.85-.04-2.05-.09-3.97-.53-5.49-2.06-.94-3.02-2.52-5.28-6.09-5.42-.97-.04-1.98-.52-2.67-1.21-3.59-3.61-6-8.18-8.49-12.46-1.93-3.31-1.43-7.99.18-11.97.37-.32.82-.51,1.25-.73.31-.16.57-.32.89-.29-.54-.6-.69.36-1.12.28-.68.15-1.33.38-2.03.23-3.5-1.79-6.21-4.31-7.62-8.07.72-7.15,2.06-14.11,6.55-20,.21-.25.86.11.86-.56-.23.2-.51.31-.85.31-2.63-.71-4.18-2.5-5.11-4.93-.08-1.23.43-2.11,1.55-2.64.56-.22,1.16-.34,1.6-.8.41-.4.84-.79,1.24-1.22.43-.38.8-.81,1.19-1.22.42-.39.55-.98.92-1.41,2.09-1.41,4.18-2.83,6.27-4.24.98-1.15,2.28-1.95,3.34-3.01.38-.28.8-.46,1.26-.55,2.8,0,4.46,1.48,5.31,4.04.29,1.55,1.9,2.77,1.2,4.58-1.88,1.87-4.96,2.06-6.37,4.58-1.51,2.85-.16,4.84,1.96,6.61.52.43.96.93,1.32,1.51.21.4.34.82.42,1.26.03.43.01.87-.05,1.3-.27,1.31.27,2.45.74,3.62.08.44.02.86-.15,1.28-.48.49-1.08.72-1.73.86-.41.1-.84.17-1.25.24-.4.12-.8.26-1.18.45-.29.37-.49.76-.59,1.23-.2,10.72-.05,21.42-.06,32.12,0,1.81-.08,3.67,1.63,4.92,3.67,3.18,7.98,1.3,12.02,1.51.47-.09.94-.11,1.41-.07,1.73.64,3.5.78,5.32.42,1.65-.11,3.31-.1,4.96-.11,2.34-.02,4.74.31,6.78-1.28,1.01-.65,2.08-1.22,2.72-2.32.68-11.76.2-23.52.34-35.26-.15-.41-.33-.81-.59-1.16-.4-1-.9-.88-1.46-.12-.69.17-1.33.07-1.94-.28-.97-.8-1.39-1.78-1.01-3.03.57-1.13,1.24-2.23,1.26-3.55.02-.41.08-.82.16-1.23.07-.4.19-.79.32-1.17.21-.55.46-1.09.71-1.62.08-.17.17-.34.24-.52.08-.17.17-.34.25-.5.15-.34.31-.67.48-1,.13-.34.27-.68.39-1.03.17-.75.09-1.5.01-2.26.1-1.64-.88-2.67-2.01-3.61-1.14-.99-2.73-1.39-3.64-2.69-.21-1.45.98-2.46,1.18-3.79.74-2.2,2.07-3.7,4.53-3.9.46-.05.91,0,1.36.14,1.47.99,2.79,2.17,4.02,3.45Z"/>
      <path class="cls-234" d="m126.17,7.95c-2.67-.07-3.16,2.06-3.95,3.89-2.22,3.07-5.28,2.64-8.38,2.01-3.04-2.94-5.93-3.63-9.73-.71-2.37,1.82-5.59,1.74-7.74-1.3-.75-2.5-2.06-4.27-5.03-3.93-.21-1.78.94-1.33,1.92-1.17,3.07-.89,6.14-1.77,9.21-2.66.5-.62,1.15-.95,1.94-1.02.5-.03,1-.05,1.5-.05,2.25,0,4.5,0,6.75,0,.5,0,1.01.02,1.51.05.79.07,1.45.4,1.95,1.02,3.07.89,6.14,1.77,9.21,2.66.88-.01,1.29.29.84,1.21Z"/>
      <path class="cls-257" d="m75.43,21.75c1.1,2.14,2.61,3.9,4.72,5.13.96-.5,1.19-.03,1.11.84-2.13.39-2.22,2.34-2.57,3.8-1.33,5.54-4.51,10.6-4.32,16.53-2.02,1.63-4.3,1.89-6.74,1.25-2.11-2.75-1.52-5.64-.43-8.56.23-6.54,3.4-12.05,6.16-17.7.43-.85.92-1.61,2.08-1.29Z"/>
      <path class="cls-234" d="m138.46,26.88c2.11-1.14,3.41-3.07,4.81-4.91,5.48,5.06,7.25,11.73,8.11,18.78,1.12,2.19,1.42,4.37-.16,6.5-1.81,1.09-3.69,1.46-5.71.59-1.82-5.45-3.58-10.93-5.48-16.35-.51-1.45-.57-3.38-2.67-3.76-.09-.88.13-1.35,1.1-.85Z"/>
      <path class="cls-90" d="m6.45,128.96c-.03,6.92-.08,13.85-.06,20.77,0,4.08-.42,8.2.97,12.18-.61.56-1.23.58-1.84,0-.1-1.18-.19-2.36-.29-3.54-1.44-2.6-.98-5.58-1.7-8.32-.23-2.21-.16-4.43-.07-6.65.56-3.28,1.14-6.57.74-9.93-.45-1.21-.36-2.33.55-3.31.36-.53.88-.99.88-1.71.27.17.55.34.82.5Z"/>
      <path class="cls-90" d="m211.24,161.91c1.78-9.92,1.12-19.89.47-29.84-.07-1.13-.72-2.2.44-3.1.26-.16.53-.31.79-.47.34.94.86,1.81,1.15,2.78.15,1.03.12,2.06.13,3.1.07,2.96.32,5.9.9,8.81.12,2.26.16,4.53-.04,6.79-.72,2.77-.27,5.78-1.71,8.4.56,1.55-.55,2.48-1.3,3.54-.27.43-.55.43-.83,0Z"/>
      <path class="cls-188" d="m215.23,136.91c1.6,6.33,1.6,12.66,0,18.99-.8-.21-1.26-.74-1.42-1.54.11-.49.22-.98.33-1.47.87-4.54.82-9.07-.14-13.58-.27-.75-.29-1.5-.1-2.27.4-.46.84-.5,1.32-.13Z"/>
      <path class="cls-188" d="m3.37,155.9c-1.6-6.33-1.6-12.66,0-18.99.48-.37.92-.33,1.32.13.2.76.18,1.52-.09,2.26-.97,4.52-1.01,9.05-.15,13.59.12.49.23.98.34,1.47-.16.81-.61,1.34-1.42,1.55Z"/>
      <path class="cls-50" d="m150.08,47.07c2.14-1.76.55-4.28,1.3-6.32.23.19.47.37.72.52,1.09,2.99.87,6.01.17,9.03-.6,1.29-.66,2.84-1.93,3.79-1.9-2.27-1.83-4.62-.26-7.02Z"/>
      <path class="cls-81" d="m67.18,40.74c.92,2.67-.91,5.7,1.1,8.22,1.38,1.64,1.5,3.28-.02,4.92-2.58-.25-1.67-2.37-2.04-3.81-.49-2.96-.85-5.92.24-8.84.24-.16.48-.32.72-.48Z"/>
      <path class="cls-215" d="m105.32,3.85c-.35.02-.69.04-1.04.05-.52-.6-1.53-.19-1.98-.94,4.67-1.57,9.33-1.57,14,0-.45.75-1.46.34-1.98.94-.35-.02-.7-.04-1.04-.05-2.65-.6-5.3-.6-7.95,0Z"/>
      <path class="cls-209" d="m152.26,50.3c-.06-3.01-.11-6.02-.17-9.03.19-.74.38-1.47.57-2.21.5,3.75,1,7.46.28,11.17,0,0-.35-.03-.35-.03l-.34.1Z"/>
      <path class="cls-209" d="m66.47,41.22c-.08,2.95-.16,5.89-.24,8.84-.19.06-.38.12-.57.16-.73-3.71-.2-7.42.32-11.19.17.73.33,1.46.5,2.18Z"/>
      <path class="cls-225" d="m102.32,249.85c4.31.54,8.79-1.2,12.98.98-4.33.57-8.66.54-12.98-.05-.33-.21-.44-.42-.33-.62.11-.21.22-.31.33-.31Z"/>
      <path class="cls-192" d="m200.1,199.61c.93-2.26,1.56-4.73,4.07-5.89-.8,2.35-.5,5.46-4.07,5.89Z"/>
      <path class="cls-192" d="m14.52,193.4c2.52,1.3,2.42,4.27,3.97,6.19-3.53-.65-3.45-3.61-3.97-6.19Z"/>
      <path class="cls-199" d="m215.23,136.91c-.32,0-.64,0-.96,0-1.02-.79-.09-2.23-1.03-3.05.06-.99.11-1.98.17-2.97.1-.45.36-.77.79-.94,1.96,2.08.61,4.65,1.02,6.96Z"/>
      <path class="cls-215" d="m75.43,21.75c-.69.43-1.38.86-2.08,1.29-1.21-3.72,1.38-3.83,3.85-4.05.45.13.58.41.39.84-.72.64-1.44,1.28-2.16,1.92Z"/>
      <path class="cls-9" d="m93.26,6.74c-.61.44-1.8-.08-1.92,1.17-.04.42-.08.83-.12,1.25-1.26-.14-2.45.8-3.74.25,1.11-2.67,2.79-4.08,5.78-2.67Z"/>
      <path class="cls-9" d="m126.17,7.95c-.28-.4-.56-.8-.84-1.21,2.99-1.41,4.67,0,5.78,2.67-1.6.59-2.59-.46-3.64-1.35-.43-.04-.87-.08-1.3-.12Z"/>
      <path class="cls-199" d="m4.33,136.9c-.32,0-.64.01-.96,0,.41-2.32-.94-4.9,1.05-6.99.35-.4.69-.37,1.03.01-.35.99-1.69,1.75-.72,3.05.05,1.32.54,2.69-.4,3.92Z"/>
      <path class="cls-84" d="m4.29,154.92c0-.35-.01-.69-.02-1.04-.47-1.36-.78-2.71.22-3.98,1.73,2.7.62,5.64.73,8.47-.24-.23-.48-.46-.73-.7-.95-.85-.69-1.79-.21-2.75Z"/>
      <path class="cls-84" d="m214.32,153.88c0,.35-.01.69-.02,1.04.48.96.73,1.9-.21,2.75-.24.23-.48.46-.73.7.11-2.83-1-5.78.73-8.47,1.01,1.28.69,2.63.22,3.98Z"/>
      <path class="cls-262" d="m5.52,161.91c.61,0,1.23,0,1.84,0-.21,1.66.64,3.5-.86,4.93-.37-.65-.74-1.31-1.12-1.96-.58-.6-.54-1.26-.17-1.94.1-.34.2-.69.31-1.03Z"/>
      <path class="cls-39" d="m127.47,8.07c1.21.45,2.43.9,3.64,1.35.01.5.02,1.01.04,1.51-1.64-.42-3.82-.14-3.68-2.86Z"/>
      <path class="cls-194" d="m78.33,246.96c1.97-.13,3.46.96,4.97,1.98-2.32,1-4.01.42-4.97-1.98Z"/>
      <path class="cls-194" d="m134.95,248.69c1.67-1.04,3.32-2.22,5.43-1.11-1.51,1.83-3.36,2.04-5.43,1.11Z"/>
      <path class="cls-39" d="m87.49,9.41c1.22-.55,2.4-1.5,3.74-.25-.97,1.13-2.19,1.72-3.69,1.71-.02-.49-.04-.97-.05-1.46Z"/>
      <path class="cls-176" d="m4.29,154.92c.07.92.14,1.84.21,2.75-.14,1.08-.28,2.15-.42,3.23-.24-.01-.48-.02-.71-.03,0-1.66,0-3.31,0-4.97.31-.33.61-.65.92-.98Z"/>
      <path class="cls-176" d="m214.09,157.67c.07-.92.14-1.83.21-2.75.31.33.61.65.92.98,0,1.66,0,3.32,0,4.98-.24,0-.48,0-.72,0-.14-1.07-.28-2.14-.42-3.22Z"/>
      <path class="cls-55" d="m102.32,249.85c0,.31,0,.62,0,.93-1.32-.04-2.64-.08-3.96-.11-.49-.25-1.07-.36-1.39-.88-.11-.39,0-.71.34-.94,1.67.33,3.34.67,5.01,1Z"/>
      <path class="cls-199" d="m214.21,129.95c-.26.31-.53.63-.79.94-.17-.79-1.54-1.34-.48-2.39.25-.87.49-1.73.73-2.6.18,0,.36,0,.54.01v4.04Z"/>
      <path class="cls-55" d="m116.31,250.8c1.31-1.55,3.04-2.03,4.99-1.95.34.23.45.55.34.94-.32.52-.9.64-1.39.88-1.31.04-2.62.09-3.94.13Z"/>
      <path class="cls-212" d="m212.39,162.91c2.48.44,1.77,2.26,1.68,4.53-.68-1.58-1.11-2.58-1.54-3.57-.66-.23-.7-.54-.14-.95Z"/>
      <path class="cls-171" d="m97.28,251.02c-1.32,1.3-2.97.77-4.5.73-.7-.02-.51-.53-.08-.81.25-.17.6-.2.9-.29,1.33-.92,2.57-.91,3.68.37Z"/>
      <path class="cls-171" d="m125,250.65c.3.09.64.13.9.29.43.28.62.79-.08.81-1.53.04-3.18.57-4.5-.73,1.11-1.28,2.35-1.29,3.68-.37Z"/>
      <path class="cls-199" d="m5.44,129.94c-.34,0-.69,0-1.03-.01,0-1.28,0-2.56,0-5.29.68,2.13.95,2.98,1.22,3.83.54.57.72,1.09-.19,1.47Z"/>
      <path class="cls-25" d="m125,250.65c-1.23.12-2.45.25-3.68.37-.36-.12-.72-.24-1.08-.35.35-.29.7-.58,1.06-.87,1.39-.62,2.76-.78,4.1.13-.13.24-.26.48-.4.72Z"/>
      <path class="cls-172" d="m114.32,3.91c.44-.77,1.2-.89,1.98-.94.74.09,1.47.19,3.49.45-2.11.39-2.89.53-3.66.67-.6-.06-1.21-.12-1.81-.18Z"/>
      <path class="cls-25" d="m97.28,251.02c-1.23-.12-2.46-.25-3.68-.37-.13-.24-.27-.48-.39-.72,1.34-.92,2.71-.75,4.1-.13.35.29.7.58,1.05.87-.36.12-.72.24-1.07.35Z"/>
      <path class="cls-172" d="m102.3,2.97c.79.05,1.54.17,1.98.94-.6.06-1.21.12-1.81.18-.77-.14-1.55-.28-2.37-.43.59-.91,1.46-.55,2.2-.68Z"/>
      <path class="cls-232" d="m125.4,249.93c-1.37-.04-2.73-.09-4.1-.13,0-.32,0-.64,0-.95,1.66.21,3.51-.63,4.94.88-.26.17-.54.24-.84.21Z"/>
      <path class="cls-212" d="m5.22,162.94c.06.65.11,1.29.17,1.94-.06.63-.13,1.26-.25,2.5-1-1.92-1.08-3.2.08-4.44Z"/>
      <path class="cls-232" d="m97.3,249.8c-1.37.04-2.73.09-4.1.13-.31.03-.59-.04-.85-.21,1.43-1.5,3.28-.66,4.95-.87,0,.32,0,.64,0,.95Z"/>
      <path class="cls-262" d="m212.39,162.91c.05.32.09.63.14.95-.14.99-.28,1.99-.43,2.98-1.5-1.43-.66-3.27-.86-4.93.28,0,.55,0,.83,0,.11.33.21.67.32,1Z"/>
      <path class="cls-1" d="m139.34,17.72c-.33-.33-.66-.66-.99-1-.04-.16-.08-.33-.12-.49.95-.24,1.04.34.99,1.05,0,0,.12.44.12.44Z"/>
      <path class="cls-1" d="m80.26,16.73c-.33.33-.66.66-.99.99l.13-.43c-.05-.71.03-1.29.99-1.04l-.12.48Z"/>
      <path class="cls-1" d="m79.39,17.29l-.13.43c-.33.35-.66.7-.99,1.06.03-.21.07-.41.1-.62-.01-.7.13-1.23,1.02-.87Z"/>
      <path class="cls-1" d="m139.34,17.72s-.12-.45-.12-.44c.9-.34,1.03.2,1.02.89.03.2.07.4.1.61-.33-.35-.66-.7-.99-1.06Z"/>
      <path class="cls-1" d="m78.37,18.16c-.04.21-.07.41-.1.62-.23.35-.46.7-.69,1.05,0-.34-.14-.62-.39-.84.17-.59.43-1.06,1.17-.83Z"/>
      <path class="cls-1" d="m138.22,16.24c.05.16.09.33.12.49-.81-.25-1.02-.86-1.01-1.61.81-.03.98.45.89,1.12Z"/>
      <path class="cls-1" d="m80.26,16.73s.12-.48.12-.48c-.08-.67.08-1.15.89-1.13.02.76-.2,1.37-1.01,1.61Z"/>
      <path class="cls-1" d="m140.33,18.78c-.03-.2-.06-.41-.1-.61.75-.24,1,.24,1.16.83-.5.64-.92.89-1.06-.22Z"/>
      <path class="cls-198" d="m57.37,187.76c-5.05-8.87-10.62-17.5-12.43-27.82-.42-2.43-.98-4.83-1.47-7.25-1.01-.82-.41-2.02-.73-3.01-.42-1.44-.49-2.83.5-4.09.5-.38,1.04-.65,1.64-.82,13.63-.94,27.27-.36,40.9-.36,7.62,0,15.29-.9,22.88.68.61.3,1.07.75,1.4,1.34,1,2.2.84,4.56.84,6.87.03,16.96.03,33.92,0,50.88,0,2.62.4,5.38-1.58,7.61-2.34.06-4.69.12-7.03.18-2,.5-3.99.83-5.93-.23-.32-1.22-1.46-1.3-2.35-1.49-9.7-2.11-18.08-6.95-26.14-12.48-2.15-.45-3.19-2.24-4.48-3.72-.73-.73-1.45-1.46-2.18-2.19-1.49-1.16-2.95-2.35-3.81-4.1Z"/>
      <path class="cls-206" d="m109.3,211.78c-.02-21.99-.04-43.97-.06-65.96,1.59-1.55,3.64-1.49,5.62-1.49,18.26-.06,36.53-.06,54.79,0,1.66,0,3.33.09,4.87.83,2,1.23,1.74,3.14,1.51,5.05-.35.82-.1,1.85-.89,2.51-1.83,12.63-6.53,24.1-13.89,34.5-.9,2.22-2.66,3.82-4.13,5.62-.62.4-1.25.81-1.87,1.21-1.3,1.48-2.34,3.26-4.48,3.73-8.73,6.4-18.28,11.01-28.96,13.11-.95.19-1.88.52-2.82.79-.77,1.11-1.72.7-2.66.3-2.34-.06-4.68-.12-7.03-.18Z"/>
      <path class="cls-198" d="m174.95,146.11c-21.9-.1-43.81-.19-65.71-.29,0,0,.12.13.12.13-1.18-1.3-1.58-2.9-1.59-4.58-.08-16.04-.22-32.08.07-48.13.02-.83.23-1.63.52-2.41.37-.89,1.02-1.47,1.95-1.72,2.95-.47,5.96-.65,8.83-1.56,4.31-1.18,7.84-5.14,12.91-3.64,2.34,1.18,4.65,2.41,7.02,3.54,20.49,9.77,30.86,26.89,35.21,48.41.23,1.12.53,2.23.8,3.35,1.04.62.51,1.67.69,2.53.38,1.14.57,2.29.2,3.48-.21.44-.55.75-1.02.92Z"/>
      <path class="cls-206" d="m109.33,90c0,18.65.02,37.3.03,55.95-21.91.06-43.82.13-65.73.19-1.53-.97-1.23-2.41-.98-3.83.47-1-.23-2.32.86-3.14,1.77-8.95,4.34-17.55,8.59-25.76,7.13-13.77,18.91-21.91,32.21-28.51.74-.67,1.38-1.47,2.42-1.7,4.64.05,8.38,2.76,12.52,4.29,1.6.8,3.3,1.09,5.08.99,1.62.66,3.65-.04,4.99,1.52Z"/>
      <path class="cls-210" d="m200.73,156.81c-4.86-1.59-9.84-.4-14.75-.56-2.71-.09-3.81-.65-3.72-3.6.2-6.79.21-13.6,0-20.4-.09-3,1.07-3.71,3.76-3.5,2.47.19,4.97.04,7.46.04,9.16.02,11.33,1.51,14.74,10.12,1.54,2.67,1.4,5.33-.08,7.97l-2.95,5.88c-.86,2.04-2.9,2.78-4.45,4.05Z"/>
      <path class="cls-196" d="m28.53,147.24c1.45-5.04.65-10.2.56-15.29-.06-3.77,2.04-3.34,4.41-3.39,2.48-.04,4.66-.17,4.27,3.48-.67,6.22,1.07,12.58-1.34,18.73-1.08,2.75-2.93,4.14-5.6,4.89-4.28,1.22-8.6,1.07-12.81-.03-4.54-1.19-6.55-4.73-6.84-9.14-.28-4.3.15-8.66-.29-12.94-.45-4.41,1.36-5.32,5.32-5.07,2.61.17,3.32.9,3.38,3.46.12,5.09-.85,10.24.6,15.28.59-.04.97.22,1.14.78,2,3.04,4.02,2.98,6.07.05.31-.36.28-1.2,1.13-.82Z"/>
      <path class="cls-2" d="m170.15,215.37c3.08,3.7,2.58,5.07-2.73,7.45-1.34-1.75-3.09-3.17-4.19-5.11-1.53-1.65-2.91-3.49-4.63-4.91-3.36-2.77-3.36-5.25.05-7.9,1.28-.99,2.42-2.14,3.63-3.22,1.01-1.65,2.58-2.39,4.41-2.71,3.5.36,5.82,1.97,5.82,5.79,0,2.22,1.8,2.38,3.17,2.97,1.63.7,3.35,1.19,5.04,1.78-1.57,4.83-4.85,4.66-8.52,3.45-1.65-.03-2.78.38-2.04,2.39Z"/>
      <path class="cls-7" d="m105.32,223.78c.24,1.28.89,2.31,1.94,3.08,2.05,1.63,3.73,2.33,3.57-1.46-.04-1.01.2-1.9,1.3-2.29,1.88-.29,3.75-.62,5.4.74.45,2.02.29,4.05.09,6.08-.57,2.29-.28,4.61-.32,6.92-.1,5.76-.08,5.76-5.97,5.1-1.04-1.36-2.08-2.73-3.12-4.09-.68-.62-1.42-1.16-2.17-1.65-1.6,1.54.22,4.22-1.89,5.55-4.04.87-5.51-.6-5.09-4.82.45-4.54.24-9.15.31-13.72,2.15-1.57,4.12-1.32,5.94.56Z"/>
      <path class="cls-7" d="m199.25,177.84c.54,2.44-1.18,4.04-2.22,5.89-.83.76-1.79-.63-2.62.15-1.86,1.95-2.51,3.97-.99,6.55,1.11,1.89-.39,3.78-1.47,4.86-1.39,1.39-2.55-.61-3.54-1.54-2.66-2.5-5.12-5.23-7.86-7.64-2.29-2.02-2.92-4.27-1.93-7.08-.1-2.32,1.26-3.07,3.32-3.13,2.57-.08,5.13-.03,7.66.5,2.69.84,5.5.24,8.23.63.54.16,1.01.43,1.42.81Z"/>
      <path class="cls-8" d="m145.92,222.1c.71,1.7,2.51,3.54-.59,4.77-.54,1.01-1.58,1.39-2.44,1.98-.28.19-.64.64-.52.76.97.88,1.74-.25,2.63-.36,1.05-.45,2.15-.5,3.26-.41,1.86.1,2.93,1.32,2.55,2.93-.33,1.44-1.35,2.87-3.27,2.99-.96.06-1.96.16-2.87.46q-8.01,2.57-10.96-4.93c-3.71-9.44-3.67-9.33,6.48-13.38,3.28-1.31,5.31-1.15,5.97,2.71-1.2,1.94-3.58,1.64-5.19,2.77-.19.19-.56.16-.68.49.27,0,.53-.03.81-.11,1.62-.18,3.08-1.44,4.81-.65Z"/>
      <path class="cls-3" d="m81.19,233.63c-.35,1.39-.7,2.79-1.08,4.3-2.28-.92-4.19-1.36-5.35-4.01-.62-1.44-3.04-4.33-6.26-2.1-1.86,1.29-3.86.51-5.13-1.22-1.49-2.03.71-2.91,1.73-3.94,2.31-2.35,5.15-4.24,7.15-6.81,3.23-4.16,6.29-4.51,9.88-.71l.05.48c-1.05,3.36-.83,6.82-.77,10.27.49,1.28.82,2.55-.21,3.75Z"/>
      <path class="cls-197" d="m150.08,47.07c.09,2.34.17,4.68.26,7.02,0,0-.21.4-.21.4l.26.37c-.02,2.41-1.07,4.57-1.67,6.84-.54,1.62-1.49,3.05-2.17,4.6-.93,1.59-1.63,3.31-2.95,4.66-4.89,1.17-6.88-.01-6.72-4.62.13-3.8-1.24-7.78.96-11.41,2.56-2.37,4.59-5.3,7.68-7.1,1.36-1.19,3.07-.33,4.56-.77Z"/>
      <path class="cls-211" d="m68.27,53.88c0-1.64.01-3.28.02-4.92,1.95-.81,3.9-1.59,6.07-.91,2.13,2.29,4.27,4.59,6.4,6.88,2.23,4.62,1.44,9.58.49,14.12-.61,2.92-3.88,3.77-6.74,1.37-.62-1.45-1.92-2.5-2.41-4.03-.56-1.56-1.85-2.87-1.67-4.7.14-.24.1-.43-.14-.57-1.54-1.79-1.75-3.98-1.89-6.19l-.12-1.06Z"/>
      <path class="cls-233" d="m137.84,54.93c-1.04,3.93-.46,7.93-.43,11.89.03,3.15,3.29,4.48,6.66,3,.5-.53.78-.43.84.29l-2.73,4.4c-1.02,2.52-2.81,4.27-5.3,5.33-1.5,1.47-4.07,1.68-4.82,4.05-4.52.52-8.07,4.06-12.73,4.14-.26-.23-.35-.47-.27-.71.08-.24.16-.36.25-.36.09-3.52.16-6.92,5.4-6.04,1.04.17,3.06-.8,3.36-1.68,2.14-6.32,10.2-10.04,8-18.24-.45-1.69.68-3.64-.77-5.2-.27-.25-.35-.5-.25-.73.11-.23.21-.34.31-.34.83.06,1.66.12,2.49.17Z"/>
      <path class="cls-234" d="m74.15,69.01c1.04,1.19,1.78,2.89,3.91,1.4,1.42-.99,3.45-1.18,3.23-3.69-.35-3.92.52-7.9-.52-11.8.83-.06,1.66-.12,2.49-.18.3.22.41.45.33.7-.08.25-.17.37-.27.37-.38,5.71-3.65,12.01,3.35,16.22,1.28.77,1.16,2.3,1.48,3.56.7,2.84,2.62,5.29,5.3,5.21,4.79-.13,6.09,2.07,5.87,6.2.23.25.31.49.22.73-.09.23-.17.35-.25.35-4.59-.22-8.15-3.57-12.63-4.12-1.81-.09-2.21-1.85-3.3-2.8-.54-.44-1.07-.88-1.61-1.32-3.1-1.35-5.07-3.78-6.44-6.77-.77-1.37-1.55-2.75-2.32-4.12.41-.34.8-.34,1.17.06Z"/>
      <path class="cls-214" d="m48.18,197.89c.95-1.39,1.77-3.04,3.7-.94,1.67,1.82,2.89,3.74.92,5.93-2.32,2.58-4.88,4.95-7.61,7.68,1.55,1.43,3.1,2.84,4.63,4.29.98.93,1,2.14.47,3.2-.53,1.06-1.6,1.52-2.83,1.37-1.44-.18-9.44-7.75-9.67-9.31-.08-.54.43-1.18.68-1.77,2.29-4.37,6.29-7.14,9.72-10.44Z"/>
      <path class="cls-7" d="m30.35,175.86c1.07-.4,2.28-.6,3.19-1.23,1.13-.78,1.74-2.5,3.63-1.34,1.6.98,1.04,2.69,1.41,4.03.63,2.26-1.53,2.03-2.76,2.58-1.66.74-3.29,1.54-4.98,2.22-3.15,1.28-4.35,3.14-2.52,6.47.81,1.47,2.8,3.39-.44,4.74-3.46,1.44-2.83-1.89-3.61-3.2-1.51-2.54-3.29-5.28-3.6-8.09-.38-3.42,4.83-2.08,5.72-5.03,1.22-.72,2.46-1.37,3.96-1.15Z"/>
      <path class="cls-51" d="m199.25,177.84c-.35-.04-.7-.07-1.05-.11-2.78-.95-5.75.23-8.52-.79-2.43,0-4.88.2-7.28-.08-1.99-.23-2.85.89-3.78,2.17-1.59-2.64.32-3.99,2.23-3.98,6.1.04,12.2.59,18.29,1.02.07,0,.07,1.15.1,1.76Z"/>
      <path class="cls-68" d="m180.43,154.43v-24.32h.5v24.75c-.17-.14-.33-.28-.5-.42Z"/>
      <path class="cls-82" d="m117.22,229.3c-.62-1.67-.36-3.35-.08-5.03-.18-.33-.28-.68-.29-1.05.12-.14.24-.28.36-.42,1.83,6.68,1.69,13.36.08,20.05-.84-4.51-.68-9.02-.07-13.54Z"/>
      <path class="cls-224" d="m39.1,130.22v17.58c-.15,0-.3,0-.45,0v-17.74c.15.06.3.11.45.17Z"/>
      <path class="cls-66" d="m48.18,197.89c-2.68,4.01-6.21,7.21-9.72,10.44,1.5-5.1,5.37-8,9.72-10.44Z"/>
      <path class="cls-95" d="m97.57,240.57v-16.65c.17,0,.34,0,.5,0v16.75c-.17-.03-.34-.07-.5-.1Z"/>
      <path class="cls-221" d="m10.02,130.16v16.71c-.15,0-.29,0-.44,0v-16.74c.15.01.29.02.44.03Z"/>
      <path class="cls-226" d="m21.33,148.01c-.38-.26-.76-.52-1.14-.78,0-5.74,0-11.48,0-17.22.38,0,.76,0,1.14,0v18.01Z"/>
      <path class="cls-228" d="m28.53,147.24c-.38.27-.75.55-1.13.82v-18.08c.38,0,.75,0,1.13,0,0,5.75,0,11.5,0,17.25Z"/>
      <path class="cls-28" d="m117.22,229.3c.02,4.51.05,9.03.07,13.54-1.99-.29-4.17.74-5.96-.88,3.86.67,5.77-.48,5.3-4.86-.27-2.55-.43-5.27.59-7.8Z"/>
      <path class="cls-88" d="m140.06,221.72c1.81-1.37,3.86-2.05,6.12-2.11.22.86,1.09,1.79-.25,2.5-1.56.54-3.12,1.08-4.68,1.62-.61-.54-1.19-1.1-1.18-2Z"/>
      <path class="cls-223" d="m196.99,157.65h-13.71c0-.15,0-.3,0-.45h13.76c-.02.15-.03.3-.05.45Z"/>
      <path class="cls-222" d="m183.34,127.18h13.57c0,.11.01.23.02.34h-13.58c0-.11,0-.23-.01-.34Z"/>
      <path class="cls-91" d="m208.13,146.88c.03-2.66.05-5.31.08-7.97,3.51,2.69,2.88,5.34-.08,7.97Z"/>
      <path class="cls-227" d="m142.32,227.97c1-.37,2.01-.73,3.01-1.1,1.34.12,2.4.64,2.93,1.96-.71.95-1.76,1.02-2.81,1.13-1.63.26-3.03.15-3.14-1.99Z"/>
      <path class="cls-54" d="m111.36,223.99c.02.82,0,1.64.06,2.45.12,1.43-.27,2.9-1.61,3.23-2.08.51-1.87-1.69-2.56-2.81,4.35,1.67,2.2-3.23,4.08-4.05,0,0,.36.34.36.34.13.38.01.66-.34.84Z"/>
      <path class="cls-48" d="m104.15,241.77c.05-2.44.11-4.89.16-7.33.01-.64.01-1.48.86-1.34.9.15,1.11,1.04,1.07,1.91.01,2.33-.34,4.6-.97,6.84-.37-.03-.75-.05-1.12-.08Z"/>
      <path class="cls-27" d="m148.21,61.94c.31-2.49.73-4.95,2.18-7.09,1.55,2.75-.11,4.9-1.31,7.15-.31.27-.6.24-.87-.06Z"/>
      <path class="cls-80" d="m75.3,73.07c2.14,2.26,4.29,4.52,6.44,6.77-3.74-.74-6.07-2.83-6.44-6.77Z"/>
      <path class="cls-27" d="m68.39,54.94c.63,2.06,1.26,4.12,1.89,6.19-3.25-1.26-2.97-3.6-1.89-6.19Z"/>
      <path class="cls-92" d="m175.29,150.9c-.11-1.6-.22-3.19-.33-4.79,0,0,.3-.26.3-.26.68-.54,1.34-.54,1.99.05-.24,1.68.67,3.59-.99,4.99-.32.49-.65.49-.97,0Z"/>
      <path class="cls-264" d="m82.17,219.61c-.16-.14-.17-.3-.05-.48,2.42,2.37.79,5.09.45,7.69-.13-2.41-.27-4.81-.4-7.22Z"/>
      <path class="cls-76" d="m105.28,241.84c.12-2.31-.4-4.71.97-6.84,1.12.63,1.59,1.71,1.96,2.86-2.77,0-1.2,3.21-2.94,3.98Z"/>
      <path class="cls-89" d="m157.12,192.84c.35-2.63,2.32-4.07,4.13-5.62.12,2.97-1.9,4.37-4.13,5.62Z"/>
      <path class="cls-79" d="m136.88,79.85c1.77-1.78,3.54-3.55,5.3-5.33-.3,3.24-2.06,5.02-5.3,5.33Z"/>
      <path class="cls-218" d="m12.51,127.07h5.64c0,.15,0,.29.01.44h-5.58c-.02-.15-.05-.29-.07-.44Z"/>
      <path class="cls-218" d="m29.9,127.33c2.49-.56,4.46-.65,6.91.08-2.46.52-4.43.61-6.91-.08Z"/>
      <path class="cls-72" d="m43.29,141.9c.11,1.41.22,2.83.34,4.24,0,0-.24-.16-.24-.16-.7.51-1.38.51-2.04-.08.14-1.38-.47-2.95.99-4,.31-.49.63-.49.95,0Z"/>
      <path class="cls-93" d="m177.25,145.91c-.66-.02-1.33-.04-1.99-.05.01-1.32.03-2.63.04-3.95.32-.47.64-.49.96,0,1.46,1.05.86,2.62.99,4Z"/>
      <path class="cls-94" d="m41.35,145.91c.68.03,1.36.05,2.04.08-.04,1.31-.08,2.62-.11,3.92-.31.47-.61.47-.91,0-1.48-1.04-.87-2.61-1.01-4Z"/>
      <path class="cls-254" d="m170.15,215.37c-.91-.83-2.86-1.58-1.95-2.86,1-1.42,2.67-.12,3.99.47-.54.92-1.96,1.09-2.04,2.39Z"/>
      <path class="cls-230" d="m163.23,217.71c2.16,1.08,3.94,2.46,4.19,5.11-2.09-1.13-3.91-2.49-4.19-5.11Z"/>
      <path class="cls-221" d="m81.19,233.63c.07-1.25.14-2.5.21-3.75,1.69,2.21.69,4.63.31,7.03-.17-1.09-.35-2.19-.52-3.28Z"/>
      <path class="cls-47" d="m148.21,61.94c.29.03.58.05.87.06-.16,1.57-.32,3.13-2.02,3.9-.21.03-.41.06-.62.09,0-1.61.59-2.96,1.77-4.05Z"/>
      <path class="cls-47" d="m70.42,61.69c.64,1.42,1.29,2.83,1.93,4.25-.27.32-.58.35-.91.09-1.32-1.22-2.64-2.43-1.02-4.34Z"/>
      <path class="cls-265" d="m42.36,149.9c.3,0,.61,0,.91,0,.07.93.13,1.85.2,2.78-.15,1.06-.3,2.12-.45,3.19-.22,0-.44-.02-.66-.03v-5.95Z"/>
      <path class="cls-30" d="m71.45,66.04c.3-.05.6-.08.91-.09.97.8,1.52,1.85,1.79,3.07-.39-.02-.78-.04-1.17-.06-1.95-.22-1.47-1.71-1.53-2.92Z"/>
      <path class="cls-30" d="m146.44,65.99c.21-.03.42-.06.62-.09.22,1.88-1.07,2.99-2.14,4.22-.32.01-.6-.09-.84-.29.44-1.49.91-2.97,2.37-3.83Z"/>
      <path class="cls-236" d="m176.25,141.91c-.32,0-.64,0-.96,0-.07-.9-.15-1.81-.22-2.71.16-1.08.33-2.15.49-3.23.23,0,.45.01.68.02v5.92Z"/>
      <path class="cls-243" d="m43.29,141.9c-.32,0-.63,0-.95,0,0-1.91,0-3.82,0-5.94,1.56.89.63,2.28,1.17,3.21-.07.91-.15,1.82-.22,2.73Z"/>
      <path class="cls-86" d="m200.73,156.81c.43-2.51,3.08-2.58,4.45-4.05-.02,2.96-2.37,3.35-4.45,4.05Z"/>
      <path class="cls-78" d="m83.34,81.17c1.62.32,2.54,1.46,3.3,2.8-.6.75-1.4,1-2.32.94-.33-1.24-.65-2.49-.98-3.73Z"/>
      <path class="cls-237" d="m105.32,223.78c-1.9-1.02-3.93-.74-5.94-.56,2.2-2.15,4.23-2.43,5.94.56Z"/>
      <path class="cls-77" d="m57.37,187.76c1.89.79,3.11,2.19,3.81,4.1-2.36-.35-3.63-1.72-3.81-4.1Z"/>
      <path class="cls-67" d="m63.36,194.04c1.95.7,3.19,2.23,4.48,3.72-2.58.07-4.05-1.2-4.48-3.72Z"/>
      <path class="cls-69" d="m150.77,197.77c1.28-1.49,2.54-3.02,4.48-3.73-.44,2.51-1.9,3.79-4.48,3.73Z"/>
      <path class="cls-263" d="m109.29,212.97h4.85c.01.29.03.58.04.87h-4.88c-.32-.19-.43-.39-.33-.58.11-.19.21-.29.32-.29Z"/>
      <path class="cls-163" d="m175.29,150.9c.32,0,.65,0,.97,0,0,1.66,0,3.32,0,4.98-.23,0-.46.02-.69.02-.14-1.06-.29-2.13-.43-3.19.05-.6.1-1.21.15-1.81Z"/>
      <path class="cls-235" d="m109.29,212.97c0,.29,0,.58,0,.87-1.61,0-3.22,0-4.84,0-.01-.29-.02-.58-.03-.87h4.87Z"/>
      <path class="cls-239" d="m111.34,222.82c1.95-1.47,3.91-1.47,5.87-.02,0,0,.03.02.03.02-1.97.83-3.94.8-5.91.03v-.02Z"/>
      <path class="cls-231" d="m116.33,211.96c.89-.1,1.77-.2,2.66-.3.75.16,1.5.32,3.12.66-2.57.68-4.22.98-5.78-.36Z"/>
      <path class="cls-221" d="m96.33,211.74c1.97.2,3.99-.64,5.93.23-2.03,1.31-4.02,1.53-5.93-.23Z"/>
      <path class="cls-73" d="m166.68,198.98c-1.47.9-2.94,1.8-4.41,2.71.3-2.81,2.27-2.89,4.41-2.71Z"/>
      <path class="cls-85" d="m30.35,175.86c-1.13,1.05-2.48,1.32-3.96,1.15,1.08-1.21,2.05-2.79,3.96-1.15Z"/>
      <path class="cls-258" d="m194.41,183.88c.79-1.47,1.74-.19,2.62-.15.14.27.44.76.41.78-1.22.84-2.06-.22-3.04-.63Z"/>
      <path class="cls-71" d="m103.62,243.28c-1.43.87-2.42.46-3.8.31,1.36-.99,2.38-.86,3.8-.31Z"/>
      <path class="cls-266" d="m123.53,36.88c.57-.01,1.14-.02,1.71-.04,2.63,5.62,1.36,11.45.97,17.23-2.29,3.18-4.78,2.07-7.29.35-.39-.32-.73-.7-1.03-1.11-.4-.58-.72-1.22-.99-1.88-.17-.4-.3-.82-.4-1.24-.09-.4-.15-.81-.18-1.22-.07-.96-.19-1.9-.79-2.71-.38-.46-.8-.88-1.26-1.25-3.21-.51-5.17-2.43-6.17-5.44-.5-1.43-.49-2.7,1.09-3.47,4.84-.66,9.67-1.28,14.36.78Z"/>
      <path class="cls-180" d="m127.19,36.85c1.59-.97,1.09.58,1.09,1.04.04,11.92.03,23.84.02,35.76,0,.85-.15,1.65-1.08,2.01-.71-.13-1.08-.59-1.26-1.24.52-1-.2-1.82-.41-2.72-.08-2.33-1.14-3.63-3.63-3.41-3.14-.28-6.43.81-9.37-1.09-.84-1.6.53-1.78,1.44-2.27,2.28-.51,4.6-.29,6.9-.27,1.46.15,2.82.07,3.45-1.6.54-.93.36-1.92.26-2.91,0-1.19.38-2.28.77-3.39.21-.48.44-.95.68-1.42.49-4.43.09-8.86.23-13.28.06-1.78-.29-3.64.89-5.23Z"/>
      <path class="cls-107" d="m126.53,24.02c-.11.32-.23.64-.34.95-.3.36-.63.7-.87,1.11h.14c-.34.18-.64.43-.9.73-.21.33-.38.68-.52,1.04-.13.39-.09.76.09,1.12,0,.37,0,.73,0,1.1-.98.89-2.12,1-3.35.67-1.15-.4-1.97-1.21-2.64-2.19-.22-.38-.39-.79-.49-1.22-.06-.41-.06-.84-.02-1.26.16-1.01.07-1.99-.37-2.93-.37-.99-1.37-1.73-1.16-2.94.61-1.19,1.69-1.75,2.89-2.14,2.36-.34,4.76-.81,6.07,2-.05,1.52-.61,3.23,1.48,3.96Z"/>
      <path class="cls-201" d="m96.38,11.84c3.08,2.21,6.33,1.39,8.83-.53,4.57-3.51,5.55-3.53,8.23,1.62-.15.73-.58,1.24-1.21,1.61-.63.3-1.31.45-2,.52-.68.08-1.36.1-2.05.12-2.25.13-4.49.33-6.68.91-1.11.11-2.26.66-3.27-.3.16-1.68-2.5-2.05-1.85-3.96Z"/>
      <path class="cls-116" d="m96.2,35.62v-.18c-.64-1.12.14-1.65.9-2.18,2.29-.96,4.7-.58,7.08-.66,3.13.03,6.26,0,9.4.05,1.98-.05,3.86.64,5.82.83,1.23.05,2.5.06,2.25,1.87-.1.14-.18.38-.29.39-7.74.7-15.45,1.94-23.26,1.29-.85-.07-1.49-.63-1.9-1.4Z"/>
      <path class="cls-37" d="m93.32,76.88c-2.69.23-2.89-1.71-2.89-3.55-.04-11.9-.01-23.8,0-35.71,0-.7.15-1.28.93-1.48,2.3,2.96,1.16,6.42,1.33,9.66.18,3.49.05,6.99.05,10.48.03,5.23-.22,10.47.14,15.69.49,1.38,1.11,2.74.79,4.27-.11.21-.22.42-.33.64Z"/>
      <path class="cls-102" d="m98.23,15.81c1.06-.03,1.88-1.26,3.08-.61,1.21.49,2.89.22,3.3,2.03-.08.78-.53,1.32-1.13,1.76-1.06.71-2.24,1.03-3.49,1.18-2.51-.05-4.96.76-7.49.57-.51-.14-.92-.42-1.23-.86,1.38-2.97,3.91-3.97,6.97-4.06Z"/>
      <path class="cls-97" d="m124.37,20.79c-1.27-3.14-3.98-1.54-6.1-1.86-1.09.97-2.19.41-3.29.02-.85-.47-1.53-1.1-1.82-2.07-.04-1.18.82-1.53,1.71-1.86,1.08-.29,2.17-.57,3.31-.45.65.17,1.21.53,1.71.97,1.62.54,3.16,1.38,4.92,1.42.55,1.55,4.43,1.9,1.69,4.65-1.36,1.4-1.59-.11-2.13-.83Z"/>
      <path class="cls-57" d="m96.2,35.62c7.61.12,15.21.23,22.82.37,1.36.02,2.24-.4,2.26-1.9.27-.31.6-.43,1-.34.06.18.11.37.17.55.36.86.72,1.72,1.08,2.58-5.08.05-10.16.1-15.23.15-4.82,1.56-9.63,3.12-14.07-.96l1.97-.45Z"/>
      <path class="cls-238" d="m94.23,36.06c4.58,1.88,9.4.32,14.07.96.35,1.03.7,2.06,1.05,3.08.16,1.58-.81,2.29-2.11,2.75-1.7.02-3.69.72-3.86-2.21-.11-1.99-1.93-1.21-3.04-1.34-2.41-.29-4.98.46-7.18-1.16-.39-.71-.43-1.4.15-2.04.3-.15.61-.16.93-.03Z"/>
      <path class="cls-49" d="m106.68,78.13c-4.54.51-9.25,2.82-13.37-1.25,0,0-.06.04-.06.04.54-1.1,1.46-1.54,2.65-1.5,3.44.65,7.1-.63,10.41,1.19.41.44.53.95.37,1.52Z"/>
      <path class="cls-159" d="m91.26,19.87c.49.15.98.29,1.47.44.79,2.64,4.3,4.29,2.82,7.76-.43.32-.88.36-1.34.08-4.08-1.9-5.07-4.68-2.95-8.28Z"/>
      <path class="cls-251" d="m91.43,57.02c-.03-6.96-.06-13.92-.09-20.88.35-.02.71-.04,1.06-.05,2.19,5.63,1.01,11.5,1.25,17.27,0,.57-.06,1.14-.15,1.7-.11.56-.32,1.08-.62,1.56-.37.51-.86.65-1.45.41Z"/>
      <path class="cls-256" d="m127.19,36.85c-.27,6.62,1.17,13.32-.81,19.87-.44-.42-.65-.93-.63-1.54.04-.58.06-1.16.06-1.74.32-5.54-.68-11.12.54-16.63.28.07.56.08.85.05Z"/>
      <path class="cls-247" d="m126.34,36.8c-.04,6.05-.08,12.11-.12,18.16-.32.34-.64.33-.96,0,0-6.04-.02-12.08-.03-18.12.24-.24.48-.48.71-.72.13.23.26.45.39.68Z"/>
      <path class="cls-246" d="m92.35,54.97c.02-6.3.04-12.59.05-18.89.3-.2.6-.19.9.01,0,.63.01,1.25.02,1.88,2.62,5.4,1.73,10.93.62,16.48-.38.62-.91.8-1.59.52Z"/>
      <path class="cls-23" d="m124.32,76.89c-1.65,3.36-4.57,1.53-6.99,1.72-.25-.38-.29-.79-.12-1.22.83-1.2,1.29-2.87,3.27-2.64,1.07.69,2.29,1.08,3.41,1.67.15.15.29.31.43.47Z"/>
      <path class="cls-200" d="m119.17,15.83c-.42-.31-.84-.62-1.25-.93-1.89-.31-4.08.93-5.62-1.11.38-.29.76-.57,1.13-.86,2.84-1.08,6.11,1.24,8.79-1.09.51,1.73-1.07,2.13-1.92,3-.1.65-.47.99-1.14.99Z"/>
      <path class="cls-110" d="m97.33,33.89c-.38.51-.77,1.03-1.15,1.54-1.72-1.21-3.11-2.5-.95-4.53.85-.67,1.8-1.01,2.89-.81.51.11.97.35,1.36.7,1.09,2.29-.87,2.45-2.16,3.09Z"/>
      <path class="cls-248" d="m119.3,86.98c0,.36.01.71.02,1.07-2.49,1.48-5.29,1.1-7.98,1.36-.24-.28-.33-.56-.26-.85.07-.29.15-.43.23-.43,2.66-.38,5.33-.76,7.99-1.14Z"/>
      <path class="cls-52" d="m111.31,88.12c0,.43.02.85.03,1.28-.67.2-1.34.4-2.01.6-1.64-.49-3.58.55-5.01-.98-.33-.21-.44-.43-.34-.65.1-.23.2-.34.31-.34,2.34.03,4.68.06,7.02.09Z"/>
      <path class="cls-32" d="m117.32,78.05c.01.19.01.38,0,.56-2.01.08-4.03.16-6.04.24-.33-.31-.5-.69-.53-1.14.08-.44.27-.83.59-1.15.38-.24.8-.41,1.24-.52.45-.1.9-.14,1.36-.16.94-.01,1.86.07,2.72.47.6.42,1.11.87.66,1.7Z"/>
      <path class="cls-154" d="m111.28,77.88c0,.32,0,.65,0,.97-1.42-.06-3.29,2.02-4.11-.87.14-1.02.13-2.07.82-2.94.3-.31.64-.55,1.04-.71.41-.11.83-.15,1.26-.11.41.09.79.26,1.13.52.21.36.29.75.23,1.16-.35.62-1.23,1.14-.37,1.99Z"/>
      <path class="cls-109" d="m120.28,29.92c1.28.05,2.57.1,3.85.15,0,1.64,1.29,3.78-1.68,4.24,0,0-.19-.29-.19-.29-.77-1.01-2.31-1.37-2.47-2.91.02-.45.19-.84.49-1.18Z"/>
      <path class="cls-99" d="m126.15,73.99c.36.56.72,1.11,1.08,1.67-.88.62-1.6,1.63-2.91,1.23,0,0,0,.09,0,.09-1.15-.84-3.6-.92-1.97-3.38,1.36-.8,2.64-.77,3.8.38Z"/>
      <path class="cls-114" d="m108.44,74.79c-.32,1.1.37,2.6-1.27,3.18,0,0-.22.16-.22.16,0,0-.27,0-.27,0-.13-.3-.27-.6-.4-.9-.51-1.54-3.13.08-3.19-2.14,1.09-1.41,2.57-1.27,4.08-1.05.49.13.92.39,1.27.75Z"/>
      <path class="cls-10" d="m119.17,15.83c.38-.33.76-.66,1.14-.99,1.55.6,3.31.77,4.5,2.13-2.15.96-3.94.14-5.64-1.14Z"/>
      <path class="cls-208" d="m124.37,20.79c.71.28,1.42.55,2.13.83,1.49.78,1.45,1.58.03,2.4-3.01.45-2.65-1.34-2.16-3.23Z"/>
      <path class="cls-53" d="m104.29,88.03c.01.33.02.66.03.99-1.73-.07-3.55.39-5.05-.93.01-.36.03-.72.04-1.08,1.66.34,3.32.68,4.98,1.02Z"/>
      <path class="cls-31" d="m134.3,26.79c-.89-.38-2.72-.44-2.13-1.57.43-.82,2.39-.55,3.39.62-.19.63-.8.69-1.26.95Z"/>
      <path class="cls-45" d="m81.25,27.72c-.37-.28-.74-.56-1.11-.84,1.15-1.24,2.47-1.36,4.02-.6-.66,1.21-1.93,1.05-2.91,1.45Z"/>
      <path class="cls-74" d="m83.31,55.82l-.06-1.07c1.14-1.22,2.43-1.27,4.26-.31-1.62.53-2.91.95-4.2,1.38Z"/>
      <path class="cls-45" d="m134.3,26.79c.42-.32.84-.64,1.26-.95,1.07.07,2.2-.06,2.9,1.04-.37.28-.73.56-1.1.85-1.02-.31-2.04-.62-3.06-.93Z"/>
      <path class="cls-74" d="m135.35,54.76c-.02.36-.04.71-.06,1.07-1.3-.42-2.59-.85-4.22-1.38,1.84-.95,3.14-.92,4.28.31Z"/>
      <path class="cls-14" d="m98.24,30.6c-1,.1-2,.2-3,.31.07-.34.15-.68.22-1.03.73-.74,1.58-.74,2.48-.38.3.18.44.4.43.67,0,.29-.05.43-.13.43Z"/>
      <path class="cls-98" d="m98.22,29.68c-.92.07-1.84.13-2.76.2-.12-.26-.2-.53-.24-.81.14-.16.28-.33.42-.49.82-.5,1.64-.44,2.45,0,.25.22.35.45.31.7-.05.26-.1.39-.18.39Z"/>
      <path class="cls-98" d="m94.21,28.15c.31-.14.63-.29.94-.43.28.2.42.44.4.72-.02.29-.06.44-.13.44,0,0-.2.21-.2.21-.34-.31-.68-.62-1.01-.92Z"/>
      <path class="cls-22" d="m125.28,26.99c.1.77-.48.96-1.02,1.18-.12-.14-.25-.29-.37-.43-.02-.4.11-.74.39-1.02.39-.14.73-.06.99.27Z"/>
      <path class="cls-101" d="m124.14,28.97c-.24-.41-.47-.83-.71-1.24.36-.17.64-.1.84.27,0,0,0,.18,0,.18.06.28.02.55-.12.8Z"/>
      <path class="cls-139" d="m125.31,26.08c.29-.37.58-.74.87-1.11.14.71-.15,1.08-.87,1.11Z"/>
      <path class="cls-133" d="m125.28,26.99h-.49s-.49,0-.49,0c-.27-.17-.37-.35-.29-.54.08-.2.16-.29.24-.29.41-.03.81-.06,1.22-.09.08.33.02.64-.18.91Z"/>
      <path class="cls-195" d="m105.32,3.85c2.65-1.35,5.3-1.36,7.95,0-2.65,0-5.3,0-7.95,0Z"/>
      <path class="cls-195" d="m4.5,149.9c-.07,1.33-.15,2.66-.22,3.98-1.49-4.99-1.45-9.98-.02-14.98,1.02,1.27.69,2.62.23,3.98,0,2.34,0,4.67.01,7.01Z"/>
      <path class="cls-84" d="m4.48,142.89c-.08-1.33-.16-2.66-.23-3.98.02-.67.05-1.33.07-2,.13-1.31.27-2.61.4-3.92.98,3.33,1.29,6.64-.24,9.9Z"/>
      <path class="cls-195" d="m214.32,153.88c-.07-1.33-.15-2.66-.22-3.98,0-2.34,0-4.67.01-7.01-.46-1.36-.78-2.71.23-3.98,1.43,4.99,1.47,9.99-.02,14.98Z"/>
      <path class="cls-84" d="m214.35,138.9c-.08,1.33-.16,2.66-.23,3.98-1.78-2.87-.54-6.02-.87-9.03.34,1.02.69,2.03,1.03,3.05.02.67.05,1.33.07,2Z"/>
      <path class="cls-84" d="m199.13,144.88c.18,1.46.14,2.8-1.75,3.07-5,1.46-5.58,1.12-5.61-3.63-.02-2.43-.22-4.87.17-7.29,1.76-1.69,3.59-.94,5.42-.15,1.61.45,1.91,1.63,1.72,3.08-.56,1.65-.63,3.29.05,4.92Z"/>
      <path class="cls-62" d="m192.26,136.94c0,1.96.21,3.94-.05,5.87-.56,4.15,1.2,5.69,5.18,5.15-.96,3.06-3.55,2.05-5.39,1.77-1.66-.25-.87-2.21-.89-3.4-.04-3.14.11-6.28.18-9.41.34-.33.66-.31.97.03Z"/>
      <path class="cls-219" d="m192.26,136.94c-.32-.01-.65-.02-.97-.03,0-.33,0-.65,0-.98,1.69-.81,3.39-.67,5.1-.09.32.35.65.7.97,1.05-1.7.02-3.4.04-5.1.06Z"/>
      <path class="cls-75" d="m199.13,144.88c-1.35-1.63-1.31-3.27-.05-4.92.42,1.64.43,3.28.05,4.92Z"/>
      <path class="cls-84" d="m196.39,135.83c-1.7.03-3.4.06-5.1.09,1.67-1.89,3.38-1.03,5.1-.09Z"/>
      <path class="cls-84" d="m111.34,222.84c1.97,0,3.94-.02,5.91-.03-.03.48-.07.97-.1,1.45-1.88-1.02-3.82-.98-5.78-.27,0-.38-.02-.77-.02-1.15Z"/>
      <path class="cls-229" d="m186.37,183.86c-.53-.34-1.3-.55-1.55-1.03-.5-.96.4-1.02.95-.86,1.19.36,3.22-.5,3.1,1.95-.86.81-1.68.64-2.5-.07Z"/>
      <path class="cls-84" d="m189.68,176.95c2.84.28,5.82-.95,8.52.79-2.87.05-5.75.29-8.52-.79Z"/>
      <path class="cls-259" d="m186.37,183.86c.83.02,1.67.04,2.5.07.45.66.29,1.41-.36,1.54-1.13.23-1.62-.81-2.14-1.61Z"/>
      <path class="cls-83" d="m142.32,227.97c1.05.66,2.09,1.33,3.14,1.99-1.6.83-3.3,2.97-4.96,1.31-1.22-1.21-.45-3.09,1.82-3.31Z"/>
      <path class="cls-261" d="m140.06,221.72c.79.43,1.18,1.11,1.18,2-1.35-.68-2.57,2.32-3.54.49-.84-1.6.8-2.35,2.35-2.5Z"/>
      <path class="cls-61" d="m75.73,222.71c.79,2.71,1.12,4.18-.24,5.14-.34.24-1.8-.31-2.01-.81-.81-1.92,1.25-2.11,2.25-4.33Z"/>
      <path class="cls-64" d="m116.25,45.93c1.21.75,1.02,1.96,1.02,3.1-.2.26-.45.36-.77.31,0,0-.39,0-.39,0,0,0-.4.03-.39.05-.23.15-.39.35-.44.63-.01.32-.02.61,0,.93.05.37.09.72.13,1.08.13,1.05.48,2.09-.01,3.14-.38.33-.8.58-1.27.76-3.41.49-6.81.74-10.18-.2-.49-.24-.82-.62-1.02-1.13-.18-1.75.04-3.45.76-5.07,1.18-1.42,3.12-1.23,4.53-2.12,2.38.54.73-2.92,2.73-2.79,1.73.58,3.68.29,5.31,1.31Z"/>
      <path class="cls-249" d="m111.31,45.03c-2.35-.42.77,4.71-2.94,2.91-1.17-.84-2.7-.81-3.88-1.64q-2.38-3.26,2.89-4.29c.66-.63,1.31-1.26,1.97-1.89,1.17,1.79,1.71,4.41,4.99,2.99.88-.38.88,1.02.85,1.81-1.26.91-2.55.85-3.87.12Z"/>
      <path class="cls-242" d="m125.27,54.96c.32,0,.64,0,.96,0,.02.37.05.74.07,1.12-1.92,1.56-4.06,2.28-6.54,1.7-1.51-.54-2.85-1.25-3.15-3.04-.02-.51.11-1,.37-1.44.36-.42.81-.53,1.33-.32,2.24.95,4.25,2.72,6.97,2Z"/>
      <path class="cls-245" d="m111.31,45.03c1.29-.04,2.58-.08,3.87-.12.36.34.71.69,1.07,1.03-1.59-.59-3.76,1.92-4.94-.91Z"/>
      <path class="cls-44" d="m116.3,48.93c.33,0,.65.03.97.1.03.31,0,.61-.11.9-.31.21-.61.19-.89-.06-.06-.16-.13-.32-.19-.48.07-.15.15-.31.22-.46Z"/>
      <path class="cls-143" d="m116.5,49.95c.22,0,.44,0,.65-.02.11.35.23.7.34,1.05-.19.08-.37.15-.56.23-.4-.13-.68-.39-.81-.79.13-.16.25-.31.38-.47Z"/>
      <path class="cls-24" d="m117.5,50.98c.26.31.53.61.79.92-.21.33-.48.41-.82.22-.18-.18-.26-.37-.26-.59,0-.22.03-.33.08-.33l.21-.22Z"/>
      <path class="cls-56" d="m117.29,51.91c.33,0,.66,0,.99-.01,0,.35,0,.71.01,1.06-.36.04-.73.09-1.09.13,0,0-.24-.39-.24-.39,0,0,.02-.46.02-.46,0,0,.31-.34.31-.34Z"/>
      <path class="cls-70" d="m126.15,73.99c-1.31.04-2.61.08-3.92.11-.59.44-1.22.64-1.95.41-1.13,0-2.14.67-3.29.59-1.03.02-2.06.06-3.07.28-.39.08-.78.1-1.18.07-.6-.09-.92-.63-1.42-.89-.38-.07-.71.03-.98.31-.38,0-.76.01-1.14.02-1.25-1.65-1.04-3.23.23-4.76.2-.14.4-.28.59-.42.47-.15.93-.11,1.37.09.2.94.7,1.18,1.53.61.49-.05.96-.03,1.44.04,2.74.33,5.49.12,8.24.2,1.36.08,2.69.26,3.57,1.49.14.62,1.36,1.26-.04,1.85Z"/>
      <path class="cls-63" d="m125.27,60.86c.88.73,1.26,1.47.02,2.23-1.02.47-2.01,1.02-3.16,1.15-2.5.22-5.01.13-7.51.1-1.38-.02-2.76,0-4.1-.44-1.42-.67-2.19-1.58-1.12-3.14.4-.33.85-.56,1.34-.69.7-.16,1.41-.17,2.12-.09,1.84.58,3.19-.38,4.51-1.45.62-.22,1.24-.22,1.86-.01,1.2.85,2.51,1.28,4,1,1.01-.05,1.49.69,2.03,1.35Z"/>
      <path class="cls-185" d="m126.19,72.14c-1.37-.11-2.74-.22-4.11-.32-2.24-2.73-5.73-.88-8.35-2.28-.48-.28-.71-.69-.72-1.24.21-.54.61-.81,1.19-.82,3.18-.29,6.42.57,9.55-.54,3.63.41,3.16,2.75,2.44,5.2Z"/>
      <path class="cls-112" d="m114.22,63.22c2.71,0,5.42-.02,8.14-.02.78.83.79,1.74.27,2.7-2.81-.03-5.61-.07-8.42-.1-.68-.86-.74-1.72.01-2.58Z"/>
      <path class="cls-157" d="m114.22,63.22c0,.86,0,1.72-.01,2.58-.69.36-1.38.73-2.08,1.1-.19.15-.38.29-.57.44-.78.15-1.42-.03-1.84-.75-.47-1.22-.5-2.38.58-3.33,1.3-.01,2.61-.03,3.91-.04Z"/>
      <path class="cls-255" d="m123.75,66.94c-3.31,2.19-7.12.29-10.57,1.29-.37.15-.72.1-1.04-.13-.21-.36-.17-.69.1-1,0,0-.1-.2-.11-.2,3.87.01,7.75.03,11.62.04Z"/>
      <path class="cls-40" d="m119.23,56.83c2.47.82,4.64-1.14,7.06-.76.03.21.06.43.08.64-.07.39-.15.78-.22,1.17-.94.97-2.18,1.04-3.42,1.14-1,.13-1.97.02-2.88-.44-.47-.21-.76-.56-.88-1.06.09-.23.17-.46.26-.69Z"/>
      <path class="cls-150" d="m122.63,65.9c-.09-.9-.18-1.8-.27-2.7.98-.04,1.96-.08,2.94-.12-.49,1.32-.05,3.51-2.66,2.82Z"/>
      <path class="cls-96" d="m122.34,58.13c1.27-.08,2.55-.16,3.82-.24-.3.99-.59,1.98-.88,2.97-.64-.29-1.28-.58-1.92-.87-.89-.32-1.38-.85-1.01-1.85Z"/>
      <path class="cls-202" d="m115.27,18.21c1,.24,1.99.48,2.99.72-.62.76-1.25,1.52-1.87,2.28.15,1.7-.4,3.39-.15,5.1-.06.7-.27,1.34-.72,1.89-.77.63-1.68.78-2.64.74-.46-.04-.91-.16-1.35-.32-.63-.32-1.09-.81-1.4-1.43-.16-.41-.22-.84-.21-1.28.16-1.24.21-2.48-.17-3.7-.1-.42-.14-.85-.14-1.28.05-.44.18-.85.38-1.24.41-.54.92-.92,1.61-1.01,1.32.63,2.61,1.02,3.67-.45Z"/>
      <path class="cls-167" d="m115.49,25.9c-1.06-1.83-.76-3.39.9-4.69,1.39-.2,1.99.39,1.79,1.78-.51.72.05,1.59-.31,2.34-.28.58-.69,1.02-1.36,1.14-.44-.02-.78-.2-1.02-.57Z"/>
      <path class="cls-182" d="m120.28,29.92c-.05.29-.05.58,0,.86-.34.77-.97.81-1.67.66-.42-.21-.72-.53-.91-.95-.2-.68-.17-1.34.11-1.99.15-.17.31-.33.47-.49l2,1.91Z"/>
      <path class="cls-170" d="m117.35,25.05c-.02-.81.09-1.56.84-2.05.17.99,1.99,1.94.08,2.98-.43-.19-.73-.5-.92-.93Z"/>
      <path class="cls-19" d="m117.35,25.05c.31.31.61.62.92.93-.1.32-.18.64-.26.96-.29.35-.66.5-1.11.46-.62-.28-1.12-.62-.55-1.38.33-.33.66-.65,1-.98Z"/>
      <path class="cls-168" d="m124.23,26.16c.03.28.05.55.06.83-.05.33-.06.66-.03,1-.29-.06-.57-.15-.84-.27.07-.63-.24-1.45.81-1.56Z"/>
      <path class="cls-179" d="m117.32,27.05c.23-.03.46-.07.69-.11.09.36.17.71.26,1.07,0,0,.04-.02.04-.02-.31.28-.63.3-.97.05-.24-.33-.26-.66-.02-.99Z"/>
      <path class="cls-132" d="m104.15,17.06c-.95-.62-1.9-1.25-2.84-1.87,2.29-.52,4.54-1.3,6.94-1.06.66.64.6,1.34.2,2.09-1.3.97-2.65,1.63-4.3.84Z"/>
      <path class="cls-12" d="m108.08,15.72c.06-.53.11-1.06.17-1.59.68,0,1.36,0,2.04.01.35.33.61.72.81,1.16.13.47.2.95.2,1.44-.12,1.6-.85,2.8-2.33,3.49-.52-.11-.93-.39-1.22-.83-.65-1.3-.36-2.51.33-3.69Z"/>
      <path class="cls-38" d="m110.56,15.01c-.09-.29-.18-.57-.27-.86.67-.12,1.34-.24,2.01-.36,1.84.56,3.96-.31,5.62,1.11-.73.61-1.5,1.15-2.54.88-1.51-.86-3.45.93-4.83-.77Z"/>
      <path class="cls-181" d="m97.33,33.89c.84-.91,2.3-1.44,1.94-3.1-.19-.83.32-1.15.99-1.36.44-.03.86.04,1.27.22,1.21.91,2.13,2.09,3.05,3.27.14.48-.04.77-.51.9-2.24.02-4.49.05-6.73.07Z"/>
      <path class="cls-5" d="m118.5,30.78c.59,0,1.18,0,1.77,0,.5,1.17,2.23,1.59,1.98,3.23,0,0-.49-.03-.49-.03,0,0-.48.1-.48.1-.57.26-1.14.52-1.72.78-1.19-.66-2.11-1.58-2.64-2.86-.05-.46.07-.88.33-1.26.42-.22.84-.22,1.24.04Z"/>
      <path class="cls-136" d="m104.07,33.82c.18-.25.32-.53.42-.82,1.26-1.42,2.97-1.25,4.62-1.34,1.65.03,3.32-.07,4.83.78.51.35.67.83.48,1.42-3.45-.01-6.9-.02-10.35-.04Z"/>
      <path class="cls-166" d="m114.42,33.85c-.12-.24-.22-.49-.29-.75.77-1.21,1.93-1.23,3.16-1.04,1.29.5,2.01,1.47,2.28,2.8-1.71-.34-3.43-.67-5.14-1.01Z"/>
      <path class="cls-121" d="m110.31,63.26c-.04,1.17-.07,2.34-.11,3.51.03.36.11.7.23,1.04.14.34.23.68.31,1.04.05.38-.05.71-.3,1-1.13,1.51-1.1,3.3-1.22,5.05-.26-.03-.52-.06-.77-.1,0,0-.2.12-.2.12-.36-.43-.65-.89-.9-1.39-.85-3.11-.52-6.29-.45-9.43.07-3.42-1.4-4.92-4.76-4.75-1.16.06-2.34.1-3.49-.02-3.63-.38-5.21,1.07-5.01,4.83.15,2.8.35,5.66-.34,8.45-.21.52-.53.98-.95,1.36-2.26-5.54-.54-11.3-.92-16.94.31,0,.6-.07.88-.21,5.22-2.65,10.66-.46,15.98-.72,1.29.24,2.11,1.03,2.57,2.22.21.91.09,1.73-.6,2.42-1.37.87-1.24,1.71.05,2.53Z"/>
      <path class="cls-165" d="m92.35,73.96c.1-.22.14-.46.12-.71.48-1.2,1.44-1.08,2.43-.9.71.27,1.26.73,1.64,1.39.24,1.13-.23,1.85-1.29,2.24-.66.31-1.33.63-1.99.94-.3-.99-.6-1.97-.91-2.96Z"/>
      <path class="cls-113" d="m95.41,28.87c-.09-.38-.18-.77-.27-1.15.66-2.95-4.68-3.94-2.42-7.41,2.4-1.3,4.92-1.83,7.62-1.17,1.46.68,3.78.98,1.46,3.32-3.93.67-2.17,3.43-2.04,5.59-.21.72-.52,1.3-1.44.94-.97-.04-1.94-.08-2.91-.12Z"/>
      <path class="cls-217" d="m108.08,15.72l.2,4.3c0,.22,0,.43.02.65-1.43,2.02-.57,4.51-1.33,6.67-1.03.7-2.17.78-3.35.58-.46-.12-.88-.32-1.27-.6-.85-1.54-.76-3.12-.2-4.72,1.32-1.29-.14-3.27,1.14-4.57.28-.33.57-.65.85-.98,1.31-.45,2.62-.89,3.93-1.34Z"/>
      <path class="cls-203" d="m103.3,18.04c-.24,1.69.7,3.64-1.11,4.99-.77.05-1.22-.15-.81-1.03,1.88-1.76-.76-1.88-1.04-2.86.98-.36,1.97-.73,2.95-1.09Z"/>
      <path class="cls-104" d="m115.27,18.21c-.02,1.25.19,2.84-1.35,3.12-1.48.27-1.45-1.85-2.6-2.36-.53-1.23.4-1.56,1.22-1.96.23-.02.45-.04.68-.06.68.42,1.37.84,2.05,1.26Z"/>
      <path class="cls-147" d="m110.56,15.01c1.62.19,3.37-.46,4.83.77-.83.2-1.8.11-2.16,1.17,0,0,.01.23.01.23-1.46.64-2.28-.09-2.84-1.35,0-.28.06-.56.16-.82Z"/>
      <path class="cls-241" d="m107.38,42c-.52.31-1.01.72-1.58.91-.81.27-2.14-.44-2.3.99-.14,1.21,1.52.97,1.91,1.86.44.94-.14,1.24-.89,1.43-3.91-.79-4.11-.49-3.55,5.34,0,.53-.12,1.03-.34,1.52-2.16,2.52-4.64,2.52-7.31.9,0-5.66,0-11.31-.01-16.97,3.48,0,6.95-.05,10.43.04,2.09.05,2.76.47,1.52,2.91-1.09,2.14,1.53.36,2.12,1.08Z"/>
      <path class="cls-108" d="m95.25,75.98c.39-.64.77-1.28,1.16-1.92,2.24-.77,4.52-.48,6.8-.33.26.25.37.51.31.78-.06.28-.13.42-.21.42.56,1.33,2.61.73,2.97,2.31-3.61-1.03-7.56.94-11.03-1.25Z"/>
      <path class="cls-220" d="m109.2,57.27c-5.63-.15-11.26-.3-16.89-.46,0-.29,0-.58.02-.88,2.86-1.3,6.35.66,9-1.73.39-.3.84-.48,1.33-.52.2.14.4.28.59.42.01.29.04.58.08.87,3.55,1.23,7.26-.03,10.84.7.41.51.43,1.03.06,1.57-1.67,1.33-3.35.5-5.03.01Z"/>
      <path class="cls-240" d="m102.39,54.13c-2.74,4-6.77.88-10.06,1.81-.07-.32-.06-.64.02-.96.33,0,.65-.02.98-.03,2.43-.31,5.36,1.13,6.98-2,.33-.26.69-.31,1.08-.17.54.3.94.7,1,1.36Z"/>
      <path class="cls-123" d="m116.05,74.1c1.45,0,2.9.01,4.35.02.22.32.17.6-.14.84-1.2.82-1.29,2.7-2.94,3.09-.28-.39-.55-.79-.83-1.19-1.02-.78-1.09-1.71-.44-2.76Z"/>
      <path class="cls-125" d="m120.26,74.96c.05-.28.1-.56.14-.84.61,0,1.22,0,1.83-.01-.17,1.59,1.68,1.71,2.08,2.88-1.58-.22-3.88,1-4.06-2.03Z"/>
      <path class="cls-41" d="m98.33,28.99c.43-.33.86-.67,1.28-1,.43-.21.78-.12,1.07.25.24.65.18,1.24-.35,1.73-.36.27-.71.55-1.07.82-.34-.06-.69-.13-1.03-.19,0-.31,0-.61-.02-.91,0-.24.03-.47.11-.7Z"/>
      <path class="cls-138" d="m116.05,74.1c.15.92.29,1.84.44,2.76-1.05-.05-2.1-.1-3.16-.15-.34-.2-.54-.5-.6-.89.05-.39.23-.7.54-.94.6-1.42,1.76-.83,2.77-.78Z"/>
      <path class="cls-119" d="m111.33,74.13c.33.27.66.55.99.82.27.23.43.52.44.87.02.36-.12.65-.4.88-.35.02-.7.04-1.05.06l-.09-.41c.01-.47.03-.94.04-1.41-.25-.2-.32-.39-.22-.57.1-.17.19-.25.29-.25Z"/>
      <path class="cls-204" d="m111.22,76.35s.09.41.09.41c-.01.37-.03.74-.04,1.12-1.28-.46-1.23-.98-.05-1.53Z"/>
      <path class="cls-216" d="m112.36,76.7c-.03-.26-.04-.52-.04-.78.34-.33.65-.31.95.06,0,.25.03.49.06.73,0,0-.49.08-.49.08l-.49-.09Z"/>
      <path class="cls-106" d="m111.33,74.13c-.03.27-.05.54-.07.82,0,0-.46.02-.46.02,0,0-.45-.09-.45-.09.1-.54.32-.93.98-.75Z"/>
      <path class="cls-100" d="m103.31,74.92c0-.27.02-.55.02-.82.89-1.26,2.15-1.27,3.49-1.03.49.18.93.45,1.31.8.04.35.08.69.12,1.04-1.65,0-3.29,0-4.94,0Z"/>
      <path class="cls-244" d="m114.31,56.06c-3.62-.8-7.51,1.2-10.98-1.09,3.96,0,7.92.02,11.88.03.29.86-.05,1.18-.9,1.06Z"/>
      <path class="cls-65" d="m104.38,46.85c.34-.36.69-.73,1.03-1.09,1.38.19,3.06-.02,2.96,2.18-1.06,1.41-2.52,1.45-4.06,1.17-.13-.12-.26-.25-.4-.37-.14-.34-.2-.69-.17-1.06.06-.17.13-.34.2-.51.15-.11.29-.21.44-.32Z"/>
      <path class="cls-260" d="m114.31,56.06c.3-.35.6-.71.9-1.06.06-.3.11-.61.13-.92.12-.15.23-.31.35-.46.58-.23,1.11-.21,1.52.33-.19,1.57,1.26,1.98,2.03,2.88,0,0,.11.35.11.35-1.75.85-3.48,1.37-5.04-.37,0-.25,0-.5,0-.74Z"/>
      <path class="cls-15" d="m104.3,49.11c-.37,1.66.79,3.65-1.05,5,0,0,.07-.24.07-.24-.46-.33-1.04-.49-1.39-.98-.12-.37-.13-.75-.06-1.14.14-.56.34-1.1.55-1.64.15-.36.36-.68.62-.97.33-.25.68-.28,1.06-.11l.2.07Z"/>
      <path class="cls-11" d="m115.34,54.08c-1.42-.7-.99-1.96-.94-3.1.27-.35.61-.44,1.02-.3.26.31.46.66.59,1.05.07.4.06.8-.02,1.2-.16.38-.4.69-.73.93l.08.22Z"/>
      <path class="cls-142" d="m114.37,48.87c-.04-.64.27-.91.89-.86.23.2.31.41.27.64-.05.23-.11.35-.17.35-.36.23-.69.2-.99-.12Z"/>
      <path class="cls-177" d="m115.23,48.87c.02-.29.03-.57.03-.86.34.31.69.62,1.03.93,0,0,.05.09.05.09-.2.1-.41.2-.61.3-.17-.15-.33-.31-.5-.46Z"/>
      <path class="cls-156" d="m114.37,48.87c.29.06.57.06.86,0,0,0,.08.24.08.24.25.33.23.66-.03.98-.36.23-.67.18-.94-.15,0-.35.02-.71.02-1.06Z"/>
      <path class="cls-46" d="m114.35,49.94c.31.03.61.05.92.07.12.18.25.36.37.54-.15.16-.31.31-.46.47-.26-.01-.52-.02-.78-.03-.02-.35-.03-.7-.05-1.05Z"/>
      <path class="cls-26" d="m115.26,53.87c.03-.3.07-.6.1-.91.24-.31.56-.5.95-.55.39.07.7.26.93.58,0,0-.04.1-.04.1.05.29.05.57,0,.86-.65-.03-1.3-.06-1.95-.09Z"/>
      <path class="cls-18" d="m115.27,50c.01-.3.03-.6.04-.9.34-.02.69-.05,1.03-.08-.02.32.04.63.16.92,0,0-.39.04-.39.04-.3.46-.6.44-.9,0h.05Z"/>
      <path class="cls-87" d="m115.22,50c.3-.02.6-.02.9,0,.39.4.78.8,1.17,1.2-.09.24-.08.48,0,.72,0,0-.12.24-.12.24-.29.21-.62.3-.98.27-.37-.07-.61-.28-.73-.63-.06-.27-.16-.53-.29-.78.01-.34.03-.67.04-1.01Z"/>
      <path class="cls-253" d="m116.51,51.95c.23.03.45.1.66.2.06.28.09.56.07.84-.27,0-.54-.04-.81-.09-.35-.24-.45-.46-.31-.66.13-.19.26-.29.39-.29Z"/>
      <path class="cls-115" d="m113.33,69.28c2.25-.11,4.51-.22,6.76-.33,2.2-.11,2.28,1.25,1.99,2.87-2.9-.52-6.03,1.16-8.75-.97-.64-.52-.49-1.04,0-1.57Z"/>
      <path class="cls-175" d="m113.33,69.28c0,.52,0,1.04,0,1.57-.3.04-.59.09-.88.16-.59.03-.71-.64-1.17-.81l-.17-.42c-.17-.45-.07-.83.27-1.16.66-.23,1.28-.24,1.79.32l.16.33Z"/>
      <path class="cls-137" d="m111.28,70.2c.39.27.78.54,1.17.81-.25.18-.51.36-.76.55-.14-.45-.28-.9-.41-1.36Z"/>
      <path class="cls-118" d="m111.38,69.14c-.1.21-.19.43-.27.65,0,0-.33.09-.33.09,0,0-.34-.04-.34-.04-.07-.2-.14-.4-.23-.6-.25-.44-.27-.9-.07-1.36.44-.29.88-.28,1.32-.01.29.45.28.87-.09,1.27Z"/>
      <path class="cls-174" d="m113.27,75.97c-.32-.01-.64-.03-.95-.05-.02-.33-.02-.65,0-.97.32.03.64.01.96-.06,0,.36,0,.73,0,1.09Z"/>
      <path class="cls-158" d="m114.3,56.81c1.68.12,3.36.25,5.04.37.02.34.04.69.07,1.03,0,0,.19.44.19.44l-.33.35c-.63,0-1.27,0-1.9-.01-1.12.14-2.25.17-3.35.43-.4.13-.81.22-1.22.3-.41.06-.82.07-1.23.03-.4-.1-.77-.27-1.11-.49-.42-.67-.85-1.33-1.27-2,1.7-.15,3.4-.31,5.1-.46Z"/>
      <path class="cls-124" d="m113.25,58.99c1.38-1.74,2.75-1.34,4.12,0-.27,3.02-1.87,3.05-4.05,1.8-.33-.2-.53-.49-.59-.87.05-.38.22-.69.52-.93Z"/>
      <path class="cls-135" d="m119.27,59.01c.11-.25.15-.52.14-.8.98-.03,1.95-.06,2.93-.09.34.62.68,1.24,1.01,1.86-1.73,1.22-3.43,2.32-4.08-.97Z"/>
      <path class="cls-145" d="m113.22,60.06c.06.24.1.49.11.74-.61-.02-1.21-.03-1.82-.05-.94-.44-.72-1.03-.21-1.65.35,0,.7-.01,1.05-.02.37.25.66.58.87.97Z"/>
      <path class="cls-105" d="m111.3,59.1c.07.55.14,1.1.21,1.65-.41,0-.83-.01-1.24-.02.07-.49.14-.99.21-1.48.27-.08.55-.13.83-.16Z"/>
      <path class="cls-137" d="m111.38,69.14c-.07-.29-.06-.57.04-.85,0-.7.3-.86.88-.46.3.13.59.26.88.4.04.24.04.48-.01.72-.6.06-1.19.13-1.79.19Z"/>
      <path class="cls-252" d="m112.3,67.83c-.32.1-.62.25-.88.46-.4.04-.8.08-1.2.12-.34-.03-.64-.15-.91-.37.3-.43.59-.85.89-1.28.68.11,1.36.23,2.04.34.04.24.06.48.06.72Z"/>
      <path class="cls-189" d="m110.4,15.84c.95.45,1.89.9,2.84,1.35-.64.6-1.28,1.19-1.92,1.79-.38.35-.76.71-1.14,1.06-.38.27-.67.18-.88-.22.91-1.18,1-2.58,1.09-3.98Z"/>
      <path class="cls-160" d="m117.32,27.05c0,.27.02.54.05.8-.04.18-.07.36-.11.54-.2.32-.46.58-.77.79-.18.04-.36.08-.55.12-.38-.08-.69-.26-.93-.56-.17-.38-.09-.69.27-.91.07-.65.13-1.29.2-1.94.29.03.58.07.86.12.32.34.65.68.97,1.03Z"/>
      <path class="cls-131" d="m110.33,21.95c1.47,1.28,1.36,2.6.11,3.96-.15-.07-.31-.15-.46-.22-.19-.29-.32-.6-.39-.94-.06-.34-.08-.68-.08-1.02,0-.35.07-.68.16-1.02.08-.15.16-.31.24-.46.14-.1.28-.2.42-.3Z"/>
      <path class="cls-17" d="m115.29,27.84c0,.39,0,.78,0,1.18-.16.15-.32.3-.48.45-.86.37-1.69.35-2.49-.18-.29-.37-.31-.76-.04-1.15,1-.09,2.01-.19,3.01-.28Z"/>
      <path class="cls-127" d="m109.3,19.82c.28.11.57.19.88.22.08.31.07.62-.04.93-.55.62-1.19.61-1.88.29-.35-.42-.3-.8.1-1.16,0,0-.07-.07-.07-.07.34-.07.68-.14,1.02-.21Z"/>
      <path class="cls-129" d="m108.45,20.9c.56.02,1.13.04,1.69.06.06.33.13.66.19.99,0,0-.08.04-.08.04-.63.59-1.32.57-2.03.17-.28-.48-.2-.9.23-1.25Z"/>
      <path class="cls-186" d="m110.28,26.98c.34.34.68.67,1.02,1.01.15.17.3.35.45.52-.11.2-.23.4-.34.6-.46.13-.88.04-1.25-.26-.24-.4-.32-.83-.26-1.3.13-.19.26-.37.38-.56Z"/>
      <path class="cls-153" d="m110.44,25.91c-.05.36-.11.71-.16,1.07,0,0,.03-.03.03-.03-.6.63-1.25.55-1.92.12-.31-.42-.33-.85-.07-1.3.7-.38,1.36-.37,1.97.19,0,0,.15-.05.15-.05Z"/>
      <path class="cls-20" d="m111.33,28.8c0-.27-.02-.54-.03-.82.33,0,.66.04.98.14.01.25.01.49,0,.73-.34.31-.66.31-.96-.06Z"/>
      <path class="cls-111" d="m118.5,30.78c-.41.07-.83.13-1.24.2-.75.77-1.63.9-2.61.51-.42-.27-.64-.65-.67-1.15.18-.47.53-.73,1.01-.82.46-.02.93-.05,1.39-.09.74-.19,1.36,0,1.86.57.09.26.18.51.25.77Z"/>
      <path class="cls-42" d="m118.25,30c-.61-.04-1.22-.09-1.83-.13-.35-.09-.5-.25-.45-.46.05-.24.12-.36.22-.36l.25-.18c.25-.26.5-.51.76-.76,0,0,.18-.26.18-.26.31.06.62.11.94.14-.02.67-.04,1.34-.06,2.01Z"/>
      <path class="cls-152" d="m109.24,32.86c-1.59.04-3.17.09-4.76.13-2.01.08-2.37-1.6-3.09-2.9.22-.36.53-.63.94-.77.62-.14,1.23-.1,1.83.1.55.23,1.05.57,1.54.89.51.27,1.05.48,1.61.61.4.06.78.16,1.16.27.39.14.73.36,1.02.65.21.41.11.75-.25,1.02Z"/>
      <path class="cls-141" d="m102.24,29.88c-.29.03-.58.1-.85.21-.35-.04-.71-.08-1.06-.12-.08-.66-.16-1.31-.24-1.97.26-.29.58-.42.97-.43.37.09.69.26.98.51.27.27.47.58.63.92.01.18.02.37.03.56-.15.11-.3.21-.46.32Z"/>
      <path class="cls-140" d="m109.24,32.86c.03-.25.04-.49.03-.74.16-.36.43-.62.78-.79.35-.14.72-.23,1.09-.3.73-.13,1.45-.33,2.17-.5.39-.03.71.11.95.42,1,.01,1.99.02,2.98.03,0,.36.02.72.03,1.08-.78,1.18-2.07.78-3.16,1.04-1.63-.08-3.26-.16-4.89-.24Z"/>
      <path class="cls-191" d="m108.13,73.88c-.27,0-.53-.04-.78-.13-1.47-.61-3.23-.43-4.44-1.72-.53-.82-.65-1.73-.6-2.68.03-.45.12-.89.23-1.32.5-1.44.57-2.87-.13-4.27-.45-.93-1.02-1.78-1.61-2.61-.86-1.01-1.95-.6-2.98-.45-3.78,1.15-4.41,3.8-2.14,9.01.85.95,1.24,1.93.26,3.03-.2.11-.41.22-.61.33-.95.06-1.91.12-2.86.19-.06-3.82.03-7.66-.22-11.47-.21-3.2,1.23-3.84,4.11-3.9,11.97-.27,11.98-.35,11.91,11.51,0,1.5-.09,2.99-.14,4.48Z"/>
      <path class="cls-137" d="m109.31,68.04c.34.03.64.16.91.37.23.28.22.56-.02.83-.3-.4-.6-.8-.9-1.2Z"/>
      <path class="cls-146" d="m103.37,71.92c1.6.01,2.8.9,3.98,1.83-1.34.12-2.68.24-4.02.36-2.32,1.04-4.62,1.1-6.92-.05-.36-.33-.72-.66-1.08-.98,0,0,.08-.28.08-.28,1.79-.9,3.58-1.8,5.68-1.64.84,0,1.41.85,2.28.77Z"/>
      <path class="cls-34" d="m101.17,27.83c-.36.06-.71.12-1.07.18,0,0-.49-.01-.49-.01-2.41-1.42-1.31-3.68-1.03-5.5.27-1.76,1.83-.35,2.8-.5.27.34.54.69.81,1.03,1.22,1.25,1.14,2.56.17,3.9-.17.6-.54.94-1.19.9Z"/>
      <path class="cls-130" d="m108.32,25.99c-.03.28-.06.56-.08.84,0,0-.21.4-.21.4,0,0-.46.03-.46.03,0,0-.32-.32-.32-.32-2.84-2.8-1.1-4.86,1.1-6.84.02.27.05.54.09.81-.04.34-.09.67-.14,1.01.29.25.51.55.68.9.12.37.17.75.19,1.13,0,.39-.06.77-.17,1.14-.17.34-.41.65-.69.91Z"/>
      <path class="cls-122" d="m103.25,27.02c1.33-.03,2.67-.06,4-.08,0,0,.36-.04.36-.04.18.48.11.92-.18,1.34-.39.3-.83.5-1.3.62-1,.15-1.95.06-2.8-.54-.24-.27-.33-.56-.27-.85.05-.3.12-.45.19-.45Z"/>
      <path class="cls-141" d="m103.25,27.02c.06.27.07.55.05.83.37.31.47.68.3,1.13-.36.33-.75.36-1.17.13l-.26-.27c-.27-.3-.55-.59-.86-.86,0,0-.14-.17-.14-.17.4-.3.79-.6,1.19-.9.3.03.59.06.89.09Z"/>
      <path class="cls-65" d="m100.25,52.04c-1.31-1.18-1.18-2.75-.73-4.12.95-2.89,2.53-3.93,4.86-1.07,0,0-.04.09-.04.09-.21.24-.44.46-.7.66-.36.31-.76.57-1.16.83-.24.19-.49.38-.7.59-.29.39-.45.82-.55,1.29-.06.34-.15.67-.28.99-.09.15-.18.3-.27.45-.15.1-.29.19-.44.29Z"/>
      <path class="cls-58" d="m101.42,53.11c-.37-.05-.75-.11-1.12-.16,0-.3-.02-.61-.05-.91,0,0,.05-.07.05-.07.18-.13.37-.27.55-.4.21.09.42.18.62.27.07.21.15.43.22.64-.09.21-.18.42-.27.62Z"/>
      <path class="cls-29" d="m102.24,52.95c.36.31.72.61,1.08.92-.31.09-.62.18-.93.26-.32-.34-.64-.68-.96-1.02,0,0-.08-.14-.08-.14.29-.5.58-.48.89-.02Z"/>
      <path class="cls-59" d="m103.23,46.93c.37,0,.74,0,1.1,0-.04.34-.07.67-.11,1.01-.31.38-.67.44-1.08.17-.22-.41-.19-.81.08-1.19Z"/>
      <path class="cls-43" d="m103.39,48c.28-.02.56-.03.84-.05-.04.36-.08.72-.12,1.08,0,0-.38-.05-.38-.05l-.37.09c-.12-.18-.24-.36-.36-.55.13-.18.26-.35.39-.53Z"/>
      <path class="cls-60" d="m103.3,49.88c.05.89-.19,1.64-1.04,2.08-.25.38-.55.42-.89.11l-.06-.15c-.14-.14-.28-.29-.42-.43.04-.2.08-.39.12-.59.16-.37.39-.7.68-.98.17-.11.34-.21.51-.31.41-.11.77-.02,1.08.28Z"/>
      <path class="cls-250" d="m101.37,52.07c.29-.09.59-.12.89-.11.06.33.05.66-.02.99-.3.02-.6.02-.89.02-.04-.3-.03-.6.03-.9Z"/>
      <path class="cls-36" d="m103.3,49.88c-.36-.02-.73-.04-1.09-.05-.12-.37-.07-.71.15-1.03.33-.22.66-.23.99,0,0,0,.01.27.01.27,0,.27-.02.54-.06.8Z"/>
      <path class="cls-24" d="m116.51,51.95c-.11.31-.14.62-.08.95-.36.02-.72.04-1.07.06.03-.39.07-.78.1-1.17.35.05.7.11,1.05.16Z"/>
      <path class="cls-173" d="m113.22,60.06c-.29-.32-.58-.65-.87-.97.3,0,.61-.04.91-.1-.01.36-.02.71-.03,1.07Z"/>
      <path class="cls-207" d="m117.19,28.11c-.25.25-.51.5-.76.76.25-.25.51-.5.76-.76Z"/>
      <path class="cls-166" d="m116.18,29.05c.1.27.17.54.24.82-.38.05-.76.1-1.14.15-.31-.19-.42-.38-.32-.58.1-.2.2-.3.3-.3,0,0,.02-.12.02-.12.3.02.6.03.9.04Z"/>
      <path class="cls-149" d="m108.3,22.99c0-.36,0-.72,0-1.07.65.02,1.3.05,1.95.07.02.34.03.67.05,1.01-.67.57-1.33.57-2,0Z"/>
      <path class="cls-35" d="m108.3,22.99c.67,0,1.33,0,2,0-.03.35-.05.7-.08,1.05-.63.53-1.25.53-1.87-.01-.02-.35-.03-.69-.05-1.04Z"/>
      <path class="cls-155" d="m108.35,24.03c.62,0,1.25,0,1.87.01.03.32.04.64.04.95-.65.58-1.29.58-1.94,0,0-.32,0-.64.03-.96Z"/>
      <path class="cls-178" d="m108.32,24.99c.65,0,1.3,0,1.94,0,.04.32.05.65.03.97-.66,0-1.32.01-1.98.02-.03-.33-.03-.66,0-1Z"/>
      <path class="cls-148" d="m115.26,29.13c.02.3.03.59.02.89-.35.04-.7.08-1.05.12-.54.35-1.17.39-1.77.53-.42-.04-.81-.17-1.16-.41-.26-.37-.28-.74-.02-1.12,0,0,.05-.34.05-.34.31.1.63.12.96.06.99.09,1.98.18,2.97.28Z"/>
      <path class="cls-120" d="m108.24,26.82c.69.04,1.38.09,2.07.13-.02.64-.03,1.29-.05,1.93-.13.15-.26.31-.4.46-.39.15-.79.19-1.2.12-.39-.16-.68-.43-.86-.81-.02-.61,0-1.22.4-1.74l.04-.1Z"/>
      <path class="cls-126" d="m111.28,29.14c.02.28.03.55.02.83.59.62.6,1.27.08,1.94-.4,0-.81,0-1.21.01-.42-.52-.62-1.11-.54-1.78.13-.42.38-.76.73-1.02,0,0-.09-.23-.09-.23.34.09.68.17,1.02.26Z"/>
      <path class="cls-6" d="m112.3,30.11c.64,0,1.29.02,1.93.03.03.27.05.54.04.81-.28.06-.56.09-.85.08-1.08.55-1.23-.03-1.13-.92Z"/>
      <path class="cls-134" d="m110.25,30.05c-.03.62-.05,1.25-.08,1.87-.31.02-.6.09-.89.2-.3-.08-.6-.15-.91-.18-.66-.64-.64-1.35-.22-2.1.75-.36,1.47-.5,2.1.22Z"/>
      <path class="cls-193" d="m107.14,31.9c-.76-.02-1.49-.1-1.86-.91.15-.72.58-1.17,1.28-1.37.47,0,.84.2,1.12.57.08.65.23,1.33-.55,1.71Z"/>
      <path class="cls-169" d="m102.43,29.12c.31-.06.61-.1.92-.13.56-.64,1.23-.48,1.91-.28.34.37.43.8.27,1.27-.37.38-.77.4-1.19.07-.7-.06-1.41-.11-2.11-.17.04-.26.1-.52.19-.76Z"/>
      <path class="cls-128" d="m107.14,31.9c.05-.64.11-1.27.16-1.91-.14-.18-.27-.36-.41-.54.08-.21.16-.42.23-.64.42-.26.82-.24,1.22.06l-.08.23c.38.18.52.37.41.59-.11.23-.21.34-.33.34,0,.63.02,1.27.03,1.9-.41-.01-.82-.03-1.23-.04Z"/>
      <path class="cls-6" d="m104.36,30.05c.31-.06.62-.1.93-.12.37-.32.71-.27,1.02.1-.34.32-.69.64-1.03.96-.31-.31-.61-.62-.92-.94Z"/>
      <path class="cls-205" d="m101.32,28c.29.29.57.57.86.86-.29-.29-.57-.57-.86-.86Z"/>
      <path class="cls-193" d="m112.3,30.11c.38.31.75.61,1.13.92-.45.82-1.22.92-2.05.88-.03-.65-.05-1.29-.08-1.94.33.04.67.09,1,.13Z"/>
      <path class="cls-117" d="m95.49,70c-1.24.37-2.26.47-2.18-1.37.07-1.79.2-3.61-.02-5.37-.54-4.37,1.56-4.63,4.83-3.31,1.03.17,1.45.84,1.5,1.81-.51,1.13-1.25,2.19-1.13,3.53.01.46-.02.91-.06,1.36-.35,1.66-.6,3.42-2.93,3.34Z"/>
      <path class="cls-151" d="m95.49,70c1.81-.78,1.89-2.42,2.01-4.04,1.7-1.44,3.33-.56,4.97.13.65.44,1.18.95.86,1.84-.07.38-.14.76-.2,1.13-.7.86.12,2.16-.85,2.95-2.37-.5-4.44,1.71-6.86.78.78-.91.49-1.85.07-2.8Z"/>
      <path class="cls-161" d="m97.49,64.86c-.08-1.27-.53-2.74,1.5-2.94.68-.58,1.19-1.59,2.37-1,.62.65,1.25,1.3,1.87,1.95-.29.6-.46,1.29-1.11,1.66-1.51.61-3.06.59-4.63.33Z"/>
      <path class="cls-162" d="m101.36,60.93c-.79.33-1.58.66-2.37,1-.3-.66-.59-1.32-.88-1.97,1.46-.92,3.15-2.63,3.25.98Z"/>
      <path class="cls-213" d="m102.2,63.87c.34-.33.69-.66,1.03-1,.72,1.67,2,3.34.09,5.06-.28-.34-.57-.67-.85-1.01-1.05-.93-.94-1.97-.27-3.06Z"/>
      <path class="cls-183" d="m102.27,72.01c.09-1.04-.2-2.19.85-2.95.08.95.17,1.91.25,2.86-.31.72-.66.98-1.1.09Z"/>
      <path class="cls-184" d="m108.34,28.87c-.36.02-.72.04-1.08.06-.27-.25-.36-.5-.27-.75.09-.25.18-.37.28-.37,0-.35.1-.66.35-.92.2.03.39.04.59.03.04.65.09,1.3.14,1.95Z"/>
      <path class="cls-16" d="m105.31,28.99c-.65,0-1.3,0-1.95,0-.02-.38-.03-.75-.05-1.13,1,.07,2.01.15,3.01.22.26.22.36.46.3.7-.06.25-.14.38-.21.38-.41.27-.77.2-1.09-.17Z"/>
      <path class="cls-21" d="m106.3,28.95c0-.29,0-.59.01-.88.3-.15.62-.24.95-.27,0,.37,0,.75,0,1.12,0,0,.05.07.05.07-.36.39-.69.35-1.01-.05Z"/>
      <path class="cls-103" d="m102.33,48.98c-.15.27-.19.55-.12.85,0,0-.02.06-.02.06-.21.3-.5.49-.87.55-.38.03-.68-.12-.88-.45-.13-.85-.05-1.59.97-1.81.25.16.52.28.8.37,0,0,.11.43.11.43Z"/>
      <path class="cls-33" d="m103.35,48.81c-.34.06-.68.11-1.02.17,0,0-.33-.09-.33-.09-.15-.33-.1-.64.14-.91.36-.35.73-.7,1.09-1.06.05.36.1.71.15,1.07-.08.27-.1.54-.04.81Z"/>
      <path class="cls-4" d="m102.14,47.99c.08.32.03.62-.14.91-.28-.17-.48-.4-.58-.71.21-.19.45-.25.72-.19Z"/>
      <path class="cls-190" d="m100.44,49.99c.29,0,.57,0,.86,0,.21.18.3.39.28.61-.02.24-.05.35-.11.35l-.12.16c-.39.24-.72.18-1-.18-.09-.32-.06-.64.08-.94Z"/>
      <path class="cls-36" d="m100.36,50.93c.33.06.67.12,1,.18.04.27.03.54-.04.8-.34.02-.68.03-1.01.05.02-.34.04-.69.06-1.03Z"/>
      <path class="cls-36" d="m101.47,50.96c-.07-.32-.13-.64-.18-.97.29-.07.59-.1.89-.1-.24.35-.47.71-.71,1.06Z"/>
      <path class="cls-144" d="m108.34,30.04c-.02-.31-.05-.62-.08-.93.7,0,1.4,0,2.09.01-.04.31-.08.62-.1.94-.64,0-1.27,0-1.91-.01Z"/>
      <path class="cls-164" d="m106.3,28.95c.34.02.67.03,1.01.05-.01.33-.02.65-.01.98,0,0-.5,0-.5,0,0,0-.49.04-.49.04-.34-.03-.68-.06-1.02-.09,0-.32.02-.63.02-.94.33,0,.66-.02,1-.04Z"/>
      <path class="cls-13" d="m102.2,63.87c.09,1.02.18,2.04.27,3.06-1.66-.32-3.32-.65-4.98-.97,0-.36,0-.73,0-1.09,1.44-.97,3.1-.88,4.71-.99Z"/>
    </g>
  </g>
</svg>