<?xml version="1.0" encoding="UTF-8"?>
<svg id="Layer_2" data-name="Layer 2" xmlns="http://www.w3.org/2000/svg" viewBox="0 0 332.39 470.3">
  <defs>
    <style>
      .cls-1, .cls-2, .cls-3, .cls-4, .cls-5, .cls-6, .cls-7, .cls-8, .cls-9, .cls-10, .cls-11, .cls-12, .cls-13, .cls-14, .cls-15, .cls-16, .cls-17, .cls-18, .cls-19, .cls-20, .cls-21, .cls-22, .cls-23, .cls-24, .cls-25, .cls-26, .cls-27, .cls-28, .cls-29, .cls-30, .cls-31, .cls-32, .cls-33, .cls-34, .cls-35, .cls-36, .cls-37, .cls-38, .cls-39, .cls-40, .cls-41, .cls-42, .cls-43, .cls-44, .cls-45, .cls-46, .cls-47, .cls-48, .cls-49, .cls-50, .cls-51, .cls-52, .cls-53, .cls-54, .cls-55, .cls-56, .cls-57, .cls-58, .cls-59, .cls-60, .cls-61, .cls-62, .cls-63, .cls-64, .cls-65, .cls-66, .cls-67, .cls-68, .cls-69, .cls-70, .cls-71, .cls-72, .cls-73, .cls-74, .cls-75, .cls-76, .cls-77, .cls-78, .cls-79, .cls-80, .cls-81, .cls-82, .cls-83, .cls-84, .cls-85, .cls-86, .cls-87, .cls-88, .cls-89, .cls-90, .cls-91, .cls-92, .cls-93, .cls-94, .cls-95, .cls-96, .cls-97, .cls-98, .cls-99, .cls-100, .cls-101, .cls-102, .cls-103, .cls-104, .cls-105, .cls-106, .cls-107, .cls-108, .cls-109, .cls-110, .cls-111, .cls-112, .cls-113, .cls-114, .cls-115, .cls-116, .cls-117, .cls-118, .cls-119, .cls-120, .cls-121, .cls-122, .cls-123, .cls-124, .cls-125, .cls-126, .cls-127, .cls-128, .cls-129, .cls-130, .cls-131, .cls-132, .cls-133, .cls-134, .cls-135, .cls-136, .cls-137, .cls-138, .cls-139, .cls-140, .cls-141, .cls-142, .cls-143, .cls-144, .cls-145, .cls-146, .cls-147, .cls-148, .cls-149, .cls-150, .cls-151, .cls-152, .cls-153, .cls-154, .cls-155, .cls-156, .cls-157, .cls-158, .cls-159, .cls-160, .cls-161, .cls-162 {
        stroke-width: 0px;
      }

      .cls-2 {
        fill: #f70101;
      }

      .cls-3 {
        fill: #f70102;
      }

      .cls-4 {
        fill: #f70202;
      }

      .cls-5 {
        fill: #f70401;
      }

      .cls-6 {
        fill: #f70501;
      }

      .cls-7 {
        fill: #f3ef0e;
      }

      .cls-8 {
        fill: #fb0000;
      }

      .cls-9 {
        fill: #fa0101;
      }

      .cls-10 {
        fill: #fd0000;
      }

      .cls-11 {
        fill: #f2ed0a;
      }

      .cls-12 {
        fill: #fa0509;
      }

      .cls-13 {
        fill: #fc0000;
      }

      .cls-14 {
        fill: #fd0406;
      }

      .cls-15 {
        fill: #5e531c;
      }

      .cls-16 {
        fill: #968518;
      }

      .cls-17 {
        fill: #0a0803;
      }

      .cls-18 {
        fill: #100e05;
      }

      .cls-19 {
        fill: #090702;
      }

      .cls-20 {
        fill: #150101;
      }

      .cls-21 {
        fill: #070703;
      }

      .cls-22 {
        fill: #070101;
      }

      .cls-23 {
        fill: #080102;
      }

      .cls-24 {
        fill: #0c0a04;
      }

      .cls-25 {
        fill: #0c0b04;
      }

      .cls-26 {
        fill: #0b0102;
      }

      .cls-27 {
        fill: #0b0904;
      }

      .cls-28 {
        fill: #0b0a03;
      }

      .cls-29 {
        fill: #220204;
      }

      .cls-30 {
        fill: #1e1706;
      }

      .cls-31 {
        fill: #131105;
      }

      .cls-32 {
        fill: #171104;
      }

      .cls-33 {
        fill: #c4aa11;
      }

      .cls-34 {
        fill: #c4ab0d;
      }

      .cls-35 {
        fill: #c4ac07;
      }

      .cls-36 {
        fill: #c4ad06;
      }

      .cls-37 {
        fill: #cfbc15;
      }

      .cls-38 {
        fill: #cbb90d;
      }

      .cls-39 {
        fill: #cbb70c;
      }

      .cls-40 {
        fill: #c9aa04;
      }

      .cls-41 {
        fill: #cab611;
      }

      .cls-42 {
        fill: #c9a907;
      }

      .cls-43 {
        fill: #cab710;
      }

      .cls-44 {
        fill: #cab80d;
      }

      .cls-45 {
        fill: #c3ad07;
      }

      .cls-46 {
        fill: #c6b30f;
      }

      .cls-47 {
        fill: #c3ac07;
      }

      .cls-48 {
        fill: #c3af03;
      }

      .cls-49 {
        fill: #c3aa09;
      }

      .cls-50 {
        fill: #c3ae09;
      }

      .cls-51 {
        fill: #c3ad0e;
      }

      .cls-52 {
        fill: #ccb70a;
      }

      .cls-53 {
        fill: #ccb509;
      }

      .cls-54 {
        fill: #ccb713;
      }

      .cls-55 {
        fill: #c89e0a;
      }

      .cls-56 {
        fill: #c8ab04;
      }

      .cls-57 {
        fill: #bdab1a;
      }

      .cls-58 {
        fill: #bdb30c;
      }

      .cls-59 {
        fill: #bdad16;
      }

      .cls-60 {
        fill: #bdb413;
      }

      .cls-61 {
        fill: #bbb203;
      }

      .cls-62 {
        fill: #bdaa1c;
      }

      .cls-63 {
        fill: #bdad13;
      }

      .cls-64 {
        fill: #bdad15;
      }

      .cls-65 {
        fill: #bdaa1a;
      }

      .cls-66 {
        fill: #beaa0a;
      }

      .cls-67 {
        fill: #beae18;
      }

      .cls-68 {
        fill: #bead0f;
      }

      .cls-69 {
        fill: #beaf19;
      }

      .cls-70 {
        fill: #beaf0d;
      }

      .cls-71 {
        fill: #c0ab0d;
      }

      .cls-72 {
        fill: #bea802;
      }

      .cls-73 {
        fill: #c0ae19;
      }

      .cls-74 {
        fill: #c0ad16;
      }

      .cls-75 {
        fill: #bfac0b;
      }

      .cls-76 {
        fill: #bfa900;
      }

      .cls-77 {
        fill: #bfa91b;
      }

      .cls-78 {
        fill: #bfb229;
      }

      .cls-79 {
        fill: #bfb40a;
      }

      .cls-80 {
        fill: #bdac12;
      }

      .cls-81 {
        fill: #bfb126;
      }

      .cls-82 {
        fill: #bcad15;
      }

      .cls-83 {
        fill: #bcad14;
      }

      .cls-84 {
        fill: #bcad0a;
      }

      .cls-85 {
        fill: #bcab18;
      }

      .cls-86 {
        fill: #bcab15;
      }

      .cls-87 {
        fill: #bfab00;
      }

      .cls-88 {
        fill: #bfab0a;
      }

      .cls-89 {
        fill: #bbac09;
      }

      .cls-90 {
        fill: #cdb50a;
      }

      .cls-91 {
        fill: #ceba0d;
      }

      .cls-92 {
        fill: #b7ab0a;
      }

      .cls-93 {
        fill: #c1ad0e;
      }

      .cls-94 {
        fill: #b9a904;
      }

      .cls-95 {
        fill: #b8a809;
      }

      .cls-96 {
        fill: #b8a710;
      }

      .cls-97 {
        fill: #b8a70b;
      }

      .cls-98 {
        fill: #b8a704;
      }

      .cls-99 {
        fill: #b6a80d;
      }

      .cls-100 {
        fill: #b5b013;
      }

      .cls-101 {
        fill: #b6a70a;
      }

      .cls-102 {
        fill: #b8ac19;
      }

      .cls-103 {
        fill: #c2ad0a;
      }

      .cls-104 {
        fill: #c2ad11;
      }

      .cls-105 {
        fill: #c2b203;
      }

      .cls-106 {
        fill: #c2af04;
      }

      .cls-107 {
        fill: #c2a91b;
      }

      .cls-108 {
        fill: #c2af0c;
      }

      .cls-109 {
        fill: #c1ac09;
      }

      .cls-110 {
        fill: #c1ac08;
      }

      .cls-111 {
        fill: #baad10;
      }

      .cls-112 {
        fill: #ece70b;
      }

      .cls-113 {
        fill: #f20203;
      }

      .cls-114 {
        fill: #f20303;
      }

      .cls-115 {
        fill: #f20901;
      }

      .cls-116 {
        fill: #f50702;
      }

      .cls-117 {
        fill: #f50601;
      }

      .cls-118 {
        fill: #f50802;
      }

      .cls-119 {
        fill: #f50302;
      }

      .cls-120 {
        fill: #f60202;
      }

      .cls-121 {
        fill: #f60201;
      }

      .cls-122 {
        fill: #f60603;
      }

      .cls-123 {
        fill: #f60602;
      }

      .cls-124 {
        fill: #f60502;
      }

      .cls-125 {
        fill: #f60802;
      }

      .cls-126 {
        fill: #ede708;
      }

      .cls-127 {
        fill: #ede90a;
      }

      .cls-128 {
        fill: #f10e03;
      }

      .cls-129 {
        fill: #ede80b;
      }

      .cls-130 {
        fill: #f80301;
      }

      .cls-131 {
        fill: #ec0403;
      }

      .cls-132 {
        fill: #f10203;
      }

      .cls-133 {
        fill: #f30304;
      }

      .cls-134 {
        fill: #f30202;
      }

      .cls-135 {
        fill: #ee0303;
      }

      .cls-136 {
        fill: #fcf911;
      }

      .cls-137 {
        fill: #fcf90e;
      }

      .cls-138 {
        fill: #fcfa0c;
      }

      .cls-139 {
        fill: #fcfb0a;
      }

      .cls-140 {
        fill: #fefe12;
      }

      .cls-141 {
        fill: #fefc0c;
      }

      .cls-142 {
        fill: #faf811;
      }

      .cls-143 {
        fill: #fbfb03;
      }

      .cls-144 {
        fill: #fbfb06;
      }

      .cls-145 {
        fill: #faf908;
      }

      .cls-146 {
        fill: #faf803;
      }

      .cls-147 {
        fill: #fbfa08;
      }

      .cls-148 {
        fill: #eeeb0d;
      }

      .cls-149 {
        fill: #f0ec0c;
      }

      .cls-150 {
        fill: #f0ec0b;
      }

      .cls-151 {
        fill: #f40300;
      }

      .cls-152 {
        fill: #f40202;
      }

      .cls-153 {
        fill: #f40b02;
      }

      .cls-154 {
        fill: #f90404;
      }

      .cls-155 {
        fill: #f5ed2c;
      }

      .cls-156 {
        fill: #f5f111;
      }

      .cls-157 {
        fill: #f5f216;
      }

      .cls-158 {
        fill: #f80102;
      }

      .cls-159 {
        fill: #f80201;
      }

      .cls-160 {
        fill: #060101;
      }

      .cls-161 {
        fill: #050101;
      }

      .cls-162 {
        fill: #050102;
      }
    </style>
  </defs>
  <g id="Layer_1-2" data-name="Layer 1">
    <g>
      <path class="cls-45" d="m55.59,435.67c-8.3-4.45-14.98-10.93-21.76-17.3q-7.51-7.06-.02-14.98c.68.25,1.18.7,1.52,1.35,1.04,2.49.27,5.55,2.41,7.7,10.46,8.63,16.36,6.5,24.04-9.33-3.7,2.06-4.96,5.31-6.96,7.84-3.2,4.05-7.25,5.65-11.58,2.55-4.38-3.13-1.79-6.88.24-10.34,1.8-3.07,5.01-5.29,5.61-9.07-1.53-1.27-3.2.13-4.63-.58-.29-.22-.58-.45-.87-.68,6.43-8.29-.16-13.12-4.72-18.77-19.1-23.69-32.17-50.12-35.98-80.68,1.45-3.12.1-6.47.79-9.41-.03-1.3-1.75.08-.77-.31.21-.08.33.09.35.54.13,2.22.96,4.52-.76,6.52-1.74-3.68-1.36-7.61-1.33-11.5.14-8.41.13-16.82,0-25.23.01-3.89-.37-7.82,1.31-11.51,1.83,1.56.6,3.66,1.21,6.56-.43-3.3.57-5.66-1.03-7.7,5.17-38.9,23.2-71.06,51.25-97.94,1.88-1.8,3.95-3.41,5.94-5.11,1.18-2.51,2.84-4.64,4.89-6.49,1.49-1.39,2.96-2.8,5.08-3.19,2.01-.08,4.01-.57,6.04-.2,1.01.11,2,.26,3.02.21,8.75-.41,8.86-.25,4.83,7.73-1.38,2.91-4.28,4.36-6.34,6.63-3.13,2.15-5.94,4.75-9.31,6.55-2.02.75-3.41,2.17-4.31,4.11-.91,1.53-2.29,2.55-3.77,3.45-1.99,1.11-3.94,2.27-4.54,4.74-.3.65-.77,1.11-1.43,1.38-1.13.2-2.04-.14-2.7-1.1-.87-2.03-1.22-4.09-.29-6.21-1.29,2.59-.69,4.91,1,7.08,1.09,3.17-1.32,5.04-2.68,7.3-18.91,24.56-30.21,52.13-32.75,83.16-2.3,15.61.68,31.05,1.54,46.53.6,2.34-2.06,5.34,1.45,7.12,2.8,2.39,2.52,6.25,4.36,9.1.3.65.52,1.32.69,2.01.53,4.28,1.56,8.42,3.47,12.31,6.13,9.92,12.08,19.94,18.39,29.75,7.61,6.69,11.89,16.5,20.75,22,.95.54,1.81,1.2,2.62,1.93,5.65,5.26,11.78,9.93,18.07,14.39,1.94.75,3.89,1.47,5.77,2.36.63.28,1.23.63,1.82,1,2.78,1.93,5.15,4.57,8.8,4.97,2.16.5,4.2,1.32,6.25,2.14,2.91,1.21,5.92,2.05,8.95,2.89,23.46,8.84,47.75,7.77,72.08,6.15,1.81.16,3.21,1.31,4.78,2.06.36.17.86.65,1.38.17-.82-.04-1.35-.46-1.64-1.23,4.29-5.33,11.36-4.04,16.62-7.05,2.87-.65,5.74-1.31,8.21-3.07,2.19-1.38,4.61-2.24,7.02-3.13,14.41-5.36,26.66-14.05,37.67-24.62.68-.84,1.45-1.59,2.29-2.27,2.82-2.06,5.2-4.62,7.67-7.06,1.19-1.17,2.41-2.31,3.58-3.5,1.64-1.55,3.11-3.24,4.23-5.22.33-.56.72-1.08,1.12-1.59,1.57-1.66,2.83-3.53,3.74-5.63.49-.92,1.11-1.73,1.81-2.49,1.73-1.73,3.03-4.12,5.99-3.97,3.08,1.32,2.08,3.19,1.31,4.38.56-4.36,3.7-7.54,8.95-6.85,4.04.53,1.46,4.07,1.67,6.3-4.91,9.81-11.63,18.39-19.19,26.17-4.48,4.61-6.67,8.18-.4,12.74.84.61.93,2.26,1.37,3.44-.23.29-.46.58-.68.87-2.14.95-4.04-.19-6.04-.67-6.3-1.52-11.31.77-13.48,6.08-2.15,5.27.33,12.21,5.97,15.5,5.03,2.93,9.93,2.9,13.9-2.12.65-.82,1.21-1.7,1.85-2.53,4.03-5.43,5.95-1.42,8.05,1.81.57,1.86-1.05,2.58-1.92,3.69-14.08,13.98-30.98,23.52-48.99,31.33-4.27,1.13-7.19.67-5.8-4.91.84-1.53,3.01-3.1,2.21-4.67-3.38-6.61-3.66-15-10.82-19.47-3.89.64-7.64,4.13-11.72.57-1.51,4.27-6.32,4.43-8.98,7.27-1.77,1.34-3.64,2.48-5.68,3.36-1.01.42-2.06.71-3.12.98-4.81,1.46-2.64,5.47-3.08,8.51-.29,2-.02,4.49-2.48,5.15-2,.54-3.18-1.34-4.38-2.67-1.04-1.15-1.97-2.4-3.1-3.47-1.29-1.22-2.54-3.15-4.47-2.6-2.63.75-1.16,3.61-2.01,5.36-.69,1.78-1.55,3.42-3.65,3.87-1.52-.34-2.47-1.49-3.52-2.49-2.21-3.2-5.67-5.04-8.39-7.66-1.87-2.02-3.77-1.86-5.67-.01-3.23,2.98-5.21,7.4-9.99,8.56-2.13-1-3.04-3.04-4.19-4.87-3.47-4.41-5.86-2.47-8.25,1.22-1.47,2.27-.49,6.58-5.06,6.41-1.2-1.34-.45-2.86-.4-4.32.02-1.5-.02-2.99.06-4.49q3.41-7.81-.34-11.25c2.17,1.57,5.22,3.24,2.03,6.94-1.95,2.54-1.84,5.52-1.82,8.48-.03.78-.37,1.39-1.02,1.83-3.33-.79-2.91-3.69-3.27-6.04-.44-2.82-1.44-4.82-4.74-4.48-3.11.42-2.2,4.73-5.68,5.46-2.6-3.43-3.67-8.32-8.1-10.71-3.44-1.86-6.32-3.78-9.4.56-1.23,1.74-3.06,4.12-5.59,1.13-.41-1.06-.42-2.13-.07-3.19.43-1.1,1.57-2.15.21-3.37-1.19-1.1-2.46-2.08-3.76-3.04-.43-.3-.82-.65-1.23-.95-9.76-7.16-10.36-6.98-15.76,3.43-1.86,3.58-2.86,7.91-7.18,9.71-4.77,1.48-9.17,5.74-14.63,1.91Z"/>
      <path class="cls-80" d="m294.22,110.51c-8.08,7.7-14.44,17.11-23.58,23.76-2.23.01-3.91-1.27-5.66-2.39-2.25-1.7-4.71-2.99-7.39-3.83-1.86-1.48-3.81-2.83-6.13-3.54-1.29-.51-2.47-1.21-3.61-1.98-1.71-1.16-3.46-2.24-5.21-3.34-4.24-2.46-9.03-3.69-13.34-5.96-2.57-1.17-5.28-1.96-7.96-2.82-3.03-1.07-6.07-2.11-9.17-2.98-.71-.18-1.41-.4-2.1-.64-2.12-.79-4.37-1-6.55-1.55-5.11-.94-10.39-1.02-15.33-2.87-3.28-1.28-6.7-.76-10.08-.84-8.2,0-16.4,0-24.59.02-5.98-.03-11.76,1.59-17.66,2.22-2.66.74-5.48.61-8.11,1.54-4.2,1.38-8.71,1.89-12.53,4.37-.65.37-1.33.68-2.01.96-3.38,1.48-6.64,3.34-10.48,3.34-2.84.19-5.46,1.18-8.06,2.23-1.29.58-2.56,1.18-3.83,1.8-1.98.85-3.95,1.86-6.17.76-1.26-2.35-1.85-5.08-3.84-7.06-.68-2.55.98-3.86,2.7-5.15,1.74-1.3,3.65-2.84,2.16-5.16-1.88-2.93-4.15-.76-6.17.17-4.05,1.88-7.75,4.4-11.59,6.66-2.09,1.23-5.73,1.82-4.62,5.3,1.06,3.34,4.54,1.51,6.92,2.03,4.99.86,10.72-.04,13.62,5.77-.65,4.47-4.09,5.07-7.62,5.55-1.43-.07-2.73-.55-3.89-1.37-1.01-1.1-1.76-1.09-2.12.57-.89,3.34-5.47,3.04-6.27,6.45-.94,1.48-1.6,3.34-3.95,2.83-7.16-8.2-14.31-16.39-21.47-24.59.73-3.52,3.75-4.76,6.35-6.4,15.39-9.75,32.03-17.01,48.64-24.35,30.07-10.48,60.77-15.6,92.68-11.64,5.72.71,11.43,1.41,17.1,2.37,4.85,1.46,9.89,2.15,14.79,3.41,15.63,4.14,30.68,9.84,45.19,16.95,2.77,1.36,5.78,2.46,7.65,5.19,1.56,2.15-1.76,3.92-.52,6,.28.32.52.73.69,1.18.23-.83-.89-.87-.92-1.6.34-2.12,1.69-3.11,3.65-3.44,7.29,3.17,15.86,4.2,20.35,12.09Z"/>
      <path class="cls-47" d="m307.99,353.31c-2.43-1.09.77-5.68-1.57-4.75-2.34.93-6.87-.64-7.32,3.78-.37,3.68-2.63,5.12-5.61,6.25-1.48-3.55,6.38-4.47,1.87-8.48-1.71-5.72,3.7-8.72,5.03-13.29.29-.65.63-1.27.97-1.89,1.33-2.21,1.86-4.65,2.07-7.19,2.93-13.32,9.88-25.25,11.69-39.12,4.82-36.94-2.3-71.23-21.51-102.74-8.29-13.6-18.89-25.77-30.16-37.16-.78-1.64-1.8-3.39-.52-5.11.9-1.21,1.93-.8,6.44,2-5.11-3.36-8.18-9.2-14.87-10.89-3.29-.83-2.5-4.58-.34-7.13.64-.36,1.33-.49,2.05-.4,2.56,1.83,5.97,1.99,8.33,4.22,1.78,1.57,4.13,2.35,5.77,4.12,24.36,21.16,43.2,46.26,53.05,77.26,15.58,49,11.29,96.05-15.38,140.53Z"/>
      <path class="cls-63" d="m183.86,32.71c-10.7,8.72-6.65,20.77-7.15,31.8-6.95,3.84-13.93,3.7-20.92.12,0-5.23-.02-10.46-.03-15.69,0-4.87.49-9.3-5-12.72-4.91-3.06-4.65-10.73.27-14.24,4.33-3.09,5.28-6.65,4.91-11.25-.45-5.59,2.14-9.22,7.46-10.27,5.34-1.05,10.5-.64,12.73,5.74-2.15,2.91.05,6.45-1.22,9.5,1.12-2.66-.85-5.89,1.37-8.35.49,6.51.58,13.19,7.56,16.77,1.28,2.86,1.24,5.73.02,8.6Z"/>
      <path class="cls-63" d="m223.15,40.59c5.75-3.7,11.18-6.96,14.55-14.02,2.62-5.48,9.9-3.67,14.64-.32,6,4.24,5.02,9.65,1.05,14.95-.3-.31-.62-.59-.97-.85-.06.79,1.04-.03,1.01.73-1.43,3.92,3.34,5.74,3.11,9.25.12,1.61-1.26,3.14-.25,4.8.05,2.46-1.56,4.42-3.46,4.64-10.53,1.21-11.3,10.46-14.85,17.45-6.25,2.67-11.15-2.42-16.86-2.91-.72-.21-1.39-.53-2.03-.93-.46-.34-.66-.74-.63-1.19.04-.47.12-.71.24-.71,1.5-6.59,8.74-11.81,4.66-19.72-.95-.75-.82-1.75-.65-2.76.47-2.18,1.3-4.35.08-6.56-.11-.66,0-1.28.35-1.85Z"/>
      <path class="cls-63" d="m109.84,45.68c-3.57,9.07-2.54,17.58,3.04,25.56-3.53,4.81-13.97,7.92-20.12,5.99-2.94-6.71-3.89-14.35-12.6-17.55-4.9-1.8-5.47-7.34-2.85-12.16,1.29-2.37,2.21-4.15.76-7.09-4.02-8.14-2.47-11.22,6.64-15.06,2.14.57,4.2-.45,6.32-.35.95.3,2.59.38,2.76.93,2.33,7.48,8.67,11.02,14.46,15.11,2.04,1.02-1.48,3.96,1.6,4.62Z"/>
      <path class="cls-50" d="m98.83,430.71c.57.75,1.29.89,1.98.27,2.72-2.44,3.69-8.63,9.08-5.56,5.18,2.95,11.78,5.26,11.31,13.64,2.3-2.16-.05-6.61,4.32-6.78,1.52,7.75.9,15.2-3.1,22.18-1.23.61-2.32.21-3.36-.47-2.51-1.98-3.34-4.84-3.74-7.93.37,4.16,3.36,7.75,1.95,12.17-.31.68-.78,1.22-1.39,1.65-3.17,1.71-6.27-2.02-9.45-.14-14.3-4.44-28.17-9.88-40.92-17.89.86-2.51-.41-5.98,3.27-7.22,3.07-.05,5.24,2.06,7.76,3.29,8.31,4.06,11.74,3.06,16.57-5.04.92-1.54,1.41-3.39,3.3-4.14,1.42-.09,1.71,1.2,2.42,1.98Z"/>
      <path class="cls-63" d="m35.46,107.35c-6.84-7.62-13.56-15.35-20.57-22.81-4.63-4.93-4.03-9.55.45-13.71,4.36-4.04,9.58-4.85,13.96-.18,3.28,3.5,6.6,5.12,11.49,5.1,5.89-.03,8.52,4.43,7.79,9.65-.69,4.92,1.04,8.04,4.41,10.9-4.08,6.49-10.21,9.73-17.53,11.06Z"/>
      <path class="cls-63" d="m279.8,95.98c3.28-2.87,6.29-5.87,4.9-10.85,2.23-.93,2.18-1.98.18-3.15.21-6.21,4.58-7.1,9.27-6.73,3.14.25,5.27-.31,7.52-2.7,7.11-7.55,10.79-7.21,17.89,1.06,1.01,2.19,1.48,4.5,1.62,6.9-6.72,9.94-16.15,17.45-23.76,26.59-7.37-1.32-13.71-4.28-17.62-11.11Z"/>
      <path class="cls-144" d="m92.76,77.23c6.99-1.03,13.89-2.39,20.12-5.99,5.8-1.22,11.59-2.45,17.39-3.67,3.02-2.46,6.21-3.83,9.97-1.57,5.19-.46,10.37-.92,15.56-1.38,6.97-.04,13.95-.08,20.92-.12,5.52.55,11.03,1.09,16.54,1.64,3.03-1.36,5.62-.31,8.07,1.49,3.7,1,7.4,1.99,11.1,2.99-1.77,4.61-5.16,2.39-8.13,1.92-10.34-1.06-20.66-2.58-31.03-3.08-27.65-1.33-54.33,4.03-80.46,12.63-1.91.46-4.14,2.03-4.94-1.41,2.41-.04,3.63-1.78,4.89-3.45Z"/>
      <path class="cls-103" d="m243.82,444.76c-1.85,4.83,2.23,4.03,4.6,4.86-5.3,3.63-11.25,5.76-17.32,7.62-2.39-.79-5.9.05-5.95-4.12,1.32-5.42-.55-10.27-2.54-15.17-1.55-3.83-3.65-7.85,1.45-11.5-4.56-.2-7.88,3.92-11.8.98.9-2.1,2.76-3.37,4.72-3.71,4.38-.74,2.56-2.9-.14-7.17,7.03,6.02,12.2,4.33,17.32,1.51,2.15,9.28,8.66,16.98,9.66,26.68Z"/>
      <path class="cls-109" d="m226.3,452.38c-.31,3.5,3.26,3.18,4.79,4.86-7.15,2.45-13.97,5.93-21.63,6.73-2.75.39-5.94,2.42-7.38-2,.31-2.42,2.47-2.87,4.11-3.87,1.2-.98,3.06-1.4,3.02-3.4,0-.16-1.37.05-2-.5-2.34-3.82-2.86-8-2.59-12.36,1.07-3.09.35-6.63,2.36-9.48,9.52-2.53,10.71-2.09,14.14,6.58,1.77,4.49,4.81,8.82,2.96,14.1-.22.46-.51.89-.84,1.29-.33.4-.72.74-1.17,1.02.39-.16.65-.48,1-.76.92-1,1.46-2.48,3.21-2.19Z"/>
      <path class="cls-82" d="m140.23,66c-3.32.53-6.65,1.05-9.97,1.57-.46-7.11-1.67-13.91-7.6-18.8.42-2.66-.43-5.27-.38-7.91,1.52-7.66,7.93-6.79,12.59-5.79,5.47,1.18,6.82,7.7,4.83,11.41-3.81,7.11-.61,13.08.52,19.52Z"/>
      <path class="cls-147" d="m279.8,95.98c5.87,3.7,11.75,7.41,17.62,11.11.46,2.58-.9,3.44-3.2,3.42-6.06-5.06-13.88-6.94-20.35-11.27-.95-.77-2.62-.17-3.18-1.68-15.22-9.24-31.85-15.06-48.74-20.28-1.2-.37-2.32-1-3.47-1.51.02-.32.03-.64.05-.95.24-.98.95-1.62,1.62-2.3,5.95,1.56,11.89,3.13,17.84,4.69,6.47,2.55,12.94,5.1,19.4,7.65,3.2.09,6.08.9,8.12,3.61,4.36,3.28,9.09,5.82,14.29,7.49Z"/>
      <path class="cls-59" d="m201.33,67.64c-2.84.34-5.61.24-8.07-1.49.66-2.64,1.32-5.28,1.98-7.91.49-2.64,1.52-5.33-.73-7.71-4.29-4.95-3.41-9.73,1.15-13.68,4.17-3.62,8.83-2.9,12.78.61,3.71,3.29,4.22,8.81,1.01,11.14-4.42,3.21-4.74,7.52-6.47,11.56-.67-.72-1.37-1.42-1.88-2.27.52.84,1.25,1.48,1.93,2.18.3,2.72-2.87,4.66-1.7,7.57Z"/>
      <path class="cls-71" d="m150.36,468.73c-7.92.1-15.67-.95-23.18-3.56-1.42-1.87-3.65-2.84-5.16-4.64-.1-.74.08-1.39.54-1.97,1.26-.9,2.69-1.04,4.17-.93,1.43.15,2.79.61,4.19.87,2.4.49,4.84-.47,7.23.21.51,2.11,1.63,2.61,3.42,1.29,3.9.33,4.34-2.65,5.15-5.34.87-2.86.12-6.18,2.44-8.63,1.54-.65,2.86-.39,3.97.88,1.92,3.11,2.92,6.66,4.6,9.89,2.48,4.77,6.51,7.27,11.75,8.01,4.22,2.33,4.24,2.38,1.76,4.53-6.97-.33-13.97.7-20.9-.62Z"/>
      <path class="cls-64" d="m265.51,88.48c-3.14-.22-5.86-1.39-8.12-3.61.76-2.03,1.52-4.06,2.28-6.09.01-3.14.21-6.26.37-9.39,3.34-4.61,8.01-4.82,12.54-2.9,3.47,1.47,5.67,4.86,5.39,8.83-.33,4.62-2.93,7.68-7.75,8.49-2.64.44-3.97,2.28-4.71,4.68Z"/>
      <path class="cls-108" d="m172.87,468.56c-1.57-1.01-3.15-2.02-4.72-3.03,3.3-3.28,6.66-6.49,10.31-9.37,3.39-.21,3.28-5.93,7.51-4.83.73.93,1.07,2,1.2,3.16.13,2.76-.47,5.3-2.25,7.47-.62.69-1.52.63-2.33.81,1.62.47,2.79-.72,4.17-1.16,5.06-1.74,3.17-5.65,2.88-9.1-.19-2.21-1.39-4.99,1.34-6.24,2.75-1.26,4.26,1.29,5.48,3.13,2.33,3.5,7.19,5.52,6.52,10.83.07,4.89,3.92,3.19,6.48,3.74-7.26,2.69-14.78,4-22.49,4.3-3.77-1.33-7.34-.02-10.95.84-1.13.24-2.23.38-3.16-.55Z"/>
      <path class="cls-145" d="m87.86,80.69c1.31,1.65,3.22,1.18,4.94,1.41-15.77,7.82-32.17,14.42-47.02,24.06-2.4,1.56-4.82,3.07-7.23,4.6-2.25-.02-2.91-1.49-3.09-3.4,5.84-3.69,11.69-7.37,17.53-11.06,4.74-2.62,9.49-5.24,14.23-7.86,2.39-2.78,5.14-4.71,9.08-3.88,4-.84,7.29-3.83,11.56-3.87Z"/>
      <path class="cls-83" d="m65.37,85.32c-9.71-4.51-11.91-7.75-9.74-14.36.83-2.53,1.79-4.88,5.02-4.92,2.6-.8,5.18-1.19,7.72.21,2.69,2.59,7.34,4.13,5.04,9.41-.42.47-.94.61-1.51.49-1.29,1.62-.26,3.95-1.65,5.54-1.26,1.71-1.71,4.52-4.88,3.63Z"/>
      <path class="cls-104" d="m298.91,414.92c-2.66,2.01-2.63-6.51-6.04-1.55-3.01-5.35-4.25-11.08-3.65-17.2,0,0,.55-.51.55-.51,5.68,2.01,8.43,7.09,11.89,11.41-1.2,2.51-.2,5.8-2.74,7.85Z"/>
      <path class="cls-72" d="m1.18,253.99c2.51,8.41,2.51,16.82,0,25.23-1.61-8.41-1.52-16.82,0-25.23Z"/>
      <path class="cls-69" d="m65.37,85.32c2.02-1.04,2.54-3.15,3.52-4.93,2.26-.77,2.08-3.17,3.14-4.74.46,0,.92,0,1.38,0-.67,3.5.3,6.46,2.89,8.9-3.03,1.29-6.05,2.59-9.08,3.88-.62-1.04-1.24-2.08-1.85-3.12Z"/>
      <path class="cls-93" d="m172.87,468.56c1.06,0,2.12-.02,3.19-.03,1.81-.93,3.57-1.23,5.23.31-10.32,1.98-20.63,1.95-30.94-.12,7.5-.05,15.01-.11,22.51-.16Z"/>
      <path class="cls-39" d="m35.78,400.72c2.16-3.07,3.4-7.05,7.81-7.89,0,0,.63.43.63.43,1.65,4.67-.91,7.35-4.5,9.56-1.71.05-3.03-.65-3.94-2.1Z"/>
      <path class="cls-106" d="m298.91,414.92c.69-2.69-1.85-6.52,2.74-7.85.91,2.19,4.47,2.94,3.35,6.22-2.03.62-3.59,1.76-4.27,3.88-.79,1.35-2.19.84-3.34,1.12.5-1.12,1.01-2.25,1.51-3.37Z"/>
      <path class="cls-50" d="m55.59,435.67c5.73,2.34,9.45-4.07,14.8-3.4.66,1.3-.08,1.89-1.16,2.31-3.83.02-2.9,5.63-6.68,5.71-2.32-1.54-4.64-3.08-6.96-4.63Z"/>
      <path class="cls-48" d="m122.46,460.7c3.25-.29,5.07.94,4.72,4.47-3.14-.52-6.28-1.03-9.43-1.55-1.09-5.27,1.87-4,4.71-2.92Z"/>
      <path class="cls-147" d="m204.3,72.55c2.75-.46,5.98,1.1,8.13-1.92,2.09.29,4.19.57,6.28.86.08.26.12.52.12.79-1.57.54-1.63,1.31-.24,3.33,0,0-.12.18-.12.18-4.9-.29-9.65-1.25-14.17-3.23Z"/>
      <path class="cls-93" d="m122.46,460.7c-2.16.02-4.47-.22-4.71,2.92-.91.31-1.47-.03-1.74-.92-.79-1.23-.8-2.42.15-3.57h0c2.31-1.49-1.36-5.93,3.13-6.35.6.68,1.2,1.36,1.81,2.05.77,1.39.11,3.22,1.37,4.46,0,.47,0,.95,0,1.42Z"/>
      <path class="cls-45" d="m62.54,440.29c2.04-2.37,2.59-6.41,6.94-6.19l.21.73-.54.53c-3.8.7,1.19,6.36-3.64,6.48-1.27.02-2.55.05-2.97-1.56Z"/>
      <path class="cls-48" d="m116.16,459.12c-.05,1.19-.1,2.38-.15,3.57-3.19-.98-6.39-1.97-9.58-2.95,2.96-4.65,6.55.6,9.73-.62Z"/>
      <path class="cls-92" d="m260.03,69.39c2.57,3.24,1.19,6.32-.37,9.39-2.02-3.22-2.22-6.36.37-9.39Z"/>
      <path class="cls-95" d="m122.28,40.86c2.6,2.52,2.4,5.17.38,7.91-1.9-2.55-2.25-5.18-.38-7.91Z"/>
      <path class="cls-73" d="m35.78,400.72c1.04.36,2.09.72,3.13,1.07,1.59,3.18.47,5.46-2.37,7.17-2.68-.76-.58-3.76-2.3-4.97,0,0-.44-.6-.44-.6.66-.89,1.31-1.78,1.97-2.67Z"/>
      <path class="cls-102" d="m223.29,48.84c.03.97.05,1.95.08,2.92-3.35-3.66-3.47-7.38-.22-11.16.05.64.1,1.28.15,1.92,1.54,2.11,1.1,4.22,0,6.32Z"/>
      <path class="cls-101" d="m176.28,7.33c-.22,3.3-.43,6.59-.65,9.89-.83-3.77-2.5-7.6.5-11.04.37.34.42.72.15,1.15Z"/>
      <path class="cls-149" d="m270.32,135.52c-2.36-.31-4.54-1.03-6.15-2.92-.37-1.53.05-2.28,1.75-1.76,1.58,1.14,3.15,2.29,4.73,3.43-.02.44-.12.86-.32,1.25Z"/>
      <path class="cls-87" d="m2.5,290.71c.18-2.79.37-5.57.55-8.36,1.07,3.74,2.31,7.48-.17,11.02-.13-.89-.26-1.78-.38-2.67Z"/>
      <path class="cls-77" d="m284.88,81.97c1.67.61,4.35-2.62,4.89.75.19,1.19-2.13,4.14-5.07,2.4.06-1.05.12-2.1.18-3.15Z"/>
      <path class="cls-71" d="m181.29,468.85c-1.75-.1-3.49-.21-5.23-.31,3.58-2.43,7.23-2.11,10.92-.27-1.89.19-3.79.38-5.68.58Z"/>
      <path class="cls-97" d="m321.18,80.5c-2.58-1.82-1.57-4.48-1.62-6.9,2.9,1.74,3.53,4.02,1.62,6.9Z"/>
      <path class="cls-99" d="m91.02,25.02c-1.98,2.38-4.1,2.32-6.32.35,2.05-1.15,4.12-2.03,6.32-.35Z"/>
      <path class="cls-104" d="m300.74,417.17c-.27-3.16-.66-6.45,4.27-3.88-.62,2.17-2.5,2.97-4.27,3.88Z"/>
      <path class="cls-140" d="m60.02,135.35c.89-.87,1.78-1.74,2.67-2.61.9-1.25,1.9-1.02,2.93-.19-1.1,2.74-3.42,4.26-5.77,5.74.06-.99.11-1.96.17-2.94Z"/>
      <path class="cls-62" d="m109.84,45.68c-1.42.08-3.65.76-4.13.12-2.15-2.88,3.63-2.03,2.53-4.75,1.72,1.13,1.81,2.83,1.6,4.62Z"/>
      <path class="cls-78" d="m183.86,32.71c0-2.87-.01-5.73-.02-8.6,2.52,2.86,2.37,5.73.02,8.6Z"/>
      <path class="cls-76" d="m2.66,241.33c2.5,2.21,1.64,4.93.51,7.68-.23-2.18-.45-4.36-.68-6.54-.26-.43-.2-.81.17-1.14Z"/>
      <path class="cls-67" d="m194.51,50.52c3.14,2.3,2.41,4.96.73,7.71-.24-2.57-.48-5.14-.73-7.71Z"/>
      <path class="cls-98" d="m256.3,55.13c-2.01-1.71-1.87-3.3.25-4.8,1.52,1.68,1.06,3.26-.25,4.8Z"/>
      <path class="cls-81" d="m68.38,66.25c-2.57-.07-5.15-.14-7.72-.21,2.62-1.59,5.21-2.29,7.72.21Z"/>
      <path class="cls-10" d="m228.1,407.25c-1.97,1.05-3.93,2.1-5.9,3.15-2.89.71-6.07.59-8.37,2.96-5.32,3.74-12.09,3.28-17.73,6.1-.76,1.22-1.7,1.02-2.7.34-17.62,2.2-35.26,2.86-52.85-.15-7.8-1.33-15.56-2.95-22.81-6.33-1.22-4.91-5.84-.82-8.06-3.05-2.04-.63-4.08-1.26-6.12-1.89-1.3-2.22-6.63-2.01-4.02-6.73.19-.35-.93.18-1.25.41-1.4,1-2.81,1.24-4.35.41l.06.05c-1.69-1.31-2.49-4.06-5.43-3.39-5.21-3.57-9.88-7.72-13.82-12.66-.48-1.61-.14-3.32-.52-4.94-.56-2.36-2.86-2.23-4.46-3.08-2.25-1.16-4.11-2.77-5.58-4.85-.36-.65-.54-1.34-.51-2.09.69-1.87,2.27-2.73,3.93-3.5,2.46-1.99,6.76.82,8.42-3.26.21-1.02.6-1.96,1.12-2.85.41-.61.93-1.08,1.55-1.45.68-.27,1.38-.39,2.1-.39.99-1.7,3.38,4.95,3.92-.73.17-1.84,1.63-3.61,3.38-4.73.47-.21,1.15.3,1.47-.2.11-.18-.47-.7-.85-1.01-.24-.59-.35-1.19-.33-1.82.12-.64.36-1.22.75-1.72,2.49-1.15,1.63-2.27-.07-3.39-3.51-3.5-8.61-5.82-8.64-11.84,4.18-8.5,3.41-10.31-5.06-13.16-1.97-.66-4.12-.04-5.94-1.22-4.75-5.02-6.79-11.1-7.07-17.89,2.46-13.61.92-27.1-1.21-40.57-.62-3.94-1.35-8,.35-11.63,2.13-4.56,1.07-8.65-.55-12.87,1.04-11.43,5.39-21.42,13.13-29.91,4.04-2.25,9.22-.45,13.16-5.11,1.63-1.92,5.87,3.63,7.74,7.09.54,1-.91,4.21,2.48,2.11.64-.39,2.2.61,2.58,1.48,3.28,7.57,11.13,10.44,16.29,16.08,6,6.57,12.78,12.39,18.5,19.24.69.82,1.03,1.81,1.03,2.88.09.83-1.53.95-.86,2.04-.31-1,.55-1.15,1.12-1.54,4.83,1.51,8.43,4.15,8.97,9.64-3.28-.23-.91,4.56-4,4.53-1.56.23-3.01,1.09-4.6.95-4.65-.41-5.8,1.98-5.67,6.19.25,8.39.12,16.79.06,25.18-.02,3.11.45,6.34-1.5,9.15-5.28.22-3.45-4.24-3.56-6.43-.51-9.89-.03-19.81-.29-28.01-1.03,13.19,2.36,28.25-1.89,43.01-.28.72-.71,1.34-1.27,1.86-3.55,1.05-6.56,2.44-9.71-2.02-1.46-2.07-6.62.92-10.01-.73-2.03-1.11-3.17-2.76-3.15-5.12.92-11.59-.42-23.23.74-34.8.19-2.64,4.28-4.92,1.73-7.52-2.87-2.93-6.7-.12-10.1-.1-.65.12-1.31.16-1.96.17-2.4-.06-1.98,1.52-1.68,3.03,2.49,11.25,2.6,22.47-.07,33.68-.06,1.87.02,3.75-.01,5.62.21,2.63-1.47,5.36.47,7.88,2.68,2.74,8.45,2.86,7.39,8.73,7.3-3.8,12.64,6.14,19.92,2.85,1.07-.48,2.47-1.01,3.35-.16-3.94-.69-8.64,1.93-12.62-1.51.86-3.46,3.91-2.68,6.26-3.23,6.75-.75,13.21-2.44,19.24-5.64,3.81-1.75,6.55.09,9.04,2.73.95,1.11,2.16,2.02,2.67,3.47,4.77,5.16,7.95,4.8,11.19-1.3,1.92-1.6,4.17-3.11,3-6.12-.8-2.08-2.46-.97-3.84-.68-1.02.28-2.05.5-3.08.39-1.99-.21-4.79.03-4.92-2.58-.14-2.95,3.64-.28,4.45-1.94-3.04.07-6.01.45-4.68,5.17.56,1.97-.44,4.14-3.1,4.56-1.13-4-7.06-3.4-7.63-7.96-.04-2.02.37-3.78,2.55-4.49.23,0,.49,0,.75.02.25.03.5.1.75.15-3.4-12.3-1.01-24.86-1.55-37.28-.13-3.03-.07-6.47,4.12-7.29,1.61-.93,2.85-2.13,2.9-4.17,5.87-.22,8.03,3.98,9.99,8.39-.17.8-.67,1.34-1.44,1.65.82.19.85-.87,1.52-.96,2.78-.21,5.09,1.81,7.85,1.55,2.24,1.59,2.01-2.28,3.76-1.74,1.84.11,2.84-.68,2.72-2.64.56-1.75,1.55-3.12,3.32-3.8,5.37.26,7.91-2.92,9.19-7.62.14-.66.49-1.17,1.05-1.52,1.18-.33,2.17-.86,2.3-2.29.37-.54.85-.91,1.46-1.14,2.15-.28,3.22-1.91,4.35-3.47,6.37-2.77,9-8.99,12.86-14.07.37-.62.89-1.08,1.55-1.37,3.98-1.39,5.84-4.86,7.94-8.1.37-.63.89-1.09,1.56-1.38,3.9-1.45,6.2-4.46,7.86-8.09.38-.64.91-1.1,1.58-1.42,5.24-5.92,13.07-7.88,19.13-12.52,1.78-1.37,2.89-.36,3.94.76,4.07,4.38,10.7,6.39,11.98,13.42.35,1.93,3.36,2.42,3.83,4.68-.35.63-.42,1.5-1.34,1.69.96.07.91-1.06,1.62-1.36.75-.16,1.43-.12,2.12.12,4.02,3.22,4.73,7.81,5.23,12.48-.01.78-.05,1.57-.28,2.32-1.62,5.19-4.21,10.53,3.27,13.63,1.03.43,1.47,2.09,2.04,3.29,4.05,14.76,1.47,29.01-3.31,43.08-1.69,2.52-2.62,5.28-2.38,8.37-.71,2.95-.52,6.29-3.5,8.26-2.29,1.07-4.88,1.24-6.82,3.42-1.85,2.07-11.15,2.21-13.87.67-.69-.39-.73-1.25-.2-1.97q-.01,7.63,5.8,11.53c.85.57,1.96,1.06,1.62,2.31-.29,1.07-1.32,1.72-2.34,1.71-3-.04-6.19.77-8.78-1.6-1.93-5.27-2.99-10.98-7.45-14.99-.03-1.64.37-3.1,1.83-4.05,4.21,1.52,6.02-.97,7.35-4.44.61-.76-.41-.19-.44.01-.2,1.63-1.14,3.25-2.82,3.3-3.08.11-2.66-2.52-2.92-4.52.04-.73.16-1.44.32-2.15.86-7.2,7.23-13.13,4.82-21.02-.32-.45-.55-.78-.65-.94.21.21.45.58.74,1.16.1,3.22.33,6.43-2.48,8.76-.77.16-1.43-.05-1.95-.65-1.39-2.93-1.43-6.59-4.62-8.56-6.03-8.44-14.6-11.13-24.49-11.02-4.4.05-8.83.28-13.19-.69-3.82-1.25-5.26.31-5.25,4.13.05,15.65.05,31.3,0,46.95-.02,4.12,1.78,5.57,5.69,5.37,6.75-.35,13.54.4,20.27-.5.74-.2,1.5-.31,2.25-.38,3.84,3.35,7.1,2.19,10.04-1.35.83-.63,1.68-1.25,2.62-1.67,2.02-.91,3.02-4.52,5.6-3.21,2.62,1.33,2.53,4.68,1.7,7.02-1.3,3.67,3.37,1.2,3.04,3.46,3.41,2.11,8.03,2.81,9,7.76.12.73.08,1.46-.06,2.19-1.17,3.32-3.28,5.71-6.76,6.7-2.62.57-3.54-3.22-6.25-2.43-6.21,4.58-6.4,10.68-.57,14.94,5.68,4.16,8.95,10.89,15.82,14.02,3.38,1.54,3.05,5.59,1.43,9.04-1.47,3.12-3.61,5.69-5.91,8.17-.48,7.08-3.77,11.28-11.2,12.38-3.88.57-7.04,3.33-9.38,6.68Z"/>
      <path class="cls-13" d="m246.93,386.53c10.15-8.66,9.19-11.43-1.65-18.09-5.32-3.27-10.2-9.25-13.39-14.89-3.82-6.76.43-12.8,7.16-12.78,1.74,3.54-3.29,8.86,2.95,11.19.85.52,1.69,1.06,2.54,1.58,2.26,1.35,4.13,3.16,5.96,5.02,1.07,1.09,2.1,2.23,3.21,3.28.68.57,1.41,1.05,2.3,1.22,1.87-.08,2.77-1.57,3.94-2.67,38.9-39.82,49.13-94.87,27.18-146.17-1.24-2.89-2.49-5.79-3.25-8.84-.57-1.48,1.19-3.9-1.81-4.43-5.7-6.14-9.34-13.84-15.22-19.82-2.33-2.54-4.75-4.99-7.25-7.38-.52-.46-.99-.95-1.46-1.45-.96-.99-1.92-1.97-2.9-2.94-2.95-3.03-6.04-5.92-8.6-9.32-2.1-2.85-6.36-4.4-5.51-9.05.69-1.83,1.67-3.28,5.03-2.83-7.38-1.45-12.9-3.95-16.95-9.4-2.11-2.84-4.75-5.52-9.16-3.32-1.59.8-4.17.38-5.15-1.05-5.85-8.55-15.81-6.72-23.83-9.6-5.71-2.05-6.9-4.28-2.73-8.81,1.67-.94,4.34-1.74,5.17-.65,2.77,3.67,5.57.42,8.18.8,4.05.58,7.87,2.72,12.19,2.06,1.53.21,2.9.77,3.99,1.9,4.24,6.13,9.83,9.75,17.54,9.52,1.59-.05,3.05.58,4.37,1.46.57.44,1.01.99,1.33,1.63.53,4.88,4.53,2.78,7.11,3.52,1.38.38,2.61,1.04,3.63,2.05,1.83,3.16,4.99,4.35,8.19,5.5,1.51.96,3.07,1.85,4.09,3.39,22.12,21.06,39.37,45.23,48.11,74.92,8.09,27.51,8.62,55.21,1.72,82.97-2.1,8.44-7.28,15.9-8.8,24.63-2.29,1.52-1.82,4.36-3.04,6.39l.02-.03c-5.45,5.18-7.64,12.3-11.1,18.67-.5.6-1.01,1.21-1.51,1.81-1.54,2.17-3.81,3.83-4.58,6.54l.06-.09c-1.88,1.91-3.55,3.99-4.93,6.3-.96,1.06-1.93,2.11-2.89,3.17-3.68,1.55-6.11,4.44-8.18,7.71-.58.54-1.17,1.09-1.75,1.63-3.8,3.38-8.42,5.39-12.98,7.4-3.01,1.32-6.52,2.75-7.33-2.65Z"/>
      <path class="cls-13" d="m59.45,156.16c1.05-1.06,2.1-2.11,3.15-3.17,1.19-1.96,2.78-3.51,4.7-4.74,3.09-2.13,6.18-4.26,9.27-6.39,1.97-.67,3.86-3.37,6-.27.87,1.57,1.3,3.7,3.29,4.18,12.6,3.03,19.58,12.72,27.41,21.9,5.17,6.06,11.13,11.65,17.3,16.91,9.36,7.98,16.8,17.92,25.6,26.5,7.1,6.93,11,6.61,17.93-1.02,4.17-4.58,8.14-9.48,14.16-11.88q6.31,4.8.72,14.75c-.53.51-1.16.8-1.88.92-1.72.16-4.32-2.81-4.89,1.47-.41,3.04-.97,6.08-4.29,7.48-.63.21-1.28.26-1.92.16-1.06-.51-2.08-.77-2.56.82-1.42,2.07-2.88,4.05-4.88,5.55-.97.5-2.03.66-3.11.72-2.05.4-4.68,1.46-5.93-.49-5.53-8.62-13.97-14.29-20.92-21.46-8.41-8.69-16.36-17.85-25.7-25.59-3.45-2.85-5.88-6.65-8.64-9.99-4.16-5.02-9.84-8.06-14.07-13-3.5-4.09-6.05.27-7.51,3.81-.9,1.98-2.46,3.39-4.16,4.62-15.8,11.46-24.19,28.66-33.7,44.78-4.29,7.27-4.65,16.56-8.43,24.38-.84,1.74-.55,4.41-3.58,4.32-1.87-1.76-2.06-4.17-2.4-6.52.11,3.39,1.73,6.09,3.79,8.61,1.75,13.58.58,27.2.74,40.79-.24,4.29-.88,8.46-4.43,11.57,1.36-1.12,2.61-1.72,4.2-.78.43.64.7,1.34.83,2.1-1.33,5.14.46,11.54-7.28,13.85-2.84.85-3.77,1.04-5.57-1.21-3.38-4.25-5.21-9.02-5.73-14.29-1.43-14.47-3.62-28.93-1.78-43.54,1.18-27.03,11.12-50.99,25.67-73.32,2.26-3.47,4.97-6.66,7.47-9.98,3.86-.38,5.57-2.9,6.33-6.38.19-.51.38-1.01.57-1.52,1.12-1.81,2.8-3.12,4.24-4.65Z"/>
      <path class="cls-8" d="m67.32,369.17c-1.05,1.05-2.1,2.1-3.15,3.16,0,0,0,0,0,0,2.1,1.58,4.2,3.16,6.3,4.73.95,2.2,3.4,2.91,4.73,4.73,1.61,1.05,1.61,2.1,0,3.16-2.22.51-4.44,1.12-6.71.22-.46-.4-.92-.79-1.38-1.19-4.88-5.5-11.04-9.88-13.81-17.2-1.25-3.3-5.58-3.39-7.96-5.71-7.04-9.43-13-19.53-18.38-29.99-1.11-4.69-.75-9.81-4.01-13.89l.07.08c2.25-7.74,6.79-9.17,16.49-5.2,8.43,10.95,12.46,24.5,21.1,35.38,2.97,3.74,7.78,6.4,8.25,11.93-.54,3.26.45,6.77-1.55,9.8Z"/>
      <path class="cls-19" d="m122.46,459.27c-3.43-.57-.66-3.05-1.37-4.46,3.04-7.2,2.17-15.18,4.43-22.54,6.12-.97,9.11,1.31,8.45,7.83-.17,1.68.54,3.46.84,5.19,1.97.29-.25,3.3,2.15,3.31,2.47-3.02,1.52-7.27,3.96-10.47,1.61-2.11,2.9-3.04,5.55-2.71,3.05.37,4.76,1.5,4.45,4.78.49,2.31.09,4.42-1.43,6.27-.86,4.53-.47,9.21-2.35,13.65-1.91,4.51-3.79,3.33-6.13.63-.7-1-.77-2.06-.35-3.18,2.57-1.92.16-4.88,1.45-7.02.04-.38.41-.77.41-1.1-.01-1.05-1.22-.64-.25-.24.02,0,0,.18-.05.59-.83,1.94-.72,3.85-.36,5.78-1.03,1.35-2.14,2.61-3.82,3.18-1.75,2.8-4.32,2.35-6.93,1.73-.83-.19-1.47-.76-1.62-1.51-.87-4.37-1.85.63-2.73-.05-1.44.11-2.88.22-4.31.34Z"/>
      <path class="cls-28" d="m202.98,460.23c-3.67-4.65-7.35-9.31-11.5-14.58-2.36,3.82-.25,7.43.63,9.71,2.07,5.28-.83,6.62-4.33,8.26-1.52-.22-1.86-1.36-2.03-2.63.33-2.4,1.04-4.81-.08-7.2-.12-.84-.24-1.68-.36-2.52-1.38-1.3-1.97-2.95-2.16-4.79,0-1.07-.09-2.15.57-3.09,1.43-2.64-3.25-6.15,1.06-8.29,4.35-2.16,5.82,2.37,8.25,4.17,2.16,1.59,3.51,4.27,5.58,6.93,3.01-3.08,1.38-6.57.6-9.33-1.29-4.54.95-5.51,4.46-5.97,3.88,2.86,2.16,7.07,2.59,10.77.31,4.47,1.01,8.86,2.68,13.06,2.13,2.3-.17,3.18-1.41,4.4-1.27,1.38-2.87,1.4-4.54,1.11Z"/>
      <path class="cls-24" d="m178.59,457.33c-3.15,3.16-4.92,8.07-10.44,8.21-11.42-.07-12.8-9.29-15.64-17.19.66-.96.19-2.55,1.71-3.02,2.1-4.29,5.08-7.7,9.56-9.63,1.88-1.6,3.79-1.43,5.72-.09,3.95,1.62,7.07,4.21,9.33,7.84,2.08,4.67,4.49,9.34-.24,13.89Z"/>
      <path class="cls-17" d="m289.22,396.17c1.97,5.57,5.3,10.85,3.65,17.2-2.73,6.94-8.12,9.47-14.95,7.76-7.15-1.79-10.7-7.4-11.26-14.45-.52-6.55,3.24-10.65,9.16-13.1,5.13-2.12,8.92,1.84,13.4,2.59Z"/>
      <path class="cls-21" d="m69.15,435.37c.23-.39.35-.81.33-1.27.3-.61.6-1.22.9-1.83,2.2-4.06,4.49-8.08,6.59-12.19,4.57-8.93,4.52-8.92,13.11-3.83,2.25,1.33,4.33,2.78,5.78,5,2.45,2.21,3.64,4.61,1.21,7.6-.74,1.66-1.42,3.35-2.23,4.97-4.41,8.82-9.73,10.6-18.4,6.05-2.53-1.32-4.87-3-7.3-4.51Z"/>
      <path class="cls-25" d="m36,408.97c.97-2.39,1.94-4.79,2.91-7.18,2.83-2.19,4.78-4.91,5.3-8.53.72-.28,1.59-.39,2.12-.88,1.61-1.44,2.6-4.47,5.53-1.91,2.56,2.23.03,3.73-.97,5.25-2.12,3.23-4.49,6.29-6.72,9.44-1.69,2.39-3.88,5.33-.58,7.43,2.82,1.8,6.48,1.83,8.94-1.64,2.27-3.19,4.54-6.39,6.89-9.53,1.05-1.4,1.98-3.28,4.34-1.8,2.72,1.7,1.4,3.39.12,5.14-3.07,4.16-5.96,8.46-9.24,12.45-3.15,3.83-7.3,3.85-11.31,1.56-2.63-1.5-4.91-3.63-7.34-5.47-1.29-1.45-1.39-2.9.02-4.34Z"/>
      <path class="cls-36" d="m75.2,126.13c2.5-1.78,6.51-1.05,7.87-4.72.44-.51.95-.93,1.54-1.26,2.35-.39,4.33-1.69,6.48-2.59,1.85-.86,3.62-1.88,5.6-2.44,2.1-.51,3.82-1.66,5.32-3.17,4.35,1.35,7.14-2.77,11-3.14,3.96,6.27-1.62,7.42-5.15,9.68-3.74,1.93-7.06,4.61-10.94,6.31-1.92.78-3.83.86-4.97.38,1.47.3,3.69.84,5.72-.98,1.77-.7,2.85-.02,3.42,1.7,0,2.32-1.67,3.36-3.31,4.44-4.96,1.33-8.35,6.82-14.33,5.46-1.82-2.49,2.36-3.49.59-6.35-2.3-.95-6.05,3.94-8.93-.34-.51-.6-.67-1.29-.54-2.05.21-.31.43-.61.64-.92Z"/>
      <path class="cls-159" d="m38.96,312.36c-6.39-1.9-11.7-.26-15.93,4.9-3.16-2.35-1.72-6.97-4.64-9.44-3.51-.66-2.16-2.9-1.58-4.89-1.63-16.94-5.09-33.82-1.63-50.93.35,2.76.96,5.32.61,8.34-1.54,13.38,1.27,26.49,3.59,39.6.69,3.91,4.24,5.97,5.43,9.5,1.12,3.32,1.16-.06,1.79-.26,6.52-2.07,5.97-8.35,7.93-13.13,4.95,4.49,6.61,9.88,4.45,16.31Z"/>
      <path class="cls-31" d="m254.92,436.28c-1.17-1.38-2.5-2.65-3.45-4.17-.92-1.46-.64-3.23.78-4.18,1.06-.71,2.61-.53,3.55.6,1.37,1.64,2.73,3.74,5.02,1.86,2.56-2.1.34-4.29-.65-6.23-2.02-3.94-4.24-7.77-6.35-11.66-.87-1.61-1.88-3.14.35-4.66,2.93-2,3.41.4,4.4,2.17,2.03,3.63,4.24,7.16,6.2,10.82,4.55,8.5,4.1,10.15-3.97,15.98-2.08,1.22-4.12,1.96-5.88-.52Z"/>
      <path class="cls-27" d="m223.62,454.07c-.51-6.81-4.09-12.67-5.9-19.08-.68-2.41-2.02-3.54-4.51-2.39-1.97.91-3.86,1.49-5.59-.44-.42-.26-.6-.56-.52-.9.07-.36.17-.54.29-.54,1.63-1.09,3.25-2.18,4.88-3.26,3.7-1.24,7.41-2.48,11.11-3.72,1.66-.56,3.55-1.91,4.55.77.72,1.94-.57,2.93-2.25,3.35-4.12,1.01-3.59,3.5-2.36,6.52,1.47,3.64,2.61,7.41,4,11.09.96,2.54,1.91,4.99-1,6.93-.9.55-1.8,1.11-2.7,1.66v.02Z"/>
      <path class="cls-130" d="m246.93,386.53c2.95,3.66,5.41,1.7,8.7,0,3.65-1.89,6.91-5.27,11.6-4.75-10.98,11.67-23.67,20.7-39.13,25.47-1.06-7.25,5.89-8.61,9.34-8.94,7.25-.69,9.64-3.13,8.18-10-.1-.48.85-1.18,1.31-1.78Z"/>
      <path class="cls-18" d="m243.82,444.76c-3.34-7.02-6.6-14.07-10.05-21.02-1.05-2.11-1.24-3.87.4-5.65,3.13-.67,3.97,1.61,4.95,3.79,2.36,5.23,4.5,10.59,7.23,15.61,2.05,3.77.95,5.76-2.53,7.27Z"/>
      <path class="cls-4" d="m68.49,385.17c2.21-.76,4.37-3.23,6.71-.22,4.73,4.72,9.47,9.43,14.2,14.15-.25.68-.75,1.01-1.47,1.03-7.53-3.61-13.41-9.38-19.44-14.95Z"/>
      <path class="cls-4" d="m45.34,361.06c6.25.34,10.32,3.29,11.75,9.61,1.34,5.91,9,7.11,10.02,13.31-9.4-5.6-14.69-15.11-21.77-22.92Z"/>
      <path class="cls-116" d="m83.44,135.8c4.59-2.27,9.17-4.53,13.76-6.8,1.32,3.23-1.01,5.25-3.01,6.49-4.02,2.49-7.36,6.52-12.69,6.45-1.62-1.81-3.3.6-4.93-.08,2.29-2.02,4.58-4.04,6.87-6.06Z"/>
      <path class="cls-117" d="m291.02,354.72c1.7-7.42,2.95-15.1,11.1-18.67-.94,5.32-5.32,8.98-6.76,14.05-1.45,1.54-2.9,3.08-4.35,4.62Z"/>
      <path class="cls-6" d="m93.94,402.47c2.05-.95,4.01-2.25,6.16-2.74,1.7-.39,4.21.54,4.12,2.37-.16,3.14-2.94-.48-4.19,1.15.12,2.35,3.91,2.37,3.53,5.12-4.39-.03-6.76-3.38-9.62-5.91Z"/>
      <path class="cls-159" d="m22.96,317.19c8.13,2.66,3.83,8.92,4.01,13.89-2.81-4.2-3.86-8.91-4.01-13.89Z"/>
      <path class="cls-84" d="m65.61,132.55c-.98.06-1.95.12-2.93.18-2.08-5.88,6.35-3.75,6.21-8.16,1.05-.91,2.1-.98,3.15,0,1.29.03,2.46.3,3.15,1.55,0,0-.14.2-.14.2-1.55,1.21-2.98,2.63-5.04,2.98-1.46,1.08-2.93,2.16-4.39,3.24Z"/>
      <path class="cls-71" d="m178.59,457.33c1.43-4.61.98-9.24.24-13.89,1.56.44,1.87,1.7,1.98,3.08,1.77,2.03,1.02,3.99-.09,6.24,1.56-2.19,1.09-5.24,3.44-6.75,1.24,1.57,1.3,3.39,1.15,5.26-2.09,2.19-1.81,7.01-6.72,6.05Z"/>
      <path class="cls-34" d="m136.64,433.87c3.33-6.24-3.54-3.42-4.94-5.61,3.07-3.52,5.5-1.45,7.45,1.13,3,3.96-.48,6.45-2.5,9.21-1.08-1.57-1.08-3.15-.01-4.73Z"/>
      <path class="cls-115" d="m54.64,162.32c2.38,6.6.31,8.76-6.33,6.38,1.06-2.07,3.39-3.44,3.4-6.1h-.03c.99-.09,1.98-.18,2.97-.28Z"/>
      <path class="cls-32" d="m64.12,427.02c-.27,1.64-1.02,3.33-2.6,3.35-1.74.03-3.42-.99-3.46-3.27-.03-1.43.48-2.64,1.98-2.74,1.91-.13,3.36.8,4.08,2.65Z"/>
      <path class="cls-43" d="m207.38,430.71c.26.45.33.93.24,1.44-.6,3.15,1.06,6.63-1.36,9.52-2.05-3.3-1.64-7.2-2.59-10.77,1.24-.06,2.47-.13,3.71-.19Z"/>
      <path class="cls-122" d="m109.68,410.27c1.94-.42,3.87-.87,5.82-1.23,1.39-.26,3.32-1.17,3.94.43.36.93-1.07,2.55-1.69,3.85-2.95-.32-5.71-1.16-8.06-3.05Z"/>
      <path class="cls-56" d="m51.71,162.6c-4.96-4.83-2.88-7.57,3.04-9.15-3,2.46-3.67,5.62-3.08,9.16,0,0,.03,0,.03,0Z"/>
      <path class="cls-90" d="m154.22,445.32c.15,1.42-.22,2.54-1.71,3.02-.57-1.33-1.68-1.77-3.01-1.86-.49-2.31-.3-4.47,1.43-6.27,1.1,1.71,2.2,3.41,3.3,5.12Z"/>
      <path class="cls-130" d="m268.98,380.15c.64-4.79,3.22-7.51,8.18-7.71-2.22,3.1-4.42,6.24-8.18,7.71Z"/>
      <path class="cls-49" d="m12.17,299.74c2.48,2.55,1.64,5.35,1.04,8.39-3.15-1.03-2.39-3.34-2.61-5.23,1.07-.78.48-2.39,1.57-3.15Z"/>
      <path class="cls-116" d="m213.83,413.36c1.26-5.31,4.81-4.14,8.37-2.96-2.46,1.92-5.16,3.16-8.37,2.96Z"/>
      <path class="cls-53" d="m184.16,446.01c-.73,2.32-1.46,4.64-2.19,6.96-.39-.05-.77-.09-1.16-.14,0-2.11,0-4.21,0-6.32.97-1.04,1.94-2.09,2.91-3.13.15.88.29,1.75.44,2.63Z"/>
      <path class="cls-40" d="m78.98,398.29c1.49,1.83,2.73,3.35,3.99,4.91-.09.08-.4.55-.72.57-3.62.18-4.38-1.71-3.27-5.47Z"/>
      <path class="cls-128" d="m59.45,156.16c-.13,2.72-1.36,4.44-4.24,4.65-.89-3.65,2.08-3.78,4.24-4.65Z"/>
      <path class="cls-117" d="m284.93,363.07c-.95-3.92,1.68-5.32,4.58-6.54-.21,3.1-2.25,4.92-4.58,6.54Z"/>
      <path class="cls-58" d="m172.85,423.03c4.66-.05,7.17-.83,9.83.7-2.99.94-5.63,1.12-9.83-.7Z"/>
      <path class="cls-38" d="m97.08,428.86c-.4-2.53-.81-5.07-1.21-7.6,2.01.08,2.92,1.2,2.96,3.14.98,1.05.92,2.11,0,3.16,0,1.05,0,2.1,0,3.15-.58-.62-1.17-1.24-1.75-1.85Z"/>
      <path class="cls-44" d="m169.5,435.6c-1.91.03-3.81.06-5.72.09,1.33-3.35,3.88-1.53,6.03-1.39.07,0,.18.47.13.68-.06.23-.28.41-.44.62Z"/>
      <path class="cls-6" d="m87.93,400.12c.49-.34.98-.68,1.47-1.02,3.68-1.75,3.63,1.52,4.6,3.43-2.02-.8-4.04-1.6-6.07-2.4Z"/>
      <path class="cls-126" d="m70.01,129.31c1.2-1.82,2.68-3.15,5.05-2.98.01.93.03,1.85.04,2.78-1.7-.12-3.32,2.06-5.09.2Z"/>
      <path class="cls-91" d="m36,408.97c0,1.45-.01,2.9-.02,4.34-3.17-2.62-1.19-6.21-1.74-9.33,1.98,1.17,1.34,3.26,1.76,4.98Z"/>
      <path class="cls-117" d="m280.05,369.27c.09-3.32,2.05-5.17,4.93-6.3-.72,2.82-2.56,4.77-4.93,6.3Z"/>
      <path class="cls-37" d="m136.96,448.61c-.35,1.07-.39,3.47-1.36,2.8-1.93-1.34-.97-3.97-.78-6.11.18-.64.37-1.28.55-1.92.4-.74.83-.75,1.26-.03.11,1.75.22,3.5.33,5.26Z"/>
      <path class="cls-52" d="m136.63,443.35c-.42,0-.84,0-1.26.03.07-3.22-1.48-6.65,1.27-9.51,0,1.58,0,3.15.01,4.73,0,1.58-.01,3.17-.02,4.75Z"/>
      <path class="cls-42" d="m12.17,299.74c-.03,1.3-.3,2.47-1.57,3.15,0-2.11,0-4.23,0-6.66,2.11,1.01,1.32,2.42,1.57,3.5Z"/>
      <path class="cls-41" d="m254.92,436.28c1.96.17,3.92.35,5.88.52-2.28,3.47-4.14,2.13-5.88-.52Z"/>
      <path class="cls-55" d="m67.3,148.25c-1.57,1.58-3.13,3.16-4.7,4.74.12-3.02,1.7-4.59,4.7-4.74Z"/>
      <path class="cls-50" d="m98.83,427.56c0-1.05,0-2.11,0-3.16,1.06-.18,2.56-1.5,2.92.55.34,1.98-1.3,2.44-2.92,2.61Z"/>
      <path class="cls-79" d="m193.41,419.8c.9-.11,1.8-.23,2.7-.34,1.19.15,2.38.31,5.42.71-4.06,1.2-6.19,1.77-8.12-.37Z"/>
      <path class="cls-61" d="m16.81,302.93c.26,1.72.07,3.58,1.58,4.89-.72.83-1.81,1.28-2.4.32-1.11-1.82-1-3.72.82-5.21Z"/>
      <path class="cls-35" d="m106.7,118.27c.67-4.11,8.61-3.36,6.3-9.46.44,0,.88,0,1.32.02,4.12-2.06,8.73-2.51,13.01-4.05,3.73-.76,7.45-1.55,11.19-2.26,6.9-1.2,13.89-1.46,20.83-2.32,8.94-.46,17.84.31,26.74.8,5.62,1.32,11.29,2.43,16.99,3.35,2.53.9,5.12,1.48,7.83,1.29.44,0,.87-.01,1.31-.01,2.57,2.66,6.17,2.99,9.41,4.15,2.64,1.04,5.39,1.78,7.92,3.07,4.26,1.76,8.54,3.47,12.65,5.57,2.07,1.18,3.96,2.76,6.47,2.99.99.53,1.98,1.06,2.98,1.59,1.26,1.38,3.94,1.74,3.22,4.53-1.15,3.35-2.28,5.66,3.28,6.85,7.91,1.69,9.9,10.97,16.67,14.78-4.65,1.58-5.8-2.34-8.2-4.07-3.88-2.79-2.86-.04-2.49,2.08-1.41-.74-2.82-1.48-4.23-2.21-3.14-1.44-5.75-3.64-8.32-5.89-1.05-.62-2.09-1.23-3.14-1.85-2.31-1.93-6.15-1.58-7.46-5.01l-.14.07c-7.6-4.41-16.98-5.07-23.73-11.29-1.08-.39-2.15-.77-3.23-1.16-17.82-5.54-36.16-5.95-54.59-5.75-4.98.06-9.9.29-14.72,1.55-4.49.64-8.83,2-13.29,2.81-3.78.16-7.44.97-10.99,2.31-1.41.42-2.84.6-4.3.35-.67-.14-1.32-.38-1.94-.67-2.01-1.4-4.55-.4-6.65-1.44-.23-.24-.46-.48-.69-.72Z"/>
      <path class="cls-146" d="m180.74,78.99c.88,6.28.02,10.7-8.19,9.69-3.74-.46-7.67.89-11.52.97-10.42.21-10.42.11-10.17-10.51,9.95-1.86,19.91-1.62,29.88-.14Z"/>
      <path class="cls-143" d="m70.38,116.53c-1.47.49-2.91,1.07-4.41,1.44-3.53.86-4.32-2.01-5.55-4.24-1.43-2.6.23-3.79,2.19-4.87,6.13-3.4,12.42-6.56,18.33-10.32,3.09-1.97,4.69-2.08,6.74,1.22,2.14,3.42,1.98,5.61-1.71,7.53-1.95,1.02-4.63,1.51-4.77,4.53-2.98,3.01-6.67,4.41-10.82,4.71Z"/>
      <path class="cls-143" d="m271.46,110.8c.18,4.76-4.9,8.13-7.7,6.55-6.14-3.46-12.13-7.2-18.32-10.57-3.85-2.09-3.4-4.5-1.56-7.68,1.94-3.35,3.8-2.33,6.34-.72,5.95,3.77,12.11,7.22,18.15,10.86,1.26.76,3.06,1.08,3.09,1.55Z"/>
      <path class="cls-118" d="m125.59,83.49c2.8.84,7.19-.31,7.59,3.77.33,3.33-3.64,3.98-6.1,5.19-5.45,2.68-11.3,3.89-17.38,3.71-2.27-.07-5.18.24-5.75-2.73-.56-2.88,2.19-4.06,4.21-4.92,4.28-1.82,8.75-3.18,13.14-4.73,1.33-1.53,2.8-1.16,4.29-.29Z"/>
      <path class="cls-153" d="m207.65,84.86c6.92.17,12.97,2.41,18.59,5.86,1.74,1.07,3.82,2.44,3.2,4.86-.66,2.59-3.19,2.24-5.22,2.25-6.65,0-12.89-1.77-18.59-5.07-2.27-1.32-6.01-2.62-4.79-6.06,1.02-2.89,4.56-1.49,6.8-1.83Z"/>
      <path class="cls-86" d="m70.38,116.53c3.18-2.55,6.56-4.67,10.83-4.71,5.25.09,3.85,3.72,3.58,6.76.8.92.77,1.85.02,2.78-.58.02-1.16.04-1.74.06-3.34-3.95-8.75-2.49-12.69-4.88Z"/>
      <path class="cls-142" d="m187.05,102.41c-9.42-.25-18.76-2.16-28.23-1.42-2.34.49-5.03,2.49-6.31-1.49,8.88-.04,17.76-.07,26.63-.11,2.42,1.64,5.28.13,7.8,1.07.44.41.61.84.49,1.28-.12.45-.25.67-.38.67Z"/>
      <path class="cls-150" d="m152.51,99.5c1.71,2.15,4.18,1.1,6.31,1.49-6.66,2.74-13.96.93-20.73,2.9-.84-.96-2.46-.24-3.16-1.48,5.65-2.25,11.64-2.43,17.58-2.91Z"/>
      <path class="cls-96" d="m180.74,78.99c-9.96.05-19.92.09-29.88.14,9.95-3.12,19.91-2.9,29.88-.14Z"/>
      <path class="cls-111" d="m182.16,97.44h-20.15c0-.38,0-.77,0-1.15h20.08c.02.38.04.77.07,1.15Z"/>
      <path class="cls-11" d="m242.29,119.67c-4.21-2.11-8.42-4.22-12.63-6.32-.41-.23-.56-.48-.44-.75.12-.27.24-.41.38-.41,5.11,1.16,10.04,2.74,14.23,6.07-.3.69-.81,1.16-1.52,1.41Z"/>
      <path class="cls-157" d="m187.05,102.41c0-.48-.01-.96-.03-1.45.56-.66,1.16-.67,1.8-.12,5.11,1.56,10.69.69,15.66,3,.81.65.78,1.24-.1,1.79-5.78-1.07-11.55-2.15-17.33-3.22Z"/>
      <path class="cls-137" d="m127.19,105.58c-4.08,1.89-8.23,3.54-12.86,3.26,3.26-4.41,8.34-3.77,12.88-4.64.39.31.51.62.38.93-.13.3-.26.46-.4.46Z"/>
      <path class="cls-136" d="m127.19,105.58c0-.46,0-.92.02-1.39,2.13-2.54,5.11-1.35,7.72-1.78,1.05.49,2.11.99,3.16,1.48-3.64.56-7.27,1.12-10.91,1.69Z"/>
      <path class="cls-112" d="m265.91,130.84c-.58.59-1.16,1.17-1.74,1.76-2.41-1.83-5.78-2.17-7.61-4.91.48-.55.94-.54,1.38.05,3.76-1.81,5.59,1.37,7.98,3.1Z"/>
      <path class="cls-7" d="m221.71,110.42c-3.61-.71-7.97.08-9.49-4.79,3.16,1.12,6.31,2.24,9.47,3.37.38.31.5.63.39.94-.12.32-.24.48-.36.48Z"/>
      <path class="cls-62" d="m203.99,97.47h-10.36c0-.26-.01-.53-.02-.79h10.47c-.03.26-.06.53-.09.79Z"/>
      <path class="cls-129" d="m221.71,110.42c0-.48,0-.95-.02-1.43,2.91.38,5.83.7,7.89,3.19.02.39.04.78.07,1.16-2.91-.27-5.7-.83-7.94-2.92Z"/>
      <path class="cls-148" d="m102.01,111.96c.03,3.29-2.69,3.64-4.88,4.56-.75-.93-2.24-.26-2.92-1.35,2.19-2.06,4.96-2.71,7.8-3.21Z"/>
      <path class="cls-139" d="m84.81,121.35c0-.93-.02-1.86-.02-2.78,2.06-.61,4.11-1.21,6.17-1.82.39.33.52.65.38.97-.14.32-.27.48-.41.48-1.43,2.24-3.62,3-6.12,3.15Z"/>
      <path class="cls-57" d="m46.54,115.58c5.59-.69,7.73.35,8.13,5.46-2.38-2.66-4.15-4.29-8.13-5.46Z"/>
      <path class="cls-70" d="m270.68,97.56c1.06.56,2.12,1.12,3.18,1.68-1.55.62-2.69,1.67-3.3,3.25h0c-6.1-1.79.18-3.28.12-4.93Z"/>
      <path class="cls-127" d="m257.93,127.74c-.46,0-.92-.02-1.39-.05-.56-.06-1.12-.11-1.68-.17-1.07-1.51-2.15-3.02-3.22-4.53,2.96.43,5.84.97,6.28,4.74Z"/>
      <path class="cls-156" d="m204.38,105.63c.03-.59.07-1.19.1-1.79,2.23.3,4.69-.27,6.43,1.8-2.18,2.65-4.36.9-6.53-.01Z"/>
      <path class="cls-100" d="m141.84,87.52c-2.41,1.36-3.83-.19-5.84-1.57,2.72-1.31,4.14.23,5.84,1.57Z"/>
      <path class="cls-57" d="m147.85,80.05c-.27,4.44-.39,6.4-.59,9.67-1.44-3.54-1.6-5.69.59-9.67Z"/>
      <path class="cls-155" d="m188.83,100.84c-.6.04-1.2.08-1.8.12-2.64-.44-5.65.96-7.88-1.57,3.27.21,6.74-.94,9.68,1.45Z"/>
      <path class="cls-65" d="m226.75,82.68c1.41-.27,2,.18,1.64,1.09-.35.86-.94,1.83-1.7,2.26-.8.45-1.51-.43-1.27-1.22.26-.87.99-1.6,1.34-2.13Z"/>
      <path class="cls-141" d="m90.93,118.2c.01-.48.02-.97.03-1.45.61-1.51,1.99-1.42,3.25-1.58,1.18.01,2.28.19,2.92,1.36-2.07.56-4.13,1.12-6.2,1.68Z"/>
      <path class="cls-138" d="m242.29,119.67c.51-.47,1.02-.94,1.52-1.41,1.62,1.05,3.24,2.11,4.86,3.16-2.79,1.84-4.27-1.13-6.39-1.75Z"/>
      <path class="cls-70" d="m270.56,102.49c1.19.43,3.24-.96,3.41,1.42.03.48-1.4,1.49-2.2,1.53-2.75.14-1.56-1.64-1.21-2.95h0Z"/>
      <path class="cls-85" d="m72.04,124.58c-1.05,0-2.1,0-3.15,0,.16-1.62.63-3.26,2.6-2.92,2.05.36.72,1.86.55,2.92Z"/>
      <path class="cls-60" d="m125.59,83.49c-1.43.1-2.86.19-4.29.29-.65-.28-1.3-.57-1.96-.86.24-.29.47-.83.71-.84,1.97-.07,4.08-.59,5.54,1.41Z"/>
      <path class="cls-123" d="m302.11,336.09c1.46-1.92-3.24-6.77,3.04-6.39-.25,2.49-1.27,4.62-3.04,6.39Z"/>
      <path class="cls-94" d="m158.38,47.7v11.98c-.26,0-.51,0-.77,0v-12.2c.26.07.51.15.77.22Z"/>
      <path class="cls-107" d="m223.29,48.84c0-2.11,0-4.22,0-6.32,5.53,2.11,1.11,4.22,0,6.32Z"/>
      <path class="cls-66" d="m253.44,41.09c-.99.5-1.98.99-2.97,1.49-.56-1.34-.26-2.71.9-3.31,1.97-1.01,1.65.96,2.03,1.94,0,0,.04-.12.04-.12Z"/>
      <path class="cls-144" d="m218.59,75.6c-1.14-.86-2.28-1.73-3.42-2.59,1.22-.24,2.44-.49,3.66-.73.45.04.88.13,1.31.25-.03,1.27-.27,2.44-1.55,3.07Z"/>
      <path class="cls-48" d="m119.28,452.77c-2.51,1.39-.57,4.98-3.13,6.35.73-4.81-2.97-9.27-.96-14.7,1.47,3.01,2.78,5.68,4.09,8.35Z"/>
      <path class="cls-30" d="m98.61,444.69c1.57.47,3.36.81,2.77,2.95-.37,1.36-.73,3.3-2.87,2.84-1.5-.32-3.05-.98-2.81-3.02.2-1.72,1.03-2.88,2.91-2.77Z"/>
      <path class="cls-51" d="m223.61,454.04c-.37,1.21-.47,2.68-1.91,3.12-1.43.44-2.94.69-4.43.82-.2.02-.89-1.39-.69-1.81.78-1.59,2.4-1.71,3.97-1.8,1.03-.06,2.05-.2,3.07-.3,0,0-.34.24-.34.24l.33-.26Z"/>
      <path class="cls-108" d="m207.52,459.12c.47-1.47.94-2.93,1.41-4.4.12-.48.13-1.04.39-1.41.53-.73,1.23-.72,1.27.28.11,2.43.63,5.19-3.08,5.53Z"/>
      <path class="cls-67" d="m203.03,60.07c-2.09-.4-5.06.26-4.59-3.39.1-.77,1.36-2.1,1.86-2.01,3.14.59,2.26,3.4,2.67,5.49,0,0,.05-.09.05-.09Z"/>
      <path class="cls-93" d="m126.77,458.94c.78-3.06-.58-6.6,2.23-10.52,2.47,4.49,1.18,8.52,2.12,12.08-1.45-.52-2.9-1.04-4.35-1.56Z"/>
      <path class="cls-93" d="m141.55,457.76c-.18,1-.35,2-.53,3-2.32,1.32-2.89.04-2.96-1.99.16-1.96.64-3.59,3.18-3.09.81.59.91,1.28.31,2.08Z"/>
      <path class="cls-105" d="m187.13,460.7c.22.97.43,1.95.65,2.92-2.03.03-4.17.81-6.01-.56-.75-.56-1.48-1.73-.24-2.35.43-.21,1.56,1,2.37,1.56.89-.9,1.39-2.6,3.22-1.57Z"/>
      <path class="cls-71" d="m187.13,460.7c-1.07.52-2.15,1.05-3.22,1.57.59-2.82,1.17-5.65,1.76-8.47,1.49,2.09,1.45,4.5,1.46,6.9Z"/>
      <path class="cls-89" d="m72.03,75.66c-.04,2.25.07,4.6-3.14,4.74.34-1.14.91-2.28.95-3.44.03-.92-3.17-.3-1.56-2.16,1.11-1.28,2.75-.6,3.75.86Z"/>
      <path class="cls-1" d="m38.96,312.36c-.67-5.66-2.43-11.02-4.45-16.31.21-.41.14-.77-.21-1.06-2.49-2.41.33-5.79-1.5-8.32-1.2-15.05-.08-30.1.08-45.15,0,0-.07.06-.07.06,2.64-7.43,5.69-14.74,7.77-22.32,1.25-4.57,3.24-8.47,5.5-12.56,9.3-16.84,20.65-31.91,35.38-44.35,3.02-5.16,6.02-3.39,9.32-.16,15.56,15.26,30.81,30.82,46.23,46.21,7.06,7.04,14.2,14.01,21.1,21.21,1.78,1.85,3.62,3.89,6.46,4.2,8.78-5.62,15.22-13.76,22.72-20.74.48,0,.9-.18,1.24-.51,15.75-18.57,33.9-34.78,50.85-52.17,2.72-2.79,5.79-4.98,8.94-.34,2.74,2.77,5.48,5.55,8.22,8.32,2.08,2.65-1.49,4.97-.65,7.55-.28-2.93.87-4.47,3.94-4.38v.06c1.23,4.01,3.64,6.9,7.77,8.14,6.69,5.73,10.33,13.76,15.5,20.63,1.34.62.71,2.28,1.65,3.1,14.6,29.54,20.04,60.39,12.64,92.89-5.89,25.88-17.66,48.57-37.35,66.76-2.5-1.5-3.49,2.44-5.81,1.61-.41-.47-.81-.95-1.22-1.42-.83-1.38.4-4.67-3.21-3.44-2-1.81-4-3.62-6-5.43-1.9-3.06-.58-5.82,1.78-7.38,3.52-2.32,4.18-5.59,4.59-9.22.03-.49.05-.98.07-1.47,4.43-9,9.8-17.42,15.65-25.54,2.82-2.16.73-6.09,3.03-8.43,1.85-1.56-.45-4.37,1.75-5.82,3.06-12.24,5.89-24.52,4.39-37.29-.33-2.83-.94-5.64-1.42-8.45-2.69-5.67-4.41-11.57-4.48-17.9-.6-4.43-2.17-8.49-4.74-12.16-5.74-6.77-9.47-14.95-15.42-21.63-3.06-3.43-5.08-3.33-8.27-.36-5.7,5.31-11.2,10.85-17.19,15.85l-.14.14c-2.07,4.15-6.09,6.34-9.33,9.32l-.13.14c-2.69,3.53-5.76,6.68-9.34,9.33l-.12.13c-3.98,4.18-7.09,9.19-11.9,12.58-2.18,2.21-4.34,4.44-6.91,6.23l-.1.11c-.71,1.33-2.07,2-3.06,3.05l-.1.1c-2.66,3.65-5.19,7.44-9.61,9.26-.99,1.2-1.98,2.4-2.97,3.6-.67,1.44-1.95,2.13-3.33,2.72-1.94-1.05-.97,3.83-3.43,1.69-10.2-8.16-19.68-17.05-27.39-27.68-.23-1.82-1.3-2.82-3.13-3.05-8.04-4.76-13.48-12.35-20.1-18.63-7.04-6.67-13.71-13.73-20.62-20.54-5.92-5.83-6.33-5.8-11.54.32-1.54,1.81-3.09,3.55-5.15,4.77-6.19,8.37-10.63,17.55-12.8,27.78.27,7.4-2.43,14.47-2.31,21.86-.04,5.82-.04,11.64.03,17.45-.5,9.66,3.47,18.71,3.86,28.25,1,6.06,4.07,11.28,6.73,16.67,6.05,3.12,8.36,8.91,10.57,14.77,2.29,4.27,5.5,7.73,9.35,10.62,2.32,1.95.35,3.24-.71,4.68-.36.37-.56.81-.59,1.33-1.88,2.49-4.33,4.29-6.94,5.92-1.07,1.53-4.74.22-4.03,3.71l-.41,1.59c-1.22,1.09-2.9.95-3.24-.31-1.05-3.81-2.51-1.31-3.93-.51-1.84.19-2.59-1.14-3.38-2.41-.42-4.15-4.43-5.44-6.46-8.22-8.86-12.1-16.07-25.19-21.94-39.01Z"/>
      <path class="cls-161" d="m196.49,266.49c5.48.12,10.96.36,16.45.35,9.88-.02,17.7,3.57,22.63,12.48,3.48,2.32,1.95,6.44,3.39,9.49h-.04c2.31,4.15.95,8.33.13,12.5-.31.4-.35.82-.11,1.27-1.79,1.78.81,4.9-1.94,6.38-1.26.77-1.21,2-1.16,3.23-.87,4.74-3.96,7.89-7.63,10.62-2.49,2.33-5.84.83-8.6,1.96l-.54-.13-.48.29c-8.49,1.81-17.09.32-25.63.8-2.8.16-3.52-1.48-3.52-3.95,0-17.23,0-34.45.01-51.68,0-5.77,3.67-4.39,7.04-3.62Z"/>
      <path class="cls-160" d="m132.99,320.09c-5.76,4.52-12.64,5.57-19.61,6.34-3.84-2.06-8.18,1.04-12.08-1.3-5.65-3.4-9.3-8.11-10.63-14.61-.73-12.26-.45-24.52-.24-36.77.14-8.32,3.23-9.78,10.72-5.65-.02,14.16.08,28.32-.1,42.47.03,1.6.8,2.74,2.2,3.48,6.26,2.04,12.28,5.59,19.27,3.1h.01c2.41-3.37,4.62-6.88,7.01-10.3.07-11.49.03-22.97.01-34.44,0-3.51-.34-6.89,4.91-6.79,4.72.09,4.55,3.05,4.53,6.35-.06,11.47,0,22.95-.04,34.42,0,1.47.52,3.21-1.41,4.05-1.3,1.3-1.02,2.99-1.16,4.59-.48,2.12-1.65,3.78-3.39,5.05Z"/>
      <path class="cls-121" d="m75.16,208.2q8.52-15.59,20.43-3.61c12.43,12.39,24.98,24.66,37.48,36.98,1.96.27,3.07,1.39,3.35,3.34,8.89,9.36,17.78,18.72,26.67,28.09-3.79,3.56-6.06-1.24-9.13-1.66-1.88-4.42-5.04-7.58-9.45-9.47-1.88-4.42-5.04-7.58-9.45-9.47-4.6-8.68-13.1-13.85-19.17-21.23-2.78-3.38-6.15-6.28-9.31-9.46-2.41,1.99,1.25,3.04.05,5.48-4.64-4.24-3.23-12.34-10.12-14.48-1.81,1.49,1.91,2.58.6,4.96-4.46-4.3-3.31-12.22-10.41-14.64-1.36.42,4.81,6.55-2.4,4.34-2.36-.72-6,.96-9.14.83Z"/>
      <path class="cls-2" d="m58.11,257.19c-.1-7.38,1.27-14.46,4.26-21.21,2.73,5.1,3.95,9.39.93,15.76-3.16,6.68.63,14.87,1.68,22.31,1.42,9.99,1.08,19.72-1.04,29.49-4-8.73-5.96-17.91-5.93-27.51,1.15-6.27.96-12.55.1-18.83Z"/>
      <path class="cls-2" d="m223.57,214.63c6.35-6.54,12.74-13.04,19.01-19.66,2.12-2.23,3.62-2.28,5.61.19,6.38,7.94,12.86,15.78,16.27,25.6-.59.03-1.18.05-1.76.08h0c-6.16-6.18-10.6-13.91-17.89-18.46-.68,2.78-1.83,5.47-7.14,4.71-2.65-.38-7.85,2-8.17,5.12-.62,6.07-3.91,1.91-5.91,2.41Z"/>
      <path class="cls-2" d="m265.9,310.81c-3.42,9.62-8.53,18.2-15.65,25.54-2.68-2.74-5.37-5.47-8.05-8.21h10.26c-3.23-2.81-8.76.3-8.74-5.67.01-3.36-1.16-6.8-.72-10.06.32-2.35,3.36-.74,3.61,0,1.43,4.33,3.22,4.6,5.89,1.07,4.53,4.43,5.86-1.51,8.71-2.59,1.38-.52,3.12-.09,4.69-.09Z"/>
      <path class="cls-9" d="m92.67,312.32c3.48,9.74,11.65,12.59,20.71,14.12-1.64.5-3.66-.67-5.17,1.25,4.98,1.44,10.26-.76,15.93,1.73q-19.49,1.16-25.66-3.38c-2.67,1.68,2.81,3.53-.03,4.97-1.19.6-3.38-.41-3.24-1.35,1.04-7.14-5.47-7.8-9.01-10.98-.88-2.63,2.41-5.26,0-7.89,0-2.1,0-4.21,0-6.31.88-.96,2-1.24,3.25-1.12.8.17,1.45.58,1.95,1.22.99,2.49-.8,5.43,1.25,7.75Z"/>
      <path class="cls-3" d="m128.91,309.6c-.19,4.15-2.21,6.77-6.38,7.57-.88-7.15,2.46-13.84,1.73-21.19-.98-9.93.11-20.03-1.41-31.06,4.43,2.78,4.33,6.09,4.33,9.38-.01,8.62-.06,17.25.03,25.87.03,2.51-.85,5.29,1.4,7.41.8.57.9,1.25.29,2.02Z"/>
      <path class="cls-120" d="m128.91,309.6c-.09-.67-.19-1.35-.28-2.02.04-11.81.63-23.66-.08-35.42-.43-7.05,1.96-8.6,8.13-7.39,2.03.4,4.18.18,6.27.25h0c-1.87,1.87-3.38,3.71-3.2,6.75.82,14.29-1.67,28.72,2.37,44.02-2.06-2.41-3.31-3.87-4.56-5.34,1.46-13.11.31-26.26.74-39.39.1-2.97-1.02-4.3-4.06-4.33-3.29-.03-3.85,1.8-3.83,4.54.06,9.46.1,18.93-.03,28.39-.05,3.35.62,6.87-1.45,9.95Z"/>
      <path class="cls-120" d="m196.49,266.49c-3.99.1-6.7.68-6.54,6.14.44,15.49.29,31.01.07,46.51-.06,4.4,1.18,6.04,5.74,5.85,7.59-.33,15.21-.06,22.82-.04-8.95,3.67-18.42.52-27.59,1.98-2.38.38-2.35-2.96-2.36-5.02-.02-17.75-.22-35.5.08-53.25.13-7.83,4.78-2.82,7.78-2.17Z"/>
      <path class="cls-9" d="m81.25,334.99c-5-3.87-6.92-9.94-10.57-14.77,5.33-3.95,10.51.08,13.08,2.78,2.45,2.57,2.6,8.84-2.51,11.99Z"/>
      <path class="cls-3" d="m92.67,312.32c-2.89-2.06-1.23-5.23-1.89-7.83-2-12.64-2.85-25.28.09-37.91,2.3-2.7,5.77-1.22,8.59-2.38,2.28-.94,4.67.44,5.34,2.94.66,2.45.98,5.27-2.83,5.78-1.73-.98.43-3.6-1.83-4.36-5.86-3.79-8.4-2.36-8.18,4.77.41,12.99.48,26,.69,38.99Z"/>
      <path class="cls-2" d="m227.7,321.68c2.71-3.16,5.42-6.31,8.13-9.47,4.48,4.37,8.18,9.04,6.36,15.93-3.25-2.75-2.76,3-5.59,2.19.1-3.87,1.83-7.82.05-12.77-1.52,3.57-4.17,4.9-7.06,5.85-1-.17-1.63-.74-1.89-1.73Z"/>
      <path class="cls-152" d="m269.19,232.92c2.94,5.6,4.19,11.63,4.48,17.9-1.93-3.18-4.08-4.57-7.02.37-1.05-7.19.46-12.77,2.54-18.26Z"/>
      <path class="cls-161" d="m250.18,337.82c2.16,4.13,2.45,8-2.61,9.97-3.37,1.31-2.57,4.41-3.77,6.63-.48-.34-.95-.69-1.43-1.03-4.05-3.66-3.57-6.84,1.01-9.59,2.26-1.99,4.53-3.98,6.79-5.98Z"/>
      <path class="cls-158" d="m155.66,323.63c.23,2.21.47,4.41.73,6.86-3.61-.21-7.03-.61-10.45-.54-4.17.08-3.49-2.41-3-4.95.74-.96,1.76-1.4,2.91-1.63,2.97-.23,5.92-.7,8.92-.41.3.22.6.45.9.68Z"/>
      <path class="cls-3" d="m89.37,304.47c-1.05,0-2.1,0-3.15,0,2.59-12.1,1.9-24.2,0-36.29.98-.47,1.85-.33,2.63.43,2.39,11.92,1.51,23.89.52,35.87Z"/>
      <path class="cls-2" d="m191.84,246.31c3.74-4.7,7.91-8.96,12.66-12.63-2.5,4.78-2.53,11.4-8.93,13.27-1.69.49-2.42,1.74-3.79,2.29-.98-1-.87-1.98.06-2.93Z"/>
      <path class="cls-14" d="m100.15,268.55c3.66.17.92,3.03,1.83,4.36-.52,12.55,1.09,25.15-.91,37.67-2.42-13.96-1.06-28.01-.91-42.03Z"/>
      <path class="cls-4" d="m67.36,359.6c1.02.57,2.04,1.14,3.06,1.71,2.19.94,4.55,1.55,6.36,3.26-.09,1.56,5.65,4.92-1.05,4.32-2.91-.26-5.61.57-8.41.29-1.12-3.2-1.07-6.39.05-9.57Z"/>
      <path class="cls-4" d="m81.71,356.51c2.53-1.63,5.06-3.26,7.59-4.89.03.59.05,1.18.08,1.77.48.35.64.7.48,1.05-.16.35-.32.53-.48.53-2.63,3.44-4.9,7-3.49,12.29-3.88-1.21-2.24-6.83-6.52-6.26.13-1.84,1.19-3.2,2.35-4.49Z"/>
      <path class="cls-2" d="m239.05,301.32c-.04-4.17-.09-8.33-.13-12.5,2.45-2.73,3.11-6.08,3.28-9.6,6.69,8.47-1.22,14.86-3.15,22.09Z"/>
      <path class="cls-154" d="m89.37,304.47c-.88-12.08,1.85-24.32-1.58-36.29.18-.87.69-1.41,1.58-1.58.5,0,1,0,1.51-.03-.03,12.64-.06,25.27-.09,37.91-.47,0-.94-.01-1.41-.01Z"/>
      <path class="cls-132" d="m243.39,343.79c-2.61,2.96-3.66,6.08-1.01,9.59-9.6-1.96-5.33-7.59-3.33-12.62,3.4-1.8,2.52,2.56,4.34,3.03Z"/>
      <path class="cls-120" d="m146.41,324.85c-1.16.05-2.31.09-3.47.14-1.27-.68-1.54-1.86-1.57-3.16h0c2.17-.22,3.27-1.48,3.1-3.6-.52-6.49,3.43-6.34,7.96-5.51-.89,2.3-3.44.32-5.21,2.78h8.32c.39.68.38,1.35-.05,2.01-3.78,1.51-7.77,2.76-9.07,7.35Z"/>
      <path class="cls-3" d="m122.53,317.16c-6.99,2.49-13.7,3.27-19.27-3.1,7.05-2.85,12.53,4.04,19.27,3.1Z"/>
      <path class="cls-158" d="m155.22,317.71c.1-.74.21-1.47.31-2.21.26-.7.52-2,.77-2,3.43.01,3.96,2.93,5.04,5.28-2.41,1.01.2,7.93-5.69,4.84,0,0-.33-.37-.33-.37-1.54-1.82-1.48-3.67-.1-5.55Z"/>
      <path class="cls-134" d="m172.83,265c3.2-3.09,6.41-6.17,9.61-9.26-.37,6.03-.69,12.13-9.61,9.26Z"/>
      <path class="cls-2" d="m214.1,224.09c2.58-3.64,5.71-6.73,9.33-9.32.4,5.27-4.49,10.15-9.33,9.32Z"/>
      <path class="cls-2" d="m236.99,308.98c.65-2.13,1.3-4.25,1.94-6.38.28,1.23.69,3.55.83,3.53,4.27-.48,1.04-4.84,3.36-6.59,3.38,3.45,1.87,6.33-.64,9.5-2.13,2.7-3.69,1.58-5.49-.06Z"/>
      <path class="cls-2" d="m204.63,233.55c2.59-3.63,5.72-6.73,9.34-9.33.32,4.32-5.37,10-9.34,9.33Z"/>
      <path class="cls-120" d="m227.7,321.68c.63.58,1.26,1.15,1.89,1.73-2.85,3.91-5.7,7.9-9.99,1.38,2.7-1.04,5.4-2.07,8.1-3.11Z"/>
      <path class="cls-120" d="m132.99,320.09c1.13-1.68,2.26-3.37,3.39-5.05-.37,3.76,8.67.59,4.98,6.79,0,0,0,0,0,0-2.95.2-5.06-3.69-8.37-1.73Z"/>
      <path class="cls-23" d="m76.78,364.56c-3,.63-4.89-.89-6.36-3.26.82-1.19,1.64-2.37,2.48-3.57,2,1.39,1.82,4.92,5.02,5.1-.38.58-.76,1.15-1.14,1.73Z"/>
      <path class="cls-134" d="m191.84,246.31c-.02.98-.04,1.96-.06,2.93.08,5.04-3.01,4.14-6.09,3.24,1.51-2.6,3.6-4.61,6.15-6.18Z"/>
      <path class="cls-4" d="m75.19,381.79c-3.01-.14-4.59-1.72-4.73-4.73.99,2.16,8.56-2.26,4.73,4.73Z"/>
      <path class="cls-134" d="m166.53,271.31c1.11-.91,2.22-1.81,3.33-2.72.62,1.22,3.39,1.69,2.08,3.36-1.64,2.09-3.62-.04-5.41-.64Z"/>
      <path class="cls-2" d="m238.96,288.81c-1.13-3.16-2.26-6.33-3.39-9.49,4.94,1.8,3.17,6,3.39,9.49Z"/>
      <path class="cls-2" d="m242.21,279.29c-1.39-1.07-3.59-1.09-4.15-4.22,3.09.1,3.97,1.7,4.15,4.22Z"/>
      <path class="cls-2" d="m232.82,217.72c-.42-1.03-.99-1.94-.83-2.09.68-.64,1.52-1.3,2.4-1.49.89-.19,1.21.77.79,1.4-.5.74-1.33,1.26-2.36,2.18Z"/>
      <path class="cls-3" d="m86.22,310.78c3,2.63,1.1,5.26,0,7.89-2.82-2.63,1.1-5.26,0-7.89Z"/>
      <path class="cls-151" d="m89.37,354.97c0-.53,0-1.05,0-1.58,1.42.9,3.4,1.08,3.95,3.04.08.28-.41,1.01-.7,1.05-1.87.26-2.52-1.2-3.25-2.51Z"/>
      <path class="cls-119" d="m89.37,266.6c-.53.53-1.05,1.05-1.58,1.58-.53,0-1.05,0-1.58,0-.91-.63-1.54-1.58-.62-2.4,1.42-1.25,2.75-.57,3.77.82Z"/>
      <path class="cls-2" d="m204.46,246.12c-.42-1.03-.99-1.94-.83-2.09.68-.64,1.52-1.3,2.4-1.49.89-.19,1.21.77.79,1.4-.5.74-1.33,1.26-2.36,2.18Z"/>
      <path class="cls-2" d="m63.75,257.29c.68-.35,1.28-.89,1.9-.92,1.36-.06,1.57,1.04,1.28,2.01-.15.5-.96.8-1.47,1.19-.4-.53-.8-1.06-1.71-2.27Z"/>
      <path class="cls-134" d="m182.54,255.64c.53-1.5,1.62-2.45,3.06-3.05.63,1.28,1.26,2.55,1.89,3.83-1.65-.26-3.3-.52-4.95-.78Z"/>
      <path class="cls-121" d="m135.53,253.54c.26,1.24-.27,1.85-1.06,1.47-.82-.4-1.62-1.2-2.02-2.02-.38-.79.24-1.31,1.18-1.12,1.09.21,1.8.8,1.89,1.67Z"/>
      <path class="cls-23" d="m81.71,356.51c-.78,1.5-1.57,3-2.35,4.49-.36.03-.7.11-1.03.24-1.88-3.73,1.67-3.57,3.38-4.73Z"/>
      <path class="cls-121" d="m144.52,261.87c.8,1.72,1.21,3.24-1.58,3.16,0,0,0,0,0,0-.35-1.13-.7-2.26-1.06-3.38.88.08,1.75.15,2.63.23Z"/>
      <path class="cls-113" d="m270.69,296.56c.1,2.15.25,4.31-1.75,5.82-.37-2.23-1.84-4.79,1.75-5.82Z"/>
      <path class="cls-2" d="m215.09,237.63c-1.24-1.79-1.74-2.34-1.66-2.43.62-.77,1.23-1.74,2.07-2.09,1.02-.43,1.16.52.91,1.29-.33.99-.78,1.94-1.31,3.23Z"/>
      <path class="cls-121" d="m117.99,234.67c-1.67,1-2.23,1.49-2.35,1.39-.76-.58-1.67-1.18-2.03-2-.37-.83.29-1.34,1.23-.92.95.42,1.87.9,3.15,1.53Z"/>
      <path class="cls-131" d="m89.89,350.29c.49-1.52,1.66-2.94.71-4.68,1.72.51,2.64,1.95,2.45,3.44-.2,1.55-1.97,1.1-3.16,1.24Z"/>
      <path class="cls-2" d="m224.55,226.66c-.8-.16-1.25-.25-1.71-.34.49-.81.87-1.71,1.5-2.39.49-.54,1.58-.71,1.54.32-.03.85-.9,1.67-1.33,2.41Z"/>
      <path class="cls-2" d="m262.69,220.84c-.35,1.4,1.36,2.86-.05,4.13-.22.19-1.56-.33-1.84-.83-1.07-1.95.59-2.57,1.88-3.3,0,0,0,0,0,0Z"/>
      <path class="cls-121" d="m154.44,272.47c.26,1.24-.27,1.85-1.06,1.47-.82-.4-1.62-1.2-2.02-2.02-.38-.79.24-1.31,1.18-1.12,1.09.21,1.8.8,1.89,1.67Z"/>
      <path class="cls-10" d="m114.81,120.1c1.45-.12,2.89-.25,4.34-.37,4.26,1.11,7.14-3.12,11.17-2.91,4.25-.94,8.18-3.19,12.68-3.14,11.9-1.28,23.85-.82,35.79-.91,3.82-.03,7.6.02,9.86,3.92-1.43,3.35-3.44,5.94,3.27,6.06,4.99.09,9.67,4.05,15.49,2.31,2.12-.63,3.8,2.33,4.95,4.42,1.81,3.29,4.89,6.02,8.19,4.28,4.77-2.52,8.25.41,9.62,2.84,3.51,6.25,9.5,7.7,15.63,10.21-1.31,1.68-2.44,3.15-3.58,4.61-6.37,10.58-14.1,19.98-23.84,27.65-3.84,3.02-8.42,4.91-9.75,10.85-.63,2.78-4.38,5.78-8.5,5.96-.49-.31-.77-.82-1.11-1.29.35.69.9,1.23,1.38,1.86-3.47,7.09-4.64,7.32-11.74,2.3-7.77,5.07-11.96,14.12-20.61,18.3-4.41,2.13-6.69,2.31-11.01-1.93-11.61-11.4-21.26-24.63-34.41-34.77-4.93-3.8-10.16-9.54-14.37-15.44-5.49-7.69-11.7-16.21-22.97-16.68-4.57-.19-3.58-3.56-3.77-6.29,5-4.6,12.68-5.93,15.7-12.94,1.1-.88,2.2-1.76,3.3-2.64,3.76-4.4,8.67-6.14,14.3-6.25Z"/>
      <path class="cls-120" d="m188.63,198.75c4.42,1.55,9.1,4.02,11.03-3.16,3.32-3.64,10.14-4.84,8.2-12.2-.4-1.53,1.14-3.25,2.79-3.21,8.34.18,11.16-7.4,16.22-11.63,5-4.17,9.72-8.9,11.13-15.9.33-1.62,2.67-1.15,4.2-1.24-.5,4.69,5.98,4.4,6.12,8.62-3.79-3.42-5.93-.32-8.32,2.06-15.74,15.72-31.49,31.43-47.27,47.1-1.26,1.25-2.8,2.24-4.2,3.35-.44-1.37-2.78-3.49-1.57-3.77,9.13-2.15,3.47-6.34,1.68-10.03Z"/>
      <path class="cls-124" d="m188.63,116.69c-3.68-3.04-8.07-3.2-12.55-3.16-11.03.09-22.06.1-33.1.15,24.14-3.85,47.84-2.64,70.89,6.15-3.37-.06-6.93,2.13-10.03-1.31-1.03-1.14-2.02-.33-4.03,2.09-1.2,1.44-3.71.95-3.81-.08-.52-5.47-4.48-3.49-7.39-3.84Z"/>
      <path class="cls-5" d="m217.11,120.99c8.45,2.63,16.83,5.4,23.73,11.29-5.85-1.35-12.05-.06-17.69-4.05-2.95-2.1-4.98-4-6.04-7.24Z"/>
      <path class="cls-5" d="m240.98,132.21c2.94.99,6.01,1.8,7.46,5.01-2.23-.14-4.06,1.44-6.62.75-5.43-1.48-3.51-3.42-.85-5.75Z"/>
      <path class="cls-162" d="m267.6,179.72c-6.62,1.15-8.02-2.71-7.77-8.14,3.29,2.04,5.78,4.85,7.77,8.14Z"/>
      <path class="cls-5" d="m251.58,139.06c3.52.9,6.09,3.16,8.31,5.89-3.94-.3-7.73-.83-8.31-5.89Z"/>
      <path class="cls-120" d="m294.06,336.56c.32,2.56-2.18,1.8-3.27,2.52-1.5.98-1.24-.83-1.26-1.63-.03-1.64.43-3.37,2.25-3.56,1.46-.16,2.05,1.31,2.28,2.67Z"/>
      <path class="cls-162" d="m259.83,171.52c-2.32.95-3.02,3.22-4.22,5.44-2-3.34,1.1-5.8.93-8.61,1.52.61,2.64,1.64,3.29,3.17Z"/>
      <path class="cls-161" d="m249.8,359.85c.9-1.17,1.8-2.34,2.72-3.55,1.44,2.17,1.94,4.49.48,7-1.07-1.15-2.14-2.3-3.21-3.44Z"/>
      <path class="cls-117" d="m287.44,350.77c-.37.97-.95,1.87-2.07,1.64-.46-.09-.75-.99-1.12-1.52.61-.4,1.19-.91,1.85-1.18.91-.37,1.37.09,1.34,1.06Z"/>
      <path class="cls-161" d="m254.23,364.71c1.85-.84,3.11-3.82,5.81-1.61-1.6,1.74-2.72,5.26-5.81,1.61Z"/>
      <path class="cls-135" d="m284.75,203.46c-.55-1.03-1.1-2.07-1.65-3.1,1.12-.29,2.39-1.58,3.36-.28,1.42,1.91-1.52,2.03-1.71,3.38Z"/>
      <path class="cls-2" d="m164.99,235.61c-3.82,1.33-4.96-2.23-6.78-4.04-22.7-22.52-45.34-45.11-67.83-67.84-2.96-2.99-5.35-4.68-8.92-1.37-1.82-5.81,4.23-5.28,6.54-6.9,1.71-1.2,5.68.95,5.01,5.53-.58,4,3.28.35,4.91,2.31,4.23,5.08,9.56,9.23,13.89,14.24,4.05,4.68,8.67,8.68,12.98,13.03,5,5.04,9.84,10.21,15.07,15.05,4.82,4.46,8.86,9.71,14.3,13.61,2.16,1.55,4.43,4.22,4.82,6.67.76,4.73,3.76,2.5,6,2.83,2.43,2.3,2.92,4.59,0,6.88Z"/>
      <path class="cls-120" d="m164.99,235.61c1.28-2.29.35-4.58,0-6.88h3.15c3.2-1.38,4.51-5.14,7.88-6.31,5.82-2.65,4.12-8.57,5.7-13.31,1.9,1.36,3.73,2.66,5.56,3.96-6.11,8.83-13.72,16.17-22.3,22.54Z"/>
      <path class="cls-159" d="m32.81,286.67c1.66,2.56,1.52,5.45,1.5,8.32-1.85,1.27-3.71,2.55-6.08,4.18-.59-5.46,6-7.52,4.58-12.49Z"/>
      <path class="cls-2" d="m176.03,222.42c-2.3,2.51-3.41,6.52-7.88,6.31.83-2.66,2.9-4.4,4.73-6.31,1.05-.98,2.1-.87,3.15,0h0Z"/>
      <path class="cls-114" d="m32.89,241.52c-5.03-1.15-3.06-4.89-3.16-8.61,2.46,2.87,2.86,5.74,3.09,8.67,0,0,.07-.06.07-.06Z"/>
      <path class="cls-120" d="m176.03,222.42c-1.05,0-2.1,0-3.15,0-.32-1.13-.63-2.27-.95-3.4,2.51-.25,3.04,1.89,4.1,3.4Z"/>
      <path class="cls-4" d="m64.17,372.33c-.17,1.28-.19,2.97-2.14,1.59-.68-.48-1.41-2.22-1.3-2.31,1.32-1.02,2.26.49,3.44.72h0Z"/>
      <path class="cls-16" d="m141.55,457.76c-.1-.69-.21-1.39-.31-2.08-2.81-2.6-.15-4.99.29-7.46,1.49-.42,2.15.04,1.77,1.64-.45,2.66,0,5.52-1.75,7.9Z"/>
      <path class="cls-15" d="m143.29,449.85c-.59-.55-1.18-1.09-1.77-1.64.36-1.47.78-2.9,2.31-3.76,1.33,2,.68,3.73-.54,5.4Z"/>
      <path class="cls-110" d="m171.31,457.14c-4.92,4.13-8.5,3.17-10.74-2.85.77-2.59.9-5.18-.09-7.76-.17-1.41.43-2.41,1.61-3.12,3.41-1.95,6.55-1.7,9.38,1.12,1.14,2.24,1.61,4.58,1.09,7.08-.39,1-1.01,1.76-1.93,2.38-.35.24-1.55-.27-1.01.83.12.25.96.25,1.45.54.43.37.59.75.51,1.16-.08.42-.17.63-.29.63Z"/>
      <path class="cls-46" d="m171.31,457.14c0-.4,0-.79,0-1.19-.93-1.05-.93-2.1,0-3.15,0-2.63,0-5.25,0-7.88.46-.67.92-.64,1.38,0,2.02,4.35,2.93,8.58-1.37,12.21Z"/>
      <path class="cls-74" d="m172.68,444.93c-.46,0-.92,0-1.38,0-2.85-1.85-6.03-1.69-9.21-1.51,4.24-4.5,7.69-3.38,10.59,1.52Z"/>
      <path class="cls-54" d="m160.48,446.54c2.04,2.56,1.98,5.15.09,7.76-.92-2.58-.98-5.16-.09-7.76Z"/>
      <path class="cls-88" d="m271.92,405.91c-.15-4.36,2.02-7.04,6.22-7.61,4.33-.59,9.63,5.29,9.79,10.46.14,4.38-2.74,6.68-6.28,7.54-4.14,1-9.54-5.13-9.74-10.38Z"/>
      <path class="cls-75" d="m83.32,437.54c-2.82-1.17-7.42-1.36-6.12-4.72,1.84-4.76,2.54-11.28,8.2-13.08,1.92-.61,6.34,2.47,5.84,6.64-.6,5.08-2.63,9.39-7.92,11.15Z"/>
      <path class="cls-35" d="m114.81,120.1c-4.77,2.08-9.54,4.17-14.3,6.25-.64-1.4-1.87-1.73-3.25-1.77h0c2.25-3.47,5.53-5.37,9.46-6.31,2.21,2.48,5.56-1.01,7.77,1.48l.33.35Z"/>
      <path class="cls-68" d="m97.25,124.58c-1.76,2.33-4,1.38-7.2,1.47,2.88-2.23,5.15-1.12,7.2-1.47,0,0,0,0,0,0Z"/>
      <path class="cls-125" d="m130.31,116.82c-.91,3.02-6.49-.14-6.49,5.42,0,1.92-2.81-1.97-4.68-2.5,3.45-2.01,7.07-3.37,11.17-2.92Z"/>
      <path class="cls-47" d="m261.03,141.69c-2.27-1.46-4.54-2.92-6.8-4.38,3.13.08,6.68-.75,6.8,4.38Z"/>
      <path class="cls-36" d="m114.48,119.75c-2.4-1.5-6,3.33-7.77-1.48,2.34,1.8,6.18-4.27,7.77,1.48Z"/>
      <path class="cls-12" d="m58.11,257.19c2.05,6.29,2.25,12.57-.1,18.83-1-6.28-1-12.56.1-18.83Z"/>
      <path class="cls-22" d="m167.61,239.41c-.35,2.91-1.98,3.55-4.25,3.1-.32-.06-.83-.88-.72-1.11,1.01-2.2,2.95-1.93,4.97-1.98Z"/>
      <path class="cls-26" d="m136.43,244.91c-1.12-1.11-2.24-2.23-3.35-3.34,1.39-.3,2.72-2.18,4.12-.78,1.41,1.4-.47,2.74-.77,4.13Z"/>
      <path class="cls-13" d="m226.68,280.68c6.28,9.81,5.31,19.98.69,29.85-3.61,7.71-11.39,7.52-18.43,7.6-13.34.16-10.82.87-10.98-10.6-.13-9.16.22-18.33-.12-27.47-.18-4.89,1.58-6.72,6.28-6.09,6.46.86,13.7-2.2,19.16,3.77.78,1.39,1.65,2.68,3.4,2.93Z"/>
      <path class="cls-133" d="m226.68,280.68c-1.14.4-2.69,1.47-3.33,1.07-1.54-.97.26-2.62-.08-4,2.01-.05,2.78,1.36,3.4,2.93Z"/>
      <path class="cls-20" d="m248.86,316.88c3.03-.3,4.28,1,4.26,4-.02,2.92-1.15,4.17-4.13,4.17-2.92,0-4.22-1.15-4.23-4.09-.01-2.93,1.23-4.32,4.09-4.08Z"/>
      <path class="cls-29" d="m155.22,317.71c.03,1.85.07,3.7.1,5.55-2.56,2.83-5.87,1.47-8.92,1.6-.22-9.02-.13-9.09,8.82-7.14Z"/>
      <path class="cls-120" d="m199.38,195.76c-1.92-3.17-1.02-4.84,2.43-6.51-.95,2.56-1.64,4.41-2.43,6.51Z"/>
      <path class="cls-33" d="m171.29,452.8c0,1.05,0,2.1,0,3.15-1.65-.08-3.29-.16-5.21-.25,1.34-2.35,3.24-2.67,5.2-2.9Z"/>
    </g>
  </g>
</svg>