<?xml version="1.0" encoding="UTF-8"?>
<svg id="Layer_2" data-name="Layer 2" xmlns="http://www.w3.org/2000/svg" viewBox="0 0 19.49 19.49">
  <defs>
    <style>
      .cls-1 {
        fill: #cf453b;
      }

      .cls-1, .cls-2, .cls-3, .cls-4 {
        fill-rule: evenodd;
      }

      .cls-1, .cls-2, .cls-3, .cls-4, .cls-5, .cls-6 {
        stroke-width: 0px;
      }

      .cls-2 {
        fill: #e1bd41;
      }

      .cls-3, .cls-6 {
        fill: #fff;
      }

      .cls-4, .cls-5 {
        fill: #323b92;
      }
    </style>
  </defs>
  <g id="Layer_2-2" data-name="Layer 2">
    <path class="cls-2" d="m9.75,19.49c5.38,0,9.75-4.36,9.75-9.75S15.13,0,9.75,0,0,4.36,0,9.75c0,5.38,4.36,9.75,9.75,9.75Z"/>
    <path class="cls-1" d="m9.75,18.69c4.94,0,8.95-4.01,8.95-8.95S14.69.8,9.75.8.8,4.81.8,9.75s4.01,8.95,8.95,8.95Z"/>
    <path class="cls-2" d="m9.75,15.35c3.09,0,5.6-2.51,5.6-5.6s-2.51-5.6-5.6-5.6-5.6,2.51-5.6,5.6c0,3.09,2.51,5.6,5.6,5.6Z"/>
    <path class="cls-6" d="m9.75,15.32c1.54,0,2.93-.62,3.94-1.63,1.01-1.01,1.63-2.4,1.63-3.94s-.62-2.93-1.63-3.94c-1.01-1.01-2.4-1.63-3.94-1.63s-2.93.62-3.94,1.63c-1.01,1.01-1.63,2.4-1.63,3.94s.62,2.93,1.63,3.94c1.01,1.01,2.4,1.63,3.94,1.63Zm0,.05c-1.55,0-2.96-.63-3.98-1.65-1.02-1.02-1.65-2.42-1.65-3.98s.63-2.96,1.65-3.98c1.02-1.02,2.42-1.65,3.98-1.65s2.96.63,3.98,1.65c1.02,1.02,1.65,2.42,1.65,3.98s-.63,2.96-1.65,3.98c-1.02,1.02-2.42,1.65-3.98,1.65h0Z"/>
    <g>
      <path class="cls-3" d="m10.34,6.99v-.24h-.24v.24h.24Zm-2.17,0v-.24h-.24v.24h.24Zm.24,0v-.24h-.24v.24h.24Zm1.2,0v-.24h-.24v.24h.24Zm-.24,0v-.24h-.24v.24h.24Zm.48,0v-.24h-.24v.24h.24Z"/>
      <path class="cls-5" d="m10.37,7.01h-.29v-.29h.29v.29Zm-.24-.05h.19v-.19h-.19v.19Zm-.24.05h-.77v-.29h.77v.29Zm-.24-.05h.19v-.19h-.19v.19Zm-.24,0h.19v-.19h-.19v.19Zm-.24,0h.19v-.19h-.19v.19Zm-.72.05h-.53v-.29h.53v.29Zm-.24-.05h.19v-.19h-.19v.19Zm-.24,0h.19v-.19h-.19v.19Z"/>
    </g>
    <g>
      <path class="cls-3" d="m10.1,6.99v-.24h-.24v.24h.24Zm.48,0v-.24h-.24v.24h.24Zm1.69.24h.24v-.24h-.24v.24Zm0-.24v-.24h-.24v.24h.24Zm.24,0v-.24h-.24v.24h.24Z"/>
      <path class="cls-5" d="m12.53,7.25h-.29v-.24h-.24v-.29h.53v.53Zm-.24-.05h.19v-.19h-.19v.19Zm0-.24h.19v-.19h-.19v.19Zm-.24,0h.19v-.19h-.19v.19Zm-1.44.05h-.29v-.29h.29v.29Zm-.24-.05h.19v-.19h-.19v.19Zm-.24.05h-.29v-.29h.29v.29Zm-.24-.05h.19v-.19h-.19v.19Z"/>
    </g>
    <g>
      <path class="cls-3" d="m12.03,6.99v-.24h-.24v.24h.24Zm.24.72h.24v-.24h-.24v.24Z"/>
      <path class="cls-5" d="m12.53,7.74h-.29v-.29h.29v.29Zm-.24-.05h.19v-.19h-.19v.19Zm-.24-.67h-.29v-.29h.29v.29Zm-.24-.05h.19v-.19h-.19v.19Z"/>
    </g>
    <g>
      <path class="cls-3" d="m12.27,7.47h.24v-.24h-.24v.24Zm0,.48h.24v-.24h-.24v.24Zm0,.24h.24v-.24h-.24v.24Zm-.48-1.2v-.24h-.24v.24h.24Zm-.72,0v-.24h-.24v.24h.24Zm-1.93,1.93h-.24v.24h.24v-.24Zm1.69-1.93v-.24h-.24v.24h.24Zm-1.69,2.17h-.24v.24h.24v-.24Zm0,.72h-.24v.24h.24v-.24Zm0-.24h-.24v.24h.24v-.24Z"/>
      <path class="cls-5" d="m9.16,10.14h-.29v-.53h.29v.53Zm-.24-.05h.19v-.19h-.19v.19Zm0-.24h.19v-.19h-.19v.19Zm.24-.43h-.29v-.53h.29v.53Zm-.24-.05h.19v-.19h-.19v.19Zm0-.24h.19v-.19h-.19v.19Zm3.61-.91h-.29v-.53h.29v.53Zm-.24-.05h.19v-.19h-.19v.19Zm0-.24h.19v-.19h-.19v.19Zm.24-.43h-.29v-.29h.29v.29Zm-.24-.05h.19v-.19h-.19v.19Zm-.48-.43h-.29v-.29h.29v.29Zm-.24-.05h.19v-.19h-.19v.19Zm-.48.05h-.53v-.29h.53v.29Zm-.24-.05h.19v-.19h-.19v.19Zm-.24,0h.19v-.19h-.19v.19Z"/>
    </g>
    <g>
      <path class="cls-3" d="m9.14,9.39h-.24v.24h.24v-.24Zm.96,3.13v.24h.24v-.24h-.24Zm-2.89,0v.24h.24v-.24h-.24Zm-.24-.48h-.24v.24h.24v-.24Zm0-.24h-.24v.24h.24v-.24Z"/>
      <path class="cls-5" d="m10.37,12.79h-.29v-.29h.29v.29Zm-.24-.05h.19v-.19h-.19v.19Zm-2.65.05h-.29v-.29h.29v.29Zm-.24-.05h.19v-.19h-.19v.19Zm-.24-.43h-.29v-.53h.29v.53Zm-.24-.05h.19v-.19h-.19v.19Zm0-.24h.19v-.19h-.19v.19Zm2.41-2.36h-.29v-.29h.29v.29Zm-.24-.05h.19v-.19h-.19v.19Z"/>
    </g>
    <g>
      <path class="cls-3" d="m6.97,12.52v.24h.24v-.24h-.24Z"/>
      <path class="cls-5" d="m7.24,12.79h-.29v-.29h.29v.29Zm-.24-.05h.19v-.19h-.19v.19Z"/>
    </g>
    <g>
      <path class="cls-3" d="m6.97,12.28h-.24v.24h.24v-.24Zm3.61.24v.24h.24v-.24h-.24Zm-3.61-.96h-.24v.24h.24v-.24Zm2.89.96v.24h.24v-.24h-.24Z"/>
      <path class="cls-5" d="m10.85,12.79h-.29v-.29h.29v.29Zm-.24-.05h.19v-.19h-.19v.19Zm-.48.05h-.29v-.29h.29v.29Zm-.24-.05h.19v-.19h-.19v.19Zm-2.89-.19h-.29v-.29h.29v.29Zm-.24-.05h.19v-.19h-.19v.19Zm.24-.67h-.29v-.29h.29v.29Zm-.24-.05h.19v-.19h-.19v.19Z"/>
    </g>
    <g>
      <path class="cls-3" d="m6.73,12.52v.24h.24v-.24h-.24Zm.24-4.09h-.24v.24h.24v-.24Z"/>
      <path class="cls-5" d="m7,12.79h-.29v-.29h.29v.29Zm-.24-.05h.19v-.19h-.19v.19Zm.24-4.04h-.29v-.29h.29v.29Zm-.24-.05h.19v-.19h-.19v.19Z"/>
    </g>
    <g>
      <path class="cls-3" d="m6.97,8.19h-.24v.24h.24v-.24Zm0,3.13h-.24v.24h.24v-.24Zm0-3.37h-.24v.24h.24v-.24Z"/>
      <path class="cls-5" d="m7,11.59h-.29v-.29h.29v.29Zm-.24-.05h.19v-.19h-.19v.19Zm.24-3.08h-.29v-.53h.29v.53Zm-.24-.05h.19v-.19h-.19v.19Zm0-.24h.19v-.19h-.19v.19Z"/>
    </g>
    <g>
      <path class="cls-3" d="m6.97,7.71h-.24v.24h.24v-.24Zm2.89,1.44v-.24h-.24v.24h.24Zm-.24,0v-.24h-.24v.24h.24Zm-2.65,1.44h-.24v.24h.24v-.24Z"/>
      <path class="cls-5" d="m7,10.87h-.29v-.29h.29v.29Zm-.24-.05h.19v-.19h-.19v.19Zm3.13-1.63h-.53v-.29h.53v.29Zm-.24-.05h.19v-.19h-.19v.19Zm-.24,0h.19v-.19h-.19v.19Zm-2.41-1.15h-.29v-.29h.29v.29Zm-.24-.05h.19v-.19h-.19v.19Z"/>
    </g>
    <g>
      <path class="cls-3" d="m6.97,10.84h-.24v.24h.24v-.24Zm0,.24h-.24v.24h.24v-.24Zm2.41-1.93v-.24h-.24v.24h.24Zm-1.2-1.93v-.24h-.24v.24h.24Zm-.24,0v-.24h-.24v.24h.24Zm1.69,0v-.24h-.24v.24h.24Zm.24,0v-.24h-.24v.24h.24Z"/>
      <path class="cls-5" d="m7,11.35h-.29v-.53h.29v.53Zm-.24-.05h.19v-.19h-.19v.19Zm0-.24h.19v-.19h-.19v.19Zm2.65-1.87h-.29v-.29h.29v.29Zm-.24-.05h.19v-.19h-.19v.19Zm.72-1.87h-.53v-.29h.53v.29Zm-.24-.05h.19v-.19h-.19v.19Zm-.24,0h.19v-.19h-.19v.19Zm-1.2.05h-.53v-.29h.53v.29Zm-.24-.05h.19v-.19h-.19v.19Zm-.24,0h.19v-.19h-.19v.19Z"/>
    </g>
    <g>
      <path class="cls-3" d="m10.1,7.23v-.24h-.24v.24h.24Zm-.72,0v-.24h-.24v.24h.24Zm.96,0v-.24h-.24v.24h.24Zm-3.13.24h-.24v.24h.24v-.24h0Z"/>
      <path class="cls-5" d="m7.24,7.74h-.29v-.29h.29v.29Zm-.24-.05h.19v-.19h-.19v.19Zm3.37-.43h-.53v-.29h.53v.29Zm-.24-.05h.19v-.19h-.19v.19Zm-.24,0h.19v-.19h-.19v.19Zm-.48.05h-.29v-.29h.29v.29Zm-.24-.05h.19v-.19h-.19v.19Z"/>
    </g>
    <g>
      <path class="cls-3" d="m7.21,7.71h-.24v.24h.24v-.24h0Z"/>
      <path class="cls-5" d="m7.24,7.98h-.29v-.29h.29v.29Zm-.24-.05h.19v-.19h-.19v.19Z"/>
    </g>
    <g>
      <path class="cls-3" d="m7.21,7.95h-.24v.24h.24v-.24h0Zm0,.24h-.24v.24h.24v-.24h0Z"/>
      <path class="cls-5" d="m7.24,8.46h-.29v-.53h.29v.53Zm-.24-.05h.19v-.19h-.19v.19Zm0-.24h.19v-.19h-.19v.19Z"/>
    </g>
    <g>
      <path class="cls-3" d="m7.21,8.43h-.24v.24h.24v-.24h0Zm4.81,1.44h.24v-.24h-.24v.24Z"/>
      <path class="cls-5" d="m12.29,9.9h-.29v-.29h.29v.29Zm-.24-.05h.19v-.19h-.19v.19Zm-4.81-1.15h-.29v-.29h.29v.29Zm-.24-.05h.19v-.19h-.19v.19Z"/>
    </g>
    <g>
      <path class="cls-3" d="m12.03,10.12h.24v-.24h-.24v.24Z"/>
      <path class="cls-5" d="m12.29,10.14h-.29v-.29h.29v.29Zm-.24-.05h.19v-.19h-.19v.19Z"/>
    </g>
    <g>
      <path class="cls-3" d="m12.03,10.36h.24v-.24h-.24v.24Zm0-.72h.24v-.24h-.24v.24Zm0-.24h.24v-.24h-.24v.24Z"/>
      <path class="cls-5" d="m12.29,10.38h-.29v-.29h.29v.29Zm-.24-.05h.19v-.19h-.19v.19Zm.24-.67h-.29v-.53h.29v.53Zm-.24-.05h.19v-.19h-.19v.19Zm0-.24h.19v-.19h-.19v.19Z"/>
    </g>
    <g>
      <path class="cls-3" d="m12.03,9.15h.24v-.24h-.24v.24Zm0,1.44h.24v-.24h-.24v.24Zm0,1.2h.24v-.24h-.24v.24Z"/>
      <path class="cls-5" d="m12.29,11.83h-.29v-.29h.29v.29Zm-.24-.05h.19v-.19h-.19v.19Zm.24-1.15h-.29v-.29h.29v.29Zm-.24-.05h.19v-.19h-.19v.19Zm.24-1.39h-.29v-.29h.29v.29Zm-.24-.05h.19v-.19h-.19v.19Z"/>
    </g>
    <g>
      <path class="cls-3" d="m12.03,10.84h.24v-.24h-.24v.24Zm0-1.93h.24v-.24h-.24v.24Zm0-.72h.24v-.24h-.24v.24Zm0-.96v-.24h-.24v.24h.24Zm0,1.44h.24v-.24h-.24v.24Zm-1.2-1.44v-.24h-.24v.24h.24Zm.24,0v-.24h-.24v.24h.24Z"/>
      <path class="cls-5" d="m12.29,10.87h-.29v-.29h.29v.29Zm-.24-.05h.19v-.19h-.19v.19Zm.24-1.87h-.29v-.53h.29v.53Zm-.24-.05h.19v-.19h-.19v.19Zm0-.24h.19v-.19h-.19v.19Zm.24-.43h-.29v-.29h.29v.29Zm-.24-.05h.19v-.19h-.19v.19Zm0-.91h-.29v-.29h.29v.29Zm-.24-.05h.19v-.19h-.19v.19Zm-.72.05h-.53v-.29h.53v.29Zm-.24-.05h.19v-.19h-.19v.19Zm-.24,0h.19v-.19h-.19v.19Z"/>
    </g>
    <g>
      <path class="cls-3" d="m10.58,7.23v-.24h-.24v.24h.24Zm1.69,0v-.24h-.24v.24h.24Zm-.24.72h.24v-.24h-.24v.24Zm0,.48h.24v-.24h-.24v.24Z"/>
      <path class="cls-5" d="m12.29,8.46h-.29v-.29h.29v.29Zm-.24-.05h.19v-.19h-.19v.19Zm.24-.43h-.29v-.29h.29v.29Zm-.24-.05h.19v-.19h-.19v.19Zm.24-.67h-.29v-.29h.29v.29Zm-.24-.05h.19v-.19h-.19v.19Zm-1.44.05h-.29v-.29h.29v.29Zm-.24-.05h.19v-.19h-.19v.19Z"/>
    </g>
    <g>
      <path class="cls-3" d="m12.03,7.71h.24v-.24h-.24v.24Z"/>
      <path class="cls-5" d="m12.29,7.74h-.29v-.29h.29v.29Zm-.24-.05h.19v-.19h-.19v.19Z"/>
    </g>
    <g>
      <path class="cls-3" d="m12.03,7.47h.24v-.24h-.24v.24Zm.24,2.17h.24v-.24h-.24v.24Zm-3.13.48h-.24v.24h.24v-.24Z"/>
      <path class="cls-5" d="m9.16,10.38h-.29v-.29h.29v.29Zm-.24-.05h.19v-.19h-.19v.19Zm3.61-.67h-.29v-.29h.29v.29Zm-.24-.05h.19v-.19h-.19v.19Zm0-2.12h-.29v-.29h.29v.29Zm-.24-.05h.19v-.19h-.19v.19Z"/>
    </g>
    <g>
      <path class="cls-3" d="m8.9,10.36v.24h.24v-.24h-.24Zm3.37,1.93h.24v-.24h-.24v.24Zm0-.24h.24v-.24h-.24v.24Zm-3.13-1.69v.24h.24v-.24h-.24Zm.96,0v.24h.24v-.24h-.24Zm1.93,1.93v.24h.24v-.24h-.24Zm-.24,0v.24h.24v-.24h-.24Z"/>
      <path class="cls-5" d="m12.29,12.55h-.53v-.29h.48v-.48h.29v.53h-.24v.24Zm-.24-.05h.19v-.19h-.19v.19Zm-.24,0h.19v-.19h-.19v.19Zm.48-.24h.19v-.19h-.19v.19Zm0-.24h.19v-.19h-.19v.19Zm-1.93-1.39h-.29v-.29h.29v.29Zm-.24-.05h.19v-.19h-.19v.19Zm-.72.05h-.53v-.29h.53v.29Zm-.24-.05h.19v-.19h-.19v.19Zm-.24,0h.19v-.19h-.19v.19Z"/>
    </g>
    <g>
      <path class="cls-3" d="m10.34,10.36h.24v-.24h-.24v.24Zm-.72,0v.24h.24v-.24h-.24Zm-.24,0v.24h.24v-.24h-.24Zm.48,0v.24h.24v-.24h-.24Zm2.41-1.44h.24v-.24h-.24v.24Zm0,.24h.24v-.24h-.24v.24Z"/>
      <path class="cls-5" d="m10.13,10.62h-.77v-.29h.77v.29Zm-.24-.05h.19v-.19h-.19v.19Zm-.24,0h.19v-.19h-.19v.19Zm-.24,0h.19v-.19h-.19v.19Zm1.2-.19h-.29v-.29h.29v.29Zm-.24-.05h.19v-.19h-.19v.19Zm2.17-1.15h-.29v-.53h.29v.53Zm-.24-.05h.19v-.19h-.19v.19Zm0-.24h.19v-.19h-.19v.19Z"/>
    </g>
    <g>
      <path class="cls-3" d="m12.27,9.39h.24v-.24h-.24v.24Zm0-.96h.24v-.24h-.24v.24Zm0,1.44h.24v-.24h-.24v.24Zm-.72,2.41v.24h.24v-.24h-.24Z"/>
      <path class="cls-5" d="m11.81,12.55h-.29v-.29h.29v.29Zm-.24-.05h.19v-.19h-.19v.19Zm.96-2.6h-.29v-.29h.29v.29Zm-.24-.05h.19v-.19h-.19v.19Zm.24-.43h-.29v-.29h.29v.29Zm-.24-.05h.19v-.19h-.19v.19Zm.24-.91h-.29v-.29h.29v.29Zm-.24-.05h.19v-.19h-.19v.19Z"/>
    </g>
    <g>
      <path class="cls-3" d="m12.27,8.67h.24v-.24h-.24v.24Zm0,1.44h.24v-.24h-.24v.24Z"/>
      <path class="cls-5" d="m12.53,10.14h-.29v-.29h.29v.29Zm-.24-.05h.19v-.19h-.19v.19Zm.24-1.39h-.29v-.29h.29v.29Zm-.24-.05h.19v-.19h-.19v.19Z"/>
    </g>
    <g>
      <path class="cls-3" d="m12.27,10.36h.24v-.24h-.24v.24Zm0,.24h.24v-.24h-.24v.24Zm0,1.2h.24v-.24h-.24v.24Zm-5.3.48v.24h.24v-.24h-.24Zm.24-.48h-.24v.24h.24v-.24h0Zm0,.24h-.24v.24h.24v-.24h0Z"/>
      <path class="cls-5" d="m7.24,12.55h-.29v-.77s.29,0,.29,0v.77Zm-.24-.05h.19v-.19h-.19v.19Zm0-.24h.19v-.19h-.19v.19Zm0-.24h.19v-.19h-.19v.19Zm5.54-.19h-.29v-.29h.29v.29Zm-.24-.05h.19v-.19h-.19v.19Zm.24-1.15h-.29v-.53h.29v.53Zm-.24-.05h.19v-.19h-.19v.19Zm0-.24h.19v-.19h-.19v.19Z"/>
    </g>
    <g>
      <path class="cls-3" d="m7.21,12.28v.24h.24v-.24h-.24Zm.24,0v.24h.24v-.24h-.24Zm4.57-.24h.24v-.24h-.24v.24Zm-1.69-1.44h.24v-.24h-.24v.24Zm-3.13.48h-.24v.24h.24v-.24h0Z"/>
      <path class="cls-5" d="m7.72,12.55h-.53v-.29h.53v.29Zm-.24-.05h.19v-.19h-.19v.19Zm-.24,0h.19v-.19h-.19v.19Zm5.06-.43h-.29v-.29h.29v.29Zm-.24-.05h.19v-.19h-.19v.19Zm-4.81-.67h-.29v-.29h.29v.29Zm-.24-.05h.19v-.19h-.19v.19Zm3.61-.67h-.29v-.29h.29v.29Zm-.24-.05h.19v-.19h-.19v.19Z"/>
    </g>
    <g>
      <path class="cls-3" d="m7.21,11.32h-.24v.24h.24v-.24h0Zm0,.24h-.24v.24h.24v-.24h0Zm3.37.72v.24h.24v-.24h-.24Zm-1.44,0v.24h.24v-.24h-.24Zm-1.93-1.44h-.24v.24h.24v-.24h0Zm2.41-4.33v-.24h-.24v.24h.24Zm1.44,0v-.24h-.24v.24h.24Zm-.24,0v-.24h-.24v.24h.24Zm-.48,0v-.24h-.24v.24h.24Zm-.48,0v-.24h-.24v.24h.24Z"/>
      <path class="cls-5" d="m10.85,12.55h-.29v-.29h.29v.29Zm-.24-.05h.19v-.19h-.19v.19Zm-1.2.05h-.29v-.29h.29v.29Zm-.24-.05h.19v-.19h-.19v.19Zm-1.93-.67h-.29v-.53h.29v.53Zm-.24-.05h.19v-.19h-.19v.19Zm0-.24h.19v-.19h-.19v.19Zm.24-.43h-.29v-.29h.29v.29Zm-.24-.05h.19v-.19h-.19v.19Zm4.09-4.52h-.53v-.29h.53v.29Zm-.24-.05h.19v-.19h-.19v.19Zm-.24,0h.19v-.19h-.19v.19Zm-.24.05h-.29v-.29h.29v.29Zm-.24-.05h.19v-.19h-.19v.19Zm-.24.05h-.53v-.29h.53v.29Zm-.24-.05h.19v-.19h-.19v.19Zm-.24,0h.19v-.19h-.19v.19Z"/>
    </g>
    <g>
      <path class="cls-3" d="m10.1,6.51v-.24h-.24v.24h.24Zm.48,0v-.24h-.24v.24h.24Zm2.17,0v-.24h-.24v.24h.24Zm-.72,0v-.24h-.24v.24h.24Z"/>
      <path class="cls-5" d="m12.77,6.53h-.29v-.29h.29v.29Zm-.24-.05h.19v-.19h-.19v.19Zm-.48.05h-.29v-.29h.29v.29Zm-.24-.05h.19v-.19h-.19v.19Zm-1.2.05h-.29v-.29h.29v.29Zm-.24-.05h.19v-.19h-.19v.19Zm-.24.05h-.29v-.29h.29v.29Zm-.24-.05h.19v-.19h-.19v.19Z"/>
    </g>
    <g>
      <path class="cls-3" d="m12.51,6.51v-.24h-.24v.24h.24Zm-.72,0v-.24h-.24v.24h.24Zm.48,0v-.24h-.24v.24h.24Zm-4.33,0v-.24h-.24v.24h.24Zm1.44,0v-.24h-.24v.24h.24Z"/>
      <path class="cls-5" d="m12.53,6.53h-.53v-.29h.53v.29Zm-.24-.05h.19v-.19h-.19v.19Zm-.24,0h.19v-.19h-.19v.19Zm-.24.05h-.29v-.29h.29v.29Zm-.24-.05h.19v-.19h-.19v.19Zm-2.17.05h-.29v-.29h.29v.29Zm-.24-.05h.19v-.19h-.19v.19Zm-1.2.05h-.29v-.29h.29v.29Zm-.24-.05h.19v-.19h-.19v.19Z"/>
    </g>
    <g>
      <path class="cls-3" d="m11.55,6.51v-.24h-.24v.24h.24Zm1.44,0v-.24h-.24v.24h.24Zm-.24,4.33h.24v-.24h-.24v.24Zm0-.48h.24v-.24h-.24v.24Zm0-.72h.24v-.24h-.24v.24Zm0,.24h.24v-.24h-.24v.24Z"/>
      <path class="cls-5" d="m13.02,10.87h-.29v-.29h.29v.29Zm-.24-.05h.19v-.19h-.19v.19Zm.24-.43h-.29v-.29h.29v.29Zm-.24-.05h.19v-.19h-.19v.19Zm.24-.43h-.29v-.53h.29v.53Zm-.24-.05h.19v-.19h-.19v.19Zm0-.24h.19v-.19h-.19v.19Zm.24-3.08h-.29v-.29h.29v.29Zm-.24-.05h.19v-.19h-.19v.19Zm-1.2.05h-.29v-.29h.29v.29Zm-.24-.05h.19v-.19h-.19v.19Z"/>
    </g>
    <g>
      <path class="cls-3" d="m12.75,10.12h.24v-.24h-.24v.24Zm0,2.17h.24v-.24h-.24v.24Zm0-.24h.24v-.24h-.24v.24Zm0-.48h.24v-.24h-.24v.24Z"/>
      <path class="cls-5" d="m13.02,12.31h-.29v-.53h.29v.53Zm-.24-.05h.19v-.19h-.19v.19Zm0-.24h.19v-.19h-.19v.19Zm.24-.43h-.29v-.29h.29v.29Zm-.24-.05h.19v-.19h-.19v.19Zm.24-1.39h-.29v-.29h.29v.29Zm-.24-.05h.19v-.19h-.19v.19Z"/>
    </g>
    <g>
      <path class="cls-3" d="m12.75,11.8h.24v-.24h-.24v.24Zm0-1.2h.24v-.24h-.24v.24Zm0-3.37h.24v-.24h-.24v.24Zm0,.24h.24v-.24h-.24v.24Zm0,.48h.24v-.24h-.24v.24Z"/>
      <path class="cls-5" d="m13.02,11.83h-.29v-.29h.29v.29Zm-.24-.05h.19v-.19h-.19v.19Zm.24-1.15h-.29v-.29h.29v.29Zm-.24-.05h.19v-.19h-.19v.19Zm.24-2.6h-.29v-.29h.29v.29Zm-.24-.05h.19v-.19h-.19v.19Zm.24-.43h-.29v-.53h.29v.53Zm-.24-.05h.19v-.19h-.19v.19Zm0-.24h.19v-.19h-.19v.19Z"/>
    </g>
    <g>
      <path class="cls-3" d="m12.75,7.71h.24v-.24h-.24v.24Zm0-.96h.24v-.24h-.24v.24Z"/>
      <path class="cls-5" d="m13.02,7.74h-.29v-.29h.29v.29Zm-.24-.05h.19v-.19h-.19v.19Zm.24-.91h-.29v-.29h.29v.29Zm-.24-.05h.19v-.19h-.19v.19Z"/>
    </g>
    <g>
      <path class="cls-3" d="m12.75,6.99h.24v-.24h-.24v.24Zm0,1.44h.24v-.24h-.24v.24Zm0,.72h.24v-.24h-.24v.24Zm0-.24h.24v-.24h-.24v.24Z"/>
      <path class="cls-5" d="m13.02,9.18h-.29v-.53h.29v.53Zm-.24-.05h.19v-.19h-.19v.19Zm0-.24h.19v-.19h-.19v.19Zm.24-.43h-.29v-.29h.29v.29Zm-.24-.05h.19v-.19h-.19v.19Zm.24-1.39h-.29v-.29h.29v.29Zm-.24-.05h.19v-.19h-.19v.19Z"/>
    </g>
    <g>
      <path class="cls-3" d="m12.75,8.19h.24v-.24h-.24v.24Zm0,1.2h.24v-.24h-.24v.24Zm0-.72h.24v-.24h-.24v.24Zm0,4.09h.24v-.24h-.24v.24Zm-.72.24v.24h.24v-.24h-.24Zm-5.54-2.17h-.24v.24h.24v-.24Zm0,.24h-.24v.24h.24v-.24Zm0,.96h-.24v.24h.24v-.24Zm0-.24h-.24v.24h.24v-.24Z"/>
      <path class="cls-5" d="m12.29,13.27h-.29v-.29h.29v.29Zm-.24-.05h.19v-.19h-.19v.19Zm.96-.43h-.29v-.29h.29v.29Zm-.24-.05h.19v-.19h-.19v.19Zm-6.26-.43h-.29v-.53h.29v.53Zm-.24-.05h.19v-.19h-.19v.19Zm0-.24h.19v-.19h-.19v.19Zm.24-.67h-.29v-.53h.29v.53Zm-.24-.05h.19v-.19h-.19v.19Zm0-.24h.19v-.19h-.19v.19Zm6.74-1.63h-.29v-.29h.29v.29Zm-.24-.05h.19v-.19h-.19v.19Zm.24-.67h-.29v-.29h.29v.29Zm-.24-.05h.19v-.19h-.19v.19Zm.24-.43h-.29v-.29h.29v.29Zm-.24-.05h.19v-.19h-.19v.19Z"/>
    </g>
    <g>
      <path class="cls-3" d="m6.49,11.56h-.24v.24h.24v-.24Zm0,.72h-.24v.24h.24v-.24Z"/>
      <path class="cls-5" d="m6.52,12.55h-.29v-.29h.29v.29Zm-.24-.05h.19v-.19h-.19v.19Zm.24-.67h-.29v-.29h.29v.29Zm-.24-.05h.19v-.19h-.19v.19Z"/>
    </g>
    <g>
      <path class="cls-3" d="m6.49,12.52h-.24v.24h.24v-.24Z"/>
      <path class="cls-5" d="m6.52,12.79h-.29v-.29h.29v.29Zm-.24-.05h.19v-.19h-.19v.19Z"/>
    </g>
    <g>
      <path class="cls-3" d="m6.49,12.77h-.24v.24h.24v-.24Zm0-2.17h-.24v.24h.24v-.24Zm0,.72h-.24v.24h.24v-.24Zm5.3-4.57v-.24h-.24v.24h.24Zm.24,0v-.24h-.24v.24h.24Zm-1.2,0v-.24h-.24v.24h.24Zm.24,0v-.24h-.24v.24h.24Zm1.44.48h.24v-.24h-.24v.24Zm0-.24h.24v-.24h-.24v.24Z"/>
      <path class="cls-5" d="m6.52,13.03h-.29v-.29h.29v.29Zm-.24-.05h.19v-.19h-.19v.19Zm.24-1.39h-.29v-.29h.29v.29Zm-.24-.05h.19v-.19h-.19v.19Zm.24-.67h-.29v-.29h.29v.29Zm-.24-.05h.19v-.19h-.19v.19Zm6.5-3.56h-.29v-.53h.29v.53Zm-.24-.05h.19v-.19h-.19v.19Zm0-.24h.19v-.19h-.19v.19Zm-.48-.19h-.53v-.29h.53v.29Zm-.24-.05h.19v-.19h-.19v.19Zm-.24,0h.19v-.19h-.19v.19Zm-.48.05h-.53v-.29h.53v.29Zm-.24-.05h.19v-.19h-.19v.19Zm-.24,0h.19v-.19h-.19v.19Z"/>
    </g>
    <g>
      <path class="cls-3" d="m10.58,6.75v-.24h-.24v.24h.24Zm1.93.96h.24v-.24h-.24v.24Zm0-.96v-.24h-.24v.24h.24Z"/>
      <path class="cls-5" d="m12.77,7.74h-.29v-.29h.29v.29Zm-.24-.05h.19v-.19h-.19v.19Zm0-.91h-.29v-.29h.29v.29Zm-.24-.05h.19v-.19h-.19v.19Zm-1.69.05h-.29v-.29h.29v.29Zm-.24-.05h.19v-.19h-.19v.19Z"/>
    </g>
    <g>
      <path class="cls-3" d="m12.75,6.75v-.24h-.24v.24h.24Zm-.24.72h.24v-.24h-.24v.24Zm.24,5.54h.24v-.24h-.24v.24Zm-2.65-6.26v-.24h-.24v.24h.24Z"/>
      <path class="cls-5" d="m13.02,13.03h-.29v-.29h.29v.29Zm-.24-.05h.19v-.19h-.19v.19Zm0-5.49h-.29v-.29h.29v.29Zm-.24-.05h.19v-.19h-.19v.19Zm.24-.67h-.29v-.29h.29v.29Zm-.24-.05h.19v-.19h-.19v.19Zm-2.41.05h-.29v-.29h.29v.29Zm-.24-.05h.19v-.19h-.19v.19Z"/>
    </g>
    <g>
      <path class="cls-3" d="m9.86,6.75v-.24h-.24v.24h.24Zm-.24,0v-.24h-.24v.24h.24Zm.72,0v-.24h-.24v.24h.24Zm-.96,0v-.24h-.24v.24h.24Zm2.89,0v-.24h-.24v.24h.24Zm.24,5.3h.24v-.24h-.24v.24Z"/>
      <path class="cls-5" d="m12.77,12.07h-.29v-.29h.29v.29Zm-.24-.05h.19v-.19h-.19v.19Zm-.24-5.24h-.29v-.29h.29v.29Zm-.24-.05h.19v-.19h-.19v.19Zm-1.69.05h-.29v-.29h.29v.29Zm-.24-.05h.19v-.19h-.19v.19Zm-.24.05h-.77v-.29h.77v.29Zm-.24-.05h.19v-.19h-.19v.19Zm-.24,0h.19v-.19h-.19v.19Zm-.24,0h.19v-.19h-.19v.19Z"/>
    </g>
    <g>
      <path class="cls-3" d="m12.51,11.8h.24v-.24h-.24v.24Zm0,.48h.24v-.24h-.24v.24Z"/>
      <path class="cls-5" d="m12.77,12.31h-.29v-.29h.29v.29Zm-.24-.05h.19v-.19h-.19v.19Zm.24-.43h-.29v-.29h.29v.29Zm-.24-.05h.19v-.19h-.19v.19Z"/>
    </g>
    <g>
      <path class="cls-3" d="m12.51,11.56h.24v-.24h-.24v.24Zm0,1.2h.24v-.24h-.24v.24Zm-2.41-3.61v-.24h-.24v.24h.24Zm1.69,3.37v.24h.24v-.24h-.24Zm.24,0v.24h.24v-.24h-.24Zm.48-4.57h.24v-.24h-.24v.24Zm-2.17,1.2v-.24h-.24v.24h.24Zm2.17-.48h.24v-.24h-.24v.24Zm0,.72h.24v-.24h-.24v.24Z"/>
      <path class="cls-5" d="m12.77,12.79h-.29v-.29h.29v.29Zm-.24-.05h.19v-.19h-.19v.19Zm-.24.05h-.53v-.29h.53v.29Zm-.24-.05h.19v-.19h-.19v.19Zm-.24,0h.19v-.19h-.19v.19Zm.96-1.15h-.29v-.29h.29v.29Zm-.24-.05h.19v-.19h-.19v.19Zm.24-2.12h-.29v-.29h.29v.29Zm-.24-.05h.19v-.19h-.19v.19Zm-2.17-.19h-.53v-.29h.53v.29Zm-.24-.05h.19v-.19h-.19v.19Zm-.24,0h.19v-.19h-.19v.19Zm2.89-.43h-.29v-.29h.29v.29Zm-.24-.05h.19v-.19h-.19v.19Zm.24-.67h-.29v-.29h.29v.29Zm-.24-.05h.19v-.19h-.19v.19Z"/>
    </g>
    <g>
      <path class="cls-3" d="m12.51,9.15h.24v-.24h-.24v.24Zm0-.24h.24v-.24h-.24v.24Zm0-.48h.24v-.24h-.24v.24Z"/>
      <path class="cls-5" d="m12.77,9.18h-.29v-.53h.29v.53Zm-.24-.05h.19v-.19h-.19v.19Zm0-.24h.19v-.19h-.19v.19Zm.24-.43h-.29v-.29h.29v.29Zm-.24-.05h.19v-.19h-.19v.19Z"/>
    </g>
    <g>
      <path class="cls-3" d="m12.51,8.19h.24v-.24h-.24v.24Zm0,2.41h.24v-.24h-.24v.24Zm0-.24h.24v-.24h-.24v.24Zm0-.72h.24v-.24h-.24v.24Zm0,.24h.24v-.24h-.24v.24Z"/>
      <path class="cls-5" d="m12.77,10.62h-.29v-.53h.29v.53Zm-.24-.05h.19v-.19h-.19v.19Zm0-.24h.19v-.19h-.19v.19Zm.24-.43h-.29v-.53h.29v.53Zm-.24-.05h.19v-.19h-.19v.19Zm0-.24h.19v-.19h-.19v.19Zm.24-1.39h-.29v-.29h.29v.29Zm-.24-.05h.19v-.19h-.19v.19Z"/>
    </g>
    <g>
      <path class="cls-3" d="m12.51,10.12h.24v-.24h-.24v.24Zm-6.02,2.65v.24h.24v-.24h-.24Zm5.54,0v.24h.24v-.24h-.24Zm-.24,0v.24h.24v-.24h-.24Zm-1.93,0v.24h.24v-.24h-.24Zm2.65,0v.24h.24v-.24h-.24Z"/>
      <path class="cls-5" d="m12.77,13.03h-.29v-.29h.29v.29Zm-.24-.05h.19v-.19h-.19v.19Zm-.24.05h-.53v-.29h.53v.29Zm-.24-.05h.19v-.19h-.19v.19Zm-.24,0h.19v-.19h-.19v.19Zm-1.69.05h-.29v-.29h.29v.29Zm-.24-.05h.19v-.19h-.19v.19Zm-3.13.05h-.29v-.29h.29v.29Zm-.24-.05h.19v-.19h-.19v.19Zm6.26-2.84h-.29v-.29h.29v.29Zm-.24-.05h.19v-.19h-.19v.19Z"/>
    </g>
    <g>
      <path class="cls-3" d="m10.1,12.77v.24h.24v-.24h-.24Z"/>
      <path class="cls-5" d="m10.37,13.03h-.29v-.29h.29v.29Zm-.24-.05h.19v-.19h-.19v.19Z"/>
    </g>
    <g>
      <path class="cls-3" d="m10.34,12.77v.24h.24v-.24h-.24Zm-3.61-4.33h-.24v.24h.24v-.24Z"/>
      <path class="cls-5" d="m10.61,13.03h-.29v-.29h.29v.29Zm-.24-.05h.19v-.19h-.19v.19Zm-3.61-4.28h-.29v-.29h.29v.29Zm-.24-.05h.19v-.19h-.19v.19Z"/>
    </g>
    <g>
      <path class="cls-3" d="m6.73,8.19h-.24v.24h.24v-.24Zm0,2.65h-.24v.24h.24v-.24Zm0,.72h-.24v.24h.24v-.24Z"/>
      <path class="cls-5" d="m6.76,11.83h-.29v-.29h.29v.29Zm-.24-.05h.19v-.19h-.19v.19Zm.24-.67h-.29v-.29h.29v.29Zm-.24-.05h.19v-.19h-.19v.19Zm.24-2.6h-.29v-.29h.29v.29Zm-.24-.05h.19v-.19h-.19v.19Z"/>
    </g>
    <g>
      <path class="cls-3" d="m6.73,11.8h-.24v.24h.24v-.24Zm0,.48h-.24v.24h.24v-.24Zm0-.24h-.24v.24h.24v-.24Zm0-.96h-.24v.24h.24v-.24Z"/>
      <path class="cls-5" d="m6.76,12.55h-.29v-.77h.29v.77Zm-.24-.05h.19v-.19h-.19v.19Zm0-.24h.19v-.19h-.19v.19Zm0-.24h.19v-.19h-.19v.19Zm.24-.67h-.29v-.29h.29v.29Zm-.24-.05h.19v-.19h-.19v.19Z"/>
    </g>
    <g>
      <path class="cls-3" d="m6.73,11.32h-.24v.24h.24v-.24Zm0-.72h-.24v.24h.24v-.24Zm0,1.93h-.24v.24h.24v-.24Zm3.61-1.69v.24h.24v-.24h-.24Zm-1.2.48v.24h.24v-.24h-.24Zm.72,0v.24h.24v-.24h-.24Zm-.24,0v.24h.24v-.24h-.24Z"/>
      <path class="cls-5" d="m6.76,12.79h-.29v-.29h.29v.29Zm-.24-.05h.19v-.19h-.19v.19Zm3.61-1.15h-.53v-.29h.53v.29Zm-.24-.05h.19v-.19h-.19v.19Zm-.24,0h.19v-.19h-.19v.19Zm-.24.05h-.29v-.29h.29v.29Zm-.24-.05h.19v-.19h-.19v.19Zm-2.41.05h-.29v-.29h.29v.29Zm-.24-.05h.19v-.19h-.19v.19Zm4.09-.43h-.29v-.29h.29v.29Zm-.24-.05h.19v-.19h-.19v.19Zm-3.61-.19h-.29v-.29h.29v.29Zm-.24-.05h.19v-.19h-.19v.19Z"/>
    </g>
    <g>
      <path class="cls-3" d="m10.1,11.32v.24h.24v-.24h-.24Zm.72-2.65v-.24h-.24v.24h.24Z"/>
      <path class="cls-5" d="m10.37,11.59h-.29v-.29h.29v.29Zm-.24-.05h.19v-.19h-.19v.19Zm.72-2.84h-.29v-.29h.29v.29Zm-.24-.05h.19v-.19h-.19v.19Z"/>
    </g>
    <g>
      <path class="cls-3" d="m10.58,8.67v-.24h-.24v.24h.24Zm-.48,0v-.24h-.24v.24h.24Z"/>
      <path class="cls-5" d="m10.61,8.7h-.29v-.29h.29v.29Zm-.24-.05h.19v-.19h-.19v.19Zm-.24.05h-.29v-.29h.29v.29Zm-.24-.05h.19v-.19h-.19v.19Z"/>
    </g>
    <g>
      <path class="cls-3" d="m10.34,8.67v-.24h-.24v.24h.24Zm.96,1.44h.24v-.24h-.24v.24Z"/>
      <path class="cls-5" d="m11.57,10.14h-.29v-.29h.29v.29Zm-.24-.05h.19v-.19h-.19v.19Zm-.96-1.39h-.29v-.29h.29v.29Zm-.24-.05h.19v-.19h-.19v.19Z"/>
    </g>
    <g>
      <path class="cls-3" d="m11.3,9.88h.24v-.24h-.24v.24Zm0,.48h.24v-.24h-.24v.24Zm0-.96h.24v-.24h-.24v.24Zm0,.24h.24v-.24h-.24v.24Zm0,.96h.24v-.24h-.24v.24Zm0,.48h.24v-.24h-.24v.24Zm0,.48h.24v-.24h-.24v.24Z"/>
      <path class="cls-5" d="m11.57,11.59h-.29v-.29h.29v.29Zm-.24-.05h.19v-.19h-.19v.19Zm.24-.43h-.29v-.29h.29v.29Zm-.24-.05h.19v-.19h-.19v.19Zm.24-.43h-.29v-.53h.29v.53Zm-.24-.05h.19v-.19h-.19v.19Zm0-.24h.19v-.19h-.19v.19Zm.24-.43h-.29v-.77h.29v.77Zm-.24-.05h.19v-.19h-.19v.19Zm0-.24h.19v-.19h-.19v.19Zm0-.24h.19v-.19h-.19v.19Z"/>
    </g>
    <g>
      <path class="cls-3" d="m11.06,11.32v.24h.24v-.24h-.24Zm.24-.48h.24v-.24h-.24v.24Zm0-1.69h.24v-.24h-.24v.24Z"/>
      <path class="cls-5" d="m11.33,11.59h-.29v-.29h.29v.29Zm-.24-.05h.19v-.19h-.19v.19Zm.48-.67h-.29v-.29h.29v.29Zm-.24-.05h.19v-.19h-.19v.19Zm.24-1.63h-.29v-.29h.29v.29Zm-.24-.05h.19v-.19h-.19v.19Z"/>
    </g>
    <g>
      <path class="cls-3" d="m11.3,11.32h.24v-.24h-.24v.24Zm-.48,0v.24h.24v-.24h-.24Zm-2.65-3.37h-.24v.24h.24v-.24Zm0,.96h-.24v.24h.24v-.24Zm0-.72h-.24v.24h.24v-.24Zm0,.48h-.24v.24h.24v-.24Z"/>
      <path class="cls-5" d="m11.09,11.59h-.29v-.29h.29v.29Zm-.24-.05h.19v-.19h-.19v.19Zm.72-.19h-.29v-.29h.29v.29Zm-.24-.05h.19v-.19h-.19v.19Zm-3.13-2.12h-.29v-.53h.29v.53Zm-.24-.05h.19v-.19h-.19v.19Zm0-.24h.19v-.19h-.19v.19Zm.24-.43h-.29v-.53h.29v.53Zm-.24-.05h.19v-.19h-.19v.19Zm0-.24h.19v-.19h-.19v.19Z"/>
    </g>
    <g>
      <path class="cls-3" d="m8.17,8.43h-.24v.24h.24v-.24Zm.24-.24v-.24h-.24v.24h.24Zm1.44.48v-.24h-.24v.24h.24Zm-.24-.48v-.24h-.24v.24h.24Zm.24,0v-.24h-.24v.24h.24Zm-1.69,2.89h-.24v.24h.24v-.24Zm0-.24h-.24v.24h.24v-.24Zm0,.48v.24h.24v-.24h-.24Z"/>
      <path class="cls-5" d="m8.44,11.59h-.29v-.24h-.24v-.53h.29v.48h.24v.29Zm-.24-.05h.19v-.19h-.19v.19Zm-.24-.24h.19v-.19h-.19v.19Zm0-.24h.19v-.19h-.19v.19Zm1.93-2.36h-.29v-.29h.29v.29Zm-.24-.05h.19v-.19h-.19v.19Zm-1.44.05h-.29v-.29h.29v.29Zm-.24-.05h.19v-.19h-.19v.19Zm1.93-.43h-.53v-.29h.53v.29Zm-.24-.05h.19v-.19h-.19v.19Zm-.24,0h.19v-.19h-.19v.19Zm-.96.05h-.29v-.29h.29v.29Zm-.24-.05h.19v-.19h-.19v.19Z"/>
    </g>
    <g>
      <path class="cls-3" d="m8.17,10.6h-.24v.24h.24v-.24Zm1.44-1.93v-.24h-.24v.24h.24Zm-.24,0v-.24h-.24v.24h.24Zm-1.2,1.69h-.24v.24h.24v-.24Zm0-.96h-.24v.24h.24v-.24Z"/>
      <path class="cls-5" d="m8.2,10.87h-.29v-.53h.29v.53Zm-.24-.05h.19v-.19h-.19v.19Zm0-.24h.19v-.19h-.19v.19Zm.24-.91h-.29v-.29h.29v.29Zm-.24-.05h.19v-.19h-.19v.19Zm1.69-.91h-.53v-.29h.53v.29Zm-.24-.05h.19v-.19h-.19v.19Zm-.24,0h.19v-.19h-.19v.19Z"/>
    </g>
    <g>
      <path class="cls-3" d="m8.17,9.64h-.24v.24h.24v-.24Zm0,.48h-.24v.24h.24v-.24Z"/>
      <path class="cls-5" d="m8.2,10.38h-.29v-.29h.29v.29Zm-.24-.05h.19v-.19h-.19v.19Zm.24-.43h-.29v-.29h.29v.29Zm-.24-.05h.19v-.19h-.19v.19Z"/>
    </g>
    <g>
      <path class="cls-3" d="m8.17,9.88h-.24v.24h.24v-.24Zm-.24.48h-.24v.24h.24v-.24Zm0-2.65h-.24v.24h.24v-.24Zm.48.24v-.24h-.24v.24h.24Zm1.93,0v-.24h-.24v.24h.24Z"/>
      <path class="cls-5" d="m7.96,10.62h-.29v-.29h.29v.29Zm-.24-.05h.19v-.19h-.19v.19Zm.48-.43h-.29v-.29h.29v.29Zm-.24-.05h.19v-.19h-.19v.19Zm0-2.11h-.29v-.29h.29v.29Zm-.24-.05h.19v-.19h-.19v.19Zm2.65.05h-.29v-.29h.29v.29Zm-.24-.05h.19v-.19h-.19v.19Zm-1.68.05h-.29v-.29h.29v.29Zm-.24-.05h.19v-.19h-.19v.19Z"/>
    </g>
    <g>
      <path class="cls-3" d="m7.93,7.95h-.24v.24h.24v-.24Zm0,.24h-.24v.24h.24v-.24Z"/>
      <path class="cls-5" d="m7.96,8.46h-.29v-.53h.29v.53Zm-.24-.05h.19v-.19h-.19v.19Zm0-.24h.19v-.19h-.19v.19Z"/>
    </g>
    <g>
      <path class="cls-3" d="m7.93,8.43h-.24v.24h.24v-.24Zm1.69-.48v-.24h-.24v.24h.24Zm.48,0v-.24h-.24v.24h.24Zm-2.41,3.61v.24h.24v-.24h-.24Zm.48-3.61v-.24h-.24v.24h.24Zm-.24,2.65h-.24v.24h.24v-.24Zm0-.48h-.24v.24h.24v-.24Z"/>
      <path class="cls-5" d="m7.96,11.83h-.29v-.29h.29v.29Zm-.24-.05h.19v-.19h-.19v.19Zm.24-.91h-.29v-.29h.29v.29Zm-.24-.05h.19v-.19h-.19v.19Zm.24-.43h-.29v-.29h.29v.29Zm-.24-.05h.19v-.19h-.19v.19Zm.24-1.63h-.29v-.29h.29v.29Zm-.24-.05h.19v-.19h-.19v.19Zm2.41-.67h-.29v-.29h.29v.29Zm-.24-.05h.19v-.19h-.19v.19Zm-.24.05h-.29v-.29h.29v.29Zm-.24-.05h.19v-.19h-.19v.19Zm-1.2.05h-.29v-.29h.29v.29Zm-.24-.05h.19v-.19h-.19v.19Z"/>
    </g>
    <g>
      <path class="cls-3" d="m7.93,10.84h-.24v.24h.24v-.24Zm2.41-2.65v-.24h-.24v.24h.24Zm-2.41,2.89h-.24v.24h.24v-.24Z"/>
      <path class="cls-5" d="m7.96,11.35h-.29v-.53h.29v.53Zm-.24-.05h.19v-.19h-.19v.19Zm0-.24h.19v-.19h-.19v.19Zm2.65-2.84h-.29v-.29h.29v.29Zm-.24-.05h.19v-.19h-.19v.19Z"/>
    </g>
    <g>
      <path class="cls-3" d="m7.93,11.32h-.24v.24h.24v-.24Zm0-1.44h-.24v.24h.24v-.24Zm0-.96h-.24v.24h.24v-.24Zm0-.24h-.24v.24h.24v-.24Zm0,.72h-.24v.24h.24v-.24Z"/>
      <path class="cls-5" d="m7.96,11.59h-.29v-.29h.29v.29Zm-.24-.05h.19v-.19h-.19v.19Zm.24-1.39h-.29v-.29h.29v.29Zm-.24-.05h.19v-.19h-.19v.19Zm.24-.43h-.29v-.29h.29v.29Zm-.24-.05h.19v-.19h-.19v.19Zm.24-.43h-.29v-.53h.29v.53Zm-.24-.05h.19v-.19h-.19v.19Zm0-.24h.19v-.19h-.19v.19Z"/>
    </g>
    <g>
      <path class="cls-3" d="m7.93,9.64h-.24v.24h.24v-.24Zm2.65.72h.24v-.24h-.24v.24Zm0-1.2h.24v-.24h-.24v.24Zm0-.24h.24v-.24h-.24v.24Zm.24-.96v-.24h-.24v.24h.24Z"/>
      <path class="cls-5" d="m10.85,10.38h-.29v-.29h.29v.29Zm-.24-.05h.19v-.19h-.19v.19Zm-2.65-.43h-.29v-.29h.29v.29Zm-.24-.05h.19v-.19h-.19v.19Zm3.13-.67h-.29v-.53h.29v.53Zm-.24-.05h.19v-.19h-.19v.19Zm0-.24h.19v-.19h-.19v.19Zm.24-.91h-.29v-.29h.29v.29Zm-.24-.05h.19v-.19h-.19v.19Z"/>
    </g>
    <g>
      <path class="cls-3" d="m10.58,9.39h.24v-.24h-.24v.24Zm0,.24h.24v-.24h-.24v.24Zm0,.24h.24v-.24h-.24v.24Zm.72-1.2h.24v-.24h-.24v.24Z"/>
      <path class="cls-5" d="m10.85,9.9h-.29v-.77h.29v.77Zm-.24-.05h.19v-.19h-.19v.19Zm0-.24h.19v-.19h-.19v.19Zm0-.24h.19v-.19h-.19v.19Zm.96-.67h-.29v-.29h.29v.29Zm-.24-.05h.19v-.19h-.19v.19Z"/>
    </g>
    <g>
      <path class="cls-3" d="m11.3,8.43h.24v-.24h-.24v.24Zm.24-.48v-.24h-.24v.24h.24Z"/>
      <path class="cls-5" d="m11.57,8.46h-.29v-.29h.29v.29Zm-.24-.05h.19v-.19h-.19v.19Zm.24-.43h-.29v-.29h.29v.29Zm-.24-.05h.19v-.19h-.19v.19Z"/>
    </g>
    <g>
      <path class="cls-3" d="m11.3,8.19h.24v-.24h-.24v.24Zm-.72-.24v-.24h-.24v.24h.24Zm-.24,2.65v.24h.24v-.24h-.24Z"/>
      <path class="cls-5" d="m10.61,10.87h-.29v-.29h.29v.29Zm-.24-.05h.19v-.19h-.19v.19Zm1.2-2.6h-.29v-.29h.29v.29Zm-.24-.05h.19v-.19h-.19v.19Zm-.72-.19h-.29v-.29h.29v.29Zm-.24-.05h.19v-.19h-.19v.19Z"/>
    </g>
    <g>
      <path class="cls-3" d="m10.58,10.84h.24v-.24h-.24v.24Z"/>
      <path class="cls-5" d="m10.85,10.87h-.29v-.29h.29v.29Zm-.24-.05h.19v-.19h-.19v.19Z"/>
    </g>
    <g>
      <path class="cls-3" d="m10.58,10.6h.24v-.24h-.24v.24Zm.72-1.69h.24v-.24h-.24v.24Zm-1.2,1.69v.24h.24v-.24h-.24Z"/>
      <path class="cls-5" d="m10.37,10.87h-.29v-.29h.29v.29Zm-.24-.05h.19v-.19h-.19v.19Zm.72-.19h-.29v-.29h.29v.29Zm-.24-.05h.19v-.19h-.19v.19Zm.96-1.63h-.29v-.29h.29v.29Zm-.24-.05h.19v-.19h-.19v.19Z"/>
    </g>
    <g>
      <path class="cls-3" d="m9.86,10.6v.24h.24v-.24h-.24Zm.72-.48h.24v-.24h-.24v.24Zm.24.48h.24v-.24h-.24v.24Zm-2.41-.24h-.24v.24h.24v-.24Z"/>
      <path class="cls-5" d="m10.13,10.87h-.29v-.29h.29v.29Zm-.24-.05h.19v-.19h-.19v.19Zm1.2-.19h-.29v-.29h.29v.29Zm-.24-.05h.19v-.19h-.19v.19Zm-2.41.05h-.29v-.29h.29v.29Zm-.24-.05h.19v-.19h-.19v.19Zm2.65-.43h-.29v-.29h.29v.29Zm-.24-.05h.19v-.19h-.19v.19Z"/>
    </g>
    <g>
      <path class="cls-3" d="m10.82,10.84h.24v-.24h-.24v.24Zm-.24,0v.24h.24v-.24h-.24Zm.24.24h.24v-.24h-.24v.24Zm0-.72h.24v-.24h-.24v.24Zm-2.41-.96h-.24v.24h.24v-.24Zm0,.72h-.24v.24h.24v-.24Zm0-1.2h-.24v.24h.24v-.24Z"/>
      <path class="cls-5" d="m11.09,11.11h-.53v-.29h.24v-.24h.29v.53Zm-.24-.05h.19v-.19h-.19v.19Zm-.24,0h.19v-.19h-.19v.19Zm.24-.24h.19v-.19h-.19v.19Zm-2.41-.43h-.29v-.29h.29v.29Zm-.24-.05h.19v-.19h-.19v.19Zm2.89.05h-.29v-.29h.29v.29Zm-.24-.05h.19v-.19h-.19v.19Zm-2.41-.67h-.29v-.29h.29v.29Zm-.24-.05h.19v-.19h-.19v.19Zm.24-.43h-.29v-.29h.29v.29Zm-.24-.05h.19v-.19h-.19v.19Z"/>
    </g>
    <g>
      <path class="cls-3" d="m8.42,9.64h-.24v.24h.24v-.24Zm0,.24h-.24v.24h.24v-.24Z"/>
      <path class="cls-5" d="m8.44,10.14h-.29v-.53h.29v.53Zm-.24-.05h.19v-.19h-.19v.19Zm0-.24h.19v-.19h-.19v.19Z"/>
    </g>
    <g>
      <path class="cls-3" d="m8.66,10.12h-.24v.24h.24v-.24Zm1.2.72v.24h.24v-.24h-.24Zm-1.2-.24h-.24v.24h.24v-.24Z"/>
      <path class="cls-5" d="m10.13,11.11h-.29v-.29h.29v.29Zm-.24-.05h.19v-.19h-.19v.19Zm-1.2-.19h-.29v-.29h.29v.29Zm-.24-.05h.19v-.19h-.19v.19Zm.24-.43h-.29v-.29h.29v.29Zm-.24-.05h.19v-.19h-.19v.19Z"/>
    </g>
    <g>
      <path class="cls-3" d="m8.66,10.36h-.24v.24h.24v-.24Zm0-.48h-.24v.24h.24v-.24Zm-.24.96v.24h.24v-.24h-.24Zm.96,0v.24h.24v-.24h-.24Zm.24,0v.24h.24v-.24h-.24Z"/>
      <path class="cls-5" d="m9.89,11.11h-.53v-.29h.53v.29Zm-.24-.05h.19v-.19h-.19v.19Zm-.24,0h.19v-.19h-.19v.19Zm-.72.05h-.29v-.29h.29v.29Zm-.24-.05h.19v-.19h-.19v.19Zm.24-.43h-.29v-.29h.29v.29Zm-.24-.05h.19v-.19h-.19v.19Zm.24-.43h-.29v-.29h.29v.29Zm-.24-.05h.19v-.19h-.19v.19Z"/>
    </g>
    <g>
      <path class="cls-3" d="m8.66,10.84v.24h.24v-.24h-.24Zm.48,0v.24h.24v-.24h-.24Zm-.72-2.17h-.24v.24h.24v-.24Z"/>
      <path class="cls-5" d="m9.4,11.11h-.29v-.29h.29v.29Zm-.24-.05h.19v-.19h-.19v.19Zm-.24.05h-.29v-.29h.29v.29Zm-.24-.05h.19v-.19h-.19v.19Zm-.24-2.12h-.29v-.29h.29v.29Zm-.24-.05h.19v-.19h-.19v.19Z"/>
    </g>
    <g>
      <path class="cls-3" d="m8.9,10.84v.24h.24v-.24h-.24Zm1.93-2.17h.24v-.24h-.24v.24Zm0,.96h.24v-.24h-.24v.24Zm0-.72h.24v-.24h-.24v.24Zm0,.24h.24v-.24h-.24v.24Zm0,.96h.24v-.24h-.24v.24Z"/>
      <path class="cls-5" d="m9.16,11.11h-.29v-.29h.29v.29Zm-.24-.05h.19v-.19h-.19v.19Zm2.17-.91h-.29v-.29h.29v.29Zm-.24-.05h.19v-.19h-.19v.19Zm.24-.43h-.29v-.29h.29v.29Zm-.24-.05h.19v-.19h-.19v.19Zm.24-.43h-.29v-.77h.29v.77Zm-.24-.05h.19v-.19h-.19v.19Zm0-.24h.19v-.19h-.19v.19Zm0-.24h.19v-.19h-.19v.19Z"/>
    </g>
    <g>
      <path class="cls-3" d="m10.82,9.39h.24v-.24h-.24v.24Zm-4.57-3.79c-.07.06-.14.12-.2.18h.2v-.18h0Zm6.98.01v.17h.19c-.06-.06-.12-.11-.19-.17Zm-3.61,2.81v-.24h-.24v.24h.24Zm-1.2-.24h-.24v.24h.24v-.24Zm1.44.24v-.24h-.24v.24h.24Z"/>
      <path class="cls-5" d="m11.09,9.42h-.29v-.29h.29v.29Zm-.24-.05h.19v-.19h-.19v.19Zm-2.41-.91h-.29v-.29h.29v.29Zm-.24-.05h.19v-.19h-.19v.19Zm1.69.05h-.53v-.29h.53v.29Zm-.24-.05h.19v-.19h-.19v.19Zm-.24,0h.19v-.19h-.19v.19Zm4.08-2.6h-.28v-.25l.04.04c.06.05.13.11.19.17l.05.04Zm-.23-.05h.1s-.06-.06-.1-.09v.09Zm-6.98.05h-.29l.05-.04c.07-.06.13-.12.2-.18l.04-.04v.26Zm-.16-.05h.11v-.1s-.07.06-.11.1Z"/>
    </g>
    <g>
      <path class="cls-3" d="m8.42,8.43h-.24v.24h.24v-.24Zm2.65,2.89h.24v-.24h-.24v.24Zm-2.41-2.41h-.24v.24h.24v-.24Z"/>
      <path class="cls-5" d="m11.33,11.35h-.29v-.29h.29v.29Zm-.24-.05h.19v-.19h-.19v.19Zm-2.41-2.12h-.29v-.29h.29v.29Zm-.24-.05h.19v-.19h-.19v.19Zm0-.43h-.29v-.29h.29v.29Zm-.24-.05h.19v-.19h-.19v.19Z"/>
    </g>
    <g>
      <path class="cls-3" d="m8.66,8.67h-.24v.24h.24v-.24Z"/>
      <path class="cls-5" d="m8.68,8.94h-.29v-.29h.29v.29Zm-.24-.05h.19v-.19h-.19v.19Z"/>
    </g>
    <g>
      <path class="cls-3" d="m8.66,8.43h-.24v.24h.24v-.24Zm5.01-2.41c-.06-.07-.13-.13-.19-.19v.19h.19Zm-2.6,2.89h.24v-.24h-.24v.24Zm-2.41.72h-.24v.24h.24v-.24Z"/>
      <path class="cls-5" d="m8.68,9.9h-.29v-.29h.29v.29Zm-.24-.05h.19v-.19h-.19v.19Zm2.89-.91h-.29v-.29h.29v.29Zm-.24-.05h.19v-.19h-.19v.19Zm-2.41-.19h-.29v-.29h.29v.29Zm-.24-.05h.19v-.19h-.19v.19Zm5.28-2.6h-.28v-.28l.04.04c.07.06.13.13.19.19l.04.04Zm-.23-.05h.11s-.07-.07-.11-.11v.11Z"/>
    </g>
    <g>
      <path class="cls-3" d="m8.66,9.39h-.24v.24h.24v-.24Zm2.41-.24h.24v-.24h-.24v.24Zm-1.44.48h-.24v.24h.24v-.24Zm-.24.24v.24h.24v-.24h-.24Zm.24,0v.24h.24v-.24h-.24Zm3.85,0v-.24h-.24v.24h.24Zm.41-3.61c-.05-.06-.11-.13-.17-.19v.19h.17Z"/>
      <path class="cls-5" d="m9.89,10.14h-.53v-.53h.29v.24h.24v.29Zm-.24-.05h.19v-.19h-.19v.19Zm-.24,0h.19v-.19h-.19v.19Zm0-.24h.19v-.19h-.19v.19Zm4.09.05h-.29v-.29h.29v.29Zm-.24-.05h.19v-.19h-.19v.19Zm-4.57-.19h-.29v-.29h.29v.29Zm-.24-.05h.19v-.19h-.19v.19Zm2.89-.43h-.29v-.29h.29v.29Zm-.24-.05h.19v-.19h-.19v.19Zm2.84-2.84h-.25v-.28l.04.05c.06.06.11.12.17.19l.04.04Zm-.2-.05h.08s-.06-.06-.08-.1v.1Z"/>
    </g>
    <g>
      <path class="cls-3" d="m9.62,9.39h-.24v.24h.24v-.24Zm0,.48h.24v-.24h-.24v.24Zm.24-.24v-.24h-.24v.24h.24Zm-4.06-3.61h.2v-.2c-.07.07-.14.13-.2.2Zm2.61,5.06v.24h.24v-.24h-.24Z"/>
      <path class="cls-5" d="m8.68,11.35h-.29v-.29h.29v.29Zm-.24-.05h.19v-.19h-.19v.19Zm1.44-1.39h-.29v-.24h-.24v-.29h.53v.53Zm-.24-.05h.19v-.19h-.19v.19Zm0-.24h.19v-.19h-.19v.19Zm-.24,0h.19v-.19h-.19v.19Zm-3.37-3.56h-.29l.04-.04c.07-.07.14-.14.2-.2l.04-.04v.29Zm-.17-.05h.12v-.12s-.08.08-.12.12Z"/>
    </g>
    <g>
      <path class="cls-3" d="m8.66,11.08v.24h.24v-.24h-.24Z"/>
      <path class="cls-5" d="m8.92,11.35h-.29v-.29h.29v.29Zm-.24-.05h.19v-.19h-.19v.19Z"/>
    </g>
    <g>
      <path class="cls-3" d="m8.9,11.08v.24h.24v-.24h-.24Zm.48,0v.24h.24v-.24h-.24Zm.24,0v.24h.24v-.24h-.24Zm.24,0v.24h.24v-.24h-.24Zm-3.37-5.67c-.06.04-.11.08-.16.13h.16v-.13Zm4.57,3.98h.24v-.24h-.24v.24Zm1.93-3.97v.12h.15s-.1-.08-.15-.12h0Zm-4.57,5.17h-.24v.24h.24v-.24Z"/>
      <path class="cls-5" d="m10.13,11.35h-.77v-.29h.77v.29Zm-.24-.05h.19v-.19h-.19v.19Zm-.24,0h.19v-.19h-.19v.19Zm-.24,0h.19v-.19h-.19v.19Zm-.24.05h-.29v-.29h.29v.29Zm-.24-.05h.19v-.19h-.19v.19Zm-.48-.43h-.29v-.29h.29v.29Zm-.24-.05h.19v-.19h-.19v.19Zm3.13-1.39h-.29v-.29h.29v.29Zm-.24-.05h.19v-.19h-.19v.19Zm2.12-3.8h-.25v-.2l.04.03c.05.04.1.08.15.12l.06.05Zm-.2-.05h.05s-.03-.03-.05-.04v.04Zm-6.5.05h-.26l.06-.05c.06-.05.11-.09.16-.13l.04-.03v.21Zm-.12-.05h.06v-.05s-.04.03-.06.05Z"/>
    </g>
    <g>
      <path class="cls-3" d="m8.42,10.84h-.24v.24h.24v-.24Zm-.24.24v.24h.24v-.24h-.24Zm2.89-.72h.24v-.24h-.24v.24Zm0,.24h.24v-.24h-.24v.24Z"/>
      <path class="cls-5" d="m8.44,11.35h-.29v-.53h.29v.53Zm-.24-.05h.19v-.19h-.19v.19Zm0-.24h.19v-.19h-.19v.19Zm3.13-.43h-.29v-.53h.29v.53Zm-.24-.05h.19v-.19h-.19v.19Zm0-.24h.19v-.19h-.19v.19Z"/>
    </g>
    <g>
      <path class="cls-3" d="m11.06,10.84h.24v-.24h-.24v.24Zm0-.72h.24v-.24h-.24v.24Z"/>
      <path class="cls-5" d="m11.33,10.87h-.29v-.29h.29v.29Zm-.24-.05h.19v-.19h-.19v.19Zm.24-.67h-.29v-.29h.29v.29Zm-.24-.05h.19v-.19h-.19v.19Z"/>
    </g>
    <g>
      <path class="cls-3" d="m11.06,9.88h.24v-.24h-.24v.24Zm0-.24h.24v-.24h-.24v.24Zm0,1.44h.24v-.24h-.24v.24Zm-.48,0v.24h.24v-.24h-.24Zm0-2.89v-.24h-.24v.24h.24Zm.24,2.89v.24h.24v-.24h-.24Zm0-1.2h.24v-.24h-.24v.24Zm-.48-2.41v-.24h-.24v.24h.24Zm-2.41,4.09v.24h.24v-.24h-.24Zm3.85-2.65h.24v-.24h-.24v.24Zm-.96-1.44v-.24h-.24v.24h.24Z"/>
      <path class="cls-5" d="m8.2,11.83h-.29v-.29h.29v.29Zm-.24-.05h.19v-.19h-.19v.19Zm3.13-.43h-.53v-.29h.48v-.24h.29v.29h-.24v.24Zm-.24-.05h.19v-.19h-.19v.19Zm-.24,0h.19v-.19h-.19v.19Zm.48-.24h.19v-.19h-.19v.19Zm.24-1.15h-.53v-.29h.24v-.24h.29v.53Zm-.24-.05h.19v-.19h-.19v.19Zm-.24,0h.19v-.19h-.19v.19Zm.24-.24h.19v-.19h-.19v.19Zm.96-.67h-.29v-.29h.29v.29Zm-.24-.05h.19v-.19h-.19v.19Zm-1.2-.67h-.29v-.29h.29v.29Zm-.24-.05h.19v-.19h-.19v.19Zm.48-.67h-.29v-.29h.29v.29Zm-.24-.05h.19v-.19h-.19v.19Zm-.24.05h-.29v-.29h.29v.29Zm-.24-.05h.19v-.19h-.19v.19Z"/>
    </g>
    <g>
      <path class="cls-3" d="m10.58,7.47v-.24h-.24v.24h.24Zm1.2.96h.24v-.24h-.24v.24Z"/>
      <path class="cls-5" d="m12.05,8.46h-.29v-.29h.29v.29Zm-.24-.05h.19v-.19h-.19v.19Zm-1.2-.91h-.29v-.29h.29v.29Zm-.24-.05h.19v-.19h-.19v.19Z"/>
    </g>
    <g>
      <path class="cls-3" d="m11.79,8.67h.24v-.24h-.24v.24Zm0-.48h.24v-.24h-.24v.24Zm.24-.72v-.24h-.24v.24h.24Zm-.24.48h.24v-.24h-.24v.24Z"/>
      <path class="cls-5" d="m12.05,8.7h-.29v-.29h.29v.29Zm-.24-.05h.19v-.19h-.19v.19Zm.24-.43h-.29v-.53h.29v.53Zm-.24-.05h.19v-.19h-.19v.19Zm0-.24h.19v-.19h-.19v.19Zm.24-.43h-.29v-.29h.29v.29Zm-.24-.05h.19v-.19h-.19v.19Z"/>
    </g>
    <g>
      <path class="cls-3" d="m11.79,7.71h.24v-.24h-.24v.24Zm-3.85-.24v-.24h-.24v.24h.24Zm.48,0v-.24h-.24v.24h.24Zm-.24,0v-.24h-.24v.24h.24Zm1.44,0v-.24h-.24v.24h.24Zm.72,1.44v-.24h-.24v.24h.24Zm1.44.72h.24v-.24h-.24v.24Zm0,1.2h.24v-.24h-.24v.24Zm0,.24h.24v-.24h-.24v.24Zm0-.72h.24v-.24h-.24v.24Z"/>
      <path class="cls-5" d="m12.05,11.11h-.29v-.53h.29v.53Zm-.24-.05h.19v-.19h-.19v.19Zm0-.24h.19v-.19h-.19v.19Zm.24-.43h-.29v-.29h.29v.29Zm-.24-.05h.19v-.19h-.19v.19Zm.24-.67h-.29v-.29h.29v.29Zm-.24-.05h.19v-.19h-.19v.19Zm-1.44-.67h-.29v-.29h.29v.29Zm-.24-.05h.19v-.19h-.19v.19Zm1.93-1.15h-.29v-.29h.29v.29Zm-.24-.05h.19v-.19h-.19v.19Zm-2.17-.19h-.29v-.29h.29v.29Zm-.24-.05h.19v-.19h-.19v.19Zm-.96.05h-.77v-.29h.77v.29Zm-.24-.05h.19v-.19h-.19v.19Zm-.24,0h.19v-.19h-.19v.19Zm-.24,0h.19v-.19h-.19v.19Z"/>
    </g>
    <g>
      <path class="cls-3" d="m11.79,10.12h.24v-.24h-.24v.24Z"/>
      <path class="cls-5" d="m12.05,10.14h-.29v-.29h.29v.29Zm-.24-.05h.19v-.19h-.19v.19Z"/>
    </g>
    <g>
      <path class="cls-3" d="m11.79,9.88h.24v-.24h-.24v.24Zm0,.72h.24v-.24h-.24v.24Zm0,1.44h.24v-.24h-.24v.24Z"/>
      <path class="cls-5" d="m12.05,12.07h-.29v-.29h.29v.29Zm-.24-.05h.19v-.19h-.19v.19Zm.24-1.39h-.29v-.29h.29v.29Zm-.24-.05h.19v-.19h-.19v.19Zm.24-.67h-.29v-.29h.29v.29Zm-.24-.05h.19v-.19h-.19v.19Z"/>
    </g>
    <g>
      <path class="cls-3" d="m11.55,11.8v.24h.24v-.24h-.24Z"/>
      <path class="cls-5" d="m11.81,12.07h-.29v-.29h.29v.29Zm-.24-.05h.19v-.19h-.19v.19Z"/>
    </g>
    <g>
      <path class="cls-3" d="m11.3,11.8v.24h.24v-.24h-.24Zm.48-.48h.24v-.24h-.24v.24Zm0,.48h.24v-.24h-.24v.24Z"/>
      <path class="cls-5" d="m11.57,12.07h-.29v-.29h.29v.29Zm-.24-.05h.19v-.19h-.19v.19Zm.72-.19h-.29v-.29h.29v.29Zm-.24-.05h.19v-.19h-.19v.19Zm.24-.43h-.29v-.29h.29v.29Zm-.24-.05h.19v-.19h-.19v.19Z"/>
    </g>
    <g>
      <path class="cls-3" d="m11.79,11.56h.24v-.24h-.24v.24Zm-1.69-2.65v-.24h-.24v.24h.24Z"/>
      <path class="cls-5" d="m12.05,11.59h-.29v-.29h.29v.29Zm-.24-.05h.19v-.19h-.19v.19Zm-1.69-2.6h-.29v-.29h.29v.29Zm-.24-.05h.19v-.19h-.19v.19Z"/>
    </g>
    <g>
      <path class="cls-3" d="m9.86,8.91v-.24h-.24v.24h.24Zm-.24,0v-.24h-.24v.24h.24Zm-2.17-1.44h-.24v.24h.24v-.24Zm3.13,1.44v-.24h-.24v.24h.24Zm-.24.24h.24v-.24h-.24v.24Zm1.44.24h.24v-.24h-.24v.24Z"/>
      <path class="cls-5" d="m12.05,9.42h-.29v-.29h.29v.29Zm-.24-.05h.19v-.19h-.19v.19Zm-1.2-.19h-.29v-.53s.29,0,.29,0v.53Zm-.24-.05h.19v-.19h-.19v.19Zm0-.24h.19v-.19h-.19v.19Zm-.48.05h-.53v-.29h.53v.29Zm-.24-.05h.19v-.19h-.19v.19Zm-.24,0h.19v-.19h-.19v.19Zm-1.93-1.15h-.29v-.29h.29v.29Zm-.24-.05h.19v-.19h-.19v.19Z"/>
    </g>
    <g>
      <path class="cls-3" d="m11.79,9.15h.24v-.24h-.24v.24Zm-2.65-.24v-.24h-.24v.24h.24Zm1.2.48h.24v-.24h-.24v.24Z"/>
      <path class="cls-5" d="m10.61,9.42h-.29v-.29h.29v.29Zm-.24-.05h.19v-.19h-.19v.19Zm1.69-.19h-.29v-.29h.29v.29Zm-.24-.05h.19v-.19h-.19v.19Zm-2.65-.19h-.29v-.29h.29v.29Zm-.24-.05h.19v-.19h-.19v.19Z"/>
    </g>
    <g>
      <path class="cls-3" d="m9.38,8.91v-.24h-.24v.24h.24Zm.24,1.2v.24h.24v-.24h-.24Zm-.48,1.93v.24h.24v-.24h-.24Zm-1.69-.72h-.24v.24h.24v-.24Zm0,.48h-.24v.24h.24v-.24Z"/>
      <path class="cls-5" d="m9.4,12.31h-.29v-.29h.29v.29Zm-.24-.05h.19v-.19h-.19v.19Zm-1.69-.19h-.29v-.29h.29v.29Zm-.24-.05h.19v-.19h-.19v.19Zm.24-.43h-.29v-.29h.29v.29Zm-.24-.05h.19v-.19h-.19v.19Zm2.65-1.15h-.29v-.29h.29v.29Zm-.24-.05h.19v-.19h-.19v.19Zm-.24-1.39h-.29v-.29h.29v.29Zm-.24-.05h.19v-.19h-.19v.19Z"/>
    </g>
    <g>
      <path class="cls-3" d="m7.45,11.56h-.24v.24h.24v-.24Zm-.24.48v.24h.24v-.24h-.24Zm.24,0v.24h.24v-.24h-.24Zm3.85,0v.24h.24v-.24h-.24Zm-1.2-2.65h.24v-.24h-.24v.24Zm0,.24h.24v-.24h-.24v.24Z"/>
      <path class="cls-5" d="m11.57,12.31h-.29v-.29h.29v.29Zm-.24-.05h.19v-.19h-.19v.19Zm-3.61.05h-.53v-.29h.53v.29Zm-.24-.05h.19v-.19h-.19v.19Zm-.24,0h.19v-.19h-.19v.19Zm.24-.43h-.29v-.29h.29v.29Zm-.24-.05h.19v-.19h-.19v.19Zm3.13-2.12h-.29v-.53h.29v.53Zm-.24-.05h.19v-.19h-.19v.19Zm0-.24h.19v-.19h-.19v.19Z"/>
    </g>
    <g>
      <path class="cls-3" d="m11.55,12.04v.24h.24v-.24h-.24Zm-1.44-2.17h.24v-.24h-.24v.24Z"/>
      <path class="cls-5" d="m11.81,12.31h-.29v-.29h.29v.29Zm-.24-.05h.19v-.19h-.19v.19Zm-1.2-2.36h-.29v-.29h.29v.29Zm-.24-.05h.19v-.19h-.19v.19Z"/>
    </g>
    <g>
      <path class="cls-3" d="m11.79,12.04v.24h.24v-.24h-.24Zm-1.44,0v.24h.24v-.24h-.24Zm.48,0v.24h.24v-.24h-.24Z"/>
      <path class="cls-5" d="m12.05,12.31h-.29v-.29h.29v.29Zm-.24-.05h.19v-.19h-.19v.19Zm-.72.05h-.29v-.29h.29v.29Zm-.24-.05h.19v-.19h-.19v.19Zm-.24.05h-.29v-.29h.29v.29Zm-.24-.05h.19v-.19h-.19v.19Z"/>
    </g>
    <g>
      <path class="cls-3" d="m10.58,12.04v.24h.24v-.24h-.24Zm-.24-1.93h.24v-.24h-.24v.24Zm-.96-.24h-.24v.24h.24v-.24Z"/>
      <path class="cls-5" d="m10.85,12.31h-.29v-.29h.29v.29Zm-.24-.05h.19v-.19h-.19v.19Zm0-2.12h-.29v-.29h.29v.29Zm-.24-.05h.19v-.19h-.19v.19Zm-.96.05h-.29v-.29h.29v.29Zm-.24-.05h.19v-.19h-.19v.19Z"/>
    </g>
    <g>
      <path class="cls-3" d="m9.14,10.12v.24h.24v-.24h-.24Zm.24-.48h-.24v.24h.24v-.24Z"/>
      <path class="cls-5" d="m9.4,10.38h-.29v-.29h.29v.29Zm-.24-.05h.19v-.19h-.19v.19Zm.24-.43h-.29v-.29h.29v.29Zm-.24-.05h.19v-.19h-.19v.19Z"/>
    </g>
    <g>
      <path class="cls-3" d="m9.38,10.12v.24h.24v-.24h-.24Zm-1.93-2.41h-.24v.24h.24v-.24Zm0,.48h-.24v.24h.24v-.24Z"/>
      <path class="cls-5" d="m9.65,10.38h-.29v-.29h.29v.29Zm-.24-.05h.19v-.19h-.19v.19Zm-1.93-1.87h-.29v-.29h.29v.29Zm-.24-.05h.19v-.19h-.19v.19Zm.24-.43h-.29v-.29h.29v.29Zm-.24-.05h.19v-.19h-.19v.19Z"/>
    </g>
    <g>
      <path class="cls-3" d="m7.45,7.95h-.24v.24h.24v-.24Zm2.89,1.93h.24v-.24h-.24v.24Zm-.48.24v.24h.24v-.24h-.24Zm-2.41.96h-.24v.24h.24v-.24Zm2.89-1.44h.24v-.24h-.24v.24Zm-2.89,0h-.24v.24h.24v-.24Zm0,1.2h-.24v.24h.24v-.24Z"/>
      <path class="cls-5" d="m7.48,11.35h-.29v-.53h.29v.53Zm-.24-.05h.19v-.19h-.19v.19Zm0-.24h.19v-.19h-.19v.19Zm2.89-.67h-.29v-.29h.29v.29Zm-.24-.05h.19v-.19h-.19v.19Zm.72-.43h-.29v-.53h.29v.53Zm-.24-.05h.19v-.19h-.19v.19Zm0-.24h.19v-.19h-.19v.19Zm-2.89.29h-.29v-.29h.29v.29Zm-.24-.05h.19v-.19h-.19v.19Zm.24-1.63h-.29v-.29h.29v.29Zm-.24-.05h.19v-.19h-.19v.19Z"/>
    </g>
    <g>
      <path class="cls-3" d="m7.45,9.39h-.24v.24h.24v-.24Zm2.65.72h.24v-.24h-.24v.24Z"/>
      <path class="cls-5" d="m10.37,10.14h-.29v-.29h.29v.29Zm-.24-.05h.19v-.19h-.19v.19Zm-2.65-.43h-.29v-.29h.29v.29Zm-.24-.05h.19v-.19h-.19v.19Z"/>
    </g>
    <g>
      <path class="cls-3" d="m10.1,10.36h.24v-.24h-.24v.24Zm-2.65-1.44h-.24v.24h.24v-.24Zm4.09-.48h.24v-.24h-.24v.24Zm0,.48h.24v-.24h-.24v.24Z"/>
      <path class="cls-5" d="m10.37,10.38h-.29v-.29h.29v.29Zm-.24-.05h.19v-.19h-.19v.19Zm-2.65-1.15h-.29v-.29h.29v.29Zm-.24-.05h.19v-.19h-.19v.19Zm4.57-.19h-.29v-.29h.29v.29Zm-.24-.05h.19v-.19h-.19v.19Zm.24-.43h-.29v-.29h.29v.29Zm-.24-.05h.19v-.19h-.19v.19Z"/>
    </g>
    <g>
      <path class="cls-3" d="m11.55,8.19h.24v-.24h-.24v.24Zm0,.48h.24v-.24h-.24v.24Zm.24-.96v-.24h-.24v.24h.24Z"/>
      <path class="cls-5" d="m11.81,8.7h-.29v-.29h.29v.29Zm-.24-.05h.19v-.19h-.19v.19Zm.24-.43h-.29v-.29h.29v.29Zm-.24-.05h.19v-.19h-.19v.19Zm.24-.43h-.29v-.29h.29v.29Zm-.24-.05h.19v-.19h-.19v.19Z"/>
    </g>
    <g>
      <path class="cls-3" d="m11.55,7.95h.24v-.24h-.24v.24Zm0,2.41h.24v-.24h-.24v.24Z"/>
      <path class="cls-5" d="m11.81,10.38h-.29v-.29h.29v.29Zm-.24-.05h.19v-.19h-.19v.19Zm.24-2.36h-.29v-.29h.29v.29Zm-.24-.05h.19v-.19h-.19v.19Z"/>
    </g>
    <g>
      <path class="cls-3" d="m11.55,10.12h.24v-.24h-.24v.24Z"/>
      <path class="cls-5" d="m11.81,10.14h-.29v-.29h.29v.29Zm-.24-.05h.19v-.19h-.19v.19Z"/>
    </g>
    <g>
      <path class="cls-3" d="m11.55,9.88h.24v-.24h-.24v.24Zm0-2.17v-.24h-.24v.24h.24Zm0,1.93h.24v-.24h-.24v.24Zm0-.48h.24v-.24h-.24v.24Z"/>
      <path class="cls-5" d="m11.81,9.9h-.29v-.53h.29v.53Zm-.24-.05h.19v-.19h-.19v.19Zm0-.24h.19v-.19h-.19v.19Zm.24-.43h-.29v-.29h.29v.29Zm-.24-.05h.19v-.19h-.19v.19Zm0-1.39h-.29v-.29h.29v.29Zm-.24-.05h.19v-.19h-.19v.19Z"/>
    </g>
    <g>
      <path class="cls-3" d="m11.55,9.39h.24v-.24h-.24v.24Zm-.72-1.69v-.24h-.24v.24h.24Zm.72,2.89h.24v-.24h-.24v.24Zm-1.2-2.89v-.24h-.24v.24h.24Z"/>
      <path class="cls-5" d="m11.81,10.62h-.29v-.29h.29v.29Zm-.24-.05h.19v-.19h-.19v.19Zm.24-1.15h-.29v-.29h.29v.29Zm-.24-.05h.19v-.19h-.19v.19Zm-.72-1.63h-.29v-.29h.29v.29Zm-.24-.05h.19v-.19h-.19v.19Zm-.24.05h-.29v-.29h.29v.29Zm-.24-.05h.19v-.19h-.19v.19Z"/>
    </g>
    <g>
      <path class="cls-3" d="m10.58,7.71v-.24h-.24v.24h.24Zm-1.2,1.44h-.24v.24h.24v-.24Zm.48.72h.24v-.24h-.24v.24Zm-.24-.48v-.24h-.24v.24h.24Zm.24.24h.24v-.24h-.24v.24Zm.24-.24v-.24h-.24v.24h.24Z"/>
      <path class="cls-5" d="m10.13,9.9h-.29v-.77s.29,0,.29,0v.77Zm-.24-.05h.19v-.19h-.19v.19Zm0-.24h.19v-.19h-.19v.19Zm0-.24h.19v-.19h-.19v.19Zm-.48.05h-.29v-.29h.53s0,.29,0,.29h-.24Zm-.24-.05h.19v-.19h-.19v.19Zm.24,0h.19v-.19h-.19v.19Zm1.2-1.63h-.29v-.29h.29v.29Zm-.24-.05h.19v-.19h-.19v.19Z"/>
    </g>
    <g>
      <path class="cls-3" d="m9.86,9.39v-.24h-.24v.24h.24Zm0,.72h.24v-.24h-.24v.24Zm-.96.24h-.24v.24h.24v-.24Zm0,.24v.24h.24v-.24h-.24Z"/>
      <path class="cls-5" d="m9.16,10.87h-.29v-.24h-.24v-.29h.29v.24h.24v.29Zm-.24-.05h.19v-.19h-.19v.19Zm-.24-.24h.19v-.19h-.19v.19Zm1.44-.43h-.29v-.29h.29v.29Zm-.24-.05h.19v-.19h-.19v.19Zm0-.67h-.29v-.29h.29v.29Zm-.24-.05h.19v-.19h-.19v.19Z"/>
    </g>
    <g>
      <path class="cls-3" d="m8.66,10.6v.24h.24v-.24h-.24Zm.72,0v.24h.24v-.24h-.24Z"/>
      <path class="cls-5" d="m9.65,10.87h-.29v-.29h.29v.29Zm-.24-.05h.19v-.19h-.19v.19Zm-.48.05h-.29v-.29h.29v.29Zm-.24-.05h.19v-.19h-.19v.19Z"/>
    </g>
    <g>
      <path class="cls-3" d="m9.14,10.6v.24h.24v-.24h-.24Zm.48,0v.24h.24v-.24h-.24Zm1.93.96h.24v-.24h-.24v.24Z"/>
      <path class="cls-5" d="m11.81,11.59h-.29v-.29h.29v.29Zm-.24-.05h.19v-.19h-.19v.19Zm-1.69-.67h-.29v-.29h.29v.29Zm-.24-.05h.19v-.19h-.19v.19Zm-.24.05h-.29v-.29h.29v.29Zm-.24-.05h.19v-.19h-.19v.19Z"/>
    </g>
    <g>
      <path class="cls-3" d="m11.55,11.8h.24v-.24h-.24v.24Z"/>
      <path class="cls-5" d="m11.81,11.83h-.29v-.29h.29v.29Zm-.24-.05h.19v-.19h-.19v.19Z"/>
    </g>
    <g>
      <path class="cls-3" d="m11.3,11.56v.24h.24v-.24h-.24Z"/>
      <path class="cls-5" d="m11.57,11.83h-.29v-.29h.29v.29Zm-.24-.05h.19v-.19h-.19v.19Z"/>
    </g>
    <g>
      <path class="cls-3" d="m11.06,11.56v.24h.24v-.24h-.24Zm.48-.48h.24v-.24h-.24v.24Z"/>
      <path class="cls-5" d="m11.33,11.83h-.29v-.29h.29v.29Zm-.24-.05h.19v-.19h-.19v.19Zm.72-.67h-.29v-.29h.29v.29Zm-.24-.05h.19v-.19h-.19v.19Z"/>
    </g>
    <g>
      <path class="cls-3" d="m11.55,11.32h.24v-.24h-.24v.24Zm0-.48h.24v-.24h-.24v.24Zm-1.69.72v.24h.24v-.24h-.24Z"/>
      <path class="cls-5" d="m10.13,11.83h-.29v-.29h.29v.29Zm-.24-.05h.19v-.19h-.19v.19Zm1.93-.43h-.29v-.29h.29v.29Zm-.24-.05h.19v-.19h-.19v.19Zm.24-.43h-.29v-.29h.29v.29Zm-.24-.05h.19v-.19h-.19v.19Z"/>
    </g>
    <g>
      <path class="cls-3" d="m10.1,11.56v.24h.24v-.24h-.24Z"/>
      <path class="cls-5" d="m10.37,11.83h-.29v-.29h.29v.29Zm-.24-.05h.19v-.19h-.19v.19Z"/>
    </g>
    <g>
      <path class="cls-3" d="m10.34,11.56v.24h.24v-.24h-.24Zm-1.44-2.41h-.24v.24h.24v-.24Zm5.17-2.65c-.04-.05-.08-.1-.12-.15v.15h.12Zm-6.62,5.3v.24h.24v-.24h-.24Zm1.44-1.69h-.24v.24h.24v-.24Zm.48-.72h-.24v.24h.24v-.24Z"/>
      <path class="cls-5" d="m7.72,12.07h-.29v-.29h.29v.29Zm-.24-.05h.19v-.19h-.19v.19Zm3.13-.19h-.29v-.29h.29v.29Zm-.24-.05h.19v-.19h-.19v.19Zm-1.44-1.39h-.29v-.29h.29v.29Zm-.24-.05h.19v-.19h-.19v.19Zm.72-.67h-.29v-.29h.29v.29Zm-.24-.05h.19v-.19h-.19v.19Zm-.24-.19h-.29v-.29h.29v.29Zm-.24-.05h.19v-.19h-.19v.19Zm5.44-2.84h-.19v-.25l.05.06c.04.05.08.1.12.15l.03.04Zm-.14-.05h.04s-.03-.03-.04-.05v.05Z"/>
    </g>
    <g>
      <path class="cls-3" d="m8.9,9.88h-.24v.24h.24v-.24Zm0-.48h-.24v.24h.24v-.24Zm-1.2,2.17h-.24v.24h.24v-.24Z"/>
      <path class="cls-5" d="m7.72,11.83h-.29v-.29h.29v.29Zm-.24-.05h.19v-.19h-.19v.19Zm1.44-1.63h-.29v-.29h.29v.29Zm-.24-.05h.19v-.19h-.19v.19Zm.24-.43h-.29v-.29h.29v.29Zm-.24-.05h.19v-.19h-.19v.19Z"/>
    </g>
    <g>
      <path class="cls-3" d="m8.9,9.64h-.24v.24h.24v-.24Zm1.2,2.17v.24h.24v-.24h-.24Zm.48,0v.24h.24v-.24h-.24Z"/>
      <path class="cls-5" d="m10.85,12.07h-.29v-.29h.29v.29Zm-.24-.05h.19v-.19h-.19v.19Zm-.24.05h-.29v-.29h.29v.29Zm-.24-.05h.19v-.19h-.19v.19Zm-1.2-2.12h-.29v-.29h.29v.29Zm-.24-.05h.19v-.19h-.19v.19Z"/>
    </g>
    <g>
      <path class="cls-3" d="m10.34,11.8v.24h.24v-.24h-.24Zm-1.2,0v.24h.24v-.24h-.24Zm-1.2-4.09v-.24h-.24v.24h.24Zm.24,0v-.24h-.24v.24h.24Zm-.48,3.13h-.24v.24h.24v-.24Zm0-.96h-.24v.24h.24v-.24Z"/>
      <path class="cls-5" d="m10.61,12.07h-.29v-.29h.29v.29Zm-.24-.05h.19v-.19h-.19v.19Zm-.96.05h-.29v-.29h.29v.29Zm-.24-.05h.19v-.19h-.19v.19Zm-1.44-.91h-.29v-.29h.29v.29Zm-.24-.05h.19v-.19h-.19v.19Zm.24-.91h-.29v-.29h.29v.29Zm-.24-.05h.19v-.19h-.19v.19Zm.72-2.36h-.53v-.29h.53v.29Zm-.24-.05h.19v-.19h-.19v.19Zm-.24,0h.19v-.19h-.19v.19Z"/>
    </g>
    <g>
      <path class="cls-3" d="m7.69,10.6h-.24v.24h.24v-.24Zm0-.48h-.24v.24h.24v-.24Zm0,.96h-.24v.24h.24v-.24Z"/>
      <path class="cls-5" d="m7.72,11.35h-.29v-.29h.29v.29Zm-.24-.05h.19v-.19h-.19v.19Zm.24-.43h-.29v-.29h.29v.29Zm-.24-.05h.19v-.19h-.19v.19Zm.24-.43h-.29v-.29h.29v.29Zm-.24-.05h.19v-.19h-.19v.19Z"/>
    </g>
    <g>
      <path class="cls-3" d="m7.69,11.32h-.24v.24h.24v-.24Zm0-2.89h-.24v.24h.24v-.24Zm0,.48h-.24v.24h.24v-.24Z"/>
      <path class="cls-5" d="m7.72,11.59h-.29v-.29h.29v.29Zm-.24-.05h.19v-.19h-.19v.19Zm.24-2.36h-.29v-.29h.29v.29Zm-.24-.05h.19v-.19h-.19v.19Zm.24-.43h-.29v-.29h.29v.29Zm-.24-.05h.19v-.19h-.19v.19Z"/>
    </g>
    <g>
      <path class="cls-3" d="m7.69,8.67h-.24v.24h.24v-.24Zm0,.96h-.24v.24h.24v-.24Zm.24,1.69v.24h.24v-.24h-.24Zm-.96-6.02h.24v-.24h-.19s-.04.02-.05.03v.21Zm3.85,0v-.24h-.24v.24h.24Zm.24-.24v-.24h-.24v.24h.24Zm-.24-.24h-.24v.24h.24v-.24Z"/>
      <path class="cls-5" d="m8.2,11.59h-.29v-.29h.29v.29Zm-.24-.05h.19v-.19h-.19v.19Zm-.24-1.63h-.29v-.29h.29v.29Zm-.24-.05h.19v-.19h-.19v.19Zm.24-.91h-.29v-.29h.29v.29Zm-.24-.05h.19v-.19h-.19v.19Zm3.37-3.56h-.29v-.53h.53v.29h-.24v.24Zm-.24-.05h.19v-.19h-.19v.19Zm.24-.24h.19v-.19h-.19v.19Zm-.24,0h.19v-.19h-.19v.19Zm-3.37.29h-.29v-.25h.01s.02-.02.02-.02c.01,0,.02-.01.03-.02h0s.22,0,.22,0v.29Zm-.24-.05h.19v-.19h-.15s-.02,0-.02.01c0,0,0,0-.01,0v.17Z"/>
    </g>
    <g>
      <path class="cls-3" d="m10.58,5.3v-.24h-.24v.24h.24Zm.24,0h.24v-.24h-.24v.24Zm1.2,0v-.24h-.24v.24h.24Zm-.48,0v-.24h-.24v.24h.24Z"/>
      <path class="cls-5" d="m12.05,5.33h-.29v-.29h.29v.29Zm-.24-.05h.19v-.19h-.19v.19Zm-.24.05h-.29v-.29h.29v.29Zm-.24-.05h.19v-.19h-.19v.19Zm-.24.05h-.29v-.29h.29v.29Zm-.24-.05h.19v-.19h-.19v.19Zm-.24.05h-.29v-.29h.29v.29Zm-.24-.05h.19v-.19h-.19v.19Z"/>
    </g>
    <g>
      <path class="cls-3" d="m11.3,5.3v-.24h-.24v.24h.24Zm.96,0v-.24h-.24v.24h.24Zm1.93,6.98v.24h.2s.03-.05.04-.07v-.17h-.24Zm.24.17c.03-.06.06-.11.09-.17h-.09v.17Z"/>
      <path class="cls-5" d="m14.41,12.55h0s0,0,0,0h-.24v-.29h.4s-.02.04-.02.04c-.03.06-.06.11-.09.17h0s0,0,0,0c0,0,0,0,0,.01l-.04.07Zm-.19-.05h.16s.02-.04.03-.05v-.14h-.19v.19Zm.24-.19v.05s.02-.03.03-.05h-.03Zm-2.17-6.98h-.29v-.29h.29v.29Zm-.24-.05h.19v-.19h-.19v.19Zm-.72.05h-.29v-.29h.29v.29Zm-.24-.05h.19v-.19h-.19v.19Z"/>
    </g>
    <g>
      <path class="cls-3" d="m14.53,12.28c.04-.08.08-.16.12-.24h-.21v.24h.09Zm-.09-1.2h.24v-.24h-.24v.24Zm0-.48h.24v-.24h-.24v.24Zm0-.48h.24v-.24h-.24v.24Z"/>
      <path class="cls-5" d="m14.54,12.31h-.13v-.29h.28l-.02.04c-.04.08-.08.16-.12.24h0Zm-.08-.05h.05c.03-.06.07-.13.09-.19h-.15v.19Zm.24-1.15h-.29v-.29h.29v.29Zm-.24-.05h.19v-.19h-.19v.19Zm.24-.43h-.29v-.29h.29v.29Zm-.24-.05h.19v-.19h-.19v.19Zm.24-.43h-.29v-.29h.29v.29Zm-.24-.05h.19v-.19h-.19v.19Z"/>
    </g>
    <g>
      <path class="cls-3" d="m14.19,10.84v.24h.24v-.24h-.24Zm.24-.48h.24v-.24h-.24v.24Zm0,.48h.24v-.24h-.24v.24Zm-.24,1.44h.24v-.24h-.24v.24Zm0-.24h.24v-.24h-.24v.24Zm0-.48h.24v-.24h-.24v.24Z"/>
      <path class="cls-5" d="m14.46,12.31h-.29v-.53h.29v.53Zm-.24-.05h.19v-.19h-.19v.19Zm0-.24h.19v-.19h-.19v.19Zm.24-.43h-.29v-.29h.29v.29Zm-.24-.05h.19v-.19h-.19v.19Zm.24-.43h-.29v-.29h.24v-.24h.29v.29h-.24v.24Zm-.24-.05h.19v-.19h-.19v.19Zm.24-.24h.19v-.19h-.19v.19Zm.24-.43h-.29v-.29h.29v.29Zm-.24-.05h.19v-.19h-.19v.19Z"/>
    </g>
    <g>
      <path class="cls-3" d="m14.19,11.32h.24v-.24h-.24v.24Zm0,.48h.24v-.24h-.24v.24Zm.24-1.93h.24v-.24h-.24v.24Zm-7.94-4.33h.24v-.24h-.08c-.05.04-.11.07-.16.11v.13Zm.24,0h.24v-.24h-.24v.24Z"/>
      <path class="cls-5" d="m14.46,11.83h-.29v-.29h.29v.29Zm-.24-.05h.19v-.19h-.19v.19Zm.24-.43h-.29v-.29h.29v.29Zm-.24-.05h.19v-.19h-.19v.19Zm.48-1.39h-.29v-.29h.29v.29Zm-.24-.05h.19v-.19h-.19v.19Zm-7.46-4.28h-.53v-.17h.01s.1-.08.16-.12h0s.36,0,.36,0v.29Zm-.24-.05h.19v-.19h-.19v.19Zm-.24,0h.19v-.19h-.05c-.05.04-.1.07-.14.1v.09Z"/>
    </g>
    <g>
      <path class="cls-3" d="m7.21,5.54v-.24h-.24v.24h.24Z"/>
      <path class="cls-5" d="m7.24,5.57h-.29v-.29h.29v.29Zm-.24-.05h.19v-.19h-.19v.19Z"/>
    </g>
    <g>
      <path class="cls-4" d="m6.73,5.25s-.06.04-.08.06h.08v-.06Z"/>
      <path class="cls-5" d="m6.76,5.33h-.19l.07-.05s.06-.04.08-.06l.04-.03v.13Z"/>
    </g>
    <g>
      <path class="cls-3" d="m6.97,5.3v-.21c-.08.05-.16.1-.24.15v.06h.24Zm5.3-.34c-.08-.04-.16-.08-.24-.12v.22h.24v-.1Zm1.93,4.43h.24v-.24h-.24v.24Zm0,.24h.24v-.24h-.24v.24Zm0,.24h.24v-.24h-.24v.24Z"/>
      <path class="cls-5" d="m14.46,9.9h-.29v-.77h.29v.77Zm-.24-.05h.19v-.19h-.19v.19Zm0-.24h.19v-.19h-.19v.19Zm0-.24h.19v-.19h-.19v.19Zm-7.22-4.04h-.29v-.1h.01c.08-.06.16-.11.24-.16l.04-.02v.28Zm-.24-.05h.19v-.14c-.06.04-.13.08-.19.12v.02Zm5.54-.19h-.29v-.28l.04.02c.08.04.16.08.24.12h.01v.14Zm-.24-.05h.19v-.05c-.06-.03-.13-.06-.19-.09v.15Z"/>
    </g>
    <g>
      <path class="cls-3" d="m14.19,9.15h.24v-.24h-.24v.24Zm-.24-.24h.24v-.24h-.24v.24Z"/>
      <path class="cls-5" d="m14.46,9.18h-.29v-.24h-.24v-.29h.29v.24h.24v.29Zm-.24-.05h.19v-.19h-.19v.19Zm-.24-.24h.19v-.19h-.19v.19Z"/>
    </g>
    <g>
      <path class="cls-3" d="m14.43,8.91v-.24h-.24v.24h.24Zm-.24,1.44h.24v-.24h-.24v.24Zm0,.48h.24v-.24h-.24v.24Zm-.24-.24v.24h.24v-.24h-.24Zm0-1.93h.24v-.24h-.24v.24Z"/>
      <path class="cls-5" d="m14.22,10.87h-.29v-.29h.53s0,.29,0,.29h-.24Zm-.24-.05h.19v-.19h-.19v.19Zm.24,0h.19v-.19h-.19v.19Zm.24-.43h-.29v-.29h.29v.29Zm-.24-.05h.19v-.19h-.19v.19Zm.24-1.39h-.29v-.24h-.24v-.29h.29v.24h.24v.29Zm-.24-.05h.19v-.19h-.19v.19Zm-.24-.24h.19v-.19h-.19v.19Z"/>
    </g>
    <g>
      <path class="cls-3" d="m14.19,10.12h.24v-.24h-.24v.24Zm0,.48h.24v-.24h-.24v.24Zm-.24-2.65h.24v-.24h-.24v.24Zm0-1.44v.24h.24v-.07c-.04-.06-.08-.12-.12-.17h-.12Z"/>
      <path class="cls-5" d="m14.46,10.62h-.29v-.29h.29v.29Zm-.24-.05h.19v-.19h-.19v.19Zm.24-.43h-.29v-.29h.29v.29Zm-.24-.05h.19v-.19h-.19v.19Zm0-2.12h-.29v-.29h.29v.29Zm-.24-.05h.19v-.19h-.19v.19Zm.24-1.15h-.29v-.29h.16s0,.01,0,.01c.04.06.08.11.12.17h0v.11Zm-.24-.05h.19v-.03c-.04-.05-.07-.1-.11-.15h-.08s0,.19,0,.19Z"/>
    </g>
    <g>
      <path class="cls-3" d="m14.19,6.99h.2c-.05-.08-.1-.16-.15-.24h-.05v.24Zm-.24,1.44h.24v-.24h-.24v.24Zm-1.51-3.37c-.06-.03-.12-.06-.17-.1v.1h.17Z"/>
      <path class="cls-5" d="m14.22,8.46h-.29v-.29h.29v.29Zm-.24-.05h.19v-.19h-.19v.19Zm.46-1.39h-.27v-.29h.09c.05.09.1.17.15.25l.02.04Zm-.22-.05h.13c-.04-.06-.08-.13-.12-.19h0v.19Zm-1.68-1.87h-.3v-.16l.04.02c.06.03.12.06.17.1l.08.05Zm-.24-.05h.05s-.03-.02-.05-.03v.03Z"/>
    </g>
    <g>
      <path class="cls-3" d="m13.95,6.75v.24h.24v-.24h-.24Zm-1.69-1.44h.24v-.2s-.04-.03-.07-.04h-.17v.24Zm1.69,1.93h.24v-.24h-.24v.24Zm0,3.85h.24v-.24h-.24v.24Zm0-2.89h.24v-.24h-.24v.24Zm0-.72h.24v-.24h-.24v.24Z"/>
      <path class="cls-5" d="m14.22,11.11h-.29v-.29h.29v.29Zm-.24-.05h.19v-.19h-.19v.19Zm.24-2.84h-.29v-.29h.29v.29Zm-.24-.05h.19v-.19h-.19v.19Zm.24-.67h-.29v-.77h.29v.77Zm-.24-.05h.19v-.19h-.19v.19Zm0-.24h.19v-.19h-.19v.19Zm0-.24h.19v-.19h-.19v.19Zm-1.44-1.63h-.29v-.29h.21s.04.02.05.04l.03.02v.24Zm-.24-.05h.19v-.16s-.03-.02-.05-.03h-.14v.19Z"/>
    </g>
    <g>
      <path class="cls-3" d="m13.95,7.71h.24v-.24h-.24v.24Zm.29-.96s-.03-.05-.05-.07v.07h.05Zm-.29,4.57h.24v-.24h-.24v.24Zm0,.72h.24v-.24h-.24v.24Zm0,.48h.24v-.24h-.24v.24Z"/>
      <path class="cls-5" d="m14.22,12.55h-.29v-.29h.29v.29Zm-.24-.05h.19v-.19h-.19v.19Zm.24-.43h-.29v-.29h.29v.29Zm-.24-.05h.19v-.19h-.19v.19Zm.24-.67h-.29v-.29h.29v.29Zm-.24-.05h.19v-.19h-.19v.19Zm.24-3.56h-.29v-.29h.29v.29Zm-.24-.05h.19v-.19h-.19v.19Zm.31-.91h-.12v-.18l.05.08s.03.04.04.06l.03.04Z"/>
    </g>
    <g>
      <path class="cls-3" d="m13.95,11.8h.24v-.24h-.24v.24Z"/>
      <path class="cls-5" d="m14.22,11.83h-.29v-.29h.29v.29Zm-.24-.05h.19v-.19h-.19v.19Z"/>
    </g>
    <g>
      <path class="cls-3" d="m13.95,11.56h.24v-.24h-.24v.24Zm0,1.2h.24v-.24h-.24v.24Zm0-.48h.24v-.24h-.24v.24Z"/>
      <path class="cls-5" d="m14.22,12.79h-.29v-.29h.29v.29Zm-.24-.05h.19v-.19h-.19v.19Zm.24-.43h-.29v-.29h.29v.29Zm-.24-.05h.19v-.19h-.19v.19Zm.24-.67h-.29v-.29h.29v.29Zm-.24-.05h.19v-.19h-.19v.19Z"/>
    </g>
    <g>
      <path class="cls-3" d="m13.95,12.77v.24h.12c.04-.06.08-.11.12-.17v-.07h-.24s0,0,0,0Zm.29,0c.05-.08.1-.16.15-.24h-.2v.24h.05Zm-.05-4.57h.24v-.24h-.24v.24Zm.72.24v-.24h-.24v.24h.24Z"/>
      <path class="cls-5" d="m14.08,13.03h-.16v-.29h.24s0-.24,0-.24h.27l-.02.04c-.05.08-.1.16-.15.24h0s-.04.01-.04.01v.05h0c-.04.07-.08.12-.12.18h0Zm-.1-.05h.08s.07-.1.11-.15v-.04h-.19s0,.19,0,.19Zm.24-.24h0c.04-.06.08-.13.12-.19h-.13v.19Zm.72-4.28h-.29v-.29h.29v.29Zm-.24-.05h.19v-.19h-.19v.19Zm-.24-.19h-.29v-.29h.29v.29Zm-.24-.05h.19v-.19h-.19v.19Z"/>
    </g>
    <g>
      <path class="cls-3" d="m14.67,8.67h.24v-.24h-.24v.24Zm-.24-.24h.24v-.24h-.24v.24Zm0-.72v.24h.24v-.24h-.24Zm.24.24h.17c-.03-.08-.06-.16-.09-.24h-.08v.24Zm0,.96h.24v-.24h-.24v.24Z"/>
      <path class="cls-5" d="m14.94,8.94h-.29v-.48h-.24v-.29h.29v.24h.24v.53Zm-.24-.05h.19v-.19h-.19v.19Zm0-.24h.19v-.19h-.19v.19Zm-.24-.24h.19v-.19h-.19v.19Zm.24-.43h-.29v-.29h.36s0,.02,0,.02c.03.08.06.16.09.24v.03s-.17,0-.17,0Zm-.24-.05h.19v-.19h-.19v.19Zm.24,0h.11c-.02-.06-.05-.13-.07-.19h-.03v.19Z"/>
    </g>
    <g>
      <path class="cls-3" d="m14.43,8.19h.24v-.24h-.24v.24Zm.24,1.93h.24v-.24h-.24v.24Z"/>
      <path class="cls-5" d="m14.94,10.14h-.29v-.29h.29v.29Zm-.24-.05h.19v-.19h-.19v.19Zm0-1.87h-.29v-.29h.29v.29Zm-.24-.05h.19v-.19h-.19v.19Z"/>
    </g>
    <g>
      <path class="cls-3" d="m14.67,9.88h.24v-.24h-.24v.24Zm0-.72h.24v-.24h-.24v.24Zm0,.48h.24v-.24h-.24v.24Z"/>
      <path class="cls-5" d="m14.94,9.9h-.29v-.53h.29v.53Zm-.24-.05h.19v-.19h-.19v.19Zm0-.24h.19v-.19h-.19v.19Zm.24-.43h-.29v-.29h.29v.29Zm-.24-.05h.19v-.19h-.19v.19Z"/>
    </g>
    <g>
      <path class="cls-3" d="m14.67,9.39h.24v-.24h-.24v.24Zm.08-1.69c-.02-.06-.05-.12-.08-.18v.18h.08Zm-3.45-2.89h.24v-.17c-.07-.02-.14-.05-.2-.07h-.04v.24s0,0,0,0Zm-.24-.24v-.08c-.08-.02-.16-.04-.24-.06v.13h.24Z"/>
      <path class="cls-5" d="m14.94,9.42h-.29v-.29h.29v.29Zm-.24-.05h.19v-.19h-.19v.19Zm.09-1.63h-.14v-.33l.05.11c.03.06.05.12.08.18v.04Zm-.09-.05h.01s0-.02-.01-.03v.03Zm-3.13-2.84h-.29v-.29h.07c.07.02.14.05.2.07h.02v.22Zm-.24-.05h.19v-.13c-.06-.02-.12-.04-.18-.06h0v.19Zm-.24-.19h-.29v-.19h.03c.08.02.16.04.24.06h.02v.13Zm-.24-.05h.19v-.03c-.06-.02-.13-.03-.19-.04v.08Z"/>
    </g>
    <g>
      <path class="cls-3" d="m14.43,7.47v.24h.24v-.18s-.02-.04-.03-.06h-.21Z"/>
      <path class="cls-5" d="m14.7,7.74h-.29v-.29h.25s.02.03.02.03c0,.01.01.03.02.04h0v.22Zm-.24-.05h.19v-.15s-.01-.02-.02-.04h0s-.17,0-.17,0v.19Z"/>
    </g>
    <path class="cls-4" d="m11.34,4.58s-.02,0-.04-.01h0s.04.01.04.01Z"/>
    <g>
      <path class="cls-3" d="m14.92,8.43h.07c-.02-.08-.04-.16-.07-.24h0v.24Z"/>
      <path class="cls-5" d="m15.02,8.46h-.13v-.29h.05v.02c.03.08.05.16.07.24v.03Zm-.08-.05h.01s0-.04-.01-.06v.06Z"/>
    </g>
    <path class="cls-4" d="m14.92,8.19v-.02s0,.02,0,.02h0Z"/>
    <g>
      <path class="cls-3" d="m14.67,7.95v.24h.24v-.02c-.02-.07-.05-.15-.07-.22h-.17Zm0,2.41h.24v-.24h-.24v.24Z"/>
      <path class="cls-5" d="m14.94,10.38h-.29v-.29h.29v.29Zm-.24-.05h.19v-.19h-.19v.19Zm.24-2.11h-.29v-.29h.21v.02c.03.07.06.15.08.22h0v.06Zm-.24-.05h.19c-.02-.06-.04-.13-.06-.19h-.12v.19Z"/>
    </g>
    <path class="cls-4" d="m9.86,4.34h0s-.08,0-.13,0c-.04,0-.08,0-.11,0h0s.24,0,.24,0h0Z"/>
    <g>
      <path class="cls-3" d="m14.92,8.67h.13c-.02-.08-.03-.16-.05-.24h-.07v.24Z"/>
      <path class="cls-5" d="m15.08,8.7h-.19v-.29h.12v.02c.02.08.04.16.06.24v.03Zm-.13-.05h.07c-.01-.06-.03-.13-.04-.19h-.03v.19Z"/>
    </g>
    <path class="cls-4" d="m9.88,4.34s-.01,0-.02,0h0s.02,0,.02,0Z"/>
    <g>
      <path class="cls-3" d="m14.92,8.91h.17c-.01-.08-.03-.16-.04-.24h-.13v.24Zm0,.72h.24c0-.08,0-.16-.01-.24h-.22v.24h0Z"/>
      <path class="cls-5" d="m15.18,9.66h-.29v-.29h.27v.02c0,.08.01.16.01.24v.03Zm-.24-.05h.18c0-.06,0-.13,0-.19h-.17v.19Zm.18-.67h-.23v-.29h.18v.02c.02.08.04.16.05.24v.03Zm-.18-.05h.12c-.01-.06-.02-.13-.03-.19h-.08v.19Z"/>
    </g>
    <g>
      <path class="cls-3" d="m14.92,9.88h.24s0-.08,0-.12c0-.04,0-.08,0-.12h-.24v.24Zm0-.48h.22c0-.08-.01-.16-.02-.24h-.2v.24Z"/>
      <path class="cls-5" d="m15.18,9.9h-.29v-.29h.29v.03s0,.08,0,.12c0,.03,0,.07,0,.12v.03Zm-.23-.05h.18s0-.07,0-.09c0-.03,0-.06,0-.1h-.18v.19Zm.23-.43h-.28v-.29h.25v.02c.01.08.02.16.02.24v.03Zm-.23-.05h.17c0-.06-.01-.13-.02-.19h-.15v.19Z"/>
    </g>
    <g>
      <path class="cls-3" d="m14.92,9.15h.2c0-.08-.02-.16-.03-.24h-.17v.24Z"/>
      <path class="cls-5" d="m15.15,9.18h-.26v-.29s.22,0,.22,0v.02c.02.08.03.16.04.24v.03Zm-.21-.05h.15c0-.06-.02-.13-.03-.19h-.12v.19Z"/>
    </g>
    <path class="cls-4" d="m9.62,15.17h0s.08,0,.11,0c.04,0,.08,0,.13,0h0s-.24,0-.24,0h0Z"/>
    <path class="cls-4" d="m9.57,15.17s.04,0,.05,0h0s-.05,0-.05,0Zm.29,0s.03,0,.04,0h-.04Zm-.24-10.83s-.02,0-.03,0h.03Z"/>
    <g>
      <path class="cls-3" d="m14.92,10.12h.22c0-.08,0-.16.01-.24h-.24v.24h0Z"/>
      <path class="cls-5" d="m15.16,10.14h-.27v-.29h.29v.03c0,.08,0,.16-.01.24v.02Zm-.22-.05h.17c0-.06,0-.13,0-.19h-.18v.19Z"/>
    </g>
    <g>
      <path class="cls-3" d="m14.92,10.36h.2c0-.08.02-.16.02-.24h-.22v.24Z"/>
      <path class="cls-5" d="m15.14,10.38h-.25v-.29h.28v.03c0,.08-.01.16-.02.24v.02Zm-.2-.05h.15c0-.06.01-.13.02-.19h-.17v.19Z"/>
    </g>
    <path class="cls-4" d="m14.92,11.34v-.02s0,0,0,0v.02Z"/>
    <g>
      <path class="cls-3" d="m14.92,11.08h.07c.02-.08.04-.16.05-.24h-.13v.24Zm0-.24h.13c.02-.08.03-.16.04-.24h-.17v.24Z"/>
      <path class="cls-5" d="m15.01,11.11h-.12v-.53h.23v.03c-.02.07-.03.14-.04.21h0v.03s0,0,0,0v.02c-.02.07-.04.15-.05.22v.02Zm-.07-.05h.03c.02-.06.03-.13.04-.19h-.07v.19Zm0-.24h.08c.01-.06.02-.13.03-.19h-.12v.19Z"/>
    </g>
    <g>
      <path class="cls-3" d="m14.92,10.6h.17c.01-.08.02-.16.03-.24h-.2v.24h0Z"/>
      <path class="cls-5" d="m15.11,10.62h-.22v-.29h.26v.03c-.01.08-.02.16-.04.24v.02Zm-.17-.05h.12c0-.06.02-.13.03-.19h-.15v.19Z"/>
    </g>
    <path class="cls-4" d="m11.3,14.94s.03,0,.04-.01h-.04Z"/>
    <g>
      <path class="cls-3" d="m14.19,8.43h.24v-.24h-.24v.24Zm0-.72h.24v-.24h-.24v.24Z"/>
      <path class="cls-5" d="m14.46,8.46h-.29v-.29h.29v.29Zm-.24-.05h.19v-.19h-.19v.19Zm.24-.67h-.29v-.29h.29v.29Zm-.24-.05h.19v-.19h-.19v.19Z"/>
    </g>
    <g>
      <path class="cls-3" d="m14.19,7.95h.24v-.24h-.24v.24Zm0-.72v.24h.24v-.24h-.24Z"/>
      <path class="cls-5" d="m14.46,7.98h-.29v-.29h.29v.29Zm-.24-.05h.19v-.19h-.19v.19Zm.24-.43h-.29v-.29h.29v.29Zm-.24-.05h.19v-.19h-.19v.19Z"/>
    </g>
    <g>
      <path class="cls-3" d="m14.43,7.47h.21c-.04-.08-.08-.16-.12-.24h-.09v.24Zm.24,1.2v-.24h-.24v.24h.24Zm-.24.72h.24v-.24h-.24v.24Z"/>
      <path class="cls-5" d="m14.7,9.42h-.29v-.29h.29v.29Zm-.24-.05h.19v-.19h-.19v.19Zm.24-.67h-.29v-.29h.29v.29Zm-.24-.05h.19v-.19h-.19v.19Zm.23-1.15h-.28v-.29h.14c.04.09.08.17.12.26l.02.04Zm-.23-.05h.15c-.03-.06-.06-.13-.09-.19h-.05v.19Z"/>
    </g>
    <g>
      <path class="cls-3" d="m14.43,9.15h.24v-.24h-.24v.24Zm-.24-.48h.24v-.24h-.24v.24Zm.33-1.44c-.03-.06-.06-.11-.09-.17v.17h.09Zm-.09,1.69h.24v-.24h-.24v.24Zm-3.37-4.09v-.24h-.24v.24h.24Z"/>
      <path class="cls-5" d="m14.7,9.18h-.29v-.48h-.24v-.29h.29v.24h.24v.53Zm-.24-.05h.19v-.19h-.19v.19Zm0-.24h.19v-.19h-.19v.19Zm-.05-.24h0v-.19h-.19v.19h.19Zm.16-1.39h-.16v-.29l.05.08c.03.06.06.11.09.17l.02.04Zm-.11-.05h.02s-.02-.03-.02-.05v.05Zm-3.37-2.36h-.29v-.29h.29v.29Zm-.24-.05h.19v-.19h-.19v.19Z"/>
    </g>
    <g>
      <path class="cls-3" d="m11.3,4.82v-.24h-.24v.24h.24Zm-.48,0v-.24h-.24v.24h.24Zm-.24.24v-.24h-.24v.24h.24Zm.48,0h.24v-.24h-.24v.24Zm.72,0h.24v-.22s-.04-.02-.05-.02h-.19v.24h0Zm.19-.24c-.06-.03-.12-.06-.19-.08v.08h.19Zm2.22,2.17v.24h.24v-.17s-.03-.05-.04-.07h-.2Z"/>
      <path class="cls-5" d="m14.46,7.25h-.29v-.29h.24l.02.03s.02.03.03.05h0v.21Zm-.24-.05h.19v-.14s-.02-.03-.03-.04h0s-.16,0-.16,0v.19Zm-2.17-2.12h-.29v-.39h.04c.06.04.13.07.19.1h0s0,0,0,0l.1.04h-.04v.24Zm-.24-.05h.19v-.17s0,0,0,0c-.01,0-.02,0-.03-.01h-.16v.19Zm0-.24h.04s-.03-.01-.04-.02v.02Zm-.48.29h-.29v-.53s.29,0,.29,0v.53Zm-.24-.05h.19v-.19h-.19v.19Zm0-.24h.19v-.19h-.19v.19Zm-.48.29h-.29v-.29h.24v-.24h.29v.29h-.24v.24Zm-.24-.05h.19v-.19h-.19v.19Zm.24-.24h.19v-.19h-.19v.19Z"/>
    </g>
    <g>
      <path class="cls-3" d="m11.79,5.06v-.24h-.24v.24h.24Zm0-.32c-.08-.03-.16-.06-.24-.09v.17h.24v-.08Z"/>
      <path class="cls-5" d="m11.81,5.09h-.29v-.48h.03c.08.04.16.07.24.1h.02v.37Zm-.24-.05h.19v-.19h-.19v.19Zm0-.24h.19v-.04c-.06-.03-.13-.05-.19-.07v.11Z"/>
    </g>
    <g>
      <path class="cls-3" d="m11.55,5.06v-.24h-.24v.24h.24Zm2.89,6.74h.24v-.24h-.24v.24Zm0-.72v.24h.24v-.24h-.24Z"/>
      <path class="cls-5" d="m14.7,11.83h-.29v-.29h.29v.29Zm-.24-.05h.19v-.19h-.19v.19Zm.24-.43h-.29v-.29h.29v.29Zm-.24-.05h.19v-.19h-.19v.19Zm-2.89-6.21h-.29v-.29h.29v.29Zm-.24-.05h.19v-.19h-.19v.19Z"/>
    </g>
    <g>
      <path class="cls-3" d="m14.43,11.56h.24v-.24h-.24v.24Zm0-1.93h.24v-.24h-.24v.24Zm0,2.17v.24h.21s.02-.04.03-.06v-.18h-.24Zm.24-.96h.24v-.24h-.24v.24Z"/>
      <path class="cls-5" d="m14.66,12.07h-.26v-.29h.29v.21h0s-.02.04-.03.06h0Zm-.2-.05h.17s.01-.03.02-.04v-.15h-.19s0,.19,0,.19Zm.24-.43h-.29v-.29h.29v.29Zm-.24-.05h.19v-.19h-.19v.19Zm.48-.67h-.29v-.29h.29v.29Zm-.24-.05h.19v-.19h-.19v.19Zm0-1.15h-.29v-.29h.29v.29Zm-.24-.05h.19v-.19h-.19v.19Z"/>
    </g>
    <g>
      <path class="cls-3" d="m14.67,10.6h.24v-.24h-.24v.24Zm-.96-.72h.24v-.24h-.24v.24Zm-.48-2.17h.24v-.24h-.24v.24Zm0,1.2h.24v-.24h-.24v.24Zm0-.48h.24v-.24h-.24v.24Z"/>
      <path class="cls-5" d="m14.94,10.62h-.29v-.29h.29v.29Zm-.24-.05h.19v-.19h-.19v.19Zm-.72-.67h-.29v-.29h.29v.29Zm-.24-.05h.19v-.19h-.19v.19Zm-.24-.91h-.29v-.29h.29v.29Zm-.24-.05h.19v-.19h-.19v.19Zm.24-.43h-.29v-.29h.29v.29Zm-.24-.05h.19v-.19h-.19v.19Zm.24-.67h-.29v-.29h.29v.29Zm-.24-.05h.19v-.19h-.19v.19Z"/>
    </g>
    <g>
      <path class="cls-3" d="m13.23,8.19h.24v-.24h-.24v.24Zm0-.24h.24v-.24h-.24v.24Zm0,1.2h.24v-.24h-.24v.24Zm0-.48h.24v-.24h-.24v.24Zm-3.13,4.57v.24h.24v-.24h-.24Zm3.37-3.13h.24v-.24h-.24v.24Z"/>
      <path class="cls-5" d="m10.37,13.51h-.29v-.29h.29v.29Zm-.24-.05h.19v-.19h-.19v.19Zm3.61-3.32h-.29v-.29h.29v.29Zm-.24-.05h.19v-.19h-.19v.19Zm0-.91h-.29v-.29h.29v.29Zm-.24-.05h.19v-.19h-.19v.19Zm.24-.43h-.29v-.29h.29v.29Zm-.24-.05h.19v-.19h-.19v.19Zm.24-.43h-.29v-.53h.29v.53Zm-.24-.05h.19v-.19h-.19v.19Zm0-.24h.19v-.19h-.19v.19Z"/>
    </g>
    <g>
      <path class="cls-3" d="m13.23,9.39h.24v-.24h-.24v.24Zm0,.48v.24h.24v-.24h-.24Zm.48-.24v-.24h-.24v.24h.24Zm-.48,0h.24v-.24h-.24v.24Zm-.48-3.61v-.24h-.24v.24h.24Z"/>
      <path class="cls-5" d="m13.5,10.14h-.29v-.29h.29v.29Zm-.24-.05h.19v-.19h-.19v.19Zm.48-.43h-.53v-.53h.29v.24h.24v.29Zm-.24-.05h.19v-.19h-.19v.19Zm-.24,0h.19v-.19h-.19v.19Zm0-.24h.19v-.19h-.19v.19Zm-.48-3.32h-.29v-.29h.29v.29Zm-.24-.05h.19v-.19h-.19v.19Z"/>
    </g>
    <g>
      <path class="cls-3" d="m13.23,10.36h.24v-.24h-.24v.24Zm.24-4.33v-.19s-.04-.03-.05-.05h-.19v.24h.24,0Zm-.24,0v-.24h-.24v.24h.24Z"/>
      <path class="cls-5" d="m13.5,10.38h-.29v-.29h.29v.29Zm-.24-.05h.19v-.19h-.19v.19Zm.24-4.28h-.53v-.29h.48s.03.04.04.06h0v.24Zm-.24-.05h.19v-.15s-.02-.02-.04-.03h0s-.15,0-.15,0v.19Zm-.24,0h.19v-.19h-.19v.19Z"/>
    </g>
    <g>
      <path class="cls-3" d="m12.99,6.02v-.24h-.24v.24h.24Zm-.72,0v-.24h-.24v.24h.24Zm.24,0v-.24h-.24v.24h.24Zm.72.96h.24v-.24h-.24v.24Zm0,.24h.24v-.24h-.24v.24Zm0,.24h.24v-.24h-.24v.24Zm0-.96h.24v-.24h-.24v.24Zm0-.24h.24v-.24h-.24v.24Z"/>
      <path class="cls-5" d="m13.5,7.49h-.29v-.77h.29v.77Zm-.24-.05h.19v-.19h-.19v.19Zm0-.24h.19v-.19h-.19v.19Zm0-.24h.19v-.19h-.19v.19Zm.24-.43h-.29v-.53h.29v.53Zm-.24-.05h.19v-.19h-.19v.19Zm0-.24h.19v-.19h-.19v.19Zm-.24-.19h-.29v-.29h.29v.29Zm-.24-.05h.19v-.19h-.19v.19Zm-.24.05h-.53v-.29h.53v.29Zm-.24-.05h.19v-.19h-.19v.19Zm-.24,0h.19v-.19h-.19v.19Z"/>
    </g>
    <g>
      <path class="cls-3" d="m13.23,6.75h.24v-.24h-.24v.24Zm-.48,6.5v.24h.24v-.24h-.24Zm-.72-7.22v-.24h-.24v.24h.24Z"/>
      <path class="cls-5" d="m13.02,13.51h-.29v-.29h.29v.29Zm-.24-.05h.19v-.19h-.19v.19Zm.72-6.69h-.29v-.29h.29v.29Zm-.24-.05h.19v-.19h-.19v.19Zm-1.2-.67h-.29v-.29h.29v.29Zm-.24-.05h.19v-.19h-.19v.19Z"/>
    </g>
    <g>
      <path class="cls-3" d="m12.99,13.25v.24h.24v-.24h-.24Zm.24-2.65h.24v-.24h-.24v.24Zm0,.96h.24v-.24h-.24v.24Z"/>
      <path class="cls-5" d="m13.26,13.51h-.29v-.29h.29v.29Zm-.24-.05h.19v-.19h-.19v.19Zm.48-1.87h-.29v-.29h.29v.29Zm-.24-.05h.19v-.19h-.19v.19Zm.24-.91h-.29v-.29h.29v.29Zm-.24-.05h.19v-.19h-.19v.19Z"/>
    </g>
    <g>
      <path class="cls-3" d="m13.23,11.8h.24v-.24h-.24v.24Z"/>
      <path class="cls-5" d="m13.5,11.83h-.29v-.29h.29v.29Zm-.24-.05h.19v-.19h-.19v.19Z"/>
    </g>
    <g>
      <path class="cls-3" d="m13.23,12.04h.24v-.24h-.24v.24Zm0,.96h.24v-.24h-.24v.24Z"/>
      <path class="cls-5" d="m13.5,13.03h-.29v-.29h.29v.29Zm-.24-.05h.19v-.19h-.19v.19Zm.24-.91h-.29v-.29h.29v.29Zm-.24-.05h.19v-.19h-.19v.19Z"/>
    </g>
    <g>
      <path class="cls-3" d="m13.23,12.77h.24v-.24h-.24v.24Zm0-.48h.24v-.24h-.24v.24Z"/>
      <path class="cls-5" d="m13.5,12.79h-.29v-.29h.29v.29Zm-.24-.05h.19v-.19h-.19v.19Zm.24-.43h-.29v-.29h.29v.29Zm-.24-.05h.19v-.19h-.19v.19Z"/>
    </g>
    <g>
      <path class="cls-3" d="m13.23,12.52h.24v-.24h-.24v.24Zm.24-2.65h.24v-.24h-.24v.24Zm-7.46,1.2h-.24v.24h.24v-.24Zm0,.72h-.24v.24h.24v-.24Z"/>
      <path class="cls-5" d="m13.5,12.55h-.29v-.29h.29v.29Zm-.24-.05h.19v-.19h-.19v.19Zm-7.22-.43h-.29v-.29h.29v.29Zm-.24-.05h.19v-.19h-.19v.19Zm.24-.67h-.29v-.29h.29v.29Zm-.24-.05h.19v-.19h-.19v.19Zm7.94-1.39h-.29v-.29h.29v.29Zm-.24-.05h.19v-.19h-.19v.19Z"/>
    </g>
    <g>
      <path class="cls-3" d="m6.01,11.32h-.24v.24h.24v-.24Zm0,.24h-.24v.24h.24v-.24Zm0,.48h-.24v.24h.24v-.24Zm0-1.2h-.24v.24h.24v-.24Zm5.78-4.81v-.24h-.24v.24h.24Zm-1.44,0v-.24h-.24v.24h.24Zm-.24,0v-.24h-.24v.24h.24Zm.72,0v-.24h-.24v.24h.24Z"/>
      <path class="cls-5" d="m6.03,12.31h-.29v-.29h.29v.29Zm-.24-.05h.19v-.19h-.19v.19Zm.24-.43h-.29v-.53h.29v.53Zm-.24-.05h.19v-.19h-.19v.19Zm0-.24h.19v-.19h-.19v.19Zm.24-.43h-.29v-.29h.29v.29Zm-.24-.05h.19v-.19h-.19v.19Zm6.02-5h-.29v-.29h.29v.29Zm-.24-.05h.19v-.19h-.19v.19Zm-.72.05h-.29v-.29h.29v.29Zm-.24-.05h.19v-.19h-.19v.19Zm-.24.05h-.53v-.29h.53v.29Zm-.24-.05h.19v-.19h-.19v.19Zm-.24,0h.19v-.19h-.19v.19Z"/>
    </g>
    <g>
      <path class="cls-3" d="m10.58,6.02v-.24h-.24v.24h.24Zm.48,0v-.24h-.24v.24h.24Zm-4.33,0v-.24h-.24v.24h.24Zm.24,0v-.24h-.24v.24h.24Zm-.96,0h.24v-.24h-.2s-.03.02-.04.04v.2h0Z"/>
      <path class="cls-5" d="m11.09,6.05h-.29v-.29h.29v.29Zm-.24-.05h.19v-.19h-.19v.19Zm-.24.05h-.29v-.29h.29v.29Zm-.24-.05h.19v-.19h-.19v.19Zm-3.37.05h-.53v-.29h.53v.29Zm-.24-.05h.19v-.19h-.19v.19Zm-.24,0h.19v-.19h-.19v.19Zm-.24.05h-.29v-.24s0,0,0,0c0,0,.02-.02.03-.02l.02-.02h.24v.29Zm-.24-.05h.19v-.19h-.17s-.01.02-.02.02v.17Z"/>
    </g>
    <g>
      <path class="cls-3" d="m7.21,6.02v-.24h-.24v.24h.24Zm-.72,0v-.24h-.24v.24h.24Zm5.3.24v-.24h-.24v.24h.24Zm.24,0v-.24h-.24v.24h.24Z"/>
      <path class="cls-5" d="m12.05,6.29h-.53v-.29h.53v.29Zm-.24-.05h.19v-.19h-.19v.19Zm-.24,0h.19v-.19h-.19v.19Zm-4.33-.19h-.29v-.29h.29v.29Zm-.24-.05h.19v-.19h-.19v.19Zm-.48.05h-.29v-.29h.29v.29Zm-.24-.05h.19v-.19h-.19v.19Z"/>
    </g>
    <g>
      <path class="cls-3" d="m11.55,6.27v-.24h-.24v.24h.24Zm.72,0v-.24h-.24v.24h.24Zm-1.2,0v-.24h-.24v.24h.24Zm1.93.24h.24v-.24h-.24v.24h0Zm-2.17-.24v-.24h-.24v.24h.24Z"/>
      <path class="cls-5" d="m13.26,6.53h-.29v-.29h.29v.29Zm-.24-.05h.19v-.19h-.19v.19Zm-.72-.19h-.29v-.29h.29v.29Zm-.24-.05h.19v-.19h-.19v.19Zm-.48.05h-.29v-.29h.29v.29Zm-.24-.05h.19v-.19h-.19v.19Zm-.24.05h-.53v-.29h.53v.29Zm-.24-.05h.19v-.19h-.19v.19Zm-.24,0h.19v-.19h-.19v.19Z"/>
    </g>
    <g>
      <path class="cls-3" d="m12.99,6.75h.24v-.24h-.24v.24h0Zm.24-.48v-.24h-.24v.24h.24Z"/>
      <path class="cls-5" d="m13.26,6.77h-.29v-.29h.29v.29Zm-.24-.05h.19v-.19h-.19v.19Zm.24-.43h-.29v-.29h.29v.29Zm-.24-.05h.19v-.19h-.19v.19Z"/>
    </g>
    <g>
      <path class="cls-3" d="m12.99,6.27v-.24h-.24v.24h.24Zm-.48,0v-.24h-.24v.24h.24Z"/>
      <path class="cls-5" d="m13.02,6.29h-.29v-.29h.29v.29Zm-.24-.05h.19v-.19h-.19v.19Zm-.24.05h-.29v-.29h.29v.29Zm-.24-.05h.19v-.19h-.19v.19Z"/>
    </g>
    <g>
      <path class="cls-3" d="m12.75,6.27v-.24h-.24v.24h.24Zm-2.65,0v-.24h-.24v.24h.24Zm-2.17,0v-.24h-.24v.24h.24Zm2.41,0v-.24h-.24v.24h.24Zm2.65.72h.24v-.24h-.24v.24h0Z"/>
      <path class="cls-5" d="m13.26,7.01h-.29v-.29h.29v.29Zm-.24-.05h.19v-.19h-.19v.19Zm-.24-.67h-.29v-.29h.29v.29Zm-.24-.05h.19v-.19h-.19v.19Zm-2.17.05h-.53v-.29h.53v.29Zm-.24-.05h.19v-.19h-.19v.19Zm-.24,0h.19v-.19h-.19v.19Zm-1.93.05h-.29v-.29h.29v.29Zm-.24-.05h.19v-.19h-.19v.19Z"/>
    </g>
    <g>
      <path class="cls-3" d="m10.58,6.27v-.24h-.24v.24h.24Zm-.96,0v-.24h-.24v.24h.24Zm.24,0v-.24h-.24v.24h.24Zm3.13,5.54h.24v-.24h-.24v.24h0Zm0-1.44h.24v-.24h-.24v.24h0Z"/>
      <path class="cls-5" d="m13.26,11.83h-.29v-.29h.29v.29Zm-.24-.05h.19v-.19h-.19v.19Zm.24-1.39h-.29v-.29h.29v.29Zm-.24-.05h.19v-.19h-.19v.19Zm-2.41-4.04h-.29v-.29h.29v.29Zm-.24-.05h.19v-.19h-.19v.19Zm-.48.05h-.53v-.29h.53v.29Zm-.24-.05h.19v-.19h-.19v.19Zm-.24,0h.19v-.19h-.19v.19Z"/>
    </g>
    <g>
      <path class="cls-3" d="m12.99,11.56h.24v-.24h-.24v.24h0Zm0-.96h.24v-.24h-.24v.24h0Z"/>
      <path class="cls-5" d="m13.26,11.59h-.29v-.29h.29v.29Zm-.24-.05h.19v-.19h-.19v.19Zm.24-.91h-.29v-.29h.29v.29Zm-.24-.05h.19v-.19h-.19v.19Z"/>
    </g>
    <g>
      <path class="cls-3" d="m12.99,10.84h.24v-.24h-.24v.24h0Zm0,2.17h.24v-.24h-.24v.24h0Z"/>
      <path class="cls-5" d="m13.26,13.03h-.29v-.29h.29v.29Zm-.24-.05h.19v-.19h-.19v.19Zm.24-2.12h-.29v-.29h.29v.29Zm-.24-.05h.19v-.19h-.19v.19Z"/>
    </g>
    <g>
      <path class="cls-3" d="m12.99,12.77h.24v-.24h-.24v.24h0Zm0-.48h.24v-.24h-.24v.24h0Zm0-.24h.24v-.24h-.24v.24h0Zm0-4.57h.24v-.24h-.24v.24h0Zm0,.72h.24v-.24h-.24v.24h0Zm0-.24h.24v-.24h-.24v.24h0Z"/>
      <path class="cls-5" d="m13.26,12.79h-.29v-.29h.29v.29Zm-.24-.05h.19v-.19h-.19v.19Zm.24-.43h-.29v-.53h.29v.53Zm-.24-.05h.19v-.19h-.19v.19Zm0-.24h.19v-.19h-.19v.19Zm.24-3.8h-.29v-.53h.29v.53Zm-.24-.05h.19v-.19h-.19v.19Zm0-.24h.19v-.19h-.19v.19Zm.24-.43h-.29v-.29h.29v.29Zm-.24-.05h.19v-.19h-.19v.19Z"/>
    </g>
    <g>
      <path class="cls-3" d="m12.99,8.43h.24v-.24h-.24v.24h0Z"/>
      <path class="cls-5" d="m13.26,8.46h-.29v-.29h.29v.29Zm-.24-.05h.19v-.19h-.19v.19Z"/>
    </g>
    <g>
      <path class="cls-3" d="m12.99,8.67h.24v-.24h-.24v.24h0Zm0-1.44h.24v-.24h-.24v.24h0Zm0,.48h.24v-.24h-.24v.24h0Zm0,1.93h.24v-.24h-.24v.24h0Zm0,.48h.24v-.24h-.24v.24h0Z"/>
      <path class="cls-5" d="m13.26,10.14h-.29v-.29h.29v.29Zm-.24-.05h.19v-.19h-.19v.19Zm.24-.43h-.29v-.29h.29v.29Zm-.24-.05h.19v-.19h-.19v.19Zm.24-.91h-.29v-.29h.29v.29Zm-.24-.05h.19v-.19h-.19v.19Zm.24-.91h-.29v-.29h.29v.29Zm-.24-.05h.19v-.19h-.19v.19Zm.24-.43h-.29v-.29h.29v.29Zm-.24-.05h.19v-.19h-.19v.19Z"/>
    </g>
    <g>
      <path class="cls-3" d="m12.99,9.88h.24v-.24h-.24v.24h0Zm0-.72h.24v-.24h-.24v.24h0Z"/>
      <path class="cls-5" d="m13.26,9.9h-.29v-.29h.29v.29Zm-.24-.05h.19v-.19h-.19v.19Zm.24-.67h-.29v-.29h.29v.29Zm-.24-.05h.19v-.19h-.19v.19Z"/>
    </g>
    <g>
      <path class="cls-3" d="m12.99,9.39h.24v-.24h-.24v.24h0Zm0-.48h.24v-.24h-.24v.24h0Zm-6.74,2.17h-.24v.24h.24v-.24Zm0,.48h-.24v.24h.24v-.24Zm0,.72h-.24v.24h.24v-.24Z"/>
      <path class="cls-5" d="m6.27,12.55h-.29v-.29h.29v.29Zm-.24-.05h.19v-.19h-.19v.19Zm.24-.67h-.29v-.29h.29v.29Zm-.24-.05h.19v-.19h-.19v.19Zm.24-.43h-.29v-.29h.29v.29Zm-.24-.05h.19v-.19h-.19v.19Zm7.22-1.87h-.29v-.29h.29v.29Zm-.24-.05h.19v-.19h-.19v.19Zm.24-.43h-.29v-.29h.29v.29Zm-.24-.05h.19v-.19h-.19v.19Z"/>
    </g>
    <g>
      <path class="cls-3" d="m6.25,11.8h-.24v.24h.24v-.24Zm0,.24h-.24v.24h.24v-.24Zm0-.72h-.24v.24h.24v-.24Zm0-.72h-.24v.24h.24v-.24Z"/>
      <path class="cls-5" d="m6.27,12.31h-.29v-.53h.29v.53Zm-.24-.05h.19v-.19h-.19v.19Zm0-.24h.19v-.19h-.19v.19Zm.24-.43h-.29v-.29h.29v.29Zm-.24-.05h.19v-.19h-.19v.19Zm.24-.67h-.29v-.29h.29v.29Zm-.24-.05h.19v-.19h-.19v.19Z"/>
    </g>
    <g>
      <path class="cls-3" d="m6.25,10.84h-.24v.24h.24v-.24Zm7.46,2.17h.24v-.24h-.24v.24Z"/>
      <path class="cls-5" d="m13.98,13.03h-.29v-.29h.29v.29Zm-.24-.05h.19v-.19h-.19v.19Zm-7.46-1.87h-.29v-.29h.29v.29Zm-.24-.05h.19v-.19h-.19v.19Z"/>
    </g>
    <g>
      <path class="cls-3" d="m13.71,12.77h.24v-.24h-.24v.24Zm-1.69-7.22v-.24h-.24v.24h.24Z"/>
      <path class="cls-5" d="m13.98,12.79h-.29v-.29h.29v.29Zm-.24-.05h.19v-.19h-.19v.19Zm-1.69-7.17h-.29v-.29h.29v.29Zm-.24-.05h.19v-.19h-.19v.19Z"/>
    </g>
    <g>
      <path class="cls-3" d="m12.27,5.54v-.24h-.24v.24h.24Zm.24,0v-.24h-.24v.24h.24Zm1.2,1.2h.24v-.24h-.24v.24Zm-2.65-1.2v-.24h-.24v.24h.24Z"/>
      <path class="cls-5" d="m13.98,6.77h-.29v-.29h.29v.29Zm-.24-.05h.19v-.19h-.19v.19Zm-1.2-1.15h-.53v-.29h.53v.29Zm-.24-.05h.19v-.19h-.19v.19Zm-.24,0h.19v-.19h-.19v.19Zm-.96.05h-.29v-.29h.29v.29Zm-.24-.05h.19v-.19h-.19v.19Z"/>
    </g>
    <g>
      <path class="cls-3" d="m11.3,5.54v-.24h-.24v.24h.24Zm2.41.72v.24h.24v-.15s-.05-.06-.08-.09h-.17Zm-.96-.72h.24v-.12c-.06-.04-.11-.08-.17-.12h-.07v.24h0Zm0-.29c-.08-.05-.16-.1-.24-.15v.2h.24v-.05Zm0,.29v-.24h-.24v.24h.24Z"/>
      <path class="cls-5" d="m13.98,6.53h-.29v-.29h.21s.05.07.08.1h0v.19Zm-.24-.05h.19v-.12s-.04-.05-.06-.07h-.13v.19Zm-.72-.91h-.53v-.51l.04.02c.08.05.16.1.24.15h.01v.04h.06c.06.04.11.09.17.13h.01v.16Zm-.24-.05h.19v-.08s-.1-.07-.15-.11h-.04v.19Zm-.24,0h.19v-.19h-.19v.19Zm0-.24h.19c-.06-.05-.13-.09-.19-.13v.13Zm-1.2.29h-.29v-.29h.29v.29Zm-.24-.05h.19v-.19h-.19v.19Z"/>
    </g>
    <path class="cls-4" d="m12.82,5.3s-.05-.03-.07-.05v.05h.07Z"/>
    <g>
      <path class="cls-3" d="m10.34,5.54v-.24h-.24v.24h.24Z"/>
      <path class="cls-5" d="m10.37,5.57h-.29v-.29h.29v.29Zm-.24-.05h.19v-.19h-.19v.19Z"/>
    </g>
    <g>
      <path class="cls-3" d="m10.58,5.54v-.24h-.24v.24h.24Z"/>
      <path class="cls-5" d="m10.61,5.57h-.29v-.29h.29v.29Zm-.24-.05h.19v-.19h-.19v.19Z"/>
    </g>
    <g>
      <path class="cls-3" d="m10.82,5.54v-.24h-.24v.24h.24Zm2.89,6.5h.24v-.24h-.24v.24Zm.24-1.44h.24v-.24h-.24v.24Z"/>
      <path class="cls-5" d="m13.98,12.07h-.29v-.29h.29v.29Zm-.24-.05h.19v-.19h-.19v.19Zm.48-1.39h-.29v-.29h.29v.29Zm-.24-.05h.19v-.19h-.19v.19Zm-3.13-5h-.29v-.29h.29v.29Zm-.24-.05h.19v-.19h-.19v.19Z"/>
    </g>
    <g>
      <path class="cls-3" d="m13.71,10.36v.24h.24v-.24h-.24Zm.24-.48h.24v-.24h-.24v.24Z"/>
      <path class="cls-5" d="m13.98,10.62h-.29v-.29h.29v.29Zm-.24-.05h.19v-.19h-.19v.19Zm.48-.67h-.29v-.29h.29v.29Zm-.24-.05h.19v-.19h-.19v.19Z"/>
    </g>
    <g>
      <path class="cls-3" d="m13.95,10.12h.24v-.24h-.24v.24Z"/>
      <path class="cls-5" d="m14.22,10.14h-.29v-.29h.29v.29Zm-.24-.05h.19v-.19h-.19v.19Z"/>
    </g>
    <g>
      <path class="cls-3" d="m13.95,10.36h.24v-.24h-.24v.24Zm-.24.48h.24v-.24h-.24v.24Zm0,1.69h.24v-.24h-.24v.24Z"/>
      <path class="cls-5" d="m13.98,12.55h-.29v-.29h.29v.29Zm-.24-.05h.19v-.19h-.19v.19Zm.24-1.63h-.29v-.29h.29v.29Zm-.24-.05h.19v-.19h-.19v.19Zm.48-.43h-.29v-.29h.29v.29Zm-.24-.05h.19v-.19h-.19v.19Z"/>
    </g>
    <g>
      <path class="cls-3" d="m13.71,12.28h.24v-.24h-.24v.24Zm0-.72h.24v-.24h-.24v.24Z"/>
      <path class="cls-5" d="m13.98,12.31h-.29v-.29h.29v.29Zm-.24-.05h.19v-.19h-.19v.19Zm.24-.67h-.29v-.29h.29v.29Zm-.24-.05h.19v-.19h-.19v.19Z"/>
    </g>
    <g>
      <path class="cls-3" d="m13.71,11.8h.24v-.24h-.24v.24Zm0-3.13h.24v-.24h-.24v.24Zm0-.72h.24v-.24h-.24v.24Zm0,.24h.24v-.24h-.24v.24Z"/>
      <path class="cls-5" d="m13.98,11.83h-.29v-.29h.29v.29Zm-.24-.05h.19v-.19h-.19v.19Zm.24-3.08h-.29v-.29h.29v.29Zm-.24-.05h.19v-.19h-.19v.19Zm.24-.43h-.29v-.53h.29v.53Zm-.24-.05h.19v-.19h-.19v.19Zm0-.24h.19v-.19h-.19v.19Z"/>
    </g>
    <g>
      <path class="cls-3" d="m13.71,7.71h.24v-.24h-.24v.24Z"/>
      <path class="cls-5" d="m13.98,7.74h-.29v-.29h.29v.29Zm-.24-.05h.19v-.19h-.19v.19Z"/>
    </g>
    <g>
      <path class="cls-3" d="m13.71,7.47h.24v-.24h-.24v.24Zm.24,2.17h.24v-.24h-.24v.24Zm-.24-1.2h.24v-.24h-.24v.24Zm0-1.2h.24v-.24h-.24v.24Zm.24,2.17h.24v-.24h-.24v.24Z"/>
      <path class="cls-5" d="m14.22,9.66h-.29v-.53h.29v.53Zm-.24-.05h.19v-.19h-.19v.19Zm0-.24h.19v-.19h-.19v.19Zm0-.91h-.29v-.29h.29v.29Zm-.24-.05h.19v-.19h-.19v.19Zm.24-.91h-.29v-.53h.29v.53Zm-.24-.05h.19v-.19h-.19v.19Zm0-.24h.19v-.19h-.19v.19Z"/>
    </g>
    <g>
      <path class="cls-3" d="m14.19,9.15v-.24h-.24v.24h.24Z"/>
      <path class="cls-5" d="m14.22,9.18h-.29v-.29h.29v.29Zm-.24-.05h.19v-.19h-.19v.19Z"/>
    </g>
    <g>
      <path class="cls-3" d="m13.71,9.15h.24v-.24h-.24v.24Zm0-2.17h.24v-.24h-.24v.24Zm0,1.93h.24v-.24h-.24v.24Zm-.24,3.85h.24v-.24h-.24v.24Z"/>
      <path class="cls-5" d="m13.74,12.79h-.29v-.29h.29v.29Zm-.24-.05h.19v-.19h-.19v.19Zm.48-3.56h-.29v-.53h.29v.53Zm-.24-.05h.19v-.19h-.19v.19Zm0-.24h.19v-.19h-.19v.19Zm.24-1.87h-.29v-.29h.29v.29Zm-.24-.05h.19v-.19h-.19v.19Z"/>
    </g>
    <g>
      <path class="cls-3" d="m13.47,13.01h.24v-.24h-.24v.24Zm0-.48h.24v-.24h-.24v.24Zm.24-2.41h.24v-.24h-.24v.24Z"/>
      <path class="cls-5" d="m13.74,13.03h-.29v-.29h.29v.29Zm-.24-.05h.19v-.19h-.19v.19Zm.24-.43h-.29v-.29h.29v.29Zm-.24-.05h.19v-.19h-.19v.19Zm.48-2.36h-.29v-.29h.29v.29Zm-.24-.05h.19v-.19h-.19v.19Z"/>
    </g>
    <g>
      <path class="cls-3" d="m13.47,12.28h.24v-.24h-.24v.24Zm0-1.69h.24v-.24h-.24v.24Zm0,1.2h.24v-.24h-.24v.24Z"/>
      <path class="cls-5" d="m13.74,12.31h-.29v-.29h.29v.29Zm-.24-.05h.19v-.19h-.19v.19Zm.24-.43h-.29v-.29h.29v.29Zm-.24-.05h.19v-.19h-.19v.19Zm.24-1.15h-.29v-.29h.29v.29Zm-.24-.05h.19v-.19h-.19v.19Z"/>
    </g>
    <g>
      <path class="cls-3" d="m13.47,12.04h.24v-.24h-.24v.24Zm0-.48h.24v-.24h-.24v.24Zm.24-1.93h.24v-.24h-.24v.24Zm-3.37-3.85v-.24h-.24v.24h.24Z"/>
      <path class="cls-5" d="m13.74,12.07h-.29v-.29h.29v.29Zm-.24-.05h.19v-.19h-.19v.19Zm.24-.43h-.29v-.29h.29v.29Zm-.24-.05h.19v-.19h-.19v.19Zm.48-1.87h-.29v-.29h.29v.29Zm-.24-.05h.19v-.19h-.19v.19Zm-3.37-3.8h-.29v-.29h.29v.29Zm-.24-.05h.19v-.19h-.19v.19Z"/>
    </g>
    <g>
      <path class="cls-3" d="m10.58,5.78v-.24h-.24v.24h.24Zm-3.13,0v-.24h-.24v.24h.24Zm-.48,0v-.24h-.24v.24h.24Z"/>
      <path class="cls-5" d="m10.61,5.81h-.29v-.29h.29v.29Zm-.24-.05h.19v-.19h-.19v.19Zm-2.89.05h-.29v-.29h.29v.29Zm-.24-.05h.19v-.19h-.19v.19Zm-.24.05h-.29v-.29h.29v.29Zm-.24-.05h.19v-.19h-.19v.19Z"/>
    </g>
    <g>
      <path class="cls-3" d="m7.21,5.78v-.24h-.24v.24h.24Zm-.48,0v-.24h-.24v.24h.24Z"/>
      <path class="cls-5" d="m7.24,5.81h-.29v-.29h.29v.29Zm-.24-.05h.19v-.19h-.19v.19Zm-.24.05h-.29v-.29h.29v.29Zm-.24-.05h.19v-.19h-.19v.19Z"/>
    </g>
    <g>
      <path class="cls-3" d="m6.25,5.78h.24v-.24h-.16s-.05.04-.08.06v.18s0,0,0,0Zm7.22,1.2h.24v-.24h-.24v.24Zm0,.72h.24v-.24h-.24v.24Z"/>
      <path class="cls-5" d="m13.74,7.74h-.29v-.29h.29v.29Zm-.24-.05h.19v-.19h-.19v.19Zm.24-.67h-.29v-.29h.29v.29Zm-.24-.05h.19v-.19h-.19v.19Zm-6.98-1.15h-.29v-.22s0,0,0,0c.02-.02.05-.04.08-.06h0s.2,0,.2,0v.29Zm-.24-.05h.19v-.19h-.13s-.04.03-.06.05v.14Z"/>
    </g>
    <g>
      <path class="cls-3" d="m13.47,7.95h.24v-.24h-.24v.24Zm0-1.2h.24v-.24h-.24v.24Zm0,.72h.24v-.24h-.24v.24Zm0-.24h.24v-.24h-.24v.24Zm.48,2.17v-.24h-.24v.24h.24Zm-.48-1.2h.24v-.24h-.24v.24Z"/>
      <path class="cls-5" d="m13.98,9.42h-.29v-.29h.29v.29Zm-.24-.05h.19v-.19h-.19v.19Zm0-1.15h-.29v-.53h.29v.53Zm-.24-.05h.19v-.19h-.19v.19Zm0-.24h.19v-.19h-.19v.19Zm.24-.43h-.29v-.53h.29v.53Zm-.24-.05h.19v-.19h-.19v.19Zm0-.24h.19v-.19h-.19v.19Zm.24-.43h-.29v-.29h.29v.29Zm-.24-.05h.19v-.19h-.19v.19Z"/>
    </g>
    <g>
      <path class="cls-3" d="m13.47,9.15h.24v-.24h-.24v.24Z"/>
      <path class="cls-5" d="m13.74,9.18h-.29v-.29h.29v.29Zm-.24-.05h.19v-.19h-.19v.19Z"/>
    </g>
    <g>
      <path class="cls-3" d="m13.47,9.39h.24v-.24h-.24v.24Zm0-.72h.24v-.24h-.24v.24Zm0,.24h.24v-.24h-.24v.24Z"/>
      <path class="cls-5" d="m13.74,9.42h-.29v-.29h.29v.29Zm-.24-.05h.19v-.19h-.19v.19Zm.24-.43h-.29v-.53h.29v.53Zm-.24-.05h.19v-.19h-.19v.19Zm0-.24h.19v-.19h-.19v.19Z"/>
    </g>
    <g>
      <path class="cls-3" d="m13.47,8.43h.24v-.24h-.24v.24Zm-1.44-2.65v-.24h-.24v.24h.24Z"/>
      <path class="cls-5" d="m13.74,8.46h-.29v-.29h.29v.29Zm-.24-.05h.19v-.19h-.19v.19Zm-1.44-2.6h-.29v-.29h.29v.29Zm-.24-.05h.19v-.19h-.19v.19Z"/>
    </g>
    <g>
      <path class="cls-4" d="m9.38,11.08h-.24v.24h.24v-.24Zm4.81,1.75s.03-.05.05-.07h-.05v.07Zm-2.17-.79v.24h.24v-.24h-.24Z"/>
      <path class="cls-5" d="m14.17,12.92v-.18h.12l-.03.04s-.03.04-.04.06l-.06.08Zm-1.87-.61h-.29v-.29h.29v.29Zm-.24-.05h.19v-.19h-.19v.19Zm-2.65-.91h-.29v-.29h.29v.29Zm-.24-.05h.19v-.19h-.19v.19Z"/>
    </g>
    <path class="cls-4" d="m13.71,13.01h-1.2v-.48h.72v-.24h-.96v.96h-.24v-.24h-.24v-.48h-.24v-.24h-.24v-.48h-.24v-.24h-.24v-.24h-.24v-.24h-.24v-.24h-.24v.48h.24v.24h.24v.24h.24v.24h.24v.24h-.24v.48h-.24v.24h-.72v-.48h.48v.24h.24v-.48h-.24v-.24h-.24v-.24h-.24v-.24h-.24v-.24h-.24v.24h-.24v-.24h-.72v.24h-.24v.24h-.48v.72h-.24v.24h-.72v.24h-.48v-.48h-.24v-.24h-.24v-1.44h.24v-.24h.96v.24h.48v-.24h.24v-.24h-.24v-.48h-.24v-.48h.24v.24h.24v-.24h.96v-.24h-1.44v-.24h.24v-.48h-.24v.24h-.72v-.48h.24v-.48h.24v-.24h.48v.96h.24v-1.44h.24v-.24h.48v.24h-.24v.24h.24v.24h-.24v.24h.24v.72h.24v.72h.24v-.48h.24v-.24h.24v-.72h.24v.24h.24v-.24h.24v-.48h-.48v.24h-.24v-.24h-.24v-.96h.24v-.24h.48v-.24h.24v-.48h.24v-.48h.24v-.24h.24v-.13c-.16-.03-.32-.06-.48-.08-.15-.02-.31-.03-.46-.03h-.29c-.15,0-.3.01-.45.03-.16.02-.32.04-.48.07-.16.03-.32.07-.48.12-.02,0-.03,0-.05.02-.06.02-.13.04-.19.06-.15.05-.3.11-.44.18-.01,0-.03.01-.04.02-.15.07-.29.14-.43.22h.19v.48h.24v.24h-.24v.24h-1.41s-.02.03-.04.04c-.08.09-.16.18-.24.28-.04.05-.09.11-.13.17-.06.08-.12.16-.17.24-.05.08-.1.16-.15.24,0,.02-.02.03-.03.05-.08.14-.16.28-.23.43,0,.01-.01.02-.02.03-.09.2-.17.41-.24.63,0,.02-.01.04-.02.06-.02.08-.05.16-.07.24-.04.16-.07.32-.1.48-.02.16-.04.32-.05.48v.05c-.01.2-.01.41,0,.61,0,.1.01.2.02.29,0,.08.02.16.03.24.03.16.06.32.1.48.02.08.04.16.07.24,0,.02.01.04.02.07.02.06.04.12.06.18.05.15.11.3.18.45,0,.01,0,.02.01.03.07.15.14.29.23.43,0,.02.02.03.03.05.1.17.21.33.32.48.12.15.24.3.37.44.01.01.02.03.04.04.07.07.13.14.2.2.01.01.03.02.04.04.07.06.13.12.2.18.03.02.05.04.08.06.05.04.11.09.16.13.05.04.1.08.16.11.03.02.06.04.09.06.08.05.16.1.24.15.02.01.04.02.05.03.14.08.28.15.43.22l.04.02c.21.09.42.17.63.24.02,0,.04.01.05.02.08.02.16.05.24.07.16.04.32.07.48.1.22.03.45.05.67.06h.33c.23,0,.46-.03.68-.06.24-.04.49-.09.72-.17h0s.04-.01.04-.01c.21-.07.43-.15.63-.24.02,0,.03-.02.05-.02.14-.07.28-.14.42-.22.02-.01.04-.03.07-.04.08-.05.16-.1.24-.15.02-.02.05-.03.07-.05.06-.04.11-.08.17-.12.08-.06.16-.13.24-.19.06-.05.13-.11.19-.17.02-.02.03-.03.05-.05.07-.06.13-.13.19-.19.02-.02.03-.04.05-.05.06-.06.11-.12.17-.19.07-.08.13-.16.19-.24h-.12c-.08,0-.16,0-.24,0h0Zm-6.02-6.74v-.24h.24v.48h-.24v-.24Zm1.69,5.54v.72h-.24v-.72h.24Zm.96,1.69h-.24v-.24h.24v.24Zm2.89,0h-.48v-.24h.48v.24Z"/>
    <g>
      <path class="cls-4" d="m14.92,11.08v-.24h-.24v1.14c.03-.06.05-.12.08-.18.03-.08.06-.16.09-.24.03-.07.05-.14.07-.22v-.02h0c.02-.08.05-.16.07-.24h-.07Zm-.96-.72v-.24h-.48v.24h.48Zm-1.44,1.2v-.24h1.44v-.48h-.24v-.24h-.48v.24h-.48v-.24h-.48v.24h-.24v.72h.48Zm-1.2-6.99c-.08-.02-.16-.05-.24-.07v.08h.24Zm-1.44,3.86h1.2v.24h.24v-1.2h.48v-.48h-.24v-.48h-.24v-.48h.24v-.48h.24v-.48h-.24v.24h-.24v.48h-.24v1.44h-.24v.72h-.24v.24h-.48v-.24h-.24v.48h0Z"/>
      <path class="cls-5" d="m14.65,12.1v-1.29h.29v.24h.08v.03c-.03.08-.05.16-.07.24v.02h0s0,0,0,0c-.02.07-.05.15-.07.22-.03.08-.06.16-.09.24-.03.07-.05.13-.08.18l-.05.11Zm.05-1.24v1s.02-.04.03-.07c.03-.08.06-.16.09-.24.02-.07.05-.14.07-.21v-.05h.01c.02-.06.04-.13.05-.19h-.07v-.24h-.19Zm-2.17.72h-.53v-.77h.24v-.24h.53v.24h.43v-.24h.53v.24h.24v.53h-1.44v.24Zm-.48-.05h.43v-.24h1.44v-.43h-.24v-.24h-.43v.24h-.53v-.24h-.43v.24h-.24v.67Zm1.93-1.15h-.53v-.29h.53v.29Zm-.48-.05h.43v-.19h-.43v.19Zm-2.17-1.63h-.29v-.24h-1.2v-.53h.29v.24h.43v-.24h.24v-.72h.24v-1.44h.24v-.48h.24v-.24h.29v.53h-.24v.48h-.24v.43h.24v.48h.24v.53h-.48v1.2Zm-.24-.05h.19v-1.2h.48v-.43h-.24v-.48h-.24v-.53h.24v-.48h.24v-.43h-.19v.24h-.24v.48h-.24v1.44h-.24v.72h-.24v.24h-.53v-.24h-.19v.43h1.2v.24Zm.24-4.04h-.29v-.14h.03c.08.03.16.05.24.08h.02v.06Zm-.24-.05h.07s-.05-.01-.07-.02v.02Z"/>
    </g>
    <g>
      <path class="cls-3" d="m11.79,5.78v-.24h-.24v.24h.24Zm-.96,0v-.24h-.24v.24h.24Zm1.44,0v-.24h-.24v.24h.24Zm-1.2,0v-.24h-.24v.24h.24Z"/>
      <path class="cls-5" d="m12.29,5.81h-.29v-.29h.29v.29Zm-.24-.05h.19v-.19h-.19v.19Zm-.24.05h-.29v-.29h.29v.29Zm-.24-.05h.19v-.19h-.19v.19Zm-.48.05h-.53v-.29h.53v.29Zm-.24-.05h.19v-.19h-.19v.19Zm-.24,0h.19v-.19h-.19v.19Z"/>
    </g>
    <g>
      <path class="cls-3" d="m11.3,5.78v-.24h-.24v.24h.24Zm1.93,0v-.17s-.06-.05-.09-.07h-.15v.24h.24,0Zm.24.24v.24h.24v-.19s-.03-.04-.05-.05h-.19,0Z"/>
      <path class="cls-5" d="m13.74,6.29h-.29v-.29h.23s0,0,0,0c.01.01.03.03.04.04l.02.02v.22Zm-.24-.05h.19v-.15h0s-.02-.03-.03-.04h-.15v.19Zm-.24-.43h-.29v-.29h.19s.06.06.09.08h0v.21Zm-.24-.05h.19v-.13s-.05-.04-.07-.06h-.12v.19Zm-1.69.05h-.29v-.29h.29v.29Zm-.24-.05h.19v-.19h-.19v.19Z"/>
    </g>
    <g>
      <path class="cls-3" d="m13.47,6.51h.24v-.24h-.24v.24Zm-.96-.72v-.24h-.24v.24h.24Zm.48,0v-.24h-.24v.24h.24Z"/>
      <path class="cls-5" d="m13.74,6.53h-.29v-.29h.29v.29Zm-.24-.05h.19v-.19h-.19v.19Zm-.48-.67h-.29v-.29h.29v.29Zm-.24-.05h.19v-.19h-.19v.19Zm-.24.05h-.29v-.29h.29v.29Zm-.24-.05h.19v-.19h-.19v.19Z"/>
    </g>
    <g>
      <path class="cls-3" d="m12.75,5.78v-.24h-.24v.24h.24Z"/>
      <path class="cls-5" d="m12.77,5.81h-.29v-.29h.29v.29Zm-.24-.05h.19v-.19h-.19v.19Z"/>
    </g>
    <path class="cls-3" d="m3.96,3.73l.47-.49.95.91c.09.09.17.19.23.3.06.11.09.23.09.35,0,.12-.02.23-.06.32-.06.13-.15.26-.28.4-.08.08-.17.16-.26.24-.1.08-.19.14-.28.17s-.19.04-.3.04c-.11,0-.2-.03-.28-.07-.13-.07-.24-.14-.31-.21l-.95-.91.47-.49.98.93c.09.08.18.12.27.12.1,0,.18-.05.27-.13.08-.09.12-.17.12-.27s-.05-.18-.14-.27l-.98-.93h0Zm2.83-1.83l1.77-.46.12.46-1.11.29.09.34,1.03-.27.11.44-1.03.27.11.42,1.14-.3.13.48-1.8.47-.56-2.14h0Zm4.38-.41l1.63.44-.12.46-.97-.26-.1.37.83.22-.12.43-.83-.22-.24.87-.66-.18.58-2.13Zm3.41,3.22l.74-.38-.4.73-.34-.35Zm-.09,1.12l.5.51,1.01-2.13-.52-.53-2.16.94.49.5.34-.18.54.56-.19.33Z"/>
  </g>
</svg>