<?xml version="1.0" encoding="UTF-8"?>
<svg id="Layer_2" data-name="Layer 2" xmlns="http://www.w3.org/2000/svg" xmlns:xlink="http://www.w3.org/1999/xlink" viewBox="0 0 33.56 19.58">
  <defs>
    <style>
      .cls-1 {
        clip-path: url(#clippath);
      }

      .cls-2 {
        fill: none;
      }

      .cls-2, .cls-3, .cls-4, .cls-5, .cls-6, .cls-7, .cls-8, .cls-9 {
        stroke-width: 0px;
      }

      .cls-10 {
        clip-path: url(#clippath-1);
      }

      .cls-11 {
        clip-path: url(#clippath-4);
      }

      .cls-12 {
        clip-path: url(#clippath-3);
      }

      .cls-13 {
        clip-path: url(#clippath-2);
      }

      .cls-14 {
        clip-path: url(#clippath-7);
      }

      .cls-15 {
        clip-path: url(#clippath-8);
      }

      .cls-16 {
        clip-path: url(#clippath-6);
      }

      .cls-17 {
        clip-path: url(#clippath-5);
      }

      .cls-18 {
        clip-path: url(#clippath-9);
      }

      .cls-19 {
        clip-path: url(#clippath-20);
      }

      .cls-20 {
        clip-path: url(#clippath-21);
      }

      .cls-21 {
        clip-path: url(#clippath-24);
      }

      .cls-22 {
        clip-path: url(#clippath-23);
      }

      .cls-23 {
        clip-path: url(#clippath-22);
      }

      .cls-24 {
        clip-path: url(#clippath-25);
      }

      .cls-25 {
        clip-path: url(#clippath-27);
      }

      .cls-26 {
        clip-path: url(#clippath-28);
      }

      .cls-27 {
        clip-path: url(#clippath-26);
      }

      .cls-28 {
        clip-path: url(#clippath-29);
      }

      .cls-29 {
        clip-path: url(#clippath-34);
      }

      .cls-30 {
        clip-path: url(#clippath-33);
      }

      .cls-31 {
        clip-path: url(#clippath-32);
      }

      .cls-32 {
        clip-path: url(#clippath-30);
      }

      .cls-33 {
        clip-path: url(#clippath-31);
      }

      .cls-34 {
        clip-path: url(#clippath-14);
      }

      .cls-35 {
        clip-path: url(#clippath-13);
      }

      .cls-36 {
        clip-path: url(#clippath-12);
      }

      .cls-37 {
        clip-path: url(#clippath-10);
      }

      .cls-38 {
        clip-path: url(#clippath-15);
      }

      .cls-39 {
        clip-path: url(#clippath-17);
      }

      .cls-40 {
        clip-path: url(#clippath-16);
      }

      .cls-41 {
        clip-path: url(#clippath-19);
      }

      .cls-42 {
        clip-path: url(#clippath-11);
      }

      .cls-43 {
        clip-path: url(#clippath-18);
      }

      .cls-4 {
        fill: #f8e82a;
      }

      .cls-5 {
        fill: #9ba49a;
      }

      .cls-6 {
        fill: #cc2920;
      }

      .cls-7 {
        fill: #cc3220;
      }

      .cls-8 {
        fill: #fffcff;
      }

      .cls-9 {
        fill: #fff;
      }
    </style>
    <clipPath id="clippath">
      <rect class="cls-2" width="33.56" height="19.58"/>
    </clipPath>
    <clipPath id="clippath-1">
      <rect class="cls-2" width="33.56" height="19.58"/>
    </clipPath>
    <clipPath id="clippath-2">
      <rect class="cls-2" width="33.56" height="19.58"/>
    </clipPath>
    <clipPath id="clippath-3">
      <rect class="cls-2" width="33.56" height="19.58"/>
    </clipPath>
    <clipPath id="clippath-4">
      <rect class="cls-2" width="33.56" height="19.58"/>
    </clipPath>
    <clipPath id="clippath-5">
      <rect class="cls-2" width="33.56" height="19.58"/>
    </clipPath>
    <clipPath id="clippath-6">
      <rect class="cls-2" width="33.56" height="19.58"/>
    </clipPath>
    <clipPath id="clippath-7">
      <rect class="cls-2" width="33.56" height="19.58"/>
    </clipPath>
    <clipPath id="clippath-8">
      <rect class="cls-2" width="33.56" height="19.58"/>
    </clipPath>
    <clipPath id="clippath-9">
      <rect class="cls-2" width="33.56" height="19.58"/>
    </clipPath>
    <clipPath id="clippath-10">
      <rect class="cls-2" width="33.56" height="19.58"/>
    </clipPath>
    <clipPath id="clippath-11">
      <rect class="cls-2" width="33.56" height="19.58"/>
    </clipPath>
    <clipPath id="clippath-12">
      <rect class="cls-2" width="33.56" height="19.58"/>
    </clipPath>
    <clipPath id="clippath-13">
      <rect class="cls-2" width="33.56" height="19.58"/>
    </clipPath>
    <clipPath id="clippath-14">
      <rect class="cls-2" width="33.56" height="19.58"/>
    </clipPath>
    <clipPath id="clippath-15">
      <rect class="cls-2" width="33.56" height="19.58"/>
    </clipPath>
    <clipPath id="clippath-16">
      <rect class="cls-2" width="33.56" height="19.58"/>
    </clipPath>
    <clipPath id="clippath-17">
      <rect class="cls-2" width="33.56" height="19.58"/>
    </clipPath>
    <clipPath id="clippath-18">
      <rect class="cls-2" width="33.56" height="19.58"/>
    </clipPath>
    <clipPath id="clippath-19">
      <rect class="cls-2" width="33.56" height="19.58"/>
    </clipPath>
    <clipPath id="clippath-20">
      <rect class="cls-2" width="33.56" height="19.58"/>
    </clipPath>
    <clipPath id="clippath-21">
      <rect class="cls-2" width="33.56" height="19.58"/>
    </clipPath>
    <clipPath id="clippath-22">
      <rect class="cls-2" width="33.56" height="19.58"/>
    </clipPath>
    <clipPath id="clippath-23">
      <rect class="cls-2" width="33.56" height="19.58"/>
    </clipPath>
    <clipPath id="clippath-24">
      <rect class="cls-2" width="33.56" height="19.58"/>
    </clipPath>
    <clipPath id="clippath-25">
      <rect class="cls-2" width="33.56" height="19.58"/>
    </clipPath>
    <clipPath id="clippath-26">
      <rect class="cls-2" width="33.56" height="19.58"/>
    </clipPath>
    <clipPath id="clippath-27">
      <rect class="cls-2" width="33.56" height="19.58"/>
    </clipPath>
    <clipPath id="clippath-28">
      <rect class="cls-2" width="33.56" height="19.58"/>
    </clipPath>
    <clipPath id="clippath-29">
      <rect class="cls-2" width="33.56" height="19.58"/>
    </clipPath>
    <clipPath id="clippath-30">
      <rect class="cls-2" width="33.56" height="19.58"/>
    </clipPath>
    <clipPath id="clippath-31">
      <rect class="cls-2" width="33.56" height="19.58"/>
    </clipPath>
    <clipPath id="clippath-32">
      <rect class="cls-2" width="33.56" height="19.58"/>
    </clipPath>
    <clipPath id="clippath-33">
      <rect class="cls-2" width="33.56" height="19.58"/>
    </clipPath>
    <clipPath id="clippath-34">
      <rect class="cls-2" width="33.56" height="19.58"/>
    </clipPath>
  </defs>
  <g id="Layer_1-2" data-name="Layer 1">
    <g id="UGANDA">
      <g>
        <g class="cls-1">
          <rect class="cls-3" width="33.56" height="19.58"/>
        </g>
        <g class="cls-10">
          <rect class="cls-4" y="3.27" width="33.56" height="3.26"/>
        </g>
        <g class="cls-13">
          <rect class="cls-7" y="6.52" width="33.56" height="3.27"/>
        </g>
        <g class="cls-12">
          <rect class="cls-4" y="13.05" width="33.56" height="3.26"/>
        </g>
        <g class="cls-11">
          <rect class="cls-7" y="16.32" width="33.56" height="3.26"/>
        </g>
        <g class="cls-17">
          <g>
            <g class="cls-16">
              <path class="cls-8" d="m19.83,9.79c0,1.69-1.37,3.05-3.05,3.05s-3.04-1.36-3.04-3.05,1.36-3.05,3.04-3.05,3.05,1.37,3.05,3.05h0Z"/>
            </g>
            <g class="cls-14">
              <path class="cls-3" d="m16.78,12.85c-1.69,0-3.07-1.37-3.07-3.06s1.38-3.07,3.07-3.07,3.06,1.38,3.06,3.07c0,1.69-1.37,3.06-3.06,3.06h0Zm0-6.1c-1.67,0-3.03,1.36-3.03,3.03s1.36,3.03,3.03,3.03,3.03-1.36,3.03-3.03-1.36-3.03-3.03-3.03h0Z"/>
            </g>
            <g class="cls-15">
              <path class="cls-6" d="m16.24,7.45l-.2-.36c.07-.08.2-.14.41-.14,0,.01-.02.4-.02.4l-.19.1Z"/>
            </g>
            <g class="cls-18">
              <path class="cls-3" d="m16.23,7.47l-.21-.38c.1-.11.24-.16.43-.16.02.03,0,.42,0,.42l-.22.12h0Zm.2-.52c-.16.02-.3.06-.38.15l.19.33.18-.09s.01-.38.01-.39h0Z"/>
            </g>
            <g class="cls-37">
              <path class="cls-4" d="m16.43,7.36l.03-.41s.41-.02.64.24c0,0-.22.32-.22.32l-.44-.15Z"/>
            </g>
            <g class="cls-42">
              <path class="cls-3" d="m16.88,7.53l-.45-.16.02-.43h.04c.09,0,.42.02.62.25t-.22.33h0Zm-.39-.56l-.04.39.42.13c.03-.05.2-.29.21-.3-.19-.2-.5-.22-.59-.22h0Z"/>
            </g>
            <g class="cls-36">
              <path class="cls-6" d="m16.88,7.51l.2-.32c.14.15.19.24.21.4,0,0-.32.08-.32.07,0,0-.09-.15-.09-.15h0Z"/>
            </g>
            <g class="cls-35">
              <path class="cls-3" d="m16.97,7.68h-.01s-.08-.16-.09-.16l.2-.33c.16.15.22.25.24.4-.01.03-.33.09-.34.09h0Zm-.08-.17s.07.1.09.14c.05-.01.29-.07.3-.07-.03-.13-.08-.23-.21-.37l-.18.3h0Z"/>
            </g>
            <g class="cls-34">
              <path class="cls-3" d="m16.34,12.66s.38-.43,1.11-.34c-.11-.18-.47-.16-.47-.16,0,0-.11-.84-.03-.88.09-.04.46,0,.46,0,.05,0,.13-.14.07-.22-.07-.09-.26-.41-.18-.47.08-.07.52.03.52.03l-1.23-1.57s-.13-.59.12-.88c.3-.25.27-.52.26-.52-.04-.27-.46-.47-.74-.22-.17.2-.05.35-.05.35,0,0-.44.12-.46.2-.02.07.5-.02.5-.02l-.05.35s-.99.91-.23,1.69c0,0,.03-.03.03-.03,0,0,.26.33.55.4.26.27.24.23.24.23,0,0,.05.43,0,.51-.07-.02-.74-.04-.84,0-.09.03-.44.01-.35.58.07-.16.13-.29.13-.29,0,0-.01.2.07.28-.01-.22.08-.36.08-.36,0,0,.02.23.07.27.05.04.05-.38.34-.34.28.03.5.03.5.03,0,0,.1.82.06.89-.21-.05-.7.02-.74.14.29-.02.43.02.43.02,0,0-.23.21-.16.33h0Z"/>
            </g>
            <g class="cls-38">
              <path class="cls-3" d="m16.34,12.69v-.02c-.08-.12.09-.28.14-.34-.03,0-.11,0-.25,0-.04,0-.1,0-.16,0,.02-.17.55-.22.74-.18,0-.04-.04-.54-.08-.86-.03.02-.23,0-.48-.02h0c-.19,0-.24.16-.28.26-.02.05-.03.08-.05.08-.06-.03-.08-.18-.09-.25-.01.05-.06.18-.05.33-.11-.06-.11-.27-.1-.28l-.1.29c-.11-.52.16-.57.29-.59.02,0,.03,0,.04-.01.05-.01.2-.02.31-.02.22,0,.5.01.54.03.01-.05,0-.34-.02-.48h0s-.05-.04-.23-.23c-.26-.07-.51-.36-.55-.4l.02-.02s.27.33.54.4c.2.21.24.23.24.23.02.08.06.45.01.53-.09,0-.77-.03-.85,0-.02,0-.03,0-.05,0-.13.03-.37.07-.3.55l.1-.29s.02.21.1.27c-.04-.2.05-.35.05-.36.04.1.06.25.1.27,0,0,0-.04.02-.07.03-.11.09-.28.28-.28.34.04.53.02.53.02.03.1.11.84.08.92-.06,0-.12,0-.18,0-.24,0-.53.07-.55.15.04-.02.09-.02.14-.02.19,0,.27.02.28.02-.05.08-.18.23-.16.32.08-.09.46-.41,1.11-.33-.11-.12-.36-.12-.44-.12l-.05-.02c-.03-.2-.1-.86-.02-.9.07-.04.46,0,.46,0,.01,0,.04-.02.06-.06,0-.02.03-.08,0-.13-.04-.05-.21-.32-.2-.44,0-.02,0-.03.02-.05.08-.05.52.03.53.03l-1.24-1.55s-.12-.61.13-.9c.28-.22.27-.47.26-.5-.04-.28-.47-.43-.71-.22-.15.19-.06.33-.05.34-.22.08-.44.16-.45.21h0s.01,0,.08,0c.14,0,.39-.04.4-.04l-.03.37s-.5.47-.52,1c-.01.24.08.47.28.67h0s0,.02,0,.03c-.22-.21-.32-.45-.31-.7.01-.55.52-1.01.52-1.02l.04-.34s-.24.06-.38.06c-.07,0-.1-.01-.11-.02.01-.1.37-.21.46-.23-.03-.02-.1-.17.05-.35.26-.24.72-.07.77.23.02.04.03.29-.26.53-.24.27-.12.85-.12.86l1.22,1.56s-.26-.03-.42-.03c-.07,0-.09.01-.1.02-.02.12.12.36.18.44.04.05.04.1.01.16-.02.04-.05.08-.09.08,0,0-.18-.02-.31-.02-.09,0-.12.01-.14.02-.05.02-.02.47.03.87.12-.02.37,0,.47.15-.09.02-.15.02-.22.02-.59,0-.9.34-.9.34v.02h-.01Z"/>
            </g>
            <g class="cls-40">
              <path class="cls-5" d="m16.46,8.21s-.72.8-.41,1.4c.01-.09,0-.14.02-.14-.02,0,.09.08.08.06,0-.04-.04-.14-.04-.14.04,0,.07.02.1.02-.02-.03-.04-.07-.06-.1.05,0,.09,0,.14.01,0,0-.05-.13-.03-.13.02,0,.11,0,.11,0-.21-.37-.01-.67.08-1h0Z"/>
            </g>
            <g class="cls-39">
              <path class="cls-5" d="m16.06,9.67l-.03-.04c-.31-.61.41-1.41.41-1.42.01.08-.01.15-.04.22-.09.26-.18.5-.01.79-.02.02-.11.02-.13.02.01,0,.03.06.05.11h-.16s.07.09.07.09h-.09s.03.08.02.12c-.04.02-.11-.05-.11-.05.02.05.02.08,0,.12v.05h0Zm.39-1.45c-.05.1-.63.79-.4,1.35,0-.02,0-.04,0-.05l.02-.05s.08.05.09.06c-.02-.02-.04-.09-.05-.12v-.03s.11.03.11.03l-.08-.08h.16c-.07-.11-.06-.12-.05-.13.03,0,.13,0,.13,0-.18-.28-.09-.53,0-.79.02-.06.04-.12.06-.19h0Z"/>
            </g>
            <g class="cls-43">
              <path class="cls-5" d="m16.71,7.53s.04.28-.11.35c-.03.02-.12.05-.1.1.02.08.06.06.11.05.16-.02.34-.36.1-.5h0Z"/>
            </g>
            <g class="cls-41">
              <path class="cls-5" d="m16.55,8.07s-.06-.03-.07-.07c-.01-.05.05-.09.09-.11.16-.08.13-.34.13-.35.12.04.17.14.14.26-.02.12-.12.25-.22.26-.03,0-.05.01-.06.01h0Zm.16-.52s.04.27-.1.35c-.07.03-.1.06-.1.09.01.04.03.05.04.05h0s.03,0,.05,0c.09-.02.18-.13.2-.24.01-.06.02-.17-.09-.23h0Z"/>
            </g>
            <g class="cls-19">
              <path class="cls-9" d="m16.45,7.77s-.03.05-.06.05c-.03,0-.06-.02-.06-.05,0-.03.03-.06.06-.06.03,0,.06.03.06.06h0Z"/>
            </g>
            <g class="cls-20">
              <path class="cls-6" d="m16.21,8s-.23.24-.04.32c.2-.06.15-.1.19-.14,0-.09-.1-.12-.15-.17h0Z"/>
            </g>
            <g class="cls-23">
              <path class="cls-3" d="m16.17,8.33h0c-.05-.02-.09-.06-.09-.1-.01-.1.1-.22.13-.24.04.02.06.03.08.05.05.03.1.07.1.14l-.02.04s-.04.07-.18.11h0Zm.03-.32s-.11.14-.09.22c0,.03.02.05.07.07.14-.04.15-.06.16-.09,0-.01,0-.03.02-.04,0-.05-.04-.07-.09-.11-.02-.02-.05-.03-.06-.05h0Z"/>
            </g>
            <g class="cls-22">
              <path class="cls-5" d="m16.65,9.96s-.05.21,0,.34c.17-.07.25-.05.31-.01-.14-.11-.2-.16-.32-.32h0Z"/>
            </g>
            <g class="cls-21">
              <path class="cls-5" d="m16.65,10.33v-.02c-.07-.12-.03-.28-.02-.34t0,0c.02.05-.02.2.03.3.12-.05.21-.05.28-.02-.13-.07-.19-.13-.31-.28.15.14.21.19.35.3-.05,0-.09,0-.13,0-.05,0-.11.02-.19.05h-.01Z"/>
            </g>
            <g class="cls-24">
              <path class="cls-9" d="m16.95,10.75l.02.39s.13.02.2,0c.06-.03,0-.27-.21-.39h0Z"/>
            </g>
            <g class="cls-27">
              <path class="cls-9" d="m17.08,11.17c-.06,0-.12-.01-.12-.01l-.03-.41c.19.09.27.26.26.35,0,.03-.02.05-.03.05-.02.01-.05.02-.09.02h0Zm-.08-.03s.12,0,.16,0c.02-.1-.06-.27-.21-.36l.04.37h.02Z"/>
            </g>
            <g class="cls-25">
              <path class="cls-5" d="m17.93,10.8s-.25-.6-.89-.76c-.64-.15-.55-.83-.5-.87.03-.06.05-.15.23-.06.18.08,1.03.51,1.15.53.12.02.02,1.18.01,1.16h0Z"/>
            </g>
            <g class="cls-26">
              <path class="cls-3" d="m17.93,10.82h-.02s-.27-.61-.88-.76c-.36-.09-.48-.33-.53-.53-.04-.18-.02-.35.02-.38.03-.07.08-.14.25-.06l.21.1c.32.16.85.42.93.43.11.02.07.7.04.99q-.02.2-.04.2h0Zm-1.29-1.73c-.05,0-.07.04-.09.07-.03.03-.06.2-.02.39.04.18.16.4.5.48.54.13.8.57.88.72.03-.2.08-.97,0-1.08-.1-.03-.52-.23-.95-.45l-.21-.1c-.05-.03-.09-.04-.12-.04h0Z"/>
            </g>
            <g class="cls-28">
              <path class="cls-6" d="m17.32,10.04s.85.51.59.95c.25-.16.17-.45.17-.45,0,0,.2.53-.29.78.05.04.09.03.09.03l-.08.09s-.03.06.29-.1c-.09.07-.1.13-.1.13,0,0,.02.07.24-.12-.17.2-.21.29-.21.28.47-.04,1.49-1.56-.32-2.02.1.1.08.09.08.09l-.46.34Z"/>
            </g>
            <g class="cls-32">
              <path class="cls-3" d="m17.99,11.65v-.03s.03,0,.03,0h-.01c.03-.06.07-.12.12-.19-.04.04-.08.05-.11.05h-.01l-.03-.02s0-.07.1-.14c-.14.1-.23.14-.27.14l-.03-.04.07-.07s-.04,0-.07-.02c.3-.18.33-.45.32-.62-.01.09-.05.21-.18.29.08-.19.06-.48-.58-.91t-.04-.04l.46-.36-.09-.06c.98.21,1.08.74,1.06,1.04-.04.5-.47.96-.72.98h-.03Zm.23-.31c-.06.11-.13.21-.17.27.24-.05.63-.48.66-.95.03-.49-.33-.86-1.02-1.03q.11.07.1.08l-.45.34s.01,0,.02.01c.53.37.72.68.56.94.21-.17.14-.45.14-.45h0s.01.02.02.03c.05.11.14.54-.29.77.04,0,.06,0,.07,0h0s0,0,0,0l-.06.11s.08-.03.28-.12c-.07.1-.08.14-.08.14.03,0,.08-.03.21-.13h0Z"/>
            </g>
            <g class="cls-33">
              <path class="cls-9" d="m17.36,9.89c.12.09.16.11.17.15-.1-.02-.2-.01-.2-.01,0,0-.23-.23-.28-.24-.03,0-.21-.11-.21-.11-.09-.05-.17-.36.16-.27.34.16.39.18.39.18.14.05.27.09.41.13.08.09.16.17.23.27,0,0-.42-.21-.47-.21.11.09.18.22.18.22-.13-.04-.25-.07-.39-.09h0Z"/>
            </g>
            <g class="cls-31">
              <path class="cls-3" d="m17.56,10.07h-.03c-.07-.02-.12-.03-.16-.03h-.05c-.09-.09-.24-.23-.27-.24h0s-.17-.09-.22-.12c-.05-.02-.1-.13-.08-.21.01-.05.08-.13.26-.09.33.16.39.18.39.18l.41.12.24.27c-.18-.05-.45-.18-.48-.19.12.07.19.2.19.2l.02.03-.06-.02c-.12-.03-.22-.06-.35-.08v-.03c.12.02.23.05.35.09-.02-.03-.08-.12-.16-.18.06-.03.45.16.49.18l-.14-.11-.12-.13-.39-.13s-.06-.02-.4-.17c-.11-.03-.19-.02-.21.05-.01.07.03.16.07.18.08.06.18.12.2.12.05.01.26.22.28.24.05,0,.1,0,.16,0-.02-.02-.06-.05-.13-.1h0c.13.05.17.08.18.12v.03h.01Z"/>
            </g>
            <g class="cls-30">
              <path class="cls-3" d="m15.72,8.03s.4-.1.45-.08l-.45.08Z"/>
            </g>
            <g class="cls-29">
              <path class="cls-9" d="m15.73,8.04v-.03c.06-.02.4-.1.45-.09-.04.02-.28.08-.45.11h0Z"/>
            </g>
          </g>
        </g>
      </g>
    </g>
  </g>
</svg>