<?xml version="1.0" encoding="UTF-8"?>
<svg id="Layer_2" data-name="Layer 2" xmlns="http://www.w3.org/2000/svg" xmlns:xlink="http://www.w3.org/1999/xlink" viewBox="0 0 380.88 554.88">
  <defs>
    <style>
      .cls-1 {
        clip-path: url(#clippath);
      }

      .cls-2 {
        fill: none;
      }

      .cls-2, .cls-3, .cls-4, .cls-5, .cls-6, .cls-7, .cls-8 {
        stroke-width: 0px;
      }

      .cls-9 {
        font-size: 49.12px;
      }

      .cls-9, .cls-10 {
        fill: #231f20;
        font-family: f-0-0, 'f 0-0';
      }

      .cls-3 {
        fill: #00004c;
      }

      .cls-3, .cls-4, .cls-5, .cls-6, .cls-7, .cls-8 {
        fill-rule: evenodd;
      }

      .cls-4 {
        fill: #030514;
      }

      .cls-5 {
        fill: #c90104;
      }

      .cls-6 {
        fill: #fff;
      }

      .cls-7 {
        fill: #f3ee18;
      }

      .cls-10 {
        font-size: 49.5px;
      }
    </style>
    <clipPath id="clippath">
      <rect class="cls-2" width="380.88" height="554.88"/>
    </clipPath>
  </defs>
  <g id="Layer_1-2" data-name="Layer 1">
    <g>
      <text class="cls-10" transform="translate(53.68 329.54)"><tspan x="0" y="0">U</tspan></text>
      <text class="cls-10" transform="translate(298.85 324.63)"><tspan x="0" y="0">P</tspan></text>
      <text class="cls-9" transform="translate(182.17 473.6)"><tspan x="0" y="0">L</tspan></text>
      <path class="cls-8" d="m76.83,130.79l174.43,306.74-11.98,6.8L63.81,135.78c-3.06.21-5.91-.56-7.41-3.09-3.95-6.66,2.09-8.29,8.72-11.9,6.62-3.61,12.28-6.28,15.16.03,2.52,5.53.91,7.54-3.45,9.98h0Z"/>
      <path class="cls-4" d="m146.09,361.7h13.03c2.94,0,5.18.22,6.72.68,2.07.61,3.84,1.7,5.32,3.26,1.48,1.56,2.6,3.47,3.38,5.73.77,2.25,1.15,5.05,1.15,8.36,0,2.92-.36,5.42-1.09,7.53-.88,2.58-2.14,4.66-3.78,6.25-1.23,1.21-2.91,2.15-5.01,2.82-1.57.5-3.67.75-6.31.75h-13.41v-35.38Zm7.16,5.98v23.42h5.31c1.99,0,3.42-.12,4.3-.34,1.16-.29,2.11-.78,2.87-1.47.77-.69,1.38-1.83,1.86-3.41.48-1.58.72-3.75.72-6.48s-.24-4.82-.72-6.29c-.48-1.46-1.15-2.6-2.02-3.43-.86-.81-1.96-1.38-3.29-1.66-.99-.22-2.94-.34-5.84-.34h-3.2Zm28.52,29.4v-35.38h26.19v5.98h-19.02v7.85h17.69v5.98h-17.69v9.59h19.71v5.98h-26.88Z"/>
      <path class="cls-8" d="m182.98,251.76c-6.22,0-12.26.72-18.07,2.07-6.37,12.09-11.35,28.19-13.4,45.79-1.78,15.32-1.34,31.74,2.35,47.59.56-.04,1.12-.09,1.67-.15,3.02-.31,5.91-.82,8.62-1.62,5.31-1.59,10.79-2.96,16.45-3.44.74-.06,1.48-.11,2.23-.14-.64-21.37,1.66-39.92,6.2-54.68,4.37-14.2,10.86-24.96,18.86-31.43-7.83-2.59-16.2-3.99-24.9-3.99h0Zm-23.57,3.56c-12.43,3.86-23.55,10.69-32.52,19.67-2.4,2.39-4.63,4.94-6.71,7.62l.05.02c-7.73,17.22-2.79,39.32.9,55.83.61,2.75,1.19,5.34,1.66,7.64,7.72.71,15.45,1.28,23.05,1.35,1.25,0,2.49,0,3.72-.04-3.66-16.13-4.08-32.77-2.27-48.29,1.92-16.5,6.37-31.76,12.12-43.82h0Zm27.65,86.55c3.68.18,7.41.82,11.21,2.1,8.82,2.96,16.75,8.23,23.8,14.83,7.74,7.24,14.41,16.06,20.03,25.16,9.52-10.63,16.2-23.85,18.89-38.47-9.84-10.38-20.56-19.67-32.53-27.41-11.52-7.45-24.21-13.46-38.39-17.64-2.39,12.02-3.48,25.95-3.01,41.43h0Zm3.9-45.59c14.71,4.3,27.86,10.52,39.8,18.25,11.33,7.33,21.57,16.01,31.01,25.68.34-3,.52-6.04.52-9.13,0-16.44-5-31.71-13.57-44.38-6.5-4.06-14.1-7.38-22.23-10.18-8.03-2.77-16.55-5.03-25.02-7.02-3.31,5.21-6.14,11.56-8.41,18.92-.77,2.51-1.48,5.13-2.11,7.86h0Zm13.12-30.52c8.09,1.93,16.17,4.12,23.8,6.75,4.99,1.72,9.8,3.64,14.31,5.8-1.01-1.14-2.05-2.24-3.13-3.32-7.48-7.48-16.46-13.48-26.44-17.5-3.07,2.08-5.93,4.86-8.54,8.27h0Zm-62.61,132.94l3.73-.36c34.79-3.39,71.5-6.97,86.54-22.16-3.82-5.16-8-10.02-12.56-14.29-2.14-2-4.36-3.86-6.65-5.57-11.7,7.93-26.34,13.37-41.96,16.68-17.16,3.64-35.53,4.72-52.46,3.75,2.62,3.73,5.56,7.21,8.78,10.43,4.38,4.39,9.28,8.26,14.59,11.52h0Zm92.76-19.03c-16.05,15.48-51.79,19.29-86.2,22.65,10.54,5.18,22.4,8.09,34.94,8.09,21.91,0,41.74-8.88,56.09-23.23l.02-.02c-1.54-2.52-3.16-5.03-4.85-7.49h0Zm-115.87-33.98c-.43-2.03-.89-4.12-1.38-6.31-2.92-13.06-6.59-29.51-4.46-44.8-5.68,10.93-8.88,23.34-8.88,36.51,0,4.52.38,8.95,1.1,13.26,2.81.27,5.39.52,7.97.78,1.88.19,3.76.38,5.64.56h0Zm-12.76,3c1.92,8.47,5.19,16.43,9.58,23.62,17.44,1.28,36.65.32,54.5-3.46,14.5-3.07,28.09-8.01,39.08-15.12-3.75-2.39-7.69-4.34-11.84-5.74-5.43-1.82-10.77-2.2-15.99-1.75-5.3.45-10.51,1.76-15.58,3.27-2.96.88-6.11,1.45-9.42,1.78-3.23.33-6.62.43-10.12.42h0c-11.15-.12-22.4-1.25-33.5-2.36-2.29-.23-4.57-.46-6.7-.66h0Zm18.27-76.69c15.12-15.13,36.02-24.48,59.1-24.48s43.97,9.36,59.1,24.48c15.12,15.12,24.48,36.01,24.48,59.1s-9.35,43.97-24.48,59.09c-15.13,15.12-36.02,24.48-59.1,24.48s-43.97-9.36-59.1-24.48c-15.12-15.12-24.48-36.02-24.48-59.09s9.36-43.97,24.48-59.1h0Z"/>
      <path class="cls-7" d="m147.29,299.13c1.92-16.5,6.37-31.76,12.12-43.82-12.43,3.86-23.55,10.69-32.52,19.67-2.4,2.39-4.63,4.94-6.71,7.62l.05.02c-7.73,17.22-2.79,39.32.9,55.83.61,2.75,1.19,5.34,1.66,7.64,7.72.71,15.45,1.28,23.05,1.35,1.25,0,2.49,0,3.72-.04-3.66-16.13-4.08-32.77-2.27-48.29h0Z"/>
      <path class="cls-7" d="m117,339.37c-2.92-13.06-6.59-29.51-4.46-44.8-5.68,10.93-8.88,23.34-8.88,36.51,0,4.52.38,8.95,1.1,13.26,2.81.27,5.39.52,7.97.78l5.64.56c-.43-2.03-.89-4.12-1.38-6.31h0Z"/>
      <path class="cls-7" d="m151.51,299.62c-1.78,15.32-1.34,31.74,2.35,47.59.56-.04,1.12-.09,1.67-.15,3.02-.31,5.91-.82,8.62-1.62,5.31-1.59,10.79-2.96,16.45-3.44.74-.06,1.48-.11,2.23-.14-.64-21.37,1.66-39.92,6.2-54.68,4.37-14.2,10.86-24.96,18.86-31.43-7.83-2.59-16.2-3.99-24.9-3.99-6.22,0-12.26.72-18.07,2.07-6.37,12.09-11.35,28.19-13.4,45.79h0Z"/>
      <path class="cls-7" d="m190.07,300.44c-2.39,12.02-3.48,25.95-3.01,41.43,3.68.18,7.41.82,11.21,2.1,8.82,2.96,16.75,8.23,23.8,14.83,7.74,7.24,14.41,16.06,20.03,25.16,9.52-10.63,16.2-23.85,18.89-38.47-9.84-10.38-20.56-19.67-32.53-27.41-11.52-7.45-24.21-13.46-38.39-17.64h0Z"/>
      <path class="cls-7" d="m190.97,296.28c14.71,4.3,27.86,10.52,39.8,18.25,11.33,7.33,21.57,16.01,31.01,25.68.34-3,.52-6.04.52-9.13,0-16.44-5-31.71-13.57-44.38-6.5-4.06-14.1-7.38-22.23-10.18-8.03-2.77-16.55-5.03-25.02-7.02-3.31,5.21-6.14,11.56-8.41,18.92-.77,2.51-1.48,5.13-2.11,7.86h0Z"/>
      <path class="cls-7" d="m204.09,265.76c8.09,1.93,16.17,4.12,23.8,6.75,4.99,1.72,9.8,3.64,14.31,5.8-1.01-1.14-2.05-2.24-3.13-3.32-7.48-7.48-16.46-13.48-26.44-17.5-3.07,2.08-5.93,4.86-8.54,8.27h0Z"/>
      <path class="cls-7" d="m196.93,347.98c-5.43-1.82-10.77-2.2-15.99-1.75-5.3.45-10.51,1.76-15.58,3.27-2.96.88-6.11,1.45-9.42,1.78-3.23.33-6.62.43-10.12.42h0c-11.15-.12-22.4-1.25-33.5-2.36-2.29-.23-4.57-.46-6.7-.66,1.92,8.47,5.19,16.43,9.58,23.62,9.92.73,20.41.73,30.9-.09v-10.5h13.03c2.94,0,5.18.22,6.72.68,2.07.61,3.84,1.7,5.32,3.26.7.74,1.32,1.56,1.86,2.45,2.97-.69,5.89-1.47,8.75-2.33v-4.06h11.52c5.55-2.28,10.75-4.93,15.47-7.98-3.75-2.39-7.69-4.34-11.84-5.74h0Z"/>
      <path class="cls-7" d="m146.09,397.09v-20.62c-9.47.73-18.93.8-27.98.28,2.62,3.73,5.56,7.21,8.78,10.43,4.38,4.39,9.28,8.26,14.59,11.52l3.73-.36c4.16-.41,8.35-.81,12.52-1.24h-11.64Z"/>
      <path class="cls-7" d="m153.25,375.78v15.32h5.31c1.99,0,3.42-.12,4.3-.34,1.16-.29,2.11-.78,2.87-1.47.77-.69,1.38-1.83,1.86-3.41.48-1.58.72-3.75.72-6.48,0-2.46-.19-4.4-.59-5.84-4.76.93-9.61,1.66-14.48,2.21h0Z"/>
      <path class="cls-7" d="m174.6,387.26c-.88,2.58-2.14,4.66-3.78,6.25-1.13,1.1-2.62,1.98-4.48,2.64,5.23-.6,10.41-1.25,15.43-2v-23.97c-2.31.67-4.65,1.29-7.02,1.86.62,2.13.94,4.69.94,7.68s-.36,5.42-1.09,7.53h0Z"/>
      <path class="cls-7" d="m188.94,381.52v9.59h9.57c14.25-3.2,26.15-7.78,33.24-14.94-3.82-5.16-8-10.02-12.56-14.29-2.14-2-4.36-3.86-6.65-5.57-2.87,1.95-5.92,3.74-9.11,5.39h4.54v5.98h-18.41c-.2.07-.41.14-.61.21v7.64h17.69v5.98h-17.69Z"/>
      <path class="cls-7" d="m190.11,397.09c-13.25,2.36-27.78,3.83-42.07,5.22,10.54,5.18,22.4,8.09,34.94,8.09,21.91,0,41.74-8.88,56.09-23.23l.02-.02c-1.54-2.52-3.16-5.03-4.85-7.49-6.08,5.87-14.99,10.06-25.59,13.18v4.24h-18.54Z"/>
      <path class="cls-7" d="m153.25,371.51c4.13-.48,8.25-1.09,12.31-1.85-.86-.8-1.95-1.35-3.27-1.64-.99-.22-2.94-.34-5.84-.34h-3.2v3.82Z"/>
      <path class="cls-8" d="m190.99,115.95c6.05-1.33,12.21-2.46,18.37-3.39,6.66-1.01,13.41-1.79,20.12-2.34h.06l2.73-.15c4.45-.24,8.88-.48,13.39-.9,6.34-.58,13.34-1.45,20.2-2.29,3.19-.39,6.36-.79,9.89-1.2l3.11-.36-.41,3.1c-1.14,8.57-1.74,16.55-1.96,24.02-.22,7.45-.07,14.41.3,20.94.15,2.71.38,5.44.8,8.1.42,2.62,1.04,5.22,1.98,7.76,1.27,3.43,2.97,6.61,4.72,9.87,1.25,2.33,2.52,4.7,3.64,7.15,3.47,7.51,6.57,15.87,9.07,24.15,2.51,8.34,4.4,16.63,5.39,23.93l.28,2.04-1.97.62c-4.14,1.31-7.82,1.27-11.55,1.22-.94-.01-1.88-.02-2.83,0-2.46.04-4.87-.02-7.28-.08-3.45-.08-6.89-.16-10.35.04-2.15.13-4.38.52-6.61.9-1.1.19-2.2.38-3.29.54-7.39,1.09-14.52,2.89-21.35,5.33-6.99,2.5-13.7,5.7-20.11,9.53-2.68,1.6-4.87,2.28-6.67,2.05-2.38-.3-3.82-1.81-4.45-4.54-.36-1.57-.63-3.17-.68-4.82-.05-1.71.13-3.41.68-5.11l.36-1.09c1.5-4.61,3.4-10.48,5.75-14.61-12.91.9-24.9,3.88-35.71,9.14-11.2,5.46-21.14,13.37-29.51,23.95l-2.01,2.54-1.89-2.64c-5.04-7.05-5.55-13.61-6.05-20.14-.03-.41-.06-.8-.13-1.66-.54-6.55-2.99-13.01-5.37-19.31l-.1-.28c-6.41-16.97-13.62-33.32-22.57-48.25-8.91-14.86-19.56-28.35-32.92-39.68l-5.2-4.41,6.81.11c7.07.11,13.82-.66,20.34-2.16,6.55-1.5,12.88-3.73,19.12-6.52,3.59-1.61,7.75-3.07,12.09-4.36,4.92-1.46,10.07-2.69,14.89-3.65,4.97-.99,10.03-1.79,15.18-2.29,5.11-.51,10.25-.72,15.39-.54,4.31.14,9.09,2.57,12.91,6.04,1.24,1.12,2.39,2.36,3.39,3.68h0Zm27.64,110.11h0c-2.57,1.41-5.43,10.21-7.44,16.42h0s-.36,1.1-.36,1.1c-.37,1.13-.49,2.29-.46,3.46.04,1.24.26,2.54.57,3.86.12.52.22.78.3.79.67.09,1.84-.38,3.55-1.41,6.67-3.98,13.67-7.31,20.97-9.93,7.18-2.57,14.61-4.45,22.29-5.59,1.06-.16,2.12-.34,3.18-.52,2.34-.41,4.68-.81,7.16-.96,3.57-.21,7.15-.12,10.73-.04,2.38.06,4.76.11,7.11.08.99-.01,1.96,0,2.93,0,2.68.03,5.33.06,8.06-.5-1.02-6.49-2.73-13.73-4.93-21.05-2.43-8.07-5.46-16.21-8.82-23.5-1.13-2.46-2.33-4.7-3.51-6.9-1.84-3.45-3.64-6.81-5-10.48-.83-2.24-1.43-4.53-1.88-6.84-5.14-.11-10.48.3-15.99,1.11-6.26.91-12.7,2.32-19.25,4.03-6.54,1.7-12.82,3.52-18.43,5.79-5.13,2.08-9.66,4.52-13.25,7.61,3.17,13.45,6.84,26.49,11.54,40.36l1.04,3.08h-.11Zm-13.68-48.71c3.66-2.74,7.93-4.97,12.63-6.87,5.8-2.34,12.29-4.21,19.05-5.98,6.75-1.75,13.37-3.21,19.79-4.14,5.44-.79,10.77-1.22,15.94-1.16-.21-1.86-.35-3.71-.45-5.54-.37-6.62-.53-13.71-.3-21.35.2-6.71.7-13.83,1.61-21.4-2.14.26-4.45.54-6.77.83-6.65.82-13.41,1.66-20.35,2.29-4.75.44-9.15.68-13.58.91-.71.04-1.41.08-2.66.15h0c-6.57.54-13.21,1.32-19.78,2.31-5.59.84-11.08,1.83-16.39,2.96.65,1.41,1.12,2.84,1.36,4.27,3.23,19.4,6.19,36.02,9.68,51.73l.22,1Zm-105.85-48.99c-4.92,1.13-9.96,1.86-15.19,2.15,11.62,10.78,21.14,23.2,29.25,36.72,3.24,5.41,6.25,10.99,9.08,16.71,9.65-8.85,22.25-14.42,35.35-16.99,13.87-2.73,28.35-2.1,40.47,1.52-2.74-13.26-5.2-27.25-7.83-43.04-.55-3.3-2.88-6.8-5.9-9.54-3.04-2.75-6.68-4.67-9.81-4.78-4.91-.17-9.84.03-14.75.52-4.88.48-9.79,1.26-14.7,2.23-4.76.95-9.77,2.14-14.48,3.54-4.16,1.23-8.1,2.61-11.47,4.12-6.53,2.92-13.16,5.26-20.02,6.83h0Zm25.37,60.19c4.23,8.97,8.06,18.25,11.64,27.72l.11.28c2.5,6.63,5.07,13.42,5.67,20.62.02.27.08,1,.13,1.7.38,4.95.76,9.91,3.44,14.92,8.38-9.87,18.13-17.36,29-22.66,11.39-5.55,24.01-8.69,37.59-9.62-4.97-15-8.77-29.18-12.09-44.1-.25-1.15-.5-2.29-.75-3.44-11.83-4.12-26.56-5-40.69-2.22-12.77,2.51-25,8.01-34.06,16.8h0Z"/>
      <path class="cls-3" d="m199.21,173.95c-11.83-4.12-26.56-5-40.69-2.22-12.77,2.51-25,8.01-34.06,16.8,4.23,8.97,8.06,18.25,11.64,27.72l.11.28c2.5,6.63,5.07,13.42,5.67,20.62l.13,1.7c.21,2.81.43,5.63,1.07,8.46l3.15,5.55c8.2-9.42,17.68-16.61,28.22-21.75,11.39-5.55,24.01-8.69,37.59-9.62-4.97-15-8.77-29.18-12.09-44.1l-.75-3.44Z"/>
      <path class="cls-3" d="m206.16,182.61c3.17,13.45,6.84,26.49,11.54,40.36l1.04,3.08h-.11s0,.02,0,.02c-2.57,1.4-5.43,10.2-7.44,16.41h0s-.36,1.1-.36,1.1c-.37,1.13-.49,2.29-.46,3.46.04,1.24.26,2.54.57,3.86.12.52.22.78.3.79.67.09,1.84-.38,3.55-1.41,6.67-3.98,13.67-7.31,20.97-9.93,7.18-2.57,14.61-4.45,22.29-5.59,1.06-.16,2.12-.34,3.18-.52,2.34-.41,4.68-.81,7.16-.96,3.57-.21,7.15-.12,10.73-.04,2.38.06,4.76.11,7.11.08.99-.01,1.96,0,2.93,0,2.68.03,5.33.06,8.06-.5-1.02-6.49-2.73-13.73-4.93-21.05-2.43-8.07-5.46-16.21-8.82-23.5-1.13-2.46-2.33-4.7-3.51-6.9-1.84-3.45-3.64-6.81-5-10.48-.83-2.24-1.43-4.53-1.88-6.84-5.14-.11-10.48.3-15.99,1.11-6.26.91-12.7,2.32-19.25,4.03-6.54,1.7-12.82,3.52-18.43,5.79-5.13,2.08-9.66,4.52-13.25,7.61h0Z"/>
      <path class="cls-5" d="m157.59,166.94c13.87-2.73,28.35-2.1,40.47,1.52-2.74-13.26-5.2-27.25-7.83-43.04-.55-3.3-2.88-6.8-5.9-9.54-3.04-2.75-6.68-4.67-9.81-4.78-4.91-.17-9.84.03-14.75.52-4.88.48-9.79,1.26-14.7,2.23-4.76.95-9.77,2.14-14.48,3.54-4.16,1.23-8.1,2.61-11.47,4.12-6.53,2.92-13.16,5.26-20.02,6.83-4.92,1.13-9.96,1.86-15.19,2.15,11.62,10.78,21.14,23.2,29.25,36.72,3.24,5.41,6.25,10.99,9.08,16.71,9.65-8.85,22.25-14.42,35.35-16.99h0Z"/>
      <g class="cls-1">
        <path class="cls-5" d="m195.05,124.62c3.23,19.4,6.19,36.02,9.68,51.73l.22,1c3.66-2.74,7.93-4.97,12.63-6.87,5.8-2.34,12.29-4.21,19.05-5.98,6.75-1.75,13.37-3.21,19.79-4.14,5.44-.79,10.77-1.22,15.94-1.16-.21-1.86-.35-3.71-.45-5.54-.37-6.62-.53-13.71-.3-21.35.2-6.71.7-13.83,1.61-21.4-2.14.26-4.45.54-6.77.83-6.65.82-13.41,1.66-20.35,2.29-4.75.44-9.15.68-13.58.91l-2.66.15h0c-6.57.54-13.21,1.32-19.78,2.31-5.59.84-11.08,1.83-16.39,2.96.65,1.41,1.12,2.84,1.36,4.27h0Z"/>
        <path class="cls-8" d="m188.48,32.29c-19.04,16.56-38.69,31.76-62.04,43.37-23.99,11.92-51.5,19.79-85.55,21.04l-.04,55.13c6.33,8.18,11.89,16.02,15.87,25.09,4.77,10.87,6.91,22.68,4.79,37.28l-.45,3.04-1.85,2.5c-10.8,14.61-19.61,30.79-25.67,48.91-6.07,18.18-9.39,38.36-9.18,60.96.37,40.1,18.72,80.8,47.72,111.61,27.69,29.41,64.94,49.57,105.29,51.26l6.78.29,3.34,5.92,3.24,5.75,3.12-5.52,3.3-5.84,6.64-.37c41.77-2.33,78.51-22.93,105.43-52.94,28.84-32.16,46.39-74.92,46.87-117.58.25-22.76-3.5-41.48-9.55-57.5-6.07-16.06-14.53-29.57-23.62-41.8l-.9-1.21-.58-1.42c-5.72-13.93-5.64-26.78-1.09-38.95,3.68-9.84,10.26-18.89,19-27.47l.06-57.71c-35.12-1.57-64.4-10.49-89.51-22.86-23.91-11.77-43.82-26.54-61.4-40.97h0Zm-72.84,21.5c23.89-11.87,44.21-28.6,64.49-46.69L188.02.06l8.11,6.84c18.38,15.5,39.27,32.03,64.55,44.48,24.97,12.29,54.55,20.78,90.86,20.62l12.23-.05v12.23s-.09,74.89-.09,74.89v5.4s-4.01,3.62-4.01,3.62c-7.96,7.2-13.77,14.38-16.51,21.7-2.27,6.08-2.38,12.63.29,19.88,9.9,13.47,19.11,28.46,25.89,46.41,7.02,18.57,11.37,40.17,11.07,66.28-.54,48.62-20.41,97.21-53.07,133.62-29.59,32.98-69.68,56.12-115.52,60.54l-10.51,18.61-10.6,18.78-10.59-18.78-10.59-18.76c-44.46-3.82-84.99-26.35-115.22-58.46C21.32,422.87.43,376.17.01,329.79c-.24-25.44,3.53-48.26,10.42-68.89,6.54-19.57,15.87-37.12,27.25-53.01.77-8.27-.59-15.05-3.31-21.25-3.29-7.49-8.89-14.9-15.3-23.05l-2.58-3.29v-4.26s.06-71.38.06-71.38v-12.3s12.27.12,12.27.12c35.49.35,63.16-6.95,86.83-18.71h0Z"/>
      </g>
      <path class="cls-6" d="m314.14,295.47c-.82-.16-2.48-.24-4.98-.24h-3.34v10.08h3.79c2.73,0,4.55-.19,5.47-.56.92-.37,1.64-.95,2.16-1.75.52-.79.79-1.7.79-2.76,0-1.29-.37-2.36-1.1-3.2-.74-.84-1.66-1.37-2.79-1.58h0Z"/>
      <path class="cls-6" d="m317.53,310.78c-1.66.34-4.05.51-7.19.51h-4.52v13.34h-6.97v-35.38h11.14c4.22,0,6.96.18,8.25.53,1.97.54,3.62,1.69,4.95,3.47,1.33,1.78,1.99,4.08,1.99,6.89,0,2.18-.38,4-1.15,5.48-.77,1.48-1.74,2.64-2.91,3.49-1.18.84-2.38,1.4-3.59,1.67h0Zm-58.75-71.16c-7.39,1.09-14.52,2.89-21.35,5.33-6.99,2.5-13.7,5.7-20.11,9.53-.12.07-.25.14-.37.22,9.43,4.2,17.93,10.09,25.13,17.29,15.12,15.12,24.48,36.01,24.48,59.1s-9.35,43.97-24.48,59.09c-3.7,3.69-7.73,7.05-12.07,10l21.24,37.36-11.98,6.8-21.25-37.36c-10.66,4.93-22.53,7.68-35.05,7.68-23.08,0-43.97-9.36-59.1-24.48-15.12-15.12-24.48-36.02-24.48-59.09s9.36-43.97,24.48-59.1c3.62-3.62,7.57-6.91,11.8-9.82l-71.87-126.39c-3.06.21-5.91-.56-7.41-3.09-3.95-6.66,2.09-8.29,8.72-11.9,6.62-3.61,12.28-6.28,15.16.03.94,2.06,1.3,3.63,1.17,4.91,5.71-.16,11.2-.9,16.56-2.13,6.55-1.5,12.88-3.73,19.12-6.53,3.59-1.61,7.75-3.07,12.09-4.35,4.92-1.46,10.07-2.69,14.89-3.65,4.97-.99,10.03-1.79,15.18-2.29,5.11-.51,10.25-.72,15.39-.54,4.31.15,9.09,2.57,12.91,6.04,1.24,1.12,2.39,2.36,3.39,3.68,6.05-1.33,12.21-2.46,18.37-3.39,6.66-1.01,13.41-1.79,20.12-2.34h.06l2.73-.15c4.45-.24,8.88-.48,13.39-.9,6.34-.58,13.34-1.45,20.2-2.29,3.19-.39,6.36-.79,9.89-1.2l3.11-.36-.41,3.1c-1.14,8.57-1.74,16.55-1.96,24.02-.22,7.45-.07,14.41.3,20.94.15,2.71.38,5.44.8,8.1.42,2.62,1.04,5.22,1.98,7.76,1.27,3.43,2.97,6.61,4.72,9.87,1.25,2.33,2.52,4.7,3.64,7.15,3.47,7.51,6.57,15.87,9.07,24.15,2.51,8.34,4.4,16.63,5.39,23.93l.28,2.04-1.97.62c-4.14,1.31-7.82,1.27-11.55,1.22-.94-.01-1.88-.02-2.83,0-2.46.04-4.87-.02-7.28-.08-3.45-.08-6.89-.16-10.35.04-2.15.13-4.38.52-6.61.9-1.1.19-2.2.38-3.29.54h0ZM188.48,32.29c-19.04,16.56-38.69,31.76-62.04,43.37-23.99,11.92-51.5,19.79-85.55,21.04l-.04,55.13c6.33,8.18,11.89,16.02,15.87,25.09,4.77,10.87,6.91,22.68,4.79,37.28l-.45,3.04-1.85,2.5c-10.8,14.61-19.61,30.79-25.67,48.91-6.07,18.18-9.39,38.36-9.18,60.96.37,40.1,18.72,80.8,47.72,111.61,27.69,29.41,64.94,49.57,105.29,51.26l6.78.29,3.34,5.92,3.24,5.75,3.12-5.52,3.3-5.84,6.64-.37c41.77-2.33,78.51-22.93,105.43-52.94,28.84-32.16,46.39-74.92,46.87-117.58.25-22.76-3.5-41.48-9.55-57.5-6.07-16.06-14.53-29.57-23.62-41.8l-.9-1.21-.58-1.42c-5.72-13.93-5.64-26.78-1.09-38.95,3.68-9.84,10.26-18.89,19-27.47l.06-57.71c-35.12-1.57-64.4-10.49-89.51-22.86-23.91-11.77-43.82-26.54-61.4-40.97h0Zm-106.89,261.24v18.6c0,4.25-.19,7.25-.57,9.01-.39,1.75-1.09,3.24-2.12,4.45-1.02,1.21-2.4,2.16-4.11,2.88-1.73.71-3.97,1.08-6.73,1.08-3.34,0-5.88-.39-7.61-1.17-1.72-.78-3.09-1.79-4.09-3.05-1-1.25-1.66-2.55-1.98-3.93-.47-2.03-.69-5.02-.69-8.99v-18.89h7.11v19.17c0,3.05.09,5.01.26,5.91.3,1.45,1.01,2.62,2.14,3.49,1.13.88,2.68,1.32,4.64,1.32s3.49-.41,4.5-1.24c1.01-.83,1.62-1.84,1.82-3.06.2-1.21.31-3.21.31-6.01v-19.59h7.11Zm107.53,145.29v28.85h17.2v5.93h-24.15v-34.78h6.95Z"/>
      <path class="cls-6" d="m205.92,250.69c-.22-1.15-.37-2.32-.4-3.51-.05-1.71.13-3.41.68-5.11l.36-1.09c1.5-4.61,3.4-10.49,5.75-14.61-12.91.9-24.9,3.88-35.71,9.14-8.89,4.33-16.97,10.2-24.11,17.73,9.45-3.7,19.73-5.74,30.49-5.74,7.96,0,15.65,1.11,22.94,3.19h0Z"/>
      <path class="cls-6" d="m131.54,217.98c-6.41-16.97-13.62-33.32-22.57-48.25-8.72-14.55-19.12-27.79-32.09-38.97-.02.01-.04.02-.05.04l60.07,105.65c-.71-6.17-3.01-12.24-5.25-18.17l-.1-.28Z"/>
    </g>
  </g>
</svg>