<?xml version="1.0" encoding="UTF-8" standalone="no"?>
<!-- Created with Inkscape (http://www.inkscape.org/) -->

<svg
   xmlns:dc="http://purl.org/dc/elements/1.1/"
   xmlns:cc="http://creativecommons.org/ns#"
   xmlns:rdf="http://www.w3.org/1999/02/22-rdf-syntax-ns#"
   xmlns:svg="http://www.w3.org/2000/svg"
   xmlns="http://www.w3.org/2000/svg"
   xmlns:sodipodi="http://sodipodi.sourceforge.net/DTD/sodipodi-0.dtd"
   xmlns:inkscape="http://www.inkscape.org/namespaces/inkscape"
   id="svg2"
   version="1.1"
   inkscape:version="0.91 r13725"
   width="500"
   height="500"
   viewBox="0 0 500 500"
   sodipodi:docname="Urbs_Sportiva_Reggina_1914.svg">
  <metadata
     id="metadata8">
    <rdf:RDF>
      <cc:Work
         rdf:about="">
        <dc:format>image/svg+xml</dc:format>
        <dc:type
           rdf:resource="http://purl.org/dc/dcmitype/StillImage" />
        <dc:title></dc:title>
      </cc:Work>
    </rdf:RDF>
  </metadata>
  <defs
     id="defs6" />
  <sodipodi:namedview
     pagecolor="#ffffff"
     bordercolor="#666666"
     borderopacity="1"
     objecttolerance="10"
     gridtolerance="10"
     guidetolerance="10"
     inkscape:pageopacity="0"
     inkscape:pageshadow="2"
     inkscape:window-width="1600"
     inkscape:window-height="838"
     id="namedview4"
     showgrid="false"
     inkscape:zoom="0.68162768"
     inkscape:cx="80.316742"
     inkscape:cy="233.78582"
     inkscape:window-x="-8"
     inkscape:window-y="-8"
     inkscape:window-maximized="1"
     inkscape:current-layer="svg2"
     showguides="true"
     fit-margin-top="0"
     fit-margin-left="0"
     fit-margin-right="0"
     fit-margin-bottom="0" />
  <g
     id="g4864"
     transform="matrix(0.67738487,0,0,0.67738487,-3.9240694,-3.4861507)">
    <path
       id="path4583"
       d="M 736.42581,374.21286 A 361.56665,361.56665 0 0 1 374.85916,735.77951 361.56665,361.56665 0 0 1 13.292511,374.21286 361.56665,361.56665 0 0 1 374.85916,12.64621 361.56665,361.56665 0 0 1 736.42581,374.21286 Z"
       style="fill:#231f20;fill-opacity:1;stroke:none;stroke-width:15;stroke-linecap:round;stroke-linejoin:round;stroke-miterlimit:4;stroke-dasharray:none;stroke-opacity:1"
       inkscape:connector-curvature="0" />
    <path
       sodipodi:nodetypes="sssss"
       inkscape:connector-curvature="0"
       id="path4601"
       d="M 375.13281,47.013672 C 194.22123,47.013674 47.455058,193.77982 47.455078,374.69141 47.455089,555.60297 194.22125,702.36719 375.13281,702.36719 556.04438,702.3672 702.81054,555.60298 702.81055,374.69141 702.81057,193.77981 556.0444,47.013661 375.13281,47.013672 Z"
       style="color:#000000;font-style:normal;font-variant:normal;font-weight:normal;font-stretch:normal;font-size:medium;line-height:normal;font-family:sans-serif;text-indent:0;text-align:start;text-decoration:none;text-decoration-line:none;text-decoration-style:solid;text-decoration-color:#000000;letter-spacing:normal;word-spacing:normal;text-transform:none;direction:ltr;block-progression:tb;writing-mode:lr-tb;baseline-shift:baseline;text-anchor:start;white-space:normal;clip-rule:nonzero;display:inline;overflow:visible;visibility:visible;opacity:1;isolation:auto;mix-blend-mode:normal;color-interpolation:sRGB;color-interpolation-filters:linearRGB;solid-color:#000000;solid-opacity:1;fill:#6b1812;fill-opacity:1;fill-rule:nonzero;stroke:none;stroke-width:1;stroke-linecap:round;stroke-linejoin:round;stroke-miterlimit:4;stroke-dasharray:none;stroke-dashoffset:0;stroke-opacity:1;color-rendering:auto;image-rendering:auto;shape-rendering:auto;text-rendering:auto;enable-background:accumulate" />
    <path
       style="fill:#231f20;fill-opacity:1;stroke:#d8c27d;stroke-width:25.97800064;stroke-linecap:round;stroke-linejoin:round;stroke-miterlimit:4;stroke-dasharray:none;stroke-opacity:1"
       d="M 552.61676,374.99005 A 177.75983,177.75983 0 0 1 374.85693,552.74988 177.75983,177.75983 0 0 1 197.09711,374.99005 177.75983,177.75983 0 0 1 374.85693,197.23022 177.75983,177.75983 0 0 1 552.61676,374.99005 Z"
       id="path4728"
       inkscape:connector-curvature="0" />
    <g
       id="g4730">
      <g
         id="g4732">
        <path
           sodipodi:nodetypes="ccccccccccccccccssccscccssccsccsccsccscsccscccccssccccsccccssscccccccccccscscsscssscsccccssccsccccccccccccc"
           inkscape:connector-curvature="0"
           id="path4734"
           d="m 99.382412,346.99928 -0.750053,0.54801 -1.079972,1.27927 -1.2455,0.25647 -0.771307,-1.55086 -0.422601,-0.0249 c -0.539466,0.70885 -0.618234,1.35627 -0.214342,1.93934 0.630762,0.74731 1.162274,0.40287 1.737265,0.5367 -0.34093,0.45395 -0.62215,0.94772 -0.589896,1.65046 0.09065,0.84127 0.493031,1.10361 1.022071,1.13073 0.824717,-0.29787 0.80028,-1.02031 1.176061,-1.54264 0.630063,0.86685 0.725837,1.76898 0.623954,2.61107 -0.308182,1.5729 1.590208,-0.11133 1.303098,2.20144 0.28733,0.22914 0.53182,0.50724 1.24426,0.25054 -0.0231,0.55231 0.13012,1.18538 0.88869,1.46603 1.47532,0.15683 1.31861,0.67633 1.57957,1.10302 -0.0373,1.17095 -0.0933,3.22522 0.61244,4.14628 0.97756,1.2758 2.26485,0.98116 5.22367,2.37646 0.90167,0.42521 0.8664,2.1621 0.80068,2.9289 -0.95981,1.09037 -1.99445,2.06852 -3.36278,2.54611 -4.76538,-8.22146 -7.721862,-11.25162 -14.216027,-12.0691 -2.629437,-0.33099 -4.763687,0.78308 -8.493377,4.31943 l -3.542218,-0.41779 1.072639,3.69988 c -0.869408,2.43412 -1.236012,4.72795 -0.234821,6.47682 0.928023,1.62106 2.526737,3.61132 3.607786,6.75054 0.486409,1.41247 1.375087,2.80694 2.249212,3.88193 1.120856,1.08875 1.999568,1.4353 2.752012,1.30175 2.10843,-0.19477 2.425138,-2.16702 3.139296,-3.79243 0.101242,-0.23043 0.365145,-0.8019 0.488599,-1.01233 0.741808,-1.04938 2.064084,-0.95533 3.351614,-1.17149 -1.441263,4.4734 -3.931492,6.14867 -4.724458,9.74319 -0.496019,2.24846 -0.40379,4.81023 0.591345,7.89936 -1.575157,-0.92618 -3.768353,-1.85178 -8.388919,-1.0281 -2.420304,0.48205 -7.917506,5.63959 -2.231913,20.01913 0.409708,1.0362 0.400835,2.18839 1.408668,3.25397 1.968128,-0.027 1.632492,-2.1286 3.825979,-5.34413 -1.3004,-0.96959 -2.864215,-4.26639 -3.002427,-7.14135 -0.08715,-1.81291 0.360628,-5.59371 3.140162,-5.48281 2.545235,1.3492 3.78956,3.55678 5.200906,4.28774 1.689657,0.8751 3.033126,1.00012 4.446102,1.27574 0.161296,2.2026 1.247109,3.01842 2.08556,4.20528 -1.699876,2.90281 -3.0266,5.9049 -4.284547,8.73345 -0.98127,2.20643 -1.719206,4.13359 -1.737174,7.29453 0.06597,0.32389 0.573505,0.80835 1.180415,1.33191 1.457948,0.63909 1.864326,-0.60082 1.926555,-1.35905 l 0,-7e-5 c 0.425277,-3.70989 1.131891,-3.22319 1.494083,-4.29127 1.310508,-2.87443 1.723623,-5.30198 2.509648,-6.7506 0.33616,-0.61954 1.35322,-0.91549 1.85036,-1.24382 2.62591,-1.73423 0.0312,-6.03255 2.56234,-9.16044 6.76602,2.68004 11.92393,0.71441 17.3294,-0.53603 1.43026,4.27629 2.81329,8.57661 13.34375,8.22568 l 0.12234,1.68675 c -4.66361,2.92573 -6.94028,5.24203 -7.97525,7.2413 -1.88289,3.6372 -0.41119,7.51957 -0.21534,9.52437 0.57603,0.57858 1.94276,0.54316 2.14839,-0.028 0.37334,-1.3739 1.89294,-1.16476 2.60292,-1.18941 1.26683,-0.62561 0.93206,-1.54203 0.6547,-1.85076 -0.98947,-1.40101 -2.16275,-1.45864 -1.80248,-3.29593 0.89047,-4.54113 5.81646,-6.11233 8.51418,-7.40425 5.15518,-2.46878 8.09424,-4.07542 8.18774,-5.71455 0.21828,-3.82631 -7.81358,-4.58537 -9.83979,-8.88465 4.13286,-3.0219 6.81973,-5.33719 7.94662,-8.50922 0.47104,-2.53555 0.0489,-3.28478 0.009,-4.79842 1.07916,-2.38813 7.23296,-6.24901 6.2483,-0.82855 -1.13374,2.39619 -1.13966,1.96545 -2.86782,7.34438 -0.40291,1.40618 -1.08622,3.34474 -0.47123,6.18687 0.58693,2.18221 1.24161,2.09556 1.94341,2.59381 l 0,3e-5 c 8.73574,4.61873 14.13167,-4.00017 15.52679,-7.20998 0.36248,-1.60151 0.78069,-2.67502 -0.38082,-2.61509 -3.85887,0.56275 -5.80587,5.38869 -9.64026,3.33518 -1.34727,-1.61777 -0.0389,-5.56612 2.34107,-8.29097 2.69884,-3.08991 3.1938,-6.15253 2.22734,-9.13393 -0.86023,-2.17529 -3.74635,-7.12362 -10.56176,-4.11391 -1.84182,0.81336 -4.30511,3.02579 -7.50508,5.067 -2.33574,-2.08405 -4.72825,-3.97122 -8.22577,-3.2543 -7.7251,1.58349 -8.32788,-0.98933 -8.31719,-2.85575 0.0179,-3.11698 1.38698,-4.76098 4.41935,-7.75831 1.16789,-0.94119 2.41318,-0.5762 3.97689,-0.61594 1.52914,-0.0389 2.94303,-0.25731 3.83063,-0.71115 0.54984,-0.28114 0.96906,-0.6287 1.26849,-1.06856 0.45082,-0.66223 -0.038,-1.9632 0.57494,-2.70253 1.1401,-2.01078 2.3024,-3.21521 3.10557,-4.06882 1.41078,-1.49935 0.79604,-2.45716 -0.71465,-3.54813 -1.9072,-0.89165 -0.22983,-2.16511 0.56546,-3.05675 0.36656,-1.06687 -0.40199,-1.72022 -1.68175,-1.95796 l -12.62844,0.30464 c -2.25584,0.20888 -0.66146,-2.47737 0.80472,-4.66253 0.6351,-0.94652 0.11662,-1.9006 -0.27958,-2.00248 -0.66847,-0.17189 -3.55085,0.70252 -5.86837,6.6952 -5.04842,0.004 -8.03319,0.28536 -11.94435,1.98503 -1.09728,-1.24578 -1.75601,-2.17736 -2.41494,-2.97435 -0.75505,-0.91325 -1.08082,-1.84068 -2.92608,-2.47982 -2.58777,-0.47405 -4.34591,-0.51754 -7.233758,-0.13156 z m -4.062505,25.10194 c 1.609975,0.0498 2.618058,1.44447 2.13675,4.70477 -1.260056,1.15681 -3.083268,1.00591 -4.514902,1.62021 -0.66994,-3.31963 -0.372488,-4.29081 0.08159,-4.98867 0.82855,-1.15279 1.121302,-1.26403 2.296562,-1.33631 z m 12.498773,0.28471 c 1.89549,-0.84281 2.73699,-1.94912 3.86411,-2.98402 1.13282,2.88588 0.96749,4.84449 1.06676,6.99211 l -2.69731,0.0876 z"
           style="color:#000000;font-style:normal;font-variant:normal;font-weight:normal;font-stretch:normal;font-size:medium;line-height:normal;font-family:sans-serif;text-indent:0;text-align:start;text-decoration:none;text-decoration-line:none;text-decoration-style:solid;text-decoration-color:#000000;letter-spacing:normal;word-spacing:normal;text-transform:none;direction:ltr;block-progression:tb;writing-mode:lr-tb;baseline-shift:baseline;text-anchor:start;white-space:normal;clip-rule:nonzero;display:inline;overflow:visible;visibility:visible;opacity:1;isolation:auto;mix-blend-mode:normal;color-interpolation:sRGB;color-interpolation-filters:linearRGB;solid-color:#000000;solid-opacity:1;fill:#d8c27d;fill-opacity:1;fill-rule:evenodd;stroke:none;stroke-width:0.5;stroke-linecap:butt;stroke-linejoin:round;stroke-miterlimit:4;stroke-dasharray:none;stroke-dashoffset:0;stroke-opacity:1;color-rendering:auto;image-rendering:auto;shape-rendering:auto;text-rendering:auto;enable-background:accumulate" />
        <path
           sodipodi:nodetypes="cccccssccscscsscccsscccccsccccsscssscccccccccccccsscccssccsccccccsccscsscccccccccccccsccccccccccccccccccc"
           inkscape:connector-curvature="0"
           id="path4736"
           d="m 101.54339,459.84398 c 0.0454,0.87513 1.26206,0.47648 1.87785,1.19842 0.44185,-0.50315 0.55718,-1.98587 0.55767,-3.81313 3.28062,0.22036 6.46407,-0.33663 10.16633,3.25683 1.3862,-0.67878 0.85764,-1.79721 0.99192,-2.89329 1.13115,-0.0436 2.37944,0.12013 3.28898,-0.50453 1.0495,-0.72078 2.42189,-1.29375 4.11408,-1.56035 2.77053,-0.43649 5.11048,-1.81996 5.66746,-3.03758 l 1.30058,0.84165 c -0.47187,1.43582 -3.1989,1.14408 -4.00732,2.04798 -0.60127,0.67228 -0.54111,1.08407 -0.5373,1.73351 -0.0132,0.33872 0.97838,-0.11595 1.16901,0.1519 0.17942,0.25212 -0.31084,1.18386 0.0744,1.34385 0.38055,0.12302 0.99547,-0.873 1.39035,-1.04786 0.29676,-0.1314 0.38586,0.59711 0.62033,0.41598 0.5217,-0.40299 0.69743,-1.17791 1.28203,-1.35653 1.4853,-0.44069 3.3279,-0.57736 4.83219,-0.77766 3.25235,-1.39636 -1.03023,-4.30367 -2.08046,-6.37939 0.45413,-3.84503 3.61195,-5.55543 5.34229,-5.58046 2.36169,-0.0342 5.69653,3.22437 7.03598,5.48655 0.72507,1.22455 0.58037,1.9209 0.65621,2.70895 -2.72441,0.61708 -6.95503,-0.81429 -6.80596,3.71073 0.83314,1.4787 2.51329,-1.45383 4.03381,-0.71643 -1.08002,1.11912 -2.57586,1.98486 -1.82433,3.56187 1.41915,0.61369 2.49436,-1.92491 4.93194,-1.55388 0.17665,-0.46324 -0.87885,-3.85802 0.56367,-3.04388 0.25355,0.1431 0.51559,1.33287 1.3761,2.38237 1.12484,-1.21191 2.79925,-1.92423 5.31052,-1.87575 0.0977,-1.13916 -0.0158,-2.22325 -2.76942,-2.61859 0.10744,-1.53582 3.50639,-1.4259 -1.35407,-5.44568 0.10806,-0.2114 0.65414,-0.56574 1.3562,-0.29438 0.89841,0.34725 3.72406,0.68152 6.60066,-0.0349 6.0795,-1.51416 11.25136,-6.15562 6.36073,-16.3562 -1.29855,-2.37862 -3.40002,-4.64822 -5.25018,-7.48211 -2.97647,-4.55908 -5.16419,-8.90348 -4.06185,-10.22895 0.98778,-1.18772 2.35987,0.35976 5.05419,7.85235 0.40791,1.13436 1.20175,2.53463 1.61106,3.28716 0.64303,0.69853 1.91649,0.67222 3.14962,0.30856 -0.0333,0.83093 -0.33409,1.66186 0.36616,2.49279 0.76804,0.69171 1.38381,0.4698 1.99812,0.23914 0.51345,0.82769 0.88399,1.60775 2.30292,2.73727 0.76554,-0.0279 0.92484,-0.7832 0.90929,-1.74837 0.94783,0.593 1.55628,0.33751 2.20087,0.1724 -0.61715,-1.17187 0.11601,-1.44981 0.50532,-1.28578 1.32553,0.0254 1.48735,-0.33704 1.92588,-0.60727 -0.84403,-0.97274 -1.19685,-1.35387 -2.40716,-1.3441 0.80665,-0.90626 0.0635,-1.80149 0.0198,-2.63847 -0.79963,-0.005 -1.59925,0.75799 -2.39888,-0.52356 -1.17673,-2.25184 -1.00386,-2.22026 -3.21716,-2.47295 -4.32817,-3.55871 -4.30933,-8.83045 -8.94921,-11.35778 -1.58542,-0.86357 -3.15996,-1.02134 -4.7909,0.24651 -0.77547,0.60283 -2.67129,3.21958 -1.95588,7.82992 0.69427,7.71027 11.07066,13.52529 7.78339,20.6853 -0.97008,1.92599 -3.80404,2.69951 -10.29677,0.99902 1.13437,-0.93603 0.99661,-1.50215 -0.13196,-2.03951 -2.3126,-1.10113 -3.98141,-0.87422 -5.33049,-1.48635 -0.84264,-0.38234 -1.41908,-1.38006 -2.41064,-1.5163 -3.26933,0.59419 -6.99544,2.14344 -12.02606,6.42033 -0.14404,-0.45348 -0.98823,-0.80316 0.16487,-2.14555 0.7946,-0.92502 0.28276,-1.84069 -2.64496,-1.10897 -1.24071,-0.24678 -1.73717,-1.56425 -1.28097,-2.02183 2.50291,-1.20739 0.98393,-2.12232 0.54572,-3.04193 -4.19683,-1.49701 -0.73817,-2.46883 -0.47599,-3.38971 -2.80587,-3.47299 1.05275,-3.2435 1.88115,-4.69746 l -0.12092,-1.85135 c -7.12334,2.52589 -11.51116,4.19722 -14.05564,7.71848 -2.36429,3.2719 -2.27949,6.02602 -0.0475,12.93708 -1.38849,1.64916 -0.52155,3.64531 -4.53887,4.89003 -4.3571,-2.58185 -6.17963,-4.21862 -6.86149,-5.43005 -0.618867,-1.09951 -0.298073,-1.84865 -0.0798,-2.63601 0.6349,-1.04451 1.07562,-0.5257 2.02112,-1.01232 0.51467,-0.26489 0.98046,-0.49204 1.27273,-0.56967 2.45957,-0.65327 1.61481,0.0914 2.06753,-1.5016 -0.0979,-0.82734 -0.40447,-1.3671 -0.96702,-1.94516 l -1.63186,-0.39966 -0.71084,1.00428 -1.01489,0.41369 -0.49413,0.71516 -1.647101,0.11363 0.665258,-0.90617 0.160479,-0.93483 1.299264,-0.12547 0.61868,-0.97928 c 1.35202,0.0158 1.86906,-0.30244 2.52187,-0.56635 l 0.66088,-1.62237 c -1.56891,-0.66589 -2.65872,-1.3354 -3.40239,-2.07632 -0.62466,-0.62235 -0.46218,-1.47605 -1.764245,-1.87702 -2.731295,-0.63203 -3.83214,1.31749 -4.839055,3.41574 -1.518462,0.38207 -3.091536,0.40224 -4.581815,1.10489 -0.475705,0.31684 -0.693576,0.42926 -0.318948,2.51629 l -2.610526,0.16136 c -0.887091,2.57127 2.473622,3.26398 5.218013,4.85786 -0.307117,8.58207 6.594194,12.08166 9.277406,15.88818 0.66096,1.28609 0.0471,1.96833 -2.101976,1.92334 0.195666,-1.94163 -1.966369,-1.32909 -3.407605,-1.49741 -1.176741,-2.59385 -2.353482,0.0824 -3.530223,1.178 0.498812,0.33067 1.192697,0.59632 2.572528,0.63332 -1.240782,1.06014 -1.822266,2.17522 -1.290637,3.38307 1.497263,-1.49162 2.921591,-1.2832 4.112138,-0.37507 2.583715,-1.43001 2.937835,0.4811 3.237755,1.3678 z m -0.38038,-30.50122 -2.075475,1.21599 0.341347,-1.41449 z"
           style="color:#000000;font-style:normal;font-variant:normal;font-weight:normal;font-stretch:normal;font-size:medium;line-height:normal;font-family:sans-serif;text-indent:0;text-align:start;text-decoration:none;text-decoration-line:none;text-decoration-style:solid;text-decoration-color:#000000;letter-spacing:normal;word-spacing:normal;text-transform:none;direction:ltr;block-progression:tb;writing-mode:lr-tb;baseline-shift:baseline;text-anchor:start;white-space:normal;clip-rule:nonzero;display:inline;overflow:visible;visibility:visible;opacity:1;isolation:auto;mix-blend-mode:normal;color-interpolation:sRGB;color-interpolation-filters:linearRGB;solid-color:#000000;solid-opacity:1;fill:#d8c27d;fill-opacity:1;fill-rule:evenodd;stroke:none;stroke-width:0.5;stroke-linecap:butt;stroke-linejoin:round;stroke-miterlimit:4;stroke-dasharray:none;stroke-dashoffset:0;stroke-opacity:1;color-rendering:auto;image-rendering:auto;shape-rendering:auto;text-rendering:auto;enable-background:accumulate" />
        <path
           style="color:#000000;font-style:normal;font-variant:normal;font-weight:normal;font-stretch:normal;font-size:medium;line-height:normal;font-family:sans-serif;text-indent:0;text-align:start;text-decoration:none;text-decoration-line:none;text-decoration-style:solid;text-decoration-color:#000000;letter-spacing:normal;word-spacing:normal;text-transform:none;direction:ltr;block-progression:tb;writing-mode:lr-tb;baseline-shift:baseline;text-anchor:start;white-space:normal;clip-rule:nonzero;display:inline;overflow:visible;visibility:visible;opacity:1;isolation:auto;mix-blend-mode:normal;color-interpolation:sRGB;color-interpolation-filters:linearRGB;solid-color:#000000;solid-opacity:1;fill:#d8c27d;fill-opacity:1;fill-rule:evenodd;stroke:none;stroke-width:0.5;stroke-linecap:butt;stroke-linejoin:round;stroke-miterlimit:4;stroke-dasharray:none;stroke-dashoffset:0;stroke-opacity:1;color-rendering:auto;image-rendering:auto;shape-rendering:auto;text-rendering:auto;enable-background:accumulate"
           d="m 607.18225,346.99928 -0.75005,0.54801 -1.07997,1.27927 -1.2455,0.25647 -0.77131,-1.55086 -0.4226,-0.0249 c -0.53947,0.70885 -0.61824,1.35627 -0.21434,1.93934 0.63076,0.74731 1.16227,0.40287 1.73726,0.5367 -0.34093,0.45395 -0.62215,0.94772 -0.58989,1.65046 0.0907,0.84127 0.49303,1.10361 1.02207,1.13073 0.82471,-0.29787 0.80028,-1.02031 1.17606,-1.54264 0.63006,0.86685 0.72584,1.76898 0.62395,2.61107 -0.30818,1.5729 1.59021,-0.11133 1.3031,2.20144 0.28733,0.22914 0.53182,0.50724 1.24426,0.25054 -0.0231,0.55231 0.13012,1.18538 0.88869,1.46603 1.47532,0.15683 1.31861,0.67633 1.57957,1.10302 -0.0373,1.17095 -0.0933,3.22522 0.61244,4.14628 0.97756,1.2758 2.26485,0.98116 5.22367,2.37646 0.90167,0.42521 0.8664,2.1621 0.80068,2.9289 -0.95981,1.09037 -1.99445,2.06852 -3.36278,2.54611 -4.76538,-8.22146 -7.72186,-11.25162 -14.21603,-12.0691 -2.62943,-0.33099 -4.76368,0.78308 -8.49337,4.31943 l -3.54222,-0.41779 1.07264,3.69988 c -0.86941,2.43412 -1.23602,4.72795 -0.23482,6.47682 0.92802,1.62106 2.52673,3.61132 3.60778,6.75054 0.48641,1.41247 1.37509,2.80694 2.24921,3.88193 1.12086,1.08875 1.99957,1.4353 2.75202,1.30175 2.10843,-0.19477 2.42513,-2.16702 3.13929,-3.79243 0.10124,-0.23043 0.36515,-0.8019 0.4886,-1.01233 0.74181,-1.04938 2.06408,-0.95533 3.35161,-1.17149 -1.44126,4.4734 -3.93149,6.14867 -4.72445,9.74319 -0.49602,2.24846 -0.40379,4.81023 0.59134,7.89936 -1.57516,-0.92618 -3.76835,-1.85178 -8.38892,-1.0281 -2.4203,0.48205 -7.9175,5.63959 -2.23191,20.01913 0.40971,1.0362 0.40083,2.18839 1.40867,3.25397 1.96813,-0.027 1.63249,-2.1286 3.82598,-5.34413 -1.3004,-0.96959 -2.86422,-4.26639 -3.00243,-7.14135 -0.0871,-1.81291 0.36063,-5.59371 3.14016,-5.48281 2.54524,1.3492 3.78956,3.55678 5.20091,4.28774 1.68965,0.8751 3.03312,1.00012 4.4461,1.27574 0.1613,2.2026 1.24711,3.01842 2.08556,4.20528 -1.69988,2.90281 -3.0266,5.9049 -4.28455,8.73345 -0.98127,2.20643 -1.7192,4.13359 -1.73717,7.29453 0.066,0.32389 0.5735,0.80835 1.18041,1.33191 1.45795,0.63909 1.86433,-0.60082 1.92656,-1.35905 l 0,-7e-5 c 0.42528,-3.70989 1.13189,-3.22319 1.49408,-4.29127 1.31051,-2.87443 1.72363,-5.30198 2.50965,-6.7506 0.33616,-0.61954 1.35322,-0.91549 1.85036,-1.24382 2.62591,-1.73423 0.0312,-6.03255 2.56234,-9.16044 6.76602,2.68004 11.92393,0.71441 17.3294,-0.53603 1.43026,4.27629 2.81329,8.57661 13.34375,8.22568 l 0.12234,1.68675 c -4.66361,2.92573 -6.94028,5.24203 -7.97525,7.2413 -1.88289,3.6372 -0.41119,7.51957 -0.21534,9.52437 0.57603,0.57858 1.94276,0.54316 2.14839,-0.028 0.37334,-1.3739 1.89294,-1.16476 2.60292,-1.18941 1.26683,-0.62561 0.93206,-1.54203 0.6547,-1.85076 -0.98947,-1.40101 -2.16275,-1.45864 -1.80248,-3.29593 0.89047,-4.54113 5.81646,-6.11233 8.51418,-7.40425 5.15518,-2.46878 8.09424,-4.07542 8.18774,-5.71455 0.21828,-3.82631 -7.81358,-4.58537 -9.83979,-8.88465 4.13286,-3.0219 6.81973,-5.33719 7.94662,-8.50922 0.47104,-2.53555 0.0489,-3.28478 0.009,-4.79842 1.07916,-2.38813 7.23296,-6.24901 6.2483,-0.82855 -1.13374,2.39619 -1.13966,1.96545 -2.86782,7.34438 -0.40291,1.40618 -1.08622,3.34474 -0.47123,6.18687 0.58693,2.18221 1.24161,2.09556 1.94341,2.59381 l 0,3e-5 c 8.73574,4.61873 14.13167,-4.00017 15.52679,-7.20998 0.36248,-1.60151 0.78069,-2.67502 -0.38082,-2.61509 -3.85887,0.56275 -5.80587,5.38869 -9.64026,3.33518 -1.34727,-1.61777 -0.0389,-5.56612 2.34107,-8.29097 2.69884,-3.08991 3.1938,-6.15253 2.22734,-9.13393 -0.86023,-2.17529 -3.74635,-7.12362 -10.56176,-4.11391 -1.84182,0.81336 -4.30511,3.02579 -7.50508,5.067 -2.33574,-2.08405 -4.72825,-3.97122 -8.22577,-3.2543 -7.7251,1.58349 -8.32788,-0.98933 -8.31719,-2.85575 0.0179,-3.11698 1.38698,-4.76098 4.41935,-7.75831 1.16789,-0.94119 2.41318,-0.5762 3.97689,-0.61594 1.52914,-0.0389 2.94303,-0.25731 3.83063,-0.71115 0.54984,-0.28114 0.96906,-0.6287 1.26849,-1.06856 0.45082,-0.66223 -0.038,-1.9632 0.57494,-2.70253 1.1401,-2.01078 2.3024,-3.21521 3.10557,-4.06882 1.41078,-1.49935 0.79604,-2.45716 -0.71465,-3.54813 -1.9072,-0.89165 -0.22983,-2.16511 0.56546,-3.05675 0.36656,-1.06687 -0.40199,-1.72022 -1.68175,-1.95796 l -12.62844,0.30464 c -2.25584,0.20888 -0.66146,-2.47737 0.80472,-4.66253 0.6351,-0.94652 0.11662,-1.9006 -0.27958,-2.00248 -0.66847,-0.17189 -3.55085,0.70252 -5.86837,6.6952 -5.04842,0.004 -8.03319,0.28536 -11.94435,1.98503 -1.09728,-1.24578 -1.75601,-2.17736 -2.41494,-2.97435 -0.75505,-0.91325 -1.08082,-1.84068 -2.92608,-2.47982 -2.58777,-0.47405 -4.34591,-0.51754 -7.23376,-0.13156 z m -4.0625,25.10194 c 1.60997,0.0498 2.61805,1.44447 2.13675,4.70477 -1.26006,1.15681 -3.08327,1.00591 -4.5149,1.62021 -0.66994,-3.31963 -0.37249,-4.29081 0.0816,-4.98867 0.82855,-1.15279 1.1213,-1.26403 2.29656,-1.33631 z m 12.49877,0.28471 c 1.89549,-0.84281 2.73699,-1.94912 3.86411,-2.98402 1.13282,2.88588 0.96749,4.84449 1.06676,6.99211 l -2.69731,0.0876 z"
           id="path4738"
           inkscape:connector-curvature="0"
           sodipodi:nodetypes="ccccccccccccccccssccscccssccsccsccsccscsccscccccssccccsccccssscccccccccccscscsscssscsccccssccsccccccccccccc" />
        <path
           style="color:#000000;font-style:normal;font-variant:normal;font-weight:normal;font-stretch:normal;font-size:medium;line-height:normal;font-family:sans-serif;text-indent:0;text-align:start;text-decoration:none;text-decoration-line:none;text-decoration-style:solid;text-decoration-color:#000000;letter-spacing:normal;word-spacing:normal;text-transform:none;direction:ltr;block-progression:tb;writing-mode:lr-tb;baseline-shift:baseline;text-anchor:start;white-space:normal;clip-rule:nonzero;display:inline;overflow:visible;visibility:visible;opacity:1;isolation:auto;mix-blend-mode:normal;color-interpolation:sRGB;color-interpolation-filters:linearRGB;solid-color:#000000;solid-opacity:1;fill:#d8c27d;fill-opacity:1;fill-rule:evenodd;stroke:none;stroke-width:0.5;stroke-linecap:butt;stroke-linejoin:round;stroke-miterlimit:4;stroke-dasharray:none;stroke-dashoffset:0;stroke-opacity:1;color-rendering:auto;image-rendering:auto;shape-rendering:auto;text-rendering:auto;enable-background:accumulate"
           d="m 609.34323,459.84398 c 0.0454,0.87513 1.26206,0.47648 1.87785,1.19842 0.44185,-0.50315 0.55718,-1.98587 0.55767,-3.81313 3.28062,0.22036 6.46407,-0.33663 10.16633,3.25683 1.3862,-0.67878 0.85764,-1.79721 0.99192,-2.89329 1.13115,-0.0436 2.37944,0.12013 3.28898,-0.50453 1.0495,-0.72078 2.42189,-1.29375 4.11408,-1.56035 2.77053,-0.43649 5.11048,-1.81996 5.66746,-3.03758 l 1.30058,0.84165 c -0.47187,1.43582 -3.1989,1.14408 -4.00732,2.04798 -0.60127,0.67228 -0.54111,1.08407 -0.5373,1.73351 -0.0132,0.33872 0.97838,-0.11595 1.16901,0.1519 0.17942,0.25212 -0.31084,1.18386 0.0744,1.34385 0.38055,0.12302 0.99547,-0.873 1.39035,-1.04786 0.29676,-0.1314 0.38586,0.59711 0.62033,0.41598 0.5217,-0.40299 0.69743,-1.17791 1.28203,-1.35653 1.4853,-0.44069 3.3279,-0.57736 4.83219,-0.77766 3.25235,-1.39636 -1.03023,-4.30367 -2.08046,-6.37939 0.45413,-3.84503 3.61195,-5.55543 5.34229,-5.58046 2.36169,-0.0342 5.69653,3.22437 7.03598,5.48655 0.72507,1.22455 0.58037,1.9209 0.65621,2.70895 -2.72441,0.61708 -6.95503,-0.81429 -6.80596,3.71073 0.83314,1.4787 2.51329,-1.45383 4.03381,-0.71643 -1.08002,1.11912 -2.57586,1.98486 -1.82433,3.56187 1.41915,0.61369 2.49436,-1.92491 4.93194,-1.55388 0.17665,-0.46324 -0.87885,-3.85802 0.56367,-3.04388 0.25355,0.1431 0.51559,1.33287 1.3761,2.38237 1.12484,-1.21191 2.79925,-1.92423 5.31052,-1.87575 0.0977,-1.13916 -0.0158,-2.22325 -2.76942,-2.61859 0.10744,-1.53582 3.50639,-1.4259 -1.35407,-5.44568 0.10806,-0.2114 0.65414,-0.56574 1.3562,-0.29438 0.89841,0.34725 3.72406,0.68152 6.60066,-0.0349 6.0795,-1.51416 11.25136,-6.15562 6.36073,-16.3562 -1.29855,-2.37862 -3.40002,-4.64822 -5.25018,-7.48211 -2.97647,-4.55908 -5.16419,-8.90348 -4.06185,-10.22895 0.98778,-1.18772 2.35987,0.35976 5.05419,7.85235 0.40791,1.13436 1.20175,2.53463 1.61106,3.28716 0.64303,0.69853 1.91649,0.67222 3.14962,0.30856 -0.0333,0.83093 -0.33409,1.66186 0.36616,2.49279 0.76804,0.69171 1.38381,0.4698 1.99812,0.23914 0.51345,0.82769 0.88399,1.60775 2.30292,2.73727 0.76554,-0.0279 0.92484,-0.7832 0.90929,-1.74837 0.94783,0.593 1.55628,0.33751 2.20087,0.1724 -0.61715,-1.17187 0.11601,-1.44981 0.50532,-1.28578 1.32553,0.0254 1.48735,-0.33704 1.92588,-0.60727 -0.84403,-0.97274 -1.19685,-1.35387 -2.40716,-1.3441 0.80665,-0.90626 0.0635,-1.80149 0.0198,-2.63847 -0.79963,-0.005 -1.59925,0.75799 -2.39888,-0.52356 -1.17673,-2.25184 -1.00386,-2.22026 -3.21716,-2.47295 -4.32817,-3.55871 -4.30933,-8.83045 -8.94921,-11.35778 -1.58542,-0.86357 -3.15996,-1.02134 -4.7909,0.24651 -0.77547,0.60283 -2.67129,3.21958 -1.95588,7.82992 0.69427,7.71027 11.07066,13.52529 7.78339,20.6853 -0.97008,1.92599 -3.80404,2.69951 -10.29677,0.99902 1.13437,-0.93603 0.99661,-1.50215 -0.13196,-2.03951 -2.3126,-1.10113 -3.98141,-0.87422 -5.33049,-1.48635 -0.84264,-0.38234 -1.41908,-1.38006 -2.41064,-1.5163 -3.26933,0.59419 -6.99544,2.14344 -12.02606,6.42033 -0.14404,-0.45348 -0.98823,-0.80316 0.16487,-2.14555 0.7946,-0.92502 0.28276,-1.84069 -2.64496,-1.10897 -1.24071,-0.24678 -1.73717,-1.56425 -1.28097,-2.02183 2.50291,-1.20739 0.98393,-2.12232 0.54572,-3.04193 -4.19683,-1.49701 -0.73817,-2.46883 -0.47599,-3.38971 -2.80587,-3.47299 1.05275,-3.2435 1.88115,-4.69746 l -0.12092,-1.85135 c -7.12334,2.52589 -11.51116,4.19722 -14.05564,7.71848 -2.36429,3.2719 -2.27949,6.02602 -0.0475,12.93708 -1.38849,1.64916 -0.52155,3.64531 -4.53887,4.89003 -4.3571,-2.58185 -6.17963,-4.21862 -6.86149,-5.43005 -0.61887,-1.09951 -0.29807,-1.84865 -0.0798,-2.63601 0.6349,-1.04451 1.07562,-0.5257 2.02112,-1.01232 0.51467,-0.26489 0.98046,-0.49204 1.27273,-0.56967 2.45957,-0.65327 1.61481,0.0914 2.06753,-1.5016 -0.0979,-0.82734 -0.40447,-1.3671 -0.96702,-1.94516 l -1.63186,-0.39966 -0.71084,1.00428 -1.01489,0.41369 -0.49413,0.71516 -1.6471,0.11363 0.66526,-0.90617 0.16048,-0.93483 1.29926,-0.12547 0.61868,-0.97928 c 1.35202,0.0158 1.86906,-0.30244 2.52187,-0.56635 l 0.66088,-1.62237 c -1.56891,-0.66589 -2.65872,-1.3354 -3.40239,-2.07632 -0.62466,-0.62235 -0.46218,-1.47605 -1.76425,-1.87702 -2.73129,-0.63203 -3.83213,1.31749 -4.83905,3.41574 -1.51846,0.38207 -3.09154,0.40224 -4.58181,1.10489 -0.47571,0.31684 -0.69358,0.42926 -0.31895,2.51629 l -2.61053,0.16136 c -0.88709,2.57127 2.47362,3.26398 5.21801,4.85786 -0.30711,8.58207 6.5942,12.08166 9.27741,15.88818 0.66096,1.28609 0.0471,1.96833 -2.10198,1.92334 0.19567,-1.94163 -1.96636,-1.32909 -3.4076,-1.49741 -1.17674,-2.59385 -2.35348,0.0824 -3.53022,1.178 0.49881,0.33067 1.19269,0.59632 2.57252,0.63332 -1.24078,1.06014 -1.82226,2.17522 -1.29063,3.38307 1.49726,-1.49162 2.92159,-1.2832 4.11213,-0.37507 2.58372,-1.43001 2.93784,0.4811 3.23776,1.3678 z m -0.38038,-30.50122 -2.07547,1.21599 0.34134,-1.41449 z"
           id="path4740"
           inkscape:connector-curvature="0"
           sodipodi:nodetypes="cccccssccscscsscccsscccccsccccsscssscccccccccccccsscccssccsccccccsccscsscccccccccccccsccccccccccccccccccc" />
        <path
           sodipodi:nodetypes="cccsccccc"
           inkscape:connector-curvature="0"
           id="path4742"
           d="m 421.99278,487.5 85.00222,0 -65.65748,-81.0359 c 43.134,-8.96957 53.25647,-43.1059 53.60079,-69.20044 C 495.53101,292.34515 461.83366,266.21664 415.621,265 l -34.621,0 0,3.34523 -43.81472,135.5543 z"
           style="fill:#6b1812;fill-opacity:1;fill-rule:evenodd;stroke:#d8c27d;stroke-width:5.5;stroke-linecap:butt;stroke-linejoin:miter;stroke-miterlimit:4;stroke-dasharray:none;stroke-opacity:1" />
        <g
           id="g4744">
          <path
             inkscape:connector-curvature="0"
             id="path4746"
             d="m 432.60258,341.75558 a 77.892777,77.892773 0 0 1 -77.89277,77.89276 77.892777,77.892773 0 0 1 -77.89276,-77.89276 77.892777,77.892773 0 0 1 77.89276,-77.89278 77.892777,77.892773 0 0 1 77.89277,77.89278 z"
             style="fill:#040707;fill-opacity:1;stroke:#040707;stroke-width:3.20000005;stroke-linecap:round;stroke-linejoin:round;stroke-miterlimit:4;stroke-dasharray:none;stroke-opacity:1" />
          <path
             sodipodi:nodetypes="csccccccscccscccsccsccccccscccccscccccccscccccccsccccccccscccccscccc"
             inkscape:connector-curvature="0"
             id="path4748"
             d="m 350.79431,265.56145 c 1.29657,-0.0654 2.60172,-0.0986 3.91464,-0.0986 l 3e-5,4e-5 c 27.6092,-1e-5 51.77996,14.64436 65.1729,36.59371 -15.62144,-15.05234 -41.66437,-29.62384 -71.4756,-28.79971 -1.41019,0.17233 -2.02702,-1.10754 -1.54373,-1.75606 z m 73.32548,44.46872 c 1.66457,3.63828 3.05156,7.43039 4.13392,11.34931 1.10362,3.99586 1.89054,8.12355 2.33208,12.35439 -0.81737,2.50695 -1.51712,5.55505 -3.67025,8.69027 -0.89439,1.24543 -1.45346,2.653 -2.57231,0.99714 -8.16978,-11.76083 -25.23881,-22.65026 -43.4031,-30.55474 -16.60757,-7.22705 -34.71138,-12.34596 -49.88698,-14.76812 -4.04141,-0.68485 -3.89665,-2.61422 -3.52728,-4.02114 2.75582,-7.26267 12.33173,-17.07646 16.53053,-18.87136 13.85882,0.002 26.81317,2.33214 38.55716,6.58726 16.51122,5.9824 31.74434,16.14057 41.50623,28.23699 z m 6.82023,28.62117 c 0.0412,1.0297 0.0619,2.06467 0.0619,3.10452 0,14.49458 -4.03622,28.04148 -11.04668,39.57872 -6.21942,7.45288 -15.22139,13.80278 -25.24985,17.55819 -4.59416,1.8337 -3.33117,0.89732 -1.42338,-2.19641 4.75056,-7.72024 7.54761,-15.19475 8.45205,-20.4389 12.61684,-10.6912 22.4257,-23.17951 29.20596,-37.60612 z m -18.05007,52.4737 c -4.64722,5.47211 -10.05314,10.27944 -16.05567,14.25991 -6.47729,4.29529 -13.64929,7.62773 -21.31231,9.79364 0.1452,-1.20472 0.52152,-1.94948 1.30569,-2.65039 l 12.79995,-10.14463 c 6.90886,-1.29231 13.91845,-4.64076 23.26234,-11.25853 z m -44.80874,25.75724 c -4.34145,0.76666 -8.80991,1.16655 -13.37226,1.16655 -8.53736,0 -16.74586,-1.40027 -24.40854,-3.9838 19.20299,-12.03002 38.03231,-24.7373 49.9086,-50.04696 0.62082,-1.38359 1.31947,-2.07301 2.2578,-1.31837 5.88686,3.85155 10.90309,7.87302 15.75752,12.41286 1.17309,1.22538 0.90612,3.2126 0.51732,4.34109 -3.62311,14.09843 -12.81125,26.82841 -30.66044,37.42863 z m -41.00255,-3.98533 c -6.36199,-2.47086 -12.30954,-5.7702 -17.7104,-9.76576 -3.00584,-2.22373 -5.84236,-4.66312 -8.48674,-7.29536 21.638,-12.68025 40.91555,-26.72708 52.40064,-45.28534 0.88979,-1.33176 1.83547,-2.98195 3.75702,-2.38514 7.31986,2.7992 14.16595,6.6827 20.11989,10.36529 1.3669,0.81458 1.65554,1.53224 1.30654,2.68093 -6.49838,21.0647 -28.85346,39.5356 -51.38695,51.68538 z M 297.24201,391.9525 c -2.8338,-3.24215 -5.39749,-6.72652 -7.65608,-10.41811 -2.95711,-4.83328 -5.39122,-10.02176 -7.22378,-15.4869 14.38347,-7.87439 28.98453,-15.67625 37.77597,-25.41465 2.86331,-3.10148 5.94685,-3.02974 8.33878,-2.30185 l 18.5558,5.78859 c 3.19935,1.34419 4.39007,3.41164 3.23512,6.67224 -2.43091,7.36373 -26.45205,30.61456 -46.91412,40.17581 -3.23274,1.41838 -4.91071,2.01526 -6.11169,0.98487 z M 281.24949,362.432 c -1.84492,-6.57481 -2.83155,-13.50964 -2.83155,-20.67614 -10e-6,-25.65692 12.64583,-48.34448 32.04841,-62.17273 0.83509,-0.49774 3.29794,-0.0644 4.22536,2.3481 -29.02734,16.80988 -29.44898,59.70169 -24.79948,75.20475 -0.24952,2.51188 -5.23216,7.4341 -8.64274,5.29602 z m 31.95856,-84.71453 c 5.5124,-3.57849 11.51654,-6.46437 17.88942,-8.5346 4.68356,-1.52146 9.56627,-2.60239 14.59932,-3.19396 0.34323,1.62277 -0.0665,5.9527 -3.51279,7.07873 -9.50651,0.90159 -19.33925,5.04638 -25.35867,8.06494 -0.86233,-1.3705 -2.28168,-2.51788 -3.61728,-3.41511 z"
             style="color:#000000;font-style:normal;font-variant:normal;font-weight:normal;font-stretch:normal;font-size:medium;line-height:normal;font-family:sans-serif;text-indent:0;text-align:start;text-decoration:none;text-decoration-line:none;text-decoration-style:solid;text-decoration-color:#000000;letter-spacing:normal;word-spacing:normal;text-transform:none;direction:ltr;block-progression:tb;writing-mode:lr-tb;baseline-shift:baseline;text-anchor:start;white-space:normal;clip-rule:nonzero;display:inline;overflow:visible;visibility:visible;opacity:1;isolation:auto;mix-blend-mode:normal;color-interpolation:sRGB;color-interpolation-filters:linearRGB;solid-color:#000000;solid-opacity:1;fill:#653e2d;fill-opacity:1;fill-rule:nonzero;stroke:none;stroke-width:0.5;stroke-linecap:round;stroke-linejoin:round;stroke-miterlimit:4;stroke-dasharray:none;stroke-dashoffset:0;stroke-opacity:1;color-rendering:auto;image-rendering:auto;shape-rendering:auto;text-rendering:auto;enable-background:accumulate" />
          <path
             sodipodi:nodetypes="csccccccc"
             inkscape:connector-curvature="0"
             id="path4750"
             d="m 325.05142,300.36939 c 13.0237,0.70767 30.5625,5.20129 45.95202,11.0768 22.67443,8.6568 45.12631,22.43174 49.98827,31.75137 0.76303,1.64441 0.44507,3.95355 0,4.81654 -3.21438,6.5605 -10.50529,15.92364 -19.15831,23.90514 -1.08182,0.88618 -3.10769,0.72175 -4.19725,-0.34315 -13.1426,-13.65619 -45.61448,-31.86789 -75.58533,-36.71639 -2.05184,-0.37495 -3.74352,-1.71815 -4.02894,-3.32413 -2.08748,-14.52401 3.20715,-30.81064 7.02954,-31.16618 z"
             style="fill:#8b6139;fill-opacity:1;fill-rule:evenodd;stroke:none;stroke-width:0.5;stroke-linecap:butt;stroke-linejoin:miter;stroke-miterlimit:4;stroke-dasharray:none;stroke-opacity:1" />
          <path
             sodipodi:nodetypes="csscscsccsc"
             inkscape:connector-curvature="0"
             id="path4752"
             d="m 291.24477,356.26744 c -1.8954,-4.73515 -1.08298,-11.153 -1.06056,-16.28999 0.0653,-14.96398 3.14692,-27.39058 7.72662,-36.83338 9.1871,-18.94271 26.93179,-23.85671 40.12634,-26.72739 -8.16643,8.8597 -14.78192,16.16504 -18.65662,25.80283 -3.54444,8.81633 -5.02639,18.54492 -4.16901,29.30822 -0.0876,1.17991 0.11638,1.98043 0.52965,2.66189 0.54894,0.90518 1.95808,1.27303 2.56198,2.69551 0.80363,1.53541 -0.81551,3.1356 -2.62108,4.92784 -3.07345,3.3556 -7.79776,6.68733 -12.21478,9.42606 -5.48526,3.40108 -11.07465,7.1879 -12.22254,5.02841 z"
             style="fill:#9f7644;fill-opacity:1;fill-rule:evenodd;stroke:none;stroke-width:0.5;stroke-linecap:butt;stroke-linejoin:miter;stroke-miterlimit:4;stroke-dasharray:none;stroke-opacity:1" />
          <path
             sodipodi:nodetypes="sssss"
             inkscape:connector-curvature="0"
             id="path4754"
             d="m 332.25705,345.71161 c -0.25209,0.50612 -0.39068,1.25459 -1.73788,1.4771 -0.93345,0.15417 -2.40639,-0.72929 -2.59073,-1.39716 -0.18157,-0.65783 0.50213,-1.54617 1.32696,-1.7897 1.46585,-0.4328 3.58302,0.54256 3.00165,1.70976 z"
             style="fill:#93673a;fill-opacity:1;stroke:none;stroke-width:0.5;stroke-linecap:round;stroke-linejoin:round;stroke-miterlimit:4;stroke-dasharray:none;stroke-opacity:1" />
          <path
             sodipodi:nodetypes="sssss"
             inkscape:connector-curvature="0"
             id="path4756"
             d="m 324.01163,344.10538 c -7e-4,0.56656 -0.49333,0.4423 -0.8432,0.69425 -0.94167,0.67811 -2.15523,-0.37101 -1.91972,-1.28532 0.13977,-0.54262 0.45953,-0.66614 1.27104,-0.95094 0.55825,-0.19592 1.49286,0.74559 1.49188,1.54201 z"
             style="fill:#93673a;fill-opacity:1;stroke:none;stroke-width:0.5;stroke-linecap:round;stroke-linejoin:round;stroke-miterlimit:4;stroke-dasharray:none;stroke-opacity:1" />
          <path
             sodipodi:nodetypes="sssss"
             inkscape:connector-curvature="0"
             id="path4758"
             d="m 325.27109,350.18672 c -0.25623,0.48289 -0.26122,0.13408 -0.8432,0.69425 -0.68165,0.65609 -1.71203,-0.2188 -1.55626,-0.8939 0.12598,-0.54599 0.41575,-0.86076 1.27104,-0.95094 0.76076,-0.0802 1.45581,0.5336 1.12842,1.15059 z"
             style="fill:#93673a;fill-opacity:1;stroke:none;stroke-width:0.5;stroke-linecap:round;stroke-linejoin:round;stroke-miterlimit:4;stroke-dasharray:none;stroke-opacity:1" />
          <path
             style="color:#000000;font-style:normal;font-variant:normal;font-weight:normal;font-stretch:normal;font-size:medium;line-height:normal;font-family:sans-serif;text-indent:0;text-align:start;text-decoration:none;text-decoration-line:none;text-decoration-style:solid;text-decoration-color:#000000;letter-spacing:normal;word-spacing:normal;text-transform:none;direction:ltr;block-progression:tb;writing-mode:lr-tb;baseline-shift:baseline;text-anchor:start;white-space:normal;clip-rule:nonzero;display:inline;overflow:visible;visibility:visible;opacity:1;isolation:auto;mix-blend-mode:normal;color-interpolation:sRGB;color-interpolation-filters:linearRGB;solid-color:#000000;solid-opacity:1;fill:#4a2c25;fill-opacity:1;fill-rule:nonzero;stroke:none;stroke-width:0.5;stroke-linecap:round;stroke-linejoin:round;stroke-miterlimit:4;stroke-dasharray:none;stroke-dashoffset:0;stroke-opacity:1;color-rendering:auto;image-rendering:auto;shape-rendering:auto;text-rendering:auto;enable-background:accumulate"
             d="m 412.88995,391.12504 c -4.64722,5.47211 -10.05314,10.27944 -16.05567,14.25991 -6.47729,4.29529 -13.64929,7.62773 -21.31231,9.79364 0.1452,-1.20472 0.52152,-1.94948 1.30569,-2.65039 l 12.79995,-10.14463 c 6.90886,-1.29231 13.91845,-4.64076 23.26234,-11.25853 z m -19.57252,1.65293 c -5.10925,8.84694 -13.20529,16.95942 -25.23622,24.10431 -4.34145,0.76666 -8.80991,1.16655 -13.37226,1.16655 -8.53736,0 -16.74586,-1.40027 -24.40854,-3.9838 9.35252,-5.85903 18.6164,-11.87872 27.03156,-19.43671 -0.13543,1.04997 0.18206,1.53378 1.04611,1.3344 7.32939,-1.20262 17.50922,-0.77641 26.39016,-1.09242 1.47493,0.0835 0.91995,-1.52456 1.01921,-2.58744 1.42874,0.51214 2.30454,0.19487 3.25361,-0.0125 l 0.90181,0.73882 c 0.6886,0.23454 1.02023,0.72406 3.37456,-0.23121 z m -39.97427,2.48102 c -8.02984,6.75209 -17.13252,12.71411 -26.2645,17.63796 -6.36199,-2.47086 -12.30954,-5.7702 -17.7104,-9.76576 -3.00584,-2.22373 -5.84236,-4.66312 -8.48674,-7.29536 5.74638,-3.36748 11.32628,-6.83134 16.63796,-10.45048 1.6378,0.2862 2.46243,0.73504 5.64202,0.71288 -0.21381,0.67471 0.1488,1.11885 0.7789,1.456 l 1.96491,0.86158 c -0.6578,1.18284 -0.11381,1.40424 -0.005,1.9738 0.76902,-0.0804 1.53805,0.0281 2.30707,0.1099 0.18061,0.51437 0.24786,0.83827 1.18701,1.35264 l 2.20837,0.004 c -0.066,0.56265 -0.60008,1.1253 0.26204,1.68795 1.20868,0.51356 1.65171,-0.24898 2.40708,-0.49093 -0.15043,0.61666 0.0756,1.23332 -0.8504,1.84998 1.02125,0.7775 3.07077,0.82052 5.26087,0.76313 0.0833,0.62331 -0.29022,1.32276 0.72295,1.79109 l 11.19736,-3.58508 z M 317.4372,382.75958 c -4.68343,3.20534 -9.47378,6.05408 -14.0835,8.20805 -3.23274,1.41838 -4.91071,2.01526 -6.11169,0.98487 -2.8338,-3.24215 -5.39749,-6.72652 -7.65608,-10.41811 -2.95711,-4.83328 -5.39122,-10.02176 -7.22378,-15.4869 7.43638,-4.07113 14.93092,-8.12287 21.65069,-12.43287 l 0.18841,1.23078 c 1.15434,0.38763 2.14927,-0.34061 3.19328,-0.72527 0.21817,0.67764 0.0813,1.08897 -0.17673,1.40949 0.42816,0.30774 1.01072,-0.15653 1.55013,-0.40506 0.33018,1.35573 -0.0189,2.28691 -0.64244,3.04656 1.02214,0.32718 2.16583,-0.19657 3.30429,-0.68365 -0.43513,0.95869 -1.19848,1.69857 -0.9769,3.09506 1.82165,0.0383 2.12064,-0.26166 2.96535,-0.44041 0.0399,0.43975 0.23114,0.87949 -0.29489,1.31924 0.26255,0.30017 0.61171,0.4964 1.46572,0.0868 -0.1103,0.62843 -0.32159,1.30736 0.25801,1.59084 1.12559,0.25763 1.39481,10e-4 1.97944,-0.0655 -0.20983,0.54795 -0.51208,1.07742 -0.14803,1.74014 1.04071,0.21921 0.92482,-0.13987 1.32881,-0.23902 -0.27295,0.56737 0.003,1.24448 0.31773,1.92941 2.08255,0.7381 2.7512,0.23592 3.18438,0.32815 -0.16649,0.82862 -0.23067,1.65725 0.19534,2.48587 1.0593,1.0461 1.80849,0.38655 2.64553,0.2102 l 0.18591,3.0327 -8.21221,8.81975 0.85538,-0.12247 z M 281.24949,362.432 c -1.84492,-6.57481 -2.83155,-13.50964 -2.83155,-20.67614 -10e-6,-25.65692 12.64583,-48.34448 32.04841,-62.17273 0.83509,-0.49774 3.29794,-0.0644 4.22536,2.3481 -29.02734,16.80988 -29.44898,59.70169 -24.79948,75.20475 -0.24952,2.51188 -5.23216,7.4341 -8.64274,5.29602 z m 31.95856,-84.71453 c 5.5124,-3.57849 11.51654,-6.46437 17.88942,-8.5346 4.68356,-1.52146 9.56627,-2.60239 14.59932,-3.19396 0.34323,1.62277 -0.0665,5.9527 -3.51279,7.07873 -9.50651,0.90159 -19.33925,5.04638 -25.35867,8.06494 -0.86233,-1.3705 -2.28168,-2.51788 -3.61728,-3.41511 z"
             id="path4760"
             inkscape:connector-curvature="0"
             sodipodi:nodetypes="csccccccsccccccccccscccccccccccccccccccscccccccccccccccccccccccccscccccscccc" />
          <path
             style="fill:#9f7644;fill-opacity:1;fill-rule:evenodd;stroke:none;stroke-width:0.5;stroke-linecap:butt;stroke-linejoin:miter;stroke-miterlimit:4;stroke-dasharray:none;stroke-opacity:1"
             d="m 369.35485,351.5833 c -14.20554,-7.59025 -31.11945,-14.10536 -47.30403,-16.7236 -2.05184,-0.37495 -3.74352,-1.71815 -4.02894,-3.32413 -2.08748,-14.52401 3.20715,-30.81064 7.02954,-31.16618 13.0237,0.70767 30.5625,5.20128 45.95202,11.0768 4.029,1.53822 8.05096,3.23803 11.96847,5.04573 -0.0858,1.26859 -1.18269,1.27943 -1.40993,2.07577 -0.22723,0.79633 0.41517,2.37815 0.0365,3.43635 -0.61385,1.71526 -1.5771,4.65219 -1.62695,6.84239 -0.0333,1.46134 1.68021,3.86659 1.82486,5.5948 l -3.47434,6.39435 0.0772,8.92915 -8.48576,-1.96226 z"
             id="path4762"
             inkscape:connector-curvature="0"
             sodipodi:nodetypes="ccccscsssccccc" />
          <path
             sodipodi:nodetypes="cscccccscccc"
             inkscape:connector-curvature="0"
             id="path4764"
             d="m 281.24949,362.432 c -1.84492,-6.57481 -2.83155,-13.50964 -2.83155,-20.67614 -10e-6,-25.65692 12.64583,-48.34448 32.04841,-62.17273 0.83509,-0.49774 3.29794,-0.0644 4.22536,2.3481 -29.02734,16.80988 -29.44898,59.70169 -24.79948,75.20475 -0.24952,2.51188 -5.23216,7.4341 -8.64274,5.29602 z m 31.95856,-84.71453 c 5.5124,-3.57849 11.51654,-6.46437 17.88942,-8.5346 4.68356,-1.52146 9.56627,-2.60239 14.59932,-3.19396 0.34323,1.62277 -0.0665,5.9527 -3.51279,7.07873 -9.50651,0.90159 -19.33925,5.04638 -25.35867,8.06494 -0.86233,-1.3705 -2.28168,-2.51788 -3.61728,-3.41511 z"
             style="color:#000000;font-style:normal;font-variant:normal;font-weight:normal;font-stretch:normal;font-size:medium;line-height:normal;font-family:sans-serif;text-indent:0;text-align:start;text-decoration:none;text-decoration-line:none;text-decoration-style:solid;text-decoration-color:#000000;letter-spacing:normal;word-spacing:normal;text-transform:none;direction:ltr;block-progression:tb;writing-mode:lr-tb;baseline-shift:baseline;text-anchor:start;white-space:normal;clip-rule:nonzero;display:inline;overflow:visible;visibility:visible;opacity:1;isolation:auto;mix-blend-mode:normal;color-interpolation:sRGB;color-interpolation-filters:linearRGB;solid-color:#000000;solid-opacity:1;fill:#9f7644;fill-opacity:1;fill-rule:nonzero;stroke:none;stroke-width:0.5;stroke-linecap:round;stroke-linejoin:round;stroke-miterlimit:4;stroke-dasharray:none;stroke-dashoffset:0;stroke-opacity:1;color-rendering:auto;image-rendering:auto;shape-rendering:auto;text-rendering:auto;enable-background:accumulate" />
          <path
             style="color:#000000;font-style:normal;font-variant:normal;font-weight:normal;font-stretch:normal;font-size:medium;line-height:normal;font-family:sans-serif;text-indent:0;text-align:start;text-decoration:none;text-decoration-line:none;text-decoration-style:solid;text-decoration-color:#000000;letter-spacing:normal;word-spacing:normal;text-transform:none;direction:ltr;block-progression:tb;writing-mode:lr-tb;baseline-shift:baseline;text-anchor:start;white-space:normal;clip-rule:nonzero;display:inline;overflow:visible;visibility:visible;opacity:1;isolation:auto;mix-blend-mode:normal;color-interpolation:sRGB;color-interpolation-filters:linearRGB;solid-color:#000000;solid-opacity:1;fill:#a37945;fill-opacity:1;fill-rule:nonzero;stroke:none;stroke-width:0.5;stroke-linecap:round;stroke-linejoin:round;stroke-miterlimit:4;stroke-dasharray:none;stroke-dashoffset:0;stroke-opacity:1;color-rendering:auto;image-rendering:auto;shape-rendering:auto;text-rendering:auto;enable-background:accumulate"
             d="m 350.79431,265.56145 c 1.29657,-0.0654 2.60172,-0.0986 3.91464,-0.0986 l 3e-5,4e-5 c 27.6092,-1e-5 51.77996,14.64436 65.1729,36.59371 -15.62144,-15.05234 -41.66437,-29.62384 -71.4756,-28.79971 -1.41019,0.17233 -2.02702,-1.10754 -1.54373,-1.75606 z"
             id="path4766"
             inkscape:connector-curvature="0"
             sodipodi:nodetypes="csccccc" />
          <path
             style="color:#000000;font-style:normal;font-variant:normal;font-weight:normal;font-stretch:normal;font-size:medium;line-height:normal;font-family:sans-serif;text-indent:0;text-align:start;text-decoration:none;text-decoration-line:none;text-decoration-style:solid;text-decoration-color:#000000;letter-spacing:normal;word-spacing:normal;text-transform:none;direction:ltr;block-progression:tb;writing-mode:lr-tb;baseline-shift:baseline;text-anchor:start;white-space:normal;clip-rule:nonzero;display:inline;overflow:visible;visibility:visible;opacity:1;isolation:auto;mix-blend-mode:normal;color-interpolation:sRGB;color-interpolation-filters:linearRGB;solid-color:#000000;solid-opacity:1;fill:#8b6139;fill-opacity:1;fill-rule:nonzero;stroke:none;stroke-width:0.5;stroke-linecap:round;stroke-linejoin:round;stroke-miterlimit:4;stroke-dasharray:none;stroke-dashoffset:0;stroke-opacity:1;color-rendering:auto;image-rendering:auto;shape-rendering:auto;text-rendering:auto;enable-background:accumulate"
             d="m 424.11979,310.03017 c 1.66457,3.63828 3.05156,7.43039 4.13392,11.34931 1.10362,3.99586 1.89054,8.12355 2.33208,12.35439 -0.81737,2.50695 -1.51712,5.55505 -3.67025,8.69027 -0.89439,1.24543 -1.45346,2.653 -2.57231,0.99714 -8.16978,-11.76083 -25.23881,-22.65026 -43.4031,-30.55474 -16.60757,-7.22705 -34.71138,-12.34596 -49.88698,-14.76812 -4.04141,-0.68485 -3.89665,-2.61422 -3.52728,-4.02114 2.75582,-7.26267 12.33173,-17.07646 16.53053,-18.87136 13.85882,0.002 26.81317,2.33214 38.55716,6.58726 16.51122,5.9824 31.74434,16.14057 41.50623,28.23699 z"
             id="path4768"
             inkscape:connector-curvature="0"
             sodipodi:nodetypes="cscccscccsc" />
          <path
             sodipodi:nodetypes="cscccscccccccccccccccc"
             inkscape:connector-curvature="0"
             id="path4770"
             d="m 393.24134,318.78809 c -3.97822,-2.11542 -8.11057,-4.09793 -12.30121,-5.92155 -16.60757,-7.22705 -34.71138,-12.34596 -49.88698,-14.76812 -4.04141,-0.68485 -3.89665,-2.61422 -3.52728,-4.02114 2.75582,-7.26267 12.33173,-17.07646 16.53053,-18.87136 13.85882,0.002 26.81317,2.33214 38.55716,6.58726 11.98877,4.34381 23.3037,10.88916 32.33961,18.77951 l -2.12469,1.12723 -1.12498,1.50325 -3.07527,0.58127 -1.2945,1.84742 -1.72562,0.43536 -0.99759,1.48838 -2.03592,0.59984 -1.20276,1.69022 -2.2475,0.38042 -0.40666,1.95286 -2.13827,0.6083 0.64939,2.07477 -2.22631,0.55032 0.285,2.21094 z"
             style="color:#000000;font-style:normal;font-variant:normal;font-weight:normal;font-stretch:normal;font-size:medium;line-height:normal;font-family:sans-serif;text-indent:0;text-align:start;text-decoration:none;text-decoration-line:none;text-decoration-style:solid;text-decoration-color:#000000;letter-spacing:normal;word-spacing:normal;text-transform:none;direction:ltr;block-progression:tb;writing-mode:lr-tb;baseline-shift:baseline;text-anchor:start;white-space:normal;clip-rule:nonzero;display:inline;overflow:visible;visibility:visible;opacity:1;isolation:auto;mix-blend-mode:normal;color-interpolation:sRGB;color-interpolation-filters:linearRGB;solid-color:#000000;solid-opacity:1;fill:#9f7644;fill-opacity:1;fill-rule:nonzero;stroke:none;stroke-width:0.5;stroke-linecap:round;stroke-linejoin:round;stroke-miterlimit:4;stroke-dasharray:none;stroke-dashoffset:0;stroke-opacity:1;color-rendering:auto;image-rendering:auto;shape-rendering:auto;text-rendering:auto;enable-background:accumulate" />
          <path
             style="color:#000000;font-style:normal;font-variant:normal;font-weight:normal;font-stretch:normal;font-size:medium;line-height:normal;font-family:sans-serif;text-indent:0;text-align:start;text-decoration:none;text-decoration-line:none;text-decoration-style:solid;text-decoration-color:#000000;letter-spacing:normal;word-spacing:normal;text-transform:none;direction:ltr;block-progression:tb;writing-mode:lr-tb;baseline-shift:baseline;text-anchor:start;white-space:normal;clip-rule:nonzero;display:inline;overflow:visible;visibility:visible;opacity:1;isolation:auto;mix-blend-mode:normal;color-interpolation:sRGB;color-interpolation-filters:linearRGB;solid-color:#000000;solid-opacity:1;fill:#be956a;fill-opacity:1;fill-rule:nonzero;stroke:none;stroke-width:0.5;stroke-linecap:round;stroke-linejoin:round;stroke-miterlimit:4;stroke-dasharray:none;stroke-dashoffset:0;stroke-opacity:1;color-rendering:auto;image-rendering:auto;shape-rendering:auto;text-rendering:auto;enable-background:accumulate"
             d="m 366.79004,307.3239 c -12.32893,-4.3302 -24.79417,-7.47892 -35.73689,-9.22548 -4.04141,-0.68485 -3.89665,-2.61422 -3.52728,-4.02114 2.75582,-7.26267 12.33173,-17.07646 16.53053,-18.87136 13.85882,0.002 26.81317,2.33214 38.55716,6.58726 3.9251,1.42216 7.77798,3.0803 11.50229,4.94436 l -1.6793,1.19258 -0.15121,2.4308 -2.52442,-1.1138 -1.2034,1.55617 -5.29002,-0.54228 -0.58311,1.23591 1.22262,2.09978 -0.12167,1.06564 -0.36343,3.18286 -3.62711,-0.14302 -0.36937,1.39254 -1.05579,0.79807 -1.15035,2.02458 -1.44546,0.91309 -2.42314,-0.49219 -1.41258,1.39007 -2.83199,1.32938 -0.16181,1.42196 z"
             id="path4772"
             inkscape:connector-curvature="0"
             sodipodi:nodetypes="ccccscccccccccccccccccccc" />
          <path
             sodipodi:nodetypes="sssss"
             inkscape:connector-curvature="0"
             id="path4774"
             d="m 286.16297,351.27116 c -0.2561,0.54275 -0.18829,0.33476 -0.8432,0.69425 -0.82937,0.45525 -1.71203,-0.2188 -1.55626,-0.8939 0.12598,-0.54599 0.41575,-0.86076 1.27104,-0.95094 0.76076,-0.0802 1.42648,0.51892 1.12842,1.15059 z"
             style="fill:#643d2d;fill-opacity:1;stroke:none;stroke-width:0.5;stroke-linecap:round;stroke-linejoin:round;stroke-miterlimit:4;stroke-dasharray:none;stroke-opacity:1" />
          <path
             sodipodi:nodetypes="sssss"
             inkscape:connector-curvature="0"
             id="path4776"
             d="m 284.78907,356.99611 c -0.2561,0.48194 -1.01502,1.23878 -1.93093,1.13497 -0.94009,-0.10655 -1.45143,-0.57395 -1.29566,-1.24905 0.12598,-0.54599 0.41575,-0.86076 1.27104,-0.95094 0.76076,-0.0802 2.28332,0.44824 1.95555,1.06502 z"
             style="fill:#643d2d;fill-opacity:1;stroke:none;stroke-width:0.5;stroke-linecap:round;stroke-linejoin:round;stroke-miterlimit:4;stroke-dasharray:none;stroke-opacity:1" />
          <path
             sodipodi:nodetypes="cccccccccscc"
             inkscape:connector-curvature="0"
             id="path4778"
             d="m 290.12086,375.21091 c 1.59122,3.51952 4.20346,7.77096 8.1913,11.46782 2.54634,2.08066 5.85972,0.98614 7.55832,0 9.64435,-5.92526 21.91487,-15.71894 31.06048,-24.9207 4.08315,-4.0895 2.83779,-3.43808 -0.73578,-0.54488 -9.07507,6.99313 -17.70924,13.47974 -30.43639,20.7742 -1.35499,0.5584 -2.36001,0.70746 -3.3424,0.61559 -2.50351,-0.29472 -4.00885,-1.26794 -5.29317,-2.62816 -1.63068,-1.65326 -3.17892,-3.90913 -4.69391,-5.80639 -0.71455,-0.85542 -1.76981,-1.69568 -2.27518,-1.63283 -0.38471,0.0478 -0.75455,0.72692 -0.0333,2.67535 z"
             style="fill:#93673a;fill-opacity:1;fill-rule:evenodd;stroke:none;stroke-width:0.5;stroke-linecap:butt;stroke-linejoin:miter;stroke-miterlimit:4;stroke-dasharray:none;stroke-opacity:1" />
          <path
             sodipodi:nodetypes="cccccccc"
             inkscape:connector-curvature="0"
             id="path4780"
             d="m 297.56041,308.44128 c -5.52284,11.28115 -6.76798,25.41572 -4.47029,42.0259 0.48994,2.56949 2.5228,1.59144 4.34137,0.99304 1.95613,-0.65415 3.78254,-1.6603 4.33794,-3.22741 0.0631,-0.94816 -0.59288,-1.98976 -1.40407,-1.85927 -0.62928,0.43607 -3.19277,2.9078 -4.59686,1.68178 -3.01333,-13.36188 -0.50625,-26.69145 2.49965,-39.36737 1.02339,-3.77044 0.60703,-3.03668 -0.70774,-0.24667 z"
             style="fill:#ffffff;fill-rule:evenodd;stroke:none;stroke-width:0.5;stroke-linecap:butt;stroke-linejoin:miter;stroke-miterlimit:4;stroke-dasharray:none;stroke-opacity:1" />
          <path
             sodipodi:nodetypes="sssss"
             inkscape:connector-curvature="0"
             id="path4782"
             d="m 324.29536,282.86332 c -0.25623,0.48289 0.15241,0.0422 -0.42962,0.60234 -0.68165,0.65609 -1.71203,-0.2188 -1.55626,-0.8939 0.12598,-0.54599 0.23194,-0.53909 1.08723,-0.62927 0.76076,-0.0802 1.22604,0.30384 0.89865,0.92083 z"
             style="fill:#be956a;fill-opacity:1;stroke:none;stroke-width:0.5;stroke-linecap:round;stroke-linejoin:round;stroke-miterlimit:4;stroke-dasharray:none;stroke-opacity:1" />
          <path
             sodipodi:nodetypes="sssss"
             inkscape:connector-curvature="0"
             id="path4784"
             d="m 318.17832,287.85319 c -0.25623,0.48289 -0.49098,0.54766 -1.07296,1.10783 -0.68165,0.65609 -2.03371,-0.26475 -1.87794,-0.93985 0.12598,-0.54599 0.96719,-1.22839 1.82248,-1.31857 0.76076,-0.0802 1.45581,0.5336 1.12842,1.15059 z"
             style="fill:#be956a;fill-opacity:1;stroke:none;stroke-width:0.5;stroke-linecap:round;stroke-linejoin:round;stroke-miterlimit:4;stroke-dasharray:none;stroke-opacity:1" />
          <path
             sodipodi:nodetypes="ccccccccc"
             inkscape:connector-curvature="0"
             id="path4786"
             d="m 318.1513,402.95548 c 1.53593,1.46515 3.2662,2.95906 4.99345,4.56028 2.54634,2.08066 5.85972,0.98614 7.55832,0 9.64435,-5.92526 20.5232,-14.59235 29.66881,-23.79411 4.08315,-4.0895 2.83779,-3.43808 -0.73578,-0.54488 -9.00979,6.99217 -17.42231,14.6373 -30.83401,20.57539 -1.35499,0.5584 -2.36001,0.70746 -3.3424,0.61559 -2.50351,-0.29472 -3.61123,-1.06913 -4.89555,-2.42935 -1.43875,-2.20829 -4.438,-1.46838 -2.41284,1.01708 z"
             style="fill:#93673a;fill-opacity:1;fill-rule:evenodd;stroke:none;stroke-width:0.5;stroke-linecap:butt;stroke-linejoin:miter;stroke-miterlimit:4;stroke-dasharray:none;stroke-opacity:1" />
          <path
             sodipodi:nodetypes="cssssssssssssssc"
             inkscape:connector-curvature="0"
             id="path4788"
             d="m 347.53229,411.38747 c 0.1384,0.0727 -0.0743,2.7517 -1.08104,1.80552 0,0 -1.20773,-0.20766 -1.4615,0.0469 -0.22206,0.22274 -0.1864,0.57761 -0.5444,0.78021 -0.4558,0.25793 -1.22985,0.33005 -1.51635,0.35726 -0.26697,0.0254 0.63568,-1.26573 0.38439,-1.24964 -0.56437,0.0361 -1.03307,0.0395 -1.15386,-0.032 -0.46316,-0.27412 1.71487,-1.19115 1.60715,-1.58142 -0.0346,-0.12539 0.0716,-0.91215 -0.22748,-1.2656 -0.42897,-0.50688 -1.29501,-0.61834 -1.24433,-0.8115 0.0566,-0.21553 0.0452,-1.36943 0.89752,-1.67638 0.4945,-0.17808 0.29854,1.06464 1.86189,0.89374 0.72115,-0.0788 0.75367,1.08359 0.64928,1.11696 -0.44715,0.14295 0.52305,0.39983 0.97593,0.87517 0.60946,0.63969 0.8528,1.44672 0.8528,0.74075 z"
             style="fill:#0f0b0a;fill-opacity:1;stroke:none;stroke-width:0.5;stroke-linecap:round;stroke-linejoin:round;stroke-miterlimit:4;stroke-dasharray:none;stroke-opacity:1" />
          <path
             sodipodi:nodetypes="ccccsccc"
             inkscape:connector-curvature="0"
             id="path4790"
             d="m 381.14993,401.78604 c 4.08315,-4.0895 2.97724,-4.32124 -0.6893,-0.96322 -4.13207,3.24812 -6.36962,5.24418 -8.16809,6.58752 -7.07273,4.84803 -11.71591,3.66906 -17.14821,3.60165 -0.93191,0.0837 -1.74118,0.22262 -2.31436,0.45254 -0.84436,0.33869 -1.17641,0.8749 -0.63349,1.72322 1.82777,1.37188 4.5686,1.60763 7.10663,1.43026 11.06294,-1.22736 18.66952,-9.64729 21.84682,-12.83197 z"
             style="fill:#93673a;fill-opacity:1;fill-rule:evenodd;stroke:none;stroke-width:0.5;stroke-linecap:butt;stroke-linejoin:miter;stroke-miterlimit:4;stroke-dasharray:none;stroke-opacity:1" />
          <path
             sodipodi:nodetypes="cccc"
             inkscape:connector-curvature="0"
             id="path4792"
             d="m 404.20728,380.906 c -13.22013,20.41647 1.97209,11.14518 4.09925,9.00756 l -0.21575,-0.37756 c -11.75439,5.14859 -5.86363,-2.22175 -3.8835,-8.63 z"
             style="fill:#93673a;fill-opacity:1;fill-rule:evenodd;stroke:none;stroke-width:0.5;stroke-linecap:butt;stroke-linejoin:round;stroke-miterlimit:4;stroke-dasharray:none;stroke-opacity:1" />
          <path
             sodipodi:nodetypes="ccsssccssscc"
             inkscape:connector-curvature="0"
             id="path4794"
             d="m 323.14424,314.98733 c -0.5663,0.0311 -1.07043,0.36889 -1.31445,0.88086 -1.79969,3.63966 -2.22785,5.86078 -1.85127,8.3447 0.37657,2.48392 2.05324,4.32469 4.2539,5.57422 4.40133,2.49906 11.21975,3.6007 19.52539,6.4707 14.63443,5.0569 30.53157,10.45422 46.433,22.89128 1.63181,1.29612 3.47361,0.2254 1.82073,-1.04374 -16.32223,-12.76618 -33.31907,-19.25743 -48.02735,-24.33985 -8.5493,-2.95419 -14.58127,-5.32097 -18.04557,-7.28799 -1.73215,-0.98351 -2.50024,-1.88759 -2.7207,-3.34179 -0.22046,-1.45421 -0.27352,-2.52785 1.39116,-5.89448 0.54481,-1.06483 -0.27052,-2.31936 -1.46484,-2.25391 z"
             style="color:#000000;font-style:normal;font-variant:normal;font-weight:normal;font-stretch:normal;font-size:medium;line-height:normal;font-family:sans-serif;text-indent:0;text-align:start;text-decoration:none;text-decoration-line:none;text-decoration-style:solid;text-decoration-color:#000000;letter-spacing:normal;word-spacing:normal;text-transform:none;direction:ltr;block-progression:tb;writing-mode:lr-tb;baseline-shift:baseline;text-anchor:start;white-space:normal;clip-rule:nonzero;display:inline;overflow:visible;visibility:visible;opacity:1;isolation:auto;mix-blend-mode:normal;color-interpolation:sRGB;color-interpolation-filters:linearRGB;solid-color:#000000;solid-opacity:1;fill:#ffffff;fill-opacity:1;fill-rule:evenodd;stroke:none;stroke-width:0.5;stroke-linecap:round;stroke-linejoin:miter;stroke-miterlimit:4;stroke-dasharray:none;stroke-dashoffset:0;stroke-opacity:1;color-rendering:auto;image-rendering:auto;shape-rendering:auto;text-rendering:auto;enable-background:accumulate" />
          <path
             sodipodi:nodetypes="ccsssccssscc"
             inkscape:connector-curvature="0"
             id="path4796"
             d="m 341.54529,282.4487 c -0.5663,0.0311 -1.07043,0.36889 -1.31445,0.88086 -1.79969,3.63966 -3.09338,5.51457 -2.7168,7.99849 0.37657,2.48391 1.95878,3.12323 4.2539,4.18937 5.0072,2.32595 12.08528,3.51415 20.39092,6.38415 14.63443,5.0569 23.86702,7.07867 41.93226,19.16952 1.63181,1.29612 3.47361,0.2254 1.82073,-1.04374 -18.13983,-13.2855 -31.84767,-16.5743 -46.55595,-21.65672 -8.5493,-2.95419 -11.81159,-3.0706 -15.27589,-5.03762 -1.73215,-0.98351 -2.50024,-2.06069 -2.7207,-3.51489 -0.22046,-1.45421 -0.0139,-1.74888 1.65082,-5.11551 0.54481,-1.06483 -0.27052,-2.31936 -1.46484,-2.25391 z"
             style="color:#000000;font-style:normal;font-variant:normal;font-weight:normal;font-stretch:normal;font-size:medium;line-height:normal;font-family:sans-serif;text-indent:0;text-align:start;text-decoration:none;text-decoration-line:none;text-decoration-style:solid;text-decoration-color:#000000;letter-spacing:normal;word-spacing:normal;text-transform:none;direction:ltr;block-progression:tb;writing-mode:lr-tb;baseline-shift:baseline;text-anchor:start;white-space:normal;clip-rule:nonzero;display:inline;overflow:visible;visibility:visible;opacity:1;isolation:auto;mix-blend-mode:normal;color-interpolation:sRGB;color-interpolation-filters:linearRGB;solid-color:#000000;solid-opacity:1;fill:#ffffff;fill-opacity:1;fill-rule:evenodd;stroke:none;stroke-width:0.5;stroke-linecap:round;stroke-linejoin:miter;stroke-miterlimit:4;stroke-dasharray:none;stroke-dashoffset:0;stroke-opacity:1;color-rendering:auto;image-rendering:auto;shape-rendering:auto;text-rendering:auto;enable-background:accumulate" />
          <path
             inkscape:connector-curvature="0"
             id="path4798"
             d="m 335.06445,312.78711 a 0.85008502,0.85008502 0 0 0 -0.23633,1.66797 c 28.12843,8.41388 51.93386,18.27347 68.55274,31.97265 a 0.85050649,0.85050649 0 1 0 1.08203,-1.3125 C 387.53895,331.16458 363.5413,321.26891 335.31641,312.82617 a 0.85008502,0.85008502 0 0 0 -0.25196,-0.0391 z"
             style="color:#000000;font-style:normal;font-variant:normal;font-weight:normal;font-stretch:normal;font-size:medium;line-height:normal;font-family:sans-serif;text-indent:0;text-align:start;text-decoration:none;text-decoration-line:none;text-decoration-style:solid;text-decoration-color:#000000;letter-spacing:normal;word-spacing:normal;text-transform:none;direction:ltr;block-progression:tb;writing-mode:lr-tb;baseline-shift:baseline;text-anchor:start;white-space:normal;clip-rule:nonzero;display:inline;overflow:visible;visibility:visible;opacity:1;isolation:auto;mix-blend-mode:normal;color-interpolation:sRGB;color-interpolation-filters:linearRGB;solid-color:#000000;solid-opacity:1;fill:#ffffff;fill-opacity:1;fill-rule:evenodd;stroke:none;stroke-width:0.5;stroke-linecap:round;stroke-linejoin:round;stroke-miterlimit:4;stroke-dasharray:none;stroke-dashoffset:0;stroke-opacity:1;color-rendering:auto;image-rendering:auto;shape-rendering:auto;text-rendering:auto;enable-background:accumulate" />
          <path
             sodipodi:nodetypes="cccccc"
             inkscape:connector-curvature="0"
             id="path4800"
             d="m 349.32322,312.17547 c -0.19065,0.0128 -0.37364,0.0799 -0.52734,0.19336 -2.26985,1.77202 -3.44706,2.77035 -7.92152,8.14092 -0.87727,1.04035 0.72043,2.33295 1.55469,1.25781 4.99923,-6.17325 5.04765,-5.73268 7.53089,-7.77178 0.83556,-0.57795 0.37691,-1.88918 -0.63672,-1.82031 z"
             style="color:#000000;font-style:normal;font-variant:normal;font-weight:normal;font-stretch:normal;font-size:medium;line-height:normal;font-family:sans-serif;text-indent:0;text-align:start;text-decoration:none;text-decoration-line:none;text-decoration-style:solid;text-decoration-color:#000000;letter-spacing:normal;word-spacing:normal;text-transform:none;direction:ltr;block-progression:tb;writing-mode:lr-tb;baseline-shift:baseline;text-anchor:start;white-space:normal;clip-rule:nonzero;display:inline;overflow:visible;visibility:visible;opacity:1;isolation:auto;mix-blend-mode:normal;color-interpolation:sRGB;color-interpolation-filters:linearRGB;solid-color:#000000;solid-opacity:1;fill:#ffffff;fill-opacity:1;fill-rule:evenodd;stroke:none;stroke-width:0.5;stroke-linecap:round;stroke-linejoin:miter;stroke-miterlimit:4;stroke-dasharray:none;stroke-dashoffset:0;stroke-opacity:1;color-rendering:auto;image-rendering:auto;shape-rendering:auto;text-rendering:auto;enable-background:accumulate" />
          <path
             sodipodi:nodetypes="cccccc"
             inkscape:connector-curvature="0"
             id="path4802"
             d="m 358.3974,314.76435 c -0.19065,0.0128 -0.37364,0.0799 -0.52734,0.19336 -2.26985,1.77202 -6.20108,5.29486 -10.67554,10.66543 -0.87727,1.04035 0.72043,2.33295 1.55469,1.25781 4.92273,-5.63774 7.34266,-8.33369 9.8259,-10.37279 0.83556,-0.57795 0.83592,-1.81268 -0.17771,-1.74381 z"
             style="color:#000000;font-style:normal;font-variant:normal;font-weight:normal;font-stretch:normal;font-size:medium;line-height:normal;font-family:sans-serif;text-indent:0;text-align:start;text-decoration:none;text-decoration-line:none;text-decoration-style:solid;text-decoration-color:#000000;letter-spacing:normal;word-spacing:normal;text-transform:none;direction:ltr;block-progression:tb;writing-mode:lr-tb;baseline-shift:baseline;text-anchor:start;white-space:normal;clip-rule:nonzero;display:inline;overflow:visible;visibility:visible;opacity:1;isolation:auto;mix-blend-mode:normal;color-interpolation:sRGB;color-interpolation-filters:linearRGB;solid-color:#000000;solid-opacity:1;fill:#ffffff;fill-opacity:1;fill-rule:evenodd;stroke:none;stroke-width:0.5;stroke-linecap:round;stroke-linejoin:miter;stroke-miterlimit:4;stroke-dasharray:none;stroke-dashoffset:0;stroke-opacity:1;color-rendering:auto;image-rendering:auto;shape-rendering:auto;text-rendering:auto;enable-background:accumulate" />
          <path
             sodipodi:nodetypes="cccccc"
             inkscape:connector-curvature="0"
             id="path4804"
             d="m 365.27141,317.70967 c -0.19065,0.0128 -0.37364,0.0799 -0.52734,0.19336 -2.26985,1.77202 -4.82407,4.37686 -9.29853,9.74743 -0.87727,1.04035 0.72043,2.33295 1.55469,1.25781 4.88554,-5.62287 3.3463,-4.26962 8.44889,-9.45479 0.83556,-0.57795 0.83592,-1.81268 -0.17771,-1.74381 z"
             style="color:#000000;font-style:normal;font-variant:normal;font-weight:normal;font-stretch:normal;font-size:medium;line-height:normal;font-family:sans-serif;text-indent:0;text-align:start;text-decoration:none;text-decoration-line:none;text-decoration-style:solid;text-decoration-color:#000000;letter-spacing:normal;word-spacing:normal;text-transform:none;direction:ltr;block-progression:tb;writing-mode:lr-tb;baseline-shift:baseline;text-anchor:start;white-space:normal;clip-rule:nonzero;display:inline;overflow:visible;visibility:visible;opacity:1;isolation:auto;mix-blend-mode:normal;color-interpolation:sRGB;color-interpolation-filters:linearRGB;solid-color:#000000;solid-opacity:1;fill:#ffffff;fill-opacity:1;fill-rule:evenodd;stroke:none;stroke-width:0.5;stroke-linecap:round;stroke-linejoin:miter;stroke-miterlimit:4;stroke-dasharray:none;stroke-dashoffset:0;stroke-opacity:1;color-rendering:auto;image-rendering:auto;shape-rendering:auto;text-rendering:auto;enable-background:accumulate" />
          <path
             sodipodi:nodetypes="cccccc"
             inkscape:connector-curvature="0"
             id="path4806"
             d="m 373.91596,320.31068 c -0.19065,0.0128 -0.37364,0.0799 -0.52734,0.19336 -2.86647,2.07033 -6.6753,5.30248 -10.52254,10.35944 -0.87727,1.04035 0.72043,2.33295 1.55469,1.25781 4.69896,-5.49849 3.6379,-4.26002 9.6729,-10.0668 0.83556,-0.57795 0.83592,-1.81268 -0.17771,-1.74381 z"
             style="color:#000000;font-style:normal;font-variant:normal;font-weight:normal;font-stretch:normal;font-size:medium;line-height:normal;font-family:sans-serif;text-indent:0;text-align:start;text-decoration:none;text-decoration-line:none;text-decoration-style:solid;text-decoration-color:#000000;letter-spacing:normal;word-spacing:normal;text-transform:none;direction:ltr;block-progression:tb;writing-mode:lr-tb;baseline-shift:baseline;text-anchor:start;white-space:normal;clip-rule:nonzero;display:inline;overflow:visible;visibility:visible;opacity:1;isolation:auto;mix-blend-mode:normal;color-interpolation:sRGB;color-interpolation-filters:linearRGB;solid-color:#000000;solid-opacity:1;fill:#ffffff;fill-opacity:1;fill-rule:evenodd;stroke:none;stroke-width:0.5;stroke-linecap:round;stroke-linejoin:miter;stroke-miterlimit:4;stroke-dasharray:none;stroke-dashoffset:0;stroke-opacity:1;color-rendering:auto;image-rendering:auto;shape-rendering:auto;text-rendering:auto;enable-background:accumulate" />
          <path
             sodipodi:nodetypes="cccccc"
             inkscape:connector-curvature="0"
             id="path4808"
             d="m 380.87751,323.5237 c -0.19065,0.0128 -0.37364,0.0799 -0.52734,0.19336 -2.86647,2.07033 -7.13431,6.60299 -10.98155,11.65995 -0.87727,1.04035 0.72043,2.33295 1.55469,1.25781 4.69896,-5.49849 4.09691,-5.56053 10.13191,-11.36731 0.83556,-0.57795 0.83592,-1.81268 -0.17771,-1.74381 z"
             style="color:#000000;font-style:normal;font-variant:normal;font-weight:normal;font-stretch:normal;font-size:medium;line-height:normal;font-family:sans-serif;text-indent:0;text-align:start;text-decoration:none;text-decoration-line:none;text-decoration-style:solid;text-decoration-color:#000000;letter-spacing:normal;word-spacing:normal;text-transform:none;direction:ltr;block-progression:tb;writing-mode:lr-tb;baseline-shift:baseline;text-anchor:start;white-space:normal;clip-rule:nonzero;display:inline;overflow:visible;visibility:visible;opacity:1;isolation:auto;mix-blend-mode:normal;color-interpolation:sRGB;color-interpolation-filters:linearRGB;solid-color:#000000;solid-opacity:1;fill:#ffffff;fill-opacity:1;fill-rule:evenodd;stroke:none;stroke-width:0.5;stroke-linecap:round;stroke-linejoin:miter;stroke-miterlimit:4;stroke-dasharray:none;stroke-dashoffset:0;stroke-opacity:1;color-rendering:auto;image-rendering:auto;shape-rendering:auto;text-rendering:auto;enable-background:accumulate" />
          <path
             sodipodi:nodetypes="cccccc"
             inkscape:connector-curvature="0"
             id="path4810"
             d="m 391.51107,327.65473 c -0.19065,0.0128 -0.37364,0.0799 -0.52734,0.19336 -3.59956,2.21695 -8.96937,9.09671 -12.58805,14.10796 -0.87727,1.04035 0.72043,2.33295 1.55469,1.25781 4.51321,-5.35917 4.4214,-7.04703 11.73841,-13.81532 0.83556,-0.57795 0.83592,-1.81268 -0.17771,-1.74381 z"
             style="color:#000000;font-style:normal;font-variant:normal;font-weight:normal;font-stretch:normal;font-size:medium;line-height:normal;font-family:sans-serif;text-indent:0;text-align:start;text-decoration:none;text-decoration-line:none;text-decoration-style:solid;text-decoration-color:#000000;letter-spacing:normal;word-spacing:normal;text-transform:none;direction:ltr;block-progression:tb;writing-mode:lr-tb;baseline-shift:baseline;text-anchor:start;white-space:normal;clip-rule:nonzero;display:inline;overflow:visible;visibility:visible;opacity:1;isolation:auto;mix-blend-mode:normal;color-interpolation:sRGB;color-interpolation-filters:linearRGB;solid-color:#000000;solid-opacity:1;fill:#ffffff;fill-opacity:1;fill-rule:evenodd;stroke:none;stroke-width:0.5;stroke-linecap:round;stroke-linejoin:miter;stroke-miterlimit:4;stroke-dasharray:none;stroke-dashoffset:0;stroke-opacity:1;color-rendering:auto;image-rendering:auto;shape-rendering:auto;text-rendering:auto;enable-background:accumulate" />
          <path
             sodipodi:nodetypes="cccccc"
             inkscape:connector-curvature="0"
             id="path4812"
             d="m 401.11187,333.73651 c -0.19065,0.0128 -0.37364,0.0799 -0.52734,0.19336 -3.59956,2.21695 -7.05686,6.18969 -10.67554,11.20094 -0.87727,1.04035 0.72043,2.33295 1.55469,1.25781 4.51321,-5.35917 2.50889,-4.14001 9.8259,-10.9083 0.83556,-0.57795 0.83592,-1.81268 -0.17771,-1.74381 z"
             style="color:#000000;font-style:normal;font-variant:normal;font-weight:normal;font-stretch:normal;font-size:medium;line-height:normal;font-family:sans-serif;text-indent:0;text-align:start;text-decoration:none;text-decoration-line:none;text-decoration-style:solid;text-decoration-color:#000000;letter-spacing:normal;word-spacing:normal;text-transform:none;direction:ltr;block-progression:tb;writing-mode:lr-tb;baseline-shift:baseline;text-anchor:start;white-space:normal;clip-rule:nonzero;display:inline;overflow:visible;visibility:visible;opacity:1;isolation:auto;mix-blend-mode:normal;color-interpolation:sRGB;color-interpolation-filters:linearRGB;solid-color:#000000;solid-opacity:1;fill:#ffffff;fill-opacity:1;fill-rule:evenodd;stroke:none;stroke-width:0.5;stroke-linecap:round;stroke-linejoin:miter;stroke-miterlimit:4;stroke-dasharray:none;stroke-dashoffset:0;stroke-opacity:1;color-rendering:auto;image-rendering:auto;shape-rendering:auto;text-rendering:auto;enable-background:accumulate" />
          <path
             sodipodi:nodetypes="sssss"
             inkscape:connector-curvature="0"
             id="path4814"
             d="m 421.70602,323.38269 c 0.011,0.56531 -0.98936,2.97233 -2.32524,3.25496 -0.96707,0.2046 -3.41331,-1.14133 -3.55373,-2.13794 -0.0967,-0.68604 0.1143,-2.71482 1.77142,-3.4194 1.81107,-0.77004 4.08529,1.16228 4.10755,2.30238 z"
             style="fill:#643d2d;fill-opacity:1;stroke:none;stroke-width:0.5;stroke-linecap:round;stroke-linejoin:round;stroke-miterlimit:4;stroke-dasharray:none;stroke-opacity:1" />
          <path
             sodipodi:nodetypes="sssss"
             inkscape:connector-curvature="0"
             id="path4816"
             d="m 412.13247,316.44289 c -7e-4,0.56656 -0.86372,1.4053 -1.73213,1.5091 -1.15222,0.13772 -2.45154,-1.25994 -2.21603,-2.17425 0.13977,-0.54262 0.93242,-1.61381 1.78958,-1.54356 1.22495,0.10039 2.15956,1.41229 2.15858,2.20871 z"
             style="fill:#643d2d;fill-opacity:1;stroke:none;stroke-width:0.5;stroke-linecap:round;stroke-linejoin:round;stroke-miterlimit:4;stroke-dasharray:none;stroke-opacity:1" />
          <path
             sodipodi:nodetypes="sssss"
             inkscape:connector-curvature="0"
             id="path4818"
             d="m 419.68851,313.26456 c -0.25623,0.48289 -0.26122,0.13408 -0.8432,0.69425 -0.68165,0.65609 -1.71203,-0.2188 -1.55626,-0.8939 0.12598,-0.54599 0.41575,-0.86076 1.27104,-0.95094 0.76076,-0.0802 1.45581,0.5336 1.12842,1.15059 z"
             style="fill:#643d2d;fill-opacity:1;stroke:none;stroke-width:0.5;stroke-linecap:round;stroke-linejoin:round;stroke-miterlimit:4;stroke-dasharray:none;stroke-opacity:1" />
        </g>
        <path
           sodipodi:nodetypes="cccc"
           inkscape:connector-curvature="0"
           id="path4820"
           d="m 298.33128,406.54008 -75.27181,80.26697 82.33393,-76.47754 z"
           style="fill:#d8c27d;fill-opacity:1;fill-rule:evenodd;stroke:#d8c27d;stroke-width:1px;stroke-linecap:butt;stroke-linejoin:miter;stroke-opacity:1" />
        <path
           sodipodi:nodetypes="cccc"
           inkscape:connector-curvature="0"
           id="path4822"
           d="m 310.25049,412.79436 -80.95595,84.91763 87.15684,-80.61146 z"
           style="fill:#d8c27d;fill-opacity:1;fill-rule:evenodd;stroke:#d8c27d;stroke-width:1px;stroke-linecap:butt;stroke-linejoin:miter;stroke-opacity:1" />
        <path
           sodipodi:nodetypes="cccc"
           inkscape:connector-curvature="0"
           id="path4824"
           d="m 320.75754,417.78952 -75.44405,79.57798 81.30045,-76.13305 z"
           style="fill:#d8c27d;fill-opacity:1;fill-rule:evenodd;stroke:#d8c27d;stroke-width:1px;stroke-linecap:butt;stroke-linejoin:miter;stroke-opacity:1" />
        <path
           sodipodi:nodetypes="cccc"
           inkscape:connector-curvature="0"
           id="path4826"
           d="m 333.67603,422.09569 -66.83171,71.13788 72.51586,-67.52071 z"
           style="fill:#d8c27d;fill-opacity:1;fill-rule:evenodd;stroke:#d8c27d;stroke-width:1px;stroke-linecap:butt;stroke-linejoin:miter;stroke-opacity:1" />
      </g>
      <path
         inkscape:connector-curvature="0"
         id="path4828"
         style="font-style:normal;font-variant:normal;font-weight:bold;font-stretch:normal;font-size:medium;line-height:125%;font-family:sans-serif;-inkscape-font-specification:'sans-serif Bold';letter-spacing:0px;word-spacing:0px;fill:#ffffff;fill-opacity:1;stroke:#ffffff;stroke-width:1;stroke-linecap:butt;stroke-linejoin:round;stroke-miterlimit:4;stroke-dasharray:none;stroke-opacity:1"
         d="m 115.47071,238.94631 -7.83842,12.56311 25.2589,15.07921 8.80777,-14.22766 c 6.40036,-12.96219 -13.56425,-30.58638 -26.22825,-13.41466 z m 82.54723,12.49276 -12.1425,19.26228 -42.17182,2.0306 -0.3109,0.56778 29.78939,18.49569 -10.44646,16.22553 -80.580087,-50.71348 17.958807,-28.86602 c 8.84321,-12.87703 22.05877,-16.54733 32.20837,-14.88158 17.45134,2.86411 30.88587,15.90146 28.48318,39.77427 z"
         sodipodi:nodetypes="cccccccccccccscc" />
      <path
         inkscape:connector-curvature="0"
         id="path4830"
         style="font-style:normal;font-variant:normal;font-weight:bold;font-stretch:normal;font-size:medium;line-height:125%;font-family:sans-serif;-inkscape-font-specification:'sans-serif Bold';letter-spacing:0px;word-spacing:0px;fill:#ffffff;fill-opacity:1;stroke:#ffffff;stroke-width:1px;stroke-linecap:butt;stroke-linejoin:round;stroke-opacity:1"
         d="m 247.26956,208.49355 -43.37913,37.08066 -61.48141,-73.12427 43.03507,-36.39253 11.68205,13.39029 -28.99216,24.89973 13.19028,15.53779 21.74541,-18.35334 11.68204,13.90638 -21.7454,18.1813 12.9009,15.35125 29.33623,-24.7277 z"
         sodipodi:nodetypes="ccccccccccccc" />
      <path
         inkscape:connector-curvature="0"
         id="path4832"
         style="font-style:normal;font-variant:normal;font-weight:bold;font-stretch:normal;font-size:medium;line-height:125%;font-family:sans-serif;-inkscape-font-specification:'sans-serif Bold';letter-spacing:0px;word-spacing:0px;fill:#ffffff;fill-opacity:1;stroke:#ffffff;stroke-width:1;stroke-linecap:butt;stroke-linejoin:round;stroke-miterlimit:4;stroke-dasharray:none;stroke-opacity:1"
         d="m 237.42999,155.05104 c -7.69796,-25.77351 4.12313,-47.51445 21.60345,-56.936817 13.58996,-7.325357 30.36791,-8.337239 43.59698,-1.421456 l -8.37585,16.995193 c -12.89033,-7.88216 -34.12709,-0.75221 -39.44197,17.09528 -6.23418,20.81522 10.27998,39.81376 31.04979,37.57497 10.62167,-0.96516 25.05234,-9.98792 25.97811,-29.08379 l -25.7711,8.87329 -6.24783,-17.20106 43.05445,-15.25595 c 17.69455,25.82979 1.09287,64.63966 -30.80857,70.97895 -27.41022,3.80536 -47.18389,-9.8018 -54.63746,-31.61861 z"
         sodipodi:nodetypes="cscccccccccc" />
      <path
         inkscape:connector-curvature="0"
         id="path4834"
         style="font-style:normal;font-variant:normal;font-weight:bold;font-stretch:normal;font-size:medium;line-height:125%;font-family:sans-serif;-inkscape-font-specification:'sans-serif Bold';letter-spacing:0px;word-spacing:0px;fill:#ffffff;fill-opacity:1;stroke:#ffffff;stroke-width:1;stroke-linecap:butt;stroke-linejoin:round;stroke-miterlimit:4;stroke-dasharray:none;stroke-opacity:1"
         d="m 355.0129,119.21377 c 4.08213,-26.586997 24.07546,-41.170308 43.90691,-42.198257 15.41782,-0.799173 31.0125,5.472154 40.00497,17.387349 l -14.84756,11.770378 c -8.27247,-12.643373 -30.5166,-15.295776 -42.96314,-1.44426 -14.54828,16.13956 -7.76209,40.38022 11.96527,47.25252 10.01158,3.67691 26.91607,1.70395 35.93106,-15.15543 l -27.08819,-3.01902 1.72111,-18.21949 45.43978,4.65352 c 4.92713,30.91923 -26.69649,58.87935 -58.23907,50.94497 -26.39886,-8.30063 -38.43953,-29.0654 -35.83114,-51.97228 z"
         sodipodi:nodetypes="cscccccccccc" />
      <path
         style="fill:#ffffff;fill-rule:evenodd;stroke:#ffffff;stroke-width:1px;stroke-linecap:butt;stroke-linejoin:round;stroke-opacity:1"
         d="m 448.00316,182.63703 36.79513,-88.12883 17.23089,7.35903 -36.07718,88.30831 z"
         id="path4836"
         inkscape:connector-curvature="0" />
      <path
         style="fill:#ffffff;fill-rule:evenodd;stroke:#ffffff;stroke-width:1px;stroke-linecap:butt;stroke-linejoin:round;stroke-opacity:1"
         d="m 478.69568,192.3294 58.51324,-75.92361 14.00009,75.92361 32.12844,-40.74387 14.71805,11.30777 -58.33375,76.28259 -13.28214,-77.53901 -32.30792,42.00029 z"
         id="path4838"
         inkscape:connector-curvature="0"
         sodipodi:nodetypes="ccccccccc" />
      <path
         style="color:#000000;font-style:normal;font-variant:normal;font-weight:normal;font-stretch:normal;font-size:medium;line-height:normal;font-family:sans-serif;text-indent:0;text-align:start;text-decoration:none;text-decoration-line:none;text-decoration-style:solid;text-decoration-color:#000000;letter-spacing:normal;word-spacing:normal;text-transform:none;direction:ltr;block-progression:tb;writing-mode:lr-tb;baseline-shift:baseline;text-anchor:start;white-space:normal;clip-rule:nonzero;display:inline;overflow:visible;visibility:visible;opacity:1;isolation:auto;mix-blend-mode:normal;color-interpolation:sRGB;color-interpolation-filters:linearRGB;solid-color:#000000;solid-opacity:1;fill:#ffffff;fill-opacity:1;fill-rule:evenodd;stroke:#ffffff;stroke-width:1;stroke-linecap:butt;stroke-linejoin:round;stroke-miterlimit:4;stroke-dasharray:none;stroke-dashoffset:0;stroke-opacity:1;color-rendering:auto;image-rendering:auto;shape-rendering:auto;text-rendering:auto;enable-background:accumulate"
         d="m 650.85039,231.60838 -103.03746,11.63264 10.20448,16.83305 15.47272,-2.08829 16.48116,27.95843 -9.04812,13.18635 10.27639,18.07179 z m -37.77032,22.1 -11.31608,16.17907 -7.88495,-14.08135 z"
         id="path4840"
         inkscape:connector-curvature="0"
         sodipodi:nodetypes="cccccccccccc" />
      <g
         style="font-style:normal;font-variant:normal;font-weight:normal;font-stretch:normal;font-size:90px;line-height:125%;font-family:KaiTi;-inkscape-font-specification:KaiTi;letter-spacing:0px;word-spacing:0px;fill:#ffffff;fill-opacity:1;stroke:#ffffff;stroke-width:0.87839389;stroke-linecap:butt;stroke-linejoin:round;stroke-miterlimit:4;stroke-dasharray:none;stroke-opacity:1"
         id="g4842"
         transform="matrix(1.1204894,0.10488056,-0.10732786,1.146635,38.983346,-128.04535)">
        <path
           d="m 320.57343,643.12746 c -11.46231,-0.95842 -20.48099,-9.02538 -21.05384,-21.75956 0.46335,-13.81175 9.79846,-21.31316 20.66465,-22.45361 9.45757,-0.16166 14.889,3.31745 19.13763,7.97532 5.3342,5.848 7.02065,15.4598 3.21826,23.29568 -2.34375,4.92188 -9.57302,16.33096 -18.71365,31.7997 l -14.40485,-0.17325 z m -5.45197,-14.76828 c 4.68761,4.29452 11.67957,2.87262 15.16097,-1.62549 5.45797,-7.83172 -0.54085,-16.03429 -8.73006,-15.73399 -8.78097,-0.0379 -13.26528,11.17203 -6.43091,17.35948 z"
           style="fill:#ffffff;stroke:#ffffff;stroke-width:0.87839389;stroke-linejoin:round;stroke-miterlimit:4;stroke-dasharray:none;stroke-opacity:1"
           id="path4844"
           inkscape:connector-curvature="0"
           sodipodi:nodetypes="cccscccccccc" />
      </g>
      <path
         style="fill:#ffffff;fill-rule:evenodd;stroke:#ffffff;stroke-width:1px;stroke-linecap:butt;stroke-linejoin:round;stroke-opacity:1"
         d="m 256.15681,644.46256 18.07432,-51.31446 -8.31003,0.4155 5.42548,-14.3408 22.62089,0.837 -24.0991,69.80428 z"
         id="path4846"
         inkscape:connector-curvature="0"
         sodipodi:nodetypes="ccccccc" />
      <path
         style="fill:#ffffff;fill-rule:evenodd;stroke:#ffffff;stroke-width:1px;stroke-linecap:butt;stroke-linejoin:round;stroke-opacity:1"
         d="m 407.56086,667.07549 -7.46522,-72.83638 -20.78157,8.27228 1.41234,15.13221 6.85994,-3.22821 5.04407,53.87068 z"
         id="path4848"
         inkscape:connector-curvature="0"
         sodipodi:nodetypes="ccccccc" />
      <path
         style="fill:#ffffff;fill-rule:evenodd;stroke:#ffffff;stroke-width:1px;stroke-linecap:butt;stroke-linejoin:round;stroke-opacity:1"
         d="m 442.86935,586.57213 -5.24583,63.75705 38.33494,-13.11459 4.64054,14.32516 14.32516,-4.23702 -5.24584,-14.52691 7.26346,-2.42116 -4.23701,-13.71988 -7.26346,2.2194 -8.87757,-28.04504 -13.92163,4.64056 8.6758,28.04503 -17.14984,6.25464 3.63174,-47.81778 z"
         id="path4850"
         inkscape:connector-curvature="0"
         sodipodi:nodetypes="ccccccccccccccc" />
    </g>
    <path
       inkscape:connector-curvature="0"
       id="path4852"
       d="m 374.85742,184.24219 c -105.19381,0 -190.75,85.55423 -190.75,190.74804 0,105.19382 85.55619,190.74805 190.75,190.74805 105.19382,0 190.74805,-85.55423 190.74805,-190.74805 0,-105.19382 -85.55423,-190.74804 -190.74805,-190.74804 z m 0,25.97656 c 91.15427,0 164.76953,73.61722 164.76953,164.77148 0,91.15427 -73.61526,164.77149 -164.76953,164.77149 -91.15426,-10e-6 -164.77148,-73.61722 -164.77148,-164.77149 0,-91.15426 73.61722,-164.77147 164.77148,-164.77148 z"
       style="color:#000000;font-style:normal;font-variant:normal;font-weight:normal;font-stretch:normal;font-size:medium;line-height:normal;font-family:sans-serif;text-indent:0;text-align:start;text-decoration:none;text-decoration-line:none;text-decoration-style:solid;text-decoration-color:#000000;letter-spacing:normal;word-spacing:normal;text-transform:none;direction:ltr;block-progression:tb;writing-mode:lr-tb;baseline-shift:baseline;text-anchor:start;white-space:normal;clip-rule:nonzero;display:inline;overflow:visible;visibility:visible;opacity:1;isolation:auto;mix-blend-mode:normal;color-interpolation:sRGB;color-interpolation-filters:linearRGB;solid-color:#000000;solid-opacity:1;fill:#d8c27d;fill-opacity:1;fill-rule:nonzero;stroke:none;stroke-width:25.97800064;stroke-linecap:round;stroke-linejoin:round;stroke-miterlimit:4;stroke-dasharray:none;stroke-dashoffset:0;stroke-opacity:1;color-rendering:auto;image-rendering:auto;shape-rendering:auto;text-rendering:auto;enable-background:accumulate" />
    <path
       inkscape:connector-curvature="0"
       id="path4860"
       d="M 374.85938,5.1464844 C 171.11833,5.1464849 5.7929687,170.47184 5.7929688,374.21289 c 0,203.74105 165.3253612,369.06641 369.0664112,369.06641 203.74104,0 369.0664,-165.32536 369.0664,-369.06641 0,-203.74105 -165.32536,-369.0664056 -369.0664,-369.0664056 z m 0,14.9999996 c 195.63444,0 354.0664,158.431956 354.0664,354.066406 0,195.63445 -158.43196,354.06641 -354.0664,354.06641 -195.63445,0 -354.066411,-158.43196 -354.066411,-354.06641 0,-195.63444 158.431961,-354.066405 354.066411,-354.066406 z"
       style="color:#000000;font-style:normal;font-variant:normal;font-weight:normal;font-stretch:normal;font-size:medium;line-height:normal;font-family:sans-serif;text-indent:0;text-align:start;text-decoration:none;text-decoration-line:none;text-decoration-style:solid;text-decoration-color:#000000;letter-spacing:normal;word-spacing:normal;text-transform:none;direction:ltr;block-progression:tb;writing-mode:lr-tb;baseline-shift:baseline;text-anchor:start;white-space:normal;clip-rule:nonzero;display:inline;overflow:visible;visibility:visible;opacity:1;isolation:auto;mix-blend-mode:normal;color-interpolation:sRGB;color-interpolation-filters:linearRGB;solid-color:#000000;solid-opacity:1;fill:#d8c27d;fill-opacity:1;fill-rule:nonzero;stroke:none;stroke-width:15;stroke-linecap:round;stroke-linejoin:round;stroke-miterlimit:4;stroke-dasharray:none;stroke-dashoffset:0;stroke-opacity:1;color-rendering:auto;image-rendering:auto;shape-rendering:auto;text-rendering:auto;enable-background:accumulate" />
  </g>
</svg>
