<?xml version="1.0" encoding="UTF-8"?>
<svg id="Layer_2" data-name="Layer 2" xmlns="http://www.w3.org/2000/svg" xmlns:xlink="http://www.w3.org/1999/xlink" viewBox="0 0 33.56 19.58">
  <defs>
    <style>
      .cls-1 {
        clip-path: url(#clippath);
      }

      .cls-2 {
        fill: none;
      }

      .cls-2, .cls-3, .cls-4, .cls-5, .cls-6, .cls-7 {
        stroke-width: 0px;
      }

      .cls-8 {
        clip-path: url(#clippath-1);
      }

      .cls-9 {
        clip-path: url(#clippath-4);
      }

      .cls-10 {
        clip-path: url(#clippath-3);
      }

      .cls-11 {
        clip-path: url(#clippath-2);
      }

      .cls-12 {
        clip-path: url(#clippath-7);
      }

      .cls-13 {
        clip-path: url(#clippath-8);
      }

      .cls-14 {
        clip-path: url(#clippath-6);
      }

      .cls-15 {
        clip-path: url(#clippath-5);
      }

      .cls-16 {
        clip-path: url(#clippath-9);
      }

      .cls-17 {
        clip-path: url(#clippath-60);
      }

      .cls-18 {
        clip-path: url(#clippath-20);
      }

      .cls-19 {
        clip-path: url(#clippath-21);
      }

      .cls-20 {
        clip-path: url(#clippath-24);
      }

      .cls-21 {
        clip-path: url(#clippath-23);
      }

      .cls-22 {
        clip-path: url(#clippath-22);
      }

      .cls-23 {
        clip-path: url(#clippath-25);
      }

      .cls-24 {
        clip-path: url(#clippath-44);
      }

      .cls-25 {
        clip-path: url(#clippath-45);
      }

      .cls-26 {
        clip-path: url(#clippath-40);
      }

      .cls-27 {
        clip-path: url(#clippath-42);
      }

      .cls-28 {
        clip-path: url(#clippath-41);
      }

      .cls-29 {
        clip-path: url(#clippath-47);
      }

      .cls-30 {
        clip-path: url(#clippath-43);
      }

      .cls-31 {
        clip-path: url(#clippath-46);
      }

      .cls-32 {
        clip-path: url(#clippath-48);
      }

      .cls-33 {
        clip-path: url(#clippath-49);
      }

      .cls-34 {
        clip-path: url(#clippath-27);
      }

      .cls-35 {
        clip-path: url(#clippath-28);
      }

      .cls-36 {
        clip-path: url(#clippath-26);
      }

      .cls-37 {
        clip-path: url(#clippath-29);
      }

      .cls-38 {
        clip-path: url(#clippath-34);
      }

      .cls-39 {
        clip-path: url(#clippath-35);
      }

      .cls-40 {
        clip-path: url(#clippath-36);
      }

      .cls-41 {
        clip-path: url(#clippath-37);
      }

      .cls-42 {
        clip-path: url(#clippath-39);
      }

      .cls-43 {
        clip-path: url(#clippath-33);
      }

      .cls-44 {
        clip-path: url(#clippath-32);
      }

      .cls-45 {
        clip-path: url(#clippath-30);
      }

      .cls-46 {
        clip-path: url(#clippath-38);
      }

      .cls-47 {
        clip-path: url(#clippath-31);
      }

      .cls-48 {
        clip-path: url(#clippath-53);
      }

      .cls-49 {
        clip-path: url(#clippath-54);
      }

      .cls-50 {
        clip-path: url(#clippath-50);
      }

      .cls-51 {
        clip-path: url(#clippath-51);
      }

      .cls-52 {
        clip-path: url(#clippath-52);
      }

      .cls-53 {
        clip-path: url(#clippath-55);
      }

      .cls-54 {
        clip-path: url(#clippath-56);
      }

      .cls-55 {
        clip-path: url(#clippath-57);
      }

      .cls-56 {
        clip-path: url(#clippath-58);
      }

      .cls-57 {
        clip-path: url(#clippath-61);
      }

      .cls-58 {
        clip-path: url(#clippath-62);
      }

      .cls-59 {
        clip-path: url(#clippath-59);
      }

      .cls-60 {
        clip-path: url(#clippath-63);
      }

      .cls-61 {
        clip-path: url(#clippath-14);
      }

      .cls-62 {
        clip-path: url(#clippath-13);
      }

      .cls-63 {
        clip-path: url(#clippath-12);
      }

      .cls-64 {
        clip-path: url(#clippath-10);
      }

      .cls-65 {
        clip-path: url(#clippath-15);
      }

      .cls-66 {
        clip-path: url(#clippath-17);
      }

      .cls-67 {
        clip-path: url(#clippath-16);
      }

      .cls-68 {
        clip-path: url(#clippath-19);
      }

      .cls-69 {
        clip-path: url(#clippath-11);
      }

      .cls-70 {
        clip-path: url(#clippath-18);
      }

      .cls-3, .cls-4 {
        fill-rule: evenodd;
      }

      .cls-3, .cls-5 {
        fill: #292c2f;
      }

      .cls-4 {
        fill: #eac126;
      }

      .cls-6 {
        fill: #3e73b7;
      }

      .cls-7 {
        fill: #fff;
      }
    </style>
    <clipPath id="clippath">
      <rect class="cls-2" width="33.56" height="19.58"/>
    </clipPath>
    <clipPath id="clippath-1">
      <rect class="cls-2" width="33.56" height="19.58"/>
    </clipPath>
    <clipPath id="clippath-2">
      <rect class="cls-2" width="33.56" height="19.58"/>
    </clipPath>
    <clipPath id="clippath-3">
      <rect class="cls-2" width="33.56" height="19.58"/>
    </clipPath>
    <clipPath id="clippath-4">
      <rect class="cls-2" width="33.56" height="19.58"/>
    </clipPath>
    <clipPath id="clippath-5">
      <rect class="cls-2" width="33.56" height="19.58"/>
    </clipPath>
    <clipPath id="clippath-6">
      <rect class="cls-2" width="33.56" height="19.58"/>
    </clipPath>
    <clipPath id="clippath-7">
      <rect class="cls-2" width="33.56" height="19.58"/>
    </clipPath>
    <clipPath id="clippath-8">
      <rect class="cls-2" width="33.56" height="19.58"/>
    </clipPath>
    <clipPath id="clippath-9">
      <rect class="cls-2" width="33.56" height="19.58"/>
    </clipPath>
    <clipPath id="clippath-10">
      <rect class="cls-2" width="33.56" height="19.58"/>
    </clipPath>
    <clipPath id="clippath-11">
      <rect class="cls-2" width="33.56" height="19.58"/>
    </clipPath>
    <clipPath id="clippath-12">
      <rect class="cls-2" width="33.56" height="19.58"/>
    </clipPath>
    <clipPath id="clippath-13">
      <rect class="cls-2" width="33.56" height="19.58"/>
    </clipPath>
    <clipPath id="clippath-14">
      <rect class="cls-2" width="33.56" height="19.58"/>
    </clipPath>
    <clipPath id="clippath-15">
      <rect class="cls-2" width="33.56" height="19.58"/>
    </clipPath>
    <clipPath id="clippath-16">
      <rect class="cls-2" width="33.56" height="19.58"/>
    </clipPath>
    <clipPath id="clippath-17">
      <rect class="cls-2" width="33.56" height="19.58"/>
    </clipPath>
    <clipPath id="clippath-18">
      <rect class="cls-2" width="33.56" height="19.58"/>
    </clipPath>
    <clipPath id="clippath-19">
      <rect class="cls-2" width="33.56" height="19.58"/>
    </clipPath>
    <clipPath id="clippath-20">
      <rect class="cls-2" width="33.56" height="19.58"/>
    </clipPath>
    <clipPath id="clippath-21">
      <rect class="cls-2" width="33.56" height="19.58"/>
    </clipPath>
    <clipPath id="clippath-22">
      <rect class="cls-2" width="33.56" height="19.58"/>
    </clipPath>
    <clipPath id="clippath-23">
      <rect class="cls-2" width="33.56" height="19.58"/>
    </clipPath>
    <clipPath id="clippath-24">
      <rect class="cls-2" width="33.56" height="19.58"/>
    </clipPath>
    <clipPath id="clippath-25">
      <rect class="cls-2" width="33.56" height="19.58"/>
    </clipPath>
    <clipPath id="clippath-26">
      <rect class="cls-2" width="33.56" height="19.58"/>
    </clipPath>
    <clipPath id="clippath-27">
      <rect class="cls-2" width="33.56" height="19.58"/>
    </clipPath>
    <clipPath id="clippath-28">
      <rect class="cls-2" width="33.56" height="19.58"/>
    </clipPath>
    <clipPath id="clippath-29">
      <rect class="cls-2" width="33.56" height="19.58"/>
    </clipPath>
    <clipPath id="clippath-30">
      <rect class="cls-2" width="33.56" height="19.58"/>
    </clipPath>
    <clipPath id="clippath-31">
      <rect class="cls-2" width="33.56" height="19.58"/>
    </clipPath>
    <clipPath id="clippath-32">
      <rect class="cls-2" width="33.56" height="19.58"/>
    </clipPath>
    <clipPath id="clippath-33">
      <rect class="cls-2" width="33.56" height="19.58"/>
    </clipPath>
    <clipPath id="clippath-34">
      <rect class="cls-2" width="33.56" height="19.58"/>
    </clipPath>
    <clipPath id="clippath-35">
      <rect class="cls-2" width="33.56" height="19.58"/>
    </clipPath>
    <clipPath id="clippath-36">
      <rect class="cls-2" width="33.56" height="19.58"/>
    </clipPath>
    <clipPath id="clippath-37">
      <rect class="cls-2" width="33.56" height="19.58"/>
    </clipPath>
    <clipPath id="clippath-38">
      <rect class="cls-2" width="33.56" height="19.58"/>
    </clipPath>
    <clipPath id="clippath-39">
      <rect class="cls-2" width="33.56" height="19.58"/>
    </clipPath>
    <clipPath id="clippath-40">
      <rect class="cls-2" width="33.56" height="19.58"/>
    </clipPath>
    <clipPath id="clippath-41">
      <rect class="cls-2" width="33.56" height="19.58"/>
    </clipPath>
    <clipPath id="clippath-42">
      <rect class="cls-2" width="33.56" height="19.58"/>
    </clipPath>
    <clipPath id="clippath-43">
      <rect class="cls-2" width="33.56" height="19.58"/>
    </clipPath>
    <clipPath id="clippath-44">
      <rect class="cls-2" width="33.56" height="19.58"/>
    </clipPath>
    <clipPath id="clippath-45">
      <rect class="cls-2" width="33.56" height="19.58"/>
    </clipPath>
    <clipPath id="clippath-46">
      <rect class="cls-2" width="33.56" height="19.58"/>
    </clipPath>
    <clipPath id="clippath-47">
      <rect class="cls-2" width="33.56" height="19.58"/>
    </clipPath>
    <clipPath id="clippath-48">
      <rect class="cls-2" width="33.56" height="19.58"/>
    </clipPath>
    <clipPath id="clippath-49">
      <rect class="cls-2" width="33.56" height="19.58"/>
    </clipPath>
    <clipPath id="clippath-50">
      <rect class="cls-2" width="33.56" height="19.58"/>
    </clipPath>
    <clipPath id="clippath-51">
      <rect class="cls-2" width="33.56" height="19.58"/>
    </clipPath>
    <clipPath id="clippath-52">
      <rect class="cls-2" width="33.56" height="19.58"/>
    </clipPath>
    <clipPath id="clippath-53">
      <rect class="cls-2" width="33.56" height="19.58"/>
    </clipPath>
    <clipPath id="clippath-54">
      <rect class="cls-2" width="33.56" height="19.58"/>
    </clipPath>
    <clipPath id="clippath-55">
      <rect class="cls-2" width="33.56" height="19.58"/>
    </clipPath>
    <clipPath id="clippath-56">
      <rect class="cls-2" width="33.56" height="19.58"/>
    </clipPath>
    <clipPath id="clippath-57">
      <rect class="cls-2" width="33.56" height="19.58"/>
    </clipPath>
    <clipPath id="clippath-58">
      <rect class="cls-2" width="33.56" height="19.58"/>
    </clipPath>
    <clipPath id="clippath-59">
      <rect class="cls-2" width="33.56" height="19.58"/>
    </clipPath>
    <clipPath id="clippath-60">
      <rect class="cls-2" width="33.56" height="19.58"/>
    </clipPath>
    <clipPath id="clippath-61">
      <rect class="cls-2" width="33.56" height="19.58"/>
    </clipPath>
    <clipPath id="clippath-62">
      <rect class="cls-2" width="33.56" height="19.58"/>
    </clipPath>
    <clipPath id="clippath-63">
      <rect class="cls-2" width="33.56" height="19.58"/>
    </clipPath>
  </defs>
  <g id="Layer_1-2" data-name="Layer 1">
    <g>
      <g class="cls-1">
        <rect class="cls-7" width="33.56" height="19.58"/>
      </g>
      <g class="cls-8">
        <path class="cls-6" d="m0,17.4h33.56v-2.18H0v2.18Zm0-4.35h33.56v-2.18H0v2.18Zm10.88-4.35h22.68v-2.18H10.88v2.18Zm0-4.35h22.68v-2.17H10.88v2.17Z"/>
      </g>
      <g class="cls-11">
        <g>
          <g class="cls-10">
            <path class="cls-4" d="m5.46,5.46l.1,1.61c-1.48,1.07-.57,1.7-1.64,2.05.73-.72-.22-.72.6-2.37"/>
          </g>
          <g class="cls-9">
            <path class="cls-5" d="m5.49,5.46l.09,1.61h-.06l-.12-1.61h.1Zm.09,1.61h0v.03l-.03-.03h.03Zm0,.03c-.79.57-.88,1.01-.98,1.32h-.1c.1-.35.22-.82,1.01-1.39l.07.07Zm-.98,1.32c-.1.35-.16.57-.66.73l-.03-.06c.48-.16.54-.38.6-.66h.1Zm-.66.72l-.16.06.1-.09h.03l.03.03Zm-.06-.03c.32-.35.32-.54.25-.79h.1c.03.25.06.47-.28.82l-.06-.03Zm.25-.79c-.03-.32-.09-.73.35-1.58l.06.03c-.41.85-.38,1.23-.32,1.54h-.1Z"/>
          </g>
          <g class="cls-15">
            <path class="cls-5" d="m4.95,6.68c-.38.66-.47,1.17-.5,1.58l-.1-.03c.06-.38.16-.91.54-1.58l.06.03Zm-.5,1.58c-.06.41-.13.73-.51.88l-.03-.06c.35-.16.38-.44.44-.85l.1.03Z"/>
          </g>
          <g class="cls-14">
            <path class="cls-4" d="m5.46,5.46l-.13-1.64c1.48-1.07.57-1.7,1.64-2.05-.7.76.22.76-.6,2.36"/>
          </g>
          <g class="cls-12">
            <path class="cls-5" d="m5.39,5.46l-.09-1.61.06-.03.13,1.64h-.1Zm-.09-1.61v-.03h.03l-.03.03Zm0-.03c.79-.57.91-1.01.98-1.35l.1.03c-.1.35-.22.79-1.01,1.36l-.06-.03Zm.98-1.35c.1-.32.16-.57.66-.73l.03.06c-.48.16-.54.38-.6.69l-.1-.03Zm.66-.73l.16-.03-.1.1-.03-.03-.03-.03Zm.06.06c-.32.35-.32.51-.25.76l-.1.03c-.03-.28-.07-.47.28-.85l.06.06Zm-.25.76c.03.31.09.73-.35,1.61l-.06-.03c.41-.85.38-1.26.32-1.54l.1-.03Z"/>
          </g>
          <g class="cls-13">
            <path class="cls-5" d="m5.93,4.19c.38-.66.47-1.17.54-1.54h.06c-.06.41-.16.92-.54,1.58l-.06-.03Zm.54-1.55c.06-.44.1-.73.47-.91l.03.06c-.35.16-.38.44-.44.85h-.06Z"/>
          </g>
          <g class="cls-16">
            <path class="cls-4" d="m5.46,5.46l-1.64.09c-1.07-1.48-1.7-.57-2.05-1.64.76.73.73-.19,2.36.6"/>
          </g>
          <g class="cls-64">
            <path class="cls-5" d="m5.46,5.49l-1.64.13v-.1l1.61-.1.03.06Zm-1.64.13h0l-.03-.03.03-.03v.06Zm-.03-.03c-.54-.79-.98-.88-1.32-.98v-.06c.38.1.82.19,1.39,1.01l-.06.03Zm-1.32-.98c-.32-.1-.57-.16-.73-.66l.06-.03c.16.47.38.54.66.63v.06h0Zm-.73-.66l-.06-.13.12.1h-.03l-.03.03Zm.06-.03c.35.32.51.28.76.25l.03.06c-.28.03-.47.06-.85-.28l.06-.03Zm.76.25c.31-.06.73-.13,1.61.32l-.06.06c-.85-.41-1.23-.35-1.51-.31l-.03-.06Z"/>
          </g>
          <g class="cls-69">
            <path class="cls-5" d="m4.19,4.98c-.66-.41-1.17-.47-1.55-.54v-.1c.41.06.91.16,1.58.57l-.03.07Zm-1.55-.54c-.44-.06-.73-.13-.91-.5l.06-.03c.16.35.44.41.85.44v.1Z"/>
          </g>
          <g class="cls-63">
            <path class="cls-4" d="m5.46,5.46l1.61-.13c1.07,1.48,1.7.6,2.05,1.64-.76-.7-.73.22-2.36-.6"/>
          </g>
          <g class="cls-62">
            <path class="cls-5" d="m5.42,5.42l1.64-.12v.06l-1.61.13-.03-.07Zm1.64-.12h.03l-.03.03v-.03Zm.03,0c.54.79.98.91,1.32,1.01v.06c-.38-.1-.82-.22-1.39-1.01l.07-.06Zm1.32,1.01c.32.06.57.12.73.66h-.06c-.16-.47-.38-.54-.66-.6v-.06Zm.73.66l.06.13-.12-.1.03-.03h.03Zm-.06.03c-.32-.32-.51-.29-.76-.25l-.03-.06c.28-.06.47-.09.85.25l-.06.07Zm-.76-.25c-.31.03-.73.1-1.57-.35l.03-.06c.85.44,1.23.38,1.51.35l.03.06Z"/>
          </g>
          <g class="cls-61">
            <path class="cls-5" d="m6.68,5.93c.66.38,1.17.47,1.58.54l-.03.06c-.38-.06-.91-.13-1.58-.54l.03-.06Zm1.58.54c.41.06.69.09.88.51l-.06.03c-.16-.38-.44-.41-.85-.47l.03-.06Z"/>
          </g>
          <g class="cls-65">
            <path class="cls-4" d="m5.46,5.46l-1.07,1.23c-1.83-.32-1.64.79-2.62.28,1.04-.03.38-.66,2.08-1.26"/>
          </g>
          <g class="cls-67">
            <path class="cls-5" d="m5.46,5.46l-1.04,1.23-.06-.03,1.07-1.23.03.03Zm-1.04,1.23l-.03.03v-.03h.03Zm-.03.03c-.95-.16-1.36.06-1.64.25l-.06-.06c.31-.19.73-.44,1.7-.29v.09Zm-1.64.25c-.28.16-.51.28-1.01.03l.03-.06c.47.22.66.13.91-.03l.06.06Zm-1.01.03l-.13-.06h.16v.03l-.03.03Zm.03-.07c.47-.03.57-.16.73-.38l.06.06c-.16.22-.29.38-.79.38v-.06Zm.72-.38c.19-.25.44-.57,1.36-.88l.03.06c-.91.32-1.17.63-1.32.88l-.06-.06Z"/>
          </g>
          <g class="cls-66">
            <path class="cls-5" d="m4.23,5.99c-.76.19-1.17.5-1.48.72l-.03-.06c.32-.22.73-.54,1.48-.73l.03.06Zm-1.48.72c-.35.25-.57.44-.98.29v-.06c.38.13.6-.03.95-.28l.03.06Z"/>
          </g>
          <g class="cls-70">
            <path class="cls-4" d="m5.46,5.46l1.04-1.23c1.83.28,1.64-.82,2.62-.32-1.04.03-.38.69-2.08,1.26"/>
          </g>
          <g class="cls-68">
            <path class="cls-5" d="m5.42,5.42l1.04-1.23.06.06-1.07,1.2-.03-.03Zm1.04-1.23h.03v.03l-.03-.03Zm.03,0c.95.16,1.36-.09,1.64-.25l.06.06c-.31.19-.72.41-1.7.25v-.07h0Zm1.64-.25c.32-.19.51-.29,1.01-.06l-.03.06c-.47-.22-.66-.1-.91.06l-.06-.06Zm1.01-.06l.13.06-.16.03v-.06l.03-.03Zm-.03.09c-.47,0-.57.16-.73.35l-.06-.03c.19-.22.29-.38.79-.41v.09h0Zm-.73.35c-.19.25-.44.57-1.35.88l-.03-.06c.91-.29,1.17-.63,1.32-.85l.06.03Z"/>
          </g>
          <g class="cls-18">
            <path class="cls-5" d="m6.65,4.89c.76-.16,1.17-.47,1.48-.73l.03.06c-.32.25-.73.57-1.48.76l-.03-.1Zm1.48-.73c.35-.25.6-.41.98-.28v.06c-.38-.13-.6.06-.94.28l-.03-.06Z"/>
          </g>
          <g class="cls-19">
            <path class="cls-4" d="m5.46,5.46l-1.23-1.07c.28-1.83-.82-1.64-.32-2.62.03,1.04.69.38,1.26,2.08"/>
          </g>
          <g class="cls-22">
            <path class="cls-5" d="m5.42,5.49l-1.23-1.07.06-.06,1.2,1.07-.03.06Zm-1.23-1.07h0v-.03h.03l-.03.03Zm0-.03c.12-.95-.1-1.35-.25-1.64l.06-.03c.16.31.41.69.25,1.67h-.06Zm-.25-1.64c-.19-.28-.32-.5-.06-.98l.06.03c-.22.44-.1.63.06.91l-.06.03Zm-.06-.98l.06-.13v.13h-.06Zm.06,0c.03.47.16.57.38.72l-.03.06c-.22-.16-.38-.28-.41-.79h.06Zm.38.72c.25.19.57.44.88,1.36l-.06.03c-.32-.91-.63-1.14-.85-1.32l.03-.06Z"/>
          </g>
          <g class="cls-21">
            <path class="cls-5" d="m4.89,4.22c-.16-.76-.48-1.17-.73-1.48l.06-.03c.25.31.57.73.76,1.51h-.1Zm-.72-1.48c-.25-.35-.41-.57-.28-.98h.06c-.13.38.03.6.28.95l-.06.03Z"/>
          </g>
          <g class="cls-20">
            <path class="cls-4" d="m5.46,5.46l1.2,1.04c-.28,1.83.82,1.64.32,2.62-.03-1.01-.7-.35-1.26-2.08"/>
          </g>
          <g class="cls-23">
            <path class="cls-5" d="m5.46,5.42l1.23,1.04-.03.06-1.23-1.04.03-.06Zm1.23,1.04l.03.03-.03.03-.03-.03.03-.03Zm0,.06c-.12.95.09,1.32.25,1.64l-.07.03c-.16-.32-.41-.72-.25-1.7l.06.03Zm.25,1.64c.19.28.32.51.06.98l-.06-.03c.22-.44.09-.66-.07-.91l.07-.03Zm.06.98l-.06.13v-.16h.03l.03.03Zm-.06-.03c-.03-.44-.16-.57-.38-.72l.03-.03c.22.16.38.25.41.76h-.06Zm-.38-.72c-.25-.16-.57-.41-.88-1.36h.06c.32.88.63,1.13.85,1.32l-.03.03Z"/>
          </g>
          <g class="cls-36">
            <path class="cls-5" d="m5.99,6.65c.19.76.47,1.17.73,1.48l-.06.06c-.25-.35-.57-.76-.73-1.51l.06-.03Zm.72,1.48c.25.35.41.6.28,1.01l-.06-.03c.13-.38-.03-.6-.28-.91l.06-.06Z"/>
          </g>
          <g class="cls-34">
            <polyline class="cls-4" points="5.46 5.46 6.15 5.46 5.46 9.43 4.73 5.46 5.46 5.46 5.46 9.43"/>
          </g>
          <g class="cls-35">
            <path class="cls-5" d="m5.46,5.42h.69v.06h-.69v-.06Zm.69,0h.06v.03h-.06v-.03Zm.06.04l-.72,3.97h-.1l.73-3.97h.09Zm-.72,3.97l-.03.19-.06-.19h.1Zm-.1,0l-.73-3.97h.09l.73,3.97h-.1Zm-.72-4.01h.06v.03h-.06v-.03Zm.06,0h.73v.06h-.73v-.06Zm.73,0h.03v.03h-.03v-.03Zm.03,4.01h-.1v-3.97h.1v3.97Z"/>
          </g>
          <g class="cls-37">
            <polyline class="cls-4" points="5.46 5.46 4.73 5.46 5.46 1.45 6.15 5.46 5.46 5.46 5.46 1.45"/>
          </g>
          <g class="cls-45">
            <path class="cls-5" d="m5.46,5.49h-.73v-.06h.73v.06Zm-.73,0h-.06v-.03h.06v.03Zm-.06-.03l.73-4.01.1.03-.73,3.97h-.09Zm.72-4.01l.06-.19.03.19h-.1Zm.1,0l.72,4.01h-.09l-.73-3.97.1-.03Zm.72,4.04h-.06v-.03h.06v.03Zm-.06,0h-.69v-.06h.69v.06Zm-.69,0h-.06v-.03h.06v.03Zm-.06-4.04h.1v4.01h-.1V1.45Z"/>
          </g>
          <g class="cls-47">
            <polyline class="cls-4" points="5.46 5.46 5.46 6.18 1.45 5.46 5.46 4.73 5.46 5.46 1.45 5.46"/>
          </g>
          <g class="cls-44">
            <path class="cls-5" d="m5.49,6.18h-.1v-.72h.1v.72Zm0,0v.03h-.07l.03-.03h.03Zm-.07.03l-3.97-.73.03-.06,3.97.73-.03.06Zm-3.97-.72l-.19-.03.19-.03v.06Zm0-.07l3.97-.72.03.06-3.97.73-.03-.07Zm3.97-.72l.07-.03v.06h-.03l-.03-.03Zm.07.76h-.1v-.73h.1v.73Zm0,.03h-.03v-.03h.03v.03Zm-.03,0H1.45v-.06h4.01v.06Z"/>
          </g>
          <g class="cls-43">
            <polyline class="cls-4" points="5.46 5.46 5.46 4.73 9.43 5.46 5.46 6.18 5.46 5.46 9.43 5.46"/>
          </g>
          <g class="cls-38">
            <path class="cls-5" d="m5.39,4.73h.1v.73h-.1v-.73Zm0,0v-.06l.06.03v.03h-.06Zm.06-.03l3.97.72-.03.06-3.97-.73.03-.06Zm3.97.72l.19.03-.19.03v-.06Zm0,.07l-3.97.73-.03-.06,3.97-.73.03.06Zm-3.97.72h-.06v-.03h.06v.03Zm-.06-.75h.1v.72h-.1v-.72Zm0-.04h.06v.03h-.06v-.03Zm.06,0h3.97v.06h-3.97v-.06Z"/>
          </g>
          <g class="cls-39">
            <polyline class="cls-4" points="5.46 5.46 5.96 5.96 2.62 8.26 4.92 4.92 5.46 5.46 2.62 8.26"/>
          </g>
          <g class="cls-40">
            <path class="cls-5" d="m5.46,5.42l.54.51-.06.06-.51-.51.03-.06Zm.54.51l.03.03-.06.03v-.03l.03-.03Zm-.03.06l-3.31,2.3-.03-.06,3.31-2.3.03.06Zm-3.31,2.3l-.16.13.1-.19.03.03.03.03Zm-.06-.06l2.3-3.31.06.03-2.3,3.34-.06-.06Zm2.3-3.31l.03-.03.03.03h-.06Zm.06,0l.51.5-.03.06-.54-.54.06-.03Zm.5.5l.03.03-.03.03v-.06Zm0,.07l-2.81,2.81-.03-.06,2.81-2.81.03.07Z"/>
          </g>
          <g class="cls-41">
            <polyline class="cls-4" points="5.46 5.46 4.92 4.92 8.26 2.62 5.96 5.96 5.46 5.46 8.26 2.62"/>
          </g>
          <g class="cls-46">
            <path class="cls-5" d="m5.42,5.49l-.54-.54.06-.03.51.5-.03.06Zm-.54-.54v-.03h.03l-.03.03Zm.03-.03l3.31-2.33.03.06-3.31,2.3-.03-.03Zm3.31-2.33l.16-.1-.09.16-.03-.03-.03-.03Zm.06.06l-2.3,3.34-.06-.06,2.3-3.31.06.03Zm-2.3,3.34l-.03.03-.03-.03.03-.03.03.03Zm-.06,0l-.51-.51.03-.06.54.51-.06.06Zm-.51-.5l-.03-.03.03-.03.03.03-.03.03Zm0-.07l2.81-2.8.06.03-2.84,2.84-.03-.06Z"/>
          </g>
          <g class="cls-42">
            <polyline class="cls-4" points="5.46 5.46 4.92 5.96 2.62 2.62 5.96 4.92 5.46 5.46 2.62 2.62"/>
          </g>
          <g class="cls-26">
            <path class="cls-5" d="m5.46,5.49l-.51.51-.06-.06.54-.51.03.06Zm-.5.5l-.03.03-.03-.03.03-.03.03.03Zm-.06,0l-2.3-3.34.06-.03,2.3,3.31-.06.06Zm-2.3-3.34l-.1-.16.16.1-.03.03-.03.03Zm.06-.06l3.31,2.33-.03.03-3.31-2.3.03-.06Zm3.31,2.33h.06l-.03.03-.03-.03Zm.03.03l-.54.54-.03-.06.51-.5.06.03Zm-.54.54h-.03l.03-.03v.03Zm-.03,0l-2.81-2.84.03-.03,2.81,2.8-.03.06Z"/>
          </g>
          <g class="cls-28">
            <polyline class="cls-4" points="5.46 5.46 5.96 4.92 8.26 8.26 4.92 5.96 5.46 5.46 8.26 8.26"/>
          </g>
          <g class="cls-27">
            <path class="cls-5" d="m5.42,5.42l.51-.5.06.03-.54.54-.03-.06Zm.51-.5l.03-.03.03.03h-.06Zm.06,0l2.3,3.31-.06.06-2.3-3.34.06-.03Zm2.3,3.31l.09.19-.16-.13.03-.03.03-.03Zm-.06.06l-3.31-2.3.03-.06,3.31,2.3-.03.06Zm-3.31-2.3l-.03-.03v-.03l.03.03v.03Zm-.03-.06l.54-.51.03.06-.51.51-.06-.06Zm.54-.51l.03-.03v.06l-.03-.03Zm.03,0l2.84,2.81-.06.06-2.81-2.81.03-.07Z"/>
          </g>
          <g class="cls-30">
            <path class="cls-4" d="m6.78,5.46c0-.76-.6-1.32-1.32-1.32s-1.36.57-1.36,1.32.6,1.32,1.36,1.32,1.32-.6,1.32-1.32"/>
          </g>
          <g class="cls-24">
            <path class="cls-5" d="m6.72,5.46c0-.38-.13-.69-.38-.92l.06-.06c.25.25.41.6.41.98h-.1Zm-.38-.92c-.22-.25-.53-.38-.88-.38v-.09c.35,0,.69.16.95.41l-.06.06Zm-.88-.38c-.38,0-.69.13-.91.38l-.06-.06c.25-.25.6-.41.98-.41v.09Zm-.91.38c-.25.22-.38.54-.38.92h-.1c0-.38.16-.73.41-.98l.06.06Zm-.38.92c0,.35.12.66.38.91l-.06.03c-.25-.25-.41-.57-.41-.95h.1Zm.38.91c.22.22.53.38.91.38v.06c-.38,0-.73-.16-.98-.41l.06-.03Zm.91.38c.35,0,.66-.16.88-.38l.06.03c-.25.25-.6.41-.95.41v-.06h0Zm.88-.38c.25-.25.38-.57.38-.91h.1c0,.38-.16.69-.41.95l-.06-.03Z"/>
          </g>
          <g class="cls-25">
            <path class="cls-3" d="m6.4,4.92c-.06.1-.13-.06-.41-.06-.31,0-.35.16-.41.13-.03-.03.25-.25.35-.25.09-.03.38.06.47.19"/>
          </g>
          <g class="cls-31">
            <path class="cls-3" d="m6.05,5.01c.09.1.03.25-.06.25s-.25-.16-.16-.25"/>
          </g>
          <g class="cls-29">
            <path class="cls-3" d="m5.68,5.14c0-.16.13-.19.31-.19s.28.16.35.19c-.06,0-.16-.13-.35-.13s-.19,0-.31.13"/>
          </g>
          <g class="cls-32">
            <path class="cls-3" d="m5.71,5.17c.03-.06.1.06.25.06.12,0,.19-.03.28-.1.06-.06-.13.16-.25.16s-.32-.09-.28-.12"/>
          </g>
          <g class="cls-33">
            <path class="cls-3" d="m6.12,5.23c.16-.06.06-.19,0-.22.03.03.13.16,0,.22"/>
          </g>
          <g class="cls-50">
            <path class="cls-3" d="m5.46,5.96c.06,0,.1-.03.19-.03s.32.16.44.1c-.28.12-.16.03-.63.03h-.06"/>
          </g>
          <g class="cls-51">
            <path class="cls-3" d="m6.15,6.15c-.06-.1-.03-.06-.16-.22.13.1.13.13.16.22"/>
          </g>
          <g class="cls-52">
            <path class="cls-3" d="m5.46,6.24c.28,0,.25-.06.63-.22-.28.03-.35.12-.63.12h-.06"/>
          </g>
          <g class="cls-48">
            <path class="cls-3" d="m5.46,5.8c.06,0,.1-.06.19-.06s.22.03.28.1c.03,0-.03-.1-.12-.1-.1-.03-.06-.19-.16-.22,0,.06.03.06.03.13s-.1.06-.13,0c.03.09-.06.09-.1.09"/>
          </g>
          <g class="cls-49">
            <path class="cls-3" d="m4.48,4.92c.06.1.12-.06.41-.06.31,0,.35.16.41.13.03-.03-.25-.25-.35-.25-.09-.03-.38.06-.47.19"/>
          </g>
          <g class="cls-53">
            <path class="cls-3" d="m4.82,5.01c-.1.1-.03.25.06.25s.25-.16.16-.25"/>
          </g>
          <g class="cls-54">
            <path class="cls-3" d="m5.2,5.14c0-.16-.13-.19-.31-.19s-.29.16-.35.19c.09,0,.16-.13.35-.13s.19,0,.31.13"/>
          </g>
          <g class="cls-55">
            <path class="cls-3" d="m5.17,5.17c-.03-.06-.1.06-.25.06-.13,0-.19-.03-.28-.1-.06-.06.13.16.25.16.16,0,.31-.09.28-.12"/>
          </g>
          <g class="cls-56">
            <path class="cls-3" d="m4.76,5.23c-.16-.06-.06-.19,0-.22-.03.03-.13.16,0,.22"/>
          </g>
          <g class="cls-59">
            <path class="cls-3" d="m5.46,5.96c-.09,0-.13-.03-.22-.03s-.32.16-.44.1c.28.12.16.03.66.03h.03"/>
          </g>
          <g class="cls-17">
            <path class="cls-3" d="m4.73,6.15c.06-.1.06-.06.16-.22-.1.1-.13.13-.16.22"/>
          </g>
          <g class="cls-57">
            <path class="cls-3" d="m5.46,6.24c-.32,0-.25-.06-.66-.22.28.03.35.12.66.12h.03"/>
          </g>
          <g class="cls-58">
            <path class="cls-3" d="m5.46,5.8c-.09,0-.13-.06-.22-.06s-.22.03-.28.1c-.03,0,.03-.1.12-.1.1-.03.06-.19.16-.22,0,.06-.03.06-.03.13s.1.06.13,0c-.03.09.06.09.13.09"/>
          </g>
          <g class="cls-60">
            <path class="cls-3" d="m5.46,6.37c-.06,0-.22.03,0,.03.19,0,.03-.03,0-.03"/>
          </g>
        </g>
      </g>
    </g>
  </g>
</svg>