<?xml version="1.0" encoding="UTF-8"?>
<svg id="Layer_2" data-name="Layer 2" xmlns="http://www.w3.org/2000/svg" viewBox="0 0 314.44 379.97">
  <defs>
    <style>
      .cls-1, .cls-2, .cls-3, .cls-4, .cls-5 {
        stroke-width: 0px;
      }

      .cls-2 {
        fill: #c61d23;
      }

      .cls-3 {
        fill: #dcb00a;
      }

      .cls-4 {
        fill: #fff;
      }

      .cls-5 {
        fill: #ec1c24;
      }
    </style>
  </defs>
  <g id="Ebene_1" data-name="Ebene 1">
    <path class="cls-1" d="m157,379.92c-19.62-4.68-41.68-15.58-63.66-31.66h-.67l-.14-.59c-14.56-10.73-29.07-23.72-42.78-38.7h0C27.71,284.9,10.92,259.24.3,235.13H.3l-.3-.69.61-.44c22.2-16.23,36.64-42.49,36.64-72.16h0c0-28.18-13.03-53.29-33.36-69.64h0l-.81-.65,54.83-55.03.58.24c9.07,3.71,18.98,5.77,29.37,5.77h0c29.61,0,55.36-16.57,68.54-40.99h0l.82-1.53.82,1.53c13.19,24.42,38.93,40.99,68.54,40.99h0c10.4,0,20.3-2.06,29.37-5.77h0l.58-.24,54.84,55.03-.81.65c-20.34,16.35-33.36,41.46-33.36,69.64h0c0,29.67,14.44,55.93,36.64,72.16h0l.61.44-.3.69c-10.62,24.1-27.41,49.76-49.45,73.83h0c-13.71,14.98-28.22,27.98-42.78,38.7h0l-.14.59h-.67c-21.98,16.08-44.04,26.98-63.66,31.66h0l-.22.05-.22-.05h0Z"/>
    <path class="cls-3" d="m93.96,346.39l.25.18c21.82,16.01,43.7,26.83,63.02,31.48h0c19.32-4.65,41.19-15.47,63.02-31.48h0l.25-.18h0l.03-.02c14.55-10.69,29.07-23.68,42.79-38.67h0c21.7-23.7,38.27-48.95,48.81-72.64h0c-22.31-16.6-36.8-43.21-36.8-73.22h0c0-28.39,12.96-53.74,33.26-70.44h0l-52.49-52.68c-9.13,3.65-19.08,5.67-29.5,5.67h0c-29.72,0-55.64-16.3-69.37-40.49h0c-13.73,24.18-39.65,40.49-69.37,40.49h0c-10.42,0-20.37-2.02-29.5-5.67h0L5.86,91.4c20.3,16.7,33.26,42.06,33.26,70.44h0c0,30.01-14.48,56.63-36.8,73.22h0c10.54,23.69,27.11,48.94,48.81,72.64h0c13.72,14.99,28.24,27.98,42.79,38.67h0l.03.02h0Z"/>
    <path class="cls-4" d="m281.05,211.92l.24-.24c-8.27-14.72-12.99-31.72-12.99-49.83,0-27.59,10.96-52.61,28.75-70.92l-43.51-43.67c-8.46,2.76-17.49,4.27-26.86,4.27-28.4,0-53.61-13.69-69.46-34.84-15.85,21.15-41.06,34.84-69.46,34.84-9.37,0-18.4-1.51-26.86-4.27l-43.51,43.67c17.79,18.31,28.75,43.33,28.75,70.92,0,18.11-4.72,35.11-12.99,49.83l.24.24c-5.29,9.34-11.98,17.76-19.82,24.95,10,22.43,25.69,46.3,46.19,68.68,10.58,11.56,21.66,21.86,32.85,30.76,0,.07,0,.14.02.2.04-.04.07-.08.1-.11,21.92,17.41,44.63,29.63,64.49,35.14,19.86-5.51,42.56-17.73,64.49-35.14.03.03.07.07.1.11.01-.07.01-.14.02-.2,11.19-8.9,22.27-19.2,32.85-30.76,20.51-22.38,36.19-46.25,46.19-68.68-7.84-7.19-14.53-15.61-19.82-24.95Z"/>
    <path class="cls-3" d="m157.22,103.75h120.39c2.9-4.66,6.1-9.07,9.61-13.15l-34.94-35.07c-7.55,1.9-16.3,3.21-25.36,3.21-27.52,0-52.5-11.86-69.7-30.76-17.2,18.9-42.18,30.76-69.7,30.76-9.06,0-17.8-1.3-25.36-3.21l-34.94,35.07c3.5,4.08,6.71,8.49,9.61,13.15h120.39Z"/>
    <path class="cls-2" d="m261.03,161.84c0-18.79,4.77-36.45,12.9-51.71H40.51c8.13,15.26,12.9,32.92,12.9,51.71,0,30.27-11.18,57.65-31.06,77.37,9.77,20.27,23.18,41.75,41.79,62.06,30.25,33.03,64.76,54.71,93.08,62.82,28.32-8.11,62.83-29.79,93.08-62.82,18.61-20.32,32.01-41.8,41.79-62.06-19.88-19.72-31.06-47.1-31.06-77.37Z"/>
    <path class="cls-4" d="m103.64,197.55c-2.34.91-6.31.37-8.64-1.8,1.08-3.44,3.96-5.97,2.88-10.31,3.43-.9,6.67-6.15,9.73-1.26l2.88.53c-2.34,4.17-1.8,10.67-6.85,12.84m143.53,53.54c-5.03-7.21-.18-20.02-11.5-23.08-5.76-2.17-10.79,1.08-14.92,4.15-2.51-3.43-3.77-7.04-7.55-9.92-5.21-3.97-13.48-5.6-19.04-3.97-2.16-1.09-4.14,2.16-5.76-.55,1.62-3.07,1.8-6.49,2.34-9.92.18-3.25-5.03-5.78-2.34-8.66l12.76,5.23c2.69,1.62,5.03-.18,5.74-2.88,16.72-3.43,6.29-23.81,20.67-28.86-10.97-7.22-24.09,2.89-33.97-8.66l7.01-6.85c.36-6.32-1.98-12.63-5.22-18.04-1.44-4.33-8.62-4.69-7.01-10.28.18-3.07,3.95-6.14,7.01-4.15v-1.08l-5.21-.54c-3.41-7.04-8.63-.36-12.58-4.15.9-.53.36-1.8.54-2.88-2.69-.54-1.98,3.07-2.88,4.69-2.69-.72-4.68,3.79-7.01.54-12.76,1.62-24.8,1.62-37.38,2.35,13.48.54,27.5,1.08,38.1,1.8,4.5-.54,8.63,2.16,6.83,6.85,2.88,1.08,2.34-2.52,3.96-3.43,1.98-.9,2.51,1.62,4.13,1.62-1.8,8.48,5.22,15.33,4.49,23.09-5.57-1.26-12.94,0-18.88,1.26-2.51-5.59,2.7-13.89-2.33-19.12-4.49-.73-10.79-1.44-13.3,2.89-.72,3.25-3.24,6.49-2.16,9.92h1.61c.55.73,1.8,1.27,1.8,2.16,1.44,1.27,4.14-.18,5.21,2.35,1.62,3.43-2.51,5.05-5.21,7.58-2.52,5.77-1.8,10.64.54,16.05-1.98,1.8-4.68,3.07-6.29,4.15-.36-1.26-1.62-1.98-1.26-3.43-6.29-1.98-1.98-10.46-9.17-11.54-3.6-7.94-12.4-13.17-21.21-13.35-1.43-1.98-1.79-4.69-4.13-5.77-.54,3.79-3.6.36-5.03,2.89,2.15,5.95-5.75,2.16-5.75,6.85-6.83,6.13-12.76,11.55-18.51,19.12-.53,5.41-12.76,6.85-5.75,13.35,4.14.9,5.03-5.77,9.17-4.15,1.44,1.26,2.34,3.07,1.26,4.7-2.52,2.88,3.06,3.96,1.08,7.39,5.39-.55,9.16,4.87,14.37,2.88,2.34,4.33-3.95,7.94-5.21,12.27-.9,3.42-.18,7.58-2.87,10.28-3.78-1.45-7.01-4.86-10.79-6.32-9.88.36-14.91,9.57-21.93,15.51-9.34,2.53-5.03,13.71-14.37,16.24,0,1.8.36,3.97-1.08,5.23h11.51c.36-7.03,9.52-2.7,8.63-10.46,8.45.55,4.13-9.38,10.78-12.09,15.46-2.88,15.46,20.38,31.1,17.86,12.22,11.37,26.42,17.32,43.68,16.23,9.52.36,17.25-5.05,25.34-6.31,2.87,12.81,11.86,24.71,24.27,30.48.9,13.71-16.18,14.62-21.39,25.44-3.59,0-4.49,4.16-6.83,6.32l10.96.54c3.05-4.51,8.27-6.13,13.12-7.39.36-11.01,11.68-13.35,18.51-19.67v-2.89c-4.31-6.68-8.45-13.17-7.55-22,6.29-8.48,16.36-19.12,12.05-31.75,1.79-3.43,5.75-5.59,9.16-3.97,7.91,7.4,0,15.15,0,24.9,4.85,6.13,3.59,13.53,4.67,20.74,1.08,2.17,3.23,3.97,5.76,3.97l-.54-7.4c4.14-7.21,8.27-15.15,5.76-24.36"/>
    <path class="cls-4" d="m194.12,83.55c0,3.09.21,11.42,6.26,11.42s6.26-8.34,6.26-11.42c0-5.18-1.31-11.43-6.26-11.42-4.95,0-6.26,6.24-6.26,11.42m18.77,0c0,7.45-5.27,12.59-12.52,12.59s-12.51-5.15-12.51-12.59,5.69-12.6,12.51-12.6,12.52,4.86,12.52,12.6"/>
    <path class="cls-4" d="m123.61,87.1l-3.58-8.62-3.32,8.62h6.9Zm10.78,8.37h-11.45v-.89c2.19-.18,2.83-.21,2.83-1.39,0-.96-1.14-3.58-1.62-4.72h-7.95c-.99,2.56-1.56,4.01-1.56,4.57,0,1.35,1.7,1.46,2.9,1.53v.89h-7.18v-.89c1.91-.29,2.4-1.49,3.47-4.15l7.84-19.44h.99l7.88,18.66c1.6,3.8,2.15,5.01,3.86,4.93v.89Z"/>
    <path class="cls-4" d="m136.13,94.59c2.12-.25,3.11-.49,3.11-2.84v-16.82c-1.98-2.45-2.55-2.55-3-2.55v-.89h7.45l12.27,15.15h.08v-10.75c0-2.13-.42-3.3-3.3-3.51v-.89h7.61v.89c-2.55.32-2.76,1.13-2.76,2.84v20.89h-.99l-15.73-19.23h-.07v14.19c0,2.55.74,3.22,3.36,3.51v.89h-8.03v-.89Z"/>
    <path class="cls-4" d="m185.38,90.97c-2.58,2.95-5.34,5.18-9.86,5.18-8.24,0-12.7-5.81-12.7-12.45,0-7.2,5.09-12.74,12.52-12.74,3.18,0,5.9,1.74,6.82,1.74s1.27-.74,1.63-1.63h.95v8.31h-.89c-1.24-3.09-4.2-7.24-8.23-7.24-5.16,0-6.54,5.42-6.54,11.42,0,2.13.21,5.53,1.52,7.8,1.48,2.56,4.28,3.08,5.37,3.08,2.76,0,5.41-1.06,8.34-4.36l1.06.89Z"/>
    <path class="cls-4" d="m214.7,94.58c2.12-.25,3.11-.5,3.11-2.84v-16.82c-1.98-2.45-2.54-2.56-3.01-2.56v-.89h7.46l12.27,15.15h.07v-10.75c0-2.13-.42-3.3-3.29-3.52v-.89h7.6v.89c-2.54.32-2.76,1.14-2.76,2.84v20.9h-.99l-15.73-19.23h-.07v14.19c0,2.55.74,3.23,3.35,3.51v.89h-8.02v-.89Z"/>
    <path class="cls-4" d="m253.24,87.1l-3.57-8.62-3.32,8.62h6.89Zm10.78,8.38h-11.45v-.89c2.2-.18,2.83-.21,2.83-1.38,0-.96-1.14-3.58-1.63-4.72h-7.96c-.99,2.55-1.55,4.01-1.55,4.57,0,1.35,1.7,1.46,2.9,1.52v.89h-7.18v-.89c1.91-.28,2.4-1.48,3.46-4.15l7.84-19.44h.99l7.88,18.66c1.59,3.8,2.15,5,3.85,4.93v.89Z"/>
    <path class="cls-4" d="m98.96,90.97c-2.58,2.95-5.34,5.18-9.87,5.18-8.24,0-12.69-5.82-12.69-12.45,0-7.2,5.09-12.73,12.51-12.73,3.18,0,5.91,1.74,6.83,1.74s1.27-.74,1.62-1.63h.96v8.3h-.88c-1.24-3.08-4.21-7.24-8.24-7.24-5.16,0-6.54,5.43-6.54,11.43,0,2.12.21,5.53,1.52,7.8,1.49,2.56,4.27,3.08,5.37,3.08,2.76,0,5.41-1.06,8.35-4.36l1.06.89Z"/>
    <path class="cls-4" d="m63.67,87.1l-3.57-8.62-3.32,8.62h6.89Zm10.78,8.37h-11.45v-.89c2.19-.18,2.83-.21,2.83-1.38,0-.96-1.13-3.58-1.62-4.71h-7.96c-.98,2.55-1.55,4.01-1.55,4.57,0,1.34,1.7,1.45,2.9,1.52v.89h-7.18v-.89c1.91-.28,2.4-1.49,3.46-4.15l7.85-19.44h.99l7.88,18.66c1.59,3.79,2.15,5,3.85,4.93v.89Z"/>
    <path class="cls-5" d="m179.26,207.97l-5.74-8.67c-1.33.26-2.74.27-4.14-.02-3.92-.79-6.9-3.6-8.09-7.14-2.49,2.78-6.34,4.19-10.25,3.37-1.41-.29-2.69-.86-3.82-1.62l-8.7,5.7c2.29,2.79,3.34,6.56,2.55,10.38-.84,4.02-3.54,7.17-7,8.73.74,3.51,2.27,7.42,4.54,11.25,1.43,2.4,3.01,4.56,4.67,6.4,0,.01,0,.02,0,.03h.03c2.49,2.79,5.15,4.87,7.63,6.05,2.75-.11,6.01-.97,9.4-2.54h.03s0-.02.01-.02c2.25-1.04,4.56-2.4,6.81-4.04,3.6-2.63,6.54-5.61,8.62-8.54-2.57-2.8-3.81-6.76-2.99-10.78.78-3.82,3.24-6.86,6.44-8.53Z"/>
    <path class="cls-4" d="m150.75,197.58c-1.22-.25-2.42-.7-3.46-1.27l-5.69,3.72c1.78,2.92,1.97,6.53,1.26,10.14h0s-.01.06-.01.06l14.11,2.9,3.6-17.48c-2.76,2.02-6.2,2.65-9.81,1.92Z"/>
    <path class="cls-4" d="m171.06,216.14l.02-.09-14.11-2.9-5.65,27.46h0c2.21-.15,4.88-.85,7.69-2.09l.62-.29c2.13-.99,4.34-2.28,6.51-3.86,3-2.19,5-4.52,6.88-6.92-2.28-3.09-2.78-7.23-1.96-11.31Z"/>
    <path class="cls-3" d="m142.85,210.24l-.02.09c-.85,4.07-2.94,7.67-6.26,9.62.78,2.95,1.7,5.88,3.59,9.07,1.37,2.3,2.89,4.37,4.46,6.12l.45.51c2.09,2.25,4.28,3.94,6.24,4.96h0l5.65-27.46-14.11-2.9Z"/>
    <path class="cls-3" d="m172.5,201.5c-1.19.11-2.46.05-3.68-.2-3.6-.75-6.52-2.69-8.25-5.64l-3.6,17.48,14.11,2.9v-.05s.02-.01.02-.01c.77-3.6,2.38-6.83,5.16-8.81l-3.76-5.67Z"/>
  </g>
</svg>