<?xml version="1.0" encoding="UTF-8"?>
<svg id="Layer_2" data-name="Layer 2" xmlns="http://www.w3.org/2000/svg" viewBox="0 0 57.57 69.28">
  <defs>
    <style>
      .cls-1 {
        fill: #002554;
      }

      .cls-1, .cls-2, .cls-3, .cls-4 {
        fill-rule: evenodd;
        stroke-width: 0px;
      }

      .cls-2 {
        fill: #bd9b60;
      }

      .cls-3 {
        fill: #d6001c;
      }

      .cls-4 {
        fill: #ffda00;
      }
    </style>
  </defs>
  <g id="svg4163">
    <path id="path2585" class="cls-2" d="m28.79,69.28c14.78-10.99,21.79-30.76,21.79-30.76C58.52,17.83,57.53,1.43,57.53,1.43,40.59,3.86,28.89.03,28.79,0c-.1.03-11.81,3.86-28.75,1.43C.04,1.43-.94,17.83,7,38.52c0,0,7.01,19.77,21.79,30.76"/>
    <path id="path2587" class="cls-1" d="m28.79,1.03c1.96.59,12.64,3.47,27.76,1.51,0,.18,0,.38,0,.62,0,4.66-.6,18.53-6.93,35.02-.08.21-6.9,19.08-20.84,29.84-13.94-10.76-20.76-29.63-20.83-29.82C1.62,21.69,1.02,7.81,1.02,3.15c0-.23,0-.43,0-.61,15.11,1.96,25.8-.92,27.76-1.51"/>
    <path id="path2589" class="cls-2" d="m22.56,3.99v.33h.67v2.87s-.09,1.42,1.56,1.41c0,0,1.01.06,1.53-.52,0,0-.04.54.34.52,0,0,.59-.06,1.49-.43l-.09-.34s-.32.14-.54.11c0,0-.19,0-.18-.34,0,0,0-3,.08-3.94l-1.12.3v3.35s.03.75-1.15.75c0,0-.91.01-.91-1.02v-3.39s-.59.23-1.69.33"/>
    <path id="path2591" class="cls-2" d="m29.73,8.09c0,.26-.22.47-.48.47s-.48-.21-.48-.47.22-.47.48-.47.48.21.48.47"/>
    <path id="path2593" class="cls-2" d="m34.93,8.09c0,.26-.22.47-.48.47s-.48-.21-.48-.47.22-.47.48-.47.48.21.48.47Z"/>
    <path id="path2595" class="cls-2" d="m30.85,7.48l-.5.73s.43.43,1.45.41c0,0,1.83.11,1.94-1.53,0,0,.14-.9-1.17-1.39,0,0-.9-.31-1.03-.76,0,0-.18-.8.7-.8,0,0,.6.01.6.35v.42l.32-.04.18-1.02s-2.44-.78-2.74,1.07c-.02.17-.2.96,1.21,1.44,0,0,1.06.37.92,1.08-.06.29-.06.72-.86.74,0,0-.51.06-1.02-.69"/>
    <path id="path2597" class="cls-2" d="m12.51,9.82s-1.42.41-2.7.57l.07.39.88.02s.16,0,.17.34c0,0,.13,4.06,0,6.67h4.8l.11-1.07s-1.05.51-3.28.48c0,0-.14-5.79-.04-7.4"/>
    <path id="path2599" class="cls-2" d="m19.55,17.23s-.03-1.65-.04-3.36c.36,0,1.72.04,2.48.12,0,0,.01-.52.06-.77,0,0-1.84.17-2.54.13,0-1.1,0-2.15.04-2.76.36.01,1.68.05,2.08.13,0,0,.24.04.22.27l.03.79h.4s.21-1.51.25-1.79l-3.85.03s-.47.09-.69.13l-1.13.24s-.01,0-.02,0h0s0,0,0,0h0l.07.39.88.02s.16,0,.17.34c0,0,.1,3.68,0,6.67h4.93s.11-1.07.11-1.07c0,0-1.23.52-3.46.49"/>
    <path id="path2601" class="cls-2" d="m44.24,17.23s-.03-1.65-.04-3.36c.37,0,1.72.04,2.48.12,0,0,.01-.52.05-.77,0,0-1.84.17-2.54.13,0-1.1,0-2.15.04-2.76.36.01,1.68.05,2.08.13,0,0,.24.04.22.27l.03.79h.4s.21-1.51.25-1.79l-3.85.03s-.47.09-.69.13l-1.13.24s-.01,0-.02,0h0s0,0,0,0h0l.07.39.88.02s.16,0,.17.34c0,0,.1,3.68,0,6.67h4.93s.11-1.07.11-1.07c0,0-1.23.52-3.46.49"/>
    <path id="path2603" class="cls-2" d="m30.6,11.88l.49-.07.25-1.62s-.71-.36-2.34-.34c0,0-4.1-.08-4.13,4.42,0,0-.22,3.77,3.77,3.73,0,0,1.72,0,2.56-.71v-.79s-.81.89-2.26.89c0,0-1.99.13-2.47-2.93,0,0-.46-3.95,2.56-4.01,0,0,.89-.01,1.4.38,0,0,.16.1.17.36v.68"/>
    <path id="path2605" class="cls-2" d="m39.17,11.88l.49-.07.25-1.62s-.71-.36-2.34-.34c0,0-4.1-.08-4.13,4.42,0,0-.22,3.77,3.77,3.73,0,0,1.72,0,2.56-.71v-.79s-.81.89-2.26.89c0,0-1.99.13-2.47-2.93,0,0-.46-3.95,2.56-4.01,0,0,.89-.01,1.4.38,0,0,.16.1.17.36l.02.68"/>
    <path id="path2607" class="cls-2" d="m23.83,20.29v.29s.39-.09.78-.33v2.7s0,.29-.2.3h-.42v.19h1.69v-.19s-.58.05-.58-.3v-3.14h-.12s-.57.31-1.16.47"/>
    <path id="path2609" class="cls-2" d="m27.35,19.82s-1.14-.04-1.14,1.26c0,0-.06,1.16,1.14,1.03,0,0,.37-.04.61-.39,0,0-.02,1.35-1.53,1.64,0,0-.05.26.25.2,0,0,1.83-.35,1.83-2.17,0,0,.16-1.56-1.16-1.56Zm0,1.93c-.37,0-.66-.38-.66-.85s.3-.84.66-.84.66.38.66.84-.3.85-.66.85Z"/>
    <path id="path2611" class="cls-2" d="m31.11,21.64s.07-1.83-1.15-1.83-1.15,1.83-1.15,1.83c0,0-.1,1.91,1.15,1.91s1.15-1.91,1.15-1.91Zm-.66,1.36s-.12.29-.48.29c-.36,0-.48-.29-.48-.29-.31-.71-.17-2.09-.17-2.09.09-.87.64-.84.64-.84,0,0,.56-.03.64.84,0,0,.15,1.38-.17,2.09Z"/>
    <path id="path2613" class="cls-2" d="m32.96,21.45s.62-.31.62-.86c0,0,.07-.76-1.02-.76,0,0-1.03-.02-1.04.99,0,0-.07.55.56.81,0,0-.72.27-.68.99,0,0,.02.94,1.05.93,0,0,1.29.04,1.25-1.19,0,0,.03-.7-.74-.9h0Zm-.97-.87c.03-.53.57-.52.57-.52.58,0,.6.55.6.55.06.43-.43.73-.43.73-.11-.05-.27-.12-.27-.12-.51-.2-.46-.64-.46-.64h0Zm.53,2.71c-.7,0-.69-.74-.69-.74-.01-.49.52-.81.52-.81.35.13.62.32.62.32.31.18.31.48.31.48,0,.79-.75.74-.75.74"/>
    <path id="path2615" class="cls-2" d="m42.57,32.91c-.16-.03-.1-.12-.1-.12.43-.02.43-.24.43-.24.06-.35-.28-.49-.28-.49-.55-.16-1.02.39-1.02.39-.07.08-.2.03-.2.03l-.08.24c-.16-.01-.32.21-.32.21-.25.06-.37-.05-.37-.05-.18-.16-.47-.17-.47-.17-.18-.08-.04-.11-.04-.11.5-.03.48-.33.48-.33,0-.61-.52-.56-.52-.56.22-.12.23-.29.23-.29-.04-.18.16-.26.24-.19.1.1.26.14.26.14.3.11.33-.08.33-.08,0-.11.04-.19.04-.19.05-.01.36-.01.36-.01.34-.01.29-.33.29-.37,0-.53-.36-.44-.36-.44-.07-.03-.03-.08-.03-.08.28-.05.12-.19.12-.19-.1-.13,0-.19,0-.19.52-.21.51-.37.51-.37.05-.23-.41-.48-.46-.51-.18-.11-.51.04-.51.04.07-.11.03-.24.03-.24-.04-.45-.58-.48-.58-.48-.88,0-1.48,1.12-1.48,1.12-.11.17-.11.22-.19.25-.2.07-.08.29-.08.29.09.16-.14.25-.14.25-.14.07-.15.19-.15.19-.01-.08-.07-.13-.07-.13-.12-.08-.07-.2-.07-.2.15-.17.1-.29.1-.29,0-.52-.75-.89-.75-.89,0,.12-.15.31-.15.31-.18.17-.26.85-.26.85-.08.07-.08-.01-.08-.01-.03-.33-.1-.37-.1-.37-.43-.51-.98-.32-.98-.32-.2.4.16,1.04.16,1.04.04.08.1.17.1.17,0,.32.25.32.25.32.16.02.11.11.11.11-.04.09.04.17.04.17.12.11.12.24.12.24.06.19.19.04.19.04.08-.11.21.03.21.03.18.2.36-.03.36-.03-.03.05.07.16.07.16-.27.02-.52.31-.52.31-.1.17-.43.4-.43.4v.35h-.06s0-.17,0-.17l-.17-.2v-.41c-.27.01-.34-.08-.34-.08-.14-.15-.23-.15-.23-.15-.3,0-.23.23-.23.23.04.11.04.17.04.17-.19.05-.1.19-.1.19.14.14,0,.12,0,.12-.22.02-.28.13-.28.13-.06.1.25.24.25.24.12.09.04.19.04.19-.12.23.19.47.19.47-.28-.03-.4.08-.4.08-.1-.95-.63-1-.63-1-.03.17-.12.24-.12.24-.21.17-.29.81-.29.81-.44-.58-.84-.47-.84-.47-.3.08-.14.77-.14.77h.05s-.01.16-.01.16l.04.04.03.23c.15.07.25.2.25.2.01.23.07.21.07.21l.03.19c.07.05.26.01.26.01.46.29.4.63.4.63-.14.17-.33.81-.33.81-.11-.04-.25.07-.25.07-.04-.15.06-.23.06-.23.08-.23-.14-.32-.14-.32-.12-.07-.03-.13-.03-.13.08-.08.03-.43.03-.43-.36.01-.41-.19-.41-.19-.11-.13-.32-.07-.32-.07-.18.09-.1.24-.1.24.14.17-.06.23-.06.23-.18.04-.07.17-.07.17.1.06.01.15.01.15-.19.04-.29.21-.29.21.03.27.26.31.26.31.03.05-.01.13-.01.13-.27.51.25.65.25.65v.09c-.65-.11-.56.37-.56.37-.21-.04-.55.32-.55.32.08-.48.1-.55.1-.55.06,0,.05-.11.05-.11.03-.19-.21-.28-.21-.28l-.03-.49-.33-.03c-.17-.25-.42-.2-.42-.2-.26.02-.13.23-.13.23.18.13,0,.18,0,.18-.18.02-.13.2-.13.2.02.09.02.16.02.16-.15,0-.24.14-.24.14-.05.09.07.14.07.14-.02.05.15.12.15.12.2.08.04.2.04.2-.11.04-.2-.05-.2-.05l-.28-.23-.05-.13-.08.07-.07.07c-.24.05-.33-.03-.33-.03-.07-.45.17-.78.17-.78.06-.12.02-.14.02-.14-.13-.05.09-.6.09-.6.17-.27.28-.01.28-.01.15.24.33.13.33.13.18-.11.05-.23.05-.23-.15-.17,0-.23,0-.23.18-.08.11-.17.11-.17-.12-.12.01-.15.01-.15.15-.02.11.11.11.11-.09.11.01.2.01.2-.04.08,0,.16,0,.16.24-.04.35.09.35.09.18.3.5.12.5.12.18-.12,0-.21,0-.21-.07-.09.03-.13.03-.13.21-.11.1-.23.1-.23-.1-.12.05-.15.05-.15.24.01.22-.15.22-.15,0-.19-.15-.19-.15-.19-.21-.05-.15-.19-.15-.19.07-.13.05-.2.05-.2,0-.27-.33-.37-.33-.37-.1-.05-.05-.11-.05-.11.21-.09.04-.19.04-.19-.11-.12.06-.16.06-.16.18-.05.15-.16.15-.16,0-.13-.39-.23-.39-.23.1-.32-.22-.47-.22-.47.07.03.18-.09.18-.09.06.21.26,0,.26,0,.12-.15.23-.2.23-.2.28-.09.15.07.15.07-.13.1-.14.41-.14.41-.12.36.12.35.12.35v.37s.25.01.25.01c.07.23.37.15.37.15.19-.04.04-.17.04-.17-.1-.08,0-.13,0-.13.22.07.07-.24.07-.24.17,0,.18-.11.18-.11.06-.15-.18-.27-.18-.27.01-.12.25-.04.25-.04.05.14.25.19.25.19.11-.01.19-.19.19-.19.26.05.32-.13.32-.13.06-.19-.19-.17-.19-.17.03-.08-.06-.2-.06-.2.01-.08.19.01.19.01.1.19.35.05.35.05.04.15.29.23.29.23.15.04.18-.12.18-.12.01-.16.15-.08.15-.08.58.18.52-.48.52-.48,0-.61-1.3-.45-1.3-.45.33-.44.84-.51.84-.51.1.18.16.09.16.09.06-.13.11-.03.11-.03.06.21.28.19.28.19.15-.02.12-.2.12-.2.08.1.23.07.23.07.3-.04.22-.52.22-.52.08-.17-.04-.2-.04-.2-.14.01-.21-.03-.21-.03-.18-.15-.66-.09-.66-.09-.24-.01-.22.14-.22.14-.1,0-.32-.01-.32-.01-.1,0-.12.05-.12.05.14.07.1.2.1.2-.08.01-.14.16-.19.15-.14-.01-.41.3-.41.3-.04.03-.07-.07-.07-.07.17-.12.32-.33.32-.33.16-.28-.33-.44-.33-.44-.41-.07-.95.71-.95.71-.18.23-.15.45-.15.45-.15.05-.26.28-.26.28l.03.08c-.15,0-.3.05-.3.05.37-.29.14-.28.14-.28-.1-.05,0-.11,0-.11.33-.14.36-.3.36-.3.08-.6-.54-1.12-.54-1.12.08-.13.26-.01.26-.01.14.16.23.04.23.04.04-.08.22-.01.22-.01.38.35.47.16.47.16l.07-.23c.54.14.58-.12.58-.12.11-.39-.3-.57-.3-.57.1.03.25,0,.25,0,.22-.04.27.04.27.04.21.17.5.17.5.17.12,0,.11-.25.11-.25.68.09.69-.2.69-.2.12-.54-.79-.68-.79-.68-.5-.09-.92,0-.92,0-.25.05-.5-.01-.5-.01-.01-.16-.15-.31-.15-.31-.09-.12-.36-.04-.36-.04.33-.4.54-.32.54-.32.1.1-.04.19-.04.19,0,.25.28.31.28.31.23.03.32-.07.32-.07.12-.09.21-.03.21-.03.14.12.28.03.28.03.19-.08.26-.01.26-.01.25.21.43.12.43.12.18-.07.12-.29.12-.29.61,0,.5-.04.5-.04.03-.07.1-.07.1-.07.07.15.29.08.29.08.07.19.29.21.29.21.16.05.12-.12.12-.12,0-.09.07-.07.07-.07.1.06.26.07.26.07.23.03.19-.33.19-.33.01-.53-.83-.55-.83-.55.18-.05.26-.12.26-.12.18.04.18-.08.18-.08.02-.14-.08-.2-.08-.2.28-.17.23-.25.23-.25-.05-.36-.34-.35-.34-.35-.26-.02-.51.15-.51.15.03-.13-.22-.12-.22-.12.07-.03.07-.17.07-.17.02-.23-.23-.25-.23-.25-.7-.08-.57.79-.57.79.07.33.03.51.03.51-.07-.01-.32.03-.32.03-.08-.03-.03-.09-.03-.09.07-.07.16-.13.16-.13.18-.11.1-.23.1-.23-.12-.35-.4-.37-.4-.37-.59-.04-.98.77-.98.77-.1-.01-.12.08-.12.08-.01.13.05.19.05.19-.12.04-.15.2-.15.2-.52-.08-.91.43-.91.43-.03-.23.29-.49.29-.49.11-.19-.07-.25-.07-.25-.19-.04-.11-.17-.11-.17.1-.12.1-.24.1-.24.04-.4-.63-.28-.63-.28-.7.16-.68,1.41-.68,1.41-.19.01-.22-.13-.22-.13-.01-.36-.3-.43-.3-.43-.14,0-.14-.12-.14-.12.25.01.28-.15.28-.15.03-.27.29-.28.29-.28.15.05.23-.11.23-.11.09-.15.01-.2.01-.2-.16-.19-.07-.23,0-.25.27-.11.25-.24.25-.24-.02-.51-.57-.63-.57-.63-.63-.11-1.06.89-1.06.89-.07.25-.12.24-.12.24-.11.05-.15.16-.15.16-.18-.28-.95.25-.95.25-.03-.15.16-.37.16-.37.15-.31-.08-.28-.08-.28-.14-.01-.21-.09-.21-.09,0-.19-.03-.45-.03-.45-.04-.17-.45-.17-.45-.17-.86.08-.51,1.28-.51,1.28-.07-.03-.11-.07-.11-.07-.1-.44-.47-.53-.47-.53-.37-.1-.5.27-.5.27-.17.68.68,1.45.68,1.45.01.19.19.21.19.21.19,0,.14.15.14.15-.11.11-.25.53-.25.53-.04-.13-.32-.07-.32-.07-.1-.45-.37-.52-.37-.52-.42-.14-.58.25-.58.25-.17.56.55,1.33.55,1.33-.26.01-.63.36-.63.36-.26.11-.21.28-.21.28-.11-.03-.12.08-.12.08-.15-.44-.8-.39-.8-.39-.26.03-.29-.05-.29-.05-.21-.16-.65-.17-.65-.17.07-.09.22-.24.22-.24.32.03.34-.04.34-.04.28.05.22-.12.22-.12-.07-.35.01-.31.01-.31.05.07.19.05.19.05.18.01.15-.15.15-.15-.01-.13.14-.11.14-.11h.39c.5-.01.4-.77.4-.77,0-.22-.7-.33-.7-.33.46-.2.45-.37.47-.45.11-.52-.32-.61-.32-.61-.36-.09-.96.16-.96.16-.11-.37-.4-.43-.4-.43-.2,0-.36.21-.36.21-.12-.21-.33-.21-.33-.21-.23,0-.25.32-.25.32-.39-.01-.34.23-.34.23-.06.11-.19.04-.19.04-.18-.09-.26-.04-.26-.04-.19.12-.06.33-.06.33.04.07.01.24.01.24-.17-.01-.36.27-.36.27l-.03-.23c-.4-.09-.4-.49-.41-.53-.05-.13-.17-.01-.17-.01-.14.13-.28.03-.28.03-.17-.08-.32.05-.32.05-.18.22,0,.31,0,.31.14.07.07.16.07.16-.15.11-.01.2-.01.2.28.19.08.19.08.19-.04-.01-.14.03-.14.16-.12.28-.36.13-.36.13-.19-.11-.39-.16-.39-.16-.44-.04-.47.49-.47.49,0,.54,1.58.91,1.58.91-.37.19-.06.33-.06.33.13.08.07.23.07.23-.1,0-.21.13-.21.13-.04.04-.1.04-.15.03-.27-.07-.32,0-.32,0-.08.05-.12,0-.12,0-.12-.17-.3-.2-.3-.2-.22.01-.32.43-.32.43h-.25c.09-.26-.39-.48-.39-.48.06-.31-.08-.32-.08-.32.02-.1-.04-.19-.04-.19-.11-.11-.19-.04-.19-.04,0,0,.03.04-.04.05-.1.01-.12-.04-.12-.04-.33-.29-.51-.17-.51-.17-.3.15-.11.28-.11.28.14.13.06.25.06.25-.15.12.03.27.03.27.12.11,0,.2,0,.2-.22.08-.21.17-.21.17-.02.19.32.29.32.29.11.05.14.11.14.11-.1.27.15.51.17.56.04.17-.29.05-.34.09-.11.08-.23.03-.33.04-.03.21-.29.35-.29.35-.21.01-.4.15-.4.15-.26.03-.15.17-.15.17.15.12.04.21.04.21-.25.25-.11.48-.11.48.19.2.37-.04.37-.04.08-.11.23-.07.23-.07,0,.07.12.05.12.05.11-.01.17-.12.17-.12.28-.05.23.07.23.07-.35.09-.39.25-.39.25,0,.31-.36.43-.36.43-.21.08-.06.27-.06.27.11.09.03.23.03.23-.17.3.11.44.11.44.14.04.21-.13.21-.13.04-.09.12-.07.12-.07.18.08.21-.03.21-.07,0-.19.18-.09.18-.09,0,0,.01.02.03.04.06.08.17.08.17.08.16,0,.15-.28.15-.28-.03-.23.12-.21.12-.21.24-.05.28-.21.28-.21.07-.13.17.04.17.04.11.27.37.21.37.21.21-.03.19-.16.19-.2v-.23c.28-.12.17-.24.17-.24-.08-.15.11-.17.11-.17.16,0,.19-.11.19-.11.06-.23-.15-.28-.15-.28-.12-.07-.06-.13-.06-.13.34.03.94.43.94.43-.17.03-.29.17-.29.17-.5-.03-.54.2-.54.2-.01.23.26.21.26.21-.06.19.07.21.07.21.26.03.11.17.11.17-.18.13-.03.21-.03.21l.21.07-.29-.04v.07c0,.07-.1.28-.1.28-.21.25-.32.44-.32.48,0,.3.22.21.22.21.05-.09.21-.04.21-.04-.12.03-.15.17-.15.17-.61.04-.61.4-.62.44-.16.47-.52.36-.52.36-.04-.12.01-.35.01-.35-.34-.15-.39-.71-.39-.71-.29-.03-.52-.29-.52-.29-.11-.12-.26-.13-.26-.13-.21-.03-.14.13-.14.13.08.08.07.19.07.19-.14.04-.03.19-.03.19.04.03.01.12.01.12-.1-.01-.18,0-.18,0-.13.07.03.19.03.19.16.12.28.28.28.28-.1.36.3.56.3.56-.14.05-.34-.03-.34-.03-.08-.03-.08-.04-.15-.05-.16-.03-.46.21-.46.21-.34-.04-.51.01-.51.01,0,.19-.29.33-.29.33-.51.16-.43.49-.43.49.12.04.24-.03.24-.03.01-.04.15,0,.15,0,.03.21.21.11.21.11.03-.04.08,0,.08,0-.04.19.07.27.07.27.12.08.41-.24.41-.24.15-.11.23-.03.23-.03.07.15.37-.01.37-.01.04.17-.03.27-.03.27-.14.07-.19.25-.19.25-.15.12-.03.24-.03.24.14.12.07.31.07.31-.07.59.22.59.22.59.17-.01.15-.28.15-.28.28.09.23-.13.23-.13-.01-.13.12-.05.12-.05,0,.13.15.12.15.12.16-.01.1-.59.1-.59.41-.16.28-1,.28-1-.01-.08.05-.04.05-.04.14.48.65.43.65.43.07.2.25.28.25.28.08.15.22.03.22.03.15-.09.39-.03.39-.03.26.17.37,0,.37,0,.19.01.18-.09.18-.09.04-.19-.21-.2-.21-.2-.07-.01-.06-.08-.06-.08.18-.2-.04-.2-.04-.2-.19-.01-.1-.12-.1-.12.18-.09.15-.2.15-.2,0-.16-.4-.12-.4-.12-.18.06-.19-.07-.19-.07-.06-.43-.87-.43-.87-.43.43-.09.52-.39.52-.39.23.02.32-.15.32-.15.33-.51.63-.44.63-.44-.01.21.16.23.16.23.21.03.39-.33.39-.33v.32c-.11.01-.22.25-.22.25-.18.09-.03.2-.03.2.04.04.06.17.06.17-.04.63.19.57.19.57.14,0,.11-.09.11-.09,0-.13.07-.13.07-.13.28.08.19-.09.19-.09,0-.07.08-.08.08-.08-.01.08.25.09.25.09.1-.03.07-.49.07-.49.44-.2.3-.52.3-.52.11-.17.5-.2.5-.2.2-.02.19.12.19.12.07.17.34.11.34.11,0,.09.26.25.26.25,0,.05.07.12.07.12.14-.03.19-.12.19-.12.1-.07.33-.03.33-.03.17.02.21-.08.21-.08.21-.28.03-.25.03-.25-.19-.03-.18-.16-.18-.16-.01-.11-.01-.15-.01-.15-.1-.15.05-.11.05-.11.03-.05.12.01.12.01.36.01.28.04.28.04,0,.05.11.01.11.01-.01-.09.11-.12.11-.12.77.24,2.05.17,2.05.17.06-.09.39-.04.39-.04l.1.04c.15,0,.21.08.21.08.12.13.23.2.23.2.48.11.52.99.52.99-.16.13-.03.32-.01.39,0,0,0,0,0,0,0,0,0,.02.01.03.05.12.25.07.25.07.23.08.4.47.4.47.03.07.03.2.03.2-.04-.08-.21-.24-.21-.24-.1-.05-.16-.13-.16-.13-.1-.04-.23.08-.23.08h-.17c-.03-.09-.28-.04-.28-.04l-.08.05c-.06-.11.01-.33.01-.33.1-.27-.07-.29-.07-.29-.04-.04-.11-.12-.11-.12v-.44h-.3c-.28-.37-.57-.21-.57-.21-.14.14.01.27.01.27.04.03-.01.15-.01.15-.21.08-.08.2-.08.2.05.03-.01.12-.01.12-.29.01-.28.19-.28.19,0,.13.29.28.29.28v.04h-.55c-.01-.27-.07-.52-.07-.52-.2-.27-.23-.48-.23-.48-.01-.2-.23-.2-.23-.2-.1,0-.1-.12-.1-.12-.01-.16-.14-.23-.14-.23-.03-.15-.1-.15-.1-.15-.07-.01-.12.05-.12.05l-.18-.03c-.01-.08-.12-.07-.12-.07-.24-.09-.32.08-.32.08-.06.2.15.31.15.31.1.03,0,.13,0,.13-.11.12.1.24.1.24.03.05,0,.13,0,.13l-.08.05c-.23-.03-.23.07-.23.07-.05-.01-.12.05-.12.05-.02.07-.14.01-.14.01-.03-.11-.22-.07-.22-.07,0-.05-.12-.05-.12-.05-.26.02-.18.25-.18.25-.37.03-.34.27-.34.27,0,.2.32.17.32.17.04.03-.01.13-.01.13-.11.08-.18.19-.18.19.01-.08,0-.28,0-.28-.06.01-.22-.03-.22-.03-.58-.09-.83,0-.83,0-.36.03-.39.07-.39.07h-.14c-.26-.01-.44.28-.44.28-.11-.03-.29.08-.29.08-.04-.01-.23.03-.23.03-.06.04.04.17.04.17.04.04.01.13.01.13-.11,0-.15.19-.15.19-.04.27.17.28.17.28.28.05.28-.02.28-.02.06-.12.25-.05.25-.05.09.09.26-.01.26-.01.02-.08.19-.01.19-.01-.04.01-.05.08-.05.08-.07,0-.18.03-.18.03-.03.09-.22.09-.22.09-.14.09-.14.43-.14.43-.26.13-.34.64-.34.64.03.11.18.07.18.07.03-.09.17-.08.17-.08.01.11.15.11.15.11.01-.05.12-.11.12-.11v.19c.01.11.1.13.1.13.12.01.27-.29.27-.29.11-.18.2-.18.2-.18.22.14.09.41.09.41-.09.39.29.43.29.43.13,0,.13-.11.13-.11.02-.18.17-.16.17-.16h.15c.1,0,.09-.17.09-.17,0-.08.13,0,.13,0,0,.05.17.1.17.1.16.07.14-.12.14-.12v-.27c0-.07.1-.08.1-.08l.04.36c.31.08.42.22.42.22.25.4.54.24.54.24.07-.1-.04-.37-.04-.37.12.09.17-.05.17-.05-.04-.11-.07-.19-.07-.19-.02-.11.06-.05.06-.05.05.04.26,0,.26,0-.04-.05.02-.15.02-.15l.07.04c.05.16.48.37.48.37.23.09.28.19.28.19.13.21.34.27.34.27.15.05.22.23.22.23.04.27.36.34.36.34v.09c-.09-.02-.16.11-.16.11-.14.06-.17.13-.17.13-.1.06-.02.19-.02.19.22.19.08.31.08.31-.15.05.04.27.04.27.15.22.29.11.29.11.02-.14.15-.25.15-.25.02.05.22.04.22.04.02-.2.18-.2.18-.2,0,.07.18.11.18.11l.09-.05c0,.11.26.25.26.25.18.23.04.53.04.53-.18.34-.16.53-.16.53.02.51-.07.51-.07.51-.05.18.15.62.15.62.04.4-.09.48-.09.48-.17.14-.02.39-.02.39,0,.23-.02.37-.02.37-.02.1.02.21.02.21-.17.3-.07.64-.07.64.03.23.04.45.04.45-.09.11-.04.3-.04.3.05.08.07.21.07.21-.07.2-.02.53-.02.53-.44-.07-1.05-.18-1.14-.2-.17-.03-.35-.12-.35-.12-.68-.11-1.17-.48-1.25-.53-.35-.24-.81-.55-.81-.55-.32-.23-.92-.22-.92-.22.13-.53-.07-.85-.07-.85-.04-.06-.11-.05-.11-.05-.17.02-.21.27-.21.27-.01.14-.07.23-.07.23-.09.13-.15.33-.15.33-.06-.02-.47,0-.47,0-.05-.12-.12-.21-.12-.21-.01-.19-.08-.25-.08-.25-.08-.04-.22-.19-.22-.19-.11-.08-.18.01-.18.01-.17.35.07.72.07.72-.25.01-.39.21-.39.21-.06.11-.19.23-.19.23v.13c-.07.07-.32.21-.32.21-.16.07-.15.28-.15.28-.04.22-.3.32-.3.32-.58.27-.58.45-.58.45,0,.27.11.25.11.25.01.08.08.12.08.12v.09l.08.03c.04.07.29.04.29.04l.07-.04c0,.05.1.05.1.05.06,0,.09,0,.16-.02.03-.07.21-.03.21-.03.05.12.29.09.29.09.04-.05.15-.05.15-.05l.07.04c.07,0,.19-.03.19-.03.11-.08.36-.2.36-.2.11.01.23,0,.23,0,.03-.07.17-.08.17-.08.26,0,.36.06.36.06.24.15.35.39.35.39.2.38.61.66.61.66.15.1.21.21.21.21.18.27.27.26.3.31.2.41.27.32.36.45.15.27.41.31.41.31v.11l.04.08c-.11.11-.22.28-.22.28-.27-.01-.59.23-.59.23-.14.09-.4.07-.4.07-.54.03-.86.55-.86.55-.29.45-.29.75-.29.75-.19.13-.18.29-.18.29-.29.24-.18.52-.18.52.05.08.05.23.05.23-.03.4.12.44.12.44l.04.2c.02.31.3.19.31.25.02.06.1.03.1.03.14,0,.11-.11.11-.11.08-.05.04-.13.04-.13-.01-.07.01-.13.01-.13.08-.09.01-.21.01-.21.07-.06.07-.16.07-.16.03-.21-.07-.28-.07-.28.04-.03.03-.15.03-.15.1-.05.04-.25.04-.25-.04-.11.01-.21.01-.21.08-.07.06-.2.06-.2.2-.32.47-.4.47-.4.15-.05.22-.18.22-.18.43.01.64-.09.64-.09.2-.07.34-.09.34-.09.26-.03.51-.25.51-.25.18-.15.22-.05.22-.05.16.72.36.91.36.91.03.12-.01.21-.01.21-.07.17,0,.44,0,.44.14.05.28.25.28.25.02.16.02.71.02.71l.08.05c-.05.06-.04.28-.04.28,0,.24-.42.17-.42.17-.5-.03-.41.32-.41.32-.28.05-.22.48-.22.48h.82c.31.03.31-.04.31-.04.19.04.23-.09.23-.09.05-.14.08-.22.08-.22.1-.07.18-.14.18-.14-.03-.13-.02-.36-.02-.36.11-.01.21-.16.21-.16-.01-.11.05-.12.05-.12.03-.05.01-.19.01-.19,0-.31-.1-.41-.1-.41-.26-.23-.1-.54-.1-.54.05-.09.04-.18.04-.18,0-.15-.06-.19-.06-.19.03-.36-.04-.44-.04-.44-.05-.04-.07-.19-.07-.19v-.37c-.26-.31.11-.53.11-.53.09-.06.21-.12.21-.12h.52v.42c-.05.02-.06.13-.06.13,0,.19.05.18.05.18v.23c-.12.05-.04.54-.04.54,0,.09,0,.16,0,.16-.08.34.03.35.03.35v.3s.03,0,.03,0v.12l-.04.07c.03.24-.06.31-.06.31-.14.14-.08.46-.08.46l.05.03v.16h-.04c0,.37-.21.68-.21.68-.14.11-.22.37-.22.37-.17.03-.26.19-.26.19-.11.11-.22.12-.22.12-.15.32-.62.37-.62.37-.62.11-.98.15-.98.15-.17.2-.66.16-.66.16-.01.04-.15.15-.15.15-.41,0-.67.24-.67.24-.18.03-.79.04-.79.04-.36.03-.55.25-.55.25h-.04c-.35-.37-.61-.31-.61-.31v-.19c-.14-.03-.17-.24-.17-.24h-.08c-.05.2.14.57.14.57,0,.13.26.09.26.09.11.04.12.19.12.19-.3.01-.35.15-.35.15-.89.17-.99.51-.99.51,0,.17.14.12.14.12.05-.25.77-.45.77-.45.15.01.21-.05.21-.05.51,0,.63-.23.63-.23h.29c.03-.05.18-.16.18-.16.17.04.47.03.47.03-.63.31-.62.57-.62.57-.35.18-.23.45-.23.45-.01.12-.04.16-.04.16-.07.16-.38.32-.38.32-.06-.01-.14.05-.14.05-.28-.01-.33.2-.33.2-.14.03-.1.22-.1.22h.17c.01-.17.37-.33.37-.33.24-.03.43-.15.43-.15.04-.12.12-.24.12-.24.1-.09.1-.25.1-.25.03-.23.18-.33.18-.33.23-.16.83-.67.83-.67.16-.04.27-.12.27-.12.08.01.46-.01.46-.01.03-.05.22-.16.22-.16.59,0,.65-.11.65-.11.18-.05.46-.01.46-.01-.08.07-.62.25-.62.25-.32.11-.59.23-.59.23-.57.07-.54.36-.54.36-.25.11-.18.47-.18.47-.17.07-.17.29-.17.29-.12.03-.32.13-.32.13-.59.04-.54.56-.54.56-.12.07-.23.25-.23.25-.14.05-.1.29-.1.29-.06.01-.07.16-.07.16h.13l.04-.11c.05-.36.33-.45.33-.45.05-.07.11-.12.11-.12.07-.39.37-.4.37-.4.07.04.02.15.06.17.1.07,0,.35,0,.35-.12.01-.08.27-.08.27-.07,0-.03.16-.03.16.1.01.12-.12.12-.12.11-.03.07-.24.07-.24.07-.03.08-.13.08-.13.1-.05.06-.55.06-.55.47-.16.4-.45.4-.45.33-.59.54-.56.54-.56.18-.01.21-.04.21-.04,0-.11.1-.11.1-.11h.06c-.06.19.11.16.11.16l-.03.07c-.15.11-.05.21-.05.21v.05c-.29.19-.21.36-.21.36-.1.03-.18.2-.18.2-.11.03-.07.15-.07.15l.06.03.07-.05s.12-.04.12-.04c.04-.17.23-.29.23-.29l.03-.16c.1-.01.18-.16.18-.16l.03-.55h.36c.04-.11.59-.25.59-.25.25-.03.29-.15.29-.15.01-.19.11-.15.11-.15.3-.05.28-.21.28-.21h.05c0,.29-.08.4-.08.4-.16.05-.25.27-.25.27-.19.08-.11.4-.11.4-.51-.03-.61.35-.61.35-.1.03.01.2.01.2v.31c-.07.03-.19.16-.19.16-.46,0-.4.29-.4.29l-.44.37c-.12.07-.1.23-.1.23h.08c-.04-.11.19-.17.19-.17.15.01.26-.23.26-.23.11-.05.22-.19.22-.19,0-.05.07-.11.07-.11.17.01.28-.07.28-.07.04-.24.17-.24.17-.24.08,0,.08-.09.08-.09l.03-.37c.1-.35.41-.19.41-.19,0,.05.03.08.03.08v.11c-.07,0-.08.13-.08.13,0,.15.06.15.06.15l-.03.47c-.14.17.1.39.1.39.03.05.01.29.01.29-.1.01-.1.28-.1.28-.05,0-.11.05-.11.05-.29-.01-.28.2-.28.2-.17.04-.22.28-.22.28-.05.03-.02.22-.02.22l-.05.04v.19c.1-.01.13,0,.13,0,.04,0,.02-.25.02-.25.09.03.14-.25.14-.25.13-.02.17-.12.17-.12.11.01.15-.04.15-.04.03-.08.11-.01.11-.01-.01.19.1.27.1.27v.39s.07.04.07.04l.03.16h.07c.08-.23-.03-.29-.03-.29v-.08c.1-.15,0-.23,0-.23,0-.31-.03-.37-.03-.37-.07-.23.08-.43.08-.43.1-.16.04-.29.04-.29l-.06-.04c.01-.05.01-.13.01-.13-.17-.17-.12-.35-.12-.35.08-.04.07-.55.07-.55.07-.05.07-.76.07-.76.03.11.16.12.16.12.07,0,.08.11.08.11-.03.22.1.21.1.21.15.02.12-.07.12-.07l-.05-.04c-.01-.07-.04-.09-.04-.09v-.21c-.29-.25-.14-.33-.14-.33.06.01.11-.13.11-.13-.01-.13.06-.17.06-.17.14-.13.18-.24.18-.24-.03-.12.03-.16.03-.16.08.03.14-.15.14-.15l.03.2c-.01.08.05.15.05.15v.21c.06,0,.06.16.06.16-.11.05-.06.21-.06.21l.06.03v.43c-.11.05-.07.31-.07.31l.07.04s.04.1-.02.14c-.1.06-.09.23-.09.23l.04.09c-.05.01-.05.13-.05.13-.08.1-.05.53-.05.53-.12.09-.1.26-.1.26l.04.08c-.19.28.01.43.01.43v.24s.06-.05.06-.05h.06v-.32c-.11-.03-.07-.19-.07-.19.14,0,.08-.19.08-.19h-.05v-.04c.23-.23.15-.51.15-.51l.07.04c.11.01.23.2.23.2.01.07.11.07.11.07.12.01.11.2.11.2h.1s.03-.07.03-.07h-.07s.01-.24.01-.24l-.12-.04c-.12-.28-.39-.37-.39-.37v-.43c.08,0,.11-.17.11-.17.02-.14.01-.67.01-.67.18-.05.12-.4.12-.4-.01-.24.08-.25.08-.25.17-.06.18-.31.18-.31.13-.19.16,0,.16,0,.03.2.11.19.11.19.04,0,.11.03.08.19-.04.22.11.27.11.27.05.27-.04.51-.04.51-.18.11-.14.33-.14.33l.07.04v.4h.05v.04c0,.08-.03.27-.03.27-.06.01-.07.15-.07.15-.06.08.04.16.04.16l.03.24c-.03.2.07.31.07.31.07.15.05.36.05.36-.14.12-.12.47-.12.47-.06.01-.14.15-.14.15v.49h.15v-.47c.1-.01.1-.07.1-.07.03-.12.17-.05.17-.05l.15.11c0,.15.25.2.25.2l.04.15h.1v-.19l-.08-.04c-.17-.36-.5-.43-.5-.43v-.2c.1.01.1-.11.1-.11.06-.15,0-.33,0-.33-.07-.04-.04-.13-.04-.13.03-.11.26-.01.26-.01l.08.05.06.08c.1-.01.12.11.12.11.1.11.28.09.28.09,0,.08.08.12.08.12.04.23.19.23.19.23,0,.05.16.15.16.15l.03.05h.11v-.08c-.17-.01-.18-.17-.18-.17-.14-.03-.18-.16-.18-.16.01-.31-.32-.33-.32-.33-.18-.05-.23-.17-.23-.17.04-.15-.4-.28-.4-.28-.25-.13-.17-.31-.17-.31.08-.01.07-.15.07-.15.07-.08.07-.19.07-.19.03-.15-.1-.2-.1-.2.03-.04-.01-.27-.01-.27.12,0,.07-.16.07-.16.14-.04.1-.16.1-.16-.01-.12.04-.12.04-.12.11-.33.01-.76.01-.76-.05-.11-.03-.2-.03-.2.08,0,.07-.09.07-.09-.01-.19.1-.16.1-.16-.01.07.1.12.1.12l.04.09c.01.15.06.2.06.2.08.03.08.16.08.16l.05.05.03.35c.06.01.08.2.08.2v.29s.07.01.07.01v.07c-.06-.01-.08.05-.08.05-.11.04-.08.17-.08.17-.04,0-.1.12-.1.12v.52s.08.01.08.01l.03-.33c.01-.35.3-.36.3-.36v.44s.06,0,.06,0c.03.07,0,.25,0,.25-.03.07-.01.21-.01.21l.06.03.03.31c.05.13.32.16.32.16l.05.13c.19.08.33.31.33.31,0,.27.11.28.11.28-.03.07.06.21.06.21l.12-.03c-.08-.08-.05-.31-.05-.31,0-.08-.04-.17-.04-.17-.18-.09-.28-.43-.28-.43h-.14l-.03-.08c.14.04.37.03.37.03.03.07.33.08.33.08,0,.09.26.08.26.08.18,0,.23.13.23.13l.04.52h.08s.04-.47.04-.47c.18-.01.33.13.33.13.01.05.12.08.12.08.09,0,.13-.03.13-.03-.12-.25-.58-.35-.58-.35-.28-.32-1.12-.43-1.12-.43-.06-.07-.46-.07-.46-.07.05-.15,0-.38,0-.38-.19-.19-.15-.93-.15-.93-.22-.17-.21-.69-.21-.69-.16-.19-.26-.49-.26-.49-.04-.2-.03-.29-.03-.29h.05c0,.07.04.12.07.17.07.14.3.4.3.4.04.23.1.48.1.48.15.04.29.23.29.23.07.27.61.28.61.28l.04.05h-.08v.57l.05.05c.01.25.11.23.11.23v.12h.21c-.03-.11-.18-.21-.18-.21l-.03-.19c-.07-.03-.06-.16-.06-.16h.06v-.27c0-.15.11-.09.11-.09.1.07.05.13.05.13l.28.04c.28.41.68.28.68.28v.08c-.04.17.07.31.07.31-.01.08.1.15.1.15,0,0-.04-.05.04.03.08.08.07.33.07.33h.17c-.06.13.23.11.23.11.18,0,.25.28.25.28.03.07.15,0,.15,0-.04-.35-.44-.46-.44-.46-.29,0-.25-.17-.25-.17.01-.17-.07-.33-.07-.33-.11-.08-.1-.23-.1-.23.19-.04.52.04.52.04,0,.09.12.2.12.2.1,0,.12.11.12.11.14.29.55.25.55.25.02.18.25.17.25.17.16.02.22.15.22.15.22-.01.21.15.21.15,0,.07.11.04.11.04,0-.29-.57-.53-.57-.53.08,0,.14-.04.14-.04.03-.09.12,0,.12,0,.07.08.37.01.37.01.03-.08.18-.03.18-.03.03.05.12.01.12.01-.03-.25-.39-.19-.39-.19-.05.05-.22.01-.22.01-.36-.21-.55.07-.55.07-.08.03-.17-.04-.17-.04-.03-.17-.28-.25-.28-.25-.11-.48-.69-.41-.69-.41-.73-.01-.83-.25-.83-.25.12-.04.41.03.41.03.07.04.11,0,.11,0,.06-.07.34-.03.34-.03.07.05.41.05.41.05.03.04.23.08.23.08.07.13.26.05.26.05.01-.08.12-.05.12-.05.18.01.11-.15.11-.15-.07,0-.19.05-.19.05-.25.04-.15-.21-.15-.21.07-.05.06-.19.06-.19-.11-.01-.12.15-.12.15-.06-.01-.14.08-.14.08-.03.09-.1.07-.1.07-.1-.17-.72-.11-.72-.11-.22-.07-.88-.03-.88-.03-.25-.36-.62-.28-.62-.28-.45-.1-.45-.41-.45-.41.01-.21-.26-.44-.26-.44-.14-.21.12-.12.12-.12.11.01.21.15.21.15h.32c.06.15.23.17.23.17l.4.03c.61.4.85.24.85.24.05-.07.19-.04.19-.04.06.12.3.09.3.09.08.12.32.13.32.13.31-.11.3,0,.3,0,.04.1.18.11.18.11.28.04.36-.13.36-.13.8.48,1.06.33,1.06.33.06-.02.04-.11.04-.11-.75-.05-1.06-.44-1.06-.44h-.98c-.21-.33-.87-.24-.87-.24-.12.01-.25-.05-.25-.05-.22-.05-.46-.31-.46-.31l-.4-.03c-.06-.07-.36-.24-.36-.24l-.03-.15c-.01-.15-.58-.28-.58-.28-.23-.11-.25-.12-.25-.12-.11-.23-.36-.45-.36-.45l-.04-.36c-.12-.23-.2-.41-.2-.41-.11-.16-.05-.47-.05-.47-.11-.08-.09-.27-.09-.27.05.01.07-.11.07-.11.03-.26.06-.51.06-.51-.08-.03-.03-.15-.03-.15.03-.09.01-.15.01-.15.11-.11,0-.24,0-.24-.1-.11-.03-.23-.03-.23.07-.3.01-.57.01-.57-.05-.15,0-.25,0-.25.06-.11.04-.13.04-.13-.04-.13,0-.27,0-.27,0-.05-.01-.15-.01-.15.05-.04.21-.01.21-.01.04.07.41.04.41.04l.12.07c.88.02,1.08.95,1.08.95.1.33.25.41.25.41-.03.23.07.24.07.24.21.11.19.19.19.19.07.17-.01.8-.01.84,0,.17-.17.2-.17.2-.21.03-.39.05-.39.05-.54.03-.47.33-.47.33-.19.04-.17.48-.17.48.3,0,.99,0,.99,0,.07-.08.08-.15.08-.15.21.02.21-.19.21-.19,0-.17.33-.33.33-.33.26-.08.25-.2.25-.2.01-.19.12-.24.12-.24.12-.11.07-.39.07-.39-.15-.01-.11-.16-.11-.16.04-.13,0-.25,0-.25-.17-.19-.08-.43-.08-.43.06-.1.03-.38.03-.38.28-.04.46-.21.46-.21.06.24.13.33.13.33.54.86,1.54.91,1.54.91.15.07.33.05.33.05.2.2.55.14.55.14.06.19.14.14.18.22.01.18.16.38.16.38-.01.54-.09.55-.09.55-.12.02-.21.08-.21.08-.5,0-.47.32-.47.32,0,.23.24.19.24.19-.03.19.29.16.29.16,0,.2.34.05.34.05.11-.06.2-.07.2-.07.46-.1.3-.41.3-.41.17,0,.15-.38.15-.38h-.05c-.04-.15-.06-.45-.06-.45-.05-.11-.09-.17-.09-.17.03-.4-.17-.44-.17-.44.01-.27-.03-.36-.03-.36-.06-.27-.55-.26-.55-.26-.12-.24-.45-.32-.45-.32-.12-.04-.11-.19-.11-.19.01-.11-.15-.29-.15-.29-.38-.49-.18-.92-.18-.92.32-.6.28-.84.28-.84,0-.43-.2-.74-.2-.74-.07-.12.03-.13.03-.13.22.06.3.32.3.32.07.21.22.29.22.29l.04.17c.11-.03.14.11.14.11.01.53.34.63.34.63l.04.14s.15.05.15.05c.05.41.62.6.62.6.06.36.3.43.3.43.37.21.33.42.35.6.02.13.16.17.16.17,0,.12.19.19.19.19.1.1.1.2.1.2.29.01.17-.32.17-.32-.01-.12.06-.09.06-.09,0-.23-.12-.31-.12-.31-.09-.13.12-.08.12-.08.02-.35-.25-.48-.25-.48-.08-.11-.05-.32-.05-.32-.01-.83-.84-1.28-.84-1.28-.3-.13-.3-.23-.3-.23-.16-.27-.36-.33-.36-.33-.14-.03-.17-.12-.17-.12-.13-.6-.54-.74-.54-.74-.33-.13-.77-.15-.77-.15-.85-1.08-2.41-1.05-2.41-1.05-1.79.05-2.81-.09-2.81-.09-.05-.11-.05-.28-.05-.28,0-.08-.01-.16-.01-.16l.02-.16v-.19c-.06-.03-.03-.28-.03-.28.06-.1,0-.18,0-.18-.03-.09,0-.14,0-.14.07-.04.03-.27.03-.27-.07-.09-.05-.19-.05-.19.04-.03.01-.13.01-.13.06-.07.08-.17.08-.17.06-.11.02-.64.02-.64v-.05c-.08-.05-.05-.36-.05-.36.1-.44.03-1.06.03-1.06h-.04c.04-.43,0-.52,0-.52-.09-.04-.06-.18-.06-.18.04-.15.01-.28.01-.28-.05-.51.15-.75.15-.75.66-.33,1.1-1.29,1.1-1.29-.01.65.21.57.21.57.17,0,.22-.27.22-.27.21.12.19-.08.19-.08.03-.11.08-.11.08-.11.05.17.23.15.23.15.15-.01.08-.12.08-.12-.05-.43.05-.44.05-.44.21-.11.21-.19.21-.19,0-.13.05-.15.05-.15.04.08.18.13.18.13.12.12.23.47.23.47.36-.04.48.08.48.08.18.13.39.16.39.16.48.02.22-.21.22-.21-.11-.05-.11-.11-.11-.11-.03-.12.11-.17.11-.17-.17-.07-.17-.16-.17-.16,0-.17.19-.12.19-.12-.01-.12.1-.12.1-.12.15.16.32.16.32.16.11.01.18-.08.18-.08.14-.16.16,0,.16,0,.49.51,1.08.28,1.08.28.29-.49-.04-.84-.04-.84-.19-.24-.28-.41-.28-.41-.04-.15-.07-.16-.07-.16-.32-.12-.35-.24-.35-.24-.01-.17-.16-.27-.16-.27.02-.07-.07-.09-.07-.09-.14,0-.15.05-.15.05-.06,0-.14-.03-.14-.03.22-.12.19-.2.19-.2.1.11.29.15.29.15.22.01.22-.15.22-.15h.21s-.03.05-.03.05c.32,0,.26.05.26.05.15.13.17-.03.17-.03,0-.21.18-.29.18-.29.23-.09.22-.25.22-.25.22.07.54-.07.54-.07.48-.09.27-.37.27-.37.01-.33-.44-.53-.44-.53-.28-.2-.34-.24-.34-.24.1-.05.18.03.18.03.06.15.28.11.28.11.22.08.32-.09.32-.09.04.13.15.16.15.16.04.03.03.13.03.13-.17.03-.1.12-.1.12-.03.49.72.75.72.75.12.08.3-.08.3-.08.11.58.69.61.69.61.33-.11.12-1.09.12-1.09.17-.04.28.07.28.07.08.25.37.29.37.29.57.09.69-.09.69-.09.08-.53-.68-.95-.68-.95-.35-.17-.48-.32-.48-.32.72-.13.63-.8.63-.8-.19-.25-.63-.07-.63-.07-.15.12-.29.15-.29.15-.43.04-.4.23-.4.23-.4.33-.58.04-.58.04-.13-.16-.29-.17-.29-.17-.32-.03-.22.37-.22.37-.63-.49-1.02-.36-1.02-.36-.15.07-.34,0-.34,0-.23,0-.12-.12-.12-.12.25-.24.72-.43.72-.43-.04.2.54.01.54.01.14.24.55.28.55.28.59.13,1.06-.33,1.06-.33-.22-.08-.28-.23-.28-.23-.14-.32-.63-.55-.63-.55-.12-.11.12-.05.12-.05.05.15.29.07.29.07.01-.07.15-.04.15-.04.29.32.47.21.47.21-.08.2.26.27.26.27.04.43.26.45.26.45.15.09.17-.08.17-.08.01-.07.08-.03.08-.03.22.4.45.32.45.32.59-.17.3-.79.3-.79-.03-.04.03-.07.03-.07.14.05.12-.07.12-.07-.01-.22.26-.11.26-.11.34.15.37.28.37.28-.03.11.15.17.15.17.25.08.21.24.21.24.03.23.07.28.07.28.11.11.21-.01.21-.01.08-.11.17-.01.17-.01.01.15.32.28.32.28.21.07.33-.28.33-.28.2-.37-.07-.63-.07-.63-.06-.08.03-.08.03-.08.3.21.33.2.33.2.18.05.1-.07.1-.07-.06-.21.14-.17.14-.17.54.23.51-.27.51-.27.16-.67-.8-.75-.8-.75h0Zm-18.99,4.78s-.11.07-.18-.03c0,0,.08,0,.09-.03.01-.02.06-.1.09-.1,0,0,.02.12,0,.15"/>
    <path id="path2617" class="cls-1" d="m24.48,37.5s.23-.03.3-.39c0,0,.17-.01.19-.13,0,0,.11.04.12-.04,0,0,.05-.11.17.03,0,0,.22.2.55-.04,0,0,.08-.03.1.01,0,0-.17.09-.17.17,0,0-.26,0-.32.11,0,0-.23,0-.22.12,0,0-.06.08.06.13,0,0,.03.05-.01.09,0,0-.09.01-.08.11,0,0-.1.07-.06.23,0,0,.07.16.22.13,0,0,.13-.02.15-.11,0,0,.1-.09.14-.01,0,0,.05.08.14.04,0,0,.15-.01.17-.12,0,0,.12-.01.14.07,0,0-.01.07.04.12l-.05.08s-.19.07-.1.27c0,0,.08.21.39.01,0,0,.11-.07.19.01,0,0,.23.05.3-.09,0,0,.18-.04.23.11,0,0,.28.2.4-.2,0,0,.08-.14.34-.11,0,0,.52.09.57-.71h-.36s.01-.24.14-.24c0,0,.05-.01.03-.07,0,0,.04.09.17.11,0,0,.07,0,.08.12,0,0-.01.2.18.23,0,0,.1.04.07.12,0,0-.12.07-.05.24,0,0-.11.07.36.13,0,0,.16-.04.25.13,0,0,.08.33.73.29,0,0,.01.23-.14.33,0,0-.34.11-.26.52,0,0,.07.11.29-.04,0,0,.1.03.08.08,0,0,.14.04.23-.03,0,0,.07.11.04.21,0,0-.03.12.04.24,0,0,.04.42-.29.52,0,0-.59.16-.8.79l-.04-.11h-.07s-.03-.07.07-.16c0,0,.22-.24.21-.61,0,0,.08-.09.08-.19,0,0,.11-.11.04-.27,0,0,.01-.11-.08-.13,0,0-.06-.16.01-.2,0,0,.05-.12.03-.27,0,0,.08-.15.04-.19,0,0-.08-.07-.17-.04,0,0-.18-.2-.18-.31,0,0-.02-.19-.23-.19,0,0-.2.01-.17.2,0,0,.07.17-.03.25,0,0-.12-.04-.12.21,0,0,.05.17-.03.19,0,0-.34-.11-.26.25,0,0-.01.04-.1.07,0,0-.28-.01-.59.31,0,0-.06.09-.18.01,0,0-.59-.6-.9-.73-.3-.13-.36-.03-.57-.19,0,0-.12-.2-.45-.24,0,0-.43-.01-.34-.29h.07s.1-.27-.1-.39c0,0-.16-.11-.23-.21,0,0-.26-.24-.4-.37"/>
    <path id="path2619" class="cls-1" d="m22.47,34.39s.31-.02.39-.09c0,0,0,.27.16.35,0,0-.38,0-.47.15,0,0,.04-.29-.07-.29v-.12"/>
    <path id="path2621" class="cls-1" d="m23.06,28.56s.29-.09.37-.23c0,0,.04-.06.08-.05,0,0,.07.11-.03.16,0,0-.05.07-.04.11,0,0-.14.13-.39.02"/>
    <path id="path2623" class="cls-1" d="m28.37,29.68s.17,0,.27-.04c0,0,1.01-.39,1.4-.04,0,0,.07.09.03.27,0,0,.14-.07.26-.07,0,0,.16,0,.19-.12,0,0-.07-.24.29-.31,0,0-.04-.31.3-.32l.02-.04s-.14-.3-.32-.29c0,0-.21,0-.21-.2,0,0-.05-.16-.26-.4,0,0-.27-.24-.26-.49v-.42s-.06.02-.06.02c0,0-.03-.04-.05.04,0,0-.04.13,0,.16h.04s.14.2-.18.29c0,0-.11.04-.19.02,0,0-.2.02-.22.19,0,0,.04.13-.3.18,0,0-.13,0-.11.12,0,0-.02.07.1.11,0,0,.11,0,.08.13,0,0,.03.1-.15.19,0,0-.11.12-.24.13,0,0-.18.08-.14.24,0,0,.02.09-.06.14,0,0-.27.16-.26.51"/>
    <path id="path2625" class="cls-1" d="m27.36,32.44s.28.4.77.08l.07.03s-.18.16-.21.59h-.04s-.03-.32-.33-.31c0,0-.45-.07-.26-.39"/>
    <path id="path2627" class="cls-1" d="m27.28,32.85s.17.27.5.23c0,0,.08.33.29.61,0,0,.07.51.11.76,0,0-.25-.13-.32-.12,0,0,.12-.39-.03-.44,0,0,.04-.33-.16-.32,0,0-.15-.04-.22-.33,0,0-.02-.07-.32,0,0,0,.18-.21.15-.39"/>
    <path id="path2629" class="cls-1" d="m23.41,37.57v-.04s.1.01.11-.02c0,0,.03-.05.05-.04,0,0,.03-.04.05-.04,0,0,.08.22-.21.14Z"/>
    <path id="path2631" class="cls-1" d="m31.19,34.06s-.07-.03-.09.02v.42s.04.02.04.02c0,0-.02-.33.05-.32v-.13"/>
    <path id="path2633" class="cls-1" d="m30.54,33.23s-.03.25.1.29c0,0,.28.06.23.29l-.07-.03s-.29-.25-.38-.2c0,0-.07-.16.02-.16,0,0-.05-.2.1-.2"/>
    <path id="path2635" class="cls-1" d="m31.54,30.58s-.18.37.16.35c0,0,.01.05,0,.11,0,0-.07-.04-.08.19,0,0,.01.16-.04.19,0,0-.03.05-.03.16,0,0-.13.03-.08.19,0,0,0,.09.09.11,0,0,.02.09,0,.13,0,0-.08,0-.08.11,0,0,.03.35-.21.35,0,0-.05,0-.06-.04,0,0-.03-.07-.08-.06,0,0-.05-.36.04-.69,0,0,.17-.56.23-.69,0,0,.05-.05.08-.15,0,0-.04-.21.08-.25"/>
    <path id="path2637" class="cls-1" d="m33.31,31.65s0-.1.1-.11c0,0-.01-.07.09-.07,0,0,.05.02.01.09,0,0,.04.05.08.03,0,0,.02.13-.06.14,0,0,.01.11-.08.1,0,0-.05,0-.04-.06,0,0-.09-.02-.06-.07,0,0-.07,0-.04-.06"/>
    <path id="path2639" class="cls-1" d="m38.21,31.07s0-.12.13-.13c0,0,.05-.14-.03-.2,0,0-.05-.19.18-.19,0,0,.13-.13.23-.03,0,0,.05.05.04.1,0,0,.09.03.07.15,0,0,.12.06.4.02,0,0,0,.16-.12.13,0,0-.18-.07-.31.06,0,0-.03.11-.19.11l-.4-.03"/>
    <path id="path2641" class="cls-1" d="m38.3,31.79s.07.12.18.12.02,0,.02,0c0,0,.06,0,.08-.06,0,0,.11-.07.15.03,0,0,.04.14.27.16,0,0-.09.02-.11.06,0,0-.09,0-.07.11,0,0-.06.04-.12,0,0,0-.14-.09-.27-.07,0,0-.05-.08-.11-.06,0,0-.08-.2-.02-.29"/>
    <path id="path2643" class="cls-1" d="m30.42,38.15s.07.09.24.05c0,0-.05.15-.17.15,0,0-.1-.12-.07-.2"/>
    <path id="path2645" class="cls-1" d="m33.57,38.27s.15-.18.37-.14l.02.14h-.39Z"/>
    <path id="path2647" class="cls-1" d="m33.54,37.29s.11-.13.19-.09v.12l-.19-.03Z"/>
    <path id="path2649" class="cls-1" d="m35.5,36.77h.14s.04.04.04.04v.05h-.11l-.07-.09Z"/>
    <path id="path2651" class="cls-1" d="m34.81,36.04s.21-.02.2.22c0,0,.07.09.19.14,0,0,.08.15-.07.23,0,0,0-.16-.05-.17,0,0-.06-.03-.07-.06v-.04s-.08-.05-.23.06c0,0-.08.16-.29.11,0,0,0-.09.06-.11,0,0,.24-.14.25-.2v-.2"/>
    <path id="path2653" class="cls-1" d="m34.9,35.71s.39.06.42-.08c0,0,.09-.2-.14-.2,0,0-.21-.1-.28.28Z"/>
    <path id="path2655" class="cls-1" d="m34.68,34.45s.18,0,.23.2c0,0,0,.11.11.13,0,0-.03.14-.15.21,0,0-.02.07-.05.09,0,0,0,.06-.05.09l-.03-.03v-.16s-.07-.05-.08-.13c0,0,.05-.07.09-.08,0,0,.03-.19-.03-.19,0,0-.08-.07-.04-.12"/>
    <path id="path2657" class="cls-1" d="m35.34,34.56l.76-.64s-.21-.04-.18-.2c.03-.17,0-.03,0-.03,0,0-.1-.02-.1-.04,0,0-.12.04-.16-.04,0,0,.13.09.05.23,0,0,.07.16-.25.18,0,0-.04,0-.02.09,0,0,.1.19-.06.25,0,0-.12.07-.04.21"/>
    <path id="path2659" class="cls-1" d="m38.48,36.05h.06s.04.12,0,.19h-.04l-.02-.19"/>
    <path id="path2661" class="cls-1" d="m19.99,31.62s.2.18.15.43c0,0,.74.05,1.42.82l.04-.07s-.33-.18-.31-.31c.02-.12.09-.19.24-.15,0,0,.18-.03.02-.14,0,0-.15-.16.05-.21,0,0,.1-.04,0-.19,0,0-.13-.15,0-.24,0,0,.21-.12.35.01,0,0,.3.28.63.29,0,0,.08.12.04.37,0,0,.12-.11.25-.04,0,0,.05-.31.23-.29,0,0,.23-.04.25.21,0,0-.06.43.29.44,0,0,.12-.01.15.03,0,0,.06-.24.18-.23,0,0,.28-.02.28.29,0,0,0,.12-.07.15,0,0-.1.17.1.28,0,0,.03.04.03.12,0,0-.4.12-.45.31,0,0,.21-.02.34.05,0,0,.05.04.11.04.02,0,.04,0,.07,0,.1-.03.19-.17.32-.15,0,0,.12.02.11.23,0,0,0,.09.1.05,0,0,.11-.08.19,0,0,0,.08.08.07.16,0,0,.12.04.14,0,0,0,.11-.12.19.04,0,0,.08.16,0,.23,0,0,.63.19,1.52.19,0,0-.04-.16-.04-.23,0,0-.34,0-.35-.17,0,0-.03-.17.18-.17,0,0,.08-.06-.04-.11,0,0-.13-.1.04-.13v-.07s-.1-.15-.1-.15c0,0-.77.11-.62-.87,0,0-.21-.15-.25-.21,0,0-.44.42-.8.41,0,0-.54.07-.58-.75,0,0-.01-.32.44-.52v-.13s-.88.31-.99.17c0,0-.44-.57.19-.85,0,0,.19.01.23-.08,0,0-.05-.28.18-.27,0,0,.18-.05.21.08,0,0,.14.11.2-.06,0,0,.07-.03.26-.02,0,0-.04-.1-.21-.08,0,0-.73.08-1.12-.29l-.59-.04s-.01.12.06.13c0,0,.23-.04.26.19,0,0,.07.19-.24.29,0,0-.1.09.04.16,0,0,.12.12-.05.21,0,0-.08.15.04.24,0,0,.19.08-.07.28,0,0-.16.09-.26.03,0,0-.16-.03-.17-.12,0,0-.14-.04-.17.03,0,0-.17.03-.17-.02,0,0-.09-.3-.05-.43,0,0-.01-.12-.15-.16,0,0-.12.04-.11-.48v-.27s-.07.01-.07.01c0,0,.05.12-.21.11,0,0-.15.28-.3.23,0,0,.07.29-.05.27,0,0,.03.15-.08.11,0,0-.04.15.04.19,0,0-.01.12.1.15,0,0,.01.12-.11.11,0,0-.15-.01-.21.05,0,0-.07.08-.22.04,0,0-.21.12-.21.35,0,0-.1.01-.33.05,0,0-.15-.08-.25.01-.06.05-.15.17-.32.08"/>
    <path id="path2663" class="cls-1" d="m27.27,30.9s.28-.39.35-.37c0,0,.18.12.26.11,0,0,.03.17.19.23,0,0,.04.23.18.31,0,0-.11.28.06.36,0,0,.18.05.23.03,0,0,.15.39.59.36,0,0,.28,0,.4-.12,0,0,.2-.29-.15-.55,0,0-.39-.31-.39-.41,0,0-.08-.09-.25-.09,0,0-.08-.15-.15-.15,0,0-.08-.16.19-.08,0,0,.15-.03.22.11,0,0,.19.17.3-.07,0,0,.03-.25.29-.2,0,0,.37.05.44-.23,0,0,.08.03.06.12,0,0-.33.21-.26.4,0,0,.17.44.66.39,0,0,.28-.05.37-.21,0,0,.06.17-.01.29,0,0-.15.35,0,1l-.1-.04s-.28-.08-.3-.48c0,0-.16-.04-.18.04,0,0-.23.05-.26-.07,0,0-.29-.12-.39.13,0,0-.03.15.1.19,0,0,.04.08-.03.11,0,0-.14.11.04.21,0,0,.08.12-.03.15,0,0-.19.03-.1.24,0,0,.14.08.25.12,0,0,.08.12.06.2,0,0-.21.01-.22.09,0,0-.43-.04-.45.08,0,0-.07.27-.26.24,0,0-.14.03-.12.09h-.15s-.08.05.04.17c0,0,.03.17-.03.2,0,0-.03.01-.01.08,0,0-.1,0-.04.2,0,0,.07.21.25.16,0,0,.11-.03.14-.12,0,0,.03.01.07.03,0,0,.11.05.04.11,0,0-.18.09-.25.23l-.11.04s-.05.08.14.25c0,0-.12.35.1.48,0,0,.08.11.15.11,0,0,.21.02.22-.25,0,0,.1.08.17.03,0,0,.11-.05.14-.16,0,0,.12-.03.15.05,0,0,.17.08.22.07v.67s-.08.05-.08.16c0,0-.08.11-.15.35,0,0-.08.3-.26.32,0,0-.22.11-.62-.72,0,0-.99-1.84-.62-3.4,0,0,.14-.32-.06-.65-.19-.33-.5-.63-.72-.87l-.3-.04"/>
    <path id="path2665" class="cls-1" d="m26.51,37.71h.09s0-.02,0-.02l.09-.02v-.04s-.09,0-.09,0v.05s-.09.02-.09.04"/>
    <path id="path2667" class="cls-1" d="m33.83,31.46s-.03-.1.21-.07l-.03.05h-.05s-.05.06-.05.06l-.09-.03"/>
    <path id="path2669" class="cls-1" d="m32.59,32.06v.04h.07l.02-.04h-.09"/>
    <path id="path2671" class="cls-1" d="m39.15,31.97s.05-.13.17-.12c0,0,.05.09,0,.08,0,0-.07.07-.16.04"/>
    <path id="path2673" class="cls-1" d="m27.56,30.22l.03.15s-.34.17-.39.42c0,0-.05-.06-.08-.04v-.07h.07s-.06-.25.03-.3c0,0,.13-.09.22-.08l.06-.06h.07"/>
    <path id="path2675" class="cls-1" d="m27.27,37.19s.11.17.3.2c0,0-.14.1-.47.08l-.05-.03s.18-.12.22-.25Z"/>
    <path id="path2677" class="cls-3" d="m22.68,21.88H4.48c.11.51.23,1.03.35,1.56h17.85s0-1.56,0-1.56Z"/>
    <path id="path2679" class="cls-3" d="m34.85,21.88h18.21c-.11.51-.23,1.03-.35,1.56h-17.86s0-1.56,0-1.56Z"/>
    <path id="path2681" class="cls-4" d="m22.68,19.82H4.06c.1.51.2,1.03.31,1.56h18.3s0-1.56,0-1.56Z"/>
    <path id="path2683" class="cls-4" d="m34.85,19.82h18.63c-.1.51-.2,1.03-.31,1.56h-18.31s0-1.56,0-1.56"/>
  </g>
</svg>