<?xml version="1.0" encoding="UTF-8"?>
<svg id="Layer_2" data-name="Layer 2" xmlns="http://www.w3.org/2000/svg" xmlns:xlink="http://www.w3.org/1999/xlink" viewBox="0 0 342 426.72">
  <defs>
    <style>
      .cls-1 {
        clip-path: url(#clippath);
      }

      .cls-2 {
        fill: none;
      }

      .cls-2, .cls-3, .cls-4, .cls-5, .cls-6 {
        stroke-width: 0px;
      }

      .cls-3, .cls-4, .cls-5 {
        fill-rule: evenodd;
      }

      .cls-3, .cls-6 {
        fill: #1d1d1d;
      }

      .cls-4 {
        fill: #fff;
      }

      .cls-5 {
        fill: #c2c2c2;
      }
    </style>
    <clipPath id="clippath">
      <rect class="cls-2" width="342" height="426.72"/>
    </clipPath>
  </defs>
  <g id="Layer_1-2" data-name="Layer 1">
    <g>
      <g class="cls-1">
        <path class="cls-5" d="m62.28,327.3C19.23,267.18.29,194.98,0,121.59c-.08-20.6,1.21-41.12,4.14-61.52C6.91,40.81,11.1,21.86,16.5,3.18c.65-2.26,1.37-2.62,3.64-2.62h301.88c2.3,0,3.11.47,3.73,2.75,4.6,16.85,8.29,33.89,10.91,51.16,2.75,18.1,4.3,36.31,4.83,54.61.17,5.87.24,11.74.23,17.61-.11,73.43-21.41,146.64-65.41,205.93-10.13,13.65-20.99,26.59-33.03,38.59-20.73,20.66-44.1,37.6-68.64,53.43-2.05,1.32-3.72,1.55-5.84.25-41.66-25.62-77.99-57.75-106.52-97.59h0Z"/>
      </g>
      <path class="cls-4" d="m63.46,326.46C20.56,266.55,1.75,194.64,1.46,121.58,1.29,80.42,6.52,42.93,17.89,3.58c.45-1.57.61-1.57,2.24-1.57h301.88c1.66,0,1.89.08,2.32,1.68,9.63,35.3,14.62,68.7,15.69,105.43.17,5.85.24,11.71.23,17.57-.11,73.14-21.31,146.03-65.12,205.06-28.17,37.97-55.59,62.19-101.29,91.67-1.71,1.1-2.77,1.16-4.3.23-41.75-25.68-77.77-57.63-106.1-97.2h0Z"/>
      <path class="cls-3" d="m25.09,7.71h292.05c11.97,43.31,15.44,80.53,15.38,118.98-.11,72.03-19.6,139.26-62.14,196.58-24.96,33.63-56.95,64.01-99.33,89.5-44.62-27.9-77.35-58.6-101.89-92.88C25.8,259.34,9.48,190.13,9.2,121.55c-.16-38.85,4.57-76.06,15.88-113.84h0Z"/>
      <path class="cls-4" d="m317.19,187.66c3.45-19.88,5.13-40.26,5.16-60.99.06-37.58-3.74-72.62-13.02-108.79H122.87v32.5h-20.69V17.88h-20.21v32.5h-20.69V17.88h-28.55c-9.42,34-13.51,68.22-13.36,103.63.28,69.32,17.33,135.59,58.05,192.46,5.84,8.16,12.05,15.93,18.58,23.34l221.19-149.65Zm-255.9,75.41c5.98,12.28,12.97,24.15,20.69,35.47v-144.94h-20.69v109.47Zm40.9,55.38l20.69-12.99v-151.85h-20.69v164.84Zm41.58-105.96h59.65c23.42,0,51.76-11.8,73-37.25,14.61-17.5,26.38-42.09,28.82-71.55,1.91-23.11-2.86-54.04-21.16-80.19,21.02,25.35,27.16,58.07,26.77,81.44-.23,14.05-4.05,27.66-7.97,39.1-11.27,32.95-33.96,54.29-57.15,65.89-15.26,7.64-31.3,9.15-41.07,9.15h-40.2v60.27l-20.69,12.99v-79.85Z"/>
      <path class="cls-3" d="m256.21,106.23h25.8v7.71h-16.56v6.04h14.3v6.7h-14.3v6.79h16.8v7.66l-26.05-.02v-34.89Z"/>
      <path class="cls-3" d="m190.23,106.23h25.81v7.71h-16.56v6.04h14.3v6.7h-14.3v6.79h16.92v7.64h-26.17v-34.89Z"/>
      <rect class="cls-6" x="95.56" y="106.23" width="9.73" height="34.89"/>
      <path class="cls-3" d="m61.32,61.19h9.73v19.27c0,5.87,3.86,7.86,7.5,7.86s6.98-2.66,6.98-7.79v-19.34h9.74v18.19c0,12.25-9,16.43-17.02,16.43s-16.93-3.9-16.93-17.37v-17.25Z"/>
      <path class="cls-3" d="m149.31,106.23h6.93l16.93,19.73v-19.73h9.25v34.89h-7.32l-16.53-19.14v19.14s-9.25,0-9.25,0v-34.89Z"/>
      <path class="cls-3" d="m123.16,106.23h8.4l13.2,34.89h-9.74l-2.14-7.33h-11.22l-2.09,7.33h-9.61l13.2-34.89Zm8.24,22.48l-3.24-11.07h-1.89s-3.16,11.07-3.16,11.07h8.29Z"/>
      <path class="cls-3" d="m61.9,106.23h15.61c4.21,0,12.52,3.12,12.52,12.1s-7.6,11.38-11.05,11.38h-7.84v11.41h-9.25v-34.89Zm14.89,7.71h-5.64v9.07h5.64c3.04,0,4.19-2.27,4.18-4.53,0-2.27-1.16-4.54-4.18-4.54h0Z"/>
      <path class="cls-3" d="m249.53,109.99l-4.24,7.21c-3.3-2.18-5.81-3.14-9.28-3.34-1.62-.09-4.27.09-4.39,2.3-.1,1.75,2.07,2.46,4.54,3.21,3.17.96,7.27,2.04,9.75,3.46,1.32.75,2.57,1.72,3.35,3.12.7,1.24,1.12,2.87,1.18,4.24.18,3.9-1.6,6.79-4.25,8.5-2.79,1.8-6.09,2.33-10.1,2.45-5.31.16-11.4-1.6-15.81-4.01l3.98-7.23c3.57,1.87,8.12,3.63,12.42,3.89,1.51.09,4-.5,4.07-2.35.05-1.55-2.09-2.4-4.61-3.08-3.22-.87-7.39-1.71-9.72-3.2-3.08-1.97-4.67-4.57-4.66-7.5.02-8.46,7.7-11.45,13.45-11.47,4.91-.02,9.58,1.16,14.3,3.79h0Z"/>
      <path class="cls-3" d="m142.43,64.57l-4.24,7.21c-3.3-2.18-5.81-3.14-9.28-3.34-1.61-.09-4.26.09-4.39,2.3-.09,1.75,2.08,2.46,4.54,3.21,3.17.96,7.27,2.04,9.76,3.47,1.32.75,2.57,1.72,3.35,3.12.69,1.24,1.12,2.88,1.18,4.24.17,3.9-1.6,6.79-4.25,8.5-2.79,1.8-6.09,2.33-10.1,2.45-5.31.16-11.4-1.6-15.81-4.01l3.98-7.23c3.56,1.87,8.11,3.63,12.42,3.89,1.51.09,4-.5,4.07-2.35.06-1.55-2.1-2.4-4.61-3.08-3.23-.87-7.4-1.71-9.72-3.2-3.08-1.97-4.67-4.57-4.66-7.5.01-8.46,7.7-11.45,13.45-11.47,4.91-.01,9.58,1.16,14.3,3.79h0Z"/>
      <rect class="cls-6" x="148.76" y="87.11" width="6.95" height="8.57"/>
      <rect class="cls-6" x="101.3" y="87.11" width="6.95" height="8.57"/>
      <path class="cls-3" d="m187.45,149.67c4.62,0,8.36,4.49,8.36,10.02s-3.74,10.02-8.36,10.02-8.36-4.49-8.36-10.02,3.74-10.02,8.36-10.02h0Zm0,2.18c3.41,0,6.18,3.51,6.18,7.85s-2.77,7.84-6.18,7.84-6.18-3.51-6.18-7.84,2.77-7.85,6.18-7.85h0Z"/>
      <path class="cls-3" d="m137.87,150.47h-2.18v.02c-.95,1.23-2.66,2.85-5.08,3.3v2.18c2.29-.53,4.22-1.83,5.08-2.84v14.18h-4.29v2.18h10.66v-2.18h-4.2v-16.85Z"/>
      <path class="cls-3" d="m169.43,160.44c2.14-.29,4.1-1.47,4.3-3.85.24-2.83-1.93-4.27-4.53-4.27-2.54,0-4.11,1.41-5.56,3.6l-1.64-1.44c1.27-2.27,4.05-4.22,7.32-4.22,1.52,0,3.15.42,4.39,1.32,1.72,1.24,2.36,3.13,2.18,5.2-.18,2.15-1.32,3.72-2.91,4.69,2.11,1.05,3.55,2.97,3.56,5.87,0,3.84-3.4,6.55-7.05,6.7-3.62.15-6.02-1.53-7.91-4.42l1.82-1.19c1.46,2.23,3.15,3.55,6,3.44,2.47-.1,4.96-1.87,4.96-4.52,0-2.99-2.16-4.31-4.72-4.59-.79-.09-1.24-.06-2.03-.06l-.02-2.16c.72-.01,1.1,0,1.82-.09h0Z"/>
      <path class="cls-3" d="m159.77,162.39c-.13,3.47-.69,6.83-2.64,9.12-1.18,1.37-2.89,2.51-5.43,2.61-3.64.15-5.86-1.6-7.53-4.97l1.87-1.12c1.29,2.68,2.96,4.02,5.39,3.91,1.47-.07,2.65-.48,3.68-1.57,1.32-1.4,2.13-3.68,2.37-6.03-1.94,1.85-3.71,2.53-5.94,2.53-4.45,0-8.06-3.68-8.06-8.23s3.61-8.23,8.06-8.23c2.32,0,4.41,1,5.88,2.6,2.38,2.59,2.49,6.06,2.36,9.37h0Zm-2.38-4.11c-.18-3.17-2.74-5.68-5.87-5.68s-5.88,2.71-5.88,6.05,2.63,6.05,5.88,6.05c3.62,0,5.88-3.04,5.87-6.41h0Z"/>
    </g>
  </g>
</svg>