<?xml version="1.0" encoding="UTF-8"?>
<svg id="Layer_2" data-name="Layer 2" xmlns="http://www.w3.org/2000/svg" xmlns:xlink="http://www.w3.org/1999/xlink" viewBox="0 0 33.56 19.58">
  <defs>
    <style>
      .cls-1 {
        clip-path: url(#clippath);
      }

      .cls-2 {
        fill: none;
      }

      .cls-2, .cls-3, .cls-4, .cls-5 {
        stroke-width: 0px;
      }

      .cls-6 {
        clip-path: url(#clippath-1);
      }

      .cls-7 {
        clip-path: url(#clippath-4);
      }

      .cls-8 {
        clip-path: url(#clippath-3);
      }

      .cls-9 {
        clip-path: url(#clippath-2);
      }

      .cls-10 {
        clip-path: url(#clippath-7);
      }

      .cls-11 {
        clip-path: url(#clippath-8);
      }

      .cls-12 {
        clip-path: url(#clippath-6);
      }

      .cls-13 {
        clip-path: url(#clippath-5);
      }

      .cls-14 {
        clip-path: url(#clippath-9);
      }

      .cls-15 {
        clip-path: url(#clippath-60);
      }

      .cls-16 {
        clip-path: url(#clippath-20);
      }

      .cls-17 {
        clip-path: url(#clippath-21);
      }

      .cls-18 {
        clip-path: url(#clippath-24);
      }

      .cls-19 {
        clip-path: url(#clippath-23);
      }

      .cls-20 {
        clip-path: url(#clippath-22);
      }

      .cls-21 {
        clip-path: url(#clippath-25);
      }

      .cls-22 {
        clip-path: url(#clippath-44);
      }

      .cls-23 {
        clip-path: url(#clippath-45);
      }

      .cls-24 {
        clip-path: url(#clippath-40);
      }

      .cls-25 {
        clip-path: url(#clippath-42);
      }

      .cls-26 {
        clip-path: url(#clippath-41);
      }

      .cls-27 {
        clip-path: url(#clippath-47);
      }

      .cls-28 {
        clip-path: url(#clippath-43);
      }

      .cls-29 {
        clip-path: url(#clippath-46);
      }

      .cls-30 {
        clip-path: url(#clippath-48);
      }

      .cls-31 {
        clip-path: url(#clippath-49);
      }

      .cls-32 {
        clip-path: url(#clippath-27);
      }

      .cls-33 {
        clip-path: url(#clippath-28);
      }

      .cls-34 {
        clip-path: url(#clippath-26);
      }

      .cls-35 {
        clip-path: url(#clippath-29);
      }

      .cls-36 {
        clip-path: url(#clippath-34);
      }

      .cls-37 {
        clip-path: url(#clippath-35);
      }

      .cls-38 {
        clip-path: url(#clippath-36);
      }

      .cls-39 {
        clip-path: url(#clippath-37);
      }

      .cls-40 {
        clip-path: url(#clippath-39);
      }

      .cls-41 {
        clip-path: url(#clippath-33);
      }

      .cls-42 {
        clip-path: url(#clippath-32);
      }

      .cls-43 {
        clip-path: url(#clippath-30);
      }

      .cls-44 {
        clip-path: url(#clippath-38);
      }

      .cls-45 {
        clip-path: url(#clippath-31);
      }

      .cls-46 {
        clip-path: url(#clippath-53);
      }

      .cls-47 {
        clip-path: url(#clippath-54);
      }

      .cls-48 {
        clip-path: url(#clippath-50);
      }

      .cls-49 {
        clip-path: url(#clippath-51);
      }

      .cls-50 {
        clip-path: url(#clippath-52);
      }

      .cls-51 {
        clip-path: url(#clippath-55);
      }

      .cls-52 {
        clip-path: url(#clippath-56);
      }

      .cls-53 {
        clip-path: url(#clippath-57);
      }

      .cls-54 {
        clip-path: url(#clippath-58);
      }

      .cls-55 {
        clip-path: url(#clippath-61);
      }

      .cls-56 {
        clip-path: url(#clippath-62);
      }

      .cls-57 {
        clip-path: url(#clippath-59);
      }

      .cls-58 {
        clip-path: url(#clippath-63);
      }

      .cls-59 {
        clip-path: url(#clippath-14);
      }

      .cls-60 {
        clip-path: url(#clippath-13);
      }

      .cls-61 {
        clip-path: url(#clippath-12);
      }

      .cls-62 {
        clip-path: url(#clippath-10);
      }

      .cls-63 {
        clip-path: url(#clippath-15);
      }

      .cls-64 {
        clip-path: url(#clippath-17);
      }

      .cls-65 {
        clip-path: url(#clippath-16);
      }

      .cls-66 {
        clip-path: url(#clippath-19);
      }

      .cls-67 {
        clip-path: url(#clippath-11);
      }

      .cls-68 {
        clip-path: url(#clippath-18);
      }

      .cls-3 {
        fill: #2a3560;
      }

      .cls-4 {
        fill: #cb001c;
      }

      .cls-5 {
        fill: #fff;
      }
    </style>
    <clipPath id="clippath">
      <rect class="cls-2" width="33.56" height="19.58"/>
    </clipPath>
    <clipPath id="clippath-1">
      <rect class="cls-2" width="33.56" height="19.58"/>
    </clipPath>
    <clipPath id="clippath-2">
      <rect class="cls-2" width="33.56" height="19.58"/>
    </clipPath>
    <clipPath id="clippath-3">
      <rect class="cls-2" width="33.56" height="19.58"/>
    </clipPath>
    <clipPath id="clippath-4">
      <rect class="cls-2" width="33.56" height="19.58"/>
    </clipPath>
    <clipPath id="clippath-5">
      <rect class="cls-2" width="33.56" height="19.58"/>
    </clipPath>
    <clipPath id="clippath-6">
      <rect class="cls-2" width="33.56" height="19.58"/>
    </clipPath>
    <clipPath id="clippath-7">
      <rect class="cls-2" width="33.56" height="19.58"/>
    </clipPath>
    <clipPath id="clippath-8">
      <rect class="cls-2" width="33.56" height="19.58"/>
    </clipPath>
    <clipPath id="clippath-9">
      <rect class="cls-2" width="33.56" height="19.58"/>
    </clipPath>
    <clipPath id="clippath-10">
      <rect class="cls-2" width="33.56" height="19.58"/>
    </clipPath>
    <clipPath id="clippath-11">
      <rect class="cls-2" width="33.56" height="19.58"/>
    </clipPath>
    <clipPath id="clippath-12">
      <rect class="cls-2" width="33.56" height="19.58"/>
    </clipPath>
    <clipPath id="clippath-13">
      <rect class="cls-2" width="33.56" height="19.58"/>
    </clipPath>
    <clipPath id="clippath-14">
      <rect class="cls-2" width="33.56" height="19.58"/>
    </clipPath>
    <clipPath id="clippath-15">
      <rect class="cls-2" width="33.56" height="19.58"/>
    </clipPath>
    <clipPath id="clippath-16">
      <rect class="cls-2" width="33.56" height="19.58"/>
    </clipPath>
    <clipPath id="clippath-17">
      <rect class="cls-2" width="33.56" height="19.58"/>
    </clipPath>
    <clipPath id="clippath-18">
      <rect class="cls-2" width="33.56" height="19.58"/>
    </clipPath>
    <clipPath id="clippath-19">
      <rect class="cls-2" width="33.56" height="19.58"/>
    </clipPath>
    <clipPath id="clippath-20">
      <rect class="cls-2" width="33.56" height="19.58"/>
    </clipPath>
    <clipPath id="clippath-21">
      <rect class="cls-2" width="33.56" height="19.58"/>
    </clipPath>
    <clipPath id="clippath-22">
      <rect class="cls-2" width="33.56" height="19.58"/>
    </clipPath>
    <clipPath id="clippath-23">
      <rect class="cls-2" width="33.56" height="19.58"/>
    </clipPath>
    <clipPath id="clippath-24">
      <rect class="cls-2" width="33.56" height="19.58"/>
    </clipPath>
    <clipPath id="clippath-25">
      <rect class="cls-2" width="33.56" height="19.58"/>
    </clipPath>
    <clipPath id="clippath-26">
      <rect class="cls-2" width="33.56" height="19.58"/>
    </clipPath>
    <clipPath id="clippath-27">
      <rect class="cls-2" width="33.56" height="19.58"/>
    </clipPath>
    <clipPath id="clippath-28">
      <rect class="cls-2" width="33.56" height="19.58"/>
    </clipPath>
    <clipPath id="clippath-29">
      <rect class="cls-2" width="33.56" height="19.58"/>
    </clipPath>
    <clipPath id="clippath-30">
      <rect class="cls-2" width="33.56" height="19.58"/>
    </clipPath>
    <clipPath id="clippath-31">
      <rect class="cls-2" width="33.56" height="19.58"/>
    </clipPath>
    <clipPath id="clippath-32">
      <rect class="cls-2" width="33.56" height="19.58"/>
    </clipPath>
    <clipPath id="clippath-33">
      <rect class="cls-2" width="33.56" height="19.58"/>
    </clipPath>
    <clipPath id="clippath-34">
      <rect class="cls-2" width="33.56" height="19.58"/>
    </clipPath>
    <clipPath id="clippath-35">
      <rect class="cls-2" width="33.56" height="19.58"/>
    </clipPath>
    <clipPath id="clippath-36">
      <rect class="cls-2" width="33.56" height="19.58"/>
    </clipPath>
    <clipPath id="clippath-37">
      <rect class="cls-2" width="33.56" height="19.58"/>
    </clipPath>
    <clipPath id="clippath-38">
      <rect class="cls-2" width="33.56" height="19.58"/>
    </clipPath>
    <clipPath id="clippath-39">
      <rect class="cls-2" width="33.56" height="19.58"/>
    </clipPath>
    <clipPath id="clippath-40">
      <rect class="cls-2" width="33.56" height="19.58"/>
    </clipPath>
    <clipPath id="clippath-41">
      <rect class="cls-2" width="33.56" height="19.58"/>
    </clipPath>
    <clipPath id="clippath-42">
      <rect class="cls-2" width="33.56" height="19.58"/>
    </clipPath>
    <clipPath id="clippath-43">
      <rect class="cls-2" width="33.56" height="19.58"/>
    </clipPath>
    <clipPath id="clippath-44">
      <rect class="cls-2" width="33.56" height="19.58"/>
    </clipPath>
    <clipPath id="clippath-45">
      <rect class="cls-2" width="33.56" height="19.58"/>
    </clipPath>
    <clipPath id="clippath-46">
      <rect class="cls-2" width="33.56" height="19.58"/>
    </clipPath>
    <clipPath id="clippath-47">
      <rect class="cls-2" width="33.56" height="19.58"/>
    </clipPath>
    <clipPath id="clippath-48">
      <rect class="cls-2" width="33.56" height="19.58"/>
    </clipPath>
    <clipPath id="clippath-49">
      <rect class="cls-2" width="33.56" height="19.58"/>
    </clipPath>
    <clipPath id="clippath-50">
      <rect class="cls-2" width="33.56" height="19.58"/>
    </clipPath>
    <clipPath id="clippath-51">
      <rect class="cls-2" width="33.56" height="19.58"/>
    </clipPath>
    <clipPath id="clippath-52">
      <rect class="cls-2" width="33.56" height="19.58"/>
    </clipPath>
    <clipPath id="clippath-53">
      <rect class="cls-2" width="33.56" height="19.58"/>
    </clipPath>
    <clipPath id="clippath-54">
      <rect class="cls-2" width="33.56" height="19.58"/>
    </clipPath>
    <clipPath id="clippath-55">
      <rect class="cls-2" width="33.56" height="19.58"/>
    </clipPath>
    <clipPath id="clippath-56">
      <rect class="cls-2" width="33.56" height="19.58"/>
    </clipPath>
    <clipPath id="clippath-57">
      <rect class="cls-2" width="33.56" height="19.58"/>
    </clipPath>
    <clipPath id="clippath-58">
      <rect class="cls-2" width="33.56" height="19.58"/>
    </clipPath>
    <clipPath id="clippath-59">
      <rect class="cls-2" width="33.56" height="19.58"/>
    </clipPath>
    <clipPath id="clippath-60">
      <rect class="cls-2" width="33.56" height="19.58"/>
    </clipPath>
    <clipPath id="clippath-61">
      <rect class="cls-2" width="33.56" height="19.58"/>
    </clipPath>
    <clipPath id="clippath-62">
      <rect class="cls-2" width="33.56" height="19.58"/>
    </clipPath>
    <clipPath id="clippath-63">
      <rect class="cls-2" width="33.56" height="19.58"/>
    </clipPath>
  </defs>
  <g id="Layer_1-2" data-name="Layer 1">
    <g id="USA">
      <g>
        <g class="cls-1">
          <rect class="cls-4" y="18.07" width="33.56" height="1.51"/>
        </g>
        <g class="cls-6">
          <rect class="cls-5" y="16.57" width="33.56" height="1.51"/>
        </g>
        <g class="cls-9">
          <rect class="cls-4" y="15.06" width="33.56" height="1.51"/>
        </g>
        <g class="cls-8">
          <rect class="cls-5" y="13.56" width="33.56" height="1.51"/>
        </g>
        <g class="cls-7">
          <rect class="cls-4" y="12.05" width="33.56" height="1.51"/>
        </g>
        <g class="cls-13">
          <rect class="cls-5" y="10.54" width="33.56" height="1.51"/>
        </g>
        <g class="cls-12">
          <rect class="cls-4" y="9.04" width="33.56" height="1.51"/>
        </g>
        <g class="cls-10">
          <rect class="cls-5" y="7.53" width="33.56" height="1.51"/>
        </g>
        <g class="cls-11">
          <rect class="cls-4" y="6.03" width="33.56" height="1.51"/>
        </g>
        <g class="cls-14">
          <rect class="cls-5" y="4.52" width="33.56" height="1.51"/>
        </g>
        <g class="cls-62">
          <rect class="cls-4" y="3.01" width="33.56" height="1.51"/>
        </g>
        <g class="cls-67">
          <rect class="cls-5" y="1.51" width="33.56" height="1.51"/>
        </g>
        <g class="cls-61">
          <rect class="cls-4" width="33.56" height="1.51"/>
        </g>
        <g class="cls-60">
          <rect class="cls-3" width="15.33" height="10.54"/>
        </g>
        <g class="cls-59">
          <polygon class="cls-5" points="1.39 1.16 1.52 1.56 1.94 1.56 1.6 1.81 1.72 2.21 1.39 1.96 1.04 2.21 1.18 1.81 .84 1.56 1.25 1.56 1.39 1.16"/>
        </g>
        <g class="cls-63">
          <polygon class="cls-5" points="1.39 2.92 1.52 3.32 1.94 3.32 1.6 3.57 1.72 3.97 1.39 3.72 1.04 3.97 1.18 3.57 .84 3.32 1.25 3.32 1.39 2.92"/>
        </g>
        <g class="cls-65">
          <polygon class="cls-5" points="1.39 4.68 1.52 5.08 1.94 5.08 1.6 5.33 1.72 5.73 1.39 5.48 1.04 5.73 1.18 5.33 .84 5.08 1.25 5.08 1.39 4.68"/>
        </g>
        <g class="cls-64">
          <polygon class="cls-5" points="1.39 6.44 1.52 6.84 1.94 6.84 1.6 7.09 1.72 7.49 1.39 7.24 1.04 7.49 1.18 7.09 .84 6.84 1.25 6.84 1.39 6.44"/>
        </g>
        <g class="cls-68">
          <polygon class="cls-5" points="1.39 8.2 1.52 8.6 1.94 8.6 1.6 8.85 1.72 9.24 1.39 9 1.04 9.24 1.18 8.85 .84 8.6 1.25 8.6 1.39 8.2"/>
        </g>
        <g class="cls-66">
          <polygon class="cls-5" points="2.61 2.09 2.74 2.49 3.16 2.49 2.82 2.74 2.95 3.13 2.61 2.89 2.27 3.13 2.4 2.74 2.06 2.49 2.48 2.49 2.61 2.09"/>
        </g>
        <g class="cls-16">
          <polygon class="cls-5" points="2.61 3.85 2.74 4.25 3.16 4.25 2.82 4.49 2.95 4.89 2.61 4.65 2.27 4.89 2.4 4.49 2.06 4.25 2.48 4.25 2.61 3.85"/>
        </g>
        <g class="cls-17">
          <polygon class="cls-5" points="2.61 5.61 2.74 6.01 3.16 6.01 2.82 6.25 2.95 6.65 2.61 6.41 2.27 6.65 2.4 6.25 2.06 6.01 2.48 6.01 2.61 5.61"/>
        </g>
        <g class="cls-20">
          <polygon class="cls-5" points="2.61 7.37 2.74 7.77 3.16 7.77 2.82 8.01 2.95 8.41 2.61 8.16 2.27 8.41 2.4 8.01 2.06 7.77 2.48 7.77 2.61 7.37"/>
        </g>
        <g class="cls-19">
          <polygon class="cls-5" points="3.85 1.16 3.98 1.56 4.4 1.56 4.06 1.81 4.19 2.21 3.85 1.96 3.51 2.21 3.64 1.81 3.3 1.56 3.72 1.56 3.85 1.16"/>
        </g>
        <g class="cls-18">
          <polygon class="cls-5" points="3.85 2.92 3.98 3.32 4.4 3.32 4.06 3.57 4.19 3.97 3.85 3.72 3.51 3.97 3.64 3.57 3.3 3.32 3.72 3.32 3.85 2.92"/>
        </g>
        <g class="cls-21">
          <polygon class="cls-5" points="3.85 4.68 3.98 5.08 4.4 5.08 4.06 5.33 4.19 5.73 3.85 5.48 3.51 5.73 3.64 5.33 3.3 5.08 3.72 5.08 3.85 4.68"/>
        </g>
        <g class="cls-34">
          <polygon class="cls-5" points="3.85 6.44 3.98 6.84 4.4 6.84 4.06 7.09 4.19 7.49 3.85 7.24 3.51 7.49 3.64 7.09 3.3 6.84 3.72 6.84 3.85 6.44"/>
        </g>
        <g class="cls-32">
          <polygon class="cls-5" points="3.85 8.2 3.98 8.6 4.4 8.6 4.06 8.85 4.19 9.24 3.85 9 3.51 9.24 3.64 8.85 3.3 8.6 3.72 8.6 3.85 8.2"/>
        </g>
        <g class="cls-33">
          <polygon class="cls-5" points="5.08 2.09 5.2 2.49 5.63 2.49 5.28 2.74 5.42 3.13 5.08 2.89 4.74 3.13 4.87 2.74 4.53 2.49 4.95 2.49 5.08 2.09"/>
        </g>
        <g class="cls-35">
          <polygon class="cls-5" points="5.08 3.85 5.2 4.25 5.63 4.25 5.28 4.49 5.42 4.89 5.08 4.65 4.74 4.89 4.87 4.49 4.53 4.25 4.95 4.25 5.08 3.85"/>
        </g>
        <g class="cls-43">
          <polygon class="cls-5" points="5.08 5.61 5.2 6.01 5.63 6.01 5.28 6.25 5.42 6.65 5.08 6.41 4.74 6.65 4.87 6.25 4.53 6.01 4.95 6.01 5.08 5.61"/>
        </g>
        <g class="cls-45">
          <polygon class="cls-5" points="5.08 7.37 5.2 7.77 5.63 7.77 5.28 8.01 5.42 8.41 5.08 8.16 4.74 8.41 4.87 8.01 4.53 7.77 4.95 7.77 5.08 7.37"/>
        </g>
        <g class="cls-42">
          <polygon class="cls-5" points="6.32 1.16 6.45 1.56 6.86 1.56 6.52 1.81 6.66 2.21 6.32 1.96 5.98 2.21 6.11 1.81 5.77 1.56 6.19 1.56 6.32 1.16"/>
        </g>
        <g class="cls-41">
          <polygon class="cls-5" points="6.32 2.92 6.45 3.32 6.86 3.32 6.52 3.57 6.66 3.97 6.32 3.72 5.98 3.97 6.11 3.57 5.77 3.32 6.19 3.32 6.32 2.92"/>
        </g>
        <g class="cls-36">
          <polygon class="cls-5" points="6.32 4.68 6.45 5.08 6.86 5.08 6.52 5.33 6.66 5.73 6.32 5.48 5.98 5.73 6.11 5.33 5.77 5.08 6.19 5.08 6.32 4.68"/>
        </g>
        <g class="cls-37">
          <polygon class="cls-5" points="6.32 6.44 6.45 6.84 6.86 6.84 6.52 7.09 6.66 7.49 6.32 7.24 5.98 7.49 6.11 7.09 5.77 6.84 6.19 6.84 6.32 6.44"/>
        </g>
        <g class="cls-38">
          <polygon class="cls-5" points="6.32 8.2 6.45 8.6 6.86 8.6 6.52 8.85 6.66 9.24 6.32 9 5.98 9.24 6.11 8.85 5.77 8.6 6.19 8.6 6.32 8.2"/>
        </g>
        <g class="cls-39">
          <polygon class="cls-5" points="7.54 2.09 7.67 2.49 8.09 2.49 7.75 2.74 7.88 3.13 7.54 2.89 7.21 3.13 7.33 2.74 7 2.49 7.41 2.49 7.54 2.09"/>
        </g>
        <g class="cls-44">
          <polygon class="cls-5" points="7.54 3.85 7.67 4.25 8.09 4.25 7.75 4.49 7.88 4.89 7.54 4.65 7.21 4.89 7.33 4.49 7 4.25 7.41 4.25 7.54 3.85"/>
        </g>
        <g class="cls-40">
          <polygon class="cls-5" points="7.54 5.61 7.67 6.01 8.09 6.01 7.75 6.25 7.88 6.65 7.54 6.41 7.21 6.65 7.33 6.25 7 6.01 7.41 6.01 7.54 5.61"/>
        </g>
        <g class="cls-24">
          <polygon class="cls-5" points="7.54 7.37 7.67 7.77 8.09 7.77 7.75 8.01 7.88 8.41 7.54 8.16 7.21 8.41 7.33 8.01 7 7.77 7.41 7.77 7.54 7.37"/>
        </g>
        <g class="cls-26">
          <polygon class="cls-5" points="8.78 1.16 8.91 1.56 9.33 1.56 8.99 1.81 9.12 2.21 8.78 1.96 8.45 2.21 8.57 1.81 8.24 1.56 8.65 1.56 8.78 1.16"/>
        </g>
        <g class="cls-25">
          <polygon class="cls-5" points="8.78 2.92 8.91 3.32 9.33 3.32 8.99 3.57 9.12 3.97 8.78 3.72 8.45 3.97 8.57 3.57 8.24 3.32 8.65 3.32 8.78 2.92"/>
        </g>
        <g class="cls-28">
          <polygon class="cls-5" points="8.78 4.68 8.91 5.08 9.33 5.08 8.99 5.33 9.12 5.73 8.78 5.48 8.45 5.73 8.57 5.33 8.24 5.08 8.65 5.08 8.78 4.68"/>
        </g>
        <g class="cls-22">
          <polygon class="cls-5" points="8.78 6.44 8.91 6.84 9.33 6.84 8.99 7.09 9.12 7.49 8.78 7.24 8.45 7.49 8.57 7.09 8.24 6.84 8.65 6.84 8.78 6.44"/>
        </g>
        <g class="cls-23">
          <polygon class="cls-5" points="8.78 8.2 8.91 8.6 9.33 8.6 8.99 8.85 9.12 9.24 8.78 9 8.45 9.24 8.57 8.85 8.24 8.6 8.65 8.6 8.78 8.2"/>
        </g>
        <g class="cls-29">
          <polygon class="cls-5" points="10.01 2.09 10.14 2.49 10.56 2.49 10.22 2.74 10.35 3.13 10.01 2.89 9.67 3.13 9.8 2.74 9.46 2.49 9.88 2.49 10.01 2.09"/>
        </g>
        <g class="cls-27">
          <polygon class="cls-5" points="10.01 3.85 10.14 4.25 10.56 4.25 10.22 4.49 10.35 4.89 10.01 4.65 9.67 4.89 9.8 4.49 9.46 4.25 9.88 4.25 10.01 3.85"/>
        </g>
        <g class="cls-30">
          <polygon class="cls-5" points="10.01 5.61 10.14 6.01 10.56 6.01 10.22 6.25 10.35 6.65 10.01 6.41 9.67 6.65 9.8 6.25 9.46 6.01 9.88 6.01 10.01 5.61"/>
        </g>
        <g class="cls-31">
          <polygon class="cls-5" points="10.01 7.37 10.14 7.77 10.56 7.77 10.22 8.01 10.35 8.41 10.01 8.16 9.67 8.41 9.8 8.01 9.46 7.77 9.88 7.77 10.01 7.37"/>
        </g>
        <g class="cls-48">
          <polygon class="cls-5" points="11.25 1.16 11.38 1.56 11.8 1.56 11.46 1.81 11.59 2.21 11.25 1.96 10.92 2.21 11.04 1.81 10.7 1.56 11.12 1.56 11.25 1.16"/>
        </g>
        <g class="cls-49">
          <polygon class="cls-5" points="11.25 2.92 11.38 3.32 11.8 3.32 11.46 3.57 11.59 3.97 11.25 3.72 10.92 3.97 11.04 3.57 10.7 3.32 11.12 3.32 11.25 2.92"/>
        </g>
        <g class="cls-50">
          <polygon class="cls-5" points="11.25 4.68 11.38 5.08 11.8 5.08 11.46 5.33 11.59 5.73 11.25 5.48 10.92 5.73 11.04 5.33 10.7 5.08 11.12 5.08 11.25 4.68"/>
        </g>
        <g class="cls-46">
          <polygon class="cls-5" points="11.25 6.44 11.38 6.84 11.8 6.84 11.46 7.09 11.59 7.49 11.25 7.24 10.92 7.49 11.04 7.09 10.7 6.84 11.12 6.84 11.25 6.44"/>
        </g>
        <g class="cls-47">
          <polygon class="cls-5" points="11.25 8.2 11.38 8.6 11.8 8.6 11.46 8.85 11.59 9.24 11.25 9 10.92 9.24 11.04 8.85 10.7 8.6 11.12 8.6 11.25 8.2"/>
        </g>
        <g class="cls-51">
          <polygon class="cls-5" points="12.48 2.09 12.61 2.49 13.02 2.49 12.69 2.74 12.82 3.13 12.48 2.89 12.14 3.13 12.27 2.74 11.93 2.49 12.35 2.49 12.48 2.09"/>
        </g>
        <g class="cls-52">
          <polygon class="cls-5" points="12.48 3.85 12.61 4.25 13.02 4.25 12.69 4.49 12.82 4.89 12.48 4.65 12.14 4.89 12.27 4.49 11.93 4.25 12.35 4.25 12.48 3.85"/>
        </g>
        <g class="cls-53">
          <polygon class="cls-5" points="12.48 5.61 12.61 6.01 13.02 6.01 12.69 6.25 12.82 6.65 12.48 6.41 12.14 6.65 12.27 6.25 11.93 6.01 12.35 6.01 12.48 5.61"/>
        </g>
        <g class="cls-54">
          <polygon class="cls-5" points="12.48 7.37 12.61 7.77 13.02 7.77 12.69 8.01 12.82 8.41 12.48 8.16 12.14 8.41 12.27 8.01 11.93 7.77 12.35 7.77 12.48 7.37"/>
        </g>
        <g class="cls-57">
          <polygon class="cls-5" points="13.72 1.16 13.85 1.56 14.27 1.56 13.93 1.81 14.06 2.21 13.72 1.96 13.38 2.21 13.51 1.81 13.17 1.56 13.59 1.56 13.72 1.16"/>
        </g>
        <g class="cls-15">
          <polygon class="cls-5" points="13.72 2.92 13.85 3.32 14.27 3.32 13.93 3.57 14.06 3.97 13.72 3.72 13.38 3.97 13.51 3.57 13.17 3.32 13.59 3.32 13.72 2.92"/>
        </g>
        <g class="cls-55">
          <polygon class="cls-5" points="13.72 4.68 13.85 5.08 14.27 5.08 13.93 5.33 14.06 5.73 13.72 5.48 13.38 5.73 13.51 5.33 13.17 5.08 13.59 5.08 13.72 4.68"/>
        </g>
        <g class="cls-56">
          <polygon class="cls-5" points="13.72 6.44 13.85 6.84 14.27 6.84 13.93 7.09 14.06 7.49 13.72 7.24 13.38 7.49 13.51 7.09 13.17 6.84 13.59 6.84 13.72 6.44"/>
        </g>
        <g class="cls-58">
          <polygon class="cls-5" points="13.72 8.2 13.85 8.6 14.27 8.6 13.93 8.85 14.06 9.24 13.72 9 13.38 9.24 13.51 8.85 13.17 8.6 13.59 8.6 13.72 8.2"/>
        </g>
      </g>
    </g>
  </g>
</svg>