<?xml version="1.0" encoding="UTF-8"?>
<svg id="Layer_2" data-name="Layer 2" xmlns="http://www.w3.org/2000/svg" viewBox="0 0 448.86 595.51">
  <defs>
    <style>
      .cls-1 {
        fill: #f8dd32;
      }

      .cls-1, .cls-2, .cls-3, .cls-4, .cls-5, .cls-6, .cls-7 {
        stroke-width: 0px;
      }

      .cls-2 {
        fill: #231f20;
      }

      .cls-3 {
        fill: #cf8c27;
      }

      .cls-4 {
        fill: #009bd5;
      }

      .cls-5 {
        fill: #a13922;
      }

      .cls-6 {
        fill: #efecea;
      }

      .cls-7 {
        fill: #e8302a;
      }
    </style>
  </defs>
  <g id="Capa_1" data-name="Capa 1">
    <path class="cls-4" d="m13.46,240.81h421.95c-2.44-15.47-8.41-31.62-16.36-46.71H29.82c-7.95,15.08-13.93,31.24-16.36,46.71Z"/>
    <path class="cls-1" d="m435.41,240.81h-44.41v174.89c26.94-51.29,45.61-107.92,45.61-160.26,0-12.15-2.71-25.12-7.26-37.98h0c2.77,7.81,4.85,15.67,6.06,23.35Z"/>
    <path class="cls-7" d="m344,489.68c16.92-22.34,33.07-47.44,47-73.97v-174.89h-47v248.86Z"/>
    <path class="cls-1" d="m297,542.78c15.59-14.75,31.61-32.78,47-53.1v-248.86h-47v301.96Z"/>
    <path class="cls-1" d="m106.75,492.15c15.8,20.61,32.23,38.78,48.12,53.44V240.81h-48.12v251.34Z"/>
    <path class="cls-7" d="m59.75,419.26c14.02,26.2,30.15,50.92,47,72.89v-251.34h-47v178.45Z"/>
    <path class="cls-1" d="m12.75,270.43c3.2,49.27,21.64,101.44,47,148.83v-178.45H13.46c1.21-7.69,3.3-15.54,6.06-23.35h0c-3.42,9.65-5.79,19.37-6.76,28.76v24.22Z"/>
    <g>
      <path class="cls-1" d="m224.43,282.32c9.04,0,17.67,1.77,25.57,4.96v-46.46h-47v44.95c6.74-2.22,13.94-3.44,21.43-3.44Z"/>
      <path class="cls-1" d="m224.43,419.18c-7.49,0-14.69-1.22-21.43-3.44v163.71c7.83,3.42,15.06,5.24,21.43,5.24,7.48,0,16.13-2.5,25.57-7.16v-163.31c-7.9,3.19-16.53,4.96-25.57,4.96Z"/>
    </g>
    <path class="cls-7" d="m250,240.81v46.46c25.12,10.13,42.86,34.72,42.86,63.48s-17.74,53.34-42.86,63.48v163.31c14.29-7.05,30.4-19.04,47-34.76V240.81h-47Z"/>
    <path class="cls-7" d="m156,350.75c0-30.31,19.71-55.99,47-64.99v-44.95h-48.12v304.78c17.15,15.83,33.68,27.56,48.12,33.86v-163.71c-27.29-9-47-34.68-47-64.99Z"/>
    <circle class="cls-5" cx="224.43" cy="350.75" r="68.43"/>
    <circle class="cls-3" cx="224.43" cy="350.75" r="63.9"/>
    <path class="cls-5" d="m272.34,356.18v-1.32c0-26.48-8.91-42.76-19.42-48.03.2-.39.71-1.08,1.82-1.96,2.44-1.96,6.42-3.72,10.12-3.61-1.15-.94-2.34-1.83-3.56-2.69-3.39.7-6.45,2.37-8.43,3.96-1,.8-2.16,1.93-2.72,3.18-1.62-.5-3.25-.76-4.89-.76-8.45,0-13.48,8.75-15.89,12.95-.38.66-.71,1.24-.91,1.51-1.52,2.1-5.75,3.17-12.58,3.17-7.38,0-9.88-1.51-9.88-6,0-7.47,10.09-24.35,24.16-29.45-1.89-.17-3.79-.27-5.73-.27-.25,0-.49.02-.74.02-12.47,7.33-20.69,22.29-20.69,29.7,0,.71.07,1.34.17,1.94-2.42,1.34-7.49,3.85-11.5,3.85-9.23,0-16.37-7.08-18.47-9.8-.62.84-1.23,1.69-1.81,2.56,3.4,4.09,11.09,10.24,20.28,10.24,4.43,0,9.55-2.38,12.53-3.99,2.52,4.18,8.45,4.2,11.68,4.2,6.98,0,11.49-1.05,13.99-3.29,2.98,2.31,10.76,9.48,10.76,21.17,0,7.24-.15,12.45-2.12,13.57-2.23,1.27-17.92,3.3-28.01,3.3-27.06,0-47.56-10.02-49.92-11.59-.02.67-.05,1.35-.05,2.03,0,.47.03.93.04,1.4,6.55,3.45,26.12,11.16,49.94,11.16,9.11,0,24.96-1.75,29.02-3.47,1.2,2.5,3.23,8.97,3.23,14.22,0,7.47-2.87,17.29-16.56,21.65l-.1.03c-3.25-1.9-11.52-5.31-17.65-5.31-4.26,0-9.17,1.76-11.89,3.86-2.96-2.52-11.66-9.42-18.04-9.42-2.46,0-5.62.71-7.34,1.16.59.9,1.21,1.78,1.85,2.64,1.62-.38,3.81-.79,5.5-.79,5.08,0,13.03,6.05,16.11,8.7-.1.27-.18.54-.18.8,0,2.26,2.49,8.07,6,12.6,1.77.72,3.57,1.36,5.41,1.92l.26-.33c-4.61-3.59-8.47-11.73-8.66-14.02.74-1.15,5.66-4.1,10.99-4.1s13,3.07,15.99,4.81c.19,3.57,6.54,10.9,13.22,15.03,1.46-.31,2.9-.67,4.32-1.08-.11-.05-.22-.09-.33-.14,30.95-15.23,30.77-44.61,30.7-55.88Zm-33.91,54.07c-5.75-3.79-10.43-9.77-10.96-11.79,15.1-4.97,18.28-15.99,18.28-24.39,0-5.43-2.09-13.09-3.93-16.26,1.69-2.73,1.81-7.54,1.81-14.37,0-13-8.62-20.96-11.95-23.56.09-.16.19-.32.29-.5,2.13-3.71,6.58-11.44,13.29-11.44,11.68,0,24.08,16.44,24.08,46.92v1.34c.07,10.96.24,39.91-30.91,54.05Z"/>
    <path class="cls-2" d="m296.86,13.69c-7,0-14.56,19.75-34,19.75-11.25,0-17.69-8.25-18.37-9,0-3.81,5.31-11.81,5.31-19.25,0-1.88-.75-5.19-6.94-5.19s-9.59,4.97-10.15,5.84c-.54.84-2.85-1.02-8.28-1.02s-7.74,1.86-8.28,1.02c-.56-.88-3.96-5.84-10.15-5.84s-6.94,3.31-6.94,5.19c0,7.44,5.31,15.44,5.31,19.25-.69.75-7.12,9-18.38,9-19.44,0-27-19.75-34-19.75C130.5,13.69,0,103.69,0,246.02c0,172.5,160.67,349.49,224.43,349.49s224.43-176.99,224.43-349.49c0-142.33-130.5-232.33-152-232.33Zm5.14,10.25c3.88,0,48.12,49.62,45.12,89.12-5.71-50.62-45.92-86-45.92-88.29,0-.62.46-.83.79-.83Zm-153.18,0c.34,0,.79.21.79.83,0,2.29-40.21,37.67-45.92,88.29-3-39.5,41.25-89.12,45.12-89.12Zm75.61,560.75c-63.77,0-212.18-181.67-212.18-329.25,0-55,55.5-127.12,86.81-127.12,2.94,0,6.81.88,6.81.88,0,0,12.5-10.38,30-10.38,32.88,0,50.12,31.5,50.12,43,0,5.88-2.06,4.75-2.06,8.12,0,1.88,2.62,4.54,4.44,4.54,2.44,0,10.12-7.48,11.75-10.88,11,0,21.25,12.21,24.31,21.75,3.06-9.54,13.31-21.75,24.31-21.75,1.62,3.4,9.31,10.88,11.75,10.88,1.81,0,4.44-2.67,4.44-4.54,0-3.38-2.06-2.25-2.06-8.12,0-11.5,17.25-43,50.12-43,17.5,0,30,10.38,30,10.38,0,0,3.87-.88,6.81-.88,31.31,0,86.81,72.12,86.81,127.12,0,147.58-148.42,329.25-212.18,329.25Z"/>
    <path class="cls-6" d="m37.12,201.85l12.41,33.5h7.92l12.42-33.5h-8.37s-7.38,24.33-7.75,24.33-7.5-24.33-7.5-24.33h-9.13Z"/>
    <path class="cls-6" d="m93.83,235.35h8.58l-13.33-33.5h-8.17l-13.33,33.5h8.29l2.8-7.42h12.51l2.66,7.42Zm-12.96-13.25l4.21-11.17,4,11.17h-8.22Z"/>
    <path class="cls-6" d="m293.34,235.35h8.58l-13.33-33.5h-8.17l-13.33,33.5h8.29l2.8-7.42h12.51l2.66,7.42Zm-12.96-13.25l4.21-11.17,4,11.17h-8.22Z"/>
    <polygon class="cls-6" points="106.75 201.85 106.75 235.35 133.08 235.35 133.08 228.27 114.92 228.27 114.92 201.85 106.75 201.85"/>
    <polygon class="cls-6" points="140 201.85 140 235.35 166.25 235.35 166.25 228.44 147.67 228.44 147.67 220.77 163.75 220.77 163.75 215.02 147.67 215.02 147.67 208.6 166.25 208.6 166.25 201.85 140 201.85"/>
    <polygon class="cls-6" points="377.88 201.85 377.88 235.35 385.56 235.35 385.54 220.77 401.62 220.77 401.62 215.02 385.54 215.02 385.54 208.6 404.12 208.6 404.12 201.85 377.88 201.85"/>
    <polygon class="cls-6" points="175.42 201.85 175.42 235.35 182.5 235.35 182.5 213.52 196.83 235.35 205.08 235.35 205.08 201.85 197.25 201.85 197.25 224.6 183.5 201.85 175.42 201.85"/>
    <path class="cls-6" d="m236.67,213.85h8.75c0-7.1-8.08-12-15.92-12-11.04,0-16.67,9.83-16.67,17.75,0,9.63,6.21,15.75,16.08,15.75,11.75,0,16.5-6.54,16.5-12.17h-8.92c0,1.92-.96,6.83-6.83,6.83s-9.04-5.04-9.04-10.5,3.08-11.54,9.17-11.54c5.08,0,6.88,2.71,6.88,5.88Z"/>
    <path class="cls-6" d="m344.33,213.85h8.75c0-7.1-8.08-12-15.92-12-11.04,0-16.67,9.83-16.67,17.75,0,9.63,6.21,15.75,16.08,15.75,11.75,0,16.5-6.54,16.5-12.17h-8.92c0,1.92-.96,6.83-6.83,6.83s-9.04-5.04-9.04-10.5,3.08-11.54,9.17-11.54c5.08,0,6.88,2.71,6.88,5.88Z"/>
    <rect class="cls-6" x="253.56" y="201.85" width="8.06" height="33.5"/>
    <rect class="cls-6" x="360.75" y="227.44" width="8.56" height="7.92"/>
    <rect class="cls-6" x="403.66" y="227.44" width="8.56" height="7.92"/>
  </g>
</svg>