<?xml version="1.0" encoding="UTF-8"?>
<svg id="Layer_2" data-name="Layer 2" xmlns="http://www.w3.org/2000/svg" viewBox="0 0 431.15 723.37">
  <defs>
    <style>
      .cls-1 {
        fill: #f4cb1b;
      }

      .cls-1, .cls-2, .cls-3, .cls-4 {
        stroke-width: 0px;
      }

      .cls-2 {
        fill: #5f298a;
      }

      .cls-3 {
        fill: #e31b24;
      }

      .cls-4 {
        fill: #fff;
      }
    </style>
  </defs>
  <g id="_ÎÓÈ_1" data-name="—ÎÓÈ_1">
    <g>
      <path class="cls-2" d="m323.03,149.69c-4,2.98-10.4,5.54-18.17,4.07l-.3-.1c-1.79,5.64-2.72,11.04-3.14,13.96l-.04.49c48.34,4.61,88.87,12.2,104.88,18.77,19.05,7.81,22.25,8.26,23.75,44.5,2.25,54.33,5.25,163.5-35.75,277-63.31,175.25-167.31,215-178.69,215h0c-11.37,0-115.38-39.75-178.69-215C-4.12,394.87-1.12,285.71,1.13,231.37c1.5-36.24,4.7-36.69,23.75-44.5,15.98-6.55,56.37-14.13,104.58-18.74l.33-.03c-.38-2.78-1.31-8.47-3.2-14.43l-.33.09c-7.81,1.47-14.23-1.13-18.22-4.13l-.41-.33c-7.75,0-14.05-6.3-14.05-14.05,0-2.05.44-4,1.24-5.76l.11-.28c-2.08-9.7-4.22-30.22,8.59-48.55,12.98-18.58,32.02-23.44,44.07-24.53l.43-.03c1.55-2.31,3.27-4.52,5.15-6.6,15.82-17.49,36.73-19.62,46.8-19.51l.59.03c1.66-2.57,3.96-4.68,6.67-6.12l.03-.11v-3h-4.75V4.43h4.75V0h16.63v4.43h4.75v16.36h-4.75v3.1l.24.12c2.61,1.43,4.83,3.49,6.45,5.98h.53c10.04-.11,31.02,1.99,46.88,19.52,1.87,2.07,3.58,4.27,5.13,6.58l.26.03c12.04,1.06,31.2,5.88,44.25,24.55,12.86,18.4,10.65,39,8.56,48.66l.13.15c.8,1.76,1.24,3.72,1.24,5.78,0,7.75-6.3,14.05-14.05,14.05l-.49.39Zm-203.5-51.06c5.44-3.4,11.43-6.24,17.64-8.61l.03-.48c.12-2.67.4-5.34.84-8l-.5.18c-5.36,2.17-10.91,5.85-15.25,12.06-1.01,1.45-1.87,2.95-2.59,4.46l-.18.39Zm41.93-15.57c18.02-3.78,34.68-4.67,42.64-4.88l.47-.08v-24l.05-.29c-.3-.23-.59-.47-.87-.72l-.34-.07c-1.6-.2-4.24-.25-6.85-.11-6.8.37-17.9,2.56-26.4,11.95-4.57,5.05-7.66,11.56-9.15,18.29l.46-.1Zm150.02,15.23c-.72-1.53-1.58-3.04-2.61-4.51-4.41-6.3-10.06-10-15.49-12.16l-.26-.09c.45,2.72.74,5.45.85,8.18l.02.32c6.21,2.37,12.19,5.2,17.62,8.6l-.14-.33Zm-41.32-15.16c-1.5-6.72-4.58-13.21-9.15-18.26-8.5-9.4-19.6-11.58-26.41-11.95-1.81-.1-3.64-.11-5.12-.03-.49.02-1.96.12-1.96.12-.31.28-.63.54-.95.8l.03.22v24.19l1.04-.02c8.17.23,24.48,1.18,42.08,4.87l.43.06Z"/>
      <path class="cls-4" d="m272.33,558.16c0,31.35-25.41,56.76-56.76,56.76s-56.76-25.41-56.76-56.76,25.41-56.76,56.76-56.76,56.76,25.41,56.76,56.76Z"/>
      <path class="cls-3" d="m47.91,516.13L417.72,200.29l-.46-.42c-2.22-2.07-5.82-3.6-12.23-6.22l-1.33-.54c-22.91-9.39-105.56-22.5-188.13-22.5h0c-82.56,0-165.22,13.1-188.13,22.5l-1.33.54c-8.54,3.49-12.09,5.05-14.05,8.52-2.67,4.74-3.59,14.79-4.2,29.47-1.96,47.4-6.56,158.4,35.35,274.43,1.3,3.61,2.62,7.15,3.96,10.64l.72-.59Z"/>
      <path class="cls-4" d="m383.47,516.29V234.04l.03-.75,35.8-30.58.28.48c2.29,5.08,3.12,14.75,3.69,28.46,1.96,47.4,6.56,158.4-35.35,274.43-1.45,4-2.91,7.93-4.4,11.78l-.05-1.57Z"/>
      <path class="cls-4" d="m315.61,639.53c-12.14,15.18-23.74,27.12-33.91,36.36-11.78,10.69-22.89,18.9-32.56,25.04l.02-1.72v-88.17l.25-.28c17.27-11.13,28.7-30.53,28.7-52.6s-11.41-41.42-28.64-52.56l-.31-.15v-157.42l.26-.25,66.86-57.1.03.51v347.42l-.71.9Z"/>
      <path class="cls-4" d="m181.67,405.66l-66.86,57.11.03,1.02v173.67l.02,1.2c12.39,15.59,24.23,27.81,34.6,37.23,11.8,10.71,22.93,18.92,32.6,25.07l-.07-1.33v-88.67l-.64-.44c-17.05-11.17-28.31-30.44-28.31-52.35s11.35-41.34,28.52-52.49l.43-.22v-100.08l-.31.29Z"/>
      <path class="cls-1" d="m295.01,136.67c-3.03,2.95-7.52,5.98-12.97,5.65-6.74-.41-11.11-5.56-13.12-9.42l-.15.21c-2.4,3.22-6.81,6.16-14.07,5.44-6.11-.6-9.79-4.72-11.83-9.09l-.24.22c-2.9,3.59-7.19,6.79-12.91,7.13-7.02.42-11.78-3.8-14.15-7.35l-.18.25c-2.42,3.49-7.12,7.5-13.98,7.09-5.65-.34-9.89-3.46-12.79-6.98l-.35-.38c-2.03,4.37-5.72,8.5-11.83,9.1-7.12.7-11.51-2.12-13.93-5.27l-.28-.39c-2,3.86-6.38,9.01-13.12,9.42-5.43.33-9.9-2.67-12.93-5.61l-.13.45c-1.22,4.19-3.99,8.57-9.52,10.67-7.94,3.01-14.07-.27-17.01-3.22l-.3-.25c-.51.09-1.04.13-1.58.13-5.11,0-9.25-4.14-9.25-9.25,0-2.66,1.12-5.06,2.92-6.75l.27-.3c-1.85-8.38-4.1-27.2,7.44-43.7,12.67-18.13,32.17-21.47,42.37-21.89h.44c1.8-3.06,3.91-5.95,6.31-8.61,16.16-17.86,38.64-17.64,45.01-17.17l.42.08c.92-3.96,3.74-7.19,7.46-8.67l.24-.12v-11.34h-4.75v-8.36h4.75V4h8.63v4.43h4.75v8.36h-4.75v11.38l.17.05c3.73,1.46,6.57,4.67,7.51,8.62l.55-.02c6.53-.46,28.83-.57,44.89,17.18,2.39,2.64,4.49,5.53,6.29,8.58l.3.02c10.16.39,29.8,3.67,42.54,21.9,11.57,16.56,9.27,35.45,7.42,43.78l.32.25c1.78,1.69,2.89,4.07,2.89,6.71,0,5.11-4.14,9.25-9.25,9.25-.43,0-1.66-.11-1.66-.11-2.85,3-9.09,6.53-17.23,3.44-5.55-2.11-8.32-6.51-9.53-10.72l-.08-.44Zm-138.98-4.5c-3.05-1.51-5.15-4.66-5.15-8.29,0-1.33.28-2.59.78-3.73l.19-.28c-8.96-12.66-10.37-31.21-4.59-47.45l-.6.09c-8.8,1.19-21.29,5.16-29.87,17.43-9.64,13.79-7.32,30.16-5.83,36.69l.23.08c3.34,1.4,5.69,4.69,5.69,8.54,0,2.36-.89,4.52-2.34,6.15l.23.16c1.84,1.27,5.17,2.67,9.74.93,4.89-1.86,6.2-6.56,6.53-9.42l.04-.41c-1.13-.78-1.87-2.08-1.87-3.55,0-2.38,1.93-4.3,4.3-4.3s4.3,1.93,4.3,4.3l-.05.79c1.85,2.41,6.05,7.01,11,6.71,3.17-.19,5.44-2.17,6.89-4.02l.38-.44Zm54.03-4.81c-2.27-1.69-3.74-4.39-3.74-7.43,0-3.43,1.87-6.42,4.64-8.02l.3-.12v-60.52c-2.43-.91-4.51-2.57-5.94-4.7l-1.75-.16c-.94-.12-23.17-2.87-38.4,13.96-13.53,14.96-15.87,39.88-5.37,54.28l.33-.03c5.11,0,9.25,4.14,9.25,9.25,0,2.3-.84,4.4-2.23,6.02l.32.43c1.43,1.54,3.97,2.99,8.4,2.55,5.5-.54,7.62-6.15,8.37-9.24l-.16-.25c-.41-.66-.64-1.43-.64-2.26,0-2.38,1.93-4.3,4.3-4.3s4.3,1.93,4.3,4.3c0,.81-.22,1.57-.61,2.22l-.13.36c1.73,2.95,5.09,7.11,10.45,7.43,3.82.23,6.44-1.73,7.99-3.46l.31-.3Zm53.95,2.56c-1.4-1.62-2.24-3.73-2.24-6.04,0-5.11,4.14-9.25,9.25-9.25h.35c10.47-14.4,8.13-39.3-5.39-54.25-15.23-16.83-37.46-14.09-38.4-13.96l-1.77.2c-1.42,2.11-3.48,3.75-5.89,4.65l-.02.49v60.04l.36.15c2.74,1.61,4.58,4.58,4.58,7.99,0,3.03-1.46,5.73-3.72,7.41l.32.36c1.56,1.73,4.17,3.65,7.96,3.43,5.39-.32,8.76-4.53,10.48-7.48l-.15-.27c-.4-.65-.63-1.42-.63-2.25,0-2.38,1.93-4.3,4.3-4.3s4.3,1.93,4.3,4.3c0,.81-.22,1.57-.61,2.21l-.18.33c.76,3.09,2.89,8.66,8.36,9.2,4.5.44,7.05-1.06,8.46-2.62l.28-.34Zm36.06,2.75c.25,2.8,1.44,7.88,6.57,9.83,4.58,1.74,7.91.33,9.74-.94l.22-.16c-1.46-1.63-2.34-3.79-2.34-6.15,0-3.79,2.27-7.04,5.53-8.47l.38-.11c1.49-6.51,3.84-22.91-5.82-36.72-8.64-12.36-21.25-16.3-30.06-17.46l-.41-.08c5.78,16.24,4.38,34.8-4.59,47.46l.19.27c.51,1.14.79,2.41.79,3.74,0,3.62-2.08,6.75-5.1,8.27l.29.4c1.45,1.87,3.73,3.89,6.94,4.08,4.94.3,9.14-4.3,10.99-6.71l-.05-.79c0-2.38,1.93-4.3,4.3-4.3s4.3,1.93,4.3,4.3c0,1.34-.62,2.55-1.58,3.33l-.29.21Z"/>
      <path class="cls-1" d="m298.53,157.37c-1.01,4.09-1.6,7.66-1.9,9.84l-.04.46c-25.8-2.33-53.62-3.79-81.01-3.79h0c-27.26,0-54.95,1.45-80.65,3.76h-.35c-.28-2.11-.87-5.86-1.94-10.21l-.09-.31c17.68-4.73,50.48-9.53,83.02-9.5h0c32.54-.03,65.32,4.77,83.01,9.5l-.05.26Z"/>
      <path class="cls-3" d="m257.49,127.69c-.34-1.21-.53-2.49-.53-3.81,0-5.81,3.55-10.82,8.6-12.95l.3-.12c4.1-5.56,5.79-13.29,5.23-21.22l-.44-.17c-18.2-4.02-35.43-5-43.56-5.23l-.5.05v26.93l.21.33c1.77,2.35,2.82,5.27,2.82,8.43,0,2.11-.47,4.11-1.31,5.91l-.28.44c.33.06.69.08,1.06.05,2.33-.14,4.14-1.67,5.4-3.29l-.1-.46c-.08-.47-.12-.96-.12-1.45,0-5.02,4.08-9.1,9.1-9.1s9.1,4.08,9.1,9.1c0,.87-.12,1.71-.35,2.5l-.12.38c.64,1.76,1.78,3.74,3.72,4.09.72.13,1.35.14,1.9.07l-.15-.48Z"/>
      <path class="cls-3" d="m309.73,137.97c-.17-.88-.27-1.79-.27-2.72,0-3.75,1.47-7.15,3.87-9.67l.27-.25c.76-3.3,1.9-10.07.73-17.53l-.13-.16c-1.48-1.06-3.29-2.31-5.03-3.45-4.59-2.95-9.64-5.46-14.93-7.61l-.35-.12c-.63,9.81-3.55,19.21-8.85,26.88l.02.55c0,2.77-.8,5.35-2.19,7.53l-.19.43c1.92.12,4.21-1.77,5.86-3.59l.11-.54c.68-4.35,4.46-7.68,8.99-7.68,5.02,0,9.1,4.08,9.1,9.1,0,1.71-.47,3.31-1.3,4.68l-.24.45c.43,1.49,1.32,3.07,3.14,3.76.51.19.98.32,1.42.4l-.04-.44Z"/>
      <path class="cls-3" d="m148.46,131.83c-1.85.11-4.05-1.64-5.68-3.4l-.22-.26c-.48-4.57-4.36-8.15-9.05-8.15-5.02,0-9.1,4.08-9.1,9.1,0,1.74.49,3.36,1.34,4.74l.2.34c-.44,1.48-1.32,3.07-3.13,3.8-1.01.4-1.48.41-1.48.41.24-1.02.36-2.08.36-3.17,0-3.76-1.48-7.17-3.89-9.7l-.24-.22c-.75-3.26-1.88-9.95-.76-17.34l.03-.27c1.51-1.08,3.36-2.37,5.16-3.54,4.69-3.01,9.85-5.56,15.25-7.74l.04.23c.66,9.74,3.58,19.06,8.84,26.68l-.03.53c0,2.96.92,5.71,2.49,7.97h-.1Z"/>
      <path class="cls-3" d="m202.04,126.33c-2.19-.13-3.91-1.49-5.16-3l-.21-.38c.12-.59.19-1.2.19-1.83,0-5.02-4.08-9.1-9.1-9.1s-9.1,4.08-9.1,9.1c0,.93.14,1.82.4,2.67l.06.26c-.64,1.75-1.78,3.7-3.7,4.05-.49.09-.95.12-1.36.11l-.54-.04c.44-1.35.67-2.8.67-4.29,0-5.79-3.52-10.77-8.52-12.92l-.39-.18c-4.1-5.57-5.78-13.3-5.21-21.24l.28-.09c18.22-4.04,35.5-5.03,43.67-5.26,0,0,.46.02.55-.05v27.07l-.17.22c-1.8,2.36-2.87,5.31-2.87,8.49,0,2.27.54,4.41,1.5,6.31l-.98.09Z"/>
      <path class="cls-3" d="m147.72,148.59c-3.67-.35-6.95-2.03-9.73-4.2l-.33-.24c-1.39,3.4-3.46,6.35-6.5,8.03l.08.3c4.93-1.34,10.85-2.64,17.47-3.82l-.98-.06Z"/>
      <path class="cls-3" d="m173.25,145.16c-6.76.73-13.24,1.61-19.25,2.58l.3-.19c3.62-1.63,6.44-4.86,8.58-8.22l.16.18c2.75,2.92,6.38,5.19,11.1,5.54l-.88.12Z"/>
      <path class="cls-3" d="m198.7,143.01c-3.71-.9-6.82-3.28-9.39-6.24l-.35-.48c-2.11,3.55-4.86,6.48-8.33,7.88l-1,.35c6.44-.6,13.07-1.06,19.75-1.36l-.68-.16Z"/>
      <path class="cls-3" d="m215.81,135.86c2.52,2.98,5.67,5.69,9.38,6.89l.7.21c-3.44-.1-6.89-.15-10.31-.14-3.22,0-6.45.04-9.69.13l-.63.02c4.13-1.1,7.61-4.1,10.32-7.38l.23.29Z"/>
      <path class="cls-3" d="m250.8,144.28c-3.48-1.31-6.25-4.14-8.39-7.63l-.19-.32c-2.53,3.02-5.6,5.51-9.27,6.55l-1.1.29c6.65.29,13.25.76,19.66,1.35l-.7-.24Z"/>
      <path class="cls-3" d="m276.7,147.49c-3.43-1.59-6.15-4.63-8.22-7.83l-.25-.28c-2.52,2.72-5.79,4.89-9.97,5.53l-1.03.19c7.12.76,13.94,1.68,20.25,2.71l-.77-.31Z"/>
      <path class="cls-3" d="m293.01,144.5c-2.67,2.06-5.78,3.65-9.26,4.06l-1.08.14c6.39,1.15,12.13,2.41,16.94,3.7l.28.11c.04-.12.07-.23.11-.35l-.28-.13c-2.89-1.69-4.88-4.56-6.23-7.85l-.48.33Z"/>
      <path class="cls-2" d="m200.16,563.14h-10.04v-20.2h4.58l5.4,19.96.06.24Zm-10.04,31.7v-25.56l.02-.24h33.14s-7.7,28.43-7.7,28.43l-5.77-21.3-.05-.17h-6.13l.1.33,8.76,32.33c4.3.16,6.17-.02,6.17-.02l10.73-39.6h.2s2.61,0,2.61,0h.2s10.92,24.09,10.92,24.09l.19-.15c1.48-1.19,2.89-2.48,4.21-3.85l.17-.2-9.44-20.81.17-.07c6.73-2.36,9.63-8.61,9.63-14.93,0-5.93-3.75-11.93-10.47-14.62l-.12-.03,4.4-16.23.15.09c3.8,2.83,7.13,6.25,9.86,10.12l3.97-4.61c-4.6-6.13-10.56-11.18-17.43-14.7l-.17-.09-6.52,24.08-.09-.02c-.69-.06-1.4-.09-2.13-.08h-24.02l1.56,5.9h22.45c.18,0,.65,0,.65,0l-4.1,15.15-.05.17h6.12l.05-.21,3.75-13.83.14.06c1.41.66,2.46,1.48,3.22,2.23,1.83,1.83,2.88,4.24,2.88,6.62,0,3.73-1.29,9.98-9.91,10.02h-26.17l-.07-.26-12.69-46.86-.82-2.96c-6.94,3.53-12.96,8.61-17.59,14.78l3.97,4.61c2.73-3.87,6.06-7.29,9.86-10.11l.15-.11,4.01,14.81h-.29s-8.58,0-8.58,0v52.9l.07.07c1.77,1.74,3.68,3.33,5.72,4.76l.11.08Z"/>
      <path class="cls-1" d="m119.76,176.33c13.67,5.32,42.25,15.36,87.12,26.05,85.33,20.33,152,28,152,28,0,0-80,12.33-198.67,4.33-94.53-6.37-137.02-16.76-150.4-20.73l-.69-.19c.64-5.24,1.56-9.14,2.95-11.61,1.96-3.47,5.5-5.03,14.05-8.52l1.33-.54c13.6-5.58,48.25-12.46,91.43-17.13l.89.34Z"/>
      <path class="cls-1" d="m31.88,466.45c37.51-5.29,61.33-12.41,61.33-12.41,0,0-23.33-4-44.67-12-12.33-4.62-20.76-8.69-25.68-11.3l-1.24-.68c2.57,12.03,5.55,24.28,9.02,36.66l1.23-.28Z"/>
      <path class="cls-1" d="m21.54,421.85c9.86-.39,29.54-1.57,58.34-5.14,43-5.33,76.33-15.67,76.33-15.67,0,0-42-4.67-86.67-13-30.87-5.76-48.53-11.36-56.49-14.27l-.88-.23c1.92,15.56,4.45,31.76,7.78,48.42l1.59-.11Z"/>
      <path class="cls-1" d="m12.71,366.82c15.11-.26,42.8-1.42,89.5-5.44,81.33-7,123.67-19.67,123.67-19.67,0,0-71.67-.67-137-14.67-49.82-10.68-72.89-18.64-81.04-21.82l-.81-.18c.56,18.78,1.84,39.6,4.36,61.84l1.32-.07Z"/>
      <path class="cls-1" d="m9.44,221.6c12.22,6,45.74,20.74,111.78,38.77,86.67,23.67,170,28.67,170,28.67,0,0-48.66,10.39-158,12.33-86.04,1.53-116.09-2.58-125.49-4.61l-.9-.14c-.52-27.11.41-49.45,1.05-64.97.16-3.83.34-7.34.56-10.53l1,.48Z"/>
    </g>
  </g>
</svg>