<?xml version="1.0" encoding="UTF-8"?>
<svg id="Layer_2" data-name="Layer 2" xmlns="http://www.w3.org/2000/svg" viewBox="0 0 264.83 204.45">
  <defs>
    <style>
      .cls-1 {
        fill: #2c673c;
      }

      .cls-1, .cls-2, .cls-3 {
        fill-rule: evenodd;
        stroke-width: 0px;
      }

      .cls-2 {
        fill: #ea7125;
      }

      .cls-3 {
        fill: #917b4c;
      }
    </style>
  </defs>
  <g id="Ebene_1" data-name="Ebene 1">
    <g id="g3143">
      <path id="path3135" class="cls-3" d="m148.88,53.2l-10.12,27.71-29.43,16.96v9.06l-31.64,26.55,16.38,44.36h19.72l-10.02,26.59h86.39l6.32-17.31h-37.93l3.25-8.89h37.93l6.54-17.9h-37.93l3.25-8.89h37.93l6.54-17.9h-37.93l3.25-8.89h37.93l6.54-17.9h-37.93l3.25-8.89h37.93l6.54-17.9h-37.93l3.25-8.89h37.93l6.54-17.9h-96.52Zm-15.49,44.68h15.03l-3.33,8.89h-27.11l15.41-8.89Z"/>
      <path id="path3137" class="cls-3" d="m19.43,53.2l55.24,151.25h19.54l6.53-17.56h-13.28l-20.69-56.55,33.07-28.14v-9.06l25.2-15.03-9.1-24.9H19.43Z"/>
      <path id="path3139" class="cls-1" d="m168.31,0l-16.18,44.31h96.52L264.83,0h-96.52Z"/>
      <path id="path3141" class="cls-2" d="m0,0l16.18,44.31h96.52L96.52,0H0Z"/>
    </g>
  </g>
</svg>