<?xml version="1.0" encoding="UTF-8"?>
<svg id="Layer_2" data-name="Layer 2" xmlns="http://www.w3.org/2000/svg" viewBox="0 0 249.5 344.32">
  <defs>
    <style>
      .cls-1 {
        fill: #004799;
      }

      .cls-1, .cls-2, .cls-3, .cls-4, .cls-5, .cls-6, .cls-7, .cls-8 {
        fill-rule: evenodd;
        stroke-width: 0px;
      }

      .cls-2 {
        fill: #e20713;
      }

      .cls-3 {
        fill: #e20a14;
      }

      .cls-4 {
        fill: #e30016;
      }

      .cls-5 {
        fill: #e30713;
      }

      .cls-6 {
        fill: #e74649;
      }

      .cls-7 {
        fill: #e5252a;
      }

      .cls-8 {
        fill: #fff;
      }
    </style>
  </defs>
  <g id="Layer_1-2" data-name="Layer 1">
    <g>
      <path class="cls-2" d="m176.39,145.43c.96.19,5.16,4.24,5.72,5.07.99,1.45-.25,2.07-.26,4.45-.02,2.7,2.08,3.13,2.64,2.51.6-.78-.11-2.88.57-3.87,2.31-3.35,3.26-1.56,4.06-.78.53.52.96,1.04,1.36,1.61.25.37.87,1.69.95,2.05.21,1.02.31,2.27.89,3.56l.83,2.15c1.36,3.7,3.23,6.3,4.41,8.99l1.56,2.86c.19.35.3.66.48,1.02l3.61,8.25c.2.64.2,5.08.05,5.82l-2.25,3.63c-.99,1.36-1.35,2.21-2.6,3.38-1.74,1.64-1.91,2.24-1.91,3.98.01,3.8,3.68,10.3,6.75,11.08,1.75.44,2.86,1.4,2.04,3.31l-2.12.07c-.34,1.89.44,2.02-.74,3.78-.52.78-.28.74-.39,1.8-.27,2.8-1.13,4.54-2.14,6.84l-.67,1.48c-1.45.07-2.04-1.97-3.82-.05-.01.01-.41.57-.45.65-.34.81.14,1.55-1.27,2.47l-1.71.95-2.26-.23c-.09-2.15-.65-2.73.89-3.97,2.14-1.71,3.1-.93,3.6-1.62-.22-.42.04-.13-.41-.34-1.29-.58-3.86.37-4.95.92-1.31.65-1.22.54-1.32,2.21-.06,1.02-.32,2.12-1.5,1.92-.55-1.05-1.04-2.01-1.48-3.06-.52-1.2-.02-2.45.81-3.06,2.91-2.15,7.1,1.2,11.34-2.23.68-.55.84-.86,1.2-1.58.09-.17.05-.02.18-.35.33-.86.24-5.05.05-5.65-.11-.34-.19-.24-.34-.73-.38-1.19.1-.59-.41-1.44l-.65-1.2c-.84-1.79-3.14-5.43-4.43-7.09-.38-.48-.81-.82-1.15-1.26l-4.98-6.7c-.11-.2-.27-.53-.41-.74-.4-.58-.22-.15-.53-.73l-.7-1.53c-1.49-3.67-.39-3.1.11-5.33.38-1.65.56-2.06,1.44-3.21.74-.98,2.34-2.91,2.9-3.97,1.51-2.83.44-2.53.23-3.54-.41-1.97-.28-2.72-1.93-5.14-1.54-2.25-2.41-3.11-5.08-4.21l-.89-.42s-.08-.05-.11-.07c-.03-.02-.07-.06-.11-.08-.18-.12-.18-.12-.44-.28-1.5-.93-2.65-2.17-3.73-3.35-.72-.78-1.5-1.47-2.2-2.44-.64-.88-1.42-1.84-1.95-2.69-.61-1-1.12-2.2-1.57-3.27-.97-2.37-2.57-4.44-.77-6.99.78-1.11,1.49-1.36,3.04-1.61,2.14-.35,1.73-1.02,2.89-1.97h0Zm31.88-6.75c-.76.06-.7-.03-.97-.51-1.26-2.18-4.19-5.4-4.49-7.06-.26-1.47,2-4.83,2.66-5.63,1.29-1.54,1.5-2.41,2.42-2.58.41.72.62,1.61.03,2.43-.93,1.29-3.22,3.77-3.25,5.47-.03,1.5,4.19,4.94,3.6,7.88h0Zm2.14-.67c-1.14-.51-1.11-3-1.7-3.86-.42-.61-.63-.57-1.21-1.57-.66-1.14-.98-1.9-.83-3.3.09-.84.88-1.8,1.4-2.51,2.62-3.59,1.32-3.36.4-5.75-.69-1.78.06-5.88.78-7.23,1.32-2.48,3.09-3.88,6.93-3.89,1.12,0,1.23.13,1.94.52,2.41,1.33,4.27,3.29,5.64,5.7.88,1.55,1.48,5.75,1.5,7.59.01,1.49.05,2.9-.2,4.26-.15.8-.3.95-.36,1.87-.16,2.21-1.85,4.61-1.06,5.22.47.37,1.82-.52,2.29-.87.96-.7,1.14-.96,2.51-.43.15,1-.18.97-.86,1.51-2.05,1.65-4.44,3.01-6.27,4.89-.67.69-1.48,1.8-1.52,2.8,1.1.16,1.55-.18,2.25-.59,1.35-.8,2.53-1.58,4.21-1.6,1.37-.01,1.39.05,1.18,1.41l-3.15,1.85c-2.03,1.22-4.11,2.35-5.82,4.23-.91,1-1.77,1.61-1.53,3.33,1.06-.04,1.24-.45,2.06-.94,2.48-1.48,3.72-3.53,5.71-2.4.03,1.23-.28.84-1.25,1.48-.49.32-.89.76-1.37,1.22-.99.93-1.93,1.68-2.78,2.61-1.77,1.93-4.02,3.84-3.54,7.01,1.12.12,1.03-.33,1.61-.94l1.8-2.31c1.11-1.58,3.24-.9,2.04.75l-1.64,2.26c-.72,1-1.34,2.27-2,3.38-1.84,3.1-.45,4.14.89,7.95l1.16,4.26c.1,1.23.25,1.12.45,2.1.51,2.59,0,7.26-1.15,9.36,0,.01-.35.56-.35.57l-1.38,1.39c-1.8,1.5-5.19,1.65-7.43.82-1.66-.62-4.21-2.89-4.08-4.89,1.16-.55,1.32.11,2.16.9,1.21,1.15,2,1.97,3.76,2.39,3.13.75,5.2-1.46,6.19-3.79.25-.58.66-3.57.68-4.38.02-1.25-.39-3.25-.76-4.32l-2.86-6.93c-.63-1.33-.97-2.84-1.55-4.21-.05-.11-.07-.07-.18-.36-.2-.5-.11-.57-.26-1.04-.57-1.77-1.21-4.05-1.21-6.19,0-2.46.72-4.01,1.36-6.05l.94-2.19c.06-.11.16-.26.21-.35.19-.33.28-.52.46-.84l7.5-14.78c1.6-3.59,1.55-4.57,1.52-8.5-.02-2.31-.56-4.33-1.22-6.39-.61-1.89-1.63-3.03-2.95-4.45-.91-.98-1.54-1.55-2.76-2.07-1.69-.72-4.28.25-5.3,1.74-.38.55-.13.15-.33.93-.61,2.32-.34,2.93.33,4.99,1.25,3.85,1.25,5-.94,8.44-1.36,2.15-2.03,2.06-.93,4.25.6,1.2,1.14,2.2,1.16,3.71,0,.72.1,1.72-.22,2.22h0Zm-9.38-21.08c1.51,1.51.18,2.69-.48,2.85-.58-.36-.68-.84-1.02-1.51-.42-.82-.59-1-.98-1.65-.99-1.64.27-7.27.28-9.63,0-1.03-.54-2.28-.93-2.92-.33-.54-.3-.02-.27-.92,2.36-.27,2.56.04,2.85,2.15.12.91.41.77.52,2.05.34,4.01-.33,3.68,1.28,6.09,1,1.5,2.02,1.78,2.11,2.65-1.22,1.48-2.36-.27-3.93-.48.06.96-.05.68.58,1.31h0Zm38.29,155.72c.21-.62,1-1,1.09-2.48-.07.82.1.33-.46.58-.12-3.14-.32-3.48-.65-6.16-.14-1.16-.87-2.23-1.07-3.38-.14-.8-.31-.82-.63-1.5l-.68-1.57c-1.12-2.52-2.58-4.98-4.19-6.97-1.08-1.34-2.93-3.49-4.31-4.61-3.24-2.62-4.54-3.51-8.55-4.81-1.32-.43-2.5-.05-3.75.27-3.14.81-5.29,2.97-7.54,5.13l-.32.39c-.51.79-1.04,2.05-1.94,2.38-.5-.75-.62-1.65-1.08-2.47l-1.14-2.2c-2.03-3.99-4.96-7.67-8.47-10.48-.47-.38-.6-.27-.85-.86.81-.56.6.1,1.44-.8,2.14-2.26,4.72-2.17,5.54-3.18.33-.41.3-.87.47-1.57.23-.95.41-.36.57-1.58.09-.64.03-1.32.15-1.96l.85-2.49c.09-.3.09-.65.15-.99.27-1.46.26-2.06,1.46-2.86,2.69-1.77,4.62-2.72,2.26-5.99l-5.53-7.43c-.99-1.92-1.51-3.08-1.03-5.51.34-1.7,2.7-3.33,3.53-5.05.45-.94.66-2.25,1.14-3.09,1.43-.24,2.05.7,3.21,1.17,1.02.41,2.34.77,3.33.92,2.36.36,5.46-.54,6.73-1.65,1.68-1.47,2.79-2.84,3.78-4.75.63-1.22,1.09-5.99.62-7.7l-.51-1.71c-.34-1.62-1.16-3.07-1.59-4.7-.2-.78-.34-1.08-.52-1.68-.33-1.1-1.26-4.07-1.03-5.12l1.04-3.3c.11-.33.51-.97.73-1.42l1.83-4.5c.58-1.3.85-2,.03-3.11-2.25-.24-1.23.9-3.1,1.01.11-1.22.94-1.43,1.89-2.06.73-.48,1.46-1.07,2.09-1.62.64-.56,4.34-3.87,1.98-4.7-.25-.09-.21-.05-.46-.1-.43-.1-.57-.09-.85-.23.03-.72.2-.64.77-.94.04-.02.09-.04.13-.06.03-.02.08-.05.12-.07.03-.02.08-.05.12-.07l2.46-1.64c.96-.82,2.73-2.86,1.56-4.59-.72-.68-3.43.19-4.26.18.01-1.05-.12-.63.63-1l2.92-1.71c.64-.38,1.25-.84,1.55-1.69.32-.91.23-1.78-.29-2.59-1.16-.25-1.34-.1-2.43-.06-1.36.04-1.01-.16-1.67-.73l.72-2.26c.29-.77.19-1.61.49-2.46.5-1.41.41-3.82.24-5.5-.11-1.07-.68-2.44-1-3.37-1.02-2.95-.39-2.29-2.2-5.09-1.17-1.82-2.18-2.57-3.92-3.52-.37-.2-.47-.28-.98-.46-2.77-1-7.82-.24-10.1,1.81-.03.03-.07.07-.1.09-.03.03-.07.07-.1.09-.84.78-1.32,1.44-1.8,2.48-.22.48-.34.63-.47,1-.72,2.08-.7,4.11-.72,6.58-.01,2.58-.04,2.59-1.53,4.17-2.22,2.34-4.55,4.41-2.9,7.73.6,1.2,1.65,2.31,2.44,3.33l1.17,1.84c.34.76.34,1.63.19,2.6-.14.89-.54,1.69-.21,2.43.99,2.28,2.17.55,3.02-.28,1.41-1.38,3.24-2.9,4.24-4.51l.6-1.43c.22-.62.5-1.31.17-2.2l-1.15-2.71c-.43-.93-.15.14-.32-.55-.44-2.49,1.29-3.11,1.69-6.61.44-3.79-.77-4.34-1.11-7.14-.5-4.15,4.68-3.81,6.57-1.67,1.24,1.41,1.43,2.76,1.89,4.42.19.7.4.58.43,1.49.05,1.62.3,3.93-.04,5.5l-2.02,6.26c-1.24,2.72-2.49,6.05-4.21,8.48-.9,1.27-1.59,3.05-2.4,4.45l-1.42,2.81c-.78,1.65-1.44,3.45-1.71,5.22-.38,2.51-.67,1.13-.56,5.03.04,1.58,1.96,6.77,2.7,8.29l1.82,3.74c.82,1.85,1.83,4.18,2.31,6.05.31,1.23.48.39.56,2.16.04.95.11,1.84.08,2.8-.05,1.6-.26,3.01-1.45,4.15-.98.93-2.86,1.23-4.2.7-2.59-1.02-5.64-6.91-7.31-9.17-1.55-2.1-2.41-4.44-3.82-6.56-1.64-2.47-2.55-5-3.81-7.77l-2.31-6.04c-.38-.79-.65-1.08.01-1.86,1.44-1.18,3.92,1.89,3.67-1.87-.06-.97-.19-.68-.42-1.24-.3-.75-.19-.69.13-1.33,1.03-2.09,1.81-2.56.64-4.97-.25-.5-.25-.73-.86-.81-.33.71-.62,2.52-.95,3.14-.55,1.02-.69,2.35-1.16,3.5-.17.41-.4.89-.87.98-1.18.25-3.29-2.44-4.11-3.36-.02-.03-.06-.07-.09-.1l-1.02-1.25c-.9.41.1.45-1.11.4-.35-.54-.53-2.11-.68-2.8-.34-1.57.03-1.33-1.02-2.36-1.3-1.26-2.38-1.98-1.95-4.61,1.52-1.05,2.45-.39,3.63.71.93.87,1.68,1.62,2.18,2.84.21.5.27.84.44,1.24.47,1.09-.07,2.4.76,2.65,1.02.31,2.09-1.81,2.59-2.46,1.96-2.57,3.18-1.6,4.04-1.62,1.13-.03.13-1.98-.27-2.34-1.37-1.22-3.51-3.54-3.91-5.41-.26-1.24.3-1.52.56-2.47l.7-2.49c1.02-2.85-.48-6,1.24-5.69.45.08.15-.04.55.37,1.08,1.12,1.95,1.66,1.95,3.47-.01,7.38-2.44,5.87-.84,8.8.47.85.72,1.57,1.16,2.37,1.32,2.38-.41,3.25.95,5.84,1.19-.04,1.77-2.09,1.38-3.32-.41-1.27-1.05-2.4-1.41-3.65l-.69-1.89c-.25-.96-.48-.85-.18-1.8.32-1.04,1.23-2.94,1.19-3.91-.03-.86-.31-1.11-.39-2.23-.2-2.96-1.21-1.83,1.32-5.29,1.82-2.49.56-1.99,1.49-3.51.6-.99,1.86-1.53,2.84-2.15.08-2.06-.83-3-1.88-4.42-.76-1.02-.3-4.3-.31-5.81,0-2.48-.52-3.2-1.75-4.57-1.2-1.35-3.85-.31-4.51-1.55.3-.85,2.12-1.92,2.47-3.95.2-1.14.03-2.52-.76-3.42-.34-.39-.8-.71-1.23-.84-1.03-.32-2.41-.04-3.46-.26l-.26-.1c-.33-.61-.22-1.84-.5-2.44-.79-.03-.83-.08-1.52.28-.8.43-.35.14-.66.62-.5.81-.14,1.01.27,1.89.12.25.37.81.45,1.05.58,1.68.38,1.22,2.43.74,2.89-.67,3.08.29,2.73,3.27-.45,3.82-4.34,2.59-7.18,2.7-.08,1.04-.29,1.37.38,2,1.38,1.31,8.28,1.44,6.62,8.34-2.03,8.39.49,6.36,2.29,9.11.68,1.03.61,2.56-.31,3.13-1.02-.07-.2.07-.68-.28-1.17-.88-1.88-2.26-2.74-3.39-2.71-3.52-.44-6.77-.29-8.44.08-.91-.31-2.32-.63-2.9-1.11-2.04-2.09-2.72-4.55-2.27-.02.7.09.86.6,1.2.59.39.61.22,1.38.33,3.1.44,1.69,6.25.56,7.56.28.76.02,0,.32.45.92,1.43-.6,3.38.11,5.43.27.77.16,1.06.33,1.88.34,1.59.77,2.21.09,4.03-.44,1.18-1.09,1.88-1.71,2.93-1.62,2.74-.7,4.88.54,7.16.34.63,1.41,2.4,1.24,3.32-.21,1.18-1.15,2.18-2.39,2.07-.36-.55-.66-1.22-.95-1.78-.55-1.05-.45-.87-1.21-1.6-.67-.65-.59-.83-1.13-1.65-.35-.53-.7-1.38-.75-1.99-.18-2.01.44-9.62-.23-10.78-.58.25-.25.09-.63.86-1.03,2.11-2.82,3.99-1.99,6.39.57,1.68,1.31,2.28.23,4.13-1.94,3.32-3.5,5.16-1.56,7.24.88.94,1.62,1.74,2.38,2.82,1.59,2.25,1.28,3.17-.25,5.34-.26.38-.57.83-1.04.98-.12.04-.1.37-.25.01-.02-.04-.09,0-.14,0-.8-.51-.33-.91-.45-1.94-.2-1.67-1.81-3.23-2.71-4.56-1.59-2.35-.13-5.77,0-8.55-1.1.2-.31-.11-.86.48-.07.07-.32.47-.35.54-.09.18-.41,1.09-.49,1.34-.32.95-.27,2.38-1.37,2.69-.55-.31-.46-.57-.48-.61-.38-.73-.55-.62-.59-1.71-.05-1.13.09-2.3.05-3.45-.75.25-.27-.14-.83.66-.59.86-.71,1.86-.71,3.14,0,2.1.62,2.78-1.22,3.83-.21,1.38-.07,1.19-.66,2.1-2.91.21-4.33.1-5.62,2.39-3.55,6.33-2.98,3.67-5.78,3.91-.12.16-.15.23-.31.42l-1.03,1.16c-1.39.06-3.6.13-4.96.04-1.13-.08-.53-.02-1.03-.34-2.06-1.34-1.92-1.95-4.36-.7-1.23.62-1.35.25-2.77.43-1.58.2-2.09,2.8-3.88,1.07.14-.49.24-.51.64-.84.53-.44,1.8-1.1,2.03-1.68-1.21-.66-1.87.11-2.84.31-.48.1-1.13.09-1.72.15-.92.08-.71.19-1.34.3-2.56.48-7.93.64-8.1-2.71-.06-1.15.52-1.85,1.36-2.11,2.56-.81,3.49,1.41,5.4,1.63-.21-1-2.28-2.95-3.07-3.61-.7-.59-1-.91-2.24-.9-2.58.03-2.54-1.19-.8-2.49,3.78-2.82,5.91,2.83,6.96,4.3.64.89,1.62,2.62,3.01,1.96.15-.31.1.35.11-.46,0-.91-1.23-1.39-1.78-1.91-2.57-2.41-1.03-3.09-3.21-4.96-1.07-.92-1.66-.94-1.02-2.47.88-.2,1.89-.23,2.61.13.56.28,1.26.59,1.6,1.17.63,1.09,1.09,3.3,1.29,4.52l1.79,1.15c2.19,1.55,3.32,2.53,6.22,1.84.62-.15.69-.29,1.36-.46l.98-.32c.82-.41,2.17-.63,3.23-1.02l5.4-2.05c3.23-1.28,2.48-1.09,4.87-2.75,1.12-.78,1.16-.94,2.46-1.3.86-.23.26-.28,1.35-.48,1.23-.22,3.31-.73,3.9-1.68,1.51-2.41.95-1.89,3.23-4.22,1.02-1.04,2.8-2.73,3.23-4.1-.88-.79-1.36-.81-2.92-.67-.41.61-.54.58-.96,1.15l-3.13,5.61c-.34.98-.06.67-.78,1.46-2.27,2.51-2.32.22-4.58.79-2.79.7-3.86,3.98-7.61,3.23-.92-.18-2.62-.81-2.43,1.17l2.05.19c-.25.55-.78.68-1.45.87l-5.04,1.19c-.58.09-.95.36-1.56.46-.67.11-1.19.04-1.73.26-.72.3-.32.4-1.6.42-.91.02-1.07-.07-1.66-.39-3.88-2.09-2.55-3.51-3.27-5.11-.51-1.15-2.67-4.14-4.17-4-1.08.1-3.43,2.75-4.62,3.38l-2.9,1.15c-.54.17-.5.11-.98.33-1.02.44-3.9,3.48-2.99,4.46,1.3.79,1.54-1.27,3.56.56.16,1.62-.1,2-.76,3.02-.47.74-1.15,1.73-1.4,2.55.42.5,1.18.75,1.79,1.05.61.31,1.2.64,1.81.99,3.82,2.21,2.85,2.07,5.01.57.78.36.79.92,1.11,1.66,1.23,2.85,2.83,1.64,4.67.76.73-.36,1.23-.03,1.86,0,1.2.07,2.5-.57,3.72-.78,1.96-.35.35-.98,3.43-.12.36.1.57.09.93.21.61.21.32.21.74.34l1.73.52c2.15.8,3.84-.97,5.83-.24,2.54.93,1.2,1.26,3.99.34.88-.29,1.71-.84,2.6-.98.34,1.11,1.88,4.01,2.47,5.16.21.41.65.96.97,1.43.48.7,1.64,2,2.37,2.66.93.85,2.08,1.62,2.15,2.87-.46.21-.78.48-1.45.61-4.25.88-6.37,3.39-6.5,7.82-.11,3.95.25,5.62,1.62,8.61.11.23.5,1.3.54,1.48.34,1.4-.35,2.2-1.01,2.9-2.23.27-3.35-.17-4.76-1.17-2.11-1.5-4.17-3.87-5.34-6.18-1.45-2.89.37-5.27.44-7.32.07-2.09-2.4-3.77-4.05-4.49-3.58-1.55-8.09-.09-7.58,2.35.9.07,1.76.12,2.44-.18.36-.16-.08-.03.5-.24.27-.1.35-.09.59-.17.25-.09,3.31-1.89,4.59.83.7,1.47.75,3.07.76,4.69.02,2.52-.77,1.79-1.54,3.9.45.82.63,1.2,1.33,2l3.26,3.42c1.78,1.67,3.71,3.07,6.19,3.86,3.73,1.19,3.77.34,5.42-.48.2-2.24-.69-5.97-1.03-8.07-.63-3.8-1.25-6.46.79-9.84,2.06-3.41,7.54-3.18,10.6-.94,1.74,1.27,1.57,1.85,2.19,3.59.48,1.36,2.35,1.56,2.56,3.1-.43.22-.51.09-.96.22l-.88.53c.03,1.1.5,1.63.8,2.59.36,1.12.33,1.3-.28,2.33-.62,1.03-1.25,2.03-2.23,2.77-.3.22-.82.65-1.14.49-.03-.02-.09-.05-.13-.07-.04-.02-.09-.05-.13-.06l-1.62-.17c-.74.12-.22.02-.53.18l-.21.14c-1.07.69-2.51,1.98-2.89,3.25-.77,2.52.86,6.44-.75,8.33-1.03,1.21-3.62,2.2-5,.92l-3.7-3.37c-1.46-1.46-1.29-.91-3.66-1.08-.93-1.14-1.14-1-1.86-2.35-.77-1.43-1.75-.39-2.6.04-.87-.73-1.41-2.51-2.23-2.99-.42.73.36,1.01-.37,1.82-.61-.12-1.02-.7-1.38-1.19-1.17-1.6-1.25-3.77-1.46-5.82-1.56-.14-3.26,1.4-5.82-.49-.88-.64-1.03-1.23-1.63-1.9-.94-1.06-3.87-1.06.02-2.46,3.36-1.21,4.38,2.51,6.34,2.38.33-1.72-.25-1.6-1.11-2.38-.53-.48-1.12-1.47-1.58-1.76-.71-.45-4.74-.02-4.41-2.02,1.54-.14,4.06-1.58,5.33-.96,1.21.59,2.13,2.7,3.43,2.85.27-3.57-2.88-3.84-5.73-3.77-1.59.04-2.74.18-3.89.84-.11.06-.63.41-.77.52-.62.5-1.15,1.21-1.2,2,.59.31,1.35.53,1.65,1.17-.27.69-.83.77-1.5,1.16-.79.47-.85.62-1.27,1.44.22.37.11.18.42.45.03.02.39.28.44.3.81.48,2.07.9,2.72,1.56.84.85.4,1.88,1.77,2.86,3.04,2.17,4.27.34,5.36.98.91.53.25,2.31,2.1,4.6l1.69,1.84c1.04.95,2.19.73,3.39,1.1.49.15.47.13,1.02.16,1.89.1,1.62.75,2.88,1.69.83.62.57.35,1.57.69,2.28.78,2.12,1.34,3.79,3.04.67.68,1.61,1.47,2.51,1.97.6.33.95.55,1.87.59,1.92.08,2.86-.15,4-1.66.29-.38.2-.3.44-.68.47-.75,1.32-2.5,1.51-3.15,1.07-3.73-2.67-7.14,1.5-9.05,2.93-1.34,2,2.68,2,4.45,0,.77-.09,1.55.16,2.11l1.51,3.14c.31.5.47.86.79,1.45,1.96,3.73,6.78,7.03,8.37,9.67,1.58,2.63,2,3.18,2.97,6.14.66,2.02-.45,5.45-1.93,6.77-1.55,1.37-4-.9-6.15-1.68-1.47-.54-3.63-.25-5.06.28-2.64.97-3.08,2.01-2.94,5.14,2.16-.2,3.55-5.41,8.21-4.32.59.14,2.59,1.05,1.71,1.89-.45.44-3.09.25-3.86.43-1.58.36-1.62.51-2.38,1.77-1.47,2.43-1.74,2.27-3.35,2.69l-1.39.75c-.03,1.12.33,2.16,1.34,2.56.56-.8.11-.54.34-1.57.22-.98,1.81-1.72,2.84-1.18.61.32,1.71,3.35,1.82,4.28-1.55.98-3.37,2.24-4.57,3.6-3.18,3.6-4.32,4.44-7.04,9.32-.54.98-1.09,1.83-1.47,2.59-.43.86-.64,2.03-1.4,2.59l-.42-.39c-.05-.05-.18-.25-.24-.34-1.36-2.08-3-3.89-4.95-5.44-2.26-1.8-5.55-3.29-8.57-2.47-2.29.62-4.32,1.6-6.11,2.97-.51.39-.79.66-1.22,1-.21.17-.47.37-.63.49-.14.1-.47.33-.63.48-.35.34-.88.9-1.2,1.22-.39.39-.71.82-1.04,1.19-.4.45-.72.86-1.08,1.35-.4.54-.7.74-1.03,1.18-1.64,2.18-4.11,6.19-4.83,8.89-.39,1.45-1.39,3.75-1.59,5.27-.1.77-.09,1.38-.22,2.06-.25,1.26-.47,2.76-.2,4.16.86.06,2.26.2,2.92-.14.33-.32.41-5.31.97-7.27.53-1.88,1.49-3.91,2.24-5.72.55-1.32,1.66-2.99,2.46-4.2.16-.24.32-.48.54-.75.46-.58.74-.94,1.12-1.5,1.6-2.36,3.98-3.89,5.48-5.28.54-.5.91-.62,1.56-1.02,1.71-1.05,4.33-1.98,6.35-1.08,3.68,1.64,5.91,4.58,7.98,8,1.34,2.21.79,1.55.28,3.95-.27,1.29-.87,2.72-1.08,4.12-.38,2.57-1.22,7.27-.96,9.66.56.04,1.12.06,1.69.06.19,0,1.09.07,1.19-.16.02-.06.1-.03.14-.06.37-.78.14-2.35.19-3.38l.93-5.95c.37-1.2.6-2.84,1.09-4.07.18-.46.21-.85.37-1.32,1.71-5.04,5.02-11.74,8.46-15.5l1.76-1.77c1.23-1.25,2.17-2.31,3.73-3.16.93-.51,1.55-.8,2.63-.77l.89,1.61.93-.04c.12-.39.11-.71.37-1.02.91.16.21.11,1.12.55,2.33,1.12,4.38,3.31,5.92,5.43,1.82,2.51,3.42,5.45,4.67,8.34.33.75.68,1.56.97,2.35.14.39.3.84.43,1.26.19.6-.21-.52.09.29.57,1.48.81,3.35,1.24,4.36l.59,2.68c.02.05.03.1.05.14.48,1.5.3,3.02.61,4.43.35,1.61-.1,4.62.39,5.96.05.02.11.04.15.05l2.62.1c.17-1.77.13-6.25-.2-8.13-.39-2.27-1.15-6.7-1.93-8.64-.38-.95-.09-1.32.3-1.92,1.93-2.95,3.9-5.47,6.83-7.48.09-.06.16-.13.31-.21l.93-.37c.8-.31,1.5-.27,2.4-.25,4.82.09,10.82,6.98,13.22,10.74.88,1.38,2.23,3.96,2.75,5.45.53,1.51,1.08,2.71,1.21,4.26.11,1.25.39.61.52,2.02.54,5.49-.15,4.68,3.02,4.79l-.18.51Z"/>
      <path class="cls-2" d="m175.28,108.81c1.19,0,2.34.02,3.38.55.25.13.21.11.38.24-.06,2.77-5.24.9-6.18.82-2.03-.17-.61-.71-4.85-.57-3.17.1-3.7,4.17-2.63,4.96,1.5,1.11,4.93-1.88,6.42-2.57,2.57-1.19,1.61.09,3.63.08,1.65-.02,3.62-1.15,2.91,1.46-2.65.23-3.02-1-5.43-.22-.85.28-1.55.46-1.69,1.44-.16,1.13.11,1.76.73,2.38,1.12,1.13,2.45.63,3.54,1.12l5.12,2.81c-.61,2.04-2.79,1.48-4.41,1.49h-.19c-2.82,0-4.6,2.06-6.33,3.89-1.49,1.58-2.26,3.7-4.55,2.52-.56-.29-1.14-.58-1.69-.92-2.13-1.3-4.05-2.73-5.9-4.32-.48-.41-1.51-2.61-1.8-3.23-.42-.89-1.61-2.71-1.51-3.7.06-.63.7-1.16,1.03-3.95.12-.98-.28-3.66-.6-4.46-.45-1.11-1.24-2.12-2.3-2.7-3.93-2.13-4.76.19-8.32-.03-2.04-.13-2.34.38-3.71,1.47-.75.59-1.14.34-2.06.28-2.86-.2-1.22,2.64.99,1.48,1.22-.64.61-.43,2.18-.39.8-.37.09-.15.8-.53.32-.18.63-.27,1-.51.7-.46.78-.81,2.07-.62,1.11.16,2.02,1.07,2.64,1.95l.55.69c.49-.78-.52-2.37.21-3.06,1.81-.73,2.93.25,3.46,1.65.72,1.86,1.03,5.47.28,7.67-.95,2.75-.34,4.31.99,6.71,1.38,2.48,2.21,2.43,4.41,3.96.66.46,1.29.81,1.82,1.14,1.99,1.24,3.44,2.3,5.29,3.26l.91.57c.28.18.16.08.46.25.41.22.72.41.52,1.08-.2.66-1.04,1.31-1.65,1.51-.75-1-1.13-2.28-1.96-.39-.28.64-.3.41-.64,1.22-1.18.16-1.17-.5-1.97.22-.72.65-2.4,3.27-4.37-.41-.31-.57-.44-1.1-.75-1.67-1.09-2.03-6.37-6.25-7.25-7.82-.35-.62-.46-1.14-.94-1.66-.45-.49-1.38-.8-1.89-.27-.67.7.31,1.45.56,1.8.69,1-.38,1.72-.06,4.38,2.04,1.51,1.63-.56,3.09-1.14.63.69,1.19,1.86,1.37,3.11,1.98.37,1.61,1.57,2.75,2.25l1.16.79c.03,1.43-.34,1.14-.41,2.04.69.57,1.73.81,2.76,1.12.54.16.92.39,1.34.72.29.22.73.73,1.07.89l1.86-1.23s.08-.05.11-.07l2.82-1.67s.09-.04.13-.06l3.34-1.27c2.46-1.13,1.49-1.87,2.44-3.86.43-.9.31-1.59.66-2.53,1.07-2.9,2.31-3.63,5.39-4.23,3.32-.65,5.15.32,6.03-3.5.76-3.3,4.06-2.49,6.91-2.25.78,1.95.32,3.07,1.37,4.93.45.79.5.93,1.41,1.07-.05-2.71-.09-2.57-.94-4.73-.35-.89-.25-1.6,0-2.49.07-1.6,2.23-2.18,1.81-2.95-.15-.22-1.69,1.25-3.12.68-.09-.75-.08-.79.32-1.32.02-.03.06-.07.09-.1,1.24-1.64,1.88-3.8.21-5.38-.42-.4-.89-.62-1.57-.67-1.74-.13-.13,2.15.13,2.68.78,1.63-.75,4.37-2.1,5-.69.32-2.48.57-3.65,1.02l-1.95.84c-1.13.54-1.72.61-2.77.26-1-.34-.38-.23-1.25-.58-1.17-.46-3.02-.98-3.71-2.04,1.52-1.6,3.12-.51,4.88.15,1.91.71,3.88-1.05,3.99-2.92.05-.96-.06-2.22-.32-2.65-.68-1.12-2.28-2.39-3.6-2.65-1.9-.38-3.14.54-4.14.25l-2.83-1.89c-.23-.26-.76-1.11-.85-1.34l-.17-1.8c.24-.79,1.2.28,1.91.33,1.45.09,1.7-1.32-.87-2.98-.53-.34-1.18-.76-1.45-1.39.22-.39.07-.19.42-.42.18-.12.47-.21.67-.26.72-.19.63-.1,1.27-.38l2.5-.8c2.48-.63,2.41-.65,4.38-2.35,1.96-1.7,3.25-1.48,4.7-1.94,1.48-.46,3.36-.52,4.62-1.35.43-.28.28-.02.42-.49-.82-.45-4.69-.09-5.62.15-1.63.43-3.27.49-4.49,1.61-.97.89-1.91,2.72-3.09,3.04-1.64.45-3.96.29-5.59.8-2.43.76-3.87,3.24-2.82,5.64.62,1.41,1.5,4.65,3.09,6.2,1.39,1.36,2.75,1.11,5.17,1.1h0Z"/>
      <path class="cls-2" d="m132.35,118.73c2.56.43,1.82-1.62,5.38.56,2.29,1.41,3.2.4,5.35,1.49.07,1.78-1.95,2.07-.9,4.8,1.79.21,1.92-1.74,2.04-3.15.09-.96.98-2.34-.54-4.06l-3.18.04c-.29-.58-.65-1.34-1.1-1.71-1.14.14-2.15,1.03-3.18-.23.16-.39-.1-.38,1.21-1.04l2.76-1.71c.65-.41.95-.66,2-.45.45.09,2.49,1.23,2.83,1.66.48.59.43,2.62,2.01,2.69v-2.63c.02-.98-3.22-3.83-5.91-3.31-1.68.32-3.03,1.05-4.39,1.94-1.37.9-2.36,1.19-3.86,2.45-.74.62-.61,1.57-.51,2.66h0Z"/>
      <path class="cls-2" d="m179.23,98.41c-.16-1.42.28-1.05.28-2.16-.84.13-.09-.07-.6.25-1.06.67-.62.88-2.93,1.73-.47.17-1.01.29-1.18.69.36.2.5.16,1.02.28l5.16,2.27c.35.18.55.29.97.52.62.36.32.35.94.53,1.07-.34,1.43-1.31,2.6-1.59.95.2.97.59,2.35.58.4-1.07.56-1.94,1.13-2.96.41-.75,1.28-2.05,1.36-2.74-.68.1-1.29.83-2.18,1.57-.89.74-1.3,1.22-2.7.51-2.4-1.21-3.7.71-6.25.5h0Z"/>
      <path class="cls-2" d="m180.29,174.84c-.69-.65-1.16-1.5-2.18-1.64,0,.79.21.79.65,1.3l2.28,3.49c.32.51.37.7.77,1.25.81,1.11,1.66,3.34,2.22,3.59.23-.61.18-1.09.16-1.88-.02-1.15.03-.84-.39-1.62-.76-1.38-2.39-3.43-3.5-4.49h0Z"/>
      <path class="cls-2" d="m149.82,118.39c.62-.5.59-.96.68-2.1.08-.91.44-1.76.33-2.6-.07-.57-1.4-3.48-1.94-3.8-.42.6-.23,1.59-.23,2.31,0,1.02-.17,1.52-.19,2.41-.02.51.14,1.64.25,2.21.16.81.46,1.33,1.1,1.57h0Z"/>
      <path class="cls-8" d="m189.75,232.25l2.26.23,1.71-.95c1.41-.92.92-1.66,1.27-2.47.03-.08.44-.64.45-.65,1.79-1.92,2.38.12,3.82.05l.67-1.48c1-2.3,1.87-4.04,2.14-6.84.11-1.07-.13-1.03.39-1.8,1.18-1.76.4-1.89.74-3.78l2.12-.07c.82-1.91-.29-2.87-2.04-3.31-3.07-.77-6.74-7.27-6.75-11.08,0-1.74.16-2.34,1.91-3.98,1.25-1.17,1.61-2.02,2.6-3.38l2.25-3.63c.14-.74.15-5.18-.05-5.82l-3.61-8.25c-.18-.36-.29-.66-.48-1.02l-1.56-2.86c-1.18-2.69-3.05-5.29-4.41-8.99l-.83-2.15c-.58-1.29-.68-2.54-.89-3.56-.08-.36-.69-1.68-.95-2.05-.39-.57-.83-1.09-1.36-1.61-.8-.78-1.75-2.57-4.06.78-.69,1,.02,3.09-.57,3.87-.56.62-2.66.2-2.64-2.51.01-2.37,1.25-2.99.26-4.45-.56-.82-4.76-4.87-5.72-5.07-1.16.96-.75,1.62-2.89,1.97-1.55.25-2.26.51-3.04,1.61-1.8,2.54-.2,4.62.77,6.99.44,1.08.96,2.27,1.57,3.27.53.86,1.31,1.81,1.95,2.69.7.97,1.48,1.66,2.2,2.44,1.09,1.18,2.23,2.42,3.73,3.35.26.16.27.16.44.28.03.02.07.06.11.08.03.02.08.05.11.07l.89.42c2.67,1.1,3.54,1.95,5.08,4.21,1.65,2.42,1.52,3.17,1.93,5.14.21,1.01,1.27.71-.23,3.54-.56,1.06-2.17,2.99-2.9,3.97-.87,1.16-1.06,1.57-1.44,3.21-.5,2.23-1.6,1.66-.11,5.33l.7,1.53c.3.58.13.15.53.73.14.2.3.54.41.74l4.98,6.7c.35.44.78.78,1.15,1.26,1.29,1.66,3.59,5.29,4.43,7.09l.65,1.2c.51.86.03.25.41,1.44.15.49.23.38.34.73.19.6.28,4.79-.05,5.65-.13.34-.09.18-.18.35-.36.73-.52,1.03-1.2,1.58-4.24,3.44-8.43.08-11.34,2.23-.83.61-1.33,1.86-.81,3.06.44,1.05.93,2,1.48,3.06,1.19.2,1.45-.9,1.5-1.92.1-1.67.01-1.55,1.32-2.21,1.1-.55,3.66-1.51,4.95-.92.45.21.19-.08.41.34-.5.69-1.46-.09-3.6,1.62-1.55,1.24-.99,1.82-.89,3.97h0Z"/>
      <path class="cls-8" d="m210.41,138.01c.32-.5.23-1.5.22-2.22-.02-1.51-.56-2.51-1.16-3.71-1.1-2.19-.43-2.1.93-4.25,2.19-3.43,2.19-4.58.94-8.44-.67-2.06-.95-2.67-.33-4.99.2-.78-.04-.38.33-.93,1.02-1.49,3.6-2.46,5.3-1.74,1.22.52,1.85,1.09,2.76,2.07,1.32,1.41,2.34,2.56,2.95,4.45.66,2.05,1.21,4.07,1.22,6.39.03,3.93.08,4.91-1.52,8.5l-7.5,14.78c-.18.33-.27.52-.46.84-.06.09-.15.24-.21.35l-.94,2.19c-.64,2.04-1.36,3.59-1.36,6.05,0,2.14.64,4.41,1.21,6.19.15.47.07.54.26,1.04.11.28.13.25.18.36.59,1.37.92,2.88,1.55,4.21l2.86,6.93c.37,1.07.78,3.07.76,4.32-.02.8-.43,3.8-.68,4.38-.99,2.33-3.05,4.54-6.19,3.79-1.75-.41-2.55-1.24-3.76-2.39-.84-.79-1-1.46-2.16-.9-.14,2,2.41,4.27,4.08,4.89,2.24.84,5.63.68,7.43-.82l1.38-1.39s.35-.56.35-.57c1.14-2.1,1.65-6.77,1.15-9.36-.19-.98-.34-.87-.45-2.1l-1.16-4.26c-1.34-3.81-2.72-4.85-.89-7.95.66-1.11,1.29-2.38,2-3.38l1.64-2.26c1.2-1.65-.93-2.33-2.04-.75l-1.8,2.31c-.58.61-.5,1.07-1.61.94-.48-3.18,1.77-5.09,3.54-7.01.85-.92,1.79-1.68,2.78-2.61.48-.45.88-.89,1.37-1.22.97-.64,1.28-.24,1.25-1.48-1.99-1.14-3.23.92-5.71,2.4-.82.49-1,.91-2.06.94-.23-1.72.62-2.33,1.53-3.33,1.71-1.88,3.79-3.01,5.82-4.23l3.15-1.85c.21-1.36.19-1.43-1.18-1.41-1.68.02-2.86.8-4.21,1.6-.69.41-1.15.75-2.25.59.04-1.01.85-2.12,1.52-2.8,1.83-1.88,4.22-3.24,6.27-4.89.68-.55,1.01-.52.86-1.51-1.37-.54-1.55-.27-2.51.43-.47.34-1.82,1.24-2.29.87-.79-.61.9-3.01,1.06-5.22.07-.92.21-1.07.36-1.87.25-1.36.21-2.77.2-4.26-.01-1.84-.61-6.04-1.5-7.59-1.37-2.41-3.23-4.37-5.64-5.7-.71-.39-.82-.52-1.94-.52-3.84,0-5.61,1.41-6.93,3.89-.72,1.35-1.47,5.45-.78,7.23.92,2.39,2.22,2.15-.4,5.75-.51.71-1.31,1.67-1.4,2.51-.15,1.4.18,2.16.83,3.3.59,1,.8.96,1.21,1.57.59.86.56,3.35,1.7,3.86h0Z"/>
      <path class="cls-8" d="m200.56,119.78c.65-.16,1.99-1.34.48-2.85-.63-.63-.52-.35-.58-1.31,1.57.21,2.71,1.96,3.93.48-.1-.87-1.11-1.15-2.11-2.65-1.6-2.42-.93-2.09-1.28-6.09-.11-1.29-.4-1.15-.52-2.05-.28-2.11-.49-2.43-2.85-2.15-.03.9-.06.39.27.92.39.64.94,1.89.93,2.92,0,2.36-1.27,7.99-.28,9.63.39.65.56.82.98,1.65.34.67.44,1.15,1.02,1.51h0Z"/>
      <path class="cls-4" d="m176.39,179.08c-.18-.61-.44-1.11-.86-1.68-.56-.74-.27-.91-1.33-1.05.02.59.15.91.45,1.38.57.9-.05.94.87,1.33l.17.44.05.68c.72.66.33.87.84,1.74.48.83.34,1.22,1.34,1.35.04-1.14-.24-1.09-.53-2.08-.19-.43-.9-1.65-.99-2.11h0Z"/>
      <path class="cls-3" d="m162.25,133.67c.08-.26.17-.36.15-.66-.06-.85-.1-.43-.25-.67-1.3.12-.92,1.38.09,1.33h0Z"/>
      <path class="cls-3" d="m159.44,133.59c.29-.25.5-.29.69-1.12.12-.54.17-1.12.18-1.67l-.94.02-.1.47c-.18.5-.46.93-.38,1.93,0,.07.04.33.05.37.1.38.11.27.25.46.35-.25.16.23.27-.46h0Z"/>
      <path class="cls-7" d="m170.94,135.21c1.22.01,1.05-.64,1.89-1.26.07-.81.06-.76-.45-1.84l-.19-.33c-.23.26-.12.02-.31.45-.02.05-.12.39-.13.42l-.81,2.56Z"/>
      <path class="cls-6" d="m185.56,121.77c.65-.26.93-.86.88-1.57l-1.13.02c-.2.84-.21,1,.25,1.55h0Z"/>
      <path class="cls-6" d="m188.8,93.53c.92.52,1.25.18,1.3-.93-.84-.01-1.09.22-1.3.93h0Z"/>
      <path class="cls-6" d="m192.16,98.04l1.02.24c.75.05,1.21.14,1.51-.4.37-.68.11-.79-.37-1.31-.91-.03-2.01.52-2.16,1.48h0Z"/>
      <path class="cls-6" d="m181.91,105.53c-.09-1.03-1.05-1.39-2.21-1.62.23,1.15,1.04,1.68,2.21,1.62h0Z"/>
      <path class="cls-1" d="m29.64,13.34v22.93c0,2.6-.09,4.43-.25,5.48-.18,1.05-.67,2.14-1.5,3.24-.83,1.11-1.93,1.95-3.29,2.52-1.37.57-2.97.86-4.82.86-2.04,0-3.85-.34-5.41-1.02-1.57-.68-2.74-1.56-3.51-2.64-.78-1.09-1.23-2.24-1.38-3.45-.14-1.21-.21-3.75-.21-7.62V13.34h8.93v25.72c0,1.5.08,2.46.24,2.87.16.42.48.63.97.63.55,0,.91-.23,1.07-.69.16-.46.24-1.55.24-3.25V13.34h8.93Zm8.93,27.31v6.98h-6.46v-6.98h6.46Zm21.39-16.9h-8.28v-2.54c0-1.18-.11-1.94-.32-2.27-.21-.33-.55-.48-1.05-.48-.54,0-.94.22-1.21.66-.27.43-.41,1.09-.41,1.98,0,1.14.16,2,.47,2.58.3.57,1.14,1.27,2.52,2.09,3.95,2.36,6.44,4.31,7.47,5.82,1.03,1.51,1.54,3.95,1.54,7.3,0,2.44-.29,4.24-.86,5.41-.57,1.16-1.67,2.12-3.31,2.9-1.63.79-3.53,1.18-5.71,1.18-2.38,0-4.41-.46-6.1-1.36-1.68-.9-2.78-2.05-3.31-3.45-.52-1.4-.78-3.39-.78-5.95v-2.25h8.28v4.17c0,1.29.12,2.11.35,2.48.23.37.64.55,1.23.55s1.04-.23,1.32-.7c.29-.46.43-1.16.43-2.07,0-2.02-.28-3.34-.82-3.95-.57-.63-1.96-1.66-4.17-3.12-2.21-1.47-3.67-2.54-4.39-3.2-.71-.66-1.32-1.58-1.79-2.75-.47-1.17-.71-2.67-.71-4.49,0-2.62.33-4.54,1-5.76.67-1.21,1.75-2.16,3.25-2.85,1.49-.68,3.29-1.02,5.41-1.02,2.31,0,4.28.38,5.91,1.12,1.63.75,2.7,1.69,3.23,2.83.53,1.14.8,3.07.8,5.79v1.36Zm9.02,16.9v6.98h-6.46v-6.98h6.46Zm31.33-27.31l-4.52,34.29h-13.5l-5.17-34.29h9.41c1.06,9.46,1.84,17.46,2.32,23.99.48-6.61.97-12.48,1.46-17.6l.59-6.39h9.41Zm10.47,0v34.29h-8.93V13.34h8.93Zm3.56,0h8.87c2.8,0,4.93.22,6.37.66,1.45.43,2.61,1.32,3.5,2.65.89,1.34,1.33,3.48,1.33,6.44,0,2-.31,3.39-.94,4.18-.63.79-1.87,1.39-3.72,1.82,2.07.47,3.46,1.24,4.2,2.32.74,1.08,1.11,2.74,1.11,4.98v3.18c0,2.32-.27,4.03-.8,5.15-.53,1.11-1.36,1.88-2.52,2.29-1.16.41-3.52.61-7.11.61h-10.29V13.34Zm8.93,5.85v7.63c.38-.01.66-.02.87-.02.85,0,1.4-.22,1.63-.64.24-.43.36-1.67.36-3.7,0-1.07-.09-1.83-.29-2.26-.19-.43-.45-.7-.76-.82-.31-.11-.92-.17-1.81-.19h0Zm0,12.96v9.62c1.23-.04,2.02-.24,2.36-.59.34-.35.5-1.23.5-2.61v-3.21c0-1.48-.15-2.36-.46-2.68-.3-.31-1.1-.48-2.4-.53h0Zm35.33,1.29c0,3.44-.08,5.88-.25,7.31-.16,1.44-.66,2.75-1.51,3.93-.85,1.19-2.01,2.1-3.46,2.73-1.45.64-3.14.96-5.07.96s-3.48-.31-4.93-.91c-1.46-.6-2.64-1.49-3.52-2.69-.89-1.2-1.42-2.51-1.59-3.92-.16-1.41-.25-3.89-.25-7.41v-5.87c0-3.45.08-5.88.25-7.31.16-1.44.66-2.75,1.52-3.93.85-1.18,2.01-2.09,3.46-2.73,1.45-.64,3.14-.95,5.07-.95s3.47.3,4.93.9c1.46.6,2.64,1.5,3.52,2.7.89,1.2,1.41,2.51,1.59,3.91.16,1.42.25,3.89.25,7.41v5.87Zm-8.93-11.27c0-1.59-.09-2.61-.26-3.05-.18-.44-.53-.67-1.06-.67-.46,0-.8.18-1.05.54-.24.36-.36,1.42-.36,3.18v16c0,1.98.08,3.21.24,3.68.16.47.53.7,1.11.7s.98-.27,1.14-.8c.16-.53.24-1.81.24-3.83v-15.75Zm32.18-8.84v34.29h-7.81l-4.64-15.59v15.59h-7.45V13.34h7.45l4.99,15.44v-15.44h7.46Zm3.57,0h14.87v6.85h-5.94v6.54h5.55v6.5h-5.55v7.54h6.55v6.85h-15.48V13.34Zm36.87,10.41h-8.28v-2.54c0-1.18-.11-1.94-.32-2.27-.21-.33-.55-.48-1.05-.48-.53,0-.94.22-1.21.66-.27.43-.41,1.09-.41,1.98,0,1.14.16,2,.47,2.58.3.57,1.14,1.27,2.52,2.09,3.95,2.36,6.45,4.31,7.47,5.82,1.04,1.51,1.55,3.95,1.55,7.3,0,2.44-.29,4.24-.86,5.41-.57,1.16-1.67,2.12-3.31,2.9-1.63.79-3.54,1.18-5.71,1.18-2.39,0-4.41-.46-6.1-1.36-1.68-.9-2.78-2.05-3.31-3.45-.52-1.4-.78-3.39-.78-5.95v-2.25h8.28v4.17c0,1.29.11,2.11.34,2.48.23.37.64.55,1.24.55s1.03-.23,1.32-.7c.29-.46.43-1.16.43-2.07,0-2.02-.27-3.34-.82-3.95-.57-.63-1.96-1.66-4.17-3.12-2.21-1.47-3.67-2.54-4.39-3.2-.72-.66-1.32-1.58-1.79-2.75-.47-1.17-.71-2.67-.71-4.49,0-2.62.34-4.54,1.01-5.76.67-1.21,1.75-2.16,3.24-2.85,1.5-.68,3.29-1.02,5.41-1.02,2.31,0,4.28.38,5.91,1.12,1.62.75,2.7,1.69,3.23,2.83.53,1.14.79,3.07.79,5.79v1.36Zm3.56-10.41h14.87v6.85h-5.94v6.54h5.55v6.5h-5.55v7.54h6.55v6.85h-15.48V13.34Z"/>
      <path class="cls-8" d="m30.55,171.6v40.88h-10.18v-21.95c0-3.17-.08-5.08-.22-5.72-.16-.64-.57-1.12-1.25-1.45-.68-.33-2.2-.49-4.55-.49h-1.01v-4.75c4.93-1.05,8.66-3.23,11.21-6.52h5.99Zm3.97,30.03h10.18c0,1.91.03,3.12.08,3.61.05.5.26.92.63,1.26.36.34.86.51,1.49.51.53,0,.96-.16,1.3-.48.34-.32.54-.72.58-1.23.04-.51.06-1.53.06-3.05v-6.5c-.51,1.09-1.27,1.89-2.28,2.44-1.01.54-2.27.82-3.77.82-1.87,0-3.52-.51-4.95-1.52-1.44-1.01-2.34-2.22-2.73-3.64-.39-1.41-.59-3.32-.59-5.73v-3.26c0-2.87.11-5,.34-6.39.22-1.4.81-2.69,1.75-3.88.95-1.19,2.25-2.11,3.92-2.77,1.66-.66,3.6-.98,5.8-.98,2.73,0,4.97.38,6.72,1.14,1.75.76,3.11,1.84,4.07,3.27.96,1.42,1.52,2.91,1.67,4.48.15,1.57.23,4.6.23,9.1v5.68c0,4.86-.07,8.11-.2,9.76-.14,1.64-.72,3.2-1.76,4.66-1.03,1.46-2.44,2.56-4.2,3.29-1.77.74-3.82,1.1-6.14,1.1-2.88,0-5.23-.46-7.06-1.38-1.82-.93-3.14-2.24-3.95-3.92-.8-1.69-1.2-3.82-1.2-6.37h0Zm10.18-12.73c0,1.72.23,2.78.68,3.18.45.41.91.61,1.39.61.71,0,1.24-.26,1.57-.77.34-.52.5-1.53.5-3.02v-7.4c0-1.8-.16-2.98-.48-3.53-.31-.56-.84-.84-1.57-.84-.44,0-.91.21-1.38.64-.47.43-.72,1.59-.72,3.47v7.65Zm39.77,16.6v6.98h-22.43l.02-5.84c6.65-10.86,10.6-17.58,11.86-20.16,1.26-2.58,1.89-4.6,1.89-6.04,0-1.11-.2-1.94-.57-2.49-.38-.54-.96-.82-1.73-.82s-1.36.3-1.74.9c-.38.6-.57,1.8-.57,3.59v3.88h-9.15v-1.49c0-2.28.12-4.09.35-5.41.23-1.32.82-2.62,1.74-3.9.93-1.27,2.13-2.25,3.62-2.9,1.48-.66,3.25-.98,5.32-.98,4.06,0,7.12,1.01,9.21,3.01,2.08,2.02,3.12,4.56,3.12,7.63,0,2.34-.59,4.81-1.76,7.43-1.17,2.61-4.62,8.14-10.36,16.6h11.18Zm23.44-16.2c1.5.61,2.66,1.51,3.46,2.71.81,1.2,1.21,4.07,1.21,8.59,0,3.3-.32,5.73-.96,7.3-.65,1.56-1.89,2.84-3.74,3.85-1.85,1-4.33,1.5-7.45,1.5s-5.43-.48-7.19-1.44c-1.77-.96-3.04-2.23-3.81-3.82-.76-1.57-1.14-4.21-1.14-7.9,0-2.47.19-4.62.57-6.43.38-1.82,1.57-3.27,3.57-4.37-1.26-.6-2.2-1.57-2.83-2.89-.63-1.32-.95-3-.95-5.03,0-3.51.97-6.16,2.93-7.92,1.94-1.75,4.87-2.63,8.75-2.63,4.5,0,7.6.93,9.31,2.8,1.71,1.87,2.57,4.54,2.57,8,0,2.2-.29,3.8-.84,4.77-.56.97-1.71,1.95-3.46,2.9h0Zm-5.72-8.76c0-1.39-.12-2.3-.37-2.74-.24-.45-.71-.67-1.41-.67s-1.14.24-1.38.72c-.23.47-.35,1.37-.35,2.69v3.1c0,1.23.14,2.07.4,2.55.28.48.73.71,1.38.71.68,0,1.14-.23,1.38-.7.23-.45.35-1.41.35-2.86v-2.8Zm.21,16.96c0-1.57-.16-2.6-.48-3.12-.33-.51-.84-.76-1.53-.76s-1.17.25-1.47.74c-.3.5-.44,1.54-.44,3.14v5.29c0,1.77.16,2.9.5,3.4.32.51.85.76,1.57.76s1.22-.26,1.48-.77c.25-.52.38-1.67.38-3.47v-5.21Z"/>
      <path class="cls-5" d="m2.29,0h247.17v56.57H.16V0h2.13Zm242.91,4.25H4.41v48.06h240.79V4.25Z"/>
      <path class="cls-8" d="m245.2,4.25H4.41v48.06h240.79V4.25ZM29.64,13.34v22.93c0,2.6-.09,4.43-.25,5.48-.18,1.05-.67,2.14-1.5,3.24-.83,1.11-1.93,1.95-3.29,2.52-1.37.57-2.97.86-4.82.86-2.04,0-3.85-.34-5.41-1.02-1.57-.68-2.74-1.56-3.51-2.64-.78-1.09-1.23-2.24-1.38-3.45-.14-1.21-.21-3.75-.21-7.62V13.34h8.93v25.72c0,1.5.08,2.46.24,2.87.16.42.48.63.97.63.55,0,.91-.23,1.07-.69.16-.46.24-1.55.24-3.25V13.34h8.93Zm14.97.33c1.49-.68,3.29-1.02,5.41-1.02,2.31,0,4.28.38,5.91,1.12,1.63.75,2.7,1.69,3.23,2.83.53,1.14.8,3.07.8,5.79v1.36h-8.28v-2.54c0-1.18-.11-1.94-.32-2.27-.21-.33-.55-.48-1.05-.48-.54,0-.94.22-1.21.66-.27.43-.41,1.09-.41,1.98,0,1.14.16,2,.47,2.58.3.57,1.14,1.27,2.52,2.09,3.95,2.36,6.44,4.31,7.47,5.82,1.03,1.51,1.54,3.95,1.54,7.3,0,2.44-.29,4.24-.86,5.41-.57,1.16-1.67,2.12-3.31,2.9-1.63.79-3.53,1.18-5.71,1.18-2.38,0-4.41-.46-6.1-1.36-1.68-.9-2.78-2.05-3.31-3.45-.52-1.4-.78-3.39-.78-5.95v-2.25h8.28v4.17c0,1.29.12,2.11.35,2.48.23.37.64.55,1.23.55s1.04-.23,1.32-.7c.29-.46.43-1.16.43-2.07,0-2.02-.28-3.34-.82-3.95-.57-.63-1.96-1.66-4.17-3.12-2.21-1.47-3.67-2.54-4.39-3.2-.71-.66-1.32-1.58-1.79-2.75-.47-1.17-.71-2.67-.71-4.49,0-2.62.33-4.54,1-5.76.67-1.21,1.75-2.16,3.25-2.85h0Zm-6.05,26.98v6.98h-6.46v-6.98h6.46Zm23.95,0h6.46v6.98h-6.46v-6.98Zm19.77,6.98l-5.17-34.29h9.41c1.06,9.46,1.84,17.46,2.32,23.99.48-6.61.97-12.48,1.46-17.6l.59-6.39h9.41l-4.52,34.29h-13.5Zm19.56,0V13.34h8.93v34.29h-8.93Zm12.49-34.29h8.87c2.8,0,4.93.22,6.37.66,1.45.43,2.61,1.32,3.5,2.65.89,1.34,1.33,3.48,1.33,6.44,0,2-.31,3.39-.94,4.18-.63.79-1.87,1.39-3.72,1.82,2.07.47,3.46,1.24,4.2,2.32.74,1.08,1.11,2.74,1.11,4.98v3.18c0,2.32-.27,4.03-.8,5.15-.53,1.11-1.36,1.88-2.52,2.29-1.16.41-3.52.61-7.11.61h-10.29V13.34Zm23.67,20.1v-5.87c0-3.45.08-5.88.25-7.31.16-1.44.66-2.75,1.52-3.93.85-1.18,2.01-2.09,3.46-2.73,1.45-.64,3.14-.95,5.07-.95s3.47.3,4.93.9c1.46.6,2.64,1.5,3.52,2.7.89,1.2,1.41,2.51,1.59,3.91.16,1.42.25,3.89.25,7.41v5.87c0,3.44-.08,5.88-.25,7.31-.16,1.44-.66,2.75-1.51,3.93-.85,1.19-2.01,2.1-3.46,2.73-1.45.64-3.14.96-5.07.96s-3.48-.31-4.93-.91c-1.46-.6-2.64-1.49-3.52-2.69-.89-1.2-1.42-2.51-1.59-3.92-.16-1.41-.25-3.89-.25-7.41h0Zm23.95,14.19V13.34h7.45l4.99,15.44v-15.44h7.46v34.29h-7.81l-4.64-15.59v15.59h-7.45Zm23.47-34.29h14.87v6.85h-5.94v6.54h5.55v6.5h-5.55v7.54h6.55v6.85h-15.48V13.34Zm17.98,13.43c-.47-1.17-.71-2.67-.71-4.49,0-2.62.34-4.54,1.01-5.76.67-1.21,1.75-2.16,3.24-2.85,1.5-.68,3.29-1.02,5.41-1.02,2.31,0,4.28.38,5.91,1.12,1.62.75,2.7,1.69,3.23,2.83.53,1.14.79,3.07.79,5.79v1.36h-8.28v-2.54c0-1.18-.11-1.94-.32-2.27-.21-.33-.55-.48-1.05-.48-.53,0-.94.22-1.21.66-.27.43-.41,1.09-.41,1.98,0,1.14.16,2,.47,2.58.3.57,1.14,1.27,2.52,2.09,3.95,2.36,6.45,4.31,7.47,5.82,1.04,1.51,1.55,3.95,1.55,7.3,0,2.44-.29,4.24-.86,5.41-.57,1.16-1.67,2.12-3.31,2.9-1.63.79-3.54,1.18-5.71,1.18-2.39,0-4.41-.46-6.1-1.36-1.68-.9-2.78-2.05-3.31-3.45-.52-1.4-.78-3.39-.78-5.95v-2.25h8.28v4.17c0,1.29.11,2.11.34,2.48.23.37.64.55,1.24.55s1.03-.23,1.32-.7c.29-.46.43-1.16.43-2.07,0-2.02-.27-3.34-.82-3.95-.57-.63-1.96-1.66-4.17-3.12-2.21-1.47-3.67-2.54-4.39-3.2-.72-.66-1.32-1.58-1.79-2.75h0Zm22.44-13.43h14.87v6.85h-5.94v6.54h5.55v6.5h-5.55v7.54h6.55v6.85h-15.48V13.34Z"/>
      <path class="cls-8" d="m126.13,22.45c0-1.07-.09-1.83-.29-2.26-.19-.43-.45-.7-.76-.82-.31-.11-.92-.17-1.81-.19v7.63c.38-.01.66-.02.87-.02.85,0,1.4-.22,1.63-.64.24-.43.36-1.67.36-3.7h0Z"/>
      <path class="cls-8" d="m125.67,32.68c-.3-.31-1.1-.48-2.4-.53v9.62c1.23-.04,2.02-.24,2.36-.59.34-.35.5-1.23.5-2.61v-3.21c0-1.48-.15-2.36-.46-2.68h0Z"/>
      <path class="cls-8" d="m146.94,22.17v16c0,1.98.08,3.21.24,3.68.16.47.53.7,1.11.7s.98-.27,1.14-.8c.16-.53.24-1.81.24-3.83v-15.75c0-1.59-.09-2.61-.26-3.05-.18-.44-.53-.67-1.06-.67-.46,0-.8.18-1.05.54-.24.36-.36,1.42-.36,3.18h0Z"/>
      <path class="cls-1" d="m2.12,59.31h247.23v2.12s.14,184.5.14,184.5c.01,17.71-6.47,32.45-16.7,44.09-11.78,13.4-28.53,22.64-46.03,27.54-7.69,2.15-22.34,6.77-36.4,12.72-9.27,3.92-18.27,8.41-24.81,13.14l-1.24.9-1.24-.9c-7.13-5.18-15.81-9.71-24.79-13.56-11.68-5.01-23.86-8.89-33.85-11.58-20.64-5.56-36.05-15.35-46.63-27.17-12.07-13.5-17.82-29.64-17.82-45.18V59.31h2.12Zm92.35,4.25v108.18c1.62-.61,3.57-.92,5.86-.92,4.5,0,7.6.93,9.31,2.8,1.71,1.87,2.57,4.54,2.57,8,0,2.2-.29,3.8-.84,4.77-.56.97-1.71,1.95-3.46,2.9,1.5.61,2.66,1.51,3.46,2.71.81,1.2,1.21,4.07,1.21,8.59,0,3.3-.32,5.73-.96,7.3-.65,1.56-1.89,2.84-3.74,3.85-1.85,1-4.33,1.5-7.45,1.5-2.38,0-4.37-.3-5.97-.89v111.33l.26.1c-10.23-4.07-20.53-7.28-29.18-9.62-.43-.12-.86-.24-1.29-.36v-101.35h-2.22l.02-5.84c.77-1.26,1.5-2.46,2.2-3.61v-17.53h-2.22v-1.49c0-2.28.12-4.09.35-5.41.23-1.32.82-2.62,1.74-3.9.04-.05.08-.11.12-.16V63.56h30.21Zm29.95,275.49V63.56h120.69l.14,182.38c.01,16.57-6.06,30.38-15.64,41.28-11.22,12.76-27.23,21.58-43.97,26.26-7.8,2.18-22.65,6.86-36.92,12.9-8.93,3.78-17.64,8.09-24.3,12.66h0ZM34.07,63.56H4.25v182.38c0,14.55,5.39,29.68,16.72,42.36,3.72,4.16,8.08,8.05,13.1,11.58V63.56Zm12.27,107.27c2.73,0,4.97.38,6.72,1.14,1.75.76,3.11,1.84,4.07,3.27.96,1.42,1.52,2.91,1.67,4.48.15,1.57.23,4.6.23,9.1v5.68c0,4.86-.07,8.11-.2,9.76-.14,1.64-.72,3.2-1.76,4.66-1.03,1.46-2.44,2.56-4.2,3.29-1.77.74-3.82,1.1-6.14,1.1-2.88,0-5.23-.46-7.06-1.38-1.82-.93-3.14-2.24-3.95-3.92-.8-1.69-1.2-3.82-1.2-6.37h10.18c0,1.91.03,3.12.08,3.61.05.5.26.92.63,1.26.36.34.86.51,1.49.51.53,0,.96-.16,1.3-.48.34-.32.54-.72.58-1.23.04-.51.06-1.53.06-3.05v-6.5c-.51,1.09-1.27,1.89-2.28,2.44-1.01.54-2.27.82-3.77.82-1.87,0-3.52-.51-4.95-1.52-1.44-1.01-2.34-2.22-2.73-3.64-.39-1.41-.59-3.32-.59-5.73v-3.26c0-2.87.11-5,.34-6.39.22-1.4.81-2.69,1.75-3.88.95-1.19,2.25-2.11,3.92-2.77,1.66-.66,3.6-.98,5.8-.98h0Z"/>
      <path class="cls-1" d="m100.41,177.13c-.68,0-1.14.24-1.38.72-.23.47-.35,1.37-.35,2.69v3.1c0,1.23.14,2.07.4,2.55.28.48.73.71,1.38.71.68,0,1.14-.23,1.38-.7.23-.45.35-1.41.35-2.86v-2.8c0-1.39-.12-2.3-.37-2.74-.24-.45-.71-.67-1.41-.67h0Z"/>
      <path class="cls-1" d="m100.39,193.62c-.68,0-1.17.25-1.47.74-.3.5-.44,1.54-.44,3.14v5.29c0,1.77.16,2.9.5,3.4.32.51.85.76,1.57.76s1.22-.26,1.48-.77c.25-.52.38-1.67.38-3.47v-5.21c0-1.57-.16-2.6-.48-3.12-.33-.51-.84-.76-1.53-.76h0Z"/>
      <path class="cls-1" d="m48.84,181.5c0-1.8-.16-2.98-.48-3.53-.31-.56-.84-.84-1.57-.84-.44,0-.91.21-1.38.64-.47.43-.72,1.59-.72,3.47v7.65c0,1.72.23,2.78.68,3.18.45.41.91.61,1.39.61.71,0,1.24-.26,1.57-.77.34-.52.5-1.53.5-3.02v-7.4Z"/>
      <path class="cls-5" d="m64.26,63.56v110.98c.91-1.19,2.08-2.11,3.5-2.74,1.48-.66,3.25-.98,5.32-.98,4.06,0,7.12,1.01,9.21,3.01,2.08,2.02,3.12,4.56,3.12,7.63,0,2.34-.59,4.81-1.76,7.43-1.17,2.61-4.62,8.14-10.36,16.6h11.18v6.98h-20.21v101.35c.43.12.85.24,1.29.36,8.58,2.31,18.77,5.49,28.93,9.51v-111.33c-.44-.17-.85-.34-1.23-.55-1.77-.96-3.04-2.23-3.81-3.82-.76-1.57-1.14-4.21-1.14-7.9,0-2.47.19-4.62.57-6.43.38-1.82,1.57-3.27,3.57-4.37-1.26-.6-2.2-1.57-2.83-2.89-.63-1.32-.95-3-.95-5.03,0-3.51.97-6.16,2.93-7.92.8-.72,1.76-1.29,2.89-1.72V63.56h-30.21Z"/>
      <path class="cls-5" d="m71.19,185.5h-6.93v17.53c5.33-8.75,8.55-14.27,9.66-16.56,1.26-2.58,1.89-4.6,1.89-6.04,0-1.11-.2-1.94-.57-2.49-.38-.54-.96-.82-1.73-.82s-1.36.3-1.74.9c-.38.6-.57,1.8-.57,3.59v3.88Z"/>
      <path class="cls-5" d="m24.56,171.6h5.99v40.88h-10.18v-21.95c0-3.17-.08-5.08-.22-5.72-.16-.64-.57-1.12-1.25-1.45-.68-.33-2.2-.49-4.55-.49h-1.01v-4.75c4.93-1.05,8.66-3.23,11.21-6.52h0Zm9.52,128.27V63.56H4.25v182.38c0,14.55,5.39,29.68,16.72,42.36,3.72,4.16,8.08,8.05,13.1,11.58h0Z"/>
      <path class="cls-8" d="m240.41,270.23s0-.04,0-.06c0,.02,0,.04,0,.06h0Zm-35.97-16.19c.01.06-.18-.48,0,0h0Zm3.23-41.55c2.36,3.27.43,4.22-2.26,5.99-1.2.8-1.18,1.39-1.46,2.86-.06.34-.06.68-.15.99l-.85,2.49c-.11.64-.06,1.32-.15,1.96-.16,1.22-.34.62-.57,1.58-.17.7-.14,1.16-.47,1.57-.82,1.01-3.4.93-5.54,3.18-.85.9-.64.23-1.44.8.25.58.38.48.85.86,3.51,2.81,6.43,6.48,8.47,10.48l1.14,2.2c.46.82.59,1.72,1.08,2.47.9-.33,1.43-1.59,1.94-2.38l.32-.39c2.25-2.16,4.4-4.32,7.54-5.13,1.25-.32,2.43-.69,3.75-.27,4.02,1.3,5.31,2.19,8.55,4.81,1.38,1.12,3.23,3.27,4.31,4.61,1.61,1.99,3.07,4.46,4.19,6.97l.68,1.57c.32.68.5.71.63,1.5.19,1.15.93,2.22,1.07,3.38.33,2.68.52,3.01.65,6.16.11-.05.2-.07.26-.08.06-.15.12-.29.19-.44,3.11-7.28,4.86-15.39,4.85-24.29l-.14-182.38h-120.69v275.49c6.66-4.58,15.38-8.89,24.3-12.66,14.27-6.04,29.12-10.72,36.92-12.9,16.74-4.68,32.75-13.5,43.97-26.26,3.88-4.41,7.18-9.3,9.74-14.65l.15-.44c-3.16-.11-2.48.7-3.02-4.79-.14-1.41-.41-.77-.52-2.02-.14-1.55-.69-2.75-1.21-4.26-.52-1.49-1.87-4.07-2.75-5.45-2.4-3.76-8.4-10.65-13.22-10.74-.9-.02-1.6-.06-2.4.25l-.93.37c-.15.08-.22.14-.31.21-2.93,2-4.91,4.52-6.83,7.48-.39.6-.69.97-.3,1.92.78,1.94,1.54,6.37,1.93,8.64.33,1.88.37,6.35.2,8.13l-2.62-.1s-.11-.03-.15-.05c-.49-1.34-.04-4.35-.39-5.96-.31-1.41-.12-2.92-.61-4.43-.01-.05-.03-.09-.05-.14l-.59-2.68c-.43-1.01-.68-2.88-1.24-4.36-.01-.04-.03-.07-.04-.11,0-.02-.02-.07-.06-.18-.13-.42-.29-.87-.43-1.26-.29-.78-.64-1.6-.97-2.35-1.25-2.89-2.85-5.83-4.67-8.34-1.54-2.12-3.59-4.3-5.92-5.43-.91-.45-.21-.4-1.12-.55-.26.31-.25.64-.37,1.02l-.93.04-.89-1.61c-1.07-.02-1.7.27-2.63.77-1.55.85-2.5,1.9-3.73,3.16l-1.76,1.77c-3.44,3.76-6.75,10.46-8.46,15.5-.16.46-.18.86-.37,1.32-.49,1.23-.73,2.87-1.09,4.07l-.93,5.95c-.05,1.04.18,2.6-.19,3.38-.05.03-.12,0-.14.06-.1.23-1,.16-1.19.16-.56,0-1.12-.02-1.69-.06-.26-2.39.58-7.09.96-9.66.21-1.4.81-2.83,1.08-4.12.51-2.4,1.05-1.73-.28-3.95-2.07-3.42-4.3-6.36-7.98-8-2.02-.9-4.64.03-6.35,1.08-.65.4-1.02.53-1.56,1.02-1.5,1.38-3.89,2.92-5.48,5.28-.39.57-.67.92-1.12,1.5-.21.27-.38.51-.54.75-.8,1.21-1.91,2.88-2.46,4.2-.75,1.81-1.71,3.84-2.24,5.72-.55,1.97-.64,6.96-.97,7.27-.66.34-2.05.2-2.92.14-.27-1.41-.05-2.91.2-4.16.13-.67.12-1.29.22-2.06.2-1.52,1.2-3.81,1.59-5.27.72-2.7,3.2-6.71,4.83-8.89.33-.44.63-.64,1.03-1.18.36-.49.68-.9,1.08-1.35.33-.37.64-.8,1.04-1.19.33-.32.85-.88,1.2-1.22.16-.15.49-.38.63-.48l.63-.49c.43-.34.71-.61,1.22-1,1.79-1.37,3.82-2.35,6.11-2.97,3.02-.82,6.3.66,8.57,2.47,1.94,1.55,3.59,3.36,4.95,5.44.06.09.2.29.24.34l.42.39c.75-.56.97-1.73,1.4-2.59.38-.76.93-1.61,1.47-2.59,2.72-4.88,3.86-5.71,7.04-9.32,1.2-1.36,3.03-2.62,4.57-3.6-.11-.93-1.21-3.96-1.82-4.28-1.04-.54-2.62.2-2.84,1.18-.23,1.03.21.77-.34,1.57-1.01-.39-1.37-1.44-1.34-2.56l1.39-.75c1.61-.43,1.88-.26,3.35-2.69.76-1.27.8-1.41,2.38-1.77.77-.18,3.41,0,3.86-.43.88-.85-1.12-1.76-1.71-1.89-4.65-1.09-6.04,4.12-8.21,4.32-.14-3.13.3-4.16,2.94-5.14,1.42-.52,3.59-.82,5.06-.28,2.15.78,4.6,3.06,6.15,1.68,1.48-1.32,2.6-4.75,1.93-6.77-.98-2.97-1.39-3.52-2.97-6.14-1.59-2.64-6.41-5.93-8.37-9.67-.31-.59-.48-.94-.79-1.45l-1.51-3.14c-.25-.56-.17-1.34-.16-2.11,0-1.77.93-5.79-2-4.45-4.18,1.91-.43,5.32-1.5,9.05-.19.66-1.04,2.4-1.51,3.15-.24.39-.16.31-.44.68-1.14,1.52-2.08,1.75-4,1.66-.92-.04-1.27-.26-1.87-.59-.91-.49-1.84-1.28-2.51-1.97-1.67-1.71-1.51-2.26-3.79-3.04-1-.34-.74-.07-1.57-.69-1.25-.94-.99-1.59-2.88-1.69-.55-.03-.53,0-1.02-.16-1.2-.37-2.34-.14-3.39-1.1l-1.69-1.84c-1.85-2.29-1.19-4.06-2.1-4.6-1.09-.63-2.31,1.2-5.36-.98-1.37-.98-.93-2.01-1.77-2.86-.65-.66-1.91-1.08-2.72-1.56l-.44-.3c-.3-.26-.2-.08-.42-.45.42-.81.48-.97,1.27-1.44.66-.4,1.23-.48,1.5-1.16-.3-.65-1.06-.86-1.65-1.17.05-.79.58-1.5,1.2-2,.14-.11.66-.46.77-.52,1.16-.66,2.31-.8,3.89-.84,2.85-.07,6,.2,5.73,3.77-1.3-.14-2.22-2.26-3.43-2.85-1.27-.62-3.79.82-5.33.96-.33,2,3.71,1.57,4.41,2.02.45.29,1.04,1.28,1.58,1.76.86.78,1.44.66,1.11,2.38-1.95.12-2.98-3.59-6.34-2.38-3.89,1.4-.96,1.4-.02,2.46.59.67.75,1.25,1.63,1.9,2.56,1.89,4.26.35,5.82.49.2,2.05.29,4.21,1.46,5.82.36.49.77,1.07,1.38,1.19.73-.82-.05-1.09.37-1.82.82.47,1.36,2.26,2.23,2.99.86-.43,1.84-1.48,2.6-.04.71,1.35.93,1.21,1.86,2.35,2.37.17,2.2-.38,3.66,1.08l3.7,3.37c1.39,1.28,3.97.29,5-.92,1.61-1.89-.02-5.82.75-8.33.39-1.27,1.82-2.56,2.89-3.25l.21-.14c.31-.16-.21-.06.53-.18l1.62.17.13.06.13.07c.32.16.84-.27,1.14-.49.98-.73,1.61-1.73,2.23-2.77.62-1.03.64-1.21.28-2.33-.3-.96-.78-1.49-.8-2.59l.88-.53c.46-.13.54,0,.96-.22-.2-1.55-2.08-1.74-2.56-3.1-.62-1.74-.45-2.31-2.19-3.59-3.05-2.25-8.54-2.47-10.6.94-2.04,3.37-1.41,6.04-.79,9.84.34,2.1,1.23,5.83,1.03,8.07-1.65.82-1.7,1.67-5.42.48-2.48-.79-4.41-2.19-6.19-3.86l-3.26-3.42c-.7-.8-.89-1.18-1.33-2,.77-2.11,1.55-1.38,1.54-3.9-.01-1.62-.07-3.22-.76-4.69-1.29-2.72-4.34-.92-4.59-.83-.24.08-.33.07-.59.17-.58.21-.14.08-.5.24-.68.31-1.54.25-2.44.18-.51-2.44,4-3.9,7.58-2.35,1.65.71,4.13,2.4,4.05,4.49-.07,2.06-1.89,4.43-.44,7.32,1.16,2.31,3.23,4.68,5.34,6.18,1.41,1,2.53,1.45,4.76,1.17.66-.71,1.35-1.51,1.01-2.9-.05-.19-.44-1.26-.54-1.48-1.38-2.99-1.74-4.66-1.62-8.61.12-4.43,2.24-6.94,6.5-7.82.66-.14.99-.41,1.45-.61-.07-1.25-1.22-2.02-2.15-2.87-.73-.66-1.89-1.96-2.37-2.66-.32-.47-.75-1.02-.97-1.43-.6-1.14-2.13-4.04-2.47-5.16-.88.14-1.71.7-2.6.98-2.79.91-1.45.59-3.99-.34-2-.73-3.68,1.04-5.84.24l-1.73-.52c-.42-.14-.13-.13-.74-.34-.36-.12-.56-.11-.93-.21-3.08-.86-1.47-.23-3.43.12-1.22.21-2.52.86-3.72.78-.63-.04-1.12-.36-1.86,0-1.84.88-3.44,2.08-4.67-.76-.32-.74-.33-1.29-1.11-1.66-2.16,1.5-1.19,1.65-5.01-.57-.61-.35-1.19-.68-1.81-.99-.62-.31-1.37-.55-1.79-1.05.25-.82.93-1.81,1.4-2.55.66-1.02.91-1.4.76-3.02-2.02-1.83-2.25.23-3.56-.56-.91-.98,1.96-4.02,2.99-4.46.49-.22.44-.16.98-.33l2.9-1.15c1.19-.62,3.55-3.28,4.62-3.38,1.5-.14,3.67,2.86,4.18,4,.72,1.61-.6,3.03,3.27,5.11.59.32.75.41,1.66.39,1.28-.02.89-.12,1.6-.42.54-.22,1.06-.15,1.73-.26.61-.1.98-.37,1.56-.46l5.04-1.19c.66-.18,1.2-.32,1.45-.87l-2.05-.19c-.2-1.98,1.5-1.36,2.43-1.17,3.75.75,4.82-2.54,7.61-3.23,2.27-.56,2.31,1.73,4.58-.79.71-.79.44-.48.78-1.46l3.13-5.61c.41-.57.55-.54.96-1.15,1.55-.14,2.03-.12,2.92.67-.43,1.37-2.21,3.05-3.23,4.1-2.27,2.33-1.71,1.81-3.23,4.22-.59.95-2.67,1.46-3.9,1.68-1.09.2-.49.24-1.35.48-1.3.36-1.33.52-2.46,1.3-2.39,1.66-1.64,1.47-4.87,2.75l-5.4,2.05c-1.06.39-2.41.61-3.23,1.02l-.98.32c-.68.17-.74.31-1.36.46-2.91.69-4.03-.29-6.22-1.84l-1.79-1.15c-.2-1.23-.65-3.44-1.29-4.52-.34-.58-1.04-.89-1.6-1.17-.72-.36-1.73-.33-2.61-.13-.65,1.54-.06,1.56,1.02,2.47,2.19,1.87.64,2.55,3.21,4.96.55.52,1.79,1,1.78,1.91,0,.8.04.14-.11.46-1.39.67-2.37-1.07-3.01-1.96-1.06-1.47-3.18-7.12-6.96-4.3-1.74,1.3-1.78,2.52.8,2.49,1.24-.02,1.54.31,2.24.9.78.66,2.85,2.61,3.07,3.61-1.91-.22-2.84-2.44-5.4-1.63-.84.26-1.42.97-1.36,2.11.17,3.35,5.54,3.19,8.1,2.71.62-.12.42-.22,1.34-.3.59-.06,1.24-.05,1.72-.15.97-.2,1.63-.97,2.84-.31-.23.58-1.5,1.24-2.03,1.68-.4.32-.51.34-.64.84,1.79,1.73,2.3-.87,3.88-1.07,1.42-.18,1.54.2,2.77-.43,2.44-1.25,2.3-.63,4.36.7.5.32-.1.26,1.03.34,1.36.09,3.57.02,4.96-.04l1.03-1.16c.16-.19.19-.25.31-.42,2.8-.24,2.23,2.42,5.78-3.91,1.29-2.29,2.71-2.19,5.62-2.39.6-.91.45-.73.66-2.1,1.84-1.06,1.23-1.73,1.22-3.83,0-1.28.12-2.28.71-3.14.56-.8.07-.41.83-.66.04,1.15-.1,2.32-.05,3.45.04,1.09.21.98.59,1.71.02.04-.06.3.48.61,1.11-.31,1.05-1.74,1.37-2.69.08-.25.41-1.16.49-1.34.03-.06.29-.46.35-.54.55-.58-.24-.27.86-.48-.13,2.78-1.59,6.2,0,8.55.9,1.33,2.5,2.89,2.71,4.56.12,1.03-.35,1.43.45,1.94.04.01.12-.04.14,0,.16.36.13.02.25-.01.47-.15.77-.61,1.04-.98,1.52-2.17,1.84-3.09.25-5.34-.77-1.08-1.51-1.89-2.38-2.82-1.94-2.08-.38-3.92,1.56-7.24,1.08-1.85.34-2.45-.23-4.13-.82-2.4.96-4.28,1.99-6.39.38-.76.04-.61.63-.86.67,1.15.05,8.76.23,10.78.05.62.4,1.47.75,1.99.55.82.46,1,1.13,1.65.76.73.66.54,1.21,1.6.29.56.6,1.23.95,1.78,1.24.1,2.18-.9,2.39-2.07.16-.93-.9-2.69-1.24-3.32-1.24-2.28-2.16-4.42-.54-7.16.62-1.05,1.27-1.75,1.71-2.93.68-1.82.25-2.44-.09-4.03-.18-.83-.06-1.11-.33-1.88-.72-2.06.8-4-.11-5.43-.29-.46-.04.31-.32-.45,1.13-1.31,2.54-7.11-.56-7.56-.77-.11-.79.06-1.38-.33-.51-.34-.62-.5-.6-1.2,2.46-.45,3.44.23,4.55,2.27.32.58.71,1.99.63,2.9-.14,1.67-2.42,4.92.29,8.44.86,1.12,1.57,2.51,2.74,3.39.48.35-.34.21.68.28.91-.57.98-2.11.31-3.13-1.81-2.75-4.32-.71-2.29-9.11,1.66-6.9-5.24-7.04-6.62-8.34-.66-.63-.46-.96-.38-2,2.84-.11,6.73,1.12,7.18-2.7.34-2.98.16-3.94-2.73-3.27-2.05.48-1.84.94-2.43-.74-.09-.25-.34-.8-.45-1.05-.41-.88-.77-1.08-.27-1.89.3-.48-.15-.19.66-.62.68-.37.72-.31,1.52-.28.28.6.17,1.83.5,2.44l.26.1c1.04.21,2.42-.06,3.46.26.42.13.89.44,1.23.84.79.9.96,2.28.76,3.42-.35,2.04-2.17,3.1-2.47,3.95.66,1.25,3.31.21,4.51,1.55,1.23,1.38,1.75,2.1,1.75,4.57,0,1.51-.45,4.79.31,5.81,1.05,1.42,1.96,2.36,1.88,4.42-.98.62-2.24,1.16-2.84,2.15-.92,1.52.34,1.02-1.49,3.51-2.53,3.46-1.53,2.33-1.32,5.29.08,1.12.36,1.37.39,2.23.03.97-.87,2.88-1.19,3.91-.3.96-.07.84.18,1.8l.69,1.89c.36,1.25,1,2.38,1.41,3.65.39,1.23-.19,3.29-1.38,3.32-1.36-2.59.36-3.46-.95-5.84-.44-.8-.69-1.52-1.16-2.37-1.61-2.93.82-1.41.84-8.8,0-1.81-.86-2.35-1.95-3.47-.4-.41-.09-.29-.55-.37-1.72-.31-.21,2.84-1.24,5.69l-.7,2.49c-.26.95-.82,1.23-.56,2.47.4,1.86,2.54,4.19,3.91,5.41.4.36,1.4,2.31.27,2.34-.86.02-2.08-.95-4.04,1.62-.5.65-1.57,2.77-2.59,2.46-.82-.25-.29-1.56-.76-2.65-.17-.4-.23-.74-.44-1.24-.5-1.21-1.25-1.97-2.18-2.84-1.18-1.1-2.11-1.75-3.63-.71-.43,2.64.65,3.35,1.95,4.61,1.06,1.03.68.8,1.02,2.36.15.69.33,2.26.68,2.8,1.21.06.21,0,1.11-.4l1.02,1.25.09.1c.82.92,2.93,3.6,4.11,3.36.47-.1.7-.58.87-.98.47-1.15.61-2.48,1.16-3.5.33-.62.62-2.43.95-3.14.61.08.61.31.86.81,1.16,2.41.39,2.88-.64,4.97-.32.64-.43.58-.13,1.33.23.56.36.27.42,1.24.25,3.76-2.23.69-3.67,1.87-.66.79-.39,1.08-.01,1.86l2.31,6.04c1.26,2.77,2.17,5.3,3.81,7.77,1.4,2.12,2.27,4.45,3.82,6.56,1.67,2.26,4.71,8.16,7.31,9.17,1.34.53,3.23.23,4.2-.7,1.19-1.13,1.39-2.54,1.45-4.15.03-.96-.04-1.84-.08-2.8-.08-1.77-.25-.93-.57-2.16-.47-1.87-1.48-4.2-2.3-6.05l-1.82-3.74c-.74-1.51-2.66-6.71-2.7-8.29-.11-3.9.18-2.52.56-5.03.27-1.77.93-3.57,1.71-5.22l1.42-2.81c.81-1.4,1.5-3.18,2.4-4.45,1.72-2.43,2.97-5.76,4.21-8.48l2.02-6.26c.35-1.57.1-3.88.04-5.5-.03-.91-.24-.8-.43-1.49-.46-1.66-.64-3.01-1.89-4.42-1.89-2.15-7.07-2.48-6.57,1.67.34,2.8,1.54,3.35,1.11,7.14-.41,3.5-2.13,4.12-1.69,6.61.17.69-.11-.38.32.55l1.15,2.71c.32.89.05,1.58-.17,2.2l-.6,1.43c-1,1.61-2.83,3.14-4.24,4.51-.85.83-2.04,2.56-3.02.28-.32-.74.08-1.54.21-2.43.14-.96.14-1.84-.19-2.6l-1.17-1.84c-.79-1.02-1.84-2.13-2.44-3.33-1.66-3.31.68-5.38,2.9-7.73,1.49-1.57,1.52-1.59,1.53-4.17.01-2.47,0-4.5.72-6.58.13-.38.25-.52.47-1,.48-1.05.96-1.71,1.8-2.48l.19-.18c2.29-2.05,7.33-2.81,10.1-1.81.51.18.61.26.98.46,1.74.94,2.75,1.69,3.92,3.52,1.8,2.8,1.18,2.14,2.2,5.09.32.93.89,2.3,1,3.37.18,1.68.26,4.09-.24,5.5-.3.85-.2,1.69-.49,2.46l-.72,2.26c.66.56.3.77,1.67.73,1.09-.04,1.27-.18,2.43.06.52.82.6,1.68.29,2.59-.3.85-.91,1.31-1.55,1.69l-2.92,1.71c-.74.37-.61-.05-.63,1,.82,0,3.53-.86,4.26-.18,1.17,1.73-.6,3.77-1.56,4.59l-2.46,1.64-.23.13-.13.06c-.57.3-.74.22-.77.94.28.14.41.13.85.23.25.06.21.01.46.1,2.35.83-1.34,4.15-1.98,4.7-.63.55-1.37,1.14-2.09,1.62-.95.63-1.78.84-1.89,2.06,1.87-.11.84-1.25,3.1-1.01.82,1.12.55,1.81-.03,3.11l-1.83,4.5c-.21.45-.62,1.09-.73,1.42l-1.04,3.3c-.23,1.05.7,4.02,1.03,5.12.18.59.32.9.52,1.68.43,1.63,1.25,3.08,1.59,4.7l.51,1.71c.47,1.71.01,6.48-.62,7.7-.99,1.91-2.09,3.28-3.78,4.75-1.27,1.11-4.38,2.01-6.73,1.65-.99-.15-2.31-.5-3.33-.92-1.16-.46-1.77-1.41-3.21-1.17-.48.84-.69,2.15-1.14,3.09-.84,1.72-3.19,3.36-3.53,5.05-.48,2.43.04,3.59,1.03,5.51l5.53,7.43Zm-32.15-35.09c.43.57.69,1.07.86,1.68.09.46.8,1.68.99,2.11.29.99.57.94.53,2.08-.99-.13-.86-.52-1.34-1.35-.51-.88-.12-1.09-.84-1.74l-.05-.68-.17-.44c-.93-.39-.3-.43-.87-1.33-.3-.47-.43-.79-.45-1.38,1.06.13.77.3,1.33,1.05h0Zm2.59-4.21c1.01.15,1.48.99,2.18,1.64,1.11,1.05,2.74,3.11,3.5,4.49.43.78.37.46.39,1.62.02.79.07,1.27-.16,1.88-.56-.25-1.41-2.48-2.22-3.59-.4-.55-.45-.74-.77-1.25l-2.28-3.49c-.44-.51-.64-.51-.65-1.3h0Zm10.69-54.24c-2.85-.24-6.15-1.05-6.91,2.25-.88,3.81-2.7,2.84-6.03,3.5-3.08.6-4.31,1.33-5.39,4.23-.35.94-.24,1.63-.66,2.53-.94,1.98.02,2.72-2.44,3.86l-3.34,1.27-.13.06-2.82,1.67-.11.07-1.86,1.23c-.34-.16-.78-.67-1.07-.89-.42-.32-.79-.55-1.34-.72-1.03-.3-2.07-.54-2.76-1.12.07-.9.44-.61.41-2.04l-1.16-.79c-1.13-.68-.77-1.88-2.75-2.25-.17-1.25-.73-2.42-1.37-3.11-1.46.58-1.05,2.65-3.09,1.14-.33-2.66.75-3.39.06-4.38-.25-.35-1.23-1.1-.56-1.8.51-.53,1.44-.22,1.89.27.48.52.59,1.04.94,1.66.88,1.57,6.15,5.79,7.25,7.82.3.57.43,1.09.75,1.67,1.98,3.68,3.65,1.06,4.37.41.79-.71.79-.05,1.97-.22.34-.8.37-.58.64-1.22.82-1.9,1.2-.61,1.96.39.61-.2,1.45-.85,1.65-1.51.19-.67-.11-.86-.52-1.08-.3-.17-.18-.07-.46-.25l-.91-.57c-1.85-.95-3.3-2.02-5.29-3.26-.54-.33-1.16-.68-1.82-1.14-2.2-1.53-3.04-1.48-4.41-3.96-1.34-2.39-1.94-3.95-.99-6.71.75-2.2.44-5.82-.28-7.67-.54-1.4-1.65-2.38-3.46-1.65-.73.69.28,2.28-.21,3.06l-.55-.69c-.61-.87-1.53-1.79-2.64-1.95-1.3-.18-1.38.16-2.07.62-.37.24-.68.34-1,.51-.71.39,0,.16-.8.53-1.57-.04-.96-.25-2.18.39-2.2,1.16-3.85-1.68-.99-1.48.92.06,1.31.32,2.06-.28,1.37-1.09,1.67-1.6,3.71-1.47,3.56.23,4.39-2.1,8.32.03,1.06.57,1.85,1.59,2.3,2.7.32.8.72,3.48.6,4.46-.33,2.79-.97,3.32-1.03,3.95-.1.98,1.09,2.81,1.51,3.7.29.61,1.32,2.82,1.8,3.23,1.85,1.59,3.77,3.02,5.9,4.32.55.34,1.13.63,1.69.92,2.29,1.18,3.06-.94,4.55-2.52,1.73-1.83,3.51-3.88,6.33-3.89h.19c1.62,0,3.8.55,4.41-1.49l-5.12-2.81c-1.09-.49-2.42,0-3.54-1.12-.62-.62-.9-1.25-.73-2.38.14-.99.84-1.16,1.69-1.44,2.41-.78,2.78.45,5.43.22.7-2.61-1.26-1.48-2.91-1.46-2.02.01-1.07-1.27-3.63-.08-1.5.69-4.92,3.68-6.42,2.57-1.07-.79-.54-4.86,2.63-4.96,4.24-.14,2.82.4,4.85.57.94.08,6.12,1.96,6.18-.82-.17-.13-.12-.11-.38-.24-1.05-.53-2.19-.55-3.38-.55-2.42,0-3.78.26-5.17-1.1-1.59-1.55-2.47-4.79-3.09-6.2-1.05-2.4.39-4.88,2.82-5.64,1.62-.51,3.95-.35,5.59-.8,1.19-.32,2.12-2.16,3.09-3.04,1.22-1.12,2.85-1.18,4.49-1.61.93-.24,4.79-.59,5.62-.15-.14.47,0,.21-.42.49-1.26.83-3.14.89-4.62,1.35-1.45.46-2.74.25-4.7,1.94-1.97,1.7-1.9,1.72-4.38,2.35l-2.5.8c-.64.28-.56.19-1.27.38-.21.05-.49.14-.67.26-.35.23-.2.03-.42.42.27.63.92,1.05,1.45,1.39,2.57,1.66,2.32,3.07.87,2.98-.72-.05-1.68-1.12-1.91-.33l.17,1.8c.09.23.62,1.08.85,1.34l2.83,1.89c1,.29,2.24-.62,4.14-.25,1.31.26,2.91,1.52,3.6,2.65.26.43.38,1.69.32,2.65-.11,1.87-2.08,3.64-3.99,2.92-1.75-.66-3.35-1.74-4.88-.15.69,1.06,2.54,1.57,3.71,2.04.87.34.25.24,1.25.58,1.05.36,1.64.28,2.77-.26l1.95-.84c1.17-.45,2.96-.69,3.64-1.02,1.35-.63,2.89-3.36,2.11-5-.26-.54-1.88-2.81-.13-2.68.68.06,1.15.27,1.57.67,1.68,1.58,1.03,3.74-.21,5.38l-.09.1c-.41.54-.41.57-.32,1.32,1.43.58,2.98-.89,3.12-.68.42.77-1.74,1.35-1.81,2.95-.25.89-.35,1.61,0,2.49.85,2.16.88,2.02.94,4.73-.91-.14-.96-.28-1.41-1.07-1.05-1.86-.59-2.97-1.37-4.93h0Zm-7.82-17.48l-5.16-2.27c-.52-.12-.66-.07-1.02-.28.17-.4.71-.52,1.18-.69,2.3-.85,1.87-1.06,2.93-1.73.51-.32-.24-.13.6-.25,0,1.1-.44.74-.28,2.16,2.55.21,3.85-1.7,6.25-.5,1.4.7,1.81.23,2.7-.51.88-.74,1.5-1.47,2.18-1.57-.09.69-.95,1.99-1.36,2.74-.57,1.01-.73,1.89-1.13,2.96-1.38,0-1.41-.39-2.35-.58-1.18.27-1.53,1.24-2.6,1.59-.62-.18-.32-.18-.94-.53-.42-.23-.62-.34-.97-.52h0Zm12.19-3.2l-1.02-.24c.14-.95,1.24-1.5,2.16-1.48.48.51.74.63.37,1.31-.3.54-.76.46-1.51.4h0Zm-55.45,21.01c-3.55-2.18-2.82-.13-5.38-.56-.1-1.09-.23-2.03.51-2.66,1.5-1.26,2.49-1.55,3.86-2.45,1.37-.89,2.71-1.62,4.39-1.94,2.69-.52,5.93,2.33,5.93,3.31v2.63c-1.59-.07-1.55-2.1-2.02-2.69-.35-.43-2.39-1.57-2.83-1.66-1.04-.21-1.34.04-2,.45l-2.76,1.71c-1.3.66-1.05.64-1.21,1.04,1.03,1.26,2.03.37,3.18.23.45.37.81,1.12,1.1,1.71l3.18-.04c1.53,1.71.63,3.09.54,4.06-.13,1.41-.26,3.36-2.04,3.15-1.05-2.73.97-3.03.9-4.8-2.14-1.09-3.06-.07-5.35-1.49h0Zm22.4,13.18c-.19.83-.4.88-.69,1.12-.1.68.08.2-.27.46-.14-.19-.15-.09-.25-.46l-.05-.37c-.08-1,.2-1.43.38-1.93l.1-.47.94-.02c0,.56-.05,1.13-.18,1.67h0Zm26.31-12.26c.06.71-.22,1.31-.88,1.57-.47-.55-.45-.71-.25-1.55l1.13-.02Zm-4.53-14.68c-1.17.06-1.98-.47-2.21-1.62,1.16.23,2.12.59,2.21,1.62h0Zm-9.08,28.42c-.84.62-.68,1.27-1.89,1.26l.81-2.56s.1-.37.13-.42c.2-.43.08-.19.31-.45l.19.33c.51,1.08.52,1.03.45,1.84h0Zm-10.43-.93c.02.3-.07.4-.15.66-1.02.05-1.39-1.21-.09-1.33.14.24.19-.18.25.67h0Zm27.7-40.41c-.05,1.11-.38,1.45-1.3.93.2-.71.46-.94,1.3-.93h0Zm-39.59,23.69c-.09,1.15-.06,1.6-.68,2.1-.64-.24-.94-.76-1.1-1.57-.11-.57-.27-1.7-.25-2.21.02-.89.2-1.39.19-2.41,0-.73-.19-1.71.23-2.31.54.32,1.87,3.23,1.94,3.8.11.84-.25,1.7-.33,2.6h0Z"/>
      <path class="cls-8" d="m198.42,196.11c1.25-1.17,1.61-2.02,2.6-3.38l2.25-3.63c.14-.74.15-5.18-.05-5.82l-3.61-8.25c-.18-.36-.29-.66-.48-1.02l-1.56-2.86c-1.18-2.69-3.05-5.29-4.41-8.99l-.83-2.15c-.58-1.29-.68-2.54-.89-3.56-.08-.36-.69-1.68-.95-2.05-.39-.57-.83-1.09-1.36-1.61-.8-.78-1.75-2.57-4.06.78-.69,1,.02,3.09-.57,3.87-.56.62-2.66.2-2.64-2.51.01-2.37,1.25-2.99.26-4.45-.56-.82-4.76-4.87-5.72-5.07-1.16.96-.75,1.62-2.89,1.97-1.55.25-2.26.51-3.04,1.61-1.8,2.54-.2,4.62.77,6.99.44,1.08.96,2.27,1.57,3.27.53.86,1.31,1.81,1.95,2.69.7.97,1.48,1.66,2.2,2.44,1.09,1.18,2.23,2.42,3.73,3.35l.44.28.11.08.11.07.89.42c2.67,1.1,3.54,1.95,5.08,4.21,1.65,2.42,1.52,3.17,1.93,5.14.21,1.01,1.27.71-.23,3.54-.56,1.06-2.17,2.99-2.9,3.97-.87,1.16-1.06,1.57-1.44,3.21-.5,2.23-1.6,1.66-.11,5.33l.7,1.53c.3.58.13.15.53.73.14.2.3.54.41.74l4.98,6.7c.35.44.78.78,1.15,1.26,1.29,1.66,3.59,5.29,4.43,7.09l.65,1.2c.51.86.03.25.41,1.44.15.49.23.38.34.73.19.6.28,4.79-.05,5.65-.13.34-.09.18-.18.35-.36.73-.52,1.03-1.2,1.58-4.24,3.44-8.43.08-11.34,2.23-.83.61-1.33,1.86-.81,3.06.44,1.05.93,2,1.48,3.06,1.19.2,1.45-.9,1.5-1.92.1-1.67.01-1.55,1.32-2.21,1.1-.55,3.66-1.51,4.95-.92.45.21.19-.08.41.34-.5.69-1.46-.09-3.6,1.62-1.55,1.24-.99,1.82-.89,3.97l2.26.23,1.71-.95c1.41-.92.92-1.66,1.27-2.47.03-.08.44-.64.45-.65,1.79-1.92,2.38.12,3.82.05l.67-1.48c1-2.3,1.87-4.04,2.14-6.84.11-1.07-.13-1.03.39-1.8,1.18-1.76.4-1.89.74-3.78l2.12-.07c.82-1.91-.29-2.87-2.04-3.31-3.07-.77-6.74-7.27-6.75-11.08,0-1.74.16-2.34,1.91-3.98h0Z"/>
      <path class="cls-8" d="m211.59,157.35c0,2.14.64,4.41,1.21,6.19.15.47.07.54.26,1.04.11.28.13.25.18.36.59,1.37.92,2.88,1.55,4.21l2.86,6.93c.37,1.07.78,3.07.76,4.32-.02.8-.43,3.8-.68,4.38-.99,2.33-3.05,4.54-6.19,3.79-1.75-.41-2.55-1.24-3.76-2.39-.84-.79-1-1.46-2.16-.9-.14,2,2.41,4.27,4.08,4.89,2.24.84,5.63.68,7.43-.82l1.38-1.39.35-.57c1.14-2.1,1.65-6.77,1.15-9.36-.19-.98-.34-.87-.45-2.1l-1.16-4.26c-1.34-3.81-2.72-4.85-.89-7.95.66-1.11,1.29-2.38,2-3.38l1.64-2.26c1.2-1.65-.93-2.33-2.04-.75l-1.8,2.31c-.58.61-.5,1.07-1.61.94-.48-3.18,1.77-5.09,3.54-7.01.85-.92,1.79-1.68,2.78-2.61.48-.45.88-.89,1.37-1.22.97-.64,1.28-.24,1.25-1.48-1.99-1.14-3.23.92-5.71,2.4-.82.49-1,.91-2.06.94-.23-1.72.62-2.33,1.53-3.33,1.71-1.88,3.79-3.01,5.82-4.23l3.15-1.85c.21-1.36.19-1.43-1.18-1.41-1.68.02-2.86.8-4.21,1.6-.69.41-1.15.75-2.25.59.04-1.01.85-2.12,1.52-2.8,1.83-1.88,4.22-3.24,6.27-4.89.68-.55,1.01-.52.86-1.51-1.37-.54-1.55-.27-2.51.43-.47.34-1.82,1.24-2.29.87-.79-.61.9-3.01,1.06-5.22.07-.92.21-1.07.36-1.87.25-1.36.21-2.77.2-4.26-.01-1.84-.61-6.04-1.5-7.59-1.37-2.41-3.23-4.37-5.64-5.7-.71-.39-.82-.52-1.94-.52-3.84,0-5.61,1.41-6.93,3.89-.72,1.35-1.47,5.45-.78,7.23.92,2.39,2.22,2.15-.4,5.75-.51.71-1.31,1.67-1.4,2.51-.15,1.4.18,2.16.83,3.3.59,1,.8.96,1.21,1.57.59.86.56,3.35,1.7,3.86.32-.5.23-1.5.22-2.22-.02-1.51-.56-2.51-1.16-3.71-1.1-2.19-.43-2.1.93-4.25,2.19-3.43,2.19-4.58.94-8.44-.67-2.06-.95-2.67-.33-4.99.2-.78-.04-.38.33-.93,1.02-1.49,3.6-2.46,5.3-1.74,1.22.52,1.85,1.09,2.76,2.07,1.32,1.41,2.34,2.56,2.95,4.45.66,2.05,1.21,4.07,1.22,6.39.03,3.93.08,4.91-1.52,8.5l-7.5,14.78c-.18.33-.27.52-.46.84l-.21.35-.94,2.19c-.64,2.04-1.36,3.59-1.36,6.05h0Z"/>
      <path class="cls-8" d="m202.81,131.11c.3,1.66,3.23,4.88,4.49,7.06.28.48.21.57.97.51.59-2.93-3.63-6.38-3.6-7.88.04-1.7,2.32-4.18,3.25-5.47.6-.82.38-1.71-.03-2.43-.92.17-1.14,1.04-2.42,2.58-.67.8-2.92,4.16-2.66,5.63h0Z"/>
      <path class="cls-8" d="m200.46,115.62c1.57.21,2.71,1.96,3.93.48-.1-.87-1.11-1.15-2.11-2.65-1.6-2.42-.93-2.09-1.28-6.09-.11-1.29-.4-1.15-.52-2.05-.28-2.11-.49-2.43-2.85-2.15-.03.9-.06.39.27.92.39.64.94,1.89.93,2.92,0,2.36-1.27,7.99-.28,9.63.39.65.56.82.98,1.65.34.67.44,1.15,1.02,1.51.65-.16,1.99-1.34.48-2.85-.63-.63-.52-.35-.58-1.31h0Z"/>
      <path class="cls-3" d="m174.38,158.97c-.17-.68-.19-1.64.36-2.12.44-.39-.11-.06.62-.32-.06.54-.16,1.19-.26,1.73-.11.58-.09.67-.72.71h0Z"/>
      <path class="cls-3" d="m179.98,161.38l-.67.06c-.29.43-.5.5-.55,1.16,1.26.07,1.08-.09,1.22-1.21h0Z"/>
      <path class="cls-3" d="m172.59,151.17c.21-.51-.03-.09.3-.44.53-.56.19-.23.48-.35l.04-.26c.21-.13.55.07.29-1.05-1.63-.57-2.4.54-2.4,1.8,0,.98.05.84.71.92l.58-.62Z"/>
    </g>
  </g>
</svg>