<?xml version="1.0" encoding="UTF-8"?>
<svg id="Layer_2" data-name="Layer 2" xmlns="http://www.w3.org/2000/svg" viewBox="0 0 256.68 282.65">
  <defs>
    <style>
      .cls-1, .cls-2, .cls-3 {
        stroke-width: 0px;
      }

      .cls-2 {
        fill: #fff;
      }

      .cls-3 {
        fill: #ff0003;
      }
    </style>
  </defs>
  <g id="Ebene_1" data-name="Ebene 1">
    <path id="path550" class="cls-2" d="m192.22,54.04c-1.49,28.76-18.26,51.2-37.15,50.13s-32.88-25.25-31.26-54C125.44,21.42,140.54-1.08,160.96.04c23.18,1.27,32.88,22.49,31.26,54Z"/>
    <circle id="path496" class="cls-2" cx="128.34" cy="154.31" r="128.34"/>
    <g id="g38">
      <path id="path4" class="cls-3" d="m160.3,123.36c18.4-19.86,25.32-51.12,25.32-51.12,0,0,7.01-22.69.78-45.96-6.33-23.27-24.15-22.88-24.15-22.88-12.56-.68-20.16,6.23-24.44,12.17-3.41,4.67-4.67,8.28-4.67,8.28l-21.62,55.31c-5.94-1.95-14.7-.39-14.7-.39,0,0-20.93,3.7-22.98,23.56s17.72,28.53,17.72,28.53c0,0-15.97,42.06-17.92,46.25-1.85,4.19,1.95,5.65,1.95,5.65,0,0,3.7,1.66,7.98,3.12,4.28,1.46,5.45-2.04,5.45-2.04l18.31-47.22c25.8,6.43,39.82-2.92,39.82-2.92,12.76,21.52,22.2,45.96,24.05,49.95,1.75,3.99,5.36,2.34,5.36,2.34,0,0,4.19-1.56,8.28-3.21s1.75-6.04,1.75-6.04c-12.17-30.57-26.29-53.36-26.29-53.36Zm-62.61-8.28c-8.96-5.65-6.91-13.34-6.91-13.34,0,0,1.66-8.08,14.51-6.72l-7.59,20.06Zm15.68,6.04l7.5-19.38c10.61,5.26,17.23,17.72,17.23,17.72-15.38,5.55-24.73,1.66-24.73,1.66Zm37.29-12.37s-10.13-15.48-23.66-23.08l20.74-53.26s4.28-13.63,12.46-12.85c8.28.78,10.52,13.83,10.52,13.83,0,0,3.51,14.02-.88,33.01s-14.51,37.88-19.18,42.36h0Z"/>
      <path id="path6" class="cls-3" d="m194.38,47.61c0,2.43-.19,5.06-.29,7.01,32.23,21.32,53.46,57.84,53.46,99.32,0,65.72-53.26,118.99-118.99,118.99S9.48,219.76,9.48,154.04,58.45,39.43,120.48,35.34l2.24-6.23C56.31,32.13,3.44,86.85,3.44,154.04s55.99,125.02,125.02,125.02,125.12-55.99,125.12-125.02c0-44.98-23.66-84.32-59.2-106.42h0Z"/>
      <polygon id="polygon8" class="cls-1" points="62.45 228.82 63.42 228.82 67.71 228.82 73.74 228.82 73.74 224.34 67.71 224.34 67.71 202.53 62.45 202.53 62.45 228.82"/>
      <rect id="rect10" class="cls-1" x="75.79" y="223.75" width="5.06" height="5.06"/>
      <rect id="rect12" class="cls-1" x="98.57" y="223.75" width="5.06" height="5.06"/>
      <rect id="rect14" class="cls-1" x="120.87" y="202.53" width="4.97" height="26.29"/>
      <polygon id="polygon16" class="cls-1" points="118.92 202.53 114.73 202.53 112.49 219.18 110.26 202.53 105.48 202.53 109.38 228.82 114.83 228.82 118.92 202.53"/>
      <polygon id="polygon18" class="cls-1" points="161.76 202.53 157.67 202.53 157.67 228.82 161.76 228.82 161.76 213.33 166.73 228.82 170.72 228.82 170.72 202.53 166.73 202.53 166.73 214.79 162.25 202.53 161.76 202.53"/>
      <polygon id="polygon20" class="cls-1" points="172.57 225.6 172.57 228.82 183.77 228.82 183.77 224.43 178.12 224.43 184.06 205.54 184.06 202.53 173.06 202.53 173.06 207.2 178.41 207.2 172.57 225.6"/>
      <path id="path22" class="cls-1" d="m193.99,228.82h4.48l-3.02-26.29h-7.21l-3.6,26.29h3.89l.88-5.74h3.8l.78,5.74Zm-3.8-10.03l1.56-10.03,1.17,10.03h-2.73Z"/>
      <polygon id="polygon24" class="cls-1" points="153.78 213.24 149.3 213.24 149.3 206.91 155.34 206.91 155.34 202.53 149.3 202.53 146.28 202.53 144.33 202.53 144.33 228.82 147.45 228.82 149.3 228.82 155.63 228.82 155.63 224.43 149.3 224.43 149.3 217.62 153.78 217.62 153.78 213.24"/>
      <path id="path26" class="cls-1" d="m93.99,216.35s3.21-.39,3.12-6.62c-.1-7.11-8.37-7.3-8.37-7.3h-4.97v26.29h4.97v-10.81h.58l2.53,10.81h5.06l-2.92-12.37Zm-4.48-2.92h-.78v-6.62h.78s2.34-.19,2.34,3.31c-.1,3.51-2.34,3.31-2.34,3.31h0Z"/>
      <path id="path28" class="cls-1" d="m136.74,209.54v2.63h4.67v-3.02s-.39-7.01-6.23-7.01-6.91,7.89-6.91,13.44.78,13.83,6.62,13.83,6.43-6.52,6.43-7.59v-2.92h-4.19v2.43s-.19,3.89-1.85,3.89-1.75-4.67-1.75-9.54.49-9.15,1.56-9.15c1.17,0,1.66,2.14,1.66,3.02h0Z"/>
      <path id="path30" class="cls-1" d="m116.68,252.87v-15.48h-1.66s-2.34,1.75-3.7,2.04v2.24s1.46-.1,1.95-.39v11.59h-2.04v2.73h7.3v-2.73h-1.85Z"/>
      <path id="path32" class="cls-1" d="m139.47,253.06v2.53h8.47v-3.21h-5.06s5.55-6.13,5.55-10.52-3.31-4.77-4.28-4.77-4.28.39-4.28,5.94h3.21s-.1-3.21.97-3.21.97,2.14.97,2.14c0,0-.1,2.63-2.73,6.72l-2.82,4.38Z"/>
      <path id="path34" class="cls-1" d="m134.11,237.19c-4.67,0-4.28,7.79-4.28,7.79v3.8s.19,7.3,4.28,7.3,4.38-7.01,4.38-7.01v-3.99c0-.1.29-7.89-4.38-7.89h0Zm.1,16.07c-.49,0-.88-3.02-.88-6.72s.39-6.72.88-6.72.88,3.02.88,6.72c.1,3.7-.29,6.72-.88,6.72Z"/>
      <path id="path36" class="cls-1" d="m123.89,237.19s-4.28-.49-4.28,6.43,4.28,5.06,4.28,5.06c0,0,.58-.29.78-.49,0,0,0-.1.1-.1.1-.19,0,4.87-1.07,4.87-.97,0-.97-2.24-.97-2.24l-2.82.1s-.19,5.26,3.6,5.26,4.97-5.16,4.97-10.32c-.1-5.16-1.36-8.57-4.58-8.57h0Zm.68,8.67c-1.95,1.07-1.75-2.92-1.75-2.92,0,0,0-3.12.97-3.12,1.17.1.78,6.04.78,6.04Z"/>
    </g>
  </g>
</svg>