<?xml version="1.0" encoding="UTF-8"?>
<svg id="Layer_2" data-name="Layer 2" xmlns="http://www.w3.org/2000/svg" viewBox="0 0 352.25 594.24">
  <defs>
    <style>
      .cls-1 {
        fill: #0c3487;
      }

      .cls-1, .cls-2, .cls-3, .cls-4, .cls-5, .cls-6 {
        stroke-width: 0px;
      }

      .cls-1, .cls-2, .cls-3, .cls-4, .cls-6 {
        fill-rule: evenodd;
      }

      .cls-2 {
        fill: #ffbb13;
      }

      .cls-3 {
        fill: #fff;
      }

      .cls-4 {
        fill: #9e513f;
      }
    </style>
  </defs>
  <g id="Layer_1-2" data-name="Layer 1">
    <g>
      <path class="cls-6" d="m311.74,175.99h-4.88v-26.89h16.93v4.12h-12.05v6.96h10.31v4.12h-10.31v11.7Z"/>
      <path class="cls-6" d="m296.17,152.73c-1.31,0-2.52.22-3.62.66-1.1.44-2.05,1.09-2.84,1.93-.79.84-1.41,1.89-1.85,3.13-.45,1.24-.67,2.66-.67,4.26s.2,2.98.61,4.18c.4,1.2.98,2.2,1.75,3,.75.8,1.68,1.41,2.77,1.82,1.09.41,2.33.61,3.71.61,1,0,2.01-.07,3.03-.23,1.04-.15,2-.38,2.9-.67v4.21c-.92.27-1.9.47-2.96.63-1.06.15-2.16.23-3.29.23-2.22,0-4.17-.32-5.86-.98-1.68-.65-3.09-1.57-4.22-2.76-1.13-1.19-1.99-2.61-2.55-4.26-.57-1.66-.86-3.49-.86-5.48s.3-3.95.91-5.71c.61-1.76,1.48-3.28,2.63-4.56,1.14-1.29,2.57-2.3,4.29-3.04,1.72-.73,3.66-1.11,5.83-1.12,1.11,0,2.16.07,3.16.23.99.16,1.88.37,2.68.65v4.15c-1.04-.32-2.02-.54-2.92-.67-.89-.13-1.78-.19-2.64-.19h0Z"/>
      <path class="cls-6" d="m260.6,155.57c-.92,2.8-1.73,5.15-2.45,7.04l-.87,2.44h6.71l-.87-2.43c-.71-1.9-1.53-4.25-2.45-7.04h-.08Zm4.92,13.59h-9.75l-2.5,6.84h-5.02l10.22-26.89h4.31l10.22,26.89h-4.98l-2.5-6.84Z"/>
      <rect class="cls-5" x="239.35" y="149.1" width="5.17" height="26.89"/>
      <path class="cls-6" d="m223.81,160.18c1.3,0,2.26-.14,2.9-.41.71-.31,1.21-.73,1.52-1.27.31-.54.46-1.16.46-1.84s-.17-1.35-.53-1.9c-.35-.55-.94-.97-1.79-1.23-.35-.11-.76-.19-1.22-.23-.47-.05-1.04-.07-1.73-.07h-3.91v6.96h4.29Zm-4.29,4.12v7.58h3.11c.83,0,1.55-.02,2.15-.07.59-.05,1.11-.12,1.54-.23.66-.14,1.21-.34,1.65-.59.45-.25.8-.53,1.08-.85.27-.31.47-.66.58-1.05.11-.38.17-.79.17-1.21,0-.75-.2-1.41-.6-1.97-.4-.56-1.03-.98-1.89-1.26-.38-.13-.82-.21-1.33-.26-.51-.05-1.16-.08-1.95-.08h-4.52Zm14.07-8.03c0,1.16-.25,2.23-.76,3.2-.5.97-1.34,1.78-2.51,2.42v.09c.65.22,1.24.51,1.78.87.54.36,1,.77,1.39,1.26.4.5.7,1.04.93,1.66.22.62.33,1.3.33,2.07,0,.66-.1,1.37-.3,2.11-.2.75-.55,1.48-1.06,2.18-.51.71-1.19,1.35-2.03,1.94-.84.59-1.91,1.06-3.19,1.41-.33.08-.68.15-1.06.22-.39.07-.81.12-1.29.17-.46.05-.98.08-1.55.1-.58.02-1.21.03-1.93.03h-7.59v-26.89h9.05c1.93,0,3.48.2,4.67.6.88.29,1.65.68,2.29,1.15.65.48,1.19,1.01,1.61,1.59.42.58.73,1.19.93,1.84.2.65.3,1.3.3,1.96h0Z"/>
      <path class="cls-6" d="m197.51,176.49c-1.34,0-2.56-.14-3.64-.41-1.07-.27-2.02-.67-2.84-1.19-.82-.52-1.52-1.14-2.1-1.89-.57-.74-1.03-1.59-1.38-2.52-.28-.75-.49-1.59-.61-2.49-.13-.91-.18-1.93-.18-3.05v-15.84h4.73v15.39c0,1.9.22,3.39.65,4.46.49,1.19,1.2,2.05,2.13,2.58.93.53,2.03.8,3.3.8s2.37-.27,3.3-.8c.93-.53,1.64-1.39,2.13-2.58.43-1.07.65-2.56.65-4.46v-15.39h4.73v15.84c0,1.12-.06,2.14-.18,3.05-.12.91-.32,1.74-.61,2.49-.35.93-.81,1.78-1.4,2.52-.58.74-1.29,1.37-2.13,1.89-.84.52-1.8.91-2.89,1.19-1.09.28-2.31.41-3.66.41h0Z"/>
      <path class="cls-6" d="m168.74,161.46c1.1,0,2.03-.05,2.79-.15.76-.1,1.4-.25,1.92-.45.96-.37,1.63-.89,2.01-1.54.37-.65.56-1.39.56-2.24,0-.72-.15-1.37-.44-1.92-.3-.55-.79-.99-1.49-1.31-.45-.22-1.03-.37-1.72-.47-.69-.1-1.54-.15-2.56-.15h-3.41v8.24h2.36Zm12.2-4.28c0,1.88-.51,3.46-1.52,4.77-1.01,1.3-2.57,2.27-4.7,2.91v.07l7.86,11.06h-5.78l-7.13-10.42h-3.3v10.42h-4.82v-26.89h7.97c1.32,0,2.55.07,3.68.23,1.14.15,2.11.38,2.92.69,1.54.6,2.73,1.5,3.56,2.68.84,1.19,1.25,2.68,1.25,4.47h0Z"/>
      <path class="cls-6" d="m143.79,161.46c1.09,0,2.02-.05,2.79-.15.76-.1,1.4-.25,1.91-.45.96-.37,1.63-.89,2-1.54.37-.65.56-1.39.56-2.24,0-.72-.15-1.37-.44-1.92-.29-.55-.79-.99-1.49-1.31-.45-.22-1.03-.37-1.72-.47-.69-.1-1.54-.15-2.55-.15h-3.41v8.24h2.35Zm12.18-4.28c0,1.88-.51,3.46-1.52,4.77-1.01,1.3-2.57,2.27-4.68,2.91v.07l7.84,11.06h-5.76l-7.12-10.42h-3.29v10.42h-4.81v-26.89h7.95c1.32,0,2.54.07,3.68.23,1.14.15,2.1.38,2.91.69,1.54.6,2.72,1.5,3.56,2.68.83,1.19,1.25,2.68,1.25,4.47h0Z"/>
      <path class="cls-6" d="m120.16,155.57c-.94,2.8-1.77,5.15-2.5,7.04l-.89,2.44h6.87l-.9-2.43c-.73-1.9-1.56-4.25-2.5-7.04h-.08Zm5.03,13.59h-9.97l-2.56,6.84h-5.14l10.46-26.89h4.41l10.45,26.89h-5.1l-2.55-6.84Z"/>
      <path class="cls-6" d="m93.69,149.1v22.77h11.91v4.12h-16.59v-26.89h4.68Z"/>
      <path class="cls-6" d="m72.13,149.1v22.77h11.77v4.12h-16.39v-26.89h4.62Z"/>
      <rect class="cls-5" x="56.23" y="149.1" width="4.83" height="26.89"/>
      <path class="cls-6" d="m40.41,169.42c.48-1.46.82-2.5,1.04-3.12.21-.62.66-1.9,1.34-3.83l4.81-13.36h5.02l-10.14,26.89h-4.26l-10.13-26.89h5.05l4.8,13.36c.68,1.93,1.13,3.21,1.34,3.83.22.63.56,1.67,1.04,3.12h.08Z"/>
      <path class="cls-4" d="m145.05,103.69c3.43-7.15,5.39-14.35,5.61-21.6l-23.65-.03c.1,6.94,1.64,13.54,4.32,19.5,1.36-.18,2.72-.33,4.12-.41,1.6-.08,3.2-.05,4.83.15.92.11,1.86.4,2.72.84.76.39,1.47.91,2.05,1.54h0Z"/>
      <path class="cls-4" d="m127.1,78.25l23.51.03c-.37-6.54-2.19-13.16-5.7-19.88-.59.67-1.32,1.21-2.12,1.62-.86.44-1.8.73-2.71.85-1.62.2-3.23.22-4.83.14-1.26-.06-2.49-.19-3.71-.35-2.5,5.41-4.06,11.34-4.44,17.59h0Z"/>
      <path class="cls-4" d="m141.05,56.62c.41-.21.79-.49,1.06-.81,4.18-4.87,8.95-9.51,14.55-12.99,5.67-3.51,12.16-5.81,19.67-5.91,7.11-.09,13.44,1.93,19.13,5.32,5.6,3.34,10.57,7.98,15.02,13.18.26.31.62.56,1.04.76.54.26,1.13.43,1.71.5,1.64.23,3.78.11,5.75,0-2.17-3.74-4.8-7.16-7.83-10.19-8.92-8.92-21.24-14.44-34.85-14.44s-25.93,5.52-34.85,14.44c-3.13,3.12-5.84,6.67-8.04,10.55.68.07,1.35.13,2.02.16,1.37.07,2.76.05,4.18-.12.49-.06.99-.21,1.43-.44h0Z"/>
      <path class="cls-4" d="m207.89,58.23c-3.57,6.79-5.43,13.49-5.79,20.1l23.39.03c-.38-6.4-1.98-12.47-4.57-17.98l-1.35.08c-2.24.14-4.73.29-6.85,0-.96-.13-1.95-.41-2.86-.85-.72-.35-1.4-.81-1.97-1.38h0Z"/>
      <path class="cls-4" d="m225.57,82.17l-23.52-.02c.22,7.27,2.22,14.48,5.66,21.65.62-.63,1.47-1.28,2.36-1.79.94-.54,1.97-.96,2.91-1.09,1.42-.19,3.18-.24,4.86-.12,1.24.08,2.46.26,3.51.52,2.61-5.87,4.1-12.34,4.21-19.14h0Z"/>
      <path class="cls-4" d="m176.54,125.24c-7.52-.1-14-2.39-19.67-5.91-5.6-3.47-10.37-8.11-14.55-12.98-.28-.33-.64-.6-1.06-.81-.45-.23-.94-.38-1.43-.44-1.43-.18-2.82-.2-4.19-.13-.82.04-1.65.12-2.49.21,2.24,4.05,5.04,7.75,8.29,11,8.92,8.92,21.24,14.43,34.85,14.43s25.93-5.52,34.85-14.43c3.34-3.34,6.2-7.16,8.48-11.34-.62-.11-1.31-.19-2.03-.23-1.44-.1-2.93-.07-4.1.09-.41.06-.96.29-1.51.61-.67.38-1.28.86-1.67,1.3-4.69,5.14-9.53,9.8-14.96,13.18-5.54,3.45-11.67,5.55-18.8,5.45h0Z"/>
      <path class="cls-6" d="m1.11,136.79L175.12.92l1.17-.92,1.18.92,173.66,135.85,1.11.87-.51,1.32-173.75,450.67-1.78,4.61-1.78-4.61L.51,138.98l-.51-1.32,1.11-.87Zm5.17.8h339.71L176.3,4.84,6.28,137.59Zm340.42,3.82H5.54l16.47,42.68h308.24l16.45-42.68Zm-17.93,46.51H23.49l152.72,395.72,152.56-395.72Z"/>
      <path class="cls-1" d="m84.07,187.92H23.49l60.59,156.98v-156.98Z"/>
      <path class="cls-1" d="m145.54,187.92v316.25l30.67,79.47,30.53-79.19V187.92h-61.2Z"/>
      <path class="cls-1" d="m267.36,187.92v159.29l61.41-159.29h-61.41Z"/>
      <path class="cls-1" d="m6.28,137.59h339.71L176.3,4.84,6.28,137.59Zm207.26-19.01c-9.53,9.54-22.7,15.43-37.25,15.43s-27.72-5.9-37.25-15.43c-9.54-9.53-15.43-22.7-15.43-37.25s5.89-27.72,15.43-37.25c9.54-9.53,22.71-15.43,37.25-15.43s27.72,5.9,37.25,15.43c9.54,9.54,15.43,22.71,15.43,37.25s-5.9,27.72-15.43,37.25h0Z"/>
      <path class="cls-3" d="m206.74,187.92v316.53l60.62-157.23v-159.29h-60.62Z"/>
      <path class="cls-3" d="m145.54,504.17V187.92h-61.47v156.98l61.47,159.27Z"/>
      <path class="cls-3" d="m22.01,184.09h308.24l16.45-42.68H5.54l16.47,42.68Zm16.22-8.1l-10.13-26.89h5.05l4.8,13.36c.68,1.93,1.13,3.21,1.34,3.83.22.63.56,1.67,1.04,3.12h.08c.48-1.46.82-2.5,1.04-3.12.21-.62.66-1.9,1.34-3.83l4.81-13.36h5.02l-10.14,26.89h-4.26Zm18,0v-26.89h4.83v26.89h-4.83Zm11.28,0v-26.89h4.62v22.77h11.77v4.12h-16.39Zm21.51,0v-26.89h4.68v22.77h11.91v4.12h-16.59Zm18.5,0l10.46-26.89h4.41l10.45,26.89h-5.1l-2.55-6.84h-9.97l-2.56,6.84h-5.14Zm29.11,0v-26.89h7.95c1.32,0,2.54.07,3.68.23,1.13.15,2.1.38,2.91.69,1.54.6,2.72,1.5,3.56,2.68.83,1.19,1.25,2.68,1.25,4.47s-.51,3.46-1.52,4.77c-1.01,1.3-2.57,2.27-4.68,2.91v.07l7.84,11.06h-5.76l-7.12-10.42h-3.29v10.42h-4.81Zm24.93,0v-26.89h7.97c1.32,0,2.55.07,3.68.23,1.14.15,2.11.38,2.92.69,1.54.6,2.73,1.5,3.56,2.68.84,1.19,1.25,2.68,1.25,4.47s-.51,3.46-1.52,4.77c-1.01,1.3-2.58,2.27-4.7,2.91v.07l7.86,11.06h-5.78l-7.13-10.42h-3.3v10.42h-4.82Zm35.94.5c-1.34,0-2.56-.14-3.64-.41-1.07-.27-2.02-.67-2.84-1.19-.82-.52-1.52-1.14-2.1-1.89-.57-.74-1.03-1.59-1.38-2.52-.28-.75-.49-1.59-.61-2.49-.13-.91-.18-1.93-.18-3.05v-15.84h4.73v15.39c0,1.9.22,3.39.65,4.46.49,1.19,1.2,2.05,2.13,2.58.93.53,2.03.8,3.3.8s2.37-.27,3.3-.8c.93-.53,1.64-1.39,2.13-2.58.43-1.07.65-2.56.65-4.46v-15.39h4.73v15.84c0,1.12-.06,2.14-.18,3.05-.12.91-.32,1.74-.61,2.49-.35.93-.81,1.78-1.4,2.52-.58.74-1.29,1.37-2.13,1.89-.84.52-1.8.91-2.89,1.19-1.09.28-2.31.41-3.66.41h0Zm17.23-.5v-26.89h9.05c1.93,0,3.48.2,4.67.6.88.29,1.65.68,2.29,1.15.65.48,1.19,1.01,1.61,1.59.42.58.73,1.19.93,1.84.2.65.3,1.3.3,1.96,0,1.16-.25,2.23-.76,3.2-.5.97-1.34,1.78-2.51,2.42v.09c.65.22,1.24.51,1.78.87.54.36,1,.77,1.39,1.26.4.5.7,1.04.93,1.66.22.62.33,1.3.33,2.07,0,.66-.1,1.37-.3,2.11-.2.75-.55,1.48-1.06,2.18-.51.71-1.19,1.35-2.03,1.94-.84.59-1.91,1.06-3.19,1.41-.33.08-.68.15-1.06.22-.39.07-.81.12-1.29.17-.46.05-.98.08-1.55.1-.58.02-1.21.03-1.93.03h-7.59Zm24.61,0v-26.89h5.17v26.89h-5.17Zm8.9,0l10.22-26.89h4.31l10.22,26.89h-4.98l-2.5-6.84h-9.75l-2.5,6.84h-5.02Zm34.89-18.7c.61-1.76,1.48-3.28,2.63-4.56,1.14-1.29,2.57-2.3,4.29-3.04,1.72-.73,3.66-1.11,5.83-1.12,1.11,0,2.16.07,3.16.23.99.16,1.88.37,2.68.65v4.15c-1.04-.32-2.02-.54-2.92-.67-.89-.13-1.78-.19-2.64-.19-1.31,0-2.52.22-3.62.66-1.1.44-2.05,1.09-2.84,1.93-.79.84-1.41,1.89-1.85,3.13-.45,1.24-.67,2.66-.67,4.26s.2,2.98.61,4.18c.4,1.2.98,2.2,1.75,3,.75.8,1.68,1.41,2.77,1.82,1.09.41,2.33.61,3.71.61,1,0,2.01-.07,3.03-.23,1.04-.15,2-.38,2.9-.67v4.21c-.91.27-1.9.47-2.95.63-1.07.15-2.16.23-3.3.23-2.22,0-4.17-.32-5.86-.98-1.68-.65-3.09-1.57-4.23-2.76-1.13-1.19-1.98-2.61-2.55-4.26-.57-1.66-.86-3.49-.86-5.48s.3-3.95.91-5.71h0Zm23.72,18.7v-26.89h16.93v4.12h-12.05v6.96h10.31v4.12h-10.31v11.7h-4.88Z"/>
      <path class="cls-3" d="m116.77,165.04h6.87l-.9-2.43c-.73-1.9-1.56-4.25-2.5-7.04h-.08c-.94,2.8-1.78,5.15-2.5,7.04l-.89,2.44Z"/>
      <path class="cls-3" d="m141.44,153.22v8.24h2.35c1.09,0,2.02-.05,2.79-.15.76-.1,1.4-.25,1.91-.45.96-.37,1.63-.89,2-1.54.37-.65.56-1.39.56-2.24,0-.72-.15-1.37-.44-1.92-.29-.55-.79-.99-1.49-1.31-.45-.22-1.03-.37-1.72-.47-.69-.1-1.54-.15-2.55-.15h-3.41Z"/>
      <path class="cls-3" d="m166.38,153.22v8.24h2.36c1.1,0,2.03-.05,2.79-.15.76-.1,1.4-.25,1.92-.45.96-.37,1.63-.89,2.01-1.54.37-.65.56-1.39.56-2.24,0-.72-.15-1.37-.44-1.92-.29-.55-.79-.99-1.49-1.31-.45-.22-1.03-.37-1.72-.47-.69-.1-1.54-.15-2.56-.15h-3.41Z"/>
      <path class="cls-3" d="m219.52,153.22v6.96h4.29c1.3,0,2.26-.14,2.9-.41.71-.31,1.21-.73,1.52-1.27.31-.54.46-1.16.46-1.84s-.17-1.35-.53-1.9c-.35-.55-.94-.97-1.79-1.23-.35-.11-.76-.19-1.22-.23-.47-.05-1.04-.07-1.73-.07h-3.91Z"/>
      <path class="cls-3" d="m224.04,164.3h-4.52v7.58h3.11c.83,0,1.55-.02,2.15-.07.59-.05,1.11-.12,1.54-.23.66-.14,1.21-.34,1.65-.59.45-.25.8-.53,1.08-.85.27-.31.47-.66.58-1.05.11-.38.17-.79.17-1.21,0-.75-.2-1.41-.6-1.97-.4-.56-1.03-.98-1.89-1.26-.38-.13-.82-.21-1.33-.26-.51-.05-1.16-.08-1.95-.08h0Z"/>
      <path class="cls-3" d="m260.6,155.57c-.92,2.8-1.73,5.15-2.45,7.04l-.87,2.44h6.71l-.87-2.43c-.71-1.9-1.53-4.25-2.45-7.04h-.08Z"/>
      <path class="cls-2" d="m170.18,65.31c-1.05,0-1.91-.85-1.91-1.91s.85-1.9,1.91-1.9h12.5c1.05,0,1.91.86,1.91,1.91s-.85,1.91-1.91,1.91h-12.5Z"/>
      <path class="cls-2" d="m170.18,79.34c-1.05,0-1.91-.85-1.91-1.9s.85-1.91,1.91-1.91h12.5c1.05,0,1.91.86,1.91,1.91s-.85,1.91-1.91,1.91h-12.5Z"/>
      <path class="cls-2" d="m170.18,92.95c-1.05,0-1.91-.85-1.91-1.91s.85-1.91,1.91-1.91h12.5c1.05,0,1.91.86,1.91,1.91s-.85,1.91-1.91,1.91h-12.5Z"/>
      <path class="cls-2" d="m127.02,82.06l23.65.03c-.21,7.25-2.18,14.45-5.61,21.6-.58-.63-1.28-1.15-2.05-1.54-.86-.44-1.8-.73-2.72-.84-1.62-.2-3.23-.22-4.83-.15-1.4.07-2.77.22-4.12.41-2.69-5.96-4.22-12.56-4.32-19.5h0Zm20.78,24.69c4.2-8.32,6.57-16.75,6.69-25.31.12-8.59-2.03-17.28-6.87-26.07,3.3-3.52,6.95-6.77,11.04-9.3,4.73-2.93,10.07-4.93,16.18-5.29l-.04,20.69v3.83s-.03,10.2-.03,10.2v3.83s-.03,9.78-.03,9.78v3.83s-.07,28.41-.07,28.41c-5.94-.42-11.16-2.39-15.79-5.26-4.1-2.54-7.77-5.8-11.07-9.34h0Zm-24.19-25.43c0,14.55,5.89,27.72,15.43,37.25,9.54,9.54,22.71,15.43,37.25,15.43s27.72-5.9,37.25-15.43c9.54-9.53,15.43-22.7,15.43-37.25s-5.9-27.72-15.43-37.25c-9.53-9.53-22.7-15.43-37.25-15.43s-27.72,5.9-37.25,15.43c-9.54,9.54-15.43,22.71-15.43,37.25h0Zm27-3.05l-23.51-.03c.38-6.25,1.94-12.19,4.44-17.59,1.22.16,2.45.28,3.71.35,1.6.08,3.2.06,4.83-.14.92-.11,1.86-.4,2.71-.85.8-.41,1.53-.95,2.12-1.62,3.51,6.71,5.33,13.34,5.7,19.88h0Zm-9.36,27.27c.42.21.79.49,1.06.81,4.18,4.87,8.95,9.51,14.55,12.98,5.67,3.52,12.15,5.81,19.67,5.91,7.13.09,13.26-2.01,18.8-5.45,5.44-3.38,10.28-8.04,14.96-13.18.39-.43,1.01-.91,1.67-1.3.55-.32,1.09-.55,1.51-.61,1.16-.16,2.65-.19,4.1-.09.72.05,1.41.12,2.03.23-2.27,4.18-5.14,8-8.48,11.34-8.92,8.92-21.24,14.43-34.85,14.43s-25.93-5.52-34.85-14.43c-3.25-3.25-6.05-6.95-8.29-11,.84-.1,1.66-.17,2.49-.21,1.37-.07,2.76-.05,4.19.13.49.06.98.21,1.43.44h0Zm.85-49.73c-.28.32-.65.6-1.06.81-.45.23-.94.38-1.43.44-1.43.17-2.81.2-4.18.12-.67-.03-1.34-.09-2.02-.16,2.2-3.88,4.91-7.42,8.04-10.55,8.92-8.92,21.24-14.43,34.85-14.43s25.93,5.52,34.85,14.43c3.03,3.04,5.67,6.46,7.83,10.2-1.97.12-4.11.23-5.75,0-.58-.08-1.17-.24-1.71-.5-.41-.2-.77-.45-1.04-.76-4.46-5.2-9.42-9.84-15.02-13.18-5.69-3.38-12.02-5.41-19.13-5.32-7.52.1-14,2.39-19.67,5.91-5.59,3.47-10.37,8.11-14.55,12.98h0Zm36.49,5.67l.05-20.7c5.43.32,10.36,2.06,14.87,4.74,4.23,2.52,8.1,5.88,11.66,9.69-4.91,8.84-7.08,17.59-6.96,26.23.12,8.57,2.5,17,6.7,25.33-3.68,3.81-7.49,7.21-11.6,9.77-4.47,2.78-9.33,4.58-14.85,4.85l.06-28.45v-3.83s.03-9.78.03-9.78v-3.83s.03-10.2.03-10.2v-3.83Zm29.11,42.32c-3.45-7.16-5.44-14.38-5.66-21.65l23.52.02c-.11,6.81-1.61,13.28-4.21,19.14-1.05-.27-2.27-.44-3.51-.52-1.68-.11-3.45-.07-4.86.12-.94.13-1.98.55-2.91,1.09-.89.51-1.73,1.16-2.36,1.79h0Zm-5.61-25.46c.36-6.62,2.22-13.31,5.79-20.1.57.57,1.25,1.03,1.97,1.38.91.44,1.9.72,2.86.85,2.12.29,4.61.14,6.85,0l1.35-.08c2.59,5.51,4.19,11.58,4.57,17.98l-23.39-.03Z"/>
      <path class="cls-4" d="m147.62,55.37c4.84,8.79,6.99,17.48,6.87,26.07-.12,8.57-2.49,16.99-6.69,25.31,3.31,3.53,6.97,6.79,11.07,9.34,4.63,2.87,9.85,4.84,15.79,5.26l.06-28.4h-4.54c-1.05,0-1.91-.85-1.91-1.91s.85-1.91,1.91-1.91h4.55v-.03l.02-9.77h-4.57c-1.05,0-1.91-.86-1.91-1.91s.85-1.91,1.91-1.91h4.58v-.03l.02-10.19h-4.6c-1.05,0-1.91-.85-1.91-1.91s.85-1.9,1.91-1.9h4.61v-.03l.04-20.69c-6.1.36-11.44,2.35-16.18,5.29-4.09,2.53-7.74,5.78-11.04,9.3h0Z"/>
      <path class="cls-4" d="m184.59,77.45c0,1.05-.85,1.91-1.91,1.91h-4.12s-.02,9.76-.02,9.76v.03h4.14c1.05,0,1.91.85,1.91,1.91s-.85,1.91-1.91,1.91h-4.15s-.06,28.44-.06,28.44c5.52-.27,10.39-2.07,14.85-4.85,4.11-2.56,7.92-5.96,11.6-9.77-4.2-8.32-6.58-16.76-6.7-25.33-.12-8.64,2.05-17.39,6.96-26.23-3.56-3.81-7.43-7.17-11.66-9.69-4.51-2.68-9.44-4.42-14.87-4.74l-.05,20.7v.03h4.08c1.05,0,1.91.86,1.91,1.91s-.85,1.9-1.91,1.9h-4.09l-.02,10.19v.03h4.11c1.05,0,1.91.86,1.91,1.91h0Z"/>
    </g>
  </g>
</svg>