<?xml version="1.0" encoding="UTF-8"?>
<svg id="Layer_2" data-name="Layer 2" xmlns="http://www.w3.org/2000/svg" viewBox="0 0 395.53 569.47">
  <defs>
    <style>
      .cls-1 {
        fill: #008d2c;
      }

      .cls-1, .cls-2, .cls-3, .cls-4, .cls-5, .cls-6, .cls-7, .cls-8, .cls-9, .cls-10, .cls-11, .cls-12, .cls-13, .cls-14, .cls-15, .cls-16, .cls-17 {
        stroke-width: 0px;
      }

      .cls-1, .cls-2, .cls-3, .cls-4, .cls-5, .cls-6, .cls-7, .cls-8, .cls-9, .cls-10, .cls-11, .cls-12, .cls-13, .cls-14, .cls-17 {
        fill-rule: evenodd;
      }

      .cls-2 {
        fill: #0050a2;
      }

      .cls-3 {
        fill: #053461;
      }

      .cls-4, .cls-15 {
        fill: #567756;
      }

      .cls-5 {
        fill: #274948;
      }

      .cls-6 {
        fill: #a79317;
      }

      .cls-7, .cls-16 {
        fill: #e1a500;
      }

      .cls-8 {
        fill: #de9e00;
      }

      .cls-9 {
        fill: #ffca32;
      }

      .cls-10 {
        fill: #ec2729;
      }

      .cls-11 {
        fill: #fce094;
      }

      .cls-12 {
        fill: #e4a800;
      }

      .cls-13 {
        fill: #fff;
      }

      .cls-14 {
        fill: #b88600;
      }
    </style>
  </defs>
  <g id="Layer_1-2" data-name="Layer 1">
    <g>
      <path class="cls-3" d="m271.3,71.19l124.23,67.19-14.32,25.29c-1.48,2.61-3.64,4.84-6.14,6.49-2.51,1.64-5.39,2.7-8.37,2.99-1.77.17-3.46-.15-5.07-.9-1.08-.51-2.02-1.17-2.96-1.88-.01,0-.03-.02-.04-.02-.34-.12-.91,0-1.23.12-.77.27-1.45.8-1.94,1.46-.28.37-.5.78-.66,1.21l-142.09,381.39c-1.35,3.62-3.5,7.46-6.16,10.28-2.59,2.74-5.92,4.76-9.79,4.67-3.9-.09-7.38-2.34-9.98-5.1-2.74-2.91-4.78-6.6-6.15-10.33L40.7,171.5c-.18-.44-.47-.98-.86-1.26-.28-.21-.63-.27-.98-.27-.95-.01-1.4-.05-2.09.5-.19.15-.37.29-.56.43l-1.12.83h-.21c-1.03.53-2.15.88-3.32,1.05-1.16.16-2.3.14-3.46.04-3.05-.28-5.9-1.54-8.34-3.36-2.48-1.86-4.53-4.3-6.05-6.99L0,138.3l4.8-2.57,117.73-63.8c.21.25.44.48.68.69,1.15,1.03,2.62,1.71,4.47,2.09L6.8,139.46l-.96.51.54.95,11.02,19.44c1.32,2.32,3.02,4.27,4.9,5.68,1.92,1.44,4.04,2.33,6.17,2.52.77.07,1.62.11,2.48,0,.93-.13,1.86-.45,2.73-1.09h0c.17-.13.3-.23.43-.34.83-.66,1.83-1.46,4.79-1.43,1.32.01,2.49.38,3.45,1.09.97.71,1.75,1.77,2.31,3.16l139.95,382.61c1.35,3.68,3.21,6.72,5.25,8.88,2.23,2.36,4.7,3.71,6.98,3.76,2.45.05,4.69-1.32,6.61-3.34,2.32-2.45,4.18-5.91,5.27-8.84l142.09-381.39c.32-.85.74-1.62,1.25-2.28,1.06-1.41,2.47-2.4,3.93-2.91,1.43-.5,2.89-.55,4.12-.09.39.15.77.35,1.11.6.74.55,1.44,1.07,2.22,1.44.86.4,1.77.62,2.85.52,2.32-.23,4.54-1.07,6.46-2.32,1.98-1.3,3.66-3.05,4.77-5.02l11.66-20.59.53-.94-.95-.51-121.22-65.82c.98-.32,1.91-.79,2.75-1.47.36-.31.71-.65,1.03-1.04h0Zm-85.02,30.9c0,.05-.01.11-.02.17,0-.05.01-.11.02-.17h0Zm-2.18,4.59s-.07.07-.11.11c.04-.03.07-.07.11-.11h0Zm-2.73,1.74c-.05.02-.1.04-.16.05.05-.02.1-.04.16-.05h0Zm-7.65-1.52s-.08-.07-.12-.11c.04.04.08.07.12.11h0Zm31.58-4.81c0,.05-.01.11-.02.17,0-.05.02-.11.02-.17h0Zm-.2,1.14c-.01.05-.03.1-.04.16.02-.05.03-.11.04-.16h0Zm19.34-1.14c0,.05-.01.11-.02.17,0-.05.02-.11.02-.17h0Zm-.2,1.14c-.02.05-.03.1-.04.16.02-.05.03-.11.04-.16h0Zm-63.75-.94c.03.18.06.37.1.56l-.1-.56Zm-26.61-27.71c.12-.04.23-.07.35-.11-.11.04-.23.08-.35.11h0Zm4.74,25.45c-.06.1-.11.2-.16.29.05-.09.1-.2.16-.29h0Zm-.52,2.62c.01.06.02.12.04.19-.01-.06-.02-.13-.04-.19h0Zm123.5-28.59c.09.02.17.03.26.05-.09-.02-.17-.03-.26-.05h0Zm-9.13-6.23c.11-.13.21-.26.32-.4l-.32.4Zm-60.41-32.32c.11-.02.23-.04.34-.06-.11.02-.23.04-.34.06h0Zm.46-.08c.11-.02.22-.03.34-.05-.11.02-.22.03-.34.05h0Zm.97-.14c.13-.02.27-.03.41-.05-.14.02-.27.03-.41.05h0Zm.46-.05c.15-.02.3-.03.45-.04-.15.01-.3.03-.45.04h0Zm.48-.05c.16-.02.31-.03.47-.04-.16.01-.31.02-.47.04h0Zm.98-.07c.16,0,.32-.02.48-.02-.16,0-.32.02-.48.02h0Zm.51-.02c.16,0,.31,0,.47-.01-.16,0-.31,0-.47.01h0Zm-26.34,15.99c.11-.15.21-.3.32-.45-.11.15-.22.3-.32.45h0Zm.34-.48c.1-.14.2-.28.31-.42-.1.14-.2.28-.31.42h0Zm.32-.45c.11-.15.22-.29.33-.44-.11.15-.22.29-.33.44h0Zm.34-.45c.11-.14.21-.28.32-.41-.11.14-.21.27-.32.41h0Zm.7-.91c.1-.13.21-.26.31-.39-.11.13-.21.26-.31.39h0Zm.69-.84c.11-.13.22-.26.33-.39-.11.13-.22.26-.33.39h0Zm.36-.43c.11-.13.22-.26.33-.39-.11.12-.22.25-.33.39h0Zm.34-.4c.11-.13.23-.26.34-.39l-.34.39Zm.38-.42c.11-.12.22-.24.32-.36-.1.12-.21.24-.32.36h0Zm.37-.41c.11-.12.22-.23.32-.35-.11.11-.21.23-.32.35h0Zm.38-.41c.11-.12.22-.23.33-.34-.11.11-.22.23-.33.34h0Zm.35-.37c.11-.12.23-.23.34-.35-.11.12-.23.23-.34.35h0Zm1.14-1.13c.11-.11.22-.21.33-.31-.11.1-.22.21-.33.31h0Zm.41-.39c.11-.1.22-.21.33-.31-.11.1-.22.2-.33.31h0Zm.39-.36c.1-.09.2-.18.3-.27-.1.09-.2.18-.3.27h0Zm.4-.36c.1-.09.21-.19.32-.28-.11.09-.22.18-.32.28h0Zm.39-.34c.11-.09.22-.19.33-.28-.11.09-.22.18-.33.28h0Zm.38-.32c.12-.1.24-.2.35-.29-.11.09-.23.19-.35.29h0Zm.83-.68c.11-.08.21-.16.32-.25-.11.08-.21.16-.32.25h0Zm.41-.32c.11-.09.23-.17.34-.26-.12.09-.23.17-.34.26h0Zm7.57,61.57c-.02.05-.03.1-.04.15.02-.05.03-.1.04-.15h0Zm-3.25,4.47s-.09.05-.13.08l.13-.08Zm-1.82.84l-.05.02.05-.02Zm-3.23.26h-.06s.06,0,.06,0Zm-2.74-.93s-.08-.05-.13-.08c.04.03.08.05.13.08h0Zm-.47-.29c-.09-.06-.19-.13-.28-.2.09.07.18.14.28.2h0Zm-.6-.45c-.08-.07-.16-.14-.24-.21.08.07.16.14.24.21h0Zm27.57.76s-.09.05-.14.07c.05-.02.09-.05.14-.07h0Zm19.13,0s-.09.05-.13.07c.04-.02.09-.05.13-.07h0Zm-89.05-32.9c.45-.03.88-.09,1.3-.17-.42.08-.85.14-1.3.17h0Zm1.3-.17c.12-.02.25-.05.37-.08-.12.03-.24.05-.37.08h0Zm5.52,25.52c-.33.66-.44,1.29-.41,1.87-.03-.59.08-1.21.41-1.87h0Zm-.41,1.94c0,.07,0,.13.01.2,0-.07-.01-.13-.01-.2h0Zm.01.2c0,.06.02.12.03.19-.01-.07-.02-.13-.03-.19h0Zm124.32-28.27c.09,0,.18.02.27.03-.09,0-.18-.02-.27-.03h0Zm1.19.08c.18,0,.38,0,.56,0h0c-.19,0-.38,0-.57,0h0ZM32.78,165.48c-.14.11-.27.21-.37.28l.37-.28Zm-.37.28h0c-.28.21-.58.36-.89.48.3-.11.6-.27.88-.48h0Zm107.08-98.13l-.41-.46c.14.15.27.3.41.46h0Zm53.52-32.26c.11-.02.23-.03.35-.05-.12.02-.23.03-.35.05h0Zm1.91-.2c.16-.01.32-.02.48-.03-.16,0-.32.02-.48.03h0Zm1.49-.07c.16,0,.32,0,.48,0-.16,0-.32,0-.48,0h0Zm-25.47,14.16c.1-.13.19-.25.29-.37-.1.12-.19.24-.29.37h0Zm.69-.86c.1-.13.21-.26.32-.39-.11.13-.21.26-.32.39h0Zm2.91-3.24c.11-.11.22-.22.33-.33-.11.11-.22.22-.33.33h0Zm.4-.39c.11-.11.23-.22.34-.33-.11.11-.23.22-.34.33h0Zm2.76-2.47c.11-.09.21-.17.32-.25-.11.08-.21.17-.32.25h0Zm76.68,62.92c-.03.06-.06.12-.09.17l.09-.17Z"/>
      <rect class="cls-15" x="203.07" y="53.68" width="3.23" height="8.43"/>
      <path class="cls-2" d="m159.41,90.14l74.98-.02v-.59c0-14.77-4.22-28.13-11.04-37.8-6.78-9.61-16.14-15.56-26.45-15.56s-19.67,5.95-26.45,15.56c-6.82,9.67-11.04,23.03-11.04,37.8v.62h0Zm41.7-14.98h9.32v5.76h-9.32v-5.76Zm0-.42v.42h0v-.42h0Zm-6.52.41v5.78h-8.09v-5.78h8.09Zm.52-2.58c.05-.07.1-.15.16-.21-.06.07-.11.14-.16.21h0Zm-6.41-.21v-9.81h19.67v9.81h-7.93c.05.07.11.14.16.21-.54-.78-1.44-1.3-2.46-1.3h-.57c-.93,0-1.75.43-2.3,1.09h-6.57Zm1.84-10.23v-8.43h3.23v2.82c.01.06.01.12.01.18v4.43h-.01v1h-3.23Zm5.65,0v-9.2h4.57v9.2h-4.57Zm4.7-9.62h-4.84l-1.74-1.62h8.2l-1.62,1.62Zm1.8-2.04h-8.57v-1.78h1.24v.8h2.31v-.8h1.09v.8h2.31v-.8h1.62v1.78Zm.35,10.66v-4.43c0-.11.02-.21.04-.3.13-.44.54-.76,1.02-.76h.21c.59,0,1.06.48,1.06,1.06v4.43h-2.33Z"/>
      <path class="cls-4" d="m188.47,62.12h1.63v-8.86h4.08v8.86h1.57v-9.31l-2.07-1.93v-2.63h2.09v.8h1.46v-.8h1.94v.8h1.46v-.8h2.48v2.63l-1.93,1.93v9.31h1.48v-8.86h4.08v8.86h2.05v10.66h-20.52v-10.66h.21Z"/>
      <path class="cls-17" d="m193.77,61.12v-4.43c0-.58-.48-1.06-1.06-1.06h-.21c-.59,0-1.07.48-1.07,1.06v4.43h2.33Z"/>
      <path class="cls-17" d="m196.98,54.46v3.61h2.22v-3.61c0-.59-.48-1.06-1.06-1.06h-.1c-.59,0-1.06.48-1.06,1.06h0Z"/>
      <path class="cls-17" d="m203.03,56.68v4.43h2.33v-4.43c0-.58-.48-1.06-1.06-1.06h-.21c-.59,0-1.06.48-1.06,1.06h0Z"/>
      <path class="cls-17" d="m202.21,65.82c0-.59-.48-1.06-1.06-1.06h-.15c-.59,0-1.06.48-1.06,1.06v3.86h2.28v-3.86Z"/>
      <path class="cls-17" d="m194.87,69.68v-3.86c0-.59-.48-1.06-1.06-1.06h-.15c-.58,0-1.06.48-1.06,1.06v3.86h2.28Z"/>
      <rect class="cls-15" x="188.68" y="62.54" width="19.67" height="9.81"/>
      <path class="cls-4" d="m195.34,48.67h-1.24v1.78h8.57v-1.78h-1.62v.8h-2.31v-.8h-1.09v.8h-2.31v-.8Z"/>
      <path class="cls-4" d="m196.04,52.5h4.84l1.62-1.62h-8.2l1.74,1.62Z"/>
      <rect class="cls-15" x="196.18" y="52.92" width="4.57" height="9.2"/>
      <path class="cls-17" d="m200.59,72.57h-5.49c-.33.48-.52,1.05-.52,1.67v6.89h6.52v-6.89c0-.62-.19-1.2-.52-1.67h0Z"/>
      <path class="cls-4" d="m201.1,74.73h9.75v6.61h-24.78v-6.62h8.55v.43h-8.13v5.78h23.93v-5.76h-9.32v-.42Z"/>
      <path class="cls-17" d="m195.1,72.57h5.49c-.54-.78-1.44-1.3-2.46-1.3h-.57c-1.02,0-1.92.52-2.46,1.3h0Z"/>
      <rect class="cls-16" x="186.49" y="75.14" width="8.09" height="5.78"/>
      <rect class="cls-16" x="201.1" y="75.16" width="9.32" height="5.77"/>
      <path class="cls-7" d="m200.43,72.35h7.93v-9.81h-19.67v9.81h6.57c.55-.66,1.38-1.09,2.3-1.09h.57c.92,0,1.75.43,2.3,1.09h0Zm1.78-2.67h-2.28v-3.86c0-.59.48-1.06,1.06-1.06h.15c.58,0,1.06.48,1.06,1.06v3.86Zm-7.34-3.86v3.86h-2.28v-3.86c0-.59.48-1.06,1.06-1.06h.15c.59,0,1.06.48,1.06,1.06h0Z"/>
      <path class="cls-7" d="m196.18,62.12h4.57v-9.2h-4.57v9.2Zm3.03-4.05h-2.22v-3.61c0-.59.48-1.06,1.06-1.06h.1c.58,0,1.06.48,1.06,1.06v3.61Z"/>
      <path class="cls-7" d="m203.07,61.12v1h3.23v-8.43h-3.23v2.7c.13-.44.54-.76,1.02-.76h.21c.59,0,1.06.48,1.06,1.06v4.43h-2.29Z"/>
      <path class="cls-7" d="m193.76,56.51v-2.82h-3.23v8.43h3.23v-1h-2.32v-4.43c0-.58.48-1.06,1.07-1.06h.21c.52,0,.96.39,1.05.89h0Z"/>
      <path class="cls-7" d="m194.1,50.46h8.57v-1.78h-1.62v.8h-2.31v-.8h-1.09v.8h-2.31v-.8h-1.24v1.78Z"/>
      <path class="cls-7" d="m202.5,50.88h-8.2l1.74,1.62h4.84l1.62-1.62Z"/>
      <path class="cls-17" d="m200.99,64.76c-.59,0-1.06.48-1.06,1.06v3.86h2.28v-3.86c0-.59-.48-1.06-1.06-1.06h-.15Z"/>
      <path class="cls-17" d="m194.87,69.68v-3.86c0-.59-.48-1.06-1.06-1.06h-.15c-.58,0-1.06.48-1.06,1.06v3.86h2.28Z"/>
      <path class="cls-17" d="m196.98,58.07h2.22v-3.61c0-.59-.48-1.06-1.06-1.06h-.1c-.59,0-1.06.48-1.06,1.06v3.61Z"/>
      <path class="cls-11" d="m234.39,89.52c0-14.77-4.22-28.13-11.04-37.8-6.78-9.61-16.14-15.56-26.45-15.56s-19.67,5.95-26.45,15.56c-6.82,9.67-11.04,23.03-11.04,37.8s4.22,28.13,11.04,37.8c6.78,9.61,16.13,15.56,26.45,15.56s19.67-5.95,26.45-15.56c6.82-9.66,11.04-23.03,11.04-37.8h0Zm-10.17-38.41c6.94,9.84,11.23,23.42,11.23,38.41s-4.29,28.57-11.23,38.41c-6.98,9.89-16.64,16.01-27.32,16.01s-20.34-6.12-27.32-16.01c-6.94-9.84-11.23-23.42-11.23-38.41s4.3-28.57,11.23-38.41c6.98-9.89,16.64-16.01,27.32-16.01s20.34,6.12,27.32,16.01h0Z"/>
      <path class="cls-8" d="m177.78,107.81c0-.88.71-1.59,1.59-1.59s1.59.71,1.59,1.59v8.62c0,.88-.71,1.59-1.59,1.59s-1.59-.71-1.59-1.59v-8.62Z"/>
      <path class="cls-8" d="m196.71,107.81c0-.88.71-1.59,1.59-1.59s1.59.71,1.59,1.59v8.62c0,.88-.7,1.59-1.58,1.59s-1.59-.71-1.59-1.59v-8.62Z"/>
      <path class="cls-8" d="m215.84,107.81c0-.88.71-1.59,1.59-1.59s1.59.71,1.59,1.59v8.62c0,.88-.71,1.59-1.59,1.59s-1.59-.71-1.59-1.59v-8.62Z"/>
      <path class="cls-1" d="m178.07,108.84c-4.13-.41-7.16-4.08-6.75-8.22.29-3.02,2.38-5.57,5.29-6.46,2.91-.88,6.06.07,7.99,2.42,1.93,2.35,2.26,5.63.83,8.31-1.43,2.68-4.34,4.24-7.36,3.95h0Z"/>
      <path class="cls-1" d="m197.1,108.84c-4.13-.41-7.16-4.08-6.75-8.22.29-3.02,2.38-5.57,5.29-6.46,2.91-.88,6.06.07,7.99,2.42,1.93,2.35,2.26,5.63.83,8.31-1.43,2.68-4.34,4.24-7.36,3.95h0Z"/>
      <path class="cls-1" d="m216.23,108.84c-4.13-.41-7.15-4.08-6.75-8.22.3-3.02,2.38-5.57,5.29-6.46,2.91-.88,6.07.07,8,2.42,1.93,2.35,2.25,5.63.82,8.31-1.43,2.68-4.34,4.24-7.36,3.95h0Z"/>
      <path class="cls-1" d="m196.71,115.85h-15.74v.59c0,.88-.71,1.59-1.59,1.59s-1.59-.71-1.59-1.59v-.58h-13.5c1.68,4.21,3.76,8.07,6.16,11.46,6.78,9.61,16.13,15.55,26.45,15.55s19.67-5.95,26.45-15.55c2.4-3.4,4.48-7.27,6.16-11.48h-10.49v.59c0,.88-.71,1.59-1.59,1.59s-1.59-.71-1.59-1.59v-.59h-15.96v.59c0,.88-.71,1.59-1.59,1.59s-1.59-.71-1.59-1.59v-.59Z"/>
      <path class="cls-13" d="m171.32,100.62c.4-4.13,4.08-7.15,8.21-6.75,4.13.41,7.15,4.08,6.75,8.22-.3,3.12-2.48,5.62-5.32,6.47v7.3s15.75,0,15.75,0v-7.06c-3.93-.59-6.76-4.16-6.36-8.16.4-4.13,4.08-7.15,8.21-6.75,4.13.41,7.15,4.08,6.75,8.22-.31,3.16-2.54,5.68-5.43,6.5v7.26s15.97,0,15.97,0v-7.05c-3.94-.59-6.76-4.16-6.37-8.16.4-4.13,4.08-7.15,8.21-6.75,4.13.4,7.15,4.08,6.75,8.21-.31,3.17-2.54,5.68-5.42,6.5v7.25s10.49,0,10.49,0c3.04-7.61,4.8-16.38,4.87-25.73l-74.98.03c.07,9.35,1.84,18.12,4.88,25.72h13.5s0-7.05,0-7.05c-3.98-.54-6.86-4.14-6.47-8.18h0Z"/>
      <path class="cls-12" d="m174.39,24.86c4.52,3.48,11.95,3.63,18.86,3.77.58,0,1.16.02,1.74.04,5.06.12,10.6-.19,15.35-1.05,3.4-.62,6.38-1.53,8.49-2.77-.38-.06-.76-.29-1.11-.74h0l-.02-.03h0c-.83-1.08-1.34-2.18-1.59-3.44-.25-1.24-.25-2.62-.02-4.26.34-2.53.69-4.95,1.46-6.86.79-1.94,2.03-3.33,4.14-3.72l.07.42c-1.94.35-3.08,1.65-3.82,3.46-.65,1.59-.99,3.57-1.29,5.66.22-.27.47-.47.73-.61.7-.38,1.48-.38,2.01-.2,1.05.34,1.78.95,2.25,1.69.59.91.8,2,.82,3.04.02,1.09-.15,2.07-.52,2.92-.37.86-.93,1.59-1.7,2.2l-.03.02s-.06.05-.1.07c-2.15,1.65-5.64,2.8-9.7,3.55-4.77.87-10.34,1.18-15.43,1.06-.57-.01-1.15-.02-1.74-.04-7.67-.15-15.98-.32-20.41-5.03-.55-.53-.98-1.14-1.27-1.83-.36-.86-.53-1.83-.52-2.92.02-1.04.23-2.14.82-3.04.48-.74,1.2-1.35,2.26-1.69.53-.17,1.31-.18,2.01.2.26.14.51.34.73.61-.3-2.1-.64-4.08-1.29-5.66-.74-1.81-1.88-3.11-3.82-3.46l.07-.42c2.11.39,3.35,1.78,4.14,3.72.77,1.9,1.12,4.33,1.46,6.86.22,1.63.23,3.02-.03,4.26-.25,1.25-.77,2.36-1.59,3.43h0s-.02.03-.02.03c-.4.51-.84.73-1.27.76h-.13Zm42.09-8.4c-.21,1.58-.21,2.91.02,4.09.24,1.19.73,2.23,1.52,3.26l.02.03c.32.41.65.58.96.59.32.02.64-.13.94-.36l.02-.02c.71-.56,1.24-1.24,1.57-2.04.34-.8.5-1.71.48-2.75-.01-.97-.21-1.99-.75-2.82-.43-.66-1.08-1.21-2.03-1.52-.44-.14-1.09-.15-1.67.18-.43.24-.84.66-1.09,1.35h0Zm-39.49,4.09c.24-1.19.24-2.52.02-4.09-.26-.69-.66-1.11-1.09-1.35-.59-.33-1.23-.32-1.67-.18-.95.3-1.6.85-2.03,1.52-.54.83-.73,1.85-.75,2.82-.02,1.03.14,1.95.48,2.75.34.79.86,1.47,1.57,2.04l.02.02c.3.23.62.37.94.36.32-.02.64-.19.96-.59l.02-.03h0c.78-1.02,1.27-2.07,1.51-3.26h0Z"/>
      <path class="cls-2" d="m86.68,132.33l51.69-28.71c-.49-1.23-.57-2.7.79-4.33l.45-.55c3.62-4.31,4.95-5.9,5.58-16.05.04-.7.04-1.39,0-2.08-.27-4.51-2.26-8.73-4.93-12.08-1.12,2.28-2.48,3.94-4.16,5.02-1.83,1.18-4.02,1.63-6.66,1.4l.5.93L8.76,140.81l10.48,18.5c1.17,2.07,2.67,3.79,4.33,5.03,1.61,1.21,3.36,1.95,5.09,2.11.64.06,1.33.09,2,0,.61-.09,1.21-.29,1.76-.69l.38-.29c1.09-.87,2.41-1.93,6.12-1.89,1.78.01,3.36.53,4.69,1.5,1.3.95,2.33,2.34,3.04,4.12v.03s139.96,382.61,139.96,382.61c1.24,3.4,2.95,6.19,4.8,8.15,1.84,1.95,3.77,3.06,5.47,3.1,1.76.04,3.49-1.06,5.02-2.67,2.11-2.24,3.82-5.42,4.83-8.13l142.09-381.39c.39-1.05.92-1.99,1.54-2.82,1.32-1.76,3.09-3,4.93-3.65,1.88-.66,3.86-.71,5.56-.07.58.21,1.14.51,1.64.89.64.48,1.24.93,1.85,1.22.53.25,1.09.38,1.74.32,1.95-.19,3.85-.91,5.5-1.99,1.71-1.12,3.14-2.61,4.09-4.29l11.12-19.65-122.03-66.25.21-.39c-2.37.24-4.46-.25-6.28-1.16-2.17-1.1-3.93-2.82-5.3-4.68l-.09.12c-2.82,3.57-4.8,8.31-5.12,14.02-.18,3.2.09,6.19.93,8.93.84,2.73,2.25,5.23,4.36,7.45,1.24,1.31,1.77,2.52,1.7,3.82-.02.49-.13.97-.32,1.48l50.64,26.56c9.91,5.2,14.64,13.62,14.85,25.65.1,6.23-.77,12.9-2.95,18.75l-105.05,280.28c-6.03,16.09-29.2,13.42-34.43-.9L79.42,184.81c-3.3-9.04-5.34-18.34-5.28-27.96.05-10.84,2.54-18.97,12.54-24.52h0Z"/>
      <path class="cls-2" d="m183.09,479.94c3.65-3.65,8.7-5.91,14.27-5.91s10.62,2.26,14.27,5.91c3.65,3.65,5.91,8.69,5.91,14.27s-2.26,10.61-5.91,14.27c-3.65,3.65-8.7,5.91-14.27,5.91s-10.61-2.26-14.27-5.91c-3.65-3.65-5.91-8.7-5.91-14.27s2.26-10.62,5.91-14.27h0Z"/>
      <path class="cls-6" d="m132.15,74.71L8.76,140.81l10.48,18.5c1.17,2.07,2.67,3.79,4.33,5.03,1.61,1.21,3.36,1.95,5.09,2.11.64.06,1.33.09,2,0,.61-.09,1.21-.29,1.76-.69h0c.1-.07.24-.18.38-.3,1.09-.87,2.42-1.93,6.12-1.89,1.78.01,3.36.53,4.69,1.5,1.3.95,2.33,2.34,3.04,4.12v.03s139.96,382.61,139.96,382.61c1.24,3.4,2.95,6.19,4.8,8.15,1.84,1.95,3.77,3.06,5.47,3.1,1.76.04,3.49-1.06,5.02-2.67,2.11-2.24,3.82-5.42,4.83-8.13l142.09-381.39c.39-1.05.92-1.99,1.54-2.82,1.32-1.76,3.09-3,4.93-3.65,1.88-.66,3.86-.71,5.56-.07.58.21,1.14.51,1.64.89.64.48,1.24.93,1.85,1.22.53.25,1.09.38,1.74.32,1.95-.19,3.85-.91,5.5-1.99,1.71-1.12,3.14-2.61,4.09-4.29l11.12-19.65-123.15-66.86,2.72-.93,122.39,66.45.95.51-.53.94-11.66,20.59c-1.12,1.97-2.79,3.72-4.77,5.02-1.92,1.25-4.14,2.09-6.46,2.32-1.08.1-1.99-.11-2.85-.52-.78-.37-1.48-.88-2.22-1.44-.34-.25-.71-.45-1.11-.6-1.23-.46-2.7-.41-4.12.09-1.46.52-2.87,1.5-3.93,2.91-.5.67-.93,1.43-1.25,2.28l-142.09,381.39c-1.09,2.93-2.95,6.39-5.27,8.84-1.91,2.02-4.16,3.39-6.61,3.34-2.28-.05-4.75-1.4-6.98-3.76-2.03-2.16-3.9-5.2-5.25-8.88L44.67,169.94c-.56-1.39-1.34-2.45-2.31-3.16-.96-.71-2.13-1.08-3.45-1.09-2.96-.03-3.96.77-4.79,1.43-.13.11-.26.21-.43.34h0c-.87.64-1.8.96-2.73,1.09-.86.12-1.71.08-2.48,0-2.13-.19-4.25-1.09-6.17-2.52-1.89-1.41-3.59-3.36-4.9-5.68l-11.02-19.44-.54-.95.96-.51,122.14-65.43,3.2.69Z"/>
      <path class="cls-11" d="m120.31,65.4c.08-3.98.67-7.02,1.56-9.62,1-2.89,2.37-5.22,3.85-7.69,3.39-5.66,7.43-9.98,13.06-12.82,5.51-2.79,12.52-4.13,21.9-3.9.43-4.13,1.14-8.64,2.31-12.74.98-3.43,2.27-6.59,3.98-9.01,2.98-4.22,7.21-6.59,12.06-7.91,4.79-1.3,10.19-1.59,15.6-1.66h.78c9.05-.13,20.46-.29,28.71,6.77,6.89,5.89,7.78,15.78,8.52,24.07l.05.64c6.31-.33,12.18.08,17.37,1.62,5.37,1.59,10,4.39,13.62,8.81,3.42,4.18,6.24,8.65,7.96,13.1,1.56,4.02,2.22,8.01,1.65,11.76v.03s-.01.04-.01.04c-.58,2.55-1.66,4.25-3.01,5.36-1.35,1.12-2.96,1.65-4.63,1.91-2.65.41-4.96-.07-6.95-1.08-2.17-1.1-3.93-2.82-5.3-4.68l-.09.12c-2.82,3.57-4.8,8.31-5.12,14.02-.18,3.2.09,6.19.93,8.93.84,2.73,2.25,5.23,4.36,7.45,1.24,1.31,1.77,2.52,1.7,3.82-.06,1.26-.69,2.56-1.77,4.06-6.68,9.28-13.75,17.81-21.11,25.26-6.93,7.01-14.14,13.05-21.55,17.85-6.2,4.01-11.74,6.04-17.38,5.62-5.64-.42-11.35-3.28-17.91-9.05-6.47-5.7-12.65-11.66-18.61-18.33-5.96-6.66-11.7-14.02-17.31-22.5l-.09-.14c-.96-1.44-2.41-3.62-.26-6.19l.46-.55c3.62-4.31,4.95-5.9,5.58-16.05.04-.7.04-1.39,0-2.08-.27-4.51-2.26-8.73-4.93-12.08-1.12,2.28-2.48,3.94-4.16,5.02-1.83,1.18-4.02,1.63-6.66,1.4-2.71-.25-4.75-1-6.24-2.34-1.5-1.34-2.42-3.23-2.9-5.74v-.03s0-.03,0-.03c-.04-.5-.03-.98,0-1.41h0Zm152.13-1.63c-.04-2.7-.68-5.52-1.78-8.35-1.68-4.33-4.44-8.71-7.8-12.81-3.48-4.24-7.93-6.93-13.1-8.46-5.2-1.54-11.14-1.93-17.52-1.55l-.51.03-.05-.51-.1-1.15c-.72-8.09-1.59-17.74-8.15-23.35-7.95-6.79-19.14-6.64-28.01-6.52h-.77c-5.33.08-10.65.36-15.34,1.63-4.63,1.26-8.65,3.5-11.47,7.49-1.63,2.32-2.88,5.36-3.82,8.69-1.19,4.2-1.91,8.84-2.33,13.05l-.05.49-.49-.02c-9.44-.29-16.43,1.02-21.88,3.77-5.43,2.74-9.35,6.93-12.64,12.42-1.45,2.42-2.79,4.7-3.75,7.49-.63,1.81-1.09,3.85-1.34,6.3.18-.19.37-.37.58-.54,1.32-1.05,3.32-1.57,5.99-1.73.28-.02.57-.01.86,0,3.3.21,7.48,2.61,10.9,6.31,3.4,3.68,6.06,8.68,6.38,14.09.04.73.04,1.46,0,2.2-.65,10.5-2.04,12.16-5.82,16.67l-.46.54c-1.64,1.96-.45,3.75.33,4.93l.09.14c5.58,8.45,11.29,15.77,17.21,22.38,5.92,6.62,12.07,12.55,18.53,18.24,6.37,5.61,11.88,8.39,17.28,8.79,5.39.4,10.72-1.57,16.73-5.45,7.35-4.76,14.5-10.75,21.38-17.71,7.33-7.41,14.36-15.9,21.01-25.13.96-1.34,1.52-2.45,1.57-3.48.05-1-.39-1.96-1.41-3.05-2.23-2.35-3.71-4.99-4.6-7.87-.88-2.87-1.16-5.98-.97-9.3.34-5.95,2.41-10.89,5.35-14.61,3.39-4.29,7.94-6.97,12.35-7.73.51-.09,1.02-.11,1.52-.08,1.7.11,3.31.87,4.54,1.94.62.54,1.15,1.15,1.56,1.8h0Zm-151.07,1.75c0,.39-.01.78,0,1.19.43,2.25,1.25,3.94,2.55,5.11,1.32,1.18,3.15,1.85,5.63,2.07,2.39.22,4.36-.19,5.99-1.23,1.61-1.03,2.91-2.7,3.98-5.02-.14-.16-.28-.32-.42-.47-3.24-3.51-7.14-5.78-10.18-5.97-.25-.02-.5-.02-.73,0-2.46.14-4.26.6-5.4,1.5-.83.66-1.3,1.58-1.41,2.82h0Zm143.63-4.37c-3.84.66-7.79,2.87-10.9,6.39,1.31,1.82,3,3.51,5.08,4.56,1.8.91,3.9,1.35,6.31.98,1.5-.23,2.93-.7,4.11-1.68,1.18-.97,2.12-2.46,2.64-4.73.01-.23,0-.46-.05-.7-.19-1.12-.94-2.29-2.01-3.21-1.07-.92-2.46-1.58-3.91-1.68-.42-.03-.85,0-1.28.07h0Z"/>
      <path class="cls-7" d="m217.52,9.52c.73-1.78,1.83-3.11,3.65-3.61-7.72-5.07-17.69-4.93-25.75-4.82h-.77c-5.33.08-10.65.36-15.34,1.63-2.59.7-4.99,1.72-7.09,3.16,1.87.48,3,1.82,3.74,3.63.77,1.9,1.12,4.33,1.46,6.86.22,1.63.23,3.02-.02,4.26-.25,1.25-.77,2.36-1.59,3.44l-.02.03c-.4.51-.84.73-1.27.76h-.13c4.52,3.48,11.95,3.63,18.86,3.77l1.74.04c5.06.12,10.6-.19,15.35-1.05,3.4-.62,6.38-1.53,8.49-2.77-.38-.06-.76-.29-1.11-.74l-.02-.03c-.83-1.07-1.34-2.18-1.59-3.43-.25-1.24-.25-2.62-.02-4.26.34-2.53.69-4.95,1.46-6.86h0Z"/>
      <path class="cls-14" d="m176.98,20.55c.24-1.19.24-2.52.02-4.09-.26-.69-.66-1.11-1.09-1.35-.59-.33-1.23-.32-1.67-.18-.95.3-1.6.85-2.03,1.52-.54.83-.73,1.85-.75,2.82-.02,1.03.14,1.95.48,2.75.34.79.86,1.47,1.57,2.04l.02.02c.3.23.62.37.94.36.32-.02.64-.19.96-.59l.02-.03c.78-1.02,1.27-2.07,1.51-3.26h0Z"/>
      <path class="cls-14" d="m216.48,16.46c-.21,1.58-.21,2.91.02,4.09.24,1.19.73,2.23,1.52,3.26l.02.03c.32.41.65.58.96.59.32.02.64-.13.94-.36l.02-.02c.71-.56,1.24-1.24,1.57-2.04.34-.8.5-1.71.48-2.75-.01-.97-.21-1.99-.75-2.82-.43-.66-1.08-1.21-2.03-1.52-.44-.14-1.09-.15-1.67.18-.43.24-.84.66-1.09,1.35h0Z"/>
      <path class="cls-9" d="m210.4,28.03c-4.77.87-10.34,1.18-15.43,1.06l-1.73-.04c-7.68-.15-15.98-.32-20.41-5.03-.55-.53-.98-1.14-1.27-1.83-.36-.86-.53-1.83-.52-2.92.02-1.04.23-2.14.82-3.04.48-.74,1.2-1.35,2.25-1.69.53-.17,1.31-.18,2.01.2.26.14.52.34.74.61-.3-2.1-.64-4.08-1.29-5.66-.74-1.81-1.88-3.1-3.81-3.46-1.47,1.09-2.79,2.4-3.91,3.99-1.63,2.32-2.88,5.36-3.82,8.69-1.19,4.2-1.91,8.84-2.33,13.05l-.05.49-.49-.02c-9.44-.29-16.43,1.02-21.88,3.77-5.43,2.74-9.35,6.93-12.64,12.42-1.45,2.42-2.79,4.7-3.75,7.49-.63,1.81-1.09,3.85-1.34,6.3.18-.19.37-.37.58-.54,1.32-1.05,3.32-1.57,5.99-1.73.28-.02.57-.01.86,0,3.3.21,7.48,2.61,10.9,6.31,3.4,3.68,6.06,8.68,6.38,14.09.04.73.04,1.46,0,2.2-.65,10.5-2.04,12.16-5.82,16.67l-.46.54c-1.64,1.96-.45,3.75.33,4.93l.09.14c5.58,8.45,11.29,15.77,17.21,22.38,5.92,6.62,12.07,12.55,18.53,18.24,6.37,5.61,11.88,8.39,17.28,8.79,5.39.4,10.72-1.57,16.73-5.45,7.35-4.76,14.5-10.75,21.38-17.71,7.33-7.41,14.36-15.9,21.01-25.13.96-1.34,1.52-2.45,1.57-3.48.05-1-.39-1.96-1.41-3.05-2.23-2.35-3.71-4.99-4.6-7.87-.88-2.87-1.16-5.98-.97-9.3.34-5.95,2.41-10.89,5.35-14.61,3.39-4.29,7.94-6.97,12.35-7.73.51-.09,1.02-.11,1.52-.08,1.7.11,3.31.87,4.54,1.94.62.54,1.15,1.15,1.56,1.8-.04-2.7-.68-5.52-1.78-8.35-1.68-4.33-4.44-8.71-7.8-12.81-3.48-4.24-7.93-6.93-13.1-8.46-5.2-1.54-11.13-1.93-17.52-1.55l-.51.03-.05-.51-.1-1.15c-.72-8.09-1.59-17.74-8.15-23.35-.58-.49-1.17-.95-1.78-1.38-1.89.38-3,1.66-3.73,3.44-.65,1.59-.99,3.57-1.29,5.66.22-.27.47-.47.73-.61.7-.38,1.48-.38,2.01-.2,1.05.34,1.78.95,2.25,1.69.59.91.8,2,.82,3.04.02,1.09-.15,2.07-.52,2.92-.37.86-.93,1.59-1.7,2.2l-.03.02-.1.07c-2.15,1.65-5.64,2.8-9.7,3.55h0Zm-52.06,61.49c0-14.99,4.3-28.57,11.23-38.41,6.98-9.89,16.64-16.01,27.32-16.01s20.34,6.12,27.32,16.01c6.94,9.84,11.23,23.42,11.23,38.41s-4.29,28.57-11.23,38.41c-6.98,9.89-16.64,16.01-27.32,16.01s-20.34-6.12-27.32-16.01c-6.94-9.84-11.23-23.42-11.23-38.41h0Z"/>
      <path class="cls-14" d="m258.41,71.69c2.32-4.62,6.68-8.65,9.97-10.06-.66-.3-1.38-.48-2.11-.54-.42-.03-.85,0-1.28.07-3.84.66-7.79,2.87-10.9,6.39,1.14,1.59,2.59,3.09,4.32,4.14h0Z"/>
      <path class="cls-14" d="m264.95,66.41c-.8,0-1.46.64-1.48,1.44,0,.81.64,1.47,1.44,1.48.81.01,1.47-.64,1.48-1.44.01-.8-.63-1.47-1.44-1.48h0Z"/>
      <path class="cls-14" d="m128.97,69.29c.8.01,1.47-.64,1.48-1.44.01-.81-.64-1.47-1.44-1.48-.81,0-1.47.64-1.48,1.44,0,.81.64,1.47,1.44,1.48h0Z"/>
      <path class="cls-14" d="m126.73,61.33c3.48,2.8,6.58,6.54,8.85,11.3,1.58-1.04,2.87-2.69,3.93-4.99l-.42-.47c-3.24-3.51-7.14-5.78-10.18-5.97-.25-.02-.5-.02-.74,0-.5.03-.98.07-1.44.13h0Z"/>
      <path class="cls-7" d="m127.53,67.82c.01-.8.67-1.45,1.48-1.44.8.01,1.45.67,1.44,1.48,0,.81-.67,1.45-1.48,1.44-.8,0-1.45-.67-1.44-1.48h0Zm8.05,4.82c-2.27-4.76-5.37-8.5-8.85-11.3-1.73.22-3.05.66-3.95,1.37-.83.66-1.3,1.58-1.41,2.82,0,.39-.01.78,0,1.19.43,2.25,1.25,3.94,2.55,5.11,1.32,1.18,3.15,1.85,5.63,2.07,2.39.22,4.36-.19,5.99-1.23.02-.01.03-.02.05-.03h0Z"/>
      <path class="cls-7" d="m266.39,67.89c0,.81-.67,1.45-1.48,1.44-.8,0-1.45-.67-1.44-1.48.01-.81.67-1.45,1.48-1.44.81.01,1.45.67,1.44,1.48h0Zm1.99-6.26c-3.29,1.41-7.65,5.45-9.97,10.06.25.15.5.29.76.42,1.8.91,3.9,1.35,6.31.98,1.5-.23,2.93-.7,4.11-1.68,1.18-.97,2.12-2.46,2.64-4.73.01-.23,0-.46-.05-.7-.19-1.12-.94-2.29-2.01-3.21-.53-.46-1.14-.85-1.8-1.14h0Z"/>
      <path class="cls-5" d="m207.88,494.05c.66.94,1.74,1.69,3.08,2.33,1.33.63,2.91,1.15,4.59,1.62.25-1.22.39-2.49.39-3.79,0-5.13-2.08-9.78-5.44-13.14-1.85-1.85-4.09-3.31-6.58-4.25.62,1.73,1.37,3.12,2.07,4.44,1.87,3.5,3.43,6.42,1.9,12.79h0Zm7.27,5.49c-1.76-.5-3.43-1.04-4.87-1.73-1.54-.73-2.81-1.62-3.65-2.77-2.36.28-4.6.42-6.5.15-1.86-.26-3.39-.91-4.4-2.17-2.32,1.65-4.42,3.7-6.38,5.97l-.06.07c3.15,5.4,7.64,6.16,12.67,7.02,2.5.43,5.13.88,7.85,1.9.23-.21.46-.43.68-.65,2.15-2.15,3.77-4.82,4.66-7.8h0Zm-6.79,9.63c-2.27-.75-4.52-1.14-6.68-1.5-5.27-.9-9.98-1.7-13.48-7.3-1.61,1.99-3.14,4.13-4.64,6.32.2.23.41.45.63.66,3.36,3.36,8.01,5.44,13.14,5.44,4.12,0,7.94-1.34,11.02-3.62h0Zm-25.85-3.76c1.8-2.61,3.64-5.14,5.62-7.45,2.1-2.44,4.35-4.62,6.87-6.38-.6-2.08-1.06-4.36-1.32-6.7-3.16,1.8-5.73,4.02-7.93,6.53-2.34,2.67-4.26,5.67-6,8.8.64,1.89,1.58,3.64,2.76,5.2h0Zm-3.35-7.36c1.58-2.71,3.33-5.3,5.4-7.68,2.45-2.79,5.35-5.26,8.97-7.21-.16-2.39-.11-4.82.21-7.18-3.69.72-6.98,2.54-9.54,5.09-3.36,3.36-5.44,8.01-5.44,13.14,0,1.31.14,2.6.4,3.84h0Zm16.23-22.32c-.38,2.45-.44,5-.26,7.51.21,2.94.76,5.81,1.53,8.35.69,1.2,2,1.79,3.68,2.03,1.72.24,3.81.11,6.03-.15,1.31-5.65-.11-8.3-1.79-11.46-.88-1.65-1.83-3.43-2.55-5.79-1.5-.39-3.07-.59-4.68-.59-.66,0-1.31.04-1.95.1h0Zm-12.32,4.21c3.65-3.65,8.7-5.91,14.27-5.91s10.62,2.26,14.27,5.91c3.65,3.65,5.91,8.69,5.91,14.27s-2.26,10.61-5.91,14.27c-3.65,3.65-8.7,5.91-14.27,5.91s-10.61-2.26-14.27-5.91c-3.65-3.65-5.91-8.7-5.91-14.27s2.26-10.62,5.91-14.27h0Z"/>
      <path class="cls-7" d="m210.29,497.81c-1.54-.73-2.81-1.62-3.65-2.77-2.36.28-4.6.42-6.5.15-1.86-.26-3.39-.91-4.4-2.17-2.32,1.65-4.42,3.7-6.38,5.97l-.06.07c3.15,5.4,7.64,6.16,12.67,7.02,2.5.43,5.13.88,7.85,1.9.23-.21.46-.43.68-.65,2.15-2.15,3.77-4.82,4.66-7.8-1.76-.5-3.43-1.04-4.87-1.73h0Z"/>
      <path class="cls-7" d="m201.69,507.66c-5.27-.9-9.98-1.7-13.48-7.3-1.61,1.99-3.14,4.13-4.64,6.32.2.23.41.45.63.66,3.36,3.36,8.01,5.44,13.14,5.44,4.12,0,7.94-1.34,11.02-3.62-2.27-.75-4.52-1.14-6.68-1.5h0Z"/>
      <path class="cls-7" d="m182.52,505.41c1.8-2.61,3.64-5.14,5.62-7.45,2.1-2.44,4.35-4.62,6.87-6.38-.6-2.08-1.06-4.36-1.32-6.7-3.16,1.8-5.73,4.02-7.93,6.53-2.34,2.67-4.26,5.67-6,8.8.64,1.89,1.58,3.64,2.76,5.2h0Z"/>
      <path class="cls-7" d="m184.57,490.36c2.45-2.79,5.35-5.26,8.97-7.21-.16-2.39-.11-4.82.21-7.18-3.69.72-6.98,2.54-9.54,5.09-3.36,3.36-5.44,8.01-5.44,13.14,0,1.31.14,2.6.4,3.84,1.58-2.71,3.33-5.3,5.4-7.68h0Z"/>
      <path class="cls-7" d="m195.14,483.24c.21,2.94.76,5.81,1.53,8.35.69,1.2,2,1.79,3.68,2.03,1.72.24,3.81.11,6.03-.15,1.31-5.65-.11-8.3-1.79-11.46-.88-1.65-1.83-3.43-2.55-5.79-1.5-.39-3.07-.59-4.68-.59-.66,0-1.31.04-1.95.1-.38,2.45-.44,5-.26,7.51h0Z"/>
      <path class="cls-7" d="m205.99,481.25c1.87,3.5,3.43,6.42,1.9,12.79.66.94,1.74,1.69,3.08,2.33,1.33.63,2.91,1.15,4.59,1.62.25-1.22.39-2.49.39-3.79,0-5.13-2.08-9.78-5.44-13.14-1.85-1.85-4.09-3.31-6.58-4.25.62,1.73,1.37,3.12,2.07,4.44h0Z"/>
      <path class="cls-10" d="m189.37,196.64v23.62s-8.55,13.78-8.55,13.78c-1.54,2.49-5.34,1.84-5.34-1.41v-29.61l-34.28-44.11c-4.83-6.22-15.1-9.61-22.64-4.19-8.07,5.81-9.01,18.41-6.13,26.84l61.44,179.97c.28.82.83,1.47,1.56,2,.87.63,1.12-.19,1.12-.62l.05-32.12,9.9-14.06c1.43-2.04,2.93-1.24,2.93,1.07v100.66c0,6.06-7.31,5.84-8.66,2l-83.59-236.36c-5.9-18.53.84-33.06,13.84-41.74,14.6-9.74,31.88-4.65,41.06,7l37.29,47.28Z"/>
      <path class="cls-10" d="m205.28,417.22v-218.48l35.21-48.71c13.52-13.14,28.47-19.79,45.68-7.2,17.39,12.72,18.02,31.26,7.43,44.77l-74.93,95.62.56,107.22-4.39,27.56c-.37,2.3-2.26,5.1-4.95,4.95-2.93-.17-4.61-3.29-4.61-5.74h0Zm70.99-261.23c10.93,8.58,7.38,19.79-.11,29.03l-61.09,75.38.11-55.8,32.85-42.52c7.55-9.78,18.39-13.81,28.24-6.08h0Z"/>
      <path class="cls-13" d="m205.28,417.22v-218.48l35.21-48.71c13.52-13.14,28.47-19.79,45.68-7.2,17.39,12.72,18.02,31.26,7.43,44.77l-74.93,95.62.56,107.22-4.39,27.56c-.37,2.3-2.26,5.1-4.95,4.95-2.93-.17-4.61-3.29-4.61-5.74h0Zm-15.91-196.96l-8.54,13.78c-1.54,2.49-5.34,1.84-5.34-1.41v-29.61l-34.28-44.11c-4.83-6.22-15.1-9.61-22.64-4.19-8.07,5.81-9.01,18.41-6.13,26.84l61.44,179.97c.28.82.83,1.47,1.56,2,.87.63,1.12-.19,1.12-.62l.05-32.12,9.9-14.06c1.43-2.04,2.93-1.24,2.93,1.07v100.66c0,6.06-7.31,5.84-8.66,2l-83.59-236.36c-5.9-18.53.84-33.06,13.84-41.74,14.6-9.74,31.88-4.65,41.06,7l37.29,47.28v23.62Zm-109.95-35.45l98.5,269.72c5.23,14.32,28.39,16.99,34.43.9l105.05-280.28c2.19-5.84,3.06-12.52,2.95-18.75-.21-12.03-4.94-20.45-14.85-25.65l-50.64-26.56c-.29.81-.79,1.65-1.46,2.58-6.68,9.28-13.74,17.81-21.11,25.26-6.93,7.01-14.14,13.05-21.55,17.85-6.2,4.01-11.74,6.04-17.38,5.62-5.64-.42-11.35-3.28-17.91-9.05-6.47-5.7-12.65-11.66-18.61-18.33-5.97-6.66-11.7-14.02-17.31-22.5l-.09-.14c-.35-.52-.77-1.15-1.05-1.86l-51.69,28.71c-10,5.55-12.49,13.69-12.54,24.52-.05,9.62,1.99,18.92,5.28,27.96h0Z"/>
      <path class="cls-13" d="m215.07,260.39l61.09-75.38c7.48-9.24,11.04-20.45.11-29.03-9.84-7.73-20.68-3.7-28.24,6.08l-32.85,42.52-.11,55.8Z"/>
    </g>
  </g>
</svg>