<?xml version="1.0" encoding="UTF-8"?>
<svg id="Layer_2" data-name="Layer 2" xmlns="http://www.w3.org/2000/svg" xmlns:xlink="http://www.w3.org/1999/xlink" viewBox="0 0 319.92 409.92">
  <defs>
    <style>
      .cls-1 {
        clip-path: url(#clippath);
      }

      .cls-2, .cls-3 {
        fill: none;
      }

      .cls-2, .cls-4, .cls-5, .cls-6, .cls-7, .cls-8, .cls-9 {
        stroke-width: 0px;
      }

      .cls-10 {
        clip-path: url(#clippath-1);
      }

      .cls-3 {
        stroke: #1b1918;
        stroke-width: .16px;
      }

      .cls-4 {
        fill: #1b1918;
      }

      .cls-4, .cls-5, .cls-6, .cls-7, .cls-8, .cls-9 {
        fill-rule: evenodd;
      }

      .cls-5 {
        fill: #e20e0d;
      }

      .cls-6 {
        fill: #e0181a;
      }

      .cls-7 {
        fill: #fff;
      }

      .cls-8 {
        fill: #fff9ff;
      }

      .cls-9 {
        fill: #9e5737;
      }
    </style>
    <clipPath id="clippath">
      <rect class="cls-2" width="319.92" height="409.92"/>
    </clipPath>
    <clipPath id="clippath-1">
      <rect class="cls-2" width="319.92" height="409.92"/>
    </clipPath>
  </defs>
  <g id="Ebene_1" data-name="Ebene 1">
    <g>
      <g class="cls-1">
        <path class="cls-4" d="m288.99,60.45l5.67,2.37c7.09,3.39,9.49,8.59,11.1,16.11.15.71.3,1.41.49,2.11,6.51,24.14,10.82,49.35,12.48,74.3,1.47,22.2.87,45.09-3.27,66.98-7.37,38.98-25.34,75.51-50,106.43-26,32.6-59.19,58.78-96.35,77.56-2.83,1.43-5.17,2.43-8.43,2.55-3.4.13-6.12-.81-9.16-2.22-36.28-16.75-69.23-43.94-94.57-74.73-24.29-29.51-44.08-65.44-51.52-103.18C.95,206.1-.62,183.4.36,160.34c1.1-25.65,5.25-51.12,10.9-76.14l.19-.84.29-.77c1.58-4.2,3.45-8.29,6.12-11.92,3.29-4.46,7.45-7.78,12.64-9.79,12.02-4.66,24.16-8.98,36.55-12.59,10.45-3.04,20.97-5.51,31.65-7.58.26-.5.51-1.02.71-1.41.35-.68.69-1.37,1.05-2.05,5.78-10.94,13.36-20.6,23.91-27.29C135.22,3.08,147.4.43,160.13.43h.61c13.59.68,26.74,4.55,37.88,12.5,9.93,7.08,17.2,16.61,21.95,27.67,10.99,1.43,21.93,4.04,32.55,7.16,12.15,3.58,24.12,7.93,35.87,12.69h0Z"/>
      </g>
      <path class="cls-7" d="m271.14,194.56c-1.21-.19-3.51-.2-3.52,2.9l-.07,33.06c0,1.58,1.07,3.03,2.74,3.55,1.66.5,3.5.61,5.49.54,1.69-.06,2.04-1.17,2.03-2.97l-.07-31.76c0-1.66-.74-4.14-2.66-4.52-1.28-.25-2.66-.61-3.94-.81h0Zm4.12-5.45c2.21.39,3.61.5,5.18,1.45,3.8,2.33,4.4,5.35,4.4,7.68l.04,35.43c0,2.36-.22,4.61-1.55,5.94-1.3,1.29-3.28,1.52-5.53,1.49-3.29-.04-6.88-.67-10.15-1.55-2.15-.58-4.19-.94-5.53-2.26-1.32-1.29-1.98-3.12-1.98-5.49v-35.75c0-2.34.38-4.44,1.73-5.79,1.3-1.3,2.67-1.93,4.9-1.95,2.85-.02,5.66.27,8.49.77h0Z"/>
      <path class="cls-7" d="m246.23,185.46c2.24.18,4.56,1.15,5.88,2.46,1.92,1.91,2.41,4.48,2.4,6.82l-.04,6.99c-.01,2.55.29,4.19-.21,8.18-.34,2.8-2.58,6.79-4.47,6.76l5.59,21.5-7.27-.67-4.93-21.45-4.32.07.2,19.21c-.05.61-.34,1.04-1.32.9l-4.66-.03c-1.3-.03-1.98-.78-2.15-2.11l.46-49.82,14.84,1.19Zm-7.29,24.65h2.81c2.02,0,5.11.8,5.1-2.49,0-1.04.01-4.65,0-6.68l-.04-5.98c-.01-2.77-2.17-3.66-4.28-3.64l-3.28.04-.32,18.74Z"/>
      <path class="cls-8" d="m200.58,233.88l.16-41.45c-.07-5.89,2.25-9.61,6.87-9.68,3.54-.05,6.09.09,9.56.25,4.94.62,7.77,4.4,7.68,11.41l-.48,40.56-7.79-.53v-18.77s-8.18-.21-8.18-.21l.25,18.49-8.07-.07Zm12.44-45.08c-2.7-.04-4.88,2.06-4.7,4.25l.05,16.37,8.95.42-.06-16.79c.17-2.79-1.51-4.21-4.24-4.25h0Z"/>
      <path class="cls-8" d="m172.33,189.19c.03-2.34.68-4.16,2.01-5.5,1.3-1.3,3.35-2.24,5.6-2.26l5.68-.07c2.23-.03,5.68,1.03,6.98,2.33,1.34,1.34,2.91,2.88,2.86,8.28l-.04,3.48-7.84-.07v-4.07c0-2.3-1.72-3.54-3.43-3.57-.26,0-.55-.01-1.06-.02-1.91-.01-3.56,1.61-3.56,3.5v5.23c0,1.76,1.03,3.93,2.14,5.31.99,1.23,2.1,2.1,4.12,2.84,2.94,1.07,5.76,2.18,6.96,3.77,1.61,2.11,2.36,2.6,2.23,7.45l-.25,9.12c-.06,2.36-.59,4.44-1.86,5.83-1.23,1.35-2.62,2.31-4.85,2.34l-5.6.07c-3.34.04-7.04-1.29-8.34-2.58-1.33-1.32-2.17-2.84-2.15-5.2l.04-4.42h6.25c.88,0,1.32.45,1.27,1.5-.04.91-.37,2.82,1,3.57,1.67.91,3.07.98,4.66.53,1.85-.52,2.1-2.92,2.1-3.25v-6.44c0-1.58.09-3.5-1.45-4.3-4.14-2.14-6.72-2.81-10.01-5.27-2.66-1.99-3.61-4.91-3.58-8.18l.1-9.94Z"/>
      <path class="cls-8" d="m167.01,232.75l-18.37-.07v-51.44l19.14.07v5.97l-10.74-.07-.14,16h9.33l-.07,6.26-9.72.03-.11,16.74,10.74.21-.07,6.29Z"/>
      <path class="cls-7" d="m127.37,208.53h2.81c2,0,3.14.21,3.99-.77,1.12-1.29,1.06-2.72,1.09-4.74l.18-11.36c.03-2.22-2.1-4.11-5.09-4.06l-2.92.14-.06,20.78Zm-.19,6.15l-.11,18.43-8.32.63,1.62-52.46,14.41-.03c2.25,0,4.95,1.04,6.27,2.36,1.32,1.32,1.89,3.53,1.84,5.87l-.21,9.05c-.25,10.66.21,11.17-2.42,13.58-2.18,1.99-5.9,2.58-10.27,2.58h-2.8Z"/>
      <path class="cls-7" d="m78.44,193.07c.05-2.34,1.57-4.97,2.91-6.31,1.29-1.3,2.57-2.08,4.81-2.32l7.29-.77c2.22-.23,4.66.77,6.13,2.19,1.36,1.31,1.78,3.73,1.77,6.07l-.04,5.31-7.66.67.11-5.65c.01-.8-1.15-1.88-2.38-1.98-1.46-.12-2.28-.21-3.68.67-1.21.75-1.76,1.77-1.76,3.04l-.02,8.01c0,1.36.43,1.93,1.94,2.89.63.41,1.45.75,2.43,1.27.33.18.78.4,1.34.71.47.23.92.5,1.41.69,2.98,1.22,4.84,2.11,5.98,3.49,1.69,2.05,1.37,4.75,1.31,7.98l-.12,7.67c-.03,2.11-.87,4.32-2.21,5.64-1.3,1.29-2.34,1.92-4.44,2.67-2.37.84-4.66,1.33-6.94,1.3-2.63-.03-5.74-.6-7.11-1.81-1.82-1.6-2.63-4.05-2.29-6.75l.42-3.37,7.3-.26c-.04.54-.05.93-.09,1.57-.14,2.17.86,3.35,1.8,3.65,1.04.34,2.15.22,3.19-.07,1.18-.33,2.46-1.28,2.56-2.23.24-2.56.28-5.07.25-7.88-.02-1.37-.16-2.4-1.52-3.66-1.97-1.84-3.11-1.87-5.55-3.07-2.54-1.25-3.94-1.7-5.63-2.81-2.25-1.49-1.75-4.54-1.68-7.81l.17-8.72Z"/>
      <path class="cls-7" d="m62.83,238.1l1.97-51.51,7.87-1.05-1.76,52.07-8.08.49Z"/>
      <path class="cls-7" d="m45.77,226.69l7.21-35.88c.63-2.84,2.42-4.34,7.9-3.09l-10.27,49.85c-.81,3.6-3.07,2.7-9.75,3.52l-6.83-50.28,7.44-1.12,4.29,37Z"/>
      <path class="cls-5" d="m129.67,150.09v-25.61h-4.54l-6.74,3.18,1.17,3.59,4.76-2.31h.07v21.14h5.27Zm12.67-13.36c-2.78,1.29-4.8,3.56-4.8,6.72,0,3.66,3.15,7.02,9.05,7.02,5.49,0,9.38-3.01,9.38-7.59,0-3.19-2.24-5.4-4.94-6.55v-.07c2.82-1.43,4.07-3.7,4.07-5.77,0-3.22-2.6-6.44-8.09-6.44-4.8,0-8.57,2.71-8.57,6.95,0,2.17,1.35,4.31,3.92,5.63v.1Zm4.39,10.32c-2.34,0-3.77-1.9-3.77-4.07,0-2.04,1.24-3.84,3.33-4.55,2.42.75,4.25,2.34,4.25,4.86,0,2-1.35,3.77-3.81,3.77h0Zm.08-19.64c2.31,0,3.22,1.76,3.22,3.53s-1.28,3.32-2.82,3.9c-2.16-.74-3.7-2.1-3.7-4.07,0-1.63.92-3.36,3.3-3.36h0Zm24.65,11.58c-.81,3.89-3.44,6.98-8.02,7.42-1.29.1-1.83.17-2.68.1v3.93c11.13.47,16.11-6.68,16.11-15.56,0-6.16-3.11-10.83-9.16-10.83-5.64,0-9.23,4.3-9.23,9.09s3.37,7.81,7.65,7.81c2.31,0,4.03-.78,5.2-2l.11.04Zm-3.92-11.38c2.6,0,3.84,2.71,3.84,6.15,0,.98-.07,1.5-.29,1.87-.59.99-1.83,1.94-3.48,1.94-2.19,0-3.73-1.84-3.73-4.86s1.46-5.09,3.66-5.09h0Zm16.7,9.13c-2.79,1.29-4.8,3.56-4.8,6.72,0,3.66,3.15,7.02,9.04,7.02,5.5,0,9.38-3.01,9.38-7.59,0-3.19-2.23-5.4-4.94-6.55v-.07c2.82-1.43,4.07-3.7,4.07-5.77,0-3.22-2.6-6.44-8.09-6.44-4.8,0-8.57,2.71-8.57,6.95,0,2.17,1.36,4.31,3.92,5.63v.1Zm4.39,10.32c-2.34,0-3.77-1.9-3.77-4.07,0-2.04,1.25-3.84,3.33-4.55,2.42.75,4.25,2.34,4.25,4.86,0,2-1.35,3.77-3.81,3.77h0Zm.07-19.64c2.31,0,3.22,1.76,3.22,3.53s-1.28,3.32-2.82,3.9c-2.16-.74-3.7-2.1-3.7-4.07,0-1.63.91-3.36,3.3-3.36h0Z"/>
      <path class="cls-9" d="m156.77,20.82c1.41-1.12,3.39-1.91,5.13-1.83,28.93,1.4,45.29,25.97,44.54,43.98-.03.7-.49.76-.91.39-12.59-11.24-27.14-18.55-44.16-19.79-2.91-.21-5.78-.06-6.89-2.36-4.12-8.52-3-16.19,2.29-20.39h0Z"/>
      <path class="cls-9" d="m159.28,46.34c14.38.02,26.74,6.48,38.67,14.13,2.82,1.94,5.03,4.32,6.89,6.54,1.81,2.17,1.51,4.23,1.07,5.73-.73,3.57-1.66,7.18-2.34,10.76-.13.68-.47,1.38-1.05,2.07-.47.42-.94.84-1.41,1.27-2.59-3.85-6.98-6.03-11.73-6.12-2.09-.04-4.32.59-5.39-.95-4.16-5.97-10.03-8.88-17.58-8.86-3.12,0-6.07-.13-8.65-.74-2.81-.66-6.6-7.11-6.83-12.16-.14-3.16,1.1-7.07,2.71-9.28,1.37-1.88,3.42-2.39,5.63-2.39h0Z"/>
      <path class="cls-9" d="m183.56,86.76c1.14-1.91,2.45-3.47,5.24-3.2,2.65.27,5.01,1,7.14,2.29,1.43.87,2.63,1.71,3.23,2.92.56,1.12.32,3.58-.98,5.17-6.3,7.72-14.06,13.73-23.7,16.67-5.54,1.68-12.12,2.1-20.88,1.83-.92-.03-1.61-.56-2.25-1.12,14.05-5.63,25.5-13.27,32.2-24.54h0Z"/>
      <path class="cls-9" d="m161.68,76.34c.67-1.74,1.64-2.73,3.06-2.71,6.87.11,12.09,2.21,15.78,6.22,1.51,1.64,2.25,3.79.35,6.4-8.45,11.62-19.28,18.76-31.4,22.68-2.33.75-4.82.93-7.17.35-1.48-.36-2.91-.92-4.29-1.55-1.44-.65-2.9-1.3-4.15-2.25-1.72-1.3-3.14-2.95-4.71-4.43,1.58-.71,3.21-1.34,4.75-2.14.61-.32,1.22-.96,1.69-1.48,2.26-2.55,4.77-5.3,6.47-7.7,9.05-.38,17.05-5.04,19.61-13.4h0Z"/>
      <path class="cls-9" d="m137.07,86.85c.6,1.86.28,3.07-.32,4.57-1.16,2.92-2.9,5.11-5.13,5.84-2.33.77-4.94,1.21-6.61-.21-8.08-6.85-12.25-16.82-12.16-30.65.03-4.44.86-9.49,1.48-11.6,2.84-9.78,4.46-14.81,10.19-20.68,1.29-1.32,1.95-.68,1.86.78-.08,1.45-.06,10.91-.04,11.78.02.82-.23.89-.96,1.53-.73.65-2.48,1.03-3.61,1.74-.65.4-1.41.91-1.62,1.69-.3,1.1.35,1.43,1.23,1.42.88-.01,1.93-.46,2.44-.68.51-.23,1.66-.68,3.06-1-.01,1.88.25,4.74.44,7.3-1.27.12-2.8.88-3.8,1.48-1,.59-1.58,1.02-2.14,1.67-.83,1.07-.3,1.48.33,1.58.73.25,1.64.34,2.44-.02,1.26-.57,2.48-1.3,3.73-1.87.68,2.32,1.15,4.89,1.83,7.21-1.36.66-2.72,1.31-4.08,1.97-.76.3-1.3.67-1.67,1.65-.28.55-.21,1.12.4,1.35.83.31,1.83.17,2.88-.33.91-.44,1.83-.84,2.74-1.27,2.3,4.92,5.46,9.76,7.07,14.76h0Z"/>
      <path class="cls-9" d="m129.75,32.47c.04-3.57,5.97-11.58,23.27-12.94-5.62,8.99-4.47,17.44.04,25.28-9.28,10.48-4.83,24.73,5.73,29.71-1.03,4.33-3.23,8.23-9.56,11.18-3.43,1.6-5.39,1.23-8.08.35-1.45-.47-2.74-1.81-3.66-4.01-1.47-3.54-2.74-7.12-4.08-10.72.93-.19,1.88-.29,2.78-.56.64-.2,1.24-.53,1.83-.84.22-.12.48-.24.6-.46.25-.45.19-.57.07-.81-.18-.38-.5-.73-.88-.92-.53-.26-1.16-.43-1.76-.39-1.06.07-2.41.31-3.44.54-.68-2.38-1.02-4.76-1.7-7.14.59-.15,1.89-.27,2.8-.44.62-.12,1.18-.21,1.81-.28.36-.16.9-.14,1.09-.49.21-.37.07-.88-.1-1.27-.15-.34-.44-.73-.81-.77-1.7-.2-3.42.05-5.13.07-.33-2.36-.68-4.71-1.01-7.07.88-.19,1.82-.23,2.69-.44.61-.14,1.29-.29,1.86-.54.31-.14.57-.41.79-.67.25-.3.14-.77.04-1.09-.09-.3-.38-.54-.67-.67-.47-.21-1-.26-1.51-.28-1.02-.05-2.04.05-3.06.07.28-5.53,0-8.88.07-14.41h0Z"/>
      <path class="cls-6" d="m52.98,190.81c.63-2.84,2.42-4.34,7.9-3.09l-10.27,49.85c-.81,3.6-3.07,2.7-9.75,3.52l-6.83-50.28,7.44-1.12,4.29,37,7.21-35.88Zm-19.4-122c13.49-5.23,24.93-9.18,35.85-12.36,10.95-3.19,21.32-5.59,32.66-7.73,2.27-.43,3.25-2.32,4.89-5.54.45-.86.91-1.77,1.01-1.96,5.63-10.66,12.41-18.68,20.94-24.08,8.55-5.42,18.76-8.15,31.21-8.21h.19c12.73.62,24.08,4.3,33.36,10.92,9.05,6.45,16.08,15.65,20.43,27.51.26.71,1.04.88,2.38,1.16.36.08.75.16,1.41.32,9.94,1.18,20.92,3.58,32.81,7.08,12.23,3.61,25.41,8.38,39.38,14.18,5.56,2.31,6.36,6.04,7.34,10.61.17.81.35,1.66.59,2.55,5.98,22.15,10.52,47.31,12.2,72.64,1.47,22.1.74,44.34-3.14,64.84-6.75,35.69-23.16,71.2-48.29,102.72-23.69,29.7-55.13,55.86-93.54,75.28-2.02,1.02-3.2,1.57-4.91,1.64-1.68.06-3.04-.41-5.28-1.44-33.83-15.62-66.15-41.52-91.57-72.41-24.68-29.99-42.9-64.73-49.74-99.42-4.27-21.65-5.89-43.3-4.9-66.39.99-23.01,4.57-47.41,10.7-74.64l.06-.27.08-.22c1.4-3.7,2.93-7.04,5.01-9.87,2.25-3.05,5.06-5.43,8.87-6.91h0Zm-4.05,13.07c-1.05,1.79-1.95,3.84-2.8,6.1-6,26.68-9.5,50.56-10.46,73.02-.18,4.09-.27,8.14-.27,12.15,12.24-2.65,26.46-4.86,42.13-6.62l-28.59-84.65Zm2.89,180.16c8.91,20.96,21.59,41.29,36.8,59.78,17.21,20.91,37.65,39.46,59.56,53.91l-38.35-113.54c18.04-1.48,36.8-2.41,56.17-2.62l13.05,39.1,13.05-38.93c18.26.44,36.98,1.56,56.06,3.52l-38.33,112.34c24.71-16.26,45.66-35.59,62.55-56.77,14.05-17.62,25.29-36.51,33.54-55.97-84.77-12.62-187.63-14.01-254.1-.83h0Zm271.06-89.3c-.07-5.44-.3-10.91-.66-16.36-1.64-24.79-6.11-49.45-11.97-71.19-.21-.77-.38-1.53-.54-2.27l-28.75,84.24c14.37,1.53,28.42,3.38,41.91,5.59h0Zm-64.01-112.21c-8.05-2.05-15.59-3.5-22.58-4.33l-.18-.02-.27-.07c-.31-.08-.92-.2-1.49-.33-3.86-.82-6.13-1.31-7.81-5.87-3.83-10.41-9.93-18.44-17.76-24.02-8.11-5.78-18.11-8.99-29.39-9.55-10.89.07-19.75,2.43-27.09,7.07-7.39,4.68-13.34,11.77-18.36,21.26-.61,1.16-.8,1.52-.98,1.87-2.7,5.26-4.29,8.36-10.12,9.46-8.02,1.52-15.52,3.16-23.07,5.11l33.8,101.3c28.92-1.14,59.98-1.04,90.98.44l34.3-102.34ZM62.83,238.1l1.97-51.51,7.87-1.05-1.76,52.07-8.08.49Zm17.12-28.49c-2.25-1.49-1.75-4.54-1.68-7.81l.17-8.72c.05-2.34,1.57-4.97,2.91-6.31,1.29-1.3,2.57-2.08,4.81-2.32l7.29-.77c2.22-.23,4.66.77,6.13,2.19,1.36,1.31,1.78,3.73,1.77,6.07l-.04,5.31-7.66.67.11-5.65c.01-.8-1.15-1.88-2.38-1.98-1.46-.12-2.28-.21-3.68.67-1.21.75-1.76,1.77-1.76,3.04l-.02,8.01c0,1.36.43,1.93,1.94,2.89.63.41,1.45.75,2.43,1.27.33.18.78.4,1.34.71.47.23.92.5,1.41.69,2.98,1.22,4.84,2.11,5.98,3.49,1.69,2.05,1.37,4.75,1.31,7.98l-.12,7.67c-.03,2.11-.87,4.32-2.21,5.64-1.3,1.29-2.34,1.92-4.44,2.67-2.37.84-4.66,1.33-6.94,1.3-2.63-.03-5.74-.6-7.11-1.81-1.82-1.6-2.63-4.05-2.29-6.75l.42-3.37,7.3-.26c-.04.54-.05.93-.09,1.57-.14,2.17.86,3.35,1.8,3.65,1.04.34,2.15.22,3.19-.07,1.18-.33,2.46-1.28,2.56-2.23.24-2.56.28-5.07.25-7.88-.02-1.37-.16-2.4-1.52-3.66-1.97-1.84-3.11-1.87-5.55-3.07-2.54-1.25-3.94-1.7-5.63-2.81h0Zm38.8,24.13l1.62-52.46,14.41-.03c2.25,0,4.95,1.04,6.27,2.36,1.32,1.32,1.89,3.53,1.84,5.87l-.21,9.05c-.25,10.66.21,11.17-2.42,13.58-2.18,1.99-5.9,2.58-10.27,2.58h-2.8l-.11,18.43-8.32.63Zm29.89-1.05v-51.44l19.14.07v5.97l-10.74-.07-.14,16h9.33l-.07,6.26-9.72.03-.11,16.74,10.74.21-.07,6.29-18.37-.07Zm23.69-43.5c.03-2.34.68-4.16,2.01-5.5,1.3-1.3,3.35-2.24,5.6-2.26l5.68-.07c2.23-.03,5.68,1.03,6.98,2.33,1.34,1.34,2.91,2.88,2.86,8.28l-.04,3.48-7.84-.07v-4.07c0-2.3-1.72-3.54-3.43-3.57-.26,0-.55-.01-1.06-.02-1.91-.01-3.56,1.61-3.56,3.5v5.23c0,1.76,1.03,3.93,2.14,5.31.99,1.23,2.1,2.1,4.12,2.84,2.94,1.07,5.76,2.18,6.96,3.77,1.61,2.11,2.36,2.6,2.23,7.45l-.25,9.12c-.06,2.36-.59,4.44-1.86,5.83-1.23,1.35-2.62,2.31-4.85,2.34l-5.6.07c-3.34.04-7.04-1.29-8.34-2.58-1.33-1.32-2.17-2.84-2.15-5.2l.04-4.42h6.25c.88,0,1.32.45,1.27,1.5-.04.91-.37,2.82,1,3.57,1.67.91,3.07.98,4.66.53,1.85-.52,2.1-2.92,2.1-3.25v-6.44c0-1.58.09-3.5-1.45-4.3-4.14-2.14-6.72-2.81-10.01-5.27-2.66-1.99-3.61-4.91-3.58-8.18l.1-9.94Zm28.25,44.69l.16-41.45c-.07-5.89,2.25-9.61,6.87-9.68,3.54-.05,6.09.09,9.56.25,4.94.62,7.77,4.4,7.68,11.41l-.48,40.56-7.79-.53v-18.77s-8.18-.21-8.18-.21l.25,18.49-8.07-.07Zm30.36.21l.46-49.82,14.84,1.19c2.24.18,4.56,1.15,5.88,2.46,1.92,1.91,2.41,4.48,2.4,6.82l-.04,6.99c-.01,2.55.29,4.19-.21,8.18-.34,2.8-2.58,6.79-4.47,6.76l5.59,21.5-7.27-.67-4.93-21.45-4.32.07.2,19.21c-.05.61-.34,1.04-1.32.9l-4.66-.03c-1.3-.03-1.98-.78-2.15-2.11h0Zm29.2-38.01c0-2.34.38-4.44,1.73-5.79,1.3-1.3,2.67-1.93,4.9-1.95,2.85-.02,5.66.27,8.49.77,2.21.39,3.61.5,5.18,1.45,3.8,2.33,4.4,5.35,4.4,7.68l.04,35.43c0,2.36-.22,4.61-1.55,5.94-1.3,1.29-3.28,1.52-5.53,1.49-3.29-.04-6.88-.67-10.15-1.55-2.15-.58-4.19-.94-5.53-2.26-1.32-1.29-1.98-3.12-1.98-5.49v-35.75Z"/>
      <path class="cls-6" d="m127.43,187.74l-.06,20.78h2.81c2,0,3.14.21,3.99-.77,1.12-1.29,1.06-2.72,1.09-4.74l.18-11.36c.03-2.22-2.1-4.11-5.09-4.06l-2.92.14Z"/>
      <path class="cls-6" d="m208.32,193.04l.05,16.37,8.95.42-.06-16.79c.17-2.79-1.51-4.21-4.24-4.25-2.7-.04-4.88,2.06-4.7,4.25h0Z"/>
      <path class="cls-6" d="m239.27,191.36l-.32,18.74h2.81c2.02,0,5.11.8,5.1-2.49,0-1.04.01-4.65,0-6.68l-.04-5.98c-.01-2.77-2.17-3.66-4.28-3.64l-3.28.04Z"/>
      <path class="cls-6" d="m267.62,197.46l-.07,33.06c0,1.58,1.07,3.03,2.74,3.55,1.66.5,3.5.61,5.49.54,1.69-.06,2.04-1.17,2.03-2.97l-.07-31.76c0-1.66-.74-4.14-2.66-4.52-1.28-.25-2.66-.61-3.94-.81-1.21-.19-3.51-.2-3.52,2.9h0Z"/>
      <path class="cls-7" d="m58.12,166.52l-28.59-84.65c-1.05,1.79-1.95,3.84-2.8,6.1-6,26.68-9.5,50.56-10.46,73.02-.18,4.09-.27,8.14-.27,12.15,12.24-2.65,26.46-4.86,42.13-6.62h0Z"/>
      <path class="cls-7" d="m80.39,61.12l33.8,101.3c28.92-1.14,59.98-1.04,90.98.44l34.3-102.34c-8.05-2.05-15.59-3.5-22.58-4.33l-.18-.02-.27-.07c-.31-.08-.92-.2-1.49-.33-3.86-.82-6.13-1.31-7.81-5.87-3.83-10.41-9.93-18.44-17.76-24.02-8.11-5.78-18.11-8.99-29.39-9.55-10.89.07-19.75,2.43-27.09,7.07-7.39,4.68-13.34,11.77-18.36,21.26-.61,1.16-.8,1.52-.98,1.87-2.7,5.26-4.29,8.36-10.12,9.46-8.02,1.52-15.52,3.16-23.07,5.11h0Zm51.24,36.13c-2.33.77-4.94,1.21-6.61-.21-8.08-6.85-12.25-16.82-12.16-30.65.03-4.44.86-9.49,1.48-11.6,2.84-9.78,4.46-14.81,10.19-20.68,1.29-1.32,1.95-.68,1.86.78-.08,1.45-.06,10.91-.04,11.78.02.82-.23.89-.96,1.53-.73.65-2.48,1.03-3.61,1.74-.65.4-1.41.91-1.62,1.69-.3,1.1.35,1.43,1.23,1.42.88-.01,1.93-.46,2.44-.68.51-.23,1.66-.68,3.06-1-.01,1.88.25,4.74.44,7.3-1.27.12-2.8.88-3.8,1.48-1,.59-1.58,1.02-2.14,1.67-.83,1.07-.3,1.48.33,1.58.73.25,1.64.34,2.44-.02,1.26-.57,2.48-1.3,3.73-1.87.68,2.32,1.15,4.89,1.83,7.21l-4.08,1.97c-.76.3-1.3.67-1.67,1.65-.28.55-.21,1.12.4,1.35.83.31,1.83.17,2.88-.33.91-.44,1.83-.84,2.74-1.27,2.3,4.92,5.46,9.76,7.07,14.76.6,1.86.28,3.07-.32,4.57-1.16,2.92-2.9,5.11-5.13,5.84h0Zm2.25,8.23c-1.72-1.3-3.14-2.95-4.71-4.43,1.58-.71,3.21-1.34,4.75-2.14.61-.32,1.22-.96,1.69-1.48,2.26-2.55,4.77-5.3,6.47-7.7,9.05-.38,17.05-5.04,19.61-13.4.67-1.74,1.64-2.73,3.06-2.71,6.87.11,12.09,2.21,15.78,6.22,1.51,1.64,2.25,3.79.35,6.4-8.45,11.62-19.28,18.76-31.4,22.68-2.33.75-4.82.93-7.17.35-1.48-.36-2.91-.92-4.29-1.55-1.44-.65-2.9-1.3-4.15-2.25h0Zm50.12-25.7c-4.16-5.97-10.03-8.88-17.58-8.86-3.12,0-6.07-.13-8.65-.74-2.81-.66-6.6-7.11-6.83-12.16-.14-3.16,1.1-7.07,2.71-9.28,1.37-1.88,3.42-2.39,5.63-2.39,14.38.02,26.74,6.48,38.67,14.13,2.82,1.94,5.03,4.32,6.89,6.54,1.81,2.17,1.51,4.23,1.07,5.73-.73,3.57-1.66,7.18-2.34,10.76-.13.68-.47,1.38-1.05,2.07l-1.41,1.27c-2.59-3.85-6.98-6.03-11.73-6.12-2.09-.04-4.32.59-5.39-.95h0Zm-46.5,2.27c-1.47-3.54-2.74-7.12-4.08-10.72.93-.19,1.88-.29,2.78-.56.64-.2,1.24-.53,1.83-.84.22-.12.48-.24.6-.46.25-.45.19-.57.07-.81-.18-.38-.5-.73-.88-.92-.53-.26-1.16-.43-1.76-.39-1.06.07-2.41.31-3.44.54-.68-2.38-1.02-4.76-1.7-7.14.59-.15,1.89-.27,2.8-.44.62-.12,1.18-.21,1.81-.28.36-.16.9-.14,1.09-.49.21-.37.07-.88-.1-1.27-.15-.34-.44-.73-.81-.77-1.7-.2-3.42.05-5.13.07l-1.01-7.07c.88-.19,1.82-.23,2.69-.44.61-.14,1.29-.29,1.86-.54.31-.14.57-.41.79-.67.25-.3.14-.77.04-1.09-.09-.3-.38-.54-.67-.67-.47-.21-1-.26-1.51-.28-1.02-.05-2.04.05-3.06.07.28-5.53,0-8.88.07-14.41.04-3.57,5.97-11.58,23.27-12.94-5.62,8.99-4.47,17.44.04,25.28-9.28,10.48-4.83,24.73,5.73,29.71-1.03,4.33-3.23,8.23-9.56,11.18-3.43,1.6-5.39,1.23-8.08.35-1.45-.47-2.74-1.81-3.66-4.01h0Zm23.88-38.48c-2.91-.21-5.78-.06-6.89-2.36-4.12-8.52-3-16.19,2.29-20.39,1.41-1.12,3.39-1.91,5.13-1.83,28.93,1.4,45.29,25.97,44.54,43.98-.03.7-.49.76-.91.39-12.59-11.24-27.14-18.55-44.16-19.79h0Zm22.19,43.2c1.14-1.91,2.45-3.47,5.24-3.2,2.65.27,5.01,1,7.14,2.29,1.43.87,2.63,1.71,3.23,2.92.56,1.12.32,3.58-.98,5.17-6.3,7.72-14.06,13.73-23.7,16.67-5.54,1.68-12.12,2.1-20.88,1.83-.92-.03-1.61-.56-2.25-1.12,14.05-5.63,25.5-13.27,32.2-24.54h0Zm-65.17,40.91l6.74-3.18h4.54v25.61h-5.27v-21.14h-.07l-4.76,2.31-1.17-3.59Zm19.15,15.78c0-3.16,2.02-5.43,4.8-6.72v-.1c-2.56-1.32-3.92-3.46-3.92-5.63,0-4.24,3.77-6.95,8.57-6.95,5.49,0,8.09,3.22,8.09,6.44,0,2.07-1.25,4.34-4.07,5.77v.07c2.71,1.15,4.94,3.36,4.94,6.55,0,4.58-3.88,7.59-9.38,7.59-5.9,0-9.05-3.35-9.05-7.02h0Zm28.6-2.5c-4.29,0-7.65-3.01-7.65-7.81s3.59-9.09,9.23-9.09c6.04,0,9.16,4.68,9.16,10.83,0,8.88-4.98,16.03-16.11,15.56v-3.93c.84.07,1.39,0,2.68-.1,4.58-.44,7.21-3.52,8.02-7.42l-.11-.04c-1.17,1.22-2.89,2-5.2,2h0Zm13.3,2.5c0-3.16,2.01-5.43,4.8-6.72v-.1c-2.56-1.32-3.92-3.46-3.92-5.63,0-4.24,3.77-6.95,8.57-6.95,5.49,0,8.09,3.22,8.09,6.44,0,2.07-1.25,4.34-4.07,5.77v.07c2.71,1.15,4.94,3.36,4.94,6.55,0,4.58-3.88,7.59-9.38,7.59-5.89,0-9.04-3.35-9.04-7.02h0Z"/>
      <path class="cls-7" d="m146.81,127.4c-2.38,0-3.3,1.73-3.3,3.36,0,1.96,1.54,3.33,3.7,4.07,1.54-.57,2.82-2.17,2.82-3.9s-.91-3.53-3.22-3.53h0Z"/>
      <path class="cls-7" d="m146.3,138.42c-2.09.71-3.33,2.51-3.33,4.55,0,2.17,1.43,4.07,3.77,4.07s3.81-1.76,3.81-3.77c0-2.51-1.83-4.11-4.25-4.86h0Z"/>
      <path class="cls-7" d="m163.88,132.7c0,3.03,1.54,4.86,3.73,4.86,1.65,0,2.9-.95,3.48-1.94.22-.37.29-.89.29-1.87,0-3.44-1.25-6.15-3.84-6.15-2.2,0-3.66,2.17-3.66,5.09h0Z"/>
      <path class="cls-7" d="m185.41,130.76c0,1.96,1.54,3.33,3.7,4.07,1.54-.57,2.82-2.17,2.82-3.9s-.92-3.53-3.22-3.53-3.3,1.73-3.3,3.36h0Z"/>
      <path class="cls-7" d="m188.19,138.42c-2.09.71-3.33,2.51-3.33,4.55,0,2.17,1.43,4.07,3.77,4.07s3.81-1.76,3.81-3.77c0-2.51-1.83-4.11-4.25-4.86h0Z"/>
      <path class="cls-7" d="m290.31,82.9l-28.75,84.24c14.37,1.53,28.42,3.38,41.91,5.59-.07-5.44-.3-10.91-.66-16.36-1.64-24.79-6.11-49.45-11.97-71.19-.21-.77-.38-1.53-.54-2.27h0Z"/>
      <g class="cls-10">
        <path class="cls-7" d="m128.79,375.72l-38.35-113.54c18.04-1.48,36.8-2.41,56.17-2.62l13.05,39.1,13.05-38.93c18.26.44,36.98,1.56,56.06,3.52l-38.33,112.34c24.71-16.26,45.66-35.59,62.55-56.77,14.05-17.62,25.29-36.51,33.54-55.97-84.77-12.62-187.63-14.01-254.1-.83,8.91,20.96,21.59,41.29,36.8,59.78,17.21,20.91,37.65,39.46,59.56,53.91h0Z"/>
        <path class="cls-7" d="m8.86,160.7c.99-23.01,4.57-47.41,10.7-74.64l.06-.27.08-.22c1.4-3.7,2.93-7.04,5.01-9.87,2.25-3.05,5.06-5.43,8.87-6.91,13.49-5.23,24.93-9.18,35.85-12.36,10.95-3.19,21.32-5.59,32.66-7.73,2.27-.43,3.25-2.32,4.89-5.54l1.01-1.96c5.63-10.66,12.41-18.68,20.94-24.08,8.55-5.42,18.76-8.15,31.21-8.21h.19c12.73.62,24.08,4.3,33.36,10.92,9.05,6.45,16.08,15.65,20.43,27.51.26.71,1.04.88,2.38,1.16.36.08.75.16,1.41.32,9.94,1.18,20.92,3.58,32.81,7.08,12.23,3.61,25.41,8.38,39.38,14.18,5.56,2.31,6.36,6.04,7.34,10.61.17.81.35,1.66.59,2.55,5.98,22.15,10.52,47.31,12.2,72.64,1.47,22.1.74,44.34-3.14,64.84-6.75,35.69-23.16,71.2-48.29,102.72-23.69,29.7-55.13,55.86-93.54,75.28-2.02,1.02-3.2,1.57-4.91,1.64-1.68.06-3.04-.41-5.28-1.44-33.83-15.62-66.15-41.52-91.57-72.41-24.68-29.99-42.9-64.73-49.74-99.42-4.27-21.65-5.89-43.3-4.9-66.39h0Zm297.38-79.66c-.19-.7-.34-1.41-.49-2.11-1.61-7.52-4.01-12.71-11.1-16.11l-5.67-2.37c-11.75-4.76-23.72-9.11-35.87-12.69-10.61-3.13-21.56-5.73-32.55-7.16-4.75-11.06-12.03-20.59-21.95-27.67-11.14-7.95-24.29-11.82-37.88-12.49h-.21s-.39,0-.39,0c-12.74,0-24.91,2.66-35.76,9.53-10.55,6.68-18.13,16.35-23.91,27.29-.36.68-.7,1.37-1.05,2.05-.2.39-.45.91-.71,1.41-10.68,2.06-21.2,4.54-31.65,7.58-12.38,3.61-24.53,7.93-36.55,12.59-5.2,2.02-9.36,5.33-12.64,9.79-2.67,3.63-4.54,7.72-6.12,11.92l-.29.77-.19.84C5.61,109.22,1.46,134.69.36,160.34c-.99,23.07.59,45.77,5.05,68.41,7.45,37.74,27.23,73.67,51.52,103.18,25.33,30.79,58.29,57.98,94.57,74.73,3.05,1.41,5.76,2.35,9.16,2.22,3.25-.12,5.59-1.12,8.43-2.55,37.16-18.78,70.35-44.96,96.35-77.56,24.66-30.92,42.62-67.46,50-106.43,4.14-21.9,4.75-44.78,3.27-66.98-1.65-24.95-5.96-50.16-12.48-74.3h0Z"/>
        <path class="cls-3" d="m198.62,12.92c9.93,7.08,17.2,16.61,21.95,27.67,10.99,1.43,21.93,4.04,32.55,7.16,12.15,3.58,24.12,7.93,35.87,12.69l5.67,2.37c7.09,3.39,9.49,8.59,11.1,16.11.15.71.3,1.41.49,2.11,6.51,24.14,10.82,49.35,12.48,74.3,1.47,22.2.87,45.09-3.27,66.99-7.37,38.98-25.34,75.51-50,106.43-26,32.6-59.19,58.78-96.35,77.56-2.83,1.43-5.17,2.43-8.43,2.55-3.4.13-6.12-.81-9.16-2.22-36.28-16.75-69.23-43.94-94.57-74.73-24.29-29.51-44.08-65.44-51.52-103.18C.95,206.1-.62,183.4.36,160.34c1.1-25.65,5.25-51.12,10.9-76.14l.19-.84.29-.77c1.58-4.2,3.45-8.29,6.12-11.92,3.29-4.46,7.45-7.78,12.64-9.79,12.02-4.66,24.16-8.98,36.55-12.59,10.45-3.04,20.97-5.52,31.65-7.58.26-.5.51-1.02.71-1.41.35-.68.69-1.37,1.05-2.05,5.78-10.94,13.36-20.61,23.91-27.29C135.22,3.08,147.4.43,160.13.43h.61c13.59.68,26.74,4.55,37.88,12.5h0Z"/>
      </g>
    </g>
  </g>
</svg>