<?xml version="1.0" encoding="UTF-8"?>
<svg id="Layer_2" data-name="Layer 2" xmlns="http://www.w3.org/2000/svg" xmlns:xlink="http://www.w3.org/1999/xlink" viewBox="0 0 431.76 502.8">
  <defs>
    <style>
      .cls-1 {
        clip-path: url(#clippath);
      }

      .cls-2 {
        fill: none;
      }

      .cls-2, .cls-3, .cls-4, .cls-5, .cls-6, .cls-7, .cls-8 {
        stroke-width: 0px;
      }

      .cls-3 {
        fill: #00194a;
      }

      .cls-3, .cls-4, .cls-5, .cls-6, .cls-7, .cls-8 {
        fill-rule: evenodd;
      }

      .cls-4 {
        fill: #eff7f7;
      }

      .cls-5 {
        fill: #bd0000;
      }

      .cls-6 {
        fill: #f7d600;
      }

      .cls-7 {
        fill: #f7d500;
      }

      .cls-8 {
        fill: #fad201;
      }
    </style>
    <clipPath id="clippath">
      <rect class="cls-2" width="431.76" height="502.8"/>
    </clipPath>
  </defs>
  <g id="Layer_1-2" data-name="Layer 1">
    <g>
      <g class="cls-1">
        <path class="cls-7" d="m89.53,12.68C132.46,4.43,175.05.45,216.93.52c42.59.08,84.39,4.36,125.01,12.63l3.21.66.18,3.28c1.49,28.41,9.86,49.7,23.27,64.46,14.38,15.83,34.7,24.28,58.63,26.02l3.92.29.02,3.93c.2,47.26-5.27,89.53-15.11,128.07-9.84,38.56-24.08,73.45-41.41,105.91-17.95,33.63-39.94,63.34-66.04,89.16-26.11,25.84-56.3,47.77-90.64,65.83l-2.06,1.08-2.01-1.15c-33.66-19.24-64.47-40.97-91.21-66.43-26.83-25.54-49.56-54.8-66.97-89.01-20.09-39.49-34.59-78.64-43.75-117.29C2.62,188.51-1.17,149.57.31,111.31l.15-3.95,3.95-.14c24.82-.85,44.37-10.49,58.08-25.61,14.94-16.48,23.06-39.52,23.6-64.84l.07-3.44,3.36-.65Zm82.23,373.16c-4.51-3.23-8.26-7.38-9.05-13.05-.84-6.06,1.84-10.03,5.88-14.09,5.4-5.43,12.94-8.49,20.21-10.46,8.96-2.43,18.91-3.29,28.16-3.18,6.92.08,13.84.6,20.65,1.85,7.36,1.34,13.68,3.67,20.28,7.22,3.15,1.7,5.66,3.44,8.05,6.15,3.13,3.56,4.18,7.45,4.12,12.09l-.05,4.24-17.68-.15-.05-4.16c-.04-2.77-1.34-3.62-3.4-5.15-4.21-3.14-8.93-4.38-14-5.35-6.02-1.15-11.93-1.52-18.04-1.59-7.78-.09-16.4.64-23.89,2.85-4.3,1.27-7.41,2.45-10.9,5.26-.86.69-1.64,2.24-1.68,3.36.2.76,1.5,2.07,2.09,2.48,2.74,1.91,5.3,2.98,8.12,3.86v-11.47h7l-.02,13.39c5.93,1.34,12.02,1.76,18.11,1.82,1.56.01,3.12.16,4.67.16,4.75.02,9.65.17,14.53.64l-.02-16.02h6.99l.02,16.93c6.61,1.11,13.05,2.98,18.9,6.05,7.7,4.04,14.11,9.44,13.93,18.88-.16,8.44-7.66,14.04-14.53,17.47-5.75,2.87-11.84,4.52-18.09,5.64.16,1.16.45,2.23.86,3.18.69,1.65,1.74,2.96,3.06,3.84,1.32.89,2.95,1.37,4.83,1.37,1.75,0,3.71-.42,5.84-1.32,8.87-3.74,18.14-9.14,27.94-16.77,9.88-7.68,19.99-17.39,30.95-30.12l6.09,3.63c-11.32,13.15-22.54,24.09-32.73,32.03-10.26,7.99-20.07,13.68-29.53,17.67-3.01,1.27-5.89,1.86-8.55,1.87-3.31,0-6.26-.9-8.72-2.54-2.46-1.65-4.37-4.02-5.61-6.94-.63-1.49-1.08-3.12-1.33-4.87-5.99.69-11.77.84-17.93.77-6.56-.07-13.3-.24-19.92-.93-.24,1.81-.7,3.5-1.35,5.03-1.24,2.93-3.15,5.29-5.61,6.94-2.46,1.64-5.41,2.55-8.72,2.54-2.66,0-5.54-.6-8.55-1.87-9.46-4-19.27-9.69-29.53-17.67-10.19-7.94-21.1-18.81-32.41-31.96l5.88-3.67c10.96,12.73,20.96,22.41,30.84,30.09,9.8,7.63,19.08,13.03,27.94,16.77,2.12.9,4.09,1.32,5.83,1.32,1.88,0,3.51-.48,4.83-1.37,1.32-.88,2.37-2.2,3.06-3.84.42-.97.71-2.06.87-3.26-.89-.15-1.79-.32-2.67-.5-7.71-1.56-17.16-5.16-23.21-10.32-5.36-4.57-6.73-9.19-6.47-16.08l.16-4.17,17.4.36.03,4.13c0,.95.09,3.68.77,4.43,2.84,3.18,9.8,5.73,14.13,6.93l.02-22.09c-6.48-1.67-13.4-4.43-18.81-8.31h0Zm194.77-42.88l-302.56-.23c-.23-.44-.46-.88-.68-1.32-19.78-38.88-34.04-77.4-43.05-115.4-8.87-37.42-12.65-74.31-11.59-110.51,25.43-1.79,45.66-12.25,60.12-28.2,15.65-17.26,24.44-40.91,25.67-66.9,41.33-7.73,82.27-11.47,122.48-11.4,40.88.07,81.05,4.08,120.14,11.82,2.07,28.88,11.09,50.86,25.26,66.45,15.12,16.65,35.97,25.91,60.38,28.43-.11,44.87-5.46,85.18-14.88,122.07-9.68,37.93-23.66,72.18-40.65,104.02-.21.39-.42.78-.63,1.17h0Zm-151.62,120.09c0-5.9,2.41-8.74,7-8.63,3.84.09,6.57,3.14,6.57,9.06s-2.8,8.34-7.04,8.34c-4.5,0-6.52-3.09-6.52-8.77h0Zm16.21-4.38c0-1.51.6-2.62,1.78-3.35.98-.6,2.26-.9,3.86-.9,1.45,0,2.65.35,3.58,1.05,1.03.79,1.55,1.88,1.55,3.29,0,1.61-.73,2.9-2.18,3.86,1.9.8,2.86,2.17,2.86,4.09,0,1.71-.61,3.02-1.83,3.91-1.07.78-2.5,1.17-4.27,1.17s-3.18-.42-4.24-1.25c-1.17-.93-1.76-2.24-1.76-3.95,0-1.79.95-3.11,2.84-3.96-1.46-.92-2.19-2.24-2.19-3.95h0Zm-36.66,12.85v-14.11h-3.34s.05-2.95.05-2.95l6.52-.04v17.11h-3.23Zm6.03-11.41c0-3.51,2.45-5.77,5.86-5.73,4.11.04,6.38,2.84,6.38,8.46,0,4.19-1.89,8.82-6.92,8.87-1.67.02-3.1-.57-4.71-1.36l1.16-2.36c.93.46,1.37,1.1,3.34,1.1,2.32,0,3.95-1.18,3.88-4.99-1.16,1.62-2.66,1.79-3.95,1.79-3.05,0-5.03-2.56-5.03-5.78h0Z"/>
      </g>
      <path class="cls-3" d="m94.1,342.67V53.75h6.75v2.05c17.55-2.93,36.18-5.31,55.56-6.94,19.13-1.61,39.07-2.47,59.53-2.41,19.18.05,38.4.69,57.55,2.34,19.23,1.66,38.47,4.34,57.63,8.5l4.3.93-3.51,2.65c-4.35,3.29-8.34,6.4-12.32,9.51-3.62,2.83-7.25,5.66-10.69,8.29,3.85,4.64,7.46,9.07,11.07,13.5,4.16,5.1,8.31,10.2,12.39,15.09l3.75,4.5-5.73-1.25c-18.12-3.95-36.71-6.63-55.66-8.34-19-1.72-38.37-2.46-57.98-2.54-19.17-.07-38.96.77-58.99,2.51-18.91,1.64-37.98,4.1-56.89,7.35v233.17h-6.75Zm56.45-84.75c-.88-.27-1.53-.77-.07-.77,3.41,0,6.72-.43,9.42-2,1.37-.8,2.12-1.67,2.06-3.31-.06-1.4-.98-2.75-2.28-3.73-1.52-1.14-2.83-2.49-3.45-4.66-.08-.29.22-.53.7-.12,1.61,1.36,3.14,2.08,5.55,2.08s4.02-.72,5.63-2.08c.48-.41.79-.17.7.12-.62,2.16-1.93,3.51-3.45,4.66-1.31.98-2.23,2.32-2.29,3.73-.07,1.63.69,2.51,2.05,3.31,2.7,1.57,6.02,2.01,9.42,2,1.46,0,.82.5-.07.77-4.02,1.22-8.01,0-11.33-1.75-.15-.08-.28-.24-.67-.24-.31,0-.47.15-.62.24-2.66,1.46-7.32,2.96-11.33,1.75h0Zm12.29,24.21c.99-3.72,2.55-6.91,4.87-9.2,1.96-1.92,3.79-3.42,6.38-5.09,5.25-3.37,9.64-8.81,11.7-12.74.24,3-.4,7-.7,9.84,2.32-3.28,6.14-7.94,6.94-10.49,8.58-.27,17.04-.8,24.69-3.26,8.95-2.88,17.89-5.8,26.77-8.89,14.56-5.05,30.66-9.72,45.39-8.1,14.2,1.57,26.04,7.56,34.31,19.13,9.49-.79,19.8-2.22,28.18-2.33,6.33-.09,11.87-.97,15.01-3.52,4.41-3.57,6.09-8.56,6.92-12.88,1.18-6.12-1.78-11.5-6.41-15.86-3.2-3-6.93-5.02-10.8-6.52-3.7-1.43-7.75-2.96-10.91-4.73-8.7-4.86-15.05-11.59-17.33-21.04-1.45-6.03-2.49-12.25-.56-19.46.78-2.9,1.89-5.13,4.08-8.13.68-.92,1.3-1.93,1.86-2.93,2.6-4.63,5.6-9.11,10.74-11.5,4.6-2.14,9.25-1.47,13.23.14.32,3.03-1.59,5.06-3.26,7.17-3.93,1.66-8.49,2.77-13.92,2.78-.36,0-.5.51.1.7,2.57.85,5.64,1.68,7.82.84.8-.3,1.34-.5,2.03-.05-4.25,2.08-8.94,3.93-13.32,5.65-4.69,7.03-5.78,13.34-4.55,19.18,1.57,7.53,4.25,14.66,10.8,19.46,5.86,4.3,13.13,5.98,20.25,9.34,10.04,4.73,16.99,12.29,16.59,24.86-.3,9.66-4.44,16.51-13.22,20.2-4.09,1.72-8.33,1.69-12.71,1.91-9.58.48-18.74,2.08-26.5,5.4,1.98,6.05,1.73,12.11,1.58,18.17,6.66,7.23,12.59,14.03,19.97,21.69,1.2,1.24,2.78,2.53,4.16,3.23.86.55,1.69,1.19,2.53,1.77.82.57.93,1.46.7,2.36-.7,2.81-.42,5.61-.25,8.6.32,5.72.92,11.07,1.75,16.76.31,2.16.26,4.61-1.63,5.52-1.49.71-3.6,1.75-4.65,2.55h-16.32c-.52-2.7.52-4.82,2.38-7.02.42-.5-.2-.65-.54-.48-2.88,1.46-4.76,3.76-5.96,7.5h-4.61c1.43-4.23,4.22-7.25,8.12-8.93,3.2-1.38,6.91-1.07,10.64-.98.74.02,1.25-.39,1.12-.84-1.22-4.34-1.54-10.22-2.31-15.33-16.61-8.74-32.08-18.64-46.38-29.28-7.11-5.29-15.71-12.77-22.39-14.32-1.93-.45-3.93-.65-5.91-.62-5.92.08-12.3,2.88-18.34,6.75-11.49,7.38-22.11,13.32-35.77,16.32-12.19,2.67-24.94,3.63-38.03,3.6-8.13,10.41-17.27,19.96-28.18,27.84-4.72,3.41-9.01,6.96-14.4,9.84-.65.35-1.44.83-1.97,1.43-1.24,1.43-2.52,3.1-3.83,4.52h-11.78c.93-2.64,2.86-4.93,5.58-7.08.53-.42.14-.55-.35-.59-3.95-.34-7.83,2.86-9.07,7.67h-3.89c.49-3.81,3-7.11,6.55-8.91,3.55-1.8,6.69-2.62,11.25-2.7,12.51-14.53,23.85-31.78,22.36-45.28-17.54-2.69-32.85-6.5-47.39-10.69l-.11-10.24c7.11-.02,13.99-.09,21.09-.11,4.56-1.28,9.4-2.58,13.95-3.86,1.03,1.2,1.81,2.54,2.84,3.74l-.28-4.27c1-.41,1.86-.41,2.78-.42,2.79,3.44,6.87,6.74,11.22,9.93,3.61,2.64,6.85,5.91,8.47,12.43.19.76.57.64.79-.17h0Zm50.35,60.5l-.05-45.32c2.57-.33,4.79-.84,7.13-1.46l.04,46.83-7.11-.05Zm-149.22.11l302.56.23.63-1.17c16.99-31.84,30.97-66.09,40.65-104.02,9.42-36.89,14.77-77.2,14.88-122.07-24.4-2.52-45.25-11.78-60.38-28.43-14.16-15.59-23.19-37.57-25.26-66.45-39.09-7.75-79.25-11.75-120.14-11.82-40.21-.08-81.15,3.66-122.48,11.4-1.23,26-10.02,49.64-25.67,66.9-14.46,15.95-34.7,26.41-60.12,28.2-1.06,36.2,2.72,73.09,11.59,110.51,9.01,38,23.27,76.52,43.05,115.4l.68,1.32Zm17.48-68.31c.4-6.25,5.01-8.75,11.5-9.45v14.73c-3.07-.24-5.43-1.1-8.32-3.1-.47-.45-.71-.17-.61.42.28,1.63,4.75,3.86,8.94,4.91v1.24c-6.55-.94-11.89-2.84-11.52-8.75h0Zm96.12-121.25c4.73-11.23,12.92-17.84,26.41-17.58.24,0,.23-.59.03-.73-7.77-5.51-16.54-8.5-26.07-9.62-.39-.05-.48-1.03-.11-1.15,15.52-5.29,28.68-3.54,38.44,7.37.18.2.62.12.79-.09,9.88-12.41,23.49-11.91,38.24-7.18.33.1.32,1.02-.03,1.04-8.92.66-17.76,3.9-26.13,9.83-.15.11-.07.54.11.54,12.39-.14,21.61,5.11,26.39,17.73.12.31-.48.7-.79.59-8.54-2.95-16.8-6.64-25.32-9.61-.31-.11-1.06.29-.82.5,9.46,8.64,9.21,18.3,4.72,28.47-.18.41-1.02.96-1.23.56-3.95-7.43-6.93-15.39-10.63-22.95-.09-.19-.46-.18-.47.29l-.03,7.86c0,.67-.02,1.89-.69,1.91l-7.37.17c-.58.02-.93-.99-.92-1.57l.1-8.68c0-.39-.35-.4-.52,0-3.33,7.76-6.9,15.53-10.73,23.21-.12.25-.7.18-.84-.06-6.68-11.2-3.59-23.6,3.95-28.88.83-.59-.14-1.04-1.24-.58-8.47,3.56-16.02,6.37-24.71,9.34-.29.1-.65-.45-.53-.73h0Zm-29.07,41.11c.71-2.8-.11-6.86.46-10.02.68,2.56,1.75,5.58,3.43,7.47,1.5,1.68,3.5,1.86,5.33.83.88-.5,1.57-1.28,1.55-2.81-.03-1.63-1.23-2.44-3.13-2.57,2.3-3.43,4.55-6.94,6.84-10.38l6.94,10.38c-1.9.13-3.11.93-3.13,2.57-.02,1.53.66,2.31,1.54,2.81,1.82,1.04,3.83.86,5.33-.83,1.68-1.89,2.75-4.91,3.43-7.47.57,3.16-.25,7.22.46,10.02.08.32.68.38.86.18,1.53-1.66,2.42-3.41,3.48-5.35,3.33-1.86,7.36-2.48,11.36-2.92-6.02,4.21-9.14,10.16-11.02,16.73l-17.81,5.73c-.4.12-1.03.29-1.43.29s-.96-.17-1.35-.29l-17.81-5.73c-1.88-6.58-5.01-12.52-11.02-16.73,3.99.44,8.02,1.06,11.36,2.92,1.06,1.94,1.94,3.69,3.48,5.35.19.2.78.13.86-.18h0Zm64.39,55.82l.03-87.47h7.34l.08,85.14c-2.21,1.18-4.72,1.91-7.45,2.34h0Zm49.23,44.06c1.08-9.37,5.6-16.18,12.91-18.33.45-.13,1.09-.03,1.52.14,5.98,2.33,12.23,6.94,18.7,12.84-1.39,1.97-2.15,3.91-2.06,6.38.09,2.36.95,4.58,2.44,6.7,1.6,2.29,2.82,4.67,2.81,7.22-.02,4.05-3.12,7.38-6.14,10.12-8.51,7.76-20.24,16.34-25.15,23.43h-12.45c.43-3.77,2.19-6.3,5.63-7.02.5-.1.09-.62-.21-.61-5.88.21-7.98,3.38-8.43,7.63h-3.5c-.55-2.14-.51-4.37,1.43-6.15,3.85-3.53,9.35-3.82,14.95-3.47,5.25-3.47,9.59-7,12.02-10.8,1.02-1.61,1.75-3.39,2.02-5.58.23-1.89-.55-3.06-1.88-3.99-1.57-1.09-3.12-2.21-4.64-3.38-6.43-4.9-10.59-9.95-9.98-15.14h0Zm-124.91-78.77c.05-2.98.79-5.96,3.66-6.08,2.11-.09,4.73.91,5.87,2.75.13.21.13.49.07.73-.11.44-.42.98-.63,1.48-1.17-1.25-2.27-2.61-4.25-2.99-.99-.19-1.82.26-2.21,1.19-.86,2.04-.96,5.25.31,8.07.24.53.47,1.05.52,1.65.02.18-.43.2-.63-.07-1.27-1.68-2.75-4.09-2.7-6.73h0Zm24.68,8.63c-.01-1.52.27-2.98.64-4.44.07-.29.5-.55.51.17.03,3.1.1,5.47.12,8.98,0,.83-.61.98-.77.15-.32-1.71-.49-3.12-.5-4.86h0Zm5.73,8.84c.03-2.64.36-5.2,1.09-7.8.19-.7.54-.94,1.37-.6.42.18.87.3,1.3.46.63.15,1.18.26,1.83-.02.63-.27.97-.43,1.69-.88.6-.38,1.41-.33,1.86.09,1.2,1.11,3,1.38,4.71,2.07.54.25.3.54-.28.53-.95-.02-1.9.04-2.85.07-.89.04-1.75.39-2.36.98-.58.57-.98,1.5-1.97,1.39-.6-.07-1.25.18-1.86.04-.49-.11-.84-.43-1.22-.7-.51-.35-.87-.06-1.19.41-.82,1.19-1.45,2.64-1.7,4.02-.05.3-.43.3-.43-.06h0Zm14.6,11.55c.03-.05.05-.1.05-.09-.07.52-.07.47-.05.09h0Zm-28.25-19.49c.43-.15.88-.28,1.3-.46.83-.34,1.18-.1,1.37.6.73,2.61,1.06,5.16,1.09,7.8,0,.36-.38.36-.43.06-.25-1.37-.88-2.83-1.7-4.02-.32-.46-.68-.76-1.19-.41-.38.27-.73.59-1.22.7-.61.14-1.25.11-1.85-.04-.96-.25-1.39-.82-1.97-1.39-.6-.59-1.46-.95-2.35-.98-.95-.04-1.9-.09-2.85-.07-.59.01-.82-.28-.28-.53,1.7-.69,3.51-.96,4.71-2.07.45-.41,1.26-.47,1.86-.09.71.45,1.06.61,1.69.88.65.27,1.2.17,1.83.02h0Zm27.76,19.51c-.31-.56-.53-1.17-.53-1.79,0-.89-.16-1.6-.32-2.4-.36-1.71-1.24-3.34-2.17-5.05-.25-.45.19-.67.6-.25,1.2,1.27,2.43,2.85,2.79,4.21.37,1.39.17,4.32.11,5.26-.08.15-.27.4-.48.02h0Zm-35.38-9.49c.4-.43.84-.2.6.25-.93,1.71-1.81,3.34-2.17,5.05-.17.79-.32,1.51-.33,2.4,0,.4-.21,1.23-.53,1.79-.29.53-.53.07-.53-.11.06-1.81-.36-3.23.16-5.18.36-1.36,1.59-2.94,2.79-4.21h0ZM222.03,35.33l-13.77.12-.12-18.68,13.59-.13.08,3.56-9.83-.03.09,3.9h8.68s.05,3.56.05,3.56h-8.67s.08,4.14.08,4.14h9.75s.07,3.56.07,3.56Zm52.91,3.03l-13.73-1.05,1.47-18.62,13.56,1.02-.23,3.56-9.79-.86-.24,3.89,8.64.72-.25,3.56-8.64-.72-.27,4.12,9.72.83-.23,3.55Zm8.47,1.36c-2.38-.44-4.91-1.7-6.87-3.5l2.32-3.33c1.21,1.25,3.84,2.91,5.36,3.04,1.73.14,2.95.21,3.22-1.19.37-1.89-2.32-2.78-4.53-3.63-2.82-1.08-4.45-2.99-4.04-5.89.43-3.07,3.75-5.23,7.55-4.85,2.95.3,4.55,1.12,6.79,2.93l-2.04,3.36c-1.64-1.32-3.41-2.24-4.86-2.5-1.38-.25-2.89.19-3.05,1.25-.18,1.13.66,1.82,2.28,2.48l2.66,1.09c2.64,1.09,4.25,3.43,3.8,6.04-.57,3.35-3.93,5.55-8.61,4.69h0Zm-47.51-4.02l-2.77-5.5c-1.26,0-2.51.04-3.82-.06l-.13,5.51-4.09-.08.23-18.96,7.28.08c5.43.05,7.92,2.77,7.92,7.21,0,3.04-1.74,4.82-3.73,5.66l3.87,6.23-4.76-.09Zm7.28.45l1.16-18.86,6.43.32c4.28.22,8.22,1.48,8.02,5.17-.09,1.66-1.3,3.7-3.49,4.14v.12c2.6.64,3.7,2.47,3.53,4.96-.29,4.2-4.58,4.72-8.79,4.5l-6.87-.36Zm-92.53,3.5c-2.41.07-5.16-.62-7.45-1.97l1.57-3.75c1.44.97,4.36,2.04,5.89,1.85,1.72-.22,2.92-.42,2.9-1.84-.03-1.93-2.85-2.24-5.19-2.6-2.99-.46-4.98-1.99-5.18-4.91-.22-3.09,2.56-5.91,6.35-6.33,2.95-.33,4.68.14,7.26,1.44l-1.29,3.71c-1.88-.94-3.81-1.47-5.27-1.42-1.4.05-2.79.8-2.72,1.87.07,1.14,1.03,1.64,2.75,1.95l2.84.51c2.81.5,4.88,2.46,4.99,5.1.15,3.39-2.68,6.25-7.43,6.39h0Zm25.72-2.72l-4.42.37-8.35-18.31,4.42-.36c1.64,4.76,4.06,9.02,5.78,13.73l.45-.03c.93-4.91,2.68-9.43,3.5-14.37l4.28-.35-5.66,19.32Zm12.86-.8l-4.2.2-.91-18.7,4.2-.2.91,18.7Zm11.45-.45l-4.18.1-.3-15.33-5.4.13-.09-3.56,15.01-.5.09,3.56-5.44.27.3,15.33Zm-66.55,6.34c-4.74.79-8.27-.91-9.09-6.16l-1.8-11.42,4.25-.73,1.64,10.86c.52,3.46,2.43,3.95,4.47,3.6,2.05-.34,3.4-1.59,3-4.81l-1.32-10.88,4.18-.54,1.23,10.86c.58,5.11-1.82,8.43-6.56,9.22h0Zm173.5.85l-13.64-1.91,2.64-18.5,13.46,1.87-.45,3.53-9.71-1.48-.48,3.87,8.58,1.27-.47,3.53-8.58-1.26-.54,4.09,9.65,1.44-.46,3.53Z"/>
      <path class="cls-6" d="m294,40.97l13.64,1.91.46-3.53-9.65-1.44.54-4.09,8.58,1.26.47-3.53-8.58-1.27.48-3.87,9.71,1.48.45-3.53-13.46-1.87-2.64,18.5Z"/>
      <path class="cls-6" d="m247.44,32.86l.29-4.66,2.43.13c2.3.12,4.58.53,4.39,2.76-.15,1.68-2.36,2.12-4.63,1.95l-2.48-.18Zm.48-7.79l.23-4.12,2.09.11c1.93.1,4.27.24,4.3,2.21.03,2.11-2.55,2.05-4.59,1.92l-2.02-.12Zm-4.74,11.06l6.87.36c4.21.22,8.5-.3,8.79-4.5.17-2.49-.93-4.33-3.54-4.96v-.12c2.2-.45,3.41-2.48,3.5-4.14.2-3.69-3.74-4.96-8.02-5.17l-6.43-.32-1.16,18.86Z"/>
      <path class="cls-6" d="m240.65,35.78l-3.87-6.23c1.99-.84,3.72-2.62,3.73-5.66,0-4.45-2.49-7.16-7.92-7.21l-7.28-.08-.23,18.96,4.09.08.13-5.51c1.31.1,2.56.06,3.82.06l2.77,5.5,4.76.09Zm-11.22-15.62l2.55.04c2.19.04,4.67.62,4.58,3.44-.08,2.47-2.01,3.05-4.2,2.97l-3.03-.11.09-6.34Z"/>
      <path class="cls-6" d="m196.51,35.78l4.18-.1-.3-15.33,5.44-.27-.09-3.56-15.01.5.09,3.56,5.4-.13.3,15.33Z"/>
      <path class="cls-6" d="m185.03,36.33l4.2-.2-.91-18.7-4.2.2.91,18.7Z"/>
      <path class="cls-6" d="m171.95,37.29l4.42-.37,5.66-19.32-4.28.35c-.82,4.94-2.57,9.46-3.5,14.37l-.45.03c-1.71-4.71-4.14-8.97-5.78-13.73l-4.42.36,8.35,18.31Z"/>
      <path class="cls-6" d="m143.19,37.67c2.29,1.35,5.04,2.04,7.45,1.97,4.76-.14,7.58-3,7.43-6.39-.12-2.64-2.18-4.59-4.99-5.1l-2.84-.51c-1.72-.31-2.68-.81-2.75-1.95-.07-1.07,1.32-1.82,2.72-1.87,1.46-.05,3.39.48,5.27,1.42l1.29-3.71c-2.58-1.3-4.31-1.77-7.26-1.44-3.8.43-6.58,3.24-6.35,6.33.21,2.91,2.19,4.44,5.18,4.91,2.34.36,5.16.66,5.19,2.6.02,1.43-1.18,1.62-2.9,1.84-1.52.2-4.44-.88-5.89-1.85l-1.57,3.75Z"/>
      <path class="cls-6" d="m125.04,35.86c.82,5.25,4.35,6.95,9.09,6.16,4.74-.79,7.14-4.12,6.56-9.22l-1.23-10.86-4.18.54,1.32,10.88c.4,3.23-.95,4.47-3,4.81-2.05.34-3.95-.14-4.47-3.6l-1.64-10.86-4.25.73,1.8,11.42Z"/>
      <path class="cls-3" d="m239.46,466.59c0-.81-.29-1.46-.85-1.93-.53-.45-1.22-.67-2.07-.67s-1.51.23-2.05.68c-.57.48-.86,1.12-.86,1.92,0,.84.28,1.5.84,1.95.52.43,1.21.65,2.08.65s1.55-.22,2.07-.66c.55-.46.84-1.11.84-1.95h0Zm-.59-7.38c0-1.46-.78-2.2-2.37-2.2-.72,0-1.29.19-1.71.57-.43.38-.64.92-.64,1.62s.23,1.22.68,1.62c.43.39.98.59,1.68.59s1.24-.2,1.69-.6c.45-.4.67-.94.67-1.61h0Zm3.7,7.5c0,1.71-.61,3.02-1.83,3.91-1.07.78-2.5,1.17-4.27,1.17s-3.18-.42-4.24-1.25c-1.17-.93-1.76-2.24-1.76-3.95,0-1.79.95-3.11,2.84-3.96-1.46-.92-2.19-2.24-2.19-3.95,0-1.51.6-2.62,1.78-3.35.98-.6,2.26-.9,3.86-.9,1.45,0,2.65.35,3.58,1.05,1.03.79,1.55,1.88,1.55,3.29,0,1.61-.73,2.9-2.18,3.86,1.9.8,2.86,2.17,2.86,4.09h0Z"/>
      <path class="cls-3" d="m225.21,463.06c.05-4.03-1.3-5.91-3.44-5.95-2.4-.04-3.77,1.42-3.86,5.8-.11,5.24,1.98,6.31,3.68,6.32,1.79.01,3.55-.54,3.62-6.18h0Zm3.27.42c0,5.65-2.8,8.34-7.04,8.34-4.5,0-6.52-3.09-6.52-8.77s2.41-8.74,7-8.63c3.84.09,6.57,3.14,6.57,9.06h0Z"/>
      <path class="cls-3" d="m209.33,460.15c0-1.62-1.03-2.93-2.79-2.93s-3,1.29-3,2.96,1.15,2.96,3,2.96,2.79-1.32,2.79-3h0Zm3.4,2.7c0,4.19-1.89,8.82-6.92,8.87-1.67.02-3.1-.57-4.71-1.36l1.16-2.36c.93.46,1.37,1.1,3.34,1.1,2.32,0,3.95-1.18,3.88-4.99-1.16,1.62-2.66,1.79-3.95,1.79-3.05,0-5.03-2.56-5.03-5.78,0-3.51,2.45-5.77,5.86-5.73,4.11.04,6.38,2.84,6.38,8.46h0Z"/>
      <path class="cls-3" d="m194.46,471.53v-14.11h-3.34s.05-2.95.05-2.95l6.52-.04v17.11h-3.23Z"/>
      <path class="cls-6" d="m276.53,36.21c1.96,1.8,4.49,3.06,6.87,3.5,4.68.86,8.04-1.34,8.61-4.69.44-2.61-1.16-4.95-3.8-6.04l-2.66-1.09c-1.62-.66-2.45-1.35-2.28-2.48.16-1.06,1.67-1.5,3.05-1.25,1.45.26,3.22,1.18,4.86,2.5l2.04-3.36c-2.24-1.82-3.84-2.64-6.79-2.93-3.8-.38-7.11,1.78-7.55,4.85-.41,2.89,1.21,4.8,4.04,5.89,2.21.85,4.9,1.73,4.53,3.63-.28,1.4-1.49,1.34-3.22,1.19-1.53-.13-4.16-1.79-5.36-3.04l-2.32,3.33Z"/>
      <path class="cls-6" d="m261.2,37.31l13.73,1.05.23-3.55-9.72-.83.27-4.12,8.64.72.25-3.56-8.64-.72.24-3.89,9.79.86.23-3.56-13.56-1.02-1.47,18.62Z"/>
      <path class="cls-6" d="m208.26,35.45l13.77-.12-.07-3.56h-9.75s-.08-4.13-.08-4.13h8.67s-.05-3.58-.05-3.58h-8.68s-.09-3.89-.09-3.89l9.83.03-.08-3.56-13.59.13.12,18.68Z"/>
      <path class="cls-4" d="m154.22,63.72c-.47-.04-.88.29-.91.74-.03.44.32.82.79.86.47.03.88-.3.91-.73.03-.44-.32-.83-.79-.86h0Z"/>
      <path class="cls-4" d="m150.02,64.94c-.19.1-.37.22-.52.34-.46.38-.73.89-.71,1.43.02.54.33,1.03.82,1.37.52.37,1.23.59,2.01.56.79-.03,1.48-.3,1.97-.7.46-.38.73-.89.71-1.43-.02-.54-.33-1.03-.82-1.38-.19-.14-.41-.25-.64-.34,0,.04.01.08.02.13.02.57-.6,1.05-1.38,1.08-.78.03-1.43-.41-1.45-.97,0-.03,0-.06,0-.09h0Zm4.55.07c.18-.14.29-.35.3-.58.02-.44-.35-.81-.82-.83-.35-.01-.66.17-.8.45-.29-.12-.61-.21-.94-.27l-.35-9.45-1.96.07.03,1.02-4.08.15.05,1.49,1.3-.05c.1-.54.38-.93.71-.94.33-.01.64.36.78.89l1.06-.04.04,1.11-1.05.04c-.09.57-.38.98-.72.99-.35.02-.66-.38-.79-.94l-1.28.05.05,1.44,4.08-.15.16,4.43c-.31.09-.6.21-.86.36-.13-.27-.41-.45-.75-.46-.47-.01-.86.33-.88.77-.01.32.19.61.49.75-.19.29-.32.6-.38.93-.05-.01-.1-.02-.16-.02-.47-.02-.87.33-.88.77-.02.44.35.81.82.83.16,0,.3-.03.43-.09.12.24.28.46.47.66-.25.13-.43.38-.44.67-.02.44.36.81.82.83.44.02.81-.28.88-.67.27.11.57.19.88.24-.01.05-.02.11-.02.16-.02.44.35.81.82.83.47.01.87-.33.88-.77,0-.1-.01-.19-.04-.28.35-.08.69-.2,1-.35.07.36.41.63.81.65.47.01.86-.32.88-.77.02-.36-.22-.67-.56-.78.15-.19.28-.4.38-.61.05,0,.09.01.14.02.47.02.87-.33.88-.77.02-.44-.35-.81-.82-.83h-.07c-.09-.34-.26-.66-.49-.94h0Z"/>
      <path class="cls-4" d="m151.37,91.36c-.2.09-.37.2-.53.33-.46.38-.75.88-.74,1.42,0,.54.31,1.04.79,1.39.51.38,1.21.61,2,.6.78-.01,1.48-.27,1.98-.66.46-.38.75-.88.74-1.42,0-.54-.31-1.04-.79-1.4-.19-.14-.4-.26-.63-.35,0,.04.01.08.01.13,0,.57-.62,1.04-1.4,1.05-.78.01-1.42-.44-1.43-1.01,0-.03,0-.05,0-.08h0Zm4.55.17c.18-.14.3-.34.31-.57.02-.44-.34-.82-.81-.85-.35-.02-.66.16-.81.43-.29-.13-.61-.23-.94-.29l-.15-9.45-1.96.03.02,1.02-4.08.06.02,1.49,1.3-.02c.11-.54.4-.92.73-.93.34,0,.63.37.76.9l1.07-.02v1.11s-1.03.02-1.03.02c-.11.57-.4.98-.74.98-.35,0-.65-.39-.77-.95l-1.28.02.02,1.44,4.08-.07.07,4.44c-.31.09-.6.2-.87.34-.12-.27-.4-.46-.73-.48-.47-.03-.87.31-.9.75-.02.32.17.62.47.76-.19.28-.33.59-.39.92-.05-.02-.11-.02-.16-.02-.47-.03-.87.31-.89.75-.03.44.34.82.8.85.16,0,.31-.02.44-.09.11.24.27.47.45.67-.25.13-.43.37-.45.66-.03.44.34.82.8.85.44.02.81-.26.89-.65.27.11.57.2.88.25-.02.05-.02.11-.03.16-.02.44.34.82.81.84.47.03.87-.3.89-.75,0-.1,0-.19-.03-.28.36-.07.7-.19,1.01-.34.06.36.39.64.79.67.47.03.88-.31.9-.75.02-.35-.21-.67-.55-.79.16-.18.29-.39.39-.6.05,0,.09.02.14.02.47.02.87-.31.9-.75.03-.44-.34-.82-.8-.85h-.08c-.08-.34-.24-.67-.47-.95h0Z"/>
      <path class="cls-4" d="m269.33,64.7c-.2.08-.39.17-.56.28-.5.33-.83.8-.87,1.34-.04.54.21,1.06.66,1.46.47.43,1.16.72,1.94.78.78.06,1.5-.13,2.03-.48.5-.33.83-.8.87-1.34.04-.54-.21-1.06-.66-1.46-.17-.16-.38-.3-.6-.41,0,.04,0,.08,0,.12-.04.57-.71.98-1.49.92-.78-.06-1.37-.57-1.33-1.13,0-.03,0-.06.01-.09h0Zm4.52.59c.19-.12.33-.31.36-.54.07-.44-.26-.85-.73-.92-.34-.05-.67.1-.84.35-.28-.15-.58-.28-.91-.37l.72-9.42-1.96-.15-.08,1.02-4.07-.31-.11,1.49,1.29.1c.16-.53.48-.88.81-.86.34.02.59.42.68.97l1.06.08-.09,1.11-1.05-.08c-.16.56-.48.93-.83.91-.34-.03-.61-.45-.68-1.02l-1.28-.1-.11,1.44,4.07.31-.34,4.42c-.32.05-.61.14-.9.26-.1-.28-.36-.5-.69-.55-.46-.07-.89.23-.96.66-.05.32.12.63.39.8-.22.27-.38.56-.48.88-.05-.02-.1-.03-.15-.04-.47-.07-.9.23-.96.66-.07.44.26.85.73.92.16.02.31,0,.44-.04.09.25.22.49.39.71-.27.1-.46.33-.51.61-.07.44.26.85.72.92.43.07.84-.18.95-.57.26.14.55.25.85.34-.02.05-.04.1-.04.16-.07.43.26.84.73.91.46.07.9-.23.96-.66.02-.1.01-.19,0-.28.36-.04.71-.12,1.04-.24.03.36.33.68.73.73.46.07.9-.23.96-.66.05-.35-.14-.69-.47-.84.17-.17.32-.36.44-.57.05.02.09.03.14.04.46.07.9-.23.96-.66.07-.44-.26-.85-.72-.92-.03,0-.05,0-.08,0-.05-.35-.18-.68-.38-.99h0Z"/>
      <path class="cls-6" d="m162.95,211.83l20.67-6.63c12.57,8.05,15.36,26.94,12.03,37.36-.1.31-.65.56-.72-.07-.5-4.29-1.58-8.13-4.38-9.7,3.26,10.4,1.96,19.22-3.02,25.49.43-3.5-.03-6.82-1.97-9.04-.12-.13-.4.14-.42.32-.58,5.06-3.79,9.44-8.05,13.22-2.72,2.42-5.75,4.47-8.65,6.68-2.48,1.89-4.31,3.7-5.5,6.9-.03.08-.31.51-.46.5-.16,0-.41-.53-.44-.61-1.3-3.12-2.99-4.83-5.46-6.72-2.89-2.21-5.75-4.42-8.54-6.75-4.54-3.78-8.39-9.24-8.15-13.24,0-.16-.29-.43-.42-.32-2.26,1.79-2.3,5.48-1.87,8.98-5.48-6.27-6.96-15.26-3.3-25.49-2.8,1.57-3.71,5.37-4.21,9.66-.07.63-.62.38-.73.07-3.33-10.42-.6-30.21,12.46-37.41l21.09,6.8.05-.02Zm-.45,44.1c.38,0,.52.15.67.24,3.32,1.76,7.31,2.97,11.33,1.75.89-.27,1.54-.77.07-.77-3.4,0-6.72-.43-9.42-2-1.37-.8-2.12-1.67-2.05-3.31.05-1.4.98-2.75,2.29-3.73,1.52-1.14,2.83-2.49,3.45-4.66.08-.29-.22-.53-.7-.12-1.62,1.36-3.21,2.08-5.63,2.08s-3.94-.72-5.55-2.08c-.48-.41-.79-.17-.7.12.62,2.16,1.93,3.51,3.45,4.66,1.3.98,2.23,2.32,2.28,3.73.07,1.63-.69,2.51-2.06,3.31-2.7,1.57-6.01,2.01-9.42,2-1.46,0-.81.5.07.77,4.01,1.21,8.67-.29,11.33-1.75.15-.08.31-.24.62-.24h0Zm16.22-20.75c-.25-.45.19-.67.6-.25,1.2,1.27,2.43,2.85,2.79,4.21.52,1.95-.08,6.97.16,5.18,0-.04-.24.63-.53.11-.31-.56-.53-1.17-.53-1.79,0-.89-.16-1.6-.32-2.4-.36-1.71-1.24-3.34-2.17-5.05h0Zm-10.67-2.26c-.05.3-.43.3-.43-.06.03-2.64.36-5.2,1.09-7.8.19-.7.54-.94,1.37-.6.42.18.87.3,1.3.46.63.15,1.18.26,1.83-.02.63-.27.97-.43,1.69-.88.6-.38,1.41-.33,1.86.09,1.2,1.11,3,1.38,4.71,2.07.54.25.3.54-.28.53-.95-.02-1.9.04-2.85.07-.89.04-1.75.39-2.36.98-.58.57-.98,1.5-1.97,1.39-.6-.07-1.25.18-1.86.04-.49-.11-.84-.43-1.22-.7-.51-.35-.87-.06-1.19.41-.82,1.19-1.45,2.64-1.7,4.02h0Zm-21.09,2.26c.25-.45-.19-.67-.6-.25-1.2,1.27-2.43,2.85-2.79,4.21-.52,1.95-.1,3.37-.16,5.18,0,.18.24.63.53.11.31-.56.53-1.39.53-1.79,0-.89.16-1.61.33-2.4.36-1.71,1.24-3.34,2.17-5.05h0Zm-6.41-12.98c.02.18-.43.2-.63-.07-1.27-1.68-2.75-4.09-2.7-6.73.05-2.98.79-5.96,3.66-6.08,2.11-.09,4.73.91,5.87,2.75.13.21.13.49.07.73-.11.44-.42.98-.63,1.48-1.17-1.25-2.27-2.61-4.25-2.99-.99-.19-1.82.26-2.21,1.19-.86,2.04-.96,5.25.31,8.07.24.53.47,1.05.52,1.65h0Zm16.76,10.73c.05.3.43.3.43-.06-.03-2.64-.36-5.2-1.09-7.8-.19-.69-.54-.94-1.37-.6-.42.18-.87.3-1.3.46-.63.15-1.18.26-1.83-.02-.63-.27-.98-.43-1.69-.88-.61-.38-1.41-.33-1.86.09-1.2,1.11-3.01,1.38-4.71,2.07-.54.25-.3.54.28.53.95-.02,1.9.04,2.85.07.89.04,1.75.39,2.35.98.58.57,1,1.14,1.97,1.39.6.16,1.25.18,1.85.04.48-.11.84-.43,1.22-.7.51-.35.88-.06,1.19.41.83,1.19,1.45,2.64,1.7,4.02h0Zm5.73-13.17c0-.72-.43-.45-.51-.17-.38,1.46-.66,2.93-.64,4.44,0,1.74.17,3.15.5,4.86.16.83.78.68.77-.15-.01-3.52-.08-5.88-.12-8.98h0Z"/>
      <path class="cls-4" d="m267.22,89.97c-.2.07-.39.17-.56.28-.5.33-.83.8-.88,1.34-.04.54.21,1.06.66,1.46.47.43,1.15.72,1.93.78.78.06,1.5-.12,2.04-.47.5-.33.83-.8.88-1.34.04-.54-.21-1.06-.66-1.46-.17-.16-.38-.3-.6-.41,0,.04,0,.09,0,.13-.05.57-.71.97-1.49.91-.78-.06-1.37-.57-1.33-1.14,0-.03,0-.05,0-.08h0Zm4.52.59c.19-.12.33-.31.36-.54.07-.43-.26-.84-.72-.92-.34-.05-.67.1-.84.36-.28-.16-.58-.29-.91-.38l.73-9.42-1.96-.16-.08,1.02-4.07-.32-.12,1.49,1.29.1c.16-.52.48-.88.81-.85.34.03.59.42.67.97l1.06.08-.09,1.11-1.05-.08c-.16.56-.49.93-.83.91-.35-.03-.61-.45-.68-1.02l-1.28-.1-.11,1.44,4.07.32-.35,4.43c-.32.05-.62.14-.89.26-.1-.28-.36-.5-.69-.55-.46-.07-.9.23-.96.66-.05.32.12.63.39.8-.22.26-.38.56-.48.88-.05-.02-.1-.03-.16-.04-.46-.07-.89.23-.96.66-.07.44.26.85.72.92.16.02.3,0,.44-.04.09.25.22.49.39.71-.27.1-.47.32-.51.61-.07.43.26.85.72.92.43.07.84-.18.94-.57.26.14.55.25.85.34-.02.05-.04.11-.04.16-.07.44.26.85.72.92.47.07.9-.22.96-.66.02-.09.01-.19,0-.28.36-.03.71-.12,1.04-.23.03.36.33.68.73.74.46.07.89-.23.96-.66.05-.35-.14-.69-.47-.84.17-.17.32-.36.44-.56.04.01.09.03.14.03.46.07.9-.23.96-.66.07-.43-.26-.85-.73-.92-.02,0-.05,0-.07,0-.05-.35-.18-.68-.38-.99h0Z"/>
      <path class="cls-6" d="m162.99,208.95c.4,0,1.03-.17,1.43-.29l17.81-5.73c1.88-6.58,5.01-12.52,11.02-16.73-3.99.44-8.02,1.06-11.36,2.92-1.06,1.94-1.95,3.69-3.48,5.35-.18.2-.78.13-.86-.18-.7-2.8.11-6.86-.46-10.02-.67,2.56-1.75,5.58-3.43,7.47-1.5,1.68-3.5,1.86-5.33.83-.88-.5-1.57-1.28-1.54-2.81.02-1.63,1.23-2.44,3.13-2.57-2.3-3.43-4.65-6.94-6.94-10.38-2.3,3.43-4.55,6.94-6.84,10.38,1.9.13,3.1.93,3.13,2.57.02,1.53-.66,2.31-1.55,2.81-1.82,1.04-3.83.86-5.33-.83-1.68-1.89-2.75-4.91-3.43-7.47-.57,3.16.25,7.22-.46,10.02-.08.32-.68.38-.86.18-1.54-1.66-2.42-3.41-3.48-5.35-3.33-1.86-7.36-2.48-11.36-2.92,6.02,4.21,9.14,10.16,11.02,16.73l17.81,5.73c.39.12.95.29,1.35.29h0Z"/>
      <path class="cls-6" d="m271.4,237.18c6.96-1.05,14.42-1.24,22.05.28,7.88,1.57,15.08,4.38,21.99,10.63-12.13-6.52-28.54-10.09-44.04-10.91h0Zm85.83-92.62c.32,3.03-1.59,5.06-3.26,7.17-3.93,1.66-8.49,2.77-13.92,2.78-.36,0-.5.51.1.7,2.57.85,5.64,1.68,7.82.84.8-.3,1.34-.5,2.03-.05-4.25,2.08-8.94,3.93-13.32,5.65-4.69,7.03-5.78,13.34-4.55,19.18,1.57,7.53,4.25,14.66,10.8,19.46,5.86,4.3,13.13,5.98,20.25,9.34,10.04,4.73,16.99,12.29,16.59,24.86-.3,9.66-4.44,16.51-13.22,20.2-4.09,1.72-8.33,1.69-12.71,1.91-9.58.48-18.74,2.08-26.5,5.4,1.98,6.05,1.73,12.11,1.58,18.17,6.66,7.23,12.59,14.03,19.97,21.69,1.2,1.24,2.78,2.53,4.16,3.23.86.55,1.69,1.19,2.53,1.77.82.57.93,1.46.7,2.36-.7,2.81-.42,5.61-.25,8.6.32,5.72.92,11.07,1.75,16.76.31,2.16.26,4.61-1.63,5.52-1.49.71-3.6,1.75-4.65,2.55h-16.32c-.52-2.7.52-4.82,2.38-7.02.42-.5-.2-.65-.54-.48-2.88,1.46-4.76,3.76-5.96,7.5h-4.61c1.43-4.23,4.22-7.25,8.12-8.93,3.2-1.38,6.91-1.07,10.64-.98.74.02,1.25-.39,1.12-.84-1.22-4.34-1.54-10.22-2.31-15.33-16.61-8.74-32.08-18.64-46.38-29.28-7.11-5.29-15.71-12.77-22.39-14.32-1.93-.45-3.93-.65-5.91-.62-5.92.08-12.3,2.88-18.34,6.75-11.49,7.38-22.11,13.32-35.77,16.32-12.19,2.67-24.94,3.63-38.03,3.6-8.13,10.41-17.27,19.96-28.18,27.84-4.72,3.41-9.01,6.96-14.4,9.84-.65.35-1.44.83-1.97,1.43-1.24,1.43-2.52,3.1-3.83,4.52h-11.78c.93-2.64,2.86-4.93,5.58-7.08.53-.42.14-.55-.35-.59-3.95-.34-7.83,2.86-9.07,7.67h-3.89c.49-3.81,3-7.11,6.55-8.91,3.55-1.8,6.69-2.62,11.25-2.7,12.51-14.53,23.85-31.78,22.36-45.28-17.54-2.69-32.85-6.5-47.39-10.69-.04-3.41-.07-6.83-.11-10.24,7.11-.02,13.99-.09,21.09-.11,4.56-1.28,9.4-2.58,13.95-3.86,1.03,1.2,1.81,2.54,2.84,3.74-.09-1.46-.19-2.81-.28-4.27,1-.41,1.86-.41,2.78-.42,2.79,3.44,6.87,6.74,11.22,9.93,3.61,2.64,6.85,5.91,8.47,12.43.19.76.57.64.79-.17.99-3.72,2.55-6.91,4.87-9.2,1.96-1.93,3.79-3.42,6.38-5.09,5.25-3.37,9.64-8.81,11.7-12.74.24,3-.4,7-.7,9.84,2.32-3.28,6.14-7.94,6.94-10.49,8.58-.27,17.04-.8,24.69-3.26,8.95-2.88,17.89-5.8,26.77-8.89,14.56-5.05,30.66-9.72,45.39-8.1,14.2,1.57,26.04,7.55,34.31,19.13,9.49-.79,19.8-2.22,28.18-2.33,6.33-.09,11.87-.97,15.01-3.52,4.41-3.57,6.09-8.56,6.92-12.88,1.18-6.12-1.78-11.5-6.41-15.86-3.2-3-6.93-5.02-10.8-6.52-3.7-1.43-7.75-2.96-10.91-4.73-8.7-4.86-15.05-11.6-17.33-21.04-1.45-6.03-2.49-12.25-.56-19.46.78-2.9,1.89-5.13,4.08-8.13.68-.92,1.3-1.93,1.86-2.93,2.6-4.63,5.6-9.11,10.74-11.5,4.6-2.14,9.25-1.47,13.23.14h0Zm-179.15,151.63l2.53-5.18c22.54,2.75,47.91-4.18,71.66-15.81-21.74,15.51-47.05,21.3-74.19,20.98h0Z"/>
      <path class="cls-6" d="m275.04,275.83c.45-.13,1.09-.03,1.52.14,5.98,2.33,12.23,6.94,18.7,12.84-1.39,1.97-2.15,3.91-2.06,6.38.09,2.36.95,4.58,2.44,6.7,1.6,2.29,2.82,4.67,2.81,7.22-.02,4.05-3.12,7.38-6.14,10.12-8.51,7.76-20.24,16.34-25.15,23.43h-12.45c.43-3.77,2.19-6.3,5.63-7.02.5-.1.09-.62-.21-.61-5.88.21-7.98,3.38-8.43,7.63h-3.5c-.55-2.14-.51-4.37,1.43-6.15,3.85-3.53,9.35-3.82,14.95-3.47,5.25-3.47,9.59-7,12.02-10.8,1.02-1.61,1.75-3.39,2.02-5.58.23-1.89-.55-3.06-1.88-3.99-1.57-1.09-3.12-2.21-4.64-3.38-6.43-4.9-10.59-9.95-9.98-15.14,1.08-9.37,5.6-16.18,12.91-18.32h0Zm-2.27,3.32c.51-.5.41.52.12.91-4.1,5.62-6.03,11.99-6.64,20.18-.03.38-.41.57-.56-.09-.87-3.9-.78-7.71.42-11.3,1.25-3.71,3.87-6.95,6.66-9.7h0Z"/>
      <path class="cls-6" d="m220.35,247.77c-2.21,1.18-4.72,1.91-7.45,2.34l.03-87.47h7.34l.08,85.14Zm-.08,48.07l.04,46.83-7.11-.05-.05-45.32c2.57-.33,4.79-.84,7.13-1.46h0Z"/>
      <path class="cls-6" d="m212.19,150.88c0-.39-.35-.4-.52,0-3.33,7.76-6.9,15.53-10.73,23.21-.12.25-.7.18-.84-.06-6.68-11.2-3.59-23.6,3.95-28.88.83-.59-.14-1.04-1.24-.58-8.47,3.56-16.02,6.37-24.71,9.34-.29.1-.65-.45-.53-.73,4.73-11.23,12.92-17.84,26.41-17.58.24,0,.23-.59.03-.73-7.77-5.51-16.54-8.5-26.07-9.62-.39-.05-.48-1.03-.11-1.15,15.52-5.29,28.68-3.54,38.44,7.37.18.2.62.12.79-.09,9.88-12.41,23.49-11.91,38.24-7.18.33.1.32,1.02-.03,1.04-8.92.66-17.76,3.9-26.13,9.83-.15.11-.07.54.11.54,12.39-.14,21.61,5.11,26.39,17.73.12.31-.48.7-.79.59-8.54-2.95-16.8-6.64-25.32-9.61-.31-.11-1.06.29-.82.5,9.46,8.64,9.21,18.3,4.72,28.47-.18.41-1.02.96-1.23.56-3.95-7.43-6.93-15.39-10.63-22.95-.09-.19-.46-.18-.47.29l-.03,7.86c0,.67-.02,1.89-.69,1.91l-7.37.17c-.58.02-.93-.99-.92-1.57l.1-8.68Z"/>
      <path class="cls-6" d="m92.96,264.97c-6.5.7-11.11,3.19-11.5,9.45-.37,5.91,4.96,7.8,11.53,8.75v-1.24c-4.21-1.05-8.68-3.28-8.96-4.91-.1-.59.14-.87.61-.42,2.89,2,5.25,2.86,8.32,3.1v-14.73Z"/>
      <path class="cls-6" d="m100.85,55.8c17.55-2.93,36.18-5.31,55.56-6.94,19.13-1.61,39.07-2.47,59.53-2.41,19.18.05,38.4.69,57.55,2.34,19.23,1.66,38.47,4.34,57.63,8.5l4.3.93-3.51,2.65c-4.35,3.29-8.34,6.4-12.32,9.51-3.62,2.83-7.25,5.66-10.69,8.29,3.85,4.64,7.46,9.07,11.07,13.5,4.16,5.1,8.31,10.2,12.39,15.09l3.75,4.5-5.73-1.25c-18.12-3.95-36.71-6.63-55.66-8.34-19-1.72-38.37-2.46-57.98-2.54-19.17-.07-38.96.77-58.99,2.51-18.91,1.64-37.98,4.1-56.89,7.35v233.17h-6.75V53.75h6.75v2.05Zm0,23.07c18.38-3.65,36.98-6.16,55.74-7.75,18.71-1.58,37.69-2.24,56.87-2.17v-18.48c-19.37.02-38.37.87-56.71,2.41-19.54,1.64-38.27,4.04-55.89,7v18.98Zm118.98-9.88c14.9.17,29.63.72,44.07,1.7,14.59.99,29,2.41,43.14,4.31,3.49-2.66,6.77-5.23,10.06-7.79,2.99-2.33,5.98-4.66,8.87-6.88-17.56-3.61-35.18-6-52.82-7.52-17.84-1.53-35.63-2.19-53.32-2.32v18.5Zm85.98,12.26c-13.82-1.84-27.96-3.23-42.33-4.21-14.45-.98-29.02-1.53-43.65-1.7v20.28c18.68.14,37.13.9,55.24,2.53,17.19,1.55,34.05,3.88,50.5,7.21-2.99-3.63-5.86-7.15-8.73-10.67-3.69-4.53-7.39-9.06-11.02-13.45h0Zm-92.36-5.95c-18.88-.06-37.68.6-56.34,2.17-19.03,1.61-37.81,4.16-56.26,7.88v20.04c18.81-3.21,37.76-5.64,56.54-7.28,18.91-1.64,37.71-2.49,56.07-2.51v-20.31Z"/>
      <path class="cls-5" d="m156.74,52.89c-19.54,1.64-38.27,4.04-55.89,7v18.98c18.38-3.65,36.98-6.16,55.74-7.75,18.71-1.58,37.69-2.24,56.87-2.17v-18.48c-19.37.02-38.37.87-56.71,2.41h0Zm-8.4,12.43c-.3-.13-.5-.42-.49-.75.02-.44.42-.79.88-.77.33.01.61.2.75.46.26-.15.55-.27.86-.36l-.16-4.43-4.08.15-.05-1.44,1.28-.05c.14.56.44.95.79.94.34-.01.62-.42.72-.99l1.05-.04-.04-1.11-1.06.04c-.14-.53-.44-.9-.78-.89-.34.01-.61.4-.71.94l-1.3.05-.05-1.49,4.08-.15-.03-1.02,1.96-.07.35,9.45c.34.05.65.14.94.27.14-.27.45-.46.8-.45.23,0,.45.1.59.25.24.16.39.43.37.72-.02.23-.15.44-.33.57.18.25.3.52.38.8h.07c.4.02.73.29.81.64.05.11.07.24.07.37-.03.44-.44.77-.91.74-.08,0-.15-.02-.22-.04-.09.17-.19.34-.32.49.34.11.58.43.56.78,0,.07-.01.14-.03.2-.06.41-.45.71-.9.68-.43-.03-.76-.35-.79-.74-.3.14-.62.26-.96.33.03.09.05.18.04.28-.02.44-.41.78-.88.77-.47-.02-.84-.39-.82-.83,0-.05.01-.11.02-.16-.31-.05-.6-.13-.88-.24-.07.39-.44.69-.88.67-.47-.02-.84-.39-.82-.83.01-.29.19-.54.44-.67-.19-.2-.35-.42-.47-.66-.13.07-.28.1-.43.09-.47-.02-.84-.39-.82-.83.01-.44.41-.79.88-.77l.16.02c.06-.33.19-.64.38-.93h0Z"/>
      <path class="cls-5" d="m157.11,77.48c-19.03,1.61-37.81,4.16-56.26,7.88v20.04c18.81-3.21,37.76-5.64,56.54-7.28,18.91-1.64,37.71-2.49,56.07-2.51v-20.31c-18.88-.06-37.68.6-56.34,2.17h0Zm-7.81,15.14c.07-.33.2-.64.39-.92-.29-.14-.49-.43-.47-.76.02-.44.42-.78.9-.75.33.02.61.21.73.48.27-.14.56-.26.87-.34l-.07-4.44-4.08.07-.02-1.44,1.28-.02c.13.56.43.96.77.95.34,0,.63-.41.74-.98l1.05-.02v-1.11s-1.08.02-1.08.02c-.13-.53-.42-.91-.76-.9-.34,0-.62.39-.73.93l-1.3.02-.02-1.49,4.08-.06-.02-1.02,1.97-.03.15,9.45c.33.06.65.16.94.29.15-.27.46-.45.81-.43.47.03.83.41.81.85-.01.23-.13.44-.31.57.22.29.38.61.47.95h.08c.47.03.83.41.8.85-.02.44-.43.77-.9.75l-.14-.02c-.1.21-.23.41-.39.6.34.12.57.44.55.8-.02.44-.42.77-.9.75-.41-.02-.73-.31-.79-.67-.31.15-.65.26-1.01.34.03.09.04.18.03.28-.02.44-.43.77-.89.75-.47-.02-.83-.4-.81-.84,0-.06.01-.11.03-.16-.31-.05-.6-.14-.88-.25-.07.39-.45.68-.89.65-.47-.03-.83-.41-.8-.85.02-.29.2-.53.45-.66-.19-.2-.34-.43-.45-.67-.13.06-.28.09-.44.08-.47-.03-.83-.41-.8-.85.02-.44.43-.77.89-.75l.16.02Z"/>
      <path class="cls-5" d="m219.83,75.35v20.28c18.68.14,37.13.9,55.24,2.53,17.19,1.55,34.05,3.88,50.5,7.21-2.99-3.63-5.86-7.15-8.73-10.67-3.69-4.53-7.39-9.06-11.02-13.45-13.82-1.84-27.96-3.23-42.33-4.21-14.45-.98-29.02-1.53-43.65-1.7h0Zm45.2,15.68c.1-.32.26-.61.48-.88-.28-.17-.44-.48-.39-.8.06-.44.5-.74.96-.66.33.05.59.27.69.55.28-.12.58-.2.89-.26l.35-4.43-4.07-.32.11-1.44,1.28.1c.07.57.33,1,.68,1.02.34.02.67-.35.83-.91l1.05.08.09-1.11-1.06-.08c-.08-.55-.34-.94-.67-.97-.33-.03-.65.33-.81.85l-1.29-.1.12-1.49,4.07.32.08-1.02,1.96.16-.73,9.42c.32.09.63.22.91.37.17-.25.5-.4.84-.35.46.07.79.48.72.92-.04.23-.17.43-.36.54.19.31.32.64.38.99h.07c.47.08.79.49.72.93-.06.44-.5.73-.96.66l-.14-.03c-.12.2-.27.39-.44.56.32.16.52.49.47.84-.07.43-.5.73-.96.66-.4-.06-.7-.38-.73-.74-.32.12-.67.2-1.04.23.02.09.02.19,0,.28-.07.44-.5.73-.96.66-.47-.07-.79-.48-.72-.92,0-.05.02-.11.04-.16-.3-.08-.59-.2-.85-.34-.11.39-.51.64-.94.57-.46-.07-.79-.48-.72-.92.04-.29.25-.52.51-.61-.17-.22-.3-.46-.39-.71-.14.05-.29.07-.44.04-.47-.07-.79-.48-.72-.92.07-.43.5-.73.96-.66l.16.04Z"/>
      <path class="cls-5" d="m219.83,69c14.9.17,29.63.72,44.07,1.7,14.59.99,29,2.41,43.14,4.31,3.49-2.66,6.77-5.23,10.06-7.79,2.99-2.33,5.98-4.66,8.87-6.88-17.56-3.61-35.18-6-52.82-7.52-17.84-1.53-35.63-2.19-53.32-2.32v18.5Zm47.79-4.11c-.28-.16-.45-.47-.39-.8.07-.43.5-.73.96-.66.33.05.59.27.69.55.28-.12.58-.21.9-.26l.34-4.42-4.07-.31.11-1.44,1.28.1c.07.57.34,1,.68,1.02.35.02.67-.35.83-.91l1.05.08.09-1.11-1.06-.08c-.08-.55-.34-.95-.68-.97-.33-.03-.65.33-.81.86l-1.29-.1.11-1.49,4.07.31.08-1.02,1.96.15-.72,9.42c.32.09.63.22.91.37.18-.25.5-.4.84-.35.46.07.79.48.73.92-.04.23-.17.42-.36.54.2.3.32.64.38.99h.08c.46.08.79.49.72.93-.06.44-.5.74-.96.66l-.14-.04c-.12.21-.27.39-.44.57.32.15.52.49.47.84-.06.43-.5.73-.96.66-.4-.06-.7-.38-.73-.74-.32.12-.67.2-1.04.24.02.09.02.18,0,.28-.06.43-.5.73-.96.66-.46-.07-.79-.48-.73-.91,0-.06.02-.11.04-.16-.3-.09-.59-.2-.85-.34-.11.39-.51.64-.95.57-.46-.07-.79-.48-.72-.92.04-.29.24-.51.51-.61-.17-.22-.3-.46-.39-.71-.14.05-.29.07-.44.04-.47-.07-.79-.48-.73-.92.07-.43.5-.73.96-.66l.15.04c.1-.32.26-.62.48-.88h0Z"/>
      <path class="cls-5" d="m153.58,67.94c.46-.38.73-.89.71-1.43-.02-.54-.33-1.03-.82-1.38-.16-.11-.33-.21-.52-.29,0,.05.01.09.01.14,0,.57-.63,1.03-1.41,1.03-.09,0-.17,0-.25-.02-.71-.04-1.27-.45-1.28-.97,0-.03,0-.06,0-.09-.19.1-.37.22-.52.34-.46.38-.73.89-.71,1.43.02.54.33,1.03.82,1.37.52.37,1.23.59,2.01.56.79-.03,1.48-.3,1.97-.7h0Z"/>
      <path class="cls-5" d="m154.2,91.4c0,.57-.62,1.04-1.4,1.05-.78.01-1.42-.44-1.43-1.01,0-.03,0-.05,0-.08-.2.09-.37.2-.53.33-.46.38-.75.88-.74,1.42,0,.54.31,1.04.79,1.39.51.38,1.21.61,2,.6.78-.01,1.48-.27,1.98-.66.46-.38.75-.88.74-1.42,0-.54-.31-1.04-.79-1.4-.19-.14-.4-.26-.63-.35v.13Z"/>
      <path class="cls-5" d="m266.45,93.06c.47.43,1.15.72,1.93.78.78.06,1.5-.12,2.04-.47.5-.33.83-.8.88-1.34.04-.54-.21-1.06-.66-1.46-.17-.16-.38-.3-.6-.41,0,.04,0,.09,0,.13-.05.57-.71.97-1.49.91-.78-.06-1.37-.57-1.33-1.14v-.08c-.19.07-.38.17-.55.28-.5.33-.83.8-.88,1.34-.04.54.21,1.06.66,1.46h0Z"/>
      <path class="cls-5" d="m270.49,68.57c.78.06,1.5-.13,2.03-.48.5-.33.83-.8.87-1.34.04-.54-.21-1.06-.66-1.46-.17-.16-.38-.3-.6-.41,0,.04,0,.08,0,.12-.04.57-.71.98-1.49.92-.78-.06-1.37-.57-1.33-1.13v-.09c-.19.08-.38.17-.55.28-.5.33-.83.8-.87,1.34-.04.54.21,1.06.66,1.46.47.43,1.16.72,1.94.78h0Z"/>
      <path class="cls-3" d="m117.02,391.74c10.96,12.73,20.96,22.41,30.84,30.09,9.8,7.63,19.08,13.03,27.94,16.77,2.12.9,4.09,1.32,5.83,1.32,1.88,0,3.51-.48,4.83-1.37,1.32-.88,2.37-2.2,3.06-3.84.65-1.54,1-3.37,1.01-5.44l.07-62.72h6.99l-.07,62.72c0,3.02-.55,5.77-1.55,8.15-1.24,2.93-3.15,5.29-5.61,6.94-2.46,1.64-5.41,2.55-8.72,2.54-2.66,0-5.54-.6-8.55-1.87-9.46-4-19.27-9.69-29.53-17.67-10.19-7.94-21.1-18.81-32.41-31.96l5.88-3.67Z"/>
      <path class="cls-3" d="m315.55,391.7c-10.96,12.73-21.07,22.44-30.95,30.12-9.8,7.63-19.07,13.03-27.94,16.77-2.12.9-4.09,1.32-5.84,1.32-1.88,0-3.51-.48-4.83-1.37-1.32-.88-2.36-2.2-3.06-3.84-.65-1.54-1.01-3.37-1.01-5.44l-.07-62.72h-6.99l.07,62.72c0,3.02.55,5.77,1.56,8.15,1.24,2.93,3.15,5.29,5.61,6.94,2.46,1.64,5.41,2.55,8.72,2.54,2.66,0,5.54-.6,8.55-1.87,9.46-4,19.27-9.69,29.53-17.67,10.19-7.94,21.41-18.88,32.73-32.03l-6.09-3.63Z"/>
      <path class="cls-8" d="m180.38,371.68c.2.76,1.5,2.07,2.09,2.48,4.05,2.83,7.71,3.79,12.41,5.1,6.78,1.89,13.8,2.44,20.81,2.5,1.56.01,3.12.16,4.67.16,13.53.05,28.25,1.22,40.42,7.61,7.7,4.04,14.11,9.44,13.93,18.88-.16,8.44-7.66,14.04-14.53,17.47-6.8,3.4-14.07,5.08-21.55,6.21-7.26,1.09-14.05,1.31-21.39,1.24-9.76-.11-19.92-.43-29.51-2.38-7.71-1.56-17.16-5.16-23.21-10.32-5.36-4.57-6.73-9.19-6.47-16.08l.16-4.17,17.4.36.03,4.13c0,.95.09,3.68.77,4.43,3,3.37,10.64,6.03,14.87,7.14,7.98,2.09,17.28,1.88,25.51,2.1,6.44.17,13.14.02,19.52-.95,5.83-.88,11.34-2.93,16.56-5.62,1.17-.6,4.13-2.92,4.16-4.39.03-1.62-3.31-3.89-4.47-4.62-9.73-6.09-21.3-6.19-32.4-6.23-1.54,0-3.08,0-4.62,0-8.19-.08-16.49-.46-24.47-2.45-6.62-1.65-13.76-4.46-19.31-8.43-4.51-3.23-8.26-7.38-9.05-13.05-.84-6.06,1.84-10.03,5.88-14.09,5.4-5.43,12.94-8.49,20.21-10.46,8.96-2.43,18.91-3.29,28.16-3.18,6.92.08,13.84.6,20.65,1.85,7.36,1.34,13.68,3.67,20.28,7.22,3.15,1.7,5.66,3.44,8.05,6.15,3.13,3.56,4.18,7.45,4.12,12.09l-.05,4.24-17.68-.15-.05-4.16c-.04-2.77-1.34-3.62-3.4-5.15-4.21-3.14-8.93-4.38-14-5.35-6.02-1.15-11.93-1.52-18.04-1.59-7.78-.09-16.4.64-23.89,2.85-4.3,1.27-7.41,2.45-10.9,5.26-.86.69-1.64,2.24-1.68,3.36h0Z"/>
      <path class="cls-3" d="m256.55,372.24c-.06-4.89-2.83-6.81-5.11-8.51-4.82-3.59-10.03-5.02-15.75-6.11-6.44-1.23-12.37-1.59-18.79-1.67-7.79-.09-17.11.65-25.15,3.03-5.7,1.68-8.79,3.14-12.37,6.03-1.52,1.22-3.26,3.91-3.27,6.75,0,2.19,2.29,4.75,3.91,5.88,4.47,3.13,8.03,4.13,13.7,5.71,7.46,2.07,14.99,2.59,21.9,2.66,1.57.02,3.22.16,4.7.17,14.3.05,27.66,1.45,38.46,7.12,7.77,4.07,11.78,8.41,11.65,15.03-.12,6.46-6.64,10.99-12.18,13.75-6.39,3.19-13.24,4.74-20.29,5.81-6.82,1.03-12.18,1.28-20.71,1.18-10.39-.11-20.11-.54-28.72-2.29-8.65-1.76-16.8-5.56-21.29-9.39-3.87-3.3-5.22-6.35-4.97-12.68l9.1.19c.02,1.98.15,5.32,1.85,7.23,2.64,2.97,8.73,6.26,16.96,8.42,7.96,2.09,16.71,1.97,26.47,2.23,6.41.17,13.65,0,20.26-.99,6.38-.96,12.31-3.18,17.87-6.05,2.62-1.35,6.4-4.68,6.46-8.09.07-3.69-3.72-6.58-6.46-8.3-10.19-6.38-21.43-6.83-34.64-6.88-1.52,0-3.06,0-4.6,0-7.55-.07-15.75-.39-23.48-2.32-6.45-1.61-13.07-4.32-17.87-7.76-4.5-3.22-6.8-6.5-7.31-10.18-.65-4.73,1.81-7.62,4.68-10.51,4.54-4.57,11.15-7.41,18.32-9.36,8.72-2.37,18.63-3.13,27-3.04,6.75.08,13.43.59,19.94,1.78,6.72,1.22,12.43,3.23,19.04,6.78,2.36,1.27,4.59,2.63,6.87,5.21,2.64,2.99,3.1,6.11,3.06,9.23l-9.27-.08Z"/>
      <path class="cls-3" d="m140.02,220.54c-1.27-2.82-1.17-6.03-.31-8.07.4-.94,1.23-1.38,2.21-1.19,1.98.38,3.08,1.74,4.25,2.99.21-.49.52-1.04.63-1.48.06-.24.06-.52-.07-.73-1.14-1.84-3.76-2.84-5.87-2.75-2.86.12-3.6,3.1-3.66,6.08-.04,2.64,1.43,5.05,2.7,6.73.2.27.65.25.63.07-.06-.6-.29-1.12-.52-1.65h0Z"/>
      <path class="cls-3" d="m148.6,224.1c-1.2,1.11-3.01,1.38-4.71,2.07-.54.25-.3.54.28.53.95-.02,1.9.04,2.85.07.89.04,1.75.39,2.35.98.58.57,1,1.14,1.97,1.39.6.16,1.25.18,1.85.04.48-.11.84-.43,1.22-.7.51-.35.88-.06,1.19.41.83,1.19,1.45,2.64,1.7,4.02.05.3.43.3.43-.06-.03-2.64-.36-5.2-1.09-7.8-.19-.69-.54-.94-1.37-.6-.42.18-.87.3-1.3.46-.63.15-1.18.26-1.83-.02-.63-.27-.98-.43-1.69-.88-.61-.38-1.41-.33-1.86.09h0Z"/>
      <path class="cls-3" d="m161.89,224.02c0,1.74.17,3.15.5,4.86.16.83.78.68.77-.15-.01-3.52-.08-5.88-.12-8.98,0-.72-.43-.45-.51-.17-.38,1.46-.66,2.93-.64,4.44h0Z"/>
      <path class="cls-3" d="m168.71,225.05c-.73,2.61-1.06,5.16-1.09,7.8,0,.36.38.37.43.06.25-1.37.87-2.83,1.7-4.02.32-.47.69-.76,1.19-.41.39.27.74.59,1.22.7.61.14,1.25-.11,1.86-.04.99.11,1.39-.82,1.97-1.39.6-.59,1.47-.95,2.36-.98.95-.04,1.9-.09,2.85-.07.59.01.82-.28.28-.53-1.71-.69-3.51-.96-4.71-2.07-.45-.42-1.26-.47-1.86-.09-.71.45-1.06.61-1.69.88-.65.27-1.19.17-1.83.02-.43-.15-.88-.28-1.3-.46-.84-.34-1.18-.1-1.37.6h0Z"/>
      <path class="cls-3" d="m178.72,235.18c.93,1.72,1.81,3.34,2.17,5.05.16.79.32,1.5.32,2.4,0,.63.21,1.23.53,1.79.21.38.4.13.48-.02.06-.94.25-3.87-.11-5.26-.36-1.36-1.59-2.94-2.79-4.21-.41-.43-.84-.21-.6.25h0Z"/>
      <path class="cls-3" d="m165.38,248.1c1.52-1.14,2.83-2.49,3.45-4.66.08-.29-.22-.53-.7-.12-1.62,1.36-3.21,2.08-5.63,2.08s-3.94-.72-5.55-2.08c-.48-.41-.79-.17-.7.12.62,2.16,1.93,3.51,3.45,4.66,1.3.98,2.23,2.32,2.28,3.73.07,1.63-.69,2.51-2.06,3.31-2.7,1.57-6.01,2.01-9.42,2-1.46,0-.81.5.07.77,4.01,1.21,8.67-.29,11.33-1.75.15-.08.31-.24.62-.24.38,0,.52.15.67.24,3.32,1.76,7.31,2.97,11.33,1.75.89-.27,1.54-.77.07-.77-3.4,0-6.72-.43-9.42-2-1.37-.8-2.12-1.67-2.05-3.31.05-1.4.98-2.75,2.29-3.73h0Z"/>
      <path class="cls-3" d="m144.46,242.63c0-.89.16-1.61.33-2.4.36-1.71,1.24-3.34,2.17-5.05.25-.45-.19-.67-.6-.25-1.2,1.27-2.43,2.85-2.79,4.21-.52,1.95-.1,3.37-.16,5.18,0,.18.24.63.53.11.31-.56.53-1.39.53-1.79h0Z"/>
      <path class="cls-3" d="m271.4,237.18c15.5.82,31.91,4.39,44.04,10.91-6.91-6.26-14.11-9.07-21.99-10.63-7.63-1.52-15.09-1.34-22.05-.28h0Z"/>
      <path class="cls-3" d="m252.27,275.2c-23.75,11.63-49.13,18.56-71.66,15.81l-2.53,5.18c27.14.32,52.46-5.48,74.19-20.98h0Z"/>
      <path class="cls-3" d="m272.77,279.15c-2.79,2.76-5.41,5.99-6.66,9.7-1.2,3.59-1.29,7.4-.42,11.3.15.66.54.47.56.09.6-8.19,2.54-14.56,6.64-20.18.29-.4.39-1.42-.12-.91h0Z"/>
      <path class="cls-3" d="m184.87,220.54c1.27-2.82,1.17-6.03.31-8.07-.4-.94-1.23-1.38-2.21-1.19-1.98.38-3.08,1.74-4.25,2.99-.21-.49-.52-1.04-.63-1.48-.06-.24-.06-.52.07-.73,1.14-1.84,3.76-2.84,5.87-2.75,2.87.12,3.61,3.1,3.66,6.08.04,2.64-1.43,5.05-2.7,6.73-.2.27-.65.25-.63.07.05-.6.29-1.12.53-1.65h0Z"/>
      <path class="cls-3" d="m229.34,26.5l3.03.11c2.19.08,4.12-.5,4.2-2.97.09-2.82-2.39-3.4-4.58-3.44l-2.55-.04-.09,6.34Z"/>
      <path class="cls-3" d="m248.14,20.96l-.23,4.12,2.02.12c2.04.13,4.62.18,4.59-1.92-.03-1.97-2.36-2.11-4.3-2.21l-2.09-.11Z"/>
      <path class="cls-3" d="m250.16,28.34l-2.43-.13-.29,4.66,2.48.18c2.27.17,4.48-.27,4.63-1.95.2-2.23-2.09-2.63-4.39-2.76h0Z"/>
    </g>
  </g>
</svg>