<?xml version="1.0" encoding="UTF-8"?>
<svg id="Livello_2" data-name="Livello 2" xmlns="http://www.w3.org/2000/svg" viewBox="0 0 407.28 457.89">
  <defs>
    <style>
      .cls-1 {
        fill: #feeb00;
      }

      .cls-1, .cls-2, .cls-3 {
        fill-rule: evenodd;
        stroke-width: 0px;
      }

      .cls-2 {
        fill: #e40f18;
      }

      .cls-3 {
        fill: #12110c;
      }
    </style>
  </defs>
  <g id="Layer_1" data-name="Layer 1">
    <g>
      <polygon class="cls-2" points="203.64 457.89 407.28 254.24 340.26 100.49 378.14 100.49 378.14 0 29.14 0 29.14 100.49 67.02 100.49 0 254.24 203.64 457.89 203.64 457.89"/>
      <path class="cls-1" d="m48.23,19.09v62.31c9.39,0,301.42,0,310.82,0V19.09H48.23Z"/>
      <path class="cls-3" d="m203.64,100.49h-115.79c-17.75,40.72-58.28,133.69-65.15,149.46,15.61,15.61,158.54,158.55,180.94,180.95V100.49h0Z"/>
      <path class="cls-1" d="m319.43,100.48h-115.79v330.41c22.4-22.4,165.33-165.34,180.94-180.95-6.87-15.77-47.4-108.74-65.15-149.46h0Z"/>
      <polygon class="cls-3" points="92.52 42.14 99.29 73.5 108.13 73.5 118.58 29.18 110.52 29.18 103.78 63.27 97.05 29.18 88.56 29.18 81.73 63.27 74.88 29.18 66.67 29.18 77.12 73.5 86.31 73.5 92.52 42.14 92.52 42.14"/>
      <path class="cls-3" d="m133.64,57.76l4.87-15.06,4.87,15.06h-9.74Zm14.83,15.75h8.49l-14.24-38.72h-8.42l-14.24,38.72h8.49l2.92-9.02h14.09l2.92,9.02h0Z"/>
      <polygon class="cls-3" points="157.09 34.79 157.09 41.52 167.69 41.52 167.69 73.5 175.83 73.5 175.83 41.52 186.21 41.52 187.82 34.79 157.09 34.79 157.09 34.79"/>
      <polygon class="cls-3" points="194.7 34.79 194.7 73.5 202.55 73.5 202.55 56.73 214.29 56.73 214.29 50 202.55 50 202.55 41.52 216.16 41.52 217.77 34.79 194.7 34.79 194.7 34.79"/>
      <path class="cls-3" d="m240.78,68.35c-7.72,0-9.63-6.28-9.63-14.03s1.91-14.03,9.63-14.03,9.63,6.28,9.63,14.03-1.91,14.03-9.63,14.03h0Zm0-34.06c-13.19,0-18.71,8.97-18.71,20.03s5.52,20.03,18.71,20.03c13.19,0,18.71-8.97,18.71-20.03s-5.52-20.03-18.71-20.03h0Z"/>
      <path class="cls-3" d="m282.87,51.61h-6.1v-10.09h6.1c2.21,0,5.54.34,5.54,4.72s-3.33,5.37-5.54,5.37h0Zm4.98,5.54v-.42c2.6,0,9.12-2.45,9.12-10.73s-6.31-11.21-13.54-11.21h-14.66v38.72h8v-16.15h.68c2.69,0,12.16,16.15,12.16,16.15h10.1s-11.86-16.36-11.86-16.36h0Z"/>
      <path class="cls-3" d="m322.04,66.78h-6.12v-25.26h6.12c5.29,0,8.33,5.11,8.33,12.73s-3.04,12.53-8.33,12.53h0Zm-.28-31.99h-13.75v38.72h13.75c12.35,0,17.49-8.27,17.49-19.26s-5.15-19.46-17.49-19.46h0Z"/>
      <path class="cls-3" d="m138.12,130.99c0,1.17.13,1.93.24,2.59.12.71.25,1.46.25,3.32,0,5.91-1.36,8.67-2.29,8.67-.19,0-.29-.01-.36-.02-.11-.12-.3-.39-.45-.6-1.59-2.28-3.78-4.71-9.66-4.71-5.46,0-9.13,3.88-9.13,9.64,0,8.46,2.14,15.3,3.86,20.8,1,3.2,1.86,5.96,1.86,7.79,0,1.47-.71,2.92-1.13,3.23-2.14-.03-2.85-.73-4.36-2.22-2.04-2.02-4.84-4.79-11.12-4.79-2.67,0-8.87.92-8.87,9.43,0,3.71,1.29,6.87,2.54,9.93,1.33,3.25,2.7,6.61,2.7,11.02,0,.36-.03,3.48-1.04,3.48-4.02,0-5.53-2.49-7.85-6.88-2.02-3.83-4.53-8.59-10.35-8.59-9.56,0-9.56,14.28-9.56,19.66,0,30.37,28.83,41.39,48.2,41.39,3.68,0,5.83-.31,7.92-.61,2.15-.31,4.18-.61,8.19-.61,11.75,0,20.66,2.35,26.03,6.79-2.95-1.12-6.47-1.87-10.66-1.87-10.11,0-13.86,2.4-17.4,5.31-1.34,1.1-2.31,1.9-4.13,2.42l-14.37,4.12,14.59,3.27c6.09,1.37,9.46,6.15,13.04,11.21,3.81,5.4,8.12,11.52,16.05,11.52.73,0,1.44-.06,2.11-.16-.68,3.74-1.25,8.48-1.25,13.95,0,7.91,1.94,10.99,4.47,14.19l1.22,1.62c1.13,1.66,2.34,3.27,3.52,4.82,4.17,5.52,8.11,10.73,8.11,17.88,0,3.8.18,6.88.36,9.85.18,2.97.34,5.78.34,9.3,0,10.54,7.28,13.8,11.19,15.55.4.18.87.39,1.24.58.75,3.6,4.3,4.78,6.53,5.5l.78.26s.81.32.81.32c1.13.49,2.68,1.15,5.47,1.15,7.28,0,10.48-5.41,11.14-9.91.13-.05.25-.11.37-.16,3.21-1.42,9.89-4.37,9.89-13.76,0-4.92-.61-8.63-1.15-11.92-.4-2.42-.74-4.51-.74-6.58,0-5.96,2.43-8.97,5.79-13.14,4.53-5.62,10.16-12.61,10.16-28.34,0-5.57-.31-9.83-.72-13.05.91.21,1.86.36,2.84.36,10.43,0,14.02-6.25,16.63-11.43,4.89-9.7,14.33-9.13,14.33-9.13,0,0-7.48-12.94-25.3-12.94-5.43,0-9.59,1.09-12.75,2.51,1.46-4.19,3.95-6.06,5.99-7.15,4.91-2.61,12.22-2.83,18.68-2.83,3.98,0,6.79.29,9.51.58,2.57.27,5.22.55,8.63.55,26.27,0,33.17-8.32,40.46-17.13,6.2-7.48,10.31-14.74,10.31-25.97,0-7.54-2.18-15.6-8.31-15.6-5.3,0-7.58,4.95-9.42,8.93-2.19,4.75-3.47,6.73-5.73,6.73-2.95,0-5.35-2.9-5.35-6.47,0-3.3,2.19-7.47,4.3-11.5,2.42-4.6,4.91-9.36,4.91-14.09,0-2.66-1.1-5.03-3.09-6.68-1.67-1.38-3.82-2.14-6.06-2.14-4.66,0-8.38,3.88-11.98,7.64-2.3,2.4-5.42,5.65-7.32,5.76-.39-.33-.97-1.66-.97-2.71,0-3.28,1.47-8.11,2.88-12.79,1.52-5.03,2.96-9.78,2.96-13.59,0-8.23-4.8-11.91-9.55-11.91-4.33,0-7.14,2.03-9.4,3.65-1.69,1.22-2.78,1.92-4.12,2.03-.03-.06-.05-.11-.06-.16,0-.17.01-3.94.01-3.94,0-1.2,0-2.35,0-3.46,0-8.72-.35-14.64-3.74-18.04-1.65-1.65-3.8-2.49-6.39-2.49-11.94,0-17.29,15.76-17.29,31.39,0,7.25.3,13.65.59,19.84.28,5.9.54,11.47.54,17.51,0,14.49-2.97,26.37-5.5,32.56-.82-6.92-2.08-17.32-10.13-17.32-6.67,0-8.23,8.52-10.03,18.38-1.62,8.86-3.84,20.99-9.36,20.99-4.61,0-5.96-8.44-7.23-19.47-1.25-10.81-2.67-23.07-12.29-23.07-10.46,0-11.14,13.56-11.59,22.53-.06,1.12-.12,2.46-.22,3.75-2.55-5.01-5.65-13.64-5.65-21.55,0-10.05.64-17.92,1.25-25.53.59-7.3,1.2-14.85,1.2-24.02,0-20.21-5.03-25.67-9.46-30.49l-.31-.34c-2.97-3.23-5.77-6.29-10.18-6.29-6.33,0-9.64,5.97-9.64,11.86h0Z"/>
      <path class="cls-2" d="m231.73,299.21l-.65,1.07s-3.6-1.17-6.92-1.17c-5.99,0-8.18,4.12-8.18,4.12,0,0,1.96-1.17,5.84-1.17,5.14,0,8.89,2.76,8.89,3.79s-1.59,1.64-2.85,1.64c0,2.48-3.37,5.89-13.52,5.89,0,5,3.09,8.32,3.09,9.77-2.57,0-2.95,2.48-2.95,6.88,0,0-3.55-14.08-3.55-19.74,0-8.37,3.37-14.68,10.52-14.68,5.1,0,10.29,3.6,10.29,3.6h0Zm21.64-28.18c1.58,0,2.46.28,2.46.28-9.44,1.72-9.33,13.12-16.87,13.12-1.65,0-2.74-.73-2.74-.73,1.05-2.07,4.59-2.56,4.59-5.37-2.45,0-4.24.21-6.63.7,0-.91,7.54-8,19.19-8h0Zm-63.17,59.6v-6.08c0-1.68-.75-2.43-2.25-2.43l3.93-8.98v-.89c-6.97,0-13-1.4-13-6.36h-1.96c-.42,0-1.31-.47-1.31-1.31,0-.61,2.34-3.27,7.86-3.27,4.21,0,6.73,1.78,6.73,1.78,0,0-2.38-5.61-8.79-5.61-3.79,0-4.77.52-4.77.52,0,0,2.29-2.95,5.38-2.95,9.68,0,12.21,6.08,12.21,16.79,0,11.32-4.02,18.8-4.02,18.8h0Zm-26.89-50.55c0,.98,3.13,1.73,4.96,1.73,0,1.12-2.2,2.76-4.25,2.76-7.9,0-4.07-12.25-19.88-15.34,0,0,.84-.38,2.9-.38,12.49,0,16.09,9.68,22.87,9.68-1.96.23-6.6.38-6.6,1.54h0Zm158.21-80.81c-6.31,0-5.89,15.67-15.15,15.67-5.12,0-9.17-4.58-9.17-10.29,0-8.33,9.21-17.87,9.21-25.58,0-3.3-2.78-5-5.33-5-6.22,0-12.53,13.42-19.41,13.42-3.23,0-4.68-4.21-4.68-6.55,0-7.48,5.85-19.69,5.85-26.38,0-5.38-2.43-8.09-5.73-8.09-6.1,0-8.13,5.73-13.87,5.73-2.19,0-3.52-2.39-3.52-3.93,0-15.01.77-24.2-6.29-24.2-9.14,0-13.47,13.82-13.47,27.57s1.12,24.76,1.12,37.34c0,19.48-4.7,35.81-8.8,39.34,0,0-1.02,11.35,3.47,11.35,9.05,0,23.76-25.35,42-25.35,8.23,0,8.79,5.05,8.79,7.11,0,6.64-9.35,10.01-9.35,14.22,0,2.15,3.27,2.34,7.29,2.34,11.97,0,20.76-7.39,20.76-7.39,0,0-8.61,10.2-22.07,10.2-5.89,0-10.48-1.87-10.48-5.33,0-5.52,11.13-9.91,11.13-15.43,0-1.68-1.87-4.02-6.08-4.02-14.87,0-30.59,28.15-42.84,28.15-2.53,0-6.03-1.68-6.03-8.08,0-5.46-.42-28.04-7.26-28.04-8.21,0-4.28,39.38-19.38,39.38-15.97,0-6.43-42.53-19.52-42.53-7.95,0-6.7,11.51-7.95,21.88-1.02,8.49-3.49,16.21-8.7,16.21-6.87,0-11.74-3.16-17.59-6.78-3.73-2.3-7.68-4.58-10.98-7.05-5.33-4-8.26-7.98-13.53-7.98-2.81,0-5.89,1.54-5.89,4.42,0,5.61,5.89,7.79,5.89,12.63,0,2.73-4,4.91-8.56,4.91-13.89,0-22.24-9.12-22.24-12.77,0,0,6.94,9.82,22.87,9.82,3.44,0,4.7-.77,4.7-2.46,0-3.16-4.77-5.96-4.77-12.07,0-3.86,3.02-7.01,7.37-7.01,5.54,0,9.3,4.05,15.02,8.21,8.23,5.99,18.93,12.76,27.14,12.76,3.16,0,5.26-1.4,5.26-4.68,0-3.11-9.33-11.66-9.33-29.13,0-19.99,2.45-31.14,2.45-49.55s-4.6-23.7-8.77-28.24c-3.13-3.41-4.84-5.05-7.37-5.05-4.35,0-5.82,4.77-5.82,8.04,0,2.01.49,2.13.49,5.92,0,6.81-1.61,12.49-6.1,12.49-5.26,0-2.52-5.33-10.48-5.33-3.81,0-5.31,2.74-5.31,5.82,0,13.19,5.72,22.59,5.72,28.59,0,2.98-1.72,7.05-4.8,7.05-7.93,0-6.52-7.02-15.62-7.02-3.88,0-5.05,2.25-5.05,5.61,0,6.52,5.24,11.51,5.24,20.95,0,4.16-1.4,7.3-4.86,7.3-11.83,0-10.36-15.47-18.2-15.47-4.01,0-5.74,5.25-5.74,15.84,0,28.34,27.69,37.58,44.38,37.58,7.08,0,7.85-1.21,16.11-1.21,38.75,0,35.62,23.72,35.62,23.72,0,0-4.95-11.16-20.26-11.16s-13.31,5.52-20.48,7.58c14.89,3.34,16.23,22.63,28.25,22.63,5.38,0,8.04-4.12,8.04-4.12,0,0-3.37,8.68-3.37,21.72,0,8.91,2.63,10.13,5.04,13.66,5.13,7.54,12.29,14.19,12.29,24.85,1.72,0,3.02-7.93,3.96-7.93.63,0,1.16,1.23,1.16,2.98,0,4.06-4.42,11.22-4.42,24.1,0,7.71,4.85,10.22,8.45,11.85.88,0,5.93-10.61,5.93-10.61-3.04,8.28-2.1,12.91-2.1,13.47,0,2.2,2.14,2.65,4.87,3.56,1.54.52,2.35,1.28,5.07,1.28,6.34,0,7.46-5.66,7.46-7.88s-2.3-6.46-2.3-8.98c0,0-.09-1.54.28-1.54.79,0,4.15,8.82,4.15,8.82,2.97-1.32,7.99-3.24,7.99-10.43,0-8.37-5.07-19.74-5.07-24.86,0-1.19.42-1.96.84-1.96.98,0,2.64,4.62,2.64,4.62,2.19-12.8,15.65-14.03,15.65-37.78,0-15.04-2.29-19.88-2.29-19.88,0,0,4,3.37,8.23,3.37,14.5,0,11.06-14.45,22.45-19.27,0-1.43-6.13-6.59-16.79-6.59-13.47,0-17.82,7.3-17.82,7.3,0-21.14,14.8-22.4,29.74-22.4,8,0,11.44,1.12,18.15,1.12,24.5,0,30.52-7.3,37.55-15.78,6.24-7.53,9.4-14.03,9.4-23.5,0-5.12-1.26-11.78-4.49-11.79h0Z"/>
      <path class="cls-2" d="m215.6,308.94l-.56,1.22s1.17.84,3.69.84c5.05,0,7.27-4.09,6.78-4.58-.49-.49-2.67,3.13-6.59,3.13-2.34,0-3.32-.61-3.32-.61h0Z"/>
      <path class="cls-2" d="m221.07,307.54c0,.39-.5.7-1.12.7s-1.12-.32-1.12-.7.5-.7,1.12-.7,1.12.31,1.12.7h0Z"/>
      <path class="cls-2" d="m182.41,305.66c.53.4,1.58,3.05,4.34,3.05,2.01,0,2.29-.75,2.92-1.1.63-.35,1.29.3.89.89-.4.59-1.15,1.33-3.72,1.33-3.32,0-5.26-2.71-5.52-3.37-.44-1.14.02-1.54,1.09-.8h0Z"/>
      <path class="cls-2" d="m187.24,306.45c0,.35-.42.64-.94.64s-.94-.29-.94-.64.42-.64.94-.64.94.29.94.64h0Z"/>
    </g>
  </g>
</svg>