<?xml version="1.0" encoding="UTF-8"?>
<svg id="Livello_2" data-name="Livello 2" xmlns="http://www.w3.org/2000/svg" viewBox="0 0 318.75 382.68">
  <defs>
    <style>
      .cls-1 {
        fill: #091453;
      }

      .cls-1, .cls-2, .cls-3, .cls-4, .cls-5, .cls-6, .cls-7 {
        fill-rule: evenodd;
        stroke-width: 0px;
      }

      .cls-2 {
        fill: red;
      }

      .cls-4 {
        fill: #592d09;
      }

      .cls-5 {
        fill: #018b4b;
      }

      .cls-6 {
        fill: #fff;
      }

      .cls-7 {
        fill: #999;
      }
    </style>
  </defs>
  <g id="Livello_1-2" data-name="Livello 1">
    <g>
      <path class="cls-7" d="m159.37,382.68c85.61-18.66,159.38-77.62,159.38-172.66V13.68C275.23,5.13,219.72,0,159.37,0S43.52,5.13,0,13.68v196.34c0,95.04,73.76,154,159.37,172.66h0Z"/>
      <path class="cls-6" d="m176.02,365.89c11.5-3.53,22.66-7.85,33.3-12.95v-41.17c5.09.85,10.16.52,15-1.61-.8-3.35-2.43-6.6-4.8-9.21,4.83-.87,15.09-3.37,18.09-9.91-4.18-6.66-16.07-8.39-20.74-8.99,2.34-3.31,3.3-6.89,4.11-10.82-3.92-.67-7.82-1.06-11.66-.74v-16.94c9.03,1.79,19.39,6.55,28.16,10.59,1.76.81,3.47,1.58,5.14,2.28v66.69c12.53-9.19,23.77-19.79,33.3-31.73v-33.96c.17-.07.34-.14.5-.21l-.5-.27v-4.48c.16-.02.33-.04.49-.07-.16-.61-.32-1.21-.49-1.79v-7.57l2.62.06c-.87-1.06-1.74-2.06-2.62-3v-120.9h33.5V21.87c-41.47-7.78-93.57-12.43-150.05-12.43S50.79,14.09,9.32,21.87v107.31h33.5v172.19c9.53,11.95,20.77,22.54,33.3,31.73v-162.33c3.03,4.82,3.85,11.01,5.32,16.59,1.89,7.2,4.12,14.46,6.47,21.57,5.5,16.68,12.2,27.45,21.51,35.18v23.5c-4.65-1.23-9.34-1-14.18-.23.69,3.71,1.46,7.19,3.52,10.43-4.8.49-17.63,1.69-18.57,8.5,2.9,7.23,11.01,9.74,15.63,10.9.19.05.37.09.56.14-2.35,2.69-3.45,5.46-4.19,8.78,5.43,2.72,11.4,2.94,17.23,1.49v45.31c10.65,5.1,21.8,9.42,33.3,12.95v-33.99c1.47-.94,2.9-1.98,4.2-3.16.86,6.68,4.25,11.79,8.56,16.58,2.74-2.61,5.23-5.16,6.82-8.65,2.48,3.07,8.09,9.53,13.71,10.92v18.31Zm33.3-160.79v-75.92h33.3v91.9c-7.54-3.86-16.09-6.37-24.43-8.82h0c-.12-.04-.29-.09-.52-.15-2.72-2.46-5.5-4.79-8.35-7.01h0Zm-133.2-61.41v-14.51h33.3v17.75c-8-5.99-21.65-4.45-28.77-.72l-4.53-2.51Zm94.69,140.19c-.66,1.45-1.29,2.86-1.91,4.23.5-.01.99-.01,1.48,0,.06-1.43.2-2.84.42-4.24h0Zm-11.81,6l.51-1.54,4.55-13.83c-3.56,2.82-6.95,5.85-10.23,9,1.57,1.72,2.53,4.01,2.53,6.52,0,.24,0,.49-.03.72.77-.26,1.53-.51,2.28-.75.13-.04.26-.08.39-.12h0Zm-13.78-9.44c3.98-5.15,8.7-11.19,15.23-17.37-6.8-.97-12.57-2.03-17.72-3.32v21.42c.78-.35,1.62-.6,2.49-.73h0Zm-2.49-108.43c11.51,3.58,22.66,8.16,33.3,13.04v-55.88h-33.3v42.84ZM29.2,51.22l-5.93-22.34h3.04l3.4,14.64c.37,1.54.68,3.06.94,4.58.57-2.39.91-3.76,1.01-4.13l4.25-15.09h3.57l3.2,11.31c.8,2.8,1.38,5.44,1.74,7.91.28-1.41.66-3.03,1.11-4.86l3.5-14.35h2.98l-6.13,22.34h-2.85l-4.71-17.02c-.4-1.43-.63-2.3-.7-2.62-.23,1.02-.45,1.9-.65,2.62l-4.74,17.02h-3.02Zm25.62,0v-22.34h16.15v2.64h-13.19v6.84h12.35v2.62h-12.35v7.61h13.71v2.64h-16.67Zm23.07-5.36c.11.25.24.48.39.69.48.72,1.23,1.3,2.25,1.74,1.01.44,2.16.66,3.43.66,1.13,0,2.12-.16,2.99-.5.86-.34,1.51-.79,1.93-1.38.42-.59.63-1.22.63-1.92s-.2-1.31-.61-1.84c-.41-.52-1.08-.96-2.01-1.31-.6-.24-1.93-.6-3.98-1.09-2.05-.5-3.49-.96-4.31-1.39-1.07-.55-1.86-1.25-2.39-2.08-.52-.82-.78-1.75-.78-2.78,0-1.12.32-2.18.96-3.16.64-.98,1.57-1.73,2.8-2.24,1.23-.5,2.6-.76,4.1-.76,1.66,0,3.11.27,4.38.8,1.27.53,2.24,1.32,2.92,2.35.05.07.09.15.14.22l-2.35,1.72c-.26-.56-.62-1.03-1.07-1.4-.88-.72-2.18-1.08-3.89-1.08s-3.09.33-3.91.99c-.82.65-1.23,1.44-1.23,2.36,0,.81.29,1.47.87,1.98.57.52,2.06,1.05,4.46,1.59,2.41.55,4.05,1.02,4.95,1.43,1.3.61,2.26,1.36,2.88,2.28.62.92.93,1.99.93,3.18s-.34,2.31-1.01,3.36c-.68,1.05-1.66,1.87-2.94,2.46-1.27.58-2.71.87-4.3.87-2.02,0-3.72-.29-5.08-.88-1.37-.59-2.44-1.47-3.22-2.66-.1-.15-.19-.3-.28-.46l2.38-1.74Zm24.18,5.36v-19.7h-7.36v-2.64h17.71v2.64h-7.39v19.7h-2.95Zm21.36,0v-22.34h8.39c1.71,0,3.07.23,4.1.67,1.03.45,1.84,1.15,2.43,2.09.58.94.88,1.92.88,2.95,0,.95-.26,1.85-.78,2.69-.52.84-1.3,1.52-2.34,2.04,1.35.4,2.39,1.07,3.11,2.02.73.96,1.09,2.09,1.09,3.39,0,1.05-.22,2.02-.67,2.92-.44.9-.99,1.59-1.64,2.08-.65.49-1.47.85-2.44,1.1-.98.25-2.18.38-3.61.38h-8.52Zm2.96-12.95h4.83c1.31,0,2.25-.09,2.82-.26.75-.22,1.32-.59,1.7-1.11.38-.52.57-1.17.57-1.95s-.18-1.39-.53-1.96c-.36-.57-.87-.95-1.52-1.16-.66-.21-1.79-.31-3.4-.31h-4.46v6.75Zm0,10.32h5.56c.96,0,1.63-.04,2.02-.11.68-.12,1.25-.33,1.7-.61.46-.28.84-.7,1.13-1.24.29-.54.44-1.17.44-1.88,0-.83-.21-1.55-.64-2.17-.43-.61-1.02-1.05-1.78-1.3-.75-.24-1.84-.37-3.27-.37h-5.16v7.68Zm18.03,2.64v-22.34h9.9c1.99,0,3.51.2,4.54.6,1.04.4,1.86,1.11,2.48,2.13.62,1.02.93,2.14.93,3.37,0,1.59-.51,2.92-1.54,4-1.02,1.09-2.61,1.78-4.75,2.07.79.38,1.38.75,1.79,1.11.86.79,1.68,1.79,2.45,2.97l3.89,6.08h-3.72l-2.95-4.65c-.86-1.34-1.58-2.37-2.14-3.07-.55-.71-1.05-1.21-1.5-1.49-.44-.29-.89-.49-1.35-.6-.33-.07-.88-.1-1.65-.1h-3.43v9.92h-2.96Zm2.96-12.48h6.36c1.35,0,2.41-.14,3.17-.42.76-.28,1.34-.73,1.73-1.34.4-.61.59-1.28.59-2,0-1.06-.38-1.92-1.15-2.61-.76-.68-1.98-1.02-3.64-1.02h-7.07v7.39Zm18.64,1.59c0-3.71.99-6.61,2.98-8.71,1.99-2.09,4.56-3.15,7.72-3.15,2.06,0,3.92.49,5.57,1.48,1.65.99,2.92,2.36,3.79,4.12.87,1.76,1.3,3.76,1.3,5.99s-.45,4.3-1.37,6.08c-.91,1.79-2.21,3.15-3.89,4.06-1.68.92-3.48,1.38-5.42,1.38-2.11,0-3.99-.5-5.64-1.52-1.66-1.01-2.91-2.4-3.77-4.16-.85-1.75-1.28-3.62-1.28-5.58h0Zm3.05.05c0,2.69.72,4.81,2.17,6.36,1.45,1.55,3.26,2.32,5.45,2.32s4.06-.78,5.49-2.34c1.43-1.57,2.16-3.79,2.16-6.66,0-1.82-.31-3.4-.92-4.76-.61-1.36-1.51-2.41-2.69-3.16-1.19-.74-2.51-1.12-3.98-1.12-2.1,0-3.9.72-5.41,2.16-1.51,1.43-2.26,3.84-2.26,7.2h0Zm22.03,10.84v-22.34h4.45l5.29,15.82c.49,1.47.85,2.57,1.07,3.31.25-.81.65-2.01,1.19-3.58l5.35-15.54h3.98v22.34h-2.85v-18.7l-6.49,18.7h-2.67l-6.46-19.02v19.02h-2.85Zm29.99,0l-5.93-22.34h3.04l3.4,14.64c.37,1.54.68,3.06.94,4.58.57-2.39.91-3.76,1.01-4.13l4.25-15.09h3.57l3.2,11.31c.8,2.8,1.38,5.44,1.74,7.91.28-1.41.65-3.03,1.11-4.86l3.5-14.35h2.97l-6.13,22.34h-2.85l-4.71-17.02c-.39-1.43-.63-2.3-.7-2.62-.23,1.02-.45,1.9-.65,2.62l-4.74,17.02h-3.02Zm26.06,0v-22.34h2.96v22.34h-2.96Zm26.25-4.79c-.63,1.34-1.47,2.42-2.53,3.27-1.61,1.27-3.58,1.91-5.91,1.91s-4.37-.49-5.88-1.46c-1.51-.99-2.66-2.4-3.44-4.26-.79-1.86-1.18-3.86-1.18-5.99,0-2.33.44-4.35,1.33-6.09.89-1.73,2.16-3.05,3.8-3.95,1.64-.9,3.45-1.35,5.42-1.35,2.24,0,4.11.57,5.64,1.71,1.18.88,2.08,2.03,2.71,3.47l-2.71,1.24c-.5-1.23-1.15-2.16-1.98-2.78-.98-.74-2.22-1.11-3.72-1.11-1.72,0-3.15.41-4.3,1.24-1.15.82-1.96,1.93-2.43,3.32-.47,1.38-.7,2.81-.7,4.29,0,1.91.27,3.56.83,4.98.56,1.41,1.41,2.47,2.58,3.17,1.17.7,2.44,1.05,3.8,1.05,1.66,0,3.05-.48,4.2-1.43.75-.62,1.34-1.44,1.77-2.45l2.71,1.24Zm4.54,4.79v-22.34h2.96v9.17h11.61v-9.17h2.96v22.34h-2.96v-10.53h-11.61v10.53h-2.96ZM21.98,113.94h10.76l4.77-12.22h25.24l4.77,12.22h10.76l-23.78-54.45h-8.74l-23.78,54.45Zm189.41-55.86c16.22,0,29.45,12.86,29.45,28.63s-13.23,28.63-29.45,28.63-29.44-12.86-29.44-28.63,13.23-28.63,29.44-28.63h0Zm0,9.16c10.5,0,19.06,8.75,19.06,19.47s-8.56,19.47-19.06,19.47-19.06-8.75-19.06-19.47,8.56-19.47,19.06-19.47h0Zm-90.46,46.7v-54.45h20.64c7.81,0,17.7,1.98,17.91,14.74.1,5.84-4.52,9.29-9.44,11.24,5.77,1.42,11.98,4.29,11.85,13.97-.16,11.41-11.67,14.51-17.39,14.51h-23.58Zm-28.53-54.45v46.45h23.44v8h-33.2v-5.04h-.01v-49.41h9.77Zm38.3,31.22v15.22h13.18c6.04,0,8.22-3.61,8.22-7.48s-1.6-7.74-8.22-7.74h-13.18Zm10.24-23.22h-10.24v15.22h10.24c3.93,0,8.9-2.95,8.9-7.73s-5.02-7.49-8.9-7.49h0Zm35.27,46.45h-9.77v-54.45h9.77v54.45Zm107.55,0l-27.24-42.27v42.27h-9.77v-54.45h13.02l27.24,42.27v-42.27h9.77v54.45h-13.02Zm-243.11-20.23l9.5-24.32,9.5,24.32h-18.99Z"/>
      <path class="cls-1" d="m159.37,376.61c83.83-19.73,155.03-78.51,155.03-172.18V17.78c-42.84-8.04-96.68-12.84-155.03-12.84S47.19,9.74,4.34,17.78v186.65c0,93.67,71.2,152.45,155.03,172.18h0ZM21.98,113.94h10.76l4.77-12.22h25.24l4.77,12.22h10.76l-23.78-54.45h-8.74l-23.78,54.45Zm7.23-62.71l-5.93-22.34h3.04l3.4,14.64c.37,1.54.68,3.06.94,4.58.57-2.39.91-3.76,1.01-4.13l4.25-15.09h3.57l3.2,11.31c.8,2.8,1.38,5.44,1.74,7.91.28-1.41.66-3.03,1.11-4.86l3.5-14.35h2.98l-6.13,22.34h-2.85l-4.71-17.02c-.4-1.43-.63-2.3-.7-2.62-.23,1.02-.45,1.9-.65,2.62l-4.74,17.02h-3.02Zm25.62,0v-22.34h16.15v2.64h-13.19v6.84h12.35v2.62h-12.35v7.61h13.71v2.64h-16.67Zm23.07-5.36c.11.25.24.48.39.69.48.72,1.23,1.3,2.25,1.74,1.01.44,2.16.66,3.43.66,1.13,0,2.12-.16,2.99-.5.86-.34,1.51-.79,1.93-1.38.42-.59.63-1.22.63-1.92s-.2-1.31-.61-1.84c-.41-.52-1.08-.96-2.01-1.31-.6-.24-1.93-.6-3.98-1.09-2.05-.5-3.49-.96-4.31-1.39-1.07-.55-1.86-1.25-2.39-2.08-.52-.82-.78-1.75-.78-2.78,0-1.12.32-2.18.96-3.16.64-.98,1.57-1.73,2.8-2.24,1.23-.5,2.6-.76,4.1-.76,1.66,0,3.11.27,4.38.8,1.27.53,2.24,1.32,2.92,2.35.05.07.09.15.14.22l-2.35,1.72c-.26-.56-.62-1.03-1.07-1.4-.88-.72-2.18-1.08-3.89-1.08s-3.09.33-3.91.99c-.82.65-1.23,1.44-1.23,2.36,0,.81.29,1.47.87,1.98.57.52,2.06,1.05,4.46,1.59,2.41.55,4.05,1.02,4.95,1.43,1.3.61,2.26,1.36,2.88,2.28.62.92.93,1.99.93,3.18s-.34,2.31-1.01,3.36c-.68,1.05-1.66,1.87-2.94,2.46-1.27.58-2.71.87-4.3.87-2.02,0-3.72-.29-5.08-.88-1.37-.59-2.44-1.47-3.22-2.66-.1-.15-.19-.3-.28-.46l2.38-1.74Zm24.18,5.36v-19.7h-7.36v-2.64h17.71v2.64h-7.39v19.7h-2.95Zm21.36,0v-22.34h8.39c1.71,0,3.07.23,4.1.67,1.03.45,1.84,1.15,2.43,2.09.58.94.88,1.92.88,2.95,0,.95-.26,1.85-.78,2.69-.52.84-1.3,1.52-2.34,2.04,1.35.4,2.39,1.07,3.11,2.02.73.96,1.09,2.09,1.09,3.39,0,1.05-.22,2.02-.67,2.92-.44.9-.99,1.59-1.64,2.08-.65.49-1.47.85-2.44,1.1-.98.25-2.18.38-3.61.38h-8.52Zm2.96-12.95h4.83c1.31,0,2.25-.09,2.82-.26.75-.22,1.32-.59,1.7-1.11.38-.52.57-1.17.57-1.95s-.18-1.39-.53-1.96c-.36-.57-.87-.95-1.52-1.16-.66-.21-1.79-.31-3.4-.31h-4.46v6.75Zm0,10.32h5.56c.96,0,1.63-.04,2.02-.11.68-.12,1.25-.33,1.7-.61.46-.28.84-.7,1.13-1.24.29-.54.44-1.17.44-1.88,0-.83-.21-1.55-.64-2.17-.43-.61-1.02-1.05-1.78-1.3-.75-.24-1.84-.37-3.27-.37h-5.16v7.68Zm18.03,2.64v-22.34h9.9c1.99,0,3.51.2,4.54.6,1.04.4,1.86,1.11,2.48,2.13.62,1.02.93,2.14.93,3.37,0,1.59-.51,2.92-1.54,4-1.02,1.09-2.61,1.78-4.75,2.07.79.38,1.38.75,1.79,1.11.86.79,1.68,1.79,2.45,2.97l3.89,6.08h-3.72l-2.95-4.65c-.86-1.34-1.58-2.37-2.14-3.07-.55-.71-1.05-1.21-1.5-1.49-.44-.29-.89-.49-1.35-.6-.33-.07-.88-.1-1.65-.1h-3.43v9.92h-2.96Zm2.96-12.48h6.36c1.35,0,2.41-.14,3.17-.42.76-.28,1.34-.73,1.73-1.34.4-.61.59-1.28.59-2,0-1.06-.38-1.92-1.15-2.61-.76-.68-1.98-1.02-3.64-1.02h-7.07v7.39Zm18.64,1.59c0-3.71.99-6.61,2.98-8.71,1.99-2.09,4.56-3.15,7.72-3.15,2.06,0,3.92.49,5.57,1.48,1.65.99,2.92,2.36,3.79,4.12.87,1.76,1.3,3.76,1.3,5.99s-.45,4.3-1.37,6.08c-.91,1.79-2.21,3.15-3.89,4.06-1.68.92-3.48,1.38-5.42,1.38-2.11,0-3.99-.5-5.64-1.52-1.66-1.01-2.91-2.4-3.77-4.16-.85-1.75-1.28-3.62-1.28-5.58h0Zm3.05.05c0,2.69.72,4.81,2.17,6.36,1.45,1.55,3.26,2.32,5.45,2.32s4.06-.78,5.49-2.34c1.43-1.57,2.16-3.79,2.16-6.66,0-1.82-.31-3.4-.92-4.76-.61-1.36-1.51-2.41-2.69-3.16-1.19-.74-2.51-1.12-3.98-1.12-2.1,0-3.9.72-5.41,2.16-1.51,1.43-2.26,3.84-2.26,7.2h0Zm22.03,10.84v-22.34h4.45l5.29,15.82c.49,1.47.85,2.57,1.07,3.31.25-.81.65-2.01,1.19-3.58l5.35-15.54h3.98v22.34h-2.85v-18.7l-6.49,18.7h-2.67l-6.46-19.02v19.02h-2.85Zm29.99,0l-5.93-22.34h3.04l3.4,14.64c.37,1.54.68,3.06.94,4.58.57-2.39.91-3.76,1.01-4.13l4.25-15.09h3.57l3.2,11.31c.8,2.8,1.38,5.44,1.74,7.91.28-1.41.65-3.03,1.11-4.86l3.5-14.35h2.97l-6.13,22.34h-2.85l-4.71-17.02c-.39-1.43-.63-2.3-.7-2.62-.23,1.02-.45,1.9-.65,2.62l-4.74,17.02h-3.02Zm26.06,0v-22.34h2.96v22.34h-2.96Zm26.25-4.79c-.63,1.34-1.47,2.42-2.53,3.27-1.61,1.27-3.58,1.91-5.91,1.91s-4.37-.49-5.88-1.46c-1.51-.99-2.66-2.4-3.44-4.26-.79-1.86-1.18-3.86-1.18-5.99,0-2.33.44-4.35,1.33-6.09.89-1.73,2.16-3.05,3.8-3.95,1.64-.9,3.45-1.35,5.42-1.35,2.24,0,4.11.57,5.64,1.71,1.18.88,2.08,2.03,2.71,3.47l-2.71,1.24c-.5-1.23-1.15-2.16-1.98-2.78-.98-.74-2.22-1.11-3.72-1.11-1.72,0-3.15.41-4.3,1.24-1.15.82-1.96,1.93-2.43,3.32-.47,1.38-.7,2.81-.7,4.29,0,1.91.27,3.56.83,4.98.56,1.41,1.41,2.47,2.58,3.17,1.17.7,2.44,1.05,3.8,1.05,1.66,0,3.05-.48,4.2-1.43.75-.62,1.34-1.44,1.77-2.45l2.71,1.24Zm4.54,4.79v-22.34h2.96v9.17h11.61v-9.17h2.96v22.34h-2.96v-10.53h-11.61v10.53h-2.96Zm-66.56,6.86c16.22,0,29.45,12.86,29.45,28.63s-13.23,28.63-29.45,28.63-29.44-12.86-29.44-28.63,13.23-28.63,29.44-28.63h0Zm0,9.16c10.5,0,19.06,8.75,19.06,19.47s-8.56,19.47-19.06,19.47-19.06-8.75-19.06-19.47,8.56-19.47,19.06-19.47h0Zm-90.46,46.7v-54.45h20.64c7.81,0,17.7,1.98,17.91,14.74.1,5.84-4.52,9.29-9.44,11.24,5.77,1.42,11.98,4.29,11.85,13.97-.16,11.41-11.67,14.51-17.39,14.51h-23.58Zm-28.53-54.45v46.45h23.44v8h-33.2v-5.04h-.01v-49.41h9.77Zm38.3,31.22v15.22h13.18c6.04,0,8.22-3.61,8.22-7.48s-1.6-7.74-8.22-7.74h-13.18Zm10.24-23.22h-10.24v15.22h10.24c3.93,0,8.9-2.95,8.9-7.73s-5.02-7.49-8.9-7.49h0Zm35.27,46.45h-9.77v-54.45h9.77v54.45Zm107.55,0l-27.24-42.27v42.27h-9.77v-54.45h13.02l27.24,42.27v-42.27h9.77v54.45h-13.02Zm-243.11-20.23l9.5-24.32,9.5,24.32h-18.99Zm135.39,272.18c11.5-3.53,22.66-7.85,33.3-12.95v-41.17c5.09.85,10.16.52,15-1.61-.8-3.35-2.43-6.6-4.8-9.21,4.83-.87,15.09-3.37,18.09-9.91-4.18-6.66-16.07-8.39-20.74-8.99,2.34-3.31,3.3-6.89,4.11-10.82-3.92-.67-7.82-1.06-11.66-.74v-16.94c9.03,1.79,19.39,6.55,28.16,10.59,1.76.81,3.47,1.58,5.14,2.28v66.69c12.53-9.19,23.77-19.79,33.3-31.73v-33.96c.17-.07.34-.14.5-.21l-.5-.27v-4.48c.16-.02.33-.04.49-.07-.16-.61-.32-1.21-.49-1.79v-7.57l2.62.06c-.87-1.06-1.74-2.06-2.62-3v-120.9h33.5V21.87c-41.47-7.78-93.57-12.43-150.05-12.43S50.79,14.09,9.32,21.87v107.31h33.5v172.19c9.53,11.95,20.77,22.54,33.3,31.73v-162.33c3.03,4.82,3.85,11.01,5.32,16.59,1.89,7.2,4.12,14.46,6.47,21.57,5.5,16.68,12.2,27.45,21.51,35.18v23.5c-4.65-1.23-9.34-1-14.18-.23.69,3.71,1.46,7.19,3.52,10.43-4.8.49-17.63,1.69-18.57,8.5,2.9,7.23,11.01,9.74,15.63,10.9.19.05.37.09.56.14-2.35,2.69-3.45,5.46-4.19,8.78,5.43,2.72,11.4,2.94,17.23,1.49v45.31c10.65,5.1,21.8,9.42,33.3,12.95v-33.99c1.47-.94,2.9-1.98,4.2-3.16.86,6.68,4.25,11.79,8.56,16.58,2.74-2.61,5.23-5.16,6.82-8.65,2.48,3.07,8.09,9.53,13.71,10.92v18.31Zm33.3-160.79v-75.92h33.3v91.9c-7.54-3.86-16.09-6.37-24.43-8.82h0c-.12-.04-.29-.09-.52-.15-2.72-2.46-5.5-4.79-8.35-7.01h0Zm-133.2-61.41v-14.51h33.3v17.75c-8-5.99-21.65-4.45-28.77-.72l-4.53-2.51Zm66.6,137.49v-21.42c5.15,1.29,10.92,2.35,17.72,3.32-6.53,6.18-11.25,12.22-15.23,17.37-.88.13-1.71.38-2.49.73h0Zm0-109.16v-42.84h33.3v55.88c-10.65-4.88-21.79-9.46-33.3-13.04h0Zm28.09,111.87c-.22,1.4-.36,2.82-.42,4.24-.49-.02-.99-.02-1.48,0,.62-1.37,1.25-2.79,1.91-4.23h0Zm-11.81,6c-.13.04-.26.08-.39.12-.74.24-1.5.48-2.28.75.02-.24.03-.48.03-.72,0-2.5-.96-4.79-2.53-6.52,3.28-3.14,6.67-6.18,10.23-9l-4.55,13.83-.51,1.54Z"/>
      <path class="cls-6" d="m100.35,183.14c.74-.26,1.88,1.01,2.53,2.85.65,1.83.58,3.54-.16,3.81-.74.26-1.88-1.02-2.53-2.85-.65-1.83-.58-3.54.16-3.8h0Zm-3.91-22.79c.93,0,1.69.76,1.69,1.69s-.76,1.69-1.69,1.69-1.69-.76-1.69-1.69.76-1.69,1.69-1.69h0Zm.37-2.06c7.08-.5,8.82,8.14,8.82,10.14-2.14-1.22-6.69-2.89-8.82-2.89s-3.87-1.63-3.87-3.62,1.74-3.48,3.87-3.63h0Zm45.57,98.75c-6.1-1.6-11.3-3.55-16.33-6.13,2.11.65,3.79.63,3.98-.13.22-.91-1.77-2.55-4.45-3.64-2.68-1.09-5.04-1.24-5.27-.32-.08.32.12.73.51,1.17-2.43-1.48-4.87-3.12-7.41-4.97-.62-.45-1.22-.92-1.81-1.41,1.82,1.5,3.51,2.16,3.98,1.49.54-.77-.74-3.02-2.84-5-2.1-1.99-4.25-2.97-4.79-2.2-.54.77.74,3.02,2.84,5,.22.21.44.4.66.59-4.21-3.55-7.55-8.05-10.42-12.95,1.12,1.62,2.29,2.52,2.88,2.09.76-.55.28-3.09-1.06-5.65-1.34-2.56-3.06-4.19-3.82-3.64-.68.5-.37,2.6.68,4.87-3.33-6.1-6.07-12.69-8.98-18.78-.15-.31-.3-.62-.44-.94-4.86-24-6.63-36.25-12.39-41.7-3.53-3.34-10.17-6-14.45-8.31,5.67-.44,10.99.4,16.66,1.37l-9.2-11.32,10.73,5.43c.41.33.75,2.36,1.48,3.77.5.96,1.91.91,2.78.84,4.86-.37,10.47-1.48,15.13-.89,4.52.57,9.53,2.89,11.66,5.14,4.01,4.21-3.25,3.44-5.25,3.43,5.31,2.12,8.22,5,8.51,8.7.71,8.93-4.29,20.91,4.33,26.86-.69-2.39-.34-5.96,1.42-8.39,1.61,11.92,7.9,24.94,24.5,32.52,20.32,9.27,38.84,11.12,52.57,10.35-3.91,1.85-13.43,2.76-23.43,2.2-9.4-.54-19.15-2.44-27.54-4.26,16.48,5.96,27.54,8.68,33.12,10.29,4.02,1.16,4.1,3.3,1.45,5.73-10.06,9.23-25.8,10.57-40.02,8.82h0Zm-5.68-3.11c-.03-1.04,2.53-1.57,5.71-1.2,3.18.38,5.79,1.54,5.82,2.58.03,1.04-2.54,1.57-5.71,1.2-3.18-.38-5.79-1.54-5.82-2.58h0Zm-43.27-46.23c.84-.33,2.17,1.16,2.96,3.33.79,2.17.75,4.21-.09,4.54-.84.34-2.17-1.16-2.96-3.33-.79-2.17-.75-4.21.09-4.54h0Zm57.98,41.03c.25-1.06,2.9-1.44,5.9-.85,3,.59,5.24,1.93,4.99,2.99-.25,1.06-2.9,1.44-5.9.85-3-.59-5.24-1.93-4.99-2.99h0Zm-17.68-6.1c.5-1.09,3.43-.93,6.54.35,3.1,1.28,5.23,3.21,4.73,4.3-.5,1.09-3.43.93-6.53-.35-3.1-1.28-5.23-3.21-4.73-4.3h0Zm-14.06-10.14c.8-.89,3.56.14,6.13,2.3,2.57,2.15,4.02,4.63,3.23,5.51-.8.89-3.55-.14-6.13-2.29-2.58-2.15-4.03-4.63-3.23-5.52h0Zm-11.13-13.06c.95-.73,3.47.78,5.62,3.36,2.15,2.58,3.12,5.28,2.18,6.01-.95.73-3.47-.78-5.61-3.36-2.15-2.58-3.13-5.28-2.18-6.01h0Zm-6.87-12.64c.96-.49,2.73,1.03,3.94,3.39,1.21,2.36,1.42,4.69.47,5.18-.96.49-2.73-1.03-3.94-3.39-1.21-2.36-1.42-4.69-.47-5.18h0Zm-5.64-12.85c.73-.29,1.91.95,2.62,2.76.71,1.81.69,3.52-.04,3.81-.73.29-1.91-.95-2.62-2.76-.71-1.81-.69-3.52.04-3.81h0Zm69.99,51.82c.16-.87,2.06-1.25,4.21-.85,2.15.4,3.77,1.44,3.61,2.32-.16.87-2.05,1.25-4.2.85-2.15-.41-3.78-1.45-3.61-2.32h0Zm-17.88-8.8c.61-1.11,3.34-.81,6.1.69,2.75,1.5,4.5,3.62,3.9,4.74-.61,1.11-3.34.8-6.1-.7-2.75-1.49-4.5-3.62-3.9-4.73h0Zm-15.13-9.62c.78-1,3.43-.24,5.89,1.69,2.46,1.93,3.84,4.32,3.05,5.32-.78,1-3.43.23-5.89-1.7-2.46-1.93-3.84-4.32-3.05-5.32h0Zm-11.11-11.01c.89-.66,2.96.59,4.6,2.8,1.65,2.2,2.25,4.54,1.36,5.21-.89.66-2.96-.59-4.6-2.8-1.64-2.21-2.25-4.55-1.36-5.21h0Zm-9.18-12.17c.91-.57,2.81.78,4.23,3.02,1.43,2.24,1.85,4.54.94,5.11-.91.58-2.81-.78-4.23-3.02-1.42-2.24-1.84-4.54-.94-5.12h0Zm-7-9.42c.67-.42,2.05.59,3.08,2.24,1.03,1.65,1.32,3.34.66,3.75-.67.42-2.06-.59-3.08-2.24-1.03-1.65-1.32-3.33-.66-3.75h0Zm-17.18-31.36c3.78,1.62,5.73,4.65,5.33,5.27-.4.62-4.23.53-8.01-1.08-1.39-.59-2.6-1.27-3.54-1.95,3.75,1.57,7.51,1.65,7.9,1.03.28-.44-.63-2.11-2.55-3.62.29.11.58.22.87.35h0Zm40.17,28.76c2.14,1.82,4.31,2.34,6.56,0,1.15,5.41,3.9,10.44,7.13,13.77-6.16-.67-10.96-6.26-13.69-13.77h0Zm65.91,30.81c8.12,2.9,15.86,3.71,22.85.42-1.88-4.19-5.64-6.18-10.68-6.66,3.59,6.12-3.97,6.35-12.17,6.24h0Zm-53.93-9.56c3.69,1.3,16.22,7.63,20.2,6.46-.32-3.51-6.78-10.83-8.1-13.25,6.38,2.39,17,4.73,23,3.11.56-1.32.37-5.51-.14-8.16,6.34,5.01,13.36,8.67,20.84,11.4-5.25.43-11.21.62-18.74.28,2.14,1.79,4.71,5.44,6.56,6.66-3.93.89-14-2.43-17.82-4.61,2.51,2.77,7.01,9.4,6.87,10.81-13.06-.61-23.57-5.55-32.67-12.7h0Z"/>
      <path class="cls-4" d="m64.47,140.5l15.77,8.36c6.9-2.73,20.84-5.51,28.11.45,9.42,7.72,13.86,14.04,19.25,22.59,33.17,7.46,63.78,19.7,88.78,42.48,14.9,4.38,30.66,8.76,39.69,20.68-5.02-.83-12.68-1.82-17.7-2.66,11.95,4.92,27.42,9.24,34.67,18.02-3.45-.07-7.68-.3-11.14-.38,5.06,2.55,10,5.17,11.32,10.21-7.87,1.05-14.64-.79-21.27-3.05,6.16,3.24,12.32,6.48,18.48,9.71-6.11,2.51-16.14,1.78-23.41-1.28-12.77-5.38-32.93-16.63-46.87-15.22-18.35,1.86-27.2,22.82-34.12,37.91-1.36.16-2.72.42-4.09.75,2.33-7.09,4.67-14.18,7-21.27-6.3,4.23-11.84,9.04-17.07,14.07-1.04-.67-2.23-1.14-3.49-1.38,4.48-5.77,9.97-12.51,17.84-19.19-9.6-1.21-17.25-2.52-23.84-4.25,14.21,1.75,29.95.41,40.02-8.82,2.65-2.43,2.57-4.57-1.45-5.73-5.59-1.61-16.64-4.32-33.12-10.29,8.39,1.82,18.14,3.72,27.54,4.26,10,.57,19.52-.34,23.43-2.2-13.73.76-32.25-1.09-52.57-10.35-16.61-7.58-22.89-20.6-24.5-32.52-1.77,2.42-2.11,6-1.42,8.39-8.62-5.95-3.62-17.92-4.33-26.86-.29-3.7-3.21-6.59-8.51-8.7,2,.02,9.26.79,5.25-3.43-2.14-2.25-7.14-4.57-11.66-5.14-4.66-.59-10.27.52-15.13.89-.87.07-2.28.12-2.78-.84-.73-1.41-1.07-3.44-1.48-3.77l-10.73-5.43,9.2,11.32c-5.67-.97-10.98-1.81-16.66-1.37,4.27,2.31,10.92,4.97,14.45,8.31,5.76,5.45,7.53,17.7,12.39,41.7-5.2-11.4-6.78-24.2-11.29-35.91-1-2.59-3.13-4.52-5.35-6.19-4.82-3.61-10.21-6.56-16.32-9.32,5.04-.56,11.25-.62,16.57-.26l-9.44-14.3Zm82.27,142.56c-.07-.06-.14-.12-.21-.18.07-.09.14-.18.21-.28v.46Zm-58.21-119.7c3.78,1.62,5.73,4.65,5.33,5.27-.4.62-4.23.53-8.01-1.08-1.39-.59-2.6-1.27-3.54-1.95,3.75,1.57,7.51,1.65,7.9,1.03.28-.44-.63-2.11-2.55-3.62.29.11.58.22.87.35h0Zm40.17,28.76c2.14,1.82,4.31,2.34,6.56,0,1.15,5.41,3.9,10.44,7.13,13.77-6.16-.67-10.96-6.26-13.69-13.77h0Zm65.91,30.81c8.12,2.9,15.86,3.71,22.85.42-1.88-4.19-5.64-6.18-10.68-6.66,3.59,6.12-3.97,6.35-12.17,6.24h0Zm-53.93-9.56c3.69,1.3,16.22,7.63,20.2,6.46-.32-3.51-6.78-10.83-8.1-13.25,6.38,2.39,17,4.73,23,3.11.56-1.32.37-5.51-.14-8.16,6.34,5.01,13.36,8.67,20.84,11.4-5.25.43-11.21.62-18.74.28,2.14,1.79,4.71,5.44,6.56,6.66-3.93.89-14-2.43-17.82-4.61,2.51,2.77,7.01,9.4,6.87,10.81-13.06-.61-23.57-5.55-32.67-12.7h0Z"/>
      <path class="cls-3" d="m96.82,158.3c7.08-.5,8.82,8.14,8.82,10.14-2.14-1.22-6.69-2.89-8.82-2.89s-3.87-1.63-3.87-3.62,1.74-3.48,3.87-3.63h0Zm3.54,24.84c.74-.26,1.88,1.01,2.53,2.85.65,1.83.58,3.54-.16,3.81-.74.26-1.88-1.02-2.53-2.85-.65-1.83-.58-3.54.16-3.8h0Zm25.71,67.78c-1.75-.9-3.48-1.87-5.22-2.93-.4-.44-.59-.85-.51-1.17.22-.91,2.59-.76,5.27.32,2.68,1.09,4.67,2.73,4.45,3.64-.19.76-1.87.78-3.98.13h0Zm-14.45-9.31c-.05-.04-.1-.08-.15-.12-.22-.18-.44-.38-.66-.59-2.1-1.98-3.38-4.23-2.84-5,.54-.77,2.69.22,4.79,2.2,2.1,1.98,3.38,4.23,2.84,5-.47.67-2.16,0-3.98-1.49h0Zm-10.57-13.08c-.45-.76-.89-1.55-1.32-2.33-1.05-2.27-1.36-4.38-.68-4.87.76-.55,2.48,1.08,3.82,3.64,1.34,2.56,1.82,5.1,1.06,5.65-.59.43-1.76-.46-2.88-2.09h0Zm35.68,25.41c-.03-1.04,2.53-1.57,5.71-1.2,3.18.38,5.79,1.54,5.82,2.58.03,1.04-2.54,1.57-5.71,1.2-3.18-.38-5.79-1.54-5.82-2.58h0Zm-43.27-46.23c.84-.33,2.17,1.16,2.96,3.33.79,2.17.75,4.21-.09,4.54-.84.34-2.17-1.16-2.96-3.33-.79-2.17-.75-4.21.09-4.54h0Zm57.98,41.03c.25-1.06,2.9-1.44,5.9-.85,3,.59,5.24,1.93,4.99,2.99-.25,1.06-2.9,1.44-5.9.85-3-.59-5.24-1.93-4.99-2.99h0Zm-17.68-6.1c.5-1.09,3.43-.93,6.54.35,3.1,1.28,5.23,3.21,4.73,4.3-.5,1.09-3.43.93-6.53-.35-3.1-1.28-5.23-3.21-4.73-4.3h0Zm-14.06-10.14c.8-.89,3.56.14,6.13,2.3,2.57,2.15,4.02,4.63,3.23,5.51-.8.89-3.55-.14-6.13-2.29-2.58-2.15-4.03-4.63-3.23-5.52h0Zm-11.13-13.06c.95-.73,3.47.78,5.62,3.36,2.15,2.58,3.12,5.28,2.18,6.01-.95.73-3.47-.78-5.61-3.36-2.15-2.58-3.13-5.28-2.18-6.01h0Zm-6.87-12.64c.96-.49,2.73,1.03,3.94,3.39,1.21,2.36,1.42,4.69.47,5.18-.96.49-2.73-1.03-3.94-3.39-1.21-2.36-1.42-4.69-.47-5.18h0Zm-5.64-12.85c.73-.29,1.91.95,2.62,2.76.71,1.81.69,3.52-.04,3.81-.73.29-1.91-.95-2.62-2.76-.71-1.81-.69-3.52.04-3.81h0Zm69.99,51.82c.16-.87,2.06-1.25,4.21-.85,2.15.4,3.77,1.44,3.61,2.32-.16.87-2.05,1.25-4.2.85-2.15-.41-3.78-1.45-3.61-2.32h0Zm-17.88-8.8c.61-1.11,3.34-.81,6.1.69,2.75,1.5,4.5,3.62,3.9,4.74-.61,1.11-3.34.8-6.1-.7-2.75-1.49-4.5-3.62-3.9-4.73h0Zm-15.13-9.62c.78-1,3.43-.24,5.89,1.69,2.46,1.93,3.84,4.32,3.05,5.32-.78,1-3.43.23-5.89-1.7-2.46-1.93-3.84-4.32-3.05-5.32h0Zm-11.11-11.01c.89-.66,2.96.59,4.6,2.8,1.65,2.2,2.25,4.54,1.36,5.21-.89.66-2.96-.59-4.6-2.8-1.64-2.21-2.25-4.55-1.36-5.21h0Zm-9.18-12.17c.91-.57,2.81.78,4.23,3.02,1.43,2.24,1.85,4.54.94,5.11-.91.58-2.81-.78-4.23-3.02-1.42-2.24-1.84-4.54-.94-5.12h0Zm-7-9.42c.67-.42,2.05.59,3.08,2.24,1.03,1.65,1.32,3.34.66,3.75-.67.42-2.06-.59-3.08-2.24-1.03-1.65-1.32-3.33-.66-3.75h0Zm-9.27-34.38c.93,0,1.69.76,1.69,1.69s-.76,1.69-1.69,1.69-1.69-.76-1.69-1.69.76-1.69,1.69-1.69h0Z"/>
      <path class="cls-5" d="m198.54,257.37c-.25,6.56,2.39,15.76-3.68,21.82,6.97-7,17.02-7.23,23.46-6.13-.54,2.64-1.59,5.86-4.45,8.98-1-.04-4.59.39-5.61,1.05,9.79.29,26.12,2.82,26.91,8.11-1.87,3.67-12.97,9.15-24.84,8.32.61.74,2.05.92,5.55,1.21,3.67,2.41,5.56,7.01,5.82,8.12-5.41,2.28-17.58.98-24.25-4.11.28,1.2,2.99,3.51,4.14,4.66,1.67,6.84-1.59,9.79.54,16.71-2.8-2.24-9.03-3.65-14.75-6.89-1.64-3.27-4.04-6.17-6.91-8.65,4.7-2.14,9.16-7.53,15.52-9.35-4.88-3.98-9.46-7-14-9.45,12.11-.66,26.37-1.13,41.95-.48-14.49-2.43-30.17-2.11-46.18-1.61-1.7-.7-3.45-1.15-5.23-1.38-.05-.89-.07-1.62-.07-2.16,1.12-6.68,3.82-13.32,8.73-18.25,5.23-5.25,12.87-7.46,17.34-10.52h0Zm-82.51-3.06c4.1,3.23,11.11,5.73,15.91,11.18,4.32,4.9,6.76,11.28,7.88,17.7-.09.09-.17.18-.26.27-1.81-2.07-4.48-3.39-7.43-3.39-4.26,0-7.9,2.72-9.28,6.51-10.41-.57-20.56-.66-30.13.7,10.66-.05,20.65.5,29.65,1.24-.07.47-.11.95-.11,1.43,0,4.76,3.39,8.75,7.88,9.67-.42,1.09-.66,2.27-.66,3.5,0,3.04,1.41,5.75,3.6,7.53-5.86,8.07-16.54,9.11-20.34,12.27,1.96-6.84-1.04-9.91.5-16.69,1.06-1.11,3.55-3.31,3.8-4.5-6.12,4.83-17.3,5.68-22.26,3.19.24-1.1,1.98-5.62,5.34-7.9,3.22-.16,4.54-.28,5.1-1-10.9.38-21.09-5.52-22.81-9.26.73-5.25,15.72-7.17,24.7-7.09-.94-.69-4.23-1.27-5.15-1.27-2.62-3.24-3.58-6.49-4.08-9.15,5.91-.86,15.14-.24,21.54,7.02-5.57-6.29-3.16-15.39-3.38-21.96h0Zm17.16,80.71c.47-5.2-1.26-12.44.69-19.43.35-1.25.79-2.46,1.3-3.65,1.22.55,2.57.86,3.99.86,5.34,0,9.69-4.35,9.69-9.69,0-1.23-.24-2.42-.66-3.5.47-.08.93-.19,1.38-.33,7.41,13.51,14.72,26.75,23.95,37.32-9.18-13.98-16.24-27.37-21.78-38.32,1.86-1.15,3.3-2.91,4.05-5,4.69-1.89,10.15-3.45,15.03-3.28,10.11.36,16.9,8.89,21.67,10.38-6.8,2.09-7.75,6.27-14.26,8.68-1.5-.28-4.71-1.16-5.84-.73,7.39,2.49,14.19,11.4,14.81,16.92-1.05.4-5.79,1.41-9.53-.17-1.89-2.62-2.71-3.65-3.61-3.73,6.26,8.92,6.88,20.69,4.68,24.16-4.8,2.26-14.58-9.26-19.42-16.84-.07,1.17,1.25,4.24,1.75,5.01-1.29,3.96-3.49,6.54-5.45,8.41-3.94-4.48-8.46-12.55-5.86-21.88-2.23,8.1-11.18,11.04-16.56,14.81h0Z"/>
      <path class="cls-2" d="m144.85,297.68c1.35,1.41,2.18,3.33,2.18,5.42,0,4.33-3.53,7.86-7.86,7.86s-7.86-3.53-7.86-7.86c0-2.1.83-4.01,2.18-5.42-.44.08-.89.12-1.35.12-4.33,0-7.86-3.54-7.86-7.87s3.53-7.86,7.86-7.86c3.29,0,6.12,2.04,7.29,4.92,1.19-2.83,4-4.82,7.25-4.82,4.33,0,7.86,3.53,7.86,7.86s-3.53,7.86-7.86,7.86c-.62,0-1.23-.07-1.81-.21h0Zm-6.54.12c.59.55.13,1.99-1.01,3.2-1.14,1.21-2.55,1.74-3.13,1.19-.58-.55-.13-1.99,1.01-3.2,1.14-1.21,2.55-1.74,3.14-1.19h0Zm7.59-13.26c.59.55.13,1.99-1.01,3.2-1.14,1.21-2.55,1.74-3.14,1.18-.58-.55-.13-1.99,1.01-3.2,1.14-1.21,2.55-1.74,3.14-1.19h0Zm-15.09-.37c.59.55.13,1.99-1.01,3.2-1.14,1.21-2.55,1.74-3.14,1.19-.58-.55-.13-1.99,1.01-3.2,1.14-1.21,2.55-1.74,3.14-1.19h0Z"/>
    </g>
  </g>
</svg>