<?xml version="1.0" encoding="UTF-8"?>
<svg id="Layer_2" data-name="Layer 2" xmlns="http://www.w3.org/2000/svg" viewBox="0 0 468.16 405.38">
  <defs>
    <style>
      .cls-1 {
        fill: #fff;
      }

      .cls-1, .cls-2, .cls-3 {
        fill-rule: evenodd;
        stroke-width: 0px;
      }

      .cls-2 {
        fill: #f89835;
      }
    </style>
  </defs>
  <g id="Layer_1-2" data-name="Layer 1">
    <g>
      <polygon class="cls-3" points="116.47 405.38 350.93 405.38 468.16 202.69 350.93 .76 117.23 0 0 202.69 116.47 405.38 116.47 405.38"/>
      <polygon class="cls-1" points="45.38 202.69 139.92 38.57 327.48 38.57 422.02 201.93 328.24 366.81 139.54 366.81 45.38 202.69 45.38 202.69"/>
      <polygon class="cls-2" points="142.94 46.13 325.72 46.13 415.47 202.94 324.71 360.25 144.2 360.25 52.94 202.94 142.94 46.13 142.94 46.13"/>
      <polygon class="cls-3" points="212.78 348.16 186.05 260.93 103.36 211.51 190.59 59.24 215.8 130.84 262.69 130.84 285.38 58.74 367.57 216.56 282.1 260.93 257.14 348.41 212.78 348.16 212.78 348.16"/>
      <polygon class="cls-1" points="179.12 230.17 179.12 190.72 215.42 230.17 179.12 230.17 179.12 230.17"/>
      <polygon class="cls-1" points="290.99 229.89 290.99 190.43 254.69 229.89 290.99 229.89 290.99 229.89"/>
    </g>
  </g>
</svg>