<?xml version="1.0" encoding="UTF-8"?>
<svg id="Layer_2" data-name="Layer 2" xmlns="http://www.w3.org/2000/svg" xmlns:xlink="http://www.w3.org/1999/xlink" viewBox="0 0 425.76 420.72">
  <defs>
    <style>
      .cls-1 {
        clip-path: url(#clippath);
      }

      .cls-2 {
        fill: none;
      }

      .cls-2, .cls-3, .cls-4, .cls-5, .cls-6, .cls-7, .cls-8, .cls-9, .cls-10, .cls-11, .cls-12, .cls-13, .cls-14, .cls-15 {
        stroke-width: 0px;
      }

      .cls-16 {
        fill: #023b88;
        font-family: f-0-0, 'f 0-0';
        font-size: 33.75px;
        letter-spacing: 1.54em;
      }

      .cls-17 {
        clip-path: url(#clippath-1);
      }

      .cls-3 {
        fill: #013e7d;
      }

      .cls-3, .cls-4, .cls-5, .cls-6, .cls-7, .cls-8, .cls-9, .cls-10, .cls-11, .cls-12, .cls-13, .cls-14, .cls-15 {
        fill-rule: evenodd;
      }

      .cls-4 {
        fill: #013d85;
      }

      .cls-5 {
        fill: #004384;
      }

      .cls-6 {
        fill: #023e86;
      }

      .cls-7 {
        fill: #ef5740;
      }

      .cls-8 {
        fill: #fbfffc;
      }

      .cls-9 {
        fill: #fd5241;
      }

      .cls-10 {
        fill: #fffdfe;
      }

      .cls-11 {
        fill: #fff;
      }

      .cls-12 {
        fill: #fffef1;
      }

      .cls-13 {
        fill: #f3573e;
      }

      .cls-14 {
        fill: #f6583d;
      }

      .cls-15 {
        fill: #fad13b;
      }
    </style>
    <clipPath id="clippath">
      <rect class="cls-2" width="425.76" height="420.72"/>
    </clipPath>
    <clipPath id="clippath-1">
      <rect class="cls-2" width="425.76" height="420.72"/>
    </clipPath>
  </defs>
  <g id="Layer_1-2" data-name="Layer 1">
    <g>
      <path class="cls-15" d="m168.87,226.11l-.12.09.12-.09Zm.01-.85l6.57-45.22,4.41-3.06,7.2,36.26-4.41,3.09-1.37-8.1-6.38,4.56-1.55,10.18-4.49,3.15v-.85Zm19.18-12.69l-.07-41.32,4.3-2.81,6.22,21.23v-25.79s4.02-2.68,4.02-2.68l.03,41.23-4.15,2.7-6.21-19.62.06,24.42-4.19,2.64Zm17.11-39.59c.36-6.36,2.57-16.29,8.07-20.15,4.45-3.13,7.45.14,8.49,5.52,1.26,6.47.57,15.82.21,18.82-.69,5.69-3.1,14.4-8,17.84-4.39,3.09-7.11-.32-8.26-5.27-1.36-5.89-.64-14.51-.51-16.76h0Zm25.57,9.51l.17-41.31,6.38-4.48c1.61-1.12,3.07-1.9,3.89-1.8,4.65.55,5.19,10.35,5,16.68-.25,8.16-.51,20.48-7.58,25.42l-7.87,5.49Zm17.9-12.55l.1-40.98,5.28-3.77c2.11-1.5,3.47-2.36,4.12-2.51,4.07-.9,4.41,7.51,4.35,9.54-.32,10.55-2.01,14.75-9.54,19.6l.03,15.12-4.34,3Zm29.04-61.39l4.57-3.15,4.02,25.73,1.84-14.89c.67-5.43,1.2-10.93,1.78-16.39l4.65-3.1-6.07,45.38-4.41,3-6.38-36.57Zm-8.99,47.21l.07-33.63-5.49,3.99v-7.62s14.41-9.94,14.41-9.94l.05,7.56-5.02,3.12.32,33.56-4.35,2.96Zm27.14-29.04c-1.37-5.89-.66-14.38-.54-16.63.36-6.36,2.32-16.34,7.82-20.2,4.46-3.12,7.45.14,8.49,5.52,1.26,6.46.57,15.82.21,18.82-.69,5.69-3.1,14.4-8,17.84-4.39,3.09-6.84-.4-7.99-5.35h0Zm24.64-1.09l-1.58-48.31L101.27,226.56c-1.29,17.33-1.61,33.59.84,46.79.85,4.55,5.21,2.13,8.65-.07,51.93-33.1,105.23-71.56,157.06-110.59,17.18-12.93,36.3-25.37,52.64-37.06h0Zm-174.37,82.15c-3.18,3.27-4.08,10.32-4.13,16.57-.01,1.67-.43,14.03,3.81,10.89,2.73-2.01,3.5-8.21,3.77-11.3h3.99c-.56,5.63-2.42,15.36-7.42,18.86-7.47,5.23-8.3-12.01-8.33-15.61-.07-7.73,1.17-22.25,7.99-27.01,1.93-1.35,4.21-1.43,5.53.21.95,1.18,2.27,4.18,2.11,7.29l-3.98,4.98c-.24-2.03-.58-3.59-1.08-4.55-.44-.86-1.49-1.12-2.26-.34h0Zm-10.94,16.68v7.48s-8.67,5.77-8.67,5.77v10.55l9.92-7.45v7.81s-14.42,10.37-14.42,10.37l.15-41.56,13.66-9.3.04,7.78-9.44,6.53v8.01s8.77-6,8.77-6Zm-20.2,21.9v17.45s-4.32,3.12-4.32,3.12l.04-17.51-6.66-19.13,4.84-3.31,3.76,12.18,3.72-17.68,4.91-3.23-6.28,28.11Zm199.67-122.93l-.12-8.26,3.88-2.63v8.61s-3.76,2.28-3.76,2.28Z"/>
      <path class="cls-13" d="m314.63,123.43l-.12-8.26,3.88-2.63v8.61s-3.76,2.28-3.76,2.28Z"/>
      <path class="cls-9" d="m299.18,114.01c.11,4.62.19,7.78,1.19,9.44,1,1.66,2.17,2.02,3.54,1.05,2.77-1.95,3.78-7.66,4.09-10.95.38-3.95.53-12.86-1.2-15.78-.95-1.59-1.83-1.61-3.25-.6-4.25,2.99-4.48,12.08-4.36,16.84h0Zm-3.89-3.93c.36-6.36,2.32-16.34,7.82-20.2,4.46-3.12,7.45.14,8.49,5.52,1.26,6.46.57,15.82.21,18.82-.69,5.69-3.1,14.4-8,17.84-4.39,3.09-6.84-.4-7.99-5.35-1.37-5.89-.66-14.38-.54-16.63h0Z"/>
      <path class="cls-9" d="m284.05,145.12l-6.38-36.57,4.57-3.15,4.02,25.73,1.84-14.89c.67-5.43,1.2-10.93,1.78-16.39l4.65-3.1-6.07,45.38-4.41,3Z"/>
      <path class="cls-9" d="m268.69,155.75l.07-33.63-5.49,3.99v-7.62s14.41-9.94,14.41-9.94l.05,7.56-5.02,3.12.32,33.56-4.35,2.96Z"/>
      <path class="cls-7" d="m252.89,133.39v11.26c.71-.49,1.32-1.05,1.88-1.48,2.89-2.19,3.43-5.43,3.45-8.52.01-1.57-.14-3.55-1.57-3.52-.85.02-2.83,1.59-3.76,2.26h0Zm-4.25,36.54l.1-40.98,5.28-3.77c2.11-1.5,3.47-2.36,4.12-2.51,4.07-.9,4.41,7.51,4.35,9.54-.32,10.55-2.01,14.75-9.54,19.6l.03,15.12-4.34,3Z"/>
      <path class="cls-7" d="m235.44,145.79v26.12s2.25-1.68,2.25-1.68c4.45-3.35,4.15-10.65,4.28-16.45.16-6.96-.61-12.07-3.44-10.11l-3.08,2.12Zm-4.53-4.61l6.38-4.48c1.61-1.12,3.07-1.9,3.89-1.8,4.65.55,5.19,10.35,5,16.68-.25,8.16-.51,20.48-7.58,25.42l-7.87,5.49.17-41.31Z"/>
      <path class="cls-9" d="m188.05,212.57l-.07-41.32,4.3-2.81,6.22,21.23v-25.79s4.02-2.68,4.02-2.68l.03,41.23-4.15,2.7-6.21-19.62.06,24.42-4.19,2.64Z"/>
      <path class="cls-13" d="m179.95,201.55l-2.04-10.66-2.01,13.51,4.05-2.85Zm7.11,11.7l-4.41,3.09-1.37-8.1-6.38,4.56-1.55,10.18-4.61,3.24,6.71-46.16,4.41-3.06,7.2,36.26Z"/>
      <path class="cls-14" d="m149.55,223.93h3.99c-.56,5.63-2.42,15.36-7.42,18.86-7.47,5.23-8.3-12.01-8.33-15.61-.07-7.73,1.17-22.25,7.99-27.01,1.93-1.35,4.21-1.43,5.53.21.95,1.18,2.27,4.18,2.11,7.29l-3.98,4.98c-.24-2.03-.58-3.59-1.08-4.55-.44-.86-1.49-1.12-2.26-.34-3.18,3.27-4.08,10.32-4.13,16.57-.01,1.67-.43,14.03,3.81,10.89,2.73-2.01,3.5-8.21,3.77-11.3h0Z"/>
      <path class="cls-14" d="m121.99,258.98l.15-41.56,13.66-9.3.04,7.78-9.44,6.53v8.01s8.77-6,8.77-6v7.48s-8.67,5.77-8.67,5.77v10.55l9.92-7.45v7.81s-14.42,10.37-14.42,10.37Z"/>
      <path class="cls-14" d="m110.64,266.93l.04-17.51-6.66-19.13,4.84-3.31,3.76,12.18,3.72-17.68,4.91-3.23-6.28,28.11v17.45s-4.32,3.12-4.32,3.12Z"/>
      <path class="cls-9" d="m209.3,176.96c.11,4.62.19,7.78,1.19,9.44.99,1.65,2.34,2.22,3.53,1.05,2.81-2.76,3.58-7.71,3.88-10.99.38-3.95.45-12.4-1.27-15.32-.94-1.59-1.65-1.79-2.92-.58-4.21,3.98-4.53,11.64-4.41,16.4h0Zm-4.14-3.98c.36-6.36,2.57-16.29,8.07-20.15,4.45-3.13,7.45.14,8.49,5.52,1.26,6.47.57,15.82.21,18.82-.69,5.69-3.1,14.4-8,17.84-4.39,3.09-7.11-.32-8.26-5.27-1.36-5.89-.64-14.51-.51-16.76h0Z"/>
      <path class="cls-14" d="m155.67,235.19l.11-41.01,4.38-2.92v33.37s8.8-6.55,8.8-6.55l-.09,8.04-13.2,9.08Z"/>
      <path class="cls-15" d="m177.91,190.89l-2.01,13.51,4.05-2.85-2.04-10.66Z"/>
      <path class="cls-15" d="m209.3,176.96c.11,4.62.19,7.78,1.19,9.44.99,1.65,2.34,2.22,3.53,1.05,2.81-2.76,3.58-7.71,3.88-10.99.38-3.95.45-12.4-1.27-15.32-.94-1.59-1.65-1.79-2.92-.58-4.21,3.98-4.53,11.64-4.41,16.4h0Z"/>
      <path class="cls-15" d="m235.44,145.79v26.12s2.25-1.68,2.25-1.68c4.45-3.35,4.15-10.65,4.28-16.45.16-6.96-.61-12.07-3.44-10.11l-3.08,2.12Z"/>
      <path class="cls-15" d="m252.89,133.39v11.26c.71-.49,1.32-1.05,1.88-1.48,2.89-2.19,3.43-5.43,3.45-8.52.01-1.57-.14-3.55-1.57-3.52-.85.02-2.83,1.59-3.76,2.26h0Z"/>
      <path class="cls-15" d="m299.18,114.01c.11,4.62.19,7.78,1.19,9.44,1,1.66,2.17,2.02,3.54,1.05,2.77-1.95,3.78-7.66,4.09-10.95.38-3.95.53-12.86-1.2-15.78-.95-1.59-1.83-1.61-3.25-.6-4.25,2.99-4.48,12.08-4.36,16.84h0Z"/>
      <path class="cls-5" d="m205.5,83.54c.15-.32.44-.75.8-.7l5.02.7c1.25.18,1.45,1.51,1.26,2.48-.17.91-.43,2.1-.66,4.12-.15,1.34-.7,2.36-1.69,2.44-2.01.18-3.69-.31-5.44-1.17-.7-.34-1.24-1.3-1.08-2.06.46-2.12,1.01-4.12,1.78-5.81h0Z"/>
      <path class="cls-11" d="m210.23,92.59c-2.01.18-3.69-.31-5.44-1.17-.7-.34-1.24-1.3-1.08-2.06.46-2.12,1.01-4.12,1.78-5.81.15-.32.44-.75.8-.7l5.02.7c1.25.18,1.45,1.51,1.26,2.48-.17.91-.43,2.1-.66,4.12-.15,1.34-.7,2.36-1.69,2.44h0Zm12.77-22.61c-6.83-1.33-13.65-1.9-19.97-1.92.2,4.44.25,9.8.09,14.77-.06,1.93-.43,3.91-1.31,5.62-.79,1.53-1.8,2.99-2.81,4.41-1.38,1.93-2.18,3.65-2.34,6.75-.03.71-.1,1.83.56,2.11.78.33,1.48-.32,2.13-.16.89.21.92.79.92,1.38,0,.86-1.08,1.18-1.64,1.22-2.33.14-3.79.86-5.2,2.3-.88.9-.41,1.79.14,2.34.5.5,1.45.41,2.02.05.61-.4,1.3-.35,1.83-.05.45.26.55,1.34-.16,1.64-1.17.5-2.11.56-3.02,1.03-.52.27-1.22.76-1.11,1.33.11.61.97,1.05,1.58,1.02,2.03-.11,3.75-.5,5.44.14.95.36,1.17,1.32,0,1.79-2.07.84-4.36.14-6.4.64-1.09.27-2.25.49-2.83,1.45-.33.55-.8,1.63-.33,2.2,1.01,1.24,2.27,2.71,3.84,2.77,3.94.14,10.49-2.42,13.41-2.58.05-4.06-.04-7.9.94-11.67.45-1.72,1.6-3.48,3.19-4.27,1.6-.79,3.43-.8,4.97-.19,3.39,1.36,5.73,3.13,6.19,5.95.53,3.22-.03,5.23.38,8.72.11.95.35,1.68,1.03,1.97,1.64.7,3.2,1.15,4.88,1.31,1.62.16,4.35.04,4.45-2.02.03-.71-.54-1.54-1.22-1.73-1.35-.39-2.5.02-3.47-.66-.43-.3-.15-1.02.19-1.31,1.03-.89,2.52-.17,3.66-.66.52-.22-.13-.95-.47-1.22-1.77-1.44-5.03-2.5-5.49-3.56-.28-.66.31-1.76,1.74-1.68,1.9.11,3.07.19,4.88-.71.44-.22.38-.98-.56-1.36-2.28-.93-3.7-1.19-5.39-2.39-.24-.17-.14-.71.09-.89.65-.48,1.6-.6,2.27-.98.5-.29.3-1.3.16-1.92-.49-2.33-.96-4.8-2.46-6.8-.47-.63-1.12-.97-1.9-.84-.64.1-1.27.45-1.92.61-.85.2-1.72.3-2.38-.7-.49-.75-.68-2.46-.79-3.63-.12-1.29-.12-2.59.12-3.87.13-.68.83-.43,1.22-.28.41.15,1.15-.18,1.29-.57.21-.57-.21-1.29-.66-1.88-.29-.38-.03-.96.3-1.3.96-.97,2.39-1.51,3.28-2.44.54-.57-.07-1.91-.8-2.2-1.26-.52-2.17-.42-3.66-1.17-.32-.16-.06-.5.05-.7.64-1.25,1.41-2.43,2.16-3.61.41-.65-.28-1.44-1.08-1.59h0Z"/>
      <path class="cls-11" d="m215.12,107.32c.38-.32,1.06-.67,1.45-.38,1.34,1.01,2.41,2.41,3.19,3.89.75,1.42,1.09,3.05,1.31,4.64.17,1.21.16,2.47-.14,3.66-.21.84-.64,1.72-1.36,2.2-.6.4-1.44.21-2.16.14-.86-.09-1.77-.2-2.53-.61-.75-.4-1.63-.92-1.88-1.73-.54-1.82-.47-3.78-.33-5.67.11-1.43.55-2.84,1.08-4.17.29-.74.75-1.46,1.36-1.97h0Z"/>
      <path class="cls-11" d="m194.51,55.57h.83c.47,0,.85.38.85.85v.59c0,.47-.38.85-.85.85h-.83c-.47,0-.85-.38-.85-.85v-.59c0-.47.38-.85.85-.85h0Z"/>
      <path class="cls-11" d="m215.53,57.07h.83c.46,0,.85.38.85.85v.59c0,.47-.38.85-.85.85h-.83c-.47,0-.85-.38-.85-.85v-.59c0-.47.38-.85.85-.85h0Z"/>
      <path class="cls-11" d="m233.17,57.59h.57c.32,0,.58.26.58.58v.41c0,.32-.26.58-.58.58h-.57c-.32,0-.58-.26-.58-.58v-.41c0-.32.26-.58.58-.58h0Z"/>
      <path class="cls-11" d="m227.12,63.35h.98c.56,0,1.01.38,1.01.85v.59c0,.47-.45.85-1.01.85h-.98c-.55,0-1.01-.38-1.01-.85v-.59c0-.47.45-.85,1.01-.85h0Z"/>
      <path class="cls-11" d="m219.69,125.08h.92c.52,0,.95.42.95.94v.66c0,.52-.43.94-.95.94h-.92c-.52,0-.95-.43-.95-.94v-.66c0-.52.43-.94.95-.94h0Z"/>
      <path class="cls-10" d="m196.05,60.87c.54-.16,1.43-.21,2.04.24.89.64,1.97.89,1.97,1.97,0,.46.16,1.2-.2,1.48-.96.77-1.3.99-2,1.59-.49.41-1.14.61-1.69.28-.99-.59-1.64-1.12-2.2-2.04-.24-.39-.1-.98-.01-1.44.24-1.19,1.06-1.77,2.1-2.07h0Z"/>
      <path class="cls-11" d="m205.98,61.18c.55-.09,1.29-.21,2.04.23.94.56,2.26,1.19,2.26,2.27,0,.46-.13.89-.49,1.18-.97.77-1.41,1.23-2.14,1.2-.88-.02-1.46-.02-2.1-.04-.91-.02-1.56-.23-2.38-1.08-.32-.33-.34-1.18.06-1.61.68-.73,1.31-1.91,2.75-2.16h0Z"/>
      <path class="cls-11" d="m214.83,62.67c.45-.22.99-.15,1.99-.04.71.08,1.86.45,2.25.97.21.27.09.99-.15,1.07-.53.18-.93.23-1.4.18-.79-.07-.96.16-1.69.2-1.17.06-1.86-.48-1.86-.95v-.59c0-.47.43-.65.85-.85h0Z"/>
      <path class="cls-11" d="m193.38,125.26l1.67-.74c.94-.41,2.05.02,2.46.96l.53,1.2c.41.94-.02,2.05-.96,2.46l-1.67.73c-.94.41-2.05-.02-2.46-.96l-.53-1.2c-.41-.94.02-2.05.96-2.46h0Z"/>
      <path class="cls-11" d="m185.93,126.95h1.05c.59,0,1.08.41,1.08.91v.64c0,.5-.48.91-1.08.91h-1.05c-.59,0-1.08-.41-1.08-.91v-.64c0-.5.49-.91,1.08-.91h0Z"/>
      <path class="cls-11" d="m193.43,134.5c-.28.26-.45.79-.26,1.12.3.52.93.83,1.5.98.87.23,1.84.41,2.69.14,1.59-.49,3.08-1.34,4.41-2.34.36-.27.68-.92.42-1.29-.5-.73-1.4-1.24-2.27-1.41-.95-.19-1.99.02-2.88.4-1.32.57-2.54,1.42-3.61,2.39h0Z"/>
      <path class="cls-11" d="m203.79,127.43c-.23.29-.16.88.14,1.1.65.48,1.52.58,2.32.7.57.09,1.18.07,1.73-.09.73-.22,1.47-.53,2.04-1.03.28-.25.55-.75.35-1.05-.47-.73-1.28-1.2-2.06-1.57-.56-.26-1.26-.53-1.83-.28-1.07.46-1.99,1.3-2.69,2.23h0Z"/>
      <path class="cls-11" d="m223.2,130.87h.92c.52,0,.94.43.94.94v.66c0,.52-.43,1.02-.94.95l-.89-.13c-.51-.07-.98-.3-.98-.82v-.66c0-.52.42-.94.94-.94h0Z"/>
      <path class="cls-11" d="m207.58,133.52h.79c.52,0,.79.27.94.76l.26.88c.15.5-.55.9-1.07.9h-.92c-.52,0-1.16-.48-1.02-.98l.18-.69c.13-.5.32-.87.84-.87h0Z"/>
      <path class="cls-11" d="m212.59,128.39c-.38.12-.66.66-.59,1.05.25,1.29.64,2.66,1.5,3.66.39.45,1.22.35,1.78.14,1.05-.4,2.07-1.03,2.81-1.88.32-.37.47-1.15.09-1.45-1.8-1.43-3.39-2.25-5.6-1.52h0Z"/>
      <path class="cls-11" d="m226.42,125.25c-.02-.32.25-.62.52-.8.5-.36,1.08-.66,1.69-.75.53-.09,1.07.09,1.59.23.34.09.7.23.96.47.47.42.95.89,1.19,1.48.2.49.31,1.12.07,1.59-.36.7-1,1.28-1.71,1.62-.31.15-.75.3-1.08.16-.59-.25-1.17-.52-1.69-.89-.34-.24-.89-.5-1.08-.87-.34-.69-.42-1.48-.47-2.25h0Z"/>
      <path class="cls-11" d="m234.18,63.31h.92c.52,0,.94.42.94.94v.66c0,.52-.43.97-.94.95l-1.21-.05c-.52-.02-1.16-.48-.95-.95l.29-.62c.22-.47.43-.94.95-.94h0Z"/>
      <path class="cls-11" d="m164.85,131.18c-.33.28-.82.24-1.11-.09-.29-.33-.41-.61-.13-.95.77-.93,1.72-1.14,2.51-1.14.77-.01,1.45.25,2.24.78.57.39,1.02.77,1.57,1.23.15.12.2.18.55.45.06.05.43.31.49.35.32.23.67.38,1.01.39.44.02.8.04,1.48-.31,1.1-.56,1.93-1.08,2.99-1.54.55-.23,1.04-.46,1.53-.68.4-.18,1.1.2,1.28.6.18.4-.05,1.11-.45,1.29-.57.25-1.16.57-1.69.8-1.07.46-1.91.91-2.85,1.48-.92.55-2.07.64-2.71.53-.77-.13-1.22-.66-1.91-1.21-.19-.15-.84-.54-1.12-.76-.53-.41-.7-.66-1.27-1.04-.5-.34-.98-.52-1.41-.51-.4,0-.6.02-.98.35h0Z"/>
      <path class="cls-11" d="m167.03,141.42c-.32.06-.26.98.07.98,3.9-.04,8.32,1.93,12.7,5.16.31.23.76.79,1.03.52,1.95-1.93,5.18-3.21,8.11-3.45,2.68-.22,5.15,1.62,7.78,2.16.91.18,1.89.28,2.77,0,3.88-1.22,7.55-3.48,12-3.75.33-.02.43-.97.09-.98-3.99-.14-7.77.68-10.99,2.34-.54.28-1.21-.05-1.81-.16-3.29-.64-6.49-2.14-9.84-2.09-2.6.04-5.2.64-7.45,2.34-.38.28-.96-.12-1.38-.33-1.97-.98-3.59-2.78-5.74-3.23-2.4-.5-4.94,0-7.34.49h0Z"/>
      <path class="cls-12" d="m165.07,152.2c0,.2.32.37.52.33,1.5-.32,2.87-1.45,4.41-1.36,1.29.08,2.44.72,3.42,1.83.71.82,1.49,1.67,2.49,2.11,1.08.49,2.33.48,3.51.56.83.06,1.66-.12,2.49-.14,2.29-.04,4.12-1.61,5.95-2.53.92-.47,1.96-.93,3-.84.79.07,1.41.61,2.01,1.27.49.53,1.02,1.11,1.71,1.29.33.09.87-.32.8-.66-.24-1.18-.71-2.42-1.59-3.23-.89-.82-2.16-1.31-3.38-1.36-1.23-.05-2.43.54-3.54,1.08-1.84.89-3.32,2.5-5.25,3.16-1.04.36-2.25.13-3.28-.23-.94-.33-1.62-1.16-2.39-1.78-1.07-.86-1.93-2.02-3.14-2.67-.89-.48-1.97-.8-2.95-.61-1.51.29-2.97,1.01-4.17,1.97-.5.4-.58,1.19-.61,1.83h0Z"/>
      <path class="cls-12" d="m163.82,162.75c-.07.28.55.6.72.37,1.02-1.45,3.59-2.01,5.59-1.98,3.4.04,6.91.82,9.96,2.32.57.28,1.18-.44.98-.68-1.55-1.83-5.22-3.57-8.09-4.08-2.56-.46-5.71-.26-7.69,1.31-.82.64-1.24,1.73-1.48,2.74h0Z"/>
      <path class="cls-3" d="m210.39,296.75c.05.22.09.45.12.67.39,2.53.71,5.02.68,7.58,0,.18-.03.37-.08.55.13-.25.27-.49.42-.72.62-.99,1.68-1.36,2.76-1.59,2.27-.5,4.75-.34,6.93-1,1.74-.53,3.42-1.36,4.86-2.47,3.95-3.05,8.16-6.27,11.34-10.13.19-.23.43-.41.7-.53.72-.32,1.55-.14,2.13.38.54.48.79,1.17.83,1.88.29,6.25-2.98,12.21-6.45,17.19-3.03,4.34-7.69,8.1-12.53,10.21-2.22.97-4.9,1.03-7.21.34-1.87-.55-3.34-2.15-4.19-3.86-.85-1.71-.96-3.7-.81-5.57.08-.96.3-1.91.63-2.83-.22.33-.47.61-.73.84-.57.5-1.24,1.07-1.63,1.72.02.11.07.27.1.35.62,1.65,1.22,3.16,1.55,4.91.28,1.5-.87,2.6-2.32,2.52-3.36-.19-6.63-1.58-8.52-4.47-1.31-2.01-1.67-4.32-2.14-6.61-.36-1.74-.24-3.46-.42-5.19-.07.73-.27,1.46-.46,2.2-.14.53-.17,1.12-.21,1.66-.07.98-.14,1.92-.5,2.84-.55,1.39-2.52,1.92-3.74,1.13-2.02-1.31-3.63-2.84-4.55-5.09-1.5-3.64-2.7-7.59-2.43-11.57.27-3.89.5-8.23,3.3-11.25.8-.87,1.96-1.54,3.18-1.41.17.02.34.05.5.09-.51-.3-.98-.66-1.41-1.05-1.01-.91-1.43-2.58-.79-3.81,2.02-3.82,6.72-6.13,10.78-7.06,4.52-1.03,9.48-.44,13.79,1.18,4.74,1.79,8.48,3.55,11.01,8.28.75,1.4.58,3.64-1,4.39-2.66,1.26-5.61,1.52-8.5,1.73-1.23.09-2.44-.41-3.42-1.13-1.23-.89-1.95-2.06-2.97-3.13-.75-.79-1.43-1.27-2.54-.95-1.93.56-3.91.72-5.86,1.15-2.07.45-3.73,1.46-5.97,1.39-.45-.02-.9-.09-1.33-.21.46.31.88.67,1.23,1.07.91,1.04,1.55,2.41,1.59,3.81,0,.26,0,.52-.03.78-.16,1.34-.79,2.41-1.02,3.66-.2,1.05-.57,2.34-.45,3.4.2,1.77.52,3.21,1.16,4.79,0-.02-.01-.05-.01-.07-.28-1.42-.78-2.62-.71-4.11.12-2.35.19-4.75,1.35-6.87,1.32-2.43,3.27-4.74,5.8-5.95,1.93-.92,4.2-.5,6.08.33,1.39.62,2,1.68,2.24,3.15.16.96-.08,1.53-.71,2.18-.28.5-.94,1.45-.99,1.8-.07.58-.03,1.19.05,1.8.04-.7.2-1.4.48-2.04.59-1.3,1.79-2.38,3.15-2.82,1.94-.64,3.72-.38,5.68-.54,1.43-.12,2.85-.62,4.12-1.29,2.32-1.22,4.7-2.66,6.62-4.46.73-.69,1.43-1.4,2.15-2.1-.11.07-.21.14-.32.2-1.05.66-2.62.41-3.41-.57-4.29-5.39-9.63-9.02-16.44-10.44-.31-.07-.6-.22-.82-.45-1.04-1.09-.07-3.03,1.38-3.01,4.18.06,8.37-.08,12.5.73,4.18.82,7.41,3.07,10.06,6.34.8.99,1.22,2.46.57,3.63-.24.42-.51.82-.82,1.19.2-.14.39-.28.59-.41,1.07-.71,2.69-.46,3.51.53,1.24,1.49,2.34,3.21,2.67,5.15.43,2.51-.75,5.11-2.36,6.99-4.19,4.88-8.51,9.03-13.89,12.64-1.9,1.28-4.19,2.29-6.52,2.17-2.28-.11-4.6-1.24-6.14-2.91-.52-.57-.93-1.21-1.25-1.88h0Z"/>
      <path class="cls-8" d="m188.92,281.87c.48-.52,1.21-1.02,1.92-.94.98.11,1.93.71,2.58,1.45.68.78,1.19,1.82,1.22,2.86.04,1.42-.77,2.73-1.03,4.12-.24,1.27-.62,2.56-.47,3.84.23,2.04.57,3.72,1.59,5.95.5,1.11.1,2.38-.21,3.59-.36,1.39-.13,3-.66,4.34-.2.5-1.1.71-1.55.42-1.94-1.25-3.23-2.58-3.98-4.41-1.41-3.43-2.58-7.19-2.32-10.9.25-3.69.46-7.7,2.91-10.34h0Zm1.71-6.5c-.32.61-.04,1.55.47,2.02.98.89,2.27,1.62,3.59,1.66,1.92.07,3.72-.95,5.6-1.36,1.91-.42,3.88-.58,5.77-1.12,1.67-.48,2.88.14,4.03,1.36.93.98,1.68,2.16,2.77,2.96.69.5,1.58.9,2.44.84,2.7-.2,5.52-.43,7.97-1.59.71-.34.7-1.65.33-2.34-2.43-4.55-6.25-6.1-10.22-7.59-4.05-1.53-8.72-2.09-12.94-1.13-3.78.86-8.05,2.99-9.8,6.3h0Zm20.81-11.3c-.19,0-.42.48-.23.52,7.24,1.51,12.85,5.4,17.3,10.97.3.38,1.04.5,1.45.23,1.31-.82,2.57-1.88,3.33-3.23.33-.59,0-1.45-.42-1.97-2.2-2.72-5.07-5-9.19-5.81-4.01-.79-8.15-.64-12.24-.7h0Zm23.74,11.23c.43-.29,1.21-.17,1.55.23,1.07,1.29,2.06,2.8,2.34,4.45.35,2.04-.69,4.22-2.02,5.77-4,4.64-8.07,8.67-13.59,12.38-1.64,1.1-3.64,2.02-5.62,1.92-1.88-.09-3.83-1.05-5.11-2.44-1.34-1.46-1.76-3.59-2.2-5.53-.25-1.11-.28-2.38.19-3.42.41-.92,1.29-1.7,2.25-2.01,1.7-.56,3.59-.32,5.34-.47,1.63-.14,3.24-.69,4.69-1.45,2.47-1.3,4.97-2.84,6.94-4.69,1.72-1.61,3.29-3.43,5.25-4.73h0Zm-22.4,30.33c.37-.58,1.16-.79,1.83-.94,2.31-.51,4.77-.34,7.03-1.03,1.91-.58,3.76-1.5,5.34-2.72,4.1-3.17,8.38-6.49,11.58-10.36.29-.34.99-.12,1.03.84.27,5.83-2.87,11.5-6.19,16.26-2.93,4.2-7.42,7.75-11.91,9.7-1.89.83-4.21.87-6.19.28-1.44-.43-2.61-1.75-3.28-3.09-.72-1.44-.79-3.18-.66-4.78.12-1.46.62-2.93,1.41-4.17h0Zm-4.24-19.92c.18-.38.64-.37.51-1.15-.19-1.11-.56-1.67-1.38-2.04-1.58-.7-3.4-1.04-4.83-.35-2.22,1.07-3.95,3.16-5.13,5.32-1.02,1.86-1.07,4.12-1.17,6.24-.06,1.27.43,2.5.68,3.75.19.96.51,1.89.63,2.86.24,1.82.08,3.69.45,5.48.43,2.09.76,4.31,1.92,6.09,1.46,2.25,4.11,3.62,7.36,3.8.27.02.9-.07.77-.76-.32-1.71-.87-3.05-1.48-4.65-.2-.5-.32-1.07-.05-1.55.49-.85,1.25-1.54,1.99-2.18.4-.34.86-1.07.87-1.59.04-2.53-.29-4.91-.66-7.34-.27-1.76-.95-3.45-1.27-5.2-.25-1.42-.58-2.88-.42-4.31.1-.89.8-1.6,1.2-2.41h0Z"/>
      <path class="cls-6" d="m267.82,162.68c-51.83,39.03-105.13,77.5-157.06,110.59-3.44,2.19-7.8,4.61-8.65.07-2.45-13.2-2.14-29.46-.84-46.79l217.62-149.24,1.58,48.31c-16.34,11.69-35.47,24.13-52.64,37.06h0Zm-172.83,70.29c-.93,13.56-.67,26.83.19,39.94.29,4.43,1.73,7.87,5.8,9.96,2.34,1.2,4.61,2.09,7.51,2.79,2.54.61,6.53-.92,8.86-2.59l70.74-50.94,49.69-34.88,53.34-38.34c13.27-9.42,26.65-18.69,39.8-28.26,1.27-.92,1.15-1.95,1.12-3.05l-.98-45.38c0-.95-.28-1.96-.84-2.72-1.6-2.14-3.47-4.29-5.53-5.81-1.59-1.17-3.2-1.27-4.76-1.29-2.3-.03-3.12,1.04-4.81,1.66l-18.19,13.59-15.56,12.14c-60.13,39.17-119.81,79.77-179.44,119.76-4.61,3.09-6.52,7.34-6.94,13.41h0Z"/>
      <text class="cls-16" transform="translate(168.96 97.58)"><tspan x="0" y="0">YY</tspan></text>
      <path class="cls-13" d="m268.36,44.3h-105.62l.22,75.68c7.61,3.81,15.24,2.95,21.77,1.74.59-.11,1.03-.8,1.13-1.39.68-3.98-.07-8.23,1.18-12.07,1.71-5.23,5.07-9.76,7.55-14.68,1.2-2.38,2.9-4.6,3.48-7.2.57-2.54.22-5.22-.09-7.8-.25-2.12-.45-4.38-1.57-6.2-1.56-2.54-3.6-4.08-6.2-6.45l.04-7c0-1.53,0-3.34,1.01-4.5,1.03-1.2,2.81-1.92,4.39-1.79,2.1.17,3.94,1.54,5.74,2.62.64.38,1.45.52,2.32-.31.74-.7,1.1-1.68,1.4-2.71.46-1.61,2.09-2.84,3.66-3.4,2.55-.91,5.38-.97,8.08-.79,1.21.09,2.53.62,3.27,1.58,1.01,1.32,1.02,3.15,1.55,4.72.35,1.02.71,2.23,2.33,2.37.49.04,1.26.01,1.75-.13.82-.24,1.19-.89,1.51-1.68.57-1.4,1.48-2.7,2.82-2.92,1.5-.25,3.56-.37,5.17.21,1.84.67,2.73,3.01,3.21,4.9.76,3,.45,6.17.37,9.26-.05,1.83-.22,3.72-2.33,4.41-.81.26-1.09.9-1.1,1.53-.07,7.1.09,14.22.86,21.28.2,1.8.78,3.73,2.01,5.06,1.3,1.4,2.73,4.21,2.9,7.3.02.35.8,8.9.65,19.84,4.72-3.13,9.45-6.25,14.18-9.36l12.36-8.16v-63.96Zm-99.4,29.21h5.08l5.07,9.53,4.94-9.53h4.98l-7.86,13.97v10.09h-4.34v-10.13l-7.86-13.94Zm82.49,24.07v-10.13l-7.86-13.94h5.08l5.07,9.53,4.94-9.53h4.98l-7.86,13.97v10.09h-4.34Z"/>
      <path class="cls-13" d="m188.34,232.6l-30.51,21.97.09,45.09c.05,26.57,15.16,55.1,22.48,59.39,2.39,1.4,4.75,2.2,7.94,2.47v-55.51c-.55-.69-1.02-1.46-1.39-2.34-1.5-3.64-2.7-7.59-2.43-11.57.27-3.89.5-8.23,3.3-11.25.16-.17.33-.34.52-.48v-47.77Z"/>
      <path class="cls-13" d="m237.78,197.25l.13,77.37c1.23,1.48,2.3,3.19,2.63,5.11.43,2.51-.75,5.11-2.36,6.99-.09.11-.18.21-.28.32v2.17c.07-.04.14-.08.21-.11.72-.32,1.55-.14,2.13.38.54.48.79,1.17.83,1.88.19,4.17-1.2,8.2-3.17,11.9v57.06c0,.84,1.01,1.12,1.53.45,13.73-17.87,28.84-55.99,28.78-92.12l-.16-93.17c-9.73,7-19.45,14-29.18,21l-1.11.78Z"/>
      <path class="cls-4" d="m217.77,301.54c-2.28-.11-4.6-1.24-6.14-2.91-.52-.57-.93-1.21-1.25-1.88.05.22.09.45.12.67.39,2.53.71,5.02.68,7.58,0,.18-.03.37-.08.55.13-.25.27-.49.42-.72.62-.99,1.68-1.36,2.76-1.59,2.27-.5,4.75-.34,6.93-1,1.74-.53,3.42-1.36,4.86-2.47,3.95-3.05,8.16-6.27,11.34-10.13.14-.17.3-.31.49-.42v-2.17c-4.11,4.74-8.35,8.8-13.62,12.32-1.9,1.28-4.19,2.29-6.52,2.17h0Z"/>
      <path class="cls-4" d="m217.77,301.54c-2.28-.11-4.6-1.24-6.14-2.91-.52-.57-.93-1.21-1.25-1.88.05.22.09.45.12.67.39,2.53.71,5.02.68,7.58,0,.18-.03.37-.08.55.13-.25.27-.49.42-.72.62-.99,1.68-1.36,2.76-1.59,2.27-.5,4.75-.34,6.93-1,1.74-.53,3.42-1.36,4.86-2.47,3.95-3.05,8.16-6.27,11.34-10.13.14-.17.3-.31.49-.42v-2.17c-4.11,4.74-8.35,8.8-13.62,12.32-1.9,1.28-4.19,2.29-6.52,2.17h0Z"/>
      <path class="cls-3" d="m211.11,305.56c.13-.25.27-.49.42-.72.62-.99,1.68-1.36,2.76-1.59,2.27-.5,4.75-.34,6.93-1,1.74-.53,3.42-1.36,4.86-2.47,3.95-3.05,8.16-6.27,11.34-10.13.14-.17.3-.31.49-.42v-2.17c-4.11,4.74-8.35,8.8-13.62,12.32-1.9,1.28-4.19,2.29-6.52,2.17-2.28-.11-4.6-1.24-6.14-2.91-.52-.57-.93-1.21-1.25-1.88.05.22.09.45.12.67.39,2.53.71,5.02.68,7.58,0,.18-.03.37-.08.55h0Z"/>
      <path class="cls-3" d="m169.99,151.17c-1.53-.09-2.9,1.04-4.41,1.36-.2.04-.52-.12-.52-.33.03-.64.11-1.43.61-1.83,1.2-.96,2.66-1.68,4.17-1.97.98-.19,2.07.13,2.95.61,1.21.65,2.07,1.81,3.14,2.67.77.63,1.45,1.45,2.39,1.78,1.03.37,2.24.59,3.28.23,1.93-.66,3.41-2.27,5.25-3.16,1.11-.54,2.3-1.13,3.54-1.08,1.21.05,2.49.54,3.38,1.36.88.82,1.35,2.06,1.59,3.23.07.34-.46.74-.8.66-.69-.18-1.23-.76-1.71-1.29-.61-.66-1.23-1.2-2.01-1.27-1.04-.09-2.08.38-3,.84-1.83.92-3.66,2.49-5.95,2.53-.83.02-1.66.2-2.49.14-1.18-.08-2.43-.08-3.51-.56-.99-.44-1.77-1.29-2.49-2.11-.98-1.11-2.13-1.75-3.42-1.83h0Zm71.84-25.38c.14-10.94-.63-19.49-.65-19.84-.17-3.09-1.6-5.9-2.9-7.3-1.23-1.34-1.82-3.26-2.01-5.06-.77-7.06-.93-14.18-.86-21.28,0-.63.28-1.27,1.1-1.53,2.11-.69,2.28-2.57,2.33-4.41.08-3.09.39-6.26-.37-9.26-.48-1.89-1.37-4.23-3.21-4.9-1.61-.58-3.67-.46-5.17-.21-1.34.22-2.25,1.53-2.82,2.92-.32.79-.69,1.44-1.51,1.68-.48.14-1.26.18-1.75.13-1.62-.15-1.99-1.35-2.33-2.37-.53-1.57-.55-3.41-1.55-4.72-.73-.96-2.06-1.49-3.27-1.58-2.7-.19-5.53-.12-8.08.79-1.57.56-3.2,1.8-3.66,3.4-.3,1.03-.66,2.01-1.4,2.71-.87.82-1.68.69-2.32.31-1.81-1.08-3.64-2.45-5.74-2.62-1.57-.13-3.36.59-4.39,1.79-1,1.16-1,2.97-1.01,4.5l-.04,7c2.6,2.37,4.64,3.91,6.2,6.45,1.11,1.82,1.32,4.08,1.57,6.2.31,2.58.66,5.27.09,7.8-.59,2.6-2.28,4.82-3.48,7.2-2.48,4.91-5.84,9.45-7.55,14.68-1.25,3.84-.5,8.08-1.18,12.07-.1.59-.55,1.28-1.13,1.39-6.53,1.2-14.16,2.07-21.77-1.74l-.22-75.68h105.62v63.96l-12.36,8.16c-4.73,3.11-9.46,6.23-14.18,9.36h0Zm0,0c4.72-3.13,9.45-6.25,14.18-9.36l-.07.05-14.11,9.32Zm-88.21-89.07v153.95l118.9-81.54V36.71c0-1.16-.96-2.12-2.12-2.12h-114.65c-1.17,0-2.13.96-2.13,2.12h0Zm26.2,110.85c-4.38-3.23-8.8-5.19-12.7-5.16-.33,0-.4-.92-.07-.98,2.4-.49,4.94-1,7.34-.49,2.15.45,3.78,2.25,5.74,3.23.42.21,1,.61,1.38.33,2.26-1.7,4.85-2.3,7.45-2.34,3.35-.05,6.55,1.45,9.84,2.09.59.11,1.27.44,1.81.16,3.22-1.66,7-2.48,10.99-2.34.33.01.24.97-.09.98-4.45.27-8.12,2.53-12,3.75-.88.28-1.86.18-2.77,0-2.64-.54-5.1-2.38-7.78-2.16-2.93.24-6.16,1.52-8.11,3.45-.27.27-.72-.29-1.03-.52h0Zm15.61-17.68c-.94.41-2.05-.02-2.46-.96l-.53-1.2c-.41-.94.02-2.05.96-2.46l1.67-.74c.94-.41,2.05.02,2.46.96l.53,1.2c.41.94-.02,2.05-.96,2.46l-1.67.73Zm12.4-9.66c-2.92.16-9.46,2.72-13.41,2.58-1.58-.06-2.83-1.53-3.84-2.77-.47-.57,0-1.66.33-2.2.58-.96,1.75-1.18,2.83-1.45,2.04-.5,4.33.2,6.4-.64,1.17-.48.95-1.43,0-1.79-1.69-.64-3.41-.25-5.44-.14-.61.03-1.47-.41-1.58-1.02-.1-.57.6-1.06,1.11-1.33.92-.47,1.85-.53,3.02-1.03.71-.3.61-1.38.16-1.64-.52-.31-1.22-.35-1.83.05-.56.37-1.52.45-2.02-.05-.55-.56-1.02-1.44-.14-2.34,1.41-1.44,2.88-2.15,5.2-2.3.56-.04,1.64-.36,1.64-1.22,0-.59-.02-1.18-.92-1.38-.66-.15-1.35.49-2.13.16-.67-.28-.6-1.39-.56-2.11.16-3.1.97-4.82,2.34-6.75,1.01-1.42,2.02-2.88,2.81-4.41.89-1.71,1.25-3.7,1.31-5.62.15-4.96.1-10.33-.09-14.77,6.32.03,13.14.59,19.97,1.92.8.15,1.49.94,1.08,1.59-.75,1.18-1.52,2.36-2.16,3.61-.11.21-.36.54-.05.7,1.49.75,2.39.65,3.66,1.17.72.3,1.34,1.64.8,2.2-.89.93-2.32,1.47-3.28,2.44-.34.34-.6.92-.3,1.3.44.59.86,1.31.66,1.88-.14.39-.88.72-1.29.57-.39-.15-1.09-.4-1.22.28-.24,1.27-.24,2.57-.12,3.87.11,1.17.29,2.88.79,3.63.66,1,1.53.9,2.38.7.65-.16,1.28-.51,1.92-.61.78-.13,1.43.21,1.9.84,1.5,1.99,1.97,4.47,2.46,6.8.13.62.34,1.63-.16,1.92-.68.39-1.62.5-2.27.98-.24.18-.34.72-.09.89,1.7,1.2,3.11,1.46,5.39,2.39.94.38,1,1.14.56,1.36-1.8.9-2.98.81-4.88.71-1.43-.08-2.02,1.02-1.74,1.68.46,1.06,3.72,2.12,5.49,3.56.34.27.98,1,.47,1.22-1.14.48-2.62-.24-3.66.66-.33.29-.61,1.02-.19,1.31.96.67,2.12.26,3.47.66.68.2,1.25,1.03,1.22,1.73-.1,2.05-2.83,2.18-4.45,2.02-1.67-.16-3.23-.61-4.88-1.31-.68-.29-.92-1.01-1.03-1.97-.41-3.49.15-5.5-.38-8.72-.46-2.82-2.8-4.59-6.19-5.95-1.53-.62-3.37-.61-4.97.19-1.59.79-2.74,2.55-3.19,4.27-.98,3.78-.89,7.61-.94,11.67h0Zm5.95-10.93c.29-.74.75-1.46,1.36-1.97.38-.32,1.06-.67,1.45-.38,1.34,1.01,2.41,2.41,3.19,3.89.75,1.42,1.09,3.05,1.31,4.64.17,1.21.16,2.47-.14,3.66-.21.84-.64,1.72-1.36,2.2-.6.4-1.44.21-2.16.14-.86-.09-1.77-.2-2.53-.61-.75-.4-1.63-.92-1.88-1.73-.54-1.82-.47-3.78-.33-5.67.11-1.43.55-2.84,1.08-4.17h0Zm-36.65,23.07c-1.07.46-1.91.91-2.85,1.48-.92.55-2.07.64-2.71.53-.77-.13-1.22-.66-1.91-1.21-.19-.15-.84-.54-1.12-.76-.53-.41-.7-.66-1.27-1.04-.5-.34-.98-.52-1.41-.51-.4,0-.6.02-.98.35-.33.28-.82.24-1.11-.09-.29-.33-.41-.61-.13-.95.77-.93,1.72-1.14,2.51-1.14.77-.01,1.45.25,2.24.78.57.39,1.02.77,1.57,1.23.15.12.2.18.55.45l.49.35c.32.23.67.38,1.01.39.44.02.8.04,1.48-.31,1.1-.56,1.93-1.08,2.99-1.54.55-.23,1.04-.46,1.53-.68.4-.18,1.1.2,1.28.6.18.4-.05,1.11-.45,1.29-.57.25-1.16.57-1.69.8h0Zm19.05-65.94c-.99-.59-1.64-1.12-2.2-2.04-.24-.39-.1-.98-.01-1.44.24-1.19,1.06-1.77,2.1-2.07.54-.16,1.43-.21,2.04.24.89.64,1.97.89,1.97,1.97,0,.46.16,1.2-.2,1.48-.96.77-1.3.99-2,1.59-.49.41-1.14.61-1.69.28h0Zm-30.86,93.59c1.98-1.57,5.13-1.77,7.69-1.31,2.87.51,6.53,2.25,8.09,4.08.2.24-.41.96-.98.68-3.05-1.5-6.56-2.28-9.96-2.32-2-.03-4.56.53-5.59,1.98-.16.23-.79-.09-.72-.37.24-1.01.66-2.1,1.48-2.74h0Zm41.26-24.93l.18-.69c.13-.5.32-.87.84-.87h.79c.52,0,.79.27.94.76l.26.88c.15.5-.55.9-1.07.9h-.92c-.52,0-1.16-.48-1.02-.98h0Zm6.95-1.98c-.86-1-1.25-2.36-1.5-3.66-.08-.39.2-.93.59-1.05,2.21-.73,3.8.1,5.6,1.52.38.3.22,1.09-.09,1.45-.74.85-1.76,1.48-2.81,1.88-.56.21-1.39.31-1.78-.14h0Zm12.91-7.85c-.02-.32.25-.62.52-.8.5-.36,1.08-.66,1.69-.75.53-.09,1.07.09,1.59.23.34.09.7.23.96.47.47.42.95.89,1.19,1.48.2.49.31,1.12.07,1.59-.36.7-1,1.28-1.71,1.62-.31.15-.75.3-1.08.16-.59-.25-1.17-.52-1.69-.89-.34-.24-.89-.5-1.08-.87-.34-.69-.42-1.48-.47-2.25h0Zm-4.16,6.56c0-.52.42-.94.94-.94h.92c.52,0,.94.43.94.94v.66c0,.52-.43,1.02-.94.95l-.88-.13c-.51-.07-.98-.3-.98-.82v-.66Zm-27.59,4.8c-.57-.16-1.2-.47-1.5-.98-.2-.33-.02-.87.26-1.12,1.07-.97,2.29-1.82,3.61-2.39.89-.38,1.93-.58,2.88-.4.87.17,1.77.67,2.27,1.41.26.37-.06,1.02-.42,1.29-1.33,1-2.82,1.85-4.41,2.34-.86.27-1.82.09-2.69-.14h0Zm9.26-8.07c-.3-.22-.37-.81-.14-1.1.71-.93,1.62-1.77,2.69-2.23.57-.25,1.27.02,1.83.28.78.37,1.59.84,2.06,1.57.2.31-.07.81-.35,1.05-.57.5-1.31.81-2.04,1.03-.55.16-1.16.18-1.73.09-.8-.12-1.67-.23-2.32-.7h0Zm-18,.87c-.59,0-1.08-.41-1.08-.91v-.64c0-.5.49-.91,1.08-.91h1.05c.59,0,1.08.41,1.08.91v.64c0,.5-.48.91-1.08.91h-1.05Zm32.81-3.39c0-.52.43-.94.95-.94h.92c.52,0,.95.42.95.94v.66c0,.52-.43.94-.95.94h-.92c-.52,0-.95-.43-.95-.94v-.66Zm15.14-60.21c-.52-.02-1.16-.48-.95-.95l.29-.62c.22-.47.43-.94.95-.94h.92c.52,0,.94.42.94.94v.66c0,.52-.43.97-.94.95l-1.21-.05Zm-18.04-.75c-1.17.06-1.86-.48-1.86-.95v-.59c0-.47.43-.65.85-.85.45-.22.99-.15,1.99-.04.71.08,1.86.45,2.25.97.21.27.09.99-.15,1.07-.53.18-.93.23-1.4.18-.79-.07-.96.16-1.69.2h0Zm-10.29.97c-.91-.02-1.56-.23-2.38-1.08-.32-.33-.34-1.18.06-1.61.68-.73,1.31-1.91,2.75-2.16.55-.09,1.29-.21,2.04.23.94.56,2.26,1.19,2.26,2.27,0,.46-.13.89-.49,1.18-.97.77-1.41,1.23-2.14,1.2-.88-.02-1.46-.02-2.1-.04h0Zm21.57-.38c-.55,0-1.01-.38-1.01-.85v-.59c0-.47.45-.85,1.01-.85h.98c.56,0,1.01.38,1.01.85v.59c0,.47-.45.85-1.01.85h-.98Zm6.04-6.49c-.32,0-.58-.26-.58-.58v-.41c0-.32.26-.58.58-.58h.57c.32,0,.58.26.58.58v.41c0,.32-.26.58-.58.58h-.57Zm-17.64.21c-.47,0-.85-.38-.85-.85v-.59c0-.47.38-.85.85-.85h.83c.46,0,.85.38.85.85v.59c0,.47-.38.85-.85.85h-.83Zm-21.02-1.5c-.47,0-.85-.38-.85-.85v-.59c0-.47.38-.85.85-.85h.83c.47,0,.85.38.85.85v.59c0,.47-.38.85-.85.85h-.83Z"/>
      <path class="cls-3" d="m195.25,307.63c-.55,1.39-2.52,1.92-3.74,1.13-1.23-.8-2.3-1.67-3.17-2.75v55.51c-3.19-.28-5.55-1.07-7.94-2.47-7.32-4.29-22.43-32.82-22.48-59.39l-.09-45.09,30.51-21.97v47.77c.75-.62,1.68-1.03,2.67-.92.17.02.34.05.5.09-.51-.3-.98-.66-1.41-1.05-1.01-.91-1.43-2.58-.79-3.81,2.02-3.82,6.72-6.13,10.78-7.06,4.52-1.03,9.48-.44,13.79,1.18,4.74,1.79,8.48,3.55,11.01,8.28.75,1.4.58,3.64-1,4.39-2.66,1.26-5.61,1.52-8.5,1.73-1.23.09-2.44-.41-3.42-1.13-1.23-.89-1.95-2.06-2.97-3.13-.75-.79-1.43-1.27-2.54-.95-1.93.56-3.91.72-5.86,1.15-2.07.45-3.73,1.46-5.97,1.39-.45-.02-.9-.09-1.33-.21.46.31.88.67,1.23,1.07.91,1.04,1.55,2.41,1.59,3.81,0,.26,0,.52-.03.78-.16,1.34-.79,2.41-1.02,3.66-.2,1.05-.57,2.34-.45,3.4.2,1.77.52,3.21,1.16,4.79v-.07c-.3-1.42-.8-2.62-.72-4.11.12-2.35.19-4.75,1.35-6.87,1.32-2.43,3.27-4.74,5.8-5.95,1.93-.92,4.2-.5,6.08.33,1.39.62,2,1.68,2.24,3.15.16.96-.08,1.53-.71,2.18-.28.5-.94,1.45-.99,1.8-.07.58-.03,1.19.05,1.8.04-.7.2-1.4.48-2.04.59-1.3,1.79-2.38,3.15-2.82,1.94-.64,3.72-.38,5.68-.54,1.43-.12,2.85-.62,4.12-1.29,2.32-1.22,4.7-2.66,6.62-4.46.73-.69,1.43-1.4,2.15-2.1l-.32.2c-1.05.66-2.62.41-3.41-.57-4.29-5.39-9.63-9.02-16.44-10.44-.31-.07-.6-.22-.82-.45-1.04-1.09-.07-3.03,1.38-3.01,4.18.06,8.37-.08,12.5.73,4.18.82,7.41,3.07,10.06,6.34.8.99,1.22,2.46.57,3.63-.24.42-.51.82-.82,1.19.2-.14.39-.28.59-.41,1.07-.71,2.69-.46,3.51.53.01.01.02.03.03.04l-.13-77.37-49.69,34.88-34.49,24.83v8.34c0,16.55-.85,31.07.97,43.62,5.21,35.95,21.72,61.52,58.54,85.95,37.42-28.75,59.39-81.12,59.39-129.57v-93.01l-4.45,3.2.16,93.16c.06,36.12-15.05,74.25-28.78,92.12-.51.67-1.53.4-1.53-.45v-57.06c-.99,1.85-2.12,3.62-3.28,5.29-3.03,4.34-7.69,8.1-12.53,10.21-2.22.97-4.9,1.03-7.21.34-1.87-.55-3.34-2.15-4.19-3.86-.85-1.71-.96-3.7-.81-5.57.08-.96.3-1.91.63-2.83-.22.33-.47.61-.73.84-.57.5-1.24,1.07-1.63,1.72.02.11.07.27.1.35.62,1.65,1.22,3.16,1.55,4.91.28,1.5-.87,2.6-2.32,2.52-3.36-.19-6.63-1.58-8.52-4.47-1.31-2.01-1.67-4.32-2.14-6.61-.36-1.74-.24-3.46-.42-5.19-.07.73-.27,1.46-.46,2.2-.14.53-.17,1.12-.21,1.66-.07.98-.14,1.92-.5,2.84h0Z"/>
      <path class="cls-15" d="m212.87,18.32c-5.98-5.04-11.34-12.02-20.72-12-10.36.02-23.28,7.11-27.28,8.34-2.38.73-5.1,1.68-8.91,1.5-5.49-.27-11.09-.31-16.5-.38-2.77-.04-4.38,1.27-5.3,3.69-1.11,2.93-.84,9.91.23,15.34.3,1.48.68,2.94,2.02,3.63,1.35.69,3.06,1.49,4.01,2.7.75.93.82,2.26.82,3.7v148.29c4.12-2.77,8.24-5.55,12.36-8.32V36.71c0-1.17.96-2.12,2.13-2.12h114.65c1.17,0,2.12.97,2.12,2.12v68.87c2.95-1.93,5.91-3.86,8.86-5.78l.22-.17c.08-19.09.16-38.18.23-57.27,0-1.48,1.43-3.03,2.88-3.69,2-.91,3.41-1.29,5.43-1.64.63-.11.66-.48.79-.71,1.16-3.81,1.22-8.73,1.22-13.12,0-2-.47-3.95-1.43-5.75-.57-1.06-2.01-1.36-3.16-1.51-4.72-.61-11.61-.05-17.32.26-3.61.19-6.83-.09-9.73-1.36-8.85-3.88-17.2-8.58-25.76-8.65-9.74-.09-15.16,5.91-21.87,12.14h0Z"/>
      <g class="cls-1">
        <path class="cls-15" d="m153.61,256.96l-12.36,8.9v28.64c0,55.41,40.58,91.17,73.41,109.59,32.49-33.59,66.3-66.24,66.38-120.19.05-39.32.17-78.64.31-117.96l-8.83,6.34v93.01c0,48.45-21.97,100.82-59.39,129.57-36.82-24.43-53.34-50-58.54-85.95-1.82-12.56-.97-27.08-.97-43.62v-8.34Z"/>
        <path class="cls-3" d="m137.02,45.02c.14,50.32.09,100.63.03,150.94,1.4-.94,2.8-1.89,4.2-2.83V44.85c0-1.44-.07-2.77-.82-3.7-.95-1.2-2.65-2-4.01-2.7-1.34-.69-1.72-2.15-2.02-3.63-1.08-5.44-1.34-12.42-.23-15.34.92-2.42,2.52-3.72,5.3-3.69,5.41.07,11.01.11,16.5.38,3.8.18,6.53-.77,8.91-1.5,4-1.23,16.92-8.32,27.28-8.34,9.38-.02,14.74,6.96,20.72,12,6.72-6.23,12.13-12.23,21.87-12.14,8.56.07,16.91,4.77,25.76,8.65,2.89,1.27,6.11,1.55,9.73,1.36,5.71-.31,12.6-.87,17.32-.26,1.15.15,2.6.45,3.16,1.51.96,1.8,1.43,3.75,1.43,5.75,0,4.39-.06,9.31-1.22,13.12-.13.23-.16.61-.79.71-2.01.35-3.43.73-5.43,1.64-1.45.66-2.88,2.21-2.88,3.69-.07,19.09-.15,38.18-.23,57.27l9.32-7.27-.07-44.47c0-.74.88-1.38,1.57-1.61,1-.32,2.21-.04,3.27-.03,2.2.02,4.07-1.26,4.55-3.04,2.35-8.6,1.79-17.83-1.25-25.94-1.06-2.83-4.35-4.93-7.35-5.35-4.54-.64-9.22-.43-13.39-.35-2.39.04-4.96-.12-7.06-1.26-6.81-3.69-13.47-7.01-21.83-9.13-5.18-1.31-11.83-.81-16.02,0-6.43,1.23-12.35,3.12-20.17,11.49-2.25-7-12.18-10.46-20.51-10.62-9.17-.17-13.88,1.61-26.85,7.67-3.32,1.55-6.57,2.26-10.79,2.16-5.95-.14-12.73-1.17-17.85-.02-3.75.84-7.01,3.09-7.62,8.65-.56,5.15.06,11.25,1.05,16.75.28,1.55,1.55,2.8,2.67,3.91.82.81,2.18.89,2.99,1.71.53.54.79,1.38.79,2.14h0Z"/>
        <path class="cls-3" d="m341.42,338.91c-10.86,8.2-21.48,18.08-26.2,25.21,29.9,7.21,52.87-6.51,71.49-28.75,3.84-4.59,8.48-11.2,10.95-16.64-6.59.8-17.05-1.26-29.89,4.91,20.14-10.08,28.92-28.06,37.95-44.8,7.27-13.48,13.07-31.84,15.03-43.31-5.54,3.11-8.02,5.12-13.16,9.26,5.71-7.36,8.59-12.54,12.26-21.31,7.41-17.68,6.25-39.54,4.8-51.2-1.96,2.61-3.84,4.21-9.98,13.21,1.07-3.73,3.36-9.26,4.16-22.48.32-5.26.41-9.55.14-14.81-.31-6.11-1.45-12.07-2.28-18.13-1.12-8.18-3.23-19.36-5.71-26.37-2.02,3.14-2.79,5.84-4.3,9.46,1.25-16.98-3.6-32.42-10.04-47.54-1.07-2.5-2.4-4.88-3.6-7.32-2.16,7.22-3.63,10.49-4.61,18.07-1.49-23.73-19.41-51.36-34.29-60-.02,20.46,3.38,29.53,9.15,43.04-3.3-3.2-8.34-6.13-10.93-7.86,1.95,16.21,4.9,36.89,14.72,50.65-.14-.11-6.8-4.5-8.65-5.46,1.76,8.93,1.88,22.03,9.85,37.18l-.81.51c-1.64,11.65-2.5,29.07,2.28,50.85-.42-.76-1.57-2.52-2.54-3.4-1.1,3.61-7.83,27.15-7.01,51.62l-1.95-9.4c-9.91,18.8-15.34,30.08-17.83,52.24-20.81,14.31-48.84,54.31-48.01,83.29,19.49-1.62,42.74-29.49,45.83-54.7-.58,12.68,1.78,28.25,3.17,33.97h0Zm37.26-58.7c5.44-18.02,7.04-33.6,4.24-52.36,2.55,5.24,3.71,7.16,5.77,10.09-3.21,10.78-5.13,27.32-4.27,31.5-1.45,3.31-4.71,8.46-5.73,10.77h0Zm-5.22,11.84c-2.19,5.84-5.18,15.72-9.86,33.2-5.36,2.22-12.08,6.29-19.07,11.36,18.47-23.52,21.38-48.61,19.38-72.98,1.35,11.41,5.59,20.59,9.56,28.42h0Zm9.9-172.43c2.42,2.33,4.51,3.31,6.82,4.2,2.38,8.07,6.96,15.55,9.25,19.29-.91,7.88-1.38,7.51-1.73,15.41-2.56-19.09-6.47-27.69-14.34-38.91h0Zm13.72,50.11c-.45,13.13-.87,18.22,3.21,38.98-1.51,2.79-5,10.33-5.39,11.44,2.1-14.83,1.81-20.96-1.05-35.77-2.01-10.43-4.41-14.59-9.65-24.28,3.25,3.62,8.53,6.79,12.88,9.64h0Zm-15.11-85.51c1.22.9,2.37,1.74,5.17,3.83-.43,2.47-.6,5.63-.5,7.52,0,.04-1-4.46-4.67-11.35h0Z"/>
      </g>
      <path class="cls-15" d="m268.71,358.49c23.9.64,47.27,8.15,70.2,21.45.4.23.53.45-.05.7-13.35,5.98-40.63,10.71-57.35,6.96-10-2.24-19.39-7.58-24.57-14,4.38-4.84,8.3-9.88,11.77-15.11h0Z"/>
      <path class="cls-3" d="m256.94,373.6c5.19,6.42,14.58,11.76,24.57,14,16.72,3.75,44-.98,57.35-6.96.58-.26.45-.47.05-.7-22.94-13.3-46.3-20.81-70.2-21.45.57-.86,1.13-1.73,1.68-2.6,22.55-.6,47.76,8.58,74.49,24.94.21.13.14.66-.09.75-23.9,9.38-50.65,13.68-69.82,7.76-7.82-2.41-17.77-8.48-19.8-13.81.6-.64,1.19-1.28,1.77-1.93h0Z"/>
      <path class="cls-15" d="m338.06,283.54c.14,14.58-3.79,30.14-8.75,40.29-7.39,15.09-18.24,25.75-32.34,32.03.21-4.33,1.52-11.89,4.95-20.25,7.87-19.2,23.25-43.85,36.14-52.06h0Z"/>
      <path class="cls-15" d="m321.18,362.85c9.62-13.3,27.02-27.73,45.58-35.4,8.29-3.42,17.55-4.85,25.04-5.39-1.04,2.29-2.83,4.09-4.28,6.42-7.99,12.84-21.4,23.48-28.32,27.33-12.36,6.9-26.02,8.52-38.02,7.03h0Z"/>
      <path class="cls-15" d="m344.11,331.72c-4.02-39.72-.2-73.41,13.78-99.33,2.59,14.96,4.73,25.02,3.47,50.58-1.86,22.74-8.19,38.01-17.25,48.75h0Z"/>
      <path class="cls-15" d="m367.87,320.9c24.96-15.81,38.25-43.95,48.47-78.7-9.16,7.62-17.42,11.56-27.68,27.82-13.08,21.95-13.83,32-20.79,50.88h0Z"/>
      <path class="cls-15" d="m388.14,262.42c1.29-14.66,5.82-29.43,12.38-44.44,5.91-13.52,13.91-25.98,22.69-38.06.32,10.96-.36,29.29-6.28,43.41-6.7,16-16.27,29.14-28.78,39.1h0Z"/>
      <path class="cls-15" d="m390.58,233.73c-8.39-13.44-13.43-28.42-16.31-44.53-2.54-14.16-4.27-29.45-3.7-46.87,9.62,12.39,17.22,29.29,20.53,44.2,3.39,15.29,1.88,31.18-.52,47.2h0Z"/>
      <path class="cls-15" d="m403.19,203.03c7.06-12.16,12.28-24.93,13.12-38.91.82-13.6-.95-35.11-5.16-52.05-7.48,13.1-8.16,28.97-10.15,45.55-1.92,15.95-.99,31.38,2.18,45.41h0Z"/>
      <path class="cls-15" d="m399.77,137.88c6.75-28.25,6.29-43.43-5.32-71.39-3.79,12.64-4.79,25.45-3.77,38.39.91,13.12,4.58,23.48,9.09,33h0Z"/>
      <path class="cls-15" d="m388.02,119.81c-.08-10.31-2.36-19.85-6.19-28.88-5.01-11.82-11.65-23.19-24.61-32.67,2.92,17.93,7.03,30.64,11.25,38.72,5.01,9.6,11.29,17.24,19.55,22.83h0Z"/>
      <path class="cls-15" d="m387.27,84.93c-.95-12.97-4.01-22.59-7.04-30.18-4.23-10.59-10.16-21.26-21.96-31.64,1.05,15.74,4.23,28.02,9.35,38.44,5.16,10.49,12.52,18.06,19.64,23.39h0Z"/>
      <path class="cls-15" d="m395.76,165.43c-.58-12.2-3.05-23.6-8.1-33.86-5.61-11.39-12.63-21.76-24.53-27.9,3.75,13.12,2.85,19.48,9.9,34.88,4.76,10.39,11.68,19.66,22.73,26.89h0Z"/>
      <path class="cls-15" d="m368.88,191.07c8.79,13.88,10.9,29.84,11.81,46.12.86,15.34-1.4,31.36-6,47.91-5.82-13.09-9.78-32-10.43-48.58-.63-16.15.94-31.39,4.62-45.45h0Z"/>
      <path class="cls-15" d="m240,389.57c6.07,4.97,11.79,11.39,17.31,18.56l-6.19,6.86c-3.78-7.46-10.1-14.23-17.09-20.82,2.05-1.51,4.03-3.04,5.96-4.6h0Z"/>
      <path class="cls-3" d="m242.07,387.88c7.29,4.79,13.04,12.16,18.62,19.82l-9.75,11.76c-.21.25-.81.27-1,0-5.77-8.35-11.71-16.48-19.23-22.89,1.12-.79,2.23-1.59,3.33-2.39,6.98,6.59,13.3,13.36,17.09,20.82l6.19-6.86c-5.52-7.17-11.23-13.59-17.31-18.56.7-.56,1.39-1.13,2.07-1.69h0Z"/>
      <g class="cls-17">
        <path class="cls-3" d="m281.03,283.91c-.07,53.95-33.89,86.6-66.38,120.19-32.83-18.43-73.41-54.19-73.41-109.59v-28.64l-4.29,3.09c0,6.84,0,13.69-.01,20.53.08,50.12,24.98,89.77,76.06,118.39l7.4,1.53c32.49-25.43,70.93-58.93,70.83-117.71l-.22-132.7-9.68,6.96c-.14,39.32-.26,78.64-.31,117.96h0Z"/>
        <path class="cls-3" d="m84.29,338.91c10.85,8.2,21.48,18.08,26.2,25.21-29.9,7.21-52.87-6.51-71.49-28.75-3.84-4.59-8.48-11.2-10.95-16.64,6.59.8,17.05-1.26,29.89,4.91-20.14-10.08-28.92-28.06-37.95-44.8-7.27-13.48-13.07-31.84-15.03-43.31,5.54,3.11,8.02,5.12,13.16,9.26-5.71-7.36-8.59-12.54-12.26-21.31C-1.54,205.79-.38,183.93,1.07,172.28c1.96,2.61,3.84,4.21,9.98,13.21-1.07-3.73-3.36-9.26-4.16-22.48-.32-5.26-.41-9.55-.14-14.81.3-6.11,1.45-12.07,2.28-18.13,1.12-8.18,3.23-19.36,5.71-26.37,2.02,3.14,2.79,5.84,4.3,9.46-1.25-16.98,3.6-32.42,10.04-47.54,1.06-2.5,2.4-4.88,3.59-7.32,2.16,7.22,3.63,10.49,4.61,18.07,1.49-23.73,19.41-51.36,34.29-60,.02,20.46-3.38,29.53-9.15,43.04,3.3-3.2,8.34-6.13,10.93-7.86-1.95,16.21-4.9,36.89-14.71,50.65.14-.11,6.8-4.5,8.65-5.46-1.76,8.93-1.88,22.03-9.85,37.18l.81.51c1.64,11.65,2.5,29.07-2.28,50.85.42-.76,1.57-2.52,2.54-3.4,1.1,3.61,7.83,27.15,7.01,51.62l1.95-9.4c9.91,18.8,15.34,30.08,17.83,52.24,20.8,14.31,48.84,54.31,48.01,83.29-19.49-1.62-42.74-29.49-45.83-54.7.58,12.68-1.78,28.25-3.17,33.97h0Zm-37.26-58.7c-5.44-18.02-7.04-33.6-4.24-52.36-2.55,5.24-3.71,7.16-5.77,10.09,3.22,10.78,5.13,27.32,4.27,31.5,1.45,3.31,4.71,8.46,5.73,10.77h0Zm5.22,11.84c2.19,5.84,5.18,15.72,9.86,33.2,5.36,2.22,12.08,6.29,19.07,11.36-18.47-23.52-21.37-48.61-19.38-72.98-1.35,11.41-5.59,20.59-9.56,28.42h0Zm-9.9-172.43c-2.42,2.33-4.51,3.31-6.82,4.2-2.38,8.07-6.96,15.55-9.25,19.29.91,7.88,1.38,7.51,1.73,15.41,2.56-19.09,6.47-27.69,14.34-38.91h0Zm-13.72,50.11c.45,13.13.87,18.22-3.21,38.98,1.51,2.79,5,10.33,5.39,11.44-2.1-14.83-1.81-20.96,1.05-35.77,2.01-10.43,4.41-14.59,9.65-24.28-3.25,3.62-8.53,6.79-12.88,9.64h0Zm15.11-85.51c-1.22.9-2.37,1.74-5.17,3.83.43,2.47.6,5.63.5,7.52,0,.04,1-4.46,4.67-11.35h0Z"/>
      </g>
      <path class="cls-15" d="m157,358.49c-23.9.64-47.27,8.15-70.2,21.45-.4.23-.53.45.05.7,13.35,5.98,40.63,10.71,57.35,6.96,10-2.24,19.39-7.58,24.58-14-4.38-4.84-8.3-9.88-11.77-15.11h0Z"/>
      <path class="cls-3" d="m168.77,373.6c-5.19,6.42-14.58,11.76-24.58,14-16.72,3.75-44-.98-57.35-6.96-.58-.26-.44-.47-.05-.7,22.94-13.3,46.3-20.81,70.2-21.45-.57-.86-1.13-1.73-1.68-2.6-22.55-.6-47.76,8.58-74.49,24.94-.22.13-.14.66.09.75,23.9,9.38,50.65,13.68,69.82,7.76,7.82-2.41,17.77-8.48,19.8-13.81-.6-.64-1.19-1.28-1.77-1.93h0Z"/>
      <path class="cls-15" d="m87.65,283.54c-.14,14.58,3.79,30.14,8.75,40.29,7.39,15.09,18.24,25.75,32.34,32.03-.21-4.33-1.52-11.89-4.95-20.25-7.87-19.2-23.25-43.85-36.14-52.06h0Z"/>
      <path class="cls-15" d="m104.53,362.85c-9.62-13.3-27.02-27.73-45.58-35.4-8.29-3.42-17.55-4.85-25.04-5.39,1.04,2.29,2.83,4.09,4.28,6.42,7.99,12.84,21.4,23.48,28.32,27.33,12.36,6.9,26.02,8.52,38.02,7.03h0Z"/>
      <path class="cls-15" d="m81.6,331.72c4.02-39.72.2-73.41-13.78-99.33-2.59,14.96-4.73,25.02-3.47,50.58,1.86,22.74,8.2,38.01,17.25,48.75h0Z"/>
      <path class="cls-15" d="m57.84,320.9c-24.96-15.81-38.25-43.95-48.47-78.7,9.16,7.62,17.42,11.56,27.68,27.82,13.08,21.95,13.83,32,20.79,50.88h0Z"/>
      <path class="cls-15" d="m37.57,262.42c-1.28-14.66-5.82-29.43-12.38-44.44-5.91-13.52-13.91-25.98-22.69-38.06-.32,10.96.36,29.29,6.28,43.41,6.7,16,16.27,29.14,28.78,39.1h0Z"/>
      <path class="cls-15" d="m35.13,233.73c8.39-13.44,13.43-28.42,16.31-44.53,2.54-14.16,4.27-29.45,3.7-46.87-9.62,12.39-17.22,29.29-20.53,44.2-3.39,15.29-1.88,31.18.52,47.2h0Z"/>
      <path class="cls-15" d="m22.52,203.03c-7.06-12.16-12.28-24.93-13.12-38.91-.82-13.6.95-35.11,5.16-52.05,7.48,13.1,8.16,28.97,10.15,45.55,1.93,15.95.99,31.38-2.18,45.41h0Z"/>
      <path class="cls-15" d="m25.94,137.88c-6.75-28.25-6.29-43.43,5.32-71.39,3.79,12.64,4.79,25.45,3.77,38.39-.91,13.12-4.58,23.48-9.09,33h0Z"/>
      <path class="cls-15" d="m37.69,119.81c.08-10.31,2.36-19.85,6.19-28.88,5.01-11.82,11.65-23.19,24.61-32.67-2.93,17.93-7.03,30.64-11.25,38.72-5.01,9.6-11.29,17.24-19.55,22.83h0Z"/>
      <path class="cls-15" d="m38.44,84.93c.94-12.97,4.01-22.59,7.04-30.18,4.23-10.59,10.17-21.26,21.96-31.64-1.06,15.74-4.23,28.02-9.35,38.44-5.16,10.49-12.51,18.06-19.64,23.39h0Z"/>
      <path class="cls-15" d="m29.95,165.43c.58-12.2,3.05-23.6,8.1-33.86,5.6-11.39,12.63-21.76,24.52-27.9-3.75,13.12-2.85,19.48-9.9,34.88-4.76,10.39-11.68,19.66-22.73,26.89h0Z"/>
      <path class="cls-15" d="m56.83,191.07c-8.79,13.88-10.9,29.84-11.81,46.12-.86,15.34,1.4,31.36,6,47.91,5.82-13.09,9.78-32,10.43-48.58.63-16.15-.94-31.39-4.62-45.45h0Z"/>
      <path class="cls-15" d="m185.86,389.68c-6.07,4.97-11.78,11.39-17.31,18.57l6.19,6.86c3.78-7.46,10.1-14.23,17.09-20.83-2.05-1.51-4.04-3.04-5.97-4.6h0Z"/>
      <path class="cls-3" d="m183.79,387.98c-7.3,4.79-13.04,12.16-18.62,19.82l9.75,11.76c.21.25.81.27,1,0,5.77-8.35,11.71-16.48,19.23-22.89-1.12-.79-2.23-1.59-3.33-2.4-6.98,6.59-13.3,13.36-17.09,20.83l-6.19-6.86c5.52-7.18,11.23-13.59,17.31-18.57-.7-.56-1.39-1.12-2.07-1.7h0Z"/>
    </g>
  </g>
</svg>