<?xml version="1.0" encoding="UTF-8"?>
<svg id="Layer_2" data-name="Layer 2" xmlns="http://www.w3.org/2000/svg" xmlns:xlink="http://www.w3.org/1999/xlink" viewBox="0 0 33.56 19.58">
  <defs>
    <style>
      .cls-1 {
        clip-path: url(#clippath);
      }

      .cls-2 {
        fill: none;
      }

      .cls-2, .cls-3, .cls-4, .cls-5, .cls-6, .cls-7 {
        stroke-width: 0px;
      }

      .cls-8 {
        clip-path: url(#clippath-1);
      }

      .cls-9 {
        clip-path: url(#clippath-4);
      }

      .cls-10 {
        clip-path: url(#clippath-3);
      }

      .cls-11 {
        clip-path: url(#clippath-2);
      }

      .cls-12 {
        clip-path: url(#clippath-7);
      }

      .cls-13 {
        clip-path: url(#clippath-8);
      }

      .cls-14 {
        clip-path: url(#clippath-6);
      }

      .cls-15 {
        clip-path: url(#clippath-5);
      }

      .cls-16 {
        clip-path: url(#clippath-9);
      }

      .cls-17 {
        clip-path: url(#clippath-20);
      }

      .cls-18 {
        clip-path: url(#clippath-21);
      }

      .cls-19 {
        clip-path: url(#clippath-24);
      }

      .cls-20 {
        clip-path: url(#clippath-23);
      }

      .cls-21 {
        clip-path: url(#clippath-22);
      }

      .cls-22 {
        clip-path: url(#clippath-25);
      }

      .cls-23 {
        clip-path: url(#clippath-27);
      }

      .cls-24 {
        clip-path: url(#clippath-28);
      }

      .cls-25 {
        clip-path: url(#clippath-26);
      }

      .cls-26 {
        clip-path: url(#clippath-29);
      }

      .cls-27 {
        clip-path: url(#clippath-34);
      }

      .cls-28 {
        clip-path: url(#clippath-35);
      }

      .cls-29 {
        clip-path: url(#clippath-33);
      }

      .cls-30 {
        clip-path: url(#clippath-32);
      }

      .cls-31 {
        clip-path: url(#clippath-30);
      }

      .cls-32 {
        clip-path: url(#clippath-31);
      }

      .cls-33 {
        clip-path: url(#clippath-14);
      }

      .cls-34 {
        clip-path: url(#clippath-13);
      }

      .cls-35 {
        clip-path: url(#clippath-12);
      }

      .cls-36 {
        clip-path: url(#clippath-10);
      }

      .cls-37 {
        clip-path: url(#clippath-15);
      }

      .cls-38 {
        clip-path: url(#clippath-17);
      }

      .cls-39 {
        clip-path: url(#clippath-16);
      }

      .cls-40 {
        clip-path: url(#clippath-19);
      }

      .cls-41 {
        clip-path: url(#clippath-11);
      }

      .cls-42 {
        clip-path: url(#clippath-18);
      }

      .cls-4 {
        fill: #3e8b11;
      }

      .cls-5 {
        fill: #df7a21;
      }

      .cls-6 {
        fill: #cb0423;
      }

      .cls-7 {
        fill: #fff;
      }
    </style>
    <clipPath id="clippath">
      <rect class="cls-2" width="33.56" height="19.58"/>
    </clipPath>
    <clipPath id="clippath-1">
      <rect class="cls-2" width="33.56" height="19.58"/>
    </clipPath>
    <clipPath id="clippath-2">
      <rect class="cls-2" width="33.56" height="19.58"/>
    </clipPath>
    <clipPath id="clippath-3">
      <rect class="cls-2" width="33.56" height="19.58"/>
    </clipPath>
    <clipPath id="clippath-4">
      <rect class="cls-2" width="33.56" height="19.58"/>
    </clipPath>
    <clipPath id="clippath-5">
      <rect class="cls-2" width="33.56" height="19.58"/>
    </clipPath>
    <clipPath id="clippath-6">
      <rect class="cls-2" width="33.56" height="19.58"/>
    </clipPath>
    <clipPath id="clippath-7">
      <rect class="cls-2" width="33.56" height="19.58"/>
    </clipPath>
    <clipPath id="clippath-8">
      <rect class="cls-2" width="33.56" height="19.58"/>
    </clipPath>
    <clipPath id="clippath-9">
      <rect class="cls-2" width="33.56" height="19.58"/>
    </clipPath>
    <clipPath id="clippath-10">
      <rect class="cls-2" width="33.56" height="19.58"/>
    </clipPath>
    <clipPath id="clippath-11">
      <rect class="cls-2" width="33.56" height="19.58"/>
    </clipPath>
    <clipPath id="clippath-12">
      <rect class="cls-2" width="33.56" height="19.58"/>
    </clipPath>
    <clipPath id="clippath-13">
      <rect class="cls-2" width="33.56" height="19.58"/>
    </clipPath>
    <clipPath id="clippath-14">
      <rect class="cls-2" width="33.56" height="19.58"/>
    </clipPath>
    <clipPath id="clippath-15">
      <rect class="cls-2" width="33.56" height="19.58"/>
    </clipPath>
    <clipPath id="clippath-16">
      <rect class="cls-2" width="33.56" height="19.58"/>
    </clipPath>
    <clipPath id="clippath-17">
      <rect class="cls-2" width="33.56" height="19.58"/>
    </clipPath>
    <clipPath id="clippath-18">
      <rect class="cls-2" width="33.56" height="19.58"/>
    </clipPath>
    <clipPath id="clippath-19">
      <rect class="cls-2" width="33.56" height="19.58"/>
    </clipPath>
    <clipPath id="clippath-20">
      <rect class="cls-2" width="33.56" height="19.58"/>
    </clipPath>
    <clipPath id="clippath-21">
      <rect class="cls-2" width="33.56" height="19.58"/>
    </clipPath>
    <clipPath id="clippath-22">
      <rect class="cls-2" width="33.56" height="19.58"/>
    </clipPath>
    <clipPath id="clippath-23">
      <rect class="cls-2" width="33.56" height="19.58"/>
    </clipPath>
    <clipPath id="clippath-24">
      <rect class="cls-2" width="33.56" height="19.58"/>
    </clipPath>
    <clipPath id="clippath-25">
      <rect class="cls-2" width="33.56" height="19.58"/>
    </clipPath>
    <clipPath id="clippath-26">
      <rect class="cls-2" width="33.56" height="19.58"/>
    </clipPath>
    <clipPath id="clippath-27">
      <rect class="cls-2" width="33.56" height="19.58"/>
    </clipPath>
    <clipPath id="clippath-28">
      <rect class="cls-2" width="33.56" height="19.58"/>
    </clipPath>
    <clipPath id="clippath-29">
      <rect class="cls-2" width="33.56" height="19.58"/>
    </clipPath>
    <clipPath id="clippath-30">
      <rect class="cls-2" width="33.56" height="19.58"/>
    </clipPath>
    <clipPath id="clippath-31">
      <rect class="cls-2" width="33.56" height="19.58"/>
    </clipPath>
    <clipPath id="clippath-32">
      <rect class="cls-2" width="33.56" height="19.58"/>
    </clipPath>
    <clipPath id="clippath-33">
      <rect class="cls-2" width="33.56" height="19.58"/>
    </clipPath>
    <clipPath id="clippath-34">
      <rect class="cls-2" width="33.56" height="19.58"/>
    </clipPath>
    <clipPath id="clippath-35">
      <rect class="cls-2" width="33.56" height="19.58"/>
    </clipPath>
  </defs>
  <g id="Layer_1-2" data-name="Layer 1">
    <g id="ZAMBIA">
      <g>
        <g class="cls-1">
          <rect class="cls-4" width="33.56" height="19.58"/>
        </g>
        <g class="cls-8">
          <rect class="cls-5" x="29.62" y="8.04" width="3.94" height="11.54"/>
        </g>
        <g class="cls-11">
          <rect class="cls-3" x="25.69" y="8.03" width="3.93" height="11.54"/>
        </g>
        <g class="cls-10">
          <rect class="cls-6" x="21.67" y="8.04" width="4.02" height="11.54"/>
        </g>
        <g class="cls-9">
          <g>
            <g class="cls-15">
              <path class="cls-5" d="m30.92,2.87s1.48-.63,1.62-.76c.06.07-.6.87-1.88,1.17,1.16-.28,2.16-1.14,2.35-1.11.06,0,.05.84-2.62,1.56,1.84-.48,2.91-1.37,2.9-1.27.01.02-.19.7-1.79,1.23.45-.1,1.67-.85,1.66-.7.04.05-1.18,1.62-3.39,1.11,1.76.46,2.9-.65,3.07-.62.03,0-.33.97-2.55,1.03,1.07-.11.76,0,.76,0,0,0-.63.49-1.38.16.6.16.66.17.67.22-.04.07-.53.16-1-.09.38.16.72.18.72.24,0,.02-.25.16-.47.06-.22-.1-2.2-1.32-2.2-1.32l3.38-.93.13.05Z"/>
            </g>
            <g class="cls-14">
              <path class="cls-3" d="m29.79,5.13c-.06,0-.13-.01-.18-.04-.21-.1-2.12-1.27-2.2-1.32-.01,0-.02-.02-.01-.03,0-.02,0-.02.02-.02l3.38-.93.14.05c.49-.22,1.49-.66,1.6-.76,0,0,.02,0,.02,0,0,0,.02,0,.02.01,0,0,.01.04,0,.05-.01.08-.15.26-.39.46.12-.07.22-.13.32-.19.26-.16.44-.27.52-.27.01,0,.05.03.05.05.01.1-.07.32-.39.59.16-.09.29-.18.39-.23.15-.09.2-.12.23-.12,0,0,.03.03.03.04-.02.1-.14.32-.43.55.12-.05.2-.08.24-.08,0,0,.03,0,.04.02v.05c0,.05-.14.24-.4.46.03-.02.04-.02.06-.02.01,0,.04.02.03.04,0,.11-.35.75-1.75.97h0s-.02.05-.06.07c0,0-.32.25-.78.27.06.02.08.04.09.07-.03.07-.16.1-.32.11.03.01.04.03.04.04-.02.05-.17.13-.32.13h0Zm-2.3-1.38c.32.2,1.95,1.2,2.14,1.28.17.08.41-.03.43-.05-.02,0-.11-.02-.2-.03-.19-.02-.36-.08-.51-.17-.02,0-.02-.02-.02-.03.01-.01.02-.02.04-.01.19.08.38.12.5.15.25.03.45-.03.47-.05h0s-.06-.02-.26-.07c-.14-.02-.27-.05-.4-.11-.01,0-.02-.02-.01-.03,0-.02.02-.02.03-.02l.4.11s.09,0,.14,0c.43,0,.76-.22.82-.26h-.05c-.21.02-.44.04-.68.05-.01,0-.03-.01-.03-.03,0-.01,0-.03.02-.03.32-.03.55-.05.68-.05,1.47-.19,1.83-.85,1.84-.94-.01.02-.1.08-.2.14-.11.06-.25.15-.42.23-.22.11-.45.2-.68.26-.57.16-1.16.17-1.74.01-.02,0-.03-.02-.02-.03,0-.02.02-.03.03-.02.59.13,1.17.13,1.72-.01.23-.06.45-.15.67-.26.64-.34.96-.77.97-.81-.07,0-.35.15-.52.23-.23.14-.51.28-.83.4-.11.04-.21.08-.28.1-.02,0-.03,0-.03-.02,0-.01,0-.03.02-.03.1-.03.19-.07.28-.1.21-.09.46-.22.69-.33l.14-.06c.54-.34.67-.64.68-.7-.01.02-.09.07-.18.13-.19.12-.51.3-.93.51-.36.19-.82.38-1.35.54-.13.04-.27.08-.4.11h0s-.03,0-.03-.02c0-.02,0-.03.02-.04.14-.03.27-.07.4-.11.46-.15.91-.32,1.35-.54.83-.45.89-.82.86-.86-.06,0-.25.12-.48.27-.25.15-.56.34-.92.52-.29.15-.6.26-.93.33-.02,0-.03,0-.03-.02s0-.03.02-.03h0c.29-.07.59-.18.92-.33.55-.29.84-.61.92-.74-.31.18-1.52.7-1.57.72l-.15-.04-3.3.91h0Z"/>
            </g>
            <g class="cls-12">
              <path class="cls-5" d="m26.95,6.17c-.3,0-.3.27-.3.27,0,0-.03.02-.01.15.05-.08.08-.11.08-.11.03,0,.17.04.39-.12-.2.21-.08.28-.08.28,0,0-.05.16.1.2-.04-.07-.02-.12-.02-.12,0,0,.21-.02.2-.28,0,.23.14.29.14.29,0,0,0,.13.14.14-.07-.07-.06-.17-.06-.17,0,0,.18-.13.03-.35.09-.05.16-.2.16-.2,0,0-.12-.05-.18-.09-.03-.06,0-.38,0-.38l-.07-.41-.21.64c.01-.09.02.27-.28.27h0Z"/>
            </g>
            <g class="cls-13">
              <path class="cls-3" d="m27.56,6.88h0c-.12-.01-.16-.11-.16-.16-.01,0-.07-.02-.11-.13-.05.11-.15.14-.18.14,0,0,0,.04.03.08,0,0,0,.02,0,.03,0,.01-.02.02-.03.01-.05-.01-.09-.04-.11-.07-.03-.05-.03-.12-.02-.15-.01,0-.03-.02-.03-.07,0-.03,0-.07.02-.11-.1.05-.21.05-.26.05,0,0-.03.03-.06.1,0,0-.02.01-.03.01-.01,0-.02-.01-.02-.02-.02-.12,0-.16.02-.17,0,0,.01-.27.33-.27.2,0,.25-.19.26-.24h0s0-.02,0-.03l.21-.62s.02-.02.03-.02c.01,0,.02,0,.03.02l.07.41c-.01.14-.01.33,0,.37.05.03.17.08.17.08,0,0,.01.01.01.02,0,0,0,.02,0,.02,0,0-.06.12-.15.19.12.21-.03.34-.05.36,0,0,0,.07.05.12,0,0,.02.02,0,.03,0,.01-.01.02-.03.02h0Zm-.27-.48s.03,0,.03.02c.01.21.11.26.11.27.02.02.02.07.05.11-.02-.06-.01-.11-.01-.11.02-.02.17-.13.03-.32,0,0,0-.02,0-.02,0-.01,0-.02.01-.02.06-.03.11-.11.14-.16-.04-.02-.12-.05-.16-.09-.04-.07-.02-.34-.01-.39l-.05-.29-.17.52h0s-.03.3-.31.3c-.27,0-.28.23-.28.24,0,.01-.01.02-.01.05.02-.03.03-.04.03-.04.05,0,.07,0,.09,0,.09,0,.19-.04.29-.13.01-.01.03,0,.04,0,0,.01,0,.03,0,.04-.09.1-.11.16-.11.19,0,.03.02.05.02.05,0,.03,0,.1.02.14,0,0,0,0,.01.02,0-.05.01-.07.01-.07.03-.02.2-.04.2-.26,0-.02,0-.03.02-.04h0Z"/>
            </g>
            <g class="cls-16">
              <path class="cls-5" d="m28.42,5.26s.22.25.43.23c.08-.07-.16-.21-.16-.24.08.08.45.39.67.28.09-.13-.17-.12-.45-.47.2.13.68.42.91.31.1-.11-.51-.43-.71-.69l-.53-.27-.71.58.54.27Z"/>
            </g>
            <g class="cls-36">
              <path class="cls-3" d="m29.24,5.58c-.12,0-.25-.06-.35-.13v.02s-.02.05-.03.05h-.02c-.22,0-.4-.18-.45-.23l-.53-.26s-.01-.01-.01-.02c0,0,0-.02,0-.02l.71-.58.55.27c.09.12.25.24.4.35.2.16.33.25.34.33,0,0-.02.05-.02.05-.22.11-.54-.06-.77-.2.08.07.16.12.21.16.07.05.11.07.12.11,0,.03,0,.05-.02.08-.04.03-.09.03-.13.03h0Zm-.56-.36s.01,0,.02,0c.06.06.44.37.64.27,0-.05-.04-.07-.09-.1-.09-.05-.22-.14-.36-.32-.01-.01-.01-.03,0-.03,0-.01.02-.02.03,0,.1.06.67.41.89.3-.02-.06-.17-.18-.32-.3-.15-.11-.31-.23-.4-.35l-.51-.26-.64.55.49.24c.11.12.27.23.4.23,0-.03-.06-.09-.1-.12-.05-.04-.07-.06-.07-.09,0-.01,0-.02.02-.02,0,0,0,0,0,0h0Z"/>
            </g>
            <g class="cls-41">
              <path class="cls-5" d="m27.61,3.27s.24-.15,1.21-.07c.1.01.65-.19.84-.25.28-.05,1.17-.25,1.41-.43.17-.02-.05.31-.26.39-.23.1-1.06.39-1.35.35.35,0,.16.29-.43.16.28.16.18.18.18.18,0,0-.5.03-.63-.09.33.12.2.17.2.17,0,0-.34.03-.5-.04.24.07.12.12.12.12,0,0-.2.03-.36-.03-.16-.06-.41-.47-.42-.47h0Z"/>
            </g>
            <g class="cls-35">
              <path class="cls-3" d="m28.27,3.8c-.09,0-.17-.01-.24-.03-.13-.05-.3-.29-.39-.42-.02-.03-.03-.05-.04-.06-.01,0-.02,0-.02-.02,0-.02.01-.02.02-.03s.26-.15,1.23-.07h0c.11,0,.5-.14.71-.21l.11-.04c.37-.07,1.19-.26,1.41-.43.07,0,.1.02.11.05.02.1-.16.32-.34.39-.2.09-.81.3-1.18.35.02.02.03.04.02.05,0,.09-.2.17-.49.13.07.05.09.09.08.11,0,.01-.03.04-.04.04,0,0-.22.01-.4,0,.01.01.01.02.01.03,0,.01-.03.05-.04.05-.01,0-.2.02-.33,0h0s-.03.06-.05.08c0,0-.06,0-.13,0h0Zm-.61-.52s.02.02.02.04c.08.11.25.35.36.39.07.02.14.03.22.03.07,0,.12-.01.12-.01.01,0,0-.02-.06-.04-.02,0-.04-.01-.07-.02-.02,0-.02-.02-.02-.03,0-.01.02-.02.03-.01.03,0,.05.01.07.02.06.01.14.02.24.02s.18,0,.18,0c0,0,0-.02-.08-.06-.06-.02-.1-.03-.13-.06-.01,0-.02-.02,0-.03,0-.01.03-.02.03-.01.05.02.1.04.13.05.17.04.45.03.48.03,0,0-.03-.05-.18-.14-.02,0-.02-.02-.02-.03,0-.01.02-.02.03-.02.1.03.2.03.29.03.2,0,.28-.05.28-.09,0-.01-.03-.03-.1-.04-.02,0-.03,0-.05,0-.02,0-.03-.02-.03-.03,0-.01.01-.03.03-.03h0s.04,0,.05,0c.34,0,1.08-.26,1.28-.35.17-.06.32-.27.31-.33-.26.17-1.15.37-1.45.43l-.11.04c-.3.1-.61.21-.72.21-.21-.01-.37-.02-.51-.02-.41,0-.6.05-.66.07h0Z"/>
            </g>
            <g class="cls-34">
              <path class="cls-5" d="m28,5.4l.03.64s-.02.03-.03.05c-.02.02-.46-.07-.4.27,0,.14,0,.17.1.25-.03-.09-.02-.15-.02-.15,0,0,.12.07.25-.13-.09.2-.03.27,0,.28.02.03-.04.2.13.19-.06-.06-.03-.14-.03-.14,0,0,.17-.03.11-.34.06-.06.08,0,.08,0,0,0,.02.19.17.15.07.04-.01.14-.01.14,0,0,.11,0,.14-.09.03-.1.07-.26-.11-.33-.02-.07.07-.07.07-.07,0,0,.11.04.15.1.04.06.03-.15-.12-.18-.17,0-.19-.04-.19-.05s-.03-.47-.04-.59l-.28.02Z"/>
            </g>
            <g class="cls-33">
              <path class="cls-3" d="m28.05,6.81c-.14,0-.15-.12-.15-.18l-.03-.06s-.03-.07-.01-.14c-.06.05-.11.05-.15.05,0,.02,0,.06.02.1,0,.01,0,.02-.02.03,0,0-.02,0-.03,0-.1-.09-.11-.12-.11-.27-.02-.08,0-.15.04-.2.07-.09.2-.09.3-.09h.06s.04-.04.04-.04l-.04-.62.3-.05c.04.15.08.6.08.62,0,0,.02.02.16.03.12.02.16.15.16.2,0,.02-.05.03-.07,0-.02-.03-.1-.07-.14-.08,0,0-.03,0-.03.02.09.03.19.13.11.36-.03.11-.16.11-.17.11,0,0-.02,0-.02-.02,0,0,0-.02,0-.03.01-.02.03-.06.03-.08-.15,0-.18-.13-.19-.19,0,.12-.02.23-.06.3-.04.05-.08.06-.1.07,0,0,0,.06.04.1,0,0,.01.02,0,.03,0,0-.02.02-.03.02h0Zm-.11-.53s0,0,0,0c.02,0,.02.02.02.03-.07.17-.03.23-.02.24.02.03.02.05.02.07,0,.05,0,.09.04.11-.03-.06,0-.11,0-.12.03-.02.06-.02.09-.07.04-.05.05-.14.02-.26.08-.12.13-.04.15-.02,0,.01.02.14.1.14,0,0,.04,0,.05,0,.02.02.03.03.04.05,0,.03,0,.05-.01.07.03-.01.05-.03.06-.06.05-.16.03-.25-.09-.29-.03-.05-.02-.07-.01-.09.03-.03.08-.04.09-.04.01,0,.07.03.12.06,0-.01-.01-.02-.01-.02-.02-.03-.05-.05-.08-.05-.05,0-.21,0-.21-.08,0-.02-.03-.47-.04-.59l-.25.04.06.61s-.02.05-.04.07c0,0-.04.01-.05.01h-.06s-.19,0-.25.07c-.03.03-.04.09-.03.16,0,.09,0,.13.03.16,0-.04,0-.07,0-.07,0-.01,0-.02.02-.02,0,0,.02,0,.03,0,0,0,.1.05.21-.12,0,0,.01-.01.03-.01h0Z"/>
            </g>
            <g class="cls-37">
              <path class="cls-5" d="m28.61,5.94s-.3-.44-.22-.49c.08.02.2.2.3.14-.03-.07-.12-.03-.22-.22-.1-.21-.12-.52-.48-.86.23.36.76.57.78.47.02-.11-.47-.5-.44-.6.09.2.58.63.94.6.02-.09-.29-.25-.38-.41-.23-.15-.84-.69-.86-.81-.22-.33-.36-.43-.43-.47-.02-.03-.03-.06-.04-.07-.14-.33.05-.43.16-.45.09,0,.11,0,.18-.03-.08-.03-.15-.06-.23-.09.1.07.35.01.29.22.11-.04.35-.32-.26-.38-.2-.23-1.02-.36-1.23.64.02.01.03.03.08.07-.26-.12-.96-.22-1.21-.27-.68-.2-1.38-.66-1.45-.61-.09.04.41.5.38.52-.43-.25-.83-.43-1.2-.59-.26-.1-.52-.32-.55-.28-.09.2.41.69.51.75.09.05.85.4.83.41-1.13-.51-1.31-.6-1.37-.66-.1-.02-.35-.35-.41-.33-.04.04.03.55.57.79.09.06,1.16.45,1.14.47,0,.01-1.22-.5-1.27-.52-.24-.1-.53-.42-.58-.38-.05.03.14.38.37.49.12.05.6.29,1.03.45.03,0-.77-.3-1.16-.47-.17-.1-.26-.22-.28-.19-.04.02.07.54,1.3.83.03.02.44-.1.42-.08,0,0-.4.09-.44.09-.03,0-.25.02-.25.03-.01.03.08.22.72.18.08,0,.52-.17.48-.13-.02.02-.6.21-.64.21-.04,0-.25.02-.25.05-.01.03.15.16.5.18.3.02.88-.18.87-.17-.01.02-.56.2-.57.21-.02,0-.22.02-.22.04-.02.03.29.32,1.18.02-.09.12-.52.21-.52.23,0,.02.09.11.25.14.08.02.18.02.28,0,.17-.03.35-.1.58-.31.03.06-.57.37-.54.4.13.12.56-.02.59-.03.03-.02.83-.47.82-.52.02.07-1.03.64-1.02.66.07.11.42,0,.44-.02.01,0,.46-.25.47-.25.01,0-.52.31-.47.36-.03.21.82-.15.89-.18.03-.02-.41.19-.41.29.14.25.6.17.67.12.03-.02-.04.18-.02.16.01,0,.1-.11.14-.18-.01.07-.06.17-.09.29-.03.12-.04.26-.08.4-.01.06.28-.13.24-.58.03.23-.09.67-.06.7.06.05.23-.22.25-.4.05.09.15.28.24.32-.01-.14,0-.13-.04-.27.03-.18.03-.42.03-.7.25.47.34.67.28,1.02.07.03.19-.25.18-.39.1.4.5.46.51.45h0Z"/>
            </g>
            <g class="cls-39">
              <path class="cls-3" d="m28.6,5.96c-.06,0-.36-.07-.48-.36-.02.1-.07.22-.12.27-.02.02-.04.03-.06.03-.01,0-.03-.02-.03-.03.06-.32,0-.5-.23-.93,0,.24-.01.45-.03.61.03.09.03.12.04.19v.07c-.1-.02-.19-.16-.25-.25-.04.16-.16.36-.25.36-.05-.03-.04-.07-.01-.24,0-.02,0-.03,0-.04-.06.11-.13.17-.17.17,0,0-.04-.03-.04-.03.03-.09.04-.17.05-.24.01-.06.02-.12.04-.17,0-.05.02-.1.03-.14-.03.03-.04.05-.05.06-.04-.02-.04-.04-.02-.1,0-.02.02-.07.01-.07-.01.04-.13.07-.27.07-.11,0-.31-.02-.4-.18,0-.05.05-.11.12-.16-.24.09-.53.16-.59.09-.01,0-.02-.03-.02-.05,0-.03.04-.07.1-.12l-.06.03s-.41.11-.47,0c-.01-.02-.02-.02.09-.08-.16.03-.4.05-.48-.02,0-.03.01-.06.09-.11-.03.01-.07.02-.1.03-.1.02-.21.02-.28,0-.15-.03-.27-.13-.27-.17,0-.02.02-.02.13-.06.08-.02.2-.06.28-.09-.22.06-.41.09-.58.09-.3,0-.45-.09-.48-.15,0,0-.01-.03-.01-.04.01-.02.03-.02.15-.03.03,0,.08,0,.09-.01,0,0,.03-.02.12-.05-.13.03-.27.05-.37.05-.33-.02-.5-.12-.54-.18,0-.06.03-.07.23-.1.02,0,.08-.02.15-.04-.51.02-.64-.1-.68-.15-.02-.02-.03-.05-.02-.06.01-.02.11-.04.19-.05-.9-.23-1.18-.59-1.21-.77,0-.04,0-.05.01-.07.05,0,.07.02.11.05.05.04.11.09.2.14,0,0,0,0,0,0-.16-.12-.28-.34-.29-.43,0,0,.01-.05.02-.05.06,0,.12.04.23.13.04.03.09.08.15.12-.2-.2-.25-.41-.26-.47-.01-.04-.02-.11,0-.13.06,0,.13.05.23.15.07.07.16.16.2.17.04.04.14.09.45.24-.17-.15-.54-.55-.45-.73.07-.02.12.02.22.07.1.07.23.14.36.19.34.15.71.32,1.1.55-.02-.02-.03-.03-.04-.05-.2-.22-.29-.34-.28-.39,0,0,.05-.04.05-.04.06,0,.19.07.39.18.28.14.67.33,1.04.44l.1.02c.27.04.76.11,1.02.21.14-.75.59-.83.79-.83s.36.06.45.17c.25.02.4.09.41.2.01.1-.09.2-.15.22-.02-.07-.02-.1-.03-.12,0,0-.02-.01-.03-.02,0,0,0,0,0,0-.05.02-.08.02-.12.02-.02,0-.04,0-.07,0-.02,0-.11.03-.16.1-.04.08-.04.18.02.32,0,.02.02.05.03.07.12.07.27.23.43.47.02.11.6.63.85.8.04.08.14.16.22.23.1.08.19.15.17.21-.03.02-.05.02-.07.02-.19,0-.41-.11-.58-.24.09.1.15.18.13.22,0,.02-.02.04-.07.04-.09,0-.28-.07-.45-.2.07.12.11.24.15.35.02.06.04.13.07.18.06.1.11.13.15.15.03.02.06.03.07.07-.03.04-.04.04-.07.04-.06,0-.12-.05-.17-.09-.03-.03-.06-.05-.09-.06,0,0,.02.07.19.34.05.09.06.11.06.12l-.03.03h0Zm-.5-.5s.02,0,.03.02c.07.33.36.42.46.43-.02-.01-.04-.04-.06-.07-.13-.21-.22-.36-.15-.41.05,0,.09.03.13.06.05.04.1.09.14.09h0s0,0-.03-.02c-.04-.02-.11-.05-.17-.17-.03-.06-.05-.12-.07-.2-.05-.13-.1-.28-.21-.45-.08-.06-.14-.14-.19-.22,0,0,0-.02,0-.03,0,0,.02,0,.03,0,.07.07.14.14.19.22.2.17.43.27.52.27.04-.05-.09-.2-.19-.3-.15-.16-.24-.25-.22-.31,0-.01.01-.02.02-.02.01,0,.02,0,.02.02.1.2.58.61.93.58-.01-.01-.1-.09-.18-.15-.08-.07-.18-.15-.22-.23-.19-.12-.85-.68-.86-.82-.16-.23-.3-.38-.42-.45-.04-.04-.04-.07-.05-.09-.06-.15-.07-.26-.02-.36.05-.1.16-.12.19-.12.03,0,.06,0,.08,0h.04l-.04-.02c-.06-.02-.1-.03-.13-.05-.01,0-.01-.02-.01-.03,0-.01.02-.02.03-.01l.13.04c.07.01.14.02.17.08.02.03.03.07.01.12.02-.04.1-.11.09-.2-.01-.09-.15-.14-.38-.17-.08-.08-.24-.16-.43-.16-.18,0-.62.08-.77.78.02,0,.03.02.07.04.01,0,.02.02,0,.03,0,0-.02.01-.03,0-.22-.11-.79-.2-1.1-.24l-.1-.02c-.39-.11-.77-.3-1.05-.45-.18-.09-.33-.17-.38-.17-.02.04.18.25.26.35.11.12.13.14.12.16-.46-.23-.86-.41-1.23-.57-.13-.05-.26-.14-.37-.2-.07-.04-.14-.09-.16-.09-.08.17.41.66.51.72.05.03.27.13.47.23.23.11.32.15.35.17,0,0,0,0,0,0h0s.02.02.01.02c0,0-.01,0-.02,0v.02s-.21-.1-.37-.17c-.08-.03-.15-.07-.22-.1-.65-.28-.75-.34-.8-.39-.04,0-.12-.09-.21-.17-.06-.07-.15-.15-.17-.15,0,0,0,.09.04.2.05.15.19.4.53.55.01.01.04.03.12.06l.06.02c.11.05.26.1.4.16.58.23.58.23.57.27,0,0-.01,0-.03,0h0s0,0-.01,0c-.08-.02-.29-.11-.94-.38l-.06-.03h0c-.14-.05-.23-.09-.25-.1-.13-.05-.27-.16-.38-.25-.07-.06-.16-.12-.18-.12-.01.03.15.34.37.45l.11.05c.1.05.27.12.44.2l.34.13c.06.03.1.04.12.05,0,0,.01,0,.02,0h0s.02.02.02.02h-.03v.02s-.07-.02-.15-.06l-.06-.02c-.09-.04-.18-.07-.27-.11-.23-.09-.5-.2-.68-.27-.1-.05-.16-.11-.21-.15-.03-.02-.05-.04-.06-.04,0,0,0,.04.04.11.07.13.33.47,1.26.68.05,0,.09-.01.13-.02l.15-.03c.09-.02.12-.03.13-.03,0,0,.02.03.01.04,0,.01-.28.07-.28.07-.05.01-.09.02-.12.02-.03,0-.04,0-.05,0-.07,0-.22.02-.24.03.07.07.21.17.7.14.04,0,.17-.04.27-.07.12-.04.19-.06.21-.06,0,0,.03.03.02.04-.03.03-.63.22-.66.22-.15.02-.22.03-.24.04.01.01.16.12.48.15h0c.27,0,.63-.1.78-.15.13-.04.09-.03.1-.01,0,.01,0,.02,0,.03,0,0-.03.02-.34.13-.11.04-.22.08-.23.09-.01,0-.04,0-.11.02-.04,0-.11.01-.11.02.02.01.15.11.45.11.2,0,.44-.04.71-.13.01,0,.02,0,.03,0,0,0,0,.02,0,.03-.07.09-.28.15-.43.2-.04.02-.09.03-.1.03.01,0,.1.07.24.1.06.01.17.01.26,0,.16-.03.33-.09.57-.31.05.05-.03.11-.31.28-.08.05-.19.12-.2.13.03,0,.08.02.16.02.17,0,.38-.07.4-.08.22-.12.79-.46.82-.51,0-.01,0-.02.02-.02,0,0,.02.01.03.02,0,.05-.09.12-.69.47-.16.09-.32.19-.34.21,0,0,.05.01.11.01.12,0,.29-.05.3-.06l.11-.05c.14-.07.35-.19.36-.2.01,0,.02,0,.03,0,0,0,0,.02,0,.03h0c-.25.15-.45.3-.46.34.01.03.03.05.08.05.17,0,.52-.13.71-.21.08-.04.08-.04.09-.04.01,0,.02,0,.02.02,0,0,0,.02-.01.03-.01,0-.04.02-.08.03-.19.1-.32.2-.32.23.07.13.26.15.36.15.13,0,.24-.03.27-.05.05.02.04.04.03.11,0,0,0,.01,0,.02.02-.04.06-.1.08-.15,0,0,.02-.02.03-.01.01,0,.01.02.01.03,0,.03-.02.08-.03.12-.02.05-.04.11-.05.17-.01.05-.02.11-.03.17-.01.07-.02.15-.05.24.02-.02.16-.15.19-.39,0-.05,0-.11,0-.16h0s0-.03.01-.04c0,0,.02,0,.02,0s0,0,0,0h0c0,.1,0,.15,0,.2,0,.1-.03.21-.04.3-.02.08-.03.17-.02.19.04,0,.19-.22.2-.39,0,0,0-.02.02-.02.01,0,.02,0,.02.01.04.08.15.27.24.31l-.04-.05c0-.06,0-.09-.03-.18.02-.17.03-.39.03-.65v-.06s0-.02.02-.02c.01,0,.02,0,.02,0,.24.46.35.67.28,1.04l.02-.04c.06-.06.12-.25.12-.35,0-.01,0-.02.02-.03h0Z"/>
            </g>
            <g class="cls-38">
              <path class="cls-5" d="m24.53,2.96s-.17.12-.38.11c.05.21.48.05.48.05,0,0-.21.23-.36.27.09.07.46.04.53.01.06-.04.17-.18.17-.18,0,0-.39.45-.44.44,0,.05.41.03.49-.04.09-.08.3-.19.3-.19,0,0-.56.39-.59.39.21.05.64-.07.9-.24-.4.27-.43.32-.64.41.18.04.27.16.89-.1.36-.16.55-.47.55-.47-.22.29-.56.54-.94.78-.02.04.41.23.96-.34l-1.92-.89Z"/>
            </g>
            <g class="cls-42">
              <path class="cls-3" d="m25.69,4.29c-.1,0-.17-.02-.19-.04,0,0-.02-.04-.02-.05.14-.09.27-.18.4-.27-.5.22-.65.17-.8.12-.03,0-.05-.02-.08-.02-.01,0-.02-.01-.02-.02,0,0,0-.02.01-.02.14-.06.2-.1.35-.21,0,0,.01,0,.02-.02-.23.09-.48.14-.64.1-.01,0-.02,0-.02-.02,0-.01.01-.02.02-.02.01,0,.08-.05.16-.11-.14.03-.32.03-.37,0,0,0-.02-.03-.02-.03.03-.02.13-.1.23-.22-.14.03-.4.04-.49-.03.1-.05.22-.17.29-.24-.1.03-.25.05-.35,0-.04-.02-.06-.05-.07-.1.22-.02.38-.14.38-.14.01,0,.02,0,.03,0,.01.01,0,.02,0,.03,0,0-.18.14-.39.12.03,0,.05.02.07.04.12.07.4-.03.4-.03.01,0,.02,0,.03.01,0,0,0,.02,0,.02,0,.01-.22.24-.36.28.08.02.45,0,.51-.03.01,0,.03-.01.04-.03.04-.05.09-.1.13-.15,0-.01.02-.01.03,0,.01,0,.01.02,0,.03,0,0-.06.09-.13.15-.13.14-.28.3-.33.3.07,0,.4-.02.47-.08.09-.08.3-.19.3-.19.02,0,.03,0,.03,0,.01.01,0,.02,0,.02-.32.22-.47.32-.53.37.2.02.57-.09.83-.24.01,0,.02,0,.03,0,0,0,0,.02,0,.03-.12.08-.21.14-.28.19-.13.09-.2.14-.3.19,0,0,.02,0,.02,0,.14.04.29.09.79-.12.12-.06.22-.14.3-.21.09-.08.17-.17.24-.26,0,0,.02-.01.03,0,.01,0,.01.02,0,.03,0,0-.09.14-.26.28-.2.18-.45.35-.69.51.02,0,.05.01.12.02.11.01.42,0,.8-.4,0,0,.02,0,.03,0,0,0,0,.02,0,.03-.31.33-.6.41-.77.41h0Z"/>
            </g>
            <g class="cls-40">
              <path class="cls-5" d="m27.51,4.2s.03.18.18.31c.15.13.16.26.16.26l-.34-.57Z"/>
            </g>
            <g class="cls-17">
              <path class="cls-3" d="m27.85,4.79s-.02,0-.02-.02c0,0-.01-.12-.15-.25-.15-.14-.19-.32-.19-.32,0-.01,0-.02.02-.02.01,0,.03,0,.03.02,0,0,.04.17.18.3.15.14.16.27.16.28,0,.01,0,.02-.02.02t0,0h0Z"/>
            </g>
            <g class="cls-18">
              <path class="cls-5" d="m27.43,3.06s.05.16.2.26c.16.1.39.41.41.47.02.07.11.55.11.6l-.72-1.33Z"/>
            </g>
            <g class="cls-21">
              <path class="cls-3" d="m28.15,4.41h0s-.02-.02-.02-.03c0-.04-.08-.52-.1-.59-.02-.05-.25-.36-.4-.46-.16-.1-.21-.26-.21-.27,0-.01,0-.03.01-.03.01,0,.03,0,.03.02,0,0,.05.15.2.24.16.1.39.43.41.48.02.06.11.55.1.61,0,.01-.01.02-.02.02h0Z"/>
            </g>
            <g class="cls-20">
              <path class="cls-5" d="m26.49,3.3c.01.06-.22.36.1.71-.28.35-.28.39-.28.39,0,0,.16.09.44-.15.47.57.31.84.31.84l-.57-1.79Z"/>
            </g>
            <g class="cls-19">
              <path class="cls-3" d="m27.06,5.12s0,0,0,0c-.01,0-.02-.02-.01-.03,0,0,.14-.27-.31-.82-.26.25-.43.16-.43.16-.02-.05.09-.2.28-.43-.26-.26-.17-.52-.12-.63,0-.02.02-.05.02-.06,0-.01,0-.03.02-.03.02,0,.02,0,.03.02,0,.02,0,.04-.02.08-.05.12-.13.35.11.62-.23.3-.27.39-.28.41h.03c.06,0,.18-.01.37-.17.51.59.36.86.35.87,0,0,0,.01-.02.01h0Z"/>
            </g>
            <g class="cls-22">
              <path class="cls-5" d="m27.02,4.69s-.05-.06.03-.3c.07.09.14.1.18.14.03.03.39.09.41.32l-.62-.16Z"/>
            </g>
            <g class="cls-25">
              <path class="cls-3" d="m27.65,4.88s-.02-.01-.03-.02c-.01-.16-.21-.23-.32-.27-.04-.02-.07-.02-.08-.04-.01,0-.03-.01-.05-.02-.04-.02-.09-.05-.14-.11-.03.2,0,.27,0,.27,0,.01,0,.02,0,.03-.01,0-.03,0-.03,0,0,0-.05-.08.03-.31.08.04.13.07.16.09.02.01.04.02.06.03,0,0,.03.02.06.02.12.04.34.12.36.31,0,.01,0,.02-.02.03h0Z"/>
            </g>
            <g class="cls-23">
              <path class="cls-5" d="m27.44,2.52s-.07-.18-.34.02c.14.01.28.09.34-.02h0Z"/>
            </g>
            <g class="cls-24">
              <path class="cls-3" d="m27.34,2.59h0s-.08,0-.11-.02c-.04,0-.08-.02-.12-.02h-.06s.05-.04.05-.04c.09-.07.18-.1.24-.1.09,0,.14.07.14.1-.03.06-.06.08-.12.08h0Zm-.17-.07s.04,0,.06.01c.04.01.08.02.11.02h0s.06-.01.08-.04h0s-.1-.08-.25.02h0Z"/>
            </g>
            <g class="cls-26">
              <path class="cls-5" d="m29.98,3.21s.79.18,1.05.09c-.33.45-1,.14-1,.14.33.1.34.09.45.19.03.08-.6.04-.81-.07.58.18.59.17.61.24.03.1-.95-.03-1.04-.16.26.2.41.24.55.34-.18.07-.5.15-1.1-.27.79.72,1.5.68,1.61.8-.27.41-1.34-.24-1.83-.57-.49-.32,1.07.8,1.22.77-.07.11-.59.02-.62-.03l.91-1.47Z"/>
            </g>
            <g class="cls-31">
              <path class="cls-3" d="m29.51,4.79h0c-.16,0-.42-.05-.45-.1l.04-.02s.28.09.46.08c.04,0,.07,0,.09-.02-.26-.09-1.13-.72-1.26-.82h0s-.01-.02-.01-.02t.13.03c.45.3,1.53.97,1.79.57-.03,0-.12-.03-.24-.06-.3-.08-.81-.21-1.36-.71-.01,0-.01-.02,0-.03,0,0,.02-.01.03,0,.58.41.89.35,1.08.27-.05,0-.1-.02-.15-.04-.1-.05-.2-.1-.35-.21-.03-.02-.05-.03-.06-.05,0,0,0-.02,0-.03,0,0,.02,0,.03,0,.02.01.03.02.05.03.1.05.33.11.58.13.25.03.36.02.37,0-.01-.03-.01-.04-.3-.13h-.03c-.11-.03-.21-.06-.26-.09-.01,0-.02-.02-.01-.03,0-.01.02-.02.03-.02l.26.09c.22.04.49.04.52.01-.05-.04-.08-.05-.17-.09-.15-.03-.25-.08-.26-.08-.01,0-.01-.02-.01-.03,0,0,.02-.01.03,0l.12.03c.05.02.1.03.13.04.2.04.48.05.68-.16-.31.05-.99-.1-1.01-.11l.02-.04s.79.17,1.04.09c.01,0,.02,0,.03.01,0,0,0,.02,0,.03-.16.22-.4.26-.61.25.02.02.04.03.06.05,0,0,0,.02,0,.02,0,0,0,.02-.01.03-.03.03-.16.03-.31.02.11.04.11.05.13.11,0,0-.02.04-.03.05-.09.03-.54,0-.82-.08.07.05.14.08.2.11.05.02.1.05.15.08-.16.11-.42.17-.83-.05.44.32.83.42,1.08.48.14.04.23.06.27.1-.2.31-.77.1-1.3-.19.3.2.62.4.66.39,0,0,.02,0,.02.01,0,0,0,.02,0,.03-.02.04-.09.06-.21.06h0Z"/>
            </g>
            <g class="cls-32">
              <path class="cls-5" d="m30.18,3.96c-.09.02-.36.02-.4,0h.4Z"/>
            </g>
            <g class="cls-30">
              <path class="cls-3" d="m29.92,4c-.07,0-.12,0-.14,0-.02,0-.02-.01-.02-.02,0-.01.02-.02.03-.02.04,0,.31,0,.4-.01.01,0,.02,0,.03.02,0,.01-.01.02-.02.02-.05,0-.17.01-.27.01h0Z"/>
            </g>
            <g class="cls-29">
              <path class="cls-5" d="m24.3,2.84s.6.32.85.29c-.07.07-.17.09-.17.09.07.03.24.12.5.06-.06.06-.14.14-.14.14,0,0,.22.08.48-.05-.08.1-.12.16-.12.16h.17s-1.57-.69-1.57-.69Z"/>
            </g>
            <g class="cls-27">
              <path class="cls-3" d="m25.87,3.57h-.18s0-.09.05-.15c-.23.08-.41.01-.42,0,0-.02.03-.07.08-.12-.21.03-.35-.04-.42-.07-.01,0-.03-.02-.02-.02,0-.01,0-.02,0-.02,0,0,.05-.02.11-.05-.28-.03-.77-.28-.79-.29,0,0-.01-.02,0-.03,0,0,.02-.01.03,0,0,0,.6.32.84.29,0,0,.02,0,.02.01,0,0,0,.02,0,.03-.04.03-.08.06-.12.07.1.03.24.08.43.03.01,0,.02,0,.02.01,0,0,0,.02,0,.02-.05.05-.11.1-.14.13.02,0,.06,0,.11,0,.08,0,.2-.01.33-.08.01,0,.02,0,.03,0,0,.01,0,.02,0,.03-.08.1-.12.16-.12.17l.16-.02s.02,0,.02.02c0,.01,0,.02-.02.02h0Z"/>
            </g>
            <g class="cls-28">
              <path class="cls-7" d="m16.46,12.73s.07-.03.03-.03c-.02,0-.07.03-.03.03h0Z"/>
            </g>
          </g>
        </g>
      </g>
    </g>
  </g>
</svg>