<?xml version="1.0" encoding="UTF-8"?>
<svg id="Layer_2" data-name="Layer 2" xmlns="http://www.w3.org/2000/svg" viewBox="0 0 220.91 275.47">
  <defs>
    <style>
      .cls-1, .cls-2, .cls-3, .cls-4, .cls-5, .cls-6, .cls-7, .cls-8, .cls-9, .cls-10, .cls-11, .cls-12, .cls-13, .cls-14, .cls-15, .cls-16, .cls-17, .cls-18, .cls-19, .cls-20, .cls-21, .cls-22, .cls-23, .cls-24, .cls-25, .cls-26, .cls-27, .cls-28, .cls-29, .cls-30, .cls-31, .cls-32, .cls-33, .cls-34, .cls-35, .cls-36, .cls-37, .cls-38, .cls-39, .cls-40, .cls-41, .cls-42, .cls-43, .cls-44, .cls-45, .cls-46, .cls-47, .cls-48, .cls-49, .cls-50, .cls-51, .cls-52, .cls-53, .cls-54, .cls-55, .cls-56, .cls-57, .cls-58, .cls-59, .cls-60, .cls-61, .cls-62, .cls-63, .cls-64, .cls-65, .cls-66, .cls-67, .cls-68, .cls-69, .cls-70, .cls-71, .cls-72, .cls-73, .cls-74, .cls-75, .cls-76, .cls-77, .cls-78, .cls-79, .cls-80, .cls-81, .cls-82, .cls-83, .cls-84, .cls-85, .cls-86, .cls-87, .cls-88, .cls-89, .cls-90, .cls-91, .cls-92, .cls-93, .cls-94, .cls-95, .cls-96, .cls-97, .cls-98, .cls-99, .cls-100, .cls-101, .cls-102, .cls-103, .cls-104, .cls-105, .cls-106, .cls-107, .cls-108, .cls-109, .cls-110, .cls-111, .cls-112, .cls-113, .cls-114, .cls-115, .cls-116, .cls-117, .cls-118, .cls-119, .cls-120, .cls-121, .cls-122, .cls-123, .cls-124, .cls-125, .cls-126, .cls-127, .cls-128, .cls-129, .cls-130, .cls-131, .cls-132, .cls-133, .cls-134, .cls-135, .cls-136, .cls-137, .cls-138, .cls-139, .cls-140, .cls-141, .cls-142, .cls-143, .cls-144, .cls-145, .cls-146, .cls-147, .cls-148, .cls-149, .cls-150, .cls-151, .cls-152, .cls-153, .cls-154, .cls-155, .cls-156, .cls-157, .cls-158, .cls-159, .cls-160, .cls-161, .cls-162, .cls-163, .cls-164, .cls-165, .cls-166, .cls-167, .cls-168, .cls-169, .cls-170, .cls-171, .cls-172, .cls-173, .cls-174, .cls-175, .cls-176, .cls-177, .cls-178, .cls-179, .cls-180, .cls-181, .cls-182, .cls-183, .cls-184, .cls-185, .cls-186, .cls-187, .cls-188, .cls-189, .cls-190, .cls-191, .cls-192, .cls-193, .cls-194, .cls-195, .cls-196, .cls-197, .cls-198, .cls-199, .cls-200, .cls-201, .cls-202, .cls-203, .cls-204, .cls-205, .cls-206, .cls-207 {
        stroke-width: 0px;
      }

      .cls-2 {
        fill: #fa1b38;
      }

      .cls-3 {
        fill: #fa1c39;
      }

      .cls-4 {
        fill: #f5223d;
      }

      .cls-5 {
        fill: #f2f2f2;
      }

      .cls-6 {
        fill: #f91c39;
      }

      .cls-7 {
        fill: #f91d3a;
      }

      .cls-8 {
        fill: #f8f8f9;
      }

      .cls-9 {
        fill: #4d090f;
      }

      .cls-10 {
        fill: #4d1c22;
      }

      .cls-11 {
        fill: #4c6867;
      }

      .cls-12 {
        fill: #26191b;
      }

      .cls-13 {
        fill: #26191a;
      }

      .cls-14 {
        fill: #343434;
      }

      .cls-15 {
        fill: #282929;
      }

      .cls-16 {
        fill: #2d2122;
      }

      .cls-17 {
        fill: #360b0f;
      }

      .cls-18 {
        fill: #2c1417;
      }

      .cls-19 {
        fill: #2d0609;
      }

      .cls-20 {
        fill: #291d1e;
      }

      .cls-21 {
        fill: #48070d;
      }

      .cls-22 {
        fill: #2e070b;
      }

      .cls-23 {
        fill: #2c2122;
      }

      .cls-24 {
        fill: #2b2323;
      }

      .cls-25 {
        fill: #281718;
      }

      .cls-26 {
        fill: #28191b;
      }

      .cls-27 {
        fill: #292021;
      }

      .cls-28 {
        fill: #5b5b5b;
      }

      .cls-29 {
        fill: #545354;
      }

      .cls-30 {
        fill: #3d1619;
      }

      .cls-31 {
        fill: #313131;
      }

      .cls-32 {
        fill: #31191c;
      }

      .cls-33 {
        fill: #322627;
      }

      .cls-34 {
        fill: #2e2021;
      }

      .cls-35 {
        fill: #393a3a;
      }

      .cls-36 {
        fill: #1a1a1a;
      }

      .cls-37 {
        fill: #181e1b;
      }

      .cls-38 {
        fill: #18221c;
      }

      .cls-39 {
        fill: #0a0a09;
      }

      .cls-40 {
        fill: #0a0805;
      }

      .cls-41 {
        fill: #191919;
      }

      .cls-42 {
        fill: #1b0b0c;
      }

      .cls-43 {
        fill: #182e23;
      }

      .cls-44 {
        fill: #0e1310;
      }

      .cls-45 {
        fill: #0e0605;
      }

      .cls-46 {
        fill: #3e2224;
      }

      .cls-47 {
        fill: #3e2e2e;
      }

      .cls-48 {
        fill: #3e2729;
      }

      .cls-49 {
        fill: #110809;
      }

      .cls-50 {
        fill: #111112;
      }

      .cls-51 {
        fill: #111413;
      }

      .cls-52 {
        fill: #100a07;
      }

      .cls-53 {
        fill: #110a07;
      }

      .cls-54 {
        fill: #11090a;
      }

      .cls-55 {
        fill: #0e0e0e;
      }

      .cls-56 {
        fill: #1e0b0d;
      }

      .cls-57 {
        fill: #0f0e0c;
      }

      .cls-58 {
        fill: #1c1717;
      }

      .cls-59 {
        fill: #101111;
      }

      .cls-60 {
        fill: #0f0907;
      }

      .cls-61 {
        fill: #0f0b0a;
      }

      .cls-62 {
        fill: #090405;
      }

      .cls-63 {
        fill: #09110d;
      }

      .cls-64 {
        fill: #420a10;
      }

      .cls-65 {
        fill: #0b1817;
      }

      .cls-66 {
        fill: #0d0d0e;
      }

      .cls-67 {
        fill: #0d110f;
      }

      .cls-68 {
        fill: #160d0e;
      }

      .cls-69 {
        fill: #141c18;
      }

      .cls-70 {
        fill: #151f1a;
      }

      .cls-71 {
        fill: #151515;
      }

      .cls-72 {
        fill: #07100b;
      }

      .cls-73 {
        fill: #0d1514;
      }

      .cls-74 {
        fill: #231416;
      }

      .cls-75 {
        fill: #220304;
      }

      .cls-76 {
        fill: #220d0f;
      }

      .cls-77 {
        fill: #212121;
      }

      .cls-78 {
        fill: #24080b;
      }

      .cls-79 {
        fill: #240b0d;
      }

      .cls-80 {
        fill: #212322;
      }

      .cls-81 {
        fill: #202020;
      }

      .cls-82 {
        fill: #240f11;
      }

      .cls-83 {
        fill: #210f10;
      }

      .cls-84 {
        fill: #21080a;
      }

      .cls-85 {
        fill: #1e1f1f;
      }

      .cls-86 {
        fill: #15090a;
      }

      .cls-87 {
        fill: #120405;
      }

      .cls-88 {
        fill: #110404;
      }

      .cls-89 {
        fill: #131314;
      }

      .cls-90 {
        fill: #120907;
      }

      .cls-91 {
        fill: #121111;
      }

      .cls-92 {
        fill: #120806;
      }

      .cls-93 {
        fill: #190b0c;
      }

      .cls-94 {
        fill: #19080a;
      }

      .cls-95 {
        fill: #161616;
      }

      .cls-96 {
        fill: #252525;
      }

      .cls-97 {
        fill: #260609;
      }

      .cls-98 {
        fill: #260b0e;
      }

      .cls-99 {
        fill: #260b0d;
      }

      .cls-100 {
        fill: #242826;
      }

      .cls-101 {
        fill: #130304;
      }

      .cls-102 {
        fill: #121918;
      }

      .cls-103 {
        fill: #d31931;
      }

      .cls-104 {
        fill: #cbcbcb;
      }

      .cls-105 {
        fill: #e11b35;
      }

      .cls-106 {
        fill: #e11833;
      }

      .cls-107 {
        fill: #e11732;
      }

      .cls-108 {
        fill: #d0d0d0;
      }

      .cls-109 {
        fill: #e31b35;
      }

      .cls-110 {
        fill: #e0e0e0;
      }

      .cls-111 {
        fill: #da1a33;
      }

      .cls-112 {
        fill: #e51b35;
      }

      .cls-113 {
        fill: #e41f39;
      }

      .cls-114 {
        fill: #d81a33;
      }

      .cls-115 {
        fill: #d4d4d5;
      }

      .cls-116 {
        fill: #dc1933;
      }

      .cls-117 {
        fill: #a9aaaa;
      }

      .cls-118 {
        fill: #331e1f;
      }

      .cls-119 {
        fill: #c1c1c1;
      }

      .cls-120 {
        fill: #321416;
      }

      .cls-121 {
        fill: #333434;
      }

      .cls-122 {
        fill: #323233;
      }

      .cls-123 {
        fill: #32191b;
      }

      .cls-124 {
        fill: #301a1c;
      }

      .cls-125 {
        fill: #fdfdfd;
      }

      .cls-126 {
        fill: #f01b38;
      }

      .cls-127 {
        fill: #ef1d39;
      }

      .cls-128 {
        fill: #ef1e3a;
      }

      .cls-129 {
        fill: #f21c38;
      }

      .cls-130 {
        fill: #f41c38;
      }

      .cls-131 {
        fill: #f41c39;
      }

      .cls-132 {
        fill: #f1f1f1;
      }

      .cls-133 {
        fill: #f01d39;
      }

      .cls-134 {
        fill: #e61b36;
      }

      .cls-135 {
        fill: #ed1d38;
      }

      .cls-136 {
        fill: #f81a38;
      }

      .cls-137 {
        fill: #e71b36;
      }

      .cls-138 {
        fill: #e71c36;
      }

      .cls-139 {
        fill: #ec1a36;
      }

      .cls-140 {
        fill: #e3e3e3;
      }

      .cls-141 {
        fill: #ec1b37;
      }

      .cls-142 {
        fill: #f31b38;
      }

      .cls-143 {
        fill: #faf9f9;
      }

      .cls-144 {
        fill: #ee1c38;
      }

      .cls-145 {
        fill: #ee1d39;
      }

      .cls-146 {
        fill: #fafafa;
      }

      .cls-147 {
        fill: #fd1e3c;
      }

      .cls-148 {
        fill: #fbfbfb;
      }

      .cls-149 {
        fill: #fefefe;
      }

      .cls-150 {
        fill: #eaebeb;
      }

      .cls-151 {
        fill: #ebebeb;
      }

      .cls-152 {
        fill: #ef1b37;
      }

      .cls-153 {
        fill: #f0f0f1;
      }

      .cls-154 {
        fill: #f41a38;
      }

      .cls-155 {
        fill: #fcfcfc;
      }

      .cls-156 {
        fill: #f61b39;
      }

      .cls-157 {
        fill: #eb1b36;
      }

      .cls-158 {
        fill: #ea1a35;
      }

      .cls-159 {
        fill: #e6e6e6;
      }

      .cls-160 {
        fill: #f81b39;
      }

      .cls-161 {
        fill: #f81c3a;
      }

      .cls-162 {
        fill: #f4f4f5;
      }

      .cls-163 {
        fill: #00210f;
      }

      .cls-164 {
        fill: #040505;
      }

      .cls-165 {
        fill: #040403;
      }

      .cls-166 {
        fill: #040605;
      }

      .cls-167 {
        fill: #010f08;
      }

      .cls-168 {
        fill: #010101;
      }

      .cls-169 {
        fill: #004823;
      }

      .cls-170 {
        fill: #050000;
      }

      .cls-171 {
        fill: #00612d;
      }

      .cls-172 {
        fill: #00602e;
      }

      .cls-173 {
        fill: #00602d;
      }

      .cls-174 {
        fill: #006b32;
      }

      .cls-175 {
        fill: #00642f;
      }

      .cls-176 {
        fill: #006430;
      }

      .cls-177 {
        fill: #006731;
      }

      .cls-178 {
        fill: #006730;
      }

      .cls-179 {
        fill: #006d34;
      }

      .cls-180 {
        fill: #006d33;
      }

      .cls-181 {
        fill: #00632f;
      }

      .cls-182 {
        fill: #005f2d;
      }

      .cls-183 {
        fill: #006932;
      }

      .cls-184 {
        fill: #006930;
      }

      .cls-185 {
        fill: #006931;
      }

      .cls-186 {
        fill: #00652f;
      }

      .cls-187 {
        fill: #005f2c;
      }

      .cls-188 {
        fill: #006530;
      }

      .cls-189 {
        fill: #006831;
      }

      .cls-190 {
        fill: #006830;
      }

      .cls-191 {
        fill: #006c34;
      }

      .cls-192 {
        fill: #006e34;
      }

      .cls-193 {
        fill: #006a33;
      }

      .cls-194 {
        fill: #006c32;
      }

      .cls-195 {
        fill: #006f35;
      }

      .cls-196 {
        fill: #006f34;
      }

      .cls-197 {
        fill: #006c33;
      }

      .cls-198 {
        fill: #006a32;
      }

      .cls-199 {
        fill: #006b33;
      }

      .cls-200 {
        fill: #000b05;
      }

      .cls-201 {
        fill: #000e07;
      }

      .cls-202 {
        fill: #000703;
      }

      .cls-203 {
        fill: #00180c;
      }

      .cls-204 {
        fill: #000c06;
      }

      .cls-205 {
        fill: #020202;
      }

      .cls-206 {
        fill: #007136;
      }

      .cls-207 {
        fill: #007236;
      }
    </style>
  </defs>
  <g id="Layer_1-2" data-name="Layer 1">
    <g>
      <path class="cls-1" d="m.14,80.48c0-24.14,0-48.28,0-72.43,0-6.64,6.01-10.28,11.38-6.42,6.18,4.44,12.67,8.28,19.39,11.74,16.3,8.41,32.93,10.71,50.84,4.44,7.98-2.8,15.32-6.75,22.89-10.17,7.3-3.3,12.28.23,17.4,3.16,16.82,9.62,34.12,14.09,53.28,7.97,11.93-3.81,22.92-9.27,32.91-16.77,2.63-1.97,5.69-2.68,8.4-1.22,2.63,1.43,4.3,3.67,4.28,7.5-.22,45.29-.11,90.57-.18,135.86-.01,9.03-2.87,17.61-4.72,26.35-3,14.18-9.05,26.96-16.69,39.28-10.57,17.02-24.13,30.89-40.05,42.87-11.68,8.79-24.6,15.1-37.95,20.65-10.9,4.53-21.21,1.29-31.36-3.21-8.01-3.55-15.76-7.66-23.03-12.42-6.33-4.14-11.81-9.61-17.52-14.65-9.22-8.14-16.85-17.83-23.63-27.89-7.82-11.62-15.35-23.59-19.45-37.38-2.01-6.77-3.34-13.76-5.98-20.37-.53-1.32-.31-2.96-.31-4.46-.02-24.14-.01-48.28-.01-72.42.04,0,.07,0,.11,0Z"/>
      <path class="cls-106" d="m97.95,268.92c-9.6-1.83-17.18-7.52-25.17-12.63-4.74-3.03-8.6-6.9-12.85-10.39-1.07-1.53-2.38-2.81-3.95-3.82-3.02-2.54-6.55-4.58-8.11-8.51-1.32-1.78-3.07-3.11-4.78-4.46-6.5-6.34-11.82-13.69-16.71-21.22-9.69-14.9-16.67-31.03-19.23-48.81.71-2.04.2-4.15.35-6.22,0-3.5,0-6.99,0-10.49.01-6.18.01-6.2,6.43-6.2,19.13-.01,38.27,0,57.4,0,11.94,0,23.87.08,35.81-.17l-.04-.02c1.49,3.91.31,7.89.31,11.83,0,20.59-.42,41.2.13,61.78.47,17.77.17,35.52.36,53.28.09,8.15-.31,8.37-8.45,6.19-.49-.13-.99-.11-1.48-.12Z"/>
      <path class="cls-149" d="m81.9,90.22c-3.82-2.88-7.84-.7-11.78-.45-1.63.1-3.9,1.65-4.41-1.19-.55-3.08,1.91-2.74,3.91-2.78,1.59-.03,3.36.29,4.32-1.55.49-.45-.25,0,.27-.41,4.22-3.45,5.79-5.92,7.64-12.1,1.41-3.12,4.57-4.06,7.13-5.75,1.01-3.85.95-7.69,0-11.52-1.6-1.61-3.88-.68-5.69-1.49-2.14-.92-3.06-2.8-3.8-4.81-.17-.41-.3-.84-.41-1.27-.35-1.61-.43-3.34-1.83-4.53-.34-.26-.66-.54-.98-.82-.85-.73-1.75-1.35-2.79-1.78-3.06-.74-6.71.71-9.11-2.47-.86-1.6-.68-3.39-.93-5.1-1.54-2.95-4.3-1.36-6.51-1.65-1.75-.23-3.57-.2-5.33.22-.35.23-.68.5-.95.82-.95,2.11-.19,4.42-.79,6.56-.14.45-.35.86-.63,1.24-1.27,1.08-2.88,1.36-4.38,1.91-1.57.51-3.25.83-4.28,2.33-.72,1.05-1.43,2.12-2.77,2.49-2.51,2.92-4.37,6.84-9.4,5.72-1.13-.25-1.59.79-1.96,1.81-3.21,8.76.39,17.67,8.74,21.83,1.13.56,2.2,1.6,2.85,2.69,1.87,3.14,4.37,5.19,8.02,5.86,2.65.49,3.59,2.1,2.54,5.03-1.73-.89-3.54-1.59-5.1-2.66-3.68-2.52-6.51-1.22-9.05,1.74-.72.84-1.94,1.35-1.98,2.7,2.57-1.01,1.94,3.01,4.31,2.67,1.9-.27,4.59-2.29,5.63.71.86,2.49-2.92,2.74-3.57,4.8-.22.38-.62.81-.33,1.22.45.61,1.07.23,1.63.07,2.52-.68,4.35-.77,3.79,2.9-.28,1.82.33,3.78.53,5.68.19-.19.29-.28.29-.28.1-.1,0,0-.29.27-1.76-1.38-3.83-.86-5.69-.59-2.21.32-3.76,1.88-4.67,3.97,2.18.77,2.26,4.64,5.56,3.76,1.33-.36,2.61-.16,4.13.55-.98,2.68-3.91,3.35-5.46,5.32-.67.85-2.12,1.72-1.18,2.86.75.91,1.99.37,3.13-.24,1.3-.7,2.64-3.07,4.16-1.39,1.4,1.54-.32,3.41-1.19,4.9-1.99,3.38-4.27,5.6-9.02,5.22-7.94-.63-15.97-.2-23.96-.14-1.99.02-3.4.1-3.4-2.74.09-40.77.06-81.53.06-122.28,2.62-.31,4.41,1.07,6.03,2.4,6.78,5.57,15.02,8.31,22.88,11.64,12.11,5.14,24.99,4.46,37.81,3.74,9.71-.54,18.4-3.86,26.69-8.67,1.67-.97,3.69-1.32,5.55-1.96,1.97-.06,1.45,1.47,1.45,2.47.02,37.69.06,75.37,0,113.06,0,.53-.24.95-.41,1.42-3.39,1.88-7.06.61-10.58.82-4.14.25-8.54-.83-12.4.24-8.79,2.42-12.13-5.06-17.63-8.62-.55-.35-.81-1.28-.13-1.69,1.97-1.18,4.18-.69,6.3-.59,1.7.07,1.92,1.45,2.14,2.81.19,1.17-1.8,3.37,1.01,3.31,2.27-.06,2.46-2.55,2.67-4.23.24-1.91-1.57-3.18-2.37-4.79-.7-1.4-2.66-2.77-1.43-4.36,1.23-1.6,3.33-2.02,5.42-1.16.6.25,1.27.32,1.91.48,1.74-.41,3.65.13,5.48-1.01-1.94.29-3.81,1.65-5.34-.39-1-3.34-3.7-2.09-5.76-1.91-2.8.24-5.54,1.02-8.33,1.47-1.3.21-2.67.36-3.78-.69-.38-.36.76-11.31,1.32-11.65,2.55-1.56,5.2-.93,7.69.06,1.65.65.68,2.31.7,3.53.01.93-.63,2.12.82,2.39,1.39.26,1.41-1.16,1.81-1.95.75-1.44,1.76-2.95.25-4.55-2.01-2.14-4.15-4.98-2.64-7.48,1.53-2.53,5.17-.63,7.84-1.04,1.39.48,2.78,1.3,4.08-.03-.05.04.06-.12.06-.12,0,0-.39.19-.43.22-1.62.91-2.78.31-3.73-1.03Z"/>
      <path class="cls-106" d="m112.32,73.16c-2.01.02-2.31-1.15-2.3-2.89.05-18.08.02-36.17.04-54.25,0-1.23-.44-3.2,1.24-3.31,2.08-.13,3.45,1.67,4.65,3.29,2.63,1.14,5.04,2.79,7.92,3.32,1.67.69,3.35,1.38,5.02,2.07,2.2,2.18,4.77,3.38,7.93,3.09.37.16.74.32,1.12.48,3.13,1.64,6.54,1.36,9.9,1.42,8.02.73,15.88.44,23.98-.54,6.77-.82,12.28-3.77,18.22-6.01,7.71-2.91,15-6.78,21.87-11.39,3.22.55,2.4,3.08,2.4,5.1.03,20.45.04,40.91.01,61.36-.02,18.96.1,37.91-.07,56.87-.62,1.08-1.69.88-2.65.88-10.96.02-21.92.02-32.89,0-1.12,0-2.38.29-3.11-.99-1.05-2.26-.06-4.14,1.15-5.98.25-.4.54-.79.85-1.15,1.8-1.85,2.04-4.45,3.13-6.64.19-.41.42-.8.67-1.17,1.01-1.55,3.03-2.83,1.31-5.08-1.14-1.23-2.31-2.44-2.77-4.12-.63-2.95-.22-5.72,1.46-8.26,3.61-1.74,4.31,1.56,5.87,3.38.67,1.25.74,2.72,1.4,3.98.62,1.14,1.03,2.36,1.45,3.57.59.92,1.13.61,1.65-.09.94-1.62,1.75-3.28,2.55-4.96.81-1.07,1.06-2.12-.07-3.15-.62-.58-1.31-1.07-1.85-1.72-.91-1.72-1.84-3.43-3.24-4.82-1.83-2.04-4.36-3.18-6.36-5,.3-2.28,3.79-4.32.49-6.85-1.04-2.04-2.75-3.38-4.71-4.46-.8-.45-1.67-.7-2.55-.94-1.72-.54-3.07-1.52-3.88-3.17-.56-1.41-.55-2.89-.58-4.37.57-5.9-3.48-8.55-7.77-11.03-.27-.39-.42-.82-.48-1.29-.85-6.16-3.25-11.77-6.19-17.17-.35-.31-.65-.66-.91-1.04-2.31-3.89-4.01-2.35-5.53.63-.13,1.12-.55,2.14-1.02,3.15-.92,2.18-.57,4.35.05,6.52.23.96.32,1.92.25,2.9-.14,1.54-.72,2.95-1.34,4.34-1.73,2.73-1.47,5.78-1.44,8.8-.24,2.94.09,6.45-4.76,4.84-2.24-1.16-3.62-3.17-5.03-5.15-.99-1.43-2.26-2.55-3.84-3.31-1.3-.75-2.69-1.27-4.15-1.6-.89-.25-1.67-.67-2.29-1.36-.78-.86-1.4-1.85-2.03-2.82-1.2-1.85-1.78-.33-2.5.46-1.42,1.62-3.19,2.97-3.87,5.14-1.28,2.14-1.85,4.56-2.76,6.84-.65,1.62-1.57,3.31-3.65,3.67Z"/>
      <path class="cls-149" d="m114.86,207.97c-1.4,1.58-2.8,3.17-4.25,4.81-1.33-1.24-.6-2.82-.6-4.18-.03-22.63.11-45.27-.04-67.9-.03-4.16,1.21-5.4,5.36-5.38,31.45.13,62.91.14,94.37-.08,4.26-.03,4.96,1.47,4.82,5.18-.6,15.83-2.55,31.43-8.09,46.34-2,5.38-5.23,10.25-8.45,15.06-1.3,1.95-2.96,1.14-4.42,1.14-24.13.04-48.27.05-72.4-.1-3.86-.02-6.03,1.25-6.37,5.18l.06-.07Z"/>
      <path class="cls-171" d="m77.06,41.07c.31,0,.58.09.81.29.86,1.88.44,4.26,2.23,5.78l-.11-.06c.03,2.56,1.38,4.6,2.7,6.64.6.98,1,2.03,1,3.2.03,2.24.52,4.41.93,6.6-.01,2.6-1.32,4.83-2.05,7.22-.21.41-.51.73-.89.98-.54.36-1.28.73-1.29,1.38-.09,4.2-2.45,6.93-5.7,9.11-.19.38-.46.69-.79.95-4.24.04-8.47.07-12.71.11-.14.09-.27.19-.42.26-2.01.96-1.08,4.8-3.6,4.54-2.1-.21-.54-3.71-2.47-4.84-2.3-.14-4.69.36-6.78-1.09-.5-1.14-3.64-1.51-1.03-3.55-.94-.18-1.33-.69-1.01-1.64.84-.83,1.96-1.22,2.93-1.86,2.6-1.6,5.26-2.76,8.34-1.27,2.24,1.08,4.11-.19,6.03-1.06,2.58-.14,5.44.65,7.14-2.24.2-.86.27-1.67-1.01-1.05-1.3.63-2.66.86-4.07.93-2.2-.11-3.55,1.01-4.37,2.95-1.92,1.33-3.5.87-4.85-.89-2.37-3.52-4.24-1.39-6.13.54-.27.35-.57.67-.9.96-1.62,1.55-3.74.32-5.52.99-1.16.56-2.37.66-3.61.36-.65-.42-1.31-.85-1.96-1.27-6.3-2.49-5.49-7.33-4.13-12.38.3-1.12.13-2.29.18-3.44.94-1.73,1.87-3.47,2.81-5.2,1.05-1.92,2.5-3.66,2.67-5.97-.22-1.21.25-2.22.85-3.21.78-1.63,2.61-1.91,3.82-2.99,1.66-.21,3.28-.59,4.91-.98.48-.12.97-.17,1.47-.16,3.03.36,6.04.23,9.05-.17,2.48.14,4.95.37,7.44-.09,3.53-.66,6.93-.22,10.07,1.63Z"/>
      <path class="cls-106" d="m111.98,132.92c-2.57-1.21-1.96-3.6-1.97-5.65-.05-13.93.08-27.87-.09-41.8-.05-4.15.39-6.67,5.32-4.34.69.33,1.63.13,2.46.18,3.02.01,6.05-1.07,9.08,0,.81.36,1.4.91,1.56,1.82-2.84,10.36.68,20.39,1.63,30.54.65.71,1.37,1.34,2.05,2.03.63.77.78,1.68.72,2.64-.05.44-.14.88-.26,1.31-.56,1.68-.48,3.38-.08,5.08.08.44.1.87.06,1.31-.04.22-.09.43-.13.65-.47,1.21-.66,2.67-2.39,2.81-1.34,2.57-3.35,3.37-6.28,3.22-3.87-.2-7.78-.44-11.65.19Z"/>
      <path class="cls-125" d="m132.05,119.19c-.08-.99-.15-1.97-.23-2.96-2.1-2.95-1.05-6.36-1.4-9.57-.21-1.97-.81-3.84-1.29-5.75-.19-.53-.32-1.08-.41-1.64-.36-4.5-.17-9.01-.17-13.52.04-3.18,1.65-5.32,4.48-6.55,3.19-1.39,6.07-3.35,9.2-4.86,3.14-.6,4.75.85,4.91,3.89.15,2.64,1.1,5.14,1.1,7.8,0,3.05.61,5.77,3.53,7.63,1.73,1.11,2.33,3.12,2.22,5.23-.16,1.46-.82,2.58-2.2,3.19-1.85.64-3.75,1.11-5.7,1.35-1.56.11-2.78.85-3.69,2.11-.94,1.14-2.01,2.18-2.58,3.58-.81,1.66-.65,3.47-.78,5.24-.05.72-.17,1.42-.35,2.11-.84,4.36-1.42,8.71.12,13.04.15,1.35.17,2.67-1.2,3.49-2.21-.71-5.97,2.12-6.35-2.78.16-1.39-.13-2.85.63-4.15l.06.14c.5-2.34-.47-4.7.11-7.04Z"/>
      <path class="cls-171" d="m111.01,250.07c-.04-1.32-.09-2.65-.13-3.97,1.41-1.17,3.1-.99,4.75-.99,12.24-.02,24.49-.06,36.73.05,1.69.02,4.23-1.04,4.64,2.12-5.91,4.62-11.56,9.67-19,11.84-4.25,2.53-8.39,5.26-13.08,6.94-1.76,1.27-3.57,2.43-5.89,2.22-.67-.02-1.27.24-1.89.43-4.58,1.4-4.93,1.04-5.25-3.69-.34-4.98,1.11-10.07-.87-14.95Z"/>
      <path class="cls-171" d="m167.85,233.13c.25-.1.5-.14.77-.13.82-.54,1.62-.53,2.4.08.1.61-.05,1.16-.44,1.65-3.55,5.04-8.24,6.76-14.48,6.5-11.74-.49-23.52-.17-35.29-.12-2.88.01-4.94-.59-4.86-3.99.66-1.87,1.28-3.77,2.97-5.03,1.76-1.62,3.16-3.41,2.97-5.99.69-2.81,1.55-5.55,3.16-8,2.19-1.54,4.69-.94,7.07-.95,5.11-.03,5.11.04,4,5.09-.78,2.31-1.45,4.66-2.38,6.91-.74,1.8-.8,3.17,1.21,4.04,10.97.67,21.94.76,32.91-.06Z"/>
      <path class="cls-155" d="m137.81,64.92c1.61,1.39,1.92,3.84,3.97,4.87.97,1.09,1.32,2.31.85,3.72-1.84,2.17-4.38,3.28-6.88,4.4-2.37,1.07-4.76,1.62-6.25-1.41-1.06-2.17-2.91-1.62-4.66-1.41-1.69.03-3.35-.8-5.06-.12-.61.18-1.23.25-1.86.18-1.95.18-2.25,3.63-4.43,2.67-1.77-.78-1.79-2.84-1.17-4.66,4.11-2.47,2.31-8.04,5.73-10.87,1.68-1.85,2.92-4.11,5.13-5.46,2.13-.04,3.35,1.53,4.8,2.69.14,1.25,1.14.7,1.8.85,1.16.83,2.37,1.57,3.63,2.23,1.58.56,2.86,1.68,4.39,2.33Z"/>
      <path class="cls-173" d="m111.85,215.93c.58-2.81,3.66-4.68,3.01-7.95,0,0-.06.07-.06.07,1.04-.29,2.09-.58,3.13-.88,6.56-.72,13.15-.78,19.74-1.03,2.51-.1,4.21.73,4.13,3.63-.08,2.91-2.05,2.82-4.16,2.86-4.52.09-9.05.18-13.55.64-.73.95-1.45,1.89-2.18,2.84-1.12,1.54-1.57,3.43-2.6,5.02-.94,1.13-1.68,2.34-1.58,3.89-.72,1.81-1.29,3.71-2.79,5.08-.83,1.09-.69,3.1-3.45,2.91.08-5.66-.52-11.36.38-17.09Z"/>
      <path class="cls-173" d="m138.88,228.1c-.05-1.13-.06-2.25,1.02-3,.64-1.34,1.26-2.71,1.71-4.12.98-3.03,3.01-4,6.07-3.91,5.31.15,10.63-.02,15.95.06,4.82.07,5.23.65,3.34,5.25-.52,1.25-.32,2.64-1.07,3.77l.03-.04c-1.18,2.15-3.23,1.98-5.22,1.97-7.28,0-14.55.03-21.83,0Z"/>
      <path class="cls-109" d="m97.95,268.92c.42-.25.86-.73,1.25-.7q7.7.66,7.7-6.96c0-39.6,0-79.21,0-118.81,0-2.16.11-4.32.17-6.48,1.83,1.26,1.51,3.2,1.48,4.98-.86,40.87.24,81.73-.05,122.6-.02,2.59.98,6.31-1.37,7.4-2.87,1.34-6.52.49-9.2-2.02Z"/>
      <path class="cls-152" d="m107.13,135.98c-4.37,1.29-8.85,1.18-13.33,1.18-26.8-.03-53.6.09-80.39-.12-4.47-.04-5.93,1.25-5.52,5.63.36,3.79.07,7.65.07,11.48-.27.43-.55.45-.82,0-.08-5.24-.04-10.49-.28-15.73-.13-2.89,1.04-3.74,3.75-3.51,2.77.23,5.56.15,8.35.21,2.67.89,5.34.89,8.02,0,3.99,0,7.98,0,11.97,0,2.34.87,4.68.87,7.02,0,19.64-.16,39.28-.31,58.92-.49,1.1-.01,1.99.09,2.26,1.35Z"/>
      <path class="cls-4" d="m213.84,132.16c0-39.17,0-78.34,0-117.51,0-2.26.56-4.73-1.93-6.23,2.75-.92,2.98.65,2.96,2.8-.07,6.82-.03,13.64-.03,20.46,0,32.11.02,64.22-.06,96.33,0,1.63,1.08,3.65-.94,4.96-.35-.18-.46-.36-.35-.55.12-.18.23-.27.35-.27Z"/>
      <path class="cls-171" d="m166.95,210.1c0-.68,0-1.35,0-2.03.52-.9,1.25-1.7,2.28-1.75,7.62-.37,15.24-.3,22.86-.04,1.02.03,1.92.58,1.8,1.89-1.07,1.32-2.14,2.63-3.21,3.95-7.03,1.13-14.11.07-21.16.5-1.98.12-1.55-1.86-2.57-2.52Z"/>
      <path class="cls-28" d="m106.96,132.18c-.02-37.31-.02-74.61-.11-111.92,0-1.66,1.02-3.67-.93-5.02.65-.59,1.49-1.18,1.84.05.31,1.08.13,2.3.13,3.46,0,36.07.02,72.15-.01,108.22,0,1.76.62,3.7-.92,5.21Z"/>
      <path class="cls-173" d="m171.91,224.12c.36-2.01.71-4.02,1.07-6.02,2.83-1.84,5.96-.81,8.96-.86,1.92-.03,2.31,1.39,2.18,3.02-1.22,1.15-1.42,3.12-3.14,3.87-1.21.82-2.76,1.31-2.88,3.13-1.89,1.79-2.65,4.58-5.12,5.87-.71.54-1.42.58-2.11-.04h0c-1.52-3.21,2.06-5.82,1.04-8.97Z"/>
      <path class="cls-190" d="m154.45,213.13c-1.37.11-3.51.21-5.63.49-1.68.23-2.55-.47-2.71-2.04-.16-1.57.07-3.28,2.01-3.35,4.62-.17,9.25-.11,13.87-.06,1.86.02,1.93,1.43,1.9,2.83-.04,1.47-.37,2.62-2.24,2.49-2.14-.15-4.28-.22-7.2-.36Z"/>
      <path class="cls-178" d="m165.91,226.15c0-.33-.05-.67-.02-.99q.71-7.06-6.85-7.06c-1.82,0-3.68.23-5.45-.04-6.32-.97-11.29.47-13.68,7.04,1.11-8.4,1.74-8.98,10.08-8.99,5.44,0,10.89.12,16.32-.04,3.43-.11,4.17,1.16,2.72,4.07-1.01,2.02-2.07,4.01-3.11,6.01Z"/>
      <path class="cls-171" d="m51.93,125.29c1.59-.74,3.18-1.47,4.77-2.21,1.76-1.14,2.86.71,4.31.95.33.3.66.59.99.89,1.1,1.23-.32,3.05,1,4.22l.03-.07c-.04,2.25-1.79,1.92-3.16,2.03-1.77.15-3.59-.12-5.32.52-2.24-.08-5.73,2.62-5.68-2.55l-.03.04c.96-1.33,2.04-2.56,3.07-3.83Z"/>
      <path class="cls-91" d="m123.89,74.32c4.03-1.94,7.09-1.91,7.17,4.09,3.79-1.58,7.25-3.02,10.71-4.46.46.39.5.82.13,1.29-2.04,2.49-4.78,3.99-7.77,4.84-2.74.78-4.15,2.36-4.35,5.13-.34.29-.71.33-1.1.1-.6-.69-.68-1.47-.43-2.32-.46-.32-.92-.64-1.38-.96-2.59-1.11-5.52.57-8.05-1.01.02-.29.04-.58.08-.87,1.28-1.41,3.04-1.01,4.64-1.23,1.1-.16,2.59-.03,2.63-1.58.03-1.13-1.48-1.13-2.17-1.8-.23-.25-.32-.52-.28-.8.05-.28.1-.42.17-.42Z"/>
      <path class="cls-184" d="m170.87,233.1c.7.01,1.4.02,2.11.04-2.27,3.15-5.11,5.72-8.16,8.08-16.64.5-33.28.81-49.91-.16-.15-1.44.23-2.75,1.04-3.94,1.13,2.27,2.76,3.1,5.46,3.06,11.8-.19,23.63-.51,35.4.09,6.53.33,10.76-2.05,14.06-7.17Z"/>
      <path class="cls-176" d="m124.08,213.26c-.05-.28-.1-.56-.15-.84.77-.11,1.55-.29,2.32-.3,3.63-.03,7.25-.01,10.88-.02,1.85,0,3.79.16,3.71-2.63-.07-2.46-1.8-2.44-3.48-2.35-6.06.32-12.17-.8-18.2.67-.34.08-.82-.41-1.24-.63,7.26-1.92,14.7-1.98,22.1-1.86,3.95.06,2.59,3.56,2.68,5.79.1,2.59-1.5,2.78-3.71,2.34-1.93-.38-3.97-.19-5.96-.26-2.44.66-4.88.65-7.31,0-.55.03-1.1.06-1.65.09Z"/>
      <path class="cls-196" d="m193.89,208.18c-2.31-2.07-5.13-1.08-7.64-.98-6.43.26-12.96-1.21-19.3.88-.19-2.71,1.66-2.82,3.59-2.82,7.43,0,14.86-.02,22.3.03.99,0,2.55-.64,2.66,1.21.05.9-.84,1.32-1.6,1.68Z"/>
      <path class="cls-175" d="m111.01,250.07c1.67-.7,1.94.13,1.92,1.59-.06,4.27.05,8.55-.05,12.82-.07,3.06-.02,5.64,4.09,3.1.86-.53,1.55-.1,2.04.68-.86,1.42-2.43,1.55-3.76,2.16-3.28,1.51-4.51.52-4.4-3.03.17-5.77.11-11.55.15-17.33Z"/>
      <path class="cls-5" d="m123.89,75.03c1.36,1,4.44-1.54,4.47,2.03.03,3.64-2.77,2.9-5.01,2.93-1.48.02-2.96.11-4.44.16-3.2-1.11-1.48-3.18-.99-5.02.32-.32.64-.64.97-.95,1.63.51,3.49-.32,5.01.84Z"/>
      <path class="cls-132" d="m44.48,108.88c2.03-.94,3-2.21,2.34-4.7-.65-2.44.27-4.28,3.24-4.24,3.29.04,1.97,2.61,1.91,4.04-.09,2.35,1.46,5.57-.78,6.88-2,1.17-3.97-2.72-6.71-1.99,0,0,0,.01,0,.01Z"/>
      <path class="cls-177" d="m138.88,228.1c4.13-1.95,8.52-.61,12.77-1,4.75-.43,9.63.95,14.28-.99-.05,1.53-.05,3.04-2.25,3.03-7.91-.06-15.82-.06-23.73-.15-.36,0-.72-.58-1.07-.9Z"/>
      <path class="cls-169" d="m111.01,245.14c.76-1.18,1.98-1.02,3.12-1.02,14.56,0,29.12-.02,43.69.04.7,0,2.74-1.06,1.93,1.26-.21.61-1.15,0-1.7-.31-6.57,1-13.19.43-19.78.4-9.08-.04-18.18.59-27.26-.38Z"/>
      <path class="cls-170" d="m114.91,241.05c16.64.05,33.28.1,49.91.16-.87,1.01-2.06.88-3.21.88-14.36,0-28.72,0-43.08,0-1.29,0-2.68.26-3.62-1.03Z"/>
      <path class="cls-6" d="m213.84,132.16c0,.27,0,.55,0,.82-14.66-.02-29.32-.03-43.98-.05-.33-.32-.46-.72-.4-1.17.25-.66.74-1.04,1.41-1.21.41-.06.83-.08,1.25-.07,1.35.34,2.56-1.47,3.97-.27.4,2.76,2.54,1.92,4.15,1.92,11.2.04,22.41.02,33.61.03Z"/>
      <path class="cls-174" d="m111.01,245.14c15.68,0,31.36-.02,47.04-.03-.03.88-.2,1.69-1.06,2.16-1.35-1.8-3.32-1.15-5.04-1.15-13.69-.05-27.38-.02-41.07-.02-.04-.33,0-.65.14-.96Z"/>
      <path class="cls-103" d="m28.02,64.61c0-3.02-.06-6.05.02-9.07.04-1.71,1.28-2.19,2.74-1.98,1.22.17,2.48.86,1.76,2.25-1.49,2.86-1.14,6.38-3.13,9.02-.46-.07-.92-.15-1.38-.22Z"/>
      <path class="cls-51" d="m80.99,71.29c.27-.08.55-.15.82-.22.66.08.74.66.98,1.11-.11.47-.38.97-.29,1.4,1.35,6.94-2.12,9.98-8.55,10.66-.02-.36-.03-.72-.05-1.08-.02-.32,0-.64.05-.96,4.88-2,5.88-6.51,7.04-10.91Z"/>
      <path class="cls-188" d="m136.12,222.24c.15-3.31-1.12-4.82-4.69-4.2-2.07.36-4.25.06-6.38.05,1.71-1.54,11.63-3.15,12.73-1.69,1.74,2.29-.78,3.95-1.67,5.83Z"/>
      <path class="cls-188" d="m184.12,220.27c-.89-2.75-3.19-2.13-5.2-2.15-1.98-.03-3.96-.01-5.93-.01.02-1.51.95-1.97,2.28-1.97.83,0,1.66-.02,2.49-.02,3.09,0,6.18,0,9.43,0-.38,2.28-1.91,3.07-3.06,4.16Z"/>
      <path class="cls-3" d="m169.83,131.99c.01.32.03.63.04.95-9.96.06-19.91.11-29.87.17-.94-.99-.95-2.03-.14-3.1,8.82,1.15,17.68.79,26.53.52.54-.06,1.09-.05,1.63,0,.86.16,1.43.69,1.81,1.45Z"/>
      <path class="cls-178" d="m167.85,233.13c-1.5,1.6-3.45.92-5.2.93-7.66.07-15.32.06-22.98,0-1.6-.01-3.37.56-4.72-.88,10.97-.02,21.94-.04,32.91-.06Z"/>
      <path class="cls-193" d="m55.95,100.27c3.42-.86,4.89.25,4.19,3.92-.27,1.43-.15,2.97.01,4.43.47,4.05-1.36,4.11-4.22,2.55-.76-3.64-.78-7.27.01-10.9Z"/>
      <path class="cls-183" d="m166.95,210.1c7.62,4.1,15.85,1.05,23.74,2.03-.46,1.28-1.31,1.76-2.69,1.55-5.94-.9-11.92-.58-17.86-.24-2.96.17-3.57-.84-3.18-3.33Z"/>
      <path class="cls-183" d="m33.97,58.21c2.42,2.33-.07,4.67-.15,6.98-.09,2.95-1.18,5.86,3.08,6.75.46.1.68,1.36,1.02,2.09-6.87-3.07-7.74-6.57-3.95-15.81Z"/>
      <path class="cls-179" d="m111.85,215.93v16.09c2.08.71,1.88-1.63,3.07-1.92.07,2.59-1.04,4.62-3.73,7.23-.2-7.8-1.56-14.6.66-21.4Z"/>
      <path class="cls-172" d="m54.94,131.15c2.26-2.4,5.86.44,8.1-2.07,2.25.21,4.93-1.9,6.64,1.26,1.59,2.93-.92,1.44-1.81,1.7-2.63-.64-5.26-.66-7.89,0-.69.02-1.39.03-2.08.05-.8-.89-2.18,0-2.97-.95Z"/>
      <path class="cls-185" d="m45.93,77.29c1.58,1.24.89,3.41,2,4.85-3.67-1.12-6.77-2.91-8.05-6.84,1.02-.37,2.04-.73,3.07-1.1.38.17.72.41,1.03.7.69.77,1.58,1.37,1.96,2.39Z"/>
      <path class="cls-130" d="m111.98,132.92c2.97-1.61,6.16-.53,9.25-.72,3.2-.2,6.89.85,7.68-3.94.01-.09.33-.2.33-.2.23.37.45.75.67,1.13.33.18.46.39.39.62-.07.25-.16.37-.25.37-.24,1.98-.86,3.24-3.36,3.08-4.89-.3-9.81-.25-14.71-.35Z"/>
      <path class="cls-178" d="m54.71,83.23c2.31.37,1.85,2.68,2.75,4.15,1.12-1.61.93-4.23,3.73-4.11-.11.31-.14.69-.36.9-1.46,1.46.34,5.36-3.35,4.97-3.71-.4-2.01-3.84-2.77-5.91Z"/>
      <path class="cls-188" d="m124.91,266.05c4.27-2.49,8.1-5.79,13.08-6.94-3.6,3.75-7.71,6.53-13.08,6.94Z"/>
      <path class="cls-174" d="m54.94,131.15c1.07.05,2.24-.19,2.97.95-2.79.29-5.58.71-8.38.81-1.23.05-3.01-.13-3.13-1.75-.1-1.24,1.51-1.53,2.5-2.07,1,3.66,4.02,1.42,6.05,2.06Z"/>
      <path class="cls-36" d="m82.01,112.99c2.99.55,5.36-.54,7.27-3.24.62,5.1-2.1,6.61-7.41,4.63.05-.46.09-.93.14-1.39Z"/>
      <path class="cls-188" d="m171.91,224.12c2.46,3.32-1.06,5.94-1.04,8.97-.75-.03-1.5-.06-2.25-.09,1.1-2.96,2.19-5.92,3.29-8.88Z"/>
      <path class="cls-112" d="m147.84,26.37c-3.61,1.7-6.89,1.05-9.9-1.42,3.31.39,6.75-.09,9.9,1.42Z"/>
      <path class="cls-138" d="m123.88,19.32c-3.46.85-5.65-1.33-7.92-3.32,3.07.08,5.7,1.21,7.92,3.32Z"/>
      <path class="cls-105" d="m136.83,24.47c-3.63,1.5-6.08-.02-7.93-3.09,2.64,1.03,5.29,2.06,7.93,3.09Z"/>
      <path class="cls-182" d="m55.95,100.27c0,3.63,0,7.27-.01,10.9-1.53-3.64-1.64-7.27.01-10.9Z"/>
      <path class="cls-172" d="m118.9,221.09c.35-2.05.99-3.94,3-4.99.05,2.53-.91,4.59-2.94,6.13-.32-.24-.44-.48-.35-.74.09-.27.19-.4.29-.4Z"/>
      <path class="cls-198" d="m39.93,47.15c.5,2.54-1.78,4.05-2.33,6.2,0,.04-.31.04-.45-.01-.14-.06-.24-.21-.36-.33-.07-2.25,1.35-3.92,2.24-5.8.27-.48.57-.48.9-.06Z"/>
      <path class="cls-15" d="m40.16,100.3c-1.06,1.33-2.77,2.97-3.91,1.28-1.14-1.7,1.44-1.92,2.6-2.57.44.43.87.86,1.31,1.29Z"/>
      <path class="cls-191" d="m121.89,226.1c1.21,3.09-.37,4.8-2.97,5.99.99-2,1.98-4,2.97-5.99Z"/>
      <path class="cls-31" d="m87.23,91.37c-1.85,2.01-3.63,2.29-5.31-.2-.12-.31-.13-.63-.02-.95,1.36.94,2.66.56,3.95-.17.74.15,1.21.57,1.38,1.31Z"/>
      <path class="cls-99" d="m118.82,81.03c2.64.65,5.54-.75,8.05,1.01-3.08.08-6.2.53-9.18-.72.38-.1.75-.19,1.13-.29Z"/>
      <path class="cls-171" d="m59.99,132.05c2.63-1.41,5.26-1.41,7.89,0-2.63,0-5.26,0-7.89,0Z"/>
      <path class="cls-93" d="m140.05,130.22c-.02.96-.03,1.92-.05,2.88-.8-.03-1.6-.05-2.4-.08.08-1.28.16-2.56.24-3.84.35-.32.77-.47,1.24-.46.72.24,1.18.65.97,1.49Z"/>
      <path class="cls-144" d="m43.08,229.11c2.55.46,3.98,2.13,4.78,4.46-2.31-.72-3.94-2.17-4.78-4.46Z"/>
      <path class="cls-129" d="m26.97,135.12c-2.67,1.59-5.34,1.59-8.02,0,2.67-.43,5.34-.39,8.02,0Z"/>
      <path class="cls-129" d="m45.95,135.12c-2.34,1.62-4.68,1.62-7.02,0,2.34,0,4.68,0,7.02,0Z"/>
      <path class="cls-127" d="m55.97,242.08c2.26.3,3.61,1.54,3.95,3.82-2.07-.49-3.08-2.08-3.95-3.82Z"/>
      <path class="cls-175" d="m51.93,125.29c-.15,1.98-1.41,3.07-3.07,3.83-.14-2.21,1.02-3.38,3.07-3.83Z"/>
      <path class="cls-173" d="m125.73,213.18c2.44,0,4.87,0,7.31,0-2.44,1.26-4.87,1.26-7.31,0Z"/>
      <path class="cls-199" d="m61.02,124.04c-1.81,1.37-2.66-1.59-4.31-.95,1.95-2.03,3.15-.6,4.31.95Z"/>
      <path class="cls-43" d="m39.93,47.15c-.3.03-.6.05-.91.06-.4-.36-.8-.73-1.19-1.09.7-.98,1.4-1.96,2.1-2.95.63.1.74.69,1.04,1.1-.35.96-.69,1.91-1.04,2.87Z"/>
      <path class="cls-174" d="m178.1,227.26c-1.13-2.97,1.28-2.67,2.88-3.13-.96,1.04-1.92,2.09-2.88,3.13Z"/>
      <path class="cls-198" d="m118.9,221.09c.02.38.04.76.06,1.14-.41.93-.83,1.85-1.24,2.78-1.36-1.84.18-2.8,1.18-3.92Z"/>
      <path class="cls-42" d="m130.04,130.18c-.05-.33-.09-.66-.14-1,.66-1.03,1.32-2.07,1.97-3.1-.16,1.39.57,2.92-.63,4.15-.4-.02-.8-.04-1.21-.06Z"/>
      <path class="cls-183" d="m63.01,129.15c-1.61-1.1-.93-2.75-1-4.22,2.8.82.31,2.9,1,4.22Z"/>
      <path class="cls-7" d="m7.13,154.15c.27,0,.55,0,.82,0-.21,1.65.61,3.48-.83,4.93,0-1.64,0-3.29,0-4.93Z"/>
      <path class="cls-125" d="m65.05,194.85c.02-1.58-1.02-2.62-1.86-3.77-1.35-1.07-2.01-2.79-3.49-3.74-1.28-.9-2.05-2.39-3.54-3.05-1.39-1.01-3.24-.19-4.64-1.17-1.19-.06-2.38-.11-3.57-.17-1.25-.58-2.6-.43-3.88-.31-2.87.28-4.39-.81-4.39-3.78-.05-1.06.07-2.11.35-3.14.44-1.42,1.21-2.7,1.83-4.04.52-1.07,1.07-2.13,1.77-3.1,2.86-3.87,4.05-8.43,5.33-12.96,1.61-3,2.2-7.23,7.28-6.02.74.17,1.42.49,2.02.96.75.69,1.22,1.53,1.22,2.58-.45,1.92-1.98,3.12-3.09,4.59-3.58,3.03-2.07,5.95.18,8.86,1.18,1.32,1.21,3.23,2.35,4.58,1.69,1.21,3.44.53,5.17.18.81-.16,1.63-.17,2.44-.02,3.48.64,6.08.4,4.87-4.33-.28-1.1.35-2.23.74-3.32.7-1.56.37-3.49,1.72-4.81.77-.34,1.48-.32,2.1.32v-.1c1.81,1.73,2.67,3.98,3.48,6.26.8,1.33.71,2.79.66,4.25-.11,1.45-.53,2.81-1.18,4.11-.2.41-.46.8-.73,1.17-2.15,2.11-3.23,4.67-3.21,7.69-.7,2.74-1.7,5.35-3.21,7.75-1.28,1.39-2.45,2.88-3.6,4.38-1,.63-1.98,1.72-3.09.16Z"/>
      <path class="cls-125" d="m70.84,190.34c1.03-2.75,2.06-5.49,3.09-8.24,1.39-2.66,2.52-5.45,4.05-8.04l-.13.14c2.97-2.57,6.04-.9,9.09-.23,2.02.68,4.05,1.37,6.07,2.05,1.51,1.61,1.25,3.8,1.86,5.7-2.52,1.29-3.08,3.57-3.08,6.13-.72,1.02-1.1,2.25-1.95,3.19-.61,1.69-1.21,3.39-1.82,5.08.27.39.32.79.11,1.22-.77,1.05-1.71,1.96-2.41,3.06-.47.71-.89,1.45-1.27,2.22-.81,1.52-1.35,3.13-1.68,4.81-1.27.15-2.54.29-3.81.44-2.2-1.45-4.75-2.18-7.04-3.44-2.16-1.17-5.2,1.07-6.91-1.8,1.01-.76-.24-1.73.23-2.53,1.05-1.97,1.93-4.03,3.22-5.87.55-1.44,1.49-2.65,2.37-3.89Z"/>
      <path class="cls-153" d="m41.04,175.11c-.03,1.01-.07,2.03-.1,3.04-1.07,1.96-.3,4.48-1.91,6.27-.36.38-.73.77-1.09,1.15.19,1.94-1.1,3.31-1.86,4.89l-.05.39c-.78.87-1.36,1.88-1.96,2.88-.47.61-.86,1.65-1.7,1.38-1.72-.55-1.46-2.21-1.59-3.6.01-.73.17-1.44.37-2.14.9-2.11,2.48-3.89,3.01-6.18.36-.83.98-1.5,1.39-2.3,1.43-1.61,1.27-3.73,1.79-5.63.49-.86,1.2-1.4,2.21-1.49.77.14,1.25.59,1.48,1.33Z"/>
      <path class="cls-140" d="m49.03,148.9c.09-2.05.35-4.17-2.03-5.27-.52-3.1-.26-3.33,4.11-3.62.5.07,1,.19,1.49.32,1.48.77,2.86,1.73,4.25,2.67.33,1.15-.22,2.01-.94,2.81-2.06,1.55-4.04,3.27-6.88,3.09Z"/>
      <path class="cls-55" d="m49.03,148.9c1.81-2.11,3.9-3.57,6.88-3.09.62,1.21-1.12,3.76,2.01,3.54.05.94-.27,1.4-1.26.95-5.21-1.48-5.07,3.24-6.76,5.84-.51.32-.97.26-1.36-.2-.89-1.43-.85-2.99-.7-4.58.13-.8.5-1.48,1.03-2.08l.17-.38Z"/>
      <path class="cls-139" d="m45.11,144.08c-2.64-1.04-2.23-2.45-.5-4.03,3.05-2.78,6.94-2.45,10.31.88-.58.89-1.3.75-2.05.26l.11.03c-3.34-1.02-6.5-1.55-7.87,2.86Z"/>
      <path class="cls-124" d="m73.15,204.03c1.5,1.94,5.13.67,5.82,3.84-4.74-1.24-9.48-2.48-14.22-3.72,2.79-.95,5.59-.65,8.4-.12Z"/>
      <path class="cls-113" d="m87.73,197.55c.1-.48.2-.95.3-1.43,1.75.25,2.4,1.38,1.37,2.7-2.05,2.64-2.98,6.1-5.92,8.08-.83-1.43-.03-2.62.57-3.84.58-.96.95-2.02,1.53-2.98.75-.82,1.31-1.79,2.15-2.53Z"/>
      <path class="cls-159" d="m66.01,153.88c1.58.46,3.17.92,4.75,1.38,1,.9,2.6,1.28,2.67,3.01-1.19,2.28-2.88.79-4.41.6-1.68-.87-3.76-1.25-4.39-3.45.16-.78.61-1.3,1.38-1.54Z"/>
      <path class="cls-84" d="m48.86,149.28c-.02.73-.05,1.46-.07,2.19-1.04,1.84-.68,3.92-1.04,5.89-.18.46-.44.85-.8,1.18-.67.38-1.39.48-2.14.34-.48-.16-.88-.43-1.19-.84.32-3.54,1.37-6.71,4.49-8.82.26-.04.51-.02.75.07Z"/>
      <path class="cls-135" d="m32.11,189.36c-.1.57-.2,1.15-.3,1.72-1.41,1.53-.16,3.52-.89,5.17-3.4-.27-1.85-2.93-1.81-4.42.06-2.12,1.25-4.06,2.73-5.69,1,1,.6,2.11.26,3.22Z"/>
      <path class="cls-137" d="m36.04,176.35c-1.08-4.32,2.03-7.02,3.92-10.2.97.83,1.01,1.93.86,3.08-.08.43-.21.85-.38,1.25-.64,1.36-1.33,2.69-2.26,3.87-.87.5-.61,2.2-2.13,2Z"/>
      <path class="cls-65" d="m39.03,184.42c-.33-2.39.2-4.51,1.91-6.27-.06,2.47.3,4.4,3.62,3.88,1.07-.17,2.61-.62,3.39.92-3,.37-6.17-.36-8.93,1.47Z"/>
      <path class="cls-39" d="m86.95,173.97c-3.03.08-6.06.16-9.09.23.42-1.4.83-2.81,1.25-4.21,1.16-.2,1.6.8,2.29,1.37.3.22.63.39.97.54.87.3,1.87.27,2.6.97.78.15,1.69.07,1.98,1.1Z"/>
      <path class="cls-141" d="m48.11,149.21c-1.77,2.77-3.77,5.43-3.87,8.92,0,.84-.38,1.25-1.25,1.11.51-3.96-.04-8.45,5.12-10.03Z"/>
      <path class="cls-12" d="m68.89,194.12c-.65,2.34-.85,4.95-3.65,5.98-.06-1.75-.13-3.5-.19-5.24,1.13.51,1.86-.16,2.58-.87.46-.38.88-.34,1.26.13Z"/>
      <path class="cls-120" d="m78.9,165.24c-1.64-1.73-2.69-3.75-2.93-6.15,3.24.71,3.66,3.38,4.16,6-.37.36-.78.41-1.22.15Z"/>
      <path class="cls-118" d="m30.92,196.25c-.84-1.92-1.68-3.84.89-5.17.53,1.12-.78,2.74.91,3.45.19.08.82-.89,1.24-1.37.65.78.42,1.57.04,2.36-.72,1.54-1.93,1.03-3.08.72Z"/>
      <path class="cls-13" d="m42.99,159.24c.42-.37.83-.74,1.25-1.11.36.07.72.15,1.09.22.98,1.79.08,3.62.11,5.43-.19.69-.61,1.21-1.21,1.6-.43.16-.87.15-1.31.02-.8-.57-.95-1.44-1.08-2.33.39-1.28.77-2.55,1.16-3.83Z"/>
      <path class="cls-21" d="m78.9,165.24c.41-.05.81-.1,1.22-.15.25.03.49.1.72.2,1.06,2.19.59,4.44.29,6.69-.68-.66-1.35-1.32-2.03-1.99-.07-1.59-.13-3.17-.2-4.75Z"/>
      <path class="cls-9" d="m45.11,144.08c.64-4.41,2.49-5.08,7.87-2.86-1.94.93-5.48-2.12-5.97,2.41-.8-.55-1.25.36-1.9.46Z"/>
      <path class="cls-58" d="m41.83,163.07c.85.43,1.06,1.2,1.12,2.06.74,1.79-.77,2.92-1.29,4.34-.43.58-.94.99-1.73.73,0-1.35.02-2.7.03-4.05,1.23-.66.42-2.56,1.87-3.08Z"/>
      <path class="cls-47" d="m73.18,158.21c-.63-1.13-2.45-1.28-2.41-2.95,2.78-.07,4.22,1.62,5.19,3.94-.73-.15-1.47-.31-2.2-.46l-.49-.05-.09-.48Z"/>
      <path class="cls-34" d="m56.65,150.3c.42-.32.84-.63,1.26-.95,1.69.96,4.47-.19,5.19,2.67-.16.18-.32.37-.49.56-1.97,1.07-3.19-.62-4.68-1.29-.43-.32-.86-.65-1.29-.97Z"/>
      <path class="cls-25" d="m32.11,189.36c-.09-1.07-.18-2.15-.26-3.22.3-.7.59-1.4.89-2.09-.09-.85.35-1.27,1.13-1.43.48.03.89.22,1.23.56-.71,2.2-1.17,4.51-2.98,6.18Z"/>
      <path class="cls-26" d="m36.04,176.35c.61-.78,1.22-1.56,1.83-2.34.57.37.61.81.14,1.3.23,2.31-.42,4.34-1.88,6.13-.84-.86-.69-1.81-.24-2.79.05-.77.1-1.53.14-2.3Z"/>
      <path class="cls-142" d="m81.13,171.99c-.1-2.23-.19-4.46-.29-6.69.28-.34.49-2.13.96-.41.54,1.95.12,4.17.12,6.27.25.24.33.47.24.71-.09.23-.17.35-.26.35-.26-.06-.52-.14-.77-.22Z"/>
      <path class="cls-121" d="m73.15,204.03c-2.8.04-5.6.08-8.4.12-.98-.69-.17-1.07.27-1.52,2.54,1.47,5.59-.03,8.13,1.4Z"/>
      <path class="cls-24" d="m84.84,203.16c-.45,1.25-.9,2.5-1.36,3.74-.31.08-.55.25-.71.53-2.15-2.31.2-3.7,1.11-5.38.63.1.72.67.96,1.11Z"/>
      <path class="cls-117" d="m66.01,153.88c-.39.43-.79.86-1.18,1.28-.3.3-.67.4-1.08.31-.96-.38-1.87-.82-2.11-1.98.11-.73.71-.9,1.27-1.11l-.07-.27s.26-.1.26-.1c1.07.47,2.4.53,2.91,1.86Z"/>
      <path class="cls-161" d="m81.9,172.2c0-.35.01-.7.02-1.05,1.36.11,2.72.22,4.07.33-.34.47-.69.93-1.03,1.4-1.12.25-2.33.86-3.06-.67Z"/>
      <path class="cls-1" d="m59.9,187.19c1.95.58,3.05,1.87,3.29,3.89-1.44-.57-3.26-.7-3.25-2.89-.14-.16-.29-.32-.43-.48.13-.17.26-.35.39-.52Z"/>
      <path class="cls-123" d="m36.08,190.47c-.12-1.91.64-3.48,1.85-4.89,1.31,2.36.71,4-1.85,4.89Z"/>
      <path class="cls-17" d="m51.52,183.12c1.86.13,3.9-.81,5.5.9-.17.46-.5.73-.97.84-1.28-1.18-3.7.61-4.53-1.74Z"/>
      <path class="cls-170" d="m56.05,184.86c.32-.28.65-.56.97-.84,1.41.64,2.4,1.68,2.88,3.17,0,0,.01,0,.01,0-.29.32-.61.59-.98.8-.96-1.04-1.92-2.08-2.88-3.12Z"/>
      <path class="cls-156" d="m95.16,179.15q1.73-.7,1.58,3.02c-1.28-.13-.64-1.69-1.55-2.07-.65-.29-.67-.61-.04-.95Z"/>
      <path class="cls-97" d="m95.16,179.15c-.18.33-.17.64.04.95-.11.54-.21,1.08-.32,1.62-1.9-1.48-1.27-3.79-1.86-5.7,1.54.48,2.23,1.53,2.14,3.13Z"/>
      <path class="cls-27" d="m52.87,141.19c.68-.09,1.37-.17,2.05-.26,1.22.16,2.12.6,1.92,2.07-1.48-.27-3.06-.31-3.98-1.81Z"/>
      <path class="cls-205" d="m35.9,178.65c.08.93.16,1.86.24,2.79-.08.74-.16,1.49-1.05,1.74-.4-.02-.8-.03-1.2-.05-.54-.67-.49-1.29.14-1.88.63-.87,1.25-1.73,1.88-2.6Z"/>
      <path class="cls-170" d="m34,195.53c-.01-.79-.03-1.58-.04-2.36-.25-1.62.84-2.03,2.08-2.31.21,1.95-.82,3.35-2.04,4.67Z"/>
      <path class="cls-76" d="m89.84,191.04c.22-1.33-.54-3.26,1.95-3.19.05,1.49-.15,2.83-1.95,3.19Z"/>
      <path class="cls-131" d="m34.02,181.25c-.05.63-.09,1.25-.14,1.88-.38.31-.77.61-1.15.92-1.06-1.62-.7-2.58,1.29-2.8Z"/>
      <path class="cls-10" d="m58.93,187.99c.33-.27.65-.53.98-.8.01.33.02.67.03,1-.34-.07-.68-.13-1.02-.2Z"/>
      <path class="cls-75" d="m50.04,40.33c-.35-.04-.69-.08-1.04-.12-.52-.4-.57-.85-.15-1.35-.14-.26-.08-.47.17-.63,1.18-2.6-.3-5.49.88-8.09l-.04.03c.66-.47,1.37-.47,2.1-.2.3.39.48.83.52,1.32-.68,4.01,1.96,4.26,4.94,4.97,4.63,1.11,5.18-1.97,6.16-4.94.4-.34.82-.39,1.27-.11.04,1.97.08,3.94.12,5.91,1.14,2.39,3.34,1.43,5.16,1.58,1.77.15,3.57-.18,5.32.37.54.67,1.08,1.33,1.62,2-5.97-2.41-12.22,1.68-18.18-.78-1.28.3-2.54-.26-3.81-.09-1.47,0-2.94-.04-4.41.06-.21.02-.42.05-.62.07Z"/>
      <path class="cls-68" d="m82.92,57.2l-1.08-2.98c-.48-1.21-.69-2.26,1.21-2.08,2.27.57,4.85-.85,6.92,1.04.66,1,.42,1.79-.57,2.39-2.28.1-2.29,1.64-2.32,3.39-.04,2.51.81,5.22-1.22,7.42-2.75-.73-.68-3.58-2.15-4.87-.45-1.4-.1-2.95-.78-4.31Z"/>
      <path class="cls-61" d="m84.03,61.19c1.73,1.27,0,3.78,1.82,5.02.88-.79,1.89-1.07,3.05-.77.8.35,1.41.82,1.11,1.84-2.55,1.41-6.02,1.47-7.2,4.89-.33-.37-.65-.74-.98-1.11-.44-2.92,1.88-5.16,1.97-7.96-.39-.7-.48-1.37.25-1.93Z"/>
      <path class="cls-19" d="m90,67.28l-1.13-1.11c-2.02-3.71-2.3-7.38.2-11,.3-.66.6-1.33.89-1.99,1.27,4.7,1.28,9.4.03,14.1Z"/>
      <path class="cls-102" d="m51.92,30.26c-.68-.03-1.37-.06-2.05-.09,4.63-2.13,9.5-.62,14.26-.87,1.06-.06.84,1.13.73,1.91-.32,0-.64.02-.96.04-.47.33-.98.48-1.55.48-3.45-.68-7.21.85-10.42-1.47Z"/>
      <path class="cls-100" d="m80.1,47.14c-3.58-.83-2.33-3.53-2.23-5.78,2.1,1.4,1.93,3.68,2.23,5.78Z"/>
      <path class="cls-79" d="m75.44,39.08c-2.44.05-4.88.11-7.32.14-1.52.02-3.03.01-3.15-2.09,3.11,2.7,7.31-.49,10.47,1.95Z"/>
      <path class="cls-38" d="m83.05,52.14c-.89.41-1.12,1.2-1.21,2.08-1.19-2.23-3.06-4.29-1.85-7.14,1.02,1.69,2.04,3.38,3.05,5.06Z"/>
      <path class="cls-63" d="m40.96,44.28c-.35-.37-.69-.73-1.04-1.1,0-2.86,2.66-1.95,4.03-2.86.35.21.47.42.36.64-.11.22-.22.33-.33.33-1,.99-2.01,1.99-3.01,2.98Z"/>
      <path class="cls-102" d="m49.9,30.14c-.32,2.69.97,5.56-.88,8.09.37-2.69-1.19-5.59.88-8.09Z"/>
      <path class="cls-95" d="m87.23,91.37c-.46-.44-.92-.88-1.38-1.31.89-.89,1.62-3.04,3.12-1.26.85,1.01-.12,2.38-1.74,2.57Z"/>
      <path class="cls-168" d="m43.97,41.3c0-.33,0-.65-.02-.98,1.63-.49,3.27-.97,4.9-1.46.05.45.1.9.15,1.35-1.4,1.66-3.35.71-5.02,1.08Z"/>
      <path class="cls-143" d="m181.7,117.69v.02c-2.18,2.02-2.28,5.13-3.93,7.43l.07-.07c-2.69,1.32-2.09,5.9-5.99,6.02l.09.03c-1.98-.91-2.31-2.58-2.08-4.51.4-1.92,1.57-3.5,2.39-5.24.27-.37.6-.68.98-.93,1.15-.62,2.09-1.42,2.23-2.86-.1-4.36-4.18-6.05-6.12-9.17-.24-.4-.43-.82-.59-1.25-.44-3.13-2.28-5.41-4.56-7.41-.43-5.04.3-6.29,4.72-6.76,2.55-.27,4.78-.87,6.84-2.45,1.47-1.13,3.27-1.6,5.15-.82.44.22.83.53,1.18.88,1.13,1.45,2.35,2.86,3.09,4.58-.04,1.64-1.56,1.87-2.51,2.65-.71.45-1.28,1.03-1.68,1.79-.26.35-.54.68-.83,1-1.57,2.75-1.38,5.57-.3,8.4,1.03,1.16,2.52,1.8,3.46,3.06,1.02,2.31-1.43,3.63-1.59,5.61Z"/>
      <path class="cls-187" d="m164.08,58.45l-.04.45c.7,1.34,2.34,1.83,2.96,3.24,1.06,2.39,3.5,3.9,4.26,6.43.79,2.63,1.43,5.37-.89,7.7-1.21.69-2.44.31-3.68.1-1.72-.37-3.11-1.28-4.21-2.64-1.06-2.1-2.95-3.24-4.95-4.28-1-1.02-1.79-2.18-2.4-3.47-.97-4.23-2.81-8.15-4.34-12.18-.46-1.14-.79-2.31-.64-3.56.58-2.34.54-4.69.04-7.05.02-.75.19-1.46.48-2.16,1.29-1.46,2.94-1.92,4.81-1.76.5.12.96.32,1.4.6v.39c3.45,2.94,2.03,7.82,4.45,11.17.35,2.09.05,4.41,2.08,5.92.32.31.54.68.67,1.1Z"/>
      <path class="cls-165" d="m181.85,91.26c-1.05-.35-2.1-1.64-3.15-.91-3.81,2.64-7.6,4.64-12.59,4.53-1.96-.04-.93,3.38-1.2,5.23.52.68.74,1.45.67,2.3-1.53,6.27-2.36,12.64-2.73,19.08-.49,1.61-1.3,3.02-2.5,4.21-1.18.88-2.38,1.54-3.76.37-.25-.52-.34-1.07-.28-1.64,2.94-5.95,2.23-12.53,3.11-18.82.61-4.38,1.02-8.79,1.7-13.17.36-.78.93-1.39,1.67-1.83,2.69-1.35,5.72-.24,8.46-1.18,2.61-2.88.58-5.96.39-8.96-.06-1.97-.41-4,1.35-5.51,1.44.51,1.91,2.65,3.85,2.32.54,1.16-.71,1.68-.89,2.59-.13,1.35.7,2.45.89,3.7.19.77.43,1.51,1.12,2.02,1.71.4,3.7,1.69,4.2-1.43.11-.44.31-.83.6-1.17.44-.22.83-.15,1.19.18,3.66,4.2,3.57,4.73-1.18,7-.05.58-.37.95-.93,1.11Z"/>
      <path class="cls-49" d="m141.9,75.24c-.04-.43-.08-.86-.13-1.29,0-1.39,0-2.78,0-4.17,4.54,2.5,4.56-.38,4.3-3.6.41-.37.88-.5,1.42-.41.5.19.87.53,1.11,1.02.68,1.7.51,3.5.58,5.27.05,2.41-.25,4.84.32,7.22.15.44.25.89.34,1.35.34,1.94.31,3.92.28,5.88-.03,2.31,1.11,3.25,3.27,3.3.72.34,1.14.93,1.41,1.65.5,2.08.5,4.16.03,6.25-.31.77-.72,1.43-1.68,1.44-.34-2.29-.8-4.14-3.59-5.09-2.57-.88-2.49-3.89-2.75-6.27-.33-3.1-.86-6.23-.68-9.31.21-3.61-1.68-3.64-4.22-3.24Z"/>
      <path class="cls-188" d="m172.99,74.95c-.09,2.08-.18,4.16-.27,6.24-4.13,3.92-8.97,4.52-14.06,1.78-.13-3.72,2.85-2.94,4.8-2.98,3.01-.06,5.47-.54,6.42-3.83,1.96-3.96,1.11-7.39-1.95-10.4-.94-.93-1.99-1.81-2.08-3.28,5.18-.02,5.7,4.13,6.88,7.69.09,1.59.17,3.19.26,4.78Z"/>
      <path class="cls-52" d="m164.08,58.45c-.39-.09-.79-.17-1.18-.26-1.31-1.75-1.68-3.85-2.16-5.91-2.39-3.66-2.62-8-3.86-12.03,2.46.61,4.02,1.82,3.84,4.71-.16,2.54.99,4.7,2.45,6.78,1.4,1.99,2.67,4.19.92,6.7Z"/>
      <path class="cls-45" d="m151.74,53.2c1.62,4.18,4.02,8.1,4.23,12.74-3.19.5-2.91-2.43-3.82-4.04-.88-1.55-1.04-3.57-3.3-3.93-.43-.17-.78-.44-1.05-.81.44-1.32.87-2.64,1.31-3.96.88-.89,1.76-.7,2.64,0Z"/>
      <path class="cls-53" d="m172.73,70.16c-1.53-3.25-3.56-6.05-6.88-7.69-.6-1.19-1.2-2.38-1.81-3.57,5.3,1.9,9.32,4.79,8.69,11.26Z"/>
      <path class="cls-164" d="m195.02,105.15c.38,2.47-2.07,3.78-2.41,5.96-1.81-.05-1.59-1.52-1.87-2.64.03-2.36.63-4.68.69-7.04.25-.72.74-1.21,1.48-1.44.81.25,1.82.16,2.14,1.24.61,1.31.94,2.62-.02,3.92Z"/>
      <path class="cls-82" d="m180.7,99.13c.11-.89.16-1.82,1.14-2.27,3.14-.58,5.82-.33,6.47,3.59.02,1.14-.46,2.01-1.41,2.62-2.19-.63-1.9-4.46-5.02-3.91-.4.35-.8.34-1.18-.04Z"/>
      <path class="cls-90" d="m151.74,53.2c-.88,0-1.76,0-2.64,0-.13-1.02-.26-2.04-.39-3.05-.47-2.31-.55-4.61.05-6.91.5-.92,1-1.84,1.5-2.76.23-.42.53-.48.9-.18.2.4.14.75-.18,1.05-.05.61-.1,1.21-.15,1.82.08,2.35.04,4.69.03,7.04.29,1,.59,1.99.88,2.99Z"/>
      <path class="cls-154" d="m150.93,40.4c-.23.02-.45.05-.67.08-1.1-3.41,1.95-3.54,3.66-3.99,2.43-.64,2.87,1.43,2.96,3.37-.21.04-.41.09-.61.15-1.89-1.46-3.58-.09-5.34.38Z"/>
      <path class="cls-83" d="m127.98,59.52c-1.6-.73-3.2-1.46-4.8-2.18-.5.37-.97.33-1.39-.13.57-1.26,1.15-2.52,1.87-4.1,2.41,1.77,2.53,4.69,4.32,6.41Z"/>
      <path class="cls-145" d="m181.85,91.26c.31-.37.62-.74.93-1.11,3.12.4,5.28,2.25,7.02,4.71-.15.18-.31.35-.46.53-3.44.25-5.64-1.73-7.56-4.21l.07.08Z"/>
      <path class="cls-54" d="m177.77,125.14c.31-3,.18-6.24,3.92-7.43-1.08,2.6-.46,6.09-3.92,7.43Z"/>
      <path class="cls-101" d="m171.85,131.09c2.84-1.16,2.01-5.99,5.99-6.02.79,2.18-2.54,2.96-1.76,5.14-1.54-.34-2.16,3.76-4.23.88Z"/>
      <path class="cls-41" d="m192.9,99.99c-.28.4-.57.81-.85,1.21-2.44-.69-3.69-2.5-4.44-4.76.37-1.1,1.59-.67,2.25-1.25,0,0-.06-.32-.06-.32,1.81,1.24,3.41,2.61,3.1,5.13Z"/>
      <path class="cls-1" d="m147.8,57.17c.4.02.8.04,1.2.07,1.02,1.49.17,2.86-.23,4.27-.68,1.54-.52,3.44-1.9,4.7-.26-.01-.52-.02-.79-.02-.57-3.22-.96-6.41,1.72-9.01Z"/>
      <path class="cls-60" d="m183.96,83.15c-.41.03-.82.05-1.23.08-2.62.11-3.69-1.6-4.39-3.75.03-.48.2-.91.52-1.27,2.4.92,4.56,2.09,5.1,4.94Z"/>
      <path class="cls-133" d="m180.7,99.13c.39.01.78.03,1.18.04-.24,2.99-1.48,5.86-1.02,8.93-.61.34-1.12.22-1.5-.37-.47-2.89-1.35-5.82.82-8.46.13-.22.3-.27.52-.15Z"/>
      <path class="cls-20" d="m181.7,117.69c-1.48-2.18,2.31-3.34,1.06-5.47.14-.56.51-.85,1.08-.89,3.68,3.59-.95,4.4-2.13,6.36Z"/>
      <path class="cls-56" d="m183.84,111.33c-.36.3-.72.59-1.08.89-1.29-.78-2.59-1.56-3.88-2.33-.68-1.13-.6-1.84.96-1.72.34-.02.68-.05,1.02-.07.99,1.08,1.99,2.15,2.98,3.23Z"/>
      <path class="cls-1" d="m186.9,103.07c.26-.63.52-1.26.78-1.89,2.07.62,2.26,2.26,2.21,4.04-.32,1.06-.47,2.29-2.09,1.99-1.7-1.08-.33-2.81-.89-4.14Z"/>
      <path class="cls-23" d="m121.79,57.21c.46.04.93.08,1.39.13-1.82,1.53-2.37,4.38-5.13,4.95-.25-2.8,1.88-3.83,3.74-5.08Z"/>
      <path class="cls-77" d="m191.92,108.35c.22.92-.25,2.02.69,2.76-1.13,1.81-2.25,2.75-3.38,0,.07-.45.19-.89.38-1.3.58-.79.58-2.49,2.3-1.46Z"/>
      <path class="cls-62" d="m137.81,64.92c-1.99.38-3.34-.99-4.91-1.77-.25-.87-.04-1.3.95-.97,1.73.32,3.15,1.09,3.96,2.74Z"/>
      <path class="cls-16" d="m133.85,62.18c-.32.32-.63.64-.95.97-1.27-.67-2.97-.85-3.12-2.78,1.85-.49,2.84.92,4.07,1.81Z"/>
      <path class="cls-136" d="m195.02,105.15c0-1.31.02-2.61.02-3.92,1.54,1.32,3.49,2.64-.02,3.92Z"/>
      <path class="cls-114" d="m148.76,43.24c-.02,2.3-.03,4.61-.05,6.91-1.28-2.31-1.32-4.62.05-6.91Z"/>
      <path class="cls-88" d="m189.84,110.22c-.2.3-.41.59-.61.89-.48-1.3-.96-2.6-1.44-3.9.81-.4,1-1.13,1.04-1.94,3.39,1.02,1.27,3.18,1.01,4.94Z"/>
      <path class="cls-40" d="m178.86,78.21c-.02.41-.05.81-.07,1.22-.61.55-1.34.71-2.14.68-.8-.11-1.46-.42-1.8-1.22.66-.54,1.33-1.08,1.99-1.62.67.31,1.34.63,2.01.94Z"/>
      <path class="cls-2" d="m144.5,65.73c-.78-1.52-.79-2.53-.22-3.63.91.95.54,1.95.22,3.63Z"/>
      <path class="cls-168" d="m141.01,186.35c11.12,0,21.76,0,32.4,0,1,0,2,0,3-.02,1.8-.03,3.26.1,3.17,2.63-.08,2.27-1.43,2.25-2.99,2.25-14.65,0-29.29.01-43.94-.02-1.01,0-3.27.05-2.46-1.32,3.43-5.84-1.96-10.9-.91-16.71,1.08-5.96.57-12.3.12-18.42-.32-4.32,1.22-5.72,5.26-5.53,9.11.43,18.28-.93,27.36.92,1.98.4,2.01.25,4.1-2.9-9.86,0-19.44,0-29.03,0-2.28,0-4.6.61-4.64-3.22-.04-3.89,2.45-2.77,4.35-2.78,12.48-.05,24.97-.06,37.45.01,1.52,0,3.62-.96,4.46,1.05.89,2.13-.61,3.79-1.96,5.28-.54.6-1.22,1.09-1.9,1.53-3.16,2.04-3.41,4.13.2,5.72,7.1,3.13,8.52,8.88,6.72,15.48-1.6,5.87-7.03,8.4-12.08,10.6-7.2,3.14-15.02,2.34-22.64,2.6-2.14.07-4.36-.29-6.03,2.84Z"/>
      <path class="cls-201" d="m46.87,47.07c.3-.12.6-.23.88-.38,1.19-.6,2.61-2.51,3.64-.78.92,1.53-.61,2.84-2.34,3.36-.43.13-.77.53-1.15.8-.89,2.7-1.9,5.4.03,8.09,1.73,2.76-.7,2.08-1.85,2.06-1.85-.03-3.22-.98-2.91-3.03.41-2.7,1.09-5.36,1.66-8.04-.14-1.5.58-2.15,2.04-2.08Z"/>
      <path class="cls-200" d="m56.9,71.41c.89,2.69,2.44,2.2,4.15.85.55-1.34,1.31-2.42,2.98-2.31,1.17.47,1.99,1.26,2.21,2.55-.36,1.25-1.19,1.29-2.21.86-2.4,1.63-4.8,2.51-7.75,1.14-2.71-1.27-5.01.57-7.37,1.59-.33-.31-.53-.68-.63-1.12.05-.67.17-1.3.72-1.77l-.03.04c2.18-2.6,4.59-4.2,7.91-1.84Z"/>
      <path class="cls-204" d="m72.97,58.17c-3.37-2.64-6.74-5.29-10.11-7.93.47-.76,1.46-.33,2.02-.9,1.41-.28,2.65.18,3.82.9.94,1.11,2.03,2.09,3.06,3.11.91,1.16,2.34,2.02,2.24,3.78.38,1.06-.11,1.26-1.03,1.04Z"/>
      <path class="cls-200" d="m65.93,72.19c-.67-.62-1.33-1.25-2-1.87.05-.71.71-.78,1.15-1.08,1.24-.24,2.49-.46,3.72-.73,1.09-.24,1.13-2.95,2.84-1.49,1.8,1.53-.04,2.84-.71,4.17-1.5,1.14-2.99,2.37-4.99,1Z"/>
      <path class="cls-181" d="m80.99,71.29c-.08,5.1-.86,9.75-7.04,10.91-.93-.96-.1-1.53.59-1.78,3.38-1.26,4.63-3.69,4.46-7.19-.05-.99-.23-2.92,2-1.94Z"/>
      <path class="cls-189" d="m56.9,71.41c-2.95-.73-5.5.25-7.92,1.84,2.15-4.6,4.7-5.19,7.92-1.84Z"/>
      <path class="cls-180" d="m47.94,58.16c-3.46-2.68-1.87-5.38-.03-8.09,0,2.69.02,5.39.03,8.09Z"/>
      <path class="cls-199" d="m65.93,72.19c1.66-.33,3.33-.67,4.99-1-1.56,2.66-3.09,3.15-6.89,2.18.63-.39,1.26-.78,1.9-1.17Z"/>
      <path class="cls-180" d="m55,39.27c1.41-.1,2.69.31,3.88,1.02-2.94,1.46-5.89,1.41-8.84.04,0,0-.08-.18-.08-.18,1.56-1.02,3.5.2,5.04-.87Z"/>
      <path class="cls-1" d="m48.94,75.16c0,.31-.01.62-.02.93-.63,1.31-1.91.99-2.98,1.19-1.35-.16-2.45-.67-2.97-2.04,1.97-1.51,3.97-.55,5.97-.09Z"/>
      <path class="cls-197" d="m48.94,75.16c-1.99.03-3.98.06-5.97.09,0-.35-.01-.7-.02-1.06,1.69-2.37,4.34,1.16,6.06-.99-.02.65-.05,1.3-.07,1.96Z"/>
      <path class="cls-198" d="m65.08,69.24c-.38.36-.76.72-1.15,1.08-.96.65-1.92,1.3-2.89,1.94-.27-3.15,1.94-3.01,4.03-3.03Z"/>
      <path class="cls-199" d="m84.03,61.19c-.08.64-.17,1.29-.25,1.93-1.34-1.82-1.13-3.86-.86-5.91,1.51,1.01.74,2.66,1.11,3.99Z"/>
      <path class="cls-195" d="m71.76,53.35c-1.82-.24-2.76-1.36-3.06-3.11,1.24.82,3.22.91,3.06,3.11Z"/>
      <path class="cls-163" d="m72.97,58.17c.34-.35.68-.69,1.03-1.04.94,1.04,1.65,2.5.27,3.23-.84.44-1.19-1.21-1.29-2.19Z"/>
      <path class="cls-194" d="m46.87,47.07c-.68.69-1.36,1.39-2.04,2.08-.78-.56-.82-1.26-.23-1.95.67-.78,1.45-1.14,2.27-.13Z"/>
      <path class="cls-202" d="m64.88,49.34c-.67.3-1.34.6-2.02.9-.62-.13-1.74-.18-1.78-.4-.17-1.15.85-.55,1.31-.61.81-.1,1.65.06,2.48.11Z"/>
      <path class="cls-158" d="m128.26,82.99c.23.73.47,1.46.7,2.19-.43,2.06.56,4.05.26,6.1-.57,1.99-.24,4.03-.32,6.04-.02,1.1.09,2.15,1.05,2.89l-.02-.12c-.36,5.02,1.42,10.05-.16,15.06-.86-.16-1.8-.54-1.73-1.45.61-8.28-3.03-16.18-2.14-24.48.25-2.3.43-4.59,2.37-6.23Z"/>
      <path class="cls-48" d="m129.76,115.15c-.46-5.02-1.66-10.06.16-15.06,2.94,5.11.9,10.8,1.91,16.14-.69-.36-1.38-.72-2.07-1.08Z"/>
      <path class="cls-11" d="m132.05,119.19c1.49,2.37,1.32,4.71-.11,7.04-.09-.38-.18-.76-.27-1.14-.35-1.94-.51-3.88.1-5.8l.28-.09Z"/>
      <path class="cls-128" d="m131.77,119.29c-.03,1.93-.07,3.87-.1,5.8-1.16-1.95-1.32-3.89.1-5.8Z"/>
      <path class="cls-134" d="m138.97,108.15c.27-1.66,1.81-2.23,2.8-3.27,2.1-1.76,4.86-1.45,7.26-2.26,1.03-.44,2.1-.42,3.18-.34,1.22.16,2.06.82,2.53,1.95,1.01,3.26-.09,6.76,1.12,10,.25,3.91,1.36,8.14-3.6,10.21-1.87-1.14-1.19-2.9-1-4.47.34-2.81.33-5.63.25-8.45-.05-1.72.72-4.03-1.51-4.8-2.1-.73-4.24.02-6.09,1.35-1.34.96-1.86,2.8-3.59,3.34-1.75-.54-.85-2.18-1.36-3.24Z"/>
      <path class="cls-30" d="m128.7,91.31c.92-2.01-2.35-4.19.26-6.13.28,0,.55,0,.83.03-.2,5-.48,10.01.16,15-1.19-.2-2.14-.62-1.91-2.11.93-2.2-.13-4.59.66-6.79Z"/>
      <path class="cls-166" d="m139.29,129.06c-.48.04-.96.08-1.45.13-2.68-4.44-1.24-8.91-.11-13.38,1.27.77,1.56,2.08,1.88,3.38-.51,3.28.51,6.61-.32,9.88Z"/>
      <path class="cls-72" d="m154.02,103.75c-.73-.26-1.45-.53-2.18-.79-.73-.3-1.23-.73-.95-1.63,1.43-.03,1.99-.94,2.24-2.19.28-.32.55-.64.83-.97.46-.29.9-.27,1.34.05,1.1,1.17,1.56,2.57,1.47,4.17-.18,1.08-.6,1.97-1.8,2.23-.62.03-.94-.26-.96-.88Z"/>
      <path class="cls-46" d="m148.87,103.23c-2.36.55-4.73,1.1-7.09,1.65-.13-2.35,2.03-1.72,3.16-2.42,1.24.64,2.8-.35,3.94.78Z"/>
      <path class="cls-59" d="m138.97,108.15c1.37.64.63,2.01,1.04,2.98.89,1.36.26,2.34-.79,3.23-.49.22-.94.15-1.36-.19-.07-2.09-.47-4.23,1.11-6.02Z"/>
      <path class="cls-73" d="m148.87,103.23c-1.3-.31-2.8.36-3.94-.78,1.99-.37,3.98-.75,5.97-1.12.32.54.63,1.08.95,1.63-.99.09-1.98.18-2.97.27Z"/>
      <path class="cls-170" d="m137.87,114.17c.33,0,.67,0,1,0,1.39,1.8,1.66,3.5-.43,4.99-.24-1.12-.47-2.24-.71-3.36.05-.55.09-1.1.14-1.64Z"/>
      <path class="cls-66" d="m123.89,75.03c-1.69-.17-3.62,1.09-5.01-.84,1.71-1.5,3.38-1.58,5.01.13,0,.24,0,.47,0,.71Z"/>
      <path class="cls-33" d="m170.78,126.14c.12,1.72-.76,3.67,1.15,4.98-.7.29-1.41.58-2.11.87-.37-.26-.74-.53-1.11-.79-1.27-1.64-1.25-3.49-.89-5.39.23-.78.62-1.43,1.36-1.82,1.58-.06,1.11,1.39,1.59,2.15Z"/>
      <path class="cls-106" d="m169.77,124.17c-.35.35-.71.7-1.06,1.05-.95,1.88.35,4.08-.83,5.92-6.77,2.2-13.73.55-20.59.96-2.51.15-5.39.9-7.23-1.88-.26-.39-.51-.78-.77-1.16-1.58-3.19-1.18-6.54-.85-9.89.14-1.66.29-3.33.43-4.99.38-1.02.76-2.03,1.15-3.05,1.69-5.59,6.41-5.98,11.07-6.44,2.26-.23,1.75,1.55,1.76,2.72.06,5.62.37,11.27-.95,16.82.6.84.33,1.86.57,2.78.12.38.24.74.43,1.08,3.49,1.73,5.08-.86,6.88-2.97.64-1,1.28-1.99,1.92-2.99,2.25-4.35.69-9.3,2.17-13.8.65-1.97,0-4.28,1.56-6.02,3.88-.21,2.5,4.01,4.51,5.38l-.02-.06c-.32,2.52,2.1,3.02,3.32,4.37,1.33,1.47,2.47,2.96,2.96,4.89-.42,1.57-1.13,2.98-2.31,4.12-.34.1-.69.2-1.03.31-.98,1-1.29,2.75-3.1,2.85Z"/>
      <path class="cls-111" d="m167.87,131.15c.28-1.97-.71-4.13.83-5.92,0,1.99.01,3.98.02,5.97-.29-.01-.57-.03-.86-.05Z"/>
      <path class="cls-182" d="m57.48,110.33c-.67-3.4-.95-5.97.65-8.46.62,2.58,1.66,5.18-.65,8.46Z"/>
      <path class="cls-70" d="m73.03,164.24c-.32.87-.97,1.77-.9,2.61.51,6.41.14,6.76-6.12,5.34-.62-.14-1.29-.01-1.94-.01-2.08.67-4.15.7-6.22-.02-1.73-1.25-.5-3.65-1.94-5.02.21-.75.67-1.22,1.47-1.29,2.54,3.14,5.82,3.22,9.58,2.98,3.53-.23,2.46-4.67,5.46-4.92.2.11.4.22.61.33Z"/>
      <path class="cls-85" d="m43.99,164.98c.25-.25.5-.51.75-.76.84-1.91.58-4.21,2.12-5.87.04-.43.08-.87.11-1.3.53-.46.81-1.39,1.81-.95.37.01.74.02,1.11.04-1.39,4.68-1.58,9.89-5.89,13.27-3.02-1.47-.23-2.95,0-4.43Z"/>
      <path class="cls-37" d="m56.94,166.17c-.34.32-.69.65-1.03.97-4.16-3.89-4.13-7.56.09-9.98.95-.21,1.3.38,1.52,1.15-.37,2.61.22,5.28-.58,7.86Z"/>
      <path class="cls-69" d="m56.95,158.15c-.32-.33-.63-.66-.95-.98.76-1.49,1.58-2.94,2.98-3.94.95-.83,1.89-.83,2.82.05.75.61,1.49,1.22,2.24,1.82-.16.7-.6,1.15-1.24,1.44-1.8.03-3.19,1.07-4.65,1.92-.45.11-.85,0-1.19-.31Z"/>
      <path class="cls-96" d="m77.99,174.06c.13,3.43-1.14,6.15-4.05,8.04-.17-3.44.85-6.29,4.05-8.04Z"/>
      <path class="cls-44" d="m73.18,158.21c.12.26.31.44.57.53-.29,1.83,1.42,3.91-.72,5.5,0,0-.13-.14-.13-.14-1.11-2.07-4.12-2.62-4.36-5.4.13-.18.25-.36.38-.55,1.43-.53,2.82,1.3,4.26.06Z"/>
      <path class="cls-115" d="m43.99,164.98c.58,1.47-1.67,2.96,0,4.43.38,1.35-.38,2.27-1.2,3.17-2.06-.37-1.36-2.17-1.75-3.4-.32-1.79,1.4-2.63,1.89-4.04.35-.05.69-.1,1.04-.15Z"/>
      <path class="cls-155" d="m41.06,169.17c.58,1.13,1.17,2.26,1.75,3.4-.59.85-1.18,1.69-1.77,2.54-.38-.36-.76-.72-1.14-1.08-.93-1.33-.68-2.64.1-3.93,0,0-.07.09-.07.09.38-.34.75-.68,1.13-1.02Z"/>
      <path class="cls-122" d="m68.89,194.12c-.42-.04-.84-.09-1.26-.13.05-2.11,1.48-3.01,3.21-3.64-.25,1.47-.54,2.91-1.95,3.77Z"/>
      <path class="cls-80" d="m57.85,172.17c2.07,0,4.15.01,6.22.02-2.08,1.23-4.15,1.3-6.22-.02Z"/>
      <path class="cls-150" d="m61.79,153.27c-.94-.02-1.88-.03-2.82-.05-.34-.65-.69-1.3-1.03-1.94,1.66.37,3.31.74,4.97,1.11-.37.3-.75.59-1.12.89Z"/>
      <path class="cls-167" d="m87.73,197.55c-.06,1.24-.75,2.03-1.81,2.56-.34.36-.67.35-1.01,0,.59-1.24.95-2.73,2.81-2.56Z"/>
      <path class="cls-1" d="m84.91,200.11c.34,0,.67,0,1.01,0-.36,1.01-.72,2.03-1.08,3.04-.32-.37-.64-.74-.96-1.11.34-.65.69-1.29,1.03-1.94Z"/>
      <path class="cls-78" d="m40,170.1c-.03,1.31-.07,2.62-.1,3.93-.63.42-1.26.85-1.89,1.27-.05-.43-.1-.86-.14-1.3.54-1.4.58-3.06,2.13-3.9Z"/>
      <path class="cls-104" d="m48.78,156.1c-.69.15-.85,1.31-1.81.95-.19-2.12.09-4.09,1.82-5.58,0,1.55,0,3.09,0,4.64Z"/>
      <path class="cls-67" d="m62.91,156.12c.37-.34.74-.68,1.11-1.03.27.03.53.05.8.06,1.36,1,2.73,1.99,4.09,2.99,0,0-.03.03-.03.03-1.73,1.37-3.44,1-5.15-.04-.63-.52-1.13-1.11-.83-2.01Z"/>
      <path class="cls-119" d="m46.86,158.34c-.32,2.1-.29,4.32-2.12,5.87-1.66-2.14.24-3.92.58-5.86.51,0,1.03,0,1.54,0Z"/>
      <path class="cls-107" d="m62.89,31.01c.33.08.67.17,1,.25-.32,2.22,1.47,5.54-1.88,6.25-3.36.71-7.15.26-10.21-1.35-1.59-.83-1.41-3.41.13-5.1,3.65-.56,7.3-.46,10.96-.05Z"/>
      <path class="cls-79" d="m62.89,31.01c-3.65.02-7.31.04-10.96.05,0-.27,0-.53-.02-.8,3.65.32,7.41-.95,10.97.75Z"/>
      <path class="cls-102" d="m55,39.27c-1.49,1.39-3.33.76-5.04.87,1.46-1.58,3.32-.8,5.04-.87Z"/>
      <path class="cls-116" d="m89.08,55.18c-.07,3.67-.14,7.33-.2,11-1.01.01-2.01.02-3.02.04-.56-3.35.42-6.68-.23-10.16-.55-2.96,1.92-1.81,3.45-.88Z"/>
      <path class="cls-108" d="m189.84,110.22c-.37-1.64.54-3.55-1.01-4.95.04-1.48-.32-2.85-1.16-4.09-.76-3.04-2.64-4.57-5.83-4.33.6-1.3,2.21-.38,2.96-1.35,1.31-1.12,2.12-.19,2.94.71,2.19,1.01,2.78,3.41,4.31,4.98,1.86,2.42.02,4.77-.13,7.15-.95.33-.41,2.33-2.07,1.87Z"/>
      <path class="cls-18" d="m179.84,108.17c-.75.33-.9,1-.96,1.72-1.86-3.82-3.13-7.56,1.3-10.61-.11,2.96-.23,5.93-.34,8.89Z"/>
      <path class="cls-94" d="m175.64,116.89c-.96-2.48-2.54-4.37-4.89-5.71-1.33-.76-3.1-1.78-.82-3.55,2.41,3.45,7.81,4.94,6.94,10.55-1,.13-1.59-.12-1.23-1.29Z"/>
      <path class="cls-98" d="m187.74,96.21c-.98-.24-1.96-.47-2.94-.71-1.59-1.03-3.26-2.02-3.02-4.33,2.44,1.85,5.26,2.92,8.07,4-.46.84-1.28.96-2.12,1.03Z"/>
      <path class="cls-74" d="m169.94,107.69c-3.15-.36-1.62-4.41-4.15-5.26-.63.22-.94,0-.95-.67l.06-1.65c4.83.43,4.48,4.3,5.04,7.58Z"/>
      <path class="cls-1" d="m169.77,124.17c.86-1.14,1.53-2.48,3.1-2.85.48,2.11-.69,3.51-2.08,4.82-.84-.4-.91-1.19-1.02-1.97Z"/>
      <path class="cls-32" d="m175.64,116.89c.41.43.82.86,1.23,1.29-.39,1.58-.88,3.04-2.97,2.84-.09-1.66,1.07-2.79,1.74-4.13Z"/>
      <path class="cls-106" d="m147.66,61.18c.44-1.31.89-2.63,1.33-3.94,1.95-.7,2.83.11,3.47,2,.8,2.39.95,5.21,3.51,6.7,1.27.75,2.04,1.81,2.09,3.33,1.85.96,3.63,2.01,4.89,3.73,1.3.66,1.86,2.42,3.61,2.41,1.5.49,2.88,1.22,2.65,3.05-.18,1.42-1.55,1.8-2.69,1.63-6.96-1-11.14,1.76-12.37,8.78-.05.27-.47.43-.75.56-3.23-.3-3.2-.3-3.55-4.4-.15-1.76-.47-3.51-.66-5.28-.79-4.8.33-9.8-1.53-14.48-.39-1.37-.39-2.74,0-4.1Z"/>
      <path class="cls-87" d="m152.87,89.16c2.55-9.17,2.66-9.25,12.58-9.88.94-.06,2.15.38,2.69-.65.86-1.63-1.18-2.07-1.57-3.22,1.24-.38,2.26.25,3.31.75,1.79,3.68-.43,4.63-3.44,5.06-2.52.37-5.24-.87-7.58.94-.49,1.4-1.47,2.5-2.26,3.71-.74,1.35-.49,2.89-.86,4.31-.14.43-.36.81-.67,1.15-.43.23-.83.19-1.18-.16-.3-.33-.6-.66-.89-.99-.3-.19-.42-.41-.36-.65.07-.25.14-.37.23-.37Z"/>
      <path class="cls-197" d="m150.86,50.22c-1.31-2.34-1.49-4.69-.03-7.04,1.67,2.34,1.63,4.69.03,7.04Z"/>
      <path class="cls-192" d="m160.74,52.29c1.15,1.81,2.13,3.69,2.16,5.91-3.14-1.09-2.43-3.58-2.16-5.91Z"/>
      <path class="cls-1" d="m150.93,40.4c1.66-1.85,3.31-3.83,5.34-.38-1.76.44-3.53.89-5.29,1.33-.02-.32-.04-.64-.05-.95Z"/>
      <path class="cls-1" d="m162.96,73c-2.01-.74-3.64-1.99-4.89-3.73,2.65-.1,4.33,1.08,4.89,3.73Z"/>
      <path class="cls-173" d="m155.85,85.19c.74-1.27,1.51-2.51,3.01-3.03,4.81,2.4,9.34.72,13.87-.98,1.4,3.29,2.11,6.59.1,9.91-3.33-.59-6.65-.95-9.94.2-.28.36-.56.73-.84,1.09-1.91,4.07-1.67,8.51-2.17,12.82-.23,2.04.57,4.3-1.26,5.97-2.53-.6-1.11-2.87-1.93-4.16-.71-.03-1.36-.19-1.93-.61-.41-.7-.45-1.37.06-2.03.93-.48,1.04-1.37,1.14-2.27-1.51-5.14-.27-10.34-.29-15.51-.24-.51-.18-.98.17-1.41Z"/>
      <path class="cls-186" d="m156.84,106.26c2.56.45-.25,2.92,2.15,3.84-.71-5.1.61-9.92.93-14.86.08-1.28-.85-3.61,2.13-2.85-.77,8.87-1.48,17.74-2.35,26.6-.23,2.32-1.4,4.38-2.78,6.28-.72,1.01-1.62,1.76-2.85.95-.74-.49-.85-1.43-.29-2.16,2.91-3.76,2.09-8.01,1.79-12.23-.14-1.94-.22-3.95,1.27-5.56Z"/>
      <path class="cls-92" d="m156.84,106.26c-.71,6.07,1.57,12.34-2.23,18.32-1.43,2.25,1.43.5,2.31.69,0,.31-.01.63-.02.94.29.58.17,1.07-.36,1.45-1.69.92-3.27.69-4.77-.44-1.97-1.09-.07-2,.13-2.99,3.33-2.67,3.56-6.25,2.92-10.07-.65-2.7-.79-5.39.1-8.07.64.06,1.28.12,1.92.18Z"/>
      <path class="cls-126" d="m164.85,101.76c.32.22.63.44.95.67-1.2,4.82-1.82,9.72-1.91,14.68-.04,1.98.33,4.12-2.18,5.02.78-6.83-.21-13.93,3.15-20.37Z"/>
      <path class="cls-173" d="m176.86,79.21c.64.07,1.29.14,1.93.22,1.31,1.27,2.63,2.53,3.94,3.8.02.33.05.66.07,1-.89,3.94-3.64,2.25-5.92,1.94-.83-.43-1.01-1.17-.95-2.02,1.1-1.49-.82-3.56.93-4.93Z"/>
      <path class="cls-157" d="m156.65,127.12c.18-.28.26-.58.25-.91.96-.36,1.92-.73,2.88-1.09-.86,3.7-3.02,5.61-6.94,4.84-.96-.19-1.91-.8-.67-1.95,1.37-.92,3.19.39,4.49-.89Z"/>
      <path class="cls-206" d="m176.88,86.16c2.02-.51,4.59.67,5.92-1.94.45.97,1.76,2.37.36,2.92-2.05.81-4.41.75-6.29-.98Z"/>
      <path class="cls-178" d="m162.88,91.3c3.28-1.84,6.6-1.55,9.94-.2-3.31.07-6.62.13-9.94.2Z"/>
      <path class="cls-207" d="m176.86,79.21c-.22,1.66.65,3.52-.93,4.93,0-1.82-2.07-3.22-1.08-5.25.67.1,1.34.21,2.01.32Z"/>
      <path class="cls-160" d="m152.87,89.16c.04.34.08.68.12,1.02-2.52,2.29-3.81.97-4.09-1.67-.29-2.73-.09-5.51-.1-8.27.34-.37.69-.41,1.07-.07.45,2.99.89,5.98,1.35,8.99,1.33-.64.1-2.18,1.08-3,1.02.84.31,2.01.57,2.98Z"/>
      <path class="cls-147" d="m149.87,80.19c-.36.02-.72.04-1.07.07,0,0,0,.03,0,.03-1.01-2.62.18-5.44-.72-8.07-.11-1.99-.22-3.98-.33-5.97-.35-.48-.22-.81.32-1,2.11,4.8,1.82,9.89,1.81,14.95Z"/>
      <path class="cls-106" d="m148.07,72.21c1.57,2.57.64,5.37.72,8.07-1.22-2.6-.81-5.35-.72-8.07Z"/>
      <path class="cls-203" d="m153.89,91.18c.33,0,.66,0,1,0,.72,2.35.86,4.69-.12,7.01h-.4s-.4,0-.4,0c-.03-2.34-.05-4.67-.08-7.01Z"/>
      <path class="cls-64" d="m148.07,65.23c-.11.33-.21.67-.32,1-.29-.03-.59-.04-.89-.03.24-1.68-.55-3.52.8-5.02.13,1.35.27,2.7.4,4.05Z"/>
      <path class="cls-146" d="m174.9,170.22c-1.99,5.65-7.52,6.65-12.03,8.46-4.69,1.88-9.89,2.58-15.89,1.81,2.3-4.66,5.5-7.66,10.07-9.31,1.4-1.94,3.46-1.55,5.42-1.54,2.45.33,4.9.47,7.3-.34,1.4-.37,2.76-.92,4.26-.7.73.3,1.35.67.87,1.63Z"/>
      <path class="cls-148" d="m136.89,153.33c6.22-.78,12.45-.31,18.67-.21,1.4.02,3.48-.23,4.02,1.17.68,1.76-1.28,2.78-2.46,3.81-.58.5-1.48.63-2.23.93-1.5.64-3.04,1.17-4.66,1.41-.95.2-1.91.34-2.88.25-3.54-1.39-6.74,2.27-10.29.7-1.1-2.67-.89-5.36-.16-8.06Z"/>
      <path class="cls-162" d="m174.9,170.22c-.36-.37-.73-.74-1.09-1.11-1.69-2.27-4-1.65-6.24-1.32-1.79-.11-3.1-1.6-4.88-1.73-1.2-2.6.57-5.06,3.5-4.64,1.45.21,2.82.9,4.56.24-1.04-2.17-3.51-1.12-4.9-2.25,1.77-3.89,4.61-2.14,6.66-.92,3.61,2.15,4.47,7.54,2.39,11.73Z"/>
      <path class="cls-8" d="m136.89,153.33c.49,2.62-1.15,5.56,1.2,7.89.4.57.51,1.2.43,1.88-.25,1.22-.48,2.44.12,3.64.52.99,1.41,1.48,2.41,1.85,1.6.84,4.94-.2,3.83,3.55-3.87,1.63-5.16,6.02-9.06,9.17,0-9.76-.01-18.44.04-27.12,0-.29.66-.57,1.01-.86Z"/>
      <path class="cls-146" d="m162.69,166.06c2.05-1.05,3.51,1,5.36,1.02,2.32,1.66,1,2.37-.78,2.96-1.79-.27-3.55,1.02-5.36.11-1.62.35-3.24.69-4.86,1.04-.89-4.75,2.02-5.32,5.63-5.13Z"/>
      <path class="cls-110" d="m148.02,160.16c.61-.34,1.22-.69,1.83-1.03,1.39,1.43,3.63-.65,4.92,1.19-.95,1.33-1.89,2.66-2.84,3.99-1.92.8-3.87,1.28-5.96.74-1.55-.75-4.11-1.11-3.19-3.47.83-2.13,3.31-1.54,5.25-1.42Z"/>
      <path class="cls-148" d="m138.29,167.32c-1.79-1.2-1.83-2.61-.51-4.18,2.35-.1,4.5,1.05,6.83,1.12.46.13.9.3,1.33.5.96.56,2.49.67,1.97,2.43-.37.6-.73,1.21-1.1,1.81-1.54,1.65-3.15-.07-4.73.12-1.49-.12-2.72-.78-3.79-1.79Z"/>
      <path class="cls-35" d="m141.84,168.27c1.71-.15,3.17,1.44,4.96.73-.56,1.09-.64,2.48-1.91,3.14-.36-3.36-4.02-.9-5.14-2.93.45-.86,1.52-.35,2.09-.94Z"/>
      <path class="cls-50" d="m145.89,165.33c-.32-.13-.64-.27-.96-.4-.07-.89.14-1.41,1.16-.89,1.95.09,3.89.18,5.84.27-.43.91-1.1,1.54-2.09,1.81-1.25-.58-2.7-.2-3.95-.79Z"/>
      <path class="cls-14" d="m154.76,160.32c-1.53-.83-3.66.77-4.92-1.19,1.68-.02,3.34-1.08,5.05-.1l-.13,1.29Z"/>
      <path class="cls-151" d="m145.89,165.33c1.31.29,2.97-1.16,3.95.79-.64.35-1.29.71-1.93,1.06-.67-.62-1.35-1.24-2.02-1.85Z"/>
      <path class="cls-86" d="m128.7,91.31c-.16,2.27.86,4.66-.66,6.79-.11-2.3-1.35-4.7.66-6.79Z"/>
      <path class="cls-106" d="m154.92,106.08c-.03,2.69-.07,5.38-.1,8.07-1.94-3.34-.59-6.93-.8-10.4.27.21.54.41.81.62.03.57.06,1.14.09,1.7Z"/>
      <path class="cls-197" d="m154.77,98.19c.04-2.34.08-4.67.12-7.01,0,0-.01-.03-.01-.03,1.3-1.44-.3-3.53,1.12-4.95.29.73,1,1.6.81,2.18-1.44,4.53.22,9.21-.83,13.73-.4-1.31-.8-2.62-1.2-3.92Z"/>
      <path class="cls-22" d="m156.65,127.12c-1.19,1.85-2.98.64-4.49.89-.11-.28-.24-.54-.4-.79,1.63-.03,3.26-.06,4.89-.09Z"/>
      <path class="cls-173" d="m63.86,157.28c1.58.85,3.28,1.03,5.04.9.32,2.66,5.15,2.26,4.01,5.92-.27.17-.78.33-.79.52-.37,6.47-5.76,5.14-9.57,6.04-3.54.84-3.71-3.01-5.61-4.49-1.33-2.68-1.5-5.35,0-8.02.3-.03.59-.04.89-.04,1.79-1.85,3.9-1.4,6.02-.83Z"/>
      <path class="cls-193" d="m63.86,157.28c-2.01.28-4.01.55-6.02.83,1.21-1.89,2.5-3.6,5.08-1.99.31.39.63.77.94,1.16Z"/>
      <path class="cls-57" d="m155.99,86.2c-.48,1.62.53,3.59-1.12,4.95.31-1.99-.79-4.21.98-5.96.05.34.09.67.14,1.01Z"/>
      <path class="cls-71" d="m166.96,169.31c.74-.56,3.17-.31,1.08-2.24,4.68-1.76,5.9-1.33,5.77,2.04-1.26.38-2.51.77-3.77,1.15-1.15.09-2.67,1.34-3.08-.95Z"/>
      <path class="cls-29" d="m166.96,169.31c1.03.32,2.05.64,3.08.95-2.72.81-5.45,2.13-8.13-.12,1.76.18,3.19-1.59,5.05-.83Z"/>
      <path class="cls-81" d="m146.09,164.04c-.39.3-.77.59-1.16.89-2.57.15-5.15.37-7.15-1.79.1-.64.21-1.28.31-1.92,3.23-1.09,6.32-3.46,9.92-1.06-.6.2-1.2.39-1.79.61-.99.36-2.6.02-2.79,1.32-.27,1.81,2.22.63,2.65,1.95Z"/>
      <path class="cls-89" d="m141.84,168.27c-.7.31-1.39.62-2.09.94-1.4.08-1.93-.52-1.46-1.89l3.55.95Z"/>
    </g>
  </g>
</svg>