<?xml version="1.0" encoding="UTF-8"?>
<svg id="Layer_2" data-name="Layer 2" xmlns="http://www.w3.org/2000/svg" xmlns:xlink="http://www.w3.org/1999/xlink" viewBox="0 0 33.56 19.58">
  <defs>
    <style>
      .cls-1 {
        clip-path: url(#clippath);
      }

      .cls-2 {
        fill: none;
      }

      .cls-2, .cls-3, .cls-4, .cls-5, .cls-6, .cls-7, .cls-8 {
        stroke-width: 0px;
      }

      .cls-9 {
        clip-path: url(#clippath-1);
      }

      .cls-10 {
        clip-path: url(#clippath-4);
      }

      .cls-11 {
        clip-path: url(#clippath-3);
      }

      .cls-12 {
        clip-path: url(#clippath-2);
      }

      .cls-13 {
        clip-path: url(#clippath-7);
      }

      .cls-14 {
        clip-path: url(#clippath-8);
      }

      .cls-15 {
        clip-path: url(#clippath-6);
      }

      .cls-16 {
        clip-path: url(#clippath-5);
      }

      .cls-17 {
        clip-path: url(#clippath-9);
      }

      .cls-18 {
        clip-path: url(#clippath-60);
      }

      .cls-19 {
        clip-path: url(#clippath-20);
      }

      .cls-20 {
        clip-path: url(#clippath-21);
      }

      .cls-21 {
        clip-path: url(#clippath-24);
      }

      .cls-22 {
        clip-path: url(#clippath-23);
      }

      .cls-23 {
        clip-path: url(#clippath-22);
      }

      .cls-24 {
        clip-path: url(#clippath-25);
      }

      .cls-25 {
        clip-path: url(#clippath-44);
      }

      .cls-26 {
        clip-path: url(#clippath-45);
      }

      .cls-27 {
        clip-path: url(#clippath-40);
      }

      .cls-28 {
        clip-path: url(#clippath-42);
      }

      .cls-29 {
        clip-path: url(#clippath-41);
      }

      .cls-30 {
        clip-path: url(#clippath-47);
      }

      .cls-31 {
        clip-path: url(#clippath-43);
      }

      .cls-32 {
        clip-path: url(#clippath-46);
      }

      .cls-33 {
        clip-path: url(#clippath-48);
      }

      .cls-34 {
        clip-path: url(#clippath-49);
      }

      .cls-35 {
        clip-path: url(#clippath-27);
      }

      .cls-36 {
        clip-path: url(#clippath-28);
      }

      .cls-37 {
        clip-path: url(#clippath-26);
      }

      .cls-38 {
        clip-path: url(#clippath-29);
      }

      .cls-39 {
        clip-path: url(#clippath-34);
      }

      .cls-40 {
        clip-path: url(#clippath-35);
      }

      .cls-41 {
        clip-path: url(#clippath-36);
      }

      .cls-42 {
        clip-path: url(#clippath-37);
      }

      .cls-43 {
        clip-path: url(#clippath-39);
      }

      .cls-44 {
        clip-path: url(#clippath-33);
      }

      .cls-45 {
        clip-path: url(#clippath-32);
      }

      .cls-46 {
        clip-path: url(#clippath-30);
      }

      .cls-47 {
        clip-path: url(#clippath-38);
      }

      .cls-48 {
        clip-path: url(#clippath-31);
      }

      .cls-49 {
        clip-path: url(#clippath-53);
      }

      .cls-50 {
        clip-path: url(#clippath-54);
      }

      .cls-51 {
        clip-path: url(#clippath-50);
      }

      .cls-52 {
        clip-path: url(#clippath-51);
      }

      .cls-53 {
        clip-path: url(#clippath-52);
      }

      .cls-54 {
        clip-path: url(#clippath-55);
      }

      .cls-55 {
        clip-path: url(#clippath-56);
      }

      .cls-56 {
        clip-path: url(#clippath-57);
      }

      .cls-57 {
        clip-path: url(#clippath-58);
      }

      .cls-58 {
        clip-path: url(#clippath-61);
      }

      .cls-59 {
        clip-path: url(#clippath-64);
      }

      .cls-60 {
        clip-path: url(#clippath-62);
      }

      .cls-61 {
        clip-path: url(#clippath-59);
      }

      .cls-62 {
        clip-path: url(#clippath-65);
      }

      .cls-63 {
        clip-path: url(#clippath-63);
      }

      .cls-64 {
        clip-path: url(#clippath-14);
      }

      .cls-65 {
        clip-path: url(#clippath-13);
      }

      .cls-66 {
        clip-path: url(#clippath-12);
      }

      .cls-67 {
        clip-path: url(#clippath-10);
      }

      .cls-68 {
        clip-path: url(#clippath-15);
      }

      .cls-69 {
        clip-path: url(#clippath-17);
      }

      .cls-70 {
        clip-path: url(#clippath-16);
      }

      .cls-71 {
        clip-path: url(#clippath-19);
      }

      .cls-72 {
        clip-path: url(#clippath-11);
      }

      .cls-73 {
        clip-path: url(#clippath-18);
      }

      .cls-4 {
        fill: #4a9318;
      }

      .cls-5 {
        fill: #cb0423;
      }

      .cls-6 {
        fill: #fff;
      }

      .cls-7 {
        fill: #fcff2c;
      }

      .cls-8 {
        fill: #f6d128;
      }
    </style>
    <clipPath id="clippath">
      <rect class="cls-2" width="33.56" height="19.58"/>
    </clipPath>
    <clipPath id="clippath-1">
      <rect class="cls-2" width="33.56" height="19.58"/>
    </clipPath>
    <clipPath id="clippath-2">
      <rect class="cls-2" width="33.56" height="19.58"/>
    </clipPath>
    <clipPath id="clippath-3">
      <rect class="cls-2" width="33.56" height="19.58"/>
    </clipPath>
    <clipPath id="clippath-4">
      <rect class="cls-2" width="33.56" height="19.58"/>
    </clipPath>
    <clipPath id="clippath-5">
      <rect class="cls-2" width="33.56" height="19.58"/>
    </clipPath>
    <clipPath id="clippath-6">
      <rect class="cls-2" width="33.56" height="19.58"/>
    </clipPath>
    <clipPath id="clippath-7">
      <rect class="cls-2" width="33.56" height="19.58"/>
    </clipPath>
    <clipPath id="clippath-8">
      <rect class="cls-2" width="33.56" height="19.58"/>
    </clipPath>
    <clipPath id="clippath-9">
      <rect class="cls-2" width="33.56" height="19.58"/>
    </clipPath>
    <clipPath id="clippath-10">
      <rect class="cls-2" width="33.56" height="19.58"/>
    </clipPath>
    <clipPath id="clippath-11">
      <rect class="cls-2" width="33.56" height="19.58"/>
    </clipPath>
    <clipPath id="clippath-12">
      <rect class="cls-2" width="33.56" height="19.58"/>
    </clipPath>
    <clipPath id="clippath-13">
      <rect class="cls-2" width="33.56" height="19.58"/>
    </clipPath>
    <clipPath id="clippath-14">
      <rect class="cls-2" width="33.56" height="19.58"/>
    </clipPath>
    <clipPath id="clippath-15">
      <rect class="cls-2" width="33.56" height="19.58"/>
    </clipPath>
    <clipPath id="clippath-16">
      <rect class="cls-2" width="33.56" height="19.58"/>
    </clipPath>
    <clipPath id="clippath-17">
      <rect class="cls-2" width="33.56" height="19.58"/>
    </clipPath>
    <clipPath id="clippath-18">
      <rect class="cls-2" width="33.56" height="19.58"/>
    </clipPath>
    <clipPath id="clippath-19">
      <rect class="cls-2" width="33.56" height="19.58"/>
    </clipPath>
    <clipPath id="clippath-20">
      <rect class="cls-2" width="33.56" height="19.58"/>
    </clipPath>
    <clipPath id="clippath-21">
      <rect class="cls-2" width="33.56" height="19.58"/>
    </clipPath>
    <clipPath id="clippath-22">
      <rect class="cls-2" width="33.56" height="19.58"/>
    </clipPath>
    <clipPath id="clippath-23">
      <rect class="cls-2" width="33.56" height="19.58"/>
    </clipPath>
    <clipPath id="clippath-24">
      <rect class="cls-2" width="33.56" height="19.58"/>
    </clipPath>
    <clipPath id="clippath-25">
      <rect class="cls-2" width="33.56" height="19.58"/>
    </clipPath>
    <clipPath id="clippath-26">
      <rect class="cls-2" width="33.56" height="19.58"/>
    </clipPath>
    <clipPath id="clippath-27">
      <rect class="cls-2" width="33.56" height="19.58"/>
    </clipPath>
    <clipPath id="clippath-28">
      <rect class="cls-2" width="33.56" height="19.58"/>
    </clipPath>
    <clipPath id="clippath-29">
      <rect class="cls-2" width="33.56" height="19.58"/>
    </clipPath>
    <clipPath id="clippath-30">
      <rect class="cls-2" width="33.56" height="19.58"/>
    </clipPath>
    <clipPath id="clippath-31">
      <rect class="cls-2" width="33.56" height="19.58"/>
    </clipPath>
    <clipPath id="clippath-32">
      <rect class="cls-2" width="33.56" height="19.58"/>
    </clipPath>
    <clipPath id="clippath-33">
      <rect class="cls-2" width="33.56" height="19.58"/>
    </clipPath>
    <clipPath id="clippath-34">
      <rect class="cls-2" width="33.56" height="19.58"/>
    </clipPath>
    <clipPath id="clippath-35">
      <rect class="cls-2" width="33.56" height="19.58"/>
    </clipPath>
    <clipPath id="clippath-36">
      <rect class="cls-2" width="33.56" height="19.58"/>
    </clipPath>
    <clipPath id="clippath-37">
      <rect class="cls-2" width="33.56" height="19.58"/>
    </clipPath>
    <clipPath id="clippath-38">
      <rect class="cls-2" width="33.56" height="19.58"/>
    </clipPath>
    <clipPath id="clippath-39">
      <rect class="cls-2" width="33.56" height="19.58"/>
    </clipPath>
    <clipPath id="clippath-40">
      <rect class="cls-2" width="33.56" height="19.58"/>
    </clipPath>
    <clipPath id="clippath-41">
      <rect class="cls-2" width="33.56" height="19.58"/>
    </clipPath>
    <clipPath id="clippath-42">
      <rect class="cls-2" width="33.56" height="19.58"/>
    </clipPath>
    <clipPath id="clippath-43">
      <rect class="cls-2" width="33.56" height="19.58"/>
    </clipPath>
    <clipPath id="clippath-44">
      <rect class="cls-2" width="33.56" height="19.58"/>
    </clipPath>
    <clipPath id="clippath-45">
      <rect class="cls-2" width="33.56" height="19.58"/>
    </clipPath>
    <clipPath id="clippath-46">
      <rect class="cls-2" width="33.56" height="19.58"/>
    </clipPath>
    <clipPath id="clippath-47">
      <rect class="cls-2" width="33.56" height="19.58"/>
    </clipPath>
    <clipPath id="clippath-48">
      <rect class="cls-2" width="33.56" height="19.58"/>
    </clipPath>
    <clipPath id="clippath-49">
      <rect class="cls-2" width="33.56" height="19.58"/>
    </clipPath>
    <clipPath id="clippath-50">
      <rect class="cls-2" width="33.56" height="19.58"/>
    </clipPath>
    <clipPath id="clippath-51">
      <rect class="cls-2" width="33.56" height="19.58"/>
    </clipPath>
    <clipPath id="clippath-52">
      <rect class="cls-2" width="33.56" height="19.58"/>
    </clipPath>
    <clipPath id="clippath-53">
      <rect class="cls-2" width="33.56" height="19.58"/>
    </clipPath>
    <clipPath id="clippath-54">
      <rect class="cls-2" width="33.56" height="19.58"/>
    </clipPath>
    <clipPath id="clippath-55">
      <rect class="cls-2" width="33.56" height="19.58"/>
    </clipPath>
    <clipPath id="clippath-56">
      <rect class="cls-2" width="33.56" height="19.58"/>
    </clipPath>
    <clipPath id="clippath-57">
      <rect class="cls-2" width="33.56" height="19.58"/>
    </clipPath>
    <clipPath id="clippath-58">
      <rect class="cls-2" width="33.56" height="19.58"/>
    </clipPath>
    <clipPath id="clippath-59">
      <rect class="cls-2" width="33.56" height="19.58"/>
    </clipPath>
    <clipPath id="clippath-60">
      <rect class="cls-2" width="33.56" height="19.58"/>
    </clipPath>
    <clipPath id="clippath-61">
      <rect class="cls-2" width="33.56" height="19.58"/>
    </clipPath>
    <clipPath id="clippath-62">
      <rect class="cls-2" width="33.56" height="19.58"/>
    </clipPath>
    <clipPath id="clippath-63">
      <rect class="cls-2" width="33.56" height="19.58"/>
    </clipPath>
    <clipPath id="clippath-64">
      <rect class="cls-2" width="33.56" height="19.58"/>
    </clipPath>
    <clipPath id="clippath-65">
      <rect class="cls-2" width="33.56" height="19.58"/>
    </clipPath>
  </defs>
  <g id="Layer_1-2" data-name="Layer 1">
    <g id="ZIMBABWE">
      <g>
        <g class="cls-1">
          <rect class="cls-4" width="33.56" height="19.58"/>
        </g>
        <g class="cls-9">
          <rect class="cls-8" y="2.8" width="33.56" height="13.99"/>
        </g>
        <g class="cls-12">
          <rect class="cls-5" y="5.6" width="33.56" height="8.39"/>
        </g>
        <g class="cls-11">
          <rect class="cls-3" y="8.39" width="33.56" height="2.8"/>
        </g>
        <g class="cls-10">
          <polygon class="cls-3" points="0 0 0 19.58 .71 19.58 13.76 9.79 .71 0 0 0"/>
        </g>
        <g class="cls-16">
          <polygon class="cls-6" points="0 0 0 19.58 13.04 9.79 0 0"/>
        </g>
        <g class="cls-15">
          <polygon class="cls-5" points="5.28 4.82 3.08 9.28 6.42 10.93 5.28 4.82"/>
        </g>
        <g class="cls-13">
          <polygon class="cls-5" points="5.28 4.82 7.48 9.28 4.14 10.93 5.28 4.82"/>
        </g>
        <g class="cls-14">
          <polygon class="cls-5" points="5.28 4.82 3.62 9.5 7.13 10.75 5.28 4.82"/>
        </g>
        <g class="cls-17">
          <polygon class="cls-5" points="5.28 4.82 6.95 9.5 3.44 10.75 5.28 4.82"/>
        </g>
        <g class="cls-67">
          <polygon class="cls-5" points="10.01 8.25 5.09 7.54 4.55 11.23 10.01 8.25"/>
        </g>
        <g class="cls-72">
          <polygon class="cls-5" points=".55 8.25 5.47 7.54 6.01 11.23 .55 8.25"/>
        </g>
        <g class="cls-66">
          <polygon class="cls-5" points="10.01 8.25 5.04 8.12 4.94 11.84 10.01 8.25"/>
        </g>
        <g class="cls-65">
          <polygon class="cls-5" points=".55 8.25 5.52 8.12 5.62 11.84 .55 8.25"/>
        </g>
        <g class="cls-64">
          <polygon class="cls-5" points="7.79 13.25 6.92 9.07 4.83 9.5 7.79 13.25"/>
        </g>
        <g class="cls-68">
          <polygon class="cls-5" points="7.79 13.25 4.08 11.12 5.15 9.27 7.79 13.25"/>
        </g>
        <g class="cls-70">
          <polygon class="cls-5" points="2.77 13.25 6.48 11.12 5.42 9.27 2.77 13.25"/>
        </g>
        <g class="cls-69">
          <polygon class="cls-5" points="2.77 13.25 3.64 9.07 5.73 9.5 2.77 13.25"/>
        </g>
        <g class="cls-73">
          <g>
            <g class="cls-71">
              <path class="cls-3" d="m6.99,12.9c0-.63.11-1.23.33-1.86.1-.29.38-.88.45-.97,0-.01.12.02.26.05.27.08.35.07.35-.07,0-.07-.28-.32-1.65-1.47-.93-.77-1.68-1.38-1.72-1.38s-.07-.02-.08-.04c0-.03-.05-.33-.1-.67-.05-.34-.11-.68-.14-.75-.09-.2-.27-.31-.55-.33-.22-.01-.26,0-.41.08-.1.06-.22.1-.3.1-.16,0-.29.12-.29.28v.1h.24c.13-.01.2,0,.15,0-.17.03-.1.28.1.34.22.08.21.03.21,1.05,0,.82,0,.95-.07,1.13-.08.28-.08.7,0,.98.04.11.07.22.07.23s-.1.15-.23.3c-.23.27-.37.56-.37.77,0,.05-.03.12-.06.18-.09.12-.09.33,0,.4.09.09.43,1.52.44,1.8,0,.1.02.1.54-.02.43-.09,1.44-.11,1.95-.04.23.03.51.09.61.12.31.08.3.1.3-.31"/>
            </g>
            <g class="cls-19">
              <path class="cls-7" d="m6.55,13.1c-.47-.11-.99-.15-1.58-.13-.3.02-.61.04-.7.05l-.15.03-.04-.25c-.02-.15-.03-.26-.03-.27s.15-.03.32-.06c.59-.08,1.85-.05,2.44.07l.1.02v.31c0,.23-.01.3-.04.3-.02,0-.17-.03-.32-.07"/>
            </g>
            <g class="cls-20">
              <path class="cls-7" d="m3.65,13.12c0-.07-.18-.96-.27-1.27-.05-.21-.1-.4-.1-.41s.05,0,.11.05c.06.04.14.07.17.07.17,0,.26.26.41,1.12.02.12.04.26.05.3.01.07,0,.09-.15.12-.19.05-.23.05-.23.02"/>
            </g>
            <g class="cls-23">
              <path class="cls-7" d="m6.87,12.45s0-.05.03-.08c.04-.03.05-.03.05.02,0,.06-.06.11-.08.06"/>
            </g>
            <g class="cls-22">
              <path class="cls-7" d="m4.22,12.31c.09-.1.09-.1.16-.03.06.07.07.07,0,.1-.03.02-.1.02-.16.03h-.1s.09-.1.09-.1Z"/>
            </g>
            <g class="cls-21">
              <path class="cls-7" d="m6.4,12.37s.04-.07.08-.09c.06-.04.07-.03.12.04l.06.09h-.14c-.09,0-.13-.02-.12-.04"/>
            </g>
            <g class="cls-24">
              <path class="cls-7" d="m6.69,12.31c-.04-.05-.06-.11-.06-.11,0,0,.07,0,.15.02l.14.03-.08.09-.08.09-.07-.1Z"/>
            </g>
            <g class="cls-37">
              <path class="cls-7" d="m3.99,12.32c-.03-.07.03-.13.12-.13.08,0,.07,0-.02.11-.08.08-.08.08-.1.02"/>
            </g>
            <g class="cls-35">
              <path class="cls-7" d="m4.76,12.25l.09-.1.08.08s.09.09.1.09c0,0-.07.02-.17.02h-.18s.09-.09.09-.09Z"/>
            </g>
            <g class="cls-36">
              <path class="cls-7" d="m5.93,12.34l-.11-.02.08-.09.08-.08.1.11c.1.12.09.13-.15.08"/>
            </g>
            <g class="cls-38">
              <path class="cls-7" d="m4.47,12.24l-.08-.09h.12c.06,0,.14,0,.17-.02.05-.02.04,0-.02.09-.04.07-.09.12-.1.12,0,0-.05-.04-.1-.09"/>
            </g>
            <g class="cls-46">
              <path class="cls-7" d="m5.32,12.22l.09-.11.09.1c.05.05.09.1.09.11s-.08.01-.19.01h-.19l.1-.11Z"/>
            </g>
            <g class="cls-48">
              <path class="cls-7" d="m6.19,12.24l-.08-.09h.15c.17,0,.19.03.1.12-.08.08-.08.08-.17-.03"/>
            </g>
            <g class="cls-45">
              <path class="cls-7" d="m5.04,12.2l-.08-.09h.35l-.08.09c-.1.12-.1.12-.2,0"/>
            </g>
            <g class="cls-44">
              <path class="cls-7" d="m5.63,12.2l-.08-.09h.35l-.07.09c-.1.12-.1.12-.2,0"/>
            </g>
            <g class="cls-39">
              <path class="cls-7" d="m6.69,12.11c-.08-.02-.41-.05-.73-.07-.55-.04-1.24-.02-1.86.06-.13.02-.16.01-.16-.03,0-.09.66-.15,1.69-.15.5,0,1.01.02,1.13.03.21.03.22.03.22.11,0,.1-.03.1-.3.05"/>
            </g>
            <g class="cls-40">
              <path class="cls-7" d="m4.12,11.8c.07-.07.14-.12.15-.12.01,0,.06.04.1.09l.07.09-.16.02c-.09.02-.19.03-.23.04-.05.01-.03-.02.06-.12"/>
            </g>
            <g class="cls-41">
              <path class="cls-7" d="m3.89,11.82c-.03-.07-.02-.09.04-.12.04-.02.1-.02.13-.02.06,0,.05.02-.03.11l-.1.1-.03-.08Z"/>
            </g>
            <g class="cls-42">
              <path class="cls-7" d="m6.95,11.86s.02-.04.05-.05c.03-.01.04,0,.03.03-.02.06-.08.08-.08.02"/>
            </g>
            <g class="cls-47">
              <path class="cls-7" d="m4.73,11.73c.05-.06.09-.11.09-.12,0,0,.05.04.11.1l.1.1h-.19s-.19.03-.19.03l.09-.11Z"/>
            </g>
            <g class="cls-43">
              <path class="cls-7" d="m6.5,11.83h-.14s.1-.11.1-.11l.1-.09.08.09c.09.09.1.15.04.13-.02,0-.1,0-.18-.02"/>
            </g>
            <g class="cls-27">
              <path class="cls-7" d="m4.46,11.73l-.1-.09.16-.03c.08-.02.16-.02.17-.02,0,.01-.02.06-.06.12l-.07.09-.09-.08Z"/>
            </g>
            <g class="cls-29">
              <path class="cls-7" d="m5.9,11.79l-.08-.03.08-.08c.07-.08.09-.09.14-.04.03.02.07.08.08.11.03.05.02.07-.06.06-.05,0-.13-.02-.17-.03"/>
            </g>
            <g class="cls-28">
              <path class="cls-7" d="m6.74,11.7l-.1-.11.08.02s.14.02.22.02h.13l-.1.09c-.06.05-.11.09-.12.09,0,0-.06-.06-.11-.12"/>
            </g>
            <g class="cls-31">
              <path class="cls-7" d="m5.04,11.7s-.07-.09-.07-.11c0-.02.08-.03.19-.03h.19l-.06.08c-.11.13-.16.15-.24.06"/>
            </g>
            <g class="cls-25">
              <path class="cls-7" d="m5.34,11.69c.11-.1.15-.1.21.01.05.08.05.08-.12.08h-.18l.09-.09Z"/>
            </g>
            <g class="cls-26">
              <path class="cls-7" d="m6.16,11.67l-.08-.11h.08s.13.01.18.03l.1.02-.1.09c-.05.05-.1.09-.1.09,0,0-.05-.05-.09-.11"/>
            </g>
            <g class="cls-32">
              <path class="cls-7" d="m5.63,11.65l-.08-.09h.35l-.07.09c-.1.11-.1.11-.2,0"/>
            </g>
            <g class="cls-30">
              <path class="cls-7" d="m3.87,11.54s.04-.15.06-.25l.04-.19.36-.2c.2-.11.42-.25.49-.31.07-.06.15-.12.17-.14.05-.03,1.01.04,1.43.11.33.05.89.16.92.18,0,0-.04.17-.11.37-.06.2-.12.39-.13.42-.01.03-.05.04-.16.02-.54-.09-2.11-.08-2.71.02-.34.06-.39.05-.36-.02"/>
            </g>
            <g class="cls-33">
              <path class="cls-3" d="m6.62,11.31c.21-.23.06-.63-.23-.63-.2,0-.33.16-.33.37,0,.33.35.49.56.26"/>
            </g>
            <g class="cls-34">
              <path class="cls-7" d="m6.27,11.3c-.18-.1-.17-.42.02-.51.18-.09.36.05.36.26,0,.2-.22.34-.39.25"/>
            </g>
            <g class="cls-51">
              <path class="cls-3" d="m5.3,11.29c.2-.19.15-.52-.08-.63-.16-.07-.32-.02-.41.15-.1.18-.08.3.05.45.14.16.3.17.44.04"/>
            </g>
            <g class="cls-52">
              <path class="cls-7" d="m4.98,11.27c-.24-.11-.16-.55.11-.55s.34.4.11.53c-.11.06-.12.06-.22.02"/>
            </g>
            <g class="cls-53">
              <path class="cls-7" d="m3.72,11.43c.05-.14.04-.31-.01-.31-.03,0-.04.05-.04.13,0,.07-.02.15-.04.18-.03.04-.04.01-.03-.17.01-.12,0-.21-.01-.21-.03,0-.09.18-.11.33q-.01.09-.04-.02c-.02-.08-.01-.14.04-.25.04-.07.07-.18.07-.24,0-.09.06-.18.36-.51.2-.22.44-.49.53-.6.15-.2.15-.22.15-.41,0-.12-.02-.22-.02-.23-.04-.04-.09.18-.07.3.02.11,0,.15-.22.41-.13.16-.35.41-.48.55-.25.25-.34.39-.34.52,0,.04-.03.14-.07.23-.03.09-.05.18-.04.2.01.02,0,.02-.02,0-.03-.03-.03-.08,0-.2.02-.09.03-.18.02-.19-.03-.06-.08.02-.1.19-.01.1-.04.18-.05.16-.05-.03-.03-.22.03-.3.03-.05.07-.16.08-.26.04-.26.15-.46.38-.74.11-.14.21-.26.21-.27s-.03-.11-.07-.23c-.09-.27-.09-.7-.01-.95.09-.27.25-.53.53-.82.28-.29.54-.46.67-.44.11.02,3.31,2.7,3.31,2.77,0,.03-.03.05-.06.05s-.85-.25-1.81-.54c-1.54-.48-1.76-.56-1.82-.65-.09-.12-.1-.31-.01-.43.04-.05.07-.12.07-.14,0-.08-.16.13-.2.25-.03.14.03.38.13.46.04.03.33.14.65.24.54.17.58.19.61.28.07.23-.16.5-.49.58-.1.02-.24.09-.34.16-.37.3-.63.48-.85.58-.13.05-.25.12-.28.15-.02.02-.05.13-.07.24-.04.23-.06.26-.12.26-.04,0-.04-.02-.01-.09"/>
            </g>
            <g class="cls-49">
              <path class="cls-7" d="m7.07,10.59c-.34-.08-.88-.16-1.42-.21l-.53-.05.2-.09c.11-.04.26-.11.35-.16.13-.08.18-.09.38-.07.29.02.49-.03.57-.16.03-.06.06-.1.07-.11,0,0,.24.05.52.14l.51.16-.1.19c-.06.1-.12.23-.15.3-.06.14-.08.14-.39.06"/>
            </g>
            <g class="cls-50">
              <path class="cls-7" d="m5.91,9.92s-.02-.04,0-.09c.03-.04.05-.05.07-.03.03.05-.03.15-.07.12"/>
            </g>
            <g class="cls-54">
              <path class="cls-7" d="m6.03,9.91s.02-.05.05,0c0,.02,0,.03-.02.03-.02,0-.04-.02-.04-.03"/>
            </g>
            <g class="cls-55">
              <path class="cls-7" d="m6.19,9.89s.02-.05.03-.03c.04.03.04.09,0,.09-.02,0-.03-.02-.03-.06"/>
            </g>
            <g class="cls-56">
              <path class="cls-7" d="m6.35,9.89s-.02-.05-.02-.09c0-.03,0-.04.04-.02.02.03.03.06.02.09,0,.02-.02.03-.04.02"/>
            </g>
            <g class="cls-57">
              <path class="cls-7" d="m6.08,9.81s-.02-.05-.02-.08c0-.04.01-.05.04-.02.02.02.03.06.02.08,0,.02-.02.03-.04.02"/>
            </g>
            <g class="cls-61">
              <path class="cls-7" d="m6.47,9.8c-.03-.07,0-.07.05-.02.03.03.03.05,0,.05-.02,0-.05-.02-.06-.04"/>
            </g>
            <g class="cls-18">
              <path class="cls-7" d="m6.21,9.73s0-.04.02-.05c.02-.02.03,0,.03.03,0,.07-.02.07-.05.02"/>
            </g>
            <g class="cls-58">
              <path class="cls-7" d="m6.36,9.67s.02-.04.03-.03c.04.03.04.09,0,.09-.02,0-.03-.03-.03-.06"/>
            </g>
            <g class="cls-60">
              <path class="cls-7" d="m5.96,9.63c0-.06.02-.07.05-.02,0,.02,0,.04-.02.06-.02.01-.03,0-.03-.04"/>
            </g>
            <g class="cls-63">
              <path class="cls-7" d="m6.09,9.59s.01-.05.03-.03c.04.03.04.09,0,.09-.02,0-.03-.03-.03-.06"/>
            </g>
            <g class="cls-59">
              <path class="cls-7" d="m3.87,7.83c-.01-.16-.01-.52,0-.82.02-.6,0-.67-.18-.73-.15-.05-.21-.1-.21-.17,0-.05.03-.05.2-.03.18.02.2.02.19-.03-.02-.09-.25-.17-.49-.16-.19.02-.22,0-.2-.04.03-.12.14-.19.29-.21.09,0,.22-.05.28-.09.11-.06.17-.07.37-.06.43.03.52.15.63.98.04.32.08.61.08.66,0,.05-.06.12-.21.23-.23.16-.51.45-.65.66l-.08.12v-.29Z"/>
            </g>
            <g class="cls-62">
              <path class="cls-3" d="m4.19,5.9c.05-.06.05-.09.02-.16-.05-.12-.1-.09-.08.04.01.07,0,.09-.05.09-.06,0-.07-.02-.07-.12s0-.1-.05-.07c-.07.06-.06.15,0,.23.07.09.15.09.23,0"/>
            </g>
          </g>
        </g>
      </g>
    </g>
  </g>
</svg>